<?xml version="1.0" encoding="utf-8"?>
<!-- Generator: Adobe Illustrator 24.1.1, SVG Export Plug-In . SVG Version: 6.00 Build 0)  -->
<svg version="1.1" id="Layer_1" xmlns="http://www.w3.org/2000/svg" xmlns:xlink="http://www.w3.org/1999/xlink" x="0px" y="0px"
	 viewBox="0 0 226.71 330" style="enable-background:new 0 0 226.71 330;" xml:space="preserve">
<g>
	<g>
		<path style="fill:#FFFFFF;" d="M135.7,241.56v39.5c0,0-2.93,0.73-6.83,0.73c-3.9,0-6.87-0.73-6.87-0.73v-39.5
			c0-2.6,6.37-4.73,8.97-4.73S135.7,238.96,135.7,241.56z"/>
		<path style="fill-rule:evenodd;clip-rule:evenodd;fill:#009FF9;" d="M154.26,318.49c-3.47,3.97-9.13,3.3-13.8,3.3h-12.53v-0.1
			c-2.67-0.5-5.93-2.47-5.93-4.87v-35.77c0,0,2.97,0.73,6.87,0.73c3.9,0,6.83-0.73,6.83-0.73v15.03c1.3,0,2.73,0.07,4.43,0.4
			c0.07,0.03,0.33,0.1,0.33,0.1c6,1.3,11.2,5.3,14,10.77C155.96,310.32,156.63,315.76,154.26,318.49z"/>
	</g>
	<path d="M130.96,236.83c2.6,0,4.72,2.11,4.72,4.72v34.97v4.53v15.05c0.1,0,0.19,0,0.29,0c1.23,0,2.58,0.09,4.16,0.4
		c0.06,0.01,0.33,0.08,0.33,0.08c6,1.3,11.21,5.33,13.99,10.79c1.5,2.96,2.16,8.39-0.2,11.1c-2.61,2.99-6.46,3.36-10.19,3.36
		c-1.23,0-2.44-0.04-3.59-0.04h-4.78h-3.19h-3.41l-1.16-0.12c-2.65-0.49-5.91-2.46-5.91-4.84v-40.32h0v-34.97
		C122.01,238.94,128.36,236.83,130.96,236.83 M130.96,232.83c-2.74,0-12.95,2.18-12.95,8.72v34.97l0,40.32
		c0,4.61,4.74,7.96,9.19,8.77c0.1,0.02,0.21,0.03,0.31,0.04l1.16,0.12c0.14,0.01,0.27,0.02,0.41,0.02h3.41h3.19h4.78
		c0.55,0,1.11,0.01,1.68,0.02c0.63,0.01,1.27,0.02,1.92,0.02c4.49,0,9.57-0.56,13.21-4.73c3.77-4.32,2.71-11.69,0.76-15.54
		c-3.32-6.53-9.57-11.34-16.71-12.89l-0.26-0.06c-0.47-0.09-0.92-0.17-1.37-0.24v-11.32v-4.53v-34.97
		C139.68,236.74,135.77,232.83,130.96,232.83L130.96,232.83z"/>
</g>
<g>
	<g>
		<path style="fill:#FFFFFF;" d="M104.66,241.56v39.5c0,0-2.93,0.73-6.83,0.73S91,281.06,91,281.06v-39.5c0-2.6,2.1-4.73,4.7-4.73
			C98.3,236.82,104.66,238.96,104.66,241.56z"/>
		<path style="fill-rule:evenodd;clip-rule:evenodd;fill:#009FF9;" d="M104.66,281.06v35.77c0,2.4-3.27,4.37-5.9,4.87v0.1H86.2
			c-4.67,0-10.33,0.67-13.77-3.3c-2.4-2.73-1.73-8.17-0.23-11.13c2.8-5.47,8-9.47,14-10.77c0,0,0.27-0.07,0.33-0.1
			c1.7-0.33,3.13-0.4,4.47-0.4v-15.03c0,0,2.93,0.73,6.83,0.73S104.66,281.06,104.66,281.06z"/>
	</g>
	<path d="M95.7,236.83c2.6,0,8.95,2.11,8.95,4.72v34.97h0v40.32c0,2.37-3.26,4.35-5.91,4.84l-1.16,0.12h-3.41h-3.19H86.2
		c-1.15,0-2.37,0.04-3.59,0.04c-3.74,0-7.58-0.37-10.19-3.36c-2.37-2.71-1.71-8.14-0.2-11.1c2.78-5.47,8-9.5,13.99-10.79
		c0,0,0.28-0.06,0.33-0.08c1.58-0.31,2.93-0.4,4.16-0.4c0.1,0,0.2,0,0.29,0v-15.05v-4.53v-34.97
		C90.98,238.94,93.1,236.83,95.7,236.83 M95.7,232.83c-4.81,0-8.72,3.91-8.72,8.72v34.97v4.53v11.32c-0.4,0.06-0.81,0.13-1.22,0.21
		l-0.47,0.11c-7.09,1.54-13.34,6.35-16.66,12.88c-1.96,3.85-3.02,11.22,0.76,15.55c3.64,4.17,8.72,4.73,13.21,4.73
		c0.64,0,1.29-0.01,1.92-0.02c0.57-0.01,1.13-0.02,1.68-0.02h4.78h3.19h3.41c0.14,0,0.27-0.01,0.41-0.02l1.16-0.12
		c0.1-0.01,0.21-0.03,0.31-0.04c4.46-0.82,9.19-4.17,9.19-8.77v-40.32l0-34.97C108.66,235.01,98.45,232.83,95.7,232.83L95.7,232.83z
		"/>
</g>
<g>
	<path style="fill:#FFFFFF;" d="M87.66,65.17c1.78,0.52,3.55,1.29,5.38,2.3c1.5,0.83,2.91,1.89,4.22,2.99
		c4.24,3.52,9.69,14.61,3.86,19.04c-4.22,3.21-8.11-4.8-10.48-7.12c-5.3-5.2-12.88,0.52-16.98,4.81c-3.3,3.47-8.78,3.6-12.23,0.28
		c-3.46-3.32-3.62-8.81-0.35-12.3c4.06-4.33,9.04-8.03,14.78-9.77C80.13,64.11,83.9,64.07,87.66,65.17z"/>
	<path style="fill:#673101;" d="M74.93,81.44c-0.67-0.18-1.35-0.08-1.97,0.12c0.76-0.45,1.34-1.18,1.58-2.11
		c0.48-1.87-0.64-3.77-2.48-4.26c-0.86-0.22-1.72-0.07-2.45,0.31c0.65-0.46,1.17-1.11,1.38-1.93c0.48-1.87-0.63-3.78-2.48-4.26
		c-0.17-0.05-0.33-0.02-0.51-0.03c-3.78,2.66-6.34,5.29-6.91,5.9c-3.27,3.49-3.11,8.98,0.35,12.3c3.45,3.32,8.92,3.19,12.23-0.29
		c0.97-1.02,2.29-2.16,3.72-3.21C77.08,82.79,76.2,81.77,74.93,81.44L74.93,81.44z"/>
	<path d="M82.27,64.39c1.83,0,3.61,0.27,5.39,0.78c1.78,0.52,3.55,1.29,5.38,2.3c1.5,0.83,2.91,1.89,4.22,2.99
		c4.24,3.52,9.69,14.61,3.86,19.04c-0.69,0.52-1.37,0.75-2.03,0.75c-3.42,0-6.47-5.93-8.45-7.87c-1.5-1.47-3.19-2.07-4.93-2.07
		c-2.85,0-5.83,1.6-8.38,3.56c0.01,0.04,0.03,0.07,0.04,0.11c-1.42,1.04-2.72,2.17-3.7,3.19c-0.01,0.01-0.01,0.01-0.02,0.02
		c-1.7,1.79-3.98,2.69-6.26,2.69c-2.15,0-4.3-0.8-5.97-2.41c-2.16-2.07-3.03-5-2.58-7.75c0.27-1.65,1.01-3.24,2.24-4.55
		c0.28-0.3,1.05-1.09,2.2-2.13c3.62-3.38,7.82-6.2,12.57-7.64C78.11,64.72,80.23,64.39,82.27,64.39L82.27,64.39z M82.27,60.39
		c-2.46,0-4.94,0.39-7.57,1.19c-4.9,1.49-9.66,4.36-14.14,8.54c-1.13,1.02-1.97,1.88-2.37,2.3c-1.76,1.88-2.89,4.17-3.29,6.67
		c-0.68,4.15,0.73,8.36,3.76,11.28c2.36,2.27,5.47,3.52,8.74,3.52c3.44,0,6.78-1.43,9.16-3.94c0.84-0.87,1.97-1.84,3.19-2.74
		c0.27-0.2,0.5-0.42,0.71-0.67c2.02-1.44,3.87-2.23,5.26-2.23c0.82,0,1.47,0.29,2.13,0.93c0.34,0.33,0.97,1.18,1.52,1.92
		c2.23,2.99,5.27,7.09,9.73,7.09c1.57,0,3.11-0.54,4.45-1.56c2.61-1.99,4.04-4.94,4.11-8.54c0.13-6.21-3.97-13.54-7.84-16.76
		c-1.79-1.49-3.33-2.58-4.85-3.41c-2.14-1.18-4.17-2.05-6.19-2.64C86.6,60.7,84.48,60.39,82.27,60.39L82.27,60.39z"/>
</g>
<g>
	<path style="fill:#FFFFFF;" d="M139,65.17c-1.78,0.52-3.55,1.29-5.38,2.3c-1.5,0.83-2.91,1.89-4.22,2.99
		c-4.24,3.52-9.69,14.61-3.86,19.04c4.22,3.21,8.11-4.8,10.48-7.12c5.3-5.2,12.88,0.52,16.98,4.81c3.3,3.47,8.78,3.6,12.23,0.28
		c3.46-3.32,3.62-8.81,0.35-12.3c-4.06-4.33-9.04-8.03-14.78-9.77C146.54,64.11,142.77,64.07,139,65.17z"/>
	<path style="fill:#673101;" d="M151.74,81.44c0.67-0.18,1.35-0.08,1.97,0.12c-0.76-0.45-1.34-1.18-1.58-2.11
		c-0.48-1.87,0.64-3.77,2.48-4.26c0.86-0.22,1.72-0.07,2.45,0.31c-0.65-0.46-1.17-1.11-1.38-1.93c-0.48-1.87,0.63-3.78,2.48-4.26
		c0.17-0.05,0.33-0.02,0.51-0.03c3.78,2.66,6.34,5.29,6.91,5.9c3.27,3.49,3.11,8.98-0.35,12.3c-3.45,3.32-8.92,3.19-12.23-0.29
		c-0.97-1.02-2.29-2.16-3.72-3.21C149.59,82.79,150.47,81.77,151.74,81.44"/>
	<path d="M144.39,64.39c2.05,0,4.16,0.33,6.41,1.02c4.75,1.44,8.95,4.26,12.57,7.64c1.15,1.04,1.92,1.83,2.2,2.13
		c1.23,1.31,1.97,2.9,2.24,4.55c0.45,2.75-0.42,5.67-2.58,7.75c-1.67,1.61-3.82,2.41-5.97,2.41c-2.28,0-4.56-0.9-6.26-2.69
		c-0.01-0.01-0.01-0.01-0.02-0.02c-0.97-1.01-2.28-2.14-3.7-3.19c0.01-0.04,0.03-0.07,0.04-0.11c-2.55-1.96-5.54-3.56-8.38-3.56
		c-1.74,0-3.42,0.6-4.93,2.07c-1.98,1.94-5.03,7.87-8.45,7.87c-0.67,0-1.34-0.22-2.03-0.75c-5.83-4.43-0.38-15.52,3.86-19.04
		c1.32-1.09,2.73-2.16,4.22-2.99c1.83-1.01,3.6-1.78,5.38-2.3C140.78,64.65,142.56,64.39,144.39,64.39 M144.39,60.39
		c-2.2,0-4.33,0.31-6.51,0.94c-2.03,0.59-4.05,1.45-6.19,2.64c-1.51,0.84-3.05,1.92-4.85,3.41c-3.87,3.22-7.97,10.54-7.84,16.76
		c0.08,3.6,1.5,6.55,4.11,8.54c1.35,1.02,2.89,1.57,4.45,1.57c4.46,0,7.5-4.1,9.73-7.09c0.55-0.74,1.18-1.59,1.52-1.92
		c0.65-0.64,1.31-0.93,2.13-0.93c1.39,0,3.24,0.79,5.26,2.23c0.2,0.25,0.44,0.47,0.71,0.67c1.22,0.9,2.35,1.87,3.18,2.73
		c2.39,2.51,5.72,3.94,9.17,3.94c3.27,0,6.38-1.25,8.74-3.52c3.03-2.91,4.44-7.12,3.76-11.28c-0.41-2.5-1.54-4.79-3.27-6.64
		c-0.42-0.44-1.26-1.3-2.44-2.36c-4.44-4.14-9.19-7.01-14.09-8.5C149.33,60.78,146.85,60.39,144.39,60.39L144.39,60.39z"/>
</g>
<g>
	<path style="fill:#FFFFFF;" d="M57.28,203.02c-0.47,0.97-0.87,1.93-1.27,2.93c-0.87,2.13-1.53,4.3-2.1,6.5
		c-0.23,0.87-0.43,1.73-0.57,2.6c-1.53,7.43-1.57,15.17-0.57,22.73c0.53,4.13-2.3,7.97-6.37,8.57c-0.8,0.1-1.57,0.1-2.33-0.03
		c-3.07-0.53-5.27-4.4-5.7-7.7c-1.37-10.43-0.93-20.9,2.13-30.53v-0.03c0-0.03,0.03-0.07,0.03-0.1c0.33-1.07,0.7-2.1,1.1-3.17
		c0.43-1.07,0.87-2.13,1.37-3.17c0.53-1.2,1.17-2.37,1.83-3.53c0.43-0.8,0.9-1.6,1.37-2.37c0.13-0.2,0.27-0.37,0.37-0.53
		c0.57-0.87,1.13-1.7,1.73-2.5l0.13-0.13c0.6-0.83,1.27-1.67,2-2.47c0.1-0.17,0.23-0.3,0.37-0.47c0.43-0.5,0.9-1,1.43-1.5
		c0.37-0.47,0.83-0.93,1.3-1.37c0.77-0.77,1.53-1.5,2.37-2.2c1.63-1.4,4.07-3.93,6.5-3.93c0.1,0,0.23,0.03,0.33,0.03
		C72.25,181.66,58.78,199.82,57.28,203.02z"/>
	<path style="fill:#0088C5;" d="M53.18,246.66c-0.27,0.3-0.57,0.53-0.93,0.77c-0.9,0.57-2.1,0.87-3.63,0.87h-0.23
		c-0.73-0.03-1.53-0.13-2.37-0.3c-1.77-0.4-3.57-1.2-4.6-2.37c-4.77-5.3-4.27-13.37-4.03-19.7c0.13-3.3,0.47-6.57,1.07-9.8
		c0.03-0.27,0.27-1.47,0.57-2.87c0.1-0.47,0.2-0.93,0.3-1.43c0.03-0.23,0.1-0.5,0.17-0.73c0.17-0.7,0.33-1.37,0.47-1.87
		c0.1-0.4,0.23-0.73,0.33-0.93c0.03-0.07,0.07-0.1,0.1-0.17c0.03-0.03,0.07-0.07,0.1-0.07h0.03v0.03c2.93,2.43,8.5,5.1,13.4,4.37
		c0.03-0.03,0.03-0.03,0.03-0.03c-0.23,0.87-0.43,1.73-0.6,2.63c-0.2,1.73-0.33,3.47-0.4,4.13c0,0.1-0.03,0.17-0.03,0.23
		c-0.93,6.53,0.5,11.97,1.57,18.33C55.02,240.96,55.18,244.62,53.18,246.66z"/>
	<path d="M69.32,180.66c-0.63-1.33-2.3-3.57-6.13-3.97c-0.27-0.03-0.53-0.07-0.77-0.07c-3.63,0-6.57,2.63-8.47,4.37l-0.67,0.57
		c-7.6,6.57-13.1,14.8-16.3,24.43c-1.1,1.83-1.67,4.9-2.47,9.4c-0.63,3.33-1,6.83-1.13,10.4l-0.03,0.7
		c-0.23,6.53-0.57,15.5,5.1,21.83c2,2.23,5.03,3.2,6.7,3.57c1.03,0.23,2.13,0.37,3.13,0.4h0.33c4.17,0,6.57-1.77,7.83-3.27
		c2.23-2.67,2.87-6.57,1.97-11.93c-0.17-1.07-0.37-2.13-0.57-3.17c-0.9-4.9-1.67-9.13-0.97-13.93c0.03-0.17,0.07-0.67,0.13-1.3
		c0.07-0.8,0.17-1.9,0.3-3c0.8-3.93,2-7.63,3.57-10.97c0.17-0.37,0.9-1.53,1.53-2.53C67.55,193.89,71.95,185.99,69.32,180.66z
		 M57.28,203.02c-0.47,0.97-0.87,1.93-1.27,2.93c-0.83,2.1-1.53,4.27-2.07,6.47c-0.23,0.87-0.43,1.73-0.6,2.63
		c-0.2,1.73-0.33,3.47-0.4,4.13c0,0.1-0.03,0.17-0.03,0.23c-0.93,6.53,0.5,11.97,1.57,18.33c0.53,3.2,0.7,6.87-1.3,8.9
		c-0.27,0.3-0.57,0.57-0.93,0.77c-0.9,0.57-2.1,0.87-3.63,0.87h-0.23c-0.73-0.03-1.53-0.13-2.37-0.3c-1.77-0.4-3.57-1.2-4.6-2.37
		c-4.77-5.3-4.27-13.37-4.03-19.7c0.13-3.3,0.47-6.57,1.07-9.8c0.03-0.27,0.27-1.47,0.57-2.87c0.1-0.47,0.2-0.97,0.3-1.43
		c0.03-0.23,0.1-0.5,0.17-0.73c0.13-0.7,0.3-1.33,0.47-1.87c0.1-0.4,0.23-0.73,0.33-0.93c0.03-0.1,0.07-0.17,0.1-0.17
		c0.03-0.03,0.07-0.07,0.1-0.07h0.03c0-0.03,0.03-0.07,0.03-0.1c0.33-1.07,0.7-2.13,1.1-3.17c0.43-1.07,0.87-2.13,1.37-3.17
		c0.53-1.2,1.17-2.37,1.83-3.53c0.4-0.8,0.9-1.6,1.37-2.37c0.13-0.2,0.27-0.37,0.37-0.53c0.53-0.83,1.13-1.67,1.73-2.5l0.13-0.13
		c0.6-0.83,1.27-1.67,2-2.47c0.1-0.17,0.23-0.3,0.37-0.47c0.43-0.5,0.9-1,1.43-1.5c0.37-0.47,0.83-0.93,1.3-1.37
		c0.77-0.77,1.53-1.5,2.37-2.2c1.63-1.4,4.07-3.93,6.5-3.93c0.1,0,0.23,0.03,0.33,0.03C72.25,181.66,58.78,199.82,57.28,203.02z"/>
</g>
<g>
	<g>
		<path style="fill:#FFFFFF;" d="M188.18,238.62c-0.43,3.3-2.67,7.17-5.7,7.7c-0.77,0.13-1.57,0.13-2.37,0.03
			c-4.03-0.6-6.87-4.43-6.33-8.57c1-7.57,0.97-15.3-0.57-22.73c-0.13-0.87-0.33-1.73-0.57-2.6c-0.57-2.2-1.23-4.37-2.1-6.5
			c-0.4-1-0.8-1.97-1.27-2.93c-1.5-3.2-14.97-21.37-5.5-22.37c0.13,0,0.27-0.03,0.37-0.03c2.43,0,4.87,2.53,6.5,3.93
			c0.83,0.7,1.6,1.43,2.37,2.2c0.47,0.43,0.93,0.9,1.3,1.37c0.53,0.5,1,1,1.43,1.5c0.13,0.17,0.27,0.3,0.37,0.47
			c0.73,0.8,1.37,1.63,2,2.47c0.03,0.03,0.07,0.07,0.1,0.13c0.7,0.93,1.37,1.87,1.97,2.83c0.57,0.9,1.1,1.8,1.6,2.7
			c0.63,1.1,1.23,2.23,1.77,3.4c0.47,1.03,0.93,2.1,1.37,3.17c0.4,1.07,0.77,2.1,1.1,3.17c0,0.03,0.03,0.07,0.03,0.1v0.03
			C189.12,217.72,189.55,228.19,188.18,238.62z"/>
		<path style="fill:#0088C5;" d="M185.15,245.62c-1.03,1.17-2.83,1.97-4.6,2.37c-0.83,0.17-1.63,0.27-2.37,0.3h-0.23
			c-1.53,0-2.73-0.3-3.63-0.87c-0.37-0.23-0.67-0.47-0.93-0.77c-2-2.03-1.83-5.7-1.3-8.9c1.07-6.37,2.5-11.8,1.57-18.33
			c0-0.07-0.03-0.13-0.03-0.23c-0.07-0.67-0.2-2.4-0.4-4.13c-0.17-0.9-0.37-1.77-0.6-2.63c0,0,0,0,0.03,0.03
			c4.9,0.73,10.43-1.93,13.4-4.37v-0.03c0,0,0,0,0.03,0l0.1,0.07c0.03,0.07,0.07,0.1,0.1,0.17l0.17,0.47
			c0.17,0.53,0.4,1.4,0.63,2.33c0,0.03,0,0.03,0,0.03c0.13,0.7,0.3,1.43,0.47,2.13c0.3,1.4,0.53,2.6,0.57,2.87
			c0.6,3.23,0.93,6.5,1.07,9.8C189.42,232.26,189.92,240.32,185.15,245.62z"/>
	</g>
	<path d="M193.18,226.49v-0.7c-0.13-3.57-0.53-7.07-1.13-10.4c-0.83-4.5-1.4-7.57-2.47-9.37c-3.2-9.67-8.7-17.9-16.33-24.47
		l-0.63-0.57c-1.93-1.73-4.83-4.37-8.47-4.37c-0.27,0-0.5,0.03-0.77,0.07c-3.87,0.4-5.5,2.63-6.17,3.97
		c-2.6,5.33,1.8,13.23,6.93,21.53c0.63,1,1.33,2.17,1.53,2.53c1.57,3.33,2.77,7.03,3.57,10.97c0.13,1.1,0.23,2.2,0.3,3
		c0.07,0.63,0.1,1.13,0.13,1.3c0.7,4.8-0.1,9.03-0.97,13.93c-0.2,1.03-0.4,2.1-0.57,3.17c-0.93,5.37-0.27,9.27,1.97,11.93
		c1.27,1.5,3.63,3.27,7.83,3.27h0.3c1.03-0.03,2.1-0.17,3.17-0.4c1.63-0.37,4.7-1.33,6.7-3.6
		C193.78,241.99,193.45,233.02,193.18,226.49z M185.15,245.62c-1.03,1.17-2.83,1.97-4.6,2.37c-0.83,0.17-1.63,0.27-2.37,0.3h-0.23
		c-1.53,0-2.73-0.3-3.63-0.87c-0.37-0.2-0.67-0.47-0.93-0.77c-2-2.03-1.83-5.7-1.3-8.9c1.07-6.37,2.5-11.8,1.57-18.33
		c0-0.07-0.03-0.13-0.03-0.23c-0.07-0.67-0.2-2.4-0.4-4.13c-0.17-0.9-0.37-1.77-0.6-2.63c-0.53-2.2-1.23-4.37-2.07-6.47
		c-0.4-1-0.8-1.97-1.27-2.93c-1.5-3.2-14.97-21.37-5.5-22.37c0.13,0,0.27-0.03,0.37-0.03c2.43,0,4.87,2.53,6.5,3.93
		c0.83,0.7,1.6,1.43,2.37,2.2c0.47,0.43,0.93,0.9,1.3,1.37c0.53,0.5,1,1,1.43,1.5c0.13,0.17,0.27,0.3,0.37,0.47
		c0.73,0.8,1.4,1.63,2,2.47c0.03,0.03,0.07,0.07,0.1,0.13c0.7,0.93,1.37,1.87,1.97,2.83c0.6,0.9,1.13,1.77,1.6,2.7
		c0.63,1.1,1.23,2.23,1.77,3.4c0.5,1.03,0.93,2.1,1.37,3.17c0.4,1.03,0.77,2.1,1.1,3.17c0,0.03,0.03,0.07,0.03,0.1c0,0,0,0,0.03,0
		l0.1,0.07c0.03,0,0.07,0.07,0.1,0.17l0.17,0.47c0.23,0.57,0.43,1.43,0.63,2.33c0,0.03,0,0.03,0,0.03c0.07,0.23,0.13,0.47,0.17,0.7
		c0.1,0.47,0.2,0.97,0.3,1.43c0.3,1.4,0.53,2.6,0.57,2.87c0.6,3.23,0.93,6.5,1.07,9.8C189.42,232.26,189.92,240.32,185.15,245.62z"
		/>
</g>
<g>
	<path style="fill-rule:evenodd;clip-rule:evenodd;" d="M170.98,193.82c-0.6-2.73-1.2-5.5-1.7-8.23c-0.4-2.2-0.23-6.67-0.13-8.17
		c0.37-3.9,1.57-7.67,2.67-10.83c5-13.93,5.9-27.57,2.7-41.63c-2.97-13.1-9.27-24.27-17.27-30.67c-12.9-10.3-28-16.2-41.4-16.2
		h-5.03c-13.4,0-28.5,5.9-41.4,16.2c-8,6.4-14.3,17.57-17.27,30.67c-3.2,14.07-2.3,27.7,2.67,41.63c1.13,3.17,2.33,6.93,2.7,10.77
		c0.1,1.57,0.27,6.03-0.13,8.23c-0.5,2.73-1.1,5.47-1.7,8.2c-1.2,5.63-2.47,11.43-2.77,17.33c-0.6,11.03,2.1,26.4,9.4,35.8
		c8.53,11,23.83,18.17,42.03,19.67c2.13,0.17,4.47,0.27,6.73,0.27h4.5c2.27,0,4.6-0.1,6.73-0.27c18.2-1.5,33.53-8.67,42.03-19.67
		c7.3-9.4,10-24.77,9.4-35.8C173.45,205.22,172.18,199.42,170.98,193.82z M115.58,262.86h-4.5c-2.17,0-4.37-0.1-6.4-0.27
		c-17.1-1.4-31.37-8-39.2-18.1c-6.63-8.57-9.1-23.2-8.6-33.17c0.3-5.57,1.53-11.2,2.73-16.67c0.6-2.8,1.2-5.57,1.7-8.37
		c0.57-3.13,0.2-8.93,0.2-9.23c-0.4-4.33-1.7-8.4-2.93-11.8c-4.77-13.4-5.6-25.93-2.53-39.43c2.77-12.2,8.53-22.53,15.87-28.4
		c12.2-9.73,26.37-15.33,38.93-15.33c0,0,0.07,0,0.1,0h4.8c12.6,0.07,26.77,5.57,39,15.33c7.33,5.87,13.1,16.2,15.87,28.4
		c3.07,13.5,2.23,26.03-2.53,39.43c-1.23,3.4-2.53,7.47-2.93,11.87c0,0.23-0.37,6.03,0.2,9.17c0.5,2.8,1.1,5.6,1.7,8.37
		c1.2,5.47,2.43,11.1,2.73,16.67c0.5,9.97-1.97,24.6-8.6,33.17c-7.83,10.1-22.1,16.7-39.2,18.1
		C119.95,262.76,117.75,262.86,115.58,262.86z"/>
	<path style="fill-rule:evenodd;clip-rule:evenodd;fill:#009FF9;" d="M169.78,211.32c0.5,9.97-1.97,24.6-8.6,33.17
		c-7.83,10.1-22.1,16.7-39.2,18.1c-2.03,0.17-4.23,0.27-6.4,0.27h-4.5c-2.17,0-4.37-0.1-6.4-0.27c-17.1-1.4-31.37-8-39.2-18.1
		c-6.63-8.57-9.1-23.2-8.6-33.17c0.3-5.57,1.53-11.2,2.73-16.67c0.6-2.8,1.2-5.57,1.7-8.37c0.57-3.13,0.2-8.93,0.2-9.23
		c-0.4-4.33-1.7-8.4-2.93-11.8c-4.77-13.4-5.6-25.93-2.53-39.43c2.77-12.2,8.53-22.53,15.87-28.4c12.2-9.73,26.37-15.33,38.93-15.33
		c0,0,0.07,0,0.1,0h4.8c12.6,0.07,26.77,5.57,39,15.33c7.33,5.87,13.1,16.2,15.87,28.4c3.07,13.5,2.23,26.03-2.53,39.43
		c-1.23,3.4-2.53,7.47-2.93,11.87c0,0.23-0.37,6.03,0.2,9.17c0.5,2.8,1.1,5.6,1.7,8.37C168.25,200.12,169.48,205.76,169.78,211.32z"
		/>
</g>
<g>
	<polygon style="fill-rule:evenodd;clip-rule:evenodd;fill:#AE7BFF;" points="53.38,50.02 49.95,49.86 47.88,52.56 46.98,49.26 
		43.72,48.16 46.58,46.26 46.68,42.82 49.35,44.99 52.62,43.99 51.42,47.19 	"/>
	<path style="fill:#5429A8;" d="M55.15,46.72l2.97-7.87l-8.07,2.43l-6.57-5.27l-0.17,8.4l-7.07,4.63l7.97,2.77l2.23,8.13l5.1-6.7
		l8.4,0.4L55.15,46.72z M47.88,52.56l-0.9-3.3l-3.27-1.1l2.87-1.9l0.1-3.43l2.67,2.17l3.27-1l-1.2,3.2l1.97,2.83l-3.43-0.17
		L47.88,52.56z"/>
</g>
<g>
	<polygon style="fill-rule:evenodd;clip-rule:evenodd;fill:#E8B21C;" points="138.58,27.46 136.65,28.42 136.35,30.56 134.85,29.06 
		132.72,29.42 133.72,27.52 132.68,25.62 134.82,25.96 136.28,24.39 136.62,26.52 	"/>
	<path style="fill:#E5861F;" d="M139.65,24.29l-1.1-7.07l-4.93,5.17l-7.07-1.13l3.4,6.3l-3.27,6.37l7.03-1.3l5.07,5.07l0.93-7.07
		l6.37-3.23L139.65,24.29z M136.35,30.56l-1.5-1.5l-2.13,0.37l1-1.9l-1.03-1.9l2.13,0.33l1.47-1.57l0.33,2.13l1.97,0.93l-1.93,0.97
		L136.35,30.56z"/>
</g>
<path style="fill:#E8AE1C;" d="M167.82,52.34c-1.84,0-3.33,1.5-3.33,3.33s1.5,3.33,3.33,3.33c1.84,0,3.33-1.5,3.33-3.33
	S169.66,52.34,167.82,52.34z M169.49,55.67L169.49,55.67L169.49,55.67L169.49,55.67z"/>
</svg>
