<?xml version="1.0" encoding="utf-8"?>
<!-- Generator: Adobe Illustrator 24.1.1, SVG Export Plug-In . SVG Version: 6.00 Build 0)  -->
<svg version="1.1" id="Layer_1" xmlns="http://www.w3.org/2000/svg" xmlns:xlink="http://www.w3.org/1999/xlink" x="0px" y="0px"
	 viewBox="0 0 230 240" style="enable-background:new 0 0 230 240;" xml:space="preserve">
<g>
	<path style="fill:#F8716F;" d="M179.33,183.05l-0.48,1.13c-0.75,1.78-1.59,3.45-2.42,5.04c-0.24,0.51-0.51,0.97-0.81,1.45
		c-0.27,0.51-0.59,1.02-0.89,1.53c-0.35,0.59-0.7,1.16-1.08,1.7c-1.16,1.78-2.34,3.39-3.58,4.87c-0.32,0.4-0.65,0.81-1,1.18
		c-0.43,0.51-0.89,1-1.35,1.48c-0.46,0.46-0.89,0.92-1.32,1.35c-0.92,0.89-1.8,1.7-2.72,2.45c-4.5,3.82-8.89,6.11-12.33,7.49
		c-0.65,0.27-1.27,0.48-1.83,0.7c-2.48,0.83-4.25,1.16-4.85,1.27c-0.05,0-0.11,0-0.13,0.03c-0.19,0.05-0.54,0.13-1,0.22
		c-0.46,0.08-1.02,0.19-1.7,0.3c-2.75,0.38-7.24,0.67-12.82-0.3c-0.51-0.08-1.02-0.19-1.56-0.3c-2.23-0.43-4.6-1.1-7.08-2.05
		c-0.4-0.13-0.81-0.3-1.18-0.46c-4.85-1.91-10.1-4.9-15.4-9.4l21.27-21.95c0.4,0.13,0.81,0.27,1.27,0.38l-12.39,22.94
		c-0.35,0.65-0.11,1.48,0.54,1.83c0.22,0.11,0.43,0.16,0.65,0.16c0.48,0,0.94-0.27,1.18-0.73l12.39-22.94
		c0.13-0.24,0.19-0.48,0.13-0.73c0.78,0.13,1.62,0.24,2.48,0.32l-3.2,27.47c-0.08,0.75,0.46,1.4,1.18,1.51h0.16
		c0.67,0,1.27-0.51,1.35-1.18l3.2-27.73c1.13,0,2.32-0.11,3.53-0.32l6.27,26.9c0.13,0.62,0.7,1.02,1.32,1.02c0.08,0,0.19,0,0.3-0.03
		c0.73-0.16,1.18-0.89,1-1.62l-6.25-26.9c0.97-0.27,1.94-0.62,2.94-1.08l15,18.66c0.27,0.35,0.67,0.51,1.05,0.51
		c0.3,0,0.59-0.11,0.86-0.3c0.57-0.46,0.67-1.32,0.19-1.88l-14.67-18.28c0.54-0.3,1.1-0.67,1.64-1.08l20.19,11.28
		c0.22,0.13,0.43,0.19,0.67,0.19c0.46,0,0.92-0.24,1.16-0.7c0.38-0.65,0.13-1.45-0.51-1.83l-19.14-10.69l-0.08-0.05
		c0.73-0.65,1.45-1.35,2.15-2.13L179.33,183.05z"/>
	<path style="fill:#ECAA52;" d="M148.93,172.73c-7.84,7.89-16.56,7.32-21.78,5.92l2.02-2.07c0.94,0.11,1.97,0.19,3.02,0.19
		c1.13,0,2.32-0.08,3.55-0.27c0.51-0.08,1.08-0.16,1.62-0.3c0.13-0.03,0.24-0.05,0.35-0.08c0.43-0.08,0.83-0.22,1.27-0.35
		c0.08,0,0.13,0,0.22-0.05c0.27-0.08,0.51-0.16,0.75-0.24c0.19-0.05,0.38-0.13,0.54-0.19c0.32-0.13,0.65-0.24,0.97-0.4
		c0.67-0.27,1.32-0.59,1.97-0.94c0.32-0.16,0.65-0.35,1-0.57c0.32-0.19,0.65-0.38,0.97-0.62c0.46-0.3,0.89-0.59,1.35-0.94
		L148.93,172.73z"/>
	<path style="fill:#D57430;" d="M143.76,170.63c-4.25,2.75-8.54,3.5-12.14,3.42l5.79-6L143.76,170.63z"/>
	<path d="M185.88,176.1c-0.59-1.1-1.64-1.88-2.85-2.15l-41.95-9.86c0.4-0.62,0.57-1.35,0.54-2.13c-0.05-1.08-0.54-2.1-1.32-2.8
		c-0.4-0.35-0.86-0.59-1.32-0.78c-0.03-0.11-0.05-0.22-0.11-0.3c-0.13-0.35-0.43-0.59-0.78-0.73c-7.51-2.59-12.39,4.5-13.89,8.59
		c-0.13,0.32-0.11,0.73,0.05,1.05c0.13,0.32,0.43,0.57,0.78,0.7l0.46,0.16l-31.69,28.65c-0.83,0.75-1.29,1.8-1.29,2.94
		c0,1.1,0.46,2.15,1.29,2.91l2.67,2.45c0.75,0.7,1.72,1.02,2.67,1.02c1.02,0,2.02-0.4,2.8-1.16c13.33,11.34,26.33,13.6,34.6,13.6
		c4.58,0,7.7-0.7,8.62-0.94c2.83-0.46,24.69-4.82,36.4-32.61c1.86-0.08,3.53-1.27,4.09-3.12l0.62-1.94
		C186.63,178.47,186.5,177.18,185.88,176.1z M143.74,170.63c-0.16,0.11-0.35,0.22-0.51,0.3c-0.16,0.11-0.32,0.22-0.48,0.3
		c-0.78,0.48-1.56,0.86-2.34,1.18c-0.4,0.16-0.78,0.32-1.18,0.46c-0.08,0.03-0.19,0.05-0.27,0.08c-1.02,0.38-2.05,0.62-3.02,0.78
		c-0.38,0.05-0.73,0.11-1.08,0.16c-0.46,0.05-0.92,0.11-1.37,0.13c-0.65,0.03-1.27,0.03-1.86,0.03l2.5-2.61l0.3-0.3l1.72-1.78
		l1.27-1.32L143.74,170.63z M144.41,173.38c0.32-0.19,0.65-0.4,0.97-0.62c0.27-0.19,0.54-0.35,0.81-0.57
		c0.11-0.05,0.19-0.11,0.27-0.19c0.08-0.05,0.19-0.11,0.27-0.19l2.21,0.92c-0.03,0.03-0.05,0.05-0.08,0.08l-0.11,0.11
		c-0.81,0.78-1.62,1.48-2.42,2.1c-7.11,5.47-14.54,4.87-19.17,3.64l2.02-2.07c0.94,0.11,1.97,0.19,3.02,0.19
		c1.13,0,2.32-0.08,3.55-0.27c0.54-0.08,1.08-0.16,1.62-0.3c0.13-0.03,0.24-0.05,0.35-0.08c0.43-0.08,0.83-0.19,1.27-0.35
		c0.08,0,0.13,0,0.22-0.05c0.27-0.08,0.51-0.16,0.75-0.24c0.19-0.05,0.38-0.13,0.54-0.19c0.32-0.11,0.65-0.24,0.97-0.4
		c0.57-0.22,1.1-0.48,1.64-0.78c0.11-0.05,0.22-0.11,0.32-0.16C143.74,173.78,144.06,173.59,144.41,173.38z M129.55,162.23
		c0.13-0.16,0.3-0.32,0.43-0.46c0.35-0.35,0.73-0.67,1.1-0.94c0.16-0.11,0.32-0.22,0.48-0.32c0.13-0.08,0.3-0.16,0.43-0.24
		c0.19-0.11,0.4-0.19,0.62-0.3c0.16-0.05,0.35-0.13,0.54-0.16c0.24-0.08,0.51-0.16,0.78-0.19c0.24-0.05,0.48-0.08,0.73-0.08
		l-6.89,6.22l-0.48-0.16C127.74,164.68,128.5,163.39,129.55,162.23z M98.28,202.81l-2.69-2.45c-0.27-0.24-0.4-0.57-0.4-0.92
		c0-0.35,0.13-0.7,0.4-0.94l29.67-26.85l3.12-2.83l2.29-2.07l1.91-1.72l1.4-1.27l0.13-0.11l0.08-0.08l2.64-2.4
		c0.22-0.22,0.54-0.32,0.83-0.32c0.16,0,0.35,0.03,0.48,0.11c0.13,0.05,0.24,0.13,0.32,0.22c0.27,0.22,0.43,0.54,0.43,0.89
		c0.03,0.35-0.11,0.67-0.35,0.92l-0.4,0.43l-1.43,1.45l-0.3,0.3l-0.62,0.65l-1.1,1.16l-0.19,0.19v0.03l-1.48,1.51l-0.78,0.81
		l-0.4,0.4l-3.72,3.82l-2.21,2.26l-0.03,0.03l-1.62,1.67l-0.57,0.59l-0.05,0.05l-1.4,1.43l-20.49,21.16l-1.78,1.83
		c-0.05,0.05-0.11,0.08-0.16,0.11C99.39,203.24,98.72,203.21,98.28,202.81z M178.85,184.18c-0.75,1.78-1.59,3.45-2.42,5.04
		c-0.24,0.51-0.51,0.97-0.81,1.45c-0.27,0.51-0.59,1.02-0.89,1.53c-0.35,0.59-0.7,1.16-1.08,1.7c-1.16,1.78-2.34,3.39-3.58,4.87
		c-0.32,0.4-0.65,0.81-1,1.18c-0.43,0.51-0.89,1-1.35,1.48c-0.46,0.46-0.89,0.92-1.32,1.35c-0.92,0.89-1.8,1.7-2.72,2.45
		c-4.5,3.82-8.89,6.11-12.33,7.49c-0.65,0.27-1.27,0.48-1.83,0.7c-2.48,0.83-4.25,1.16-4.85,1.27c-0.05,0-0.11,0-0.13,0.03
		c-0.19,0.05-0.54,0.13-1,0.22c-0.46,0.11-1.02,0.19-1.7,0.3c-2.75,0.38-7.24,0.67-12.82-0.3c-0.51-0.08-1.02-0.19-1.56-0.3
		c-2.23-0.43-4.6-1.1-7.08-2.05c-0.38-0.13-0.78-0.27-1.18-0.46c-4.85-1.91-10.1-4.9-15.4-9.4l21.27-21.95
		c0.4,0.13,0.81,0.27,1.27,0.38l-12.39,22.94c-0.35,0.65-0.11,1.48,0.54,1.83c0.22,0.11,0.43,0.16,0.65,0.16
		c0.48,0,0.94-0.27,1.18-0.73l12.39-22.94c0.13-0.24,0.19-0.48,0.13-0.73c0.78,0.13,1.62,0.24,2.48,0.32l-3.2,27.47
		c-0.08,0.75,0.46,1.4,1.18,1.51h0.16c0.67,0,1.27-0.51,1.35-1.18l3.2-27.73c1.13,0,2.32-0.11,3.53-0.32l6.27,26.9
		c0.13,0.62,0.7,1.02,1.32,1.02c0.08,0,0.19,0,0.3-0.03c0.73-0.16,1.18-0.89,1-1.62l-6.25-26.9c0.97-0.27,1.94-0.62,2.94-1.08
		l15,18.66c0.27,0.35,0.67,0.51,1.05,0.51c0.3,0,0.59-0.11,0.86-0.3c0.57-0.46,0.67-1.32,0.19-1.88l-14.67-18.28
		c0.54-0.3,1.1-0.67,1.64-1.08l20.19,11.28c0.22,0.13,0.43,0.19,0.67,0.19c0.46,0,0.92-0.24,1.16-0.7c0.38-0.65,0.13-1.45-0.51-1.83
		l-19.14-10.69l-0.08-0.05c0.73-0.65,1.45-1.35,2.15-2.13l27.71,9.29L178.85,184.18z M183.7,178.82l-0.62,1.97
		c-0.13,0.4-0.38,0.73-0.7,0.94c0-0.03-0.03-0.05-0.03-0.08c-0.16-0.32-0.46-0.59-0.81-0.7l-29.81-9.99l-0.16-0.08l-4.55-1.83
		l-0.24-0.08l-4.52-1.83l40.15,9.42c0.48,0.11,0.89,0.43,1.13,0.86C183.8,177.85,183.83,178.36,183.7,178.82z"/>
	<path style="fill:#D49166;" d="M183.7,178.82l-0.62,1.97c-0.13,0.4-0.38,0.73-0.7,0.94c0-0.03-0.03-0.05-0.03-0.08
		c-0.16-0.32-0.46-0.59-0.81-0.7l-29.81-9.99l-0.16-0.08l-4.55-1.83l-0.24-0.08l-4.52-1.83l40.15,9.42
		c0.48,0.11,0.89,0.43,1.13,0.86C183.8,177.85,183.83,178.36,183.7,178.82z"/>
	<path style="fill:#BE723F;" d="M134.66,159.54l-6.89,6.22l-0.48-0.16c0.46-0.92,1.21-2.21,2.26-3.37c0.13-0.16,0.27-0.32,0.43-0.46
		c0.35-0.35,0.73-0.67,1.1-0.94c0.13-0.11,0.3-0.22,0.48-0.32c0.13-0.08,0.3-0.16,0.43-0.24c0.19-0.11,0.4-0.19,0.62-0.3
		c0.16-0.05,0.35-0.13,0.54-0.16c0.24-0.08,0.51-0.16,0.78-0.19C134.18,159.57,134.42,159.54,134.66,159.54z"/>
	<path style="fill:#ECAA52;" d="M138.92,162.07c0.03,0.35-0.11,0.67-0.35,0.92l-38.56,39.77c-0.46,0.48-1.24,0.51-1.72,0.05
		l-2.69-2.45c-0.27-0.24-0.4-0.57-0.4-0.92c0-0.35,0.13-0.7,0.4-0.94l41.25-37.32c0.22-0.22,0.54-0.32,0.83-0.32
		s0.59,0.11,0.81,0.32C138.76,161.4,138.92,161.72,138.92,162.07z"/>
</g>
<g>
	<path style="fill:#FFFFFF;" d="M78.82,48.56c-0.57,0.43-1.1,0.59-1.64,0.59c-2.77,0-5.22-4.77-6.84-6.35
		c-1.21-1.18-2.56-1.67-3.96-1.67c-2.32,0-4.74,1.29-6.79,2.88c0,0.03-2.15,1.86-2.96,2.67v0.03c-1.37,1.43-3.23,2.15-5.06,2.15
		c-1.72,0-3.47-0.62-4.82-1.94c-1.75-1.67-2.45-4.04-2.1-6.25c0.22-1.35,0.83-2.61,1.83-3.69c0.22-0.24,0.83-0.86,1.78-1.72
		c2.91-2.72,6.3-5.01,10.15-6.17c1.8-0.54,3.53-0.81,5.17-0.81c1.48,0,2.93,0.22,4.36,0.62c1.43,0.43,2.85,1.05,4.34,1.86
		c1.21,0.67,2.34,1.53,3.42,2.42C79.12,36.01,83.51,44.98,78.82,48.56z"/>
	<path d="M77.77,30.68c-1.45-1.18-2.69-2.07-3.93-2.75c-1.72-0.94-3.37-1.64-5.01-2.13c-1.75-0.51-3.47-0.75-5.25-0.75
		c-1.99,0-3.99,0.3-6.11,0.94c-3.96,1.21-7.81,3.53-11.42,6.92c-0.92,0.81-1.59,1.51-1.91,1.83c-1.16,1.24-1.99,2.72-2.42,4.31
		c-0.11,0.35-0.19,0.73-0.24,1.1c-0.54,3.34,0.59,6.73,3.04,9.1c1.91,1.83,4.42,2.83,7.05,2.83c2.77,0,5.47-1.16,7.4-3.18
		c0.27-0.27,0.78-0.73,1.32-1.21c0.83-0.67,1.72-1.4,1.83-1.53c1.62-1.16,3.12-1.8,4.25-1.8c0.65,0,1.18,0.24,1.7,0.75
		c0.27,0.27,0.78,0.94,1.24,1.56c1.8,2.4,4.25,5.71,7.86,5.71c1.27,0,2.5-0.43,3.58-1.24c2.13-1.62,3.26-4.01,3.34-6.92
		C84.21,39.22,80.89,33.29,77.77,30.68z M78.82,48.56c-0.57,0.43-1.1,0.59-1.64,0.59c-2.77,0-5.22-4.77-6.84-6.35
		c-1.21-1.18-2.56-1.67-3.96-1.67c-2.32,0-4.74,1.29-6.79,2.88c0,0.03-2.15,1.86-2.96,2.67v0.03c-1.37,1.43-3.23,2.15-5.06,2.15
		c-1.72,0-3.47-0.62-4.82-1.94c-1.75-1.67-2.45-4.04-2.1-6.25c0.22-1.35,0.83-2.61,1.83-3.69c0.22-0.24,0.83-0.86,1.78-1.72
		c1.18-1.1,2.45-2.15,3.8-3.07c1.97-1.32,4.07-2.42,6.35-3.1c1.8-0.54,3.53-0.81,5.17-0.81c1.48,0,2.93,0.22,4.36,0.62
		c1.43,0.43,2.85,1.05,4.34,1.86c1.21,0.67,2.34,1.53,3.42,2.42C79.12,36.01,83.51,44.98,78.82,48.56z"/>
	<path style="fill:#673101;" d="M59.59,44.01c0,0.03-2.15,1.86-2.96,2.67v0.03c-1.37,1.43-3.23,2.15-5.06,2.15
		c-1.72,0-3.47-0.62-4.82-1.94c-1.75-1.67-2.45-4.04-2.1-6.25c0.22-1.35,0.83-2.61,1.83-3.69c0.22-0.24,0.83-0.86,1.78-1.72
		c1.18-1.1,2.45-2.15,3.8-3.07c0.13,0,0.24,0.03,0.35,0.05c0.03,0,0.03,0,0.05,0c0.03,0,0.03,0.03,0.05,0.03
		c1.08,0.3,1.56,1.13,1.56,1.13v0.03c0.43,0.65,0.59,1.45,0.4,2.26c-0.19,0.67-0.59,1.18-1.13,1.56c0.59-0.3,1.29-0.43,1.99-0.24
		c1.48,0.4,2.4,1.94,1.99,3.45c-0.19,0.73-0.65,1.32-1.27,1.7c0.48-0.16,1.05-0.24,1.59-0.11C58.65,42.31,59.33,43.1,59.59,44.01z"
		/>
</g>
<g>
	<path style="fill:#FFFFFF;" d="M130.61,46.92c-1.35,1.32-3.1,1.94-4.82,1.94c-1.86,0-3.69-0.73-5.06-2.15c0,0,0-0.03-0.03-0.03
		c-0.78-0.81-2.93-2.64-2.93-2.67c-2.07-1.59-4.47-2.88-6.79-2.88c-1.4,0-2.75,0.48-3.96,1.67c-1.62,1.59-4.07,6.35-6.84,6.35
		c-0.54,0-1.08-0.16-1.64-0.59c-4.71-3.58-0.3-12.55,3.12-15.38c1.08-0.89,2.21-1.75,3.42-2.42c1.48-0.81,2.91-1.43,4.34-1.86
		c1.43-0.4,2.88-0.62,4.36-0.62c1.64,0,3.37,0.27,5.17,0.81c3.85,1.16,7.24,3.45,10.15,6.17c0.94,0.86,1.56,1.48,1.78,1.72
		c1,1.08,1.59,2.34,1.83,3.69C133.06,42.88,132.36,45.25,130.61,46.92z"/>
	<path d="M135.89,40.13c-0.32-1.99-1.24-3.85-2.64-5.36c-0.35-0.35-1.02-1.05-1.97-1.91c-0.35-0.32-0.7-0.65-1.05-0.94
		c-3.29-2.83-6.76-4.82-10.34-5.92c-2.13-0.65-4.12-0.94-6.11-0.94c-1.78,0-3.5,0.24-5.28,0.75c-1.62,0.48-3.26,1.18-4.98,2.13
		c-1.24,0.67-2.48,1.56-3.93,2.75c-3.12,2.61-6.44,8.54-6.33,13.54c0.05,2.91,1.21,5.3,3.34,6.92c1.08,0.81,2.32,1.24,3.58,1.24
		c3.61,0,6.06-3.31,7.86-5.71c0.46-0.62,0.94-1.29,1.24-1.56c0.51-0.51,1.05-0.75,1.7-0.75c1.13,0,2.64,0.65,4.25,1.8
		c0.16,0.22,2.37,1.97,3.1,2.69c0.03,0.03,0.03,0.03,0.05,0.05c1.91,2.02,4.63,3.18,7.4,3.18c2.64,0,5.14-1,7.05-2.83
		C135.29,46.89,136.42,43.5,135.89,40.13z M130.61,46.92c-1.35,1.32-3.1,1.94-4.82,1.94c-1.86,0-3.69-0.73-5.06-2.15
		c0,0,0-0.03-0.03-0.03c-0.78-0.81-2.93-2.64-2.93-2.67c-2.07-1.59-4.47-2.88-6.79-2.88c-1.4,0-2.75,0.48-3.96,1.67
		c-1.62,1.59-4.07,6.35-6.84,6.35c-0.54,0-1.08-0.16-1.64-0.59c-4.71-3.58-0.3-12.55,3.12-15.38c1.08-0.89,2.21-1.75,3.42-2.42
		c1.48-0.81,2.91-1.43,4.34-1.86c1.43-0.4,2.88-0.62,4.36-0.62c1.64,0,3.37,0.27,5.17,0.81c2.29,0.67,4.39,1.78,6.35,3.12h0.03
		c1.35,0.92,2.58,1.94,3.77,3.04c0.94,0.86,1.56,1.48,1.78,1.72c1,1.08,1.59,2.34,1.83,3.69C133.06,42.88,132.36,45.25,130.61,46.92
		z"/>
	<path style="fill:#673101;" d="M130.61,46.92c-1.35,1.32-3.1,1.94-4.82,1.94c-1.86,0-3.69-0.73-5.06-2.15c0,0,0-0.03-0.03-0.03
		c-0.78-0.81-2.93-2.64-2.93-2.67c0.27-0.92,0.94-1.7,1.94-1.97c0.54-0.13,1.08-0.05,1.59,0.11c-0.62-0.38-1.08-0.97-1.27-1.7
		c-0.4-1.51,0.51-3.04,1.99-3.45c0.7-0.19,1.37-0.05,1.99,0.24c-0.54-0.38-0.94-0.89-1.13-1.56c-0.24-0.97,0.05-1.97,0.7-2.64
		c0.78-0.78,1.59-0.83,1.72-0.83h0.03c1.35,0.92,2.58,1.94,3.77,3.04c0.94,0.86,1.56,1.48,1.78,1.72c1,1.08,1.59,2.34,1.83,3.69
		C133.06,42.88,132.36,45.25,130.61,46.92z"/>
</g>
<g>
	<path style="fill:#FFFFFF;" d="M81.68,171.41v31.91c0,0-2.37,0.59-5.52,0.59c-2.96,0-5.25-0.51-5.52-0.59v-31.91
		c0-2.13,1.7-3.82,3.8-3.82C76.53,167.59,81.68,169.28,81.68,171.41z"/>
	<path style="fill-rule:evenodd;clip-rule:evenodd;fill:#009FF9;" d="M81.68,203.32v28.89c0,1.91-2.64,3.53-4.77,3.9l-0.94,0.11
		h-9.21c-0.94,0-1.91,0.03-2.91,0.03c-3.02,0-6.11-0.3-8.24-2.72c-1.91-2.18-1.37-6.57-0.16-8.97c2.26-4.42,6.46-7.67,11.31-8.72
		c0,0,0.22-0.03,0.27-0.05c0.65-0.11,1.24-0.22,1.78-0.24c0.22-0.03,0.43-0.05,0.65-0.05c0.32-0.03,0.65-0.03,0.94-0.03h0.22v-12.14
		c0,0,0,0,0.03,0c0.27,0.08,2.56,0.59,5.52,0.59C79.31,203.91,81.68,203.32,81.68,203.32z"/>
	<path d="M70.61,203.32v12.14h0.03v-12.14C70.61,203.32,70.61,203.32,70.61,203.32z"/>
	<path d="M74.43,164.36c-3.88,0-7.05,3.15-7.05,7.05v41.04c-0.32,0.05-0.65,0.11-0.97,0.16l-0.38,0.08
		c-5.74,1.27-10.77,5.14-13.46,10.42c-1.56,3.1-2.42,9.07,0.62,12.55c2.93,3.37,7.05,3.82,10.66,3.82h1.56
		c0.46-0.03,0.92-0.03,1.35-0.03h9.21c0.11,0,0.22,0,0.32-0.03l0.94-0.08c0.08-0.03,0.16-0.03,0.24-0.05
		c3.61-0.65,7.43-3.37,7.43-7.08v-60.8C84.91,166.11,76.64,164.36,74.43,164.36z M81.68,232.21c0,1.91-2.64,3.53-4.77,3.9
		l-0.94,0.11h-9.21c-0.94,0-1.91,0.03-2.91,0.03c-3.02,0-6.11-0.3-8.24-2.72c-1.91-2.18-1.37-6.57-0.16-8.97
		c2.26-4.42,6.46-7.67,11.31-8.72c0,0,0.22-0.03,0.27-0.05c0.65-0.11,1.24-0.22,1.78-0.24c0.22-0.03,0.43-0.05,0.65-0.05
		c0.32-0.03,0.65-0.03,0.94-0.03h0.22v-12.14c0,0,0,0,0.03,0v-31.91c0-2.13,1.7-3.82,3.8-3.82c2.1,0,7.24,1.7,7.24,3.82V232.21z"/>
</g>
<g>
	<path style="fill:#FFFFFF;" d="M106.75,171.41v31.91c0,0-2.4,0.59-5.55,0.59c-3.15,0-5.52-0.59-5.52-0.59v-31.91
		c0-2.13,5.14-3.82,7.24-3.82C105.02,167.59,106.75,169.28,106.75,171.41z"/>
	<path style="fill-rule:evenodd;clip-rule:evenodd;fill:#009FF9;" d="M121.74,233.53c-2.13,2.42-5.22,2.72-8.24,2.72
		c-1,0-1.97-0.03-2.91-0.03h-9.21l-0.92-0.11c-2.15-0.38-4.79-1.99-4.79-3.9v-28.89c0,0,2.37,0.59,5.52,0.59
		c3.15,0,5.55-0.59,5.55-0.59v12.14h0.22c0.3,0,0.62,0,0.94,0.03c0.22,0,0.43,0.03,0.65,0.05c0.54,0.03,1.13,0.13,1.78,0.24
		c0.05,0.03,0.27,0.05,0.27,0.05c4.85,1.05,9.05,4.31,11.31,8.72C123.12,226.96,123.66,231.35,121.74,233.53z"/>
	<path d="M124.79,223.11c-2.69-5.28-7.73-9.16-13.52-10.42l-0.19-0.05c-0.38-0.05-0.75-0.13-1.1-0.19v-41.04
		c0-3.9-3.18-7.05-7.05-7.05c-2.21,0-10.47,1.75-10.47,7.05v60.8c0,3.72,3.82,6.44,7.43,7.08c0.08,0.03,0.16,0.03,0.24,0.05
		l0.94,0.08c0.11,0.03,0.22,0.03,0.32,0.03h9.21c0.43,0,0.89,0,1.35,0.03h1.56c3.64,0,7.73-0.46,10.66-3.82
		C127.21,232.18,126.35,226.21,124.79,223.11z M121.74,233.53c-2.13,2.42-5.22,2.72-8.24,2.72c-1,0-1.97-0.03-2.91-0.03h-9.21
		l-0.92-0.11c-2.15-0.38-4.79-1.99-4.79-3.9v-60.8c0-2.13,5.14-3.82,7.24-3.82c2.1,0,3.82,1.7,3.82,3.82v44.05h0.22
		c0.3,0,0.62,0,0.94,0.03c0.22,0,0.43,0.03,0.65,0.05c0.54,0.03,1.13,0.13,1.78,0.24c0.05,0.03,0.27,0.05,0.27,0.05
		c4.85,1.05,9.05,4.31,11.31,8.72C123.12,226.96,123.66,231.35,121.74,233.53z"/>
</g>
<g>
	<path style="fill:#FFFFFF;" d="M44.79,139.56c-0.78,2.61-1.32,5.25-1.59,7.92c-3.85,1.18-8.62-0.3-11.26-1.94
		c1.18-7.32,4.2-14.35,9.59-20.57c1.21-1.37,2.96-3.85,5.04-3.93C54.24,120.71,45.6,136.84,44.79,139.56z"/>
	<path style="fill:#0088C5;" d="M42.93,176.77c-0.57,0.08-1.24,0.08-1.91,0.03c-1.45-0.11-2.99-0.54-3.96-1.32
		c-4.42-3.72-4.95-10.21-5.52-15.29c-0.27-2.64-0.38-5.3-0.3-7.97c0-0.08,0.03-0.24,0.03-0.46c0.03-0.57,0.08-1.51,0.13-2.5
		c0.11-1.4,0.24-2.85,0.38-3.45c0.03-0.08,0.05-0.13,0.08-0.19c0.03-0.05,0.05-0.08,0.08-0.08h0.03c2.64,1.64,7.38,3.12,11.23,1.94
		h0.03c-0.08,0.7-0.16,1.43-0.19,2.15c0.05,1.59,0.16,3.23,0.16,3.55c0.03,5.33,1.8,9.51,3.39,14.49
		C47.8,171.38,48.42,176.1,42.93,176.77z"/>
	<path d="M48.85,164.17c-1.29-3.8-2.4-7.08-2.42-10.99c0-0.16,0-0.54-0.03-1.08c-0.05-0.65-0.11-1.53-0.13-2.42
		c0.19-3.23,0.73-6.33,1.59-9.18c0.11-0.3,0.54-1.32,0.94-2.21c3.1-7.19,5.68-13.95,3.07-17.93c-1.08-1.64-2.88-2.56-5.09-2.56
		h-0.35c-3.23,0.13-5.44,2.77-6.89,4.52l-0.43,0.54c-5.33,6.14-8.75,13.33-10.21,21.41c-0.65,1.56-0.75,4.12-0.89,7.81
		c-0.08,2.77,0.03,5.6,0.32,8.46l0.05,0.59c0.57,5.25,1.35,12.44,6.6,16.83c1.88,1.56,4.44,1.97,5.79,2.07
		c0.35,0.03,0.7,0.05,1.05,0.05c0.54,0,1.02-0.05,1.51-0.11c3.47-0.43,5.25-2.13,6.11-3.47c1.51-2.4,1.59-5.63,0.22-9.83
		C49.39,165.81,49.12,165,48.85,164.17z M42.93,176.77c-0.32,0.05-0.7,0.08-1.1,0.08c-0.27,0-0.54-0.03-0.81-0.05
		c-1.45-0.11-2.99-0.54-3.96-1.32c-4.42-3.72-4.95-10.21-5.52-15.29c-0.27-2.64-0.38-5.3-0.3-7.97c0-0.08,0.03-0.24,0.03-0.46
		c0.03-0.57,0.05-1.51,0.13-2.5c0.08-1.37,0.22-2.85,0.38-3.45c0.03-0.08,0.05-0.13,0.08-0.19c0.03-0.08,0.05-0.11,0.08-0.08h0.03
		c1.18-7.32,4.17-14.35,9.56-20.57c1.21-1.37,2.96-3.85,5.04-3.93h0.22c7.3,0-1.18,15.83-1.99,18.53c-0.81,2.61-1.32,5.25-1.56,7.92
		c-0.08,0.7-0.16,1.43-0.19,2.15c0.05,1.59,0.16,3.23,0.16,3.55c0.03,5.33,1.8,9.51,3.39,14.49
		C47.8,171.38,48.42,176.1,42.93,176.77z"/>
</g>
<g>
	<path d="M130.58,121.03c0.07,0,0.15,0,0.22,0c2.06,0.08,3.82,2.54,5.02,3.93c5.38,6.23,8.34,13.24,9.51,20.56c0.02,0,0.05,0,0.08,0
		c0.46,0.05,0.68,6.1,0.7,6.7c0.1,2.66-0.02,5.32-0.3,7.96c-0.55,5.09-1.09,11.59-5.52,15.29c-0.96,0.8-2.49,1.22-3.95,1.34
		c-0.27,0.02-0.54,0.03-0.81,0.03c-0.39,0-0.76-0.02-1.11-0.07c-5.93-0.74-4.88-5.4-3.26-9.25c2.09-4.99,3.14-9.92,3.22-15.04
		c0-0.52,0-1.05-0.01-1.57c-0.01-0.38-0.02-0.75-0.04-1.13c-0.05-0.94-0.13-1.89-0.24-2.83c-0.02-0.14-0.02-0.28-0.04-0.42
		c-0.29-2.34-0.77-4.67-1.47-6.96C131.76,136.86,123.28,121.03,130.58,121.03 M130.58,117.8c-2.97,0-4.47,1.6-5.09,2.56
		c-2.61,3.99-0.04,10.75,3.08,17.92c0.39,0.9,0.83,1.91,0.92,2.22c0.62,2.05,1.08,4.21,1.35,6.42l0.04,0.39
		c0.1,0.87,0.17,1.74,0.22,2.62c0.02,0.34,0.03,0.69,0.03,1.04c0.01,0.5,0.01,0.99,0.01,1.48c-0.07,4.69-1.04,9.22-2.97,13.81
		c-1.14,2.73-2.45,6.73-0.56,9.99c1.2,2.08,3.36,3.33,6.4,3.72c0.48,0.06,0.99,0.09,1.51,0.09c0.35,0,0.7-0.01,1.06-0.04
		c1.35-0.1,3.9-0.51,5.77-2.08c5.26-4.4,6.03-11.59,6.6-16.84l0.06-0.58c0.31-2.86,0.42-5.7,0.32-8.43
		c-0.14-3.87-0.23-6.49-0.97-8.05c-1.44-7.99-4.84-15.13-10.1-21.21l-0.45-0.53c-1.46-1.74-3.66-4.38-6.88-4.51
		C130.82,117.8,130.7,117.8,130.58,117.8L130.58,117.8z"/>
	<path style="fill:#FFFFFF;" d="M145.36,145.53c-2.99-0.3-7.08-0.3-11.31,0.89c-0.32-2.32-0.78-4.6-1.48-6.87
		c-0.81-2.72-9.45-18.85-1.78-18.53c2.07,0.08,3.82,2.56,5.04,3.93C141.21,131.18,144.2,138.21,145.36,145.53z"/>
	<path style="fill:#0088C5;" d="M146.11,152.21c0.08,2.67-0.03,5.33-0.3,7.97c-0.57,5.09-1.1,11.58-5.52,15.29
		c-0.97,0.78-2.5,1.21-3.96,1.32c-0.67,0.05-1.35,0.05-1.91-0.03c-5.95-0.75-4.9-5.41-3.28-9.26c2.13-5.06,3.2-10.04,3.26-15.24
		c0-0.67,0-1.35-0.05-2.05c0-0.75-0.05-1.53-0.16-2.32c-0.03-0.48-0.08-0.97-0.13-1.48c4.23-1.18,8.32-1.18,11.31-0.89
		c0.03,0,0.03,0,0.05,0C145.87,145.56,146.09,151.62,146.11,152.21z"/>
</g>
<g>
	<g>
		<path style="fill-rule:evenodd;clip-rule:evenodd;fill:#009FF9;" d="M134.27,146.99c0.43,8.05-1.56,19.84-6.92,26.79
			c-6.33,8.16-17.88,13.49-31.67,14.62c-1.64,0.13-3.45,0.22-5.17,0.22l-1.83-0.03l-1.83,0.03c-1.72,0-3.53-0.08-5.17-0.22
			c-13.79-1.13-25.34-6.46-31.67-14.62c-5.36-6.92-7.35-18.74-6.92-26.79c0.24-4.5,1.24-9.07,2.18-13.46c0.48-2.26,1-4.52,1.4-6.79
			c0.43-2.5,0.16-7.19,0.13-7.43c-0.32-3.5-1.37-6.79-2.34-9.53c-3.88-10.82-4.52-20.95-2.07-31.85
			c2.23-9.86,6.92-18.23,12.82-22.94c9.88-7.86,21.33-12.39,31.45-12.39h4.04c10.12,0,21.57,4.52,31.45,12.39
			c5.9,4.71,10.58,13.09,12.82,22.94c2.45,10.91,1.8,21.03-2.07,31.85c-0.97,2.75-2.02,6-2.34,9.59c-0.03,0.11-0.11,1.64-0.11,3.42
			c0,1.37,0.05,2.88,0.24,3.96c0.4,2.26,0.92,4.52,1.4,6.79C133.05,137.91,134.02,142.49,134.27,146.99z"/>
		<path d="M135.24,132.82c-0.48-2.21-0.97-4.42-1.35-6.65c-0.32-1.75-0.19-5.39-0.13-6.57c0.3-3.15,1.27-6.19,2.18-8.75
			c4.04-11.26,4.74-22.27,2.18-33.66c-2.4-10.56-7.49-19.58-13.95-24.75c-10.45-8.32-22.62-13.09-33.44-13.09h-4.07
			c-10.85,0-23.02,4.77-33.44,13.09c-6.49,5.17-11.58,14.19-13.97,24.75c-2.56,11.39-1.86,22.4,2.18,33.66
			c0.92,2.56,1.88,5.6,2.18,8.7c0.05,1.24,0.19,4.87-0.13,6.62c-0.38,2.23-0.86,4.44-1.35,6.65c-1,4.52-2.02,9.21-2.26,14
			c-0.46,8.91,1.7,21.3,7.59,28.92c6.89,8.89,19.28,14.68,33.95,15.89c1.75,0.13,3.64,0.22,5.44,0.22l1.83-0.03l1.83,0.03
			c1.83,0,3.69-0.08,5.44-0.22c14.67-1.21,27.06-7,33.95-15.89c5.9-7.62,8.05-20.01,7.59-28.92
			C137.25,142.03,136.23,137.35,135.24,132.82z M90.51,188.62l-1.83-0.03l-1.83,0.03c-1.72,0-3.53-0.08-5.17-0.22
			c-13.79-1.13-25.34-6.46-31.67-14.62c-5.36-6.92-7.35-18.74-6.92-26.79c0.24-4.5,1.24-9.07,2.18-13.46c0.48-2.26,1-4.52,1.4-6.79
			c0.43-2.5,0.16-7.19,0.13-7.43c-0.32-3.5-1.37-6.79-2.34-9.53c-3.88-10.82-4.52-20.95-2.07-31.85
			c2.23-9.86,6.92-18.23,12.82-22.94c9.88-7.86,21.33-12.39,31.45-12.39h4.04c10.12,0,21.57,4.52,31.45,12.39
			c5.9,4.71,10.58,13.09,12.82,22.94c2.45,10.91,1.8,21.03-2.07,31.85c-0.97,2.75-2.02,6-2.34,9.59c-0.03,0.11-0.11,1.64-0.11,3.42
			c0,1.37,0.05,2.88,0.24,3.96c0.4,2.26,0.92,4.52,1.4,6.79c0.97,4.39,1.94,8.97,2.18,13.46c0.43,8.05-1.56,19.84-6.92,26.79
			c-6.33,8.16-17.88,13.49-31.67,14.62C94.04,188.54,92.23,188.62,90.51,188.62z"/>
	</g>
	<path style="fill-rule:evenodd;clip-rule:evenodd;fill:#FFFFFF;" d="M94.49,48.16c4.35,0.57,8.61,1.73,12.49,3.38
		c6.34,2.69,13.73,7.02,17.14,13.09c1.51,2.68,2.53,5.63,3.12,8.64c0.45,2.28-0.11,5.48,1.26,7.44c2.78,3.97,3.41,6.21,4.18,11.16
		c0.72,4.66,0.32,9.64-1.66,13.96c-5.14,11.25-17.56,15.99-28.94,16.35c-1.57,0.05-3.18,0.09-4.77,0.14
		c-7.39,0.23-14.67,0.09-22.06-0.14c-11.37-0.36-23.8-5.1-28.94-16.35c-1.97-4.32-2.38-9.3-1.66-13.96
		c0.76-4.95,1.4-7.19,4.18-11.16c1.37-1.96,0.81-5.16,1.26-7.44c0.59-3.02,1.62-5.96,3.12-8.64c3.41-6.07,9.09-10.4,15.43-13.09
		c2.57-1.09,5.24-1.93,7.96-2.56C81.94,47.75,89.08,47.44,94.49,48.16z"/>
	<path style="fill-rule:evenodd;clip-rule:evenodd;fill:#FDBDB8;" d="M71.49,93.62c0,6.63-5.33,12-11.91,12s-11.9-5.37-11.9-12
		c0-6.62,5.33-11.99,11.9-11.99S71.49,87,71.49,93.62"/>
	<path style="fill-rule:evenodd;clip-rule:evenodd;fill:#FDBDB8;" d="M129.68,93.62c0,6.63-5.33,12-11.91,12
		c-6.57,0-11.9-5.37-11.9-12c0-6.62,5.33-11.99,11.9-11.99C124.35,81.63,129.68,87,129.68,93.62"/>
</g>
<g>
	<path style="fill-rule:evenodd;clip-rule:evenodd;" d="M90.73,89.77c0,0.86-0.91,1.56-2.05,1.56s-2.06-0.7-2.06-1.56
		c0-0.86,0.92-1.56,2.06-1.56S90.73,88.91,90.73,89.77"/>
	<path style="fill-rule:evenodd;clip-rule:evenodd;" d="M100.49,87.91L100.49,87.91c-1.54,0-2.79-1.16-2.79-2.59v-0.36
		c0-1.43,1.25-2.59,2.79-2.59s2.79,1.16,2.79,2.59v0.36C103.28,86.75,102.03,87.91,100.49,87.91"/>
	<path style="fill-rule:evenodd;clip-rule:evenodd;" d="M76.87,87.91L76.87,87.91c-1.54,0-2.79-1.16-2.79-2.59v-0.36
		c0-1.43,1.25-2.59,2.79-2.59c1.54,0,2.79,1.16,2.79,2.59v0.36C79.66,86.75,78.41,87.91,76.87,87.91"/>
	<path style="fill:#231815;" d="M95.81,99.71c-2.6,0-5.19-0.77-7.13-2.04c-3.58,2.35-9.37,3-13.38,0.21
		c-1.17-0.81-2.6-2.09-2.75-3.56c-0.07-0.71,0.16-1.39,0.66-1.91c0.61-0.65,1.64-0.67,2.28-0.05c0.49,0.46,0.62,1.16,0.39,1.75
		c0.22,0.28,0.67,0.71,1.26,1.12c3.06,2.13,8.06,1.33,10.48-0.79c0.61-0.54,1.52-0.54,2.13,0c2.42,2.12,7.42,2.92,10.48,0.79
		c0.59-0.41,1.04-0.84,1.26-1.12c-0.23-0.59-0.09-1.29,0.39-1.75c0.64-0.62,1.67-0.6,2.28,0.05c0.5,0.52,0.73,1.2,0.66,1.91
		c-0.15,1.47-1.58,2.75-2.75,3.56C100.22,99.15,98.01,99.71,95.81,99.71z M101.82,94.64h0.03H101.82z"/>
</g>
</svg>
