<svg xml:space="preserve" style="enable-background:new 0 0 250 250;" viewBox="0 0 250 250" y="0px" x="0px" xmlns:xlink="http://www.w3.org/1999/xlink" xmlns="http://www.w3.org/2000/svg" id="레이어_1" version="1.1">
<g>
	<path d="M206.6,247.3H42.9c-22.5,0-40.7-18.2-40.7-40.7V42.9c0-22.5,18.2-40.7,40.7-40.7h163.8
		c22.5,0,40.7,18.2,40.7,40.7v163.8C247.3,229.1,229.1,247.3,206.6,247.3z" style="fill:#EBEBEB;"></path>
	<path d="M206.1,250H43.4c-24.2,0-43.9-19.7-43.9-43.9V43.4c0-24.2,19.7-43.9,43.9-43.9h162.8c24.2,0,43.9,19.7,43.9,43.9v162.8
		C250,230.3,230.3,250,206.1,250z M43.4,4.9C22.2,4.9,4.9,22.2,4.9,43.4v162.8c0,21.2,17.2,38.4,38.4,38.4h162.8
		c21.2,0,38.4-17.2,38.4-38.4V43.4c0-21.2-17.2-38.4-38.4-38.4H43.4z"></path>
</g>
<g>
	<path d="M164,74.9l-3-14.1c-0.5-2.4-2.6-4.1-5.1-4.1H93.6c-2.4,0-4.6,1.7-5.1,4.1l-3,14.1
		C85,77.3,82.9,79,80.4,79H49.1c-2.9,0-5.2,2.3-5.2,5.2v103.4c0,2.9,2.3,5.2,5.2,5.2h151.3c2.9,0,5.2-2.3,5.2-5.2V84.2
		c0-2.9-2.3-5.2-5.2-5.2h-31.3C166.6,79,164.5,77.3,164,74.9z" style="fill:#3D3D3D;"></path>
	<path d="M200.4,195.5H49.1c-4.4,0-7.9-3.5-7.9-7.9V84.2c0-4.4,3.5-7.9,7.9-7.9h31.3c1.2,0,2.2-0.8,2.4-2l3-14.1
		c0.8-3.6,4-6.2,7.7-6.2h62.3c3.7,0,7,2.6,7.7,6.2l3,14.1c0.2,1.1,1.3,2,2.4,2h31.3c4.4,0,7.9,3.5,7.9,7.9v103.4
		C208.3,191.9,204.8,195.5,200.4,195.5z M49.1,81.7c-1.4,0-2.5,1.1-2.5,2.5v103.4c0,1.4,1.1,2.5,2.5,2.5h151.3
		c1.4,0,2.5-1.1,2.5-2.5V84.2c0-1.4-1.1-2.5-2.5-2.5h-31.3c-3.7,0-7-2.6-7.7-6.2l-3-14.1c-0.2-1.1-1.3-2-2.4-2H93.6
		c-1.2,0-2.2,0.8-2.4,2l-3,14.1c-0.8,3.6-4,6.2-7.7,6.2H49.1z"></path>
</g>
<path d="M124.8,167.7c-20.2,0-36.6-16.4-36.6-36.6c0-20.2,16.4-36.6,36.6-36.6s36.6,16.4,36.6,36.6
	C161.4,151.2,144.9,167.7,124.8,167.7z M124.8,99.8c-17.2,0-31.2,14-31.2,31.2s14,31.2,31.2,31.2s31.2-14,31.2-31.2
	S142,99.8,124.8,99.8z" style="fill:#FFFFFF;"></path>
</svg>
