<?xml version="1.0" encoding="utf-8"?>
<!-- Generator: Adobe Illustrator 25.0.0, SVG Export Plug-In . SVG Version: 6.00 Build 0)  -->
<svg version="1.1" id="Layer_1" xmlns="http://www.w3.org/2000/svg" xmlns:xlink="http://www.w3.org/1999/xlink" x="0px" y="0px"
	 viewBox="0 0 275 250" style="enable-background:new 0 0 275 250;" xml:space="preserve">
<g>
	<g>
		<g>
			<g>
				<path style="fill:#181F41;" d="M45.4,43c8.5,17.8,2.8,26.2-7,30.9c-9.8,4.7-20,3.8-28.5-14s-5.7-26.2,3.6-33
					C25.2,18.6,36.9,25.3,45.4,43z"/>
				<path style="fill:#181F41;" d="M56.7,52.3c-5.1,11.9-9.8,14.5-13.6,12.9c-3.8-1.6-5.2-6.8-0.1-18.7s9.5-13.9,13.3-12.3
					C60.1,35.8,61.8,40.4,56.7,52.3z"/>
				
					<path style="fill:none;stroke:#31458C;stroke-width:0.8871;stroke-linecap:round;stroke-linejoin:round;stroke-miterlimit:10;" d="
					M45,42.2c-2,4.3,4.5,10.3,11.9,9.5"/>
				
					<path style="fill:none;stroke:#31458C;stroke-width:0.8871;stroke-linecap:round;stroke-linejoin:round;stroke-miterlimit:10;" d="
					M45,42.2c0,0-15.9,8.1-8.3,28.5"/>
				
					<path style="fill:none;stroke:#31458C;stroke-width:0.8871;stroke-linecap:round;stroke-linejoin:round;stroke-miterlimit:10;" d="
					M8.5,56.8c0,0,10.3-5.9,16.8-9.1s17.8-9.1,17.8-9.1"/>
			</g>
			<g>
				<path style="fill:#FFFFFF;" d="M45.4,125.9c5.6,10.1,14.5,16.5,26.8,10.4c12.2-6.1,12.4-17.1,7.6-27.5
					c-14-30.2-23.7-53.5-23.7-53.5s-8.5,0.5-20.5,6.3S18.2,74.1,18.2,74.1S29.3,96.8,45.4,125.9z"/>
				<path style="fill:#00E7AE;" d="M38.8,68.1c9.1-4.4,16.4-6.1,19.9-6.6c-1.7-4-2.6-6.2-2.6-6.2s-8.5,0.5-20.5,6.3
					S18.2,74.1,18.2,74.1s1.1,2.2,3,6.1C23.7,77.8,29.3,72.7,38.8,68.1z"/>
				<path style="fill:#CFE1FF;" d="M75.1,130.9c-12.2,6.1-21.2-0.4-26.8-10.4C34.8,96.1,24.9,76.3,22,70.5c-2.6,2.2-3.8,3.7-3.8,3.7
					s11,22.6,27.1,51.8c5.6,10.1,14.5,16.5,26.8,10.4c5.5-2.8,8.6-6.5,9.8-10.8C80.4,127.6,78.1,129.4,75.1,130.9z"/>
				<g>
					
						<path style="fill:none;stroke:#171F41;stroke-width:0.8871;stroke-linecap:round;stroke-linejoin:round;stroke-miterlimit:10;" d="
						M38.2,112.7c2.1-1.5,4.9-5.5,4.4-10.9c10.9-6.1,26.2-12.6,34.7-13.9"/>
				</g>
			</g>
		</g>
		<g>
			<path style="fill:#009DA5;" d="M25.2,76.7c-1.4-2.8-2.5-4.9-3.1-6.3c-0.2,0.1-0.3,0.3-0.5,0.4l0,0c-0.1,0.1-0.3,0.3-0.4,0.4l0,0
				c-0.1,0.1-0.3,0.2-0.4,0.4l0,0c-0.1,0.1-0.2,0.2-0.4,0.3l0,0c-0.1,0.1-0.2,0.2-0.3,0.3l0,0c-0.1,0.1-0.2,0.2-0.3,0.3l0,0
				c-0.1,0.1-0.2,0.2-0.3,0.3l0,0c-0.8,0.8-1.2,1.3-1.2,1.3s0,0,0,0.1l0,0l0,0c0,0,0.1,0.1,0.1,0.2l0,0c0,0,0,0.1,0.1,0.1l0,0
				c0,0,0,0.1,0.1,0.1c0,0,0,0,0,0.1s0.1,0.1,0.1,0.2l0,0c0,0.1,0.1,0.1,0.1,0.2l0,0c0,0.1,0.1,0.2,0.1,0.2l0,0
				c0,0.1,0.1,0.2,0.1,0.3l0,0c0,0.1,0.1,0.2,0.1,0.3V76c0,0.1,0.1,0.2,0.1,0.3c0,0,0,0.1,0.1,0.1c0,0.1,0.1,0.2,0.1,0.3l0,0
				c0.1,0.1,0.1,0.3,0.2,0.4l0,0c0.1,0.3,0.3,0.6,0.4,0.9l0,0c0.2,0.5,0.5,1,0.8,1.5l0,0c0.1,0.2,0.2,0.3,0.3,0.5
				C22.1,79.4,23.4,78.1,25.2,76.7z"/>
		</g>
	</g>
	<g>
		<g>
			<g>
				<g>
					<path style="fill:#181F41;" d="M229.6,43c-8.5,17.8-2.8,26.2,7,30.9c9.8,4.7,20,3.8,28.5-14s5.7-26.2-3.6-33
						C249.8,18.6,238.1,25.3,229.6,43z"/>
					<path style="fill:#181F41;" d="M218.3,52.3c5.1,11.9,9.8,14.5,13.6,12.9c3.8-1.6,5.2-6.8,0.1-18.7
						c-5.1-11.9-9.5-13.9-13.3-12.3C214.9,35.8,213.2,40.4,218.3,52.3z"/>
					
						<path style="fill:none;stroke:#31458C;stroke-width:0.8871;stroke-linecap:round;stroke-linejoin:round;stroke-miterlimit:10;" d="
						M230,42.2c2,4.3-4.5,10.3-11.9,9.5"/>
					
						<path style="fill:none;stroke:#31458C;stroke-width:0.8871;stroke-linecap:round;stroke-linejoin:round;stroke-miterlimit:10;" d="
						M230,42.2c0,0,15.9,8.1,8.3,28.5"/>
					
						<path style="fill:none;stroke:#31458C;stroke-width:0.8871;stroke-linecap:round;stroke-linejoin:round;stroke-miterlimit:10;" d="
						M266.5,56.8c0,0-10.3-5.9-16.8-9.1c-6.6-3.1-17.8-9.1-17.8-9.1"/>
				</g>
				<g>
					<path style="fill:#FFFFFF;" d="M229.6,125.9c-5.6,10.1-14.5,16.5-26.8,10.4c-12.2-6.1-12.4-17.1-7.6-27.5
						c13.9-30.2,23.7-53.5,23.7-53.5s8.5,0.5,20.5,6.3s17.4,12.5,17.4,12.5S245.7,96.8,229.6,125.9z"/>
					<path style="fill:#00E7AE;" d="M236.2,68.1c-9.1-4.4-16.4-6.1-19.9-6.6c1.7-4,2.6-6.2,2.6-6.2s8.5,0.5,20.5,6.3
						s17.4,12.5,17.4,12.5s-1.1,2.2-3,6.1C251.3,77.8,245.7,72.7,236.2,68.1z"/>
					<path style="fill:#CFE1FF;" d="M199.9,130.9c12.2,6.1,21.2-0.4,26.8-10.4c13.5-24.4,23.4-44.2,26.3-50c2.6,2.2,3.8,3.7,3.8,3.7
						s-11,22.6-27.1,51.8c-5.6,10.1-14.5,16.5-26.8,10.4c-5.5-2.8-8.6-6.5-9.8-10.8C194.6,127.6,196.9,129.4,199.9,130.9z"/>
					<g>
						
							<path style="fill:none;stroke:#171F41;stroke-width:0.8871;stroke-linecap:round;stroke-linejoin:round;stroke-miterlimit:10;" d="
							M236.8,112.7c-2.1-1.5-4.9-5.5-4.4-10.9c-10.9-6.1-26.2-12.6-34.7-13.9"/>
					</g>
				</g>
			</g>
			<g>
				<path style="fill:#009DA5;" d="M249.8,76.7c1.4-2.8,2.5-4.9,3.1-6.3c0.2,0.1,0.3,0.3,0.5,0.4l0,0c0.1,0.1,0.3,0.3,0.4,0.4l0,0
					c0.1,0.1,0.3,0.2,0.4,0.4l0,0c0.1,0.1,0.2,0.2,0.4,0.3l0,0c0.1,0.1,0.2,0.2,0.3,0.3l0,0c0.1,0.1,0.2,0.2,0.3,0.3l0,0
					c0.1,0.1,0.2,0.2,0.3,0.3l0,0c0.8,0.8,1.2,1.3,1.2,1.3s0,0,0,0.1l0,0l0,0c0,0-0.1,0.1-0.1,0.2l0,0c0,0,0,0.1-0.1,0.1l0,0
					c0,0,0,0.1-0.1,0.1c0,0,0,0,0,0.1s-0.1,0.1-0.1,0.2l0,0c0,0.1-0.1,0.1-0.1,0.2l0,0c0,0.1-0.1,0.2-0.1,0.2l0,0
					c0,0.1-0.1,0.2-0.1,0.3l0,0c0,0.1-0.1,0.2-0.1,0.3V76c0,0.1-0.1,0.2-0.1,0.3c0,0,0,0.1-0.1,0.1c0,0.1-0.1,0.2-0.1,0.3l0,0
					c-0.1,0.1-0.1,0.3-0.2,0.4l0,0c-0.1,0.3-0.3,0.6-0.4,0.9l0,0c-0.2,0.5-0.5,1-0.8,1.5l0,0c-0.1,0.2-0.2,0.3-0.3,0.5
					C252.9,79.4,251.6,78.1,249.8,76.7z"/>
			</g>
		</g>
		<g>
			<path style="fill:#06E5AC;" d="M109.2,52.2h56.5v-13c0-5.4-4.4-9.9-9.9-9.9H119c-5.4,0-9.9,4.4-9.9,9.9L109.2,52.2L109.2,52.2z"
				/>
			<path style="fill:#009DA5;" d="M124,29.3h-4.9c-5.4,0-9.9,4.4-9.9,9.9v13.1c0,0,4.6,0,17.7,0C112.8,43.5,114.5,29.3,124,29.3z"/>
			<path style="fill:#CFE1FF;" d="M79.3,198.5h116.3c6.5,0,11.7-5.3,11.7-11.7v-112c0-6.5-5.3-11.7-11.7-11.7H79.3
				c-6.5,0-11.7,5.3-11.7,11.7v112C67.6,193.3,72.9,198.5,79.3,198.5z"/>
			
				<line style="fill:none;stroke:#77AAFD;stroke-width:0.8871;stroke-linecap:round;stroke-linejoin:round;stroke-miterlimit:10;" x1="89.8" y1="175.4" x2="89.8" y2="198.5"/>
			
				<line style="fill:none;stroke:#77AAFD;stroke-width:0.8871;stroke-linecap:round;stroke-linejoin:round;stroke-miterlimit:10;" x1="185.2" y1="175.4" x2="185.2" y2="198.5"/>
			<g>
				<path style="fill:#181F41;" d="M137.5,226.6c23.6,0,44.4-14.9,57-32.8c1.3-1.9,0.7-4.5-1.3-5.7c-14.5-8.1-34.1-10.7-55.7-10.7
					s-41.3,2.6-55.7,10.7c-2,1.1-2.6,3.8-1.3,5.7C93.1,211.7,113.9,226.6,137.5,226.6z"/>
			</g>
			<g>
				<path style="fill:#06E5AC;" d="M137.5,226.6c18.5,0,35.3-9.1,47.7-21.7c-9.9-6.4-27.6-10.7-47.7-10.7s-37.8,4.3-47.7,10.7
					C102.2,217.5,119,226.6,137.5,226.6z"/>
			</g>
			<path style="fill:#009DA5;" d="M148.1,219.7c-17.8,0-34-8.5-46.3-20.3c-4.7,1.6-8.8,3.4-12,5.5c12.5,12.6,29.3,21.7,47.7,21.7
				c14.7,0,28.3-5.8,39.5-14.5C168.2,216.9,158.4,219.7,148.1,219.7z"/>
			<path style="fill:#FFFFFF;" d="M79.3,175.4h116.3c6.5,0,11.7-5.3,11.7-11.7v-112c0-6.5-5.3-11.7-11.7-11.7H79.3
				c-6.5,0-11.7,5.3-11.7,11.7v112C67.6,170.2,72.9,175.4,79.3,175.4z"/>
			<path style="fill:#181F41;" d="M82.5,167.4h110c3.4,0,6.2-2.8,6.2-6.2V52.8c0-3.4-2.8-6.2-6.2-6.2h-110c-3.4,0-6.2,2.8-6.2,6.2
				v108.4C76.3,164.7,79.1,167.4,82.5,167.4z"/>
		</g>
		<g>
			<g>
				<rect x="114.5" y="81.2" style="fill:#06E5AC;" width="12.4" height="16.1"/>
			</g>
			<g>
				<g>
					<polygon style="fill:#06E5AC;" points="131.3,128.7 143.7,128.7 126.9,109.1 114.5,109.1 					"/>
				</g>
				<g>
					<polygon style="fill:#06E5AC;" points="143.7,128.7 131.3,128.7 148.1,109.1 160.5,109.1 					"/>
				</g>
			</g>
			<rect x="148.1" y="81.1" style="fill:#06E5AC;" width="12.4" height="16.1"/>
		</g>
		
			<line style="fill:none;stroke:#171F41;stroke-width:0.8871;stroke-linecap:round;stroke-linejoin:round;stroke-miterlimit:10;" x1="67.6" y1="81.1" x2="67.6" y2="138.7"/>
		
			<line style="fill:none;stroke:#171F41;stroke-width:0.8871;stroke-linecap:round;stroke-linejoin:round;stroke-miterlimit:10;" x1="207.4" y1="81.1" x2="207.4" y2="138.7"/>
	</g>
</g>
</svg>
