<?xml version="1.0" encoding="utf-8"?>
<!-- Generator: Adobe Illustrator 26.5.0, SVG Export Plug-In . SVG Version: 6.00 Build 0)  -->
<svg version="1.1" id="레이어_1" xmlns="http://www.w3.org/2000/svg" xmlns:xlink="http://www.w3.org/1999/xlink" x="0px"
	 y="0px" viewBox="0 0 390 390" style="enable-background:new 0 0 390 390;" xml:space="preserve">
<g>
	<g>
		<path style="fill:#6500FF;" d="M120.7,85.5c0,0-70.3,50.5-60,96.5c0,0,118,104,208.5,130.3c0,0,55.8-60.5,66.1-97.1
			C335.3,215.2,187.3,95.6,120.7,85.5z"/>
		<path d="M269.2,314.4c-0.2,0-0.4,0-0.6-0.1c-47.1-13.7-101.5-48.5-138.9-75.3c-40.4-29-70.2-55.2-70.5-55.4
			c-0.3-0.3-0.6-0.7-0.7-1.1c-4.3-19.5,4.9-42.8,26.6-67.4c16.2-18.3,34-31.2,34.2-31.3c0.4-0.3,1-0.4,1.5-0.4
			c27.9,4.2,72.7,27.4,133.1,69c44.9,30.9,82.1,60.9,82.4,61.2c0.6,0.5,0.9,1.4,0.7,2.2c-10.3,36.7-64.2,95.5-66.5,97.9
			C270.4,314.1,269.8,314.4,269.2,314.4z M62.6,180.9c8.5,7.4,120.1,103.5,206,129c7-7.7,54.2-60.6,64.3-94
			C319.4,205.1,184,98,121.2,87.7C114.1,93,54.1,139.2,62.6,180.9z"/>
	</g>
	<g>
		<path style="fill:#5992D5;" d="M269.2,312.3c0,0,50.9-53.6,66.1-97.1c0,0,29,10.4,27.1,13.8s-12.5,9.4-12.5,9.4l3.6,23.4
			l-16.6,5.5l3.2,20.1l-16.5,8.6l-1,18.3l-19.4,1.8l1.7,22.8L269.2,312.3z"/>
		<path d="M304.9,341c-0.4,0-0.9-0.1-1.2-0.4L268,313.9c-0.5-0.4-0.8-0.9-0.8-1.5c-0.1-0.6,0.2-1.2,0.6-1.6
			c0.5-0.5,50.8-53.8,65.6-96.4c0.2-0.5,0.6-1,1.1-1.2c0.5-0.2,1.1-0.3,1.6-0.1c9.9,3.6,26.8,10.2,28.4,14.3
			c0.3,0.8,0.3,1.7-0.1,2.4c-1.7,3.2-8.9,7.7-12.1,9.5l3.4,22c0.2,1-0.4,2-1.4,2.3l-14.9,5l2.9,18.4c0.1,0.9-0.3,1.8-1.1,2.2
			l-15.5,8.1l-1,17.1c-0.1,1-0.9,1.9-1.9,2l-17.3,1.6l1.6,20.8c0.1,0.8-0.4,1.6-1.1,2C305.5,340.9,305.2,341,304.9,341z M272.3,312
			l30.1,22.5l-1.4-18.3c-0.1-1.1,0.8-2.1,1.9-2.2l17.6-1.6l0.9-16.5c0-0.7,0.5-1.4,1.1-1.7l15.2-7.9l-2.9-18.6c-0.2-1,0.4-2,1.4-2.3
			l14.9-5l-3.3-21.7c-0.1-0.9,0.3-1.7,1-2.1c3.8-2.1,9.4-5.8,11.2-7.9c-2.3-2.1-12.2-6.6-23.6-10.8c-8.2,22.2-25.3,46.7-38.3,63.5
			C286.7,296.2,276.2,307.8,272.3,312z"/>
	</g>
	<g>
		<path style="fill:#6DB2FF;" d="M120.7,85.5c0,0-67.4,50.5-60,96.5l-33.2-22.2l17.9-9.8l-11.1-27.6l22.1-4.9L53,89.2l24,1.3
			l-7-21.3l24.4,2.6l-0.3-20.7L120.7,85.5z"/>
		<path d="M60.7,184.1c-0.4,0-0.8-0.1-1.2-0.3l-33.2-22.2c-0.6-0.4-1-1.1-0.9-1.8c0-0.7,0.4-1.4,1.1-1.7l16.2-8.9l-10.4-25.9
			c-0.2-0.6-0.2-1.2,0.1-1.7c0.3-0.5,0.8-0.9,1.4-1.1l20.3-4.5L51,89.5c-0.1-0.6,0.1-1.2,0.5-1.7c0.4-0.4,1-0.7,1.6-0.7l20.9,1.1
			l-6-18.4c-0.2-0.7-0.1-1.4,0.4-2c0.4-0.5,1.1-0.8,1.8-0.8l22.1,2.3l-0.2-18.4c0-0.9,0.6-1.7,1.4-2c0.8-0.3,1.8,0,2.3,0.7
			l26.5,34.4c0.3,0.4,0.5,1,0.4,1.6c-0.1,0.6-0.4,1.1-0.8,1.4c-0.7,0.5-66.3,50.2-59.2,94.5c0.1,0.8-0.2,1.6-0.9,2.1
			C61.5,184,61.1,184.1,60.7,184.1z M31.5,160l26.6,17.8c-1.2-18.6,8.3-39.7,28.2-62.7c13-15,26.8-26.3,31.4-30L96.3,57.3l0.2,14.5
			c0,0.6-0.2,1.2-0.7,1.6c-0.4,0.4-1,0.6-1.6,0.5L73,71.6l6,18.2c0.2,0.7,0.1,1.4-0.3,1.9c-0.4,0.5-1.1,0.8-1.8,0.8l-21.5-1.1
			l3.1,25.8c0.1,1.1-0.6,2-1.6,2.3l-19.7,4.4l10.2,25.3c0.4,1,0,2.1-0.9,2.6L31.5,160z"/>
	</g>
	<g>
		<path style="fill:#A7A7FF;" d="M141.1,244.4c0,0,59.3-62,157.8-57.3l-57-39.9c0,0-110.6-30.3-162.9,50.2L141.1,244.4z"/>
		<path d="M141.1,246.5c-0.4,0-0.9-0.1-1.3-0.4l-62.1-47c-0.9-0.7-1.1-1.9-0.5-2.8c27.5-42.3,71-53.9,102.7-56.2
			c34.2-2.5,62.3,5.1,62.5,5.2c0.2,0.1,0.4,0.2,0.6,0.3l57,39.9c0.8,0.5,1.1,1.5,0.8,2.4c-0.3,0.9-1.1,1.5-2.1,1.4
			c-50.3-2.4-90.1,13.1-114.6,26.6c-26.6,14.6-41.5,29.9-41.6,30.1C142.2,246.3,141.7,246.5,141.1,246.5z M81.8,196.9l59.1,44.8
			c4.2-4.1,18.3-16.9,41.1-29.5c23.8-13.1,61.9-28.1,109.9-27.4l-51-35.7c-3.3-0.8-29.5-7.2-60.9-4.9c-19.6,1.4-37.3,5.9-52.7,13.3
			C108.7,166.4,93.4,179.7,81.8,196.9z"/>
	</g>
</g>
<g>
	<g>
		<path style="fill:#693300;" d="M226.8,225.6c-4.1-9.3-8.2-18.7-10.7-28.6c-0.5-1.9-0.9-3.9-0.4-5.8c0.5-2,2-3.6,3.6-5
			c7.4-6.4,18-7.8,27.2-10.4c1.8-0.5,3.6-1,5.5-0.9c2.4,0.2,4.6,1.4,6.6,2.9c7.1,5.3,10.7,14.5,14.6,22.2
			c4.7,9.3,7.3,19.4,11.6,28.9c3.7,8.2,8.6,16.1,10.4,24.9c0.6,3.1,1.8,9.2,0,12.1c-1.9,3.2-8.8,5.6-12,7.3
			c-7.1,3.8-14.7,7.1-22.7,7.2c-6.1,0.1-14.8-5.7-17-11.4c-2.1-5.5-4.5-11-6.7-16.6C233.2,243.6,230.6,234.4,226.8,225.6z"/>
		<path d="M260.4,282.5c-7,0-16.4-6.4-18.8-12.8c-1.3-3.5-2.8-7-4.2-10.5c-0.8-2-1.7-4-2.5-6c-1.6-4-3-8-4.4-12
			c-1.7-4.9-3.5-9.9-5.6-14.7c-4-9.3-8.2-18.8-10.8-28.9c-0.5-2.1-1-4.5-0.4-6.9c0.7-2.7,2.7-4.6,4.3-6c6.2-5.3,14.1-7.3,21.9-9.2
			c2.1-0.5,4.1-1,6.1-1.6c1.8-0.5,3.9-1.1,6.2-1c2.5,0.2,4.9,1.2,7.7,3.3c6.4,4.8,10.1,12.5,13.4,19.2c0.6,1.2,1.2,2.5,1.8,3.7
			c2.7,5.3,4.7,10.9,6.7,16.4c1.5,4.2,3.1,8.5,4.9,12.6c1,2.3,2.2,4.5,3.3,6.8c2.9,5.9,5.9,12,7.3,18.6c0.9,4.2,1.8,10.2-0.3,13.6
			c-1.8,2.9-6.4,5-10,6.7c-1,0.5-2,0.9-2.7,1.3c-6.8,3.6-15,7.3-23.6,7.4C260.5,282.5,260.4,282.5,260.4,282.5z M251.4,177
			c-1.4,0-2.9,0.4-4.3,0.8c-2.1,0.6-4.2,1.1-6.3,1.6c-7.2,1.8-14.7,3.7-20.1,8.3c-1.2,1-2.5,2.4-3,3.9c-0.4,1.4,0,3.1,0.4,4.8
			c2.5,9.7,6.6,19.2,10.5,28.3c0,0,0,0,0,0c2.2,4.9,4,10.1,5.7,15c1.4,3.9,2.8,7.9,4.4,11.8c0.8,2,1.6,4,2.5,6
			c1.5,3.5,3,7.1,4.3,10.6c1.8,4.7,9.7,10.1,14.9,10.1c0,0,0.1,0,0.1,0c7.7-0.1,15.3-3.6,21.7-7c0.8-0.4,1.9-0.9,2.9-1.4
			c2.8-1.3,7.1-3.3,8.2-5.1c0.7-1.1,1.2-3.8-0.3-10.6c-1.3-6.1-4.2-11.9-7-17.6c-1.1-2.3-2.3-4.6-3.3-6.9c-1.9-4.2-3.5-8.6-5-12.9
			c-1.9-5.3-3.9-10.8-6.5-15.9c-0.6-1.2-1.2-2.5-1.8-3.7c-3.2-6.6-6.6-13.5-12.2-17.7c-2.1-1.6-3.8-2.4-5.5-2.5
			C251.7,177,251.5,177,251.4,177z"/>
	</g>
	<path style="fill:#B55700;" d="M260.7,267.3c-0.4,0-0.8-0.1-1.1-0.3c-7-4.5-9.9-13.1-12.1-19.3l-18.4-53.3
		c-0.4-1.1,0.2-2.3,1.3-2.6c1.1-0.4,2.3,0.2,2.6,1.3l18.4,53.3c2.5,7.3,5.1,13.7,10.4,17.2c1,0.6,1.2,1.9,0.6,2.9
		C262.1,267,261.4,267.3,260.7,267.3z"/>
</g>
<path style="opacity:0.2;" d="M335.3,215.2c-25.6,20.6-69.5,33.7-111.2,29.2c-41.8-4.5-159.3-91.9-159.3-91.9l-2,2.5
	c-3,8.9-4.1,18-2.1,26.9c0,0,118,104,208.5,130.3C269.2,312.3,325.1,251.8,335.3,215.2z"/>
<path style="opacity:0.2;" d="M64.8,152.5L45.3,150l-17.9,9.8L60.7,182C60.7,182,58.3,167.3,64.8,152.5z"/>
<g>
	<g>
		<g>
			<path style="fill:#FFFFFF;" d="M132.1,113.8c-0.9-1.8-3.9-2.9-5.8-3c-2.2-0.2-4.5,1-5.2,3c-0.4,1.2-0.1,2.7,0.6,3.7
				s1.9,1.9,3.1,2.3c2,0.7,4.4,0.7,6-0.7C132.5,118,133,115.6,132.1,113.8z M128.1,116.6c-0.7,0.3-1.7,0-2.2-0.5
				c-0.4-0.3-0.8-0.9-0.6-1.4c0.2-0.5,0.7-0.7,1.1-0.7s0.9,0.2,1.3,0.4C128.6,114.9,129.3,116.1,128.1,116.6z"/>
			<path style="fill:#38008C;" d="M125.9,110.8c0.1,0,0.3,0,0.4,0c1.9,0.1,4.9,1.2,5.8,3c0.9,1.8,0.4,4.2-1.2,5.4
				c-1,0.8-2.2,1.1-3.5,1.1c-0.9,0-1.7-0.2-2.5-0.5c-1.2-0.5-2.4-1.2-3.1-2.3c-0.7-1.1-1-2.5-0.6-3.7
				C121.7,111.9,123.9,110.8,125.9,110.8 M127.5,116.7c0.2,0,0.4,0,0.6-0.1c1.2-0.5,0.5-1.7-0.3-2.2c-0.4-0.2-0.9-0.4-1.3-0.4
				c0,0,0,0,0,0c-0.5,0-1,0.3-1.1,0.7c-0.2,0.5,0.1,1.1,0.6,1.4C126.3,116.5,126.9,116.7,127.5,116.7 M125.9,107.3
				c-3.7,0-7.1,2.2-8.1,5.5c-0.7,2.2-0.3,4.7,1.1,6.7c1.1,1.6,2.7,2.9,4.7,3.6c1.2,0.5,2.5,0.7,3.8,0.7c2.1,0,4.1-0.7,5.7-1.9
				c2.9-2.3,3.8-6.4,2.1-9.7c-1.8-3.5-6.4-4.7-8.6-4.9C126.3,107.3,126.1,107.3,125.9,107.3L125.9,107.3z"/>
		</g>
		<g>
			<path style="fill:#FFFFFF;" d="M127.6,100.1c-1-0.7-2.4-1.3-3.2-0.5c-0.3,0.3-0.4,0.8-0.4,1.3c0,1.6,0.9,3.1,2.3,3.9
				c0.6,0.3,1.4,0.8,1.2,1.4c-0.1,0.2-0.3,0.4-0.5,0.6c-0.5,0.5-0.6,1.4-0.3,2c0.3,0.7,1.1,1.1,1.8,1c0.8-0.1,1.5-0.7,2.3-1
				s1.9-0.1,2,0.7c0.1,0.7-0.6,1.2-0.7,1.8c-0.2,0.9,0.8,1.7,1.7,1.7c0.9,0,1.7-0.6,2.4-1.2c0.1-0.1,0.3-0.3,0.5-0.3
				c0.2,0,0.4,0.1,0.5,0.1c1.2,0.5,2.7,0.7,3.8,0c4.1-2.6-2.6-4.5-4-5.3C133.5,104.8,130.6,102.3,127.6,100.1z"/>
			<path style="fill:#38008C;" d="M125.3,99.2c0.7,0,1.6,0.4,2.2,0.9c3,2.2,5.9,4.7,9.3,6.4c1.4,0.7,8.1,2.7,4,5.3
				c-0.5,0.3-1.1,0.5-1.7,0.5c-0.7,0-1.4-0.2-2.1-0.4c-0.2-0.1-0.3-0.1-0.5-0.1c0,0,0,0-0.1,0c-0.2,0-0.4,0.2-0.5,0.3
				c-0.7,0.6-1.5,1.1-2.4,1.2c0,0,0,0,0,0c-0.9,0-1.8-0.8-1.7-1.7c0.1-0.6,0.8-1.2,0.7-1.8c-0.1-0.6-0.7-0.9-1.3-0.9
				c-0.3,0-0.5,0-0.7,0.1c-0.8,0.3-1.4,0.9-2.3,1c0,0-0.1,0-0.1,0c-0.7,0-1.4-0.4-1.6-1c-0.3-0.7-0.2-1.5,0.3-2
				c0.2-0.2,0.4-0.3,0.5-0.6c0.2-0.7-0.6-1.1-1.2-1.4c-1.4-0.7-2.3-2.3-2.3-3.9c0-0.5,0.1-1,0.4-1.3C124.6,99.3,125,99.2,125.3,99.2
				 M125.3,95.8c-1.4,0-2.7,0.5-3.6,1.5c-0.6,0.6-1.3,1.8-1.4,3.5c-0.1,2.3,0.9,4.5,2.6,6c-0.3,1.2-0.2,2.4,0.4,3.5
				c0.9,1.8,2.7,3,4.8,3c0.1,0,0.3,0,0.4,0c0.1,0,0.1,0,0.2,0c0.2,0.5,0.4,0.9,0.8,1.3c1,1.2,2.5,1.9,4,1.9c0,0,0,0,0.1,0
				c1.4,0,2.6-0.5,3.5-1.1c0.7,0.2,1.3,0.2,2,0.2c1.3,0,2.5-0.3,3.6-1c2.8-1.8,3-3.9,2.9-5c-0.3-3.4-4-5-6.4-6
				c-0.3-0.1-0.6-0.3-0.7-0.3c-2.1-1.1-4.1-2.6-6.3-4.2c-0.8-0.6-1.7-1.3-2.6-1.9C128.6,96.6,127.1,95.8,125.3,95.8L125.3,95.8z"/>
		</g>
		<g>
			<path style="fill:#FFFFFF;" d="M131.4,98.1c-0.3,0.1-0.7,0.2-0.9,0.4c-0.2,0.2-0.2,0.5-0.2,0.7c-0.1,0.7-0.1,1.5,0.4,1.8
				c0.3,0.2,0.7,0.2,1.1,0.2c1.4,0,2.9,0,4.3,0c-0.2,1.1,0.2,2.3,1.1,3s2.1,0.9,3.1,0.5c0.2-0.1,0.3-0.2,0.5-0.3
				c0.2-0.2,0.2-0.5,0.2-0.8c0-1-0.4-2-1.1-2.7c0.5,0.1,1-0.1,1.4-0.5c2-1.9-0.4-4.2-2.4-4.2C136.6,96.2,133.7,97.6,131.4,98.1z"/>
			<path style="fill:#38008C;" d="M139,96.2c2,0,4.3,2.3,2.4,4.2c-0.3,0.3-0.7,0.5-1.1,0.5c-0.1,0-0.2,0-0.3,0
				c0.7,0.7,1.1,1.7,1.1,2.7c0,0.3,0,0.6-0.2,0.8c-0.1,0.1-0.3,0.2-0.5,0.3c-0.4,0.2-0.8,0.2-1.2,0.2c-0.7,0-1.4-0.2-2-0.7
				c-0.9-0.7-1.3-1.9-1.1-3c-1.4,0-2.9,0-4.3,0c0,0,0,0,0,0c-0.4,0-0.8,0-1.1-0.2c-0.5-0.4-0.5-1.2-0.4-1.8c0-0.3,0.1-0.5,0.2-0.7
				c0.2-0.3,0.5-0.3,0.9-0.4C133.7,97.6,136.6,96.2,139,96.2C139,96.2,139,96.2,139,96.2 M139,92.7l-0.1,0c-2,0-4,0.7-5.8,1.3
				c-0.9,0.3-1.7,0.5-2.4,0.7c-0.5,0.1-1.9,0.4-2.9,1.7c-0.8,1-0.9,2-0.9,2.4c-0.3,2.8,0.8,4.3,1.9,5.1c1.2,0.9,2.5,0.9,3.1,0.9
				l0.1,0l1.5,0c0.4,0.8,1,1.6,1.7,2.2c1.2,0.9,2.6,1.5,4.1,1.5c0.9,0,1.7-0.2,2.5-0.5c0.8-0.3,1.4-0.7,1.8-1.3c0.7-0.8,1-1.8,1-3
				c0-0.4-0.1-0.9-0.1-1.3c1.2-1.6,1.5-3.5,0.8-5.3C144.3,94.4,141.7,92.7,139,92.7L139,92.7z"/>
		</g>
	</g>
	<g>
		<g>
			<path style="fill:#FFFFFF;" d="M154.2,125.8c-0.9-1.8-3.9-2.9-5.8-3c-2.2-0.2-4.5,1-5.2,3c-0.4,1.2-0.1,2.7,0.6,3.7
				s1.9,1.9,3.1,2.3c2,0.7,4.4,0.7,6-0.7C154.6,129.9,155.1,127.6,154.2,125.8z M150.2,128.6c-0.7,0.3-1.7,0-2.2-0.5
				c-0.4-0.3-0.8-0.9-0.6-1.4c0.2-0.5,0.7-0.7,1.1-0.7c0.5,0,0.9,0.2,1.3,0.4C150.7,126.8,151.4,128,150.2,128.6z"/>
			<path style="fill:#38008C;" d="M148,122.7c0.1,0,0.3,0,0.4,0c1.9,0.1,4.9,1.2,5.8,3c0.9,1.8,0.4,4.2-1.2,5.4
				c-1,0.8-2.2,1.1-3.5,1.1c-0.9,0-1.7-0.2-2.5-0.5c-1.2-0.5-2.4-1.2-3.1-2.3c-0.7-1.1-1-2.5-0.6-3.7
				C143.8,123.8,146,122.7,148,122.7 M149.6,128.7c0.2,0,0.4,0,0.6-0.1c1.2-0.5,0.5-1.7-0.3-2.2c-0.4-0.2-0.9-0.4-1.3-0.4
				c0,0,0,0,0,0c-0.5,0-1,0.3-1.1,0.7c-0.2,0.5,0.1,1.1,0.6,1.4C148.4,128.4,149,128.7,149.6,128.7 M148,119.3
				c-3.7,0-7.1,2.2-8.1,5.5c-0.7,2.2-0.3,4.7,1.1,6.7c1.1,1.6,2.7,2.9,4.7,3.6c1.2,0.5,2.5,0.7,3.8,0.7c2.1,0,4.1-0.7,5.7-1.9
				c2.9-2.3,3.8-6.4,2.1-9.7c-1.8-3.5-6.4-4.7-8.6-4.9C148.4,119.3,148.2,119.3,148,119.3L148,119.3z"/>
		</g>
		<g>
			<path style="fill:#FFFFFF;" d="M149.6,112.1c-1-0.7-2.4-1.3-3.2-0.5c-0.3,0.3-0.4,0.8-0.4,1.3c0,1.6,0.9,3.1,2.3,3.9
				c0.6,0.3,1.4,0.8,1.2,1.4c-0.1,0.2-0.3,0.4-0.5,0.6c-0.5,0.5-0.6,1.4-0.3,2s1.1,1.1,1.8,1c0.8-0.1,1.5-0.7,2.3-1
				c0.8-0.3,1.9-0.1,2,0.7c0.1,0.7-0.6,1.2-0.7,1.8c-0.2,0.9,0.8,1.7,1.7,1.7c0.9,0,1.7-0.6,2.4-1.2c0.1-0.1,0.3-0.3,0.5-0.3
				c0.2,0,0.4,0.1,0.5,0.1c1.2,0.5,2.7,0.7,3.8,0c4.1-2.6-2.6-4.5-4-5.3C155.6,116.7,152.7,114.2,149.6,112.1z"/>
			<path style="fill:#38008C;" d="M147.4,111.2c0.7,0,1.6,0.4,2.2,0.9c3,2.2,5.9,4.7,9.3,6.4c1.4,0.7,8.1,2.7,4,5.3
				c-0.5,0.3-1.1,0.5-1.7,0.5c-0.7,0-1.4-0.2-2.1-0.4c-0.2-0.1-0.3-0.1-0.5-0.1c0,0,0,0-0.1,0c-0.2,0-0.4,0.2-0.5,0.3
				c-0.7,0.6-1.5,1.1-2.4,1.2c0,0,0,0,0,0c-0.9,0-1.8-0.8-1.7-1.7c0.1-0.6,0.8-1.2,0.7-1.8c-0.1-0.6-0.7-0.9-1.3-0.9
				c-0.3,0-0.5,0-0.7,0.1c-0.8,0.3-1.4,0.9-2.3,1c0,0-0.1,0-0.1,0c-0.7,0-1.4-0.4-1.6-1c-0.3-0.7-0.2-1.5,0.3-2
				c0.2-0.2,0.4-0.3,0.5-0.6c0.2-0.7-0.6-1.1-1.2-1.4c-1.4-0.7-2.3-2.3-2.3-3.9c0-0.5,0.1-1,0.4-1.3
				C146.7,111.3,147.1,111.2,147.4,111.2 M147.4,107.7c-1.4,0-2.7,0.5-3.6,1.5c-0.6,0.6-1.3,1.8-1.4,3.5c-0.1,2.3,0.9,4.5,2.6,6
				c-0.3,1.2-0.2,2.4,0.4,3.5c0.9,1.8,2.7,3,4.8,3c0.1,0,0.3,0,0.4,0c0.1,0,0.1,0,0.2,0c0.2,0.5,0.4,0.9,0.8,1.3
				c1,1.2,2.5,1.9,4,1.9c0,0,0,0,0.1,0c1.4,0,2.6-0.5,3.5-1.1c0.7,0.2,1.3,0.2,2,0.2c1.3,0,2.5-0.3,3.6-1c2.8-1.8,3-3.9,2.9-5
				c-0.3-3.4-4-5-6.4-6c-0.3-0.1-0.6-0.3-0.7-0.3c-2.1-1.1-4.1-2.6-6.3-4.2c-0.8-0.6-1.7-1.3-2.6-1.9
				C150.7,108.5,149.2,107.7,147.4,107.7L147.4,107.7z"/>
		</g>
		<g>
			<path style="fill:#FFFFFF;" d="M153.5,110c-0.3,0.1-0.7,0.2-0.9,0.4c-0.2,0.2-0.2,0.5-0.2,0.7c-0.1,0.7-0.1,1.5,0.4,1.8
				c0.3,0.2,0.7,0.2,1.1,0.2c1.4,0,2.9,0,4.3,0c-0.2,1.1,0.2,2.3,1.1,3c0.9,0.7,2.1,0.9,3.1,0.5c0.2-0.1,0.3-0.2,0.5-0.3
				c0.2-0.2,0.2-0.5,0.2-0.8c0-1-0.4-2-1.1-2.7c0.5,0.1,1-0.1,1.4-0.5c2-1.9-0.4-4.2-2.4-4.2C158.7,108.2,155.8,109.5,153.5,110z"/>
			<path style="fill:#38008C;" d="M161.1,108.1c2,0,4.3,2.3,2.4,4.2c-0.3,0.3-0.7,0.5-1.1,0.5c-0.1,0-0.2,0-0.3,0
				c0.7,0.7,1.1,1.7,1.1,2.7c0,0.3,0,0.6-0.2,0.8c-0.1,0.1-0.3,0.2-0.5,0.3c-0.4,0.2-0.8,0.2-1.2,0.2c-0.7,0-1.4-0.2-2-0.7
				c-0.9-0.7-1.3-1.9-1.1-3c-1.4,0-2.9,0-4.3,0c0,0,0,0,0,0c-0.4,0-0.8,0-1.1-0.2c-0.5-0.4-0.5-1.2-0.4-1.8c0-0.3,0.1-0.5,0.2-0.7
				c0.2-0.3,0.5-0.3,0.9-0.4C155.8,109.5,158.7,108.2,161.1,108.1C161.1,108.1,161.1,108.1,161.1,108.1 M161.1,104.7l-0.1,0
				c-2,0-4,0.7-5.8,1.3c-0.9,0.3-1.7,0.5-2.4,0.7c-0.5,0.1-1.9,0.4-2.9,1.7c-0.8,1-0.9,2-0.9,2.4c-0.3,2.8,0.8,4.3,1.9,5.1
				c1.2,0.9,2.5,0.9,3.1,0.9l0.1,0l1.5,0c0.4,0.8,1,1.6,1.7,2.2c1.2,0.9,2.6,1.5,4.1,1.5c0.9,0,1.7-0.2,2.5-0.5
				c0.8-0.3,1.4-0.7,1.8-1.3c0.7-0.8,1-1.8,1-3c0-0.4-0.1-0.9-0.1-1.3c1.2-1.6,1.5-3.5,0.8-5.3C166.4,106.4,163.8,104.7,161.1,104.7
				L161.1,104.7z"/>
		</g>
	</g>
	<g>
		<g>
			<path style="fill:#FFFFFF;" d="M164.7,165.2c0.5-1.2,0.9-2.5,1.4-3.7c0.1-0.3,0.2-0.6,0.5-0.7c0.3-0.1,0.5,0.1,0.8,0.2
				c2.3,1.1,5.3-0.3,6.5-2.7c4.8-9.7-11.9-14.7-17.9-18.1c-2.4-1.3-4.9-2.7-7.6-2.6c-5.6,0.1-8,7.4-3,10.4c-1,1.9-2.1,3.9-3.2,5.8
				c0,0.1-4.7,0.2-5.6,0.9c-1.6,1.4-1.7,4-0.7,5.9c1,1.9,2.7,3.3,4.4,4.5c4.8,3.4,10,6.3,15.2,9.1c1.4,0.8,2.9,1.6,4.6,1.8
				c2.6,0.3,5.3-1.3,6.3-3.7C167.4,169.9,166.7,166.8,164.7,165.2z M157.4,160.7c-1.8-0.9-3.6-1.9-5.2-3.1c-0.2-0.1-0.4-0.3-0.5-0.5
				c-0.2-0.4,0-0.9,0.2-1.2c0.7-1.2,1.2-3,2.8-3.1c1.5-0.2,3.5,1.4,4.6,2.1c0.3,0.2,0.6,0.4,0.8,0.7c0.3,0.5,0,1.2-0.3,1.7
				C159.2,158.4,158.3,159.6,157.4,160.7z"/>
			<path style="fill:#38008C;" d="M148.5,137.6c2.6,0,5.1,1.3,7.4,2.6c6,3.3,22.7,8.4,17.9,18.1c-0.9,1.8-2.8,3-4.7,3
				c-0.6,0-1.2-0.1-1.7-0.4c-0.2-0.1-0.4-0.2-0.6-0.2c-0.1,0-0.1,0-0.2,0c-0.3,0.1-0.4,0.4-0.5,0.7c-0.5,1.2-0.9,2.5-1.4,3.7
				c2,1.7,2.7,4.7,1.7,7.1c-0.9,2.2-3.3,3.7-5.7,3.7c-0.2,0-0.4,0-0.6,0c-1.6-0.2-3.1-1-4.6-1.8c-5.2-2.8-10.4-5.7-15.2-9.1
				c-1.7-1.2-3.5-2.6-4.4-4.5c-1-1.9-0.9-4.5,0.7-5.9c0.9-0.8,5.5-0.8,5.6-0.9c1.1-1.9,2.2-3.8,3.2-5.8c-5.1-3-2.7-10.2,3-10.4
				C148.4,137.6,148.5,137.6,148.5,137.6 M157.4,160.7c0.9-1.1,1.7-2.3,2.4-3.5c0.3-0.5,0.6-1.2,0.3-1.7c-0.2-0.3-0.5-0.5-0.8-0.7
				c-1.1-0.7-3-2.1-4.4-2.1c-0.1,0-0.1,0-0.2,0c-1.6,0.2-2.1,1.9-2.8,3.1c-0.2,0.4-0.4,0.8-0.2,1.2c0.1,0.2,0.3,0.4,0.5,0.5
				C153.8,158.8,155.6,159.8,157.4,160.7 M148.5,134.1C148.5,134.1,148.5,134.1,148.5,134.1c-0.1,0-0.2,0-0.2,0
				c-4.2,0.1-7.8,2.9-8.8,6.9c-0.7,2.8-0.1,5.5,1.6,7.6c-0.3,0.6-0.6,1.1-0.9,1.7c-2.9,0.2-4.6,0.6-5.8,1.6
				c-2.7,2.4-3.3,6.5-1.5,10.1c1.3,2.5,3.4,4.3,5.5,5.8c5,3.5,10.4,6.5,15.6,9.3c1.6,0.9,3.5,1.9,5.9,2.2c0.3,0,0.6,0,0.9,0
				c3.8,0,7.4-2.4,8.9-5.9c1.2-2.8,0.9-6.2-0.7-8.8c0.1,0,0.2,0,0.3,0c3.2,0,6.4-2,7.8-5c1.3-2.7,1.6-5.6,0.6-8.2
				c-2.2-6.2-10.2-9.9-16.1-12.6c-1.5-0.7-2.9-1.3-3.9-1.9C155.3,135.9,152.2,134.1,148.5,134.1L148.5,134.1z"/>
		</g>
		<g>
			<path style="fill:#FFFFFF;" d="M127,165.8c-1.8-0.4-3.5-0.3-4.9,0.9c-1.5,1.2-2.2,3.3-1.7,5.2c0.5,2.2,2.4,3.8,4.2,5.2
				c4,3.1,8.9,5.3,13.3,7.8c3.9,2.3,7.8,4.6,11.7,6.9c5.1,3,14.9,1.6,11.1-6.3c-0.9-1.9-3-2.6-4.8-3.6c-6.1-3.4-12.2-6.8-18.3-10.3
				C134.9,170.1,130.7,166.7,127,165.8z"/>
			<path style="fill:#38008C;" d="M125.2,165.6c0.6,0,1.1,0.1,1.7,0.2c3.8,0.9,8,4.3,10.6,5.7c6.1,3.4,12.2,6.8,18.3,10.3
				c1.7,1,3.9,1.7,4.8,3.6c2.6,5.4-1.2,7.8-5.4,7.8c-2,0-4-0.5-5.6-1.4c-3.9-2.3-7.8-4.6-11.7-6.9c-4.3-2.5-9.3-4.8-13.3-7.8
				c-1.8-1.4-3.7-3-4.2-5.2c-0.5-1.9,0.2-4,1.7-5.2C123,165.9,124.1,165.6,125.2,165.6 M125.2,162.1c-2,0-3.8,0.6-5.4,1.9
				c-2.5,2.1-3.7,5.5-2.9,8.7c0.9,3.5,3.7,5.7,5.5,7.1c2.9,2.3,6.3,4.1,9.5,5.8c1.5,0.8,2.8,1.5,4.2,2.3l3.9,2.3
				c2.6,1.5,5.2,3.1,7.8,4.6c2.1,1.2,4.8,1.9,7.4,1.9c3.9,0,7.1-1.5,8.7-4c1.1-1.7,1.9-4.6-0.1-8.7c-1.2-2.5-3.6-3.7-5.3-4.6
				c-0.3-0.2-0.7-0.3-1-0.5l-9.2-5.1l-9.2-5.1c-0.6-0.4-1.5-0.9-2.4-1.5c-2.6-1.7-5.8-3.8-9.1-4.6
				C126.9,162.3,126,162.1,125.2,162.1L125.2,162.1z"/>
		</g>
		<g>
			<path style="fill:#FFFFFF;" d="M242.2,220.5c-0.2,1.3,0,2.6,1,3.7c1.1,1.2,2.9,1.9,4.4,1.6c1.8-0.3,3-1.6,4.1-2.9
				c2.3-2.8,3.9-6.4,5.7-9.6c1.7-2.8,3.3-5.6,5-8.5c2.2-3.6,0.4-11.2-6-8.8c-1.5,0.6-2,2.1-2.7,3.4c-2.5,4.4-5,8.8-7.4,13.2
				C245.3,214.7,242.7,217.7,242.2,220.5z"/>
			<path style="fill:#38008C;" d="M258.8,195.7c4.5,0,5.6,6.1,3.7,9.3c-1.7,2.8-3.3,5.6-5,8.5c-1.8,3.1-3.4,6.8-5.7,9.6
				c-1.1,1.3-2.2,2.6-4.1,2.9c-0.2,0-0.4,0-0.6,0c-1.4,0-2.9-0.6-3.8-1.7c-1.1-1.1-1.3-2.4-1-3.7c0.5-2.8,3.1-5.8,4.1-7.6
				c2.5-4.4,5-8.8,7.4-13.2c0.7-1.3,1.2-2.8,2.7-3.4C257.3,195.9,258.1,195.7,258.8,195.7 M258.8,192.3c-1.1,0-2.3,0.2-3.5,0.7
				c-2.5,0.9-3.5,3-4.2,4.3c-0.1,0.2-0.2,0.4-0.3,0.6l-7.4,13.2c-0.2,0.4-0.6,1-1,1.6c-1.3,2-3,4.4-3.5,7.1
				c-0.5,2.5,0.2,4.9,1.9,6.7c1.6,1.8,4,2.8,6.4,2.8c0.4,0,0.8,0,1.1-0.1c3.2-0.5,5.2-2.8,6.2-4.1c1.8-2.2,3.1-4.7,4.4-7.1
				c0.6-1,1.1-2,1.6-2.9l1.7-2.9c1.1-1.9,2.2-3.7,3.3-5.6c1.8-3.1,1.8-7.4,0-10.5C264.1,193.7,261.6,192.3,258.8,192.3L258.8,192.3z
				"/>
		</g>
		<g>
			<path style="fill:#FFFFFF;" d="M170.9,192.4c-1.8-0.4-3.5-0.3-4.9,0.9c-1.5,1.2-2.2,3.3-1.7,5.2c0.5,2.2,2.4,3.8,4.2,5.2
				c4,3.1,8.9,5.3,13.3,7.8c3.9,2.3,7.8,4.6,11.7,6.9c5.1,3,14.9,1.6,11.1-6.3c-0.9-1.9-3-2.6-4.8-3.6c-2.4-1.4-7.3-2.2-7.3-5.7
				c0-1,0.3-1.9,0.6-2.8c0.2-0.8,0.4-1.6,0.5-2.4c0.5-3.7-2.9-4-5.8-5c-0.3-0.1-0.7-0.2-1-0.1c-0.4,0.1-0.7,0.6-0.9,1
				c-0.6,1.1-1.8,4.4-2.9,4.9c-1.1,0.5-2.3-0.6-3.2-1.2C176.9,195.3,174.1,193.2,170.9,192.4z"/>
			<path style="fill:#38008C;" d="M169.1,192.2c0.6,0,1.1,0.1,1.7,0.2c3.3,0.8,6,2.9,8.8,4.6c0.8,0.5,1.7,1.4,2.6,1.4
				c0.2,0,0.4,0,0.6-0.1c1.1-0.5,2.3-3.8,2.9-4.9c0.2-0.4,0.5-0.8,0.9-1c0.1,0,0.2,0,0.3,0c0.3,0,0.5,0.1,0.7,0.2
				c2.9,1,6.3,1.2,5.8,5c-0.1,0.8-0.3,1.6-0.5,2.4c-0.2,0.9-0.6,1.8-0.6,2.8c0,3.6,4.8,4.4,7.3,5.7c1.7,1,3.9,1.7,4.8,3.6
				c2.6,5.4-1.2,7.8-5.4,7.8c-2,0-4-0.5-5.6-1.4c-3.9-2.3-7.8-4.6-11.7-6.9c-4.3-2.5-9.3-4.8-13.3-7.8c-1.8-1.4-3.7-3-4.2-5.2
				c-0.5-1.9,0.2-4,1.7-5.2C166.9,192.5,168,192.2,169.1,192.2 M169.1,188.7c-2,0-3.8,0.6-5.4,1.9c-2.5,2.1-3.7,5.5-2.9,8.7
				c0.9,3.5,3.7,5.7,5.5,7.1c2.9,2.3,6.3,4.1,9.5,5.8c1.5,0.8,2.8,1.5,4.2,2.3l3.9,2.3c2.6,1.5,5.2,3.1,7.8,4.6
				c2.1,1.2,4.8,1.9,7.4,1.9c3.9,0,7.1-1.5,8.7-4c1.1-1.7,1.9-4.6-0.1-8.7c-1.2-2.5-3.6-3.7-5.3-4.6c-0.3-0.2-0.7-0.3-1-0.5
				c-0.8-0.4-1.7-0.8-2.5-1.1c-0.9-0.3-2.6-1.1-3-1.5c0-0.3,0.2-0.8,0.3-1.3c0.1-0.2,0.1-0.4,0.2-0.6c0.2-0.9,0.4-1.8,0.6-2.8
				c0.8-6.1-4.5-7.7-6.8-8.3c-0.4-0.1-0.9-0.3-1.3-0.4c-0.5-0.2-1.1-0.3-1.9-0.3c-0.4,0-0.9,0.1-1.3,0.2c-1.8,0.5-2.6,2-3,2.5
				c-0.3,0.4-0.5,1-0.8,1.6c-0.1,0.2-0.3,0.6-0.4,0.9c0,0,0,0,0,0c-0.4-0.3-0.9-0.6-1.3-0.9c-2.4-1.6-5.2-3.5-8.5-4.2
				C170.8,188.8,169.9,188.7,169.1,188.7L169.1,188.7z"/>
		</g>
		<g>
			<path style="fill:#FFFFFF;" d="M196.8,163c-0.4-0.3-0.9-0.5-1.4-0.7c-0.8-0.4-1.6-0.8-2.5-0.7c-1.2,0.1-2.1,1.1-2.7,2.1
				c-0.5,1-0.9,2.1-0.7,3.2c0.2,1.5,1.5,2.5,2.3,3.6c0.8,1,2,1.7,3.1,2.4c2.5,1.5,5.1,2.9,7.6,4.4c0.2,0.9-0.6,1.7-1.5,1.9
				c-0.9,0.1-1.8-0.2-2.6-0.6c-2.2-1-4.5-1.7-6.7-2.7c-2.2-0.9-4.7-1.6-6.9-0.5c-2.1,1-3.4,3.2-3.9,5.5c-0.2,1-0.2,2.1,0.1,3.1
				c0.8,3,3.6,4.9,6.3,6.5c4,2.4,7.9,4.7,11.9,7.1c0.9,0.5,1.8,1.1,2.9,1.2c2.5,0.3,4.9-2.1,4.8-4.7c-0.1-4.2-4.6-5.3-7.6-6.9
				c-1.4-0.8-2.8-1.5-4.2-2.3c-0.6-0.4-1.4-1.2-0.9-1.7c5.2,1.1,12,7.4,17.2,2.6c0.7-0.6,1.3-1.4,1.8-2.3c0.6-1,1.2-2.1,1.5-3.2
				c0.4-1.8,0-3.7-0.8-5.3c-2.3-4.6-7.6-6.1-11.9-8.6C200.2,165.2,198.6,164,196.8,163z"/>
			<path style="fill:#38008C;" d="M193.2,161.6c0.8,0,1.5,0.3,2.2,0.7c0.5,0.2,0.9,0.5,1.4,0.7c1.8,1,3.4,2.3,5.2,3.3
				c4.2,2.5,9.5,3.9,11.9,8.6c0.8,1.6,1.2,3.5,0.8,5.3c-0.3,1.2-0.8,2.2-1.5,3.2c-0.5,0.8-1.1,1.6-1.8,2.3c-1.4,1.3-3,1.8-4.6,1.8
				c-4.3,0-8.9-3.5-12.7-4.4c-0.5,0.5,0.2,1.3,0.9,1.7c1.4,0.8,2.8,1.5,4.2,2.3c3,1.6,7.5,2.7,7.6,6.9c0.1,2.4-2,4.7-4.4,4.7
				c-0.2,0-0.3,0-0.5,0c-1-0.1-2-0.7-2.9-1.2c-4-2.4-7.9-4.7-11.9-7.1c-2.7-1.6-5.5-3.5-6.3-6.5c-0.3-1-0.2-2.1-0.1-3.1
				c0.4-2.3,1.8-4.4,3.9-5.5c0.8-0.4,1.7-0.6,2.5-0.6c1.5,0,3,0.5,4.4,1.1c2.2,1,4.5,1.7,6.7,2.7c0.7,0.3,1.5,0.6,2.2,0.6
				c0.1,0,0.2,0,0.4,0c0.9-0.1,1.7-1,1.5-1.9c-2.5-1.5-5.1-2.9-7.6-4.4c-1.1-0.7-2.3-1.3-3.1-2.4c-0.9-1.1-2.1-2.1-2.3-3.6
				c-0.1-1.1,0.2-2.2,0.7-3.2c0.6-1,1.5-2,2.7-2.1C193,161.6,193.1,161.6,193.2,161.6 M193.2,158.1c-0.2,0-0.4,0-0.6,0
				c-2.2,0.2-4.1,1.6-5.4,3.9c-1,1.7-1.4,3.6-1.1,5.3c0.2,1.7,1.1,3,1.9,4c-0.2,0-0.4,0-0.6,0c-1.5,0-2.8,0.3-4.1,0.9
				c-2.9,1.5-5.1,4.4-5.7,7.9c-0.3,1.6-0.3,3.1,0.1,4.6c1.2,4.6,5.4,7.1,7.9,8.6l7.6,4.5l4.3,2.6c1,0.6,2.4,1.5,4.2,1.7
				c0.3,0,0.6,0.1,0.9,0.1c2,0,4-0.9,5.5-2.4c1.6-1.6,2.4-3.8,2.4-5.9c0-1.2-0.3-2.3-0.7-3.2c1.5-0.4,3-1.2,4.2-2.4
				c1.1-1,1.8-2.1,2.4-3c0.7-1.1,1.5-2.6,1.9-4.3c0.5-2.4,0.2-5.1-1.1-7.6c-2.3-4.5-6.4-6.6-10.1-8.4c-1.1-0.5-2.1-1.1-3.1-1.6
				c-0.8-0.5-1.6-1-2.4-1.5c-0.9-0.6-1.8-1.2-2.9-1.8c-0.5-0.3-1.1-0.6-1.6-0.9C196,158.6,194.7,158.1,193.2,158.1L193.2,158.1z"/>
		</g>
		<g>
			<path style="fill:#FFFFFF;" d="M232.6,184.7c-1.4-0.7-2.9-1.4-4.4-1.3c-2.1,0.2-3.8,1.8-5.1,3.6c-2.7,3.6-4.5,7.8-5.3,12.3
				c-0.2,1.4-0.4,2.8,0.1,4.1c0.4,1.3,1.4,2.3,2.3,3.2c2.6,2.5,5.5,4.7,8.7,6.3c2.1,1.1,4.9,1.9,6.6,0.3c1.4-1.3,1.3-3.6,0.4-5.2
				c-0.9-1.6-2.5-2.8-4.1-3.8c-1.4-1-2.8-1.9-4.1-2.9c-0.3-0.2-0.5-0.4-0.6-0.7s0.1-0.7,0.4-0.7c0.1,0,0.2,0.1,0.3,0.1
				c1.9,1.1,3.7,2.3,5.6,3.4c1.4,0.9,2.9,1.8,4.6,1.8s3.5-1.1,3.6-2.7c0.1-1.4-1-2.5-2-3.4c-2.3-2-4.9-3.6-7.7-4.8
				c-0.5-0.2-1-0.4-1.2-0.9c-0.2-0.4,0-1.2,0.5-1.1c2,0.6,3.7,2.1,5.5,3.2c1.8,1.1,4.1,1.9,6.1,1.2
				C251.7,193.4,234.7,185.7,232.6,184.7z"/>
			<path style="fill:#38008C;" d="M228.5,183.4c1.4,0,2.8,0.7,4.1,1.3c2.1,1.1,19.1,8.7,10.1,12c-0.5,0.2-1.1,0.3-1.6,0.3
				c-1.5,0-3.1-0.7-4.4-1.5c-1.8-1.1-3.5-2.5-5.5-3.2c0,0,0,0,0,0c-0.5,0-0.7,0.7-0.5,1.1c0.2,0.4,0.8,0.7,1.2,0.9
				c2.8,1.2,5.4,2.8,7.7,4.8c1,0.9,2.1,2.1,2,3.4c-0.1,1.6-1.9,2.7-3.5,2.7c0,0-0.1,0-0.1,0c-1.7-0.1-3.2-1-4.6-1.8
				c-1.9-1.1-3.7-2.3-5.6-3.4c-0.1-0.1-0.2-0.1-0.3-0.1c0,0,0,0,0,0c-0.3,0-0.5,0.4-0.4,0.7c0.1,0.3,0.4,0.5,0.6,0.7
				c1.4,1,2.8,1.9,4.1,2.9c1.5,1.1,3.1,2.2,4.1,3.8c0.9,1.6,1,3.9-0.4,5.2c-0.7,0.6-1.6,0.9-2.5,0.9c-1.4,0-2.8-0.5-4.1-1.2
				c-3.2-1.7-6.1-3.8-8.7-6.3c-0.9-0.9-1.9-2-2.3-3.2c-0.5-1.3-0.3-2.8-0.1-4.1c0.8-4.4,2.6-8.7,5.3-12.3c1.3-1.7,3-3.4,5.1-3.6
				C228.3,183.4,228.4,183.4,228.5,183.4 M228.5,179.9c-0.2,0-0.4,0-0.6,0c-2.8,0.2-5.3,1.8-7.6,4.9c-3,4-5.1,8.8-5.9,13.7
				c-0.3,1.6-0.5,3.7,0.2,5.9c0.7,2,2,3.4,3.2,4.6c2.8,2.8,6,5.1,9.5,6.9c2,1,3.9,1.6,5.7,1.6c1.9,0,3.6-0.6,4.8-1.8
				c1.9-1.7,2.6-4.5,2-7.2c3.1-0.7,5.1-3.3,5.2-5.8c0.1-1.1-0.2-2.1-0.6-3c3.5-1.4,4.3-3.7,4.4-5.3c0.2-4.7-5.4-8.4-14-12.6
				c-0.3-0.1-0.5-0.2-0.6-0.3C232.5,180.7,230.7,179.9,228.5,179.9L228.5,179.9z"/>
		</g>
		<g>
			<path style="fill:#FFFFFF;" d="M218.3,215.2c-1.4,0.4-2.4,1.7-3.2,2.9c-1.5,2.2-2.8,4.5-4,6.8c-0.4,0.9-0.9,1.8-0.9,2.8
				c-0.1,2.3,1.9,4.1,3.8,5.5c4.7,3.4,9.8,6.4,15,8.9c2.3,1.1,4.8,2.1,7.3,1.7c2.5-0.4,4.9-2.8,4.3-5.2c-0.3-1.6-1.7-2.7-3-3.7
				c-2.7-2-5.5-3.8-8.4-5.4c-2.7-1.5-6.2-2.2-6-5.8c0.1-1.7,1.1-3.6,0.5-5.3C223.1,216.4,220.4,214.7,218.3,215.2z"/>
			<path style="fill:#38008C;" d="M219.2,215.1c1.9,0,4,1.5,4.6,3.3c0.6,1.7-0.4,3.6-0.5,5.3c-0.2,3.7,3.3,4.3,6,5.8
				c2.9,1.6,5.7,3.4,8.4,5.4c1.3,1,2.6,2.1,3,3.7c0.6,2.5-1.8,4.9-4.3,5.2c-0.4,0.1-0.7,0.1-1.1,0.1c-2.1,0-4.2-0.9-6.2-1.8
				c-5.3-2.5-10.3-5.5-15-8.9c-1.9-1.4-3.9-3.2-3.8-5.5c0-1,0.5-1.9,0.9-2.8c1.2-2.3,2.5-4.6,4-6.8c0.8-1.2,1.8-2.5,3.2-2.9
				C218.6,215.2,218.9,215.1,219.2,215.1 M219.2,211.7c-0.6,0-1.2,0.1-1.7,0.2c-2.9,0.8-4.5,3.2-5.2,4.4c-1.5,2.3-2.9,4.7-4.2,7.2
				c-0.6,1.2-1.2,2.5-1.3,4.2c-0.2,4.5,3.8,7.4,5.3,8.5c4.9,3.5,10.1,6.6,15.6,9.2c2.3,1.1,4.9,2.1,7.7,2.1c0.6,0,1.1,0,1.7-0.1
				c2.4-0.4,4.7-1.8,6-3.8c1.2-1.7,1.6-3.7,1.2-5.6c-0.7-3-3.1-4.8-4.3-5.7c-2.8-2.1-5.7-3.9-8.7-5.6c-0.7-0.4-1.3-0.7-1.9-0.9
				c-2.3-1.1-2.3-1.3-2.3-1.7c0-0.3,0.1-0.8,0.2-1.3c0.3-1.4,0.7-3.2,0.1-5.2C226,214.1,222.5,211.7,219.2,211.7L219.2,211.7z"/>
		</g>
	</g>
</g>
</svg>
