<?xml version="1.0" encoding="utf-8"?>
<!-- Generator: Adobe Illustrator 24.1.1, SVG Export Plug-In . SVG Version: 6.00 Build 0)  -->
<svg version="1.1" id="Layer_1" xmlns="http://www.w3.org/2000/svg" xmlns:xlink="http://www.w3.org/1999/xlink" x="0px" y="0px"
	 viewBox="0 0 180 240" style="enable-background:new 0 0 180 240;" xml:space="preserve">
<g>
	<path style="fill:#FFFFFF;" d="M84.11,40.98c-0.29,1.58-2.87,2.98-4.8,3.11h-0.26c-2.03,0-1.98-1.61-3.98-3.19
		c-0.66-0.53-1.26-0.76-1.82-0.76c-1.98,0-3.56,2.87-6.09,6.03c-1.5,1.87-3.69,2.85-5.9,2.85c-1.66,0-3.35-0.55-4.74-1.69
		c-3.24-2.64-3.79-7.41-1.21-10.67c4.56-5.8,8.67-10.25,15.28-10.25c0.66,0,1.32,0.05,2,0.13c2.53,0.32,4.9,1.26,6.77,3.06
		C82.56,32.68,84.96,36.42,84.11,40.98z"/>
	<path style="fill:#683100;" d="M70.2,42.25c-0.92,1.08-1.87,2.48-3.03,3.93c-1.5,1.87-3.69,2.85-5.9,2.85
		c-1.66,0-3.35-0.55-4.74-1.69c-3.24-2.64-3.79-7.41-1.21-10.67c1.61-2.08,3.19-3.95,4.85-5.56h0.03c0.16,0,0.29,0,0.45,0.03
		c0.03,0,0.05,0,0.05,0c0.4,0.05,0.74,0.13,1,0.21c0.11,0.05,0.21,0.11,0.29,0.13c0.18,0.11,0.34,0.18,0.5,0.32
		c0.08,0.05,0.13,0.11,0.21,0.16c0.03,0,0.03,0.03,0.03,0.03c0.76,0.63,1.27,1.53,1.11,2.53c-0.13,0.74-0.53,1.34-1.05,1.79
		c0.61-0.4,1.34-0.58,2.11-0.45c1.63,0.29,2.77,1.87,2.48,3.53c-0.13,0.82-0.61,1.5-1.21,1.95c0.4-0.18,0.82-0.29,1.26-0.29h0.05
		c0.11,0,0.26,0,0.37,0.03c0.76,0,1.34,0.32,1.77,0.63c0.11,0.05,0.18,0.13,0.24,0.18C70.02,42.04,70.15,42.17,70.2,42.25z"/>
	<path d="M81.56,27.33c-2.27-2.19-5.14-3.5-8.56-3.93c-0.82-0.11-1.61-0.16-2.4-0.16c-8.09,0-13.02,5.43-17.76,11.44
		c-3.66,4.64-2.87,11.41,1.71,15.1c1.9,1.55,4.27,2.4,6.72,2.4c3.27,0,6.32-1.48,8.35-4.03c0.61-0.74,1.16-1.48,1.66-2.16
		c0.63-0.84,1.45-1.92,2-2.48c0.37,0.34,0.63,0.66,0.92,1.05c0.76,1,2.03,2.69,4.85,2.69c0.13,0,0.29,0,0.45-0.03
		c2.74-0.16,7.06-2.08,7.72-5.69C88.15,36.61,86.22,31.81,81.56,27.33z M84.11,40.98c-0.29,1.58-2.87,2.98-4.8,3.11h-0.26
		c-2.03,0-1.98-1.61-3.98-3.19c-0.66-0.53-1.26-0.76-1.82-0.76c-1.08,0-2.03,0.84-3.06,2.11c-0.92,1.08-1.87,2.48-3.03,3.93
		c-1.5,1.87-3.69,2.85-5.9,2.85c-1.66,0-3.35-0.55-4.74-1.69c-3.24-2.64-3.79-7.41-1.21-10.67c1.61-2.08,3.19-3.95,4.85-5.56h0.03
		c2.95-2.87,6.17-4.69,10.41-4.69c0.66,0,1.32,0.05,2,0.13c2.53,0.32,4.9,1.26,6.77,3.06C82.56,32.68,84.96,36.42,84.11,40.98z"/>
</g>
<g>
	<path style="fill:#FFFFFF;" d="M125.17,28c-4.16-3.06-7.27-5.53-11.33-5.53c-1.26,0-2.61,0.24-4.14,0.76
		c-2.06,0.76-3.87,1.95-5.06,3.72c-2.08,3.03-3.27,8.54-1.66,11.94c0.24,0.47,0.58,0.61,1.03,0.61c0.69,0,1.58-0.37,2.58-0.53
		c1.95-0.34,1.4-2.13,2.82-3.82c0.58-0.71,1.19-1,1.82-1c1.55,0,3.37,1.79,5.88,3.58c1.19,0.87,2.58,1.26,3.98,1.26
		c1.95,0,3.9-0.82,5.19-2.4C128.49,33.91,127.99,30.06,125.17,28z"/>
	<path d="M130.76,31.67c-0.32-2.48-1.63-4.72-3.72-6.22l-0.32-0.24l-0.5-0.37c-4.03-2.98-7.54-5.53-12.39-5.53
		c-1.66,0-3.37,0.32-5.19,0.95c-2.87,1.03-5.11,2.69-6.61,4.9c-2.64,3.85-4.06,10.54-1.9,15.07c0.71,1.53,2.16,2.42,3.87,2.42
		c0.79,0,1.55-0.18,2.21-0.37c0.29-0.08,0.58-0.16,0.92-0.21c2.98-0.5,3.79-2.79,4.19-3.87c0.11-0.26,0.18-0.45,0.26-0.63
		c0.53,0.34,1.26,0.92,1.84,1.37c0.16,0.11,0.32,0.24,0.47,0.34c0.42,0.34,0.9,0.69,1.37,1.03c1.66,1.21,3.69,1.84,5.8,1.84
		c3,0,5.8-1.29,7.64-3.56C130.36,36.62,131.07,34.17,130.76,31.67z M126.28,36.6c-1.29,1.58-3.24,2.4-5.19,2.4
		c-1.4,0-2.79-0.4-3.98-1.26c-1.21-0.87-2.27-1.74-3.19-2.4c-1-0.71-1.87-1.19-2.69-1.19c-0.63,0-1.24,0.29-1.82,1
		c-1.42,1.69-0.87,3.48-2.82,3.82c-1,0.16-1.9,0.53-2.58,0.53c-0.45,0-0.79-0.13-1.03-0.61c-1.61-3.4-0.42-8.91,1.66-11.94
		c1.19-1.77,3-2.95,5.06-3.72c1.53-0.53,2.87-0.76,4.14-0.76c2.35,0,4.37,0.82,6.46,2.11c1.53,0.92,3.11,2.13,4.88,3.43
		C127.99,30.06,128.49,33.91,126.28,36.6z"/>
	<path style="fill:#683100;" d="M126.28,36.6c-1.29,1.58-3.24,2.4-5.19,2.4c-1.4,0-2.79-0.4-3.98-1.26
		c-1.21-0.87-2.27-1.74-3.19-2.4c0.05-0.74,0.84-1.13,1.61-1.45c0.47-0.21,1-0.21,1.48-0.13c-0.61-0.24-1.13-0.69-1.4-1.29
		c-0.58-1.26,0.05-2.69,1.37-3.24c0.61-0.26,1.26-0.24,1.87-0.05c-0.55-0.26-1.05-0.63-1.27-1.21c-0.11-0.26-0.13-0.53-0.13-0.76
		c0-0.53,0.21-1,0.58-1.45c0,0,0.58-0.84,2.27-1.16c1.53,0.92,3.11,2.13,4.88,3.43C127.99,30.06,128.49,33.91,126.28,36.6z"/>
</g>
<g>
	<path style="fill-rule:evenodd;clip-rule:evenodd;fill:#0088C5;" d="M95.92,200.9c-0.71,0.76-0.55,1.95,0.34,2.5
		c1.29,0.84,3,2.48,4.43,5.72c0,0.03,0.08,0.24,0.08,0.24c1.77,4.24,1.5,9.14-0.69,13.18c-1.19,2.19-4.24,4.9-6.9,4.61
		c-3.93-0.45-5.93-4.22-7.91-7.09l-6.69-9.67l-2.13-3.11c-1.26-1.84-0.82-4.37,1.03-5.64l6.85-4.74c3-2.95,7.7-7.72,10.09-11.31
		l-0.53,0.9l8.8,5.96C100.79,195.34,98.5,198.16,95.92,200.9z"/>
	<path style="fill-rule:evenodd;clip-rule:evenodd;fill:#0088C5;" d="M104.83,189.12l-1,1.61c0.34-0.53,0.66-1.08,0.98-1.63
		L104.83,189.12z"/>
	<path style="fill:#FFFFFF;" d="M104.8,189.1c-0.32,0.55-0.63,1.11-0.98,1.63c-0.34,0.58-0.71,1.16-1.13,1.71l-8.8-5.96l0.53-0.9
		l0.45-0.71c5.11-8.35,6.8-17.02,5.06-25.75c-0.4-1.98,0.21-3.82,1.69-5.11c1.53-1.37,3.72-1.82,5.56-1.21
		c1.71,0.58,2.9,1.98,3.27,3.85C112.7,167.83,110.78,178.74,104.8,189.1z"/>
	<path style="fill:#FFFFFF;" d="M103.82,190.73l-1.08,1.77l-0.05-0.05C103.11,191.89,103.48,191.31,103.82,190.73z"/>
	<path d="M105.47,152.55c0.58,0,1.16,0.09,1.71,0.27c1.7,0.57,2.89,1.98,3.26,3.85c2.24,11.14,0.3,22.03-5.68,32.41l0.07,0.04
		l-1,1.61c0,0,0,0,0,0l-1.08,1.74l-0.06-0.04c-1.96,2.91-4.25,5.77-6.87,8.55c-0.67,0.71-0.52,1.83,0.31,2.34
		c1.33,0.81,3.09,2.46,4.55,5.79c0.02,0.04,0.09,0.23,0.09,0.23c1.75,4.24,1.49,9.16-0.7,13.19c-1.12,2.07-3.93,4.61-6.5,4.61
		c-0.14,0-0.28-0.01-0.42-0.02c-3.92-0.44-5.91-4.2-7.9-7.07l-6.69-9.68l-2.18-3.16c-1.25-1.82-0.8-4.31,1.02-5.56l6.89-4.76
		c0.01-0.01,0.03-0.02,0.04-0.03c3.2-3.14,8.3-8.37,10.52-12l0,0c5.1-8.35,6.8-17.01,5.04-25.74c-0.39-1.96,0.22-3.83,1.69-5.12
		C102.68,153.06,104.09,152.55,105.47,152.55 M105.47,149.38c-2.2,0-4.32,0.8-5.97,2.26c-2.3,2.03-3.31,5.06-2.69,8.11
		c1.59,7.93,0.03,15.82-4.64,23.47c-1.53,2.5-5.02,6.48-9.86,11.22l-6.69,4.62c-1.57,1.09-2.63,2.72-2.97,4.6
		c-0.34,1.88,0.06,3.78,1.15,5.36l2.18,3.16l6.69,9.68c0.23,0.34,0.46,0.68,0.7,1.04c1.92,2.88,4.55,6.82,9.45,7.38
		c0.26,0.03,0.52,0.04,0.78,0.04c3.82,0,7.63-3.23,9.28-6.27c2.63-4.86,2.94-10.8,0.84-15.9l-0.08-0.21c-1.31-3-2.87-4.92-4.25-6.13
		c2.05-2.29,3.93-4.66,5.59-7.08c0.18-0.17,0.34-0.37,0.48-0.59l1.08-1.74c0-0.01,0.01-0.01,0.01-0.02l0.99-1.6
		c0.15-0.24,0.27-0.5,0.34-0.76c6.11-10.91,8.02-22.34,5.68-33.98c-0.6-2.97-2.6-5.29-5.36-6.22
		C107.32,149.53,106.41,149.38,105.47,149.38L105.47,149.38z"/>
</g>
<g>
	<path style="fill:#FFFFFF;" d="M90.46,165.09v28.38H79.42v-28.38c0-2.11,5.14-3.79,7.22-3.79
		C88.75,161.29,90.46,162.98,90.46,165.09z"/>
	<path style="fill-rule:evenodd;clip-rule:evenodd;fill:#009FF9;" d="M111.68,227.1c-2.79,3.19-7.35,2.66-11.09,2.66H85.14
		c-2.21,0-5.72-1.79-5.72-3.98v-32.31h11.04v17.71c0,0,2.61-3.22,9.83-1.79c0.05,0,0.29,0.05,0.29,0.05
		c4.82,1.05,9.01,4.3,11.25,8.7C113.05,220.54,113.6,224.91,111.68,227.1z"/>
	<path d="M86.65,161.29c2.1,0,3.81,1.7,3.81,3.8v28.39v17.7c0,0,1.75-2.16,6.38-2.16c1.01,0,2.17,0.1,3.47,0.36
		c0.04,0.01,0.27,0.06,0.27,0.06c4.83,1.05,9.04,4.29,11.28,8.7c1.21,2.39,1.74,6.76-0.16,8.95c-2.1,2.41-5.2,2.71-8.21,2.71
		c-0.99,0-1.97-0.03-2.9-0.03H87.88h-2.75c-2.21,0-5.7-1.79-5.7-3.99v-32.3h0v-28.39C79.43,162.99,84.55,161.29,86.65,161.29
		 M86.65,158.12c-2.2,0-10.38,1.74-10.38,6.97v28.39l0,32.3c0,4.37,5.25,7.16,8.86,7.16h2.75h12.69c0.44,0,0.89,0.01,1.35,0.02
		c0.51,0.01,1.03,0.02,1.55,0.02c3.6,0,7.68-0.45,10.6-3.79c3.02-3.47,2.17-9.37,0.6-12.46c-2.66-5.24-7.68-9.11-13.43-10.36
		l-0.22-0.05c-1.53-0.3-2.9-0.44-4.18-0.44c-1.21,0-2.28,0.12-3.22,0.32v-12.7v-28.39C93.62,161.25,90.49,158.12,86.65,158.12
		L86.65,158.12z"/>
</g>
<g>
	<path style="fill:#FFFFFF;" d="M138.67,135.49c-1.31-5.68-1.21-11.33-1.19-17.37c0.01-2.67,0.21-12.38-5.16-10.18
		c-1.95,0.8-2.77,3.81-3.43,5.59c-1.44,3.86-2.28,7.89-2.55,11.92c-0.3,4.52,0.11,9.02,1.06,13.4
		C130.22,137.46,134.16,136.01,138.67,135.49z"/>
	<path style="fill:#0088C5;" d="M148.35,153.39c-0.05-0.05-0.1-0.11-0.15-0.16c-1.33-1.42-2.47-2.81-3.49-4.24
		c-1.46-2.04-2.66-4.14-3.69-6.46c-0.51-1.15-0.97-2.35-1.4-3.62c-0.39-1.14-0.68-2.27-0.95-3.41c-4.51,0.52-8.45,1.97-11.27,3.36
		c0.46,2.12,1.03,4.21,1.73,6.25c1.99,5.83,4.69,12.39,9.01,16.98c2.11,2.23,5.4,3.37,8.59,2.5c0.66-0.18,1.29-0.42,1.83-0.7
		c1.95-1,3.52-2.79,3.47-4.93c-0.01-0.42-0.1-0.81-0.22-1.19C151.23,156.01,149.59,154.74,148.35,153.39z"/>
	<path d="M133.78,107.62c3.88,0,3.71,8.1,3.71,10.5c-0.02,6.04-0.12,11.68,1.19,17.37c0.26,1.13,0.56,2.27,0.95,3.41
		c0.43,1.28,0.9,2.48,1.4,3.62c1.03,2.32,2.22,4.42,3.69,6.46c1.02,1.43,2.17,2.82,3.49,4.24c0.05,0.05,0.1,0.11,0.15,0.16
		c1.25,1.35,2.88,2.63,3.46,4.38c0.12,0.38,0.21,0.76,0.22,1.19c0.05,2.14-1.52,3.93-3.47,4.93c-0.53,0.27-1.16,0.51-1.83,0.7
		c-0.73,0.2-1.47,0.29-2.19,0.29c-2.44,0-4.77-1.07-6.4-2.79c-4.32-4.59-7.02-11.14-9.01-16.98c-0.7-2.05-1.27-4.14-1.73-6.25
		c-0.95-4.38-1.36-8.87-1.06-13.4c0.27-4.04,1.11-8.06,2.55-11.92c0.66-1.77,1.48-4.79,3.43-5.59
		C132.86,107.72,133.35,107.62,133.78,107.62 M133.78,104.46c-0.86,0-1.75,0.19-2.65,0.56c-3.01,1.23-4.18,4.54-4.95,6.74
		l-0.24,0.68c-1.53,4.1-2.45,8.41-2.74,12.81c-0.31,4.61,0.07,9.42,1.12,14.28c0.49,2.26,1.11,4.49,1.83,6.61
		c1.95,5.71,4.82,12.94,9.7,18.12c2.27,2.41,5.44,3.79,8.7,3.79c1.02,0,2.04-0.14,3.02-0.41c0.86-0.23,1.7-0.56,2.43-0.93
		c3.27-1.68,5.26-4.67,5.19-7.81c-0.02-0.69-0.14-1.37-0.38-2.11c-0.68-2.06-2.14-3.52-3.32-4.69c-0.28-0.28-0.56-0.56-0.82-0.84
		l-0.17-0.18c-1.2-1.28-2.26-2.56-3.23-3.92c-1.33-1.85-2.43-3.78-3.36-5.89c-0.47-1.05-0.89-2.15-1.3-3.37
		c-0.3-0.9-0.58-1.88-0.86-3.1c-1.16-5.01-1.13-10.18-1.11-15.65l0-0.99l0-0.23c0.02-4.37-0.3-9.19-2.86-11.76
		C136.69,105.04,135.31,104.46,133.78,104.46L133.78,104.46z"/>
</g>
<g>
	<path d="M99.71,37.31c9.89,0,20.15,4.03,28.33,9.56c6.98,4.72,11.73,13.25,14.2,21.18c0.15,0.48,0.26,0.95,0.39,1.43
		c0.28,0.81,0.54,1.62,0.78,2.43c2.81,9.65,1.13,18.04-1.55,27.61c-0.58,2.08-4.76,12.23-4.82,12.72
		c-1.2,5.57,1.69,12.39,2.48,17.88c1.48,10.22,1.77,20.77-2.5,30.42c-5.82,13.15-19.36,17.82-32.81,18.73
		c-1.32,0.09-2.65,0.13-3.98,0.13c-0.29,0-0.58,0-0.87-0.01c-0.06,0-0.13,0-0.19-0.01l-3.29-0.05c-1.62-0.02-3.3-0.11-4.91-0.27
		c-11.06-1.06-23.24-5.36-30.15-14.55c-5-6.65-6.9-17.66-6.35-25.87c0.43-6.4,2.39-12.59,3.6-18.86c0.47-2.46,1.39-4.86,1.2-7.35
		c-0.04-0.52-0.12-1.04-0.19-1.56c-0.4-1.13-3.41-9.6-4.17-12.84c-2.24-7.38-2.84-15.11-1.71-22.93
		c1.19-8.23,4.53-17.39,10.69-23.15c7.91-7.41,18.55-13.41,29.3-14.24c0,0,0.08-0.01,0.2-0.02l3.45-0.27
		C97.8,37.35,98.76,37.31,99.71,37.31 M99.71,34.15c-1.05,0-2.09,0.04-3.11,0.13l-3.44,0.27l-0.26,0.02
		c-10.4,0.8-21.78,6.3-31.15,15.08c-5.91,5.54-10.16,14.65-11.65,25.01c-1.19,8.2-0.59,16.35,1.78,24.2
		c0.65,2.71,2.6,8.42,4.14,12.78c0.05,0.37,0.1,0.7,0.12,1.04c0.1,1.27-0.26,2.71-0.63,4.23c-0.19,0.76-0.37,1.52-0.52,2.29
		c-0.39,2.01-0.87,4.07-1.33,6.07c-0.99,4.24-2.01,8.63-2.32,13.18c-0.57,8.55,1.36,20.51,6.98,27.98
		c6.53,8.69,18.34,14.45,32.38,15.8c1.65,0.16,3.43,0.26,5.17,0.28l3.29,0.05l0.18,0.01l0.92,0.01c1.4,0,2.81-0.05,4.19-0.14
		c17.78-1.19,30.05-8.32,35.49-20.6c4.94-11.16,4.05-23.05,2.73-32.15c-0.28-1.9-0.77-3.92-1.26-5.86c-0.94-3.8-1.91-7.73-1.29-10.8
		c0.18-0.52,0.91-2.38,1.57-4.04c1.67-4.23,2.88-7.33,3.23-8.59c2.61-9.31,4.68-18.56,1.54-29.35c-0.24-0.82-0.51-1.65-0.79-2.47
		l-0.12-0.45c-0.09-0.33-0.17-0.66-0.28-0.99c-3.11-9.99-8.74-18.33-15.45-22.86C120.18,37.74,109.49,34.15,99.71,34.15L99.71,34.15
		z"/>
	<path style="fill:#009FF9;" d="M141.86,99.53c2.68-9.57,4.36-17.97,1.55-27.61c-0.23-0.8-0.5-1.62-0.78-2.43
		c-0.14-0.48-0.24-0.95-0.39-1.43c-2.47-7.93-7.22-16.46-14.2-21.18c-8.97-6.07-20.43-10.32-31.18-9.44l-3.45,0.27
		c-0.12,0.01-0.2,0.02-0.2,0.02c-10.75,0.83-21.4,6.83-29.3,14.24c-6.15,5.76-9.5,14.93-10.69,23.15
		c-1.13,7.82-0.53,15.55,1.71,22.93c0.76,3.24,3.77,11.71,4.17,12.84c0.08,0.52,0.15,1.04,0.19,1.56c0.19,2.5-0.73,4.9-1.2,7.35
		c-1.2,6.27-3.17,12.46-3.6,18.86c-0.55,8.2,1.35,19.22,6.35,25.87c6.91,9.19,19.09,13.49,30.15,14.55
		c1.61,0.15,3.29,0.24,4.91,0.27l3.29,0.05c0.06,0,0.13,0,0.19,0.01c1.62,0.02,3.24-0.02,4.85-0.13
		c13.45-0.9,26.99-5.58,32.81-18.73c4.27-9.65,3.98-20.2,2.5-30.42c-0.8-5.49-3.69-12.31-2.48-17.88
		C137.11,111.75,141.28,101.6,141.86,99.53z"/>
</g>
<path style="fill:#009FF8;" d="M96.86,37.43c0,0-0.08,0-0.2,0.01L96.86,37.43z"/>
<g>
	<path style="fill:#FFFFFF;" d="M47.78,109.11c5.33,1.77,10.73,2.14,16.51,2.61c2.55,0.21,11.85,0.81,9.33,5.98
		c-0.91,1.87-3.87,2.44-5.61,2.96c-3.81,1.11-7.72,1.62-11.6,1.56c-4.35-0.07-8.62-0.85-12.72-2.16
		C45.24,117.37,46.93,113.56,47.78,109.11z"/>
	<path style="fill:#0088C5;" d="M31.44,97.99c0.05,0.05,0.1,0.11,0.14,0.16c1.25,1.44,2.5,2.69,3.78,3.83
		c1.83,1.63,3.74,2.99,5.89,4.2c1.06,0.6,2.17,1.16,3.35,1.7c1.06,0.48,2.12,0.87,3.18,1.22c-0.85,4.45-2.55,8.26-4.1,10.95
		c-1.99-0.63-3.94-1.38-5.84-2.24c-5.42-2.46-11.47-5.69-15.52-10.38c-1.97-2.28-2.8-5.66-1.71-8.77c0.23-0.65,0.51-1.25,0.81-1.76
		c1.11-1.86,2.95-3.27,4.99-3.05c0.41,0.04,0.77,0.17,1.12,0.32C29.16,94.9,30.25,96.64,31.44,97.99z"/>
	<path d="M25.98,93.84c0.14,0,0.28,0.01,0.42,0.02c0.41,0.05,0.77,0.17,1.12,0.32c1.63,0.72,2.72,2.46,3.91,3.81
		c0.05,0.05,0.1,0.11,0.14,0.16c1.25,1.44,2.5,2.69,3.78,3.83c1.83,1.63,3.74,2.99,5.89,4.2c1.06,0.6,2.17,1.16,3.35,1.7
		c1.06,0.48,2.12,0.87,3.18,1.22c5.33,1.77,10.73,2.14,16.51,2.61c2.55,0.21,11.85,0.81,9.33,5.98c-0.91,1.87-3.87,2.44-5.61,2.96
		c-3.6,1.05-7.29,1.57-10.96,1.57c-0.21,0-0.42,0-0.64-0.01c-4.35-0.07-8.62-0.85-12.72-2.16c-1.99-0.63-3.94-1.37-5.84-2.24
		c-5.42-2.46-11.47-5.69-15.52-10.38c-1.97-2.28-2.8-5.66-1.71-8.77c0.23-0.65,0.51-1.25,0.81-1.76
		C22.45,95.18,24.11,93.84,25.98,93.84 M25.99,90.68C25.99,90.68,25.99,90.68,25.99,90.68c-2.84,0-5.56,1.73-7.28,4.62
		c-0.42,0.7-0.79,1.51-1.08,2.34c-1.41,4.04-0.53,8.59,2.3,11.87c4.58,5.31,11.28,8.77,16.6,11.19c1.98,0.9,4.06,1.7,6.19,2.38
		c4.59,1.46,9.17,2.23,13.63,2.3l0.69,0.01c4.02,0,8.01-0.57,11.85-1.69l0.66-0.19c2.18-0.6,5.48-1.5,6.9-4.42
		c1.34-2.74,0.58-4.82,0.01-5.82c-1.97-3.45-7.02-4.3-11.7-4.68l-0.22-0.02l-0.95-0.08c-5.22-0.43-10.15-0.83-14.82-2.38
		c-1.14-0.38-2.05-0.73-2.88-1.1c-1.12-0.51-2.13-1.02-3.1-1.57c-1.94-1.1-3.69-2.35-5.35-3.82c-1.22-1.08-2.36-2.24-3.49-3.54
		l-0.14-0.16c-0.27-0.31-0.51-0.61-0.76-0.91c-1.03-1.27-2.32-2.86-4.27-3.72c-0.7-0.31-1.37-0.5-2.05-0.57
		C26.49,90.69,26.24,90.68,25.99,90.68L25.99,90.68z"/>
</g>
<g>
	<path style="fill-rule:evenodd;clip-rule:evenodd;fill:#FFFFFF;" d="M148.44,101.66c-5.48,6.8-16.29,11.44-28.88,12.36
		c-31.28,2.32-47.51-6.98-49.65-28.38c-0.29-3.03-1.32-18.68,7.85-29.52c5.48-6.48,13.7-10.15,24.38-10.88
		c36.76-2.45,39.61,24.69,39.71,25.85c0.05,0.66,0.53,1.21,1.16,1.37c0.34,0.11,8.25,2.35,9.67,12.49
		C153.6,91.43,152.18,97.05,148.44,101.66z"/>
	<path d="M155.82,84.53c-1.42-10.09-8.3-13.73-10.96-14.76c-0.82-5.24-6.27-27.83-38.03-27.83c-1.55,0-3.19,0.05-4.9,0.16
		c-11.57,0.76-20.5,4.8-26.59,11.99c-9.75,11.52-9.01,27.28-8.56,31.83c2.11,21.21,16.44,31.6,43.77,31.6
		c2.93,0,6.01-0.11,9.22-0.34c13.68-1,25.04-5.96,31.15-13.52C155.21,98.34,156.85,91.88,155.82,84.53z M69.91,85.63
		c-0.29-3.03-1.32-18.68,7.85-29.52c5.48-6.48,13.7-10.15,24.38-10.88c36.76-2.45,39.61,24.69,39.71,25.85
		c0.05,0.66,0.53,1.21,1.16,1.37c0.34,0.11,8.25,2.35,9.67,12.49c0.92,6.48-0.5,12.1-4.24,16.71c-5.48,6.8-16.29,11.44-28.88,12.36
		C88.28,116.34,72.04,107.03,69.91,85.63z"/>
	<path style="fill-rule:evenodd;clip-rule:evenodd;fill:#FFBEB8;" d="M116.06,88.53c0.16,6.46-4.69,11.81-10.82,11.96
		c-6.13,0.15-11.22-4.97-11.38-11.42c-0.16-6.45,4.69-11.81,10.81-11.95C110.8,76.96,115.9,82.08,116.06,88.53"/>
	<path style="fill-rule:evenodd;clip-rule:evenodd;fill:#FFBEB8;" d="M152.1,83.42c-0.55-2.19-3.15-9.54-6.73-6.9
		c-4.82,3.56-2.59,12.61-0.2,17.11c0.94,1.77,2.64,3.84,5.02,3.4c1.34-0.25,1.84-2.79,2.01-3.66
		C152.87,90.1,152.91,86.66,152.1,83.42z"/>
</g>
<g>
	<path style="fill-rule:evenodd;clip-rule:evenodd;" d="M135.1,82.65c0.02,0.84-0.85,1.54-1.96,1.57s-2.02-0.63-2.04-1.47
		c-0.02-0.84,0.86-1.54,1.97-1.57S135.08,81.81,135.1,82.65"/>
	<path style="fill-rule:evenodd;clip-rule:evenodd;" d="M137.89,80.76L137.89,80.76c-1.15,0.03-2.11-1.08-2.15-2.47l-0.01-0.35
		c-0.03-1.39,0.87-2.55,2.02-2.58c1.15-0.03,2.11,1.08,2.15,2.48l0.01,0.35C139.95,79.58,139.04,80.73,137.89,80.76"/>
	<path style="fill-rule:evenodd;clip-rule:evenodd;" d="M120.03,81.19L120.03,81.19c-1.36,0.03-2.48-1.07-2.51-2.47l-0.01-0.35
		c-0.03-1.39,1.04-2.55,2.39-2.59s2.48,1.07,2.52,2.47l0.01,0.35C122.46,80,121.39,81.16,120.03,81.19"/>
	<path style="fill:#231815;" d="M142.08,85.85c-0.38-0.62-1.2-0.81-1.81-0.44c-0.62,0.38-0.82,1.19-0.44,1.81
		c0.05,0.08,0.15,0.25-0.29,0.79c-0.92,1.1-2.21,1.22-2.82,1.2c-1.25-0.04-2.44-0.64-3.12-1.56c-0.05-0.06-0.11-0.1-0.17-0.15
		c-0.05-0.05-0.09-0.12-0.15-0.16c-0.01-0.01-0.02-0.01-0.03-0.01c-0.1-0.06-0.2-0.1-0.31-0.13c-0.05-0.02-0.1-0.05-0.16-0.06
		c-0.11-0.02-0.22-0.01-0.34,0c-0.06,0-0.11,0-0.16,0.01c-0.09,0.02-0.17,0.06-0.26,0.1c-0.07,0.03-0.15,0.05-0.22,0.1
		c-0.01,0.01-0.03,0.01-0.04,0.02c-0.07,0.05-0.11,0.12-0.17,0.18c-0.05,0.05-0.11,0.08-0.15,0.14c-1.88,2.75-7.06,3.41-10.28,1.29
		c-0.75-0.49-1.18-0.92-1.36-1.16c0.24-0.51,0.13-1.14-0.31-1.54c-0.54-0.49-1.37-0.45-1.86,0.09c-0.42,0.46-0.61,1.06-0.53,1.67
		c0.13,1.02,1.01,2.08,2.61,3.13c1.75,1.15,3.86,1.7,5.93,1.7c2.62,0,5.15-0.92,6.9-2.55c1.12,0.92,2.56,1.47,4.08,1.52
		c0.07,0,0.15,0,0.22,0c1.86,0,3.56-0.78,4.71-2.16C143,87.97,142.51,86.55,142.08,85.85z"/>
</g>
</svg>
