<?xml version="1.0" encoding="utf-8"?>
<!-- Generator: Adobe Illustrator 26.5.0, SVG Export Plug-In . SVG Version: 6.00 Build 0)  -->
<svg version="1.1" id="레이어_5" xmlns="http://www.w3.org/2000/svg" xmlns:xlink="http://www.w3.org/1999/xlink" x="0px"
	 y="0px" viewBox="0 0 247 143" style="enable-background:new 0 0 247 143;" xml:space="preserve">
<g>
	<path style="fill:#262626;" d="M85,33c-0.4-0.8-0.8-1.5-1-2c-0.5-1-0.9-2-1.4-3c-3.1-6.8-6.3-13.8-11.2-19.6
		c-7.1-8.3-15.3-9.2-20.1-6.5c-0.7-0.1-3.4-0.5-7-0.5s-6.2,0.4-7,0.5c-4.8-2.7-13-1.8-20.1,6.5c-4.9,5.8-8.1,12.8-11.2,19.6
		c-0.5,1-0.9,2-1.4,3c-0.3,0.6-0.6,1.2-1,2C2,36.3-0.4,40.7,0.8,43.7c0.5,1.1,1.2,1.5,1.7,1.7c0.7,0.2,1.6,0,2.4-0.4
		c-0.3,1.8-0.6,4,1.9,4.6c1.8,0.5,3.5-0.2,4.7-1.2c0.5,2.2,2.2,3.8,3.9,4.3c1.9,0.5,3.6-0.2,4.7-1.8l0.3,0.2c0,0,0,0,0,0
		c0,0,0.1,0.2,0.1,0.6c-3.5,1.1-8.5,3.9-14.2,10.9c-10.8,13.3,4.1,26,4.3,26.1c0.2,0.2,0.5,0.2,0.7,0c0,0,0.2-0.1,0.4-0.4
		c0.5,0.5,1,0.9,1.2,1.1c0.1,0.8,0.5,3.6,3,4.5c0.5,0.2,1.2,0.4,1.9,0.4c-0.3,2.4-0.5,4.4-0.6,5.7c0,0.1,0,0.2,0.1,0.3
		c0.1,0.1,1.2,2.1,6.2,3.3c-0.5,6-1.3,11.6-1.3,11.7c0,0.2,0.1,0.4,0.3,0.5c0.1,0,0.1,0.1,0.2,0.1c-0.5,2-0.8,4.1,0,6.1
		c1.6,4.4,7.4,4.4,9.6,4.4c0.1,0,0.1,0,0.2,0c4,0,8.3-0.7,10-6c0.2-0.7,0.4-1.8,0.5-3.2c0.1,0,0.2,0,0.2,0c0.2,0,0.4-0.2,0.5-0.4
		c0.6-4.4,0.2-16,0.1-20.1c0.5,0,0.8,0,0.8,0c0,0,0.3,0,0.7,0c-0.2,4.1-0.5,15.7,0.1,20.1c0,0.2,0.2,0.4,0.5,0.4c0,0,0.1,0,0.2,0
		c0.1,1.4,0.3,2.5,0.5,3.2c1.7,5.2,6,6,10,6c0.1,0,0.1,0,0.2,0c2.2,0,8,0,9.6-4.4c0.7-2,0.4-4,0-6.1c0.1,0,0.1-0.1,0.2-0.1
		c0.2-0.1,0.3-0.3,0.3-0.5c0-0.1-0.7-5.7-1.3-11.7c5-1.1,6.1-3.2,6.2-3.3c0-0.1,0.1-0.2,0.1-0.3c-0.1-1.4-0.4-3.4-0.6-5.7
		c0.7-0.1,1.3-0.2,1.9-0.4c2.4-1,2.9-3.7,3-4.5c0.2-0.2,0.7-0.6,1.2-1.1c0.2,0.2,0.4,0.4,0.4,0.4c0.2,0.2,0.5,0.2,0.7,0
		c0.2-0.1,15.1-12.8,4.3-26.1c-4.4-5.4-8.4-8.4-11.6-9.9c0.7,0.2,1.4,0.2,2.1,0c1.7-0.5,3.5-2,3.9-4.3c1.2,1.1,2.9,1.7,4.7,1.2
		c2.5-0.7,2.3-2.9,1.9-4.6c0.9,0.5,1.7,0.6,2.4,0.4c0.5-0.1,1.3-0.5,1.7-1.7C89.1,40.7,86.8,36.3,85,33z M68.2,68
		c0.6,0.5,1.3,1.4,2,2.6c0.8,1.3,0.1,2.4-1.3,3.9c0-0.3-0.1-0.7-0.1-1C68.7,71.6,68.5,69.8,68.2,68z M21.3,67.8
		c-0.1,0.4-0.1,0.7-0.2,1.1c-0.2,1.4-0.5,3.2-0.8,5.6c-1.3-1.4-2.1-2.5-1.3-3.9C19.9,69.2,20.8,68.3,21.3,67.8z M68.5,51.6
		c0.1-0.3,0.1-0.5,0.1-0.6c0,0,0,0,0,0c0.3,0.4,0.7,0.8,1.1,1C69.3,51.9,68.9,51.8,68.5,51.6z"/>
	<path d="M56.7,126.8c-3.9,0-8.7-0.7-10.5-6.3c-0.2-0.7-0.4-1.6-0.5-3c-0.4-0.1-0.7-0.4-0.7-0.8c-0.6-4.2-0.3-14.8-0.1-19.7
		c-0.1,0-0.1,0-0.2,0c0,0-0.1,0-0.3,0c0.2,4.9,0.5,15.4-0.1,19.7c-0.1,0.4-0.3,0.7-0.7,0.8c-0.1,1.3-0.3,2.3-0.5,3
		c-1.9,5.6-6.6,6.3-10.5,6.3l-0.2,0c-2.3,0-8.3,0-10.1-4.8c-0.7-2-0.5-4-0.1-6c-0.3-0.2-0.4-0.6-0.4-1c0.1-0.6,0.7-5.6,1.2-11.2
		c-4.8-1.2-6-3.2-6.1-3.4c-0.1-0.2-0.1-0.4-0.1-0.6c0.1-1.2,0.3-3,0.6-5.2c-0.5-0.1-1-0.2-1.5-0.4c-2.5-1-3.1-3.7-3.3-4.7
		c-0.2-0.2-0.4-0.4-0.7-0.6l-0.1,0c-0.4,0.4-1,0.4-1.3,0.1C10.4,88.9-5,76,6.2,62.2c3.7-4.5,7.1-7.3,9.9-9c-0.2,0-0.4-0.1-0.6-0.1
		c-1.6-0.4-3.4-1.8-4.1-3.9c-1.4,1-3,1.3-4.6,0.8c-2.5-0.7-2.6-2.8-2.5-4.3C3.7,46,3,46,2.4,45.8c-0.6-0.2-1.5-0.6-2.1-1.9
		c-1.3-3.2,1.1-7.8,2.9-11.1c0.4-0.8,0.8-1.5,1-2c0.4-0.9,0.9-1.9,1.3-2.8l0.1-0.2C8.8,20.9,12,13.8,16.9,8
		c7.2-8.4,15.6-9.3,20.6-6.7c0.9-0.1,3.5-0.5,6.9-0.5s5.9,0.3,6.9,0.5C56.2-1.3,64.7-0.4,71.8,8c5,5.8,8.2,12.9,11.3,19.7l0.1,0.2
		c0.4,0.9,0.9,1.9,1.3,2.8c0.2,0.5,0.6,1.2,1,2L85,33l0.4-0.2c1.8,3.4,4.2,7.9,2.9,11.1c-0.5,1.3-1.4,1.8-2.1,1.9
		c-0.6,0.2-1.2,0.1-1.9-0.1c0.2,1.5,0.1,3.6-2.5,4.3c-1.5,0.4-3.2,0.1-4.6-0.8c-0.7,2.1-2.5,3.5-4.1,3.9c-0.1,0-0.2,0-0.2,0.1
		c3.4,2,6.7,5,10,9.1C94.2,76,78.9,88.9,78.7,89c-0.4,0.3-1,0.3-1.3,0c0,0,0,0-0.1-0.1c-0.3,0.3-0.6,0.5-0.7,0.6
		c-0.1,1.1-0.7,3.7-3.3,4.7c-0.5,0.2-1,0.3-1.5,0.4c0.2,2.1,0.4,3.9,0.6,5.2c0,0.2,0,0.4-0.1,0.6c-0.1,0.2-1.3,2.2-6.1,3.4
		c0.5,5.8,1.2,11,1.2,11.2c0,0.4-0.1,0.7-0.4,1c0.4,1.9,0.7,4-0.1,6c-1.7,4.7-7.8,4.8-10.1,4.8L56.7,126.8z M44.7,96
		c0.1,0,0.4,0,0.7,0l0.5,0l0,0.5c-0.2,4.6-0.5,15.7,0.1,20l0.6,0.1l0,0.4c0.1,1.4,0.3,2.5,0.5,3.1c1.6,4.9,5.7,5.6,9.5,5.6l0.2,0
		c2.1,0,7.6,0,9.1-4.1c0.7-1.9,0.4-3.9-0.1-5.8l-0.1-0.4l0.6-0.3c0-0.2-0.7-5.7-1.3-11.7l0-0.4l0.4-0.1c4.8-1.1,5.9-3,5.9-3
		c-0.1-1.4-0.4-3.4-0.6-5.7l-0.1-0.5l0.5,0c0.6-0.1,1.2-0.2,1.7-0.4c2.2-0.8,2.6-3.3,2.6-4.1l0-0.2l0.2-0.1c0.2-0.2,0.7-0.6,1.2-1.1
		l0.3-0.3l0.7,0.7c0.2-0.1,14.7-12.5,4.2-25.4c-3.8-4.6-7.6-7.9-11.5-9.8l-0.7-0.3l-0.6-0.2c-0.4-0.2-0.8-0.3-1.2-0.4L67.9,52
		l0.1-0.2l-1.4-0.7l1.4,0.3c0-0.2,0.1-0.3,0.1-0.4l0-0.1l0.2-1l0.7,0.8c0.3,0.4,0.6,0.7,1,0.9l0.5,0.4l0.6,0.1
		c0.6,0.1,1.2,0.1,1.9,0c1.5-0.4,3.1-1.7,3.6-3.9l0.2-0.9l0.7,0.6c1.2,1.1,2.8,1.5,4.2,1.1c1.9-0.5,2-1.9,1.6-4.1L83,44l0.9,0.5
		c0.8,0.4,1.5,0.5,2.1,0.4c0.4-0.1,1-0.4,1.4-1.4c1.1-2.7-1.2-7.1-2.9-10.2L85,33l-0.5,0.2c-0.4-0.8-0.8-1.5-1-2
		c-0.4-0.9-0.9-1.9-1.3-2.8l-0.1-0.2c-3.1-6.8-6.2-13.8-11.1-19.5c-6.9-8-14.9-8.9-19.5-6.4l-0.2,0.1l-0.2,0
		c-0.7-0.1-3.4-0.5-6.9-0.5s-6.1,0.4-6.9,0.5l-0.2,0l-0.2-0.1c-4.6-2.6-12.6-1.6-19.5,6.4c-4.9,5.7-8,12.7-11.1,19.5l-0.1,0.2
		c-0.4,0.9-0.9,1.9-1.3,2.8c-0.3,0.6-0.6,1.2-1,2c-1.7,3.2-4,7.6-2.9,10.3c0.4,0.9,1,1.2,1.4,1.4c0.6,0.2,1.3,0,2.1-0.4L5.7,44
		l-0.2,1c-0.4,2.1-0.3,3.5,1.6,4.1c1.4,0.4,3,0,4.2-1.1l0.7-0.6l0.2,0.9c0.4,2.1,2.1,3.5,3.6,3.9c1.6,0.4,3.1-0.1,4.1-1.6l0.3-0.4
		l0.9,0.6l0.3,1.2l-0.4,0.1c-3.2,1-8.2,3.7-13.9,10.8C-3.5,75.8,11,88.1,11.2,88.3l0.7-0.7l0.3,0.3c0.5,0.5,1,0.9,1.2,1.1l0.2,0.1
		l0,0.2c0.1,0.7,0.5,3.2,2.6,4.1c0.5,0.2,1.1,0.3,1.7,0.4l0.5,0l-0.1,0.5c-0.3,2.4-0.5,4.4-0.6,5.7c0,0,1.1,1.9,5.9,3l0.4,0.1l0,0.4
		c-0.5,5.8-1.2,11.1-1.3,11.7l0.6,0.3l-0.1,0.4c-0.4,1.9-0.7,3.9-0.1,5.8c1.5,4.1,7,4.1,9.1,4.1l0.2,0c3.8,0,7.9-0.7,9.5-5.6
		c0.2-0.6,0.4-1.7,0.5-3.1l0-0.4l0.6-0.1c0.6-4.4,0.3-16.4,0.1-20l0-0.5l0.5,0C44.4,96,44.6,96,44.7,96z M68.6,75.6l-0.3-2
		c-0.1-1.8-0.3-3.6-0.6-5.4l-0.2-1.5l1.1,1.1c0.7,0.7,1.4,1.6,2.1,2.7c1.1,1.7,0,3.1-1.3,4.5L68.6,75.6z M68.9,69.7
		c0.2,1.2,0.3,2.5,0.4,3.6c0.9-1.1,0.9-1.7,0.5-2.4C69.5,70.4,69.2,70,68.9,69.7z M20.7,75.6L20,74.8c-1.3-1.4-2.4-2.8-1.3-4.5
		c0.8-1.2,1.6-2.2,2.4-2.9l1.1-1l-0.2,1.4c-0.1,0.4-0.1,0.7-0.2,1.1c-0.3,1.8-0.6,3.6-0.8,5.6L20.7,75.6z M20.6,69.3
		c-0.3,0.4-0.7,0.9-1.1,1.5c-0.5,0.7-0.4,1.3,0.5,2.4C20.2,71.9,20.4,70.6,20.6,69.3z"/>
</g>
<g>
	<path style="fill:#262626;" d="M240.3,73.3c-2.4-3-5.3-5.5-8.5-7c-2.1-1-4.7-2-6.9-1.5c-0.1-0.1-0.1-0.2-0.2-0.3
		c1.4-0.9,2.7-1.9,3.9-3.1c1.9-1.9,3.4-4.2,4.4-6.6l3.2-1.1c1.9-0.6,3.2-2.4,3.2-4.5v-3.4v-2.6v-0.8c0-1.6-0.8-3-2-3.9
		c-0.4-6.8-3.8-12.1-9.2-15.2c-5.3-6.2-13.2-9.1-19.2-9.1c-6,0-14,2.9-19.2,9.1c-5.4,3.1-8.8,8.4-9.2,15.2c-1.2,0.9-2,2.3-2,3.9v0.8
		v2.6v3.4c0,2,1.3,3.8,3.2,4.5l3.2,1.1c1,2.4,2.5,4.6,4.4,6.6c1.2,1.2,2.6,2.3,4,3.2c0,0.1-0.1,0.2-0.1,0.2
		c-2.2-0.6-4.9,0.4-7.1,1.4c-3.2,1.6-6.1,4-8.5,7c-3.7,4.7-7.6,10.9-5.7,13.9l0,0l0.3,0.4c0.7,0.7,1.6,1,2.6,1c3.2,0,8-2.8,11.9-5.5
		c1.4-1,2.8-2.1,4-3.4v19.3h0c0,0,0,0.1,0,0.1c0,1.1,0.6,2.4,1.9,3.6l0.4,4.9c0,2.6,8,5.3,15.9,5.3c7.9,0,15.9-2.7,15.9-5.2l0.4-4.7
		c1.5-1.3,2.1-2.7,2.1-3.8c0,0,0-0.1,0-0.1h0V80c1.1,1.1,2.4,2.2,3.7,3.1c3.9,2.7,8.6,5.5,11.9,5.5c1.1,0,2-0.3,2.6-1l0.3-0.4l0,0
		C247.9,84.2,244,78.1,240.3,73.3z"/>
	<path d="M209.1,113.5c-7.6,0-16.4-2.5-16.4-5.8l-0.4-4.7c-1.1-1.1-1.8-2.3-1.9-3.4h0l0-0.2c0-0.1,0-0.1,0-0.2V81
		c-1,0.9-2,1.8-3.2,2.6c-7.7,5.4-12.9,6.8-15.2,4.4l-0.7-0.8l0.1-0.1c-1.3-2.7,0.7-7.4,5.9-14.1c2.4-3.1,5.4-5.6,8.7-7.2
		c2.2-1.1,4.2-1.7,5.8-1.7c-1-0.7-1.9-1.5-2.8-2.4c-1.9-1.9-3.4-4.1-4.5-6.5l-3-1c-2.1-0.7-3.6-2.7-3.6-5v-6.8c0-1.6,0.8-3.1,2-4.1
		c0.5-6.7,3.8-12.1,9.4-15.3c5.8-6.8,14.1-9.2,19.6-9.2c5.4,0,13.8,2.4,19.6,9.2c5.6,3.2,8.9,8.6,9.4,15.3c1.3,1,2,2.5,2,4.1v6.8
		c0,2.3-1.4,4.3-3.6,5l-3,1c-1.1,2.4-2.6,4.6-4.5,6.5c-0.9,0.9-1.8,1.7-2.8,2.4c0,0,0,0,0,0c1.6,0,3.6,0.6,5.8,1.7
		c3.2,1.6,6.2,4.1,8.7,7.2l0,0c5.2,6.6,7.2,11.4,5.9,14.1l0.1,0.1l-0.3,0.4L246,88c-2.3,2.5-7.4,1-15.2-4.4c-1-0.7-2-1.5-2.9-2.4
		l0,18.4c-0.1,1.2-0.9,2.5-2.1,3.7l-0.4,4.5c0,2-3.3,3.4-5.3,4C216.9,112.9,212.9,113.5,209.1,113.5z M191.4,98.6l0,0.5l0,0.1
		c0,1,0.6,2.2,1.7,3.2l0.1,0.1l0.4,5.1c0,2.1,7.4,4.8,15.4,4.8c3.7,0,7.6-0.6,10.7-1.6c3.4-1.1,4.6-2.4,4.6-3.1l0.4-4.9l0.2-0.1
		c1.2-1.1,1.9-2.4,1.9-3.5c0-0.1,0-0.1,0-0.1l0-20.3l0.9,0.9c1.1,1.1,2.4,2.2,3.7,3.1c7,4.9,12,6.5,13.8,4.5l0.2-0.2l0.1-0.2
		c1.4-2.2-0.6-6.9-5.7-13.3c-2.3-3-5.2-5.4-8.3-6.9c-1.8-0.9-4.5-1.9-6.5-1.4l-0.4,0.1l-0.6-1l0.4-0.3c1.4-0.9,2.6-1.9,3.8-3.1
		c1.8-1.9,3.3-4,4.3-6.4l0.1-0.2l3.5-1.2c1.7-0.6,2.9-2.2,2.9-4v-6.8c0-1.4-0.7-2.7-1.8-3.4l-0.2-0.1l0-0.2
		c-0.4-6.5-3.6-11.7-9-14.8l-0.1-0.1c-5.6-6.6-13.6-8.9-18.8-8.9c-5.2,0-13.3,2.3-18.8,8.9l-0.1,0.1c-5.4,3.1-8.6,8.3-9,14.8l0,0.2
		l-0.2,0.1c-1.1,0.8-1.8,2.1-1.8,3.4v6.8c0,1.8,1.2,3.4,2.9,4l3.5,1.2l0.1,0.2c1,2.4,2.5,4.6,4.3,6.4c1.2,1.2,2.5,2.3,3.9,3.2
		l0.4,0.3l-0.6,1l-0.4-0.1c-2.1-0.5-4.8,0.5-6.7,1.4c-3.1,1.5-6,3.9-8.3,6.9c-5,6.4-7,11.1-5.7,13.3l0.2,0.3c1.9,2,6.8,0.4,13.8-4.5
		c1.4-1,2.7-2.1,3.9-3.3l0.9-0.9V98.6z"/>
</g>
<g>
	<path style="fill:#262626;" d="M219.2,74.1c-2.3-6.2-8.6-9.5-13.9-7.4c-1.1,0.4-2,1-2.8,1.7l-1.9,0.8l-4.3,1.9l0,0l-0.4-0.1
		c-0.2-1.4-0.4-3-0.7-4.5c0,0,0,0,0-0.1l9-1.2c1.2,0,1.9-1.1,1.9-2.2c0-0.5-0.2-1-0.4-1.3c-0.2-0.3-0.7-0.6-1.4-0.6l-10.7-0.7
		c-0.2-0.5-0.3-0.9-0.5-1.4c0.4-0.3,1.4-1.1,2.4-2.2c0.2-0.3,0.3-0.6,0.2-0.9c0-0.1-4-14.4-19.4-14.4c-1.4,0-2.9,0.1-4.4,0.4
		c-0.1,0-13.6,2.3-15.2,15.2c0,0.2,0,0.5,0.2,0.7c0.1,0.1,1,1.4,2.9,2.6c-0.3,1.5-0.6,2.9-0.7,4.2c-1.1,2.9-1.4,5.5-1.5,6.4
		c-3.1,0.2-9.4,1.2-13.7,5.6c-3.1,3.1-4.5,7.4-4.3,12.7c0.2,4.1,2.3,8.2,6.1,11.5c3.2,2.8,7.2,4.8,11.7,6c0.1,1.3,0.1,2.6,0.2,3.8
		c0.2,2.1,0.3,4.3,0.3,6.4c0,0.5,0,1.1-0.1,1.7c-0.2,1.1-0.4,2.4,0.3,3.5c0.8,1.4,2.4,1.8,4,2.1c1,0.2,1.8,0.3,2.6,0.3
		c1.5,0,2.7-0.3,3.4-1c0.7-0.6,1-1.3,1-2.3c0.1-3.8-3.1-5.8-6.2-6.2c-0.2-1.2-0.6-4.7-1-7.4c1.7,0.2,3.5,0.3,5.4,0.3
		c0.4,0,0.8,0,1.2,0c0.4,1,0.8,2.1,1.1,3.2c0.3,1.2,0.4,2.4,0.5,3.6l0,0.5c0,0.5,0,1.1-0.1,1.7c-0.2,1.1-0.4,2.4,0.3,3.5
		c0.8,1.4,2.4,1.8,4,2.1c0.9,0.2,1.8,0.2,2.5,0.2c1.4,0,2.5-0.3,3.3-0.9c0.7-0.5,1.2-1.3,1.3-2.3c0.2-1.5-0.2-2.7-1-3.8
		c-1.3-1.5-3.5-2.3-5.2-2.5c-0.5-1.9-1-3.9-1.6-5.8c7.6-1.1,12.6-4,15.9-7.9c0.4-0.1,0.9-0.3,1.2-0.7c0.6-0.8,1.3-1.9,2.3-3.3
		c0.3-0.5,0.4-1.1,0.2-1.7c0,0,0-0.1-0.1-0.1c0-0.1,0-0.1,0.1-0.2l1.8-0.4c0.5,0.2,1-0.2,1-0.2l0.1,0l6.6-1.6c0.5,0.2,1-0.2,1-0.2
		l4.1-1l1.6-0.4c0.3,0,0.6,0.1,0.9,0.1c1.1,0,2.2-0.2,3.3-0.6C219,86.9,221.5,80.3,219.2,74.1z M193.1,57.3
		c-0.1,0.1-0.2,0.1-0.3,0.2C192.9,57.5,193,57.4,193.1,57.3z M191.2,49.3c0.2,0.2,0.3,0.4,0.5,0.6C191.5,49.8,191.3,49.5,191.2,49.3
		z M191.8,50.2c0.1,0.1,0.2,0.2,0.2,0.3C191.9,50.4,191.9,50.3,191.8,50.2z M192.2,50.8c0.1,0.1,0.1,0.2,0.2,0.3
		C192.3,51,192.2,50.9,192.2,50.8z M192.5,51.3c0.1,0.1,0.1,0.2,0.2,0.4C192.7,51.5,192.6,51.4,192.5,51.3z M188.3,46.4
		c0.1,0.1,0.3,0.2,0.4,0.4C188.6,46.6,188.5,46.5,188.3,46.4z M189.1,47c0.1,0.1,0.2,0.2,0.3,0.3C189.3,47.2,189.2,47.1,189.1,47z
		 M187.5,45.7c0.1,0.1,0.2,0.2,0.3,0.2C187.7,45.9,187.6,45.8,187.5,45.7z M186.7,45.2c0.1,0.1,0.3,0.2,0.4,0.3
		C187,45.4,186.9,45.3,186.7,45.2z M186,44.7c0.1,0.1,0.3,0.2,0.4,0.2C186.2,44.9,186.1,44.8,186,44.7z M183.9,43.7
		c0.3,0.1,0.6,0.3,0.9,0.4C184.4,43.9,184.2,43.8,183.9,43.7z M185.1,44.3c0.1,0.1,0.3,0.2,0.4,0.2
		C185.4,44.4,185.3,44.3,185.1,44.3z M182.9,43.3c0.2,0.1,0.4,0.1,0.5,0.2C183.3,43.4,183.1,43.4,182.9,43.3z M181.8,43
		c0.2,0.1,0.4,0.1,0.7,0.2C182.3,43.1,182.1,43,181.8,43z M179.8,42.5c0.1,0,0.2,0,0.4,0.1C180,42.5,179.9,42.5,179.8,42.5z
		 M180.9,42.7c0.2,0,0.3,0.1,0.5,0.1C181.2,42.8,181,42.7,180.9,42.7z M178.6,42.3c0.1,0,0.2,0,0.3,0
		C178.8,42.4,178.7,42.3,178.6,42.3z M177.4,42.2c0,0,0.1,0,0.1,0C177.5,42.2,177.5,42.2,177.4,42.2z M174,42.3c0.1,0,0.1,0,0.2,0
		C174.1,42.3,174.1,42.3,174,42.3z M168,43.7c0.1-0.1,0.3-0.1,0.4-0.2C168.3,43.6,168.1,43.7,168,43.7z M168.8,43.4
		c0.1,0,0.1-0.1,0.2-0.1C169,43.4,168.9,43.4,168.8,43.4z M165.9,44.8c0.2-0.1,0.5-0.3,0.7-0.4C166.4,44.5,166.2,44.6,165.9,44.8z
		 M167,44.2c0.1-0.1,0.3-0.1,0.4-0.2C167.3,44.1,167.2,44.1,167,44.2z M165.1,45.3c0.2-0.1,0.4-0.2,0.6-0.4
		C165.4,45,165.3,45.2,165.1,45.3z M164,46c0.3-0.2,0.5-0.4,0.8-0.6C164.5,45.6,164.2,45.8,164,46z M163,46.7
		c0.2-0.2,0.5-0.4,0.7-0.6C163.5,46.3,163.3,46.5,163,46.7z M193.1,57.3c0.1-0.1,0.3-0.3,0.5-0.4c0.3-0.3,0.6-0.6,1-1
		c0,0-0.2-0.9-0.9-2.3c0.6,1.4,0.9,2.3,0.9,2.3C194.1,56.4,193.6,56.9,193.1,57.3z M192.8,51.8c0.4,0.6,0.6,1.2,0.9,1.7
		C193.5,53,193.2,52.4,192.8,51.8z M190.5,48.5c-0.1-0.1-0.2-0.2-0.3-0.3C190.3,48.3,190.4,48.4,190.5,48.5z M191,49.1
		c-0.1-0.1-0.2-0.2-0.3-0.3C190.8,48.9,190.9,49,191,49.1z M189.9,47.9c-0.1-0.1-0.2-0.2-0.3-0.3C189.8,47.7,189.8,47.8,189.9,47.9z
		 M176.3,42.2c-0.1,0-0.1,0-0.2,0c0,0,0.1,0,0.1,0C176.2,42.2,176.2,42.2,176.3,42.2z M162.9,46.8c-0.3,0.2-0.6,0.5-0.9,0.8
		C162.3,47.4,162.6,47.1,162.9,46.8z M162,47.7c-0.6,0.6-1.1,1.2-1.7,2c-0.2,0.2-0.3,0.4-0.5,0.7C160.5,49.4,161.2,48.5,162,47.7z
		 M157.6,56.8c0-0.3,0.1-0.7,0.2-1C157.7,56.2,157.6,56.5,157.6,56.8c0,0,0.7,1,2.3,2.1c0,0,0,0,0,0
		C158.3,57.9,157.6,56.8,157.6,56.8z M159.7,50.5c-0.1,0.2-0.2,0.4-0.3,0.6C159.5,50.9,159.6,50.7,159.7,50.5z M159.3,51.4
		c-0.1,0.2-0.2,0.3-0.3,0.5C159.1,51.7,159.2,51.6,159.3,51.4z M158.8,52.3c-0.1,0.2-0.1,0.3-0.2,0.5
		C158.7,52.6,158.8,52.5,158.8,52.3z M158.5,53.2c-0.1,0.2-0.1,0.3-0.2,0.5C158.3,53.5,158.4,53.4,158.5,53.2z M158.2,54.1
		c-0.1,0.2-0.1,0.4-0.2,0.6C158,54.5,158.1,54.3,158.2,54.1z M157.9,55.1c-0.1,0.2-0.1,0.4-0.1,0.7
		C157.8,55.5,157.9,55.3,157.9,55.1z"/>
	<path d="M164.7,124.7c-0.8,0-1.7-0.1-2.7-0.3c-1.7-0.3-3.5-0.8-4.4-2.3c-0.8-1.3-0.6-2.7-0.4-3.9c0.1-0.6,0.2-1.1,0.1-1.6
		c0-2.1-0.2-4.3-0.3-6.4c-0.1-1.1-0.2-2.3-0.2-3.4c-4.6-1.2-8.4-3.3-11.6-6c-3.9-3.4-6.1-7.6-6.3-11.9c-0.2-5.4,1.3-9.8,4.5-13.1
		c4.2-4.3,10.2-5.4,13.6-5.7c0.1-1.2,0.5-3.5,1.5-6.1c0.2-1.3,0.4-2.6,0.6-3.8c-1.9-1.2-2.7-2.5-2.8-2.5c-0.2-0.3-0.3-0.7-0.3-1.1
		c1.6-13.3,15.5-15.6,15.6-15.6c1.5-0.2,3-0.4,4.4-0.4c15.8,0,19.9,14.6,19.9,14.8c0.1,0.5,0,1-0.3,1.4c-0.8,0.9-1.6,1.6-2.1,2.1
		c0.1,0.3,0.2,0.5,0.3,0.8l10.4,0.7c0.9,0,1.4,0.5,1.7,0.8c0.3,0.4,0.5,1,0.5,1.7c0,1.3-0.9,2.7-2.4,2.7l-8.4,1.2
		c0.2,1.2,0.4,2.5,0.6,3.7l5.8-2.5c0.9-0.8,1.9-1.4,2.9-1.8c2.7-1,5.7-0.8,8.5,0.7c2.7,1.5,4.9,4,6,7.1c1.2,3.1,1.2,6.4,0.1,9.3
		c-1.1,3-3.2,5.2-5.9,6.2c-1.4,0.5-2.9,0.7-4.3,0.6l-5.6,1.3c-0.2,0.1-0.7,0.4-1.2,0.3l-6.5,1.6c-0.2,0.2-0.7,0.4-1.3,0.3l-1.2,0.3
		c0.1,0.6,0,1.3-0.3,1.8c-0.9,1.4-1.7,2.5-2.3,3.3c-0.3,0.4-0.8,0.7-1.3,0.8c-3.6,4.2-8.7,6.8-15.5,7.9c0.5,1.6,0.9,3.3,1.3,4.9
		c2.2,0.3,4.1,1.3,5.2,2.6c1,1.2,1.3,2.6,1.1,4.2c-0.1,1.2-0.7,2.1-1.5,2.7c-1.3,1-3.3,1.2-6.2,0.7c-1.7-0.3-3.5-0.8-4.4-2.3
		c-0.8-1.3-0.6-2.7-0.4-3.9c0.1-0.6,0.2-1.1,0.1-1.6l0-0.5c-0.1-1.2-0.2-2.3-0.5-3.5c-0.3-1-0.6-1.9-1-2.8l0,0
		c-1.9,0.1-3.8,0-5.6-0.3c0.3,2.3,0.7,5,0.9,6.4c3.2,0.5,6.3,2.7,6.2,6.7c0,1.1-0.4,2.1-1.2,2.7
		C167.6,124.4,166.3,124.7,164.7,124.7z M160.3,59.8l-0.1,0.3c-0.3,1.3-0.5,2.7-0.7,4.2l0,0.1c-1.1,2.8-1.4,5.3-1.5,6.3l0,0.4
		l-0.4,0c-3.2,0.2-9.2,1.3-13.4,5.5c-3,3-4.4,7.2-4.2,12.3c0.2,4,2.3,7.9,5.9,11.1c3.1,2.7,6.9,4.7,11.5,5.9l0.4,0.1l0,0.4
		c0.1,1.3,0.1,2.5,0.2,3.8c0.2,2.1,0.3,4.3,0.3,6.4c0,0.6,0,1.2-0.1,1.8c-0.2,1.1-0.3,2.2,0.3,3.2c0.7,1.2,2.2,1.6,3.7,1.8
		c2.7,0.5,4.6,0.3,5.6-0.6c0.6-0.5,0.8-1.1,0.8-1.9c0.1-3.5-2.8-5.4-5.7-5.7l-0.4,0l-0.1-0.4c-0.2-1.2-0.6-4.7-1-7.4l-0.1-0.7
		l0.7,0.1c2,0.3,4.1,0.4,6.1,0.3l0.7,0l0.1,0.3c0.4,1,0.8,2.1,1.2,3.2c0.4,1.3,0.4,2.4,0.5,3.7l0,0.5c0,0.6,0,1.2-0.1,1.8
		c-0.2,1.1-0.3,2.2,0.3,3.2c0.7,1.2,2.2,1.6,3.7,1.8c2.6,0.4,4.3,0.3,5.4-0.5c0.6-0.5,1-1.1,1.1-2c0.2-1.3-0.1-2.5-0.9-3.4
		c-1.5-1.8-4.1-2.2-4.9-2.3l-0.4,0l-0.1-0.3c-0.5-1.9-1-3.9-1.5-5.8l-0.2-0.6l0.6-0.1c6.9-1,12-3.5,15.6-7.7l0.1-0.1l0.2,0
		c0.3-0.1,0.6-0.2,0.8-0.5c0.6-0.7,1.3-1.8,2.2-3.2c0.2-0.4,0.3-0.8,0.1-1.2c0,0,0-0.1-0.1-0.1l-0.1-0.2l0.3-0.6l2.2-0.5l0.2,0.1
		c0.1,0.1,0.4-0.1,0.5-0.2l0.1-0.1l7-1.7l0.1,0.1c0.2,0.1,0.4-0.1,0.5-0.1l0.1-0.1l0.1,0l5.8-1.4l0.1,0c0.3,0,0.6,0.1,0.9,0.1
		c1.1,0,2.1-0.2,3.1-0.6c2.4-0.9,4.3-2.9,5.3-5.6c1-2.7,0.9-5.8-0.1-8.6l0,0c-1.1-2.9-3.1-5.2-5.6-6.5c-2.5-1.3-5.2-1.6-7.7-0.6
		c-1,0.4-1.9,0.9-2.7,1.6l-0.1,0.1l-6.4,2.7l-0.8-0.3l0-0.3c-0.2-1.5-0.4-3-0.7-4.5l-0.1-0.5l0.5-0.1l9-1.2c0.9,0,1.4-0.9,1.4-1.7
		c0-0.4-0.1-0.8-0.3-1c-0.2-0.3-0.6-0.4-1-0.5l-11.1-0.8l-0.1-0.3c-0.2-0.5-0.3-0.9-0.5-1.4l-0.1-0.4l0.3-0.2c0.4-0.3,1.3-1,2.2-2
		c-0.3,0.4-0.6,0.7-1,1c-0.1,0.1-0.2,0.2-0.3,0.3l-0.7-0.8c0.1-0.1,0.2-0.2,0.3-0.3c0,0,0.1-0.1,0.1-0.1c0.3-0.3,0.5-0.5,0.8-0.8
		c-0.1-0.3-0.3-0.8-0.5-1.4c-0.1-0.2-0.1-0.3-0.2-0.5l0.9-0.4l-0.9,0.4l0,0l0,0c0,0,0,0,0,0c-0.3-0.6-0.5-1.1-0.9-1.7l0.9-0.5
		c0,0-0.1-0.1-0.1-0.1l-0.8,0.5l-0.2-0.3l0.8-0.5c0-0.1-0.1-0.1-0.1-0.2l-0.8,0.5l-0.2-0.3l0.8-0.5c-0.1-0.1-0.1-0.2-0.2-0.3
		l-0.8,0.6l0,0l0,0l-0.2-0.3l0.8-0.6c-0.1-0.1-0.1-0.2-0.2-0.2l-0.8,0.6c-0.1-0.2-0.3-0.4-0.4-0.6c0,0,0,0,0,0c0,0,0,0,0,0l0.8-0.6
		c-0.1-0.1-0.1-0.2-0.2-0.3l-0.8,0.6l-0.2-0.3l0.7-0.6c-0.1-0.1-0.2-0.2-0.2-0.3l-0.7,0.6l-0.2-0.3l0.7-0.7
		c-0.1-0.1-0.2-0.2-0.3-0.3l-0.7,0.7c-0.1-0.1-0.2-0.2-0.3-0.3l0.7-0.7c-0.1-0.1-0.2-0.2-0.3-0.3l-0.7,0.7l0,0l-0.3-0.3l0.7-0.7
		c-0.1-0.1-0.2-0.2-0.3-0.3l-0.6,0.7c-0.1-0.1-0.3-0.2-0.4-0.3l0.6-0.8c-0.2-0.1-0.3-0.3-0.5-0.4l-0.6,0.8l-0.3-0.2l0.6-0.8
		c-0.1-0.1-0.3-0.2-0.4-0.3l-0.6,0.8l-0.3-0.2l0.2-0.5l0.3-0.4c-0.1-0.1-0.3-0.2-0.4-0.3l-0.5,0.8c-0.1-0.1-0.3-0.2-0.4-0.2l0.5-0.9
		c-0.1-0.1-0.3-0.2-0.4-0.2l-0.4,0.9c-0.2-0.1-0.3-0.2-0.4-0.2l0.5-0.9c-0.1-0.1-0.3-0.1-0.4-0.2l-0.4,0.9c-0.3-0.1-0.6-0.3-0.9-0.4
		l0.4-0.9c-0.1-0.1-0.3-0.1-0.4-0.2l-0.4,0.9c-0.1-0.1-0.3-0.1-0.4-0.2l-0.1,0l0.3-1c-0.1,0-0.3-0.1-0.4-0.1l-0.3,1
		c-0.1,0-0.2-0.1-0.3-0.1c-0.1,0-0.2-0.1-0.3-0.1v0c0,0,0,0-0.1,0l0.3-1c-0.2,0-0.3-0.1-0.5-0.1l-0.2,1c-0.1,0-0.2-0.1-0.3-0.1
		c0,0,0,0,0,0l-0.1,0l0.2-1c-0.2-0.1-0.5-0.1-0.7-0.2l-0.2,1l-0.3-0.1l0.2-1l0.1,0c-0.3-0.1-0.7-0.1-1-0.2l-0.1,1l-0.3,0l0.1-1
		l0.2,0c-2.1-0.3-4.5-0.2-7,0.2c0,0-1.3,0.2-3,0.8l0.3,0.9l-0.2,0.1l-0.3-0.9c-0.1,0.1-0.3,0.1-0.4,0.2l0.4,0.9l-0.3,0.1l-0.2-0.5
		l-0.1-0.5c0,0,0,0,0,0l0,0l0,0l0,0l0,0c-0.2,0.1-0.4,0.2-0.6,0.3l0.4,0.9c-0.1,0.1-0.3,0.1-0.4,0.2l-0.4-0.9
		c-0.1,0.1-0.2,0.1-0.4,0.2l0.4,0.9c-0.2,0.1-0.5,0.2-0.7,0.4l-0.5-0.9c-0.1,0.1-0.2,0.1-0.3,0.2l0.5,0.9c-0.2,0.1-0.4,0.2-0.6,0.3
		l-0.5-0.8c-0.1,0.1-0.2,0.1-0.3,0.2l0.5,0.8c0,0,0,0,0,0l0,0c0,0,0,0,0,0c-0.2,0.1-0.3,0.2-0.5,0.3c-0.1,0.1-0.2,0.2-0.3,0.2
		c0,0,0,0,0,0l0,0l-0.6-0.8c-0.1,0-0.1,0.1-0.2,0.1l0.6,0.8c0,0,0,0,0,0l0,0c0,0,0,0,0,0c-0.1,0.1-0.2,0.2-0.4,0.3
		c-0.1,0.1-0.2,0.2-0.4,0.3l-0.6-0.8c0,0-0.1,0.1-0.1,0.1l0.6,0.8l0,0l0,0c0,0,0,0,0,0c-0.1,0.1-0.3,0.2-0.4,0.4
		c-0.1,0.1-0.3,0.3-0.4,0.4l-0.7-0.7c0,0-0.1,0.1-0.1,0.1l0.7,0.7l0,0l0,0v0c-0.6,0.6-1.1,1.2-1.6,1.9c-0.2,0.2-0.3,0.4-0.4,0.7
		c0,0,0,0,0,0v0l-0.8-0.5c0,0.1-0.1,0.1-0.1,0.2l0.9,0.5c0,0,0,0,0,0l0,0c0,0,0,0,0,0c0,0,0,0.1-0.1,0.1c-0.1,0.2-0.2,0.3-0.3,0.5
		l-0.9-0.5c-0.1,0.1-0.1,0.2-0.2,0.3l0.9,0.5v0l0,0c0,0,0,0,0,0c0,0.1-0.1,0.2-0.1,0.2c0,0.1-0.1,0.2-0.1,0.3l-0.9-0.4
		c-0.1,0.1-0.1,0.3-0.2,0.4l0.9,0.4l0,0.1c-0.1,0.1-0.1,0.3-0.2,0.4l-0.9-0.4c-0.1,0.2-0.2,0.5-0.3,0.7c0-0.1,0.1-0.2,0.1-0.2l1,0.3
		l0,0.1c-0.1,0.1-0.1,0.3-0.1,0.4l-1-0.3c-0.3,1-0.6,2-0.7,3.2c0,0,0,0,0,0l0,0c0-0.3,0.1-0.7,0.2-1l1,0.2c0,0,0,0,0,0l0,0
		c0,0,0,0,0,0c0,0.2-0.1,0.5-0.1,0.7c0.3,0.3,0.9,1.1,2.1,1.8l0.2,0.2l0,1.2L160.3,59.8z M157.2,57.2c0.2,0.2,1,1.3,2.7,2.4l0,0
		l-0.3-0.2C158.1,58.4,157.4,57.4,157.2,57.2z M157.2,57.1C157.2,57.1,157.2,57.1,157.2,57.1C157.2,57.1,157.2,57.1,157.2,57.1
		L157.2,57.1z M195.1,55.7C195.1,55.7,195.1,55.7,195.1,55.7L195.1,55.7C195.1,55.7,195.1,55.7,195.1,55.7
		C195.1,55.7,195.1,55.7,195.1,55.7z M187,44.8l-0.3,0.4L187,44.8z M187,44.8l-0.3,0.4L187,44.8C187,44.8,187,44.8,187,44.8z
		 M182,42.5l-0.1,0.5l0.1-0.2L182,42.5z M193.1,57.9l-0.6-0.8c0,0,0,0,0,0l0.2-0.2v0c0,0,0,0,0,0l0.7,0.8l-0.1-0.1l0.1,0.1
		C193.3,57.8,193.2,57.9,193.1,57.9L193.1,57.9z M158.3,55.8l-1-0.2c0-0.2,0.1-0.4,0.1-0.6l0-0.1l1,0.2l0,0.1
		C158.3,55.5,158.3,55.7,158.3,55.8z M158.5,54.8l-1-0.3c0-0.2,0.1-0.3,0.1-0.5l0-0.1l1,0.3l0,0.1C158.6,54.5,158.5,54.7,158.5,54.8
		z M174,42.8l-0.1-1l0.2,0l0.1,1L174,42.8z M177.5,42.8l-0.1,0l0.1-1l0,0.5l0.1-0.5l0,0.5L177.5,42.8z M176.3,42.7l-0.2,0v-1l0.2,0
		v0h0L176.3,42.7L176.3,42.7z"/>
</g>
<g>
	<path style="fill:#262626;" d="M119.7,100.2c-0.1-1.4-0.7-2.6-1.7-3.4c-0.8-0.6-1.7-1-2.6-1.3c-0.2-0.1-0.4-0.2-0.7-0.3
		c-1-0.4-2-1-3-1.6c0-0.2,0-0.3-0.1-0.5c-0.1-0.2-0.3-0.5-0.7-0.8c-0.6-0.5-1.5-1-2.4-1.7c-0.4-0.5-0.8-1-1.1-1.5
		c-0.2-0.2-0.5-0.3-0.7-0.2c0,0-0.1,0.1-0.1,0.1c-1.3-1.2-2.4-2.5-2.7-2.9c2.9-2.1,5.6-4.7,6.9-7.9c0.8-1.9,1.3-4,1.4-6.2
		c0.6-0.1,1-0.3,1.3-0.8c0.9-1.5,1.4-3.8,1.4-6.3c0.1-3.3-0.6-7-1.6-9.4c0,0,0,0,0-0.1c0-0.1-0.1-0.2-0.1-0.2
		c-0.1-0.2-0.2-0.5-0.3-0.7c-0.5-1.1-1.5-2.6-2.7-4.2c0.1-0.1,0.1-0.3,0.1-0.4c0.7-0.2,1.4-0.5,1.9-1c0.6-0.6,1.1-1.3,1.5-2.3
		c0.6-1.3,0.8-2.7,0.8-4.1c0-1.6-0.7-3.1-1.7-3.9c-0.4-0.3-0.8-0.4-1.3-0.5c1.4-3.6,2.4-7.6,2.1-11.4c-0.3-3.4-2.1-5.5-4.7-5.6
		c-0.1,0-0.1,0-0.2,0c-4,0-8.8,4.5-12.1,12.9c-0.7-0.5-1.5-0.9-2.4-0.8c-1.3,0.1-2.6,1-3.5,2.3c-0.7,1.2-1.2,2.5-1.4,3.9
		c0,0.2,0,0.4-0.1,0.5c0,0-0.1,0.1-0.2,0.1c0,0-3.6-1.2-8.3-0.6C77.9,27.3,71.9,21,67.1,21.1c-2.7,0.1-4.4,2.2-4.7,5.6
		c-0.6,6.5,2.7,13.6,5.4,18.2c-1,0.9-1.9,1.9-2.8,3c-2.7,3.5-4.4,8.1-5.2,12.4c-0.6,3.2-0.8,6.3-0.7,8.6c0.6,8.3,5.8,14.3,8.3,17.3
		c0.7,0.8,1.2,0.6,1.5-0.5c0.2-0.5,0.4-1.1,0.6-1.8c0.9,0.8,1.9,1.6,2.9,2.3c-0.4,0.5-1.4,1.6-2.6,2.7c0,0,0-0.1-0.1-0.1
		c-0.2-0.2-0.6-0.1-0.7,0.2c-0.3,0.5-0.7,1-1.1,1.5c-0.9,0.7-1.8,1.3-2.4,1.7c-0.4,0.3-0.6,0.5-0.7,0.8c-0.1,0.2-0.1,0.3-0.1,0.5
		c-0.9,0.6-1.9,1.2-3,1.6c-0.2,0.1-0.4,0.2-0.7,0.3c-0.9,0.3-1.8,0.7-2.6,1.3c-1,0.8-1.6,2.1-1.7,3.4c-0.1,1.4,0.3,2.7,1.2,3.7
		c0.6,0.7,1.5,1.3,2.6,1.6c1,0.3,2,0.5,3,0.5c0.1,0,0.2,0,0.2,0c3-0.1,5.6-1.7,7.2-3c0.3-0.3,0.6-0.5,0.9-0.8
		c-0.2,2.2-0.1,4.4,0.7,6.3c0.7,1.8,1.8,3.3,3.2,4.6c0.2,1.6,1,9.1,2.5,12.5c-0.8,0.3-2,1.1-2.7,3c-0.6,1.7-0.1,3.1,1.5,4.1
		c1.2,0.8,3,1.1,4.6,1.1c2.1,0,4.1-0.5,5-1.6c0.6-0.6,0.8-1.4,0.8-2.1c-0.1-1.6-0.1-10.2-0.1-13.1c0.2,0,0.5,0,0.7,0
		c0.4,0,0.7,0,1.1,0c0,2.8,0,11.5-0.1,13.1c-0.1,0.8,0.2,1.5,0.8,2.1c0.9,1,2.9,1.6,5,1.6c1.7,0,3.4-0.4,4.6-1.1
		c1.6-1,2.1-2.4,1.5-4.1c-0.7-1.9-1.9-2.7-2.7-3c1.6-3.7,2.5-12.4,2.5-12.8c0,0,0,0,0-0.1c1.3-1.2,2.2-2.6,2.8-4.2
		c0.7-2,0.9-4.3,0.6-6.7c0.4,0.4,0.9,0.8,1.3,1.2c1.6,1.3,4.1,2.9,7.2,3c0.1,0,0.2,0,0.2,0c1,0,2.1-0.2,3-0.5c1.1-0.4,2-0.9,2.6-1.6
		C119.4,102.9,119.8,101.6,119.7,100.2z"/>
	<path d="M94.8,134.4c-2.4,0-4.4-0.7-5.4-1.7c-0.7-0.7-1-1.6-0.9-2.5c0.1-1.5,0.1-9.4,0.1-12.5c-0.2,0-0.5,0-0.7,0
		c0,3.1,0,11,0.1,12.5c0.1,0.9-0.2,1.8-0.9,2.5c-1,1.1-3,1.8-5.4,1.8c-1.9,0-3.7-0.4-4.9-1.2c-1.8-1.1-2.4-2.8-1.7-4.7
		c0.7-1.8,1.7-2.7,2.5-3.1c-1.3-3.4-2.1-9.8-2.3-12c-1.5-1.3-2.6-2.9-3.2-4.7c-0.6-1.5-0.8-3.3-0.8-5.2c-1.6,1.4-4.3,3-7.4,3.1
		l-0.3,0c-1.1,0-2.2-0.2-3.2-0.6c-1.2-0.4-2.1-1-2.8-1.8c-0.9-1-1.4-2.5-1.3-4c0.1-1.5,0.8-2.9,1.9-3.8c0.8-0.7,1.8-1.1,2.7-1.4
		c0.2-0.1,0.4-0.2,0.7-0.3c0.9-0.4,1.8-0.9,2.7-1.5c0-0.1,0.1-0.2,0.1-0.4c0.1-0.3,0.4-0.6,0.9-1c0.3-0.3,0.7-0.6,1.2-0.9
		c0.4-0.3,0.7-0.5,1.2-0.8c0.4-0.5,0.8-1,1-1.4c0.2-0.4,0.7-0.6,1.1-0.4c0.8-0.8,1.5-1.5,1.9-2c-0.7-0.5-1.3-1-1.9-1.5l-0.4,1.1
		c-0.1,0.3-0.4,1.1-1.1,1.3c-0.4,0.1-0.9-0.1-1.3-0.7l-0.2-0.3c-2.7-3.2-7.6-9.1-8.2-17.3c-0.2-2.6,0.1-5.6,0.7-8.7
		c0.7-3.5,2.2-8.5,5.3-12.6c0.8-1.1,1.7-2,2.6-2.8C64.3,40,61.2,33,61.8,26.7c0.3-3.7,2.3-6,5.2-6.1c6.5-0.2,11.9,9.3,14.3,18.3
		c3.6-0.3,6.5,0.3,7.6,0.6c0,0,0-0.1,0-0.1c0.2-1.5,0.8-2.9,1.5-4.1c1-1.5,2.4-2.5,3.9-2.6c0.7,0,1.4,0.1,2.2,0.6
		c3.1-7.9,7.8-12.7,12.3-12.7l0.2,0c2.9,0.1,4.9,2.4,5.2,6.1c0.3,3.3-0.3,7-1.9,11.1c0.3,0.1,0.6,0.3,0.9,0.5
		c1.2,0.9,1.9,2.5,1.9,4.3c0,1.4-0.3,2.9-0.9,4.3c-0.4,1-1,1.9-1.7,2.5c-0.5,0.5-1.1,0.8-1.8,1c1.1,1.5,2,2.9,2.6,4
		c0.1,0.3,0.2,0.5,0.3,0.7l0.1,0.2c1.1,2.6,1.7,6.3,1.7,9.6c0,2-0.3,4.7-1.5,6.5c-0.4,0.6-0.8,0.8-1.3,1c-0.2,2.1-0.7,4.1-1.4,6
		c-1.1,2.7-3.3,5.3-6.6,7.7c0.4,0.5,1.2,1.3,2.1,2.2c0.2,0,0.3-0.1,0.5,0c0.3,0.1,0.5,0.2,0.6,0.4c0.3,0.5,0.6,0.9,1.1,1.4
		c0.4,0.3,0.8,0.6,1.2,0.8c0.5,0.3,0.9,0.6,1.2,0.9c0.5,0.4,0.7,0.7,0.9,1c0,0.1,0.1,0.2,0.1,0.4c0.9,0.6,1.8,1.1,2.7,1.5
		c0.2,0.1,0.4,0.2,0.6,0.3c0.9,0.4,1.9,0.7,2.7,1.4c1.1,0.9,1.8,2.3,1.9,3.8l0,0c0.1,1.5-0.4,3-1.3,4c-0.7,0.8-1.6,1.4-2.8,1.8
		c-1,0.4-2.1,0.6-3.2,0.6l-0.3,0c-3.2-0.1-5.8-1.7-7.5-3.1c-0.1-0.1-0.2-0.2-0.4-0.3c0.1,2.1-0.1,4-0.7,5.6c-0.6,1.6-1.5,3-2.8,4.3
		c-0.1,1.3-0.9,8.6-2.4,12.4c0.8,0.4,1.9,1.3,2.5,3.1c0.7,1.9,0.1,3.6-1.7,4.7C98.5,134,96.7,134.4,94.8,134.4z M89.6,116.5v0.5
		c0,2.7,0,11.5-0.1,13.2c0,0.6,0.2,1.2,0.7,1.8c0.8,0.9,2.6,1.4,4.6,1.4c1.7,0,3.3-0.4,4.4-1c1.4-0.8,1.8-2,1.3-3.5
		c-0.7-1.8-1.8-2.5-2.4-2.7l-0.5-0.2l0.2-0.5c1.6-3.5,2.4-11.8,2.5-12.6l0-0.3l0.2-0.2c1.2-1.2,2.1-2.5,2.7-4.1
		c0.7-1.8,0.9-3.9,0.6-6.4l-0.2-1.4l1,1c0.5,0.5,0.9,0.8,1.3,1.2c1.5,1.3,3.9,2.8,6.8,2.9l0.2,0c1,0,1.9-0.2,2.9-0.5
		c1-0.4,1.8-0.9,2.4-1.5c0.8-0.8,1.1-2,1-3.3l0,0c-0.1-1.2-0.6-2.4-1.5-3.1c-0.7-0.6-1.6-0.9-2.4-1.3c-0.2-0.1-0.5-0.2-0.7-0.3
		c-1-0.4-2.1-1-3.1-1.7l-0.2-0.1l0-0.2c0-0.1,0-0.2-0.1-0.3c0-0.1-0.1-0.2-0.5-0.5c-0.3-0.3-0.7-0.5-1.2-0.8
		c-0.4-0.3-0.8-0.6-1.2-0.9l-0.1-0.1c-0.5-0.6-0.8-1.1-1.2-1.6l-0.3,0.4l-0.4-0.3c-1.4-1.3-2.5-2.6-2.8-2.9l-0.4-0.4l0.5-0.3
		c3.4-2.4,5.7-5,6.7-7.6c0.8-1.8,1.2-3.9,1.4-6l0-0.4l0.3-0.1c0.5-0.1,0.8-0.2,1-0.6c0.8-1.3,1.3-3.4,1.3-6c0-3.2-0.6-6.8-1.5-9.2
		l-0.1-0.3c-0.1-0.2-0.2-0.5-0.3-0.7c-0.5-1.1-1.5-2.6-2.7-4.1l-0.2-0.2l0.1-0.3c0-0.1,0.1-0.2,0.1-0.4l0.1-0.3l0.3-0.1
		c0.7-0.2,1.3-0.5,1.7-0.9c0.6-0.5,1-1.2,1.4-2.1c0.5-1.2,0.8-2.6,0.8-3.9c0-1.5-0.6-2.8-1.5-3.5c-0.3-0.2-0.6-0.4-1.1-0.4l-0.6-0.1
		l0.2-0.6c1.6-4.2,2.3-8,2-11.2c-0.3-3.1-1.9-5.1-4.3-5.1l-0.1,0c-4.1,0-8.6,5-11.6,12.6l-0.2,0.6l-0.5-0.4
		c-0.8-0.5-1.4-0.7-2.1-0.7c-1.2,0.1-2.3,0.9-3.1,2.1c-0.7,1.1-1.2,2.4-1.4,3.7c0,0.1,0,0.3,0,0.4l0,0.2l-0.3,0.3l-0.2,0.2l-0.3-0.1
		c0,0-3.5-1.1-8-0.6l-0.4,0l-0.1-0.4c-3.2-12.5-9.2-18.1-13.4-18c-2.4,0.1-4,2-4.3,5.1c-0.6,6.2,2.6,13.2,5.3,17.9l0.2,0.4L68,45.3
		c-1,0.9-1.9,1.8-2.7,3c-3,3.9-4.4,8.8-5.1,12.2c-0.6,3-0.8,6-0.6,8.4c0.6,7.9,5.4,13.7,7.9,16.7l0.2,0.3c0.2,0.3,0.3,0.3,0.4,0.3
		c0,0,0.1-0.1,0.3-0.6l0.9-2.5l0.6,0.5c0.8,0.8,1.8,1.5,2.9,2.3l0.5,0.3l-0.4,0.4c-0.4,0.5-1.4,1.6-2.6,2.8l-0.4,0.3l-0.3-0.4
		c-0.3,0.5-0.7,1-1.2,1.6L68.2,91c-0.4,0.3-0.8,0.6-1.2,0.9c-0.4,0.3-0.8,0.6-1.2,0.8c-0.4,0.3-0.5,0.5-0.5,0.5
		c0,0.1-0.1,0.2-0.1,0.3l0,0.2L64.9,94c-1,0.7-2,1.3-3.1,1.7c-0.2,0.1-0.4,0.2-0.7,0.3c-0.8,0.3-1.7,0.7-2.4,1.3
		c-0.9,0.7-1.4,1.8-1.5,3.1c-0.1,1.2,0.3,2.4,1,3.3c0.6,0.6,1.4,1.1,2.4,1.5c0.9,0.3,1.9,0.5,2.9,0.5l0.2,0c2.9-0.1,5.3-1.6,6.8-2.9
		c0.3-0.2,0.6-0.5,0.9-0.8l1-0.9l-0.1,1.3c-0.2,2.3,0,4.4,0.6,6c0.6,1.7,1.7,3.2,3.1,4.4l0.2,0.1l0,0.2c0.2,1.5,1,9,2.5,12.3
		l0.2,0.5l-0.5,0.2c-0.6,0.3-1.7,1-2.4,2.7c-0.5,1.5-0.1,2.7,1.3,3.5c1.1,0.7,2.7,1,4.4,1c2,0,3.9-0.6,4.6-1.4
		c0.5-0.5,0.7-1.1,0.7-1.8c-0.1-1.6-0.1-10.5-0.1-13.1v-0.5l0.8,0c0.5,0,1,0,1.5,0L89.6,116.5z"/>
</g>
<g>
	<path style="fill:#262626;" d="M159,100.7c-2.2-3.5-4.9-6.7-8.1-9.4c-0.9-0.7-1.8-1.4-2.9-1.8c0-0.5,0-1,0-1.5
		c0.1-1.7,0.6-3.4,1.1-5.1c0.3-1,0.5-1.9,0.7-2.9c1.8-8.1-0.4-16.6-5.5-22.2c-3.4-3.6-8-6.1-13.2-7.1c0.6-2,0.1-4,0.1-4
		c-0.1-0.2-0.3-0.4-0.5-0.4c-0.2,0-0.4,0.1-0.5,0.4c0,0-0.3,0.8-1.1,1.2c-0.5,0.3-1.2,0.4-2,0.3c0.2-0.8,0.4-1.5,0.8-2.2
		c0.2,0.1,0.4,0.1,0.7,0.1c0.1,0,0.1,0,0.2,0c1.8,0,3.6-0.7,5-1.9c0.7-0.6,1.2-1.3,1.5-2c0.2-0.5,0.4-1.4,0.1-2.1
		c-0.3-0.9-1.2-1.5-2.3-1.5c-0.7,0-1.5,0.1-2.5,0.6c-1.3,0.7-2.3,1.5-2.9,2.5c-0.5,0.8-0.8,1.8-0.8,2.8c0,0.4,0.1,0.6,0.2,0.9
		c-0.3,0.6-0.6,1.2-0.8,1.8c-0.1,0.3-0.2,0.6-0.2,0.8c-0.1,0-0.1,0-0.2,0c-2.5-0.8-4.2,1.4-5,2.8c-7.1,1.3-13.2,5.3-16.5,11.2
		c-3.3,5.7-4.1,12.8-2.3,19.4c0.3,0.9,0.6,1.9,0.8,2.8c0.2,0.7,0.4,1.4,0.6,2c0,0.1-0.1,0.1-0.1,0.2l-0.2,3.5
		c-0.9,0.4-1.8,1.1-2.6,1.7c-3.2,2.7-5.9,5.8-8.1,9.4c-0.9,1.5-2,3.7-1.2,5.7c0.7,1.7,2.5,2.5,4,2.9c1.1,0.3,2.2,0.4,3.3,0.4
		c1.5,0,3-0.3,4.5-0.8c0.8,3.1,2.2,5.9,4.2,8.1c2.1,2.3,5,4.1,8.4,5.2v8.4c-3.4,0.8-5.9,3.9-5.9,7.6c0,2.3,1.9,4.2,4.1,4.2h6.8
		c2.3,0,4.1-1.9,4.1-4.2v-0.2c0-2.1-0.9-4.1-2.4-5.5c0,0,0,0,0,0v-8.9c1.2,0.1,2.5,0.2,3.9,0.2c0.8,0,1.6,0,2.5,0c0,0,0,0,0,0v8.8
		c-1.5,1.4-2.5,3.5-2.5,5.8c0,2.3,1.9,4.2,4.1,4.2h6.8c2.3,0,4.1-1.9,4.1-4.2v-0.2c0-2.1-0.9-4.1-2.4-5.5c-1-0.9-2.1-1.5-3.4-1.8
		V123c1.9-0.4,3.8-1,5.5-1.9c0.1,1,0.4,2,1,2.9c0.9,1.4,2.6,2.2,4.4,2.2c0.5,0,1-0.1,1.4-0.2c1.9-0.5,3.6-1.8,4.8-3.8
		c0.5-0.8,0.9-1.7,1.2-2.6c0,0,0,0,0,0c0.2,0.2,0.5,0.2,0.7,0.2l1,0c0,0,0.1,0,0.1,0c0.2,0,0.5,0,0.8-0.2c0.5-0.3,0.7-0.9,0.6-1.8
		c-0.2-1.1-0.4-2.2-0.7-3.4c-0.3-0.9-0.5-1.3-1.1-1.5c0-1.1-0.2-2.3-0.7-3.3c0.4-0.1,0.9-0.2,1.3-0.3c1.4-0.4,3.2-1.2,4-2.9
		C161.1,104.4,160,102.2,159,100.7z"/>
	<path d="M137.6,143h-6.8c-2.6,0-4.7-2.1-4.7-4.7c0-2.3,0.9-4.5,2.5-6v-8c-0.7,0-1.4,0-2,0c-1.1,0-2.2,0-3.4-0.1v8.1
		c1.5,1.5,2.4,3.6,2.4,5.8v0.2c0,2.6-2.1,4.7-4.7,4.7h-6.8c-2.6,0-4.7-2.1-4.7-4.7c0-3.7,2.5-7.1,5.9-8v-7.6c-3.3-1.2-6.2-3-8.3-5.3
		c-1.9-2.1-3.3-4.7-4.1-7.8c-2.5,0.8-5.2,0.8-7.6,0.2c-1.5-0.4-3.5-1.3-4.3-3.2c-0.9-2.2,0.3-4.6,1.2-6.1c2.2-3.6,5-6.8,8.2-9.5
		c0.6-0.5,1.5-1.2,2.4-1.6l0.2-3.2c0-0.1,0-0.1,0-0.2c-0.2-0.6-0.4-1.2-0.6-1.8c-0.3-0.9-0.6-1.8-0.9-2.8c-1.8-6.8-0.9-14,2.4-19.8
		c3.4-5.9,9.4-10,16.6-11.4c1.4-2.3,3.2-3.4,5.2-2.9c0-0.1,0.1-0.2,0.1-0.4c0.2-0.6,0.4-1.2,0.8-1.7c-0.1-0.2-0.1-0.5-0.1-0.8
		c0-1,0.3-2.1,0.9-3c0.7-1.1,1.7-2,3.1-2.7c1-0.5,1.9-0.7,2.7-0.7c1.2,0.1,2.3,0.8,2.7,1.8c0.4,1,0.1,1.9-0.1,2.5
		c-0.3,0.8-0.9,1.5-1.6,2.2c-0.8,0.7-1.7,1.2-2.7,1.6c0.1,0.1,0.2,0.3,0.3,0.5c0,0.1,0.5,1.8,0,3.8c5.1,1.1,9.6,3.6,12.9,7.2
		c5.3,5.7,7.5,14.4,5.7,22.6c-0.2,1-0.5,2-0.7,2.9c-0.5,1.8-0.9,3.4-1.1,5.1c0,0.3,0,0.7,0,1.1c1.1,0.5,2,1.2,2.7,1.8
		c3.2,2.7,6,5.9,8.2,9.5c1,1.6,2.1,3.9,1.2,6.1c-0.8,1.9-2.8,2.8-4.3,3.2c-0.2,0.1-0.5,0.1-0.7,0.2c0.3,0.8,0.5,1.6,0.5,2.6
		c0.6,0.3,0.9,0.9,1.1,1.7c0.3,1.2,0.6,2.3,0.7,3.4c0.2,1.4-0.3,2.1-0.8,2.3c-0.4,0.2-0.8,0.3-1.1,0.3l-1.1,0c-0.1,0-0.2,0-0.4,0
		c-0.3,0.8-0.7,1.5-1.1,2.2c-1.3,2.1-3.1,3.5-5.1,4.1c-0.5,0.1-1,0.2-1.6,0.2c-2,0-3.8-0.9-4.8-2.4c-0.5-0.7-0.8-1.5-1-2.4
		c-1.4,0.7-2.9,1.2-4.6,1.5v6.9c1.2,0.4,2.3,1,3.3,1.9c1.6,1.5,2.5,3.7,2.5,5.9v0.2C142.3,140.9,140.2,143,137.6,143z M129.7,123.2
		l0,0.5v9l-0.2,0.2c-1.5,1.4-2.3,3.4-2.3,5.5c0,2,1.6,3.7,3.6,3.7h6.8c2,0,3.6-1.6,3.6-3.7v-0.2c0-2-0.8-3.8-2.2-5.2
		c-0.9-0.8-2-1.4-3.2-1.7l-0.4-0.1v-8.5l0.4-0.1c2.1-0.4,3.8-1,5.4-1.9l0.7-0.3l0.1,0.7c0.1,1.1,0.4,2,0.9,2.7
		c1,1.5,3.3,2.3,5.3,1.8c1.8-0.4,3.4-1.7,4.5-3.6c0.4-0.7,0.8-1.5,1.2-2.5l0.2-0.7l0.6,0.5c0.1,0.1,0.2,0.1,0.4,0.1l1,0
		c0.2,0,0.5,0,0.6-0.1c0.1-0.1,0.5-0.3,0.3-1.3c-0.2-1.1-0.4-2.2-0.7-3.3c-0.3-0.9-0.4-1.1-0.8-1.2l-0.4-0.1l0-0.4
		c0-1.2-0.2-2.2-0.7-3.1l-0.3-0.6l0.7-0.1c0.5-0.1,0.9-0.2,1.3-0.3c1.3-0.3,3-1.1,3.6-2.6c0.7-1.8-0.3-3.8-1.1-5.2l0,0
		c-2.2-3.5-4.8-6.6-8-9.3c-0.7-0.6-1.7-1.4-2.7-1.7l-0.3-0.1l0-0.4c0-0.6,0-1.1,0-1.6c0.2-1.8,0.6-3.4,1.1-5.2
		c0.3-1,0.5-1.9,0.7-2.9c1.7-8-0.4-16.3-5.4-21.7c-3.3-3.5-7.9-6-12.9-7l-0.6-0.1l0.2-0.5c0.6-1.9,0.1-3.7,0.1-3.8
		c0,0-0.3,1-1.3,1.5c-0.6,0.3-1.4,0.4-2.3,0.3l-0.5-0.1l0.1-0.5c0.2-0.9,0.5-1.7,0.8-2.4l0.2-0.4l0.4,0.1c0.2,0,0.3,0.1,0.6,0.1
		l0.2,0c1.7,0,3.4-0.6,4.7-1.8c0.6-0.6,1.1-1.2,1.3-1.8c0.2-0.5,0.4-1.1,0.1-1.8c-0.3-0.7-1-1.1-1.8-1.2c-0.6,0-1.3,0.1-2.2,0.6
		c-1.2,0.6-2.1,1.4-2.7,2.3c-0.5,0.8-0.7,1.6-0.7,2.5c0,0.3,0,0.5,0.1,0.7l0.1,0.2l-0.1,0.2c-0.3,0.5-0.6,1.1-0.8,1.7
		c-0.1,0.3-0.1,0.5-0.2,0.8l-0.1,0.5l-0.5-0.2c-0.1,0-0.1,0-0.2,0c-2.1-0.7-3.5,1-4.4,2.6l-0.1,0.2l-0.2,0
		c-7,1.3-12.9,5.2-16.2,10.9c-3.2,5.6-4,12.5-2.3,19c0.3,0.9,0.6,1.9,0.8,2.8c0.2,0.7,0.4,1.4,0.6,2l0.1,0.2l-0.1,0.2l-0.2,3.8
		l-0.3,0.1c-0.9,0.4-1.8,1.1-2.4,1.6c-3.1,2.7-5.8,5.8-8,9.3c-0.8,1.4-1.9,3.4-1.1,5.2c0.6,1.5,2.3,2.3,3.6,2.6
		c2.4,0.6,5,0.5,7.5-0.3l0.5-0.2l0.1,0.5c0.8,3.1,2.2,5.8,4,7.9c2,2.2,4.9,4,8.2,5.1l0.3,0.1v9.2l-0.4,0.1c-3.2,0.7-5.5,3.7-5.5,7.1
		c0,2,1.6,3.7,3.6,3.7h6.8c2,0,3.6-1.6,3.6-3.7v-0.2c0-2-0.8-3.8-2.2-5.2l-0.2-0.2l0-0.2V123l0.6,0c1.3,0.1,2.6,0.2,3.9,0.2
		c0.8,0,1.6,0,2.5,0L129.7,123.2z M128.4,46.3c-0.2,0.4-0.3,0.7-0.4,1.2c0.4,0,0.8-0.1,1.1-0.2c0.6-0.3,0.8-0.9,0.8-0.9
		c0,0,0,0,0-0.1c-0.3,0-0.6,0.1-1,0.1l-0.2,0C128.6,46.4,128.5,46.4,128.4,46.3z"/>
</g>
</svg>
