<?xml version="1.0" encoding="utf-8"?>
<!-- Generator: Adobe Illustrator 24.3.0, SVG Export Plug-In . SVG Version: 6.00 Build 0)  -->
<svg version="1.1" id="레이어_1" xmlns="http://www.w3.org/2000/svg" xmlns:xlink="http://www.w3.org/1999/xlink" x="0px"
	 y="0px" viewBox="0 0 240 240" style="enable-background:new 0 0 240 240;" xml:space="preserve">
<style type="text/css">
	.st0{fill:#FFFFFF;}
	.st1{fill:#EAAE28;}
	.st2{fill:#653109;}
	.st3{fill:#00A2F6;}
	.st4{fill:#02A0F4;}
	.st5{fill-rule:evenodd;clip-rule:evenodd;fill:#FFFFFF;}
	.st6{fill-rule:evenodd;clip-rule:evenodd;fill:#FABDB9;}
	.st7{fill-rule:evenodd;clip-rule:evenodd;}
	.st8{fill:#FA7A7B;}
	.st9{fill:#D34A4C;}
	.st10{fill:#F4C88E;}
	.st11{fill:#A05C2D;}
	.st12{fill:#D1A352;}
	.st13{fill:#3F291D;}
	.st14{opacity:0.39;fill:#BC794B;enable-background:new    ;}
	.st15{fill:#231815;}
	.st16{opacity:0.29;enable-background:new    ;}
	.st17{fill:#FFB91D;}
	.st18{fill:#F6E298;}
	.st19{fill:#FFE89A;}
	.st20{fill:#0085C9;}
	.st21{fill:#FFC533;}
	.st22{fill:#B77B41;}
	.st23{opacity:0.34;fill:#874C23;enable-background:new    ;}
	.st24{opacity:0.51;fill:#874C23;enable-background:new    ;}
	.st25{fill:#D4F2FF;}
	.st26{fill:none;}
	.st27{fill:#FFC840;}
</style>
<g>
	<g id="레이어_5">
		<path class="st0" d="M97.7,135.4c0,0,8.4,3.6,17,3l9,14.1l-28-3"/>
		<path d="M123.8,154h-0.2l-28-3c-0.8-0.1-1.4-0.8-1.3-1.7c0.1-0.8,0.8-1.4,1.7-1.3l24.9,2.7l-6.9-10.7c-5.8,0.1-11.5-1-16.8-3.2
			c-0.8-0.3-1.1-1.2-0.8-2c0.3-0.8,1.2-1.1,2-0.8c0.1,0,8.2,3.5,16.3,2.9c0.5,0,1.1,0.2,1.4,0.7l9,14.1c0.4,0.7,0.2,1.6-0.5,2.1
			C124.3,153.9,124,154,123.8,154L123.8,154z"/>
		<path class="st1" d="M53.2,85.3c-0.9,0-1.8,0.2-2.7,0.7c-0.5,0.3-0.9,0.5-1.4,0.7c2.4-1.3,3.9-3.7,4-6.4c0-3.1-2-5.7-5.3-7
			c1.1,0,2.1,0.1,3.1,0.1h0.2c2.8,0,5.2-2.2,5.2-4.7s-2.2-4.6-5.2-4.7l0,0c1-1.5,1.6-3.2,2-5c0.5-2.4,0.2-4.8-0.9-7
			c-0.8-1.3-2-2.4-3.4-2.9c-1.6-0.6-3.3-0.9-5-0.9h-0.9c-2.1,0-4.2,0.2-6.2,0.6l-0.4,0.1l-0.1-0.1c-1.6-0.6-3.3-0.9-5-0.9h-0.9
			c-2.1,0-4.2,0.2-6.2,0.6c-1.4,0.3-2.6,1.1-3.4,2.3c-0.7,1.1-0.9,2.4-0.5,3.6c0.8,2.1,2.9,3.4,5.1,3.3c0.4,0,0.8,0,1.2-0.1l1.1-0.2
			h0.2h0.4c0.6,0,1.1-0.1,1.7-0.1c-0.1,0.4-0.2,0.9-0.4,1.3l-0.1,0.2L29.5,59c-0.1,0.3-0.3,0.5-0.5,0.8c-0.7,1.1-0.9,2.5-0.5,3.7
			c0.1,0.2,0.1,0.3,0.2,0.5c-1.3,0.1-2.6,0.1-3.9,0.2c-3,0.2-5.2,2.2-5.2,4.7c0.2,2.7,2.5,4.8,5.2,4.7H25l2.9-0.1
			c-0.4,0.1-0.8,0.2-1.2,0.3c-2.3,0.4-3.9,2.5-3.7,4.8c0.3,1.9,1.7,3.5,3.6,4c-1.3,1.1-2.2,2.5-2.6,4c-0.7,2.9,0.2,5.9,2.3,8
			c2.7,2.8,7.1,3.4,9.5,3.5c0.4,0,0.8,0,1.2,0c2.9-0.1,5.8-0.3,8.6-0.8h0.3c3.5-0.5,7-1.6,10.1-3.3c2.5-1.4,3.3-4.2,1.8-6.4
			C56.7,86.1,55,85.2,53.2,85.3z M40.5,58.6c0.1-0.4,0.1-0.8,0.2-1.1H41c0.5,0,1.1-0.1,1.7-0.1c-0.1,0.4-0.2,0.9-0.4,1.3l-0.1,0.2
			L42.1,59c-0.2,0.3-0.3,0.5-0.5,0.8c-0.7,1.1-0.9,2.4-0.5,3.7v0.1c-0.8,0-1.7,0-2.5,0C39.5,62.1,40.2,60.4,40.5,58.6z"/>
		<path d="M37,100c-0.4,0-0.8,0-1.3,0c-2.7-0.1-7.6-0.8-10.9-4.2c-2.6-2.6-3.6-6.3-2.8-9.9c0.3-1,0.7-2,1.3-2.9
			c-1.3-1.1-2.1-2.6-2.4-4.2c-0.2-1.4,0.1-2.8,0.7-4c-2.4-1.1-4-3.4-4.1-6.1c0-3.7,3.1-6.6,7.1-6.8l1.4-0.1c0-0.7,0.2-1.4,0.4-2
			c-0.4,0-0.7,0.1-1.1,0.1c-3.1,0.1-5.9-1.8-7.1-4.7c-0.7-1.8-0.4-3.9,0.6-5.5c1.1-1.7,2.8-2.8,4.7-3.2c2.2-0.4,4.4-0.6,6.6-0.7h1
			c1.8,0,3.5,0.3,5.2,0.8c2.1-0.4,4.2-0.6,6.3-0.6h1c1.9,0,3.8,0.3,5.6,1c1.8,0.8,3.4,2.1,4.4,3.8c1.4,2.6,1.8,5.6,1.1,8.4
			c-0.2,1.1-0.5,2.2-0.9,3.2c2.5,1,4.1,3.4,4.2,6.1c-0.1,2.9-2.1,5.5-4.9,6.4c1.6,2.4,2,5.4,1.1,8.1c2,0.3,3.7,1.4,4.8,3.1
			c1,1.5,1.3,3.3,0.9,5c-0.5,1.9-1.8,3.5-3.5,4.4c-3.3,1.8-7,3-10.7,3.5h-0.3C42.9,99.6,40,99.9,37,100z M28,73.5l-1.2,0.3
			c-2.3,0.4-3.9,2.5-3.6,4.8c0.3,1.8,1.6,3.3,3.4,3.8l0.5,0.1l-0.4,0.3c-1.2,1-2,2.4-2.5,3.9c-0.7,2.8,0.2,5.7,2.2,7.7
			c2.7,2.8,7,3.4,9.3,3.5c0.4,0,0.8,0,1.2,0c2.9-0.1,5.7-0.3,8.6-0.8h0.3c3.5-0.4,6.9-1.5,10-3.2c1.2-0.6,2-1.7,2.3-2.9
			c0.3-1.1,0-2.2-0.6-3.1c-1-1.4-2.7-2.2-4.4-2.2c-0.9,0-1.7,0.2-2.5,0.6c-0.5,0.3-1,0.5-1.5,0.7L49,86.4c2.3-1.2,3.8-3.6,3.8-6.2
			c0-3-1.9-5.5-5.1-6.8l0.1-0.5L51,73h0.2c2.5,0.1,4.7-1.9,4.9-4.4c0-2.4-2.1-4.3-4.9-4.4h-0.5l0.2-0.4c0.9-1.5,1.6-3.2,1.9-5
			c0.5-2.3,0.2-4.7-0.9-6.8c-0.8-1.3-1.9-2.3-3.3-2.8c-1.6-0.6-3.2-0.9-4.8-0.8h-0.9c-2.1,0-4.1,0.2-6.2,0.6L36.4,49h-0.1l-0.2-0.1
			c-1.6-0.6-3.2-0.9-4.9-0.8h-0.9c-2.1,0-4.1,0.2-6.2,0.6c-1.3,0.3-2.4,1-3.1,2.1c-0.7,1-0.8,2.3-0.4,3.4c0.8,2,2.7,3.2,4.9,3.1
			c0.4,0,0.8,0,1.2-0.1c0.4-0.1,0.7-0.1,1.1-0.2h0.1h0.5c0.6,0,1.1-0.1,1.7-0.1h0.4l-0.1,0.3c-0.1,0.5-0.2,0.9-0.4,1.3l-0.1,0.2
			L29.8,59c-0.2,0.3-0.3,0.6-0.5,0.8c-0.7,1-0.9,2.3-0.5,3.5c0,0.1,0.1,0.2,0.1,0.3l0.3,0.5l-1.5,0.1c-0.9,0-1.9,0-2.8,0.1
			c-2.8,0.2-4.9,2.1-4.9,4.4c0.2,2.5,2.3,4.5,4.9,4.4H25l2.9-0.1L28,73.5z M40.1,63.9h-1.5h-0.5l0.3-0.4c0.9-1.5,1.5-3.1,1.9-4.9
			c0.1-0.4,0.1-0.8,0.2-1.1v-0.2l0.5,0c0.6,0,1.1-0.1,1.7-0.1H43l-0.1,0.4c-0.1,0.5-0.2,0.9-0.4,1.3L42.4,59l-0.1,0.2
			c-0.2,0.3-0.3,0.6-0.5,0.8c-0.7,1-0.9,2.3-0.5,3.5l0.1,0.4l-0.4,0.1L40.1,63.9z"/>
		<path class="st1" d="M99.3,69.8l-1.4-16.6c-0.3-2.9-2.7-5.1-5.7-5.1H92c-1.6,0.1-3.2,0.7-4.3,1.9c-0.7,0.6-1.1,1.5-1.3,2.4
			c-1-0.8-2.2-1.2-3.5-1.1h-0.2c-1.6,0.1-3.1,0.7-4.3,1.8c-1,0.9-1.5,2.2-1.4,3.5c0.1,1.6,0.3,3.2,0.4,4.8l-0.8-0.6l-0.4-0.3
			c0.1-0.3,0.3-0.7,0.4-1c1.1-3.9-0.4-7.4-3.7-9c-1.2-0.6-2.5-0.8-3.8-0.8c-0.8,0-1.6,0.1-2.4,0.2l-4.3,0.5
			c-2.8,0.3-5.7,2.2-5.5,5.3c0.2,2.9,2.6,5.1,5.5,5.2c0.2,0,0.4,0,0.6,0h0.4l-0.7,1.1c-1.1,1.7-2.3,3.3-3.6,4.8
			c-0.9,1.2-1.2,2.8-0.7,4.2c0.4,1.4,1.4,2.5,2.8,3.2c0.9,0.4,1.8,0.6,2.8,0.7c1.9,0,3.7-0.9,4.9-2.4c0.7-0.8,1.3-1.6,2-2.5
			c0.5,0.4,0.9,0.8,1.3,1.2c1.2,1,2.6,1.5,4.1,1.4c1.1,0,2.2-0.3,3.1-0.8c0.2,0.3,0.4,0.6,0.7,0.9c-2.7,0.4-5.5,0.9-8.1,1.7
			c-2.1,0.5-3.7,2.2-4.1,4.3c-0.1,0.5-0.2,1-0.2,1.5l0.4,6.9c0,1.1,0.2,2.3,0.6,3.3c0.9,2.2,2.7,3.8,5,4.5c1.4,0.4,2.8,0.6,4.3,0.6
			c1,0,2-0.1,2.9-0.1h0.5c2.6-0.2,5.2-0.5,7.8-1c1.6-0.3,3.1-0.9,4.5-1.8c1.6-1.2,2.6-3.2,2.6-5.2c0.1-1.5,0-3.1-0.1-4.6
			c0-0.7-0.1-1.3-0.1-2V80c0-1-0.1-2.1-0.3-3.1c-0.2-0.7-0.4-1.3-0.8-1.9c1.2-0.2,2.4-0.9,3.3-1.7C98.9,72.4,99.4,71.1,99.3,69.8z
			 M83,84.5l-0.8,0.1c-1,0.1-2,0.2-3,0.2l-0.1-1.5c1.1-0.2,2.3-0.4,3.7-0.6l1.4-0.2l0.1,1.9L83,84.5z M88.7,56.6
			c0-0.9-1.9-1.9-1.9-3.8C86.8,54.7,88.7,55.7,88.7,56.6c0.9-2.8,4.7-8.4,7.5-3.8C93.4,48.2,89.7,53.8,88.7,56.6L88.7,56.6z"/>
		<path d="M82.8,82.6c-1.3,0.2-2.6,0.4-3.7,0.6l0.1,1.5c1,0,2-0.1,3-0.2l0.8-0.1l1.3-0.2l-0.1-1.9L82.8,82.6z"/>
		<path d="M77.6,97.2c-1.7,0-3.3-0.2-4.9-0.7c-2.8-0.8-5.1-3-6.2-5.7c-0.4-1.3-0.7-2.6-0.7-3.9L65.3,80c0-0.7,0-1.4,0.2-2.1
			c0.1-0.5,0.3-1.1,0.5-1.6c-0.7,0.2-1.5,0.3-2.2,0.3c-1.3,0-2.5-0.3-3.7-0.8c-1.8-0.9-3.2-2.5-3.8-4.4c-0.6-2.1-0.2-4.4,1.1-6.2
			c0.8-0.9,1.5-1.8,2.2-2.8c-2.7-1.1-4.6-3.7-4.8-6.6c-0.2-4.4,3.5-7.1,7.3-7.5l4.3-0.5c0.9-0.1,1.8-0.2,2.7-0.2
			c1.6,0,3.2,0.3,4.7,1c1.4,0.6,2.5,1.6,3.4,2.8c1.5-1.3,3.4-2.1,5.4-2.2h0.3c0.8,0,1.6,0.1,2.4,0.4c0.2-0.3,0.5-0.6,0.8-0.9
			c1.5-1.5,3.6-2.4,5.8-2.5h0.3c4-0.1,7.4,3,7.7,7l1.4,16.4c0.1,1.9-0.6,3.8-1.9,5.2c-0.6,0.6-1.3,1.1-2,1.4v0.1
			c0.2,1.1,0.4,2.3,0.3,3.5v0.5c0,0.6,0,1.2,0.1,1.8c0.1,1.6,0.1,3.2,0,4.9c-0.1,2.6-1.4,5.1-3.5,6.7c-1.5,1.1-3.3,1.8-5.1,2.1
			c-2.6,0.5-5.3,0.8-8,1h-0.5C79.7,97.1,78.7,97.2,77.6,97.2z M79.3,71.5c0.2,0.3,0.4,0.6,0.6,0.9l0.4,0.4l-0.5,0.1
			c-2.7,0.4-5.4,0.9-8.1,1.7c-2,0.5-3.5,2.1-3.9,4.1c-0.1,0.4-0.2,0.9-0.2,1.4l0.4,6.9c0,1.1,0.2,2.2,0.5,3.3
			c0.9,2.1,2.6,3.7,4.8,4.3c1.4,0.4,2.8,0.6,4.2,0.6c1,0,2-0.1,2.9-0.1H81c2.6-0.2,5.2-0.5,7.7-1c1.6-0.3,3.1-0.9,4.3-1.8
			c1.6-1.2,2.5-3,2.5-5c0.1-1.5,0.1-3.1,0-4.6c0-0.7-0.1-1.3-0.1-2V80c0-1-0.1-2-0.3-3c-0.1-0.6-0.4-1.2-0.8-1.8l-0.2-0.3l0.4-0.1
			c1.2-0.2,2.3-0.8,3.1-1.7c0.9-0.9,1.3-2.1,1.2-3.3l-1.4-16.6c-0.3-2.8-2.6-4.9-5.4-4.8H92c-1.6,0.1-3,0.7-4.1,1.8
			c-0.6,0.6-1,1.4-1.2,2.2l-0.1,0.4l-0.4-0.3c-1-0.7-2.1-1.1-3.3-1.1h-0.2c-1.5,0.1-3,0.7-4.1,1.7c-0.9,0.9-1.4,2.1-1.3,3.3
			c0.1,1.4,0.2,3,0.4,4.8l0.1,0.6l-2-1.5l0.1-0.2c0.1-0.3,0.3-0.7,0.3-1c1-3.7-0.4-7.2-3.6-8.7c-1.1-0.5-2.4-0.8-3.7-0.8
			c-0.8,0-1.6,0.1-2.4,0.2l-4.3,0.5c-2.7,0.3-5.4,2.1-5.3,5c0.2,2.7,2.5,4.8,5.2,4.9h0.5l1-0.1l-0.3,0.5l-0.7,1.1
			c-1.1,1.7-2.3,3.3-3.6,4.8c-0.9,1.1-1.1,2.6-0.7,4c0.4,1.3,1.4,2.4,2.6,3c0.8,0.4,1.7,0.6,2.7,0.6c1.8,0,3.5-0.9,4.7-2.3
			c0.7-0.8,1.3-1.6,1.9-2.4l0.2-0.2l0.2,0.2c0.5,0.4,1,0.8,1.4,1.2c1.1,1,2.5,1.5,4,1.5c1.1,0,2.1-0.3,3-0.8l0.3-0.1L79.3,71.5z"/>
		<path class="st0" d="M147.2,62.8c-0.5,0.4-1.1,0.7-1.7,0.7c-2.9,0-5.7-5.3-7.4-7.1c-1.3-1.3-2.4-1.8-3.4-1.8
			c-1.4,0-2.6,1.2-3.7,2.7c-0.3,0.5-0.7,1-1.1,1.5c-0.6,0.8-1.1,1.6-1.8,2.4c-1.3,1.7-3.3,2.7-5.4,2.7c-1.9,0-3.7-0.8-5-2.1
			c-1.9-1.9-2.8-4.5-2.5-7.2c0.2-1.5,0.8-3,1.7-4.3c1.2-2,5.3-5.5,5.3-5.5c2.9-2.5,6.6-4,10.4-4.1c1.2,0,2.3,0.2,3.4,0.4
			c1.2,0.3,2.3,0.7,3.3,1.4c1.3,0.8,2.6,1.7,3.7,2.7C146.8,48.3,151.2,59.5,147.2,62.8z"/>
		<path d="M144.9,43c-1.3-1.1-2.7-2.1-4.1-3c-1.2-0.8-2.6-1.3-4-1.6c-1.3-0.3-2.7-0.5-4.1-0.5c-4.1,0-8.2,1.6-12,4.7
			c-0.9,0.7-1.7,1.4-2.5,2.2c-0.7,0.6-1.3,1.2-1.8,1.8c-2,2.1-3.4,4.8-3.8,7.7c-0.4,3.5,0.9,6.9,3.3,9.4c1.8,1.8,4.3,2.9,6.9,2.9
			c2.9,0,5.7-1.4,7.5-3.7c0.7-0.8,1.2-1.7,1.8-2.5l0,0l0.5-0.7c0.2-0.3,0.4-0.6,0.6-0.9c1-1.3,1.4-1.4,1.5-1.5s0.4,0.1,1.4,1
			c0.5,0.6,1,1.2,1.4,1.8c2,2.7,4.4,6,7.9,6c1.3,0,2.5-0.5,3.5-1.3c1.2-1,2.6-2.8,2.6-6.3C151.6,53,148.1,45.7,144.9,43z
			 M147.2,62.8c-0.5,0.4-1.1,0.7-1.7,0.7c-2.9,0-5.7-5.3-7.4-7.1c-1.3-1.3-2.4-1.8-3.4-1.8c-1.4,0-2.6,1.1-3.7,2.7l0,0
			c-0.3,0.5-0.7,1-1.1,1.5c-0.6,0.8-1.1,1.6-1.8,2.4c-1.3,1.7-3.3,2.7-5.4,2.7c-1.9,0-3.7-0.8-5-2.1c-1.9-1.9-2.8-4.5-2.5-7.2
			c0.2-1.5,0.8-3,1.7-4.3c1.2-2,5.3-5.5,5.3-5.5l0,0c2.9-2.5,6.5-3.9,10.3-4.1c1.2,0,2.3,0.2,3.4,0.4c1.2,0.3,2.3,0.7,3.3,1.4
			c1.3,0.8,2.6,1.7,3.7,2.7C146.8,48.3,151.2,59.5,147.2,62.8L147.2,62.8z"/>
		<path class="st2" d="M130.9,57.2L130.9,57.2c-0.3,0.5-0.7,1-1.1,1.5c-0.6,0.8-1.1,1.6-1.8,2.4c-1.3,1.7-3.3,2.7-5.4,2.7
			c-1.9,0-3.7-0.8-5-2.1c-1.9-1.9-2.8-4.5-2.5-7.2c0.2-1.5,0.8-3,1.7-4.3c1.2-2,5.3-5.5,5.3-5.5l0,0c0.8,0.1,1.6,0.5,2.1,1.2l0,0
			c0.7,0.7,1,1.7,0.8,2.6c-0.1,0.7-0.5,1.4-1.1,1.8c0.6-0.4,1.4-0.5,2.1-0.3c1.7,0.5,2.6,2.2,2.3,3.9c-0.1,0.8-0.6,1.5-1.3,2
			c0.5-0.2,1.1-0.3,1.6-0.2C129.9,56,130.6,56.3,130.9,57.2z"/>
		<path class="st0" d="M207.9,58.4c-1.5,1.6-3.7,2.5-5.9,2.5c-2.1,0-4.2-0.8-5.8-2.3l0,0c-1-0.9-3.5-3-3.5-3.2
			c-1.8-1.4-3.5-2.4-5.1-2.4c-0.9,0-1.8,0.4-2.5,1.1c-1.9,2-3.6,7.9-7.2,7.9c-0.5,0-1.1-0.1-1.6-0.3c-4.3-1.8-2-9.1-0.8-12.2
			c2.3-5.6,4.7-9.7,10.7-11.2c1.4-0.4,2.8-0.5,4.2-0.5c4,0.1,7.8,1.4,11.1,3.8l0,0c2.3,1.5,4.4,3.3,6.3,5.3c1.2,1.2,2,2.6,2.3,4.3
			C210.6,53.6,209.8,56.4,207.9,58.4z"/>
		<path d="M212.8,50.3c-0.1-0.6-0.3-1.3-0.6-1.9l0,0c-0.6-1.4-1.4-2.7-2.5-3.8c-0.1-0.1-0.2-0.2-0.3-0.3c-1.9-2-4.1-3.8-6.4-5.4
			c-0.1-0.1-0.2-0.1-0.3-0.2c-3.6-2.5-7.9-3.9-12.3-4c-1.6,0-3.3,0.2-4.9,0.6c-7.6,1.9-10.5,7.6-12.6,12.7
			c-3.2,7.9-2.4,13.8,2.3,15.8c0.8,0.4,1.7,0.6,2.6,0.6c4,0,6.2-3.7,7.7-6.5c0.4-0.8,0.9-1.5,1.4-2.2c0.3-0.3,0.4-0.3,0.5-0.3
			c0.3,0,1.3,0.2,3.3,1.8c0.4,0.4,0.9,0.8,1.4,1.3l0.1,0.1c0.7,0.6,1.4,1.3,1.8,1.6c4.3,4.2,11.3,4.2,15.6-0.2c0,0,0,0,0,0
			C212.4,57.6,213.5,53.9,212.8,50.3z M207.9,58.3c-1.5,1.6-3.7,2.5-5.9,2.5c-2.1,0-4.2-0.8-5.8-2.3l0,0c-1-0.9-3.5-3-3.5-3.2l0,0
			c-1.8-1.4-3.5-2.4-5.1-2.4c-0.9,0-1.8,0.4-2.5,1.1c-1.9,2-3.6,7.9-7.2,7.9c-0.5,0-1.1-0.1-1.6-0.3c-4.3-1.8-2-9.1-0.8-12.2
			c2.3-5.6,4.7-9.7,10.7-11.2c1.4-0.4,2.8-0.5,4.2-0.5c4,0.1,7.8,1.4,11.1,3.8l0,0c2.3,1.5,4.4,3.3,6.3,5.3c1.2,1.2,2,2.6,2.3,4.3
			C210.6,53.6,209.8,56.4,207.9,58.3L207.9,58.3z"/>
		<path class="st2" d="M207.9,58.4c-1.5,1.6-3.7,2.5-5.9,2.5c-2.1,0-4.2-0.8-5.8-2.3l0,0c-1-0.9-3.5-3-3.5-3.2l0,0
			c0.3-1,1.1-1.9,2.2-2.2c0.6-0.2,1.3-0.2,1.9,0c-0.8-0.4-1.3-1.1-1.6-2c-0.5-1.8,0.5-3.6,2.2-4.2c0.8-0.2,1.6-0.1,2.3,0.2
			c-0.7-0.4-1.1-1.1-1.4-1.8c-0.1-0.2-0.1-0.5-0.1-0.8c0-0.8,0.4-1.6,1-2.2c0.3-0.3,0.7-0.6,1.1-0.8c0.2-0.1,0.4-0.2,0.7-0.3
			c0.2,0,0.3,0,0.5,0l0,0c2.3,1.5,4.4,3.3,6.3,5.3c1.2,1.2,2,2.6,2.3,4.3C210.6,53.6,209.8,56.4,207.9,58.4z"/>
		<path class="st3" d="M163.8,221.1c-1.1,0-2.3,0-3.4,0H159c-2.5-0.1-4.7-0.2-6.9-0.4c-0.5-0.1-1-0.1-1.5-0.2h-0.1
			c-12.5-1.1-22.1-3.8-28.2-13.6c-7.6-12.1-8.6-26.3-8.6-37.2c0.1-3.2,0.4-6.5,0.8-9.7c0.7-5.6,1.4-11.4,0.5-15.9
			c-0.1-0.5-0.2-1-0.3-1.5c-0.2-0.9-0.3-1.7-0.5-2.4l0.9-0.5l-0.7-1.7c-0.9-2.1-2-4.2-3.3-6.2c-1-1.6-1.9-3.3-3-5.3
			c-2.3-4.6-3.2-10.8-2.7-18.7l0.2-2.4h-0.3c0.1-3.7,0.5-7.4,1.2-11.1c2.6-11.6,7.9-21.1,14.9-26.6c10.1-8,21.6-13,32.4-14.1
			c1.4-0.1,2.9-0.2,4.3-0.2h4.5c12,0,25.4,5.3,36.8,14.5c7,5.6,12.6,15.5,15.1,27c2.5,10.7,2.2,21.9-1,32.4
			c-0.2,0.6-0.4,1.3-0.6,1.9l-0.3,0.9c-1.1,3-1.3,6.2-0.6,9.3c0.6,2.5,1.5,5,2.6,7.3c0.4,0.9,0.8,1.8,1.1,2.8c2.1,4.9,3.7,10,5,15.3
			c2.1,9.8,1.9,23.9-3.3,33.3C207.2,217.1,182.5,221.1,163.8,221.1L163.8,221.1z"/>
		<path class="st4" d="M158.3,54L158.3,54z"/>
		<path class="st5" d="M111.5,97c0,0.6-0.9,1.5-1.5,2.2c-0.5,0.5-0.9,1-1.3,1.5c-2.7,4.7-3.7,7.2-4.1,13.1c-0.4,5.5,0.7,11,3.4,15.8
			c6.1,10.7,19.5,16.6,35,15.7l5.3-0.3c8.1-0.5,12.4-1,20.2-2l0.4-0.1c1.2-0.1,2.5-0.3,3.7-0.6l0,0c11.7-2.3,25.7-9.1,30-21.3
			c1.8-5.1,3.2-12.4,1.6-17.7c-0.4-1.4-0.6-2.4-0.9-3.4c-0.3-1.3-0.7-2.8-1.5-5.5c-0.3-0.9-0.8-3.3-1.1-4.6c-0.4-1.9-1-3.9-1.4-5.4
			c-1-3.4-2.5-6.6-4.5-9.6c-4.2-6-10.7-10.6-18.9-13.3c-3-1-6.1-1.7-9.2-2.1c-6.3-0.7-12.7-0.5-19,0.6l-1.3,0.3
			c-4.8,1.1-9.4,2.8-13.7,5.1c-6.4,3.4-14.7,9.1-18.1,16.7c-1.4,3.2-2.3,6.7-2.7,10.2c0,0.4-0.1,0.8-0.2,1.2
			c-0.1,0.7-0.2,1.5-0.3,2.3L111.5,97z"/>
		<path class="st6" d="M164.7,111.7c0.7,7.3,7.3,12.7,14.6,12c7.3-0.7,12.7-7.3,12-14.6c-0.7-7.3-7.2-12.7-14.5-12
			C169.4,97.8,164,104.3,164.7,111.7"/>
		<path class="st6" d="M107,117.4c1,7.4,5.6,13,11.6,12c7.3-1.1,11.4-8.7,10.9-14.4c-0.7-7.4-4.8-13.9-12.1-12.9
			S105.9,111.4,107,117.4z"/>
		<path class="st7" d="M140.3,108.3c0.3,1.1,1.3,1.8,2.4,1.6c1.3-0.1,2.2-1,2.1-1.9c-0.3-1.1-1.3-1.8-2.4-1.6
			C141.2,106.4,140.2,107.3,140.3,108.3"/>
		<path d="M155.2,118.2c-4.1,0.7-8.4-0.2-11.9-2.6c-0.5-0.4-0.6-1.1-0.3-1.7c0.4-0.5,1.1-0.6,1.7-0.3c2.9,2.2,9.7,3.6,13.2,0.7
			c0.7-0.5,1.2-1.1,1.6-1.9c-0.4-0.5-0.4-1.1,0-1.6c0.4-0.5,1.2-0.5,1.7-0.1c0.5,0.4,0.7,1,0.7,1.6c0,1.5-1.6,3-2.5,3.8
			C158.3,117.2,156.8,117.9,155.2,118.2z"/>
		<path class="st8" d="M151.4,116.1v-0.2c0.1-1.5,0.6-3,1.5-4.2c0.7-1,1.5-1.9,2.6-2.5c1.2-0.6,2.5-0.9,3.8-0.8
			c1.5,0.3,2.6,1.8,2.3,3.3c0,0,0,0,0,0c-0.5,2.8-2.9,4.8-5.9,5.6C153.8,117.7,151.5,117.5,151.4,116.1z"/>
		<path class="st9" d="M154.5,117c-0.2,0-0.3-0.1-0.4-0.2c-0.2-0.2-0.1-0.5,0.1-0.7c1.5-1.3,2.6-3,3.3-4.8c0.1-0.3,0.4-0.4,0.6-0.3
			c0.2,0.1,0.3,0.3,0.3,0.6c-0.7,2.1-2,3.9-3.6,5.3C154.7,117,154.6,117,154.5,117z"/>
		<path d="M139.1,119c-2.3,0.5-4.7,0-6.6-1.4c-2.2-1.7-3.1-3.5-2.2-4.8c0.3-0.6,1.1-0.8,1.6-0.4s0.8,1.1,0.4,1.6
			c0.4,0.7,0.9,1.3,1.6,1.7c2.9,2.2,7.2,0.9,9.1-1.7c0.4-0.5,1.2-0.6,1.7-0.2c0.5,0.4,0.6,1.1,0.2,1.6
			C143.6,117.3,141.5,118.6,139.1,119z"/>
		<path d="M159.4,105.3h-0.2l-5.4-1.1c-0.5-0.1-0.9-0.7-0.7-1.2c0.1-0.2,0.2-0.4,0.3-0.5l4.8-3.7c0.4-0.3,1-0.2,1.4,0.2
			c0.3,0.4,0.2,1-0.2,1.4l-3.1,2.3l3.3,0.6c0.5,0.2,0.8,0.7,0.6,1.3C160.1,105,159.7,105.3,159.4,105.3L159.4,105.3z"/>
		<path d="M130.8,106.5c-0.5-0.1-0.9-0.5-0.9-1.1c0-0.3,0.2-0.6,0.5-0.8l2.6-1l-2.7-1.8c-0.4-0.4-0.4-1,0-1.4c0.3-0.3,0.7-0.3,1-0.2
			l4.2,2.8c0.3,0.2,0.5,0.6,0.4,0.9c0,0.4-0.3,0.7-0.6,0.8l-4.3,1.7C131,106.5,130.9,106.5,130.8,106.5z"/>
		<path d="M153.9,118.4c-0.9,0-1.7-0.2-2.5-0.7c-0.5-0.4-0.9-1-0.9-1.7l0,0c0-0.1,0-0.2,0-0.3c0.2-2.5,1.3-4.8,3.2-6.5
			c1.5-1.5,3.6-2.2,5.8-2c1,0.1,1.8,0.7,2.4,1.5c0.6,0.9,0.9,1.9,0.7,3c-0.5,3-3,5.4-6.6,6.4C155.2,118.3,154.5,118.4,153.9,118.4z
			 M152.4,116c0,0,0,0.1,0.1,0.2c0.9,0.4,1.9,0.4,2.8,0.1c2.9-0.8,4.8-2.6,5.2-4.8c0.1-0.5,0-1.1-0.4-1.5c-0.3-0.4-0.6-0.6-1.1-0.7
			c-1.5-0.1-3,0.4-4.1,1.5c-1.5,1.3-2.4,3.1-2.6,5.1C152.4,115.9,152.4,115.9,152.4,116z"/>
		<path d="M163.8,222.4c-1.2,0-2.3,0-3.4,0H159c-2.5-0.1-4.8-0.2-7-0.4c-0.5,0-1-0.1-1.5-0.2h-0.1c-12.8-1.1-22.7-3.9-29.1-14.1
			c-7.8-12.4-8.8-26.7-8.8-37.9c0.1-3.3,0.4-6.6,0.8-9.8c0.7-5.5,1.4-11.2,0.5-15.5c-0.1-0.5-0.2-1-0.3-1.4l1.2-0.3l-1.2,0.2
			c-0.2-0.8-0.3-1.6-0.5-2.3l-0.5-2.2c-4.3-4.2-7.4-9.4-9.1-15.1c-1.6-6.3-1.4-13,0.7-19.2c0.1-3.3,0.5-6.6,1.1-9.9
			c2.7-11.9,8.1-21.6,15.3-27.3c10.3-8.2,22-13.3,33-14.4c1.5-0.2,3-0.2,4.4-0.2h4.5c12.2,0,25.9,5.4,37.6,14.7
			c7.2,5.8,12.9,15.9,15.6,27.7c2.5,10.9,2.2,22.3-1.1,33c-0.2,0.7-0.4,1.3-0.6,2l-0.3,0.9c-1,2.8-1.2,5.8-0.6,8.6
			c0.6,2.4,1.5,4.8,2.6,7.1c0.4,1,0.8,1.9,1.1,2.8c2.1,5,3.8,10.2,5.1,15.4l0,0c2.1,10,1.9,24.4-3.4,34.1
			C208,218.3,182.9,222.4,163.8,222.4z M160.4,219.8c1.1,0,2.3,0,3.4,0c18.5,0,42.7-3.9,52.7-22.2c5-9.1,5.2-22.9,3.1-32.4l0,0
			c-1.3-5.1-2.9-10.2-5-15.1c-0.4-0.9-0.7-1.8-1.1-2.7c-1.1-2.4-2-5-2.7-7.6c-0.7-3.3-0.5-6.8,0.6-10l0.3-0.9
			c0.2-0.6,0.4-1.3,0.6-1.9c3.1-10.3,3.4-21.3,1-31.8c-2.5-11.3-7.9-20.9-14.7-26.3c-11.3-9-24.4-14.2-36.1-14.2h-4.5
			c-1.4,0-2.8,0.1-4.2,0.2c-10.6,1.1-21.8,6-31.7,13.9c-6.8,5.4-11.9,14.6-14.5,25.9c-0.6,3.2-1,6.4-1.1,9.6c0,0.1,0,0.2-0.1,0.3
			c-2,5.8-2.2,12-0.7,17.8c1.6,5.4,4.6,10.3,8.7,14.2c0.2,0.2,0.3,0.4,0.3,0.6l0.6,2.5c0.2,0.8,0.3,1.6,0.5,2.5v0.1
			c0.1,0.4,0.2,0.9,0.3,1.4c0.9,4.7,0.2,10.6-0.5,16.3c-0.5,3.2-0.7,6.3-0.8,9.5c0,10.8,1,24.7,8.4,36.6c5.8,9.3,15.1,11.9,27.3,13
			h0.2c0.5,0.1,1,0.1,1.4,0.2c2.1,0.2,4.4,0.3,6.8,0.4L160.4,219.8L160.4,219.8z"/>
		<path class="st10" d="M65.5,181.5c-1.3,3.4-2,7-2,10.7c0,15,10.9,27.5,26.8,33.5c-0.3,0.4-0.4,0.8-0.4,1.2c0,3.5,9.6,6.3,21.4,6.3
			s21.4-2.8,21.4-6.3c0-0.4-0.1-0.9-0.4-1.2c15.9-6,26.8-18.5,26.8-33.5c0-3.7-0.7-7.3-2-10.7c-11,6.8-27.5,11.2-45.9,11.2
			S76.5,188.3,65.5,181.5z"/>
		<path class="st11" d="M144.1,164.9c3.5-2.9,1.6-7.6,1.6-7.6c-1.6-5.6-15.4-9.3-34.3-9.3s-33,3.8-34.3,9.3c0,0-1.6,4.5,1.6,7.6
			c-5.9,4.1-10.5,9.9-13.2,16.6c11,6.8,27.4,11.1,45.8,11.1s34.9-4.4,45.9-11.2C154.6,174.8,150,169,144.1,164.9z"/>
		<path class="st12" d="M108.5,193.2c-26.9,0-43.1-11.1-43.3-11.3l0.6-0.8c0.2,0.1,18.2,12.5,47.7,10.9c0.3,0,26.5-0.1,43.4-11
			l0.5,0.8c-17.1,11-43.6,11.2-43.9,11.2l0,0C111.8,193.1,110.1,193.2,108.5,193.2z"/>
		<path class="st12" d="M132.4,225.4l-0.1,2.1c0,0-6.6,6.1-19.9,5.6c0,0-18.3-1.5-21.5-4.4c0,0-2.6-3.1-0.8-3.8
			c13.7,4.3,28.4,4.5,42.2,0.5"/>
		<path class="st0" d="M104.6,193.3c-8.8,2.5-17.9,4-27,4.3c-1.4,0-2.6,1.3-2.5,2.7c0,0.2,0,0.4,0.1,0.6c1.1,4.4,1.8,8.9,2.9,13.3
			c0.3,1.2,1.4,2,2.6,2c9.3-0.3,18.5-1.7,27.4-4.3c6.7-1.9,13.2-4.3,19.5-7.4c1.1-0.6,1.7-1.9,1.4-3.1l-3.6-12.7
			c-0.4-1.4-1.8-2.2-3.2-1.8c-0.1,0-0.3,0.1-0.4,0.1C116.2,189.6,110.4,191.7,104.6,193.3z"/>
		<path class="st13" d="M78.8,204.8c0.8,2.7,1.8,5.4,3.1,8c0.3,0.5,0.9,0.6,1.4,0.4c0,0,0,0,0,0c0.5-0.3,0.6-0.9,0.4-1.4
			c0,0,0,0,0,0c-1.1-2.4-2.1-4.9-2.8-7.5c-0.1-0.5-0.7-0.8-1.2-0.7C79,203.7,78.7,204.3,78.8,204.8L78.8,204.8z"/>
		<path class="st13" d="M82.1,208.4l5-2.3c0.5-0.3,0.6-0.9,0.4-1.4c0,0,0,0,0,0c-0.3-0.5-0.9-0.6-1.4-0.4l-5,2.3
			c-0.5,0.3-0.6,0.9-0.3,1.4C81.1,208.5,81.7,208.7,82.1,208.4L82.1,208.4z"/>
		<path class="st13" d="M85.2,203l2.2,6.8c0.1,0.5,0.6,0.9,1.2,0.8c0.5-0.1,0.9-0.6,0.8-1.2c0-0.1,0-0.1,0-0.2l-2.2-6.8
			c-0.1-0.5-0.7-0.8-1.2-0.7C85.4,201.9,85.1,202.5,85.2,203L85.2,203z"/>
		<path class="st13" d="M89.8,205.7c0.2,1,0.6,2,1.2,2.8c0.7,1,1.9,1.4,3.1,1.1c1.3-0.4,2.2-1.5,2.4-2.9c0.1-1.3-0.2-2.7-1.1-3.7
			c-0.8-1.1-2.2-1.7-3.6-1.4c-0.5,0.1-0.8,0.7-0.7,1.2s0.7,0.8,1.2,0.7c0.1,0,0.3-0.1,0.2-0.1h0.3l0.3,0.1c-0.2-0.1,0,0,0.1,0
			c0.1,0,0.2,0.1,0.3,0.2c0.1,0.1,0,0,0,0l0.1,0.1c0.1,0.1,0.2,0.2,0.3,0.3s0.2,0.3,0.1,0.1c0.1,0.1,0.1,0.1,0.2,0.2
			c0,0.1,0.1,0.2,0.2,0.3s0.1,0.3,0.1,0.1c0.1,0.2,0.1,0.4,0.2,0.7c0,0,0,0.3,0,0.1c0,0.1,0,0.3,0,0.4c0,0.1,0,0.2,0,0.3
			c0-0.1,0,0,0,0c0,0,0,0.1,0,0.1c0,0.2-0.1,0.3-0.2,0.5c0,0-0.1,0.2-0.1,0.1s0,0,0,0l-0.2,0.2c-0.2,0.1,0,0,0,0l-0.1,0.1l-0.1,0.1
			c-0.2,0.1,0,0,0,0l-0.3,0.1c-0.1,0,0.1,0,0,0h-0.1c-0.2,0,0.1,0-0.1,0l-0.3-0.1c0.2,0.1,0,0-0.1-0.1s-0.2-0.1-0.1-0.1l-0.1-0.1
			c0,0-0.2-0.3-0.1-0.1c-0.1-0.2-0.2-0.3-0.3-0.5c-0.1-0.1-0.1-0.2-0.2-0.3v-0.1c0,0.1,0,0.1,0,0c-0.2-0.4-0.3-0.8-0.4-1.3
			c-0.1-0.5-0.7-0.8-1.2-0.7c-0.5,0.1-0.8,0.7-0.7,1.2L89.8,205.7z"/>
		<path class="st13" d="M100.8,206.7c-0.8-1.7-1.2-3.6-1.2-5.5l-1.5,0.9c2.4,1.5,4.5,3.3,6.5,5.3c0.4,0.4,1,0.4,1.4,0
			c0.1-0.1,0.2-0.3,0.3-0.4c0.8-2.5,0.9-5.3,0.1-7.8c-0.1-0.5-0.7-0.8-1.2-0.7c0,0,0,0,0,0c-0.5,0.1-0.8,0.7-0.7,1.2c0,0,0,0,0,0
			c0.7,2.2,0.7,4.6-0.1,6.7l1.6-0.4c-2-2.2-4.3-4.1-6.9-5.6c-0.5-0.3-1.1-0.1-1.4,0.4c-0.1,0.2-0.1,0.3-0.1,0.5
			c0,2.2,0.5,4.4,1.4,6.5c0.3,0.5,0.9,0.6,1.4,0.4c0,0,0,0,0,0C100.9,207.8,101.1,207.2,100.8,206.7
			C100.8,206.7,100.8,206.7,100.8,206.7L100.8,206.7z"/>
		<path class="st13" d="M115.8,196l3.4,1.8c0.5,0.3,1.1,0.1,1.3-0.4c0.2-0.5,0.1-1-0.3-1.3l-3.4-1.8c-0.5-0.3-1.1-0.1-1.3,0.4
			C115.3,195.2,115.4,195.7,115.8,196z"/>
		<path class="st13" d="M121.3,191.5l-1.8,5.2c-0.1,0.5,0.2,1.1,0.7,1.2c0,0,0,0,0,0c0.5,0.1,1.1-0.2,1.2-0.7c0,0,0,0,0,0l1.8-5.2
			c0.1-0.5-0.2-1.1-0.7-1.2c0,0,0,0,0,0C122,190.7,121.4,191,121.3,191.5C121.3,191.5,121.3,191.5,121.3,191.5z"/>
		<path class="st13" d="M119.2,196.8c0.2,1.8,0.7,3.5,1.3,5.2c0.1,0.2,0.2,0.5,0.5,0.6c0.2,0.1,0.5,0.2,0.8,0.1
			c0.5-0.1,0.8-0.7,0.7-1.2c0,0,0,0,0,0c-0.3-0.8-0.6-1.6-0.8-2.4c-0.1-0.4-0.2-0.8-0.3-1.2c0-0.2-0.1-0.4-0.1-0.6
			c0-0.1,0-0.2,0-0.3v-0.2c0,0.1,0,0.1,0,0c0-0.6-0.4-1-1-1C119.8,195.8,119.2,196.3,119.2,196.8L119.2,196.8z"/>
		<path class="st13" d="M115.8,201.8c-0.8,0.4-1.7,0.8-2.5,1.1c-0.5,0.2-1,0.4-1.4,0.6l-0.6,0.3l-0.3,0.2c0.1,0-0.1,0-0.1,0
			s0.3,0.3,0.2,0.1c0.2,0.2,0.1,0.1,0.1,0s-0.1-0.4-0.1-0.6l-0.3-1.6l-0.6-3.1l-0.5,1.1l4.6-2.6c0.5-0.3,0.6-0.9,0.3-1.4
			c-0.3-0.4-0.8-0.6-1.3-0.3l-4.6,2.6c-0.4,0.2-0.6,0.7-0.5,1.1l0.7,3.6c0.2,1.1,0.2,2.7,1.6,3c0.6,0.1,1.2,0,1.7-0.4
			c0.5-0.3,1-0.5,1.6-0.7c1.1-0.5,2.2-0.9,3.2-1.4c0.5-0.3,0.7-0.9,0.4-1.3C117,201.7,116.4,201.5,115.8,201.8
			C115.9,201.8,115.9,201.8,115.8,201.8L115.8,201.8z"/>
		<path class="st13" d="M110.2,203c-0.3,0-0.5-0.1-0.7-0.4c-0.2-0.4,0-0.8,0.3-1l4.6-2.4c0.4-0.2,0.8,0,1,0.3c0.2,0.4,0,0.8-0.3,1
			l-4.6,2.4C110.4,203,110.3,203,110.2,203z"/>
		<path class="st14" d="M84.3,168.1c9,2.8,18.4,4.2,27.8,4c9.4-0.4,18.8-2,27.8-4.9c3.1-0.9,1.8-5.8-1.3-4.8
			c-8.6,2.7-17.5,4.3-26.5,4.7c-9,0.1-17.9-1.2-26.5-3.9C82.6,162.3,81.3,167.2,84.3,168.1L84.3,168.1z"/>
		<path class="st15" d="M138,156.8c0.1,2.3-12,4.3-26.8,4.3s-26.7-1.9-26.8-4.3c-0.1-2.9,12-4.7,26.8-4.7S137.9,153.9,138,156.8z"/>
		<path class="st16" d="M86.8,222.2c0.5-1.6,0.3-3.4-0.5-4.9c-1.1-2.4-2.9-6.9-5.3-7c-1.1,0.1-2.1,0.7-2.7,1.6
			c-0.7,0.9-1.2,1.9-1.5,3c-0.2,1.1-0.1,2.2,0.1,3.3c2.7,2.2,5.6,4.1,8.6,5.8C86.1,223.5,86.5,222.9,86.8,222.2z"/>
		<path class="st16" d="M103.5,160.8c-2.6-0.6-5.5-0.7-7.5,1.2c-1.5,1.5-2.4,3.5-2.6,5.6c-0.7,5.7-0.5,11.4,0.6,17
			c0.7,3.1,2.7,4.8,5.5,4.4c3.3-0.5,4.1-3.6,4.1-6.5c0-2-1.3-8,1.7-8.5c1.3-0.1,2.6,0.6,3.2,1.8c3.9,6.8,2.4,18.7,7.9,23
			c3.2,2.5,7.9,1.4,10.7-1.5c2.8-3,4.1-7.3,4.6-11.6s-0.6-11.3-0.1-15.6c0-1.2,0.4-2.4,1.1-3.5c1.2-1.5,4.3-0.4,4.9-3.9
			c0.3-1.9-1.7-3.4-3.5-3.7s-3.1,0.4-4.6,1.4s-3.1,2.2-4.8,2.5c-2.3,0.4-4.4-0.8-6.6-1.4c-2.7-0.8-3.9,0.4-6.5,0.9
			S106,161.4,103.5,160.8z"/>
		<path class="st17" d="M32.3,55.2L32.3,55.2C32.3,55.2,32.3,55.2,32.3,55.2z"/>
		<path class="st17" d="M26.2,55.5c0.4-0.1,0.8-0.2,1.2-0.2c0.2,0,0.4-0.1,0.6-0.1c-0.5,0.1-0.5,0.1-0.2,0h0.3
			c0.8-0.1,1.7-0.1,2.5-0.1c0.5,0,0.9,0,1.4,0c0.1,0,0.2,0,0.3,0c0,0.1,0,0.2,0.1,0.3s0,0.3,0,0.4c0,0.3,0,0.7,0,1
			c0,0.2,0,0.3,0,0.5c-0.1,0.7-0.3,1.3-0.6,1.9l-0.1,0.3l0,0l-0.1,0.2c-0.2,0.3-0.4,0.7-0.6,1c-0.8,1.1-0.5,2.6,0.6,3.4
			c0.1,0.1,0.2,0.1,0.4,0.2c1.4,0.7,3.1,0.3,4.1-0.9c1-1.5,1.8-3.2,2.1-5c0.2-0.9,0.2-1.7,0.2-2.6c0.1,0,0.3,0,0.4,0l1.2-0.2
			c0.2-0.1,0.4-0.1,0.6-0.1c-0.5,0.1-0.5,0.1-0.2,0h0.3c0.8-0.1,1.7-0.1,2.5-0.1c0.5,0,0.9,0,1.4,0h0.3c0,0.1,0,0.2,0.1,0.3
			s0,0.3,0,0.4c0,0.3,0,0.7,0,1c0,0.2,0,0.3,0,0.5c-0.1,0.6-0.3,1.3-0.6,1.9c0,0.1-0.1,0.2-0.1,0.3l0,0l-0.1,0.2
			c-0.2,0.3-0.4,0.7-0.6,1c-0.7,1.2-0.4,2.7,0.8,3.4c0.1,0.1,0.2,0.1,0.3,0.2c1.4,0.7,3.1,0.3,4.1-0.9c1-1.5,1.7-3.2,2.1-5
			c0.5-1.9,0.2-4-0.6-5.8c-0.6-0.9-1.4-1.6-2.3-2c-1.3-0.5-2.7-0.7-4.1-0.7c-2.2-0.1-4.4,0.1-6.6,0.6c-0.4,0.1-0.7,0.2-1,0.4
			c-0.3-0.2-0.6-0.4-1-0.5c-1.3-0.5-2.7-0.7-4.1-0.7c-2.2-0.1-4.4,0.1-6.6,0.6c-1.4,0.2-2.4,1.6-2.1,3c0,0.1,0,0.1,0,0.2
			C23.1,55.1,24.7,55.8,26.2,55.5z M44.9,55.4L44.9,55.4L44.9,55.4z M44.9,55.4L44.9,55.4c0,0.1,0,0.1,0,0.2c0,0,0,0,0,0.1
			C44.9,55.5,44.9,55.5,44.9,55.4L44.9,55.4z M32.3,55.1L32.3,55.1L32.3,55.1z M32.3,55.1L32.3,55.1L32.3,55.1L32.3,55.1
			c0,0.1,0,0.1,0,0.2c0,0,0,0,0,0.1C32.3,55.3,32.3,55.2,32.3,55.1L32.3,55.1z"/>
		<path class="st17" d="M44.9,55.4L44.9,55.4C45,55.5,45,55.5,44.9,55.4z"/>
		<path class="st18" d="M55.8,88.7c-1-1.3-2.7-1.6-4.1-0.9c-2.4,1.3-4.9,2.1-7.6,2.4c-2.6,0.4-5.2,0.7-7.8,0.7
			c-1.1,0-2.1-0.2-3.1-0.6L32.8,90l-0.3-0.2c0.1,0-0.5-0.9-0.3-0.4c-0.1-0.2-0.1-0.3-0.2-0.5s0-0.1,0-0.2c0,0,0-0.1,0-0.1
			c0-0.2,0.1-0.3,0.1-0.5c0,0,0.4-0.6,0.2-0.3c0-0.1,0.1-0.1,0.2-0.2c-0.1,0.1-0.1,0.2,0,0c0.1,0,0.2-0.1,0.3-0.1h0.1
			c0.8-0.2,1.5-0.3,2.3-0.3c1.1-0.1,2.3-0.1,3.4-0.1c2.6-0.1,5.1-0.5,7.6-1.3c2.7-1,4.6-2.8,4.6-5.5s-1.9-4.6-4.7-5.4
			c-1.4-0.4-2.8-0.6-4.2-0.6c0-1.1-0.1-2.1-0.2-3.2c3.1,0,6.2,0.1,9.3,0.3c1.4,0.2,2.8-0.8,3-2.3c0.2-1.4-0.8-2.8-2.3-3
			c-0.2,0-0.5,0-0.7,0c-8.7-0.5-17.4-0.5-26.1,0c-1.5-0.1-2.8,1.1-3,2.6c0.1,1.5,1.5,2.7,3,2.6c3.6-0.2,7.2-0.3,10.8-0.3l0.2,3.4
			c-2.9,0.1-5.7,0.5-8.5,1.2c-3.7,0.9-2.1,5.9,1.6,5c2.7-0.6,5.4-1,8.1-1.1c2.3-0.1,5-0.3,7.1,0.3c0.2,0.1,0.4,0.1,0.5,0.2
			c0,0,0,0,0,0.1s0,0.1,0,0.1s0,0.1,0,0.1c0,0.1,0,0.1,0,0.2c0,0,0,0.1-0.1,0.1c-0.3,0.2-0.5,0.3-0.8,0.4c-2,0.6-4,0.9-6.1,0.9
			c-2.3-0.1-4.5,0.1-6.7,0.6C28.8,83,27,84.7,26.3,87c-0.5,2.2,0.2,4.5,1.8,6.1c1.9,2,5,2.7,7.8,2.8c3.2,0,6.4-0.3,9.6-0.8
			c3.2-0.4,6.4-1.4,9.2-3c1.2-0.6,1.7-2.1,1.1-3.3C55.9,88.8,55.9,88.7,55.8,88.7z M44.7,79.9c0,0,0,0-0.2-0.1
			C44.9,80,44.8,79.9,44.7,79.9z M44.7,80.3v0.1l0,0V80.3z"/>
		<path class="st17" d="M80.6,211.2c0.5-0.2,0.8-0.6,0.9-1.1c-0.9-1.2-2-2.1-3.2-2c-1.1,0.2-2,0.8-2.5,1.8c-0.7,0.9-1.1,2-1.2,3.1
			c-0.1,1.7,0.2,3.4,1.1,4.8C74.7,214.1,77.1,212,80.6,211.2z"/>
		<path class="st17" d="M80.6,211.2c0.5-0.2,0.8-0.6,0.9-1.1c-0.9-1.2-2-2.1-3.2-2c-1.1,0.2-2,0.8-2.5,1.8c-0.7,0.9-1.1,2-1.2,3.1
			c-0.1,1.7,0.2,3.4,1.1,4.8C74.7,214.1,77.1,212,80.6,211.2z"/>
		<path class="st17" d="M84.2,214.7c-0.8-1.6-1.7-3.1-2.8-4.5c-0.1,0.5-0.4,0.9-0.9,1.1c-3.5,0.7-5.9,2.9-4.9,6.7
			c0.8,1.5,2,2.7,3.4,3.6c0.7,0.5,1.5,0.8,2.4,0.9c1.8,0,3.3-1.3,3.8-3C85.4,217.8,85.1,216.1,84.2,214.7z"/>
		<path d="M111.1,234.4c-10.9,0-22.7-2.4-22.7-7.6v-0.1c0-0.1,0-0.3,0-0.4c-1.6-0.6-3.2-1.3-4.7-2.1h-0.1h-0.2
			c-3.4,0.6-5.2-0.5-5.6-0.8c-1.3-0.9-2.4-2-3.2-3.4c-0.3-0.5-0.5-1.1-0.6-1.7c-0.1-0.5-0.3-1-0.6-1.4c-7.7-6.9-11.5-15.3-11.5-24.8
			c0-10.5,5.2-20.3,14.5-27.5c-2.4-3.3-1.1-7.3-1-7.8c1.9-7.5,20.4-10.1,35.5-10.1c15.8,0,33.4,2.7,35.5,10.1
			c0.3,0.7,1.5,4.6-0.9,7.8c9.4,7.2,14.5,16.9,14.5,27.4c0,14.6-10.1,27.7-26.4,34.2c0,0.2,0,0.3,0,0.5
			C133.8,232,122.1,234.4,111.1,234.4z M83.9,221.6c0.2,0,0.4,0.1,0.6,0.2c1.6,0.9,3.3,1.7,5,2.3l0.7,0.3c0.5,0.2,0.8,0.7,0.8,1.3
			l-0.1,0.7c0,0.1,0,0.1,0,0.2c0,0.1,0,0.2,0,0.3c0,2.1,7.7,5.1,20.2,5.1s20.2-2.9,20.2-5.1c0,0,0-0.1,0-0.1l-0.2-0.8
			c-0.1-0.6,0.2-1.2,0.8-1.4l0.8-0.3c15.4-6.1,25-18.4,25-32c0-9.8-4.9-18.9-13.7-25.6l-0.8-0.6c-0.3-0.2-0.4-0.5-0.5-0.9
			c0-0.3,0.1-0.7,0.3-0.9l0.7-0.8c1.8-2.1,0.8-5.1,0.6-5.6c-1.2-4.1-12-8.4-33.1-8.4c-20.1,0-32.1,4.3-33.1,8.4
			c-0.1,0.4-1.1,3.4,0.7,5.7l0.6,0.8c0.2,0.3,0.3,0.6,0.3,0.9c0,0.3-0.2,0.6-0.5,0.8l-0.8,0.6c-8.9,6.7-13.8,15.9-13.8,25.6
			c0,8.8,3.6,16.5,10.7,22.9c0.7,0.7,1.1,1.6,1.3,2.6c0.1,0.4,0.2,0.8,0.4,1.1c0.5,1,1.3,1.9,2.3,2.5l0.2,0.1c0,0,1.1,0.8,3.6,0.4
			l0.5-0.2C83.6,221.6,83.7,221.6,83.9,221.6z M83.3,223.1L83.3,223.1z"/>
		<path class="st17" d="M73.5,69.4c1.4,1.2,3.5,1.2,4.9,0c0.6-0.6,1-1.4,1-2.2c0-0.8-0.4-1.6-1-2.2c-1.6-1.5-3.4-2.6-5.1-4
			c0.4-0.7,0.7-1.4,0.9-2.2c0.7-2.5,0.2-5.4-2.5-6.7c-1.6-0.6-3.2-0.7-4.9-0.4l-4.3,0.5c-1.8,0.2-3.6,1.3-3.5,3.1
			c0.1,1.8,1.6,3.2,3.5,3.1l3.6-0.4l1.2-0.2c0,0.1,0,0.1,0,0l0,0c-0.2,0.3-0.4,0.7-0.6,0.9c-0.2,0.4-0.5,0.9-0.7,1.3
			c-0.5,0.8-1,1.7-1.6,2.5c-1.2,1.7-2.4,3.4-3.8,5c-0.5,0.7-0.6,1.6-0.3,2.4c0.3,0.8,0.9,1.5,1.7,1.9c1.6,0.8,3.6,0.4,4.7-1.1
			c1.2-1.4,2.2-2.8,3.3-4.3C71.2,67.5,72.4,68.4,73.5,69.4z M67.6,56.8L67.6,56.8c0,0,0-0.1,0-0.1C67.6,56.7,67.6,56.7,67.6,56.8
			L67.6,56.8z M67.6,56.8C67.6,56.7,67.6,56.6,67.6,56.8C67.6,56.8,67.6,56.8,67.6,56.8L67.6,56.8z"/>
		<path class="st17" d="M93.2,77.3c-0.4-1.6-1.7-2.9-3.3-3.3c-1.7-0.6-3.7-0.2-5.4,0c-4.1,0.4-8.2,1.1-12.2,2.2
			c-1.3,0.3-2.3,1.4-2.5,2.7c-0.1,0.3-0.1,0.6-0.1,0.9c0.1,2.2,0.3,4.4,0.4,6.6c0,1.1,0.2,2.1,0.5,3.1c0.6,1.6,1.9,2.8,3.6,3.2
			c2.1,0.7,4.6,0.4,6.8,0.3c2.5-0.2,5-0.5,7.4-1c1.3-0.2,2.4-0.7,3.5-1.4c1.1-0.9,1.8-2.2,1.8-3.6c0.1-2.1-0.1-4.3-0.1-6.4
			C93.5,79.5,93.4,78.4,93.2,77.3z M84.8,86.3l-1.3,0.2h-0.2l-0.8,0.1c-1.8,0.2-3.6,0.3-5.5,0.2l0-0.9l-0.3-4.3
			c1.9-0.4,3.8-0.8,5.7-1c0.7-0.1,1.4-0.2,2.2-0.3h0.1H85l1.1-0.1h0.4c0,1.4,0.1,2.8,0.1,4.1c0,0.6,0,1.2,0.1,1.8
			C86,86.1,85.4,86.2,84.8,86.3L84.8,86.3z M88,80c0.1,0,0.2,0,0.3,0H88z"/>
		<path class="st19" d="M35,50.5c-1.2-0.4-2.6-0.6-3.9-0.6c-2.2-0.1-4.4,0.1-6.6,0.6c-1.4,0.2-2.4,1.6-2.1,3c0,0.1,0,0.1,0,0.2
			c0.2,0.7,0.7,1.2,1.4,1.5C25.8,51.6,30.8,50.6,35,50.5z"/>
		<path class="st19" d="M44.8,50.1h-1c-2.2-0.1-4.4,0.1-6.6,0.6c-0.4,0.1-0.7,0.2-1,0.4l-0.5-0.3c-0.2,0.9-0.3,1.7-0.3,2.6
			C38.7,54.9,41.3,51.6,44.8,50.1z"/>
		<path class="st19" d="M35,50.5c-1.2-0.4-2.6-0.6-3.9-0.6c-2.2-0.1-4.4,0.1-6.6,0.6c-1.4,0.2-2.4,1.6-2.1,3c0,0.1,0,0.1,0,0.2
			c0.2,0.7,0.7,1.2,1.4,1.5C25.8,51.6,30.8,50.6,35,50.5z"/>
		<path class="st19" d="M36.2,51.1c0.3-0.2,0.6-0.3,1-0.4c2.2-0.4,4.4-0.6,6.6-0.6h1c-0.3,0-0.8,0.4-1,0.5s-0.7,0.4-1,0.6
			c-0.6,0.4-1.2,0.8-1.8,1.2c-1,0.8-2.3,1.2-3.5,1.3c-0.4,0-0.9-0.1-1.3-0.3c-0.1,0-0.2-0.1-0.2-0.1C35.4,52.5,35.6,51.6,36.2,51.1z
			"/>
		<path class="st18" d="M50.2,52.8c-0.6-0.9-1.4-1.6-2.3-2c-1-0.4-2-0.6-3.1-0.6c-3.5,1.5-6.1,4.8-9.3,3.3c0-0.9,0.1-1.8,0.3-2.6
			c-0.2-0.1-0.3-0.2-0.5-0.3L35,50.5c-4.2,0.2-9.2,1.1-11.2,4.7c0.7,0.4,1.5,0.5,2.3,0.3c0.4-0.1,0.8-0.2,1.2-0.2
			c0.2,0,0.4-0.1,0.6-0.1c-0.5,0.1-0.5,0.1-0.2,0h0.3c0.8-0.1,1.7-0.1,2.5-0.1c0.5,0,0.9,0,1.4,0c0.1,0,0.2,0,0.3,0
			c0,0.1,0,0.2,0.1,0.3s0,0.3,0,0.4c0,0.3,0,0.7,0,1c0,0.2,0,0.3,0,0.5c-0.1,0.7-0.3,1.3-0.6,1.9l-0.1,0.3l0,0l-0.1,0.2
			c-0.2,0.3-0.4,0.7-0.6,1c-0.8,1.1-0.5,2.6,0.7,3.4c0.1,0.1,0.2,0.1,0.4,0.2c1.4,0.7,3.1,0.3,4.1-0.9c1-1.5,1.8-3.2,2.1-5
			c0.2-0.9,0.2-1.7,0.2-2.6c0.1,0,0.3,0,0.4,0l1.2-0.2c0.2-0.1,0.4-0.1,0.6-0.1c-0.5,0.1-0.5,0.1-0.2,0h0.3c0.8-0.1,1.7-0.1,2.5-0.1
			c0.5,0,0.9,0,1.4,0h0.3c0,0.1,0,0.2,0.1,0.3s0,0.3,0,0.4c0,0.3,0,0.7,0,1c0,0.2,0,0.3,0,0.5c-0.1,0.6-0.3,1.3-0.6,1.9
			c0,0.1-0.1,0.2-0.1,0.3l0,0l-0.1,0.2c-0.2,0.3-0.4,0.7-0.6,1c-0.7,1.2-0.4,2.7,0.8,3.4c0.1,0.1,0.2,0.1,0.3,0.2
			c1.4,0.7,3.1,0.3,4.1-0.9c1-1.5,1.7-3.2,2.1-5C51.3,56.6,51.1,54.6,50.2,52.8z M32.3,55.1L32.3,55.1L32.3,55.1
			C32.3,55.1,32.3,55.1,32.3,55.1z M32.3,55.2L32.3,55.2L32.3,55.2L32.3,55.2c0,0.1,0,0.1,0,0.2c0,0,0,0,0,0.1
			C32.3,55.3,32.3,55.3,32.3,55.2L32.3,55.2z M44.9,55.3L44.9,55.3L44.9,55.3C44.9,55.3,44.9,55.3,44.9,55.3L44.9,55.3z M44.9,55.4
			L44.9,55.4c0,0.1,0,0.1,0,0.2c0,0,0,0,0,0.1C44.9,55.6,44.9,55.5,44.9,55.4L44.9,55.4z"/>
		<path class="st19" d="M27.3,88.3v-0.1C27.2,88.2,27.2,88.2,27.3,88.3z"/>
		<path class="st19" d="M37.5,76c0.7-1.3-0.5-1.8-1.6-1.9v0.2c-2.9,0.1-5.7,0.5-8.5,1.2c-3.7,0.9-2.1,5.9,1.6,5l0.6-0.1
			C30.9,78.3,35.1,78.3,37.5,76z"/>
		<path class="st18" d="M55.8,88.7c-0.6-0.8-1.5-1.3-2.5-1.3c-5.5,4-13.6,6.5-18.9,3.2c-0.4-0.1-0.8-0.2-1.2-0.4L32.8,90l-0.3-0.2
			c0.1,0-0.3-0.6-0.3-0.5v0.1v-0.1l-0.1-0.4c0-0.1,0-0.2,0-0.2c0,0,0-0.1,0-0.1c0-0.2,0.1-0.3,0.1-0.5c0,0,0.4-0.6,0.2-0.3
			c0-0.1,0.1-0.1,0.2-0.2c-0.1,0.1-0.1,0.2,0,0c0.1,0,0.2-0.1,0.3-0.1h0.1c0.8-0.2,1.5-0.3,2.3-0.3c1.1-0.1,2.3-0.1,3.4-0.1
			c2.6-0.1,5.1-0.5,7.6-1.3c2.7-1,4.6-2.8,4.6-5.5s-1.9-4.6-4.7-5.4c-1.4-0.4-2.8-0.6-4.2-0.6c0-1.1-0.1-2.1-0.2-3.2
			c3.1,0,6.2,0.1,9.3,0.3c1.4,0.2,2.8-0.8,3-2.3c0.2-1.4-0.8-2.8-2.3-3c-0.2,0-0.5,0-0.7,0c-6.1-0.3-12.2-0.4-18.4-0.2
			c-1.9,1.1-3,3.4-4.6,5.4c2.5-0.1,5.1-0.2,7.6-0.2c0,1.1,0.1,2.1,0.2,3.2c1.2,0.1,2.3,0.6,1.6,1.9c-2.4,2.3-6.6,2.2-8,4.4
			c2.5-0.6,5-0.9,7.5-1c2.3-0.1,5-0.3,7.1,0.3c0.2,0.1,0.4,0.1,0.5,0.2c0,0,0,0,0,0.1s0,0.1,0,0.1s0,0.1,0,0.1c0,0.1,0,0.1,0,0.2
			c0,0,0,0.1-0.1,0.1c-0.3,0.2-0.5,0.3-0.8,0.4c-2,0.6-4,0.9-6.1,0.9c-2.3-0.1-4.5,0.1-6.7,0.6c-2.3,0.6-4.1,2.4-4.8,4.6
			c-0.5,2.2,0.2,4.5,1.8,6.1c1.9,2,5,2.7,7.8,2.8c3.2,0,6.4-0.3,9.6-0.8c3.2-0.4,6.4-1.4,9.2-3c1.2-0.6,1.8-2,1.2-3.3
			C55.9,88.8,55.9,88.7,55.8,88.7z M44.7,79.9c0,0,0,0-0.2-0.1C44.9,80,44.8,79.9,44.7,79.9z M44.7,80.3v0.1l0,0V80.3z"/>
		<path class="st19" d="M53.2,87.5c-0.6,0-1.1,0.1-1.6,0.3c-2.3,1.3-4.9,2.1-7.5,2.4c-2.5,0.4-5.1,0.6-7.6,0.6
			c-0.7,0-1.4-0.1-2.1-0.3c1.2,1.8,6.6,2.1,11.5,1.1C50.1,90.8,52.5,89.1,53.2,87.5z"/>
		<path class="st19" d="M37.5,76c0.7-1.3-0.5-1.8-1.6-1.9v0.2c-2.9,0.1-5.7,0.5-8.5,1.2c-3.7,0.9-2.1,5.9,1.6,5l0.6-0.1
			C30.9,78.3,35.1,78.3,37.5,76z"/>
		<path class="st18" d="M78.4,65c-1.6-1.5-3.4-2.6-5.1-4c0.4-0.7,0.7-1.4,0.9-2.2c0.7-2.5,0.2-5.4-2.5-6.7c-0.4-0.2-0.8-0.3-1.2-0.4
			c-4.1,0.3-7.6,2.8-9.3,6.5l-0.1,0.1c0.4,0.2,0.9,0.2,1.3,0.2l3.6-0.4l1.2-0.1c0,0.1,0,0.1,0,0l0,0c-0.2,0.3-0.4,0.7-0.6,0.9
			c-0.2,0.4-0.5,0.9-0.7,1.3c-0.5,0.8-1,1.7-1.6,2.5c-1.2,1.7-2.4,3.4-3.8,5c-0.5,0.7-0.6,1.6-0.3,2.4c0.3,0.8,0.9,1.5,1.7,1.9
			c1.6,0.8,3.6,0.4,4.7-1.1c1.2-1.4,2.2-2.8,3.3-4.3c1.2,0.9,2.4,1.8,3.6,2.8c1.4,1.2,3.5,1.2,4.9,0c0.6-0.6,1-1.4,1-2.2
			C79.4,66.4,79.1,65.6,78.4,65z M67.6,56.8L67.6,56.8c0,0,0-0.1,0-0.1C67.6,56.7,67.6,56.7,67.6,56.8L67.6,56.8z M67.6,56.8
			C67.6,56.7,67.6,56.6,67.6,56.8C67.6,56.8,67.6,56.8,67.6,56.8L67.6,56.8z"/>
		<path class="st19" d="M70.5,51.8c-1.2-0.2-2.5-0.2-3.7,0l-4.3,0.5c-1.8,0.2-3.6,1.3-3.5,3.1c0.1,1.3,0.9,2.5,2.1,3l0.1-0.1
			C62.9,54.6,66.5,52.1,70.5,51.8z"/>
		<path class="st19" d="M70.5,51.8c-1.2-0.2-2.5-0.2-3.7,0l-4.3,0.5c-1.8,0.2-3.6,1.3-3.5,3.1c0.1,1.3,0.9,2.5,2.1,3l0.1-0.1
			C62.9,54.6,66.5,52.1,70.5,51.8z"/>
		<path class="st19" d="M81.9,54.4c1.6-0.8,2.6,0.3,3.9,0.8c-0.6-1.1-1.8-1.8-3.1-1.8c-1.8,0.1-3.6,1.4-3.5,3.1
			c0.2,2.7,0.5,5.5,0.8,8.2C81.6,61.7,79,57.2,81.9,54.4z"/>
		<path class="st18" d="M94.6,51.2c-0.6-0.7-1.5-1-2.5-1c-1.8,0.1-3.6,1.4-3.5,3.1l0.2,2.8C89.8,53.9,92.2,50.2,94.6,51.2z"/>
		<path class="st19" d="M94.6,51.2c-0.6-0.7-1.5-1-2.5-1c-1.8,0.1-3.6,1.4-3.5,3.1l0.2,2.8C89.8,53.9,92.2,50.2,94.6,51.2z"/>
		<path class="st18" d="M95.6,53.4c-0.1-0.8-0.4-1.6-1-2.2c-2.3-1-4.8,2.7-5.7,5c0.1,0.8,0.1,1.5,0.2,2.3l-1.2,0.2l-1.4,0.1
			c-0.1-0.7-0.1-1.3-0.2-2l0,0c0-0.1,0-0.2,0-0.3c-0.1-1.8-1.7-3.2-3.5-3.1c-1.8,0.1-3.6,1.4-3.5,3.1c0.2,2.7,0.5,5.5,0.8,8.2l0,0
			c0.1,0.9,0.2,1.8,0.4,2.6s0.3,1.8,0.4,2.8c0.3,0.8,0.8,1.4,1.6,1.9c0.4,0.2,0.8,0.3,1.3,0.4c0.2,0,0.5,0,0.7,0
			c0.2,0,0.5,0,0.7-0.1c0.2-0.1,0.4-0.1,0.6-0.2c0.4-0.2,0.8-0.4,1.1-0.7c0.1-0.2,0.3-0.3,0.4-0.5c0.1-0.2,0.2-0.4,0.3-0.6
			c0.2-0.6,0.2-1.2,0.1-1.8l-0.3-1.6c0-0.2-0.1-0.4-0.1-0.6c0-0.1,0-0.2,0-0.3c0,0,0-0.1,0-0.1c0-0.3-0.1-0.5-0.1-0.8h0.7
			c0.6-0.1,1.2-0.2,1.8-0.2L90,70c0.1,0.8,0.4,1.6,1,2.2c0.6,0.6,1.5,1,2.4,0.9c1.1,0,2.2-0.5,2.9-1.4c0.4-0.5,0.7-1.1,0.7-1.7
			C96.5,64.4,96,58.9,95.6,53.4z"/>
		<path class="st19" d="M86.3,56.8c0-0.1,0-0.2,0-0.3c-0.2-1.8-1.7-3.2-3.5-3.1c-1.8,0.1-3.6,1.4-3.5,3.1c0.1,1.2,0.2,2.5,0.3,3.7
			c1-1.9,0.6-4.2,2.3-5.8C84.3,53.6,85.4,55.1,86.3,56.8z"/>
		<path class="st19" d="M86.3,56.8c0-0.1,0-0.2,0-0.3c-0.2-1.8-1.7-3.2-3.5-3.1c-1.8,0.1-3.6,1.4-3.5,3.1c0.1,1.2,0.2,2.5,0.3,3.7
			c1-1.9,0-4.3,2.4-5.5C84.6,53.6,85.4,55.1,86.3,56.8z"/>
		<path class="st18" d="M93.4,79.2c-4.6-7.5-14-3.9-20.8-1.2c-3.1,1,0,6.9-1,9.8c-0.5,0.4-0.9,0.3-1.4,0c0,0.6,0.2,1.1,0.4,1.7
			c0.6,1.6,1.9,2.8,3.6,3.2c2.1,0.7,4.6,0.4,6.8,0.3c2.5-0.2,5-0.5,7.4-1c1.3-0.2,2.4-0.7,3.5-1.4c1.1-0.9,1.8-2.3,1.8-3.7
			c0.1-2.1-0.1-4.3-0.1-6.4C93.4,80.1,93.4,79.6,93.4,79.2z M84.8,86.3l-1.3,0.2h-0.2l-0.8,0.1c-1.8,0.2-3.6,0.3-5.5,0.2l0-0.9
			l-0.3-4.3c1.9-0.4,3.8-0.8,5.7-1c0.7-0.1,1.4-0.2,2.2-0.3h0.1H85l1.1-0.1h0.4c0,1.4,0.1,2.8,0.1,4.1c0,0.6,0,1.2,0.1,1.8
			C86,86.1,85.4,86.2,84.8,86.3z M88,80c0.1,0,0.2,0,0.3,0H88z"/>
		<path class="st19" d="M71.6,87.9c1-3-2.1-8.9,1-9.8c6.8-2.8,16.2-6.4,20.8,1.2c0-0.6-0.1-1.2-0.2-1.8c-0.4-1.6-1.6-2.9-3.2-3.3
			c-1.7-0.6-3.7-0.2-5.4,0c-4.1,0.4-8.2,1.1-12.2,2.2c-1.3,0.3-2.3,1.4-2.5,2.7c-0.1,0.3-0.1,0.6-0.1,0.9c0.1,2.2,0.3,4.4,0.4,6.6
			c0,0.5,0,1,0.1,1.5C70.6,88.1,71.1,88.3,71.6,87.9z"/>
		<path class="st19" d="M71.7,89c1-3-1.7-10.1,1.4-11.1c6.8-2.8,16.5-4.2,20.3,1.3c0-0.6-0.1-1.2-0.2-1.8c-0.4-1.6-1.7-2.9-3.3-3.3
			c-1.7-0.6-3.7-0.2-5.4,0c-4.1,0.4-8.2,1.1-12.2,2.2c-1.3,0.3-2.3,1.4-2.5,2.7c-0.1,0.3-0.1,0.6-0.1,0.9c0.1,2.2,0.3,4.4,0.4,6.6
			c0,0.5,0.2,2.1,0.2,2.6C70.8,89.3,71.3,89.4,71.7,89z"/>
		<path class="st0" d="M200.1,142.4c-0.4-1.1-1.2-2.1-2.2-2.8c-2.4-1.7-5.4-1.3-7.8-0.2c-2.2,1-4.5,1.8-6.8,2.4
			c-3.8,1-7.7,1.2-11.6,0.8c2.3,2.5,3.2,6.1,2.2,9.4c-1.1,3.4-4.8,6.1-8.5,6.8c0.6,0.1,1.3,0.3,1.9,0.3c9.7,1.3,22.2-1.5,29.9-8.4
			C200.4,147.9,201.3,145.8,200.1,142.4z"/>
		<path class="st20" d="M174,152c1-3.3,0.1-6.9-2.2-9.4c-1.7-0.3-3.3-0.8-4.8-1.6c-3-1.7-5.6-4.7-7.8-8.9c-0.5-1.1-1-2.2-1.4-3.4
			c-0.8-2.9-2.5-5.4-4.9-7.3c-0.4-0.3-0.8-0.6-1.2-0.8c-2.4-1.3-5.4-1.2-7.7,0.3c-2.4,1.4-4.2,3.7-5,6.4c-1.8,6.6,0.6,10.2,3.4,14.5
			c0.5,0.7,1,1.4,1.4,2.2c3.1,4.8,7.4,8.7,12.5,11.3c0.6,0.4,1.3,0.7,1.9,1L158,156l0.2,0.3c2.3,1.1,4.7,2,7.3,2.5
			C169.2,158.1,172.9,155.4,174,152z"/>
		<path d="M172.1,160.7c-1.6,0-3.3-0.1-4.9-0.3c-4.1-0.6-8-1.9-11.5-4c-5.3-2.7-9.7-6.8-13-11.8c-0.5-0.8-1-1.5-1.4-2.2
			c-2.8-4.3-5.5-8.4-3.5-15.5c0.8-3,2.8-5.6,5.5-7.2c2.7-1.7,6.2-1.8,9-0.3c0.5,0.3,0.9,0.6,1.4,0.9c2.5,2,4.4,4.8,5.3,7.8
			c0.4,1.1,0.8,2.2,1.4,3.2c2.1,4,4.5,6.9,7.3,8.4c3.6,2,8.7,2.2,15.4,0.7c2.3-0.5,4.5-1.3,6.6-2.3c3.3-1.5,6.6-1.4,9,0.3
			c1.2,0.8,2.2,2,2.7,3.4l0,0c1.5,4.3-0.1,6.9-3.2,9.6C191,158.1,180.7,160.7,172.1,160.7z M148.1,120.9c-1.2,0-2.4,0.4-3.5,1
			c-2.2,1.2-3.8,3.3-4.4,5.7c-1.7,6,0.5,9.3,3.2,13.4c0.5,0.7,1,1.4,1.5,2.3c3,4.6,7.2,8.4,12.1,10.9c3.3,1.9,6.9,3.1,10.6,3.7
			c8.7,1.1,21-1,28.9-8.1c2.9-2.6,3.5-4.2,2.5-7c-0.4-0.9-1-1.6-1.8-2.1c-2.3-1.6-5.1-0.7-6.5-0.1c-2.3,1.1-4.6,1.9-7.1,2.4
			c-7.4,1.7-13,1.4-17.2-0.9c-3.2-1.8-6-4.9-8.3-9.4c-0.6-1.1-1.1-2.3-1.5-3.5c-0.7-2.7-2.3-5.1-4.5-6.8c-0.3-0.3-0.6-0.5-1-0.7
			C150.2,121.2,149.2,120.9,148.1,120.9L148.1,120.9z"/>
		<path class="st17" d="M140.6,120.3c-2.7,2.7-4.3,6.2-4.6,10c-0.4,4.1,2.7,9.5,2.7,13.6c0,2.4-1.8,4.6-1.5,7.1
			c0,0.5,0.2,0.9,0.6,1.2c0.3,0.2,0.6,0.3,1,0.3c2.2,0,2.8-2.5,3.2-4.2c0.3-1.2,1.3-10.3,3.7-6.3c0.4,0.6,0.7,1.2,0.9,1.8
			c0.7,1.5,2.4,2.2,4,1.7c1.5-0.5,2.7-1.7,3.3-3.2c0.6-1.5,1.1-3,1.4-4.5c0.2-1,0.7-2.1,1.7-2.2c1.2-0.1,1.1,1.8,2.1,2.4
			c2,1.2,4.3-0.9,4.6-2.9c0.7-4.3-2.7-9.8-5.4-12.7c-1.8-2.2-4.1-3.8-6.8-4.8c-3.7-1-7.6-0.2-10.5,2.3
			C140.9,120,140.8,120.2,140.6,120.3z"/>
		<path class="st21" d="M140.8,123.9c0.2-0.2,0.3-0.3,0.5-0.4c2.9-2.4,6.8-3.3,10.5-2.3c2.6,1,5,2.6,6.8,4.8
			c2.4,2.6,4.2,5.8,5.2,9.2c0,0,0-0.1,0-0.1c0.7-4.3-2.7-9.8-5.4-12.7c-1.8-2.2-4.1-3.8-6.8-4.8c-3.7-1-7.6-0.2-10.5,2.3
			c-0.2,0.2-0.3,0.3-0.5,0.4c-2.7,2.7-4.3,6.2-4.6,10c-0.1,1.2,0,2.4,0.2,3.5C136.5,130.1,138.1,126.6,140.8,123.9z"/>
		<path class="st0" d="M193.8,214.5c-1.2,1.3-2.9,2-4.7,2c-4.2-0.1-5.3-1.6-7.3-4.6c-2.4-3.6-5-8.1-8.7-10.5c2.4-3.7,4.6-9.6,3.7-14
			c-0.1-0.9-0.5-1.7-1-2.4c3.7,1.6,7.2,4.8,9.9,8.1c2.2,2.7,4.3,5.6,6.3,8.5c0.1,0.1,0.2,0.3,0.3,0.4l0.1,0.1
			C195,206.2,198.4,210,193.8,214.5z"/>
		<path class="st3" d="M179.2,189.2c-0.2-0.4-0.5-0.8-0.8-1.1c-2.3-2.7-5.7-2.5-8.8-1.3c-2.6,1-3.2,2.3-4.8,4.5
			c-2.1,2.7-4.4,5.3-6.9,7.6c3.9,5.7,5.8,13.7,6.2,20.6c2.1-2.4,5.3-5.9,7.3-8.5c1.5-1.9,3-3.8,4.6-5.6c0.7-0.9,1.4-1.8,2-2.9
			c1.2-2.1,2-4.5,2.5-6.9C180.8,193.5,180.4,191.2,179.2,189.2z"/>
		<path class="st3" d="M163.9,203c-1.3-3.1-3.4-5.9-6.1-7.9c-3-2.1-6.5-3.3-10.2-3.5c-3-0.1-7.6,1.4-8.9,4.4
			c-0.2,0.3-0.3,0.7-0.4,1.1c-0.2,0.6-0.3,1.2-0.4,1.8c-0.1,0.3-0.1,0.6-0.1,1s-0.1,0.6-0.1,0.9s0,0.4,0,0.7s0,0.5,0,0.7
			c0.2,2.7,0.9,5.4,2,7.9c0.4,0.9,0.7,1.7,1.1,2.5c1.8,3.9,2.8,7.7,5.4,11.2c1.6,1.9,3.9,3.1,6.4,3.5c2.1,0.1,4.3-0.3,6.2-1.2
			c4.3-1.8,6.2-4.1,6.8-8.9C166.3,212.4,165.7,207.5,163.9,203z"/>
		<path d="M153.8,228.4c-3.1,0-6-1.2-8.1-3.4c-1.3-1.6-2.4-3.3-3.2-5.2l-0.7-1.5c-4.9-10.1-9-20.4-0.6-26c2.5-1.7,5.6-2.3,8.6-1.8
			c1.3,0.2,2.6,0.7,3.8,1.3l0.2,0.1c0.1,0,0.2,0,0.3,0.1c2,0.9,3.7,2.2,5.1,3.8l0.6,0.7l0.6-0.6c1.2-1.2,2.3-2.5,3.4-3.9
			c0.4-0.6,0.9-1.1,1.3-1.7c1.5-2.1,3.5-3.7,5.8-4.8c0.4-0.2,0.9-0.3,1.4-0.4c2.9-0.5,5.9,0.2,8.3,2c2.3,1.7,4.2,3.8,5.9,6.1
			c2.9,3.7,5.6,7.6,8,11.7c1.5,2.4,2.4,4.4,1.5,7.7c-0.6,2.7-2.9,4.7-5.6,5c-3.4,0.4-6.8-1.2-8.6-4.2l-0.1-0.1
			c-0.2-0.3-0.3-0.6-0.5-0.9c-1.2-2-2.6-3.9-4-5.7l-0.7-0.9l-8.7,10.5c-0.5,0.6-0.9,1.2-1.3,1.8c-0.3,0.6-0.6,1.1-0.8,1.7
			c-0.1,0.3-0.2,0.6-0.4,0.9c-1.6,3.7-4.8,6.4-8.6,7.5C155.7,228.3,154.8,228.4,153.8,228.4z M147.7,192.8c-1.8,0-3.6,0.5-5.1,1.6
			c-6.7,4.5-2.9,13.8,1.5,22.8l0.7,1.5c0.7,1.7,1.6,3.2,2.8,4.6c1.7,1.7,3.9,2.7,6.3,2.6c0.7,0,1.5-0.1,2.2-0.3
			c3.1-0.8,5.7-3.1,7-6.1c0.1-0.3,0.2-0.6,0.3-0.8c0.3-0.7,0.6-1.4,0.9-2c0.5-0.8,1-1.5,1.6-2.2l9.7-11.7c0.2-0.3,0.6-0.5,1-0.4
			c0.4,0,0.8,0.2,1,0.5l1.5,2.1c1.5,1.9,2.9,3.9,4.2,6c0.2,0.3,0.4,0.6,0.5,0.9l0.1,0.1c1.3,2.1,3.7,3.3,6.1,3
			c1.7-0.2,3.2-1.5,3.5-3.2c0.6-2.2,0.2-3.3-1.3-5.7c-2.4-4-5-7.8-7.8-11.4c-1.5-2.1-3.3-4-5.4-5.6c-1.8-1.4-4.1-1.9-6.3-1.6
			c-0.3,0.1-0.7,0.2-1,0.3c-1.9,0.9-3.6,2.3-4.8,4c-0.4,0.5-0.8,1.1-1.3,1.6c-1.1,1.5-2.3,2.9-3.6,4.2l-1.6,1.5
			c-0.3,0.2-0.6,0.3-0.9,0.3c-0.3,0-0.6-0.2-0.9-0.4l-1.4-1.6c-1.2-1.3-2.6-2.3-4.1-3.1H153c-0.1,0-0.3-0.1-0.4-0.1l-0.3-0.2
			c-1-0.5-2-0.9-3.1-1.1C148.7,192.9,148.2,192.8,147.7,192.8L147.7,192.8z"/>
		<path d="M162.3,206.6c-0.6,0-1.1-0.4-1.2-1c-0.4-2.9-1.7-5.6-3.6-7.7c-0.5-0.5-0.6-1.3-0.1-1.8s1.3-0.6,1.8-0.1
			c0.1,0.1,3.3,3,4.4,9.1c0.1,0.7-0.3,1.3-1,1.4c0,0,0,0,0,0L162.3,206.6z"/>
		<path class="st22" d="M82.6,101.8L82.6,101.8c2.9-1,6,0.5,7.1,3.3l20.5,57.3c1,2.9-0.5,6-3.3,7.1h0c-2.9,1-6-0.5-7.1-3.3
			l-20.5-57.3C78.2,106,79.7,102.8,82.6,101.8z"/>
		<path d="M105.2,170.9c-1,0-2.1-0.2-3-0.6c-1.6-0.7-2.8-2.1-3.3-3.7l-20.5-57.3c-1.2-3.4,0.6-7.1,4-8.3c0,0,0,0,0,0
			c3.4-1.2,7.1,0.6,8.3,4c0,0,0,0,0,0l20.5,57.3c1.2,3.4-0.6,7.1-3.9,8.3C106.5,170.7,105.8,170.9,105.2,170.9z M84.3,102.5
			c-0.5,0-0.9,0.1-1.3,0.3c-2.3,0.8-3.6,3.4-2.7,5.8l20.5,57.3c0.8,2.3,3.4,3.6,5.8,2.7c1.1-0.4,2.1-1.2,2.6-2.3
			c0.5-1.1,0.6-2.3,0.2-3.4l-20.5-57.3C88.1,103.6,86.3,102.4,84.3,102.5z"/>
		<path class="st23" d="M93.1,130.8c-1.2-4-0.7-8.3,1.4-11.9c-0.4-0.4-0.7-0.8-1-1.3c-2.6,4-3.3,9-1.9,13.5c1.4,4.8,5.2,9,10.3,11.9
			c-0.3-0.6-0.5-1.3-0.6-2C97.5,138.7,94.6,135.1,93.1,130.8z"/>
		<path class="st23" d="M96.2,130.2c-0.5-2.1-0.3-4.3,0.6-6.3c-0.4-0.4-0.8-0.9-1.1-1.4c-1,2.5-1.7,5.3-0.9,8
			c0.8,3.1,3.5,5.7,6.3,7.7c-0.1-0.6-0.1-1.3-0.2-2C98.7,134.6,96.9,132.6,96.2,130.2z"/>
		<path class="st23" d="M88.2,118.4c-0.3,0-0.6-0.2-0.7-0.5L82.9,106c-0.2-0.4,0-0.8,0.4-1c0.4-0.2,0.8,0,1,0.4c0,0,0,0.1,0,0.1
			l4.5,11.9c0.2,0.4,0,0.8-0.4,1c0,0-0.1,0-0.1,0C88.3,118.4,88.2,118.4,88.2,118.4z"/>
		<path class="st24" d="M104.5,170.4c-0.3,0-0.6-0.2-0.7-0.5l-3.3-9.3c-0.2-0.4,0-0.8,0.4-1c0.4-0.2,0.8,0,1,0.4c0,0,0,0.1,0,0.1
			l3,8.4c0.1,0.1,0.2,0.3,0.2,0.4l0.1,0.7c0.1,0.4-0.2,0.8-0.5,0.9C104.6,170.4,104.6,170.4,104.5,170.4z"/>
		<path class="st24" d="M108.6,168.3c-0.3,0-0.6-0.2-0.7-0.5c-2.1-5.7-4.1-11.5-6-17.2c-0.1-0.4,0.1-0.8,0.5-0.9
			c0.4-0.1,0.8,0.1,0.9,0.5c1.9,5.7,3.9,11.5,6,17.2c0.2,0.4,0,0.8-0.4,1c0,0,0,0-0.1,0C108.8,168.3,108.7,168.3,108.6,168.3z"/>
		<path class="st20" d="M100,141.3c-1.3,4-6.7,8.2-10.3,7h-0.2c-2.6-1.1-4.7-3.1-6-5.6c-1.3-2.4-2.2-6.2-1-9.3
			c0.6-1.8,2-3.2,3.8-3.8c2.2-0.8,4.7-0.8,6.9,0c1.1,0.4,2.2,0.9,3.1,1.7C99,133.5,101.1,137.8,100,141.3z"/>
		<path d="M97.4,129.9c-3.2-2.6-7.6-3.3-11.5-2c-2.3,0.8-4,2.6-4.8,4.9l-0.1,0.2c-1,3.5-0.6,7.3,1.2,10.5c1.5,2.9,3.9,5.1,6.9,6.3
			h0.2c4.8,1.5,10.9-3.8,12.3-8.1S100.5,132.6,97.4,129.9z M89.5,148.2c-2.6-1.1-4.7-3.1-6-5.6c-1.3-2.4-2.2-6.2-1-9.3
			c0.6-1.8,2-3.2,3.8-3.8c2.2-0.8,4.7-0.8,6.9,0c1.1,0.4,2.2,0.9,3.1,1.7c2.6,2.3,4.8,6.5,3.6,10c-1.3,4-6.7,8.2-10.3,7L89.5,148.2z
			"/>
		<path class="st17" d="M103.5,157.8c-2.6-0.6-5.5-0.7-7.5,1.2c-1.5,1.4-2.2,3.5-2.6,5.6c-1.1,5.5-1.1,11.1,0.1,16.6
			c0.7,3.1,2.5,6.6,5.4,6.2c2.3-0.3,3.5-3.2,3.7-5.8s-0.4-5.1,0.2-7.6c0.3-1.4,1.2-2.8,2.5-3.1s2.3,0.8,3.2,1.8
			c6.4,6.5,2.4,18.7,7.9,23c3.2,2.5,7.9,1.4,10.7-1.5s4.1-7.3,4.6-11.6s-0.6-11.3-0.1-15.6c0-1.2,0.4-2.4,1.1-3.5
			c1.2-1.5,4,0.8,4.6-2.8c0.3-1.9-1.4-4.5-3.1-4.9s-3.1,0.4-4.6,1.4s-3.1,2.2-4.8,2.5c-2.3,0.4-4.4-0.8-6.6-1.4
			c-2.8-0.8-4,0.4-6.5,0.9S106,158.4,103.5,157.8z"/>
		<path class="st17" d="M137.1,160.8c0.3-1.9-1.4-4.5-3.1-4.9s-3.1,0.4-4.6,1.4s-3.1,2.2-4.8,2.5c-2.3,0.4-4.4-0.8-6.6-1.4
			c-2.8-0.8-4,0.4-6.5,0.9s-5.4-0.9-7.9-1.5S98,157.1,96,159c-1.5,1.4-2.2,3.6-2.6,5.6c-0.1,0.4-0.2,0.8-0.2,1.2
			c1.7-1.4,2.8-3.5,4.9-4.3c2.3-0.8,4.7,0.4,6.9,1.5c2.8,1.3,6.2,2.3,8.8,0.7c0.8-0.6,1.6-1.2,2.4-1.7c2.8-1.1,5.6,2.2,8.5,1.9
			c1.2-0.2,2.4-0.8,3.3-1.6c0.9-0.8,1.9-1.5,3-2.1c1.2-0.5,2.5-0.3,3.4,0.5c0.5,0.6,0.7,1.3,1.3,1.8c0.1,0.1,0.3,0.2,0.4,0.2
			C136.7,162.3,137.1,161.6,137.1,160.8z"/>
		<path class="st19" d="M32.7,65.8c-2.6,0.1-5.2,0.1-7.8,0.3c-1.5-0.1-2.8,1.1-3,2.6c0.1,1.5,1.5,2.7,3,2.6l3.2-0.1
			C29.7,69.2,30.8,66.9,32.7,65.8z"/>
		<path class="st19" d="M32.7,65.8c-2.6,0.1-5.2,0.1-7.8,0.3c-1.5-0.1-2.8,1.1-3,2.6c0.1,1.5,1.5,2.7,3,2.6c1-0.1,0.6,0,1.7-0.1
			C25.5,66.9,30.7,66.5,32.7,65.8z"/>
		<path class="st25" d="M36.3,125.1c-0.6-0.8-1.1-1.7-1.4-2.7c-1-3.3,2-4.8,4.8-4.7c0.8,0,1.5,0.1,2.3,0.3c2.2,0.7,3.1,3.1,2.8,5.3
			c-0.4,1.8-1.2,3.5-2.3,5c-1.2,1.9-1.5,2-3,0.3C38.3,127.5,37.3,126.3,36.3,125.1z"/>
		<path d="M41.1,130.3L41.1,130.3c-0.7,0.1-1.3-0.5-2.1-1.4l-0.6-0.6c-0.9-0.9-1.8-1.9-2.6-3l0,0c-0.6-0.9-1.1-1.8-1.5-2.8
			c-0.4-1.2-0.3-2.5,0.5-3.5c1.2-1.3,3-2,4.8-1.8c0.8,0,1.6,0.1,2.4,0.3c2.5,0.8,3.5,3.5,3.1,5.8c-0.4,1.9-1.2,3.7-2.4,5.2
			C42.2,129.6,41.8,130.2,41.1,130.3z M36.7,124.8c0.8,1,1.6,2,2.5,2.9l0.6,0.6c0.3,0.3,1,1.1,1.2,1l0,0c0.2,0,0.8-0.9,1-1.3
			c1.1-1.5,1.8-3.1,2.2-4.8c0.3-1.8-0.3-4-2.4-4.7c-0.7-0.2-1.4-0.3-2.1-0.3c-1.5-0.2-3,0.4-4,1.4c-0.5,0.8-0.6,1.7-0.3,2.6
			C35.7,123.1,36.1,124,36.7,124.8L36.7,124.8z"/>
		<path class="st25" d="M42.9,120.2c1.6-3.1,5.7-2.8,8.1-1.1c1.7,1.1,2.5,3,2.2,5c-0.6,2-2,3.7-4,4.5c-1.8,0.8-5.3,2.4-6.9,0.4
			c-1.1-1.5-0.8-3.8-0.4-5.5C42.1,122.4,42.5,121.3,42.9,120.2z"/>
		<path d="M45.3,130.5c-1.2,0.3-2.5-0.2-3.3-1.2c-1.2-1.6-0.9-3.9-0.5-5.9c0.2-1.2,0.5-2.3,1-3.4l0,0c0.6-1.2,1.7-2.1,3.1-2.4
			c2-0.4,4.1,0,5.8,1.2c1.8,1.2,2.8,3.4,2.4,5.6c-0.6,2.2-2.2,4-4.3,4.8l-0.3,0.1C47.9,129.8,46.6,130.2,45.3,130.5z M43.4,120.5
			c-0.4,1-0.8,2.1-0.9,3.1c-0.4,1.8-0.6,3.9,0.3,5.1c1.3,1.6,4.2,0.4,6-0.4l0.3-0.1c1.8-0.8,3.2-2.3,3.7-4.2c0.3-1.8-0.5-3.5-2-4.5
			c-1.4-1-3.2-1.4-5-1C44.8,118.7,43.9,119.4,43.4,120.5L43.4,120.5z"/>
		<line class="st26" x1="43.9" y1="128.9" x2="46.4" y2="124.9"/>
		<path d="M43.9,129.4c-0.1,0-0.2,0-0.3-0.1c-0.2-0.1-0.3-0.5-0.2-0.7l2.5-4.1c0.1-0.2,0.5-0.3,0.7-0.2c0.2,0.1,0.3,0.4,0.2,0.7
			c0,0,0,0,0,0l-2.5,4C44.2,129.3,44.1,129.4,43.9,129.4z"/>
		<path d="M49.2,133.7l3.4,3c0.3,0.2,0.3,0.6,0.1,0.9c-0.1,0.1-0.2,0.2-0.4,0.2l-4.2,0.7L49.2,133.7z"/>
		<path class="st27" d="M49.4,135.5c-0.3,1.4-1,2.6-2.1,3.5c-2.2,1.8-5.1,2.5-7.9,2c-2.8-0.5-6.1-2.2-7.2-4.9
			c-0.8-2.1-0.5-4.4,0.7-6.3c1.4-1.8,3.6-2.8,5.8-2.6c2.7,0,5.3,0.7,7.6,2c2,1.2,3.2,3.4,3.2,5.7C49.4,135.1,49.4,135.3,49.4,135.5z
			"/>
		<path d="M42.5,141.6c-1.1,0.1-2.2,0.1-3.2-0.1c-2.9-0.5-6.4-2.3-7.5-5.3c-0.8-2.2-0.5-4.7,0.8-6.7c1.5-2,3.8-3,6.3-2.8
			c2.7,0,5.4,0.7,7.8,2.1c2.1,1.3,3.4,3.6,3.4,6.1c0,0.2,0,0.5-0.1,0.7c-0.3,1.5-1.1,2.8-2.3,3.8C46.2,140.6,44.4,141.4,42.5,141.6z
			 M37.5,127.7c-1.7,0.1-3.2,1-4.2,2.3c-1.1,1.7-1.4,3.9-0.7,5.8c1,2.6,4.2,4.2,6.8,4.6c2.7,0.5,5.4-0.2,7.5-1.8c1-0.8,1.7-2,2-3.2
			l0,0c0-0.2,0.1-0.4,0.1-0.6c0-2.1-1.2-4.1-3-5.2c-2.2-1.3-4.7-1.9-7.3-1.9C38.3,127.7,37.9,127.7,37.5,127.7L37.5,127.7z"/>
		<path d="M35.5,135.3c-0.5,0.1-0.9-0.1-1.2-0.4c-0.4-0.6-0.5-1.3-0.3-2c0.1-0.3,0.3-0.4,0.6-0.4c0,0,0,0,0,0
			c0.3,0.1,0.4,0.3,0.4,0.6c-0.1,0.4-0.1,0.8,0.1,1.1c0.1,0.1,0.3,0.2,0.5,0.1c0.3-0.2,0.5-0.5,0.5-0.9c0-0.3,0.1-0.5,0.4-0.6
			c0.3-0.1,0.5,0.1,0.6,0.4c0,0,0,0,0,0c0.2,0.9-0.3,1.7-1.1,2C35.7,135.2,35.6,135.2,35.5,135.3z"/>
		<path d="M41,141.3c1.2-0.7,2.2-1.6,3-2.7c1.2-1.4,2-3.2,2.2-5.1c0.2-1.9-0.4-3.8-1.7-5.1l-4.3-1.1c0.9,0.6,1.4,1.5,1.7,2.5
			c0.4,2.1,0.2,4.2-0.7,6.1c-0.4,1-1,1.8-1.7,2.6c-0.4,0.4-1.6,1.7-2.3,1.5L41,141.3z"/>
		<path d="M37.4,130.5c-0.4,0-0.7,0.3-0.7,0.6c0,0,0,0,0,0v0.1c0,0.4,0.3,0.7,0.7,0.7c0.4,0,0.7-0.3,0.7-0.6v-0.1
			C38.1,130.8,37.8,130.5,37.4,130.5L37.4,130.5z"/>
		<path d="M34.8,130c-0.4,0-0.7,0.3-0.7,0.6c0,0,0,0,0,0v0.1c0,0.4,0.4,0.7,0.8,0.7c0.3,0,0.6-0.3,0.6-0.6v-0.1
			C35.5,130.3,35.2,130,34.8,130C34.8,130,34.8,130,34.8,130z"/>
		<path d="M56.4,139.7c-0.1,0-0.2,0-0.3-0.1c-0.4-0.3-0.8-0.6-1.2-1c-0.2-0.2-0.2-0.5,0-0.7c0,0,0,0,0,0c0.2-0.2,0.5-0.2,0.7,0
			c0,0,0,0,0,0c0.3,0.3,0.7,0.6,1.1,0.9c0.2,0.2,0.3,0.5,0.1,0.7C56.7,139.6,56.6,139.7,56.4,139.7z"/>
		<path d="M64.2,141.6c-0.4,0.1-0.8,0.1-1.2,0.1c-0.3,0-0.5-0.2-0.5-0.5c0,0,0,0,0,0c0-0.3,0.2-0.5,0.5-0.5c1,0,1.9-0.2,2.8-0.4
			c0.3-0.1,0.6,0.1,0.6,0.4c0.1,0.3-0.1,0.6-0.4,0.6C65.5,141.4,64.8,141.6,64.2,141.6z M61,141.5c0,0-0.1,0-0.1,0
			c-1-0.2-2-0.5-3-0.9c-0.3-0.1-0.4-0.4-0.3-0.7c0.1-0.3,0.4-0.4,0.7-0.3c0.9,0.4,1.8,0.7,2.8,0.8c0.3,0.1,0.5,0.3,0.4,0.6
			C61.4,141.3,61.2,141.5,61,141.5z"/>
		<path d="M70.9,148.8h-0.1c-1-0.1-2.1-0.4-3-0.9c-0.3-0.1-0.4-0.4-0.3-0.6c0.1-0.3,0.4-0.4,0.6-0.3c0,0,0,0,0.1,0
			c0.9,0.4,1.8,0.7,2.7,0.8c0.3,0,0.5,0.3,0.4,0.6C71.3,148.6,71.1,148.8,70.9,148.8z M66.3,146.9c-0.1,0-0.3,0-0.4-0.1
			c-0.4-0.3-0.7-0.6-1-0.9c-0.4-0.5-0.8-1-1.1-1.5c-0.1-0.2,0-0.5,0.2-0.7c0.2-0.1,0.5,0,0.7,0.2c0.3,0.5,0.6,0.9,1,1.3
			c0.3,0.3,0.6,0.6,0.9,0.8c0.2,0.2,0.2,0.5,0.1,0.7C66.6,146.8,66.4,146.9,66.3,146.9z M63.6,142.8c-0.2,0-0.5-0.1-0.5-0.4
			c-0.2-0.5-0.3-1-0.3-1.6c-0.1-0.5-0.1-1.1-0.1-1.6c0-0.3,0.3-0.5,0.5-0.5c0.3,0,0.5,0.2,0.5,0.5c0,0.5,0,0.9,0,1.4
			c0.1,0.5,0.2,0.9,0.3,1.4C64,142.4,63.9,142.7,63.6,142.8L63.6,142.8z M67.8,140.4c-0.2,0-0.4-0.1-0.5-0.2
			c-0.1-0.2-0.1-0.5,0.2-0.7c0.8-0.4,1.3-1.2,1.6-2c0.1-0.3,0.3-0.5,0.6-0.4s0.5,0.3,0.4,0.6l0,0c-0.3,1.1-1,2.1-2,2.6
			C68,140.4,67.9,140.4,67.8,140.4z M63.6,137.8c-0.1,0-0.1,0-0.2,0c-0.3-0.1-0.4-0.4-0.3-0.6c0.1-0.3,0.2-0.7,0.4-1
			c0.3-0.7,0.7-1.3,1.2-1.8l0.4,0.3l0.3,0.4h-0.1c-0.4,0.4-0.7,0.9-0.9,1.4c-0.1,0.3-0.2,0.6-0.3,0.9
			C63.9,137.6,63.8,137.8,63.6,137.8z M69.3,136.1c-0.2,0-0.4-0.1-0.5-0.3c-0.2-0.4-0.6-0.8-1-1c-0.3-0.2-0.7-0.2-1-0.2
			c-0.3,0.1-0.5-0.1-0.6-0.4c-0.1-0.3,0.1-0.5,0.4-0.6c0.1,0,0.1,0,0.2,0c0.5,0,1,0.1,1.4,0.4c0.6,0.3,1.1,0.8,1.4,1.4
			c0.1,0.3,0,0.6-0.2,0.7C69.4,136.1,69.4,136.1,69.3,136.1L69.3,136.1z"/>
		<path d="M72.9,148.8c-0.3,0-0.5-0.2-0.5-0.4c0,0,0,0,0,0c0-0.3,0.2-0.5,0.4-0.6c0.5-0.1,0.9-0.2,1.4-0.3c0.3-0.1,0.5,0.1,0.6,0.3
			c0.1,0.3,0,0.5-0.3,0.6c0,0,0,0,0,0C74,148.6,73.5,148.7,72.9,148.8L72.9,148.8z"/>
	</g>
</g>
</svg>
