<?xml version="1.0" encoding="utf-8"?>
<!-- Generator: Adobe Illustrator 26.5.0, SVG Export Plug-In . SVG Version: 6.00 Build 0)  -->
<svg version="1.1" id="레이어_5" xmlns="http://www.w3.org/2000/svg" xmlns:xlink="http://www.w3.org/1999/xlink" x="0px"
	 y="0px" viewBox="0 0 240 240" style="enable-background:new 0 0 240 240;" xml:space="preserve">
<g>
	<g>
		<defs>
			<rect id="SVGID_1_" x="16.5" y="33" width="207" height="207"/>
		</defs>
		<clipPath id="SVGID_00000073685073585428481410000010749010435908560815_">
			<use xlink:href="#SVGID_1_"  style="overflow:visible;"/>
		</clipPath>
		<g style="clip-path:url(#SVGID_00000073685073585428481410000010749010435908560815_);">
			<g>
				<path style="fill:#595959;" d="M84.5,163.3c-0.9-0.3-1.9-0.4-2.8-0.5c-8.5-1-16.4,7-22.3,12.5c-15.1,14.1-21.8,34.2-9.9,54.3
					c3.5,6,8.6,12.8,14.7,15.9c2.6,1.3,5.6,1.5,8.5,1.2c5.3-0.4,11-2.8,12.7-7.5c1.3-3.6-0.3-7.6-2.5-10.8c-2.9-4.3-7-7.8-10.2-11.9
					c-4.1-5.2-6-12.3-3.1-18.1c2.8-5.8,6.9-8.8,11.4-13.5c3.9-4.1,8.2-7.2,9.6-12.8C91.7,166.9,88.8,164.4,84.5,163.3z"/>
				<path d="M70.4,248.1c-2.8,0-5-0.5-6.9-1.5c-5.3-2.7-10.4-8.1-15.2-16.4c-11-18.6-7.2-39.5,10.2-55.9l1.1-1
					c5.7-5.4,13.5-12.9,22.2-11.8c1.1,0.2,2.1,0.3,3,0.5c5.8,1.5,8.2,5.1,6.9,10.3c-1.2,4.8-4.5,8-7.7,11.1
					c-0.8,0.8-1.6,1.5-2.2,2.2c-1,1.1-2.1,2.1-3,3.1c-3.2,3.2-6,6-8.1,10.2c-2.4,4.8-1.2,11.4,3,16.8c1.4,1.7,2.8,3.4,4.3,4.9
					c2.1,2.2,4.1,4.5,5.9,7c2.1,3,4.2,7.5,2.7,11.9c-1.9,5.5-8.4,7.9-13.7,8.4C71.9,248,71.2,248.1,70.4,248.1z M80.1,163.9
					c-6.9,0-13.5,6.2-18.7,11.2l-1.1,1c-16.5,15.5-20.1,35.2-9.7,52.8c4.6,7.7,9.5,13,14.1,15.4c2,1,4.6,1.4,7.8,1.1
					c4.4-0.3,10-2.3,11.6-6.7c1.2-3.5-0.6-7.2-2.3-9.7c-1.6-2.4-3.7-4.6-5.7-6.7c-1.6-1.6-3.1-3.4-4.5-5.1
					c-4.8-6.1-6.1-13.8-3.3-19.5c2.3-4.7,5.3-7.5,8.6-10.9c0.9-0.9,2-2,3-3c0.8-0.8,1.6-1.6,2.3-2.3c3-3,6-5.8,7-9.9
					c0.6-2.3,0.8-5.7-5-7.2l0,0c-0.8-0.2-1.7-0.3-2.7-0.5C81,164,80.5,163.9,80.1,163.9z"/>
			</g>
			<g>
				<path style="fill:#264DA0;" d="M54.1,236.6c-0.9-1.3-4.1-5.8-4.7-7.1c-11.9-20.1-5.2-40.1,9.9-54.3c5.9-5.5,13.7-13.5,22.3-12.5
					c1,0.1,2,0.3,2.8,0.5c4.3,1.1,7.2,3.6,6,8.7c-1.4,5.6-5.7,8.8-9.6,12.9c-4.6,4.7-8.5,7.8-11.4,13.5c-2.8,5.8-0.9,13,3.1,18.1
					c1.6,2.1,3.5,4,5.2,5.9L54.1,236.6z"/>
				<path d="M54.1,237.9c-0.4,0-0.8-0.2-1-0.5l-1-1.5c-1.4-2-3.2-4.7-3.8-5.6c-11-18.6-7.2-39.5,10.2-55.9l1.1-1
					c5.7-5.4,13.5-12.9,22.2-11.8c1.1,0.2,2.1,0.3,3,0.5c5.8,1.5,8.2,5.1,6.9,10.3c-1.2,4.8-4.5,8-7.7,11.1
					c-0.8,0.8-1.6,1.5-2.2,2.2c-1,1.1-2.1,2.1-3,3.1c-3.2,3.2-6,6-8.1,10.2c-2.4,4.8-1.2,11.4,3,16.8c1.4,1.7,2.8,3.4,4.3,5l0.8,0.9
					c0.3,0.3,0.3,0.7,0.3,1c-0.1,0.3-0.3,0.7-0.6,0.9L54.9,238C54.6,237.8,54.4,237.9,54.1,237.9z M80.1,163.9
					c-6.9,0-13.5,6.2-18.7,11.2l-1.1,1c-16.5,15.5-20.1,35.2-9.7,52.8c0.5,0.9,2.4,3.6,3.7,5.4l0.3,0.5l21.2-12.9
					c-1.5-1.6-2.8-3.1-4.2-4.8c-4.8-6.1-6.1-13.8-3.3-19.5c2.3-4.7,5.3-7.5,8.6-10.9c0.9-0.9,2-2,3-3c0.8-0.8,1.6-1.6,2.3-2.3
					c3-3,6-5.8,7-9.9c0.6-2.3,0.8-5.7-5-7.2c-0.8-0.2-1.7-0.3-2.7-0.5C81,164,80.5,163.9,80.1,163.9z"/>
			</g>
			<g>
				<line style="fill:none;" x1="43.9" y1="215.5" x2="68.2" y2="206.9"/>
				<path d="M43.9,216.8c-0.5,0-1-0.3-1.2-0.9c-0.3-0.7,0.1-1.4,0.8-1.6l24.2-8.6c0.7-0.3,1.4,0.1,1.6,0.8c0.3,0.7-0.1,1.4-0.8,1.6
					l-24.2,8.6C44.3,216.7,44.1,216.8,43.9,216.8z"/>
			</g>
			<g>
				<g>
					<path style="fill:#FFC600;" d="M62.4,170c0,0-4.6,3.5-6.3,5.4l9.6,6.6l5.9-5L62.4,170z"/>
					<path d="M65.6,183.4c-0.3,0-0.5-0.1-0.7-0.3l-9.6-6.6c-0.3-0.2-0.5-0.5-0.5-0.9c0-0.3,0.1-0.7,0.3-1c1.8-2,6.3-5.4,6.5-5.6
						c0.4-0.3,1.1-0.3,1.6,0l9.1,7.1c0.3,0.3,0.5,0.6,0.5,0.9c0,0.3-0.2,0.8-0.4,1l-5.9,5C66.2,183.3,65.9,183.4,65.6,183.4z
						 M58.1,175.3l7.5,5.2l4-3.4l-7.1-5.4C61.3,172.5,59.4,174,58.1,175.3z"/>
				</g>
				<g>
					<line style="fill:none;" x1="62.1" y1="174.4" x2="65.3" y2="176.7"/>
					<path d="M65.3,178c-0.3,0-0.5-0.1-0.8-0.3l-3.2-2.3c-0.6-0.4-0.7-1.2-0.3-1.8c0.4-0.6,1.2-0.7,1.8-0.3l3.2,2.3
						c0.6,0.4,0.7,1.2,0.3,1.8C66.1,177.8,65.7,178,65.3,178z"/>
				</g>
				<g>
					<path d="M62.4,170c0,0,7.2-7.2,12.6-8.2l8.8,7.1c0,0-9.8,6-12.3,8.1L62.4,170z"/>
					<path d="M71.5,178.4c-0.3,0-0.5-0.1-0.8-0.3l-9.1-7.1c-0.3-0.3-0.4-0.5-0.5-0.9c0-0.3,0.1-0.7,0.3-0.9
						c0.3-0.3,7.5-7.6,13.3-8.5c0.3-0.1,0.7,0,1,0.3l8.8,7.1c0.3,0.3,0.5,0.7,0.4,1c0,0.4-0.3,0.8-0.6,1c-0.1,0.1-9.8,6-12.2,8
						C72,178.3,71.8,178.4,71.5,178.4z M64.4,170l7.2,5.5c2.5-1.8,7.6-5,10.1-6.6l-7-5.6C70.9,164.2,66.3,168.1,64.4,170z"/>
				</g>
			</g>
			<g>
				<polygon style="fill:#FFC600;" points="45.7,222.1 69.5,211.2 72.5,216.5 48.3,227.8 				"/>
				<path d="M48.3,229c-0.2,0-0.3,0-0.4-0.1c-0.3-0.1-0.6-0.3-0.7-0.7l-2.6-5.7c-0.3-0.6,0-1.4,0.6-1.6l23.6-11
					c0.6-0.3,1.3-0.1,1.6,0.5l3.1,5.3c0.2,0.3,0.3,0.7,0.1,1c-0.1,0.3-0.3,0.6-0.7,0.8l-24.2,11.3C48.7,229,48.5,229,48.3,229z
					 M47.5,222.7l1.6,3.4l21.7-10.2l-1.8-3.1L47.5,222.7z"/>
			</g>
		</g>
	</g>
	<g>
		<defs>
			<rect id="SVGID_00000162320705555298577460000001887634349852214666_" x="16.5" y="33" width="207" height="207"/>
		</defs>
		<clipPath id="SVGID_00000135675120962105358170000007999644132722346663_">
			<use xlink:href="#SVGID_00000162320705555298577460000001887634349852214666_"  style="overflow:visible;"/>
		</clipPath>
		<g style="clip-path:url(#SVGID_00000135675120962105358170000007999644132722346663_);">
			<g>
				<path style="fill:#2C4F9E;" d="M129.7,137.4c-11.6,0-22.5,1.6-22.5,1.6c-0.3,0-20.1,6.6-22.9,27c-1.8,13.4-4.1,20.9-6.2,28.6
					c-1.4,4.6-2.7,9.5-4.2,15.9c-2.4,10.9-0.7,28.4,9.1,41.1c9.4,12,24.3,18.2,44,18.2s34.6-6.1,44-18.2
					c9.7-12.7,11.8-30.2,9.1-41.1c-1.6-6.4-2.7-10.6-4.1-15c-2-7.1-4.1-13.8-6.6-29.5c-2.8-20.2-22.3-27-22.5-27
					C141.5,137.7,135.4,137.4,129.7,137.4z"/>
				<path d="M126.7,271c-20.2,0-35.4-6.3-44.9-18.6c-10-13-11.9-31.1-9.4-42.3c1.6-6.3,2.8-11.3,4.3-16l0.2-0.7
					c2.2-7.7,4.3-14.8,6-27.7c2.9-20.5,22-27.4,24.1-28l0,0c0.1,0,11.1-1.6,22.7-1.6c6.5,0,12.4,0.6,17.3,1.6l0,0
					c2.7,0.6,20.8,8.7,23.5,28c2.5,15,4.6,22,6.4,28.6l0.2,0.7c1.4,4.4,2.4,8.7,4.1,15c2.7,11,0.9,28.8-9.4,42.3
					C162,264.7,146.9,271,126.7,271z M107.4,140.1c-0.9,0.3-19.2,6.9-22,26c-1.8,13-4,20.7-6,28l-0.2,0.7c-1.4,4.7-2.7,9.7-4.2,15.9
					c-2.3,10.5-0.6,27.6,9,40c9.1,11.7,23.6,17.7,43,17.7c19.4,0,33.8-6,43-17.7c9.4-12.1,11.6-29.2,9-40c-1.6-6.4-2.6-10.5-4-14.9
					l-0.3-0.8c-1.9-6.8-3.9-13.7-6.5-28.9c-2.7-19.1-21-25.8-21.6-26c-4.7-1-10.4-1.6-16.7-1.6C118.8,138.6,108.3,140,107.4,140.1z"
					/>
			</g>
			<g>
				<path d="M74.3,233.8c0,0,24.6,9.7,54.9,8.6c0,0,21.1-0.9,31.1-3.6c0,0,17.9-4.1,19.1-5c0,0-4.2,18.9-18,27
					c0,0-12.2,9.7-34.3,9.2c0,0-21.4,0.4-34.3-9.1C92.3,260.9,78.1,251.9,74.3,233.8z"/>
				<path d="M128.5,271.4c-0.5,0-1,0-1.6,0c-0.9,0-21.9,0.3-35.1-9.3l-0.2-0.1c-4.5-3.1-15.3-12.1-18.6-27.9l-0.5-2.3l2.2,0.9
					c0.3,0.1,24.7,9.6,54.4,8.5c0.2,0,21.1-0.9,30.7-3.6c7.2-1.6,17.7-4.2,18.8-4.8l2.6-1.8l-0.8,3.2c-0.2,0.8-4.5,19.4-18.5,27.8
					C160.9,262.7,149.2,271.4,128.5,271.4z M126.9,268.8c21.3,0.4,33.5-8.9,33.6-9l0.2-0.1c10.4-6.1,15.2-18.7,16.8-23.9
					c-4.4,1.3-12.9,3.3-17.1,4.2c-9.7,2.8-30.4,3.6-31.2,3.7c-25,0.9-46.4-5.6-53.1-7.9c3.7,13.9,13.8,21.8,17.1,24.1
					c0.1,0.1,0.2,0.1,0.3,0.2l0,0C105.8,269.2,126.6,268.8,126.9,268.8z"/>
			</g>
		</g>
	</g>
	<g>
		<defs>
			<rect id="SVGID_00000004508237669932220650000014016608862798837668_" x="16.5" y="33" width="207" height="207"/>
		</defs>
		<clipPath id="SVGID_00000132082034922322087570000014589518737156015011_">
			<use xlink:href="#SVGID_00000004508237669932220650000014016608862798837668_"  style="overflow:visible;"/>
		</clipPath>
		<g style="clip-path:url(#SVGID_00000132082034922322087570000014589518737156015011_);">
			<g>
				<path style="fill:#704A1C;" d="M180.6,230.8c-63,20.4-108,0-108,0c-1.6-3.5,0-14.6,0-14.6s45.1,20.6,108,0
					C180.6,216.2,181.3,230.5,180.6,230.8z"/>
				<path d="M124.5,241c-8.3,0-15.6-0.6-21.6-1.5c-19.1-2.5-30.3-7.5-30.8-7.7c-0.3-0.2-0.5-0.3-0.7-0.7c-1.7-3.8-0.3-14.1-0.1-15.3
					c0.1-0.4,0.3-0.8,0.7-0.9c0.3-0.2,0.8-0.2,1.1,0c0.4,0.2,45.4,20.2,107.1-0.1c0.3-0.1,0.8-0.1,1.1,0.2c0.3,0.3,0.5,0.6,0.5,1
					c0.7,15.4,0.2,15.5-0.9,15.9l0,0C159.5,239,140.2,241,124.5,241z M73.6,229.8c5,2.1,48,18.5,106-0.1c0.2-1.7,0.1-6.9-0.2-11.9
					c-20.4,6.5-38.9,8.6-54.6,8.6c-27.1,0-45.8-6.5-51.1-8.5C73.2,221.5,72.9,227.2,73.6,229.8z M180.6,230.8L180.6,230.8
					L180.6,230.8z"/>
			</g>
			<g>
				<path style="fill:#8A8A8A;" d="M133.1,224.3h-13.6c-1.6,0-3.1,1.4-3.1,3.1v8.3c0,1.6,1.4,3.1,3.1,3.1h13.6
					c1.6,0,3.1-1.4,3.1-3.1v-8.3C136,225.6,134.7,224.3,133.1,224.3z M131.8,233.4c0,0.9-0.7,1.4-1.6,1.4h-7.8
					c-0.9,0-1.6-0.7-1.6-1.4v-3.8c0-0.9,0.7-1.4,1.6-1.4h7.8c0.9,0,1.6,0.7,1.6,1.4V233.4z"/>
				<path d="M133.1,240.2h-13.6c-2.4,0-4.5-2.1-4.5-4.5v-8.3c0-2.4,2.1-4.5,4.5-4.5h13.6c2.4,0,4.5,2.1,4.5,4.5v8.3
					C137.4,238.2,135.4,240.2,133.1,240.2z M119.2,225.6c-0.9,0-1.8,0.7-1.8,1.8v8.3c0,0.9,0.7,1.8,1.8,1.8h13.6
					c0.9,0,1.8-0.7,1.8-1.8v-8.3c0-0.9-0.7-1.8-1.8-1.8H119.2L119.2,225.6z M130,236.4h-7.8c-1.6,0-2.8-1.4-2.8-2.7v-3.8
					c0-1.6,1.4-2.7,2.8-2.7h7.8c1.6,0,2.8,1.4,2.8,2.7v3.8C133.1,235,131.8,236.4,130,236.4z M122.3,229.6c-0.3,0-0.3,0-0.3,0.3v3.8
					h0.3h7.8c0.3,0,0.3,0,0.3-0.3v-3.8h-0.3H122.3z"/>
			</g>
			<g>
				<path style="fill:#8A8A8A;" d="M137.6,233.3h-7c-0.9,0-1.6-0.7-1.6-1.6l0,0c0-0.9,0.7-1.6,1.6-1.6h7c0.9,0,1.6,0.7,1.6,1.6l0,0
					C139.2,232.6,138.5,233.3,137.6,233.3z"/>
				<path d="M137.6,234.7h-7c-1.6,0-2.8-1.4-2.8-2.8s1.4-2.8,2.8-2.8h7c1.6,0,2.8,1.4,2.8,2.8C140.5,233.3,139.2,234.7,137.6,234.7z
					 M130.6,231.2c-0.3,0-0.3,0.3-0.3,0.3c0,0.3,0.3,0.3,0.3,0.3h7c0.3,0,0.3-0.3,0.3-0.3c0-0.3-0.3-0.3-0.3-0.3H130.6z"/>
			</g>
		</g>
	</g>
	<g>
		<defs>
			<rect id="SVGID_00000130621276448867933960000005893536947307088808_" x="16.5" y="33" width="207" height="207"/>
		</defs>
		<clipPath id="SVGID_00000099628263291939773640000008876143960221079470_">
			<use xlink:href="#SVGID_00000130621276448867933960000005893536947307088808_"  style="overflow:visible;"/>
		</clipPath>
		<g style="clip-path:url(#SVGID_00000099628263291939773640000008876143960221079470_);">
			<path style="fill:#704A1C;" d="M87.4,299.1c0,0.3-0.3,0.4-0.4,0.4s-16.4,1.7-20,12.7c-1.3,4.1-1.6,9.1,1.6,12.4
				c3.9,4.7,12.9,4.6,18.5,5c4.7,0.4,9.4,0.3,14-0.7c2.6-0.4,5.3-1,7.6-2.3c5-2.8,4.1-8.8,4.3-13.7c0-0.9,0.4-12.4,0.7-12.4
				C113.6,300.3,87.4,299.1,87.4,299.1z"/>
			<path d="M91.7,331.1c-1.6,0-3.3-0.1-4.9-0.3c-0.7-0.1-1.6-0.1-2.4-0.2c-5.6-0.3-13.2-0.7-16.9-5.2c-2.8-3.2-3.5-8.2-1.7-13.6
				c3.6-10.7,17.7-13.1,20.7-13.5c0.1-0.1,0.1-0.1,0.2-0.2c0.3-0.3,0.6-0.3,0.9-0.3l24.9,1.2c0.3,0,0.7,0,0.9,0.1c0.1,0,0.1,0,0.2,0
				l0,0c0.8,0.1,1.2,0.4,1.2,1.2c0,0.2,0,0.3-0.1,0.4c-0.2,1.4-0.6,11.1-0.6,12.1c0,0.8-0.1,1.6-0.1,2.4c-0.1,4.6-0.1,9.7-4.9,12.4
				c-2.4,1.5-5.5,2.2-7.9,2.5C98.1,330.7,94.9,331.1,91.7,331.1z M88,300.3c-0.3,0.3-0.7,0.4-1,0.4c-0.1,0-15.4,1.6-18.9,11.9
				c-0.7,2.2-2,7.7,1.3,11.3c3,3.6,10,4.1,15.1,4.4c0.9,0.1,1.7,0.1,2.5,0.2c4.7,0.4,9.3,0.3,13.6-0.7c2.2-0.4,5-0.9,7.2-2.2
				c3.6-2.1,3.6-6.1,3.6-10.4c0-0.8,0-1.6,0.1-2.4c0-0.4,0.1-3.6,0.3-6.6c0.1-1.6,0.2-3,0.3-4.1c0-0.3,0-0.4,0-0.6
				C108,301.2,95.6,300.7,88,300.3z M113.8,301.5c-0.1,0-0.3,0.1-0.4,0.1C113.5,301.5,113.6,301.5,113.8,301.5z M87,298.2
				c-0.1,0-0.1,0-0.2,0C86.9,298.2,87,298.2,87,298.2z"/>
		</g>
	</g>
	<g>
		<defs>
			<rect id="SVGID_00000092434141416808858010000002593720829037274538_" x="16.5" y="33" width="207" height="207"/>
		</defs>
		<clipPath id="SVGID_00000154400812029695949620000012305540601364899488_">
			<use xlink:href="#SVGID_00000092434141416808858010000002593720829037274538_"  style="overflow:visible;"/>
		</clipPath>
		<g style="clip-path:url(#SVGID_00000154400812029695949620000012305540601364899488_);">
			<path d="M113.4,304.6c0-2.6,3.9-46.9,4.3-53.4l-22.3-5l-7.6,51.7l-0.3,1c0,0,3.6,11.6,25.8,7.1L113.4,304.6L113.4,304.6z"/>
			<path d="M104,308.4c-14.5,0-17.3-8.5-17.5-9.1c-0.1-0.2-0.1-0.4,0-0.6l0.3-1l7.5-51.6c0.1-0.3,0.3-0.7,0.5-0.8
				c0.3-0.2,0.7-0.3,0.9-0.2l22.3,5c0.6,0.2,0.9,0.7,0.9,1.3c-0.2,2.7-0.9,12.2-1.8,22.1c-1.1,13.3-2.5,29.8-2.5,31.1v1.6
				c0,0.6-0.4,1-0.9,1.2C110,308.1,106.7,308.4,104,308.4z M113.4,306.2L113.4,306.2L113.4,306.2z M88.9,298.9
				c0.7,1.6,5,9.6,23.4,6.2v-0.5c0-1.6,1.3-16.7,2.5-31.4c0.7-9,1.5-17.4,1.7-21l-20.2-4.5l-7.3,50.4L88.9,298.9z"/>
		</g>
	</g>
	<g>
		<defs>
			<rect id="SVGID_00000099619719443327771850000008049687813584455052_" x="16.5" y="33" width="207" height="207"/>
		</defs>
		<clipPath id="SVGID_00000057857610857809965750000013894295430605893799_">
			<use xlink:href="#SVGID_00000099619719443327771850000008049687813584455052_"  style="overflow:visible;"/>
		</clipPath>
		<g style="clip-path:url(#SVGID_00000057857610857809965750000013894295430605893799_);">
			<g>
				<path style="fill:#704A1C;" d="M138.6,300.3c0.3,0,0.7,11.6,0.7,12.4c0.3,5-0.7,11,4.3,13.7c2.3,1.3,5,2,7.6,2.3
					c4.7,0.9,9.4,0.9,14,0.7c5.6-0.4,14.7-0.4,18.5-5c3-3.5,2.8-8.4,1.6-12.4c-3.5-11-19.8-12.7-20-12.7c-0.3,0-0.4-0.3-0.4-0.4
					C164.9,299.1,138.6,300.3,138.6,300.3z"/>
				<path d="M160.5,331c-3,0-6.4-0.2-9.7-0.8c-2.2-0.4-5.1-0.9-7.9-2.5c-4.8-2.7-4.9-7.9-4.9-12.4c0-0.8,0-1.6-0.1-2.3
					c0-0.9-0.4-10.8-0.6-12.2c-0.1-0.1-0.1-0.3-0.1-0.4c0-0.7,0.5-1.2,1.1-1.2c8.7-0.4,25.3-1.2,26-1.3h0.1c0.4,0,0.7,0.2,0.9,0.5
					c3,0.4,17.3,2.8,20.7,13.5c1.7,5.4,1,10.4-1.8,13.6c-3.7,4.4-11.6,4.9-17.3,5.2c-0.7,0.1-1.5,0.1-2.2,0.2
					C163.7,330.9,162.2,331,160.5,331z M139.9,301.5c0,0.2,0,0.4,0,0.6c0.1,1.1,0.2,2.6,0.3,4.1c0.2,3,0.3,6.2,0.3,6.6
					c0,0.7,0,1.6,0.1,2.3c0,4.3,0.1,8.3,3.6,10.4c1.9,1,4.1,1.7,7.2,2.2c5,0.9,9.9,0.8,13.7,0.7c0.7-0.1,1.3-0.1,2.2-0.2
					c5.3-0.3,12.4-0.8,15.5-4.4c3.2-3.6,2-9.1,1.3-11.3c-3.2-10.2-18.8-11.8-19-11.9l0,0c-0.3,0-0.7-0.2-0.9-0.4c-0.2,0-0.3,0-0.4,0
					L139.9,301.5z M138.2,301.5c0.1,0.1,0.3,0.1,0.4,0.1C138.5,301.5,138.3,301.5,138.2,301.5z M165.1,298.2c0,0,0.1,0,0.2,0
					C165.1,298.2,165.1,298.2,165.1,298.2z"/>
			</g>
			<g>
				<path d="M138.8,304.6c0-2.6-3.9-46.9-4.3-53.4l22.3-5l7.6,51.7l0.3,1c0,0-3.6,11.6-25.8,7.1L138.8,304.6L138.8,304.6z"/>
				<path d="M148.3,308.4c-2.8,0-6-0.3-9.7-1c-0.6-0.1-0.9-0.7-0.9-1.2v-1.6c0-1.5-1.4-17.9-2.5-31.2c-0.8-9.9-1.6-19.4-1.8-22.1
					c0-0.6,0.3-1.1,0.9-1.3l22.3-5c0.3-0.1,0.7,0,0.9,0.2c0.3,0.2,0.5,0.5,0.5,0.8l7.6,51.7l0.2,0.9c0,0.2,0,0.4,0,0.6
					C165.6,299.8,162.8,308.4,148.3,308.4z M140,305.1c18.1,3.5,22.6-4.7,23.4-6.2l-0.2-0.7l-7.3-50.5l-20.1,4.5
					c0.3,3.6,0.9,12.1,1.7,21c1.2,14.7,2.5,29.8,2.5,31.4V305.1L140,305.1z"/>
			</g>
		</g>
	</g>
	<g>
		<defs>
			<rect id="SVGID_00000126288620831498711740000014470139581439693191_" x="16.5" y="33" width="207" height="207"/>
		</defs>
		<clipPath id="SVGID_00000165213065585495866870000007419049683039452566_">
			<use xlink:href="#SVGID_00000126288620831498711740000014470139581439693191_"  style="overflow:visible;"/>
		</clipPath>
		<g style="clip-path:url(#SVGID_00000165213065585495866870000007419049683039452566_);">
			<path d="M122.5,193.6c0.3,0.3,0.5,0.5,0.6,0.9c0.1,0.3,0,0.8-0.1,1.1c-1.7,5.9-3.7,11.6-5.9,17.3c-0.2,0.4-0.3,0.9-0.3,1.4
				s0.3,0.9,0.5,1.4c2,3.5,4.2,6.9,6.7,10.1c0.3,0.3,0.5,0.7,0.9,0.9c3,1.6,6.4-5.5,7.4-7.4c1.4-2.3,2.4-4.3,1.8-7
				c-0.5-2.6-2.1-4.9-2.9-7.3c-1.1-2.9-2.6-6.6-2.8-9.7c0-0.5,0.3-0.9,0.7-1.4c1.1-1.4,2.3-2.7,3.2-4.2c0.9-1.6,1.2-3.5,0.6-5.1
				c-1.5-4.1-7.2-4.1-10-1.4c-1.1,1.1-2.2,2.8-3.1,4.1C118.1,189.5,120.6,191.8,122.5,193.6z"/>
			<g>
				<path style="fill:#264DA0;" d="M101.5,172.4c-0.1,7,6,14.3,11.6,17.7c2.2,1.4,2.7,1.7,5,0.6c2.8-1.4,5.7-4.3,7.8-6.3
					c2.3,1.9,4.6,6.7,7.5,7.6c3.9,1.1,9.7-5.4,11.9-8c3.3-3.7,5.5-8.5,3.9-13.5c-3.5-10.3-14.9-14.2-24.9-13.8
					c-7.1,0.3-16.5,3.3-20.8,9.3C102.1,168,101.5,170.1,101.5,172.4z"/>
				<path d="M134.4,193.3c-0.4,0-0.9-0.1-1.3-0.2c-2.2-0.6-3.9-2.8-5.5-4.9c-0.6-0.8-1.1-1.6-1.7-2.1c-2.1,2-4.7,4.4-7.3,5.7
					c-2.8,1.3-3.6,0.9-6-0.6c-6.3-3.8-12.5-11.5-12.4-18.9l0,0c0-2.6,0.9-5,2.3-7.2c4.6-6.3,14.2-9.5,21.7-9.8
					c10.4-0.5,22.5,3.9,26.1,14.7c1.6,4.7,0.2,9.8-4.1,14.7C142.8,188.9,138.3,193.3,134.4,193.3z M125.9,182.6l0.9,0.7
					c1,0.8,2,2.1,2.9,3.3c1.3,1.7,2.8,3.6,4.1,4.1c2.1,0.6,5.7-2,10.6-7.6c3.7-4.2,4.9-8.4,3.6-12.2c-3.2-9.6-14.2-13.4-23.6-12.9
					c-6.9,0.3-15.8,3.2-19.8,8.7c-1.2,1.7-1.9,3.6-1.9,5.7l0,0c-0.1,6.4,5.6,13.4,11,16.6c2.2,1.3,2.2,1.3,3.8,0.5
					c2.3-1.1,4.7-3.5,6.7-5.3L125.9,182.6z"/>
			</g>
		</g>
	</g>
	<g>
		<defs>
			<rect id="SVGID_00000075880402522521331930000009151469314225107880_" x="16.5" y="33" width="207" height="207"/>
		</defs>
		<clipPath id="SVGID_00000066480126580435792200000003994320837850365875_">
			<use xlink:href="#SVGID_00000075880402522521331930000009151469314225107880_"  style="overflow:visible;"/>
		</clipPath>
		<path style="clip-path:url(#SVGID_00000066480126580435792200000003994320837850365875_);" d="M96.3,202.7c-0.2,0-0.3,0-0.4-0.1
			l-10.8-3.6c-0.6-0.2-0.9-0.9-0.9-1.5l1.8-7.7c0.2-0.6,0.7-1,1.4-0.9l21.8,2.1c0.7,0.1,1.1,0.6,1.1,1.3v7.6c0,0.6-0.4,1.2-1.1,1.3
			l-12.8,1.7C96.4,202.7,96.3,202.7,96.3,202.7z M87,196.9l9.5,3.2l11.4-1.6v-5.3l-19.6-1.8L87,196.9z"/>
	</g>
	<g>
		<defs>
			<rect id="SVGID_00000075874419708180489550000012946301070502738869_" x="16.5" y="33" width="207" height="207"/>
		</defs>
		<clipPath id="SVGID_00000140732196357271808180000007851504988906237098_">
			<use xlink:href="#SVGID_00000075874419708180489550000012946301070502738869_"  style="overflow:visible;"/>
		</clipPath>
		<g style="clip-path:url(#SVGID_00000140732196357271808180000007851504988906237098_);">
			<g>
				<path style="fill:#FFCA00;" d="M168.5,185.1c-9.9,0.3-12.9-3.5-12.9-3.5s-2.7,4.1-12.6,4.5c0,0,0.7,23.9,13.6,23.4
					C169.5,209,168.5,185.1,168.5,185.1z"/>
				<path d="M156.2,210.8c-2.8,0-5.2-0.9-7.2-2.9c-6.8-6.4-7.3-21.1-7.3-21.7c0-0.7,0.5-1.3,1.2-1.3c9-0.3,11.6-4,11.6-4
					c0.3-0.3,0.6-0.5,1-0.5s0.8,0.2,1,0.5c0,0,2.8,3.4,11.8,3c0.8-0.1,1.3,0.5,1.3,1.2c0,0.6,0.6,15.4-5.7,22.3
					c-2,2.2-4.5,3.4-7.4,3.5C156.5,210.8,156.3,210.8,156.2,210.8z M144.3,187.4c0.3,3.6,1.5,14.1,6.5,18.7c1.6,1.6,3.5,2.2,5.8,2.2
					c2.2-0.1,4.1-0.9,5.6-2.7c4.7-5,5-15.6,5-19.1c0,0,0,0-0.1,0c-6.5,0-9.9-1.9-11.6-3.1C154.2,184.7,150.8,186.9,144.3,187.4z"/>
			</g>
			<g>
				<path style="fill:#BF7100;" d="M161,198.9c0.1,2.4-2.1,3-4.7,3.1c-2.7,0.1-4.8-0.3-4.9-2.8c-0.1-2.4,2-4.4,4.7-4.5
					C158.7,194.6,160.9,196.5,161,198.9z"/>
				<g>
					
						<ellipse transform="matrix(0.9993 -3.796022e-02 3.796022e-02 0.9993 -7.2769 5.8382)" style="fill:#BF7100;" cx="150.1" cy="194.5" rx="1.6" ry="1.8"/>
					
						<ellipse transform="matrix(0.9993 -3.796022e-02 3.796022e-02 0.9993 -7.252 6.2865)" style="fill:#BF7100;" cx="161.9" cy="194.1" rx="1.6" ry="1.8"/>
				</g>
				<g>
					
						<ellipse transform="matrix(0.9993 -3.796022e-02 3.796022e-02 0.9993 -7.1729 5.9706)" style="fill:#BF7100;" cx="153.6" cy="191.9" rx="1.6" ry="1.8"/>
					
						<ellipse transform="matrix(0.9993 -3.796022e-02 3.796022e-02 0.9993 -7.1629 6.144)" style="fill:#BF7100;" cx="158.2" cy="191.7" rx="1.6" ry="1.8"/>
				</g>
			</g>
		</g>
	</g>
	<g>
		<defs>
			<rect id="SVGID_00000016070768894258746200000006235335928656211336_" x="16.5" y="33" width="207" height="207"/>
		</defs>
		<clipPath id="SVGID_00000155843292470285491290000011689398272818092717_">
			<use xlink:href="#SVGID_00000016070768894258746200000006235335928656211336_"  style="overflow:visible;"/>
		</clipPath>
		<g style="clip-path:url(#SVGID_00000155843292470285491290000011689398272818092717_);">
			<g>
				<g>
					<g>
						<path style="fill:#595959;" d="M192.4,119.2c-1.7-4.2-3-8.6-3.4-13.1c-1.9-24.6-11-33.4-20.9-41.4c-12.9-10.4-32.3-9.7-40-9.1
							c-1.7,0.1-3.4,0.1-5.1,0c-7.7-0.5-27.2-1.3-40,9.1c-9.9,8-19,16.8-20.9,41.4c-0.3,4.6-1.6,9-3.4,13.1
							c-2.3,5.8-2.9,14-1.9,18.4c5,22.4,22.9,35.5,45.2,41.5c7.5,2,15.4,3,23.5,3.1c8-0.1,16-1.1,23.5-3.1
							c22.3-6,40.2-19.1,45.2-41.5C195.3,133.1,194.7,124.9,192.4,119.2z"/>
						<path d="M125.7,183.4c-8.5-0.1-16.4-1.2-23.8-3.2c-25.5-6.8-41.4-21.5-46.1-42.4c-1-4.6-0.5-12.9,2-19.1
							c1.9-4.6,2.9-8.7,3.3-12.8C63,81.1,71.9,72.1,82.4,63.5c9.1-7.4,22.9-10.6,40.9-9.4c1.6,0.1,3.3,0.1,4.9,0
							c17.9-1.2,31.7,2,40.9,9.4c10.5,8.5,19.4,17.6,21.3,42.4c0.3,4.1,1.4,8.2,3.3,12.8c2.5,6.1,3,14.6,2,19.1
							c-4.7,21-20.6,35.6-46.1,42.4C142,182.2,134.1,183.2,125.7,183.4z M116.1,56.4c-13.9,0-24.8,3-32.2,9.1
							C73.9,73.7,65.4,82.3,63.6,106c-0.3,4.3-1.5,8.7-3.5,13.5c-2.3,5.6-2.8,13.5-1.9,17.6c5.6,25.2,27.2,36,44.2,40.5
							c7.2,1.9,15,2.9,23.2,3.1c8.1-0.1,16-1.1,23.1-3.1c17.1-4.6,38.6-15.3,44.2-40.5c0.9-4.1,0.4-12-1.9-17.6l0,0
							c-2-4.8-3.1-9.2-3.5-13.5c-1.8-23.7-10.3-32.4-20.4-40.5c-8.6-7-21.8-10-39.1-8.9c-1.7,0.1-3.5,0.1-5.3,0
							C120.6,56.5,118.4,56.4,116.1,56.4z"/>
					</g>
					<ellipse style="fill:#FFFFFF;" cx="132.2" cy="134.9" rx="29.4" ry="21.1"/>
					<g>
						<path style="fill-rule:evenodd;clip-rule:evenodd;fill:#FF7D6E;" d="M132.2,119.9c2-0.1,3.5,1.1,3.5,2.6s-1.5,2.7-3.5,2.8
							c-2,0.1-3.5-1.1-3.6-2.6C128.7,121.3,130.3,120,132.2,119.9z"/>
						<path d="M132.3,119.9c1.9,0,3.5,1.1,3.5,2.6s-1.5,2.7-3.5,2.8h-0.1c-1.9,0-3.5-1.1-3.5-2.6C128.8,121.2,130.3,120,132.3,119.9
							C132.2,119.9,132.2,119.9,132.3,119.9 M132.3,117.4h-0.2c-1.5,0-2.9,0.5-4,1.4c-1.3,1-2,2.5-1.9,4c0.1,2.8,2.7,5.1,6,5.1h0.2
							c1.5,0,2.9-0.5,4-1.4c1.3-1,2-2.5,1.9-4C138.2,119.7,135.6,117.4,132.3,117.4L132.3,117.4z"/>
					</g>
					<g>
						<g>
							<path style="fill-rule:evenodd;clip-rule:evenodd;" d="M118.4,115.5c0.8-0.8,0.5-2.2-0.4-2.7c0.8-0.3,1.6-0.5,2.2-0.9
								c0.3-0.2,0.7-0.3,0.8-0.7c0.1-0.3,0-0.7-0.2-1c-0.6-1.1-2-1.7-3.2-1.6c0.4-0.1,0.9-0.1,1.4-0.3s0.7-0.7,0.6-1.2
								c-0.2-0.7-1.1-0.9-1.8-0.9c-3.6,0-7.2,0.5-10.7,1.6c-0.4,0.2-0.9,0.3-1.1,0.8c-0.3,0.6,0.3,1.3,0.9,1.6
								c0.6,0.3,1.3,0.2,2,0.3c-0.7,0.3-1.4,0.7-1.8,1.3c-0.3,0.3-0.4,0.6-0.3,1c0.2,0.5,0.8,0.7,1.3,0.8c0.6,0.1,1.1,0.2,1.7,0.3
								c-0.3,0.3-0.4,0.4-0.7,0.7s-0.5,0.5-0.7,0.9c-0.2,0.3-0.2,0.8,0.1,1c0.6,0.7,2.7,0.3,3.5,0.2c1.3,0,2.5-0.2,3.8-0.3
								C116.6,116.1,117.7,116.3,118.4,115.5z"/>
						</g>
					</g>
					<g>
						<path d="M126.9,138.9c-2.9,0-5.7-1.6-7.1-4.2c-0.3-0.6-0.1-1.4,0.5-1.7c0.6-0.3,1.4-0.1,1.7,0.5c1.3,2.5,3.9,3,5.7,2.8
							c1.4-0.2,2.9-0.9,3.2-2.4c0.2-0.7,0.8-1.1,1.6-0.9c0.7,0.2,1.1,0.9,0.9,1.5c-0.5,2.3-2.6,4.1-5.3,4.4
							C127.8,138.8,127.3,138.9,126.9,138.9z"/>
					</g>
					<g>
						<path d="M137.6,138.9c-0.4,0-0.8,0-1.2-0.1c-2.8-0.4-4.8-2.1-5.3-4.4c-0.2-0.7,0.3-1.4,0.9-1.5c0.7-0.2,1.4,0.3,1.6,0.9
							c0.3,1.6,1.9,2.2,3.2,2.4c1.8,0.3,4.4-0.3,5.7-2.8c0.3-0.6,1.1-0.9,1.7-0.5c0.6,0.3,0.9,1.1,0.5,1.7
							C143.2,137.4,140.5,138.9,137.6,138.9z"/>
					</g>
					<g>
						<path style="fill:#595959;" d="M112.4,60.7c0,0-8.1-8.1-13.8-12.4s-21.2-15-24.2-14c-3,1-17.9,29.8-3.8,44.8"/>
						<path d="M70.7,80.3c-0.3,0-0.7-0.2-0.9-0.4c-7.9-8.3-7.1-20.2-4.9-28.7c2.1-8.3,6.6-17.3,9.1-18.1c4.7-1.5,25.2,14,25.4,14.1
							c5.7,4.3,13.6,12.2,14,12.5c0.5,0.5,0.5,1.3,0,1.8c-0.5,0.5-1.3,0.5-1.8,0c-0.1-0.1-8.1-8.1-13.7-12.3
							C89,42.6,76.9,35.1,74.8,35.5c-1.2,0.7-6.7,9.7-8.5,20.9c-0.9,6.4-0.9,15.4,5.2,21.8c0.5,0.5,0.4,1.3-0.1,1.8
							C71.3,80.3,70.9,80.3,70.7,80.3z"/>
					</g>
					<g>
						<path style="fill:#FF7D6E;" d="M97.1,63.5c0,0-20.6-18-21.1-21.5c-0.5-3.5-8.9,22.5,1.5,28.6c0,0,2.9-1.7,4.7-2.2
							c0,0-2.5-6.3,4.1-2.4C90.2,68.3,97.1,63.5,97.1,63.5z"/>
						<path d="M77.4,71.8c-0.3,0-0.4-0.1-0.6-0.2c-8.2-4.7-6-19.8-3.8-27.1c1.1-3.6,1.8-4.2,2.8-4.1c0.2,0,1.1,0.2,1.4,1.4
							c0.4,2,10.9,12.2,20.7,20.8c0.3,0.3,0.4,0.6,0.4,1c0,0.4-0.3,0.8-0.5,0.9c-0.3,0.2-7.5,5.3-12.3,2.4c-1.6-0.9-2.3-1-2.6-1
							c-0.1,0.3,0.1,1.3,0.3,2c0.1,0.3,0.1,0.7,0,1c-0.2,0.3-0.4,0.5-0.8,0.7c-1.3,0.3-3.5,1.6-4.3,2.2
							C77.8,71.7,77.6,71.8,77.4,71.8z M75.8,44.3c-1.2,3.5-3,11.6-1.9,18c0.6,3.1,1.8,5.4,3.6,6.7c0.7-0.4,1.9-1,3-1.6
							c-0.3-1.1-0.3-2.7,0.7-3.6c1.5-1.3,3.9-0.2,5.6,0.9c2.2,1.3,6-0.2,8.2-1.4C89.9,58.9,79.1,49.2,75.8,44.3z"/>
					</g>
					<g>
						<path style="fill:#FF7D6E;" d="M83.5,64.6c0,0-6-5.4-5.9-10.6"/>
						<path d="M83.5,65.9c-0.3,0-0.6-0.1-0.9-0.3s-6.4-5.9-6.3-11.6c0-0.7,0.6-1.3,1.3-1.3s1.3,0.6,1.3,1.3
							c-0.1,4.5,5.4,9.6,5.5,9.7c0.5,0.4,0.5,1.3,0.1,1.8C84.2,65.9,83.9,65.9,83.5,65.9z"/>
					</g>
					<g>
						<path style="fill:#595959;" d="M138.9,60.7c0,0,8.1-8.1,13.8-12.4c5.7-4.3,21.1-14.9,24.2-14c3,1,17.9,29.8,3.8,44.8"/>
						<path d="M180.6,80.3c-0.3,0-0.6-0.1-0.9-0.3c-0.5-0.5-0.5-1.3-0.1-1.8c6-6.4,6.2-15.4,5.2-21.8c-1.7-11.2-7.2-20.2-8.5-20.9
							c-2-0.4-14.2,7.2-22.9,13.8c-5.5,4.2-13.6,12.2-13.7,12.3c-0.5,0.5-1.3,0.5-1.8,0s-0.5-1.3,0-1.8c0.3-0.3,8.3-8.2,14-12.5
							c0.2-0.2,20.8-15.7,25.4-14.1c2.5,0.9,7.1,9.8,9.1,18.1c2.2,8.5,3,20.4-4.9,28.7C181.3,80.3,181,80.3,180.6,80.3z"/>
					</g>
					<g>
						<path style="fill:#FF7D6E;" d="M154.2,63.5c0,0,20.6-18,21.1-21.5c0.5-3.5,8.9,22.5-1.5,28.6c0,0-2.9-1.7-4.7-2.2
							c0,0,2.5-6.3-4.1-2.4C161.1,68.3,154.2,63.5,154.2,63.5z"/>
						<path d="M173.9,71.8c-0.3,0-0.4-0.1-0.7-0.2c-0.8-0.4-3-1.7-4.3-2.2c-0.3-0.1-0.6-0.3-0.8-0.7c-0.2-0.3-0.2-0.7,0-1
							c0.3-0.7,0.4-1.6,0.3-2c-0.3,0-0.9,0.1-2.6,1c-4.8,2.8-12-2.2-12.3-2.4c-0.3-0.3-0.5-0.6-0.5-0.9c0-0.4,0.2-0.8,0.4-1
							c9.8-8.6,20.3-18.7,20.7-20.8c0.2-1.2,1.1-1.4,1.4-1.4c1-0.1,1.7,0.6,2.8,4.1c2.2,7.2,4.3,22.3-3.8,27.1
							C174.3,71.7,174.1,71.8,173.9,71.8z M170.8,67.5c1.1,0.4,2.3,1.1,3,1.6c1.8-1.3,3-3.6,3.6-6.7c1.2-6.5-0.7-14.5-1.9-18
							c-3.5,4.9-14.1,14.6-19.2,19.1c2.2,1.3,6,2.8,8.2,1.4c1.6-0.9,4.1-2.2,5.6-0.9C171.1,64.8,171.1,66.4,170.8,67.5z"/>
					</g>
					<g>
						<path style="fill:#FF7D6E;" d="M167.7,64.6c0,0,6-5.4,5.9-10.6"/>
						<path d="M167.7,65.9c-0.3,0-0.7-0.2-0.9-0.4c-0.4-0.5-0.4-1.3,0.1-1.8c0.1-0.1,5.5-5.1,5.5-9.7c0-0.7,0.5-1.3,1.3-1.3
							c0.8-0.1,1.3,0.5,1.3,1.3c0.1,5.7-6,11.3-6.3,11.6C168.4,65.9,168,65.9,167.7,65.9z"/>
					</g>
					<g>
						<path style="fill:#595959;" d="M135.5,63.9c4,0.9,11.7-7,6.4-11.8c-5.3-4.9-9.9,4.1-9.9,4.1s1.7-12.5-6.8-11.8
							c-8.5,0.7-5.4,10.5-5.4,10.5s-1.4-5.6-6-4.8c-9.6,1.6-6.5,11.8,0.8,14.1"/>
						<path d="M114.3,65.3c-0.1,0-0.3,0-0.3-0.1c-4.6-1.5-7.9-5.9-7.6-10c0.3-3.5,2.8-5.9,7.1-6.6c1.9-0.3,3.4,0.2,4.5,1
							c0.1-1.3,0.5-2.6,1.3-3.7c1.2-1.8,3.2-2.8,5.9-3c2.4-0.2,4.3,0.5,5.8,2c1.7,1.9,2.4,4.7,2.6,7.1c1.1-1.2,2.7-2.3,4.4-2.7
							c1.8-0.3,3.5,0.3,5.1,1.7c2.5,2.2,2.9,5.3,1.2,8.5c-1.7,3.2-5.6,6.2-8.8,5.4c-0.7-0.2-1.1-0.9-0.9-1.6
							c0.2-0.7,0.9-1.1,1.6-0.9c1.6,0.3,4.5-1.5,6-4.1c0.8-1.5,1.3-3.6-0.7-5.5c-0.9-0.9-1.9-1.3-2.9-1c-2.3,0.4-4.4,3.6-5,4.8
							c-0.3,0.5-0.9,0.8-1.6,0.6c-0.6-0.2-0.9-0.8-0.9-1.4c0.3-1.8,0.3-6.9-1.8-9.2c-0.9-0.9-2.1-1.4-3.7-1.2
							c-1.9,0.2-3.2,0.8-4,1.9c-1.5,2.2-0.7,5.6-0.4,6.6c0,0.1,0.1,0.3,0.1,0.3c0.2,0.7-0.3,1.4-0.9,1.6c-0.7,0.2-1.4-0.2-1.6-0.9
							c0,0,0-0.1-0.1-0.3c-0.3-0.9-1.5-4.1-4.6-3.6c-3,0.5-4.7,2-4.9,4.2c-0.2,2.6,2,6.2,5.9,7.4c0.7,0.2,1,0.9,0.9,1.6
							C115.4,65,114.9,65.3,114.3,65.3z"/>
					</g>
					<g>
						<g>
							<path style="fill-rule:evenodd;clip-rule:evenodd;" d="M145.7,115.5c-0.8-0.8-0.5-2.2,0.4-2.7c-0.8-0.3-1.6-0.5-2.2-0.9
								c-0.3-0.2-0.7-0.3-0.8-0.7c-0.1-0.3,0-0.7,0.2-1c0.6-1.1,2-1.7,3.2-1.6c-0.4-0.1-0.9-0.1-1.4-0.3s-0.7-0.7-0.6-1.2
								c0.2-0.7,1.1-0.9,1.8-0.9c3.6,0,7.2,0.5,10.7,1.6c0.4,0.2,0.9,0.3,1.1,0.8c0.3,0.6-0.3,1.3-0.9,1.6c-0.7,0.3-1.3,0.2-2,0.3
								c0.7,0.3,1.4,0.7,1.8,1.3c0.3,0.3,0.4,0.6,0.3,1c-0.2,0.5-0.8,0.7-1.3,0.8c-0.6,0.1-1.1,0.2-1.7,0.3c0.3,0.3,0.4,0.4,0.7,0.7
								c0.3,0.3,0.5,0.5,0.7,0.9c0.2,0.3,0.2,0.8-0.1,1c-0.6,0.7-2.7,0.3-3.5,0.2c-1.3,0-2.5-0.2-3.8-0.3
								C147.5,116.1,146.4,116.3,145.7,115.5z"/>
						</g>
					</g>
				</g>
			</g>
			<g>
				<g>
					<path style="fill:#FF7D6E;" d="M102.7,123.6c-1.6,0.6-3.5,0.8-4.7,0.8c-2.9,0.1-5.9,0-8.7-0.3c-1.6-0.2-3.4-0.6-3.9-2.3
						c-0.4-1.4,0.2-2.9,1.1-4c1.9-2.1,4.3-2,6.7-2.1c2-0.1,4-0.1,6,0c1.7,0.1,3.5,0,4.9,1.1c0.9,0.6,1.6,1.6,1.7,2.8
						C106.1,121.7,104.6,123,102.7,123.6z"/>
				</g>
				<path style="fill:#F61200;" d="M86.4,124.8c-0.2,0-0.4-0.1-0.6-0.2c-0.6-0.3-0.9-1.1-0.5-1.7c0.1-0.2,2.6-4.7,5.9-8.3
					c0.5-0.5,1.3-0.5,1.8-0.1c0.5,0.4,0.5,1.3,0.1,1.8c-3,3.3-5.4,7.7-5.5,7.8C87.2,124.6,86.8,124.8,86.4,124.8z"/>
				<path style="fill:#F61200;" d="M93.4,124.8c-0.2,0-0.4-0.1-0.6-0.2c-0.6-0.3-0.9-1.1-0.5-1.7c0.1-0.2,2.5-4.6,5.9-8.3
					c0.4-0.5,1.3-0.5,1.8-0.1s0.5,1.3,0.1,1.8c-3.1,3.5-5.4,7.7-5.5,7.8C94.4,124.6,94,124.8,93.4,124.8z"/>
				<path style="fill:#F61200;" d="M100.2,124.8c-0.2,0-0.4-0.1-0.6-0.2c-0.6-0.3-0.9-1.1-0.5-1.7c0.1-0.2,2.6-4.7,5.9-8.3
					c0.5-0.5,1.3-0.5,1.8-0.1c0.5,0.4,0.5,1.3,0.1,1.8c-3,3.3-5.4,7.7-5.5,7.8C101.1,124.6,100.7,124.8,100.2,124.8z"/>
			</g>
			<g>
				<g>
					<path style="fill:#FF7D6E;" d="M177.8,123.6c-1.6,0.6-3.5,0.8-4.7,0.8c-2.9,0.1-5.9,0-8.7-0.3c-1.6-0.2-3.4-0.6-3.9-2.3
						c-0.4-1.4,0.2-2.9,1.1-4c1.9-2.1,4.3-2,6.7-2.1c2-0.1,4-0.1,6,0c1.7,0.1,3.5,0,4.9,1.1c0.9,0.6,1.6,1.6,1.7,2.8
						C181.1,121.7,179.6,123,177.8,123.6z"/>
				</g>
				<path style="fill:#F61200;" d="M161.3,124.8c-0.2,0-0.4-0.1-0.6-0.2c-0.6-0.3-0.9-1.1-0.5-1.7c0.1-0.2,2.6-4.7,5.9-8.3
					c0.4-0.5,1.3-0.5,1.8-0.1s0.5,1.3,0.1,1.8c-3,3.3-5.4,7.7-5.5,7.8C162.3,124.6,161.7,124.8,161.3,124.8z"/>
				<path style="fill:#F61200;" d="M168.5,124.8c-0.2,0-0.4-0.1-0.6-0.2c-0.6-0.3-0.9-1.1-0.5-1.7c0.1-0.2,2.5-4.6,5.9-8.3
					c0.4-0.5,1.3-0.5,1.8-0.1s0.5,1.3,0.1,1.8c-3.1,3.5-5.4,7.7-5.5,7.8C169.3,124.6,168.9,124.8,168.5,124.8z"/>
				<path style="fill:#F61200;" d="M175.2,124.8c-0.2,0-0.4-0.1-0.6-0.2c-0.6-0.3-0.9-1.1-0.5-1.7c0.1-0.2,2.6-4.7,5.9-8.3
					c0.5-0.5,1.3-0.5,1.8-0.1s0.5,1.3,0.1,1.8c-3,3.3-5.4,7.7-5.5,7.8C176.1,124.6,175.6,124.8,175.2,124.8z"/>
			</g>
		</g>
	</g>
	<g>
		<defs>
			<rect id="SVGID_00000088128949027362679420000009666538990512969379_" x="16.5" y="33" width="207" height="207"/>
		</defs>
		<clipPath id="SVGID_00000028300042121614374870000008673721294693809589_">
			<use xlink:href="#SVGID_00000088128949027362679420000009666538990512969379_"  style="overflow:visible;"/>
		</clipPath>
		<g style="clip-path:url(#SVGID_00000028300042121614374870000008673721294693809589_);">
			<g>
				<path style="fill:#264DA0;" d="M96.3,67.1c-1.3,0,1.5,11.2,1.8,12.2c1.9,5.8,9.1,7.7,14.5,7.3c4-0.3,7.8-1.2,11.7-1.7
					c4.2-0.5,9.1,0,13.3,0.6c6.1,0.9,12.8,2,15.6-4.8c1.8-4.3,2.9-10,1.1-14.6C154.2,66.1,96.5,67.1,96.3,67.1z"/>
				<path d="M111.3,87.8c-6,0-12.6-2.5-14.5-8.3c0-0.1-3.2-11.2-1.8-13.2c0.3-0.4,0.7-0.6,1.2-0.6l0,0c0.3,0,58-0.9,58-0.9l0,0
					c0.5,0,0.9,0.3,1.2,0.8c1.7,4.1,1.3,9.9-1.1,15.5c-3.2,7.4-10.4,6.5-16.3,5.6l-0.7-0.1c-4.3-0.6-8.9-1.1-12.9-0.6
					c-1.5,0.2-2.9,0.4-4.5,0.7c-2.4,0.4-4.8,0.9-7.3,1C112.2,87.8,111.7,87.8,111.3,87.8z M97.1,68.3c0.1,2.3,1.6,9.1,2.1,10.5
					c1.8,5.6,9.1,6.7,13.2,6.5c2.4-0.2,4.7-0.6,7.1-0.9c1.6-0.3,3-0.5,4.6-0.7c4.3-0.5,9.1,0,13.6,0.6l0.7,0.1
					c5.8,0.8,11.2,1.6,13.6-4.1c2-4.6,2.5-9.3,1.4-12.8C146.6,67.5,103.9,68.2,97.1,68.3z"/>
			</g>
			<g>
				<path style="fill:#7FA8FF;" d="M96.3,67.1c0,0,1.4,10.9,27.7,9.8s30-7.8,30.4-10.8L96.3,67.1z"/>
				<path d="M120.5,78.3c-23.8,0-25.4-10.6-25.5-11.1c-0.1-0.3,0.1-0.7,0.3-1c0.3-0.3,0.6-0.4,0.9-0.4l58-0.9c0.4,0,0.7,0.2,0.9,0.4
					c0.3,0.3,0.3,0.6,0.3,1c-0.4,4-5.2,10.9-31.6,11.9C122.8,78.2,121.6,78.3,120.5,78.3z M98.1,68.3c1.6,2.7,7.1,8.1,25.8,7.3
					c21.5-0.9,27.2-5.4,28.6-8.2L98.1,68.3z M96.3,67.1L96.3,67.1L96.3,67.1z"/>
			</g>
			<g>
				<g>
					<path style="fill:#264DA0;" d="M93.4,53c4.7-11.3,18.8-14,29.7-14.3c14.1-0.5,24.8,2.4,33.4,14.5c5.2,7.3-1.6,14.2-8.7,16.3
						c-9.7,2.9-20,3.9-30,2.9c-10.8-1-30.4-2.8-24.5-18.9C93.3,53.3,93.3,53.2,93.4,53z"/>
					<path d="M125.3,74c-2.6,0-5.1-0.1-7.7-0.3c-8.4-0.8-20.8-2-25.2-9.1c-2-3.1-2.1-7-0.4-11.6c0.1-0.2,0.1-0.3,0.2-0.5l0,0
						c3.9-9.4,14.3-14.5,30.8-15.2c16.2-0.6,26.6,3.9,34.5,15c2.1,2.8,2.6,6,1.6,9c-1.4,4.1-5.7,7.7-11,9.2
						C140.9,72.8,133.1,74,125.3,74z M94.6,53.5c-0.1,0.1-0.1,0.3-0.2,0.3c-1.4,3.8-1.4,6.9,0.2,9.3c3.8,6,15.9,7.2,23.1,7.8
						c10.1,0.9,20.3,0,29.7-2.8c4.4-1.3,8.1-4.4,9.2-7.7c0.8-2.2,0.3-4.5-1.2-6.7c-7.3-10.4-16.7-14.5-32.2-13.9
						C107.7,40.5,98.1,45.1,94.6,53.5z"/>
				</g>
			</g>
			<g>
				<g>
					<path style="fill:#FFCA00;" d="M130.9,59c-4.1,0-5.3-1.6-5.3-1.6s-1.2,1.6-5.3,1.6c0,0-0.1,9.8,5.3,9.8
						C131,68.8,130.9,59,130.9,59z"/>
					<path d="M125.6,70.1c-1.4,0-2.6-0.5-3.6-1.6c-2.8-2.9-2.9-9-2.9-9.6c0-0.7,0.6-1.3,1.3-1.3c3.3,0,4.2-1.1,4.2-1.2
						c0.3-0.3,0.7-0.5,1-0.5c0.4,0,0.8,0.2,1,0.5l0,0c0,0,1,1.1,4.2,1.1c0.7,0,1.3,0.6,1.3,1.3c0,0.7,0,6.7-2.9,9.6
						C128.3,69.6,127.1,70.1,125.6,70.1z M121.7,60.2c0.2,2,0.7,5.2,2.2,6.6c1,1,2.6,1,3.6,0c1.5-1.5,2-4.6,2.2-6.6
						c-1.9-0.2-3.2-0.7-4-1.2C124.9,59.5,123.6,60,121.7,60.2z"/>
				</g>
				<g>
					<path style="fill:#BF7100;" d="M127.6,64.5c0,0.9-0.9,1.2-2,1.2s-2-0.3-2-1.2c0-0.9,0.9-1.8,2-1.8S127.6,63.4,127.6,64.5z"/>
					<g>
						<ellipse style="fill:#BF7100;" cx="123.2" cy="62.5" rx="0.6" ry="0.8"/>
						<ellipse style="fill:#BF7100;" cx="128.1" cy="62.5" rx="0.6" ry="0.8"/>
					</g>
					<g>
						<ellipse style="fill:#BF7100;" cx="124.7" cy="61.5" rx="0.6" ry="0.8"/>
						<ellipse style="fill:#BF7100;" cx="126.6" cy="61.5" rx="0.6" ry="0.8"/>
					</g>
				</g>
			</g>
		</g>
	</g>
	<g>
		<defs>
			<rect id="SVGID_00000075155792167017930570000006601363293232754311_" x="16.5" y="33" width="207" height="207"/>
		</defs>
		<clipPath id="SVGID_00000134944720542705381240000003637479645281670020_">
			<use xlink:href="#SVGID_00000075155792167017930570000006601363293232754311_"  style="overflow:visible;"/>
		</clipPath>
		<g style="clip-path:url(#SVGID_00000134944720542705381240000003637479645281670020_);">
			<g>
				<path style="fill:#264DA0;" d="M164.5,131.5c0,0,45,39.8,28.6,57.4S150.6,152,150.6,152L164.5,131.5z"/>
				<path d="M185.8,193.7c-0.6,0-1.1-0.1-1.7-0.2c-16-2.5-33.9-39.4-34.7-41c-0.2-0.4-0.2-0.9,0.1-1.3l13.9-20.5
					c0.2-0.3,0.5-0.5,0.9-0.5c0.3-0.1,0.7,0.1,1,0.3c1.3,1.1,31.7,28.3,32.6,48c0.2,4.5-1.1,8.3-3.9,11.3
					C191.6,192.4,188.8,193.7,185.8,193.7z M152.1,152.1c2.5,5,18.8,36.8,32.4,38.9c2.8,0.4,5.4-0.5,7.7-3c2.3-2.5,3.5-5.6,3.3-9.4
					c-0.8-16.6-25.2-40.2-30.7-45.2L152.1,152.1z"/>
			</g>
			<g>
				<path style="fill:#595959;" d="M132.2,124.9c-1.2,0-2.6,0.1-3.4,1.1c-1,1.3-0.5,3.5,0.7,4.6c1.2,1.1,2.8,1.4,4.3,1.7
					c1.5,0.3,2.8,0.5,4.3,0.8c0.3,0.1,0.5,0.1,0.8,0.3c0.3,0.3,0.3,0.9,0.2,1.4c-0.7,5.2,1.6,10.5,5.4,13.6c3.6,3,10.5,4.9,15,3.8
					c2.8-0.7,5.4-2.6,7.1-5.3c1.6-2.7,2.3-6.1,1.7-9.2c-0.3-1.9-1.1-3.6-2.1-5.2c-2.8-4.9-5.5-7.3-10.8-7.5
					C147.6,124.7,139.9,124.9,132.2,124.9z"/>
				<path d="M156.5,153.8c-4.4,0-9.6-1.7-12.9-4.4c-4.2-3.5-6.6-9.3-5.9-14.7c0-0.1,0-0.2,0-0.3l-4.2-0.8c-1.6-0.3-3.5-0.6-4.9-2
					c-1.6-1.5-2.3-4.4-0.8-6.3c1.2-1.6,3.3-1.6,4.4-1.6l0,0c2.5,0,5,0,7.5-0.1c5.2-0.1,10.5-0.1,15.8,0.1c6.1,0.2,9.1,3.3,11.8,8.2
					c1.1,2.1,1.9,3.8,2.2,5.6c0.7,3.4,0,7.2-1.9,10.2c-1.8,2.8-4.7,5-7.8,5.9C158.7,153.7,157.7,153.8,156.5,153.8z M132.2,126.2
					L132.2,126.2c-1.2,0-2,0.1-2.4,0.6c-0.6,0.7-0.2,2.2,0.6,2.8c0.9,0.8,2.2,1.1,3.7,1.4l4.3,0.8c0.3,0.1,0.9,0.2,1.5,0.7
					c0.8,0.8,0.6,1.9,0.5,2.4c-0.6,4.6,1.4,9.6,4.9,12.5c3.5,2.9,10,4.6,13.9,3.5c2.6-0.7,4.9-2.4,6.3-4.7c1.6-2.4,2.1-5.5,1.6-8.3
					c-0.3-1.5-0.9-3-1.9-4.8c-2.8-5-5.3-6.7-9.7-6.9c-5.2-0.2-10.5-0.1-15.6-0.1C137.2,126.2,134.7,126.2,132.2,126.2z M138,134.3
					L138,134.3L138,134.3z"/>
			</g>
			<g>
				<path style="fill:#FFC600;" d="M152.9,156.7c0,0,20,3.2,20.7-16.2l5,5.4c0,0-2.7,18.4-22.4,16L152.9,156.7z"/>
				<path d="M159.5,163.4c-1.1,0-2.2-0.1-3.5-0.2c-0.3-0.1-0.7-0.3-0.9-0.6l-3.3-5.3c-0.3-0.4-0.3-0.9,0-1.4
					c0.3-0.4,0.8-0.6,1.3-0.5c0.1,0,8.7,1.3,14.3-3.3c3.1-2.6,4.7-6.5,4.9-11.7c0-0.5,0.3-0.9,0.9-1.1c0.5-0.2,1-0.1,1.4,0.3l5,5.4
					c0.3,0.3,0.3,0.7,0.3,1C179.9,146.2,177.1,163.4,159.5,163.4z M156.9,160.7c16,1.6,19.7-11.5,20.3-14.5l-2.6-2.8
					c-0.7,4.6-2.5,8.1-5.6,10.6c-4.5,3.7-10.4,4.1-13.7,4.1L156.9,160.7z"/>
			</g>
			<path d="M162.5,168.7c-2.2,0-3.7-0.3-3.8-0.3c-0.7-0.1-1.1-0.8-1-1.5c0.1-0.7,0.8-1.1,1.5-1c0.8,0.2,19.4,3.1,22.7-14.9
				c0.1-0.7,0.8-1.1,1.5-1c0.7,0.1,1.1,0.8,1,1.5C181.7,166.7,169,168.7,162.5,168.7z"/>
		</g>
	</g>
</g>
<g>
	<g>
		<path d="M16.1,16.6c2.7,0,5.5,0.3,7,0.3c1.9,0,4-0.1,6-0.1c4.5,0,8.9,0.4,11.4,2.9c1.6,1.6,2.4,4.2,1.8,8.1
			c-0.6,3.7,0.2,10.9-0.2,14.7c-0.4,4.1-3,6-6.5,6c-0.6,0-1.2-0.1-1.9-0.2c-1.9-0.3-4.6-0.6-4.9-2.6c-0.2-1.5,0.3-2.6-0.9-3.6
			c-1-0.8-3.6-1-4.8-1.1c-3.2-0.1-6.4-0.4-9.6-0.9c-1.7-0.3-3.7-0.8-4.2-2.4c-0.2-0.6-0.2-1.2-0.2-1.8c0-0.8,0.1-1.6,0.2-2.4
			c0-0.4,0.1-0.9,0.4-1.2c0.4-0.6,1.2-0.8,2-1c3.8-0.7,7.5-0.5,11.4-0.7c0.9,0,2.7,0.1,1.8-1.4c-0.3-0.4-1-0.5-1.7-0.5
			c-0.6,0-1.3,0.1-1.7,0.1c-0.1,0-0.1,0-0.1,0c-0.5,0-1.1,0-1.6,0c-2,0-3.9,0.1-5.9,0.1c-0.6,0-1.2,0-1.8-0.1c-0.1,0-0.2,0-0.3,0
			c-0.5,0-1.2,0-1.9,0c-1.1,0-2.3-0.1-2.7-0.5C6,27.1,7.6,22.7,7.6,21C7.8,17.3,12,16.6,16.1,16.6 M16.1,13.9
			c-4.9,0-10.8,1.2-11.2,7c0,0.3-0.2,1-0.3,1.6c-0.6,2.6-1.3,5.9,0.7,7.9c0.5,0.6,1.2,0.9,2,1.1c-0.4,0.8-0.4,1.5-0.5,1.9
			c-0.1,0.8-0.2,1.7-0.2,2.5c0,0.8-0.1,1.8,0.3,2.9c1.2,3.4,5.1,4,6.4,4.2c3.3,0.5,6.6,0.8,9.9,0.9c1.6,0.1,2.5,0.2,2.9,0.4
			c0,0.1,0,0.2,0,0.3c0,0.4,0,0.9,0.1,1.5c0.5,3.9,4.7,4.6,6.8,5l0.4,0.1c0.8,0.1,1.6,0.2,2.3,0.2c5.1,0,8.7-3.2,9.2-8.4
			c0.2-1.9,0.1-4.4,0-7.1c-0.1-2.8-0.2-5.7,0.1-7.5c0.7-4.5-0.2-8.1-2.6-10.5c-3.2-3.2-8.3-3.7-13.3-3.7c-1.1,0-2.1,0-3.2,0
			c-1,0-1.9,0-2.9,0c-0.6,0-1.4-0.1-2.4-0.1C19.3,14,17.7,13.9,16.1,13.9L16.1,13.9z"/>
		<path d="M19.4,43.7c0.7,0,1.3,0.1,2,0.1c0,0,0,0,0,0c0.8,0,1.5,0,2.2,0c0.7,0,1.4,0,2.1,0.2c0.3,0.1,0.7,0.2,0.9,0.4
			c0.2,0.2,0.3,0.5,0.4,0.7c0.4,0.9,0.5,1.9,0.6,2.8c0,1-0.1,2.1,0.1,3.1c0.8,3,4.9,3.1,7.4,3.2c2.8,0.1,5.8,0.7,6.9,3.7
			c0.6,1.5,0.5,3.3,0.3,5c-0.5,4-2.1,4.4-5.3,4.4c-0.6,0-1.2,0-1.9,0c-4.4,0-9.1-0.1-13.3-0.2c-1,0-1.9,0-2.9,0c-2.5,0-5,0-7.5,0
			c-1.7,0-3.4,0-5.1-0.1c-2.9-0.1-3.5-2.3-3.4-4.8c0.1-2.3-0.8-6,1.8-7.1c1-0.4,2.1-0.5,3.2-0.5c0.6-0.1,1.2-0.1,1.8-0.1
			c0.9,0,1.7,0,2.5,0c1.3,0,2.6-0.1,3.9-0.4c0.2,0,0.3-0.1,0.5-0.2c0.2-0.2,0.2-0.4,0.2-0.6c0.3-2-0.6-8.4,1-9.2
			C18.1,43.7,18.8,43.7,19.4,43.7 M19.4,40.9C19.4,40.9,19.4,40.9,19.4,40.9c-0.8,0-1.9,0.1-3.1,0.7c-2.5,1.4-2.4,5-2.3,8.9
			c0,0.4,0,0.8,0,1.2c-0.6,0.1-1.3,0.1-1.9,0.1c-0.4,0-0.8,0-1.2,0c-0.4,0-0.9,0-1.3,0c-0.8,0-1.4,0-2,0.1l-0.4,0
			C6,52,4.8,52.1,3.5,52.6c-3.8,1.6-3.6,5.7-3.5,8.2c0,0.5,0,0.9,0,1.3c-0.2,6.4,3.7,7.5,6.1,7.6c1.5,0.1,3.2,0.1,5.2,0.1
			c1.3,0,2.5,0,3.8,0c1.2,0,2.5,0,3.7,0c1,0,1.9,0,2.9,0c5,0.1,9.5,0.2,13.4,0.2l1,0l0.9,0c3.5,0,7.3-0.5,8-6.8
			c0.2-1.8,0.3-4.2-0.5-6.3c-2-5.2-7.5-5.4-9.4-5.5l-0.2,0c-1.2,0-4.3-0.2-4.6-1.1c-0.1-0.3-0.1-0.8-0.1-1.4c0-0.4,0-0.7,0-1.1
			c0-1.3-0.3-2.5-0.8-3.7c-0.2-0.5-0.5-1.2-1.1-1.7c-0.7-0.7-1.5-0.9-2.2-1.1C25.2,41,24.2,41,23.6,41c-0.4,0-0.8,0-1.2,0
			c-0.3,0-0.7,0-1,0c-0.3,0-0.5,0-0.8,0C20.2,41,19.8,40.9,19.4,40.9L19.4,40.9z"/>
		<g>
			<path style="fill:#FFEA88;" d="M40.5,19.7c-3.6-3.6-11.3-2.8-17.4-2.8c-3.9,0-15.1-2-15.4,4.1c-0.1,1.6-1.7,6-0.4,7.4
				c0.7,0.7,3.9,0.4,4.9,0.5c3.1,0.2,6.2-0.2,9.3-0.1c0.8,0,3-0.3,3.5,0.4c0.9,1.5-0.9,1.4-1.8,1.4c-3.8,0.2-7.6,0-11.4,0.7
				c-0.7,0.1-1.5,0.3-2,1c-0.2,0.4-0.3,0.8-0.4,1.2c-0.1,0.8-0.2,1.6-0.2,2.4c0,0.6-0.1,1.2,0.2,1.8c0.6,1.6,2.5,2.2,4.2,2.4
				c3.2,0.5,6.4,0.8,9.6,0.9c1.2,0,3.8,0.2,4.8,1.1c1.2,1,0.7,2.1,0.9,3.6c0.2,2,3,2.3,4.9,2.6c4.4,0.8,7.9-1,8.3-5.8
				c0.4-3.8-0.4-11,0.2-14.7C42.9,23.9,42.1,21.4,40.5,19.7z"/>
			<path style="fill:#FFCF00;" d="M16.1,18.4c1.5,0,3,0.1,4.3,0.2c1.1,0.1,2,0.1,2.7,0.1c1,0,2,0,3,0c1,0,2,0,3.1,0
				c3.8,0,8.1,0.3,10.1,2.3c1.3,1.3,1.8,3.5,1.3,6.6c-0.3,2.2-0.2,5.3-0.1,8.3c0.1,2.4,0.1,4.9,0,6.5c-0.3,2.9-1.9,4.3-4.6,4.3
				c-0.5,0-1,0-1.6-0.1l-0.4-0.1c-0.7-0.1-2.9-0.5-3-1c0-0.3,0-0.6,0-0.9c0-1,0-2.6-1.4-3.8c-0.4-0.3-1.6-1.4-5.9-1.5
				c-3.1-0.1-6.3-0.4-9.4-0.9c-2.2-0.3-2.7-0.9-2.8-1.2c-0.1-0.2-0.1-0.7,0-1.1c0-0.8,0.1-1.5,0.2-2.3c0-0.1,0-0.3,0.1-0.4
				c0.1,0,0.3-0.1,0.8-0.2c2.5-0.5,5-0.5,7.6-0.6c1.2,0,2.3-0.1,3.5-0.1l0.3,0c0.9,0,2.5-0.1,3.2-1.4c0.3-0.6,0.5-1.5-0.3-2.8
				c-0.8-1.3-2.6-1.3-3.3-1.3c-0.4,0-0.8,0-1.1,0c-0.2,0-0.4,0-0.6,0c0,0,0,0,0,0c-0.6,0-1.1,0-1.7,0c-1,0-2,0-3,0.1
				c-1,0-1.9,0.1-2.9,0.1c-0.6,0-1.1,0-1.7,0c-0.1,0-0.3,0-0.4,0c-0.2,0-0.5,0-0.8,0c-0.3,0-0.7,0-1.1,0c-0.7,0-1.1,0-1.4-0.1
				c-0.1-0.8,0.3-2.7,0.5-3.6c0.2-0.9,0.3-1.6,0.4-2.3C9.5,20.4,9.6,18.4,16.1,18.4 M11.4,33.3L11.4,33.3L11.4,33.3 M16.1,16.6
				c-4.1,0-8.2,0.7-8.4,4.4c-0.1,1.6-1.7,6-0.4,7.4c0.4,0.4,1.6,0.5,2.7,0.5c0.7,0,1.4,0,1.9,0c0.1,0,0.2,0,0.3,0
				c0.6,0,1.2,0.1,1.8,0.1c2,0,3.9-0.1,5.9-0.1c0.5,0,1.1,0,1.6,0c0,0,0.1,0,0.1,0c0.4,0,1-0.1,1.7-0.1c0.8,0,1.5,0.1,1.7,0.5
				c0.9,1.5-0.9,1.4-1.8,1.4c-3.8,0.2-7.6,0-11.4,0.7c-0.7,0.1-1.5,0.3-2,1c-0.2,0.4-0.3,0.8-0.4,1.2c-0.1,0.8-0.2,1.6-0.2,2.4
				c0,0.6-0.1,1.2,0.2,1.8c0.6,1.6,2.5,2.2,4.2,2.4c3.2,0.5,6.4,0.8,9.6,0.9c1.2,0,3.8,0.2,4.8,1.1c1.2,1,0.7,2.1,0.9,3.6
				c0.2,2,3,2.3,4.9,2.6c0.7,0.1,1.3,0.2,1.9,0.2c3.5,0,6.1-1.9,6.5-6c0.4-3.8-0.4-11,0.2-14.7c0.6-4-0.2-6.5-1.8-8.1
				c-2.5-2.5-6.9-2.9-11.4-2.9c-2,0-4.1,0.1-6,0.1C21.5,16.9,18.8,16.6,16.1,16.6L16.1,16.6z"/>
		</g>
		<g>
			<path style="fill:#FFEA88;" d="M42.1,57.9c-1.2-3-4.1-3.6-6.9-3.7c-2.4-0.1-6.6-0.2-7.4-3.2c-0.3-1-0.1-2.1-0.1-3.1
				c0-1-0.2-1.9-0.6-2.8c-0.1-0.3-0.2-0.5-0.4-0.7c-0.2-0.2-0.6-0.3-0.9-0.4c-1.5-0.3-2.9-0.2-4.4-0.2c-1.2,0-2.6-0.3-3.7,0.3
				c-1.5,0.8-0.7,7.2-1,9.2c0,0.2-0.1,0.5-0.2,0.6c-0.1,0.1-0.3,0.2-0.5,0.2c-2.7,0.8-5.4,0.2-8.2,0.5c-1.1,0.1-2.2,0.1-3.2,0.5
				c-2.5,1.1-1.7,4.8-1.8,7.1c-0.1,2.5,0.5,4.7,3.4,4.8c5.1,0.2,10.4,0,15.6,0.1c4.3,0.1,8.9,0.2,13.3,0.2c4.4,0,6.7,0.4,7.2-4.4
				C42.6,61.2,42.6,59.4,42.1,57.9z"/>
			<path style="fill:#FFCF00;" d="M18.8,45.4L18.8,45.4L18.8,45.4 M19.4,45.5L19.4,45.5c0.3,0,0.6,0,0.9,0c0.4,0,0.7,0,1.1,0
				c0.4,0,0.8,0,1.2,0c0.4,0,0.7,0,1.1,0c0.7,0,1.2,0,1.7,0.2c0,0,0,0,0.1,0c0,0,0,0,0,0c0.3,0.7,0.4,1.5,0.5,2.2c0,0.3,0,0.6,0,0.9
				c0,0.8,0,1.7,0.2,2.6c1.1,4.2,6.1,4.4,8.8,4.5l0.2,0c3.1,0.1,4.6,0.9,5.3,2.6c0.5,1.2,0.4,2.9,0.2,4.2c-0.3,2.7-0.8,2.7-3.5,2.7
				l-0.9,0l-1,0c-3.9,0-8.4-0.1-13.3-0.2c-1,0-2,0-3,0c-1.3,0-2.5,0-3.8,0c-1.2,0-2.5,0-3.7,0c-2,0-3.6,0-5-0.1
				c-0.9,0-1.8-0.1-1.7-2.9c0-0.5,0-1.1,0-1.7c-0.1-1.9-0.1-3.4,0.7-3.7c0.6-0.2,1.4-0.3,2.2-0.4l0.4,0c0.5,0,1-0.1,1.6-0.1
				c0.4,0,0.8,0,1.2,0c0.4,0,0.9,0,1.3,0c1.3,0,2.8-0.1,4.4-0.5c0.3-0.1,0.8-0.2,1.2-0.7c0.6-0.6,0.7-1.4,0.8-1.7
				c0.1-0.8,0.1-1.9,0-3.1c0-1.3-0.1-3.9,0.2-4.8C18.9,45.5,19.1,45.5,19.4,45.5 M19.4,43.7c-0.6,0-1.2,0.1-1.8,0.4
				c-1.5,0.8-0.7,7.2-1,9.2c0,0.2-0.1,0.5-0.2,0.6c-0.1,0.1-0.3,0.2-0.5,0.2c-1.3,0.4-2.6,0.4-3.9,0.4c-0.8,0-1.7,0-2.5,0
				c-0.6,0-1.2,0-1.8,0.1c-1.1,0.1-2.2,0.1-3.2,0.5c-2.5,1.1-1.7,4.8-1.8,7.1c-0.1,2.5,0.5,4.7,3.4,4.8c1.7,0.1,3.4,0.1,5.1,0.1
				c2.5,0,5,0,7.5,0c1,0,2,0,2.9,0c4.3,0.1,8.9,0.2,13.3,0.2c0.7,0,1.3,0,1.9,0c3.2,0,4.9-0.3,5.3-4.4c0.2-1.7,0.3-3.5-0.3-5
				c-1.2-3-4.1-3.6-6.9-3.7c-2.4-0.1-6.6-0.2-7.4-3.2c-0.3-1-0.1-2.1-0.1-3.1c0-1-0.2-1.9-0.6-2.8c-0.1-0.3-0.2-0.5-0.4-0.7
				c-0.2-0.2-0.6-0.3-0.9-0.4c-0.7-0.2-1.4-0.2-2.1-0.2c-0.7,0-1.5,0-2.2,0c0,0,0,0,0,0C20.7,43.8,20,43.7,19.4,43.7L19.4,43.7z"/>
		</g>
	</g>
	<g>
		<path d="M210.8,13.8c0.3,0,0.6,0,0.9,0.1c0.8,0.3,1.3,1.1,1.5,1.9c0.2,0.8,0.3,1.6,0.5,2.4c1.1,4.2,10.1,5.4,6.8,11
			c-0.6,1-1.5,1.8-2.4,2.6c-1,0.8-1.7,1.2-2.4,1.2c-2.1,0-3.3-2.9-5.7-3.6c-0.3-0.1-0.5-0.1-0.8-0.1c-2.1,0-3.1,2.9-5.1,3.9
			c-0.4,0.2-0.9,0.4-1.3,0.4c0,0,0,0-0.1,0c-0.5,0-0.9-0.2-1.4-0.4c-1.1-0.5-2.1-1.2-3-1.9c-0.9-0.7-1.8-1.8-1.6-2.9
			c0.1-0.4,0.3-0.8,0.5-1.2c0.2-0.2,0.3-0.4,0.5-0.6c1.8-2.1,4.2-4.2,5.2-6.7c0.7-1.9,0.3-5.4,2.9-5.5c1.4-0.1,2.9-0.2,4.3-0.3
			C210.4,13.8,210.6,13.8,210.8,13.8 M210.8,11c-0.3,0-0.5,0-0.8,0l-4.1,0.3l-0.3,0c-4,0.3-4.7,4.1-5,6c-0.1,0.5-0.2,1.1-0.3,1.3
			c-0.5,1.4-1.9,2.9-3.2,4.3c-0.5,0.6-1,1.1-1.5,1.6c-0.2,0.3-0.5,0.5-0.7,0.8c-0.6,0.8-0.9,1.6-1,2.4c-0.2,1.3,0.1,3.4,2.6,5.4
			c1.1,0.9,2.2,1.6,3.5,2.2c0.7,0.3,1.5,0.7,2.5,0.7c0,0,0.1,0,0.1,0c1.1,0,1.9-0.4,2.5-0.6c1.4-0.6,2.3-1.7,3-2.6
			c0.3-0.3,0.7-0.8,1-1c0.5,0.2,1.1,0.7,1.6,1.3c1.1,1,2.6,2.5,4.8,2.5c1.4,0,2.8-0.6,4.3-1.9c0.9-0.8,2.1-1.9,3-3.3
			c3.3-5.5-1.3-8.8-3.8-10.6c-1.1-0.8-2.5-1.8-2.7-2.5c-0.1-0.3-0.1-0.6-0.2-0.9c-0.1-0.5-0.2-1.1-0.4-1.7c-0.5-1.8-1.7-3.1-3.2-3.6
			C212.1,11.1,211.5,11,210.8,11L210.8,11z"/>
		<path d="M225.8,13.8c0.3,0,0.6,0,0.9,0.1c0.8,0.3,1.3,1.1,1.5,1.9c0.2,0.8,0.3,1.6,0.5,2.4c1.1,4.2,10.1,5.4,6.8,11
			c-0.6,1-1.5,1.8-2.4,2.6c-1,0.8-1.7,1.2-2.4,1.2c-2.1,0-3.3-2.9-5.7-3.6c-0.3-0.1-0.5-0.1-0.8-0.1c-2.1,0-3.1,2.9-5.1,3.9
			c-0.4,0.2-0.9,0.4-1.3,0.4c0,0,0,0-0.1,0c-0.5,0-0.9-0.2-1.4-0.4c-1.1-0.5-2.1-1.2-3-1.9c-0.9-0.7-1.8-1.8-1.6-2.9
			c0.1-0.4,0.3-0.8,0.5-1.2c0.2-0.2,0.3-0.4,0.5-0.6c1.8-2.1,4.2-4.2,5.2-6.7c0.7-1.9,0.3-5.4,2.9-5.5c1.4-0.1,2.9-0.2,4.3-0.3
			C225.4,13.8,225.6,13.8,225.8,13.8 M225.8,11c-0.3,0-0.5,0-0.8,0l-4.3,0.3c-4,0.3-4.7,4.1-5,6c-0.1,0.5-0.2,1.1-0.3,1.3
			c-0.5,1.4-1.9,2.9-3.2,4.3c-0.5,0.6-1,1.1-1.5,1.6c-0.2,0.3-0.5,0.5-0.7,0.8c-0.6,0.8-0.9,1.6-1,2.4c-0.2,1.3,0.1,3.4,2.6,5.4
			c1.1,0.9,2.2,1.6,3.5,2.2c0.7,0.3,1.5,0.7,2.5,0.7c0,0,0.1,0,0.1,0c1.1,0,1.9-0.4,2.5-0.6c1.4-0.6,2.3-1.7,3-2.6
			c0.3-0.3,0.7-0.8,1-1c0.5,0.2,1.1,0.7,1.6,1.3c1.1,1,2.6,2.5,4.8,2.5c1.4,0,2.8-0.6,4.3-1.9c0.9-0.8,2.1-1.9,3-3.3
			c3.3-5.5-1.3-8.8-3.8-10.6c-1.1-0.8-2.5-1.8-2.7-2.5c-0.1-0.3-0.1-0.6-0.2-0.9c-0.1-0.5-0.2-1.1-0.4-1.7c-0.5-1.8-1.7-3.1-3.2-3.6
			C227.1,11.1,226.5,11,225.8,11L225.8,11z"/>
		<path d="M230.7,34.7c1.4,0,2.7,0.1,4,0.5c3.4,1.1,2.7,5.6,1.9,9.3c-0.2,0.7-0.4,1.5-0.8,1.9c-0.4,0.4-0.9,0.4-1.4,0.4
			c-3.5,0.1-7,0.1-10.4,0.1c-8.7,0-17.5-0.3-26.2-0.9c-0.8-0.1-1.8-0.2-2.4-1c-0.6-0.8-0.7-2-0.8-3.2c-0.2-2.3-0.1-5.1,1.3-6.3
			c0.7-0.6,1.5-0.6,2.4-0.6c0,0,0,0,0,0c8.4,0,16.9,0,25.3,0c0,0,0,0,0,0C225.8,35.1,228.3,34.7,230.7,34.7 M230.8,32
			C230.8,32,230.8,32,230.8,32c-1.3,0-2.7,0.1-3.9,0.2c-1.1,0.1-2.2,0.2-3.2,0.2l-25.3,0c0,0,0,0,0,0c-1,0-2.7,0-4.1,1.2
			c-2.4,2-2.5,5.6-2.3,8.6c0.1,1.3,0.2,3.2,1.4,4.7c1.4,1.8,3.5,2,4.4,2c8.7,0.6,17.6,0.9,26.4,0.9c3.5,0,7,0,10.5-0.1
			c0.6,0,2-0.1,3.2-1.2c1.1-1,1.4-2.5,1.6-3.3c0.6-2.6,2.4-10.5-3.7-12.5C234.2,32.2,232.6,32,230.8,32L230.8,32z"/>
		<path d="M225.5,48.4c1.8,0,3.5,0.2,4.6,0.9c2.6,1.8,1.8,6,1.9,8.7c0.2,5.7,1,10.6-0.3,16.1c0,0.2-0.6,0.2-1.4,0.2
			c-2.8,0-8.8-0.8-9.5-0.9c0-4.4,0-8.8-0.1-13.2c0,0-0.1,0-0.1,0c-5.5,0-11-0.4-16.5-1.1c-1.1-0.1-2.3-0.4-3-1.3
			c-0.5-0.7-0.5-1.5-0.5-2.3c0-1.4,0-2.9,0-4.3c0-0.5,0-1,0.3-1.4c0.4-0.5,1.1-0.6,1.7-0.6c0.6,0,1.1-0.1,1.7-0.1
			c4.7-0.3,9.2-0.4,13.9-0.4c0,0,0,0,0.1,0c0,0,0,0,0,0C220,48.8,222.9,48.4,225.5,48.4 M225.5,45.7c-1.5,0-3.1,0.1-4.5,0.3
			c-1,0.1-2,0.2-2.6,0.2c-4.9,0-9.5,0.1-14.2,0.4c-0.6,0-1.1,0.1-1.7,0.1c-0.7,0-2.6,0.2-3.8,1.7c-0.8,1.1-0.8,2.4-0.8,3l0,2.1
			l0,2.1c0,0.9,0,2.5,0.9,3.9c1.4,2,3.8,2.3,4.9,2.5c4.7,0.6,9.5,1,14.2,1.1l0,3.9l0,6.6c0,1.4,1,2.5,2.4,2.7c0.1,0,6.7,0.9,9.9,0.9
			c1,0,3.5,0,4.1-2.3c1.1-4.7,0.9-8.9,0.6-13.3c-0.1-1.2-0.2-2.4-0.2-3.6c0-0.5,0-1.1,0-1.7c0.1-2.9,0.1-6.9-3.1-9.2
			C230.2,46.1,228.3,45.7,225.5,45.7L225.5,45.7z"/>
		<g>
			<path style="fill:#FFEA88;" d="M197.2,27c-0.3,0.4-0.5,0.7-0.5,1.2c-0.2,1.1,0.7,2.2,1.6,2.9c0.9,0.7,1.9,1.4,3,1.9
				c0.4,0.2,0.9,0.4,1.4,0.4c0.5,0,1-0.2,1.4-0.4c2.2-1,3.2-4.6,5.9-3.7c3.2,1,4.3,5.8,8.2,2.5c0.9-0.8,1.8-1.6,2.4-2.6
				c3.3-5.6-5.7-6.8-6.8-11c-0.2-0.8-0.3-1.6-0.5-2.4c-0.2-0.8-0.7-1.6-1.5-1.9c-0.5-0.2-1-0.1-1.5-0.1c-1.4,0.1-2.9,0.2-4.3,0.3
				c-2.6,0.2-2.2,3.6-2.9,5.5c-1,2.6-3.4,4.7-5.2,6.7C197.6,26.6,197.4,26.8,197.2,27z"/>
			<path style="fill:#FFCF00;" d="M210.8,15.6c0.2,0,0.3,0,0.3,0c0.1,0,0.3,0.2,0.4,0.7c0.1,0.3,0.2,0.7,0.2,1.1
				c0.1,0.4,0.1,0.9,0.3,1.3c0.6,2.3,2.7,3.8,4.5,5.1c3.1,2.2,3.5,2.9,2.5,4.5c-0.5,0.8-1.3,1.5-2.1,2.2c-0.7,0.7-1.1,0.7-1.2,0.7
				c-0.4,0-1.1-0.6-1.6-1.2c-0.9-0.8-2-1.9-3.6-2.4c-0.4-0.1-0.9-0.2-1.3-0.2c-2.1,0-3.3,1.4-4.3,2.6c-0.5,0.6-1.1,1.2-1.6,1.4
				c-0.4,0.2-0.5,0.2-0.5,0.2c-0.1,0-0.2,0-0.6-0.2c-0.9-0.5-1.8-1-2.6-1.7c-0.8-0.7-1-1.1-1-1.2c0,0,0-0.1,0.2-0.4
				c0.1-0.2,0.3-0.4,0.4-0.5c0.4-0.5,0.9-1,1.4-1.5c1.5-1.6,3.3-3.5,4.1-5.8c0.3-0.7,0.4-1.4,0.5-2.2c0.3-1.7,0.5-2.2,0.8-2.2l0.3,0
				l4.1-0.3C210.5,15.6,210.6,15.6,210.8,15.6 M210.8,13.8c-0.2,0-0.4,0-0.6,0c-1.4,0.1-2.9,0.2-4.3,0.3c-2.6,0.2-2.2,3.6-2.9,5.5
				c-1,2.6-3.4,4.7-5.2,6.7c-0.2,0.2-0.4,0.4-0.5,0.6c-0.3,0.4-0.5,0.7-0.5,1.2c-0.2,1.1,0.7,2.2,1.6,2.9c0.9,0.7,1.9,1.4,3,1.9
				c0.4,0.2,0.9,0.4,1.4,0.4c0,0,0,0,0.1,0c0.5,0,0.9-0.2,1.3-0.4c2-0.9,3-3.9,5.1-3.9c0.2,0,0.5,0,0.8,0.1c2.4,0.7,3.6,3.6,5.7,3.6
				c0.7,0,1.5-0.3,2.4-1.2c0.9-0.8,1.8-1.6,2.4-2.6c3.3-5.6-5.7-6.8-6.8-11c-0.2-0.8-0.3-1.6-0.5-2.4c-0.2-0.8-0.7-1.6-1.5-1.9
				C211.4,13.8,211.1,13.8,210.8,13.8L210.8,13.8z"/>
		</g>
		<g>
			<path style="fill:#FFEA88;" d="M212.3,27c-0.3,0.4-0.5,0.7-0.5,1.2c-0.2,1.1,0.7,2.2,1.6,2.9c0.9,0.7,1.9,1.4,3,1.9
				c0.4,0.2,0.9,0.4,1.4,0.4c0.5,0,1-0.2,1.4-0.4c2.2-1,3.2-4.6,5.9-3.7c3.2,1,4.3,5.8,8.2,2.5c0.9-0.8,1.8-1.6,2.4-2.6
				c3.3-5.6-5.7-6.8-6.8-11c-0.2-0.8-0.3-1.6-0.5-2.4c-0.2-0.8-0.7-1.6-1.5-1.9c-0.5-0.2-1-0.1-1.5-0.1c-1.4,0.1-2.9,0.2-4.3,0.3
				c-2.6,0.2-2.2,3.6-2.9,5.5c-1,2.6-3.4,4.7-5.2,6.7C212.6,26.6,212.4,26.8,212.3,27z"/>
			<path style="fill:#FFCF00;" d="M225.8,15.6c0.2,0,0.3,0,0.3,0c0.1,0,0.3,0.2,0.4,0.7c0.1,0.3,0.2,0.7,0.2,1.1
				c0.1,0.4,0.1,0.9,0.3,1.3c0.6,2.3,2.7,3.8,4.5,5.1c3.1,2.2,3.5,2.9,2.5,4.5c-0.5,0.8-1.3,1.5-2.1,2.2c-0.7,0.7-1.1,0.7-1.2,0.7
				c-0.4,0-1.1-0.6-1.6-1.2c-0.9-0.8-2-1.9-3.6-2.4c-0.4-0.1-0.9-0.2-1.3-0.2c-2.1,0-3.3,1.4-4.3,2.6c-0.5,0.6-1.1,1.2-1.6,1.4
				c-0.4,0.2-0.5,0.2-0.5,0.2c-0.1,0-0.2,0-0.6-0.2c-0.9-0.5-1.8-1-2.6-1.7c-0.8-0.7-1-1.1-1-1.2c0,0,0-0.1,0.2-0.4
				c0.1-0.2,0.3-0.4,0.4-0.5c0.4-0.5,0.9-1,1.4-1.5c1.5-1.6,3.3-3.5,4.1-5.8c0.3-0.7,0.4-1.4,0.5-2.2c0.3-1.7,0.5-2.2,0.8-2.2
				l4.3-0.3C225.5,15.6,225.7,15.6,225.8,15.6 M225.8,13.8c-0.2,0-0.4,0-0.6,0c-1.4,0.1-2.9,0.2-4.3,0.3c-2.6,0.2-2.2,3.6-2.9,5.5
				c-1,2.6-3.4,4.7-5.2,6.7c-0.2,0.2-0.4,0.4-0.5,0.6c-0.3,0.4-0.5,0.7-0.5,1.2c-0.2,1.1,0.7,2.2,1.6,2.9c0.9,0.7,1.9,1.4,3,1.9
				c0.4,0.2,0.9,0.4,1.4,0.4c0,0,0,0,0.1,0c0.5,0,0.9-0.2,1.3-0.4c2-0.9,3-3.9,5.1-3.9c0.2,0,0.5,0,0.8,0.1c2.4,0.7,3.6,3.6,5.7,3.6
				c0.7,0,1.5-0.3,2.4-1.2c0.9-0.8,1.8-1.6,2.4-2.6c3.3-5.6-5.7-6.8-6.8-11c-0.2-0.8-0.3-1.6-0.5-2.4c-0.2-0.8-0.7-1.6-1.5-1.9
				C226.4,13.8,226.1,13.8,225.8,13.8L225.8,13.8z"/>
		</g>
		<g>
			<path style="fill:#FFEA88;" d="M198.3,35.1c-0.8,0-1.7,0-2.4,0.6c-1.5,1.2-1.5,4-1.3,6.3c0.1,1.1,0.2,2.4,0.8,3.2
				c0.6,0.8,1.5,0.9,2.4,1c12.2,0.8,24.4,1.1,36.6,0.7c0.5,0,1,0,1.4-0.4c0.5-0.4,0.6-1.2,0.8-1.9c0.8-3.7,1.5-8.2-1.9-9.3
				c-3.4-1.1-7.6-0.1-11.1-0.1C215.2,35.1,206.8,35.1,198.3,35.1z"/>
			<path style="fill:#FFCF00;" d="M230.7,36.6L230.7,36.6c1.4,0,2.5,0.1,3.4,0.4c0.9,0.3,2,1.3,0.7,7.1c0,0.2-0.2,0.7-0.2,0.9
				c-0.1,0-0.2,0-0.2,0c-3.4,0.1-6.9,0.1-10.4,0.1c-8.7,0-17.4-0.3-26.1-0.9c-0.6,0-0.9-0.1-1-0.2c-0.3-0.4-0.4-1.6-0.4-2.2
				c-0.2-3.5,0.3-4.5,0.7-4.8c0.2-0.2,0.7-0.2,1.2-0.2l25.3,0c1.1,0,2.4-0.1,3.5-0.2C228.4,36.7,229.6,36.6,230.7,36.6 M230.7,34.7
				c-2.4,0-4.9,0.4-7.1,0.4c0,0,0,0,0,0c-8.4,0-16.9,0-25.3,0c0,0,0,0,0,0c-0.8,0-1.7,0-2.4,0.6c-1.5,1.2-1.5,4-1.3,6.3
				c0.1,1.1,0.2,2.4,0.8,3.2c0.6,0.8,1.5,0.9,2.4,1c8.7,0.6,17.5,0.9,26.2,0.9c3.5,0,7,0,10.4-0.1c0.5,0,1,0,1.4-0.4
				c0.5-0.4,0.6-1.2,0.8-1.9c0.8-3.7,1.5-8.2-1.9-9.3C233.5,34.9,232.1,34.7,230.7,34.7L230.7,34.7z"/>
		</g>
		<g>
			<path style="fill:#FDE994;" d="M204.3,49.2c-0.6,0-1.1,0.1-1.7,0.1c-0.6,0-1.4,0.1-1.7,0.6c-0.3,0.4-0.3,0.9-0.3,1.4
				c0,1.4,0,2.9,0,4.3c0,0.8,0,1.7,0.5,2.3c0.6,0.9,1.9,1.2,3,1.3c5.5,0.7,11.1,1.1,16.6,1.1c0,4.4,0,8.8,0.1,13.2
				c0.9,0.1,10.8,1.4,10.9,0.6c1.3-5.5,0.5-10.4,0.3-16.1c-0.1-2.7,0.6-6.9-1.9-8.7c-2.5-1.8-8.8-0.5-11.7-0.5
				C213.6,48.8,209,49,204.3,49.2z"/>
			<path style="fill:#FDCE21;" d="M225.5,50.7c2.2,0,3,0.4,3.2,0.5c1,0.7,1,3,0.9,4.9c0,0.7,0,1.3,0,2c0.1,1.3,0.1,2.5,0.2,3.7
				c0.2,3.6,0.5,6.8-0.1,10.2c-1.8-0.1-4.7-0.4-6.7-0.6l0-4.6l0-6.6c0-1.3-1-2.3-2.3-2.3c0,0,0,0,0,0l-0.1,0c-5.4,0-10.8-0.3-16.2-1
				c-1-0.1-1.3-0.3-1.3-0.3c-0.1-0.2-0.1-0.8-0.1-1l0-2.1l0-1.8c0.5,0,1-0.1,1.5-0.1c4.6-0.2,9.1-0.4,13.9-0.4
				c0.9,0,1.9-0.1,3.1-0.2C222.7,50.9,224.1,50.7,225.5,50.7 M225.5,48.4c-2.6,0-5.5,0.4-7.2,0.4c0,0,0,0,0,0c0,0,0,0-0.1,0
				c-4.7,0-9.3,0.1-13.9,0.4c-0.6,0-1.1,0.1-1.7,0.1c-0.6,0-1.4,0.1-1.7,0.6c-0.3,0.4-0.3,0.9-0.3,1.4c0,1.4,0,2.9,0,4.3
				c0,0.8,0,1.7,0.5,2.3c0.6,0.9,1.9,1.2,3,1.3c5.5,0.7,11,1.1,16.5,1.1c0,0,0.1,0,0.1,0c0,4.4,0,8.8,0.1,13.2
				c0.7,0.1,6.7,0.9,9.5,0.9c0.8,0,1.4-0.1,1.4-0.2c1.3-5.5,0.5-10.4,0.3-16.1c-0.1-2.7,0.6-6.9-1.9-8.7
				C229,48.6,227.3,48.4,225.5,48.4L225.5,48.4z"/>
		</g>
	</g>
</g>
<g>
	<path style="fill:#FF8BB7;" d="M218.8,106.8c-2.5-1.6-6.1-1.1-7.9,1.2c-2,2.5-1.4,6.2-0.8,9.4c-2-1.6-5.3-1.2-7,0.8
		c-1.7,2-1.7,5.1-0.1,7.2c1.6,2,4.5,2.9,7,2.1c-1.8,2.6-1.7,6.5,0.4,8.9s5.7,3.4,8.7,2.2s4.9-4.6,4.5-7.7c1.4,2.4,4.3,3.7,7,3.2
		c2.7-0.6,4.8-3.1,4.9-5.9c0.1-2.7-1.8-5.5-4.5-6.2c2.9-0.7,4.9-3.9,4.4-6.8c-0.5-3.2-3.5-5.5-6.7-5.6c-3.5-0.1-4.8,2.2-6.8,4.6
		C221.9,111.4,221.2,108.3,218.8,106.8z"/>
	<circle style="fill:#FFEC52;" cx="220" cy="122.5" r="4"/>
</g>
<g>
	<path style="fill:#FF8BB7;" d="M30.9,160.8c-1.1-2.6-4.3-4.3-7-3.5c-3,0.9-4.6,4.2-5.9,7.1c-0.8-2.4-3.6-3.9-6.1-3.3
		c-2.5,0.6-4.2,3.2-4.1,5.7s2,4.8,4.4,5.6c-2.9,1.1-5,4.3-4.7,7.4c0.2,3.1,2.7,5.9,5.8,6.6s6.5-0.9,8-3.7c-0.3,2.7,1.4,5.4,3.9,6.5
		s5.6,0.2,7.3-1.9c1.6-2.1,1.6-5.4-0.1-7.5c2.7,1.1,6.1-0.4,7.4-3c1.4-2.8,0.3-6.4-2.2-8.3c-2.8-2.1-5.1-0.9-8-0.1
		C30.9,166.3,32,163.4,30.9,160.8z"/>
	<circle style="fill:#FFEC52;" cx="23.2" cy="174.1" r="3.9"/>
</g>
</svg>
