<?xml version="1.0" encoding="UTF-8"?>
<svg xmlns="http://www.w3.org/2000/svg" version="1.1" viewBox="0 0 390 390">
  <defs>
    <style>
      .cls-1 {
        fill: #86d145;
      }

      .cls-2 {
        fill: #582200;
      }

      .cls-3 {
        fill: #48649c;
      }

      .cls-4 {
        fill: #868686;
      }

      .cls-5 {
        fill: #c84600;
      }

      .cls-6 {
        fill: #fa7920;
      }

      .cls-7 {
        fill: #a0a0a0;
      }

      .cls-8 {
        fill: #d7d7d7;
      }

      .cls-9 {
        fill: #fff;
      }

      .cls-10 {
        fill: #ca6100;
      }

      .cls-11 {
        fill: #23d600;
      }

      .cls-12 {
        fill: #00cf00;
      }

      .cls-13 {
        fill: #ffbc00;
      }

      .cls-14 {
        fill: #6b6b6b;
      }

      .cls-15 {
        fill: #a74200;
      }

      .cls-16 {
        fill: #dadada;
      }

      .cls-17 {
        fill: #ad4400;
      }

      .cls-18 {
        fill: #c97700;
      }
    </style>
  </defs>
  <!-- Generator: Adobe Illustrator 28.7.1, SVG Export Plug-In . SVG Version: 1.2.0 Build 142)  -->
  <g>
    <g id="_레이어_1" data-name="레이어_1">
      <g id="_레이어_1-2" data-name="_레이어_1">
        <g id="_레이어_1-2">
          <g>
            <g>
              <path class="cls-6" d="M357.8,167.5c.7,0,1.5,0,2.3,0-2,6.7-5.1,13.1-9.4,18.7-10.3,13.7-29.7,25.5-47.5,23.5-18.5-2.1-11.8-24.3-5.1-35.1,5-8,12.5-14.6,21.3-18.1,6.2-2.4,12.9-3.4,19.4-4.9,0,.5,0,1,.1,1.5.7,1.7,3,2,4.8,1.8.4,0,.8-.1,1.1,0,.8.4.7,1.6.7,2.5,0,1.5,1,3,2.3,3.8,1.4.7,3.1.7,4.4-.1-.2,1.1-.4,2.3,0,3.3.7,2.1,3.2,2.9,5.3,3.2h0s0,0,0,0Z"/>
              <path class="cls-9" d="M342.1,150.8c7.5-2,15.1-5.4,19.5-11.8,1.8,9.4,1.3,19.3-1.5,28.5-.8.1-1.6.1-2.3,0-2.2-.2-4.6-1.1-5.3-3.2-.4-1.1-.2-2.2,0-3.3-1.3.8-3.1.9-4.4.1-1.4-.8-2.3-2.3-2.3-3.8,0-.9.1-2.1-.7-2.5-.3-.2-.7-.1-1.1,0-1.8.2-4.1,0-4.8-1.8-.2-.5-.2-1-.1-1.5,1.1-.2,2.1-.5,3.2-.8h0Z"/>
            </g>
            <path d="M307.3,211.1c-1.4,0-2.8,0-4.1-.2-5.7-.6-9.6-3.1-11.6-7.3-4.5-9.3,1.7-23.5,5.6-29.8,5.3-8.6,13.1-15.2,22-18.6,4.7-1.8,9.7-2.9,14.6-3.8,1.7-.3,3.4-.7,5.1-1.1,1.1-.2,2.1-.5,3.1-.8,9.1-2.4,15.2-6.1,18.8-11.3.3-.4.8-.6,1.3-.5.5.1.9.5,1,1,1.8,9.5,1.3,19.6-1.5,29.1h0c-2.1,7-5.3,13.4-9.6,19.1-9.4,12.5-27.2,24.3-44.5,24.3h0s0,0,0,0h0ZM360.8,142.1c-4,4.5-10.1,7.8-18.4,10-1,.3-2.1.5-3.2.8-1.8.4-3.5.7-5.2,1.1-4.7,1-9.6,2-14.1,3.7-8.3,3.2-15.7,9.5-20.7,17.5-4.2,6.8-9.1,19.6-5.4,27.3,1.6,3.4,4.9,5.3,9.6,5.9,17.6,2,36.6-10.1,46.3-23,4.1-5.4,7.2-11.6,9.2-18.3,0,0,0,0,0,0,2.4-8.2,3.1-16.7,1.9-25h0Z"/>
          </g>
          <g>
            <path class="cls-9" d="M302.8,198.4c-1.4-6-2.4-12.1-5.3-17.6-2.8-5.4-8.1-10.1-14.2-10.3-2.6,0-6.9,1.2-9.4,1.1-2.6.1-6.9-1.1-9.4-1.1-6.1.2-11.4,4.8-14.2,10.3-2.8,5.4-3.8,11.6-5.3,17.6-1.4,5.7-3.2,15.2-5.4,20.7-1.1,3.9,70.5,4.6,68.6,0-2.2-5.4-4-15-5.4-20.7h0Z"/>
            <path d="M274.6,223.5c-16.2,0-32.5-1-35.4-2.9-1.1-.7-.9-1.7-.8-2,1.7-4.2,3.2-10.7,4.3-16,.4-1.7.7-3.3,1.1-4.6.3-1.2.5-2.3.8-3.5,1.1-4.8,2.2-9.9,4.6-14.4,2.7-5.2,8.2-10.8,15.3-11,1.3,0,3,.2,4.8.6,1.7.3,3.4.6,4.6.5,1.3,0,3.1-.2,4.8-.5,1.8-.3,3.4-.6,4.8-.6,7.2.2,12.6,5.8,15.3,11,2.4,4.5,3.5,9.5,4.6,14.4.3,1.2.5,2.3.8,3.5.3,1.4.7,2.9,1.1,4.6,1.2,5.3,2.6,11.8,4.3,15.8.2.6.2,1.5-.6,2.1-2.3,1.9-18.1,2.8-34.1,2.8h0ZM241.1,218.8c6.9,2.9,59.6,3,65.7.2-1.6-4.2-3-10.5-4.2-15.6-.4-1.7-.7-3.2-1-4.6h0c-.3-1.2-.5-2.3-.8-3.5-1-4.7-2.1-9.5-4.3-13.7-2.4-4.5-7.1-9.4-13.1-9.6-1.1,0-2.7.2-4.3.5-1.8.3-3.7.6-5.2.6-1.3,0-3.2-.2-5.1-.6-1.5-.3-3.1-.5-4.3-.5-6,.2-10.7,5-13.1,9.6-2.2,4.2-3.3,9.1-4.3,13.7-.3,1.2-.5,2.4-.8,3.5-.3,1.4-.7,2.9-1.1,4.6-1.1,5-2.5,11.2-4.1,15.5h0ZM307,219.5h0,0Z"/>
          </g>
          <g>
            <path class="cls-3" d="M271.8,190.5c.2.2.4.4.5.6,0,.3,0,.5,0,.8-1.3,4.2-2.7,8.4-4.2,12.5-.1.3-.2.6-.2,1,0,.4.2.7.4,1,1.4,2.5,3,5,4.8,7.3.2.2.4.5.7.6,2.1,1.1,4.6-4,5.3-5.3,1-1.6,1.7-3.1,1.3-5-.4-1.9-1.5-3.5-2.1-5.3-.8-2.1-1.9-4.7-2-7,0-.4.2-.7.5-1,.8-1,1.7-1.9,2.3-3,.6-1.1.9-2.5.5-3.7-1.1-3-5.2-2.9-7.2-1-.8.8-1.6,2-2.3,2.9-1.3,1.8.5,3.4,1.9,4.7h0Z"/>
            <path d="M274.3,215.7c-.4,0-.8,0-1.2-.3-.5-.3-.9-.7-1.1-1-1.8-2.3-3.5-4.8-4.9-7.4-.2-.4-.5-.9-.5-1.6,0-.6.2-1.1.3-1.5,1.5-4.1,2.9-8.2,4.2-12.4,0,0,0,0,0,0,0,0,0,0,0,0h0s0,0,0,0c0,0,0,0,0,0,0,0,0,0,0,0l.8-.8-1,.8c-1.4-1.3-3.8-3.6-1.9-6.2l.3-.5c.6-.9,1.3-1.9,2.1-2.6,1.4-1.4,3.8-2,5.8-1.6,1.7.4,3,1.5,3.5,3.1.5,1.4.3,3.1-.5,4.7-.6,1.1-1.3,1.9-2,2.8l-.4.5c-.1.2-.2.2-.2.3,0,1.7.9,3.8,1.6,5.7l.3.8c.2.6.5,1.2.8,1.9.5,1.1,1.1,2.3,1.4,3.6.5,2.4-.4,4.1-1.5,6,0,.2-.2.4-.4.6-1.1,2-3,5.5-5.4,5.5h0ZM272.8,189.6c.2.2.6.6.8,1.2.2.6,0,1.2,0,1.5-1.3,4.2-2.7,8.4-4.2,12.5,0,.1-.1.4-.1.4,0,0,.1.3.2.4,1.4,2.5,3,4.9,4.7,7.1,0,0,.2.2.2.3,0,0,.8.3,3.2-4.1.2-.3.3-.5.4-.7.9-1.5,1.5-2.6,1.1-4.1-.2-1-.7-2-1.2-3-.3-.7-.6-1.4-.9-2.1l-.3-.7c-.8-2.1-1.7-4.4-1.8-6.7,0-.9.5-1.5.8-1.9l.4-.5c.7-.8,1.3-1.5,1.7-2.3.5-.9.6-1.9.4-2.6-.3-.9-1.1-1.3-1.7-1.4-1.2-.3-2.6,0-3.4.9-.6.6-1.2,1.5-1.8,2.2l-.3.5c-.4.6-.1,1.2,1.6,2.8,0,0,.2.1.2.1h0l-.9.9.9-.9h0ZM271.1,191.6h0,0Z"/>
          </g>
          <g>
            <path class="cls-9" d="M256.8,175.3c0,5,4.3,10.3,8.4,12.7,1.6,1,1.9,1.2,3.6.4,2.1-1,4.1-3.1,5.6-4.5,1.7,1.3,3.3,4.8,5.4,5.4,2.8.8,6.9-3.9,8.6-5.7,2.4-2.7,4-6.1,2.8-9.6-2.5-7.3-10.7-10.2-17.9-9.9-5.1.2-11.8,2.4-14.9,6.6-1,1.4-1.5,3-1.5,4.6h0Z"/>
            <path d="M280.4,190.7c-.3,0-.7,0-1-.1-1.7-.5-3-2.2-4.1-3.7-.3-.4-.6-.8-.9-1.2-1.4,1.4-3.2,3-5.1,3.9-2.2,1-3,.6-4.7-.4-4.6-2.8-9.1-8.4-9.1-13.9h0c0-2,.6-3.8,1.8-5.3,3.3-4.6,10.4-6.9,15.9-7.2,7.6-.4,16.5,2.8,19.1,10.8,1.2,3.5.1,7.3-3,10.9-2.6,3-5.9,6.3-8.9,6.3h0ZM274.3,182.6c.3,0,.6,0,.8.3.8.6,1.4,1.5,2.2,2.4.9,1.2,1.9,2.5,2.8,2.7.8.2,2.7-.2,7.2-5.3,2.6-2.9,3.4-5.7,2.5-8.4-2.3-6.7-10-9.3-16.6-9-4.7.2-11.1,2.2-13.9,6.1-.8,1.1-1.3,2.4-1.3,3.8h0c0,4.5,3.9,9.3,7.7,11.6.9.6,1.7.7,2.4.4,1.6-.8,3.3-2.4,4.7-3.7l.6-.6c.2-.2.6-.4.9-.4h0Z"/>
          </g>
          <g>
            <g>
              <path class="cls-15" d="M310.8,255.5c3.1,6.5-2.8,11.5-9.3,11.7-5.1.1-19.5,2.5-21.7-3.8-.5-1.5-.5-3.1-.4-4.7,0-.5,0-1,0-1.5.7-.5,1.4-.8,2.2-1,1.3-.3,2.9-.1,4.1.5.6.3,1.2.7,1.8.5.3-.1.5-.3.8-.5,1.6-1.3,4.3-1,5.5.6,1.9-1.8,5.2-2.1,7.4-.6.3.2.5.4.9.4s.7-.3.9-.5c1.9-1.6,5-2.5,7.4-1.3.1,0,.2.1.3.2h0Z"/>
              <path class="cls-6" d="M310.5,255.4c-2.4-1.1-5.5-.3-7.4,1.3-.3.2-.6.5-.9.5s-.6-.2-.9-.4c-2.2-1.5-5.5-1.3-7.4.6-1.3-1.6-3.9-1.9-5.5-.6-.2.2-.5.4-.8.5-.6.2-1.3-.2-1.8-.5-1.2-.6-2.8-.8-4.1-.5-.8.2-1.5.6-2.2,1,.2-10.7.9-21.3.9-31.9s-.8-8.1,1.4-10.4c1.9-2,6.7-1,9.2,0,2.1,9.5,4.2,19,6.4,28.5.2.9.4,1.8,1,2.5.6.7,1.4,1,2.2,1.4,3.7,1.6,7.5,3.6,9.6,7,.2.4.5.8.6,1.2-.1,0-.2-.1-.3-.2h0Z"/>
            </g>
            <path d="M291.1,269c-5.6,0-11-.9-12.5-5.2-.5-1.6-.5-3.3-.5-5.1,0-.5,0-1,0-1.5,0-4.4.3-8.9.4-13.3.2-6.1.5-12.4.5-18.6s0-1.2,0-1.8c-.1-3.2-.3-7.2,1.8-9.5,2.4-2.6,7.8-1.4,10.6-.3l.6.3v.7c2.3,9.5,4.4,19,6.5,28.5.2.7.3,1.5.7,1.9.3.4,1,.7,1.6,1,3.8,1.6,7.9,3.8,10.3,7.6.3.4.5.9.7,1.3,1.4,2.9,1.3,5.8-.3,8.3-1.9,3.1-5.9,5.1-10.2,5.2-.8,0-2,.1-3.2.2-2.2.2-4.7.4-7.2.4h0ZM285.4,215.1c-1.2,0-2.1.2-2.6.7-1.4,1.5-1.3,5-1.2,7.6,0,.7,0,1.4,0,1.9,0,6.2-.3,12.6-.5,18.7-.2,4.4-.4,8.8-.4,13.2h0c0,.5,0,1,0,1.5,0,1.7,0,3,.4,4.2,1.4,4.2,11.6,3.5,17,3.1,1.3-.1,2.5-.2,3.4-.2,3.4,0,6.6-1.6,8-4,1.1-1.7,1.1-3.7.1-5.8-.2-.4-.4-.7-.6-1-2-3.2-5.6-5.1-9-6.5-1-.4-1.9-.8-2.7-1.7-.8-1-1.1-2.2-1.3-3.1-2.1-9.3-4.1-18.6-6.2-27.9-1.5-.5-3.2-.8-4.6-.8h0Z"/>
          </g>
          <g>
            <g>
              <path class="cls-15" d="M253.8,257.4c-1.9-1.8-5.2-2.1-7.4-.6-.3.2-.6.4-.9.4s-.7-.3-1-.5c-1.9-1.6-5-2.5-7.4-1.3-.1,0-.2.1-.3.2-3.1,6.5,2.9,11.5,9.3,11.7,5.1.1,19.5,2.5,21.7-3.8.5-1.5.5-3.1.5-4.7,0-.5,0-1,0-1.5-.7-.5-1.4-.9-2.2-1.1-1.3-.3-2.9-.1-4.1.5-.6.3-1.2.7-1.8.5-.3-.1-.5-.3-.8-.5-1.6-1.3-4.3-1-5.5.6h0Z"/>
              <path class="cls-6" d="M259.4,256.7c.2.2.5.4.8.5.6.2,1.3-.2,1.8-.5,1.2-.6,2.8-.8,4.1-.5.8.2,1.5.6,2.2,1.1-.2-10.7-1-21.3-1-31.9s.8-8.1-1.4-10.4c-1.9-2-6.7-1-9.2,0-2.1,9.5-4.2,19-6.4,28.5-.2.9-.4,1.8-1,2.5-.6.7-1.4,1-2.2,1.4-3.7,1.6-7.5,3.6-9.6,7-.2.4-.5.8-.6,1.2.1,0,.2-.1.3-.2,2.4-1.1,5.5-.3,7.4,1.3.3.2.6.5,1,.5s.6-.2.9-.4c2.2-1.5,5.4-1.3,7.4.6,1.3-1.6,3.9-1.9,5.5-.6h0Z"/>
            </g>
            <path d="M256.6,269c-2.5,0-5-.2-7.2-.4-1.3,0-2.4-.2-3.2-.2-4.3,0-8.2-2.1-10.2-5.2-1.5-2.5-1.6-5.4-.3-8.3.2-.4.4-.9.7-1.3,2.3-3.8,6.5-5.9,10.2-7.5.8-.3,1.4-.6,1.7-1,.4-.4.5-1.2.7-1.9,2.1-9.5,4.2-19.1,6.4-28.6l.2-.7.6-.3c2.8-1.1,8.2-2.3,10.6.3,2.1,2.3,2,6.3,1.8,9.5,0,.7,0,1.3,0,1.8,0,6.3.3,12.7.5,18.9.2,4.3.4,8.6.5,12.9,0,.5,0,1,0,1.6,0,1.6,0,3.4-.5,5.1-1.4,4.2-6.9,5.2-12.5,5.2h0ZM257.8,215.9c-2.1,9.3-4.1,18.6-6.2,27.9-.3,1.1-.5,2.1-1.3,3.1-.7.9-1.7,1.3-2.6,1.7-3.4,1.5-7.1,3.4-9.1,6.6-.2.3-.4.7-.5,1-1,2.1-.9,4.1.1,5.9,1.5,2.3,4.6,3.9,8,4,.9,0,2.1.1,3.4.2,5.4.4,15.6,1.2,17-3.1.4-1.3.4-2.7.4-4.2,0-.5,0-1,0-1.5h0c0-4.3-.3-8.6-.5-12.9-.3-6.2-.5-12.7-.5-19.1s0-1.2,0-2c.1-2.6.3-6.1-1.1-7.6-1.1-1.1-4.4-.8-7.2,0h0Z"/>
          </g>
          <g>
            <path class="cls-13" d="M290.5,206c8.1-.3,9.1-13.6,9.1-13.6l-9.1-5.2-9.1,5.2s1,13.3,9.1,13.6Z"/>
            <path class="cls-5" d="M290.5,203.2c5.6-.2,6.3-9.4,6.3-9.4l-6.3-3.6-6.3,3.6s.7,9.2,6.3,9.4Z"/>
            <path class="cls-9" d="M293.7,199.6c-.2.2-.3.2-.4.3-.1,0-.3,0-.5,0-.2,0-.4,0-.4-.2,0-.1-.1-.3-.1-.5v-3.2c0,.2-.2.5-.3.8-.1.3-.2.5-.3.8-.1.3-.2.5-.3.8-.1.3-.2.5-.3.8,0,0,0,.1,0,.2,0,0,0,.1-.1.2,0,0-.1,0-.2.1,0,0-.1,0-.2,0s-.2,0-.2,0c0,0,0,0-.1-.2l-1.4-3.6v3.4c0,0,0,.2,0,.2,0,0-.1.1-.2.2,0,0-.2.1-.3.2,0,0-.2.1-.4.1l-.3-.2s0,0,0-.1c0,0,0,0,0-.1,0,0,0,0,0-.1v-5.4s0,0,0-.1c0,0,0,0,0-.1l.3-.2c.1,0,.3,0,.4,0,.1,0,.3,0,.4.1.1,0,.2.1.3.2,0,0,.2.2.2.3l1.4,4,1.5-4.1h0s0,0,0-.1,0,0-.1-.1l.3-.2c.4,0,.6.1.8.2.2,0,.3.2.3.2v5.2c0,0,0,.1,0,.2,0,0,0,0,.2,0l.2.3h0s0,0,0,0h0Z"/>
          </g>
          <g>
            <path class="cls-11" d="M122.4,240.2s32.3,39.1,68.2,40.2,39.4-11.4,31.3-14.9-50.2-12.7-56.5-51.3c-6.3-38.6-60.9-7.3-43.1,26h0Z"/>
            <path d="M195.2,281.8c-1.4,0-3,0-4.5,0-18.9-.6-36.7-11.7-48.4-20.8-12.5-9.9-20.8-19.8-20.8-19.9,0,0-.1-.1-.1-.2-5.9-11-4.8-23,3.1-33,7.5-9.5,19.1-14.5,28.4-12.1,7.5,1.9,12.4,8.4,14.1,18.3,5.3,33,37.4,43.9,51.1,48.6,2,.7,3.5,1.2,4.6,1.7,3.2,1.4,4.9,4.1,4.2,6.9-1.2,5.2-10.2,10.5-31.6,10.5h0ZM123.5,239.5c1.8,2.2,33.1,38.6,67.2,39.7,24.8.8,32.7-4.9,33.5-8.4.4-1.6-.7-3.1-2.8-4-1-.4-2.5-.9-4.4-1.6-14.1-4.8-47.3-16.1-52.9-50.7-1.4-8.9-5.6-14.6-12.1-16.2-8.1-2.1-18.9,2.6-25.7,11.2-7.2,9.1-8.2,20.1-2.9,30.1h0Z"/>
          </g>
          <g>
            <g>
              <path class="cls-11" d="M145.6,249c.4.8.4,1.7,0,2.4-1.2,2.2-2,5-3.3,7-1.6,2.6-3.3,5.1-4.5,7.8-1.3,3-1.2,5.8-1.5,9-.4,4.5,0,8.2,5.5,8.2h25.4s8.8-.6,7.4-8c-2.5-12.9-7.6-12.9-16.4-12.9l5.3-17.4c.4-.9.6-1.9.4-2.9"/>
              <path d="M141.8,284.7c-2.4,0-4.2-.6-5.3-1.9-1.8-2-1.8-5-1.5-7.7,0-.6,0-1.2.1-1.7.2-2.6.4-5,1.5-7.6,1-2.4,2.4-4.5,3.7-6.6l.9-1.4c.6-1,1.1-2.3,1.7-3.6.5-1.1,1-2.3,1.5-3.4.2-.4.2-.8,0-1.2-.4-.6-.1-1.4.5-1.8.6-.4,1.4-.1,1.8.5.7,1.2.7,2.5,0,3.7-.5.9-1,2.1-1.4,3.1-.6,1.4-1.2,2.8-1.9,4l-.9,1.4c-1.3,2-2.6,4.1-3.5,6.2-.9,2.2-1.1,4.3-1.3,6.8,0,.6,0,1.2-.1,1.8-.2,2-.3,4.5.8,5.7.7.7,1.8,1.1,3.4,1.1h25.4s3.7-.3,5.5-2.6c.8-1,1-2.3.7-3.9-2.3-11.9-6.3-11.9-15.1-11.9s-.8-.2-1-.5-.3-.8-.2-1.1l5.3-17.4c.4-.8.5-1.6.4-2.3,0-.7.4-1.4,1.1-1.4.7,0,1.4.4,1.4,1.1.2,1.2,0,2.4-.5,3.6l-4.8,15.6c7.8,0,13.5.9,15.9,14,.4,2.3,0,4.3-1.2,5.9-2.4,3.2-7.2,3.5-7.4,3.6h-25.5s0,0,0,0h0Z"/>
            </g>
            <g>
              <path class="cls-16" d="M168.3,281.2c-1.4-2.1-.5-5.4,1.4-7,1.6-1.4,4.9-1.9,6.7-.6,2.3,1.6,6.1,5.7,5.7,8.4-2.9,1.5-10.3,2.2-12.9,0-.3-.2-.6-.5-.8-.8Z"/>
              <path d="M174.7,284.7c-2.5,0-4.9-.4-6.4-1.6-.4-.3-.8-.7-1-1.1h0c-1.8-2.8-.6-6.8,1.6-8.7,2-1.7,5.8-2.4,8.2-.7,2.2,1.5,6.8,6,6.2,9.6,0,.4-.3.8-.7,1-1.6.8-4.9,1.5-8,1.5h0ZM169.4,280.5c.1.2.3.4.5.5,2,1.6,7.9,1.2,10.8.1-.4-2-3.1-5-5.1-6.5-1.3-.9-3.9-.5-5.1.5-1.3,1.1-2.1,3.8-1.1,5.3h0Z"/>
            </g>
            <g>
              <path class="cls-16" d="M162.7,282.3c-1.4-2.1-.5-5.4,1.4-7,1.6-1.4,4.9-1.9,6.7-.6,2.3,1.6,6.1,5.7,5.7,8.4-2.9,1.5-10.3,2.2-12.9,0-.3-.2-.6-.5-.8-.8Z"/>
              <path d="M169,285.8c-2.5,0-4.9-.4-6.4-1.6-.4-.3-.8-.7-1-1.1h0c-1.8-2.8-.6-6.8,1.6-8.7,2-1.7,5.8-2.4,8.2-.7,2.2,1.5,6.8,6,6.2,9.6,0,.4-.3.8-.7,1-1.6.8-4.9,1.5-8,1.5h0ZM163.8,281.6c.1.2.3.4.5.5,2,1.6,7.9,1.2,10.8.1-.4-2-3.1-5-5.1-6.5-1.3-.9-3.9-.5-5.1.5-1.3,1.1-2.1,3.8-1.1,5.3h0Z"/>
            </g>
            <g>
              <path class="cls-16" d="M155.5,282.3c-1.4-2.1-.5-5.4,1.4-7,1.6-1.4,4.9-1.9,6.7-.6,2.3,1.6,6.1,5.7,5.7,8.4-2.9,1.5-10.3,2.2-12.9,0-.3-.2-.6-.5-.8-.8Z"/>
              <path d="M161.8,285.8c-2.5,0-4.9-.4-6.4-1.6-.4-.3-.8-.7-1-1.1h0c-1.8-2.8-.6-6.8,1.6-8.7,2-1.7,5.8-2.4,8.2-.7,2.2,1.5,6.8,6,6.2,9.6,0,.4-.3.8-.7,1-1.6.8-4.9,1.5-8,1.5h0ZM156.5,281.6c.1.2.3.4.5.5,2,1.6,7.9,1.2,10.8.1-.4-2-3.1-5-5.1-6.5-1.3-.9-3.9-.5-5.1.5-1.3,1.1-2.1,3.8-1.1,5.3h0Z"/>
            </g>
            <g>
              <path class="cls-3" d="M162.4,218c.3.7,1,5.8,1.2,6.7.7,3.1.3,6.2.9,9.3.8,4.1,1.7,8.1.9,12.2-.8,4-3.4,9.1-5.1,12.8-1.2,2.6-1.1,3.1-3.5,4-4.5,1.6-9.3.1-13.9,1.8-2.1.8-4.2,2-6.3,2.4,0-4.4,1.8-9.1,3.4-13.1,2.9-7.4-1-13.4-2.9-20.5"/>
              <path d="M136.5,268.5c-.3,0-.6-.1-.8-.3-.3-.2-.5-.6-.5-1,0-4.7,2-9.6,3.5-13.6,2-5.1.5-9.5-1.3-14.5-.6-1.7-1.2-3.4-1.7-5.2-.2-.7.2-1.4.9-1.6.7-.2,1.4.2,1.6.9.5,1.7,1,3.4,1.6,5,1.8,5.1,3.6,10.4,1.2,16.3-1.3,3.2-2.9,7.2-3.3,10.9.7-.3,1.5-.6,2.2-.9.8-.3,1.5-.7,2.3-.9,2.5-.9,5-1,7.4-1,2.3,0,4.4,0,6.5-.8,1.5-.6,1.5-.6,2.2-2.2.1-.3.3-.7.5-1.2l.6-1.3c1.7-3.5,3.7-7.8,4.4-11.2.7-3.6,0-7.1-.7-10.8l-.2-1c-.3-1.6-.4-3.2-.4-4.7,0-1.6-.1-3.1-.5-4.6,0-.3-.2-1.1-.3-2.1-.2-1.4-.6-3.9-.8-4.4-.3-.6,0-1.4.6-1.7.6-.3,1.4,0,1.7.6.3.5.5,1.8,1,5.1.1.9.2,1.6.3,1.9.4,1.7.4,3.4.5,5,0,1.5.1,2.9.4,4.3l.2,1c.7,3.8,1.5,7.7.7,11.7-.7,3.7-2.9,8.2-4.6,11.8l-.6,1.3c-.2.4-.4.8-.5,1.1-.9,1.9-1.3,2.6-3.7,3.5-2.4.9-4.9.9-7.3,1-2.3,0-4.5,0-6.5.8-.7.3-1.4.6-2.1.9-1.4.6-2.9,1.3-4.4,1.6,0,0-.2,0-.3,0h0Z"/>
            </g>
          </g>
          <g>
            <g>
              <path class="cls-11" d="M101.3,249c-.4.8-.4,1.7,0,2.4,1.2,2.2,2,5,3.3,7,1.6,2.6,3.3,5.1,4.5,7.8,1.3,3,1.2,5.8,1.5,9,.4,4.5,0,8.2-5.5,8.2h-25.4s-8.8-.6-7.4-8c2.5-12.9,7.6-12.9,16.4-12.9l-5.3-17.4c-.4-.9-.6-1.9-.4-2.9"/>
              <path d="M105.1,284.7h-25.4c-.3,0-5.1-.4-7.5-3.6-1.2-1.6-1.7-3.6-1.2-5.9,2.5-13,8.1-13.9,15.9-14l-4.8-15.7c-.4-1-.6-2.2-.5-3.4,0-.7.7-1.2,1.4-1.1.7,0,1.2.7,1.1,1.4,0,.7,0,1.5.3,2.2l5.4,17.5c.1.4,0,.8-.2,1.1s-.6.5-1,.5c-8.8,0-12.9,0-15.1,11.9-.3,1.6,0,2.9.7,3.9,1.7,2.2,5.5,2.5,5.6,2.5h25.4c1.6,0,2.7-.4,3.4-1.1,1.1-1.2,1-3.7.8-5.7,0-.6-.1-1.2-.1-1.8-.2-2.5-.3-4.6-1.3-6.8-.9-2.2-2.2-4.2-3.5-6.2l-.9-1.4c-.7-1.2-1.3-2.6-1.9-4-.4-1.1-.9-2.2-1.4-3.1-.6-1.1-.6-2.5,0-3.7.4-.6,1.1-.8,1.8-.5.6.4.8,1.1.5,1.8-.2.4-.2.8,0,1.2.6,1.1,1.1,2.2,1.5,3.4.6,1.3,1.1,2.6,1.7,3.6l.9,1.4c1.3,2.1,2.7,4.2,3.7,6.6,1.1,2.6,1.3,5,1.5,7.6,0,.6,0,1.2.1,1.7.3,2.7.3,5.7-1.5,7.7-1.2,1.3-3,1.9-5.3,1.9h0Z"/>
            </g>
            <g>
              <path class="cls-16" d="M78.6,281.2c1.4-2.1.5-5.4-1.4-7-1.6-1.4-4.9-1.9-6.7-.6-2.3,1.6-6.1,5.7-5.7,8.4,2.9,1.5,10.3,2.2,12.9,0,.3-.2.6-.5.8-.8Z"/>
              <path d="M72.2,284.7c-3.1,0-6.3-.7-8-1.5-.4-.2-.6-.5-.7-1-.5-3.6,4-8.1,6.2-9.6,2.4-1.7,6.3-1,8.2.7,2.2,1.9,3.4,5.9,1.6,8.7h0c-.3.4-.6.8-1,1.1-1.5,1.2-3.9,1.6-6.4,1.6h0ZM66.2,281.2c2.9,1.1,8.8,1.5,10.8-.1.2-.2.4-.3.5-.5,1-1.5.2-4.1-1.1-5.3-1.2-1-3.8-1.4-5.1-.5-2,1.4-4.8,4.5-5.1,6.5h0ZM78.6,281.2h0,0Z"/>
            </g>
            <g>
              <path class="cls-16" d="M84.2,282.3c1.4-2.1.5-5.4-1.4-7-1.6-1.4-4.9-1.9-6.7-.6-2.3,1.6-6.1,5.7-5.7,8.4,2.9,1.5,10.3,2.2,12.9,0,.3-.2.6-.5.8-.8Z"/>
              <path d="M77.9,285.8c-3.1,0-6.3-.7-8-1.5-.4-.2-.6-.5-.7-1-.5-3.6,4-8.1,6.2-9.6,2.4-1.7,6.3-1,8.2.7,2.2,1.9,3.4,5.9,1.6,8.7h0c-.3.4-.6.8-1,1.1-1.5,1.2-3.9,1.6-6.4,1.6ZM71.8,282.2c2.9,1.1,8.8,1.5,10.8-.1.2-.2.4-.3.5-.5,1-1.5.2-4.1-1.1-5.3-1.2-1-3.8-1.4-5.1-.5-2,1.4-4.8,4.5-5.1,6.5h0ZM84.2,282.3h0,0Z"/>
            </g>
            <g>
              <path class="cls-16" d="M91.4,282.3c1.4-2.1.5-5.4-1.4-7-1.6-1.4-4.9-1.9-6.7-.6-2.3,1.6-6.1,5.7-5.7,8.4,2.9,1.5,10.3,2.2,12.9,0,.3-.2.6-.5.8-.8Z"/>
              <path d="M85.1,285.8c-3.1,0-6.3-.7-8-1.5-.4-.2-.6-.5-.7-1-.5-3.6,4-8.1,6.2-9.6,2.4-1.7,6.3-1,8.2.7,2.2,1.9,3.4,5.9,1.6,8.7h0c-.3.4-.6.8-1,1.1-1.5,1.2-3.9,1.6-6.4,1.6h0ZM79,282.2c2.9,1.1,8.8,1.5,10.8-.1.2-.2.4-.3.5-.5,1-1.5.2-4.1-1.1-5.3-1.2-1-3.8-1.4-5.1-.5-2,1.4-4.8,4.5-5.1,6.5h0ZM91.4,282.3h0,0Z"/>
            </g>
            <g>
              <path class="cls-3" d="M84.5,218c-.3.7-1,5.8-1.2,6.7-.7,3.1-.3,6.2-.9,9.3-.8,4.1-1.7,8.1-.9,12.2.8,4,3.4,9.1,5.1,12.8,1.2,2.6,1.1,3.1,3.5,4,4.5,1.6,9.3.1,13.9,1.8,2.1.8,4.2,2,6.3,2.4,0-4.4-1.8-9.1-3.4-13.1-2.9-7.4,1-13.4,2.9-20.5"/>
              <path d="M110.4,268.5c0,0-.2,0-.3,0-1.5-.3-3-1-4.4-1.6-.7-.3-1.4-.6-2.1-.9-2.1-.8-4.2-.8-6.5-.8-2.4,0-4.9,0-7.3-1-2.4-.9-2.8-1.6-3.7-3.5-.1-.3-.3-.7-.5-1.1l-.6-1.3c-1.7-3.6-3.9-8.1-4.6-11.8-.8-4.1,0-8,.7-11.7l.2-1c.3-1.4.3-2.8.4-4.3,0-1.6.1-3.3.5-5,0-.3.2-1,.3-1.9.5-3.3.7-4.5,1-5.1.3-.6,1.1-.9,1.7-.6.6.3.9,1.1.6,1.7-.2.5-.5,3-.8,4.4-.1,1-.3,1.8-.3,2.1-.3,1.5-.4,3-.5,4.6,0,1.5-.1,3.1-.4,4.7l-.2,1c-.7,3.7-1.4,7.2-.7,10.8.7,3.4,2.7,7.7,4.4,11.2l.6,1.3c.2.4.4.8.5,1.2.7,1.5.7,1.6,2.2,2.2,2,.7,4.2.8,6.5.8,2.4,0,4.9,0,7.4,1,.7.3,1.5.6,2.3.9.7.3,1.5.7,2.2.9-.4-3.7-2-7.6-3.3-10.9-2.4-6-.5-11.3,1.2-16.3.6-1.6,1.2-3.3,1.6-5,.2-.7.9-1.1,1.6-.9.7.2,1.1.9.9,1.6-.5,1.8-1.1,3.5-1.7,5.2-1.8,5.1-3.3,9.4-1.3,14.5,1.6,4,3.5,8.9,3.5,13.6,0,.4-.2.8-.5,1-.2.2-.5.3-.8.3h0Z"/>
            </g>
          </g>
          <g>
            <path class="cls-4" d="M126,203.7h5.9c.8,0,1.4.6,1.4,1.4h0c0,.8-.6,1.4-1.4,1.4h-5.9c-.8,0-1.4-.6-1.4-1.4h0c0-.8.6-1.4,1.4-1.4Z"/>
            <path d="M131.9,207.8h-5.9c-1.5,0-2.7-1.2-2.7-2.7s1.2-2.7,2.7-2.7h5.9c1.5,0,2.7,1.2,2.7,2.7s-1.2,2.7-2.7,2.7ZM126,205v.2h5.9c0,0,.1,0,.1-.1h-6c0-.1,0-.1,0-.1Z"/>
          </g>
          <g>
            <g>
              <g>
                <path class="cls-9" d="M170.1,185.9c1.1,4.6,1.3,11.2-.2,18.1-55.1,16.6-93,0-93,0-1.5-7-1.2-13.6-.2-18.1,3.5-14.9,6.6-19.8,9.1-37.9,2.6-17.9,20.3-23.5,20.3-23.5,0,0,21.1-3.1,34.5,0,0,0,17.2,5.6,20.3,23.5,3.6,21.2,5.7,23,9.1,37.9h0Z"/>
                <path class="cls-3" d="M170,204c-3.3,15.6-15.3,33.1-46.5,33.1s-43.2-17.4-46.5-33.1c0,0,38,16.6,93,0h0Z"/>
              </g>
              <g>
                <path d="M123.5,238.4c-12.2,0-41.3-3.3-47.8-34.1-1.4-6.4-1.4-13.3-.1-18.7,1.3-5.5,2.5-9.6,3.7-13.6,2-6.6,3.8-12.9,5.4-24.2,2.6-18.5,21-24.5,21.2-24.5,1.1-.2,21.7-3.1,35.2,0,.8.3,18.1,6.1,21.3,24.5,2.3,13.3,3.9,19,5.7,25,1.1,3.6,2.1,7.3,3.4,12.9,1.3,5.4,1.2,12.2-.1,18.7h0c-6.5,30.8-35.6,34.1-47.8,34.1h0ZM125.9,124.4c-10,0-19.4,1.3-19.5,1.4,0,0-16.8,5.5-19.2,22.4-1.6,11.5-3.5,17.9-5.5,24.6-1.2,3.9-2.4,8-3.6,13.4-1.2,5-1.1,11.6.2,17.6,2.5,12,11.7,32.1,45.3,32.1s42.7-20.1,45.3-32.1c1.3-6,1.3-12.6.2-17.6-1.3-5.5-2.4-9.1-3.4-12.7-1.8-6.1-3.5-11.8-5.8-25.3-2.9-16.8-19.3-22.4-19.4-22.5-4.3-1-9.4-1.3-14.4-1.3h0Z"/>
                <path d="M121.2,212.7c-7.1,0-13.4-.5-18.6-1.1-16.4-2.1-25.8-6.1-26.2-6.3-.7-.3-1-1-.7-1.7.3-.7,1.1-1,1.7-.7.4.2,38.2,16.2,92.1,0,.7-.2,1.4.2,1.6.9.2.7-.2,1.4-.9,1.6-18.8,5.6-35.5,7.4-49.1,7.4Z"/>
              </g>
            </g>
            <g>
              <path class="cls-3" d="M120.7,167.1c.2.2.5.4.6.7,0,.3,0,.7,0,1-1.5,5.1-3.3,10.2-5.1,15.3-.1.4-.3.8-.3,1.2,0,.4.2.8.5,1.2,1.7,3.1,3.7,6.1,5.9,8.9.2.3.5.6.8.8,2.6,1.3,5.6-4.9,6.5-6.5,1.2-2,2.1-3.8,1.6-6.2-.5-2.3-1.8-4.3-2.6-6.5-1-2.6-2.3-5.8-2.4-8.6,0-.5.3-.9.6-1.2,1-1.2,2-2.4,2.8-3.7.7-1.4,1.1-3,.6-4.5-1.3-3.6-6.4-3.6-8.8-1.2-1,1-2,2.4-2.8,3.6-1.5,2.2.6,4.1,2.3,5.7h0Z"/>
              <path d="M123.7,197.6c-.4,0-.9-.1-1.4-.3-.6-.3-1-.8-1.2-1.1-2.2-2.9-4.2-5.9-6-9.1-.2-.4-.6-1-.6-1.8,0-.7.2-1.3.4-1.7,1.9-5,3.6-10.1,5.1-15.2,0,0,0-.2,0-.3,0,0-.1,0-.2-.1,0,0,0,0,0,0l-.2-.2c-1.7-1.6-4.4-4.2-2.3-7.2l.4-.6c.7-1.1,1.6-2.3,2.5-3.2,1.7-1.6,4.4-2.4,6.8-1.8,2,.5,3.4,1.7,4.1,3.6.6,1.7.4,3.6-.6,5.5-.7,1.3-1.6,2.3-2.4,3.4l-.5.6c-.2.3-.3.4-.3.4,0,2.2,1.1,4.8,2,7.2l.4.9c.3.8.7,1.5,1,2.3.6,1.4,1.3,2.8,1.6,4.3.6,2.9-.4,4.9-1.7,7.1-.1.2-.3.5-.4.8-1.3,2.4-3.6,6.5-6.4,6.5h0ZM121.6,166.2c.3.3.7.7.9,1.3.2.7,0,1.3,0,1.7-1.5,5.2-3.3,10.3-5.2,15.3,0,.2-.2.5-.2.7,0,.2.2.5.3.7,1.7,3,3.7,6,5.8,8.7,0,.1.3.4.4.4.4.2,1.6-.1,4.4-5.1.2-.3.4-.6.5-.9,1.1-1.9,1.8-3.3,1.4-5.2-.3-1.3-.8-2.5-1.5-3.8-.4-.8-.8-1.7-1.1-2.5l-.3-.9c-1-2.5-2-5.4-2.1-8.1,0-1,.6-1.7.9-2.1l.5-.6c.8-1,1.6-1.9,2.1-2.9.6-1.2.8-2.5.5-3.4-.5-1.3-1.5-1.7-2.3-1.9-1.5-.4-3.4.1-4.4,1.2-.8.7-1.5,1.8-2.2,2.8l-.4.6c-.7,1,0,2,2,3.8l.2.2-.9.9.9-.9h0Z"/>
            </g>
            <g>
              <path class="cls-9" d="M102.2,148.5c0,6.2,5.3,12.6,10.2,15.6,2,1.2,2.4,1.5,4.4.5,2.5-1.2,5-3.8,6.9-5.6,2,1.6,4,5.9,6.6,6.6,3.4,1,8.5-4.8,10.5-7,2.9-3.3,4.9-7.4,3.4-11.8-3-9-13.1-12.5-21.9-12.1-6.2.3-14.4,2.9-18.3,8.1-1.3,1.8-1.8,3.7-1.9,5.6h0Z"/>
              <path d="M131.1,167c-.4,0-.8,0-1.2-.2-2-.6-3.5-2.5-4.9-4.4-.5-.6-.9-1.2-1.4-1.7-1.8,1.7-4,3.8-6.3,4.9-2.5,1.2-3.3.8-5.5-.5-5.6-3.4-11-10.2-11-16.8h0c0-2.3.7-4.5,2.1-6.4,4-5.6,12.6-8.4,19.2-8.7,9.2-.5,19.9,3.4,23.2,13,1.4,4.2.2,8.7-3.6,13.1-3.2,3.6-7.1,7.6-10.6,7.6h0ZM123.7,157.7c.3,0,.6,0,.8.3.9.7,1.7,1.8,2.6,2.9,1.1,1.5,2.4,3.1,3.6,3.5,1.2.3,3.8-.5,9.1-6.6,3.2-3.7,4.3-7.2,3.1-10.6-2.8-8.3-12.4-11.6-20.6-11.2-5.9.3-13.8,2.8-17.3,7.6-1.1,1.5-1.6,3.1-1.6,4.9,0,5.6,4.9,11.6,9.6,14.4,1.2.7,2.3.9,3.2.5,2-1,4.1-3,5.8-4.6l.7-.7c.2-.2.6-.4.9-.4,0,0,0,0,0,0Z"/>
            </g>
            <path d="M150.8,180.7c-.3,0-.6,0-1,0-9.1-1.3-8.4-15-8.3-15.5,0-.7.6-1.2,1.3-1.2l13.5-.4c.7,0,1.2.5,1.3,1.1.1,1.1,1.1,10.6-2.9,14.5-1.1,1-2.4,1.6-3.9,1.6h0ZM144.1,166.5c0,3,.6,10.9,6.1,11.6,1.1.2,2,0,2.7-.8,2.2-2.2,2.4-8,2.2-11.1l-11.1.3h0Z"/>
          </g>
          <path d="M123.4,226c-.3,0-.5,0-.7-.2l-4.5-3.2c-.3-.2-.6-.6-.6-1.1v-9.1c0-.7.6-1.3,1.3-1.3s1.3.6,1.3,1.3v8.4l3.2,2.2,2.5-2.1v-9.7c0-.7.6-1.3,1.3-1.3s1.3.6,1.3,1.3v10.3c0,.4-.2.7-.5,1l-3.7,3.2c-.2.2-.5.3-.8.3h0Z"/>
          <g>
            <g>
              <rect class="cls-17" x="14.1" y="249.7" width="361.8" height="86.9"/>
              <path d="M377.2,337.9H12.8v-89.5h364.4v89.5ZM15.4,335.3h359.2v-84.3H15.4v84.3Z"/>
            </g>
            <g>
              <rect class="cls-17" x="3.3" y="260.4" width="383.4" height="21.8"/>
              <path d="M388,283.4H2v-24.3h386v24.3ZM4.6,280.8h380.8v-19.2H4.6v19.2Z"/>
            </g>
            <g>
              <rect class="cls-10" x="3.3" y="197.8" width="383.4" height="62.5"/>
              <path d="M388,261.7H2v-65.1h386v65.1ZM4.6,259.1h380.8v-59.9H4.6v59.9Z"/>
            </g>
          </g>
          <g>
            <g>
              <path class="cls-12" d="M319.5,203.4h-9l-31.6,5.1-31.6-5.1h-9l-1.1,38.8h38.2s.9,1.7,3.5,1.7,3.5-1.7,3.5-1.7h38.2l-1.1-38.8Z"/>
              <path d="M278.8,245.2c-2,0-3.4-.9-4.1-1.7h-38.9l1.1-41.4h10.3l31.6,5.1,31.4-5.1h10.5s1.1,41.4,1.1,41.4h-38.9c-.7.8-2.1,1.7-4.1,1.7h0ZM238.5,241h37.7l.4.7s.6,1,2.3,1,2.3-1,2.4-1l.4-.6h.8s36.9,0,36.9,0l-1-36.2h-7.8l-31.6,5.2-31.8-5.2h-7.6s-1,36.3-1,36.3h0Z"/>
            </g>
            <g>
              <g>
                <path class="cls-9" d="M242.6,198.9s24.8-2,36.2,4.5v34.6h-38.1l1.9-39.1Z"/>
                <path d="M280.1,239.3h-40.8l2-41.6h1.1c1-.2,25.4-2,37,4.6l.7.4v36.6h0ZM242.1,236.7h35.5v-32.5c-9.8-5.1-28.9-4.4-33.7-4.1l-1.7,36.6Z"/>
              </g>
              <path d="M278.3,239.2c-22.6-10.3-36.7-3.8-36.8-3.7l-1.1-2.3c.6-.3,15.3-7.1,39,3.7l-1.1,2.4h0Z"/>
            </g>
            <g>
              <g>
                <path class="cls-9" d="M315.1,198.9s-24.8-2-36.2,4.5v34.6h38.1l-1.9-39.1Z"/>
                <path d="M318.3,239.3h-40.8v-36.6l.7-.4c11.6-6.7,36-4.8,37-4.7h1.1c0,0,2,41.7,2,41.7h0ZM280.1,236.7h35.5l-1.7-36.6c-4.8-.3-23.9-1-33.7,4.1v32.5Z"/>
              </g>
              <path d="M279.4,239.2l-1.1-2.4c23.7-10.8,38.4-4,39-3.7l-1.1,2.3c-.1,0-14.3-6.5-36.8,3.7Z"/>
            </g>
            <g>
              <path class="cls-9" d="M284.5,227.1s15.6-5,26.6-2.3"/>
              <path class="cls-14" d="M284.5,228.4c-.5,0-1.1-.4-1.2-.9-.2-.7.2-1.4.8-1.6.6-.2,16-5,27.3-2.3.7.2,1.1.9,1,1.6s-.9,1.1-1.6,1c-10.5-2.5-25.7,2.2-25.9,2.3-.1,0-.3,0-.4,0h0Z"/>
            </g>
            <g>
              <path class="cls-9" d="M284.5,221.2s15.6-5,26.6-2.3"/>
              <path class="cls-14" d="M284.5,222.5c-.5,0-1.1-.4-1.2-.9-.2-.7.2-1.4.8-1.6.6-.2,16-5,27.3-2.3.7.2,1.1.9,1,1.6-.2.7-.9,1.1-1.6,1-10.5-2.5-25.7,2.2-25.9,2.3-.1,0-.3,0-.4,0h0Z"/>
            </g>
            <g>
              <path class="cls-9" d="M284.5,215.2s15.6-5,26.6-2.3"/>
              <path class="cls-14" d="M284.5,216.5c-.5,0-1.1-.4-1.2-.9-.2-.7.2-1.4.8-1.6.6-.2,16-5,27.3-2.3.7.2,1.1.9,1,1.6s-.9,1.1-1.6,1c-10.5-2.5-25.7,2.2-25.9,2.3-.1,0-.3,0-.4,0h0Z"/>
            </g>
            <g>
              <path class="cls-9" d="M284.5,209.3s15.6-5,26.6-2.3"/>
              <path class="cls-14" d="M284.5,210.6c-.5,0-1.1-.4-1.2-.9-.2-.7.2-1.4.8-1.6.6-.2,16-5,27.3-2.3.7.2,1.1.9,1,1.6s-.9,1.1-1.6,1c-10.5-2.5-25.7,2.2-25.9,2.3-.1,0-.3,0-.4,0h0Z"/>
            </g>
            <g>
              <path class="cls-9" d="M273.2,227.1s-15.6-5-26.6-2.3"/>
              <path class="cls-14" d="M273.2,228.4c-.1,0-.3,0-.4,0-.2,0-15.4-4.8-25.9-2.3-.7.2-1.4-.3-1.6-1-.2-.7.3-1.4,1-1.6,11.2-2.7,26.6,2.1,27.3,2.3.7.2,1.1.9.8,1.6-.2.6-.7.9-1.2.9h0Z"/>
            </g>
            <g>
              <path class="cls-9" d="M273.2,221.2s-15.6-5-26.6-2.3"/>
              <path class="cls-14" d="M273.2,222.5c-.1,0-.3,0-.4,0-.2,0-15.4-4.8-25.9-2.3-.7.2-1.4-.3-1.6-1-.2-.7.3-1.4,1-1.6,11.2-2.7,26.6,2.1,27.3,2.3.7.2,1.1.9.8,1.6-.2.6-.7.9-1.2.9h0Z"/>
            </g>
            <g>
              <path class="cls-9" d="M273.2,215.2s-15.6-5-26.6-2.3"/>
              <path class="cls-14" d="M273.2,216.5c-.1,0-.3,0-.4,0-.2,0-15.4-4.8-25.9-2.3-.7.2-1.4-.3-1.6-1-.2-.7.3-1.4,1-1.6,11.2-2.7,26.6,2.1,27.3,2.3.7.2,1.1.9.8,1.6-.2.6-.7.9-1.2.9h0Z"/>
            </g>
            <g>
              <path class="cls-9" d="M273.2,209.3s-15.6-5-26.6-2.3"/>
              <path class="cls-14" d="M273.2,210.6c-.1,0-.3,0-.4,0-.2,0-15.4-4.8-25.9-2.3-.7.2-1.4-.3-1.6-1-.2-.7.3-1.4,1-1.6,11.2-2.7,26.6,2.1,27.3,2.3.7.2,1.1.9.8,1.6-.2.6-.7.9-1.2.9h0Z"/>
            </g>
          </g>
          <g>
            <g>
              <g>
                <path class="cls-1" d="M86.9,146c-1.5-2.9-3.9-4-7.7-1-11.4,8.9-7.6,30.3-11.5,42.8-1.9,5.9-2.6,12.3-1.7,18.5.9,6.3,4.1,15.2,12.2,12.7,5.7-1.8,16.9-7.6,17.4-14.2.3-4.2-2.8-8.4-4.3-11.9-3.6-8-2.3-16.7-2.1-25.2,0-3.3.6-15.9-2.2-21.6h0Z"/>
                <path d="M75.5,220.7c-1.6,0-3-.4-4.3-1.2-4.6-2.9-6-10.1-6.5-13-.8-6-.2-12.6,1.8-19,1.3-4.1,1.7-9.3,2.2-14.8.9-11,1.8-22.4,9.7-28.6,2.1-1.7,4.1-2.3,5.8-1.9,1.6.3,2.8,1.5,3.8,3.4h0c2.8,5.6,2.5,17.1,2.4,21.5v.8c0,1.5-.1,3.1-.2,4.6-.3,6.8-.6,13.8,2.2,20.1.4.9.9,1.8,1.4,2.8,1.6,2.9,3.3,6.3,3.1,9.8-.6,7.5-12.6,13.6-18.3,15.3-1.1.3-2.1.5-3.1.5h0ZM83.2,144.5c-.9,0-2,.5-3.3,1.5-7,5.5-7.9,16.3-8.8,26.8-.5,5.6-.9,11-2.3,15.4-1.9,6.1-2.5,12.3-1.7,17.9.8,5.4,2.7,9.6,5.3,11.2,1.5.9,3.2,1.1,5.2.5,5.5-1.7,16.1-7.3,16.5-13.1.2-2.8-1.3-5.6-2.8-8.4-.5-1-1.1-2-1.5-2.9-3-6.9-2.7-14.2-2.4-21.2,0-1.5.1-3,.2-4.5v-.8c.1-3.8.4-15.2-2.1-20.2h0c-.6-1.2-1.3-1.9-2-2-.1,0-.3,0-.4,0h0Z"/>
              </g>
              <g>
                <path class="cls-16" d="M81.3,214.3c-2.1,0-4.3,1-6.2,2.2-1.9,1.2-2.7,1.8-1.5,4,2.3,4.3,12.1,12.8,15.7,5.4,2.1-4.3-1.3-6.1-3.5-9.2-1.2-1.7-2.7-2.4-4.4-2.4h0Z"/>
                <path d="M85,230.1c-5.1,0-10.9-5.8-12.6-9-1.7-3.3,0-4.5,2-5.7,2.5-1.6,4.9-2.5,6.9-2.4,2.2,0,4.1,1,5.4,2.9.5.7,1,1.3,1.6,2,1.9,2.1,3.9,4.5,2,8.6-1.4,3-3.7,3.6-5.3,3.6,0,0,0,0-.1,0h0ZM81.3,215.6c-1.5,0-3.4.7-5.5,2-1.1.7-1.5,1.5-1.1,2.3,1.6,3,6.7,7.6,10.3,7.6,0,0,0,0,0,0,1.3,0,2.3-.7,3-2.2,1.1-2.4.3-3.5-1.6-5.7-.6-.7-1.2-1.4-1.8-2.2-.8-1.2-1.9-1.8-3.3-1.8h0,0Z"/>
              </g>
              <g>
                <path class="cls-16" d="M82.5,212c-3.4,1.4.4,6.9,2.1,8.1,2.3,1.6,6.4,4,9,1.9,4.8-3.7-.6-11.9-5.5-12.1-2,0-3.8.9-5.6,2h0Z"/>
                <path d="M91.1,224.1c-2.1,0-4.5-1-7.3-3-1.5-1.1-4.3-4.7-4-7.5.1-1.2.9-2.2,2-2.8,1.7-1.1,3.8-2.3,6.2-2.2,3.7.1,7.1,3.7,8.2,7.1.9,2.9.2,5.6-1.9,7.3-.9.7-2,1.1-3.3,1.1h0s0,0,0,0ZM87.8,211.3c-1.5,0-2.9.7-4.7,1.8,0,0-.1,0-.2.1-.4.2-.5.4-.6.7-.2,1.6,1.8,4.4,2.9,5.1,1.6,1.1,5.4,3.5,7.5,2,1.7-1.3,1.5-3.1,1.1-4.4-.9-2.8-3.6-5.2-5.8-5.3,0,0-.1,0-.2,0h0ZM82.5,212h0,0Z"/>
              </g>
              <g>
                <path class="cls-16" d="M87.5,201.3c-3.6.7-1.2,6.8.3,8.4,1.9,2.1,5.3,5.3,8.4,3.9,5.5-2.5,2-11.8-2.7-13-2-.5-3.9,0-5.9.8h0Z"/>
                <path d="M94.5,215.1c-2.4,0-5-1.6-7.7-4.7-1.2-1.4-3.1-5.6-2.2-8.2.4-1.2,1.3-2,2.6-2.2,1.9-.7,4.2-1.4,6.6-.8,3.6,1,6.1,5.2,6.4,8.7.3,3.1-1,5.5-3.5,6.7-.7.3-1.4.5-2.1.5h0ZM91.8,201.6c-1.1,0-2.4.3-3.8.9,0,0-.1,0-.2,0-.5,0-.6.3-.7.6-.5,1.5.8,4.7,1.7,5.7,1.3,1.4,4.5,4.6,6.8,3.6,1.9-.9,2.1-2.7,2-4.1-.3-2.9-2.4-5.9-4.5-6.5-.4-.1-.9-.2-1.3-.2h0ZM87.5,201.3h0,0Z"/>
              </g>
            </g>
            <g>
              <path class="cls-9" d="M92.7,157.3c-.8,5.5-1.2,6.5-2.9,11.9-7.8-.5-15.6-1.7-23.2-3.5.2-3.6.4-2.7,1.4-6.2,1.8-6.1,4.3-12.5,9.6-15.9,3.3-2.1,10.3-3.6,13.7-.9,3.5,2.8,1.9,10.8,1.4,14.6h0Z"/>
              <path d="M89.9,170.5s0,0,0,0c-7.9-.5-15.8-1.7-23.4-3.6-.6-.1-1-.7-1-1.3.2-2.6.3-3,.7-4.3.2-.5.4-1.1.7-2.2,1.9-6.5,4.5-13,10.2-16.6,3.7-2.3,11.2-4,15.2-.8,3.8,3.1,2.6,10.5,2,14.9v.9h-.1c-.7,4.9-1.2,6.3-2.3,10.1l-.6,1.9c-.2.5-.7.9-1.2.9h0ZM68,164.6c6.9,1.6,13.9,2.7,20.9,3.2l.3-.9c1.2-3.8,1.5-5,2.2-9.8v-.9c.7-3.6,1.7-10.4-.9-12.5-2.8-2.3-9.2-.9-12.2,1-5,3.1-7.3,9.2-9.1,15.2-.3,1.1-.6,1.8-.8,2.3-.3.9-.4,1.2-.5,2.5h0ZM92.7,157.3h0,0Z"/>
            </g>
          </g>
          <g>
            <g>
              <g>
                <path class="cls-1" d="M160,146c1.5-2.9,3.9-4,7.7-1,11.4,8.9,7.6,30.3,11.5,42.8,1.9,5.9,2.6,12.3,1.7,18.5-.9,6.3-4.1,15.2-12.2,12.7-5.7-1.8-16.9-7.6-17.4-14.2-.3-4.2,2.8-8.4,4.3-11.9,3.6-8,2.3-16.7,2.1-25.2,0-3.3-.6-15.9,2.2-21.6h0Z"/>
                <path d="M171.4,220.7c-1,0-2-.2-3.1-.5-5.7-1.8-17.7-7.9-18.3-15.3-.3-3.5,1.5-6.8,3.1-9.8.5-1,1-1.9,1.4-2.8,2.8-6.3,2.5-13.3,2.2-20.1,0-1.5-.1-3.1-.2-4.6v-.8c-.1-4.3-.4-15.9,2.4-21.5h0c1-1.9,2.2-3.1,3.8-3.4,1.7-.4,3.7.3,5.8,1.9,7.9,6.2,8.8,17.6,9.7,28.6.4,5.5.9,10.7,2.2,14.8,2,6.4,2.6,13,1.8,19-.4,2.9-1.9,10.1-6.5,13-1.3.8-2.8,1.2-4.3,1.2ZM163.7,144.5c-.2,0-.3,0-.4,0-.8.2-1.4.9-2,2h0c-2.5,5-2.2,16.5-2.1,20.2v.8c0,1.5.1,3,.2,4.5.3,7.1.6,14.4-2.4,21.2-.4.9-.9,1.9-1.5,2.9-1.5,2.8-3,5.6-2.8,8.4.5,5.8,11,11.4,16.5,13.1,2,.6,3.7.5,5.2-.5,2.6-1.6,4.5-5.8,5.3-11.2.8-5.6.2-11.8-1.7-17.9-1.4-4.4-1.8-9.7-2.3-15.4-.9-10.5-1.7-21.3-8.8-26.8-1.3-1-2.4-1.5-3.3-1.5h0ZM160,146h0,0Z"/>
              </g>
              <g>
                <path class="cls-16" d="M165.6,214.3c2.1,0,4.3,1,6.2,2.2,1.9,1.2,2.7,1.8,1.5,4-2.3,4.3-12.1,12.8-15.7,5.4-2.1-4.3,1.3-6.1,3.5-9.2,1.2-1.7,2.7-2.4,4.4-2.4h0Z"/>
                <path d="M161.9,230.1s0,0-.1,0c-1.6,0-3.9-.7-5.3-3.6-1.9-4,.1-6.4,2-8.6.5-.6,1.1-1.3,1.6-2,1.3-1.9,3.2-2.9,5.4-2.9h0c2,0,4.4.8,6.9,2.4,1.9,1.2,3.7,2.4,2,5.7-1.7,3.2-7.4,9-12.6,9h0ZM165.6,215.6c-1.4,0-2.5.6-3.3,1.8-.6.8-1.2,1.5-1.8,2.2-1.9,2.2-2.8,3.4-1.6,5.7.7,1.5,1.7,2.2,3,2.2,0,0,0,0,0,0,3.6,0,8.7-4.6,10.3-7.6.4-.8,0-1.6-1.1-2.3-2.1-1.3-4-2-5.5-2h0,0ZM165.6,214.3h0,0Z"/>
              </g>
              <g>
                <path class="cls-16" d="M164.4,212c3.4,1.4-.4,6.9-2.1,8.1-2.3,1.6-6.4,4-9,1.9-4.8-3.7.6-11.9,5.5-12.1,2,0,3.8.9,5.6,2h0Z"/>
                <path d="M155.8,224.1c-1.2,0-2.3-.4-3.3-1.1-2.2-1.7-2.9-4.3-1.9-7.3,1.1-3.4,4.5-7,8.2-7.1,2.5,0,4.5,1.1,6.2,2.2,1.2.5,1.9,1.5,2,2.8.3,2.8-2.5,6.5-4,7.5-2.8,2-5.2,3-7.3,3h0s0,0,0,0ZM159.1,211.3c0,0-.1,0-.2,0-2.2,0-4.9,2.6-5.8,5.3-.4,1.3-.6,3.2,1.1,4.4,2,1.6,5.9-.8,7.5-2,1.1-.8,3.1-3.6,2.9-5.2,0-.3-.1-.5-.6-.7,0,0-.1,0-.2-.1-1.8-1.1-3.2-1.8-4.7-1.8h0Z"/>
              </g>
              <g>
                <path class="cls-16" d="M159.4,201.3c3.6.7,1.2,6.8-.3,8.4-1.9,2.1-5.3,5.3-8.4,3.9-5.5-2.5-2-11.8,2.7-13,2-.5,3.9,0,5.9.8h0Z"/>
                <path d="M152.4,215.1c-.7,0-1.5-.2-2.1-.5-2.5-1.2-3.8-3.6-3.5-6.7.3-3.6,2.8-7.8,6.4-8.8,2.4-.6,4.6,0,6.6.8,1.3.3,2.2,1.1,2.6,2.2.9,2.7-1,6.8-2.2,8.2-2.7,3.1-5.4,4.7-7.7,4.7h0ZM155.1,201.6c-.4,0-.9,0-1.3.2-2.1.6-4.3,3.6-4.5,6.5-.1,1.4.1,3.2,2,4.1,2.3,1.1,5.6-2.1,6.8-3.6.9-1,2.2-4.2,1.7-5.7-.1-.3-.3-.5-.7-.6,0,0-.1,0-.2,0-1.5-.5-2.7-.9-3.8-.9h0Z"/>
              </g>
            </g>
            <g>
              <path class="cls-9" d="M154.2,157.3c.8,5.5,1.2,6.5,2.9,11.9,7.8-.5,15.6-1.7,23.2-3.5-.2-3.6-.4-2.7-1.4-6.2-1.8-6.1-4.3-12.5-9.6-15.9-3.3-2.1-10.3-3.6-13.7-.9-3.5,2.8-1.9,10.8-1.4,14.6h0Z"/>
              <path d="M157,170.5c-.6,0-1.1-.4-1.2-.9l-.6-1.9c-1.2-3.8-1.6-5.2-2.3-10.1v-.9c-.8-4.4-2-11.9,1.8-15,3.9-3.2,11.5-1.6,15.2.8,5.7,3.6,8.3,10.1,10.2,16.6.3,1,.5,1.7.7,2.2.5,1.3.6,1.7.7,4.3,0,.6-.4,1.2-1,1.3-7.7,1.9-15.6,3.1-23.4,3.6,0,0,0,0,0,0h0ZM160.6,142.5c-1.7,0-3.2.3-4.3,1.2-2.6,2.1-1.6,8.9-1,12.5v.9h.1c.7,4.7,1.1,6,2.2,9.8l.3.9c7-.5,14-1.6,20.9-3.2-.1-1.4-.2-1.7-.5-2.5-.2-.5-.4-1.2-.8-2.3-1.8-6-4.1-12-9.1-15.2-1.9-1.2-5.1-2.2-7.9-2.2h0Z"/>
            </g>
          </g>
          <g>
            <g>
              <g>
                <path class="cls-15" d="M255.1,214.4c3.7-.2,7.5-1.4,10.1-4,2.8-2.8,4.2-7.3,2.7-11-.9-2.1-2.7-3.9-4.8-4.8-2.6-1-5.5-.8-8.4-.5,0,.2,0,.4-.1.6-.1,1.6.5,3.3,1.7,4.4.2.2.4.3.4.6,0,.2-.2.4-.4.5-1,.8-1.5,2.3-1.3,3.5.2,1.3,1.2,2.5,2.5,2.9-1.4.1-2.3,1.4-2.7,2.7-.5,1.7-.3,3.5.4,5.1h0s0,0,0,0h0Z"/>
                <path class="cls-6" d="M254.2,214.4c.3,0,.6,0,.9,0-.8-1.6-1-3.4-.4-5.1.4-1.3,1.4-2.5,2.7-2.7-1.2-.4-2.2-1.6-2.5-2.9-.2-1.3.3-2.7,1.3-3.5.2-.2.4-.3.4-.5,0-.2-.2-.4-.4-.6-1.2-1.1-1.8-2.8-1.7-4.4,0-.2,0-.4.1-.6-.8,0-1.5.1-2.2.2-1.7,0-8.8,1.2-8.6-1.9,0-.8.6-1.6,1.2-2.2.9-1.2,1.7-2.5,2.1-3.9.4-1.4.2-3.1-.8-4.2-1.1-1.4-3.2-1.7-4.9-1.3-1.7.4-3.2,1.5-4.5,2.7-3.6,3.1-6.9,6.9-8.1,11.5-.9,3.5-.4,7.7,1.8,10.6,2.5,3.4,8.1,4.6,11.9,6.1,3.7,1.5,7.6,2.6,11.6,2.6h0s0,0,0,0h0Z"/>
              </g>
              <path d="M254.2,215.7c-4.7,0-9.1-1.5-12.1-2.7-.8-.3-1.7-.6-2.6-.9-3.6-1.2-7.7-2.6-9.9-5.6-2.3-3.1-3.1-7.6-2.1-11.7,1.1-4.2,4-8.3,8.5-12.2,1.4-1.2,3-2.5,5.1-3,2.4-.6,4.8,0,6.2,1.7,1.1,1.4,1.5,3.4,1,5.4-.4,1.7-1.4,3.1-2.3,4.3-.4.5-.9,1.1-.9,1.5.6.7,2.7.9,6.2.6.4,0,.8,0,1,0,.7,0,1.4-.1,2.1-.2h0s.1,2.6.1,2.6c-.7,0-1.5.1-2.2.2-.2,0-.5,0-.9,0-3.2.3-6.7.5-8.2-1.1-.6-.6-.9-1.4-.8-2.2.1-1.3.9-2.2,1.4-2.9.7-1,1.5-2.1,1.9-3.4.3-1.2.1-2.3-.5-3.1-.8-1-2.4-1.1-3.6-.8-1.5.4-2.9,1.4-4,2.4-4.1,3.5-6.7,7.2-7.7,10.9-.9,3.4-.3,7.1,1.6,9.5,1.7,2.3,5.4,3.6,8.7,4.7,1,.3,1.9.6,2.7,1,2.7,1.1,6.8,2.5,11.1,2.5h.9c3.7-.2,7-1.5,9.2-3.7,2.6-2.6,3.6-6.5,2.4-9.6-.8-1.8-2.3-3.3-4.1-4.1-2.3-.9-4.9-.7-7.6-.4l-.3-1.3v-1.3c2.9-.3,6-.6,8.8.6,2.5,1,4.5,3,5.5,5.5,1.6,4,.4,9.1-3,12.4-2.7,2.7-6.6,4.2-10.9,4.4h-.9s0,0,0,0h0s0,0,0,0Z"/>
            </g>
            <g>
              <path class="cls-9" d="M235.8,172.6c-2.6,2.3-4.5,5.3-6.6,8.8,5.1,5,10.4,9.2,18.1,12,2.3-2.4.1-.3,1.9-3.1,3-4.9,5.9-10.6,4.9-16.3-1.1-6.5-7.1-7.1-12.3-5.1-2.4,1-4.3,2.2-5.9,3.6h0Z"/>
              <path d="M247.2,194.7c-.2,0-.3,0-.4,0-8.5-3.1-13.9-7.8-18.5-12.3-.4-.4-.5-1.1-.2-1.6,2.3-3.8,4.2-6.7,6.9-9.1,1.8-1.6,3.9-2.9,6.3-3.8,3.8-1.5,7.5-1.5,10.1,0,2.1,1.2,3.5,3.3,3.9,6.1,1,6.1-1.8,11.9-5.1,17.2-.3.5-.5.8-.5.9.1.7-.3,1.2-1.5,2.4-.2.3-.6.4-.9.4h0ZM230.8,181.2c4.1,4,9,7.9,16.1,10.7,0,0,.1-.1.2-.2,0-.5.3-1.1.9-2.1,3-4.9,5.6-10.1,4.7-15.4-.3-2-1.2-3.5-2.7-4.3-1.9-1.1-4.8-1-7.9.2-2.2.8-4,1.9-5.6,3.4h0c-2.2,2-3.9,4.5-5.9,7.7h0ZM235.8,172.6h0,0Z"/>
            </g>
          </g>
          <g>
            <g>
              <path class="cls-8" d="M57.2,187.9l20.1,51.6c.7,1.8,2.4,2.9,4.3,2.9h87.6c2,0,3.8-1.3,4.4-3.2l16.6-51.6c.9-3-1.3-6-4.4-6H61.5c-3.2,0-5.4,3.2-4.3,6.3h0Z"/>
              <path d="M169.2,243.8h-87.6c-2.4,0-4.6-1.5-5.5-3.7l-20.1-51.6c-.7-1.8-.5-3.9.6-5.5,1.1-1.6,2.9-2.6,4.9-2.6h124.3c1.9,0,3.6.9,4.8,2.4,1.1,1.5,1.4,3.5.8,5.3l-16.6,51.6c-.8,2.4-3,4.1-5.6,4.1h0ZM58.4,187.4l20.1,51.6c.5,1.3,1.7,2.1,3.1,2.1h87.6c1.4,0,2.7-.9,3.1-2.3l16.6-51.6c.3-1,.2-2.1-.5-2.9-.6-.9-1.6-1.4-2.7-1.4H61.5c-1.1,0-2.1.5-2.7,1.4-.6.9-.8,2-.3,3.1h0Z"/>
            </g>
            <path class="cls-7" d="M129.2,214.6h0l.2-1.9c.1-1-.7-1.8-1.9-1.8h-2.4c0-1.4-1.4-2.6-3-2.6s-2.9,1.2-2.9,2.6h-2.4c-1.2,0-2,.8-1.8,1.8l.3,1.9c1.5,0,2.9,1,3,2.2.1,1.1-.9,2-2.3,2l.2,1.5c.1.7,1,1.2,1.9,1.2h8.6c.9,0,1.8-.6,1.8-1.2l.2-1.5h0c1.4,0,2.7-.9,2.9-2,.2-1.2-.9-2.2-2.4-2.2h0Z"/>
          </g>
          <g>
            <g>
              <path class="cls-1" d="M123.5,126.9h0c-37.9,0-39.7,4.6-39.7,4.6,0,0,1.8,21.8,39.7,21.8s39.7-21.8,39.7-21.8c0,0-1.8-4.6-39.7-4.6Z"/>
              <path d="M123.5,154.6c-38.6,0-40.9-22-41-23,0-.2,0-.4,0-.6.5-1.3,4.9-5.5,40.9-5.5h0c35.9,0,40.4,4.2,40.9,5.5,0,.2.1.4,0,.6,0,.9-2.4,23-41,23h0ZM85.1,132.1c.6,3.4,5.2,20,38.3,20s37.7-16.6,38.3-20c-1.4-.9-8.2-3.8-38.3-3.8s-37,3-38.3,3.8h0Z"/>
            </g>
            <g>
              <path class="cls-1" d="M170.4,86.9c-.9-10.5-3.6-35.8-16.1-39.3-6.8-1.9-19.9.2-21.8,7.5-8-1.3-10.3-1-18.1,0-1.9-7.3-15-9.4-21.8-7.5-12.5,3.5-16.1,28.8-16.1,39.3,0,0-3.4,25.8,40.9,25.8s54-14.7,53.1-25.8h0Z"/>
              <path d="M117.3,114.1c-17.5,0-29.9-4-36.8-11.8-6.4-7.3-5.5-15.2-5.4-15.5,0-9.1,3.1-36.5,17.1-40.4,4.7-1.3,12.6-1,18.2,2.2,2.4,1.3,4,3.1,4.9,5.1,6.8-.9,9.4-1.1,16.3,0,.9-2,2.5-3.7,4.9-5.1,5.6-3.2,13.5-3.5,18.2-2.2,9.3,2.6,15.1,16.2,17.1,40.5h0c.3,3.6-.3,8.9-5,14-8.1,8.8-24.7,13.3-49.4,13.3h0ZM98.1,48.2c-1.9,0-3.8.2-5.2.6-11.4,3.2-15.2,27.5-15.2,38.1,0,.2-.8,7.3,4.8,13.7,6.4,7.2,18.1,10.9,34.8,10.9,29.8,0,42.3-6.8,47.5-12.4,4-4.4,4.6-9,4.3-12h0c-2.4-28.7-9.6-36.6-15.2-38.2-4.2-1.2-11.4-.8-16.2,2-2.2,1.2-3.5,2.8-4,4.6-.2.6-.8,1-1.5.9-7.8-1.3-9.9-1-17.7,0-.6,0-1.2-.3-1.4-1-.5-1.8-1.8-3.4-4-4.6-3.1-1.8-7.3-2.6-11-2.6h0s0,0,0,0Z"/>
            </g>
            <g>
              <g>
                <path class="cls-9" d="M112.1,67.3c-1.9,7.1-9.1,11.3-16.2,9.5-7.1-1.9-11-8.7-9.2-15.8,1.9-7.1,7.6-8.2,15.2-7.2,7.3,1,12,6.5,10.2,13.5h0Z"/>
                <path d="M99.3,78.5c-1.2,0-2.5-.2-3.7-.5-3.8-1-6.9-3.3-8.7-6.6-1.9-3.2-2.3-7.1-1.4-10.8,2.3-8.9,10.1-9,16.7-8.1,4.3.6,7.8,2.6,9.9,5.7,1.8,2.7,2.3,6,1.4,9.5-1,3.8-3.4,6.9-6.8,8.9-2.3,1.3-4.8,2-7.3,2h0ZM97.5,54.8c-5.5,0-8.3,2-9.5,6.6-.8,3.1-.4,6.3,1.1,8.9,1.5,2.6,4.1,4.5,7.2,5.3,3.1.8,6.3.4,9.1-1.2,2.8-1.6,4.7-4.2,5.6-7.3.7-2.7.4-5.3-1-7.4-1.6-2.4-4.5-4.1-8.1-4.5-1.6-.2-3-.3-4.3-.3h0Z"/>
              </g>
              <circle cx="99.5" cy="69.6" r="6.5"/>
              <path class="cls-9" d="M101.1,65.5c-.6,0-1.4-.1-1.8.5-.4.5-.4,1.4,0,1.9.5.6,1.5.7,2,1.3.5.6,1.2,1.3,1.9.4.7-.8.4-2.4-.2-3.2-.4-.5-1.1-.7-2-1h0Z"/>
            </g>
            <g>
              <g>
                <path class="cls-9" d="M134.8,67.3c1.9,7.1,9.1,11.3,16.2,9.5,7.1-1.9,11-8.7,9.2-15.8-.8-3.2-3-6.8-6.5-5.8-4.5,1.3-9,2.8-13.7,3.3-2.5.2-3.9-.3-4.9,2.3-.8,2.1-.8,4.4-.2,6.6h0Z"/>
                <path d="M147.7,78.5c-6.5,0-12.4-4.3-14.1-10.9h0c-.7-2.6-.6-5.1.3-7.3,1.1-2.9,2.9-3,4.7-3,.4,0,.8,0,1.3,0,3.9-.4,7.5-1.5,11.4-2.6l2.1-.6c1.4-.4,2.8-.3,4.1.4,2.5,1.4,3.6,4.5,4.1,6.3,2.1,7.9-2.3,15.3-10.1,17.4-1.2.3-2.5.5-3.7.5ZM154.9,56.3c-.3,0-.6,0-.9.1l-2.1.6c-3.8,1.1-7.8,2.3-11.9,2.7-.5,0-1,0-1.5,0-1.6,0-1.9,0-2.4,1.4-.7,1.7-.7,3.7-.2,5.8h0c.8,3.1,2.8,5.7,5.6,7.3,2.8,1.6,6,2.1,9.1,1.2,3.1-.8,5.6-2.7,7.2-5.3,1.5-2.6,1.9-5.8,1.1-8.9-.6-2.3-1.7-4-2.8-4.7-.4-.2-.8-.3-1.2-.3h0Z"/>
              </g>
              <circle cx="147.4" cy="69.6" r="6.5"/>
              <path class="cls-9" d="M149.1,65.5c-.6,0-1.4-.1-1.8.5-.4.5-.4,1.4,0,1.9.5.6,1.5.7,2,1.3.5.6,1.2,1.3,1.9.4.7-.8.4-2.4-.2-3.2-.4-.5-1.1-.7-2-1h0Z"/>
            </g>
            <g>
              <path class="cls-1" d="M163.1,81.3c-12.2-6-26.2-7.7-39.7-7.7s-27.4,1.7-39.7,7.7c-11.9,5.8-16.2,17.3-15.9,31.7.2,10.8,7.9,19.4,16.6,20.8,7.1,1.1,20.9,2.7,38.9,2.7s31.8-1.6,38.9-2.7c8.7-1.3,16.5-10,16.6-20.8.2-14.4-4-25.9-15.9-31.7Z"/>
              <path d="M123.5,137.8c-18.8,0-32.6-1.7-39.1-2.7-9.8-1.5-17.6-11.2-17.7-22-.3-16.3,5.3-27.4,16.6-32.9,10.7-5.2,23.9-7.8,40.2-7.8s29.5,2.5,40.2,7.8c11.3,5.5,16.9,16.6,16.6,32.9-.2,10.9-8,20.5-17.7,22-6.5,1-20.3,2.7-39.1,2.7h0ZM123.5,74.9c-15.9,0-28.7,2.5-39.1,7.5-10.5,5.1-15.5,15.1-15.2,30.5.2,9.6,7,18.2,15.5,19.5,6.5,1,20.1,2.6,38.7,2.6s32.3-1.7,38.7-2.6c8.6-1.3,15.4-9.9,15.5-19.5.3-15.4-4.7-25.4-15.2-30.5h0c-10.4-5.1-23.2-7.5-39.1-7.5Z"/>
            </g>
            <g>
              <path class="cls-11" d="M132.7,89.4s2.9-3.7,4.7-3.7"/>
              <path d="M132.7,90.7c-.3,0-.6,0-.8-.3-.6-.4-.7-1.3-.2-1.8.8-1,3.5-4.2,5.7-4.2s1.3.6,1.3,1.3-.6,1.3-1.3,1.3-2.4,1.6-3.7,3.2c-.3.3-.6.5-1,.5Z"/>
            </g>
            <g>
              <path class="cls-11" d="M114.2,89.4s-2.9-3.7-4.7-3.7"/>
              <path d="M114.2,90.7c-.4,0-.8-.2-1-.5-1.3-1.7-3.1-3.2-3.7-3.2s-1.3-.6-1.3-1.3.6-1.3,1.3-1.3c2.3,0,5,3.2,5.8,4.2.4.6.3,1.4-.2,1.8-.2.2-.5.3-.8.3Z"/>
            </g>
            <g>
              <path class="cls-11" d="M125.9,58.5c-.4,2.1-.2,4.3.6,6.3"/>
              <path d="M126.5,66.1c-.5,0-1-.3-1.2-.8-.8-2.2-1-4.6-.6-7,.1-.7.8-1.2,1.5-1,.7.1,1.2.8,1.1,1.5-.3,1.9-.2,3.8.5,5.6.2.7,0,1.4-.8,1.7-.1,0-.3,0-.4,0h0Z"/>
            </g>
          </g>
          <g>
            <g>
              <g>
                <path class="cls-6" d="M332.1,152.7c.7.8.7,2.1,0,2.9-1.1,1.4-2.9.6-4.3.3.4.3.7.7,1,1.1.8,1.2.7,3-.2,4.1-.9,1.1-2.5,1.6-3.9,1.2h0c-3-2.9-6.5-5.2-10.3-7-5.1-2.4-10.5-2.4-15.8-4.6-5.8-2.4-11.3-5.6-17-8.2-8.4-4-17.9-7.1-27-5.3-7,1.4-13.3,3-20.4,3.5-4.2.3-8.3,1.3-12.1,2.9h0c-1.4,0-2.8-1.1-3.2-2.5-.4-1.4.1-3,1.3-3.9.4-.3.8-.5,1.3-.7-1.4-.3-3.4,0-3.9-1.8-.3-1,.2-2.2,1.1-2.7.9-.5,2.1-.5,3.1-.7-1.4-.4-2.4-2-2.2-3.5,0-.3.2-.6.4-.8.4-.5,1-.6,1.6-.7,3.2-.5,3.6,0,5.1-3,1.2-2.5,2.5-5,3.8-7.5,2.6-4.8,5.6-9.5,9-13.8-3.9-9.2-3.4-19.5-.9-29l.6.2c-.1.5-.2.9-.2,1.4,0,1.1.6,2.2,1.7,2.4.7.2,1.5-.1,2.1-.5,1.1-.7,2.1-1.9,2.5-3.2.6.9,1.3,1.7,2.2,2.2s2.2.5,2.9-.3c.8-.9.5-2.4,1.1-3.5.8.9,1.6,1.8,2.6,2.2s2.5.3,3.1-.6c.4-.5.5-1.2.5-1.9.1-1.4.3-2.8.5-4.2l.9-.5c.5.8.9,1.5,1.3,2.3,3.7,6.6,7.5,13.2,11.2,19.8,4.9.2,8.4.3,13.2,1.2,4.9.9,8.1,2,12.8,3.6,5.8-4.9,11.6-9.7,17.4-14.6.7-.6,1.3-1.1,2-1.7l.7.8c-.4,1.4-.7,2.7-1,4.1-.2.7-.3,1.3-.2,2,.3,1.1,1.6,1.7,2.7,1.7s2.2-.6,3.2-1.1c0,1.2-.7,2.5-.2,3.6.4,1,1.6,1.5,2.7,1.3s2-.7,2.9-1.3c0,1.4.4,2.8,1.3,3.8.4.6,1.1,1.1,1.8,1.2,1,.1,2-.7,2.4-1.7.2-.4.2-.9.3-1.3h.6c-1,9.8-4.2,19.6-11,26.8,1.7,5.2,2.8,10.6,3.6,16.1.4,2.8.7,5.6,1,8.4.3,3.4.9,3,3.7,4.6.5.3,1,.7,1.2,1.2,0,.3,0,.6,0,.9-.3,1.5-1.8,2.7-3.3,2.5.9.6,2,.9,2.6,1.7h0s0,0,0,0Z"/>
                <path class="cls-9" d="M324.7,162.3h0c.4.1-4.5,3.9-4.9,4.1-2.1,1.3-4.3,2.5-6.5,3.6-4.5,2.2-9.2,3.9-14.1,5.2-9.8,2.5-20.1,3.1-30,1.3-9.9-1.9-19.4-6-27.6-11.8-4.1-2.9-7.9-6.1-11.4-9.8-1.7-1.8-3.3-3.7-4.8-5.6-.3-.3-3.6-5.6-3.1-5.6h0c3.8-1.6,7.9-2.6,12.1-2.9,7.1-.5,13.4-2.1,20.4-3.5,9.1-1.8,18.6,1.3,27,5.3,5.7,2.7,11.2,5.8,17,8.2,5.3,2.2,10.7,2.2,15.8,4.6,3.8,1.8,7.3,4.1,10.3,7h0s0,0,0,0Z"/>
                <path class="cls-15" d="M333.6,90.5c0,.5-.1.9-.3,1.3-.4,1-1.4,1.8-2.4,1.7-.8,0-1.4-.6-1.8-1.2-.8-1.1-1.3-2.5-1.3-3.8-.9.6-1.8,1.2-2.9,1.3s-2.3-.3-2.7-1.3c-.5-1.1.3-2.4.2-3.6-1,.5-2.1,1.1-3.2,1.1s-2.4-.6-2.7-1.7c-.2-.6,0-1.3.2-2,.4-1.4.7-2.7,1-4.1l-.7-.8c3.4-2.8,6.8-5.5,10-8.4,5.4-5,6.9,1.4,7.3,6.4.4,4.5.4,9.1,0,13.6,0,.6,0,1.1-.2,1.7h-.6c0,0,0,0,0,0h0Z"/>
                <path class="cls-15" d="M239.1,73.3l-.6-.2c.1-.5.3-1.1.4-1.6,1.2-4.4,2.9-8.6,4.8-12.7,2.1-4.5,5.8-10,9.1-3.4,2,3.9,4.2,7.6,6.4,11.4l-.9.5c-.1,1.4-.3,2.8-.5,4.2,0,.7-.1,1.4-.5,1.9-.7.9-2.1,1.1-3.1.6s-1.9-1.3-2.6-2.2c-.5,1.1-.2,2.6-1.1,3.5-.7.8-2,.8-2.9.3s-1.6-1.4-2.2-2.2c-.5,1.3-1.4,2.4-2.5,3.2-.6.4-1.4.7-2.1.5-1.1-.2-1.7-1.4-1.7-2.4,0-.5,0-1,.2-1.4h0Z"/>
              </g>
              <path d="M280.9,178.8c-4,0-8-.3-11.9-1-9.8-1.8-19.5-6-28.1-12-4.2-2.9-8.1-6.3-11.6-10-1.9-2-3.5-3.9-4.9-5.8,0,0-2.3-3.1-3.1-5.2-1.6-.4-3-1.6-3.5-3.3-.4-1.4-.2-3,.7-4.2-.9-.3-1.7-1-2.1-2.2-.5-1.6.3-3.4,1.7-4.2.3-.2.5-.3.8-.4-.5-.9-.7-1.9-.5-3,.1-.5.3-1,.7-1.4.6-.8,1.6-1,2.3-1.2.6,0,1.1-.1,1.5-.2,1.1-.1,2-.8,2.6-2.1,1.4-2.9,2.6-5.3,3.9-7.6,3-5.4,5.7-9.7,8.7-13.4-3.3-8.2-3.5-18.3-.7-29.1.1-.5.3-1.1.4-1.6,1.2-4.2,2.8-8.5,4.9-12.9,2.2-4.8,4.5-7.2,6.8-7.2,1.7,0,3.3,1.2,4.5,3.7,1.6,3.1,3.4,6.3,5.2,9.3l1.2,2.1c.4.7.8,1.4,1.3,2.2l3.5,6.1c2.5,4.4,4.9,8.7,7.4,13.1,4.5.1,8,.3,12.7,1.2,4.7.9,8,1.9,12.3,3.4l16.9-14.1c.7-.6,1.4-1.1,2.1-1.7l1.9-1.5c2.7-2.2,5.5-4.5,8.1-6.9,2.1-1.9,3.9-2.6,5.6-1.9,2.2.9,3.5,3.9,3.9,9.1.4,4.7.4,9.4,0,13.8v.4c0,.5-.1.9-.2,1.4-1.2,11.2-4.8,20.2-10.8,26.8,1.4,4.4,2.5,9.4,3.4,15.6.4,2.5.7,5.2,1,8.4.1,1.4.7,2.3,1.7,2.9.4.2.8.4,1.3.7.6.4,1.5.9,1.8,2,.1.5.2,1,0,1.5-.2,1-.7,1.9-1.5,2.6.2.2.4.4.6.6,1.1,1.3,1.1,3.2,0,4.5-.8,1-1.7,1.3-2.7,1.3.4,1.4,0,3-.9,4.2-1,1.3-2.8,2-4.4,1.8-1.5,1.7-4.7,3.8-4.7,3.8-2,1.3-4.2,2.5-6.6,3.7-4.5,2.2-9.3,3.9-14.3,5.2-6.2,1.6-12.5,2.4-18.7,2.4h0ZM223.5,143.7c.5,1,2.5,4.3,2.9,4.8,1.4,1.8,2.9,3.6,4.7,5.6,3.3,3.5,7.1,6.8,11.2,9.6,8.3,5.8,17.7,9.8,27.1,11.6,9.4,1.6,19.6,1.2,29.5-1.3,4.9-1.3,9.5-3,13.8-5.1,2.3-1.1,4.4-2.3,6.4-3.5.5-.4,3.6-2.7,4.4-3.5.2-.6.8-.9,1.4-.8,0,0,.2,0,.3,0,.9.3,1.9,0,2.4-.7.6-.7.6-1.9.1-2.6-.2-.3-.4-.5-.8-.8-.4-.4-.5-1-.3-1.5.3-.5.8-.8,1.4-.7.3,0,.6.1.9.2,1.3.3,1.8.4,2.1,0,.3-.3.3-1,0-1.3-.3-.3-.8-.6-1.3-.9-.4-.2-.7-.4-1.1-.6-.5-.3-.7-.9-.5-1.5.2-.6.8-.9,1.3-.9.8,0,1.8-.6,1.9-1.5,0-.1,0-.2,0-.3h0s0-.2-.6-.5c-.5-.3-.9-.5-1.2-.7-2.2-1.1-2.8-1.8-3.1-4.9-.3-3.2-.6-5.8-1-8.3-.9-6.3-2-11.4-3.5-15.9-.2-.5,0-1,.3-1.3,5.9-6.2,9.5-15,10.7-26,0-.5.1-.8.2-1.2v-.4c.4-4.3.4-8.8,0-13.3-.4-4.6-1.4-6.6-2.2-6.9-.6-.2-1.6.3-2.9,1.4-2.6,2.4-5.5,4.7-8.2,7l-1.9,1.5c-.7.6-1.4,1.1-2,1.7l-17.4,14.6c-.3.3-.8.4-1.2.2-4.5-1.5-7.8-2.6-12.6-3.5-4.8-.8-8.1-1-13-1.2-.5,0-.9-.3-1.1-.7-2.6-4.6-5.2-9.1-7.8-13.7l-3.4-6c-.5-.8-.9-1.5-1.3-2.3l-1.2-2.1c-1.8-3-3.6-6.2-5.2-9.4-.7-1.5-1.5-2.3-2.2-2.3h0c-.9,0-2.6,1.5-4.5,5.7-2,4.3-3.6,8.5-4.7,12.5-.1.5-.3,1-.4,1.5-2.8,10.6-2.5,20.3.9,28.2.2.4.1.9-.2,1.3-3,3.7-5.8,8.1-8.9,13.6-1.2,2.2-2.4,4.6-3.8,7.4-1.4,2.9-2.2,3.2-4.6,3.5-.4,0-.8,0-1.4.2-.6,0-.7.2-.7.3,0,0,0,.1-.1.3-.1.8.4,1.7,1.3,2,.6.2.9.7.9,1.3,0,.6-.4,1.1-1,1.2-.4,0-.8.1-1.2.2-.6,0-1.1.1-1.5.4s-.6.8-.5,1.2c.1.5.6.6,2,.8.3,0,.7,0,1,.1.6.1,1,.6,1.1,1.1,0,.6-.3,1.1-.8,1.3-.4.2-.7.3-1,.5-.7.5-1.1,1.6-.8,2.5.3.9,1.1,1.5,2,1.6,0,0,.1,0,.2,0,0,0,0,0,0,0,.6.1,1,.7,1,1.3h0,0Z"/>
            </g>
            <path d="M269.8,139c-.7,3.7-4.1,5.5-7.8,4.8-3.7-.7-6.3-3.6-5.6-7.3.7-3.7,3.8-4,7.5-3.4s6.5,2.1,5.9,5.8h0Z"/>
            <g>
              <g>
                <g>
                  <path class="cls-18" d="M261.7,127.8c-.2,1.9-1.1,3.7-2.5,5-2.4,2.2-5.9,1.9-8.6.7-2.6-1.2-5.1-3.5-5.5-6.5-.2-1.1-.1-2.1.1-2.9h.2c1.9.4,3.7.8,5.6,1.1-.5,1.9.5,4.1,2.3,4.7,1.8.6,4.1-.9,4.1-2.8,1.4.3,2.8.6,4.2.8h0Z"/>
                  <path class="cls-2" d="M261.7,127.8c-1.4-.2-2.8-.4-4.2-.8,0,1.9-2.3,3.4-4.1,2.8-1.8-.6-2.9-2.8-2.3-4.7-1.9-.3-3.7-.7-5.6-1h-.2c1.2-4.3,7.1-4.4,11.4-2.5,2.2,1,4.2,1.5,4.9,3.8.2.8.3,1.6.2,2.4h0Z"/>
                </g>
                <path d="M254.8,135.7c-1.7,0-3.4-.4-4.7-1.1-3.4-1.6-5.8-4.4-6.2-7.5-.2-1.3-.1-2.5.2-3.5.5-1.7,1.6-3,3.2-3.8,2.6-1.2,6.5-1,9.9.5l.8.4c1.9.8,4,1.7,4.8,4.3.3,1,.4,1.9.3,2.9-.2,2.1-1.3,4.3-2.9,5.8-1.5,1.4-3.4,2-5.3,2h0ZM251.1,121.7c-1.1,0-2.1.2-2.9.5-1,.5-1.6,1.2-1.9,2.2-.2.7-.2,1.5,0,2.4.4,2.6,2.7,4.6,4.8,5.5,2.2,1,5.2,1.4,7.2-.4,1.2-1.1,1.9-2.6,2.1-4.2,0,0,0,0,0,0,0-.6,0-1.2-.2-1.8-.4-1.4-1.4-1.8-3.3-2.7l-.9-.4c-1.6-.7-3.4-1.1-4.9-1.1h0Z"/>
              </g>
              <circle class="cls-9" cx="255.2" cy="123.8" r="1.4"/>
              <path d="M244.1,123.6c-.6,0-1.1,0-1.7-.4-.8-.4-1.8-1.2-2.2-3-.2-.7.3-1.4,1-1.5.7-.2,1.4.3,1.5,1,.1.7.4,1.1.7,1.2.7.3,1.7,0,2-.2.6-.3,1.4,0,1.7.6.3.6,0,1.4-.6,1.7-.2,0-1.3.6-2.6.6h0Z"/>
            </g>
            <g>
              <g>
                <g>
                  <path class="cls-18" d="M280.6,131.2c-.6,1.5-.5,3.4.6,5.5,1.4,2.9,4.9,3.9,7.8,3.7,3.5-.3,8.3-3,8.5-6.9h-.4c-1.9-.4-3.7-.7-5.6-1-.2,1.9-1.9,3.7-3.9,3.6s-3.6-2.2-2.9-4.1c-1.4-.2-2.8-.4-4.1-.8h0Z"/>
                  <path class="cls-2" d="M280.6,131.2c1.4.3,2.7.6,4.1.8-.7,1.8,1,4,2.9,4.1s3.7-1.6,3.9-3.6c1.8.3,3.7.7,5.6,1h.4c0-.6,0-1.2-.2-1.9-.4-1.3-1.8-2-2.9-2.8-1.8-1.4-4.2-1.9-6.5-1.8-3.2.2-6.3,1.7-7.3,4.3h0Z"/>
                </g>
                <path d="M288.2,141.8c-3,0-6.5-1.1-8.1-4.4-1.5-2.9-1.1-5.2-.6-6.6h0c1.2-2.9,4.4-4.9,8.4-5.1,2.8-.1,5.4.6,7.4,2.1.2.1.4.3.7.4,1,.7,2.3,1.5,2.7,3,.3.8.3,1.6.2,2.5-.3,4.8-5.9,7.8-9.7,8.1-.3,0-.6,0-.9,0h0ZM288.5,128.2c-.2,0-.3,0-.5,0-3,.1-5.4,1.5-6.2,3.5,0,0,0,0,0,0-.5,1.3-.3,2.8.5,4.5,1.2,2.5,4.2,3.1,6.6,2.9,2.9-.2,7.1-2.5,7.4-5.7,0-.5,0-1-.1-1.5-.2-.6-.9-1.1-1.7-1.6-.3-.2-.5-.3-.8-.5-1.4-1-3.3-1.6-5.2-1.6h0ZM280.6,131.3h0,0Z"/>
              </g>
              <circle class="cls-9" cx="288.1" cy="129.8" r="1.4"/>
              <path d="M299.9,133.8c-2,0-3.5-1.6-3.6-1.8-.5-.5-.5-1.3,0-1.8.5-.5,1.3-.5,1.8,0,.2.3,1.1,1,1.8.9.4,0,.8-.3,1.1-.9.4-.6,1.2-.8,1.8-.4.6.4.8,1.2.4,1.8-1,1.6-2.2,2-3.1,2.1-.1,0-.2,0-.3,0h0Z"/>
            </g>
            <path class="cls-9" d="M283.2,113.9c-2.2.7-4.1,2.3-5.1,4.4-.2.4-.3.9-.3,1.3,0,1.4,1.6,2.2,3,2.2,2.8,0,12.7-.6,12.1-4.9-.6-4-6.9-3.9-9.6-3h0Z"/>
            <path class="cls-9" d="M263.2,110.3c1.8,1.4,3.1,3.6,3.2,5.9,0,.5,0,.9-.2,1.4-.5,1.2-2.3,1.5-3.5,1.1-2.7-.9-11.7-5-9.6-8.8,1.9-3.5,7.8-1.2,10.1.5h0Z"/>
            <g>
              <path class="cls-9" d="M307.4,98.1s4.3-2.3,5.2-.3c.9,1.9-1.4,4.6-1.4,4.6,0,0,6.5.2,4.6,2.1l-2,1.9s3.3,2.9,4.3,4.3,11.4-18.4,9.1-26.2c0,0-1-1.4-2.7-.5-1.7,1-17.1,14.1-17.1,14.1h0Z"/>
              <path d="M318.3,112c-.5,0-.9-.2-1.2-.6-.7-1.1-3.2-3.3-4.1-4.1-.3-.2-.4-.6-.4-.9,0-.4.1-.7.4-1l1.4-1.4c-.8-.2-2-.4-3.2-.4-.5,0-.9-.3-1.1-.8-.2-.5-.1-1,.2-1.4.5-.6,1.6-2.3,1.2-3.2-.3-.2-2,.2-3.5.9-.6.3-1.3.1-1.7-.4-.4-.5-.3-1.3.2-1.7,1.6-1.4,15.6-13.3,17.3-14.3,2-1.1,3.7,0,4.4.9,0,.1.1.2.2.4,2.4,7.7-6.7,26.4-9.5,27.8-.2.1-.5.2-.7.2h0ZM315.8,106.3c.8.7,1.8,1.7,2.6,2.6,2.4-3.4,9.3-17.6,7.7-23.8-.3-.3-.7,0-.9,0-.9.5-7.5,6-13.1,10.7,0,0,.1,0,.2,0,.7.2,1.2.7,1.5,1.4.7,1.4.3,2.8-.3,4,2.2.3,3.5.9,3.8,1.9.1.4.4,1.3-.6,2.2l-1,1h0Z"/>
            </g>
            <g>
              <path class="cls-9" d="M261,89.6s-3.3-3.6-4.8-2.1c-1.5,1.5-.3,4.8-.3,4.8,0,0-6.2-2.1-5,.4l1.2,2.5s-4.1,1.5-5.5,2.5c-1.4,1-4.2-21.3.7-27.7,0,0,1.4-1,2.7.5,1.2,1.5,11.1,19.2,11.1,19.2h0Z"/>
              <path d="M246.4,99c-.4,0-.8-.2-1.1-.5-2.1-2.3-4-22.9.9-29.3,0-.1.2-.2.3-.3,1-.7,3-1,4.4.7,1.3,1.5,10.2,17.6,11.2,19.4.3.6.2,1.3-.4,1.7-.5.4-1.3.3-1.7-.2-1.1-1.2-2.6-2.2-3-2.1-.7.7-.3,2.6,0,3.4.2.5,0,1-.3,1.4-.4.4-.9.5-1.4.3-1.1-.4-2.3-.7-3.1-.8l.8,1.8c.2.3.2.7,0,1-.1.3-.4.6-.7.7-1.1.4-4.2,1.6-5.2,2.4-.3.2-.5.3-.8.3h0ZM248.1,70.9c-3.7,5.2-2.2,21-1.2,25,1.1-.6,2.4-1.1,3.4-1.5l-.6-1.2c-.6-1.3,0-2,.2-2.3.7-.8,2.1-.9,4.3-.4-.1-1.3,0-2.8,1.1-3.8.5-.5,1.2-.7,1.9-.7,0,0,.1,0,.2,0-3.6-6.4-7.8-13.8-8.5-14.6-.3-.4-.6-.4-.8-.3Z"/>
            </g>
            <path d="M269.6,154.1c-7.1,0-14-2.7-18.5-7.4-.5-.5-.5-1.3,0-1.8.5-.5,1.3-.5,1.8,0,5.1,5.4,13.7,7.8,22,6.1.8-.2,1.9-.4,2.7-1,.6-.4,1.4-.2,1.8.4.4.6.2,1.4-.4,1.8-1.2.8-2.6,1.2-3.6,1.4-1.9.4-3.9.6-5.8.6h0Z"/>
          </g>
          <g>
            <g>
              <path class="cls-6" d="M309.3,204.8c1-1.4,1.5-3.1,1.9-4.7.6-2.4,1-4.8,1.1-7.2,0-1.1.1-2.2.2-3.3.1-1.3.4-2.6,1-3.7,1-2,2.9-3.1,4.3-4.9.2-.2.3-.5.5-.7-1.7-.2-3.3-1.2-4.4-2.5-.8-1.1-1.3-2.6-.7-3.8-1.1.8-2.6.9-3.8.4-1.2-.6-2.1-1.8-2.2-3.1,0-.2,0-.5-.2-.6s-.4,0-.7,0c-1.6.3-3.3-.1-4.6-1.2-.2-.1-.4-.3-.5-.5-.9,1.6-1.7,3.2-2.4,4.6-4,7.5-4.5,19.9-1.5,27.9.6,1.7,1.5,3.4,2.8,4.6,1.3,1.2,3.1,2,4.9,1.7,1.7-.2,3.2-1.4,4.1-2.8h0Z"/>
              <path class="cls-15" d="M318.3,180.1c2-3.1,3.1-6.9,2.5-10.6-.7-3.9-3.6-7.6-7.5-8.5-2.3-.5-4.7,0-6.7,1.2-2.3,1.5-3.9,3.9-5.3,6.5.1.2.3.4.5.5,1.2,1.1,3,1.5,4.6,1.2.2,0,.5,0,.7,0s.2.4.2.6c.1,1.3,1,2.5,2.2,3.1,1.2.5,2.7.4,3.8-.4-.6,1.2-.2,2.7.7,3.8,1.1,1.4,2.7,2.3,4.4,2.5h0s0,0,0,0Z"/>
            </g>
            <path d="M304.5,208.9c-1.8,0-3.7-.8-5.1-2.1-1.3-1.2-2.3-2.9-3.1-5.1-3.2-8.6-2.5-21.3,1.6-28.9.3-.5.6-1.1.8-1.6.5-1,1-2,1.6-3,1.2-2.3,3-5.1,5.7-6.9,2.2-1.5,5.1-2,7.7-1.4,4.2,1,7.7,4.9,8.5,9.5.6,3.7-.3,7.8-2.6,11.5-.2.3-.3.6-.5.8-.6.9-1.3,1.5-2,2.2-.8.8-1.6,1.6-2.1,2.5-.5.9-.7,1.9-.9,3.2,0,.7-.1,1.5-.2,2.2v1c-.2,2.5-.6,5-1.2,7.4-.4,1.6-1,3.5-2.1,5.2-1.3,1.8-3.1,3.1-5,3.3-.3,0-.6,0-.9,0h0ZM311.4,162.2c-1.4,0-2.9.4-4.1,1.2-2.2,1.5-3.8,4-4.8,6h0c-.5,1-1.1,2-1.5,2.9-.3.6-.6,1.1-.9,1.7-3.7,6.9-4.4,18.9-1.4,26.8.7,1.9,1.5,3.2,2.5,4.1,1.1,1,2.6,1.6,3.9,1.4,1.2-.2,2.4-1,3.2-2.2.9-1.3,1.4-2.8,1.8-4.3.6-2.3.9-4.6,1.1-7v-1c.1-.8.1-1.6.2-2.4.2-1.7.6-3,1.2-4.2.7-1.3,1.7-2.3,2.6-3.2.6-.6,1.3-1.2,1.8-1.9.2-.2.3-.4.4-.6,2-3.2,2.8-6.6,2.3-9.7-.6-3.6-3.3-6.7-6.5-7.4-.5-.1-1.1-.2-1.6-.2h0Z"/>
          </g>
        </g>
      </g>
    </g>
  </g>
</svg>