<svg xmlns="http://www.w3.org/2000/svg" viewBox="0 0 250 250"><defs><style>.cls-1{fill:#9bddb6;}.cls-2{fill:#92d3ac;}.cls-3{fill:#62ba6e;}.cls-4{fill:#85d598;}.cls-5{fill:#a6ecc2;}.cls-6{fill:#88db9d;}.cls-7{fill:#b3f4cd;}.cls-8{fill:#338c69;}</style></defs><g id="레이어_4" data-name="레이어 4"><polygon class="cls-1" points="160.7 75.62 143.11 24.67 123.2 24.67 123.2 200.87 160.7 198.66 160.7 75.62"/><polygon class="cls-2" points="104.91 24.67 86.44 77 86.44 198.66 123.2 200.87 123.2 24.67 104.91 24.67"/><polyline class="cls-3" points="86.57 198.67 135.56 132.23 126.92 63.65 86.57 198.67"/><polygon class="cls-4" points="160.7 75.62 143.11 24.67 123.2 24.67 124.6 116.31 160.7 198.66 160.7 75.62"/><polygon class="cls-5" points="104.91 24.67 86.44 77 86.44 198.66 123.12 116.29 123.2 24.67 104.91 24.67"/><polygon class="cls-3" points="104.8 24.62 86.54 76.89 130.43 46.27 104.8 24.62"/><path class="cls-5" d="M100.17,37.88l-.15.42L86.54,76.89l26.09-23.45.18-.17C108.13,48.74,103.12,44,100.17,37.88Z"/><path class="cls-6" d="M104.8,24.62l-4.63,13.26c-.54.71,6.77,12,11.44,16.5l12-10.79Z"/><polygon class="cls-7" points="104.8 24.62 100.02 38.3 111.52 52.34 123.58 43.59 104.8 24.62"/><path class="cls-5" d="M147.62,37.79l.15.42L160.7,75.62,135.16,53.35l-.19-.16C139.65,48.65,144.66,43.92,147.62,37.79Z"/><path class="cls-3" d="M143,24.53l4.63,13.26c.53.72-6.77,12-11.45,16.5l-12-10.79Z"/><polygon class="cls-7" points="142.99 24.53 147.77 38.21 136.26 52.25 124.2 43.5 142.99 24.53"/><polygon class="cls-4" points="123.12 116.29 59.02 178.21 86.57 198.67 123.12 116.29"/><polygon class="cls-5" points="124.35 116.29 188.45 178.21 160.9 198.67 124.35 116.29"/><path class="cls-8" d="M162.24,201.56a1,1,0,0,1-.92-.59l-2.45-5.48a1,1,0,1,1,1.83-.81l2.45,5.48a1,1,0,0,1-.51,1.32A1,1,0,0,1,162.24,201.56Zm-5.72-12.78a1,1,0,0,1-.91-.59l-2.45-5.48a1,1,0,1,1,1.82-.81l2.45,5.48a1,1,0,0,1-.5,1.32A1.19,1.19,0,0,1,156.52,188.78ZM150.8,176a1,1,0,0,1-.91-.59l-2.45-5.48a1,1,0,0,1,.5-1.32,1,1,0,0,1,1.33.51l2.45,5.48a1,1,0,0,1-.51,1.32A1,1,0,0,1,150.8,176Zm-5.71-12.78a1,1,0,0,1-.92-.59l-2.45-5.47a1,1,0,0,1,.51-1.33,1,1,0,0,1,1.32.51l2.45,5.48a1,1,0,0,1-.51,1.32A1,1,0,0,1,145.09,163.22Zm-5.72-12.78a1,1,0,0,1-.91-.59L136,144.38a1,1,0,1,1,1.82-.82l2.45,5.48a1,1,0,0,1-.5,1.32A1,1,0,0,1,139.37,150.44Zm-5.72-12.77a1,1,0,0,1-.91-.6l-2.45-5.47a1,1,0,0,1,.5-1.33,1,1,0,0,1,1.33.51l2.45,5.48a1,1,0,0,1-.51,1.32A1,1,0,0,1,133.65,137.67Zm-5.71-12.78a1,1,0,0,1-.92-.6l-2.45-5.47a1,1,0,0,1,1.83-.82l2.45,5.48a1,1,0,0,1-.51,1.32A1,1,0,0,1,127.94,124.89Z"/><path class="cls-8" d="M85.89,201.56a1,1,0,0,1-.41-.08,1,1,0,0,1-.5-1.32l2.45-5.48a1,1,0,0,1,1.32-.51,1,1,0,0,1,.51,1.33L86.81,201A1,1,0,0,1,85.89,201.56Zm5.72-12.78a1,1,0,0,1-.41-.08,1,1,0,0,1-.5-1.32l2.45-5.48a1,1,0,1,1,1.82.81l-2.45,5.48A1,1,0,0,1,91.61,188.78ZM97.32,176a1,1,0,0,1-.4-.08,1,1,0,0,1-.51-1.32l2.45-5.48a1,1,0,1,1,1.83.82l-2.45,5.47A1,1,0,0,1,97.32,176ZM103,163.22a1,1,0,0,1-.41-.08,1,1,0,0,1-.5-1.32l2.45-5.48a1,1,0,0,1,1.32-.51,1,1,0,0,1,.51,1.33L104,162.63A1,1,0,0,1,103,163.22Zm5.72-12.78a1,1,0,0,1-.41-.08,1,1,0,0,1-.5-1.32l2.45-5.48a1,1,0,1,1,1.82.82l-2.45,5.47A1,1,0,0,1,108.76,150.44Zm5.71-12.77a1,1,0,0,1-.4-.09,1,1,0,0,1-.51-1.32l2.45-5.48a1,1,0,1,1,1.83.82l-2.45,5.47A1,1,0,0,1,114.47,137.67Zm5.72-12.78a1,1,0,0,1-.41-.09,1,1,0,0,1-.5-1.32l2.45-5.48a1,1,0,0,1,1.82.82l-2.45,5.47A1,1,0,0,1,120.19,124.89Z"/><path class="cls-8" d="M99.36,186.88c1.71,5.77.77,12.13-4.15,17.77a28.45,28.45,0,0,1-12.44,8.64,22.69,22.69,0,0,1-15.12-.61L66,217.31,55.72,206l14.56-.56-1.79,4.93a25.36,25.36,0,0,0,12-.6c12-4.13,19.38-18.08,9-26.36-2.12-1.69-4.31-2.41-7.86-3.29l-1.9-6.95S94,173.46,99.36,186.88Z"/><path class="cls-8" d="M147.66,186.88c-1.71,5.77-.77,12.13,4.15,17.77a28.45,28.45,0,0,0,12.44,8.64,22.69,22.69,0,0,0,15.12-.61l1.68,4.63L191.3,206l-14.56-.56,1.79,4.93a25.36,25.36,0,0,1-12-.6c-12-4.13-19.38-18.08-9-26.36,2.12-1.69,4.31-2.41,7.86-3.29l1.9-6.95S153,173.46,147.66,186.88Z"/></g></svg>