<?xml version="1.0" encoding="utf-8"?>
<!-- Generator: Adobe Illustrator 23.0.2, SVG Export Plug-In . SVG Version: 6.00 Build 0)  -->
<svg version="1.1" id="레이어_1" xmlns="http://www.w3.org/2000/svg" xmlns:xlink="http://www.w3.org/1999/xlink" x="0px"
	 y="0px" viewBox="0 0 358 403" style="enable-background:new 0 0 358 403;" xml:space="preserve">
<style type="text/css">
	.st0{fill:#F4CE2F;}
	.st1{fill:#F2B630;}
	.st2{fill:#EF9D30;}
	.st3{fill:#FFFFFF;}
	.st4{fill:#673101;}
	.st5{fill:#00A2E7;}
	.st6{fill:#008AC4;}
	.st7{fill:#FFB400;}
	.st8{fill:#DD9900;}
	.st9{fill:#FFE4A9;}
	.st10{fill:#FFC0BB;}
	.st11{fill:#353535;}
	.st12{fill:#EFE630;}
	.st13{fill:#C93C1B;}
	.st14{fill:#D34A20;}
	.st15{fill:#EDC932;}
	.st16{fill:#4D5B77;}
	.st17{fill:#384559;}
	.st18{fill:#BC3617;}
	.st19{fill:#7888A3;}
	.st20{fill:#8393AA;}
</style>
<title>자산 15</title>
<g>
	<polygon class="st0" points="237.7,90.6 244.8,30.5 200.2,77.7 183.4,37.7 171.5,81.8 111.4,46.8 124.1,99.4 81.6,105.3 
		112.7,120.4 98.1,134.7 115.6,135.1 98.4,180.2 137.3,172.7 132.9,196.3 156.7,191.4 173,229.9 205.3,186.4 226.8,208.8 
		226.8,176.6 278.9,194.9 256,146.1 317,139.3 256.6,119.6 299.1,71.6 	"/>
	<polygon class="st1" points="204.8,179.7 222.4,198 222.4,170.4 270.6,187.3 249.5,142.4 296.6,137.2 248.9,121.6 285.5,80.3 
		232.6,96.7 238.9,43 198.8,85.6 184.3,51.1 174.2,88.4 118.1,55.7 129.4,103 96.4,107.6 120.2,119.2 108.5,130.6 121.8,130.9 
		105.2,174.5 142.8,167.2 138.4,190.7 159.3,186.5 174,221.2 	"/>
	<polygon class="st2" points="204,166.3 213.7,176.4 213.7,158.2 253.9,172.2 236.4,135.1 255.6,133 233.6,125.8 258.4,97.9 
		222.4,109 227.2,68.2 196,101.3 186.1,77.8 179.7,101.7 131.3,73.5 140.1,110.3 125.9,112.3 135.1,116.8 129.4,122.4 134.3,122.6 
		118.9,163 153.8,156.3 149.3,179.6 164.6,176.5 176.1,203.8 	"/>
</g>
<g>
	<path class="st3" d="M87.7,180.4h-0.3c-5,0.6-9.5-3-10.1-8l0,0c-0.5-3.9-3.8-8-4.9-9.2c-1.2-1-3.2-2.3-4.5-1.9
		c-3.1,0.8-7.1,7.2-8.6,11.3c-1.7,4.7-6.9,7.2-11.7,5.5s-7.2-6.9-5.5-11.7l0,0c0.7-1.9,7.3-19,21-22.6c5-1.4,12.7-1.4,21.3,5.8
		l0.4,0.4c1,0.9,9.2,9.1,10.6,20.4C95.9,175.2,92.5,179.6,87.7,180.4z"/>
	<path class="st4" d="M58,166.6c-0.7,0.1-1.4,0.5-1.9,1c0.6-0.8,0.8-1.8,0.7-2.7c-0.3-2-2.1-3.4-4.1-3.1c-0.9,0.1-1.7,0.6-2.3,1.3
		c0.5-0.7,0.7-1.6,0.5-2.4c-0.3-2-2.2-3.4-4.2-3.1l0,0c-0.2,0-0.3,0.1-0.4,0.1c-1.7,2.7-3.1,5.6-4.3,8.6c-1.6,4.8,0.9,10,5.7,11.6
		c4.6,1.6,9.7-0.8,11.4-5.3c0.6-1.6,1.4-3.2,2.3-4.7C60.6,166.9,59.3,166.4,58,166.6z"/>
</g>
<g>
	<path class="st3" d="M113.7,162.4l0.2-0.2c3.4-3.8,3.1-9.6-0.7-13l0,0c-2.9-2.7-4.4-7.8-4.7-9.4c-0.1-1.5-0.1-3.9,1-4.9
		c2.5-2.1,10-1.6,14.3-0.5c4.9,1.2,9.9-1.9,11.1-6.8c1.1-4.7-1.6-9.5-6.3-10.9c-2-0.5-19.8-5-30.8,4.2c-4,3.3-8.5,9.6-7.5,20.9
		l0.1,0.6c0.2,1.3,2.2,12.9,10.6,20.5C104.6,166.2,110.2,166,113.7,162.4z"/>
	<path class="st4" d="M119.4,130.1c0.5-0.5,1.2-0.9,1.9-1c-2,0.1-3.8-1.5-3.8-3.5c-0.1-2,1.5-3.8,3.5-3.8c-0.9,0-1.7-0.4-2.3-1
		c-1.5-1.4-1.5-3.8-0.1-5.2l0,0c0.1-0.1,0.2-0.2,0.3-0.2c3.3,0.2,6.5,0.7,9.7,1.5c4.9,1.4,7.6,6.6,6.2,11.4
		c-1.4,4.7-6.2,7.4-10.9,6.3c-1.7-0.4-3.5-0.7-5.2-0.8C118.2,132.4,118.6,131.1,119.4,130.1z"/>
</g>
<g>
	<path class="st5" d="M112.4,140.5c0,0,13.3-6.6,38.5-4.4l48.9,75.2l20.8,58.9c6.9,19.6-11.4,43.9-41,54.3s-59.1,3-66-16.6
		l-22.2-63.2l-16-45.4C75.4,199.3,61,158.5,112.4,140.5z"/>
	<path class="st6" d="M202,271.5L202,271.5l-9.4-26.5c-3.3-9.4,1.6-19.7,10.9-23c0,0,0,0,0.1,0l17,48.3c1.5,4.2,1.8,8.7,1.1,13.1
		C213.2,284.6,204.9,279.7,202,271.5z"/>
</g>
<g>
	<path class="st7" d="M97.6,262.7l-1.1-3.1l-10,3.5c-5.2-1.2-5-8.6-5-8.6l0,0c1.7-14.1-8.4-26.8-22.4-28.5
		c-14.1-1.7-26.8,8.4-28.5,22.4c-0.9,7.3,1.5,14.7,6.4,20.2l0,0c0,0,0,0.1,0.1,0.1l0,0c0.5,0.6,6.7,7.7,14.2,10.2
		c0,0-3.2,4.1-4.5,13.5c0,0.2-0.1,0.5-0.1,0.7s-0.1,0.5-0.1,0.8l0,0c-1.6,14.1,8.6,26.8,22.7,28.3c14.1,1.6,26.8-8.6,28.3-22.7
		c0.9-8.1-2.1-16.1-8.1-21.7c-1.3-2.1-3.5-5.5-0.7-8.6l10-3.5L97.6,262.7L97.6,262.7z M53.6,246.4c6.1-2.2,9.7,0.1,11.8,6.2
		c2.1,6.1,1,10.8-5.1,12.9s-9.7-0.8-11.8-7S47.5,248.6,53.6,246.4z M73.3,302.3c-6.1,2.1-9.5-0.1-11.6-6.3s-1.2-10.7,4.9-12.8
		s9.9,0.8,12,6.9S79.4,300.1,73.3,302.3z"/>
	<path class="st8" d="M101.6,269c0.3,0.9-0.1,1.8-1,2.1l0,0c-0.9,0.3-1.8-0.1-2.1-1l-5.1-14.4c-0.3-0.8,0.1-1.8,1-2.1l0,0l0,0
		c0.9-0.3,1.8,0.1,2.1,1L101.6,269z"/>
	<path class="st9" d="M76.2,248.8L76.2,248.8c1.2-0.5,1.8-1.8,1.4-3c-3.2-9-11.3-15.4-20.9-16.3c-1.3,0-2.4,1-2.4,2.3
		c0,1.2,0.9,2.3,2.1,2.4l0,0c7.7,0.8,14.2,6,16.7,13.2C73.6,248.6,75,249.2,76.2,248.8z"/>
</g>
<path class="st3" d="M130.9,136.1c34-7.9,47.9,19.9,50.3,24.7c10.4-1.7,19.8,5,24,15.6l0.9,2.2c6.3,15.8-1.5,33.7-17.3,40l0,0
	l-11,4.3c-27.9,11-52.1-3.2-62.1-28.6S110.3,141.2,130.9,136.1z"/>
<path class="st10" d="M179.9,185.4c3.6,9.1-0.9,19.3-10,22.9c-9.1,3.6-19.3-0.9-22.9-10c-3.6-9.1,0.9-19.3,10-22.9
	C166.1,171.9,176.3,176.4,179.9,185.4L179.9,185.4z"/>
<g>
	<path d="M200.7,167.7c0.9,1,1.2,2,0.6,2.9s-2.6,0.6-3.5-0.3s-1.2-2.6-0.2-3.3S200,166.9,200.7,167.7z"/>
	<path d="M177.8,162.9l-1.9,4.6l-4.6-1.9c-0.7-0.3-1.6,0-1.9,0.8s0,1.6,0.8,1.9l0,0l4.6,1.9l-1.9,4.6c-0.3,0.7,0.1,1.6,0.8,1.8
		c0.7,0.3,1.5,0,1.8-0.7v-0.1l1.9-4.6l4.6,1.9c0.7,0.3,1.5,0,1.8-0.7v-0.1c0.3-0.7,0-1.6-0.8-1.9l0,0l-4.6-1.9l1.9-4.6
		c0.3-0.7,0-1.6-0.8-1.9l0,0C178.9,161.9,178.1,162.2,177.8,162.9z"/>
	<path d="M204.1,174.1l-1.6,4.5l-6.9-3.9l-2.8,7.8l-4.5-3.2c-0.6-0.4-1.5-0.3-2,0.4c-0.4,0.6-0.3,1.5,0.4,2l0,0l7.6,5.3l2.9-8.1
		l6.9,3.9l1.7-4.8l-0.6-1.5C204.8,175.6,204.5,174.9,204.1,174.1z"/>
</g>
<path class="st11" d="M260.9,231.4l-29.3-4.3l2-13.7c0.4-2-0.9-4-2.9-4.4s-4,0.9-4.4,2.9c0,0.1,0,0.2-0.1,0.4l-5,33.8
	c-0.3,2.1,1.1,4,3.2,4.3s4-1.1,4.3-3.2l2-13.7l29.3,4.3L260.9,231.4z"/>
<path class="st12" d="M293,210.9c10.1-3.6,21.6,2.6,25.5,13.8s-1.1,23.2-11.2,26.7L293,210.9z"/>
<g>
	<path class="st13" d="M318,281.8c1,2.5-0.3,5.3-2.8,6.3L279,300.9c-2.6,0.8-5.3-0.6-6.1-3.2l-34.3-97.4c-1-2.5,0.3-5.3,2.8-6.3
		l36.2-12.8c2.6-0.8,5.3,0.6,6.1,3.2l0,0L318,281.8z"/>
	<path class="st14" d="M280.9,190.5l-36.2,12.8c-2.5,0.9-3.7,3.5-2.9,6l0,0l13.2,37.6l-147.1,51.9l-7-20c-0.9-2.5-3.5-3.7-6-2.9
		l-2.9,1c-2.5,0.9-3.7,3.5-2.9,6l0,0l7,20l1,2.8l19.2,54.5l161.8-57c0.6,0,1.1-0.1,1.7-0.2l36.2-12.7c0.5-0.2,1-0.5,1.5-0.9l2.9-1
		l-1.5-4.1L300.1,231l-13.2-37.6C286,190.9,283.3,189.6,280.9,190.5L280.9,190.5z"/>
</g>
<path class="st15" d="M98.3,323.5l4.6-1.6l5.4,15.4l-4.6,1.7c-2.4,0.9-5.1-0.4-6-2.9l0,0l-2.3-6.5C94.5,327.1,95.8,324.4,98.3,323.5
	C98.2,323.6,98.2,323.5,98.3,323.5z"/>
<g>
	<g>
		<path class="st16" d="M134,353.5c-5.2-14.8,2.6-31.1,17.4-36.3c14.8-5.2,31.1,2.6,36.3,17.4s-2.6,31.1-17.4,36.3
			C155.5,376.1,139.2,368.3,134,353.5z"/>
		<path class="st17" d="M166.4,359.8c-8.7,3.1-18.2-1.5-21.3-10.2s1.5-18.2,10.2-21.3s18.2,1.5,21.3,10.2l0,0
			C179.6,347.2,175.1,356.7,166.4,359.8z"/>
	</g>
	<path class="st18" d="M149.5,311.9c-17.8,6.3-26.9,26.4-20.4,44.9l2.2,6.1l4.7-1.6l-2.2-6.1l0,0c-5.6-15.8,2.2-33,17.4-38.4
		s32,3.2,37.6,19l0,0l2.2,6.1l4.7-1.6l-2.2-6.1C187,315.6,167.3,305.7,149.5,311.9z"/>
</g>
<g>
	<g>
		<path class="st16" d="M236.8,316.3c-5.2-14.8,2.6-31.1,17.4-36.3c14.8-5.2,31.1,2.6,36.3,17.4s-2.6,31.1-17.4,36.3
			C258.3,338.9,242.1,331.1,236.8,316.3L236.8,316.3z"/>
		<path class="st17" d="M269.2,322.6c-8.7,3.1-18.2-1.5-21.3-10.2s1.5-18.2,10.2-21.3c8.7-3.1,18.2,1.5,21.3,10.2
			C282.5,310,277.9,319.5,269.2,322.6z"/>
	</g>
	<path class="st18" d="M252.4,274.7c-17.8,6.3-26.9,26.4-20.4,44.9l2.2,6.1l4.7-1.6l-2.1-6.1l0,0c-5.6-15.8,2.2-33,17.4-38.4
		c15.2-5.4,32,3.2,37.6,19l0,0l2.2,6.1l4.7-1.6l-2.2-6.1C289.8,278.4,270.1,268.5,252.4,274.7z"/>
</g>
<g>
	<path class="st19" d="M321.5,270.6c0.6,1.8,0.2,3.7-1.1,4.1l-13.5,4.8c-1.2,0.4-2.8-0.7-3.4-2.5l0,0c-0.6-1.8-0.2-3.7,1.1-4.1
		L318,268C319.3,267.6,320.8,268.7,321.5,270.6L321.5,270.6z"/>
	
		<rect x="310.1" y="276.7" transform="matrix(0.9431 -0.3325 0.3325 0.9431 -75.8286 120.8967)" class="st20" width="10.5" height="10.6"/>
	<path class="st19" d="M323.9,284.7l-1.8,0.6l-9.9,3.5l-1.8,0.6c-1.2,0.4-1.7,2.3-1.1,4.1s2.2,3,3.4,2.5l13.5-4.8
		c1.2-0.4,1.7-2.3,1.1-4.1S325.2,284.2,323.9,284.7z"/>
</g>
<g>
	<path class="st19" d="M119.1,341.9c0.7,1.8,0.2,3.7-1.1,4.1l-13.5,4.8c-1.2,0.4-2.8-0.7-3.4-2.5l0,0c-0.6-1.8-0.2-3.7,1.1-4.1
		l13.5-4.8C116.9,338.9,118.5,340.1,119.1,341.9z"/>
	
		<rect x="107.8" y="348.1" transform="matrix(0.9431 -0.3325 0.3325 0.9431 -111.0709 57.6978)" class="st20" width="10.5" height="10.6"/>
	<path class="st19" d="M121.5,356l-1.8,0.6l-9.9,3.5l-1.8,0.6c-1.2,0.4-1.7,2.3-1.1,4.1s2.2,3,3.4,2.5l13.5-4.8
		c1.2-0.4,1.7-2.3,1.1-4.1S122.8,355.6,121.5,356z"/>
</g>
<g>
	<path class="st3" d="M231.9,221.1c-3.6-1.6-7.7,0-9.3,3.5c-5.6,11.4-10.2,13.7-14.6,14.9c-2.6,0.7-5.3,1.1-8.1,1.4
		c-16.9,1.6-23.4-7.1-23.8-7.6c-2.1-3.3-6.5-4.2-9.8-2c-3.3,2.1-4.2,6.5-2,9.8c0.5,0.8,11.7,17.5,39.8,13.6c2.6-0.4,5.1-0.9,7.6-1.5
		l0.3-0.1l0.3-0.1c10.6-3.7,19.1-12,23.2-22.5C237,226.9,235.4,222.8,231.9,221.1z"/>
	<path class="st6" d="M212.1,253.1l0.3-0.1c10.6-3.8,19.1-12,23.1-22.5c1.5-3.6,0-7.7-3.5-9.3c-3.6-1.6-7.7,0-9.3,3.5
		c-5.6,11.4-10.2,13.7-14.6,14.9c-2.6,0.7-5.3,1.1-8.1,1.4l4.2,13.7c2.6-0.4,5.1-0.9,7.6-1.5L212.1,253.1z"/>
</g>
</svg>
