<?xml version="1.0" encoding="utf-8"?>
<!-- Generator: Adobe Illustrator 26.5.0, SVG Export Plug-In . SVG Version: 6.00 Build 0)  -->
<svg version="1.1" id="레이어_1" xmlns="http://www.w3.org/2000/svg" xmlns:xlink="http://www.w3.org/1999/xlink" x="0px"
	 y="0px" viewBox="0 0 390 390" style="enable-background:new 0 0 390 390;" xml:space="preserve">
<g>
	<g>
		<path style="fill:#F2DDAB;" d="M80.7,166.1c-13.9,6.2-23.3,21.5-22.5,36.7s11.6,29.5,26.1,34.3c-8.5,8.9-10.4,23.4-4.5,34.2
			s19,17.1,31.1,14.9c2.3,15.3,13.6,28.8,28.2,33.8s31.8,1.3,43-9.3c1.9,8.8,11.7,13.1,20.4,15.5c8.1,2.2,16.8,4,24.8,1.5
			s14.9-10.6,13.1-18.9c7.7,9.3,21.4,13,32.8,9s19.6-15.5,19.8-27.6c15.8,5.1,34.5-1.7,43.4-15.7s7.1-33.8-4.2-46
			c14.7,1.9,25.6-14.5,27.2-29.3c1.2-10.9-0.7-22.4-7.2-31.3c-6.5-8.8-18-14.3-28.7-11.8c14-6.3,18.1-26.5,9.8-39.4
			c-8.3-12.9-25.9-17.9-40.7-14.1c3.8-18.7-13-37.4-31.9-39.6c-18.9-2.2-37.6,9.2-48.4,24.9c-1.4-9.7-9.9-17-19-20.6
			c-11.3-4.5-24.7-4.6-35,1.8c-10.1,6.3-15.9,19-12.6,30.6c-5.7-14.4-17.2-20.5-31.5-13.9c-4.5,2.1-12.9,6.2-15.3,10.6
			c-2.8,5.2,0,19.9,5.4,23c-14.6-8.3-27.8,2.5-33.5,15.6c-2.4,5.5-4.5,12-2.9,18C68.8,156.2,76.2,168.1,80.7,166.1z"/>
		<path d="M218.7,329.7c-5.5,0-11.1-1.3-16.5-2.7c-11.7-3.2-18.5-8.1-20.6-14.7c-11.4,10.1-28.4,13.6-42.9,8.6
			c-14.6-5-26-18.5-28.6-33.7c-12.2,1.9-25.2-4.5-31.2-15.4c-5.8-10.8-4.2-25,3.8-34.2C68.4,232.3,58,218.3,57.2,203
			c-0.7-14.7,7.5-29.2,20.3-36.2c0,0-0.1,0-0.1-0.1c-4.4-2.1-9.6-10.5-10.4-13.3c-1.7-6.5,0.7-13.3,2.9-18.6
			c3.8-8.8,10.5-15.5,17.7-17.9c4.2-1.4,8.6-1.3,12.9,0.2c-3.7-5.8-5-16.3-2.6-20.8c1.8-3.4,7.1-7.1,15.7-11
			c6.7-3.1,13.2-3.5,18.8-1.3c4.6,1.8,8.4,5.4,11.4,10.4c-0.5-10,4.8-20.2,13.9-25.8c9.9-6.2,23.3-6.9,35.7-1.9
			c7.9,3.2,16.8,9.8,19.1,19.3c12-16.4,30.7-25.7,48-23.7c10.3,1.2,20.2,7.2,26.6,16c5.3,7.2,7.5,15.5,6.2,23.4
			c15.7-3.5,32.5,2.6,40.4,14.8c4.4,6.9,5.6,16,3.1,24.4c-1.8,6-5.1,10.8-9.6,14c9.3-0.4,19.2,4.4,25.2,12.7
			c6.1,8.3,8.7,19.6,7.4,31.8c-1.1,10.1-6.2,20.1-13.1,25.6c-4,3.1-8.4,4.7-12.9,4.6c10.3,12.5,11.7,31.7,2.9,45.5
			c-8.9,14-27.4,20.9-43.3,16.3c-0.7,11.9-9.1,23.3-20.3,27.3c-10.8,3.8-23.8,0.7-31.9-7.3c0.1,8-6.7,15-14,17.2
			C224.6,329.3,221.7,329.7,218.7,329.7z M182.6,309.1l0.3,1.4c1.5,6.7,7.9,11.6,19.8,14.8c8,2.2,16.5,3.9,24.4,1.5
			c7.4-2.3,14.2-10.1,12.6-17.9l-0.7-3.3l2.1,2.6c7.5,9,20.9,12.6,31.9,8.7s19.1-15.2,19.3-26.8V289l1.1,0.3
			c15.5,5,33.7-1.6,42.5-15.3c8.7-13.7,7-33.1-4.1-45l-1.5-1.7l2.3,0.3c4.9,0.6,9.5-0.8,13.7-4.1c6.6-5.2,11.5-14.8,12.5-24.4
			c1.3-11.9-1.2-22.8-7.1-30.7c-6.6-9.1-18.1-13.8-27.8-11.4l-0.5-1.6c5.9-2.7,10.3-8,12.4-15.1c2.3-8,1.2-16.6-2.9-23.1
			c-7.7-11.9-24.4-17.7-39.8-13.8l-1.3,0.3l0.3-1.3c1.6-7.8-0.5-16.1-5.7-23.3c-6.1-8.4-15.7-14.2-25.5-15.3
			c-17.3-2-36,7.7-47.6,24.6l-1.2,1.7l-0.3-2.1c-1.4-9.8-10.5-16.8-18.5-20c-11.8-4.7-24.9-4-34.2,1.8
			c-10.2,6.3-15.4,18.8-12.2,29.7l-1.6,0.5c-2.9-7.4-7.4-12.5-13-14.7c-5.2-2.1-11.1-1.7-17.5,1.2c-10.3,4.7-13.8,8.2-15,10.3
			c-2.6,4.8,0,18.9,5.1,21.9l0,0l0,0l-0.8,1.4c-5.2-2.9-10.4-3.6-15.6-1.9c-6.8,2.3-13.1,8.6-16.7,17c-2.2,5-4.5,11.5-2.9,17.5
			c0.7,2.5,5.6,10.4,9.5,12.3c0.8,0.4,1.6,0.5,2.1,0.2l0,0l0.7,1.5c-13.9,6.3-23,21-22.2,36.1c0.8,15,11.3,28.8,25.5,33.6l1.2,0.4
			l-0.9,0.9c-8.3,8.7-10.1,22.7-4.4,33.2c5.7,10.6,18.4,16.6,30.2,14.5l0.8-0.2l0.1,0.8c2.3,14.9,13.4,28.3,27.7,33.2
			c14.3,4.9,31.2,1.2,42.2-9.2L182.6,309.1z"/>
	</g>
	<g>
		<path style="fill:#D8AAD4;" d="M308.3,119.5c0.7,0.2,1.4,0.3,2.2,0.3c6.5,0.5,11.8-6.7,15.8-11.7c5.1-6.3,8.2-14.1,9.2-22.7
			c0.6-5.2,0.3-10.4,0.2-15.6c-0.1-3.2-0.3-7.8-4-8.4c-5.5-0.9-11,0.4-16.3,1.7c-1,0.2-2.5,0.3-2.7,1.6c-0.1,0.6,0.1,1.3,0.2,1.9
			c0.9,3.6,2.1,7.6,2.4,11.3c0.3,3.7-0.4,7.4-1.2,11c-1,4.2-2.3,8.6-4.7,11.9c-2.6,3.6-5.6,6.6-6.3,11.4
			C302.6,116.7,305,118.7,308.3,119.5z"/>
		<path d="M311.2,120.7c-0.2,0-0.5,0-0.7,0c-0.8-0.1-1.6-0.2-2.3-0.3l0,0c-4.4-1-6.4-3.8-5.8-8.1c0.6-4.1,2.8-6.9,4.9-9.7
			c0.5-0.7,1-1.3,1.5-2c2.5-3.5,3.8-8.1,4.6-11.6c0.9-4,1.4-7.3,1.2-10.7c-0.3-3.2-1.1-6.6-2-9.8l-0.3-1.3c-0.2-0.7-0.4-1.4-0.3-2.2
			c0.2-1.7,1.9-2,2.9-2.2c0.2,0,0.3-0.1,0.4-0.1c5.1-1.2,10.9-2.7,16.6-1.7c4.4,0.7,4.6,6.2,4.6,9.2l0.1,1.9
			c0.1,4.5,0.3,9.2-0.3,13.8c-1,8.8-4.3,16.8-9.4,23.1l-0.8,1C322.5,114.3,317.4,120.7,311.2,120.7z M308.5,118.7
			c0.6,0.1,1.3,0.3,2.1,0.3c5.6,0.5,10.5-5.6,14.3-10.4l0.8-1c4.9-6.1,8-13.8,9-22.3c0.5-4.5,0.4-8.9,0.2-13.6l-0.1-1.9
			c-0.1-3.4-0.4-7.1-3.3-7.6c-5.4-0.9-10.8,0.4-16,1.7c-0.2,0-0.3,0.1-0.5,0.1c-1,0.2-1.5,0.4-1.6,0.8c-0.1,0.5,0.1,1,0.2,1.5
			l0.3,1.3c0.9,3.3,1.8,6.8,2,10.1c0.3,3.8-0.4,7.7-1.2,11.2c-0.8,3.7-2.2,8.5-4.9,12.2c-0.5,0.7-1,1.4-1.6,2.1
			c-2.1,2.7-4.1,5.3-4.6,8.9C303.5,115.8,305,117.9,308.5,118.7L308.5,118.7z"/>
	</g>
	<g>
		<path style="fill:#E0E0E0;" d="M327.3,61.5c0.2,1,0.4,1.9,0.7,2.8c0.3,0.7,0.6,1.4,1.1,2c0.9,1.1,2.4,1.7,3.5,1
			c0.7-0.5,1.1-1.4,1.2-2.4s-0.2-2-0.4-2.9c0,0-0.7-0.5-2.8-0.7C328.3,61.1,327.3,61.5,327.3,61.5z"/>
		<path d="M331.5,68.4c-1.2,0-2.4-0.7-3.1-1.6c-0.5-0.6-0.9-1.3-1.2-2.2c-0.3-0.9-0.5-1.8-0.7-2.7l-0.1-0.3
			c-0.1-0.4,0.1-0.8,0.5-0.9c0.1,0,1.2-0.4,3.5-0.2c2.2,0.2,3.1,0.8,3.3,0.9c0.1,0.1,0.3,0.3,0.3,0.4c0.3,1,0.5,2.1,0.5,3.2
			c-0.1,1.4-0.7,2.5-1.6,3.1C332.5,68.3,332,68.4,331.5,68.4z M328.3,62.1c0.1,0.6,0.3,1.3,0.5,1.9c0.3,0.7,0.6,1.3,0.9,1.8
			c0.6,0.8,1.7,1.3,2.4,0.9c0.4-0.3,0.8-1,0.8-1.8s-0.1-1.5-0.3-2.3c-0.3-0.1-1-0.3-2.2-0.4C329.5,62,328.8,62.1,328.3,62.1z"/>
	</g>
	<g>
		<path style="fill:#E0E0E0;" d="M320.5,62c0.2,1,0.4,1.9,0.7,2.8c0.3,0.7,0.6,1.4,1.1,2c0.9,1.1,2.4,1.7,3.5,1
			c0.7-0.5,1.1-1.4,1.2-2.4s-0.3-3.3-0.6-4.3c0,0-0.3-0.1-2.4,0.1C321.7,61.6,320.5,62,320.5,62z"/>
		<path d="M324.7,69c-1.2,0-2.4-0.7-3.1-1.6c-0.5-0.6-0.9-1.3-1.2-2.2c-0.3-0.9-0.5-1.8-0.7-2.7l-0.1-0.3c-0.1-0.4,0.1-0.8,0.5-0.9
			c0.1,0,1.3-0.5,3.6-0.7c2.2-0.3,2.6-0.1,2.7-0.1c0.2,0.1,0.4,0.3,0.5,0.5c0.3,1,0.7,3.4,0.6,4.5c-0.1,1.4-0.7,2.5-1.6,3.1
			C325.7,68.9,325.2,69,324.7,69z M321.4,62.6c0.1,0.7,0.3,1.3,0.5,2c0.3,0.7,0.6,1.3,0.9,1.8c0.6,0.8,1.7,1.3,2.4,0.9
			c0.4-0.3,0.8-1,0.8-1.8c0-0.7-0.2-2.4-0.4-3.4c-0.3,0-0.8,0.1-1.6,0.1C322.9,62.3,322,62.5,321.4,62.6z"/>
	</g>
	<g>
		<path style="fill:#FFF4C7;" d="M35.7,258.7l10.7-4.4l7.3,17.5l-17,1.8c0,0,14.8,14.7-3.7,18.1c-11.4,2.1-11.6-8.6-11.6-8.6
			s-15.5,9.5-20.2-9.3c-2.8-11.3,11.6-13.3,11.6-13.3s-3.7-8.8,8.3-14C28.1,243.5,40.3,252.9,35.7,258.7z"/>
		<path d="M30.2,292.8c-2.4,0-4.5-0.7-6.1-2c-2.4-1.9-3.1-4.8-3.4-6.4c-2.2,1.1-7.3,3-12.1,1.1c-3.9-1.6-6.7-5.5-8.2-11.5
			c-0.8-3.1-0.4-5.9,1.2-8.2c2.7-4,8-5.4,10.2-5.9c-0.6-2.6-1.2-9.7,9-14.1c4.8-2.1,11.6,1,14.9,5.3c1.6,2.1,2.2,4.2,1.7,6.1
			l8.7-3.6c0.2-0.1,0.4-0.1,0.6,0c0.2,0.1,0.4,0.2,0.4,0.4l7.3,17.5c0.1,0.2,0.1,0.5-0.1,0.7c-0.1,0.2-0.4,0.4-0.6,0.4l-15.3,1.6
			c2,2.3,5.8,7.5,4.4,12c-1,3.1-4.2,5.2-9.7,6.2C32.1,292.7,31.1,292.8,30.2,292.8z M21.4,282.3c0.1,0,0.3,0,0.4,0.1
			c0.3,0.1,0.4,0.4,0.4,0.7c0,0,0.1,4.1,2.9,6.4c1.8,1.5,4.4,1.9,7.7,1.3c4.8-0.9,7.6-2.6,8.4-5.1c1.5-4.9-5.1-11.5-5.2-11.6
			c-0.2-0.2-0.3-0.6-0.2-0.9s0.4-0.5,0.7-0.5l15.9-1.7L46,255.3l-9.9,4.1c-0.3,0.1-0.7,0-1-0.3c-0.2-0.3-0.2-0.7,0-1
			c1.8-2.2,0.3-4.8-0.7-6.1c-2.8-3.7-9-6.5-12.9-4.7c-11,4.8-8,12.6-7.9,12.9c0.1,0.2,0.1,0.5,0,0.7s-0.3,0.4-0.6,0.4
			c-0.1,0-7,1-10,5.3c-1.3,1.9-1.6,4.2-0.9,6.9c1.4,5.5,3.8,9,7.2,10.4c5.4,2.2,11.7-1.5,11.8-1.5C21.1,282.4,21.3,282.3,21.4,282.3
			z"/>
	</g>
	<g>
		<path style="fill:#FFF4C7;" d="M354.6,88l-8.7,7l11.6,14.3l9.4-13.6c0,0,5.6,19.4,17.1,5.3c7.1-8.7-1.9-13.8-1.9-13.8
			s15.2-8.8,1.4-21.5c-8.3-7.6-16.6,3.7-16.6,3.7s-5.8-7.2-15.7,0.6C345.2,74.5,347.5,89.2,354.6,88z"/>
		<path d="M357.4,110.1c-0.2,0-0.5-0.1-0.6-0.3l-11.6-14.3c-0.3-0.4-0.2-0.9,0.1-1.2l7-5.7c-1.8-0.5-3.3-2-4.3-4.3
			c-2.1-4.8-1.6-12,2.4-15.1c8.5-6.6,14.2-2.9,16.2-1.1c1.4-1.6,5.1-5.5,9.7-5.9c2.7-0.3,5.2,0.7,7.6,2.8c4.4,4.1,6.4,8.2,6,12.3
			c-0.5,5-4.5,8.4-6.5,9.8c1.3,1,3.3,3,3.8,5.8c0.5,2.7-0.4,5.6-2.8,8.5c-3.4,4.2-6.7,6-9.8,5.3c-4.4-0.9-7.1-6.5-8.2-9.3l-8.4,12.2
			C358,110,357.7,110.1,357.4,110.1C357.5,110.1,357.4,110.1,357.4,110.1z M347,95.1l10.3,12.8l8.7-12.7c0.2-0.3,0.5-0.4,0.8-0.3
			s0.6,0.3,0.7,0.6c0,0.1,2.6,8.8,7.5,9.7c2.5,0.5,5.2-1.1,8.2-4.8c2-2.5,2.8-4.9,2.4-7.1c-0.6-3.4-4.1-5.4-4.1-5.5
			c-0.3-0.1-0.4-0.4-0.4-0.7c0-0.3,0.2-0.6,0.4-0.7c0.1,0,6.1-3.6,6.7-9.3c0.4-3.5-1.5-7.2-5.5-10.9c-2-1.8-4.1-2.6-6.3-2.4
			c-5,0.5-9.1,5.9-9.1,6c-0.2,0.2-0.4,0.3-0.6,0.3c-0.3,0-0.5-0.1-0.7-0.3c-0.2-0.3-5.4-6.4-14.6,0.7c-3.3,2.6-3.7,9.1-1.9,13.2
			c0.6,1.5,2.2,3.9,4.9,3.4c0.4-0.1,0.7,0.1,0.9,0.5c0.2,0.3,0.1,0.7-0.2,1L347,95.1z"/>
	</g>
	<g>
		<path style="fill:#A8A8A8;" d="M102.6,149.9c-0.7,0.2-1.4,0.5-2.1,0.6c-6.3,1.5-12.8-3.9-17.7-7.5c-6.1-4.6-10.7-10.8-13.2-18
			c-1.6-4.4-2.2-8.9-3.1-13.4c-0.5-2.8-1.1-6.7,2.3-7.8c5.2-1.6,10.9-1.4,16.3-1.1c1,0,2.5-0.1,3,1c0.2,0.5,0.2,1.1,0.1,1.7
			c-0.2,3.2-0.6,6.8-0.2,10.1c0.4,3.3,1.7,6.3,3.2,9.2c1.7,3.5,3.8,7,6.9,9.5c3.2,2.7,6.7,4.8,8.3,8.8
			C107.7,146.5,105.8,148.7,102.6,149.9z"/>
		<path d="M98.3,151.6c-5.5,0-10.9-4.1-15.1-7.2l-0.9-0.7c-6.2-4.7-10.9-11-13.5-18.4c-1.4-3.9-2.1-7.9-2.8-11.8l-0.3-1.7
			c-0.4-2.4-1.3-7.4,2.9-8.7c5.4-1.7,11.4-1.4,16.6-1.1c0.1,0,0.3,0,0.5,0c1,0,2.7,0,3.2,1.5c0.3,0.7,0.2,1.4,0.2,2l-0.1,1.2
			c-0.2,2.9-0.5,5.9-0.1,8.7c0.4,3.1,1.7,6.2,3.1,9c1.5,2.9,3.5,6.6,6.6,9.2c0.6,0.5,1.2,1,1.9,1.5c2.6,2,5.3,4.2,6.6,7.6
			c1.4,3.6-0.1,6.5-4.2,8.1l0,0c-0.7,0.3-1.4,0.5-2.2,0.7C99.9,151.5,99.1,151.6,98.3,151.6z M79.1,103.3c-3.4,0-6.7,0.3-9.9,1.3
			c-2.4,0.7-2.4,3.2-1.8,6.9l0.3,1.7c0.7,4,1.4,7.8,2.7,11.6c2.5,7.1,7,13.2,13,17.7l0.9,0.7c4.7,3.5,10.5,8,16.1,6.7
			c0.7-0.2,1.4-0.4,2-0.6l0,0c4.3-1.6,3.9-4.2,3.2-5.9c-1.1-3-3.6-4.9-6.1-6.9c-0.6-0.5-1.3-1-1.9-1.5c-3.4-2.8-5.5-6.7-7.1-9.8
			c-1.5-2.9-2.9-6.1-3.3-9.5c-0.4-2.9-0.1-6,0.1-9l0.1-1.2c0-0.5,0.1-1-0.1-1.3c-0.2-0.4-0.8-0.4-1.7-0.4c-0.2,0-0.4,0-0.5,0
			C83.1,103.4,81.1,103.3,79.1,103.3z"/>
	</g>
	<g>
		<path style="fill:#E0E0E0;" d="M73.2,103.1c0,0.9,0,1.7-0.2,2.5c-0.1,0.7-0.3,1.3-0.7,1.9c-0.7,1.1-2,1.9-3.2,1.4
			c-0.8-0.3-1.4-1.1-1.6-1.9s-0.2-1.7-0.1-2.6c0,0,0.6-0.6,2.7-1.1S73.2,103.1,73.2,103.1z"/>
		<path d="M69.9,109.9c-0.3,0-0.6-0.1-1-0.2c-1-0.4-1.8-1.3-2.1-2.4c-0.3-1-0.2-2-0.1-2.9c0-0.2,0.1-0.4,0.3-0.5
			c0.1-0.1,0.9-0.7,3-1.3c2.2-0.5,3.3-0.4,3.4-0.4c0.4,0.1,0.7,0.4,0.7,0.8v0.3c0,0.8,0,1.6-0.2,2.4c-0.2,0.9-0.4,1.6-0.8,2.2
			C72.5,109,71.2,109.9,69.9,109.9z M68.3,104.9c-0.1,0.6-0.1,1.3,0.1,1.9c0.2,0.7,0.6,1.2,1.1,1.3c0.8,0.3,1.8-0.3,2.2-1.1
			c0.3-0.4,0.4-1,0.6-1.6c0.1-0.5,0.1-1,0.1-1.6c-0.5,0-1.1,0.1-2.1,0.3C69.2,104.5,68.6,104.8,68.3,104.9z"/>
	</g>
	<g>
		<path style="fill:#E0E0E0;" d="M80.1,102.5c0,0.9,0,1.7-0.2,2.5c-0.1,0.7-0.3,1.3-0.7,1.9c-0.7,1.1-2,1.9-3.2,1.4
			c-0.8-0.3-1.4-1.1-1.6-1.9s-0.3-2.9-0.2-3.8c0,0,0.3-0.2,2.3-0.3C78.8,102.3,80.1,102.5,80.1,102.5z"/>
		<path d="M76.8,109.3c-0.3,0-0.6-0.1-1-0.2c-1-0.4-1.8-1.3-2.1-2.4c-0.3-1-0.3-3.1-0.2-4.1c0-0.3,0.2-0.5,0.4-0.6
			c0.1-0.1,0.4-0.2,2.7-0.4c2.3-0.1,3.6,0.1,3.7,0.1c0.4,0.1,0.7,0.4,0.7,0.8v0.2c0,0.8,0,1.6-0.2,2.4c-0.2,0.9-0.4,1.6-0.8,2.2
			C79.3,108.4,78.1,109.3,76.8,109.3z M75,103.4c0,0.9,0,2.3,0.2,2.8c0.2,0.7,0.6,1.2,1.1,1.3c0.8,0.3,1.8-0.3,2.2-1.1
			c0.3-0.4,0.4-1,0.6-1.6c0.1-0.5,0.1-1.1,0.1-1.6c-0.6,0-1.5-0.1-2.6,0C75.9,103.3,75.4,103.3,75,103.4z"/>
	</g>
	<path style="fill:#F2DDAB;" d="M112.9,146.2c-1.4-3.1-5-4.9-8.3-4.2s-5.8,3.9-5.8,7.2c-1.6-2.1-4.6-3.1-7.2-2.5
		c-2.6,0.7-4.7,3-5.1,5.7l3.5,4.2L112.9,146.2z"/>
	<path d="M86.5,153.3L86.5,153.3c-0.6-0.1-0.9-0.5-0.8-0.9c0.4-3,2.8-5.6,5.7-6.4c2.3-0.6,4.9,0,6.8,1.5c0.7-3,3.2-5.6,6.2-6.3
		c3.6-0.8,7.7,1.2,9.2,4.6c0.2,0.4,0,0.9-0.4,1.1c-0.4,0.2-0.9,0-1.1-0.4c-1.2-2.7-4.4-4.3-7.4-3.7c-2.9,0.6-5.2,3.5-5.1,6.4
		c0,0.4-0.2,0.7-0.6,0.8c-0.3,0.1-0.7,0-0.9-0.3c-1.5-1.9-4.1-2.8-6.3-2.2c-2.3,0.6-4.1,2.7-4.5,5C87.3,153,86.9,153.3,86.5,153.3z"
		/>
	<path style="fill:#F2DDAB;" d="M330.1,122.7c0-2.4-1.3-4.8-3.4-6s-4.8-1.2-6.9,0c0.5-2.8-1.8-5.5-4.5-6.1s-5.6,0.5-7.7,2.4
		c0.4-2.1-0.7-4.4-2.4-5.6c-1.7-1.3-4-1.6-6.2-1.3c-2,0.3-3.9,1-5.5,2.3v12.2l31.3,5.6L330.1,122.7z"/>
	<path d="M330.1,123.5L330.1,123.5c-0.5,0-0.8-0.4-0.8-0.8c0-2.1-1.2-4.3-3-5.3c-1.8-1.1-4.3-1.1-6.1,0c-0.3,0.2-0.6,0.1-0.9,0
		c-0.3-0.2-0.4-0.5-0.3-0.8c0.4-2.2-1.5-4.6-3.9-5.2c-2.2-0.5-4.9,0.4-7,2.2c-0.3,0.2-0.7,0.3-1,0.1c-0.3-0.2-0.5-0.5-0.4-0.9
		c0.3-1.7-0.5-3.7-2.1-4.8c-1.4-1-3.5-1.5-5.6-1.2c-1.8,0.2-3.6,1-5.1,2.1c-0.4,0.3-0.9,0.2-1.2-0.2c-0.3-0.4-0.2-0.9,0.2-1.2
		c1.7-1.3,3.7-2.1,5.9-2.4c2.6-0.3,5,0.2,6.8,1.5c1.6,1.1,2.6,2.8,2.8,4.6c2.2-1.5,4.7-2,7-1.5c2.8,0.6,4.9,3,5.2,5.6
		c2.1-0.8,4.5-0.6,6.5,0.6c2.4,1.4,3.9,4,3.8,6.8C330.9,123.2,330.6,123.5,330.1,123.5z"/>
	<g>
		<g>
			<path style="fill:#D8AAD4;" d="M224.5,142.8c-0.6,18.3,15.5,33.7,36.1,34.4c20.6,0.7,37.8-13.5,38.4-31.8L224.5,142.8z"/>
			<path d="M262.1,178.1c-0.5,0-1,0-1.5,0c-21-0.7-37.6-16.5-36.9-35.2v-0.8l76.2,2.7v0.8c-0.3,9.1-4.6,17.5-12,23.6
				C280.8,174.9,271.7,178.1,262.1,178.1z M225.3,143.7c-0.1,17.4,15.6,32,35.4,32.7c9.8,0.3,19-2.7,26.2-8.6
				c6.9-5.7,10.9-13.3,11.4-21.6L225.3,143.7z"/>
		</g>
		<g>
			
				<ellipse transform="matrix(3.496133e-02 -0.9994 0.9994 3.496133e-02 94.2387 411.6098)" style="fill:#A60918;" cx="260.2" cy="157" rx="10.4" ry="21.5"/>
			<path d="M261.4,168.3c-0.5,0-1.1,0-1.6,0c-5.9-0.2-11.4-1.5-15.5-3.7c-4.3-2.3-6.6-5.2-6.5-8.4c0.1-3.1,2.6-5.9,7-7.9
				c4.2-1.9,9.8-2.8,15.7-2.6c5.9,0.2,11.4,1.5,15.5,3.7c4.3,2.3,6.6,5.2,6.5,8.4c-0.1,3.1-2.6,5.9-7,7.9
				C271.7,167.4,266.7,168.3,261.4,168.3z M259,147.3c-5,0-9.7,0.9-13.4,2.5c-3.8,1.7-6,4-6.1,6.4s1.9,4.9,5.6,6.8
				c3.9,2.1,9.1,3.3,14.7,3.5s10.9-0.7,15-2.5c3.8-1.7,6-4,6.1-6.4h0.8h-0.8c0.1-2.5-1.9-4.9-5.6-6.8c-3.9-2.1-9.1-3.3-14.7-3.5
				C260,147.4,259.5,147.3,259,147.3z"/>
		</g>
		<g>
			<g>
				<path style="fill:#E0E0E0;" d="M241.2,162.8l-5.3-0.2c-1,0-1.8-0.9-1.8-1.9l0.2-5.5c0-1,0.9-1.8,1.9-1.8l5.3,0.2
					c1,0,1.8,0.9,1.8,1.9l-0.2,5.5C243.1,162,242.2,162.8,241.2,162.8z"/>
				<path d="M240.6,163.6h-0.1l0,0l-3.9-0.1c-0.9,0-1.7-0.4-2.3-1.1c-0.6-0.7-0.9-1.5-0.9-2.4l0.1-4.1c0.1-1.8,1.6-3.3,3.5-3.2
					l3.9,0.1c1.8,0.1,3.3,1.6,3.2,3.5l-0.1,4.1c0,0.9-0.4,1.7-1.1,2.3C242.3,163.2,241.5,163.6,240.6,163.6z M240.5,161.9
					c0.5,0,0.9-0.1,1.2-0.5c0.3-0.3,0.5-0.7,0.5-1.2l0.1-4.1c0-0.9-0.7-1.7-1.6-1.7l-3.9-0.1c-0.9,0-1.7,0.7-1.7,1.6L235,160
					c0,0.5,0.1,0.9,0.5,1.2c0.3,0.3,0.7,0.5,1.2,0.5L240.5,161.9z"/>
			</g>
			<g>
				<path style="fill:#E0E0E0;" d="M275.9,164l-5.3-0.2c-1,0-1.8-0.9-1.8-1.9l0.2-5.5c0-1,0.9-1.8,1.9-1.8l5.3,0.2
					c1,0,1.8,0.9,1.8,1.9l-0.2,5.5C277.7,163.2,276.9,164,275.9,164z"/>
				<path d="M275.3,164.8h-0.1l0,0l-3.9-0.1c-1.8-0.1-3.3-1.6-3.2-3.5l0.1-4.1c0-0.9,0.4-1.7,1.1-2.3s1.5-0.9,2.4-0.9l3.9,0.1
					c1.8,0.1,3.3,1.6,3.2,3.5l-0.1,4.1C278.5,163.3,277.1,164.8,275.3,164.8z M275.2,163.1c0.9,0,1.7-0.7,1.7-1.6l0.1-4.1
					c0-0.9-0.7-1.7-1.6-1.7l-3.9-0.1c-0.5,0-0.9,0.1-1.2,0.5c-0.3,0.3-0.5,0.7-0.5,1.2l-0.1,4.1c0,0.9,0.7,1.7,1.6,1.7L275.2,163.1z
					"/>
			</g>
		</g>
		<g>
			<path style="fill:#D8AAD4;" d="M297.4,118.2c0.6-17.5-14.9-33.7-34.6-34.4c-19.8-0.7-36.3,14.3-36.9,31.9l-0.6,16.8l71.6,2.5
				L297.4,118.2z"/>
			<path d="M297.6,135.8l-73.2-2.6l0.6-17.6c0.3-8.7,4.5-17.2,11.6-23.4c7.2-6.3,16.6-9.7,26.2-9.3c9.7,0.3,18.7,4.3,25.5,11.1
				c6.6,6.7,10.2,15.4,9.9,24.1L297.6,135.8z M226.1,131.6L296,134l0.6-15.9c0.3-8.2-3.2-16.6-9.4-22.9
				c-6.5-6.5-15.1-10.3-24.4-10.6c-9.3-0.3-18.2,2.8-25.1,8.9c-6.7,5.9-10.7,14-11,22.2L226.1,131.6z"/>
		</g>
		<g>
			<path style="fill:#D8AAD4;" d="M245,90.5c0,0-1.6-9.9-14.2-10.1c-12.7-0.2-3.7,13.8,4.6,16"/>
			<path d="M235.3,97.3c-0.1,0-0.1,0-0.2,0c-6-1.6-12.1-8.7-11.5-13.4c0.2-1.6,1.5-4.2,7.1-4.2c13.2,0.2,15,10.7,15,10.8
				c0.1,0.4-0.2,0.9-0.7,0.9c-0.4,0.1-0.9-0.2-0.9-0.7c-0.1-0.4-1.6-9.2-13.4-9.4c-2.2,0-5.1,0.4-5.4,2.7
				c-0.5,3.8,5.1,10.2,10.2,11.6c0.4,0.1,0.7,0.6,0.6,1C236,97,235.6,97.3,235.3,97.3z"/>
		</g>
		<g>
			<path style="fill:#7B3B76;" d="M238.1,92.7c0,0-3.5-6.7-9.9-8.7C228.2,84,228.2,90.9,238.1,92.7z"/>
			<path d="M238.1,93.5H238c-10.4-1.9-10.5-9.5-10.5-9.5c0-0.3,0.1-0.5,0.3-0.7s0.5-0.2,0.7-0.1c6.6,2.1,10.2,8.9,10.3,9.1
				c0.1,0.3,0.1,0.6-0.1,0.9C238.6,93.4,238.3,93.5,238.1,93.5z M229.3,85.3c0.5,1.7,2.1,4.7,7,6.2C235,89.6,232.6,86.8,229.3,85.3z
				"/>
		</g>
		<g>
			<path style="fill:#D8AAD4;" d="M280.1,91.8c0,0,2.3-9.7,14.9-9.1c12.7,0.7,2.7,14-5.7,15.6"/>
			<path d="M289.3,99.2c-0.4,0-0.7-0.3-0.8-0.7c-0.1-0.4,0.2-0.9,0.7-1c5.2-1,11.3-7,11-10.8c-0.2-2.4-2.9-3-5.2-3.1
				c-11.8-0.6-14,8-14.1,8.4s-0.5,0.7-1,0.6c-0.4-0.1-0.7-0.5-0.6-1c0-0.1,2.6-10.4,15.8-9.7c5.7,0.3,6.7,3.1,6.8,4.7
				c0.3,4.7-6.3,11.4-12.4,12.6C289.5,99.1,289.4,99.2,289.3,99.2z"/>
		</g>
		<g>
			<path style="fill:#D8AAD4;" d="M286.7,120.3c-0.3-0.2-1.1-0.8-2.2-1.6c0.1-0.4,0.2-0.9,0.2-1.3c0.1-3.7-2.8-6.9-6.5-7
				c-2.2-0.1-4.1,0.9-5.4,2.4c-5.8-1.7-12.1-1.7-15-1.8c-2.9-0.1-9.2-0.5-15.1,0.7c-1.2-1.6-3.1-2.7-5.2-2.8c-3.7-0.1-6.9,2.8-7,6.5
				c0,0.5,0,0.9,0.1,1.3c-1.2,0.7-2,1.2-2.3,1.4c-10.3,6.3-15.6,16.1-16,26.1l-0.2,4.3c-0.2,4.7,4,8.6,9.2,8.8
				c0,0,22.1-3.2,34.9-2.7c12.9,0.4,34.7,5.1,34.7,5.1c5.3,0.2,9.7-3.5,9.8-8.1l0.2-4.3C301.2,137.5,296.5,127.4,286.7,120.3z"/>
			<path d="M291.2,160.7c-0.1,0-0.3,0-0.4,0h-0.1c-0.2,0-21.9-4.7-34.5-5.1c-12.6-0.4-34.6,2.7-34.8,2.7h-0.1h-0.1
				c-2.7-0.1-5.3-1.1-7.2-2.9c-1.9-1.8-2.9-4.2-2.8-6.7l0.2-4.3c0.4-10.8,6.4-20.6,16.4-26.7c0.1-0.1,0.3-0.2,0.6-0.4
				c0.3-0.2,0.8-0.5,1.3-0.8c0-0.3,0-0.6,0-0.9c0.1-4.2,3.7-7.5,7.9-7.3c2.2,0.1,4.1,1.1,5.5,2.7c5.3-1.1,10.8-0.8,13.8-0.7l1.9,0.1
				c3,0.1,8.6,0.2,13.8,1.7c1.5-1.6,3.6-2.4,5.7-2.3c2,0.1,3.9,0.9,5.3,2.4s2.1,3.4,2,5.4c0,0.3,0,0.6-0.1,0.9
				c0.5,0.4,0.9,0.7,1.2,0.9c0.2,0.2,0.4,0.3,0.5,0.4l0,0c9.6,6.9,14.9,17,14.5,27.8l-0.2,4.3C301.3,156.8,296.8,160.7,291.2,160.7z
				 M291,159c4.8,0.1,8.8-3.1,8.9-7.3l0.2-4.3c0.4-10.3-4.7-19.9-13.8-26.4c-0.1-0.1-0.3-0.2-0.6-0.4c-0.4-0.3-1-0.7-1.7-1.2
				l-0.5-0.3l0.1-0.5c0.1-0.4,0.1-0.8,0.2-1.2c0.1-1.6-0.5-3.1-1.6-4.3c-1.1-1.2-2.6-1.8-4.1-1.9c-1.8-0.1-3.6,0.7-4.7,2.1l-0.3,0.4
				l-0.5-0.1c-5.1-1.5-10.8-1.7-13.8-1.7l-1.9-0.1c-3-0.1-8.7-0.4-13.9,0.8l-0.5,0.1l-0.3-0.4c-1.1-1.5-2.8-2.4-4.6-2.5
				c-0.1,0-0.1,0-0.2,0c-3.2,0-5.8,2.5-5.9,5.7c0,0.4,0,0.8,0.1,1.2l0.1,0.6l-0.5,0.3c-0.7,0.4-1.3,0.8-1.7,1.1
				c-0.3,0.2-0.5,0.3-0.6,0.4c-9.5,5.9-15.2,15.1-15.6,25.4l-0.2,4.3c-0.1,2,0.8,4,2.3,5.5c1.6,1.5,3.7,2.4,6,2.5
				c1.4-0.2,22.6-3.1,35-2.7C268.6,154.3,289.5,158.7,291,159z"/>
		</g>
		<g>
			<path style="fill:#7B3B76;" d="M286.8,94.4c0,0,4-6.4,10.4-8C297.3,86.4,296.7,93.3,286.8,94.4z"/>
			<path d="M286.8,95.2c-0.3,0-0.5-0.1-0.7-0.4s-0.2-0.6,0-0.9s4.2-6.7,10.9-8.4c0.3-0.1,0.5,0,0.7,0.2s0.3,0.4,0.3,0.7
				C298.1,86.5,297.4,94.1,286.8,95.2C286.9,95.2,286.9,95.2,286.8,95.2z M296.1,87.6c-3.4,1.3-6,4-7.4,5.7
				C293.8,92.2,295.5,89.3,296.1,87.6z"/>
		</g>
		<g>
			<circle style="fill:#7B3B76;" cx="237.2" cy="115.7" r="2.3"/>
			<path d="M237.2,118.9h-0.1c-0.8,0-1.6-0.4-2.2-1c-0.6-0.6-0.9-1.4-0.8-2.2c0-0.8,0.4-1.6,1-2.2s1.4-0.9,2.3-0.8
				c1.7,0.1,3.1,1.5,3,3.2c0,0.8-0.4,1.6-1,2.2C238.7,118.6,238,118.9,237.2,118.9z M237.2,114.3c-0.4,0-0.7,0.1-1,0.4
				s-0.5,0.6-0.5,1s0.1,0.8,0.4,1.1c0.3,0.3,0.6,0.5,1,0.5s0.8-0.1,1.1-0.4s0.5-0.6,0.5-1C238.7,115,238,114.3,237.2,114.3
				L237.2,114.3z"/>
		</g>
		<g>
			<circle style="fill:#7B3B76;" cx="277.9" cy="117.2" r="2.3"/>
			<path d="M277.9,120.3h-0.1c-0.8,0-1.6-0.4-2.2-1s-0.9-1.4-0.8-2.3c0.1-1.7,1.6-3.1,3.2-3c1.7,0.1,3.1,1.5,3,3.2
				c0,0.8-0.4,1.6-1,2.2C279.4,120,278.7,120.3,277.9,120.3z M277.9,115.7c-0.8,0-1.5,0.6-1.5,1.4s0.6,1.5,1.4,1.5s1.5-0.6,1.5-1.4
				C279.4,116.4,278.7,115.7,277.9,115.7L277.9,115.7z"/>
		</g>
		<g>
			<circle cx="241.9" cy="103.9" r="2.8"/>
			<circle cx="274" cy="105" r="2.8"/>
		</g>
		<g>
			<path style="fill:#D8AAD4;" d="M257.3,89c-1.6-1.8-1.9-4.4-1.8-6.8c0.1-1.1,0.2-2.1,0.7-3.1c0.5-0.9,1.4-1.7,2.4-1.9
				c1.1-0.2,2.3,0.4,3,1.2c0.8,0.8,1.3,1.9,1.7,2.9c0.1-1.1,0.9-2.1,2-2.6c1-0.5,2.2-0.6,3.3-0.4c0.4,0.1,0.8,0.1,1.1,0.4
				c1.1,0.8,0.7,2.5,0.9,3.9c1.5-1.1,3.7-1.6,5.2-0.5c1.2,0.9,1.5,2.6,1.1,4s-1.3,2.6-2.3,3.7"/>
			<path d="M274.6,90.7c-0.2,0-0.4-0.1-0.6-0.2c-0.3-0.3-0.3-0.8,0-1.2c0.8-0.8,1.8-2,2.1-3.3c0.3-1,0.1-2.4-0.8-3.1
				c-1.2-0.9-3-0.4-4.2,0.5c-0.2,0.2-0.5,0.2-0.8,0.1s-0.5-0.4-0.5-0.6c-0.1-0.5-0.1-0.9-0.1-1.4c0-1-0.1-1.7-0.5-2
				c-0.2-0.1-0.5-0.2-0.8-0.2c-0.8-0.1-1.9-0.2-2.9,0.3c-0.8,0.4-1.4,1.2-1.5,2c0,0.4-0.3,0.7-0.7,0.7c-0.4,0.1-0.7-0.1-0.9-0.5
				c-0.4-1-0.9-2-1.5-2.7c-0.5-0.6-1.4-1.1-2.3-1c-0.7,0.1-1.4,0.7-1.8,1.5c-0.4,0.9-0.6,1.9-0.6,2.7c-0.1,1.9,0.1,4.4,1.6,6.2
				c0.3,0.3,0.3,0.9-0.1,1.2c-0.3,0.3-0.9,0.3-1.2-0.1c-1.5-1.7-2.2-4.2-2-7.3c0.1-1,0.2-2.3,0.8-3.4c0.7-1.3,1.8-2.1,3-2.3
				c1.3-0.2,2.7,0.3,3.8,1.5c0.4,0.5,0.8,1,1.1,1.5c0.4-0.6,1-1,1.6-1.3c1.1-0.5,2.4-0.7,3.8-0.5c0.4,0.1,1,0.2,1.5,0.5
				c1.1,0.8,1.2,2.1,1.2,3.2c1.6-0.7,3.5-0.9,4.9,0.2c1.3,1,1.9,3,1.4,4.9c-0.4,1.7-1.6,3-2.6,4C275,90.6,274.8,90.7,274.6,90.7z"/>
		</g>
		<g>
			<path style="fill:#D8AAD4;" d="M240.3,100.6c0,0,2.6,2,4.7,2.7"/>
			<path d="M245,104.1c-0.1,0-0.2,0-0.3,0c-2.2-0.8-4.8-2.7-4.9-2.8c-0.4-0.3-0.4-0.8-0.2-1.2c0.3-0.4,0.8-0.4,1.2-0.2
				c0,0,2.5,1.9,4.4,2.6c0.4,0.1,0.7,0.6,0.5,1C245.6,103.8,245.3,104.1,245,104.1z"/>
		</g>
		<g>
			<path style="fill:#D8AAD4;" d="M276,102.2c0,0-2.9,1.4-5.2,1.6"/>
			<path d="M270.8,104.6c-0.4,0-0.8-0.3-0.8-0.7c0-0.5,0.3-0.9,0.7-0.9c2.1-0.2,4.9-1.5,4.9-1.5c0.4-0.2,0.9,0,1.1,0.4
				s0,0.9-0.4,1.1C276.2,103,273.3,104.3,270.8,104.6C270.9,104.6,270.8,104.6,270.8,104.6z"/>
		</g>
		<path style="fill:#F2DDAB;" d="M299.7,172.3c-15.1-12.8-25.3,4.9-25.3,4.9c-10.2-12.6-20.7,0-20.7,0c-13.5-21.8-40.4-7.2-40.4-7.2
			l-21.6,31.6l30,58.9H264h12.8l20.1-8.1l8.3-27.6l17.7-34.8L299.7,172.3z"/>
		<path d="M274.4,178c-0.2,0-0.5-0.1-0.6-0.3c-2.8-3.5-5.9-5.3-9.2-5.3c-5.8-0.1-10.2,5.3-10.3,5.3c-0.2,0.2-0.4,0.3-0.7,0.3
			s-0.5-0.2-0.6-0.4c-5.4-8.7-13.6-12.6-24.4-11.4c-8.2,0.9-14.8,4.4-14.9,4.5c-0.4,0.2-0.9,0.1-1.1-0.3c-0.2-0.4-0.1-0.9,0.3-1.1
			c0.3-0.1,27-14.3,40.9,6.6c1.6-1.6,5.7-5.1,10.7-5.1h0.1c3.5,0,6.8,1.7,9.7,5c1.5-2.2,5.8-7.6,12.2-8.7c4.5-0.8,9.2,0.8,13.8,4.6
			c0.3,0.3,0.4,0.8,0.1,1.2s-0.8,0.4-1.2,0.1c-4.2-3.5-8.4-5-12.4-4.3c-7.1,1.2-11.6,8.8-11.7,8.9C275,177.8,274.8,178,274.4,178
			C274.5,178,274.5,178,274.4,178z"/>
	</g>
	<g>
		<g>
			<path style="fill:#A8A8A8;" d="M129.5,259.3c0,0-40.5,20.2-48,23.5c-1,0.4-2.1,0.9-2.8,1.8c-2,2.7,1.9,10.8,3.4,13.2
				c1.8,3,5.4,8.9,8.9,11.6c1,0.8,2.3,0.9,3.4,0.5c1.2-0.5,2.8-1.1,3.7-1.7c1.7-1.1,41.2-25.5,41.2-25.5L129.5,259.3z"/>
			<path d="M93.2,311c-1,0-1.9-0.3-2.7-0.9c-3.5-2.7-7.1-8.5-9-11.6l-0.1-0.2c-0.1-0.1-6.1-10.4-3.4-14.1c0.8-1,1.9-1.6,3.1-2.1
				c7.8-3.4,47.7-23.3,48-23.5l0.4,0.7l0.8-0.3l10.1,24.1l-0.6,0.4c0,0-39.5,24.4-41.2,25.5c-0.8,0.5-2.1,1.1-3.9,1.8
				C94.2,310.9,93.7,311,93.2,311z M129.1,260.4c-1,0.6-2.7,1.4-5.6,2.9c-3.9,2-9.2,4.6-14.8,7.3c-10.1,5-22.9,11.2-26.9,13
				c-1,0.4-1.9,0.9-2.4,1.6c-1.5,2,1.5,9,3.4,12.3l0.1,0.2c1.9,3,5.3,8.6,8.6,11.2c0.7,0.6,1.7,0.7,2.6,0.4c1.6-0.6,2.9-1.2,3.6-1.6
				c1.6-1,35.6-22,40.6-25.1L129.1,260.4z"/>
		</g>
		<g>
			<path style="fill:#E0E0E0;" d="M80.4,293.6c0.9-0.6,1.9-1.1,2.7-1.9c0.7-0.6,1.3-1.2,1.7-1.9c0.8-1.4,0.9-3.2-0.3-4.1
				c-0.8-0.6-2-0.6-3.1-0.3c-1.1,0.3-2,1-2.9,1.6c0,0-0.3,1,0.4,3.3C79.6,292.7,80.4,293.6,80.4,293.6z"/>
			<path d="M80.4,294.4c-0.2,0-0.5-0.1-0.6-0.3c-0.1-0.1-0.9-1.1-1.6-3.6s-0.4-3.6-0.4-3.8c0.1-0.2,0.2-0.3,0.3-0.4
				c0.9-0.7,2-1.4,3.2-1.8c1.4-0.4,2.9-0.3,3.8,0.4c1.6,1.2,1.5,3.6,0.5,5.2c-0.4,0.7-1.1,1.4-1.9,2.1s-1.7,1.2-2.6,1.8l-0.3,0.2
				C80.7,294.4,80.5,294.4,80.4,294.4z M79.3,287.5c0,0.4,0,1.2,0.4,2.6c0.3,1.1,0.7,1.9,0.9,2.3c0.7-0.4,1.3-0.8,2-1.4
				s1.2-1.2,1.6-1.7c0.6-1,0.8-2.4-0.1-3c-0.5-0.4-1.4-0.5-2.3-0.2C80.9,286.4,80.1,286.9,79.3,287.5z"/>
		</g>
		<g>
			<path style="fill:#E0E0E0;" d="M84.8,302.2c0.9-0.6,1.9-1.2,2.9-1.6c0.8-0.3,1.6-0.6,2.5-0.7c1.6-0.1,3.3,0.6,3.6,2.1
				c0.2,1-0.3,2.1-1.1,2.9c-0.8,0.8-2.8,2.1-3.8,2.6c0,0-0.7-0.2-2.1-2.4C85.5,303.1,84.8,302.2,84.8,302.2z"/>
			<path d="M88.9,308.3c-0.1,0-0.2,0-0.3,0c-0.3-0.1-1.1-0.6-2.6-2.7c-1.3-2-1.9-2.9-1.9-2.9c-0.1-0.2-0.2-0.4-0.1-0.6
				c0-0.2,0.2-0.4,0.4-0.5l0.3-0.2c0.8-0.5,1.7-1.1,2.7-1.5s1.9-0.7,2.8-0.7c1.8-0.2,4.1,0.8,4.4,2.8c0.2,1.2-0.3,2.5-1.3,3.6
				c-0.9,0.9-3.1,2.3-4,2.8C89.2,308.3,89,308.3,88.9,308.3z M86,302.4c0.3,0.5,0.8,1.2,1.5,2.2c0.7,1.1,1.2,1.6,1.5,1.9
				c1-0.6,2.5-1.6,3.1-2.2c0.7-0.7,1-1.5,0.9-2.2c-0.2-1-1.5-1.5-2.7-1.4c-0.7,0.1-1.4,0.3-2.2,0.6C87.3,301.7,86.7,302,86,302.4z"
				/>
		</g>
		<g>
			<path style="fill:#E0E0E0;" d="M84,300.7c0.9-0.6,1.9-1.1,2.7-1.9c0.7-0.6,1.3-1.2,1.7-1.9c0.8-1.4,0.9-3.2-0.3-4.1
				c-0.8-0.6-2-0.6-3.1-0.3c-1.1,0.3-3.4,1.7-4.3,2.4c0,0,0,0.4,1.1,2.5C83,299.6,84,300.7,84,300.7z"/>
			<path d="M84,301.5c-0.2,0-0.5-0.1-0.6-0.3c0,0-1-1.2-2.2-3.5S80,295,80,294.8c0-0.3,0.1-0.5,0.3-0.7c1-0.7,3.4-2.1,4.6-2.5
				c1.4-0.4,2.9-0.3,3.8,0.4c1.6,1.2,1.5,3.6,0.5,5.2c-0.4,0.7-1.1,1.4-1.9,2.1s-1.7,1.2-2.5,1.8l-0.3,0.2
				C84.3,301.5,84.1,301.5,84,301.5z M81.7,295.2c0.1,0.3,0.4,0.9,0.8,1.8c0.6,1.3,1.2,2.1,1.6,2.7c0.7-0.4,1.4-0.9,2-1.4
				c0.7-0.6,1.2-1.2,1.6-1.7c0.6-1,0.8-2.4-0.1-3c-0.5-0.4-1.4-0.5-2.3-0.2C84.5,293.5,82.8,294.5,81.7,295.2z"/>
		</g>
	</g>
	<path style="fill:#F2DDAB;" d="M147.9,284.9c-4.4,1-9.4,0.8-13.2-1.7c-3.8-2.6-5.8-7.9-3.6-11.9c-3.5,0.6-7.3-1.2-9.4-4.1
		s-2.8-6.7-2.3-10.3l14.1-2.4L147.9,284.9z"/>
	<path d="M142.9,286.3c-2.8,0-5.9-0.6-8.7-2.4c-3.5-2.4-5.9-7.3-4.5-11.6c-3.2,0-6.7-1.7-8.7-4.6c-2.1-2.9-3-6.8-2.4-10.9
		c0.1-0.5,0.5-0.8,0.9-0.7c0.5,0.1,0.8,0.5,0.7,0.9c-0.5,3.6,0.3,7.1,2.1,9.7c2,2.8,5.5,4.3,8.6,3.8c0.3-0.1,0.6,0.1,0.8,0.3
		c0.2,0.3,0.2,0.6,0.1,0.9c-2,3.7,0.1,8.6,3.4,10.8c4.3,2.9,9.7,2.3,12.5,1.6c0.4-0.1,0.9,0.2,1,0.6s-0.2,0.9-0.6,1
		C146.8,286,145,286.3,142.9,286.3z"/>
	<g>
		<g>
			<path style="fill:#D8AAD4;" d="M312.9,240.4c0,0,40.5,20.2,48,23.5c1,0.4,2.1,0.9,2.8,1.8c2,2.7-1.9,10.8-3.4,13.2
				c-1.8,3-5.4,8.9-8.9,11.6c-1,0.8-2.3,0.9-3.4,0.5c-1.2-0.5-2.8-1.1-3.7-1.7c-1.7-1.1-41.2-25.5-41.2-25.5L312.9,240.4z"/>
			<path d="M349.3,292.1c-0.5,0-1.1-0.1-1.6-0.3c-1.8-0.7-3.1-1.2-3.9-1.8c-1.7-1.1-41.2-25.5-41.2-25.5l-0.6-0.4l10.1-24.1l0.8,0.3
				l0.4-0.7c0.2,0.1,40.2,20.1,48,23.5c1.2,0.5,2.3,1.1,3.1,2.1c2.8,3.7-3.3,14-3.4,14.1l-0.1,0.2c-1.9,3.1-5.5,8.9-9,11.6
				C351.2,291.8,350.3,292.1,349.3,292.1z M304.1,263.5c5,3.1,39,24.1,40.6,25.1c0.7,0.4,2,1,3.6,1.6c0.9,0.3,1.9,0.2,2.6-0.4
				c3.3-2.6,6.7-8.2,8.6-11.2l0.1-0.2c2-3.2,4.9-10.3,3.4-12.3c-0.5-0.7-1.5-1.2-2.4-1.6c-4-1.7-16.8-8-26.9-13
				c-5.5-2.7-10.8-5.4-14.8-7.3c-2.9-1.5-4.6-2.3-5.6-2.9L304.1,263.5z"/>
		</g>
		<g>
			<path style="fill:#E0E0E0;" d="M362.1,274.7c-0.9-0.6-1.9-1.1-2.7-1.9c-0.7-0.6-1.3-1.2-1.7-1.9c-0.8-1.4-0.9-3.2,0.3-4.1
				c0.8-0.6,2-0.6,3.1-0.3s2,1,2.9,1.6c0,0,0.3,1-0.4,3.3S362.1,274.7,362.1,274.7z"/>
			<path d="M362.1,275.5c-0.1,0-0.3,0-0.4-0.1l-0.3-0.2c-0.9-0.5-1.7-1.1-2.6-1.8c-0.8-0.7-1.5-1.4-1.9-2.1c-1-1.6-1.1-4,0.5-5.2
				c1-0.7,2.4-0.9,3.8-0.4c1.2,0.4,2.2,1.1,3.2,1.8c0.1,0.1,0.3,0.3,0.3,0.4c0.1,0.2,0.3,1.3-0.4,3.8c-0.7,2.5-1.5,3.5-1.6,3.6
				C362.5,275.4,362.3,275.5,362.1,275.5z M359.6,267.1c-0.5,0-0.9,0.1-1.2,0.4c-0.8,0.6-0.7,2-0.1,3c0.3,0.6,0.9,1.1,1.6,1.7
				c0.6,0.5,1.3,0.9,2,1.4c0.2-0.5,0.6-1.2,0.9-2.3c0.4-1.4,0.4-2.3,0.4-2.6c-0.7-0.5-1.6-1-2.4-1.3
				C360.3,267.1,359.9,267.1,359.6,267.1z"/>
		</g>
		<g>
			<path style="fill:#E0E0E0;" d="M357.6,283.3c-0.9-0.6-1.9-1.2-2.9-1.6c-0.8-0.3-1.6-0.6-2.5-0.7c-1.6-0.1-3.3,0.6-3.6,2.1
				c-0.2,1,0.3,2.1,1.1,2.9c0.8,0.8,2.8,2.1,3.8,2.6c0,0,0.7-0.2,2.1-2.4C357,284.2,357.6,283.3,357.6,283.3z"/>
			<path d="M353.5,289.4c-0.1,0-0.3,0-0.4-0.1c-1-0.5-3.1-1.8-4-2.8c-1-1.1-1.5-2.4-1.3-3.6c0.4-2,2.6-2.9,4.4-2.8
				c0.8,0.1,1.8,0.3,2.8,0.7c1,0.4,1.9,1,2.7,1.5l0.3,0.2c0.2,0.1,0.3,0.3,0.4,0.5c0,0.2,0,0.5-0.1,0.6c0,0-0.6,0.9-1.9,2.9
				c-1.4,2.2-2.3,2.6-2.6,2.7C353.7,289.4,353.6,289.4,353.5,289.4z M351.9,281.8c-1.1,0-2.2,0.5-2.4,1.4c-0.1,0.6,0.2,1.5,0.9,2.2
				c0.6,0.6,2.1,1.6,3.1,2.2c0.3-0.2,0.8-0.8,1.5-1.9c0.7-1,1.1-1.7,1.5-2.2c-0.7-0.4-1.3-0.8-2.1-1.1c-0.8-0.4-1.6-0.6-2.2-0.6
				C352,281.8,352,281.8,351.9,281.8z"/>
		</g>
		<g>
			<path style="fill:#E0E0E0;" d="M358.5,281.8c-0.9-0.6-1.9-1.1-2.7-1.9c-0.7-0.6-1.3-1.2-1.7-1.9c-0.8-1.4-0.9-3.2,0.3-4.1
				c0.8-0.6,2-0.6,3.1-0.3s3.4,1.7,4.3,2.4c0,0,0,0.4-1.1,2.5C359.4,280.7,358.5,281.8,358.5,281.8z"/>
			<path d="M358.5,282.6c-0.1,0-0.3,0-0.4-0.1l-0.3-0.2c-0.8-0.5-1.7-1.1-2.6-1.8c-0.8-0.7-1.5-1.4-1.9-2.1c-1-1.6-1.1-4,0.5-5.2
				c0.9-0.7,2.4-0.9,3.8-0.4c1.2,0.4,3.6,1.8,4.6,2.5c0.2,0.2,0.3,0.4,0.3,0.7c0,0.1,0,0.6-1.2,2.9s-2.2,3.5-2.2,3.6
				C358.9,282.5,358.7,282.6,358.5,282.6z M356,274.2c-0.5,0-0.9,0.1-1.2,0.4c-0.8,0.6-0.7,2-0.1,3c0.3,0.6,0.9,1.1,1.6,1.7
				c0.6,0.5,1.3,1,2,1.4c0.4-0.5,0.9-1.4,1.6-2.7c0.5-0.9,0.7-1.4,0.8-1.8c-1-0.7-2.8-1.6-3.6-1.9
				C356.7,274.2,356.4,274.2,356,274.2z"/>
		</g>
	</g>
	<path style="fill:#F2DDAB;" d="M324.5,240.2c1,4.4,0.8,9.4-1.8,13.1s-7.9,5.7-11.9,3.6c0.6,3.5-1.3,7.2-4.2,9.4
		c-2.9,2.1-6.7,2.7-10.3,2.2l-2.3-14.2l16.7-22.5L324.5,240.2z"/>
	<path d="M298.7,269.5c-0.8,0-1.7-0.1-2.5-0.2c-0.5-0.1-0.8-0.5-0.7-0.9c0.1-0.5,0.5-0.7,0.9-0.7c3.6,0.5,7.1-0.2,9.7-2
		c2.8-2,4.4-5.5,3.8-8.6c-0.1-0.3,0.1-0.6,0.3-0.8c0.3-0.2,0.6-0.2,0.9,0c3.7,2,8.6-0.1,10.9-3.3c2.9-4.3,2.3-9.7,1.7-12.5
		c-0.1-0.4,0.2-0.9,0.6-1s0.9,0.2,1,0.6c0.7,3.1,1.3,9-2,13.8c-2.4,3.5-7.3,5.9-11.7,4.4c0,3.3-1.7,6.6-4.6,8.7
		C304.8,268.6,301.8,269.5,298.7,269.5z"/>
	<g>
		<path style="fill:#FFFFFF;" d="M255,199.6c-2.5,2.3-2.3,6.6-0.3,9.4c2,2.8,5.2,4.5,8.3,5.8c-3.2,1.5-5.1,5.5-4.2,9s4.3,6.1,7.9,6
			s7-2.6,8-6c2.2,1.4,4.9,2.2,7.6,2c3.2-0.2,6.5-1.8,7.9-4.7s0-7-3.1-7.9c3.2-0.6,4.7-4.8,3.1-7.7s-5.2-3.7-8.3-3.1
			c1.7-8.4-11.7-5.7-13.1,0.8C265.7,199.8,259.5,195.5,255,199.6z"/>
		<path d="M266.8,230.8c-4,0-7.7-2.9-8.7-6.7c-0.9-3.3,0.5-7,3.2-9.1c-2.7-1.2-5.5-2.9-7.2-5.5c-2.1-3-2.5-7.8,0.4-10.5l0,0
			c1.5-1.4,3.2-2,5.2-1.9c3.2,0.2,6.6,2.4,9,4.7c1.8-3.7,7.1-6,10.7-5.2c2.5,0.5,3.8,2.4,3.7,5c2.9-0.2,6.3,0.6,8,3.7
			c0.9,1.7,1,3.9,0.1,5.8c-0.5,1-1.2,1.8-2,2.4c0.8,0.6,1.4,1.4,1.8,2.3c0.9,1.9,0.9,4.1,0.1,5.9c-1.4,3-4.7,5-8.6,5.2
			c-2.5,0.1-5-0.4-7.2-1.6C273.8,228.4,270.4,230.7,266.8,230.8L266.8,230.8z M255.6,200.2L255.6,200.2c-2.3,2.1-1.9,6-0.2,8.4
			c1.9,2.7,4.9,4.2,8,5.5c0.3,0.1,0.5,0.4,0.5,0.7s-0.2,0.6-0.5,0.8c-2.8,1.3-4.5,4.9-3.7,8c0.8,3,3.9,5.4,7.1,5.4l0,0
			c3.2,0,6.3-2.4,7.2-5.4c0.1-0.2,0.3-0.4,0.5-0.5s0.5-0.1,0.7,0.1c2.1,1.4,4.6,2,7.1,1.9c3.2-0.2,6.1-1.8,7.2-4.2
			c0.6-1.3,0.6-3-0.1-4.5c-0.5-1.2-1.4-2-2.5-2.3c-0.4-0.1-0.6-0.4-0.6-0.8c0-0.4,0.3-0.7,0.7-0.8c1.1-0.2,2-1,2.6-2.2
			c0.7-1.4,0.6-3,0-4.2c-1.5-2.7-4.9-3.2-7.4-2.7c-0.3,0.1-0.5,0-0.7-0.2s-0.3-0.5-0.2-0.7c0.5-2.3-0.3-3.7-2.2-4.1
			c-3.3-0.7-8.5,1.8-9.3,5.3c-0.1,0.3-0.3,0.5-0.6,0.6c-0.3,0.1-0.6,0-0.8-0.2c-2.1-2.4-5.5-5-8.7-5.1
			C258.1,198.7,256.7,199.2,255.6,200.2z"/>
	</g>
	<g>
		<path style="fill:#FFFFFF;" d="M177.6,85.8c-2.1-0.9-4.4-0.9-6.7-0.9c-0.8,0-1.6,0-2.3,0.3c-1.3,0.5-2.1,1.7-2.7,2.9
			c-0.8,1.6-1.3,3.5-1.1,5.3s1.4,3.6,3.1,4.2c-3.8,0.1-6.9,4.4-5.9,8.1s5.9,5.7,9.2,3.9c-0.8,1.6-0.3,3.7,1,5s3.2,1.8,5,1.8
			c2,0,4.1-0.6,5.7-2c1.5-1.4,2.4-3.5,2-5.5c2.7,2.4,7.6,1.5,9.4-1.6s0.1-7.7-3.4-8.9c2.6-0.7,4.2-3.7,3.6-6.3
			c-0.6-2.6-3.1-4.6-5.8-4.8c-2.8-0.2-4.8,1.4-7,2.7C180.7,88.2,179.5,86.6,177.6,85.8z"/>
		<path d="M177.3,117.2C177.3,117.2,177.2,117.2,177.3,117.2c-2.3,0-4.3-0.7-5.6-2c-1.2-1.1-1.8-2.7-1.7-4.2
			c-1.5,0.3-3.1,0.2-4.6-0.4c-2.1-0.9-3.7-2.6-4.2-4.5c-0.5-2-0.1-4.2,1.3-6.1c0.9-1.2,2-2.1,3.3-2.6c-1-0.9-1.6-2.3-1.8-3.7
			c-0.2-1.8,0.2-3.7,1.2-5.8c0.9-1.8,1.9-2.8,3.1-3.3c0.9-0.3,1.9-0.3,2.6-0.3c2.5,0,4.8,0.1,7,1l0,0c1.6,0.7,3,1.9,4.1,3.7
			c0.2-0.1,0.4-0.2,0.6-0.3c1.8-1.1,3.7-2.3,6.2-2c3.1,0.3,5.8,2.6,6.5,5.4c0.6,2.5-0.6,5.1-2.6,6.5c1.1,0.8,2,2,2.6,3.4
			c0.8,2,0.7,4.2-0.3,5.9c-1,1.7-2.8,2.9-4.9,3.3c-1.5,0.3-3,0.1-4.3-0.5c-0.1,1.7-1,3.4-2.3,4.6
			C181.9,116.4,179.7,117.2,177.3,117.2z M171.2,108.7c0.2,0,0.4,0.1,0.6,0.2c0.3,0.3,0.3,0.7,0.2,1c-0.6,1.2-0.3,2.9,0.9,4
			c1,1,2.6,1.5,4.4,1.6c2,0,3.8-0.6,5.1-1.8c1.4-1.2,2.1-3.1,1.7-4.7c-0.1-0.3,0.1-0.7,0.4-0.9c0.3-0.2,0.7-0.1,1,0.1
			c1.1,1,2.7,1.3,4.4,1.1c1.6-0.3,3-1.2,3.8-2.5c0.7-1.3,0.8-2.9,0.2-4.5c-0.6-1.5-1.8-2.8-3.1-3.2c-0.3-0.1-0.6-0.4-0.6-0.8
			s0.3-0.7,0.6-0.8c2.1-0.6,3.5-3.1,3-5.3c-0.5-2.2-2.6-4-5-4.2c-2-0.2-3.6,0.8-5.2,1.8c-0.4,0.3-0.9,0.5-1.3,0.8
			c-0.2,0.1-0.4,0.1-0.6,0.1c-0.2-0.1-0.4-0.2-0.5-0.4c-1-1.9-2.2-3.1-3.7-3.7l0,0c-1.9-0.8-4-0.9-6.3-0.9c-0.7,0-1.4,0-2,0.2
			c-0.8,0.3-1.6,1.1-2.2,2.5c-0.9,1.8-1.2,3.4-1,4.8c0.2,1.6,1.3,3.1,2.6,3.6c0.4,0.1,0.6,0.5,0.5,0.9s-0.4,0.7-0.8,0.7
			c-1.5,0.1-3.1,0.9-4.1,2.4c-1,1.4-1.4,3.2-1,4.7s1.6,2.8,3.3,3.5c1.6,0.7,3.4,0.6,4.8-0.1C170.9,108.8,171.1,108.7,171.2,108.7z"
			/>
	</g>
	<g>
		<path style="fill:#FFFFFF;" d="M172.7,259.1c-0.9-0.1-1.8,0.1-2.8,0.5c-1.4,0.6-2.3,2.1-2.6,3.7c-0.3,1.5-0.1,3.1,0.1,4.7
			c-1.7-1.4-4.5-1-6,0.6s-1.7,4.2-0.7,6.2s3.1,3.2,5.3,3.5c-3,2.5-3.1,7.6-0.3,10.3s7.9,2.2,10.3-0.9c2.7,3.3,8.2,3.5,11.2,0.6
			c3-3,2.7-8.6-0.6-11.2c1.9-0.7,3.4-2.4,3.9-4.4c0.4-2-0.2-4.2-1.6-5.6c-1.8-2.7-6.1-1.3-8.5-0.7c-0.2,0.1-0.5,0.1-0.7,0
			c-0.5-0.1-0.6-0.7-0.8-1.1C177.9,262.2,175.7,259.4,172.7,259.1z"/>
		<path d="M181.9,291.1c-0.2,0-0.3,0-0.5,0c-2.1-0.1-4-0.9-5.4-2.2c-1.2,1.2-3,2-4.9,2.2c-2.3,0.2-4.4-0.5-5.9-1.9s-2.3-3.5-2.3-5.8
			c0-1.7,0.6-3.3,1.5-4.6c-1.9-0.6-3.6-1.9-4.5-3.6c-1.2-2.3-0.9-5.3,0.8-7.1c1.4-1.5,3.7-2.1,5.6-1.5c-0.1-1.1-0.1-2.3,0.1-3.4
			c0.4-2,1.6-3.6,3.1-4.3c1.1-0.5,2.2-0.7,3.2-0.6c3.5,0.3,5.9,3.5,6.9,6.6c0.1,0.3,0.2,0.5,0.3,0.6c0,0,0.2,0,0.3-0.1
			c0.3-0.1,0.6-0.1,0.9-0.2c2.6-0.6,6.5-1.6,8.5,1.2c1.6,1.6,2.3,4.1,1.8,6.3c-0.4,1.8-1.6,3.5-3.2,4.5c1.2,1.4,1.9,3.2,2,5.2
			c0.1,2.5-0.7,4.8-2.3,6.4C186.3,290.3,184.2,291.1,181.9,291.1z M176,286.8c0.2,0,0.5,0.1,0.6,0.3c1.1,1.4,2.9,2.2,4.9,2.3
			c2,0.1,3.8-0.6,5.1-1.8c1.3-1.3,1.9-3.1,1.8-5.1c-0.1-2-1-3.8-2.3-4.9c-0.2-0.2-0.3-0.5-0.3-0.8s0.2-0.5,0.5-0.6
			c1.7-0.6,3-2.1,3.3-3.8c0.4-1.7-0.2-3.6-1.4-4.9l-0.1-0.1c-1.3-1.9-4.4-1.2-6.8-0.6c-0.3,0.1-0.6,0.2-0.9,0.2
			c-0.3,0.1-0.7,0.1-1.1,0c-0.9-0.3-1.2-1.2-1.3-1.7c-0.8-2.5-2.7-5.2-5.4-5.4l0,0c-0.8-0.1-1.6,0.1-2.4,0.4
			c-1.2,0.5-1.9,1.9-2.2,3.1c-0.3,1.4-0.1,2.9,0.1,4.4c0,0.3-0.1,0.7-0.4,0.8c-0.3,0.2-0.7,0.1-0.9-0.1c-1.4-1.1-3.6-0.8-4.9,0.5
			c-1.2,1.3-1.4,3.5-0.5,5.2c0.9,1.6,2.7,2.8,4.7,3.1c0.3,0,0.6,0.3,0.7,0.6c0.1,0.3,0,0.7-0.3,0.9c-1.2,1-2,2.7-2,4.5
			s0.6,3.5,1.8,4.6s2.9,1.6,4.7,1.5c1.8-0.2,3.4-1,4.4-2.3C175.5,287,175.7,286.8,176,286.8L176,286.8z"/>
	</g>
	<g>
		<path style="fill:#FFD400;" d="M224.1,234.5l2.4,5.7c0.2,0.4,0.4,0.6,0.8,0.8l5.7,2.2c1,0.4,1.2,1.7,0.4,2.4l-4.6,4.1
			c-0.3,0.3-0.5,0.6-0.5,1l-0.3,6.2c-0.1,1.1-1.2,1.7-2.2,1.2l-5.3-3.1c-0.3-0.2-0.7-0.3-1.1-0.1l-5.9,1.7c-1,0.3-2-0.6-1.8-1.7
			l1.4-6c0.1-0.4,0-0.8-0.2-1.1l-3.4-5.2c-0.6-0.9,0-2.1,1.1-2.2l6.1-0.6c0.4,0,0.7-0.2,1-0.5l3.8-4.8
			C222.4,233.3,223.7,233.5,224.1,234.5z"/>
		<path d="M222.8,233.6c0.5,0,1.1,0.3,1.3,0.9l2.4,5.7c0.2,0.4,0.4,0.6,0.8,0.8l5.7,2.2c1,0.4,1.2,1.7,0.4,2.4l-4.6,4.1
			c-0.3,0.3-0.5,0.6-0.5,1l-0.3,6.2c0,0.8-0.7,1.4-1.4,1.4c-0.2,0-0.5-0.1-0.7-0.2l-5.3-3.1c-0.2-0.1-0.5-0.2-0.7-0.2
			c-0.1,0-0.3,0-0.4,0.1l-5.9,1.7c-0.1,0-0.3,0.1-0.4,0.1c-0.9,0-1.6-0.8-1.4-1.8l1.4-6c0.1-0.4,0-0.8-0.2-1.1l-3.4-5.2
			c-0.6-0.9,0-2.1,1.1-2.2l6.1-0.6c0.4,0,0.7-0.2,1-0.5l3.8-4.8C222,233.8,222.4,233.6,222.8,233.6 M222.8,232L222.8,232
			c-0.9,0-1.8,0.4-2.4,1.2l-3.8,4.8l-6,0.6c-1.1,0.1-2,0.8-2.5,1.7c-0.5,1-0.4,2.1,0.2,3l3.3,5.1l-1.3,6c-0.2,0.9,0,1.9,0.6,2.6
			c0.6,0.7,1.5,1.2,2.4,1.2c0.3,0,0.6,0,0.8-0.1l5.8-1.6l5.2,3.1c0.5,0.3,1,0.4,1.6,0.4c1.7,0,3-1.3,3.1-3l0.3-6.1l4.5-4
			c0.8-0.7,1.2-1.8,1-2.9c-0.2-1.1-0.9-1.9-1.9-2.3l-5.6-2.1l-2.4-5.6C225.2,232.7,224,232,222.8,232L222.8,232z"/>
	</g>
	<g>
		<path style="fill:#FFD400;" d="M75.5,173.8l5.3,3.2c0.3,0.2,0.7,0.3,1.1,0.2l5.9-1.6c1-0.3,2,0.7,1.8,1.7l-1.3,6
			c-0.1,0.4,0,0.8,0.2,1.1l3.4,5.2c0.6,0.9,0,2.1-1,2.2l-6.1,0.5c-0.4,0-0.7,0.2-1,0.5l-3.8,4.8c-0.7,0.8-2,0.7-2.4-0.3l-2.5-5.7
			c-0.2-0.4-0.5-0.6-0.8-0.8l-5.8-2.2c-1-0.4-1.3-1.7-0.5-2.4l4.6-4.1c0.3-0.3,0.5-0.6,0.5-1l0.2-6.2
			C73.4,173.9,74.6,173.2,75.5,173.8z"/>
		<path d="M74.8,173.6c0.2,0,0.5,0.1,0.7,0.2l5.3,3.2c0.2,0.1,0.5,0.2,0.7,0.2c0.1,0,0.3,0,0.4-0.1l5.9-1.6c0.1,0,0.3-0.1,0.4-0.1
			c0.9,0,1.6,0.8,1.4,1.8l-1.3,6c-0.1,0.4,0,0.8,0.2,1.1l3.4,5.2c0.6,0.9,0,2.1-1,2.2l-6.1,0.5c-0.4,0-0.7,0.2-1,0.5l-3.8,4.8
			c-0.3,0.4-0.7,0.5-1.1,0.5c-0.5,0-1.1-0.3-1.3-0.9l-2.5-5.7c-0.2-0.4-0.5-0.6-0.8-0.8l-5.8-2.2c-1-0.4-1.3-1.7-0.5-2.4l4.6-4.1
			c0.3-0.3,0.5-0.6,0.5-1l0.2-6.2C73.4,174.1,74,173.6,74.8,173.6 M74.8,171.9L74.8,171.9c-1.7,0-3,1.3-3.1,3l-0.2,6.1l-4.5,4
			c-0.8,0.7-1.2,1.8-1,2.9c0.2,1.1,0.9,2,1.9,2.3l5.7,2.2L76,198c0.5,1.1,1.6,1.9,2.8,1.9c0.9,0,1.8-0.4,2.4-1.2l3.7-4.7l6-0.5
			c1.1-0.1,2-0.7,2.5-1.7s0.4-2.1-0.2-3.1l-3.4-5.1l1.3-5.9c0.2-0.9,0-1.9-0.6-2.6c-0.6-0.7-1.5-1.2-2.4-1.2c-0.3,0-0.6,0-0.8,0.1
			l-5.8,1.6l-5.2-3.1C75.9,172.1,75.3,171.9,74.8,171.9L74.8,171.9z"/>
	</g>
	<g>
		<path style="fill:#FFD400;" d="M331.5,170.1l1.8,5.9c0.1,0.4,0.4,0.7,0.7,0.9l5.5,2.7c1,0.5,1.1,1.8,0.2,2.5l-5,3.6
			c-0.3,0.2-0.5,0.6-0.6,1l-0.9,6.1c-0.2,1.1-1.4,1.6-2.3,1L326,190c-0.3-0.2-0.7-0.3-1.1-0.3l-6,1c-1.1,0.2-1.9-0.8-1.6-1.9l2-5.9
			c0.1-0.4,0.1-0.8-0.1-1.1l-2.8-5.5c-0.5-1,0.2-2.1,1.3-2.1h6.1c0.4,0,0.8-0.2,1-0.4l4.3-4.4C329.9,168.8,331.2,169.1,331.5,170.1z
			"/>
		<path d="M330.2,169.1c0.6,0,1.2,0.4,1.4,1l1.8,5.9c0.1,0.4,0.4,0.7,0.7,0.9l5.5,2.7c1,0.5,1.1,1.8,0.2,2.5l-5,3.6
			c-0.3,0.2-0.5,0.6-0.6,1l-0.9,6.1c-0.1,0.8-0.8,1.2-1.4,1.2c-0.3,0-0.6-0.1-0.8-0.3L326,190c-0.2-0.2-0.5-0.3-0.8-0.3
			c-0.1,0-0.2,0-0.2,0l-6,1c-0.1,0-0.2,0-0.2,0c-0.9,0-1.7-0.9-1.3-1.9l2-5.9c0.1-0.4,0.1-0.8-0.1-1.1l-2.8-5.5
			c-0.5-1,0.2-2.1,1.3-2.1l0,0h6.1l0,0c0.4,0,0.8-0.2,1-0.4l4.3-4.4C329.4,169.2,329.8,169.1,330.2,169.1 M330.2,167.5
			c-0.8,0-1.6,0.3-2.2,0.9l-4.2,4.4h-6c-1.1,0-2.1,0.6-2.7,1.5s-0.6,2.1-0.1,3l2.8,5.4l-1.9,5.8c-0.3,0.9-0.2,2,0.4,2.8
			s1.5,1.3,2.5,1.3c0.2,0,0.3,0,0.5,0l5.9-1l4.8,3.6c0.5,0.4,1.2,0.6,1.8,0.6c1.5,0,2.8-1.1,3.1-2.6l0.9-6l4.9-3.5
			c0.9-0.6,1.4-1.7,1.3-2.8s-0.7-2-1.7-2.5l-5.4-2.7l-1.8-5.8C332.7,168.3,331.5,167.5,330.2,167.5L330.2,167.5z"/>
	</g>
	<g>
		<g>
			<path style="fill:#A60918;" d="M139.2,210.5l20.9,8.2l20.9-6.8l5.2-17c-1.8-0.8-12.1-5.1-26.1-3.8h0c-13.9-1.3-24.2,2.9-26.1,3.8
				L139.2,210.5z"/>
			<path d="M160,219.7l-21.6-8.5l-5.6-16.9l0.8-0.3c1.9-0.9,12.4-5.2,26.5-3.9c14.1-1.3,24.5,3,26.5,3.9l0.8,0.3l-5.6,18.3
				L160,219.7z M139.9,209.7l20.2,7.9l20.1-6.6l4.8-15.7c-3.1-1.3-12.5-4.5-24.8-3.3H160h0c-12.3-1.2-21.7,2.1-24.8,3.3L139.9,209.7
				z"/>
		</g>
		<ellipse style="fill:#E85C61;" cx="160.7" cy="217" rx="16.9" ry="10.1"/>
	</g>
	<g>
		<g>
			<path style="fill:#A8A8A8;" d="M132.7,208.8c-1.5,0.7-2.4,1.9-1.5,3.7c1.5,3,4.8,5.7,7.5,7.6c6,4.3,13.4,6.2,20.8,6.2
				c7.4,0,14.9-2,20.9-6.3c2.1-1.5,6.8-4.8,7.2-7.7c0.4-3.7-5.6-4.2-8.1-3.9c-2.6,0.3-5.1,1.3-7.6,2.1c-7.8,2.6-16.5,3.5-24.2,0.7
				c-3-1.1-5.9-2.8-9.1-3.3C136.9,207.7,134.4,207.9,132.7,208.8z"/>
			<path d="M159.4,227.1c-7.9,0-15.4-2.3-21.3-6.4c-3.9-2.8-6.5-5.4-7.7-7.9c-0.5-0.9-0.6-1.8-0.3-2.6c0.3-0.9,1-1.6,2.2-2.2
				c1.9-0.9,4.6-1.1,6.2-0.9c2.3,0.4,4.3,1.3,6.4,2.1c0.9,0.4,1.9,0.8,2.9,1.2c8.5,3.1,17.5,1.3,23.7-0.7c0.5-0.2,1-0.3,1.5-0.5
				c2-0.7,4.1-1.4,6.3-1.7c2.1-0.3,6.2,0,8,1.8c0.8,0.8,1.2,1.8,1,2.9c-0.4,3.2-5.1,6.6-7.4,8.2
				C174.9,224.8,167.3,227.1,159.4,227.1z M137.1,208.7c-1.3,0-2.9,0.2-4,0.8l0,0c-0.5,0.2-1.2,0.7-1.4,1.3
				c-0.1,0.4-0.1,0.8,0.2,1.4c1.1,2.2,3.5,4.7,7.2,7.3c5.6,3.9,12.8,6.1,20.3,6.1c7.6,0,14.8-2.2,20.4-6.2c1.8-1.3,6.5-4.7,6.8-7.1
				c0.1-0.6-0.1-1.1-0.5-1.6c-1.4-1.3-4.8-1.6-6.7-1.4c-2,0.3-4,0.9-5.9,1.6c-0.5,0.2-1,0.4-1.5,0.5c-6.4,2.1-15.8,3.9-24.7,0.6
				c-1-0.4-2-0.8-3-1.2c-2-0.9-3.9-1.7-6-2C138,208.7,137.6,208.7,137.1,208.7z"/>
		</g>
		<g>
			<g>
				<path style="fill:#E0E0E0;" d="M144,200.5h-4.5c-1,0-1.7-0.8-1.7-1.7v-5.7c0-1,0.8-1.7,1.7-1.7h4.5c1,0,1.7,0.8,1.7,1.7v5.7
					C145.7,199.7,144.9,200.5,144,200.5z"/>
				<path d="M143.3,201.3h-3.2c-1.8,0-3.2-1.4-3.2-3.2v-4.4c0-1.8,1.4-3.2,3.2-3.2h3.2c1.8,0,3.2,1.4,3.2,3.2v4.4
					C146.5,199.9,145.1,201.3,143.3,201.3z M140.1,192.2c-0.9,0-1.5,0.7-1.5,1.5v4.4c0,0.9,0.7,1.5,1.5,1.5h3.2
					c0.9,0,1.5-0.7,1.5-1.5v-4.4c0-0.9-0.7-1.5-1.5-1.5H140.1z"/>
			</g>
			<g>
				<path style="fill:#E0E0E0;" d="M185.1,200.5h-4.5c-1,0-1.7-0.8-1.7-1.7v-5.7c0-1,0.8-1.7,1.7-1.7h4.5c1,0,1.7,0.8,1.7,1.7v5.7
					C186.8,199.7,186,200.5,185.1,200.5z"/>
				<path d="M184.4,201.3h-3.2c-1.8,0-3.2-1.4-3.2-3.2v-4.4c0-1.8,1.4-3.2,3.2-3.2h3.2c1.8,0,3.2,1.4,3.2,3.2v4.4
					C187.6,199.9,186.2,201.3,184.4,201.3z M181.2,192.2c-0.9,0-1.5,0.7-1.5,1.5v4.4c0,0.9,0.7,1.5,1.5,1.5h3.2
					c0.9,0,1.5-0.7,1.5-1.5v-4.4c0-0.9-0.7-1.5-1.5-1.5H181.2z"/>
			</g>
		</g>
		<g>
			<path style="fill:#A8A8A8;" d="M190.2,161.8c0-17.5-14.2-31.8-31.8-31.8s-31.8,14.2-31.8,31.8V180h63.5v-18.2H190.2z"/>
			<path d="M191,180.8h-65.2v-19c0-18,14.6-32.6,32.6-32.6s32.6,14.6,32.6,32.6V180.8z M127.5,179.1h61.9v-17.3
				c0-17.1-13.9-30.9-30.9-30.9s-30.9,13.9-30.9,30.9L127.5,179.1L127.5,179.1z"/>
		</g>
		<g>
			<path style="fill:#A8A8A8;" d="M187.8,161c0.2-0.6,0.3-1.2,0.3-1.8c0-3.7-3-6.7-6.7-6.7c-2,0-3.7,0.9-4.9,2.2
				c-4.3-1.6-9-2.5-14-2.5c-4.9,0-9.6,0.9-14,2.5c-1.2-1.4-3-2.2-4.9-2.2c-3.7,0-6.7,3-6.7,6.7c0,0.6,0.1,1.2,0.3,1.8
				c-8.6,6.7-14.1,16.4-14.1,26.2v1.5c0,4.7,3.8,8.5,8.5,8.5c0,0,16.3-4.5,30-4.5s31.8,4.5,31.8,4.5c4.7,0,8.5-3.8,8.5-8.5v-1.5
				C201.9,177.4,196.4,167.7,187.8,161z"/>
			<path d="M193.5,198h-0.2c-0.2,0-18.2-4.5-31.6-4.5c-13.4,0-29.6,4.4-29.7,4.5h-0.2c-5.1,0-9.3-4.2-9.3-9.3v-1.5
				c0-9.6,5.2-19.5,14-26.5c-0.1-0.5-0.2-1-0.2-1.5c0-4.1,3.4-7.5,7.5-7.5c1.9,0,3.8,0.8,5.2,2.1c8.9-3.1,18.6-3.1,27.5,0
				c1.4-1.3,3.2-2.1,5.2-2.1c4.1,0,7.5,3.4,7.5,7.5c0,0.5-0.1,1-0.2,1.5c8.8,7,14,16.9,14,26.5v1.5C202.8,193.9,198.6,198,193.5,198
				z M161.6,191.9c13.1,0,30.4,4.1,31.9,4.5c4.2-0.1,7.5-3.5,7.5-7.6v-1.5c0-9.3-5.2-18.8-13.8-25.5l-0.4-0.3l0.2-0.5
				c0.2-0.6,0.3-1.1,0.3-1.6c0-3.2-2.6-5.8-5.8-5.8c-1.7,0-3.2,0.7-4.3,2l-0.4,0.4l-0.5-0.2c-8.9-3.2-18.5-3.2-27.4,0l-0.5,0.2
				l-0.4-0.4c-1.1-1.3-2.7-2-4.3-2c-3.2,0-5.8,2.6-5.8,5.8c0,0.5,0.1,1,0.3,1.6l0.2,0.5l-0.4,0.3c-8.6,6.7-13.8,16.2-13.8,25.5v1.5
				c0,4.2,3.4,7.6,7.5,7.6C133,196,148.6,191.9,161.6,191.9z"/>
		</g>
		<g>
			<path style="fill:#A8A8A8;" d="M142.8,136c0,0-1.7-9.8-12.9-9.6s-2.9,13.9,4.5,15.8"/>
			<path d="M134.4,143.1c-0.1,0-0.1,0-0.2,0c-5.4-1.4-11.1-8.5-10.6-13.1c0.2-1.6,1.2-4.2,6.3-4.3c11.8-0.2,13.8,10.2,13.8,10.3
				c0.1,0.4-0.2,0.9-0.7,1c-0.4,0.1-0.9-0.2-1-0.7c-0.1-0.4-1.8-9.1-12.1-8.9c-2.9,0.1-4.4,1-4.6,2.8c-0.5,3.9,4.7,10.1,9.4,11.3
				c0.4,0.1,0.7,0.6,0.6,1C135.1,142.8,134.8,143.1,134.4,143.1z"/>
		</g>
		<g>
			<path style="fill:#454545;" d="M136.8,139.8c0,0-3.3-6.5-9-8.4C127.8,131.4,128,138.4,136.8,139.8z"/>
			<path d="M138.3,140.9l-1.6-0.3c-9.3-1.5-9.7-9.1-9.7-9.2v-1.2l1.1,0.4c5.9,1.9,9.4,8.5,9.5,8.8L138.3,140.9z M128.8,132.7
				c0.5,1.7,2,4.5,6.2,5.8C133.9,136.8,131.8,134.2,128.8,132.7z"/>
		</g>
		<g>
			<path style="fill:#A8A8A8;" d="M174,136c0,0,1.7-9.8,12.9-9.6s2.9,13.9-4.5,15.8"/>
			<path d="M182.4,143.1c-0.4,0-0.7-0.2-0.8-0.6c-0.1-0.4,0.2-0.9,0.6-1c4.7-1.2,9.8-7.4,9.4-11.3c-0.2-1.8-1.8-2.8-4.6-2.8
				c-0.1,0-0.3,0-0.4,0c-10,0-11.7,8.5-11.7,8.9c-0.1,0.5-0.5,0.8-1,0.7c-0.4-0.1-0.7-0.5-0.7-1c0-0.1,1.9-10.5,13.8-10.3
				c5,0.1,6.1,2.7,6.3,4.3c0.5,4.6-5.2,11.7-10.6,13.1C182.6,143.1,182.5,143.1,182.4,143.1z"/>
		</g>
		<g>
			<path style="fill:#454545;" d="M180.1,139.8c0,0,3.3-6.5,9-8.4C189.1,131.4,188.8,138.4,180.1,139.8z"/>
			<path d="M178.6,140.9l0.7-1.5c0.1-0.3,3.6-6.9,9.5-8.8l1.1-0.4v1.2c0,0.1-0.4,7.7-9.7,9.2L178.6,140.9z M188,132.7
				c-2.9,1.4-5.1,4.1-6.2,5.8C186.1,137.3,187.5,134.5,188,132.7z"/>
		</g>
		<g>
			<g>
				<circle style="fill:#454545;" cx="143.4" cy="159.1" r="2.3"/>
				<path d="M143.4,162.3c-1.7,0-3.1-1.4-3.1-3.1c0-1.7,1.4-3.1,3.1-3.1c1.7,0,3.1,1.4,3.1,3.1C146.6,160.9,145.2,162.3,143.4,162.3
					z M143.4,157.6c-0.8,0-1.5,0.7-1.5,1.5s0.7,1.5,1.5,1.5s1.5-0.7,1.5-1.5S144.3,157.6,143.4,157.6z"/>
			</g>
			<g>
				<circle style="fill:#454545;" cx="181.7" cy="159.1" r="2.3"/>
				<path d="M181.7,162.3c-1.7,0-3.1-1.4-3.1-3.1c0-1.7,1.4-3.1,3.1-3.1c1.7,0,3.1,1.4,3.1,3.1C184.8,160.9,183.4,162.3,181.7,162.3
					z M181.7,157.6c-0.8,0-1.5,0.7-1.5,1.5s0.7,1.5,1.5,1.5s1.5-0.7,1.5-1.5S182.5,157.6,181.7,157.6z"/>
			</g>
		</g>
	</g>
	<g>
		<path d="M157.2,148.2c-0.5,1.6-2.2,2.5-3.8,2s-2.5-2.2-2-3.8s1.8-1.2,3.4-0.7C156.4,146.2,157.7,146.6,157.2,148.2z"/>
		<path d="M170.7,148.2c0.5,1.6,2.2,2.5,3.8,2s2.5-2.2,2-3.8s-1.8-1.2-3.4-0.7C171.5,146.2,170.2,146.6,170.7,148.2z"/>
	</g>
	<path d="M161.9,143c-0.1,0-0.2,0-0.3,0c-4.1-0.3-8-2.3-10.7-5.4c-0.6-0.7-1.3-1.7-1.2-2.9c0-0.5,0.5-0.8,0.9-0.7
		c0.5,0,0.8,0.4,0.7,0.9c0,0.4,0.2,1,0.8,1.7c2.4,2.8,5.9,4.5,9.6,4.8c0.1,0,0.2,0,0.2,0v-0.1c0.2-0.7,0.2-1.5-0.1-2.2
		c-0.1-0.3-0.1-0.7,0.2-0.9s0.6-0.3,0.9-0.1c0.6,0.3,1.3,0.6,2,0.7c0.7,0.2,1.1,0.1,1.4,0c0.2-0.1,0.2-0.4,0.2-0.4
		c-0.3-0.3-0.4-0.8-0.1-1.2c0.3-0.3,0.8-0.4,1.2-0.1c0.4,0.4,0.6,0.9,0.6,1.5c-0.1,0.7-0.4,1.3-1,1.6c-0.9,0.5-1.9,0.4-2.6,0.2
		c-0.3-0.1-0.6-0.1-0.9-0.2c0,0.6-0.1,1.1-0.3,1.7c-0.1,0.3-0.3,0.7-0.7,0.9C162.6,142.9,162.2,143,161.9,143z"/>
	<path style="fill:#F2DDAB;" d="M190.1,221.4c-13.2-11.7-23.7,2-23.7,2c-10.2-9.1-19.2,0-19.2,0c-13.7-19.4-27.2-9-27.2-9v16.2
		l53.4,11.6L190.1,221.4z"/>
	<path d="M147.2,224.2C147.2,224.2,147.1,224.2,147.2,224.2c-0.3,0-0.5-0.2-0.7-0.4c-4.7-6.6-9.8-10.4-15.3-11.3
		c-6.2-1-10.7,2.4-10.8,2.4c-0.4,0.3-0.9,0.2-1.2-0.2c-0.3-0.4-0.2-0.9,0.2-1.2c0.2-0.2,5.1-3.8,12-2.8c5.7,0.9,11,4.6,15.9,11.2
		c2.4-1.9,10.3-7.1,19,0c1.5-1.7,5.7-5.8,11.6-6.4c4.4-0.4,8.7,1.2,12.8,4.9c0.3,0.3,0.4,0.8,0.1,1.2c-0.3,0.3-0.8,0.4-1.2,0.1
		c-3.7-3.3-7.6-4.8-11.5-4.5c-6.5,0.6-11,6.3-11,6.4c-0.1,0.2-0.3,0.3-0.6,0.3c-0.2,0-0.5-0.1-0.6-0.2c-9.5-8.4-17.7-0.4-18.1,0
		C147.6,224.1,147.4,224.2,147.2,224.2z"/>
</g>
</svg>
