<?xml version="1.0" encoding="utf-8"?>
<!-- Generator: Adobe Illustrator 24.1.1, SVG Export Plug-In . SVG Version: 6.00 Build 0)  -->
<svg version="1.1" id="Layer_1" xmlns="http://www.w3.org/2000/svg" xmlns:xlink="http://www.w3.org/1999/xlink" x="0px" y="0px"
	 viewBox="0 0 230 240" style="enable-background:new 0 0 230 240;" xml:space="preserve">
<g>
	<path d="M155.58,157c2.1,0,3.81,1.7,3.81,3.8v28.39v17.7c0,0,1.75-2.16,6.38-2.16c1.01,0,2.17,0.1,3.47,0.36
		c0.04,0.01,0.27,0.06,0.27,0.06c4.83,1.05,9.04,4.29,11.28,8.7c1.21,2.39,1.74,6.76-0.16,8.95c-2.1,2.41-5.21,2.71-8.22,2.71
		c-0.99,0-1.97-0.03-2.9-0.03h-12.69h-2.75c-2.21,0-5.7-1.79-5.7-3.99v-32.3h0V160.8C148.37,158.7,153.49,157,155.58,157
		 M155.58,153.84c-2.2,0-10.38,1.74-10.38,6.97v28.39l0,32.3c0,4.37,5.25,7.16,8.86,7.16h2.75h12.69c0.44,0,0.89,0.01,1.35,0.02
		c0.51,0.01,1.02,0.02,1.54,0.02c3.61,0,7.68-0.45,10.6-3.79c3.02-3.46,2.17-9.37,0.6-12.46c-2.67-5.24-7.68-9.11-13.43-10.36
		l-0.26-0.06c-1.49-0.29-2.86-0.43-4.14-0.43c-1.21,0-2.28,0.12-3.21,0.32v-12.7V160.8C162.55,156.96,159.43,153.84,155.58,153.84
		L155.58,153.84z"/>
	<path style="fill:#FFFFFF;" d="M159.39,160.81v28.38h-11.02v-28.38c0-2.11,5.11-3.82,7.22-3.82
		C157.68,156.99,159.39,158.7,159.39,160.81z"/>
	<path style="fill-rule:evenodd;clip-rule:evenodd;fill:#0088C5;" d="M180.6,222.82c-2.79,3.19-7.33,2.66-11.09,2.66h-15.44
		c-2.21,0-5.69-1.79-5.69-3.98v-32.31h11.02v17.71c0,0,2.61-3.22,9.86-1.82c0.03,0.03,0.26,0.08,0.26,0.08
		c4.82,1.05,9.04,4.3,11.28,8.7C182,216.25,182.53,220.63,180.6,222.82z"/>
</g>
<g>
	<path style="fill:#FFFFFF;" d="M139.36,165.08v28.38h-11.04v-28.38c0-2.11,5.14-3.82,7.22-3.82
		C137.65,161.26,139.36,162.97,139.36,165.08z"/>
	<path style="fill-rule:evenodd;clip-rule:evenodd;fill:#009FF9;" d="M160.58,227.06c-2.79,3.21-7.35,2.69-11.12,2.69h-15.42
		c-2.21,0-5.72-1.79-5.72-4.01v-32.28h11.04v17.71c0,0,2.61-3.21,9.83-1.82c0.05,0.03,0.26,0.08,0.26,0.08
		c4.85,1.03,9.04,4.3,11.28,8.7C161.95,220.5,162.5,224.87,160.58,227.06z"/>
	<path d="M135.55,161.26c2.1,0,3.81,1.7,3.81,3.8v28.39v17.7c0,0,1.75-2.16,6.38-2.16c1.01,0,2.17,0.1,3.47,0.36
		c0.04,0.01,0.27,0.06,0.27,0.06c4.83,1.05,9.04,4.29,11.28,8.7c1.21,2.39,1.74,6.76-0.16,8.95c-2.1,2.41-5.2,2.71-8.21,2.71
		c-0.99,0-1.97-0.03-2.9-0.03h-12.69h-2.75c-2.21,0-5.7-1.79-5.7-3.99v-32.3h0v-28.39C128.33,162.96,133.45,161.26,135.55,161.26
		 M135.55,158.1c-2.2,0-10.38,1.74-10.38,6.97v28.39l0,32.3c0,4.37,5.25,7.16,8.86,7.16h2.75h12.69c0.44,0,0.89,0.01,1.35,0.02
		c0.51,0.01,1.03,0.02,1.55,0.02c3.6,0,7.68-0.45,10.6-3.79c3.02-3.47,2.17-9.37,0.6-12.46c-2.66-5.24-7.68-9.11-13.43-10.36
		l-0.22-0.05c-1.53-0.3-2.9-0.44-4.18-0.44c-1.21,0-2.28,0.12-3.22,0.32v-12.7v-28.39C142.52,161.23,139.39,158.1,135.55,158.1
		L135.55,158.1z"/>
</g>
<g>
	<path style="fill:#FFFFFF;" d="M185.07,136.11c-0.56-5.8,0.28-11.39,1.09-17.37c0.36-2.65,1.83-12.25-3.79-10.77
		c-2.03,0.54-3.24,3.42-4.13,5.09c-1.93,3.64-3.29,7.52-4.08,11.49c-0.89,4.45-1.07,8.96-0.7,13.42
		C176.44,136.96,180.53,136.04,185.07,136.11z"/>
	<path style="fill:#0088C5;" d="M192.33,155.12c-0.04-0.06-0.09-0.12-0.13-0.18c-1.13-1.58-2.08-3.11-2.91-4.66
		c-1.18-2.21-2.1-4.45-2.81-6.89c-0.35-1.2-0.66-2.45-0.92-3.78c-0.24-1.18-0.38-2.34-0.49-3.5c-4.54-0.07-8.63,0.85-11.61,1.86
		c0.18,2.16,0.48,4.31,0.9,6.43c1.21,6.04,3.03,12.89,6.72,18.01c1.8,2.49,4.91,4.05,8.19,3.6c0.68-0.09,1.34-0.25,1.9-0.45
		c2.06-0.74,3.85-2.31,4.08-4.43c0.05-0.42,0.01-0.82-0.07-1.21C194.85,158.1,193.39,156.62,192.33,155.12z"/>
	<path d="M183.45,107.82c4.32,0,3.03,8.46,2.7,10.92c-0.81,5.99-1.65,11.57-1.09,17.37c0.11,1.16,0.26,2.32,0.49,3.5
		c0.26,1.32,0.57,2.57,0.92,3.78c0.71,2.44,1.63,4.68,2.81,6.89c0.83,1.55,1.78,3.08,2.91,4.66c0.04,0.06,0.09,0.12,0.13,0.18
		c1.06,1.5,2.52,2.98,2.86,4.79c0.07,0.39,0.11,0.79,0.07,1.21c-0.23,2.13-2.02,3.7-4.08,4.43c-0.57,0.2-1.22,0.36-1.9,0.45
		c-0.38,0.05-0.75,0.08-1.13,0.08c-2.85,0-5.48-1.47-7.06-3.68c-3.69-5.11-5.51-11.96-6.72-18.01c-0.43-2.12-0.72-4.27-0.9-6.43
		c-0.37-4.46-0.19-8.98,0.7-13.42c0.79-3.97,2.16-7.85,4.08-11.49c0.89-1.67,2.09-4.56,4.13-5.09
		C182.76,107.87,183.13,107.82,183.45,107.82 M183.45,104.66c-0.61,0-1.24,0.09-1.89,0.26c-3.15,0.83-4.74,3.96-5.79,6.03
		l-0.33,0.64c-2.05,3.87-3.52,8.02-4.39,12.35c-0.91,4.53-1.16,9.35-0.75,14.3c0.19,2.31,0.51,4.59,0.95,6.79
		c1.19,5.92,3.09,13.46,7.26,19.23c2.25,3.12,5.85,4.99,9.63,4.99c0.52,0,1.04-0.04,1.55-0.11c0.88-0.12,1.76-0.33,2.53-0.61
		c3.46-1.23,5.82-3.94,6.17-7.07c0.07-0.68,0.04-1.38-0.1-2.14c-0.4-2.13-1.66-3.77-2.68-5.08c-0.24-0.32-0.49-0.63-0.71-0.94
		l-0.14-0.2c-1.02-1.43-1.9-2.84-2.69-4.31c-1.08-2.01-1.91-4.06-2.56-6.28c-0.32-1.11-0.6-2.25-0.85-3.51
		c-0.19-0.93-0.33-1.94-0.45-3.19c-0.49-5.12,0.2-10.24,0.94-15.66l0.13-0.99l0.03-0.23c0.62-4.52,0.92-9.51-1.55-12.34
		C186.68,105.34,185.15,104.66,183.45,104.66L183.45,104.66z"/>
</g>
<g>
	<path style="fill:#FFFFFF;" d="M174.07,27.99c-4.16-3.06-7.27-5.53-11.33-5.53c-1.26,0-2.61,0.24-4.14,0.76
		c-2.06,0.76-3.87,1.95-5.06,3.72c-2.08,3.03-3.27,8.54-1.66,11.94c0.24,0.47,0.58,0.61,1.03,0.61c0.69,0,1.58-0.37,2.58-0.53
		c1.95-0.34,1.4-2.13,2.82-3.82c0.58-0.71,1.19-1,1.82-1c1.55,0,3.37,1.79,5.88,3.58c1.19,0.87,2.58,1.26,3.98,1.26
		c1.95,0,3.9-0.82,5.19-2.4C177.39,33.89,176.89,30.04,174.07,27.99z"/>
	<path d="M179.66,31.65c-0.32-2.48-1.63-4.72-3.72-6.22l-0.32-0.24l-0.5-0.37c-4.03-2.98-7.54-5.53-12.39-5.53
		c-1.66,0-3.37,0.32-5.19,0.95c-2.87,1.03-5.11,2.69-6.61,4.9c-2.64,3.85-4.06,10.54-1.9,15.07c0.71,1.53,2.16,2.42,3.87,2.42
		c0.79,0,1.55-0.18,2.21-0.37c0.29-0.08,0.58-0.16,0.92-0.21c2.98-0.5,3.79-2.79,4.19-3.87c0.11-0.26,0.18-0.45,0.26-0.63
		c0.53,0.34,1.26,0.92,1.84,1.37c0.16,0.11,0.32,0.24,0.47,0.34c0.42,0.34,0.9,0.69,1.37,1.03c1.66,1.21,3.69,1.84,5.8,1.84
		c3,0,5.8-1.29,7.64-3.56C179.26,36.61,179.97,34.16,179.66,31.65z M175.18,36.58c-1.29,1.58-3.24,2.4-5.19,2.4
		c-1.4,0-2.79-0.4-3.98-1.26c-1.21-0.87-2.27-1.74-3.19-2.4c-1-0.71-1.87-1.19-2.69-1.19c-0.63,0-1.24,0.29-1.82,1
		c-1.42,1.69-0.87,3.48-2.82,3.82c-1,0.16-1.9,0.53-2.58,0.53c-0.45,0-0.79-0.13-1.03-0.61c-1.61-3.4-0.42-8.91,1.66-11.94
		c1.19-1.77,3-2.95,5.06-3.72c1.53-0.53,2.87-0.76,4.14-0.76c2.35,0,4.37,0.82,6.46,2.11c1.53,0.92,3.11,2.13,4.88,3.43
		C176.89,30.04,177.39,33.89,175.18,36.58z"/>
	<path style="fill:#683100;" d="M175.18,36.58c-1.29,1.58-3.24,2.4-5.19,2.4c-1.4,0-2.79-0.4-3.98-1.26
		c-1.21-0.87-2.27-1.74-3.19-2.4c0.05-0.74,0.84-1.13,1.61-1.45c0.47-0.21,1-0.21,1.48-0.13c-0.61-0.24-1.13-0.69-1.4-1.29
		c-0.58-1.26,0.05-2.69,1.37-3.24c0.61-0.26,1.26-0.24,1.87-0.05c-0.55-0.26-1.05-0.63-1.27-1.21c-0.11-0.26-0.13-0.53-0.13-0.76
		c0-0.53,0.21-1,0.58-1.45c0,0,0.58-0.84,2.27-1.16c1.53,0.92,3.11,2.13,4.88,3.43C176.89,30.04,177.39,33.89,175.18,36.58z"/>
</g>
<g>
	<path style="fill:#FFFFFF;" d="M133.01,40.95c-0.29,1.58-2.87,2.98-4.8,3.11h-0.26c-2.03,0-1.98-1.61-3.98-3.19
		c-0.66-0.53-1.26-0.76-1.82-0.76c-1.98,0-3.56,2.87-6.09,6.03c-1.5,1.87-3.69,2.85-5.9,2.85c-1.66,0-3.35-0.55-4.74-1.69
		c-3.24-2.64-3.79-7.41-1.21-10.67c4.56-5.8,8.67-10.25,15.28-10.25c0.66,0,1.32,0.05,2,0.13c2.53,0.32,4.9,1.26,6.77,3.06
		C131.46,32.65,133.85,36.4,133.01,40.95z"/>
	<path style="fill:#683100;" d="M119.1,42.22c-0.92,1.08-1.87,2.48-3.03,3.93c-1.5,1.87-3.69,2.85-5.9,2.85
		c-1.66,0-3.35-0.55-4.74-1.69c-3.24-2.64-3.79-7.41-1.21-10.67c1.61-2.08,3.19-3.95,4.85-5.56h0.03c0.16,0,0.29,0,0.45,0.03
		c0.03,0,0.05,0,0.05,0c0.4,0.05,0.74,0.13,1,0.21c0.11,0.05,0.21,0.11,0.29,0.13c0.18,0.11,0.34,0.18,0.5,0.32
		c0.08,0.05,0.13,0.11,0.21,0.16c0.03,0,0.03,0.03,0.03,0.03c0.76,0.63,1.27,1.53,1.11,2.53c-0.13,0.74-0.53,1.34-1.05,1.79
		c0.61-0.4,1.34-0.58,2.11-0.45c1.63,0.29,2.77,1.87,2.48,3.53c-0.13,0.82-0.61,1.5-1.21,1.95c0.4-0.18,0.82-0.29,1.26-0.29h0.05
		c0.11,0,0.26,0,0.37,0.03c0.76,0,1.34,0.32,1.77,0.63c0.11,0.05,0.18,0.13,0.24,0.18C118.91,42.01,119.04,42.14,119.1,42.22z"/>
	<path d="M130.45,27.3c-2.27-2.19-5.14-3.5-8.56-3.93c-0.82-0.11-1.61-0.16-2.4-0.16c-8.09,0-13.02,5.43-17.76,11.44
		c-3.66,4.64-2.87,11.41,1.71,15.1c1.9,1.55,4.27,2.4,6.72,2.4c3.27,0,6.32-1.48,8.35-4.03c0.61-0.74,1.16-1.48,1.66-2.16
		c0.63-0.84,1.45-1.92,2-2.48c0.37,0.34,0.63,0.66,0.92,1.05c0.76,1,2.03,2.69,4.85,2.69c0.13,0,0.29,0,0.45-0.03
		c2.74-0.16,7.06-2.08,7.72-5.69C137.04,36.58,135.12,31.78,130.45,27.3z M133.01,40.95c-0.29,1.58-2.87,2.98-4.8,3.11h-0.26
		c-2.03,0-1.98-1.61-3.98-3.19c-0.66-0.53-1.26-0.76-1.82-0.76c-1.08,0-2.03,0.84-3.06,2.11c-0.92,1.08-1.87,2.48-3.03,3.93
		c-1.5,1.87-3.69,2.85-5.9,2.85c-1.66,0-3.35-0.55-4.74-1.69c-3.24-2.64-3.79-7.41-1.21-10.67c1.61-2.08,3.19-3.95,4.85-5.56h0.03
		c2.95-2.87,6.17-4.69,10.41-4.69c0.66,0,1.32,0.05,2,0.13c2.53,0.32,4.9,1.26,6.77,3.06C131.46,32.65,133.85,36.4,133.01,40.95z"/>
</g>
<g>
	<path d="M148.61,37.29c9.89,0,20.15,4.03,28.33,9.56c6.98,4.72,11.73,13.25,14.2,21.18c0.15,0.48,0.26,0.95,0.39,1.43
		c0.28,0.81,0.54,1.62,0.78,2.43c2.81,9.65,1.13,18.04-1.55,27.61c-0.58,2.08-4.76,12.23-4.82,12.72
		c-1.2,5.57,1.69,12.39,2.48,17.88c1.48,10.22,1.77,20.77-2.5,30.42c-5.82,13.15-19.36,17.82-32.81,18.73
		c-1.32,0.09-2.65,0.13-3.98,0.13c-0.29,0-0.58,0-0.87-0.01c-0.06,0-0.13,0-0.19-0.01l-3.29-0.05c-1.62-0.02-3.3-0.11-4.91-0.27
		c-11.06-1.06-23.24-5.36-30.15-14.55c-5-6.65-6.9-17.66-6.35-25.87c0.43-6.4,2.39-12.59,3.6-18.86c0.47-2.46,1.39-4.86,1.2-7.35
		c-0.04-0.52-0.12-1.04-0.19-1.56c-0.4-1.13-3.41-9.6-4.17-12.84c-2.24-7.38-2.84-15.11-1.71-22.93
		c1.19-8.23,4.53-17.39,10.69-23.15c7.91-7.41,18.55-13.41,29.3-14.24c0,0,0.08-0.01,0.2-0.02l3.45-0.27
		C146.7,37.33,147.65,37.29,148.61,37.29 M148.61,34.13c-1.05,0-2.09,0.04-3.11,0.13l-3.44,0.27l-0.26,0.02
		c-10.4,0.8-21.78,6.3-31.15,15.08c-5.91,5.54-10.16,14.65-11.66,25.01c-1.19,8.2-0.59,16.35,1.78,24.2
		c0.65,2.71,2.6,8.42,4.14,12.78c0.05,0.37,0.1,0.7,0.12,1.04c0.1,1.27-0.26,2.71-0.63,4.23c-0.19,0.76-0.37,1.52-0.52,2.29
		c-0.39,2.01-0.87,4.07-1.33,6.07c-0.99,4.24-2.01,8.63-2.32,13.18c-0.57,8.55,1.36,20.51,6.98,27.98
		c6.53,8.69,18.34,14.45,32.38,15.8c1.65,0.16,3.43,0.26,5.17,0.28l3.29,0.05l0.18,0.01l0.92,0.01c1.4,0,2.81-0.05,4.19-0.14
		c17.78-1.19,30.05-8.32,35.49-20.6c4.94-11.16,4.05-23.05,2.73-32.15c-0.28-1.9-0.77-3.92-1.26-5.86c-0.94-3.8-1.91-7.73-1.29-10.8
		c0.18-0.52,0.91-2.38,1.57-4.04c1.67-4.23,2.88-7.33,3.23-8.59c2.61-9.31,4.69-18.56,1.54-29.35c-0.24-0.82-0.51-1.65-0.79-2.47
		l-0.12-0.45c-0.09-0.33-0.17-0.66-0.28-0.99c-3.11-9.99-8.74-18.33-15.45-22.86C169.08,37.72,158.39,34.13,148.61,34.13
		L148.61,34.13z"/>
	<path style="fill:#009FF9;" d="M190.76,99.5c2.68-9.57,4.36-17.97,1.55-27.61c-0.23-0.8-0.5-1.62-0.78-2.43
		c-0.14-0.48-0.24-0.95-0.39-1.43c-2.47-7.93-7.22-16.46-14.2-21.18c-8.97-6.07-20.43-10.32-31.18-9.44l-3.45,0.27
		c-0.12,0.01-0.2,0.02-0.2,0.02c-10.75,0.83-21.4,6.83-29.3,14.24c-6.15,5.76-9.5,14.93-10.69,23.15
		c-1.13,7.82-0.53,15.55,1.71,22.93c0.76,3.24,3.77,11.71,4.17,12.84c0.08,0.52,0.15,1.04,0.19,1.56c0.19,2.5-0.73,4.9-1.2,7.35
		c-1.2,6.27-3.17,12.46-3.6,18.86c-0.55,8.2,1.35,19.22,6.35,25.87c6.91,9.19,19.09,13.49,30.15,14.55
		c1.61,0.15,3.29,0.24,4.91,0.27l3.29,0.05c0.06,0,0.13,0,0.19,0.01c1.62,0.02,3.24-0.02,4.85-0.13
		c13.45-0.9,26.99-5.58,32.81-18.73c4.27-9.65,3.98-20.2,2.5-30.42c-0.8-5.49-3.69-12.31-2.48-17.88
		C186.01,111.73,190.18,101.58,190.76,99.5z"/>
</g>
<path style="fill:#009FF8;" d="M145.76,37.41c0,0-0.08,0-0.2,0.01L145.76,37.41z"/>
<g>
	<path style="fill-rule:evenodd;clip-rule:evenodd;fill:#FFFFFF;" d="M197.34,101.65c-5.48,6.8-16.29,11.41-28.88,12.36
		c-31.31,2.32-47.51-6.98-49.65-28.41c-0.29-3.03-1.32-18.66,7.85-29.49c5.48-6.51,13.7-10.17,24.38-10.88
		c1.61-0.11,3.14-0.16,4.61-0.16c32.39,0,35,24.88,35.1,25.98c0.05,0.66,0.53,1.21,1.16,1.4c0.34,0.08,8.25,2.35,9.67,12.49
		C202.5,91.42,201.08,97.03,197.34,101.65z"/>
	<path d="M204.72,84.49c-1.42-10.07-8.3-13.7-10.96-14.76c-0.87-5.51-6.75-30.12-42.93-27.67c-11.57,0.79-20.5,4.82-26.59,11.99
		c-9.75,11.52-9.01,27.3-8.56,31.86c2.11,21.21,16.44,31.6,43.75,31.6c2.95,0,6.03-0.13,9.25-0.37c13.68-1,25.04-5.93,31.15-13.52
		C204.11,98.3,205.75,91.87,204.72,84.49z M118.81,85.6c-0.29-3.03-1.32-18.66,7.85-29.49c5.48-6.51,13.7-10.17,24.38-10.88
		c1.61-0.11,3.14-0.16,4.61-0.16c32.39,0,35,24.88,35.1,25.98c0.05,0.66,0.53,1.21,1.16,1.4c0.34,0.08,8.25,2.35,9.67,12.49
		c0.92,6.48-0.5,12.1-4.24,16.71c-5.48,6.8-16.29,11.41-28.88,12.36C137.15,116.32,120.94,107.02,118.81,85.6z"/>
	<path style="fill-rule:evenodd;clip-rule:evenodd;fill:#FFBEB8;" d="M164.96,88.5c0.16,6.46-4.69,11.81-10.82,11.96
		c-6.13,0.15-11.22-4.97-11.38-11.42c-0.16-6.45,4.69-11.81,10.81-11.95C159.7,76.94,164.8,82.05,164.96,88.5"/>
	<path style="fill-rule:evenodd;clip-rule:evenodd;fill:#FFBEB8;" d="M200.99,83.4c-0.55-2.19-3.15-9.54-6.73-6.9
		c-4.82,3.56-2.59,12.61-0.2,17.11c0.94,1.77,2.64,3.84,5.02,3.4c1.34-0.25,1.84-2.79,2.01-3.66
		C201.76,90.08,201.81,86.64,200.99,83.4z"/>
</g>
<g>
	<path style="fill-rule:evenodd;clip-rule:evenodd;" d="M183.99,82.62c0.02,0.84-0.85,1.54-1.96,1.57
		c-1.11,0.03-2.02-0.63-2.04-1.47c-0.02-0.84,0.86-1.54,1.97-1.57S183.97,81.79,183.99,82.62"/>
	<path style="fill-rule:evenodd;clip-rule:evenodd;" d="M186.79,80.74L186.79,80.74c-1.15,0.03-2.11-1.08-2.15-2.47l-0.01-0.35
		c-0.03-1.39,0.87-2.55,2.02-2.58c1.15-0.03,2.11,1.08,2.15,2.48l0.01,0.35C188.85,79.56,187.94,80.71,186.79,80.74"/>
	<path style="fill-rule:evenodd;clip-rule:evenodd;" d="M168.93,81.17L168.93,81.17c-1.36,0.03-2.48-1.07-2.51-2.47l-0.01-0.35
		c-0.03-1.39,1.04-2.55,2.39-2.59c1.36-0.03,2.48,1.07,2.52,2.47l0.01,0.35C171.36,79.98,170.28,81.14,168.93,81.17"/>
	<path style="fill:#231815;" d="M190.98,85.83c-0.38-0.62-1.2-0.81-1.81-0.44c-0.62,0.38-0.82,1.19-0.44,1.81
		c0.05,0.08,0.15,0.25-0.29,0.79c-0.91,1.1-2.13,1.23-2.82,1.21c-1.25-0.04-2.44-0.64-3.11-1.56c-0.04-0.06-0.1-0.09-0.15-0.14
		c-0.06-0.06-0.1-0.13-0.17-0.18c-0.01-0.01-0.03-0.01-0.04-0.02c-0.08-0.05-0.17-0.08-0.26-0.11c-0.07-0.02-0.14-0.06-0.21-0.08
		c-0.09-0.02-0.18,0-0.27,0c-0.08,0-0.15-0.01-0.23,0.01c-0.08,0.02-0.14,0.06-0.22,0.09c-0.09,0.04-0.18,0.06-0.26,0.12
		c-0.01,0.01-0.02,0.01-0.03,0.02c-0.06,0.05-0.1,0.11-0.15,0.17c-0.05,0.05-0.12,0.09-0.16,0.16c-1.88,2.75-7.07,3.4-10.28,1.29
		c-0.75-0.49-1.18-0.92-1.36-1.16c0.24-0.51,0.13-1.14-0.3-1.54c-0.54-0.49-1.37-0.45-1.86,0.09c-0.42,0.46-0.61,1.06-0.53,1.67
		c0.13,1.02,1.01,2.08,2.61,3.13c1.75,1.15,3.85,1.7,5.93,1.7c2.62,0,5.15-0.92,6.9-2.55c1.12,0.92,2.56,1.47,4.09,1.52
		c0.07,0,0.15,0,0.22,0c1.86,0,3.56-0.78,4.71-2.16C191.9,87.95,191.4,86.53,190.98,85.83z"/>
</g>
<g>
	<path style="fill:#BE723F;" d="M128.61,166.79l-0.5,0.11l-6.01-6.88c0.29,0.05,0.55,0.11,0.82,0.21c0.18,0.03,0.34,0.08,0.5,0.16
		c0.84,0.34,1.55,0.87,2.19,1.48c0.16,0.16,0.32,0.32,0.45,0.47c0.13,0.13,0.24,0.26,0.34,0.4c0.08,0.11,0.16,0.21,0.24,0.34
		c0.21,0.26,0.4,0.53,0.55,0.79c0.24,0.37,0.42,0.71,0.61,1.05C128.14,165.6,128.4,166.26,128.61,166.79z"/>
	<path style="fill:#D49166;" d="M109.03,167.9l-4.77,1.34h-0.05l-30.1,6.35c-0.34,0.08-0.66,0.29-0.84,0.61
		c0,0.03-0.03,0.03-0.03,0.05c-0.16-0.11-0.29-0.24-0.4-0.4c-0.11-0.18-0.16-0.37-0.21-0.58l-0.37-1.98
		c-0.11-0.47,0.03-0.98,0.29-1.37c0.29-0.4,0.74-0.63,1.21-0.69l40.03-4.66L109.03,167.9z"/>
	<path style="fill:#F8716F;" d="M129.03,181.78l18.24,23.72c-0.69,0.45-1.34,0.9-2.03,1.29c-0.61,0.37-1.21,0.74-1.79,1.05
		c-2.08,1.19-4.08,2.16-6.06,2.98c-1.05,0.45-2.11,0.84-3.11,1.16c-2.32,0.82-4.56,1.4-6.67,1.79c-0.63,0.13-1.24,0.24-1.84,0.32
		c-1.24,0.18-2.4,0.32-3.53,0.4c-8.75,0.63-14.76-1.48-15.92-1.92c-0.05,0-0.11-0.03-0.13-0.03c-0.58-0.16-2.24-0.66-4.56-1.79
		c-0.55-0.26-1.13-0.55-1.74-0.87c-2.4-1.29-5.27-3.16-8.22-5.8c-0.29-0.24-0.58-0.53-0.87-0.79c-2.24-2.11-4.53-4.69-6.69-7.83
		c-0.37-0.53-0.74-1.11-1.11-1.69c-0.32-0.5-0.63-1-0.95-1.53c-0.42-0.71-0.82-1.45-1.24-2.24c-0.21-0.42-0.45-0.84-0.66-1.29
		c-0.24-0.47-0.47-0.95-0.69-1.48c-0.29-0.63-0.58-1.24-0.82-1.9c-0.58-1.29-1.08-2.66-1.55-4.11c-0.21-0.58-0.42-1.19-0.58-1.82
		c-0.05-0.11-0.11-0.24-0.13-0.37c-0.13-0.4-0.24-0.76-0.34-1.16l27.96-5.93c0.58,0.82,1.21,1.61,1.87,2.32l-0.05,0.03l-19.84,8.25
		c-0.69,0.29-1,1.05-0.71,1.74c0.21,0.5,0.71,0.82,1.21,0.82c0.18,0,0.34-0.05,0.5-0.11l20.9-8.72h0.03c0.5,0.5,0.98,0.9,1.48,1.26
		l-16.34,16.08c-0.5,0.53-0.53,1.37,0,1.87c0.26,0.26,0.58,0.4,0.92,0.4c0.34,0,0.69-0.13,0.92-0.37l16.71-16.47
		c0.9,0.55,1.82,1,2.71,1.37l-9.09,25.46c-0.24,0.69,0.11,1.45,0.79,1.69c0.16,0.05,0.29,0.08,0.45,0.08c0.53,0,1.05-0.34,1.24-0.87
		l9.09-25.46c1.16,0.34,2.29,0.58,3.4,0.71l0.03,27.33c0,0.71,0.58,1.32,1.32,1.32c0.74,0,1.32-0.61,1.32-1.32l-0.03-27.09
		c0.32,0.03,0.63,0.03,0.92,0.03c0.53,0,1.03-0.03,1.53-0.05c-0.05,0.24-0.05,0.5,0.05,0.74l9.46,23.69
		c0.21,0.53,0.71,0.84,1.24,0.84c0.16,0,0.32-0.03,0.47-0.11c0.69-0.26,1.03-1.03,0.74-1.71L127.77,182
		C128.21,181.94,128.64,181.86,129.03,181.78z"/>
	<path style="fill:#ECAA52;" d="M125.53,177.23l1.71,2.21c-0.16,0.03-0.29,0.03-0.45,0.05c-0.37,0.05-0.76,0.08-1.19,0.11
		c-0.58,0.05-1.19,0.08-1.82,0.08c-1.63,0-3.45-0.16-5.32-0.63c-0.5-0.13-1.03-0.26-1.55-0.45c-0.42-0.13-0.84-0.29-1.26-0.47
		c-0.32-0.13-0.63-0.26-0.95-0.42c-0.32-0.13-0.63-0.29-0.95-0.47c-0.32-0.18-0.66-0.37-0.98-0.55c-0.63-0.37-1.24-0.82-1.87-1.29
		c-0.61-0.45-1.24-1-1.84-1.61c-0.74-0.66-1.45-1.45-2.13-2.32c-0.03-0.03-0.05-0.05-0.08-0.08c-0.03-0.03-0.05-0.08-0.08-0.11
		l2.24-0.63c0.08,0.08,0.16,0.16,0.24,0.21c0.08,0.08,0.16,0.16,0.24,0.21c0.76,0.74,1.58,1.34,2.37,1.92
		c0.05,0.05,0.13,0.11,0.21,0.16c0.16,0.11,0.32,0.21,0.45,0.29c0.11,0.08,0.18,0.13,0.29,0.18c0.21,0.16,0.45,0.29,0.66,0.42
		c0.29,0.16,0.58,0.32,0.87,0.47c0.71,0.4,1.45,0.71,2.16,1c0.71,0.29,1.42,0.53,2.13,0.74c0.34,0.11,0.69,0.21,1.03,0.29
		c0.29,0.08,0.55,0.13,0.84,0.18c0.34,0.08,0.71,0.13,1.05,0.18c0.08,0.03,0.16,0.03,0.24,0.03c0.32,0.05,0.61,0.11,0.92,0.13
		c0.13,0.03,0.24,0.03,0.37,0.03c0.47,0.05,0.98,0.11,1.42,0.11c0.34,0.03,0.69,0.03,1,0.03H125.53z"/>
	<path style="fill:#D57430;" d="M118.46,168.03l4.98,6.48c-3.53-0.34-7.62-1.53-11.44-4.72L118.46,168.03z"/>
	<path style="fill:#ECAA52;" d="M156.02,203.26c-0.05,0.34-0.24,0.66-0.5,0.87l-2.9,2.08c-0.53,0.37-1.26,0.26-1.69-0.26
		l-33.02-42.98c-0.18-0.29-0.29-0.61-0.24-0.95c0.05-0.32,0.24-0.61,0.53-0.82c0.21-0.13,0.45-0.21,0.69-0.21
		c0.34,0,0.69,0.13,0.92,0.42l35.89,40.93C155.94,202.6,156.04,202.92,156.02,203.26z"/>
	<path d="M157.7,200.6l-27.59-31.44l0.45-0.11c0.37-0.08,0.66-0.29,0.84-0.61c0.18-0.29,0.26-0.66,0.16-1
		c-1-4.16-4.93-11.57-12.54-9.91c-0.34,0.08-0.66,0.32-0.84,0.61c-0.05,0.11-0.11,0.21-0.13,0.32v0.03
		c-0.47,0.08-0.95,0.26-1.37,0.55c-0.87,0.61-1.42,1.53-1.61,2.58c-0.11,0.74-0.03,1.48,0.29,2.13l-41.87,4.85
		c-1.21,0.16-2.32,0.79-3.03,1.77c-0.55,0.74-0.84,1.66-0.84,2.61c0,0.26,0.03,0.55,0.08,0.82l0.37,1.98
		c0.37,1.84,1.82,3.19,3.61,3.45c8.27,28.36,29.04,35.08,31.76,35.81c1.21,0.47,6.22,2.19,13.55,2.19c7.91,0,18.47-2,29.91-9.65
		c0.76,0.98,1.87,1.48,3.03,1.48c0.79,0,1.58-0.24,2.27-0.71l2.87-2.08c0.87-0.63,1.45-1.61,1.58-2.69
		C158.76,202.5,158.42,201.39,157.7,200.6z M122.92,160.23c0.18,0.03,0.34,0.08,0.5,0.16c0.84,0.34,1.55,0.87,2.19,1.48
		c0.16,0.16,0.32,0.32,0.45,0.47c0.13,0.13,0.24,0.26,0.34,0.4c0.08,0.11,0.16,0.21,0.24,0.34c0.24,0.26,0.4,0.53,0.55,0.79
		c0.24,0.37,0.45,0.71,0.61,1.05c0.34,0.69,0.61,1.34,0.82,1.87l-0.5,0.11l-6.01-6.88C122.39,160.07,122.65,160.12,122.92,160.23z
		 M106.84,171.38c-0.03-0.03-0.05-0.08-0.08-0.11l2.24-0.63c0.08,0.08,0.16,0.16,0.24,0.21c0.08,0.08,0.16,0.16,0.24,0.21
		c0.76,0.74,1.58,1.34,2.37,1.92c0.05,0.05,0.13,0.11,0.21,0.16c0.08,0.03,0.16,0.08,0.21,0.11c0.08,0.08,0.16,0.13,0.24,0.18
		c0.11,0.08,0.18,0.13,0.29,0.18c0.21,0.16,0.45,0.29,0.66,0.42c0.29,0.16,0.58,0.32,0.87,0.47c0.71,0.4,1.45,0.71,2.16,1
		c0.71,0.29,1.42,0.53,2.13,0.74c0.34,0.11,0.69,0.21,1.03,0.29c0.29,0.08,0.55,0.13,0.84,0.18c0.34,0.08,0.71,0.13,1.05,0.18
		c0.08,0.03,0.16,0.03,0.24,0.03c0.32,0.05,0.61,0.11,0.92,0.13c0.13,0.03,0.24,0.03,0.37,0.03c0.47,0.05,0.98,0.11,1.42,0.11
		c0.34,0.03,0.69,0.03,1,0.03h0.03l1.71,2.21c-0.16,0.03-0.29,0.03-0.45,0.05c-0.37,0.05-0.76,0.08-1.19,0.11
		c-0.58,0.05-1.19,0.08-1.82,0.08c-1.63,0-3.45-0.16-5.32-0.63c-0.5-0.13-1.03-0.26-1.55-0.45c-0.42-0.13-0.84-0.29-1.26-0.47
		c-0.32-0.11-0.63-0.26-0.95-0.42c-0.32-0.13-0.63-0.29-0.95-0.47c-0.32-0.16-0.63-0.34-0.98-0.55c-0.63-0.37-1.24-0.82-1.87-1.29
		c-0.61-0.45-1.24-1-1.84-1.61c-0.74-0.66-1.45-1.45-2.13-2.32C106.9,171.43,106.87,171.4,106.84,171.38z M122.39,174.38
		c-0.42-0.05-0.87-0.13-1.34-0.24c-0.32-0.05-0.63-0.13-0.95-0.21c-0.11-0.03-0.24-0.05-0.34-0.08c-0.24-0.08-0.47-0.16-0.74-0.24
		c-0.87-0.26-1.74-0.61-2.64-1.03c-0.21-0.11-0.42-0.18-0.63-0.32c-0.18-0.08-0.37-0.18-0.55-0.29c-0.34-0.18-0.66-0.37-1-0.61
		c-0.45-0.26-0.87-0.55-1.29-0.87c-0.13-0.11-0.29-0.24-0.42-0.34c-0.16-0.11-0.32-0.24-0.47-0.37l6.46-1.77l1.08,1.4l1.48,1.92
		l0.26,0.34l2.16,2.79C123.13,174.49,122.76,174.43,122.39,174.38z M72.85,175.86c-0.11-0.18-0.16-0.37-0.21-0.58l-0.37-1.98
		c-0.11-0.47,0.03-0.98,0.29-1.37c0.29-0.4,0.74-0.63,1.21-0.69l40.03-4.66l-4.77,1.32l-4.77,1.34h-0.05l-30.1,6.35
		c-0.34,0.08-0.66,0.29-0.84,0.61c0,0.03-0.03,0.03-0.03,0.05C73.08,176.15,72.95,176.01,72.85,175.86z M145.24,206.79
		c-0.61,0.37-1.21,0.74-1.79,1.05c-2.08,1.19-4.08,2.16-6.06,2.98c-1.05,0.45-2.11,0.84-3.11,1.16c-2.32,0.82-4.56,1.4-6.67,1.79
		c-0.63,0.13-1.24,0.24-1.84,0.32c-1.21,0.21-2.4,0.32-3.53,0.4c-8.75,0.63-14.76-1.48-15.92-1.92c-0.05,0-0.11-0.03-0.13-0.03
		c-0.58-0.16-2.24-0.66-4.56-1.79c-0.55-0.24-1.13-0.53-1.74-0.87c-2.4-1.29-5.27-3.16-8.22-5.8c-0.29-0.24-0.58-0.5-0.87-0.79
		c-2.24-2.11-4.53-4.69-6.69-7.83c-0.37-0.53-0.76-1.11-1.11-1.69c-0.32-0.5-0.63-1-0.95-1.53c-0.42-0.71-0.82-1.45-1.24-2.24
		c-0.21-0.42-0.45-0.84-0.66-1.29c-0.24-0.47-0.47-0.95-0.69-1.48c-0.29-0.61-0.58-1.24-0.82-1.9c-0.58-1.29-1.08-2.66-1.55-4.11
		c-0.21-0.61-0.42-1.21-0.58-1.82c-0.05-0.11-0.11-0.24-0.13-0.37c-0.13-0.4-0.24-0.76-0.34-1.16l27.96-5.93
		c0.58,0.82,1.21,1.61,1.87,2.32l-0.05,0.03l-19.84,8.25c-0.69,0.29-1,1.05-0.71,1.74c0.21,0.5,0.71,0.82,1.21,0.82
		c0.18,0,0.34-0.05,0.5-0.11l20.9-8.72h0.03c0.5,0.5,0.98,0.9,1.48,1.26l-16.34,16.08c-0.5,0.53-0.53,1.37,0,1.87
		c0.26,0.26,0.58,0.4,0.92,0.4c0.34,0,0.69-0.13,0.92-0.37l16.71-16.47c0.9,0.55,1.82,1,2.71,1.37l-9.09,25.46
		c-0.24,0.69,0.11,1.45,0.79,1.69c0.16,0.05,0.29,0.08,0.45,0.08c0.53,0,1.05-0.34,1.24-0.87l9.09-25.46
		c1.16,0.34,2.29,0.58,3.4,0.71l0.03,27.33c0,0.71,0.58,1.32,1.32,1.32c0.74,0,1.32-0.61,1.32-1.32l-0.03-27.09
		c0.32,0.03,0.63,0.03,0.92,0.03c0.53,0,1.03-0.03,1.53-0.05c-0.05,0.24-0.05,0.5,0.05,0.74l9.46,23.69
		c0.21,0.53,0.71,0.84,1.24,0.84c0.16,0,0.32-0.03,0.47-0.11c0.69-0.26,1.03-1.03,0.74-1.71L127.77,182
		c0.45-0.05,0.87-0.13,1.27-0.21l18.24,23.72C146.58,205.95,145.92,206.4,145.24,206.79z M155.52,204.13l-2.9,2.08
		c-0.47,0.34-1.16,0.29-1.58-0.16c-0.03-0.03-0.08-0.05-0.11-0.11l-1.5-1.95l-17.6-22.9l-1.24-1.63l-0.11-0.16l-0.34-0.45l-1.4-1.82
		l-1.92-2.48l-3.19-4.14l-0.32-0.4l-1.92-2.53v-0.03l-0.18-0.21l-0.95-1.24l-0.55-0.71l-0.21-0.29l-1.24-1.61l-0.34-0.45
		c-0.18-0.29-0.29-0.61-0.24-0.95c0.05-0.32,0.24-0.61,0.53-0.82c0.11-0.05,0.21-0.11,0.34-0.16c0.11-0.03,0.21-0.05,0.34-0.05
		c0.34,0,0.69,0.13,0.92,0.42l2.27,2.58l0.05,0.05l0.16,0.18l1.24,1.42l1.63,1.84l1.98,2.29l2.77,3.14l25.8,29.41
		c0.24,0.26,0.34,0.58,0.32,0.92C155.96,203.61,155.78,203.92,155.52,204.13z"/>
</g>
<g>
	<path style="fill:#FFFFFF;" d="M118.68,144.42c-0.29-5.82,0.81-11.36,1.9-17.3c0.48-2.63,2.4-12.15-3.28-10.93
		c-2.06,0.44-3.4,3.27-4.36,4.89c-2.1,3.55-3.64,7.36-4.62,11.28c-1.1,4.4-1.49,8.9-1.33,13.37
		C110.02,144.86,114.15,144.13,118.68,144.42z"/>
	<path style="fill:#0088C5;" d="M125.05,163.74c-0.04-0.06-0.08-0.12-0.12-0.19c-1.05-1.63-1.93-3.21-2.69-4.79
		c-1.08-2.26-1.89-4.54-2.49-7.01c-0.3-1.22-0.54-2.48-0.74-3.81c-0.18-1.19-0.27-2.36-0.33-3.52c-4.53-0.29-8.66,0.44-11.68,1.31
		c0.08,2.16,0.27,4.32,0.6,6.46c0.93,6.09,2.42,13.02,5.87,18.3c1.68,2.57,4.72,4.27,8.01,3.98c0.69-0.06,1.35-0.19,1.92-0.36
		c2.09-0.64,3.95-2.12,4.29-4.24c0.07-0.42,0.04-0.82-0.01-1.21C127.42,166.84,126.03,165.29,125.05,163.74z"/>
	<path d="M118.24,116.08c4.52,0,2.8,8.57,2.34,11.04c-1.09,5.94-2.19,11.48-1.9,17.3c0.06,1.16,0.15,2.33,0.33,3.52
		c0.2,1.33,0.45,2.6,0.74,3.81c0.6,2.47,1.41,4.75,2.49,7.01c0.76,1.58,1.63,3.16,2.69,4.79c0.04,0.06,0.08,0.12,0.12,0.19
		c0.99,1.55,2.37,3.1,2.63,4.92c0.05,0.39,0.08,0.79,0.01,1.21c-0.33,2.11-2.19,3.6-4.29,4.24c-0.57,0.17-1.24,0.3-1.92,0.36
		c-0.25,0.02-0.49,0.03-0.74,0.03c-3.01,0-5.72-1.63-7.27-4.01c-3.45-5.28-4.94-12.21-5.87-18.3c-0.33-2.14-0.52-4.3-0.6-6.46
		c-0.16-4.48,0.23-8.97,1.33-13.37c0.98-3.92,2.52-7.74,4.62-11.28c0.96-1.63,2.31-4.46,4.36-4.9
		C117.64,116.11,117.95,116.08,118.24,116.08 M118.24,112.91c-0.51,0-1.05,0.06-1.59,0.18c-3.18,0.68-4.92,3.73-6.06,5.75
		l-0.36,0.62c-2.23,3.76-3.9,7.84-4.96,12.13c-1.12,4.49-1.6,9.28-1.42,14.25c0.08,2.31,0.3,4.61,0.63,6.82
		c0.91,5.97,2.45,13.59,6.35,19.55c2.19,3.36,5.99,5.45,9.92,5.45c0.34,0,0.68-0.01,1.02-0.05c0.89-0.08,1.77-0.25,2.56-0.49
		c3.52-1.07,6-3.67,6.49-6.77c0.11-0.68,0.1-1.38,0-2.14c-0.3-2.15-1.48-3.84-2.43-5.2c-0.23-0.33-0.45-0.65-0.66-0.97l-0.13-0.2
		c-0.95-1.47-1.77-2.92-2.49-4.43c-0.98-2.05-1.72-4.15-2.27-6.39c-0.27-1.12-0.5-2.28-0.69-3.54c-0.14-0.93-0.24-1.95-0.3-3.2
		c-0.25-5.14,0.68-10.22,1.67-15.6l0.18-0.98l0.04-0.23c0.84-4.55,1.37-9.59-1.06-12.51C121.59,113.64,120.01,112.91,118.24,112.91
		L118.24,112.91z"/>
</g>
</svg>
