<?xml version="1.0" encoding="utf-8"?>
<!-- Generator: Adobe Illustrator 26.5.0, SVG Export Plug-In . SVG Version: 6.00 Build 0)  -->
<svg version="1.1" id="레이어_5" xmlns="http://www.w3.org/2000/svg" xmlns:xlink="http://www.w3.org/1999/xlink" x="0px"
	 y="0px" viewBox="0 0 210 180" style="enable-background:new 0 0 210 180;" xml:space="preserve">
<g>
	<g>
		<path style="fill:#B36F61;" d="M113.6,142.6c15.5,12,32.8,20.4,50,24.4c1.9,0.4,4,0.8,5.9,0.5c1.8-0.4,3.3-1.4,4.3-3.1
			c2.6-4.2,1.9-11.3,0.8-15.1c-2.6-8.8-11.5-18.3-16.3-23.4c-8.9-9.5-19.7-17.4-31.4-22.9c-9.5-4.5-22.5-10.6-31.8-1.6
			c-3.2,3.1-4.7,6.7-4.6,10.6c0.2,7.4,6.4,16.5,17.7,26.2C110.1,139.7,111.8,141.2,113.6,142.6z"/>
		<path d="M167.9,168.3c-1.5,0-3-0.3-4.4-0.6c-17.3-4-34.7-12.5-50.3-24.5l0,0c-1.8-1.4-3.6-2.9-5.3-4.3
			c-11.5-9.8-17.7-19.1-18-26.7c-0.1-4.2,1.5-7.9,4.8-11.1c9.5-9.3,22.8-3.1,32.5,1.5c11.8,5.5,22.7,13.5,31.6,23
			c4.8,5.1,13.8,14.7,16.4,23.7c1.1,3.9,1.8,11.2-0.8,15.6c-1.1,1.8-2.7,3-4.7,3.4C169.1,168.2,168.5,168.3,167.9,168.3z
			 M114.1,142.1c15.4,11.9,32.6,20.3,49.8,24.3c1.9,0.4,3.8,0.8,5.6,0.5c1.6-0.3,2.9-1.2,3.8-2.8c2.5-4,1.8-10.9,0.7-14.6
			c-2.5-8.7-11.4-18.1-16.1-23.2c-8.8-9.4-19.6-17.3-31.2-22.7c-9.3-4.4-22.1-10.4-31-1.7c-3,3-4.5,6.4-4.4,10.2
			c0.2,7.2,6.3,16.1,17.5,25.7C110.5,139.2,112.3,140.7,114.1,142.1L114.1,142.1z"/>
	</g>
	<g>
		<path style="fill:#A2503E;" d="M136.7,108.6c0.3,29.4-25.7,31.6-25.7,31.6l13.8,10.2c0,0,24.2-0.2,29.6-28.6
			c0,0-9.6-8.6-15.1-11.9L136.7,108.6z"/>
		<path d="M124.5,151l-15.3-11.3l1.7-0.2c0.1,0,6.5-0.6,12.7-4.7c8.4-5.5,12.5-14.3,12.4-26.2l0-1.1l3.5,1.7
			c5.6,3.3,14.9,11.7,15.2,12l0.3,0.2l-0.1,0.4c-5.4,28.6-30,29.1-30.3,29.1L124.5,151z M112.6,140.6l12.3,9.1
			c1.1-0.1,6.5-0.5,12.3-3.6c8.6-4.6,14.1-12.7,16.4-24.1c-1.6-1.4-9.8-8.7-14.7-11.6l-1.5-0.7C137,134.1,118.3,139.5,112.6,140.6z"
			/>
	</g>
	<g>
		<path style="fill:#A2503E;" d="M141.9,159.6c0,0,21-5.8,23.5-25.9c0,0,5.3,5.9,7.3,10.7c0,0,3.6,13.9-15.4,20.8L141.9,159.6z"/>
		<path d="M157.3,166c-0.1,0-0.2,0-0.2,0l-15.4-5.7c-0.3-0.1-0.4-0.4-0.4-0.6c0-0.3,0.2-0.5,0.5-0.6c0.2-0.1,20.6-5.9,23-25.3
			c0-0.3,0.2-0.5,0.5-0.6c0.2-0.1,0.5,0,0.7,0.2c0.2,0.2,5.4,6.1,7.4,10.9c0.1,0.2,3.5,14.6-15.8,21.7
			C157.4,166,157.4,166,157.3,166z M143.9,159.6l13.4,5c7.4-2.8,12.3-7.1,14.2-12.5c1.4-4.1,0.6-7.4,0.6-7.4
			c-1.4-3.4-4.6-7.5-6.2-9.4C163.1,151,148.9,157.7,143.9,159.6z"/>
	</g>
</g>
<g>
	<path style="fill:#B5FBFF;" d="M36.9,20c0.7,14.6,5.8,30.1,15.6,47.3c7.4,12.9,15.7,24.9,24.7,35.5c4.7,5.6,11.7,13,17.5,13
		c1.8,0,3.5-0.8,4.8-2.3c5.9-6.8,3.9-20,2.7-25.4c-4.5-21-14.7-44.5-28-64.6C68,14.4,60.2,7.1,51.5,2.5c-1.7-0.9-3.5-1.7-5.3-1.8
		c-3-0.1-5.9,1.9-7.5,5.4c-1.7,3.5-1.9,7.9-1.9,10.8C36.8,17.9,36.8,18.9,36.9,20z"/>
	<path style="fill:#ACE1FC;" d="M103.2,103.6c0.4-3.2-0.1-6.5-1.2-9.5c-1.8-4.5-3.8-9.1-6.1-13.8C80.4,49.3,59.4,28.4,49,33.8
		c-2.2,1.2-3.8,3.4-4.8,6.6c-1.3,4.5-0.7,9.3,1.4,13.5c7.5,14.7,30.5,56.9,49,62c0,0,5.7,1.1,8.3-10.5L103.2,103.6z"/>
	<path style="fill:#57B4DC;" d="M80.2,88.8c0,0.3-0.1,0.5-0.3,0.6c-0.3,0.2-0.7,0.1-0.9-0.2c-1.1-1.9-26.8-46-31.6-59.9
		c-0.1-0.4,0.1-0.7,0.4-0.9c0.3-0.1,0.7,0.1,0.8,0.4c4.8,13.8,31.3,59.2,31.5,59.6C80.1,88.6,80.2,88.7,80.2,88.8z"/>
	<path style="fill:#57B4DC;" d="M75.7,64.8c0,0.3-0.1,0.5-0.3,0.7c-0.3,0.2-0.7,0.1-0.9-0.2c-0.6-1.1-15.6-27.5-18.7-35.5
		c-0.1-0.3,0-0.7,0.4-0.9c0.3-0.1,0.7,0,0.9,0.4c3.1,7.9,18.5,35,18.6,35.3C75.7,64.7,75.7,64.8,75.7,64.8z"/>
	<path style="fill:#57B4DC;" d="M92.9,84c0,0.3-0.1,0.6-0.4,0.7c-0.3,0.2-0.7,0-0.9-0.3c-0.2-0.5-23.1-52.7-30.1-61.2
		c-0.2-0.3-0.2-0.7,0.1-0.9c0.3-0.2,0.7-0.2,0.9,0.1c7.2,8.6,29.4,59.4,30.3,61.5C92.9,83.8,92.9,83.9,92.9,84z"/>
	<path d="M102.8,108.6c-0.6,2-1.6,3.8-2.9,5.3c-1.5,1.7-3.3,2.6-5.3,2.5c-6.1,0-13.2-7.6-18-13.2c-9-10.7-17.3-22.6-24.7-35.6
		C42,50.3,36.9,34.7,36.2,20c0-1.1-0.1-2.1-0.1-3.2c0-3,0.2-7.5,1.9-11.1C39.8,2.1,43-0.1,46.2,0c1.9,0.1,3.8,0.9,5.6,1.9
		c8.8,4.7,16.7,12,22.9,21.3C88.1,43.3,98.3,66.9,102.8,88C103.7,92.3,105.1,101.5,102.8,108.6z M38.6,8.1c-1,3-1.1,6.3-1.1,8.7
		c0,1,0,2.1,0.1,3.1l0,0c0.7,14.5,5.8,29.8,15.5,47c7.4,12.9,15.6,24.8,24.6,35.4c4.6,5.5,11.4,12.8,17,12.8c1.6,0,3.1-0.7,4.3-2.1
		c5.7-6.6,3.7-19.5,2.6-24.8C97,67.4,86.9,43.9,73.6,24C67.5,14.8,59.8,7.6,51.2,3.1c-1.6-0.9-3.3-1.6-5-1.7c-2.7-0.1-5.4,1.8-6.9,5
		C39,6.9,38.8,7.5,38.6,8.1z"/>
</g>
<g>
	<path style="fill:#B5FBFF;" d="M192.4,69.7c-14.3-2.5-30.5-0.8-49.4,5.1c-14.2,4.4-27.6,10-40,16.5c-6.5,3.4-15.2,8.6-16.5,14.3
		c-0.4,1.8,0,3.6,1.2,5.2c5.3,7.2,18.6,8.1,24,8.1c21.4,0.2,46.5-4.8,68.9-13.5c10.3-4,19.1-10.1,25.5-17.6c1.2-1.4,2.4-3,2.9-4.8
		c0.8-2.9-0.6-6.2-3.5-8.6c-3-2.4-7.2-3.5-10.1-4.2C194.5,70,193.5,69.8,192.4,69.7z"/>
	<path style="fill:#ACE1FC;" d="M96.5,116.6c3,1,6.3,1.3,9.5,0.8c4.8-0.8,9.7-1.8,14.7-3c33.6-8.4,58.5-24.4,55.6-35.8
		c-0.6-2.4-2.5-4.5-5.3-6.1c-4.1-2.3-8.9-2.7-13.4-1.5c-15.9,4.2-62.1,17.6-71.1,34.6c0,0-2.3,5.4,8.4,10.4L96.5,116.6z"/>
	<path style="fill:#57B4DC;" d="M115.9,97.2c-0.3,0-0.5-0.2-0.6-0.5c-0.1-0.3,0.1-0.7,0.4-0.8c2.1-0.7,50.6-16.3,65.2-18.1
		c0.4,0,0.7,0.2,0.7,0.6c0,0.4-0.2,0.7-0.6,0.7c-14.5,1.7-64.4,17.9-64.9,18C116.1,97.2,116,97.2,115.9,97.2z"/>
	<path style="fill:#57B4DC;" d="M140.2,98c-0.3,0-0.5-0.2-0.6-0.5c-0.1-0.4,0.1-0.7,0.4-0.8c1.2-0.4,30.2-9.3,38.6-10.7
		c0.4-0.1,0.7,0.2,0.8,0.6c0.1,0.4-0.2,0.7-0.5,0.8c-8.4,1.3-38.1,10.5-38.4,10.6C140.4,98,140.3,98,140.2,98z"/>
	<path style="fill:#57B4DC;" d="M117.8,110.7c-0.3,0-0.5-0.2-0.6-0.5c-0.1-0.4,0.2-0.7,0.5-0.8c0.6-0.1,56.4-11.2,66.2-16.3
		c0.3-0.2,0.7,0,0.9,0.3c0.2,0.3,0,0.7-0.3,0.9c-10,5.2-64.2,16-66.5,16.4C118,110.7,117.9,110.7,117.8,110.7z"/>
	<path d="M102.3,118.7c-5.6-1-11.9-3.1-15.1-7.6c-1.3-1.8-1.8-3.7-1.3-5.7c1.4-5.9,10.3-11.3,16.9-14.7
		c12.4-6.5,25.9-12.1,40.1-16.5c20.4-6.4,37.7-7.9,52.8-4.5c2.9,0.6,7.2,1.8,10.4,4.3c3.2,2.5,4.6,6.1,3.8,9.2c-0.5,1.9-1.8,3.5-3,5
		c-6.5,7.6-15.4,13.8-25.8,17.8c-22.5,8.8-47.7,13.7-69.2,13.6C109.5,119.5,106,119.4,102.3,118.7z M192.3,70.3
		c-14.2-2.5-30.3-0.8-49.1,5.1c-14.2,4.4-27.6,10-39.9,16.4c-6.4,3.4-14.9,8.5-16.2,13.9c-0.4,1.6,0,3.2,1.1,4.7
		c5.1,7,18.1,7.8,23.5,7.9c21.3,0.2,46.4-4.7,68.7-13.5c10.2-4,18.9-10,25.3-17.4c1.2-1.4,2.3-2.9,2.8-4.5c0.7-2.7-0.5-5.7-3.3-7.9
		c-2.9-2.3-7-3.4-9.8-4C194.4,70.7,193.3,70.5,192.3,70.3z"/>
</g>
<g>
	<path style="fill:#AF895E;" d="M85.6,102.2c-7.2,0-13,3.6-16.5,10.2c-4.1,7.8-3.8,17.2,0.6,24.8c4,6.8,10.8,10.9,18.7,11.1
		c0.3,0,0.7,0,1,0c13.2,0,21.8-8.4,23.6-16.8c1.2-5.8-0.4-12.1-4.7-17.5c-5.3-6.8-13.9-11.5-21.8-11.8
		C86.2,102.2,85.9,102.2,85.6,102.2z"/>
	<path style="fill:#9A7344;" d="M67.2,117.5c0,0,8.1,8.1,20.3,2.2c0,0,10.9-3.7,12.8-12.9c0,0,9.1,4.7,12.3,15.1
		c0,0,5.4,16.6-11.7,24.1c0,0-20.5,9.1-31.1-8.7C69.8,137.2,64.4,128.5,67.2,117.5z"/>
	<path d="M89.4,149c-0.3,0-0.7,0-1,0c-8.1-0.3-15.1-4.4-19.3-11.5c-4.5-7.7-4.8-17.5-0.6-25.4c3.7-7.1,10.1-10.9,18-10.6
		c8.1,0.3,16.9,5.1,22.3,12c4.4,5.6,6.1,12,4.8,18.1C111.9,140.3,102.9,149,89.4,149z M85.6,102.9c-6.9,0-12.6,3.5-15.9,9.9
		c-4,7.6-3.7,16.8,0.6,24.1c3.9,6.6,10.5,10.6,18.1,10.8c13.4,0.4,22.2-8,23.9-16.3c1.2-5.7-0.4-11.7-4.5-17
		c-5.2-6.7-13.6-11.2-21.3-11.5C86.2,102.9,85.9,102.9,85.6,102.9z"/>
</g>
<g>
	<path style="fill:#B36F61;" d="M68.8,124.3c-4.2,0-8.7,1.5-12.4,4.5c0,0,0,0,0,0c-4.9,3.9-5.6,13.4-4.6,21c0.6,4.2,2.7,7.6,5.6,9.3
		c2.4,1.4,5.5,1.7,9.6,1.1c4.2-0.6,8.2-1.9,12-3.8c3.5-1.7,5.4-3.6,6.1-5.8c0.4-1.3,0.4-2.6,0.4-3.9c-0.1-5.5-1.4-15.5-8.7-20.1
		C74.5,125,71.7,124.3,68.8,124.3z"/>
	<path style="fill:#A2503E;" d="M51.4,144.8c0,0,22.5,4.8,25.5-18.3c0,0,8.3,3.3,8.7,20.1c0,0,2.8,10-18.5,13.5
		c0,0-14.5,3-15.6-13.1L51.4,144.8z"/>
	<path d="M63.4,161c-2.5,0-4.5-0.5-6.3-1.5c-3.1-1.8-5.4-5.4-6-9.8c-1.1-7.7-0.4-17.5,4.8-21.6c3.8-3,8.3-4.6,12.8-4.6
		c3.1,0,6,0.8,8.4,2.3c7.6,4.7,8.9,15,9.1,20.6c0,1.3,0,2.7-0.4,4.1c-0.8,2.4-2.9,4.4-6.5,6.2c-3.8,1.9-7.9,3.2-12.2,3.9
		C65.9,160.9,64.6,161,63.4,161z M68.8,125c-4.2,0-8.5,1.5-12,4.3c-4.7,3.8-5.3,13-4.3,20.3c0.5,3.9,2.5,7.2,5.3,8.8
		c2.3,1.3,5.2,1.6,9.2,1c4.1-0.6,8.1-1.9,11.8-3.7c3.3-1.6,5.1-3.4,5.8-5.4c0.4-1.2,0.4-2.4,0.3-3.6c-0.1-5.4-1.4-15.1-8.4-19.5
		C74.4,125.7,71.7,125,68.8,125z"/>
	<g>
		<path style="fill:#AF895E;" d="M59.4,129c-0.1-0.1-7-5.2-11.8-14.1l2.3-3.2c0.1-0.2,0.1-0.5-0.1-0.6c-0.2-0.1-0.5-0.1-0.6,0.1
			l-2.1,2.8c-0.9-1.7-1.6-3.5-2.3-5.4l2.4-2.5c0.2-0.2,0.2-0.4,0-0.6c-0.2-0.2-0.4-0.2-0.6,0l-2.1,2.2c-0.5-1.8-1-3.6-1.2-5.5
			l2.3-2.1c0.2-0.2,0.2-0.4,0-0.6c-0.2-0.2-0.4-0.2-0.6,0l-2.2,2.1l-2-1.4c-0.2-0.1-0.5-0.1-0.6,0.1c-0.1,0.2-0.1,0.5,0.1,0.6
			l2.1,1.5c0.3,1.9,0.7,3.8,1.2,5.5l-1.9-0.8c-0.2-0.1-0.5,0-0.6,0.2c-0.1,0.2,0,0.5,0.2,0.6l2.6,1.1c0.6,1.8,1.4,3.6,2.2,5.2
			l-3.1-1.1c-0.2-0.1-0.5,0-0.5,0.2c-0.1,0.2,0,0.5,0.2,0.5l4,1.5c4.9,9.1,11.9,14.4,12,14.5c0,0,0.1,0.1,0.2,0.1
			c0.2,0,0.3,0,0.4-0.2C59.6,129.4,59.6,129.1,59.4,129z"/>
		<path d="M40.4,100.1c0.1-0.1,0.4-0.2,0.5-0.1l2,1.4l2.2-2.1c0.2-0.2,0.4-0.2,0.6,0c0.2,0.2,0.2,0.4,0,0.6c0,0,0,0,0,0l-2.3,2.1
			c0.3,1.9,0.7,3.8,1.2,5.5l2.1-2.2c0,0,0,0,0,0c0.2-0.2,0.4-0.2,0.6,0c0.2,0.2,0.2,0.4,0,0.6l-2.4,2.5c0.6,1.9,1.4,3.7,2.3,5.4
			l2.1-2.8c0,0,0,0,0,0c0.1-0.1,0.4-0.2,0.6,0c0.2,0.1,0.2,0.4,0.1,0.6l-2.3,3.2c4.8,8.9,11.7,14,11.8,14.1c0.2,0.1,0.2,0.4,0.1,0.6
			c0,0,0,0,0,0c-0.1,0.1-0.3,0.1-0.4,0.1c-0.1,0-0.1,0-0.2-0.1c-0.1-0.1-7.2-5.3-12-14.5l-4-1.5c-0.2-0.1-0.3-0.3-0.2-0.5
			c0-0.1,0.1-0.1,0.1-0.1c0.1-0.1,0.3-0.2,0.5-0.1l3.1,1.1c-0.8-1.6-1.5-3.4-2.2-5.2l-2.6-1.1c-0.2-0.1-0.3-0.3-0.2-0.6
			c0,0,0-0.1,0.1-0.1c0.1-0.1,0.3-0.2,0.5-0.1l1.9,0.8c-0.5-1.7-0.9-3.6-1.2-5.5l-2.1-1.5C40.2,100.7,40.2,100.4,40.4,100.1
			C40.3,100.2,40.4,100.2,40.4,100.1 M39.4,99.2c-0.1,0.1-0.1,0.1-0.2,0.2c-0.3,0.4-0.4,0.8-0.3,1.3c0.1,0.5,0.3,0.9,0.7,1.1
			l1.7,1.2c0.1,0.8,0.3,1.7,0.5,2.6c-0.5,0-1,0.2-1.3,0.5c-0.1,0.1-0.3,0.3-0.3,0.5c-0.4,0.9,0,1.9,0.9,2.3l2,0.9
			c0.2,0.6,0.5,1.3,0.7,1.9l-0.1,0c-0.7-0.2-1.4-0.1-1.9,0.4c-0.2,0.2-0.3,0.4-0.4,0.6c-0.3,0.9,0.1,1.9,1,2.2l3.5,1.3
			c5.1,9.2,12.1,14.4,12.2,14.5c0.2,0.1,0.4,0.2,0.6,0.3c0.6,0.1,1.2,0,1.6-0.5l0.1-0.1l0.1-0.1c0.3-0.4,0.4-0.8,0.3-1.3
			c-0.1-0.5-0.3-0.9-0.7-1.1c-0.1,0-6.4-4.8-11-12.9l1.8-2.5c0.3-0.4,0.4-0.8,0.3-1.3c-0.1-0.5-0.3-0.9-0.7-1.1
			c-0.7-0.5-1.7-0.4-2.3,0.2l-0.1,0.1l-0.1,0.1l-0.8,1.1c-0.4-0.8-0.7-1.6-1-2.5l1.9-1.9c0.3-0.3,0.5-0.8,0.5-1.2
			c0-0.5-0.2-0.9-0.5-1.2c-0.7-0.7-1.8-0.6-2.5,0l-0.5,0.5c-0.2-0.8-0.3-1.6-0.5-2.4l1.8-1.7l0,0l0,0c0.7-0.7,0.7-1.7,0-2.4
			c-0.3-0.3-0.8-0.5-1.2-0.5c-0.5,0-0.9,0.2-1.3,0.5l-1.4,1.3L41.7,99C41,98.5,40,98.6,39.4,99.2L39.4,99.2z"/>
	</g>
	<g>
		<path style="fill:#AF895E;" d="M69,128.8c0-0.1,1.1-8.6-1.9-18.2l-3.9-0.6c-0.2,0-0.4-0.2-0.4-0.5c0-0.2,0.2-0.4,0.5-0.4l3.5,0.5
			c-0.6-1.8-1.4-3.6-2.3-5.4l-3.5,0c-0.2,0-0.4-0.2-0.4-0.4c0-0.2,0.2-0.4,0.4-0.4l3.1,0c-0.9-1.6-1.9-3.2-3.1-4.7l-3.1,0.1
			c-0.2,0-0.4-0.2-0.4-0.4c0-0.2,0.2-0.4,0.4-0.4l3-0.1l0.4-2.4c0-0.2,0.3-0.4,0.5-0.3c0.2,0,0.4,0.3,0.3,0.5l-0.4,2.6
			c1.2,1.5,2.2,3.1,3.1,4.7l0.7-1.9c0.1-0.2,0.3-0.3,0.5-0.2c0.2,0.1,0.3,0.3,0.2,0.5l-1,2.6c0.9,1.7,1.6,3.5,2.2,5.2l1.3-3
			c0.1-0.2,0.3-0.3,0.6-0.2c0.2,0.1,0.3,0.3,0.2,0.6l-1.7,3.8c3.1,9.9,2,18.6,1.9,18.7c0,0.1,0,0.1-0.1,0.2
			c-0.1,0.1-0.2,0.2-0.4,0.2C69.2,129.2,69,129,69,128.8z"/>
		<path d="M61.7,95C61.7,95,61.8,95,61.7,95c0.3,0,0.5,0.3,0.4,0.5l-0.4,2.6c1.2,1.5,2.2,3.1,3.1,4.7l0.7-1.9
			c0.1-0.2,0.2-0.3,0.4-0.3c0,0,0.1,0,0.1,0c0.2,0.1,0.3,0.3,0.2,0.5l-1,2.6c0.9,1.7,1.6,3.5,2.2,5.2l1.3-3c0.1-0.2,0.2-0.3,0.4-0.3
			c0.1,0,0.1,0,0.2,0c0.2,0.1,0.3,0.3,0.2,0.6l-1.7,3.8c3.1,9.9,2,18.6,1.9,18.7c0,0.1,0,0.1-0.1,0.2c-0.1,0.1-0.2,0.2-0.4,0.2
			c0,0,0,0-0.1,0c-0.2,0-0.4-0.2-0.4-0.5c0-0.1,1.1-8.6-1.9-18.2l-3.9-0.6c-0.2,0-0.4-0.2-0.4-0.5c0-0.2,0.2-0.4,0.4-0.4
			c0,0,0,0,0.1,0l3.5,0.5c-0.6-1.8-1.4-3.6-2.3-5.4l-3.5,0c-0.2,0-0.4-0.2-0.4-0.4c0-0.2,0.2-0.4,0.4-0.4c0,0,0,0,0,0l3.1,0
			c-0.9-1.6-1.9-3.2-3.1-4.7l-3.1,0.1c0,0,0,0,0,0c-0.2,0-0.4-0.2-0.4-0.4c0-0.2,0.2-0.4,0.4-0.4l3-0.1l0.4-2.4
			C61.3,95.2,61.5,95,61.7,95 M61.7,93.7c-0.9,0-1.6,0.6-1.7,1.5l-0.2,1.3l-1.9,0.1c-0.5,0-0.9,0.2-1.2,0.6
			c-0.3,0.3-0.5,0.8-0.5,1.3c0,0.9,0.8,1.7,1.8,1.7h0l0,0l2.4-0.1c0.5,0.7,1,1.3,1.4,2l-0.7,0c-1,0-1.8,0.8-1.8,1.7
			c0,0.5,0.2,0.9,0.5,1.2c0.3,0.3,0.8,0.5,1.2,0.5l2.7,0c0.4,0.8,0.7,1.6,1.1,2.4l-1.3-0.2l-0.1,0l-0.2,0c-0.9,0-1.6,0.6-1.7,1.5
			c-0.1,0.5,0.1,0.9,0.3,1.3c0.3,0.4,0.7,0.6,1.2,0.7l3.1,0.4c2.6,9,1.6,16.8,1.6,16.9c-0.1,0.5,0.1,0.9,0.3,1.3
			c0.3,0.4,0.7,0.6,1.2,0.7l0.1,0l0.2,0c0.6,0,1.2-0.3,1.5-0.8c0.1-0.2,0.2-0.4,0.2-0.7c0-0.1,1.2-8.8-1.8-18.8l1.5-3.4
			c0.4-0.9,0-1.9-0.9-2.3c-0.2-0.1-0.5-0.2-0.7-0.2c-0.7,0-1.3,0.4-1.6,1l0,0.1c-0.3-0.6-0.6-1.2-0.9-1.8l0.8-2.1
			c0.3-0.9-0.1-1.9-1-2.2c-0.2-0.1-0.4-0.1-0.6-0.1c-0.5,0-1,0.2-1.3,0.6c-0.5-0.7-1-1.4-1.5-2.1l0.3-2c0.1-0.5,0-0.9-0.3-1.3
			c-0.3-0.4-0.7-0.6-1.1-0.7C61.9,93.7,61.8,93.7,61.7,93.7L61.7,93.7z"/>
	</g>
	<g>
		<g>
			<ellipse style="fill:#FFFFFF;" cx="43.8" cy="143.1" rx="14.7" ry="14.7"/>
			<path style="fill:#251814;" d="M43.8,158.5c-8.5,0-15.4-6.9-15.4-15.3s6.9-15.3,15.4-15.3s15.4,6.9,15.4,15.3
				S52.3,158.5,43.8,158.5z M43.8,129.2c-7.7,0-14,6.3-14,14c0,7.7,6.3,14,14,14s14-6.3,14-14C57.9,135.4,51.6,129.2,43.8,129.2z"/>
		</g>
		<ellipse style="fill:#251814;" cx="39.7" cy="144.9" rx="5.6" ry="5.6"/>
	</g>
	<g>
		<polygon style="fill:#B36F61;" points="50.2,152.6 0.7,179.3 60.2,162.4 		"/>
		<path d="M0.7,180c-0.3,0-0.5-0.2-0.6-0.4c-0.1-0.3,0-0.7,0.3-0.8l49.5-26.7c0.3-0.1,0.6-0.1,0.8,0.1l10,9.8
			c0.2,0.2,0.2,0.4,0.2,0.6c-0.1,0.2-0.2,0.4-0.5,0.5L0.8,180C0.8,180,0.7,180,0.7,180z M50.1,153.5L6.3,177l52.6-14.9L50.1,153.5z"
			/>
	</g>
	<g>
		<g>
			<ellipse style="fill:#FFFFFF;" cx="63.8" cy="148.5" rx="14.7" ry="14.7"/>
			<path style="fill:#251814;" d="M63.8,163.8c-8.5,0-15.4-6.9-15.4-15.3c0-8.4,6.9-15.3,15.4-15.3s15.4,6.9,15.4,15.3
				C79.2,156.9,72.3,163.8,63.8,163.8z M63.8,134.5c-7.7,0-14.1,6.3-14.1,14c0,7.7,6.3,14,14.1,14c7.7,0,14-6.3,14-14
				C77.9,140.7,71.6,134.5,63.8,134.5z"/>
		</g>
		<ellipse style="fill:#251814;" cx="59.6" cy="150.2" rx="5.6" ry="5.6"/>
	</g>
	<g>
		<path style="fill:#A2503E;" d="M16.5,170.8c0,0,2.5,1,1.1,3.7l-16.9,4.8L16.5,170.8z"/>
		<path d="M0.7,180c-0.3,0-0.5-0.2-0.6-0.4c-0.1-0.3,0-0.7,0.3-0.8l15.8-8.5c0.2-0.1,0.4-0.1,0.6,0c0.1,0,1.3,0.6,1.7,1.8
			c0.3,0.8,0.2,1.8-0.3,2.8c-0.1,0.2-0.2,0.3-0.4,0.3L0.8,180C0.8,180,0.7,180,0.7,180z M16.4,171.6L6.3,177l10.7-3.1
			c0.2-0.6,0.3-1.1,0.1-1.5C17,172,16.7,171.7,16.4,171.6z"/>
	</g>
	<g>
		<path style="fill:#A2503E;" d="M28,164.6c0,0,4.2,2,2.4,6.2l9.8-2.7c0,0,3.1-5.6-3-8.5L28,164.6z"/>
		<path d="M30.4,171.5c-0.2,0-0.4-0.1-0.5-0.2c-0.2-0.2-0.2-0.5-0.1-0.7c1.5-3.6-2-5.3-2.1-5.4c-0.2-0.1-0.4-0.3-0.4-0.6
			s0.1-0.5,0.3-0.6l9.3-5c0.2-0.1,0.4-0.1,0.6,0c2,0.9,3.3,2.3,3.9,3.9c0.9,2.7-0.5,5.3-0.6,5.4c-0.1,0.2-0.2,0.3-0.4,0.3l-9.8,2.7
			C30.5,171.5,30.5,171.5,30.4,171.5z M29.3,164.7c1.3,1,2.6,2.8,2.1,5.2l8.4-2.3c0.3-0.6,0.9-2.4,0.3-4.1c-0.4-1.2-1.4-2.2-2.9-3
			L29.3,164.7z"/>
	</g>
</g>
</svg>
