<?xml version="1.0" encoding="utf-8"?>
<!-- Generator: Adobe Illustrator 23.0.2, SVG Export Plug-In . SVG Version: 6.00 Build 0)  -->
<svg version="1.1" id="레이어_1" xmlns="http://www.w3.org/2000/svg" xmlns:xlink="http://www.w3.org/1999/xlink" x="0px"
	 y="0px" viewBox="0 0 239 386" style="enable-background:new 0 0 239 386;" xml:space="preserve">
<style type="text/css">
	.st0{fill:#FFFFFF;}
	.st1{fill:#673101;}
	.st2{fill:#00A2E7;}
	.st3{fill:#008AC4;}
	.st4{fill:#FFC0BB;}
</style>
<title>자산 9</title>
<g>
	<path class="st0" d="M147.1,76.6c0.1,0,0.2-0.1,0.3-0.2c4.5-2.4,6.2-8,3.8-12.5c-1.9-3.6-1.5-8.9-1.3-10.5c0.4-1.5,1.3-3.8,2.6-4.3
		c3.1-1.1,10,1.9,13.7,4.4c4.2,2.9,9.9,1.8,12.8-2.3l0,0c2.9-4.2,1.9-9.9-2.3-12.9c-1.7-1.2-17-11.6-30.5-6.6
		c-4.9,1.8-11.3,6.2-14.2,17.3l-0.1,0.6c-0.2,1.3-2.3,13,3,23.1C137.2,77,142.6,78.8,147.1,76.6z"/>
	<path class="st1" d="M163.6,47.7c0.6-0.3,1.4-0.4,2.1-0.3c-0.9-0.3-1.7-1-2.1-1.9c-0.9-1.8-0.2-4.1,1.7-5c0.8-0.4,1.8-0.5,2.6-0.2
		c-0.8-0.3-1.5-0.9-1.9-1.7c-0.9-1.8-0.2-4.1,1.6-5l0,0c0.2-0.1,0.3-0.1,0.5-0.1c3,1.3,5.8,2.8,8.5,4.7c4.2,3,5.2,8.7,2.3,12.9
		s-8.6,5.3-12.8,2.4l0,0c-1.4-1-3-1.8-4.6-2.5C161.7,49.6,162.4,48.3,163.6,47.7z"/>
</g>
<g>
	<path class="st0" d="M94.1,75.8l-0.3-0.1c-4.7-1.9-7-7.3-5.1-12.1c1.5-3.7,0.5-9,0.1-10.6c-0.6-1.4-1.7-3.6-3.1-3.9
		c-3.2-0.8-9.8,3-13.1,5.9c-3.8,3.3-9.6,3-12.9-0.8c0,0,0,0-0.1-0.1c-3.4-3.9-3-9.7,0.9-13.1C62,39.7,76.1,27.6,90,31
		c5,1.2,11.9,5,16,15.6l0.2,0.6c0.4,1.3,3.8,12.6-0.5,23.3C103.9,75.1,98.8,77.5,94.1,75.8z"/>
	<path class="st1" d="M74.4,49c-0.7-0.2-1.4-0.3-2.1-0.1c0.9-0.4,1.6-1.2,1.9-2.1c0.7-1.9-0.3-4-2.2-4.7c-0.9-0.3-1.8-0.3-2.6,0.1
		c0.8-0.4,1.4-1.1,1.7-1.9c0.7-1.9-0.3-4.1-2.2-4.8c-0.2,0-0.4-0.1-0.5-0.1C65.6,37,63,38.9,60.5,41c-3.8,3.4-4.2,9.2-0.8,13.1
		c3.3,3.8,9.1,4.3,12.9,1c0,0,0,0,0.1-0.1c1.3-1.1,2.7-2.1,4.2-3C76.6,50.6,75.7,49.5,74.4,49z"/>
</g>
<g>
	<path class="st2" d="M63.6,334.4c0,0,4-7.2,13.9-9.9c0,0,9.4-2.1,17.8-1c-5.6-12.1-9.3-24.9-10.9-38.1c2.9-1.1,6.1-1.3,9.2-0.8
		c1.4,13.1,18.4,60.3,18.4,60.3l-49.1,10.6C62.9,355.4,56.8,346.4,63.6,334.4z"/>
	<g>
		<path class="st3" d="M76.5,333.2l1.5-3.4c-0.5-0.2-4.4-1.5-10.7,0.2c-1.4,1.2-2.7,2.7-3.7,4.3c-0.2,0.4-0.3,0.7-0.6,1.2
			C67,332.8,71.9,331.9,76.5,333.2z"/>
		<path class="st3" d="M73.7,344.3l1.8-4c-0.6-0.3-5.7-2.3-14.8,1.9c-0.3,1.5-0.4,3-0.3,4.5c0,0.2,0,0.4,0,0.6
			C69.1,342.6,73.7,344.2,73.7,344.3z"/>
	</g>
	<path class="st0" d="M84.4,285.3c-1.8-16.5,0.3-33.2,7.2-50.8c2.5-6.4,10.6-0.9,8.1,5.5c-5.7,14.1-7.8,29.3-6.1,44.4
		C90.5,284,87.4,284.3,84.4,285.3z"/>
</g>
<g>
	<path class="st2" d="M140.7,297.7L140.7,297.7c6.4-9,10.8-22.8,10.4-32.6l8.9-0.9c0,5.2-0.4,10.4-1.3,15.6c-0.7,4.7-4,12.8-5.8,17
		l0.5,0.2c8.1,2.6,15.7,8.7,15.7,8.7c7.7,6.8,8.2,15,8.2,15c0.9,13.8-8.5,19.1-8.5,19.1L130.5,310L140.7,297.7z"/>
	<g>
		<path class="st3" d="M166.8,314.5c4.4,1.1,8.1,3.9,10.4,7.8c0-0.5,0.1-0.9,0-1.5c-0.2-1.8-0.6-3.5-1.3-5.2
			c-4.5-4.2-8.4-4.9-8.9-4.9L166.8,314.5z"/>
		<path class="st3" d="M164.3,321.1l-0.3,4.4c0.1,0,4.7,0.7,10.1,8.5c0.9-1.4,1.6-3,2.1-4.6C170.2,321.8,164.9,321.2,164.3,321.1z"
			/>
	</g>
	<path class="st0" d="M150.9,262.7c-1-9.8-3.3-19.1-5.7-28.5c-1.7-6.8,7.1-10.3,8.9-3.5c2.9,11.4,5.6,22.3,5.9,33.6l-8.9,0.9
		C151,264.3,151,263.5,150.9,262.7z"/>
</g>
<g>
	<path class="st0" d="M72.1,140.9c-0.4-0.8-4.3-7.4-11-3.2c0,0-11.3,3.5-21.4,23.5c-3.1,6.1-5.5,12.5-7.2,19.2
		c-2.3,8.6-3.2,17.6-2.5,26.5s7.1,17.7,13.4,16.2c7.2-1.7,6.3-9.3,5.7-22.4c-0.1-4.4,0.2-8.8,0.9-13.2c1.8-11.7,6.6-25.6,16.5-34.7
		C72.7,147,72.4,141.8,72.1,140.9z"/>
	<path class="st3" d="M32.4,180.4c-2.3,8.6-3.2,17.6-2.5,26.5s7.1,17.7,13.4,16.2c7.2-1.7,6.3-9.3,5.7-22.4
		c-0.1-4.4,0.2-8.8,0.9-13.2C40.2,188.1,35.1,184.2,32.4,180.4z"/>
</g>
<g>
	<path class="st0" d="M208,175.9c-1.1-4.3-2.7-8.4-4.9-12.3c-16.9-31.3-30.1-27-30.1-27c-2.8,0-5.1,2.1-3.7,6.5
		c1.5,4.6,3.6,5.7,6.8,9s6,5.4,11.2,15.1c1.7,3.3,3,6.9,3.6,10.6c1.1,5.5,0.7,11.2-1,16.5c-2.4,6.7-11.3,14.1-7.8,20
		s10.9,4.1,13.1,2.4C197.3,215.3,214.2,200.2,208,175.9z"/>
	<path class="st3" d="M190.1,194.4c-2.4,6.7-11.3,14.1-7.8,20s10.9,4.1,13.1,2.4c1.9-1.4,18.8-16.6,12.6-40.9
		c-8.5-2.4-13.8-0.5-16.9,2C192.1,183.3,191.8,189,190.1,194.4z"/>
</g>
<g>
	<path class="st2" d="M119,48.7C64.8,48.6,62.5,92,62.5,92v115.5c0,20.9,25.3,37.8,56.5,37.8s56.5-16.9,56.5-37.8v-115
		C176.6,47.1,119,48.7,119,48.7z"/>
	<path class="st3" d="M136.9,174.3c0.2-9.9-7.6-18.1-17.5-18.4c-9.9-0.2-18.1,7.6-18.4,17.5c0,0.3,0,0.6,0,0.8v28.2l0,0
		c-0.7,9.9,6.7,18.6,16.6,19.3s18.6-6.7,19.3-16.6c0.1-0.9,0.1-1.8,0-2.7V174.3L136.9,174.3z"/>
</g>
<path class="st0" d="M174.3,93.5c-0.9-25.6-19.9-35.8-35.8-39.4c-2-0.5-8.4-1.6-9.9-1.7c-3.8-0.4-7.6-0.6-11.4-0.5
	c-29.1,0.3-52.7,21.5-53.4,47.9l0,0c0,0-5.1,41.9,42.5,49.5c3.8,0.6,7.6,0.8,11.5,0.8h34.1c16.9,0,31.6-16.1,31.6-33l0,0
	C183.5,107.3,181.5,99.1,174.3,93.5z"/>
<g>
	<path class="st4" d="M102.2,112.4c-0.1,8.7-7.2,15.7-15.8,15.6s-15.7-7.2-15.6-15.8s7.1-15.6,15.7-15.6
		C95.2,96.6,102.2,103.7,102.2,112.4z"/>
	<path class="st4" d="M179,112.4c-0.1,8.7-7.2,15.7-15.8,15.6c-8.7-0.1-15.7-7.2-15.6-15.8c0.1-8.6,7.1-15.6,15.7-15.6
		C172,96.6,179,103.7,179,112.4z"/>
</g>
<g>
	<path d="M126.3,107.6c-0.1,1.2-1.2,2.1-2.4,2c-1.2-0.1-2.1-1.2-2-2.4c0.1-1.1,1.1-2,2.2-2C125.4,105.2,126.4,106.3,126.3,107.6z"/>
	<path d="M144.3,113.9c-1.1-0.5-2.1,0.5-2.7,1.2c-3.9,4.3-9.2,5.1-13.7,1.7c-0.9-0.8-1.6-1.7-2.1-2.8c-0.4-0.8-0.5-1.4-1.7-1.6
		c-1.1,0.2-1.2,0.8-1.7,1.6c-0.5,1.1-1.2,2-2.1,2.8c-4.6,3.4-9.8,2.6-13.7-1.7c-0.6-0.7-1.5-1.7-2.7-1.2c-0.7,0.7-0.8,2,0.2,3.2
		c1.8,2.8,4.7,4.6,8,4.9c4.4,0.6,8.8-0.8,12-3.9c3.2,3.1,7.6,4.6,12,3.9c3.3-0.3,6.2-2.1,8-4.9C145.1,115.8,145,114.6,144.3,113.9z"
		/>
	<path d="M109.1,97.7L109.1,97.7c2,0,3.6,1.6,3.6,3.6v0.5c0,2-1.6,3.6-3.6,3.6l0,0c-2,0-3.6-1.6-3.6-3.6v-0.5
		C105.5,99.3,107.1,97.7,109.1,97.7z"/>
	<path d="M137.4,97.7L137.4,97.7c2,0,3.6,1.6,3.6,3.6v0.5c0,2-1.6,3.6-3.6,3.6l0,0c-2,0-3.6-1.6-3.6-3.6v-0.5
		C133.8,99.3,135.4,97.7,137.4,97.7z"/>
</g>
</svg>
