<svg id="레이어_1" data-name="레이어 1" xmlns="http://www.w3.org/2000/svg" viewBox="0 0 240 240"><defs><style>.cls-1{fill:#261e13;}.cls-2{fill:#542514;}.cls-3{fill:#75381c;}.cls-4{fill:#381a11;}.cls-5{fill:#4ed8be;}.cls-6{fill:#2eaf96;}.cls-7{fill:#ace2d3;}.cls-8{fill:#80c1ab;}.cls-9{fill:none;}.cls-10{fill:#3a2e25;}.cls-11{fill:#261e17;}.cls-12{fill:#6dccae;}.cls-13{fill:#bfe1ba;}.cls-14{fill:#51433a;}.cls-15{opacity:0.4;}.cls-16{fill:#14100d;}.cls-17{opacity:0.63;}.cls-18{fill:#cbf4e8;}.cls-19{fill:#17120f;}</style></defs><path class="cls-1" d="M31.32,111.35s22.59,80.49,27.3,91.32c0,0,15.85,36.69,71.08,29.66,51.79-6.59,54.61-35.31,54.61-35.31l21.18-73.43Z"/><path class="cls-2" d="M30.73,111s7.49,26.7,14.75,51.41l-7.32-30.93a4,4,0,0,1,7.74-1.83L65,210.57a3.85,3.85,0,0,1,0,1.91,57.33,57.33,0,0,0,6.43,6.15L58.3,148.57a4,4,0,1,1,7.81-1.46l14.12,75.32a4,4,0,0,1-.16,2,61.2,61.2,0,0,0,7,3.32l-3.65-73a4,4,0,0,1,7.94-.39l3.7,74a4,4,0,0,1-.41,1.92,75.81,75.81,0,0,0,11.66,2.11l3.68-72a4,4,0,0,1,7.94.4l-3.69,72a100.85,100.85,0,0,0,11.16-.48,3.9,3.9,0,0,1-.22-2.15L138,158.91a4,4,0,1,1,7.82,1.4l-12.74,71.08c3.2-.51,6.2-1.09,9-1.76a1.7,1.7,0,0,1,0-.22l23.54-77.68a4,4,0,1,1,7.6,2.31l-22.12,73a74.39,74.39,0,0,0,10-4.23L190,138a4,4,0,1,1,7.53,2.55l-25.46,75c10.75-9.35,11.69-18.92,11.69-18.92l21.18-73.43Z"/><path class="cls-3" d="M65,210.57,45.9,129.62a4,4,0,0,0-7.74,1.83l7.32,30.93C50.82,180.58,56,197.7,58,202.29a42.74,42.74,0,0,0,7,10.19A3.85,3.85,0,0,0,65,210.57Z"/><path class="cls-3" d="M80.23,222.43,66.11,147.11a4,4,0,1,0-7.81,1.46l13.13,70.06a58.24,58.24,0,0,0,8.64,5.82A4,4,0,0,0,80.23,222.43Z"/><path class="cls-3" d="M91.39,154.37a4,4,0,0,0-7.94.39l3.65,73a65.38,65.38,0,0,0,7.58,2.5,4,4,0,0,0,.41-1.92Z"/><path class="cls-3" d="M114.19,156.65a4,4,0,0,0-4.17,3.77l-3.68,72c2.52.26,5.16.42,7.93.45l3.69-72A4,4,0,0,0,114.19,156.65Z"/><path class="cls-3" d="M142.6,155.7a4,4,0,0,0-4.61,3.21L125.21,230.2a3.9,3.9,0,0,0,.22,2.15c1.21-.11,2.43-.24,3.68-.4s2.67-.36,4-.56l12.74-71.08A4,4,0,0,0,142.6,155.7Z"/><path class="cls-3" d="M170.62,149.08a4,4,0,0,0-5,2.65l-23.54,77.68a1.7,1.7,0,0,0,0,.22c3.27-.77,6.28-1.64,9.06-2.59l22.12-73A4,4,0,0,0,170.62,149.08Z"/><path class="cls-3" d="M195,135.53a4,4,0,0,0-5,2.49l-28.78,84.79A54,54,0,0,0,172,215.56l25.46-75A4,4,0,0,0,195,135.53Z"/><path class="cls-4" d="M198.09,138.19a4,4,0,0,0-7.71-1.61l-3.82,11.26a76.65,76.65,0,0,1-13.49,6.84l.63-2.08a4,4,0,1,0-7.61-2.31l-2.26,7.48a121.54,121.54,0,0,1-18,3.52l.43-2.42a4,4,0,1,0-7.82-1.4l-.82,4.56c-5.29.35-10.86.45-16.75.28l-2.61-.11.15-2.82a4,4,0,0,0-7.94-.41l-.14,2.71a158.33,158.33,0,0,1-18.18-2.62l-.31-6.13a4,4,0,1,0-7.93.39l.19,3.83a114.65,114.65,0,0,1-16.46-5.72l-1.08-5.76a4,4,0,0,0-7.83,1.25,74,74,0,0,1-9.47-6.43l-2.91-12.31a4,4,0,0,0-7.84,1,45.49,45.49,0,0,1-3.31-5.47c1.25,4.38,2.71,9.52,4.29,15,.54.71,1.11,1.41,1.69,2.11a61.06,61.06,0,0,0,10.45,9.64,79.13,79.13,0,0,0,8.8,5.57,96.13,96.13,0,0,0,8.88,4.25,115.23,115.23,0,0,0,15.2,5.13q3.92,1,8,1.88a156.87,156.87,0,0,0,17.36,2.5q3.89.36,7.93.54c1,0,2,.09,3,.12,5.34.15,10.42.08,15.27-.19q4.21-.24,8.19-.68a125.81,125.81,0,0,0,16.83-2.95c3.21-.81,6.24-1.74,9.14-2.77a81.89,81.89,0,0,0,12.79-5.76,64.36,64.36,0,0,0,11.05-7.82,56.13,56.13,0,0,0,4.17-4.13L202,133.46A51.5,51.5,0,0,1,198.09,138.19Z"/><path class="cls-5" d="M211.55,106.43c0,31.42-29.07,58.7-90.15,56.89-53.83-1.6-90.15-25.47-90.15-56.89S71.61,49.54,121.4,49.54,211.55,75,211.55,106.43Z"/><path class="cls-5" d="M134,125.17C102,128.48,84.54,113.45,94.76,84c3.35-9.65,41.1-34.49,25.83-34.49C70.8,49.49,30.44,75,30.44,106.38s36.32,55.29,90.15,56.89c28.08.83,49.38-4.5,64.21-13.54l.46-1C141.65,161.94,134,125.17,134,125.17Z"/><path class="cls-6" d="M46.87,120.14c4.27-12.16,26.94-10.37,26.94-10.37L87.59,62.34,86.41,52c-33.25,8.38-56.74,28.88-56.74,52.85,0,12.69,5.93,24.15,16.53,33.41C45.45,131.24,45.36,124.43,46.87,120.14Z"/><path class="cls-7" d="M189.76,81.48c0,24.79-21,46.87-65,44.88-53.06-2.41-65-20.09-65-44.88s29.11-44.88,65-44.88S189.76,56.7,189.76,81.48Z"/><path class="cls-6" d="M124.41,120.19c-50-2.27-63.49-18.12-64.87-40.7-.08.89-.13,1.78-.13,2.68,0,24.78,12,42.47,65,44.87,44,2,65-20.09,65-44.87a29.39,29.39,0,0,0-.18-3.13C187.23,102.26,166.21,122.08,124.41,120.19Z"/><path class="cls-8" d="M99.11,78.53l21.35-41.82c-33.89,1.53-60.71,21-60.71,44.77a47.61,47.61,0,0,0,3,17.78c.43-1.53-.23-1.42-.21-3.28C62.78,71.07,99.11,78.53,99.11,78.53Z"/><path class="cls-7" d="M172,57.14c0,13.93-14.45,26.35-44.76,25.23C90.68,81,82.46,71.07,82.46,57.14s20-25.24,44.75-25.24S172,43.2,172,57.14Z"/><path class="cls-9" d="M114.86,11.52l-.35,0Z"/><path class="cls-9" d="M119.82,11.28h0Z"/><path class="cls-9" d="M112.26,11.81l-.2,0Z"/><path class="cls-9" d="M92.62,18.79l0,0Z"/><path class="cls-9" d="M105.19,13.26l-.25.07Z"/><path class="cls-9" d="M102.89,14l-.19.06Z"/><path class="cls-9" d="M94.55,17.64l-.09.05Z"/><path class="cls-9" d="M96.52,16.59l-.07,0Z"/><path class="cls-9" d="M107.51,12.68l-.21,0Z"/><path class="cls-9" d="M191.55,76.15c0-.33,0-.66,0-1C191.57,75.49,191.56,75.82,191.55,76.15Z"/><path class="cls-9" d="M117.49,11.34l-.38,0Z"/><path class="cls-10" d="M92.62,18.79c.6-.38,1.21-.75,1.84-1.1l.09-.05c.63-.35,1.26-.69,1.9-1l.07,0A48.59,48.59,0,0,1,102.7,14l.19-.06c.67-.22,1.36-.43,2-.63l.25-.07c.69-.19,1.4-.37,2.11-.54l.21,0c1.48-.34,3-.62,4.55-.84l.2,0c.74-.1,1.49-.18,2.25-.26l.35,0c.74-.07,1.49-.12,2.25-.16l.38,0c.77,0,1.54-.05,2.33-.06h.3c.82,0,1.65,0,2.49,0,1.87.06,3.71.19,5.53.39,1.21.14,2.42.3,3.6.49s2.37.41,3.54.66,2.31.52,3.45.82,2.27.62,3.38,1c.56.17,1.11.35,1.66.54,1.1.38,2.18.78,3.25,1.2C173.79,27,191.57,52.21,191.57,75.12v0c0,.33,0,.66,0,1s0,.48,0,.71a32.22,32.22,0,0,0,.35-4.79c0-29.32-24.76-64-64.58-65.42-17.32-.59-31,5.65-39.94,16h0a45.13,45.13,0,0,1,5.25-3.89Z"/><path class="cls-10" d="M107.3,12.72c-.71.17-1.42.35-2.11.54C105.88,13.07,106.59,12.89,107.3,12.72Z"/><path class="cls-10" d="M147,16.4c-1.07-.42-2.15-.82-3.25-1.2C144.87,15.58,146,16,147,16.4Z"/><path class="cls-10" d="M191.51,76.86h0c0-.23,0-.47,0-.71C191.54,76.39,191.53,76.63,191.51,76.86Z"/><path class="cls-10" d="M104.94,13.33c-.69.2-1.38.41-2,.63C103.56,13.74,104.25,13.53,104.94,13.33Z"/><path class="cls-10" d="M122.61,11.32c-.84,0-1.67,0-2.49,0C120.94,11.28,121.77,11.29,122.61,11.32Z"/><path class="cls-10" d="M117.11,11.36c-.76,0-1.51.09-2.25.16C115.6,11.45,116.35,11.4,117.11,11.36Z"/><path class="cls-10" d="M131.74,12.2c-1.18-.19-2.39-.35-3.6-.49C129.35,11.85,130.56,12,131.74,12.2Z"/><path class="cls-10" d="M112.06,11.84c-1.56.22-3.07.5-4.55.84C109,12.34,110.5,12.06,112.06,11.84Z"/><path class="cls-10" d="M135.28,12.86q-1.75-.37-3.54-.66Q133.53,12.49,135.28,12.86Z"/><path class="cls-10" d="M142.11,14.66c-1.11-.36-2.24-.68-3.38-1C139.87,14,141,14.3,142.11,14.66Z"/><path class="cls-10" d="M114.51,11.55c-.76.08-1.51.16-2.25.26C113,11.71,113.75,11.63,114.51,11.55Z"/><path class="cls-10" d="M147,16.4C173.79,27,191.57,52.21,191.57,75.12v0C191.57,52.21,173.79,27,147,16.4Z"/><path class="cls-10" d="M87.34,22.7a45.13,45.13,0,0,1,5.25-3.89A45.13,45.13,0,0,0,87.34,22.7Z"/><path class="cls-10" d="M117.49,11.34c.77,0,1.54-.05,2.33-.06C119,11.29,118.26,11.31,117.49,11.34Z"/><path class="cls-10" d="M96.45,16.62c-.64.33-1.27.67-1.9,1C95.18,17.29,95.81,17,96.45,16.62Z"/><path class="cls-10" d="M94.46,17.69c-.63.35-1.24.72-1.84,1.1C93.22,18.41,93.83,18,94.46,17.69Z"/><path class="cls-11" d="M116.86,18.42c39.83,1.38,69,34.49,69,63.81a29,29,0,0,1-1.45,9.18s0,.06,0,0c1-.21,1.82-.41,2.56-.61l0,0a28.33,28.33,0,0,0,4.52-14h0c0-.23,0-.47,0-.71s0-.66,0-1v0C191.57,52.21,173.79,27,147,16.4c-1.07-.42-2.15-.82-3.25-1.2-.55-.19-1.1-.37-1.66-.54-1.11-.36-2.24-.68-3.38-1s-2.29-.57-3.45-.82-2.35-.47-3.54-.66-2.39-.35-3.6-.49c-1.82-.2-3.66-.33-5.53-.39-.84,0-1.67,0-2.49,0h-.3c-.79,0-1.56,0-2.33.06l-.38,0c-.76,0-1.51.09-2.25.16l-.35,0c-.76.08-1.51.16-2.25.26l-.2,0c-1.56.22-3.07.5-4.55.84l-.21,0c-.71.17-1.42.35-2.11.54l-.25.07c-.69.2-1.38.41-2,.63l-.19.06a48.59,48.59,0,0,0-6.18,2.57l-.07,0c-.64.33-1.27.67-1.9,1l-.09.05c-.63.35-1.24.72-1.84,1.1l0,0A44.69,44.69,0,0,0,79.26,31.86s0,.08.06.05C88.25,23.06,101,17.88,116.86,18.42Z"/><path class="cls-10" d="M102.7,14a48.59,48.59,0,0,0-6.18,2.57A48.59,48.59,0,0,1,102.7,14Z"/><path class="cls-12" d="M115.12,24.44c38.2,2.55,59.34,30.54,61,64,.06,1.18.08,2.36.08,3.53,2.56-.48,5.58-1.08,8-1.65A31,31,0,0,0,185.63,81c0-29.53-27.57-62.87-65.27-64.25C105.21,16.23,93,21.55,84.57,30.62a51.84,51.84,0,0,0-5,10.9C88.17,30.25,100.39,23.46,115.12,24.44Z"/><path class="cls-10" d="M79.06,32.17a48.35,48.35,0,0,0-12.15,21.4A59,59,0,0,1,73.75,43,48.79,48.79,0,0,1,79.06,32.17Z"/><path class="cls-10" d="M111.33,26c40.36,2.52,62.69,30.32,64.44,63.58.07,1.18.09,2.34.08,3.5,2.71-.48,5.89-1.07,8.49-1.64a28.77,28.77,0,0,0,1.47-9.24c0-29.32-29.12-62.43-68.95-63.81-16-.55-28.86,4.74-37.8,13.75A48.79,48.79,0,0,0,73.75,43C82.86,31.79,95.76,25.05,111.33,26Z"/><path class="cls-13" d="M194.69,86.54l-.61.58A8.35,8.35,0,0,0,194.69,86.54Z"/><path class="cls-14" d="M131.65,20.53l-1.5,8.4L155.5,41.84l5.41-6.3S154.6,26.53,131.65,20.53Z"/><path class="cls-11" d="M69.83,69.36c.4,0,.8.08,1.2.12a53,53,0,0,1-.46-7.05A58.75,58.75,0,0,1,73.75,43a59,59,0,0,0-6.84,10.58,60,60,0,0,0-2.1,16A19.3,19.3,0,0,1,69.83,69.36Z"/><path class="cls-11" d="M109.21,77.24c4.8.37,6.44,1.25,10.69.87s13.44.25,16.18,1.13a119,119,0,0,0,13.3,2.62s5.62,6.37,9.87,6,10,1.88,10,1.88l3.43,3.89s2.41-.37,5.75-1c0-1.16.19-1.88.15-3.06-1-28.31-22.94-63.16-66.11-63.9-19-.32-29.3,6.08-38.65,17.28a57.51,57.51,0,0,0-3.26,19.44A53,53,0,0,0,71,69.48c13.69,1.58,25.84,9,28.07,9A31.09,31.09,0,0,1,109.21,77.24Z"/><g class="cls-15"><path class="cls-16" d="M70.43,69.05c13.7,1.58,25.85,9,28.07,9a31.09,31.09,0,0,1,10.1-1.29c4.8.37,6.45,1.25,10.7.87s13.43.25,16.18,1.13a119,119,0,0,0,13.3,2.62s5.62,6.37,9.87,6,10,1.87,10,1.87l3.43,3.9s2.41-.38,5.75-1c0-1.16.18-1.88.14-3.06a68.65,68.65,0,0,0-16.39-41.29C122.43,66,88.91,64.73,70,61.48c0,.18,0,.35,0,.52A52.83,52.83,0,0,0,70.43,69.05Z"/><path class="cls-16" d="M69.94,69.07c.4,0,.79.08,1.19.12a54.68,54.68,0,0,1-.46-7c0-.18,0-.35,0-.52-1.87-.32-3.59-.66-5.17-1a62.38,62.38,0,0,0-.59,8.62A19.28,19.28,0,0,1,69.94,69.07Z"/></g><ellipse class="cls-7" cx="118.01" cy="93.87" rx="29.78" ry="18.82"/><g class="cls-17"><path class="cls-18" d="M201.83,93.29s-2.68,33.52-27.49,42.24C174.34,135.53,210.55,140.9,201.83,93.29Z"/></g><path class="cls-19" d="M57.67,155.92a4,4,0,0,1-3.9-3.21,3.91,3.91,0,0,1,.45-2.76c0-.88-.12-2.43-.2-3.62-.49-6.77-1.16-16,4.47-19.71,3.89-2.55,12-3.74,24.87-5.39,6.75-.86,13.73-1.76,18.28-2.93,9.79-2.53,17-.44,24.06,1.57,2.18.63,4.43,1.28,6.76,1.79,5.32,1.17,16.84,1.9,28,2.6,9.19.59,17.86,1.13,23.86,1.94,5.64.76,7.53-.08,8-.33a4.64,4.64,0,0,0-.76-1.83c-2.36-2.37-18.46-8.33-26.09-8.69-5.89-.28-8.57-3.24-11.67-6.67a53.11,53.11,0,0,0-13.95-11.46c-13.58-8-42.26-7-51.7-6.73-1.52.05-2.69.09-3.42.09-2.46,0-11.61,3.64-19,6.57s-14.86,5.92-20.89,7.66c-9.85,2.83-8.73,18.06-8.72,18.21a4,4,0,0,1-7.94.68,37.81,37.81,0,0,1,.95-11c2-8.17,6.66-13.53,13.5-15.5,5.66-1.63,13-4.57,20.15-7.41,11.12-4.42,18.12-7.14,21.92-7.14.67,0,1.75,0,3.16-.08,11.06-.38,40.44-1.37,56,7.83a60.81,60.81,0,0,1,15.81,13c2.81,3.11,3.65,3.93,6.13,4,7.91.37,28.75,6.72,32.32,12.19,2.45,3.76,2.8,7.6.95,10.53-2.4,3.79-7.57,5.1-15.81,4-5.72-.77-14.66-1.33-23.3-1.88-12-.76-23.26-1.47-29.18-2.77-2.58-.57-5-1.25-7.25-1.91C117,125.66,111.31,124,103.63,126c-5,1.3-12.26,2.23-19.26,3.12-8,1-18.88,2.42-21.51,4.15-1.14.74-1.44,4.93-.89,12.46.36,5,.67,9.26-3.51,10.09A4.32,4.32,0,0,1,57.67,155.92Zm-.79-7.9Zm134.53-24.08h0Z"/><path class="cls-19" d="M30,93.43a2.39,2.39,0,0,1-.59-.08,2.21,2.21,0,0,1-1.55-2.71c.08-.26,7.6-26.37,38.21-25.51A2.21,2.21,0,0,1,66,69.54h-.06c-27.08-.78-33.56,21.33-33.82,22.27A2.21,2.21,0,0,1,30,93.43Z"/><path class="cls-19" d="M116.3,234.81c-15.88,0-29.59-3.8-40.89-11.37-1.76-1.15-3.42-2.36-4.91-3.56a57.58,57.58,0,0,1-6.64-6.31A43.65,43.65,0,0,1,56.59,203c-1.75-4-6-17.48-12.71-40.11-3-10.27-6.49-22.13-10.25-35.25l-2.93-3.25a1.42,1.42,0,0,1-.36-.83,32,32,0,0,1,0-4.62,40.8,40.8,0,0,1-2.48-14,37.67,37.67,0,0,1,1.36-10,3.71,3.71,0,0,1-.58-.11,3.64,3.64,0,0,1-2.2-1.7,3.6,3.6,0,0,1-.35-2.76c.06-.2,5.65-19.37,26.24-25a90.23,90.23,0,0,1,11.92-6.85c.32-1.78.72-3.53,1.19-5.22A50,50,0,0,1,78,31.24a.64.64,0,0,1,.08-.14,46.81,46.81,0,0,1,8.33-9.4c9.77-11.2,24.44-17,41.3-16.47,39.87,1.36,65.37,34.68,66.4,65C207,80.5,214,93.35,214,106.49a53.64,53.64,0,0,1-10,30.58l-17.47,60.36c-.3,2.49-4.85,30-56.25,36.47A111.74,111.74,0,0,1,116.3,234.81Zm-83.15-112L36,126a1.47,1.47,0,0,1,.31.56c3.79,13.24,7.27,25.2,10.33,35.55C53.17,184.28,57.52,198,59.2,201.86A41.85,41.85,0,0,0,66,211.67a55.24,55.24,0,0,0,6.31,6A57.47,57.47,0,0,0,77,221.06c13.93,9.33,31.74,12.69,53,10,26.36-3.33,39.59-12.45,46-19.51,6.94-7.58,7.74-14.48,7.75-14.55a1,1,0,0,1,0-.25L201.35,136a1.35,1.35,0,0,1,.22-.45,50.63,50.63,0,0,0,9.59-29.09c0-12.6-6.68-24.5-19.32-34.41a1.41,1.41,0,0,1-.55-1.09c-.32-14.63-6.71-29.8-17.54-41.62a65.06,65.06,0,0,0-46.13-21.3C111.37,7.52,97.83,12.9,88.5,23.64a1.06,1.06,0,0,1-.15.15,43.42,43.42,0,0,0-6.82,7.37,1.43,1.43,0,0,1-.45,1.08l-.26.25c-.25.23-.5.46-.73.7A46.55,46.55,0,0,0,68.21,54,54.68,54.68,0,0,0,67,59.64a1.45,1.45,0,0,1-.8,1.06,89.06,89.06,0,0,0-12.39,7.07,1.4,1.4,0,0,1-.43.2C34.2,73.11,28.91,90.91,28.86,91.09a.76.76,0,0,0,.08.57.82.82,0,0,0,.48.38.85.85,0,0,0,.89-.33A1.42,1.42,0,0,1,32.83,93a35.6,35.6,0,0,0-2.09,11.92,38,38,0,0,0,2.41,13.34,1.39,1.39,0,0,1,.08.61A34.6,34.6,0,0,0,33.15,122.85Z"/></svg>