<?xml version="1.0" encoding="utf-8"?>
<!-- Generator: Adobe Illustrator 24.1.3, SVG Export Plug-In . SVG Version: 6.00 Build 0)  -->
<svg version="1.1" id="Layer_1" xmlns="http://www.w3.org/2000/svg" xmlns:xlink="http://www.w3.org/1999/xlink" x="0px" y="0px"
	 viewBox="0 0 280 250" style="enable-background:new 0 0 280 250;" xml:space="preserve">
<g>
	
		<linearGradient id="SVGID_1_" gradientUnits="userSpaceOnUse" x1="192.9" y1="154.7794" x2="192.9" y2="176.3251" gradientTransform="matrix(1 0 0 -1 0 250)">
		<stop  offset="0" style="stop-color:#00E7AE"/>
		<stop  offset="0.8627" style="stop-color:#00E7AE;stop-opacity:0"/>
	</linearGradient>
	<polygon style="opacity:0.5;fill:url(#SVGID_1_);enable-background:new    ;" points="232.7,72.1 153.1,72.1 187.8,91 197.9,91 	
		"/>
	<circle style="fill:#00E7AE;" cx="192.9" cy="89.8" r="5.1"/>
	<g>
		<g>
			<circle style="fill:#00E7AE;" cx="229" cy="196.2" r="4.4"/>
			<circle style="fill:#00E7AE;" cx="237.8" cy="196.2" r="4.4"/>
			<rect x="229" y="191.7" style="fill:#00E7AE;" width="8.9" height="8.9"/>
		</g>
		<g>
			<g>
				<g>
					<circle style="fill:#181F41;" cx="31.1" cy="220.6" r="25.5"/>
					<circle style="fill:#FFB83B;" cx="31.1" cy="220.6" r="21.1"/>
					<circle style="fill:#FFFFFF;" cx="31.1" cy="220.6" r="19.2"/>
					<path style="fill:#181F41;" d="M43.5,206c3.6,3.5,5.9,8.4,5.9,13.8c0,10.6-8.6,19.2-19.2,19.2c-4.7,0-9.1-1.7-12.4-4.6
						c3.4,3.3,8.1,5.3,13.2,5.3c10.6,0,19.2-8.6,19.2-19.2C50.2,214.7,47.6,209.5,43.5,206z"/>
				</g>
				<g>
					<path style="fill:#181F41;" d="M56.6,201.9l-16.5,16.5c3.3-1.6,7.3-0.8,9.8,0.5L56.6,201.9z"/>
					<path style="fill:#181F41;" d="M49.9,219.3c-0.1,0-0.1,0-0.2,0c-2.4-1.3-6.3-1.9-9.4-0.5c-0.2,0.1-0.4,0-0.5-0.1
						c-0.1-0.2-0.1-0.4,0-0.5l16.5-16.5c0.1-0.1,0.3-0.2,0.5-0.1c0.2,0.1,0.2,0.3,0.2,0.5L50.2,219c0,0.1-0.1,0.2-0.2,0.2
						C50,219.3,49.9,219.3,49.9,219.3z M44.3,217.1c2,0,3.9,0.5,5.4,1.2l5.8-14.7l-13.8,13.8C42.5,217.2,43.4,217.1,44.3,217.1z"/>
				</g>
				<g>
					
						<rect x="31.5" y="197.7" transform="matrix(0.7071 -0.7071 0.7071 0.7071 -127.9665 94.9113)" style="fill:#FFFFFF;" width="38.2" height="8.4"/>
					<g>
						<g>
							<path style="fill:#181F41;" d="M34.2,212.8c-0.1,0-0.2,0-0.3-0.1c-0.2-0.2-0.2-0.4,0-0.6l27-27c0.2-0.2,0.4-0.2,0.6,0
								c0.2,0.2,0.2,0.4,0,0.6l-27,27C34.4,212.8,34.3,212.8,34.2,212.8z"/>
						</g>
						<g>
							<path style="fill:#181F41;" d="M40.1,218.8c-0.1,0-0.2,0-0.3-0.1c-0.2-0.2-0.2-0.4,0-0.6l27-27c0.2-0.2,0.4-0.2,0.6,0
								s0.2,0.4,0,0.6l-27,27C40.3,218.8,40.2,218.8,40.1,218.8z"/>
						</g>
					</g>
				</g>
			</g>
			<g>
				<g>
					
						<ellipse transform="matrix(0.1602 -0.9871 0.9871 0.1602 -19.3026 418.5126)" style="fill:#181F41;" cx="236.3" cy="220.6" rx="25.5" ry="25.5"/>
					
						<ellipse transform="matrix(0.1602 -0.9871 0.9871 0.1602 -19.3026 418.5126)" style="fill:#FFB83B;" cx="236.3" cy="220.6" rx="21.1" ry="21.1"/>
					<circle style="fill:#FFFFFF;" cx="236.3" cy="220.6" r="19.2"/>
					<path style="fill:#181F41;" d="M248.7,206c3.6,3.5,5.9,8.4,5.9,13.8c0,10.6-8.6,19.2-19.2,19.2c-4.7,0-9.1-1.7-12.4-4.6
						c3.4,3.3,8.1,5.3,13.2,5.3c10.6,0,19.2-8.6,19.2-19.2C255.5,214.7,252.9,209.5,248.7,206z"/>
				</g>
				<g>
					<path style="fill:#181F41;" d="M211.7,201.9l16.5,16.5c-3.3-1.6-7.3-0.8-9.8,0.5L211.7,201.9z"/>
					<path style="fill:#181F41;" d="M218.4,219.3h-0.1c-0.1,0-0.2-0.1-0.2-0.2l-6.7-16.9c-0.1-0.2,0-0.4,0.2-0.5s0.4-0.1,0.5,0.1
						l16.5,16.5c0.1,0.1,0.2,0.4,0,0.5c-0.1,0.2-0.3,0.2-0.5,0.1c-3.1-1.5-7-0.8-9.4,0.5C218.6,219.3,218.5,219.3,218.4,219.3z
						 M212.8,203.6l5.8,14.7c2.2-1,5.2-1.6,8-0.9L212.8,203.6z"/>
				</g>
				<g>
					
						<rect x="213.5" y="182.9" transform="matrix(0.7071 -0.7071 0.7071 0.7071 -79.0351 213.1198)" style="fill:#FFFFFF;" width="8.4" height="38.2"/>
					<g>
						<g>
							<path style="fill:#181F41;" d="M234.1,212.8c-0.1,0-0.2,0-0.3-0.1l-27-27c-0.2-0.2-0.2-0.4,0-0.6c0.2-0.2,0.4-0.2,0.6,0
								l27,27c0.2,0.2,0.2,0.4,0,0.6C234.4,212.8,234.2,212.8,234.1,212.8z"/>
						</g>
						<g>
							<path style="fill:#181F41;" d="M228.2,218.8c-0.1,0-0.2,0-0.3-0.1l-27-27c-0.2-0.2-0.2-0.4,0-0.6c0.2-0.2,0.4-0.2,0.6,0
								l27,27c0.2,0.2,0.2,0.4,0,0.6C228.4,218.8,228.3,218.8,228.2,218.8z"/>
						</g>
					</g>
				</g>
			</g>
			<path style="fill:#00E7AE;" d="M184.5,230.6H84.8c-4,0-7.8-1.5-10.6-4.3l-5.4-5.4h131.5l-5.4,5.4
				C192.3,229.1,188.5,230.6,184.5,230.6z"/>
			<path style="fill:#DA478F;" d="M77.6,107.8c0,0-2-3.2,0-7.2c2.7-5.6,3.7-10.5,12.9-10.5s12.6,2.5,12.6,9.2s-0.5,13.5-12.6,13.5
				c-4.7,0-6.4,4.4-6.4,9.9"/>
			<path style="fill:#00E7AE;" d="M99.9,91.1c0,1.5-4.9,1.5-7.5,1.5s-7.5-0.1-7.5-1.5s2.3-3.8,7.5-3.8S99.9,89.7,99.9,91.1z"/>
			<path style="fill:#00C18E;" d="M92.4,91.9c-2.4,0-6.8-0.1-7.4-1.3c0,0.2-0.1,0.3-0.1,0.5c0,1.5,4.9,1.5,7.5,1.5s7.5-0.1,7.5-1.5
				c0-0.1,0-0.3-0.1-0.5C99.2,91.8,94.8,91.9,92.4,91.9z"/>
			<path style="fill:#DA478F;" d="M77.7,100.6l-33.7,67L24.4,181c-2.4,1.7-3,5-1.2,7.4L46.5,220c1.5,2,3.8,3.1,6.2,3.1h182.9
				c2,0,3.7-0.5,6.5-3.3c2.7-2.7,28.1-32.9,30.8-36.7c2.7-3.8,1.4-5.8-0.2-7.9c-6.4-8.5-37.4-27.3-58.8-27.3h-29.8v58.9
				c0,6.1-4.9,11-11,11h-78c-6.1,0-11-4.9-11-11V100.6H77.7z"/>
			<g>
				<polygon style="fill:#00E7AE;" points="54.5,204 34.7,204 36.2,206 53.5,206 				"/>
			</g>
			<g>
				<path style="fill:#00E7AE;" d="M261.7,183.8l9-10.9c-0.5-0.4-0.9-0.9-1.5-1.4l-9.7,11.8L261.7,183.8z"/>
			</g>
			<path style="fill:#DA478F;" d="M208.3,140.2l-24.1,7.8h-16.7c0,0,0.5,7.9,7.3,7.9s9.4,5.4,9.4,14.8l10.1-4.1l1.8-13.8"/>
			<path style="fill:#181F41;" d="M167.4,147.9c-2.4,0-4.4-2-4.4-4.4v-3.9c0-2.4,2.5-4.3,5.5-4.3h55.2c4,0,6.6,3.2,5,6.1l-2.3,4.1
				c-0.9,1.6-2.9,2.6-5,2.6L167.4,147.9z"/>
			<g>
				<path style="fill:#AF276E;" d="M187.1,204.2h-2.9c-0.2,0-0.4-0.2-0.4-0.4s0.2-0.4,0.4-0.4h2.9c2.6,0,4.7-2.1,4.7-4.7V171h-7.6
					c-0.2,0-0.4-0.2-0.4-0.4s0.2-0.4,0.4-0.4h8c0.2,0,0.4,0.2,0.4,0.4v28.1C192.5,201.7,190.1,204.2,187.1,204.2z"/>
			</g>
			<g>
				<path style="fill:#AF276E;" d="M65,215.2L65,215.2c-0.3-0.1-0.4-0.3-0.4-0.5l19.1-94.6c0-0.2,0.3-0.4,0.5-0.3
					c0.2,0,0.4,0.3,0.3,0.5l-19.1,94.6C65.4,215.1,65.2,215.2,65,215.2z"/>
			</g>
			<g>
				<path style="fill:#AF276E;" d="M187.8,221H81c-14.8,0-25.5-14.8-26.7-16.6H34.7c-0.2,0-0.4-0.2-0.4-0.4s0.2-0.4,0.4-0.4h19.8
					c0.1,0,0.3,0.1,0.3,0.2c0.1,0.2,10.9,16.4,26.2,16.4h106.8c0.2,0,0.3,0,0.5,0c5.8-0.2,10.3-4.9,10.3-10.8l0.1-41.1
					c0-0.9-0.3-1.7-1-2.3c-0.6-0.6-1.5-1-2.3-1h-11.7c-0.2,0-0.4-0.2-0.4-0.4s0.2-0.4,0.4-0.4h11.7c1.1,0,2.1,0.4,2.9,1.2
					c0.8,0.8,1.2,1.8,1.2,2.9l-0.1,41.1c0,6.3-4.9,11.4-11.1,11.6C188.1,221,187.9,221,187.8,221z"/>
			</g>
			<g>
				<path style="fill:#AF276E;" d="M74.8,167.1L74.8,167.1l-25.4-10c-0.2-0.1-0.3-0.3-0.2-0.5s0.3-0.3,0.5-0.2l25.3,10
					c0.2,0.1,0.3,0.3,0.2,0.5C75.1,167,74.9,167.1,74.8,167.1z"/>
			</g>
			<g>
				<path d="M89.9,94.9c-3.9,3.5-4.2,9.8,0.7,12.5c1.4,0.8,2.6-1.3,1.2-2.1c-3.6-2-2.9-6.3-0.2-8.7C92.8,95.6,91.1,93.9,89.9,94.9
					L89.9,94.9z"/>
			</g>
		</g>
		<g>
			<path style="fill:#AF276E;" d="M199.3,223.5c-0.1,0-0.2,0-0.3-0.1c-0.2-0.1-0.2-0.4,0-0.6l4.9-5.6c2-2.3,4.9-3.6,7.9-3.6h17.6
				c2.9,0,5.6-1.3,7.5-3.5l31.7-38.6c0.1-0.2,0.4-0.2,0.6-0.1c0.2,0.1,0.2,0.4,0.1,0.6l-31.7,38.6c-2,2.4-4.9,3.8-8.1,3.8h-17.6
				c-2.8,0-5.5,1.2-7.3,3.3l-4.9,5.6C199.6,223.5,199.4,223.5,199.3,223.5z"/>
		</g>
		<g>
			<g>
				<path style="fill:#AF276E;" d="M226.8,197.9c-5.2,0-9.5-4.3-9.5-9.5s4.3-9.5,9.5-9.5s9.5,4.3,9.5,9.5
					C236.3,193.7,232,197.9,226.8,197.9z M226.8,179.7c-4.8,0-8.7,3.9-8.7,8.7s3.9,8.7,8.7,8.7s8.7-3.9,8.7-8.7
					C235.5,183.6,231.6,179.7,226.8,179.7z"/>
			</g>
			<g>
				<g>
					<path style="fill:#AF276E;" d="M219.9,194.4c1.7,1.9,4.1,3.1,6.8,3.1s5.2-1.2,6.8-3.1H219.9z"/>
					<path style="fill:#AF276E;" d="M226.8,197.9c-2.7,0-5.3-1.2-7.2-3.2c-0.1-0.1-0.1-0.3-0.1-0.4c0.1-0.1,0.2-0.2,0.4-0.2h13.7
						c0.2,0,0.3,0.1,0.4,0.2c0.1,0.1,0,0.3-0.1,0.4C232.1,196.8,229.5,197.9,226.8,197.9z M220.9,194.8c1.6,1.5,3.7,2.3,5.9,2.3
						s4.3-0.8,5.9-2.3H220.9z"/>
				</g>
			</g>
		</g>
		<g>
			<path style="fill:#00E7AE;" d="M238.1,163.5c1.8,1.6,4.6,1.5,6.2-0.4l4.3-4.9c-2.7-1.4-5.5-2.7-8.4-3.9l-2.6,2.9
				C236.1,159.1,236.3,161.9,238.1,163.5z"/>
		</g>
		<g>
			<g>
				<path style="fill:#AF276E;" d="M241,165c-1.1,0-2.3-0.4-3.2-1.2c-2-1.8-2.2-4.8-0.4-6.8l2.6-2.9c0.1-0.2,0.4-0.2,0.6,0
					c0.2,0.1,0.2,0.4,0,0.6l-2.6,2.9c-1.5,1.7-1.3,4.2,0.3,5.7c1.7,1.5,4.2,1.3,5.7-0.3l4.3-4.9c0.1-0.2,0.4-0.2,0.6,0
					c0.2,0.1,0.2,0.4,0,0.6l-4.3,4.9C243.7,164.5,242.4,165,241,165z"/>
			</g>
		</g>
		
			<ellipse transform="matrix(0.6426 -0.7662 0.7662 0.6426 -154.1781 89.9116)" style="fill:#FFFFFF;" cx="19.3" cy="210.2" rx="2" ry="1.2"/>
		<g>
			<path style="fill:#AF276E;" d="M199,191.5c-0.1,0-0.2,0-0.3-0.1c-0.2-0.1-0.2-0.4-0.1-0.6l9.2-10.9v-10.3c0-0.1,0-0.2,0.1-0.3
				l19.9-19.5c0.2-0.2,0.4-0.2,0.6,0s0.2,0.4,0,0.6l-19.8,19.4V180c0,0.1,0,0.2-0.1,0.3l-9.3,11.1
				C199.2,191.5,199.1,191.5,199,191.5z"/>
		</g>
		<g>
			<path style="fill:#00E7AE;" d="M64.6,137.8c-1.8,3.7-5.7,8.6-9.1,6.9s-4.1-7.1-1.6-12.2c2.5-5.1,7.2-7.8,10.6-6.2
				C67.9,127.9,66.5,134.1,64.6,137.8z"/>
			<g>
				<path style="fill:#AF276E;" d="M57,145.8c3.6,0,6.9-4.8,8.3-7.6c1.1-2.2,1.8-4.7,2-6.7c0.3-3.4-1.1-4.9-2.3-5.6l-0.3,0.6
					c3.2,1.7,1.8,7.7,0,11.4c-1.6,3.2-4.7,7.3-7.7,7.3c-0.5,0-1-0.1-1.4-0.3c0,0,0,0-0.1,0l-0.3,0.6h0.1
					C55.8,145.6,56.4,145.8,57,145.8z"/>
			</g>
			<path style="fill:#00C18E;" d="M65,126.6c1.8,2.4,0.5,7.3-1,10.5c-1.8,3.7-5.7,8.6-9.1,6.9c-0.3-0.1-0.5-0.3-0.8-0.5
				c0.4,0.5,0.9,0.9,1.5,1.2c3.4,1.7,7.3-3.2,9.1-6.9C66.4,134.3,67.8,128.6,65,126.6z"/>
			<g>
				<circle style="fill:#FFFFFF;" cx="62" cy="128.1" r="1"/>
				<g>
					<path style="fill:#FFFFFF;" d="M56.1,134.1c-0.2,0-0.3,0-0.5-0.1c-0.6-0.3-0.9-1-0.6-1.6c0.6-1.4,2-3.3,3.8-4.2
						c0.6-0.3,1.3-0.1,1.6,0.5s0.1,1.3-0.5,1.6c-1.2,0.6-2.3,2-2.7,3C57.1,133.8,56.6,134.1,56.1,134.1z"/>
				</g>
			</g>
		</g>
	</g>
	<g>
		<g>
			<g>
				<path style="fill:#FF8891;" d="M199,112.8c-1.8-12.5-5.9-24-5.9-24L166.5,90l-1.1,17c0,0-32.3,3.1-47.2,6.2
					c-6,1.3-20.6,3-17.1,22c3.2,17.6,13,66.2,13,66.2l26.7,0.5l-11.4-65.7c0,0,23,0.8,44.2-1C195.3,133.4,200.9,126.3,199,112.8z"/>
				<g>
					<path style="fill:#181F41;" d="M129.4,136.7L129.4,136.7l-5-0.1c-0.2,0-0.4-0.2-0.4-0.4s0.2-0.4,0.4-0.4l5,0.1
						c0.2,0,0.4,0.2,0.4,0.4C129.8,136.5,129.7,136.7,129.4,136.7z"/>
				</g>
				<g>
					<path style="fill:#FFFFFF;" d="M114.2,201.4l26.7,0.5l-4.7-27h-27.3C111.7,189.3,114.2,201.4,114.2,201.4z"/>
				</g>
				<path style="fill:#5442E5;" d="M199,112.8c-1.8-12.5-5.9-24-5.9-24L166.5,90l-1.1,17c0,0-4.4,0.4-10.6,1.1
					c0.4,2.2,0.8,4.4,1.1,6.6c1.1,6.6,2.3,13.2,3.6,19.8c0.1,0.5,0.2,1,0.3,1.5c4.5-0.2,9.1-0.4,13.7-0.8
					C195.3,133.4,200.9,126.3,199,112.8z"/>
				<path style="fill:#48298F;" d="M199,112.8c-1.8-12.5-5.9-24-5.9-24L166.5,90l-1.1,17c0,0-4.4,0.4-10.6,1.1
					c0.4,2.2,0.8,4.4,1.1,6.6c1.1,6.6,2.3,13.2,3.6,19.8c0.1,0.5,0.2,1,0.3,1.5c4.5-0.2,9.1-0.4,13.7-0.8
					C195.3,133.4,200.9,126.3,199,112.8z"/>
			</g>
			<g>
				<polygon style="fill:#FF8891;" points="176.6,41 163.8,43.9 161.5,32.6 174.4,30.9 				"/>
				<g>
					<circle style="fill:#FF8891;" cx="166.9" cy="25.4" r="12.3"/>
					<g>
						<circle style="fill:#181F41;" cx="156" cy="26" r="0.7"/>
						<g>
							<path style="fill:#181F41;" d="M157.3,32c-0.2,0-0.3-0.1-0.4-0.2c-0.1-0.2,0-0.4,0.2-0.5l0,0c0.4-0.2,0.7-0.3,1.1-0.8
								c0.1-0.2,0.4-0.2,0.6,0c0.2,0.1,0.2,0.4,0,0.6c-0.5,0.6-1,0.8-1.4,1C157.4,32,157.4,32,157.3,32z"/>
						</g>
						<g>
							<path style="fill:#181F41;" d="M155.6,23.8c-0.1,0-0.3-0.1-0.4-0.2c-0.1-0.2,0-0.4,0.2-0.5c0.8-0.4,1.9-0.4,2.8,0
								c0.2,0.1,0.3,0.3,0.2,0.5s-0.3,0.3-0.5,0.2c-0.7-0.3-1.6-0.3-2.1,0C155.7,23.8,155.6,23.8,155.6,23.8z"/>
						</g>
					</g>
				</g>
				<path style="fill:#FF8891;" d="M164.3,26.1c0,1.7,1.2,3.4,3,4c2,0.7,4-0.6,4.7-2.5c0.9-2.7-1-5.6-4-5.4
					C166,22.3,164.3,24.1,164.3,26.1z"/>
				<g>
					<path style="fill:#181F41;" d="M167,25.8L167,25.8c-0.2,0-0.4-0.2-0.4-0.4c0-0.7,0.5-1.4,1.1-1.7c0.9-0.4,2,0,2.4,0.9
						c0.1,0.2,0,0.4-0.2,0.5s-0.4,0-0.5-0.2c-0.3-0.5-0.8-0.7-1.4-0.5c-0.4,0.2-0.6,0.6-0.7,1C167.4,25.7,167.2,25.8,167,25.8z"/>
				</g>
			</g>
			<g>
				<path style="fill:#FFFFFF;" d="M176.6,41c11.9,5.3,20.4,43.5,23.6,53.2c-16.4,2.8-34.3,5.7-34.3,5.7
					c-1.8-13.9-4.6-38.5-2.1-56.1"/>
			</g>
			<g>
				<path style="fill:#48298F;" d="M166.3,79.3c-5.3-12.4-2.7-36.1-2.7-36.1l13.9-3.4c15.1,8.2,30.9,39.6,30.9,39.6l29.1,23.1
					c-4.7,4.1-33.4,12.7-46.6,16.6C183.5,110.6,170.5,89.6,166.3,79.3"/>
			</g>
			<path style="fill:#DA478F;" d="M168.2,68.4l-0.2,2.5c9.6,4.1,28.1,5.6,39,4.7l0.2-2.5C196.2,74,177.8,72.5,168.2,68.4z"/>
			<g>
				<path style="fill:#DA478F;" d="M207.9,80.9c-5.4-2.6-10.1-7.1-14.1-12.7c-4-5.5-6.6-12.4-8.2-19c-1.4-6,2.3-11.7,8.2-8.2
					c5.8,3.6,23.5,10.5,29.7,20C229.6,70.5,220.1,86.8,207.9,80.9z"/>
			</g>
			<g>
				<path style="fill:#181F41;" d="M200.5,76.2c-0.1,0-0.2,0-0.3-0.1c-0.8-0.7-2.5-2.5-2.6-2.5c-0.2-0.2-0.1-0.4,0-0.6
					c0.2-0.2,0.4-0.1,0.6,0c0,0,1.7,1.8,2.5,2.5c0.2,0.1,0.2,0.4,0,0.6C200.7,76.2,200.6,76.2,200.5,76.2z"/>
			</g>
			<path style="fill:#DA478F;" d="M211.1,58.9l2.1-7.3l0,0c1.5-0.7,3.3-0.4,4.5,0.8c0,0,1.6,1.3,2.6,2.5c-0.3,2.7-2.5,7-2.5,7"/>
			<g>
				<path style="fill:#181F41;" d="M215.8,65.2c-0.1,0-0.2,0-0.3-0.1c-0.2-0.1-0.2-0.4,0-0.6c3.2-3.6,4.1-7.7,4.1-7.7
					c0-0.2,0.3-0.4,0.5-0.3c0.2,0,0.4,0.3,0.3,0.5c0,0.2-1,4.3-4.3,8.1C216,65.1,215.9,65.2,215.8,65.2z"/>
			</g>
			<g>
				<path style="fill:#181F41;" d="M211.4,61.2c-0.1,0-0.2,0-0.3-0.1c-0.2-0.1-0.2-0.4-0.1-0.6c1.9-2.4,4.3-6,4.8-8.5
					c0-0.2,0.3-0.4,0.5-0.3c0.2,0,0.4,0.3,0.3,0.5c-0.5,2.6-3,6.4-5,8.8C211.6,61.2,211.5,61.2,211.4,61.2z"/>
			</g>
			<g>
				<path style="fill:#181F41;" d="M215.8,65.2c-0.1,0-0.2,0-0.3-0.1l-4.4-4c-0.2-0.1-0.2-0.4,0-0.6c0.1-0.2,0.4-0.2,0.6,0l4.4,4
					c0.2,0.1,0.2,0.4,0,0.6C216,65.1,215.9,65.2,215.8,65.2z"/>
			</g>
			<g>
				<path style="fill:#181F41;" d="M208.1,59.3c-0.1,0-0.2,0-0.3-0.1c-2.7-2.3-5-4.3-7.1-6c-7.8-6.5-11.3-9.5-9.4-12.9
					c0.1-0.2,0.4-0.3,0.6-0.2c0.2,0.1,0.3,0.4,0.2,0.6c-1.6,2.8,1.8,5.7,9.2,11.9c2,1.7,4.3,3.6,6.9,5.8c2.8-2.5,3.8-4.5,4.8-6.9
					c0.1-0.2,0.3-0.3,0.5-0.2s0.3,0.3,0.2,0.5c-1.1,2.5-2.2,4.7-5.3,7.4C208.3,59.3,208.2,59.3,208.1,59.3z"/>
			</g>
			<g>
				<path style="fill:#181F41;" d="M190.8,119.4c-0.1,0-0.2,0-0.3-0.1c-3.7-4.2-9-11.8-14.2-20.4c-0.1-0.2-0.1-0.4,0.1-0.6
					c0.2-0.1,0.4-0.1,0.6,0.1c5.1,8.4,10.4,15.9,14,20.1c2.4-0.7,5.2-1.5,8.3-2.4c0.2-0.1,0.4,0.1,0.5,0.3c0.1,0.2-0.1,0.4-0.3,0.5
					c-3.2,1-6.1,1.8-8.5,2.5C190.9,119.4,190.9,119.4,190.8,119.4z"/>
			</g>
			<polygon style="fill:#48298F;" points="163.3,58.1 161,41 178.3,36.5 181,42 			"/>
			<path style="fill:#DA478F;" d="M191.6,48.9c-3.4-1.4-6.8-2.7-10.4-3.4c-2.9-0.6-5.6-1.1-8.5-0.5c-0.4,0.1-1.1,0.3-1.8,0.5
				c-1.6,0.5-3.4,2-4.3,3.5l-0.7,1.1c3-3,9-2.5,12.6-1.8s8.6,2.2,11.5,4.4"/>
			<g>
				<path style="fill:#181F41;" d="M185.9,50.9c-0.2,0-0.3-0.1-0.4-0.3c0-0.1-0.5-1.9-0.6-4c0-0.2,0.1-0.4,0.4-0.4
					c0.2,0,0.4,0.1,0.4,0.4c0.2,2,0.6,3.8,0.6,3.8C186.4,50.7,186.3,50.9,185.9,50.9C186,50.9,186,50.9,185.9,50.9z"/>
			</g>
			<g>
				<path style="fill:#181F41;" d="M162.1,49.6c-0.2,0-0.3-0.1-0.4-0.3c-0.1-0.2,0-0.4,0.2-0.5c0.1,0,12.5-5,18.9-7.2
					c0.2-0.1,0.4,0,0.5,0.3c0.1,0.2,0,0.4-0.3,0.5C174.6,44.5,162.3,49.5,162.1,49.6C162.2,49.6,162.1,49.6,162.1,49.6z"/>
			</g>
			<g>
				<path style="fill:#48298F;" d="M176,68.6l0.1-0.1c0.1-0.1,0.1-0.1,0.2-0.2l0.1-0.1c0.1-0.1,0.1-0.2,0.2-0.3
					c0-0.1,0.1-0.1,0.1-0.2l0.1-0.1c0-0.1,0.1-0.2,0.1-0.2s0-0.1,0.1-0.1c0-0.1,0.1-0.2,0.1-0.3l0,0l0,0c2.1-3.9,4.6-10.3,0.7-14.6
					c-4.2-4.6-8.3-3.7-10.9-3c-1.4,0.9-2.9,2.3-4.8,4.2c-0.6,0.6-3.6,3.9-7.2,8.1l0,0c-0.6,0.7-1.3,1.5-1.9,2.2l0,0
					c-0.1,0.1-0.2,0.2-0.3,0.3l0,0c-7,8-15.1,17.4-15.1,17.4l18.3,8.1c0,0,5.5-5.7,10.8-11.1l0,0c1.1-1.2,2.2-2.3,3.3-3.4l0,0
					c0.1-0.1,0.3-0.3,0.4-0.4l0,0c0.5-0.5,1-1.1,1.5-1.5l0,0c0.1-0.1,0.2-0.2,0.3-0.3c0,0,0,0,0.1-0.1s0.2-0.2,0.3-0.3l0,0
					c0.2-0.2,0.4-0.4,0.6-0.7l0,0c0.1-0.1,0.2-0.2,0.3-0.3c0,0,0,0,0.1-0.1s0.1-0.2,0.2-0.2c0,0,0,0,0.1-0.1s0.1-0.1,0.2-0.2
					c0,0,0,0,0.1-0.1s0.1-0.1,0.2-0.2l0,0c0.1-0.1,0.2-0.2,0.2-0.3l0,0c0.1-0.1,0.1-0.1,0.2-0.2c0,0,0,0,0.1-0.1
					c0-0.1,0.1-0.1,0.1-0.1s0,0,0.1-0.1l0.1-0.1c0,0,0,0,0.1-0.1l0.1-0.1c0,0,0,0,0-0.1c0.1-0.1,0.1-0.1,0.1-0.2
					c0.1-0.1,0.2-0.2,0.3-0.3l0.1-0.1C175.9,68.7,176,68.6,176,68.6z"/>
				<ellipse style="fill:#FF8891;" cx="103.8" cy="103.2" rx="3.3" ry="2.9"/>
				<path style="fill:#FF8891;" d="M136.2,83.2c-0.9,0-18.2-1.6-18.2-1.6l-26.3,5.7c-1.2,0.3-2,1.4-1.8,2.6L92,102
					c0,0.8,0.6,1.2,1.3,1.5c2.3,1,7.9,1,9.5,1.1c1-3.3-0.1-3.4-0.1-3.4l4.7-1l3.1-5c0,0,14.9,0,23.1-0.7
					C134.4,90.9,136.2,83.2,136.2,83.2z"/>
				<g>
					<path style="fill:#181F41;" d="M97.6,95.3c0.3,0.5-0.3,4.7-1,5h1.9c0,0,1.2-5.2,0.5-5.1C98.2,95.3,97.6,95.3,97.6,95.3z"/>
					<path style="fill:#181F41;" d="M96.7,100.8c-0.2,0-0.4-0.1-0.4-0.3c0-0.2,0-0.4,0.2-0.5c0.4-0.4,1-4,0.8-4.5
						c-0.1-0.1-0.1-0.3,0-0.4s0.2-0.2,0.4-0.2l0,0c0.1,0,0.6,0,1.3-0.1c0.2,0,0.3,0.1,0.5,0.2c0.5,0.6,0,3.3-0.5,5.4
						c0,0.2-0.2,0.3-0.4,0.3L96.7,100.8L96.7,100.8z M98.1,95.7c0,1.1-0.3,3.1-0.6,4c0,0.1-0.1,0.2-0.1,0.3h0.8
						c0.4-1.7,0.7-3.7,0.6-4.3C98.5,95.7,98.3,95.7,98.1,95.7z"/>
				</g>
				<g>
					<path style="fill:#181F41;" d="M99.9,101.2L99.9,101.2c-1.3-0.4-2.6-0.5-3.8-0.4c-0.2,0-0.4-0.1-0.4-0.4c0-0.2,0.1-0.4,0.4-0.4
						c1.4-0.1,2.7,0,4,0.4c0.2,0.1,0.3,0.3,0.3,0.5C100.2,101.1,100.1,101.2,99.9,101.2z"/>
				</g>
				<g>
					<path style="fill:#181F41;" d="M102.8,105L102.8,105l-1.9-0.1c-0.2,0-0.4-0.2-0.4-0.4c0-0.2,0.2-0.4,0.4-0.4l1.7,0.1
						c0.5-0.6,0.6-1.7,0.1-2.8c-0.1-0.2,0-0.4,0.2-0.5s0.4,0,0.5,0.2c0.7,1.6,0.5,3.1-0.4,3.9C103,105,102.9,105,102.8,105z"/>
				</g>
				<path style="fill:#48298F;" d="M155.9,89.6c7.1-11.4-8.1-14.5-8.1-14.5l-29.6,6.5c0,0,0.4,4.6,1.8,9.3c1.5,4.9,3.3,7.6,3.3,7.6
					S151.3,96.9,155.9,89.6z"/>
				<path style="fill:#FFFFFF;" d="M124.9,80.1l-6.9,1.5c0,0,0.4,4.6,1.8,9.3c1.5,4.9,3.3,7.6,3.3,7.6s3.2-0.2,7.6-0.7
					C127.8,92.2,126.1,86.1,124.9,80.1z"/>
			</g>
			<g>
				<path style="fill:#FFB83B;" d="M177.2,26.5c1.7,0,3.3,0.9,4.3,2.3s1.3,3.2,1.2,4.9c0,0.7-0.2,1.5,0,2.2c0.3,1.6,1.8,2.8,3.4,2.7
					c1.8-0.1,3.1-1.6,4.7-2.3c1.4-0.6,3-0.6,4.3-0.1s2.4,1.5,3.4,2.4c1,0.8,1.8,1.6,3.2,1.4c1-0.1,1.9-0.7,2.7-1.2
					c0.9-0.5,1.7-1,2.7-1.1c-2.7,1.1-2.1,6.2-7.5,6.7c-2.9,0.3-5.7-1.7-8.6-1.3c-2.2,0.3-3.8,2.2-5.7,3.4c-2.5,1.7-5.7,2.2-8.7,1.4
					c-1.4-0.4-2.8-1.2-3.5-2.4c-1.7-2.7,0.8-6-1.4-8.4c-1.4-1.5-3.2-2.4-4.7-3.8c-4.3-3.7-8.8-6.7-7.8-16.4"/>
			</g>
			<path style="fill:#FFB83B;" d="M154.1,17.3c-0.8,1.1,0.4,2.6,1.1,3.4c1,1.1,2.3,2,3.7,2.4c1.5,0.5,3.1,0.5,4.6,0.1
				c1.6-0.4,3.2-1.1,4.4-2.3"/>
			<path style="fill:#181F41;" d="M142.6,217.2c0.1-0.1,0.1-0.3,0.1-0.4c0,0,0,0,0-0.1c0.1-0.2,0.1-0.3,0.1-0.5v-0.1
				c0-0.1,0.1-0.3,0.1-0.4v-0.1c0-0.2,0.1-0.4,0.1-0.6v-0.1c0-0.2,0-0.3,0-0.5v-0.1c0-0.2,0-0.4,0-0.6c0,0,0,0,0-0.1
				c0-0.2,0-0.4,0-0.6v-0.1c0-0.4,0-0.9-0.1-1.3v-0.1c0-0.5-0.1-0.9-0.2-1.4V210c-0.1-0.5-0.2-1-0.3-1.5c0,0,0,0,0-0.1
				c0-0.2-0.1-0.5-0.2-0.7l0,0c-0.1-0.3-0.1-0.5-0.2-0.8l0,0l0,0c-0.4-1.6-0.9-3.3-1.5-5l0,0l0,0l-2.9-16.5h-27
				c1.9,9.3,3.2,16,3.2,16l0,0l-7.6,5c-0.8,0.5-1.6,1.1-2.4,1.8l0,0l0,0c-0.1,0.1-0.1,0.1-0.2,0.2l-0.1,0.1
				c-0.1,0.1-0.1,0.1-0.2,0.2l-0.1,0.1c-0.1,0.1-0.1,0.1-0.2,0.2l-0.1,0.1c-0.1,0.1-0.2,0.2-0.3,0.3l-0.1,0.1
				c-0.1,0.1-0.1,0.1-0.2,0.2l-0.1,0.1c0,0.1-0.1,0.1-0.1,0.2l-0.1,0.1c0,0.1-0.1,0.1-0.1,0.2c-0.1,0.1-0.1,0.2-0.2,0.2
				c0,0.1-0.1,0.1-0.1,0.2c0,0.1-0.1,0.1-0.1,0.2c0,0.1-0.1,0.1-0.1,0.2c0,0.1-0.1,0.1-0.1,0.2l-0.1,0.1c0,0.1-0.1,0.1-0.1,0.2
				l-0.1,0.1c-0.1,0.1-0.1,0.2-0.2,0.3l-0.1,0.1c0,0.1-0.1,0.1-0.1,0.2l-0.1,0.1c0,0.1-0.1,0.1-0.1,0.2c0,0,0,0.1-0.1,0.1
				c-0.1,0.1-0.1,0.2-0.2,0.3v0.1c-0.1,0.1-0.1,0.2-0.1,0.3c0,0,0,0.1-0.1,0.1c0,0.1-0.1,0.2-0.1,0.2s0,0.1-0.1,0.1
				c0,0.1-0.1,0.2-0.1,0.3v0.1c0,0.1-0.1,0.2-0.1,0.4v0.1c0,0.1-0.1,0.2-0.1,0.3v0.1c0,0.1,0,0.2-0.1,0.3v0.1c0,0.1,0,0.2-0.1,0.3
				c0,0,0,0,0,0.1s0,0.2,0,0.4v0.1c0,0.1,0,0.2,0,0.3v0.1c0,0.1,0,0.2,0,0.3v0.1c0,0.1,0,0.3,0,0.4v0.3h43c0.1-0.1,0.1-0.3,0.2-0.5
				C142.6,217.3,142.6,217.3,142.6,217.2z"/>
			<g>
				<g>
					<defs>
						<path id="SVGID_2_" d="M142.6,217.2c0.1-0.1,0.1-0.3,0.1-0.4c0,0,0,0,0-0.1c0.1-0.2,0.1-0.3,0.1-0.5v-0.1
							c0-0.1,0.1-0.3,0.1-0.4v-0.1c0-0.2,0.1-0.4,0.1-0.6v-0.1c0-0.2,0-0.3,0-0.5v-0.1c0-0.2,0-0.4,0-0.6c0,0,0,0,0-0.1
							c0-0.2,0-0.4,0-0.6v-0.1c0-0.4,0-0.9-0.1-1.3v-0.1c0-0.5-0.1-0.9-0.2-1.4V210c-0.1-0.5-0.2-1-0.3-1.5c0,0,0,0,0-0.1
							c0-0.2-0.1-0.5-0.2-0.7l0,0c-0.1-0.3-0.1-0.5-0.2-0.8l0,0l0,0c-0.4-1.6-0.9-3.3-1.5-5l0,0l0,0l-2.9-16.5h-27
							c1.9,9.3,3.2,16,3.2,16l0,0l-7.6,5c-0.8,0.5-1.6,1.1-2.4,1.8l0,0l0,0c-0.1,0.1-0.1,0.1-0.2,0.2l-0.1,0.1
							c-0.1,0.1-0.1,0.1-0.2,0.2l-0.1,0.1c-0.1,0.1-0.1,0.1-0.2,0.2l-0.1,0.1c-0.1,0.1-0.2,0.2-0.3,0.3l-0.1,0.1
							c-0.1,0.1-0.1,0.1-0.2,0.2l-0.1,0.1c0,0.1-0.1,0.1-0.1,0.2l-0.1,0.1c0,0.1-0.1,0.1-0.1,0.2c-0.1,0.1-0.1,0.2-0.2,0.2
							c0,0.1-0.1,0.1-0.1,0.2c0,0.1-0.1,0.1-0.1,0.2c0,0.1-0.1,0.1-0.1,0.2c0,0.1-0.1,0.1-0.1,0.2l-0.1,0.1c0,0.1-0.1,0.1-0.1,0.2
							l-0.1,0.1c-0.1,0.1-0.1,0.2-0.2,0.3l-0.1,0.1c0,0.1-0.1,0.1-0.1,0.2l-0.1,0.1c0,0.1-0.1,0.1-0.1,0.2c0,0,0,0.1-0.1,0.1
							c-0.1,0.1-0.1,0.2-0.2,0.3v0.1c-0.1,0.1-0.1,0.2-0.1,0.3c0,0,0,0.1-0.1,0.1c0,0.1-0.1,0.2-0.1,0.2s0,0.1-0.1,0.1
							c0,0.1-0.1,0.2-0.1,0.3v0.1c0,0.1-0.1,0.2-0.1,0.4v0.1c0,0.1-0.1,0.2-0.1,0.3v0.1c0,0.1,0,0.2-0.1,0.3v0.1
							c0,0.1,0,0.2-0.1,0.3c0,0,0,0,0,0.1s0,0.2,0,0.4v0.1c0,0.1,0,0.2,0,0.3v0.1c0,0.1,0,0.2,0,0.3v0.1c0,0.1,0,0.3,0,0.4v0.3h43
							c0.1-0.1,0.1-0.3,0.2-0.5C142.6,217.3,142.6,217.3,142.6,217.2z"/>
					</defs>
					<clipPath id="SVGID_3_">
						<use xlink:href="#SVGID_2_"  style="overflow:visible;"/>
					</clipPath>
					<g style="clip-path:url(#SVGID_3_);">
						<g>
							<path style="fill:#FFFFFF;" d="M113.4,207.5c-0.1,0-0.3-0.1-0.3-0.2l-4-6.8c-0.1-0.2,0-0.4,0.1-0.6c0.2-0.1,0.4,0,0.6,0.1
								l4,6.8c0.1,0.2,0,0.4-0.1,0.6C113.5,207.5,113.4,207.5,113.4,207.5z"/>
						</g>
						<circle style="fill:#FFFFFF;" cx="113.4" cy="207.1" r="1.1"/>
						<g>
							<path style="fill:#FFFFFF;" d="M125.2,213.9c-1.5,0-2.7-1.2-2.7-2.7s1.2-2.7,2.7-2.7s2.7,1.2,2.7,2.7
								S126.7,213.9,125.2,213.9z M125.2,210.6c-0.3,0-0.5,0.2-0.5,0.5s0.2,0.5,0.5,0.5s0.5-0.2,0.5-0.5
								C125.6,210.8,125.4,210.6,125.2,210.6z"/>
						</g>
						<g>
							<path style="fill:#FFFFFF;" d="M130,213.9c-1.5,0-2.7-1.2-2.7-2.7s1.2-2.7,2.7-2.7s2.7,1.2,2.7,2.7S131.5,213.9,130,213.9z
								 M130,210.6c-0.3,0-0.5,0.2-0.5,0.5s0.2,0.5,0.5,0.5s0.5-0.2,0.5-0.5S130.3,210.6,130,210.6z"/>
						</g>
					</g>
				</g>
				<g>
					<defs>
						<path id="SVGID_4_" d="M142.6,217.2c0.1-0.1,0.1-0.3,0.1-0.4c0,0,0,0,0-0.1c0.1-0.2,0.1-0.3,0.1-0.5v-0.1
							c0-0.1,0.1-0.3,0.1-0.4v-0.1c0-0.2,0.1-0.4,0.1-0.6v-0.1c0-0.2,0-0.3,0-0.5v-0.1c0-0.2,0-0.4,0-0.6c0,0,0,0,0-0.1
							c0-0.2,0-0.4,0-0.6v-0.1c0-0.4,0-0.9-0.1-1.3v-0.1c0-0.5-0.1-0.9-0.2-1.4V210c-0.1-0.5-0.2-1-0.3-1.5c0,0,0,0,0-0.1
							c0-0.2-0.1-0.5-0.2-0.7l0,0c-0.1-0.3-0.1-0.5-0.2-0.8l0,0l0,0c-0.4-1.6-0.9-3.3-1.5-5l0,0l0,0l-2.9-16.5h-27
							c1.9,9.3,3.2,16,3.2,16l0,0l-7.6,5c-0.8,0.5-1.6,1.1-2.4,1.8l0,0l0,0c-0.1,0.1-0.1,0.1-0.2,0.2l-0.1,0.1
							c-0.1,0.1-0.1,0.1-0.2,0.2l-0.1,0.1c-0.1,0.1-0.1,0.1-0.2,0.2l-0.1,0.1c-0.1,0.1-0.2,0.2-0.3,0.3l-0.1,0.1
							c-0.1,0.1-0.1,0.1-0.2,0.2l-0.1,0.1c0,0.1-0.1,0.1-0.1,0.2l-0.1,0.1c0,0.1-0.1,0.1-0.1,0.2c-0.1,0.1-0.1,0.2-0.2,0.2
							c0,0.1-0.1,0.1-0.1,0.2c0,0.1-0.1,0.1-0.1,0.2c0,0.1-0.1,0.1-0.1,0.2c0,0.1-0.1,0.1-0.1,0.2l-0.1,0.1c0,0.1-0.1,0.1-0.1,0.2
							l-0.1,0.1c-0.1,0.1-0.1,0.2-0.2,0.3l-0.1,0.1c0,0.1-0.1,0.1-0.1,0.2l-0.1,0.1c0,0.1-0.1,0.1-0.1,0.2c0,0,0,0.1-0.1,0.1
							c-0.1,0.1-0.1,0.2-0.2,0.3v0.1c-0.1,0.1-0.1,0.2-0.1,0.3c0,0,0,0.1-0.1,0.1c0,0.1-0.1,0.2-0.1,0.2s0,0.1-0.1,0.1
							c0,0.1-0.1,0.2-0.1,0.3v0.1c0,0.1-0.1,0.2-0.1,0.4v0.1c0,0.1-0.1,0.2-0.1,0.3v0.1c0,0.1,0,0.2-0.1,0.3v0.1
							c0,0.1,0,0.2-0.1,0.3c0,0,0,0,0,0.1s0,0.2,0,0.4v0.1c0,0.1,0,0.2,0,0.3v0.1c0,0.1,0,0.2,0,0.3v0.1c0,0.1,0,0.3,0,0.4v0.3h43
							c0.1-0.1,0.1-0.3,0.2-0.5C142.6,217.3,142.6,217.3,142.6,217.2z"/>
					</defs>
					<clipPath id="SVGID_5_">
						<use xlink:href="#SVGID_4_"  style="overflow:visible;"/>
					</clipPath>
					<g style="clip-path:url(#SVGID_5_);">
						<g>
							<path style="fill:#FFFFFF;" d="M117.2,203.9c-0.1,0-0.2,0-0.2-0.1l-6.5-4.4c-0.2-0.1-0.2-0.4-0.1-0.6
								c0.1-0.2,0.4-0.2,0.6-0.1l6.5,4.4c0.2,0.1,0.2,0.4,0.1,0.6C117.5,203.8,117.4,203.9,117.2,203.9z"/>
						</g>
						<circle style="fill:#FFFFFF;" cx="117.2" cy="203.5" r="1.1"/>
					</g>
				</g>
				<g>
					<defs>
						<path id="SVGID_6_" d="M142.6,217.2c0.1-0.1,0.1-0.3,0.1-0.4c0,0,0,0,0-0.1c0.1-0.2,0.1-0.3,0.1-0.5v-0.1
							c0-0.1,0.1-0.3,0.1-0.4v-0.1c0-0.2,0.1-0.4,0.1-0.6v-0.1c0-0.2,0-0.3,0-0.5v-0.1c0-0.2,0-0.4,0-0.6c0,0,0,0,0-0.1
							c0-0.2,0-0.4,0-0.6v-0.1c0-0.4,0-0.9-0.1-1.3v-0.1c0-0.5-0.1-0.9-0.2-1.4V210c-0.1-0.5-0.2-1-0.3-1.5c0,0,0,0,0-0.1
							c0-0.2-0.1-0.5-0.2-0.7l0,0c-0.1-0.3-0.1-0.5-0.2-0.8l0,0l0,0c-0.4-1.6-0.9-3.3-1.5-5l0,0l0,0l-2.9-16.5h-27
							c1.9,9.3,3.2,16,3.2,16l0,0l-7.6,5c-0.8,0.5-1.6,1.1-2.4,1.8l0,0l0,0c-0.1,0.1-0.1,0.1-0.2,0.2l-0.1,0.1
							c-0.1,0.1-0.1,0.1-0.2,0.2l-0.1,0.1c-0.1,0.1-0.1,0.1-0.2,0.2l-0.1,0.1c-0.1,0.1-0.2,0.2-0.3,0.3l-0.1,0.1
							c-0.1,0.1-0.1,0.1-0.2,0.2l-0.1,0.1c0,0.1-0.1,0.1-0.1,0.2l-0.1,0.1c0,0.1-0.1,0.1-0.1,0.2c-0.1,0.1-0.1,0.2-0.2,0.2
							c0,0.1-0.1,0.1-0.1,0.2c0,0.1-0.1,0.1-0.1,0.2c0,0.1-0.1,0.1-0.1,0.2c0,0.1-0.1,0.1-0.1,0.2l-0.1,0.1c0,0.1-0.1,0.1-0.1,0.2
							l-0.1,0.1c-0.1,0.1-0.1,0.2-0.2,0.3l-0.1,0.1c0,0.1-0.1,0.1-0.1,0.2l-0.1,0.1c0,0.1-0.1,0.1-0.1,0.2c0,0,0,0.1-0.1,0.1
							c-0.1,0.1-0.1,0.2-0.2,0.3v0.1c-0.1,0.1-0.1,0.2-0.1,0.3c0,0,0,0.1-0.1,0.1c0,0.1-0.1,0.2-0.1,0.2s0,0.1-0.1,0.1
							c0,0.1-0.1,0.2-0.1,0.3v0.1c0,0.1-0.1,0.2-0.1,0.4v0.1c0,0.1-0.1,0.2-0.1,0.3v0.1c0,0.1,0,0.2-0.1,0.3v0.1
							c0,0.1,0,0.2-0.1,0.3c0,0,0,0,0,0.1s0,0.2,0,0.4v0.1c0,0.1,0,0.2,0,0.3v0.1c0,0.1,0,0.2,0,0.3v0.1c0,0.1,0,0.3,0,0.4v0.3h43
							c0.1-0.1,0.1-0.3,0.2-0.5C142.6,217.3,142.6,217.3,142.6,217.2z"/>
					</defs>
					<clipPath id="SVGID_7_">
						<use xlink:href="#SVGID_6_"  style="overflow:visible;"/>
					</clipPath>
					<g style="clip-path:url(#SVGID_7_);">
						<g>
							<path style="fill:#FFFFFF;" d="M118.2,199L118.2,199l-7.8-1.4c-0.2,0-0.4-0.2-0.3-0.5c0-0.2,0.2-0.4,0.5-0.3l7.7,1.4
								c0.2,0,0.4,0.2,0.3,0.5C118.6,198.9,118.4,199,118.2,199z"/>
						</g>
						<circle style="fill:#FFFFFF;" cx="118.2" cy="198.6" r="1.1"/>
					</g>
				</g>
				<g>
					<defs>
						<path id="SVGID_8_" d="M142.6,217.2c0.1-0.1,0.1-0.3,0.1-0.4c0,0,0,0,0-0.1c0.1-0.2,0.1-0.3,0.1-0.5v-0.1
							c0-0.1,0.1-0.3,0.1-0.4v-0.1c0-0.2,0.1-0.4,0.1-0.6v-0.1c0-0.2,0-0.3,0-0.5v-0.1c0-0.2,0-0.4,0-0.6c0,0,0,0,0-0.1
							c0-0.2,0-0.4,0-0.6v-0.1c0-0.4,0-0.9-0.1-1.3v-0.1c0-0.5-0.1-0.9-0.2-1.4V210c-0.1-0.5-0.2-1-0.3-1.5c0,0,0,0,0-0.1
							c0-0.2-0.1-0.5-0.2-0.7l0,0c-0.1-0.3-0.1-0.5-0.2-0.8l0,0l0,0c-0.4-1.6-0.9-3.3-1.5-5l0,0l0,0l-2.9-16.5h-27
							c1.9,9.3,3.2,16,3.2,16l0,0l-7.6,5c-0.8,0.5-1.6,1.1-2.4,1.8l0,0l0,0c-0.1,0.1-0.1,0.1-0.2,0.2l-0.1,0.1
							c-0.1,0.1-0.1,0.1-0.2,0.2l-0.1,0.1c-0.1,0.1-0.1,0.1-0.2,0.2l-0.1,0.1c-0.1,0.1-0.2,0.2-0.3,0.3l-0.1,0.1
							c-0.1,0.1-0.1,0.1-0.2,0.2l-0.1,0.1c0,0.1-0.1,0.1-0.1,0.2l-0.1,0.1c0,0.1-0.1,0.1-0.1,0.2c-0.1,0.1-0.1,0.2-0.2,0.2
							c0,0.1-0.1,0.1-0.1,0.2c0,0.1-0.1,0.1-0.1,0.2c0,0.1-0.1,0.1-0.1,0.2c0,0.1-0.1,0.1-0.1,0.2l-0.1,0.1c0,0.1-0.1,0.1-0.1,0.2
							l-0.1,0.1c-0.1,0.1-0.1,0.2-0.2,0.3l-0.1,0.1c0,0.1-0.1,0.1-0.1,0.2l-0.1,0.1c0,0.1-0.1,0.1-0.1,0.2c0,0,0,0.1-0.1,0.1
							c-0.1,0.1-0.1,0.2-0.2,0.3v0.1c-0.1,0.1-0.1,0.2-0.1,0.3c0,0,0,0.1-0.1,0.1c0,0.1-0.1,0.2-0.1,0.2s0,0.1-0.1,0.1
							c0,0.1-0.1,0.2-0.1,0.3v0.1c0,0.1-0.1,0.2-0.1,0.4v0.1c0,0.1-0.1,0.2-0.1,0.3v0.1c0,0.1,0,0.2-0.1,0.3v0.1
							c0,0.1,0,0.2-0.1,0.3c0,0,0,0,0,0.1s0,0.2,0,0.4v0.1c0,0.1,0,0.2,0,0.3v0.1c0,0.1,0,0.2,0,0.3v0.1c0,0.1,0,0.3,0,0.4v0.3h43
							c0.1-0.1,0.1-0.3,0.2-0.5C142.6,217.3,142.6,217.3,142.6,217.2z"/>
					</defs>
					<clipPath id="SVGID_9_">
						<use xlink:href="#SVGID_8_"  style="overflow:visible;"/>
					</clipPath>
					<g style="clip-path:url(#SVGID_9_);">
						<g>
							<path style="fill:#FFFFFF;" d="M110.3,194.3c-0.2,0-0.4-0.2-0.4-0.4s0.2-0.4,0.4-0.4l7.9-0.1c0.2,0,0.4,0.2,0.4,0.4
								s-0.2,0.4-0.4,0.4L110.3,194.3L110.3,194.3z"/>
						</g>
						<circle style="fill:#FFFFFF;" cx="118.2" cy="193.8" r="1.1"/>
					</g>
				</g>
				<g>
					<defs>
						<path id="SVGID_10_" d="M142.6,217.2c0.1-0.1,0.1-0.3,0.1-0.4c0,0,0,0,0-0.1c0.1-0.2,0.1-0.3,0.1-0.5v-0.1
							c0-0.1,0.1-0.3,0.1-0.4v-0.1c0-0.2,0.1-0.4,0.1-0.6v-0.1c0-0.2,0-0.3,0-0.5v-0.1c0-0.2,0-0.4,0-0.6c0,0,0,0,0-0.1
							c0-0.2,0-0.4,0-0.6v-0.1c0-0.4,0-0.9-0.1-1.3v-0.1c0-0.5-0.1-0.9-0.2-1.4V210c-0.1-0.5-0.2-1-0.3-1.5c0,0,0,0,0-0.1
							c0-0.2-0.1-0.5-0.2-0.7l0,0c-0.1-0.3-0.1-0.5-0.2-0.8l0,0l0,0c-0.4-1.6-0.9-3.3-1.5-5l0,0l0,0l-2.9-16.5h-27
							c1.9,9.3,3.2,16,3.2,16l0,0l-7.6,5c-0.8,0.5-1.6,1.1-2.4,1.8l0,0l0,0c-0.1,0.1-0.1,0.1-0.2,0.2l-0.1,0.1
							c-0.1,0.1-0.1,0.1-0.2,0.2l-0.1,0.1c-0.1,0.1-0.1,0.1-0.2,0.2l-0.1,0.1c-0.1,0.1-0.2,0.2-0.3,0.3l-0.1,0.1
							c-0.1,0.1-0.1,0.1-0.2,0.2l-0.1,0.1c0,0.1-0.1,0.1-0.1,0.2l-0.1,0.1c0,0.1-0.1,0.1-0.1,0.2c-0.1,0.1-0.1,0.2-0.2,0.2
							c0,0.1-0.1,0.1-0.1,0.2c0,0.1-0.1,0.1-0.1,0.2c0,0.1-0.1,0.1-0.1,0.2c0,0.1-0.1,0.1-0.1,0.2l-0.1,0.1c0,0.1-0.1,0.1-0.1,0.2
							l-0.1,0.1c-0.1,0.1-0.1,0.2-0.2,0.3l-0.1,0.1c0,0.1-0.1,0.1-0.1,0.2l-0.1,0.1c0,0.1-0.1,0.1-0.1,0.2c0,0,0,0.1-0.1,0.1
							c-0.1,0.1-0.1,0.2-0.2,0.3v0.1c-0.1,0.1-0.1,0.2-0.1,0.3c0,0,0,0.1-0.1,0.1c0,0.1-0.1,0.2-0.1,0.2s0,0.1-0.1,0.1
							c0,0.1-0.1,0.2-0.1,0.3v0.1c0,0.1-0.1,0.2-0.1,0.4v0.1c0,0.1-0.1,0.2-0.1,0.3v0.1c0,0.1,0,0.2-0.1,0.3v0.1
							c0,0.1,0,0.2-0.1,0.3c0,0,0,0,0,0.1s0,0.2,0,0.4v0.1c0,0.1,0,0.2,0,0.3v0.1c0,0.1,0,0.2,0,0.3v0.1c0,0.1,0,0.3,0,0.4v0.3h43
							c0.1-0.1,0.1-0.3,0.2-0.5C142.6,217.3,142.6,217.3,142.6,217.2z"/>
					</defs>
					<clipPath id="SVGID_11_">
						<use xlink:href="#SVGID_10_"  style="overflow:visible;"/>
					</clipPath>
					<g style="clip-path:url(#SVGID_11_);">
						<g>
							<path style="fill:#FFFFFF;" d="M109.9,190.1c-0.2,0-0.4-0.2-0.4-0.4s0.1-0.4,0.4-0.4l7.8-0.8c0.2,0,0.4,0.1,0.4,0.4
								c0,0.2-0.1,0.4-0.4,0.4L109.9,190.1L109.9,190.1z"/>
						</g>
						<circle style="fill:#FFFFFF;" cx="117.7" cy="188.9" r="1.1"/>
					</g>
				</g>
			</g>
			<path style="fill:#FFFFFF;" d="M110.3,215.4c-0.6-1.9-1.4-3.8-1.9-5.7c-0.3-1.1-0.6-2.2-1.1-3.3c0-0.1-0.1-0.2-0.1-0.3l-0.5,0.4
				c-0.8,0.5-1.6,1.1-2.4,1.8l0,0c-0.1,0.1-0.1,0.1-0.2,0.2l-0.1,0.1c-0.1,0.1-0.1,0.1-0.2,0.2l-0.1,0.1c-0.1,0.1-0.1,0.1-0.2,0.2
				l-0.1,0.1c-0.1,0.1-0.2,0.2-0.3,0.3l-0.1,0.1c-0.1,0.1-0.1,0.1-0.2,0.2l-0.1,0.1c0,0.1-0.1,0.1-0.1,0.2l-0.1,0.1
				c0,0.1-0.1,0.1-0.1,0.2c-0.1,0.1-0.1,0.2-0.2,0.2c0,0.1-0.1,0.1-0.1,0.2c0,0.1-0.1,0.1-0.1,0.2c0,0.1-0.1,0.1-0.1,0.2
				c0,0.1-0.1,0.1-0.1,0.2l-0.1,0.1c0,0.1-0.1,0.1-0.1,0.2l-0.1,0.1c-0.1,0.1-0.1,0.2-0.2,0.3l-0.1,0.1c0,0.1-0.1,0.1-0.1,0.2
				l-0.1,0.1c0,0.1-0.1,0.1-0.1,0.2c0,0,0,0.1-0.1,0.1c-0.1,0.1-0.1,0.2-0.2,0.3v0.1c-0.1,0.1-0.1,0.2-0.1,0.3c0,0,0,0.1-0.1,0.1
				c0,0.1-0.1,0.2-0.1,0.2s0,0.1-0.1,0.1c0,0.1-0.1,0.2-0.1,0.3v0.1c0,0.1-0.1,0.2-0.1,0.4v0.1c0,0.1-0.1,0.2-0.1,0.3v0.1
				c0,0.1,0,0.2-0.1,0.3v0.1c0,0.1,0,0.2-0.1,0.3c0,0,0,0,0,0.1s0,0.2,0,0.4v0.1c0,0.1,0,0.2,0,0.3v0.1c0,0.1,0,0.2,0,0.3v0.1
				c0,0.1,0,0.3,0,0.4v0.3h11.7C110.8,217,110.5,216.2,110.3,215.4z"/>
			<g>
				<path style="fill:#FFFFFF;" d="M100,214c0,0.1-0.1,0.1-0.1,0.2v0.1c0,0.1-0.1,0.2-0.1,0.4v0.1c0,0.1-0.1,0.2-0.1,0.3v0.1
					c0,0.1,0,0.2-0.1,0.3v0.1c0,0.1,0,0.2-0.1,0.3c0,0,0,0,0,0.1s0,0.2,0,0.4v0.1c0,0.1,0,0.2,0,0.3v0.1c0,0.1,0,0.2,0,0.3v0.1
					c0,0.1,0,0.3,0,0.4v0.3h43c0.1-0.1,0.1-0.3,0.2-0.5v-0.1c0.1-0.1,0.1-0.3,0.1-0.4c0,0,0,0,0-0.1c0.1-0.2,0.1-0.3,0.1-0.5v-0.1
					c0-0.1,0.1-0.3,0.1-0.4v-0.1c0-0.2,0.1-0.4,0.1-0.6v-0.1c0-0.2,0-0.3,0-0.5v-0.1c0-0.1,0-0.2,0-0.3H100V214z"/>
			</g>
			<path style="fill:#181F41;" d="M99.7,214.8c0,0.1,0,0.1-0.1,0.2v0.1c0,0.1,0,0.2-0.1,0.3v0.1c0,0.1,0,0.2-0.1,0.3c0,0,0,0,0,0.1
				H143c0-0.1,0-0.2,0-0.2v-0.1c0-0.2,0.1-0.4,0.1-0.6v-0.1c0,0,0,0,0-0.1H99.7z"/>
		</g>
		<g>
			<path style="fill:#DA478F;" d="M105,94.4h-4.5c-1.9,0-3.5,1.8-3.5,4s1.6,4,3.5,4h0.1h4.5L105,94.4L105,94.4z"/>
			<ellipse style="fill:#AF276E;" cx="105.2" cy="98.4" rx="3.5" ry="4"/>
		</g>
		<g>
			<path style="fill:#181F41;" d="M166.1,79.3c-0.1,0-0.2,0-0.3-0.1c-0.2-0.2-0.2-0.4,0-0.6l16.6-17.3c0.2-0.2,0.4-0.2,0.6,0
				c0.2,0.2,0.2,0.4,0,0.6l-16.6,17.3C166.3,79.3,166.2,79.3,166.1,79.3z"/>
		</g>
		<g>
			<g>
				<path style="fill:#181F41;" d="M185.7,98.9c-2.4,0-3.8-1.2-5-3.5c-0.1-0.1-0.1-0.2,0-0.3c0-0.1,0.1-0.2,0.2-0.2l17.3-7.6
					c0.1-0.1,0.3,0,0.4,0.1c0.1,0.1,2.3,1.9,1.9,4.3c-0.3,1.8-1.9,3.3-4.9,4.5C190.9,98,187.9,98.9,185.7,98.9z M181.5,95.4
					c2,3.5,4.2,3.8,13.7-0.1c2.7-1.1,4.2-2.4,4.4-3.9c0.2-1.6-1-2.9-1.5-3.4L181.5,95.4z"/>
			</g>
			<g>
				<path style="fill:#181F41;" d="M191.1,109.4c-1.1,0-2.1-0.3-2.8-1.5c-1.8-2.7-3.5-5.5-5.1-8.3c-0.8-1.4-1.6-2.8-2.5-4.1
					c-0.1-0.2-0.1-0.4,0.1-0.6c0.2-0.1,0.4-0.1,0.6,0.1c0.8,1.4,1.7,2.8,2.5,4.2c1.6,2.7,3.3,5.6,5.1,8.2c1.1,1.6,2.7,1.2,4.6,0.7
					l0.2-0.1c4.5-1.1,6.8-2.3,10-4.1l0.2-0.1c0.6-0.3,1.6-0.9,2.1-2.1c0.6-1.4-1.4-4-2.7-5.7c-0.3-0.4-0.5-0.7-0.7-1l-2.9-4.2
					c-0.1-0.2-0.1-0.4,0.1-0.6c0.2-0.1,0.4-0.1,0.6,0.1l2.9,4.2c0.2,0.3,0.5,0.6,0.7,1c1.5,2,3.5,4.7,2.8,6.5
					c-0.6,1.4-1.8,2.1-2.5,2.5l-0.2,0.1c-3.3,1.9-5.6,3.1-10.2,4.2l-0.2,0.1C192.9,109.2,191.9,109.4,191.1,109.4z"/>
			</g>
		</g>
		<g>
			<path style="fill:#181F41;" d="M163.2,53c-0.1,0-0.2,0-0.3-0.1c-0.2-0.2-0.2-0.4,0-0.6c0.1-0.1,2.8-2.8,5.1-4.1
				c0.2-0.1,0.4,0,0.5,0.2s0,0.4-0.2,0.5c-2.2,1.2-4.8,3.9-4.9,3.9C163.4,52.9,163.3,53,163.2,53z"/>
		</g>
		<g>
			<path style="fill:#181F41;" d="M147.8,78.7c-0.1,0-0.2,0-0.2-0.1c-1.1-0.7-3.4-1.5-5.6-1.9c-0.2,0-0.4-0.3-0.3-0.5
				c0-0.2,0.3-0.4,0.5-0.3c1.9,0.4,4.5,1.2,5.9,2.1c0.2,0.1,0.2,0.4,0.1,0.6C148,78.6,147.9,78.7,147.8,78.7z"/>
		</g>
		<path style="fill:#181F41;" d="M160.5,20.6c0.9,5.8,0.6,10.2-1.7,15.3l2,1.1c2.7-4.9,2.6-9.8,2.2-15.6"/>
		<path style="fill:#181F41;" d="M176.6,26.7c-5.1,2.9-9.4,5.2-15,4.9l0.1-2.3c5.6-0.2,9.7-1.8,14.5-5.2"/>
		<path style="fill:#C2DEFF;" d="M150.2,22.2c0.7-7.4,4-17.9,18.5-18.3c12.8-0.3,19.5,8.2,17.4,17.9c-0.5,2.1-1.4,4-2.9,5.4
			c-0.5,0.5-1.2,0.8-2,0.9l-8,0.7c-2.3,0.2-5.4,0.3-7.9-2.2c-1.5-1.4-3-3.2-4-4.4c-0.7-0.9-1.8-1.3-2.9-1.2L150.2,22.2z"/>
		<path style="fill:#C2DEFF;" d="M150.2,22.2l-1.2,0.2c-0.7,0.1-1.4,0-2.1-0.3l-1.9-0.9l8.3-6.2"/>
		<g>
			<g>
				<path style="fill:#9AB5E5;" d="M153.2,22.2c-0.1,0-0.3-0.1-0.3-0.2c-1.5-2.4-2.1-5.2-2.2-5.3c0-0.2,0.1-0.4,0.3-0.5
					s0.4,0.1,0.5,0.3c0,0,0.7,2.8,2,5.1c0.1,0.2,0.1,0.4-0.1,0.6C153.3,22.2,153.3,22.2,153.2,22.2z"/>
			</g>
			<g>
				<path style="fill:#9AB5E5;" d="M180.7,11.8c-0.1,0-0.3-0.1-0.4-0.2c-4-7.9-18.4-5.6-23.5-3.3c-0.2,0.1-0.4,0-0.5-0.2
					s0-0.4,0.2-0.5c5.4-2.4,20.2-4.8,24.5,3.7c0.1,0.2,0,0.4-0.2,0.5C180.8,11.7,180.7,11.8,180.7,11.8z"/>
			</g>
			<g>
				<path style="fill:#9AB5E5;" d="M177.4,28.8c-0.1,0-0.2-0.1-0.3-0.2c-0.1-0.2-0.1-0.4,0.1-0.6c2.4-1.8,4-4.8,4.1-8
					c0-0.2,0.2-0.4,0.4-0.4s0.4,0.2,0.4,0.4c-0.1,3.4-1.8,6.7-4.4,8.6C177.6,28.8,177.5,28.8,177.4,28.8z"/>
			</g>
			<path style="fill:#00E7AE;" d="M184.6,11.1l-3.3,0.2c-2.4,0.1-4.3,2.2-4.2,4.6s2.2,4.3,4.6,4.2l4.8-0.2
				C186.8,16.7,186.1,13.7,184.6,11.1z"/>
			<path style="fill:#181F41;" d="M184.6,11.1l-3.3,0.2c-1.8,0.1-3.2,1.2-3.9,2.7c0.8-1.1,2-1.9,3.5-1.9l2.6-0.1
				c0.5,0,0.9,0.2,1.2,0.7c1.1,2.2,1.4,4.8,1.2,7.3h0.7C186.8,16.7,186.1,13.7,184.6,11.1z"/>
		</g>
		<g>
			<path style="fill:#181F41;" d="M200,106.8c-0.2,0-0.4-0.2-0.4-0.4c-0.1-3-4.1-8-6.1-9.8c-0.2-0.1-0.2-0.4,0-0.6
				c0.1-0.2,0.4-0.2,0.6,0c2.1,1.9,6.2,7.1,6.3,10.3C200.4,106.6,200.2,106.8,200,106.8L200,106.8z"/>
		</g>
		<g>
			<path style="fill:#181F41;" d="M165.5,107.5c-0.2,0-0.3-0.1-0.4-0.3c-0.1-0.2,0.1-0.4,0.3-0.5c3.2-0.8,7.1-1.3,9.3-1.5
				c0.2,0,0.4,0.2,0.4,0.4c0,0.2-0.2,0.4-0.4,0.4C172.5,106.1,168.7,106.6,165.5,107.5C165.5,107.4,165.5,107.5,165.5,107.5z"/>
		</g>
		<g>
			<path style="fill:#FF8891;" d="M95.7,94.7c2.1,1.5,10.9,1.2,14.3-3.2"/>
			<path style="fill:#181F41;" d="M99.7,95.8c-1.9,0-3.5-0.3-4.3-0.9c-0.2-0.1-0.2-0.4-0.1-0.6s0.4-0.2,0.6-0.1
				c2,1.4,10.5,1.1,13.7-3.1c0.1-0.2,0.4-0.2,0.6-0.1s0.2,0.4,0.1,0.6C108,94.7,103.3,95.8,99.7,95.8z"/>
		</g>
	</g>
</g>
</svg>
