<?xml version="1.0" encoding="utf-8"?>
<!-- Generator: Adobe Illustrator 26.0.3, SVG Export Plug-In . SVG Version: 6.00 Build 0)  -->
<svg version="1.1" id="레이어_1" xmlns="http://www.w3.org/2000/svg" xmlns:xlink="http://www.w3.org/1999/xlink" x="0px"
	 y="0px" viewBox="0 0 390 390" style="enable-background:new 0 0 390 390;" xml:space="preserve">
<style type="text/css">
	.st0{fill:#FF7C00;}
	.st1{fill:#AA5D00;}
	.st2{fill:#E3BD77;}
	.st3{fill:#3F74C4;}
	.st4{fill:#009B38;}
	.st5{fill:#A90718;}
	.st6{fill-rule:evenodd;clip-rule:evenodd;fill:#F9FF2E;}
	.st7{fill:#FFFFFF;}
	.st8{fill-rule:evenodd;clip-rule:evenodd;}
	.st9{fill:#0053DD;}
</style>
<g>
	<g>
		<rect x="159" y="274.5" class="st0" width="20.5" height="87.8"/>
		<path d="M181.4,364.1h-24.2v-91.5h24.2V364.1z M160.8,360.5h16.9v-84.2h-16.9V360.5z"/>
	</g>
	<g>
		<path class="st0" d="M188.1,357.1c0-14.4-12.1-25.9-26.7-25c-13.3,0.9-23.4,12.5-23.4,25.8l0,0c0,7.1,5.8,12.9,12.9,12.9h24.2
			c7.1,0,12.9-5.8,12.9-12.9v-0.8H188.1z"/>
		<path d="M175.2,372.7H151c-8.1,0-14.7-6.6-14.7-14.7c0-14.6,11-26.7,25.1-27.6c7.5-0.5,14.7,2.1,20.1,7.2
			c5.4,5.1,8.5,12.2,8.5,19.6v0.9C189.9,366.1,183.3,372.7,175.2,372.7z M163.1,333.9c-0.5,0-1,0-1.6,0.1
			c-12.2,0.8-21.7,11.3-21.7,24c0,6.1,5,11.1,11.1,11.1h24.2c6.1,0,11.1-5,11.1-11.1v-0.9c0-6.5-2.6-12.5-7.3-16.9
			C174.6,336.1,169,333.9,163.1,333.9z"/>
	</g>
</g>
<g>
	<g>
		<rect x="206.2" y="272.8" class="st0" width="20.5" height="88.1"/>
		<path d="M228.6,362.7h-24.2V271h24.2V362.7z M208.1,359H225v-84.4h-16.9V359z"/>
	</g>
	<g>
		<path class="st0" d="M247.4,357.1c0-14.4-12.1-25.9-26.7-25c-13.3,0.9-23.4,12.5-23.4,25.8l0,0c0,7.1,5.8,12.9,12.9,12.9h24.2
			c7.1,0,12.9-5.8,12.9-12.9v-0.8H247.4z"/>
		<path d="M234.5,372.7h-24.2c-8.1,0-14.7-6.6-14.7-14.7c0-14.6,11-26.7,25.1-27.6c7.5-0.5,14.7,2.1,20.1,7.2
			c5.4,5.1,8.5,12.2,8.5,19.6v0.9C249.2,366.1,242.6,372.7,234.5,372.7z M222.4,333.9c-0.5,0-1,0-1.6,0.1
			c-12.1,0.8-21.7,11.3-21.7,24c0,6.1,5,11.1,11.1,11.1h24.2c6.1,0,11.1-5,11.1-11.1v-0.9c0-6.5-2.6-12.5-7.3-16.9
			C233.9,336.1,228.3,333.9,222.4,333.9z"/>
	</g>
</g>
<g>
	<path class="st1" d="M253.8,190.5c4.1-3.9,10.3-4.6,16-4.7c14.5-0.3,29.1,1.7,42.9,5.9c6.3,1.9,13.1,4.9,15.2,11.1
		c1.7,5.2-0.5,10.9-3.6,15.4c-9.5,14.1-27.1,22.2-44,20.3"/>
	<path class="st2" d="M294.6,187.8c9.1,16.2,10,34.8,9.4,46.3c4.3-2.1,8.4-4.8,11.9-8.1c1.7-15.1-2.5-26.9-7-34.9
		C304.2,189.7,299.4,188.6,294.6,187.8z"/>
	<path class="st2" d="M294.6,237.4c3.8-0.9,7.5-2.4,11-4.2c4.5-20.6-2.2-36.1-7.9-44.9c-4.5-0.9-8.9-1.6-13.5-2
		C295.2,204.4,295.5,226,294.6,237.4z"/>
	<path class="st3" d="M289.4,187c10.3,17,11,37.1,10.3,48.9c4.1-1.5,8-3.6,11.6-6.1c2.9-18-2.8-31.8-8-40.1
		C298.7,188.5,294.1,187.6,289.4,187z"/>
	<path d="M283.5,240.6c15.9,0,31.7-8.2,40.5-21.4c2.9-4.3,5.9-10.8,3.8-17c-2.5-7.3-10.5-10.5-16.4-12.3c-14.1-4.3-28.8-6.3-43.5-6
		c-5.9,0.1-12.6,0.8-17.2,5.2c-0.7,0.7-0.8,1.8-0.1,2.6c0.7,0.7,1.8,0.8,2.6,0.1c3.7-3.5,9.6-4.1,14.8-4.2
		c14.4-0.3,28.6,1.6,42.4,5.8c5.1,1.5,12.1,4.2,14,10c1.6,4.8-0.9,10.2-3.4,13.8c-9.1,13.5-26.1,21.4-42.2,19.5
		c-1-0.1-1.9,0.6-2,1.6s0.6,1.9,1.6,2C280.1,240.5,281.8,240.6,283.5,240.6z"/>
</g>
<g>
	<path class="st1" d="M136.2,190.5c-4.1-3.9-10.3-4.6-16-4.7c-14.5-0.3-29.1,1.7-42.9,5.9c-6.3,1.9-13.1,4.9-15.2,11.1
		c-1.7,5.2,0.5,10.9,3.6,15.4c9.5,14.1,27.1,22.2,44,20.3"/>
	<path class="st2" d="M95.4,187.8c-9.1,16.2-10,34.8-9.4,46.3c-4.3-2.1-8.4-4.8-11.9-8.1c-1.7-15.1,2.5-26.9,7-34.9
		C85.8,189.7,90.6,188.6,95.4,187.8z"/>
	<path class="st2" d="M95.4,237.4c-3.8-0.9-7.5-2.4-11-4.2c-4.5-20.6,2.2-36.1,7.9-44.9c4.5-0.9,8.9-1.6,13.5-2
		C94.8,204.4,94.5,226,95.4,237.4z"/>
	<path class="st3" d="M100.6,187c-10.3,17-11,37.1-10.3,48.9c-4.1-1.5-8-3.6-11.6-6.1c-2.9-18,2.8-31.8,8-40.1
		C91.3,188.5,95.9,187.6,100.6,187z"/>
	<path d="M106.5,240.6c-15.9,0-31.7-8.2-40.5-21.4c-2.9-4.3-5.9-10.8-3.8-17c2.5-7.3,10.5-10.5,16.4-12.3c14.1-4.3,28.8-6.3,43.5-6
		c5.9,0.1,12.6,0.8,17.2,5.2c0.7,0.7,0.8,1.8,0.1,2.6c-0.7,0.7-1.8,0.8-2.6,0.1c-3.7-3.5-9.6-4.1-14.8-4.2
		c-14.4-0.3-28.6,1.6-42.4,5.8c-5.1,1.5-12.1,4.2-14,10c-1.6,4.8,0.9,10.2,3.4,13.8c9.1,13.5,26.1,21.4,42.2,19.5
		c1-0.1,1.9,0.6,2,1.6s-0.6,1.9-1.6,2C109.9,240.5,108.2,240.6,106.5,240.6z"/>
</g>
<g>
	<g id="XMLID_214_">
		<g>
			<path class="st1" d="M273.9,222.6c3.7,22.2,0.9,47.4-15.4,62.9c-14.1,13.4-34.9,16.6-54.4,17.3c-13.3,0.5-26.8,0.1-39.8-3.1
				c-12.9-3.2-25.4-9.5-34.4-19.3c-15.9-17.3-19-43.3-14.5-66.3c0.6-3.1,1.3-6.2,2-9.3c11.8,4.3,38.9,12.5,75.1,12.5
				c39,0,67.4-9.5,77.5-13.4C271.4,210.1,272.9,216.4,273.9,222.6z"/>
			<path class="st2" d="M268.9,196.8c0.4,2.4,0.8,4.8,1.3,7.2c-10.1,4-38.6,13.4-77.5,13.4c-36.2,0-63.3-8.2-75.1-12.5
				c1.3-5.8,2.4-11.7,2.3-17.7c0,0,29,15.1,72.9,15.1s72.9-15.1,72.9-15.1l2.5-0.1C268.1,190.4,268.5,193.6,268.9,196.8z"/>
			<path class="st4" d="M268.2,179.8c-0.2,2.4-0.3,4.9-0.2,7.3l-2.5,0.1c0,0-29,15.1-72.9,15.1s-72.9-15.1-72.9-15.1
				c-0.3-11.1-5.1-21.5-8-32.2c-5.9-21.9-3.4-46.2,8-65.9c27-46.9,99.5-52.1,136-13.3c18.4,19.6,24.5,48.9,18.8,75.1
				C272.6,160.6,269,170,268.2,179.8z"/>
		</g>
	</g>
</g>
<g>
	<path d="M192.7,49.9c23.4,0,46.9,8.6,63.1,25.9c18.4,19.6,24.5,48.9,18.8,75.1c-2.1,9.7-5.7,19.1-6.5,28.9
		c-0.5,5.7-0.1,11.3,0.8,17c1.3,8.6,3.6,17.2,5,25.8c3.7,22.2,0.9,47.4-15.4,62.9c-14.1,13.4-34.9,16.6-54.3,17.3
		c-2.9,0.1-5.9,0.2-8.8,0.2c-10.4,0-20.8-0.8-30.9-3.3c-12.9-3.2-25.4-9.5-34.4-19.3c-15.9-17.3-19-43.3-14.5-66.3
		c1.8-8.9,4.6-17.8,4.3-26.9c-0.3-11.1-5.1-21.5-8-32.2c-5.9-21.9-3.4-46.2,8-65.9C134.7,63.1,163.6,49.9,192.7,49.9 M192.7,46.3
		c-32.3,0-61.5,15.7-76,41c-11.6,20.1-14.6,45.1-8.3,68.6c0.9,3.3,2,6.6,3,9.8c2.4,7.4,4.7,14.3,4.9,21.6c0.2,6.4-1.2,12.6-2.7,19.3
		c-0.5,2.3-1,4.6-1.5,6.9c-5.4,27.2,0.4,53.2,15.4,69.5c8.8,9.6,21.4,16.6,36.2,20.3c9.2,2.3,19.6,3.4,31.8,3.4c2.8,0,5.8-0.1,9-0.2
		c18.1-0.7,41-3.3,56.7-18.3c15.1-14.4,21.1-38.5,16.5-66.2c-0.7-4-1.5-8.1-2.4-12c-1-4.5-1.9-9.2-2.6-13.7
		c-0.9-6.2-1.2-11.3-0.8-16.1c0.5-6.1,2.1-11.9,3.8-18.1c0.9-3.4,1.9-6.8,2.6-10.3c6.2-28.7-1.3-58.7-19.7-78.3
		C242.3,56.1,218.3,46.3,192.7,46.3L192.7,46.3z"/>
</g>
<g>
	<path class="st4" d="M175.2,52.2c0,0,6.5-16.1,17.5-12.5c14.6,4.7,17.6-5.4,17.6-5.4s4.8,17.9-11.2,24.6"/>
	<path d="M199.1,60.7c-0.7,0-1.4-0.4-1.7-1.1c-0.4-0.9,0.1-2,1-2.4c9.7-4.1,11-12.7,10.8-18c-0.7,0.7-1.6,1.4-2.7,1.9
		c-3.8,2-8.6,2.1-14.3,0.2c-9.3-3-15.2,11.3-15.3,11.5c-0.4,0.9-1.4,1.4-2.4,1c-0.9-0.4-1.4-1.4-1-2.4c0.3-0.7,7.3-17.6,19.8-13.6
		c4.8,1.5,8.7,1.6,11.5,0c2.9-1.5,3.8-4.2,3.8-4.2c0.2-0.8,0.8-1.3,1.8-1.3c0.8,0,1.5,0.6,1.7,1.3c0.1,0.2,5,19.5-12.2,26.7
		C199.6,60.7,199.4,60.7,199.1,60.7z"/>
</g>
<g>
	<g>
		<path class="st0" d="M201.8,144.2c1.9,0,3.1,2.1,2.1,3.7c-1.7,2.7-4.8,5.9-10.2,5.9c-5.3,0-8.8-3.1-10.8-5.8c-1.2-1.6,0-3.9,2-3.9
			h16.9V144.2z"/>
		<path d="M193.7,155.7c-6.1,0-10-3.5-12.2-6.5c-1-1.3-1.1-3-0.4-4.4c0.7-1.5,2.2-2.4,3.8-2.4h17c1.6,0,3,0.8,3.7,2.2
			c0.8,1.4,0.7,3-0.1,4.3C203.5,152,199.9,155.7,193.7,155.7z M184.8,146c-0.3,0-0.5,0.2-0.6,0.4s-0.1,0.4,0.1,0.6
			c1.7,2.3,4.8,5,9.4,5c3.7,0,6.6-1.7,8.7-5.1c0.2-0.3,0.1-0.5,0-0.6s-0.2-0.3-0.5-0.3L184.8,146L184.8,146z"/>
	</g>
	<g>
		<polygon class="st5" points="181.1,128.6 184.8,144.2 201.8,144.2 205.5,128.6 195,121.7 		"/>
		<path d="M203.2,146h-19.8l-4.4-18.4l16.1-8l12.4,8.2L203.2,146z M186.3,142.4h14.1l3.1-13l-8.6-5.7l-11.6,5.8L186.3,142.4z"/>
	</g>
	<g>
		<path class="st0" d="M181.1,128.6c-2.7,0-4.4-3-3-5.3c2.4-3.9,6.9-8.5,14.7-8.5c7.6,0,12.6,4.4,15.5,8.3c1.7,2.3,0.1,5.6-2.8,5.6
			c0,0-5.7-3-12.2-2.8C186.9,126,181.1,128.6,181.1,128.6z"/>
		<path d="M205.5,130.4H205l-0.4-0.2c-0.1,0-5.5-2.8-11.3-2.6c-6,0.2-11.4,2.6-11.5,2.7l-0.4,0.2H181c-2,0-3.7-1-4.6-2.7
			c-0.9-1.7-0.9-3.7,0.1-5.4c2.6-4.3,7.6-9.4,16.2-9.4c8.4,0,13.9,4.9,17,9c1.2,1.6,1.4,3.7,0.5,5.5
			C209.3,129.3,207.5,130.4,205.5,130.4z M192.8,116.6c-6.9,0-11,4.2-13.1,7.7c-0.5,0.8-0.2,1.4,0,1.7c0.1,0.2,0.5,0.7,1.2,0.8
			c1.5-0.6,6.7-2.6,12.4-2.8c5.8-0.2,11,2,12.6,2.8c0.7-0.1,1.1-0.7,1.2-0.9c0.1-0.3,0.4-1-0.2-1.7
			C204.2,120.7,199.7,116.6,192.8,116.6z"/>
	</g>
</g>
<g>
	<path class="st6" d="M291.3,110.7c8.2-7.3,22.1-8.5,22.1-8.5c-22.1-9.1,0-29.6,0-29.6c-32.6,12.1-26-15.7-26-15.7
		s-6.6,10.3-13.9,13.3"/>
	<path d="M291.3,112.5c-0.5,0-1-0.2-1.4-0.6c-0.7-0.7-0.6-1.9,0.2-2.6c5.3-4.7,12.7-7,17.7-8c-3.3-2.3-5.2-5.1-5.8-8.5
		c-1.1-6,2.5-12.3,5.7-16.5c-8.2,2.1-14.3,1.4-18.2-2.1c-3.4-3-4.4-7.5-4.5-11.2c-2.7,3.2-6.7,7.1-10.8,8.8c-0.9,0.4-2-0.1-2.4-1
		s0.1-2,1-2.4c6.7-2.8,13-12.5,13.1-12.6c0.5-0.7,1.4-1,2.2-0.7c0.8,0.3,1.3,1.2,1.1,2.1c0,0.1-2.2,9.8,2.8,14.2
		c3.7,3.3,10.9,3.1,20.8-0.6c0.8-0.3,1.7,0,2.2,0.7s0.3,1.7-0.3,2.3c-0.1,0.1-10.6,10-9.1,18.2c0.6,3.5,3.5,6.3,8.5,8.4
		c0.8,0.3,1.2,1.1,1.1,1.9s-0.8,1.5-1.6,1.5c-0.1,0-13.4,1.3-21,8C292.2,112.4,291.8,112.5,291.3,112.5z"/>
</g>
<g>
	<g>
		<path class="st7" d="M169.2,99.6c0.9-0.2,1.9-0.3,2.8-0.3c3,0,6,1.2,7.7,3.8c6.2,9.1-7.2,11.7-13.6,9.4c-3.3-1.2-5.2-4.2-4.1-7.7
			C163.1,101.8,166.3,100.2,169.2,99.6z"/>
		<path d="M171.4,115.1c-2.1,0-4.2-0.3-5.8-0.9c-4.3-1.6-6.5-5.7-5.2-9.9c1-3.2,4.2-5.6,8.5-6.4l0,0c1.1-0.2,2.2-0.3,3.2-0.3
			c3.9,0,7.3,1.7,9.2,4.6c3.1,4.6,1.7,7.6,0.6,9.1C179.7,114,175.4,115.1,171.4,115.1z M169.5,101.4c-1.1,0.2-4.8,1.2-5.7,4
			c-0.9,2.7,0.9,4.7,3,5.4c3.7,1.3,10.2,0.7,12.2-1.9c0.3-0.4,1.3-1.7-0.7-4.8c-1.3-1.9-3.5-2.9-6.2-3
			C171.2,101.2,170.4,101.2,169.5,101.4L169.5,101.4z"/>
	</g>
	<g>
		<circle class="st8" cx="171.6" cy="106.3" r="3"/>
	</g>
	<g>
		<path class="st7" d="M217.4,99.6c-0.9-0.2-1.9-0.3-2.8-0.3c-3,0-6,1.2-7.7,3.8c-6.2,9.1,7.2,11.7,13.6,9.4
			c3.3-1.2,5.2-4.2,4.1-7.7C223.5,101.8,220.3,100.2,217.4,99.6z"/>
		<path d="M215.2,115.1c-4,0-8.3-1.1-10.5-3.9c-1.1-1.4-2.5-4.5,0.6-9.1c1.9-2.9,5.3-4.5,9.2-4.6c1.1,0,2.1,0.1,3.2,0.3l0,0
			c4.3,0.8,7.4,3.3,8.5,6.4c1.3,4.2-0.9,8.4-5.2,9.9C219.4,114.8,217.4,115.1,215.2,115.1z M214.7,101.2
			C214.7,101.2,214.6,101.2,214.7,101.2c-2.8,0-5.1,1.1-6.3,3c-2.1,3.1-1.1,4.4-0.7,4.8c2,2.6,8.5,3.2,12.2,1.9
			c2.1-0.7,3.8-2.7,3-5.4c-0.9-2.8-4.6-3.8-5.7-4C216.3,101.2,215.5,101.2,214.7,101.2z"/>
	</g>
	<g>
		<circle class="st8" cx="215" cy="106.3" r="3"/>
	</g>
</g>
<g>
	<g>
		<rect x="76.6" y="176.5" class="st9" width="236.8" height="69.2"/>
	</g>
	<g>
		<path class="st7" d="M103,206.9c0-5.6,3.1-8.7,8-8.7c3.8,0,6.5,1.9,7.6,5.3l1.9-0.1v-3.1c0-1,0.4-1.5,1.3-1.5h3.4
			c0.9,0,1.3,0.5,1.3,1.5v15.4c0,1-0.4,1.6-1.3,1.6h-3.4c-0.9,0-1.3-0.5-1.3-1.6v-6l-1.8,0.1c-1,3.8-3.7,5.8-7.7,5.8
			C106.2,215.6,103,212.4,103,206.9z M113.3,206.9c0-1.6-1-2.4-2.2-2.4s-2.2,0.9-2.2,2.4c0,1.6,0.9,2.4,2.2,2.4
			C112.3,209.3,113.3,208.5,113.3,206.9z M112.3,227.6c-0.9,0-1.3-0.5-1.3-1.6v-7.8c0-1,0.4-1.5,1.3-1.5h4.2c0.9,0,1.3,0.5,1.3,1.5
			v3l11.8-0.2c0.7,0,1.1,0.4,1.1,1.2v3.8c0,0.8-0.4,1.2-1.2,1.2L112.3,227.6z M127.8,200c0-1,0.4-1.6,1.3-1.6h3.4
			c0.9,0,1.3,0.5,1.3,1.6v15.4c0,1-0.4,1.6-1.3,1.6h-3.4c-0.9,0-1.3-0.5-1.3-1.6V200z"/>
		<path class="st7" d="M138.5,223.2c-0.7,0-1.1-0.3-1.1-1v-3.7c0-0.7,0.4-1,1.1-1l18.8-0.3c0.7,0,1.1,0.3,1.1,1v3.7
			c0,0.7-0.4,1-1.1,1L138.5,223.2z M144.4,203.6v1.1l12.3-0.2c0.7,0,1.1,0.3,1.1,1v3.1c0,0.6-0.4,1-1.1,1l-12.2,0.2v1l12.2-0.2
			c0.9,0,1.1,0.4,1.1,1.3v2.4c0,1-0.2,1.3-1.1,1.3l-17.8,0.3c-0.9,0-1.2-0.5-1.3-1.5l-0.2-14.2c0-1.1,0.4-1.5,1.3-1.5l18.4-0.3
			c0.9,0,1.1,0.3,1.1,1.3v2.2c0,1.1-0.2,1.3-1.1,1.3L144.4,203.6z"/>
		<path class="st7" d="M169.3,213.9l0.1,2.4l7.6-0.2c0.7,0,1.1,0.3,1.1,1v4.2c0,0.7-0.4,1-1.1,1l-13.1,0.3c-0.9,0-1.2-0.4-1.3-1.5
			l-0.2-11.2c0-1.1,0.3-1.4,1.3-1.5l7.6-0.8l0.1-2.6l-8.3,0.2c-0.7,0-1.1-0.3-1.1-1v-4.3c0-0.7,0.4-1,1.1-1l14.1-0.3
			c1,0,1.3,0.4,1.3,1.5l-0.3,11.8c0,1.1-0.3,1.4-1.2,1.5L169.3,213.9z M180.1,200.7c0-1,0.4-1.6,1.3-1.6h4.2c0.9,0,1.3,0.5,1.3,1.6
			v19.4c0,1-0.4,1.6-1.3,1.6h-4.2c-0.9,0-1.3-0.5-1.3-1.6V200.7z"/>
		<path class="st7" d="M206.7,216.6l-3.4,5.5c-0.4,0.6-0.8,0.6-1.4,0.2l-3.4-2.6c-0.6-0.4-0.7-1-0.3-1.6l4.6-7.1
			c0.4-0.6,0.5-1.2,0.5-1.9V200c0-1.1,0.4-1.5,1.3-1.5h4.3c0.9,0,1.3,0.4,1.3,1.5v9.2c0,0.7,0.1,1.3,0.5,1.9l4.2,6.5
			c0.4,0.6,0.5,1-0.1,1.5l-3.5,2.6c-0.5,0.3-0.9,0.2-1.3-0.3L206.7,216.6z M215.7,200.7c0-1,0.4-1.6,1.3-1.6h4.2
			c0.9,0,1.3,0.5,1.3,1.6v6.5l1.6-0.1c0.8,0,1.2,0.3,1.2,1.1v4.2c0,0.7-0.4,1-1.2,1.1l-1.6,0.1v6.7c0,1-0.4,1.6-1.3,1.6H217
			c-0.9,0-1.3-0.5-1.3-1.6V200.7z"/>
		<path class="st7" d="M235,208.9v1l7-0.2c0.7,0,1.1,0.3,1.1,1v2.9c0,0.7-0.4,1-1.1,1l-12.5,0.3c-0.9,0-1.2-0.4-1.3-1.5l-0.1-7.1
			c0-1.1,0.3-1.4,1.3-1.5l7.1-0.8v-0.9l-7.7,0.2c-0.7,0-1.1-0.3-1.1-1v-2.8c0-0.7,0.4-1,1.1-1l13.5-0.3c1,0,1.3,0.4,1.3,1.5
			l-0.2,7.2c0,1.1-0.3,1.4-1.2,1.5L235,208.9z M233.2,221.9c0-4.1,3.5-6.3,8.6-6.3s8.6,2.3,8.6,6.3c0,4.1-3.5,6.3-8.6,6.3
			C236.7,228.3,233.2,226,233.2,221.9z M244.1,221.9c0-0.9-0.7-1.6-2.2-1.6s-2.2,0.7-2.2,1.6s0.7,1.6,2.2,1.6
			S244.1,222.8,244.1,221.9z M244.9,200c0-1,0.4-1.6,1.3-1.6h4.2c0.9,0,1.3,0.5,1.3,1.6v3.3l1.6-0.1c0.8,0,1.2,0.3,1.2,1.1v4.2
			c0,0.7-0.4,1-1.2,1.1l-1.6,0.1v3.7c0,1-0.4,1.6-1.3,1.6h-4.2c-0.9,0-1.3-0.5-1.3-1.6V200z"/>
		<path class="st7" d="M271.8,203.4c0,1.1-0.3,1.4-1.2,1.4l-12.9,0.3c-0.9,0-1.2-0.3-1.2-1.4v-2.9c0-1.1,0.3-1.4,1.2-1.4l3.1-0.1
			v-1.1c0-1.1,0.4-1.4,1.3-1.4h4.3c0.9,0,1.3,0.3,1.3,1.4v1l3-0.1c0.9,0,1.2,0.3,1.2,1.4L271.8,203.4L271.8,203.4z M256.8,213.1
			c0-4.6,3.1-7.4,7.5-7.4c4.5,0,7.5,2.9,7.5,7.4c0,4.6-3.1,7.4-7.5,7.4S256.8,217.7,256.8,213.1z M266.4,213.1c0-1.1-0.7-1.9-2-1.9
			s-2,0.8-2,1.9c0,1.1,0.7,1.9,2,1.9S266.4,214.2,266.4,213.1z M280.8,213.1h-1.5v7c0,1-0.4,1.6-1.3,1.6h-3.4
			c-0.9,0-1.3-0.5-1.3-1.6v-19.4c0-1,0.4-1.6,1.3-1.6h3.4c0.9,0,1.3,0.5,1.3,1.6v6.2h1.5v-6.5c0-1,0.4-1.5,1.3-1.5h3.4
			c0.9,0,1.3,0.5,1.3,1.5v19.4c0,1-0.4,1.6-1.3,1.6h-3.4c-0.9,0-1.3-0.5-1.3-1.6V213.1z"/>
	</g>
	<g>
		<rect x="296.7" y="177" class="st7" width="16.6" height="68.6"/>
	</g>
	<g>
		<rect x="76.6" y="177" class="st7" width="16.6" height="68.6"/>
	</g>
	<g>
		<path d="M313.5,247.4H76.6c-1,0-1.8-0.8-1.8-1.8v-69.1c0-1,0.8-1.8,1.8-1.8h236.8c1,0,1.8,0.8,1.8,1.8v69.2
			C315.3,246.6,314.5,247.4,313.5,247.4z M78.5,243.8h233.2v-65.5H78.5V243.8z"/>
	</g>
</g>
</svg>
