<?xml version="1.0" encoding="utf-8"?>
<!-- Generator: Adobe Illustrator 26.5.0, SVG Export Plug-In . SVG Version: 6.00 Build 0)  -->
<svg version="1.1" id="레이어_5" xmlns="http://www.w3.org/2000/svg" xmlns:xlink="http://www.w3.org/1999/xlink" x="0px"
	 y="0px" viewBox="0 0 390 390" style="enable-background:new 0 0 390 390;" xml:space="preserve">
<g>
	<g>
		<g>
			<g>
				<g>
					<path style="fill:#FFFFFF;" d="M158.7,13.1c2.5,0.7,5,1.8,7.6,3.2c2.1,1.2,4.1,2.7,6,4.2c6,5,13.7,20.6,5.4,26.9
						c-6,4.5-11.5-6.8-14.8-10c-7.5-7.3-18.2,0.7-24,6.8c-4.7,4.9-12.4,5.1-17.3,0.4c-4.9-4.7-5.1-12.4-0.5-17.4
						c5.7-6.1,12.8-11.3,20.9-13.8C148.1,11.6,153.4,11.5,158.7,13.1z"/>
					<path d="M151.1,12c2.6,0,5.1,0.4,7.6,1.1c2.5,0.7,5,1.8,7.6,3.2c2.1,1.2,4.1,2.7,6,4.2c6,5,13.7,20.6,5.4,26.9
						c-1,0.7-1.9,1.1-2.9,1.1c-4.8,0-9.1-8.4-11.9-11.1c-2.1-2.1-4.5-2.9-7-2.9c-6.2,0-12.9,5.4-17,9.7c-2.4,2.5-5.6,3.8-8.8,3.8
						c-3,0-6.1-1.1-8.4-3.4c-4.9-4.7-5.1-12.4-0.5-17.4c5.7-6.1,12.8-11.3,20.9-13.8C145.2,12.5,148.2,12,151.1,12 M151.1,8.7
						C151.1,8.7,151.1,8.7,151.1,8.7c-3.2,0-6.5,0.5-10,1.6c-7.9,2.4-15.4,7.3-22.3,14.7c-5.8,6.2-5.5,16,0.6,21.9
						c2.9,2.8,6.7,4.3,10.7,4.3c4.3,0,8.2-1.7,11.2-4.8c5.2-5.4,10.7-8.7,14.7-8.7c1.8,0,3.3,0.7,4.7,2c0.6,0.6,1.5,1.8,2.4,3
						c3,4,6.7,9,11.8,9c1.7,0,3.3-0.6,4.8-1.7c3.1-2.3,4.8-5.9,4.9-10.2c0.2-7.8-5.1-17.5-10.2-21.8c-2.4-2-4.5-3.5-6.5-4.6
						c-2.9-1.6-5.6-2.7-8.3-3.5C156.8,9.1,154,8.7,151.1,8.7L151.1,8.7z"/>
				</g>
			</g>
			<g>
				<path style="fill:#6E2E00;" d="M140.8,36.1c-1-0.3-1.9-0.1-2.8,0.2c1.1-0.6,1.9-1.7,2.2-3c0.7-2.6-0.9-5.3-3.5-6
					c-1.2-0.3-2.4-0.1-3.5,0.4c0.9-0.6,1.6-1.6,1.9-2.7c0.7-2.6-0.9-5.3-3.5-6c-0.2-0.1-0.5,0-0.7,0c-5.3,3.8-8.9,7.5-9.8,8.3
					c-4.6,4.9-4.4,12.7,0.5,17.4c4.9,4.7,12.6,4.5,17.3-0.4c1.4-1.4,3.2-3,5.2-4.5C143.8,38,142.5,36.5,140.8,36.1"/>
			</g>
		</g>
	</g>
	<g>
		<g>
			<g>
				<g>
					<path style="fill:#FFFFFF;" d="M231.2,13.1c-2.5,0.7-5,1.8-7.6,3.2c-2.1,1.2-4.1,2.7-6,4.2c-6,5-13.7,20.6-5.4,26.9
						c6,4.5,11.5-6.8,14.8-10c7.5-7.3,18.2,0.7,24,6.8c4.7,4.9,12.4,5.1,17.3,0.4c4.9-4.7,5.1-12.4,0.5-17.4
						c-5.7-6.1-12.8-11.3-20.9-13.8C241.8,11.6,236.5,11.5,231.2,13.1z"/>
					<path d="M238.8,12c2.9,0,5.9,0.5,9.1,1.4c8.1,2.5,15.1,7.7,20.9,13.8c4.6,4.9,4.4,12.7-0.5,17.4c-2.4,2.3-5.4,3.4-8.4,3.4
						c-3.2,0-6.4-1.3-8.8-3.8c-4.1-4.3-10.8-9.7-17-9.7c-2.5,0-4.8,0.8-7,2.9c-2.8,2.7-7.1,11.1-11.9,11.1c-0.9,0-1.9-0.3-2.9-1.1
						c-8.2-6.3-0.5-21.9,5.4-26.9c1.9-1.5,3.8-3,6-4.2c2.6-1.4,5.1-2.5,7.6-3.2C233.7,12.4,236.2,12,238.8,12 M238.8,8.7
						c-2.9,0-5.7,0.4-8.5,1.2c-2.7,0.8-5.4,1.9-8.3,3.5c-2,1.1-4.1,2.6-6.5,4.6c-5.1,4.2-10.4,14-10.2,21.8
						c0.1,4.3,1.8,7.9,4.9,10.2c1.5,1.1,3.1,1.7,4.8,1.7c5.1,0,8.8-5,11.8-9c0.9-1.2,1.8-2.4,2.4-3c1.4-1.3,2.9-2,4.7-2
						c4,0,9.5,3.3,14.7,8.7c2.9,3.1,6.9,4.8,11.2,4.8c4,0,7.8-1.5,10.7-4.3c6.1-5.9,6.4-15.7,0.6-21.9c-6.9-7.3-14.4-12.3-22.3-14.7
						C245.3,9.3,242,8.7,238.8,8.7L238.8,8.7z"/>
				</g>
			</g>
			<g>
				<path style="fill:#6E2E00;" d="M249.2,36.1c1-0.3,1.9-0.1,2.8,0.2c-1.1-0.6-1.9-1.7-2.2-3c-0.7-2.6,0.9-5.3,3.5-6
					c1.2-0.3,2.4-0.1,3.5,0.4c-0.9-0.6-1.6-1.6-1.9-2.7c-0.7-2.6,0.9-5.3,3.5-6c0.2-0.1,0.5,0,0.7,0c5.3,3.8,8.9,7.5,9.8,8.3
					c4.6,4.9,4.4,12.7-0.5,17.4c-4.9,4.7-12.6,4.5-17.3-0.4c-1.4-1.4-3.2-3-5.2-4.5C246.1,38,247.4,36.5,249.2,36.1"/>
			</g>
		</g>
	</g>
</g>
<g>
	<g>
		<path style="fill:#00A2FC;" d="M293.9,227.3c0.6-0.9,1.2-1.8,1.8-2.6c5.2-7.4,10.2-18.1,8.2-27.6c-0.3-1.6-0.8-3.1-1.6-4.6
			c-6.1-12.3-19.2-26.8-33.7-28c-2.5-0.2-5.3,0.4-7.5,1.5c-7.4,3.6,2,13.3,5.4,16.4c2.2,2.1,4.2,4,6.6,5.7c3.2,2.2,6.1,4.7,8,8.1
			c0.9,1.7,1.4,3.3,1.5,4.9c0.4,6.4-5.3,11.3-8.7,17.1c-1.3,2.3-3.2,5.3-4.3,8.3l-1.5,0.1c-1,11,6,31.1,20.3,23.6
			c0.9-0.5,1.9-1.1,2.8-1.9c4.3-3.7,5.8-9.6,4.5-15.1C295.3,231.3,294.6,229.3,293.9,227.3z"/>
		<path d="M267.7,164.5c0.3,0,0.7,0,1,0c14.5,1.2,27.6,15.7,33.7,28c0.7,1.5,1.2,3,1.6,4.6c2,9.5-3,20.2-8.2,27.6
			c-0.6,0.8-1.2,1.7-1.8,2.6c0.7,2,1.4,3.9,1.8,5.9c1.3,5.4-0.2,11.4-4.5,15.1c-0.9,0.8-1.9,1.4-2.8,1.9c-2.2,1.1-4.2,1.6-6,1.6
			c-10.3,0-15.2-15.9-14.3-25.2l1.5-0.1c1.1-3,3-6,4.3-8.3c3.3-5.8,9.1-10.7,8.7-17.1c-0.1-1.5-0.5-3.1-1.5-4.9
			c-1.8-3.4-4.8-5.8-8-8.1c-2.5-1.7-4.5-3.6-6.6-5.7c-3.3-3.1-12.7-12.8-5.4-16.4C263.1,165.1,265.5,164.5,267.7,164.5 M267.7,161.3
			c-2.7,0-5.5,0.7-8,1.9c-3.2,1.6-4.2,4-4.5,5.7c-0.6,4.3,2.4,9.7,9.1,16l0.4,0.4c2.1,2,4.1,3.9,6.6,5.6c2.7,1.9,5.4,4.1,7,6.9
			c0.7,1.2,1,2.4,1.1,3.5c0.2,3.3-2,6.4-4.7,10c-1.2,1.7-2.5,3.4-3.6,5.3c-0.2,0.4-0.5,0.8-0.7,1.2c-1,1.6-2.1,3.6-3,5.6l-2.2,0.2
			l-0.3,2.7c-0.7,7.2,1.6,17.7,7.2,23.8c2.9,3.2,6.5,4.9,10.4,4.9c2.4,0,5-0.7,7.5-2c1.1-0.6,2.3-1.4,3.4-2.3
			c5.1-4.3,7.2-11.3,5.6-18.3c-0.3-1.4-0.8-3-1.4-4.7c0.3-0.4,0.5-0.8,0.8-1.2c3.5-4.9,11.3-17.8,8.7-30.1c-0.4-2-1-3.7-1.8-5.4
			c-3.5-7-8.7-13.9-14.4-19.1c-7-6.4-14.6-10.1-21.9-10.7C268.5,161.3,268.1,161.3,267.7,161.3L267.7,161.3z"/>
	</g>
	<g>
		<g>
			<g>
				<path style="fill:#0085CE;" d="M293,224.8c1.2,2.8,2.1,5.6,2.8,8.4c1.3,5.4-0.2,11.4-4.5,15.1c-0.9,0.8-1.9,1.4-2.8,1.9
					c-14.4,7.5-21.4-12.6-20.3-23.6"/>
			</g>
		</g>
		<g>
			<g>
				<path style="fill:#FFFFFF;" d="M261.2,166.1c2.3-1.1,5.1-1.7,7.5-1.5c14.5,1.2,27.6,15.7,33.7,28c0.7,1.5,1.2,3,1.6,4.6
					c-7.2-1-14.1-0.3-21.3,4c-0.1-1.5-0.5-3.1-1.5-4.9c-1.8-3.4-4.8-5.8-8-8.1c-2.5-1.7-4.5-3.6-6.6-5.7
					C263.2,179.4,253.8,169.7,261.2,166.1z"/>
			</g>
			<g>
				<g>
					<path style="fill:#0085CE;" d="M268.7,231.7c-0.5-4.4,3.1-9.9,5.2-13.5c3.3-5.8,9.1-10.7,8.7-17.1c7.1-4.2,14.1-4.9,21.3-4
						c2,9.5-3,20.2-8.2,27.6c-1.6,2.3-3.2,4.8-4.9,6.9"/>
				</g>
			</g>
		</g>
	</g>
	<g>
		<path style="fill:#242424;" d="M266.7,157.6c0,0,19.5,5.7,32.3,20.6c8,9.3,10.7,22.1,6.9,33.7c-1.7,5.2-4.6,10.9-9.6,16.1
			l-21.7-13.8c0,0,5.4-6.9,4.5-13.1c-1.4-9.7-8.4-10.5-8.4-10.5"/>
		<path d="M296.3,229.6c-0.3,0-0.6-0.1-0.9-0.3l-21.7-13.8c-0.4-0.2-0.6-0.6-0.7-1.1c-0.1-0.5,0-0.9,0.3-1.3c0-0.1,4.9-6.4,4.2-11.9
			c-1.2-8.3-6.7-9.1-7-9.1c-0.9-0.1-1.5-0.9-1.4-1.8c0.1-0.9,0.9-1.5,1.8-1.4c0.3,0,8.3,1,9.8,11.9c0.7,5.1-2.2,10.4-3.8,12.9
			l19.1,12.1c3.7-4.2,6.5-9,8.3-14.5c3.6-10.9,1.1-23.2-6.6-32.1c-12.3-14.4-31.3-20.1-31.5-20.1c-0.9-0.3-1.4-1.2-1.1-2
			c0.3-0.9,1.2-1.4,2-1.1c0.8,0.2,20.1,6,33,21.1c8.4,9.8,11.1,23.3,7.2,35.3c-2.1,6.3-5.4,11.9-9.9,16.7
			C297.1,229.5,296.7,229.6,296.3,229.6z"/>
	</g>
</g>
<g>
	<g>
		<path style="fill:#00A2FC;" d="M128.8,166.1c-2.3-1.1-5.1-1.7-7.5-1.5c-14.5,1.2-27.6,15.7-33.7,28c-0.7,1.5-1.2,3-1.6,4.6
			c-2,9.5,3,20.2,8.2,27.6c0.6,0.8,1.2,1.7,1.8,2.6c-0.7,2-1.4,3.9-1.8,5.9c-1.3,5.4,0.2,11.4,4.5,15.1c0.9,0.8,1.9,1.4,2.8,1.9
			c14.4,7.5,21.4-12.6,20.3-23.6l-1.5-0.1c-1.1-3-3-6-4.3-8.3c-3.3-5.8-9.1-10.7-8.7-17.1c0.1-1.5,0.5-3.1,1.5-4.9
			c1.8-3.4,4.8-5.8,8-8.1c2.5-1.7,4.5-3.6,6.6-5.7C126.7,179.4,136.1,169.7,128.8,166.1z"/>
		<path d="M122.2,164.5c2.2,0,4.6,0.6,6.5,1.5c7.4,3.6-2,13.3-5.4,16.4c-2.2,2.1-4.2,4-6.6,5.7c-3.2,2.2-6.1,4.7-8,8.1
			c-0.9,1.7-1.4,3.3-1.5,4.9c-0.4,6.4,5.3,11.3,8.7,17.1c1.3,2.3,3.2,5.3,4.3,8.3l1.5,0.1c0.9,9.3-4,25.2-14.3,25.2
			c-1.8,0-3.8-0.5-6-1.6c-0.9-0.5-1.9-1.1-2.8-1.9c-4.3-3.7-5.8-9.6-4.5-15.1c0.5-2,1.1-3.9,1.8-5.9c-0.6-0.9-1.2-1.8-1.8-2.6
			c-5.2-7.4-10.2-18.1-8.2-27.6c0.3-1.6,0.8-3.1,1.6-4.6c6.1-12.3,19.2-26.8,33.7-28C121.6,164.5,121.9,164.5,122.2,164.5
			 M122.2,161.3c-0.4,0-0.8,0-1.2,0c-7.3,0.6-14.9,4.3-21.9,10.7c-5.7,5.2-11,12.2-14.4,19.1c-0.8,1.7-1.4,3.4-1.8,5.4
			c-2.5,12.3,5.3,25.2,8.7,30.1c0.3,0.4,0.5,0.8,0.8,1.2c-0.6,1.7-1,3.3-1.4,4.7c-1.7,7,0.5,14,5.6,18.3c1.1,0.9,2.2,1.7,3.4,2.3
			c2.5,1.3,5.1,2,7.5,2c3.9,0,7.4-1.7,10.4-4.9c5.6-6.2,7.9-16.7,7.2-23.8l-0.3-2.7l-2.2-0.2c-0.9-2.1-2.1-4-3-5.6
			c-0.2-0.4-0.5-0.8-0.7-1.2c-1.1-1.9-2.3-3.6-3.6-5.3c-2.6-3.6-4.9-6.7-4.7-10c0.1-1.2,0.4-2.3,1.1-3.5c1.5-2.9,4.3-5,7-6.9
			c2.5-1.8,4.5-3.6,6.6-5.6l0.4-0.4c6.7-6.3,9.7-11.6,9.1-16c-0.3-1.7-1.2-4.1-4.5-5.7C127.8,162,124.9,161.3,122.2,161.3
			L122.2,161.3z"/>
	</g>
	<g>
		<g>
			<g>
				<path style="fill:#0085CE;" d="M97,224.8c-1.2,2.8-2.1,5.6-2.8,8.4c-1.3,5.4,0.2,11.4,4.5,15.1c0.9,0.8,1.9,1.4,2.8,1.9
					c14.4,7.5,21.4-12.6,20.3-23.6"/>
			</g>
		</g>
		<g>
			<g>
				<path style="fill:#FFFFFF;" d="M128.8,166.1c-2.3-1.1-5.1-1.7-7.5-1.5c-14.5,1.2-27.6,15.7-33.7,28c-0.7,1.5-1.2,3-1.6,4.6
					c7.2-1,14.1-0.3,21.3,4c0.1-1.5,0.5-3.1,1.5-4.9c1.8-3.4,4.8-5.8,8-8.1c2.5-1.7,4.5-3.6,6.6-5.7
					C126.7,179.4,136.1,169.7,128.8,166.1z"/>
			</g>
			<g>
				<g>
					<path style="fill:#0085CE;" d="M121.2,231.7c0.5-4.4-3.1-9.9-5.2-13.5c-3.3-5.8-9.1-10.7-8.7-17.1c-7.1-4.2-14.1-4.9-21.3-4
						c-2,9.5,3,20.2,8.2,27.6c1.6,2.3,3.2,4.8,4.9,6.9"/>
				</g>
			</g>
		</g>
	</g>
	<g>
		<path style="fill:#242424;" d="M123.3,157.6c0,0-19.5,5.7-32.3,20.6c-8,9.3-10.7,22.1-6.9,33.7c1.7,5.2,4.6,10.9,9.6,16.1
			l21.7-13.8c0,0-5.4-6.9-4.5-13.1c1.4-9.7,8.4-10.5,8.4-10.5"/>
		<path d="M93.7,229.6c-0.4,0-0.9-0.2-1.2-0.5c-4.5-4.7-7.8-10.4-9.9-16.7c-3.9-11.9-1.2-25.4,7.2-35.3c12.9-15.2,32.2-20.9,33-21.1
			c0.9-0.2,1.8,0.2,2,1.1c0.3,0.9-0.2,1.8-1.1,2c-0.2,0.1-19.2,5.7-31.5,20.1c-7.7,9-10.2,21.3-6.6,32.1c1.8,5.4,4.6,10.3,8.3,14.5
			l19.1-12.1c-1.6-2.5-4.5-7.8-3.8-12.9c1.5-10.9,9.5-11.8,9.8-11.9c0.9-0.1,1.7,0.6,1.8,1.4c0.1,0.9-0.6,1.7-1.4,1.8
			c-0.2,0-5.8,0.8-7,9.1c-0.8,5.5,4.1,11.8,4.2,11.9c0.3,0.4,0.4,0.8,0.3,1.3s-0.3,0.8-0.7,1.1l-21.7,13.8
			C94.3,229.6,94,229.6,93.7,229.6z"/>
	</g>
</g>
<g>
	<path style="fill:#FFFFFF;" d="M177,257.9c3.6,0.7,11.8,5.5,11,9.1l-11.2,54.6l-18.9-3.9l11.2-54.6
		C169.9,259.5,173.4,257.2,177,257.9"/>
</g>
<g>
	<g>
		<path style="fill-rule:evenodd;clip-rule:evenodd;fill:#00A2FC;" d="M177,257.9c-3.6-0.7-7.1,1.6-7.9,5.2L158,317.5l-6,28.8
			c0,0-6.3-6.5-19-4c-8.5,1.8-16,7.6-19.9,15.3c-2.1,4.2-3.1,11.8,0.3,15.7c4.9,5.6,12.9,4.7,19.5,4.7h20.9h4.8c3.9,0,10-3.1,10-7
			l1.4-15.5l7-33.9l0,0l0,0l11.2-54.6C188.8,263.4,180.6,258.6,177,257.9z"/>
		<path d="M175.7,257.8c0.4,0,0.9,0,1.3,0.1c3.6,0.7,11.8,5.5,11,9.1l-11.2,54.6l0,0l0,0l-7,33.9l-1.4,15.5c0,3.9-6.1,7-10,7h-4.8
			h-20.9c-1.6,0-3.3,0.1-5.1,0.1c-5.3,0-10.7-0.5-14.4-4.7c-3.3-3.8-2.4-11.5-0.3-15.7c3.9-7.7,11.4-13.4,19.9-15.3
			c2-0.4,3.9-0.6,5.6-0.6c9,0,13.4,4.6,13.4,4.6l6-28.8l11.2-54.4C169.8,259.9,172.6,257.8,175.7,257.8 M175.7,254.5
			c-4.7,0-8.8,3.3-9.7,7.9l-11.2,54.4l-5,24.2c-2.6-1.3-6.4-2.5-11.2-2.5c-2,0-4.1,0.2-6.2,0.6l0,0l0,0c-9.5,2.1-17.7,8.4-22.1,17
			c-2.5,4.8-3.9,14,0.7,19.3c4.5,5.1,10.7,5.9,16.8,5.9c0.9,0,1.8,0,2.7,0c0.8,0,1.6,0,2.4,0h20.9h4.8c5.2,0,13.1-4,13.2-10.1
			l1.3-15.2l7-33.7l0.5-2.4l0,0l10.7-52.2c0.4-2.1-0.1-5.3-5.2-8.9c-2.7-1.9-6-3.5-8.4-4C177,254.6,176.3,254.5,175.7,254.5
			L175.7,254.5z"/>
	</g>
	<g>
		<g>
			<path style="fill-rule:evenodd;clip-rule:evenodd;fill:#00A2FC;" d="M169.9,355.5l-1.4,15.5c0,3.9-6.1,7-10,7h-4.8h-20.9
				c-6.6,0-14.6,0.9-19.5-4.7c-3.3-3.8-2.4-11.5-0.3-15.7c3.9-7.7,11.4-13.4,19.9-15.3c0,0-0.1,0,0,0c12.7-2.5,19,4,19,4l5.9-28.7
				l18.9,3.9L169.9,355.5z"/>
		</g>
	</g>
</g>
<g>
	<g>
		<path style="fill-rule:evenodd;clip-rule:evenodd;fill:#00A2FC;" d="M260.5,357.6c-3.9-7.7-11.3-13.4-19.7-15.2
			c0,0-0.4-0.1-0.5-0.1c-12.7-2.5-17.2,3.2-17.2,3.2v-25l0,0h0v-55.8c0-3.7-3-6.7-6.7-6.7s-12.6,3-12.6,6.7v50.6l0,0V371
			c0,3.9,6.1,7,10,7h4.8h22.2c6.6,0,14.6,0.9,19.5-4.7C263.6,369.4,262.6,361.8,260.5,357.6z"/>
		<path d="M216.4,258c3.7,0,6.7,3,6.7,6.7v55.8h0l0,0v25c0,0,3.1-3.8,11.2-3.8c1.8,0,3.8,0.2,6.1,0.6c0.1,0,0.5,0.1,0.5,0.1
			c8.5,1.8,15.8,7.5,19.7,15.2c2.1,4.2,3.1,11.8-0.3,15.7c-3.7,4.2-9.1,4.7-14.4,4.7c-1.7,0-3.4-0.1-5.1-0.1h-22.2h-4.8
			c-3.9,0-10-3.1-10-7v-55.7l0,0v-50.6C203.7,261,212.7,258,216.4,258 M216.4,254.8c-2.4,0-6,0.9-9,2.2c-5.7,2.5-6.9,5.6-6.9,7.7
			v46.5l0,4.1V371c0,6.2,8,10.2,13.2,10.2h4.8h22.2c0.8,0,1.6,0,2.4,0c0.9,0,1.8,0,2.7,0c6.1,0,12.3-0.7,16.8-5.9
			c4.6-5.3,3.2-14.4,0.7-19.3c-4.4-8.6-12.6-14.9-21.9-16.9l-0.4-0.1l-0.1,0l-0.1,0c-2.3-0.5-4.6-0.7-6.7-0.7
			c-3.3,0-5.9,0.5-7.9,1.3v-19.2v-2.4l0,0v-53.4C226.3,259.2,221.8,254.8,216.4,254.8L216.4,254.8z"/>
	</g>
	<g>
		<g>
			<path style="fill:#FFFFFF;" d="M216.4,258c-3.7,0-12.6,3-12.6,6.7v55.8H223v-55.8C223,261,220.1,258,216.4,258"/>
		</g>
		<g>
			<g>
				<path style="fill-rule:evenodd;clip-rule:evenodd;fill:#00A2FC;" d="M240.8,342.4c0,0-0.4-0.1-0.5-0.1
					c-12.7-2.5-17.2,3.2-17.2,3.2v-25h-19.3V371c0,3.9,6.1,7,10,7h4.8h22.2c6.6,0,14.6,0.9,19.5-4.7c3.3-3.8,2.4-11.5,0.3-15.7
					C256.6,349.9,249.2,344.2,240.8,342.4"/>
			</g>
		</g>
	</g>
</g>
<g>
	<path style="fill:#00A2FC;" d="M191.5,35c-17.8,0-38,7.9-55.2,21.7c-10.5,8.4-18.8,23.2-22.8,40.6c-4.1,18-3.1,35.8,2.9,53.1
		c0.7,2,1.6,4.1,2.5,6.1c0.7,1.5,1.4,3.1,2,4.7c0,0,1.2,3.6,1.6,5.3c1.5,7.2-0.7,15.4-2.8,23.3c-1,3.7-1.9,7.2-2.4,10.4
		c-2.6,16.3-4.5,37.6,3.9,57.4c4.9,11.5,13.3,20.5,25.1,26.6c9.9,5.2,22,8.4,36.2,9.5c3,0.2,6.1,0.4,9.1,0.4l0.4,0l6.2,0
		c3.1,0,6.3-0.1,9.3-0.4c24.8-2,45.7-11.7,57.2-26.6c9.8-12.7,13.4-33.5,12.7-48.6c-0.4-8.1-2.2-16.2-3.9-24
		c-0.8-3.8-1.7-7.8-2.4-11.7l0,0c-0.2-1.3-0.6-2.7-0.9-4c-0.7-3.2-1.5-6.6-1.2-9.9c0.2-2.5,0.7-5,1.4-7.8c0,0,0-0.1,0-0.1
		c0.6-2.4,1.4-4.9,2.5-7.9c6.8-18.9,7.9-36.7,3.6-55.8c-3.9-17.4-12.2-32.1-22.8-40.6C236.4,42.9,216.3,35,198.5,35c0,0-0.1,0-0.1,0
		l-6.3,0l-0.4,0C191.6,35,191.5,35,191.5,35z"/>
	<path style="fill:#242424;" d="M113.9,235.4c0,0,55.9,27.2,162.5,2.1c0,0-8.3,58.1-81.1,56.2C195.3,293.8,124.4,298.4,113.9,235.4z
		"/>
	<path d="M191.6,295.6c-3.1,0-6.2-0.1-9.3-0.4c-14.4-1.2-26.8-4.4-36.8-9.7c-12.1-6.3-20.8-15.6-25.9-27.5
		c-8.6-20.2-6.6-41.8-4-58.3c0.5-3.4,1.5-6.9,2.4-10.6c2-7.7,4.1-15.7,2.7-22.6c-0.3-1.6-1.5-5-1.5-5.1c-0.6-1.4-1.3-3-1.9-4.5
		c-0.9-2.1-1.9-4.2-2.6-6.2c-6.1-17.5-7.1-35.7-2.9-54c4-17.7,12.5-32.8,23.3-41.5c17.5-14,38-22,56.2-22l0.1,0l0.3,0l6.4,0l0.1,0
		c18.2,0,38.7,8,56.2,22C265.5,64,274,79.1,278,96.8c4.4,19.4,3.2,37.4-3.7,56.7c-1,2.7-1.7,5-2.3,7.2l0,0.1l-0.2,0.7
		c-0.7,2.7-1.1,5.2-1.4,7.5c-0.3,3.1,0.5,6.3,1.2,9.4c0.3,1.3,0.6,2.7,0.9,4.1c0.7,3.9,1.6,7.8,2.4,11.7c1.7,7.9,3.5,16,3.9,24.2
		c0.8,15.3-2.9,36.6-13,49.7c-11.8,15.2-33.1,25.2-58.4,27.2c-3,0.2-6.2,0.4-9.4,0.4l-6.2,0L191.6,295.6
		C191.6,295.6,191.6,295.6,191.6,295.6z M191.5,36.6c-17.5,0-37.2,7.8-54.2,21.3C127,66.1,119,80.6,115.1,97.6
		c-4,17.7-3,35.2,2.8,52.2c0.7,1.9,1.6,4,2.5,5.9c0.7,1.6,1.4,3.1,2,4.7c0,0.1,1.3,3.7,1.7,5.6c1.5,7.6-0.7,16-2.8,24
		c-1,3.6-1.9,7.1-2.4,10.3c-2.6,16.1-4.5,37.1,3.8,56.5c4.7,11.2,12.9,19.9,24.4,25.8c9.7,5.1,21.6,8.2,35.6,9.3c3,0.2,6,0.4,9,0.4
		l0.3,0l6.2,0c3.1,0,6.2-0.1,9.1-0.4c24.4-2,44.8-11.4,56-26c9.6-12.4,13.1-32.7,12.3-47.5c-0.4-8-2.2-16-3.8-23.7
		c-0.8-3.9-1.7-7.8-2.4-11.8c-0.2-1.3-0.5-2.6-0.8-3.9c-0.8-3.4-1.6-6.8-1.3-10.5c0.2-2.5,0.7-5,1.4-7.8c0-0.1,0-0.3,0.1-0.4
		c0.6-2.5,1.4-5,2.5-8.1c6.7-18.6,7.8-36.1,3.5-54.8c-3.9-17-11.9-31.5-22.2-39.6c-17-13.5-36.7-21.3-54.2-21.3H191.5z"/>
</g>
<g>
	
		<path style="fill-rule:evenodd;clip-rule:evenodd;fill:#FFFFFF;stroke:#251814;stroke-width:4.1021;stroke-linecap:round;stroke-linejoin:round;stroke-miterlimit:10;" d="
		M197.7,174.7"/>
</g>
<g>
	<g>
		<path style="fill-rule:evenodd;clip-rule:evenodd;fill:#FFFFFF;" d="M205.1,42c7.6,1,15.1,3,21.8,5.9c11.1,4.7,24,12.3,29.9,22.9
			c2.6,4.7,4.4,9.8,5.5,15.1c0.8,4-0.2,9.6,2.2,13c4.9,6.9,6,10.9,7.3,19.5c1.3,8.1,0.6,16.8-2.9,24.4c-9,19.7-30.7,27.9-50.6,28.6
			c-2.7,0.1-5.6,0.2-8.3,0.2c-12.9,0.4-25.6,0.2-38.5-0.2c-19.9-0.6-41.6-8.9-50.6-28.6c-3.4-7.5-4.2-16.3-2.9-24.4
			c1.3-8.7,2.4-12.6,7.3-19.5c2.4-3.4,1.4-9,2.2-13c1-5.3,2.8-10.4,5.5-15.1c6-10.6,15.9-18.2,27-22.9c4.5-1.9,9.2-3.4,13.9-4.5
			C183.2,41.3,195.7,40.7,205.1,42z"/>
	</g>
	<g>
		<path style="fill-rule:evenodd;clip-rule:evenodd;fill:#FFBBB7;" d="M164.9,121.5c0,11.6-9.3,21-20.8,21c-11.5,0-20.8-9.4-20.8-21
			c0-11.6,9.3-21,20.8-21C155.6,100.5,164.9,109.9,164.9,121.5"/>
		<path style="fill-rule:evenodd;clip-rule:evenodd;fill:#FFBBB7;" d="M266.6,121.5c0,11.6-9.3,21-20.8,21c-11.5,0-20.8-9.4-20.8-21
			c0-11.6,9.3-21,20.8-21C257.3,100.5,266.6,109.9,266.6,121.5"/>
	</g>
	<g>
		<g>
			<g>
				<path style="fill-rule:evenodd;clip-rule:evenodd;fill:#E73841;" d="M213.1,127c-0.2,5.6-4.2,17.9-18.6,16.8
					c-15.8,0-16.9-12.6-17.6-17.5c0,0,10.1,3.1,18.1-3.6"/>
				<path d="M196.2,145.4c-0.6,0-1.2,0-1.8-0.1c-16.5,0-18.3-13.3-19-18.3l-0.1-0.5c-0.1-0.5,0.1-1,0.5-1.3s0.9-0.4,1.4-0.3
					c0.1,0,9.4,2.7,16.7-3.3c0.6-0.5,1.6-0.4,2.1,0.2c0.5,0.6,0.4,1.6-0.2,2.1c-6.3,5.2-13.7,4.9-17.3,4.3
					c0.8,5.4,3.2,14.1,15.8,14.1c0,0,0.1,0,0.1,0c4.8,0.4,8.7-0.8,11.7-3.5c4.1-3.7,5.3-9.2,5.4-11.9c0-0.8,0.7-1.5,1.5-1.4
					c0.8,0,1.5,0.7,1.4,1.5c-0.1,3.9-1.9,10-6.4,14C205,143.9,201,145.4,196.2,145.4z"/>
			</g>
			<path style="fill-rule:evenodd;clip-rule:evenodd;fill:#FFFFFF;" d="M182.7,128.2v1.1c0,0.9,0.8,1.7,1.8,1.7h20.2
				c1,0,1.8-0.8,1.8-1.7v-0.8c0-0.8-0.6-1.5-1.5-1.7c-2.4-0.4-7-1.4-9.3-3.1c-0.6-0.5-1.5-0.6-2.1-0.2c-1.7,1-5.1,2.6-9.4,2.9
				C183.4,126.6,182.7,127.3,182.7,128.2z"/>
			<path d="M182.5,128.7c-3.7,0-7.3-0.9-10.3-3c-1.5-1.1-4.1-3.2-4.4-5.5c-0.1-0.9,0.2-1.8,0.9-2.5c0.7-0.7,1.8-0.7,2.5-0.1
				c0.7,0.6,0.7,1.6,0.2,2.4c0.2,0.5,1.2,1.7,2.8,2.8c5.7,4,15.1,2.5,19.6-1.5c0.7-0.6,1.7-0.6,2.4,0c4.5,4,13.8,5.4,19.6,1.5
				c1.6-1.1,2.6-2.2,2.8-2.8c-0.5-0.7-0.5-1.7,0.2-2.4c0.7-0.7,1.8-0.7,2.5,0.1c0.7,0.7,1,1.6,0.9,2.5c-0.2,2.3-2.8,4.4-4.4,5.5
				c-6.8,4.7-17,3.4-22.8-0.8C191.7,127.3,187.1,128.7,182.5,128.7z M218.7,120.2L218.7,120.2L218.7,120.2z"/>
		</g>
		<g>
			<path style="fill-rule:evenodd;clip-rule:evenodd;" d="M198.5,114.8c0,1.5-1.6,2.7-3.6,2.7c-2,0-3.6-1.2-3.6-2.7
				c0-1.5,1.6-2.7,3.6-2.7C197,112,198.5,113.3,198.5,114.8"/>
		</g>
	</g>
	<g>
		<polyline style="fill-rule:evenodd;clip-rule:evenodd;fill:#FFFFFF;" points="168.1,102.7 177.5,107.2 167.1,108.1 		"/>
		<path d="M167.1,109.6c-0.8,0-1.4-0.6-1.5-1.4c-0.1-0.8,0.5-1.5,1.4-1.6l5-0.5l-4.5-2.1c-0.7-0.4-1.1-1.2-0.7-2
			c0.4-0.7,1.2-1.1,2-0.7l9.4,4.5c0.6,0.3,0.9,0.9,0.8,1.6c-0.1,0.7-0.7,1.2-1.3,1.2l-10.4,1C167.2,109.6,167.1,109.6,167.1,109.6z"
			/>
	</g>
	<g>
		<polyline style="fill-rule:evenodd;clip-rule:evenodd;fill:#FFFFFF;" points="221.5,102.7 212.1,107.2 222.5,108.1 		"/>
		<path d="M222.5,109.6c0,0-0.1,0-0.1,0l-10.4-1c-0.7-0.1-1.2-0.6-1.3-1.2c-0.1-0.7,0.2-1.3,0.8-1.6l9.4-4.5c0.7-0.4,1.6,0,2,0.7
			c0.4,0.7,0,1.6-0.7,2l-4.5,2.1l5,0.5c0.8,0.1,1.4,0.8,1.4,1.6C223.9,109.1,223.3,109.6,222.5,109.6z"/>
	</g>
</g>
<g>
	<path style="fill:#FFFFFF;" d="M121.4,165.8c0,0,2.7,12.2-4.1,34.2c0,0-4.7,27-2.2,39c0,0,73.7,19,132.2,4.6c0,0,24.7-3.4,28.6-7.7
		c0,0,3.6-15.6-2.5-41.5c0,0-5.4-20.4-2.8-29.1c0,0-25.2,10.2-40.6,12c0,0-56.8,9.7-97.1-7.6L121.4,165.8z"/>
	<g>
		<path d="M195,182.2c-46.5,0-72.5-15.7-73.6-16.3c-0.8-0.5-1-1.5-0.5-2.2s1.5-1,2.2-0.5c0.1,0,6.6,4,18.7,7.9
			c11.1,3.6,29.4,7.9,53.2,7.9c23.8,0,42.6-4.4,54.3-8.2c12.6-4,19.7-8.1,19.7-8.2c0.8-0.5,1.8-0.2,2.2,0.6c0.5,0.8,0.2,1.8-0.6,2.2
			c-0.3,0.2-7.4,4.3-20.3,8.4C238.5,177.6,219.3,182.2,195,182.2z"/>
	</g>
	<path d="M183.5,198.4c-0.1,0-0.3,0-0.4,0c-7.6-1.9-23.2-9.4-23.8-9.7c-0.8-0.4-1.1-1.4-0.7-2.2c0.4-0.8,1.4-1.1,2.2-0.7
		c0.2,0.1,14.8,7.2,22.4,9.3l10.8-9.1c0.6-0.5,1.4-0.5,2-0.1l12.9,9.1c5.8-2.6,19-8.8,21.8-11.5c0.6-0.6,1.7-0.6,2.3,0.1
		c0.6,0.6,0.6,1.7-0.1,2.3c-3.9,3.7-21.6,11.6-23.6,12.4c-0.5,0.2-1.1,0.2-1.6-0.2l-12.6-8.9l-10.5,8.8
		C184.3,198.3,183.9,198.4,183.5,198.4z"/>
	<g>
		<path style="fill:#242424;" d="M188.1,192.8l6.9-5.7l8.7,6.2c0,0-3.2,6.4-5.2,7.8l7.5,30.6l-11,11.2l-11.2-10.4l8-31.4
			C191.8,201.1,188.8,195.7,188.1,192.8z"/>
		<path d="M195,244.5c-0.4,0-0.8-0.1-1.1-0.4l-11.2-10.4c-0.4-0.4-0.6-1-0.5-1.6l7.8-30.8c-0.8-1.5-3-5.7-3.5-8.2
			c-0.1-0.6,0.1-1.2,0.6-1.6l6.9-5.7c0.6-0.5,1.4-0.5,2-0.1l8.7,6.2c0.7,0.5,0.9,1.3,0.5,2.1c-0.5,1-2.8,5.5-4.9,7.6l7.2,29.7
			c0.1,0.5,0,1.1-0.4,1.5l-11,11.2C195.8,244.4,195.4,244.5,195,244.5z M185.6,232l9.3,8.7l9.2-9.4l-7.2-29.7
			c-0.2-0.7,0.1-1.3,0.7-1.7c1-0.7,2.8-3.6,4-5.9l-6.6-4.6l-5.1,4.2c0.8,2.3,2.5,5.7,3.3,7c0.2,0.4,0.3,0.8,0.2,1.2L185.6,232z"/>
	</g>
</g>
<path d="M192,249.9c-12.3,0-23-0.7-32-1.7c-28.1-3-44.2-8.9-44.9-9.2c-0.8-0.3-1.3-1.2-1-2.1c0.3-0.8,1.2-1.3,2.1-1
	c0.2,0.1,16.5,6.1,44.2,9c25.6,2.7,66.4,3.4,115.4-9.1c0.9-0.2,1.8,0.3,2,1.2c0.2,0.9-0.3,1.8-1.2,2
	C244.3,247.3,215.4,249.9,192,249.9z"/>
<g>
	<g>
		<path style="fill:#242424;" d="M119.8,158.8c0,0,28.5,12.1,34,20c8.7,12.4,1.5,48.6,7.8,77.5c0,0-48.6-5.5-50.4-15.2
			c-1.8-9.6,3.4-40.6,8.8-53.1C125.3,175.6,119.8,158.8,119.8,158.8z"/>
		<path d="M161.6,257.9c-0.1,0-0.1,0-0.2,0c-0.1,0-12.4-1.4-24.7-4c-17.6-3.7-26.2-7.7-27.1-12.5c-1.8-9.8,3.3-41.1,8.9-54
			c5.1-11.7-0.1-28-0.2-28.1c-0.2-0.6,0-1.3,0.4-1.7c0.5-0.4,1.1-0.5,1.7-0.3c1.2,0.5,28.9,12.4,34.6,20.5c5,7.2,5.1,21.1,5.1,37.2
			c0,13.1,0.1,27.9,2.9,40.9c0.1,0.5,0,1-0.4,1.4C162.5,257.8,162,257.9,161.6,257.9z M122.3,161.7c1.4,5.7,3.3,17.5-0.9,27.1
			c-5.3,12.2-10.4,42.9-8.7,52.1c0.2,1.2,2.6,5.3,24.6,9.9c9.1,1.9,18.1,3.2,22.1,3.7c-2.5-12.8-2.5-26.9-2.6-39.4
			c-0.1-15.6-0.1-29-4.5-35.3C148.6,174.3,131.5,165.8,122.3,161.7z"/>
	</g>
	<g>
		<polyline style="fill:#242424;" points="122.3,166.3 133.9,182.8 147.6,182.8 142.2,201.1 153.3,228 		"/>
		<path d="M153.3,229.6c-0.6,0-1.2-0.4-1.5-1l-11.1-26.9c-0.1-0.3-0.2-0.7-0.1-1.1l4.8-16.2h-11.5c-0.5,0-1-0.3-1.3-0.7L121,167.3
			c-0.5-0.7-0.3-1.7,0.4-2.3c0.7-0.5,1.7-0.3,2.3,0.4l11.1,15.8h12.8c0.5,0,1,0.2,1.3,0.7c0.3,0.4,0.4,0.9,0.3,1.4l-5.2,17.7
			l10.9,26.4c0.3,0.8-0.1,1.8-0.9,2.1C153.7,229.6,153.5,229.6,153.3,229.6z"/>
	</g>
</g>
<g>
	<g>
		<path style="fill:#242424;" d="M273.5,158.8c0,0-28.5,12.1-34,20c-8.7,12.4,0.5,49.2-7.8,76.3c0,0,48.6-4.3,50.4-14
			s-3.4-40.6-8.8-53.1C268,175.6,273.5,158.8,273.5,158.8z"/>
		<path d="M231.7,256.7c-0.5,0-0.9-0.2-1.3-0.6c-0.3-0.4-0.4-1-0.3-1.5c4-13.2,3.8-28.9,3.7-42.8c-0.2-14.6-0.3-27.3,4.4-34
			c5.7-8.1,33.5-20,34.6-20.5c0.6-0.2,1.3-0.1,1.7,0.3c0.5,0.4,0.6,1.1,0.4,1.7c-0.1,0.2-5.2,16.4-0.2,28.1
			c5.6,12.9,10.7,44.2,8.9,54c-0.9,4.9-9.6,8.6-27.2,11.9c-12.3,2.3-24.5,3.4-24.7,3.4C231.8,256.7,231.7,256.7,231.7,256.7z
			 M271,161.7c-9.3,4.2-26.4,12.6-30.2,18.1c-4.1,5.8-4,18-3.8,32.1c0.2,13.3,0.3,28.3-3.1,41.4c4.1-0.4,13.1-1.5,22-3.1
			c21.9-4.1,24.3-8.1,24.6-9.3c1.7-9.2-3.4-39.9-8.7-52.1C267.7,179.1,269.7,167.4,271,161.7z"/>
	</g>
	<g>
		<polyline style="fill:#242424;" points="271,166.3 259.4,182.8 245.7,182.8 251.1,201.1 240,228 		"/>
		<path d="M240,229.6c-0.2,0-0.4,0-0.6-0.1c-0.8-0.3-1.2-1.3-0.9-2.1l10.9-26.4l-5.2-17.7c-0.1-0.5,0-1,0.3-1.4
			c0.3-0.4,0.8-0.7,1.3-0.7h12.8l11.1-15.8c0.5-0.7,1.5-0.9,2.3-0.4c0.7,0.5,0.9,1.5,0.4,2.3l-11.6,16.5c-0.3,0.4-0.8,0.7-1.3,0.7
			h-11.5l4.8,16.2c0.1,0.4,0.1,0.7-0.1,1.1l-11.1,26.9C241.2,229.3,240.6,229.6,240,229.6z"/>
	</g>
</g>
<g>
	<path style="fill:#242424;" d="M160,288.4l-10.4,53.2c0,0,9.5,5.9,25.6,6.3l11.2-55.5"/>
	<path d="M175.3,349.5C175.2,349.5,175.2,349.5,175.3,349.5c-16.5-0.4-26.1-6.3-26.5-6.6c-0.6-0.4-0.9-1-0.7-1.7l10.4-53.2
		c0.2-0.9,1-1.5,1.9-1.3c0.9,0.2,1.5,1,1.3,1.9l-10.2,52c2.6,1.4,10.6,5,22.5,5.5l10.9-54.2c0.2-0.9,1-1.4,1.9-1.3
		c0.9,0.2,1.4,1,1.3,1.9l-11.2,55.5C176.7,348.9,176,349.5,175.3,349.5z"/>
</g>
<g>
	<path style="fill:#242424;" d="M200.8,291.9v53.6c0,0,18.2,3.8,25.5-4.9v-52.1"/>
	<path d="M209.6,347.9c-4.9,0-8.8-0.8-9.2-0.9c-0.8-0.2-1.3-0.8-1.3-1.6v-53.6c0-0.9,0.7-1.6,1.6-1.6c0.9,0,1.6,0.7,1.6,1.6v52.2
		c4.1,0.6,16.5,1.9,22.3-4.2v-51.5c0-0.9,0.7-1.6,1.6-1.6s1.6,0.7,1.6,1.6v52.1c0,0.4-0.1,0.8-0.4,1
		C223.2,346.7,215.6,347.9,209.6,347.9z"/>
</g>
</svg>
