<?xml version="1.0" encoding="utf-8"?>
<!-- Generator: Adobe Illustrator 26.5.0, SVG Export Plug-In . SVG Version: 6.00 Build 0)  -->
<svg version="1.1" id="레이어_1" xmlns="http://www.w3.org/2000/svg" xmlns:xlink="http://www.w3.org/1999/xlink" x="0px"
	 y="0px" viewBox="0 0 157 233" style="enable-background:new 0 0 157 233;" xml:space="preserve">
<g>
	<g>
		
			<rect x="99.1" y="166.3" transform="matrix(-1 -4.474788e-11 4.474788e-11 -1 212.0549 392.2005)" style="fill:#FF7A00;" width="13.8" height="59.5"/>
		<path d="M114.2,227.2H97.8V165h16.4V227.2z M100.4,224.5h11.2v-56.9h-11.2V224.5z"/>
	</g>
	<g>
		<path style="fill:#FF7A00;" d="M87.3,222.3c0-9.7,8.2-17.6,18-16.9c9,0.6,15.7,8.5,15.7,17.5v0c0,4.8-3.9,8.8-8.7,8.8H96
			c-4.8,0-8.7-3.9-8.7-8.8V222.3z"/>
		<path d="M112.2,233H96c-5.5,0-10-4.5-10-10.1v-0.6c0-5,2.1-9.9,5.7-13.3c3.7-3.5,8.5-5.2,13.6-4.9c9.5,0.6,16.9,8.9,16.9,18.8
			C122.3,228.5,117.8,233,112.2,233z M104.1,206.7c-4,0-7.7,1.5-10.6,4.2c-3.2,3-4.9,7-4.9,11.4v0.6c0,4.1,3.3,7.4,7.4,7.4h16.3
			c4.1,0,7.4-3.3,7.4-7.4c0-8.5-6.4-15.7-14.5-16.2C104.8,206.7,104.4,206.7,104.1,206.7z"/>
	</g>
</g>
<g>
	<g>
		
			<rect x="67.3" y="165.2" transform="matrix(-1 -4.527413e-11 4.527413e-11 -1 148.494 390.1077)" style="fill:#FF7A00;" width="13.8" height="59.7"/>
		<path d="M82.5,226.2H66v-62.3h16.4V226.2z M68.6,223.6h11.2v-57H68.6V223.6z"/>
	</g>
	<g>
		<path style="fill:#FF7A00;" d="M49.3,222.3c0-9.7,8.2-17.6,18-16.9c9,0.6,15.7,8.5,15.7,17.5v0c0,4.8-3.9,8.8-8.7,8.8H58
			c-4.8,0-8.7-3.9-8.7-8.8V222.3z"/>
		<path d="M74.3,233H58c-5.5,0-10-4.5-10-10.1v-0.6c0-5,2.1-9.9,5.7-13.3c3.7-3.5,8.5-5.2,13.6-4.9c9.5,0.6,16.9,8.9,16.9,18.8
			C84.3,228.5,79.8,233,74.3,233z M66.2,206.7c-4,0-7.7,1.5-10.6,4.2c-3.2,3-4.9,7-4.9,11.4v0.6c0,4.1,3.3,7.4,7.4,7.4h16.3
			c4.1,0,7.4-3.3,7.4-7.4c0-8.5-6.4-15.7-14.5-16.2C66.9,206.7,66.5,206.7,66.2,206.7z"/>
	</g>
</g>
<g>
	<path style="fill:#FFCD00;" d="M49.9,101.3c-3.1-2.3-7.3-2.2-11.1-1.8c-9.7,1-19.3,3.6-28.2,7.6c-4,1.8-8.3,4.4-9.2,8.8
		c-0.7,3.6,1.3,7.3,3.7,10.1c7.5,8.7,20,12.6,31.1,9.9"/>
	<path d="M29.1,138.1c-9.4,0-18.8-4.1-24.9-11.2c-2.3-2.7-4.9-6.8-4-11.2c1-5.2,6.2-8,9.9-9.7c9.1-4.1,18.7-6.7,28.6-7.8
		c4-0.4,8.5-0.5,12,2c0.6,0.4,0.7,1.3,0.3,1.8c-0.4,0.6-1.2,0.7-1.8,0.3c-2.8-2-6.7-1.9-10.2-1.5c-9.6,1-19,3.6-27.8,7.5
		c-5.2,2.3-7.8,4.8-8.4,7.8c-0.7,3.4,1.5,6.7,3.4,8.9c7.2,8.3,19.2,12.1,29.8,9.5c0.7-0.2,1.4,0.3,1.6,1c0.2,0.7-0.3,1.4-1,1.6
		C34.1,137.8,31.6,138.1,29.1,138.1z"/>
</g>
<g>
	<path style="fill:#FFCD00;" d="M37.3,109.1c0.9-3.8,1.6-7.5,1.6-11.4c0.1-6.7-1.8-13.3-2.6-19.9c-2.2-18.1,3.8-37.4,17.4-49.5
		c26.9-23.9,75.2-15.8,90.3,17.6c6.4,14,6.5,30.5,1.2,45c-2.6,7.1-6.5,13.8-7.4,21.2c-0.7,6.1,0.6,12.3,1.2,18.4
		c1.6,15.8-2.1,33.2-13.9,43.8c-6.7,6-15.4,9.5-24.3,10.8c-8.9,1.4-17.9,0.8-26.8-0.4c-13-1.7-26.7-5.2-35.3-15.1
		c-9.9-11.5-10.2-28.7-6.4-43.4C33.9,120.4,35.9,114.8,37.3,109.1z"/>
	<path d="M91.7,14.5c21.5,0,43.1,11,52.4,31.3c6.4,14,6.5,30.5,1.2,45c-2.6,7.1-6.5,13.8-7.4,21.2c-0.7,6.1,0.6,12.3,1.2,18.4
		c1.6,15.8-2.1,33.2-13.9,43.8c-6.7,6-15.4,9.5-24.3,10.8c-3.6,0.6-7.3,0.8-10.9,0.8c-5.3,0-10.7-0.5-15.9-1.2
		c-13-1.7-26.7-5.2-35.3-15.1c-9.9-11.5-10.2-28.7-6.4-43.4c1.5-5.7,3.6-11.3,5-17.1c0.9-3.8,1.6-7.5,1.6-11.4
		c0.1-6.7-1.8-13.3-2.6-19.9c-2.2-18.1,3.8-37.4,17.4-49.5C64.2,19,77.9,14.5,91.7,14.5 M91.7,11.9v2.6l0,0.9l0-0.9L91.7,11.9
		C76.6,11.9,62.5,17,52,26.3C38.4,38.4,31.4,58.2,33.8,78c0.3,2.4,0.7,4.8,1.1,7.1c0.7,4.3,1.5,8.3,1.4,12.4c0,3.3-0.5,6.7-1.5,10.8
		c-0.7,3-1.7,6.1-2.6,9.1c-0.8,2.6-1.6,5.3-2.3,8c-4.9,18.4-2.3,35.1,6.9,45.8c4.3,4.9,9.8,8.6,17.1,11.4c5.5,2.1,11.9,3.6,19.9,4.6
		c6.2,0.8,11.4,1.2,16.3,1.2c4,0,7.7-0.3,11.3-0.8c10.2-1.6,19.1-5.5,25.6-11.5c5.9-5.4,10.2-12.5,12.7-21.2
		c2.2-7.6,2.9-16.2,2-24.8c-0.2-1.6-0.4-3.2-0.6-4.7c-0.6-4.6-1.1-8.9-0.6-13.1c0.6-4.8,2.5-9.4,4.6-14.2c0.9-2.1,1.8-4.3,2.6-6.4
		c5.7-15.5,5.3-32.6-1.3-47c-4.6-10.2-12.5-18.7-22.7-24.5C114.2,14.8,103.1,11.9,91.7,11.9L91.7,11.9z"/>
</g>
<g>
	<g>
		<g>
			<g>
				<path style="fill-rule:evenodd;clip-rule:evenodd;" d="M58,56.3L58,56.3c2.7,0.3,5-1.6,5.2-4.1l0.1-0.6c0.2-2.5-1.7-4.7-4.4-5
					c-2.7-0.3-5,1.6-5.3,4.1l-0.1,0.6C53.3,53.9,55.3,56.1,58,56.3"/>
			</g>
			<g>
				<path style="fill-rule:evenodd;clip-rule:evenodd;" d="M84.4,58.8L84.4,58.8c2.7,0.3,5-1.6,5.2-4.1l0.1-0.6
					c0.2-2.5-1.7-4.7-4.4-5c-2.7-0.3-5,1.6-5.3,4.1L80,53.9C79.8,56.4,81.7,58.6,84.4,58.8"/>
			</g>
		</g>
	</g>
</g>
<g>
	<g>
		<path style="fill:#FF7A00;" d="M62.5,67.3c-1.3-0.1-2.2,1.2-1.6,2.4c1,1.9,2.8,4.3,6.5,4.6c3.5,0.3,6.1-1.5,7.6-3.2
			c0.9-1,0.3-2.6-1.1-2.7L62.5,67.3z"/>
		<path d="M68.2,75.7c-0.3,0-0.6,0-1,0c-4.2-0.4-6.4-3.1-7.5-5.4c-0.5-1-0.4-2.1,0.2-3c0.6-0.9,1.6-1.4,2.7-1.3L74,67.1
			c1.1,0.1,2.1,0.8,2.5,1.9c0.4,1.1,0.2,2.2-0.6,3.1C74.3,73.7,71.8,75.7,68.2,75.7z M62.3,68.6c-0.1,0-0.2,0.1-0.3,0.1
			c0,0.1-0.1,0.2,0,0.3c1.2,2.4,3,3.7,5.4,3.9c3,0.3,5.2-1.4,6.5-2.8c0.1-0.1,0.1-0.2,0.1-0.3c0-0.1-0.1-0.2-0.3-0.2L62.3,68.6
			C62.4,68.6,62.4,68.6,62.3,68.6z"/>
	</g>
	<g>
		<path style="fill:#FF7A00;" d="M76.2,70.2c1.8,0.2,3.2-1.7,2.3-3.4c-1.4-2.8-4.1-6.2-9.3-6.7c-5.1-0.5-8.7,2.2-10.9,4.6
			c-1.3,1.4-0.4,3.8,1.5,3.9L76.2,70.2z"/>
		<path d="M76.4,71.5c-0.1,0-0.2,0-0.4,0L59.8,70c-1.4-0.1-2.6-1-3.1-2.4c-0.5-1.3-0.2-2.8,0.7-3.8c2.4-2.6,6.3-5.6,12-5
			c5.8,0.5,8.8,4.3,10.3,7.4c0.6,1.2,0.5,2.6-0.3,3.7C78.8,71,77.7,71.5,76.4,71.5z M76.3,68.9c0.6,0.1,0.9-0.3,1-0.5
			c0.1-0.2,0.3-0.6,0.1-1.1c-1.2-2.5-3.6-5.5-8.2-5.9c-4.6-0.4-7.9,2-9.8,4.2c-0.4,0.4-0.3,0.9-0.2,1.1c0.1,0.1,0.3,0.6,0.9,0.7
			L76.3,68.9z"/>
	</g>
</g>
<g>
	<path style="fill:#FFCD00;" d="M89.6,15.6c0,0-3.3-11.3-11-9.6C68.6,8.3,67.2,1.3,67.2,1.3s-4.3,11.8,6,17.3"/>
	<path d="M73.2,19.9c-0.2,0-0.4,0-0.6-0.2C61.4,13.8,65.9,1,66,0.9C66.2,0.3,66.7,0,67.3,0c0.6,0,1.1,0.5,1.2,1.1
		c0,0.1,0.4,1.9,2.3,3.1c1.8,1.2,4.4,1.4,7.6,0.7c3.7-0.8,7,0.8,9.7,4.7c1.9,2.7,2.8,5.7,2.8,5.8c0.2,0.7-0.2,1.4-0.9,1.6
		c-0.7,0.2-1.4-0.2-1.6-0.9l0,0c0-0.1-3.1-10.1-9.4-8.7c-4,0.9-7.3,0.5-9.7-1.1c-0.6-0.4-1.1-0.9-1.6-1.3c-0.4,3.6,0,9.2,6.1,12.5
		c0.6,0.3,0.9,1.1,0.5,1.8C74.1,19.7,73.6,19.9,73.2,19.9z"/>
</g>
<g>
	<path style="fill:#FFCD00;" d="M128.4,134.1c-8.7-0.6-11-9.6-11-9.6c-3.1-6.1,0.5-11.9,3.3-17c3-5.3,5.4-11.6,4.2-17.8
		c-0.5-2.4-1.2-4.9-0.6-7.2c0.6-2.5,2.7-4.4,5.1-5.3c2.4-0.9,5-0.8,7.5-0.2c7.1,1.7,14.1,9,16.7,15.7c2.9,7.4,2.8,16.1-0.2,23.5
		c0,0-3,7.4-6.4,12.1c0,0-4.5,5.4-7.6,5.8"/>
	<path d="M139.3,135.4c-0.6,0-1.2-0.5-1.3-1.1c-0.1-0.7,0.4-1.4,1.1-1.5c1.9-0.3,5.2-3.4,6.8-5.3c3.2-4.5,6.2-11.7,6.2-11.8
		c2.9-7,3-15.4,0.2-22.5c-2.3-6-8.9-13.3-15.8-14.9c-2.5-0.6-4.8-0.6-6.7,0.1c-2.1,0.8-3.8,2.5-4.2,4.4c-0.4,1.7,0,3.5,0.4,5.4
		c0.1,0.4,0.2,0.8,0.3,1.3c1.1,5.5-0.3,11.4-4.4,18.7l-0.4,0.8c-2.7,4.8-5.5,9.8-2.9,15c0,0.1,0.1,0.2,0.1,0.3
		c0.1,0.3,2.2,8,9.8,8.6c0.7,0.1,1.3,0.7,1.2,1.4c-0.1,0.7-0.7,1.3-1.4,1.2c-8.9-0.6-11.8-9.1-12.1-10.4c-3.2-6.4,0.1-12.2,3-17.4
		l0.4-0.8c3.7-6.7,5-12,4.1-16.9c-0.1-0.4-0.2-0.8-0.3-1.2c-0.5-2.1-0.9-4.3-0.4-6.6c0.7-2.8,2.9-5.1,5.9-6.2c2.4-0.9,5.2-1,8.2-0.2
		c8,1.9,15.1,10,17.6,16.5c3,7.7,2.9,16.9-0.2,24.5c-0.1,0.3-3.1,7.6-6.6,12.3c0,0,0,0.1-0.1,0.1c-0.5,0.6-4.9,5.8-8.5,6.2
		C139.4,135.4,139.4,135.4,139.3,135.4z"/>
</g>
<g>
	<g>
		<path style="fill:#00B739;" d="M74.5,52.2c-0.2,2,0.2,4,1.4,5.9c2,3.1,5.1,5.1,8.8,5.1c9.4,0.1,24.8-8.6,26.6-23.4
			c1.6-13.1-17.6-7.3-23.4-3.9C83,38.8,75.2,45.4,74.5,52.2z"/>
		<path d="M84.8,64.6c0,0-0.1,0-0.1,0c-4,0-7.6-2.1-9.9-5.7c-1.3-2.1-1.9-4.4-1.6-6.8c0.8-7.6,9.2-14.4,14.1-17.3
			c4.1-2.5,16.4-6.8,22.3-2.9c1.7,1.1,3.6,3.4,3,8.1C110.7,55.3,95.2,64.6,84.8,64.6z M103.2,32.9c-5.1,0-11.5,2.3-14.6,4.1
			c-4.1,2.4-12.1,8.8-12.8,15.3l0,0c-0.2,1.8,0.2,3.5,1.2,5.1c1.8,2.9,4.6,4.5,7.7,4.5c0,0,0.1,0,0.1,0c9.2,0,23.5-8.6,25.2-22.3
			c0.3-2.7-0.3-4.5-1.9-5.6C106.9,33.3,105.1,32.9,103.2,32.9z M74.5,52.2L74.5,52.2L74.5,52.2z"/>
	</g>
	<g>
		<path style="fill:#3D3D3D;" d="M79.7,51.7c-0.1,1.4,0.1,2.8,1,4.1c1.4,2.1,3.5,2.2,6.1,2.2c6.4,0,17-6,18.3-16.2
			c1.1-9.1-12.1-3.7-16.1-1.4C85.5,42.4,80.2,47,79.7,51.7z"/>
		<path d="M86.8,59.3C86.8,59.3,86.7,59.3,86.8,59.3c-2.6,0-5.5,0-7.2-2.8c-1-1.5-1.4-3.2-1.2-5l0,0c0.6-5.4,6.5-10.2,9.9-12.3
			c2.3-1.4,11.6-5.8,16-2.9c1.2,0.8,2.4,2.4,2,5.6C105,52.7,94.1,59.3,86.8,59.3z M81,51.8c-0.1,1.2,0.1,2.2,0.8,3.3
			c1,1.5,2.4,1.6,5,1.6c0,0,0,0,0.1,0c6.2,0,15.8-5.8,16.9-15c0.3-2.3-0.6-2.9-0.9-3.1c-2.6-1.7-9.9,1-13.2,3
			C86.8,43.2,81.5,47.5,81,51.8L81,51.8z"/>
	</g>
	<g>
		<path style="fill:#00B739;" d="M65.4,54.4c-0.4,1.9-1.3,3.6-3,5c-2.7,2.2-6.1,3.1-9.5,2c-8.5-2.7-20-15.3-17.2-29.3
			C38,19.7,53.8,30.7,58,35.6C61.6,39.7,66.7,48,65.4,54.4z"/>
		<path d="M55.7,63.2c-1.1,0-2.2-0.2-3.3-0.5c-9.5-3-21-16.2-18.1-30.8c0.9-4.4,3.3-6,5.2-6.5c6.5-1.8,16.5,5.8,19.5,9.3
			c3.6,4.1,9.2,12.9,7.7,20c-0.5,2.3-1.7,4.2-3.5,5.7C60.9,62.2,58.4,63.2,55.7,63.2z M41.6,27.7c-0.5,0-1,0.1-1.4,0.2
			c-1.7,0.5-2.8,1.9-3.3,4.5c-2.5,12.9,8,25.1,16.4,27.8c2.8,0.9,5.8,0.3,8.3-1.8c1.4-1.1,2.2-2.5,2.6-4.2v0
			C65.4,48,60,39.9,57,36.4C54,33.1,46.5,27.7,41.6,27.7z"/>
	</g>
	<g>
		<path style="fill:#3D3D3D;" d="M60.8,52.4c-0.3,1.3-0.9,2.5-2.1,3.4c-1.9,1.5-3.8,0.9-6.2,0.2c-5.9-1.9-13.7-10.5-11.8-20.2
			c1.7-8.6,12.1,0.2,15,3.6C58.2,42.2,61.7,47.9,60.8,52.4z"/>
		<path d="M56,58.1c-1.3,0-2.7-0.4-3.9-0.8c-6.7-2.1-14.7-11.4-12.7-21.7c0.6-3.1,2.3-4.2,3.6-4.5c4.9-1.3,12.1,5.6,13.7,7.5
			c2.5,2.9,6.4,9.1,5.4,14.1l0,0c-0.4,1.7-1.2,3.1-2.6,4.2C58.4,57.8,57.2,58.1,56,58.1z M44.3,33.5c-0.2,0-0.5,0-0.7,0.1
			c-0.3,0.1-1.3,0.3-1.7,2.5c-1.7,8.7,5.3,16.9,10.9,18.7c2.3,0.7,3.6,1.1,4.9,0c0.9-0.7,1.4-1.6,1.6-2.7c0,0,0,0,0,0
			c0.8-3.8-2.4-9.2-4.8-11.9C52.5,37.7,47.3,33.5,44.3,33.5z"/>
	</g>
	<g>
		<g>
			<path style="fill:#00B739;" d="M73.6,52.2c0,0-3.3-1.5-7.3-0.7"/>
			<path d="M73.6,53.5c-0.2,0-0.4,0-0.5-0.1c-0.1,0-3-1.3-6.5-0.6c-0.7,0.1-1.4-0.3-1.5-1c-0.1-0.7,0.3-1.4,1-1.5
				c4.3-0.8,7.9,0.7,8.1,0.8c0.7,0.3,1,1.1,0.7,1.7C74.6,53.2,74.1,53.5,73.6,53.5z"/>
		</g>
		<g>
			<path style="fill:#00B739;" d="M73.6,53.5c-0.2,0-0.4,0-0.5-0.1c0,0-3-1.3-6.5-0.6c-0.7,0.1-1.4-0.3-1.5-1
				c-0.1-0.7,0.3-1.4,1-1.5c4.3-0.8,7.9,0.7,8.1,0.8c0.7,0.3,1,1.1,0.7,1.7C74.6,53.2,74.1,53.5,73.6,53.5z"/>
			<path d="M68.7,50c3.1,0,5.3,1,5.4,1c0.7,0.3,1,1.1,0.7,1.7c-0.2,0.5-0.7,0.8-1.2,0.8c-0.2,0-0.4,0-0.5-0.1c0,0-1.9-0.8-4.4-0.8
				c-0.7,0-1.4,0.1-2.1,0.2c-0.1,0-0.2,0-0.3,0c-0.6,0-1.2-0.4-1.3-1.1c-0.1-0.7,0.3-1.4,1-1.5C67,50,67.9,50,68.7,50 M68.7,47.3
				C68.7,47.3,68.7,47.3,68.7,47.3c-1.1,0-2.1,0.1-3.1,0.3c-1,0.2-1.9,0.8-2.5,1.7c-0.6,0.9-0.8,1.9-0.6,3c0.4,1.9,2,3.2,3.9,3.2
				c0.3,0,0.5,0,0.8-0.1c0.5-0.1,1.1-0.2,1.6-0.2c1.8,0,3.3,0.6,3.4,0.6c0.5,0.2,1,0.3,1.5,0.3c1.6,0,3-0.9,3.6-2.4
				c0.4-1,0.4-2,0.1-3c-0.4-1-1.1-1.8-2.1-2.2C74.9,48.4,72.2,47.3,68.7,47.3L68.7,47.3z"/>
		</g>
	</g>
</g>
<g>
	<g>
		<path style="fill:#3D3D3D;" d="M26.4,171.3c1.1,0.3,17.2,4.6,36.1,7.3c17.9,2.5,42.1,4.1,55.6-2.9c0.1-1.2,2.2-19.9,5.8-38.9
			c5.1-26,10.6-40.1,16.6-41.8c-0.2-0.8-1.7-5.4-5.5-5.6c-4.1-0.2-14.8-1-15.8-1.1c-0.4,0.7-4.8,8.1-11.5,15.3
			c-11.8,12.6-21.8,15-28.2,14.7c-9.9-0.4-18-3.8-23.9-9.9c-5.6-5.8-8.1-12.7-9.2-17.6c-2.4-10.7-7.6-11.3-8-11.4l-12.1,5.6
			c0.2,0.8,1.6,6.7,2.8,13.6c1.2,6.9,2.3,16.2,1.2,21.7C28.2,131.3,23.5,163.4,26.4,171.3z"/>
		<path style="fill:#00B739;" d="M122.5,147.3c-6.4-4.4-7.7-38-7.7-38c-6.4,9.3-19.5,21.5-43.3,16.4c-23.8-5.1-31.2-23.7-31.2-23.7
			c2.5,13.2-11.5,29.1-11.5,29.1s-5.3,30.5-2.5,40.3c0,0,60.4,18.1,91.6,4.3L122.5,147.3z"/>
		<path d="M89.7,181.9c-9.3,0-19-1-27.3-2.1c-19.1-2.7-35.5-7.1-36.2-7.3c-0.3-0.1-0.6-0.3-0.7-0.7c-3.2-8.8,2.2-43.1,4-51.5
			c1.1-5.3,0-14.5-1.2-21.3C27,92,25.6,86,25.4,85.4c-0.1-0.5,0.1-1,0.6-1.3l12.1-5.6c0.2-0.1,0.4-0.1,0.6-0.1
			c0.6,0.1,6.4,0.9,9,12.2c1.1,4.7,3.5,11.5,8.9,17.1c5.7,5.9,13.5,9.1,23.1,9.5c6.1,0.3,15.8-2,27.3-14.3
			c6.6-7.1,10.9-14.3,11.3-15.1c0.2-0.4,0.6-0.6,1-0.5c0.5,0,11.6,0.9,15.7,1.1c4.5,0.2,6.2,5.4,6.5,6.4c0.2,0.6-0.2,1.2-0.8,1.4
			c-3.8,1.1-9.7,9.1-15.9,40.9c-3.7,19-5.7,38-5.8,38.8c0,0.4-0.3,0.7-0.6,0.9C111.2,180.5,100.6,181.9,89.7,181.9z M27.3,170.4
			c3.1,0.8,18.1,4.7,35.4,7.1c17.5,2.5,41.1,4,54.4-2.6c0.4-3.5,2.4-20.9,5.8-38.4c4.9-25.3,10.3-39.2,16.3-42.2
			c-0.6-1.4-1.8-3.8-4.2-3.9c-3.6-0.2-12.6-0.8-15.1-1c-1.2,2.1-5.3,8.6-11.3,14.9c-12.1,12.9-22.5,15.3-29,15
			c-10.2-0.5-18.5-3.9-24.6-10.2c-5.8-5.9-8.3-13.1-9.5-18.1c-1.2-5.3-3.1-7.9-4.4-9.1c-1.1-1-1.9-1.3-2.4-1.4l-10.9,5.1
			c0.5,2,1.6,7.1,2.6,12.8c1.2,7,2.3,16.5,1.2,22.1C29.1,132.1,25,162.2,27.3,170.4z"/>
	</g>
	<g>
		<path style="fill:#FFFFFF;" d="M64,145.2c2.2-1.6,4.6-2.7,7.3-3.4c0.6-0.2,0.9-0.8,0.8-1.4c-0.2-0.6-0.8-0.9-1.3-0.8
			c-2.8,0.7-5.5,2-7.8,3.7c-0.5,0.3-0.7,1-0.4,1.5C62.8,145.3,63.5,145.6,64,145.2L64,145.2z"/>
		<g>
			<path style="fill:#FFFFFF;" d="M39.3,152.5c3.1-1.2,4.9-3.9,6.1-6.8c0.3-0.7,0.6-1.4,0.8-2.2c0.3-1.2-0.5-2.1-1.7-1.9
				c-1.8,0.3-3,1.9-4,3.3c-2,2.9-3.2,6.7-2.8,10.3c0.1,0.9,0.4,1.8,1,2.5c0.7,0.6,1.5,1,2.4,1.1c1.9,0.2,3.6-0.8,5.2-1.7
				c1.9-1.1,3.6-2.3,5.3-3.6c1.6-1.3,3.3-2.6,4.1-4.6c0.2-0.6-0.2-1.2-0.8-1.4c-0.6-0.2-1.1,0.2-1.3,0.8c-0.4,0.9-1.1,1.6-1.8,2.2
				c-0.8,0.7-1.7,1.4-2.6,2.1c-1.8,1.3-3.7,2.6-5.7,3.5c-0.8,0.4-1.8,0.7-2.7,0.4c-0.8-0.3-1-1-1-1.8c-0.1-2.1,0.3-4.2,1.2-6
				c0.5-1.1,1-2.1,1.7-3c0.3-0.4,0.7-0.9,1.1-1.2c0.2-0.1,0.3-0.3,0.5-0.4c0.1-0.1,0.2-0.1,0.3-0.1c0.1,0,0.1,0,0.2-0.1
				c0.3-0.1,0.2-0.1-0.2-0.1c-0.1-0.1-0.3-0.3-0.4-0.4c0,0,0,0.1,0.1,0.1c0-0.2-0.1-0.4-0.1-0.6c0,0.3-0.2,0.8-0.3,1.1
				c-0.1,0.4-0.3,0.8-0.5,1.2c-0.3,0.8-0.7,1.6-1.2,2.3c-0.8,1.3-2,2.5-3.4,3c-0.6,0.2-0.9,0.7-0.8,1.4
				C38.1,152.2,38.7,152.7,39.3,152.5L39.3,152.5z"/>
			<path style="fill:#FFFFFF;" d="M51.9,143.3c0,4.5,0,9-0.1,13.4c0,1.4,2.1,1.4,2.2,0c0.1-4.2,1.1-8.3,3-12.1
				c0.4-0.8,0.8-1.7,1.5-2.4c0.1-0.2,0.3-0.3,0.4-0.4c0.1,0,0.1-0.1,0.2-0.1c0,0,0.1-0.1,0.1-0.1c-0.2-0.1-0.5-0.2-0.7-0.3
				c0,0.1,0.2,0.6,0.2,0.7c0.1,0.3,0.1,0.6,0.2,0.9c0.2,1.1,0.3,2.1,0.5,3.2c0.1,1,0.3,2,0.7,2.9c0.5,1,1.6,1.7,2.7,1.5
				c1.1-0.2,1.9-1.1,2.6-2c0.4-0.5,0.1-1.2-0.4-1.5c-0.6-0.3-1.1-0.1-1.5,0.4c-0.2,0.3-0.9,1.2-1.3,0.9c-0.2-0.2-0.3-0.6-0.3-0.8
				c-0.1-0.5-0.2-1.1-0.3-1.6c-0.2-1.1-0.3-2.2-0.5-3.3c-0.2-1-0.3-2.4-1.2-2.9c-1.1-0.6-2.2,0.3-2.9,1.1c-0.7,0.8-1.2,1.7-1.7,2.6
				c-1,1.9-1.8,4-2.4,6.1c-0.6,2.4-1,4.8-1.1,7.3c0.7,0,1.5,0,2.2,0c0-4.5,0-9,0.1-13.4C54.1,141.8,52,141.8,51.9,143.3L51.9,143.3z
				"/>
			<path style="fill:#FFFFFF;" d="M66.9,138.2c-1,4.4-1,9-0.8,13.5c0,0.8,0.9,1.4,1.6,0.9c3.8-2.1,7.5-4.5,11.1-7.1
				c0.5-0.3,0.7-1,0.4-1.5c-0.3-0.5-1-0.7-1.5-0.4c-3.5,2.6-7.2,5-11.1,7.1c0.5,0.3,1.1,0.6,1.6,0.9c-0.2-4.3-0.2-8.6,0.7-12.9
				C69.3,137.5,67.2,136.9,66.9,138.2L66.9,138.2z"/>
			<path style="fill:#FFFFFF;" d="M76.9,137.9c0,2.6,0,5.3,0,7.9c0.7,0,1.5,0,2.2,0c-0.6-5,3.6-8.5,7.2-11.1c0.5-0.3,0.7-1,0.4-1.5
				c-0.3-0.5-1-0.7-1.5-0.4c-4.2,3-9,7.2-8.3,13c0.1,0.6,0.5,1.1,1.1,1.1c0.6,0,1.1-0.5,1.1-1.1c0-2.6,0-5.3,0-7.9
				C79,136.5,76.9,136.5,76.9,137.9L76.9,137.9z"/>
			<path style="fill:#FFFFFF;" d="M84.8,133.6c0,1,0,2,0,3.1c0,0.8-0.2,2.1,0.2,2.8c1,1.6,3.5,0.2,4.6-0.5c2.6-1.7,4.3-4.5,5.8-7.1
				c-0.7-0.3-1.3-0.6-2-0.8c-1.8,4.3-3.6,8.7-5.2,13c-0.8,2.2-1.7,4.3-2.5,6.5c-0.7,2-1.4,4.1-2.5,6c-1,1.7-2.6,3.1-4.6,3.5
				c0.4,0.3,0.9,0.5,1.3,0.8c-0.7-3.2,1.7-6.2,3.8-8.3c2.3-2.3,5-4.1,8-5.2c0.5-0.2,0.9-0.7,0.8-1.4c-0.1-0.5-0.8-1-1.3-0.8
				c-3.5,1.3-6.6,3.4-9.2,6.1c-2.6,2.7-5,6.3-4.1,10.1c0.1,0.6,0.8,0.9,1.3,0.8c4.5-0.7,6.6-5.3,8-9.2c1.7-4.6,3.4-9.1,5.2-13.6
				c1-2.6,2.1-5.2,3.2-7.7c0.2-0.5-0.2-1.1-0.6-1.3c-0.5-0.2-1.1,0-1.4,0.4c-1.2,2.1-2.5,4.3-4.4,5.9c-0.4,0.3-0.9,0.6-1.3,0.9
				c-0.2,0.1-0.5,0.2-0.7,0.3c-0.1,0.1-0.3,0.1-0.4,0.1c-0.1,0-0.1,0-0.2,0c-0.4,0.1-0.3,0.2,0.4,0.6c0.1-0.2,0-0.9,0-1.1
				c0-0.4,0-0.8,0-1.2c0-0.9,0-1.7,0-2.6C87,132.2,84.8,132.2,84.8,133.6L84.8,133.6z"/>
		</g>
	</g>
</g>
</svg>
