<?xml version="1.0" encoding="utf-8"?>
<!-- Generator: Adobe Illustrator 23.0.2, SVG Export Plug-In . SVG Version: 6.00 Build 0)  -->
<svg version="1.1" id="레이어_1" xmlns="http://www.w3.org/2000/svg" xmlns:xlink="http://www.w3.org/1999/xlink" x="0px"
	 y="0px" viewBox="0 0 334 341" style="enable-background:new 0 0 334 341;" xml:space="preserve">
<style type="text/css">
	.st0{fill:#FFFFFF;}
	.st1{fill:#673101;}
	.st2{fill:#FFC0BB;}
	.st3{fill:#00A2E7;}
	.st4{fill:#4D5B77;}
	.st5{fill:#586689;}
	.st6{fill:#647293;}
	.st7{fill:#A58111;}
	.st8{fill:#C49A3F;}
	.st9{fill:#B28C2B;}
	.st10{fill:#CEA759;}
	.st11{fill:#445166;}
	.st12{fill:#495772;}
	.st13{fill:#404E66;}
	.st14{fill:#CE4D05;}
</style>
<title>자산 1</title>
<g>
	<path class="st0" d="M202.8,79.4l-0.2-0.2c-4.1-3-4.9-8.8-1.8-12.8c2.4-3.2,2.8-8.5,2.8-10.1c-0.2-1.5-0.7-3.9-1.9-4.6
		c-2.9-1.6-10.2,0.3-14.1,2.2c-4.6,2.1-10.1,0.1-12.2-4.5c-2-4.4-0.2-9.7,4.1-12c1.9-0.9,18.5-8.7,31-1.8c4.6,2.5,10.2,7.8,11.4,19
		v0.6c0.1,1.3,0.4,13.1-6.5,22.2C212.4,81.3,206.9,82.2,202.8,79.4z"/>
	<path class="st1" d="M190.9,48.8c-0.6-0.4-1.3-0.6-2-0.6c1-0.2,1.8-0.7,2.4-1.5c1.2-1.7,0.8-3.9-0.9-5.1c-0.8-0.5-1.7-0.8-2.6-0.6
		c0.8-0.2,1.6-0.7,2.1-1.4c1.2-1.7,0.8-4-0.9-5.1l0,0c-0.1-0.1-0.3-0.2-0.4-0.2c-3.1,0.8-6.2,1.9-9.1,3.3c-4.6,2.2-6.5,7.7-4.2,12.3
		s7.7,6.5,12.3,4.2c1.6-0.7,3.2-1.3,4.9-1.8C192.6,50.9,192,49.5,190.9,48.8z"/>
</g>
<g>
	<path class="st0" d="M163.3,77.3l-0.3-0.2c-4.1-3-4.9-8.8-1.8-12.8c2.4-3.2,2.8-8.5,2.8-10.1c-0.2-1.5-0.7-3.9-2-4.6
		c-2.8-1.6-10.1,0.3-14.1,2.2c-4.6,2.1-10.1,0.1-12.2-4.5c-2-4.4-0.2-9.7,4.1-12c1.9-0.9,18.5-8.7,31-1.9c4.5,2.5,10.2,7.8,11.4,19
		V53c0.1,1.3,0.4,13-6.5,22.1C172.8,79.1,167.3,80,163.3,77.3z"/>
	<path class="st1" d="M151.4,46.7c-0.6-0.4-1.3-0.6-2-0.6c2-0.4,3.3-2.3,2.9-4.3c-0.4-1.9-2.1-3.2-4.1-3c0.9-0.2,1.6-0.7,2.1-1.4
		c1.2-1.7,0.8-4-0.9-5.2l0,0c-0.1-0.1-0.3-0.2-0.4-0.2c-3.2,0.8-6.3,1.9-9.2,3.3c-4.5,2.3-6.2,7.9-3.9,12.4c2.3,4.3,7.5,6.1,12,4.1
		c1.6-0.7,3.3-1.4,5-1.8C153,48.7,152.4,47.4,151.4,46.7z"/>
</g>
<path class="st0" d="M174,57c0,0-11.6,0.3-14.5,0.8c-34.4,5.1-38.3,32.6-38.8,37.9c-9.4,5.5-15.2,15.6-15.2,26.5v2.4
	c0,16.9,13.7,30.7,30.6,30.7h37.7c29.8,0,54-22,54-49.1S203.7,57.1,174,57z"/>
<path class="st2" d="M123.3,118.7c0-7.1-4.7-13.3-11.4-15.2c-4.1,5.3-6.4,11.9-6.4,18.7v2.4c0,3.4,0.6,6.8,1.7,10c0.1,0,0.3,0,0.4,0
	C116.3,134.5,123.4,127.4,123.3,118.7L123.3,118.7z"/>
<path class="st3" d="M183.6,53.9C129.2,53.8,127,97.3,127,97.3v116.3c0,20.9,25.3,37.8,56.5,37.8s56.6-16.9,56.6-37.8V97.7
	C241.3,52.3,183.6,53.9,183.6,53.9z"/>
<g>
	<path class="st4" d="M304,245.2c0,36.2-18.2,65.5-40.7,65.5s-40.7-29.3-40.7-65.5s18.2-65.5,40.7-65.5S304,209.1,304,245.2z"/>
	<path class="st5" d="M296,245.2c0,36.2-18.2,65.5-40.7,65.5s-40.7-29.3-40.7-65.5s18.2-65.5,40.7-65.5S296,209.1,296,245.2z"/>
	<polygon class="st6" points="263.3,304.5 247.3,304.5 255.3,250.3 	"/>
	<polygon class="st6" points="287,278.1 275.7,296.2 257.5,248.8 	"/>
	<polygon class="st6" points="292.1,232.4 292.1,258.1 258.5,245.2 	"/>
	<polygon class="st6" points="275.7,194.2 287,212.4 257.5,241.6 	"/>
	<polygon class="st6" points="247.3,185.9 263.3,185.9 255.3,240.1 	"/>
	<polygon class="st6" points="223.6,212.4 234.9,194.2 253.1,241.6 	"/>
	<polygon class="st6" points="218.4,258.1 218.4,232.4 252.1,245.2 	"/>
	<polygon class="st6" points="234.9,296.2 223.6,278.1 253,248.8 	"/>
</g>
<g>
	<rect x="55.1" y="159" class="st7" width="94.2" height="98.8"/>
	<rect x="55.1" y="159" class="st8" width="94.2" height="32.9"/>
	<rect x="55.1" y="191.9" class="st9" width="94.2" height="32.9"/>
	<rect x="149.2" y="159" class="st9" width="130.7" height="98.8"/>
	<rect x="149.2" y="159" class="st10" width="130.7" height="32.9"/>
	<rect x="149.2" y="191.9" class="st8" width="130.7" height="32.9"/>
</g>
<g>
	<rect x="77.9" y="230.1" class="st11" width="5.8" height="30.2"/>
	<path class="st4" d="M132,245.3c0,36.2-18.2,65.5-40.7,65.5s-40.7-29.3-40.7-65.5s18.2-65.5,40.7-65.5S132,209.1,132,245.3z"/>
	<path class="st5" d="M124,245.3c0,36.2-18.2,65.5-40.7,65.5s-40.7-29.3-40.7-65.5s18.2-65.5,40.7-65.5S124,209.1,124,245.3z"/>
	<polygon class="st6" points="91.3,304.5 75.3,304.5 83.3,250.4 	"/>
	<polygon class="st6" points="115,278.1 103.7,296.3 85.5,248.9 	"/>
	<polygon class="st6" points="120.1,232.4 120.1,258.1 86.5,245.3 	"/>
	<polygon class="st6" points="103.7,194.2 115,212.4 85.5,241.7 	"/>
	<polygon class="st6" points="75.3,186 91.3,186 83.3,240.2 	"/>
	<polygon class="st6" points="51.6,212.4 62.9,194.2 81.1,241.6 	"/>
	<polygon class="st6" points="46.4,258.1 46.4,232.4 80.1,245.2 	"/>
	<polygon class="st6" points="62.9,296.3 51.6,278.1 81,248.9 	"/>
	<path class="st11" d="M93.2,245.2c0,8.4-4.2,15.1-9.4,15.1s-9.4-6.8-9.4-15.1s4.2-15.1,9.4-15.1S93.2,236.9,93.2,245.2z"/>
	<path class="st12" d="M87.3,245.2c0,8.4-4.2,15.1-9.4,15.1s-9.4-6.8-9.4-15.1s4.2-15.1,9.4-15.1S87.3,236.9,87.3,245.2z"/>
	<path class="st13" d="M78,250.9c-2,0-3.5-2.5-3.5-5.7s1.5-5.7,3.5-5.7s3.5,2.6,3.5,5.7S79.9,250.9,78,250.9z"/>
</g>
<path class="st14" d="M33,169.4c-1.7,0-3,1.6-3,3.7v7.7c0,2,1.4,3.7,3,3.7h22.1v-15L33,169.4z"/>
</svg>
