<?xml version="1.0" encoding="utf-8"?>
<!-- Generator: Adobe Illustrator 24.1.1, SVG Export Plug-In . SVG Version: 6.00 Build 0)  -->
<svg version="1.1" id="Layer_1" xmlns="http://www.w3.org/2000/svg" xmlns:xlink="http://www.w3.org/1999/xlink" x="0px" y="0px"
	 viewBox="0 0 140 240" style="enable-background:new 0 0 140 240;" xml:space="preserve">
<g>
	<path style="fill:#FFFFFF;" d="M68.49,28.35c-0.23,0.49-0.6,0.66-1.07,0.66c-0.73,0-1.7-0.4-2.76-0.58
		c-2.06-0.35-1.46-2.24-2.97-4.04c-0.62-0.74-1.25-1.05-1.92-1.05c-0.88,0-1.83,0.53-2.92,1.31c-0.97,0.69-2.06,1.59-3.32,2.49
		c-1.25,0.89-2.72,1.33-4.18,1.33c-2.09,0-4.15-0.88-5.52-2.55c-2.34-2.85-1.82-6.91,1.18-9.1c1.86-1.36,3.52-2.61,5.14-3.6
		c2.22-1.37,4.36-2.25,6.84-2.25c1.34,0,2.78,0.26,4.39,0.83c2.19,0.78,4.09,2.05,5.37,3.92C68.93,18.92,70.19,24.75,68.49,28.35z"
		/>
	<path style="fill:#683100;" d="M56.91,24.44c0,0.07-0.02,0.15-0.06,0.21c-0.97,0.69-2.06,1.59-3.32,2.49
		c-1.25,0.89-2.72,1.33-4.18,1.33c-2.09,0-4.15-0.88-5.52-2.55c-2.34-2.85-1.82-6.91,1.18-9.1c1.86-1.36,3.52-2.61,5.14-3.6
		c0.36,0,0.67,0.06,0.95,0.15c0.01,0,0.03,0.01,0.04,0.01c0.02,0.01,0.03,0.02,0.05,0.02c1.06,0.38,1.53,1.21,1.58,1.31
		c0.42,0.64,0.58,1.39,0.26,2.08c-0.26,0.58-0.75,1-1.32,1.27c0.63-0.2,1.33-0.21,1.98,0.05c1.4,0.58,2.06,2.11,1.46,3.43
		c-0.3,0.66-0.85,1.13-1.5,1.37c0.51-0.08,1.05-0.07,1.56,0.14C55.97,23.35,56.91,23.93,56.91,24.44z"/>
	<path d="M68.39,14.59c-1.44-2.11-3.57-3.68-6.34-4.67c-1.78-0.63-3.43-0.94-5.06-0.94c-4.66,0-8.21,2.6-12.31,5.61l-0.85,0.62
		c-0.35,0.26-0.68,0.54-0.98,0.85c-1.33,1.3-2.17,2.98-2.41,4.83c-0.23,1.78,0.13,3.54,1.01,5.09c0.01,0.01,0.01,0.01,0.01,0.01
		c0.24,0.42,0.52,0.82,0.83,1.2c1.08,1.31,2.5,2.27,4.1,2.8c0.94,0.31,1.94,0.47,2.96,0.47c1.69,0,3.32-0.45,4.74-1.3
		c0.21-0.13,0.41-0.27,0.61-0.41c0.68-0.49,1.33-0.98,1.9-1.42c1.16-0.89,2.6-2,3.17-2c0.05,0,0.2,0.11,0.39,0.34
		c0.38,0.45,0.55,0.93,0.76,1.49c0.38,1.06,1.02,2.83,3.41,3.23c0.35,0.06,0.73,0.16,1.09,0.26c0.65,0.17,1.32,0.35,2,0.35
		c1.28,0,2.33-0.65,2.87-1.79C72.34,24.89,70.9,18.26,68.39,14.59z M67.42,29.01c-0.73,0-1.7-0.4-2.76-0.58
		c-2.06-0.35-1.46-2.24-2.97-4.04c-0.62-0.74-1.25-1.05-1.92-1.05c-0.88,0-1.83,0.53-2.92,1.31c-0.97,0.69-2.06,1.59-3.32,2.49
		c-1.25,0.89-2.72,1.33-4.18,1.33c-2.09,0-4.15-0.88-5.52-2.55c-2.34-2.85-1.82-6.91,1.18-9.1c1.86-1.36,3.52-2.61,5.14-3.6
		c2.22-1.37,4.36-2.25,6.84-2.25c1.34,0,2.78,0.26,4.39,0.83c2.19,0.78,4.09,2.05,5.37,3.92c2.18,3.2,3.44,9.03,1.74,12.63
		C68.26,28.84,67.89,29.01,67.42,29.01z"/>
</g>
<g>
	<path style="fill:#FFFFFF;" d="M120.09,34c-0.11,0.27-0.23,0.54-0.38,0.81c-0.21,0.4-0.46,0.78-0.74,1.14
		c-0.19,0.24-0.39,0.47-0.61,0.7c-0.22,0.22-0.45,0.43-0.7,0.63c-1.48,1.2-3.25,1.78-5.01,1.78c-1.61,0-3.21-0.49-4.56-1.43
		c-0.25-0.18-0.49-0.36-0.72-0.57c-0.34-0.3-0.66-0.64-0.96-1.01c-0.17-0.21-0.33-0.42-0.49-0.62c-0.86-1.06-1.99-2.5-2.4-3.03
		c-0.08-0.11-0.13-0.2-0.14-0.3c-1.18-1.45-2.23-2.43-3.42-2.43c-0.6,0-1.23,0.24-1.93,0.8c-2.12,1.68-2.06,3.38-4.2,3.38
		c-0.09,0-0.18,0-0.27-0.01c-2.05-0.13-4.8-1.61-5.1-3.29c-0.88-4.82,1.65-8.79,5.03-12.04c1.97-1.9,4.47-2.9,7.16-3.24
		c0.74-0.09,1.44-0.13,2.12-0.13c4.55,0,7.99,1.99,11.16,5.07c1.67,1.61,3.26,3.52,4.9,5.6c0.01,0.01,0.02,0.02,0.02,0.03
		c0.04,0.04,0.08,0.09,0.11,0.13c0.43,0.56,0.79,1.15,1.05,1.77C120.89,29.74,120.89,32.01,120.09,34z"/>
	<path style="fill:#683100;" d="M120.09,34c-0.11,0.27-0.24,0.55-0.38,0.81c-0.21,0.4-0.46,0.78-0.74,1.14
		c-0.19,0.24-0.39,0.47-0.61,0.7c-0.22,0.22-0.45,0.43-0.7,0.63c-1.48,1.2-3.25,1.78-5.01,1.78c-1.61,0-3.21-0.49-4.56-1.43
		c-0.25-0.18-0.49-0.36-0.72-0.57c-0.34-0.3-0.66-0.64-0.96-1.01c-0.17-0.21-0.33-0.42-0.49-0.62c-0.86-1.06-1.99-2.5-2.4-3.03
		c-0.08-0.11-0.13-0.2-0.14-0.3c-0.18-0.74,1.26-1.27,2.32-1.45c0.63-0.11,1.24,0.03,1.8,0.27c-0.66-0.48-1.15-1.2-1.29-2.07
		c-0.3-1.76,0.88-3.42,2.62-3.73c0.81-0.14,1.59,0.07,2.24,0.48c-0.56-0.48-0.99-1.12-1.12-1.89c-0.3-1.77,1.36-3.3,3.11-3.6
		c0.13-0.02,0.62,0.07,0.87,0.1c1.67,1.61,3.26,3.52,4.9,5.6c0.01,0.01,0.02,0.02,0.02,0.03c0.04,0.05,0.07,0.09,0.1,0.13
		c0.44,0.56,0.79,1.15,1.06,1.77C120.89,29.74,120.89,32.01,120.09,34z"/>
	<path d="M120.52,24.74c-4.99-6.34-9.77-11.59-17.75-11.59c-0.77,0-1.56,0.05-2.36,0.15c-3.34,0.41-6.13,1.68-8.3,3.77
		c-4.66,4.49-6.49,9.01-5.61,13.84c0.34,1.9,2.95,4.67,6.93,4.92c0.14,0.01,0.27,0.01,0.4,0.01c2.3,0,3.32-1.33,4.06-2.31
		c0.39-0.52,0.76-1.01,1.38-1.5c0.34-0.27,0.58-0.37,0.69-0.37c0.62,0,2.15,2.04,3.17,3.39c0.54,0.72,1.09,1.47,1.73,2.25
		c1.9,2.38,4.74,3.75,7.79,3.75c2.27,0,4.5-0.79,6.27-2.22C123.2,35.38,123.92,29.05,120.52,24.74z M118.36,36.65
		c-0.22,0.22-0.45,0.43-0.7,0.63c-1.48,1.2-3.25,1.78-5.01,1.78c-1.61,0-3.21-0.49-4.56-1.43c-0.25-0.18-0.49-0.36-0.72-0.57
		c-0.34-0.3-0.66-0.64-0.96-1.01c-0.17-0.21-0.33-0.42-0.49-0.62c-0.86-1.06-1.99-2.5-2.4-3.03c-0.08-0.11-0.13-0.2-0.14-0.3
		c-1.18-1.45-2.23-2.43-3.42-2.43c-0.6,0-1.23,0.24-1.93,0.8c-2.12,1.68-2.06,3.38-4.2,3.38c-0.09,0-0.18,0-0.27-0.01
		c-2.05-0.13-4.8-1.61-5.1-3.29c-0.88-4.82,1.65-8.79,5.03-12.04c1.97-1.9,4.47-2.9,7.16-3.24c0.74-0.09,1.44-0.13,2.12-0.13
		c4.55,0,7.99,1.99,11.16,5.07c1.67,1.61,3.26,3.52,4.9,5.6c0.01,0.01,0.02,0.02,0.02,0.03c0.04,0.04,0.08,0.09,0.11,0.13
		c0.43,0.56,0.79,1.15,1.05,1.77c0.88,2,0.88,4.27,0.08,6.26c-0.11,0.27-0.23,0.54-0.38,0.81c-0.21,0.4-0.46,0.78-0.74,1.14
		C118.78,36.19,118.58,36.42,118.36,36.65z"/>
</g>
<g>
	<path d="M60.55,176.17c2.19,0.36,4.41,0.61,6.63,0.76c1.4,0.09,2.8,0.14,4.2,0.14c0.28,0,0.55,0,0.83-0.01v10.39h0v34.18
		c0,2.34-3.7,4.23-6.03,4.23h-2.91H49.84c-0.98,0-2.02,0.03-3.07,0.03c-3.19,0-6.47-0.32-8.7-2.87c-2.02-2.32-1.46-6.95-0.17-9.47
		c2.37-4.66,6.82-8.1,11.94-9.21c0,0,0.23-0.05,0.28-0.06c1.38-0.27,2.6-0.38,3.67-0.38c4.89,0,6.75,2.28,6.75,2.28v-18.74V176.17
		 M60.55,174.18c-0.47,0-0.93,0.17-1.29,0.47c-0.45,0.38-0.7,0.93-0.7,1.52v11.28v15.22c-1.22-0.44-2.79-0.76-4.76-0.76
		c-1.27,0-2.64,0.14-4.05,0.41c-0.02,0-0.04,0.01-0.06,0.01l-0.29,0.07c-5.66,1.23-10.62,5.06-13.26,10.25
		c-1.49,2.93-2.34,8.49,0.45,11.68c2.72,3.12,6.51,3.55,10.2,3.55c0.54,0,1.08-0.01,1.61-0.02c0.49-0.01,0.98-0.02,1.45-0.02h13.43
		h2.91c3.2,0,8.03-2.48,8.03-6.22v-34.18c0-0.03,0-0.05,0-0.08v-10.31c0-0.53-0.21-1.04-0.59-1.42c-0.37-0.37-0.88-0.57-1.4-0.57
		c-0.01,0-0.02,0-0.02,0c-0.27,0-0.54,0.01-0.81,0.01c-1.37,0-2.74-0.04-4.07-0.13c-2.23-0.15-4.39-0.4-6.44-0.73
		C60.76,174.19,60.65,174.18,60.55,174.18L60.55,174.18z"/>
	<path style="fill-rule:evenodd;clip-rule:evenodd;fill:#0186C3;" d="M49.84,204.35c0,0,0.23-0.05,0.28-0.06
		c7.66-1.49,10.42,1.91,10.42,1.91v-16.55h11.67v32c0,2.34-3.7,4.23-6.03,4.23h-2.91H49.84c-3.98,0-8.8,0.56-11.76-2.83
		c-2.02-2.32-1.46-6.95-0.17-9.47C40.28,208.9,44.73,205.46,49.84,204.35"/>
	<path style="fill:#FFFFFF;" d="M67.18,176.93c-2.22-0.15-4.44-0.4-6.63-0.76v13.47h11.67l0-12.58
		C70.53,177.08,68.85,177.04,67.18,176.93z"/>
</g>
<g>
	<path d="M93.42,174.26v17.7h0v34.18c0,2.34-3.7,4.23-6.03,4.23h-2.91H71.05c-0.98,0-2.02,0.03-3.07,0.03
		c-3.19,0-6.47-0.32-8.69-2.87c-2.02-2.32-1.46-6.95-0.17-9.47c2.37-4.66,6.82-8.1,11.93-9.21c0,0,0.23-0.05,0.28-0.06
		c1.38-0.27,2.6-0.38,3.67-0.38c4.89,0,6.75,2.28,6.75,2.28v-18.74v-15.31C85.61,176.26,89.57,175.47,93.42,174.26 M93.42,172.27
		c-0.2,0-0.4,0.03-0.6,0.09c-3.58,1.13-7.37,1.91-11.28,2.32c-1.01,0.11-1.78,0.96-1.78,1.98v15.31v15.22
		c-1.22-0.44-2.79-0.76-4.76-0.76c-1.27,0-2.64,0.14-4.05,0.41c-0.02,0-0.05,0.01-0.07,0.02l-0.28,0.06
		c-5.66,1.23-10.63,5.06-13.27,10.25c-1.49,2.93-2.34,8.49,0.45,11.68c2.72,3.12,6.51,3.55,10.2,3.55c0.54,0,1.08-0.01,1.61-0.02
		c0.49-0.01,0.98-0.02,1.45-0.02h13.43h2.91c3.2,0,8.03-2.48,8.03-6.22v-34.18c0-0.02,0-0.05,0-0.07v-17.63
		c0-0.63-0.3-1.23-0.81-1.61C94.25,172.4,93.84,172.27,93.42,172.27L93.42,172.27z"/>
	<path style="fill-rule:evenodd;clip-rule:evenodd;fill:#019DF7;" d="M71.05,208.86c0,0,0.23-0.05,0.28-0.06
		c7.66-1.49,10.42,1.91,10.42,1.91v-18.74h11.67v34.18c0,2.34-3.7,4.23-6.03,4.23h-2.91H71.05c-3.98,0-8.8,0.56-11.76-2.83
		c-2.02-2.32-1.46-6.95-0.17-9.47C61.49,213.41,65.93,209.97,71.05,208.86"/>
	<path style="fill:#FFFFFF;" d="M81.75,176.66l0,15.31h11.67l0-17.7C89.57,175.47,85.61,176.26,81.75,176.66z"/>
</g>
<g>
	<path style="fill:#FFFFFF;" d="M34.55,133.97c0.79-6.12,2.96-11.69,5.2-17.67c0.99-2.65,4.76-12.21-1.38-12
		c-2.22,0.08-4.15,2.77-5.46,4.29c-2.84,3.31-5.16,6.99-6.91,10.9c-1.96,4.38-3.2,8.99-3.87,13.69
		C25.44,132.82,29.88,132.83,34.55,133.97z"/>
	<path style="fill:#0186C3;" d="M37.58,155.28c-0.03-0.07-0.06-0.14-0.09-0.22c-0.8-1.89-1.42-3.7-1.91-5.49
		c-0.7-2.56-1.12-5.08-1.29-7.77c-0.08-1.32-0.1-2.69-0.06-4.11c0.03-1.27,0.16-2.51,0.31-3.73c-4.67-1.14-9.11-1.15-12.42-0.81
		c-0.32,2.27-0.52,4.55-0.58,6.84c-0.17,6.52,0.1,14.02,2.71,20.16c1.27,2.99,4.12,5.33,7.61,5.64c0.73,0.06,1.44,0.06,2.07-0.02
		c2.3-0.27,4.52-1.48,5.25-3.62c0.15-0.43,0.2-0.85,0.21-1.26C39.48,158.95,38.32,157.08,37.58,155.28z"/>
	<path d="M38.56,104.29c5.86,0,2.17,9.39,1.19,12.01c-2.24,5.99-4.41,11.55-5.2,17.67c-0.16,1.22-0.28,2.46-0.31,3.73
		c-0.04,1.43-0.02,2.79,0.06,4.11c0.16,2.68,0.58,5.21,1.29,7.77c0.49,1.79,1.11,3.6,1.91,5.49c0.03,0.07,0.06,0.14,0.09,0.22
		c0.74,1.8,1.9,3.67,1.83,5.62c-0.02,0.42-0.07,0.84-0.21,1.26c-0.74,2.14-2.95,3.34-5.25,3.62c-0.35,0.04-0.72,0.06-1.11,0.06
		c-0.31,0-0.63-0.01-0.96-0.04c-3.49-0.31-6.34-2.65-7.61-5.64c-2.61-6.14-2.88-13.64-2.71-20.16c0.06-2.29,0.26-4.57,0.58-6.84
		c0.67-4.69,1.91-9.31,3.87-13.69c1.75-3.91,4.07-7.59,6.91-10.9c1.31-1.52,3.23-4.21,5.46-4.29
		C38.43,104.29,38.49,104.29,38.56,104.29 M38.56,102.29c-0.09,0-0.17,0-0.26,0c-2.84,0.1-4.89,2.57-6.39,4.38
		c-0.18,0.21-0.35,0.42-0.51,0.6c-2.93,3.41-5.36,7.24-7.22,11.38c-1.95,4.35-3.3,9.14-4.02,14.22c-0.34,2.38-0.54,4.75-0.6,7.07
		c-0.16,6.25,0.02,14.29,2.87,20.99c1.64,3.86,5.19,6.48,9.27,6.84c0.38,0.03,0.76,0.05,1.13,0.05c0.46,0,0.92-0.03,1.34-0.08
		c3.34-0.4,5.99-2.29,6.9-4.95c0.19-0.57,0.3-1.15,0.32-1.84c0.07-1.97-0.73-3.72-1.44-5.26c-0.19-0.42-0.37-0.81-0.53-1.19
		l-0.04-0.09l-0.06-0.14c-0.74-1.77-1.34-3.48-1.83-5.25c-0.66-2.41-1.06-4.82-1.22-7.36c-0.08-1.26-0.1-2.54-0.06-3.94
		c0.03-1.05,0.12-2.17,0.3-3.53c0.71-5.56,2.66-10.75,4.72-16.25l0.37-0.98l0.09-0.23c1.69-4.49,3.14-9.49,1.09-12.45
		C42.15,103.39,40.9,102.29,38.56,102.29L38.56,102.29z"/>
</g>
<g>
	<path style="fill:#0097EB;" d="M118.83,134.01c0.55,8.24-1.25,19.7-6.52,26.71c-6.19,8.23-17.56,13.7-31.22,15.01
		c-1.62,0.15-3.39,0.25-5.11,0.28l-3.49,0.04l-0.19,0.01c-1.68,0.03-3.39-0.02-5.05-0.13c-21.61-1.45-30.35-11.26-33.88-19.23
		c-4.78-10.8-3.88-22.59-2.57-31.65c0.27-1.8,0.74-3.74,1.25-5.79c1.11-4.51,2.28-9.18,1.38-13.41c0-0.03,0-0.05-0.01-0.08
		c-0.01-0.04-0.02-0.09-0.04-0.14l-0.08-0.25c-0.02-0.09-0.06-0.2-0.11-0.32l-0.17-0.46c-0.06-0.13-0.11-0.28-0.18-0.45
		c-0.18-0.47-0.42-1.09-0.74-1.89c-0.15-0.4-0.33-0.85-0.53-1.35c-1.3-3.31-2.93-7.43-3.27-8.65c-2.58-9.23-4.65-18.36-1.64-28.68
		c0.23-0.77,0.49-1.6,0.83-2.58c0.06-0.21,0.11-0.42,0.17-0.63c0.07-0.29,0.15-0.57,0.24-0.86c3-9.65,8.34-17.63,14.63-21.89
		c10.46-7.07,22.25-10.64,32.37-9.83l3.64,0.29l0.22,0.02c10.11,0.78,21.2,6.17,30.41,14.8c5.55,5.2,9.56,13.92,11.01,23.92
		c1.17,8.08,0.57,16.1-1.79,23.9c-0.34,1.46-1.36,4.93-4.29,13.23l-0.09,0.26l-0.05,0.19l-0.01,0.08c-0.08,0.53-0.16,1.08-0.2,1.64
		c-0.16,2.03,0.32,3.97,0.78,5.84c0.18,0.73,0.36,1.48,0.51,2.21c0.42,2.21,0.94,4.43,1.44,6.59
		C117.49,125.08,118.53,129.55,118.83,134.01z"/>
	<path d="M118.42,120.31c-0.5-2.14-1.01-4.35-1.43-6.52c-0.15-0.78-0.34-1.55-0.52-2.3c-0.45-1.8-0.87-3.5-0.74-5.22
		c0.04-0.48,0.11-0.96,0.18-1.47l0.07-0.19c2.34-6.63,3.84-11.28,4.33-13.37c2.43-8.02,3.05-16.33,1.84-24.7
		c-1.51-10.45-5.74-19.59-11.62-25.09c-9.53-8.94-21.06-14.53-31.6-15.34l-3.87-0.3c-10.55-0.85-22.82,2.84-33.64,10.16
		c-6.67,4.51-12.29,12.87-15.43,22.95c-0.09,0.31-0.18,0.63-0.26,0.94c-0.05,0.2-0.1,0.4-0.14,0.54c-0.33,0.96-0.61,1.82-0.84,2.62
		c-3.16,10.83-1.03,20.26,1.63,29.77c0.37,1.32,1.95,5.32,3.34,8.85c0.78,1.98,1.67,4.22,1.75,4.55c0.82,3.8-0.28,8.27-1.35,12.6
		c-0.52,2.09-1.01,4.08-1.29,5.97c-1.35,9.33-2.27,21.48,2.72,32.75c5.37,12.15,17.67,19.21,35.56,20.41
		c1.41,0.09,2.85,0.14,4.28,0.14c0.31,0,0.62,0,0.93-0.01l3.69-0.05c1.78-0.03,3.6-0.13,5.28-0.29c14.2-1.36,26.09-7.12,32.61-15.79
		c5.58-7.42,7.49-19.43,6.92-28.05C120.51,129.25,119.45,124.71,118.42,120.31z M31.57,100.92c-1.3-3.31-2.93-7.43-3.27-8.65
		c-2.58-9.23-4.65-18.36-1.64-28.68c0.23-0.77,0.49-1.6,0.83-2.58c0.06-0.21,0.11-0.42,0.17-0.63c0.07-0.29,0.15-0.57,0.24-0.86
		c3-9.65,8.34-17.63,14.63-21.89c10.46-7.07,22.25-10.64,32.37-9.83l3.64,0.29l0.22,0.02c10.11,0.78,21.2,6.17,30.41,14.8
		c5.55,5.2,9.56,13.92,11.01,23.92c1.17,8.08,0.57,16.1-1.79,23.9c-0.34,1.46-1.36,4.93-4.29,13.23l-0.09,0.26l-0.05,0.19
		l-0.01,0.08c-0.08,0.53-0.16,1.08-0.2,1.64c-0.16,2.03,0.32,3.97,0.78,5.84c0.18,0.73,0.36,1.48,0.51,2.21
		c0.42,2.21,0.94,4.43,1.44,6.59c1.01,4.32,2.05,8.79,2.35,13.25c0.55,8.24-1.25,19.7-6.52,26.71c-6.19,8.23-17.56,13.7-31.22,15.01
		c-1.62,0.15-3.39,0.25-5.11,0.28l-3.49,0.04l-0.19,0.01c-1.68,0.03-3.39-0.02-5.05-0.13c-21.61-1.45-30.35-11.26-33.88-19.23
		c-4.78-10.8-3.88-22.59-2.57-31.65c0.27-1.8,0.74-3.74,1.25-5.79c1.11-4.51,2.28-9.18,1.38-13.41c0-0.03,0-0.05-0.01-0.08
		c-0.01-0.04-0.02-0.09-0.04-0.14l-0.08-0.25c-0.03-0.09-0.07-0.19-0.11-0.32l-0.17-0.46c-0.06-0.13-0.11-0.28-0.18-0.45
		c-0.18-0.47-0.42-1.09-0.74-1.89C31.95,101.86,31.77,101.42,31.57,100.92z"/>
</g>
<path style="fill:#019DF6;" d="M74.98,26.81c0,0,0.08,0.01,0.21,0.01L74.98,26.81z"/>
<g>
	<path style="fill-rule:evenodd;clip-rule:evenodd;fill:#FFFFFF;" d="M105.16,77.98c-1.93,19.39-14.34,31.93-44.8,31.93
		c-3,0-6.17-0.13-9.52-0.37c-18.89-1.4-39.65-11.02-36.61-32.66C15.92,64.82,25.7,62.26,25.7,62.26c0.11-1.31,3.23-29.03,38.8-29.03
		c1.6,0,3.26,0.06,4.99,0.18C106.43,35.9,105.98,69.74,105.16,77.98z"/>
	<path d="M98,44.22c-6.49-7.66-16.04-11.97-28.38-12.8c-1.74-0.12-3.46-0.18-5.12-0.18c-10.65,0-25.24,2.57-34.3,14.83
		c-4.41,5.97-5.86,12.1-6.31,14.72C20.9,62,13.74,65.97,12.25,76.6c-1.11,7.89,0.67,14.78,5.27,20.49
		c6.53,8.1,18.62,13.36,33.17,14.43c3.36,0.25,6.62,0.38,9.67,0.38c14.99,0,26.54-3.07,34.32-9.11c7.2-5.6,11.39-13.88,12.46-24.62
		C107.62,73.31,108.39,56.51,98,44.22z M105.16,77.98c-1.93,19.39-14.34,31.93-44.8,31.93c-3,0-6.17-0.13-9.52-0.37
		c-18.89-1.4-39.65-11.02-36.61-32.66C15.92,64.82,25.7,62.26,25.7,62.26c0.11-1.31,3.23-29.03,38.8-29.03
		c1.6,0,3.26,0.06,4.99,0.18C106.43,35.9,105.98,69.74,105.16,77.98z"/>
	<path style="fill-rule:evenodd;clip-rule:evenodd;fill:#FDBCB6;" d="M54.66,80.89c-0.16,6.83,4.96,12.5,11.45,12.66
		c6.49,0.16,11.88-5.26,12.04-12.09c0.16-6.83-4.96-12.49-11.45-12.65S54.82,74.06,54.66,80.89"/>
	<path style="fill-rule:evenodd;clip-rule:evenodd;fill:#FDBCB6;" d="M16.51,75.48c0.58-2.32,3.34-10.1,7.12-7.31
		c5.11,3.77,2.74,13.35,0.21,18.11c-1,1.87-2.79,4.07-5.31,3.59c-1.42-0.27-1.94-2.95-2.13-3.88C15.7,82.55,15.65,78.92,16.51,75.48
		z"/>
</g>
<g>
	<path style="fill-rule:evenodd;clip-rule:evenodd;" d="M34.51,74.66c-0.02,0.89,0.9,1.63,2.08,1.66c1.18,0.03,2.14-0.67,2.16-1.56
		c0.02-0.88-0.91-1.63-2.08-1.66C35.49,73.07,34.53,73.78,34.51,74.66"/>
	<path style="fill-rule:evenodd;clip-rule:evenodd;" d="M31.55,72.67L31.55,72.67c1.22,0.03,2.24-1.14,2.27-2.62l0.01-0.37
		c0.04-1.48-0.92-2.7-2.14-2.73c-1.22-0.03-2.24,1.14-2.27,2.62l-0.01,0.37C29.37,71.42,30.33,72.64,31.55,72.67"/>
	<path style="fill-rule:evenodd;clip-rule:evenodd;" d="M50.45,73.12L50.45,73.12c1.43,0.03,2.63-1.13,2.66-2.61l0.01-0.37
		c0.04-1.48-1.1-2.7-2.53-2.74c-1.43-0.03-2.63,1.14-2.66,2.61l-0.01,0.37C47.88,71.87,49.02,73.09,50.45,73.12"/>
	<path d="M52.68,78.88c-0.37-0.4-0.98-0.42-1.38-0.07c-0.38,0.34-0.44,0.92-0.15,1.33c-0.1,0.24-0.58,0.83-1.68,1.56
		c-3.56,2.35-9.33,1.6-11.43-1.48c-0.03-0.05-0.08-0.07-0.12-0.11c-0.04-0.04-0.07-0.09-0.12-0.13c-0.01-0.01-0.02-0.01-0.03-0.01
		c-0.06-0.04-0.13-0.06-0.2-0.09c-0.05-0.02-0.1-0.05-0.15-0.06c-0.07-0.01-0.14-0.01-0.21-0.01c-0.06,0-0.12-0.01-0.17,0
		c-0.06,0.01-0.11,0.04-0.16,0.06c-0.07,0.02-0.14,0.04-0.2,0.08c-0.01,0.01-0.02,0.01-0.03,0.01c-0.05,0.03-0.08,0.08-0.12,0.12
		c-0.04,0.04-0.09,0.07-0.13,0.12c-0.78,1.07-2.16,1.77-3.6,1.82c-1.35,0.04-2.5-0.46-3.3-1.42c-0.66-0.79-0.45-1.13-0.34-1.3
		c0.29-0.47,0.14-1.08-0.33-1.37c-0.47-0.29-1.08-0.14-1.37,0.33c-0.4,0.64-0.85,1.97,0.51,3.61c1.14,1.37,2.83,2.14,4.68,2.14
		c0.07,0,0.15,0,0.22,0c1.63-0.05,3.16-0.68,4.31-1.72c1.77,1.83,4.51,2.81,7.32,2.81c2.12,0,4.28-0.56,6.07-1.74
		c1.59-1.05,2.46-2.07,2.58-3.03C53.21,79.8,53.05,79.29,52.68,78.88z"/>
</g>
<g>
	<path style="fill:#FFFFFF;" d="M110.12,138.53c0.3-6.16-0.86-12.02-2.01-18.31c-0.51-2.78-2.54-12.86,3.47-11.57
		c2.18,0.46,3.6,3.46,4.62,5.18c2.22,3.75,3.85,7.79,4.89,11.94c1.16,4.66,1.57,9.42,1.4,14.15
		C119.29,139,114.92,138.23,110.12,138.53z"/>
	<path style="fill:#0186C3;" d="M103.38,158.98c0.04-0.07,0.08-0.13,0.13-0.2c1.12-1.72,2.05-3.39,2.85-5.07
		c1.14-2.39,2-4.81,2.63-7.42c0.31-1.29,0.57-2.63,0.78-4.04c0.19-1.26,0.29-2.5,0.35-3.73c4.8-0.3,9.17,0.47,12.37,1.39
		c-0.08,2.29-0.29,4.58-0.63,6.84c-0.98,6.45-2.56,13.78-6.21,19.37c-1.78,2.72-4.99,4.52-8.48,4.21c-0.73-0.06-1.43-0.2-2.03-0.38
		c-2.22-0.67-4.19-2.25-4.54-4.49c-0.07-0.44-0.05-0.87,0.01-1.28C100.87,162.26,102.34,160.62,103.38,158.98z"/>
	<path d="M110.59,108.53c0.3,0,0.63,0.04,0.99,0.11c2.18,0.47,3.6,3.46,4.62,5.18c2.22,3.75,3.85,7.79,4.89,11.94
		c1.16,4.65,1.57,9.42,1.4,14.15c-0.08,2.29-0.29,4.58-0.63,6.84c-0.98,6.45-2.57,13.78-6.21,19.37c-1.64,2.52-4.52,4.25-7.7,4.25
		c-0.26,0-0.52-0.01-0.78-0.04c-0.73-0.06-1.43-0.2-2.03-0.38c-2.22-0.67-4.19-2.25-4.54-4.49c-0.07-0.44-0.05-0.87,0.01-1.28
		c0.27-1.93,1.74-3.57,2.78-5.21c0.04-0.07,0.08-0.13,0.13-0.2c1.12-1.72,2.04-3.39,2.85-5.07c1.14-2.39,2-4.81,2.63-7.42
		c0.31-1.29,0.57-2.63,0.78-4.04c0.19-1.26,0.29-2.5,0.35-3.73c0.3-6.16-0.86-12.02-2.01-18.31
		C107.63,117.6,105.81,108.53,110.59,108.53 M110.59,106.54L110.59,106.54c-1.49,0-2.75,0.58-3.66,1.66
		c-2.22,2.66-1.66,7.62-0.83,12.13l0.05,0.25l0.19,1.03c1.06,5.77,2.07,11.23,1.79,16.82c-0.07,1.37-0.17,2.49-0.33,3.53
		c-0.21,1.38-0.45,2.64-0.75,3.87c-0.6,2.47-1.41,4.77-2.49,7.03c-0.79,1.65-1.68,3.24-2.72,4.85l-0.13,0.21
		c-0.22,0.35-0.47,0.7-0.73,1.08c-0.97,1.39-2.07,2.97-2.35,4.92c-0.1,0.68-0.1,1.28-0.01,1.86c0.44,2.78,2.71,5.11,5.93,6.09
		c0.75,0.23,1.59,0.39,2.44,0.46c0.32,0.03,0.64,0.04,0.96,0.04c3.7,0,7.29-1.97,9.37-5.15c3.98-6.1,5.57-13.98,6.51-20.16
		c0.35-2.29,0.57-4.67,0.66-7.07c0.18-5.13-0.31-10.08-1.46-14.71c-1.1-4.41-2.82-8.6-5.11-12.47c-0.12-0.21-0.25-0.44-0.39-0.68
		c-1.16-2.04-2.75-4.84-5.52-5.43C111.51,106.59,111.04,106.54,110.59,106.54L110.59,106.54z"/>
</g>
</svg>
