<?xml version="1.0" encoding="UTF-8"?>
<svg xmlns="http://www.w3.org/2000/svg" version="1.1" viewBox="0 0 256 138">
  <defs>
    <style>
      .cls-1 {
        fill: #48649c;
      }

      .cls-2 {
        fill: #597bc0;
      }

      .cls-3 {
        fill: #c3cee2;
      }

      .cls-4 {
        fill: #fff;
      }

      .cls-5 {
        fill: #eb0002;
      }
    </style>
  </defs>
  <!-- Generator: Adobe Illustrator 28.7.1, SVG Export Plug-In . SVG Version: 1.2.0 Build 142)  -->
  <g>
    <g id="_레이어_1" data-name="레이어_1">
      <g>
        <g>
          <rect class="cls-1" x="54.515" y="106.891" width="42.291" height="6.972" transform="translate(-57.759 120.713) rotate(-60)"/>
          <path d="M68.107,131.736c-.227,0-.452-.059-.653-.174l-6.038-3.487c-.623-.361-.836-1.157-.476-1.781l21.145-36.625c.173-.299.457-.518.792-.607.336-.089.69-.04.99.129l6.038,3.487c.623.361.836,1.157.476,1.781l-21.145,36.625c-.173.299-.457.518-.792.607-.111.03-.225.045-.337.045h0ZM63.851,126.469l3.779,2.184,19.841-34.367-3.779-2.184s-19.841,34.367-19.841,34.367Z"/>
        </g>
        <g>
          <rect class="cls-1" x="46.999" y="84.447" width="6.972" height="42.291" transform="translate(-49.358 44.519) rotate(-32.993)"/>
          <path d="M59.076,126.528c-.09,0-.181-.008-.272-.028-.337-.072-.633-.276-.822-.565l-23.029-35.47c-.392-.605-.22-1.413.384-1.804l5.848-3.797c.291-.189.64-.255.982-.183.337.072.633.276.822.565l23.029,35.47c.392.605.22,1.413-.384,1.804l-5.848,3.797c-.213.138-.459.21-.71.21h0ZM37.851,90.139l21.608,33.282,3.661-2.377-21.608-33.282s-3.661,2.377-3.661,2.377Z"/>
        </g>
        <g>
          <circle class="cls-1" cx="86.929" cy="91.248" r="8.615"/>
          <path d="M86.929,101.166c-5.469,0-9.919-4.448-9.919-9.917s4.45-9.919,9.919-9.919,9.918,4.45,9.918,9.919-4.449,9.917-9.918,9.917ZM86.929,83.936c-4.031,0-7.311,3.281-7.311,7.313s3.28,7.311,7.311,7.311,7.31-3.281,7.31-7.311-3.279-7.313-7.31-7.313Z"/>
        </g>
        <g>
          <circle class="cls-1" cx="65.783" cy="127.873" r="8.615"/>
          <path d="M65.784,137.791c-5.469,0-9.919-4.448-9.919-9.917s4.45-9.919,9.919-9.919,9.918,4.45,9.918,9.919-4.449,9.917-9.918,9.917ZM65.784,120.561c-4.031,0-7.311,3.281-7.311,7.313s3.28,7.311,7.311,7.311,7.31-3.281,7.31-7.311-3.279-7.313-7.31-7.313Z"/>
        </g>
        <g>
          <path class="cls-5" d="M36.671,94.939c2.922.934,6.172-.9,7.782-3.512,1.431-2.321,1.841-5.292.905-7.853-.937-2.561-3.266-4.61-5.961-5.026-1.472-.227-2.989.015-4.394.51-7.842,2.762-5.339,13.64,1.668,15.88h0Z"/>
          <path d="M38.302,96.497c-.67,0-1.35-.1-2.029-.316h0c-4.231-1.352-7.349-5.647-7.416-10.214-.055-3.816,2.08-6.857,5.713-8.136,1.76-.622,3.454-.811,5.024-.569,3.117.48,5.859,2.782,6.987,5.866,1.054,2.88.673,6.239-1.02,8.983-1.472,2.39-4.259,4.387-7.26,4.387h0ZM37.067,93.698c2.419.775,5.038-.946,6.275-2.954,1.257-2.042,1.561-4.616.791-6.721-.794-2.169-2.777-3.852-4.935-4.185-1.146-.174-2.41-.025-3.762.452-3.509,1.235-3.994,4.064-3.971,5.641.05,3.421,2.457,6.761,5.602,7.767h0Z"/>
        </g>
        <g>
          <path class="cls-5" d="M33.304,92.051c-6.284,2.829-14.214,2.375-19.503-2.043-6.596-5.509-8.418-15.153-4.691-22.83,2.006-4.131,5.305-6.576,9.064-8.995,4.463-2.872,10.801-1.751,15.416.473,6.447,3.107,11.557,9.937,12.424,17.116.835,6.908-6.906,13.666-12.71,16.279Z"/>
          <path d="M25.013,95.133c-4.471,0-8.798-1.407-12.049-4.126-6.957-5.811-9.071-16.071-5.027-24.398,2.207-4.548,5.919-7.198,9.531-9.522,5.01-3.223,11.907-1.909,16.688.395,6.962,3.355,12.247,10.643,13.152,18.133.966,7.99-7.749,15.051-13.47,17.625-2.823,1.271-5.856,1.893-8.825,1.893ZM24.603,57.756c-2.046,0-4.035.438-5.724,1.524-3.438,2.212-6.682,4.526-8.597,8.47-3.527,7.263-1.696,16.204,4.355,21.257,4.66,3.898,11.947,4.641,18.132,1.857h0c5.261-2.368,12.697-8.752,11.95-14.934-.802-6.645-5.503-13.113-11.695-16.098-2.442-1.177-5.489-2.075-8.421-2.075h0Z"/>
        </g>
        <path d="M19.579,90.769c-4.25,0-7.766-2.931-10.893-5.535l-.468-.388c-.554-.461-.63-1.282-.171-1.836s1.281-.63,1.837-.172l.471.393c3.095,2.578,6.324,5.255,9.864,4.898,3.977-.384,10.225-4.421,12.746-7.506,1.089-1.333,1.742-2.638,1.943-3.877.415-2.566-.937-5.04-2.368-7.661-.732-1.339-1.489-2.725-2.032-4.174-.254-.675.088-1.426.762-1.679.675-.254,1.425.088,1.679.762.48,1.278,1.16,2.523,1.88,3.841,1.579,2.89,3.212,5.881,2.654,9.327-.274,1.698-1.114,3.417-2.498,5.112-2.952,3.612-9.786,7.994-14.514,8.453-.3.028-.597.042-.891.042h-.001Z"/>
        <g>
          <path class="cls-5" d="M44.373,79.757c2.83-2.833,5.403-7.418,4.931-11.393-.428-3.598-4-6.188-7.597-6.628-2.108-.258-4.414.131-5.96,1.587-1.537,1.448-2.062,3.674-2.183,5.781-.07,1.225-.02,2.501.518,3.604,1.201,2.464,4.971,3.14,6.953,1.248,1.551-1.481,2.008-3.461,2.066-5.605"/>
          <path d="M44.373,81.06c-.333,0-.667-.125-.921-.38-.51-.509-.51-1.335,0-1.844,2.573-2.576,4.98-6.766,4.557-10.318-.368-3.096-3.603-5.139-6.46-5.488-2.025-.246-3.808.206-4.908,1.241-1.048.987-1.645,2.638-1.775,4.906-.052.9-.055,2.048.388,2.958.382.785,1.22,1.362,2.242,1.545,1.026.187,2.008-.068,2.638-.668,1.091-1.04,1.603-2.488,1.664-4.697.019-.719.675-1.281,1.338-1.268.72.019,1.288.619,1.268,1.338-.05,1.834-.36,4.502-2.469,6.514-1.23,1.174-3.068,1.677-4.898,1.35-1.839-.331-3.382-1.441-4.128-2.971-.708-1.452-.717-3.034-.647-4.25.17-2.956,1.042-5.195,2.59-6.654,1.666-1.57,4.22-2.273,7.013-1.933,3.939.483,8.202,3.305,8.733,7.769.562,4.722-2.504,9.669-5.302,12.468-.255.255-.588.382-.922.382Z"/>
        </g>
        <circle class="cls-2" cx="84.603" cy="89.464" r="3.237"/>
        <circle class="cls-2" cx="64.577" cy="125.843" r="3.237"/>
      </g>
      <g>
        <g>
          <circle class="cls-1" cx="168.298" cy="96.784" r="8.615"/>
          <path d="M168.298,106.703c-5.469,0-9.917-4.45-9.917-9.919s4.448-9.917,9.917-9.917,9.917,4.448,9.917,9.917-4.448,9.919-9.917,9.919ZM168.298,89.473c-4.03,0-7.311,3.281-7.311,7.311s3.281,7.313,7.311,7.313,7.311-3.281,7.311-7.313-3.281-7.311-7.311-7.311Z"/>
        </g>
        <circle class="cls-2" cx="167.092" cy="94.754" r="3.237"/>
        <g>
          <path class="cls-1" d="M213.548,90.424l-3.251,26.55-38.858-16.03c-1.846-.762-2.939-2.681-2.651-4.657h0c.299-2.057,2.009-3.616,4.084-3.725l40.676-2.138h0Z"/>
          <path d="M210.296,118.277c-.168,0-.337-.032-.497-.098l-38.857-16.029c-2.404-.991-3.82-3.48-3.444-6.052.388-2.663,2.619-4.699,5.305-4.839l40.676-2.139c.393.008.76.132,1.021.414.263.282.388.664.342,1.048l-3.251,26.551c-.049.403-.284.762-.637.966-.202.119-.429.178-.658.178h0ZM212.064,91.807l-39.125,2.059c-1.449.074-2.651,1.171-2.861,2.608-.204,1.388.56,2.731,1.857,3.266l37.274,15.375,2.854-23.308h0Z"/>
        </g>
        <g>
          <g>
            <path class="cls-5" d="M182.702,113.628c5.78,10.088,17.062,17.323,28.661,16.527,14.466-.992,26.506-12.358,29.019-26.535,1.352-7.629-.732-14.236-3.471-21.264-3.252-8.344-13.019-13.089-21.524-14.623-11.883-2.142-25.627,2.126-33.922,11.072-7.982,8.608-4.103,25.505,1.236,34.823h.001Z"/>
            <path d="M209.649,131.517c-10.963,0-22.066-6.751-28.079-17.243-5.516-9.624-9.49-27.266-1.061-36.357,8.459-9.119,22.574-13.732,35.109-11.467,8.576,1.546,18.994,6.412,22.508,15.431,2.587,6.636,4.989,13.801,3.54,21.965-2.655,14.978-15.36,26.589-30.214,27.61-.601.04-1.201.062-1.804.062h.001ZM183.832,112.98c5.855,10.218,16.863,16.627,27.442,15.874,13.673-.938,25.375-11.647,27.824-25.462,1.333-7.506-.849-14.011-3.402-20.564-3.124-8.015-12.659-12.391-20.541-13.812-11.697-2.103-24.857,2.181-32.733,10.676-7.532,8.119-3.71,24.354,1.409,33.289h0Z"/>
          </g>
          <path d="M216.304,128.107c-5.148,0-10.254-.794-14.166-4.251-5.751-5.083-10.717-17.771-11.152-25.299-.204-3.523.32-6.551,1.553-9,2.515-4.987,7.566-7.387,12.449-9.707,2.218-1.053,4.51-2.141,6.483-3.446.601-.399,1.411-.233,1.806.367.399.601.233,1.409-.367,1.806-2.129,1.409-4.505,2.538-6.804,3.629-4.692,2.23-9.125,4.336-11.237,8.525-1.025,2.033-1.456,4.618-1.282,7.678.399,6.878,5.072,18.894,10.278,23.495,4.813,4.253,12.014,3.767,18.987,3.3l1.019-.068c.647-.066,1.339.497,1.386,1.216.047.717-.497,1.339-1.216,1.386l-1.014.068c-2.184.146-4.459.301-6.723.301h0Z"/>
          <g>
            <path class="cls-5" d="M179.882,84.622c-1.06-6.672-.154-14.234,4.428-19.194,4.149-4.491,11.593-4.49,16.941-1.529,3.135,1.736,5.899,4.551,6.568,8.071.665,3.499-.822,7.06-2.744,10.059-1.117,1.743-2.45,3.435-4.277,4.409-4.08,2.175-9.899-.634-10.733-5.183-.652-3.559.686-6.716,2.73-9.702"/>
            <path d="M197.694,88.488c-1.352,0-2.74-.314-4.047-.946-2.581-1.246-4.399-3.508-4.864-6.05-.828-4.516,1.28-8.255,2.935-10.675.405-.593,1.218-.747,1.812-.34.594.406.747,1.218.34,1.812-2.25,3.285-3.026,5.978-2.523,8.731.318,1.727,1.6,3.289,3.434,4.174,1.831.881,3.85.921,5.405.093,1.689-.902,2.914-2.591,3.79-3.962,2.199-3.429,3.06-6.494,2.561-9.113-.524-2.768-2.682-5.383-5.919-7.174-4.546-2.516-11.473-2.924-15.352,1.274-3.782,4.095-5.276,10.694-4.096,18.104.112.711-.371,1.377-1.084,1.492-.705.102-1.379-.374-1.492-1.084-1.305-8.202.429-15.596,4.758-20.282,4.779-5.173,13.109-4.784,18.531-1.786,3.915,2.167,6.547,5.436,7.218,8.967.626,3.296-.359,6.999-2.929,11.008-1.048,1.638-2.536,3.671-4.76,4.856-1.127.601-2.404.9-3.718.9h0Z"/>
          </g>
        </g>
      </g>
      <g>
        <g>
          <path class="cls-3" d="M147.035,118.11c.525,3.578-1.222,10.342-3.328,13.283-.698.975-1.455,1.931-2.421,2.642s-2.174,1.16-3.364,1.01c-1.92-.243-3.336-5.195-4.092-6.977-.755-1.781-1.057-3.736-1.883-5.486"/>
          <path d="M138.39,136.377c-.212,0-.422-.013-.63-.038-2.173-.278-3.398-3.13-4.665-6.549-.176-.477-.333-.898-.467-1.214-.378-.893-.645-1.806-.902-2.687-.286-.978-.558-1.901-.959-2.75-.306-.652-.028-1.428.624-1.736.645-.303,1.43-.028,1.736.624.486,1.031.798,2.099,1.101,3.128.248.849.482,1.649.802,2.404.146.344.316.802.509,1.324,1.14,3.073,1.999,4.711,2.557,4.868.745.104,1.626-.185,2.417-.768.84-.618,1.522-1.494,2.133-2.349,1.942-2.712,3.563-9.166,3.098-12.336-.104-.713.388-1.375,1.101-1.479.692-.102,1.375.386,1.479,1.101.569,3.881-1.195,10.929-3.559,14.231-.736,1.029-1.573,2.097-2.708,2.933-1.15.845-2.432,1.292-3.669,1.292h.002Z"/>
        </g>
        <g>
          <path class="cls-3" d="M105.44,118.11c-.525,3.578,1.222,10.342,3.328,13.283.698.975,1.455,1.931,2.421,2.642s2.174,1.16,3.364,1.01c1.92-.243,3.336-5.195,4.092-6.977s1.057-3.736,1.883-5.486"/>
          <path d="M114.087,136.377c-1.24,0-2.522-.448-3.67-1.292-1.132-.834-1.97-1.904-2.708-2.935-2.365-3.3-4.128-10.35-3.558-14.229.105-.715.777-1.197,1.479-1.101.713.104,1.205.768,1.101,1.479-.466,3.168,1.156,9.624,3.097,12.334.612.857,1.295,1.734,2.134,2.351.792.584,1.68.862,2.428.766.546-.155,1.406-1.793,2.543-4.864.193-.522.365-.983.511-1.328.32-.755.555-1.558.804-2.409.301-1.027.612-2.092,1.099-3.122.306-.649,1.084-.932,1.736-.624.65.308.93,1.084.622,1.736-.399.847-.668,1.768-.955,2.744-.259.883-.526,1.797-.906,2.693-.134.316-.289.736-.466,1.214-1.267,3.419-2.491,6.271-4.661,6.547-.209.028-.419.04-.631.04h0Z"/>
        </g>
        <g>
          <g>
            <path class="cls-3" d="M142.47,59.88c11.343,5.865,19.09,17.715,19.09,31.363,0,19.513-15.808,35.333-35.321,35.333-10.378,0-19.718-4.477-26.174-11.621,4.863,2.534,10.378,3.958,16.242,3.958,19.501,0,35.321-15.82,35.321-35.321,0-9.123-3.463-17.449-9.159-23.712h0Z"/>
            <path class="cls-4" d="M142.47,59.88c5.696,6.263,9.159,14.589,9.159,23.712,0,19.501-15.82,35.321-35.321,35.321-5.865,0-11.379-1.424-16.242-3.958-5.696-6.263-9.147-14.589-9.147-23.712,0-19.501,15.808-35.321,35.321-35.321,5.853,0,11.367,1.424,16.23,3.958h0Z"/>
          </g>
          <path d="M126.239,127.878c-10.328,0-20.22-4.391-27.142-12.048-6.114-6.725-9.483-15.46-9.483-24.588,0-20.195,16.43-36.625,36.625-36.625,5.941,0,11.605,1.382,16.834,4.106,12.207,6.313,19.789,18.773,19.789,32.518,0,20.201-16.428,36.635-36.624,36.635v.002ZM126.239,57.226c-18.757,0-34.016,15.261-34.016,34.016,0,8.478,3.128,16.589,8.807,22.837,6.43,7.114,15.618,11.192,25.209,11.192,18.757,0,34.018-15.265,34.018-34.029,0-12.767-7.046-24.34-18.384-30.203-.002,0-.002-.002-.004-.002-4.853-2.53-10.11-3.811-15.629-3.811h-.001Z"/>
        </g>
        <g>
          <circle cx="117.715" cy="83.589" r="3.278"/>
          <circle cx="134.76" cy="83.589" r="3.278"/>
        </g>
        <path d="M126.118,98.089c-2.9,0-5.799-.528-8.5-1.585-.671-.261-1.003-1.019-.74-1.689.261-.671,1.014-1.004,1.688-.739,4.817,1.884,10.341,1.878,15.159-.021.671-.263,1.428.066,1.691.736s-.066,1.426-.736,1.691c-2.721,1.07-5.641,1.606-8.562,1.606h0Z"/>
      </g>
    </g>
  </g>
</svg>