<?xml version="1.0" encoding="utf-8"?>
<!-- Generator: Adobe Illustrator 24.1.1, SVG Export Plug-In . SVG Version: 6.00 Build 0)  -->
<svg version="1.1" id="Layer_1" xmlns="http://www.w3.org/2000/svg" xmlns:xlink="http://www.w3.org/1999/xlink" x="0px" y="0px"
	 viewBox="0 0 226.71 330" style="enable-background:new 0 0 226.71 330;" xml:space="preserve">
<g>
	<path style="fill:#FFFFFF;" d="M71.21,73.7c1.85,0.1,3.75,0.45,5.76,1.03c1.65,0.47,3.26,1.19,4.79,1.96
		c4.92,2.48,12.73,12.05,8.05,17.68c-3.39,4.08-8.99-2.85-11.81-4.58c-6.33-3.87-12.43,3.41-15.46,8.51
		c-2.44,4.13-7.74,5.49-11.85,3.03c-4.11-2.45-5.51-7.76-3.11-11.9c2.98-5.14,7-9.86,12.2-12.85C63.63,74.36,67.29,73.48,71.21,73.7
		z"/>
	<path style="fill:#673101;" d="M62.47,92.42c-0.7-0.03-1.33,0.22-1.89,0.56c0.63-0.61,1.04-1.46,1.07-2.41
		c0.05-1.93-1.47-3.53-3.37-3.6c-0.89-0.02-1.69,0.32-2.32,0.86c0.53-0.59,0.89-1.35,0.91-2.19c0.05-1.93-1.46-3.54-3.38-3.59
		c-0.17-0.01-0.33,0.06-0.5,0.08c-3.08,3.44-4.98,6.58-5.41,7.31c-2.4,4.14-1.01,9.45,3.11,11.91c4.11,2.45,9.41,1.09,11.85-3.03
		c0.72-1.21,1.74-2.62,2.9-3.96C64.86,93.25,63.77,92.45,62.47,92.42"/>
	<path d="M70.05,73.67c0.38,0,0.77,0.01,1.16,0.03c1.85,0.1,3.75,0.45,5.76,1.03c1.65,0.47,3.26,1.19,4.79,1.96
		c4.92,2.48,12.73,12.05,8.05,17.68c-0.75,0.9-1.61,1.27-2.52,1.27c-3.21,0-7.09-4.5-9.29-5.84c-1.25-0.76-2.48-1.09-3.69-1.09
		c-3.38,0-6.52,2.59-8.94,5.54c0.02,0.03,0.05,0.06,0.07,0.1c-1.15,1.34-2.16,2.73-2.88,3.94c0,0.01-0.01,0.02-0.02,0.03
		c-1.61,2.74-4.49,4.26-7.44,4.26c-1.5,0-3.03-0.39-4.42-1.22c-2.57-1.53-4.08-4.18-4.26-6.97c-0.11-1.67,0.26-3.39,1.16-4.94
		c0.21-0.36,0.78-1.3,1.67-2.57c2.77-4.11,6.22-7.8,10.53-10.27C63.24,74.58,66.56,73.67,70.05,73.67 M70.05,69.67
		c-4.23,0-8.24,1.13-12.28,3.45c-4.44,2.55-8.43,6.42-11.85,11.51c-0.87,1.25-1.5,2.28-1.79,2.77c-1.29,2.22-1.87,4.72-1.71,7.24
		c0.28,4.19,2.6,7.99,6.2,10.14c1.96,1.17,4.19,1.79,6.46,1.79c4.45,0,8.62-2.38,10.88-6.22c0.62-1.04,1.5-2.24,2.49-3.39
		c0.21-0.25,0.39-0.52,0.54-0.81c1.94-2.19,3.85-3.44,5.3-3.44c0.52,0,1.05,0.16,1.6,0.5c0.4,0.25,1.21,0.93,1.91,1.53
		c2.57,2.18,5.77,4.9,9.47,4.9c2.19,0,4.12-0.94,5.6-2.71c2.1-2.53,2.82-5.73,2.08-9.25c-1.27-6.08-6.91-12.3-11.41-14.56
		c-2.08-1.05-3.83-1.76-5.49-2.23c-2.35-0.67-4.52-1.05-6.63-1.17C70.97,69.68,70.51,69.67,70.05,69.67L70.05,69.67z"/>
</g>
<g>
	<path style="fill:#FFFFFF;" d="M121.23,62.13c-1.61,0.9-3.17,2.05-4.72,3.45c-1.27,1.15-2.41,2.5-3.44,3.86
		c-3.33,4.38-6.15,16.41,0.53,19.42c4.83,2.18,6.83-6.51,8.61-9.3c3.99-6.26,12.67-2.4,17.63,0.86c4,2.64,9.36,1.53,11.98-2.48
		c2.62-4.01,1.54-9.39-2.43-12.06c-4.93-3.31-10.62-5.79-16.6-6.19C128.33,59.4,124.65,60.22,121.23,62.13z"/>
	<path style="fill:#673101;" d="M137.3,75.12c0.62-0.33,1.29-0.38,1.94-0.32c-0.84-0.27-1.58-0.85-2.02-1.7
		c-0.89-1.71-0.23-3.81,1.45-4.71c0.79-0.41,1.66-0.46,2.46-0.25c-0.73-0.3-1.39-0.82-1.78-1.57c-0.89-1.71-0.24-3.82,1.46-4.71
		c0.15-0.09,0.32-0.09,0.49-0.15c4.28,1.74,7.36,3.73,8.07,4.19c3.97,2.66,5.05,8.05,2.43,12.06c-2.61,4.01-7.98,5.11-11.98,2.48
		c-1.18-0.77-2.71-1.58-4.34-2.29C135.51,76.91,136.14,75.72,137.3,75.12"/>
	<path d="M131.02,59.64c0.57,0,1.16,0.02,1.76,0.06c4.96,0.33,9.68,2.13,13.97,4.61c1.36,0.75,2.28,1.35,2.63,1.58
		c1.49,1,2.57,2.38,3.21,3.93c1.06,2.58,0.87,5.62-0.77,8.13c-1.66,2.54-4.41,3.91-7.22,3.91c-1.63,0-3.29-0.46-4.76-1.44
		c-0.01,0-0.02-0.01-0.02-0.02c-1.17-0.77-2.7-1.57-4.32-2.27c0-0.04,0.01-0.08,0.02-0.12c-2.26-1.03-4.72-1.8-7-1.8
		c-2.48,0-4.75,0.9-6.3,3.34c-1.59,2.49-3.34,9.64-7.12,9.64c-0.46,0-0.96-0.11-1.49-0.35c-6.68-3.01-3.86-15.04-0.53-19.42
		c1.04-1.36,2.17-2.72,3.44-3.86c1.55-1.39,3.11-2.54,4.72-3.45C124.19,60.48,127.35,59.64,131.02,59.64 M131.02,55.64
		c-4.3,0-8.14,0.98-11.75,3c-1.84,1.03-3.62,2.33-5.44,3.96c-1.29,1.16-2.54,2.56-3.95,4.42c-3.05,4.01-5.39,12.07-3.86,18.09
		c0.89,3.49,2.94,6.05,5.93,7.4c1.03,0.46,2.08,0.7,3.13,0.7c5.39,0,7.83-5.58,9.44-9.28c0.37-0.85,0.79-1.81,1.05-2.21
		c0.49-0.77,1.19-1.49,2.93-1.49c1.26,0,2.82,0.38,4.56,1.09c0.25,0.19,0.54,0.36,0.84,0.49c1.39,0.6,2.71,1.29,3.72,1.95
		c0.04,0.03,0.09,0.06,0.13,0.08c1.96,1.3,4.37,2.02,6.85,2.02c4.28,0,8.23-2.14,10.57-5.73c2.3-3.52,2.72-7.94,1.12-11.83
		c-0.96-2.34-2.58-4.33-4.68-5.74c-0.51-0.33-1.52-0.98-2.91-1.75c-5.25-3.03-10.54-4.76-15.65-5.11
		C132.36,55.66,131.68,55.64,131.02,55.64L131.02,55.64z"/>
</g>
<g>
	<path style="fill:#FFFFFF;" d="M104.65,241.81v39.5c0,0-2.93,0.73-6.83,0.73s-6.83-0.73-6.83-0.73v-39.5
		c0-2.63,2.13-4.73,4.73-4.73C98.32,237.07,104.65,239.17,104.65,241.81z"/>
	<path style="fill-rule:evenodd;clip-rule:evenodd;fill:#009FF9;" d="M104.65,281.31v35.77c0,2.4-3.23,4.37-5.9,4.83l-1.17,0.13
		H86.22c-1.17,0-2.37,0.03-3.6,0.03c-3.73,0-7.6-0.37-10.2-3.37c-2.37-2.7-1.7-8.13-0.2-11.1c2.77-5.47,8-9.5,14-10.8
		c0,0,0.27-0.03,0.3-0.07c0.8-0.17,1.53-0.23,2.23-0.3c0.27-0.03,0.53-0.07,0.8-0.07c0.4-0.03,0.77-0.03,1.13-0.03h0.3v-15.03
		c0,0,2.93,0.73,6.83,0.73S104.65,281.31,104.65,281.31z"/>
	<path d="M95.72,233.07c-4.83,0-8.73,3.9-8.73,8.73v50.8c-0.4,0.07-0.8,0.13-1.2,0.2l-0.47,0.13c-7.1,1.53-13.37,6.33-16.67,12.87
		c-1.97,3.87-3.03,11.23,0.77,15.53c3.63,4.17,8.7,4.73,13.2,4.73h1.9c0.57-0.03,1.13-0.03,1.7-0.03h11.37c0.13,0,0.27,0,0.4-0.03
		l1.17-0.1c0.1,0,0.23-0.03,0.33-0.03c4.43-0.83,9.17-4.17,9.17-8.8v-75.27C108.65,235.27,98.45,233.07,95.72,233.07z
		 M104.65,317.07c0,2.4-3.23,4.37-5.9,4.83l-1.17,0.13H86.22c-1.17,0-2.37,0.03-3.6,0.03c-3.73,0-7.6-0.37-10.2-3.37
		c-2.37-2.7-1.7-8.13-0.2-11.1c2.77-5.47,8-9.5,14-10.8c0,0,0.27-0.03,0.3-0.07c0.8-0.17,1.53-0.23,2.23-0.3
		c0.27-0.03,0.53-0.07,0.8-0.07c0.4-0.03,0.77-0.03,1.13-0.03h0.3v-54.53c0-2.63,2.13-4.73,4.73-4.73c2.6,0,8.93,2.1,8.93,4.73
		V317.07z"/>
</g>
<g>
	<path style="fill:#FFFFFF;" d="M135.68,241.81v39.5c0,0-2.93,0.73-6.83,0.73c-3.9,0-6.83-0.73-6.83-0.73v-39.5
		c0-2.63,6.33-4.73,8.93-4.73C133.58,237.07,135.68,239.17,135.68,241.81z"/>
	<path style="fill-rule:evenodd;clip-rule:evenodd;fill:#009FF9;" d="M154.25,318.71c-2.6,3-6.47,3.37-10.2,3.37
		c-1.2,0-2.43-0.03-3.57-0.03h-11.4l-1.17-0.13c-2.63-0.47-5.9-2.43-5.9-4.83v-35.77c0,0,2.93,0.73,6.83,0.73
		c3.9,0,6.83-0.73,6.83-0.73v15.03h0.3c0.37,0,0.73,0,1.13,0.03c0.27,0,0.53,0.03,0.8,0.07c0.7,0.07,1.43,0.13,2.23,0.3
		c0.03,0.03,0.33,0.07,0.33,0.07c5.97,1.3,11.2,5.33,13.97,10.8C155.95,310.57,156.62,316.01,154.25,318.71z"/>
	<path d="M158.02,305.81c-3.3-6.53-9.57-11.33-16.7-12.9l-0.27-0.07c-0.47-0.07-0.93-0.17-1.37-0.23v-50.8
		c0-4.83-3.9-8.73-8.73-8.73c-2.73,0-12.93,2.2-12.93,8.73v75.27c0,4.63,4.73,7.97,9.17,8.8c0.13,0,0.23,0.03,0.33,0.03l1.17,0.1
		c0.13,0.03,0.27,0.03,0.4,0.03h11.4c0.53,0,1.1,0,1.67,0.03h1.9c4.5,0,9.57-0.57,13.23-4.73
		C161.05,317.04,159.98,309.67,158.02,305.81z M154.25,318.71c-2.6,3-6.47,3.37-10.2,3.37c-1.2,0-2.43-0.03-3.57-0.03h-11.4
		l-1.17-0.13c-2.63-0.47-5.9-2.43-5.9-4.83v-75.27c0-2.63,6.33-4.73,8.93-4.73c2.63,0,4.73,2.1,4.73,4.73v54.53h0.3
		c0.37,0,0.73,0,1.13,0.03c0.27,0,0.53,0.03,0.8,0.07c0.7,0.07,1.43,0.13,2.23,0.3c0.03,0.03,0.33,0.07,0.33,0.07
		c5.97,1.3,11.2,5.33,13.97,10.8C155.95,310.57,156.62,316.01,154.25,318.71z"/>
</g>
<g>
	<path style="fill:#FFFFFF;" d="M57.12,201.01c-2.67,2.07-5.07,4.37-7.23,6.87c-4.73-1.53-8.47-6.43-9.97-9.97
		c6.37-6.57,14.43-11.53,24.33-13.97c2.2-0.53,5.73-1.77,7.9-0.4C80.15,188.71,59.92,198.84,57.12,201.01z"/>
	<path style="fill:#0088C5;" d="M49.92,207.87c-0.6,0.7-1.17,1.4-1.73,2.1c-0.97,1.43-1.87,2.93-2.23,3.5
		c-0.07,0.1-0.1,0.17-0.13,0.2c-3.8,5.37-5,10.87-6.93,17.07c-0.33,1.13-0.77,2.3-1.33,3.37c-0.17,0.33-0.33,0.63-0.5,0.97
		c-0.4,0.67-0.87,1.27-1.43,1.8c-0.17,0.17-0.33,0.3-0.5,0.43c-0.83,0.63-1.83,1.03-2.97,1.03c-1,0-2.17-0.3-3.47-1
		c-0.63-0.33-1.3-0.8-1.97-1.33c-1.4-1.17-2.63-2.7-3.03-4.17c-1.83-6.9,2.27-13.87,5.33-19.4c1.6-2.9,3.4-5.67,5.37-8.27
		c0.17-0.23,0.9-1.17,1.77-2.27c0.3-0.37,0.6-0.73,0.9-1.1c0.13-0.2,0.3-0.37,0.47-0.57c0.47-0.53,0.9-1.07,1.27-1.47
		c0.27-0.3,0.5-0.53,0.7-0.7c0.17-0.13,0.3-0.23,0.37-0.2h0.03l0.03,0.03c1.5,3.53,5.23,8.43,9.97,9.97H49.92z"/>
	<path d="M39.48,198.07c0.17-0.13,0.3-0.2,0.37-0.2C39.78,197.84,39.65,197.94,39.48,198.07z"/>
	<path d="M74.32,180.21c-1.3-0.87-2.9-1.3-4.7-1.3c-2.03,0-3.93,0.53-5.5,0.93l-0.83,0.23c-9.73,2.4-18.33,7.23-25.57,14.33
		c-1.33,0.83-3.03,2.77-6.5,7.3c-2.07,2.73-3.97,5.67-5.7,8.77l-0.33,0.63c-3.2,5.73-7.53,13.53-5.37,21.73
		c0.77,2.93,3.07,5.17,4.37,6.23c0.83,0.7,1.73,1.33,2.63,1.8c1.83,0.97,3.6,1.47,5.33,1.47c4.87,0,8.4-3.5,10.57-10.43
		c0.33-1.03,0.63-2.07,0.93-3.1c1.43-4.77,2.67-8.9,5.43-12.83c0.1-0.17,0.37-0.57,0.7-1.13c0.43-0.67,1.03-1.6,1.63-2.53
		c2.5-3.13,5.23-5.87,8.17-8.13c0.3-0.23,1.47-0.97,2.5-1.6c8.33-5.07,15.83-10.1,15.9-16.07
		C78.02,185.04,77.55,182.31,74.32,180.21z M57.12,201.01c-2.63,2.07-5.03,4.37-7.2,6.87c-0.6,0.7-1.17,1.4-1.73,2.1
		c-0.97,1.43-1.87,2.93-2.23,3.5c-0.07,0.1-0.1,0.17-0.13,0.2c-3.8,5.37-5,10.87-6.93,17.07c-0.33,1.13-0.77,2.3-1.33,3.37
		c-0.13,0.33-0.33,0.67-0.5,0.97c-0.4,0.67-0.87,1.27-1.43,1.8c-0.13,0.13-0.3,0.3-0.5,0.43c-0.83,0.63-1.83,1.03-2.97,1.03
		c-1,0-2.17-0.3-3.47-1c-0.63-0.33-1.3-0.8-1.97-1.33c-1.4-1.17-2.63-2.7-3.03-4.17c-1.83-6.9,2.27-13.87,5.33-19.4
		c1.6-2.9,3.4-5.67,5.37-8.27c0.17-0.23,0.9-1.17,1.77-2.27c0.3-0.33,0.6-0.73,0.9-1.1c0.13-0.2,0.3-0.37,0.47-0.57
		c0.43-0.53,0.87-1.07,1.27-1.47c0.27-0.3,0.5-0.53,0.7-0.7c0.17-0.13,0.3-0.23,0.37-0.2h0.03l0.03,0.03
		c6.43-6.57,14.47-11.5,24.33-13.97c1.47-0.37,3.53-1.03,5.37-1.03c0.93,0,1.8,0.17,2.53,0.63
		C80.15,188.71,59.92,198.84,57.12,201.01z"/>
</g>
<g>
	<path style="fill:#FFFFFF;" d="M186.78,197.91c-1.53,3.53-5.27,8.43-10,9.97c-2.2-2.5-4.6-4.8-7.23-6.87
		c-2.77-2.17-23.03-12.3-15.03-17.47c2.17-1.37,5.7-0.13,7.9,0.4C172.28,186.37,180.35,191.31,186.78,197.91z"/>
	<path style="fill:#0088C5;" d="M202.98,231.84c-0.4,1.47-1.63,3-3.03,4.17c-0.67,0.53-1.33,1-1.97,1.33c-1.3,0.7-2.47,1-3.47,1
		c-1.17,0-2.13-0.4-3-1.03c-0.17-0.17-0.3-0.27-0.47-0.43c-0.3-0.3-0.6-0.63-0.87-0.97c-0.2-0.27-0.4-0.53-0.57-0.83
		c-0.17-0.33-0.33-0.63-0.5-0.97c-0.23-0.43-0.43-0.87-0.6-1.33c-0.27-0.67-0.53-1.37-0.73-2.03c-1.93-6.2-3.13-11.7-6.93-17.07
		c-0.03-0.03-0.07-0.1-0.13-0.2c-0.37-0.57-1.27-2.07-2.23-3.5c-0.57-0.7-1.13-1.4-1.73-2.1h0.03c4.73-1.53,8.47-6.43,10-9.97v-0.03
		h0.03c0.07-0.03,0.2,0.07,0.37,0.2c0.1,0.07,0.17,0.17,0.3,0.3c0.13,0.1,0.23,0.23,0.37,0.37c0.03,0,0.03,0.03,0.03,0.03
		c0.87,0.97,2.1,2.5,3.07,3.67c0.67,0.87,1.2,1.53,1.33,1.73c1.97,2.6,3.77,5.37,5.37,8.27
		C200.72,217.97,204.82,224.94,202.98,231.84z"/>
	<path d="M186.82,197.87c0.07,0,0.2,0.07,0.37,0.2C187.02,197.94,186.88,197.84,186.82,197.87z"/>
	<path d="M201.48,211.11l-0.33-0.63c-1.73-3.1-3.63-6.03-5.7-8.73c-3.47-4.57-5.17-6.5-6.5-7.33c-7.23-7.1-15.83-11.93-25.57-14.33
		l-0.83-0.23c-1.57-0.4-3.47-0.93-5.5-0.93c-1.8,0-3.37,0.43-4.7,1.3c-3.23,2.1-3.7,4.83-3.67,6.3c0.07,5.97,7.57,11,15.9,16.07
		c1.03,0.63,2.2,1.37,2.5,1.6c2.93,2.27,5.67,5,8.17,8.13c0.6,0.93,1.2,1.87,1.63,2.53c0.33,0.57,0.6,0.97,0.7,1.13
		c2.77,3.93,4,8.07,5.43,12.83c0.3,1.03,0.6,2.07,0.93,3.1c2.17,6.93,5.7,10.43,10.57,10.43c1.73,0,3.53-0.5,5.33-1.47
		c0.9-0.47,1.8-1.1,2.63-1.8c1.3-1.07,3.6-3.3,4.37-6.23C209.02,224.64,204.68,216.84,201.48,211.11z M202.98,231.84
		c-0.4,1.47-1.63,3-3.03,4.17c-0.67,0.53-1.33,1-1.97,1.33c-1.3,0.7-2.47,1-3.47,1c-1.17,0-2.13-0.4-3-1.03
		c-0.17-0.13-0.33-0.3-0.47-0.43c-0.33-0.3-0.6-0.63-0.87-0.97c-0.2-0.27-0.4-0.53-0.57-0.83c-0.17-0.3-0.37-0.63-0.5-0.97
		c-0.23-0.43-0.43-0.87-0.6-1.33c-0.3-0.67-0.53-1.37-0.73-2.03c-1.93-6.2-3.13-11.7-6.93-17.07c-0.03-0.03-0.07-0.1-0.13-0.2
		c-0.37-0.57-1.27-2.07-2.23-3.5c-0.57-0.7-1.13-1.4-1.73-2.1c-2.17-2.5-4.57-4.8-7.2-6.87c-2.77-2.17-23.03-12.3-15.03-17.47
		c0.73-0.47,1.6-0.63,2.53-0.63c1.83,0,3.9,0.67,5.37,1.03c9.87,2.47,17.9,7.4,24.33,13.97c0.03,0,0.03,0,0.03,0v-0.03h0.03
		c0.07-0.03,0.2,0.07,0.37,0.2c0.1,0.07,0.17,0.17,0.3,0.3l0.37,0.37c0.03,0,0.03,0.03,0.03,0.03c0.9,0.97,2.13,2.47,3.07,3.67
		c0.67,0.87,1.2,1.53,1.33,1.73c1.97,2.6,3.77,5.37,5.37,8.27C200.72,217.97,204.82,224.94,202.98,231.84z"/>
</g>
<g>
	<path style="fill-rule:evenodd;clip-rule:evenodd;fill:#009FF9;" d="M169.78,211.57c0.5,9.97-1.93,24.6-8.6,33.17
		c-7.83,10.1-22.1,16.7-39.17,18.1c-2.07,0.17-4.27,0.27-6.43,0.27h-4.5c-2.17,0-4.37-0.1-6.4-0.27c-17.1-1.4-31.37-8-39.2-18.1
		c-6.63-8.57-9.1-23.2-8.6-33.17c0.3-5.57,1.53-11.23,2.73-16.67c0.6-2.8,1.2-5.6,1.7-8.4c0.57-3.1,0.2-8.9,0.2-9.2
		c-0.4-4.37-1.7-8.4-2.9-11.8c-4.8-13.4-5.63-25.93-2.57-39.43c2.77-12.2,8.53-22.57,15.87-28.4c12.2-9.73,26.37-15.33,38.93-15.33
		h5c12.53,0,26.7,5.6,38.9,15.33c7.33,5.83,13.1,16.2,15.87,28.4c3.07,13.5,2.27,26.03-2.53,39.43c-1.23,3.4-2.53,7.43-2.93,11.87
		c0,0.13-0.1,1.97-0.1,4.13c0,1.7,0.07,3.63,0.3,5c0.5,2.83,1.1,5.6,1.7,8.4C168.24,200.37,169.48,206,169.78,211.57z"/>
	<path d="M170.98,194.07c-0.6-2.77-1.2-5.5-1.7-8.23c-0.37-2.2-0.23-6.7-0.13-8.17c0.37-3.9,1.57-7.67,2.7-10.83
		c4.97-13.93,5.87-27.57,2.67-41.67c-2.97-13.07-9.23-24.23-17.27-30.63c-12.9-10.3-28-16.2-41.4-16.2h-5.03
		c-13.4,0-28.5,5.9-41.4,16.2c-8,6.4-14.3,17.57-17.27,30.63c-3.2,14.1-2.3,27.73,2.7,41.67c1.1,3.17,2.33,6.93,2.67,10.77
		c0.1,1.53,0.27,6.03-0.13,8.23c-0.5,2.73-1.1,5.47-1.67,8.2c-1.23,5.63-2.5,11.43-2.8,17.33c-0.6,11.03,2.1,26.37,9.4,35.8
		c8.53,11,23.83,18.17,42.03,19.67c2.13,0.17,4.47,0.27,6.73,0.27h4.5c2.27,0,4.6-0.1,6.73-0.27c18.2-1.5,33.53-8.67,42.03-19.67
		c7.3-9.43,10-24.77,9.43-35.8C173.44,205.47,172.18,199.67,170.98,194.07z M115.58,263.1h-4.5c-2.17,0-4.37-0.1-6.4-0.27
		c-17.1-1.4-31.37-8-39.2-18.1c-6.63-8.57-9.1-23.2-8.6-33.17c0.3-5.57,1.53-11.23,2.73-16.67c0.6-2.8,1.2-5.6,1.7-8.4
		c0.57-3.1,0.2-8.9,0.2-9.2c-0.4-4.37-1.7-8.4-2.9-11.8c-4.8-13.4-5.63-25.93-2.57-39.43c2.77-12.2,8.53-22.57,15.87-28.4
		c12.2-9.73,26.37-15.33,38.93-15.33h5c12.53,0,26.7,5.6,38.9,15.33c7.33,5.83,13.1,16.2,15.87,28.4
		c3.07,13.5,2.27,26.03-2.53,39.43c-1.23,3.4-2.53,7.43-2.93,11.87c0,0.13-0.1,1.97-0.1,4.13c0,1.7,0.07,3.63,0.3,5
		c0.5,2.83,1.1,5.6,1.7,8.4c1.2,5.47,2.43,11.1,2.73,16.67c0.5,9.97-1.93,24.6-8.6,33.17c-7.83,10.1-22.1,16.7-39.17,18.1
		C119.94,263,117.74,263.1,115.58,263.1z"/>
	<path style="fill-rule:evenodd;clip-rule:evenodd;fill:#FFFFFF;" d="M108.59,89.5c5.41-0.52,10.87-0.31,16.01,0.6
		c8.39,1.48,18.51,4.64,24.32,11.01c2.57,2.82,4.62,6.08,6.18,9.55c1.17,2.62,1.4,6.64,3.59,8.62c4.46,4.02,5.85,6.54,8.15,12.3
		c2.17,5.42,3.07,11.54,1.9,17.3c-3.06,15-16.72,24.19-30.34,27.79c-1.88,0.5-3.81,1-5.71,1.5c-8.85,2.33-17.67,4.2-26.65,5.98
		c-13.82,2.74-30.13,0.48-39.46-11.65c-3.58-4.66-5.46-10.56-5.89-16.38c-0.46-6.19-0.31-9.06,1.93-14.63
		c1.11-2.74-0.46-6.45-0.56-9.33c-0.13-3.81,0.29-7.64,1.36-11.3c2.42-8.27,8.07-15.08,14.96-20.09c2.79-2.03,5.78-3.79,8.88-5.3
		C93.34,92.51,101.86,90.15,108.59,89.5z"/>
	<path style="fill-rule:evenodd;clip-rule:evenodd;fill:#FDBDB8;" d="M93.53,150.75c1.85,7.99-3.09,15.96-11.02,17.79
		c-7.93,1.83-15.86-3.16-17.7-11.15c-1.85-7.98,3.09-15.95,11.01-17.78C83.75,137.77,91.68,142.76,93.53,150.75"/>
	<path style="fill-rule:evenodd;clip-rule:evenodd;fill:#FDBDB8;" d="M163.71,134.52c1.85,7.99-3.09,15.96-11.02,17.79
		c-7.93,1.83-15.85-3.16-17.7-11.15c-1.85-7.98,3.08-15.95,11.01-17.78C153.94,121.55,161.87,126.54,163.71,134.52"/>
</g>
<g>
	<path style="fill-rule:evenodd;clip-rule:evenodd;" d="M115.64,140.74c0.24,1.06-0.67,2.17-2.07,2.49
		c-1.4,0.32-2.72-0.27-2.96-1.33c-0.24-1.05,0.68-2.17,2.08-2.5S115.4,139.68,115.64,140.74"/>
	<g>
		<path style="fill-rule:evenodd;clip-rule:evenodd;fill:#D54848;" d="M118.88,166.17c-2,0.43-4.13-1.33-4.47-2.73l-1.93-8.3
			c0.07-0.07,0.13-0.1,0.2-0.17c0.2,0.13,0.37,0.17,0.5,0.13l5.8-1.37c0.13-0.03,0.3-0.17,0.47-0.37c0.1,0.03,0.2,0.07,0.3,0.07
			l1.93,8.3C122.02,163.17,120.88,165.71,118.88,166.17z"/>
		<path style="fill-rule:evenodd;clip-rule:evenodd;fill:#FFFFFF;" d="M119.45,153.37c-0.17,0.2-0.33,0.33-0.47,0.37l-5.8,1.37
			c-0.13,0.03-0.3,0-0.5-0.13c0.3-0.23,0.53-0.47,0.77-0.7c0.87-1.03,1.33-2.33,1.73-4.03c1.1,1.37,2.13,2.33,3.37,2.83
			C118.85,153.21,119.12,153.31,119.45,153.37z"/>
		<path d="M125.58,152.51c0.33-0.43,0.43-1,0.3-1.57c-0.17-0.73-0.9-1.17-1.6-1c-0.43,0.1-0.8,0.4-0.93,0.83c-0.13,0-0.3,0-0.4,0.03
			l-0.73,0.07c-2.93,0.33-3.67-0.5-6.67-4.57c-0.07-0.07-0.1-0.1-0.17-0.13c-0.07-0.07-0.13-0.17-0.2-0.2
			c-0.1-0.07-0.2-0.1-0.3-0.13c-0.07,0-0.1-0.03-0.17-0.07h-0.37c-0.07,0.03-0.13,0-0.17,0.03c-0.07,0-0.13,0.03-0.2,0.07
			c-0.1,0.03-0.2,0.07-0.3,0.13c-0.07,0.07-0.1,0.13-0.17,0.17c-0.07,0.07-0.13,0.13-0.17,0.2c-0.07,0.1-0.1,0.2-0.13,0.3
			c0,0.07-0.07,0.1-0.07,0.17c-0.93,4.97-1.2,6.07-4,7.03l-0.67,0.27c-0.13,0.03-0.27,0.1-0.37,0.13c-0.33-0.3-0.77-0.43-1.23-0.33
			c-0.7,0.17-1.17,0.9-1,1.6c0.13,0.6,0.47,1.07,0.97,1.3c0.3,0.17,0.6,0.23,0.9,0.23c0.57,0,1.17-0.23,1.7-0.47l0.57-0.2
			c0.03,0,0.03,0,0.03-0.03l1.77,7.67c0.57,2.47,3.4,4.87,6.43,4.87c0.4,0,0.8-0.03,1.23-0.13c3.43-0.8,5.43-4.83,4.8-7.63
			l-1.77-7.63l0.63-0.07C124.02,153.37,125.02,153.31,125.58,152.51z M118.88,166.17c-2,0.43-4.13-1.33-4.47-2.73l-1.93-8.3
			c0.07-0.07,0.13-0.1,0.2-0.17c0.3-0.23,0.53-0.47,0.77-0.7c0.87-1.03,1.33-2.33,1.73-4.03c1.1,1.37,2.13,2.33,3.37,2.83
			c0.3,0.13,0.57,0.23,0.9,0.3c0.1,0.03,0.2,0.07,0.3,0.07l1.93,8.3C122.02,163.17,120.88,165.71,118.88,166.17z"/>
	</g>
	<g>
		<path d="M130.45,134.85c-0.02,0-0.03,0-0.05,0l-7.51-0.3c-0.56-0.02-1.04-0.42-1.17-0.97c-0.13-0.55,0.13-1.11,0.62-1.38
			l6.61-3.57c0.61-0.32,1.37-0.1,1.69,0.51c0.33,0.61,0.1,1.37-0.51,1.69l-2.6,1.4l2.94,0.12c0.69,0.03,1.23,0.61,1.2,1.3
			C131.67,134.32,131.12,134.85,130.45,134.85z"/>
	</g>
	<g>
		<path d="M93.49,143.39c-0.45,0-0.88-0.24-1.1-0.66c-0.33-0.61-0.1-1.37,0.51-1.69l2.59-1.4l-2.95-0.12
			c-0.69-0.03-1.23-0.61-1.2-1.3c0.03-0.69,0.58-1.24,1.3-1.2l7.51,0.3c0.56,0.02,1.04,0.42,1.17,0.97
			c0.13,0.55-0.13,1.11-0.63,1.38l-6.62,3.56C93.89,143.35,93.69,143.39,93.49,143.39z"/>
	</g>
</g>
<g>
	<path style="fill-rule:evenodd;clip-rule:evenodd;fill:#5429A8;" d="M176.57,42.61l-0.3-14.23l-11.1,8.9l-13.63-4.1l5.03,13.3
		l-8.13,11.7l14.23-0.67l8.63,11.33l3.73-13.73l13.47-4.7L176.57,42.61z M164.27,54.11l-9.23,0.43l5.27-7.6l-3.27-8.63l8.83,2.67
		l7.23-5.8l0.2,9.27l7.7,5.07l-8.7,3.03l-2.43,8.9L164.27,54.11z"/>
	<polygon style="fill-rule:evenodd;clip-rule:evenodd;fill:#AE7BFF;" points="181,49.51 172.3,52.54 169.87,61.44 164.27,54.11 
		155.03,54.54 160.3,46.94 157.03,38.31 165.87,40.97 173.1,35.17 173.3,44.44 	"/>
</g>
<g>
	<polygon style="fill-rule:evenodd;clip-rule:evenodd;fill:#E8B21C;" points="86.42,27.8 89.45,33.73 82.92,32.53 78.22,37.23 
		77.35,30.67 71.38,27.63 77.38,24.77 78.42,18.2 83.02,23 89.58,21.97 	"/>
	<path style="fill:#E5861F;" d="M95.75,17.6l-11.53,1.83L76.18,11l-1.8,11.53l-10.5,5.03l10.37,5.27l1.57,11.57l8.23-8.27l11.47,2.1
		l-5.33-10.37L95.75,17.6z M78.22,37.23l-0.87-6.57l-5.97-3.03l6-2.87l1.03-6.57l4.6,4.8l6.57-1.03l-3.17,5.83l3.03,5.93l-6.53-1.2
		L78.22,37.23z"/>
</g>
<g>
	<path style="fill-rule:evenodd;clip-rule:evenodd;fill:#E8AE1C;" d="M48.35,48.42c-4.17,0-7.5,3.37-7.5,7.5
		c0,4.13,3.33,7.5,7.5,7.5c4.13,0,7.5-3.37,7.5-7.5C55.85,51.78,52.48,48.42,48.35,48.42z M48.35,60.08c-2.3,0-4.17-1.87-4.17-4.17
		c0-2.3,1.87-4.17,4.17-4.17c2.27,0,4.17,1.87,4.17,4.17C52.52,58.22,50.62,60.08,48.35,60.08z"/>
	<circle style="fill-rule:evenodd;clip-rule:evenodd;fill:#F2D211;" cx="48.35" cy="55.92" r="4.17"/>
</g>
</svg>
