<?xml version="1.0" encoding="utf-8"?>
<!-- Generator: Adobe Illustrator 26.5.0, SVG Export Plug-In . SVG Version: 6.00 Build 0)  -->
<svg version="1.1" id="레이어_5" xmlns="http://www.w3.org/2000/svg" xmlns:xlink="http://www.w3.org/1999/xlink" x="0px"
	 y="0px" viewBox="0 0 390 390" style="enable-background:new 0 0 390 390;" xml:space="preserve">
<g>
	<path style="fill:#704A1C;" d="M149.1,339.9c0,0.3-0.3,0.5-0.5,0.5s-20.1,2.1-24.6,15.6c-1.6,5-1.9,11.1,1.9,15.3
		c4.8,5.8,15.9,5.6,22.7,6.1c5.8,0.5,11.6,0.3,17.2-0.8c3.2-0.5,6.6-1.3,9.3-2.9c6.1-3.4,5-10.8,5.3-16.9c0-1.1,0.5-15.3,0.8-15.3
		C181.4,341.4,149.1,339.9,149.1,339.9z"/>
	<path d="M154.4,379.2c-2,0-4-0.1-6-0.3c-0.9-0.1-1.9-0.1-3-0.2c-6.9-0.4-16.2-0.9-20.8-6.4c-3.4-3.9-4.2-10.1-2.1-16.7
		c4.4-13.1,21.7-16.1,25.4-16.6c0.1-0.1,0.1-0.1,0.2-0.2c0.3-0.3,0.7-0.4,1.1-0.4l30.6,1.5c0.4,0,0.8,0,1.1,0.1c0.1,0,0.1,0,0.2,0
		l0,0c1,0.1,1.5,0.5,1.5,1.5c0,0.2,0,0.3-0.1,0.5c-0.2,1.7-0.7,13.7-0.7,14.8c0,1-0.1,2-0.1,3c-0.1,5.6-0.1,12-6,15.3
		c-3,1.8-6.8,2.6-9.7,3.1C162.3,378.8,158.4,379.2,154.4,379.2z M149.9,341.4c-0.4,0.3-0.8,0.5-1.3,0.5c-0.1,0-19,2-23.2,14.6
		c-0.8,2.7-2.4,9.4,1.6,13.9c3.7,4.5,12.3,5,18.6,5.4c1.1,0.1,2.1,0.1,3.1,0.2c5.7,0.5,11.4,0.3,16.8-0.8c2.7-0.5,6.2-1.2,8.8-2.7
		c4.4-2.5,4.5-7.5,4.5-12.7c0-1,0-2,0.1-3c0-0.5,0.1-4.4,0.3-8.1c0.1-1.9,0.2-3.7,0.3-5.1c0-0.3,0-0.5,0-0.7
		C174.5,342.6,159.2,341.9,149.9,341.4z M181.6,342.9c-0.1,0-0.3,0.1-0.5,0.1C181.3,342.9,181.4,342.9,181.6,342.9z M148.6,338.9
		c-0.1,0-0.1,0-0.2,0C148.5,338.9,148.6,338.9,148.6,338.9z"/>
</g>
<g>
	<path d="M181.1,346.7c0-3.2,4.8-57.7,5.3-65.6l-27.5-6.1l-9.3,63.5l-0.3,1.3c0,0,4.5,14.3,31.7,8.7v-1.8H181.1z"/>
	<path d="M169.5,351.4c-17.8,0-21.3-10.5-21.5-11.1c-0.1-0.2-0.1-0.5,0-0.7l0.3-1.3l9.2-63.4c0.1-0.4,0.3-0.8,0.6-1s0.8-0.3,1.2-0.2
		l27.5,6.1c0.7,0.2,1.2,0.8,1.2,1.6c-0.2,3.3-1.2,14.9-2.2,27.1c-1.4,16.3-3.1,36.6-3.1,38.3v1.9c0,0.7-0.5,1.3-1.2,1.5
		C176.9,351,172.9,351.4,169.5,351.4z M181.1,348.6L181.1,348.6L181.1,348.6z M150.9,339.7c0.8,2,6.2,11.8,28.7,7.6v-0.6
		c0-1.9,1.6-20.6,3.1-38.6c0.9-11,1.8-21.4,2.1-25.8l-24.7-5.5l-9,61.9L150.9,339.7z"/>
</g>
<g>
	<g>
		<path style="fill:#704A1C;" d="M212.1,341.4c0.3,0,0.8,14.3,0.8,15.3c0.3,6.1-0.8,13.5,5.3,16.9c2.9,1.6,6.1,2.4,9.3,2.9
			c5.8,1.1,11.6,1.1,17.2,0.8c6.9-0.5,18-0.5,22.7-6.1c3.7-4.2,3.4-10.3,1.9-15.3c-4.2-13.5-24.3-15.6-24.6-15.6s-0.5-0.3-0.5-0.5
			C244.3,339.9,212.1,341.4,212.1,341.4z"/>
		<path d="M239,379.1c-3.7,0-7.8-0.2-11.9-1c-2.7-0.5-6.3-1.2-9.7-3.1c-5.9-3.3-6-9.7-6-15.3c0-1,0-2-0.1-2.9
			c0-1.2-0.5-13.2-0.7-14.9c-0.1-0.1-0.1-0.3-0.1-0.5c0-0.8,0.6-1.5,1.4-1.5c10.7-0.5,31.1-1.5,31.9-1.6h0.1c0.5,0,0.9,0.2,1.2,0.6
			c3.7,0.5,21.2,3.4,25.4,16.6c2.1,6.7,1.3,12.8-2.2,16.8c-4.6,5.4-14.2,6-21.2,6.4c-0.9,0.1-1.8,0.1-2.6,0.2
			C243,379,241,379.1,239,379.1z M213.7,342.9c0,0.2,0,0.5,0,0.7c0.1,1.4,0.2,3.2,0.3,5.1c0.2,3.7,0.3,7.6,0.3,8.1
			c0,0.9,0,1.9,0.1,2.9c0,5.3,0.1,10.2,4.5,12.7c2.3,1.3,5,2.1,8.8,2.7c6.1,1.1,12.2,1,16.9,0.8c0.8-0.1,1.6-0.1,2.6-0.2
			c6.5-0.4,15.3-1,19.1-5.4c3.9-4.5,2.4-11.2,1.6-13.9c-3.9-12.5-23.1-14.5-23.3-14.6l0,0c-0.4,0-0.9-0.2-1.2-0.5
			c-0.2,0-0.3,0-0.5,0L213.7,342.9z M211.6,342.9c0.1,0.1,0.3,0.1,0.5,0.1C211.9,342.9,211.7,342.9,211.6,342.9z M244.6,338.9
			c0,0,0.1,0,0.2,0C244.7,338.9,244.7,338.9,244.6,338.9z"/>
	</g>
	<g>
		<path d="M212.3,346.7c0-3.2-4.8-57.7-5.3-65.6l27.5-6.1l9.3,63.5l0.3,1.3c0,0-4.5,14.3-31.7,8.7v-1.8H212.3z"/>
		<path d="M224,351.4c-3.4,0-7.4-0.4-12-1.3c-0.7-0.1-1.2-0.8-1.2-1.5v-1.9c0-1.8-1.7-22.1-3.1-38.4c-1-12.2-2-23.8-2.2-27.1
			c0-0.7,0.4-1.4,1.2-1.6l27.5-6.1c0.4-0.1,0.8,0,1.2,0.2c0.3,0.2,0.6,0.6,0.6,1l9.3,63.5l0.2,1.2c0,0.2,0,0.5,0,0.7
			C245.3,340.8,241.8,351.4,224,351.4z M213.8,347.3c22.3,4.2,27.8-5.7,28.7-7.6l-0.2-0.9l-9-62l-24.7,5.5
			c0.3,4.4,1.2,14.8,2.1,25.8c1.5,18,3.1,36.7,3.1,38.6L213.8,347.3L213.8,347.3z"/>
	</g>
</g>
<g>
	<g>
		<path style="fill:#2C4F9E;" d="M198.3,139.4c-13.8,0-26.7,1.9-26.7,1.9c-0.3,0-23.8,7.7-27.2,31.5c-2.1,15.6-4.8,24.3-7.4,33.3
			c-1.6,5.3-3.2,11.1-5,18.5c-2.9,12.7-0.8,33.1,10.8,47.9c11.1,14,28.8,21.2,52.1,21.2s41-7.1,52.1-21.2
			c11.6-14.8,14-35.2,10.8-47.9c-1.9-7.4-3.2-12.4-4.8-17.5c-2.4-8.2-4.8-16.1-7.9-34.4c-3.4-23.5-26.4-31.5-26.7-31.5
			C212.3,139.9,205.2,139.4,198.3,139.4z"/>
		<path d="M194.9,295.1c-23.9,0-41.9-7.3-53.3-21.7c-11.9-15.2-14.1-36.2-11.1-49.2c1.8-7.3,3.4-13.2,5.1-18.6l0.2-0.8
			c2.6-8.9,5.1-17.3,7.1-32.3c3.5-23.9,26.1-32,28.5-32.7l0,0c0.1,0,13.2-1.9,26.9-1.9c7.7,0,14.7,0.7,20.4,1.9l0,0
			c3.2,0.7,24.6,10.1,27.9,32.7c3,17.5,5.4,25.6,7.6,33.3l0.2,0.8c1.6,5.1,2.9,10.1,4.8,17.5c3.2,12.8,1.1,33.6-11.1,49.2
			C236.7,287.8,218.8,295.1,194.9,295.1z M171.9,142.7c-1.1,0.4-22.8,8-26.1,30.2c-2.1,15.2-4.7,24.1-7.2,32.7l-0.2,0.8
			c-1.6,5.4-3.2,11.3-5,18.5c-2.8,12.3-0.7,32.2,10.6,46.6c10.8,13.7,28,20.6,50.9,20.6c23,0,40.1-6.9,50.9-20.6
			c11.1-14.1,13.7-34.1,10.6-46.6c-1.8-7.4-3.1-12.3-4.7-17.4l-0.3-0.9c-2.3-7.9-4.6-16-7.7-33.7c-3.2-22.2-24.8-30-25.6-30.3
			c-5.5-1.2-12.3-1.8-19.8-1.8C185.4,140.9,173,142.6,171.9,142.7z"/>
	</g>
	<g>
		<path d="M132.7,251.8c0,0,29.1,11.4,65.1,10c0,0,25.1-1.1,36.8-4.2c0,0,21.2-4.8,22.7-5.8c0,0-5,22-21.4,31.5
			c0,0-14.5,11.4-40.7,10.8c0,0-25.4,0.5-40.7-10.6C154.1,283.3,137.2,272.9,132.7,251.8z"/>
		<path d="M196.9,295.6c-0.6,0-1.2,0-1.8,0c-1,0-26,0.4-41.6-10.9l-0.2-0.1c-5.3-3.6-18.1-14.1-22.1-32.5l-0.6-2.7l2.6,1
			c0.3,0.1,29.2,11.2,64.5,9.9c0.2,0,25.1-1.1,36.4-4.2c8.5-1.9,21-4.9,22.3-5.6l3.1-2.1l-0.9,3.7c-0.2,0.9-5.3,22.6-22,32.4
			C235.4,285.5,221.5,295.6,196.9,295.6z M195.1,292.6c25.3,0.5,39.7-10.4,39.8-10.5l0.2-0.1c12.3-7.1,18-21.8,19.9-27.8
			c-5.2,1.5-15.2,3.8-20.2,4.9c-11.6,3.2-36,4.2-37,4.3c-29.7,1.1-55-6.5-63-9.2c4.4,16.2,16.4,25.4,20.2,28
			c0.1,0.1,0.2,0.1,0.3,0.2l0,0C170,293,194.8,292.6,195.1,292.6z"/>
	</g>
</g>
<g>
	<g>
		<path style="fill:#704A1C;" d="M258.6,251.3c-74.3,24.1-127.5,0-127.5,0c-1.9-4.2,0-17.2,0-17.2s53.2,24.3,127.5,0
			C258.6,234.1,259.4,251,258.6,251.3z"/>
		<path d="M192.3,263.4c-9.8,0-18.4-0.7-25.5-1.7c-22.5-3-35.7-8.9-36.3-9.1c-0.3-0.2-0.6-0.4-0.8-0.8c-2-4.5-0.3-16.6-0.1-18
			c0.1-0.5,0.4-0.9,0.8-1.1c0.4-0.2,0.9-0.2,1.3,0c0.5,0.2,53.5,23.8,126.4-0.1c0.4-0.1,0.9-0.1,1.3,0.2s0.6,0.7,0.6,1.2
			c0.8,18.1,0.2,18.3-1,18.7l0,0C233.7,260.9,210.9,263.4,192.3,263.4z M132.3,250.1c5.9,2.4,56.6,21.8,125.1-0.1
			c0.2-2,0.1-8.1-0.2-14c-24,7.6-45.9,10.2-64.4,10.2c-32,0-54.1-7.6-60.4-10.1C131.9,240.3,131.4,247.1,132.3,250.1z M258.6,251.3
			L258.6,251.3L258.6,251.3z"/>
	</g>
	<g>
		<path style="fill:#8A8A8A;" d="M202.5,243.6h-16.1c-1.9,0-3.7,1.6-3.7,3.7v9.8c0,1.9,1.6,3.7,3.7,3.7h16.1c1.9,0,3.7-1.6,3.7-3.7
			v-9.8C206,245.2,204.4,243.6,202.5,243.6z M201,254.4c0,1.1-0.8,1.6-1.9,1.6h-9.3c-1.1,0-1.9-0.8-1.9-1.6v-4.5
			c0-1.1,0.8-1.6,1.9-1.6h9.3c1.1,0,1.9,0.8,1.9,1.6V254.4z"/>
		<path d="M202.5,262.4h-16.1c-2.9,0-5.3-2.4-5.3-5.3v-9.8c0-2.9,2.4-5.3,5.3-5.3h16.1c2.9,0,5.3,2.4,5.3,5.3v9.8
			C207.6,260,205.2,262.4,202.5,262.4z M186.1,245.2c-1.1,0-2.1,0.8-2.1,2.1v9.8c0,1.1,0.8,2.1,2.1,2.1h16.1c1.1,0,2.1-0.8,2.1-2.1
			v-9.8c0-1.1-0.8-2.1-2.1-2.1L186.1,245.2L186.1,245.2z M198.8,257.9h-9.3c-1.9,0-3.4-1.6-3.4-3.2v-4.5c0-1.9,1.6-3.2,3.4-3.2h9.3
			c1.9,0,3.4,1.6,3.4,3.2v4.5C202.5,256.3,201,257.9,198.8,257.9z M189.8,249.9c-0.3,0-0.3,0-0.3,0.3v4.5h0.3h9.3
			c0.3,0,0.3,0,0.3-0.3v-4.5h-0.3H189.8z"/>
	</g>
	<g>
		<path style="fill:#8A8A8A;" d="M207.8,254.2h-8.2c-1.1,0-1.9-0.8-1.9-1.9l0,0c0-1.1,0.8-1.9,1.9-1.9h8.2c1.1,0,1.9,0.8,1.9,1.9
			l0,0C209.7,253.4,208.9,254.2,207.8,254.2z"/>
		<path d="M207.8,255.8h-8.2c-1.9,0-3.4-1.6-3.4-3.4s1.6-3.4,3.4-3.4h8.2c1.9,0,3.4,1.6,3.4,3.4
			C211.3,254.2,209.7,255.8,207.8,255.8z M199.6,251.8c-0.3,0-0.3,0.3-0.3,0.3c0,0.3,0.3,0.3,0.3,0.3h8.2c0.3,0,0.3-0.3,0.3-0.3
			c0-0.3-0.3-0.3-0.3-0.3H199.6z"/>
	</g>
</g>
<g>
	<path d="M191.2,203.4c0.3,0.3,0.5,0.5,0.8,1.1c0,0.5,0,0.8,0,1.3c-2.1,7.1-4.5,14-7.1,20.9c-0.3,0.5-0.5,1.1-0.3,1.6
		c0,0.5,0.3,1.1,0.5,1.6c2.4,4.2,5,8.2,7.9,12.2c0.3,0.5,0.5,0.8,1.1,1.1c3.7,1.9,7.7-6.6,9-9c1.6-2.6,2.9-5,2.1-8.5
		c-0.8-3.2-2.4-5.8-3.4-8.7c-1.3-3.4-3.2-7.9-3.2-11.6c0-0.5,0.3-1.1,0.8-1.6c1.3-1.6,2.9-3.2,3.7-5c0.8-1.9,1.6-4.2,0.8-6.1
		c-1.9-5-8.7-5-11.9-1.6c-1.3,1.3-2.6,3.2-3.7,4.8C185.9,198.6,188.8,201.3,191.2,203.4z"/>
	<g>
		<path style="fill:#2C4F9E;" d="M165.8,178c0,8.5,7.1,17.2,14,21.2c2.6,1.6,3.2,2.1,6.1,0.8c3.4-1.6,6.9-5,9.5-7.7
			c2.9,2.1,5.6,7.9,9,9c4.8,1.3,11.6-6.6,14.3-9.5c4-4.5,6.6-10,4.8-16.1c-4.2-12.2-18-17.2-29.9-16.7c-8.7,0.5-19.8,4.2-25.1,11.4
			C166.6,172.7,165.8,175.4,165.8,178z"/>
		<path d="M205.4,203.1c-0.5,0-1.1,0-1.6-0.3c-2.6-0.8-4.8-3.4-6.6-5.8c-0.8-0.8-1.3-1.9-1.9-2.4c-2.4,2.4-5.6,5.3-8.7,6.9
			c-3.2,1.6-4.5,1.1-7.4-0.8c-7.7-4.5-15.1-13.8-14.8-22.7l0,0c0-3.2,1.1-6.1,2.9-8.7c5.6-7.7,17.2-11.4,26.2-11.9
			c12.4-0.5,27,4.8,31.5,17.7c1.9,5.8,0.3,11.9-5,17.7C215.5,197.8,209.9,203.1,205.4,203.1z M195.1,190.4l1.1,0.8
			c1.3,1.1,2.4,2.4,3.4,4c1.6,2.1,3.2,4.2,5,4.8c2.4,0.8,6.9-2.4,12.7-9c4.5-5,5.8-10,4.2-14.5c-4-11.4-16.9-15.9-28.3-15.3
			c-8.2,0.3-18.8,3.7-23.8,10.6c-1.6,2.1-2.1,4.2-2.4,6.9c0,7.7,6.9,15.9,13.2,19.8c2.6,1.6,2.6,1.6,4.5,0.5
			c2.9-1.3,5.8-4.2,7.9-6.3L195.1,190.4z"/>
	</g>
</g>
<path d="M159.7,214.5c-0.3,0-0.3,0-0.5,0l-13-4.5c-0.8-0.3-1.3-1.1-1.1-1.9l2.1-9.3c0.3-0.8,0.8-1.3,1.6-1.3l26.2,2.4
	c0.8,0,1.3,0.8,1.3,1.6v9.3c0,0.8-0.5,1.6-1.3,1.6L159.7,214.5L159.7,214.5z M148.6,207.4l11.4,3.7l13.5-1.9v-6.3L150,201
	L148.6,207.4z"/>
<g>
	<g>
		<g>
			<g>
				<path style="fill:#595959;" d="M275,114.3c-2.1-5-3.7-10.3-4-15.9c-2.4-29.6-13.2-40.2-25.1-49.7C230.6,36.2,207.3,37,198,37.8
					c-2.1,0.3-4,0.3-6.1,0c-9.3-0.5-32.5-1.6-47.9,10.8c-11.8,9.6-22.7,20.2-25,49.8c-0.5,5.6-1.9,10.8-4,15.9
					c-2.9,6.9-3.4,16.7-2.4,22c6.1,27,27.5,42.6,54.2,49.7c9,2.4,18.5,3.7,28,3.7c9.5-0.3,19-1.3,28-3.7
					c26.7-7.1,48.1-22.7,54.2-49.7C278.4,130.9,277.6,121.1,275,114.3z"/>
				<path d="M194.9,191.2c-10-0.3-19.6-1.3-28.6-3.7c-30.7-8.2-49.7-25.7-55.3-51c-1.3-5.6-0.5-15.6,2.4-23c2.4-5.6,3.4-10.6,4-15.3
					c2.4-29.6,13-40.5,25.7-50.8c11.1-9,27.5-12.7,49.2-11.4c1.9,0,4,0,5.8,0c21.4-1.3,38.1,2.4,49.2,11.4
					C260,57.7,270.6,68.6,273,98.2c0.3,4.8,1.6,9.8,4,15.3c3.2,7.4,3.7,17.5,2.4,23c-5.6,25.1-24.6,42.8-55.3,51
					C214.4,189.9,204.9,191.2,194.9,191.2z M183.5,39.2c-16.7,0-29.6,3.7-38.6,10.8c-12.2,9.8-22.2,20.1-24.3,48.7
					c-0.3,5.3-1.9,10.6-4.2,16.1c-2.6,6.6-3.4,16.1-2.1,21.2c6.6,30.1,32.5,43.1,52.9,48.4c8.7,2.4,18,3.4,27.8,3.7
					c9.8-0.3,19-1.3,27.8-3.7c20.6-5.6,46.3-18.2,53.2-48.7c1.1-5,0.5-14.3-2.1-21.2l0,0c-2.4-5.8-3.7-11.1-4.2-16.1
					c-2.1-28.3-12.4-38.9-24.3-48.7c-10.3-8.5-26.2-11.9-46.8-10.6c-2.1,0.3-4.2,0.3-6.3,0C188.8,39.2,186.1,39.2,183.5,39.2z"/>
			</g>
			<ellipse style="fill:#FFFFFF;" cx="194.9" cy="141" rx="35.2" ry="25.4"/>
			<g>
				<path style="fill-rule:evenodd;clip-rule:evenodd;fill:#FF8775;" d="M194.9,123c2.4,0,4.2,1.3,4.2,3.2c0,1.9-1.9,3.2-4.2,3.4
					c-2.4,0-4.2-1.3-4.2-3.2C190.7,124.5,192.5,123.3,194.9,123z"/>
				<path d="M194.9,123c2.4,0,4,1.3,4.2,3.2c0,1.9-1.9,3.2-4.2,3.4c0,0,0,0-0.3,0c-2.4,0-4.2-1.3-4.2-3.2
					C190.6,124.6,192.5,123.3,194.9,123L194.9,123 M194.9,119.8L194.9,119.8c-2.1,0-3.7,0.8-5,1.9c-1.6,1.3-2.4,2.9-2.4,4.8
					c0,3.4,3.4,6.1,7.4,6.1h0.3c1.9,0,3.4-0.5,4.8-1.6c1.6-1.3,2.4-2.9,2.4-4.8C202.3,122.7,198.8,119.8,194.9,119.8L194.9,119.8z"
					/>
			</g>
			<g>
				<g>
					<path style="fill-rule:evenodd;clip-rule:evenodd;" d="M217.6,119.6L217.6,119.6c-3.4,0-6.1-2.6-6.1-6.1v-0.8
						c0-3.4,2.9-6.1,6.1-5.8c3.4,0,6.1,2.6,6.1,6.1v0.8C223.7,117.2,221.1,119.8,217.6,119.6"/>
				</g>
			</g>
			<g>
				<g>
					<path style="fill-rule:evenodd;clip-rule:evenodd;" d="M172.1,119.6L172.1,119.6c3.4,0,6.1-2.6,6.1-6.1v-0.8
						c0-3.4-2.9-6.1-6.1-5.8c-3.4,0-6.1,2.6-6.1,6.1v0.8C166,117.2,168.7,119.8,172.1,119.6"/>
				</g>
			</g>
			<g>
				<path d="M188.5,146c-3.7,0-6.9-1.9-8.5-5c-0.5-0.8,0-1.9,0.5-2.1c0.8-0.5,1.9,0,2.1,0.5c1.6,2.9,4.8,3.7,6.9,3.4
					c1.6-0.3,3.4-1.1,3.7-2.9c0.3-0.8,1.1-1.3,1.9-1.3c0.8,0.3,1.3,1.1,1.3,1.9c-0.5,2.9-3.2,4.8-6.3,5.3
					C189.6,145.7,189,146,188.5,146z"/>
			</g>
			<g>
				<path d="M201.2,146c-0.5,0-1.1,0-1.6,0c-3.4-0.5-5.8-2.6-6.3-5.3c-0.3-0.8,0.3-1.6,1.3-1.9c0.8-0.3,1.6,0.3,1.9,1.3
					c0.3,1.9,2.1,2.6,3.7,2.9c2.1,0.3,5.3-0.3,6.9-3.4c0.5-0.8,1.3-1.1,2.1-0.5c0.8,0.5,1.1,1.3,0.5,2.1
					C208.1,143.9,204.9,146,201.2,146z"/>
			</g>
			<g>
				<path style="fill:#595959;" d="M179,43.9c0,0-9.8-9.8-16.7-14.8s-25.4-18-29.1-16.7c-3.7,1.3-21.4,35.7-4.5,53.7"/>
				<path d="M128.8,67.7c-0.5,0-0.8-0.3-1.1-0.5c-9.5-10-8.5-24.3-5.8-34.6c2.4-10,7.9-20.9,11.1-21.7c5.6-1.9,30.1,16.9,30.4,16.9
					c6.9,5.3,16.4,14.5,16.7,15.1c0.5,0.5,0.5,1.6,0,2.1s-1.6,0.5-2.1,0c0,0-9.8-9.8-16.4-14.8c-10.4-8-25.2-17-27.6-16.4
					c-1.3,0.8-8.2,11.6-10,25.4c-1.1,7.7-1.1,18.2,6.3,25.9c0.5,0.5,0.5,1.6,0,2.1C129.5,67.7,129.3,67.7,128.8,67.7z"/>
			</g>
			<g>
				<path style="fill:#FF8775;" d="M160.5,47.4c0,0-24.6-21.7-25.4-25.9s-10.6,27,1.9,34.1c0,0,3.4-2.1,5.6-2.6c0,0-2.9-7.4,4.8-2.9
					C152.6,53.2,160.5,47.4,160.5,47.4z"/>
				<path d="M136.9,57.4c-0.3,0-0.5,0-0.8-0.3c-9.8-5.8-7.4-23.8-4.5-32.5c1.3-4.2,2.1-5,3.4-5c0.8,0,1.6,0.5,1.6,1.9
					c0.5,2.4,13,14.5,24.9,24.9c0.3,0.3,0.5,0.8,0.5,1.3s-0.3,1.1-0.8,1.3c-0.3,0.3-9,6.3-14.8,2.9c-2.4-1.3-3.2-1.3-3.2-1.3
					c0,0.3,0.3,1.3,0.5,2.1c0.3,0.5,0.3,0.8,0,1.3s-0.5,0.8-1.1,0.8c-1.6,0.5-4.2,2.1-5.3,2.6C137.5,57.4,137.2,57.4,136.9,57.4z
					 M135.1,24.6c-1.6,4.2-3.7,14-2.1,21.4c0.8,3.7,2.1,6.3,4.2,7.9c0.8-0.5,2.1-1.3,3.4-1.9c-0.3-1.3-0.5-3.2,0.8-4.2
					c1.9-1.6,4.8-0.3,6.9,1.1c2.6,1.6,6.9-0.3,9.8-1.6C151.8,41.8,139.3,30.4,135.1,24.6z"/>
			</g>
			<g>
				<path style="fill:#FF8775;" d="M144.4,48.9c0,0-7.1-6.6-7.1-12.7"/>
				<path d="M144.4,50.5c-0.3,0-0.8-0.3-1.1-0.5c-0.3-0.3-7.7-7.1-7.7-13.8c0-0.8,0.8-1.6,1.6-1.6s1.6,0.8,1.6,1.6
					c0,4.5,4.8,9.8,6.6,11.4c0.5,0.5,0.8,1.6,0,2.1C145.1,50.3,144.9,50.5,144.4,50.5z"/>
			</g>
			<g>
				<path style="fill:#595959;" d="M210.7,43.9c0,0,9.8-9.8,16.7-14.8s25.4-18,29.1-16.7s21.4,35.7,4.5,53.7"/>
				<path d="M261,67.7c-0.3,0-0.8-0.3-1.1-0.5c-0.5-0.5-0.8-1.6,0-2.1c7.1-7.7,7.4-18.2,6.3-25.9c-2.1-13.5-8.7-24.3-10.3-25.4
					c-2.3-0.6-16.9,8.7-27.4,16.4c-6.6,5-16.4,14.5-16.4,14.8c-0.5,0.5-1.6,0.5-2.1,0s-0.5-1.6,0-2.1s10-9.8,16.7-15.1
					c0,0,24.6-18.8,30.1-16.9c3.2,1.1,8.5,11.9,11.1,21.7c2.6,10.3,3.7,24.6-5.8,34.6C261.8,67.5,261.2,67.7,261,67.7z"/>
			</g>
			<g>
				<path style="fill:#FF8775;" d="M229.2,47.4c0,0,24.6-21.7,25.4-25.9c0.8-4.2,10.6,27-1.9,34.1c0,0-3.4-2.1-5.6-2.6
					c0,0,2.9-7.4-4.8-2.9C237.2,53.2,229.2,47.4,229.2,47.4z"/>
				<path d="M252.8,57.4c-0.3,0-0.5,0-0.8-0.3c-0.8-0.5-3.7-2.1-5.3-2.6c-0.5,0-0.8-0.5-1.1-0.8s-0.3-0.8,0-1.3
					c0.3-0.8,0.5-1.9,0.5-2.4c0,0-1.1,0.3-2.9,1.3c-5.8,3.4-14.5-2.6-14.8-2.9c-0.3-0.3-0.5-0.8-0.8-1.3s0.3-1.1,0.5-1.3
					C240,35.5,252.4,23.3,253,20.9c0-0.8,0.8-1.3,1.6-1.3c1.3,0,2.1,0.8,3.4,5c2.6,8.7,5.3,26.7-4.5,32.5
					C253.3,57.4,253.1,57.4,252.8,57.4z M249.1,52.1c1.3,0.5,2.6,1.3,3.4,1.9c2.1-1.6,3.4-4.2,4.2-7.9c1.3-7.7-0.8-17.2-2.1-21.4
					c-4.2,5.8-16.9,17.5-23,22.7c2.6,1.6,6.9,3.2,9.8,1.6c2.1-1.1,5-2.6,6.9-1.1C249.6,48.9,249.3,50.8,249.1,52.1z"/>
			</g>
			<g>
				<path style="fill:#FF8775;" d="M245.4,48.9c0,0,7.1-6.6,7.1-12.7"/>
				<path d="M245.4,50.5c-0.5,0-0.8-0.3-1.1-0.5c-0.5-0.5-0.5-1.6,0-2.1c0,0,6.6-6.1,6.6-11.4c0-0.8,0.8-1.6,1.6-1.6l0,0
					c0.8,0,1.6,0.8,1.6,1.6c0,6.9-7.4,13.5-7.7,13.8C246.2,50.3,245.6,50.5,245.4,50.5z"/>
			</g>
			<g>
				<path style="fill:#595959;" d="M206.8,47.9c4.8,1.1,14-8.5,7.7-14.3s-11.9,5-11.9,5s2.1-15.1-8.2-14.3
					c-10.3,0.8-6.6,12.7-6.6,12.7s-1.6-6.6-7.4-5.8c-11.4,1.9-7.7,14.3,0.8,16.9"/>
				<path d="M181.4,49.7c-0.3,0-0.3,0-0.5,0c-5.6-1.9-9.5-7.1-9.3-12.2c0.3-1.9,1.3-6.6,8.5-7.9c2.1-0.3,4,0.3,5.3,1.3
					c0.3-1.6,0.5-3.2,1.6-4.5c1.6-2.1,4-3.4,7.1-3.7c2.9-0.3,5.3,0.5,6.9,2.4c2.1,2.1,2.9,5.6,3.2,8.5c1.3-1.3,3.2-2.6,5.3-3.2
					c1.6-0.3,3.7,0,6.1,2.1c2.9,2.6,3.4,6.6,1.6,10.3c-2.1,4-6.9,7.4-10.6,6.6c-0.8-0.3-1.3-1.1-1.1-1.9c0.3-0.8,1.1-1.3,1.9-1.1
					c1.9,0.5,5.3-1.6,7.1-5c1.1-1.9,1.6-4.2-0.8-6.6c-1.1-1.1-2.4-1.6-3.4-1.3c-2.6,0.5-5.3,4.2-6.1,5.8c-0.3,0.8-1.1,1.1-1.9,0.8
					c-0.8-0.3-1.3-1.1-1.1-1.9c0.3-2.1,0.5-8.2-2.1-11.1c-1.1-1.1-2.4-1.6-4.5-1.3c-2.1,0.3-3.7,0.8-4.8,2.4
					c-1.6,2.4-1.1,6.1-0.5,7.9c0,0.3,0,0.3,0.3,0.5c0.3,0.8-0.3,1.6-1.1,1.9c-0.8,0.3-1.6-0.3-1.9-1.1v-0.3c-0.3-1.1-1.9-5-5.3-4.2
					c-3.7,0.5-5.8,2.4-5.8,5c-0.3,3.2,2.4,7.4,6.9,8.7c0.8,0.3,1.3,1.1,1.1,2.1C182.7,49.2,181.9,49.7,181.4,49.7z"/>
			</g>
		</g>
	</g>
	<g>
		<g>
			<path style="fill:#2C4F9E;" d="M159.7,51.6c-1.6,0,1.9,13.5,2.1,14.5c2.1,6.9,10.8,9.3,17.5,8.7c4.8-0.3,9.5-1.3,14-2.1
				c5-0.5,10.8,0,15.9,0.8c7.4,1.1,15.3,2.4,18.8-5.8c2.1-5.3,3.4-12.2,1.3-17.5C229.2,50.5,160,51.6,159.7,51.6z"/>
			<path d="M177.7,76.7c-7.4,0-15.1-2.9-17.5-10c0,0-4-13.5-2.1-15.9c0.3-0.5,1.1-0.8,1.6-0.8l0,0l69.6-1.1c0.5,0,1.3,0.3,1.6,1.1
				c2.1,5,1.6,11.9-1.3,18.8c-4,9-12.7,7.7-19.6,6.9h-0.8c-5.3-0.8-10.6-1.3-15.6-0.8c-1.9,0.3-3.4,0.5-5.3,0.8
				c-2.9,0.5-5.8,1.1-8.7,1.3C178.7,76.7,178.2,76.7,177.7,76.7z M160.8,53.2c0,2.9,2.1,11.1,2.4,12.7c2.1,6.6,10.8,7.9,15.9,7.7
				c2.9-0.3,5.8-0.8,8.5-1.1c1.9-0.3,3.7-0.5,5.6-0.8c5.3-0.8,10.8,0,16.4,0.8h0.8c6.9,1.1,13.5,1.9,16.4-5
				c2.4-5.6,2.9-11.1,1.6-15.1L160.8,53.2z"/>
		</g>
		<g>
			<path style="fill:#87ACFF;" d="M159.7,51.6c0,0,1.6,13,33.3,11.9c31.5-1.3,36-9.5,36.5-13L159.7,51.6z"/>
			<path d="M188.8,65.1c-28.6,0-30.7-12.7-30.7-13.2s0-0.8,0.3-1.3c0.3-0.3,0.8-0.5,1.1-0.5l69.8-1.1c0.5,0,0.8,0.3,1.3,0.5
				c0.3,0.3,0.5,0.8,0.5,1.3c-0.5,4.8-6.1,13.2-37.8,14.3C191.4,65.1,190.1,65.1,188.8,65.1z M162.1,53.2c1.9,3.2,8.7,9.5,30.7,8.7
				c25.7-1.1,32.5-6.3,34.4-9.8L162.1,53.2z M159.7,51.6L159.7,51.6L159.7,51.6z"/>
		</g>
		<g>
			<g>
				<path style="fill:#2C4F9E;" d="M156.3,34.9c5.6-13.5,22.5-16.7,35.7-17.2c16.7-0.8,29.6,2.9,39.9,17.2
					c6.3,8.7-1.9,16.9-10.3,19.6c-11.6,3.4-24.1,4.8-36,3.4c-13-1.3-36.5-3.4-29.4-22.7C156,35.2,156.3,34.9,156.3,34.9z"/>
				<path d="M194.3,60c-3.2,0-6.1-0.3-9.3-0.5c-10-1.1-24.9-2.4-30.1-10.8c-2.4-3.7-2.6-8.5-0.5-14c0-0.3,0.3-0.3,0.3-0.5
					c4.8-11.4,17.2-17.5,37-18.2c19.6-0.8,32,4.5,41.5,18c2.4,3.4,3.2,7.1,1.9,10.8c-1.6,4.8-6.9,9.3-13.2,11.1
					C213.1,58.7,203.9,60,194.3,60z M195.4,19.1c-1.1,0-2.4,0-3.4,0c-18.5,0.8-30.1,6.1-34.1,16.1l0,0l-0.3,0.5
					c-1.6,4.5-1.6,8.2,0.3,11.1c4.5,7.1,19,8.5,27.8,9.5c12.2,1.1,24.3,0,35.7-3.4c5.3-1.6,9.8-5.3,11.1-9.3
					c0.8-2.6,0.5-5.3-1.6-7.9C222.4,24.1,211.8,19.1,195.4,19.1z M156.3,34.9L156.3,34.9L156.3,34.9z"/>
			</g>
		</g>
		<g>
			<g>
				<path style="fill-rule:evenodd;clip-rule:evenodd;fill:#FFC300;" d="M195,52.8c-1.4,0-2.6-0.5-3.6-1.5
					c-3.1-3.2-3.1-10.2-3.1-10.5v-0.6h0.6c4.3,0,5.6-1.7,5.6-1.7l0.5-0.7l0.5,0.7c0,0,1.3,1.7,5.6,1.7h0.6v0.6c0,0.3,0,7.3-3.1,10.5
					C197.6,52.3,196.3,52.8,195,52.8"/>
				<path d="M195,53.4c-1.5,0-2.9-0.6-4-1.7c-3.2-3.3-3.3-10.1-3.3-10.9v-0.6c0-0.3,0.3-0.6,0.6-0.6h0.6c3.9,0,5.1-1.4,5.1-1.5
					l0.5-0.7c0.1-0.1,0.3-0.2,0.5-0.2l0,0c0.2,0,0.3,0.1,0.5,0.2l0.5,0.7l0,0c0,0,1.2,1.4,5.1,1.4h0.6c0.3,0,0.6,0.3,0.6,0.6v0.6
					c0,0.8,0,7.6-3.3,10.9C197.8,52.8,196.5,53.4,195,53.4z M188.8,40.7L188.8,40.7c0,0.3,0,7.2,2.9,10.1c0.9,0.9,2,1.3,3.2,1.3
					s2.3-0.5,3.2-1.3c3-3,2.9-9.8,2.9-10.1l0,0c-4.6,0-6-1.9-6-1.9l0,0v0.1C194.9,38.9,193.5,40.7,188.8,40.7L188.8,40.7z"/>
			</g>
			<path style="fill-rule:evenodd;clip-rule:evenodd;fill:#CC8025;" d="M197.3,47.2c0,1.1-1,1.4-2.3,1.4s-2.3-0.3-2.3-1.4
				s1-2.1,2.3-2.1S197.3,46,197.3,47.2"/>
			<path style="fill-rule:evenodd;clip-rule:evenodd;fill:#CC8025;" d="M192.1,45.9c-0.4,0-0.8-0.4-0.8-0.9s0.4-0.9,0.8-0.9
				s0.8,0.4,0.8,0.9C192.9,45.4,192.6,45.9,192.1,45.9"/>
			<path style="fill-rule:evenodd;clip-rule:evenodd;fill:#CC8025;" d="M197.9,43.9c-0.5,0-0.9,0.4-0.9,1c0,0.5,0.4,1,0.9,1
				s0.9-0.4,0.9-1C198.7,44.4,198.3,43.9,197.9,43.9"/>
			<path style="fill-rule:evenodd;clip-rule:evenodd;fill:#CC8025;" d="M193.9,44.6c-0.4,0-0.8-0.4-0.8-0.9s0.4-0.9,0.8-0.9
				c0.4,0,0.8,0.4,0.8,0.9S194.4,44.6,193.9,44.6"/>
			<path style="fill-rule:evenodd;clip-rule:evenodd;fill:#CC8025;" d="M196,42.9c-0.5,0-0.9,0.4-0.9,1c0,0.5,0.4,1,0.9,1
				s0.9-0.4,0.9-1C196.9,43.3,196.5,42.9,196,42.9"/>
		</g>
	</g>
</g>
<g>
	<g>
		<path style="fill-rule:evenodd;clip-rule:evenodd;fill:#FFC300;" d="M232,220c-2.6,0-4.8-0.9-6.7-2.8c-5.8-5.9-5.8-19-5.8-19.5
			v-1.1h1.1c7.9,0,10.3-3.1,10.4-3.1l0.9-1.3l0.9,1.3c0,0,2.4,3.1,10.4,3.1h1.1v1.1c0,0.6,0,13.7-5.8,19.5
			C236.8,219,234.6,220,232,220"/>
		<path d="M232,221c-2.9,0-5.4-1-7.4-3.1c-6-6.1-6.1-18.8-6.1-20.3v-1.1c0-0.6,0.5-1,1.1-1h1.1c7.2,0,9.5-2.7,9.5-2.7l0.9-1.2
			c0.2-0.3,0.5-0.4,0.8-0.4l0,0c0.3,0,0.6,0.2,0.8,0.4l0.9,1.3l0,0c0,0,2.3,2.7,9.5,2.7h1.1c0.6,0,1,0.5,1.1,1v1.1
			c0,1.4-0.1,14.2-6.1,20.3C237.4,220,234.9,221,232,221z M220.6,197.6L220.6,197.6c0,0.6,0,13.3,5.5,18.8c1.6,1.7,3.6,2.5,5.9,2.5
			s4.3-0.8,5.9-2.5c5.5-5.5,5.5-18.2,5.5-18.8l-0.1-0.1c-8.6,0-11.2-3.5-11.2-3.6l-0.1-0.1l-0.1,0.1
			C231.8,194.2,229.3,197.6,220.6,197.6L220.6,197.6z"/>
	</g>
	<path style="fill-rule:evenodd;clip-rule:evenodd;fill:#CC8025;" d="M236.3,209.5c0,2.1-1.9,2.6-4.3,2.6s-4.3-0.5-4.3-2.6
		s1.9-3.8,4.3-3.8S236.3,207.4,236.3,209.5"/>
	<path style="fill-rule:evenodd;clip-rule:evenodd;fill:#CC8025;" d="M226.8,207.1c-0.8,0-1.5-0.8-1.5-1.7c0-1,0.7-1.7,1.5-1.7
		s1.5,0.8,1.5,1.7C228.3,206.3,227.6,207.1,226.8,207.1"/>
	<path style="fill-rule:evenodd;clip-rule:evenodd;fill:#CC8025;" d="M237.4,203.5c-0.9,0-1.6,0.8-1.6,1.8s0.7,1.8,1.6,1.8
		s1.6-0.8,1.6-1.8S238.3,203.5,237.4,203.5"/>
	<path style="fill-rule:evenodd;clip-rule:evenodd;fill:#CC8025;" d="M230.1,204.8c-0.8,0-1.5-0.8-1.5-1.7c0-1,0.7-1.7,1.5-1.7
		s1.5,0.8,1.5,1.7S230.9,204.8,230.1,204.8"/>
	<path style="fill-rule:evenodd;clip-rule:evenodd;fill:#CC8025;" d="M234,201.5c-0.9,0-1.6,0.8-1.6,1.8s0.7,1.8,1.6,1.8
		s1.6-0.8,1.6-1.8S234.9,201.5,234,201.5"/>
</g>
<g>
	<path style="fill:#2C4F9E;" d="M270.7,196.4c-0.5-14.7-7-22.2-19.4-22.3c0,0,0,0,0,0c-1.8,0-3.7,1.1-4.8,2.8
		c-1.7,2.6-2,5.5-2.2,8.5c-0.1,1.5-0.2,3.1-0.6,4.6c-0.5,2.1-0.8,4.4-1.2,6.8c-1.1,6.9-2.3,14.8-6.4,20.5c-6,8.2-16.5,7.5-25.7,6.8
		c-8.8-0.6-16.9-3.6-24.8-6.5c-3-1.1-6-2.2-9.1-3.2c-5.2-1.7-18.2-5-26.7-0.3c-3.5,2-5.8,5.1-6.9,9.4c-2.4,9.4,4.6,16.6,21.2,21.8
		c2.6,0.8,5.3,1.6,8,2.3c4.8,1.3,9.8,2.7,14.5,4.6c1,0.4,2,0.8,3,1.3c5.8,2.4,10.7,4.6,17.5,5c7.8,0.5,15.6,0.3,23.3-0.7
		c15.1-2,26.3-9.7,33.1-22.9C268.6,224.6,271.2,211,270.7,196.4L270.7,196.4z"/>
	<path style="fill:#595959;" d="M176.5,214.3c0,0-23.1-8.9-32.2,5.2c0,0-9.3,12.5,10.2,22.5l13.3,4.3c0,0,10.8-8.8,12.5-26.3v-4.7
		L176.5,214.3z"/>
	<path d="M206.8,259.9c-7-0.5-12.1-2.6-17.9-5.1l-0.2-0.1c-0.9-0.4-1.8-0.8-2.8-1.2c-4.6-1.9-9.5-3.3-14.3-4.6
		c-2.6-0.7-5.3-1.5-8-2.3c-17.6-5.5-24.8-13.2-22.2-23.6c1.2-4.7,3.8-8.2,7.6-10.3c9-5,22.5-1.5,27.9,0.2c3.1,1,6.1,2.1,9.1,3.2
		c7.8,2.9,15.8,5.8,24.4,6.4c8.9,0.6,18.9,1.3,24.4-6.2c3.9-5.4,5.1-13,6.2-19.8c0.4-2.4,0.7-4.7,1.2-6.9c0.3-1.4,0.4-2.9,0.5-4.4
		c0.3-3.1,0.5-6.4,2.5-9.2c1.4-2.1,3.8-3.4,6.1-3.4c16.5,0.1,20.5,13,20.9,23.8v0c0.5,14.9-2.1,28.8-7.5,39.1
		c-7.1,13.6-18.6,21.6-34.3,23.7c-5.1,0.7-10.3,1-15.5,1C212.2,260.1,209.5,260,206.8,259.9z M269.2,196.4
		c-0.5-13.9-6.4-20.8-17.9-20.9c-1.3,0-2.7,0.8-3.6,2.1c-1.5,2.2-1.7,4.8-2,7.8c-0.1,1.5-0.3,3.2-0.6,4.7c-0.4,2.1-0.8,4.3-1.2,6.8
		c-1.1,7.1-2.3,15.1-6.7,21.1c-6.5,8.8-17.4,8.1-27.1,7.4c-9-0.6-17.2-3.7-25.2-6.6c-2.9-1.1-6-2.2-9-3.2c-5-1.6-17.6-4.9-25.5-0.4
		c-3.1,1.7-5.2,4.6-6.2,8.4c-0.8,3.1-3.2,12.6,20.2,20c2.6,0.8,5.3,1.6,7.9,2.3c4.9,1.3,9.9,2.7,14.7,4.7c1,0.4,1.9,0.8,2.8,1.2
		l0.2,0.1c5.6,2.4,10.5,4.5,17,4.9c7.7,0.5,15.4,0.3,23-0.7c14.6-1.9,25.4-9.4,32-22.1C267.1,224.1,269.7,210.8,269.2,196.4
		L269.2,196.4z"/>
	<g>
		<g>
			<path style="fill:#FFC800;" d="M269.9,181.1c0,0,5.7,5.1,7.9,7.8l-12.4,8.8l-7.4-7.2L269.9,181.1z"/>
			<path d="M264.3,198.9l-7.4-7.2c-0.4-0.3-0.5-0.8-0.5-1.3c0-0.5,0.3-1,0.6-1.3l11.8-9.4c0.7-0.5,1.6-0.5,2.2,0.1
				c0.2,0.2,5.8,5.2,8.1,8c0.3,0.4,0.4,0.8,0.4,1.3c-0.1,0.5-0.3,0.9-0.7,1.2l-12.4,8.8c-0.3,0.2-0.6,0.3-1,0.3
				C265,199.4,264.6,199.2,264.3,198.9z M269.8,183.3l-9.2,7.3l5,4.8l9.6-6.9C273.6,186.8,271.2,184.6,269.8,183.3z"/>
		</g>
		<g>
			<line style="fill:#FFC800;" x1="270.2" y1="187" x2="266" y2="190.1"/>
			<path d="M266,191.9c0.4,0,0.7-0.1,1-0.3l4.2-3.1c0.8-0.6,0.9-1.6,0.3-2.4c-0.6-0.8-1.6-0.9-2.4-0.3l-4.2,3.1
				c-0.8,0.6-0.9,1.6-0.3,2.4C264.9,191.6,265.5,191.9,266,191.9z"/>
		</g>
		<g>
			<path d="M269.9,181.1c0,0-7.9-8.3-14.8-9.8l-12.5,7.4c0,0,12.4,8.8,15.5,11.8L269.9,181.1z"/>
			<path d="M256.9,191.7c-2.9-2.9-15.2-11.5-15.3-11.6c-0.5-0.3-0.7-0.9-0.7-1.5c0-0.6,0.3-1.1,0.8-1.4l12.5-7.4
				c0.4-0.2,0.8-0.3,1.2-0.2c7.4,1.5,15.4,9.9,15.7,10.3c0.3,0.3,0.5,0.8,0.5,1.3c0,0.5-0.3,0.9-0.6,1.2l-11.8,9.4
				c-0.3,0.3-0.7,0.4-1.1,0.4C257.7,192.2,257.2,192,256.9,191.7z M255.4,173.1l-9.6,5.7c3.3,2.3,9.4,6.8,12.4,9.4l9.2-7.3
				C265,178.7,260,174.4,255.4,173.1z"/>
		</g>
	</g>
	<g>
		<path style="fill:#FFC800;" d="M183.8,216.9c0,0,7.4,9.1-9.4,29.5l5.5,3c0,0,10.6-7.7,12-29.8L183.8,216.9z"/>
		<path d="M179.1,250.9l-5.5-3c-0.4-0.2-0.7-0.6-0.8-1.1c-0.1-0.5,0-0.9,0.3-1.3c15.5-18.9,9.5-27.4,9.4-27.5
			c-0.4-0.5-0.5-1.3-0.1-1.9c0.4-0.6,1.1-0.8,1.7-0.6l8.1,2.8c0.7,0.2,1.1,0.9,1,1.6c-1.4,22.5-12.2,30.6-12.6,30.9
			c-0.3,0.2-0.6,0.3-1,0.3C179.5,251,179.3,251,179.1,250.9z M186.5,219.5c1.1,4.5,0.7,13.1-9.8,26.5l2.9,1.6
			c0.9-0.9,2.7-2.7,4.5-5.7c2.4-4,5.3-10.8,6.1-21L186.5,219.5z"/>
	</g>
	<g>
		<path style="fill:#2C4F9E;" d="M197.1,221.5c0,0,4.3,19.9-12.6,29.8"/>
		<path d="M185.3,252.6c17.6-10.4,13.3-31.2,13.3-31.4l-2.9,0.6c0.2,0.8,3.8,18.9-11.9,28.2L185.3,252.6z"/>
	</g>
	<g>
		<path style="fill:#595959;" d="M178.8,215.1c0,0,6.1,17.9-12.4,30.9"/>
		<path d="M167.3,247.2c19.1-13.5,13-32.4,12.9-32.6l-2.8,1c0.2,0.7,5.4,17.1-11.8,29.2L167.3,247.2z"/>
	</g>
</g>
<g>
	<path style="fill:#2C4F9E;" d="M119.2,196.4c-0.5,14.6,2.1,28.2,7.4,38.4c6.9,13.2,18,20.9,33.1,22.9c7.7,1,15.5,1.3,23.3,0.7
		c6.7-0.5,11.7-2.6,17.5-5c1-0.4,2-0.8,3-1.3c4.7-1.9,9.7-3.3,14.5-4.6c2.6-0.7,5.3-1.5,8-2.3c16.6-5.2,23.6-12.4,21.2-21.8
		c-1.1-4.3-3.4-7.4-6.9-9.4c-8.5-4.7-21.5-1.3-26.7,0.3c-3,1-6.1,2.1-9.1,3.2c-7.9,2.9-16.1,5.9-24.8,6.5
		c-9.3,0.6-19.8,1.4-25.7-6.8c-4.1-5.7-5.4-13.5-6.4-20.5c-0.4-2.4-0.7-4.7-1.2-6.8c-0.3-1.5-0.4-3-0.6-4.6c-0.2-3.1-0.5-6-2.2-8.5
		c-1.1-1.7-3-2.8-4.8-2.8c0,0,0,0,0,0C126.3,174.2,119.7,181.7,119.2,196.4L119.2,196.4z"/>
	<path style="fill:#595959;" d="M213.4,214.3c0,0,23.1-8.9,32.2,5.2c0,0,9.3,12.5-10.2,22.5l-13.3,4.3c0,0-10.8-8.8-12.5-26.3v-4.7
		L213.4,214.3z"/>
	<path d="M175,260.1c-5.2,0-10.4-0.3-15.5-1c-15.6-2.1-27.2-10-34.3-23.7c-5.4-10.4-8.1-24.3-7.5-39.1v0
		c0.4-10.8,4.3-23.6,20.9-23.8c2.4,0,4.7,1.3,6.1,3.4c2,2.9,2.2,6.1,2.5,9.2c0.1,1.5,0.2,3,0.5,4.4c0.5,2.2,0.8,4.5,1.2,6.9
		c1,6.8,2.2,14.5,6.2,19.8c5.5,7.5,15.5,6.8,24.4,6.2c8.6-0.6,16.6-3.5,24.4-6.4c3-1.1,6-2.2,9.1-3.2c5.4-1.7,18.9-5.2,27.9-0.2
		c3.9,2.2,6.5,5.6,7.6,10.3c2.6,10.4-4.7,18.1-22.2,23.6c-2.7,0.8-5.4,1.6-8,2.3c-4.8,1.3-9.7,2.7-14.3,4.6
		c-0.9,0.4-1.9,0.8-2.8,1.2l-0.2,0.1c-5.9,2.5-11,4.7-17.9,5.1C180.4,260,177.7,260.1,175,260.1z M120.7,196.4
		c-0.5,14.3,2,27.7,7.2,37.6c6.6,12.7,17.4,20.2,32,22.1c7.6,1,15.3,1.2,23,0.7c6.5-0.4,11.3-2.5,17-4.9l0.2-0.1
		c0.9-0.4,1.8-0.8,2.8-1.2c4.8-2,9.8-3.4,14.7-4.7c2.6-0.7,5.3-1.4,7.9-2.3c23.4-7.3,21-16.9,20.2-20c-1-3.9-3.1-6.7-6.2-8.4
		c-8-4.4-20.5-1.2-25.5,0.4c-3,1-6.1,2.1-9,3.2c-8,2.9-16.3,6-25.2,6.6c-9.7,0.7-20.6,1.4-27.1-7.4c-4.4-6-5.6-14-6.7-21.1
		c-0.4-2.4-0.7-4.7-1.2-6.8c-0.3-1.6-0.5-3.2-0.6-4.7c-0.2-3-0.4-5.6-2-7.8c-0.9-1.3-2.3-2.1-3.6-2.1
		C127.1,175.7,121.2,182.5,120.7,196.4L120.7,196.4z"/>
	<g>
		<g>
			<path style="fill:#FFC800;" d="M120,181.1c0,0-5.7,5.1-7.9,7.8l12.4,8.8l7.4-7.2L120,181.1z"/>
			<path d="M124.4,199.4c-0.3,0-0.7-0.1-1-0.3l-12.4-8.8c-0.4-0.3-0.6-0.7-0.7-1.2c-0.1-0.5,0.1-0.9,0.4-1.3c2.3-2.8,7.9-7.8,8.1-8
				c0.6-0.6,1.6-0.6,2.2-0.1l11.8,9.4c0.4,0.3,0.6,0.8,0.6,1.3c0,0.5-0.2,1-0.5,1.3l-7.4,7.2C125.3,199.2,124.9,199.4,124.4,199.4z
				 M114.6,188.6l9.6,6.9l5-4.8l-9.2-7.3C118.7,184.6,116.3,186.8,114.6,188.6z"/>
		</g>
		<g>
			<line style="fill:#FFC800;" x1="119.8" y1="187" x2="123.9" y2="190.1"/>
			<path d="M123.9,191.9c-0.4,0-0.7-0.1-1-0.3l-4.2-3.1c-0.8-0.6-0.9-1.6-0.3-2.4c0.6-0.8,1.6-0.9,2.4-0.3l4.2,3.1
				c0.8,0.6,0.9,1.6,0.3,2.4C125,191.6,124.4,191.9,123.9,191.9z"/>
		</g>
		<g>
			<path d="M120,181.1c0,0,7.9-8.3,14.8-9.8l12.5,7.4c0,0-12.4,8.8-15.5,11.8L120,181.1z"/>
			<path d="M131.8,192.2c-0.4,0-0.8-0.1-1.1-0.4l-11.8-9.4c-0.4-0.3-0.6-0.7-0.6-1.2c0-0.5,0.1-1,0.5-1.3c0.3-0.4,8.3-8.7,15.7-10.3
				c0.4-0.1,0.9,0,1.2,0.2l12.5,7.4c0.5,0.3,0.8,0.8,0.8,1.4c0,0.6-0.2,1.1-0.7,1.5c-0.1,0.1-12.4,8.8-15.3,11.6
				C132.7,192,132.2,192.2,131.8,192.2z M122.6,180.9l9.2,7.3c3.1-2.6,9.2-7.1,12.4-9.4l-9.6-5.7C130,174.4,124.9,178.7,122.6,180.9
				z"/>
		</g>
	</g>
	<g>
		<path style="fill:#FFC800;" d="M206.1,216.9c0,0-7.4,9.1,9.4,29.5l-5.5,3c0,0-10.6-7.7-12-29.8L206.1,216.9z"/>
		<path d="M210.2,251c-0.3,0-0.7-0.1-1-0.3c-0.5-0.3-11.2-8.4-12.6-30.9c0-0.7,0.4-1.4,1-1.6l8.1-2.8c0.6-0.2,1.4,0,1.7,0.6
			c0.4,0.6,0.3,1.3-0.1,1.9c-0.1,0.2-6.1,8.6,9.4,27.5c0.3,0.4,0.4,0.8,0.3,1.3c-0.1,0.5-0.4,0.9-0.8,1.1l-5.5,3
			C210.6,251,210.4,251,210.2,251z M199.7,220.8c0.8,10.3,3.8,17.1,6.1,21c1.8,3,3.5,4.9,4.5,5.7l2.9-1.6
			c-10.5-13.3-10.8-22-9.8-26.5L199.7,220.8z"/>
	</g>
	<g>
		<path style="fill:#2C4F9E;" d="M192.8,221.5c0,0-4.3,19.9,12.6,29.8"/>
		<path d="M204.6,252.6c-17.6-10.4-13.3-31.2-13.3-31.4l2.9,0.6c-0.2,0.8-3.8,18.9,11.9,28.2L204.6,252.6z"/>
	</g>
	<g>
		<path style="fill:#595959;" d="M211.2,215.1c0,0-6.1,17.9,12.4,30.9"/>
		<path d="M222.7,247.2c-19.1-13.5-13-32.4-12.9-32.6l2.8,1c-0.2,0.7-5.4,17.1,11.8,29.2L222.7,247.2z"/>
	</g>
</g>
<g>
	<path style="fill:#595959;" d="M180.1,232.4c1.5-2,2.6-4.3,4.2-6.2c1.2-1.4,4.2-2.7,4.9-4.2c1.6-3.5-5.4-9.3-8-11
		c-4.1-2.6-9.2-3.8-14.1-3.3c-8.2,0.7-18.7,4.4-21.7,12.3c-3,8,2.5,17.6,11,20.4C164.9,243.1,175.1,239.4,180.1,232.4z"/>
	<path d="M162.4,243c-2.2,0-4.5-0.3-6.6-1c-4.9-1.6-9-5.3-11.3-10c-2-4.2-2.3-8.7-0.8-12.6c3.2-8.6,14.5-12.6,23.2-13.4
		c5.3-0.5,10.7,0.8,15.2,3.6c0.1,0.1,11.3,7.4,8.7,13.1c-0.6,1.3-1.9,2.2-3.3,3.1c-0.7,0.5-1.5,1-1.9,1.5c-0.9,1.1-1.6,2.2-2.4,3.5
		c-0.5,0.9-1.1,1.8-1.7,2.7l0,0C177.2,239.4,169.7,243,162.4,243z M169,209.3c-0.6,0-1.2,0-1.8,0.1c-12.2,1.1-18.5,6.7-20.2,11.2
		c-1.2,3.1-0.9,6.6,0.7,9.9c1.8,3.8,5.3,6.9,9.3,8.2c7.5,2.5,17.1-0.7,21.8-7.3c0.6-0.8,1.1-1.6,1.6-2.5c0.8-1.3,1.6-2.6,2.6-3.8
		c0.7-0.8,1.7-1.5,2.6-2.1c0.7-0.5,1.9-1.3,2-1.6c0.8-1.8-3.9-6.6-7.4-8.8C177,210.4,173,209.3,169,209.3z"/>
</g>
</svg>
