<?xml version="1.0" encoding="utf-8"?>
<!-- Generator: Adobe Illustrator 26.5.0, SVG Export Plug-In . SVG Version: 6.00 Build 0)  -->
<svg version="1.1" id="레이어_5" xmlns="http://www.w3.org/2000/svg" xmlns:xlink="http://www.w3.org/1999/xlink" x="0px"
	 y="0px" viewBox="0 0 160 230" style="enable-background:new 0 0 160 230;" xml:space="preserve">
<g>
	<g>
		<path style="fill:#FFFFFF;" d="M151.8,119.6c1.4,2.4,2.6,5,2.8,7.7c0.3,5.7-4.6,10.8-10.1,12.3c-2.2,0.6-4.6,0.7-6.8,0
			c-2.6-0.9-4.8-2.8-6.4-5.1c-4.1-5.6-5.5-12.6-5.5-19.5c0-3.2,0.3-6.5,2-9.3C135.1,94.1,148.3,113.5,151.8,119.6z"/>
		<path d="M141,140.9c-1.3,0-2.4-0.2-3.5-0.5c-2.5-0.8-4.8-2.6-6.8-5.4c-3.8-5.1-5.6-11.8-5.7-20c0-2.9,0.2-6.7,2.1-9.7
			c1.7-2.7,3.9-4.2,6.5-4.1c8.2,0.1,17.2,14.9,19,17.9l0,0c1.4,2.3,2.7,5.1,2.9,8.1c0.3,5.7-4.4,11.4-10.7,13.2
			C143.4,140.7,142.1,140.9,141,140.9z M133.5,102.9c-1.9,0-3.5,1.1-4.9,3.3c-1.7,2.7-1.8,6.1-1.8,8.9c0,7.8,1.8,14.2,5.3,18.9
			c1.8,2.4,3.8,4,5.9,4.7c1.8,0.6,4,0.6,6.2,0c4.9-1.3,9.7-5.8,9.4-11.4c-0.1-2.6-1.5-5.2-2.7-7.3l0,0
			C150,118.2,140.9,103,133.5,102.9L133.5,102.9z"/>
	</g>
	<path style="fill:#82C4FF;" d="M146.6,127.3c-0.4,0-0.7-0.2-0.9-0.6c0-0.1-2.2-6.8-5.7-9.9c-0.4-0.3-0.4-0.9-0.1-1.3
		c0.3-0.4,0.9-0.4,1.3-0.1c3.9,3.4,6.1,10.3,6.2,10.6c0.2,0.5-0.1,1-0.6,1.1C146.8,127.3,146.7,127.3,146.6,127.3z"/>
	<path style="fill:#82C4FF;" d="M141.5,132.6c-0.4,0-0.8-0.3-0.9-0.7c0-0.1-2.3-8.3-5.5-10.8c-0.4-0.3-0.4-0.9-0.1-1.2
		c0.3-0.4,0.9-0.4,1.3-0.1c3.6,2.9,6,11.4,6.1,11.7c0.1,0.5-0.1,1-0.6,1.1C141.6,132.6,141.6,132.6,141.5,132.6z"/>
</g>
<g>
	<path style="fill:#7E20FF;" d="M148.5,110.6c-3.2,3.7-7.9,5.7-12.3,7.7c-2.8,1.2-5.6,2.4-8.5,3.6c-1.3-5-1.8-10-1.7-15.1
		c0-2.7,0.3-6.4,3-8c3.2-1.8,6.9-0.2,9.7,1.6C139.9,101.2,150.4,108.5,148.5,110.6z"/>
	<path d="M127.1,123.1l-0.3-1c-1.3-5-1.8-10.1-1.8-15.3c0-2.2,0.1-6.8,3.5-8.8c2.8-1.6,6.4-1.1,10.6,1.6c0.1,0.1,10,6.5,10.5,10
		c0.1,0.8-0.2,1.3-0.4,1.6l0,0c-3.4,3.9-8.4,6-12.6,7.9L127.1,123.1z M132,98.9c-1,0-1.8,0.2-2.7,0.7c-2.2,1.2-2.5,4.2-2.6,7.2
		c-0.1,4.7,0.5,9.4,1.6,13.9l7.6-3.2c4.2-1.8,8.9-3.8,12.1-7.4l0,0V110c-0.3-2.1-7.6-7.5-9.7-8.9C135.8,99.7,133.8,98.9,132,98.9z"
		/>
</g>
<g>
	<g>
		<path style="fill:#FFFFFF;" d="M9.5,124.8c-1.4,2.4-2.6,5-2.8,7.7c-0.3,5.7,4.6,10.8,10.1,12.3c2.2,0.6,4.6,0.7,6.8,0
			c2.6-0.9,4.8-2.8,6.4-5.1c4.1-5.6,5.5-12.6,5.5-19.5c0-3.2-0.3-6.5-2-9.3C26.1,99.2,13,118.7,9.5,124.8z"/>
		<path d="M20.3,146.1c-1.2,0-2.4-0.2-3.8-0.5c-6.4-1.7-11-7.3-10.7-13.2c0.2-3,1.6-5.8,2.9-8.1l0,0c1.7-2.9,10.9-17.8,19-17.9h0.1
			c2.5,0,4.7,1.4,6.4,4.1c1.9,3,2.1,6.8,2.1,9.7c0,8.2-1.9,14.9-5.7,20c-2,2.7-4.3,4.5-6.8,5.4C22.7,145.9,21.5,146.1,20.3,146.1z
			 M27.7,108.1L27.7,108.1c-7.4,0.1-16.5,15.3-17.6,17.1l0,0c-1.3,2.1-2.5,4.7-2.7,7.3c-0.3,5.5,4.6,10.1,9.4,11.4
			c2.2,0.6,4.5,0.6,6.2,0c2.1-0.7,4.2-2.2,5.9-4.7c3.5-4.8,5.3-11.1,5.3-18.9c0-2.7-0.2-6.1-1.8-8.9
			C31.3,109.2,29.7,108.1,27.7,108.1z"/>
	</g>
	<path style="fill:#82C4FF;" d="M14.6,132.5c-0.1,0-0.2,0-0.3,0c-0.5-0.2-0.7-0.7-0.6-1.1c0.1-0.3,2.3-7.2,6.2-10.6
		c0.4-0.3,0.9-0.3,1.3,0.1c0.3,0.4,0.3,0.9-0.1,1.3c-3.5,3.1-5.7,9.8-5.7,9.9C15.4,132.3,15,132.5,14.6,132.5z"/>
	<path style="fill:#82C4FF;" d="M19.8,137.8c-0.1,0-0.2,0-0.2,0c-0.5-0.1-0.8-0.6-0.6-1.1c0.1-0.4,2.5-8.8,6.1-11.7
		c0.4-0.3,0.9-0.3,1.3,0.1c0.3,0.4,0.3,0.9-0.1,1.2c-3.2,2.5-5.5,10.8-5.5,10.8C20.5,137.6,20.2,137.8,19.8,137.8z"/>
</g>
<g>
	<path style="fill:#7E20FF;" d="M17.9,110.6c3.2,3.7,7.9,5.7,12.3,7.7c2.8,1.2,5.6,2.4,8.5,3.6c1.3-5,1.8-10,1.7-15.1
		c0-2.7-0.3-6.4-3-8c-3.2-1.8-6.9-0.2-9.7,1.6C26.6,101.2,16.1,108.5,17.9,110.6z"/>
	<path d="M39.4,123.1L30,119c-4.4-1.9-9.2-4-12.6-7.9l0,0c-0.3-0.3-0.5-0.8-0.4-1.6c0.5-3.5,10.4-9.9,10.5-10
		c4.2-2.6,7.8-3.1,10.6-1.6c3.4,1.9,3.5,6.5,3.5,8.8c0.1,5.2-0.6,10.3-1.8,15.3L39.4,123.1z M18.6,110c3.1,3.6,7.9,5.7,12.1,7.4
		l7.6,3.2c1.1-4.6,1.6-9.3,1.6-13.9c0-3-0.4-6-2.6-7.2c-2.2-1.3-5.2-0.8-8.8,1.5c-2.1,1.4-9.4,6.7-9.7,8.9l-0.7,0.7L18.6,110z"/>
</g>
<g>
	<path style="fill:#7E20FF;" d="M33.8,95.6c-0.6,4.4-6.1,54.2,15.6,79c8.3,9.5,19.6,14.2,33.7,14.2s25.4-4.8,33.7-14.2
		c21.8-24.8,16.2-74.6,15.6-79H33.8z"/>
	<path d="M83.1,189.6c-14.3,0-25.8-4.9-34.2-14.5C27.1,150.1,32.4,101,33.1,95.4l0.1-0.6h99.9v0.7c0.7,5.6,6,54.6-15.8,79.6
		C108.9,184.7,97.3,189.6,83.1,189.6z M34.4,96.3c-0.4,3.6-1.7,16.2-0.5,31.1c1.7,20.8,7,36.5,16,46.8c8.2,9.4,19.3,14,33.1,14
		s25-4.7,33.1-14c9-10.3,14.4-26,16-46.8c1.2-14.9-0.1-27.5-0.5-31.1C131.7,96.3,34.4,96.3,34.4,96.3z"/>
</g>
<g>
	<g>
		<g>
			<path style="fill:#FFFFFF;" d="M65.3,182.4c-0.5,0.5-0.3,3.6-0.3,4.4c-0.1,1.6-0.2,3.1-0.3,4.7c-0.2,3-0.4,6-0.5,9.1
				c-0.2,4.9-0.5,9.7-0.5,14.7c-2.3-0.5-4.8-1-7.1-1.1c-4-0.1-7.7,1.6-10.7,4.1c-1,0.8-1.8,1.8-2.2,2.9c-0.6,1.9,2.4,6,4.3,6.7
				c6.6,2.2,16.9,1.4,23.4-0.6c0.2-0.1,0.5-0.2,0.7-0.3c0.2-0.2,0.2-0.4,0.2-0.7c2.2-13.3-0.9-27.1-1.5-40.4
				c-0.1-1.2-0.1-2.3-0.8-3.3C69.1,181.6,66.1,181.7,65.3,182.4z"/>
			<path d="M57.5,230c-3.6,0-7.1-0.4-9.9-1.4c-2.1-0.7-5.5-5.4-4.9-7.8c0.4-1.5,1.6-2.5,2.5-3.3c3.4-2.8,7.3-4.3,11.3-4.3
				c2.1,0,4.2,0.4,6.2,0.9c0.1-3.9,0.2-7.9,0.4-11.7l0.1-1.9c0.1-3,0.3-6,0.5-9.1c0.1-1.6,0.2-3.1,0.3-4.7c0-0.2,0-0.5,0-0.9
				c0-2.4,0-3.5,0.6-4l0,0c0.8-0.7,2.4-0.9,3.7-0.8c0.8,0.1,1.7,0.3,2.2,1c0.9,1.2,0.9,2.6,1,3.7c0.2,4.2,0.7,8.4,1.1,12.6
				c1,9.3,1.9,18.8,0.4,28.1c0,0.3-0.1,0.7-0.4,1.1s-0.8,0.5-1.1,0.6C67.6,229.2,62.4,230,57.5,230z M56.2,215
				c-3.5,0-6.9,1.4-9.9,3.9c-0.8,0.7-1.7,1.5-1.9,2.5c-0.4,1.4,2.2,5.2,3.7,5.7c6.4,2.1,16.3,1.4,22.9-0.6c0.1,0,0.2-0.1,0.3-0.1
				l0,0c0,0,0-0.1,0-0.2c1.5-9.1,0.5-18.5-0.4-27.6c-0.4-4.2-0.9-8.5-1.1-12.7c-0.1-1.2-0.1-2.1-0.7-2.8c-0.1-0.1-0.5-0.3-1.3-0.3
				c-0.9,0-1.7,0.1-1.9,0.3c-0.1,0.5-0.1,2-0.1,2.7c0,0.5,0,0.9,0,1.1c-0.1,1.6-0.2,3.1-0.3,4.7c-0.2,3-0.4,6-0.5,9.1l-0.1,1.9
				c-0.2,4.2-0.4,8.5-0.4,12.7c0,0.3-0.1,0.5-0.3,0.7c-0.2,0.2-0.5,0.2-0.7,0.2c-2.2-0.5-4.7-1-7-1.1C56.4,215,56.3,215,56.2,215z
				 M65.8,183L65.8,183L65.8,183L65.8,183z M65.3,182.4L65.3,182.4L65.3,182.4z"/>
		</g>
		<path style="fill:#82C4FF;" d="M67.5,220.4c-0.1,0-0.1,0-0.2,0c-0.5-0.1-0.8-0.6-0.7-1.1c0.5-1.9,0.5-13.2,0.4-17.3
			c0-0.5,0.4-0.9,0.9-0.9l0,0c0.5,0,0.9,0.4,0.9,0.9c0,1.6,0.1,15.4-0.5,17.7C68.3,220.2,67.9,220.4,67.5,220.4z"/>
		<path style="fill:#82C4FF;" d="M54.2,221c-0.5,0-0.8-0.3-0.9-0.8c0-0.5,0.3-0.9,0.8-1c2-0.2,4.2-0.2,6.2-0.1
			c0.5,0,0.9,0.4,0.9,0.9s-0.4,0.9-0.9,0.8C58.3,220.8,56.2,220.8,54.2,221L54.2,221z"/>
		<path style="fill:#82C4FF;" d="M62.2,225.2h-5.6c-0.5,0-0.9-0.4-0.9-0.9c0-0.5,0.4-0.9,0.9-0.9h5.6c0.5,0,0.9,0.4,0.9,0.9
			S62.7,225.2,62.2,225.2z"/>
	</g>
	<g>
		<path style="fill:#FFC800;" d="M57.1,178.3l0.1,16.5c0,0,11.6,2.8,19.4,0v-9.4"/>
		<path d="M68,196.8c-5.7,0-10.8-1.3-11.1-1.3c-0.4-0.1-0.7-0.5-0.7-0.9l-0.1-16.5c0-0.5,0.4-0.9,0.9-0.9l0,0c0.5,0,0.9,0.4,0.9,0.9
			l0.1,15.8c2.4,0.5,11.3,2.1,17.7,0.1v-8.8c0-0.5,0.4-0.9,0.9-0.9s0.9,0.4,0.9,0.9v9.4c0,0.4-0.2,0.7-0.6,0.8
			C74.1,196.5,71,196.8,68,196.8z"/>
	</g>
</g>
<g>
	<g>
		<g>
			<path style="fill:#FFFFFF;" d="M101.2,182.4c0.5,0.5,0.3,3.6,0.3,4.4c0.1,1.6,0.2,3.1,0.3,4.7c0.2,3,0.4,6,0.5,9.1
				c0.2,4.9,0.5,9.7,0.5,14.7c2.3-0.5,4.8-1,7.1-1.1c4-0.1,7.7,1.6,10.7,4.1c1,0.8,1.8,1.8,2.2,2.9c0.6,1.9-2.4,6-4.3,6.7
				c-6.6,2.2-16.9,1.4-23.4-0.6c-0.2-0.1-0.5-0.2-0.7-0.3c-0.2-0.2-0.2-0.4-0.2-0.7c-2.2-13.3,0.9-27.1,1.5-40.4
				c0.1-1.2,0.1-2.3,0.8-3.3C97.2,181.6,100.3,181.7,101.2,182.4z"/>
			<path d="M109,230c-5,0-10.1-0.8-14.1-1.9c-0.3-0.1-0.7-0.2-1.1-0.6c-0.3-0.4-0.4-0.8-0.4-1.1c-1.6-9.3-0.6-18.8,0.4-28.1
				c0.4-4.1,0.9-8.4,1.1-12.6c0.1-1.2,0.1-2.5,1-3.7c0.5-0.7,1.6-1,2.2-1c1.2-0.1,2.8,0.1,3.7,0.8c0.6,0.5,0.6,1.5,0.6,4
				c0,0.4,0,0.7,0,0.9c0.1,1.6,0.2,3.1,0.3,4.7c0.2,3,0.4,6,0.5,9.1l0.1,1.9c0.2,3.8,0.4,7.8,0.4,11.7c2-0.4,4.1-0.8,6.2-0.9
				c4.1-0.1,7.9,1.4,11.3,4.3c1,0.9,2,1.9,2.5,3.3c0.8,2.4-2.7,7-4.9,7.8C116.1,229.6,112.6,230,109,230z M95.2,226.4h0.2
				c6.5,1.9,16.5,2.7,22.9,0.6c1.5-0.5,4.1-4.3,3.7-5.7c-0.3-1-1.2-1.9-1.9-2.5c-3-2.5-6.5-3.9-10.1-3.9c-2.3,0-4.7,0.6-7,1.1
				c-0.3,0.1-0.5,0-0.7-0.2c-0.2-0.2-0.3-0.4-0.3-0.7c0-4.2-0.2-8.6-0.4-12.7l-0.1-1.9c-0.1-3-0.3-6-0.5-9.1
				c-0.1-1.6-0.2-3.1-0.3-4.7c0-0.2,0-0.6,0-1.1c0-0.7,0-2.2-0.1-2.7c-0.3-0.2-1.1-0.4-1.9-0.3c-0.8,0-1.2,0.2-1.3,0.3
				c-0.5,0.7-0.6,1.7-0.7,2.8c-0.2,4.2-0.7,8.5-1.1,12.7c-1,9.2-1.9,18.6-0.4,27.6C95.2,226.2,95.2,226.3,95.2,226.4L95.2,226.4z
				 M100.5,183L100.5,183L100.5,183L100.5,183z"/>
		</g>
		<path style="fill:#82C4FF;" d="M98.9,220.4c-0.4,0-0.8-0.3-0.9-0.7c-0.6-2.3-0.5-16.2-0.5-17.7c0-0.5,0.4-0.9,0.9-0.9l0,0
			c0.5,0,0.9,0.4,0.9,0.9c0,4.2,0,15.5,0.4,17.3C99.8,219.8,99.5,220.3,98.9,220.4C99.1,220.4,99,220.4,98.9,220.4z"/>
		<path style="fill:#82C4FF;" d="M112.3,221C112.2,221,112.2,221,112.3,221c-2-0.2-4.1-0.2-6.1-0.1c-0.5,0-0.9-0.4-0.9-0.8
			c0-0.5,0.4-0.9,0.9-0.9c2-0.1,4.2-0.1,6.2,0.1c0.5,0,0.9,0.5,0.8,1C113.1,220.6,112.7,221,112.3,221z"/>
		<path style="fill:#82C4FF;" d="M109.9,225.2h-5.6c-0.5,0-0.9-0.4-0.9-0.9c0-0.5,0.4-0.9,0.9-0.9h5.6c0.5,0,0.9,0.4,0.9,0.9
			S110.4,225.2,109.9,225.2z"/>
	</g>
	<g>
		<path style="fill:#FFC800;" d="M109.2,178.3l-0.1,16.5c0,0-11.6,2.8-19.4,0v-9.4"/>
		<path d="M98.2,196.8c-3,0-6.1-0.3-8.8-1.4c-0.4-0.1-0.6-0.5-0.6-0.8v-9.4c0-0.5,0.4-0.9,0.9-0.9s0.9,0.4,0.9,0.9v8.8
			c6.5,2,15.3,0.5,17.7-0.1l0.1-15.8c0-0.5,0.4-0.9,0.9-0.9l0,0c0.5,0,0.9,0.4,0.9,0.9l-0.1,16.5c0,0.4-0.3,0.8-0.7,0.9
			C109,195.6,103.9,196.8,98.2,196.8z"/>
	</g>
</g>
<g>
	<g>
		<path style="fill:#00DA01;" d="M45.3,111.3c1.6,0.8,3.4,1.1,5.2,1.4c3.1,0.7,6.1,1.9,8.8,3.5c-3.4,0.9-7.1,0.8-10.5-0.4
			c5.2,1.9,10.6,4,13.4,8.6c-3.6-0.4-7.1-1.8-10.1-3.9c4.4,2.4,7.6,6.6,8.6,11.5c-3.5-1.8-6.6-4.2-9.1-7.1
			c3.1,4.7,4.3,10.6,3.2,16.1c-3.5-3.5-5.8-8.3-6.4-13.2c0.3,3.3-1.2,6.7-3.9,8.7c-1.4-3.8-1.3-8,0.1-11.8c-1.7,1.7-4.1,2.7-6.5,2.8
			c1.3-3.1,2.8-6,4.9-8.7c-2.5,1.1-5.2,1.9-8.1,2.2c0.8-3.7,3.6-6.9,7.2-8.3c-2.3-2.5-4.6-5.1-6.9-7.7
			C38.9,101.4,41.9,109.6,45.3,111.3z"/>
		<path d="M54.9,141.8c-0.2,0-0.5-0.1-0.6-0.3c-2.5-2.5-4.5-5.7-5.6-9.2c-0.7,1.9-1.9,3.5-3.5,4.7c-0.2,0.2-0.5,0.2-0.8,0.1
			c-0.3-0.1-0.5-0.3-0.6-0.6c-1.1-3.1-1.3-6.5-0.6-9.7c-1.5,0.9-3.2,1.4-5,1.4c-0.3,0-0.6-0.1-0.8-0.4c-0.2-0.2-0.2-0.6-0.1-0.8
			c0.9-2.2,2-4.5,3.4-6.5c-1.8,0.6-3.7,1.1-5.6,1.3c-0.3,0-0.6-0.1-0.8-0.3c-0.2-0.2-0.3-0.5-0.2-0.8c0.8-3.6,3.3-6.7,6.6-8.5
			l-6.1-6.8c-0.3-0.4-0.3-0.9,0-1.2c0.9-0.9,1.7-1.3,2.7-1.2c1.9,0.1,3.6,2.1,5.2,4.1c1.1,1.4,2.1,2.7,3.2,3.2l0,0
			c1.2,0.6,2.4,0.9,3.8,1.1c0.4,0.1,0.7,0.1,1.1,0.2c3.2,0.7,6.3,1.9,9.1,3.6c0.3,0.2,0.5,0.5,0.4,0.9s-0.3,0.6-0.7,0.7
			c-1.4,0.3-2.7,0.5-4.1,0.6c3.1,1.6,5.7,3.5,7.5,6.3c0.2,0.3,0.2,0.7,0,0.9c-0.2,0.3-0.5,0.4-0.9,0.4c-1.4-0.2-2.7-0.5-4.1-0.9
			c1.7,2.1,3,4.7,3.6,7.4c0.1,0.3,0,0.7-0.3,0.9c-0.3,0.2-0.6,0.2-1,0.1c-1.9-1-3.9-2.2-5.6-3.6c1.4,3.8,1.7,8,1,12
			c-0.1,0.3-0.3,0.6-0.6,0.7C55.1,141.8,55,141.8,54.9,141.8z M48.4,126.9c0.4,0,0.8,0.3,0.9,0.8c0.5,4.2,2.2,8.2,5.1,11.4
			c0.5-4.8-0.7-9.6-3.4-13.7c-0.3-0.4-0.2-0.9,0.2-1.2c0.4-0.3,0.9-0.2,1.2,0.1c1.9,2.3,4.4,4.3,7,5.8c-1.2-3-3.2-5.7-5.8-7.7
			c-0.7-0.4-1.3-0.8-1.9-1.3c-0.4-0.3-0.5-0.8-0.2-1.2c0.3-0.4,0.8-0.5,1.2-0.3c0.7,0.4,1.3,0.8,1.9,1.3c1.8,1,3.8,1.8,5.8,2.2
			c-2.7-3.1-7.1-4.9-11.8-6.5c-0.5-0.2-0.7-0.7-0.5-1.1c0.2-0.5,0.7-0.7,1.1-0.6c2.4,0.8,5.1,1.1,7.7,0.8c-2-1-4.2-1.8-6.4-2.2
			c-0.4-0.1-0.7-0.1-1.1-0.2c-1.5-0.3-2.9-0.6-4.3-1.3s-2.6-2.2-3.8-3.7c-1.4-1.7-2.7-3.4-3.9-3.4c-0.3,0-0.5,0-0.8,0.2l6.3,7
			c0.2,0.2,0.3,0.5,0.2,0.8c-0.1,0.3-0.3,0.5-0.5,0.6c-2.9,1.1-5.2,3.6-6.3,6.4c2.2-0.4,4.5-1.1,6.5-1.9c0.4-0.2,0.8-0.1,1.1,0.3
			c0.3,0.3,0.3,0.8,0,1.1c-1.7,2.2-3,4.6-4.2,7.1c1.7-0.3,3.3-1.2,4.6-2.3c0.3-0.3,0.8-0.3,1.1-0.1c0.4,0.2,0.5,0.7,0.4,1.1
			c-1.2,3.1-1.4,6.7-0.5,9.9c1.8-1.9,2.8-4.5,2.5-7C47.6,127.4,47.9,127,48.4,126.9C48.3,126.9,48.4,126.9,48.4,126.9z"/>
	</g>
	<g>
		<path style="fill:#00DA01;" d="M74.3,138c0.7-1.7,0.8-3.4,1.1-5.2c0.5-3.1,1.5-6.1,3-9c1.1,3.3,1.2,7,0.3,10.4
			c1.6-5.2,3.3-10.7,7.8-13.8c-0.2,3.6-1.4,7.2-3.3,10.2c2.1-4.5,6.2-7.9,11-9.3c-1.6,3.5-3.8,6.8-6.6,9.5c4.5-3.4,10.4-5,15.9-4.2
			c-3.3,3.7-7.9,6.3-12.8,7.2c3.3-0.5,6.8,0.8,8.9,3.3c-3.7,1.6-8,1.8-11.9,0.6c1.8,1.6,3,3.9,3.2,6.3c-3.2-1.1-6.2-2.4-8.9-4.3
			c1.3,2.4,2.1,5.2,2.7,7.9c-3.8-0.6-7.2-3.1-8.7-6.6c-2.4,2.4-4.9,4.9-7.3,7.3C64.7,144.9,72.7,141.5,74.3,138z"/>
		<path d="M68.7,149.3c-0.2,0-0.4-0.1-0.6-0.2c-0.9-0.8-1.4-1.7-1.4-2.6c0-1.9,1.9-3.7,3.8-5.4c1.3-1.2,2.6-2.3,3-3.4
			c0.5-1.2,0.7-2.4,0.9-3.8c0-0.4,0.1-0.7,0.2-1.1c0.5-3.2,1.6-6.3,3.1-9.3c0.2-0.3,0.5-0.5,0.9-0.5c0.4,0,0.7,0.3,0.8,0.6
			c0.4,1.3,0.7,2.6,0.8,4c1.4-3.1,3.1-5.9,5.9-7.8c0.3-0.2,0.6-0.2,0.9,0c0.3,0.2,0.5,0.5,0.5,0.8c-0.1,1.4-0.3,2.7-0.6,4.1
			c2-1.9,4.6-3.2,7.2-4c0.3-0.1,0.7,0,0.9,0.3c0.2,0.3,0.3,0.6,0.2,0.9c-0.9,2-2,4-3.3,5.7c3.8-1.7,8-2.2,12.1-1.7
			c0.3,0,0.6,0.3,0.7,0.6c0.1,0.3,0,0.7-0.2,0.9c-2.4,2.7-5.4,4.8-8.8,6.1c1.8,0.6,3.6,1.8,4.9,3.2c0.2,0.2,0.3,0.5,0.2,0.8
			c-0.1,0.3-0.3,0.5-0.5,0.6c-3,1.3-6.5,1.7-9.8,1.2c1,1.5,1.6,3.1,1.7,4.8c0,0.3-0.1,0.6-0.3,0.8c-0.2,0.2-0.6,0.2-0.8,0.2
			c-2.3-0.8-4.6-1.8-6.8-2.9c0.7,1.8,1.3,3.6,1.7,5.6c0.1,0.3,0,0.6-0.2,0.8c-0.2,0.2-0.5,0.3-0.8,0.3c-3.7-0.6-7-2.8-8.8-6
			l-6.4,6.5C69.1,149.2,68.9,149.3,68.7,149.3z M78.2,126.5c-0.9,2-1.6,4.3-1.8,6.5c-0.1,0.4-0.1,0.7-0.2,1.1
			c-0.2,1.5-0.4,2.9-1,4.3l0,0c-0.6,1.4-2,2.7-3.5,4c-1.6,1.5-3.2,2.9-3.2,4.1c0,0.3,0.1,0.5,0.2,0.8l6.6-6.6
			c0.2-0.2,0.5-0.3,0.8-0.3c0.3,0.1,0.5,0.2,0.7,0.5c1.3,2.8,3.9,5,6.8,5.8c-0.5-2.2-1.3-4.3-2.3-6.3c-0.2-0.4-0.1-0.8,0.2-1.1
			c0.3-0.3,0.7-0.3,1.1-0.1c2.3,1.5,4.8,2.7,7.4,3.7c-0.5-1.7-1.4-3.2-2.6-4.4c-0.3-0.3-0.4-0.7-0.2-1.1c0.2-0.4,0.6-0.5,1-0.4
			c3.2,1,6.8,1,10-0.1c-1.9-1.8-4.7-2.5-7.2-2.1c-0.5,0.1-0.9-0.2-1-0.7c-0.1-0.5,0.2-0.9,0.7-1c4.2-0.8,8.1-2.7,11.1-5.7
			c-4.9-0.2-9.7,1.3-13.5,4.2c-0.4,0.3-0.9,0.2-1.2-0.1c-0.3-0.4-0.3-0.9,0.1-1.2c2.2-2.1,4.1-4.6,5.5-7.3c-3,1.4-5.6,3.5-7.4,6.2
			c-0.3,0.7-0.7,1.4-1.2,1.9c-0.3,0.4-0.8,0.5-1.2,0.3c-0.4-0.2-0.6-0.7-0.4-1.2c0.3-0.7,0.7-1.4,1.2-1.9c0.9-1.9,1.6-3.8,1.8-5.8
			c-3,2.9-4.5,7.4-5.8,12.1c-0.1,0.5-0.6,0.7-1.1,0.6c-0.5-0.1-0.8-0.6-0.6-1.1C78.5,131.7,78.6,129,78.2,126.5z M74.3,138L74.3,138
			L74.3,138z"/>
	</g>
	<g>
		<g>
			<path style="fill:#FF563F;" d="M109.7,135.1c-1.1,0-2.1-0.3-3.2-0.2c-3.2,0.4-5.6,3.7-5.2,6.8s4,5.5,7.1,4.8
				c-0.5,1.5-0.9,3-0.1,4.4c0.5,0.8,1.3,1.3,2,1.7c2.1,1,4.8,1.3,6.8,0.1c2.1-1.1,3.4-3.7,2.6-5.9c2.1,2.2,6.4,1.8,8-0.9
				c1.6-2.7-0.2-6.6-3.2-7.3c2.2-1.8,2.9-5.4,1.2-7.5c-1.7-2.2-5.8-2.1-7.3,0.3c-0.4-2.5-3.9-3.6-6-2.2c-1.1,0.6-1.7,1.7-2.1,2.7
				C110.2,132,109.4,135.1,109.7,135.1z"/>
			<path d="M114,154.2c-1.4,0-2.7-0.3-4.1-1c-1.2-0.6-1.9-1.2-2.4-2c-0.7-1.2-0.6-2.5-0.3-3.8c-1.4,0-2.6-0.4-3.8-1.3
				c-1.6-1.1-2.6-2.6-2.9-4.4c-0.3-1.8,0.2-3.6,1.4-5.1c1.2-1.6,2.8-2.5,4.6-2.7c0.8-0.1,1.4,0,2,0.1c0.1,0,0.3,0,0.4,0.1
				c0.1-1.3,0.7-2.7,0.7-2.8c0.5-1.4,1.4-2.5,2.5-3.2c1.4-0.9,3.3-0.9,4.9-0.2c0.8,0.4,1.5,0.9,1.8,1.6c0.8-0.7,1.8-1.1,3-1.1
				c1.8-0.2,3.6,0.6,4.7,1.9c1,1.2,1.4,2.7,1.2,4.4c-0.2,1.3-0.7,2.4-1.5,3.4c1.1,0.6,2,1.7,2.5,2.9c0.8,1.8,0.7,3.7-0.2,5.2
				c-0.9,1.5-2.5,2.5-4.5,2.7c-1.2,0.1-2.2,0-3.2-0.5c-0.2,1.9-1.4,3.9-3.3,4.9C116.6,153.9,115.3,154.2,114,154.2z M108.4,145.5
				c0.2,0,0.5,0.1,0.7,0.3s0.3,0.6,0.2,0.9c-0.4,1.4-0.8,2.7-0.2,3.7c0.3,0.5,0.8,0.9,1.7,1.3c2.1,1,4.4,1.1,6,0.2
				c1.8-1,2.8-3.2,2.1-4.9c-0.1-0.4,0-0.8,0.4-1.1c0.4-0.2,0.8-0.2,1.1,0.2c0.8,0.9,2.1,1.3,3.5,1.2c1.4-0.2,2.5-0.9,3.1-1.9
				c0.6-1,0.6-2.3,0.1-3.6c-0.6-1.3-1.6-2.1-2.7-2.4c-0.3-0.1-0.6-0.3-0.7-0.7c-0.1-0.3,0.1-0.7,0.3-0.9c1-0.7,1.7-1.9,1.7-3.2
				c0.2-1.2-0.1-2.2-0.8-3.1c-0.7-0.9-1.9-1.4-3.2-1.3c-1.2,0.1-2.1,0.6-2.6,1.5c-0.2,0.3-0.6,0.5-0.9,0.4c-0.4-0.1-0.7-0.4-0.7-0.7
				c-0.1-1-1-1.6-1.5-1.8c-1.1-0.5-2.3-0.5-3.2,0.1c-1,0.6-1.6,1.6-1.8,2.3c-0.1,0.4-0.6,2.1-0.6,2.7c0,0.1,0.1,0.2,0.1,0.3
				c0,0.5-0.4,0.9-0.9,0.9l0,0l0,0l0,0c-0.6,0-1.1-0.1-1.6-0.1c-0.6-0.1-1.1-0.1-1.6-0.1c-1.3,0.2-2.5,0.9-3.4,2
				c-0.9,1.2-1.3,2.5-1,3.8c0.2,1.3,1,2.4,2.2,3.2C105.6,145.6,107,145.9,108.4,145.5C108.3,145.5,108.3,145.5,108.4,145.5z"/>
		</g>
		<g>
			<path style="fill:#FCFD00;" d="M114.3,136.4c-1,0.6-1.1,2.1-0.2,2.9c-0.8-0.1-1.6,0.5-2,1.2c-0.5,0.6-0.9,1.5-0.4,2
				c0.2,0.2,0.5,0.4,0.8,0.5c1.1,0.3,2.2,0.1,3.2-0.5c-0.3,0.8,0.3,1.8,1.1,1.9c0.8,0.2,1.7-0.2,2.1-1c0.4-0.7,0.4-1.7,0.1-2.4
				c0.7,0.1,1.5,0.1,1.8-0.3c0.3-0.3,0.4-0.7,0.5-1.1c0.2-0.8,0.2-1.8-0.4-2.2c-0.2-0.2-0.6-0.3-0.9-0.4c-1.1-0.2-2.1,0.3-2.8,1.1
				C117.5,136.6,115.5,135.5,114.3,136.4z"/>
			<path d="M117.2,145.3c-0.2,0-0.5,0-0.7-0.1c-0.7-0.2-1.2-0.6-1.6-1.3c0-0.1-0.1-0.1-0.1-0.2c-0.9,0.3-1.8,0.3-2.7,0
				c-0.5-0.2-0.9-0.4-1.2-0.8c-0.7-0.8-0.5-2,0.4-3.1c0.5-0.6,0.9-1,1.4-1.2c-0.1-0.3-0.1-0.7-0.1-1c0.1-0.9,0.5-1.7,1.2-2l0,0
				c0.9-0.6,2-0.6,3,0.1c0.4,0.3,0.7,0.6,0.9,0.9c0.8-0.4,1.6-0.5,2.4-0.4c0.5,0.1,1,0.3,1.3,0.6c0.5,0.5,1.1,1.4,0.7,3
				c-0.1,0.5-0.3,1.1-0.8,1.5c-0.4,0.4-0.9,0.6-1.4,0.6c0,0.7-0.1,1.4-0.5,1.9C119.1,144.7,118.1,145.3,117.2,145.3z M115.6,141.5
				c0.2,0,0.4,0.1,0.5,0.2c0.3,0.2,0.4,0.6,0.3,1c0,0.1,0,0.3,0.1,0.4c0.1,0.2,0.3,0.3,0.5,0.4c0.4,0.1,0.9-0.1,1.2-0.6
				s0.3-1.1,0-1.7c-0.1-0.3-0.1-0.6,0.1-0.9s0.5-0.4,0.8-0.3c0.3,0,1,0.1,1.2-0.1c0.1-0.1,0.2-0.5,0.2-0.6c0.1-0.7,0.1-1.2-0.1-1.4
				c-0.1-0.1-0.2-0.1-0.5-0.2c-0.7-0.1-1.5,0.2-1.9,0.8c-0.3,0.3-0.7,0.4-1.1,0.3c-0.4-0.2-0.6-0.6-0.5-1c0.1-0.5-0.4-0.8-0.5-0.9
				c-0.3-0.2-0.8-0.3-1.2-0.1l0,0c-0.2,0.2-0.4,0.4-0.4,0.8c0,0.3,0.1,0.6,0.3,0.8c0.3,0.3,0.4,0.7,0.2,1c-0.2,0.4-0.5,0.6-0.9,0.5
				c-0.6-0.1-1.1,0.6-1.3,0.8c-0.4,0.5-0.5,0.9-0.4,1c0,0,0.1,0.1,0.4,0.2c0.8,0.3,1.7,0.1,2.4-0.4
				C115.3,141.6,115.4,141.5,115.6,141.5z M114.3,136.4L114.3,136.4L114.3,136.4z"/>
		</g>
	</g>
	<g>
		<g>
			<path style="fill:#FF563F;" d="M47.3,135.1c-1.1,0-2.1-0.3-3.2-0.2c-3.2,0.4-5.6,3.7-5.2,6.8s4,5.5,7.1,4.8
				c-0.5,1.5-0.9,3-0.1,4.4c0.5,0.8,1.3,1.3,2,1.7c2.1,1,4.8,1.3,6.8,0.1c2.1-1.1,3.4-3.7,2.6-5.9c2.1,2.2,6.4,1.8,8-0.9
				c1.6-2.6-0.2-6.6-3.2-7.3c2.2-1.8,2.9-5.4,1.2-7.5c-1.7-2.2-5.8-2.1-7.3,0.3c-0.4-2.5-3.9-3.6-6-2.2c-1.1,0.6-1.7,1.7-2.1,2.7
				C47.8,132,47,135.1,47.3,135.1z"/>
			<path d="M51.7,154.2c-1.4,0-2.7-0.3-4.1-1c-1.2-0.6-1.9-1.2-2.4-2c-0.7-1.2-0.6-2.5-0.3-3.8c-1.4,0-2.6-0.4-3.8-1.3
				c-1.6-1.1-2.6-2.6-2.9-4.4c-0.3-1.8,0.2-3.6,1.4-5.1c1.2-1.6,2.8-2.5,4.6-2.7c0.8-0.1,1.4,0,2,0.1c0.1,0,0.3,0,0.4,0.1
				c0.1-1.3,0.7-2.7,0.7-2.8c0.5-1.4,1.4-2.5,2.5-3.2c1.4-0.9,3.3-0.9,4.9-0.2c0.8,0.4,1.5,0.9,1.8,1.6c0.8-0.7,1.8-1.1,3-1.1
				c1.8-0.2,3.6,0.6,4.7,1.9c1,1.2,1.4,2.7,1.2,4.4c-0.2,1.3-0.7,2.4-1.5,3.4c1.1,0.6,2,1.7,2.5,2.9c0.8,1.8,0.7,3.7-0.2,5.2
				c-0.9,1.5-2.5,2.5-4.5,2.7c-1.2,0.1-2.2,0-3.2-0.5c-0.2,1.9-1.4,3.9-3.3,4.9C54.2,153.9,52.9,154.2,51.7,154.2z M46,145.5
				c0.2,0,0.5,0.1,0.7,0.3c0.2,0.2,0.3,0.6,0.2,0.9c-0.4,1.4-0.8,2.7-0.2,3.7c0.3,0.5,0.8,0.9,1.7,1.3c2.1,1,4.4,1.1,6,0.2
				c1.8-1,2.8-3.2,2.1-4.9c-0.1-0.4,0-0.8,0.4-1.1c0.4-0.2,0.8-0.2,1.1,0.2c0.8,0.9,2.1,1.3,3.5,1.2c1.4-0.2,2.5-0.9,3.1-1.9
				c0.6-1.1,0.6-2.4,0.1-3.6c-0.6-1.3-1.6-2.1-2.7-2.4c-0.3-0.1-0.6-0.3-0.7-0.7c-0.1-0.3,0.1-0.7,0.3-0.9c1-0.7,1.7-1.9,1.7-3.2
				c0.2-1.2-0.1-2.2-0.8-3.1s-1.9-1.4-3.2-1.3c-1.2,0.1-2.1,0.6-2.6,1.5c-0.2,0.3-0.6,0.5-0.9,0.4c-0.4-0.1-0.7-0.4-0.7-0.7
				c-0.1-1-1-1.6-1.5-1.8c-1.1-0.5-2.3-0.5-3.2,0.1c-1,0.6-1.6,1.6-1.8,2.3c-0.1,0.4-0.6,2.1-0.6,2.7c0,0.1,0.1,0.2,0.1,0.3
				c0,0.5-0.4,0.9-0.9,0.9l0,0l0,0l0,0c-0.6,0-1.1-0.1-1.6-0.1c-0.6-0.1-1.1-0.1-1.6-0.1c-1.3,0.2-2.5,0.9-3.4,2
				c-0.9,1.2-1.3,2.5-1,3.8c0.2,1.3,1,2.4,2.2,3.2C43.2,145.6,44.7,145.9,46,145.5C45.9,145.5,45.9,145.5,46,145.5z M47.3,134.2
				L47.3,134.2L47.3,134.2z"/>
		</g>
		<g>
			<path style="fill:#FCFD00;" d="M51.9,136.4c-1,0.6-1.1,2.1-0.2,2.9c-0.8-0.1-1.6,0.5-2,1.2c-0.5,0.6-0.9,1.5-0.4,2
				c0.2,0.2,0.5,0.4,0.8,0.5c1.1,0.3,2.2,0.1,3.2-0.5c-0.3,0.8,0.3,1.8,1.1,1.9c0.8,0.2,1.7-0.2,2.1-1c0.4-0.7,0.4-1.7,0.1-2.4
				c0.7,0.1,1.5,0.1,1.8-0.3c0.3-0.3,0.4-0.7,0.5-1.1c0.2-0.8,0.2-1.8-0.4-2.2c-0.2-0.2-0.6-0.3-0.9-0.4c-1.1-0.2-2.1,0.3-2.8,1.1
				C55.1,136.6,53.1,135.5,51.9,136.4z"/>
			<path d="M54.8,145.3c-0.2,0-0.5,0-0.7-0.1c-0.7-0.2-1.2-0.6-1.6-1.3c0-0.1-0.1-0.1-0.1-0.2c-0.9,0.3-1.8,0.3-2.7,0
				c-0.5-0.2-0.9-0.4-1.2-0.8c-0.7-0.8-0.5-2,0.4-3.1c0.5-0.6,0.9-1,1.4-1.2c-0.1-0.3-0.1-0.7-0.1-1c0.1-0.9,0.5-1.7,1.2-2
				c0.9-0.6,2-0.6,3,0.1c0.4,0.3,0.7,0.6,0.9,0.9c0.8-0.4,1.6-0.5,2.4-0.4c0.5,0.1,1,0.3,1.3,0.6c0.5,0.5,1.1,1.4,0.7,3
				c-0.1,0.5-0.3,1.1-0.8,1.5c-0.4,0.4-0.9,0.6-1.4,0.6c0,0.7-0.1,1.4-0.5,1.9C56.7,144.7,55.7,145.3,54.8,145.3z M53.2,141.5
				c0.2,0,0.4,0.1,0.5,0.2c0.3,0.2,0.4,0.6,0.3,1c0,0.1,0,0.3,0.1,0.4c0.1,0.2,0.3,0.3,0.5,0.4c0.4,0.1,0.9-0.1,1.2-0.6
				s0.3-1.1,0-1.7c-0.1-0.3-0.1-0.6,0.1-0.9c0.2-0.3,0.5-0.4,0.8-0.3c0.3,0,1,0.1,1.2-0.1c0.1-0.1,0.2-0.5,0.2-0.6
				c0.1-0.7,0.1-1.2-0.1-1.4c-0.1-0.1-0.2-0.1-0.5-0.2c-0.7-0.1-1.5,0.2-1.9,0.8c-0.3,0.3-0.7,0.4-1.1,0.3c-0.4-0.2-0.6-0.6-0.5-1
				c0.1-0.5-0.4-0.8-0.5-0.9c-0.3-0.2-0.8-0.3-1.2-0.1l0,0c-0.2,0.2-0.4,0.4-0.4,0.8c0,0.4,0.1,0.6,0.3,0.8c0.3,0.3,0.4,0.7,0.2,1
				c-0.2,0.4-0.5,0.6-0.9,0.5c-0.5,0-1.1,0.6-1.3,0.9c-0.4,0.5-0.5,0.9-0.4,1c0,0,0.1,0.1,0.4,0.2c0.8,0.3,1.7,0.1,2.4-0.4
				C52.9,141.6,53,141.5,53.2,141.5z M51.9,136.4L51.9,136.4L51.9,136.4z"/>
		</g>
	</g>
	<g>
		<path style="fill:#00DA01;" d="M120.6,109.8c-1.6,0.8-3.4,1.1-5.2,1.4c-3.1,0.7-6.1,1.9-8.8,3.5c3.4,0.9,7.1,0.8,10.5-0.4
			c-5.2,1.9-10.6,4-13.4,8.6c3.6-0.4,7.1-1.8,10.1-3.9c-4.4,2.4-7.6,6.6-8.6,11.5c3.5-1.8,6.6-4.2,9.1-7.1
			c-3.1,4.7-4.3,10.6-3.2,16.1c3.5-3.5,5.8-8.3,6.4-13.2c-0.3,3.3,1.2,6.7,3.9,8.7c1.4-3.8,1.3-8-0.1-11.8c1.7,1.7,4.1,2.7,6.5,2.8
			c-1.3-3.1-2.8-6-4.9-8.7c2.5,1.1,5.2,1.9,8.1,2.2c-0.8-3.7-3.6-6.9-7.2-8.3c2.3-2.5,4.6-5.1,6.9-7.7
			C126.9,99.9,124,108.1,120.6,109.8z"/>
		<path d="M110.9,140.3c-0.1,0-0.2,0-0.3,0c-0.3-0.1-0.6-0.4-0.6-0.7c-0.8-4-0.4-8.2,1-12c-1.7,1.5-3.6,2.6-5.6,3.6
			c-0.3,0.2-0.7,0.1-1-0.1c-0.3-0.2-0.4-0.6-0.3-0.9c0.6-2.7,1.8-5.3,3.6-7.4c-1.4,0.4-2.7,0.7-4.1,0.9c-0.3,0-0.7-0.1-0.9-0.4
			c-0.2-0.3-0.2-0.6,0-0.9c1.7-2.8,4.4-4.8,7.5-6.3c-1.4-0.1-2.7-0.2-4.1-0.6c-0.4-0.1-0.6-0.4-0.7-0.7c-0.1-0.4,0.1-0.7,0.4-0.9
			c2.8-1.8,5.9-2.9,9.1-3.6c0.4-0.1,0.7-0.1,1.1-0.2c1.4-0.3,2.6-0.5,3.8-1.1l0,0c1.1-0.6,2.1-1.9,3.2-3.2c1.6-1.9,3.2-4,5.2-4.1
			c1-0.1,1.8,0.4,2.7,1.2c0.3,0.3,0.4,0.9,0,1.2l-6.1,6.8c3.3,1.7,5.7,4.8,6.6,8.5c0.1,0.3,0,0.6-0.2,0.8c-0.2,0.2-0.5,0.3-0.8,0.3
			c-1.9-0.2-3.8-0.7-5.6-1.3c1.4,2,2.4,4.3,3.4,6.5c0.1,0.3,0.1,0.6-0.1,0.8c-0.2,0.2-0.5,0.4-0.8,0.4c-1.7-0.1-3.4-0.6-5-1.4
			c0.7,3.2,0.5,6.7-0.6,9.7c-0.1,0.3-0.3,0.5-0.6,0.6c-0.3,0.1-0.6,0-0.8-0.1c-1.6-1.2-2.8-2.8-3.5-4.7c-1.2,3.4-3.1,6.5-5.6,9.2
			C111.4,140.2,111.1,140.3,110.9,140.3z M114.1,122.5c0.2,0,0.4,0.1,0.5,0.2c0.4,0.3,0.5,0.8,0.2,1.2c-2.7,4-3.9,9-3.4,13.7
			c2.7-3.2,4.5-7.2,5.1-11.4c0.1-0.5,0.5-0.8,1-0.8c0.5,0.1,0.8,0.5,0.8,1c-0.3,2.5,0.8,5.3,2.5,7c0.9-3.2,0.7-6.8-0.5-9.9
			c-0.1-0.4,0-0.8,0.4-1.1c0.4-0.2,0.8-0.2,1.1,0.1c1.3,1.2,2.8,2,4.6,2.3c-1.2-2.5-2.5-4.9-4.2-7.1c-0.2-0.3-0.2-0.8,0-1.1
			c0.3-0.3,0.7-0.4,1.1-0.3c2,0.9,4.3,1.6,6.5,1.9c-1.1-2.9-3.4-5.4-6.3-6.4c-0.3-0.1-0.5-0.3-0.5-0.6c-0.1-0.3,0-0.6,0.2-0.8l6.3-7
			c-0.3-0.1-0.5-0.2-0.8-0.2c-1.2,0.1-2.6,1.8-3.9,3.4c-1.2,1.5-2.4,3-3.8,3.7l0,0c-1.4,0.7-2.8,1-4.3,1.3c-0.4,0.1-0.7,0.1-1.1,0.2
			c-2.2,0.5-4.4,1.3-6.4,2.2c2.5,0.3,5.2,0,7.7-0.8c0.5-0.2,1,0.1,1.1,0.6c0.2,0.5-0.1,1-0.5,1.1c-4.6,1.7-8.9,3.4-11.8,6.5
			c2-0.4,4-1.2,5.7-2.2c0.6-0.5,1.3-0.9,1.9-1.3c0.4-0.2,0.9-0.1,1.2,0.3c0.3,0.4,0.2,0.9-0.2,1.2c-0.6,0.5-1.3,0.9-1.9,1.3
			c-2.6,1.9-4.7,4.7-5.8,7.7c2.6-1.6,5.1-3.6,7-5.8C113.7,122.6,113.9,122.5,114.1,122.5z"/>
	</g>
</g>
<path d="M94.1,120.9c-0.1,0-0.2,0-0.3,0c-0.8-0.1-1.3-0.6-1.7-0.9l-8.8-8.2c-3.4,2.8-6.8,5.5-10.4,8.1c-0.2,0.2-0.5,0.2-0.8,0.1
	c-7.2-2.4-13.5-7.1-18-13.3c-0.3-0.4-0.2-1,0.2-1.2c0.4-0.3,1-0.2,1.3,0.2c4.1,5.7,10,10.1,16.6,12.5c3.6-2.6,7.1-5.4,10.5-8.3
	c0.3-0.3,0.9-0.3,1.2,0l9.4,8.7c0.2,0.2,0.5,0.5,0.7,0.5c0.2,0,0.5-0.1,0.7-0.2c7.4-3.2,13.8-6.4,17.2-12.4c0.2-0.4,0.8-0.6,1.2-0.3
	c0.4,0.2,0.6,0.8,0.3,1.2c-4,6.9-12.1,10.4-18,13.1C95.2,120.6,94.7,120.9,94.1,120.9z"/>
<g>
	<g>
		<path style="fill:#FFFFFF;" d="M33.9,96c0.8,1.1,9.8,13.2,50,13.2c40.2,0,48-12.1,48.6-13.2c-0.1-1.6-1.2-21.7-7.5-41.6
			c-6-19-18.2-41.5-41.8-41.5S47.4,35.5,41.3,54.4C35,74.2,34,94.3,33.9,96z"/>
		<path d="M83.8,109.6c-40.1,0-49.5-12-50.3-13.4l-0.1-0.1V96c0.1-2.1,1.3-21.9,7.5-41.7c6-19.1,18.4-41.9,42.3-41.9
			s36.2,22.8,42.3,41.9c6.3,19.8,7.4,39.6,7.5,41.7v0.1l-0.1,0.1C132,97.7,124.1,109.6,83.8,109.6z M34.4,95.8
			c1.4,1.9,10.9,12.8,49.5,12.8c38.8,0,47.2-11.4,48.1-12.8c-0.2-2.8-1.4-22.1-7.5-41.3c-5.9-18.8-18-41.2-41.3-41.2
			S47.8,35.7,41.8,54.5C35.7,73.9,34.4,93.7,34.4,95.8z"/>
	</g>
	<path style="fill:#6779FF;" d="M34.1,96.6c0.5,1.8,9,5.9,9,5.9c-0.2-1.4,0.1-5-0.3-6.3c-0.8-2.8-1.6-5.6-0.3-7.9
		c0.7-1.3,1.8-2.1,3-3.1c1.2-0.9,2.4-1.9,3.1-3.1c1.7-2.7,0.8-6,0-9.3c-0.9-3.3-1.7-6.5,0.3-9c0.7-0.8,1.6-1.4,2.5-2
		c0.7-0.4,1.4-0.9,1.9-1.5c3.6-3.2,3.4-8.7,3.2-13.2c-0.2-6.2,1.1-10.2,4.1-12c0.6-0.4,1.4-0.6,1.9-0.9c0.9-0.3,1.7-0.7,2.5-1.3
		c2.9-2,2.9-5.7,3-9.4c0-2.5,0.8-6.3,1.7-8.5c0,0-14,4.8-23.7,26.5c0,0-8.5,20.8-12.1,48.6l-0.5,5.4L34.1,96.6z"/>
	<path style="fill:#6779FF;" d="M129.4,99.2c-1.5,1.4-7.1,4.3-7.1,4.3c0.2-1.4,0-5.9,0.4-7.3c0.8-2.8,1.6-5.6,0.3-7.9
		c-0.7-1.3-1.8-2.1-3-3.1c-1.2-0.9-2.4-1.9-3.1-3.1c-1.7-2.7-0.8-6,0-9.3c0.9-3.3,1.7-6.5-0.3-9c-0.7-0.8-1.6-1.4-2.5-2
		c-0.7-0.4-1.4-0.9-1.9-1.5c-3.6-3.2-3.4-8.7-3.2-13.2c0.2-6.2-1.1-10.2-4.1-12c-0.6-0.4-1.4-0.6-1.9-0.9c-0.9-0.3-1.7-0.7-2.5-1.3
		c-2.9-2-2.9-5.7-3-9.4c0-2.5-0.8-6.7-1.7-8.9c0,0,14.8,4.6,24.5,26.2c0,0,12.5,32.3,12.5,54.7L129.4,99.2z"/>
	<path d="M83.8,109.6c-40.1,0-49.5-12-50.3-13.4l-0.1-0.1V96c0.1-2.1,1.3-21.9,7.5-41.7c6-19.1,18.4-41.9,42.3-41.9
		s36.2,22.8,42.3,41.9c6.3,19.8,7.4,39.6,7.5,41.7v0.1l-0.1,0.1C132,97.7,124.1,109.6,83.8,109.6z M34.4,95.8
		c1.4,1.9,10.9,12.8,49.5,12.8c38.8,0,47.2-11.4,48.1-12.8c-0.2-2.8-1.4-22.1-7.5-41.3c-5.9-18.8-18-41.2-41.3-41.2
		S47.8,35.7,41.8,54.5C35.7,73.9,34.4,93.7,34.4,95.8z"/>
	<g>
		<g>
			<g>
				<ellipse style="fill:#FFFFFF;" cx="65.1" cy="50.8" rx="12.6" ry="12.6"/>
				<path d="M65.1,64.3c-7.4,0-13.4-6-13.4-13.4c0-7.4,6-13.4,13.4-13.4s13.4,6,13.4,13.4C78.5,58.2,72.5,64.3,65.1,64.3z
					 M65.1,39.1c-6.5,0-11.7,5.3-11.7,11.7s5.3,11.7,11.7,11.7s11.7-5.3,11.7-11.7S71.6,39.1,65.1,39.1z"/>
			</g>
			<ellipse cx="65.1" cy="50.8" rx="7.2" ry="7.3"/>
			<g>
				<ellipse style="fill:#FFFFFF;" cx="101.1" cy="50.8" rx="12.6" ry="12.6"/>
				<path d="M101.1,64.3c-7.4,0-13.4-6-13.4-13.4c0-7.4,6-13.4,13.4-13.4s13.4,6,13.4,13.4C114.5,58.2,108.5,64.3,101.1,64.3z
					 M101.1,39.1c-6.5,0-11.7,5.3-11.7,11.7s5.3,11.7,11.7,11.7s11.7-5.3,11.7-11.7S107.5,39.1,101.1,39.1z"/>
			</g>
			<ellipse cx="101.1" cy="50.8" rx="7.2" ry="7.3"/>
		</g>
		<g>
			<path style="fill:#FF9CBC;" d="M81.5,79.6c2.8,0,5.9,0.4,8.5,0.8c2.8,0.4,6,0.2,8.2-1.7c1.9-1.6,2.7-4.2,2.2-6.6
				c-1-3.9-5.1-6.1-9-7c-5.1-1.3-10.6-1.3-15.7-0.2c-2.2,0.5-4.4,1.2-6.3,2.5c-1.8,1.3-3.3,3.3-3.6,5.6c-0.4,3.1,2,7,5.2,7.6
				c3.1,0.5,6.6-0.8,9.7-0.9C80.9,79.6,81.2,79.6,81.5,79.6z"/>
			<path d="M72.6,81.5c-0.6,0-1.2,0-1.7-0.1c-3.9-0.7-6.4-5.1-5.9-8.5c0.3-2.3,1.8-4.6,4-6.1c1.7-1.2,3.8-2.1,6.6-2.7
				c5.3-1.2,10.9-1.1,16.1,0.2c5.3,1.3,8.8,4.1,9.6,7.7c0.7,2.7-0.3,5.7-2.4,7.5c-2.6,2.2-6.3,2.2-8.9,1.8c-2.5-0.4-5.5-0.8-8.4-0.8
				c0,0,0,0,0,0c-0.3,0-0.5,0-0.8,0c-1.2,0-2.4,0.3-3.7,0.5C75.6,81.2,74.1,81.5,72.6,81.5z M83,64.9c-2.4,0-4.9,0.3-7.2,0.8
				c-2.6,0.6-4.5,1.3-6,2.4c-1.8,1.3-3,3.1-3.3,5c-0.3,2.6,1.7,6.1,4.5,6.6c1.8,0.3,3.7-0.1,5.6-0.4c1.3-0.2,2.6-0.5,3.9-0.5
				c0.3,0,0.7,0,1,0c2.9,0,6,0.4,8.5,0.8c2.3,0.3,5.4,0.3,7.5-1.5c1.6-1.4,2.4-3.7,1.9-5.8c-1-4.2-6.2-5.9-8.4-6.4
				C88.5,65.2,85.7,64.9,83,64.9z M81.5,79.6L81.5,79.6L81.5,79.6z"/>
		</g>
		<g>
			<path style="fill:#A60918;" d="M92.8,72c-2.8-2.1-6.2-3.2-9.7-3.2c-3.5,0.1-6.9,1.3-9.6,3.5c-0.7,0.6-0.9,1.8-0.9,2.7
				s0.5,1.8,1.3,2c0.5,0.1,1,0,1.4-0.2c1.8-0.8,3.1-2.4,4.9-3.2c1.4-0.6,2.9-0.6,4.4-0.6c1.3,0,2.7,0,3.7,0.7c1.3,0.8,2,2.5,3.5,2.7
				c1,0.2,2.1-0.5,2.3-1.5C94.6,74,93.6,72.7,92.8,72z"/>
			<path d="M74.3,77.9c-0.2,0-0.4,0-0.5-0.1c-1.3-0.3-2-1.7-2-2.9c0-0.7,0.1-2.5,1.2-3.3c2.9-2.3,6.5-3.6,10.1-3.7
				c0.1,0,0.2,0,0.2,0c3.6,0,7.1,1.2,10,3.4h0c0.9,0.7,2.2,2.3,1.8,3.8c-0.4,1.4-1.9,2.3-3.3,2.1c-1.2-0.2-2-1-2.7-1.8
				c-0.4-0.4-0.8-0.8-1.2-1.1c-0.9-0.6-2-0.6-3.3-0.6c0,0,0,0-0.1,0c-1.5,0-2.8,0-4,0.5c-0.8,0.3-1.5,0.9-2.3,1.5
				c-0.8,0.6-1.6,1.3-2.6,1.7C75.2,77.8,74.7,77.9,74.3,77.9z M83.4,69.7c-0.1,0-0.1,0-0.2,0c-3.3,0-6.5,1.2-9.1,3.3
				c-0.3,0.3-0.6,1.1-0.6,2c0,0.5,0.3,1.1,0.7,1.2c0.2,0.1,0.5,0,0.9-0.2c0.8-0.3,1.5-0.9,2.3-1.5c0.8-0.6,1.6-1.3,2.6-1.7
				c1.5-0.6,3-0.7,4.7-0.7c1.4,0,3,0.1,4.3,0.9c0.6,0.4,1,0.8,1.5,1.3c0.6,0.6,1.1,1.2,1.7,1.3c0.6,0.1,1.2-0.3,1.4-0.9
				c0.1-0.5-0.5-1.5-1.2-2C89.8,70.8,86.6,69.7,83.4,69.7z"/>
		</g>
		<g>
			<path d="M92.9,41.3c-1.7,0-3.3-0.9-4.5-1.5c-0.4-0.2-0.6-0.7-0.3-1.2c0.2-0.4,0.7-0.6,1.2-0.3c1.4,0.8,2.7,1.4,4,1.3
				c0.5-0.1,1.1-0.3,1.7-0.5l7.5-2.7c0.4-0.2,0.9,0.1,1.1,0.5c0.2,0.4-0.1,0.9-0.5,1.1l-7.5,2.7c-0.6,0.2-1.3,0.5-2.1,0.6
				C93.3,41.3,93.1,41.3,92.9,41.3z"/>
			<path d="M73.2,41.3c-0.2,0-0.3,0-0.5,0c-0.8-0.1-1.5-0.3-2.1-0.6l-7.5-2.7c-0.4-0.2-0.7-0.6-0.5-1.1c0.2-0.4,0.6-0.7,1.1-0.5
				l7.5,2.7c0.6,0.2,1.1,0.4,1.7,0.5c1.3,0.1,2.6-0.5,4-1.3c0.4-0.2,0.9-0.1,1.2,0.3c0.2,0.4,0.1,0.9-0.3,1.2
				C76.6,40.4,75,41.3,73.2,41.3z"/>
			<path d="M82.7,41.9c-0.3,0-0.6-0.2-0.8-0.5c-0.6-1.2-0.8-2.7-0.4-4c0.1-0.5,0.6-0.7,1-0.6c0.5,0.1,0.7,0.6,0.6,1
				c-0.2,0.9-0.1,1.9,0.3,2.8c0.2,0.4,0,0.9-0.4,1.1C82.9,41.9,82.8,41.9,82.7,41.9z"/>
			<path d="M85.4,41c-0.3,0-0.6-0.2-0.7-0.4c-0.5-0.9-0.6-2-0.4-3c0.1-0.5,0.6-0.7,1-0.6c0.5,0.1,0.7,0.6,0.6,1
				c-0.1,0.6-0.1,1.2,0.2,1.8c0.2,0.4,0.1,0.9-0.3,1.2C85.7,41,85.6,41,85.4,41z"/>
		</g>
		<path d="M87.2,46.4h-8c-0.5,0-0.8-0.4-0.8-0.8c0-0.5,0.4-0.8,0.8-0.8h8c0.5,0,0.8,0.4,0.8,0.8C88,46.1,87.6,46.4,87.2,46.4z"/>
		<path d="M85,50.3h-4.8c-0.5,0-0.8-0.4-0.8-0.8c0-0.5,0.4-0.8,0.8-0.8H85c0.5,0,0.8,0.4,0.8,0.8C85.8,49.9,85.5,50.3,85,50.3z"/>
		<path d="M86.4,54.2h-7.1c-0.5,0-0.8-0.4-0.8-0.8c0-0.5,0.4-0.8,0.8-0.8h7.1c0.5,0,0.8,0.4,0.8,0.8C87.2,53.8,86.9,54.2,86.4,54.2z
			"/>
		<path d="M87.8,58.3h-9.2c-0.5,0-0.8-0.4-0.8-0.8c0-0.5,0.4-0.8,0.8-0.8h9.2c0.5,0,0.8,0.4,0.8,0.8C88.6,58,88.2,58.3,87.8,58.3z"
			/>
	</g>
</g>
<g>
	<g>
		<g>
			<path style="fill:#299800;" d="M85.4,3.6C81.7,2.4,78,1.1,74.1,0.9C70.2,0.7,66,1.7,63.3,4.4c-1.4,1.4-2.4,3.2-4.2,4.2
				c-2,1.2-4.5,1-6.8,1c-5.3,0-11.6,1.7-13.4,6.6c-0.7,1.8-0.7,3.8-1.4,5.6c-1.3,3.3-4.7,6-4.2,9.6c0.4,2.9,3.6,4.9,6.5,4.9
				s5.7-1.4,8.4-2.8c12.5-6.8,24.6-14.7,38.4-18.6c2.1-0.6,4.4-1.2,5.8-2.8C96.9,6.7,88.4,4.7,85.4,3.6z"/>
			<path d="M39.9,37L39.9,37c-3.3,0-6.9-2.1-7.4-5.6c-0.3-2.5,1.1-4.6,2.3-6.6c0.7-1.1,1.5-2.2,1.8-3.3c0.3-0.8,0.5-1.7,0.6-2.6
				c0.2-1,0.4-1.9,0.7-2.9c2.7-6.8,11.8-7.2,14.4-7.2h0.8c1.9,0,4,0,5.5-0.9c1-0.6,1.7-1.5,2.5-2.4c0.5-0.6,1-1.2,1.5-1.7
				c2.6-2.6,6.8-4,11.4-3.8c4.1,0.2,7.9,1.5,11.6,2.7l0,0c0.3,0.1,0.6,0.2,0.9,0.3c2.8,0.9,7.2,2.3,8,5.2c0.4,1.4-0.1,2.8-1.4,4.3
				c-1.6,1.8-3.9,2.4-5.9,3l-0.3,0.1c-10.7,3-20.7,8.7-30.3,14.1c-2.6,1.5-5.2,3-7.9,4.4C45.8,35.7,43,37,39.9,37z M52.2,10.4
				c-5,0-10.8,1.6-12.5,6.1c-0.3,0.8-0.5,1.8-0.6,2.6c-0.2,1-0.3,1.9-0.7,2.9c-0.5,1.4-1.3,2.5-2,3.7c-1.2,1.9-2.3,3.5-2.1,5.4
				c0.3,2.5,3.2,4.1,5.6,4.1l0,0c2.7,0,5.2-1.3,7.9-2.7c2.6-1.5,5.2-2.9,7.9-4.4c9.7-5.5,19.7-11.2,30.7-14.3l0.3-0.1
				c1.9-0.6,3.9-1.1,5.2-2.4c0.9-1,1.3-1.9,1.1-2.6c-0.6-1.9-4.7-3.3-6.8-4c-0.3-0.1-0.7-0.2-0.9-0.3l0,0C81.5,3.2,77.8,2,74,1.8
				c-4.1-0.2-7.8,1-10.1,3.3c-0.5,0.5-0.9,1-1.4,1.5c-0.9,1.1-1.7,2.1-3,2.8c-2,1.2-4.3,1.2-6.5,1.1L52.2,10.4
				C52.3,10.4,52.2,10.4,52.2,10.4z"/>
		</g>
		<g>
			<path style="fill:#299800;" d="M60.3,31c-5.4,3.1-8.1,9.3-11.4,14.5S40.1,56,34,54.7c-4.5-0.9-7.9-5.7-7.1-10.2
				C28,36.9,37.7,34,42.3,27.9c2.1-2.8,3.2-6.3,6-8.5c4.5-3.4,11.3-1.6,16-4.6c1.6-1,2.8-2.4,4.2-3.8c4.8-4.6,13-4.7,19.2-4.2
				c1.3,0.1,2.4,0.2,3.6,0.7c1,0.4,1.7,1,2.5,1.7c1.8,1.5,3.5,3.3,4.2,5.6s0.3,5-1.5,6.5c-2.3,2-5.2,1.6-7.9,1.3
				c-3-0.3-5.7,0.1-8.7,0.5c-1.2,0.2-2.4,0.3-3.6,0.9c-2.4,1.2-4.2,3.5-6.7,4.4C66.6,29.3,63.3,29.3,60.3,31z"/>
			<path d="M35.8,55.8c-0.7,0-1.4-0.1-2.1-0.2c-5-1-8.6-6.2-7.8-11.2s4.9-8.1,8.8-11c2.4-1.9,5-3.7,6.7-5.9c0.7-1,1.4-2,1.9-3.1
				c1.2-1.9,2.3-4.1,4.3-5.6c2.5-1.9,5.6-2.2,8.6-2.6c2.7-0.3,5.3-0.7,7.4-1.9c1.1-0.7,1.9-1.6,2.9-2.5c0.4-0.4,0.8-0.8,1.2-1.1
				c5.2-5,13.9-5,20-4.5c1.2,0.1,2.5,0.2,3.9,0.8c1.2,0.5,2,1.2,2.8,1.8c2.3,1.9,3.8,3.8,4.5,5.9c0.9,2.7,0.2,5.7-1.7,7.4
				c-2.3,2.1-5.2,1.9-7.8,1.6l-0.8-0.1c-2.8-0.3-5.3,0.1-8.4,0.5h-0.2c-1.2,0.2-2.3,0.3-3.3,0.8c-1.1,0.5-1.9,1.2-2.8,1.9
				c-1.2,1-2.4,1.9-3.9,2.4c-1.3,0.5-2.6,0.8-3.9,1.1c-1.9,0.4-3.7,0.8-5.4,1.8l0,0c-4.1,2.3-6.6,6.7-9,10.9c-0.7,1.2-1.4,2.2-2,3.4
				C48.2,48.5,42.9,55.8,35.8,55.8z M83.5,7.5c-6.7,0-11.5,1.4-14.4,4.2c-0.4,0.4-0.7,0.7-1.1,1.1c-1,1-2,2-3.2,2.8
				c-2.4,1.6-5.3,1.9-8.2,2.2c-2.9,0.4-5.7,0.7-7.9,2.3c-1.7,1.3-2.7,3-3.8,5c-0.7,1.1-1.3,2.2-2,3.3c-1.8,2.5-4.5,4.5-7,6.3
				c-3.9,2.8-7.5,5.6-8.2,9.8c-0.7,4.1,2.3,8.4,6.4,9.3c7.1,1.5,12.5-6.3,14.1-8.8c0.7-1.1,1.4-2.2,1.9-3.3c2.5-4.4,5.2-9,9.7-11.5
				c1.9-1.1,4-1.6,5.9-1.9c1.3-0.3,2.4-0.5,3.7-1c1.3-0.5,2.3-1.3,3.4-2.2c1-0.8,2-1.7,3.2-2.1c1.3-0.6,2.6-0.8,3.8-0.9h0.2
				c2.9-0.4,5.7-0.8,8.7-0.5l0.8,0.1c2.4,0.2,4.7,0.5,6.4-1.2c1.6-1.5,1.7-3.8,1.2-5.6c-0.6-1.8-1.8-3.4-3.9-5.1
				c-0.6-0.5-1.5-1.1-2.3-1.5c-1.1-0.4-2.2-0.6-3.3-0.6C86.3,7.5,84.8,7.5,83.5,7.5z M60.3,31L60.3,31L60.3,31z"/>
		</g>
		<path d="M37.2,46c-0.3,0-0.6-0.1-0.7-0.4c-0.3-0.4-0.2-1,0.2-1.2c3.2-2.1,5.3-5.8,7.5-9.4c2.5-4.3,5.2-8.8,9.8-10.7
			c1.7-0.8,3.7-1.1,5.5-1.4c1.7-0.3,3.3-0.6,4.9-1.2c1.7-0.7,3.2-1.8,4.8-2.8c1.4-1,2.7-1.9,4.3-2.6c5.2-2.4,11.5-1.8,16.4-1.1
			c0.5,0.1,0.8,0.5,0.8,1c-0.1,0.5-0.5,0.8-1,0.8c-4.8-0.6-10.7-1.3-15.5,1c-1.5,0.7-2.7,1.6-4.1,2.5c-1.7,1.2-3.3,2.2-5.2,3
			c-1.7,0.7-3.5,1-5.2,1.3c-1.8,0.3-3.6,0.6-5.2,1.3c-4.2,1.8-6.5,5.7-9,10c-2.1,3.7-4.4,7.5-8,9.9C37.5,45.9,37.4,46,37.2,46z"/>
		<g>
			<path style="fill:#299800;" d="M109.4,38.4c1,0.7,2,1.4,2.8,2.2c2.5,2.6,2.6,6.6,3.1,10.2s2.1,7.7,5.6,8.5
				c1.9,0.4,4.1-0.4,5.5-1.8c1.5-1.4,2.3-3.2,2.9-5.1c1.3-4.3,1.1-9-0.7-13.1c-0.6-1.4-1.3-2.6-2.3-3.7c-1.5-1.4-3.4-2.1-5-3.5
				c-2.5-2-3.8-5.3-5.6-8c-1.8-2.7-4.9-5.3-8.1-4.6C98.1,21.6,104.9,35.1,109.4,38.4z"/>
			<path d="M122.1,60.3c-0.4,0-0.9,0-1.3-0.1c-4.8-1.1-6-6.8-6.3-9.3c-0.1-0.5-0.1-1.1-0.2-1.6c-0.4-3-0.7-6.1-2.7-8.2
				c-0.5-0.6-1.2-1-1.8-1.5c-0.3-0.2-0.6-0.4-0.9-0.7c-3.4-2.6-7.9-10.4-6.6-15.5c0.4-1.8,1.7-4.1,5.4-4.8c3.1-0.6,6.5,1.3,8.9,5
				c0.6,0.9,1.1,1.8,1.6,2.6c1.2,1.9,2.2,3.9,3.9,5.3c0.7,0.5,1.4,1,2.1,1.5c1,0.6,2,1.3,2.9,2c1,1,1.8,2.2,2.5,4
				c1.8,4.3,2,9.2,0.7,13.6c-0.7,2.3-1.7,4.2-3.2,5.5C125.7,59.7,123.9,60.3,122.1,60.3z M108.8,20.5c-0.3,0-0.6,0-0.9,0.1
				c-2.2,0.4-3.6,1.6-4.1,3.4c-1,4.3,2.9,11.4,6,13.7l0,0c0.3,0.2,0.6,0.4,0.9,0.6c0.7,0.5,1.5,1,2,1.7c2.4,2.4,2.8,5.8,3.2,9.2
				c0.1,0.5,0.1,1,0.2,1.6c0.2,1.7,1.3,6.9,5,7.8c1.6,0.3,3.4-0.2,4.8-1.5c1.2-1.1,2-2.6,2.7-4.8c1.3-4,1-8.6-0.7-12.5
				c-0.6-1.5-1.4-2.5-2.1-3.4c-0.8-0.7-1.7-1.3-2.6-1.9c-0.8-0.5-1.6-1-2.3-1.6c-1.8-1.6-3.1-3.6-4.3-5.7c-0.5-0.9-1-1.7-1.6-2.5
				C113.7,22.6,111.3,20.5,108.8,20.5z"/>
		</g>
		<path d="M122.9,52.9c-0.4,0-0.8-0.3-0.9-0.7c-0.3-1.5-0.3-2.9-0.4-4.3c-0.1-2.6-0.2-5.2-1.7-7.1c-0.5-0.6-1.1-1.1-1.7-1.7
			l-0.4-0.3c-3.7-3.2-6.7-7.3-8.6-11.9c-0.2-0.5,0-1,0.5-1.2s1,0,1.2,0.5c1.7,4.3,4.5,8.2,8.1,11.2l0.4,0.3c0.7,0.6,1.4,1.2,1.9,1.9
			c1.8,2.3,1.9,5.3,2,8.1c0,1.4,0.1,2.7,0.3,4.1c0.1,0.5-0.2,0.9-0.7,1C123,52.9,123,52.9,122.9,52.9z"/>
	</g>
	<g>
		<g>
			<path style="fill:#FF4500;" d="M90,4.7c-0.6,0-1.2,0.1-1.6,0.6C88,5.8,87.8,6.5,88,7.2c0.1,0.3,0.3,0.5,0.4,0.8
				c0.7,1,5.3,5.6,3.8,6.5c-1.3,0.8-2.5,1.5-3.9,1.9c-1.3,0.4-2.7,0.7-3.8,1.5c-0.5,0.4-1,0.9-1,1.6c0,0.8,0.6,1.5,1.3,1.9
				c2.6,1.7,6,1.5,9,2.2c0.3,0.1,0.7,0.2,0.9,0.4c0.2,0.2,0.3,0.6,0.4,0.9c0.5,2.5,1,5.2,1.5,7.7c0.3,1.4,0.8,2.9,2,3.2
				c1.5,0.3,2.6-1.1,3.2-2.3c0.7-1.3,1.2-2.5,1.7-3.9c0.9-2.6,1.8-1.1,3.2,0.5c1.3,1.5,2.4,3.8,4.7,3.8c1,0,1.9-0.5,2.2-1.4
				c0.1-0.3,0.1-0.7,0.2-1.1c0.1-1.9,0-3.5-0.6-5.3c-0.6-1.8-1.3-3.5-2-5.2c-0.2-0.5-0.6-1.1-0.5-1.7c0.1-0.6,0.7-0.9,0.9-1.4
				c0.6-1.5-0.7-3.4-1.7-4.4c-1.3-1.2-2.8-1.9-4.5-2.5c-1.3-0.5-2.6,0-3.8-0.6c-1.5-0.6-2.7-1.8-4-2.6c-1.7-1.2-4-2-6-2.6
				C91.3,4.9,90.6,4.7,90,4.7z"/>
			<path d="M99.1,36.7c-0.2,0-0.4,0-0.6-0.1c-1.8-0.4-2.4-2.4-2.7-3.9L94.2,25c0-0.1-0.1-0.4-0.1-0.5c-0.1-0.1-0.4-0.2-0.5-0.2
				c-1-0.3-2-0.4-3.1-0.6c-2.1-0.3-4.3-0.6-6.2-1.9c-1.1-0.7-1.7-1.7-1.7-2.6c0-0.8,0.5-1.6,1.4-2.2c1-0.8,2.1-1.1,3.2-1.4
				c0.3-0.1,0.6-0.2,0.9-0.3c1.3-0.4,2.5-1,3.6-1.7c0-0.9-2.2-3.4-3-4.2c-0.5-0.5-0.8-1-1-1.2c-0.2-0.3-0.4-0.6-0.5-1
				c-0.3-1-0.1-2,0.7-2.8c0.5-0.4,1.3-0.6,2.1-0.6l0,0l0,0c0.6,0,1.2,0.1,1.9,0.3c1.7,0.5,4.3,1.5,6.2,2.8c0.4,0.3,0.7,0.5,1.1,0.8
				c0.9,0.7,1.8,1.4,2.7,1.8c0.5,0.2,1,0.2,1.7,0.2s1.5,0,2.1,0.3c1.6,0.6,3.4,1.4,4.8,2.7c1.2,1.1,2.6,3.4,1.8,5.4
				c-0.1,0.4-0.4,0.6-0.5,0.8c-0.1,0.2-0.2,0.3-0.3,0.4c0,0.3,0.2,0.7,0.3,1l0.1,0.2c0.8,1.7,1.5,3.5,2,5.3c0.6,1.9,0.7,3.4,0.6,5.7
				c0,0.4,0,0.9-0.2,1.4c-0.4,1.2-1.7,1.9-3.1,1.9c-2.2,0-3.5-1.8-4.6-3.1c-0.3-0.3-0.5-0.7-0.8-1l-0.4-0.5c-0.3-0.4-0.7-0.9-1-1.1
				c-0.1,0.1-0.2,0.4-0.3,0.8c-0.5,1.4-1.1,2.7-1.7,4C101.7,35.6,100.4,36.7,99.1,36.7z M90,5.6c-0.4,0-0.8,0.1-1,0.3
				c-0.3,0.3-0.4,0.7-0.2,1C89,7,89.1,7.2,89.2,7.4c0.1,0.2,0.5,0.6,0.9,1c1.9,2.2,3.6,4.2,3.4,5.7c-0.1,0.5-0.3,0.9-0.7,1.1
				c-1.3,0.9-2.6,1.5-4.1,1.9c-0.3,0.1-0.6,0.2-0.9,0.3c-1,0.3-1.9,0.6-2.7,1.1c-0.4,0.3-0.6,0.6-0.6,0.9s0.3,0.8,0.9,1.1
				c1.6,1,3.5,1.3,5.5,1.6c1.1,0.2,2.2,0.3,3.3,0.6c0.5,0.1,1,0.3,1.3,0.7c0.4,0.4,0.5,1,0.6,1.3l1.5,7.7c0.3,1.6,0.8,2.3,1.4,2.5
				c0.9,0.2,1.7-0.9,2.2-1.9c0.6-1.2,1.2-2.4,1.6-3.7c0.3-0.9,0.7-1.9,1.7-1.9c1.1-0.2,1.7,0.7,2.6,1.8l0.4,0.5
				c0.3,0.3,0.6,0.7,0.9,1.1c1,1.3,1.8,2.4,3.2,2.4l0,0c0.7,0,1.3-0.4,1.4-0.8c0.1-0.2,0.1-0.5,0.1-0.8c0.1-1.9,0-3.4-0.5-5
				c-0.6-1.8-1.3-3.4-1.9-5.1l-0.1-0.2c-0.3-0.5-0.6-1.3-0.5-2c0.1-0.6,0.4-1,0.7-1.3c0.1-0.1,0.2-0.2,0.2-0.3
				c0.4-1-0.6-2.6-1.5-3.4c-1.2-1.1-2.7-1.8-4.2-2.3c-0.5-0.2-1-0.2-1.6-0.2c-0.7,0-1.5,0-2.3-0.4c-1.2-0.5-2.1-1.3-3.1-1.9
				c-0.4-0.3-0.7-0.5-1-0.8c-1.7-1.3-4.1-2-5.7-2.5C90.9,5.7,90.4,5.6,90,5.6L90,5.6z M90,4.7L90,4.7L90,4.7z"/>
		</g>
		<path style="fill:#FF8851;" d="M91.9,18.2c2.4,0.5,4.9,0.9,7.4,1.1c-0.5,1.8-0.6,3.6-0.3,5.5c0.1,0.4,0.2,0.8,0.6,0.8
			c0.1,0,0.2-0.1,0.3-0.2c1.5-1.1,2.5-2.6,3.2-4.4c1.4,1.1,2.8,1.9,4.4,2.6c0.3-1.5,0-2.9-0.8-4.2c-0.1-0.2-0.3-0.5-0.3-0.8
			s0.2-0.6,0.3-0.8c0.6-0.9,0.8-1.9,0.7-3c-1.6-0.2-3.1,0-4.5,0.5c-1.5-1.7-3.4-3.5-5.6-3.2c-0.4,0,0.1,2.4,0,2.7
			c-0.1,1,0.1,0.8-0.9,1.3C94.7,16.7,93.2,16.8,91.9,18.2z"/>
	</g>
</g>
<g>
	<path style="fill:#FFC800;" d="M127.5,156.2c-45.6,14.8-88.7,0-88.7,0s8.9,33.5,44.4,32.6c0,0,26.3,1.1,39.2-22L127.5,156.2z"/>
	<path d="M81.9,189.7c-34.5,0-43.7-32.8-43.7-33.2c-0.1-0.2,0-0.5,0.2-0.7c0.2-0.2,0.5-0.2,0.7-0.2c0.4,0.1,43.5,14.5,88.3,0
		c0.3-0.1,0.6,0,0.7,0.2c0.2,0.2,0.2,0.5,0.1,0.8l-5.2,10.7c-12.8,23.2-39.6,22.4-39.8,22.3C82.7,189.7,82.3,189.7,81.9,189.7z
		 M39.8,157.3c2,5.9,12.6,31.7,43.3,31c0.3,0,26.1,0.8,38.6-21.6l4.5-9.3C85.8,169.9,47.2,159.5,39.8,157.3z"/>
</g>
<g>
	<path d="M135.6,86c-0.1,0-0.2,0-0.3,0c-0.5-0.1-0.7-0.6-0.6-1.1c0.2-0.6-0.2-1.5-0.6-2.3l-0.1-0.3c-0.9-1.7-0.8-3.3,0.2-4.2
		c0.2-0.2,0.5-0.4,0.7-0.5c0.2-0.1,0.3-0.2,0.4-0.3c0.3-0.3,0.1-1.2-0.3-1.7c-0.2-0.3-0.5-0.5-0.7-0.8c-0.5-0.5-1.1-1-1.4-1.8
		c-0.3-0.7-0.4-1.4-0.5-2l-0.7-4.8c-0.1-0.5,0.3-0.9,0.7-1c0.5-0.1,0.9,0.3,1,0.7l0.7,4.8c0.1,0.6,0.2,1.1,0.4,1.5
		c0.2,0.5,0.6,0.9,1.1,1.3c0.3,0.3,0.6,0.6,0.9,0.9c0.9,1.1,1.3,2.9,0.2,4c-0.3,0.3-0.5,0.4-0.8,0.5c-0.2,0.1-0.3,0.2-0.4,0.3
		c-0.4,0.4-0.2,1.4,0.2,2.1l0.1,0.3c0.5,1,1.2,2.3,0.8,3.6C136.3,85.8,136,86,135.6,86z"/>
	<path d="M135.6,92.7c-0.5,0-0.9-0.4-0.9-0.9v-1.4c0-0.5,0.4-0.9,0.9-0.9c0.5,0,0.9,0.4,0.9,0.9v1.4
		C136.5,92.3,136.1,92.7,135.6,92.7z"/>
	<path d="M150.3,108.2c-0.3,0-0.5-0.1-0.7-0.4l-3.4-4.8c-0.6-0.9-1.8-2.3-2.8-1.9c-0.2,0.1-0.5,0.1-0.7-0.1
		c-0.2-0.1-0.4-0.4-0.4-0.6c-0.1-0.9-0.3-1.9-0.8-2.7c-0.4-0.6-1.1-1.1-1.7-0.9c-0.5,0.1-0.9-0.2-1.1-0.6c-0.1-0.5,0.2-0.9,0.6-1.1
		c1.3-0.3,2.8,0.3,3.6,1.7c0.5,0.8,0.7,1.7,0.9,2.5c1,0,2.3,0.6,3.8,2.7l3.4,4.8c0.3,0.4,0.2,0.9-0.2,1.2
		C150.6,108.1,150.4,108.2,150.3,108.2z"/>
	<path d="M153.4,114.5c-0.4,0-0.7-0.2-0.8-0.6l-0.4-1c-0.2-0.5,0.1-0.9,0.5-1.1c0.5-0.2,0.9,0.1,1.1,0.5l0.4,1
		c0.2,0.5-0.1,0.9-0.5,1.1C153.6,114.4,153.5,114.5,153.4,114.5z"/>
	<path d="M155.2,139c-0.1,0-0.2,0-0.3,0c-0.5-0.1-0.8-0.5-0.7-1c0.1-0.5,0.5-0.8,1-0.7c0.4,0.1,0.9-0.6,1-1.2
		c0.1-0.2,0.1-0.5,0.2-0.7c0.2-0.8,0.3-1.7,1-2.4c0.2-0.2,0.3-0.3,0.5-0.5c0.2-0.2,0.5-0.4,0.5-0.5c0-0.1-0.2-0.2-0.3-0.3
		c-0.1-0.1-0.2-0.2-0.2-0.3c-1-1.2-0.9-2.7-0.9-4.1l0-0.2c0-1.4-0.2-2.3-0.8-2.7c-0.4-0.3-0.5-0.8-0.3-1.2c0.3-0.4,0.8-0.5,1.2-0.3
		c1.7,1.1,1.6,3.4,1.6,4.2l0,0.2c0,1.1-0.1,2.2,0.5,2.9c0.1,0.1,0.1,0.1,0.2,0.2c0.3,0.3,0.6,0.7,0.7,1.3c0.1,1-0.6,1.6-1,2.1
		c-0.1,0.1-0.3,0.2-0.4,0.4c-0.3,0.4-0.5,1-0.6,1.6c-0.1,0.3-0.1,0.5-0.2,0.8C157.5,137.8,156.5,139,155.2,139z"/>
	<path d="M28.9,89c-0.3,0-0.6-0.2-0.8-0.4c-0.8-1.4-0.8-3.2,0.1-4.6c0.2-0.3,0.4-0.6,0.7-1c0.6-0.7,0.9-1.2,0.8-1.6
		c-0.1-0.2-0.2-0.4-0.4-0.6l-0.2-0.3c-1.1-1.5-1.2-3.9,0.3-5.2c0.1-0.1,0.3-0.2,0.4-0.3c0.2-0.1,0.3-0.2,0.4-0.3
		c0.3-0.3,0.1-0.9-0.1-1.7c-0.1-0.2-0.1-0.4-0.2-0.7c-0.3-1.4-0.1-2.9,0.7-4.2c0.2-0.4,0.8-0.6,1.2-0.3c0.4,0.2,0.6,0.8,0.3,1.2
		c-0.5,0.9-0.7,1.9-0.5,2.9c0,0.2,0.1,0.4,0.1,0.6c0.3,1,0.6,2.3-0.3,3.3c-0.2,0.3-0.5,0.5-0.8,0.6c-0.1,0.1-0.2,0.1-0.3,0.2
		c-0.8,0.6-0.6,2,0,2.9l0.2,0.2c0.3,0.3,0.5,0.7,0.7,1.2c0.4,1.3-0.5,2.3-1.1,3.2c-0.2,0.3-0.4,0.5-0.6,0.8c-0.5,0.8-0.5,2,0,2.8
		c0.2,0.4,0.1,0.9-0.3,1.2C29.2,88.9,29.1,89,28.9,89z"/>
	<path d="M27.9,94.3c-0.5,0-0.9-0.4-0.9-0.9v-1.7c0-0.5,0.4-0.9,0.9-0.9c0.5,0,0.9,0.4,0.9,0.9v1.7C28.8,93.9,28.4,94.3,27.9,94.3z"
		/>
	<path d="M12.4,109.8c-0.3,0-0.6-0.2-0.8-0.5c-0.2-0.4,0-0.9,0.4-1.2c0.8-0.4,1.5-1.3,1.6-2.2c0-0.2,0.1-0.3,0.1-0.5
		c0.1-0.8,0.2-1.8,1.1-2.4c0.3-0.2,0.6-0.3,0.9-0.4c0.1,0,0.2-0.1,0.3-0.1c0.4-0.2,0.8-0.7,1.2-1.5c0.1-0.2,0.2-0.4,0.2-0.5
		c0.3-0.7,0.6-1.4,1.1-2c0.7-0.9,2.1-1.5,3.3-0.9c0.4,0.2,0.6,0.7,0.4,1.2c-0.2,0.4-0.7,0.6-1.2,0.4c-0.4-0.2-1,0.1-1.3,0.5
		c-0.3,0.4-0.6,1-0.8,1.5c-0.1,0.2-0.2,0.4-0.2,0.6c-0.6,1.2-1.3,2-2.1,2.4c-0.1,0.1-0.3,0.1-0.5,0.1c-0.2,0-0.3,0.1-0.4,0.1
		c-0.2,0.2-0.3,0.7-0.4,1.2c0,0.2-0.1,0.4-0.1,0.6c-0.3,1.5-1.2,2.8-2.6,3.4C12.6,109.8,12.5,109.8,12.4,109.8z"/>
	<path d="M8.4,117.1c-0.1,0-0.2,0-0.3,0c-0.5-0.1-0.7-0.6-0.6-1.1l0.5-1.5c0.1-0.5,0.6-0.7,1.1-0.6c0.5,0.1,0.7,0.6,0.6,1.1
		l-0.5,1.5C9.1,116.9,8.7,117.1,8.4,117.1z"/>
	<path d="M5.4,144.4c-0.1,0-0.1,0-0.2,0c-1.3-0.3-2.5-1.4-2.8-2.7c-0.1-0.2-0.1-0.4-0.1-0.7c0-0.2-0.1-0.3-0.1-0.5
		c-0.1-0.5-0.5-1-0.9-1.5c-0.5-0.7-1-1.4-1.2-2.4c-0.2-1.1,0.2-2.1,0.5-3c0.2-0.6,0.4-1.1,0.5-1.7c0-0.4,0-0.8-0.1-1.2
		c-0.1-0.6-0.2-1.2-0.1-1.8c0.2-1.3,0.9-2.3,1.6-3.1l0.3-0.4c0.8-1.1,1.1-1.9,0.9-2.6c-0.1-0.5,0.1-0.9,0.6-1.1
		c0.5-0.1,0.9,0.1,1.1,0.6c0.4,1.2,0,2.6-1.1,4.1l-0.3,0.4c-0.6,0.8-1.1,1.5-1.2,2.3c-0.1,0.4,0,0.9,0.1,1.3c0.1,0.5,0.1,1,0.1,1.6
		c-0.1,0.8-0.3,1.5-0.6,2.1c-0.3,0.8-0.5,1.4-0.4,2.1c0.1,0.6,0.5,1.1,0.9,1.6c0.4,0.6,0.9,1.2,1.1,2.1c0.1,0.2,0.1,0.4,0.1,0.7
		c0,0.2,0.1,0.3,0.1,0.5c0.2,0.7,0.8,1.3,1.5,1.4c0.5,0.1,0.8,0.6,0.7,1C6.1,144.1,5.8,144.4,5.4,144.4z"/>
</g>
</svg>
