<?xml version="1.0" encoding="utf-8"?>
<!-- Generator: Adobe Illustrator 26.0.3, SVG Export Plug-In . SVG Version: 6.00 Build 0)  -->
<svg version="1.1" id="레이어_1" xmlns="http://www.w3.org/2000/svg" xmlns:xlink="http://www.w3.org/1999/xlink" x="0px"
	 y="0px" viewBox="0 0 390 390" style="enable-background:new 0 0 390 390;" xml:space="preserve">
<style type="text/css">
	.st0{fill:#FFCE00;}
	.st1{fill:#00A200;}
	.st2{fill:#7FCE00;}
	.st3{fill:#FF7C00;}
	.st4{fill:#00B839;}
	.st5{fill:#2F8BFF;}
	.st6{fill:#FFFFFF;}
	.st7{fill:#A90718;}
</style>
<g>
	<g>
		<g>
			<path class="st0" d="M196.3,68.8c0,0-2.5-26-1.2-34.1"/>
			<path d="M194.6,68.9c-0.1-1.1-2.5-26.3-1.2-34.5l3.5,0.5c-1.2,7.8,1.2,33.4,1.2,33.6L194.6,68.9z"/>
		</g>
	</g>
	<g>
		<g>
			<g>
				<path class="st1" d="M194.4,33.5c0-3.7,1.8-7.9,5.4-8.4c3-0.4,15.1-1.7,16.2,5.8c1.3,8.9-7.1,8.5-7.1,8.5s-0.3,5.1-1.3,6.4
					c-2.6,3.3-6.8,2.3-9,0.7C196.1,44.6,194.3,38.9,194.4,33.5z"/>
				<path d="M203.1,49.8c-2,0-4-0.7-5.5-1.9c-3.3-2.5-5-9.1-5-14.4l0,0c0-4.6,2.4-9.5,7-10.2c3.9-0.6,16.9-1.7,18.2,7.3
					c0.5,3.3-0.1,5.9-1.9,7.8c-1.6,1.8-3.8,2.4-5.4,2.7c-0.2,2-0.6,4.6-1.6,5.8C207.4,48.9,205.3,49.8,203.1,49.8z M196.2,33.5
					L196.2,33.5c0,5.4,1.8,10.2,3.6,11.5c1,0.8,4.4,2.3,6.5-0.3c0.4-0.5,0.8-3.1,0.9-5.4c0.1-1,0.9-1.7,1.9-1.7c0,0,2.8,0.1,4.3-1.6
					c1-1.1,1.3-2.7,1-4.9c-0.9-5.9-12-4.6-14.2-4.3C197.5,27.2,196.2,30.5,196.2,33.5z"/>
			</g>
			<g>
				<path class="st2" d="M204.9,36.5c-0.5,0-1.1-0.2-1.4-0.7c-0.6-0.8-2.3-3-3.4-3.9c-0.7-0.7-0.8-1.8-0.1-2.5
					c0.7-0.7,1.8-0.8,2.5-0.1c1.5,1.4,3.7,4.3,3.8,4.5c0.6,0.8,0.4,1.9-0.4,2.5C205.7,36.4,205.3,36.5,204.9,36.5z"/>
			</g>
		</g>
		<g>
			<g>
				<g>
					<path class="st1" d="M194.4,20.4c0,3.7,1.8,7.9,5.4,8.4c3,0.4,15.1,1.7,16.2-5.8c1.3-8.9-7.1-8.5-7.1-8.5s-0.3-5.1-1.3-6.4
						c-2.6-3.3-6.8-2.3-9-0.7C196.1,9.3,194.3,15,194.4,20.4z"/>
					<path d="M204.8,31c-2.2,0-4.1-0.2-5.2-0.4c-4.5-0.7-6.9-5.6-7-10.2l0,0c0-5.3,1.7-11.9,5-14.4c3.3-2.5,8.4-2.9,11.4,1
						c0.9,1.2,1.4,3.9,1.6,5.8c1.5,0.2,3.7,0.9,5.4,2.7c1.7,1.9,2.3,4.5,1.9,7.8C216.9,29.7,210,31,204.8,31z M196.2,20.4
						c0,3,1.4,6.3,3.9,6.7c2.2,0.3,13.3,1.6,14.2-4.3c0.3-2.2,0-3.8-1-4.9c-1.5-1.7-4.3-1.6-4.3-1.6c-1,0.1-1.8-0.7-1.9-1.7
						c-0.1-2.4-0.6-4.9-1-5.4c-2.1-2.7-5.5-1.1-6.5-0.3C198,10.2,196.1,14.9,196.2,20.4L196.2,20.4z"/>
				</g>
				<g>
					<path class="st2" d="M201.4,25.1c-0.5,0-1-0.2-1.3-0.6c-0.7-0.7-0.6-1.9,0.1-2.5c1.1-1,2.8-3.2,3.4-3.9c0.6-0.8,1.7-1,2.5-0.4
						c0.8,0.6,1,1.7,0.4,2.5c-0.1,0.1-2.3,3.1-3.8,4.5C202.2,25,201.8,25.1,201.4,25.1z"/>
				</g>
			</g>
			<g>
				<g>
					<path class="st1" d="M195.2,19.3c-0.1,3.7-2,7.9-5.6,8.3c-3,0.4-15.1,1.4-16.1-6.2c-1.1-8.9,7.3-8.4,7.3-8.4s0.4-5.1,1.5-6.4
						c2.7-3.3,6.8-2.1,9-0.5C193.7,8.2,195.3,13.9,195.2,19.3z"/>
					<path d="M185.3,29.7c-5.4,0-12.8-1.2-13.6-8c-0.4-3.3,0.3-5.9,2-7.8c1.7-1.8,3.9-2.3,5.4-2.5c0.2-2,0.7-4.6,1.7-5.8
						c3.1-3.9,8.2-3.3,11.5-0.7c3.3,2.6,4.8,9.2,4.6,14.5l0,0c-0.1,4.6-2.6,9.5-7.2,10C188.8,29.5,187.2,29.7,185.3,29.7z
						 M180.5,14.9c-0.6,0-2.8,0.1-4.2,1.5c-1,1-1.3,2.7-1.1,4.8c0.7,5.9,11.9,4.9,14.1,4.6c2.5-0.3,4-3.6,4.1-6.6l0,0
						c0.2-5.4-1.6-10.3-3.3-11.6c-1-0.8-4.3-2.4-6.5,0.2c-0.4,0.5-0.9,3-1.1,5.4c-0.1,1-1,1.7-1.9,1.6
						C180.7,14.9,180.6,14.9,180.5,14.9z M195.2,19.3L195.2,19.3L195.2,19.3z"/>
				</g>
				<g>
					<path class="st2" d="M188.1,23.9c-0.4,0-0.9-0.2-1.2-0.5c-1.5-1.4-3.6-4.4-3.7-4.5c-0.6-0.8-0.4-1.9,0.4-2.5
						c0.8-0.6,1.9-0.4,2.5,0.4c0.6,0.8,2.2,3,3.3,4c0.7,0.7,0.7,1.8,0.1,2.5C189.1,23.7,188.6,23.9,188.1,23.9z"/>
				</g>
			</g>
		</g>
		<g>
			<g>
				<path class="st1" d="M195.2,33.2c-0.1-3.7-2-7.9-5.6-8.3c-3-0.4-15.1-1.4-16.1,6.2c-1.1,8.9,7.3,8.4,7.3,8.4s0.4,5.1,1.5,6.4
					c2.7,3.3,6.8,2.1,9,0.5C193.7,44.3,195.3,38.6,195.2,33.2z"/>
				<path d="M186.6,49.6c-2.1,0-4.2-0.8-5.8-2.8c-1-1.2-1.5-3.8-1.7-5.8c-1.5-0.2-3.8-0.8-5.4-2.5c-1.8-1.8-2.4-4.5-2-7.8
					c1.1-9,14.1-8.2,18.1-7.7c4.6,0.5,7.1,5.5,7.2,10l0,0c0.1,5.3-1.4,12-4.7,14.5C190.7,48.9,188.7,49.6,186.6,49.6z M180.8,37.6
					c0.9,0,1.7,0.7,1.8,1.6c0.2,2.3,0.7,4.9,1.1,5.4c2.1,2.6,5.5,1,6.5,0.2c1.7-1.3,3.4-6.2,3.3-11.6c-0.1-3-1.5-6.3-4.1-6.6
					c-2.2-0.3-13.4-1.3-14.1,4.6c-0.3,2.2,0.1,3.8,1.1,4.8c1.6,1.7,4.3,1.5,4.4,1.5C180.7,37.6,180.7,37.6,180.8,37.6z"/>
			</g>
			<g>
				<path class="st2" d="M184.6,36.4c-0.4,0-0.7-0.1-1-0.3c-0.8-0.6-1-1.7-0.4-2.5c0.1-0.1,2.2-3.1,3.7-4.5c0.7-0.7,1.8-0.6,2.5,0.1
					c0.7,0.7,0.6,1.8-0.1,2.5c-1,1-2.7,3.2-3.3,4C185.7,36.2,185.2,36.4,184.6,36.4z"/>
			</g>
		</g>
	</g>
</g>
<g>
	<g>
		<rect x="161.8" y="287.2" class="st3" width="20.2" height="86.5"/>
		<path d="M183.8,375.5H160v-90h23.8V375.5z M163.6,371.9h16.6V289h-16.6V371.9z"/>
	</g>
	<g>
		<path class="st3" d="M190.4,368.6c0-14.2-11.9-25.5-26.3-24.6c-13.1,0.8-23,12.3-23,25.4v0c0,7,5.7,12.7,12.7,12.7h23.8
			c7,0,12.7-5.7,12.7-12.7V368.6z"/>
		<path d="M177.7,384h-23.8c-8,0-14.5-6.5-14.5-14.5c0-14.4,10.8-26.3,24.7-27.2c7.4-0.5,14.4,2,19.8,7.1c5.3,5,8.4,12,8.4,19.3v0.8
			C192.2,377.5,185.7,384,177.7,384z M165.8,345.8c-0.5,0-1,0-1.5,0c-12,0.8-21.3,11.2-21.3,23.7c0,6,4.9,10.9,10.9,10.9h23.8
			c6,0,10.9-4.9,10.9-10.9v-0.8c0-6.4-2.6-12.3-7.2-16.7C177.1,347.9,171.6,345.8,165.8,345.8z"/>
	</g>
</g>
<g>
	<g>
		<rect x="208.3" y="285.6" class="st3" width="20.2" height="86.7"/>
		<path d="M230.3,374.1h-23.8v-90.3h23.8V374.1z M210.1,370.5h16.7v-83.1h-16.7V370.5z"/>
	</g>
	<g>
		<path class="st3" d="M248.8,368.6c0-14.2-11.9-25.5-26.3-24.6c-13.1,0.8-23,12.3-23,25.4v0c0,7,5.7,12.7,12.7,12.7h23.8
			c7,0,12.7-5.7,12.7-12.7V368.6z"/>
		<path d="M236.1,384h-23.8c-8,0-14.5-6.5-14.5-14.5c0-14.4,10.8-26.3,24.7-27.2c7.4-0.5,14.4,2,19.8,7.1c5.3,5,8.4,12,8.4,19.3v0.8
			C250.6,377.5,244.1,384,236.1,384z M224.2,345.8c-0.5,0-1,0-1.5,0c-12,0.8-21.3,11.2-21.3,23.7c0,6,4.9,10.9,10.9,10.9h23.8
			c6,0,11-4.9,11-10.9v-0.8c0-6.4-2.6-12.3-7.2-16.7C235.5,347.9,230,345.8,224.2,345.8z"/>
	</g>
</g>
<g>
	<path class="st0" d="M123.3,200.5c-5.6-0.2-10.6,3.3-14.9,6.9c-10.9,9.2-20.4,20.1-28,32.2c-3.4,5.5-6.5,12.2-4,18.1
		c2.1,5,7.5,7.7,12.7,9.1c16.2,4.3,34.5-1.1,45.7-13.5"/>
	<path d="M100.3,270.1c-4,0-7.9-0.5-11.7-1.5c-4.9-1.3-11.4-4.1-13.9-10.1c-2.9-7,1-14.6,4.1-19.7c7.7-12.3,17.2-23.3,28.3-32.7
		c4.5-3.7,9.9-7.5,16.1-7.3c1,0,1.8,0.9,1.7,1.8c0,1-1,1.7-1.8,1.7c-5.1-0.2-9.7,3.2-13.7,6.5c-10.8,9.1-20.1,19.8-27.6,31.8
		c-2.8,4.4-6.2,11-3.9,16.5c1.9,4.6,7.3,6.9,11.5,8.1c15.5,4.1,33.2-1.1,43.9-13c0.7-0.7,1.8-0.8,2.5-0.1c0.7,0.7,0.8,1.8,0.1,2.5
		C127.1,264.5,113.7,270.1,100.3,270.1z"/>
</g>
<g>
	<path class="st0" d="M266.7,200.5c5.6-0.2,10.6,3.3,14.9,6.9c10.9,9.2,20.4,20.1,28,32.2c3.4,5.5,6.5,12.2,4,18.1
		c-2.1,5-7.5,7.7-12.7,9.1c-16.2,4.3-34.5-1.1-45.7-13.5"/>
	<path d="M289.7,270.1c-13.4,0-26.8-5.6-35.8-15.5c-0.7-0.7-0.6-1.9,0.1-2.5c0.7-0.7,1.9-0.6,2.5,0.1c10.8,11.9,28.4,17.1,43.9,13
		c4.2-1.1,9.5-3.4,11.5-8.1c2.3-5.5-1.1-12-3.9-16.5c-7.5-12-16.8-22.7-27.6-31.8c-3.9-3.3-8.7-6.7-13.7-6.5c0,0,0,0-0.1,0
		c-1,0-1.7-0.8-1.8-1.7c0-1,0.7-1.8,1.7-1.8c6.3-0.2,11.6,3.6,16.1,7.3c11.1,9.3,20.7,20.3,28.3,32.7c3.2,5.1,7.1,12.7,4.1,19.7
		c-2.5,6-8.9,8.8-13.9,10.1C297.6,269.6,293.6,270.1,289.7,270.1z"/>
</g>
<g>
	<g>
		<path class="st0" d="M197.5,317.2c-11.8,0-21.9-1.1-30.9-3.3c-14.3-3.6-26.3-10.3-34.8-19.5c-14.4-15.6-19.9-40.6-14.7-66.8
			c0.4-2.2,0.9-4.5,1.5-6.7c1.4-6.4,2.9-12.9,2.7-19.4c-0.2-7.4-2.5-14.4-4.9-21.7c-1-3.1-2.1-6.4-2.9-9.6
			c-6.1-22.7-3.1-46.8,8-66.2c14-24.3,42.1-39.5,73.3-39.5c24.8,0,47.9,9.5,63.5,26.1c17.7,18.9,25,47.8,19,75.5
			c-0.7,3.4-1.7,6.8-2.6,10.1c-1.6,5.9-3.3,12-3.8,18.2c-0.4,4.9-0.2,10.1,0.8,16.3c0.7,4.5,1.7,9.1,2.6,13.6
			c0.8,3.8,1.7,7.8,2.3,11.8c4.4,26.6-1.3,49.8-15.7,63.5c-15.1,14.4-37.1,16.9-54.7,17.6C203.4,317.1,200.5,317.2,197.5,317.2
			C197.5,317.2,197.5,317.2,197.5,317.2z"/>
	</g>
	<g>
		<path d="M194.9,66.2c23,0,46.1,8.4,62.2,25.5c18.1,19.3,24.2,48.1,18.6,73.9c-2.1,9.5-5.6,18.8-6.4,28.5
			c-0.5,5.6-0.1,11.2,0.8,16.7c1.3,8.5,3.5,16.9,4.9,25.4c3.6,21.8,0.9,46.7-15.2,62c-13.9,13.2-34.4,16.4-53.5,17.1
			c-2.9,0.1-5.8,0.2-8.7,0.2c-10.3,0-20.5-0.8-30.4-3.3c-12.7-3.2-25-9.3-33.9-19c-15.7-17-18.7-42.6-14.3-65.3
			c1.7-8.8,4.5-17.5,4.2-26.5c-0.3-10.9-5-21.2-7.9-31.7c-5.8-21.6-3.3-45.5,7.8-64.9C137.9,79.1,166.3,66.2,194.9,66.2 M194.9,62.6
			c-31.8,0-60.5,15.5-74.9,40.3c-11.4,19.8-14.4,44.4-8.2,67.6c0.9,3.3,1.9,6.5,3,9.7c2.4,7.3,4.6,14.1,4.8,21.2
			c0.2,6.3-1.2,12.4-2.7,19c-0.5,2.2-1,4.5-1.5,6.7c-5.3,26.8,0.4,52.4,15.1,68.4c8.7,9.4,21,16.4,35.7,20
			c9.1,2.3,19.3,3.4,31.3,3.4c2.8,0,5.7-0.1,8.8-0.2c17.9-0.6,40.3-3.3,55.8-18c14.9-14.2,20.8-37.9,16.2-65.1
			c-0.7-4-1.5-8-2.3-11.8c-0.9-4.4-1.9-9-2.6-13.5c-0.9-6.1-1.2-11.2-0.8-15.9c0.5-6,2.1-11.7,3.8-17.8c0.9-3.3,1.8-6.7,2.6-10.2
			c6.1-28.3-1.3-57.8-19.4-77.1C243.8,72.3,220.2,62.6,194.9,62.6L194.9,62.6z"/>
	</g>
</g>
<g>
	<g>
		<path class="st4" d="M118.6,188c0,0,87.5,73.6,159.1,80.3c0,0-0.9,13.5-4.5,18.9c0,0-108.3-27.1-155.4-81.8L118.6,188z"/>
		<path d="M273.1,289c-0.1,0-0.3,0-0.4-0.1c-1.1-0.3-109.4-27.9-156.3-82.4c-0.3-0.3-0.5-0.8-0.4-1.3l0.9-17.4
			c0-0.7,0.4-1.3,1.1-1.5c0.6-0.3,1.3-0.2,1.9,0.3c0.9,0.7,87.9,73.3,158.1,79.9c1,0.1,1.7,0.9,1.6,1.9c0,0.6-1,14.1-4.8,19.8
			C274.3,288.7,273.7,289,273.1,289z M119.5,204.8c43.7,50,140.4,77.1,152.7,80.3c2-3.9,3.1-11.2,3.5-15.2
			c-63.9-7-140.2-66-155.6-78.3L119.5,204.8z"/>
	</g>
	<g>
		<path class="st5" d="M285.9,264.9c1.6,0,3.3,0,4.9,0.7c1.9,0.8,3.3,2.6,4.3,4.4c3.7,6.9,2.6,15.4,0.9,23
			c-1.5,6.7-3.4,13.5-7.1,19.4c-3.6,5.9-9.2,10.8-15.8,12.5c-6.7,1.7-14.5-0.5-18.5-6.2c-2.6-3.8-3.3-8.6-3.4-13.2
			c-0.4-12.4,2.9-25.3,11-34.7C268.7,263.2,276.8,264.9,285.9,264.9z"/>
		<path d="M268.5,327.2c-6.2,0-12.1-2.8-15.4-7.5c-3.1-4.4-3.6-9.9-3.8-14.1c-0.4-14.2,3.6-27,11.5-36c6.1-7,13.4-6.8,21-6.6
			c1.3,0,2.7,0.1,4.1,0.1l0,0c1.7,0,3.7,0,5.6,0.8c2.1,0.9,3.8,2.6,5.2,5.2c4,7.5,2.8,16.5,1,24.3c-1.4,6.3-3.4,13.5-7.3,19.9
			c-4.3,6.9-10.3,11.6-16.9,13.3C271.8,327,270.1,327.2,268.5,327.2z M277.8,266.5c-5.6,0-10.2,0.7-14.3,5.4
			c-7.2,8.3-11,20.2-10.6,33.5c0.1,3.8,0.6,8.5,3.1,12.2c3.3,4.7,10.3,7,16.6,5.4c5.7-1.4,11-5.7,14.8-11.7
			c3.7-5.9,5.5-12.8,6.8-18.8c1.6-7.1,2.8-15.3-0.7-21.8c-1-1.8-2.1-3.1-3.4-3.6c-1.2-0.5-2.7-0.5-4.2-0.5c-1.4,0-2.8,0-4.2-0.1
			C280.4,266.5,279.1,266.5,277.8,266.5z"/>
	</g>
	<g>
		<path class="st6" d="M283,278.6c-3.7-0.4-10.1-1.9-13-0.6c-2.1,0.9-3.5,5.5-0.6,6.2c7.4,1.8,15.2,2,22.8,1.4
			c2.8-0.2,6.8-2.5,3.4-5c-2.7-1.9-8.5-1.8-11.6-2C283.6,278.7,283.3,278.7,283,278.6z"/>
		<path d="M285.1,287.7c-5.9,0-11.2-0.6-16.1-1.8c-1.7-0.4-2.8-1.7-3-3.5c-0.2-2.4,1.3-5.2,3.3-6.1c2.8-1.3,7.2-0.6,11.2,0.1
			c1,0.2,2,0.3,2.8,0.4h0c0.3,0,0.6,0.1,0.8,0.1c0.5,0,1.1,0.1,1.8,0.1c3.6,0.1,8,0.3,10.7,2.2c2.3,1.6,2.2,3.4,2,4.3
			c-0.6,2.3-3.7,3.7-6.2,3.9C289.8,287.6,287.4,287.7,285.1,287.7z M273.3,279.2c-1,0-1.9,0.1-2.6,0.4c-0.5,0.2-1.3,1.5-1.2,2.5
			c0,0.3,0.1,0.3,0.3,0.4c6.5,1.6,13.7,2,22.2,1.4c1.5-0.1,2.9-0.9,3-1.3c0,0.1-0.2-0.2-0.6-0.5c-1.8-1.3-6-1.4-8.8-1.6
			c-0.7,0-1.4-0.1-1.9-0.1c-0.3,0-0.6-0.1-1-0.1c-0.9-0.1-1.9-0.3-2.9-0.4C277.9,279.6,275.3,279.2,273.3,279.2z"/>
	</g>
	<g>
		<path class="st5" d="M295.9,282.2c-0.4,0-0.9-0.1-1.1,0.2c-0.2,0.2-0.3,0.6-0.3,0.9c-0.5,5.9-0.4,11.9,0.5,17.8
			c0.1,0.7,0.3,1.4,0.8,1.8c0.4,0.3,0.9,0.3,1.4,0.3c1.2,0,2.4,0,3.6,0c0.8,0,1.6,0,2.3-0.4c1.4-0.8,1.4-2.9,1.2-4.6
			c-0.6-3.9-1.4-7.7-2.5-11.5C300.5,283,300,282.6,295.9,282.2z"/>
		<path d="M301,305.1c-0.1,0-0.2,0-0.3,0l-3.6,0c-0.6,0-1.5,0-2.3-0.6c-1.3-0.8-1.5-2.4-1.6-3c-0.9-6-1.1-12.2-0.5-18.3
			c0-0.4,0.1-1.3,0.8-2c0.9-0.9,2.1-0.8,2.6-0.7c0,0,0,0,0,0c4.8,0.5,6,1.4,7.3,5.9c1.1,4,2,7.9,2.6,11.7c0.5,3.1-0.2,5.3-2.1,6.4
			C302.9,305,301.8,305.1,301,305.1z M296.2,284c-0.5,5.7-0.3,11.3,0.5,16.9c0,0.3,0.1,0.5,0.1,0.6c0-0.1,0.2-0.1,0.3-0.1l3.6,0
			c0.4,0,1.1,0,1.4-0.1c0.3-0.2,0.6-1,0.3-2.8c-0.5-3.7-1.4-7.5-2.5-11.3C299.1,284.5,299.1,284.3,296.2,284z"/>
	</g>
</g>
<g>
	<path class="st0" d="M177.7,68.5c0,0,6.4-15.8,17.3-12.3c14.4,4.6,17.3-5.3,17.3-5.3s4.7,17.6-11,24.2"/>
	<path d="M201.3,76.8c-0.7,0-1.4-0.4-1.6-1.1c-0.4-0.9,0-2,1-2.3c9.6-4,10.8-12.5,10.6-17.7c-0.7,0.7-1.6,1.4-2.6,1.9
		c-3.7,2-8.5,2-14.1,0.2c-9.1-2.9-15,11.2-15.1,11.3c-0.4,0.9-1.4,1.4-2.3,1c-0.9-0.4-1.4-1.4-1-2.3c0.3-0.7,7.2-17.3,19.4-13.4
		c4.7,1.5,8.5,1.5,11.3,0.1c2.9-1.5,3.7-4.1,3.8-4.2c0.2-0.8,1-1.4,1.7-1.3c0.8,0,1.5,0.5,1.7,1.3c0,0.2,4.9,19.2-12.1,26.3
		C201.8,76.8,201.5,76.8,201.3,76.8z"/>
</g>
<g>
	<g>
		<path d="M208.2,128.2c-0.4,0-0.8-0.1-1.1-0.4c-0.8-0.6-0.9-1.7-0.3-2.5c0.2-0.3,4.9-6.2,15-2.9c0.9,0.3,1.4,1.3,1.1,2.3
			c-0.3,0.9-1.3,1.4-2.3,1.1c-7.7-2.5-11,1.6-11.1,1.7C209.2,128,208.7,128.2,208.2,128.2z"/>
	</g>
	<g>
		<path d="M181.8,128.2c-0.5,0-1.1-0.2-1.4-0.7c-0.2-0.2-3.5-4.2-11.1-1.7c-0.9,0.3-1.9-0.2-2.3-1.1c-0.3-0.9,0.2-1.9,1.1-2.3
			c10.1-3.3,14.8,2.6,15,2.9c0.6,0.8,0.5,1.9-0.3,2.5C182.5,128.1,182.2,128.2,181.8,128.2z"/>
	</g>
</g>
<g>
	<g>
		<g>
			<path class="st3" d="M203.3,154.1c1.9,0,3,2.2,2,3.9c-1.7,2.9-4.7,6.2-10,6.2c-5.2,0-8.6-3.2-10.6-6.1c-1.2-1.7,0-4.1,1.9-4.1
				H203.3z"/>
			<path d="M195.3,166.1c-6,0-9.9-3.7-12.1-6.8c-1-1.4-1.1-3.2-0.3-4.7c0.7-1.4,2.2-2.3,3.7-2.3h16.7c1.5,0,2.9,0.8,3.6,2.1
				c0.8,1.4,0.8,3.1,0,4.5C205.1,162.2,201.5,166.1,195.3,166.1z M186.6,156c-0.3,0-0.4,0.2-0.5,0.3c-0.1,0.1-0.2,0.5,0,0.8
				c1.7,2.4,4.7,5.3,9.1,5.3c3.6,0,6.4-1.8,8.5-5.3c0.2-0.4,0.1-0.7,0-0.8c-0.1-0.1-0.2-0.3-0.4-0.3H186.6z"/>
		</g>
		<g>
			<path class="st3" d="M209.2,139.3c-2.4-3.8-6.7-5.4-14.2-5.4c-7.5,0-11.9,1.6-14.2,5.4c-1.4,2.3-0.3,4.5,2.7,6.2
				c4.4,2.5,10.2,2.5,15.2,2.1c2.7-0.2,5.5-0.8,7.9-2.1C209.5,143.8,210.6,141.6,209.2,139.3z"/>
			<path d="M194.4,149.6c-4.1,0-8.3-0.5-11.8-2.5c-2.2-1.2-3.6-2.8-4-4.6c-0.4-1.4-0.1-2.8,0.7-4.1c2.7-4.4,7.6-6.3,15.8-6.3
				c8.3-0.1,13.1,1.9,15.7,6.3v0c0.8,1.3,1.1,2.8,0.7,4.1c-0.4,1.7-1.8,3.3-4,4.6c-2.4,1.4-5.3,2.2-8.7,2.4
				C197.3,149.5,195.9,149.6,194.4,149.6z M194.8,135.6c-6.8,0-10.6,1.4-12.6,4.6c-0.4,0.7-0.4,1.1-0.3,1.4c0.2,0.8,1,1.6,2.3,2.4
				c4,2.3,9.4,2.2,14.2,1.9c2.9-0.2,5.3-0.8,7.2-1.9c1.3-0.7,2.1-1.6,2.3-2.4c0.1-0.3,0.1-0.7-0.3-1.4c-2-3.2-5.7-4.6-12.5-4.6
				C195,135.6,194.9,135.6,194.8,135.6z"/>
		</g>
	</g>
	<g>
		<path class="st7" d="M183.4,145.5L183.4,145.5c0,0,2.7,11.8,11.5,11.8c8.8,0,11.5-11.8,11.5-11.8h0
			C199.1,142.5,190.8,142.5,183.4,145.5z"/>
		<path d="M195,159c-10.1,0-13.2-12.6-13.3-13.1l-0.3-1.5l1.4-0.6c7.9-3.2,16.6-3.2,24.4,0l1.4,0.6l-0.3,1.5
			C208.1,146.4,205.1,159,195,159z M185.6,146.6c1,2.9,3.8,8.9,9.4,8.9c5.6,0,8.4-6,9.4-8.9C198.2,144.5,191.7,144.5,185.6,146.6z"
			/>
	</g>
</g>
</svg>
