<?xml version="1.0" encoding="utf-8"?>
<!-- Generator: Adobe Illustrator 26.5.0, SVG Export Plug-In . SVG Version: 6.00 Build 0)  -->
<svg version="1.1" id="레이어_1" xmlns="http://www.w3.org/2000/svg" xmlns:xlink="http://www.w3.org/1999/xlink" x="0px"
	 y="0px" viewBox="0 0 195 195" style="enable-background:new 0 0 195 195;" xml:space="preserve">
<g>
	<g>
		<path style="fill:#00CB00;" d="M164.3,195H30.7C13.8,195,0,181.2,0,164.3V30.7C0,13.8,13.8,0,30.7,0h133.6
			c17,0,30.7,13.8,30.7,30.7v133.6C195,181.2,181.2,195,164.3,195z"/>
		<path style="fill:#007313;" d="M164.3,5C178.5,5,190,16.5,190,30.7v133.6c0,14.2-11.5,25.7-25.7,25.7H30.7
			C16.5,190,5,178.5,5,164.3V30.7C5,16.5,16.5,5,30.7,5H164.3 M164.3,0H30.7C13.8,0,0,13.8,0,30.7v133.6c0,17,13.8,30.7,30.7,30.7
			h133.6c17,0,30.7-13.8,30.7-30.7V30.7C195,13.8,181.2,0,164.3,0L164.3,0z"/>
	</g>
	<g>
		<g>
			<g>
				<rect x="63.5" y="31.4" style="fill:#B649FF;" width="21" height="21"/>
			</g>
			<g>
				<path style="fill:#7F21B6;" d="M84.5,53.7h-21c-0.7,0-1.3-0.6-1.3-1.3s0.6-1.3,1.3-1.3h19.7V31.4c0-0.7,0.6-1.3,1.3-1.3
					c0.7,0,1.3,0.6,1.3,1.3v21C85.8,53.1,85.2,53.7,84.5,53.7z"/>
			</g>
			<g>
				<path style="fill:#DB8EFF;" d="M63.5,53.7c-0.7,0-1.3-0.6-1.3-1.3v-21c0-0.7,0.6-1.3,1.3-1.3h21c0.7,0,1.3,0.6,1.3,1.3
					c0,0.7-0.6,1.3-1.3,1.3H64.8v19.7C64.8,53.1,64.2,53.7,63.5,53.7z"/>
			</g>
		</g>
		<g>
			<g>
				<rect x="87" y="31.4" style="fill:#B649FF;" width="21" height="21"/>
			</g>
			<g>
				<path style="fill:#7F21B6;" d="M108,53.7H87c-0.7,0-1.3-0.6-1.3-1.3S86.2,51,87,51h19.7V31.4c0-0.7,0.6-1.3,1.3-1.3
					c0.7,0,1.3,0.6,1.3,1.3v21C109.4,53.1,108.8,53.7,108,53.7z"/>
			</g>
			<g>
				<path style="fill:#DB8EFF;" d="M87,53.7c-0.7,0-1.3-0.6-1.3-1.3v-21c0-0.7,0.6-1.3,1.3-1.3h21c0.7,0,1.3,0.6,1.3,1.3
					c0,0.7-0.6,1.3-1.3,1.3H88.3v19.7C88.3,53.1,87.7,53.7,87,53.7z"/>
			</g>
		</g>
		<g>
			<g>
				<rect x="87" y="54.3" style="fill:#B649FF;" width="21" height="21"/>
			</g>
			<g>
				<path style="fill:#7F21B6;" d="M108,76.7H87c-0.7,0-1.3-0.6-1.3-1.3c0-0.7,0.6-1.3,1.3-1.3h19.7V54.3c0-0.7,0.6-1.3,1.3-1.3
					c0.7,0,1.3,0.6,1.3,1.3v21C109.4,76.1,108.8,76.7,108,76.7z"/>
			</g>
			<g>
				<path style="fill:#DB8EFF;" d="M87,76.7c-0.7,0-1.3-0.6-1.3-1.3v-21c0-0.7,0.6-1.3,1.3-1.3h21c0.7,0,1.3,0.6,1.3,1.3
					c0,0.7-0.6,1.3-1.3,1.3H88.3v19.7C88.3,76.1,87.7,76.7,87,76.7z"/>
			</g>
		</g>
		<g>
			<g>
				<rect x="110.5" y="31.4" style="fill:#B649FF;" width="21" height="21"/>
			</g>
			<g>
				<path style="fill:#7F21B6;" d="M131.5,53.7h-21c-0.7,0-1.3-0.6-1.3-1.3s0.6-1.3,1.3-1.3h19.7V31.4c0-0.7,0.6-1.3,1.3-1.3
					s1.3,0.6,1.3,1.3v21C132.9,53.1,132.3,53.7,131.5,53.7z"/>
			</g>
			<g>
				<path style="fill:#DB8EFF;" d="M110.5,53.7c-0.7,0-1.3-0.6-1.3-1.3v-21c0-0.7,0.6-1.3,1.3-1.3h21c0.7,0,1.3,0.6,1.3,1.3
					c0,0.7-0.6,1.3-1.3,1.3h-19.7v19.7C111.9,53.1,111.3,53.7,110.5,53.7z"/>
			</g>
		</g>
		<path d="M131.5,30c0.7,0,1.3,0.6,1.3,1.3v21c0,0.7-0.6,1.3-1.3,1.3h-21c-0.6,0-1.1-0.4-1.3-0.9c-0.1,0.2-0.2,0.4-0.3,0.5
			c0.2,0.2,0.4,0.6,0.4,1v21c0,0.7-0.6,1.3-1.3,1.3H87c-0.7,0-1.3-0.6-1.3-1.3v-21c0-0.4,0.2-0.7,0.4-1c-0.1-0.1-0.2-0.3-0.3-0.5
			c-0.2,0.5-0.7,0.9-1.3,0.9h-21c-0.7,0-1.3-0.6-1.3-1.3v-21c0-0.7,0.6-1.3,1.3-1.3h21c0.6,0,1.1,0.4,1.3,0.9
			c0.2-0.5,0.7-0.9,1.3-0.9h21c0.6,0,1.1,0.4,1.3,0.9c0.2-0.5,0.7-0.9,1.3-0.9H131.5 M131.5,25h-21c-0.4,0-0.8,0-1.3,0.1
			c-0.4-0.1-0.8-0.1-1.3-0.1H87c-0.4,0-0.8,0-1.3,0.1c-0.4-0.1-0.8-0.1-1.3-0.1h-21c-3.5,0-6.3,2.8-6.3,6.3v21
			c0,3.5,2.8,6.3,6.3,6.3h17.2v16.6c0,3.5,2.8,6.3,6.3,6.3h21c3.5,0,6.3-2.8,6.3-6.3V58.7h17.2c3.5,0,6.3-2.8,6.3-6.3v-21
			C137.9,27.9,135,25,131.5,25L131.5,25z"/>
	</g>
	<g>
		<g>
			<g>
				<g>
					<g>
						<rect x="22.5" y="147.3" style="fill:#E87807;" width="21" height="21"/>
					</g>
					<g>
						<path style="fill:#D04E20;" d="M43.5,169.7h-21c-0.7,0-1.3-0.6-1.3-1.3c0-0.7,0.6-1.3,1.3-1.3h19.7v-19.7
							c0-0.7,0.6-1.3,1.3-1.3s1.3,0.6,1.3,1.3v21C44.8,169.1,44.2,169.7,43.5,169.7z"/>
					</g>
					<g>
						<path style="fill:#FFB800;" d="M22.5,169.7c-0.7,0-1.3-0.6-1.3-1.3v-21c0-0.7,0.6-1.3,1.3-1.3h21c0.7,0,1.3,0.6,1.3,1.3
							s-0.6,1.3-1.3,1.3H23.8v19.7C23.8,169.1,23.2,169.7,22.5,169.7z"/>
					</g>
				</g>
				<g>
					<g>
						<rect x="46" y="147.3" style="fill:#E87807;" width="21" height="21"/>
					</g>
					<g>
						<path style="fill:#D04E20;" d="M67,169.7H46c-0.7,0-1.3-0.6-1.3-1.3c0-0.7,0.6-1.3,1.3-1.3h19.7v-19.7c0-0.7,0.6-1.3,1.3-1.3
							c0.7,0,1.3,0.6,1.3,1.3v21C68.4,169.1,67.8,169.7,67,169.7z"/>
					</g>
					<g>
						<path style="fill:#FFB800;" d="M46,169.7c-0.7,0-1.3-0.6-1.3-1.3v-21c0-0.7,0.6-1.3,1.3-1.3h21c0.7,0,1.3,0.6,1.3,1.3
							s-0.6,1.3-1.3,1.3H47.3v19.7C47.3,169.1,46.7,169.7,46,169.7z"/>
					</g>
				</g>
				<g>
					<g>
						<rect x="22.5" y="123.9" style="fill:#E87807;" width="21" height="21"/>
					</g>
					<g>
						<path style="fill:#D04E20;" d="M43.5,146.2h-21c-0.7,0-1.3-0.6-1.3-1.3s0.6-1.3,1.3-1.3h19.7v-19.7c0-0.7,0.6-1.3,1.3-1.3
							s1.3,0.6,1.3,1.3v21C44.8,145.6,44.2,146.2,43.5,146.2z"/>
					</g>
					<g>
						<path style="fill:#FFB800;" d="M22.5,146.2c-0.7,0-1.3-0.6-1.3-1.3v-21c0-0.7,0.6-1.3,1.3-1.3h21c0.7,0,1.3,0.6,1.3,1.3
							c0,0.7-0.6,1.3-1.3,1.3H23.8v19.7C23.8,145.6,23.2,146.2,22.5,146.2z"/>
					</g>
				</g>
				<g>
					<g>
						<rect x="69.5" y="147.3" style="fill:#E87807;" width="21" height="21"/>
					</g>
					<g>
						<path style="fill:#D04E20;" d="M90.5,169.7h-21c-0.7,0-1.3-0.6-1.3-1.3c0-0.7,0.6-1.3,1.3-1.3h19.7v-19.7
							c0-0.7,0.6-1.3,1.3-1.3c0.7,0,1.3,0.6,1.3,1.3v21C91.9,169.1,91.3,169.7,90.5,169.7z"/>
					</g>
					<g>
						<path style="fill:#FFB800;" d="M69.5,169.7c-0.7,0-1.3-0.6-1.3-1.3v-21c0-0.7,0.6-1.3,1.3-1.3h21c0.7,0,1.3,0.6,1.3,1.3
							s-0.6,1.3-1.3,1.3H70.9v19.7C70.9,169.1,70.3,169.7,69.5,169.7z"/>
					</g>
				</g>
			</g>
			<path d="M43.5,122.5c0.7,0,1.3,0.6,1.3,1.3v21c0,0.5-0.3,1-0.8,1.2c0.3,0.1,0.6,0.4,0.7,0.8c0.2-0.5,0.7-0.9,1.3-0.9h21
				c0.6,0,1.1,0.4,1.3,0.9c0.2-0.5,0.7-0.9,1.3-0.9h21c0.7,0,1.3,0.6,1.3,1.3v21c0,0.7-0.6,1.3-1.3,1.3h-21c-0.6,0-1.1-0.4-1.3-0.9
				c-0.2,0.5-0.7,0.9-1.3,0.9H46c-0.6,0-1.1-0.4-1.3-0.9c-0.2,0.5-0.7,0.9-1.3,0.9h-21c-0.7,0-1.3-0.6-1.3-1.3v-21
				c0-0.5,0.3-1,0.8-1.2c-0.5-0.2-0.8-0.7-0.8-1.2v-21c0-0.7,0.6-1.3,1.3-1.3H43.5 M43.5,117.5h-21c-3.5,0-6.3,2.8-6.3,6.3v21
				c0,0.4,0,0.8,0.1,1.2c-0.1,0.4-0.1,0.8-0.1,1.2v21c0,3.5,2.8,6.3,6.3,6.3h21c0.4,0,0.8,0,1.3-0.1c0.4,0.1,0.8,0.1,1.3,0.1h21
				c0.4,0,0.8,0,1.3-0.1c0.4,0.1,0.8,0.1,1.3,0.1h21c3.5,0,6.3-2.8,6.3-6.3v-21c0-3.5-2.8-6.3-6.3-6.3h-21c-0.4,0-0.8,0-1.3,0.1
				c-0.4-0.1-0.8-0.1-1.3-0.1H49.8v-17.1C49.8,120.4,47,117.5,43.5,117.5L43.5,117.5z"/>
		</g>
		<g>
			<g>
				<g>
					<g>
						<rect x="23.8" y="99.6" style="fill:#FB0000;" width="21" height="21"/>
					</g>
					<g>
						<path style="fill:#DD0000;" d="M44.8,122h-21c-0.7,0-1.3-0.6-1.3-1.3c0-0.7,0.6-1.3,1.3-1.3h19.7V99.6c0-0.7,0.6-1.3,1.3-1.3
							s1.3,0.6,1.3,1.3v21C46.2,121.3,45.6,122,44.8,122z"/>
					</g>
					<g>
						<path style="fill:#FF3C48;" d="M23.8,122c-0.7,0-1.3-0.6-1.3-1.3v-21c0-0.7,0.6-1.3,1.3-1.3h21c0.7,0,1.3,0.6,1.3,1.3
							c0,0.7-0.6,1.3-1.3,1.3H25.1v19.7C25.1,121.3,24.5,122,23.8,122z"/>
					</g>
				</g>
				<g>
					<g>
						<rect x="47.3" y="99.6" style="fill:#FB0000;" width="21" height="21"/>
					</g>
					<g>
						<path style="fill:#DD0000;" d="M68.4,122h-21c-0.7,0-1.3-0.6-1.3-1.3c0-0.7,0.6-1.3,1.3-1.3H67V99.6c0-0.7,0.6-1.3,1.3-1.3
							c0.7,0,1.3,0.6,1.3,1.3v21C69.7,121.3,69.1,122,68.4,122z"/>
					</g>
					<g>
						<path style="fill:#FF3C48;" d="M47.3,122c-0.7,0-1.3-0.6-1.3-1.3v-21c0-0.7,0.6-1.3,1.3-1.3h21c0.7,0,1.3,0.6,1.3,1.3
							c0,0.7-0.6,1.3-1.3,1.3H48.7v19.7C48.7,121.3,48.1,122,47.3,122z"/>
					</g>
				</g>
				<g>
					<g>
						<rect x="47.3" y="122.5" style="fill:#FB0000;" width="21" height="21"/>
					</g>
					<g>
						<path style="fill:#DD0000;" d="M68.4,144.9h-21c-0.7,0-1.3-0.6-1.3-1.3c0-0.7,0.6-1.3,1.3-1.3H67v-19.7c0-0.7,0.6-1.3,1.3-1.3
							c0.7,0,1.3,0.6,1.3,1.3v21C69.7,144.3,69.1,144.9,68.4,144.9z"/>
					</g>
					<g>
						<path style="fill:#FF3C48;" d="M47.3,144.9c-0.7,0-1.3-0.6-1.3-1.3v-21c0-0.7,0.6-1.3,1.3-1.3h21c0.7,0,1.3,0.6,1.3,1.3
							c0,0.7-0.6,1.3-1.3,1.3H48.7v19.7C48.7,144.3,48.1,144.9,47.3,144.9z"/>
					</g>
				</g>
				<g>
					<g>
						<rect x="71" y="122.5" style="fill:#FB0000;" width="21" height="21"/>
					</g>
					<g>
						<path style="fill:#DD0000;" d="M92,144.9H71c-0.7,0-1.3-0.6-1.3-1.3c0-0.7,0.6-1.3,1.3-1.3h19.7v-19.7c0-0.7,0.6-1.3,1.3-1.3
							s1.3,0.6,1.3,1.3v21C93.3,144.3,92.7,144.9,92,144.9z"/>
					</g>
					<g>
						<path style="fill:#FF3C48;" d="M71,144.9c-0.7,0-1.3-0.6-1.3-1.3v-21c0-0.7,0.6-1.3,1.3-1.3h21c0.7,0,1.3,0.6,1.3,1.3
							c0,0.7-0.6,1.3-1.3,1.3H72.3v19.7C72.3,144.3,71.7,144.9,71,144.9z"/>
					</g>
				</g>
			</g>
			<path d="M68.4,98.2c0.7,0,1.3,0.6,1.3,1.3v21c0,0.4-0.2,0.7-0.4,1c0.2,0.2,0.3,0.5,0.4,0.7c0.1-0.6,0.6-1.1,1.3-1.1h21
				c0.7,0,1.3,0.6,1.3,1.3v21c0,0.7-0.6,1.3-1.3,1.3H71c-0.7,0-1.2-0.5-1.3-1.1c-0.1,0.6-0.6,1.1-1.3,1.1h-21
				c-0.7,0-1.3-0.6-1.3-1.3v-21c0-0.4,0.2-0.7,0.4-1c-0.1-0.1-0.2-0.3-0.3-0.5c-0.2,0.5-0.7,0.9-1.3,0.9h-21c-0.7,0-1.3-0.6-1.3-1.3
				v-21c0-0.7,0.6-1.3,1.3-1.3h21c0.6,0,1.1,0.4,1.3,0.9c0.2-0.5,0.7-0.9,1.3-0.9H68.4 M68.4,93.2h-21c-0.4,0-0.8,0-1.3,0.1
				c-0.4-0.1-0.8-0.1-1.3-0.1h-21c-3.5,0-6.3,2.8-6.3,6.3v21c0,3.5,2.8,6.3,6.3,6.3H41v16.6c0,3.5,2.8,6.3,6.3,6.3h21
				c0.4,0,0.9,0,1.3-0.1c0.4,0.1,0.9,0.1,1.3,0.1h21c3.5,0,6.3-2.8,6.3-6.3v-21c0-3.5-2.8-6.3-6.3-6.3H74.7V99.6
				C74.7,96.1,71.9,93.2,68.4,93.2L68.4,93.2z"/>
		</g>
		<g>
			<g>
				<g>
					<g>
						<rect x="100.1" y="123.9" style="fill:#FFE100;" width="21" height="21"/>
					</g>
					<g>
						<path style="fill:#F1B800;" d="M121.1,146.2h-21c-0.7,0-1.3-0.6-1.3-1.3c0-0.7,0.6-1.3,1.3-1.3h19.7v-19.7
							c0-0.7,0.6-1.3,1.3-1.3s1.3,0.6,1.3,1.3v21C122.5,145.6,121.9,146.2,121.1,146.2z"/>
					</g>
					<g>
						<path style="fill:#FCFF00;" d="M100.1,146.2c-0.7,0-1.3-0.6-1.3-1.3v-21c0-0.7,0.6-1.3,1.3-1.3h21c0.7,0,1.3,0.6,1.3,1.3
							c0,0.7-0.6,1.3-1.3,1.3h-19.7v19.7C101.5,145.6,100.8,146.2,100.1,146.2z"/>
					</g>
				</g>
				<g>
					<g>
						<rect x="123.6" y="123.9" style="fill:#FFE100;" width="21" height="21"/>
					</g>
					<g>
						<path style="fill:#F1B800;" d="M144.7,146.2h-21c-0.7,0-1.3-0.6-1.3-1.3c0-0.7,0.6-1.3,1.3-1.3h19.7v-19.7
							c0-0.7,0.6-1.3,1.3-1.3c0.7,0,1.3,0.6,1.3,1.3v21C146,145.6,145.4,146.2,144.7,146.2z"/>
					</g>
					<g>
						<path style="fill:#FCFF00;" d="M123.6,146.2c-0.7,0-1.3-0.6-1.3-1.3v-21c0-0.7,0.6-1.3,1.3-1.3h21c0.7,0,1.3,0.6,1.3,1.3
							c0,0.7-0.6,1.3-1.3,1.3H125v19.7C125,145.6,124.4,146.2,123.6,146.2z"/>
					</g>
				</g>
				<g>
					<g>
						<rect x="100" y="146.8" style="fill:#FFE100;" width="21" height="21"/>
					</g>
					<g>
						<path style="fill:#F1B800;" d="M121.1,169.2h-21c-0.7,0-1.3-0.6-1.3-1.3c0-0.7,0.6-1.3,1.3-1.3h19.7v-19.7
							c0-0.7,0.6-1.3,1.3-1.3c0.7,0,1.3,0.6,1.3,1.3v21C122.4,168.6,121.8,169.2,121.1,169.2z"/>
					</g>
					<g>
						<path style="fill:#FCFF00;" d="M100,169.2c-0.7,0-1.3-0.6-1.3-1.3v-21c0-0.7,0.6-1.3,1.3-1.3h21c0.7,0,1.3,0.6,1.3,1.3
							s-0.6,1.3-1.3,1.3h-19.7v19.7C101.4,168.6,100.8,169.2,100,169.2z"/>
					</g>
				</g>
				<g>
					<g>
						<rect x="123.7" y="146.8" style="fill:#FFE100;" width="21" height="21"/>
					</g>
					<g>
						<path style="fill:#F1B800;" d="M144.7,169.2h-21c-0.7,0-1.3-0.6-1.3-1.3c0-0.7,0.6-1.3,1.3-1.3h19.7v-19.7
							c0-0.7,0.6-1.3,1.3-1.3s1.3,0.6,1.3,1.3v21C146.1,168.6,145.5,169.2,144.7,169.2z"/>
					</g>
					<g>
						<path style="fill:#FCFF00;" d="M123.7,169.2c-0.7,0-1.3-0.6-1.3-1.3v-21c0-0.7,0.6-1.3,1.3-1.3h21c0.7,0,1.3,0.6,1.3,1.3
							s-0.6,1.3-1.3,1.3H125v19.7C125,168.6,124.4,169.2,123.7,169.2z"/>
					</g>
				</g>
			</g>
			<path d="M144.7,122.5c0.7,0,1.3,0.6,1.3,1.3v21c0,0.4-0.1,0.7-0.4,0.9c0.3,0.2,0.4,0.6,0.4,1v21c0,0.7-0.6,1.3-1.3,1.3h-21
				c-0.7,0-1.2-0.5-1.3-1.1c-0.1,0.6-0.6,1.1-1.3,1.1h-21c-0.7,0-1.3-0.6-1.3-1.3v-21c0-0.4,0.2-0.7,0.4-1c-0.2-0.2-0.4-0.6-0.4-0.9
				v-21c0-0.7,0.6-1.3,1.3-1.3h21c0.6,0,1.1,0.4,1.3,0.9c0.2-0.5,0.7-0.9,1.3-0.9H144.7 M122.4,146.6c0-0.3,0.2-0.5,0.3-0.7
				c-0.1-0.1-0.3-0.3-0.3-0.5c-0.1,0.2-0.2,0.4-0.3,0.5C122.2,146.1,122.3,146.3,122.4,146.6 M144.7,117.5h-21c-0.4,0-0.8,0-1.3,0.1
				c-0.4-0.1-0.8-0.1-1.3-0.1h-21c-3.5,0-6.3,2.8-6.3,6.3v21c0,0.3,0,0.5,0,0.8c-0.1,0.4-0.1,0.7-0.1,1.1v21c0,3.5,2.8,6.3,6.3,6.3
				h21c0.4,0,0.9,0,1.3-0.1c0.4,0.1,0.9,0.1,1.3,0.1h21c3.5,0,6.3-2.8,6.3-6.3v-21c0-0.4,0-0.7-0.1-1.1c0-0.3,0.1-0.5,0.1-0.8v-21
				C151,120.4,148.2,117.5,144.7,117.5L144.7,117.5z"/>
		</g>
		<g>
			<g>
				<g>
					<g>
						
							<rect x="151.5" y="145.2" transform="matrix(6.123234e-17 -1 1 6.123234e-17 6.306 317.7638)" style="fill:#5412FF;" width="21" height="21"/>
					</g>
					<g>
						<path style="fill:#4100FF;" d="M173.9,145.2v21c0,0.7-0.6,1.3-1.3,1.3c-0.7,0-1.3-0.6-1.3-1.3v-19.7h-19.7
							c-0.7,0-1.3-0.6-1.3-1.3s0.6-1.3,1.3-1.3h21C173.3,143.9,173.9,144.5,173.9,145.2z"/>
					</g>
					<g>
						<path style="fill:#7266FF;" d="M173.9,166.2c0,0.7-0.6,1.3-1.3,1.3h-21c-0.7,0-1.3-0.6-1.3-1.3v-21c0-0.7,0.6-1.3,1.3-1.3
							c0.7,0,1.3,0.6,1.3,1.3v19.7h19.7C173.3,164.9,173.9,165.5,173.9,166.2z"/>
					</g>
				</g>
				<g>
					<g>
						
							<rect x="151.5" y="121.7" transform="matrix(6.123234e-17 -1 1 6.123234e-17 29.839 294.2308)" style="fill:#5412FF;" width="21" height="21"/>
					</g>
					<g>
						<path style="fill:#4100FF;" d="M173.9,121.7v21c0,0.7-0.6,1.3-1.3,1.3c-0.7,0-1.3-0.6-1.3-1.3V123h-19.7
							c-0.7,0-1.3-0.6-1.3-1.3c0-0.7,0.6-1.3,1.3-1.3h21C173.3,120.3,173.9,120.9,173.9,121.7z"/>
					</g>
					<g>
						<path style="fill:#7266FF;" d="M173.9,142.7c0,0.7-0.6,1.3-1.3,1.3h-21c-0.7,0-1.3-0.6-1.3-1.3v-21c0-0.7,0.6-1.3,1.3-1.3
							c0.7,0,1.3,0.6,1.3,1.3v19.7h19.7C173.3,141.4,173.9,142,173.9,142.7z"/>
					</g>
				</g>
				<g>
					<g>
						
							<rect x="128.1" y="98" transform="matrix(6.123234e-17 -1 1 6.123234e-17 30.0297 247.1066)" style="fill:#5412FF;" width="21" height="21"/>
					</g>
					<g>
						<path style="fill:#4100FF;" d="M150.4,98v21c0,0.7-0.6,1.3-1.3,1.3c-0.7,0-1.3-0.6-1.3-1.3V99.4h-19.7c-0.7,0-1.3-0.6-1.3-1.3
							c0-0.7,0.6-1.3,1.3-1.3h21C149.8,96.7,150.4,97.3,150.4,98z"/>
					</g>
					<g>
						<path style="fill:#7266FF;" d="M150.4,119.1c0,0.7-0.6,1.3-1.3,1.3h-21c-0.7,0-1.3-0.6-1.3-1.3V98c0-0.7,0.6-1.3,1.3-1.3
							c0.7,0,1.3,0.6,1.3,1.3v19.7h19.7C149.8,117.7,150.4,118.3,150.4,119.1z"/>
					</g>
				</g>
				<g>
					<g>
						
							<rect x="151.5" y="98.1" transform="matrix(6.123234e-17 -1 1 6.123234e-17 53.372 270.6978)" style="fill:#5412FF;" width="21" height="21"/>
					</g>
					<g>
						<path style="fill:#4100FF;" d="M173.9,98.1v21c0,0.7-0.6,1.3-1.3,1.3c-0.7,0-1.3-0.6-1.3-1.3V99.5h-19.7
							c-0.7,0-1.3-0.6-1.3-1.3c0-0.7,0.6-1.3,1.3-1.3h21C173.3,96.8,173.9,97.4,173.9,98.1z"/>
					</g>
					<g>
						<path style="fill:#7266FF;" d="M173.9,119.2c0,0.7-0.6,1.3-1.3,1.3h-21c-0.7,0-1.3-0.6-1.3-1.3v-21c0-0.7,0.6-1.3,1.3-1.3
							c0.7,0,1.3,0.6,1.3,1.3v19.7h19.7C173.3,117.8,173.9,118.4,173.9,119.2z"/>
					</g>
				</g>
			</g>
			<path d="M149.1,96.7c0.6,0,1.1,0.4,1.3,0.9c0.2-0.4,0.7-0.7,1.2-0.7h21c0.7,0,1.3,0.6,1.3,1.3v21c0,0.6-0.4,1.1-0.9,1.3
				c0.5,0.2,0.9,0.7,0.9,1.3v21c0,0.6-0.4,1.1-0.9,1.3c0.5,0.2,0.9,0.7,0.9,1.3v21c0,0.7-0.6,1.3-1.3,1.3h-21
				c-0.7,0-1.3-0.6-1.3-1.3v-21c0-0.6,0.4-1.1,0.9-1.3c-0.5-0.2-0.9-0.7-0.9-1.3v-21c0-0.6,0.4-1.1,0.9-1.3
				c-0.4-0.1-0.6-0.4-0.8-0.8c-0.2,0.4-0.7,0.7-1.2,0.7h-21c-0.7,0-1.3-0.6-1.3-1.3V98c0-0.7,0.6-1.3,1.3-1.3H149.1 M149.1,91.7h-21
				c-3.5,0-6.3,2.8-6.3,6.3v21c0,3.5,2.8,6.3,6.3,6.3h17.1v17.3c0,0.4,0,0.8,0.1,1.3c-0.1,0.4-0.1,0.8-0.1,1.3v21
				c0,3.5,2.8,6.3,6.3,6.3h21c3.5,0,6.3-2.8,6.3-6.3v-21c0-0.4,0-0.8-0.1-1.3c0.1-0.4,0.1-0.8,0.1-1.3v-21c0-0.4,0-0.8-0.1-1.3
				c0.1-0.4,0.1-0.8,0.1-1.3v-21c0-3.5-2.8-6.3-6.3-6.3h-21c-0.3,0-0.6,0-0.9,0.1C150.1,91.7,149.6,91.7,149.1,91.7L149.1,91.7z"/>
		</g>
	</g>
</g>
</svg>
