<?xml version="1.0" encoding="utf-8"?>
<!-- Generator: Adobe Illustrator 24.1.3, SVG Export Plug-In . SVG Version: 6.00 Build 0)  -->
<svg version="1.1" xmlns="http://www.w3.org/2000/svg" xmlns:xlink="http://www.w3.org/1999/xlink" x="0px" y="0px"
	 viewBox="0 0 960 540" style="enable-background:new 0 0 960 540;" xml:space="preserve">
<g id="레이어_1">
	<rect y="1" style="fill:#29327D;" width="962" height="539"/>
	<g>
		<path style="fill:#8CF0FF;" d="M962,378.5c-4.7-15-16-29.7-28.2-36.8c-12.6-7.4-29.2-10.5-43.8-8.6c0,0,3.5-50.9-45.6-45.6
			c0,0-14-45.6-50.9-56.2c0,0-56.2-17.6-82.5,26.3c-26.3,43.9-19.3,66.7-19.3,66.7c-1.7-5.4-26.7,0.2-30.5,0.9
			c-23.1,3.9-40.1,17.3-49.2,39c-7.9,18.9-6.7,42,14.9,50.5c35.6,14,71.5,13.1,108.9,12.2c60.1-1.4,120.2-3.2,180.3-3.2
			c17.6,0.1,38.9-2.7,45.9-18.8V378.5z"/>
		<path style="fill:#7C40FF;" d="M962,344.4c-0.3-0.2-0.6-0.4-1-0.6c-12.6-7.4-29.3-10.5-43.9-8.7c0,0,3.5-51.1-45.8-45.8
			c0,0-14.1-45.8-51.1-56.4c0,0-56.4-17.6-82.8,26.4c-26.4,44-19.4,66.9-19.4,66.9c-1.7-5.4-26.8,0.2-30.6,0.9
			c-23.2,3.9-40.2,17.4-49.3,39.1c-8,19-6.7,42.1,15,50.7c35.7,14.1,71.7,13.1,109.3,12.2c60.3-1.4,120.6-3.2,180.8-3.2
			c6,0.1,12.5-0.3,18.7-1.3V344.4z"/>
	</g>
	<path style="fill:#7C40FF;" d="M673,61.4c16.9,9.9,39.1,14.1,58.6,11.5c0,0-4.7,68.1,61.1,61.1c0,0,18.8,61.1,68.1,75.1
		c0,0,63.7,19.9,101.3-22.8V1H632.7C636,24.6,653.6,50.1,673,61.4z"/>
	<path style="fill:#7C40FF;" d="M398.4,172.9c-17.4-10.2-40.5-14.5-60.6-11.9c0,0,4.9-70.4-63.1-63.1c0,0-19.4-63.1-70.4-77.7
		c0,0-77.7-24.3-114.1,36.4c-36.4,60.7-26.7,92.3-26.7,92.3c-2.3-7.5-36.9,0.3-42.2,1.2c-7.6,1.3-14.6,3.3-21.2,6v127.7
		c40.7,14.7,81.9,25.5,124.5,24.5c83.1-1.9,166.3-4.4,249.4-4.4c29.1,0.2,65.5-23,66.7-58.7C441.5,218.4,421.1,186.2,398.4,172.9z"
		/>
	<path style="fill:#8CF0FF;" d="M630.7,477.6c-12.9-7-42.2-19.7-60.7-7.7c-1.7-33.8-12.4-48.5-35.4-60.6s-46.6-7.6-62.7,12.8
		c-0.6-22.2-6.2-44.7-18.8-62.9c-12.7-18.2-33.1-31.7-55.3-33s-45.3,11-54.1,31.4c0.7-34.8-21.9-68.9-54.2-81.9
		c-32.3-13-94.1-3.9-117.6,21.7c0.7-71.6-70.2-106.2-103.3-117.4c-22.3-7.5-47.2-5.8-68.7,3.7V540h675.8
		C675.3,512.8,653.6,490,630.7,477.6z"/>
	<polygon style="fill:#E9A6FF;" points="231.7,174 234.2,155 238,174 254.6,177.9 239.3,181.7 235.5,196.9 231.7,181.7 217.7,179.1 
			"/>
	<polygon style="fill:#E9A6FF;" points="136.9,433.8 139.4,414.8 143.2,433.8 159.8,437.7 144.5,441.5 140.7,456.7 136.9,441.5 
		122.9,438.9 	"/>
	<polygon style="fill:#E9A6FF;" points="819.7,74 822.3,54.9 826.1,74 842.6,77.8 827.4,81.6 823.5,96.9 819.7,81.6 805.7,79.1 	"/>
	<polygon style="fill:#E9A6FF;" points="763.6,333.8 766.1,314.7 769.9,333.8 786.4,337.6 771.2,341.4 767.4,356.7 763.6,341.4 
		749.6,338.9 	"/>
	<polygon style="fill:#FFFFFF;" points="185.5,392.7 190.2,357.6 197.2,392.7 227.6,399.8 199.6,406.8 192.5,434.9 185.5,406.8 
		159.8,402.1 	"/>
	<polygon style="fill:#FFFFFF;" points="70.2,67.8 72.8,48.7 76.6,67.8 93.2,71.7 77.9,75.5 74.1,90.8 70.2,75.5 56.2,72.9 	"/>
	<polygon style="fill:#FFFFFF;" points="721.9,26.6 723.2,16.7 725.2,26.6 733.8,28.6 725.9,30.6 723.9,38.5 721.9,30.6 714.6,29.3 
			"/>
	<polygon style="fill:#FFFFFF;" points="860.6,191.6 861.9,181.7 863.9,191.6 872.5,193.6 864.5,195.6 862.5,203.5 860.6,195.6 
		853.3,194.3 	"/>
	<polygon style="fill:#8CF0FF;" points="272.9,215.8 274.8,201.4 277.6,215.8 290.1,218.6 278.6,221.5 275.7,233 272.9,221.5 
		262.3,219.6 	"/>
	<polygon style="fill:#8CF0FF;" points="348.3,94.6 350.3,80.3 353.1,94.6 365.6,97.5 354.1,100.4 351.2,111.9 348.3,100.4 
		337.8,98.5 	"/>
	<polygon style="fill:#8CF0FF;" points="853.3,55.9 855.4,39.9 858.6,55.9 872.5,59.1 859.7,62.2 856.5,75 853.3,62.2 841.6,60.1 	
		"/>
	<polygon style="fill:#8CF0FF;" points="851.5,424.5 853.7,408.5 856.9,424.5 870.7,427.7 857.9,430.9 854.7,443.6 851.5,430.9 
		839.8,428.8 	"/>
	<polygon style="fill:#FFFFFF;" points="781.3,493 783.5,477 786.7,493 800.5,496.1 787.7,499.3 784.5,512.1 781.3,499.3 
		769.6,497.2 	"/>
	<polygon style="fill:#FFFFFF;" points="198.5,473.6 200.7,457.7 203.9,473.6 217.7,476.8 204.9,480 201.7,492.8 198.5,480 
		186.8,477.9 	"/>
	<path style="fill:#F1FF75;" d="M556.1,89.2c-12.2,4.5-25.7-1.8-30.1-13.9c-4.5-12.2,1.8-25.7,13.9-30.1c0.1-0.1,0.3-0.1,0.4-0.1
		c-3.2-0.1-6.6,0.4-9.8,1.5c-13.2,4.8-19.9,19.4-15.1,32.6c4.8,13.2,19.4,19.9,32.6,15.1c3.2-1.2,6.1-3,8.4-5.2
		C556.3,89.1,556.2,89.1,556.1,89.2z"/>
</g>
<g id="레이어_2">
</g>
<g id="레이어_3" style="display:none;">
</g>
</svg>
