<?xml version="1.0" encoding="utf-8"?>
<!-- Generator: Adobe Illustrator 24.1.1, SVG Export Plug-In . SVG Version: 6.00 Build 0)  -->
<svg version="1.1" id="Layer_1" xmlns="http://www.w3.org/2000/svg" xmlns:xlink="http://www.w3.org/1999/xlink" x="0px" y="0px"
	 viewBox="0 0 240 230" style="enable-background:new 0 0 240 230;" xml:space="preserve">
<g>
	<polygon style="fill:#ACA085;" points="220.6,208.3 219.63,213.64 15.65,213.64 14.68,208.3 	"/>
	<polygon style="fill:#C8BA9A;" points="220.4,206.3 14.85,206.3 42.18,119.52 191.21,119.52 	"/>
	<path d="M222.74,206.98l-0.01-0.02l-29.86-88.76c-0.13-0.41-0.52-0.68-0.95-0.68H41.44c-0.43,0-0.82,0.28-0.95,0.7L12.53,207
		c-0.01,0.03-0.02,0.06-0.02,0.09c-0.03,0.12-0.03,0.26-0.01,0.38l1.33,7.34c0.09,0.48,0.5,0.83,0.99,0.83h205.64
		c0.48,0,0.9-0.35,0.99-0.83l1.32-7.29c0.01-0.02,0.01-0.03,0.01-0.05C222.81,207.31,222.8,207.14,222.74,206.98z M42.18,119.52
		h149.03l29.19,86.78H14.85L42.18,119.52z M219.63,213.64H15.65l-0.97-5.34H220.6L219.63,213.64z"/>
</g>
<g>
	<g>
		<g>
			<path style="fill:#FFF2D4;" d="M193.39,71.99v119.69h-1.31l-3.46-4.82c-0.15-0.2-0.37-0.32-0.61-0.32h-47.17
				c-0.37,0-0.68,0.27-0.74,0.63l-1.66,9.99H38.87l-4.34-5L34.44,57.33H156.7l0.03,13.91c0.01,0.41,0.34,0.75,0.75,0.75H193.39z"/>
			<path d="M205.11,56.43c-0.01-0.03-0.01-0.07-0.02-0.11c-0.01-0.03-0.03-0.05-0.05-0.08c-0.02-0.04-0.03-0.08-0.06-0.12
				l-26.64-34.6c-0.14-0.19-0.36-0.3-0.6-0.3H49.98c-0.24,0-0.47,0.12-0.61,0.31l-25.2,34.6c-0.03,0.05-0.05,0.09-0.07,0.14
				c0,0.01-0.01,0.01-0.01,0.02c-0.03,0.09-0.05,0.17-0.06,0.26c0,0.01,0,0.01,0,0.02v0.02l0.02,135.84c0,0.42,0.33,0.75,0.75,0.75
				h8.63l4.53,5.22c0.15,0.16,0.35,0.26,0.57,0.26h100.55c0.37,0,0.68-0.27,0.74-0.63l1.66-9.99h46.14l3.47,4.83
				c0.14,0.2,0.37,0.31,0.61,0.31h10.5c0.4,0,0.74-0.33,0.75-0.74l2.19-135.85C205.14,56.54,205.12,56.49,205.11,56.43z
				 M50.36,22.72h127.01l25.5,33.11H33.77c-0.03-0.01-0.05-0.01-0.08-0.01l-7.44,0.01L50.36,22.72z M25.55,191.68l-0.01-40.94v-0.48
				l-0.01-92.93h7.41l0.08,134.35H25.55z M193.39,191.68h-1.31l-3.46-4.82c-0.15-0.2-0.37-0.32-0.61-0.32h-47.17
				c-0.37,0-0.68,0.27-0.74,0.63l-1.66,9.99H38.87l-4.34-5L34.44,57.33H156.7l0.03,13.91c0.01,0.41,0.34,0.75,0.75,0.75h35.91
				V191.68z M201.46,191.68h-6.57V71.24c0-0.41-0.33-0.75-0.75-0.75h-35.91l-0.02-13.15l45.42-0.01L201.46,191.68z"/>
			<polygon style="fill:#FFF2D4;" points="202.87,55.83 26.25,55.83 50.36,22.72 177.37,22.72 			"/>
			<g>
				<polygon style="fill:#525252;" points="188.08,49.37 40.65,49.37 56.36,27.62 172.26,27.62 				"/>
				<path d="M190.17,49.68l-16.92-23.25c-0.15-0.19-0.37-0.31-0.61-0.31H55.97c-0.24,0-0.46,0.12-0.6,0.31l-16.8,23.25
					c-0.16,0.23-0.18,0.53-0.06,0.78c0.13,0.25,0.39,0.41,0.67,0.41h150.38c0.28,0,0.54-0.16,0.67-0.41
					C190.35,50.21,190.33,49.9,190.17,49.68z M40.65,49.37l15.71-21.75h115.9l15.82,21.75H40.65z"/>
			</g>
			<path style="fill:#E0C49E;" d="M203.63,57.33l-2.17,134.35h-6.57V71.24c0-0.41-0.33-0.75-0.75-0.75h-35.91l-0.02-13.15
				L203.63,57.33z"/>
		</g>
		<polygon style="fill:#E0C49E;" points="33.02,191.68 25.55,191.68 25.54,150.74 25.53,57.33 32.94,57.33 		"/>
	</g>
	<g>
		<g>
			<rect x="143.7" y="89.48" style="fill:#525252;" width="44.44" height="97.06"/>
			<path d="M188.89,87.98h-45.94c-0.42,0-0.75,0.34-0.75,0.75v98.56c0,0.42,0.33,0.75,0.75,0.75h45.94c0.41,0,0.75-0.33,0.75-0.75
				V88.73C189.64,88.32,189.3,87.98,188.89,87.98z M188.14,186.54H143.7V89.48h44.44V186.54z"/>
		</g>
		<g>
			<rect x="143.7" y="92.39" style="fill:#FFF2D4;" width="39.85" height="89.46"/>
			<path style="fill:#C6BCA5;" d="M182.42,92.39v57.18l-21.66-38.95c-0.13-0.24-0.38-0.38-0.65-0.38H143.7V92.39H182.42z"/>
			<rect x="143.7" y="92.39" style="fill:#E2D7BC;" width="16.14" height="17.85"/>
			<path style="fill:#615C50;" d="M183.17,90.89h-22.58h-17.64c-0.42,0-0.75,0.34-0.75,0.75v19.35c0,0.41,0.33,0.75,0.75,0.75h16.72
				l22.85,41.08c0.13,0.25,0.39,0.39,0.65,0.39c0.07,0,0.13-0.01,0.19-0.02c0.33-0.09,0.56-0.39,0.56-0.73V91.64
				C183.92,91.23,183.59,90.89,183.17,90.89z M143.7,110.24V92.39h16.14v17.85H143.7z M182.42,149.57l-21.22-38.17
				c0.08-0.12,0.14-0.26,0.14-0.41v-18.6h21.08V149.57z"/>
		</g>
		<path d="M184.3,90.89h-41.35c-0.42,0-0.75,0.34-0.75,0.75v90.96c0,0.42,0.33,0.75,0.75,0.75h41.35c0.41,0,0.75-0.33,0.75-0.75
			V91.64C185.05,91.23,184.71,90.89,184.3,90.89z M183.55,181.85H143.7V92.39h39.85V181.85z"/>
	</g>
	<g>
		<polygon style="fill:#6B6B6B;" points="137.47,180.52 40.49,180.52 43.98,177.39 134.84,177.39 		"/>
		<g>
			<g>
				<path d="M139.82,181.23c0-0.07-0.02-0.13-0.04-0.19c-0.01-0.04-0.03-0.08-0.05-0.12c-0.02-0.04-0.05-0.09-0.08-0.12l-0.03-0.03
					c-0.01-0.01-0.01-0.02-0.02-0.02l-3.84-4.58c-0.04-0.05-0.09-0.07-0.14-0.11V83.72c0-0.41-0.33-0.75-0.75-0.75h-90.4
					c-0.41,0-0.75,0.34-0.75,0.75v92.17h-0.03c-0.18,0-0.36,0.06-0.5,0.19l-5.16,4.63c-0.01,0.01-0.01,0.01-0.01,0.02
					c-0.02,0.02-0.03,0.04-0.05,0.06c-0.04,0.05-0.07,0.09-0.1,0.15c-0.02,0.03-0.03,0.06-0.04,0.1c-0.02,0.06-0.03,0.12-0.04,0.18
					c0,0.02-0.01,0.04-0.01,0.06v16.64c0,0.41,0.34,0.75,0.75,0.75h100.55c0.41,0,0.75-0.34,0.75-0.75v-16.64
					C139.83,181.26,139.82,181.25,139.82,181.23z M45.22,84.47h88.9v91.42h-88.9V84.47z M43.98,177.39h0.49h90.37l2.63,3.13H40.49
					L43.98,177.39z M138.33,197.17H39.28v-15.14h99.05V197.17z"/>
				<rect x="39.28" y="182.02" style="fill:#575249;" width="99.05" height="15.14"/>
			</g>
			<g>
				<rect x="45.22" y="84.47" style="fill:#575249;" width="88.9" height="91.42"/>
				<g>
					<g>
						<rect x="50.37" y="92.39" style="fill:#525252;" width="78.61" height="77.11"/>
						<path d="M129.73,90.89H49.62c-0.42,0-0.75,0.34-0.75,0.75v78.61c0,0.41,0.33,0.75,0.75,0.75h80.11c0.41,0,0.75-0.34,0.75-0.75
							V91.64C130.48,91.23,130.14,90.89,129.73,90.89z M128.98,169.5H50.37V92.39h78.61V169.5z"/>
					</g>
					<g>
						<g>
							<rect x="54.67" y="94.17" style="fill:#E2D7BC;" width="70.01" height="71.47"/>
							<path d="M125.43,92.67H53.92c-0.42,0-0.75,0.34-0.75,0.75v72.97c0,0.42,0.33,0.75,0.75,0.75h71.51
								c0.41,0,0.75-0.33,0.75-0.75V93.42C126.18,93.01,125.84,92.67,125.43,92.67z M124.68,165.64H54.67V94.17h70.01V165.64z"/>
						</g>
						<rect x="55.76" y="152.44" style="fill:#736C5F;" width="67.83" height="11.95"/>
					</g>
				</g>
			</g>
		</g>
	</g>
</g>
<g>
	<path style="fill:#E7E7E7;" d="M174.76,107.02l-1.29,3l-1.92-1.78c-0.22-0.2-0.54-0.25-0.81-0.13s-0.45,0.39-0.45,0.69v16.07h-9.18
		l-0.72-16.34c-0.01-0.35-0.27-0.64-0.61-0.7c-0.34-0.07-0.68,0.11-0.82,0.43l-1.83,4.15l-2.42-1.52c0.49-8.08,4.87-11.89,6.6-13.08
		c1.27,2.73,2.49,3.95,3.79,3.82c2-0.21,2.79-3.65,2.93-4.34c0.02-0.11,0.01-0.22-0.01-0.32c0.34,0.11,0.83,0.31,1.5,0.62
		C173.22,99.32,174.54,105.78,174.76,107.02z"/>
	<path style="fill:#615C50;" d="M176.28,107c-0.05-0.35-1.31-8.53-6.12-10.77c-2.31-1.07-3.31-1.21-3.84-0.53
		c-0.41,0.53-0.12,1.19,0.16,1.62c-0.32,1.35-0.99,2.76-1.53,2.82c-0.1,0.01-1.04-0.01-2.62-3.72c-0.08-0.19-0.24-0.34-0.44-0.41
		c-0.2-0.07-0.41-0.06-0.6,0.04c-0.31,0.16-7.63,4.11-8.1,15.21c-0.01,0.26,0.13,0.52,0.35,0.66l3.53,2.22
		c0.18,0.12,0.41,0.15,0.62,0.08c0.21-0.06,0.38-0.21,0.46-0.41l0.88-2l0.61,13.84c0.02,0.4,0.35,0.72,0.75,0.72h10.65
		c0.41,0,0.75-0.34,0.75-0.75v-15.11l1.44,1.33c0.18,0.16,0.43,0.23,0.66,0.18c0.24-0.05,0.44-0.21,0.54-0.44l1.8-4.17
		C176.28,107.28,176.3,107.14,176.28,107z M171.55,108.24c-0.22-0.2-0.54-0.25-0.81-0.13s-0.45,0.39-0.45,0.69v16.07h-9.18
		l-0.72-16.34c-0.01-0.35-0.27-0.64-0.61-0.7c-0.34-0.07-0.68,0.11-0.82,0.43l-1.83,4.15l-2.42-1.52c0.49-8.08,4.87-11.89,6.6-13.08
		c1.27,2.73,2.49,3.95,3.79,3.82c2-0.21,2.79-3.65,2.93-4.34c0.02-0.11,0.01-0.22-0.01-0.32c0.34,0.11,0.83,0.31,1.5,0.62
		c3.7,1.73,5.02,8.19,5.24,9.43l-1.29,3L171.55,108.24z"/>
</g>
<g>
	<path style="fill:#E8C675;" d="M177.83,112.08l-1.29,3l-1.92-1.77c-0.22-0.2-0.54-0.26-0.81-0.14s-0.45,0.39-0.45,0.69v16.07h-9.18
		l-0.72-16.34c-0.01-0.34-0.27-0.64-0.61-0.7c-0.34-0.07-0.68,0.12-0.83,0.44l-1.82,4.14l-2.42-1.52
		c0.49-8.07,4.87-11.88,6.59-13.08c1.28,2.74,2.49,3.96,3.8,3.82c1.99-0.2,2.79-3.64,2.92-4.33c0.03-0.11,0.02-0.22,0-0.33
		c0.34,0.12,0.83,0.31,1.5,0.63C176.29,104.38,177.61,110.85,177.83,112.08z"/>
	<path style="fill:#615C50;" d="M179.35,112.07c-0.05-0.35-1.31-8.53-6.12-10.77c-2.31-1.08-3.31-1.22-3.84-0.54
		c-0.41,0.54-0.12,1.19,0.16,1.62c-0.32,1.35-1.01,2.77-1.53,2.82c-0.09,0.01-1.04,0-2.62-3.71c-0.08-0.2-0.24-0.35-0.44-0.42
		c-0.2-0.07-0.41-0.05-0.6,0.05c-0.31,0.16-7.63,4.11-8.1,15.2c-0.01,0.27,0.13,0.52,0.35,0.67l3.53,2.22
		c0.18,0.11,0.41,0.14,0.62,0.08c0.21-0.07,0.38-0.22,0.46-0.42l0.88-2l0.61,13.85c0.02,0.4,0.35,0.71,0.75,0.71h10.65
		c0.41,0,0.75-0.33,0.75-0.75v-15.11l1.44,1.33c0.18,0.17,0.43,0.24,0.66,0.19c0.24-0.05,0.44-0.22,0.54-0.44l1.8-4.18
		C179.35,112.35,179.37,112.2,179.35,112.07z M174.62,113.31c-0.22-0.2-0.54-0.26-0.81-0.14s-0.45,0.39-0.45,0.69v16.07h-9.18
		l-0.72-16.34c-0.01-0.34-0.27-0.64-0.61-0.7c-0.34-0.07-0.68,0.12-0.83,0.44l-1.82,4.14l-2.42-1.52
		c0.49-8.07,4.87-11.88,6.59-13.08c1.28,2.74,2.49,3.96,3.8,3.82c1.99-0.2,2.79-3.64,2.92-4.33c0.03-0.11,0.02-0.22,0-0.33
		c0.34,0.12,0.83,0.31,1.5,0.63c3.7,1.72,5.02,8.19,5.24,9.42l-1.29,3L174.62,113.31z"/>
</g>
<g>
	<path style="fill:#FFE190;" d="M180.48,116.29l-1.29,3l-1.92-1.77c-0.22-0.2-0.54-0.26-0.81-0.14s-0.45,0.39-0.45,0.69v16.07h-9.18
		l-0.72-16.34c-0.01-0.34-0.27-0.64-0.61-0.7c-0.34-0.07-0.68,0.12-0.83,0.44l-1.82,4.14l-2.42-1.52
		c0.49-8.07,4.87-11.88,6.59-13.08c1.28,2.74,2.49,3.96,3.8,3.82c1.99-0.2,2.79-3.64,2.92-4.33c0.03-0.11,0.02-0.22,0-0.33
		c0.34,0.12,0.83,0.31,1.5,0.63C178.94,108.59,180.26,115.06,180.48,116.29z"/>
	<path style="fill:#636363;" d="M182,116.28c-0.05-0.35-1.31-8.53-6.12-10.77c-2.31-1.08-3.31-1.22-3.84-0.54
		c-0.41,0.54-0.12,1.19,0.16,1.62c-0.32,1.35-1.01,2.77-1.53,2.82c-0.09,0.01-1.04,0-2.62-3.71c-0.08-0.2-0.24-0.35-0.44-0.42
		c-0.2-0.07-0.41-0.05-0.6,0.05c-0.31,0.16-7.63,4.11-8.1,15.2c-0.01,0.27,0.13,0.52,0.35,0.67l3.53,2.22
		c0.18,0.11,0.41,0.14,0.62,0.08c0.21-0.07,0.38-0.22,0.46-0.42l0.88-2l0.61,13.85c0.02,0.4,0.35,0.71,0.75,0.71h10.65
		c0.41,0,0.75-0.33,0.75-0.75v-15.11l1.44,1.33c0.18,0.17,0.43,0.24,0.66,0.19c0.24-0.05,0.44-0.22,0.54-0.44l1.8-4.18
		C182,116.56,182.02,116.41,182,116.28z M177.27,117.52c-0.22-0.2-0.54-0.26-0.81-0.14s-0.45,0.39-0.45,0.69v16.07h-9.18
		l-0.72-16.34c-0.01-0.34-0.27-0.64-0.61-0.7c-0.34-0.07-0.68,0.12-0.83,0.44l-1.82,4.14l-2.42-1.52
		c0.49-8.07,4.87-11.88,6.59-13.08c1.28,2.74,2.49,3.96,3.8,3.82c1.99-0.2,2.79-3.64,2.92-4.33c0.03-0.11,0.02-0.22,0-0.33
		c0.34,0.12,0.83,0.31,1.5,0.63c3.7,1.72,5.02,8.19,5.24,9.42l-1.29,3L177.27,117.52z"/>
</g>
<g>
	<polygon style="fill:#525252;" points="180.88,105.29 180,109.62 162.5,95.39 162.45,93.06 	"/>
	<path d="M182.13,104.32l-20.04-13.3c-0.23-0.15-0.53-0.17-0.77-0.03c-0.25,0.13-0.4,0.39-0.39,0.67l0.07,4.1
		c0.01,0.22,0.11,0.43,0.28,0.57l18.73,15.24c0.14,0.11,0.31,0.17,0.48,0.17c0.08,0,0.17-0.02,0.25-0.05
		c0.24-0.09,0.43-0.3,0.48-0.55l1.23-6.04C182.51,104.8,182.39,104.49,182.13,104.32z M162.5,95.39l-0.05-2.33l18.43,12.23
		l-0.88,4.33L162.5,95.39z"/>
</g>
<g>
	<g>
		<path style="fill:#FFE36A;" d="M81.43,156.79c0,1.07-2.87,2.27-6.98,2.27c-4.12,0-6.99-1.2-6.99-2.27c0-0.06,0.01-0.11,0.03-0.17
			c0.01-0.05,0.03-0.1,0.06-0.15c0.02-0.05,0.05-0.1,0.09-0.15c0.01-0.02,0.02-0.03,0.04-0.05c0.03-0.04,0.07-0.09,0.12-0.13
			c0.11-0.11,0.24-0.21,0.4-0.31c0.08-0.05,0.17-0.1,0.26-0.15c0.09-0.05,0.19-0.1,0.29-0.15c0.43-0.2,0.95-0.38,1.55-0.53
			c0.13-0.03,0.26-0.06,0.39-0.09c0.16-0.04,0.32-0.07,0.48-0.1c0.33-0.06,0.67-0.11,1.03-0.15v0.07c0,0.72,1.13,1.04,2.25,1.04
			c1.11,0,2.24-0.32,2.24-1.04v-0.07c0.36,0.04,0.71,0.09,1.03,0.15c0.16,0.03,0.32,0.06,0.48,0.1c0.15,0.03,0.3,0.07,0.44,0.1
			c0.59,0.15,1.09,0.32,1.5,0.52c0.1,0.05,0.2,0.1,0.29,0.15c0.1,0.05,0.18,0.1,0.26,0.15c0.25,0.16,0.45,0.33,0.57,0.5
			c0.03,0.03,0.05,0.06,0.06,0.1C81.39,156.55,81.43,156.67,81.43,156.79z"/>
		<path style="fill:#FFE36A;" d="M75.9,154.13c-0.17,0.12-0.67,0.29-1.45,0.29c-0.79,0-1.28-0.17-1.45-0.29
			c0.17-0.12,0.66-0.3,1.45-0.3C75.23,153.83,75.73,154.01,75.9,154.13z"/>
		<path d="M76.65,153.9c-0.11-0.29-0.42-0.5-0.83-0.65v-34.51c0-0.05-0.02-0.09-0.03-0.14c0.69-0.04,1.33-0.1,1.89-0.19
			c1.06-0.16,1.86-0.98,2-2.04c0.44-3.47,0.58-5.42,0.58-6.54c0-1.27-0.18-1.46-0.28-1.58c-0.34-0.38-0.8-2.83-1.04-4.99
			c-0.02-0.19-0.18-0.33-0.37-0.33H77.3l-0.14,0.01c-0.43-0.08-0.44-0.3-0.45-0.39c-0.05-0.74,0-1.94,0-1.95
			c0.01-0.08-0.01-0.16-0.06-0.22c-0.38-1.25-4.45-1.18-4.45,0.19v0.03c0,0.01,0.01,0.31,0.01,0.7v0.01
			c0.01,0.39,0.01,0.87-0.01,1.24c0,0.09-0.02,0.31-0.38,0.38h-1.27c-0.19,0-0.35,0.14-0.37,0.33c-0.24,2.16-0.7,4.61-1.04,4.99
			c-0.19,0.22-0.64,0.72,0.31,8.15c0.13,1.04,0.94,1.88,1.97,2.03c0.5,0.08,1.07,0.13,1.68,0.16c-0.01,0.05-0.03,0.1-0.03,0.15
			v34.51c-0.41,0.15-0.72,0.36-0.83,0.65c-2.96,0.33-5.53,1.32-5.53,2.89c0,1.96,3.98,3.02,7.74,3.02c3.75,0,7.73-1.06,7.73-3.02
			C82.18,155.21,79.61,154.23,76.65,153.9z M74.45,100.27c0.78,0,1.28,0.18,1.45,0.3c-0.01,0-0.01,0.01-0.02,0.01
			c-0.18,0.12-0.67,0.28-1.43,0.28c-0.77,0-1.25-0.16-1.43-0.28c-0.01,0-0.01-0.01-0.02-0.01
			C73.17,100.45,73.66,100.27,74.45,100.27z M71.54,117.69c-0.7-0.11-1.26-0.68-1.35-1.39c-0.65-5.06-0.66-7.24-0.49-7.55
			c0.6-0.67,1.04-3.86,1.18-5.07l1-0.01c0.64-0.11,1.03-0.5,1.07-1.06c0.01-0.19,0.02-0.41,0.02-0.63c0.41,0.16,0.94,0.23,1.48,0.23
			s1.09-0.08,1.5-0.24c0,0.23,0,0.44,0.01,0.64c0.04,0.56,0.43,0.95,1.14,1.07h1.14c0.14,1.2,0.57,4.36,1.17,5.06
			c0.18,0.35,0.16,2.52-0.48,7.53c-0.09,0.73-0.64,1.29-1.36,1.4c-0.83,0.13-1.8,0.2-2.9,0.21h-0.41
			C73.2,117.87,72.29,117.8,71.54,117.69z M75.07,118.74v34.77c0,0.07-0.05,0.12-0.12,0.12h-1.01c-0.07,0-0.12-0.05-0.12-0.12
			v-34.77c0-0.06,0.05-0.11,0.12-0.11h1.01C75.02,118.63,75.07,118.68,75.07,118.74z M73.23,154.01c0.15,0.22,0.41,0.37,0.71,0.37
			h1.01c0.3,0,0.56-0.15,0.71-0.37c0.11,0.04,0.19,0.08,0.24,0.12c-0.17,0.12-0.67,0.29-1.45,0.29c-0.79,0-1.28-0.17-1.45-0.29
			C73.05,154.09,73.13,154.05,73.23,154.01z M74.45,159.06c-4.12,0-6.99-1.2-6.99-2.27c0-0.06,0.01-0.11,0.03-0.17
			c0.01-0.05,0.03-0.1,0.06-0.15c0.02-0.05,0.05-0.1,0.09-0.15c0.01-0.02,0.02-0.03,0.04-0.05c0.03-0.04,0.07-0.09,0.12-0.13
			c0.11-0.11,0.24-0.21,0.4-0.31c0.08-0.06,0.17-0.11,0.26-0.15c0.09-0.06,0.19-0.11,0.29-0.15c0.43-0.2,0.95-0.38,1.55-0.53
			c0.13-0.04,0.26-0.07,0.39-0.09c0.16-0.04,0.32-0.07,0.48-0.1c0.32-0.06,0.67-0.11,1.03-0.15v0.07c0,0.72,1.13,1.04,2.25,1.04
			c1.11,0,2.24-0.32,2.24-1.04v-0.07c0.36,0.04,0.71,0.09,1.03,0.15c0.16,0.03,0.32,0.06,0.48,0.1c0.15,0.03,0.3,0.06,0.44,0.1
			c0.59,0.15,1.09,0.32,1.5,0.52c0.1,0.04,0.2,0.09,0.29,0.15c0.09,0.04,0.18,0.09,0.26,0.15c0.25,0.16,0.45,0.33,0.57,0.5
			c0.03,0.04,0.05,0.07,0.06,0.1c0.07,0.12,0.11,0.24,0.11,0.36C81.43,157.86,78.56,159.06,74.45,159.06z"/>
		<path d="M75.07,118.74v34.77c0,0.07-0.05,0.12-0.12,0.12h-1.01c-0.07,0-0.12-0.05-0.12-0.12v-34.77c0-0.06,0.05-0.11,0.12-0.11
			h1.01C75.02,118.63,75.07,118.68,75.07,118.74z"/>
		<path style="fill:#FFFFFF;" d="M78.93,116.27c-0.09,0.73-0.64,1.29-1.36,1.4c-0.88,0.14-1.92,0.21-3.11,0.21
			c-1.14,0-2.12-0.07-2.92-0.19c-0.7-0.11-1.26-0.68-1.35-1.39c-0.65-5.06-0.66-7.24-0.49-7.55c0.6-0.67,1.04-3.86,1.18-5.07l1-0.01
			c0.64-0.11,1.03-0.5,1.07-1.06c0.01-0.19,0.02-0.41,0.02-0.63c0.41,0.16,0.94,0.23,1.48,0.23s1.09-0.08,1.5-0.24
			c0,0.23,0,0.44,0.01,0.64c0.04,0.56,0.43,0.95,1.14,1.07h1.14c0.14,1.2,0.57,4.36,1.17,5.06
			C79.59,109.09,79.57,111.26,78.93,116.27z"/>
		<path d="M74.45,100.27c-0.79,0-1.28,0.18-1.45,0.3c0.17,0.12,0.66,0.29,1.45,0.29c0.78,0,1.28-0.17,1.45-0.29
			C75.73,100.45,75.23,100.27,74.45,100.27z"/>
		<path style="fill:#FFE36A;" d="M75.07,118.74v34.77c0,0.07-0.05,0.12-0.12,0.12h-1.01c-0.07,0-0.12-0.05-0.12-0.12v-34.77
			c0-0.06,0.05-0.11,0.12-0.11h1.01C75.02,118.63,75.07,118.68,75.07,118.74z"/>
		<path style="fill:#FFE36A;" d="M75.9,100.57c-0.17,0.12-0.67,0.29-1.45,0.29c-0.79,0-1.28-0.17-1.45-0.29
			c0.17-0.12,0.66-0.3,1.45-0.3C75.23,100.27,75.73,100.45,75.9,100.57z"/>
		<path d="M72.2,100.6v0.57c0,0.04,0,0.09,0.01,0.13C72.21,100.92,72.2,100.61,72.2,100.6z"/>
	</g>
	<g>
		<path d="M88.83,145.27c-0.03-0.08-2.92-8.13-4.51-15.56c-1.61-7.5-3.47-11.13-3.55-11.29c-0.01-0.01-0.01-0.01-0.02-0.02
			l-1.05-2.59c-0.06-0.17-0.23-0.26-0.4-0.23l-1.32,0.2c-2.27,0.36-4.57,0.37-6.83,0.02l-1.43-0.22c-0.19-0.03-0.37,0.09-0.42,0.27
			l-0.63,2.39c-0.09,0.03-0.17,0.09-0.22,0.18c-0.08,0.16-1.94,3.79-3.55,11.29c-1.59,7.43-4.48,15.48-4.51,15.56
			c-0.05,0.15-0.01,0.31,0.11,0.41c0.1,0.1,2.74,2.35,14.11,2.35c11.37,0,14.01-2.25,14.11-2.35
			C88.84,145.58,88.88,145.42,88.83,145.27z M74.61,147.28c-9.35,0-12.63-1.55-13.41-2.02c0.52-1.48,3-8.69,4.44-15.39
			c1.37-6.41,2.96-10.02,3.37-10.89l2.69,0.36c0.99,0.13,1.99,0.19,3,0.19c1,0,2-0.06,2.99-0.19l2.53-0.34
			c0.42,0.9,2,4.5,3.37,10.87c1.43,6.7,3.92,13.91,4.43,15.39C87.24,145.73,83.95,147.28,74.61,147.28z M71.03,116.54
			c2.35,0.36,4.72,0.36,7.07-0.01l1.02-0.17l0.78,1.93l-2.3,0.3c-1.93,0.26-3.88,0.26-5.81,0l-2.35-0.31l0.5-1.91L71.03,116.54z"/>
		<path style="fill:#FFAB92;" d="M71.79,118.59l-2.35-0.31l0.5-1.91l1.09,0.17c2.35,0.36,4.72,0.36,7.07-0.01l1.02-0.17l0.78,1.93
			l-2.3,0.3C75.67,118.85,73.72,118.85,71.79,118.59z"/>
		<path style="fill:#FFAB92;" d="M88.02,145.26c-0.78,0.47-4.07,2.02-13.41,2.02c-9.35,0-12.63-1.55-13.41-2.02
			c0.52-1.48,3-8.69,4.44-15.39c1.37-6.41,2.96-10.02,3.37-10.89l2.69,0.36c0.99,0.13,1.99,0.19,3,0.19c1,0,2-0.06,2.99-0.19
			l2.53-0.34c0.42,0.9,2,4.5,3.37,10.87C85.02,136.57,87.51,143.78,88.02,145.26z"/>
		<g>
			<path d="M69.24,144.52c-0.02,0-0.03,0-0.05,0c-0.21-0.03-0.35-0.22-0.32-0.42c0.01-0.07,0.96-6.96,0.85-10.69
				c-0.12-3.82,1.59-9.61,1.67-9.85c0.06-0.2,0.27-0.31,0.47-0.25c0.2,0.06,0.31,0.27,0.25,0.47c-0.02,0.06-1.75,5.92-1.64,9.62
				c0.12,3.79-0.81,10.53-0.85,10.82C69.59,144.38,69.43,144.52,69.24,144.52z"/>
		</g>
		<g>
			<path d="M80.42,145.17c-0.18,0-0.35-0.14-0.37-0.32c-0.01-0.08-1.15-8.31-1.35-11.99c-0.2-3.64-1.42-9.06-1.43-9.11
				c-0.05-0.2,0.08-0.4,0.28-0.45s0.4,0.08,0.45,0.28c0.01,0.05,1.24,5.54,1.45,9.24c0.2,3.65,1.33,11.85,1.34,11.93
				c0.03,0.21-0.12,0.39-0.32,0.42C80.46,145.17,80.44,145.17,80.42,145.17z"/>
		</g>
	</g>
	<g>
		<path d="M77.9,102.31c-0.41-0.02-0.85-0.01-1.33,0.01c-0.07,0-0.14,0.02-0.2,0.06l-1.45,1.02c-0.01,0.16-0.02,0.31-0.02,0.42
			l0.36,0.26l1.46-1.02c0.39-0.02,0.76-0.02,1.1,0c0.2-0.15,0.32-0.3,0.36-0.46C78.17,102.54,78.05,102.43,77.9,102.31z
			 M74.27,116.75v-11.78c-0.04-0.01-0.07-0.02-0.1-0.03c-0.14-0.03-0.37-0.07-0.65-0.14v12.32c0,0.21,0.17,0.38,0.38,0.38h1.42
			c0.21,0,0.38-0.17,0.38-0.38v-0.37H74.27z M74.08,104.17v-0.17l-0.19,0.13c0.06,0.01,0.12,0.03,0.18,0.04H74.08z"/>
		<path d="M74.76,104.64c-0.05,0.17-0.14,0.27-0.28,0.32c0.04,0.01,0.08,0.02,0.12,0.02c0.07,0,0.14-0.02,0.2-0.04
			c0.04-0.01,0.09-0.02,0.15-0.03v-0.14L74.76,104.64z"/>
		<path d="M74.05,103.38c0-0.06-0.02-0.13-0.04-0.18c0.01-0.01,0.01-0.01,0-0.01l-1.16-0.81c-0.06-0.04-0.13-0.06-0.2-0.06
			c-0.57-0.03-1.09-0.03-1.57,0h-0.01c-0.16,0.12-0.26,0.23-0.28,0.3c0.03,0.15,0.16,0.31,0.36,0.45c0.41-0.03,0.86-0.03,1.35-0.01
			l1.57,1.1h0.01C74.08,104.01,74.08,103.76,74.05,103.38z"/>
		<path style="fill:#FFAB92;" d="M67.55,109.18c-0.07,0.45-0.06,1.05,0,1.71l-2.56,14.18l-1.68-0.28c0.1-1.72,0.56-9.24,0.56-12.76
			c0-0.53-0.01-0.97-0.03-1.28c-0.06-0.78,0.35-1.79,0.73-2.77c0.35-0.87,0.67-1.68,0.67-2.34c0-0.19,0.05-0.33,0.18-0.44
			c0.25-0.23,0.74-0.27,1.06-0.26C66.79,105.51,67.8,107.51,67.55,109.18z"/>
		<path style="fill:#FFAB92;" d="M70.79,102.62c0.02-0.07,0.12-0.18,0.28-0.3h0.01c0.16-0.13,0.36-0.26,0.57-0.36
			c0.41,0.05,2.08,0.3,2.36,1.23c0.01,0,0.01,0,0,0.01c0.02,0.05,0.04,0.12,0.04,0.18c0.02,0.26,0.03,0.46,0.03,0.61v0.17h-0.01
			c-0.06-0.01-0.12-0.03-0.18-0.04c-0.99-0.23-2.15-0.61-2.74-1.05C70.95,102.93,70.82,102.77,70.79,102.62z"/>
		<path style="fill:#FFAB92;" d="M74.76,104.64l0.19,0.13v11.98h-5.52c-0.23-0.9-0.93-3.76-1.12-5.85c-0.07-0.63-0.08-1.2-0.02-1.61
			c0.28-1.89-0.77-4.02-1.14-4.69c0.01-0.01,0.02-0.02,0.03-0.03c0.29-0.35,1.13-1.12,3.06-1.4c0.57,0.89,2.26,1.4,3.28,1.63
			c0.28,0.07,0.51,0.11,0.65,0.14c0.03,0.01,0.06,0.02,0.1,0.03c0.03,0,0.06,0.01,0.09,0.01c0.05,0,0.09-0.01,0.12-0.02
			C74.62,104.92,74.71,104.81,74.76,104.64z"/>
		<path style="fill:#FFAB92;" d="M77.82,103.06c-0.54,0.42-1.61,0.79-2.56,1.02l-0.36-0.26c0-0.11,0.01-0.26,0.02-0.42
			c0-0.01,0-0.01,0-0.02c0.09-1.08,1.95-1.37,2.4-1.42c0.21,0.11,0.42,0.23,0.58,0.35c0.15,0.12,0.27,0.23,0.28,0.29
			C78.14,102.76,78.02,102.92,77.82,103.06z"/>
		<path style="fill:#FFAB92;" d="M80.72,110.85l0.12,0.67c-0.25,2-0.84,4.42-1.05,5.23H75.7v-12.01c1.04-0.25,2.55-0.76,3.06-1.6
			c1.87,0.24,2.79,0.91,3.18,1.31c-0.25,0.42-1.54,2.78-1.23,4.84C80.75,109.6,80.76,110.1,80.72,110.85z"/>
		<path style="fill:#FFAB92;" d="M85.74,124.79l-1.69,0.28l-2.45-13.53l-0.13-0.74c0.04-0.72,0.03-1.25-0.02-1.62
			c-0.25-1.67,0.76-3.66,1.07-4.24h0.22c0.3,0.01,0.68,0.07,0.89,0.26c0.12,0.11,0.18,0.25,0.18,0.44c0,0.66,0.32,1.47,0.66,2.34
			c0.36,0.91,0.74,1.85,0.74,2.61c0,0.05-0.01,0.11-0.01,0.16C85.02,113.17,85.61,122.81,85.74,124.79z"/>
		<path d="M85.92,112.01c0-0.5,0.01-0.91,0.03-1.2c0.07-0.96-0.36-2.05-0.78-3.11c-0.32-0.79-0.61-1.55-0.61-2.06
			c0-0.41-0.15-0.75-0.43-1c-0.42-0.36-1.02-0.45-1.43-0.45c-0.34-0.46-1.37-1.48-3.8-1.79c-0.17-0.56-0.97-0.99-1.35-1.17
			c-0.06-0.02-0.13-0.04-0.19-0.03c-0.1,0.01-2.1,0.17-2.87,1.27c-0.78-1.1-2.78-1.26-2.88-1.27c-0.06-0.01-0.13,0.01-0.19,0.03
			c-0.39,0.18-1.22,0.63-1.36,1.21c-2.23,0.34-3.2,1.3-3.54,1.74c-0.4-0.01-1.13,0.04-1.6,0.46c-0.28,0.24-0.43,0.59-0.43,1
			c0,0.51-0.3,1.27-0.61,2.06c-0.39,0.98-0.8,1.99-0.8,2.9c0,0.07,0.01,0.14,0.01,0.21c0.2,2.57-0.55,14.15-0.55,14.27
			c-0.02,0.19,0.12,0.36,0.31,0.39l2.38,0.4h0.07c0.17,0,0.33-0.12,0.36-0.3l2.22-12.34c0.37,1.99,0.86,3.85,0.89,3.99
			c0.05,0.17,0.2,0.28,0.37,0.28h10.95c0.17,0,0.31-0.11,0.36-0.28c0.03-0.13,0.44-1.69,0.79-3.48l2.14,11.83
			c0.03,0.18,0.19,0.3,0.37,0.3h0.06l2.38-0.4c0.19-0.03,0.33-0.2,0.32-0.39C86.5,124.97,85.92,115.86,85.92,112.01z M71.07,102.32
			h0.01c0.16-0.13,0.36-0.26,0.57-0.36c0.41,0.05,2.08,0.3,2.36,1.23c0.01,0,0.01,0,0,0.01c0.02,0.05,0.04,0.12,0.04,0.18
			c0.02,0.26,0.03,0.46,0.03,0.61v0.17h-0.01c-0.06-0.01-0.12-0.03-0.18-0.04c-0.99-0.23-2.15-0.61-2.74-1.05
			c-0.2-0.14-0.33-0.3-0.36-0.45C70.81,102.55,70.91,102.44,71.07,102.32z M64.99,125.07l-1.68-0.28c0.1-1.72,0.56-9.24,0.56-12.76
			c0-0.53-0.01-0.97-0.03-1.28c-0.06-0.78,0.35-1.79,0.73-2.77c0.35-0.87,0.67-1.68,0.67-2.34c0-0.19,0.05-0.33,0.18-0.44
			c0.25-0.23,0.74-0.27,1.06-0.26c0.31,0.57,1.32,2.57,1.07,4.24c-0.07,0.45-0.06,1.05,0,1.71L64.99,125.07z M74.95,116.75h-5.52
			c-0.23-0.9-0.93-3.76-1.12-5.85c-0.07-0.63-0.08-1.2-0.02-1.61c0.28-1.89-0.77-4.02-1.14-4.69c0.01-0.01,0.02-0.02,0.03-0.03
			c0.29-0.35,1.13-1.12,3.06-1.4c0.57,0.89,2.26,1.4,3.28,1.63c0.28,0.07,0.51,0.11,0.65,0.14c0.03,0.01,0.06,0.02,0.1,0.03
			c0.03,0,0.06,0.01,0.09,0.01c0.05,0,0.09-0.01,0.12-0.02c0.14-0.05,0.23-0.15,0.28-0.32l0.19,0.13V116.75z M74.9,103.82
			c0-0.11,0.01-0.26,0.02-0.42c0-0.01,0-0.01,0-0.02c0.09-1.08,1.95-1.37,2.4-1.42c0.21,0.11,0.42,0.23,0.58,0.35
			c0.15,0.12,0.27,0.23,0.28,0.29c-0.04,0.16-0.16,0.31-0.36,0.46c-0.54,0.42-1.61,0.79-2.56,1.02L74.9,103.82z M80.71,109.29
			c0.04,0.31,0.05,0.81,0.01,1.56l0.12,0.67c-0.25,2-0.84,4.42-1.05,5.23H75.7v-12.01c1.04-0.25,2.55-0.76,3.06-1.6
			c1.87,0.24,2.79,0.91,3.18,1.31C81.69,104.87,80.4,107.23,80.71,109.29z M84.05,125.07l-2.45-13.53l-0.13-0.74
			c0.04-0.72,0.03-1.25-0.02-1.62c-0.25-1.67,0.76-3.66,1.07-4.24h0.22c0.3,0.01,0.68,0.07,0.89,0.26c0.12,0.11,0.18,0.25,0.18,0.44
			c0,0.66,0.32,1.47,0.66,2.34c0.36,0.91,0.74,1.85,0.74,2.61c0,0.05-0.01,0.11-0.01,0.16c-0.18,2.41,0.41,12.06,0.54,14.04
			L84.05,125.07z"/>
		<g>
			<path style="fill:#FFFFFF;" d="M74.16,106.57c0,0.22-0.41,0.22-0.41,0c0-0.12,0.09-0.21,0.21-0.21
				C74.07,106.36,74.16,106.45,74.16,106.57z"/>
			<path d="M73.96,105.61c-0.53,0-0.96,0.43-0.96,0.96c0,0.52,0.43,0.95,0.96,0.95c0.52,0,0.95-0.43,0.95-0.95
				C74.91,106.04,74.48,105.61,73.96,105.61z M73.75,106.57c0-0.12,0.09-0.21,0.21-0.21c0.11,0,0.2,0.09,0.2,0.21
				C74.16,106.79,73.75,106.79,73.75,106.57z"/>
		</g>
		<g>
			<path style="fill:#FFFFFF;" d="M74.16,113.99c0,0.23-0.41,0.23-0.41,0c0-0.11,0.09-0.2,0.21-0.2
				C74.07,113.79,74.16,113.88,74.16,113.99z"/>
			<path d="M73.96,113.04c-0.53,0-0.96,0.43-0.96,0.95c0,0.53,0.43,0.96,0.96,0.96c0.52,0,0.95-0.43,0.95-0.96
				C74.91,113.47,74.48,113.04,73.96,113.04z M73.75,113.99c0-0.11,0.09-0.2,0.21-0.2c0.11,0,0.2,0.09,0.2,0.2
				C74.16,114.22,73.75,114.22,73.75,113.99z"/>
		</g>
		<g>
			<path style="fill:#FFFFFF;" d="M74.1,110.28c0,0.22-0.41,0.22-0.41,0c0-0.11,0.1-0.21,0.21-0.21
				C74.01,110.07,74.1,110.17,74.1,110.28z"/>
			<path d="M73.9,109.32c-0.53,0-0.96,0.43-0.96,0.96c0,0.52,0.43,0.95,0.96,0.95c0.52,0,0.95-0.43,0.95-0.95
				C74.85,109.75,74.42,109.32,73.9,109.32z M73.69,110.28c0-0.11,0.1-0.21,0.21-0.21c0.11,0,0.2,0.1,0.2,0.21
				C74.1,110.5,73.69,110.5,73.69,110.28z"/>
		</g>
	</g>
</g>
<g>
	<g>
		<path style="fill:#FFE36A;" d="M113.29,156.79c0,1.07-2.87,2.27-6.98,2.27c-4.12,0-6.99-1.2-6.99-2.27c0-0.06,0.01-0.11,0.03-0.17
			c0.01-0.05,0.03-0.1,0.06-0.15c0.02-0.05,0.05-0.1,0.09-0.15c0.01-0.02,0.02-0.03,0.04-0.05c0.03-0.04,0.07-0.09,0.12-0.13
			c0.11-0.11,0.24-0.21,0.4-0.31c0.08-0.05,0.17-0.1,0.26-0.15c0.09-0.05,0.19-0.1,0.29-0.15c0.43-0.2,0.95-0.38,1.55-0.53
			c0.13-0.03,0.26-0.06,0.39-0.09c0.16-0.04,0.32-0.07,0.48-0.1c0.33-0.06,0.67-0.11,1.03-0.15v0.07c0,0.72,1.13,1.04,2.25,1.04
			c1.11,0,2.24-0.32,2.24-1.04v-0.07c0.36,0.04,0.71,0.09,1.03,0.15c0.16,0.03,0.32,0.06,0.48,0.1c0.15,0.03,0.3,0.07,0.44,0.1
			c0.59,0.15,1.09,0.32,1.5,0.52c0.1,0.05,0.2,0.1,0.29,0.15c0.1,0.05,0.18,0.1,0.26,0.15c0.25,0.16,0.45,0.33,0.57,0.5
			c0.03,0.03,0.05,0.06,0.06,0.1C113.25,156.55,113.29,156.67,113.29,156.79z"/>
		<path style="fill:#FFE36A;" d="M107.76,154.13c-0.17,0.12-0.67,0.29-1.45,0.29c-0.79,0-1.28-0.17-1.45-0.29
			c0.17-0.12,0.66-0.3,1.45-0.3C107.09,153.83,107.59,154.01,107.76,154.13z"/>
		<path d="M108.51,153.9c-0.11-0.29-0.42-0.5-0.83-0.65v-34.51c0-0.05-0.02-0.09-0.03-0.14c0.69-0.04,1.33-0.1,1.89-0.19
			c1.06-0.16,1.86-0.98,2-2.04c0.44-3.47,0.58-5.42,0.58-6.54c0-1.27-0.18-1.46-0.28-1.58c-0.34-0.38-0.8-2.83-1.04-4.99
			c-0.02-0.19-0.18-0.33-0.37-0.33h-1.27l-0.14,0.01c-0.43-0.08-0.44-0.3-0.45-0.39c-0.05-0.74,0-1.94,0-1.95
			c0.01-0.08-0.01-0.16-0.06-0.22c-0.38-1.25-4.45-1.18-4.45,0.19v0.03c0,0.01,0.01,0.31,0.01,0.7v0.01
			c0.01,0.39,0.01,0.87-0.01,1.24c0,0.09-0.02,0.31-0.38,0.38h-1.27c-0.19,0-0.35,0.14-0.37,0.33c-0.24,2.16-0.7,4.61-1.04,4.99
			c-0.19,0.22-0.64,0.72,0.31,8.15c0.13,1.04,0.94,1.88,1.97,2.03c0.5,0.08,1.07,0.13,1.68,0.16c-0.01,0.05-0.03,0.1-0.03,0.15
			v34.51c-0.41,0.15-0.72,0.36-0.83,0.65c-2.96,0.33-5.53,1.32-5.53,2.89c0,1.96,3.98,3.02,7.74,3.02c3.75,0,7.73-1.06,7.73-3.02
			C114.04,155.21,111.47,154.23,108.51,153.9z M106.31,100.27c0.78,0,1.28,0.18,1.45,0.3c-0.01,0-0.01,0.01-0.02,0.01
			c-0.18,0.12-0.67,0.28-1.43,0.28c-0.77,0-1.25-0.16-1.43-0.28c-0.01,0-0.01-0.01-0.02-0.01
			C105.03,100.45,105.52,100.27,106.31,100.27z M103.4,117.69c-0.7-0.11-1.26-0.68-1.35-1.39c-0.65-5.06-0.66-7.24-0.49-7.55
			c0.6-0.67,1.04-3.86,1.18-5.07l1-0.01c0.64-0.11,1.03-0.5,1.07-1.06c0.01-0.19,0.02-0.41,0.02-0.63c0.41,0.16,0.94,0.23,1.48,0.23
			s1.09-0.08,1.5-0.24c0,0.23,0,0.44,0.01,0.64c0.04,0.56,0.43,0.95,1.14,1.07h1.14c0.14,1.2,0.57,4.36,1.17,5.06
			c0.18,0.35,0.16,2.52-0.48,7.53c-0.09,0.73-0.64,1.29-1.36,1.4c-0.83,0.13-1.8,0.2-2.9,0.21h-0.41
			C105.06,117.87,104.15,117.8,103.4,117.69z M106.93,118.74v34.77c0,0.07-0.05,0.12-0.12,0.12h-1.01c-0.07,0-0.12-0.05-0.12-0.12
			v-34.77c0-0.06,0.05-0.11,0.12-0.11h1.01C106.88,118.63,106.93,118.68,106.93,118.74z M105.09,154.01
			c0.15,0.22,0.41,0.37,0.71,0.37h1.01c0.3,0,0.56-0.15,0.71-0.37c0.11,0.04,0.19,0.08,0.24,0.12c-0.17,0.12-0.67,0.29-1.45,0.29
			c-0.79,0-1.28-0.17-1.45-0.29C104.91,154.09,104.99,154.05,105.09,154.01z M106.31,159.06c-4.12,0-6.99-1.2-6.99-2.27
			c0-0.06,0.01-0.11,0.03-0.17c0.01-0.05,0.03-0.1,0.06-0.15c0.02-0.05,0.05-0.1,0.09-0.15c0.01-0.02,0.02-0.03,0.04-0.05
			c0.03-0.04,0.07-0.09,0.12-0.13c0.11-0.11,0.24-0.21,0.4-0.31c0.08-0.06,0.17-0.11,0.26-0.15c0.09-0.06,0.19-0.11,0.29-0.15
			c0.43-0.2,0.95-0.38,1.55-0.53c0.13-0.04,0.26-0.07,0.39-0.09c0.16-0.04,0.32-0.07,0.48-0.1c0.32-0.06,0.67-0.11,1.03-0.15v0.07
			c0,0.72,1.13,1.04,2.25,1.04c1.11,0,2.24-0.32,2.24-1.04v-0.07c0.36,0.04,0.71,0.09,1.03,0.15c0.16,0.03,0.32,0.06,0.48,0.1
			c0.15,0.03,0.3,0.06,0.44,0.1c0.59,0.15,1.09,0.32,1.5,0.52c0.1,0.04,0.2,0.09,0.29,0.15c0.09,0.04,0.18,0.09,0.26,0.15
			c0.25,0.16,0.45,0.33,0.57,0.5c0.03,0.04,0.05,0.07,0.06,0.1c0.07,0.12,0.11,0.24,0.11,0.36
			C113.29,157.86,110.42,159.06,106.31,159.06z"/>
		<path d="M106.93,118.74v34.77c0,0.07-0.05,0.12-0.12,0.12h-1.01c-0.07,0-0.12-0.05-0.12-0.12v-34.77c0-0.06,0.05-0.11,0.12-0.11
			h1.01C106.88,118.63,106.93,118.68,106.93,118.74z"/>
		<path style="fill:#FFFFFF;" d="M110.79,116.27c-0.09,0.73-0.64,1.29-1.36,1.4c-0.88,0.14-1.92,0.21-3.11,0.21
			c-1.14,0-2.12-0.07-2.92-0.19c-0.7-0.11-1.26-0.68-1.35-1.39c-0.65-5.06-0.66-7.24-0.49-7.55c0.6-0.67,1.04-3.86,1.18-5.07l1-0.01
			c0.64-0.11,1.03-0.5,1.07-1.06c0.01-0.19,0.02-0.41,0.02-0.63c0.41,0.16,0.94,0.23,1.48,0.23s1.09-0.08,1.5-0.24
			c0,0.23,0,0.44,0.01,0.64c0.04,0.56,0.43,0.95,1.14,1.07h1.14c0.14,1.2,0.57,4.36,1.17,5.06
			C111.45,109.09,111.43,111.26,110.79,116.27z"/>
		<path d="M106.31,100.27c-0.79,0-1.28,0.18-1.45,0.3c0.17,0.12,0.66,0.29,1.45,0.29c0.78,0,1.28-0.17,1.45-0.29
			C107.59,100.45,107.09,100.27,106.31,100.27z"/>
		<path style="fill:#FFE36A;" d="M106.93,118.74v34.77c0,0.07-0.05,0.12-0.12,0.12h-1.01c-0.07,0-0.12-0.05-0.12-0.12v-34.77
			c0-0.06,0.05-0.11,0.12-0.11h1.01C106.88,118.63,106.93,118.68,106.93,118.74z"/>
		<path style="fill:#FFE36A;" d="M107.76,100.57c-0.17,0.12-0.67,0.29-1.45,0.29c-0.79,0-1.28-0.17-1.45-0.29
			c0.17-0.12,0.66-0.3,1.45-0.3C107.09,100.27,107.59,100.45,107.76,100.57z"/>
		<path d="M104.06,100.6v0.57c0,0.04,0,0.09,0.01,0.13C104.07,100.92,104.06,100.61,104.06,100.6z"/>
	</g>
	<path style="fill:#818181;" d="M115.32,148.65c0,0.24-0.07,0.92-0.45,1.07c-1.9,0.74-5.96,1.2-6.66-0.32
		c-0.58-1.27-0.87-15.05-0.92-23.99c-0.01-0.21-0.17-0.37-0.38-0.37c-0.21,0-0.37,0.16-0.37,0.37c-0.06,8.94-0.35,22.72-0.93,23.99
		c-0.7,1.52-4.76,1.07-6.66,0.32c-0.38-0.16-0.45-0.85-0.45-1.05c0.02-0.14,1.46-13.4,1.29-20.51c-0.15-5.95,1.33-8.92,1.76-9.65
		l2.45,0.33c1.93,0.27,3.89,0.27,5.82,0l2.45-0.33c0.44,0.73,1.91,3.67,1.77,9.65C113.87,135.15,115.26,148.1,115.32,148.65z"/>
	<path style="fill:#818181;" d="M100.3,116.92v-5.56c0-0.05-0.01-0.09-0.02-0.13c-1.27-3.47-2.36-7.53-2-8.02
		c0.77-0.35,3.35-0.26,4.61-0.18l1.17,14.1L100.3,116.92z"/>
	<path style="fill:#818181;" d="M99.55,111.42v0.22c-1.76,4.09-2.92,11.56-3.2,13.48c-1.63-0.57-2.28-1.19-2.51-1.47
		c1.1-1.83,2.73-10.12,4.04-17.65C98.42,108.26,99.39,110.96,99.55,111.42z"/>
	<path style="fill:#818181;" d="M111.94,117.8l-2.22,0.3c-1.87,0.25-3.75,0.25-5.62,0l-2.27-0.31l0.01-0.03l2.6,0.14
		c0.01,0,0.02,0,0.02,0c0.11,0,0.2-0.04,0.27-0.11c0.08-0.08,0.12-0.19,0.11-0.29l-0.11-1.28c0.18,0.02,0.35,0.03,0.53,0.04
		c0.21,0.02,0.42,0.03,0.63,0.04c0.63,0.03,1.26,0.03,1.89-0.01c0.26-0.01,0.51-0.02,0.77-0.05l-0.1,1.26
		c-0.01,0.1,0.03,0.21,0.11,0.29c0.07,0.07,0.17,0.11,0.27,0.11c0,0,0.01,0,0.02,0l3.06-0.17L111.94,117.8z"/>
	<path style="fill:#818181;" d="M118.76,123.65c-0.24,0.28-0.89,0.9-2.51,1.47c-0.06-0.42-0.16-1.1-0.31-1.96
		c-0.02-0.13-0.04-0.25-0.06-0.38c-0.43-2.53-1.17-6.3-2.14-9.27v-2.09c0.45-1.24,0.9-2.57,1.26-3.81c0.55,3.09,1.14,6.22,1.72,8.91
		c0.12,0.56,0.24,1.1,0.36,1.62c0.14,0.6,0.27,1.17,0.41,1.7c0.08,0.31,0.15,0.61,0.23,0.89c0.18,0.67,0.36,1.25,0.53,1.73
		c0.03,0.11,0.07,0.21,0.11,0.3C118.5,123.14,118.63,123.44,118.76,123.65z"/>
	<path style="fill:#818181;" d="M114.98,103.19c-0.74-0.33-3.31-0.24-4.58-0.16l-1.16,14.1l3.75-0.21v-5.56
		c0-0.05,0.01-0.09,0.02-0.13C114.28,107.76,115.37,103.7,114.98,103.19z"/>
	<path d="M119.54,123.48c-0.04-0.07-0.11-0.13-0.18-0.17c-0.7-0.75-2.47-9.25-3.9-17.45c0.39-1.73,0.46-3.06-0.14-3.33
		c-1.17-0.53-4.88-0.26-5.3-0.23c-0.18,0.02-0.32,0.16-0.34,0.34l-1.06,12.84c-1.31,0.13-2.63,0.12-3.95-0.02l-1.06-12.82
		c-0.01-0.18-0.16-0.32-0.34-0.34c-0.42-0.03-4.13-0.3-5.3,0.23c-0.38,0.17-0.49,0.76-0.42,1.61c-0.08,0.06-0.14,0.13-0.15,0.23
		c-1.47,8.62-3.42,18.14-4.16,18.94c-0.08,0.04-0.14,0.1-0.18,0.17c-0.05,0.1-0.06,0.22-0.01,0.32c0.05,0.13,0.62,1.27,3.5,2.18
		c0.03,0.01,0.07,0.01,0.11,0.01c0.07,0,0.14-0.02,0.2-0.05c0.09-0.06,0.16-0.16,0.17-0.27c0.01-0.08,0.97-7.09,2.52-11.87v3.48
		c0,0.19,0.16,0.36,0.36,0.37l1.16,0.06l-0.08,0.3c0,0,0,0,0,0c-0.58,0.86-2.1,4.08-1.95,10.17c0.17,7.05-1.27,20.27-1.29,20.43
		c0,0.06-0.03,1.43,0.93,1.8c2.15,0.86,6.67,1.37,7.61-0.7c0.28-0.6,0.47-3.19,0.62-6.48c0.15,3.29,0.34,5.88,0.62,6.48
		c0.49,1.07,1.93,1.45,3.5,1.45c1.48,0,3.07-0.33,4.11-0.75c0.96-0.37,0.93-1.74,0.93-1.8c0,0,0-0.01-0.01-0.02
		c-0.01-0.14-1.45-13.36-1.27-20.41c0.16-6.81-1.71-9.83-2-10.25l-0.09-0.24l0.69-0.04c0.19-0.01,0.35-0.18,0.35-0.37v-1.07
		c1.14,4.42,1.82,9.39,1.83,9.46c0.01,0.11,0.07,0.21,0.17,0.27c0.06,0.03,0.13,0.05,0.2,0.05c0.03,0,0.07,0,0.11-0.01
		c2.88-0.91,3.44-2.05,3.5-2.18C119.59,123.7,119.59,123.58,119.54,123.48z M104.46,117.9c0.11,0,0.2-0.04,0.27-0.11
		c0.08-0.08,0.12-0.19,0.11-0.29l-0.11-1.28c0.18,0.02,0.35,0.03,0.53,0.04c0.21,0.02,0.42,0.03,0.63,0.04
		c0.63,0.03,1.26,0.03,1.89-0.01c0.26-0.01,0.51-0.03,0.77-0.05l-0.1,1.26c-0.01,0.1,0.03,0.21,0.11,0.29
		c0.07,0.07,0.17,0.11,0.27,0.11c0,0,0.01,0,0.02,0l3.06-0.17l0.03,0.06l-2.22,0.3c-0.93,0.13-1.87,0.19-2.81,0.19
		c-0.94,0-1.87-0.06-2.81-0.19l-2.27-0.31l0.01-0.03l2.6,0.14C104.45,117.9,104.46,117.9,104.46,117.9z M99.55,111.64
		c-1.76,4.09-2.92,11.56-3.2,13.48c-1.63-0.57-2.28-1.19-2.51-1.47c1.1-1.83,2.72-10.09,4.03-17.61c0.39,1.63,1.03,3.59,1.68,5.38
		V111.64z M100.3,116.92v-5.56c0-0.05-0.01-0.09-0.02-0.13s-1.4-3.85-1.87-6.31c-0.01-0.04-0.02-0.07-0.03-0.1l-0.01-0.02
		c-0.16-0.83-0.21-1.42-0.09-1.59c0.77-0.35,3.35-0.26,4.61-0.18l1.02,12.34l0.07,0.77l0.08,0.99l-2.03-0.11h-0.01l-0.76-0.05
		L100.3,116.92z M114.04,128.17c-0.17,6.99,1.22,19.94,1.28,20.49c0,0.24-0.07,0.92-0.45,1.07c-1.9,0.74-5.96,1.2-6.66-0.32
		c-0.58-1.27-0.87-15.05-0.92-23.99c-0.01-0.21-0.17-0.37-0.38-0.37c-0.21,0-0.37,0.16-0.37,0.37c-0.06,8.94-0.35,22.72-0.93,23.99
		c-0.7,1.52-4.76,1.07-6.66,0.32c-0.38-0.16-0.45-0.85-0.45-1.05c0.02-0.14,1.46-13.4,1.29-20.51c-0.15-5.95,1.33-8.92,1.76-9.65
		l2.45,0.33c0.6,0.09,1.19,0.13,1.79,0.16c0.75,0.04,1.49,0.04,2.24,0c0.6-0.03,1.19-0.08,1.79-0.16l2.45-0.33
		C112.71,119.25,114.18,122.19,114.04,128.17z M113.01,111.23c-0.01,0.04-0.02,0.08-0.02,0.13v5.56l-0.58,0.03l-0.78,0.05
		l-2.39,0.13l0.08-0.97l0.06-0.76l1.02-12.37c1.27-0.08,3.84-0.17,4.58,0.16c0.09,0.12,0.1,0.45,0.04,0.92
		C114.84,105.61,113.98,108.59,113.01,111.23z M116.25,125.12c-0.06-0.42-0.16-1.1-0.31-1.96c-0.02-0.13-0.04-0.25-0.06-0.38
		c-0.43-2.53-1.17-6.3-2.14-9.27v-2.09c0.45-1.24,0.9-2.57,1.26-3.81c0.55,3.09,1.14,6.22,1.72,8.91c0.12,0.56,0.24,1.1,0.36,1.62
		c0.14,0.6,0.27,1.17,0.41,1.7c0.08,0.31,0.16,0.61,0.23,0.89c0.18,0.67,0.36,1.25,0.53,1.73c0.04,0.1,0.07,0.2,0.11,0.3
		c0.14,0.38,0.27,0.68,0.4,0.89C118.52,123.93,117.87,124.55,116.25,125.12z"/>
	<g>
		<polygon style="fill:#FFEB6F;" points="111.21,104.12 110.6,110.94 111.46,110.94 112.12,104.44 		"/>
		<path d="M111.21,104.12l0.92,0.31l-0.66,6.5h-0.86L111.21,104.12 M111.21,103.37c-0.14,0-0.29,0.04-0.41,0.12
			c-0.19,0.13-0.32,0.33-0.34,0.56l-0.6,6.82c-0.02,0.21,0.05,0.42,0.19,0.57s0.34,0.24,0.55,0.24h0.86c0.38,0,0.71-0.29,0.75-0.67
			l0.66-6.5c0.04-0.35-0.17-0.67-0.5-0.79l-0.92-0.31C111.37,103.39,111.29,103.37,111.21,103.37L111.21,103.37z"/>
	</g>
	<g>
		<g>
			<path style="fill:#FFDA00;" d="M106.52,106.96c-2.05,0-3.39-1.27-3.44-1.33c-0.1-0.1-0.1-0.25-0.01-0.36
				c0.09-0.1,0.25-0.11,0.35-0.01c0.01,0.01,1.26,1.19,3.11,1.19c1.86,0,3.19-1.18,3.21-1.2c0.1-0.09,0.26-0.08,0.35,0.02
				c0.09,0.1,0.08,0.26-0.02,0.36C109.99,105.69,108.57,106.96,106.52,106.96z"/>
			<path d="M109.89,105.2c0.07,0,0.14,0.03,0.18,0.09c0.09,0.1,0.08,0.26-0.02,0.35c-0.06,0.05-1.48,1.32-3.53,1.32
				c-2.05,0-3.39-1.27-3.44-1.33c-0.1-0.1-0.1-0.25-0.01-0.36c0.05-0.05,0.11-0.08,0.18-0.08c0.06,0,0.12,0.02,0.17,0.07
				c0.01,0.01,1.26,1.19,3.11,1.19c1.86,0,3.19-1.18,3.21-1.2C109.78,105.22,109.83,105.2,109.89,105.2 M109.89,104.45
				c-0.25,0-0.48,0.09-0.66,0.26c-0.01,0.01-1.16,1-2.7,1c-1.52,0-2.58-0.98-2.59-0.98c-0.18-0.17-0.43-0.27-0.68-0.27
				c-0.28,0-0.54,0.12-0.73,0.32c-0.36,0.4-0.35,1.02,0.04,1.4c0.17,0.16,1.67,1.54,3.97,1.54c2.3,0,3.86-1.36,4.03-1.52
				c0.4-0.36,0.44-0.99,0.09-1.4C110.46,104.57,110.18,104.45,109.89,104.45L109.89,104.45z"/>
		</g>
	</g>
</g>
<g>
	<rect x="79.7" y="97.86" style="fill:#FF7775;" width="19.95" height="10.47"/>
	<path d="M100.15,96.86H79.2c-0.28,0-0.5,0.22-0.5,0.5v11.47c0,0.27,0.22,0.5,0.5,0.5h20.95c0.27,0,0.5-0.23,0.5-0.5V97.36
		C100.65,97.08,100.42,96.86,100.15,96.86z M99.65,108.33H79.7V97.86h19.95V108.33z"/>
	<g>
		<path style="fill:#FFFFFF;" d="M81.39,103.69l0.82-0.08c0.05,0.29,0.15,0.51,0.3,0.64c0.15,0.14,0.35,0.21,0.61,0.21
			c0.27,0,0.47-0.06,0.61-0.18c0.14-0.12,0.21-0.26,0.21-0.43c0-0.1-0.03-0.19-0.09-0.27c-0.06-0.07-0.16-0.14-0.3-0.19
			c-0.1-0.04-0.32-0.1-0.67-0.19c-0.45-0.12-0.76-0.26-0.95-0.44c-0.25-0.24-0.38-0.54-0.38-0.89c0-0.23,0.06-0.44,0.18-0.63
			c0.12-0.2,0.29-0.35,0.52-0.45c0.23-0.1,0.5-0.15,0.82-0.15c0.52,0,0.91,0.12,1.18,0.36s0.4,0.57,0.41,0.97l-0.84,0.04
			c-0.04-0.23-0.11-0.39-0.23-0.49c-0.12-0.1-0.29-0.15-0.53-0.15c-0.24,0-0.43,0.05-0.57,0.16c-0.09,0.07-0.13,0.16-0.13,0.27
			c0,0.1,0.04,0.19,0.12,0.27c0.11,0.09,0.36,0.19,0.77,0.3c0.41,0.1,0.71,0.21,0.9,0.32s0.35,0.26,0.46,0.45
			c0.11,0.19,0.17,0.43,0.17,0.7c0,0.25-0.07,0.49-0.2,0.71c-0.13,0.22-0.32,0.39-0.56,0.49s-0.54,0.16-0.9,0.16
			c-0.52,0-0.93-0.13-1.21-0.39C81.61,104.56,81.44,104.18,81.39,103.69z"/>
		<path style="fill:#FFFFFF;" d="M89.44,105.13h-0.91l-0.36-1h-1.66l-0.34,1h-0.89l1.62-4.42h0.89L89.44,105.13z M87.9,103.38
			l-0.57-1.64l-0.56,1.64H87.9z"/>
		<path style="fill:#FFFFFF;" d="M90.14,105.13v-4.39h0.84v3.64h2.08v0.75H90.14z"/>
		<path style="fill:#FFFFFF;" d="M93.89,105.13v-4.42h3.08v0.75h-2.24v0.98h2.08v0.75h-2.08v1.2h2.32v0.75H93.89z"/>
	</g>
</g>
<g>
	<g>
		<path style="fill:#D6C34C;" d="M115.2,161.58c0.01,0.14-0.08,0.3-0.25,0.48c-0.58,0.6-1.91,1.09-2.95,1.09
			c-1.5,0-2.92-0.89-3.03-1.25c-0.01-0.04-0.02-0.07-0.03-0.1c0.32,0.24,0.82,0.5,1.59,0.69c0.54,0.13,1.06,0.2,1.55,0.2
			c1.05,0,1.99-0.31,2.82-0.95c0.01-0.01,0.14-0.13,0.29-0.34C115.2,161.45,115.2,161.51,115.2,161.58z"/>
		<path d="M114.36,156.62c-0.02,0-0.03-0.01-0.04-0.02c0-0.01,0.01-0.03,0.02-0.04C114.35,156.58,114.35,156.6,114.36,156.62z"/>
		<path style="fill:#8C4900;" d="M110.62,156.29c0.05-0.08,0.12-0.15,0.19-0.22c0.25-0.23,0.58-0.35,1-0.35c0.07,0,0.14,0,0.22,0.01
			c1.12,0.1,1.54,0.37,1.71,0.67C112.84,156.19,111.51,156.23,110.62,156.29z"/>
		<path style="fill:#8C4900;" d="M109.25,159.49c-0.04-0.05-0.4-0.52,0.18-1.1l0.1-0.1c1.69-0.32,3.66-0.1,4.64,0.01
			c0.04,0,0.07,0.01,0.1,0.01c0.11,0.49,0.18,1,0.07,1.24c-0.07,0.15-0.51,0.43-1.4,0.6C111.79,160.36,110.13,160.31,109.25,159.49z
			"/>
		<path style="fill:#8C4900;" d="M110.13,157.69c-0.2,0.02-0.4,0.05-0.6,0.09c0.04-0.11,0.08-0.21,0.12-0.31
			c0.04-0.12,0.09-0.23,0.15-0.32c0.07-0.16,0.15-0.27,0.21-0.3c0.12-0.01,0.25-0.03,0.37-0.03c1.42-0.12,2.92-0.09,3.55,0.15
			c0.01-0.01,0.01,0,0.02,0c0.14,0.05,0.24,0.12,0.27,0.19c0.02,0.03,0.03,0.06,0.05,0.09c0.11,0.21,0.21,0.43,0.27,0.59
			c-0.09-0.01-0.19-0.02-0.31-0.04c-0.02,0-0.05-0.01-0.08-0.01c-0.62-0.07-1.58-0.17-2.63-0.17
			C111.06,157.62,110.59,157.64,110.13,157.69z"/>
		<path style="fill:#8C4900;" d="M114.96,157.54c-0.06-0.16-0.15-0.35-0.28-0.58c0.08-0.11,0.14-0.24,0.19-0.36
			c0.1,0.11,0.17,0.22,0.14,0.3C114.95,157.05,114.94,157.26,114.96,157.54z"/>
		<path style="fill:#8C4900;" d="M115.2,159.92c0,0.01,0,0.01,0,0.02c0,0.81-0.63,1.42-0.63,1.42c-1.06,0.82-2.38,1.03-3.91,0.64
			c-1.62-0.41-1.81-1.07-1.83-1.11c0-0.01-0.27-0.63-0.35-1.37c-0.02-0.15,0.04-0.34,0.14-0.54c-0.03,0.37,0.12,0.68,0.27,0.86
			c0.72,0.68,1.85,0.91,2.89,0.91c0.44,0,0.87-0.04,1.25-0.11c0.44-0.08,1.5-0.33,1.76-0.88c0.16-0.33,0.13-0.84,0.01-1.4
			c0.07-0.01,0.17-0.06,0.22-0.13c0.02,0.12,0.03,0.24,0.05,0.37C115.14,159.07,115.2,159.57,115.2,159.92z"/>
		<path d="M115.7,159.92c0-0.39-0.07-0.9-0.13-1.39c-0.07-0.53-0.17-1.26-0.1-1.45c0.24-0.59-0.51-1.06-0.6-1.11
			c-0.07-0.04-0.15-0.05-0.23-0.02c-0.07,0.03-0.12,0.1-0.14,0.18c-0.03,0.14-0.09,0.3-0.16,0.43c0.01,0.02,0.01,0.04,0.02,0.06
			c-0.02,0-0.03-0.01-0.04-0.02c0-0.01,0.01-0.03,0.02-0.04c-0.16-0.63-0.55-1.18-2.27-1.33c-0.66-0.06-1.2,0.1-1.6,0.47
			c-0.21,0.19-0.35,0.41-0.45,0.64c-0.03,0.01-0.06,0.01-0.08,0.01c0,0-0.01,0-0.01,0.01c-0.33,0.04-0.59,0.51-0.78,0.99
			c0,0.01-0.01,0.01-0.01,0.02c-0.23,0.24-1.24,1.37-1.15,2.2c0.08,0.81,0.36,1.46,0.37,1.46c0.01,0.03,0.02,0.1,0.09,0.21
			c-0.05,0.15-0.09,0.42,0.04,0.82c0.22,0.69,1.96,1.59,3.51,1.59c1.18,0,2.63-0.55,3.31-1.24c0.27-0.28,0.4-0.56,0.39-0.84
			c-0.01-0.55-0.06-0.83-0.11-0.97C115.66,160.4,115.7,160.17,115.7,159.92z M112,163.15c-1.5,0-2.92-0.89-3.03-1.25
			c-0.01-0.04-0.02-0.07-0.03-0.1c0.32,0.24,0.82,0.5,1.59,0.69c0.54,0.13,1.06,0.2,1.55,0.2c1.05,0,1.99-0.31,2.82-0.95
			c0.01-0.01,0.14-0.13,0.29-0.34c0.01,0.05,0.01,0.11,0.01,0.18c0.01,0.14-0.08,0.3-0.25,0.48
			C114.37,162.67,113.04,163.15,112,163.15z M114.87,156.6c0.1,0.11,0.17,0.22,0.14,0.3c-0.06,0.15-0.07,0.36-0.05,0.64
			c-0.06-0.16-0.15-0.35-0.28-0.58C114.76,156.85,114.82,156.72,114.87,156.6z M110.81,156.07c0.25-0.23,0.58-0.35,1-0.35
			c0.07,0,0.14,0,0.22,0.01c1.12,0.1,1.54,0.37,1.71,0.67c-0.9-0.21-2.23-0.17-3.12-0.11C110.67,156.21,110.74,156.14,110.81,156.07
			z M109.65,157.47c0.04-0.12,0.09-0.23,0.15-0.32c0.07-0.16,0.15-0.27,0.21-0.3c0.12-0.01,0.25-0.03,0.37-0.03
			c1.42-0.12,2.92-0.09,3.55,0.15c0.01-0.01,0.01,0,0.02,0c0.14,0.05,0.24,0.12,0.27,0.19c0.02,0.03,0.03,0.06,0.05,0.09
			c0.11,0.21,0.21,0.43,0.27,0.59c-0.09-0.01-0.19-0.02-0.31-0.04c-0.02,0-0.05-0.01-0.08-0.01c-0.62-0.07-1.58-0.17-2.63-0.17
			c-0.46,0-0.93,0.02-1.39,0.07c-0.2,0.02-0.4,0.05-0.6,0.09C109.57,157.67,109.61,157.57,109.65,157.47z M109.43,158.39l0.1-0.1
			c1.69-0.32,3.66-0.1,4.64,0.01c0.04,0,0.07,0.01,0.1,0.01c0.11,0.49,0.18,1,0.07,1.24c-0.07,0.15-0.51,0.43-1.4,0.6
			c-1.15,0.21-2.81,0.16-3.69-0.66C109.21,159.44,108.85,158.97,109.43,158.39z M108.48,159.52c-0.02-0.15,0.04-0.34,0.14-0.54
			c-0.03,0.37,0.12,0.68,0.27,0.86c0.72,0.68,1.85,0.91,2.89,0.91c0.44,0,0.87-0.04,1.25-0.11c0.44-0.08,1.5-0.33,1.76-0.88
			c0.16-0.33,0.13-0.84,0.01-1.4c0.07-0.01,0.17-0.06,0.22-0.13c0.02,0.12,0.03,0.24,0.05,0.37c0.07,0.47,0.13,0.97,0.13,1.32
			c0,0.01,0,0.01,0,0.02c0,0.26-0.06,0.5-0.15,0.7c-0.19,0.44-0.48,0.72-0.48,0.72c-1.06,0.82-2.38,1.03-3.91,0.64
			c-0.93-0.23-1.39-0.55-1.61-0.79c-0.17-0.17-0.21-0.3-0.22-0.32C108.83,160.88,108.56,160.26,108.48,159.52z"/>
		<path d="M113.15,157.53c-0.02,0-0.04,0-0.06-0.01c-0.36-0.09-1.67-0.05-2.47,0.01c-0.14,0.01-0.26-0.09-0.27-0.23
			c-0.01-0.14,0.09-0.26,0.23-0.27c0.21-0.01,2.09-0.14,2.63,0.01c0.13,0.04,0.21,0.17,0.18,0.31
			C113.36,157.45,113.26,157.53,113.15,157.53z"/>
	</g>
	<g>
		<path style="fill:#D6C34C;" d="M121.65,161.79c0,0.04-0.01,0.07-0.02,0.11c-0.12,0.36-1.54,1.25-3.03,1.25
			c-1.05,0-2.37-0.49-2.96-1.09c-0.16-0.18-0.25-0.34-0.25-0.48c0-0.08,0.01-0.13,0.01-0.2c0.16,0.22,0.3,0.36,0.32,0.38
			c0.81,0.62,1.74,0.93,2.79,0.93c0.49,0,1.01-0.07,1.55-0.2C120.84,162.29,121.33,162.03,121.65,161.79z"/>
		<path d="M116.28,156.6c-0.01,0-0.03,0.01-0.04,0.02c0.01-0.02,0.01-0.04,0.02-0.06C116.26,156.57,116.27,156.59,116.28,156.6z"/>
		<path style="fill:#8C4900;" d="M115.59,156.9c-0.04-0.08,0.04-0.19,0.13-0.3c0.05,0.12,0.11,0.25,0.19,0.36
			c-0.12,0.23-0.21,0.41-0.27,0.56C115.66,157.25,115.64,157.04,115.59,156.9z"/>
		<path style="fill:#8C4900;" d="M116.86,156.39c0.18-0.3,0.6-0.56,1.71-0.66c0.07-0.01,0.15-0.01,0.22-0.01
			c0.41,0,0.75,0.12,0.99,0.35c0.07,0.07,0.14,0.14,0.19,0.22C119.08,156.23,117.76,156.19,116.86,156.39z"/>
		<path style="fill:#8C4900;" d="M116.36,157.8c-0.11,0.02-0.22,0.03-0.3,0.04c0.05-0.16,0.15-0.37,0.27-0.59
			c0.01-0.03,0.03-0.07,0.05-0.1c0.03-0.07,0.13-0.14,0.27-0.19c0.01,0,0.02-0.01,0.03-0.01c0.39-0.14,1.12-0.2,1.96-0.2
			c0.5,0,1.05,0.02,1.58,0.06c0.12,0.01,0.25,0.03,0.37,0.04c0.05,0.03,0.12,0.12,0.2,0.27c0.05,0.1,0.11,0.23,0.17,0.37
			c0.04,0.09,0.07,0.19,0.11,0.29c-0.2-0.04-0.4-0.07-0.61-0.09c-1.53-0.17-3.13,0-4.02,0.1
			C116.41,157.79,116.38,157.8,116.36,157.8z"/>
		<path style="fill:#8C4900;" d="M121.06,158.29l0.1,0.1c0.58,0.58,0.23,1.05,0.21,1.08c-0.9,0.84-2.56,0.89-3.71,0.68
			c-0.9-0.17-1.33-0.45-1.41-0.6c-0.11-0.24-0.04-0.75,0.07-1.24c0.03,0,0.06-0.01,0.1-0.01
			C117.4,158.19,119.37,157.97,121.06,158.29z"/>
		<path style="fill:#8C4900;" d="M122.11,159.52c-0.08,0.74-0.34,1.36-0.36,1.41c0,0-0.19,0.66-1.81,1.07
			c-1.54,0.39-2.86,0.18-3.9-0.62c-0.01-0.01-0.65-0.63-0.65-1.46c0-0.35,0.07-0.85,0.13-1.32c0.02-0.13,0.04-0.26,0.05-0.38
			c0.04,0.07,0.15,0.13,0.23,0.14c-0.12,0.56-0.15,1.07,0,1.4c0.27,0.55,1.32,0.8,1.77,0.88c0.37,0.07,0.8,0.11,1.24,0.11
			c1.04,0,2.18-0.24,2.92-0.93c0.14-0.17,0.28-0.47,0.25-0.84C122.08,159.18,122.13,159.37,122.11,159.52z"/>
		<path d="M122.61,159.57c0.1-0.85-0.98-2.03-1.17-2.22c0-0.01,0-0.01-0.01-0.02c-0.18-0.48-0.44-0.93-0.77-0.97
			c0-0.01,0-0.01-0.01-0.01c-0.02,0-0.05,0-0.08-0.01c-0.1-0.23-0.24-0.45-0.44-0.64c-0.4-0.37-0.94-0.53-1.61-0.47
			c-1.71,0.15-2.1,0.7-2.26,1.33c0,0.01,0.01,0.03,0.02,0.04c-0.01,0-0.03,0.01-0.04,0.02c0.01-0.02,0.01-0.04,0.02-0.06
			c-0.07-0.13-0.13-0.29-0.16-0.43c-0.02-0.08-0.07-0.15-0.15-0.18c-0.07-0.03-0.16-0.02-0.23,0.02c-0.08,0.05-0.84,0.52-0.6,1.11
			c0.07,0.19-0.02,0.92-0.09,1.45c-0.07,0.49-0.14,1-0.14,1.39c0,0.24,0.05,0.47,0.11,0.68c-0.05,0.14-0.09,0.41-0.11,0.97
			c-0.01,0.28,0.13,0.56,0.4,0.84c0.67,0.69,2.13,1.24,3.31,1.24c1.54,0,3.28-0.9,3.5-1.59c0.12-0.39,0.09-0.63,0.04-0.79
			c0.06-0.1,0.08-0.18,0.08-0.19C122.24,161.06,122.52,160.39,122.61,159.57z M121.37,159.47c-0.9,0.84-2.56,0.89-3.71,0.68
			c-0.9-0.17-1.33-0.45-1.41-0.6c-0.11-0.24-0.04-0.75,0.07-1.24c0.03,0,0.06-0.01,0.1-0.01c0.98-0.11,2.95-0.33,4.64-0.01l0.1,0.1
			C121.74,158.97,121.39,159.44,121.37,159.47z M118.57,155.73c0.07-0.01,0.15-0.01,0.22-0.01c0.41,0,0.75,0.12,0.99,0.35
			c0.07,0.07,0.14,0.14,0.19,0.22c-0.89-0.06-2.21-0.1-3.11,0.1C117.04,156.09,117.46,155.83,118.57,155.73z M116.33,157.25
			c0.01-0.03,0.03-0.07,0.05-0.1c0.03-0.07,0.13-0.14,0.27-0.19c0.01,0,0.02-0.01,0.03-0.01c0.39-0.14,1.12-0.2,1.96-0.2
			c0.5,0,1.05,0.02,1.58,0.06c0.12,0.01,0.25,0.03,0.37,0.04c0.05,0.03,0.12,0.12,0.2,0.27c0.05,0.1,0.11,0.23,0.17,0.37
			c0.04,0.09,0.07,0.19,0.11,0.29c-0.2-0.04-0.4-0.07-0.61-0.09c-1.53-0.17-3.13,0-4.02,0.1c-0.03,0-0.06,0.01-0.08,0.01
			c-0.11,0.02-0.22,0.03-0.3,0.04C116.11,157.68,116.21,157.47,116.33,157.25z M115.72,156.6c0.05,0.12,0.11,0.25,0.19,0.36
			c-0.12,0.23-0.21,0.41-0.27,0.56c0.02-0.27,0-0.48-0.05-0.62C115.55,156.82,115.63,156.71,115.72,156.6z M121.63,161.9
			c-0.12,0.36-1.54,1.25-3.03,1.25c-1.05,0-2.37-0.49-2.96-1.09c-0.16-0.18-0.25-0.34-0.25-0.48c0-0.08,0.01-0.13,0.01-0.2
			c0.16,0.22,0.3,0.36,0.32,0.38c0.81,0.62,1.74,0.93,2.79,0.93c0.49,0,1.01-0.07,1.55-0.2c0.78-0.2,1.27-0.46,1.59-0.7
			C121.65,161.83,121.64,161.86,121.63,161.9z M121.75,160.93c0,0-0.02,0.07-0.1,0.16c0,0.01-0.01,0.02-0.02,0.03
			c-0.02,0.03-0.05,0.06-0.08,0.09c-0.22,0.23-0.66,0.55-1.61,0.79c-1.54,0.39-2.86,0.18-3.9-0.62c-0.01-0.01-0.31-0.3-0.49-0.75
			c-0.1-0.2-0.16-0.45-0.16-0.71c0-0.35,0.07-0.85,0.13-1.32c0.02-0.13,0.04-0.26,0.05-0.38c0.04,0.07,0.15,0.13,0.23,0.14
			c-0.12,0.56-0.15,1.07,0,1.4c0.27,0.55,1.32,0.8,1.77,0.88c0.37,0.07,0.8,0.11,1.24,0.11c1.04,0,2.18-0.24,2.92-0.93
			c0.14-0.17,0.28-0.47,0.25-0.84c0.1,0.2,0.15,0.39,0.13,0.54C122.03,160.26,121.77,160.88,121.75,160.93z"/>
		<g>
			<path d="M117.45,157.53c-0.11,0-0.21-0.07-0.24-0.19c-0.04-0.13,0.04-0.27,0.18-0.31c0.55-0.14,2.42-0.02,2.63-0.01
				c0.14,0.01,0.24,0.13,0.23,0.27c-0.01,0.14-0.13,0.24-0.27,0.23c-0.8-0.05-2.12-0.1-2.47-0.01
				C117.49,157.52,117.47,157.53,117.45,157.53z"/>
		</g>
	</g>
</g>
<g>
	<path style="fill:#D69F78;" d="M199.7,183.39c2.38,5.41,3.87,11.52,3.87,12.88c0,2.56-5.23,4.63-11.68,4.63
		c-6.45,0-11.68-2.07-11.68-4.63c0-1.36,1.49-7.47,3.87-12.88c-2.38-0.99-3.87-2.43-3.87-4.04c0-3.01,5.23-5.46,11.68-5.46
		c6.45,0,11.68,2.45,11.68,5.46C203.57,180.96,202.08,182.4,199.7,183.39z"/>
	<path d="M191.89,173.75c-0.39,0-0.77,0.06-1.14,0.17c0.37-0.02,0.75-0.03,1.14-0.03c0.39,0,0.77,0.01,1.14,0.03
		C192.66,173.81,192.28,173.75,191.89,173.75z"/>
	<path d="M204.32,179.35c0-3.48-5.46-6.21-12.43-6.21c-6.97,0-12.43,2.73-12.43,6.21c0,1.74,1.37,3.29,3.61,4.4
		c-2.27,5.36-3.61,11.15-3.61,12.52c0,3.07,5.34,5.38,12.43,5.38c7.09,0,12.43-2.31,12.43-5.38c0-1.37-1.34-7.16-3.61-12.52
		C202.95,182.64,204.32,181.09,204.32,179.35z M180.21,179.35c0-2.83,4.62-5.16,10.54-5.43c0.37-0.11,0.75-0.17,1.14-0.17
		c0.39,0,0.77,0.06,1.14,0.17c5.92,0.27,10.54,2.6,10.54,5.43c0,1.44-1.2,2.75-3.15,3.72c-0.23,0.12-0.47,0.23-0.72,0.32
		c-2.07,0.88-4.81,1.41-7.81,1.41s-5.74-0.53-7.81-1.41c-0.25-0.09-0.49-0.2-0.72-0.32C181.41,182.1,180.21,180.79,180.21,179.35z
		 M203.57,196.27c0,2.56-5.23,4.63-11.68,4.63c-6.45,0-11.68-2.07-11.68-4.63c0-1.3,1.37-6.97,3.57-12.19
		c2.16,0.92,4.99,1.47,8.11,1.47c3.12,0,5.95-0.55,8.11-1.47C202.2,189.3,203.57,194.97,203.57,196.27z"/>
	<ellipse style="fill:#584131;" cx="191.89" cy="179.35" rx="9.34" ry="3.36"/>
	<path d="M195.96,175.57c-0.57-0.1-1.16-0.18-1.76-0.22c-0.08-0.02-0.16-0.02-0.24-0.02c-0.17-0.02-0.35-0.04-0.53-0.04
		c-0.08-0.01-0.16-0.01-0.24-0.01c-0.08-0.01-0.15-0.02-0.23-0.01c-0.25-0.02-0.51-0.03-0.76-0.02c-0.1-0.01-0.21-0.01-0.31-0.01
		h-0.05c-0.26,0-0.51,0-0.77,0.02c-0.2,0-0.39,0.01-0.58,0.02c-0.25,0.01-0.49,0.03-0.73,0.05c-0.41,0.03-0.81,0.07-1.2,0.13
		c-0.25,0.02-0.5,0.06-0.75,0.11c-0.49,0.07-0.97,0.17-1.43,0.29c-0.25,0.05-0.49,0.12-0.72,0.19l0.19,0.74
		c0.23-0.07,0.47-0.14,0.72-0.2c0.45-0.11,0.93-0.21,1.44-0.3c0.24-0.04,0.49-0.07,0.75-0.11c0.35-0.04,0.72-0.08,1.09-0.11
		c0.24-0.02,0.48-0.03,0.73-0.04c0.23-0.02,0.46-0.03,0.69-0.03c0.21-0.01,0.41-0.01,0.62-0.01h0.15c0.07,0,0.14,0,0.21,0.01
		c0.26,0,0.51,0,0.76,0.02c0.06,0,0.12,0,0.18,0.01c0.06,0,0.11,0,0.16,0.01c0.21,0,0.41,0.02,0.61,0.04c0.06,0,0.11,0,0.17,0.01
		c0.53,0.05,1.05,0.11,1.54,0.19c0.26,0.04,0.51,0.08,0.75,0.14c0.1-0.23,0.19-0.47,0.3-0.71
		C196.48,175.65,196.22,175.6,195.96,175.57z"/>
	<path d="M201.98,179.35c0,2.31-3.73,3.67-7.96,4.01c-0.12,0.01-0.23,0.02-0.35,0.02v0.01c-0.39,0.03-0.78,0.04-1.17,0.05
		c-0.13,0.01-0.27,0.01-0.4,0.01h-0.21c-0.58,0-1.17-0.02-1.74-0.06c-0.38-0.02-0.76-0.05-1.13-0.1c-0.14-0.01-0.28-0.03-0.42-0.05
		c-0.37-0.04-0.73-0.1-1.09-0.17c-3.22-0.58-5.71-1.83-5.71-3.72c0-1.51,1.58-2.62,3.86-3.3l0.19,0.74c-2.02,0.61-3.3,1.53-3.3,2.56
		c0,1.25,1.91,2.34,4.74,2.92c0.26,0.05,0.52,0.1,0.8,0.14c0.49,0.08,1.01,0.15,1.54,0.19c0.25,0.02,0.49,0.04,0.75,0.05
		c0.18,0.02,0.36,0.03,0.54,0.03c0.24,0.01,0.47,0.02,0.71,0.01c0.09,0.01,0.17,0.01,0.26,0.01h0.22c0.19,0,0.39-0.01,0.58-0.02
		c0.12,0,0.23,0,0.35-0.01c0.17,0,0.33-0.01,0.49-0.03c0.09,0,0.18,0,0.26-0.01c0.21-0.01,0.42-0.03,0.62-0.06
		c3.94-0.39,6.82-1.68,6.82-3.22c0-1.27-1.94-2.37-4.81-2.93c0.1-0.23,0.19-0.47,0.3-0.71
		C199.72,176.32,201.98,177.55,201.98,179.35z"/>
	<g>
		<path d="M187.55,141.28c-3.5-6.67-10.13-11.5-19.71-14.34c-0.13-0.04-0.28,0-0.37,0.1c-0.1,0.1-0.13,0.25-0.09,0.38l4.64,13.1
			c0.05,0.13,0.18,0.23,0.32,0.25l5.77,0.52l-3.9,3.39c-0.15,0.13-0.17,0.36-0.04,0.52l4.09,4.88c0.1,0.12,0.26,0.17,0.41,0.11
			l3.13-1.13l-1.28,5.62c-0.02,0.1,0,0.21,0.05,0.3l5.89,8.79l-0.02,14.45c0.05,0.76,0.51,1.35,1.17,1.49
			c0.1,0.02,0.2,0.03,0.29,0.03c0.55,0,1.06-0.32,1.36-0.88c0.02-0.03,0.03-0.06,0.04-0.09l0.2-0.91l-0.17-17.36
			C189.59,159.65,192.26,150.26,187.55,141.28z M188.76,177.77l-0.18,0.78c-0.2,0.33-0.51,0.49-0.81,0.43
			c-0.26-0.06-0.55-0.3-0.58-0.79l0.02-14.53c0-0.07-0.03-0.15-0.07-0.21l-5.85-8.76l1.4-6.14c0.03-0.13-0.02-0.27-0.12-0.36
			c-0.1-0.09-0.25-0.12-0.38-0.07l-3.53,1.28l-3.68-4.4l4.29-3.72c0.11-0.09,0.15-0.25,0.11-0.39c-0.05-0.15-0.17-0.25-0.32-0.26
			l-6.41-0.59l-4.31-12.17c8.99,2.81,15.22,7.43,18.54,13.75c4.77,9.08,1.75,18.61,1.72,18.71c-0.02,0.04-0.02,0.08-0.02,0.12
			L188.76,177.77z"/>
		<path style="fill:#A0D47D;" d="M188.58,160.45l0.18,17.32l-0.18,0.78c-0.2,0.33-0.51,0.49-0.81,0.43
			c-0.26-0.06-0.55-0.3-0.58-0.79l0.02-14.53c0-0.07-0.03-0.15-0.07-0.21l-5.85-8.76l1.4-6.14c0.03-0.13-0.02-0.27-0.12-0.36
			c-0.1-0.09-0.25-0.12-0.38-0.07l-3.53,1.28l-3.68-4.4l4.29-3.72c0.11-0.09,0.15-0.25,0.11-0.39c-0.05-0.15-0.17-0.25-0.32-0.26
			l-6.41-0.59l-4.31-12.17c8.99,2.81,15.22,7.43,18.54,13.75c4.77,9.08,1.75,18.61,1.72,18.71
			C188.58,160.37,188.58,160.41,188.58,160.45z"/>
	</g>
	<g>
		<path d="M190.37,182.02l-1.61-5.84l-0.2-0.72l-2.21-8.01c0.07-0.83,0.49-8.43-5-14.78c-4.83-5.58-12.69-8.63-23.35-9.05
			c-0.15-0.01-0.28,0.07-0.35,0.2c-0.07,0.12-0.06,0.28,0.03,0.39l7.42,10.07c0.08,0.11,0.21,0.16,0.35,0.14l5.65-0.74l-2.95,3.55
			c-0.07,0.08-0.1,0.19-0.08,0.29c0.01,0.11,0.07,0.2,0.16,0.26l5.06,3.26c0.12,0.08,0.27,0.08,0.39,0.01l2.81-1.62v4.96
			c0,0.11,0.05,0.22,0.14,0.29l7.66,6.17l1.37,5.2l0.19,0.74l1.44,5.48c0.26,0.05,0.52,0.1,0.8,0.14l-1.52-5.82l-0.19-0.73
			l-1.39-5.32c-0.02-0.08-0.07-0.15-0.13-0.2l-7.62-6.13v-5.43c0-0.13-0.07-0.26-0.18-0.32c-0.12-0.07-0.26-0.07-0.38,0l-3.17,1.83
			l-4.51-2.91l3.29-3.96c0.1-0.12,0.11-0.29,0.04-0.42c-0.08-0.14-0.23-0.21-0.38-0.19l-6.38,0.84l-6.82-9.25
			c10.05,0.53,17.45,3.47,22.02,8.75c5.58,6.45,4.84,14.22,4.83,14.29c0,0.05,0,0.1,0.01,0.14l2.2,7.99l0.2,0.72l1.62,5.88v0.43
			c0.25,0.02,0.49,0.04,0.75,0.05v-0.53C190.38,182.09,190.38,182.05,190.37,182.02z"/>
		<path style="fill:#85C053;" d="M189.63,182.17v0.43c-0.53-0.04-1.05-0.11-1.54-0.19l-1.52-5.82l-0.19-0.73l-1.39-5.32
			c-0.02-0.08-0.07-0.15-0.13-0.2l-7.62-6.13v-5.43c0-0.13-0.07-0.26-0.18-0.32c-0.12-0.07-0.26-0.07-0.38,0l-3.17,1.83l-4.51-2.91
			l3.29-3.96c0.1-0.12,0.11-0.29,0.04-0.42c-0.08-0.14-0.23-0.21-0.38-0.19l-6.38,0.84l-6.82-9.25c10.05,0.53,17.45,3.47,22.02,8.75
			c5.58,6.45,4.84,14.22,4.83,14.29c0,0.05,0,0.1,0.01,0.14l2.2,7.99l0.2,0.72L189.63,182.17z"/>
	</g>
	<g>
		<path d="M201.73,135.5v-15.67c0-0.13-0.07-0.25-0.18-0.32c-0.12-0.06-0.25-0.07-0.37-0.01c-24.62,12.69-8.44,61.72-8.28,62.21
			c0.05,0.15,0.2,0.25,0.36,0.25h0.08l2.02-0.46c0.11-0.03,0.21-0.1,0.26-0.2c0.05-0.11,0.05-0.22,0-0.33
			c-2.42-5.24-4.32-22.87-4.64-25.95l6.28,0.69c0.18,0.02,0.35-0.09,0.41-0.27l2.02-7.13c0.03-0.13,0-0.27-0.09-0.36l-3.2-3.34
			l4.87,1.04c0.11,0.02,0.23-0.01,0.32-0.08c0.08-0.07,0.14-0.18,0.14-0.29v-5.83c0-0.11-0.05-0.21-0.13-0.28l-3.66-3.29h3.41
			C201.56,135.88,201.73,135.71,201.73,135.5z M200.98,144.82l-5.62-1.2c-0.16-0.04-0.33,0.04-0.41,0.18
			c-0.08,0.15-0.05,0.33,0.06,0.44l3.9,4.07l-1.88,6.62l-6.43-0.71c-0.11-0.01-0.22,0.03-0.31,0.11c-0.08,0.08-0.12,0.19-0.1,0.3
			c0.08,0.83,1.97,19.92,4.57,26.23l-1.25,0.29c-1.35-4.23-14.79-48.4,7.47-60.69v14.67h-4.01c-0.16,0-0.3,0.09-0.35,0.24
			c-0.06,0.14-0.02,0.31,0.1,0.41l4.26,3.84V144.82z"/>
		<path style="fill:#E1F0A1;" d="M196.62,135.37c-0.06,0.14-0.02,0.31,0.1,0.41l4.26,3.84v5.2l-5.62-1.2
			c-0.16-0.04-0.33,0.04-0.41,0.18c-0.08,0.15-0.05,0.33,0.06,0.44l3.9,4.07l-1.88,6.62l-6.43-0.71c-0.11-0.01-0.22,0.03-0.31,0.11
			c-0.08,0.08-0.12,0.19-0.1,0.3c0.08,0.83,1.97,19.92,4.57,26.23l-1.25,0.29c-1.35-4.23-14.79-48.4,7.47-60.69v14.67h-4.01
			C196.81,135.13,196.67,135.22,196.62,135.37z"/>
	</g>
	<g>
		<path style="fill:#85C053;" d="M215.59,152.57c-0.13,0.09-0.2,0.25-0.16,0.41l1.32,5.26l-2.57,3.22l-3.71-4.51
			c-0.11-0.13-0.3-0.18-0.45-0.1c-0.15,0.07-0.24,0.23-0.21,0.4l0.92,5.14l-4.71,2.92l-3.1-3.2c-0.09-0.09-0.21-0.13-0.33-0.11
			c-0.12,0.02-0.22,0.09-0.28,0.19c-0.21,0.42-3.89,7.38-6.35,13.38c-0.1,0.24-0.2,0.47-0.29,0.71c-0.33,0.81-0.62,1.6-0.88,2.35
			v0.01c-0.15,0.42-0.29,0.82-0.4,1.21c-0.13,0.41-0.24,0.8-0.33,1.17c-0.07,0.29-0.13,0.56-0.18,0.82
			c-0.01,0.06-0.02,0.11-0.03,0.16l-0.32,0.64c-0.16,0.02-0.32,0.03-0.49,0.03c-0.12,0.01-0.23,0.01-0.35,0.01
			c-0.35-0.21-0.48-0.36-0.48-0.6c0-0.08,0.01-0.16,0.04-0.26c0.08-0.31,0.18-0.7,0.31-1.17v-0.01c0.05-0.18,0.11-0.36,0.16-0.56
			c0.07-0.24,0.15-0.5,0.23-0.78c0.08-0.29,0.18-0.61,0.28-0.94c0.12-0.39,0.25-0.8,0.38-1.23c0.11-0.33,0.23-0.68,0.35-1.05
			c0.03-0.1,0.06-0.2,0.1-0.31c0.05-0.14,0.09-0.28,0.14-0.42c2.95-8.65,9.03-22.63,18.83-28c2.63-1.44,5.37-2.16,8.2-2.16
			c1.73,0,3.49,0.27,5.27,0.8l-7.39,9.28l-3.07-2.66C215.91,152.5,215.73,152.48,215.59,152.57z"/>
		<path d="M227.5,145.69c-0.04-0.12-0.13-0.21-0.25-0.25c-5.11-1.67-10.02-1.25-14.58,1.25c-6.72,3.68-11.71,11.28-15.17,18.53
			c-1.55,3.25-2.8,6.43-3.75,9.14c-0.11,0.32-0.22,0.63-0.32,0.93c-0.05,0.15-0.1,0.29-0.15,0.43v0.01c-0.03,0.1-0.06,0.2-0.09,0.3
			c-0.05,0.15-0.1,0.29-0.15,0.43c-0.17,0.53-0.33,1.03-0.47,1.5c-0.04,0.12-0.07,0.23-0.11,0.34c-0.1,0.35-0.2,0.69-0.29,1
			c-0.3,1-0.51,1.79-0.65,2.33c-0.02,0.07-0.03,0.13-0.04,0.19c-0.06,0.36,0,0.64,0.15,0.87c0.09,0.01,0.17,0.01,0.26,0.01h0.22
			c0.19,0,0.39-0.01,0.58-0.02c-0.35-0.21-0.48-0.36-0.48-0.6c0-0.08,0.01-0.16,0.04-0.26c0.08-0.31,0.18-0.7,0.31-1.17v-0.01
			c0.05-0.18,0.11-0.36,0.16-0.56c0.07-0.24,0.15-0.5,0.23-0.78c0.08-0.29,0.18-0.61,0.28-0.94c0.12-0.39,0.25-0.8,0.38-1.23
			c0.11-0.33,0.23-0.68,0.35-1.05c0.03-0.1,0.06-0.2,0.1-0.31c0.05-0.14,0.09-0.28,0.14-0.42c2.95-8.65,9.03-22.63,18.83-28
			c2.63-1.44,5.37-2.16,8.2-2.16c1.73,0,3.49,0.27,5.27,0.8l-7.39,9.28l-3.07-2.66c-0.13-0.11-0.31-0.13-0.45-0.04
			c-0.13,0.09-0.2,0.25-0.16,0.41l1.32,5.26l-2.57,3.22l-3.71-4.51c-0.11-0.13-0.3-0.18-0.45-0.1c-0.15,0.07-0.24,0.23-0.21,0.4
			l0.92,5.14l-4.71,2.92l-3.1-3.2c-0.09-0.09-0.21-0.13-0.33-0.11c-0.12,0.02-0.22,0.09-0.28,0.19c-0.21,0.42-3.89,7.38-6.35,13.38
			c-0.1,0.24-0.2,0.47-0.29,0.71c-0.33,0.81-0.62,1.6-0.88,2.35v0.01c-0.15,0.42-0.29,0.82-0.4,1.21c-0.13,0.41-0.24,0.8-0.33,1.17
			c-0.07,0.29-0.13,0.56-0.18,0.82c-0.01,0.06-0.02,0.11-0.03,0.16l-0.32,0.64c0.09,0,0.18,0,0.26-0.01
			c0.21-0.01,0.42-0.03,0.62-0.06l0.14-0.28c0.02-0.04,0.03-0.07,0.03-0.11c0.03-0.17,0.06-0.34,0.1-0.52v-0.01
			c0.12-0.54,0.28-1.15,0.49-1.8c0.33-1.04,0.76-2.21,1.25-3.43c0.1-0.23,0.19-0.47,0.3-0.71c2.13-5.16,5.15-11.04,6.02-12.71
			l2.95,3.05c0.12,0.13,0.31,0.15,0.46,0.06l5.19-3.21c0.13-0.08,0.2-0.24,0.17-0.39l-0.71-3.98l3.1,3.76
			c0.07,0.09,0.18,0.14,0.29,0.14c0.12,0,0.22-0.05,0.29-0.14l2.97-3.72c0.07-0.1,0.1-0.22,0.07-0.33l-1.08-4.29l2.48,2.14
			c0.08,0.07,0.17,0.1,0.28,0.09c0.1-0.01,0.19-0.06,0.26-0.14l7.97-10.01C227.51,145.94,227.53,145.81,227.5,145.69z"/>
	</g>
	<g>
		<path d="M190.6,154.22c-0.11-0.01-0.22,0.03-0.31,0.11c-0.08,0.08-0.12,0.19-0.1,0.3c0,0.02,0,0.07,0.01,0.13
			c0.01,0.04,0.01,0.09,0.02,0.14c0,0.07,0.01,0.15,0.02,0.25c0.01,0.11,0.02,0.23,0.04,0.37c0.01,0.13,0.03,0.27,0.05,0.43
			c0.01,0.11,0.02,0.23,0.04,0.35c0.08-0.69,0.19-1.39,0.31-2.07L190.6,154.22z M207.58,133.42c-0.08-0.09-0.21-0.13-0.33-0.11
			c-2,0.33-3.84,0.92-5.52,1.76c-0.51,0.25-1,0.52-1.47,0.82c-0.45,0.28-0.89,0.58-1.32,0.9c-0.2,0.15-0.4,0.31-0.59,0.47
			c-1.34,1.1-2.53,2.41-3.58,3.92c-3.89,5.61-5.31,13.31-5.59,20.57c0,0.01,0,0.01,0,0.02c-0.04,1-0.06,2-0.06,2.97
			c0,0.48,0,0.96,0.01,1.43v0.01c0.06,3.37,0.32,6.51,0.63,9.16c0.02,0.25,0.05,0.5,0.09,0.74c0.34,2.91,0.75,5.13,0.96,6.24
			c0.03,0.14,0.06,0.26,0.11,0.37c0.24,0.01,0.47,0.02,0.71,0.01c0.09,0.01,0.17,0.01,0.26,0.01h0.22c-0.38-0.05-0.5-0.18-0.57-0.54
			c-0.02-0.1-0.04-0.22-0.06-0.34c-0.23-1.17-0.58-3.2-0.9-5.79c-0.03-0.24-0.06-0.49-0.09-0.75c-0.15-1.28-0.28-2.69-0.39-4.19
			v-0.01c-0.12-1.58-0.2-3.24-0.23-4.97c-0.05-3.15,0.07-6.49,0.5-9.78v-0.03c0.08-0.69,0.19-1.39,0.31-2.07
			c0.79-4.63,2.24-9.07,4.71-12.64c1.03-1.48,2.2-2.76,3.52-3.83c0.19-0.16,0.4-0.32,0.6-0.46h0.01c2.11-1.57,4.54-2.62,7.3-3.16
			l-2.63,11.74l-2.46-0.6l-1.44-0.35c-0.16-0.04-0.32,0.03-0.41,0.17c-0.04,0.08-0.06,0.16-0.04,0.24c0,0.07,0.02,0.14,0.07,0.2
			l3.44,4.09l-0.92,4.09l-3.8-1.67l-0.7-0.3l-0.76-0.34c-0.15-0.06-0.34-0.02-0.44,0.11c-0.11,0.13-0.11,0.32-0.01,0.46l0.82,1.14
			l0.57,0.78l1.63,2.25l-2.97,4.82l-4.14-1.42c-0.12-0.04-0.24-0.02-0.34,0.04c-0.1,0.07-0.16,0.18-0.16,0.3
			c-0.01,0.19-0.07,1.7-0.11,3.87c0,0.01,0,0.01,0,0.02c-0.02,1.44-0.04,3.16-0.02,4.99c0,0.01,0,0.01,0,0.02
			c0.01,2.12,0.07,4.38,0.2,6.46c0.02,0.25,0.03,0.5,0.05,0.75c0.03,0.4,0.06,0.79,0.1,1.18v0.01c0.03,0.38,0.07,0.75,0.11,1.11
			c0.08,0.64,0.16,1.23,0.26,1.78c0.1,0.55,0.21,1.04,0.33,1.47v0.34l-0.01,0.78c0.17,0,0.33-0.01,0.49-0.03
			c0.09,0,0.18,0,0.26-0.01v-0.51l0.01-0.26v-0.36c0-0.03,0-0.07-0.01-0.1c-0.03-0.1-0.06-0.2-0.08-0.3
			c-0.2-0.75-0.35-1.69-0.48-2.74c-0.07-0.6-0.13-1.23-0.19-1.9c-0.01-0.15-0.02-0.29-0.03-0.44c-0.02-0.25-0.03-0.5-0.05-0.75
			c-0.03-0.47-0.06-0.96-0.08-1.45c0-0.01,0-0.01,0-0.02c-0.07-1.65-0.11-3.37-0.12-5.01v-0.01c-0.03-3.77,0.06-7.12,0.1-8.36
			l3.95,1.35c0.16,0.06,0.35-0.01,0.44-0.15l3.26-5.29c0.08-0.13,0.08-0.3-0.01-0.42l-2.13-2.94l-0.23-0.32l0.28,0.13l4.13,1.81
			c0.1,0.04,0.22,0.04,0.32-0.01c0.1-0.05,0.17-0.15,0.19-0.25l1.06-4.72c0.03-0.11,0-0.23-0.08-0.32l-2.82-3.36l3.16,0.77
			c0.1,0.03,0.2,0.01,0.29-0.04c0.08-0.06,0.14-0.14,0.16-0.24l2.85-12.67C207.7,133.63,207.67,133.5,207.58,133.42z"/>
		<path style="fill:#85C053;" d="M199.88,145.1c-0.04,0.08-0.06,0.16-0.04,0.24c0,0.07,0.02,0.14,0.07,0.2l3.44,4.09l-0.92,4.09
			l-3.8-1.67l-0.7-0.3l-0.76-0.34c-0.15-0.06-0.34-0.02-0.44,0.11c-0.11,0.13-0.11,0.32-0.01,0.46l0.82,1.14l0.57,0.78l1.63,2.25
			l-2.97,4.82l-4.14-1.42c-0.12-0.04-0.24-0.02-0.34,0.04c-0.1,0.07-0.16,0.18-0.16,0.3c-0.01,0.19-0.07,1.7-0.11,3.87
			c0,0.01,0,0.01,0,0.02c-0.02,1.44-0.04,3.16-0.02,4.99c0,0.01,0,0.01,0,0.02c0.01,2.12,0.07,4.38,0.2,6.46
			c0.02,0.25,0.03,0.5,0.05,0.75c0.03,0.4,0.06,0.79,0.1,1.18v0.01c0.03,0.38,0.07,0.75,0.11,1.11c0.08,0.64,0.16,1.23,0.26,1.78
			c0.1,0.55,0.21,1.04,0.33,1.47v0.34l-0.01,0.78c-0.12,0.01-0.23,0.01-0.35,0.01c-0.19,0.01-0.39,0.02-0.58,0.02
			c-0.38-0.05-0.5-0.18-0.57-0.54c-0.02-0.1-0.04-0.22-0.06-0.34c-0.23-1.17-0.58-3.2-0.9-5.79c-0.03-0.24-0.06-0.49-0.09-0.75
			c-0.15-1.28-0.28-2.69-0.39-4.19v-0.01c-0.12-1.58-0.2-3.24-0.23-4.97c-0.05-3.15,0.07-6.49,0.5-9.78v-0.03
			c0.08-0.69,0.19-1.39,0.31-2.07c0.79-4.63,2.24-9.07,4.71-12.64c1.03-1.48,2.2-2.76,3.52-3.83c0.19-0.16,0.4-0.32,0.6-0.46h0.01
			c2.11-1.57,4.54-2.62,7.3-3.16l-2.63,11.74l-2.46-0.6l-1.44-0.35C200.13,144.89,199.97,144.96,199.88,145.1z"/>
	</g>
</g>
<polygon style="fill:#E0C49E;" points="32.94,57.32 32.94,57.33 25.54,57.33 "/>
<g>
	<polygon style="fill:#6B6B6B;" points="157.51,50.13 17.14,50.13 21.59,43.7 153.02,43.7 	"/>
	<path d="M159.67,50.75c-0.02-0.08-0.04-0.16-0.08-0.23c-0.01-0.02-0.01-0.05-0.02-0.07l-5.55-7.93c-0.14-0.2-0.37-0.32-0.61-0.32
		H21.2c-0.24,0-0.47,0.12-0.61,0.32l-5.5,7.94c0,0.01,0,0.02-0.01,0.02c-0.07,0.1-0.11,0.21-0.12,0.34c0,0.01,0,0.01,0,0.02
		c0,0.01-0.01,0.02-0.01,0.04v35.85c0,0.42,0.34,0.75,0.75,0.75h143.25c0.42,0,0.75-0.33,0.75-0.75V50.88c0-0.01,0-0.01,0-0.02
		C159.7,50.83,159.68,50.79,159.67,50.75z M21.59,43.7h131.43l4.49,6.43H17.14L21.59,43.7z M158.2,85.98H16.45V51.63H158.2V85.98z"
		/>
	<rect x="16.45" y="51.63" style="fill:#FFF2D4;" width="141.75" height="34.35"/>
	<path d="M155.28,53.83H19.37c-0.41,0-0.75,0.33-0.75,0.75v28.46c0,0.41,0.34,0.75,0.75,0.75h135.91c0.41,0,0.75-0.34,0.75-0.75
		V54.58C156.03,54.17,155.69,53.83,155.28,53.83z M154.53,82.29H20.12V55.33h134.41V82.29z"/>
</g>
<g>
	<g>
		<path style="fill:#513A0B;" d="M41.63,60.11h2.84v12.7h-2.84v-6.38h-1.2c-0.25,3.07-1.59,4.27-3.91,4.27
			c-2.57,0-3.93-1.48-3.93-5.3c0-3.81,1.36-5.3,3.93-5.3c2.58,0,3.96,1.48,3.96,5.3v0.04h1.15V60.11z M34.83,77.99v-5.96h3.52v4.96
			H48.7v1H34.83z M36.52,69.83c1.03,0,0.99-2.15,0.99-4.41c0-2.27,0.04-4.41-0.99-4.41c-1.01,0-0.97,2.15-0.97,4.41
			C35.55,67.68,35.51,69.83,36.52,69.83z M48.49,60.11v12.7h-2.88v-12.7H48.49z"/>
	</g>
	<g>
		<path style="fill:#513A0B;" d="M67.54,75.36v1H50.61v-1H67.54z M52.13,60.56c1.32,0.4,4.74,0.84,7.38,0.78
			c2.72-0.04,4-1.14,5.27-1.14c0.76,0,1.42,0.52,1.42,1.26c0,1.71-2.51,1.73-3.89,1.73c-2.47,0-5.38-0.44-6.7-0.9v3.79h10.4v1h-10.4
			v3.45h10.4v0.98H52.13V60.56z"/>
	</g>
	<g>
		<path style="fill:#513A0B;" d="M69.56,68.04h6.02v-5.66c-2.02,0.84-4.02,0.84-4.94,0.64c-0.54-0.12-1.26-0.5-1.26-1.44
			c0-0.76,0.6-1.28,1.36-1.28c1.2,0,1.96,0.74,3.48,0.9c1.13,0.12,2.66,0.06,4.82-0.44v8.29h-6.02v6.16h6.53v0.98h-9.99V68.04z
			 M81.38,60.09h3.36v17.7h-3.36V60.09z"/>
	</g>
	<g>
		<path style="fill:#513A0B;" d="M101.96,76.19h-9.33V75.2h1.42V63.63h2.86V75.2h1.11V63.83h2.86V75.2h1.07V76.19z M93.22,60.64
			c0.89,0.46,2.68,0.88,3.93,0.64c1.55-0.3,1.83-0.98,3.01-0.98c0.76,0,1.52,0.42,1.52,1.32c0,0.94-1.05,1.5-2.08,1.61
			c-2.78,0.24-5.65-0.74-6.78-1.91L93.22,60.64z M102.37,60.09h2.86v7.56h1.11v-7.56h2.9v17.7h-2.9v-9.15h-1.11v9.15h-2.86V60.09z"
			/>
	</g>
	<g>
		<path style="fill:#513A0B;" d="M122.21,69.46h-9.89v-1.2h9.89V69.46z"/>
	</g>
	<g>
		<path style="fill:#513A0B;" d="M141.59,70.37v1h-17.14v-1h3.67v-2.29h3.28v2.29h3.26v-2.29h3.28v2.29H141.59z M125.66,67.3
			c3.38-0.6,5.01-2.19,5.34-3.55c0.14-0.62,0.08-1.04-0.02-1.97c-0.12-1.2,0.74-1.99,1.85-1.99c1.38,0,2.08,1.14,1.98,2.51
			c-0.06,0.68-0.25,1.28-0.54,1.83l6.45,3.11l-0.54,0.9l-6.59-3.11c-1.75,1.93-5.07,2.87-7.81,3.05L125.66,67.3z M140.06,77.97
			h-13.99v-5.3h3.54v4.31h10.45V77.97z"/>
	</g>
</g>
</svg>
