<?xml version="1.0" encoding="utf-8"?>
<!-- Generator: Adobe Illustrator 26.5.0, SVG Export Plug-In . SVG Version: 6.00 Build 0)  -->
<svg version="1.1" id="레이어_1" xmlns="http://www.w3.org/2000/svg" xmlns:xlink="http://www.w3.org/1999/xlink" x="0px"
	 y="0px" viewBox="0 0 390 390" style="enable-background:new 0 0 390 390;" xml:space="preserve">
<style type="text/css">
	.st0{fill:#FF001E;}
	.st1{fill:#FFD753;}
	.st2{fill:#4D4D4D;}
	.st3{fill:#FFFFFF;}
	.st4{fill:#6F6DFF;}
	.st5{fill:#6E5802;}
	.st6{fill:#00C100;}
	.st7{fill:#DFDFDF;}
	.st8{fill:#D441FF;}
	.st9{fill:#FFCC2F;}
	.st10{fill:#EA2228;}
	.st11{fill:#231814;}
	.st12{fill:#A5904B;}
</style>
<path class="st0" d="M173.2,287.7l-17.6,8.2l-6.4-0.2l-1.7-1.4c0,0-0.7-13.3,7.8-19.8c0,0,11.4-9,32.6-4.5c0,0,14.6,2.2,18.7,7.9
	c0,0,2,5.1-2.3,8.3c0,0-6.2,5.3-9.5,6.1c0,0-8.7-4.9-15-5.2C179.8,287.1,175.7,286.6,173.2,287.7z"/>
<path class="st1" d="M173.1,287.7c-0.8-0.9-2.2-1-3.4-0.9c-1.2,0.1-2.4,0.4-3.6,0.2c-0.7-0.2-1.4-0.5-2.1-0.7
	c-2.4-0.7-5.1,0.4-6.3,2.6c-0.6,1.1-0.9,2.6-1.9,3.3c-1,0.7-3.5,0.9-4.6,0.6c-1.2-0.4-2.7-1.7-3.9-2c0,0-5.8,22.6,24.9,26.5
	c0,0,21.1,2.5,29.3,0l-4.7-12.1v-7.9l0.5-6.1c0,0-8.3,3.6-16.9,3.2c-8.6-0.3,0,0,0,0s-6.4,0.2-8-4c-1.7-4.2,0,0,0,0L173.1,287.7"/>
<g>
	<path class="st2" d="M214.9,293c-1,0.6-1.8,1.6-2.3,2.9c-1.9,4.8-4.8,11.7,2.1,13.7c6.6,1.9,15,0.9,21.9,1c2.4,0,4.9,0.1,7.3-0.3
		c4.3-0.6,8.3-2.5,12.3-4.3c2.7-1.2,5.4-2.5,7.5-4.5c2.1-2,3.6-5,3.1-7.9c-1.4-7.8,11-11.9,18.2-15.2c1.7-0.8,3.7-2.4,2.9-4.1
		c-0.4-0.8-1.2-1.2-2-1.5c-9.7-3.5-21.6,0.7-27,9.5c-1.5,2.4-2.6,5.2-4.8,7c-2.9,2.4-7.1,2.6-10.9,2.6c-5.6,0.1-11.2,0-16.8,0
		C222.6,292,217.9,291.1,214.9,293z"/>
	<path d="M225.8,311.7c-3.9,0-7.8-0.2-11.2-1.2c-2.1-0.6-3.6-1.7-4.4-3.2c-1.6-3.2,0.1-7.5,1.4-11l0.2-0.6c0.6-1.5,1.4-2.6,2.6-3.3
		c2.5-1.6,5.9-1.4,9.1-1.2c1,0.1,1.9,0.1,2.8,0.1l2.8,0c4.6,0,9.3,0,13.9,0c4,0,7.7-0.3,10.3-2.5c1.5-1.2,2.4-3,3.4-4.8
		c0.4-0.7,0.8-1.4,1.2-2c5.6-9.1,17.9-13.5,28-9.8c1,0.3,2,0.8,2.5,1.9c0.3,0.7,0.3,1.4,0.1,2.1c-0.6,1.7-2.8,2.8-3.4,3.1
		c-0.9,0.4-1.9,0.9-3,1.3c-7,3.1-15.8,6.9-14.7,13c0.5,2.9-0.7,6.1-3.3,8.6c-2.2,2.1-5.2,3.5-7.7,4.7c-4,1.8-8.1,3.7-12.5,4.4
		c-2.6,0.4-5.3,0.3-7.4,0.3c-1.8,0-3.8,0-5.8,0.1C229.2,311.6,227.5,311.7,225.8,311.7z M220.4,292.6c-1.9,0-3.7,0.2-5,1.1l0,0
		c-0.9,0.6-1.5,1.4-2,2.5l-0.2,0.6c-1.2,3.2-2.8,7.1-1.5,9.6c0.6,1.1,1.6,1.9,3.3,2.4c4.7,1.3,10.3,1.2,15.7,1.1
		c2.1,0,4-0.1,5.9-0.1c2.7,0,4.9,0.1,7.1-0.3c4.2-0.6,8.2-2.5,12.1-4.3c2.6-1.2,5.2-2.4,7.3-4.4c1.7-1.6,3.3-4.3,2.8-7.1
		c-1.3-7.4,8.5-11.7,15.7-14.9c1-0.5,2-0.9,2.9-1.3c1.3-0.6,2.3-1.4,2.5-2.2c0.1-0.3,0.1-0.5,0-0.8c-0.2-0.5-0.9-0.8-1.6-1
		c-9.4-3.3-20.8,0.7-26,9.1c-0.4,0.6-0.8,1.3-1.1,2c-1,1.9-2.1,3.8-3.8,5.3c-3,2.5-7.1,2.8-11.4,2.8c-4.7,0.1-9.4,0-14,0l-2.8,0
		c-0.9,0-1.9-0.1-2.9-0.1C222.5,292.7,221.4,292.6,220.4,292.6z"/>
</g>
<path class="st3" d="M203.7,316.6c-1.8,0.2-7.6,1-8.3,0.1c-0.9-1.1-2.1-3.6-1.5-5c-1.4,0-3,0-4.2-0.7c-2.4-1.5-0.8-5.5-0.4-8.3
	c-1.8,0.1-4.8-2.1-4.9-4c-0.1-1.3,1.2-3,2.4-3.5c4.1-2.1,6.2,0,10.4-4c0,0,8.8-4.2,9.8-10.3c0,0-2.7-10.9-6.8-15.1l-7.1-7.2
	l-0.2-2.9l7.3-2.8l6.8-1.1l7.1-0.8c0,0,4.4,3.7,5.6,4.5c0,0,7.2,3.6,8.8,10.9c0,0,3.7,11.6,1.2,21.8c0,0-1.3,12-7.5,18
	C222.2,306.2,213.1,315.6,203.7,316.6z"/>
<path class="st4" d="M216.4,252.6c-0.2,2,0.4,2.6,0.3,4.6c-0.1,1.2-0.7,2.7-1.9,2.7c-1,0-2.1-1.2-2.9-0.5c0.9,1.2-0.3,3.2-1.8,2.9
	c-0.7-0.1-1.2-0.7-1.7-1.2c-1.9-1.9-3.8-3.9-5.6-5.8c0.5,1.4,0.4,3-0.4,4.2c-0.8,1.2-2.3,2-3.7,1.7c-0.8-0.2-1.5-0.6-2.2-1.1
	c-2.9-2.1-5.6-4.6-7.9-7.3c0,0-10-19.8-11-28.8c0,0-2.3-16.9,1.9-23.5c0,0,5.7,4.6,13.8,4l6.5,13.4c0,0,5.4,19.7,10.4,26.6
	L216.4,252.6z"/>
<path class="st1" d="M199.8,217.9l-6.9-13.7c0,0,6.2-1.6,8.7-5.7l14.8,1l6,6.3c0,0,4.1,5.5,22.5,4.2c0,0,11.7-0.4,24.2-12.8
	l19.3-16.4c0,0,12.5-8.6,18.7-9.9c0,0,4.4-1.4,10.2-1.4c0,0,3.6-1.6,6.4-5.8c0,0,7.9-4.7,16.4-4.5c0,0,10.7,1.8,16.7,6.9
	c0,0,6,5,11.8,5.8c0,0,9.7-0.7,13.7,1.9c0,0,2.5,2.1,2.7,8.1c0,0,0,2.2-2.3,3.3c0,0,0.2,2.9-2,4.8c0,0-10.9,1.7-19.8,0.1
	c0,0-12.6-2.4-20.7,0.2c0,0-12.5,2.5-18.4,1.2c0,0-5.8-2.3-8.3-1c0,0-13.4,3.9-20.8,11.3c0,0-11.7,9.8-15.4,15c0,0-9.6,11.2-16,14.7
	c0,0-9,5.2-21.1,3.9c0,0-16.7-3.2-23.4-6.2L201,218.5L199.8,217.9z"/>
<path class="st2" d="M202.3,196.8c-0.4,1.7-1.6,3.1-2.9,4.2c-2.8,2.4-5.3,4-9,3.6s-10.9-2.5-12.5-5.8c0,0,0.9-14.4-1.5-34.8
	c0,0-2-13.2-2.4-19.6c0,0-2.6-21.8,1.2-30.2c0,0,0-8.5,7.2-10.5c0,0,13.6-1,11.9,13.9c0,0-3.5,17.1-1,25.2c0,0,5.2,24,5.3,31.3
	L202.3,196.8z"/>
<path class="st0" d="M177.1,179.7c4.7,6.1,4.9,9.7,3.7,17.5c-0.3,1.7-1,3.5-2.4,4.6c-0.7,0.6-1.5,1-2.4,1.3c-4.4,1.6-4.6,0.5-9,0.2
	l-11.2-10.7c0,0-9-7.4-14-9.1c0,0-9.8-7-13.1-11.7c0,0-7.5-9.9-9-18.3l-3.7-11.7c0,0-6.1-11.8-5.8-15c0,0,0.4-9.9,12.6-8.6
	c0,0,7.2,0.9,9.5,11.1c0,0,6,22.2,13.3,28.7c0,0,16,13.1,23.3,14.7C168.9,172.7,175.2,177.2,177.1,179.7z"/>
<path class="st3" d="M176.2,227c0,0,5.4-12.2,6.1-21.6l0.6-2.6l-3.5-2.2c0,0-3.2,4.3-12.4,2.6c0,0-3.3,6.4-27.1,4.9
	c0,0-14.1-0.2-24.4-7.5c0,0-12.8-10.2-21.1-12.6c0,0-11.1-4.3-17.8-6.7c0,0-5.7-3.1-7.2-6.1c0,0-4.2-5.9-11.8-6.5
	c0,0-8.6-3.8-15.8,0.3c0,0-8.8,4.4-11.9,5.7c0,0-5,3.4-11.5,1.5c0,0-10.3-2.3-11.6,4.1l-1.9,5.3c0,0,0.4,2.1,2.6,2.2
	c0,0-1.4,4.8,2.6,6.3c0,0,9.5,2.3,13.6,1.6c0,0,13.9,0.4,17.9,0.8c0,0,17.3,5.5,25.2,5c0,0,3.7-0.2,9.1,2.9l18.2,10.8
	c0,0,18.5,12.2,19.5,12.7c0,0,8.5,4.1,16.1,3.4c0,0,28.2,1.1,34.1-1L176.2,227z"/>
<path class="st4" d="M219.5,198.9c-4.9,0.7-9.5,0.9-14.4,0.9c-0.5,0-0.9,0-1.4-0.1c-1.2-0.3-2.1-1.1-2.8-2c-2.2-2.7-2.9-6-2.4-9.4
	c0.2-1.7,1-3.2,1.3-4.9l-0.3-1.6c0,0,20.6-12.5,25-19.5c0,0,9.7-11.6,10.7-18.8c0,0,1-14.3,4.8-20.7c0,0,5.7-13.9,13.5-13.4
	c0,0,10.8,4,4.8,22.2c0,0-3.8,18.2-5,22.5c0,0-6.4,20.6-16.9,30.1L219.5,198.9z"/>
<path d="M187,319.3c-4.7,0-9.8-0.3-14.7-1.1c-14.8-2.4-23.6-8.5-25.3-17.6c-1.5-7.8-0.4-15.4,3-21.5c7.1-12.3,23.9-12.3,36.8-10.1
	c5.4,0.9,13.3,2.3,18.2,6.7c-1.4-3.4-4.9-10.1-8.1-12.5c-11.6-9-17.6-29.5-19.4-36.6c-0.2,0.2-0.4,0.4-0.6,0.5
	c-8.5,6.8-51.7,5.4-57.3,3.9c-6.3-1.7-10.9-5-15.8-8.5c-1.7-1.2-3.4-2.4-5.2-3.6c-6.6-4.3-13.4-8.3-19.8-12c-5.5-3.2-6.8-3.7-7-3.7
	c0,0-0.1,0-0.1,0l-3.6-1c-0.4,0-0.7,0.1-1.2,0.1c-5.7,0.2-11.3-1.4-16.8-2.9c-4.8-1.3-9.8-2.7-14.8-2.9c-0.8,0-1.6,0-2.4-0.1
	c-3.1-0.1-5.9-0.2-9,0c-3,0.2-5.9-0.3-8.7-0.8c-0.4-0.1-0.8-0.1-1.3-0.2c-0.4-0.1-0.8-0.1-1.2-0.2c-1.6-0.2-3.4-0.4-4.8-1.6
	c-1.4-1.2-1.4-2.6-1.5-4.2c0-0.5-0.1-0.9-0.1-1.4c0,0,0,0,0,0c-1.4-0.6-2.1-1.5-2.1-2.7c0-0.5,0.2-0.9,0.3-1.2
	c0.5-1.2,0.9-2.5,1.4-3.7l0.2-0.6c0.1-0.3,0.2-0.6,0.3-0.8c0.4-1.1,0.7-2.2,2.1-3c1.6-0.9,3.1-1,4.5-1c2.8-0.1,4.9,0.2,6.7,0.4
	c3.4,0.4,5.6,0.7,9.9-1.5c0.6-0.3,1.3-0.7,2-1c6.6-3.5,15.5-8.2,22.7-6c0.8,0.2,1.7,0.5,2.6,0.7c4.8,1.3,10.2,2.8,13.3,7.1
	c1,1.3,1.6,2.1,2.3,2.8c1.2,1.2,2.5,2.1,4.6,3c2.5,1.1,5.2,2,7.7,2.9c1,0.3,2,0.7,3,1c6.2,2.2,12.3,5,18,8.2
	c2.5,1.4,4.7,3.1,6.9,4.7c2.6,1.9,5,3.8,7.8,5.2c7.1,3.6,15.6,5.1,26,4.7c0.9,0,1.9-0.1,3-0.1c5.7-0.1,13.3-0.2,16.6-3.9
	c-0.3-0.3-0.7-0.5-1.1-0.8c-0.3-0.2-0.5-0.4-0.8-0.6c-2.3-1.8-4.3-3.9-6.3-6c-1.7-1.8-3.4-3.6-5.3-5.2c-1.9-1.6-4-2.6-6.3-3.8
	c-1.6-0.8-3.3-1.7-4.9-2.7c-6.9-4.5-16-12.4-20.5-24.2c-0.9-2.5-1.6-5-2.3-7.5c-0.5-1.8-1-3.6-1.5-5.3c-2.1-6.5-4.5-11.2-7-13.9
	c-0.5-0.5-1-1-1.5-1.5c-2.1-2-4.2-4-3.1-8.2c0.9-3.3,3.8-6.1,7.5-7.1c3.9-1.1,7.7-0.1,10.2,0.9c7.3,2.9,10.1,11.4,12.6,18.9
	c0.6,1.8,1.1,3.4,1.7,4.9c1.3,3.5,2.7,7.1,4.6,10.3c3.4,5.7,8.7,10.5,16.6,15.1c1.7,1,3.6,1.9,5.4,2.8c4.2,2,8.5,4,11.5,7.8l0,0
	c0,0,0.5,0.6,1.2,1.5c-0.5-4.7-1.2-9.4-1.9-14.1c-2.6-18.3-5.3-37.1,0.1-55.2c0.7-2.4,1.8-5.2,3.9-7.1c3-2.7,8.1-3.1,11.7-0.8
	c3.4,2.1,5.5,6.3,5.4,10.6c-0.1,2.2-0.7,4.3-1.2,6.3c-0.2,0.7-0.4,1.3-0.5,2c-2.3,8.8-0.3,18.9,1.6,28.7c0.6,3,1.2,5.9,1.6,8.8
	c0.3,1.9,0.7,3.9,1.1,6.1c1.1,5.3,2.3,11.3,1.8,16.5c8.7-4.6,17.6-11.8,24.6-20c4.4-5.1,7.4-10.3,8.7-15.4c0.6-2.4,1-4.8,1.3-7.2
	c0.4-2.7,0.8-5.5,1.6-8.2c1.2-4,2.7-7.9,4.6-11.6c0.5-0.9,0.9-2,1.4-3.2c1-2.6,2.1-5.3,3.9-7c3-2.9,5.9-4.7,8.8-5.7
	c3.8-1.2,7.6-0.9,10.6,0.8c2.5,1.5,3.9,3.3,4.4,5.4c0.9,4.3-2.2,8.9-5,12.9c-0.7,1-1.4,2-1.9,2.9c-2.8,4.5-4.6,9.1-6,15
	c-0.4,1.7-0.8,3.4-1.1,5.1c-0.9,4-1.8,8.1-2.9,12.1c-2.8,9.7-7.9,19-14.8,26.7c-1,1.1-5.9,5.8-10.7,10c-5.1,4.4-8,6.3-9.6,7.1
	c0.8,0.8,1.6,1.7,2.3,2.6c1.7,1.9,3.2,3.8,5.5,4.8c4.1,1.8,9.5,1.8,14.2,1.8c0.9,0,1.8,0,2.7,0c2.3,0,4.7,0,6.9-0.5
	c3-0.7,5.8-2.5,8.5-4.5c5.8-4,11.2-8.6,16.4-13c1.6-1.3,3.2-2.7,4.8-4c1.2-1,2.4-2.1,3.5-3.1c2.2-2,4.4-4.1,7.2-5.8
	c3.6-2.3,7.4-4.1,11.8-6.3c3.3-1.6,6.5-3,10.2-3.3c0.8-0.1,1.5,0,2.3,0c1.6,0,3,0.1,4.3-0.9c0,0,0,0,0,0l0.4-0.3
	c3.1-6.6,9.5-7.6,16.4-8.7c0.8-0.1,1.7-0.3,2.5-0.4c7.4-1.3,15.7,4.5,21.8,8.7c0.6,0.4,1.3,0.9,1.9,1.3c4,2.7,6.3,2.7,9.6,2.7
	c1.8,0,3.9,0,6.7,0.4c1.4,0.2,2.9,0.5,4.4,1.6c1.3,0.9,1.5,2.1,1.8,3.2c0.1,0.3,0.1,0.6,0.2,0.9l0.2,0.8c0.3,1.2,0.6,2.5,0.9,3.7
	c0.1,0.3,0.2,0.8,0.1,1.2c-0.1,1.1-1,2-2.4,2.4c0,0,0,0,0,0c-0.1,0.5-0.2,0.9-0.3,1.4c-0.3,1.5-0.5,2.9-2,3.9c-1.5,1-3.3,1-4.9,1
	c-0.4,0-0.8,0-1.2,0c-0.4,0-0.9,0-1.3,0.1c-2.8,0.1-5.8,0.3-8.7-0.3c-3-0.6-5.9-0.8-8.9-1.1c-0.8-0.1-1.6-0.1-2.4-0.2
	c-5-0.5-10.1,0.3-15,1.1c-5.6,0.9-11.3,1.8-17,0.9c-1.1-0.2-2.4-0.5-3.4-1.3l-0.1,0c-9.3-1.1-23.1,9.9-27.6,13.5
	c-4.7,3.8-8.7,8.3-12.5,12.7c-8.5,9.7-16.4,18.8-31.8,19.3c-8.5,0.3-16.4-2.2-24.1-4.6c-1-0.3-2.1-0.7-3.1-1
	c-4.2-1.3-7.7-3.9-11-6.4c-2.2-1.7-4.5-3.4-7-4.8c1.7,6.4,8.2,28.6,20.4,36.2c4.7,2.9,7.7,7.9,9.1,15c2.4,12.6-1.4,28-5.1,33
	c-5.7,7.7-13.9,12.7-23.8,14.6C198.6,318.7,193.2,319.3,187,319.3z M174.5,269.6c-9.3,0-18.5,2.4-23.1,10.4
	c-3.3,5.7-4.3,12.9-2.8,20.3c3.7,19,40.5,18.6,52.8,16.3c9.5-1.8,17.4-6.6,22.8-13.9c3.4-4.6,7.1-19.6,4.8-31.6
	c-1.3-6.6-4.1-11.3-8.3-13.9c-6.3-3.9-11.8-11.6-16.5-23.1c-3.4-8.4-5.1-15.9-5.1-15.9c-0.1-0.3,0-0.6,0.3-0.8
	c0.2-0.2,0.6-0.2,0.9-0.1c3.4,1.5,6.2,3.6,9,5.7c3.4,2.6,6.5,5,10.5,6.2c1.1,0.3,2.1,0.6,3.2,1c7.6,2.4,15.4,4.8,23.6,4.6
	c14.6-0.4,22.3-9.3,30.5-18.7c3.9-4.4,7.8-9,12.7-12.9c18.8-15.1,26.4-14.2,28.9-13.9l0.4,0c0.2,0,0.4,0.1,0.5,0.2
	c0.7,0.7,1.8,0.9,2.8,1c5.4,0.8,11-0.1,16.5-0.9c5-0.8,10.3-1.6,15.5-1.1c0.8,0.1,1.6,0.1,2.4,0.2c3.1,0.3,6,0.5,9.1,1.1
	c2.7,0.5,5.4,0.4,8.3,0.2c0.4,0,0.9,0,1.3-0.1c0.4,0,0.8,0,1.2,0c1.5,0,2.9,0,4-0.7c0.8-0.6,1-1.4,1.3-2.8c0.1-0.3,0.1-0.7,0.2-1.1
	c-0.3-0.2-0.4-0.6-0.3-0.9c0.1-0.3,0.4-0.6,0.7-0.6c1-0.1,2-0.5,2.1-1.2c0-0.2,0-0.4-0.1-0.7c-0.3-1.2-0.6-2.5-0.9-3.7l-0.2-0.8
	c-0.1-0.3-0.1-0.6-0.2-0.9c-0.2-1-0.3-1.6-1.1-2.2c-1-0.7-2.1-1-3.7-1.3c-2.6-0.4-4.6-0.4-6.4-0.4c-3.4,0-6.1,0-10.6-3
	c-0.6-0.4-1.2-0.8-1.9-1.3c-5.9-4-13.9-9.6-20.6-8.4c-0.8,0.1-1.7,0.3-2.5,0.4c-6.7,1.1-12.5,2-15.2,8c-0.1,0.2-0.2,0.3-0.3,0.4
	l-0.6,0.4c-1.8,1.3-3.6,1.2-5.3,1.2c-0.7,0-1.4,0-2.1,0c-3.4,0.3-6.5,1.7-9.6,3.2c-4.4,2.1-8.1,3.9-11.7,6.2
	c-2.6,1.6-4.7,3.5-6.9,5.6c-1.1,1-2.3,2.1-3.6,3.2c-1.6,1.3-3.2,2.7-4.8,4c-5.2,4.4-10.7,9-16.5,13.1c-2.9,2-5.8,3.9-9.1,4.7
	c-2.4,0.6-4.9,0.6-7.4,0.6c-0.9,0-1.7,0-2.6,0c-4.9,0-10.5,0-14.9-1.9c-2.6-1.2-4.4-3.2-6.1-5.2c-1.1-1.2-2.2-2.5-3.5-3.6l0,0
	c-0.4-0.3-0.4-0.8-0.1-1.2c0.3-0.3,0.7-0.4,1.1-0.2c0,0,0,0,0,0c2.6,0,18-14,20.5-16.9c6.7-7.5,11.7-16.5,14.4-26
	c1.1-3.9,2-8,2.9-12c0.4-1.7,0.8-3.4,1.2-5.1c1.4-6.1,3.3-10.9,6.2-15.5c0.6-0.9,1.2-1.9,2-3c2.6-3.8,5.5-8,4.7-11.6
	c-0.4-1.7-1.6-3.1-3.6-4.4c-2.5-1.5-5.9-1.7-9.2-0.7c-2.7,0.9-5.4,2.6-8.2,5.3c-1.5,1.4-2.5,4-3.5,6.4c-0.5,1.2-0.9,2.3-1.4,3.3
	c-1.9,3.6-3.4,7.5-4.5,11.3c-0.8,2.6-1.1,5.3-1.5,8c-0.3,2.4-0.7,5-1.3,7.4c-1.4,5.3-4.5,10.7-9.1,16c-7.6,8.8-17.3,16.5-26.6,21.2
	c-0.3,0.1-0.6,0.1-0.9-0.1c-0.3-0.2-0.4-0.5-0.3-0.8c0.9-5.3-0.4-11.8-1.5-17.6c-0.4-2.2-0.9-4.2-1.2-6.2c-0.4-2.8-1-5.7-1.6-8.7
	c-1.9-9.9-3.9-20.2-1.6-29.4c0.2-0.7,0.4-1.3,0.5-2c0.6-2,1.1-3.9,1.2-5.9c0.1-3.7-1.7-7.3-4.6-9.1c-3-1.9-7.2-1.6-9.7,0.6
	c-1.8,1.6-2.7,4.1-3.4,6.3c-5.3,17.7-2.6,36.4-0.1,54.5c0.8,5.6,1.6,11.3,2.2,16.9c0,0.4-0.2,0.7-0.5,0.9c-0.3,0.1-0.7,0-1-0.2
	c-1.8-2.2-3-3.7-3-3.7c-2.8-3.5-6.8-5.4-10.9-7.3c-1.9-0.9-3.8-1.8-5.6-2.9c-8.1-4.8-13.6-9.8-17.2-15.7c-2-3.3-3.4-7-4.8-10.5
	c-0.6-1.6-1.2-3.2-1.7-5c-2.3-7.1-5-15.2-11.6-17.8c-2.3-0.9-5.7-1.8-9.2-0.8c-3.1,0.9-5.6,3.2-6.3,5.9c-0.8,3.2,0.6,4.6,2.6,6.6
	c0.5,0.5,1,1,1.5,1.5c2.7,2.9,5.2,7.8,7.4,14.5c0.6,1.8,1.1,3.6,1.6,5.4c0.7,2.4,1.3,5,2.2,7.3c4.3,11.3,13.1,19,19.8,23.4
	c1.5,1,3.2,1.8,4.7,2.6c2.2,1.1,4.5,2.3,6.6,4c2,1.6,3.7,3.5,5.4,5.4c1.9,2,3.8,4.1,6.1,5.8c0.2,0.2,0.5,0.4,0.7,0.5
	c0.6,0.4,1.3,0.9,1.8,1.6c0.3,0.3,0.3,0.7,0.1,1c-3.4,5-12.1,5.1-18.4,5.2c-1.1,0-2.1,0-3,0.1c-10.7,0.5-19.5-1.1-26.8-4.8
	c-3-1.5-5.6-3.5-8.1-5.4c-2.1-1.6-4.3-3.3-6.7-4.6c-5.7-3.2-11.6-5.9-17.7-8.1c-1-0.3-2-0.7-3-1c-2.6-0.9-5.3-1.8-7.9-3
	c-2.3-1.1-3.8-2-5.1-3.4c-0.7-0.7-1.4-1.6-2.4-3c-2.8-3.8-7.7-5.1-12.4-6.4c-0.9-0.2-1.8-0.5-2.6-0.7c-6.5-1.9-15.1,2.6-21.4,5.9
	c-0.7,0.4-1.4,0.7-2,1c-4.8,2.5-7.5,2.1-10.9,1.7c-1.8-0.2-3.7-0.5-6.4-0.4c-1.5,0.1-2.7,0.2-3.8,0.8c-0.8,0.5-1,1.1-1.3,2
	c-0.1,0.3-0.2,0.6-0.3,0.9l-0.2,0.6c-0.5,1.2-0.9,2.5-1.4,3.7c-0.1,0.2-0.2,0.5-0.2,0.7c0,0.6,1,1.1,1.9,1.4
	c0.3,0.1,0.6,0.4,0.6,0.7c0,0.3-0.1,0.7-0.4,0.8c0,0.4,0.1,0.8,0.1,1.1c0.1,1.5,0.2,2.3,1,3c1,0.8,2.4,1,3.9,1.2
	c0.4,0.1,0.8,0.1,1.2,0.2c0.4,0.1,0.8,0.1,1.3,0.2c2.8,0.5,5.5,0.9,8.3,0.7c3.1-0.2,6-0.1,9.1,0c0.8,0,1.6,0,2.4,0.1
	c5.2,0.1,10.3,1.5,15.2,2.9c5.3,1.5,10.8,3,16.3,2.8c0.4,0,0.8,0,1.2-0.1c0.1,0,0.2,0,0.4,0l3.8,1.1l0,0c0.6,0.1,2.3,0.9,7.6,3.9
	c6.4,3.7,13.3,7.8,19.9,12.1c1.9,1.2,3.6,2.4,5.3,3.6c4.7,3.4,9.2,6.6,15.3,8.2c5.4,1.5,47.8,2.8,55.8-3.6c0.7-0.6,1.1-1.2,1.1-1.8
	c0-0.4,0.3-0.8,0.7-0.9c0.4-0.1,0.8,0.2,0.9,0.7c0.1,0.3,6,27.6,19.4,38c4.1,3.2,9.7,14.1,9.3,16.2c-0.1,0.4-0.4,0.7-0.7,0.8
	c-0.7,0.2-1.3-0.4-1.8-0.9c-4.3-4.9-12.7-6.3-18.2-7.2C182.7,270.1,178.6,269.6,174.5,269.6z M206.4,277.3L206.4,277.3L206.4,277.3z
	 M71.8,203.3C71.8,203.3,71.8,203.3,71.8,203.3C71.8,203.3,71.8,203.3,71.8,203.3z M71.8,203.3C71.8,203.3,71.8,203.3,71.8,203.3
	C71.8,203.3,71.8,203.3,71.8,203.3z M71.8,203.3C71.8,203.3,71.8,203.3,71.8,203.3C71.8,203.3,71.8,203.3,71.8,203.3z M71.8,203.3
	C71.8,203.3,71.8,203.3,71.8,203.3C71.8,203.3,71.8,203.3,71.8,203.3z M71.8,203.3C71.8,203.3,71.8,203.3,71.8,203.3
	C71.8,203.3,71.8,203.3,71.8,203.3z M71.6,203.3C71.6,203.3,71.6,203.3,71.6,203.3C71.6,203.3,71.6,203.3,71.6,203.3z M71.8,203.3
	C71.8,203.3,71.8,203.3,71.8,203.3C71.8,203.3,71.8,203.3,71.8,203.3z M71.8,203.3C71.8,203.3,71.8,203.3,71.8,203.3
	C71.8,203.3,71.8,203.3,71.8,203.3z M71.8,203.2C71.8,203.3,71.8,203.3,71.8,203.2C71.8,203.3,71.8,203.3,71.8,203.2z"/>
<g>
	<path class="st5" d="M46.2,170.1c0,0.2,0.1,0.3,0.2,0.5c0.1,0.1,0.3,0.2,0.5,0.2c1.3,0.2,2.8-0.1,3.5-1.2c1-1.7-0.6-4.2,0.5-5.9
		c1.1-1.8,4.3-1.6,4.9-3.6c0.3-1-0.4-2.2-1.4-2.4c-1.5-0.3-2.7,1.2-4.2,1.4c0.1-1.1,0.1-2.3-0.4-3.4c-0.4-1.1-1.3-2-2.5-2.2
		s-2.4,0.3-2.8,1.4c-0.4,1.2,0.2,2.5-0.2,3.7c-1-0.3-2-0.6-3-0.8c-0.2,0-0.3-0.1-0.5-0.1c-0.2,0-0.4,0.2-0.6,0.3
		c-2.6,2.6,1.8,3.9,3.3,4.9C45.6,164.3,45.6,167.9,46.2,170.1z"/>
	<path d="M47.8,171.7c-0.3,0-0.7,0-1-0.1c-0.2,0-0.6-0.1-1-0.5c-0.3-0.3-0.4-0.6-0.4-0.8c0,0,0,0,0,0c-0.2-0.6-0.3-1.3-0.4-2
		c-0.4-1.9-0.7-3.8-2-4.7c-0.3-0.2-0.6-0.4-1-0.6c-1.4-0.7-3.1-1.6-3.4-3.2c-0.1-0.8,0.2-1.7,1-2.5c0.3-0.3,0.7-0.5,1.1-0.6
		c0.3,0,0.6,0,0.8,0.1l2.1,0.6c0-0.2,0-0.5,0-0.7c-0.1-0.7-0.1-1.5,0.2-2.3c0.5-1.4,2.2-2.3,3.8-1.9c1.3,0.3,2.5,1.3,3.1,2.7
		c0.3,0.7,0.5,1.6,0.5,2.5c0.2-0.1,0.3-0.2,0.5-0.3c0.9-0.5,1.8-1,3-0.7c0.7,0.1,1.4,0.6,1.8,1.3c0.4,0.7,0.5,1.5,0.3,2.2
		c-0.4,1.4-1.8,2-2.9,2.5c-0.8,0.4-1.7,0.7-2,1.3c-0.4,0.6-0.2,1.5-0.1,2.4c0.1,1.1,0.3,2.4-0.3,3.5
		C50.5,171.2,49.1,171.7,47.8,171.7z M47,169.9C47.1,169.9,47.1,170,47,169.9c1,0.2,2.2,0,2.7-0.8c0.4-0.6,0.2-1.5,0.1-2.4
		c-0.1-1.1-0.3-2.4,0.3-3.5c0.6-1.1,1.8-1.6,2.8-2c1.1-0.5,1.8-0.8,2-1.4c0.1-0.2,0-0.5-0.1-0.8c-0.2-0.3-0.4-0.4-0.7-0.5
		c-0.5-0.1-1.1,0.2-1.8,0.6c-0.6,0.3-1.3,0.7-2.1,0.8c-0.3,0-0.5-0.1-0.7-0.2c-0.2-0.2-0.3-0.4-0.3-0.7c0.1-1.2,0-2.2-0.3-3
		c-0.4-0.9-1.1-1.6-1.9-1.7c-0.8-0.2-1.6,0.2-1.9,0.9c-0.2,0.4-0.1,0.9-0.1,1.5c0.1,0.7,0.1,1.4-0.2,2.2c-0.1,0.4-0.6,0.6-1,0.5
		l-3-0.8c0,0-0.1,0-0.1,0c0,0,0,0-0.1,0.1c-0.3,0.3-0.6,0.7-0.5,1c0.1,0.7,1.5,1.4,2.5,1.9c0.4,0.2,0.9,0.4,1.2,0.7
		c1.9,1.2,2.3,3.6,2.7,5.8C46.7,168.7,46.9,169.3,47,169.9L47,169.9C47,169.9,47,169.9,47,169.9z M47.1,170L47.1,170L47.1,170z
		 M47,169.9L47,169.9L47,169.9z"/>
</g>
<g>
	<path class="st5" d="M349.2,162.1c-0.1,0.2-0.1,0.3-0.3,0.4c-0.2,0.1-0.4,0.1-0.5,0.2c-1.3,0.1-2.8-0.4-3.3-1.6
		c-0.8-1.8,1.1-4.1,0.3-5.9c-0.8-1.9-4-2.2-4.3-4.2c-0.2-1,0.7-2.1,1.7-2.2c1.5-0.1,2.6,1.5,4,1.9c0-1.2,0.2-2.3,0.8-3.3
		c0.6-1,1.6-1.8,2.7-1.9c1.1-0.1,2.4,0.6,2.6,1.8c0.3,1.2-0.5,2.5-0.3,3.7c1-0.1,2.1-0.3,3.1-0.4c0.2,0,0.3,0,0.5,0
		c0.2,0.1,0.4,0.2,0.5,0.4c2.2,2.9-2.3,3.7-3.9,4.5C350.6,156.5,350.1,160,349.2,162.1z"/>
	<path d="M348.1,163.6c-1.5,0-3.2-0.6-3.8-2.1c-0.5-1.2-0.2-2.4,0.1-3.5c0.2-0.9,0.5-1.7,0.2-2.4c-0.3-0.6-1-1.1-1.8-1.6
		c-1.1-0.6-2.3-1.4-2.6-2.9c-0.1-0.7,0.1-1.5,0.6-2.1c0.5-0.6,1.2-1,1.9-1c1.2-0.1,2.1,0.6,2.8,1.1c0.2,0.1,0.3,0.2,0.5,0.3
		c0.1-0.9,0.4-1.8,0.8-2.5c0.8-1.3,2-2.2,3.4-2.3c1.6-0.1,3.2,0.9,3.5,2.4c0.2,0.8,0,1.6-0.1,2.3c-0.1,0.2-0.1,0.5-0.1,0.7l2.1-0.3
		c0.2,0,0.5-0.1,0.8,0c0.4,0.1,0.7,0.3,1,0.7c0.7,0.9,0.9,1.8,0.7,2.6c-0.4,1.5-2.3,2.2-3.8,2.7c-0.4,0.2-0.8,0.3-1.1,0.4
		c-1.4,0.7-2,2.5-2.6,4.4c-0.2,0.7-0.4,1.4-0.7,1.9c-0.1,0.2-0.2,0.5-0.5,0.8c-0.4,0.3-0.8,0.3-1,0.3
		C348.3,163.6,348.2,163.6,348.1,163.6z M342.9,149.6C342.8,149.6,342.8,149.6,342.9,149.6c-0.3,0-0.6,0.2-0.8,0.4
		c-0.2,0.2-0.3,0.5-0.2,0.8c0.1,0.7,0.7,1.1,1.8,1.7c0.9,0.6,2,1.2,2.5,2.3c0.5,1.2,0.2,2.4-0.1,3.5c-0.2,0.9-0.5,1.7-0.2,2.4
		c0.4,0.8,1.5,1.2,2.5,1.1c0,0,0.1,0,0.1,0c0,0,0-0.1,0-0.1c0,0,0,0,0,0c0.2-0.5,0.4-1.1,0.6-1.8c0.7-2.1,1.4-4.4,3.5-5.4
		c0.4-0.2,0.8-0.3,1.3-0.5c1-0.4,2.5-0.9,2.7-1.6c0.1-0.3-0.2-0.8-0.4-1.1c0,0-0.1-0.1-0.1-0.1c0,0-0.1,0-0.2,0l-3.1,0.4
		c-0.4,0.1-0.8-0.2-0.9-0.7c-0.2-0.8,0-1.5,0.1-2.2c0.1-0.6,0.2-1.1,0.1-1.5c-0.2-0.7-1-1.2-1.7-1.1c-0.8,0.1-1.6,0.6-2.1,1.5
		c-0.4,0.7-0.7,1.7-0.7,2.9c0,0.3-0.1,0.5-0.3,0.7c-0.2,0.2-0.5,0.2-0.7,0.1c-0.8-0.2-1.4-0.7-2-1.1
		C343.9,150,343.4,149.6,342.9,149.6z"/>
</g>
<path d="M378.2,185.8c-1.8,0-3.7-0.2-5.8-0.7c-5.6-1.3-11.3-1.7-17-1l-0.2-1.7c5.9-0.7,11.8-0.3,17.6,1.1c4.2,1,7.2,0.7,11.4,0.1
	l0.2,1.7C382.2,185.6,380.2,185.8,378.2,185.8z"/>
<g>
	<path class="st6" d="M354.5,176c0,0-3-2.4-4.2-4.4c-1.2-2.1-7.6-5.1-13.7-4.8c-6.1,0.4-6.9,0.2-6.9,0.2s3,3.4,4.8,5.2
		S345.3,177.6,354.5,176z"/>
	<path d="M349.6,177.3c-7.4,0-13.9-2.6-15.6-4.4c-1.8-1.9-4.8-5.2-4.8-5.3c-0.2-0.3-0.3-0.7-0.1-1c0.2-0.3,0.5-0.5,0.9-0.4l0,0
		c0,0,1,0.1,6.7-0.3c6.4-0.4,13.1,2.8,14.5,5.2c1.1,1.9,3.9,4.2,4,4.2c0.3,0.2,0.4,0.5,0.3,0.9c-0.1,0.3-0.3,0.6-0.7,0.6
		C353,177.1,351.3,177.3,349.6,177.3z M331.7,167.9c1,1.1,2.5,2.7,3.5,3.8c1.6,1.6,9.2,4.6,17.4,3.7c-1-0.9-2.2-2.2-2.9-3.4
		c-1-1.7-7.1-4.7-12.9-4.3C334.3,167.8,332.8,167.9,331.7,167.9z"/>
</g>
<g>
	<g>
		<path class="st5" d="M329.7,155.6c-1.2-0.7-1-3-0.4-4c0.7-1.2,2-4.2,3.7-4.1c0.9,0.1,1.6,1,1.7,2c0.1,0.9-0.3,1.8-0.8,2.7
			c-0.5,0.9-1.1,1.7-1.8,2.5C331.4,155.4,330.5,156,329.7,155.6z"/>
		<path d="M330.2,156.6c-0.3,0-0.7-0.1-1-0.2c0,0,0,0,0,0c-0.6-0.3-1-0.9-1.2-1.6c-0.4-1.2-0.1-2.8,0.4-3.6c0.1-0.2,0.2-0.4,0.3-0.6
			c0.9-1.6,2.1-4.1,4.2-3.9c1.3,0.1,2.3,1.3,2.4,2.7c0.1,1.2-0.4,2.4-0.9,3.1c-0.5,1-1.2,1.8-1.9,2.7
			C331.9,156.1,331,156.6,330.2,156.6z M330.1,154.8c0.3,0.2,0.9-0.2,1.4-0.7c0.6-0.7,1.2-1.5,1.7-2.3c0.3-0.6,0.7-1.4,0.7-2.2
			c0-0.5-0.4-1.1-0.9-1.2c-0.9-0.1-2,2-2.6,3c-0.1,0.2-0.2,0.5-0.3,0.6c-0.3,0.5-0.5,1.6-0.3,2.3
			C329.8,154.6,329.9,154.8,330.1,154.8L330.1,154.8z"/>
	</g>
	<g>
		<path class="st5" d="M336.4,160.9c-0.4-1.3-1.5-2.3-2.4-3.3c-2-2.4-3.5-5.3-4-8.5c-0.2-0.8-0.9-1.5-1.6-2
			c-0.7-0.5-1.5-0.7-2.4-0.8c-1-0.1-2.3,0.2-2.7,1.1c-0.2,0.5-0.2,1-0.2,1.6c0.3,2,1.3,3.9,2.8,5.3c-1.1,0.4-2.1-0.7-3.3-0.8
			c-1.4-0.1-2.7,1.4-2.4,2.8c0.3,1.4,1.8,2.4,3.2,2.3c0.6,0,1.2-0.2,1.9-0.1c2.2,0.2,2.9,3.2,4.9,4.4c0.7,0.4,1.6,0.6,2.5,0.6
			c0.8,0,1.6,0,2.3-0.3C335.7,162.9,336.6,161.7,336.4,160.9z"/>
		<path d="M333.2,164.4c-0.2,0-0.4,0-0.5,0c-0.8,0-1.9-0.2-2.9-0.7c-1-0.6-1.6-1.4-2.2-2.3c-0.7-1-1.4-1.8-2.3-1.9
			c-0.3,0-0.6,0-0.9,0.1c-0.3,0-0.5,0.1-0.8,0.1c-1.9,0.1-3.7-1.3-4.1-3c-0.2-1,0.1-2,0.8-2.8c0.7-0.7,1.6-1.1,2.5-1
			c0.3,0,0.6,0.1,0.9,0.2c-0.7-1.1-1.2-2.4-1.4-3.8c-0.1-0.6-0.1-1.3,0.2-2.1c0.5-1.1,1.9-1.7,3.5-1.6c1.2,0.1,2.1,0.4,2.8,1
			c0.8,0.6,1.7,1.4,1.9,2.5c0.6,3,1.9,5.8,3.9,8.1c0.2,0.2,0.3,0.4,0.5,0.6c0.8,0.9,1.6,1.8,2,3.1l0,0c0.4,1.3-1,2.8-1.8,3.3
			C334.7,164.3,333.9,164.4,333.2,164.4z M325.1,157.7c0.1,0,0.3,0,0.4,0c1.7,0.2,2.6,1.5,3.5,2.6c0.6,0.7,1.1,1.5,1.7,1.8
			c0.5,0.3,1.1,0.5,2.1,0.5c0.6,0,1.3,0,1.8-0.3c0.5-0.2,1-1,1-1.3c-0.3-0.9-1-1.7-1.7-2.5c-0.2-0.2-0.3-0.4-0.5-0.6
			c-2.1-2.5-3.6-5.6-4.2-8.8c-0.1-0.6-0.9-1.2-1.3-1.5c-0.5-0.4-1.1-0.6-1.9-0.6c-0.7,0-1.6,0.1-1.9,0.6c-0.1,0.3-0.1,0.8-0.1,1.1
			c0.2,1.8,1.2,3.6,2.5,4.8c0.2,0.2,0.3,0.5,0.3,0.8c-0.1,0.3-0.3,0.5-0.6,0.6c-1,0.3-1.8-0.1-2.6-0.4c-0.4-0.2-0.8-0.3-1.1-0.4
			c-0.4,0-0.7,0.1-1,0.5c-0.4,0.4-0.5,0.9-0.4,1.4c0.2,0.9,1.2,1.7,2.3,1.7c0,0,0.1,0,0.1,0c0.2,0,0.4,0,0.7-0.1
			C324.4,157.8,324.7,157.7,325.1,157.7z"/>
	</g>
</g>
<g>
	<path class="st7" d="M362.6,182.9c-0.4,1.7,0,3.5,0.5,5.1c0.5,1.9,1.2,3.7,2.3,5.3c0.8-3.4,2.2-6.7,4.2-9.5l-2.1-0.4
		c-0.3-0.1-0.6-0.1-0.9-0.1L362.6,182.9z"/>
	<path d="M365.4,194.2c-0.3,0-0.5-0.1-0.7-0.4c-1.2-1.7-1.9-3.8-2.4-5.5c-0.5-1.8-0.9-3.7-0.5-5.5c0.1-0.4,0.5-0.7,0.9-0.7l4.1,0.4
		c0.3,0,0.6,0.1,0.9,0.1l2.1,0.4c0.3,0.1,0.5,0.2,0.6,0.5c0.1,0.3,0.1,0.6-0.1,0.8c-1.9,2.8-3.3,5.9-4.1,9.2
		c-0.1,0.3-0.3,0.6-0.7,0.6C365.5,194.2,365.4,194.2,365.4,194.2z M363.3,183.8c-0.1,1.4,0.2,2.7,0.6,4c0.3,1.1,0.7,2.3,1.2,3.3
		c0.7-2.4,1.8-4.7,3.1-6.8l-0.8-0.2c-0.3,0-0.5-0.1-0.8-0.1L363.3,183.8z"/>
</g>
<path d="M37.2,191.1c-5.8-1.4-11.7-1.8-17.7-1.2c-4.8,0.5-8.2-0.3-12.5-1.4l0.5-1.6c4.3,1.1,7.4,1.8,11.8,1.3
	c6.1-0.6,12.3-0.2,18.3,1.2L37.2,191.1z"/>
<g>
	<path class="st8" d="M39.1,183.2c0,0,3.3-2,4.7-3.9c1.4-1.9,8.2-4.1,14.2-2.9c6,1.2,6.8,1.1,6.8,1.1s-3.4,2.9-5.4,4.6
		C57.3,183.7,48.1,186,39.1,183.2z"/>
	<path d="M48.1,185.3c-2.9,0-6.1-0.4-9.2-1.4c-0.3-0.1-0.5-0.4-0.6-0.7c0-0.3,0.1-0.7,0.4-0.8c0,0,3.1-1.9,4.5-3.7
		c1.7-2.2,8.7-4.5,15-3.3c5.6,1.1,6.6,1.1,6.6,1.1c0.4,0,0.7,0.2,0.8,0.6c0.1,0.3,0,0.7-0.2,0.9c0,0-3.4,3-5.5,4.6
		C58.3,184,53.6,185.3,48.1,185.3z M41.1,182.8c8,1.9,15.9,0,17.7-1.4c1.2-0.9,2.8-2.3,4-3.3c-1-0.2-2.6-0.4-4.9-0.9
		c-5.7-1.1-12.2,1.1-13.4,2.6C43.6,180.9,42.2,182.1,41.1,182.8z"/>
</g>
<g>
	<g>
		<path class="st5" d="M66.4,166.2c1.3-0.5,1.4-2.8,1-3.9c-0.5-1.3-1.4-4.5-3.2-4.5c-0.9,0-1.7,0.8-1.9,1.7
			c-0.2,0.9,0.1,1.9,0.4,2.7c0.4,1,0.9,1.9,1.5,2.7C64.7,165.7,65.5,166.5,66.4,166.2z"/>
		<path d="M66,167.1c-0.9,0-1.8-0.6-2.5-1.7c-0.6-0.9-1.1-1.9-1.5-2.9c-0.3-0.8-0.7-2-0.5-3.2c0.3-1.4,1.5-2.4,2.8-2.4
			c2.1,0.1,3,2.7,3.7,4.4c0.1,0.2,0.2,0.5,0.2,0.6c0.4,0.9,0.4,2.4-0.1,3.6c-0.3,0.7-0.8,1.2-1.4,1.4c0,0,0,0,0,0
			C66.5,167,66.2,167.1,66,167.1z M66.4,166.2L66.4,166.2L66.4,166.2z M64.2,158.6c-0.5,0-0.9,0.5-1.1,1.1c-0.1,0.6,0,1.3,0.4,2.2
			c0.4,0.9,0.8,1.8,1.4,2.5c0.4,0.5,0.9,1,1.3,0.9l0,0c0.2-0.1,0.3-0.2,0.4-0.5c0.3-0.7,0.3-1.7,0-2.3c-0.1-0.2-0.2-0.4-0.3-0.7
			C65.9,160.9,65.1,158.6,64.2,158.6C64.2,158.6,64.2,158.6,64.2,158.6z"/>
	</g>
	<g>
		<path class="st5" d="M59,170.6c0.6-1.2,1.8-2.1,2.8-3c2.3-2.1,4.1-4.9,5.1-7.9c0.3-0.8,1.1-1.3,1.9-1.8c0.7-0.4,1.6-0.5,2.5-0.5
			c1,0.1,2.2,0.5,2.5,1.5c0.2,0.5,0.1,1.1-0.1,1.6c-0.5,2-1.8,3.7-3.5,4.9c1,0.5,2.2-0.4,3.4-0.4c1.4,0,2.5,1.8,2,3.1
			c-0.5,1.4-2.1,2.1-3.5,1.9c-0.6-0.1-1.2-0.4-1.8-0.4c-2.2,0-3.3,2.8-5.4,3.7c-0.8,0.3-1.7,0.4-2.5,0.3c-0.8-0.1-1.6-0.2-2.2-0.6
			S58.7,171.3,59,170.6z"/>
		<path d="M63.1,174.5c-0.3,0-0.5,0-0.8,0c-0.8-0.1-1.8-0.2-2.6-0.8c-0.8-0.6-2-2.3-1.4-3.5v0c0.6-1.2,1.5-2,2.4-2.8
			c0.2-0.2,0.4-0.3,0.5-0.5c2.2-2,3.9-4.6,4.9-7.5c0.4-1.1,1.3-1.7,2.2-2.2c0.8-0.5,1.8-0.7,2.9-0.6c1.7,0.1,2.9,0.9,3.3,2
			c0.3,0.8,0.1,1.5,0,2.1c-0.3,1.3-1,2.5-1.8,3.5c0.3-0.1,0.6-0.1,0.9-0.1c0.9,0,1.7,0.5,2.3,1.3c0.6,0.9,0.8,2,0.5,2.9
			c-0.6,1.7-2.5,2.8-4.4,2.5c-0.3,0-0.5-0.1-0.8-0.2c-0.3-0.1-0.6-0.2-0.9-0.2c0,0,0,0,0,0c-0.9,0-1.6,0.8-2.5,1.6
			c-0.7,0.8-1.5,1.5-2.5,2C64.5,174.5,63.8,174.5,63.1,174.5z M59.8,170.9c0,0.3,0.4,1.1,0.8,1.4c0.5,0.3,1.2,0.4,1.8,0.5
			c0.9,0.1,1.6,0,2.1-0.2c0.7-0.3,1.3-0.9,2-1.6c1-1,2.1-2.2,3.8-2.2c0.5,0,0.9,0.1,1.3,0.2c0.2,0.1,0.4,0.1,0.6,0.2
			c1.1,0.2,2.2-0.4,2.5-1.3c0.1-0.4,0-1-0.3-1.4c-0.3-0.4-0.6-0.6-1-0.6c-0.3,0-0.7,0.1-1.1,0.2c-0.7,0.2-1.7,0.5-2.6,0
			c-0.3-0.1-0.5-0.4-0.5-0.7c0-0.3,0.1-0.6,0.4-0.8c1.5-1,2.7-2.6,3.1-4.4c0.1-0.3,0.2-0.8,0.1-1.1c-0.2-0.6-1.1-0.8-1.8-0.9
			c-0.8,0-1.5,0.1-2,0.4c-0.4,0.3-1.3,0.7-1.5,1.3c-1,3.2-2.9,6-5.3,8.2c-0.2,0.2-0.4,0.3-0.6,0.5C61,169.4,60.2,170.1,59.8,170.9z
			 M59.8,170.9L59.8,170.9z"/>
	</g>
</g>
<g>
	<path class="st7" d="M30.2,189c0.1,1.7-0.5,3.4-1.2,5c-0.8,1.8-1.6,3.5-3,4.9c-0.3-3.5-1.3-6.9-2.9-10l2.1-0.1c0.3,0,0.6,0,0.9,0
		L30.2,189z"/>
	<path d="M26.1,199.8c-0.1,0-0.2,0-0.3,0c-0.3-0.1-0.5-0.4-0.6-0.7c-0.3-3.3-1.3-6.7-2.9-9.7c-0.1-0.3-0.1-0.6,0-0.8
		c0.1-0.2,0.4-0.4,0.7-0.4l2.1-0.1c0.3,0,0.6,0,1,0l4.1,0.2c0.4,0,0.8,0.4,0.8,0.8c0.1,1.9-0.5,3.7-1.2,5.4
		c-0.7,1.7-1.7,3.6-3.1,5.2C26.5,199.7,26.3,199.8,26.1,199.8z M24.5,189.7c1,2.2,1.8,4.7,2.2,7.1c0.6-1,1.2-2.1,1.6-3.2
		c0.6-1.4,1-2.7,1.1-3.9l-3.3-0.1c-0.3,0-0.5,0-0.8,0L24.5,189.7z"/>
</g>
<g>
	<g>
		<path class="st9" d="M202.4,86.6c0,0.2-0.1,0.4,0,0.5c0.1,0.2,0.2,0.3,0.4,0.4c1,0.8,2.5,1.2,3.6,0.5c1.7-1.1,1.3-4,3-5.1
			c1.7-1.1,4.5,0.4,6-1.1c0.7-0.8,0.6-2.1-0.2-2.8c-1.2-0.9-3-0.1-4.4-0.6c0.6-1,1.1-2.1,1.2-3.2s-0.3-2.4-1.2-3.1
			c-0.9-0.7-2.3-0.8-3.2,0c-0.9,0.9-0.9,2.4-1.8,3.3c-0.8-0.7-1.6-1.4-2.3-2.1c-0.1-0.1-0.3-0.2-0.4-0.3c-0.2-0.1-0.4,0-0.7,0
			c-3.5,1.2-0.1,4.3,0.8,5.9C204.3,81.2,202.8,84.3,202.4,86.6z"/>
		<path d="M205.1,89.2c-1,0-2.1-0.4-2.8-1c-0.2-0.1-0.5-0.4-0.7-0.8c-0.1-0.4-0.1-0.7,0-0.9c0,0,0,0,0,0c0.1-0.6,0.3-1.3,0.5-2
			c0.5-1.8,1-3.7,0.2-5.1c-0.2-0.3-0.4-0.6-0.7-1c-0.9-1.3-2.1-2.8-1.7-4.3c0.2-0.8,0.9-1.4,2-1.8c0.4-0.2,0.9-0.2,1.2,0
			c0.3,0.1,0.5,0.3,0.7,0.4l1.6,1.4c0.1-0.2,0.2-0.4,0.3-0.7c0.3-0.6,0.5-1.4,1.1-2c1.1-1,3-1.1,4.3-0.1c1.1,0.8,1.7,2.3,1.6,3.8
			c0,0.8-0.3,1.6-0.7,2.5c0.2,0,0.4,0,0.6,0c1,0,2.1-0.1,3,0.6c0.6,0.4,1,1.2,1,1.9c0.1,0.8-0.2,1.5-0.7,2.1c-1,1.1-2.5,1-3.7,1
			c-0.9,0-1.8-0.1-2.4,0.3c-0.6,0.4-0.9,1.2-1.2,2.1c-0.4,1.1-0.8,2.3-1.8,3C206.3,89.1,205.7,89.2,205.1,89.2z M203.2,86.8
			C203.2,86.9,203.2,86.9,203.2,86.8c0.8,0.6,2,1,2.7,0.5c0.6-0.4,0.9-1.2,1.2-2.1c0.4-1.1,0.8-2.3,1.8-3c1-0.7,2.3-0.6,3.4-0.6
			c1.2,0.1,2,0.1,2.4-0.4c0.2-0.2,0.3-0.5,0.2-0.8c0-0.3-0.2-0.6-0.4-0.7c-0.4-0.3-1.1-0.3-1.9-0.3c-0.7,0-1.5,0.1-2.2-0.2
			c-0.2-0.1-0.4-0.3-0.5-0.5c-0.1-0.2-0.1-0.5,0.1-0.7c0.6-1,1-2,1-2.8c0.1-1-0.3-1.9-0.9-2.4c-0.6-0.5-1.6-0.5-2.1,0
			c-0.3,0.3-0.5,0.8-0.7,1.3c-0.2,0.6-0.5,1.4-1.1,1.9c-0.3,0.3-0.8,0.3-1.1,0l-2.3-2.1c0,0-0.1-0.1-0.1-0.1c0,0-0.1,0-0.1,0
			c-0.4,0.1-0.8,0.4-0.9,0.7c-0.2,0.7,0.8,2,1.4,2.8c0.3,0.4,0.6,0.8,0.8,1.1c1.1,1.9,0.5,4.3-0.1,6.4
			C203.5,85.6,203.3,86.2,203.2,86.8C203.2,86.8,203.2,86.8,203.2,86.8z M203.2,86.9L203.2,86.9L203.2,86.9z"/>
	</g>
	<g>
		<path class="st9" d="M179.6,86.6c0,0.2,0.1,0.4,0,0.5c-0.1,0.2-0.2,0.3-0.4,0.4c-1,0.8-2.5,1.2-3.6,0.5c-1.7-1.1-1.3-4-3-5.1
			c-1.7-1.1-4.5,0.4-6-1.1c-0.7-0.8-0.6-2.1,0.2-2.8c1.2-0.9,3-0.1,4.4-0.6c-0.6-1-1.1-2.1-1.2-3.2s0.3-2.4,1.2-3.1
			c0.9-0.7,2.3-0.8,3.2,0c0.9,0.9,0.9,2.4,1.8,3.3c0.8-0.7,1.6-1.4,2.3-2.1c0.1-0.1,0.3-0.2,0.4-0.3c0.2-0.1,0.4,0,0.7,0
			c3.5,1.2,0.1,4.3-0.8,5.9C177.7,81.2,179.2,84.3,179.6,86.6z"/>
		<path d="M176.9,89.2c-0.6,0-1.2-0.2-1.8-0.5c-1.1-0.7-1.5-1.9-1.8-3c-0.3-0.9-0.6-1.7-1.2-2.1c-0.6-0.4-1.5-0.3-2.4-0.3
			c-1.3,0.1-2.7,0.1-3.7-1c-0.5-0.5-0.7-1.3-0.7-2.1c0.1-0.8,0.4-1.5,1-1.9c0.9-0.7,2-0.7,3-0.6c0.2,0,0.4,0,0.6,0
			c-0.4-0.9-0.6-1.7-0.7-2.5c-0.1-1.5,0.5-2.9,1.6-3.8c1.3-1,3.2-1,4.3,0.1c0.6,0.6,0.9,1.3,1.1,2c0.1,0.2,0.2,0.5,0.3,0.7l1.6-1.4
			c0.1-0.1,0.4-0.3,0.7-0.4c0.4-0.1,0.8-0.1,1.2,0c1.1,0.4,1.8,1,2,1.8c0.4,1.5-0.7,3.1-1.7,4.3c-0.3,0.4-0.5,0.7-0.7,1
			c-0.8,1.3-0.3,3.2,0.2,5.1c0.2,0.7,0.4,1.4,0.5,2c0,0.2,0.1,0.6,0,0.9c-0.2,0.4-0.5,0.7-0.7,0.8C178.9,88.8,177.9,89.2,176.9,89.2
			z M170.6,81.6c0.8,0,1.7,0.1,2.4,0.6c1.1,0.7,1.5,1.9,1.8,3c0.3,0.9,0.6,1.7,1.2,2.1c0.8,0.5,1.9,0.1,2.7-0.4c0,0,0,0,0.1,0
			c0,0,0-0.1,0-0.1c0,0,0,0,0,0c-0.1-0.6-0.3-1.2-0.5-1.9c-0.6-2.1-1.2-4.4-0.1-6.4c0.2-0.3,0.5-0.7,0.8-1.1
			c0.6-0.9,1.6-2.2,1.4-2.8c-0.1-0.3-0.6-0.6-0.9-0.7c-0.1,0-0.1,0-0.1,0c0,0-0.1,0.1-0.1,0.1l-2.3,2.1c-0.3,0.3-0.8,0.3-1.1,0
			c-0.6-0.6-0.9-1.3-1.1-1.9c-0.2-0.5-0.4-1-0.7-1.3c-0.5-0.5-1.4-0.4-2.1,0c-0.6,0.5-1,1.4-0.9,2.4c0,0.9,0.4,1.8,1,2.8
			c0.1,0.2,0.2,0.5,0.1,0.7c-0.1,0.2-0.3,0.4-0.5,0.5c-0.8,0.3-1.5,0.2-2.2,0.2c-0.8,0-1.5-0.1-1.9,0.3c-0.2,0.2-0.3,0.4-0.4,0.7
			c0,0.3,0.1,0.6,0.2,0.8c0.5,0.5,1.2,0.5,2.4,0.4C170,81.6,170.3,81.6,170.6,81.6z M178.8,86.9L178.8,86.9L178.8,86.9z"/>
	</g>
	<g>
		<path class="st7" d="M178.6,137.3c0.7,2.8,2.3,5.2,4.4,7.1c-0.2-2.6,0.4-5.2,1.7-7.5c1.5-2.8,5.8-8.8,0.2-10.3
			C179.5,125.2,177.8,133.6,178.6,137.3z"/>
		<path d="M183,145.2c-0.2,0-0.4-0.1-0.6-0.2c-2.4-2.2-4-4.8-4.7-7.6l0,0c-0.6-2.6-0.1-7.8,2.6-10.4c1.3-1.3,3-1.7,4.8-1.2
			c1.6,0.4,2.7,1.2,3.1,2.4c1,2.5-0.9,5.7-2.2,8c-0.2,0.4-0.4,0.7-0.6,1.1c-1.1,2.1-1.7,4.6-1.6,7c0,0.3-0.2,0.7-0.5,0.8
			C183.3,145.2,183.2,145.2,183,145.2z M179.5,137.1c0.4,1.9,1.4,3.7,2.8,5.3c0.2-2,0.8-4,1.7-5.8c0.2-0.3,0.4-0.7,0.6-1.1
			c1.1-1.9,2.8-4.8,2.1-6.5c-0.3-0.7-0.9-1.1-2-1.4c-1.2-0.3-2.3-0.1-3.1,0.8C179.5,130.3,178.9,134.8,179.5,137.1L179.5,137.1z"/>
	</g>
	<g>
		<path class="st7" d="M201.7,139.6c-1.2,2.6-3.3,4.7-5.7,6.1c0.7-2.5,0.6-5.2-0.2-7.6c-0.9-3-4-9.7,1.8-10.1
			C203.2,127.6,203.3,136.1,201.7,139.6z"/>
		<path d="M196,146.5c-0.2,0-0.4-0.1-0.5-0.2c-0.3-0.2-0.4-0.6-0.3-0.9c0.6-2.3,0.6-4.9-0.1-7.2c-0.1-0.3-0.2-0.7-0.4-1.2
			c-0.9-2.6-2.1-6.1-0.6-8.3c0.7-1.1,1.9-1.6,3.6-1.8c1.9-0.1,3.4,0.6,4.4,2.1c2.1,3,1.6,8.3,0.5,10.7l0,0c-1.2,2.6-3.3,4.8-6.1,6.5
			C196.3,146.5,196.1,146.5,196,146.5z M198,128.8c-0.1,0-0.2,0-0.3,0c-1.1,0.1-1.9,0.4-2.3,1c-1,1.5,0.1,4.7,0.8,6.8
			c0.1,0.4,0.3,0.8,0.4,1.2c0.6,1.9,0.8,4,0.6,6c1.7-1.3,2.9-2.9,3.8-4.6l0,0c1-2.1,1.3-6.6-0.3-9C200,129.2,199.1,128.8,198,128.8z
			"/>
	</g>
	<g>
		<path class="st2" d="M178.6,86.3c-4,1.4-7.2,3.8-9.1,7.1c-2.7,4.9-2.9,11.1-0.4,16.1c2.2,4.5,6.4,8,8.1,12.8
			c1.7,4.6,1.3,10.4,5,13.7c1.2,1,2.7,1.7,4.2,2.2c4.4,1.7,9.6,2.9,13.5,0.2c2.6-1.9,3.9-5.1,4.4-8.3c0.6-3.2,0.7-6.4,1.7-9.5
			c1.3-3.6,3.8-6.7,5.8-9.9C224.6,90.9,195.4,80.3,178.6,86.3z"/>
		<path d="M194.5,140.8c-2.4,0-5.1-0.6-8.3-1.8c-1.5-0.6-3.1-1.2-4.4-2.4c-2.7-2.3-3.4-5.8-4-9.1c-0.3-1.6-0.7-3.4-1.2-4.9
			c-0.9-2.5-2.5-4.6-4.2-6.8c-1.4-1.8-2.8-3.7-3.9-5.9c-2.6-5.3-2.4-11.7,0.4-16.8c1.9-3.3,5.1-5.9,9.5-7.5l0,0
			c11.6-4.2,28-0.5,34.5,7.6c2.9,3.6,5.2,9.6-0.2,18c-0.5,0.9-1.1,1.7-1.7,2.5c-1.6,2.4-3.2,4.6-4.1,7.2c-0.7,1.9-0.9,3.9-1.2,6.1
			c-0.1,1.1-0.3,2.2-0.5,3.3c-0.8,4.2-2.4,7.1-4.8,8.8C198.8,140.2,196.8,140.8,194.5,140.8z M178.9,87.1L178.9,87.1
			c-4,1.4-7,3.8-8.6,6.7c-2.6,4.6-2.7,10.5-0.4,15.3c1,2,2.4,3.8,3.7,5.6c1.7,2.2,3.4,4.5,4.5,7.2c0.6,1.6,1,3.4,1.3,5.1
			c0.6,3.2,1.2,6.3,3.5,8.2c1.1,1,2.5,1.6,3.9,2.1c5.7,2.2,9.9,2.3,12.7,0.3c2-1.4,3.4-4,4.1-7.7c0.2-1,0.3-2.1,0.5-3.2
			c0.3-2.1,0.6-4.3,1.3-6.4c1-2.8,2.6-5.2,4.3-7.6c0.6-0.8,1.1-1.7,1.7-2.5c3.8-6,3.9-11.5,0.3-16.1
			C205.4,86.6,189.9,83.2,178.9,87.1z"/>
	</g>
	<g>
		<path class="st10" d="M180.1,119.3c1.7,2.6,4,4.8,6.3,7c-0.3-3.2-0.9-6.4-1.8-9.4c-0.3-1.1-0.7-2.2-1.3-3.2
			c-1.5-2.8-4.2-4.9-6.8-6.6c1.7,1.8,0.8,3.1,1,5.1C177.6,114.7,178.7,117.2,180.1,119.3z"/>
		<path d="M186.4,127.1c-0.2,0-0.4-0.1-0.6-0.2c-2.3-2.2-4.6-4.4-6.4-7.1l0,0c-1.7-2.6-2.7-5.2-2.8-7.6c0-0.7,0-1.3,0.1-1.8
			c0.1-1.2,0.2-1.9-0.8-2.8c-0.3-0.3-0.3-0.8,0-1.1c0.3-0.3,0.8-0.4,1.1-0.2c2.6,1.7,5.5,3.9,7.1,6.9c0.6,1.1,1,2.3,1.3,3.4
			c0.9,3.1,1.6,6.4,1.9,9.6c0,0.4-0.2,0.7-0.5,0.8C186.7,127.1,186.5,127.1,186.4,127.1z M178.4,109.4c0,0.4,0,0.8-0.1,1.2
			c0,0.5-0.1,1-0.1,1.5c0.1,2.1,1,4.4,2.6,6.7l0,0c1.3,1.9,2.8,3.6,4.4,5.2c-0.3-2.3-0.9-4.7-1.5-6.9c-0.3-1-0.7-2.1-1.2-3.1
			C181.6,112.2,180,110.7,178.4,109.4z"/>
	</g>
	<g>
		<path class="st10" d="M204.7,119.3c-1.7,2.6-4,4.8-6.3,7c0.3-3.2,0.9-6.4,1.8-9.4c0.3-1.1,0.7-2.2,1.3-3.2
			c1.5-2.8,4.2-4.9,6.8-6.6c-1.7,1.8-0.8,3.1-1,5.1C207.2,114.7,206.1,117.2,204.7,119.3z"/>
		<path d="M198.4,127.1c-0.1,0-0.3,0-0.4-0.1c-0.3-0.2-0.5-0.5-0.5-0.8c0.3-3.3,0.9-6.5,1.9-9.6c0.3-1,0.7-2.2,1.3-3.4
			c1.6-3,4.5-5.2,7.1-6.9c0.4-0.2,0.8-0.2,1.1,0.2c0.3,0.3,0.3,0.8,0,1.1c-0.9,1-0.9,1.7-0.8,2.8c0,0.5,0.1,1.1,0.1,1.8
			c-0.2,2.4-1.1,5-2.8,7.6c-1.8,2.7-4.1,4.9-6.4,7.1C198.8,127,198.6,127.1,198.4,127.1z M206.4,109.4c-1.6,1.3-3.2,2.8-4.2,4.6
			c-0.5,1-0.9,2.1-1.2,3.1c-0.7,2.3-1.2,4.6-1.5,6.9c1.6-1.6,3.2-3.3,4.4-5.2l0,0c1.5-2.3,2.4-4.6,2.6-6.7c0-0.5,0-1-0.1-1.5
			C206.4,110.2,206.4,109.8,206.4,109.4z"/>
	</g>
</g>
<g>
	<g>
		<path class="st5" d="M105,109.5c0.1,0.2,0.1,0.3,0.2,0.4c0.1,0.1,0.3,0.2,0.5,0.2c1.2,0.2,2.7-0.1,3.3-1.2
			c0.9-1.7-0.6-3.9,0.3-5.6c1-1.7,4-1.6,4.5-3.5c0.3-1-0.4-2.1-1.4-2.2c-1.4-0.2-2.6,1.2-4,1.4c0.1-1.1,0-2.2-0.4-3.2
			s-1.3-1.8-2.4-2s-2.3,0.4-2.7,1.4c-0.4,1.1,0.3,2.4-0.1,3.5c-0.9-0.2-1.9-0.5-2.8-0.7c-0.2,0-0.3-0.1-0.5-0.1
			c-0.2,0-0.4,0.2-0.5,0.3c-2.4,2.5,1.7,3.7,3.2,4.6C104.3,104.1,104.4,107.4,105,109.5z"/>
		<path d="M106.4,111c-0.3,0-0.6,0-0.8-0.1c-0.2,0-0.6-0.1-0.9-0.4c-0.3-0.3-0.4-0.6-0.5-0.8c0,0,0,0,0,0c-0.2-0.6-0.3-1.2-0.5-1.9
			c-0.4-1.8-0.8-3.6-2-4.3c-0.2-0.1-0.6-0.3-1-0.5c-1.4-0.7-3-1.5-3.3-2.9c-0.1-0.8,0.2-1.6,0.9-2.4c0.3-0.3,0.7-0.5,1-0.6
			c0.3,0,0.6,0,0.8,0.1l1.9,0.5c0-0.2,0-0.4-0.1-0.6c-0.1-0.7-0.2-1.4,0.1-2.2c0.5-1.4,2.1-2.2,3.6-1.9c1.3,0.2,2.4,1.2,3,2.5
			c0.3,0.7,0.5,1.5,0.5,2.3c0.1-0.1,0.3-0.2,0.4-0.2c0.8-0.5,1.7-1,2.8-0.8c0.7,0.1,1.3,0.6,1.7,1.2c0.4,0.6,0.5,1.4,0.3,2.1
			c-0.4,1.4-1.6,2-2.7,2.5c-0.8,0.4-1.5,0.7-1.8,1.3c-0.3,0.6-0.2,1.4-0.1,2.2c0.2,1.1,0.4,2.3-0.3,3.3
			C109.1,110.6,107.7,111,106.4,111z M105.9,109.4L105.9,109.4L105.9,109.4z M105.8,109.3C105.9,109.3,105.9,109.3,105.8,109.3
			c0.9,0.2,2,0,2.4-0.8c0.3-0.6,0.2-1.4,0.1-2.2c-0.2-1.1-0.4-2.3,0.3-3.3c0.6-1,1.7-1.5,2.6-2c1-0.5,1.6-0.8,1.8-1.4
			c0.1-0.2,0-0.5-0.1-0.7c-0.1-0.2-0.4-0.4-0.6-0.4c-0.5-0.1-1.1,0.2-1.7,0.6c-0.6,0.3-1.2,0.7-2,0.8c-0.3,0-0.5,0-0.7-0.2
			c-0.2-0.2-0.3-0.4-0.3-0.7c0.1-1.1,0-2.1-0.4-2.8c-0.4-0.8-1-1.4-1.8-1.6c-0.7-0.1-1.5,0.2-1.7,0.8c-0.1,0.4-0.1,0.9,0,1.4
			c0.1,0.6,0.1,1.4-0.1,2.1c-0.1,0.4-0.6,0.7-1,0.6l-2.8-0.7c0,0-0.1,0-0.1,0c0,0,0,0-0.1,0.1c-0.3,0.3-0.5,0.7-0.5,1
			c0.1,0.6,1.5,1.3,2.4,1.7c0.4,0.2,0.8,0.4,1.1,0.6c1.8,1.1,2.3,3.4,2.7,5.4C105.5,108.1,105.7,108.7,105.8,109.3L105.8,109.3
			C105.8,109.3,105.8,109.3,105.8,109.3z M105.8,109.3L105.8,109.3L105.8,109.3z"/>
	</g>
	<g>
		<g>
			<path class="st5" d="M129.8,106.8c1.1-0.7,0.7-2.9,0.1-3.8c-0.8-1.1-2.2-3.8-3.9-3.5c-0.9,0.2-1.4,1.1-1.4,2
				c0,0.9,0.4,1.7,0.9,2.4c0.6,0.8,1.2,1.5,1.9,2.2C128.1,106.7,129.1,107.3,129.8,106.8z"/>
			<path d="M129.2,107.8c-0.7,0-1.5-0.4-2.3-1.1c-0.8-0.7-1.4-1.5-2-2.3c-0.5-0.7-1.1-1.7-1.1-2.9c0-1.4,0.9-2.6,2.1-2.8
				c2-0.4,3.4,1.8,4.4,3.3c0.1,0.2,0.2,0.4,0.4,0.5c0.5,0.7,0.9,2.2,0.7,3.4c-0.1,0.7-0.5,1.3-1,1.6c0,0,0,0,0,0
				C129.9,107.7,129.6,107.8,129.2,107.8z M129.8,106.8L129.8,106.8L129.8,106.8z M126.3,100.3c0,0-0.1,0-0.1,0
				c-0.4,0.1-0.7,0.7-0.7,1.2c0,0.7,0.5,1.5,0.8,2c0.5,0.7,1.1,1.4,1.8,2.1c0.5,0.5,1.1,0.7,1.3,0.6c0.1-0.1,0.2-0.3,0.3-0.5
				c0.1-0.7-0.1-1.6-0.4-2.1c-0.1-0.2-0.2-0.4-0.4-0.6C128.2,102.1,127.1,100.3,126.3,100.3z"/>
		</g>
		<g>
			<path class="st5" d="M123.9,112.4c0.3-1.3,1.2-2.3,1.9-3.4c1.7-2.4,2.8-5.3,3.1-8.3c0.1-0.8,0.8-1.5,1.3-2s1.4-0.8,2.2-0.9
				c1-0.2,2.1,0,2.6,0.8c0.3,0.4,0.3,1,0.3,1.5c-0.1,1.9-0.9,3.8-2.2,5.2c1.1,0.3,2-0.8,3-1c1.3-0.3,2.6,1.1,2.5,2.5
				s-1.4,2.4-2.8,2.5c-0.6,0-1.2-0.1-1.8,0c-2.1,0.4-2.5,3.3-4.2,4.5c-0.7,0.5-1.5,0.7-2.3,0.8c-0.7,0.1-1.5,0.1-2.2-0.1
				C124.8,114.1,123.8,113.1,123.9,112.4z"/>
			<path d="M126.7,115.5c-0.5,0-1-0.1-1.5-0.3c-0.9-0.4-2.4-1.7-2-3c0.3-1.2,1-2.2,1.7-3.1c0.1-0.2,0.3-0.4,0.4-0.6
				c1.6-2.3,2.6-5.1,2.9-7.9c0.1-1.1,0.9-1.9,1.6-2.6c0.6-0.6,1.5-1,2.6-1.2c1.6-0.3,2.9,0.2,3.5,1.2c0.4,0.6,0.4,1.4,0.4,1.9
				c0,1.2-0.4,2.4-0.9,3.6c0.2-0.1,0.5-0.2,0.7-0.2c0.8-0.2,1.7,0.1,2.4,0.7c0.8,0.7,1.2,1.7,1.1,2.6c-0.2,1.7-1.8,3.1-3.6,3.2
				c-0.3,0-0.5,0-0.8,0c-0.3,0-0.6,0-0.9,0c-0.8,0.2-1.4,1-2,2c-0.5,0.9-1.1,1.7-1.9,2.4c-0.9,0.6-1.9,0.8-2.7,1
				C127.4,115.4,127.1,115.5,126.7,115.5z M124.7,112.6c0,0.3,0.6,0.9,1,1.1c0.5,0.2,1.2,0.2,1.7,0.1c0.9-0.1,1.5-0.3,1.9-0.6
				c0.6-0.4,1-1.1,1.5-1.9c0.7-1.2,1.5-2.5,3.1-2.8c0.5-0.1,0.9-0.1,1.3-0.1c0.2,0,0.4,0,0.6,0c1-0.1,1.9-0.8,2-1.7
				c0-0.4-0.2-0.9-0.5-1.2c-0.3-0.3-0.7-0.4-1-0.3c-0.3,0.1-0.6,0.2-1,0.4c-0.6,0.4-1.4,0.8-2.4,0.6c-0.3-0.1-0.5-0.3-0.6-0.6
				c-0.1-0.3,0-0.6,0.2-0.8c1.2-1.3,1.9-3,2-4.7c0-0.3,0-0.7-0.2-1c-0.3-0.5-1.1-0.5-1.8-0.4c-0.8,0.1-1.3,0.4-1.7,0.7
				c-0.4,0.3-1,0.9-1.1,1.5c-0.3,3.1-1.4,6.1-3.2,8.7c-0.1,0.2-0.3,0.4-0.4,0.6C125.5,110.9,125,111.7,124.7,112.6z M123.9,112.4
				L123.9,112.4L123.9,112.4z"/>
		</g>
	</g>
	<g>
		<path class="st0" d="M131.2,120.8c-0.4-2.9-1.7-5.6-4.2-7.6c-10.8-8.4-28.9-11.5-35.8,3.8c-1.2,2.7-1.5,5.8-2.3,8.7
			c-0.7,2.7-2,5.2-3.6,7.4c-1.5,2.1-3.4,3.8-4.9,6c-1.4,2.1-2.4,4.8-1.8,7.3c0.5,2,1.8,3.6,3,5.3c0.9,1.2,1.8,2.4,3,3.2
			c2.2,1.5,5.1,1.4,7.6,0.6c6.7-2.4,11.3-8.8,18-11.6c7.6-3.3,13.3-4.2,18.1-11.6C130.5,128.8,131.7,124.6,131.2,120.8z"/>
		<path class="st11" d="M88.8,156.7c-1.7,0-3.3-0.4-4.6-1.3c-1.4-0.9-2.3-2.2-3.2-3.4l-0.3-0.4c-1.1-1.5-2.3-3.1-2.8-5.2
			c-0.6-2.4,0-5.2,1.9-8c0.8-1.2,1.8-2.4,2.8-3.5c0.7-0.8,1.5-1.7,2.1-2.5c1.6-2.1,2.8-4.6,3.5-7.1c0.3-1,0.5-2.1,0.7-3.1
			c0.4-1.9,0.8-3.8,1.6-5.6c2.5-5.6,6.8-9.3,12.4-10.7c7.5-1.9,17.3,0.7,24.7,6.5c2.6,2,4.1,4.8,4.5,8.2l0,0c0.5,3.9-0.6,8.2-3,11.8
			c-4.1,6.2-8.7,8-14.4,10.3c-1.3,0.5-2.6,1-4,1.6c-3.1,1.3-5.8,3.5-8.4,5.6c-2.9,2.4-6,4.8-9.7,6.1C91.2,156.5,90,156.7,88.8,156.7
			z M107.9,107c-1.7,0-3.3,0.2-4.8,0.6c-5.1,1.3-8.9,4.5-11.2,9.7c-0.7,1.6-1.1,3.4-1.5,5.3c-0.2,1.1-0.4,2.2-0.7,3.3
			c-0.8,2.8-2,5.4-3.8,7.7c-0.7,0.9-1.5,1.8-2.2,2.6c-1,1.1-1.9,2.1-2.7,3.3c-0.9,1.3-2.3,4-1.6,6.6c0.4,1.7,1.5,3.1,2.6,4.6
			l0.3,0.4c0.8,1.1,1.7,2.3,2.8,3c1.8,1.2,4.3,1.4,6.8,0.5c3.4-1.2,6.2-3.4,9.2-5.8c2.7-2.2,5.5-4.4,8.8-5.8
			c1.4-0.6,2.8-1.1,4.1-1.6c5.5-2.1,9.9-3.8,13.6-9.6c2.1-3.3,3.2-7.3,2.7-10.7l0,0c-0.4-2.9-1.7-5.3-3.9-7.1
			C120.9,109.5,114,107,107.9,107z"/>
	</g>
	<path class="st11" d="M88.2,152.8c-2.2,0-4.3-0.1-6.5-0.4l0.2-1.7c2.4,0.3,4.8,0.4,7.2,0.3c0.7,0,1.3,0,1.9-0.2
		c0.7-0.2,1.3-0.6,1.9-1c1.7-1.1,3.4-2.4,4.9-3.8c0.2-0.2,0.4-0.4,0.6-0.6c1.7-1.6,3.5-3.2,5.8-3.7l0.4,1.6
		c-1.9,0.5-3.5,1.9-5.1,3.3c-0.2,0.2-0.4,0.4-0.6,0.6c-1.6,1.4-3.3,2.8-5.1,4c-0.7,0.5-1.5,1-2.4,1.2c-0.8,0.2-1.5,0.2-2.3,0.3
		C88.8,152.8,88.5,152.8,88.2,152.8z"/>
	<g>
		<path class="st7" d="M100.8,144.8c1.4,4.5,0.8,7.7-0.6,12.2c-1-3.1-2.3-4.4-4.6-7.6L100.8,144.8z"/>
		<path d="M100.2,157.9c-0.4,0-0.7-0.2-0.8-0.6c-0.8-2.4-1.7-3.7-3.3-5.8c-0.4-0.5-0.7-1-1.2-1.6c-0.3-0.4-0.2-0.8,0.1-1.1l5.2-4.6
			c0.2-0.2,0.5-0.3,0.8-0.2c0.3,0.1,0.5,0.3,0.6,0.6c1.4,4.6,0.9,7.9-0.6,12.7C100.9,157.7,100.6,157.9,100.2,157.9
			C100.2,157.9,100.2,157.9,100.2,157.9z M96.7,149.6c0.2,0.3,0.5,0.6,0.7,0.9c1.1,1.5,1.9,2.6,2.6,4c0.8-2.9,1-5.3,0.3-8.1
			L96.7,149.6z"/>
	</g>
	<g>
		<path d="M105,132.3c0.8-1.4,1.5-2.9,2.4-4.2c1.5-2.1,4.2-3.2,6.8-3.6c2.6-0.4,5.3-0.3,7.9-0.6c-1.9,1.6-3,4-4.7,5.9
			c-1.8,2.1-4.4,3.5-7,4.3c-2.6,0.8-5.7,1.7-8.4,1.4C103.4,134.7,104.3,133.6,105,132.3z"/>
		<path d="M103.2,136.4c-0.4,0-0.9,0-1.3-0.1c-0.4,0-0.7-0.3-0.7-0.7c-0.1-0.4,0.1-0.7,0.4-0.9c1.3-0.7,2.1-1.9,2.7-2.9l0,0
			c0.3-0.5,0.5-1,0.8-1.5c0.5-0.9,1-1.9,1.6-2.7c1.9-2.6,5-3.6,7.3-4c1.6-0.3,3.2-0.3,4.8-0.4c1,0,2.1-0.1,3.2-0.2
			c0.4,0,0.7,0.2,0.9,0.5c0.1,0.3,0,0.7-0.2,1c-1.1,0.9-1.9,2.1-2.7,3.3c-0.6,0.8-1.2,1.7-1.9,2.5c-1.8,2.1-4.4,3.6-7.4,4.5
			C108.4,135.6,105.7,136.4,103.2,136.4z M120,124.9c-0.4,0-0.7,0-1.1,0c-1.5,0.1-3.1,0.1-4.6,0.4c-2,0.3-4.7,1.2-6.2,3.3
			c-0.6,0.8-1,1.6-1.5,2.5c-0.3,0.5-0.6,1.1-0.9,1.6c0,0,0,0,0,0c-0.4,0.6-0.8,1.3-1.4,1.9c1.9-0.2,4-0.8,5.8-1.3
			c2.7-0.8,5-2.2,6.6-4c0.6-0.7,1.2-1.5,1.7-2.4C119,126.2,119.4,125.5,120,124.9z M105,132.3L105,132.3L105,132.3z"/>
	</g>
</g>
<g>
	<g>
		<path class="st12" d="M269.6,102.6c-0.1,0.2-0.1,0.3-0.2,0.4c-0.1,0.1-0.3,0.2-0.5,0.2c-1.2,0.2-2.7-0.1-3.3-1.2
			c-0.9-1.7,0.6-3.9-0.3-5.6c-1-1.7-4-1.6-4.5-3.5c-0.3-1,0.4-2.1,1.4-2.2c1.4-0.2,2.6,1.2,4,1.4c-0.1-1.1,0-2.2,0.4-3.2
			c0.4-1,1.3-1.8,2.4-2c1.1-0.2,2.3,0.4,2.7,1.4c0.4,1.1-0.3,2.4,0.1,3.5c0.9-0.2,1.9-0.5,2.8-0.7c0.2,0,0.3-0.1,0.5-0.1
			c0.2,0,0.4,0.2,0.5,0.3c2.4,2.5-1.7,3.7-3.2,4.6C270.4,97.2,270.3,100.5,269.6,102.6z"/>
		<path d="M268.2,104.1c-1.3,0-2.6-0.5-3.3-1.7c-0.6-1.1-0.4-2.3-0.3-3.3c0.1-0.9,0.3-1.7-0.1-2.2c-0.3-0.6-1.1-0.9-1.8-1.3
			c-1.1-0.5-2.4-1.1-2.7-2.5c-0.2-0.7-0.1-1.4,0.3-2.1c0.4-0.6,1-1.1,1.7-1.2c1.1-0.2,2,0.3,2.8,0.8c0.1,0.1,0.3,0.2,0.4,0.2
			c0-0.9,0.2-1.6,0.5-2.3c0.6-1.3,1.7-2.3,3-2.5c1.5-0.3,3.1,0.6,3.6,1.9c0.3,0.7,0.2,1.5,0.1,2.2c0,0.2,0,0.4-0.1,0.6l1.9-0.5
			c0.2,0,0.5-0.1,0.8-0.1c0.4,0.1,0.7,0.3,1,0.6c0.8,0.8,1.1,1.6,0.9,2.4c-0.3,1.5-2,2.3-3.3,2.9c-0.4,0.2-0.7,0.4-1,0.5
			c-1.2,0.8-1.6,2.6-2,4.3c-0.1,0.7-0.3,1.3-0.5,1.9l0,0c-0.1,0.2-0.2,0.5-0.5,0.8c-0.3,0.3-0.8,0.4-0.9,0.4
			C268.8,104.1,268.5,104.1,268.2,104.1z M262.6,91.5c-0.1,0-0.1,0-0.2,0c-0.2,0-0.4,0.2-0.6,0.4c-0.1,0.2-0.2,0.5-0.1,0.7
			c0.2,0.6,0.8,0.9,1.8,1.4c1,0.4,2,0.9,2.6,2c0.6,1.1,0.4,2.3,0.3,3.3c-0.1,0.9-0.3,1.7,0.1,2.2c0.4,0.7,1.5,0.9,2.4,0.8
			c0,0,0,0,0,0c0,0,0,0,0-0.1c0,0,0,0,0,0c0.2-0.5,0.3-1.1,0.4-1.7c0.4-2,0.9-4.3,2.7-5.4c0.3-0.2,0.7-0.4,1.1-0.6
			c0.9-0.4,2.3-1.1,2.4-1.7c0.1-0.3-0.2-0.7-0.5-1c0,0,0,0-0.1-0.1c0,0-0.1,0-0.1,0l-2.8,0.7c-0.4,0.1-0.9-0.1-1-0.6
			c-0.2-0.7-0.2-1.5-0.1-2.1c0.1-0.5,0.1-1,0-1.4c-0.2-0.6-1-1-1.7-0.8c-0.7,0.1-1.4,0.7-1.8,1.6c-0.3,0.7-0.4,1.6-0.4,2.8
			c0,0.3-0.1,0.5-0.3,0.7c-0.2,0.2-0.4,0.3-0.7,0.2c-0.8-0.1-1.4-0.5-2-0.8C263.5,91.8,263,91.5,262.6,91.5z"/>
	</g>
	<g>
		<g>
			<path class="st12" d="M244.9,99.9c-1.1-0.7-0.7-2.9-0.1-3.8c0.8-1.1,2.2-3.8,3.9-3.5c0.9,0.2,1.4,1.1,1.4,2
				c0,0.9-0.4,1.7-0.9,2.4c-0.6,0.8-1.2,1.5-1.9,2.2C246.6,99.8,245.6,100.3,244.9,99.9z"/>
			<path d="M245.5,100.9c-0.4,0-0.8-0.1-1.1-0.3c0,0,0,0,0,0c-0.5-0.3-0.9-0.9-1-1.6c-0.2-1.2,0.2-2.6,0.7-3.4
				c0.1-0.1,0.2-0.3,0.4-0.5c1-1.5,2.4-3.7,4.4-3.3c1.2,0.2,2.1,1.5,2.1,2.8c0,1.2-0.6,2.2-1.1,2.9c-0.6,0.9-1.3,1.6-2,2.3
				C247,100.5,246.2,100.9,245.5,100.9z M245.3,99.2c0.2,0.1,0.8-0.1,1.3-0.6c0.7-0.6,1.3-1.3,1.8-2.1c0.3-0.5,0.8-1.2,0.8-2
				c0-0.5-0.3-1.1-0.7-1.2c-0.8-0.2-2,1.7-2.6,2.6c-0.1,0.2-0.3,0.4-0.4,0.6c-0.3,0.4-0.6,1.4-0.4,2.1
				C245.1,98.9,245.2,99.1,245.3,99.2z"/>
		</g>
		<g>
			<path class="st12" d="M250.7,105.5c-0.3-1.3-1.2-2.3-1.9-3.4c-1.7-2.4-2.8-5.3-3.1-8.3c-0.1-0.8-0.8-1.5-1.3-2
				c-0.6-0.5-1.4-0.8-2.2-0.9c-1-0.2-2.1,0-2.6,0.8c-0.3,0.4-0.3,1-0.3,1.5c0.1,1.9,0.9,3.8,2.2,5.2c-1.1,0.3-2-0.8-3-1
				c-1.3-0.3-2.6,1.1-2.5,2.5s1.4,2.4,2.8,2.5c0.6,0,1.2-0.1,1.8,0c2.1,0.4,2.5,3.3,4.2,4.5c0.7,0.5,1.5,0.7,2.3,0.8
				c0.7,0.1,1.5,0.1,2.2-0.1C249.9,107.2,250.9,106.2,250.7,105.5z"/>
			<path d="M248,108.6c-0.4,0-0.8,0-1.1-0.1c-0.8-0.1-1.8-0.3-2.7-1c-0.9-0.6-1.4-1.5-1.9-2.4c-0.6-1-1.1-1.8-2-2
				c-0.3-0.1-0.6,0-0.9,0c-0.3,0-0.5,0-0.8,0c-1.8-0.1-3.4-1.5-3.6-3.2c-0.1-1,0.3-1.9,1.1-2.6c0.7-0.6,1.6-0.9,2.4-0.7
				c0.3,0.1,0.5,0.1,0.7,0.2c-0.5-1.1-0.9-2.3-0.9-3.6c0-0.6,0-1.3,0.4-1.9c0.6-1,1.9-1.5,3.5-1.2c1.1,0.2,2,0.6,2.6,1.2
				c0.7,0.7,1.5,1.5,1.6,2.6c0.3,2.8,1.3,5.6,2.9,7.9c0.1,0.2,0.3,0.4,0.4,0.6c0.7,0.9,1.4,1.9,1.7,3.1l0,0c0.3,1.3-1.2,2.6-2,3
				C249,108.5,248.5,108.6,248,108.6z M239.9,101.4c0.3,0,0.5,0,0.8,0.1c1.6,0.3,2.4,1.6,3.1,2.8c0.5,0.7,0.9,1.5,1.5,1.9
				c0.4,0.3,1,0.5,1.9,0.6c0.5,0.1,1.2,0.1,1.7-0.1c0.4-0.2,1-0.8,1-1.1c-0.2-0.9-0.8-1.6-1.4-2.4c-0.1-0.2-0.3-0.4-0.4-0.6
				c-1.8-2.6-2.9-5.6-3.2-8.7c-0.1-0.5-0.7-1.1-1.1-1.5c-0.4-0.4-1-0.6-1.7-0.7c-0.6-0.1-1.5-0.1-1.8,0.4c-0.2,0.3-0.2,0.7-0.2,1
				c0.1,1.7,0.8,3.4,2,4.7c0.2,0.2,0.3,0.5,0.2,0.8c-0.1,0.3-0.3,0.5-0.6,0.6c-1,0.2-1.8-0.2-2.4-0.6c-0.4-0.2-0.7-0.4-1-0.4
				c-0.3-0.1-0.7,0.1-1,0.3c-0.4,0.3-0.6,0.8-0.5,1.2c0.1,0.9,1,1.7,2,1.7c0.2,0,0.4,0,0.6,0C239.6,101.4,239.8,101.4,239.9,101.4z
				 M249.9,105.6L249.9,105.6L249.9,105.6L249.9,105.6z"/>
		</g>
	</g>
	<g>
		<path class="st4" d="M243.5,113.9c0.4-2.9,1.7-5.6,4.2-7.6c10.8-8.4,28.9-11.5,35.8,3.8c1.2,2.7,1.5,5.8,2.3,8.7
			c0.7,2.7,2,5.2,3.6,7.4c1.5,2.1,3.4,3.8,4.9,6c1.4,2.1,2.4,4.8,1.8,7.3c-0.5,2-1.8,3.6-3,5.3c-0.9,1.2-1.8,2.4-3,3.2
			c-2.2,1.5-5.1,1.4-7.6,0.6c-6.7-2.4-11.3-8.8-18-11.6c-7.6-3.3-13.3-4.2-18.1-11.6C244.2,121.9,243,117.7,243.5,113.9z"/>
		<path d="M285.9,149.8c-1.2,0-2.5-0.2-3.7-0.7c-3.7-1.3-6.7-3.7-9.7-6.1c-2.6-2.1-5.3-4.3-8.4-5.6c-1.4-0.6-2.7-1.1-4-1.6
			c-5.8-2.3-10.4-4-14.4-10.3c-2.4-3.6-3.5-8-3-11.8l0,0c0.4-3.4,2-6.2,4.5-8.2c7.5-5.8,17.2-8.4,24.7-6.5
			c5.6,1.4,9.8,5.1,12.4,10.7c0.8,1.8,1.2,3.8,1.6,5.6c0.2,1,0.4,2.1,0.7,3.1c0.7,2.5,1.9,5,3.5,7.1c0.7,0.9,1.4,1.7,2.1,2.5
			c1,1.1,2,2.2,2.8,3.5c1.8,2.7,2.5,5.5,1.9,8c-0.5,2-1.7,3.6-2.8,5.2l-0.3,0.4c-0.9,1.2-1.8,2.5-3.2,3.4
			C289.2,149.4,287.6,149.8,285.9,149.8z M266.7,100.1c-6.1,0-12.9,2.4-18.5,6.8c-2.2,1.7-3.6,4.2-3.9,7.1l0,0
			c-0.4,3.4,0.6,7.4,2.7,10.7c3.8,5.8,8.1,7.5,13.6,9.6c1.3,0.5,2.7,1,4.1,1.6c3.3,1.4,6.1,3.6,8.8,5.8c3,2.4,5.8,4.6,9.2,5.8
			c2.5,0.9,5.1,0.7,6.8-0.5c1.1-0.7,2-1.9,2.8-3l0.3-0.4c1.1-1.5,2.1-2.9,2.6-4.6c0.7-2.6-0.7-5.2-1.6-6.6c-0.8-1.2-1.7-2.2-2.7-3.3
			c-0.7-0.8-1.5-1.7-2.2-2.6c-1.7-2.3-3-4.9-3.8-7.7c-0.3-1.1-0.5-2.2-0.7-3.3c-0.4-1.9-0.7-3.6-1.5-5.3c-2.3-5.2-6.1-8.5-11.2-9.7
			C270,100.3,268.4,100.1,266.7,100.1z"/>
	</g>
	<path class="st11" d="M286.5,145.9c-0.3,0-0.6,0-0.9,0c-0.7,0-1.5,0-2.3-0.3c-0.9-0.3-1.7-0.7-2.4-1.2c-1.8-1.2-3.5-2.5-5.1-4
		c-0.2-0.2-0.4-0.4-0.6-0.6c-1.6-1.4-3.2-2.9-5.1-3.3l0.4-1.6c2.3,0.6,4.1,2.2,5.8,3.7c0.2,0.2,0.4,0.4,0.6,0.6
		c1.5,1.4,3.2,2.7,4.9,3.8c0.6,0.4,1.2,0.8,1.9,1c0.6,0.2,1.2,0.2,1.9,0.2c2.4,0,4.8-0.1,7.2-0.3l0.2,1.7
		C290.8,145.7,288.7,145.9,286.5,145.9z"/>
	<g>
		<path class="st7" d="M273.8,137.9c-1.4,4.5-0.8,7.7,0.6,12.2c1-3.1,2.3-4.4,4.6-7.6L273.8,137.9z"/>
		<path d="M274.5,151C274.5,151,274.5,151,274.5,151c-0.4,0-0.7-0.2-0.8-0.6c-1.5-4.8-2-8.1-0.6-12.7c0.1-0.3,0.3-0.5,0.6-0.6
			c0.3-0.1,0.6,0,0.8,0.2l5.2,4.6c0.3,0.3,0.4,0.8,0.1,1.1c-0.4,0.6-0.8,1.1-1.2,1.6c-1.6,2.1-2.5,3.4-3.3,5.8
			C275.1,150.8,274.8,151,274.5,151z M274.3,139.5c-0.7,2.9-0.5,5.2,0.3,8.1c0.7-1.4,1.5-2.5,2.6-4c0.2-0.3,0.5-0.6,0.7-0.9
			L274.3,139.5z"/>
	</g>
	<g>
		<path class="st9" d="M269.7,125.4c-0.8-1.4-1.5-2.9-2.4-4.2c-1.5-2.1-4.2-3.2-6.8-3.6s-5.3-0.3-7.9-0.6c1.9,1.6,3,4,4.7,5.9
			c1.8,2.1,4.4,3.5,7,4.3c2.6,0.8,5.7,1.7,8.4,1.4C271.3,127.8,270.4,126.6,269.7,125.4z"/>
		<path d="M271.5,129.5c-2.6,0-5.3-0.8-7.5-1.5c-3-0.9-5.6-2.5-7.4-4.5c-0.7-0.8-1.3-1.7-1.9-2.5c-0.8-1.2-1.6-2.4-2.7-3.3
			c-0.3-0.2-0.4-0.6-0.2-1c0.1-0.3,0.5-0.6,0.9-0.5c1,0.1,2.1,0.1,3.2,0.2c1.6,0.1,3.2,0.1,4.8,0.4c2.3,0.4,5.4,1.4,7.3,4
			c0.6,0.9,1.1,1.8,1.6,2.7c0.3,0.5,0.5,1,0.8,1.5l0,0c0.6,1,1.4,2.2,2.7,2.9c0.3,0.2,0.5,0.5,0.4,0.9c-0.1,0.4-0.4,0.6-0.7,0.7
			C272.4,129.5,271.9,129.5,271.5,129.5z M254.7,118c0.5,0.7,1,1.3,1.4,2c0.6,0.8,1.1,1.6,1.7,2.4c1.6,1.8,3.9,3.2,6.6,4
			c1.8,0.5,3.8,1.2,5.8,1.3c-0.6-0.6-1-1.3-1.4-1.9c0,0,0,0,0,0c-0.3-0.5-0.6-1.1-0.9-1.6c-0.5-0.9-0.9-1.8-1.5-2.5
			c-1.6-2.1-4.3-3-6.2-3.3c-1.5-0.2-3-0.3-4.6-0.4C255.4,118,255.1,118,254.7,118z"/>
	</g>
</g>
<path d="M193.1,293.8l-0.6-1.6c10-3.6,12.9-7.3,13.6-9.9c0.7-2.6-0.7-4.3-0.7-4.4l1.3-1.1c0.1,0.1,2,2.5,1.1,5.9
	C206.6,287,201.7,290.7,193.1,293.8z"/>
<path d="M181.7,295.3c-4.7,0-9-1-10.2-4.6c-0.6-1.8,0-3.3,1.7-4c3.2-1.4,9.6,0.1,12.3,0.8c3.9,1.1,8.8,2.9,9.9,4.7
	c0.1,0.2,0.2,0.5,0.1,0.8c-0.1,0.2-0.3,0.4-0.6,0.5C194.4,293.5,187.8,295.3,181.7,295.3z M176.9,287.7c-1.2,0-2.2,0.1-3,0.5
	c-0.6,0.3-1.1,0.7-0.7,1.9c1.6,5.1,13.6,3.4,19.7,2C189.9,290.3,181.9,287.7,176.9,287.7z"/>
</svg>
