<?xml version="1.0" encoding="utf-8"?>
<!-- Generator: Adobe Illustrator 26.5.0, SVG Export Plug-In . SVG Version: 6.00 Build 0)  -->
<svg version="1.1" id="레이어_1" xmlns="http://www.w3.org/2000/svg" xmlns:xlink="http://www.w3.org/1999/xlink" x="0px"
	 y="0px" viewBox="0 0 390 390" style="enable-background:new 0 0 390 390;" xml:space="preserve">
<path style="fill:#FFFFFF;" d="M233.4,213.9c-3.1,0-5.4,1.1-6.2,3c-1.1,2.5,0.6,6.1,4.6,9.4c9.1,7.7,25.8,10.9,38,3.1
	c12.6-8.1,8.4-33.6,3.2-42.7c-2.7-4.7-10-6.8-15.2-4.4c-5.1,2.3-6.6,7.9-4,15.3c0.5,0.9,6.4,10.9,3.3,17.8
	c-2.3,5.2-9.2,2.8-15.2,0.7c-2.6-0.9-5-1.8-6.9-2C234.5,214,233.9,213.9,233.4,213.9z"/>
<path style="fill:#0083CB;" d="M270.2,229.4c12.1-8.9,8.4-33.6,3.2-42.7c-2.7-4.7-10-6.8-15.2-4.4c-5.1,2.3-6.6,7.9-4,15.3
	c0.5,0.9,6.4,10.9,3.3,17.8c-0.6,1.4-0.4,3.5-0.1,4.9c0.6,3,2.8,5.2,5.1,7C264.4,228.8,267.7,231.2,270.2,229.4z"/>
<path d="M253.7,235.4c-8.7,0-17.2-3.1-22.9-7.9c-4.6-3.9-6.4-7.9-5.1-11.2c1.1-2.5,3.8-3.9,7.6-3.9c0.6,0,1.2,0,1.8,0.1
	c2.1,0.2,4.6,1.1,7.2,2.1c6.7,2.4,11.6,3.8,13.3,0.1c2.8-6.3-3-16-3.2-16.4l-0.1-0.3c-2.8-8.1-1-14.5,4.8-17.2
	c6-2.8,14-0.4,17.2,5.1c3,5.2,5.1,14.4,5.2,22.4c0.1,10.5-3,18.5-9,22.3C265.5,234,259.6,235.4,253.7,235.4z M233.4,215.5
	c-2.5,0-4.3,0.8-4.9,2.1c-0.8,1.8,0.9,4.9,4.2,7.7c8.7,7.3,24.6,10.4,36.2,3c11.6-7.5,7.6-32.2,2.7-40.7c-2.3-4-8.8-5.9-13.3-3.8
	c-5.9,2.7-4.6,9.4-3.3,13.3c1,1.7,6.5,11.7,3.3,19c-2.9,6.5-10.8,3.7-17,1.5c-2.5-0.9-4.8-1.7-6.6-1.9
	C234.4,215.5,233.9,215.5,233.4,215.5z"/>
<g>
	<path d="M170.2,86.2c2.2,0,4.5,0.4,6.7,1.4c1.8,0.8,2.1,1,3.7,2.3c1.4,1.1,2.7,2.5,3.9,3.9c3.8,4.5,6.9,18.8,1.4,21.9
		c-0.6,0.4-1.2,0.5-1.8,0.5c-3.8,0-6.1-7.4-8-10c-1.5-2.1-2.9-2.9-4.2-2.9c-1.5,0-3,1.1-4.5,2.5c0,0.1,0.1,0.2,0.1,0.3
		c-0.6,0.3-1.1,0.8-1.6,1.3c-0.8,0.8-1.7,1.7-2.6,2.5c-1.7,1.5-3.7,2.2-5.6,2.2c-2.6,0-5.1-1.2-6.8-3.6c-1.9-2.6-2.4-6-1.6-9.1
		c0.5-1.8,1.5-3.5,2.9-4.8c0.7-0.6,3.2-3.1,7.3-5.5h0.1C163,87.4,166.5,86.2,170.2,86.2"/>
</g>
<g>
	<path d="M237.4,92.8c6.4,0,11.7,2.8,16.3,7.2l0,0c4.1,3.7,6.1,7,6.7,7.8c1.3,1.7,1.9,3.7,2,5.7c0.1,3.3-1.3,6.7-4.2,8.8
		c-1.8,1.4-4,2-6.1,2c-3.2,0-6.3-1.5-8.3-4.2l0,0c-1-1.3-2.4-2.9-3.9-4.3c0-0.1,0.1-0.2,0.2-0.3c-2.2-2.4-4.3-4.1-6.5-4.1
		c-0.9,0-1.7,0.3-2.6,0.9c-2.7,2-5.7,8.3-9.9,8.3c-0.8,0-1.6-0.2-2.5-0.8c-5-3.2-0.7-11.7,1.5-15.3c3.9-6.5,7.8-11,15.4-11.6
		C236.2,92.8,236.8,92.8,237.4,92.8"/>
</g>
<g>
	<g>
		<path d="M210.5,294.8c3,0,6.4,1.4,9.4,1.4c1,0,2-0.2,3-0.6c1,3.9,1.5,7.2,1.2,11.2c-0.1,1.3-0.3,2.6-0.5,3.9
			c-0.1,1.1-0.2,2.1-0.4,3.2c-0.5,2.3-1.4,7.3,2.1,7.8c0.3,0,0.7,0.1,1,0.1c0.5,0,1,0,1.5-0.1c1.2-0.2,3.1-0.8,4.2-1.2
			c2.1-0.6,4.6-1.8,6.4-3.1c0.2-0.1,1.1-0.6,2.1-1.1v-0.1l3-1.5c0.1,0,0.1-0.1,0.1-0.1l0,0l8.5-4.3c0.6-0.2,1.1-0.3,1.7-0.3
			c3.8,0,7,4.1,7.6,6.7l1.7,4.6l5.4,14.7c1.1,5.1,3,8.5-0.5,13.3c-1.9,2.6-6.8,3.9-10.6,3.9c-1,0-2-0.1-2.7-0.3
			c-6.6-1.7-11.9-5-14.7-11.3c0,0-0.1-0.3-0.2-0.3c-2-4.7-2.4-7.7-2.3-9.5c-5.7,2.5-12.2,4.2-17.1,4.2c-1.7,0-3.1-0.2-4.3-0.6
			c0,0,0.1,0,0.2,0c-9.9-3.7-6.1-19.5-9.4-39.4C207.9,295.1,209.2,294.8,210.5,294.8 M210.5,291.1L210.5,291.1
			c-2.3,0-4.3,0.6-5.9,1.8c-1.2,0.8-1.7,2.2-1.5,3.7c1,6.2,1.3,12.1,1.6,17.3c0.6,11.1,1.1,20.7,9,24.5c0.3,0.2,0.7,0.5,1.1,0.6
			c1.6,0.5,3.4,0.8,5.6,0.8c4,0,9-1,14-2.7c0.4,1.8,1.1,3.7,2,5.7l0.2,0.5c3,6.7,8.8,11.2,17.2,13.3c1.1,0.3,2.3,0.4,3.7,0.4
			c4.8,0,10.9-1.7,13.6-5.4c3.9-5.4,2.7-9.9,1.7-13.8c-0.2-0.8-0.4-1.6-0.6-2.5c0-0.2-0.1-0.3-0.1-0.5l-5.4-14.7l-1.6-4.4
			c-1-3.9-5.4-9.4-11.2-9.4c-1,0-1.9,0.2-2.8,0.4c-0.2,0.1-0.4,0.1-0.5,0.2c-2.9,1.5-7.7,3.9-8.4,4.2c-0.2,0.1-0.4,0.2-0.5,0.3
			l-2.8,1.4c-0.2,0.1-0.4,0.2-0.6,0.4c-1.3,0.7-1.7,0.9-2,1.1c-1.6,1.1-3.7,2.1-5.4,2.6l-0.9,0.3c-0.9,0.3-2.2,0.7-2.9,0.8
			c-0.1,0-0.4,0-0.6,0.1c0-0.6,0-1.6,0.4-3.3c0.2-0.9,0.3-1.8,0.4-2.6c0-0.3,0.1-0.6,0.1-0.9l0.1-1.1c0.1-1,0.3-1.9,0.3-2.9
			c0.4-4.7-0.2-8.4-1.3-12.5c-0.3-1.1-1-2-2.1-2.5c-0.5-0.2-1-0.3-1.6-0.3s-1.1,0.1-1.6,0.4c-0.3,0.2-0.8,0.2-1.3,0.2
			c-1.1,0-2.5-0.3-3.9-0.6C214.2,291.5,212.4,291.1,210.5,291.1L210.5,291.1L210.5,291.1z"/>
	</g>
	<g>
		<g>
			<path style="fill:#FFFFFF;" d="M223.6,320.2c-1.9-10,2.7-11.7-0.7-24.6c-4.8,2.3-11.7-2.9-16.1,0.3c3.3,20-0.6,35.9,9.6,39.5
				l9.5-5.2L223.6,320.2L223.6,320.2z"/>
		</g>
		<g>
			<path style="fill:#00A0FA;" d="M243.6,314.6c0,0.1-4.8,2.5-5.2,2.8c-3,2-7.9,4-12.3,4.4c-0.4,0-2.4-0.4-2.2-0.8
				c0,0,1.4,2.8-1.2,8.3c-2.6,5.5-6.7,6-6.7,6c5.1,1.8,15.3-0.5,23.3-4.4C246.6,324.1,244.4,319.7,243.6,314.6z"/>
		</g>
		<g>
			<path style="fill-rule:evenodd;clip-rule:evenodd;fill:#00A0FA;" d="M240.5,316.1l11.6-5.9c4.5-1.4,8.6,3.4,9.2,6.4l1.7,4.6
				l5.4,14.7c1.1,5.1,3,8.5-0.5,13.3c-2.4,3.3-9.8,4.5-13.3,3.6c-6.6-1.7-11.9-5-14.7-11.3c0,0-0.1-0.3-0.2-0.3
				c-4-9.4-1.6-12-1.6-12l-3.1,0.7"/>
		</g>
	</g>
</g>
<g>
	<g>
		<path d="M170.2,281.6c0.4,0,0.7,0,1.1,0.1c2.9,0.6,9.5,4.4,8.9,7.3l-9,43.8l-5.6,27.2l-1.1,12.4c0,3.1-4.9,5.6-8,5.6h-3.9h-16.7
			c-1.3,0-2.7,0-4.1,0c-4.2,0-8.6-0.4-11.5-3.8c-2.7-3.1-1.9-9.2-0.2-12.6c3.1-6.2,9.2-10.8,16-12.3c1.6-0.3,3.1-0.4,4.5-0.4
			c7.2,0,10.8,3.7,10.8,3.7l4.8-23l9-43.8C165.4,283.3,167.7,281.6,170.2,281.6 M170.2,277.9c-4.3,0-8,3.1-8.9,7.3l-9,43.8
			l-3.7,17.8c-2.1-0.8-4.8-1.5-8.2-1.5c-1.7,0-3.4,0.2-5.2,0.5c-8,1.7-14.9,7.1-18.6,14.2c-2.1,4.2-3.3,12.1,0.7,16.7
			c3.9,4.5,9.5,5.1,14.4,5.1c0.7,0,1.4,0,2.2,0c0.6,0,1.3,0,1.9,0h16.7h3.9c4.7,0,11.6-3.6,11.8-9.2l1.1-12.1l5.6-27l9-43.8
			c0.4-2-0.1-5-4.6-8.3c-2.3-1.6-5.1-3-7.2-3.4C171.4,277.9,170.8,277.9,170.2,277.9L170.2,277.9z"/>
	</g>
	<g>
		<g>
			<path style="fill:#FFFFFF;" d="M171.2,281.7c2.9,0.6,9.5,4.4,8.9,7.3l-9,43.8l-15.2-3.1l9-43.8
				C165.5,283,168.4,281.1,171.2,281.7"/>
		</g>
		<g>
			<path style="fill-rule:evenodd;clip-rule:evenodd;fill:#00A0FA;" d="M165.5,360l-1.1,12.4c0,3.1-4.9,5.6-8,5.6h-3.9h-16.7
				c-5.3,0-11.7,0.7-15.6-3.8c-2.7-3.1-1.9-9.2-0.2-12.6c3.1-6.2,9.2-10.8,16-12.3c0,0-0.1,0,0,0c10.2-2,15.3,3.2,15.3,3.2l4.8-23
				l15.2,3.1L165.5,360z"/>
		</g>
	</g>
</g>
<g>
	<g>
		<g>
			<g>
				<path style="fill:#FFFFFF;" d="M176.9,87.6c1.8,0.8,2.1,1,3.7,2.3c1.4,1.1,2.7,2.5,3.9,3.9c3.8,4.5,6.9,18.8,1.4,21.9
					c-4.8,2.8-7.6-6.5-9.7-9.4c-4.7-6.6-8.1-0.6-12.8,3.7c-3.8,3.4-9.4,2.8-12.5-1.4c-3.1-4.2-2.5-10.4,1.3-13.9
					C159.1,88.4,167.9,83.7,176.9,87.6z"/>
				<path style="fill:#251814;" d="M170.2,86.2c2.2,0,4.5,0.4,6.7,1.4c1.8,0.8,2.1,1,3.7,2.3c1.4,1.1,2.7,2.5,3.9,3.9
					c3.8,4.5,6.9,18.8,1.4,21.9c-0.6,0.4-1.2,0.5-1.8,0.5c-3.8,0-6.1-7.4-8-10c-1.5-2.1-2.9-2.9-4.2-2.9c-2.8,0-5.4,3.7-8.6,6.6
					c-1.7,1.5-3.7,2.2-5.6,2.2c-2.6,0-5.1-1.2-6.8-3.6c-3.1-4.2-2.5-10.4,1.3-13.9C157.4,90,163.6,86.2,170.2,86.2 M170.2,83
					L170.2,83c-6.5,0-13.3,3.2-20.1,9.4c-5,4.6-5.7,12.5-1.7,18c2.3,3.1,5.7,4.9,9.4,4.9c2.8,0,5.6-1.1,7.7-3
					c0.9-0.8,1.8-1.7,2.6-2.6c1.2-1.2,3.2-3.2,3.9-3.2c0,0,0.6,0.1,1.6,1.6c0.4,0.5,0.9,1.5,1.4,2.5c1.9,3.7,4.5,8.8,9.1,8.8
					c1.1,0,2.2-0.3,3.3-0.9c1.6-0.9,3.6-2.8,4.3-6.9c1.2-6.7-1.6-15.9-4.9-19.8c-1.6-1.9-3-3.3-4.3-4.4c-1.8-1.5-2.3-1.8-4.4-2.7
					C175.6,83.6,172.9,83,170.2,83L170.2,83z"/>
			</g>
		</g>
		<g>
			<path style="fill:#6C2E00;" d="M165.5,103.7c-0.7-0.3-1.4-0.3-2-0.1c0.8-0.4,1.5-1.1,1.9-2.2c0.7-2-0.1-4.3-2-5.1
				c-0.8-0.4-1.7-0.3-2.5,0c0.7-0.4,1.3-1.1,1.7-2c0.7-2-0.6-4.2-2.4-5c-0.2-0.1-0.3-0.1-0.5-0.1c-4.2,2.5-6.7,4.9-7.3,5.5
				c-3.8,3.5-4.4,9.7-1.3,13.9c3.1,4.2,8.7,4.8,12.5,1.4c1.1-1,2.6-2.8,4.2-3.8C167.5,104.8,166.7,104.3,165.5,103.7"/>
		</g>
	</g>
</g>
<g>
	<g>
		<g>
			<g>
				<path style="fill:#FFFFFF;" d="M235.6,92.9c-7.6,0.6-11.5,5.2-15.4,11.6c-2.2,3.5-6.5,12.1-1.5,15.3c5.4,3.4,9.2-5.2,12.4-7.5
					c4.2-3.1,8.6,2.2,12.8,7.9c3.4,4.6,9.9,5.6,14.4,2.2c4.6-3.4,5.6-9.9,2.2-14.5C254,98.9,246.3,92,235.6,92.9z"/>
				<path style="fill:#251814;" d="M237.4,92.8c9.7,0,16.9,6.6,23,15c3.4,4.6,2.3,11.1-2.2,14.5c-1.8,1.4-4,2-6.1,2
					c-3.2,0-6.3-1.5-8.3-4.2c-3.4-4.5-6.8-8.8-10.2-8.8c-0.9,0-1.7,0.3-2.6,0.9c-2.7,2-5.7,8.3-9.9,8.3c-0.8,0-1.6-0.2-2.5-0.8
					c-5-3.2-0.7-11.7,1.5-15.3c3.9-6.5,7.8-11,15.4-11.6C236.2,92.8,236.8,92.8,237.4,92.8 M237.4,89.6c-0.7,0-1.4,0-2.2,0.1
					c-9.6,0.8-14.2,7.2-17.9,13.1c-5.5,9-5.7,16.3-0.5,19.5c1.3,0.9,2.8,1.3,4.2,1.3c4.2,0,7.1-3.5,9.4-6.4c0.8-1,1.7-2.1,2.3-2.5
					c0.4-0.3,0.6-0.3,0.7-0.3c2.1,0,6.2,5.5,7.7,7.5c2.5,3.4,6.6,5.5,10.8,5.5c2.9,0,5.7-0.9,8-2.7c5.9-4.4,7.3-12.9,2.9-18.9
					C257.9,99,249.8,89.6,237.4,89.6L237.4,89.6z"/>
			</g>
		</g>
		<g>
			<path style="fill:#6C2E00;" d="M243.1,113.1c0.8-0.1,1.6,0.1,2.3,0.4c-0.8-0.6-1.4-1.6-1.6-2.7c-0.3-2.3,1.3-4.4,3.6-4.7
				c1.1-0.1,2,0.2,2.9,0.7c-0.7-0.6-1.2-1.5-1.3-2.5c-0.3-2.3,1.9-4.2,4.2-4.5c0.2,0,0.4,0,0.6,0c4.1,3.7,6.1,7,6.7,7.8
				c3.4,4.6,2.3,11.1-2.3,14.5c-4.6,3.4-11,2.4-14.4-2.2c-1-1.4-2.4-2.9-3.9-4.4C240.4,114.4,241.6,113.3,243.1,113.1"/>
		</g>
	</g>
</g>
<g>
	<g>
		<g>
			<path style="fill:#00A0FA;" d="M184.4,314.3c-0.7,0-1.4,0-2.1,0c-25.7-0.6-43.7-9.9-52.2-27c-7.8-15.8-7.3-33.3-5.9-46.7
				c0.4-3.6,1.3-7.5,2.2-11.8c1.5-6.6,3-13.4,2.5-18.9c-0.6-6-2.3-9.7-4.4-14.4c-1-2.1-2-4.3-3-7c-5.1-13.3,0.3-32.3,2.8-39.9
				c4.7-13.9,12.7-25.3,22.1-31.4c13.4-8.6,28.1-13.3,41.5-13.3c1.9,0,3.7,0.1,5.6,0.3l5.3,0.5c14.6,1.5,30.4,9.6,43.4,22.3
				c8,7.8,13.6,20.7,15.4,35.2c1.8,15-0.4,29.5-6.8,43c-0.7,1.6-1.7,3.2-2.6,4.7l-0.5,0.9c0.2,1.7,0.7,3.4,1.2,5.1
				c0.3,1.1,0.6,2.1,0.9,3.2c0.7,3.1,1.6,6.2,2.5,9.2c1.7,6.2,3.5,12.7,4.3,19.3c1.4,12.3-0.6,29.6-8.1,40.6
				c-8.8,12.8-25.4,21.8-45.7,24.7c-2.4,0.3-5,0.6-7.5,0.7l-5,0.3l-0.4-1.5l0.1,1.5C188,314.3,186.2,314.3,184.4,314.3z"/>
			<path d="M187.8,104c1.9,0,3.7,0.1,5.6,0.3l5.3,0.5c14.6,1.5,30.4,9.6,43.4,22.3c8,7.8,13.6,20.7,15.4,35.2
				c1.8,15-0.4,29.5-6.8,43c-0.7,1.6-1.7,3.2-2.6,4.7l-0.5,0.9c0.2,1.7,0.7,3.4,1.2,5.1c0.3,1.1,0.6,2.1,0.9,3.2
				c0.7,3.1,1.6,6.2,2.5,9.2c1.7,6.2,3.5,12.7,4.3,19.3c1.4,12.3-0.6,29.6-8.1,40.6c-8.8,12.8-25.4,21.8-45.7,24.7
				c-2.4,0.3-5,0.6-7.5,0.7l-5,0.3l-0.4-1.5l0.1,1.5c-1.8,0.1-3.6,0.2-5.4,0.2c-0.7,0-1.4,0-2.1,0c-25.7-0.6-43.7-9.9-52.2-27
				c-7.8-15.8-7.3-33.3-5.9-46.7c0.4-3.6,1.3-7.5,2.2-11.8c1.5-6.6,3-13.4,2.5-18.9c-0.6-6-2.3-9.7-4.4-14.4c-1-2.1-2-4.3-3-7
				c-5.1-13.3,0.3-32.3,2.8-39.9c4.7-13.9,12.7-25.3,22.1-31.4C159.7,108.8,174.4,104,187.8,104 M187.8,100.9
				c-14,0-29.3,4.9-43.2,13.8c-10,6.4-18.5,18.5-23.4,33c-2.6,7.9-8.2,27.8-2.8,42c1.1,2.8,2.1,5.1,3.1,7.2
				c2.1,4.6,3.6,7.9,4.2,13.3c0.5,5-1,11.5-2.4,17.9c-1,4.3-1.9,8.4-2.3,12.1c-1.4,13.8-1.9,31.9,6.3,48.4c9,18.2,28,28.1,54.9,28.7
				c0.7,0,1.5,0,2.2,0c1.1,0,2.1,0,3.2-0.1l0,0l1.5-0.1c0.3,0,0.6,0,0.9,0l3.1-0.2l0,0l2.1-0.1c2.6-0.2,5.3-0.4,7.8-0.8
				c21.1-3,38.6-12.4,47.8-26c8-11.6,10.1-29.8,8.7-42.7c-0.8-6.8-2.6-13.4-4.4-19.7c-0.8-2.9-1.7-6.1-2.4-9.2
				c-0.3-1.2-0.6-2.4-0.9-3.4c-0.4-1.3-0.7-2.5-1-3.7c0.9-1.5,1.9-3.3,2.7-5c6.6-14.1,8.9-29.1,7-44.7c-1.9-15.2-7.8-28.7-16.3-37.1
				c-13.5-13.2-30-21.6-45.3-23.1l-5.3-0.5C191.7,101,189.8,100.9,187.8,100.9L187.8,100.9z"/>
		</g>
	</g>
</g>
<g>
	<path style="fill:#00A0FA;" d="M193.2,105.8h0.3C193.3,105.8,193.2,105.8,193.2,105.8z"/>
</g>
<g>
	<g>
		<g>
			<path style="fill-rule:evenodd;clip-rule:evenodd;fill:#FFFFFF;" d="M197.4,217.3c-1.6,0-3.2-0.1-4.7-0.2h-0.6
				c-9.9-0.7-15.4-1.1-25.5-2.4l-6.6-0.9c-19.4-2.6-34-13-39.1-27.7c-2.1-6.1-2.2-13.3-0.4-20.4c1.9-7.2,3.2-10.3,7.7-15.5
				c0.5-0.6,1.2-1.1,1.9-1.6c1-0.7,2.3-1.7,2.4-2.4c0,0,1-3.1,1.3-4c0.2-0.5,0.3-1,0.5-1.4c1.3-4.4,3.3-8.5,5.8-12
				c6-8.6,17.7-13.6,26.4-16.3c5.8-1.8,12.1-2.8,18.2-3c0.5,0,1.1,0,1.6,0c7.6,0,16.9,1.5,23.6,3.8c3.9,1.3,7.6,2.9,10.9,4.8
				c9.5,5.2,16.5,12.5,20.2,21c1.7,3.9,2.8,8.3,3.2,12.9c0.2,2,0.3,4.6,0.4,7.1c0.1,1.7,0.2,4.9,0.3,6c0.3,3.5,0.4,5.4,0.5,7.1
				c0.1,1.3,0.1,2.6,0.3,4.4c0.6,6.9-2.9,15.7-6.3,21.5C231.4,212.2,212.4,217.3,197.4,217.3L197.4,217.3z"/>
			<path d="M186.4,109.5c7.6,0,16.9,1.5,23.6,3.8c3.9,1.3,7.6,2.9,10.9,4.8c9.5,5.2,16.5,12.5,20.2,21c1.7,3.9,2.8,8.3,3.2,12.9
				c0.2,2,0.3,4.6,0.4,7.1c0.1,1.7,0.2,4.9,0.3,6c0.3,3.5,0.4,5.4,0.5,7.1c0.1,1.3,0.1,2.6,0.3,4.4c0.6,6.9-2.9,15.7-6.3,21.5
				c-8.3,14.1-27.2,19.2-42.2,19.2l0,0c-1.6,0-3.2-0.1-4.7-0.2H192c-9.9-0.7-15.4-1.1-25.5-2.4l-6.6-0.9c-19.4-2.6-34-13-39.1-27.7
				c-2.1-6.1-2.2-13.3-0.4-20.4c1.9-7.2,3.2-10.3,7.7-15.5c0.5-0.6,1.2-1.1,1.9-1.6c1-0.7,2.3-1.7,2.4-2.4c0,0,1-3.1,1.3-4
				c0.2-0.5,0.3-1,0.5-1.4c1.3-4.4,3.3-8.5,5.8-12c6-8.6,17.7-13.6,26.4-16.3c5.8-1.8,12.1-2.8,18.2-3
				C185.3,109.5,185.8,109.5,186.4,109.5 M186.4,106.3c-0.6,0-1.1,0-1.7,0c-6.5,0.2-13.1,1.3-19.1,3.1c-9.2,2.8-21.5,8.2-28.1,17.5
				c-2.7,3.8-4.7,8.1-6.2,12.9c-0.1,0.4-0.3,0.9-0.4,1.3c-0.3,0.7-1,3-1.3,3.7c-0.3,0.3-1,0.8-1.4,1.1c-0.9,0.6-1.7,1.3-2.5,2.1
				c-4.9,5.7-6.4,9.1-8.3,16.7c-2,7.7-1.8,15.6,0.4,22.2c5.4,15.9,21,27.1,41.6,29.9l6.6,0.9c10.2,1.4,15.7,1.7,25.7,2.4h0.6
				c1.6,0.1,3.3,0.2,5,0.2c15.9,0,36-5.4,45-20.7c1.8-3.1,7.6-13.8,6.7-23.4c-0.2-1.8-0.2-2.9-0.3-4.2v-0.1
				c-0.1-1.7-0.2-3.6-0.5-7.2c-0.1-1.1-0.2-4.7-0.3-5.8c-0.1-2.5-0.3-5.2-0.5-7.3c-0.5-4.9-1.6-9.6-3.5-13.9
				c-4-9.2-11.5-17-21.6-22.5c-3.5-1.9-7.4-3.6-11.4-5C204,107.9,194.3,106.3,186.4,106.3L186.4,106.3z"/>
		</g>
	</g>
</g>
<g>
	<g>
		<g>
			<path style="fill-rule:evenodd;clip-rule:evenodd;fill:#FFB9B6;" d="M194.8,177c-0.9,9.2,5.7,17.5,14.9,18.4s17.4-5.8,18.3-15
				c0.9-9.2-5.7-17.5-14.9-18.4C203.9,161.1,195.7,167.8,194.8,177"/>
		</g>
		<g>
			<path style="fill-rule:evenodd;clip-rule:evenodd;fill:#FFB9B6;" d="M122.6,170.3c-0.5,9.3,3.8,17.2,11.3,17.5
				c9.2,0.4,16-7.9,16.7-15.1c0.9-9.2-2.6-18.2-11.8-18.7C129.7,153.5,122.8,162.7,122.6,170.3z"/>
		</g>
	</g>
	<g>
		<path style="fill-rule:evenodd;clip-rule:evenodd;" d="M168,166.5c-0.1,1.2,1,2.3,2.6,2.5s3-0.7,3.1-1.9s-1-2.3-2.6-2.5
			C169.5,164.4,168.1,165.3,168,166.5"/>
	</g>
	<g>
		<path style="fill-rule:evenodd;clip-rule:evenodd;fill:#DF3C46;" d="M186.2,180c-0.8,4.4-5.3,14.8-15.9,12.4
			c-11.8-1.7-12.4-12-12.3-15.9"/>
		<path d="M173.4,194c-1.1,0-2.2-0.1-3.3-0.4c-8.7-1.2-13.5-7.3-13.3-17.1c0-0.7,0.6-1.2,1.3-1.2l0,0c0.7,0,1.2,0.6,1.2,1.3
			c-0.1,5.9,1.8,13.3,11.3,14.7c3.2,0.7,6,0.3,8.3-1.3c4-2.6,5.7-7.7,6.1-10.1c0.1-0.7,0.8-1.1,1.4-1c0.7,0.1,1.1,0.8,1,1.4
			c-0.5,2.9-2.6,8.6-7.2,11.7C178.2,193.3,175.9,194,173.4,194z"/>
	</g>
	<g>
		<path style="fill-rule:evenodd;clip-rule:evenodd;fill:#FFFFFF;" d="M162.3,178.4l-0.1,0.9c-0.1,0.7,0.5,1.4,1.3,1.6l16.3,2.3
			c0.8,0.1,1.6-0.4,1.7-1.1l0.1-0.6c0.1-0.7-0.3-1.3-1-1.5c-1.9-0.6-5.5-1.9-7.1-3.5c-0.5-0.4-1.1-0.6-1.7-0.4
			c-1.5,0.6-4.4,1.5-7.9,1.3C163.1,177.2,162.4,177.7,162.3,178.4z"/>
	</g>
	<g>
		<path d="M182.8,181.9c-5.4,0-11.1-2.9-14-6c-0.6-0.6-0.5-1.6,0.1-2.1c0.6-0.6,1.6-0.5,2.1,0.1c3.1,3.4,11.1,6.7,16.1,4
			c1.3-0.7,2.2-1.5,2.4-1.9c-0.4-0.6-0.2-1.5,0.4-1.9c0.7-0.5,1.6-0.4,2.1,0.3c0.5,0.6,0.6,1.4,0.5,2.1c-0.4,1.8-2.7,3.3-4,4
			C186.8,181.5,184.8,181.9,182.8,181.9z"/>
	</g>
	<g>
		<path d="M162.9,179c-2.8,0-5.7-1-7.8-3.3c-2.3-2.6-2.9-5-1.5-6.5c0.6-0.6,1.5-0.6,2.1-0.1s0.6,1.4,0.1,2c0,0.4,0.5,1.4,1.5,2.5
			c3,3.3,8.6,2.8,11.6,0.1c0.6-0.6,1.6-0.5,2.1,0.1c0.6,0.6,0.5,1.6-0.1,2.1C168.9,177.9,165.9,179,162.9,179z"/>
	</g>
	<path style="fill:#251814;" d="M155.1,161.4c-0.7,0-1.3-0.5-1.4-1.3c-0.1-0.7,0.5-1.4,1.3-1.5l3-0.2l-2.6-1.7
		c-0.6-0.4-0.8-1.3-0.4-1.9c0.4-0.6,1.3-0.8,1.9-0.4l5.9,4c0.5,0.3,0.7,0.9,0.6,1.5s-0.6,1-1.2,1L155.1,161.4L155.1,161.4z"/>
	<path style="fill:#251814;" d="M194.7,167.3c-0.2,0-0.4,0-0.6-0.1l-6.4-3.2c-0.5-0.3-0.8-0.9-0.7-1.5s0.6-1,1.2-1.1l7.4-0.8
		c0.8-0.1,1.4,0.5,1.5,1.2s-0.5,1.4-1.2,1.5l-2.9,0.3l2.3,1.1c0.7,0.3,0.9,1.2,0.6,1.8C195.7,167,195.2,167.3,194.7,167.3z"/>
</g>
<g>
	<g>
		<g>
			<path style="fill:#FFD400;" d="M203.8,158.5l30.4-69.4c1.5-3.5,5.5-5.3,9.1-4.1l19.4,6.2c3.9,1.3,6.1,5.4,4.8,9.4l-6.8,21.3
				L286,130c4.3,1.4,6.4,6.3,4.4,10.4L270,181.7c-1.6,3.3-5.4,4.9-8.9,3.8l-52.7-16.9C204.2,167.3,202.1,162.6,203.8,158.5z"/>
			<path style="fill:#251814;" d="M263.3,187.4c-0.9,0-1.8-0.1-2.7-0.4l-52.7-16.9c-2.4-0.8-4.4-2.6-5.5-4.9c-1-2.3-1.1-5,0-7.3l0,0
				l30.4-69.4c1.9-4.2,6.6-6.4,11-5l19.4,6.2c4.7,1.5,7.3,6.6,5.8,11.3l-6.3,19.8l23.8,7.6c2.5,0.8,4.5,2.6,5.5,5.1
				c1,2.4,0.9,5.1-0.2,7.5l-20.3,41.3C269.9,185.5,266.6,187.4,263.3,187.4z M205.3,159.2L205.3,159.2c-0.7,1.5-0.7,3.3,0,4.8
				s2,2.7,3.6,3.2l52.7,16.9c2.7,0.9,5.8-0.4,7.1-3l20.3-41.3c0.8-1.5,0.8-3.3,0.1-4.9c-0.7-1.6-2-2.8-3.6-3.3l-25.3-8.1
				c-0.4-0.1-0.7-0.4-0.9-0.8s-0.2-0.8-0.1-1.2l6.8-21.3c1-3.1-0.7-6.4-3.8-7.4l-19.4-6.2c-2.9-0.9-6,0.5-7.2,3.2L205.3,159.2z"/>
		</g>
		<g>
			<path style="fill:#FFD400;" d="M241.6,213.5l-31.4-10.1c-1.2-0.4-1.8-1.7-1.5-2.8l2.3-7c0.4-1.2,1.7-1.8,2.8-1.5l31.4,10.1
				c1.2,0.4,1.8,1.7,1.5,2.8l-2.3,7C244.1,213.2,242.8,213.8,241.6,213.5z"/>
			<path style="fill:#251814;" d="M240.7,214.5c-0.6,0-1.3-0.1-1.9-0.3l0,0l-26.7-8.6c-3.3-1.1-5.1-4.6-4.1-7.9l0.7-2.3
				c1.1-3.3,4.6-5.1,7.9-4.1l26.7,8.6c3.3,1.1,5.1,4.6,4.1,7.9l-0.7,2.3c-0.5,1.6-1.6,2.9-3.1,3.7
				C242.7,214.3,241.7,214.5,240.7,214.5z M239.8,211.2c0.8,0.3,1.7,0.2,2.4-0.2c0.8-0.4,1.3-1,1.6-1.8l0.7-2.3c0.5-1.7-0.4-3.4-2-4
				l-26.7-8.6c-1.7-0.5-3.4,0.4-4,2l-0.7,2.3c-0.5,1.7,0.4,3.4,2,4L239.8,211.2z"/>
		</g>
		<g>
			<path style="fill:#FFD400;" d="M247.9,193.8l-31.4-10.1c-1.2-0.4-1.8-1.7-1.5-2.8l2.3-7c0.4-1.2,1.7-1.8,2.8-1.5l31.4,10.1
				c1.2,0.4,1.8,1.7,1.5,2.8l-2.3,7C250.4,193.5,249.1,194.2,247.9,193.8z"/>
			<path style="fill:#251814;" d="M247,194.8c-0.6,0-1.3-0.1-1.9-0.3l-26.7-8.6c-1.6-0.5-2.9-1.6-3.7-3.1s-0.9-3.2-0.4-4.8l0.7-2.3
				c1.1-3.3,4.6-5.1,7.9-4.1l26.7,8.6c1.6,0.5,2.9,1.6,3.7,3.1s0.9,3.2,0.4,4.8l-0.7,2.3c-0.5,1.6-1.6,2.9-3.1,3.7
				C249,194.6,248,194.8,247,194.8z M221.1,174.5c-1.3,0-2.6,0.9-3,2.2l-0.7,2.3c-0.3,0.8-0.2,1.7,0.2,2.4c0.4,0.8,1,1.3,1.8,1.6
				l26.7,8.6c0.8,0.3,1.7,0.2,2.4-0.2c0.8-0.4,1.3-1,1.6-1.8l0.7-2.3c0.3-0.8,0.2-1.7-0.2-2.4c-0.4-0.8-1-1.3-1.8-1.6l-26.7-8.6
				C221.7,174.5,221.4,174.5,221.1,174.5z"/>
		</g>
		<g>
			
				<rect x="226.6" y="181.7" transform="matrix(0.3052 -0.9523 0.9523 0.3052 -23.2948 353.9829)" style="fill:#FFD400;" width="8.7" height="22.5"/>
			<path style="fill:#251814;" d="M240.3,202.1c-0.2,0-0.3,0-0.5-0.1l-21.4-6.9c-0.8-0.3-1.3-1.1-1-2l2.7-8.3
				c0.1-0.4,0.4-0.7,0.8-0.9c0.4-0.2,0.8-0.2,1.2-0.1l21.4,6.9c0.8,0.3,1.3,1.1,1,2l-2.7,8.3c-0.1,0.4-0.4,0.7-0.8,0.9
				C240.8,202,240.5,202.1,240.3,202.1z M220.8,192.7l18.4,5.9l1.7-5.3l-18.4-5.9L220.8,192.7z"/>
		</g>
		<g>
			<path style="fill:#FFD400;" d="M249.9,230.1l-56.1-18c-1.6-0.5-2.6-2.3-2-3.9l2.1-6.6c0.5-1.6,2.3-2.6,3.9-2l56.1,18
				c1.6,0.5,2.6,2.3,2,3.9l-2.1,6.6C253.3,229.7,251.6,230.6,249.9,230.1z"/>
			<path style="fill:#251814;" d="M248.7,230.9c-0.8,0-1.7-0.1-2.5-0.4l-49.5-15.9c-2.1-0.7-3.8-2.1-4.8-4s-1.2-4.1-0.5-6.2
				c1.4-4.3,6-6.7,10.2-5.3l49.5,15.9c2.1,0.7,3.8,2.1,4.8,4s1.2,4.1,0.5,6.2c-0.7,2.1-2.1,3.8-4,4.8
				C251.2,230.6,249.9,230.9,248.7,230.9z M199.1,201.9c-2.1,0-4.1,1.4-4.8,3.5c-0.4,1.3-0.3,2.7,0.3,3.9s1.6,2.1,2.9,2.5l49.5,15.9
				c1.3,0.4,2.6,0.3,3.8-0.3s2.1-1.6,2.5-2.9c0.4-1.3,0.3-2.7-0.3-3.9s-1.6-2.1-2.9-2.5l-49.5-15.9
				C200.1,202,199.6,201.9,199.1,201.9z"/>
		</g>
		<g>
			<path style="fill:#FFD400;" d="M238.2,266.5l-56.1-18c-1.6-0.5-2.6-2.3-2-3.9l2.1-6.6c0.5-1.6,2.3-2.6,3.9-2l56.1,18
				c1.6,0.5,2.6,2.3,2,3.9l-2.1,6.6C241.7,266.1,239.9,267,238.2,266.5z"/>
			<path style="fill:#251814;" d="M237,267.3c-0.8,0-1.7-0.1-2.5-0.4l0,0L185,251.1c-4.3-1.4-6.6-6-5.3-10.2c0.7-2.1,2.1-3.8,4-4.8
				s4.1-1.2,6.2-0.5l49.5,15.9c4.3,1.4,6.6,6,5.3,10.2C243.6,265.1,240.4,267.3,237,267.3z M235.5,263.9c2.6,0.8,5.4-0.6,6.3-3.2
				c0.9-2.7-0.6-5.5-3.2-6.3L189,238.5c-1.3-0.4-2.6-0.3-3.8,0.3s-2.1,1.6-2.5,2.9c-0.4,1.3-0.3,2.7,0.3,3.9s1.6,2.1,2.9,2.5
				L235.5,263.9z"/>
		</g>
		<g>
			<path style="fill:#FFD400;" d="M229.3,237.9c2.8-8.7,10.5-11.1,10.5-11.1l-17.9-5.7l-17.9-5.7c0,0,4.9,6.4,2.1,15.1
				c-2.8,8.7-9.7,8.7-9.7,8.7l17.9,5.7l17.9,5.7C232.1,250.7,226.5,246.6,229.3,237.9z"/>
			<path style="fill:#251814;" d="M232.1,252.2c-0.2,0-0.3,0-0.5-0.1l-35.7-11.4c-0.7-0.2-1.2-1-1.1-1.7c0.1-0.8,0.8-1.3,1.5-1.3
				c0.2,0,5.9-0.2,8.2-7.7c2.5-7.8-1.8-13.6-1.8-13.7c-0.4-0.5-0.4-1.3,0-1.9c0.4-0.6,1.1-0.8,1.8-0.6l35.7,11.4
				c0.7,0.2,1.1,0.8,1.1,1.5s-0.5,1.3-1.1,1.5c-0.3,0.1-7,2.3-9.4,10l0,0c-2.4,7.5,2.2,11,2.3,11c0.6,0.5,0.8,1.3,0.5,2
				C233.2,251.9,232.7,252.2,232.1,252.2z M201.5,239.2l26.5,8.5c-1.1-2.4-1.6-5.8-0.2-10.3c1.7-5.4,5.2-8.5,7.8-10.3l-28.4-9.1
				c1.2,3,2.1,7.5,0.4,12.9C206.2,235.4,203.7,237.9,201.5,239.2z M229.3,237.9L229.3,237.9L229.3,237.9z"/>
		</g>
	</g>
	<path style="fill:#251814;" d="M235.7,170.2c-0.2,0-0.3,0-0.5-0.1c-3.5-1.2-6.9-2.7-10-4.7c-1.1-0.7-2.4-1.6-3.3-3
		c-1.5-2.5-0.8-5.4-0.1-7.8c0.6-1.9,1.3-3.7,3-4.9c0.9-0.6,2-0.8,3.3-0.9c-1.4-0.8-2.6-1.8-3.3-3.2c-0.5-1.1-0.6-2.3-0.6-3.4
		c-0.1-3.9,1-6.8,3.2-8.4c1.6-1.2,3.8-1.7,6.4-1.4c-0.5-0.7-1-1.5-1.2-2.4c-0.5-1.8-0.3-4,0.6-6.2c1.2-3,3.4-5.1,5.9-5.7
		c1.4-0.4,2.8-0.2,4.1-0.1c1.9,0.2,7.1,1.2,12.6,2.3c5.2,1,10.5,2.1,12.3,2.3c0.9,0.1,1.5,0.9,1.4,1.7c-0.1,0.9-0.9,1.5-1.7,1.4
		c-1.9-0.2-7.1-1.2-12.6-2.3c-5.2-1-10.5-2.1-12.3-2.3c-1-0.1-2.1-0.2-3,0c-2.2,0.5-3.3,2.9-3.8,3.9c-0.5,1.1-0.9,2.7-0.5,4.1
		c0.7,2.5,3.7,3.8,6.4,5l5.4,2.2c0.6,0.3,1,0.9,1,1.6c-0.1,0.7-0.6,1.3-1.3,1.4c-2.3,0.5-5.5-0.9-8.3-2.1c-1.1-0.5-2.1-0.9-2.8-1.1
		c-3-0.9-5.2-0.8-6.6,0.2c-1.6,1.3-2,3.9-1.9,5.9c0,0.9,0.1,1.6,0.3,2.1c0.5,1,1.6,1.6,2.7,2.2c2.9,1.5,6,2.8,9.1,3.8
		c0.7,0.2,1.1,0.8,1.1,1.5s-0.5,1.3-1.2,1.5c-1.8,0.5-4.2,0-6.7-0.6c-2.2-0.5-5-1.1-6-0.4c-0.9,0.7-1.4,2-1.8,3.3
		c-0.5,1.7-1,3.8-0.2,5.2c0.5,0.8,1.4,1.4,2.2,1.9c2.9,1.8,6.1,3.3,9.4,4.3c0.8,0.3,1.3,1.2,1,2C237,169.8,236.4,170.2,235.7,170.2z
		"/>
</g>
<g>
	<g>
		<path style="fill:#0083CB;" d="M256.2,195.5c-1.6-3.5-2.1-10.9-1.3-14.3c1.1-4.6,4-9.4,8.4-11.5c6.9-3.3,18.4,1.5,19.6,9.3
			c0.7,4.4-1.1,9.2-3.4,12.8c-2.4,3.7-6.8,7.2-11.3,7.9"/>
		<path d="M268.3,201.3c-0.8,0-1.4-0.5-1.5-1.3c-0.1-0.9,0.4-1.7,1.3-1.8c3.7-0.6,7.7-3.5,10.2-7.2c2.5-3.8,3.7-8.2,3.1-11.7
			c-0.4-2.9-2.6-5.5-5.9-7.2c-3.8-2-8.3-2.4-11.5-0.9c-3.5,1.7-6.5,5.8-7.6,10.4c-0.7,3.1-0.3,10.1,1.2,13.3c0.4,0.8,0,1.7-0.8,2.1
			c-0.8,0.4-1.7,0-2.1-0.8c-1.8-3.9-2.2-11.7-1.4-15.3c1-4.4,4-10,9.3-12.6c4-1.9,9.6-1.5,14.3,1c4.2,2.2,7,5.7,7.6,9.5
			c0.7,4.2-0.7,9.4-3.6,13.9s-7.7,7.8-12.3,8.6C268.4,201.3,268.4,201.3,268.3,201.3z"/>
	</g>
</g>
<g>
	<g>
		<g>
			<g>
				<path style="fill-rule:evenodd;clip-rule:evenodd;fill:#FFFFFF;" d="M126.7,212.3c1.6-2,4.9-1.8,6.4,0.3
					c4.3,6,14.4,16.9,26.8,18.9l0,0c0,0-3.5,3.2-3.1,9.3c0.4,6,2.7,7.8,2.7,7.8C134.5,243.3,118.9,221.9,126.7,212.3z"/>
			</g>
			<g>
				<path style="fill-rule:evenodd;clip-rule:evenodd;fill:#0083CB;" d="M154.2,240c-0.4-6,5.6-8.4,5.6-8.4l0,0
					c6.9,1.1,14.5-0.6,22.2-7.4c4.5-4,4.9-7.2,11.6-9.2c3.8-1.1,7.5,0.2,10.2,2.8c2.7,2.7,3.9,5.5,4,8.2c0.3,8.5-4.8,10.5-11.5,15.4
					c-9.6,7-24.8,9.8-36.9,7.2C159.5,248.6,154.6,246,154.2,240z"/>
			</g>
		</g>
	</g>
	<path d="M129.7,210.9c1.3,0,2.6,0.6,3.4,1.7c4.3,6,14.4,16.9,26.8,18.9c1.3,0.2,2.5,0.3,3.8,0.3c5.8,0,12-2.1,18.3-7.7
		c4.5-4,4.9-7.2,11.6-9.2c0.9-0.3,1.9-0.4,2.8-0.4c2.8,0,5.4,1.2,7.5,3.2c2.7,2.7,3.9,5.5,4,8.2c0.3,8.5-4.8,10.5-11.5,15.4
		c-7.2,5.3-17.6,8.2-27.5,8.2c-3.2,0-6.4-0.3-9.4-1c-24.9-5.3-40.5-26.7-32.7-36.3C127.5,211.4,128.6,210.9,129.7,210.9
		 M129.7,207.8L129.7,207.8c-2.2,0-4.1,0.9-5.4,2.5c-3,3.6-3.5,8.6-1.6,14.1c4.9,13.9,21.9,24.2,36.1,27.3c3.2,0.7,6.6,1,10.1,1
		c10.9,0,21.9-3.3,29.4-8.8c1-0.7,1.9-1.4,2.8-2c5.3-3.7,10.3-7.1,10-16.1c-0.1-3.8-1.8-7.3-4.9-10.4c-2.7-2.7-6.1-4.2-9.7-4.2
		c-1.2,0-2.5,0.2-3.7,0.5c-5.4,1.6-7.6,4.1-9.7,6.6c-0.9,1.1-1.8,2.1-3.1,3.3c-5.2,4.6-10.6,6.9-16.2,6.9c-1.1,0-2.2-0.1-3.4-0.3
		c-13-2.1-22.9-15-24.7-17.6C134.3,208.9,132.1,207.8,129.7,207.8L129.7,207.8z"/>
</g>
<g>
	<g>
		<path style="fill:#FF0000;" d="M94.3,123.1c2.4,2.8,5.6,4.9,8.7,6.9c2.5-2.1,5.1-4.3,7.6-6.4c-5.4-2.4-8.8-8.5-8.1-14.3
			c-3.8,0.1-7.6,0.2-11.4,0.3C90.6,114.5,91,119.2,94.3,123.1z"/>
		<path style="fill:#251814;" d="M103,131.6c-0.3,0-0.6-0.1-0.8-0.2c-3.2-2-6.5-4.2-9.1-7.2l0,0c-4.2-4.9-4-10.8-3.5-14.7
			c0.1-0.8,0.7-1.4,1.5-1.4l11.4-0.3c0.5,0,0.9,0.2,1.2,0.5c0.3,0.3,0.4,0.8,0.4,1.2c-0.7,5.1,2.4,10.5,7.1,12.6
			c0.5,0.2,0.8,0.7,0.9,1.2s-0.1,1.1-0.5,1.4l-7.6,6.4C103.8,131.4,103.4,131.6,103,131.6z M95.5,122.1c2,2.4,4.7,4.2,7.4,6l5-4.2
			c-4.3-2.8-7-7.8-7-12.9l-8.3,0.2C92.2,115.8,93.2,119.3,95.5,122.1L95.5,122.1z"/>
	</g>
	<g>
		<path style="fill:#00FF00;" d="M82.3,338.8c2.4,2.8,5.6,4.9,8.7,6.9c2.5-2.1,5.1-4.3,7.6-6.4c-5.4-2.4-8.8-8.5-8.1-14.3
			c-3.8,0.1-7.6,0.2-11.4,0.3C78.6,330.2,79,334.9,82.3,338.8z"/>
		<path style="fill:#251814;" d="M91,347.3c-0.3,0-0.6-0.1-0.8-0.2c-3.2-2-6.5-4.2-9.1-7.2c-4.2-4.9-4-10.8-3.5-14.7
			c0.1-0.8,0.7-1.4,1.5-1.4l11.4-0.3c0.5,0,0.9,0.2,1.2,0.5c0.3,0.3,0.4,0.8,0.4,1.2c-0.7,5.1,2.4,10.6,7.1,12.6
			c0.5,0.2,0.8,0.7,0.9,1.2s-0.1,1.1-0.5,1.4l-7.6,6.4C91.8,347.2,91.4,347.3,91,347.3z M80.6,326.8c-0.4,4.7,0.6,8.2,2.9,11l0,0
			c2,2.4,4.7,4.2,7.4,6l5-4.2c-4.3-2.8-7-7.8-7-12.9L80.6,326.8z"/>
	</g>
	<g>
		<path style="fill:#FF6400;" d="M301.3,184.4c6.6,2.4,11.7,8.7,12.6,15.7c4.3-1.5,8.6-3.1,12.9-4.6c0.5-0.2,1-0.4,1.1-0.9
			c0.1-0.4-0.1-0.7-0.2-1.1c-2.3-4.9-4.8-10.1-9.5-12.8c-5.6-3.2-13.6-1.3-17.2,4.1"/>
		<path style="fill:#251814;" d="M313.9,201.6c-0.3,0-0.6-0.1-0.8-0.2c-0.4-0.3-0.7-0.7-0.7-1.1c-0.8-6.1-5-11.6-10.6-14
			c-0.5,0.3-1.1,0.3-1.6-0.1c-0.7-0.5-0.9-1.5-0.4-2.2c4.1-6.1,12.9-8.2,19.2-4.6c5.3,3,8.1,9.1,10.2,13.5c0.2,0.4,0.6,1.2,0.3,2.2
			c-0.4,1.3-1.6,1.7-2.1,1.9l-12.9,4.6C314.3,201.6,314.1,201.6,313.9,201.6z M304,183.8c5.6,2.8,9.8,8.1,11.1,14.2l11.1-3.9
			c-2.4-5.2-4.7-9.6-8.8-11.9C313.2,179.7,307.5,180.6,304,183.8z M326.4,194.4L326.4,194.4L326.4,194.4z"/>
	</g>
	<g>
		<path style="fill:#00FF00;" d="M75.7,170.5c-7-0.4-13.7-5.1-16.5-11.5c-3.7,2.7-7.4,5.3-11.1,8c-0.4,0.3-0.8,0.7-0.8,1.1
			c0,0.4,0.3,0.7,0.5,1c3.6,4.1,7.5,8.4,12.7,9.6c6.3,1.5,13.4-2.6,15.3-8.8"/>
		<path style="fill:#251814;" d="M63.3,180.6c-1,0-2-0.1-3-0.3c-6-1.4-10.4-6.4-13.6-10.1c-0.3-0.3-0.9-1-0.9-2
			c0-1.3,1.1-2.1,1.5-2.4l11.1-8c0.4-0.3,0.9-0.4,1.3-0.2c0.5,0.1,0.8,0.5,1,0.9c2.4,5.6,8,9.8,14.1,10.5c0.4-0.4,1-0.6,1.6-0.4
			c0.8,0.3,1.3,1.1,1,2C75.6,176.4,69.5,180.6,63.3,180.6z M49.2,168.2c3.7,4.3,7.2,7.9,11.8,9c4.7,1.1,9.9-1.3,12.4-5.4
			c-6.1-1.1-11.7-5.1-14.7-10.5L49.2,168.2z M48.9,167.8L48.9,167.8L48.9,167.8z"/>
	</g>
	<g>
		<path style="fill:#FFC200;" d="M78,256.1c5.8-1.7,12.5,2.8,13.2,8.7c2.7-1.9,5.7-3.8,8.4-5.7c-0.5-1.6-1.6-3.1-2.8-4.3
			c-4.2-4.1-9.2-8.6-15.1-8.3C80.8,249.3,79.6,253.7,78,256.1z"/>
		<path style="fill:#251814;" d="M91.2,266.4c-0.2,0-0.4,0-0.6-0.1c-0.5-0.2-0.9-0.7-0.9-1.3c-0.3-2.4-1.7-4.6-4-6.1s-4.9-2-7.2-1.3
			c-0.6,0.2-1.3,0-1.7-0.6c-0.4-0.5-0.4-1.2,0-1.8c1.2-1.7,2.1-4.8,2.9-7.2c0.2-0.7,0.4-1.4,0.6-2s0.8-1,1.4-1.1
			c6.4-0.3,11.8,4.4,16.3,8.8c1.6,1.6,2.7,3.3,3.2,5c0.2,0.6-0.1,1.3-0.6,1.7c-1.4,1-2.8,1.9-4.3,2.9c-1.4,0.9-2.8,1.9-4.2,2.8
			C91.8,266.3,91.5,266.4,91.2,266.4z M80.8,254.2c2.3,0,4.6,0.8,6.6,2.1c2.3,1.5,4,3.6,4.8,6c0.8-0.5,1.6-1,2.3-1.6
			c1.1-0.7,2.1-1.4,3.2-2.1c-0.4-0.9-1.1-1.8-2-2.6c-3.9-3.8-8.1-7.6-12.9-7.9c-0.1,0.3-0.2,0.6-0.3,0.9
			C82,250.7,81.4,252.5,80.8,254.2z"/>
	</g>
	<g>
		<path style="fill:#FFC200;" d="M314,119.6c1.3,5.9-3.7,12.3-9.7,12.5c1.7,2.9,3.4,5.9,5.1,8.8c1.7-0.3,3.2-1.3,4.5-2.5
			c4.4-3.9,9.2-8.6,9.4-14.5C320.6,122.9,316.3,121.4,314,119.6z"/>
		<path style="fill:#251814;" d="M309.4,142.6c-0.5,0-1.1-0.3-1.3-0.8c-0.9-1.5-1.7-3-2.6-4.5c-0.8-1.5-1.7-2.9-2.5-4.4
			c-0.3-0.5-0.3-1.1,0-1.6s0.8-0.8,1.3-0.8c2.4-0.1,4.7-1.4,6.4-3.5c1.7-2.2,2.3-4.7,1.8-7.1c-0.1-0.6,0.1-1.3,0.7-1.7
			c0.6-0.4,1.3-0.3,1.8,0.1c1.7,1.3,4.6,2.5,7,3.4c0.7,0.3,1.4,0.5,2,0.8s1,0.8,1,1.5c-0.2,6.5-5.2,11.5-9.9,15.6
			c-1.7,1.5-3.5,2.5-5.2,2.8C309.7,142.6,309.5,142.6,309.4,142.6z M306.9,133.4c0.5,0.8,0.9,1.6,1.4,2.4c0.6,1.1,1.3,2.2,1.9,3.3
			c0.9-0.4,1.8-1,2.8-1.8c4.1-3.6,8.1-7.6,8.8-12.3c-0.3-0.1-0.6-0.2-0.8-0.3c-1.7-0.7-3.5-1.4-5.1-2.2c-0.2,2.3-1.1,4.5-2.6,6.5
			C311.5,131.2,309.3,132.7,306.9,133.4z"/>
	</g>
	<g>
		<path style="fill:#FF4800;" d="M310.5,251.8c1.7,7.9-4.9,16.6-13,16.9c2.3,3.9,4.5,8,6.9,11.9c2.3-0.5,4.3-1.8,6.1-3.3
			c6-5.3,12.4-11.5,12.6-19.5C319.4,256.2,313.7,254.2,310.5,251.8z"/>
		<path style="fill:#251814;" d="M304.4,282.1c-0.5,0-1.1-0.3-1.3-0.8c-1.2-2-2.3-4-3.5-6c-1.1-2-2.2-4-3.4-5.9
			c-0.3-0.5-0.3-1.1,0-1.6s0.8-0.8,1.3-0.8c3.4-0.1,6.7-1.9,9-5c2.3-3,3.3-6.7,2.5-10c-0.1-0.6,0.1-1.3,0.7-1.7s1.3-0.3,1.8,0.1
			c2.3,1.8,6.3,3.4,9.6,4.6c0.9,0.4,1.8,0.7,2.6,1.1c0.6,0.2,1,0.8,1,1.5c-0.2,8.5-6.6,14.9-13.2,20.6c-2.2,2-4.5,3.2-6.8,3.7
			C304.6,282.1,304.5,282.1,304.4,282.1z M300.1,269.9c0.8,1.3,1.5,2.6,2.2,3.9c0.9,1.6,1.9,3.3,2.8,4.9c1.4-0.5,2.9-1.4,4.3-2.7
			c5.7-5.1,11.3-10.6,12-17.3c-0.5-0.2-1-0.4-1.5-0.6c-2.5-1-5.2-2.1-7.5-3.3c-0.1,3.2-1.3,6.4-3.4,9.2
			C306.6,267.1,303.5,269.2,300.1,269.9z"/>
	</g>
	<g>
		<circle style="fill:#FFFFFF;" cx="99.6" cy="204.2" r="5"/>
		<path style="fill:#251814;" d="M99.6,210.8c-3.6,0-6.6-2.9-6.6-6.6s2.9-6.6,6.6-6.6c3.6,0,6.6,2.9,6.6,6.6S103.2,210.8,99.6,210.8
			z M99.6,200.8c-1.9,0-3.4,1.5-3.4,3.4s1.5,3.4,3.4,3.4s3.4-1.5,3.4-3.4S101.5,200.8,99.6,200.8z"/>
	</g>
	<g>
		<circle style="fill:#FFFFFF;" cx="68" cy="279.2" r="5"/>
		<path style="fill:#251814;" d="M68,285.8c-3.6,0-6.6-2.9-6.6-6.6c0-3.6,2.9-6.6,6.6-6.6c3.6,0,6.6,2.9,6.6,6.6
			C74.5,282.9,71.6,285.8,68,285.8z M68,275.8c-1.9,0-3.4,1.5-3.4,3.4s1.5,3.4,3.4,3.4s3.4-1.5,3.4-3.4
			C71.4,277.4,69.8,275.8,68,275.8z"/>
	</g>
	<g>
		<circle style="fill:#FFFFFF;" cx="64" cy="108.2" r="3.9"/>
		<path style="fill:#251814;" d="M64,113.7c-3,0-5.5-2.5-5.5-5.5s2.5-5.5,5.5-5.5s5.5,2.5,5.5,5.5S67.1,113.7,64,113.7z M64,105.9
			c-1.3,0-2.4,1.1-2.4,2.4s1.1,2.4,2.4,2.4s2.4-1.1,2.4-2.4C66.4,106.9,65.3,105.9,64,105.9z"/>
	</g>
	<g>
		<circle style="fill:#FFFFFF;" cx="295.1" cy="345.7" r="3.9"/>
		<path style="fill:#251814;" d="M295.1,351.2c-3,0-5.5-2.5-5.5-5.5s2.5-5.5,5.5-5.5s5.5,2.5,5.5,5.5
			C300.6,348.8,298.2,351.2,295.1,351.2z M295.1,343.4c-1.3,0-2.4,1.1-2.4,2.4s1.1,2.4,2.4,2.4s2.4-1.1,2.4-2.4
			C297.5,344.4,296.4,343.4,295.1,343.4z"/>
	</g>
	<g>
		<circle style="fill:#FFFFFF;" cx="288.8" cy="99.5" r="5.9"/>
		<path style="fill:#251814;" d="M288.8,107c-4.1,0-7.5-3.3-7.5-7.5s3.3-7.5,7.5-7.5s7.5,3.3,7.5,7.5S293,107,288.8,107z
			 M288.8,95.2c-2.4,0-4.3,1.9-4.3,4.3s1.9,4.3,4.3,4.3s4.3-1.9,4.3-4.3S291.2,95.2,288.8,95.2z"/>
	</g>
	<g>
		<circle style="fill:#FFFFFF;" cx="289.2" cy="249.1" r="5.9"/>
		<path style="fill:#251814;" d="M289.2,256.6c-4.1,0-7.5-3.3-7.5-7.5c0-4.1,3.3-7.5,7.5-7.5s7.5,3.3,7.5,7.5
			C296.7,253.2,293.4,256.6,289.2,256.6z M289.2,244.8c-2.4,0-4.3,1.9-4.3,4.3c0,2.4,1.9,4.3,4.3,4.3s4.3-1.9,4.3-4.3
			C293.6,246.7,291.6,244.8,289.2,244.8z"/>
	</g>
</g>
<g>
	<g>
		<path d="M97.3,24.5c2.1,0,4.4,0.5,6.8,1.6c14.7,7,7.6,28.5-6.1,28.5c-2,0-4.2-0.5-6.5-1.6C75.9,45.6,83.5,24.5,97.3,24.5
			 M97.5,42.8c1.6,0,3.1-1.2,3.3-2.9c0.2-1.8-1.1-3.4-2.9-3.6c-0.1,0-0.3,0-0.4,0c-1.6,0-3.1,1.2-3.3,2.9c-0.2,1.8,1.1,3.4,2.9,3.6
			C97.3,42.8,97.4,42.8,97.5,42.8 M97.3,21.4c-8,0-15.2,6.1-17.2,14.5c-1.5,6.6,0.3,15.3,10,19.9c2.6,1.2,5.3,1.9,7.9,1.9
			c8,0,14.9-6,16.9-14.7c1.9-8.4-1.8-16.1-9.5-19.8C102.7,22,100,21.4,97.3,21.4L97.3,21.4z M97.5,39.7L97.5,39.7
			c-0.1,0-0.2-0.1-0.1-0.2c0-0.1,0.1-0.1,0.1-0.1C97.6,39.4,97.7,39.5,97.5,39.7C97.7,39.7,97.6,39.7,97.5,39.7L97.5,39.7z"/>
		<path d="M262.7,39.6c2.1,0,4.3,0.5,6.6,1.6c14.4,6.9,7.4,27.9-5.9,27.9c-2,0-4.1-0.5-6.4-1.5C241.7,60.2,249.1,39.6,262.7,39.6
			 M262.9,57.5c1.6,0,3-1.2,3.2-2.8c0.2-1.8-1.1-3.4-2.8-3.6c-0.1,0-0.3,0-0.4,0c-1.6,0-3,1.2-3.2,2.8c-0.2,1.8,1.1,3.4,2.8,3.6
			C262.6,57.5,262.8,57.5,262.9,57.5 M262.7,36.4c-7.9,0-15,6-16.9,14.3c-1.5,6.5,0.3,15.1,9.8,19.6c2.6,1.2,5.2,1.8,7.7,1.8
			c7.9,0,14.7-5.9,16.6-14.4c1.9-8.2-1.8-15.9-9.3-19.4C268,37.1,265.3,36.4,262.7,36.4L262.7,36.4z"/>
		<path d="M123.3,20.2c1,0,2,0.3,2.8,1c2.3,2.1,3.3,6.4,3.9,9.3c1.7,5.7,2.4,15,0.2,20.6c-0.8,2-2.1,3.2-3.7,3.2
			c-0.9,0-1.8-0.3-2.9-1c-2.9-1.9-2.8-4-3-7.1c-0.2-4.2-1.4-8.6-2.1-12.7c0-0.2-0.1-0.5-0.1-0.7c-0.5-2.7-1.3-6.8-0.3-9.3
			C118.9,21.5,121.2,20.2,123.3,20.2 M123.3,17.1c-3.4,0-6.8,2.2-8.1,5.2c-1.3,3.2-0.5,7.6,0,10.8v0.2l0.1,0.7
			c0.2,1.3,0.5,2.7,0.8,4c0.6,2.8,1.2,5.7,1.3,8.3v0.6c0.1,2.9,0.3,6.3,4.3,8.9c1.5,1,3.1,1.5,4.6,1.5c2.9,0,5.3-1.9,6.6-5.1
			c2.4-6.2,1.8-16,0-22.5c-0.7-3-1.8-8-4.8-10.8C126.9,17.7,125.2,17.1,123.3,17.1L123.3,17.1z"/>
		<path d="M108.3,58.2c0.5,0,1,0.1,1.5,0.3c4,1.8,1.6,9.6,6,10.5c0.1,0,0.3,0,0.4,0c0.9,0,1.8-0.6,2.6-1.1c3.2-2,7.3-4.7,11.3-4.7
			h0.1c2.3,0,5.3,2.2,5.4,4.5c0.1,0.8-0.1,1.5-0.5,2.3c-2.2,4.6-10.7,9.5-14.2,10.4c-1.3,0.3-2.5,0.5-3.8,0.5
			c-5.3,0-10.3-2.9-13-7.7c-1.5-2.6-2.8-6.7-2-9.7C102.7,61.2,105.5,58.2,108.3,58.2 M108.3,55L108.3,55c-4.3,0-8.3,4-9.3,7.8
			c-1.1,4.1,0.5,8.9,2.3,12.1c3.3,5.7,9.3,9.3,15.8,9.3c1.5,0,3.1-0.2,4.6-0.6c4.1-1.1,13.5-6.4,16.3-12.1c0.6-1.3,0.9-2.7,0.8-3.9
			c-0.3-4.1-4.9-7.4-8.5-7.4l0,0h-0.1c-4.7,0-9,2.7-12.5,4.9l-0.4,0.2c-0.2,0.2-0.6,0.4-0.9,0.5c-0.2-0.4-0.5-1.8-0.7-2.6
			c-0.5-2.6-1.2-6.1-4.6-7.6C110.2,55.2,109.2,55,108.3,55L108.3,55z"/>
		<path d="M165.8,52.7c0.8,0,1.5,0,2,0.1c6.3,0.9,10.9,6.1,11.6,12.3c0.3,2.8-0.1,6.7-1.9,9c-1.1,1.4-3.5,2.7-5.6,2.7
			c-1.1,0-2.1-0.3-2.9-1.2c-2.7-3,2.2-8.7-1.2-11.1c-0.5-0.3-1-0.4-1.5-0.4s-1,0.1-1.4,0.1c-1.9,0.3-4.2,0.6-6.4,0.6
			c-1.7,0-3.4-0.2-4.9-0.9c-1.9-0.9-3.6-3.8-2.9-5.9c0.2-0.7,0.7-1.3,1.3-1.8C154.9,53.9,161.7,52.7,165.8,52.7 M165.8,49.6
			c-3.7,0-11.9,0.9-16,4.5c-1.1,0.9-1.8,2-2.2,3.1c-1.3,3.8,1.4,8.3,4.6,9.8c1.7,0.8,3.8,1.2,6.2,1.2c2.3,0,4.5-0.3,6.5-0.6l0.4-0.1
			c0.2,0,0.4-0.1,0.6-0.1c0,0.6-0.2,1.5-0.4,2.1c-0.5,2.4-1.3,5.7,1.1,8.3c1.3,1.4,3.1,2.2,5.2,2.2c3,0,6.3-1.6,8.1-3.9
			c2.4-3.1,2.9-7.9,2.6-11.3c-0.8-7.8-6.7-14-14.3-15.1C167.6,49.7,166.8,49.6,165.8,49.6L165.8,49.6z"/>
		<path d="M153.4,22.2c0.6,0,1.2,0,1.8,0c1.4,0,2.9,0.3,4.4,0.8c3.2,1.1,5.9,3.5,5.4,7.3c-0.2,1.3-0.8,2.6-1.5,3.7
			c-0.7,1-1.6,3.3-1.6,3.3s7.3,3.6,5.7,7.8c-0.7,1.9-1.8,2.5-3.1,2.5c-2.7,0-6.1-2.8-7.5-3.1c-0.6-0.1-1.1-0.2-1.4-0.2
			c-1.1,0-1.2,0.7-2.8,2.2c-1.5,1.3-2.7,2.5-4.4,2.5c-0.5,0-1-0.1-1.6-0.3c-3.1-1.3-4.1-4.2-2.8-6.2c2.5-3.9,8.2-5.6,9.2-10.2
			c0.1-0.3,0.1-0.6-0.1-0.8c-0.1-0.2-0.4-0.2-0.6-0.2c-0.4,0-0.9,0-1.3,0c-1,0-2.1,0.1-3.1,0.1c-1.6,0-3.1-0.1-4.5-0.9
			c-2.3-1.2-2-5.8,0.1-7.2c1.3-0.9,3.4-0.7,4.9-0.8C150.1,22.2,151.7,22.2,153.4,22.2 M153.4,19c-1.7,0-3.5,0.1-5.2,0.2
			c-0.3,0-0.5,0-0.8,0c-1.6,0-3.8,0.1-5.6,1.3c-2,1.3-3.2,4-3.1,6.9c0.1,2.6,1.3,4.7,3.2,5.7c2.1,1.1,4.3,1.3,6,1.3c0,0,0,0,0.1,0
			c-0.6,0.5-1.2,1-1.9,1.5c-1.7,1.3-3.6,2.8-4.9,4.9c-1.1,1.7-1.3,3.8-0.7,5.7c0.7,2.2,2.5,4.1,5,5.1c0.9,0.4,1.8,0.6,2.7,0.6
			c2.9,0,4.9-1.8,6.5-3.3c0.6-0.5,1-0.9,1.3-1.3c0.1,0,0.1,0,0.2,0c0.3,0.1,0.9,0.5,1.4,0.8c1.9,1.1,4.3,2.4,6.8,2.4
			c2.8,0,5-1.7,6.1-4.6c1.5-4.1-1.1-7.7-4.6-10.2c0.1-0.1,0.2-0.3,0.2-0.4c1.1-1.7,1.7-3.4,1.9-5c0.6-4.8-2.2-8.8-7.5-10.7
			c-1.7-0.6-3.5-0.9-5.3-1C154.6,19.1,154,19,153.4,19L153.4,19z"/>
		<path d="M263.3,20.5c1.2,0,2.5,0.4,3.4,1.1c1.3,1.3,0.8,2.9,1.6,4.3c0.2,0.3,0.3,0.5,0.5,0.6c0.6,0.5,1.4,0.7,2.2,0.7
			c1,0,2.1-0.2,3-0.2l0,0c2,0,3.5,1.1,5,2.3c0.4,0.3,0.8,0.6,0.9,1.1c0.1,0.4,0.1,0.8,0,1.2c-0.2,1.3-0.5,2.7-1.4,3.6
			c-1,1.1-2.6,1.4-4.1,1.4c-0.3,0-0.7,0-1,0c-5.2,0-10.3-1.1-15.6-1.1c-0.1,0-0.2,0-0.3,0c-1.3,0-2.8,0.1-4.2,0.1
			c-2.1,0-4.2-0.2-6-1c-2.8-1.3-2.5-5.9,0.1-7.4c1.6-0.9,4.2-0.8,6-0.8c0.1,0,0.2,0,0.3,0c0.5,0,1,0,1.6,0c0.9,0,1.7-0.1,2.2-0.5
			c1-0.9-0.1-2.6,0.7-3.6c0.3-0.4,0.8-0.7,1.3-0.9c1.1-0.5,2.4-0.9,3.6-0.9C263.2,20.5,263.2,20.5,263.3,20.5 M263.3,17.4
			L263.3,17.4h-0.2c-1.6,0-3.2,0.4-4.9,1.2c-0.8,0.4-1.8,0.9-2.5,1.9c-0.7,1-0.9,2-0.9,2.8c-0.1,0-0.1,0-0.2,0c-0.3,0-0.6,0-0.8,0
			c-0.1,0-0.3,0-0.4,0c-0.3,0-0.7,0-1.1,0c-1.9,0-4.4,0.1-6.3,1.2c-2.4,1.3-3.8,4.1-3.7,7c0.1,2.7,1.5,4.9,3.8,6
			c2.5,1.1,5.2,1.3,7.3,1.3c0.8,0,1.5,0,2.3,0c0.7,0,1.3,0,2,0h0.3c2.4,0,4.8,0.3,7.4,0.5c2.7,0.3,5.5,0.6,8.3,0.6
			c0.4,0,0.7,0,1.1,0c2.7-0.1,4.8-0.9,6.2-2.4c1.7-1.7,2.1-3.9,2.3-5.4c0.1-0.8,0.2-1.7-0.2-2.6c-0.5-1.3-1.4-2.1-1.9-2.5
			c-1.8-1.5-4-3-7-3l0,0c-0.7,0-1.3,0.1-1.8,0.1c-0.4,0.1-0.9,0.1-1.2,0.1h-0.1c0-0.2-0.1-0.4-0.1-0.6c-0.2-1.1-0.5-2.7-1.9-4.1
			l-0.1-0.1l-0.1-0.1C267.3,18.1,265.3,17.4,263.3,17.4L263.3,17.4z"/>
		<path d="M176,18.9c1.7,0,3.4,0.6,4.4,1.4C183.5,22.9,182,31,182,31s1.3-0.1,3-0.1c2.7,0,6.1,0.4,5.9,2.3c-0.8,6.5-8,5.2-8,5.6
			c-0.3,3.7,0.3,6.1-1,9.6c-0.7,2-2.8,3.5-4.8,3.5c-1.9,0-3.7-1.3-4.2-4.7c-0.2-1.1-0.1-2.2,0-3.3c0.4-4.4,0.5-8.8,0.5-13.2
			c0-2,0-3.8-0.6-5.6c-0.6-1.6-1.8-3.2-0.5-4.8c0.2-0.2,0.3-0.4,0.6-0.5C173.7,19.2,174.8,18.9,176,18.9 M176,15.7L176,15.7
			c-2,0-3.7,0.5-5,1.6c-0.4,0.3-0.7,0.6-1,1c-2.3,2.8-1,5.8-0.4,7.2c0.1,0.2,0.2,0.5,0.3,0.7c0.4,1,0.4,2.2,0.4,3.7v0.8
			c0.1,4.3-0.1,8.6-0.4,12.9v0.1c-0.1,1.2-0.2,2.5,0,3.9c0.8,5.4,4.3,7.3,7.3,7.3c3.3,0,6.6-2.3,7.8-5.6c1-2.9,1.1-5.2,1.1-7.4
			c0-0.1,0-0.3,0-0.4c5.9-1,7.7-4.8,8.1-8c0.2-1.3-0.2-2.5-1.1-3.5c-1.3-1.5-3.7-2.2-7.4-2.3c0.1-3.2-0.3-7.6-3.2-9.9
			C180.8,16.6,178.3,15.7,176,15.7L176,15.7z"/>
		<path d="M287.9,33.2c1.9,0,3.9,0.7,5.1,1.7c3.5,3.1,1.5,12.1,1.5,12.1s0.9-0.1,2.1-0.1c3,0,8,0.4,7.7,2.8c-1.1,7.2-9.1,5.5-9.1,6
			c-0.5,4.1,0.1,6.8-1.4,10.7c-0.9,2.2-3.1,3.7-5.3,3.7c-2.2,0-4.2-1.5-4.7-5.4c-0.1-1.2,0-2.5,0.2-3.7c0.6-4.9,0.9-9.8,1-14.7
			c0-2.2,0.2-4.2-0.5-6.3c-0.6-1.8-1.9-3.6-0.4-5.4c0.2-0.2,0.4-0.4,0.6-0.6C285.6,33.4,286.7,33.2,287.9,33.2 M287.9,30L287.9,30
			c-2,0-3.7,0.5-5.1,1.5c-0.4,0.3-0.8,0.7-1.1,1c-2.6,2.9-1.3,6-0.6,7.6c0.1,0.3,0.2,0.6,0.3,0.8c0.4,1.2,0.4,2.7,0.4,4.3v0.9
			c-0.1,4.8-0.4,9.6-1,14.4v0.2c-0.2,1.3-0.3,2.7-0.1,4.3c0.7,6,4.6,8.1,7.8,8.1c3.5,0,6.9-2.3,8.2-5.7c1.2-3.1,1.3-5.7,1.4-8.1
			c0-0.3,0-0.5,0-0.8c5.4-0.6,8.5-3.4,9.3-8.4c0.2-1.4-0.2-2.7-1.1-3.7c-0.9-1.1-2.8-2.4-8.2-2.7c0.3-3.6,0-8.5-3-11.2
			C293.3,31,290.6,30,287.9,30L287.9,30L287.9,30z"/>
		<path d="M218.2,14.5c1.3,0,2.6,0.4,3.5,1.2c1.4,1.4,0.8,3,1.7,4.5c0.2,0.3,0.3,0.5,0.5,0.7c0.7,0.6,1.4,0.7,2.3,0.7
			c1,0,2.2-0.2,3.1-0.2l0,0c2.1,0,3.6,1.1,5.2,2.4c0.4,0.3,0.8,0.7,1,1.1c0.1,0.4,0.1,0.8,0,1.2c-0.2,1.4-0.5,2.8-1.5,3.8
			c-1.1,1.1-2.7,1.5-4.2,1.5h-0.1c-0.7,0-1.7-0.2-2.6-0.2c-0.8,0-1.4,0.1-1.8,0.6c-0.8,1,0,2.4,0.8,3.1c1.7,1.6,5,3.1,5.9,5.4
			c0.9,2.2-1,3.8-3.1,4c-0.3,0-0.5,0.1-0.8,0.1c-3.4,0-6.2-2.7-9.4-3.3c-0.6-0.1-1-0.2-1.4-0.2c-0.7,0-1.3,0.1-2,0.5
			c-1.4,0.7-2.8,1.3-4.3,1.9c-0.4,0.2-0.9,0.3-1.3,0.4c4.8,0.4,9.6,0.7,14.4,0.7c0.8,0,1.6,0,2.4,0c1.8,0,3.5-0.1,5.3-0.6
			c1.4-0.5,2.9-1.3,4.4-1.3c0.8,0,1.5,0.2,2.2,0.8c0.2,0.2,0.5,0.4,0.7,0.7c2.1,2.6,0.9,4.2-1.1,6.3c-1.8,1.9-5.2,2.4-8.3,2.4
			c-3.4,0-6.4-0.6-6.4-0.6s0.1,3-0.7,5.2c4.8,1.5,8.3,5.8,8.8,10.9c0.3,2.6-0.1,6.2-1.8,8.3c-1,1.3-3.2,2.5-5.2,2.5
			c-1,0-2-0.3-2.6-1.1c-2.5-2.7,2.1-8.1-1.1-10.2c-0.4-0.3-0.9-0.4-1.4-0.4c-0.4,0-0.9,0.1-1.3,0.1c-1.8,0.3-3.9,0.6-5.9,0.6
			c-1.6,0-3.2-0.2-4.5-0.8c-1.8-0.8-3.4-3.5-2.7-5.4c0.2-0.6,0.6-1.2,1.2-1.7c1.7-1.5,4.8-2.4,7.9-3c-1.8-1.9-0.8-4.2-1.2-4.2
			c-5-0.5-8.3,0.2-13.1-1.5c-5.3-1.9-7.3-7.1,2.1-8.2c0.4-0.1,0.9-0.1,1.3-0.1c0.9,0,1.8,0.1,2.7,0.2c-0.6-0.3-1-0.8-1.3-1.4
			c-0.2-0.5-0.2-1.1-0.2-1.6c0.2-3.3,1.5-4,4.3-4.9c2.2-0.8,4.7-1.7,5.4-4.2c0.1-0.3,0.1-0.6-0.1-0.8c-0.2-0.2-0.5-0.2-0.8-0.2
			c-0.5,0-1.1,0-1.6,0c-1.4,0-2.7,0.1-4.1,0.1c-2,0-4-0.2-5.7-1c-2.9-1.3-2.6-6.2,0.1-7.7c1.7-0.9,4.3-0.8,6.3-0.9
			c0.1,0,0.2,0,0.3,0c0.5,0,1.1,0,1.7,0c0.9,0,1.8-0.1,2.3-0.5c1-1-0.1-2.7,0.7-3.8c0.3-0.4,0.8-0.7,1.3-0.9
			C215.6,15,216.9,14.6,218.2,14.5C218.1,14.5,218.1,14.5,218.2,14.5 M218.2,11.4L218.2,11.4H218c-1.6,0-3.2,0.4-5,1.2
			c-0.8,0.4-1.8,0.9-2.6,1.9s-0.9,2.1-0.9,3c-0.1,0-0.2,0-0.4,0c-0.3,0-0.6,0-0.9,0c-0.2,0-0.3,0-0.4,0c-0.3,0-0.7,0-1.1,0
			c-2,0-4.5,0.1-6.5,1.2c-2.4,1.3-3.9,4.2-3.8,7.2c0.1,2.8,1.6,5.1,3.9,6.1c1.7,0.8,3.5,1.1,5.2,1.2c-2.3,1.1-4.2,2.8-4.4,6.9
			c0,0,0,0,0,0.1c-7.4,0.9-8.9,4.3-9.1,6.3c-0.4,3.2,2.3,6.4,6.6,7.9c3.3,1.2,5.9,1.3,8.6,1.4c-1.2,0.5-2.3,1.2-3.2,1.9
			c-1,0.9-1.7,1.9-2.1,3c-1.2,3.6,1.3,7.9,4.4,9.3c1.6,0.7,3.5,1.1,5.8,1.1c2.1,0,4.2-0.3,6-0.6l0.4-0.1c0.1,0,0.2,0,0.3,0
			c-0.1,0.5-0.2,1.2-0.3,1.6c-0.5,2.1-1.2,5.4,1.1,7.9c1.2,1.3,3,2.1,5,2.1c2.8,0,5.9-1.5,7.6-3.7c2.3-2.9,2.8-7.4,2.4-10.5
			c-0.6-5.2-3.5-9.7-7.9-12.2c0.9,0.1,2,0.1,3.1,0.1c4.9,0,8.5-1.1,10.6-3.3c1.7-1.8,5.2-5.5,1.3-10.4c-0.4-0.5-0.8-0.9-1.2-1.2
			c-1.2-1-2.6-1.5-4.2-1.5c-0.4,0-0.7,0-1,0.1c0-0.1-0.1-0.2-0.1-0.3c-0.8-2.1-2.6-3.5-4.2-4.7c2.3-0.2,4.2-1,5.6-2.4
			c1.7-1.7,2.2-4,2.4-5.5c0.1-0.8,0.2-1.7-0.2-2.7c-0.5-1.3-1.4-2.1-1.9-2.5c-1.8-1.5-4.1-3.1-7.2-3.1l0,0c-0.7,0-1.3,0.1-1.9,0.1
			c-0.5,0.1-0.9,0.1-1.3,0.1c-0.1,0-0.2,0-0.2,0c-0.1-0.2-0.1-0.5-0.2-0.7c-0.2-1.1-0.5-2.8-2-4.2l-0.1-0.1l-0.1-0.1
			C222.3,12.1,220.3,11.4,218.2,11.4L218.2,11.4z"/>
	</g>
	<g>
		<g>
			<path style="fill:#FFEA88;" d="M104.1,26.2C86.3,17.7,73.5,44.5,91.5,53C109,61.4,121,34.2,104.1,26.2z M97.1,42.8
				c-1.8-0.2-3.1-1.8-2.9-3.6s1.8-3.1,3.6-2.9c1.8,0.2,3.1,1.8,2.9,3.6S98.9,43,97.1,42.8z"/>
			<path style="fill:#FFCF00;" d="M97.3,26.6c1.9,0,3.9,0.5,5.9,1.4c8.2,3.9,7.1,11.6,6.6,13.9c-1.2,5.1-5.3,10.6-11.8,10.6
				c-1.8,0-3.7-0.5-5.6-1.4c-5.8-2.8-8.5-8-7.2-14.1C86.4,31.9,91,26.6,97.3,26.6 M97.5,44.9c2.7,0,5-2,5.3-4.8
				c0.3-2.9-1.8-5.6-4.7-6c-0.2,0-0.4,0-0.6,0c-2.7,0-5,2-5.3,4.8c-0.2,1.4,0.2,2.8,1.1,4c0.9,1.1,2.2,1.8,3.6,2
				C97.1,44.9,97.3,44.9,97.5,44.9 M97.3,24.5c-13.8,0-21.4,21.1-5.8,28.5c2.3,1.1,4.5,1.6,6.5,1.6c13.6,0,20.8-21.5,6.1-28.5
				C101.7,25,99.4,24.5,97.3,24.5L97.3,24.5z M97.5,42.8c-0.1,0-0.3,0-0.4,0c-1.8-0.2-3.1-1.8-2.9-3.6c0.2-1.7,1.6-2.9,3.3-2.9
				c0.1,0,0.3,0,0.4,0c1.8,0.2,3.1,1.8,2.9,3.6C100.6,41.6,99.2,42.8,97.5,42.8L97.5,42.8z"/>
		</g>
		<g>
			<path style="fill:#FFEA88;" d="M269.3,41.2c-17.4-8.3-29.9,17.9-12.3,26.3C274.1,75.7,285.9,49.1,269.3,41.2z M262.5,57.5
				c-1.8-0.2-3-1.8-2.8-3.6s1.8-3,3.6-2.8c1.8,0.2,3,1.8,2.8,3.6S264.3,57.7,262.5,57.5z"/>
			<path style="fill:#FFCF00;" d="M262.7,41.7c1.9,0,3.8,0.5,5.7,1.4c8,3.8,7,11.3,6.5,13.5c-1.1,5-5.2,10.3-11.5,10.3
				c-1.8,0-3.6-0.4-5.5-1.3c-5.7-2.7-8.3-7.8-7-13.7C252.1,46.8,256.5,41.7,262.7,41.7 M262.9,59.6c2.7,0,5-2,5.3-4.7
				c0.3-2.9-1.8-5.5-4.7-5.9c-0.2,0-0.4,0-0.6,0c-2.7,0-5,2-5.3,4.7c-0.2,1.4,0.2,2.8,1.1,3.9c0.9,1.1,2.1,1.8,3.5,2
				C262.5,59.6,262.7,59.6,262.9,59.6 M262.7,39.6c-13.6,0-20.9,20.6-5.7,27.9c2.2,1.1,4.4,1.5,6.4,1.5c13.3,0,20.4-21,5.9-27.9
				C267,40.1,264.7,39.6,262.7,39.6L262.7,39.6z M262.9,57.5c-0.1,0-0.2,0-0.4,0c-1.8-0.2-3-1.8-2.8-3.6c0.2-1.6,1.6-2.8,3.2-2.8
				c0.1,0,0.2,0,0.4,0c1.8,0.2,3,1.8,2.8,3.6C265.9,56.3,264.5,57.5,262.9,57.5L262.9,57.5z"/>
		</g>
		<g>
			<path style="fill:#FFEA88;" d="M118.4,32.7c0,0.3,0.1,0.5,0.1,0.7c0.7,4.2,1.9,8.5,2.1,12.7c0.1,3,0,5.1,3,7.1
				c3,1.9,5.4,1,6.6-2.1c2.2-5.6,1.5-14.8-0.2-20.6c-0.6-2.9-1.6-7.2-3.9-9.3c-2.4-2.2-6.8-0.6-8,2.2
				C117.1,25.9,117.9,30,118.4,32.7z"/>
			<path style="fill:#FFCF00;" d="M123.3,22.3c0.6,0,1,0.2,1.4,0.5c1.8,1.7,2.8,5.9,3.3,8.2v0.1c1.6,5.6,2.2,14.3,0.2,19.2
				c-0.3,0.8-0.9,1.8-1.8,1.8c-0.5,0-1.1-0.2-1.7-0.7c-1.8-1.2-1.9-2.2-2-4.8V46c-0.1-3.1-0.8-6.2-1.4-9.1c-0.3-1.3-0.5-2.6-0.7-3.8
				l-0.1-0.8v-0.2c-0.4-2.3-1.1-6-0.4-7.8C120.5,23.2,122,22.3,123.3,22.3 M123.3,20.2c-2.1,0-4.4,1.3-5.2,3.3
				c-1,2.4-0.2,6.5,0.3,9.3c0,0.3,0.1,0.5,0.1,0.7c0.7,4.2,1.9,8.5,2.1,12.7c0.1,3,0,5.1,3,7.1c1,0.7,2,1,2.9,1
				c1.6,0,2.9-1.1,3.7-3.2c2.2-5.6,1.5-14.8-0.2-20.6c-0.6-2.9-1.6-7.2-3.9-9.3C125.4,20.5,124.4,20.2,123.3,20.2L123.3,20.2z"/>
		</g>
		<g>
			<path style="fill:#FFEA88;" d="M135,70.2c-2.2,4.6-10.7,9.5-14.2,10.4c-6.6,1.8-13.5-1.3-16.8-7.2c-1.5-2.6-2.8-6.7-2-9.7
				c0.7-2.9,4.5-6.6,7.7-5.2c4,1.8,1.6,9.6,6,10.5c1.1,0.2,2.1-0.4,3.1-1c3.2-2,7.4-4.7,11.3-4.7c2.3,0,5.3,2.2,5.4,4.5
				C135.6,68.6,135.4,69.4,135,70.2z"/>
			<path style="fill:#FFCF00;" d="M108.3,60.3c0.2,0,0.4,0,0.6,0.1c0.8,0.4,1.2,1.7,1.6,3.8c0.5,2.6,1.2,6.1,4.8,6.8
				c0.3,0.1,0.6,0.1,0.8,0.1c1.5,0,2.7-0.8,3.7-1.4l0.4-0.2c2.9-1.8,6.6-4.1,9.8-4.1c1.3,0,3.3,1.5,3.4,2.6c0,0.4-0.1,0.8-0.3,1.3
				c-1.8,3.8-9.7,8.4-12.9,9.3c-1.1,0.3-2.1,0.4-3.2,0.4c-4.6,0-8.9-2.5-11.2-6.7c-1.3-2.3-2.4-5.8-1.8-8.2
				C104.5,62.5,106.6,60.3,108.3,60.3 M108.3,58.2c-2.8,0-5.6,3-6.2,5.5c-0.8,3.1,0.5,7.1,2,9.7c2.7,4.8,7.7,7.7,13,7.7
				c1.2,0,2.5-0.2,3.8-0.5c3.5-1,12.1-5.8,14.2-10.4c0.4-0.8,0.6-1.6,0.5-2.3c-0.2-2.3-3.2-4.5-5.4-4.5h-0.1
				c-3.9,0-8.1,2.7-11.3,4.7c-0.8,0.5-1.7,1.1-2.6,1.1c-0.1,0-0.3,0-0.4,0c-4.4-0.9-2-8.7-6-10.5C109.3,58.3,108.8,58.2,108.3,58.2
				L108.3,58.2z"/>
		</g>
		<g>
			<path style="fill:#FFEA88;" d="M151.9,56.4c3.6-3.1,12.6-4.1,15.9-3.6c6.3,0.9,10.9,6.1,11.6,12.3c0.3,2.8-0.1,6.7-1.9,9
				c-1.7,2.2-6.3,3.9-8.5,1.5c-2.7-3,2.2-8.7-1.2-11.1c-0.8-0.6-2-0.4-3-0.3c-3.5,0.5-8,1.3-11.4-0.2c-1.9-0.9-3.6-3.8-2.9-5.9
				C150.8,57.6,151.3,57,151.9,56.4z"/>
			<path style="fill:#FFCF00;" d="M165.8,54.8c0.9,0,1.4,0.1,1.7,0.1c5.2,0.8,9.3,5.1,9.8,10.5c0.3,2.4-0.1,5.7-1.5,7.5
				c-0.7,0.9-2.5,1.9-4,1.9c-0.9,0-1.2-0.4-1.3-0.5c-0.6-0.6-0.2-2.2,0.1-3.7c0.5-2.4,1.3-5.7-1.7-7.7c-0.8-0.5-1.7-0.8-2.7-0.8
				c-0.6,0-1.2,0.1-1.7,0.2l-0.4,0.1c-1.8,0.3-3.8,0.6-5.7,0.6c-1.7,0-3-0.2-4.1-0.7c-1-0.5-2.1-2.4-1.8-3.3
				c0.1-0.3,0.3-0.6,0.7-0.9C155.6,56.1,161.6,54.8,165.8,54.8 M165.8,52.7c-4.1,0-10.9,1.1-13.9,3.7c-0.6,0.5-1.1,1.1-1.3,1.8
				c-0.7,2,1,5,2.9,5.9c1.5,0.7,3.2,0.9,4.9,0.9c2.2,0,4.5-0.4,6.4-0.6c0.5-0.1,1-0.1,1.4-0.1c0.6,0,1.1,0.1,1.5,0.4
				c3.4,2.4-1.5,8.1,1.2,11.1c0.7,0.8,1.8,1.2,2.9,1.2c2.1,0,4.5-1.3,5.6-2.7c1.8-2.3,2.2-6.2,1.9-9c-0.7-6.2-5.3-11.4-11.6-12.3
				C167.3,52.8,166.6,52.7,165.8,52.7L165.8,52.7z"/>
		</g>
		<g>
			<path style="fill:#FFEA88;" d="M205.9,60.2c3.3-2.8,11.6-3.7,14.7-3.3c5.8,0.8,10.1,5.6,10.7,11.4c0.3,2.6-0.1,6.2-1.8,8.3
				c-1.6,2-5.8,3.6-7.8,1.4c-2.5-2.7,2.1-8.1-1.1-10.2c-0.8-0.5-1.8-0.4-2.7-0.2c-3.2,0.5-7.4,1.2-10.5-0.2
				c-1.8-0.8-3.4-3.5-2.7-5.4C204.9,61.3,205.4,60.7,205.9,60.2z"/>
			<path style="fill:#FFCF00;" d="M218.8,58.9L218.8,58.9c0.8,0,1.3,0,1.6,0.1c4.7,0.7,8.4,4.6,8.9,9.5c0.2,2.2-0.1,5.2-1.3,6.8
				c-0.6,0.8-2.2,1.7-3.5,1.7c-0.7,0-1-0.3-1.1-0.4c-0.5-0.5-0.2-1.9,0.1-3.2c0.5-2.1,1.2-5.4-1.6-7.3c-0.7-0.5-1.6-0.7-2.6-0.7
				c-0.6,0-1.1,0.1-1.6,0.2l-0.4,0.1c-1.6,0.2-3.5,0.5-5.3,0.5c-1.5,0-2.7-0.2-3.7-0.6s-1.8-2.1-1.6-2.8c0.1-0.2,0.3-0.5,0.6-0.8
				C209.4,60,214.8,58.9,218.8,58.9 M218.8,56.8c-3.8,0-10.1,1-12.8,3.4c-0.6,0.5-1,1-1.2,1.7c-0.7,1.9,0.9,4.6,2.7,5.4
				c1.4,0.6,2.9,0.8,4.5,0.8c2,0,4.1-0.3,5.9-0.6c0.4-0.1,0.9-0.1,1.3-0.1c0.5,0,1,0.1,1.4,0.4c3.2,2.2-1.4,7.5,1.1,10.2
				c0.7,0.8,1.6,1.1,2.6,1.1c1.9,0,4.1-1.2,5.2-2.5c1.7-2.1,2-5.7,1.8-8.3c-0.6-5.7-4.9-10.5-10.7-11.4
				C220.1,56.9,219.5,56.8,218.8,56.8L218.8,56.8z"/>
		</g>
		<g>
			<path style="fill-rule:evenodd;clip-rule:evenodd;fill:#FFEA88;" d="M159.6,23c-1.4-0.5-3-0.8-4.4-0.8c-2.3,0-4.5,0-6.8,0.1
				c-1.5,0.1-3.6-0.1-4.9,0.8c-2.1,1.4-2.3,6-0.1,7.2c2.6,1.5,5.9,0.7,8.9,0.9c0.2,0,0.5,0.1,0.6,0.2c0.2,0.2,0.1,0.5,0.1,0.8
				c-1,4.7-6.7,6.3-9.2,10.2c-1.3,2-0.3,4.9,2.8,6.2c2.4,1,4-0.4,5.9-2.2c2.1-2,1.6-2.6,4.3-2c2.2,0.4,8.5,6.3,10.7,0.6
				c1.6-4.3-5.7-7.8-5.7-7.8s1-2.2,1.6-3.3c0.7-1.1,1.3-2.4,1.5-3.7C165.5,26.5,162.8,24.1,159.6,23z"/>
			<path style="fill:#FFCF00;" d="M153.4,24.3c0.6,0,1.2,0,1.7,0c1.2,0,2.6,0.3,3.7,0.7c2.1,0.7,4.4,2.2,4,5
				c-0.1,0.8-0.5,1.8-1.2,2.9c-0.7,1.1-1.7,3.3-1.8,3.5c-0.5,1,0,2.2,1,2.7c1.8,0.9,5.4,3.4,4.7,5.2c-0.4,1.2-0.9,1.2-1.2,1.2
				c-1.2,0-2.9-1-4.3-1.7c-1.1-0.6-2-1.1-2.9-1.3c-0.8-0.2-1.4-0.2-1.9-0.2c-1.7,0-2.5,0.9-3.2,1.7c-0.3,0.3-0.6,0.7-1.1,1.1
				c-1.2,1.1-2.2,1.9-3,1.9c-0.2,0-0.5-0.1-0.8-0.2c-1-0.4-1.7-1.1-2-1.8c-0.1-0.3-0.2-0.8,0.1-1.3c0.8-1.3,2.2-2.4,3.7-3.5
				c2.4-1.8,5-3.9,5.8-7.4c0.2-1,0-1.9-0.6-2.6c-0.7-0.8-1.7-0.9-2-0.9c-0.5,0-1,0-1.4,0c-0.5,0-1.1,0-1.6,0s-1,0-1.5,0
				c-1.6,0-2.7-0.2-3.5-0.6c-0.2-0.1-0.5-0.6-0.5-1.4c0-1.1,0.4-2,0.8-2.3c0.6-0.4,1.8-0.4,2.8-0.4c0.4,0,0.7,0,1,0
				C150.2,24.3,151.8,24.3,153.4,24.3 M153.4,22.2c-1.7,0-3.3,0-5,0.1c-1.5,0.1-3.6-0.1-4.9,0.8c-2.1,1.4-2.3,6-0.1,7.2
				c1.4,0.8,2.9,0.9,4.5,0.9c1,0,2.1-0.1,3.1-0.1c0.4,0,0.9,0,1.3,0c0.2,0,0.5,0.1,0.6,0.2c0.2,0.2,0.1,0.5,0.1,0.8
				c-1,4.7-6.7,6.3-9.2,10.2c-1.3,2-0.3,4.9,2.8,6.2c0.6,0.2,1.1,0.3,1.6,0.3c1.6,0,2.9-1.2,4.4-2.5c1.6-1.5,1.7-2.2,2.8-2.2
				c0.4,0,0.8,0.1,1.4,0.2c1.5,0.3,4.8,3.1,7.5,3.1c1.3,0,2.4-0.6,3.1-2.5c1.6-4.3-5.7-7.8-5.7-7.8s1-2.2,1.6-3.3
				c0.7-1.1,1.3-2.4,1.5-3.7c0.5-3.8-2.2-6.2-5.4-7.3c-1.4-0.5-3-0.8-4.4-0.8C154.6,22.2,154,22.2,153.4,22.2L153.4,22.2z"/>
		</g>
		<g>
			<path style="fill-rule:evenodd;clip-rule:evenodd;fill:#FFEA88;" d="M223.9,20.9c-0.2-0.2-0.4-0.4-0.5-0.7
				c-0.9-1.5-0.3-3.2-1.7-4.5c-1-0.8-2.3-1.2-3.6-1.2s-2.6,0.4-3.8,1c-0.5,0.2-1,0.5-1.3,0.9c-0.8,1.1,0.3,2.8-0.7,3.8
				c-0.8,0.8-3.1,0.4-4.2,0.5c-1.9,0.1-4.6-0.1-6.3,0.9c-2.7,1.5-3,6.4-0.1,7.7c3.4,1.5,7.6,0.7,11.4,0.9c0.3,0,0.6,0.1,0.8,0.2
				c0.2,0.2,0.2,0.5,0.1,0.8c-0.7,2.5-3.1,3.5-5.4,4.2c-2.8,1-4.2,1.6-4.3,4.9c0,0.6,0,1.1,0.2,1.6c0.5,1.2,1.7,1.9,3,2
				c1.2,0.1,2.5-0.2,3.7-0.7c1.5-0.6,2.9-1.2,4.3-1.9c1.2-0.6,2-0.6,3.5-0.4c3.5,0.6,6.4,3.7,10.2,3.2c2.1-0.3,3.9-1.8,3.1-4
				c-0.9-2.3-4.2-3.8-5.9-5.4c-0.8-0.7-1.5-2.1-0.8-3.1c0.8-1.1,3.3-0.4,4.5-0.4c1.5,0,3.2-0.4,4.2-1.5c1-1,1.3-2.4,1.5-3.8
				c0.1-0.4,0.1-0.8,0-1.2c-0.2-0.5-0.6-0.8-1-1.1c-1.6-1.3-3.1-2.4-5.2-2.4C227.6,21.3,225.4,22.2,223.9,20.9z"/>
			<path style="fill:#FFCF00;" d="M218.2,16.6c0.8,0,1.6,0.2,2.1,0.6c0.2,0.3,0.3,0.6,0.4,1.3c0.1,0.8,0.3,1.7,0.9,2.7
				c0.3,0.4,0.6,0.8,1,1.2c1,0.8,2.1,1.2,3.6,1.2c0.7,0,1.3-0.1,1.9-0.1c0.5-0.1,0.9-0.1,1.3-0.1c1.3,0,2.4,0.7,3.9,1.9
				c0.1,0.1,0.2,0.2,0.3,0.2c0,0.1,0,0.1,0,0.2c-0.2,1.3-0.5,2.1-0.9,2.6c-0.7,0.7-1.9,0.8-2.8,0.9c-0.2,0-0.6,0-0.9-0.1
				c-0.5-0.1-1.1-0.1-1.7-0.1c-1.6,0-2.7,0.5-3.5,1.4c-1.5,1.9-0.6,4.5,1,6c0.7,0.6,1.5,1.2,2.3,1.8c1.2,0.9,2.7,1.9,3.1,2.8
				c0.1,0.3,0.1,0.5,0,0.5c-0.2,0.3-0.7,0.6-1.4,0.7c-0.2,0-0.4,0-0.5,0c-1.4,0-2.8-0.7-4.3-1.5c-1.5-0.7-3-1.5-4.7-1.8
				c-0.5-0.1-1.2-0.2-1.8-0.2c-1,0-1.9,0.2-3,0.8c-1.3,0.6-2.6,1.2-4.1,1.8c-0.7,0.3-1.6,0.6-2.4,0.6c-0.1,0-0.2,0-0.3,0
				c-0.6-0.1-1.1-0.4-1.2-0.7c0-0.1-0.1-0.3-0.1-0.8c0.1-2,0.4-2.2,2.9-3.1c2.2-0.7,5.8-2,6.7-5.7c0.4-1.5-0.3-2.5-0.7-2.9
				c-0.8-0.7-1.7-0.8-2.1-0.8c-0.6,0-1.1,0-1.7,0c-0.7,0-1.4,0-2.1,0c-0.7,0-1.3,0-2,0c-1.6,0-3.4-0.1-4.9-0.8
				c-0.7-0.3-0.8-1.2-0.8-1.6c0-1,0.4-2,1.1-2.4c0.9-0.5,2.7-0.5,4.1-0.6c0.4,0,0.9,0,1.3,0h0.2c0.2,0,0.4,0,0.7,0s0.7,0,1,0
				c1.2,0,2.7-0.1,3.7-1.1c1.2-1.2,1.1-2.7,1.1-3.6c0-0.2,0-0.4,0-0.5c0.1,0,0.2-0.1,0.4-0.2C216.2,16.9,217.2,16.7,218.2,16.6
				L218.2,16.6 M214.7,17.5L214.7,17.5L214.7,17.5 M218.2,14.5h-0.1c-1.3,0-2.6,0.4-3.8,1c-0.5,0.2-1,0.5-1.3,0.9
				c-0.8,1.1,0.3,2.8-0.7,3.8c-0.5,0.4-1.4,0.5-2.3,0.5c-0.6,0-1.2,0-1.7,0c-0.1,0-0.2,0-0.3,0c-1.9,0.1-4.6-0.1-6.3,0.9
				c-2.7,1.5-3,6.4-0.1,7.7c1.8,0.8,3.7,1,5.7,1c1.4,0,2.7-0.1,4.1-0.1c0.5,0,1.1,0,1.6,0c0.3,0,0.6,0.1,0.8,0.2
				c0.2,0.2,0.2,0.5,0.1,0.8c-0.7,2.5-3.1,3.5-5.4,4.2c-2.8,1-4.2,1.6-4.3,4.9c0,0.6,0,1.1,0.2,1.6c0.5,1.2,1.7,1.9,3,2
				c0.2,0,0.3,0,0.5,0c1.1,0,2.1-0.3,3.1-0.7c1.5-0.6,2.9-1.2,4.3-1.9c0.8-0.4,1.4-0.5,2-0.5c0.4,0,0.9,0.1,1.4,0.2
				c3.3,0.6,6,3.3,9.4,3.3c0.3,0,0.5,0,0.8-0.1c2.1-0.3,3.9-1.8,3.1-4c-0.9-2.3-4.2-3.8-5.9-5.4c-0.8-0.7-1.5-2.1-0.8-3.1
				c0.4-0.5,1.1-0.6,1.8-0.6c0.9,0,1.9,0.2,2.6,0.2h0.1c1.5,0,3.2-0.4,4.2-1.5c1-1,1.3-2.4,1.5-3.8c0.1-0.4,0.1-0.8,0-1.2
				c-0.2-0.5-0.6-0.8-1-1.1c-1.6-1.3-3.1-2.4-5.2-2.4l0,0c-1,0-2.1,0.2-3.1,0.2c-0.8,0-1.6-0.2-2.3-0.7c-0.2-0.2-0.4-0.4-0.5-0.7
				c-0.9-1.5-0.3-3.2-1.7-4.5C220.7,14.9,219.4,14.5,218.2,14.5L218.2,14.5z"/>
		</g>
		<g>
			<path style="fill-rule:evenodd;clip-rule:evenodd;fill:#FFEA88;" d="M268.8,26.6c-0.2-0.2-0.4-0.4-0.5-0.6
				c-0.9-1.4-0.3-3-1.6-4.3c-0.9-0.8-2.2-1.2-3.5-1.1c-1.3,0-2.5,0.4-3.6,0.9c-0.5,0.2-1,0.5-1.3,0.9c-0.8,1.1,0.3,2.7-0.7,3.6
				c-0.8,0.8-3,0.4-4.1,0.5c-1.9,0.1-4.4-0.1-6,0.8c-2.6,1.5-2.9,6.1-0.1,7.4c3.1,1.4,7.2,0.9,10.6,0.9c5.6,0.1,11,1.3,16.6,1.1
				c1.5,0,3-0.4,4.1-1.4c0.9-0.9,1.3-2.3,1.4-3.6c0.1-0.4,0.1-0.8,0-1.2c-0.2-0.5-0.6-0.8-0.9-1.1c-1.5-1.3-3-2.3-5-2.3
				C272.3,27.1,270.2,27.9,268.8,26.6z"/>
			<path style="fill:#FFCF00;" d="M263.3,22.6L263.3,22.6c0.8,0,1.5,0.2,1.9,0.6c0.2,0.2,0.3,0.5,0.4,1.2c0.1,0.8,0.3,1.7,0.9,2.7
				c0.3,0.4,0.6,0.8,1,1.1c0.9,0.8,2.1,1.2,3.6,1.2c0.6,0,1.3-0.1,1.8-0.1c0.4-0.1,0.9-0.1,1.2-0.1c1.2,0,2.2,0.6,3.7,1.9
				c0.1,0.1,0.2,0.1,0.2,0.2c0,0,0,0.1,0,0.2c-0.2,1.2-0.4,2-0.9,2.4c-0.6,0.6-1.8,0.8-2.6,0.8c-0.3,0-0.6,0-0.9,0
				c-2.6,0-5.1-0.3-7.8-0.6c-2.5-0.3-5.2-0.5-7.9-0.6h-0.4c-0.7,0-1.4,0-2.1,0c-0.7,0-1.4,0-2.1,0c-1.6,0-3.6-0.1-5.1-0.8
				c-0.6-0.3-0.7-1.1-0.7-1.4c0-0.9,0.4-1.9,1-2.2c0.9-0.5,2.6-0.5,3.9-0.5c0.4,0,0.8,0,1.2,0h0.2c0.2,0,0.4,0,0.6,0
				c0.3,0,0.7,0,1,0c1.2,0,2.6-0.1,3.6-1.1c1.2-1.2,1.1-2.6,1-3.5c0-0.1,0-0.3,0-0.4c0.1,0,0.2-0.1,0.4-0.2
				C261.4,22.9,262.3,22.6,263.3,22.6L263.3,22.6 M260,23.4L260,23.4L260,23.4 M263.3,20.5h-0.1c-1.3,0-2.5,0.4-3.6,0.9
				c-0.5,0.2-1,0.5-1.3,0.9c-0.8,1.1,0.3,2.7-0.7,3.6c-0.4,0.4-1.3,0.5-2.2,0.5c-0.6,0-1.2,0-1.6,0c-0.1,0-0.2,0-0.3,0
				c-1.9,0.1-4.4-0.1-6,0.8c-2.6,1.5-2.9,6.1-0.1,7.4c1.8,0.8,3.9,1,6,1c1.4,0,2.9-0.1,4.2-0.1c0.1,0,0.2,0,0.3,0
				c5.3,0.1,10.4,1.1,15.6,1.1c0.3,0,0.7,0,1,0c1.5,0,3-0.4,4.1-1.4c0.9-0.9,1.3-2.3,1.4-3.6c0.1-0.4,0.1-0.8,0-1.2
				c-0.2-0.5-0.6-0.8-0.9-1.1c-1.5-1.3-3-2.3-5-2.3l0,0c-0.9,0-2,0.2-3,0.2c-0.8,0-1.6-0.1-2.2-0.7c-0.2-0.2-0.4-0.4-0.5-0.6
				c-0.9-1.4-0.3-3-1.6-4.3C265.7,20.9,264.5,20.5,263.3,20.5L263.3,20.5z"/>
		</g>
		<g>
			<path style="fill-rule:evenodd;clip-rule:evenodd;fill:#FFEA88;" d="M172.3,20.3c-1.3,1.6-0.1,3.2,0.5,4.8
				c0.7,1.8,0.6,3.6,0.6,5.6c0.1,4.4-0.1,8.8-0.5,13.2c-0.1,1.1-0.2,2.2,0,3.3c1,6.9,7.6,5.1,9,1.2c1.3-3.5,0.7-5.9,1-9.6
				c0-0.5,7.2,0.9,8-5.6c0.4-3.1-8.9-2.1-8.9-2.1s1.5-8.1-1.7-10.8c-1.7-1.4-5.4-2.1-7.5-0.5C172.6,20,172.4,20.2,172.3,20.3z"/>
			<path style="fill:#FFCF00;" d="M176,21c1.3,0,2.5,0.5,3,0.9c1.5,1.3,1.5,6,1,8.8c-0.1,0.6,0.1,1.3,0.5,1.8c0.4,0.4,1,0.7,1.5,0.7
				c0.1,0,0.1,0,0.2,0c0,0,1.3-0.1,2.8-0.1c2.2,0,3.3,0.3,3.8,0.4c-0.5,2.4-2.3,3-5.1,3.2c-0.7,0-2.7,0.1-2.8,2.1
				c-0.1,1.2-0.1,2.4-0.1,3.3c0,2,0,3.6-0.8,5.7c-0.4,1.2-1.7,2.1-2.8,2.1c-1.4,0-1.9-1.6-2.1-2.9c-0.1-0.8,0-1.7,0-2.6v-0.2
				c0.4-4.4,0.5-9,0.5-13.4v-0.7c0-1.8,0-3.6-0.8-5.5c-0.1-0.3-0.3-0.7-0.4-1c-0.6-1.4-0.6-1.5-0.4-1.7c0.1-0.1,0.1-0.1,0.2-0.2
				C174.5,21.2,175.2,21,176,21 M176,18.9c-1.2,0-2.3,0.3-3.1,0.9c-0.2,0.2-0.4,0.3-0.6,0.5c-1.3,1.6-0.1,3.2,0.5,4.8
				c0.7,1.8,0.6,3.6,0.6,5.6c0.1,4.4-0.1,8.8-0.5,13.2c-0.1,1.1-0.2,2.2,0,3.3c0.5,3.4,2.3,4.7,4.2,4.7c2,0,4.1-1.5,4.8-3.5
				c1.3-3.5,0.7-5.9,1-9.6c0-0.5,7.2,0.9,8-5.6c0.2-1.9-3.2-2.3-5.9-2.3c-1.6,0-3,0.1-3,0.1s1.5-8.1-1.7-10.8
				C179.3,19.5,177.6,18.9,176,18.9L176,18.9z"/>
		</g>
		<g>
			<path style="fill-rule:evenodd;clip-rule:evenodd;fill:#FFEA88;" d="M284,34.7c-1.5,1.7-0.2,3.6,0.4,5.4c0.7,2,0.5,4.1,0.5,6.3
				c-0.1,4.9-0.4,9.8-1,14.7c-0.1,1.2-0.3,2.5-0.2,3.7c0.9,7.7,8.3,6,10,1.7c1.5-3.9,1-6.5,1.4-10.7c0.1-0.5,8,1.2,9.1-6
				c0.5-3.4-9.8-2.7-9.8-2.7s2-9-1.5-12.1c-1.9-1.7-6-2.5-8.3-0.8C284.4,34.3,284.2,34.5,284,34.7z"/>
			<path style="fill:#FFCF00;" d="M287.9,35.3c1.5,0,3,0.6,3.7,1.2c1.7,1.5,1.5,6.8,0.8,10c-0.1,0.6,0,1.3,0.5,1.8
				c0.4,0.5,1,0.7,1.6,0.7h0.1c0,0,0.8-0.1,2-0.1c3.3,0,5,0.4,5.5,0.7c-0.6,3-2.8,3.7-6.1,3.7c-0.8,0-2.8,0.1-3,2
				c-0.2,1.4-0.2,2.6-0.2,3.7c-0.1,2.3-0.2,4.1-1.1,6.4c-0.5,1.3-2,2.4-3.4,2.4c-1.8,0-2.4-1.9-2.6-3.5c-0.1-0.9,0-1.9,0.1-3v-0.2
				c0.6-4.9,0.9-10,1-14.9v-0.8c0-2,0.1-4-0.6-6.1c-0.1-0.4-0.3-0.8-0.4-1.1c-0.7-1.6-0.6-1.8-0.3-2.2c0.1-0.1,0.2-0.2,0.3-0.3
				C286.4,35.4,287.1,35.3,287.9,35.3 M287.9,33.2c-1.2,0-2.4,0.3-3.3,0.9c-0.3,0.2-0.5,0.4-0.6,0.6c-1.5,1.7-0.2,3.6,0.4,5.4
				c0.7,2,0.5,4.1,0.5,6.3c-0.1,4.9-0.4,9.8-1,14.7c-0.1,1.2-0.3,2.5-0.2,3.7c0.5,3.9,2.5,5.4,4.7,5.4s4.5-1.5,5.3-3.7
				c1.5-3.9,1-6.5,1.4-10.7c0.1-0.5,8,1.2,9.1-6c0.4-2.4-4.7-2.8-7.7-2.8c-1.3,0-2.1,0.1-2.1,0.1s2-9-1.5-12.1
				C291.9,33.9,289.9,33.2,287.9,33.2L287.9,33.2z"/>
		</g>
		<g>
			<path style="fill-rule:evenodd;clip-rule:evenodd;fill:#FFEA88;" d="M238.4,43.4c-2.1-1.7-4.4-0.2-6.6,0.5
				c-2.5,0.8-5,0.6-7.6,0.6c-6,0-12-0.4-18-1c-1.5-0.2-3-0.3-4.5-0.1c-9.5,1.1-7.5,6.3-2.1,8.2c4.8,1.7,8,1,13.1,1.5
				c0.6,0.1-2,5.4,6.9,6.5c4.2,0.5,3.8-7.4,3.8-7.4s11,2.1,14.8-1.8c2-2.1,3.2-3.7,1.1-6.3C238.9,43.8,238.6,43.6,238.4,43.4z"/>
			<path style="fill:#FFCF00;" d="M236.2,44.7c0.4,0,0.6,0.1,0.9,0.3c0.1,0.1,0.3,0.2,0.4,0.4c0.9,1.1,1.1,1.4-1,3.6
				c-1,1.1-3.5,1.7-6.8,1.7c-3.2,0-6-0.5-6-0.5c-0.1,0-0.3,0-0.4,0c-0.5,0-1,0.2-1.4,0.5c-0.5,0.4-0.8,1-0.7,1.7
				c0.1,1.6-0.2,4.3-1,5.1c-0.1,0.1-0.2,0.1-0.3,0.1h-0.1c-5.1-0.7-5-2.5-4.9-3.7c0.1-2.5-1.5-2.8-2-2.8c-1.7-0.2-3.1-0.2-4.5-0.2
				c-2.9-0.1-5.1-0.1-8.1-1.2c-2.2-0.8-3.1-2.1-3.1-2.4c0-0.2,0.9-1.3,4.8-1.7c0.3,0,0.7-0.1,1.1-0.1c0.9,0,1.8,0.1,2.7,0.2h0.2
				c6,0.6,12.2,0.9,18.2,1h1c0.5,0,0.9,0,1.4,0c1.9,0,3.9-0.1,5.9-0.7c0.4-0.1,0.9-0.3,1.4-0.5C234.7,45,235.5,44.7,236.2,44.7
				 M236.2,42.6c-1.5,0-2.9,0.8-4.4,1.3c-1.7,0.6-3.5,0.6-5.3,0.6c-0.8,0-1.6,0-2.4,0c-6,0-12-0.4-18-1c-1-0.1-2.1-0.2-3.1-0.2
				c-0.5,0-0.9,0-1.4,0.1c-9.5,1.1-7.5,6.3-2.1,8.2c4.8,1.7,8,1,13.1,1.5c0.6,0.1-2,5.4,6.9,6.5c0.1,0,0.3,0,0.4,0
				c3.8,0,3.4-7.4,3.4-7.4s3,0.6,6.4,0.6c3.1,0,6.6-0.5,8.3-2.4c2-2.1,3.2-3.7,1.1-6.3c-0.2-0.3-0.5-0.5-0.7-0.7
				C237.7,42.8,236.9,42.6,236.2,42.6L236.2,42.6z"/>
		</g>
	</g>
</g>
</svg>
