<?xml version="1.0" encoding="utf-8"?>
<!-- Generator: Adobe Illustrator 26.5.0, SVG Export Plug-In . SVG Version: 6.00 Build 0)  -->
<svg version="1.1" id="레이어_5" xmlns="http://www.w3.org/2000/svg" xmlns:xlink="http://www.w3.org/1999/xlink" x="0px"
	 y="0px" viewBox="0 0 117 273" style="enable-background:new 0 0 117 273;" xml:space="preserve">
<g>
	<g>
		<path style="fill:#E7E7E7;" d="M58.5,219.4l-43.4-1.5c0,0,6,22.5,6.9,35.2c0.9,12.7,26.8,18.9,36.4,18.9c9.6,0,35.6-6.3,36.4-18.9
			c0.9-12.7,6.9-35.2,6.9-35.2L58.5,219.4z"/>
		<path d="M58.5,273c-8.7,0-36.5-6-37.4-19.8c-0.9-12.4-6.8-34.8-6.9-35l-0.3-1.3l44.7,1.5l44.7-1.5l-0.3,1.3
			c-0.1,0.2-6,22.6-6.9,35C95,267,67.2,273,58.5,273z M16.4,218.9c1.3,5,5.9,23.2,6.6,34.1c0.8,11.7,25.5,18,35.4,18
			c9.9,0,34.6-6.3,35.5-18c0.8-10.9,5.3-29.2,6.6-34.1l-42.1,1.4l0,0L16.4,218.9z"/>
	</g>
	<g>
		<path style="fill:#B4B4B4;" d="M58.3,158.5c-13.9,0-31.4,1.2-43.1,10.2c-3.2,2.5-5.7,5.4-7.5,8.8c-5.1,9.6-4.2,22.7,2.3,34
			c12.5,21.8,47.9,20.1,48.2,20.1c0.4,0,35.7,1.7,48.3-20.1c6.5-11.3,7.4-24.4,2.3-34c-1.8-3.4-4.3-6.4-7.5-8.8
			C89.7,159.7,72.2,158.5,58.3,158.5z"/>
		<path d="M56.2,232.5c-7.7,0-35.9-1.4-46.9-20.5c-6.7-11.6-7.6-24.9-2.3-34.8c1.9-3.5,4.4-6.5,7.7-9.1
			c11.9-9.2,29.5-10.4,43.6-10.4s31.7,1.2,43.6,10.4c3.2,2.5,5.8,5.6,7.7,9.1c5.2,9.9,4.4,23.2-2.3,34.8
			c-12.8,22.2-48.7,20.5-49,20.5C58.2,232.4,57.5,232.5,56.2,232.5z M58.2,230.8c0.5,0,35.3,1.7,47.6-19.7
			c6.4-11.1,7.3-23.8,2.3-33.2c-1.7-3.3-4.2-6.2-7.3-8.5c-11.5-8.9-28.8-10.1-42.6-10.1s-31.1,1.1-42.6,10.1
			c-3.1,2.4-5.5,5.3-7.3,8.5c-5,9.4-4.1,22.1,2.3,33.2C23,232.3,57.9,230.8,58.2,230.8z"/>
	</g>
	<path style="fill:#90D3FF;" d="M58,181.8c-9.3,0-21,0.8-28.8,6.8c-2.1,1.6-3.8,3.6-5,5.9c-3.4,6.4-2.8,15.1,1.5,22.7
		c4.4,7.6,12.9,10.8,19.3,12.2c6.9,1.5,12.9,1.2,13,1.2c0.1,0,6.1,0.3,13-1.2c6.4-1.4,14.9-4.6,19.3-12.2c4.4-7.6,5-16.3,1.5-22.7
		l0,0c-1.2-2.3-2.9-4.2-5-5.9C79,182.6,67.3,181.8,58,181.8z"/>
	<path style="fill:#E7E7E7;" d="M9.7,211c12.5,21.8,47.9,20.1,48.2,20.1c0.4,0,35.7,1.7,48.3-20.1H9.7z"/>
	<path style="fill:#B4B4B4;" d="M15.1,217.9c0,0,37.5,12.9,86.7,0c0,0-16.6,15.2-43.9,13.2C58,231.1,25.3,231.7,15.1,217.9z"/>
	<path style="fill:#040000;" d="M60.2,231.9c-1.4,0-2.2,0-2.3,0c-0.3,0-36.1,1.8-48.9-20.5l-0.7-1.2h99.3l-0.7,1.2
		C96,230.5,68.3,231.9,60.2,231.9z M57.9,230.2c0.4,0,33.9,1.7,46.9-18.4H11.2C24.1,231.9,57.6,230.3,57.9,230.2z"/>
	<g>
		<g>
			<path style="fill:#E7E7E7;" d="M115.3,182.3c-2.4-9.3-10.5-16-19.8-20.9c-22.5-11.8-51.4-11.8-73.9,0
				c-9.3,4.9-17.4,11.6-19.8,20.9C-1.5,195,6.3,207.2,17,215.7c9.3,7.4,25.9,17.9,36.3,5.8c5-5.9-6.8-14.9-11.9-17.9
				c-5.6-3.3-9.5-8.8-9-14.7c1.5-19.9,48.1-19.4,52.1-1.7c1.5,6.7-2.8,12.4-8.8,16.4c-7.5,4.4-16,12.3-9.2,20
				c9.2,10.3,27.1-2.6,34.5-8.7C111.1,206.5,118.5,194.7,115.3,182.3z"/>
			<path d="M75.3,228.5c-3.6,0-6.9-1.2-9.6-4.2c-2.2-2.5-3.1-5.2-2.6-8c1-6.2,8-11.1,12.1-13.5c3.8-2.5,10-8,8.3-15.3
				c-2-9.2-16.2-13.2-28.6-12.4c-9.5,0.6-20.8,4.7-21.5,13.9c-0.4,5.2,2.9,10.5,8.6,13.8c4.3,2.5,12.5,8.7,13.5,14.4
				c0.3,1.9-0.1,3.5-1.3,4.9c-8.1,9.5-21.1,7.5-37.7-5.6C3.5,206.2-2.2,193.6,0.8,182.1c2.2-8.4,9-15.6,20.3-21.5
				c22.7-11.9,52.1-11.9,74.8,0c11.3,5.9,18.1,13.1,20.3,21.5v0c2.9,11.2-2.4,23.5-14.7,33.6C96.1,220.2,84.8,228.5,75.3,228.5z
				 M58,172.9c12.3,0,25.3,4.6,27.4,14c1.4,6.3-1.9,12.5-9.2,17.4c-3.1,1.8-10.3,6.6-11.2,12.2c-0.4,2.3,0.3,4.4,2.2,6.4
				c8.6,9.7,26-2.9,33.1-8.8c11.6-9.6,16.8-21.1,14-31.6l0,0c-2-7.8-8.5-14.7-19.3-20.3c-22.2-11.6-50.8-11.6-73,0
				c-10.8,5.6-17.3,12.4-19.3,20.3c-4,15.3,9.1,27.7,15,32.4c10.8,8.6,25.7,16.7,34.9,5.9c0.8-1,1.1-2.1,0.9-3.4
				c-0.8-4.6-8-10.3-12.6-13.1c-6.3-3.7-10-9.7-9.5-15.6c0.7-8.6,9.8-14.8,23.4-15.7C55.8,173,56.9,172.9,58,172.9z"/>
		</g>
		<path style="fill:#FFFFFF;" d="M15.3,202.5c3.5,4.6,7.6,8.9,12.4,12.2c2.5,1.8,13.9,8.8,15.6,3.1c1.3-4.1-3.6-6.5-6.6-8.1
			c-4.3-2.2-8-4.7-10.8-8.8c-3.5-5-7.3-10.8-8.1-17.1c-0.2-1.5,0.1-4.8-1-5.9c-0.6-0.6-1.5-0.7-2.3-0.6
			C3.1,177.7,11.6,197.7,15.3,202.5z"/>
		<path style="fill:#FFFFFF;" d="M101.7,202.5c-3.5,4.6-7.6,8.9-12.4,12.2c-2.5,1.8-13.9,8.8-15.6,3.1c-1.3-4.1,3.6-6.5,6.6-8.1
			c4.3-2.2,8-4.7,10.8-8.8c3.5-5,7.3-10.8,8.1-17.1c0.2-1.5-0.1-4.8,1-5.9c0.6-0.6,1.5-0.7,2.3-0.6
			C113.9,177.7,105.4,197.7,101.7,202.5z"/>
	</g>
</g>
<g>
	<g>
		<rect x="13.1" y="85.1" style="fill:#0497EB;" width="87.3" height="80.4"/>
		<path d="M101.4,166.5H12.2V84.2h89.3V166.5z M14.1,164.6h85.4V86.1H14.1V164.6z"/>
	</g>
	<g>
		<path style="fill:#FFFFFF;" d="M96.7,1H16.9c-2.1,0-3.8,1.7-3.8,3.8v80.9h87.3V4.8C100.5,2.7,98.8,1,96.7,1z"/>
		<path d="M101.4,86.7H12.2V7.1c0-3.9,3.2-7.1,7.1-7.1h75.1c3.9,0,7.1,3.2,7.1,7.1V86.7z M14.1,84.7h85.4V7.1c0-2.8-2.3-5.1-5.1-5.1
			H19.2c-2.8,0-5.1,2.3-5.1,5.1V84.7z"/>
	</g>
	<g>
		<g>
			<path style="fill:#0497EB;" d="M58,6.7c0,0-0.1,0-0.2,0L58,6.7z"/>
		</g>
		<g>
			<path style="fill-rule:evenodd;clip-rule:evenodd;fill:#FFFFFF;" d="M61.7,9.9c3.7,0.5,7.4,1.5,10.7,2.9
				c5.4,2.3,11.8,6,14.7,11.2c1.3,2.3,2.2,4.8,2.7,7.4c0.4,2-0.1,4.7,1.1,6.4c2.4,3.4,2.9,5.3,3.6,9.6c0.6,4,0.3,8.3-1.4,12
				c-4.4,9.7-15.1,13.7-24.8,14c-1.3,0-2.7,0.1-4.1,0.1c-6.3,0.2-12.6,0.1-18.9-0.1c-9.8-0.3-20.4-4.4-24.8-14c-1.7-3.7-2-8-1.4-12
				c0.7-4.3,1.2-6.2,3.6-9.6c1.2-1.7,0.7-4.4,1.1-6.4c0.5-2.6,1.4-5.1,2.7-7.4c2.9-5.2,7.8-8.9,13.2-11.2c2.2-0.9,4.5-1.7,6.8-2.2
				C50.9,9.5,57.1,9.3,61.7,9.9z"/>
		</g>
		<g>
			<g>
				<path style="fill-rule:evenodd;clip-rule:evenodd;fill:#F0B3AF;" d="M42,48.9c0,5.7-4.6,10.3-10.2,10.3s-10.2-4.6-10.2-10.3
					c0-5.7,4.6-10.3,10.2-10.3S42,43.2,42,48.9"/>
			</g>
			<g>
				<path style="fill-rule:evenodd;clip-rule:evenodd;fill:#F0B3AF;" d="M91.9,48.9c0,5.7-4.6,10.3-10.2,10.3
					c-5.6,0-10.2-4.6-10.2-10.3c0-5.7,4.6-10.3,10.2-10.3C87.4,38.6,91.9,43.2,91.9,48.9"/>
			</g>
		</g>
		<g>
			<g>
				<g>
					<path style="fill-rule:evenodd;clip-rule:evenodd;" d="M58.5,45.6c0,0.7-0.8,1.3-1.8,1.3c-1,0-1.8-0.6-1.8-1.3
						c0-0.7,0.8-1.3,1.8-1.3C57.7,44.3,58.5,44.9,58.5,45.6"/>
				</g>
			</g>
			<g>
				<g>
					<path d="M62.9,53.6c-2.3,0-4.5-0.7-6.1-1.9c-2.8,2-7.9,2.7-11.2,0.4c-0.7-0.5-2-1.6-2.1-2.7c0-0.4,0.1-0.9,0.4-1.2
						c0.3-0.3,0.8-0.3,1.2,0c0.3,0.3,0.3,0.8,0,1.2c0.1,0.1,0.6,0.7,1.5,1.3c2.8,2,7.4,1.2,9.7-0.7c0.3-0.3,0.8-0.3,1.1,0
						c2.2,2,6.8,2.7,9.7,0.7c0.9-0.6,1.4-1.2,1.4-1.5c-0.3-0.3-0.3-0.8,0-1.1c0.3-0.3,0.9-0.2,1.2,0.1c0.3,0.3,0.5,0.8,0.4,1.2
						c-0.1,1.1-1.4,2.1-2.1,2.7C66.5,53.1,64.7,53.6,62.9,53.6z"/>
				</g>
			</g>
			<path d="M46.1,43.6c-0.9,0-1.9-0.3-2.9-1.2c-0.3-0.3-0.4-0.8-0.1-1.1c0.3-0.3,0.8-0.4,1.1-0.1c1.9,1.7,3.6,0.2,3.8,0
				c0.3-0.3,0.8-0.3,1.1,0c0.3,0.3,0.3,0.8,0,1.1C48.5,43,47.4,43.6,46.1,43.6z"/>
			<path d="M67.4,43.6c-1.3,0-2.4-0.6-3-1.2c-0.3-0.3-0.3-0.8,0-1.1c0.3-0.3,0.8-0.3,1.1,0c0.2,0.2,1.9,1.6,3.8,0
				c0.3-0.3,0.8-0.2,1.1,0.1c0.3,0.3,0.2,0.8-0.1,1.1C69.3,43.3,68.3,43.6,67.4,43.6z"/>
		</g>
		<g>
			<path style="fill-rule:evenodd;clip-rule:evenodd;fill:#FFFFFF;" d="M45.7,39.7c-0.1,0.1-0.1,0.2-0.2,0.3
				c-0.1,0.5,0.3,0.6,0.7,0.7c0.2,0,1.2,0.1,1.3-0.1c0.3-0.5-0.3-1.1-0.7-1.2C46.6,39.3,46,39.4,45.7,39.7z"/>
		</g>
	</g>
</g>
<g>
	<g>
		<ellipse style="fill:#DDDDDD;" cx="56.3" cy="169.8" rx="52.5" ry="42.9"/>
		<path d="M56.3,213.7c-29.5,0-53.4-19.7-53.4-43.9s24-43.9,53.4-43.9s53.4,19.7,53.4,43.9S85.8,213.7,56.3,213.7z M56.3,127.9
			c-28.4,0-51.5,18.8-51.5,42s23.1,42,51.5,42s51.5-18.8,51.5-42S84.7,127.9,56.3,127.9z"/>
	</g>
	<ellipse style="fill:#FFFFFF;" cx="56.3" cy="169.8" rx="45.4" ry="37.2"/>
</g>
<g>
	<path style="fill:#F0AB26;" d="M26.4,92.5c-2.9,0-5.4,1.8-6.5,4.3H8.6c-1.2,0-2.2,1-2.2,2.2v1.3c0,1.2,1,2.2,2.2,2.2h11.2
		c1.1,2.5,3.6,4.3,6.5,4.3c4,0,7.2-3.2,7.2-7.2C33.6,95.7,30.4,92.5,26.4,92.5z"/>
	<path d="M26.4,107.8c-3,0-5.7-1.7-7.1-4.3H8.6c-1.8,0-3.2-1.4-3.2-3.2V99c0-1.8,1.4-3.2,3.2-3.2h10.6c1.4-2.6,4.1-4.3,7.1-4.3
		c4.5,0,8.1,3.6,8.1,8.1C34.5,104.1,30.9,107.8,26.4,107.8z M8.6,97.7c-0.7,0-1.3,0.6-1.3,1.3v1.3c0,0.7,0.6,1.3,1.3,1.3h11.9
		l0.3,0.6c1,2.3,3.2,3.7,5.7,3.7c3.4,0,6.2-2.8,6.2-6.2c0-3.4-2.8-6.2-6.2-6.2c-2.5,0-4.7,1.5-5.7,3.7l-0.3,0.6H8.6z"/>
</g>
</svg>
