<?xml version="1.0" encoding="utf-8"?>
<!-- Generator: Adobe Illustrator 25.0.0, SVG Export Plug-In . SVG Version: 6.00 Build 0)  -->
<svg version="1.1" id="Layer_1" xmlns="http://www.w3.org/2000/svg" xmlns:xlink="http://www.w3.org/1999/xlink" x="0px" y="0px"
	 viewBox="0 0 180 280" style="enable-background:new 0 0 180 280;" xml:space="preserve">
<g>
	<path style="fill:#181F41;" d="M107.7,49.1c0,0,8.8,7.8,11,29.4c0,0,18.5,13.6,14.2,23.8s-13.8,9.5-16.3,8.6
		c-4.1-1.6-10-9.7-12.7-16.5s-1-41.6-1-41.6L107.7,49.1z"/>
	<g>
		<path style="fill:#FF8891;" d="M131.4,101.4c0,0-3.5-1.4-7.4,1.5c-3.8,3-2.9,7.7-2.2,9.5c0.7,1.9,2.8,6.5,4.2,7.4
			c1.4,0.9,12.9-2.3,13.4-5.3S135.4,102.7,131.4,101.4z"/>
		<path style="fill:#FF8891;" d="M134.8,115c0,0,1.2,4,1.3,5c0.2,2.2,0.5,4.8,2.9,5c3.5,0.3,0.9-11.8-0.4-14.5L134.8,115z"/>
		<path style="fill:#FF8891;" d="M132.4,118.3c0,0,1.2,4,1.3,5c0.2,2.2,0.5,4.8,2.9,5c3.5,0.3,0.9-11.8-0.4-14.5L132.4,118.3z"/>
		<path style="fill:#FF8891;" d="M129.2,119.2c0,0,1.6,4.2,1.7,5.2c0.2,2.2,0.5,4.8,2.9,5c3.5,0.3,0-11.1-1.2-13.8L129.2,119.2z"/>
		<path style="fill:#FF8891;" d="M125.2,119c0,0,1.7,3.8,1.8,4.8c0.2,2.2,0.5,4.8,2.9,5c3.5,0.3-0.2-10.6-1.5-13.3L125.2,119z"/>
		
			<path style="fill:none;stroke:#181F41;stroke-width:1.0199;stroke-linecap:round;stroke-linejoin:round;stroke-miterlimit:10;" d="
			M129.2,119.2c0,0,1,3,1.1,4.1c0.1,1,0.6,3,0.9,3.9"/>
		
			<path style="fill:none;stroke:#181F41;stroke-width:1.0199;stroke-linecap:round;stroke-linejoin:round;stroke-miterlimit:10;" d="
			M132.6,117.8c0,0,1.4,4.5,1.5,5.5c0.1,1.5,0.4,3.3,1.3,4.3"/>
		
			<path style="fill:none;stroke:#181F41;stroke-width:1.0199;stroke-linecap:round;stroke-linejoin:round;stroke-miterlimit:10;" d="
			M135.1,115c0,0,1.2,4,1.3,5c0.1,1.6,0.4,3.5,1.5,4.4"/>
		
			<path style="fill:#FF8891;stroke:#181F41;stroke-width:1.0199;stroke-linecap:round;stroke-linejoin:round;stroke-miterlimit:10;" d="
			M126.1,105.3c0,0-1.4,5.5,4.4,6.9c0,0,0.3,3.7,2.3,5.1c1.4,1,2.9,1.1,3.6,0.8c1-0.4,1.6-2.1-1.4-8.2"/>
		
			<path style="fill:none;stroke:#181F41;stroke-width:1.0199;stroke-linecap:round;stroke-linejoin:round;stroke-miterlimit:10;" d="
			M127.6,119c0,0,3-1,5-1.8"/>
	</g>
	<path style="fill:none;stroke:#354686;stroke-width:1.0199;stroke-linecap:round;stroke-linejoin:round;stroke-miterlimit:10;" d="
		M110.4,80.5c0,0,3.1-2.5,8.2-2"/>
	<g>
		<g>
			<g>
				<g>
					<path style="fill:#161F43;" d="M126.3,276.5v1.5H81.9l0.6-14.5h27.9C119.7,266.9,126.3,271.4,126.3,276.5z"/>
					<g>
						<g>
							<defs>
								<path id="SVGID_1_" d="M126.3,276.5v1.5H81.9l0.6-14.5h27.9C119.7,266.9,126.3,271.4,126.3,276.5z"/>
							</defs>
							<clipPath id="SVGID_2_">
								<use xlink:href="#SVGID_1_"  style="overflow:visible;"/>
							</clipPath>
							
								<line style="clip-path:url(#SVGID_2_);fill:none;stroke:#FFFFFF;stroke-width:1.0199;stroke-linecap:round;stroke-linejoin:round;stroke-miterlimit:10;" x1="116.2" y1="263.2" x2="109.5" y2="266.6"/>
						</g>
						<g>
							<defs>
								<path id="SVGID_3_" d="M126.3,276.5v1.5H81.9l0.6-14.5h27.9C119.7,266.9,126.3,271.4,126.3,276.5z"/>
							</defs>
							<clipPath id="SVGID_4_">
								<use xlink:href="#SVGID_3_"  style="overflow:visible;"/>
							</clipPath>
							
								<line style="clip-path:url(#SVGID_4_);fill:none;stroke:#FFFFFF;stroke-width:1.0199;stroke-linecap:round;stroke-linejoin:round;stroke-miterlimit:10;" x1="119.6" y1="265.4" x2="112.8" y2="268.8"/>
						</g>
					</g>
					<g>
						<path style="fill:#161F43;" d="M114.4,275.4h11.8c-0.4-2.3-2.3-4.6-5.1-6.6C117.6,269.3,115,272.5,114.4,275.4z"/>
					</g>
					<path style="fill:#161F43;" d="M82.1,273.6l-0.2,4.4h44.4v-1.5c0-1-0.3-1.9-0.7-2.9H82.1z"/>
				</g>
				<polyline style="fill:#5442E5;" points="95.5,110.1 104.4,121.6 110.4,263.5 82.5,263.5 77.9,127.2 				"/>
				<path style="fill:#5442E5;" d="M95.6,83.2l7.9,12.4c-0.5-0.8,0.9,26,0.9,26s-45.2-2-48.7-2c0.5-12.1,0.2-16.5,4.5-19.8
					L95.6,83.2z"/>
				<g>
					<g>
						<path style="fill:#161F43;" d="M70.3,258.5l4.3,5.6l0.7,1.5c1.6,3.6,2.5,7.6,2.5,11.7v0.7H61.2H44.6v-0.7c0-4,0.9-8,2.5-11.7
							l0.7-1.5l4.3-5.6H70.3z"/>
					</g>
					<ellipse style="fill:#161F43;" cx="61.6" cy="266.4" rx="8.2" ry="7.3"/>
					<g>
						<path style="fill:#161F43;" d="M61.2,268.9c-6.7,0-12.1,2.9-12.1,6.5h24.2C73.3,271.9,67.9,268.9,61.2,268.9z"/>
					</g>
					<g>
						<path style="fill:#161F43;" d="M44.8,273.7c-0.1,1.2-0.2,2.3-0.2,3.5v0.7h16.6h16.6v-0.7c0-1.2-0.1-2.4-0.2-3.5H44.8z"/>
					</g>
					
						<path style="fill:none;stroke:#FFFFFF;stroke-width:1.0199;stroke-linecap:round;stroke-linejoin:round;stroke-miterlimit:10;" d="
						M70.7,267.9c-2.1-1.1-5.4-1.9-9.2-1.9s-7.1,0.7-9.2,1.9"/>
					
						<path style="fill:none;stroke:#FFFFFF;stroke-width:1.0199;stroke-linecap:round;stroke-linejoin:round;stroke-miterlimit:10;" d="
						M70.7,270.9c-2.1-1.1-5.4-1.9-9.2-1.9s-7.1,0.7-9.2,1.9"/>
				</g>
				<polyline style="fill:#5442E5;" points="83.7,100.8 55.7,119.6 47.8,264 74.6,264 84.7,125.6 				"/>
				
					<line style="fill:none;stroke:#181F41;stroke-width:1.0199;stroke-linecap:round;stroke-linejoin:round;stroke-miterlimit:10;" x1="80" y1="189.9" x2="83.8" y2="138.2"/>
			</g>
			<g>
				<path style="fill:#181F41;" d="M58.7,57.2c0,0-3.2,29-3.8,49.9h51.8c-0.7-23.6-2.3-49.2-2.3-49.2"/>
				<path style="display:none;fill:#0F39A3;" d="M53.7,66.5l-1.4,0.2c0,0,1.1,20.7,1.8,40.4h7.2c-2-12.4-2.2-27.5-2.5-33
					C56.9,73.5,55.7,67.2,53.7,66.5z"/>
				<path style="fill:#181F41;" d="M111.3,62.5c0.2-7.2-0.6-10.8-4.4-14.1c-3.7-3.3-9.8-5.4-17.4-7.3C89,41,88.4,41,87.9,41H74.6
					c-0.3,0-0.5,0-0.8,0c-6.5,0.8-16,3.1-20.3,5.8c-2.3,1.4,4.9,21.5,4.9,21.5c1.6,2,4.1,3,6.6,2.7l32.4-4.5c0.4,0,0.7-0.1,1.1-0.2
					L111.3,62.5z"/>
				<circle style="fill:#354686;" cx="85.8" cy="73.7" r="1.2"/>
				<circle style="fill:#354686;" cx="85.8" cy="85" r="1.2"/>
				<circle style="fill:#354686;" cx="85.8" cy="96.4" r="1.2"/>
				
					<path style="fill:none;stroke:#354686;stroke-width:1.0199;stroke-linecap:round;stroke-linejoin:round;stroke-miterlimit:10;" d="
					M106.5,99.5c-0.7-16.3-2-41.6-2-41.6"/>
			</g>
		</g>
		
			<path style="fill:none;stroke:#181F41;stroke-width:1.0199;stroke-linecap:round;stroke-linejoin:round;stroke-miterlimit:10;" d="
			M39.2,81.8"/>
		
			<path style="fill:none;stroke:#181F41;stroke-width:1.0199;stroke-linecap:round;stroke-linejoin:round;stroke-miterlimit:10;" d="
			M39.2,81.4"/>
		<g>
			<path style="fill:#FFFFFF;" d="M91,41.5c-0.7-0.2-1.5-0.4-2.2-0.6H74.1c-0.6,0.1-1.2,0.1-1.8,0.2c3.2,5.3,10.2,17.7,12.1,22
				C86.5,58.4,90.1,47.4,91,41.5z"/>
		</g>
	</g>
	<g>
		<path style="fill:#EC3490;" d="M85.4,3.7c0,0-6.5-4.6-15,1.7s-1.6,21.2-1.6,21.2l25,0.2c0,0,5.8-13.7,0.4-20.1
			C90.6,2.5,85.4,3.7,85.4,3.7z"/>
		<path style="fill:#FF808D;" d="M74,41.4c0,0,2.5,1.3,7.3,1.3s7.3-1.3,7.3-1.3V30.7H74V41.4z"/>
		<g>
			<path style="fill:#FF5776;" d="M74,30.3v4c2.1,1.4,4.7,2.2,7.5,2.2c2.6,0,5.1-0.8,7.1-2.2v-4H74z"/>
		</g>
		<path style="fill:#FF808D;" d="M93.1,18.2c2.6-0.7,6.3,0.7,6.4,4.8c0,4.1-3.6,5.6-6.3,5c-2.7-0.6-2.4-2.2-2.4-4.9
			C90.7,20.4,90.4,18.9,93.1,18.2z"/>
		<path style="fill:#FF808D;" d="M69.5,18.5c-2.7-0.6-6.3,0.8-6.3,5c0.1,4.1,3.8,5.5,6.4,4.8s2.3-2.2,2.3-4.9S72.2,19.1,69.5,18.5z"
			/>
		<circle style="fill:#FF808D;" cx="81.3" cy="21.9" r="13.4"/>
		
			<path style="fill:none;stroke:#161F43;stroke-width:1.0199;stroke-linecap:round;stroke-linejoin:round;stroke-miterlimit:10;" d="
			M82.8,22.3c-0.4-0.1-0.9-0.2-1.4-0.2c-1.6,0-2.9,0.6-2.9,1.5"/>
		<circle style="fill:#FFFFFF;" cx="85.9" cy="22.3" r="3.2"/>
		<path style="fill:#D91D4F;" d="M84.4,29.8c0,1-1.2,2.8-3.3,2.6c-2.1-0.2-3.4-2.2-3.4-3.2L84.4,29.8z"/>
		
			<path style="fill:none;stroke:#161F43;stroke-width:1.0199;stroke-linecap:round;stroke-linejoin:round;stroke-miterlimit:10;" d="
			M65.6,21.6c0.6,0,1.1,0,1.6,0.2s0.8,0.5,0.9,0.7"/>
		
			<path style="fill:none;stroke:#161F43;stroke-width:1.0199;stroke-linecap:round;stroke-linejoin:round;stroke-miterlimit:10;" d="
			M97,21.6c-0.6,0-1.1,0-1.6,0.2s-0.8,0.5-0.9,0.7"/>
		<path style="fill:#FFFFFF;" d="M84.4,30.1c0-0.1,0-0.2,0-0.3l-6.7-0.6c0,0.3,0.1,0.6,0.3,1c0.1,0.2,0.3,0.3,0.5,0.3
			c1.9,0,3.7-0.1,5.6-0.1C84.2,30.4,84.4,30.2,84.4,30.1z"/>
		
			<path style="fill:none;stroke:#161F43;stroke-width:1.0199;stroke-linecap:round;stroke-linejoin:round;stroke-miterlimit:10;" d="
			M84.4,29.8c0,1-1.2,2.8-3.3,2.6c-2.1-0.2-3.4-2.2-3.4-3.2L84.4,29.8z"/>
		<circle style="fill:#FFFFFF;" cx="76.8" cy="22.4" r="3.2"/>
		<circle style="fill:#161F43;" cx="85.9" cy="22.3" r="0.8"/>
		<circle style="fill:#161F43;" cx="76.8" cy="22.4" r="0.8"/>
		
			<path style="fill:none;stroke:#161F43;stroke-width:1.0199;stroke-linecap:round;stroke-linejoin:round;stroke-miterlimit:10;" d="
			M88.2,15.7c-1.2-0.2-2.5-0.3-3.8-0.1"/>
		
			<path style="fill:none;stroke:#161F43;stroke-width:1.0199;stroke-linecap:round;stroke-linejoin:round;stroke-miterlimit:10;" d="
			M74.4,15.9c1.2-0.3,2.5-0.3,3.8-0.2"/>
		
			<polyline style="fill:#FF808D;stroke:#161F43;stroke-width:1.0199;stroke-linecap:round;stroke-linejoin:round;stroke-miterlimit:10;" points="
			82.4,20.4 83.7,27.3 80.1,26.4 		"/>
		
			<path style="fill:none;stroke:#161F43;stroke-width:1.0199;stroke-linecap:round;stroke-linejoin:round;stroke-miterlimit:10;" d="
			M82.7,22.3c-0.4-0.1-0.9-0.2-1.4-0.1"/>
		<path style="fill:#EC3490;" d="M87.8,6.5c-4.1-3.2-10.8-2-15,1.2c-3.4,2.7-5.2,5.5-5.2,7.9h-0.2l1.9,6.8l1.2-4.7
			c5.8-1,11-10.2,16.2-6.8c2,3.3,4.4,5.2,5.7,5.8c0.3,2.7,0.9,5.5,0.9,5.5s1-3.9,1.9-5.5C95.1,11.9,95.8,7.4,87.8,6.5z"/>
	</g>
	<path style="fill:#181F41;" d="M53.8,46.7c0,0,10.9,1.9,11.2,23.5c0,0,8.6-0.6,11.3,10.9c2.7,11.5-4.8,14.5-8.5,15.8
		s-13.5,2.5-18.9-6.3s-5.3-19-4.7-28.5C44.9,52.5,51.7,47.1,53.8,46.7z"/>
	<path style="fill:none;stroke:#354686;stroke-width:1.0199;stroke-linecap:round;stroke-linejoin:round;stroke-miterlimit:10;" d="
		M62.7,56.3c1.3,3.3,2.2,7.9,2.3,13.9c0,0,8.6-0.6,11.3,10.9c2.7,11.5-4.8,14.5-8.5,15.8c-2.4,0.8-7.4,1.7-12-0.3"/>
	<g>
		<path style="fill:#FF8891;" d="M72.1,81.2c0,0,1.4-1.7,4.6-3.1c3.2-1.3,4.6-0.7,5-0.1c0.8,1.2,0.7,2.6-2.1,4.4
			c-3.1,1.9-5.6,2.9-5.6,2.9L72.1,81.2z"/>
		<path style="fill:#FF8891;" d="M74.1,85.2c0,0,7.3-6,8.9-2.9c0.9,1.8-1.2,3.3-3.2,4.4s-4.3,2-4.3,2L74.1,85.2z"/>
		<path style="fill:#FF8891;" d="M75.5,88.7l1.3,2.2c0,0,5-1.1,6.5-3.4s-0.7-4.6-3.2-2.1C77.6,87.9,75.5,88.7,75.5,88.7z"/>
		<path style="fill:#FF8891;" d="M68.9,76.3c0,0-1.6,3.6,1.3,9.3s5.8,5.3,6.7,5.2s1.9-3.9-0.5-9.1s-4.6-7.6-4.6-7.6L68.9,76.3z"/>
		<path style="fill:#FF8891;" d="M77.4,70.3c0,0-7.8,2.3-8.7,6.8c-0.7,3.5,9.2-0.7,9.2-0.7s0.8,2.4,2.5,2.5s3.4-0.9,4-2.3
			s-2.7-2.9-2.7-2.9S79.5,69.8,77.4,70.3z"/>
		<path style="fill:#FF8891;" d="M70.8,76.3c0,0,2.5-1.8,4.2-2.5c1.6-0.7,3.3-0.9,4.2,0.5c1.1,1.6,0.1,3.3-2.3,4.5s-4.1,1.7-4.1,1.7
			L70.8,76.3z"/>
		
			<path style="fill:none;stroke:#181F41;stroke-width:1.0199;stroke-linecap:round;stroke-linejoin:round;stroke-miterlimit:10;" d="
			M80.7,81.6c-1.6,1-4.1,2.5-5.1,3"/>
		
			<path style="fill:none;stroke:#181F41;stroke-width:1.0199;stroke-linecap:round;stroke-linejoin:round;stroke-miterlimit:10;" d="
			M78.9,77.4c1.6-0.3,2.6,0.3,3,0.7"/>
		
			<path style="fill:none;stroke:#181F41;stroke-width:1.0199;stroke-linecap:round;stroke-linejoin:round;stroke-miterlimit:10;" d="
			M82.1,85.1c-1.8,1.5-4.8,3.1-4.8,3.1"/>
		
			<path style="fill:none;stroke:#181F41;stroke-width:1.0199;stroke-linecap:round;stroke-linejoin:round;stroke-miterlimit:10;" d="
			M71.8,75.6c0,0,1.5-1.1,3.2-1.8c1.6-0.7,3.1-1,4.1,0.6s0.1,3.2-2.2,4.4C74.5,80,74.3,80,74.3,80"/>
		
			<path style="fill:none;stroke:#181F41;stroke-width:1.0199;stroke-linecap:round;stroke-linejoin:round;stroke-miterlimit:10;" d="
			M74.4,75.7c0,0-0.3,1.4,1.3,2.2"/>
	</g>
	<path style="fill:none;stroke:#354686;stroke-width:1.0199;stroke-linecap:round;stroke-linejoin:round;stroke-miterlimit:10;" d="
		M55.9,72c0,0,3.1-1.9,9.1-1.8"/>
	<g>
		<g>
			<g>
				
					<path style="fill:#FFFFFF;stroke:#579CFF;stroke-width:1.3598;stroke-linecap:round;stroke-linejoin:round;stroke-miterlimit:10;" d="
					M103.6,34.2h-21c-0.9,0-1.7,0.8-1.7,1.7v34c0,0.9,0.8,1.7,1.7,1.7h26.7c0.9,0,1.7-0.8,1.7-1.7V41.5L103.6,34.2z"/>
				
					<path style="fill:#FFFFFF;stroke:#579CFF;stroke-width:1.3598;stroke-linecap:round;stroke-linejoin:round;stroke-miterlimit:10;" d="
					M105.3,41.5h5.7l-7.3-7.3v5.7C103.6,40.8,104.3,41.5,105.3,41.5z"/>
			</g>
			<g>
				<g>
					<path style="fill:#FF3E68;" d="M95.7,64.2c-5.6,1.2-9.4-3.4-9.9-7c-1.1-7.5,4.9-11.7,9.9-9.1"/>
					<path style="fill:#FF3E68;" d="M95.7,64.2c5.6,1.2,9.4-3.4,9.9-7c1.1-7.5-4.9-11.7-9.9-9.1"/>
				</g>
				
					<path style="fill:none;stroke:#FFFFFF;stroke-width:1.3598;stroke-linecap:round;stroke-linejoin:round;stroke-miterlimit:10;" d="
					M93.3,49.1c-2.4,0-4.6,1.6-5.3,4.5"/>
				<path style="fill:#00E7AE;" d="M100.3,48.2c-1.9,1.1-4.4,0.3-4.4,0.3s0.5-2.6,2.4-3.7c1.9-1.1,4.4-0.3,4.4-0.3
					S102.1,47.1,100.3,48.2z"/>
				<circle style="fill:#FFFFFF;" cx="87.8" cy="55.5" r="0.6"/>
				<polygon style="fill:#181F41;" points="96,48.6 95.3,48.6 94.4,44.4 96.9,44.4 				"/>
			</g>
		</g>
		<g>
			<g>
				<g>
					<g>
						
							<path style="fill:#FFFFFF;stroke:#579CFF;stroke-width:1.3598;stroke-linecap:round;stroke-linejoin:round;stroke-miterlimit:10;" d="
							M107.9,31.2h-21c-0.9,0-1.7,0.8-1.7,1.7v34c0,0.9,0.8,1.7,1.7,1.7h26.7c0.9,0,1.7-0.8,1.7-1.7V38.6L107.9,31.2z"/>
						
							<path style="fill:#FFFFFF;stroke:#579CFF;stroke-width:1.3598;stroke-linecap:round;stroke-linejoin:round;stroke-miterlimit:10;" d="
							M109.6,38.6h5.7l-7.3-7.3V37C107.9,37.8,108.7,38.6,109.6,38.6z"/>
					</g>
				</g>
			</g>
			<g>
				<rect x="93.5" y="42.8" style="fill:#181F41;" width="1.8" height="1.8"/>
				<rect x="91.7" y="42.8" style="fill:#181F41;" width="1.8" height="1.8"/>
				<rect x="95.3" y="42.8" style="fill:#181F41;" width="1.8" height="1.8"/>
				<rect x="91.7" y="44.5" style="fill:#181F41;" width="1.8" height="1.8"/>
				<rect x="93.5" y="44.5" style="fill:#FFB83B;" width="1.8" height="1.8"/>
				<rect x="95.3" y="44.5" style="fill:#181F41;" width="1.8" height="1.8"/>
				<rect x="91.7" y="46.3" style="fill:#181F41;" width="1.8" height="1.8"/>
				<rect x="93.5" y="46.3" style="fill:#FFB83B;" width="1.8" height="1.8"/>
				<rect x="95.3" y="46.3" style="fill:#181F41;" width="1.8" height="1.8"/>
				<rect x="93.5" y="41" style="fill:#181F41;" width="1.8" height="1.8"/>
				<rect x="91.7" y="41" style="fill:#181F41;" width="1.8" height="1.8"/>
				<rect x="95.3" y="41" style="fill:#181F41;" width="1.8" height="1.8"/>
				<rect x="91.7" y="42.8" style="fill:#FFB83B;" width="1.8" height="1.8"/>
				<rect x="93.5" y="42.8" style="fill:#FFB83B;" width="1.8" height="1.8"/>
				<rect x="95.3" y="42.8" style="fill:#FFB83B;" width="1.8" height="1.8"/>
				<rect x="90" y="42.8" style="fill:#181F41;" width="1.8" height="1.8"/>
				<rect x="97" y="42.8" style="fill:#181F41;" width="1.8" height="1.8"/>
				<rect x="91.7" y="48" style="fill:#FFB83B;" width="1.8" height="1.8"/>
				<rect x="90" y="48" style="fill:#181F41;" width="1.8" height="1.8"/>
				<rect x="93.5" y="48" style="fill:#FFB83B;" width="1.8" height="1.8"/>
				<rect x="95.3" y="48" style="fill:#FFB83B;" width="1.8" height="1.8"/>
				<rect x="97" y="48" style="fill:#181F41;" width="1.8" height="1.8"/>
				<rect x="91.7" y="49.8" style="fill:#FFB83B;" width="1.8" height="1.8"/>
				<rect x="90" y="49.8" style="fill:#181F41;" width="1.8" height="1.8"/>
				<rect x="93.5" y="49.8" style="fill:#FFB83B;" width="1.8" height="1.8"/>
				<rect x="95.3" y="49.8" style="fill:#FFB83B;" width="1.8" height="1.8"/>
				<rect x="97" y="49.8" style="fill:#FFB83B;" width="1.8" height="1.8"/>
				<rect x="98.8" y="49.8" style="fill:#181F41;" width="1.8" height="1.8"/>
				<rect x="91.7" y="51.5" style="fill:#181F41;" width="1.8" height="1.8"/>
				<rect x="93.5" y="51.5" style="fill:#FFB83B;" width="1.8" height="1.8"/>
				<rect x="95.3" y="51.5" style="fill:#FFFFFF;" width="1.8" height="1.8"/>
				<rect x="97" y="51.5" style="fill:#FFB83B;" width="1.8" height="1.8"/>
				<rect x="98.8" y="51.5" style="fill:#FFB83B;" width="1.8" height="1.8"/>
				<rect x="100.5" y="51.5" style="fill:#181F41;" width="1.8" height="1.8"/>
				<rect x="93.5" y="53.3" style="fill:#181F41;" width="1.8" height="1.8"/>
				<rect x="95.3" y="53.3" style="fill:#FFB83B;" width="1.8" height="1.8"/>
				<rect x="97" y="53.3" style="fill:#FFFFFF;" width="1.8" height="1.8"/>
				<rect x="98.8" y="53.3" style="fill:#FFB83B;" width="1.8" height="1.8"/>
				<rect x="100.5" y="53.3" style="fill:#FFB83B;" width="1.8" height="1.8"/>
				<rect x="102.3" y="53.3" style="fill:#181F41;" width="1.8" height="1.8"/>
				<rect x="104" y="53.3" style="fill:#181F41;" width="1.8" height="1.8"/>
				<rect x="105.8" y="53.3" style="fill:#181F41;" width="1.8" height="1.8"/>
				<rect x="107.5" y="53.3" style="fill:#181F41;" width="1.8" height="1.8"/>
				<rect x="95.3" y="55" style="fill:#181F41;" width="1.8" height="1.8"/>
				<rect x="97" y="55" style="fill:#FFB83B;" width="1.8" height="1.8"/>
				<rect x="98.8" y="55" style="fill:#FFFFFF;" width="1.8" height="1.8"/>
				<rect x="100.5" y="55" style="fill:#FFB83B;" width="1.8" height="1.8"/>
				<rect x="102.3" y="55" style="fill:#FFB83B;" width="1.8" height="1.8"/>
				<rect x="104" y="55" style="fill:#FFB83B;" width="1.8" height="1.8"/>
				<rect x="105.8" y="55" style="fill:#FFB83B;" width="1.8" height="1.8"/>
				<rect x="107.5" y="55" style="fill:#FFB83B;" width="1.8" height="1.8"/>
				<rect x="109.3" y="55" style="fill:#181F41;" width="1.8" height="1.8"/>
				<rect x="97" y="56.8" style="fill:#181F41;" width="1.8" height="1.8"/>
				<rect x="98.8" y="56.8" style="fill:#FFB83B;" width="1.8" height="1.8"/>
				<rect x="100.5" y="56.8" style="fill:#FFB83B;" width="1.8" height="1.8"/>
				<rect x="102.3" y="56.8" style="fill:#FFB83B;" width="1.8" height="1.8"/>
				<rect x="104" y="56.8" style="fill:#FFB83B;" width="1.8" height="1.8"/>
				<rect x="105.8" y="56.8" style="fill:#FFB83B;" width="1.8" height="1.8"/>
				<rect x="98.8" y="58.5" style="fill:#181F41;" width="1.8" height="1.8"/>
				<rect x="100.5" y="58.5" style="fill:#181F41;" width="1.8" height="1.8"/>
				<rect x="102.3" y="58.5" style="fill:#181F41;" width="1.8" height="1.8"/>
				<rect x="104" y="58.5" style="fill:#181F41;" width="1.8" height="1.8"/>
				<rect x="105.8" y="58.5" style="fill:#181F41;" width="1.8" height="1.8"/>
				<rect x="107.5" y="56.8" style="fill:#181F41;" width="1.8" height="1.8"/>
			</g>
		</g>
		<g>
			<g>
				<g>
					
						<path style="fill:#FFFFFF;stroke:#579CFF;stroke-width:1.3598;stroke-linecap:round;stroke-linejoin:round;stroke-miterlimit:10;" d="
						M112.3,28.3h-21c-0.9,0-1.7,0.8-1.7,1.7v34c0,0.9,0.8,1.7,1.7,1.7H118c0.9,0,1.7-0.8,1.7-1.7V35.7L112.3,28.3z"/>
					
						<path style="fill:#FFFFFF;stroke:#579CFF;stroke-width:1.3598;stroke-linecap:round;stroke-linejoin:round;stroke-miterlimit:10;" d="
						M114,35.7h5.7l-7.3-7.3V34C112.3,34.9,113,35.7,114,35.7z"/>
				</g>
			</g>
			<g>
				<polygon style="fill:#FFB83B;" points="102.8,35.3 100.8,34.4 99.6,39 100.6,39.3 				"/>
				<path style="fill:#FFB83B;" d="M100.4,38.2c-1.7-0.8-6.4,7-1.9,14.7c5.1,8.8,16.2,7.9,15.7,4.1c-0.2-1.4-4.7-0.2-9.2-7.8
					C101.4,43,102,38.9,100.4,38.2z"/>
				
					<path style="fill:none;stroke:#FFFFFF;stroke-width:1.0199;stroke-linecap:round;stroke-linejoin:round;stroke-miterlimit:10;" d="
					M106.3,55.7c-1.6-1-3.2-2.5-4.4-4.4c-2.2-3.5-2.3-6.3-2.5-8.2"/>
				
					<path style="fill:none;stroke:#FFFFFF;stroke-width:1.0199;stroke-linecap:round;stroke-linejoin:round;stroke-miterlimit:10;" d="
					M108.8,56.9c-0.3-0.1-0.6-0.2-0.9-0.3"/>
			</g>
		</g>
		<g>
			<g>
				<g>
					
						<path style="fill:#FFFFFF;stroke:#579CFF;stroke-width:1.3598;stroke-linecap:round;stroke-linejoin:round;stroke-miterlimit:10;" d="
						M116.6,25.4h-21c-0.9,0-1.7,0.8-1.7,1.7v34c0,0.9,0.8,1.7,1.7,1.7h26.7c0.9,0,1.7-0.8,1.7-1.7V32.8L116.6,25.4z"/>
					
						<path style="fill:#FFFFFF;stroke:#579CFF;stroke-width:1.3598;stroke-linecap:round;stroke-linejoin:round;stroke-miterlimit:10;" d="
						M118.3,32.8h5.7l-7.3-7.3v5.7C116.6,32,117.4,32.8,118.3,32.8z"/>
				</g>
			</g>
			<g>
				<g>
					
						<polygon style="fill:#FFB83B;stroke:#181F41;stroke-width:1.0199;stroke-linecap:round;stroke-linejoin:round;stroke-miterlimit:10;" points="
						115.8,38.2 115.6,41.4 112.6,45.4 107.4,47.8 104.5,47.6 98.8,44.5 97.8,42.3 98.5,41.3 104.1,42.6 110.1,40.8 114.9,38 					
						"/>
					
						<polyline style="fill:#FFB83B;stroke:#181F41;stroke-width:1.0199;stroke-linecap:round;stroke-linejoin:round;stroke-miterlimit:10;" points="
						113.8,41.6 109.7,44.5 105.1,45.3 100.8,44 					"/>
				</g>
				<g>
					
						<polygon style="fill:#FFB83B;stroke:#181F41;stroke-width:1.0199;stroke-linecap:round;stroke-linejoin:round;stroke-miterlimit:10;" points="
						115.9,37.9 117.2,40.9 116.2,45.9 112.6,50.2 109.9,51.4 103.4,51.1 101.5,49.4 101.7,48.3 107.3,47 111.9,42.8 115,38.1 					
						"/>
					
						<polyline style="fill:#FFB83B;stroke:#181F41;stroke-width:1.0199;stroke-linecap:round;stroke-linejoin:round;stroke-miterlimit:10;" points="
						115.1,41.6 113.2,46.2 109.4,49 105,49.7 					"/>
				</g>
				<g>
					
						<polygon style="fill:#FFB83B;stroke:#181F41;stroke-width:1.0199;stroke-linecap:round;stroke-linejoin:round;stroke-miterlimit:10;" points="
						116.1,37.5 115.1,35 113.9,35.7 115.4,38 114.5,43.5 112.1,49.3 107.6,52.9 107.9,53.9 110.2,54.7 116.2,52.2 118.3,50 
						119.7,44.5 118.5,39.7 					"/>
					
						<polyline style="fill:#FFB83B;stroke:#181F41;stroke-width:1.0199;stroke-linecap:round;stroke-linejoin:round;stroke-miterlimit:10;" points="
						116.9,41.2 117.1,46.1 114.9,50.3 111.1,52.7 					"/>
				</g>
			</g>
		</g>
	</g>
</g>
</svg>
