<?xml version="1.0" encoding="utf-8"?>
<!-- Generator: Adobe Illustrator 24.1.1, SVG Export Plug-In . SVG Version: 6.00 Build 0)  -->
<svg version="1.1" id="Layer_1" xmlns="http://www.w3.org/2000/svg" xmlns:xlink="http://www.w3.org/1999/xlink" x="0px" y="0px"
	 viewBox="0 0 230 240" style="enable-background:new 0 0 230 240;" xml:space="preserve">
<g>
	<path style="fill:#FFFFFF;" d="M83.96,42.78c-0.59,0.4-1.14,0.53-1.67,0.5c-2.77-0.15-4.95-5.05-6.48-6.73
		c-1.14-1.25-2.46-1.81-3.86-1.89c-2.31-0.13-4.8,1.03-6.94,2.5c0,0.03-2.25,1.74-3.11,2.5l0,0.03c-1.45,1.35-3.35,1.97-5.17,1.87
		c-1.72-0.1-3.43-0.81-4.71-2.2c-1.66-1.76-2.22-4.17-1.75-6.35c0.29-1.33,0.98-2.56,2.03-3.58c0.23-0.23,0.88-0.81,1.87-1.62
		c3.05-2.55,6.57-4.65,10.48-5.59c1.83-0.44,3.57-0.61,5.21-0.52c1.48,0.08,2.92,0.38,4.32,0.86c1.4,0.51,2.79,1.21,4.23,2.1
		c1.17,0.74,2.25,1.66,3.28,2.61C84.95,30.26,88.84,39.46,83.96,42.78z"/>
	<path d="M83.9,24.87c-1.39-1.26-2.57-2.22-3.77-2.96c-1.67-1.04-3.27-1.83-4.88-2.4c-1.72-0.61-3.43-0.95-5.2-1.04
		c-1.99-0.11-4,0.07-6.16,0.6c-4.02,0.99-7.99,3.09-11.78,6.28c-0.96,0.76-1.67,1.42-2.01,1.72c-1.22,1.17-2.14,2.6-2.66,4.17
		c-0.13,0.34-0.23,0.72-0.3,1.09c-0.72,3.3,0.22,6.76,2.53,9.26c1.81,1.93,4.25,3.07,6.89,3.22c2.77,0.15,5.52-0.85,7.57-2.76
		c0.28-0.25,0.82-0.68,1.38-1.14c0.87-0.63,1.8-1.3,1.91-1.43c1.68-1.07,3.22-1.63,4.35-1.57c0.65,0.04,1.17,0.31,1.65,0.85
		c0.25,0.28,0.73,0.98,1.15,1.63c1.67,2.49,3.93,5.94,7.53,6.14c1.26,0.07,2.52-0.29,3.64-1.04c2.21-1.5,3.48-3.83,3.72-6.72
		C89.86,33.75,86.88,27.65,83.9,24.87z M83.96,42.78c-0.59,0.4-1.14,0.53-1.67,0.5c-2.77-0.15-4.95-5.05-6.48-6.73
		c-1.14-1.25-2.46-1.81-3.86-1.89c-2.31-0.13-4.8,1.03-6.94,2.5c0,0.03-2.25,1.74-3.11,2.5l0,0.03c-1.45,1.35-3.35,1.97-5.17,1.87
		c-1.72-0.1-3.43-0.81-4.71-2.2c-1.66-1.76-2.22-4.17-1.75-6.35c0.29-1.33,0.98-2.56,2.03-3.58c0.23-0.23,0.88-0.81,1.87-1.62
		c1.24-1.04,2.57-2.02,3.96-2.85c2.04-1.21,4.19-2.19,6.52-2.74c1.83-0.44,3.57-0.61,5.21-0.52c1.48,0.08,2.92,0.38,4.32,0.86
		c1.4,0.51,2.79,1.21,4.23,2.1c1.17,0.74,2.25,1.66,3.28,2.61C84.95,30.26,88.84,39.46,83.96,42.78z"/>
	<path style="fill:#673101;" d="M65.01,37.17c0,0.03-2.25,1.74-3.11,2.5l0,0.03c-1.45,1.35-3.35,1.97-5.17,1.87
		c-1.72-0.1-3.43-0.81-4.71-2.2c-1.66-1.76-2.22-4.17-1.75-6.35c0.29-1.33,0.98-2.56,2.03-3.58c0.23-0.23,0.88-0.81,1.87-1.62
		c1.24-1.04,2.57-2.02,3.96-2.85c0.13,0.01,0.24,0.04,0.35,0.07c0.03,0,0.03,0,0.05,0c0.03,0,0.03,0.03,0.05,0.03
		c1.06,0.36,1.5,1.22,1.5,1.22l0,0.03c0.39,0.67,0.51,1.48,0.28,2.28c-0.23,0.66-0.66,1.15-1.22,1.5c0.61-0.26,1.31-0.36,2-0.13
		c1.46,0.49,2.29,2.07,1.8,3.55c-0.23,0.72-0.72,1.28-1.36,1.62c0.49-0.13,1.06-0.18,1.59-0.02C64.17,35.42,64.8,36.24,65.01,37.17z
		"/>
</g>
<g>
	<path style="fill:#FFFFFF;" d="M135.84,43.24c-1.4,1.26-3.17,1.8-4.89,1.72c-1.85-0.08-3.64-0.89-4.95-2.37c0,0,0-0.03-0.03-0.03
		c-0.74-0.84-2.81-2.76-2.81-2.78c-2-1.67-4.33-3.07-6.64-3.17c-1.4-0.06-2.76,0.36-4.02,1.49c-1.68,1.51-4.33,6.16-7.09,6.03
		c-0.54-0.02-1.07-0.21-1.61-0.66c-4.54-3.77,0.25-12.52,3.78-15.19c1.11-0.84,2.28-1.65,3.51-2.27c1.51-0.74,2.96-1.3,4.4-1.66
		c1.44-0.34,2.9-0.49,4.37-0.43c1.64,0.07,3.34,0.42,5.12,1.03c3.79,1.32,7.07,3.75,9.85,6.59c0.9,0.9,1.49,1.54,1.7,1.79
		c0.95,1.12,1.48,2.4,1.66,3.76C138.46,39.32,137.66,41.66,135.84,43.24z"/>
	<path d="M141.39,36.71c-0.23-2-1.07-3.89-2.4-5.46c-0.33-0.36-0.97-1.09-1.88-1.99c-0.33-0.34-0.67-0.67-1.01-0.99
		c-3.15-2.96-6.52-5.1-10.05-6.36c-2.09-0.74-4.06-1.12-6.05-1.21c-1.77-0.08-3.5,0.09-5.29,0.52c-1.63,0.41-3.3,1.04-5.06,1.9
		c-1.26,0.62-2.54,1.45-4.04,2.57c-3.23,2.47-6.79,8.23-6.9,13.22c-0.07,2.9,0.98,5.34,3.03,7.04c1.04,0.85,2.25,1.34,3.51,1.39
		c3.6,0.16,6.18-3.04,8.09-5.35c0.48-0.6,1-1.25,1.3-1.5c0.53-0.49,1.08-0.71,1.72-0.68c1.13,0.05,2.6,0.76,4.16,1.98
		c0.15,0.22,2.28,2.06,2.97,2.82c0.03,0.03,0.03,0.03,0.05,0.06c1.82,2.1,4.48,3.37,7.24,3.49c2.63,0.12,5.17-0.77,7.15-2.51
		C140.51,43.42,141.78,40.09,141.39,36.71z M135.84,43.24c-1.4,1.26-3.17,1.8-4.89,1.72c-1.85-0.08-3.64-0.89-4.95-2.37
		c0,0,0-0.03-0.03-0.03c-0.74-0.84-2.81-2.76-2.81-2.78c-2-1.67-4.33-3.07-6.64-3.17c-1.4-0.06-2.76,0.36-4.02,1.49
		c-1.68,1.51-4.33,6.16-7.09,6.03c-0.54-0.02-1.07-0.21-1.61-0.66c-4.54-3.77,0.25-12.52,3.78-15.19c1.11-0.84,2.28-1.65,3.51-2.27
		c1.51-0.74,2.96-1.3,4.4-1.66c1.44-0.34,2.9-0.49,4.37-0.43c1.64,0.07,3.34,0.42,5.12,1.03c2.25,0.77,4.3,1.96,6.2,3.39l0.03,0
		c1.3,0.97,2.49,2.04,3.62,3.2c0.9,0.9,1.49,1.54,1.7,1.79c0.95,1.12,1.48,2.4,1.66,3.76C138.46,39.32,137.66,41.66,135.84,43.24z"
		/>
	<path style="fill:#673101;" d="M135.84,43.24c-1.4,1.26-3.17,1.8-4.89,1.72c-1.85-0.08-3.64-0.89-4.95-2.37c0,0,0-0.03-0.03-0.03
		c-0.74-0.84-2.81-2.76-2.81-2.78c0.31-0.9,1.01-1.65,2.02-1.87c0.54-0.11,1.08-0.01,1.58,0.18c-0.6-0.4-1.03-1.01-1.19-1.75
		c-0.34-1.52,0.64-3.01,2.14-3.35c0.71-0.16,1.37,0.01,1.98,0.33c-0.52-0.4-0.9-0.93-1.06-1.61c-0.2-0.98,0.14-1.96,0.81-2.6
		c0.81-0.74,1.62-0.76,1.75-0.76l0.03,0c1.3,0.97,2.49,2.04,3.62,3.2c0.9,0.9,1.49,1.54,1.7,1.79c0.95,1.12,1.48,2.4,1.66,3.76
		C138.46,39.32,137.66,41.66,135.84,43.24z"/>
</g>
<g>
	<path style="fill:#FFFFFF;" d="M76.87,177.23l1.46,4.82c0,0-2.83-0.86-6,0.11c-3.21,0.96-5.22,3.26-5.22,3.26l-1.43-4.81
		c-0.56-1.79,3.48-4.58,5.62-5.24C73.43,174.75,76.35,175.45,76.87,177.23z"/>
	<path style="fill-rule:evenodd;clip-rule:evenodd;fill:#009FF9;" d="M78.33,182.05l7.86,26.08c0.51,1.64-1.75,3.79-3.84,4.78
		l-0.78,0.31l-2.65,0.82l-0.29,0.08l-2.61,0.79l-3.91,1.18c-3.83,1.17-8.32,3.01-11.98,1.14c-2.49-1.29-3.08-5.15-2.47-7.56
		c1.14-4.42,4.58-8.48,9.23-10.87c0,0,0.22-0.1,0.27-0.13l0.19-0.09c0.71-0.34,1.37-0.62,2.02-0.84c0.46-0.16,0.92-0.32,1.35-0.43
		l-3.13-10.32l-0.48-1.56c0,0,0,0,0.02-0.01c0.22-0.28,2.19-2.36,5.19-3.25C75.51,181.19,78.33,182.05,78.33,182.05z"/>
	<path d="M67.11,185.43l0.48,1.56l-0.45-1.57C67.11,185.43,67.11,185.43,67.11,185.43z"/>
	<path d="M75.63,172.3c-1.7-0.5-3.62-0.51-5.25,0c-0.47,0.14-0.99,0.35-1.53,0.61c-0.8,0.38-7.72,3.83-6.26,8.65l0.99,3.26l0.94,3.1
		l2.23,7.38l-1.36,0.65c-5.39,2.78-9.47,7.61-10.85,12.92c-0.86,3.33-0.16,9.06,4.13,11.25c4.38,2.24,9.18,0.73,12.98-0.49
		c0.5-0.15,0.93-0.3,1.41-0.43l3.91-1.18l2.61-0.79l2.79-0.85c0.11-0.02,0.18-0.06,0.25-0.09l0.93-0.36l0.19-0.09
		c1.77-0.85,3.43-2.14,4.49-3.66c1.07-1.52,1.58-3.26,1.06-4.98l-8.33-27.62l-1-3.28C79.41,174.41,77.82,172.96,75.63,172.3z
		 M77.87,180.51l0.46,1.54l7.86,26.08c0.51,1.64-1.75,3.79-3.84,4.78l-0.78,0.31l-0.15,0.07l-2.51,0.75l-0.29,0.08l-2.61,0.79
		l-3.91,1.18c-3.83,1.17-8.32,3.01-11.98,1.14c-2.49-1.29-3.08-5.15-2.47-7.56c1.14-4.42,4.58-8.48,9.23-10.87
		c0,0,0.22-0.1,0.27-0.13l0.19-0.09c0.71-0.34,1.37-0.62,2.02-0.84c0.46-0.16,0.92-0.32,1.35-0.43l-3.13-10.32l-0.48-1.56
		c0,0,0,0,0.02-0.01l-0.46-1.54l-0.99-3.26c-0.46-1.54,2.38-3.76,4.55-4.79c0.39-0.19,0.73-0.35,1.07-0.45
		c2.12-0.62,5.05,0.07,5.57,1.85L77.87,180.51z"/>
</g>
<g>
	<path style="fill:#FFFFFF;" d="M142.07,127.02c0,6.54-4.55,11.88-10.13,11.88c-5.6,0-10.15-5.33-10.15-11.88
		s4.55-11.88,10.15-11.88C137.52,115.14,142.07,120.48,142.07,127.02z"/>
	<path d="M131.95,112.45c-7.08,0-12.85,6.54-12.85,14.57c0,8.05,5.76,14.57,12.85,14.57c7.06,0,12.82-6.52,12.82-14.57
		C144.77,119,139,112.45,131.95,112.45z M131.95,138.9c-5.6,0-10.15-5.33-10.15-11.88s4.55-11.88,10.15-11.88
		c5.57,0,10.13,5.33,10.13,11.88S137.52,138.9,131.95,138.9z"/>
</g>
<g>
	<path style="fill:#FFFFFF;" d="M104.56,203.21c0,0-2.37,0.67-5.52,0.75c-3.15,0.08-5.52-0.46-5.52-0.46l-0.83-31.91
		c-0.05-2.1,5.04-3.93,7.14-3.99c2.1-0.05,3.85,1.59,3.9,3.69L104.56,203.21z"/>
	<path style="fill-rule:evenodd;clip-rule:evenodd;fill:#009FF9;" d="M120.31,233.04c-2.72,3.29-7.27,2.88-11.07,2.96l-3.85,0.11
		l-2.59,0.05l-2.75,0.08l-0.94-0.08c-2.15-0.32-4.82-1.86-4.87-3.77l-0.73-28.9c0,0,2.37,0.54,5.52,0.46
		c3.15-0.08,5.52-0.75,5.52-0.75l0.3,12.17c0.24-0.03,0.48-0.03,0.73-0.03c0.86,0,1.8,0.05,2.88,0.24c0.05,0,0.27,0.05,0.27,0.05
		c4.87,0.92,9.16,4.07,11.53,8.43C121.53,226.45,122.17,230.81,120.31,233.04z"/>
	<path d="M123.12,222.54c-2.83-5.2-7.97-8.97-13.79-10.07l-0.19-0.03c-0.4-0.08-0.75-0.13-1.13-0.16l-0.22-9.16l-0.11-3.66
		l-0.73-28.25c-0.08-3.85-3.18-6.84-7.03-6.84h-0.19c-2.21,0.05-10.42,2.02-10.29,7.3l0.73,28.25l0.83,32.56
		c0.11,3.72,3.99,6.33,7.59,6.89c0.11,0,0.19,0.03,0.27,0.03l0.94,0.08h0.32l2.75-0.08l2.59-0.05l3.88-0.11h1.35
		c3.69-0.05,8.78-0.08,12.12-4.12C125.78,231.54,124.76,225.61,123.12,222.54z M120.31,233.04c-2.72,3.29-7.27,2.88-11.07,2.96
		l-3.85,0.11l-2.59,0.05l-2.75,0.08l-0.94-0.08c-2.15-0.32-4.82-1.86-4.87-3.77l-0.83-32.56l-0.73-28.25
		c-0.05-2.1,5.04-3.93,7.14-3.99h0.11c2.05,0,3.74,1.62,3.8,3.69l0.73,28.25l0.11,3.66l0.3,12.17c0.24-0.03,0.48-0.03,0.73-0.03
		c0.86,0,1.8,0.05,2.88,0.24c0.05,0,0.27,0.05,0.27,0.05c4.87,0.92,9.16,4.07,11.53,8.43C121.53,226.45,122.17,230.81,120.31,233.04
		z"/>
</g>
<g>
	<path style="fill:#FFFFFF;" d="M43.57,124.07c-2.56,0.95-4.97,2.14-7.27,3.55c-3.25-2.35-4.95-7.01-5.29-10.07
		c6.53-3.54,13.93-5.41,22.15-4.92c1.83,0.12,4.85,0.02,6.17,1.6C64.29,120.14,46.23,123.09,43.57,124.07z"/>
	<path style="fill:#0088C5;" d="M36.33,127.63c-0.63,0.38-1.24,0.77-1.83,1.17c-1.07,0.89-2.14,1.84-2.57,2.2
		c-0.05,0.03-0.12,0.08-0.14,0.1c-4.23,3.23-6.49,7.18-9.46,11.48c-1.29,1.86-2.96,3.77-4.92,4.29c-0.54,0.15-1.11,0.17-1.69,0.05
		c-0.2-0.04-0.39-0.11-0.61-0.17c-0.74-0.26-1.48-0.76-2.24-1.54c-0.4-0.42-0.81-0.95-1.18-1.5c-0.8-1.24-1.4-2.72-1.35-3.94
		c0.25-5.78,5.09-10.13,8.8-13.67c1.91-1.84,3.96-3.56,6.12-5.09c0.05-0.03,0.19-0.13,0.38-0.26c0.26-0.18,0.66-0.46,1.09-0.74
		c0,0-0.02-0.02,0.02-0.02c0.61-0.39,1.27-0.85,1.91-1.28c0.02-0.02,0.04-0.01,0.04-0.01c0.82-0.5,1.58-0.96,1.99-1.16
		c0.14-0.06,0.26-0.08,0.32-0.07l0.01,0.04l0.01,0.04c0.33,3.05,2.04,7.71,5.29,10.07L36.33,127.63z"/>
	<path d="M15.72,146.93c0.58,0.12,1.16,0.1,1.69-0.05C16.87,146.99,16.3,147.05,15.72,146.93z M12.87,145.23
		c0.77,0.78,1.51,1.27,2.24,1.54c-0.39-0.15-0.79-0.37-1.21-0.67C13.57,145.86,13.22,145.57,12.87,145.23z"/>
	<path d="M63.15,117.94c0.37-1.12,0.69-3.38-1.31-5.77c-0.34-0.41-0.72-0.75-1.16-1.06c-2.06-1.47-4.69-1.59-6.61-1.68l-0.68-0.02
		c-8.13-0.48-15.96,1.17-23.25,4.93c-1.59,0.42-3.59,1.83-6.72,4.03c-2.23,1.59-4.41,3.4-6.5,5.39l-0.42,0.4
		c-3.85,3.63-9.08,8.64-9.37,15.48c-0.12,2.43,1.11,4.7,1.84,5.85c0.47,0.73,1.03,1.43,1.61,2.01c0.46,0.46,0.96,0.88,1.44,1.23
		c1.75,1.25,3.69,1.74,5.64,1.42c2.59-0.47,5-2.32,7.33-5.72c0.52-0.72,1-1.44,1.47-2.16c2.25-3.33,4.18-6.22,7.3-8.59
		c0.1-0.09,0.41-0.34,0.81-0.71c0.49-0.41,1.17-0.99,1.87-1.55c2.69-1.82,5.46-3.28,8.26-4.33c0.31-0.11,1.39-0.37,2.31-0.6
		C54.66,124.58,61.67,122.51,63.15,117.94z M43.57,124.07c-2.56,0.95-4.97,2.18-7.24,3.56c-0.63,0.38-1.24,0.77-1.83,1.17
		c-1.07,0.89-2.14,1.84-2.57,2.2c-0.05,0.03-0.12,0.08-0.14,0.1c-4.23,3.23-6.49,7.18-9.46,11.48c-1.29,1.86-2.96,3.77-4.92,4.29
		c-0.54,0.15-1.11,0.17-1.69,0.05c-0.2-0.04-0.39-0.11-0.61-0.17c-0.74-0.26-1.48-0.76-2.24-1.54c-0.4-0.42-0.81-0.95-1.18-1.5
		c-0.8-1.24-1.4-2.72-1.35-3.94c0.25-5.78,5.09-10.13,8.8-13.67c1.91-1.84,3.96-3.56,6.12-5.09c0.05-0.03,0.19-0.13,0.38-0.26
		c0.26-0.18,0.64-0.44,1.09-0.74c0,0-0.02-0.02,0.02-0.02c0.59-0.41,1.28-0.87,1.91-1.28c0.02-0.02,0.04-0.01,0.04-0.01
		c0.8-0.56,1.56-0.97,1.99-1.16c0.14-0.06,0.26-0.08,0.32-0.07l0.02,0.02c0,0,0,0-0.02,0.02l0.02,0.02
		c6.54-3.5,13.93-5.41,22.14-4.9c1.62,0.1,4.14,0.04,5.63,1.11c0.2,0.14,0.38,0.3,0.54,0.49C64.29,120.14,46.23,123.09,43.57,124.07
		z"/>
</g>
<g>
	<path style="fill-rule:evenodd;clip-rule:evenodd;fill:#009FF9;" d="M132.54,115.68c-0.03,0.13-0.3,2.8-0.3,5.2
		c0,0.78,0.03,1.56,0.11,2.18c0.3,2.29,0.7,4.55,1.08,6.84c0.78,4.44,1.56,9.02,1.59,13.55c0.05,8.05-2.45,19.77-8.13,26.45
		c-6.68,7.89-18.45,12.68-32.29,13.2c-1.64,0.05-3.45,0.05-5.17-0.03l-3.64-0.16c-1.75-0.08-3.55-0.24-5.17-0.46
		c-13.73-1.72-25.02-7.57-30.97-16.02c-5.06-7.16-6.52-19.04-5.74-27.06c0.46-4.5,1.64-9.02,2.8-13.38c0.59-2.21,1.18-4.44,1.7-6.68
		c0.54-2.5,0.48-7.19,0.48-7.43c-0.16-3.53-1.08-6.84-1.94-9.64c-3.37-10.99-3.58-21.14-0.62-31.91
		c2.67-9.75,7.73-17.88,13.84-22.35c9.67-7.03,20.66-10.99,30.38-10.99c0.57,0,1.13,0.03,1.67,0.05l3.88,0.16
		c10.13,0.43,21.41,5.47,30.94,13.79c5.68,4.98,9.96,13.55,11.77,23.51c1.97,10.99,0.86,21.09-3.5,31.72
		C134.21,108.9,133.03,112.13,132.54,115.68z"/>
	<path d="M138.3,107.42c4.55-11.07,5.76-22.06,3.69-33.53c-1.91-10.66-6.6-19.9-12.82-25.34c-10.07-8.81-22.08-14.14-32.94-14.6
		l-3.85-0.16c-10.83-0.48-23.29,3.69-34.12,11.55c-6.71,4.87-12.17,13.68-15.05,24.1c-3.07,11.26-2.85,22.27,0.67,33.74
		c0.78,2.59,1.62,5.66,1.78,8.78c0,1.24-0.03,4.85-0.43,6.62c-0.48,2.18-1.05,4.36-1.64,6.57c-1.18,4.47-2.42,9.1-2.88,13.87
		c-0.86,8.89,0.73,21.38,6.3,29.25c6.46,9.18,18.58,15.54,33.2,17.4c1.7,0.22,3.58,0.38,5.41,0.46l3.64,0.16
		c1.05,0.05,2.1,0.05,3.12,0.05c0.81,0,1.59,0,2.32-0.03c14.76-0.54,27.36-5.76,34.66-14.33c6.22-7.35,8.94-19.63,8.89-28.57
		c-0.03-4.77-0.83-9.51-1.62-14.08c-0.4-2.24-0.78-4.44-1.08-6.71c-0.22-1.78,0.05-5.39,0.19-6.57
		C136.18,112.91,137.28,109.95,138.3,107.42z M89.43,183.06l-3.64-0.16c-1.75-0.08-3.55-0.24-5.17-0.46
		c-13.73-1.72-25.02-7.57-30.97-16.02c-5.06-7.16-6.52-19.04-5.74-27.06c0.46-4.5,1.64-9.02,2.8-13.38c0.59-2.21,1.18-4.44,1.7-6.68
		c0.54-2.5,0.48-7.19,0.48-7.43c-0.16-3.53-1.08-6.84-1.94-9.64c-3.37-10.99-3.58-21.14-0.62-31.91
		c2.67-9.75,7.73-17.88,13.84-22.35c9.67-7.03,20.66-10.99,30.38-10.99c0.57,0,1.13,0.03,1.67,0.05l3.88,0.16
		c10.13,0.43,21.41,5.47,30.94,13.79c5.68,4.98,9.96,13.55,11.77,23.51c1.97,10.99,0.86,21.09-3.5,31.72
		c-1.1,2.69-2.29,5.92-2.77,9.48c-0.03,0.13-0.3,2.8-0.3,5.2c0,0.78,0.03,1.56,0.11,2.18c0.3,2.29,0.7,4.55,1.08,6.84
		c0.78,4.44,1.56,9.02,1.59,13.55c0.05,8.05-2.45,19.77-8.13,26.45c-6.68,7.89-18.45,12.68-32.29,13.2
		C92.95,183.14,91.15,183.14,89.43,183.06z"/>
</g>
</svg>
