<?xml version="1.0" encoding="utf-8"?>
<!-- Generator: Adobe Illustrator 26.5.0, SVG Export Plug-In . SVG Version: 6.00 Build 0)  -->
<svg version="1.1" id="레이어_1" xmlns="http://www.w3.org/2000/svg" xmlns:xlink="http://www.w3.org/1999/xlink" x="0px"
	 y="0px" viewBox="0 0 142 248" style="enable-background:new 0 0 142 248;" xml:space="preserve">
<g>
	<path style="fill:#FFFFFF;" d="M139.9,1.4c0.4,0,0.7,0.3,0.7,0.7v4.7v23.4V35c0,0.4-0.3,0.7-0.7,0.7h-4.6v88.2l5.2,11.9l0,0
		c0,0.1,0.1,0.2,0.1,0.3v23.4c0,0.4-0.3,0.7-0.7,0.7H138v65.5c0,0.4-0.3,0.7-0.7,0.7h-4.1v19.5c0,0.4-0.3,0.7-0.7,0.7h-30.3H39.8
		H9.5c-0.4,0-0.7-0.3-0.7-0.7v-19.5H4.7c-0.4,0-0.7-0.3-0.7-0.7v-65.5H2.1c-0.4,0-0.7-0.3-0.7-0.7v-23.4c0-0.1,0-0.2,0.1-0.3l0,0
		l5.2-11.9V35.7H2.1c-0.4,0-0.7-0.3-0.7-0.7v-4.7V6.8V2.1c0-0.4,0.3-0.7,0.7-0.7L139.9,1.4 M139.9,0H2.1C0.9,0,0,0.9,0,2.1v4.7v23.4
		V35c0,1.2,0.9,2.1,2.1,2.1h3.2v86.5l-5.1,11.7l-0.1,0.2v0.1c0,0.2-0.1,0.3-0.1,0.5v23.4c0,1.2,0.9,2.1,2.1,2.1h0.5v64.1
		c0,1.2,0.9,2.1,2.1,2.1h2.7v18.1c0,1.2,0.9,2.1,2.1,2.1h30.3h62.3h30.3c1.2,0,2.1-0.9,2.1-2.1v-18.1h2.7c1.2,0,2.1-0.9,2.1-2.1
		v-64.1h0.5c1.2,0,2.1-0.9,2.1-2.1v-23.4c0-0.2,0-0.4-0.1-0.5v-0.1l-0.1-0.2l-5.1-11.7V37.1h3.2c1.2,0,2.1-0.9,2.1-2.1v-4.7V6.8V2.1
		C142,0.9,141.1,0,139.9,0L139.9,0z"/>
	<g>
		<g>
			<polygon style="fill:#454545;" points="10.5,124 4.7,136.1 137.3,136.1 131.5,124 			"/>
			<path d="M137.3,136.8H4.7c-0.2,0-0.5-0.1-0.6-0.3s-0.1-0.5,0-0.7l5.7-12.1c0.1-0.2,0.4-0.4,0.6-0.4h121c0.3,0,0.5,0.2,0.6,0.4
				l5.7,12.1c0.1,0.2,0.1,0.5,0,0.7C137.7,136.7,137.5,136.8,137.3,136.8z M5.9,135.4h130.3l-5.1-10.7H10.9L5.9,135.4z"/>
		</g>
		<g>
			<rect x="9.5" y="225.7" style="fill:#212121;" width="122.9" height="20.2"/>
			<path d="M132.5,246.6H9.5c-0.4,0-0.7-0.3-0.7-0.7v-20.2c0-0.4,0.3-0.7,0.7-0.7h122.9c0.4,0,0.7,0.3,0.7,0.7v20.2
				C133.2,246.3,132.9,246.6,132.5,246.6z M10.2,245.2h121.5v-18.8H10.2V245.2z"/>
		</g>
		<g>
			<rect x="7.4" y="35" style="fill:#007FEA;" width="127.2" height="89.1"/>
			<path d="M134.6,124.7H7.4c-0.4,0-0.7-0.3-0.7-0.7V35c0-0.4,0.3-0.7,0.7-0.7h127.2c0.4,0,0.7,0.3,0.7,0.7v89
				C135.3,124.4,135,124.7,134.6,124.7z M8.1,123.3h125.8V35.7H8.1V123.3z"/>
		</g>
		<g>
			<rect x="12.8" y="35" style="fill:#212121;" width="116.5" height="89.1"/>
			<path d="M129.2,124.7H12.8c-0.4,0-0.7-0.3-0.7-0.7V35c0-0.4,0.3-0.7,0.7-0.7h116.5c0.4,0,0.7,0.3,0.7,0.7v89
				C129.9,124.4,129.6,124.7,129.2,124.7z M13.5,123.3h115.1V35.7H13.5V123.3z"/>
		</g>
		<g>
			<rect x="2.1" y="2.1" style="fill:#007FEA;" width="137.8" height="32.9"/>
			<path d="M139.9,35.7H2.1c-0.4,0-0.7-0.3-0.7-0.7V2.1c0-0.4,0.3-0.7,0.7-0.7h137.8c0.4,0,0.7,0.3,0.7,0.7V35
				C140.6,35.4,140.3,35.7,139.9,35.7z M2.8,34.3h136.4V2.8H2.8V34.3z"/>
		</g>
		<path style="fill:#898989;" d="M115.6,113.5H26.4c-2.9,0-5.3-2.3-5.3-5.2V46.6c0-2.9,2.4-5.2,5.3-5.2h89.2c2.9,0,5.3,2.3,5.3,5.2
			v61.7C120.8,111.2,118.5,113.5,115.6,113.5z M26.4,42.8c-2.1,0-3.9,1.7-3.9,3.8v61.7c0,2.1,1.7,3.8,3.9,3.8h89.2
			c2.1,0,3.9-1.7,3.9-3.8V46.6c0-2.1-1.7-3.8-3.9-3.8H26.4z"/>
		<g>
			<rect x="2.1" y="6.8" style="fill:#212121;" width="137.8" height="23.4"/>
			<path d="M139.9,30.9H2.1c-0.4,0-0.7-0.3-0.7-0.7V6.8c0-0.4,0.3-0.7,0.7-0.7h137.8c0.4,0,0.7,0.3,0.7,0.7v23.4
				C140.6,30.6,140.3,30.9,139.9,30.9z M2.8,29.5h136.4v-22H2.8V29.5z"/>
		</g>
		<g>
			<rect x="2.1" y="136.1" style="fill:#212121;" width="137.8" height="23.4"/>
			<path d="M139.9,160.2H2.1c-0.4,0-0.7-0.3-0.7-0.7v-23.4c0-0.4,0.3-0.7,0.7-0.7h137.8c0.4,0,0.7,0.3,0.7,0.7v23.4
				C140.6,159.9,140.3,160.2,139.9,160.2z M2.8,158.8h136.4v-22H2.8V158.8z"/>
		</g>
		<g>
			<rect x="4.7" y="159.5" style="fill:#007FEA;" width="132.5" height="66.2"/>
			<path d="M137.3,226.4H4.7c-0.4,0-0.7-0.3-0.7-0.7v-66.2c0-0.4,0.3-0.7,0.7-0.7h132.5c0.4,0,0.7,0.3,0.7,0.7v66.2
				C138,226.1,137.6,226.4,137.3,226.4z M5.5,225h131.1v-64.8H5.5V225z"/>
		</g>
		<g>
			<polygon style="fill:#00ACFF;" points="7.4,124 2.1,136.1 7.4,136.1 12.8,124 			"/>
			<path d="M7.4,136.8H2.1c-0.2,0-0.5-0.1-0.6-0.3s-0.2-0.4-0.1-0.7l5.3-12.1c0.1-0.3,0.4-0.4,0.6-0.4h5.4c0.2,0,0.5,0.1,0.6,0.3
				c0.1,0.2,0.1,0.4,0.1,0.7L8,136.4C7.9,136.6,7.7,136.8,7.4,136.8z M3.2,135.4h3.7l4.8-10.7H7.8L3.2,135.4z"/>
		</g>
		<g>
			<polygon style="fill:#00ACFF;" points="134.6,124 139.9,136.1 134.6,136.1 129.2,124 			"/>
			<path d="M139.9,136.8h-5.3c-0.3,0-0.5-0.2-0.6-0.4l-5.4-12.1c-0.1-0.2-0.1-0.5,0.1-0.7c0.1-0.2,0.4-0.3,0.6-0.3h5.4
				c0.3,0,0.5,0.2,0.6,0.4l5.3,12.1c0.1,0.2,0.1,0.5-0.1,0.7C140.3,136.7,140.1,136.8,139.9,136.8z M135.1,135.4h3.7l-4.7-10.7h-3.8
				L135.1,135.4z"/>
		</g>
		<g>
			<rect x="134.6" y="136.1" style="fill:#007FEA;" width="5.3" height="23.4"/>
			<path d="M139.9,160.2h-5.3c-0.4,0-0.7-0.3-0.7-0.7v-23.4c0-0.4,0.3-0.7,0.7-0.7h5.3c0.4,0,0.7,0.3,0.7,0.7v23.4
				C140.6,159.9,140.3,160.2,139.9,160.2z M135.3,158.8h3.9v-22h-3.9V158.8z"/>
		</g>
		<g>
			<rect x="2.1" y="136.1" style="fill:#007FEA;" width="5.3" height="23.4"/>
			<path d="M7.4,160.2H2.1c-0.4,0-0.7-0.3-0.7-0.7v-23.4c0-0.4,0.3-0.7,0.7-0.7h5.3c0.4,0,0.7,0.3,0.7,0.7v23.4
				C8.1,159.9,7.8,160.2,7.4,160.2z M2.8,158.8h3.9v-22H2.8V158.8z"/>
		</g>
		<g>
			<rect x="10.5" y="159.5" style="fill:#212121;" width="121" height="60.9"/>
			<path d="M131.5,221.1h-121c-0.4,0-0.7-0.3-0.7-0.7v-60.9c0-0.4,0.3-0.7,0.7-0.7h121c0.4,0,0.7,0.3,0.7,0.7v60.9
				C132.2,220.8,131.9,221.1,131.5,221.1z M11.2,219.7h119.6v-59.5H11.2V219.7z"/>
		</g>
		<g>
			<g>
				<path style="fill:#818181;" d="M25.2,132.8h-0.5c-0.8,0-1.5-0.7-1.5-1.5v-11.6c0-0.8,0.7-1.5,1.5-1.5h0.5c0.8,0,1.5,0.7,1.5,1.5
					v11.6C26.8,132.1,26.1,132.8,25.2,132.8z"/>
				<path d="M25,133.5c-1.4,0-2.5-1.1-2.5-2.5v-11.1c0-1.4,1.1-2.5,2.5-2.5s2.5,1.1,2.5,2.5V131C27.5,132.4,26.4,133.5,25,133.5z
					 M25,118.8c-0.6,0-1.1,0.5-1.1,1.1V131c0,0.6,0.5,1.1,1.1,1.1s1.1-0.5,1.1-1.1v-11.1C26.1,119.3,25.6,118.8,25,118.8z"/>
			</g>
			<g>
				<path style="fill:#FF3643;" d="M30.2,114.4c0,2.9-0.4,13.8-5.3,13.8c-5.3,0-5.3-10.9-5.3-13.8s2.4-5.2,5.3-5.2
					S30.2,111.5,30.2,114.4z"/>
				<path d="M25,128.9c-4,0-6-4.9-6-14.5c0-3.3,2.7-5.9,6-5.9s6,2.7,6,5.9C30.9,117.8,30.5,128.9,25,128.9z M25,109.9
					c-2.5,0-4.6,2-4.6,4.5c0,10.8,2.5,13.1,4.6,13.1c3.6,0,4.6-8.2,4.6-13.1C29.5,111.9,27.5,109.9,25,109.9z"/>
			</g>
		</g>
		<g>
			<g>
				<ellipse style="fill:#FFFFFF;" cx="38.5" cy="127.1" rx="4.5" ry="1.9"/>
				<path d="M38.5,129.7c-2.6,0-5.2-0.9-5.2-2.6c0-3.4,10.4-3.4,10.4,0C43.7,128.8,41.1,129.7,38.5,129.7z M38.5,125.8
					c-2.5,0-3.8,0.9-3.8,1.2s1.3,1.2,3.8,1.2s3.8-0.9,3.8-1.2S41,125.8,38.5,125.8z"/>
			</g>
			<g>
				<ellipse style="fill:#FFAD4A;" cx="38.5" cy="125.9" rx="3.2" ry="1.4"/>
				<path d="M38.5,128c-1.9,0-3.9-0.7-3.9-2.1c0-2.7,7.7-2.7,7.7,0C42.4,127.3,40.4,128,38.5,128z M38.5,125.2
					c-1.5,0-2.4,0.5-2.5,0.7c0.1,0.1,0.9,0.6,2.5,0.6c1.5,0,2.3-0.4,2.4-0.7C40.8,125.7,40,125.2,38.5,125.2z M41,125.9L41,125.9
					L41,125.9z"/>
			</g>
		</g>
		<g>
			<g>
				<ellipse style="fill:#FFFFFF;" cx="48.4" cy="127.1" rx="4.5" ry="1.9"/>
				<path d="M48.4,129.7c-2.6,0-5.2-0.9-5.2-2.6c0-3.4,10.4-3.4,10.4,0C53.6,128.8,51,129.7,48.4,129.7z M48.4,125.8
					c-2.5,0-3.8,0.9-3.8,1.2s1.3,1.2,3.8,1.2s3.8-0.9,3.8-1.2S50.9,125.8,48.4,125.8z"/>
			</g>
			<g>
				<ellipse style="fill:#FF3643;" cx="48.4" cy="125.9" rx="3.2" ry="1.4"/>
				<path d="M48.4,128c-1.9,0-3.9-0.7-3.9-2.1c0-2.7,7.7-2.7,7.7,0C52.3,127.3,50.4,128,48.4,128z M48.4,125.2
					c-1.5,0-2.4,0.5-2.5,0.7c0.1,0.1,0.9,0.6,2.5,0.6c1.5,0,2.3-0.4,2.4-0.7C50.7,125.7,49.9,125.2,48.4,125.2z M50.9,125.9
					L50.9,125.9L50.9,125.9z"/>
			</g>
		</g>
		<g>
			<g>
				<ellipse style="fill:#FFFFFF;" cx="57.4" cy="127.1" rx="4.5" ry="1.9"/>
				<path d="M57.4,129.7c-2.6,0-5.2-0.9-5.2-2.6c0-3.4,10.4-3.4,10.4,0C62.6,128.8,60,129.7,57.4,129.7z M57.4,125.8
					c-2.5,0-3.8,0.9-3.8,1.2s1.3,1.2,3.8,1.2s3.8-0.9,3.8-1.2S59.9,125.8,57.4,125.8z"/>
			</g>
			<g>
				<ellipse style="fill:#00B030;" cx="57.4" cy="125.9" rx="3.2" ry="1.4"/>
				<path d="M57.4,128c-1.9,0-3.9-0.7-3.9-2.1c0-2.7,7.7-2.7,7.7,0C61.3,127.3,59.3,128,57.4,128z M57.4,125.2
					c-1.5,0-2.4,0.5-2.5,0.7c0.1,0.1,0.9,0.6,2.5,0.6c1.5,0,2.3-0.4,2.4-0.7C59.7,125.7,58.9,125.2,57.4,125.2z M59.9,125.9
					L59.9,125.9L59.9,125.9z"/>
			</g>
		</g>
		<g>
			<g>
				<ellipse style="fill:#FFFFFF;" cx="35.9" cy="131.9" rx="4.5" ry="1.9"/>
				<path d="M35.9,134.6c-2.6,0-5.2-0.9-5.2-2.6c0-3.4,10.4-3.4,10.4,0C41.1,133.7,38.4,134.6,35.9,134.6z M35.9,130.7
					c-2.5,0-3.8,0.9-3.8,1.2c0,0.4,1.3,1.2,3.8,1.2s3.8-0.9,3.8-1.2C39.6,131.6,38.4,130.7,35.9,130.7z"/>
			</g>
			<g>
				<ellipse style="fill:#0D7FFF;" cx="35.9" cy="130.8" rx="3.2" ry="1.4"/>
				<path d="M35.9,132.8c-1.9,0-3.9-0.7-3.9-2.1c0-2.7,7.7-2.7,7.7,0C39.7,132.1,37.8,132.8,35.9,132.8z M35.9,130.1
					c-1.5,0-2.4,0.5-2.5,0.7c0.1,0.1,0.9,0.6,2.5,0.6c1.5,0,2.3-0.4,2.4-0.7C38.2,130.6,37.3,130.1,35.9,130.1z M38.3,130.8
					L38.3,130.8L38.3,130.8z"/>
			</g>
		</g>
		<g>
			<g>
				<ellipse style="fill:#FFFFFF;" cx="46.2" cy="131.9" rx="4.5" ry="1.9"/>
				<path d="M46.2,134.6c-2.6,0-5.2-0.9-5.2-2.6c0-3.4,10.4-3.4,10.4,0C51.4,133.7,48.8,134.6,46.2,134.6z M46.2,130.7
					c-2.5,0-3.8,0.9-3.8,1.2c0,0.4,1.3,1.2,3.8,1.2s3.8-0.9,3.8-1.2C50,131.6,48.7,130.7,46.2,130.7z"/>
			</g>
			<g>
				<ellipse style="fill:#FFE738;" cx="46.2" cy="130.8" rx="3.2" ry="1.4"/>
				<path d="M46.2,132.8c-1.9,0-3.9-0.7-3.9-2.1c0-2.7,7.7-2.7,7.7,0C50,132.1,48.1,132.8,46.2,132.8z M46.2,130.1
					c-1.5,0-2.4,0.5-2.5,0.7c0.1,0.1,0.9,0.6,2.5,0.6c1.5,0,2.3-0.4,2.4-0.7C48.5,130.6,47.6,130.1,46.2,130.1z M48.6,130.8
					L48.6,130.8L48.6,130.8z"/>
			</g>
		</g>
		<g>
			<g>
				<ellipse style="fill:#FFFFFF;" cx="56.5" cy="131.9" rx="4.5" ry="1.9"/>
				<path d="M56.5,134.6c-2.6,0-5.2-0.9-5.2-2.6c0-3.4,10.4-3.4,10.4,0C61.7,133.7,59.1,134.6,56.5,134.6z M56.5,130.7
					c-2.5,0-3.8,0.9-3.8,1.2c0,0.4,1.3,1.2,3.8,1.2s3.8-0.9,3.8-1.2C60.3,131.6,59,130.7,56.5,130.7z"/>
			</g>
			<g>
				<ellipse style="fill:#DE18FF;" cx="56.5" cy="130.8" rx="3.2" ry="1.4"/>
				<path d="M56.5,132.8c-1.9,0-3.9-0.7-3.9-2.1c0-2.7,7.7-2.7,7.7,0C60.3,132.1,58.4,132.8,56.5,132.8z M56.5,130.1
					c-1.5,0-2.4,0.5-2.5,0.7c0.1,0.1,0.9,0.6,2.5,0.6c1.5,0,2.3-0.4,2.4-0.7C58.8,130.6,57.9,130.1,56.5,130.1z M58.9,130.8
					L58.9,130.8L58.9,130.8z"/>
			</g>
		</g>
		<g>
			<g>
				<path style="fill:#818181;" d="M81.8,132.8h-0.5c-0.8,0-1.5-0.7-1.5-1.5v-11.6c0-0.8,0.7-1.5,1.5-1.5h0.5c0.8,0,1.5,0.7,1.5,1.5
					v11.6C83.3,132.1,82.6,132.8,81.8,132.8z"/>
				<path d="M81.5,133.5c-1.4,0-2.5-1.1-2.5-2.5v-11.1c0-1.4,1.1-2.5,2.5-2.5s2.5,1.1,2.5,2.5V131C84,132.4,82.9,133.5,81.5,133.5z
					 M81.5,118.8c-0.6,0-1.1,0.5-1.1,1.1V131c0,0.6,0.5,1.1,1.1,1.1s1.1-0.5,1.1-1.1v-11.1C82.6,119.3,82.1,118.8,81.5,118.8z"/>
			</g>
			<g>
				<path style="fill:#FF3643;" d="M86.8,114.4c0,2.9-0.4,13.8-5.3,13.8c-5.3,0-5.3-10.9-5.3-13.8s2.4-5.2,5.3-5.2
					S86.8,111.5,86.8,114.4z"/>
				<path d="M81.5,128.9c-4,0-6-4.9-6-14.5c0-3.3,2.7-5.9,6-5.9s6,2.7,6,5.9C87.5,117.8,87,128.9,81.5,128.9z M81.5,109.9
					c-2.5,0-4.6,2-4.6,4.5c0,10.8,2.5,13.1,4.6,13.1c3.6,0,4.6-8.2,4.6-13.1C86.1,111.9,84,109.9,81.5,109.9z"/>
			</g>
		</g>
		<g>
			<g>
				<ellipse style="fill:#FFFFFF;" cx="95" cy="127.1" rx="4.5" ry="1.9"/>
				<path d="M95,129.7c-2.6,0-5.2-0.9-5.2-2.6c0-3.4,10.4-3.4,10.4,0C100.2,128.8,97.6,129.7,95,129.7z M95,125.8
					c-2.5,0-3.8,0.9-3.8,1.2s1.3,1.2,3.8,1.2s3.8-0.9,3.8-1.2S97.5,125.8,95,125.8z"/>
			</g>
			<g>
				<ellipse style="fill:#FFAD4A;" cx="95" cy="125.9" rx="3.2" ry="1.4"/>
				<path d="M95,128c-1.9,0-3.9-0.7-3.9-2.1c0-2.7,7.7-2.7,7.7,0C98.9,127.3,97,128,95,128z M95,125.2c-1.5,0-2.4,0.5-2.5,0.7
					c0.1,0.1,0.9,0.6,2.5,0.6c1.5,0,2.3-0.4,2.4-0.7C97.3,125.7,96.5,125.2,95,125.2z M97.5,125.9L97.5,125.9L97.5,125.9z"/>
			</g>
		</g>
		<g>
			<g>
				<ellipse style="fill:#FFFFFF;" cx="105" cy="127.1" rx="4.5" ry="1.9"/>
				<path d="M105,129.7c-2.6,0-5.2-0.9-5.2-2.6c0-3.4,10.4-3.4,10.4,0C110.2,128.8,107.5,129.7,105,129.7z M105,125.8
					c-2.5,0-3.8,0.9-3.8,1.2s1.3,1.2,3.8,1.2s3.8-0.9,3.8-1.2S107.5,125.8,105,125.8z"/>
			</g>
			<g>
				<ellipse style="fill:#FF3643;" cx="105" cy="125.9" rx="3.2" ry="1.4"/>
				<path d="M105,128c-1.9,0-3.9-0.7-3.9-2.1c0-2.7,7.7-2.7,7.7,0C108.8,127.3,106.9,128,105,128z M105,125.2
					c-1.5,0-2.4,0.5-2.5,0.7c0.1,0.1,0.9,0.6,2.5,0.6c1.5,0,2.3-0.4,2.4-0.7C107.3,125.7,106.4,125.2,105,125.2z M107.4,125.9
					L107.4,125.9L107.4,125.9z"/>
			</g>
		</g>
		<g>
			<g>
				<ellipse style="fill:#FFFFFF;" cx="113.9" cy="127.1" rx="4.5" ry="1.9"/>
				<path d="M113.9,129.7c-2.6,0-5.2-0.9-5.2-2.6c0-3.4,10.4-3.4,10.4,0C119.1,128.8,116.5,129.7,113.9,129.7z M113.9,125.8
					c-2.5,0-3.8,0.9-3.8,1.2s1.3,1.2,3.8,1.2s3.8-0.9,3.8-1.2S116.4,125.8,113.9,125.8z"/>
			</g>
			<g>
				<ellipse style="fill:#00B030;" cx="113.9" cy="125.9" rx="3.2" ry="1.4"/>
				<path d="M113.9,128c-1.9,0-3.9-0.7-3.9-2.1c0-2.7,7.7-2.7,7.7,0C117.8,127.3,115.9,128,113.9,128z M113.9,125.2
					c-1.5,0-2.4,0.5-2.5,0.7c0.1,0.1,0.9,0.6,2.5,0.6c1.5,0,2.3-0.4,2.4-0.7C116.2,125.7,115.4,125.2,113.9,125.2z M116.4,125.9
					L116.4,125.9L116.4,125.9z"/>
			</g>
		</g>
		<g>
			<g>
				<ellipse style="fill:#FFFFFF;" cx="92.4" cy="131.9" rx="4.5" ry="1.9"/>
				<path d="M92.4,134.6c-2.6,0-5.2-0.9-5.2-2.6c0-3.4,10.4-3.4,10.4,0C97.6,133.7,94.9,134.6,92.4,134.6z M92.4,130.7
					c-2.5,0-3.8,0.9-3.8,1.2c0,0.4,1.3,1.2,3.8,1.2s3.8-0.9,3.8-1.2C96.2,131.6,94.9,130.7,92.4,130.7z"/>
			</g>
			<g>
				<ellipse style="fill:#0D7FFF;" cx="92.4" cy="130.8" rx="3.2" ry="1.4"/>
				<path d="M92.4,132.8c-1.9,0-3.9-0.7-3.9-2.1c0-2.7,7.7-2.7,7.7,0C96.2,132.1,94.3,132.8,92.4,132.8z M92.4,130.1
					c-1.5,0-2.4,0.5-2.5,0.7c0.1,0.1,0.9,0.6,2.5,0.6c1.5,0,2.3-0.4,2.4-0.7C94.7,130.6,93.8,130.1,92.4,130.1z M94.8,130.8
					L94.8,130.8L94.8,130.8z"/>
			</g>
		</g>
		<g>
			<g>
				<ellipse style="fill:#FFFFFF;" cx="102.7" cy="131.9" rx="4.5" ry="1.9"/>
				<path d="M102.7,134.6c-2.6,0-5.2-0.9-5.2-2.6c0-3.4,10.4-3.4,10.4,0C107.9,133.7,105.3,134.6,102.7,134.6z M102.7,130.7
					c-2.5,0-3.8,0.9-3.8,1.2c0,0.4,1.3,1.2,3.8,1.2s3.8-0.9,3.8-1.2C106.5,131.6,105.2,130.7,102.7,130.7z"/>
			</g>
			<g>
				<ellipse style="fill:#FFE738;" cx="102.7" cy="130.8" rx="3.2" ry="1.4"/>
				<path d="M102.7,132.8c-1.9,0-3.9-0.7-3.9-2.1c0-2.7,7.7-2.7,7.7,0C106.5,132.1,104.6,132.8,102.7,132.8z M102.7,130.1
					c-1.5,0-2.4,0.5-2.5,0.7c0.1,0.1,0.9,0.6,2.5,0.6c1.5,0,2.3-0.4,2.4-0.7C105,130.6,104.1,130.1,102.7,130.1z M105.1,130.8
					L105.1,130.8L105.1,130.8z"/>
			</g>
		</g>
		<g>
			<g>
				<ellipse style="fill:#FFFFFF;" cx="113" cy="131.9" rx="4.5" ry="1.9"/>
				<path d="M113,134.6c-2.6,0-5.2-0.9-5.2-2.6c0-3.4,10.4-3.4,10.4,0C118.2,133.7,115.6,134.6,113,134.6z M113,130.7
					c-2.5,0-3.8,0.9-3.8,1.2c0,0.4,1.3,1.2,3.8,1.2s3.8-0.9,3.8-1.2C116.8,131.6,115.5,130.7,113,130.7z"/>
			</g>
			<g>
				<ellipse style="fill:#DE18FF;" cx="113" cy="130.8" rx="3.2" ry="1.4"/>
				<path d="M113,132.8c-1.9,0-3.9-0.7-3.9-2.1c0-2.7,7.7-2.7,7.7,0C116.9,132.1,114.9,132.8,113,132.8z M113,130.1
					c-1.5,0-2.4,0.5-2.5,0.7c0.1,0.1,0.9,0.6,2.5,0.6c1.5,0,2.3-0.4,2.4-0.7C115.3,130.6,114.5,130.1,113,130.1z M115.5,130.8
					L115.5,130.8L115.5,130.8z"/>
			</g>
		</g>
		<g>
			<rect x="105.8" y="163.9" style="fill:#818181;" width="18.7" height="28.7"/>
			<path d="M124.6,193.3h-18.7c-0.4,0-0.7-0.3-0.7-0.7v-28.7c0-0.4,0.3-0.7,0.7-0.7h18.7c0.4,0,0.7,0.3,0.7,0.7v28.7
				C125.3,193,125,193.3,124.6,193.3z M106.5,191.9h17.3v-27.3h-17.3V191.9z"/>
		</g>
		<g>
			<path style="fill:#383838;" d="M68.6,214.5H19.8c-1.3,0-2.4-1.1-2.4-2.4v-23.8c0-1.3,1.1-2.4,2.4-2.4h48.7c1.3,0,2.4,1.1,2.4,2.4
				v23.8C71,213.4,69.9,214.5,68.6,214.5z"/>
			<path d="M68.2,215.2H20.3c-2,0-3.5-1.6-3.5-3.5v-23.1c0-1.9,1.6-3.5,3.5-3.5h47.9c2,0,3.6,1.6,3.6,3.5v23.1
				C71.7,213.6,70.1,215.2,68.2,215.2z M20.3,186.5c-1.2,0-2.1,1-2.1,2.1v23.1c0,1.2,1,2.1,2.1,2.1h47.9c1.2,0,2.1-1,2.1-2.1v-23.1
				c0-1.2-1-2.1-2.1-2.1H20.3z"/>
		</g>
		<g>
			<ellipse style="fill:#B7B7B7;" cx="115.2" cy="171.9" rx="5.3" ry="5.3"/>
			<path d="M115.2,177.9c-3.3,0-6-2.7-6-6s2.7-6,6-6s6,2.7,6,6S118.5,177.9,115.2,177.9z M115.2,167.3c-2.5,0-4.6,2.1-4.6,4.6
				s2.1,4.6,4.6,4.6s4.6-2.1,4.6-4.6C119.8,169.4,117.7,167.3,115.2,167.3z"/>
		</g>
		<g>
			<ellipse style="fill:#818181;" cx="44.2" cy="193.7" rx="3.8" ry="3.7"/>
			<path d="M44.2,198.2c-2.5,0-4.5-2-4.5-4.4s2-4.4,4.5-4.4s4.5,2,4.5,4.4S46.7,198.2,44.2,198.2z M44.2,190.7c-1.7,0-3.1,1.4-3.1,3
				c0,1.7,1.4,3,3.1,3c1.7,0,3.1-1.4,3.1-3C47.3,192,45.9,190.7,44.2,190.7z"/>
		</g>
		<g>
			<rect x="114.4" y="168.7" style="fill:#FFFFFF;" width="1.6" height="6.6"/>
			<path d="M116,175.9h-1.6c-0.4,0-0.7-0.3-0.7-0.7v-6.6c0-0.4,0.3-0.7,0.7-0.7h1.6c0.4,0,0.7,0.3,0.7,0.7v6.6
				C116.7,175.6,116.4,175.9,116,175.9z M115.1,174.5h0.2v-5.2h-0.2V174.5z"/>
		</g>
		<g>
			<rect x="109.9" y="184" style="fill:#383838;" width="10.6" height="5.2"/>
			<path d="M120.5,189.9h-10.6c-0.4,0-0.7-0.3-0.7-0.7V184c0-0.4,0.3-0.7,0.7-0.7h10.6c0.4,0,0.7,0.3,0.7,0.7v5.2
				C121.2,189.6,120.9,189.9,120.5,189.9z M110.6,188.5h9.2v-3.8h-9.2V188.5z"/>
		</g>
		<g>
			<rect x="109.9" y="180.6" style="fill:#B7B7B7;" width="10.6" height="5.2"/>
			<path d="M120.5,186.5h-10.6c-0.4,0-0.7-0.3-0.7-0.7v-5.2c0-0.4,0.3-0.7,0.7-0.7h10.6c0.4,0,0.7,0.3,0.7,0.7v5.2
				C121.2,186.2,120.9,186.5,120.5,186.5z M110.6,185.1h9.2v-3.8h-9.2V185.1z"/>
		</g>
		<g>
			<rect x="39.8" y="240.3" style="fill:#007FEA;" width="62.3" height="5.6"/>
			<path d="M102.2,246.6H39.8c-0.4,0-0.7-0.3-0.7-0.7v-5.6c0-0.4,0.3-0.7,0.7-0.7h62.3c0.4,0,0.7,0.3,0.7,0.7v5.6
				C102.9,246.3,102.6,246.6,102.2,246.6z M40.5,245.2h60.9V241H40.5V245.2z"/>
		</g>
		<g>
			<path style="fill:#007FEA;" d="M16.6,23.8V13.1h7.2V16h-3.4v1h3.1v2.7h-3.1v1.1h3.5v2.9L16.6,23.8L16.6,23.8z"/>
			<path style="fill:#007FEA;" d="M25.4,23.8V13.1h3.8l3.3,5.6c0-0.3-0.1-0.5-0.1-0.8c0-0.4,0-0.8,0-1.2v-3.6h3.7v10.6h-3.8L29,18.2
				c0,0.2,0.1,0.5,0.1,0.8c0,0.4,0,0.7,0,0.9v3.8h-3.7V23.8z"/>
			<path style="fill:#007FEA;" d="M39.5,23.8v-7.2h-2.1v-3.5h8.1v3.5h-2.1v7.2H39.5z"/>
			<path style="fill:#007FEA;" d="M46.7,23.8V13.1h4.8c1.4,0,2.5,0.3,3.2,0.9c0.7,0.6,1.1,1.5,1.1,2.7c0,0.8-0.2,1.4-0.6,1.9
				c-0.4,0.5-0.9,0.8-1.5,0.9l2.9,4.3h-4.3l-1.9-3.5v3.5H46.7z M50.5,15.9V18h0.6c0.4,0,0.7-0.1,0.9-0.3c0.2-0.2,0.3-0.4,0.3-0.8
				c0-0.3-0.1-0.6-0.3-0.8c-0.2-0.2-0.5-0.3-0.9-0.3L50.5,15.9L50.5,15.9z"/>
			<path style="fill:#007FEA;" d="M59.2,23.8v-4.7l-3.6-5.9H60l0.9,2.1c0.1,0.3,0.2,0.6,0.3,0.8l0,0l0,0c0-0.1,0.1-0.4,0.3-0.7v-0.1
				l0,0l0.9-2.1h4.4l-3.7,5.9v4.7H59.2z"/>
			<path style="fill:#007FEA;" d="M78.9,19.9h-1.7v-2.5h5.9c0,0.1,0,0.2,0,0.3s0,0.1,0,0.2v0.3c0,0.6-0.1,1.2-0.2,1.7
				s-0.3,0.9-0.5,1.3c-0.5,0.9-1.3,1.6-2.1,2.1c-0.9,0.5-1.8,0.7-2.9,0.7c-0.8,0-1.5-0.1-2.3-0.4c-0.7-0.3-1.3-0.7-1.8-1.2
				s-0.9-1.1-1.2-1.8c-0.3-0.7-0.4-1.4-0.4-2.2c0-0.8,0.1-1.6,0.4-2.2c0.3-0.7,0.7-1.3,1.2-1.8s1.1-0.9,1.8-1.2
				c0.7-0.3,1.5-0.4,2.3-0.4c1.1,0,2.1,0.2,2.9,0.7c0.9,0.5,1.6,1.2,2.1,2.1L79.1,17c-0.2-0.3-0.4-0.5-0.7-0.7
				c-0.2-0.2-0.5-0.2-0.9-0.2c-0.6,0-1,0.2-1.4,0.6c-0.3,0.4-0.5,1-0.5,1.7c0,0.8,0.2,1.3,0.5,1.7c0.3,0.4,0.8,0.6,1.5,0.6
				c0.4,0,0.7-0.1,0.9-0.2C78.8,20.4,78.9,20.2,78.9,19.9z"/>
			<path style="fill:#007FEA;" d="M83.2,23.8L87,13.1h4.3L95,23.7h-4.1l-0.3-1.3h-2.9l-0.3,1.3L83.2,23.8L83.2,23.8z M88.3,19.9h1.6
				l-0.3-1.2c-0.2-0.6-0.3-1.1-0.3-1.4c-0.1-0.3-0.1-0.6-0.1-0.9h-0.1c0,0.3,0,0.6-0.1,0.9c-0.1,0.4-0.2,0.9-0.3,1.4L88.3,19.9z"/>
			<path style="fill:#007FEA;" d="M105.4,23.8l-0.5-4.2c0-0.2,0-0.3,0-0.5s0-0.3,0-0.5c0-0.4-0.1-0.7-0.1-1c-0.1,0.3-0.1,0.6-0.2,1
				c-0.1,0.3-0.2,0.6-0.3,1.1l-1.2,4.1h-2.3l-1.2-4.1c-0.1-0.4-0.2-0.8-0.3-1.1c-0.1-0.4-0.2-0.7-0.2-1c0,0.5-0.1,0.8-0.1,1
				s0,0.5-0.1,1l-0.5,4.2h-3.8l1.8-10.6h4l0.8,2.6c0,0,0,0.2,0.1,0.4c0.3,1.2,0.5,2.1,0.6,2.7h0.1c0.1-0.5,0.1-0.9,0.3-1.4
				c0.1-0.4,0.2-1,0.5-1.7l0.8-2.6h4l1.7,10.6C109.3,23.8,105.4,23.8,105.4,23.8z"/>
			<path style="fill:#007FEA;" d="M110.3,23.8V13.1h7.2V16h-3.4v1h3.1v2.7h-3.1v1.1h3.5v2.9L110.3,23.8L110.3,23.8z"/>
			<path style="fill:#007FEA;" d="M118.1,22.8l1.2-3c0.6,0.4,1.1,0.7,1.5,0.8c0.4,0.2,0.8,0.3,1.2,0.3c0.3,0,0.5,0,0.6-0.1
				s0.2-0.2,0.2-0.4c0-0.3-0.4-0.5-1.1-0.7c-0.2,0-0.4-0.1-0.6-0.1c-0.8-0.2-1.4-0.5-1.8-1s-0.6-1.1-0.6-1.8c0-1.1,0.4-2.1,1.2-2.8
				c0.8-0.7,1.9-1.1,3.2-1.1c0.6,0,1.2,0.1,1.8,0.2c0.6,0.2,1.2,0.4,1.8,0.7l-1.2,2.8c-0.4-0.3-0.8-0.5-1.1-0.6
				c-0.4-0.1-0.8-0.2-1.1-0.2c-0.3,0-0.5,0-0.6,0.1s-0.2,0.2-0.2,0.4c0,0.3,0.5,0.6,1.6,0.8c0.1,0,0.3,0.1,0.4,0.1
				c0.7,0.2,1.3,0.5,1.7,1c0.4,0.5,0.6,1.1,0.6,1.8c0,1.2-0.4,2.1-1.3,2.9c-0.4,0.4-0.9,0.7-1.5,0.8s-1,0.3-1.7,0.3
				s-1.4-0.1-2.1-0.3C119.5,23.5,118.8,23.2,118.1,22.8z"/>
		</g>
	</g>
</g>
</svg>
