<?xml version="1.0" encoding="utf-8"?>
<!-- Generator: Adobe Illustrator 26.5.0, SVG Export Plug-In . SVG Version: 6.00 Build 0)  -->
<svg version="1.1" id="레이어_1" xmlns="http://www.w3.org/2000/svg" xmlns:xlink="http://www.w3.org/1999/xlink" x="0px"
	 y="0px" viewBox="0 0 145 245" style="enable-background:new 0 0 145 245;" xml:space="preserve">
<g>
	<g>
		<path style="fill:#F4BA76;" d="M41.4,198.5c-0.4,4.1-0.8,8.5,1.2,12.1c0.9,1.6,2.2,2.9,3.1,4.5c3.1,4.8,3,10.9,2.8,16.6
			c-2.7-0.3-5.3,0.6-7.3,2.4c-2.3,2.1-2.7,6.8,0.2,8.7c2.8,1.8,9.5,0.5,12.9,0.5c4.1,0,5.4-4,5.5-7.4c0.3-5.6-0.3-11.7-1.3-17.2
			c-0.2-1.1-0.4-2.1-0.7-3.1c-0.5-1.5-1.3-2.9-2.2-4.2c-1.8-2.9,0.1-6.9,0.5-10.3c0.2-1.7,0.3-3.7-0.9-5c-0.8-0.9-2-1.1-3.2-1.3
			c-2.9-0.4-5.9,0-8.7,1.1c-0.6,0.2-1.3,0.5-1.8,1C41.1,197.4,41.5,197.8,41.4,198.5z"/>
		<path d="M46.3,245c-2.2,0-4.2-0.3-5.5-1.2c-1.5-1-2.5-2.7-2.6-4.6c-0.2-2.3,0.7-4.6,2.3-6c2-1.8,4.4-2.8,6.9-2.8
			c0.2-5.6,0-10.7-2.6-14.6c-0.4-0.6-0.8-1.2-1.3-1.8c-0.7-0.9-1.3-1.7-1.9-2.8c-2.1-3.8-1.8-8.1-1.3-12.8c0-0.1,0-0.2,0-0.4
			c0-0.4-0.1-1.2,0.6-1.9c0.7-0.7,1.5-1,2.2-1.3c2.9-1.1,6.1-1.5,9.3-1.1c1.1,0.1,2.8,0.5,3.9,1.7c1.6,1.7,1.4,4.3,1.2,6
			c-0.1,1.1-0.3,2.2-0.6,3.2c-0.5,2.4-1,4.6-0.1,6.3c0.8,1.4,1.7,2.8,2.3,4.4c0.4,1.1,0.6,2.3,0.8,3.3c0.8,4.3,1.6,10.9,1.3,17.4
			c-0.3,5.4-2.8,8.6-6.8,8.6c-0.9,0-2,0.1-3.2,0.2C49.5,244.9,47.9,245,46.3,245z M47.5,232.8c-2,0-3.9,0.8-5.4,2.2
			c-1,0.9-1.6,2.5-1.5,4c0.1,0.7,0.3,2,1.5,2.8c1.7,1.1,5.8,0.8,8.8,0.5c1.3-0.1,2.4-0.2,3.4-0.2c3.5,0,4.2-3.9,4.3-6.2
			c0.3-6.3-0.5-12.7-1.3-16.9c-0.2-1-0.4-2-0.7-2.9c-0.5-1.4-1.3-2.7-2-4c-1.5-2.5-0.8-5.5-0.3-8.1c0.2-1,0.4-2,0.5-2.9
			c0.2-1.7,0.3-3.2-0.5-4c-0.6-0.6-1.7-0.8-2.4-0.9c-2.7-0.3-5.5,0-8.1,1c-0.5,0.2-0.9,0.4-1.2,0.7c0,0.3,0,0.6,0,0.9l0,0
			c-0.4,4.4-0.7,8.2,1,11.4c0.5,0.8,1.1,1.6,1.7,2.4c0.5,0.6,1,1.3,1.4,2c3.2,4.9,3.2,10.8,3,17.4c0,0.3-0.2,0.7-0.4,0.9
			c-0.3,0.2-0.6,0.3-0.9,0.3C48.1,232.9,47.8,232.8,47.5,232.8z M41.4,198.5L41.4,198.5L41.4,198.5z"/>
	</g>
	<g>
		<path style="fill:#10171D;" d="M39,200.7c0.4,3.2,0.7,6.5,1,9.7c0.4,4.6,1.3,9.5-0.1,14c-0.4,1.2-0.6,2.6,0.1,3.7
			c0.3,0.4,0.7,0.8,0.8,1.3c0.5,1.7-2.4,3.2-1.6,4.7c0.2,0.3,2.2-0.8,2.4-0.9c1-0.5,1.3-0.6,2.4-0.6c2.3-0.1,4.5-0.4,6.8-0.6
			c2.7-0.2,5.5-0.1,8,0.9c0.5,0.2,2.3,1.2,2.8,0.5c0.4-0.6-0.7-2.1-1-2.6c-0.1-0.2-0.2-0.3-0.2-0.5c-0.1-0.8,0.9-1.1,1.5-1.6
			c1.2-0.9,0.9-2.9,0.3-4.3c-1-2.4-0.4-3.4-0.3-5.6c0.1-2.7-0.8-5.3-0.6-8c0.4-7.8,1.5-15.4,1.5-23.3c0-0.5,0-1-0.3-1.4
			s-0.8-0.5-1.2-0.6c-5.4-1.1-11-1.7-16.5-1.8c-5.3-0.1-8.8,2.8-7.3,8.2C38.1,194.8,38.6,197.8,39,200.7z"/>
		<path d="M39.3,235.3c-0.5,0-0.9-0.2-1.2-0.7c-0.8-1.5,0.2-2.8,0.8-3.7c0.3-0.4,0.7-1,0.7-1.2c0-0.1-0.2-0.3-0.3-0.4
			c-0.1-0.2-0.3-0.3-0.4-0.5c-0.8-1.2-0.9-2.8-0.3-4.7c1.1-3.6,0.7-7.7,0.3-11.6l-0.4-4.5c-0.2-2.4-0.4-4.8-0.7-7.1l0,0
			c-0.4-3.3-0.9-6.1-1.6-8.5c-0.9-3.4,0-5.6,1-6.9c1.5-2,4.2-3.1,7.6-3c5.6,0.1,11.2,0.8,16.7,1.9c0.5,0.1,1.4,0.3,1.9,1.1
			c0.5,0.7,0.5,1.6,0.5,2.1c0,4.9-0.4,9.8-0.8,14.5c-0.3,2.9-0.5,5.9-0.7,8.8c-0.1,1.2,0.1,2.5,0.3,3.8s0.4,2.7,0.3,4.2
			c0,0.6-0.1,1.1-0.1,1.6c-0.1,1.2-0.2,2,0.4,3.5c1,2.5,0.8,4.6-0.7,5.7c-0.2,0.1-0.4,0.3-0.6,0.4c-0.1,0-0.2,0.1-0.3,0.2l0.1,0.1
			c0.6,0.9,1.7,2.5,0.8,3.7c-1.1,1.5-3.1,0.5-4,0.1l-0.2-0.1c-1.9-0.8-4.2-1.1-7.5-0.8c-0.9,0.1-1.7,0.2-2.6,0.3
			c-1.4,0.1-2.8,0.3-4.2,0.3c-1,0-1.1,0.1-1.9,0.5C41.1,234.8,40.1,235.3,39.3,235.3z M53,230.6c2,0,4.2,0.2,6.2,1.1l0.3,0.1
			c0.1,0,0.2,0.1,0.3,0.2c-0.1-0.1-0.1-0.2-0.2-0.3l-0.2-0.3c-0.1-0.2-0.4-0.6-0.4-1c-0.2-1.4,0.9-2.1,1.5-2.4
			c0.1-0.1,0.3-0.2,0.4-0.3c0.6-0.4,0.4-1.7-0.1-2.8c-0.9-2.1-0.7-3.4-0.6-4.7c0-0.4,0.1-0.9,0.1-1.5c0.1-1.2-0.1-2.4-0.3-3.7
			c-0.2-1.4-0.4-2.8-0.3-4.3c0.2-3,0.4-6,0.7-8.9c0.4-4.7,0.8-9.5,0.8-14.3c0-0.1,0-0.5-0.1-0.7c0,0-0.2,0-0.4-0.1
			c-5.4-1.1-10.8-1.7-16.3-1.8c-2.5,0-4.5,0.6-5.6,2c-0.9,1.1-1.1,2.7-0.5,4.7c0.7,2.6,1.2,5.4,1.7,8.9c0.3,2.4,0.5,4.8,0.7,7.2
			l0.4,4.4c0.4,4.2,0.9,8.5-0.4,12.6c-0.4,1.2-0.4,2.1,0,2.6c0.1,0.1,0.2,0.2,0.2,0.3c0.3,0.3,0.6,0.7,0.7,1.3
			c0.3,1.2-0.2,2.2-0.7,2.9c1-0.5,1.6-0.6,2.7-0.6c1.3,0,2.7-0.2,4-0.3c0.9-0.1,1.8-0.2,2.7-0.3C51.4,230.6,52.2,230.6,53,230.6z"/>
	</g>
	<path d="M43.4,244.4c-0.7,0-1.2-0.5-1.2-1.2c-0.2-5.9,1.9-8,2.2-8.2c0.5-0.5,1.3-0.4,1.7,0.1s0.4,1.3-0.1,1.7
		c-0.1,0.1-1.5,1.7-1.4,6.3C44.6,243.8,44.1,244.3,43.4,244.4L43.4,244.4z"/>
	<path d="M50.3,244.8c-0.5,0-1-0.4-1.2-0.9c-1.2-4.3,1-8.5,1.1-8.6c0.3-0.6,1.1-0.8,1.7-0.5c0.6,0.3,0.8,1.1,0.5,1.7
		c0,0-1.8,3.5-0.9,6.8c0.2,0.7-0.2,1.3-0.8,1.5C50.5,244.8,50.4,244.8,50.3,244.8z"/>
</g>
<g>
	<path style="fill:#171717;" d="M33.1,130.3c-2.8,1.5-5.2,3.8-7.3,6.2c-1.7,2-3.3,4-4.3,6.4c-1.1,2.6-1.4,5.5-1.5,8.3
		c-0.1,2.4,0,4.9,0.2,7.3c0.1,1.6,0.3,3.2,1,4.6c2,4.4,8,5.7,12.3,3.7s7.1-6.5,8.5-11.1c1.1-3.7,1.6-7.6,1.8-11.5
		c0.2-3.6,1.6-11.1-0.8-14.2C40.7,127.3,35.7,128.9,33.1,130.3z"/>
	<path d="M29.2,169.1c-3.7,0-7.5-1.7-9.2-5.3c-0.8-1.7-1-3.5-1.1-5c-0.2-2.5-0.3-5-0.2-7.5c0.1-2.5,0.4-5.8,1.6-8.7
		c1.1-2.7,2.9-4.9,4.5-6.8c1.8-2.1,4.4-4.8,7.6-6.5l0,0c3.7-2,8.9-3.1,11.4,0.1c2.3,2.9,1.7,8.6,1.3,12.8c-0.1,0.9-0.2,1.7-0.2,2.3
		c-0.2,3.3-0.6,7.7-1.9,11.8c-1.8,5.7-5,9.9-9.2,11.8C32.5,168.7,30.9,169.1,29.2,169.1z M39.3,129.8c-1.9,0-4.3,0.9-5.6,1.6l0,0
		c-2.9,1.5-5.2,4-6.9,6c-1.5,1.7-3.1,3.7-4.1,6.1c-1.1,2.6-1.3,5.6-1.4,7.9c-0.1,2.4,0,4.8,0.1,7.2c0.1,1.3,0.3,2.9,0.9,4.2
		c1.8,3.8,7.1,4.8,10.7,3.1c4.7-2.2,6.9-7.4,7.8-10.3c1.2-3.8,1.6-7.8,1.8-11.2c0-0.7,0.1-1.5,0.2-2.4c0.4-3.5,0.9-8.8-0.8-11
		C41.4,130.1,40.4,129.8,39.3,129.8z M33.1,130.3L33.1,130.3L33.1,130.3z"/>
</g>
<g>
	<path style="fill:#F4BA76;" d="M91.9,159.9c-0.6-2.9-1.1-5.9-1.9-8.8c-1.2-4.7-3.4-9-5-13.6c-0.6-1.9-1.2-17.1-2.8-17.1
		c-0.6,0-20.7,0-20.7,0s-20.1,0-20.7,0c-1.6,0-2.2,15.3-2.8,17.1c-1.6,4.8-3.5,9.4-5,14.2s-2,9.8-3.2,14.7
		c-1.4,5.9-3.1,8.2-2.1,14.3c0.2,1.1,10.1,2.4,10.9,2.5c13.3,2.4,25.5,3,38.9,1.1c1.3-0.2,17.4-1.8,17.7-3.6c1-6.1-0.8-8.1-2.1-14
		C92.8,164.5,92.4,162.2,91.9,159.9z"/>
	<path d="M61.8,186.7c-7.4,0-15-0.7-23.3-2.2c-0.1,0-0.4-0.1-0.8-0.1c-10.4-1.5-11-2.3-11.2-3.4c-0.8-4.8,0-7.5,1.1-10.9
		c0.3-1.2,0.7-2.4,1.1-3.9c0.5-2,0.9-4.1,1.2-6.1c0.5-2.8,1.1-5.8,1.9-8.7c0.8-2.8,1.9-5.6,2.8-8.2c0.7-2,1.5-4,2.1-6
		c0.2-0.5,0.4-3,0.6-5.2c1-10.2,1.5-12.8,3.4-12.8H82c1.9,0,2.4,2.6,3.4,12.8c0.2,2.2,0.4,4.7,0.6,5.2c0.6,1.8,1.4,3.7,2.1,5.5
		c1.1,2.7,2.2,5.4,2.9,8.3c0.7,2.8,1.3,5.6,1.9,8.8l0,0l0.1,0.4c0.4,2.1,0.8,4.3,1.3,6.4c0.4,1.7,0.8,3,1.1,4.2
		c0.9,3.1,1.7,5.6,0.9,10.3c-0.2,1.5-1.6,2.6-17.7,4.5c-0.5,0.1-0.9,0.1-1,0.1C72.4,186.4,67.2,186.7,61.8,186.7z M29,180.1
		c0.7,0.3,2.9,0.9,9.2,1.8c0.4,0.1,0.7,0.1,0.8,0.1c14,2.5,25.9,2.8,38.5,1.1c0.2,0,0.5-0.1,1.1-0.1c11.8-1.4,14.9-2.3,15.6-2.8
		c0.6-3.8,0-5.8-0.9-8.8c-0.4-1.3-0.8-2.7-1.2-4.4c-0.5-2.1-0.9-4.3-1.3-6.5l-0.1-0.4c-0.6-3.2-1.2-5.9-1.9-8.7
		c-0.7-2.7-1.8-5.4-2.8-7.9c-0.7-1.8-1.5-3.7-2.1-5.6c-0.2-0.7-0.4-2.5-0.7-5.7c-0.3-3.2-0.8-9-1.5-10.5H41.4
		c-0.6,1.6-1.2,7.3-1.5,10.5c-0.3,3.3-0.5,5-0.7,5.7c-0.7,2-1.4,4.1-2.2,6.1c-1,2.6-2,5.4-2.8,8.1c-0.8,2.7-1.4,5.6-1.9,8.4
		c-0.4,2-0.8,4.2-1.3,6.2c-0.4,1.5-0.8,2.8-1.1,4C29.1,174,28.4,176.2,29,180.1z"/>
</g>
<g>
	<g>
		<path style="fill:#171717;" d="M58.8,125.1c-0.5,1.7-0.9,3.5-1.5,5.3c-1.3,4.2-5.4,7.8-10.4,10.2c-3.6,1.8-14.1,4.9-15.4,8.8
			c-4,11.7-6.7,24.5-3.2,36.9c7.1,0.9,58.5,2.8,65.4,1c0.7-0.2,1.4-0.4,1.8-0.9c0.5-0.5,0.7-1.2,0.8-1.8c1.1-5.5-0.3-11.1-1.8-16.5
			c-3.9-13.9-4.3-27.7-5.7-42.1c-0.2-1.7,0.1-7.4-1.1-8.1c-3.1-2-27.3,3.1-28.2,5.4C59.2,123.8,59,124.4,58.8,125.1z"/>
		<path d="M77.7,189.2c-18,0-44.5-1.1-49.6-1.8c-0.5-0.1-0.9-0.4-1-0.9c-3.9-13.6-0.3-27.3,3.2-37.6c1.2-3.4,7.4-5.9,12.5-7.9
			c1.5-0.6,2.7-1.1,3.6-1.5c5.2-2.6,8.7-6,9.8-9.5c0.3-0.8,0.5-1.7,0.7-2.5c0.2-0.9,0.5-1.9,0.8-2.8c0.2-0.7,0.4-1.3,0.7-2
			c0.3-0.6,0.9-1.4,5-2.7c5.8-1.8,21.8-5.2,25-3.2c1.4,0.9,1.5,3.5,1.6,7.4c0,0.7,0,1.3,0.1,1.7c0.3,2.9,0.5,5.8,0.8,8.6
			c1,11.5,1.9,22.3,4.9,33.2c1.7,6.1,3,11.5,1.8,17.1c-0.2,0.8-0.4,1.8-1.1,2.5s-1.6,1-2.4,1.2C91.9,189,85.6,189.2,77.7,189.2z
			 M29.3,185.1c9.5,0.9,57.7,2.6,64.1,1c0.5-0.1,1-0.3,1.3-0.5c0.2-0.3,0.4-0.8,0.5-1.2c1-5-0.2-10.2-1.8-15.9
			c-3.1-11.2-4-22.1-5-33.7c-0.2-2.8-0.5-5.7-0.7-8.6c0-0.4-0.1-1.1-0.1-1.9c0-1.3-0.1-4.7-0.6-5.4c-2.1-1.3-24.2,2.8-26.4,5.1
			c-0.1,0.4-0.3,1-0.5,1.6l0,0c-0.3,0.9-0.5,1.8-0.7,2.6c-0.2,0.9-0.5,1.8-0.7,2.6c-1.3,4.2-5.2,8.1-11,11c-0.9,0.5-2.2,1-3.8,1.6
			c-3.8,1.5-10.2,4.1-11,6.4C29.3,159.5,25.9,172.4,29.3,185.1z M58.8,125.1L58.8,125.1L58.8,125.1z"/>
	</g>
	<g>
		<path style="fill:#27323C;" d="M50.1,143.9c2.1-1.8,4.5-3.7,5.9-6.1c1.1-1.9,1.4-4.1,1.6-6.2c0.2-2.2,0.6-4.5,0.7-6.7
			c0-0.7-0.3-7.5-1.2-7.4c-1.9,0.2-6.6,2.4-7.1,4.3c-1.1,3.5-3.1,6.6-5.5,9.3c-2.3,2.8-4.3,6.8-7.5,8.5c-2.7,1.5-6.1,4.5-5.9,8
			C31.1,149.7,48.7,145.1,50.1,143.9z"/>
		<path d="M32.6,149.3c-0.8,0-1.4-0.1-1.8-0.3c-0.6-0.3-1-0.8-1-1.5c-0.1-4,3.5-7.4,6.6-9.1c2-1.1,3.5-3.3,5-5.4
			c0.7-1,1.4-2,2.1-2.8c2.7-3.2,4.4-6,5.2-8.9c0.8-2.7,6.2-5,8.2-5.2c0.4,0,0.9,0.2,1.1,0.4c1.4,1.3,1.4,8.2,1.4,8.3
			c0,1.6-0.2,3.1-0.4,4.6c-0.1,0.7-0.2,1.5-0.3,2.2c-0.2,2.2-0.5,4.6-1.8,6.8c-1.4,2.4-3.6,4.2-5.6,5.9l-0.5,0.5l0,0
			C49.7,145.9,37.6,149.3,32.6,149.3z M32.3,146.9c3,0.2,15.4-2.8,17.1-3.9l0.5-0.4c1.9-1.6,3.9-3.3,5.1-5.3c1-1.7,1.2-3.7,1.4-5.7
			c0.1-0.7,0.2-1.5,0.3-2.2c0.2-1.5,0.4-3,0.4-4.4c0-0.9-0.2-4.6-0.6-6c-1.9,0.5-5.1,2.3-5.4,3.3c-1,3.2-2.8,6.3-5.7,9.8
			c-0.7,0.8-1.3,1.7-2,2.7c-1.7,2.4-3.4,4.8-5.9,6.2C35.1,142,32.6,144.4,32.3,146.9z M50.1,143.9L50.1,143.9L50.1,143.9z"/>
	</g>
	<path style="fill:#595959;" d="M76.5,180.1c-0.3,0-0.6-0.1-0.9-0.4c-4.6-4.9-11.7-12.8-11.8-12.9c-0.5-0.5-0.4-1.3,0.1-1.8
		c0.5-0.5,1.3-0.4,1.7,0.1c0.1,0.1,7.1,7.9,11.7,12.8c0.5,0.5,0.4,1.3,0,1.8C77.1,180,76.8,180.1,76.5,180.1z"/>
	<g>
		<ellipse style="fill:#C3C3C3;" cx="51.8" cy="135.9" rx="2.4" ry="2.4"/>
		<path d="M51.8,139.6c-2,0-3.6-1.6-3.6-3.7s1.6-3.6,3.6-3.6s3.6,1.6,3.6,3.6S53.8,139.6,51.8,139.6z M51.8,134.7
			c-0.6,0-1.1,0.5-1.1,1.2c0,0.6,0.5,1.2,1.1,1.2s1.1-0.5,1.1-1.2C52.9,135.3,52.4,134.7,51.8,134.7z"/>
	</g>
	<g>
		<ellipse style="fill:#C3C3C3;" cx="45" cy="140.6" rx="2.4" ry="2.4"/>
		<path d="M45,144.2c-2,0-3.6-1.6-3.6-3.6S43,137,45,137s3.6,1.6,3.6,3.6S47,144.2,45,144.2z M45,139.4c-0.6,0-1.1,0.5-1.1,1.2
			s0.5,1.2,1.1,1.2s1.1-0.5,1.1-1.2S45.6,139.4,45,139.4z"/>
	</g>
	<g>
		<ellipse style="fill:#C3C3C3;" cx="38.2" cy="143.8" rx="2.4" ry="2.4"/>
		<path d="M38.2,147.4c-2,0-3.6-1.6-3.6-3.6s1.6-3.7,3.6-3.7s3.6,1.6,3.6,3.7S40.2,147.4,38.2,147.4z M38.2,142.6
			c-0.6,0-1.1,0.5-1.1,1.2c0,0.6,0.5,1.2,1.1,1.2s1.1-0.5,1.1-1.2C39.4,143.1,38.8,142.6,38.2,142.6z"/>
	</g>
	<g>
		<path style="fill:#C3C3C3;" d="M47.4,161c0,1.6-1.3,3-2.9,3c-1.6,0-2.9-1.3-2.9-3s1.3-3,2.9-3C46.1,158,47.4,159.4,47.4,161z"/>
		<path d="M44.5,165.2c-2.3,0-4.2-1.9-4.2-4.2s1.9-4.2,4.2-4.2s4.2,1.9,4.2,4.2C48.6,163.4,46.8,165.2,44.5,165.2z M44.5,159.3
			c-0.9,0-1.7,0.8-1.7,1.7s0.8,1.7,1.7,1.7s1.7-0.8,1.7-1.7S45.4,159.3,44.5,159.3z"/>
	</g>
	<g>
		<ellipse style="fill:#C3C3C3;" cx="43.9" cy="173.3" rx="2.9" ry="3"/>
		<path d="M43.9,177.5c-2.3,0-4.2-1.9-4.2-4.2s1.9-4.2,4.2-4.2s4.2,1.9,4.2,4.2C48.1,175.6,46.2,177.5,43.9,177.5z M43.9,171.5
			c-0.9,0-1.7,0.8-1.7,1.7s0.8,1.7,1.7,1.7s1.7-0.8,1.7-1.7S44.9,171.5,43.9,171.5z"/>
	</g>
	<g>
		<path style="fill:#C3C3C3;" d="M36.1,161c0,1.6-1.3,3-2.9,3c-1.6,0-2.9-1.3-2.9-3s1.3-3,2.9-3C34.8,158,36.1,159.4,36.1,161z"/>
		<path d="M33.2,165.2c-2.3,0-4.2-1.9-4.2-4.2s1.9-4.2,4.2-4.2s4.2,1.9,4.2,4.2C37.4,163.4,35.5,165.2,33.2,165.2z M33.2,159.3
			c-0.9,0-1.7,0.8-1.7,1.7s0.8,1.7,1.7,1.7s1.7-0.8,1.7-1.7S34.1,159.3,33.2,159.3z"/>
	</g>
	<g>
		<ellipse style="fill:#C3C3C3;" cx="32.7" cy="173.3" rx="2.9" ry="3"/>
		<path d="M32.7,177.5c-2.3,0-4.2-1.9-4.2-4.2s1.9-4.2,4.2-4.2s4.2,1.9,4.2,4.2C36.8,175.6,35,177.5,32.7,177.5z M32.7,171.5
			c-0.9,0-1.7,0.8-1.7,1.7s0.8,1.7,1.7,1.7s1.7-0.8,1.7-1.7S33.6,171.5,32.7,171.5z"/>
	</g>
</g>
<g>
	<g>
		<path style="fill:#F4BA76;" d="M101.4,49C90.5,36.2,76.1,28.4,61.6,29.3c-14.5-1-28.9,6.9-39.8,19.7C16.9,54.8,11.3,63.6,11,71.5
			c-0.4,9.8,0.3,18.1-3.5,27.7c-0.7,1.7-1.4,3.4-1.6,5.2c-0.1,1.6,0.2,3.2,0.7,4.8c4.7,13.9,20.7,18.3,33.4,20.9
			c18.5,3.8,40.5,3.3,55.4-10.1C115,102.3,119.4,70,101.4,49z"/>
		<path d="M59.1,133.3c-7.4,0-14.2-1-19.4-2c-14.3-2.9-29.6-7.8-34.3-21.7c-0.7-2-0.9-3.7-0.8-5.3c0.1-1.8,0.8-3.4,1.4-5l0.2-0.6
			C9.1,91.2,9.3,84.6,9.4,77c0-1.8,0.1-3.7,0.2-5.7C10,61.3,18.2,51,20.7,48c11.7-13.7,26.6-21,40.8-20.1c14-0.9,29,6.4,40.7,20.1
			l0,0c17.6,20.6,14.7,53.9-6.2,72.7C85.4,130.6,71.4,133.3,59.1,133.3z M59.4,30.5c-12.9,0-26.1,6.9-36.6,19.3
			c-2.4,2.8-10.2,12.6-10.5,21.7c-0.1,1.9-0.1,3.8-0.2,5.6c-0.2,7.5-0.3,14.6-3.4,22.5l-0.2,0.6c-0.6,1.5-1.1,2.9-1.3,4.3
			c-0.1,1.2,0.1,2.6,0.7,4.3c4.3,12.7,18.8,17.3,32.4,20c13.2,2.7,37.9,5,54.3-9.8c19.9-18,22.6-49.7,5.9-69.2
			C89.3,36.7,75.2,29.7,61.7,30.6C60.9,30.5,60.1,30.5,59.4,30.5z"/>
	</g>
	<path style="fill:#FFDDB2;" d="M24.4,82.9c1.5-6.7,8.2-11.3,14.8-12.1c4.6-0.6,9.5,0.8,13.2,3.5c3.4,2.5,6.6,7,4.4,11.2
		c-0.9,1.9-2.3,2.4-4.3,2.9c-1.5,0.4-3,0.6-4.5,0.8c-6.7,1-16,3.6-22-0.4C24.2,87.5,23.9,85,24.4,82.9z"/>
	<path style="fill:#FFEFDB;" d="M69.2,46.9c-0.5-1.1-1-2.2-1.7-3.1c-0.7-0.8-1.4-1.5-2-2.4c-0.7-1.2-2.1-5.1-3.8-5.1s-3,3.8-3.7,4.9
		c-0.6,1-1.2,1.6-2,2.4c-1.1,1.2-2,2.9-2.6,4.4c-0.5,1-0.9,2.2-0.9,3.3c0,2.3,1.2,4.3,2.2,6.3c1.1,2.2,1.3,4.5,2.3,6.7
		c0.5,1.2,1.1,2.4,1.6,3.5c0.6,1.3,0.8,2.2,2.4,2.3c1.2,0,2.7-0.4,3.3-1.5c1.5-2.7,2.1-5.8,3.2-8.6s3.2-5.6,3-8.8
		c-0.1-0.8-0.3-1.5-0.5-2.2C69.8,48.3,69.6,47.6,69.2,46.9z"/>
	<g>
		<g>
			<path style="fill:#F4BA76;" d="M70.2,21.8c0,0,5.6-9.1,37.1-20.6c0,0,11.8,26.2-12,45.5"/>
			<path d="M95.4,48c-0.4,0-0.7-0.2-1-0.5c-0.4-0.5-0.3-1.3,0.2-1.7c20.3-16.5,13.9-38,12-43C77.1,13.7,71.3,22.4,71.2,22.5
				c-0.4,0.6-1.1,0.7-1.7,0.4c-0.6-0.4-0.7-1.1-0.4-1.7c0.2-0.4,6.2-9.6,37.8-21.1c0.6-0.2,1.3,0.1,1.5,0.7
				c0.1,0.3,11.9,27.3-12.3,47C95.9,47.9,95.6,48,95.4,48z"/>
		</g>
		<g>
			<path style="fill:#FA835D;" d="M83.8,30.6c0,0,11-5.8,20.3-19.2c0,0,4.4,19-11.7,30.4C92.4,41.9,89.3,34.9,83.8,30.6z"/>
			<path d="M92.4,43.1c-0.1,0-0.2,0-0.3,0c-0.4-0.1-0.6-0.4-0.8-0.7c0-0.1-3.1-6.8-8.2-10.8c-0.3-0.3-0.5-0.7-0.5-1.1s0.3-0.8,0.7-1
				c0.1-0.1,10.9-5.8,19.8-18.8c0.3-0.4,0.8-0.6,1.2-0.5c0.5,0.1,0.9,0.5,1,0.9c0,0.2,4.4,19.9-12.1,31.7
				C92.9,43,92.6,43.1,92.4,43.1z M85.9,30.8c3.5,3.2,5.8,7.1,6.9,9.2c10.4-8.2,10.8-19.9,10.4-25.3C96.4,23.7,89.1,28.9,85.9,30.8z
				"/>
		</g>
		<path d="M87.4,34.2c-0.7,0-1.2,0-1.2-0.1c-0.7-0.1-1.2-0.7-1.1-1.4s0.7-1.2,1.3-1.1c0.1,0,6.9,0.6,9.3-3.9
			c0.3-0.6,1.1-0.8,1.7-0.5s0.8,1.1,0.5,1.7C95.4,33.7,89.9,34.2,87.4,34.2z"/>
	</g>
</g>
<g>
	<g>
		<path style="fill:#FF0425;" d="M124,69.2c3.7,5.9,5.2,13.3,4,20.2c-5.1,0.5-10.3-1.3-14.5-4.3s-7.6-7.1-10.4-11.5
			c-1.9-3-3.6-6.4-3.3-10C101.1,47.8,120.5,63.6,124,69.2z"/>
		<path d="M126.4,90.7c-4.6,0-9.4-1.6-13.6-4.6c-3.9-2.8-7.4-6.6-10.7-11.8c-1.8-2.9-3.8-6.7-3.5-10.8c0.4-5.5,3-7.2,5.1-7.8
			c6.9-1.7,18.6,8.2,21.4,12.7l0,0c3.9,6.2,5.4,13.9,4.2,21.1c-0.1,0.6-0.5,1-1.1,1C127.6,90.6,127,90.7,126.4,90.7z M105.4,58
			c-0.4,0-0.8,0-1.2,0.1c-0.7,0.2-2.8,0.7-3.2,5.6c-0.3,3.3,1.5,6.7,3.1,9.2c3.1,4.9,6.4,8.5,10,11.1c4,2.8,8.5,4.3,12.8,4.1
			c0.8-6.3-0.6-13-4-18.3C120.6,66.1,111.2,58,105.4,58z"/>
	</g>
	<g>
		<path style="fill:#FF0425;" d="M128.2,67.7c6.6-2.3,12.2-7.1,15.6-13.2c-3.7-3.6-8.9-5.5-14-5.8c-5.1-0.4-10.3,0.7-15.2,2.4
			c-3.3,1.2-6.8,2.7-8.7,5.7C97.1,69.8,122.1,69.8,128.2,67.7z"/>
		<path d="M119.4,70c-6,0-12.7-1.2-15.4-4.7c-1.3-1.7-2.2-4.7,0.8-9.3c2.3-3.4,6.2-5.1,9.4-6.2c5.8-2,10.9-2.8,15.7-2.5
			c5.8,0.4,11.1,2.6,14.8,6.2c0.4,0.4,0.5,1,0.2,1.5c-3.5,6.4-9.4,11.5-16.3,13.8l0,0C126.6,69.5,123.2,70,119.4,70z M128.2,67.7
			L128.2,67.7L128.2,67.7z M127.7,49.7c-3.9,0-8.1,0.8-12.8,2.4c-2.8,1-6.3,2.4-8.1,5.2c-2.7,4-1.4,5.8-0.9,6.4
			c3.4,4.5,17.4,4.3,21.8,2.7l0,0c6-2.1,11.2-6.3,14.4-11.8c-3.2-2.8-7.6-4.5-12.5-4.9C129,49.8,128.4,49.7,127.7,49.7z"/>
	</g>
	<g>
		<g>
			<path id="XMLID_00000052826756353211185900000018365928633186397075_" style="fill:#FF0425;" d="M115.3,83.9
				c0.7-5.3,1.7-10.1,0.5-15.3c-1.2-4.8-2.8-9.6-5-14.1C104.3,40.8,93.1,31.3,79,26.1c-1.9-0.7-3.9-1.3-5.9-1.9
				c-2-0.3-4.1-0.5-6.2-0.7c-14.9-1.1-29,3-40.5,12.9c-3.8,3.2-7.2,6.9-10.2,10.8c-3.3,4.2-4.2,9.1-5.7,14.2s2.6,2.3,4.9,1.1
				c7.7-4.3,16.3-7.1,25.1-8.2c4.6-0.6,9.2-0.7,13.8-0.4c6.3,0.5,12.8,1.8,18.8,3.5c6.2,1.7,12.2,4.3,17.7,7.7
				c7.6,4.6,14.3,10.7,19.6,17.8C112,85,114.7,89.2,115.3,83.9z"/>
		</g>
		<g>
			<path id="SVGID_1_" d="M114,87.7c-1.6,0-2.9-1.9-4.1-3.5l-0.4-0.5c-5.1-6.9-11.8-12.9-19.3-17.5c-5.5-3.3-11.3-5.9-17.4-7.6
				c-6.9-1.9-13.1-3-18.6-3.4c-4.5-0.3-9-0.2-13.5,0.4c-8.7,1.1-17.2,3.9-24.6,8l-0.6,0.3c-2,1.1-4.2,2.4-5.6,1.3
				c-1.2-1-0.8-2.8-0.4-4.1c0.2-0.8,0.5-1.7,0.7-2.5c1.2-4.3,2.4-8.4,5.2-12.1c3.2-4.2,6.7-7.9,10.4-11C37.1,25.7,51.4,21.2,67,22.3
				c2,0.1,4,0.4,6.2,0.7c2.3,0.7,4.3,1.3,6.1,2c14.8,5.4,26,15.4,32.5,29c2.1,4.4,3.8,9.2,5,14.3c1.1,4.6,0.5,8.8-0.1,13.2
				c-0.1,0.8-0.2,1.7-0.3,2.6c-0.2,1.3-0.6,3.2-2,3.6C114.3,87.7,114.2,87.7,114,87.7z M49.3,52.5c1.7,0,3.4,0.1,5.1,0.2
				c5.6,0.4,12.1,1.6,19.1,3.5c6.3,1.7,12.4,4.4,18,7.8c7.8,4.7,14.7,11,20,18.1l0.4,0.6c0.4,0.6,1.4,1.9,2,2.4
				c0.1-0.2,0.2-0.6,0.3-1.3l0,0c0.1-0.9,0.2-1.7,0.3-2.6c0.6-4.2,1.1-8.2,0.1-12.3c-1.2-4.9-2.8-9.6-4.9-13.8
				c-6.2-13-17-22.6-31.1-27.7c-1.8-0.7-3.7-1.3-5.8-1.9c-2-0.3-4-0.5-5.9-0.6c-15-1.1-28.7,3.3-39.6,12.6c-3.6,3-6.9,6.6-10,10.6
				c-2.6,3.4-3.7,7.2-4.8,11.3c-0.2,0.8-0.5,1.7-0.7,2.5c-0.2,0.7-0.3,1.1-0.3,1.3c0.7-0.2,2.1-1,2.8-1.4l0.6-0.3
				c7.7-4.3,16.5-7.2,25.5-8.3C43.3,52.7,46.3,52.5,49.3,52.5z"/>
		</g>
		<g>
			<defs>
				<path id="SVGID_00000107562457930780598570000000333689606395137694_" d="M115.3,83.9c0.7-5.3,1.7-10.1,0.5-15.3
					c-1.2-4.8-2.8-9.6-5-14.1C104.3,40.8,93.1,31.3,79,26.1c-1.9-0.7-3.9-1.3-5.9-1.9c-2-0.3-4.1-0.5-6.2-0.7
					c-14.9-1.1-29,3-40.5,12.9c-3.8,3.2-7.2,6.9-10.2,10.8c-3.3,4.2-4.2,9.1-5.7,14.2s2.6,2.3,4.9,1.1c7.7-4.3,16.3-7.1,25.1-8.2
					c4.6-0.6,9.2-0.7,13.8-0.4c6.3,0.5,12.8,1.8,18.8,3.5c6.2,1.7,12.2,4.3,17.7,7.7c7.6,4.6,14.3,10.7,19.6,17.8
					C112,85,114.7,89.2,115.3,83.9z"/>
			</defs>
			<clipPath id="SVGID_00000152246704123902533390000012782615128935176837_">
				<use xlink:href="#SVGID_00000107562457930780598570000000333689606395137694_"  style="overflow:visible;"/>
			</clipPath>
		</g>
		<g>
			<defs>
				<path id="SVGID_00000070087465796231511460000003904555125335085207_" d="M115.3,83.9c0.7-5.3,1.7-10.1,0.5-15.3
					c-1.2-4.8-2.8-9.6-5-14.1C104.3,40.8,93.1,31.3,79,26.1c-1.9-0.7-3.9-1.3-5.9-1.9c-2-0.3-4.1-0.5-6.2-0.7
					c-14.9-1.1-29,3-40.5,12.9c-3.8,3.2-7.2,6.9-10.2,10.8c-3.3,4.2-4.2,9.1-5.7,14.2s2.6,2.3,4.9,1.1c7.7-4.3,16.3-7.1,25.1-8.2
					c4.6-0.6,9.2-0.7,13.8-0.4c6.3,0.5,12.8,1.8,18.8,3.5c6.2,1.7,12.2,4.3,17.7,7.7c7.6,4.6,14.3,10.7,19.6,17.8
					C112,85,114.7,89.2,115.3,83.9z"/>
			</defs>
			<defs>
				<path id="SVGID_00000058552571150217029860000005929181231653624450_" d="M114,87.7c-1.6,0-2.9-1.9-4.1-3.5l-0.4-0.5
					c-5.1-6.9-11.8-12.9-19.3-17.5c-5.5-3.3-11.3-5.9-17.4-7.6c-6.9-1.9-13.1-3-18.6-3.4c-4.5-0.3-9-0.2-13.5,0.4
					c-8.7,1.1-17.2,3.9-24.6,8l-0.6,0.3c-2,1.1-4.2,2.4-5.6,1.3c-1.2-1-0.8-2.8-0.4-4.1c0.2-0.8,0.5-1.7,0.7-2.5
					c1.2-4.3,2.4-8.4,5.2-12.1c3.2-4.2,6.7-7.9,10.4-11C37.1,25.7,51.4,21.2,67,22.3c2,0.1,4,0.4,6.2,0.7c2.3,0.7,4.3,1.3,6.1,2
					c14.8,5.4,26,15.4,32.5,29c2.1,4.4,3.8,9.2,5,14.3c1.1,4.6,0.5,8.8-0.1,13.2c-0.1,0.8-0.2,1.7-0.3,2.6c-0.2,1.3-0.6,3.2-2,3.6
					C114.3,87.7,114.2,87.7,114,87.7z M49.3,52.5c1.7,0,3.4,0.1,5.1,0.2c5.6,0.4,12.1,1.6,19.1,3.5c6.3,1.7,12.4,4.4,18,7.8
					c7.8,4.7,14.7,11,20,18.1l0.4,0.6c0.4,0.6,1.4,1.9,2,2.4c0.1-0.2,0.2-0.6,0.3-1.3l0,0c0.1-0.9,0.2-1.7,0.3-2.6
					c0.6-4.2,1.1-8.2,0.1-12.3c-1.2-4.9-2.8-9.6-4.9-13.8c-6.2-13-17-22.6-31.1-27.7c-1.8-0.7-3.7-1.3-5.8-1.9c-2-0.3-4-0.5-5.9-0.6
					c-15-1.1-28.7,3.3-39.6,12.6c-3.6,3-6.9,6.6-10,10.6c-2.6,3.4-3.7,7.2-4.8,11.3c-0.2,0.8-0.5,1.7-0.7,2.5
					c-0.2,0.7-0.3,1.1-0.3,1.3c0.7-0.2,2.1-1,2.8-1.4l0.6-0.3c7.7-4.3,16.5-7.2,25.5-8.3C43.3,52.7,46.3,52.5,49.3,52.5z"/>
			</defs>
			<clipPath id="SVGID_00000013885277966927470100000005194370630455336893_">
				<use xlink:href="#SVGID_00000070087465796231511460000003904555125335085207_"  style="overflow:visible;"/>
			</clipPath>
			
				<clipPath id="SVGID_00000116215958140543788350000017033549821885137074_" style="clip-path:url(#SVGID_00000013885277966927470100000005194370630455336893_);">
				<use xlink:href="#SVGID_00000058552571150217029860000005929181231653624450_"  style="overflow:visible;"/>
			</clipPath>
			<path style="clip-path:url(#SVGID_00000116215958140543788350000017033549821885137074_);" d="M19.2,63.9c-0.5,0-0.9-0.3-1.1-0.7
				l-18.2-42c-0.3-0.7-1-2.3-0.1-3.6c0.4-0.6,1.1-0.8,1.7-0.4s0.7,1.1,0.4,1.7c0,0.1-0.1,0.4,0.3,1.3l18.2,42c0.3,0.6,0,1.4-0.6,1.6
				C19.5,63.9,19.3,63.9,19.2,63.9z"/>
		</g>
		<g>
			<defs>
				<path id="SVGID_00000145745183873569728310000001485946774740118459_" d="M115.3,83.9c0.7-5.3,1.7-10.1,0.5-15.3
					c-1.2-4.8-2.8-9.6-5-14.1C104.3,40.8,93.1,31.3,79,26.1c-1.9-0.7-3.9-1.3-5.9-1.9c-2-0.3-4.1-0.5-6.2-0.7
					c-14.9-1.1-29,3-40.5,12.9c-3.8,3.2-7.2,6.9-10.2,10.8c-3.3,4.2-4.2,9.1-5.7,14.2s2.6,2.3,4.9,1.1c7.7-4.3,16.3-7.1,25.1-8.2
					c4.6-0.6,9.2-0.7,13.8-0.4c6.3,0.5,12.8,1.8,18.8,3.5c6.2,1.7,12.2,4.3,17.7,7.7c7.6,4.6,14.3,10.7,19.6,17.8
					C112,85,114.7,89.2,115.3,83.9z"/>
			</defs>
			<defs>
				<path id="SVGID_00000058558402871774255430000009316319175120793494_" d="M114,87.7c-1.6,0-2.9-1.9-4.1-3.5l-0.4-0.5
					c-5.1-6.9-11.8-12.9-19.3-17.5c-5.5-3.3-11.3-5.9-17.4-7.6c-6.9-1.9-13.1-3-18.6-3.4c-4.5-0.3-9-0.2-13.5,0.4
					c-8.7,1.1-17.2,3.9-24.6,8l-0.6,0.3c-2,1.1-4.2,2.4-5.6,1.3c-1.2-1-0.8-2.8-0.4-4.1c0.2-0.8,0.5-1.7,0.7-2.5
					c1.2-4.3,2.4-8.4,5.2-12.1c3.2-4.2,6.7-7.9,10.4-11C37.1,25.7,51.4,21.2,67,22.3c2,0.1,4,0.4,6.2,0.7c2.3,0.7,4.3,1.3,6.1,2
					c14.8,5.4,26,15.4,32.5,29c2.1,4.4,3.8,9.2,5,14.3c1.1,4.6,0.5,8.8-0.1,13.2c-0.1,0.8-0.2,1.7-0.3,2.6c-0.2,1.3-0.6,3.2-2,3.6
					C114.3,87.7,114.2,87.7,114,87.7z M49.3,52.5c1.7,0,3.4,0.1,5.1,0.2c5.6,0.4,12.1,1.6,19.1,3.5c6.3,1.7,12.4,4.4,18,7.8
					c7.8,4.7,14.7,11,20,18.1l0.4,0.6c0.4,0.6,1.4,1.9,2,2.4c0.1-0.2,0.2-0.6,0.3-1.3l0,0c0.1-0.9,0.2-1.7,0.3-2.6
					c0.6-4.2,1.1-8.2,0.1-12.3c-1.2-4.9-2.8-9.6-4.9-13.8c-6.2-13-17-22.6-31.1-27.7c-1.8-0.7-3.7-1.3-5.8-1.9c-2-0.3-4-0.5-5.9-0.6
					c-15-1.1-28.7,3.3-39.6,12.6c-3.6,3-6.9,6.6-10,10.6c-2.6,3.4-3.7,7.2-4.8,11.3c-0.2,0.8-0.5,1.7-0.7,2.5
					c-0.2,0.7-0.3,1.1-0.3,1.3c0.7-0.2,2.1-1,2.8-1.4l0.6-0.3c7.7-4.3,16.5-7.2,25.5-8.3C43.3,52.7,46.3,52.5,49.3,52.5z"/>
			</defs>
			<clipPath id="SVGID_00000121264297219206134250000016327845148497196931_">
				<use xlink:href="#SVGID_00000145745183873569728310000001485946774740118459_"  style="overflow:visible;"/>
			</clipPath>
			
				<clipPath id="SVGID_00000024701119637000841190000011523269400845323447_" style="clip-path:url(#SVGID_00000121264297219206134250000016327845148497196931_);">
				<use xlink:href="#SVGID_00000058558402871774255430000009316319175120793494_"  style="overflow:visible;"/>
			</clipPath>
			<path style="clip-path:url(#SVGID_00000024701119637000841190000011523269400845323447_);" d="M46.1,65.7c-0.6,0-1.1-0.4-1.2-1
				c-0.4-2,1.2-3.6,1.8-4.3C51.4,55.5,59,48,66.4,40.8c7.4-7.3,15-14.8,19.7-19.6c0.5-0.5,1.3-0.5,1.7,0c0.5,0.5,0.5,1.3,0,1.8
				c-4.7,4.8-12.3,12.4-19.7,19.6c-7.4,7.3-15,14.8-19.7,19.6c-0.6,0.6-1.3,1.4-1.2,2c0.1,0.7-0.3,1.3-0.9,1.5
				C46.3,65.6,46.2,65.7,46.1,65.7z"/>
		</g>
		<g>
			<defs>
				<path id="SVGID_00000004513049926010150740000010910205223624112789_" d="M115.3,83.9c0.7-5.3,1.7-10.1,0.5-15.3
					c-1.2-4.8-2.8-9.6-5-14.1C104.3,40.8,93.1,31.3,79,26.1c-1.9-0.7-3.9-1.3-5.9-1.9c-2-0.3-4.1-0.5-6.2-0.7
					c-14.9-1.1-29,3-40.5,12.9c-3.8,3.2-7.2,6.9-10.2,10.8c-3.3,4.2-4.2,9.1-5.7,14.2s2.6,2.3,4.9,1.1c7.7-4.3,16.3-7.1,25.1-8.2
					c4.6-0.6,9.2-0.7,13.8-0.4c6.3,0.5,12.8,1.8,18.8,3.5c6.2,1.7,12.2,4.3,17.7,7.7c7.6,4.6,14.3,10.7,19.6,17.8
					C112,85,114.7,89.2,115.3,83.9z"/>
			</defs>
			<defs>
				<path id="SVGID_00000084530191787013881290000008698651044226190505_" d="M114,87.7c-1.6,0-2.9-1.9-4.1-3.5l-0.4-0.5
					c-5.1-6.9-11.8-12.9-19.3-17.5c-5.5-3.3-11.3-5.9-17.4-7.6c-6.9-1.9-13.1-3-18.6-3.4c-4.5-0.3-9-0.2-13.5,0.4
					c-8.7,1.1-17.2,3.9-24.6,8l-0.6,0.3c-2,1.1-4.2,2.4-5.6,1.3c-1.2-1-0.8-2.8-0.4-4.1c0.2-0.8,0.5-1.7,0.7-2.5
					c1.2-4.3,2.4-8.4,5.2-12.1c3.2-4.2,6.7-7.9,10.4-11C37.1,25.7,51.4,21.2,67,22.3c2,0.1,4,0.4,6.2,0.7c2.3,0.7,4.3,1.3,6.1,2
					c14.8,5.4,26,15.4,32.5,29c2.1,4.4,3.8,9.2,5,14.3c1.1,4.6,0.5,8.8-0.1,13.2c-0.1,0.8-0.2,1.7-0.3,2.6c-0.2,1.3-0.6,3.2-2,3.6
					C114.3,87.7,114.2,87.7,114,87.7z M49.3,52.5c1.7,0,3.4,0.1,5.1,0.2c5.6,0.4,12.1,1.6,19.1,3.5c6.3,1.7,12.4,4.4,18,7.8
					c7.8,4.7,14.7,11,20,18.1l0.4,0.6c0.4,0.6,1.4,1.9,2,2.4c0.1-0.2,0.2-0.6,0.3-1.3l0,0c0.1-0.9,0.2-1.7,0.3-2.6
					c0.6-4.2,1.1-8.2,0.1-12.3c-1.2-4.9-2.8-9.6-4.9-13.8c-6.2-13-17-22.6-31.1-27.7c-1.8-0.7-3.7-1.3-5.8-1.9c-2-0.3-4-0.5-5.9-0.6
					c-15-1.1-28.7,3.3-39.6,12.6c-3.6,3-6.9,6.6-10,10.6c-2.6,3.4-3.7,7.2-4.8,11.3c-0.2,0.8-0.5,1.7-0.7,2.5
					c-0.2,0.7-0.3,1.1-0.3,1.3c0.7-0.2,2.1-1,2.8-1.4l0.6-0.3c7.7-4.3,16.5-7.2,25.5-8.3C43.3,52.7,46.3,52.5,49.3,52.5z"/>
			</defs>
			<clipPath id="SVGID_00000078040072769031218320000008519171174594040241_">
				<use xlink:href="#SVGID_00000004513049926010150740000010910205223624112789_"  style="overflow:visible;"/>
			</clipPath>
			
				<clipPath id="SVGID_00000070087556356472291860000016691109371226140558_" style="clip-path:url(#SVGID_00000078040072769031218320000008519171174594040241_);">
				<use xlink:href="#SVGID_00000084530191787013881290000008698651044226190505_"  style="overflow:visible;"/>
			</clipPath>
			<path style="clip-path:url(#SVGID_00000070087556356472291860000016691109371226140558_);fill:#FFFFFF;" d="M23,26.1
				c-0.6,0-1.2-0.5-1.2-1.1c-0.3-3.1-0.9-6.2-1.8-9.2c-0.2-0.7,0.2-1.4,0.8-1.6c0.7-0.2,1.3,0.2,1.5,0.8c0.9,3.1,1.6,6.4,1.9,9.7
				C24.3,25.4,23.8,26,23,26.1C23.1,26.1,23,26.1,23,26.1z"/>
		</g>
	</g>
</g>
<g>
	<g>
		<path style="fill:#F4BA76;" d="M63.6,198.5c-0.4,4.1-0.8,8.5,1.2,12.1c0.9,1.6,2.2,2.9,3.1,4.5c3.1,4.8,3,10.9,2.8,16.6
			c-2.7-0.3-5.3,0.6-7.3,2.4c-2.3,2.1-2.7,6.8,0.2,8.7c2.8,1.8,9.5,0.5,12.9,0.5c4.1,0,5.4-4,5.5-7.4c0.3-5.6-0.3-11.7-1.3-17.2
			c-0.2-1.1-0.4-2.1-0.7-3.1c-0.5-1.5-1.3-2.9-2.2-4.2c-1.8-2.9,0.1-6.9,0.5-10.3c0.2-1.7,0.3-3.7-0.9-5c-0.8-0.9-2-1.1-3.2-1.3
			c-2.9-0.4-5.9,0-8.7,1.1c-0.6,0.2-1.3,0.5-1.8,1C63.3,197.4,63.7,197.8,63.6,198.5z"/>
		<path d="M68.5,245c-2.2,0-4.2-0.3-5.5-1.2c-1.5-1-2.5-2.7-2.6-4.6c-0.2-2.3,0.7-4.6,2.3-6c2-1.8,4.4-2.8,6.9-2.8
			c0.2-5.6-0.1-10.7-2.6-14.6c-0.4-0.6-0.8-1.2-1.3-1.8c-0.7-0.9-1.3-1.7-1.9-2.8c-2.1-3.8-1.8-8.1-1.3-12.8c0-0.1,0-0.2,0-0.4
			c0-0.4-0.1-1.2,0.6-1.9c0.7-0.7,1.5-1,2.2-1.3c2.9-1.1,6.2-1.5,9.3-1.1c1.1,0.1,2.8,0.5,3.9,1.7c1.6,1.7,1.4,4.3,1.2,6
			c-0.1,1.1-0.3,2.2-0.6,3.2c-0.5,2.4-1,4.6-0.1,6.3c0.8,1.4,1.7,2.8,2.3,4.4c0.4,1.1,0.6,2.3,0.8,3.3c0.8,4.3,1.6,10.9,1.3,17.4
			c-0.3,5.4-2.8,8.6-6.8,8.6c-0.9,0-2,0.1-3.2,0.2C71.7,244.9,70.1,245,68.5,245z M69.7,232.8c-2,0-3.9,0.8-5.4,2.2
			c-1,0.9-1.6,2.5-1.5,4c0.1,0.7,0.3,2,1.5,2.8c1.7,1.1,5.8,0.8,8.8,0.5c1.3-0.1,2.4-0.2,3.4-0.2c3.5,0,4.2-3.9,4.3-6.2
			c0.3-6.3-0.5-12.7-1.3-16.9c-0.2-1-0.4-2-0.7-2.9c-0.5-1.4-1.3-2.7-2-4c-1.5-2.5-0.8-5.5-0.3-8.1c0.2-1,0.4-2,0.5-2.9
			c0.2-1.7,0.3-3.2-0.5-4c-0.6-0.6-1.7-0.8-2.4-0.9c-2.7-0.3-5.5,0-8.1,1c-0.5,0.2-0.9,0.4-1.2,0.7c0,0.3,0,0.6,0,0.9l0,0
			c-0.4,4.4-0.7,8.2,1,11.4c0.5,0.8,1.1,1.6,1.7,2.4c0.5,0.6,1,1.3,1.4,2c3.2,4.9,3.2,10.8,3,17.4c0,0.3-0.2,0.7-0.4,0.9
			c-0.3,0.2-0.6,0.3-0.9,0.3C70.3,232.9,70,232.8,69.7,232.8z M63.6,198.5L63.6,198.5L63.6,198.5z"/>
	</g>
	<g>
		<path style="fill:#10171D;" d="M61.2,200.7c0.4,3.2,0.7,6.5,1,9.7c0.4,4.6,1.3,9.5-0.1,14c-0.4,1.2-0.6,2.6,0.1,3.7
			c0.3,0.4,0.7,0.8,0.8,1.3c0.5,1.7-2.4,3.2-1.6,4.7c0.2,0.3,2.2-0.8,2.4-0.9c1-0.5,1.3-0.6,2.4-0.6c2.3-0.1,4.5-0.4,6.8-0.6
			c2.7-0.2,5.5-0.1,8,0.9c0.5,0.2,2.3,1.2,2.8,0.5c0.4-0.6-0.7-2.1-1-2.6c-0.1-0.2-0.2-0.3-0.2-0.5c-0.1-0.8,0.9-1.1,1.5-1.6
			c1.2-0.9,0.9-2.9,0.3-4.3c-1-2.4-0.4-3.4-0.3-5.6c0.1-2.7-0.8-5.3-0.6-8c0.4-7.8,1.5-15.4,1.5-23.3c0-0.5,0-1-0.3-1.4
			s-0.8-0.5-1.2-0.6c-5.4-1.1-11-1.7-16.5-1.8c-5.3-0.1-8.8,2.8-7.3,8.2C60.3,194.8,60.8,197.8,61.2,200.7z"/>
		<path d="M61.4,235.3c-0.5,0-0.9-0.2-1.2-0.7c-0.8-1.5,0.2-2.8,0.8-3.7c0.3-0.4,0.7-1,0.7-1.2c0-0.1-0.2-0.3-0.3-0.4
			c-0.1-0.2-0.3-0.3-0.4-0.5c-0.8-1.2-0.9-2.8-0.3-4.7c1.1-3.6,0.7-7.7,0.3-11.6l-0.4-4.5c-0.2-2.4-0.4-4.8-0.7-7.1l0,0
			c-0.4-3.3-0.9-6.1-1.6-8.5c-0.9-3.4,0-5.6,1-6.9c1.5-2,4.2-3.1,7.6-3c5.6,0.1,11.2,0.8,16.7,1.9c0.5,0.1,1.4,0.3,1.9,1.1
			c0.5,0.7,0.5,1.6,0.5,2.1c0,4.9-0.4,9.8-0.8,14.5c-0.3,2.9-0.5,5.9-0.7,8.8c-0.1,1.2,0.1,2.5,0.3,3.8c0.2,1.3,0.4,2.7,0.3,4.2
			c0,0.6-0.1,1.1-0.1,1.6c-0.1,1.2-0.2,2,0.4,3.5c1,2.5,0.8,4.6-0.7,5.7c-0.2,0.1-0.4,0.3-0.6,0.4c-0.1,0-0.2,0.1-0.3,0.2l0.1,0.1
			c0.6,0.9,1.7,2.5,0.8,3.7c-1.1,1.5-3.1,0.5-4,0.1l-0.2-0.1c-1.9-0.8-4.2-1.1-7.5-0.8c-0.9,0.1-1.7,0.2-2.6,0.3
			c-1.4,0.1-2.8,0.3-4.2,0.3c-1,0-1.1,0.1-1.9,0.5C63.3,234.8,62.3,235.3,61.4,235.3z M75.2,230.6c2,0,4.2,0.2,6.2,1.1l0.3,0.1
			c0.1,0,0.2,0.1,0.3,0.2c-0.1-0.1-0.1-0.2-0.2-0.3l-0.2-0.3c-0.1-0.2-0.4-0.6-0.4-1c-0.2-1.4,0.9-2.1,1.5-2.4
			c0.1-0.1,0.3-0.2,0.4-0.3c0.6-0.4,0.4-1.7-0.1-2.8c-0.9-2.1-0.7-3.4-0.6-4.7c0-0.4,0.1-0.9,0.1-1.5c0.1-1.2-0.1-2.4-0.3-3.7
			c-0.2-1.4-0.4-2.8-0.3-4.3c0.2-3,0.4-6,0.7-8.9c0.4-4.7,0.8-9.5,0.8-14.3c0-0.1,0-0.5-0.1-0.7c0,0-0.2,0-0.4-0.1
			c-5.4-1.1-10.8-1.7-16.3-1.8c-2.5,0-4.5,0.6-5.6,2c-0.9,1.1-1.1,2.7-0.5,4.7c0.7,2.6,1.2,5.4,1.7,8.9c0.3,2.4,0.5,4.8,0.7,7.2
			l0.4,4.4c0.4,4.2,0.9,8.5-0.4,12.6c-0.4,1.2-0.4,2.1,0,2.6c0.1,0.1,0.2,0.2,0.2,0.3c0.3,0.3,0.6,0.7,0.7,1.3
			c0.3,1.2-0.2,2.2-0.7,2.9c1-0.5,1.6-0.6,2.7-0.6c1.3,0,2.7-0.2,4-0.3c0.9-0.1,1.8-0.2,2.7-0.3C73.6,230.6,74.4,230.6,75.2,230.6z"
			/>
	</g>
	<path d="M65.6,244.4c-0.7,0-1.2-0.5-1.2-1.2c-0.2-5.9,1.9-8,2.2-8.2c0.5-0.5,1.3-0.4,1.7,0.1c0.4,0.5,0.4,1.3-0.1,1.7
		c-0.1,0.1-1.5,1.7-1.4,6.3C66.8,243.8,66.3,244.3,65.6,244.4L65.6,244.4z"/>
	<path d="M72.5,244.8c-0.5,0-1-0.4-1.2-0.9c-1.2-4.3,1-8.5,1.1-8.6c0.3-0.6,1.1-0.8,1.7-0.5s0.8,1.1,0.5,1.7c0,0-1.8,3.5-0.9,6.8
		c0.2,0.7-0.2,1.3-0.8,1.5C72.7,244.8,72.6,244.8,72.5,244.8z"/>
</g>
<g>
	<path d="M24.4,80.4c-1.6,0-3.3-1.4-5-4.4c-0.4-0.6-0.2-1.4,0.4-1.7c0.6-0.4,1.3-0.2,1.7,0.4c1.5,2.6,2.7,3.2,3,3.2
		c1-0.1,1.9-1.2,2.9-2.4c0.6-0.8,1.3-1.6,2.1-2.1c1.8-1.3,4-2.4,6.6-3.2c0.6-0.2,1.3,0.2,1.5,0.8c0.2,0.7-0.2,1.4-0.8,1.6
		c-2.3,0.7-4.2,1.7-5.8,2.8c-0.5,0.4-1.1,1-1.6,1.7c-1.2,1.5-2.6,3.1-4.6,3.2C24.5,80.4,24.5,80.4,24.4,80.4z"/>
	<path d="M16.7,81.4c-0.4,0-0.8-0.2-1-0.5c-1.8-2.5-1.7-5.6-1.4-8.8c0.1-0.7,0.6-1.2,1.3-1.1s1.2,0.7,1.1,1.4
		c-0.2,2.7-0.4,5.3,0.9,7.1c0.4,0.6,0.3,1.3-0.3,1.7C17.2,81.3,16.9,81.4,16.7,81.4z"/>
</g>
<g>
	<g>
		<g>
			<path style="fill:#FFFFFF;" d="M30.1,97.4c4.7,5.9,13.2,5.8,19.1,1c4.3-3.5,6.1-8.4,4.2-13.8c-2.5-7-13.9-7.8-19.4-4.3
				C27.6,84.3,25.4,91.5,30.1,97.4z"/>
			<path d="M39.8,103.2c-4,0-7.9-1.7-10.6-5c-2.3-2.9-3.2-6.1-2.7-9.4c0.6-3.7,3-7.1,6.7-9.5c3.8-2.4,9.8-3,14.5-1.3
				c3.4,1.2,5.8,3.3,6.8,6.2c2,5.6,0.4,11.1-4.5,15.2C46.9,101.9,43.2,103.2,39.8,103.2z M41.8,79.5c-2.7,0-5.3,0.6-7.2,1.8
				c-3.1,2-5.1,4.8-5.6,7.8c-0.4,2.6,0.3,5.2,2.2,7.5c4.1,5.1,11.7,5.5,17.3,0.8c4.1-3.4,5.4-7.8,3.8-12.4c-1-2.7-3.4-4.1-5.3-4.7
				C45.3,79.8,43.6,79.5,41.8,79.5z"/>
		</g>
		<ellipse cx="37" cy="88.2" rx="8.7" ry="8.8"/>
		<path style="fill:#FFFFFF;" d="M39.1,82.5c-0.6,0-1.3-0.2-1.7,0.3s-0.4,1.3,0,1.8c0.5,0.6,1.3,0.8,1.8,1.4s1,1.3,1.7,0.5
			c0.7-0.7,0.5-2.2,0-2.9C40.5,83,39.9,82.7,39.1,82.5z"/>
	</g>
	<path d="M37.9,105.9c-0.4,0-0.7-0.2-0.9-0.5c-0.4-0.5-0.4-1.3,0.2-1.8c4-3.3,9.2-5,14.4-4.7c0.7,0,1.2,0.6,1.2,1.3
		c0,0.7-0.6,1.2-1.3,1.2c-4.5-0.3-9.2,1.2-12.7,4.2C38.4,105.8,38.2,105.9,37.9,105.9z"/>
</g>
<g>
	<path d="M24.8,121.7c-0.1,0-0.1,0-0.2,0c-0.7-0.1-1.1-0.7-1.1-1.4c0.4-3.3,1.6-6.5,3.4-9.3c0.4-0.6,1.1-0.7,1.7-0.3
		c0.6,0.4,0.7,1.2,0.3,1.7c-1.3,2-2.3,4.3-2.8,6.6c0.5,0,1.2-0.1,1.9-0.1c2-0.1,5.8-0.4,6.4-0.5c0.6-0.2,1.2-0.4,1.8-0.6
		c0.8-0.3,1.6-0.6,2.5-0.9c3.1-0.8,6.5-0.1,9.3,1.8c0.6,0.4,0.7,1.2,0.3,1.7c-0.4,0.6-1.1,0.7-1.7,0.3c-2.2-1.5-4.9-2-7.3-1.4
		c-0.7,0.2-1.4,0.5-2.2,0.8c-0.6,0.3-1.3,0.5-1.9,0.7c-0.7,0.2-2.7,0.4-7,0.6c-1.3,0.1-2.8,0.2-3.2,0.2
		C25,121.7,24.9,121.7,24.8,121.7z"/>
	<path d="M47.5,123.7c-0.3,0-0.6-0.1-0.8-0.2c-0.6-0.4-0.7-1.1-0.4-1.7c0.1-0.1,0.2-0.3,0.3-0.3c0.2-2.4-0.4-4.8-1.6-6.8
		c-0.4-0.6-0.2-1.3,0.4-1.7c0.6-0.4,1.3-0.2,1.7,0.4c1.6,2.6,2.3,5.8,1.9,8.8c-0.1,0.5-0.4,1.1-1,1.4
		C47.9,123.7,47.7,123.7,47.5,123.7z"/>
</g>
<g>
	<g>
		<path style="fill:#F4BA76;" d="M74.9,156.7c0,0-26.6,21.3-42.4,17.9s-16.8-7.5-15.6-11c1.2-3.2,4.6-4.8,7.6-5.6
			c3.3-0.9,6.6,0.4,9.7,1.6c1.5,0.6,3,1.8,4.6,2c0.7,0.1,1.4,0,2-0.1c6.5-1.2,12.6-5,18.5-8.1c4.1-2.2,8.2-4.3,12.3-6.4L74.9,156.7z
			"/>
		<path d="M36.1,176.2c-1.3,0-2.6-0.1-3.9-0.4c-9.3-2-14.5-4.4-16.3-7.6c-0.8-1.5-0.9-3.2-0.2-5.1c1.1-3,4-5.1,8.5-6.3
			c3.5-0.9,6.9,0.3,10.4,1.7c0.6,0.2,1.2,0.6,1.7,0.9c0.9,0.5,1.7,1,2.5,1c0.5,0,1,0,1.7-0.1c5.2-1,10.2-3.7,15.1-6.3
			c1-0.6,2.1-1.1,3.1-1.6c4.1-2.2,8.2-4.3,12.3-6.4c0.3-0.2,0.7-0.2,1,0s0.6,0.4,0.7,0.7l3.4,9.7c0.2,0.5,0,1.1-0.4,1.4
			C74.7,158.5,52.3,176.2,36.1,176.2z M26.9,159c-0.7,0-1.3,0.1-2,0.3c-2.6,0.7-5.8,2.1-6.8,4.8c-0.4,1.2-0.4,2.2,0,3
			c1.3,2.4,6.2,4.6,14.6,6.4c13.7,2.9,36.5-13.9,40.7-17.2l-2.6-7.5c-3.7,1.9-7.3,3.8-11,5.8c-1,0.5-2,1.1-3,1.6
			c-5,2.7-10.2,5.5-15.8,6.6c-0.9,0.2-1.7,0.2-2.4,0.1c-1.3-0.1-2.4-0.8-3.4-1.3c-0.5-0.3-1-0.5-1.5-0.7
			C31.3,159.8,29.1,159,26.9,159z"/>
	</g>
	<path d="M30.3,165.2c-0.1,0-0.2,0-0.3,0c-4.1-1.1-6.3-3.1-6-5.5c0.1-1,0.6-1.8,1.4-2.3c1.8-1.2,4.7-0.4,7.5,0.4l0.3,0.1
		c0.6,0.2,1,0.9,0.8,1.5c-0.2,0.7-0.9,1-1.5,0.8l-0.3-0.1c-1.3-0.4-4.4-1.4-5.4-0.7c-0.1,0-0.2,0.1-0.3,0.5c-0.1,1,1.6,2.1,4.2,2.8
		c0.7,0.2,1.1,0.8,0.9,1.5C31.3,164.8,30.8,165.2,30.3,165.2z"/>
	<g>
		<g>
			<path style="fill:#171717;" d="M80.8,128.8c-3.4,0.5-3.9,1.6-5.1,4.8c-1.4,3.7-4,6.8-6.6,9.7c-3,3.4-6.3,6.8-10.2,8.9
				c-6.6,3.6-14.6,4-21.9,5.1c-0.3,0.1,4,17.3,4.6,18.8c0.3,0.9,9.5-4.3,10.6-4.8c3.3-1.3,6.5-3,9.5-5c7.1-4.7,14.1-9.5,20.6-14.9
				c4-3.3,7.4-7.3,9.1-12.3c2.2-6.3-3.9-11.2-9.8-10.5C81.2,128.7,81,128.7,80.8,128.8z"/>
			<path d="M41.7,177.5c-0.2,0-0.4,0-0.6-0.1c-0.3-0.1-0.7-0.5-0.8-0.8c-0.1-0.2-5.2-18.6-4.5-19.8c0.2-0.3,0.5-0.5,0.9-0.6
				c1.4-0.2,2.8-0.4,4.2-0.6c6-0.8,12.1-1.6,17.3-4.4c3.9-2.1,7.1-5.4,9.9-8.6c2.5-2.8,5-5.9,6.3-9.4c1.3-3.3,2.1-5,6.1-5.6l0,0
				c0.2,0,0.5-0.1,0.7-0.1c3.7-0.4,7.5,1.1,9.7,3.9c1.9,2.4,2.3,5.3,1.3,8.2c-1.6,4.7-4.7,8.9-9.4,12.9c-6.8,5.7-13.9,10.6-20.7,15
				c-3,2-6.3,3.7-9.7,5.1c-0.3,0.1-1.1,0.5-2.1,1.1C44.7,176.6,42.7,177.5,41.7,177.5z M42.7,175.7L42.7,175.7L42.7,175.7z
				 M38.3,158.4c0.7,3.3,3.1,13.1,4.1,16.4c1.6-0.6,5.2-2.5,6.9-3.4c1.1-0.6,2-1.1,2.3-1.2c3.2-1.3,6.4-3,9.3-4.9
				c6.7-4.4,13.8-9.2,20.4-14.8c4.4-3.7,7.2-7.6,8.7-11.8c0.9-2.7,0-4.7-0.9-5.9c-1.7-2.1-4.7-3.3-7.5-3L81,130l0,0
				c-2.8,0.4-3,1-4.2,4c-1.5,3.9-4.3,7.3-6.8,10.1c-3,3.4-6.3,6.9-10.6,9.2c-5.5,3-11.9,3.8-18.1,4.7
				C40.3,158.1,39.3,158.3,38.3,158.4z M80.8,128.8L80.8,128.8L80.8,128.8z"/>
		</g>
		<g>
			<path style="fill:#C3C3C3;" d="M90.6,140.7l6.9,8.7l-9.9-3.6C87.6,145.8,87.1,141.6,90.6,140.7z"/>
			<path d="M97.5,150.6c-0.1,0-0.3,0-0.4-0.1l-9.9-3.6c-0.4-0.2-0.7-0.6-0.8-1c-0.2-1.8,0.3-5.5,3.9-6.4c0.5-0.1,1,0,1.3,0.4
				l6.9,8.7c0.3,0.4,0.4,1,0,1.5C98.3,150.4,97.9,150.6,97.5,150.6z M88.8,144.9l4.9,1.8l-3.6-4.5C89.1,142.8,88.9,144.1,88.8,144.9
				z"/>
		</g>
		<g>
			<path style="fill:#C3C3C3;" d="M85.9,146.6l6.9,8.7l-9.9-3.6C82.9,151.7,82.4,147.5,85.9,146.6z"/>
			<path d="M92.8,156.5c-0.1,0-0.3,0-0.4-0.1l-9.9-3.6c-0.4-0.2-0.7-0.6-0.8-1c-0.2-1.8,0.3-5.5,3.9-6.4c0.5-0.1,0.9,0,1.3,0.4
				l6.9,8.7c0.3,0.4,0.4,1,0,1.5C93.5,156.4,93.2,156.5,92.8,156.5z M84.1,150.8l4.9,1.8l-3.6-4.5C84.4,148.8,84.1,150,84.1,150.8z"
				/>
		</g>
		<g>
			<path style="fill:#C3C3C3;" d="M49.6,170.5l-0.4,11.1l-5.1-9.3C44.1,172.3,46.4,168.9,49.6,170.5z"/>
			<path d="M49.2,182.9c-0.4,0-0.9-0.2-1.1-0.6L43,173c-0.2-0.4-0.2-0.9,0.1-1.3c1-1.5,3.8-3.9,7.1-2.3c0.4,0.2,0.7,0.7,0.7,1.1
				l-0.4,11.1c0,0.6-0.4,1-0.9,1.2C49.4,182.8,49.3,182.9,49.2,182.9z M45.6,172.5l2.6,4.6l0.2-5.7
				C47.1,171.1,46.1,171.9,45.6,172.5z"/>
		</g>
		<g>
			<path style="fill:#C3C3C3;" d="M49.4,165.1L49,176.3l-5.1-9.3C43.9,167,46.2,163.5,49.4,165.1z"/>
			<path d="M49,177.5c-0.4,0-0.9-0.2-1.1-0.6l-5.1-9.3c-0.2-0.4-0.2-0.9,0.1-1.3c1-1.5,3.8-3.9,7.1-2.3c0.4,0.2,0.7,0.7,0.7,1.1
				l-0.4,11.1c0,0.6-0.4,1-0.9,1.2C49.2,177.5,49.1,177.5,49,177.5z M45.4,167.1l2.6,4.6l0.2-5.7C46.9,165.8,45.9,166.5,45.4,167.1z
				"/>
		</g>
		<g>
			<path style="fill:#C3C3C3;" d="M54.7,166.7l-0.4,11.1l-5.1-9.3C49.2,168.6,51.5,165.1,54.7,166.7z"/>
			<path d="M54.3,179.1c-0.4,0-0.9-0.2-1.1-0.6l-5.1-9.3c-0.2-0.4-0.2-0.9,0.1-1.3c1-1.5,3.8-3.9,7.1-2.3c0.4,0.2,0.7,0.7,0.7,1.1
				l-0.4,11.1c0,0.6-0.4,1-0.9,1.2C54.5,179.1,54.4,179.1,54.3,179.1z M50.7,168.7l2.6,4.6l0.2-5.7
				C52.2,167.3,51.2,168.1,50.7,168.7z"/>
		</g>
		<g>
			<path style="fill:#C3C3C3;" d="M86.2,141.6l6.9,8.7l-9.9-3.6C83.2,146.6,82.7,142.5,86.2,141.6z"/>
			<path d="M93.1,151.5c-0.1,0-0.3,0-0.4-0.1l-9.9-3.6c-0.4-0.2-0.7-0.6-0.8-1c-0.2-1.8,0.3-5.5,3.9-6.4c0.5-0.1,0.9,0,1.3,0.4
				l6.9,8.7c0.3,0.4,0.4,1,0,1.5C93.8,151.3,93.5,151.5,93.1,151.5z M84.4,145.7l4.9,1.8l-3.6-4.5C84.7,143.7,84.4,144.9,84.4,145.7
				z"/>
		</g>
	</g>
</g>
<g>
	<g>
		<path style="fill:#171717;" d="M36.1,158.9c2.4-0.4,4.9-0.5,7.3-0.6c1.7,0,2.9,1,4.5,1c0.5,0,0.9-0.2,1.4-0.4
			c2.8-1.3,5.7-2.6,8.5-3.9c0.2-0.1,0.4-0.2,0.4-0.4c0.1-0.2,0-0.4-0.1-0.6c-1.2-3.1-4.1-5.4-7.4-6.2s-6.7-0.3-9.8,1.1
			c-2,0.9-3.9,2.2-6.1,2.7c-2.7,0.7-5.6,0.3-8.3-0.2c-1.7,0.4-3.8,1.2-4.7,2.7"/>
		<path d="M47.9,160.6L47.9,160.6c-1,0-1.8-0.3-2.6-0.6c-0.7-0.2-1.3-0.5-1.9-0.4c-2.8,0-5,0.2-7.1,0.5c-0.7,0.1-1.3-0.4-1.4-1
			c-0.1-0.7,0.3-1.3,1-1.4c2.2-0.3,4.5-0.5,7.4-0.6c1.2,0,2,0.3,2.8,0.6c0.6,0.2,1.2,0.4,1.7,0.4c0.2,0.1,0.6-0.2,0.9-0.3l8.1-3.6
			c-1.1-2.4-3.5-4.3-6.3-5c-2.7-0.7-5.9-0.3-9,1c-0.7,0.3-1.3,0.6-2,1c-1.3,0.7-2.7,1.4-4.3,1.8c-2.9,0.8-5.9,0.3-8.6-0.1
			c-1.8,0.5-3.2,1.2-3.7,2.1c-0.4,0.6-1.1,0.8-1.7,0.4c-0.6-0.4-0.7-1.1-0.4-1.7c0.9-1.5,2.8-2.6,5.5-3.2c0.2,0,0.3,0,0.5,0
			c2.5,0.4,5.3,0.9,7.8,0.2c1.3-0.3,2.5-1,3.8-1.6c0.7-0.4,1.4-0.7,2.1-1c3.5-1.6,7.3-2,10.5-1.2c3.8,0.9,6.9,3.6,8.2,7
			c0.1,0.2,0.3,0.8,0,1.5c-0.3,0.6-0.8,0.9-1.1,1l-8.5,3.9C49.3,160.3,48.6,160.6,47.9,160.6z"/>
	</g>
	<g>
		<path style="fill:#F4BA76;" d="M48.5,154.8c1.5-1.4,3-2.8,4.7-3.7c4-2.1,9.3-1.3,12.5,1.8c1.4,1.3,2.5,3.3,2,5.2
			c-0.4,1.5-1.6,2.5-2.7,3.5c-1.4,1.1-2.8,2.3-4.5,2.7c-2.4,0.5-4.9-0.8-6.9-2.2c-1.8-1.2-3.7-2.1-5.5-3.2
			C46.1,157.6,46.9,156.4,48.5,154.8z"/>
		<path d="M59.5,165.6c-2.6,0-4.9-1.4-6.6-2.5c-1-0.7-2.1-1.3-3.2-1.9c-0.8-0.4-1.5-0.8-2.2-1.3c-1.1-0.7-1.7-1.5-1.8-2.4
			c-0.2-1.4,0.9-2.6,2-3.6l0,0c1.6-1.5,3.1-3,5-3.9c4.4-2.3,10.3-1.5,13.9,2c2,1.9,2.9,4.3,2.3,6.4c-0.5,1.9-2,3.2-3.1,4.1
			c-1.3,1.1-3,2.5-5.1,2.9C60.3,165.6,59.9,165.6,59.5,165.6z M48.1,157.2c0,0,0.1,0.2,0.6,0.5c0.7,0.4,1.4,0.8,2.1,1.2
			c1.1,0.6,2.3,1.3,3.4,2c1.7,1.2,3.9,2.4,6,2c1.5-0.3,2.8-1.4,4-2.4c1.1-0.9,2.1-1.8,2.3-2.9c0.4-1.4-0.6-3-1.7-4
			c-2.9-2.8-7.6-3.5-11.1-1.6c-1.6,0.8-3,2.1-4.4,3.5l0,0C48.2,156.8,48.1,157.2,48.1,157.2L48.1,157.2z"/>
	</g>
</g>
<g>
	<path d="M21.7,100c-0.3,0-0.5-0.1-0.8-0.3c-3.7-3-6.9-3.1-10.1-3.1c-0.5,0-1,0-1.5,0c-0.7,0-1.2-0.6-1.2-1.3c0-0.7,0.6-1.2,1.3-1.2
		c0.5,0,1,0,1.5,0c3.4,0.1,7.2,0.1,11.6,3.7c0.5,0.4,0.6,1.2,0.2,1.7C22.4,99.9,22,100,21.7,100z"/>
	<path d="M19.3,104.6c0,5.4-4.3,9.7-9.6,9.7S0,110,0,104.6s4.3-6.7,9.6-6.7S19.3,99.2,19.3,104.6z"/>
</g>
<g>
	<path style="fill:#FFFFFF;" d="M33.5,49.8c-0.7,0-1.3-0.2-1.9-0.6c-0.1,0-0.1-0.1-0.2-0.1L31.2,49c-0.3-0.2-0.6-0.6-0.8-1.1
		c-0.2-0.5-0.2-0.9-0.3-1.3c0-0.2,0-0.4-0.1-0.5c-0.1-0.5-0.6-0.9-1.1-1.3c-0.6-0.5-1.2-1-1.6-1.9c-0.5-1-0.5-2.5,0.2-4.1
		c0.7-1.8,1.9-3,3.3-3.3c1.1-0.3,2-0.1,2.7,0.1c0.3,0.1,0.7,0.1,1.1,0.2c2.4,0.5,5.7,1.2,7.1,3.4c0.7,1.1,0.8,2.4,0.5,4
		c-0.4,1.9-2,3.6-4.4,4.6c-0.1,0-0.2,0.1-0.4,0.2c-0.2,0.1-0.4,0.2-0.6,0.3c0,0-0.1,0.1-0.2,0.1c-0.1,0.1-0.3,0.2-0.4,0.3
		c-0.2,0.2-0.3,0.3-0.5,0.5C35,49.6,34.2,49.8,33.5,49.8z M32.7,47.6c0.5,0.3,1.2,0.2,1.8-0.1c0.1-0.1,0.2-0.2,0.3-0.3
		c0.2-0.2,0.5-0.5,0.8-0.6c0.3-0.2,0.7-0.4,0.9-0.5c0.1,0,0.2-0.1,0.3-0.1c0.9-0.4,2.9-1.4,3.3-3.2c0.3-1,0.2-1.8-0.2-2.4
		c-1-1.5-3.8-2.1-5.8-2.5c-0.4-0.1-0.8-0.2-1.1-0.2c0,0,0,0,0,0c-0.7-0.2-1.2-0.2-1.7-0.1c-0.9,0.2-1.6,1.2-1.9,2.1
		c-0.4,1-0.5,1.9-0.2,2.5c0.2,0.4,0.6,0.8,1.1,1.2c0.7,0.6,1.5,1.2,1.8,2.3c0.1,0.4,0.1,0.7,0.1,1c0,0.3,0,0.5,0.1,0.6
		c0,0.1,0.1,0.1,0.1,0.2c0,0,0.1,0.2,0.2,0.2C32.6,47.5,32.7,47.6,32.7,47.6z M36.2,47.4L36.2,47.4L36.2,47.4z"/>
	<path style="fill:#FFFFFF;" d="M41.3,41.9c-0.5,0-0.9-0.3-1-0.8c-0.1-0.5,0.2-1,0.7-1.1c0-0.1,0.1-0.2,0.2-0.6
		c0.2-0.8,0.3-1.5,0.5-2.2c-0.1,0-0.2,0.1-0.2,0.1c-0.7,0.4-1.3,0.7-2.2,1.2c-0.5,0.3-1.1,0.1-1.4-0.4c-0.3-0.5-0.1-1.1,0.4-1.4
		c0.8-0.4,1.5-0.8,2.1-1.1c0.7-0.4,1.3-0.7,2.2-1.2c0.3-0.2,0.8-0.1,1.1,0.1c0.3,0.2,0.5,0.6,0.4,1c-0.3,1.4-0.6,2.8-0.9,4.3
		c-0.2,1.3-0.8,2-1.7,2.2C41.4,41.9,41.4,41.9,41.3,41.9z"/>
</g>
<path style="fill:#FFFFFF;" d="M46.6,52.9c-0.6,0-1-0.4-1-1c0-0.8,0-1.7,0.4-2.5c0.5-1.1,1.6-1.8,2.8-1.7c0.3,0,0.6,0.1,0.9,0.1
	c0.2,0,0.3,0.1,0.5,0.1c0.5,0,0.7-0.9,0.7-1c0-0.2,0.1-0.4,0.1-0.7c0.1-0.7,0.2-1.5,0.8-2.2c0.8-1,2.2-1.2,3.3-1.3
	c0.8-0.1,1.7-0.2,2.1-0.7c0.2-0.2,0.2-0.7,0.3-1.3c0-0.7,0.1-1.5,0.6-2.3c0.7-1.2,2-1.4,3-1.6c0.5-0.1,0.9-0.2,1.3-0.3
	c0.7-0.3,0.7-1.7,0.8-2.8c0-0.2,0-0.4,0-0.6c0-0.6,0.5-1,1.1-0.9c0.6,0,1,0.5,0.9,1.1c0,0.2,0,0.4,0,0.6c-0.1,1.5-0.2,3.6-1.9,4.5
	c-0.6,0.3-1.2,0.4-1.7,0.5c-0.9,0.2-1.4,0.3-1.7,0.7c-0.2,0.3-0.2,0.8-0.3,1.3c0,0.8-0.1,1.7-0.7,2.5c-0.9,1-2.2,1.2-3.3,1.4
	c-0.8,0.1-1.7,0.2-2.1,0.7c-0.2,0.3-0.3,0.6-0.3,1.2c0,0.3-0.1,0.6-0.1,0.9c-0.4,1.6-1.4,2.6-2.7,2.6c-0.4,0-0.7-0.1-0.9-0.1
	c-0.2-0.1-0.4-0.1-0.6-0.1c-0.4,0-0.6,0.2-0.8,0.5c-0.2,0.4-0.2,1.1-0.2,1.7C47.6,52.5,47.2,52.9,46.6,52.9z"/>
<path style="fill:#FFFFFF;" d="M46.3,33.2c-0.3,0-0.5-0.1-0.7-0.3c-0.4-0.4-0.4-1,0-1.4c1.1-1.1,2.4-2,4-2.8c0.8-0.3,1.4-0.6,2.1-1
	c0.5-0.3,1.1-0.1,1.4,0.4c0.3,0.5,0.1,1.1-0.4,1.4c-0.7,0.4-1.5,0.7-2.2,1C49,31.2,48,31.9,47,32.9C46.8,33.1,46.6,33.2,46.3,33.2z"
	/>
<path d="M37.8,55.8c-0.2,0-0.5-0.1-0.6-0.2c-0.4-0.4-0.5-1-0.1-1.4l26.9-31.4c0.4-0.4,1-0.5,1.4-0.1c0.4,0.4,0.5,1,0.1,1.4
	L38.6,55.5C38.4,55.7,38.1,55.8,37.8,55.8z"/>
<path d="M52.9,55c-0.2,0-0.5-0.1-0.7-0.2c-0.4-0.4-0.5-1-0.1-1.4l24.7-28.1c0.4-0.4,1-0.5,1.4-0.1c0.4,0.4,0.5,1,0.1,1.4L53.7,54.7
	C53.5,54.9,53.2,55,52.9,55z"/>
<path style="fill:#FFFFFF;" d="M24.2,56.4c-0.1,0-0.1,0-0.2,0c-0.5-0.1-0.9-0.6-0.8-1.2c0-0.2,0-0.4-0.2-0.6l-0.1-0.1
	c-0.3-0.3-0.7-0.7-0.9-1.3c-0.2-0.5-0.1-0.9,0-1.3c0-0.2,0.1-0.3,0-0.4c0,0,0-0.1,0-0.1c0-0.1-0.2-0.2-0.3-0.3
	c-0.2-0.2-0.3-0.3-0.4-0.5c0,0-0.1-0.1-0.1-0.1c-0.3-0.6-0.3-1.2-0.4-1.7c0-0.6-0.1-0.7-0.2-0.8c-0.1-0.1-0.2-0.1-0.4-0.2
	c-0.3-0.1-0.7-0.3-1-0.6c-0.4-0.4-0.4-1,0-1.4c0.4-0.4,1-0.4,1.4,0c0.1,0,0.2,0.1,0.3,0.2c0.3,0.1,0.6,0.2,0.9,0.5
	c0.9,0.7,0.9,1.7,1,2.3c0,0.3,0,0.6,0.1,0.7c0.1,0.1,0.1,0.1,0.2,0.2c0.3,0.3,0.7,0.7,0.8,1.3c0.2,0.5,0.1,1,0,1.3
	c0,0.2-0.1,0.3,0,0.4c0.1,0.1,0.2,0.3,0.3,0.4l0.2,0.2c0,0,0.1,0.1,0.1,0.1c0.6,0.7,0.8,1.5,0.6,2.3C25.1,56.1,24.7,56.4,24.2,56.4z
	"/>
<path d="M29.9,56.7c-0.4,0-0.7-0.2-0.9-0.5L21.3,41c-0.2-0.5-0.1-1.1,0.4-1.3c0.5-0.2,1.1-0.1,1.3,0.4l7.7,15.2
	c0.2,0.5,0.1,1.1-0.4,1.3C30.2,56.7,30.1,56.7,29.9,56.7z"/>
<path d="M22.4,60.1c-0.3,0-0.7-0.2-0.9-0.5l-6.3-10.9c-0.3-0.5-0.1-1.1,0.4-1.4c0.5-0.3,1.1-0.1,1.4,0.4l6.3,10.9
	c0.3,0.5,0.1,1.1-0.4,1.4C22.7,60.1,22.6,60.1,22.4,60.1z"/>
</svg>
