<svg id="레이어_1" data-name="레이어 1" xmlns="http://www.w3.org/2000/svg" xmlns:xlink="http://www.w3.org/1999/xlink" viewBox="0 0 431.69 276.37"><defs><style>.cls-1{fill:none;}.cls-2{opacity:0.2;}.cls-3{fill:#d39200;}.cls-4,.cls-9{fill:#fff;}.cls-5{fill:#0085c9;}.cls-6,.cls-8{fill:#00a2f6;}.cls-10,.cls-11,.cls-6,.cls-9{fill-rule:evenodd;}.cls-7{fill:#673101;}.cls-10{fill:#ffc0bb;}.cls-12{fill:#231815;}.cls-13{fill:#fc5656;}.cls-14{fill:#005b50;}.cls-15{fill:#26d5c1;}.cls-16{fill:#1a6d8d;}.cls-17{fill:#ff9580;}.cls-18{fill:#ad5514;}.cls-19{opacity:0.5;}.cls-20{fill:#6b6b6b;}.cls-21{clip-path:url(#clip-path);}.cls-22{fill:#e0ca9d;}.cls-23{fill:#bca06f;}.cls-24{fill:#8fedce;}.cls-25{clip-path:url(#clip-path-2);}.cls-26{fill:#f9dca0;}</style><clipPath id="clip-path"><rect class="cls-1" x="79.33" y="196.86" width="68.83" height="33.41" rx="3.94"/></clipPath><clipPath id="clip-path-2"><path class="cls-1" d="M331.39,112.08c0,39.56-16,58.72-38.65,58.72s-40.93-28-40.93-62.56S269,48.47,291.6,48.47,331.39,77.53,331.39,112.08Z"/></clipPath></defs><g class="cls-2"><path class="cls-3" d="M65.39,213.15s121.71-1.36,130.78-1.1,121.48-6,135.9-6,56.24,8.56,63.54,20.48c8.37,13.66-44.42,23.95-97.69,23.95s-67.27-4.91-112.86-1.44c-46.29,3.53-93.68,6.74-114.83-3.35S13.64,224.51,65.39,213.15Z"/></g><path class="cls-4" d="M209.73,149.05c-5-4-8.82-8.88-13-14.08-1.82-2.29-8.32-10.76-11.42-5.19-1.12,2,.25,5.18.9,7.15a46.57,46.57,0,0,0,6,12,52.73,52.73,0,0,0,10.11,10.76A38.26,38.26,0,0,1,209.73,149.05Z"/><path class="cls-5" d="M230.32,157.74l-.24,0a45.61,45.61,0,0,1-5.91-1.24,38.91,38.91,0,0,1-7.6-3c-1.22-.63-2.44-1.34-3.69-2.14a37.23,37.23,0,0,1-3.15-2.27,38.26,38.26,0,0,0-7.36,10.62,63.77,63.77,0,0,0,5.78,4.18c5.72,3.63,12.53,7.4,19.4,8.36a9.57,9.57,0,0,0,9.08-3.76,10.26,10.26,0,0,0,1.09-1.85c1-2.19,1.1-4.81-.41-6.61a4.58,4.58,0,0,0-1-.87C234.6,158,232.32,158.05,230.32,157.74Z"/><path d="M238.4,162.55a7.57,7.57,0,0,1-.68,4,10.26,10.26,0,0,1-1.09,1.85,9.59,9.59,0,0,1-9.08,3.76c-6.87-1-13.68-4.73-19.4-8.36a63.77,63.77,0,0,1-5.78-4.18,52.73,52.73,0,0,1-10.11-10.76,46.57,46.57,0,0,1-6-12,24.2,24.2,0,0,1-1.26-4.4,4.43,4.43,0,0,1,.36-2.75c3.1-5.57,9.6,2.9,11.42,5.19,4.14,5.2,7.93,10.11,13,14.08a37.23,37.23,0,0,0,3.15,2.27c1.25.8,2.47,1.51,3.69,2.14a38.91,38.91,0,0,0,7.6,3,45.61,45.61,0,0,0,5.91,1.24l.24,0c2,.31,4.28.28,6,1.38a4.58,4.58,0,0,1,1,.87,4.93,4.93,0,0,1,1.09,2.56m1.83-.23a6.67,6.67,0,0,0-1.51-3.52,6.17,6.17,0,0,0-1.42-1.22,11.8,11.8,0,0,0-5.35-1.49c-.46-.05-.91-.1-1.35-.17l-.26,0a44.47,44.47,0,0,1-5.67-1.18,38.12,38.12,0,0,1-7.25-2.87c-1.17-.61-2.33-1.28-3.55-2.06a36.16,36.16,0,0,1-3-2.17c-4.58-3.62-8.17-8.14-12-12.92l-.68-.86-.17-.2c-3.08-3.89-6.73-7.83-10.38-7.53a4.88,4.88,0,0,0-3.93,2.8,6.16,6.16,0,0,0-.58,3.88,19.77,19.77,0,0,0,1.08,4l.26.77A48.44,48.44,0,0,0,190.74,150a54.32,54.32,0,0,0,10.47,11.14,62.48,62.48,0,0,0,5.95,4.3c5.46,3.47,12.69,7.59,20.13,8.64a11.38,11.38,0,0,0,10.83-4.5,12,12,0,0,0,1.28-2.18,9.56,9.56,0,0,0,.83-5Z"/><path class="cls-4" d="M204.84,191.45c-1.46-.13-3.5,1.42-4.24,5.06s1.68,7.11,3.13,7.24l13.7,1.33,1.11-12.3Z"/><path class="cls-6" d="M238.36,168.59c-3.08-1.84-8.27-.24-10.91,1.76A20.66,20.66,0,0,0,219.36,186s0,.28,0,.34a27.94,27.94,0,0,0,.72,6.65l-2.75-.32c-2-.22-2.84,2.85-3.26,6.24-.38,3-.1,5.88,1.91,6.1l14.32,1.64a23.85,23.85,0,0,0,8.6,2.34l3.32-.6c2.68-.48,5.73-5.42,5.24-8.1l-.32-4.52-2-15.24C244.28,175.92,242.86,171.28,238.36,168.59Z"/><path d="M235,167.78a6.41,6.41,0,0,1,3.32.81c4.5,2.69,5.92,7.33,6.75,11.9l2,15.24.32,4.52c.49,2.68-2.56,7.62-5.24,8.1l-3.32.6a23.85,23.85,0,0,1-8.6-2.34L216,205l-.17-.05-12.06-1.17c-1.45-.13-3.88-3.59-3.13-7.24.71-3.5,2.63-5.06,4.06-5.06h.18l12.3,1.2h0l.14,0h0l2.75.32a27.94,27.94,0,0,1-.72-6.65c0-.06,0-.34,0-.34a20.66,20.66,0,0,1,8.09-15.61,13.69,13.69,0,0,1,7.59-2.57m0-1.85a15.55,15.55,0,0,0-8.7,2.95,22.53,22.53,0,0,0-8.82,17l0,.32a30.69,30.69,0,0,0,.29,4.61l-.27,0h-.39L205,189.62l-.36,0c-2.25,0-4.95,2-5.87,6.55a9.53,9.53,0,0,0,1.67,7.36,4.65,4.65,0,0,0,3.11,2.08l11.84,1.15.35.07,14,1.6a26.09,26.09,0,0,0,9,2.38l.24,0,.24,0,3.33-.61c3.81-.68,7.28-6.66,6.75-10.13l-.32-4.44v-.11l-2-15.23c-.88-4.86-2.46-10.16-7.63-13.25a8.23,8.23,0,0,0-4.27-1.07Z"/><path class="cls-4" d="M141.9,79.83a2,2,0,0,1-1.8-1c-2.31-3.82-1.34-10.1.88-13.73a12.27,12.27,0,0,1,5.82-4.76A14.79,14.79,0,0,1,152.73,59c4.08,0,7.44,1.94,11.69,4.4l1,.55a7.1,7.1,0,0,1,3.53,4.72,7,7,0,0,1-1.31,5.61,8.8,8.8,0,0,1-7.09,3.44h0a8.8,8.8,0,0,1-4.3-1.11c-.75-.42-1.45-.84-2.1-1.24-1.68-1-3.13-1.89-4.14-1.89a1.72,1.72,0,0,0-1.44.87,5.57,5.57,0,0,0-.86,1.89,3.25,3.25,0,0,1-2.5,2.74c-.44.11-.86.26-1.25.39A6.61,6.61,0,0,1,141.9,79.83Z"/><path d="M152.73,59.92c4.12,0,7.61,2.19,12.19,4.82a6,6,0,0,1,1.94,9,8.1,8.1,0,0,1-10.2,2.08c-2.86-1.61-5-3.25-6.69-3.25a2.66,2.66,0,0,0-2.18,1.23c-1.45,1.93-.68,3.76-2.84,4.3a18.59,18.59,0,0,1-3,.83,1.1,1.1,0,0,1-1-.57c-2.08-3.44-1.19-9.38.89-12.77a11.38,11.38,0,0,1,5.4-4.39,13.71,13.71,0,0,1,5.56-1.26m0-1.85a15.71,15.71,0,0,0-6.3,1.41,13.21,13.21,0,0,0-6.23,5.12c-2.37,3.87-3.38,10.58-.89,14.7a2.91,2.91,0,0,0,2.59,1.45,7.2,7.2,0,0,0,2.32-.52c.37-.12.76-.26,1.17-.36a4.16,4.16,0,0,0,3.16-3.37,4.66,4.66,0,0,1,.72-1.61c.37-.49.57-.49.7-.49.76,0,2.17.85,3.66,1.75.66.4,1.37.83,2.13,1.26a9.93,9.93,0,0,0,12.59-2.59,7.87,7.87,0,0,0,1.46-6.35,8,8,0,0,0-4-5.33l-1-.55c-4.2-2.43-7.83-4.52-12.15-4.52Z"/><path class="cls-7" d="M154.56,71.87a3.21,3.21,0,0,1,1.66-.28,2.76,2.76,0,0,1-1.7-1.24,2.54,2.54,0,0,1,1.28-3.55,3.28,3.28,0,0,1,2.1-.24,2.69,2.69,0,0,1-1.5-1.14c-.74-1.27.3-2.88,1.75-3.58a9.12,9.12,0,0,1,.91-.17,21.13,21.13,0,0,1,5.86,3.06,6,6,0,0,1,1.94,9,8.07,8.07,0,0,1-10.2,2.08c-1-.56-2.92-1.66-3.52-2-.86-.5.43-1.44,1.42-1.91"/><path class="cls-8" d="M161.43,74.14h0Z"/><path class="cls-8" d="M159.48,225.66c-2.75,0-6.33,0-7.35-.11-18.55-1.51-31.21-9-36.61-21.73a47.36,47.36,0,0,1-3.59-17.31c0-.41-.23-10,0-14.88.1-2,.42-4.09.75-6.31.69-4.55,1.4-9.26.19-13.08a26.67,26.67,0,0,0-2.57-5.16c-.66-1.13-1.35-2.29-1.89-3.43a56.72,56.72,0,0,1-5.08-31.13c1.22-10.54,5.22-19.85,11-25.56,9.33-9.25,20.76-15.19,31.35-16.31l3.86-.41a37.12,37.12,0,0,1,4.26-.23c9.62,0,20.22,3.36,29.83,9.48,6.84,4.34,12.73,12.59,16.17,22.63a57.67,57.67,0,0,1,1.43,33.1,36,36,0,0,0-1.23,9,17.26,17.26,0,0,0,1.26,5.29c.27.78.53,1.55.76,2.33.64,2.2,1.38,4.43,2.1,6.58a87.15,87.15,0,0,1,3.78,13.79c.21,1.29.35,6.1.49,11.32,0,1.34.07,2.42.09,2.94-.61,9.27-3.43,17.9-7.55,23.22-6.9,8.9-19.32,14.7-34.08,15.9C165.82,225.64,162.24,225.66,159.48,225.66Z"/><path d="M153.79,71.11c10.16,0,20.7,3.88,29.24,9.31,7.56,4.81,12.85,13.71,15.71,22.06a56.19,56.19,0,0,1,1.4,32.48,36.54,36.54,0,0,0-1.25,9.24c0,2.75,1.29,5.27,2.06,7.91,2,6.73,4.73,13.29,5.85,20.23.29,1.8.48,12.13.56,14.13-.52,7.92-2.85,16.74-7.31,22.5-7.73,10-21.16,14.49-33.3,15.48-.89.07-4.08.11-7.27.11s-6.37,0-7.26-.11c-14.73-1.2-29.51-6.54-35.68-21.06A46.68,46.68,0,0,1,113,186.47s-.23-9.85,0-14.79c.31-6.08,2.78-13.81.89-19.78-.92-3-3.17-5.9-4.51-8.73a55.9,55.9,0,0,1-5-30.52c1-8.77,4.29-18.6,10.65-24.9,8.17-8.1,19.29-14.8,30.68-16l.21,0,3.66-.39a38,38,0,0,1,4.14-.23m0-2.21a39.55,39.55,0,0,0-4.39.24l-3.65.39-.24,0c-10.8,1.13-22.46,7.19-32,16.62-5.92,5.87-10,15.43-11.29,26.22a57.72,57.72,0,0,0,5.18,31.72c.56,1.18,1.26,2.37,1.93,3.52a25.23,25.23,0,0,1,2.47,4.93c1.13,3.58.44,8.16-.23,12.59-.33,2.25-.65,4.37-.76,6.41-.25,5,0,14.55,0,15a48.74,48.74,0,0,0,3.68,17.73c5.57,13.1,18.55,20.85,37.54,22.4,1.05.08,4.53.11,7.44.11s6.4,0,7.44-.11c15.08-1.23,27.79-7.19,34.88-16.34,4.31-5.56,7.14-14.2,7.77-23.7v-.24c0-.51,0-1.58-.08-2.92-.14-5.26-.28-10.1-.5-11.47a89.2,89.2,0,0,0-3.83-14c-.71-2.14-1.45-4.36-2.09-6.54-.23-.82-.51-1.61-.78-2.38a16.5,16.5,0,0,1-1.19-5,35.06,35.06,0,0,1,1.19-8.68,58.68,58.68,0,0,0-1.45-33.72c-3.52-10.27-9.58-18.73-16.62-23.21-9.8-6.22-20.6-9.65-30.43-9.65Z"/><path class="cls-4" d="M105.23,92a8.17,8.17,0,0,1-4.29-1.22,8.35,8.35,0,0,1-2.81-11.35c4-6.71,8-12.27,16.12-12.3a12.1,12.1,0,0,1,7.42,2.27c4.49,3.32,6.57,7,6.36,11.11-.12,2.18-3,4-5,4.44a4.12,4.12,0,0,1-.82.08,3.5,3.5,0,0,1-2.67-1.39,7.8,7.8,0,0,0-1.61-1.33,2.19,2.19,0,0,0-1.11-.39c-1.07,0-2,1.72-3.28,3.9-.39.7-.81,1.45-1.28,2.22A8.18,8.18,0,0,1,105.23,92Z"/><path d="M114.32,68a11.24,11.24,0,0,1,6.8,2.09c3.45,2.55,6.21,5.85,6,10.32C127,82,124.7,83.65,122.87,84a3.14,3.14,0,0,1-.65.07c-1.57,0-1.84-1.41-3.8-2.59a3.06,3.06,0,0,0-1.58-.52c-2.07,0-3.23,3.07-5.36,6.56A7.29,7.29,0,0,1,101.42,90a7.42,7.42,0,0,1-2.5-10.1c4-6.71,7.71-11.82,15.33-11.85h.07m0-1.84h-.08c-8.62,0-12.76,5.79-16.9,12.74a9.28,9.28,0,0,0,3.12,12.62,9.15,9.15,0,0,0,12.6-3c.47-.78.9-1.53,1.3-2.24.77-1.37,1.94-3.44,2.47-3.44a1.39,1.39,0,0,1,.64.26,6.88,6.88,0,0,1,1.42,1.19,4.4,4.4,0,0,0,3.33,1.67,5.1,5.1,0,0,0,1-.11c2.31-.44,5.58-2.53,5.73-5.29.23-4.49-2-8.38-6.73-11.9a13,13,0,0,0-7.9-2.45Z"/><path class="cls-7" d="M111.49,82.54a2.85,2.85,0,0,0-1.6.46,2.93,2.93,0,0,0,.93-2A3,3,0,0,0,108,77.89a2.89,2.89,0,0,0-2,.7,2.94,2.94,0,0,0,.79-1.84c.06-1.64-1.62-2.83-3.24-2.9-.15,0-.75.21-.9.23a21.21,21.21,0,0,0-3.76,5.78A7.41,7.41,0,0,0,101.43,90a7.29,7.29,0,0,0,10-2.44c.62-1,1.81-3,2.18-3.65.53-.9-1.06-1.29-2.17-1.33"/><path class="cls-9" d="M161,147.32c-13.61,0-24.37-3.94-29.54-10.8a58.3,58.3,0,0,1-7.64-15c-3.57-11.24-1.47-22.42.15-26.76C126.14,89,131.22,81,143.33,75.37l.18-.08a36.42,36.42,0,0,1,13.78-3.62,50.33,50.33,0,0,1,5.07-.27,46.25,46.25,0,0,1,7.37.61c5.81.93,13.84,3.19,19.07,8.7a29.38,29.38,0,0,1,5.6,7.66c.12.28.27.58.42.89s.46.93.67,1.42c3.07.81,6.27,1.85,8.87,4.79a27.55,27.55,0,0,1,5.06,8.1,26.7,26.7,0,0,1,1.08,14.81c-2.72,13.52-14.27,22.43-24.51,25.27A94.31,94.31,0,0,1,161,147.32Z"/><path d="M162.36,72.33a44.67,44.67,0,0,1,7.22.59c6.76,1.08,13.95,3.58,18.56,8.42a29.41,29.41,0,0,1,5.42,7.42c.39.86.95,1.85,1.33,2.89l.35-.09c3.31.88,6.11,1.9,8.42,4.52a26.87,26.87,0,0,1,4.9,7.82,25.78,25.78,0,0,1,1,14.3c-2.47,12.27-12.9,21.53-23.84,24.56A93.27,93.27,0,0,1,161,146.4c-13.65,0-23.91-3.93-28.8-10.43a56.93,56.93,0,0,1-7.5-14.74c-3.38-10.62-1.63-21.42.13-26.16,4.64-12.45,16.51-17.76,19-18.94a35.42,35.42,0,0,1,13.49-3.54,47.89,47.89,0,0,1,5-.26m0-1.85v0c-1.65,0-3.34.09-5.16.27a37.32,37.32,0,0,0-14.08,3.71l-.18.08c-12.39,5.78-17.61,14-19.8,19.89-1.65,4.44-3.81,15.87-.16,27.36a58.29,58.29,0,0,0,7.79,15.29c5.34,7.09,16.37,11.16,30.27,11.16a95,95,0,0,0,25.2-3.71c10.51-2.91,22.36-12.07,25.16-26a27.65,27.65,0,0,0-1.12-15.34,28.63,28.63,0,0,0-5.23-8.37c-2.64-3-5.82-4.13-8.89-5-.17-.37-.34-.72-.5-1s-.3-.59-.42-.87a30.45,30.45,0,0,0-5.77-7.92c-5.41-5.69-13.64-8-19.6-9a46.75,46.75,0,0,0-7.51-.62Z"/><path class="cls-10" d="M170,112.87a11.93,11.93,0,1,1-15.36-7.39A12.06,12.06,0,0,1,170,112.87"/><path class="cls-10" d="M205.37,98.93c-1.21-1.92-7.19-7.79-9.19-4.43-3.05,5.1,2.32,12.74,6,16.28,1.45,1.39,3.7,2.83,5.77,1.67,1.17-.65.82-3.22.71-4.1A23,23,0,0,0,205.37,98.93Z"/><path class="cls-11" d="M189.46,103a1.87,1.87,0,0,1-1.64,2,1.64,1.64,0,1,1,1.64-2"/><path class="cls-11" d="M191.21,100.2h0a2.29,2.29,0,0,1-2.94-1.34l-.14-.31a2.18,2.18,0,1,1,4-1.71l.13.3a2.3,2.3,0,0,1-1,3.06"/><path class="cls-11" d="M173.25,106.09h0a2.59,2.59,0,0,1-3.31-1.57l-.13-.35a2.56,2.56,0,1,1,4.8-1.78l.12.35a2.58,2.58,0,0,1-1.48,3.35"/><path class="cls-12" d="M196.39,106.73a1,1,0,0,0-1.47,0,1,1,0,0,0,0,1.46,3.51,3.51,0,0,1-.55,2.07,2.54,2.54,0,0,1-2,1.5,4.93,4.93,0,0,1-3.93-2,1,1,0,0,0-.77-.63,1.05,1.05,0,0,0-1.2.85,7,7,0,0,1-3.56,4.92,7.5,7.5,0,0,1-6.23.61,5.23,5.23,0,0,1-2-1.17,1,1,0,0,0-.44-1.31,1,1,0,0,0-1.42.38,1.81,1.81,0,0,0-.15,1.54c.45,1.27,2.21,2.11,3.22,2.5a8.68,8.68,0,0,0,3.33.57,10.07,10.07,0,0,0,4.68-1.31,9.19,9.19,0,0,0,4-4.49,6.53,6.53,0,0,0,4.2,1.6l.42,0a4.63,4.63,0,0,0,3.65-2.61C196.65,110.27,197.63,108,196.39,106.73Z"/><path class="cls-13" d="M186.08,123.21l-17.77,33.3h40.53l-17.77-33.3A2.83,2.83,0,0,0,186.08,123.21Z"/><path class="cls-14" d="M169.53,156h38.12a1.31,1.31,0,0,1,1.31,1.31v5.12a1.84,1.84,0,0,1-1.84,1.84H170.06a1.84,1.84,0,0,1-1.84-1.84v-5.12A1.31,1.31,0,0,1,169.53,156Z"/><path d="M207.71,164.68H169.44a2.23,2.23,0,0,1-2.23-2.23l.08-5.88a3.82,3.82,0,0,1,.45-1.74l17.45-32.7a3.83,3.83,0,0,1,6.76,0l17.71,33.2a1.82,1.82,0,0,1,.29,1v6.16A2.24,2.24,0,0,1,207.71,164.68ZM188.57,122.1a1.81,1.81,0,0,0-1.62,1l-17.45,32.7a1.86,1.86,0,0,0-.21.83l-.08,5.86a.22.22,0,0,0,.23.22h38.27a.23.23,0,0,0,.24-.23l0-6.19,0,0-17.73-33.23A1.8,1.8,0,0,0,188.57,122.1Z"/><ellipse cx="185.45" cy="135.82" rx="1.1" ry="1.7"/><ellipse cx="193.3" cy="138.6" rx="1.1" ry="1.7"/><ellipse cx="188.59" cy="144.09" rx="1.1" ry="1.7"/><ellipse cx="180.83" cy="149.4" rx="1.1" ry="1.7"/><ellipse cx="196.86" cy="150.11" rx="1.1" ry="1.7"/><path class="cls-4" d="M175.61,209.49c-1.36-.52-3.75.41-5.46,3.71s-.33,7.29,1,7.82l19.65,7.45L195.26,217Z"/><path class="cls-6" d="M221,199.11c-2.46-2.61-7.9-2.49-11-1.29a20.61,20.61,0,0,0-12.06,12.79l-.11.32a27.86,27.86,0,0,0-1.13,6.59l-7.56-2.93c-1.88-.76-4.52.92-5.85,4.07-1.19,2.79-.7,6.66,1.17,7.43l18.33,7.37a24.08,24.08,0,0,0,7.62,4.61l3.36.33c2.71.27,7-3.64,7.27-6.35l.92-4.44,2.24-15.2C224.64,207.78,224.55,202.93,221,199.11Z"/><path d="M208,233.07a1.1,1.1,0,0,1-1.08-.87c-.18-.87-4.43-21.34,3.77-28.87a1.11,1.11,0,0,1,1.5,1.64c-7.28,6.67-3.15,26.57-3.11,26.77a1.1,1.1,0,0,1-.85,1.31A.86.86,0,0,1,208,233.07Z"/><path d="M214.72,197c2.39,0,4.81.59,6.24,2.11,3.59,3.82,3.68,8.67,3.22,13.3l-2.24,15.2-.92,4.44c-.26,2.62-4.28,6.36-7,6.36h-.28l-3.36-.33a24.08,24.08,0,0,1-7.62-4.61l-18.33-7.37c-.05,0-.09-.07-.13-.09l-13.13-5c-1.36-.53-2.74-4.52-1-7.82,1.42-2.74,3.3-3.84,4.68-3.84a2.13,2.13,0,0,1,.78.13l13.3,5a1.6,1.6,0,0,1,.21.05l3.45,1.34,2.69,1v0l1.43.55a27.86,27.86,0,0,1,1.13-6.59l.11-.32A20.61,20.61,0,0,1,210,197.82a13.47,13.47,0,0,1,4.74-.82m0-1.85a15.5,15.5,0,0,0-5.41.95,22.51,22.51,0,0,0-13.14,14l-.11.31a28.49,28.49,0,0,0-1,4.54l-1.86-.7-3.43-1.33a2,2,0,0,0-.36-.11l-13.16-5a4,4,0,0,0-1.44-.26c-2.38,0-4.75,1.81-6.32,4.84a9.53,9.53,0,0,0-.41,7.54,4.65,4.65,0,0,0,2.42,2.85l12.93,4.9a2,2,0,0,0,.3.16l18,7.25a25.87,25.87,0,0,0,7.95,4.74l.24.09.24,0,3.36.34.46,0c3.56,0,8.37-4.34,8.81-7.92l.91-4.36v-.1L226,212.67c.48-4.91.42-10.44-3.71-14.83-1.63-1.73-4.32-2.69-7.58-2.69Z"/><path class="cls-4" d="M180.48,158.24c-3.18-.41-7.22,2.12-9.87,3.57-5.25,2.88-9.6,8.48-16,4.87a17.62,17.62,0,0,1-5.71-5.9,43.7,43.7,0,0,0-4-4.89c-2.22-2.45-9.05-9.4-11.8-4.14-.82,1.58-.11,3.53.43,5.13a56.86,56.86,0,0,0,7.34,14.68c2.88,4.09,6.31,8.06,10.76,10.4,5.62,2.94,11.33,1.95,16.37-1.52a45.86,45.86,0,0,0,7.72-6.49"/><path class="cls-5" d="M178.75,151.27c-8.14,10.54-21.55,15.89-23,16.34-4.4,3.77.36,16.66,5.14,15.87C171,181.82,185,170.17,187.15,168c4.4-4.37,6.55-10.85,5.58-14.7-.79-3.13-2.81-5.3-5.75-5.4C184.33,147.83,180.31,149.25,178.75,151.27Z"/><path d="M186.72,147.92H187c2.94.1,5,2.27,5.75,5.4,1,3.85-1.18,10.33-5.58,14.7-2.07,2.05-15.06,12.83-25,15.17l-.26.06c-.34.07-.68.16-1,.22h-.17a15.38,15.38,0,0,1-2.34.19,14.39,14.39,0,0,1-6.75-1.71c-4.45-2.34-7.88-6.31-10.76-10.4a56.86,56.86,0,0,1-7.34-14.68c-.54-1.6-1.25-3.55-.43-5.13a3.12,3.12,0,0,1,2.85-1.92c3.17,0,7.31,4.25,9,6.06a43.7,43.7,0,0,1,4,4.89,17.62,17.62,0,0,0,5.71,5.9,8.77,8.77,0,0,0,1.66.73c2.92-1.1,14.93-6.39,22.46-16.14,1.51-2,5.32-3.35,8-3.35m0-1.84c-3,0-7.49,1.55-9.43,4.06-7.06,9.14-18.22,14.15-21,15.3a7.08,7.08,0,0,1-.73-.36,16.13,16.13,0,0,1-5.09-5.33,41.32,41.32,0,0,0-3.93-4.81l-.25-.28c-2.75-3-6.77-6.68-10.31-6.68a5,5,0,0,0-4.49,2.92c-1.15,2.21-.34,4.62.25,6.38l.06.19a58.26,58.26,0,0,0,7.58,15.15c2.4,3.4,6.18,8.23,11.41,11a16.22,16.22,0,0,0,7.61,1.92,16.93,16.93,0,0,0,2.45-.18H161l.18,0,.81-.17.29-.07.34-.07c10.75-2.54,24.17-14,25.83-15.65,4.66-4.63,7.27-11.71,6.07-16.46-1-4.12-3.83-6.66-7.47-6.8Z"/><path class="cls-15" d="M40.6,136.41c-1.86,0-3.34-.59-4-1.58a2.44,2.44,0,0,1,0-2.45c.91-2,2.95-3,5.89-3a14.17,14.17,0,0,1,2.45.23L47.37,120l-7.29-1.67-3.19,8.43c-1.31,2.32-4.29,3.36-6.51,3.36a4,4,0,0,1-3.1-1.1,2.23,2.23,0,0,1-.49-1.84c.38-2.46,2.94-3.82,7.22-3.82.64,0,1.17,0,1.51.06l2.37-8.68a.46.46,0,0,1,.45-.34h.06L51.65,116a.46.46,0,0,1,.39.58l-4.9,16.84a.31.31,0,0,1-.08.15,8.36,8.36,0,0,1-6.46,2.84Z"/><path class="cls-16" d="M38.34,114.82l13.26,1.64-4.9,16.83A7.91,7.91,0,0,1,40.6,136c-2.57,0-4.6-1.2-3.59-3.38s3.5-2.72,5.47-2.72a13.35,13.35,0,0,1,2.8.3l2.66-10.54-8.15-1.85-3.33,8.79c-1.13,2-3.88,3.07-6.08,3.07-1.89,0-3.38-.78-3.13-2.41.45-3,4.36-3.43,6.76-3.43a16.2,16.2,0,0,1,1.86.1l2.47-9.06m0-.93a.93.93,0,0,0-.89.68l-2.27,8.32c-.32,0-.72,0-1.17,0-4.54,0-7.26,1.49-7.67,4.21a2.65,2.65,0,0,0,.59,2.21,4.46,4.46,0,0,0,3.45,1.26c2.35,0,5.52-1.11,6.88-3.54l.06-.12,3-8,6.44,1.47-2.22,8.78a14.55,14.55,0,0,0-2.11-.16c-3.14,0-5.32,1.13-6.31,3.26a2.86,2.86,0,0,0,.07,2.9c.72,1.14,2.31,1.79,4.36,1.79a8.86,8.86,0,0,0,6.83-3,1.2,1.2,0,0,0,.16-.32l4.89-16.83a.89.89,0,0,0-.11-.76.91.91,0,0,0-.66-.41L38.45,113.9Z"/><path class="cls-17" d="M80.1,157.49c-1.77.6-3.38.52-4.3-.22a2.44,2.44,0,0,1-.83-2.33c.23-2.16,1.84-3.81,4.65-4.77A14.22,14.22,0,0,1,82,149.6l-.8-10-7.49.77-.32,9.07c-.49,2.65-3,4.6-5.12,5.32a4.07,4.07,0,0,1-3.31,0,2.25,2.25,0,0,1-1.06-1.61c-.44-2.47,1.56-4.59,5.64-6,.62-.21,1.14-.35,1.47-.44l-.55-9a.45.45,0,0,1,.31-.47l.06,0L84,134.43a.48.48,0,0,1,.38.09.52.52,0,0,1,.18.35l.78,17.64a.57.57,0,0,1,0,.18,8.45,8.45,0,0,1-5.25,4.8Z"/><path class="cls-18" d="M71,137.62l13.18-2.73.78,17.64a8,8,0,0,1-5,4.52c-2.45.83-4.78.34-4.52-2.06s2.46-3.74,4.34-4.37a12.82,12.82,0,0,1,2.76-.62l-.87-10.91-8.37.86L73,149.42c-.43,2.27-2.71,4.18-4.81,4.9-1.8.61-3.47.35-3.77-1.29-.53-3,3.06-4.68,5.34-5.45a16.26,16.26,0,0,1,1.81-.52L71,137.62m-.3-.88a.93.93,0,0,0-.63.93l.53,8.68c-.31.08-.7.2-1.13.34-4.32,1.47-6.44,3.78-6,6.5a2.71,2.71,0,0,0,1.28,1.93,4.52,4.52,0,0,0,3.69.08c2.25-.77,4.91-2.85,5.43-5.61a.57.57,0,0,0,0-.13l.31-8.67,6.62-.68.73,9.1a14.48,14.48,0,0,0-2.07.52c-3,1-4.71,2.8-5,5.16a2.88,2.88,0,0,0,1,2.74c1.06.85,2.79,1,4.74.3a8.91,8.91,0,0,0,5.54-5.09,1,1,0,0,0,0-.35l-.78-17.64a.92.92,0,0,0-1.12-.87l-13.18,2.73-.11,0Z"/><ellipse cx="69.01" cy="105.62" rx="4.02" ry="2.01" transform="translate(-22.37 18.63) rotate(-13.25)"/><rect x="70.06" y="92.82" width="1.56" height="12.91" rx="0.64" transform="translate(-20.87 18.88) rotate(-13.25)"/><ellipse cx="49.95" cy="175.93" rx="4.02" ry="2.01" transform="translate(-61.66 31.05) rotate(-21.76)"/><rect x="50.05" y="162.93" width="1.56" height="12.91" rx="0.64" transform="matrix(0.93, -0.37, 0.37, 0.93, -59.17, 30.91)"/><rect x="76.47" y="193.52" width="74.34" height="41.22" rx="6.21"/><g class="cls-19"><rect class="cls-20" x="79.33" y="196.86" width="68.83" height="33.41" rx="3.94"/></g><g class="cls-21"><rect x="46.47" y="190.44" width="82.25" height="1" transform="translate(-108.96 116.77) rotate(-44.68)"/><rect x="49.87" y="193.67" width="82.25" height="1" transform="translate(-110.24 120.1) rotate(-44.68)"/><rect x="53.28" y="196.9" width="82.25" height="1" transform="translate(-111.53 123.43) rotate(-44.68)"/><rect x="56.69" y="200.13" width="82.25" height="1" transform="translate(-112.81 126.76) rotate(-44.68)"/><rect x="60.09" y="203.35" width="82.25" height="1" transform="translate(-114.1 130.09) rotate(-44.68)"/><rect x="63.5" y="206.58" width="82.25" height="1" transform="translate(-115.38 133.42) rotate(-44.68)"/><rect x="66.9" y="209.81" width="82.25" height="1" transform="translate(-116.67 136.74) rotate(-44.68)"/><rect x="70.31" y="213.04" width="82.25" height="1" transform="translate(-117.95 140.07) rotate(-44.68)"/><rect x="73.72" y="216.27" width="82.25" height="1" transform="translate(-119.24 143.4) rotate(-44.68)"/><rect x="77.12" y="219.49" width="82.25" height="1" transform="translate(-120.52 146.73) rotate(-44.68)"/><rect x="80.53" y="222.72" width="82.25" height="1" transform="translate(-121.81 150.06) rotate(-44.68)"/><rect x="83.94" y="225.95" width="82.25" height="1" transform="translate(-123.09 153.38) rotate(-44.68)"/><rect x="87.34" y="229.18" width="82.25" height="1" transform="translate(-124.38 156.71) rotate(-44.68)"/><rect x="90.75" y="232.4" width="82.25" height="1" transform="translate(-125.66 160.04) rotate(-44.68)"/><rect x="94.16" y="235.63" width="82.25" height="1" transform="translate(-126.95 163.37) rotate(-44.68)"/><rect x="97.56" y="238.86" width="82.25" height="1" transform="translate(-128.23 166.7) rotate(-44.68)"/><rect x="100.97" y="242.09" width="82.25" height="1" transform="translate(-129.52 170.03) rotate(-44.68)"/><rect x="141.84" y="149.92" width="1" height="82.52" transform="translate(-95.09 170.31) rotate(-48.31)"/><rect x="138.4" y="153.11" width="1" height="82.52" transform="translate(-98.63 168.81) rotate(-48.31)"/><rect x="134.97" y="156.31" width="1" height="82.52" transform="translate(-102.17 167.32) rotate(-48.31)"/><rect x="131.53" y="159.51" width="1" height="82.52" transform="translate(-105.71 165.82) rotate(-48.31)"/><rect x="128.09" y="162.71" width="1" height="82.52" transform="translate(-109.25 164.33) rotate(-48.31)"/><rect x="124.65" y="165.91" width="1" height="82.52" transform="translate(-112.79 162.83) rotate(-48.31)"/><rect x="121.22" y="169.11" width="1" height="82.52" transform="translate(-116.33 161.33) rotate(-48.31)"/><rect x="117.78" y="172.31" width="1" height="82.52" transform="translate(-119.87 159.84) rotate(-48.31)"/><rect x="114.34" y="175.51" width="1" height="82.52" transform="translate(-123.41 158.34) rotate(-48.31)"/><rect x="110.9" y="178.7" width="1" height="82.52" transform="translate(-126.95 156.85) rotate(-48.31)"/><rect x="107.47" y="181.9" width="1" height="82.52" transform="translate(-130.49 155.35) rotate(-48.31)"/><rect x="104.03" y="185.1" width="1" height="82.52" transform="translate(-134.03 153.86) rotate(-48.31)"/><rect x="100.59" y="188.3" width="1" height="82.52" transform="translate(-137.57 152.36) rotate(-48.31)"/><rect x="97.15" y="191.5" width="1" height="82.52" transform="translate(-141.1 150.86) rotate(-48.31)"/><rect x="93.72" y="194.7" width="1" height="82.52" transform="translate(-144.64 149.37) rotate(-48.31)"/><rect x="90.28" y="197.89" width="1" height="82.52" transform="translate(-148.18 147.87) rotate(-48.31)"/><rect x="86.84" y="201.09" width="1" height="82.52" transform="translate(-151.72 146.37) rotate(-48.31)"/></g><rect class="cls-22" x="79.33" y="222.51" width="68.83" height="3.74"/><rect x="79.33" y="196.81" width="68.83" height="2.26"/><path class="cls-22" d="M103.23,211.36v1.35a8.31,8.31,0,0,1-4.82,1.79,1.44,1.44,0,0,1-1.3-.7,3,3,0,0,1-.44-1.59,5,5,0,0,1,1-3.12,3,3,0,0,1,2.41-1.36c.86,0,1.29.41,1.29,1.22a2.35,2.35,0,0,1-1.13,1.92,9.3,9.3,0,0,1-1.93,1L98,212v.06a1.87,1.87,0,0,0,.18.89.86.86,0,0,0,.82.5,4.27,4.27,0,0,0,2-.49A11.28,11.28,0,0,0,103.23,211.36Zm-5-.42a5.55,5.55,0,0,0,1.6-.87,1.33,1.33,0,0,0,.6-1c0-.24-.13-.36-.38-.36a1.5,1.5,0,0,0-1.08.66A3.51,3.51,0,0,0,98.18,210.94Z"/><path class="cls-22" d="M104.46,208h1.35c-.15.4-.28.75-.38,1.06s-.2.65-.3,1a16.18,16.18,0,0,1,1.93-1.62,2.33,2.33,0,0,1,1.23-.46.84.84,0,0,1,.71.42,1.76,1.76,0,0,1,.29,1.05,8.94,8.94,0,0,1-.55,2.12,4.3,4.3,0,0,0-.25,1.29c0,.32.08.47.25.47a2.48,2.48,0,0,0,.91-.48,9.37,9.37,0,0,0,1.63-1.48v1.37l-.34.29a9.6,9.6,0,0,1-1.53,1.12,2.31,2.31,0,0,1-1.13.33,1,1,0,0,1-.82-.41,1.87,1.87,0,0,1-.3-1.11,4,4,0,0,1,.24-1.22,9.77,9.77,0,0,0,.54-2q0-.48-.24-.48c-.27,0-1.17.72-2.68,2.16l-.18.16,0,.51c0,.17,0,.27,0,.33V214l0,.37h-1.29a7.72,7.72,0,0,1-.06-.92V212.1A13,13,0,0,1,104.46,208Z"/><path class="cls-22" d="M112.55,208.15l1.19-3.6h1.36L114,208h1.48l-.19.93h-1.65l-.08.28c-.15.55-.26,1-.34,1.47a7.14,7.14,0,0,0-.11,1.13c0,.93.16,1.4.48,1.4a2,2,0,0,0,.88-.43,11.16,11.16,0,0,0,1.66-1.46v1.38a8,8,0,0,1-2,1.42,2.6,2.6,0,0,1-1.11.31,1.1,1.1,0,0,1-1-.64,3.46,3.46,0,0,1-.36-1.7,6.84,6.84,0,0,1,.08-1.11q.09-.47.39-1.56l.13-.49-.5.08.06-.62c0-.08.09-.14.24-.17Z"/><path class="cls-22" d="M116.06,212.79v-1.34c.61-.59,1-1,1.28-1.3a7.18,7.18,0,0,0,1.08-1.58,1.85,1.85,0,0,1-.23-.73,2.31,2.31,0,0,1,.11-.78.47.47,0,0,1,.5-.28,2.26,2.26,0,0,1,.83.09.53.53,0,0,1,.16.45,3.11,3.11,0,0,1-.24,1,7.35,7.35,0,0,1,1.11.47,1.49,1.49,0,0,1,.71,1.39,3.65,3.65,0,0,1-.23,1.13,13.15,13.15,0,0,0-.51,1.66c0,.18.08.27.25.27.48,0,1.34-.63,2.6-1.88v1.37c-1.37,1.17-2.45,1.75-3.26,1.75a.87.87,0,0,1-.72-.35,1.48,1.48,0,0,1-.28-.92,4.33,4.33,0,0,1,.42-1.56,4.49,4.49,0,0,0,.42-1.38,1.13,1.13,0,0,0-.84-1.06,8.77,8.77,0,0,1-1.82,2.34C117.11,211.83,116.67,212.24,116.06,212.79Z"/><path class="cls-22" d="M124.53,208.44l.18-.47h1.37c-.38,1-.66,1.88-.83,2.54a6.57,6.57,0,0,0-.27,1.67c0,.56.11.84.34.84a2.27,2.27,0,0,0,1.42-.86,7.88,7.88,0,0,0,1.12-1.42l.74-2.76h1.31l-1.25,5a15.26,15.26,0,0,0,1.46-1l1-.69v1.37c-.15.08-.37.22-.65.41a13.42,13.42,0,0,1-1.56.92l-.54.29a6.77,6.77,0,0,1-.88,2.37,1.82,1.82,0,0,1-1.52.91,1.87,1.87,0,0,1-1.09-.33.89.89,0,0,1-.49-.74c0-.67.81-1.57,2.42-2.69l.34-.23.26-.93A5,5,0,0,1,126,213.9a2.94,2.94,0,0,1-1.37.37c-.36,0-.61-.29-.76-.88a5.35,5.35,0,0,1-.15-1.33A12.48,12.48,0,0,1,124.53,208.44Zm2.3,6.75.07-.27c-1,.68-1.44,1.16-1.44,1.47s.17.38.52.38a.55.55,0,0,0,.49-.34A4.62,4.62,0,0,0,126.83,215.19Z"/><path d="M78.55,195.1l5.5-4.88a.64.64,0,0,1,.43-.18h57.33a.87.87,0,0,1,.59.24l6.11,4.62c.44.4-1.06,1-1.64,1L80,196C79.39,196,78.13,195.52,78.55,195.1Z"/><ellipse class="cls-23" cx="101.66" cy="193.95" rx="2.83" ry="0.73"/><rect class="cls-23" x="98.83" y="192.04" width="5.66" height="1.91"/><ellipse class="cls-22" cx="101.66" cy="192.04" rx="2.83" ry="0.73"/><ellipse class="cls-23" cx="114.24" cy="193.95" rx="2.83" ry="0.73"/><rect class="cls-23" x="111.42" y="192.04" width="5.66" height="1.91"/><ellipse class="cls-22" cx="114.24" cy="192.04" rx="2.83" ry="0.73"/><ellipse class="cls-23" cx="126.83" cy="193.95" rx="2.83" ry="0.73"/><rect class="cls-23" x="124" y="192.04" width="5.66" height="1.91"/><ellipse class="cls-22" cx="126.83" cy="192.04" rx="2.83" ry="0.73"/><path class="cls-24" d="M328.07,198.08s-41.42,1.73-48.19,8.41c-8.46,8.33-6.48,13.45,31,15.81,31.05,2,41,1.46,41.65-11.15S328.07,198.08,328.07,198.08Z"/><path class="cls-12" d="M331.34,224.17c-5.48,0-12.22-.35-20.48-.87-23.7-1.49-34.08-4-35.83-8.71-1.15-3.06,1.61-6.32,4.15-8.82,7-6.86,47.14-8.62,48.84-8.69h.06c.68,0,16.6.38,22.93,7.17a9.17,9.17,0,0,1,2.56,6.95c-.22,4.08-1.37,6.91-3.62,8.91C346.56,223.13,340.82,224.17,331.34,224.17Zm-3.26-25.09c-11.44.48-42.18,2.87-47.5,8.12-3.08,3-4.25,5.16-3.68,6.69,1.36,3.63,12.5,6.05,34.08,7.42,22.79,1.43,33.06,1.38,37.64-2.69,1.83-1.62,2.76-4,2.95-7.53a7.09,7.09,0,0,0-2-5.47C343.91,199.56,328.82,199.1,328.08,199.08Z"/><rect class="cls-24" x="328.07" y="121.97" width="7.47" height="69.4"/><path class="cls-12" d="M335.53,192.37h-7.46a1,1,0,0,1-1-1V122a1,1,0,0,1,1-1h7.46a1,1,0,0,1,1,1v69.4A1,1,0,0,1,335.53,192.37Zm-6.46-2h5.46V123h-5.46Z"/><polygon class="cls-24" points="337.58 182.84 324.93 182.84 327.65 176.96 335.54 176.96 337.58 182.84"/><path class="cls-12" d="M337.58,183.85H324.93a1,1,0,0,1-.84-.47,1,1,0,0,1-.07-.95l2.72-5.89a1,1,0,0,1,.91-.58h7.88a1,1,0,0,1,1,.67l2,5.89a1,1,0,0,1-.95,1.33Zm-11.09-2h9.69L334.82,178h-6.53Z"/><rect class="cls-24" x="324.23" y="181.17" width="14.41" height="27.37" rx="2.05"/><path class="cls-12" d="M336.59,209.54H326.28a3.06,3.06,0,0,1-3-3V183.22a3,3,0,0,1,3-3.05h10.31a3,3,0,0,1,3.05,3.05v23.27A3.06,3.06,0,0,1,336.59,209.54Zm-10.31-27.37a1,1,0,0,0-1,1.05v23.27a1,1,0,0,0,1,1h10.31a1,1,0,0,0,1.05-1V183.22a1,1,0,0,0-1.05-1.05Z"/><path class="cls-24" d="M353.94,81.86c0-2-3.26-3.56-7.27-3.56s-7.28,1.59-7.28,3.56c0,1.58,2.13,2.93,5.07,3.38v10h4.42v-10C351.81,84.79,353.94,83.44,353.94,81.86Z"/><path class="cls-12" d="M348.88,96.23h-4.42a1,1,0,0,1-1-1V86.07c-3.11-.68-5.06-2.29-5.06-4.21,0-2.6,3.55-4.56,8.27-4.56s8.27,2,8.27,4.56c0,1.92-2,3.53-5.06,4.21v9.16A1,1,0,0,1,348.88,96.23Zm-3.42-2h2.42v-9a1,1,0,0,1,.84-1c2.64-.42,4.22-1.55,4.22-2.4,0-1-2.44-2.56-6.27-2.56s-6.27,1.51-6.27,2.56c0,.85,1.57,2,4.21,2.4a1,1,0,0,1,.85,1Z"/><path class="cls-24" d="M327.85,89.87s2.64,3.34,10.55,3.69,18.29-.61,20.4,6.64,2.11,17.8,0,19.91-20.57,8.69-37.27,8c0,0,7-30.19,3-36.87S327.85,89.87,327.85,89.87Z"/><path class="cls-12" d="M323.92,129.2c-.82,0-1.63,0-2.43,0a1,1,0,0,1-.94-1.23c1.93-8.28,6.25-30.93,3.11-36.12-1.07-1.77-1.92-3.55-.88-4.51.34-.31,1.38-1.28,5.66,1.77a.69.69,0,0,1,.19.19c.05,0,2.58,3,9.82,3.32,1.1,0,2.25.07,3.42.09,7.44.15,15.87.32,17.89,7.26s2.34,18.3-.26,20.9C357.26,123.06,340.25,129.2,323.92,129.2Zm-1.15-2h1.11c16,0,32.58-6.16,34.21-7.79s2-11.26-.25-18.92c-1.61-5.53-8.93-5.68-16-5.82-1.19,0-2.35,0-3.47-.1-7.5-.33-10.58-3.28-11.18-3.94a15.64,15.64,0,0,0-2.7-1.55,12.13,12.13,0,0,0,.89,1.69C329.17,97.05,324.16,121,322.77,127.18Z"/><path class="cls-4" d="M331.39,112.08c0,39.56-16,58.72-38.65,58.72s-40.93-28-40.93-62.56S269,48.47,291.6,48.47,331.39,77.53,331.39,112.08Z"/><path d="M292.74,171.8c-23.12,0-41.93-28.51-41.93-63.56,0-34.65,17.53-60.77,40.79-60.77,11.18,0,21.56,6.86,29.22,19.32,7.46,12.14,11.57,28.22,11.57,45.29C332.39,149.48,317.57,171.8,292.74,171.8ZM291.6,49.47c-22.12,0-38.79,25.26-38.79,58.77,0,34,17.91,61.56,39.93,61.56a31.78,31.78,0,0,0,27-14.1c7.07-10.08,10.66-24.75,10.66-43.62C330.39,77.56,313,49.47,291.6,49.47Z"/><path d="M292.74,171.8c-23.12,0-41.93-28.51-41.93-63.56,0-34.65,17.53-60.77,40.79-60.77,11.18,0,21.56,6.86,29.22,19.32,7.46,12.14,11.57,28.22,11.57,45.29C332.39,149.48,317.57,171.8,292.74,171.8ZM291.6,49.47c-22.12,0-38.79,25.26-38.79,58.77,0,34,17.91,61.56,39.93,61.56a31.78,31.78,0,0,0,27-14.1c7.07-10.08,10.66-24.75,10.66-43.62C330.39,77.56,313,49.47,291.6,49.47Z"/><g class="cls-25"><path d="M278.32,104.78C260.8,82.63,268.93,48.57,269,48.23l1.94.48c-.08.33-8,33.45,8.94,54.83Z"/><path d="M283.7,104.27l-2-.21c4-38.57,13.84-52.81,21.36-58,5.79-4,10.4-2.79,10.6-2.74l-.52,1.94c-.16,0-4-1-9,2.51C297,52.76,287.63,66.59,283.7,104.27Z"/><path d="M287.07,110.28,285.53,109c24.35-29,38-35.2,45.13-35.24h.08c3.79,0,5.38,1.73,5.55,1.92L334.79,77c-.05,0-1.22-1.31-4.3-1.23C325,75.88,312,80.54,287.07,110.28Z"/><path d="M327.94,123.09c-9.69,0-22.79-2.14-38-10.12l.94-1.77c16.33,8.59,30.19,10.07,38.94,9.81,9.49-.29,15.19-2.63,15.25-2.66l.77,1.85C345.38,120.41,338.78,123.09,327.94,123.09Z"/><path d="M329.87,163.34c-.27-.13-27.21-12.49-42.51-40.83l1.76-1c15,27.72,41.31,39.83,41.57,39.95Z"/><path d="M305.58,180.78c-9-3.45-15.81-14.19-20.11-31.91a150.69,150.69,0,0,1-3.76-25.4l2-.09c0,.48,2.43,47.84,22.6,55.54Z"/><path d="M262.68,162.42h-2c0-16.92,12.85-41.21,13.4-42.23l1.76.94C275.71,121.38,262.68,146,262.68,162.42Z"/><path d="M274.7,109.18c-1-.27-24.34-6.57-27.79-16.67l1.89-.64c3.11,9.09,26.19,15.31,26.42,15.38Z"/></g><ellipse class="cls-24" cx="281.32" cy="111.69" rx="13" ry="16.46"/><path class="cls-12" d="M281.32,129.15c-7.72,0-14-7.83-14-17.46s6.28-17.46,14-17.46,14,7.83,14,17.46S289,129.15,281.32,129.15Zm0-32.92c-6.62,0-12,6.93-12,15.46s5.38,15.46,12,15.46,12-6.94,12-15.46S287.94,96.23,281.32,96.23Z"/><ellipse cx="276.81" cy="108.1" rx="1.2" ry="1.54"/><ellipse cx="283.9" cy="109.37" rx="1.2" ry="1.54"/><path d="M280,119a5.09,5.09,0,0,1-.84-.07c-3.32-.49-3.85-3.68-3.66-5.3a1,1,0,0,1,2,.22c0,.28-.23,2.78,2,3.1,1.46.22,2.1-.32,2.84-2.42a1,1,0,0,1,1.27-.62,1,1,0,0,1,.62,1.28C283.54,117.09,282.51,119,280,119Z"/><ellipse class="cls-26" cx="288.87" cy="211.63" rx="2.73" ry="2.41"/><path d="M288.87,215a3.42,3.42,0,1,1,3.73-3.41A3.58,3.58,0,0,1,288.87,215Zm0-4.82a1.44,1.44,0,1,0,1.73,1.41A1.6,1.6,0,0,0,288.87,210.22Z"/><ellipse class="cls-26" cx="297.92" cy="212.39" rx="2.73" ry="2.41"/><path d="M297.92,215.81a3.43,3.43,0,1,1,3.73-3.42A3.58,3.58,0,0,1,297.92,215.81Zm0-4.83a1.44,1.44,0,1,0,1.73,1.41A1.59,1.59,0,0,0,297.92,211Z"/><ellipse class="cls-26" cx="306.79" cy="213.56" rx="2.73" ry="2.41"/><path d="M306.79,217a3.43,3.43,0,1,1,3.73-3.42A3.6,3.6,0,0,1,306.79,217Zm0-4.83a1.44,1.44,0,1,0,1.73,1.41A1.6,1.6,0,0,0,306.79,212.15Z"/><path d="M245.84,61.81c-5.77,0-17-1.34-23.54-11-5.54-8.26-3.85-13.16-2.35-15.34a8.31,8.31,0,0,1,8.36-3.4,6.38,6.38,0,0,1,5,4.36,5.19,5.19,0,0,1-1.11,5c-1.37,1.33-4.22,2.82-6.26,2-.87-.37-1.9-1.3-1.9-3.61a2.05,2.05,0,0,1,1-1.94c1.29-.72,3.16.31,3.71.64a1,1,0,0,1,.33,1.37,1,1,0,0,1-1.37.34,4,4,0,0,0-1.64-.6.78.78,0,0,0,0,.19c0,1,.23,1.57.68,1.76,1,.41,3-.51,4.09-1.54a3.22,3.22,0,0,0,.57-3,4.39,4.39,0,0,0-3.55-3,6.25,6.25,0,0,0-6.27,2.58c-2.1,3-1.26,7.7,2.36,13.09,8.11,12.07,25,10,25.22,10a1,1,0,0,1,.27,2A31.74,31.74,0,0,1,245.84,61.81Z"/><path d="M229.44,76.31a12.3,12.3,0,0,1-1.88-.15c-5.19-.83-6.5-3.32-6.82-4.74a4.61,4.61,0,0,1,1.81-4.74,3.69,3.69,0,0,1,3.82-.39,3.1,3.1,0,0,1,1.72,2.54c0,1-.42,2.84-1.71,3.42a2.19,2.19,0,0,1-2.51-.62,1.51,1.51,0,0,1-.52-1.5c.24-1,1.37-1.37,1.85-1.51a1,1,0,0,1,.88.17,1.21,1.21,0,0,0-.63-.72,1.67,1.67,0,0,0-1.77.26,2.64,2.64,0,0,0-1,2.65c.36,1.59,2.2,2.73,5.19,3.2,6.86,1.09,11.67-5.57,11.72-5.64a1,1,0,0,1,1.4-.23,1,1,0,0,1,.23,1.39C241,70,236.48,76.31,229.44,76.31Z"/></svg>