<?xml version="1.0" encoding="utf-8"?>
<!-- Generator: Adobe Illustrator 25.0.0, SVG Export Plug-In . SVG Version: 6.00 Build 0)  -->
<svg version="1.1" id="레이어_1" xmlns="http://www.w3.org/2000/svg" xmlns:xlink="http://www.w3.org/1999/xlink" x="0px"
	 y="0px" viewBox="0 0 200 200" style="enable-background:new 0 0 200 200;" xml:space="preserve">
<g>
	<g>
		<g>
			<path style="fill:#181F41;" d="M148.4,170.5c-4.6,0.5-4.2,6.5-4.1,9.2c0.1,1.7,0.5,4.2-1.1,5.5c-0.9,0.8-2.3,1.1-3.6,0.9
				c-1.4-0.2-2.6-1.1-3.4-2.1c-2-2.7-2.4-6.5-2.3-9.6c0.1-1.6,0.4-3.3,0.9-4.9c0.3-0.8,0.6-1.6,1-2.3c0.1-0.3,0.9-2.2,1.3-2.2
				l7.1-0.7C144,164.4,148.3,166.7,148.4,170.5z"/>
		</g>
		<g>
			<path style="fill:#181F41;" d="M148.4,170.5c5.8-0.4,4.3,6.5,2.9,8.8c-1.6,2.5-5.2,2.9-6.2,5.9c-0.6,1.5,0,3.4,1,4.6
				c1.1,1.3,2.9,1.5,4.5,1.4c5-0.3,8.2-4.7,10.3-8.8c1.9-3.8,2.7-8,2.3-13.8l-1.9-11l-25.5,0.8C135.9,158.3,130.8,170.8,148.4,170.5
				z"/>
		</g>
		
			<path style="fill:none;stroke:#31458C;stroke-width:0.7511;stroke-linecap:round;stroke-linejoin:round;stroke-miterlimit:10;" d="
			M152.8,174.3c2.6,0.2,7.8,0.3,10.4-0.2"/>
	</g>
	<g>
		<g>
			<path style="fill:#181F41;" d="M51.6,170.5c4.6,0.5,4.2,6.5,4.1,9.2c-0.1,1.7-0.5,4.2,1.1,5.5c0.9,0.8,2.3,1.1,3.6,0.9
				c1.4-0.2,2.6-1.1,3.4-2.1c2-2.7,2.4-6.5,2.3-9.6c-0.1-1.6-0.4-3.3-0.9-4.9c-0.3-0.8-0.6-1.6-1-2.3c-0.1-0.3-0.9-2.2-1.3-2.2
				l-7.1-0.7C56,164.4,51.7,166.7,51.6,170.5z"/>
		</g>
		
			<line style="fill:none;stroke:#31458C;stroke-width:0.7511;stroke-linecap:round;stroke-linejoin:round;stroke-miterlimit:10;" x1="55.6" y1="174.3" x2="65.6" y2="173.2"/>
		<g>
			<path style="fill:#181F41;" d="M51.6,170.5c-5.8-0.4-4.3,6.5-2.9,8.8c1.6,2.5,5.2,2.9,6.2,5.9c0.6,1.5,0,3.4-1,4.6
				c-1.1,1.3-2.9,1.5-4.5,1.4c-5-0.3-8.2-4.7-10.3-8.8c-1.9-3.8-2.7-8-2.3-13.8l1.9-11l25.5,0.8C64.1,158.3,69.2,170.8,51.6,170.5z"
				/>
		</g>
		
			<path style="fill:none;stroke:#31458C;stroke-width:0.7511;stroke-linecap:round;stroke-linejoin:round;stroke-miterlimit:10;" d="
			M47.2,174.3c-2.6,0.2-7.8,0.3-10.4-0.2"/>
	</g>
	<g>
		<g>
			<path style="fill:#FFFFFF;" d="M139.5,108.8c0,0-5.8,32.7-5.8,59.7c4.5,0,21.1,0,30.1,0C163.8,122.6,157.9,108.8,139.5,108.8z"/>
			<g>
				<path style="fill:#B8D0FF;" d="M147.6,168.5c-0.4-31.3,0.5-57-8.1-59.7c-0.2,1.2-5.8,33.1-5.8,59.7
					C136,168.5,141.5,168.5,147.6,168.5z"/>
			</g>
			<g>
				<g>
					<defs>
						<path id="SVGID_1_" d="M139.5,108.8c0,0-5.8,32.7-5.8,59.7c4.5,0,21.1,0,30.1,0C163.8,122.6,157.9,108.8,139.5,108.8z"/>
					</defs>
					<clipPath id="SVGID_2_">
						<use xlink:href="#SVGID_1_"  style="overflow:visible;"/>
					</clipPath>
					
						<path style="clip-path:url(#SVGID_2_);fill:none;stroke:#181F41;stroke-width:0.7511;stroke-linecap:round;stroke-linejoin:round;stroke-miterlimit:10;" d="
						M133.1,147.6l25.5,0.3c0,0,2.9-3.7,5.7-4.7"/>
				</g>
			</g>
			<g>
				<g>
					<defs>
						<path id="SVGID_3_" d="M139.5,108.8c0,0-5.8,32.7-5.8,59.7c4.5,0,21.1,0,30.1,0C163.8,122.6,157.9,108.8,139.5,108.8z"/>
					</defs>
					<clipPath id="SVGID_4_">
						<use xlink:href="#SVGID_3_"  style="overflow:visible;"/>
					</clipPath>
					<rect x="129.8" y="163" style="clip-path:url(#SVGID_4_);fill:#00E7AE;" width="37.9" height="6"/>
				</g>
				<g>
					<defs>
						<path id="SVGID_5_" d="M139.5,108.8c0,0-5.8,32.7-5.8,59.7c4.5,0,21.1,0,30.1,0C163.8,122.6,157.9,108.8,139.5,108.8z"/>
					</defs>
					<clipPath id="SVGID_6_">
						<use xlink:href="#SVGID_5_"  style="overflow:visible;"/>
					</clipPath>
					<g style="clip-path:url(#SVGID_6_);">
						<path style="fill:#009DA5;" d="M147.6,168.5c0-1.9-0.1-3.7-0.1-5.5h-13.8c0,1.9-0.1,3.7-0.1,5.5
							C136,168.5,141.5,168.5,147.6,168.5z"/>
					</g>
				</g>
			</g>
		</g>
		<g>
			<path style="fill:#FFFFFF;" d="M60.5,108.8c0,0,5.8,32.7,5.8,59.7c-4.5,0-21.1,0-30.1,0C36.2,122.6,42.1,108.8,60.5,108.8z"/>
			<g>
				<path style="fill:#B8D0FF;" d="M52.4,168.5c0.4-31.3-0.5-57,8.1-59.7c0.2,1.2,5.8,33.1,5.8,59.7C64,168.5,58.5,168.5,52.4,168.5
					z"/>
			</g>
			<g>
				<g>
					<defs>
						<path id="SVGID_7_" d="M60.5,108.8c0,0,5.8,32.7,5.8,59.7c-4.5,0-21.1,0-30.1,0C36.2,122.6,42.1,108.8,60.5,108.8z"/>
					</defs>
					<clipPath id="SVGID_8_">
						<use xlink:href="#SVGID_7_"  style="overflow:visible;"/>
					</clipPath>
					
						<path style="clip-path:url(#SVGID_8_);fill:none;stroke:#181F41;stroke-width:0.7511;stroke-linecap:round;stroke-linejoin:round;stroke-miterlimit:10;" d="
						M66.9,147.6l-25.5,0.3c0,0-2.9-3.7-5.7-4.7"/>
				</g>
				<g>
					<defs>
						<path id="SVGID_9_" d="M42.1,223.2c0,0-5.8-32.7-5.8-59.7c4.5,0,21.1,0,30.1,0C66.4,209.4,60.5,223.2,42.1,223.2z"/>
					</defs>
					<clipPath id="SVGID_10_">
						<use xlink:href="#SVGID_9_"  style="overflow:visible;"/>
					</clipPath>
					<rect x="32.3" y="163" style="clip-path:url(#SVGID_10_);fill:#00E7AE;" width="37.9" height="6"/>
				</g>
				<g>
					<defs>
						<path id="SVGID_11_" d="M60.5,108.8c0,0,5.8,32.7,5.8,59.7c-4.5,0-21.1,0-30.1,0C36.2,122.6,42.1,108.8,60.5,108.8z"/>
					</defs>
					<clipPath id="SVGID_12_">
						<use xlink:href="#SVGID_11_"  style="overflow:visible;"/>
					</clipPath>
					<g style="clip-path:url(#SVGID_12_);">
						<path style="fill:#009DA5;" d="M52.4,168.5c0-1.9,0.1-3.7,0.1-5.5h13.8c0,1.9,0.1,3.7,0.1,5.5C64,168.5,58.5,168.5,52.4,168.5
							z"/>
					</g>
				</g>
			</g>
		</g>
		<g>
			<g>
				<g>
					<g>
						<g>
							<g>
								<g>
									<circle style="fill:#181F41;" cx="100" cy="65.7" r="56.8"/>
									<path style="fill:#181F41;" d="M60.5,108.8c0,0,12,13.5,12,21H100h27.5c0-7.5,12-21,12-21H60.5z"/>
									<g>
										<path style="fill:#FFFFFF;" d="M55,100.4c8.5,16.2,25.5,27.3,45,27.3s36.5-11.1,45-27.3C145,100.4,55,100.4,55,100.4z"/>
									</g>
									<path style="fill:#B8D0FF;" d="M134.8,113.9c4.1-3.9,7.6-8.4,10.3-13.5h-3.2c-2.4,4.7-5.6,8.9-9.3,12.6
										C133.3,113.3,134,113.6,134.8,113.9z"/>
									<path style="fill:#B8D0FF;" d="M65.2,113.9c-4.1-3.9-7.6-8.4-10.3-13.5h3.2c2.4,4.7,5.6,8.9,9.3,12.6
										C66.7,113.3,66,113.6,65.2,113.9z"/>
								</g>
								<path style="fill:#FFFFFF;" d="M100,108.8H60.5c0,0,0,35.5,15.3,57.6c3.7,5.9,9.9,10.9,11.8,12.4c0.4,0.3,0.8,0.4,1.3,0.4
									H100h11.1c0.5,0,0.9-0.2,1.3-0.4c1.9-1.5,8.1-6.5,11.8-12.4c15.3-22,15.3-57.6,15.3-57.6S100,108.8,100,108.8z"/>
								
									<line style="fill:none;stroke:#B8D0FF;stroke-width:0.7511;stroke-linecap:round;stroke-linejoin:round;stroke-miterlimit:10;" x1="60.5" y1="108.8" x2="139.5" y2="108.8"/>
								<path style="fill:#B8D0FF;" d="M135.6,108.8c0,0,0,35.5-15.3,57.6c-3.7,5.9-9.9,10.9-11.8,12.4c-0.4,0.3-0.8,0.4-1.3,0.4
									h3.9c0.5,0,0.9-0.2,1.3-0.4c1.9-1.5,8.1-6.5,11.8-12.4c15.3-22,15.3-57.6,15.3-57.6S135.6,108.8,135.6,108.8z"/>
								<polygon style="fill:#FFFFFF;" points="164.2,53.8 153.1,45.3 153.1,65.7 153.1,86 164.2,77.5 								"/>
								<polygon style="fill:#B8D0FF;" points="153.1,86 164.2,77.5 164.2,70.5 153.1,79 								"/>
								<polygon style="fill:#FFFFFF;" points="35.8,53.8 46.9,45.3 46.9,65.7 46.9,86 35.8,77.5 								"/>
								<polygon style="fill:#B8D0FF;" points="46.9,86 35.8,77.5 35.8,70.5 46.9,79 								"/>
							</g>
						</g>
						<g>
							<path style="fill:none;stroke:#FFFFFF;stroke-width:4.0057;stroke-linecap:round;stroke-miterlimit:10;" d="M61.5,38.2
								c4.8-6.4,9.8-10.6,17.1-14.1"/>
							<circle style="fill:#FFFFFF;" cx="85.6" cy="21.1" r="2.8"/>
						</g>
					</g>
					<g>
						<g>
							
								<circle style="fill:none;stroke:#FFFFFF;stroke-width:2.5036;stroke-linecap:round;stroke-linejoin:round;stroke-miterlimit:10;" cx="81.1" cy="62.3" r="7.7"/>
							
								<circle style="fill:none;stroke:#FFFFFF;stroke-width:2.5036;stroke-linecap:round;stroke-linejoin:round;stroke-miterlimit:10;" cx="118.9" cy="62.3" r="7.7"/>
						</g>
						
							<path style="fill:none;stroke:#FFFFFF;stroke-width:2.5036;stroke-linecap:round;stroke-linejoin:round;stroke-miterlimit:10;" d="
							M95.1,70c0.7,1.2,2.6,2.5,4.9,2.5s4.2-1.3,4.9-2.5"/>
					</g>
				</g>
			</g>
			<g>
				<circle style="fill:#181F41;" cx="100" cy="130.5" r="11.2"/>
				<g>
					<path style="fill:#181F41;" d="M100,119.4c-6.2,0-11.2,5-11.2,11.2c0,3.1,1.3,5.9,3.3,7.9l15.8-15.8
						C105.9,120.6,103.1,119.4,100,119.4z"/>
				</g>
				<circle style="fill:#00E7AE;" cx="100" cy="130.5" r="8.5"/>
				<path style="fill:#009DA5;" d="M103.4,122.8c1.4,1.5,2.3,3.5,2.3,5.8c0,4.7-3.8,8.5-8.5,8.5c-1.2,0-2.4-0.3-3.4-0.7
					c1.5,1.7,3.8,2.7,6.2,2.7c4.7,0,8.5-3.8,8.5-8.5C108.5,127.1,106.4,124.1,103.4,122.8z"/>
				<path style="fill:none;stroke:#FFFFFF;stroke-width:4.0057;stroke-linecap:round;stroke-miterlimit:10;" d="M100,124.8
					c-2.5,0.7-4.6,2.6-5.5,5.1"/>
			</g>
			<g>
				<path style="fill:#00E7AE;" d="M81.4,173.2c2.6,2.7,5.1,4.7,6.2,5.5c0.4,0.3,0.8,0.4,1.3,0.4H100h11.1c0.5,0,0.9-0.2,1.3-0.4
					c1.1-0.8,3.6-2.9,6.2-5.5H100H81.4z"/>
			</g>
		</g>
		<g>
			<path style="fill:#009DA5;" d="M108.5,178.7c-0.4,0.3-0.8,0.4-1.3,0.4h3.9c0.5,0,0.9-0.2,1.3-0.4l0,0c0.1,0,0.1-0.1,0.2-0.2
				c0,0,0,0,0.1-0.1c0.1,0,0.1-0.1,0.2-0.1c0,0,0.1,0,0.1-0.1c0.1,0,0.1-0.1,0.2-0.2c0,0,0.1,0,0.1-0.1c0.1-0.1,0.1-0.1,0.2-0.2
				c0,0,0,0,0.1-0.1s0.2-0.2,0.3-0.2l0,0c1.3-1.1,3-2.6,4.8-4.4l0,0h-3.9C112.1,175.9,109.6,177.9,108.5,178.7z"/>
		</g>
		<path style="fill:#B8D0FF;" d="M64.4,108.8c0,0,0,35.5,15.3,57.6c3.7,5.9,9.9,10.9,11.8,12.4c0.4,0.3,0.8,0.4,1.3,0.4h-3.9
			c-0.5,0-0.9-0.2-1.3-0.4c-1.9-1.5-8.1-6.5-11.8-12.4c-15.3-22-15.3-57.6-15.3-57.6S64.4,108.8,64.4,108.8z"/>
		<g>
			<path style="fill:#009DA5;" d="M91.5,178.7c0.4,0.3,0.8,0.4,1.3,0.4h-3.9c-0.5,0-0.9-0.2-1.3-0.4l0,0c-0.1,0-0.1-0.1-0.2-0.2
				c0,0,0,0-0.1-0.1c-0.1,0-0.1-0.1-0.2-0.1c0,0-0.1,0-0.1-0.1c-0.1,0-0.1-0.1-0.2-0.2c0,0-0.1,0-0.1-0.1c-0.1-0.1-0.1-0.1-0.2-0.2
				c0,0,0,0-0.1-0.1s-0.2-0.2-0.3-0.2l0,0c-1.3-1.1-3-2.6-4.8-4.4l0,0h3.9C87.9,175.9,90.4,177.9,91.5,178.7z"/>
		</g>
		
			<path style="fill:none;stroke:#181F41;stroke-width:0.7511;stroke-linecap:round;stroke-linejoin:round;stroke-miterlimit:10;" d="
			M135.2,141.2c3.3-13.2,4.1-23,4.3-28.9c0.1-2.2,0.1-3.4,0.1-3.4"/>
		
			<path style="fill:none;stroke:#181F41;stroke-width:0.7511;stroke-linecap:round;stroke-linejoin:round;stroke-miterlimit:10;" d="
			M64.9,141.4c-4.5-18.1-4.5-32.6-4.5-32.6"/>
	</g>
	
		<line style="fill:none;stroke:#31458C;stroke-width:0.7511;stroke-linecap:round;stroke-linejoin:round;stroke-miterlimit:10;" x1="144.4" y1="174.3" x2="134.4" y2="173.2"/>
</g>
</svg>
