<svg id="레이어_5" data-name="레이어 5" xmlns="http://www.w3.org/2000/svg" viewBox="0 0 240 240"><defs><style>.cls-1,.cls-5{fill:#fff;}.cls-1,.cls-2,.cls-8,.cls-9{fill-rule:evenodd;}.cls-2,.cls-7{fill:#00a2f6;}.cls-3{fill:#ffd01f;}.cls-4{fill:#ffeb96;}.cls-6{fill:#653109;}.cls-8{fill:#fcbfbb;}.cls-10{fill:#0085c9;}.cls-11{fill:#d34a4c;}.cls-12{fill:#777;}.cls-13{fill:#ff9843;}.cls-14{fill:#757575;}.cls-15{fill:#fca156;}</style></defs><path class="cls-1" d="M116,167.66c.13-3.34-5.28-5.3-7.6-5.4h-.21a4.88,4.88,0,0,0-4.72,4.85l-1.15,29.32c4.18,0,8.36.11,12.53.4Z"/><path class="cls-2" d="M102.28,196l-.47,12-1.82-.5a11.93,11.93,0,0,0-2.67-.41h-.63a18.58,18.58,0,0,0-2.73.22l-.33.07a16.49,16.49,0,0,0-11.41,8.46c-1.29,2.41-2.21,7.29-.06,10.09s5.22,3.25,8.26,3.38l1.38,0h.13l1.12,0,14,.61h.24c2.24,0,6.28-1.64,6.41-4.89l1.13-28.69C110.64,196.12,106.46,196,102.28,196Z"/><path d="M107.27,231.24H107l-14-.61-1.1,0h-.14l-1.39,0c-3.19-.14-6.78-.71-9.21-3.87s-1.53-8.66,0-11.44a17.73,17.73,0,0,1,12.28-9.1l.33-.07a19.39,19.39,0,0,1,3.64-.23,13.79,13.79,0,0,1,2.95.45l.3.09L102.18,167a6.09,6.09,0,0,1,6-6h.23c2.6.11,9,2.25,8.82,6.64l-2.27,57.5C114.77,229.06,110.3,231.24,107.27,231.24Zm-.2-2.5h.22c1.68,0,5-1.31,5.14-3.69l2.28-57.5c.08-2.13-4.22-4-6.41-4h-.18a3.59,3.59,0,0,0-3.44,3.59l-1.62,41a1.3,1.3,0,0,1-.51,1,1.24,1.24,0,0,1-1.07.19l-1.82-.5a11.27,11.27,0,0,0-2.39-.36,17.05,17.05,0,0,0-3.11.2l-.3.05a15.27,15.27,0,0,0-10.54,7.83c-1.18,2.21-1.91,6.48-.17,8.74s4.16,2.76,7.33,2.89l1.35,0H92l1.14,0Z"/><path class="cls-3" d="M189,28.94a23.52,23.52,0,0,0-14.41,3.69c-5.85,4-9.12,10.85-10.75,17.73a28.93,28.93,0,0,0-.65,12.13c.83,4.3,4.81,9.37,8.71,11.35,1.06.53,1.7.75,3.65,1.85-.82,3.56-1.53,6.53-4.06,9.83a.93.93,0,0,0,.88,1.47c4.89-.69,9.78-3.87,13.34-7.18,5.34,2,10.15.92,14.7-1.46a21.77,21.77,0,0,0,7.22-6.17c3.73-4.88,7.17-10.51,8.41-16.69a21.28,21.28,0,0,0-1-12.36,18.07,18.07,0,0,0-10.17-9.73C199.72,31.36,194.66,29.23,189,28.94Z"/><path d="M187.6,28.9c.47,0,.94,0,1.41,0,5.65.29,10.71,2.42,15.9,4.46a18.07,18.07,0,0,1,10.17,9.73,21.28,21.28,0,0,1,1,12.36c-1.24,6.18-4.68,11.81-8.41,16.69a21.77,21.77,0,0,1-7.22,6.17,19.53,19.53,0,0,1-9.09,2.5,16,16,0,0,1-5.61-1c-3.56,3.31-8.45,6.49-13.34,7.18h-.14a.93.93,0,0,1-.74-1.48c2.53-3.3,3.24-6.27,4.06-9.83-1.95-1.1-2.59-1.32-3.65-1.85-3.9-2-7.88-7-8.71-11.35a28.93,28.93,0,0,1,.65-12.13c1.63-6.88,4.9-13.75,10.75-17.73a23.16,23.16,0,0,1,13-3.73m0-2A24.93,24.93,0,0,0,173.48,31c-7,4.74-10.15,12.9-11.58,18.91a30.7,30.7,0,0,0-.67,13c1,4.86,5.24,10.46,9.78,12.75l1,.48c.38.17.76.35,1.27.62a18.56,18.56,0,0,1-3.34,7.59A2.92,2.92,0,0,0,172.24,89l.42,0c5.67-.8,10.64-4.37,13.53-6.89a17.89,17.89,0,0,0,5.14.77,21.52,21.52,0,0,0,10-2.72,24.15,24.15,0,0,0,7.88-6.73c4.87-6.38,7.66-12,8.78-17.52a23,23,0,0,0-1.09-13.52,20.18,20.18,0,0,0-11.28-10.83l-1-.38c-4.88-1.93-9.93-3.92-15.56-4.21-.5,0-1,0-1.51,0Z"/><path class="cls-4" d="M173.6,85.12A47.69,47.69,0,0,0,177,76.89l.45-1.94-1.75-1c-1.75-1-3.5-2-5.22-3.09a12.82,12.82,0,0,1-5.55-8.63,27,27,0,0,1,.64-11.52c1.28-5.4,4.06-12.69,10-16.74a21.08,21.08,0,0,1,11.95-3.4q.66,0,1.32,0c5.05.26,9.68,2.09,14.6,4l1,.4a16.09,16.09,0,0,1,9,8.62,19.25,19.25,0,0,1,.86,11.23A33.79,33.79,0,0,1,209.69,66c-2.67,4.32-5.24,8.08-9.62,10.48A18.24,18.24,0,0,1,191.39,79a13.81,13.81,0,0,1-4.88-.91L185,77.51l-1.2,1.12C181.07,81.14,177.6,84,173.6,85.12Z"/><path class="cls-1" d="M136.15,168a4.84,4.84,0,0,0-4.72-4.79h-.2c-2.33.1-7.74,2-7.61,5.34L129,198.41c4.17-.58,8.33-1.25,12.5-1.75Z"/><path class="cls-2" d="M165.31,216.47a16.45,16.45,0,0,0-11.4-8.46l-.34-.07a18.58,18.58,0,0,0-2.73-.22h-.63a11.93,11.93,0,0,0-2.66.41l-3.7.82-2.31-12.3c-4.17.5-8.33,1.17-12.5,1.75l4.86,26.81c.13,3.26,4.17,4.89,6.41,4.9h.24l13.94-.08,1.12,0h.13l1.37-.05c3-.13,6.16-.63,8.27-3.38S166.61,218.88,165.31,216.47Z"/><path d="M140.33,231.37c-3,0-7.45-2.15-7.67-6l-10.26-56.6a.47.47,0,0,1,0-.17c-.18-4.38,6.22-6.53,8.79-6.64h.24a6.08,6.08,0,0,1,6,5.89l7.45,39.62,2.44-.54a8.15,8.15,0,0,1,1.18-.26,17.43,17.43,0,0,1,18,9.22c1.49,2.78,2.46,8.17,0,11.44s-6,3.73-9.2,3.87l-1.41.05h-.11l-1.11,0Zm-15.46-63L135.13,225a.88.88,0,0,1,0,.17c.09,2.38,3.46,3.69,5.16,3.7h.23l13.94-.08,1.09,0h.13l1.36-.05c3.17-.13,5.63-.68,7.33-2.89s1-6.53-.18-8.74a15,15,0,0,0-15.46-7.91,6.79,6.79,0,0,0-.86.19l-3.77.84a1.25,1.25,0,0,1-1-.18,1.24,1.24,0,0,1-.54-.81l-7.7-41a1.1,1.1,0,0,1,0-.18,3.59,3.59,0,0,0-3.47-3.59h-.18C129.12,164.54,124.89,166.32,124.87,168.42Z"/><path class="cls-5" d="M58.08,50.5a6.65,6.65,0,0,0,1.39,1.18,6.59,6.59,0,0,1-1.4-1.16c-.11-.12-.21-.25-.3-.37C57.88,50.27,58,50.39,58.08,50.5Z"/><path class="cls-5" d="M61.05,52.39l.37.09v0Z"/><path class="cls-5" d="M87.87,54.19a2.43,2.43,0,0,1-2.82,0c-2-1.22-3.54-4.64-4.68-5.93a6.09,6.09,0,0,0-1.28-1.09c-.18-.11-.37-.2-.54-.29s-.25-.11-.38-.15a5.43,5.43,0,0,0-1.44-.3,4.78,4.78,0,0,0-.54,0,7.41,7.41,0,0,0-1.53.21,8,8,0,0,0-.94.27.89.89,0,0,0-.26.11,8,8,0,0,0-1,.42,10,10,0,0,0-1.09.54l0,0c-.36.21-.72.43-1.07.67a2.55,2.55,0,0,0-1.68-2,2.49,2.49,0,0,0-1.48,0,2.55,2.55,0,0,0,1.29-1.5,2.64,2.64,0,0,0-1.63-3.34,2.59,2.59,0,0,0-1.88.1A2.66,2.66,0,0,0,66,40.55a2.63,2.63,0,0,0-1.64-3.34,2.83,2.83,0,0,0-.42-.06.06.06,0,0,1-.06,0l-1.41.89c-.78.53-1.53,1.09-2.26,1.68l-.85.67c.62-.52,1.49-1.23,2.59-2a7.79,7.79,0,0,1,.8-.52c.35-.24.75-.48,1.15-.73a9.94,9.94,0,0,1,.92-.49s.06,0,.1-.06c.4-.2.81-.4,1.22-.57a11.64,11.64,0,0,1,1.09-.48,6.78,6.78,0,0,1,.68-.23,7.1,7.1,0,0,1,.78-.27c.45-.15.94-.28,1.41-.39a15.14,15.14,0,0,1,8.92.47,19.87,19.87,0,0,1,3.45,1.73l.47.29a22.42,22.42,0,0,1,3,2.48C89,42.52,92.51,51.16,87.87,54.19Z"/><path d="M93,50.48c.44-4.61-2.22-10.31-4.94-12.92a24.73,24.73,0,0,0-3.46-2.83L84,34.41a23,23,0,0,0-4-2,18,18,0,0,0-10.55-.57,25.49,25.49,0,0,0-8.83,4c-.75.51-1.5,1.06-2.23,1.65-.92.72-1.59,1.29-1.91,1.59a9.41,9.41,0,0,0-2.79,4.79,3.9,3.9,0,0,0-.13.76,9.43,9.43,0,0,0,2.32,7.81,9.13,9.13,0,0,0,2,1.69,9.4,9.4,0,0,0,11.25-1s0,0,0,0a18.86,18.86,0,0,1,2.57-1.91,2.21,2.21,0,0,0,.55-.45c1.37-.83,3.77-2,5.2-1.1a3.16,3.16,0,0,1,.65.54c.23.28.65.95,1,1.54,1.08,1.69,2.42,3.79,4.28,4.94a5.32,5.32,0,0,0,5.92-.06A7.85,7.85,0,0,0,93,50.48Zm-5.08,3.71a2.43,2.43,0,0,1-2.82,0c-2-1.22-3.54-4.64-4.68-5.93a6.09,6.09,0,0,0-1.28-1.09c-.18-.11-.37-.2-.54-.29s-.25-.11-.38-.15a5.43,5.43,0,0,0-1.44-.3,4.78,4.78,0,0,0-.54,0,7.41,7.41,0,0,0-1.53.21,5.67,5.67,0,0,0-.94.27.89.89,0,0,0-.26.11,9,9,0,0,0-1,.42c-.37.15-.71.35-1.09.54l0,0c-.36.21-.72.43-1.07.67v.08c-.77.49-1.51,1-2.16,1.52-.29.24-.55.48-.79.69a6.53,6.53,0,0,1-2.82,1.51,5.82,5.82,0,0,1-1.54.2,5.88,5.88,0,0,1-1-.07h0l-.51-.09-.36-.11-.24-.09A4.89,4.89,0,0,1,60,52l-.54-.31a6.59,6.59,0,0,1-1.4-1.16c-.11-.12-.21-.25-.3-.37a1.58,1.58,0,0,0-.22-.29,8.24,8.24,0,0,1-.84-1.68,5.08,5.08,0,0,1-.15-.52,3.89,3.89,0,0,1-.1-.54l-.05-.21a.06.06,0,0,1,0,0,5.62,5.62,0,0,1,0-1,1.34,1.34,0,0,1,0-.34,2.19,2.19,0,0,1,0-.36V45.1a2.62,2.62,0,0,1,.12-.54v0a8.62,8.62,0,0,1,.27-1,0,0,0,0,1,0,0,7.7,7.7,0,0,1,1-1.59,6.49,6.49,0,0,1,.67-.72l.26-.24.15-.13.5-.44.85-.67c.73-.59,1.48-1.15,2.26-1.68l1.41-.89a.06.06,0,0,0,.06,0l.88-.49s.06,0,.1-.06c.4-.2.81-.4,1.22-.57a11.64,11.64,0,0,1,1.09-.48,6.78,6.78,0,0,1,.68-.23,7.1,7.1,0,0,1,.78-.27c.45-.15.94-.28,1.41-.39a15.14,15.14,0,0,1,8.92.47,19.87,19.87,0,0,1,3.45,1.73l.47.29a22.42,22.42,0,0,1,3,2.48C89,42.52,92.51,51.16,87.87,54.19Z"/><path class="cls-6" d="M70.26,48.67a23.09,23.09,0,0,0-2.15,1.6c-.29.24-.55.48-.79.69a6.53,6.53,0,0,1-2.82,1.51,7.92,7.92,0,0,1-1.54.2,8.91,8.91,0,0,1-1-.07h0l-.5-.11-.37-.09-.24-.09A4.89,4.89,0,0,1,60,52l-.54-.31a6.65,6.65,0,0,1-1.39-1.18c-.11-.11-.2-.23-.31-.35a1.58,1.58,0,0,0-.22-.29,8.24,8.24,0,0,1-.84-1.68,5.08,5.08,0,0,1-.15-.52,3.89,3.89,0,0,1-.1-.54,2.17,2.17,0,0,0,0-.25,5.62,5.62,0,0,1,0-1,1.34,1.34,0,0,1,0-.34,2.83,2.83,0,0,1,0-.41,2.66,2.66,0,0,1,.12-.56,6.41,6.41,0,0,1,1.93-3.33l.26-.24.15-.13.5-.44.85-.67c.73-.59,1.48-1.15,2.26-1.68l1.41-.89a.06.06,0,0,0,.06,0,2.83,2.83,0,0,1,.42.06A2.63,2.63,0,0,1,66,40.55a2.66,2.66,0,0,1-1.16,1.39,2.59,2.59,0,0,1,1.88-.1,2.64,2.64,0,0,1,1.63,3.34,2.55,2.55,0,0,1-1.29,1.5,2.49,2.49,0,0,1,1.48,0A2.55,2.55,0,0,1,70.26,48.67Z"/><path class="cls-6" d="M56.56,44.56a2.62,2.62,0,0,0-.12.54,6.26,6.26,0,0,1,.39-1.53,0,0,0,0,1,0,0A6.32,6.32,0,0,1,57.76,42l.06-.08h0a6.49,6.49,0,0,1,.67-.72,6.43,6.43,0,0,0-.67.72c-.07.08-.12.17-.18.25s-.26.37-.38.56c0,0,0,0,0,.06A6.34,6.34,0,0,0,56.56,44.56Z"/><path class="cls-6" d="M56.44,45.1v0Z"/><path class="cls-6" d="M56.38,45.87a5.62,5.62,0,0,0,0,1,4.35,4.35,0,0,1-.06-1c0-.23,0-.46.08-.69a2.19,2.19,0,0,0,0,.36A1.34,1.34,0,0,0,56.38,45.87Z"/><path class="cls-6" d="M56.46,47.12a3.89,3.89,0,0,0,.1.54,5,5,0,0,1-.15-.75.06.06,0,0,1,0,0A2.17,2.17,0,0,1,56.46,47.12Z"/><path class="cls-6" d="M62,38.4c.17-.09.34-.22.52-.33-.78.53-1.53,1.09-2.26,1.68l-.85.67C60,39.9,60.89,39.19,62,38.4Z"/><path class="cls-6" d="M63.94,37.15h0a.06.06,0,0,1-.06,0l-1.41.89a1.69,1.69,0,0,1,.28-.19C63.14,37.64,63.54,37.4,63.94,37.15Z"/><path class="cls-6" d="M70.27,48.75c-.77.49-1.51,1-2.16,1.52a23.09,23.09,0,0,1,2.15-1.6Z"/><path class="cls-5" d="M130.58,30.34a2.67,2.67,0,0,0-1.13,3.56A2.62,2.62,0,0,0,131,35.2a2.5,2.5,0,0,0-1.47.22,2.62,2.62,0,0,0-1.38,2.2s-.05,0-.07,0c-.41-.18-.84-.36-1.28-.52a12.71,12.71,0,0,0-3.46-.8,8.32,8.32,0,0,0-1,0,4.28,4.28,0,0,0-1,.14,5.11,5.11,0,0,0-2.57,1.44,5.19,5.19,0,0,0-.7.89,15.06,15.06,0,0,0-.75,1.47v0c-.17.39-.36.8-.56,1.24-.29.64-.6,1.31-1,1.94l-.36.6a5.51,5.51,0,0,1-.81,1,2.55,2.55,0,0,1-2.6.87,2.21,2.21,0,0,1-.49-.17c-5-2.3-2.87-11.37-.34-14.67a21.25,21.25,0,0,1,2.62-2.9,19.22,19.22,0,0,1,3.58-2.59,15.06,15.06,0,0,1,8.74-1.8,20.09,20.09,0,0,1,3.86.65c.71.19,1.4.41,2.11.66l.49.19a2.33,2.33,0,0,0-.4.15A2.62,2.62,0,0,0,131.09,29a2.58,2.58,0,0,0,1.35,1.2A2.61,2.61,0,0,0,130.58,30.34Z"/><path d="M143.74,30.39a9.44,9.44,0,0,0-3.46-4.26c-.17-.13-.41-.27-.71-.47l-.92-.57a30.57,30.57,0,0,0-7.89-3.46,23.63,23.63,0,0,0-4.4-.73A18,18,0,0,0,116,23.05,22.2,22.2,0,0,0,111.92,26a24,24,0,0,0-3,3.3c-2.29,3-4.08,9-3,13.53a7.85,7.85,0,0,0,4.37,5.53,7.15,7.15,0,0,0,1,.33c4.86,1.3,7.16-3.9,8.39-6.71a18.3,18.3,0,0,1,.81-1.68c.33-.5,1.11-1.71,4.16-.9a16.33,16.33,0,0,1,1.7.58,2.63,2.63,0,0,0,.61.38,19.82,19.82,0,0,1,2.82,1.49.2.2,0,0,1,.09.06,10,10,0,0,0,2.72,1.21,9.35,9.35,0,0,0,4.52.07,9.24,9.24,0,0,0,5.73-4A9.53,9.53,0,0,0,143.74,30.39Zm-3.29,7.24a3.65,3.65,0,0,1-.31.43,4.12,4.12,0,0,1-.33.4s0,0,0,0a6.92,6.92,0,0,1-.74.7.83.83,0,0,0-.18.13,5.32,5.32,0,0,1-.67.42,5.61,5.61,0,0,1-1.39.58,4.4,4.4,0,0,1-1,.2,6.54,6.54,0,0,1-4.45-1,8.1,8.1,0,0,0-.72-.45,19.28,19.28,0,0,0-2-1l-.56-.27,0-.07h0s-.05,0-.07,0c-.41-.18-.84-.36-1.28-.52a12.71,12.71,0,0,0-3.46-.8,8.32,8.32,0,0,0-1,0,4.45,4.45,0,0,0-1,.14,5.11,5.11,0,0,0-2.57,1.44,5.19,5.19,0,0,0-.7.89,11,11,0,0,0-.75,1.47v0c-.17.39-.36.8-.56,1.24-.29.64-.6,1.31-1,1.94l-.36.6a8.65,8.65,0,0,1-.81,1,2.55,2.55,0,0,1-2.6.87,2.21,2.21,0,0,1-.49-.17c-5-2.3-2.87-11.37-.34-14.67a21.25,21.25,0,0,1,2.62-2.9,19.22,19.22,0,0,1,3.58-2.59,15.06,15.06,0,0,1,8.74-1.8,20.09,20.09,0,0,1,3.86.65c.73.19,1.42.42,2.11.66l.49.19h0c.52.22,1,.43,1.53.66.32.15.62.29.92.45a31.12,31.12,0,0,1,3,1.71,4.65,4.65,0,0,0,.51.33l.1.07a6.18,6.18,0,0,1,.79.62,6.32,6.32,0,0,1,.66.72,3.88,3.88,0,0,1,.46.66,1.16,1.16,0,0,1,.15.26,0,0,0,0,1,0,0,7.7,7.7,0,0,1,.33.71,4.24,4.24,0,0,1,.18.5,6.46,6.46,0,0,1,.28,2.62,2.21,2.21,0,0,1-.07.46A6.32,6.32,0,0,1,140.45,37.63Z"/><path class="cls-6" d="M141.45,35.07a6.32,6.32,0,0,1-1,2.56,3.65,3.65,0,0,1-.31.43l-.35.39v0a6.92,6.92,0,0,1-.74.7c-.15.1-.29.18-.42.28a5.08,5.08,0,0,1-.43.27,7.7,7.7,0,0,1-1.39.58,7.57,7.57,0,0,1-1,.2,6.54,6.54,0,0,1-4.45-1,8.1,8.1,0,0,0-.72-.45c-.6-.36-1.23-.73-1.92-1.07a5.76,5.76,0,0,0-.61-.3h0a2.62,2.62,0,0,1,1.38-2.2A2.5,2.5,0,0,1,131,35.2a2.62,2.62,0,0,1-1.52-1.3,2.67,2.67,0,0,1,1.13-3.56,2.61,2.61,0,0,1,1.86-.18,2.58,2.58,0,0,1-1.35-1.2,2.62,2.62,0,0,1,1.12-3.54,2.33,2.33,0,0,1,.4-.15h0c.52.22,1,.43,1.53.66.32.15.62.29.92.45a31.12,31.12,0,0,1,3,1.71,4.65,4.65,0,0,0,.51.33l.1.07a6.18,6.18,0,0,1,.79.62,6.32,6.32,0,0,1,.66.72,3.88,3.88,0,0,1,.46.66,1.61,1.61,0,0,1,.15.26,0,0,0,0,1,0,0,7.7,7.7,0,0,1,.33.71,4.24,4.24,0,0,1,.18.5,6.46,6.46,0,0,1,.28,2.62A2.21,2.21,0,0,1,141.45,35.07Z"/><path class="cls-6" d="M128.75,37.93c.69.34,1.32.71,1.92,1.07a19.28,19.28,0,0,0-2-1l-.56-.27s0-.06,0-.08h0A5.76,5.76,0,0,1,128.75,37.93Z"/><path class="cls-6" d="M138.63,39.45c.13-.1.27-.18.42-.28a.83.83,0,0,0-.18.13Z"/><path class="cls-6" d="M139.79,38.45l.35-.39a4.12,4.12,0,0,1-.33.4Z"/><path class="cls-7" d="M113,184.38l-1.54,0a43.45,43.45,0,0,1-10.13-1.51,41.3,41.3,0,0,1-26.55-21.61c-4.11-8.34-4.48-14.28-3.49-21.82.22-1.71.45-3.43.63-5.27s.6-3.88,1-5.83.81-4,1-5.95L73,118l-.22-.31c-.26-.35-.52-.69-.77-1l-.11-.14c-.74-1-1.5-2-2.14-3a53,53,0,0,1-8.07-28.4c0-10,2.75-19.11,7.52-25.09,7.68-9.6,17.67-16.36,27.39-18.54l3.54-.79a38.73,38.73,0,0,1,8.7-1A51.28,51.28,0,0,1,122,41.53a62.07,62.07,0,0,1,10.88,4.06C139.73,48.93,146.15,56,150.44,65a53.86,53.86,0,0,1,4.88,30.61c-.1.83-.21,1.66-.32,2.5-.42,3.22.13,10.47.18,13.58s1.14,6.08,2.28,9.21c.46,1.24.92,2.51,1.32,3.8a76.74,76.74,0,0,1,3.07,14.47c.91,8.37-.48,20.17-5.64,27.66-6,8.75-17.37,14.86-31.12,16.76-1.62.22-3.38.39-5.1.49l-3.5.2C115.31,184.34,114.13,184.38,113,184.38Z"/><path d="M113,185.63l-1.57,0A45.32,45.32,0,0,1,101,184.06c-13-3.47-23.22-11.83-27.39-22.36-3.78-9.57-3.48-17.14-2.6-23.9.23-1.72.45-3.43.63-5.23a7.49,7.49,0,0,0-.14-2,8.7,8.7,0,0,1-.07-3.33c.36-1.83.81-4.82,1-6.73l-3.78-6.32a54.18,54.18,0,0,1-8.26-29c0-10.25,2.85-19.68,7.8-25.87,7.85-9.82,18.09-16.74,28.09-19l3.53-.8a47.31,47.31,0,0,1,22.48.88,62.64,62.64,0,0,1,11.1,4.13c7.14,3.46,13.76,10.75,18.18,20a55.12,55.12,0,0,1,5,31.3c-.09.79-.2,1.59-.3,2.4l0,.12c-1.17,8.92.77,16.41,3,23.93a93.15,93.15,0,0,1,3.8,16.83c.94,8.59-.51,20.74-5.85,28.5-6.22,9-17.88,15.34-32,17.29-1.66.23-3.45.4-5.2.5l-3.5.2C115.37,185.59,114.16,185.63,113,185.63ZM108.79,41a38,38,0,0,0-8.42.91l-3.54.8c-9.46,2.12-19.18,8.72-26.69,18.1-4.6,5.76-7.25,14.62-7.25,24.31a51.74,51.74,0,0,0,7.88,27.74l0,0,4,6.69a1.25,1.25,0,0,1,.17.78c-.21,1.91-.7,5.33-1.11,7.36a6.53,6.53,0,0,0,.09,2.45,10,10,0,0,1,.16,2.69c-.19,1.84-.41,3.57-.63,5.25-.85,6.48-1.14,13.67,2.44,22.71,3.87,9.8,13.48,17.6,25.71,20.86a42,42,0,0,0,9.83,1.47c1.65,0,3.32,0,5-.08l3.5-.2c1.68-.09,3.41-.26,5-.48,13.42-1.85,24.45-7.77,30.27-16.23,5-7.23,6.31-18.67,5.43-26.81a92.51,92.51,0,0,0-3.71-16.38c-2.36-7.79-4.38-15.56-3.14-25l0-.12c.1-.79.21-1.58.3-2.37a52.75,52.75,0,0,0-4.77-29.93c-4.17-8.74-10.37-15.6-17-18.82a60.24,60.24,0,0,0-10.65-4A50.17,50.17,0,0,0,108.79,41Z"/><path class="cls-1" d="M104.91,45.44a45.14,45.14,0,0,1,12.1.5c6.33,1.15,14,3.57,18.33,8.4A27.14,27.14,0,0,1,140,61.58c.88,2,1,5,2.69,6.53,3.35,3,4.39,5,6.11,9.32a23.13,23.13,0,0,1,1.37,13.07c-2.36,11.32-12.72,18.21-23,20.89l-4.32,1.11c-6.69,1.73-13.36,3.11-20.15,4.43-10.45,2-22.76.25-29.77-9A23.2,23.2,0,0,1,68.5,95.59c-.32-4.67-.21-6.84,1.51-11,.84-2.07-.33-4.88-.39-7A27,27,0,0,1,70.69,69c1.86-6.24,6.14-11.36,11.37-15.12a44.54,44.54,0,0,1,6.73-4A51.62,51.62,0,0,1,104.91,45.44Z"/><path class="cls-8" d="M93.32,91.65A11.14,11.14,0,1,1,80,83.17a11.18,11.18,0,0,1,13.34,8.48"/><path class="cls-8" d="M146.39,79.64a11.14,11.14,0,1,1-13.34-8.48,11.18,11.18,0,0,1,13.34,8.48"/><path class="cls-1" d="M115.26,91.9,104.7,94.29a.93.93,0,0,1-1.15-.68l-.07-.28a11.73,11.73,0,0,0,5.92-3.39,11.62,11.62,0,0,0,6.52.54l.08.3A1,1,0,0,1,115.26,91.9Z"/><path class="cls-9" d="M110.07,84.17c.18.79-.5,1.61-1.54,1.85a1.75,1.75,0,0,1-2.2-1c-.18-.78.51-1.61,1.55-1.85a1.73,1.73,0,0,1,2.19,1"/><path class="cls-10" d="M58.59,104.38l-.15-.15c-3.5-3.55-6.32-6.59-8.08-8.74-.11-.11-11.25-11.78-13-16.79-1.68-3-3.19-4.6-4.61-4.77a1,1,0,0,0-.25,0,2.56,2.56,0,0,0-1.86.93c-1.46,1.57-1,5.21.25,7.69l.38.75-.68.51A16.75,16.75,0,0,0,28.27,86c-.93,1.15-2.32,3.5-2.31,5.23,0,4.19,3.29,7.36,6.34,10,1.83,1.59,3.67,3.29,5.46,4.94a129.51,129.51,0,0,0,10.46,9l.34.26C54.28,114.47,57.77,109.78,58.59,104.38Z"/><path class="cls-5" d="M80.77,126.85c-.57-3.69-4.12-6.29-7-8.38l-.89-.66c-2.22-1.66-8.75-7.79-14.32-13.43-.82,5.4-4.31,10.09-10,11.07,1.56,1.16,3,2.27,4.44,3.35,4.42,3.34,7.91,6,11.52,8.2.86.52,1.69,1.1,2.5,1.66a23.39,23.39,0,0,0,6.32,3.46,9.3,9.3,0,0,0,2.76.45,5.11,5.11,0,0,0,3.38-1.1A4.81,4.81,0,0,0,80.77,126.85Z"/><path d="M76.1,133.82a10.55,10.55,0,0,1-3.14-.51,24.76,24.76,0,0,1-6.66-3.62c-.79-.56-1.61-1.12-2.43-1.63a142.44,142.44,0,0,1-11.62-8.27c-1.42-1.07-2.88-2.18-4.44-3.34l-.34-.25a134.7,134.7,0,0,1-10.56-9.09c-1.79-1.65-3.62-3.34-5.43-4.91-3.26-2.83-6.73-6.23-6.77-10.94,0-2.22,1.69-4.92,2.59-6a18.45,18.45,0,0,1,2.34-2.32C28.25,80,27.8,76,29.69,74a3.53,3.53,0,0,1,3.19-1.3c1.85.23,3.62,1.94,5.53,5.41a1.51,1.51,0,0,1,.09.18c1.41,4,9.69,13.14,12.76,16.35,1.81,2.2,4.58,5.19,8.07,8.73l.15.15c5.52,5.58,12,11.68,14.18,13.29l.89.66c3,2.23,6.8,5,7.46,9.19.49,3.11-.66,4.85-1.72,5.76A6.31,6.31,0,0,1,76.1,133.82ZM32.53,75.17a1.34,1.34,0,0,0-1,.53c-.93,1-.72,4,.44,6.27l.38.75A1.24,1.24,0,0,1,32,84.28l-.68.51a15.42,15.42,0,0,0-2.07,2,9,9,0,0,0-2,4.42c0,3.67,3.06,6.6,5.91,9.07,1.84,1.6,3.68,3.3,5.46,4.94A130.41,130.41,0,0,0,49,114.19l.33.25c1.57,1.17,3,2.28,4.46,3.36,4.39,3.32,7.86,6,11.41,8.13.89.54,1.73,1.13,2.55,1.69a22.43,22.43,0,0,0,6,3.31c2.05.64,3.92.48,5-.41a3.75,3.75,0,0,0,.88-3.48h0c-.5-3.17-3.81-5.61-6.48-7.56l-.89-.67A195,195,0,0,1,57.7,105.26l-.16-.16c-3.53-3.58-6.35-6.63-8.15-8.81-.4-.42-11.23-11.76-13.21-17.07-1.88-3.37-3.08-4-3.63-4Z"/><path d="M39.05,94.15a4.42,4.42,0,0,1-3.3-1.35,3.34,3.34,0,0,1-2.23,1h0a3.15,3.15,0,0,1-2.91-1.62,4.63,4.63,0,0,1,.41-4.6,9.76,9.76,0,0,1,5-3.88,1,1,0,1,1,.73,1.86,7.72,7.72,0,0,0-4.08,3.12,2.73,2.73,0,0,0-.32,2.55,1.14,1.14,0,0,0,1.15.57h0c.46,0,.92-.35,1.42-1.08a1,1,0,0,1,.83-.44h0a1,1,0,0,1,.82.44,2.86,2.86,0,0,0,3.18,1.44l.44,0a1,1,0,0,1,.1,2l-.38,0C39.66,94.12,39.37,94.15,39.05,94.15Z"/><path class="cls-11" d="M104.88,94c.92,4.51,2.75,7.81,6.83,7.12,3.84-.65,4.41-4.71,3.49-9.22l-.19-.54s-5-1.42-5.28-2.53c0,0-2.59,3.91-4.84,4.81Z"/><path d="M110.85,101.81c-2.51,0-5.39-1.63-6.74-8.24a.75.75,0,1,1,1.47-.3c1,5.14,3.09,7.47,6.09,7a3.29,3.29,0,0,0,2.27-1.41c1-1.49,1.22-4.09.56-7.32a.76.76,0,0,1,.59-.89.75.75,0,0,1,.88.59c.74,3.63.46,6.64-.79,8.47a4.79,4.79,0,0,1-3.26,2A6.26,6.26,0,0,1,110.85,101.81Z"/><path class="cls-5" d="M109.52,89.92l-3.91,3.41a20.85,20.85,0,0,0,8.81-1.92"/><line class="cls-5" x1="113.51" y1="90.91" x2="109.61" y2="89.16"/><path d="M115.23,91.53a7.56,7.56,0,0,0,.82-.07,8.1,8.1,0,0,0,1.69-.45,2.84,2.84,0,0,0,1.76-2,1.66,1.66,0,0,0-.81-1.58,1,1,0,0,0-1.36.28,1,1,0,0,0,.07,1.2,1.7,1.7,0,0,1-.39.28c-2,.77-4.33.38-7.22-1.18l-.14,0-.19,0a.39.39,0,0,0-.19,0,.58.58,0,0,0-.18,0,.51.51,0,0,0-.17.07.71.71,0,0,0-.18.08l-.13.13s-.08,0-.1.09c-1.93,2.68-3.89,4.06-6,4.22a1.43,1.43,0,0,1-.46-.08,1,1,0,0,0-.45-1.11,1,1,0,0,0-1.36.34,1.66,1.66,0,0,0,0,1.78,2.82,2.82,0,0,0,2.42,1h0a7.52,7.52,0,0,0,4.38-1.84,15.56,15.56,0,0,0,1.71-1.53c.28-.31.57-.65.84-1l.7.32A11.42,11.42,0,0,0,115.23,91.53Z"/><path class="cls-10" d="M163.82,120.94a6.71,6.71,0,0,1,.46,1c.27,2.11-2,5.18-3.26,6.6l-.09.11c-4.28,5-8.89,8.68-4,16.22a9.59,9.59,0,0,0,8.49,4.56,11.34,11.34,0,0,0,3.8-.85,12.14,12.14,0,0,0,2.11-1.15,9.12,9.12,0,0,0,3.92-9.6,21.78,21.78,0,0,0-.59-2.17l.3-.35C177,133,181.54,127.06,181,121,176.71,114.22,169.13,116.87,163.82,120.94Z"/><path class="cls-5" d="M180,117.09A26.5,26.5,0,0,0,159.46,103a11.66,11.66,0,0,0-1.57,0,12.8,12.8,0,0,0-4.1.84,4.64,4.64,0,0,0-3.08,3.19c-.53,2.34,1.13,3.4,4.92,6.8l.21.19a32.14,32.14,0,0,0,3.7,3,11,11,0,0,1,3.63,3.42,3.23,3.23,0,0,1,.28.6c5.31-4.06,13.26-6.79,17.57,0,0-.34-.06-.68-.12-1A10.42,10.42,0,0,0,180,117.09Z"/><path class="cls-3" d="M204.65,24.28a1.72,1.72,0,0,1,0-.64c.35-1.81.42-2.34.59-3.61l.26-1.84a2,2,0,0,1,2.14-1.69,1.88,1.88,0,0,1,1.72,2.07.36.36,0,0,1,0,.1l-.25,1.82c-.18,1.3-.26,1.89-.63,3.8a2,2,0,0,1-2.27,1.52A1.88,1.88,0,0,1,204.65,24.28Z"/><path d="M207.46,16.49h.19a1.88,1.88,0,0,1,1.72,2.07.36.36,0,0,1,0,.1l-.25,1.82c-.18,1.3-.26,1.89-.63,3.8a2,2,0,0,1-1.92,1.55,2,2,0,0,1-.35,0,1.88,1.88,0,0,1-1.55-1.53,1.72,1.72,0,0,1,0-.64c.35-1.81.42-2.34.59-3.61l.26-1.84a2,2,0,0,1,2-1.7m0-2h0a3.94,3.94,0,0,0-3.93,3.44l-.26,1.82c-.17,1.28-.24,1.75-.58,3.51a3.83,3.83,0,0,0,0,1.35,3.89,3.89,0,0,0,3.17,3.17,4,4,0,0,0,.7.06,4,4,0,0,0,3.88-3.16c.39-2,.48-2.64.65-3.92l.25-1.79,0-.17a3.86,3.86,0,0,0-.83-2.85,3.94,3.94,0,0,0-2.68-1.44l-.39,0Z"/><path class="cls-3" d="M212.63,28.6a2,2,0,0,1,.38-1.81c.77-.93,1.41-1.68,2-2.43l2-2.42a1.92,1.92,0,0,1,2.74-.22,2,2,0,0,1,.24,2.79L218,26.94c-.63.76-1.26,1.49-2.05,2.41a1.92,1.92,0,0,1-2.74.22A2,2,0,0,1,212.63,28.6Z"/><path d="M218.58,21.25a1.9,1.9,0,0,1,1.26.47,2,2,0,0,1,.24,2.79L218,26.94c-.63.76-1.26,1.49-2.05,2.41a1.9,1.9,0,0,1-1.47.69,1.93,1.93,0,0,1-1.27-.47,2,2,0,0,1-.61-1,2,2,0,0,1,.38-1.81c.77-.93,1.41-1.68,2-2.43l2-2.42a1.91,1.91,0,0,1,1.48-.69m0-2h0a3.88,3.88,0,0,0-3,1.41l-2,2.41-.43.51-1.62,1.93a4,4,0,0,0,.46,5.57,3.93,3.93,0,0,0,5.59-.45l.56-.66,1.48-1.74.78-.92,1.27-1.52a4,4,0,0,0-.46-5.58,3.94,3.94,0,0,0-2.57-1Z"/><path class="cls-3" d="M218.81,34.6a1.94,1.94,0,0,1,1.06-2.22c1.17-.53,2-.84,2.8-1.13s1.52-.58,2.61-1.06a1.88,1.88,0,0,1,2.48,1.06,2,2,0,0,1-.95,2.58c-1.18.52-2,.83-2.8,1.13s-1.53.58-2.61,1.06A1.88,1.88,0,0,1,218.92,35h0A2.12,2.12,0,0,1,218.81,34.6Z"/><path d="M226,30a1.93,1.93,0,0,1,1.76,1.21,2,2,0,0,1-.95,2.58c-1.18.52-2,.83-2.8,1.13s-1.53.58-2.61,1.06a1.83,1.83,0,0,1-.73.15,1.92,1.92,0,0,1-1.75-1.2h0a2.12,2.12,0,0,1-.1-.36,1.94,1.94,0,0,1,1.06-2.22c1.17-.53,2-.84,2.8-1.13s1.52-.58,2.61-1.06A1.82,1.82,0,0,1,226,30m0-2h0a3.74,3.74,0,0,0-1.54.33c-1,.43-1.65.69-2.48,1s-1.71.64-2.93,1.19a4,4,0,0,0-2.2,4.48,5.22,5.22,0,0,0,.21.68,3.94,3.94,0,0,0,3.61,2.45,3.83,3.83,0,0,0,1.56-.33c1-.46,1.73-.72,2.48-1s1.66-.63,2.91-1.18a4,4,0,0,0,2-5.19A3.92,3.92,0,0,0,226,28Z"/><path class="cls-12" d="M188.52,70.3c1.24,0,2.49,0,3.73,0,.52,0,1,0,1,.9s-.41,1-1,1l-7.75-.06c-.5,0-.88-.11-.86-.93s.38-.92.89-.91C185.9,70.31,187.21,70.3,188.52,70.3Z"/><path class="cls-13" d="M192.34,70.29c.48,0,.91.09.93.9s-.4,1-.93,1h0l-7.75-.06c-.5,0-.88-.11-.86-.93s.36-.91.85-.91h6.1l1.59,0h.09m0-1.5h-.11l-1.57,0h-6.1a2.19,2.19,0,0,0-2.35,2.38,2.45,2.45,0,0,0,.63,1.82,2.35,2.35,0,0,0,1.73.64l7.74.06h0a2.42,2.42,0,0,0,1.82-.68,2.46,2.46,0,0,0,.64-1.87,2.26,2.26,0,0,0-2.43-2.36Z"/><path class="cls-14" d="M188.5,66.81c1.28,0,2.56,0,3.84,0,.51,0,.92.08.93.87s-.34,1-.87,1c-2.63,0-5.25,0-7.88,0-.47,0-.81-.11-.81-.87s.34-.95.85-.94C185.88,66.82,187.19,66.81,188.5,66.81Z"/><path class="cls-13" d="M192.41,66.8c.48,0,.85.12.86.87s-.33,1-.86,1h0l-4.13,0h-3.75c-.47,0-.81-.12-.81-.87s.32-.94.81-.94h7.89m0-1.5h-7.89a2.29,2.29,0,0,0-1.68.63,2.45,2.45,0,0,0-.63,1.82,2.18,2.18,0,0,0,2.31,2.36h3.75l4.12,0h0a2.29,2.29,0,0,0,1.74-.66,2.38,2.38,0,0,0,.64-1.81,2.21,2.21,0,0,0-2.36-2.35Z"/><path class="cls-5" d="M188.53,65.15h-3.27A3,3,0,0,1,182.32,63a23.11,23.11,0,0,0-1.55-4.51c-.67-1.12-1.44-2.18-2.16-3.28-4.73-7.29.46-16.22,8.28-17.28A11.75,11.75,0,0,1,200.29,48c.44,3.43-.93,6.19-2.79,8.79a13.6,13.6,0,0,0-2.26,4.92c-.09.4-.24.79-.36,1.19a2.88,2.88,0,0,1-2.89,2.2c-1.15,0-2.31,0-3.46,0Z"/><path class="cls-13" d="M188.64,37.81A11.75,11.75,0,0,1,200.29,48c.44,3.43-.93,6.19-2.79,8.79a13.6,13.6,0,0,0-2.26,4.92c-.09.4-.24.79-.36,1.19a2.88,2.88,0,0,1-2.89,2.2l-1.33,0h-5.4A3,3,0,0,1,182.32,63a23.11,23.11,0,0,0-1.55-4.51c-.67-1.12-1.44-2.18-2.16-3.28-4.73-7.29.46-16.22,8.28-17.28a13.2,13.2,0,0,1,1.75-.12m0-1.5a14.3,14.3,0,0,0-1.95.13,13.37,13.37,0,0,0-10.24,7.63,12.24,12.24,0,0,0,.9,12c.27.42.55.83.83,1.23.46.69.9,1.34,1.3,2a9.91,9.91,0,0,1,.93,2.56c.15.55.3,1.11.5,1.68a4.45,4.45,0,0,0,4.34,3.15h5.41l1.37,0a4.37,4.37,0,0,0,4.28-3.25c0-.11.07-.21.1-.32.1-.31.21-.63.29-1a12.34,12.34,0,0,1,2-4.38c1.7-2.39,3.59-5.67,3.06-9.86a13.26,13.26,0,0,0-13.14-11.54Z"/><path class="cls-15" d="M179.3,47.86a8.25,8.25,0,0,1,6.57-7.47,4.51,4.51,0,0,1,1.51-.19c.4.06.75.17.76.68s-.29.63-.73.67a7.15,7.15,0,0,0-5,2.32,7.07,7.07,0,0,0-1.77,4c-.06.55,0,1.25-.69,1.25S179.33,48.4,179.3,47.86Z"/><path class="cls-5" d="M186.73,63.74l-2.91-8.63a.55.55,0,0,1,.81-.63l1.26.69a1.1,1.1,0,0,0,1.52-.48l.39-.85a.68.68,0,0,1,1.19,0l.53,1a.83.83,0,0,0,1.23.23l.95-.75a.56.56,0,0,1,.91.52l-1.92,8.94"/><path class="cls-15" d="M186.25,63.9l-2.91-8.63a1,1,0,0,1,.32-1.1,1.08,1.08,0,0,1,1.21-.13l1.26.69a.6.6,0,0,0,.49,0,.58.58,0,0,0,.34-.29l.39-.84a1.17,1.17,0,0,1,2.08-.07l.53,1a.32.32,0,0,0,.21.14.33.33,0,0,0,.27-.06l.95-.75a1.07,1.07,0,0,1,1.24-.06,1,1,0,0,1,.47,1.08l-1.92,8.93-1-.21,1.92-8.93h0l-.11,0h0l-1,.75a1.32,1.32,0,0,1-1.09.25,1.34,1.34,0,0,1-.88-.64l-.53-1a.16.16,0,0,0-.15-.08.16.16,0,0,0-.15.08l-.39.85a1.56,1.56,0,0,1-.92.82,1.66,1.66,0,0,1-1.29-.11l-1.26-.69-.1,0,2.91,8.63Z"/><path class="cls-9" d="M96.12,85.43h0a2.61,2.61,0,0,1-3.27-1.69l-.1-.34A2.71,2.71,0,0,1,98,82l.1.34a2.61,2.61,0,0,1-1.93,3.14"/><path class="cls-1" d="M94.68,81a.78.78,0,0,0-.22.36c-.16.64.29.85.74.93.25,0,1.3.21,1.45,0A1.23,1.23,0,0,0,96,80.72,1.59,1.59,0,0,0,94.68,81Z"/><path class="cls-9" d="M96,86.18h0a3.21,3.21,0,0,1-4-2.28l-.1-.42A3.35,3.35,0,0,1,98.51,82l.09.42A3.22,3.22,0,0,1,96,86.18"/><path class="cls-1" d="M94.48,81.15a.54.54,0,0,0-.1.3c0,.5.43.55.83.5.22,0,1.15-.17,1.23-.36.2-.5-.51-1-.93-1A1.56,1.56,0,0,0,94.48,81.15Z"/><path class="cls-1" d="M93.49,84.59a1.1,1.1,0,0,0,.59.35,1.24,1.24,0,0,0,1-.34c.08-.07.49-.84.15-.84s-.8,0-1-.45c-.12-.23-.15-.66-.44-.76s-.41.11-.55.28A1.46,1.46,0,0,0,93.49,84.59Z"/><path class="cls-1" d="M96.26,84.18a.45.45,0,0,0,.11.13c.37.26,1.06-.12,1.26-.43a1,1,0,0,0-.44-1.47c-.63-.21-.75.57-.85,1C96.29,83.67,96.15,84,96.26,84.18Z"/><path class="cls-9" d="M119.39,80.84h0A3.24,3.24,0,0,0,122,77.06l-.1-.43a3.36,3.36,0,0,0-6.52,1.51l.1.42a3.25,3.25,0,0,0,4,2.28"/><path class="cls-1" d="M117.83,75.8a.52.52,0,0,0-.1.31c0,.5.43.54.82.49.23,0,1.16-.16,1.23-.35.2-.51-.51-1-.92-1A1.61,1.61,0,0,0,117.83,75.8Z"/><path class="cls-1" d="M116.84,79.25a1,1,0,0,0,.58.34,1.25,1.25,0,0,0,1-.33c.07-.07.48-.85.15-.85s-.8,0-1-.45c-.11-.23-.14-.66-.43-.76s-.41.11-.55.28A1.45,1.45,0,0,0,116.84,79.25Z"/><path class="cls-1" d="M119.61,78.84a.31.31,0,0,0,.11.12c.36.27,1.06-.12,1.25-.43a1,1,0,0,0-.44-1.47c-.62-.21-.74.58-.84,1C119.64,78.32,119.5,78.63,119.61,78.84Z"/><path d="M164.83,149.9a10.19,10.19,0,0,1-9.17-5c-3.74-6.69-.11-11.59,4.27-16.43l1.64-1.64c1.08-1.2,2.33-3.17,2.13-4.63a2,2,0,0,0-.29-.75,10.56,10.56,0,0,0-3.29-3.17q-1-.65-2-1.26a51.57,51.57,0,0,1-6.65-4.59,6.2,6.2,0,0,1-2.17-6c.26-2,2.3-3.82,4.17-4.51,3.19-1.19,6.92-.15,8,.2a32.67,32.67,0,0,1,19.07,15.45,10.61,10.61,0,0,1,1.07,3.08c.61,3.2,0,8.42-6.15,15.18.16.52.29,1,.4,1.48a9.69,9.69,0,0,1-4.47,10.44A13.54,13.54,0,0,1,169,149a10.48,10.48,0,0,1-3.75.88Zm-8-46a7.13,7.13,0,0,0-2.48.39,4.06,4.06,0,0,0-2.56,2.49,3.7,3.7,0,0,0,1.31,3.74,51,51,0,0,0,6.34,4.38c.68.41,1.36.83,2,1.27a13.08,13.08,0,0,1,4.11,4,4.47,4.47,0,0,1,.61,1.67c.39,2.91-2,5.85-2.8,6.69l-1.64,1.64c-4.67,5.17-6.58,8.69-3.9,13.49a7.85,7.85,0,0,0,7.36,3.68,7.74,7.74,0,0,0,2.93-.71,11.27,11.27,0,0,0,1.89-1,7.26,7.26,0,0,0,3.38-7.79,19.72,19.72,0,0,0-.56-1.93l-.24-.69.81-.89c4.48-4.83,6.46-9.41,5.73-13.24a8.54,8.54,0,0,0-.83-2.37,30.18,30.18,0,0,0-17.63-14.24A13.22,13.22,0,0,0,156.81,103.93Z"/></svg>