<svg id="레이어_3" data-name="레이어 3" xmlns="http://www.w3.org/2000/svg" viewBox="0 0 220 280"><defs><style>.cls-1,.cls-6,.cls-9{fill:#fff;}.cls-2{fill:#0088c5;}.cls-3{fill:#683100;}.cls-4{fill:#009ff9;}.cls-5{fill:#009ff8;}.cls-11,.cls-6,.cls-7{fill-rule:evenodd;}.cls-7{fill:#ffbeb8;}.cls-8{fill:#5fd9ff;}.cls-9{opacity:0.49;}.cls-10{fill:#d24848;}</style></defs><path class="cls-1" d="M148.93,227.25a27.67,27.67,0,0,0-10.8,2.83c-3.56,1.71-8.45,6.37-7.92,10.28.39,2.88,2.75,3.77,5.48,3.61,4.17-.24,8-2.85,12.11-3.31C142.81,234,146.15,229.51,148.93,227.25Z"/><path class="cls-2" d="M162.13,245.69c3.45,3.6,7.9,7.25,12.31,7.77,3.91.47,7.36-.4,9.6-3.64s3.52-9.13,4.35-13c1.09-5.12,1.62-11.16-2-14.91-2.9-3-7.63-3.23-11.33-1.71-5.72,2.35-6.17,7.94-8.14,10.42-1.48,1.86-4.4-.42-5.91-1.07a27.51,27.51,0,0,0-12.06-2.32c-2.78,2.26-6.12,6.76-1.13,13.41a10.57,10.57,0,0,1,1.69-.07C154,240.8,158.92,242.34,162.13,245.69Z"/><path d="M176.34,255.08a16.71,16.71,0,0,1-2.08-.13c-4-.48-8.44-3.24-13.21-8.22-2.62-2.73-6.86-4.42-11.63-4.64a9,9,0,0,0-1.45.06,23.32,23.32,0,0,0-5.4,1.54,23.13,23.13,0,0,1-6.79,1.78c-4,.23-6.6-1.55-7.06-4.9-.63-4.67,4.68-9.88,8.76-11.84a28,28,0,0,1,24.1-.54,13,13,0,0,1,1.22.63c.89.48,2.53,1.37,2.92.89a12.56,12.56,0,0,0,1.36-2.6c1.2-2.71,2.84-6.41,7.39-8.28,3.91-1.6,9.44-1.59,13,2h0c4.33,4.46,3.45,11.42,2.41,16.27-.8,3.74-2.14,10-4.58,13.52A10.19,10.19,0,0,1,176.34,255.08Zm-27.29-16h.51c5.53.25,10.51,2.28,13.65,5.56,4.22,4.4,8.16,6.93,11.41,7.32,3.79.45,6.47-.53,8.19-3,2.1-3,3.36-8.93,4.11-12.45.89-4.17,1.7-10.12-1.63-13.55-2.56-2.64-6.71-2.58-9.68-1.36-3.43,1.41-4.68,4.23-5.78,6.71a15.24,15.24,0,0,1-1.76,3.26c-2,2.46-5,.77-6.7-.13-.36-.2-.69-.38-1-.5a25,25,0,0,0-21.62.48c-3.17,1.52-7.5,5.68-7.08,8.73.09.69.33,2.52,3.9,2.31a20.56,20.56,0,0,0,5.92-1.59,26.09,26.09,0,0,1,6.11-1.71A11.65,11.65,0,0,1,149.05,239.08Z"/><path class="cls-1" d="M144.7,185.18c-3.93-4.62-8.75-8-13.84-11.71-2.25-1.64-10.55-7.44-5.24-10.69,1.92-1.18,5,0,6.91.51a43.16,43.16,0,0,1,11.66,5.15,48.68,48.68,0,0,1,10.59,9.16A38.61,38.61,0,0,0,144.7,185.18Z"/><path class="cls-2" d="M153.51,204.5l0-.23a44,44,0,0,0-1.32-5.61,36.4,36.4,0,0,0-3.06-7.13c-.64-1.14-1.35-2.28-2.14-3.44s-1.48-2-2.26-2.91a38.61,38.61,0,0,1,10.08-7.58,58.93,58.93,0,0,1,4.14,5.33c3.62,5.3,7.4,11.65,8.47,18.18A9.45,9.45,0,0,1,164,210a10.67,10.67,0,0,1-1.77,1.13c-2.09,1.06-4.61,1.3-6.38-.06a4.33,4.33,0,0,1-.85-.92C153.87,208.58,153.85,206.39,153.51,204.5Z"/><path d="M124.81,163.39a4.89,4.89,0,0,1,.81-.61c1.92-1.18,5,0,6.91.51a43.16,43.16,0,0,1,11.66,5.15,48.68,48.68,0,0,1,10.59,9.16,58.93,58.93,0,0,1,4.14,5.33c3.62,5.3,7.4,11.65,8.47,18.18a9.46,9.46,0,0,1-2.82,8.38c-.19.18-.39.35-.6.52a10.67,10.67,0,0,1-1.77,1.13c-2.09,1.06-4.61,1.3-6.38-.06a4.33,4.33,0,0,1-.85-.92c-1.1-1.57-1.12-3.77-1.46-5.66l0-.23a44,44,0,0,0-1.32-5.61,36.4,36.4,0,0,0-3.06-7.13c-.64-1.14-1.35-2.28-2.14-3.44s-1.48-2-2.26-2.91c-3.93-4.62-8.74-8-13.84-11.71-2.12-1.54-9.58-6.76-6.05-10.08m-2.25-2.4a6.15,6.15,0,0,0-2,4.8c.19,4,4.2,7.43,8.11,10.25l.19.15.84.61c4.62,3.35,9,6.51,12.45,10.59.84,1,1.49,1.83,2,2.64.75,1.1,1.41,2.14,2,3.19a32.75,32.75,0,0,1,2.79,6.51,38.38,38.38,0,0,1,1.22,5.18l0,.26c.07.39.13.81.18,1.22a12.5,12.5,0,0,0,1.81,5.73,7.49,7.49,0,0,0,1.53,1.63c2.6,2,6.4,2.13,9.92.36A14.72,14.72,0,0,0,166,212.6c.29-.23.57-.47.84-.71a13,13,0,0,0,3.87-11.42c-1.21-7.37-5.44-14.28-9-19.47a60.48,60.48,0,0,0-4.38-5.63,51.88,51.88,0,0,0-11.28-9.76,46.71,46.71,0,0,0-12.54-5.54l-.73-.21c-2.34-.69-5.88-1.73-8.85.09a8.64,8.64,0,0,0-1.37,1Z"/><path class="cls-1" d="M119.47,77a10.83,10.83,0,0,0-5.76,3.49c-2.49,3-4.27,8.82-2.86,12.61.49,1.32,2.08.56,3.86.41,2.11-.18,1.68-2.14,3.35-3.82,2.4-2.42,4.45.45,8,3.48a7.35,7.35,0,0,0,9.91-.38,6.32,6.32,0,0,0-.4-9.3C130.09,78.67,126.49,75.11,119.47,77Z"/><path d="M124,76.5c4.34.37,7.42,3.31,11.6,7a6.32,6.32,0,0,1,.4,9.3,7.36,7.36,0,0,1-9.91.38c-2.53-2.16-4.29-4.23-6-4.38a2.48,2.48,0,0,0-2,.9c-1.67,1.68-1.24,3.64-3.35,3.82a25.2,25.2,0,0,1-2.84.34,1.08,1.08,0,0,1-1-.75c-1.41-3.79.37-9.57,2.86-12.61A10.83,10.83,0,0,1,119.47,77a13.05,13.05,0,0,1,4.5-.46m.3-3.38a16.3,16.3,0,0,0-5.66.56,14.07,14.07,0,0,0-7.53,4.62c-3.15,3.86-5.29,10.88-3.41,15.94a4.47,4.47,0,0,0,3.91,3A9.13,9.13,0,0,0,114,97a10.2,10.2,0,0,1,1-.15,5.64,5.64,0,0,0,4.86-3.76c.12-.26.22-.47.31-.64.54.42,1.28,1.09,1.86,1.62s1.18,1.08,1.84,1.64a10.75,10.75,0,0,0,14.54-.59,9.71,9.71,0,0,0-.6-14.22l-.8-.7c-4.07-3.56-7.57-6.64-12.73-7.08Z"/><path class="cls-3" d="M124.72,88.86a3,3,0,0,1,1.6,0,2.58,2.58,0,0,1,.37-4.85,2.92,2.92,0,0,1,2,.12,2.68,2.68,0,0,1-1.22-1.39c-.5-1.39.73-2.83,2.21-3.29.13,0,.74,0,.88,0a20,20,0,0,1,5,4,6.32,6.32,0,0,1,.4,9.3,7.35,7.35,0,0,1-9.91.38c-.84-.72-2.47-2.14-3-2.59-.73-.65.63-1.37,1.64-1.68"/><path class="cls-1" d="M77.62,80.39A12.51,12.51,0,0,1,85.13,83c3.7,3,6.62,6.77,6.15,11.72-.16,1.72-2.81,3.46-4.86,3.77-2.43.36-2.43-1.43-4.81-3-3.42-2.26-4.87,1.75-8,6.38a8.08,8.08,0,0,1-11.26,2.23,8.2,8.2,0,0,1-2.3-11.3C64.82,85.56,69.17,80.08,77.62,80.39Z"/><path d="M75.47,80.44a18.9,18.9,0,0,1,2.15,0A12.51,12.51,0,0,1,85.13,83c3.7,3,6.62,6.77,6.15,11.72-.16,1.72-2.81,3.46-4.86,3.77l-.28,0c-2.15.19-2.24-1.53-4.53-3a3.2,3.2,0,0,0-2-.64c-2.12.19-3.54,3.41-6,7a8.07,8.07,0,0,1-11.26,2.23,8.2,8.2,0,0,1-2.3-11.3C64.4,86.2,68.4,81.06,75.47,80.44m-.3-3.38h0c-8.66.76-13.42,7-17.93,13.9a11.59,11.59,0,0,0,10.65,17.9,11.45,11.45,0,0,0,8.57-5.09c.57-.85,1.09-1.68,1.57-2.46a28.7,28.7,0,0,1,1.91-2.83,8,8,0,0,1,1.07,1,6.06,6.06,0,0,0,5.43,2.42l.49-.05c2.9-.44,7.37-2.91,7.73-6.82.5-5.36-2-10.3-7.4-14.67A15.71,15.71,0,0,0,77.74,77a21.85,21.85,0,0,0-2.57.06Z"/><path class="cls-3" d="M73.88,96.37a3.19,3.19,0,0,0-1.8.43,3.22,3.22,0,0,0,1.13-2.2,3.29,3.29,0,0,0-3-3.54,3.22,3.22,0,0,0-2.22.68,3.24,3.24,0,0,0,1-2c.15-1.8-1.66-3.2-3.46-3.35a9.39,9.39,0,0,0-1,.21,23.23,23.23,0,0,0-4.43,6.22,8.21,8.21,0,0,0,2.3,11.31,8.09,8.09,0,0,0,11.26-2.23c.73-1.1,2.15-3.26,2.59-3.94.62-1-1.12-1.48-2.35-1.58"/><path d="M107.5,92.6c10.61,0,21.61,4.32,30.39,10.26,7.5,5.07,12.59,14.21,15.24,22.72.16.52.28,1,.42,1.54.3.87.59,1.74.84,2.61,3,10.35,1.21,19.36-1.66,29.63-.62,2.22-5.1,13.12-5.18,13.64-1.29,6,1.81,13.29,2.67,19.19,1.59,11,1.9,22.28-2.68,32.64-6.24,14.11-20.77,19.12-35.2,20.09-1.42.1-2.85.14-4.27.14h-1.14L103.4,245c-1.73,0-3.53-.12-5.26-.28C86.27,243.57,73.2,239,65.78,229.1c-5.36-7.13-7.4-18.95-6.81-27.75.46-6.87,2.57-13.51,3.86-20.24.51-2.64,1.5-5.22,1.29-7.9,0-.56-.12-1.12-.21-1.67-.42-1.21-3.65-10.31-4.47-13.78a56.52,56.52,0,0,1-1.83-24.61c1.28-8.82,4.87-18.65,11.47-24.84,8.48-8,19.9-14.39,31.44-15.28l.21,0,3.71-.29q1.52-.12,3.06-.12m0-3.39c-1.13,0-2.25,0-3.34.13l-3.69.29-.28,0c-11.16.85-23.37,6.75-33.43,16.17-6.34,6-10.9,15.73-12.51,26.84a59.78,59.78,0,0,0,1.91,26c.7,2.91,2.79,9,4.45,13.72,0,.39.1.75.13,1.11a15.49,15.49,0,0,1-.68,4.54c-.2.82-.4,1.63-.56,2.46-.41,2.15-.93,4.37-1.43,6.51a88.66,88.66,0,0,0-2.49,14.14c-.61,9.17,1.47,22,7.49,30,7,9.33,19.67,15.5,34.74,17,1.77.17,3.69.28,5.55.3l3.53.05h1.18c1.5,0,3-.05,4.5-.15,19.08-1.28,32.25-8.93,38.08-22.11,5.29-12,4.35-24.73,2.93-34.5-.3-2-.83-4.2-1.35-6.29-1-4.08-2-8.29-1.38-11.59.19-.56,1-2.56,1.68-4.33,1.79-4.55,3.09-7.87,3.47-9.22,2.79-10,5-19.91,1.65-31.49-.26-.88-.55-1.77-.85-2.66l-.13-.48c-.09-.35-.19-.71-.3-1.06-3.34-10.73-9.38-19.67-16.58-24.53-10.33-7-21.8-10.84-32.29-10.84Z"/><path class="cls-4" d="M152.73,159.36c2.87-10.27,4.68-19.28,1.66-29.63-.25-.87-.54-1.74-.84-2.61-.14-.51-.26-1-.42-1.54-2.65-8.51-7.74-17.65-15.24-22.72-9.62-6.51-21.92-11.08-33.45-10.14l-3.71.29-.21,0c-11.54.89-23,7.34-31.44,15.28-6.6,6.19-10.19,16-11.47,24.84a56.52,56.52,0,0,0,1.83,24.61c.82,3.47,4.05,12.57,4.47,13.78.09.55.17,1.11.21,1.67.21,2.68-.78,5.26-1.29,7.9-1.29,6.73-3.4,13.37-3.86,20.24-.59,8.8,1.45,20.62,6.81,27.75,7.42,9.86,20.49,14.47,32.36,15.62,1.73.16,3.53.26,5.26.28l3.53.05h.21c1.73,0,3.47,0,5.2-.14,14.43-1,29-6,35.2-20.09,4.58-10.36,4.27-21.68,2.68-32.64-.86-5.9-4-13.21-2.67-19.19C147.63,172.48,152.11,161.58,152.73,159.36Z"/><path class="cls-5" d="M104.44,92.72l-.21,0Z"/><path class="cls-1" d="M83,193.52c-2.85-5.1-4.23-10.58-5.8-16.42-.7-2.58-3-12-8-8.32-1.8,1.34-1.85,4.49-2.06,6.4a40.19,40.19,0,0,0,.52,12.26,44.65,44.65,0,0,0,4.63,12.63A39.87,39.87,0,0,1,83,193.52Z"/><path class="cls-2" d="M97.74,208l-.19-.12a40.47,40.47,0,0,1-4.72-3.07,33.65,33.65,0,0,1-5.51-5.16c-.82-1-1.62-2-2.4-3.08a33.44,33.44,0,0,1-1.88-3,39.87,39.87,0,0,0-10.72,6.55,52.48,52.48,0,0,0,3.43,5.53c3.6,5.05,8.1,10.59,13.77,13.76a9.73,9.73,0,0,0,9.52-.11,11.38,11.38,0,0,0,1.7-1.21c1.74-1.53,2.88-3.72,2.27-5.78a4,4,0,0,0-.54-1.08C101.41,209.66,99.38,208.91,97.74,208Z"/><path d="M70.09,168.25c4.37-2.07,6.49,6.42,7.14,8.85,1.58,5.84,3,11.32,5.81,16.42a33.44,33.44,0,0,0,1.88,3c.78,1.1,1.58,2.13,2.4,3.08a33.65,33.65,0,0,0,5.51,5.16,40.47,40.47,0,0,0,4.72,3.07l.19.12c1.64.94,3.67,1.69,4.73,3.21a4,4,0,0,1,.54,1.08c.61,2.06-.53,4.25-2.27,5.78a11.38,11.38,0,0,1-1.7,1.21,7.88,7.88,0,0,1-.7.37,9.76,9.76,0,0,1-8.82-.26c-5.67-3.17-10.17-8.71-13.77-13.76a52.48,52.48,0,0,1-3.43-5.53,44.65,44.65,0,0,1-4.63-12.63,40.19,40.19,0,0,1-.52-12.26c.21-1.91.26-5.06,2.06-6.4a4.77,4.77,0,0,1,.86-.53m-1.4-2.84a8.12,8.12,0,0,0-1.47.89c-2.78,2.07-3.11,5.61-3.32,8l-.07.72a43.16,43.16,0,0,0,.55,13.18,47.86,47.86,0,0,0,4.93,13.46,54.69,54.69,0,0,0,3.63,5.85c3.52,4.94,8.38,11.08,14.78,14.66a13.3,13.3,0,0,0,12,.33,10,10,0,0,0,1-.51,13.83,13.83,0,0,0,2.26-1.61c2.93-2.58,4.19-6.05,3.29-9.07a6.73,6.73,0,0,0-1-1.92,12,12,0,0,0-4.65-3.56c-.37-.19-.73-.38-1.07-.58l-.22-.12A36.9,36.9,0,0,1,95,202.25a31.53,31.53,0,0,1-5-4.71c-.76-.88-1.49-1.82-2.23-2.86A31.77,31.77,0,0,1,86,191.93c-2.51-4.5-3.85-9.49-5.27-14.79l-.26-1-.06-.22c-1.2-4.48-2.91-9.25-6.56-10.76a6.33,6.33,0,0,0-5.19.21Z"/><path class="cls-6" d="M159.8,161.64c-5.88,7.32-17.48,12.27-31,13.26-33.57,2.49-51-7.46-53.25-30.45-.34-3.26-1.44-20,8.4-31.67a30.84,30.84,0,0,1,11-8.15,44.09,44.09,0,0,1,15.18-3.51c1.73-.11,3.37-.16,5-.16,34.73,0,37.56,24.69,37.64,25.88a1.71,1.71,0,0,0,1.27,1.47c.34.11,9.85,4.51,11.38,15.43C166.31,150.67,163.79,156.69,159.8,161.64Z"/><path class="cls-7" d="M125,147.55c.16,6.93-5,12.68-11.61,12.84s-12-5.33-12.21-12.26,5-12.67,11.6-12.83,12.05,5.33,12.22,12.25"/><path class="cls-7" d="M163.49,140.14c-.59-2.35-3.38-10.23-7.22-7.4-5.17,3.81-2.78,13.53-.21,18.36,1,1.9,2.83,4.12,5.39,3.64,1.43-.27,2-3,2.16-3.93A24.17,24.17,0,0,0,163.49,140.14Z"/><path d="M166.72,141.26c-1.53-10.83-8.91-14.73-11.77-15.84-.87-5.62-5.76-27.86-39.8-27.86-1.67,0-3.42.06-5.26.17-12.42.82-22,5.18-28.53,12.87-10.47,12.36-9.7,29.29-9.22,34.19,2.26,22.73,17.67,33.9,47,33.9,3.14,0,6.44-.14,9.92-.4,14.68-1.07,25.84-6.36,32.4-14.5C166,158.08,167.82,149.18,166.72,141.26Zm-91.19,3.19c-.34-3.26-1.44-20,8.4-31.67a30.84,30.84,0,0,1,11-8.15,44.09,44.09,0,0,1,15.18-3.51c1.73-.11,3.37-.16,5-.16,34.73,0,36.56,24.69,36.64,25.88a1.71,1.71,0,0,0,1.27,1.47c.34.11,8.85,2.51,10.38,13.43,1,6.93-.56,14.95-4.55,19.9-5.88,7.32-16.48,12.27-30,13.26C95.21,177.39,77.82,167.44,75.53,144.45Z"/><path class="cls-1" d="M119.14,232.08A27.43,27.43,0,0,0,108,233.14c-3.78,1.12-9.36,4.94-9.46,8.89-.07,2.9,2.12,4.15,4.84,4.43,4.15.43,8.31-1.54,12.48-1.33C112,237.77,116,233.86,119.14,232.08Z"/><path class="cls-4" d="M129.22,252.39c2.83,4.1,6.64,8.41,10.91,9.63,3.79,1.09,7.33.79,10.06-2s4.94-8.45,6.36-12.13c1.9-4.87,3.39-10.75.39-15-2.37-3.4-7-4.4-10.9-3.49-6,1.4-7.36,6.85-9.71,9-1.76,1.6-4.27-1.12-5.66-2a27.42,27.42,0,0,0-11.53-4.21c-3.1,1.78-7.13,5.69-3.26,13a10.69,10.69,0,0,1,1.68.2C122,246.26,126.59,248.57,129.22,252.39Z"/><path d="M143.93,264.11a15.56,15.56,0,0,1-4.21-.64c-3.87-1.11-7.82-4.55-11.73-10.23-2.15-3.12-6.06-5.46-10.74-6.44a10.29,10.29,0,0,0-1.44-.18,23.47,23.47,0,0,0-5.58.67,22.9,22.9,0,0,1-7,.66c-3.95-.4-6.26-2.63-6.18-6,.12-4.71,6.19-9,10.53-10.29A28,28,0,0,1,131.47,235a12.79,12.79,0,0,1,1.11.81c.8.61,2.29,1.76,2.74,1.34a12.51,12.51,0,0,0,1.76-2.34c1.61-2.48,3.82-5.88,8.62-7,4.11-1,9.56-.06,12.47,4.1h0c3.56,5.1,1.58,11.83-.22,16.45-1.38,3.56-3.7,9.52-6.68,12.61A9.79,9.79,0,0,1,143.93,264.11Zm-28.67-20.5.69,0a11.58,11.58,0,0,1,1.92.24c5.42,1.13,10,3.92,12.59,7.67,3.51,5.09,6.9,8.13,10.08,9,3.68,1.06,6.48.51,8.57-1.65,2.56-2.67,4.74-8.28,6-11.63,1.55-4,3.29-9.72.56-13.64-2.11-3-6.21-3.62-9.34-2.89-3.62.84-5.3,3.42-6.79,5.7a14.7,14.7,0,0,1-2.25,2.93c-2.33,2.12-5.1,0-6.59-1.19-.33-.25-.62-.49-.88-.65a25,25,0,0,0-21.42-3c-3.37,1-8.31,4.41-8.39,7.48,0,.7-.06,2.55,3.49,2.91a21,21,0,0,0,6.09-.62A28.26,28.26,0,0,1,115.26,243.61Z"/><path class="cls-8" d="M25.91,199.21c-.36,1.71-.23,3.8,1.23,4.76s3.55.17,4.89-1c.75-.68,10.93-10.67,4.1-14.14C31.18,186.3,26.63,195.62,25.91,199.21Z"/><path class="cls-8" d="M56.26,242c.16,1.9.11,4,2.32,5.08a5,5,0,0,0,5.36-.78A10.57,10.57,0,0,0,67.35,241a1.71,1.71,0,0,1,1.9-1.23c2.12.42,6.28-1.06,8.49-2,3.12-1.3,4.84-4.65,5.86-7.87,2.89-9.1,2.19-18.95.63-28.36s-4-19.74-4.45-29.27,1.19-19.57,7-27.16,20.38-15,29.29-11.55c9.6,3.7,7.45-2.67,1.61-7.42-7-5.69-18-7.6-26.82-7.79-9.11-.21-18.7,1.15-26,6.58-5,3.68-8.52,9-11.25,14.54-11,22.39-12.58,53.74-9.22,78.48.49,3.63.89,10.22,5.88,11C50.24,229,55.19,229.45,56.26,242Z"/><path class="cls-8" d="M204.92,205.15c-.6,11.31-3.33,24.84-15.4,29.09-5.82,2-8.08-2.21-8.28-7.4,0-1.17,1.33-15.31.43-15.09-1.28.3-2.68,1.13-4.08,1.28-6.43.68-7.29-5.72-5.93-10.35,5-17.13,4.52-35.51,4.53-53.19,0-8.69-.93-19-10.06-22.76-5.7-2.36-13.9,5-15.18,3.33-3.89-5.22,7.08-13.81,9.59-15.19a22.9,22.9,0,0,1,19.66-1.23A29.38,29.38,0,0,1,195.42,130c7.07,19.13,9.66,39.76,9.64,60.07C205.06,194.49,205.2,199.78,204.92,205.15Z"/><path class="cls-8" d="M209.52,207.36c.68,1.47,1.86,3.09,3.49,3a3,3,0,0,0,2.43-2.73c.45-3.62-1.3-10.54-4.41-12.82-.84-.62-2.29-.52-2.68.45C208.35,195.22,206,199.75,209.52,207.36Z"/><path class="cls-8" d="M163.39,109.7c1.52-.64,3.18-2,2.73-3.59a2.51,2.51,0,0,0-2.68-1.58,5.7,5.7,0,0,0-3,1.48,16.59,16.59,0,0,0-3.77,4.45s-.39,1,1,.75A23.48,23.48,0,0,0,163.39,109.7Z"/><path class="cls-9" d="M81.32,124a14.44,14.44,0,0,0-7.48,1.41c-1.08.53-2.22,1.94-1.33,2.77a2,2,0,0,0,1.2.4l3.71.42a5.08,5.08,0,0,1,2.52.74,1.74,1.74,0,0,1,.54,2.33c-.41.54-1.18.66-1.71,1.08-1.07.86-.72,2.71.35,3.57a5.94,5.94,0,0,0,3.91.95,27,27,0,0,0,5.45-.62,4.5,4.5,0,0,0,1.7-.64,3.13,3.13,0,0,0,1-3.42,6,6,0,0,0-2.28-3,2,2,0,0,1-.86-1,3.2,3.2,0,0,1,0-1.15,3.47,3.47,0,0,0-2.19-3.23A10.24,10.24,0,0,0,81.8,124"/><path class="cls-9" d="M48,164.49c-.31,1.42-.43,3,.53,4.18,1.25,1.49,3.71,1.44,5.66.88s3.88-1.49,5.91-1.28c2.79.28,4.81,2.63,5.86,5s1.47,5,2.79,7.34c.62,1.08,2,2.18,3.1,1.55a2.45,2.45,0,0,0,1-1.53l3.46-10.17c1-3,1.87-6.75-.58-8.94-2-1.75-7.56-1.1-9.19-4.36-2.06-4.11-.17-16-8.69-13.58C52.13,145.26,49.08,159.59,48,164.49Z"/><path class="cls-9" d="M47.07,211.22A7.77,7.77,0,0,0,49,215.63c3.68,3.77,5.86.19,9.53-.26A3.62,3.62,0,0,1,62,217.56c1.69,3.44,0,8.48,4.58,10.11,2.36.84,3.77-.77,5.78-1.55,2.57-1,4.58,1,6.87-.05,4.41-2,2.41-10.65,0-13.44a3.68,3.68,0,0,0-3.56-1.38c-2.33.62-2.73,3.76-5.34,4-1.76.14-3.2-1.14-4.11-2.31-3.11-4-4.68-8.54-6.09-13-.57-1.8-1.3-3.79-3.43-4.82a7.64,7.64,0,0,0-6.43.23C44.86,198.17,46.34,206.81,47.07,211.22Z"/><path class="cls-9" d="M182.34,138a2.77,2.77,0,0,0,3.63-.15c1-1,.8-2.71.69-4.16s.19-3.27,1.58-3.7c.85-.26,1.79.13,2.64-.14a2.26,2.26,0,0,0,1.41-2.17,4.64,4.64,0,0,0-.93-2.58,10.74,10.74,0,0,0-8.18-4.69c-1.66-.09-3.52.32-4.47,1.68s-1,3.6-1.64,5.23C177.07,127.29,175.64,131.86,182.34,138Z"/><path class="cls-9" d="M178.52,179.51a5.83,5.83,0,0,0,.2,2.6,2.11,2.11,0,0,0,2,1.46,3,3,0,0,0,1.59-.84,21,21,0,0,0,3.95-4.57c.82-1.29,1.78-2.84,3.3-2.87,1.89,0,2.86,2.19,3.41,4a59,59,0,0,0,3.11,8.05,2.34,2.34,0,0,0,1.1,1.3c2.85,1.06,2.71-8.19,2.72-9.42.06-4.88.29-9.88-2.44-14.11-2.06-3.2-5.85,2.38-7.53,4-5,4.71-4.65-2.59-8.54-1.61C178.25,168.23,178.7,177.07,178.52,179.51Z"/><path class="cls-9" d="M175.24,204.45c.5,2.37,3,4.47,5.27,3.62s3.29,0,3.6,2.23c.53,3.79.9,7.62,1.35,11.42.23,2,.91,4.54,2.92,4.87a3.23,3.23,0,0,0,3.27-2.25c1.83-4.93-1-14.21-3.9-18.39a7.49,7.49,0,0,0-3.21-2.71c-1.35-.51-3,0-4.1-1.09s-.67-2.62-.8-4C179,191.15,174.47,200.82,175.24,204.45Z"/><path class="cls-10" d="M151.9,140.63a11,11,0,0,1-8.05-2.95c-2.19,2.9-3.35,3.12-6,4.92-1.26.86-4.15,1.06-5.7,1-1.06,0-1.37,4.17-1.43,5.79l-.3,8.59s-.32,10.47,13.64,5.32c0,0,8.26-2.59,8.46-11.46l.63-8.86C153.3,141.77,152.7,140.62,151.9,140.63Z"/><path class="cls-1" d="M132.16,143.6c-.33,0,.58,1.78.8,2,.83.95,2.25,1,3.4,1.08a23.77,23.77,0,0,0,11.17-2.08c1.54-.73,2.9-1.61,3.17-3.55,0,0-5.82-1.31-6.21-3C144.49,138.07,139.22,143.92,132.16,143.6Z"/><path d="M137.42,165.57a8.63,8.63,0,0,1-5.27-1.58,9.16,9.16,0,0,1-3.35-6.34,1,1,0,0,1,0-.17L130,145.75c.08-2.15,1.37-3.86,2.89-3.79a15.6,15.6,0,0,0,4.29-.37c2.54-.62,4-2,6.14-4.93a.81.81,0,0,1,1.21-.15c2.42,2.07,3.91,2.93,6.76,2.91h0a1.88,1.88,0,0,1,1.46.76,3.72,3.72,0,0,1,.68,2.62l.1,8.64c-.53,10.26-8.21,12.4-9.1,12.62A20.21,20.21,0,0,1,137.42,165.57Zm-6.85-8a7.14,7.14,0,0,0,2.58,4.77c2.34,1.72,6,1.66,10.77-.19l.14,0c.29-.06,7.24-1.56,7.72-10.75l-.11-8.63a.61.61,0,0,1,0-.14,1.66,1.66,0,0,0-.24-1.14c-.06-.07-.11-.1-.14-.1h0c-3,.06-4.88-.86-7.18-2.75-1.86,2.4-3.56,4.14-6.57,4.88a17.2,17.2,0,0,1-4.73.41c-.46,0-1,.83-1.07,2Z"/><path class="cls-11" d="M144.53,133c0,.91-.91,1.66-2.1,1.69a1.7,1.7,0,1,1,2.1-1.69"/><path d="M123.88,133.54A1,1,0,0,1,123,133a1,1,0,0,1,.41-1.35c1-.53,2.25-1,3.45-1.56l1.1-.46c-.87-.18-1.81-.28-2.74-.38s-1.63-.18-2.36-.32a1,1,0,1,1,.37-2c.66.12,1.41.21,2.21.29a15,15,0,0,1,5.67,1.37,1,1,0,0,1,0,1.75c-1,.53-2.24,1.05-3.45,1.56s-2.36,1-3.28,1.47A1,1,0,0,1,123.88,133.54Z"/><path d="M148.44,129.41a1,1,0,0,1-.25-.06,5.49,5.49,0,0,0-1.81-.32,7.61,7.61,0,0,1-2.37-.45,1,1,0,0,1-.63-.7,1,1,0,0,1,.23-.91,11.51,11.51,0,0,1,4.2-3.1,1,1,0,1,1,.9,1.78,11.51,11.51,0,0,0-2.3,1.38h.09a7.43,7.43,0,0,1,2.38.45,1,1,0,0,1-.44,1.93Z"/></svg>