<?xml version="1.0" encoding="utf-8"?>
<!-- Generator: Adobe Illustrator 23.0.2, SVG Export Plug-In . SVG Version: 6.00 Build 0)  -->
<svg version="1.1" id="Layer_6" xmlns="http://www.w3.org/2000/svg" xmlns:xlink="http://www.w3.org/1999/xlink" x="0px" y="0px"
	 viewBox="0 0 650 150" style="enable-background:new 0 0 650 150;" xml:space="preserve">
<g>
	<path style="fill:#2D1D1F;" d="M571,140c0,5.5-4.5,10-10,10H77c-5.5,0-10-4.5-10-10V40c0-5.5,4.5-10,10-10h484c5.5,0,10,4.5,10,10
		V140z"/>
	<path style="fill:#140B0C;" d="M561,30H77c-5.5,0-10,4.5-10,10v12c0-5.5,4.5-10,10-10h484c5.5,0,10,4.5,10,10V40
		C571,34.5,566.5,30,561,30z"/>
	<path style="fill:#423233;" d="M561,150H77c-5.5,0-10-4.5-10-10v-12c0,5.5,4.5,10,10,10h484c5.5,0,10-4.5,10-10v12
		C571,145.5,566.5,150,561,150z"/>
	<path style="fill:#91746F;" d="M561,36c2.2,0,4,1.8,4,4v100c0,2.2-1.8,4-4,4H77c-2.2,0-4-1.8-4-4V40c0-2.2,1.8-4,4-4H561 M561,30
		H77c-5.5,0-10,4.5-10,10v100c0,5.5,4.5,10,10,10h484c5.5,0,10-4.5,10-10V40C571,34.5,566.5,30,561,30L561,30z"/>
	<path style="fill:#C19C9A;" d="M561,144.8H77c-2.6,0-4.8-2.2-4.8-4.8V40c0-2.6,2.2-4.8,4.8-4.8h484c2.6,0,4.8,2.2,4.8,4.8v100
		C565.7,142.6,563.6,144.8,561,144.8z M77,36.8c-1.8,0-3.3,1.5-3.3,3.3v100c0,1.8,1.5,3.3,3.3,3.3h484c1.8,0,3.3-1.5,3.3-3.3V40
		c0-1.8-1.5-3.3-3.3-3.3L77,36.8L77,36.8z"/>
</g>
<g>
	<g>
		<path d="M219.5,63.8c-2-2.5-4.5-4.5-7.6-5.8c-3-1.3-6.6-2-10.6-2c-3.6,0-6.8,0.6-9.7,1.6c-2.9,1.1-5.4,2.7-7.5,4.7
			c-2.1,2-3.7,4.4-4.7,7.1c-1.1,2.7-1.6,5.6-1.6,8.6v1.6c0,3.2,0.5,6.1,1.4,8.7c1,2.7,2.4,5,4.2,6.9s4.1,3.4,6.7,4.4
			c2.6,1,5.5,1.5,8.7,1.5c2.8,0,5.6-0.5,8.3-1.5c0.3-0.1,0.6-0.2,0.8-0.3c-0.1,0.2-0.1,0.4-0.2,0.7c-0.4,1.6-1.1,2.9-1.8,3.9
			c-0.7,0.8-1.5,1.4-2.4,1.8c-1.1,0.4-2.4,0.6-3.9,0.6c-2.1,0-4.1-0.2-5.8-0.7s-3.4-1.2-4.9-2.1c-0.5-0.3-1-0.4-1.5-0.4
			c-0.3,0-0.6,0-0.9,0.1c-0.8,0.3-1.5,0.9-1.8,1.6l-3.8,8.5c-0.6,1.3-0.1,2.9,1.1,3.7c2.5,1.6,5.3,2.8,8.4,3.5c2.9,0.7,5.8,1,8.7,1
			c3.7,0,7.1-0.5,10.3-1.5c3.4-1,6.3-3,8.6-5.7s4.1-6.3,5.3-10.8c1.2-4.3,1.7-9.8,1.7-16.4v-3.7c0-3.9-0.4-7.5-1.3-10.8
			C222.8,69.2,221.4,66.3,219.5,63.8z M201.1,86.1c-2.7,0-4.6-0.5-5.7-1.6c-1.1-1-1.6-2.8-1.6-5.3v-0.9c0-2.4,0.6-4.1,1.8-5.2
			c1.2-1.2,3.2-1.8,5.9-1.8c2.5,0,4.3,0.6,5.4,1.7c1.1,1.2,1.7,2.9,1.7,5.2v1.2c0,1-0.1,1.9-0.4,2.8c-0.3,0.8-0.6,1.4-1.2,2
			c-0.5,0.6-1.3,1-2.2,1.4C203.8,85.9,202.6,86.1,201.1,86.1z"/>
		<path d="M269.1,63.8c-2-2.5-4.5-4.5-7.6-5.8c-3-1.3-6.6-2-10.6-2c-3.6,0-6.8,0.6-9.7,1.6c-2.9,1.1-5.4,2.7-7.5,4.7
			c-2.1,2-3.7,4.4-4.7,7.1c-1.1,2.7-1.6,5.6-1.6,8.6v1.6c0,3.2,0.5,6.1,1.4,8.7c1,2.7,2.4,5,4.2,6.9s4.1,3.4,6.7,4.4
			c2.6,1,5.5,1.5,8.7,1.5c2.8,0,5.6-0.5,8.3-1.5c0.3-0.1,0.5-0.2,0.8-0.3c-0.1,0.2-0.1,0.4-0.2,0.7c-0.4,1.6-1.1,2.9-1.8,3.9
			c-0.7,0.8-1.5,1.4-2.4,1.8c-1.1,0.4-2.4,0.6-3.9,0.6c-2.1,0-4.1-0.2-5.8-0.7s-3.4-1.2-4.9-2.1c-0.5-0.3-1-0.4-1.5-0.4
			c-0.3,0-0.6,0-0.9,0.1c-0.8,0.3-1.5,0.9-1.8,1.6l-3.8,8.5c-0.6,1.3-0.1,2.9,1.1,3.7c2.5,1.6,5.3,2.8,8.4,3.5c2.9,0.7,5.8,1,8.7,1
			c3.7,0,7.1-0.5,10.3-1.5c3.4-1,6.3-3,8.6-5.7c2.3-2.7,4.1-6.3,5.3-10.8c1.2-4.3,1.7-9.8,1.7-16.4v-3.7c0-3.9-0.4-7.5-1.3-10.8
			C272.4,69.2,271,66.3,269.1,63.8z M250.7,86.1c-2.7,0-4.6-0.5-5.7-1.6c-1.1-1-1.6-2.8-1.6-5.3v-0.9c0-2.4,0.6-4.1,1.8-5.2
			c1.2-1.2,3.2-1.8,5.9-1.8c2.5,0,4.3,0.6,5.4,1.7c1.1,1.2,1.7,2.9,1.7,5.2v1.2c0,1-0.1,1.9-0.4,2.8c-0.3,0.8-0.6,1.4-1.2,2
			c-0.5,0.6-1.3,1-2.2,1.4C253.4,85.9,252.2,86.1,250.7,86.1z"/>
		<path d="M318.7,63.8c-2-2.5-4.5-4.5-7.6-5.8c-3-1.3-6.6-2-10.6-2c-3.5,0-6.8,0.6-9.7,1.6c-2.9,1.1-5.4,2.7-7.5,4.7
			c-2.1,2-3.7,4.4-4.7,7.1c-1.1,2.7-1.6,5.6-1.6,8.6v1.6c0,3.2,0.5,6.1,1.4,8.7c1,2.7,2.4,5,4.2,6.9c1.8,1.9,4.1,3.4,6.7,4.4
			s5.5,1.5,8.7,1.5c2.8,0,5.6-0.5,8.3-1.5c0.3-0.1,0.5-0.2,0.8-0.3c-0.1,0.2-0.1,0.4-0.2,0.7c-0.4,1.6-1.1,2.9-1.8,3.9
			c-0.7,0.8-1.5,1.4-2.4,1.8c-1.1,0.4-2.4,0.6-3.9,0.6c-2.1,0-4.1-0.2-5.8-0.7c-1.7-0.5-3.4-1.2-4.9-2.1c-0.5-0.3-1-0.4-1.5-0.4
			c-0.3,0-0.6,0-0.9,0.1c-0.8,0.3-1.5,0.9-1.8,1.6l-3.8,8.5c-0.6,1.3-0.1,2.9,1.1,3.7c2.5,1.6,5.3,2.8,8.3,3.5c2.9,0.7,5.8,1,8.7,1
			c3.7,0,7.1-0.5,10.3-1.5c3.4-1,6.3-3,8.6-5.7c2.3-2.7,4.1-6.3,5.3-10.8c1.2-4.3,1.7-9.8,1.7-16.4v-3.7c0-3.9-0.4-7.5-1.3-10.8
			C322,69.2,320.6,66.3,318.7,63.8z M300.3,86.1c-2.7,0-4.6-0.5-5.7-1.6c-1.1-1-1.6-2.8-1.6-5.3v-0.9c0-2.4,0.6-4.1,1.8-5.2
			c1.2-1.2,3.2-1.8,5.9-1.8c2.5,0,4.3,0.6,5.4,1.7c1.1,1.2,1.7,2.9,1.7,5.2v1.2c0,1-0.1,1.9-0.4,2.8c-0.3,0.8-0.6,1.4-1.2,2
			c-0.5,0.6-1.3,1-2.2,1.4C303,85.9,301.8,86.1,300.3,86.1z"/>
		<path d="M346,107.9h-11.4c-1.5,0-2.7,1-3,2.5l-3.4,18.6c-0.2,0.9,0.1,1.8,0.6,2.5c0.6,0.7,1.4,1.1,2.3,1.1h8.2
			c1.3,0,2.4-0.8,2.8-2l6.6-18.6c0.3-0.9,0.2-1.9-0.4-2.7C347.9,108.4,347,107.9,346,107.9z"/>
		<path d="M395.7,63.8c-2-2.5-4.5-4.5-7.6-5.8c-3-1.3-6.6-2-10.6-2c-3.5,0-6.8,0.6-9.7,1.6c-2.9,1.1-5.4,2.7-7.5,4.7
			c-2.1,2-3.7,4.4-4.7,7.1c-1.1,2.7-1.6,5.6-1.6,8.6v1.6c0,3.2,0.5,6.1,1.4,8.7c1,2.7,2.4,5,4.2,6.9c1.8,1.9,4.1,3.4,6.7,4.4
			s5.5,1.5,8.7,1.5c2.8,0,5.6-0.5,8.3-1.5c0.3-0.1,0.5-0.2,0.8-0.3c-0.1,0.2-0.1,0.4-0.2,0.7c-0.4,1.6-1.1,2.9-1.8,3.9
			c-0.7,0.8-1.5,1.4-2.4,1.8c-1.1,0.4-2.4,0.6-3.9,0.6c-2.1,0-4.1-0.2-5.8-0.7c-1.7-0.5-3.4-1.2-4.9-2.1c-0.5-0.3-1-0.4-1.5-0.4
			c-0.3,0-0.6,0-0.9,0.1c-0.8,0.3-1.5,0.9-1.8,1.6l-3.8,8.5c-0.6,1.3-0.1,2.9,1.1,3.7c2.5,1.6,5.3,2.8,8.3,3.5c2.9,0.7,5.8,1,8.7,1
			c3.7,0,7.1-0.5,10.3-1.5c3.4-1,6.3-3,8.6-5.7c2.3-2.7,4.1-6.3,5.3-10.8c1.2-4.3,1.7-9.8,1.7-16.4v-3.7c0-3.9-0.4-7.5-1.3-10.8
			C399,69.2,397.6,66.3,395.7,63.8z M377.4,86.1c-2.7,0-4.6-0.5-5.7-1.6c-1.1-1-1.6-2.8-1.6-5.3v-0.9c0-2.4,0.6-4.1,1.8-5.2
			c1.2-1.2,3.2-1.8,5.9-1.8c2.5,0,4.3,0.6,5.4,1.7c1.1,1.2,1.7,2.9,1.7,5.2v1.2c0,1-0.1,1.9-0.4,2.8c-0.3,0.8-0.6,1.4-1.2,2
			c-0.5,0.6-1.3,1-2.2,1.4C380,85.9,378.8,86.1,377.4,86.1z"/>
		<path d="M445.3,63.8c-2-2.5-4.5-4.5-7.6-5.8c-3-1.3-6.6-2-10.6-2c-3.5,0-6.8,0.6-9.7,1.6c-2.9,1.1-5.4,2.7-7.5,4.7
			c-2.1,2-3.7,4.4-4.7,7.1c-1.1,2.7-1.6,5.6-1.6,8.6v1.6c0,3.2,0.5,6.1,1.4,8.7c1,2.7,2.4,5,4.2,6.9c1.8,1.9,4.1,3.4,6.7,4.4
			s5.5,1.5,8.7,1.5c2.8,0,5.6-0.5,8.3-1.5c0.3-0.1,0.5-0.2,0.8-0.3c-0.1,0.2-0.1,0.4-0.2,0.7c-0.4,1.6-1.1,2.9-1.8,3.9
			c-0.7,0.8-1.5,1.4-2.4,1.8c-1.1,0.4-2.4,0.6-3.9,0.6c-2.1,0-4.1-0.2-5.8-0.7c-1.7-0.5-3.4-1.2-4.9-2.1c-0.5-0.3-1-0.4-1.5-0.4
			c-0.3,0-0.6,0-0.9,0.1c-0.8,0.3-1.5,0.9-1.8,1.6l-3.8,8.5c-0.6,1.3-0.1,2.9,1.1,3.7c2.5,1.6,5.3,2.8,8.3,3.5c2.9,0.7,5.8,1,8.7,1
			c3.7,0,7.1-0.5,10.3-1.5c3.4-1,6.3-3,8.6-5.7c2.3-2.7,4.1-6.3,5.3-10.8c1.2-4.3,1.7-9.8,1.7-16.4v-3.7c0-3.9-0.4-7.5-1.3-10.8
			C448.6,69.2,447.2,66.3,445.3,63.8z M427,86.1c-2.7,0-4.6-0.5-5.7-1.6c-1.1-1-1.6-2.8-1.6-5.3v-0.9c0-2.4,0.6-4.1,1.8-5.2
			c1.2-1.2,3.2-1.8,5.9-1.8c2.5,0,4.3,0.6,5.4,1.7c1.1,1.2,1.7,2.9,1.7,5.2v1.2c0,1-0.1,1.9-0.4,2.8c-0.3,0.8-0.6,1.4-1.2,2
			c-0.5,0.6-1.3,1-2.2,1.4C429.6,85.9,428.4,86.1,427,86.1z"/>
		<path d="M499.1,72.6c-0.9-3.4-2.3-6.4-4.2-8.8c-2-2.5-4.5-4.5-7.6-5.8c-3-1.3-6.6-2-10.6-2c-3.5,0-6.8,0.6-9.7,1.6
			c-2.9,1.1-5.4,2.7-7.5,4.7c-2.1,2-3.7,4.4-4.7,7.1c-1.1,2.7-1.6,5.6-1.6,8.6v1.6c0,3.2,0.5,6.1,1.4,8.7c1,2.7,2.4,5,4.2,6.9
			c1.8,1.9,4.1,3.4,6.7,4.4s5.5,1.5,8.7,1.5c2.8,0,5.6-0.5,8.3-1.5c0.3-0.1,0.5-0.2,0.8-0.3c-0.1,0.2-0.1,0.4-0.2,0.7
			c-0.4,1.6-1.1,2.9-1.8,3.9c-0.7,0.8-1.5,1.4-2.4,1.8c-1.1,0.4-2.4,0.6-3.9,0.6c-2.1,0-4.1-0.2-5.8-0.7c-1.7-0.5-3.4-1.2-4.9-2.1
			c-0.5-0.3-1-0.4-1.5-0.4c-0.3,0-0.6,0-0.9,0.1c-0.8,0.3-1.5,0.9-1.8,1.6l-3.8,8.5c-0.6,1.3-0.1,2.9,1.1,3.7
			c2.5,1.6,5.3,2.8,8.3,3.5c2.9,0.7,5.8,1,8.7,1c3.7,0,7.1-0.5,10.3-1.5c3.4-1,6.3-3,8.6-5.7c2.3-2.7,4.1-6.3,5.3-10.8
			c1.2-4.3,1.7-9.8,1.7-16.4v-3.7C500.4,79.5,499.9,75.9,499.1,72.6z M476.6,86.1c-2.7,0-4.6-0.5-5.7-1.6c-1.1-1-1.6-2.8-1.6-5.3
			v-0.9c0-2.4,0.6-4.1,1.8-5.2c1.2-1.2,3.2-1.8,5.9-1.8c2.5,0,4.3,0.6,5.4,1.7c1.1,1.2,1.7,2.9,1.7,5.2v1.2c0,1-0.1,1.9-0.4,2.8
			c-0.3,0.8-0.6,1.4-1.2,2c-0.5,0.6-1.3,1-2.2,1.4C479.2,85.9,478,86.1,476.6,86.1z"/>
	</g>
	<g>
		<path style="fill:#FFFFFF;" d="M185.4,103c1.8,1.1,3.7,1.9,5.7,2.4s4.2,0.8,6.6,0.8c1.9,0,3.5-0.3,5-0.8c1.4-0.5,2.7-1.4,3.7-2.7
			s1.8-2.9,2.4-5c0.6-2.1,0.9-4.6,1.1-7.7c-1.4,1.7-3.3,2.9-5.6,3.8c-2.4,0.9-4.8,1.3-7.3,1.3c-2.8,0-5.3-0.4-7.6-1.3
			c-2.2-0.9-4.1-2.1-5.6-3.7s-2.7-3.5-3.6-5.8c-0.8-2.3-1.2-4.8-1.2-7.6V75c0-2.7,0.5-5.2,1.4-7.5s2.3-4.3,4-6c1.8-1.7,3.9-3,6.4-4
			s5.4-1.4,8.6-1.4c3.7,0,6.8,0.6,9.4,1.7c2.6,1.1,4.7,2.8,6.4,4.9s2.9,4.7,3.6,7.7c0.8,3,1.2,6.4,1.2,10v3.7
			c0,6.3-0.5,11.6-1.6,15.6c-1.1,4.1-2.6,7.3-4.6,9.6s-4.4,3.9-7.2,4.8s-5.9,1.3-9.4,1.3c-2.6,0-5.3-0.3-8-0.9s-5.2-1.6-7.4-3.1
			L185.4,103z M209.6,75.2c0-3.1-0.9-5.6-2.6-7.3c-1.7-1.7-4.2-2.6-7.5-2.6c-3.5,0-6.2,0.9-8,2.6s-2.7,4.2-2.7,7.4v0.9
			c0,3.4,0.8,5.9,2.5,7.5s4.2,2.4,7.8,2.4c1.8,0,3.4-0.3,4.7-0.8s2.4-1.2,3.3-2.1c0.9-0.9,1.5-1.9,1.9-3.1s0.6-2.4,0.6-3.8V75.2z"/>
		<path style="fill:#FFFFFF;" d="M235,103c1.8,1.1,3.7,1.9,5.7,2.4s4.2,0.8,6.6,0.8c1.9,0,3.5-0.3,5-0.8c1.4-0.5,2.7-1.4,3.7-2.7
			c1-1.3,1.8-2.9,2.4-5s0.9-4.6,1.1-7.7c-1.4,1.7-3.3,2.9-5.6,3.8c-2.4,0.9-4.8,1.3-7.3,1.3c-2.8,0-5.3-0.4-7.6-1.3
			c-2.2-0.9-4.1-2.1-5.6-3.7s-2.7-3.5-3.6-5.8c-0.8-2.3-1.2-4.8-1.2-7.6V75c0-2.7,0.5-5.2,1.4-7.5s2.3-4.3,4-6c1.8-1.7,3.9-3,6.4-4
			s5.4-1.4,8.6-1.4c3.7,0,6.8,0.6,9.4,1.7c2.6,1.1,4.7,2.8,6.4,4.9c1.7,2.1,2.9,4.7,3.6,7.7c0.8,3,1.2,6.4,1.2,10v3.7
			c0,6.3-0.5,11.6-1.6,15.6c-1.1,4.1-2.6,7.3-4.6,9.6s-4.4,3.9-7.2,4.8c-2.8,0.9-5.9,1.3-9.4,1.3c-2.6,0-5.3-0.3-8-0.9
			s-5.2-1.6-7.4-3.1L235,103z M259.2,75.2c0-3.1-0.9-5.6-2.6-7.3c-1.7-1.7-4.2-2.6-7.5-2.6c-3.5,0-6.2,0.9-8,2.6s-2.7,4.2-2.7,7.4
			v0.9c0,3.4,0.8,5.9,2.5,7.5s4.2,2.4,7.8,2.4c1.8,0,3.4-0.3,4.7-0.8s2.4-1.2,3.3-2.1c0.9-0.9,1.5-1.9,1.9-3.1s0.6-2.4,0.6-3.8V75.2
			z"/>
		<path style="fill:#FFFFFF;" d="M284.6,103c1.8,1.1,3.7,1.9,5.7,2.4s4.2,0.8,6.6,0.8c1.9,0,3.5-0.3,5-0.8c1.4-0.5,2.7-1.4,3.7-2.7
			c1-1.3,1.8-2.9,2.4-5s0.9-4.6,1.1-7.7c-1.4,1.7-3.3,2.9-5.6,3.8c-2.4,0.9-4.8,1.3-7.3,1.3c-2.8,0-5.3-0.4-7.6-1.3
			c-2.2-0.9-4.1-2.1-5.6-3.7s-2.7-3.5-3.6-5.8c-0.8-2.3-1.2-4.8-1.2-7.6V75c0-2.7,0.5-5.2,1.4-7.5s2.3-4.3,4-6c1.8-1.7,3.9-3,6.4-4
			s5.4-1.4,8.6-1.4c3.7,0,6.8,0.6,9.4,1.7c2.6,1.1,4.7,2.8,6.4,4.9c1.7,2.1,2.9,4.7,3.6,7.7c0.8,3,1.2,6.4,1.2,10v3.7
			c0,6.3-0.5,11.6-1.6,15.6c-1.1,4.1-2.6,7.3-4.6,9.6s-4.4,3.9-7.2,4.8c-2.8,0.9-5.9,1.3-9.4,1.3c-2.6,0-5.3-0.3-8-0.9
			s-5.2-1.6-7.4-3.1L284.6,103z M308.8,75.2c0-3.1-0.9-5.6-2.6-7.3c-1.7-1.7-4.2-2.6-7.5-2.6c-3.5,0-6.2,0.9-8,2.6s-2.7,4.2-2.7,7.4
			v0.9c0,3.4,0.8,5.9,2.5,7.5s4.2,2.4,7.8,2.4c1.8,0,3.4-0.3,4.7-0.8c1.3-0.5,2.4-1.2,3.3-2.1s1.5-1.9,1.9-3.1s0.6-2.4,0.6-3.8
			L308.8,75.2L308.8,75.2z"/>
		<path style="fill:#FFFFFF;" d="M332.6,107.9H344l-6.6,18.6h-8.2L332.6,107.9z"/>
		<path style="fill:#FFFFFF;" d="M361.7,103c1.8,1.1,3.7,1.9,5.7,2.4s4.2,0.8,6.6,0.8c1.9,0,3.5-0.3,5-0.8c1.4-0.5,2.7-1.4,3.7-2.7
			c1-1.3,1.8-2.9,2.4-5s0.9-4.6,1.1-7.7c-1.4,1.7-3.3,2.9-5.6,3.8c-2.4,0.9-4.8,1.3-7.3,1.3c-2.8,0-5.3-0.4-7.6-1.3
			c-2.2-0.9-4.1-2.1-5.6-3.7s-2.7-3.5-3.6-5.8c-0.8-2.3-1.2-4.8-1.2-7.6V75c0-2.7,0.5-5.2,1.4-7.5s2.3-4.3,4-6c1.8-1.7,3.9-3,6.4-4
			s5.4-1.4,8.6-1.4c3.7,0,6.8,0.6,9.4,1.7c2.6,1.1,4.7,2.8,6.4,4.9c1.7,2.1,2.9,4.7,3.6,7.7c0.8,3,1.2,6.4,1.2,10v3.7
			c0,6.3-0.5,11.6-1.6,15.6c-1.1,4.1-2.6,7.3-4.6,9.6s-4.4,3.9-7.2,4.8c-2.8,0.9-5.9,1.3-9.4,1.3c-2.6,0-5.3-0.3-8-0.9
			s-5.2-1.6-7.4-3.1L361.7,103z M385.8,75.2c0-3.1-0.9-5.6-2.6-7.3c-1.7-1.7-4.2-2.6-7.5-2.6c-3.5,0-6.2,0.9-8,2.6s-2.7,4.2-2.7,7.4
			v0.9c0,3.4,0.8,5.9,2.5,7.5s4.2,2.4,7.8,2.4c1.8,0,3.4-0.3,4.7-0.8c1.3-0.5,2.4-1.2,3.3-2.1s1.5-1.9,1.9-3.1s0.6-2.4,0.6-3.8
			L385.8,75.2L385.8,75.2z"/>
		<path style="fill:#FFFFFF;" d="M411.3,103c1.8,1.1,3.7,1.9,5.7,2.4s4.2,0.8,6.6,0.8c1.9,0,3.5-0.3,5-0.8c1.4-0.5,2.7-1.4,3.7-2.7
			c1-1.3,1.8-2.9,2.4-5s0.9-4.6,1.1-7.7c-1.4,1.7-3.3,2.9-5.6,3.8c-2.4,0.9-4.8,1.3-7.3,1.3c-2.8,0-5.3-0.4-7.6-1.3
			c-2.2-0.9-4.1-2.1-5.6-3.7s-2.7-3.5-3.6-5.8c-0.8-2.3-1.2-4.8-1.2-7.6V75c0-2.7,0.5-5.2,1.4-7.5s2.3-4.3,4-6c1.8-1.7,3.9-3,6.4-4
			s5.4-1.4,8.6-1.4c3.7,0,6.8,0.6,9.4,1.7c2.6,1.1,4.7,2.8,6.4,4.9c1.7,2.1,2.9,4.7,3.6,7.7c0.8,3,1.2,6.4,1.2,10v3.7
			c0,6.3-0.5,11.6-1.6,15.6c-1.1,4.1-2.6,7.3-4.6,9.6s-4.4,3.9-7.2,4.8c-2.8,0.9-5.9,1.3-9.4,1.3c-2.6,0-5.3-0.3-8-0.9
			s-5.2-1.6-7.4-3.1L411.3,103z M435.4,75.2c0-3.1-0.9-5.6-2.6-7.3c-1.7-1.7-4.2-2.6-7.5-2.6c-3.5,0-6.2,0.9-8,2.6s-2.7,4.2-2.7,7.4
			v0.9c0,3.4,0.8,5.9,2.5,7.5s4.2,2.4,7.8,2.4c1.8,0,3.4-0.3,4.7-0.8c1.3-0.5,2.4-1.2,3.3-2.1s1.5-1.9,1.9-3.1s0.6-2.4,0.6-3.8
			L435.4,75.2L435.4,75.2z"/>
		<path style="fill:#FFFFFF;" d="M460.9,103c1.8,1.1,3.7,1.9,5.7,2.4s4.2,0.8,6.6,0.8c1.9,0,3.5-0.3,5-0.8c1.4-0.5,2.7-1.4,3.7-2.7
			c1-1.3,1.8-2.9,2.4-5s0.9-4.6,1.1-7.7c-1.4,1.7-3.3,2.9-5.6,3.8c-2.4,0.9-4.8,1.3-7.3,1.3c-2.8,0-5.3-0.4-7.6-1.3
			c-2.2-0.9-4.1-2.1-5.6-3.7s-2.7-3.5-3.6-5.8c-0.8-2.3-1.2-4.8-1.2-7.6V75c0-2.7,0.5-5.2,1.4-7.5s2.3-4.3,4-6c1.8-1.7,3.9-3,6.4-4
			s5.4-1.4,8.6-1.4c3.7,0,6.8,0.6,9.4,1.7c2.6,1.1,4.7,2.8,6.4,4.9c1.7,2.1,2.9,4.7,3.6,7.7c0.8,3,1.2,6.4,1.2,10v3.7
			c0,6.3-0.5,11.6-1.6,15.6c-1.1,4.1-2.6,7.3-4.6,9.6s-4.4,3.9-7.2,4.8c-2.8,0.9-5.9,1.3-9.4,1.3c-2.6,0-5.3-0.3-8-0.9
			s-5.2-1.6-7.4-3.1L460.9,103z M485,75.2c0-3.1-0.9-5.6-2.6-7.3c-1.7-1.7-4.2-2.6-7.5-2.6c-3.5,0-6.2,0.9-8,2.6s-2.7,4.2-2.7,7.4
			v0.9c0,3.4,0.8,5.9,2.5,7.5s4.2,2.4,7.8,2.4c1.8,0,3.4-0.3,4.7-0.8c1.3-0.5,2.4-1.2,3.3-2.1s1.5-1.9,1.9-3.1s0.6-2.4,0.6-3.8
			L485,75.2L485,75.2z"/>
	</g>
</g>
<g>
	<path style="fill:#180F10;" d="M561,30h-35.8c-4.7,4.4-8.6,9.6-11.6,15.4c-6,8.7-9.5,19.2-9.5,30.6v21.7c0,16,7,30.4,18.1,40.3H561
		c5.5,0,10-4.5,10-10V40C571,34.5,566.5,30,561,30z"/>
	<path style="fill:#231A1A;" d="M561,138h-38.9c6.2,5.5,13.6,9.7,21.8,12H561c5.5,0,10-4.5,10-10v-12C571,133.5,566.5,138,561,138z"
		/>
	<path style="fill:#4E3C3A;" d="M561,30h-35.8c-2,1.9-3.8,3.9-5.5,6H561c2.2,0,4,1.8,4,4v100c0,2.2-1.8,4-4,4h-30.8
		c4.2,2.6,8.8,4.6,13.7,6H561c5.5,0,10-4.5,10-10V40C571,34.5,566.5,30,561,30z"/>
	<path style="fill:#685150;" d="M561,35.3h-40.7c-0.4,0.5-0.8,1-1.2,1.5H561c1.8,0,3.3,1.5,3.3,3.3v100c0,1.8-1.5,3.3-3.3,3.3h-32
		c0.8,0.5,1.6,1,2.4,1.5H561c2.6,0,4.8-2.2,4.8-4.8V40C565.7,37.4,563.6,35.3,561,35.3z"/>
</g>
<g>
	<path style="fill:#3541D7;" d="M589.6,13.4h-23.2c-20.6,0-38.7,12.2-47.9,30.1c-6,8.7-9.5,19.2-9.5,30.6v21.7
		c0,29.9,24.5,54.3,54.3,54.3h3h20.2h3c29.9,0,54.3-25.6,54.3-57V70.3C643.9,39,619.5,13.4,589.6,13.4z"/>
	<path style="fill:#252FB7;" d="M607.4,134.5c0,0.5,0.6,7.2-0.2,12.4c12.5-4.5,23-13.7,29.5-25.6c-1.3-1.6-4.7-5.2-5.9-6.8
		C624.8,124.2,618,130,607.4,134.5z"/>
	<path style="fill:#395CDB;" d="M509.1,88.3v7.3c0,23.4,15,43.5,35.8,51.1c-0.1-2.3-0.2-12.2-0.2-12.4
		C536.2,129.4,509.1,111.6,509.1,88.3z"/>
	<path style="fill:#338BEB;" d="M640.9,87.3c0,29.9-24.5,54.3-54.3,54.3h-23.2c-29.9,0-54.3-24.5-54.3-54.3V65.7
		c0-29.9,24.5-54.3,54.3-54.3h23.2c29.9,0,54.3,24.5,54.3,54.3V87.3z"/>
	<path style="fill:#3FA1FB;" d="M586.6,11.3h-23.2c-29.9,0-54.3,24.5-54.3,54.3v21.7c0,29.9,24.5,54.3,54.3,54.3h23.2
		c29.9,0,54.3-24.5,54.3-54.3V65.7C640.9,35.8,616.5,11.3,586.6,11.3z M636.9,83.7c0,28.1-23,51-51,51h-21.7c-28.1,0-51-23-51-51
		V63.4c0-28.1,23-51,51-51h21.7c28.1,0,51,23,51,51V83.7z"/>
	<path style="fill:#4BB9FB;" d="M519.1,109.8c0-44.6,27.7-80.8,79.3-80.8c16.7,0,28.7,5.2,37.4,13.7c-8.7-18.5-27.5-31.4-49.2-31.4
		h-23.2c-29.9,0-54.3,24.5-54.3,54.3v21.7c0,12.2,4.1,23.5,10.9,32.6C519.4,116.6,519.1,113.3,519.1,109.8z"/>
	<path style="fill:#90E5FC;" d="M582.3,11.4c10.6,0-18.8,0-18.8,0c-29.9,0-54.3,24.5-54.3,54.3v18.9
		C509.1,44.1,541.8,11.4,582.3,11.4z"/>
	<path style="fill:#4BB9FB;" d="M617.1,113.3c1.4,1.9,0.3,5.1-2.5,7c-2.7,1.9-6.1,2-7.4,0c-1.4-1.9-0.3-5.1,2.5-7
		C612.4,111.3,615.8,111.3,617.1,113.3z"/>
	<path style="fill:#37ACFB;" d="M626.1,104c0.9,1,0.6,2.8-0.8,4.1c-1.3,1.3-3.2,1.6-4.1,0.7c-0.9-1-0.6-2.8,0.8-4.1
		C623.3,103.4,625.1,103.1,626.1,104z"/>
	<path style="fill:#90E5FC;" d="M586.6,12.8c29.2,0,52.9,23.7,52.9,52.9v21.7c0,29.2-23.7,52.9-52.9,52.9h-23.2
		c-29.2,0-52.9-23.7-52.9-52.9V65.7c0-29.2,23.7-52.9,52.9-52.9L586.6,12.8 M586.6,11.3h-23.2c-29.9,0-54.3,24.5-54.3,54.3v21.7
		c0,29.9,24.5,54.3,54.3,54.3h23.2c29.9,0,54.3-24.5,54.3-54.3V65.7C640.9,35.8,616.5,11.3,586.6,11.3L586.6,11.3z"/>
	<path style="fill:#FFFFFF;" d="M536.2,23.2c0.9,1.3,0,3.5-2,4.8s-4.3,1.3-5.2-0.1c-0.9-1.3,0-3.5,2-4.8
		C533,21.9,535.3,21.9,536.2,23.2z"/>
	
		<ellipse transform="matrix(0.7672 -0.6414 0.6414 0.7672 101.9335 344.907)" style="fill:#D9FFFF;" cx="526.1" cy="32" rx="2.7" ry="2.1"/>
	<g>
		<path style="fill:#3FA1FB;" d="M604.1,60.6h-13.2V47.4c0-5.8-4.7-10.5-10.5-10.5h-10.8c-5.8,0-10.5,4.7-10.5,10.5v13.2h-13.2
			c-5.8,0-10.5,4.7-10.5,10.5v10.8c0,5.8,4.7,10.5,10.5,10.5h13.2v13.2c0,5.8,4.7,10.5,10.5,10.5h10.8c5.8,0,10.5-4.7,10.5-10.5
			V92.4h13.2c5.8,0,10.5-4.7,10.5-10.5V71.1C614.6,65.3,609.9,60.6,604.1,60.6z"/>
		<path style="fill:#444BD7;" d="M604.1,63.4h-16v-16c0-4.2-3.4-7.7-7.7-7.7h-10.8c-4.2,0-7.7,3.4-7.7,7.7v16h-16
			c-4.2,0-7.7,3.4-7.7,7.7v10.8c0,4.2,3.4,7.7,7.7,7.7h16v16c0,4.2,3.4,7.7,7.7,7.7h10.8c4.2,0,7.7-3.4,7.7-7.7v-16h16
			c4.2,0,7.7-3.4,7.7-7.7V71.1C611.8,66.9,608.3,63.4,604.1,63.4z"/>
		<g>
			<path style="fill:#FFFFFF;" d="M604.1,67.2h-19.7V47.4c0-2.2-1.8-3.9-3.9-3.9h-10.8c-2.2,0-3.9,1.8-3.9,3.9v19.7h-19.7
				c-2.2,0-3.9,1.8-3.9,3.9v10.8c0,2.2,1.8,3.9,3.9,3.9h19.7v19.7c0,2.2,1.8,3.9,3.9,3.9h10.8c2.2,0,3.9-1.8,3.9-3.9V85.8h19.7
				c2.2,0,3.9-1.8,3.9-3.9V71.1C608,68.9,606.2,67.2,604.1,67.2z"/>
		</g>
		<g>
			<g>
				<path style="fill:#B3B3B3;" d="M565.7,82.8H543c-0.3,0-0.6,0-0.8-0.1c0.4,1.8,2,3.1,3.8,3.1h19.7V82.8z"/>
			</g>
			<g>
				<path style="fill:#B3B3B3;" d="M581.3,44.4v22.7h3V47.4c0-1.9-1.3-3.5-3.1-3.8C581.3,43.8,581.3,44.1,581.3,44.4z"/>
			</g>
			<g>
				<path style="fill:#B3B3B3;" d="M604.9,67.3c0.1,0.3,0.1,0.6,0.1,0.8v10.8c0,2.2-1.8,3.9-3.9,3.9h-19.7v19.7
					c0,2.2-1.8,3.9-3.9,3.9h-10.8c-0.3,0-0.6,0-0.8-0.1c0.4,1.8,2,3.1,3.8,3.1h10.8c2.2,0,3.9-1.8,3.9-3.9V85.8h19.7
					c2.2,0,3.9-1.8,3.9-3.9V71.1C608,69.2,606.7,67.6,604.9,67.3z"/>
			</g>
		</g>
	</g>
</g>
<g>
	<path style="fill:#180F10;" d="M77,138h62.2l1.7-42c1.6-0.5,2.8-2,2.8-3.8V79.5v-3.9c0-0.1,0-0.1,0-0.2s0-0.2,0-0.3
		c0-0.2,0-0.5,0-0.7l-0.4-2.5c0,0,0,0.1-0.1,0.1l-1.3-6.7v-6.2c0-0.1,0-0.1,0-0.2l0,0c0-0.1,0.1-0.2,0-0.3L139.5,46
		c-0.1-0.4-0.5-0.6-0.9-0.6H138l-0.7-3.3H77c-5.5,0-10,4.5-10,10v76C67,133.5,71.5,138,77,138z"/>
	<path style="fill:#231A1A;" d="M77,138c-5.5,0-10-4.5-10-10v12c0,5.5,4.5,10,10,10h61.7l0.5-12H77z"/>
	<path style="fill:#4E3C3A;" d="M77,144c-2.2,0-4-1.8-4-4V42.8c-3.5,1.6-6,5.1-6,9.2v88c0,5.5,4.5,10,10,10h61.7l0.2-6H77z"/>
	<path style="fill:#91746F;" d="M138.9,144.8l0.1-1.5H77c-1.8,0-3.3-1.5-3.3-3.3V42.6c-0.5,0.2-1,0.4-1.5,0.7V140
		c0,2.6,2.2,4.8,4.8,4.8H138.9z"/>
</g>
<g>
	<path style="fill:#D20027;" d="M133.7,145.3c0,2.2-1.8,4-4,4H15.2c-2.2,0-4-1.8-4-4l-2.4-59c0-2.2,1.8-4,4-4h119.3c2.2,0,4,1.8,4,4
		L133.7,145.3z"/>
	<path style="fill:#B50028;" d="M132.1,82.2H12.8c-2.2,0-4,1.8-4,4v9.2H128c-7.3,46.8-87.7,48.2-116.9,47.5v2.3c0,2.2,1.8,4,4,4
		h114.5c2.2,0,4-1.8,4-4l2.4-59C136.1,84,134.3,82.2,132.1,82.2z"/>
	<path style="fill:#B50028;" d="M83,149.1V85.7c0-0.4-0.4-0.8-0.9-0.8H62.7c-0.5,0-0.9,0.4-0.9,0.8v63.4H83z"/>
	<path style="fill:#FF9A00;" d="M81.8,149.2c0,0.4-0.4,0.8-0.8,0.8H63.8c-0.4,0-0.8-0.4-0.8-0.8V85.7c0-0.4,0.4-0.8,0.8-0.8H81
		c0.4,0,0.8,0.4,0.8,0.8V149.2z"/>
	<path style="fill:#F17400;" d="M63.8,150H81c0.4,0,0.8-0.4,0.8-0.8v-10.5c-6.9,2-14.6,3.1-18.8,3.7v6.9C63,149.6,63.4,150,63.8,150
		z"/>
	<path style="fill:#F17400;" d="M81,84.9H63.8c-0.4,0-0.8,0.4-0.8,0.8v10.6h18.8V85.7C81.8,85.2,81.5,84.9,81,84.9z"/>
	<path style="fill:#F20000;" d="M6.1,70.4v16.8c0,2.2,1.8,4,4,4h124.5c2.2,0,4-1.8,4-4V70.4H6.1z"/>
	<path style="fill:#FF4E45;" d="M6.1,87.2c0,2.2,1.8,4,4,4l0,0c-1-0.7-1.6-1.9-1.6-3.2l1.6-11.9l128.5-1.6v-4H6.1V87.2z"/>
	<path style="fill:#D20027;" d="M136.3,70.4L134.7,84c0,2.2-1.8,4-4,4L7.8,89.6c-0.3,0-0.6-0.1-0.9-0.2c0.7,1.1,1.9,1.8,3.3,1.8
		h124.5c2.2,0,4-1.8,4-4V70.4H136.3z"/>
	<path style="fill:#FF4033;" d="M138.7,69.4c0.3,2.2-1.2,4-3.4,4H9.6c-2.2,0-3.8-1.8-3.4-4L14,28.9c0.3-2.2,2.5-4,4.7-4h107.4
		c2.2,0,4.4,1.8,4.7,4L138.7,69.4z"/>
	<path style="fill:#FF1212;" d="M130.8,28.9c-0.3-2.2-2.5-4-4.7-4H18.7c-1.3,0-2.6,0.6-3.5,1.6l107.7,1.6c2.2,0,4.4,1.8,4.7,4
		l10.8,39.4c0.3-0.6,0.4-1.3,0.3-2L130.8,28.9z"/>
	<path style="fill:#FF564D;" d="M23.9,64.4c-12-8.5-7.7-32.4-5.4-39.5c-2.2,0.1-4.2,1.8-4.5,4L6.1,69.4c-0.3,2.2,1.2,4,3.4,4h125.7
		c2.2,0,3.8-1.8,3.4-4C138.7,69.4,30.6,69.1,23.9,64.4z"/>
	<path style="fill:#FF817B;" d="M138.3,66.9c-0.6,1-1.7,4.1-3,4.1H9.6c-1.4,0-2.5-3.1-3-4.1l-0.4,2.5c-0.3,2.2,1.2,4,3.4,4h125.7
		c2.2,0,3.8-1.8,3.4-4L138.3,66.9z"/>
	<path style="fill:#D20027;" d="M59.7,72.7c0,0.4,0,1.2,0,1.6l0.8,17h23.9l0.8-17c0-0.4,0-1.2,0-1.6L85,70.4H59.8L59.7,72.7z"/>
	<path style="fill:#F20000;" d="M85.1,72.7l-1.7-34c0-0.4-0.4-0.8-0.9-0.8H62.3c-0.5,0-0.9,0.4-0.9,0.8l-1.7,34c0,0.2,0,0.5,0,0.8
		h25.5C85.2,73.2,85.2,72.9,85.1,72.7z"/>
	<polygon style="fill:#F20000;" points="11.5,41.2 8.8,55.2 136.1,55.2 133.4,41.2 	"/>
	<path style="fill:#FFB900;" d="M7.9,53.7c-0.1,0.4,0.2,0.6,0.7,0.6h127.6c0.4,0,0.8-0.3,0.7-0.6L134.5,41c-0.1-0.4-0.5-0.6-0.9-0.6
		H11.3c-0.4,0-0.9,0.3-0.9,0.6L7.9,53.7z"/>
	<path style="fill:#FF9A00;" d="M136.9,61.4v-7.3c0-0.1,0-0.1,0-0.2l0,0l0,0c0-0.1-0.1-0.1-0.1-0.2l0,0l-0.1-0.1c0,0-0.1,0-0.1-0.1
		c0,0-0.1,0-0.1-0.1c-0.1,0-0.2,0-0.3,0h-0.7H9.4H8.7c-0.1,0-0.2,0-0.3,0c0,0-0.1,0-0.1,0.1c0,0-0.1,0-0.1,0.1
		c-0.1,0-0.1,0.1-0.1,0.1l0,0C8,53.8,8,53.9,7.9,54l0,0l0,0c0,0.1,0,0.1,0,0.2v7.3l1.4-7.1h126.3L136.9,61.4z"/>
	<path style="fill:#FFB900;" d="M83.3,92c0,0.4-0.4,0.8-0.8,0.8H62.3c-0.4,0-0.8-0.4-0.8-0.8l-0.7-17.7c0-0.4,0-1.2,0-1.6l1.5-34
		c0-0.4,0.4-0.8,0.8-0.8h18.5c0.4,0,0.8,0.4,0.8,0.8l1.5,34c0,0.4,0,1.2,0,1.6L83.3,92z"/>
	<polygon style="fill:#FF9A00;" points="72.1,55.9 83.7,63.5 82.9,46.6 82.6,42.7 72.1,51 62.2,43.1 61.9,46.8 61.2,63 	"/>
	<path style="fill:#FF9A00;" d="M61.4,90.5l0.1,1.5c0,0.4,0.4,0.8,0.8,0.8h20.2c0.4,0,0.8-0.4,0.8-0.8l0.1-1.5H61.4z"/>
	<path style="fill:#FDD90B;" d="M60.8,72.7c0,0.2,0,0.5,0,0.8h23.3c0-0.3,0-0.6,0-0.8L84,71H60.8V72.7z"/>
	<path style="fill:#FDD90B;" d="M8.1,54.2l2.2-11.6c0.1-0.4,0.5-0.6,0.9-0.6h122.3c0.4,0,0.9,0.3,0.9,0.6l2.2,11.6
		c0.2-0.1,0.3-0.3,0.2-0.5L134.5,41c-0.1-0.4-0.5-0.6-0.9-0.6H11.3c-0.4,0-0.9,0.3-0.9,0.6L7.9,53.7C7.9,53.9,8,54.1,8.1,54.2z"/>
	<path style="fill:#FF9A00;" d="M100.5,46.9c7.3-1.2,10.4-3.4,14-6.6H30c3.6,3.1,6.6,5.3,13.8,6.5l-8,7.5h36.3l0,0l0,0h36.3
		L100.5,46.9z"/>
	<g>
		<g>
			<path style="fill:#FDD90B;" d="M73.1,48.6l-12.2-9.7c-0.5-0.4-1.3-0.4-1.7-0.1L31.5,58.7C31,59,30.7,59.5,30.8,60
				c0.1,0.5,0.5,0.8,1.1,0.9l11,1.2l-0.5,11c0,0.4,0.1,0.7,0.3,1c0.1,0.2,0.3,0.3,0.5,0.4c0.6,0.2,1.2,0.1,1.7-0.3l28.4-24.1
				C73.8,49.7,73.7,49,73.1,48.6z"/>
			<g>
				<path style="fill:#FFB900;" d="M42.9,60.5l-11-1.2c-0.3,0-0.6-0.2-0.7-0.3c-0.3,0.3-0.4,0.7-0.3,1.1c0.1,0.5,0.5,0.8,1.1,0.9
					l10.9,1.2V60.5z"/>
				<path style="fill:#FFB900;" d="M73.2,48.6l-28.3,24c-0.5,0.4-1.2,0.5-1.7,0.3c-0.2-0.1-0.4-0.2-0.5-0.4
					c-0.1-0.2-0.2-0.3-0.3-0.5l-0.1,1.1c0,0.4,0.1,0.7,0.3,1c0.1,0.2,0.3,0.3,0.5,0.4c0.6,0.2,1.2,0.1,1.7-0.3l28.4-24.1
					C73.8,49.7,73.7,49.1,73.2,48.6z"/>
			</g>
		</g>
		<g>
			<path style="fill:#FDD90B;" d="M70.8,48.6L83,38.9c0.5-0.4,1.3-0.4,1.7-0.1l27.7,19.9c0.5,0.3,0.7,0.9,0.6,1.3
				c-0.1,0.5-0.5,0.8-1.1,0.9l-11,1.2l0.5,11c0,0.4-0.1,0.7-0.3,1c-0.1,0.2-0.3,0.3-0.5,0.4c-0.6,0.2-1.2,0.1-1.7-0.3L70.6,50.1
				C70.1,49.7,70.2,49,70.8,48.6z"/>
			<g>
				<path style="fill:#FFB900;" d="M101,60.5l11-1.2c0.3,0,0.6-0.2,0.7-0.3c0.3,0.3,0.4,0.7,0.3,1.1c-0.1,0.5-0.5,0.8-1.1,0.9
					L101,62.2V60.5z"/>
				<path style="fill:#FFB900;" d="M70.7,48.6l28.3,24c0.5,0.4,1.2,0.5,1.7,0.3c0.2-0.1,0.4-0.2,0.5-0.4c0.1-0.2,0.2-0.3,0.3-0.5
					l0.1,1.1c0,0.4-0.1,0.7-0.3,1c-0.1,0.2-0.3,0.3-0.5,0.4c-0.6,0.2-1.2,0.1-1.7-0.3L70.6,50.1C70.2,49.7,70.2,49.1,70.7,48.6z"/>
			</g>
		</g>
		<path style="fill:#FFB900;" d="M85.1,38.8c-0.5-0.3-1.3-0.3-1.7,0.1l-11.2,8.9L61,38.9c-0.5-0.4-1.3-0.4-1.7-0.1l-11.9,8.5
			c4.2,0.5,6.8,0,12.5-0.1c0.9,2.9,5.5,5.8,8,5.8H70l2.2-1.9l2.2,1.9H77c2.5,0,7.1-2.9,8-5.8c5.5,0.1,7.9,0.6,12,0.2L85.1,38.8z"/>
		<path style="fill:#FDD90B;" d="M118,16.2C113.4,3.5,107.4-2.3,96,4.8c-10.6,6.6-22.1,27.4-23.7,30.3c-1.6-3-13.1-23.7-23.7-30.3
			c-11.4-7.1-17.4-1.3-22,11.4C21,31.9,23.4,46.6,66.9,44.8l5.4-9l5.4,9C121.2,46.6,123.6,31.9,118,16.2z"/>
		<path style="fill:#FFF15A;" d="M96,4.8c-10.6,6.6-22.1,27.4-23.7,30.3c-0.1-0.2-0.2-0.4-0.3-0.6l-0.6,2l0.8-0.5l0.1-0.2l0.1,0.1
			l2.2-3c0,0,21.2-28.6,32.5-25.4c9.3,2.6,12.2,17.1,12.9,22.2c0.7-4.1-0.3-8.8-2-13.5C113.4,3.5,107.4-2.3,96,4.8z"/>
		<path style="fill:#FFF15A;" d="M48.6,4.8c10.6,6.6,22.1,27.4,23.7,30.3c0.1-0.2,0.2-0.4,0.3-0.6l0.6,2L72.4,36l-0.1-0.2V36l-2.2-3
			c0,0-21.2-28.6-32.5-25.4c-9.3,2.6-12.2,17.1-12.9,22.2c-0.7-4.1,0.3-8.8,2-13.5C31.2,3.5,37.2-2.3,48.6,4.8z"/>
		<g>
			<path style="fill:#FF8E00;" d="M28.3,29.6c-0.6,2.8,7.9,7.5,18.9,10.4s20.7,2.2,20.7,2.2c0.6-2.8-7.7-9.5-18.7-12.4
				C38.2,26.8,28.9,26.8,28.3,29.6z"/>
			<path style="fill:#FFB900;" d="M64.8,43.1L64.8,43.1c-3.5,0-10.4-0.3-17.8-2.3c-10.2-2.7-20.2-7.5-19.4-11.3
				c0.4-1.8,2.8-2.7,7.1-2.7c4,0,9.3,0.8,14.8,2.3c11.2,3,20,9.8,19.3,13.3c-0.1,0.4-0.4,0.6-0.7,0.6C67.9,43,66.8,43.1,64.8,43.1z
				 M34.6,28.3c-3.6,0-5.4,0.7-5.5,1.4c-0.4,1.8,6.4,6.3,18.3,9.5c7.3,1.9,14,2.2,17.4,2.2l0,0c1,0,1.7,0,2.3,0
				c-0.8-2.5-8-8.2-18.1-10.9C43.6,29.1,38.5,28.3,34.6,28.3z"/>
		</g>
		<g>
			<path style="fill:#FF8E00;" d="M116.3,29.6c0.6,2.8-7.9,7.5-18.9,10.4s-20.7,2.2-20.7,2.2c-0.6-2.8,7.7-9.5,18.7-12.4
				C106.4,26.8,115.7,26.8,116.3,29.6z"/>
			<path style="fill:#FFB900;" d="M79.8,43.1c-2,0-3.1-0.1-3.2-0.1c-0.4,0-0.7-0.3-0.7-0.6C75.2,38.8,84,32,95.2,29
				c5.5-1.5,10.7-2.3,14.8-2.3c4.4,0,6.8,0.9,7.1,2.7c0.8,3.8-9.2,8.6-19.4,11.3C90.2,42.8,83.3,43.1,79.8,43.1z M77.5,41.4
				c0.5,0,1.3,0,2.3,0c3.4,0,10.2-0.3,17.4-2.2c11.9-3.2,18.6-7.6,18.3-9.5c-0.1-0.7-1.9-1.4-5.5-1.4c-3.9,0-9,0.8-14.4,2.2
				C85.5,33.2,78.3,38.9,77.5,41.4z"/>
		</g>
		<path style="fill:#FFB900;" d="M69.8,30.7H67c-3.9,0-7,4.2-7,9.4v1.7c0,1.1,0.5,2.9,0.7,3.8c2.1,0,3.8-0.9,6.1-0.9l5.4-9l5.4,9
			c2.4,0.1,4.9,0.9,7.1,0.9c0.2-1,0-2.8,0-3.8v-1.7c0-5.2-3.1-9.4-7-9.4h-3c-1.2,2.1-2.1,3.7-2.5,4.3C71.9,34.3,71.1,32.8,69.8,30.7
			z"/>
		<g>
			<path style="fill:#FDD90B;" d="M83,42.5c0,4.5-2.7,8.1-6,8.1h-9.2c-3.3,0-6-3.6-6-8.1V41c0-4.5,2.7-8.1,6-8.1H77
				c3.3,0,6,3.6,6,8.1V42.5z"/>
			<path style="fill:#FFF15A;" d="M79.9,41.5c0,3.6-2.2,6.5-4.8,6.5h-7.4c-2.7,0-4.8-2.9-4.8-6.5v-1.2c0-3.6,2.2-6.5,4.8-6.5h7.4
				c2.7,0,4.8,2.9,4.8,6.5V41.5z"/>
			<g>
				<path style="fill:#FFFF9A;" d="M64.7,41.8c-0.6,0-1.1-0.5-1.1-1.1c0-1.9,0.6-3.4,1.8-4.5c2.3-2.1,6-1.8,6.1-1.8
					c0.6,0.1,1,0.6,1,1.2c-0.1,0.6-0.6,1-1.2,1c0,0-2.9-0.2-4.5,1.2c-0.7,0.7-1.1,1.6-1.1,2.9C65.8,41.3,65.3,41.8,64.7,41.8
					L64.7,41.8z"/>
			</g>
		</g>
		<g>
			<path style="fill:#FFFF9A;" d="M29.6,23.5c-0.1,0-0.1,0-0.2,0c-1.3-0.2-2.3-1.4-2.1-2.7c1.6-12.6,10-16.1,10.3-16.3
				c1.2-0.5,2.6,0.1,3.2,1.3c0.5,1.2-0.1,2.6-1.3,3.1c-0.3,0.1-6.2,2.8-7.4,12.4C32,22.7,30.9,23.6,29.6,23.5z"/>
		</g>
		<g>
			<path style="fill:#FFFF9A;" d="M115.2,23.5c0.1,0,0.1,0,0.2,0c1.3-0.2,2.3-1.4,2.1-2.7c-1.6-12.6-10-16.1-10.3-16.3
				c-1.2-0.5-2.6,0.1-3.1,1.3s0.1,2.6,1.3,3.1c0.3,0.1,6.2,2.8,7.4,12.4C112.9,22.7,114,23.6,115.2,23.5z"/>
		</g>
	</g>
</g>
</svg>
