<?xml version="1.0" encoding="utf-8"?>
<!-- Generator: Adobe Illustrator 25.0.0, SVG Export Plug-In . SVG Version: 6.00 Build 0)  -->
<svg version="1.1" id="레이어_1" xmlns="http://www.w3.org/2000/svg" xmlns:xlink="http://www.w3.org/1999/xlink" x="0px"
	 y="0px" viewBox="0 0 200 200" style="enable-background:new 0 0 200 200;" xml:space="preserve">
<g>
	<g>
		<g>
			<g>
				<path style="fill:#181F41;" d="M166.3,170.5c-4.6,0.5-4.2,6.5-4.1,9.2c0.1,1.7,0.5,4.2-1.1,5.5c-0.9,0.8-2.3,1.1-3.6,0.9
					c-1.4-0.2-2.6-1.1-3.4-2.1c-2-2.7-2.4-6.5-2.3-9.6c0.1-1.6,0.4-3.3,0.9-4.9c0.3-0.8,0.6-1.6,1-2.3c0.1-0.3,0.9-2.2,1.3-2.2
					l7.1-0.7C161.8,164.4,166.2,166.7,166.3,170.5z"/>
			</g>
			<g>
				<path style="fill:#181F41;" d="M166.3,170.5c5.8-0.4,4.3,6.5,2.9,8.8c-1.6,2.5-5.2,2.9-6.2,5.9c-0.6,1.5,0,3.4,1,4.6
					c1.1,1.3,2.9,1.5,4.5,1.4c5-0.3,8.2-4.7,10.3-8.8c1.9-3.8,2.7-8,2.3-13.8l-1.9-11l-25.5,0.8
					C153.7,158.3,148.6,170.8,166.3,170.5z"/>
			</g>
			
				<path style="fill:none;stroke:#31458C;stroke-width:0.7511;stroke-linecap:round;stroke-linejoin:round;stroke-miterlimit:10;" d="
				M170.6,174.3c2.6,0.2,7.8,0.3,10.4-0.2"/>
		</g>
		<g>
			<g>
				<path style="fill:#FFFFFF;" d="M157.3,108.8c0,0-5.8,32.7-5.8,59.7c4.5,0,21.1,0,30.1,0C181.6,122.6,175.8,108.8,157.3,108.8z"
					/>
				<g>
					<path style="fill:#B8D0FF;" d="M165.4,168.5c-0.4-31.3,0.5-57-8.1-59.7c-0.2,1.2-5.8,33.1-5.8,59.7
						C153.8,168.5,159.4,168.5,165.4,168.5z"/>
				</g>
				<g>
					<g>
						<defs>
							<path id="SVGID_1_" d="M157.3,108.8c0,0-5.8,32.7-5.8,59.7c4.5,0,21.1,0,30.1,0C181.6,122.6,175.8,108.8,157.3,108.8z"/>
						</defs>
						<clipPath id="SVGID_2_">
							<use xlink:href="#SVGID_1_"  style="overflow:visible;"/>
						</clipPath>
						
							<path style="clip-path:url(#SVGID_2_);fill:none;stroke:#181F41;stroke-width:0.7511;stroke-linecap:round;stroke-linejoin:round;stroke-miterlimit:10;" d="
							M150.9,147.6l25.5,0.3c0,0,2.9-3.7,5.7-4.7"/>
					</g>
				</g>
				<g>
					<g>
						<defs>
							<path id="SVGID_3_" d="M157.3,108.8c0,0-5.8,32.7-5.8,59.7c4.5,0,21.1,0,30.1,0C181.6,122.6,175.8,108.8,157.3,108.8z"/>
						</defs>
						<clipPath id="SVGID_4_">
							<use xlink:href="#SVGID_3_"  style="overflow:visible;"/>
						</clipPath>
						<rect x="147.6" y="163" style="clip-path:url(#SVGID_4_);fill:#00E7AE;" width="37.9" height="6"/>
					</g>
					<g>
						<defs>
							<path id="SVGID_5_" d="M157.3,108.8c0,0-5.8,32.7-5.8,59.7c4.5,0,21.1,0,30.1,0C181.6,122.6,175.8,108.8,157.3,108.8z"/>
						</defs>
						<clipPath id="SVGID_6_">
							<use xlink:href="#SVGID_5_"  style="overflow:visible;"/>
						</clipPath>
						<g style="clip-path:url(#SVGID_6_);">
							<path style="fill:#009DA5;" d="M165.4,168.5c0-1.9-0.1-3.7-0.1-5.5h-13.8c0,1.9-0.1,3.7-0.1,5.5
								C153.8,168.5,159.4,168.5,165.4,168.5z"/>
						</g>
					</g>
				</g>
			</g>
			<g>
				<g>
					<g>
						<g>
							<g>
								<g>
									<g>
										<circle style="fill:#181F41;" cx="117.9" cy="65.7" r="56.8"/>
										<path style="fill:#181F41;" d="M78.4,108.8c0,0,12,13.5,12,21h27.5h27.5c0-7.5,12-21,12-21H78.4z"/>
										<g>
											<path style="fill:#FFFFFF;" d="M72.8,100.4c8.5,16.2,25.5,27.3,45,27.3s36.5-11.1,45-27.3
												C162.8,100.4,72.8,100.4,72.8,100.4z"/>
										</g>
										<path style="fill:#B8D0FF;" d="M152.6,113.9c4.1-3.9,7.6-8.4,10.3-13.5h-3.2c-2.4,4.7-5.6,8.9-9.3,12.6
											C151.1,113.3,151.9,113.6,152.6,113.9z"/>
										<path style="fill:#B8D0FF;" d="M83.1,113.9c-4.1-3.9-7.6-8.4-10.3-13.5H76c2.4,4.7,5.6,8.9,9.3,12.6
											C84.6,113.3,83.8,113.6,83.1,113.9z"/>
									</g>
									<path style="fill:#FFFFFF;" d="M117.9,108.8H78.4c0,0,0,35.5,15.3,57.6c3.7,5.9,9.9,10.9,11.8,12.4
										c0.4,0.3,0.8,0.4,1.3,0.4h11.1H129c0.5,0,0.9-0.2,1.3-0.4c1.9-1.5,8.1-6.5,11.8-12.4c15.3-22,15.3-57.6,15.3-57.6
										S117.9,108.8,117.9,108.8z"/>
									
										<line style="fill:none;stroke:#B8D0FF;stroke-width:0.7511;stroke-linecap:round;stroke-linejoin:round;stroke-miterlimit:10;" x1="78.4" y1="108.8" x2="157.3" y2="108.8"/>
									<path style="fill:#B8D0FF;" d="M153.5,108.8c0,0,0,35.5-15.3,57.6c-3.7,5.9-9.9,10.9-11.8,12.4c-0.4,0.3-0.8,0.4-1.3,0.4
										h3.9c0.5,0,0.9-0.2,1.3-0.4c1.9-1.5,8.1-6.5,11.8-12.4c15.3-22,15.3-57.6,15.3-57.6S153.5,108.8,153.5,108.8z"/>
									<polygon style="fill:#FFFFFF;" points="182.1,53.8 170.9,45.3 170.9,65.7 170.9,86 182.1,77.5 									"/>
									<polygon style="fill:#B8D0FF;" points="170.9,86 182.1,77.5 182.1,70.5 170.9,79 									"/>
									<polygon style="fill:#FFFFFF;" points="53.7,53.8 64.8,45.3 64.8,65.7 64.8,86 53.7,77.5 									"/>
									<polygon style="fill:#B8D0FF;" points="64.8,86 53.7,77.5 53.7,70.5 64.8,79 									"/>
								</g>
							</g>
							<g>
								<path style="fill:none;stroke:#FFFFFF;stroke-width:4.0057;stroke-linecap:round;stroke-miterlimit:10;" d="M79.4,38.2
									c4.8-6.4,9.8-10.6,17.1-14.1"/>
								<circle style="fill:#FFFFFF;" cx="103.4" cy="21.1" r="2.8"/>
							</g>
						</g>
					</g>
				</g>
				<g>
					<circle style="fill:#181F41;" cx="117.9" cy="130.5" r="11.2"/>
					<g>
						<path style="fill:#181F41;" d="M117.9,119.4c-6.2,0-11.2,5-11.2,11.2c0,3.1,1.3,5.9,3.3,7.9l15.8-15.8
							C123.7,120.6,120.9,119.4,117.9,119.4z"/>
					</g>
					<circle style="fill:#00E7AE;" cx="117.9" cy="130.5" r="8.5"/>
					<path style="fill:#009DA5;" d="M121.3,122.8c1.4,1.5,2.3,3.5,2.3,5.8c0,4.7-3.8,8.5-8.5,8.5c-1.2,0-2.4-0.3-3.4-0.7
						c1.5,1.7,3.8,2.7,6.2,2.7c4.7,0,8.5-3.8,8.5-8.5C126.3,127.1,124.2,124.1,121.3,122.8z"/>
					<path style="fill:none;stroke:#FFFFFF;stroke-width:4.0057;stroke-linecap:round;stroke-miterlimit:10;" d="M117.8,124.8
						c-2.5,0.7-4.6,2.6-5.5,5.1"/>
				</g>
				<g>
					<path style="fill:#00E7AE;" d="M99.3,173.2c2.6,2.7,5.1,4.7,6.2,5.5c0.4,0.3,0.8,0.4,1.3,0.4h11.1H129c0.5,0,0.9-0.2,1.3-0.4
						c1.1-0.8,3.6-2.9,6.2-5.5h-18.6H99.3z"/>
				</g>
			</g>
			<g>
				<path style="fill:#009DA5;" d="M126.4,178.7c-0.4,0.3-0.8,0.4-1.3,0.4h3.9c0.5,0,0.9-0.2,1.3-0.4l0,0c0.1,0,0.1-0.1,0.2-0.2
					c0,0,0,0,0.1-0.1c0.1,0,0.1-0.1,0.2-0.1c0,0,0.1,0,0.1-0.1c0.1,0,0.1-0.1,0.2-0.2c0,0,0.1,0,0.1-0.1c0.1-0.1,0.1-0.1,0.2-0.2
					c0,0,0,0,0.1-0.1s0.2-0.2,0.3-0.2l0,0c1.3-1.1,3-2.6,4.8-4.4l0,0h-3.9C130,175.9,127.5,177.9,126.4,178.7z"/>
			</g>
			<path style="fill:#B8D0FF;" d="M82.2,108.8c0,0,0,35.5,15.3,57.6c3.7,5.9,9.9,10.9,11.8,12.4c0.4,0.3,0.8,0.4,1.3,0.4h-3.9
				c-0.5,0-0.9-0.2-1.3-0.4c-1.9-1.5-8.1-6.5-11.8-12.4c-15.3-22-15.3-57.6-15.3-57.6S82.2,108.8,82.2,108.8z"/>
			<g>
				<path style="fill:#009DA5;" d="M109.3,178.7c0.4,0.3,0.8,0.4,1.3,0.4h-3.9c-0.5,0-0.9-0.2-1.3-0.4l0,0c-0.1,0-0.1-0.1-0.2-0.2
					c0,0,0,0-0.1-0.1c-0.1,0-0.1-0.1-0.2-0.1c0,0-0.1,0-0.1-0.1c-0.1,0-0.1-0.1-0.2-0.2c0,0-0.1,0-0.1-0.1c-0.1-0.1-0.1-0.1-0.2-0.2
					c0,0,0,0-0.1-0.1s-0.2-0.2-0.3-0.2l0,0c-1.3-1.1-3-2.6-4.8-4.4l0,0h3.9C105.7,175.9,108.2,177.9,109.3,178.7z"/>
			</g>
			
				<path style="fill:none;stroke:#181F41;stroke-width:0.7511;stroke-linecap:round;stroke-linejoin:round;stroke-miterlimit:10;" d="
				M153,141.2c3.3-13.2,4.1-23,4.3-28.9c0.1-2.2,0.1-3.4,0.1-3.4"/>
		</g>
		
			<line style="fill:none;stroke:#31458C;stroke-width:0.7511;stroke-linecap:round;stroke-linejoin:round;stroke-miterlimit:10;" x1="162.3" y1="174.3" x2="152.2" y2="173.2"/>
	</g>
	<g>
		<g>
			
				<path style="fill:none;stroke:#FFFFFF;stroke-width:2.5036;stroke-linecap:round;stroke-linejoin:round;stroke-miterlimit:10;" d="
				M91.3,58.5c0-7.3,2.3-11.8,7.7-11.8c5.4,0,7.7,4.5,7.7,11.8"/>
		</g>
		<g>
			
				<path style="fill:none;stroke:#FFFFFF;stroke-width:2.5036;stroke-linecap:round;stroke-linejoin:round;stroke-miterlimit:10;" d="
				M144.4,58.5c0-7.3-2.3-11.8-7.7-11.8s-7.7,4.5-7.7,11.8"/>
		</g>
		<g>
			
				<path style="fill:none;stroke:#FFFFFF;stroke-width:2.5036;stroke-linecap:round;stroke-linejoin:round;stroke-miterlimit:10;" d="
				M117.9,92.2c4,0,7.3-8.6,7.3-26.8h-14.6C110.6,83.6,113.8,92.2,117.9,92.2z"/>
		</g>
	</g>
	<g>
		<g>
			<g>
				<path style="fill:#181F41;" d="M67.9,58.2c-0.4-1.4-1.5-2.5-3-2.7c-1.1-0.1-2.1,0.1-3.1,0.6c-1.7,0.8-3,2.1-4.1,3.6
					c-0.7,1-1.3,2-1.9,3c-1.4-3.7-2.9-7-4.6-10.6c-3-6.5-7.1-10.1-12-6.5c-3.9,2.8,3.5,15,3.9,16.3c-1.2-2.2-2.3-4.3-3.4-6.5
					c-1.6-3.2-4.4-7.9-8.7-6.4c-3.5,1.2-3.6,4.9-2.6,7.9c0.7,2.2,1.5,4.2,2.4,6.3c0,0.1,2.7,5.6,2.7,5.6c-0.4-0.6-3.4-6.7-3.8-7.3
					c-1.3-2.2-3-4.7-5.5-5.6c-2.7-1-5.4,0.4-6.1,3.2c-0.4,1.5-0.2,3.1,0.3,4.5c0.8,2.3,2.1,4.5,3.3,6.5c3.4,5.8,6.7,11.4,9.9,16.8
					l5.2,8.1l25.8-11.4L61.4,76c2.3-4.2,4.6-8.3,6-12.9C67.8,61.5,68.4,59.9,67.9,58.2z"/>
			</g>
			
				<path style="fill:none;stroke:#31458C;stroke-width:0.7511;stroke-linecap:round;stroke-linejoin:round;stroke-miterlimit:10;" d="
				M65,69.1c0.9-1.9,1.7-3.9,2.3-6c0.5-1.6,1.1-3.2,0.6-4.9c-0.4-1.4-1.5-2.5-3-2.7"/>
			
				<path style="fill:none;stroke:#31458C;stroke-width:0.7511;stroke-linecap:round;stroke-linejoin:round;stroke-miterlimit:10;" d="
				M55.9,62.8c0.1,4,2.7,9.6,6,12.3"/>
			
				<path style="fill:none;stroke:#31458C;stroke-width:0.7511;stroke-linecap:round;stroke-linejoin:round;stroke-miterlimit:10;" d="
				M24.8,75.3c8-4.5,21.4-11.1,30-14.4"/>
			
				<line style="fill:none;stroke:#31458C;stroke-width:0.7511;stroke-linecap:round;stroke-linejoin:round;stroke-miterlimit:10;" x1="29.6" y1="60.1" x2="34.4" y2="70.3"/>
			
				<line style="fill:none;stroke:#31458C;stroke-width:0.7511;stroke-linecap:round;stroke-linejoin:round;stroke-miterlimit:10;" x1="39.6" y1="55" x2="44.6" y2="65.3"/>
		</g>
		<g>
			<path style="fill:#FFFFFF;" d="M78.5,109c-5-11.9-10.1-21.7-16.2-34.8L32,88.4c19.8,41.9,32.1,50.7,48.6,42.4
				C80,121.6,78.5,109,78.5,109z"/>
			<path style="fill:#B8D0FF;" d="M36.4,86.3L32,88.4c19.8,41.9,32.1,50.7,48.6,42.4c-0.1-1.2-0.2-2.5-0.3-3.8
				C65.8,132.4,54.1,122.9,36.4,86.3z"/>
			<g>
				<g>
					<defs>
						<path id="SVGID_7_" d="M78.5,109c-5-11.9-10.1-21.7-16.2-34.8L32,88.4c19.8,41.9,32.1,50.7,48.6,42.4
							C80,121.6,78.5,109,78.5,109z"/>
					</defs>
					<clipPath id="SVGID_8_">
						<use xlink:href="#SVGID_7_"  style="overflow:visible;"/>
					</clipPath>
					
						<path style="clip-path:url(#SVGID_8_);fill:none;stroke:#181F41;stroke-width:0.7511;stroke-linecap:round;stroke-linejoin:round;stroke-miterlimit:10;" d="
						M73,90l-27.3,13.5c0,0-0.9,4.6-3,6.8"/>
				</g>
			</g>
			<path style="fill:none;" d="M32.9,88.4c20.7,41,32.1,50.7,48.6,42.4"/>
			<g>
				<path style="fill:#00E7AE;" d="M62.3,74.2L32,88.4c0.9,1.9,1.8,3.7,2.6,5.4l30.3-14C64.1,78,63.2,76.1,62.3,74.2z"/>
			</g>
			<g>
				<path style="fill:#009DA5;" d="M36.4,86.3L32,88.4c0.3,0.6,0.5,1.1,0.8,1.7c0.1,0.2,0.2,0.4,0.3,0.6c0.2,0.3,0.3,0.7,0.5,1
					c0.1,0.3,0.2,0.5,0.4,0.8c0.2,0.5,0.4,0.9,0.7,1.4l4.5-2.1C38.2,90,37.3,88.2,36.4,86.3z"/>
			</g>
		</g>
		
			<path style="fill:none;stroke:#181F41;stroke-width:0.7511;stroke-linecap:round;stroke-linejoin:round;stroke-miterlimit:10;" d="
			M80.6,130.8c-0.7-9.1-2.1-21.7-2.1-21.7"/>
	</g>
</g>
</svg>
