<?xml version="1.0" encoding="UTF-8"?>
<svg xmlns="http://www.w3.org/2000/svg" version="1.1" viewBox="0 0 390 390">
  <!-- Generator: Adobe Illustrator 28.7.1, SVG Export Plug-In . SVG Version: 1.2.0 Build 142)  -->
  <g>
    <g id="_레이어_1" data-name="레이어_1">
      <g>
        <g>
          <rect x="133.3" y="202.4" width="192.2" height="13.4" rx="3.2" ry="3.2" transform="translate(-24.1 30.1) rotate(-7.1)" style="fill: #a1562a;"/>
          <path d="M137.6,228.6c-2.3,0-4.3-1.7-4.6-4.1l-.9-6.9c-.3-2.5,1.5-4.9,4-5.2l184.4-23c2.5-.3,4.9,1.5,5.2,4l.9,6.9c.2,1.2-.2,2.4-.9,3.4-.8,1-1.9,1.6-3.1,1.8l-184.4,23c-.2,0-.4,0-.6,0ZM321.1,192.3c0,0-.1,0-.2,0l-184.4,23c-1,.1-1.7,1-1.5,2l.9,6.9c.1,1,1,1.7,2,1.5l184.4-23c.5,0,.9-.3,1.2-.7.3-.4.4-.8.4-1.3l-.9-6.9c-.1-.9-.9-1.5-1.8-1.5ZM322.4,204.2h0,0Z"/>
        </g>
        <g>
          <g>
            <path d="M72.9,224.7c-.4-1.4.3-2.9,1.6-3.5,5.8-2.8,21.4-9.6,27.1-5.1,6.4,5-9.4,17.1-20.4,24.4-1.7,1.2-4.1.2-4.6-1.8l-3.7-14Z" style="fill: #fff;"/>
            <path d="M79.5,242.3c-.5,0-1.1,0-1.6-.3-1.3-.5-2.4-1.7-2.7-3l-3.7-14c-.5-2.1.5-4.2,2.4-5.1,8.1-3.9,22.5-9.7,28.6-5,1.4,1.1,2.1,2.5,2,4.2-.2,5.1-7.8,12.7-22.5,22.5-.7.5-1.6.8-2.4.8ZM74.3,224.3l3.7,14c.1.5.5.9,1,1.1.5.2,1,.1,1.4-.2,13.3-8.9,21.1-16.3,21.2-20.2,0-.8-.3-1.3-.9-1.8-4.1-3.2-15.9.6-25.6,5.3-.7.3-1,1.1-.8,1.8h0Z"/>
          </g>
          <g>
            <g>
              <path d="M60,114.3c-3.4,42.1,7.5,69.1,13.4,85l.6-.2h111.3c5.8-15.9,16.7-42.9,13.3-84.8-4.3-53.2-69.3-49.3-69.3-49.3,0,0-65-3.9-69.3,49.3Z" style="fill: #67a9e4;"/>
              <path d="M73.4,199.3c1.5,4.2,2.7,7.6,3.2,10.4,1.1,6.7-.3,14.1-.9,20.8-.9,10.7-1.7,21.4-1.8,32.2,0,4.2,0,8.7.3,13.2h110.4c.4-6.4.2-12.9,0-18.6-.4-15.2-5.1-32.6-2.5-47.7.4-2.8,1.7-6.2,3.2-10.5-8.4,1.7-14.3,2.3-21.4,7.2-9.6,6.7-21.1,11.7-33,11.2-11.2-.5-21.5,5-31.9-2.4-4.2-3-7.1-7.3-10.8-10.8-4.1-3.9-8.8-3.8-14.2-5.2l-.6.2Z" style="fill: #fff;"/>
              <path d="M73.9,275.9c0,0,.2,0,.3,0,0,0,0,0,0,0h-.3Z" style="fill: #67a9e4;"/>
              <path d="M74.2,275.9s0,0,0,0c50.3,16.3,110.4,0,110.4,0h-110.4Z" style="fill: #fff;"/>
              <path d="M74.2,276c.8,12.7,4,25.3,15.8,31.7,24.8,13.4,55.9,13.9,80.2-.9,10.4-6.3,13.5-18.5,14.3-30.8,0,0-60.1,16.3-110.4,0Z" style="fill: #265176;"/>
              <path d="M163.8,206.3c7.2-5,13.1-5.5,21.4-7.2h-111.3c5.3,1.5,10.1,1.4,14.2,5.2,3.7,3.5,6.5,7.8,10.8,10.8,10.5,7.4,20.8,1.9,31.9,2.4,11.9.5,23.4-4.5,33-11.2Z" style="fill: #67a9e4;"/>
            </g>
            <g>
              <path d="M129.9,319.2c-13.8,0-27.8-3.4-40.5-10.4-13.4-7.3-15.9-22.2-16.6-32.8,0,0,0,0,0-.1-.3-4.6-.3-9.3-.3-13.3,0-10.5.9-21,1.7-31.3v-1c.2-1.6.4-3.2.6-4.8.6-5.3,1.2-10.7.4-15.6-.4-2.7-1.7-6.3-3.1-10.1l-.9-2.4c-5.9-16-15.8-42.8-12.5-83.2,4.4-54,70.1-50.7,70.8-50.6.5,0,66.2-3.3,70.6,50.7,3.3,40.2-6.6,67-12.5,83l-.9,2.4c-1.6,4.5-2.7,7.7-3.1,10.3-1.6,9.4-.3,19.9.9,30.1.7,5.8,1.4,11.7,1.6,17.3v1.6c.2,5.3.4,11.2,0,17.1-.7,10.2-2.9,24.6-15,31.9-12.4,7.6-26.7,11.3-41.1,11.3ZM75.6,275.9c1,16,5.7,25.3,15.1,30.4,25.2,13.7,55.4,13.3,78.8-.9,8.3-5.1,12.6-14.5,13.6-29.6.4-5.8.2-11.7,0-16.8v-1.6c-.2-5.4-.9-11.1-1.6-17-1.3-10.4-2.6-21.1-.9-30.9.4-2.8,1.6-6.1,3.3-10.8l.9-2.4c5.8-15.8,15.5-42.2,12.3-81.8-1.7-21.4-13.6-36-35.2-43.4-16.3-5.5-32.4-4.7-32.5-4.7-.3,0-16.4-.9-32.7,4.7-21.6,7.4-33.5,21.9-35.2,43.4-3.2,39.7,6.5,66.1,12.4,81.9l.9,2.4c1.4,3.9,2.8,7.7,3.3,10.6.9,5.3.3,11-.4,16.4-.2,1.6-.4,3.2-.5,4.8v1c-.9,10.2-1.7,20.7-1.8,31,0,4,0,8.6.3,13.1,0,0,0,0,0,.1Z"/>
              <path d="M111.8,220.4c-4.5,0-9.1-.9-13.7-4.1-2.8-1.9-5-4.4-7.1-6.8-1.2-1.4-2.5-2.8-3.9-4.1-2.7-2.6-5.8-3.2-9.5-4-1.3-.3-2.7-.5-4.1-.9-.8-.2-1.2-1-1-1.8.2-.8,1-1.2,1.8-1,1.3.4,2.7.6,3.9.9,3.9.8,7.5,1.5,10.9,4.7,1.4,1.4,2.7,2.8,4,4.3,2.1,2.4,4.1,4.6,6.6,6.4,6.7,4.7,13.3,3.8,20.4,2.9,3.5-.5,7.1-.9,10.8-.7,10.2.4,21-3.2,32.1-10.9,6.4-4.4,11.8-5.5,18.7-6.8,1.1-.2,2.2-.4,3.3-.7.8-.1,1.5.3,1.7,1.1s-.3,1.5-1.1,1.7c-1.2.2-2.3.5-3.3.7-6.5,1.3-11.6,2.2-17.6,6.3-11.6,8-23,11.9-33.9,11.4-3.4-.2-6.9.3-10.3.7-2.9.4-5.8.7-8.7.7Z"/>
              <path d="M124.9,284.5c-16.4,0-34.3-1.8-51.1-7.2-.1,0-.2,0-.3,0-.7-.3-1.2-1.1-.9-1.8.3-.7,1.1-1.2,1.8-.9,0,0,0,0,0,0,0,0,.1,0,.2,0,49.3,15.9,109,0,109.6,0,.8-.2,1.6.2,1.8,1,.2.8-.2,1.6-1,1.8-.4.1-27.3,7.3-60.1,7.3ZM74.2,274.5h0,0Z"/>
            </g>
          </g>
          <path d="M92.4,150.9c-1.8,0-3-.1-3.2-.1-13.5-1.9-18-11-18.2-11.4-.3-.7,0-1.6.7-1.9.7-.3,1.6,0,1.9.7.2.3,4.1,8.2,16,9.8,0,0,12.6,1.3,17.5-4.8.5-.6,1.4-.7,2-.2.6.5.7,1.4.2,2-4.3,5.2-12.4,6-16.9,6Z" style="fill: #215c8d;"/>
          <g>
            <ellipse cx="92.4" cy="121.8" rx="19.1" ry="22.2" style="fill: #fff;"/>
            <path d="M92.4,145.5c-11.3,0-20.5-10.6-20.5-23.6s9.2-23.6,20.5-23.6,20.5,10.6,20.5,23.6-9.2,23.6-20.5,23.6ZM92.4,101.1c-9.7,0-17.7,9.3-17.7,20.7s7.9,20.7,17.7,20.7,17.7-9.3,17.7-20.7-7.9-20.7-17.7-20.7Z"/>
          </g>
          <ellipse cx="87.6" cy="121.8" rx="11" ry="12.8"/>
          <g>
            <path d="M86.8,158.4c1,.2,2,.4,3,.6,3.9.6,7.8.9,11.6,2.2,3.7,1.2,7.3,3.6,8.9,7.2,2.4,5.3-.3,12-5,15.5-4.7,3.5-10.8,4.5-16.7,4.8-3.9.2-7.9,0-11.8-.9-3.9-.9-7.6-2.6-10.9-4.9-1.4-1-2.8-2.2-3.6-3.8-.8-1.6-.6-3.4.4-4.9-5.1-3.1-1.7-11.6,2.2-14.4,3.5-2.5,8-3.1,12.2-2.9s6.4.9,9.6,1.5Z" style="fill: #ffd174;"/>
            <path d="M86,190.1c-3.6,0-6.6-.3-9.4-1-4.1-.9-8-2.7-11.4-5.1-1.4-1-3.1-2.4-4-4.3-.8-1.7-.8-3.5-.2-5.1-1.3-1.2-2-2.9-2.1-4.9-.2-4.3,2.6-9,5.3-11,3.3-2.4,7.9-3.5,13.2-3.1,2.9.2,5.8.8,8.6,1.3l1.2.2h0c1,.2,2,.4,3,.6,1,.2,2.1.3,3.1.5,2.9.4,5.8.8,8.7,1.8,4.7,1.6,8.2,4.4,9.8,7.9,2.9,6.4-.7,13.6-5.5,17.3-5.5,4.1-12.6,4.9-17.5,5.1-.9,0-1.8,0-2.7,0ZM75.4,158.3c-3,0-6.7.5-9.6,2.7-2.1,1.5-4.3,5.4-4.1,8.6,0,1.6.7,2.7,1.9,3.4.3.2.6.5.7.9,0,.4,0,.8-.2,1.1-.7,1-.8,2.3-.2,3.5.7,1.4,2,2.5,3.1,3.2,3.1,2.2,6.7,3.8,10.4,4.7,3.3.8,6.9,1,11.4.8,7.1-.3,12.2-1.7,15.9-4.5,4-3,6.8-9,4.6-13.8-1.7-3.8-5.8-5.6-8.1-6.4-2.6-.9-5.3-1.2-8.2-1.7-1.1-.2-2.1-.3-3.2-.5-1-.2-2-.4-3.1-.6l-1.2-.2c-2.7-.5-5.5-1.1-8.2-1.3-.5,0-1.1,0-1.7,0Z"/>
          </g>
          <g>
            <path d="M138.8,76.9c.4-.3.7-.6.9-1,1.7-2.8,1.8-8.7,2.3-12,1.3-7.8,2.3-15.6,2.8-23.5.2-3,.1-6.6-2.3-8.3-2-1.4-4.8-1-6.7.5-1.9,1.5-3,3.8-3.7,6.1-.6-3.8-1.3-7.7-3.5-10.9-2.2-3.2-6.4-5.3-10-3.8-2.4,1-4,3.4-4.7,5.9-.7,2.5-.5,5.2-.2,7.8,1,8.2,2.1,16.5,4.1,24.5.7,2.6,1.4,9.1,3.5,11,1.6,1.4,6.4,2.8,8.6,3.7,2.6,1.1,6.5,1.7,8.7.1Z" style="fill: #ffd174;"/>
            <path d="M135.3,79.3c-2,0-4-.5-5.7-1.2-.6-.2-1.4-.5-2.2-.8-2.5-.9-5.4-1.9-6.8-3.1-1.9-1.6-2.7-5.3-3.5-9.5-.2-.9-.3-1.6-.5-2.2-2.1-8.3-3.2-16.8-4.2-24.7-.3-2.5-.6-5.4.2-8.3.8-3.2,2.9-5.8,5.5-6.9,4.4-1.8,9.2.8,11.7,4.3,1.5,2.1,2.3,4.6,2.9,7,.7-1,1.4-1.8,2.3-2.5,2.6-2,6.1-2.2,8.4-.5,3,2.2,3.1,6.3,2.9,9.6-.6,7.9-1.5,15.8-2.9,23.6-.1.9-.3,2-.4,3.2-.3,3.3-.7,7-2.1,9.3-.3.6-.8,1-1.3,1.4-1.2.9-2.8,1.3-4.4,1.3ZM121.1,24.9c-.6,0-1.3.1-1.9.4-1.8.7-3.2,2.6-3.8,4.9-.6,2.4-.4,5-.1,7.3.9,7.8,2.1,16.1,4.1,24.3.2.6.3,1.4.5,2.3.5,2.5,1.3,6.8,2.6,7.9,1,.9,3.8,1.9,5.9,2.6.9.3,1.7.6,2.3.9,2.4,1,5.7,1.4,7.3.3,0,0,0,0,0,0,.2-.2.4-.4.6-.6,1.1-1.7,1.4-5.3,1.7-8.1.1-1.2.2-2.4.4-3.3,1.3-7.7,2.3-15.6,2.8-23.3.2-2.6.2-5.7-1.7-7-1.5-1.1-3.7-.6-5,.5-1.4,1.1-2.5,2.8-3.2,5.3-.2.6-.8,1.1-1.5,1-.7,0-1.2-.5-1.3-1.2-.6-3.4-1.2-7.3-3.3-10.3-1.4-2-3.9-3.7-6.4-3.7Z"/>
          </g>
          <path d="M132.5,66.3s0,0-.1,0c-.8,0-1.4-.8-1.3-1.6l1.4-16.1c0-.8.8-1.4,1.6-1.3.8,0,1.4.8,1.3,1.6l-1.4,16.1c0,.7-.7,1.3-1.4,1.3Z" style="fill: #c48200;"/>
          <path d="M125.4,58.3c-.7,0-1.3-.5-1.4-1.2l-2.5-19c-.1-.8.5-1.5,1.2-1.6.8-.1,1.5.4,1.6,1.2l2.5,19c.1.8-.5,1.5-1.2,1.6,0,0-.1,0-.2,0Z" style="fill: #c48200;"/>
          <path d="M126.3,273.1c-6.3,0-13.4-.6-20.3-2.5-.8-.2-1.2-1-1-1.8.2-.8,1-1.2,1.8-1,19.5,5.3,41.1,0,41.4,0,.8-.2,1.6.3,1.7,1.1.2.8-.3,1.5-1.1,1.7-.6.1-10.3,2.5-22.5,2.5Z"/>
          <g>
            <path d="M158.5,304.7c-.3,1.1,3,5.2,3.6,6.3,1.3,2.2,2.6,4.5,3.9,6.7,2.5,4.3,5.1,8.6,7.7,12.9s5.4,8.8,8.3,13.2c2.2,3.4,4.5,6.8,6.5,10.4,0,0-10.6,8.4-11.8,9.3-4.1,3.5-6.7,8.3-9.1,13-.4.7-.7,1.5-.4,2.2.2.5.6.8.9,1.1,2.1,1.7,5.7,4,8.5,3.3,11.1-3,24.3-13.6,31.5-22.3.3-.3.5-.6.6-1,0-.4-.1-.8-.3-1.1-9.2-20.3-26.1-36.5-39.4-54.3-1.1-1.5-2.4-3.1-4.1-3.8s-6,2.2-6.4,4.1Z" style="fill: #ffd174;"/>
            <path d="M175.4,384.7c-2.3,0-5.1-1.3-8.2-3.7-.6-.4-1.1-1-1.4-1.7-.5-1.4.2-2.7.5-3.4,2.6-5.1,5.3-10,9.4-13.5,3.8-3.2,8.2-6.9,10.9-8.6-1.4-2.5-3.1-5-4.6-7.4l-1.2-1.9c-2.6-4-5.3-8.4-8.3-13.2-2.6-4.3-5.2-8.6-7.7-12.9-1.3-2.2-2.6-4.5-3.9-6.7-.1-.2-.5-.7-.8-1.2-2.4-3.4-3.2-4.9-2.9-6.1h0c.4-1.7,2.5-3.5,4.3-4.4,1.1-.6,2.7-1.2,4-.7,2.2.8,3.7,2.8,4.8,4.3,4.1,5.5,8.6,11,13,16.3,9.8,11.9,20,24.1,26.5,38.2.2.4.5,1.1.4,1.9,0,.8-.6,1.4-.9,1.8-7.5,9-20.9,19.8-32.3,22.8-.5.1-1,.2-1.5.2ZM189.2,355.4c-.9.6-10.4,8.2-11.6,9.2-3.8,3.2-6.2,7.6-8.7,12.6-.4.8-.4,1-.4,1.1,0,0,.1.2.5.5,3,2.4,5.6,3.5,7.2,3,10.7-2.8,23.6-13.1,30.8-21.8,0,0,.2-.3.3-.4,0,0-.1-.2-.2-.3-6.3-13.8-16.3-25.9-26.1-37.6-4.4-5.3-9-10.8-13.1-16.4-1.2-1.6-2.2-2.8-3.5-3.3-.2,0-.9,0-2,.7-1.3.8-2.2,1.7-2.4,2.2.3.8,1.8,3,2.4,3.9.4.6.8,1.2,1,1.4,1.3,2.2,2.6,4.5,3.9,6.7,2.5,4.3,5.1,8.6,7.6,12.9,2.9,4.8,5.6,9.1,8.2,13.1l1.2,1.9c1.8,2.8,3.7,5.6,5.3,8.6.3.5.2,1.1-.1,1.6-.1.1-.2.3-.4.4ZM159.9,304.8h0Z"/>
          </g>
          <g>
            <path d="M143.7,306.3l15.2,22.6s18.4-6.7,26.6-17.8c-1.8-2.7-3.6-5.3-5.4-8-2.5-3.6-6.7-9.9-7.5-14.3" style="fill: #265176;"/>
            <path d="M159,330.3c-.5,0-.9-.2-1.2-.6l-15.2-22.6c-.4-.7-.3-1.5.4-2,.7-.4,1.6-.3,2,.4l14.6,21.6c3.8-1.5,17.4-7.4,24.3-16.2l-1.2-1.8c-1.2-1.8-2.4-3.6-3.6-5.3-2.6-3.8-6.9-10.2-7.7-14.9-.1-.8.4-1.5,1.2-1.6.8-.1,1.5.4,1.6,1.2.7,4.1,4.9,10.3,7.2,13.7,1.2,1.8,2.4,3.6,3.6,5.4l1.8,2.6c.3.5.3,1.2,0,1.6-8.3,11.4-26.5,18.1-27.3,18.3-.2,0-.3,0-.5,0Z"/>
          </g>
          <path d="M201.1,358.6c-.6,0-1.1-.4-1.3-1-1.1-2.9-11.5-18.5-15.4-24.3-.4-.7-.3-1.5.4-2,.7-.5,1.5-.3,2,.4,1.5,2.1,14.4,21.1,15.8,24.9.3.7-.1,1.6-.9,1.8-.2,0-.3,0-.5,0Z" style="fill: #c48200;"/>
          <path d="M112.4,229.6c-7.6,0-15.2-2.4-21.3-6.9-.6-.5-.8-1.4-.3-2s1.4-.8,2-.3c8.4,6.2,19.7,8,29.6,4.8.5-.2,1.1-.4,1.6-.6,1.6-.6,3.2-1.1,5-1.4,1.6-.2,3.2-.2,4.7-.1.5,0,1,0,1.4,0,6.4,0,12.7-1.5,18.3-4.6.7-.4,1.6-.1,1.9.6.4.7.1,1.6-.6,1.9-6,3.3-12.8,5.1-19.7,4.9-.5,0-1,0-1.5,0-1.5,0-2.8,0-4.2,0-1.5.2-2.9.7-4.4,1.3-.6.2-1.1.4-1.7.6-3.5,1.1-7.2,1.7-10.9,1.7Z"/>
          <g>
            <path d="M175.4,232c15.7,7.1,31.7,16.7,38.9,32.4,1.1,2.5,2.1,5.3,1.4,8s-3.5,5-6.1,4.1c-1.3-.4-2.3-1.5-3.6-1.7-1.6-.3-2.5.6-3.9,1.1-3.3,1.1-5.2,0-7.5-2.5-1.1,2-4.1,2.1-6,.9-1.9-1.2-3-3.3-4.1-5.3-5.2-9.2-12.8-19-21.3-25.3-7.2-5.4-16.6-7.2-23.3-13.5-2.6-2.5-5.3-7.7-1.2-10.3,2.7-1.7,7.8,1.1,10.5,2,8.9,2.9,17.7,6.3,26.2,10.2Z" style="fill: #ffd174;"/>
            <path d="M210.7,278.1c-.5,0-1,0-1.5-.2-.7-.2-1.4-.6-1.9-1-.5-.3-1-.6-1.5-.7-.6,0-1.1,0-1.9.5-.4.2-.8.4-1.3.5-3.6,1.2-6,0-7.9-1.7-.5.4-1.1.7-1.8.9-1.6.4-3.6.1-5-.8-2.1-1.3-3.3-3.5-4.4-5.5l-.2-.3c-5.8-10.2-13.4-19.3-20.9-24.9-3.1-2.3-6.7-3.9-10.2-5.6-4.6-2.1-9.4-4.4-13.3-8-1.9-1.8-4-5.1-3.7-8.2.2-1.8,1.1-3.3,2.8-4.4,2.8-1.8,6.9-.1,9.9,1.1.7.3,1.3.5,1.9.7,8.9,2.9,17.8,6.4,26.3,10.3,14.3,6.5,31.8,16.1,39.6,33.1,1,2.2,2.3,5.6,1.5,8.9-.5,1.9-1.8,3.6-3.5,4.6-.9.5-1.9.8-2.9.8ZM205.4,273.3c.3,0,.5,0,.8,0,1,.2,1.8.7,2.5,1.1.5.3.9.5,1.3.7.8.3,1.6,0,2.1-.3,1-.6,1.9-1.7,2.1-2.8.5-1.9,0-4.1-1.3-7-7.4-16.1-24.3-25.4-38.2-31.7h0c-8.5-3.8-17.2-7.2-26.1-10.2-.6-.2-1.3-.5-2-.8-2.3-.9-5.7-2.3-7.3-1.3-.9.6-1.4,1.3-1.5,2.2-.2,1.9,1.3,4.4,2.8,5.9,3.5,3.4,7.9,5.4,12.5,7.5,3.6,1.7,7.3,3.4,10.6,5.9,7.9,5.8,15.8,15.2,21.7,25.8l.2.3c1,1.8,2,3.5,3.5,4.5.8.5,1.9.7,2.8.5.6-.1,1-.4,1.2-.8.2-.4.6-.7,1.1-.7.5,0,.9.1,1.2.5,2.2,2.4,3.6,2.8,6,2.1.4-.1.7-.3,1-.4.8-.4,1.7-.8,2.8-.8Z"/>
          </g>
          <g>
            <path d="M167.4,228.4c.4-1.4-.3-2.9-1.6-3.5-5.8-2.8-21.4-9.6-27.1-5.1-6.4,5,9.5,17,20.5,24.3,1.7,1.1,4.1.2,4.6-1.8l3.7-14Z" style="fill: #fff;"/>
            <path d="M160.8,246.1c-.9,0-1.7-.3-2.4-.7-14.8-9.8-22.4-17.3-22.6-22.4,0-1.7.6-3.1,2-4.2,6.1-4.8,20.5,1,28.6,4.9,1.9.9,2.9,3.1,2.4,5.1h0s-3.7,14-3.7,14c-.4,1.4-1.4,2.5-2.7,3.1-.5.2-1.1.3-1.6.3ZM144.2,219.7c-1.9,0-3.5.4-4.6,1.2-.7.5-.9,1.1-.9,1.8.2,4,7.9,11.3,21.3,20.2.4.3.9.3,1.4.2.5-.2.8-.6,1-1.1l3.7-14c.2-.7-.2-1.5-.8-1.8-7.2-3.5-15.5-6.4-21-6.4Z"/>
          </g>
          <path d="M205.1,269.8c-.5,0-1.1-.3-1.3-.9-2.9-6.5-7.4-12.3-13-16.7-.6-.5-.7-1.4-.2-2,.5-.6,1.4-.7,2-.2,6,4.7,10.8,10.9,13.9,17.8.3.7,0,1.6-.7,1.9-.2,0-.4.1-.6.1Z" style="fill: #c48200;"/>
          <path d="M194.3,268.3c-.5,0-1-.3-1.3-.8-1.1-2.1-2.3-4.5-3.8-6.5-1.6-2.2-3.4-3.8-5.3-4.8-.7-.4-1-1.2-.6-1.9.4-.7,1.2-1,1.9-.6,2.3,1.2,4.4,3.1,6.2,5.6,1.7,2.3,2.9,4.7,4.1,6.9.4.7,0,1.6-.6,1.9-.2.1-.4.2-.7.2Z" style="fill: #c48200;"/>
        </g>
        <g>
          <g>
            <path d="M236.9,285.4c6.8,20.6,13.9,41,27.5,57.4,3.4,4.1,7.3,8.1,8.4,13.3,3.1,14.1-16.2,11.6-24.4,15.7-7,3.5-15.1,9.7-21.5,5.2-9.1-6.4-7.8-6.3-17.4-3-8.5,2.9-17.3,4.4-24.5,8.2-11.3,6-15,2.1-26.6,1-11-1.1-22.2,6.7-32.9,3.6-6.4-1.9-11.6-8.1-18.2-7.5-2.2.2-4.2,1.1-6.3,1.7-9,2.7-20.6-.1-26.8-7.4-6.9-8-4.4-20.9-4.9-31-1.4-26.2-4-52.4-4.1-78.8,0-10.7.3-21.6,3.9-31.6,1.5-4,3.6-8,7.1-10.4,4.1-2.8,9.4-2.9,14.3-2.9,24.1-.2,52.6,4,74.9-4.6,13.5-5.2,29.4-5.8,39.7,5.4,16.6,18.1,24.1,42.1,31.9,65.8Z" style="fill: #2e2e2e;"/>
            <path d="M131,389c-2,0-3.9-.2-5.9-.8-2.7-.8-5.2-2.3-7.6-3.8-3.4-2.1-6.6-4-10.1-3.7-1.4.1-2.8.6-4.3,1.1-.6.2-1.1.4-1.7.6-9.8,3-22-.4-28.3-7.9-5.6-6.5-5.4-15.9-5.3-24.2,0-2.7,0-5.3,0-7.7-.4-8.2-1-16.5-1.6-24.5-1.2-17.8-2.4-36.1-2.5-54.3,0-10,.2-21.6,4-32.1,1.9-5.3,4.4-9,7.7-11.1,4.6-3.1,10.4-3.1,15.1-3.2,6,0,12.2.2,18.7.4,19.3.7,39.2,1.4,55.7-5,16.9-6.5,31.9-4.4,41.3,5.8,16.2,17.7,23.9,41,31.3,63.6l.9,2.8h0c5.9,17.9,13.2,40.1,27.2,57l1.3,1.6c3.1,3.7,6.3,7.5,7.4,12.4.7,3.3.4,6.1-1.1,8.3-2.8,4.3-9.1,5.5-15.2,6.6-3.4.6-6.7,1.3-8.9,2.4-1.2.6-2.4,1.3-3.6,2-6.2,3.5-13.3,7.4-19.4,3.1l-1.9-1.4q-6-4.3-12.8-2l-1.5.5c-3,1-6.1,1.9-9,2.7-5.5,1.5-10.7,3-15.2,5.4-8.7,4.6-13.2,3.7-19.5,2.4-2.3-.5-4.8-1-7.9-1.3-4.7-.5-9.4.8-14.3,2.1-4.2,1.1-8.6,2.3-12.9,2.3ZM108,377.8c4.1,0,7.5,2.1,10.9,4.2,2.2,1.4,4.5,2.8,6.9,3.5,5.5,1.6,11.2.1,17.3-1.5,5-1.3,10.2-2.7,15.3-2.2,3.2.3,5.9.8,8.2,1.3,6.1,1.2,9.9,2,17.6-2.2,4.8-2.5,10.2-4,15.8-5.6,2.9-.8,5.9-1.7,8.9-2.7l1.5-.5c7.9-2.7,8.4-2.7,15.4,2.4l1.9,1.4c4.6,3.2,10.5-.1,16.3-3.3,1.3-.7,2.5-1.4,3.7-2,2.6-1.3,6-2,9.7-2.7,5.5-1,11.1-2.1,13.3-5.4,1-1.5,1.2-3.5.7-6.1-.9-4.2-3.9-7.7-6.8-11.1l-1.3-1.6c-14.3-17.3-21.8-39.8-27.7-57.9l-.9-2.8c-7.3-22.3-14.9-45.3-30.7-62.5-12.1-13.2-30.7-7.9-38.1-5.1-17,6.6-37.2,5.8-56.8,5.1-6.5-.2-12.6-.4-18.6-.4-4.3,0-9.6,0-13.5,2.7-2.7,1.8-4.9,5-6.6,9.7-3.6,10.1-3.9,21.3-3.8,31.1,0,18.1,1.3,36.4,2.5,54.1.5,8.1,1.1,16.4,1.6,24.6.1,2.5,0,5.1,0,7.9-.1,8.2-.3,16.6,4.6,22.3,5.7,6.6,16.6,9.6,25.3,7,.5-.2,1.1-.4,1.6-.5,1.6-.5,3.2-1.1,5-1.2.3,0,.6,0,.9,0Z"/>
          </g>
          <g>
            <path d="M195.7,207.2c4.1-1.5,8.2,3.7,7.3,8-.9,4.3-4.8,7.3-8.5,9.5-24.2,14.1-54.1,12.5-82,10.5-17.7-1.3-36.5-3-50.8-13.5-4.6-3.4-8.9-9.4-6.2-14.5.9-1.8,2.6-3.1,3.3-5,1.5-4.1-2.2-9.2.4-12.8,1.6-2.2,4.8-2.4,7.3-1.4,2.5,1,4.4,3,6.3,4.8,15.4,14.3,37.8,19.2,58.8,17.6,15.6-1.2,30.6-5.6,45.3-10.7,4-1.4,12.8-6.6,17.2-5s7.1,10.7,1.8,12.5Z" style="fill: #2e2e2e;"/>
            <path d="M141,237.9c-10,0-19.8-.7-28.8-1.4-16.3-1.2-36.5-2.7-51.6-13.8-5.5-4-9.6-10.6-6.6-16.3.5-.9,1.1-1.6,1.7-2.4.7-.8,1.3-1.6,1.6-2.4.6-1.5.2-3.3-.2-5.3-.5-2.5-1-5.4.7-7.9,2-2.8,6-3.1,9-1.9,2.4,1,4.2,2.7,6,4.4l.8.7c13.7,12.7,34.7,18.9,57.7,17.2,16.5-1.2,32-6.1,44.9-10.6.9-.3,2.2-.9,3.7-1.6,4.7-2.1,10.6-4.8,14.5-3.4,2.9,1,5.5,5.6,5.5,9.5,0,1.1-.2,2.2-.6,3,.8.3,1.5.7,2.2,1.3,2.4,2.1,3.5,5.4,2.9,8.3-1.1,5.1-5.8,8.4-9.2,10.4-16.5,9.6-35.7,12.1-54.1,12.1ZM63.4,188.8c-1.3,0-2.5.4-3.2,1.4-1,1.4-.7,3.4-.2,5.7.4,2.1.8,4.5,0,6.8-.5,1.3-1.3,2.3-2,3.2-.5.7-1,1.3-1.4,1.9-2.2,4.1,1.5,9.4,5.8,12.6,14.4,10.7,34.2,12.1,50.1,13.3,25.2,1.8,56.5,4.1,81.2-10.3,3-1.7,7-4.5,7.8-8.5.4-1.8-.5-4.2-2-5.5-.6-.5-1.9-1.4-3.4-.8,0,0,0,0,0,0h0l-1-2.7s0,0,0,0c.4-.2,1.7-.6,1.7-3,0-2.9-2-6.3-3.6-6.8-2.8-1-8.5,1.6-12.3,3.3-1.5.7-2.8,1.3-3.9,1.7-13.2,4.6-28.9,9.5-45.7,10.8-23.8,1.8-45.6-4.8-59.9-18l-.8-.7c-1.6-1.6-3.2-3-5.1-3.8-.7-.3-1.5-.5-2.3-.5Z"/>
          </g>
        </g>
        <g>
          <path d="M133.6,136.9c-4.2-4.3-10.1-6.7-15.7-8.5-2.8-.9-12.9-4.9-15.5-3.5,1.6-.8,3.2-1.7,4.7-2.5-2.3-1.6-4.8-3.1-7.3-4.4.7-1,1.9-1.6,3.1-1.7.2-.8-.6-1.5-1.4-1.8-4.7-2.4-9.3-4.8-14-7.2-1.8-.9-3.6-1.9-5.6-2.2,0,1.7-.1,3.4-.2,5-4.1-1.3-8.2-2.3-12.4-3.1,2.2,2.9,4.4,6.5,4.8,10-6.2-1.4-12.5-3-18.8-4.2-.9-.2-1.9-.4-2.7-1-1-.9-1.1-2.3-1.1-3.6,0-20.5,15.7-46,29-60.9,6.2-7,13.1-13.5,21.3-18,13.8-7.6,25-5.1,39.6-4.7,6.7.2,13.1,2.9,19.1,5.9,36,17.6,61.6,45.3,79.5,81.2,4.3,6.5,8.7,13.3,9.5,21,1.4,13-7.5,24.6-16.1,34.3-25.3,28.6-68.2,61.8-109.3,47.4-.8-.3-1.7-.7-2.1-1.5-.3-.8,0-1.6.3-2.4,3.7-8.8,8.5-17.4,10.8-26.7,1.6.9,2.7,2.5,3.2,4.3,1.8-5.5,3.7-11,5.5-16.5-7.8,5.9-4.1-12.1-4-14.6.4-6,.8-13.5-2.9-18.6-.4-.6-.9-1.1-1.4-1.6Z" style="fill: #2e2e2e;"/>
          <path d="M144.6,219.2c-9.1,0-16.2-1.7-20.9-3.4-.8-.3-2.3-.8-2.9-2.3-.5-1.4,0-2.7.3-3.5,1.1-2.6,2.3-5.1,3.5-7.7,2.8-6.1,5.7-12.3,7.3-18.8.1-.4.4-.8.8-1,.4-.2.9-.1,1.3,0,.8.5,1.5,1.1,2.1,1.8l3.4-10.2c-.7,0-1.3,0-1.8-.4-3-1.8-2.4-8.4-1.4-15,.1-.8.2-1.5.2-1.8.4-5.9.8-13-2.7-17.6-.4-.5-.8-1-1.2-1.4h0c-4-4.1-9.9-6.4-15.1-8.1-.4-.1-1-.3-1.6-.6-7.3-2.6-11.6-3.6-12.8-3h0c-.7.4-1.6.1-1.9-.6-.4-.7,0-1.6.6-1.9,0,0,0,0,0,0l2.6-1.4c-1.7-1.1-3.4-2.1-5.2-3-.4-.2-.7-.5-.7-1,0-.4,0-.8.2-1.2.5-.7,1.1-1.2,1.8-1.6l-13.6-7c-1.2-.6-2.4-1.2-3.6-1.6v3.3c-.2.4-.4.9-.7,1.1-.4.3-.8.3-1.3.2-2.9-.9-5.9-1.7-8.8-2.4,1.8,2.9,2.8,5.4,3.1,7.8,0,.5-.1.9-.5,1.2s-.8.4-1.3.3c-1.7-.4-3.4-.8-5.1-1.2-4.5-1.1-9.1-2.2-13.7-3-1-.2-2.3-.4-3.4-1.4-1.4-1.3-1.6-3.2-1.6-4.7,0-20,14.7-45.5,29.4-61.8,7.6-8.5,14.5-14.3,21.7-18.3,11.7-6.4,21.5-5.9,32.8-5.2,2.4.1,4.9.3,7.5.4,7,.2,13.6,3,19.7,6,34.9,17,61.1,43.8,80.2,81.9,4.1,6.1,8.8,13.2,9.7,21.5,1.4,13.2-7.1,24.8-16.4,35.4-37,41.8-68.8,51.2-89.9,51.2ZM134,186.5c-1.7,5.9-4.3,11.5-6.8,17-1.2,2.5-2.3,5.1-3.4,7.6-.1.3-.4,1-.3,1.3,0,.2.5.4,1.2.7,15.2,5.3,56,11.4,107.8-47,8.9-10.1,17-21.1,15.7-33.2-.8-7.5-5.3-14.3-9.3-20.3-18.8-37.6-44.6-64-78.9-80.7-5.8-2.9-12.1-5.5-18.6-5.7-2.6,0-5.2-.2-7.6-.4-10.9-.6-20.3-1.2-31.3,4.9-6.9,3.8-13.5,9.4-21,17.7-14.3,15.9-28.7,40.6-28.6,59.9,0,.9,0,2.1.6,2.6.4.4,1.1.5,1.9.7,4.6.9,9.3,2,13.8,3.1,1,.2,1.9.5,2.9.7-.7-2.1-2-4.5-4.1-7.2-.4-.5-.4-1.1,0-1.6.3-.5.9-.8,1.5-.7,3.6.6,7.3,1.5,10.8,2.6v-3.2c.1-.4.3-.8.7-1.1.3-.3.7-.4,1.1-.3,2.2.4,4.2,1.4,6,2.3l14,7.2c2.5,1.3,2.3,2.9,2.1,3.5-.2.6-.7,1-1.3,1-.2,0-.3,0-.5,0,1.9,1,3.7,2.2,5.4,3.4.4.3.6.8.6,1.3s-.3.9-.8,1.2h0c2.5.6,5.5,1.5,9,2.8.6.2,1.2.4,1.6.5,5.6,1.8,11.8,4.3,16.3,8.9h0c.5.6,1,1.1,1.5,1.7,4.1,5.5,3.6,13.2,3.2,19.4,0,.5-.1,1.2-.3,2.2-1.4,9.8-.6,11.8,0,12.2.1,0,.7,0,1.9-.9.5-.4,1.2-.4,1.7,0,.5.4.7,1,.5,1.6l-5.5,16.5c-.2.6-.8,1-1.4,1-.6,0-1.2-.5-1.3-1.1-.2-.7-.5-1.4-1-2Z"/>
        </g>
        <path d="M93.8,176c-8.1,0-16.2-.3-24.3-1-.8,0-1.4-.8-1.3-1.5,0-.8.7-1.4,1.5-1.3,8,.7,16,1,24,1s.3,0,.2,0c.8,0,1.4.6,1.4,1.4,0,.9-.8,1.4-1.7,1.4Z"/>
        <path d="M167.4,330.2c-.8,0-1.4-.6-1.4-1.4-.3-10.7-3.2-21.3-6-31.6-2.6-9.5-5.3-19.4-6-29.4,0-.8.5-1.5,1.3-1.5.8,0,1.5.5,1.5,1.3.6,9.8,3.3,19.5,5.9,28.9,2.9,10.4,5.9,21.2,6.1,32.3,0,.8-.6,1.4-1.4,1.5h0Z"/>
        <path d="M203.7,333.5c-.4,0-.7-.1-1-.4l-1.7-1.6c-.6-.5-.6-1.4,0-2,.2-.2.5-.4.8-.4-1.9-9.6-5-18.9-9.1-27.8-.4-.9-.9-1.9-1.3-2.8-2.8-5.8-5.7-11.9-5.8-18.5,0-.8.6-1.4,1.4-1.5.8,0,1.4.6,1.5,1.4.1,6,2.9,11.8,5.5,17.4.5,1,.9,1.9,1.4,2.9,4.7,10.1,8,20.8,9.9,31.7.1.6-.2,1.2-.7,1.5-.2.1-.5.2-.7.2Z"/>
        <path d="M123.1,351.1c-.8,0-1.4-.6-1.4-1.4-.7-14.5-.9-29.2-.4-43.7,0-.8.6-1.4,1.5-1.4.8,0,1.4.7,1.4,1.5-.4,14.4-.3,29.1.4,43.5,0,.8-.6,1.5-1.4,1.5h0Z"/>
        <path d="M81.4,270.5c-.7.5-1.1,1.4-1.3,2.2-1.5,4.9-2.4,10-2.5,15.1,0,2.7.9,6.3,3.6,6.2,3.1,0,3.5-4.7,5.6-6.9,2.9,5.9-.1,14,4.2,19,1.5-3.2,3.1-6.5,4.6-9.7.6-1.2,1.3-2.5,2.6-2.7,1.3-.2,2.5.9,3.3,2,4.3,6.5,3.1,16.6,9.7,20.8,1.8-1.2,1.9-3.7,1.9-5.8,0-9.1,0-18.1.1-27.2,2.9,2,5.6,4.4,7.7,7.2,2.1-4.9,1.2-11-2.3-15.1,2-.1,4-.2,6.1-.3-.3-7-3.2-13.5-6.1-19.8-3.1-6.9-5.4-5-9.7-1.4-3.4,2.8-6.1,2.6-10.3,2.7-3.6,0-6.3-.2-8.5,3.1-1.4,2-.8,4.9-2.2,7-2.1,3.1-4,1.8-6.6,3.5Z" style="fill: #584e3a;"/>
        <path d="M91.2,212.4c-.6.4-1,1-1.6,1.4-1.7,1.2-4,.7-6,.5-2.9-.4-5.9-.2-8.7.5-.5.9.6,1.8,1.6,2.2,2.6,1.2,5.1,2.3,7.7,3.5-1.3.9-2.7,1.8-4,2.6,3.7,1.9,8,2.7,12.1,3.5,5.5,1,11,2,16.4,3.1-1.5-1.7-3.5-2.9-5.7-3.6,2.4-.8,4.7-1.6,7.1-2.4,1.9-.6,4.1-2,3.6-3.9,0,.3-11-3.1-12.1-3.8-2.8-1.8-6.9-6.1-10.4-3.6Z" style="fill: #584e3a;"/>
        <path d="M101.3,76.5c-.5.6-.7,1.4-.8,2.2-.3,2.4.1,4.8,1.1,6.9.4.8.8,1.6.7,2.5-.2,1-1.2,1.6-2.1,2-1.2.6-2.5,1-3.8,1.4-.8.2-1.7.4-2.4,1s-.9,1.7-.3,2.3c.3.3.8.4,1.3.5,3.3.6,6.7.6,9.9-.1,1.7-.4,3.5-.9,5.1-.1,1.2.6,2,1.8,3.2,2.5,1,.7,2.2.9,3.4,1.1,2.3.4,5.1.6,6.3-1.4.9-1.5.3-3.4.6-5.1.5-2.4,3-3.9,5.3-4.6s4.9-1.1,6.9-2.5c.9-.7,1.8-1.8,1.5-2.9-.4-1.4-2.3-1.6-3.7-1.9-4.1-.9-4.7-3.6-6.7-6.6-3.1-4.6-2.3-3-6.6-.2-5.4,3.5-14.7-2-18.9,2.9Z" style="fill: #584e3a;"/>
        <path d="M180.3,125c.7,2,1.7,4,1.9,6.1.1,1.1,0,2.3.7,3.2.4.5.9.8,1.4,1.1,1.9,1.3,3.4,3,4.5,5,1.4,2.7,2,5.9,4,8.2.6.7,1.5,1.3,2.3.8.4-.3.6-.8.7-1.3.6-2.7.4-5.5-.5-8.1,1.5,1.2,2.5,2.8,3.1,4.6,1.3-2.4.2-5.5-1.4-7.7-1.6-2.2-3.8-4.1-5-6.5-2-4-1.1-11.7-6-13.8-5.6-2.5-7.1,4.2-5.7,8.4Z" style="fill: #584e3a;"/>
        <path d="M113.6,153.9c-.4,0-.8-.2-1.1-.5-.5-.6-.5-1.5.1-2,3.7-3.3,6.8-7.5,8.7-12,.3-.7,1.2-1.1,1.9-.7.7.3,1.1,1.2.7,1.9-2.1,5-5.4,9.5-9.5,13.1-.3.2-.6.4-.9.4Z" style="fill: #215c8d;"/>
        <path d="M107.6,193.2c-.9,0-1.8-.1-2.7-.4-.7-.3-1.1-1.1-.9-1.8s1.1-1.1,1.8-.9c1.8.6,4.2.2,6.1-1.2,2-1.4,3.4-3.5,4.7-5.5,1.5-2.4,2.8-4.8,4-7.4.3-.7,1.2-1,1.9-.7.7.3,1,1.2.7,1.9-1.2,2.6-2.6,5.2-4.1,7.7-1.4,2.2-3.1,4.6-5.5,6.3-1.9,1.3-4,2-6.1,2Z" style="fill: #215c8d;"/>
        <g>
          <path d="M271.5,223.3c-9.6,18.6-16.7,42-2.8,60.6,5.8,7.9,13.8,14.4,23.2,17.3,11.7,3.6,24,.6,32.4-8.2,12.1-12.6,17.8-29.2,12.2-46.2-5-15.2-15.7-28.6-29.6-36.7-2.7-1.6-5.8-3.2-7.2-6-1.5-3-.7-6.6-1.2-9.9-.6-3.7-3.9-6.8-7.5-4.8-2.2,1.2-3.3,6.4-4.1,8.6-2.6,7.3-7.5,13.2-11.9,19.5-1.3,1.9-2.4,3.8-3.4,5.7Z" style="fill: #a42a2f;"/>
          <path d="M301.5,304.2c-3.3,0-6.7-.5-10.1-1.5-8.9-2.7-17.4-9.1-23.9-17.8-11.5-15.5-10.6-36.4,2.7-62.1,1.1-2.1,2.2-4,3.5-5.9.8-1.1,1.6-2.2,2.4-3.4,3.7-5.2,7.2-10,9.3-15.8.2-.4.3-1,.5-1.6.9-2.9,2.1-6.5,4.3-7.8,1.8-1,3.7-1.1,5.4-.3,2.1,1,3.8,3.4,4.2,6.1.2,1.3.2,2.6.2,3.9,0,2,0,4,.8,5.6,1.1,2.2,3.5,3.6,5.9,5l.8.4c14.1,8.2,25.1,21.9,30.3,37.5,5.4,16.3.8,33.7-12.5,47.6-6.3,6.6-14.9,10.1-23.8,10.1ZM293.3,190.2c-.5,0-1,.2-1.6.5-1.2.7-2.4,4.3-3,6.2-.2.6-.4,1.2-.6,1.7-2.2,6.2-6,11.4-9.7,16.5-.8,1.1-1.6,2.2-2.4,3.3-1.2,1.7-2.3,3.6-3.3,5.5h0c-12.7,24.7-13.7,44.6-3,59.1,6.1,8.3,14.1,14.2,22.5,16.8,11.4,3.5,22.9.6,30.9-7.8,12.6-13.2,16.9-29.5,11.9-44.7-4.9-15-15.5-28.1-29-35.9l-.8-.4c-2.6-1.5-5.5-3.2-7-6.2-1.1-2.2-1.1-4.5-1.1-6.8,0-1.2,0-2.4-.2-3.5-.3-1.8-1.3-3.3-2.6-3.9-.4-.2-.8-.3-1.2-.3ZM271.5,223.3h0,0Z"/>
        </g>
        <g>
          <path d="M290.3,171.5c-4-5-9.8-8.6-16.1-9.9-.7-.1-1.5-.2-2.1.2-.3.3-.5.7-.6,1.1-1.8,5.1-.9,10.8,1.5,15.6,2.6,5.2,12.5,18.7,19.4,14.4,7.2-4.5,1.4-16.9-2.1-21.4Z" style="fill: #a42a2f;"/>
          <path d="M289.6,195.1c-.7,0-1.5-.1-2.3-.3-6.7-1.9-13.5-11.6-15.5-15.7-2.8-5.5-3.3-11.6-1.5-16.7.2-.6.5-1.2,1.1-1.7,1.2-1,2.7-.7,3.3-.5,6.6,1.4,12.6,5.1,16.9,10.4h0c2.8,3.5,6.8,11.3,5.7,17.5-.5,2.6-1.8,4.7-3.9,6-1.1.7-2.3,1-3.6,1ZM273.3,162.9c-.1,0-.2,0-.2,0,0,0,0,.1-.2.4-1.5,4.4-1,9.6,1.4,14.5,2,4,8.3,12.7,13.7,14.2,1.4.4,2.6.3,3.6-.4,1.5-.9,2.3-2.2,2.6-4,.8-4.9-2.6-12-5.1-15.2h0c-3.8-4.7-9.3-8.1-15.2-9.4-.3,0-.6,0-.7,0Z"/>
        </g>
        <g>
          <path d="M298.2,168.6c2.2-3.8,6.1-6.8,10.5-6.9.4,0,.9,0,1.2.3.3.3.4.7.5,1,1.7,6.5,1.4,13.6-1.2,19.8-1.8,4.3-8.2,15.3-12.8,8.8-3.7-5.1-1.1-17.9,1.8-22.9Z" style="fill: #a42a2f;"/>
          <path d="M299.6,195c-1.3,0-2.9-.5-4.4-2.6-4.2-5.9-1.2-19.4,1.8-24.5,2.6-4.5,7.1-7.5,11.7-7.7.4,0,1.4,0,2.2.6.7.6.9,1.4,1,1.8,1.8,7.1,1.3,14.4-1.3,20.7,0,.1-4.7,11-10.4,11.7-.2,0-.3,0-.5,0ZM309,163s-.1,0-.2,0c-3.6.1-7.1,2.5-9.3,6.2h0c-2.9,5-5,17.1-1.9,21.4,1.1,1.6,2,1.5,2.3,1.4,2.8-.3,6.4-6.1,8-9.9,2.4-5.7,2.8-12.4,1.1-18.9,0-.1,0-.2,0-.2ZM298.2,168.6h0,0Z"/>
        </g>
        <g>
          <path d="M288.1,191.1c-1.5,0-3,.2-4.3,1-2.9,1.7-3.2,5.7-2.6,9,.2,1,.5,2,1.1,2.8.7,1,1.9,1.6,3,2.2,4.7,2.3,9.9,3.6,15.1,3.8,3.1.1,6.7-.4,8.5-2.9,1.3-1.9,1.2-4.6.2-6.7-3.9-8.1-12.8-9.4-21-9.2Z" style="fill: #a42a2f;"/>
          <path d="M301.4,211.3c-.3,0-.6,0-1,0-5.4-.2-10.9-1.6-15.7-4-1.3-.6-2.6-1.4-3.5-2.6-.8-1.1-1.1-2.3-1.3-3.4-.8-3.7-.3-8.4,3.2-10.5,1.5-.9,3.3-1.1,5-1.2h0c11.7-.4,19,2.9,22.4,10,1.3,2.8,1.2,5.9-.3,8.1-1.6,2.4-4.6,3.6-8.8,3.6ZM288.2,192.5h0c-1.3,0-2.6.2-3.6.8-2.2,1.4-2.4,4.9-1.9,7.5.2.8.4,1.6.8,2.3.5.7,1.3,1.2,2.4,1.7,4.5,2.2,9.5,3.5,14.6,3.7,2.5.1,5.8-.2,7.2-2.3.9-1.4,1-3.4,0-5.3-2.9-6.1-9.1-8.7-19.7-8.3Z"/>
        </g>
        <path d="M285.6,235.1c-.8,0-1.4-.6-1.4-1.4,0-6.1,1.4-12.3,4.1-17.9.3-.7,1.2-1,1.9-.7.7.3,1,1.2.7,1.9-2.5,5.2-3.8,10.9-3.8,16.6,0,.8-.6,1.4-1.4,1.4h0Z"/>
        <path d="M290.6,190.2c-.5,0-.9-.2-1.2-.7l-5.6-8.8c-.4-.7-.2-1.6.4-2,.7-.4,1.6-.2,2,.4l5.6,8.8c.4.7.2,1.6-.4,2-.2.2-.5.2-.8.2Z"/>
        <path d="M299.7,190.3c-.2,0-.5,0-.7-.2-.7-.4-1-1.2-.6-1.9l5-9.1c.4-.7,1.3-1,1.9-.6.7.4,1,1.2.6,1.9l-5,9.1c-.3.5-.8.8-1.3.8Z"/>
      </g>
    </g>
  </g>
</svg>