<svg xmlns="http://www.w3.org/2000/svg" viewBox="0 0 275 280"><defs><style>.cls-1{fill:#84c936;}.cls-2,.cls-3{fill:#fff3d6;}.cls-3,.cls-4,.cls-5,.cls-6,.cls-8{stroke:#000;stroke-linejoin:round;stroke-width:2px;}.cls-4{fill:#5e5e5e;}.cls-4,.cls-5,.cls-6,.cls-8{stroke-linecap:round;}.cls-5{fill:#d99b3e;}.cls-6{fill:#c78119;}.cls-7{fill:#e3cd98;}.cls-8{fill:#f9ffa8;}</style></defs><g id="레이어_3" data-name="레이어 3"><rect class="cls-1" x="16.05" y="72.37" width="249.15" height="162.2" rx="18.75"/><rect class="cls-2" x="16.05" y="111.07" width="249.15" height="73.68"/><line class="cls-3" x1="16.05" y1="111.07" x2="265.2" y2="111.07"/><line class="cls-3" x1="16.05" y1="184.75" x2="265.2" y2="184.75"/><path class="cls-4" d="M62.63,53.69h0a3.05,3.05,0,0,1,3.05,3.05V91.47a0,0,0,0,1,0,0H59.58a0,0,0,0,1,0,0V56.74A3.05,3.05,0,0,1,62.63,53.69Z"/><path class="cls-4" d="M121.06,53.69h0a3.05,3.05,0,0,1,3.05,3.05V91.47a0,0,0,0,1,0,0H118a0,0,0,0,1,0,0V56.74A3.05,3.05,0,0,1,121.06,53.69Z"/><path class="cls-4" d="M55.23,99.16h5.38a0,0,0,0,1,0,0V120.9a2.69,2.69,0,0,1-2.69,2.69H55.23a0,0,0,0,1,0,0V99.16A0,0,0,0,1,55.23,99.16Z"/><rect class="cls-4" x="51.08" y="108.54" width="5.38" height="24.43" rx="2.69"/><rect class="cls-4" x="123.83" y="99.16" width="5.38" height="24.43" rx="2.69" transform="translate(253.03 222.75) rotate(-180)"/><rect class="cls-4" x="127.98" y="108.54" width="5.38" height="24.43" rx="2.69" transform="translate(261.33 241.51) rotate(-180)"/><polygon class="cls-5" points="133.22 91.47 50.82 91.47 45.11 111.38 139.33 111.38 133.22 91.47"/><rect class="cls-6" x="45.11" y="111.38" width="94.22" height="4.06"/><polygon class="cls-5" points="131.81 77.2 51.84 77.2 51.08 79.85 132.62 79.85 131.81 77.2"/><rect class="cls-6" x="51.08" y="79.8" width="81.54" height="7.08"/><polygon class="cls-5" points="131.81 67.52 51.84 67.52 51.08 70.17 132.62 70.17 131.81 67.52"/><rect class="cls-6" x="51.08" y="70.12" width="81.54" height="7.08"/><polygon class="cls-5" points="131.81 57.84 51.84 57.84 51.08 60.49 132.62 60.49 131.81 57.84"/><rect class="cls-6" x="51.08" y="60.44" width="81.54" height="7.08"/><path class="cls-7" d="M129.56,156.78c-.32-.36-.94-.08-1.21.32a4.88,4.88,0,0,1-.75,1.22,6.65,6.65,0,0,1-1.12.49c-.36.19-.64.67-.39,1,1.8-.11,3.6-.27,5.39-.5.49-.06,1.12-.29,1.07-.78a.88.88,0,0,0-.33-.51,3.51,3.51,0,0,0-1.7-.82"/><path class="cls-7" d="M114.49,161.91c-.33-.44-1-.23-1.45.14s-.7.9-1.21,1.09a4.89,4.89,0,0,0-.77.23c-.23.13-.39.47-.2.66a.59.59,0,0,0,.34.13,14.08,14.08,0,0,0,4.58-.09c.42-.08,1-.42.74-.79l-1.72-.94"/><ellipse class="cls-7" cx="116.26" cy="156.35" rx="2.59" ry="0.91"/><ellipse class="cls-7" cx="155.72" cy="151.28" rx="2.59" ry="0.91"/><ellipse class="cls-7" cx="98.33" cy="161.66" rx="2.59" ry="0.91"/><path class="cls-7" d="M88.87,145.75c-.32-.36-.94-.08-1.2.33s-.39.91-.76,1.21a6.13,6.13,0,0,1-1.11.49c-.37.19-.65.68-.4,1,1.8-.11,3.6-.27,5.39-.5.49-.06,1.12-.29,1.07-.78a.89.89,0,0,0-.33-.52,3.5,3.5,0,0,0-1.7-.81"/><path class="cls-7" d="M73.8,150.89c-.33-.44-1-.24-1.44.14s-.71.9-1.22,1.09a5.2,5.2,0,0,0-.77.22c-.23.13-.39.48-.2.67a.67.67,0,0,0,.34.13,14.08,14.08,0,0,0,4.58-.09c.42-.08,1-.43.74-.8l-1.72-.94"/><ellipse class="cls-7" cx="75.57" cy="145.33" rx="2.59" ry="0.91"/><ellipse class="cls-7" cx="115.04" cy="140.25" rx="2.59" ry="0.91"/><ellipse class="cls-7" cx="57.64" cy="150.64" rx="2.59" ry="0.91"/><path class="cls-7" d="M199.24,156.78c-.32-.36-.93-.08-1.2.32a4.88,4.88,0,0,1-.75,1.22,7,7,0,0,1-1.12.49c-.36.19-.65.67-.39,1,1.8-.11,3.6-.27,5.39-.5.49-.06,1.11-.29,1.06-.78a.82.82,0,0,0-.32-.51,3.51,3.51,0,0,0-1.7-.82"/><path class="cls-7" d="M184.18,161.91c-.33-.44-1.05-.23-1.45.14s-.7.9-1.21,1.09a4.89,4.89,0,0,0-.77.23c-.24.13-.39.47-.2.66a.59.59,0,0,0,.34.13,14.08,14.08,0,0,0,4.58-.09c.42-.08,1-.42.74-.79l-1.72-.94"/><ellipse class="cls-7" cx="185.95" cy="156.35" rx="2.59" ry="0.91"/><ellipse class="cls-7" cx="225.41" cy="151.28" rx="2.59" ry="0.91"/><ellipse class="cls-7" cx="168.02" cy="161.66" rx="2.59" ry="0.91"/><ellipse class="cls-4" cx="156.91" cy="120.26" rx="13.01" ry="4.67"/><path class="cls-4" d="M153.6,97v19.64c0,.66,1.48,1.19,3.31,1.19s3.3-.53,3.3-1.19V97"/><ellipse class="cls-4" cx="156.91" cy="96.42" rx="3.3" ry="1.18"/><rect class="cls-4" x="155.14" y="33.57" width="3.53" height="63.19" rx="0.87"/><circle class="cls-8" cx="156.91" cy="32.51" r="13.56"/><path class="cls-4" d="M151,18.09v2c0,1.22,2.77,2.22,6.2,2.22s6.21-1,6.21-2.22v-2"/><ellipse class="cls-4" cx="157.17" cy="18.09" rx="6.21" ry="2.22"/><path class="cls-4" d="M154.43,15.8v.87c0,.54,1.23,1,2.74,1s2.74-.44,2.74-1V15.8"/><ellipse class="cls-4" cx="157.17" cy="15.8" rx="2.74" ry="0.98"/></g></svg>