<?xml version="1.0" encoding="utf-8"?>
<!-- Generator: Adobe Illustrator 26.5.0, SVG Export Plug-In . SVG Version: 6.00 Build 0)  -->
<svg version="1.1" id="레이어_1" xmlns="http://www.w3.org/2000/svg" xmlns:xlink="http://www.w3.org/1999/xlink" x="0px"
	 y="0px" viewBox="0 0 390 390" style="enable-background:new 0 0 390 390;" xml:space="preserve">
<g id="XMLID_8_">
	<g>
		<path style="fill:#71FFFF;" d="M192.3,191.8c-25.9,9.8-53.8-2.8-79.4-8.3c-20.6-4.5-42.9-3.2-62.1,5.6c-9,4.2-17.1,10-23.9,17.1
			c0.5-33.4,1-66.9,1.3-100.5c0.2-17.9,0.7-36.5,8.3-52.8C44,36.7,63.1,24.1,81,24.1c1.3,0,2.5,0,3.8,0
			c24.7,8.5,45.8,28.6,53.6,53.8c5.1,16.4,5.1,34,9.1,50.7C154.1,154.6,169.9,177.1,192.3,191.8z"/>
		<path style="fill:#DC89FF;" d="M318,202.3c14.3,3.2,26.1,3,35.7-0.5c0.7,31.2,1.2,62.3-0.2,93.2c-1.3,31.2-21.9,47.2-47.3,55.1
			c-33.6-16.3-61.5-44-77.6-77.6c-6.3-13.3-9.6-28.1-14.1-42c-2.7-8-4.2-15.6-8.6-22.9c-1.7-2.7-13.5-14-13.5-15.8l0,0
			c24.1-12.1,51.3-14.6,77.1-7C286,189.7,301.2,198.5,318,202.3z"/>
		<path style="fill:#DC89FF;" d="M292.9,80.2c-7.8,16.9-19.8,31.7-33.7,44.2c-13.1,11.6-27.7,17.4-41.9,27.4
			c-13.1,9.3-22.4,24.1-25.1,39.9c-22.4-14.8-38.2-37-44.7-63.3c-4-16.8-4-34.4-9.1-50.7c-7.8-25.1-28.9-45.2-53.8-53.8
			c71.8,0,143.7,0,215.6,0C303.9,42.5,300.9,62.8,292.9,80.2z"/>
		<path style="fill:#DC89FF;" d="M112.9,183.5c25.6,5.5,53.5,18.1,79.4,8.3l0,0c-1.5,26.9-24.4,51.7-44,70.3
			c-12.5,11.8-27.7,20.6-39.4,33.4c-18.4,20.1-27.4,39.7-22.9,60.3c-21.8,0.3-41.4-1.2-53-26.1c-6.8-14.4-7.8-30.7-7.5-46.7
			c0.5-25.6,0.8-51.3,1.3-76.9c6.8-7.1,14.9-13,23.9-17.1C70,180.2,92.3,179.1,112.9,183.5z"/>
		<path style="fill:#71FFFF;" d="M192.3,191.8c0,1.8,12,13.1,13.5,15.8c4.3,7.3,6,14.9,8.6,22.9c4.7,14,7.8,28.7,14.1,42
			c16.3,33.6,44.2,61.3,77.6,77.6c-15.9,5.1-33.9,7.3-49.8,8.3c-3.8,0.2-7.8,0.5-11.5,0.7c-46.2,2.3-93.3-2.5-139-3.3
			c-6.6-0.2-13.5,0.2-19.9,0.2c-4.5-20.6,4.5-40.2,22.9-60.3c11.6-12.6,26.9-21.4,39.4-33.4C167.9,243.5,190.8,218.8,192.3,191.8z"
			/>
		<path style="fill:#71FFFF;" d="M318,202.3c-16.8-3.8-32.1-12.5-48.5-17.4c-25.7-7.6-53.1-5.1-77.1,7c2.7-15.9,12-30.6,25.1-39.9
			c14.1-10,28.7-15.8,41.9-27.4c14-12.3,25.9-27.1,33.7-44.2c8-17.6,11-37.7,7.3-56.5c0.8,0,1.8,0,2.7,0c10.3,0,22.9,0.7,30.1,8
			c22.8,23.3,19.6,62.6,19.6,91.8c0,25.9,0.7,51.8,1.3,78.1C343.9,205.3,332.3,205.5,318,202.3z"/>
	</g>
</g>
<g>
	<g>
		<path style="fill:#F8C400;" d="M47.6,39c0-1-0.2-2.3-0.8-3c-1.8-1.7-10-1.7-9.6,1.7c0.2,1.5,1.5,8.1-0.7,8.1
			c-0.7,0-1.8,0.3-2.5-0.2s-0.3-1.8-0.2-2.5c0.2-2,0.8-4.2,0.7-6.1c-0.3-1.8-1.8-2.3-3.3-2.3c-1.3,0-2.7,0.3-3.8,0.8
			c-0.7,0.2-1.8,0-2.3,0.5c-1.2,1.2-0.8,3.8-0.8,5.5c0,0.2,0,4.7,0,4.7c-1.8,0-3.2,0-5-0.5c-0.3-3,1-5.8,0.7-8.6
			c-0.5-4-6.1-1.8-8.3-0.7c-0.5,0.3-1,0.7-1.3,1.2c-0.3,0.3-0.3,0.8-0.3,1.2c0,5.6,0,11.3,0.3,16.9c0.3,4.2,0.2,8.1,0.2,12.3
			c0,1.5-0.3,3.8,0.2,5.1c1.8,4.7,8.8,3.2,12.1,3.3c4.8,0.2,9.5,0,14.3-0.2c3.2-0.2,7.1,0.2,8.8-3.8c2-5.1,1-12.5,1.8-17.9
			c0.3-2.3,0.3-4.8,0.3-7.3C48,44.4,47.8,41.7,47.6,39z M23.2,64.1c-0.7,1-2.3,0.5-3.7,0.3c-0.3,0-0.8-0.2-1,0
			c-0.5-1.8-0.2-8.3,1.3-9.1c1-0.7,3-0.2,4,0C24.2,55.3,23.7,63.5,23.2,64.1z M37.8,64.1c-0.7,1-2.3,0.5-3.7,0.3c-0.3,0-0.8-0.2-1,0
			c-0.5-1.8-0.2-8.3,1.3-9.1c1-0.7,3-0.2,4,0C39,55.3,38.3,63.5,37.8,64.1z"/>
		<path d="M16.9,34.7c1.5,0,2.7,0.5,2.8,2.3c0.3,2.8-1,5.6-0.7,8.6c1.7,0.5,2.8,0.5,4.3,0.5c0.2,0,0.3,0,0.7,0l0,0c0,0,0-4.5,0-4.7
			c0-1.7-0.3-4.2,0.8-5.5c0.5-0.5,1.7-0.3,2.3-0.5c1.2-0.5,2.5-0.8,3.8-0.8c0.2,0,0.2,0,0.3,0c1.5,0,2.8,0.7,3.2,2.3
			c0.3,2.2-0.3,4.2-0.7,6.1c-0.2,0.8-0.3,2,0.2,2.5c0.2,0.2,0.5,0.2,0.8,0.2c0.5,0,1.2-0.2,1.5-0.2c2.2,0,0.8-6.8,0.7-8.1
			c-0.2-2,2.7-2.7,5.3-2.7c1.8,0,3.7,0.3,4.3,1.2c0.7,0.7,0.8,1.8,0.8,3c0.2,2.7,0.3,5.3,0.3,8c0,2.5,0,5-0.3,7.3
			c-0.8,5.5,0.2,12.8-1.8,17.9c-1.5,4.2-5.6,3.7-8.8,3.8s-6.5,0.3-9.6,0.3c-1.5,0-3.2,0-4.7,0c-0.2,0-0.3,0-0.3,0
			c-1.2,0-2.7,0.2-4.3,0.2c-3,0-6.3-0.5-7.5-3.5c-0.7-1.5-0.2-3.7-0.2-5.1c0-4.2,0.2-8.1-0.2-12.3c0-5.5,0-11.1,0-16.8
			c0-0.3,0-0.8,0.2-1.2c0.2-0.7,0.8-1,1.3-1.2C12.7,35.7,14.9,34.7,16.9,34.7 M33.2,64.5c0.2,0,0.2,0,0.3,0s0.5,0,0.8,0
			c0.7,0.2,1.3,0.2,2.2,0.2c0.7,0,1.2-0.2,1.7-0.7c0.5-0.7,1-8.6,0.7-8.8c-0.7-0.2-1.7-0.3-2.7-0.3c-0.5,0-1,0-1.3,0.3
			C33,56.1,32.7,62.6,33.2,64.5 M18.6,64.5c0.2,0,0.2,0,0.3,0c0.2,0,0.5,0,0.8,0c0.7,0.2,1.3,0.2,2.2,0.2c0.7,0,1.2-0.2,1.7-0.7
			c0.5-0.7,1-8.6,0.7-8.8c-0.7-0.2-1.7-0.3-2.7-0.3c-0.5,0-1,0-1.3,0.3C18.4,56.1,18.1,62.6,18.6,64.5 M16.9,30.4L16.9,30.4
			c-2.7,0-5.5,1.2-7.3,2c-0.7,0.3-2.5,1.3-3.5,3.5C5.8,37,5.8,38,5.8,38.5v2.7c0,4.8,0,9.6,0.3,14.6c0.2,2.8,0.2,5.5,0.2,8.5
			c0,1.2,0,2.3,0,3.5c0,0.3,0,0.7,0,1.2c-0.2,1.7-0.2,3.8,0.7,5.8c1.7,4,5.5,6.1,11.5,6.1c0.8,0,1.8,0,2.7,0c0.7,0,1.2,0,1.7,0H23
			c1.7,0,3.2,0,4.8,0c3.3,0,6.6-0.2,10-0.3c0.3,0,0.7,0,1,0c3.2-0.2,9.1-0.3,11.5-6.6c1.5-3.8,1.7-8.3,1.7-12.6
			c0-2.3,0.2-4.5,0.3-6.3c0.3-2.3,0.5-4.8,0.3-8c0-1.5-0.2-3-0.2-4.7c0-1.2-0.2-2.3-0.2-3.5c0-1.3-0.2-4-2.2-5.8
			c-2-2-5.5-2.3-7.3-2.3c-1.5,0-4.2,0.2-6.1,1.3c-1.3-1-3-1.7-5-1.7c-0.2,0-0.3,0-0.5,0c-1.7,0-3.2,0.3-4.8,1h-0.2
			c-0.8,0-2.3,0.2-3.7,1.2C21.1,31.2,19.1,30.4,16.9,30.4L16.9,30.4z"/>
	</g>
	<g>
		<path style="fill-rule:evenodd;clip-rule:evenodd;fill:#F8C400;" d="M56.1,32.9c-0.3,2,0.2,5,0.2,6.5c0,9.8-0.8,19.4-2.2,29.2
			c-0.2,1.7-0.5,3.3-0.2,5c1.3,10.6,11.3,8.1,13.6,2.3c2.2-5.3,1.3-9,2-14.6c0-0.7,11,1.7,12.5-8.1c0.7-4.7-13.5-3.7-13.5-3.7
			s2.7-12.3-2-16.4c-2-1.7-7.6-4-9.8-1.5C56.4,31.7,56.3,32.2,56.1,32.9z"/>
		<path d="M59.8,30.2c2.5,0,5.6,1.5,7,2.7c4.8,4.2,2,16.4,2,16.4s1.2-0.2,3-0.2c4.2,0,11,0.5,10.5,3.8c-1.5,10-12.5,7.5-12.5,8.1
			c-0.7,5.6,0.2,9.3-2,14.6c-1.2,3-4.3,5-7.3,5s-5.8-2-6.3-7.3c-0.2-1.7,0-3.3,0.2-5c1.2-9.8,2.2-19.3,2.2-29.2
			c0-1.5-0.5-4.5-0.2-6.5c0.2-0.7,0.3-1.2,0.7-1.7C57.6,30.6,58.6,30.2,59.8,30.2 M59.8,25.9c-3.2,0-5,1.3-6,2.5
			c-0.8,1-1.5,2.2-1.7,3.7c-0.3,2-0.2,4,0,5.8c0,0.5,0.2,1,0.2,1.5c0,10.3-1,20.3-2,28.7v0.2c-0.2,1.7-0.5,3.7-0.2,5.8
			c1,8.1,6.3,11.1,10.6,11.1c4.8,0,9.5-3.2,11.3-7.8c1.7-4.3,1.8-7.8,2-11.1c0-0.3,0-0.7,0-1c7.5-0.8,11.6-4.7,12.6-11.5
			c0.3-1.8-0.2-3.7-1.5-5c-1.3-1.5-3.8-3.3-11.3-3.7c0.3-4.8,0-11.6-4.2-15.3C67.6,27.9,63.4,25.9,59.8,25.9L59.8,25.9z"/>
	</g>
	<g>
		<path style="fill:#FFEA88;" d="M47.6,39c0-1-0.2-2.3-0.8-3c-1.8-1.7-10-1.7-9.6,1.7c0.2,1.5,1.5,8.1-0.7,8.1
			c-0.7,0-1.8,0.3-2.5-0.2s-0.3-1.8-0.2-2.5c0.2-2,0.8-4.2,0.7-6.1c-0.3-1.8-1.8-2.3-3.3-2.3c-1.3,0-2.7,0.3-3.8,0.8
			c-0.7,0.2-1.8,0-2.3,0.5c-1.2,1.2-0.8,3.8-0.8,5.5c0,0.2,0,4.7,0,4.7c-1.8,0-3.2,0-5-0.5c-0.3-3,1-5.8,0.7-8.6
			c-0.5-4-6.1-1.8-8.3-0.7c-0.5,0.3-1,0.7-1.3,1.2c-0.3,0.3-0.3,0.8-0.3,1.2c0,5.6,0,11.3,0.3,16.9c0.3,4.2,0.2,8.1,0.2,12.3
			c0,1.5-0.3,3.8,0.2,5.1c1.8,4.7,8.8,3.2,12.1,3.3c4.8,0.2,9.5,0,14.3-0.2c3.2-0.2,7.1,0.2,8.8-3.8c2-5.1,1-12.5,1.8-17.9
			c0.3-2.3,0.3-4.8,0.3-7.3C48,44.4,47.8,41.7,47.6,39z M23.2,64.1c-0.7,1-2.3,0.5-3.7,0.3c-0.3,0-0.8-0.2-1,0
			c-0.5-1.8-0.2-8.3,1.3-9.1c1-0.7,3-0.2,4,0C24.2,55.3,23.7,63.5,23.2,64.1z M37.8,64.1c-0.7,1-2.3,0.5-3.7,0.3c-0.3,0-0.8-0.2-1,0
			c-0.5-1.8-0.2-8.3,1.3-9.1c1-0.7,3-0.2,4,0C39,55.3,38.3,63.5,37.8,64.1z"/>
		<path style="fill:#FFCF00;" d="M16.9,37.5L16.9,37.5c0.2,1,0,2.2-0.3,3.3c-0.3,1.5-0.5,3.2-0.3,5.1c0.2,1.2,1,2.2,2,2.5
			c2,0.5,3.3,0.7,5.1,0.7h0.3H24c1.7,0,2.8-1.3,2.8-2.8c0,0,0,0,0-0.2c0-0.3,0-2.2,0-3.3v-1.3c0-0.3,0-0.7,0-1.2s0-1.3,0-1.8
			c0.3,0,0.8-0.2,1.3-0.3c1-0.3,2-0.7,3-0.7c0.2,0,0.2,0,0.3,0c0.2,1-0.2,2.2-0.3,3.3c-0.2,0.7-0.2,1.3-0.3,2v0.3
			c-0.2,1.2-0.5,3.3,1.3,4.8c0.7,0.5,1.7,0.8,2.7,0.8c0.3,0,0.8,0,1.2-0.2c0.2,0,0.2,0,0.3,0c1.2,0,2.2-0.5,2.8-1.3
			c1.7-2,1.3-5.1,0.8-9c0-0.2,0-0.2,0-0.2c0.5-0.2,1.3-0.3,2.3-0.3s1.8,0.2,2.3,0.3c0,0.2,0,0.5,0,1c0,1.2,0.2,2.3,0.2,3.7
			c0,1.5,0.2,3,0.2,4.3c0,2.8,0,5-0.3,6.8c-0.3,2.3-0.3,4.7-0.5,7.1c-0.2,3.7-0.2,7.5-1.3,10.3c-0.7,1.5-1.7,1.8-5.1,2
			c-0.3,0-0.8,0-1.2,0c-3.2,0.2-6.3,0.3-9.5,0.3c-1.5,0-3,0-4.5,0H22c-0.7,0-1.3,0-2,0s-1.5,0-2.3,0c-3.7,0-4.5-0.8-4.8-1.7
			c-0.2-0.5-0.2-1.8,0-2.7c0-0.5,0-1,0-1.5c0-1.2,0-2.3,0-3.5c0-3,0-6-0.2-9.1c-0.3-4.7-0.3-9.1-0.3-14.1v-2.5
			C14.4,38,15.9,37.5,16.9,37.5 M33,67.3c0.2,0,0.2,0,0.3,0s0.3,0,0.3,0h0.5c0.7,0.2,1.3,0.2,2,0.2c2.2,0,3.3-1,3.8-1.8
			c1.2-1.7,1.7-10.1,1-11.5c-0.3-0.8-1.2-1.7-2.2-1.8h-0.3c-0.7-0.2-1.8-0.3-2.8-0.3l0,0c-1.2,0-2.2,0.2-2.8,0.7
			c-3.7,2.2-3,11-2.7,12.3C30.7,66.4,31.8,67.3,33,67.3 M18.4,67.3c0.2,0,0.2,0,0.3,0c0.2,0,0.3,0,0.3,0h0.5c0.7,0.2,1.3,0.2,2,0.2
			c2.2,0,3.3-1,3.8-1.8c1.2-1.7,1.7-10.1,1-11.5c-0.3-0.8-1.2-1.7-2.2-1.8h-0.3C23.2,52.2,22,52,21.1,52l0,0c-1.2,0-2.2,0.2-2.8,0.7
			c-3.7,2.2-3,11-2.7,12.3C16.1,66.4,17.1,67.3,18.4,67.3 M27,38L27,38L27,38 M12.9,38.4L12.9,38.4L12.9,38.4 M16.9,34.7
			c-1.8,0-4.2,1-5.5,1.7c-0.5,0.3-1,0.7-1.3,1.2c-0.2,0.3-0.2,0.8-0.2,1.2c0,5.6,0,11.3,0.3,16.9c0.3,4.2,0.2,8.1,0.2,12.3
			c0,1.5-0.3,3.8,0.2,5.1c1.2,3,4.5,3.5,7.5,3.5c1.5,0,3-0.2,4.3-0.2c0.2,0,0.3,0,0.3,0c1.5,0,3.2,0,4.7,0c3.2,0,6.5-0.2,9.6-0.3
			c3.2-0.2,7.1,0.2,8.8-3.8c2-5.1,1-12.5,1.8-17.9C48,52,48,49.5,48,47c0-2.7-0.3-5.3-0.3-8c0-1-0.2-2.3-0.8-3
			c-0.7-0.7-2.5-1.2-4.3-1.2c-2.7,0-5.5,0.8-5.3,2.7c0.2,1.7,1.5,8.3-0.7,8.3c-0.3,0-1,0.2-1.5,0.2c-0.3,0-0.7,0-0.8-0.2
			c-0.7-0.5-0.3-1.8-0.2-2.5c0.2-2,0.8-4.2,0.7-6.1c-0.2-1.7-1.7-2.3-3.2-2.3c-0.2,0-0.2,0-0.3,0c-1.3,0-2.7,0.3-3.8,0.8
			c-0.7,0.2-1.8,0-2.3,0.5c-1.2,1.2-0.8,3.8-0.8,5.5c0,0.2,0,4.7,0,4.7l0,0c-0.2,0-0.5,0-0.7,0c-1.5,0-2.7,0-4.3-0.5
			c-0.3-3,1-5.8,0.7-8.6C19.4,35.2,18.2,34.7,16.9,34.7L16.9,34.7z M33.2,64.5c-0.5-1.8-0.2-8.3,1.3-9.1c0.3-0.2,0.8-0.3,1.3-0.3
			c1,0,2,0.2,2.7,0.3c0.3,0-0.2,8.1-0.7,8.8c-0.3,0.5-1,0.7-1.7,0.7s-1.5-0.2-2.2-0.2c-0.3,0-0.5,0-0.8,0
			C33.3,64.5,33.2,64.5,33.2,64.5L33.2,64.5z M18.6,64.5c-0.5-1.8-0.2-8.3,1.3-9.1c0.3-0.2,0.8-0.3,1.3-0.3c1,0,2,0.2,2.7,0.3
			c0.3,0-0.2,8.1-0.7,8.8c-0.3,0.5-1,0.7-1.7,0.7s-1.5-0.2-2.2-0.2c-0.3,0-0.5,0-0.8,0C18.7,64.5,18.6,64.5,18.6,64.5L18.6,64.5z"/>
	</g>
	<g>
		<path style="fill-rule:evenodd;clip-rule:evenodd;fill:#FFEA88;" d="M56.1,32.9c-0.3,2,0.2,5,0.2,6.5c0,9.8-0.8,19.4-2.2,29.2
			c-0.2,1.7-0.5,3.3-0.2,5c1.3,10.6,11.3,8.1,13.6,2.3c2.2-5.3,1.3-9,2-14.6c0-0.7,11,1.7,12.5-8.1c0.7-4.7-13.5-3.7-13.5-3.7
			s2.7-12.3-2-16.4c-2-1.7-7.6-4-9.8-1.5C56.4,31.7,56.3,32.2,56.1,32.9z"/>
		<path style="fill:#FFCF00;" d="M59.1,33.1L59.1,33.1L59.1,33.1 M59.8,33.1c1.8,0,4.3,1.2,5.1,1.8c2.3,2.2,2.2,9.3,1.2,13.8
			c-0.2,0.8,0,1.8,0.7,2.5c0.5,0.7,1.3,1,2.2,1h0.2c0,0,1.2,0,2.7,0c4.7,0,6.8,0.7,7.6,1c-0.8,4.2-3.8,5-8.3,5.1
			c-1.2,0-3.8,0-4.2,2.7c-0.2,1.8-0.3,3.5-0.3,5c-0.2,3.2-0.2,5.6-1.5,8.8c-0.7,1.8-2.8,3.3-4.7,3.3c-2.5,0-3.3-2.7-3.5-4.8
			c-0.2-1.3,0-2.7,0.2-4.2v-0.2c1-8.6,2.2-18.9,2.2-29.6c0-0.5,0-1.2-0.2-2c-0.2-1.3-0.2-2.8,0-3.8v-0.2
			C59.1,33.2,59.4,33.1,59.8,33.1 M59.8,30.2c-1.2,0-2.2,0.3-2.8,1c-0.3,0.3-0.5,1-0.7,1.7c-0.3,2,0.2,5,0.2,6.5
			c0,9.8-0.8,19.4-2.2,29.2c-0.2,1.7-0.5,3.3-0.2,5c0.7,5.3,3.5,7.3,6.3,7.3c3,0,6.1-2.2,7.3-5c2.2-5.3,1.3-9,2-14.6
			c0-0.7,11,1.7,12.5-8.1c0.5-3.3-6.5-3.8-10.5-3.8c-1.7,0-3,0.2-3,0.2s2.7-12.3-2-16.4C65.4,31.7,62.2,30.2,59.8,30.2L59.8,30.2z"
			/>
	</g>
</g>
<g>
	<g>
		<path style="fill-rule:evenodd;clip-rule:evenodd;fill:#F8C400;" d="M321.5,318.1c-1,0.3-2,0.8-2.7,1.8c-0.7,0.8-0.5,2.8-0.5,3.8
			c-0.3,2.8-0.5,5.6-0.5,8.6c-0.2,5.5,0,11.1,0.7,16.6c0.2,2.2,0.7,4.5,2.7,5.5c0.8,0.5,1.8,0.5,2.7,0.5c4.3,0.2,8.6,0.5,13,0.7
			c2.7,0.2,6.1,1.5,8.8,0.3c4.5-2,4.7-11.8-0.8-12.5c-2-0.3-4-0.5-6-0.8c-2.2-0.3-5.3-0.3-6.8-2.3c-0.8-1.2-1-10.5,0.3-10.5
			c2.8,0.2,5.5,0.3,8.3,0.3c1.5,0,3.5,0.5,4.8-0.3c1.7-0.8,1.5-3.2,1.5-4.8c0-3.7-1.7-6.3-5.5-6.6c-4.2-0.3-8.5-0.5-12.6-0.7
			C326.3,317.9,323.7,317.4,321.5,318.1z"/>
		<path d="M324.5,317.7c1.3,0,2.8,0.2,4,0.2c4.2,0.2,8.5,0.3,12.6,0.7c3.8,0.3,5.5,3,5.5,6.6c0,1.7,0.2,4-1.5,4.8
			c-0.7,0.3-1.5,0.5-2.3,0.5s-1.8-0.2-2.7-0.2c-2.8,0-5.5-0.2-8.3-0.3l0,0c-1.2,0-1,9.3-0.2,10.5c1.5,2,4.5,1.8,6.8,2.3
			c2,0.3,4,0.7,6,0.8c5.5,0.7,5.5,10.5,0.8,12.5c-0.8,0.3-1.7,0.5-2.5,0.5c-2,0-4.3-0.7-6.1-0.8c-4.3-0.2-8.6-0.5-13-0.7
			c-1,0-1.8-0.2-2.7-0.5c-1.8-1-2.5-3.5-2.7-5.5c-0.7-5.5-0.8-11-0.7-16.6c0.2-2.8,0.3-5.6,0.5-8.6c0.2-1,0-3,0.5-3.8
			c0.7-1,1.7-1.5,2.7-1.8C322.5,317.9,323.5,317.7,324.5,317.7 M324.5,313.4c-1.7,0-3,0.2-4.2,0.5c-2,0.7-3.7,1.7-4.8,3.3
			c-1.3,1.7-1.3,3.8-1.3,5.3c0,0.2,0,0.5,0,0.7c-0.3,3-0.5,6-0.7,8.8c-0.2,5.6,0,11.5,0.7,17.1c0.2,1.8,0.7,6.8,5,9
			c1.7,0.8,3.3,1,4.3,1l13,0.7c0.7,0,1.3,0.2,2.2,0.3c1.3,0.2,2.8,0.5,4.3,0.5c1.7,0,3-0.3,4.3-0.8c4.7-2,6.5-7.6,5.8-12.3
			c-0.7-4.7-3.7-8-7.8-8.5c-2.2-0.3-4-0.5-5.8-0.8c-0.5-0.2-1-0.2-1.7-0.2s-1.5-0.2-2-0.3c-0.2-0.8-0.2-2.2-0.2-3.5
			c1.7,0,3.2,0.2,4.8,0.2c0.3,0,0.7,0,1,0c0.7,0,1.2,0,1.8,0c1.7,0,3-0.3,4.2-1c3.8-2,3.8-6.1,3.8-8.1v-0.5c0-6.1-3.7-10.5-9.5-11
			c-4.5-0.3-9-0.5-12.8-0.7c-0.5,0-0.8,0-1.3-0.2C326.3,313.6,325.5,313.4,324.5,313.4L324.5,313.4z"/>
	</g>
	<g>
		<path style="fill-rule:evenodd;clip-rule:evenodd;fill:#F8C400;" d="M353.7,315.3c-0.3,2,0.2,5,0.2,6.5c0,9.8-0.8,19.4-2.2,29.2
			c-0.2,1.7-0.5,3.3-0.2,5c1.3,10.6,11.3,8.1,13.6,2.3c2.2-5.3,1.3-9,2-14.6c0-0.7,11,1.7,12.5-8.1c0.7-4.7-13.5-3.7-13.5-3.7
			s2.7-12.3-2-16.4c-2-1.7-7.6-4-9.8-1.5C354.1,314.1,353.7,314.6,353.7,315.3z"/>
		<path d="M357.2,312.6c2.5,0,5.6,1.5,7,2.7c4.8,4.2,2,16.4,2,16.4s1.2-0.2,3-0.2c4.2,0,11,0.5,10.5,3.8c-1.5,10-12.5,7.5-12.5,8.1
			c-0.7,5.6,0.2,9.3-2,14.6c-1.2,3-4.3,5-7.3,5s-5.8-2-6.3-7.3c-0.2-1.7,0-3.3,0.2-5c1.2-9.8,2.2-19.3,2.2-29.2
			c0-1.5-0.5-4.5-0.2-6.5c0.2-0.7,0.3-1.2,0.7-1.7C355.1,312.9,356.1,312.6,357.2,312.6 M357.2,308.4c-3.2,0-5,1.3-6,2.5
			c-0.8,1-1.5,2.2-1.7,3.7c-0.3,2-0.2,4,0,5.8c0,0.5,0.2,1,0.2,1.5c0,10.3-1,20.3-2,28.7v0.2c-0.2,1.7-0.5,3.7-0.2,5.8
			c1,8.1,6.3,11.1,10.6,11.1c4.8,0,9.5-3.2,11.3-7.8c1.7-4.3,1.8-7.8,2-11.1c0-0.3,0-0.7,0-1c7.5-0.8,11.6-4.7,12.6-11.5
			c0.3-1.8-0.2-3.7-1.5-5c-1.3-1.5-3.8-3.3-11.3-3.7c0.3-4.8,0-11.6-4.2-15.3C365,310.3,360.9,308.4,357.2,308.4L357.2,308.4z"/>
	</g>
	<g>
		<path style="fill-rule:evenodd;clip-rule:evenodd;fill:#FFEA88;" d="M321.5,318.1c-1,0.3-2,0.8-2.7,1.8c-0.7,0.8-0.5,2.8-0.5,3.8
			c-0.3,2.8-0.5,5.6-0.5,8.6c-0.2,5.5,0,11.1,0.7,16.6c0.2,2.2,0.7,4.5,2.7,5.5c0.8,0.5,1.8,0.5,2.7,0.5c4.3,0.2,8.6,0.5,13,0.7
			c2.7,0.2,6.1,1.5,8.8,0.3c4.5-2,4.7-11.8-0.8-12.5c-2-0.3-4-0.5-6-0.8c-2.2-0.3-5.3-0.3-6.8-2.3c-0.8-1.2-1-10.5,0.3-10.5
			c2.8,0.2,5.5,0.3,8.3,0.3c1.5,0,3.5,0.5,4.8-0.3c1.7-0.8,1.5-3.2,1.5-4.8c0-3.7-1.7-6.3-5.5-6.6c-4.2-0.3-8.5-0.5-12.6-0.7
			C326.3,317.9,323.7,317.4,321.5,318.1z"/>
		<path style="fill:#FFCF00;" d="M324.5,320.7c0.8,0,1.5,0,2.3,0.2c0.5,0,1.2,0,1.7,0.2c3.8,0.2,8.3,0.3,12.6,0.7
			c1,0,2.8,0.2,2.8,3.7v0.5c0,0.5,0,1.3-0.2,1.8c-0.2,0-0.3,0-0.7,0s-0.8,0-1.2,0c-0.5,0-1,0-1.3,0c-2.7,0-5.5-0.2-8.1-0.3h-0.2
			c-1.2,0-2.3,0.7-2.8,1.8c-1.2,2.3-1.2,11,0.3,13.1c1.8,2.7,5,3,7.3,3.3c0.5,0,0.8,0.2,1.3,0.2c1.8,0.3,3.8,0.7,6.1,0.8
			c1.2,0.2,1.5,1.7,1.7,2.3c0.3,2-0.5,4.2-1.5,4.7c-0.3,0.2-0.8,0.2-1.3,0.2c-0.8,0-2-0.2-3-0.3c-1-0.2-2-0.3-3-0.3l-13-0.7
			c-0.5,0-1.3,0-1.5-0.2c-0.3-0.2-0.8-0.8-1.2-3.3c-0.7-5.3-0.8-10.8-0.7-16.1c0.2-2.8,0.3-5.6,0.5-8.3c0-0.3,0-0.7,0-1.2
			c0-0.3,0-1,0.2-1.3c0.3-0.3,0.7-0.5,1-0.7C322.8,320.7,323.5,320.7,324.5,320.7 M324.5,317.7c-1,0-2,0.2-3,0.3
			c-1,0.3-2,0.8-2.7,1.8c-0.7,0.8-0.5,2.8-0.5,3.8c-0.3,2.8-0.5,5.6-0.5,8.6c-0.2,5.5,0,11.1,0.7,16.6c0.2,2.2,0.7,4.5,2.7,5.5
			c0.8,0.5,1.8,0.5,2.7,0.5c4.3,0.2,8.6,0.5,13,0.7c1.8,0.2,4.2,0.8,6.1,0.8c0.8,0,1.8-0.2,2.5-0.5c4.5-2,4.7-11.8-0.8-12.5
			c-2-0.3-4-0.5-6-0.8c-2.2-0.3-5.3-0.3-6.8-2.3c-0.8-1.2-1-10.5,0.2-10.5l0,0c2.8,0.2,5.5,0.3,8.3,0.3c0.8,0,1.8,0.2,2.7,0.2
			c0.8,0,1.5-0.2,2.3-0.5c1.7-0.8,1.5-3.2,1.5-4.8c0-3.7-1.7-6.3-5.5-6.6c-4.2-0.3-8.5-0.5-12.6-0.7
			C327.2,317.9,325.8,317.7,324.5,317.7L324.5,317.7z"/>
	</g>
	<g>
		<path style="fill-rule:evenodd;clip-rule:evenodd;fill:#FFEA88;" d="M353.7,315.3c-0.3,2,0.2,5,0.2,6.5c0,9.8-0.8,19.4-2.2,29.2
			c-0.2,1.7-0.5,3.3-0.2,5c1.3,10.6,11.3,8.1,13.6,2.3c2.2-5.3,1.3-9,2-14.6c0-0.7,11,1.7,12.5-8.1c0.7-4.7-13.5-3.7-13.5-3.7
			s2.7-12.3-2-16.4c-2-1.7-7.6-4-9.8-1.5C354.1,314.1,353.7,314.6,353.7,315.3z"/>
		<path style="fill:#FFCF00;" d="M356.6,315.4L356.6,315.4L356.6,315.4 M357.2,315.6c1.8,0,4.3,1.2,5.1,1.8
			c2.3,2.2,2.2,9.3,1.2,13.8c-0.2,0.8,0,1.8,0.7,2.5c0.5,0.7,1.3,1,2.2,1h0.2c0,0,1.2,0,2.7,0c4.7,0,6.8,0.7,7.6,1
			c-0.8,4.2-3.8,5-8.3,5.1c-1.2,0-3.8,0-4.2,2.7c-0.2,1.8-0.3,3.5-0.3,5c-0.2,3.2-0.2,5.6-1.5,8.8c-0.7,1.8-2.8,3.3-4.7,3.3
			c-2.5,0-3.3-2.7-3.5-4.8c-0.2-1.3,0-2.7,0.2-4.2v-0.2c1-8.6,2.2-18.9,2.2-29.6c0-0.5,0-1.2-0.2-2c-0.2-1.3-0.2-2.8,0-3.8v-0.2
			C356.7,315.6,356.9,315.6,357.2,315.6 M357.2,312.6c-1.2,0-2.2,0.3-2.8,1c-0.3,0.3-0.5,1-0.7,1.7c-0.3,2,0.2,5,0.2,6.5
			c0,9.8-0.8,19.4-2.2,29.2c-0.2,1.7-0.5,3.3-0.2,5c0.7,5.3,3.5,7.3,6.3,7.3c3,0,6.1-2.2,7.3-5c2.2-5.3,1.3-9,2-14.6
			c0-0.7,11,1.7,12.5-8.1c0.5-3.3-6.5-3.8-10.5-3.8c-1.7,0-3,0.2-3,0.2s2.7-12.3-2-16.4C362.9,314.1,359.7,312.6,357.2,312.6
			L357.2,312.6z"/>
	</g>
</g>
<g>
	<g>
		<path style="fill:#F8C400;" d="M340.6,55.8c-2.5-2.8-3.3-2.7-2.5-6.1c1.2-4.3,3.7-8.8,3.5-13.5c-0.3-4.8-5.6-3.8-8.6-4
			c-4-0.2-8,0.2-12,0.5c-2.7,0.2-7.6-0.5-9.8,1.8c-0.8,1-1.3,2.5-1.3,4c0,0.7,0,1.3,0.2,2.2c1.2,4.5,6.1,5,9.5,5c1,0,2.2,0,3,0.8
			c2.3,2.3-3.2,8.6-4.3,10.1c-1.7,2.2-3.5,4.2-5.1,6.1c-1.3,1.5-2.2,4.5-1.7,6.6c0.5,2,3,3.5,4.3,4.7c4.8,4,6.6-3.7,8.6-7.3
			c5.6-10.6,11,5.6,15.9,5.5c2.5-0.2,5.5-5.8,5.6-8C345.8,60.8,342.6,58,340.6,55.8z"/>
		<path d="M335.5,32.4c2.8,0,5.8,0.3,6.1,4c0.3,4.7-2.3,9.1-3.3,13.5c-0.8,3.3,0,3.2,2.5,6.1c2,2.2,5.1,5,5.1,8.6c0,2-3.2,7.8-5.6,8
			c0,0,0,0-0.2,0c-3.8,0-7.6-9-11.8-9c-1.3,0-2.7,1-4.2,3.7c-1.7,3-3,8.5-6,8.5c-0.8,0-1.7-0.3-2.5-1.2c-1.3-1.2-3.8-2.7-4.3-4.7
			c-0.5-2.2,0.3-5,1.7-6.6c1.7-2,3.5-4,5.1-6.1c1.2-1.5,6.6-7.8,4.3-10.1c-0.7-0.7-1.8-0.8-2.8-0.8h-0.2h-0.2c-3.3,0-8.1-0.5-9.1-5
			c-0.2-0.7-0.2-1.3-0.2-2.2c0-1.5,0.5-3,1.3-4c1.3-1.7,4.2-1.8,6.6-1.8c0.7,0,1.2,0,1.8,0c0.5,0,0.8,0,1.3,0
			c3.5-0.3,7-0.5,10.5-0.5c0.5,0,1,0,1.5,0c0.2,0,0.3,0,0.3,0C334,32.4,334.8,32.4,335.5,32.4 M335.5,28.1c-0.5,0-0.8,0-1.3,0
			c-0.3,0-0.7,0-0.8,0H333c-0.5,0-1.2,0-1.7,0c-3.7,0-7.3,0.3-10.8,0.5c-0.3,0-0.7,0-1,0h-0.8h-1c-2.3,0-7.1,0-10,3.3
			c-1.5,1.7-2.2,4-2.3,6.6c0,1.2,0,2.3,0.3,3.3c0.8,3.5,3.7,7.6,11.8,8.1c-0.5,0.8-1.3,2-2.5,3.5l-0.5,0.7c-1.2,1.3-2.2,2.8-3.5,4.2
			c-0.5,0.7-1,1.3-1.7,1.8c-2,2.3-3.5,6.6-2.5,10.5c0.8,3,3.3,5,5,6.3c0.3,0.2,0.5,0.3,0.7,0.5c1.7,1.5,3.5,2.2,5.3,2.2
			c5.1,0,7.3-5.1,8.8-8.5c0.3-0.8,0.7-1.5,1-2.2c0.2-0.5,0.5-0.8,0.7-1c0.8,0.7,2,2,2.7,2.8c2.3,2.8,5.1,5.8,9,5.8c0,0,0.2,0,0.3,0
			c5.5-0.2,9.6-8.6,9.6-12.1c0-4.7-3.2-8.1-5.3-10.5c-0.3-0.3-0.7-0.7-1-1c-0.5-0.7-1-1.2-1.5-1.7c0-0.2-0.2-0.2-0.2-0.2
			c0-0.2,0-0.2,0.2-0.3c0.3-1.2,0.8-2.5,1.3-4c1.2-3.2,2.5-6.8,2.2-10.8C345.8,33.1,344.1,28.1,335.5,28.1L335.5,28.1z"/>
	</g>
	<g>
		<path style="fill-rule:evenodd;clip-rule:evenodd;fill:#F8C400;" d="M367.4,29.2c0.3,2-0.2,5-0.2,6.5c0,10.5-0.2,20.8-0.2,31.2
			c0,3,1.5,9.8-2.5,10.5c-3.5,0.7-7.3-2.2-8.6-5.1c-1-2.7-0.3-6.6-3.8-7.1c-1.3-0.2-2.8-0.5-4-1.2c-1.2-0.7-2.3-1.7-2.8-3
			s-0.3-2.8,0.7-4c1-1,2.5-1.3,4-1.3c0.8,0,3.5,0.7,4.2-0.2c0.3-0.5-0.2-3.2-0.2-3.7c0-0.7-11,1.7-12.5-8.1
			c-0.7-4.7,12.3-3.7,12.3-3.7s-0.8-5.3,3.2-10.8c1.5-2,7.6-4,9.8-1.5C367,28.1,367.4,28.6,367.4,29.2z"/>
		<path d="M363.7,26.6c1.3,0,2.5,0.3,3.2,1.2c0.3,0.3,0.5,1,0.7,1.7c0.3,2-0.2,5-0.2,6.5c0,10.5-0.2,20.8-0.2,31.2
			c0,3,1.5,9.8-2.5,10.5c-0.3,0-0.7,0-1,0c-3.2,0-6.5-2.5-7.6-5.3c-1-2.7-0.3-6.6-3.8-7.1c-1.3-0.2-2.8-0.5-4-1.2s-2.3-1.7-2.8-3
			s-0.3-2.8,0.7-4c1-1,2.5-1.3,3.8-1.3l0,0c0.5,0,1.8,0.2,2.8,0.2c0.5,0,1,0,1.3-0.3c0.3-0.5-0.2-3.2-0.2-3.7c0-0.7-11,1.7-12.5-8.1
			c-0.5-3.3,5.8-3.8,9.5-3.8c1.5,0,2.7,0.2,2.7,0.2s-0.8-5.3,3.2-10.8C358.1,27.9,361,26.6,363.7,26.6 M363.7,22.3L363.7,22.3
			c-3.3,0-8,1.5-10.1,4.3c-2.5,3.3-3.5,6.5-4,9c-7.1,0.2-9.6,2.2-10.8,3.5c-1.2,1.5-1.8,3.3-1.5,5.1c0.7,4.3,2.7,7.5,6,9.5
			c-0.2,0.2-0.2,0.2-0.3,0.3c-2,2.2-2.7,5.3-1.7,8.3c0.8,2.2,2.5,4.2,4.8,5.3c1.3,0.7,2.8,1.2,4.8,1.5c0,0.3,0.2,0.8,0.2,1
			c0.2,1,0.3,2.2,0.8,3.5c1.8,4.5,6.8,8,11.6,8c0.5,0,1.2,0,1.7-0.2c7.1-1.2,6.5-9.3,6.1-12.8c0-0.7-0.2-1.5-0.2-1.8
			c0-3.8,0-7.8,0.2-11.6c0-6.5,0.2-13.1,0.2-19.6c0-0.3,0-0.8,0.2-1.5c0.2-1.7,0.3-3.8,0-5.8c-0.3-1.5-0.8-2.7-1.7-3.7
			C368.8,23.6,367,22.3,363.7,22.3L363.7,22.3z"/>
	</g>
	<g>
		<path style="fill:#FFEA88;" d="M340.6,55.8c-2.5-2.8-3.3-2.7-2.5-6.1c1.2-4.3,3.7-8.8,3.5-13.5c-0.3-4.8-5.6-3.8-8.6-4
			c-4-0.2-8,0.2-12,0.5c-2.7,0.2-7.6-0.5-9.8,1.8c-0.8,1-1.3,2.5-1.3,4c0,0.7,0,1.3,0.2,2.2c1.2,4.5,6.1,5,9.5,5c1,0,2.2,0,3,0.8
			c2.3,2.3-3.2,8.6-4.3,10.1c-1.7,2.2-3.5,4.2-5.1,6.1c-1.3,1.5-2.2,4.5-1.7,6.6c0.5,2,3,3.5,4.3,4.7c4.8,4,6.6-3.7,8.6-7.3
			c5.6-10.6,11,5.6,15.9,5.5c2.5-0.2,5.5-5.8,5.6-8C345.8,60.8,342.6,58,340.6,55.8z"/>
		<path style="fill:#FFCF00;" d="M335.5,35.2c3.2,0,3.2,0.5,3.2,1.3c0.2,2.5-0.8,5.1-1.8,8c-0.5,1.5-1.2,3-1.5,4.7
			c-1,3.8-0.2,5.1,1.8,7.3c0.3,0.3,0.8,0.8,1.2,1.3c0.3,0.3,0.7,0.8,1,1.2c1.7,1.7,3.3,3.7,3.3,5.5c-0.2,1.2-1.8,4.3-3,5
			c-0.8-0.3-2.3-2.2-3.3-3.3c-2.3-2.8-4.8-5.6-8.3-5.6c-2.7,0-4.8,1.7-6.6,5.1c-0.5,0.8-0.8,1.7-1.2,2.7c-0.5,1.2-1.7,3.7-2.3,4.2
			c-0.2,0-0.3-0.2-0.7-0.5c-0.3-0.2-0.7-0.5-1-0.7c-0.8-0.7-2.3-1.8-2.5-2.5c-0.3-1.2,0.3-3.2,1-4c0.5-0.7,1-1.2,1.5-1.8
			c1.2-1.5,2.5-2.8,3.7-4.5l0.3-0.5c2.5-3,7.6-9.5,3.8-13.5c-1.7-1.7-3.8-1.7-4.8-1.7H319h-0.2c-5,0-6.1-1.5-6.5-2.8
			c-0.2-0.3-0.2-0.8-0.2-1.3c0-1,0.3-1.8,0.7-2.3c0.5-0.5,2-0.8,4.5-0.8h0.8h0.8c0.5,0,1,0,1.5,0c3.3-0.2,6.8-0.5,10.1-0.5
			c0.5,0,1,0,1.5,0h0.5c0.3,0,0.7,0,1,0C334.8,35.2,335.1,35.2,335.5,35.2 M335.5,32.4c-0.8,0-1.5,0-2.2,0c-0.2,0-0.3,0-0.3,0
			c-0.5,0-1,0-1.5,0c-3.5,0-7,0.2-10.5,0.5c-0.3,0-0.8,0-1.3,0s-1.2,0-1.8,0c-2.5,0-5.3,0.2-6.6,1.8c-0.8,1-1.3,2.5-1.3,4
			c0,0.7,0,1.3,0.2,2.2c1.2,4.5,6,5,9.1,5h0.2h0.2c1,0,2,0,2.8,0.8c2.3,2.3-3.2,8.6-4.3,10.1c-1.7,2.2-3.5,4.2-5.1,6.1
			c-1.3,1.5-2.2,4.5-1.7,6.6c0.5,2,3,3.5,4.3,4.7c1,0.8,1.8,1.2,2.5,1.2c3,0,4.5-5.5,6-8.5c1.3-2.7,2.8-3.7,4.2-3.7
			c4.2,0,8,9,11.8,9c0,0,0,0,0.2,0c2.5-0.2,5.5-5.8,5.6-8c0-3.5-3.2-6.3-5.1-8.6c-2.5-2.8-3.3-2.7-2.5-6.1c1.2-4.3,3.7-8.8,3.3-13.5
			C341.4,32.7,338.3,32.4,335.5,32.4L335.5,32.4z"/>
	</g>
	<g>
		<path style="fill-rule:evenodd;clip-rule:evenodd;fill:#FFEA88;" d="M367.4,29.2c0.3,2-0.2,5-0.2,6.5c0,10.5-0.2,20.8-0.2,31.2
			c0,3,1.5,9.8-2.5,10.5c-3.5,0.7-7.3-2.2-8.6-5.1c-1-2.7-0.3-6.6-3.8-7.1c-1.3-0.2-2.8-0.5-4-1.2c-1.2-0.7-2.3-1.7-2.8-3
			s-0.3-2.8,0.7-4c1-1,2.5-1.3,4-1.3c0.8,0,3.5,0.7,4.2-0.2c0.3-0.5-0.2-3.2-0.2-3.7c0-0.7-11,1.7-12.5-8.1
			c-0.7-4.7,12.3-3.7,12.3-3.7s-0.8-5.3,3.2-10.8c1.5-2,7.6-4,9.8-1.5C367,28.1,367.4,28.6,367.4,29.2z"/>
		<path style="fill:#FFCF00;" d="M363.7,29.4L363.7,29.4c0.5,0,0.8,0.2,1,0.2v0.2c0.2,1,0,2.7,0,3.8c0,0.8-0.2,1.5-0.2,2
			c0,6.5,0,13.1-0.2,19.6c0,3.8,0,7.8-0.2,11.6c0,0.7,0,1.7,0.2,2.5c0.2,1.3,0.3,4.7-0.3,5.1c-0.2,0-0.3,0-0.5,0
			c-1.8,0-4.3-1.7-5-3.5c-0.2-0.5-0.3-1.2-0.5-2c-0.3-2.2-1-6.3-5.6-7c-1.3-0.2-2.2-0.5-3-0.8c-0.7-0.3-1.2-1-1.3-1.5
			c-0.2-0.3,0-0.8,0-1c0.2-0.2,0.8-0.5,1.8-0.5c0.2,0,0.5,0,0.7,0c0.7,0,1.3,0.2,2.2,0.2c0.5,0,2.3,0,3.5-1.3s0.8-3,0.5-5.5
			c0-0.2,0-0.3,0-0.5c-0.3-2.7-3-2.7-4.2-2.7c-4.5-0.2-7.5-1-8.3-5.1c0.7-0.3,2.7-1,6.6-1c1.5,0,2.5,0,2.5,0h0.2
			c0.8,0,1.5-0.3,2.2-1s0.8-1.5,0.7-2.3c0-0.2-0.5-4.3,2.7-8.6C359.5,30.6,361.7,29.4,363.7,29.4 M363.7,26.6
			c-2.5,0-5.6,1.3-6.6,2.7c-4.2,5.5-3.2,10.8-3.2,10.8s-1.2-0.2-2.7-0.2c-3.8,0-10,0.5-9.5,3.8c1.5,10,12.5,7.5,12.5,8.1
			s0.7,3.3,0.2,3.7c-0.2,0.3-0.7,0.3-1.3,0.3c-1,0-2.3-0.2-2.8-0.2l0,0c-1.3,0-3,0.3-3.8,1.3c-1,1-1.2,2.7-0.7,4s1.5,2.3,2.8,3
			c1.3,0.7,2.7,1,4,1.2c3.5,0.5,2.7,4.5,3.8,7.1c1.2,2.8,4.5,5.3,7.6,5.3c0.3,0,0.7,0,1,0c4.2-0.7,2.5-7.5,2.5-10.5
			c0-10.5,0.2-20.8,0.2-31.2c0-1.5,0.5-4.5,0.2-6.5c-0.2-0.7-0.3-1.2-0.7-1.7C366,26.9,364.9,26.6,363.7,26.6L363.7,26.6z"/>
	</g>
</g>
<g>
	<g>
		<path style="fill:#F8C400;" d="M64.7,328.2c-1.7-2.7-5.5-3.2-9.5-3.3c-12.1-0.3-24.1-1-36.2-1.7c-6.1-0.3-7.1,2.7-7.1,6.3
			c0,3-1.5,6.6,4.7,6.8c6.8,0.2,14.1,0,21.1,0c5.8,0,12.1,0.2,18.1,0.2s9,0.3,9.6-4C65.6,331.2,65.6,329.5,64.7,328.2z"/>
		<path d="M18.4,323.2c0.3,0,0.5,0,0.8,0c12.1,0.7,24.1,1.3,36.2,1.7c3.8,0.2,7.8,0.7,9.5,3.3c0.8,1.3,0.7,3,0.5,4.5
			c-0.5,3.7-2.8,4-7.1,4c-0.8,0-1.7,0-2.5,0c-6,0-12.3,0-18.1-0.2c-1.3,0-2.7,0-4,0c-3.3,0-6.8,0-10.1,0c-2.3,0-4.7,0-7-0.2
			c-6.1-0.2-4.7-3.8-4.7-6.8C12.1,326,13.1,323.2,18.4,323.2 M18.4,318.9c-3.5,0-6.1,1-8,2.8c-2.7,2.7-2.7,6.5-2.7,7.8
			c0,0.3,0,0.8,0,1.2c-0.2,2-0.3,4.8,1.8,7.3c1.5,1.7,3.8,2.7,7,2.7c2,0,4.3,0.2,7,0.2c1.7,0,3.3,0,5.1,0c1.7,0,3.3,0,5,0
			c1.3,0,2.7,0,3.8,0c6.8,0.2,12.8,0.2,18.1,0.2h1.3H58c3.5,0,10.1,0,11.3-7.6c0.3-2,0.5-4.8-1-7.3c-2.7-4.5-8.3-5.3-13-5.5
			c-9.3-0.3-18.6-0.7-27.7-1.2c-2.8-0.2-5.5-0.3-8.3-0.3C19.1,318.9,18.7,318.9,18.4,318.9L18.4,318.9z"/>
	</g>
	<g>
		<path style="fill-rule:evenodd;clip-rule:evenodd;fill:#F8C400;" d="M22.9,299c-2.2,1.5-3.5,3.8-3.5,8c0,5.3-1,12,4.8,14.8
			c4.8,2.2,12,1,17.1,1.2c1.8,0,8.8,1.2,10.6,0.3c3.2-1.5,3.2-11.1-0.7-11.5c-1.3-0.2-7.3-0.7-8.6-0.8c-1.5-0.2-9.5-0.2-10.5-1.5
			c-0.5-0.8-0.2-1.5,0.7-1.3c1.8,0.2,14.1,0.5,15.9,0.5c1,0,2.3,0.2,3.3-0.3c1-0.7,1.2-5.1,1.2-6.1c0-2.5-1.2-4.3-3.8-4.5
			c-4.8-0.2-9.6-0.3-14.3-0.5C30.5,297.1,25.9,297,22.9,299z"/>
		<path d="M32,297.1c1,0,2.2,0,3.3,0c4.8,0.2,9.6,0.3,14.3,0.5c2.7,0.2,3.8,2,3.8,4.5c0,1.2,0,5.6-1.2,6.1c-0.5,0.3-1.2,0.3-1.8,0.3
			c-0.5,0-1,0-1.5,0c0,0,0,0-0.2,0h-0.2c-2.5,0-14-0.3-15.8-0.5l0,0c-0.8,0-1.2,0.7-0.7,1.3c1,1.3,8.8,1.2,10.5,1.5
			c1.3,0.2,7.3,0.7,8.6,0.8c3.8,0.3,3.8,10,0.7,11.5c-0.5,0.2-1.3,0.3-2.3,0.3c-2.8,0-6.8-0.7-8.3-0.7c-0.3,0-0.8,0-1.2,0
			c-2.3,0-4.8,0.2-7.3,0.2c-3.2,0-6.1-0.2-8.6-1.3c-6-2.7-5-9.5-4.8-14.8c0-4.2,1.3-6.6,3.5-8C25.2,297.5,28.4,297.1,32,297.1
			 M32,292.8c-3.7,0-8,0.3-11.5,2.5c-3.7,2.3-5.5,6.3-5.5,11.6c0,0.7,0,1.3,0,2c-0.2,5.3-0.3,13.1,7.5,16.8
			c3.5,1.5,7.5,1.8,10.5,1.8c1.3,0,2.7,0,4-0.2c1.2,0,2.3,0,3.3,0c0.3,0,0.7,0,1,0s1.3,0.2,2.2,0.2c1.8,0.2,4.3,0.5,6.3,0.5
			c1.8,0,3-0.2,4.2-0.7c4.5-2.2,5.1-8.5,4.5-12.3c-0.3-1.8-1-3.5-2-4.7c0.8-1.5,1.5-3.8,1.3-8.1c0-5-3.3-8.5-8-8.6
			c-4.8-0.2-9.6-0.3-14.3-0.5C34.2,293,33,292.8,32,292.8L32,292.8z"/>
	</g>
	<g>
		<path style="fill:#F8C400;" d="M54.1,357.6c-0.7,0.7-1.5,1.2-2.7,1.3c-6,1.5-13,2-19.1,2c-3.7,0-7.6-0.5-10-3.2
			c-2.5-3-1.7-6.5-2-10c-0.2-2.7-1-6.8,1.5-8.6c2.8-2,8.5-0.8,10.1,2.2c2,3.5-0.8,7,5,7.1c4.5,0.2,10.5-1.5,14.6,0.5
			C56.1,350.3,56.8,355.1,54.1,357.6z"/>
		<path d="M25.5,338c2.7,0,5.5,1.2,6.6,3.2c2,3.5-0.8,7,5,7.1c0.3,0,0.5,0,0.8,0c2.7,0,5.8-0.5,8.6-0.5c1.8,0,3.7,0.2,5.1,0.8
			c4.3,1.7,5,6.5,2.3,9c-0.7,0.7-1.5,1.2-2.7,1.3c-5.8,1.5-12.5,2-18.6,2c-0.2,0-0.3,0-0.5,0c-3.7,0-7.6-0.5-10-3.2
			c-2.5-3-1.7-6.5-2-10c-0.2-2.7-1-6.8,1.5-8.6C23,338.3,24.2,338,25.5,338 M25.5,333.7c-2.3,0-4.5,0.7-6.1,1.8
			c-4.2,3-3.7,8.5-3.3,11.6c0,0.3,0,0.7,0.2,0.8c0,0.7,0,1.5,0,2.3c0,3,0,6.8,3,10.1c3.7,4.2,9.3,4.7,13.1,4.8h0.5
			c7.3,0,14.1-0.7,19.6-2c1.7-0.5,3.3-1.2,4.5-2.3c2.3-2.2,3.5-5.5,2.8-8.6c-0.7-3.3-3-6.1-6.3-7.5c-1.8-0.8-4.2-1.2-6.8-1.2
			c-1.7,0-3.3,0.2-4.8,0.3c-1.3,0.2-2.7,0.2-3.8,0.2c-0.2,0-0.3,0-0.7,0l0,0c-0.2-1.3-0.3-3.2-1.5-5
			C33.8,335.3,29.2,333.7,25.5,333.7L25.5,333.7z"/>
	</g>
	<g>
		<path style="fill:#FFEA88;" d="M64.7,328.2c-1.7-2.7-5.5-3.2-9.5-3.3c-12.1-0.3-24.1-1-36.2-1.7c-6.1-0.3-7.1,2.7-7.1,6.3
			c0,3-1.5,6.6,4.7,6.8c6.8,0.2,14.1,0,21.1,0c5.8,0,12.1,0.2,18.1,0.2s9,0.3,9.6-4C65.6,331.2,65.6,329.5,64.7,328.2z"/>
		<path style="fill:#FFCF00;" d="M18.4,326c0.2,0,0.5,0,0.7,0c2.8,0.2,5.5,0.3,8.3,0.3c9.1,0.5,18.6,1,27.9,1.2c1.5,0,6,0.2,7,2
			c0.3,0.7,0.3,1.8,0.2,2.7c-0.2,1.3-0.2,1.5-4.3,1.5H57h-1.3c-5.3,0-11.3,0-17.9-0.2c-1.3,0-2.7,0-4,0c-1.7,0-3.3,0-5.1,0
			c-1.7,0-3.3,0-5,0c-2.7,0-4.8,0-6.8-0.2c-1.3,0-1.8-0.3-1.8-0.3l0,0c-0.2-0.3,0-1.3,0-2s0.2-1.2,0.2-1.8c0-1.3,0.2-2.3,0.7-2.7
			C15.9,326.2,17.1,326,18.4,326 M18.4,323.2c-5.3,0-6.3,2.8-6.3,6.3c0,3-1.5,6.6,4.7,6.8c2.3,0,4.7,0.2,7,0.2c3.3,0,6.8,0,10.1,0
			c1.3,0,2.7,0,4,0c5.8,0,12.1,0.2,18.1,0.2c1,0,1.8,0,2.5,0c4.3,0,6.5-0.3,7.1-4c0.2-1.5,0.3-3.2-0.5-4.5c-1.7-2.7-5.5-3.2-9.5-3.3
			c-12.1-0.3-24.1-1-36.2-1.7C18.9,323.2,18.7,323.2,18.4,323.2L18.4,323.2z"/>
	</g>
	<g>
		<path style="fill-rule:evenodd;clip-rule:evenodd;fill:#FFEA88;" d="M22.9,299c-2.2,1.5-3.5,3.8-3.5,8c0,5.3-1,12,4.8,14.8
			c4.8,2.2,12,1,17.1,1.2c1.8,0,8.8,1.2,10.6,0.3c3.2-1.5,3.2-11.1-0.7-11.5c-1.3-0.2-7.3-0.7-8.6-0.8c-1.5-0.2-9.5-0.2-10.5-1.5
			c-0.5-0.8-0.2-1.5,0.7-1.3c1.8,0.2,14.1,0.5,15.9,0.5c1,0,2.3,0.2,3.3-0.3c1-0.7,1.2-5.1,1.2-6.1c0-2.5-1.2-4.3-3.8-4.5
			c-4.8-0.2-9.6-0.3-14.3-0.5C30.5,297.1,25.9,297,22.9,299z"/>
		<path style="fill:#FFCF00;" d="M32,300c1,0,2.2,0,3.2,0c4.8,0.2,9.5,0.3,14.3,0.5c0.7,0,1.2,0,1.2,1.7c0,1.3,0,2.7-0.2,3.7
			c-0.2,0-0.3,0-0.5,0c-0.3,0-0.5,0-1,0l0,0h-0.2c-2.3,0-13.8-0.3-15.6-0.5H33c-1.5,0-2.8,0.8-3.3,2c-0.7,1.3-0.5,2.8,0.5,4
			c1.3,1.8,4.3,2.2,10.3,2.5c0.8,0,1.7,0,2,0.2c1,0.2,3.7,0.3,6.6,0.7c0.8,0,1.5,0.2,1.8,0.2c0.2,0.3,0.5,1.3,0.5,2.8
			c0,1.7-0.3,2.8-0.7,3.2c-0.2,0-0.5,0-1,0c-1.5,0-3.7-0.2-5.5-0.5c-1.2-0.2-2.2-0.2-2.7-0.3c-0.3,0-0.8,0-1.2,0c-1.2,0-2.3,0-3.5,0
			s-2.5,0-3.7,0c-2.3,0-5.3-0.2-7.5-1.2c-3.3-1.5-3.3-4.8-3.3-10c0-0.7,0-1.5,0-2.2c0-3.8,1.3-5,2.2-5.6C26.4,300.1,29.5,300,32,300
			 M32,297.1c-3.5,0-6.8,0.3-9,1.8s-3.5,3.8-3.5,8c0,5.3-1,12,4.8,14.8c2.5,1.2,5.6,1.3,8.6,1.3c2.5,0,5-0.2,7.3-0.2
			c0.3,0,0.8,0,1.2,0c1.3,0,5.5,0.7,8.3,0.7c1,0,1.8,0,2.3-0.3c3.2-1.5,3.2-11.1-0.7-11.5c-1.3-0.2-7.3-0.7-8.6-0.8
			c-1.5-0.2-9.5-0.2-10.5-1.5c-0.5-0.7-0.2-1.3,0.7-1.3l0,0c1.8,0.2,13.5,0.5,15.8,0.5H49c0,0,0,0,0.2,0c0.5,0,1,0,1.5,0
			c0.7,0,1.2,0,1.8-0.3c1-0.7,1.2-5.1,1.2-6.1c0-2.5-1.2-4.3-3.8-4.5c-4.8-0.2-9.6-0.3-14.3-0.5C34.2,297.1,33,297.1,32,297.1
			L32,297.1z"/>
	</g>
	<g>
		<path style="fill:#FFEA88;" d="M54.1,357.6c-0.7,0.7-1.5,1.2-2.7,1.3c-6,1.5-13,2-19.1,2c-3.7,0-7.6-0.5-10-3.2
			c-2.5-3-1.7-6.5-2-10c-0.2-2.7-1-6.8,1.5-8.6c2.8-2,8.5-0.8,10.1,2.2c2,3.5-0.8,7,5,7.1c4.5,0.2,10.5-1.5,14.6,0.5
			C56.1,350.3,56.8,355.1,54.1,357.6z"/>
		<path style="fill:#FFCF00;" d="M25.5,340.8c1.8,0,3.7,0.8,4.2,1.7c0.3,0.7,0.5,1.5,0.5,2.3c0.2,2.2,0.5,6,6.8,6.3c0.3,0,0.7,0,1,0
			c1.3,0,2.8-0.2,4.3-0.3c1.5-0.2,3-0.2,4.3-0.2c1.8,0,3.2,0.2,4,0.7h0.2c1.5,0.5,2,1.5,2,2.2c0.2,0.8-0.2,1.5-0.7,2
			c-0.3,0.3-0.8,0.5-1.3,0.7c-5,1.2-11.1,1.8-17.9,1.8h-0.5c-4.2,0-6.5-0.7-7.8-2.2c-1.2-1.3-1.2-3-1.2-5.6c0-0.8,0-1.8-0.2-2.8
			c0-0.3,0-0.7-0.2-1c-0.2-1.5-0.5-4.5,0.5-5.1C24,341,24.9,340.8,25.5,340.8 M25.5,338c-1.3,0-2.7,0.3-3.5,1
			c-2.5,1.8-1.7,6-1.5,8.6c0.3,3.5-0.5,7.1,2,10c2.3,2.8,6.3,3.2,10,3.2c0.2,0,0.3,0,0.5,0c6.1,0,12.8-0.5,18.6-2
			c1-0.3,2-0.7,2.7-1.3c2.7-2.5,2-7.3-2.3-9c-1.5-0.7-3.3-0.8-5.1-0.8c-2.8,0-6,0.5-8.6,0.5c-0.3,0-0.5,0-0.8,0
			c-5.8-0.3-3-3.7-5-7.1C31,339.2,28.2,338,25.5,338L25.5,338z"/>
	</g>
</g>
<g>
	<path d="M244.6,221.1c10,0,19.8,3.5,30.6,8.5l0,0l2.3,1c0,0,0,0,0.2,0l0,0c6,2.8,10.5,7.5,13.6,14.4c0-0.2,3.7-4,4.2-4.7
		c3-2.8,6.8-5.1,11-5.6c0.5,0,1-0.2,1.5-0.2c3,0,6,1.2,8.8,2.2c3.2,1.3,6.6,5.6,6.8,9.3c0,5.5-4.8,8.8-8.3,12.1L303,268.9l-2.7,2.3
		c-1.5,1.3-3.5,2.2-5.5,2.2c-0.2,0-0.5,0-0.7,0c-2.3-0.2-3.8-2.2-4.8-4.2c-0.5-1-1.2-2.2-1.7-3.2c-0.3-0.5-2.2-3.2-2-3.7v-0.2
		c-4.5-4.8-7.6-14-14.6-18.8l0,0l0,0l-2.7-1.2l0,0c-8.3-4-15.6-7-23.1-7c-2.8,0-5.8,0.5-8.8,1.5c-0.8,0.3-1.7,0.3-2.5,0.3
		c-1.8,0-3.5-0.7-5-1.8c-2.2-1.8-3.2-4.8-2.7-7.5c0.5-2.5,2.2-4.3,4.8-5.1C236,221.7,240.3,221.1,244.6,221.1 M244.6,216.8
		L244.6,216.8c-5,0-9.8,0.8-14.6,2.3c-4,1.3-6.8,4.5-7.6,8.3c-0.8,4.2,0.7,8.6,4,11.6c2.2,2,5,3,7.8,3c1.3,0,2.5-0.2,3.8-0.7
		c2.5-0.8,5-1.2,7.5-1.2c6.6,0,13.5,2.8,20.8,6.3c0.2,0,0.3,0.2,0.3,0.2l2.3,1c3.5,2.5,6,6.6,8.3,10.5c1.5,2.3,2.8,4.7,4.5,6.5
		c0.3,1,1.2,2.2,2,3.3c0.2,0.2,0.3,0.3,0.3,0.5c0.5,0.8,1,1.7,1.5,2.7l0.2,0.3c2,3.7,4.8,6,8.1,6.3c0.3,0,0.8,0,1.2,0
		c3,0,6-1.2,8.3-3.2l0,0l2.7-2.3l12.3-10.8c0.5-0.3,0.8-0.8,1.3-1.2c3.7-3.2,8.6-7.5,8.5-14.3c0-5.8-5-11.5-9.5-13.3
		c-3.2-1.3-6.6-2.5-10.5-2.5c-0.7,0-1.3,0-2,0.2c-6.3,0.8-11.1,4.7-13.5,6.8c-0.2,0.2-0.3,0.3-0.3,0.3c-3.3-5-7.6-8.6-12.6-11.1
		l-2.3-1.2h-0.2C266.9,220.9,256.1,216.8,244.6,216.8L244.6,216.8z"/>
	<path style="fill:#FFFFFF;" d="M226.7,228.4c0.5-2.5,2.2-4.3,4.8-5.1c15.8-5.1,30.1,0,46.2,7.5l3.5,3.2l-7.5,11.3l-2.3-1.2
		c-12.5-5.6-22.8-10.6-34.4-6.6c-2.7,0.8-5.3,0.3-7.3-1.5C227.2,234,226,231,226.7,228.4z"/>
	<path style="fill-rule:evenodd;clip-rule:evenodd;fill:#00A2FC;" d="M285.6,262.9L285.6,262.9c-4.5-5-7.6-14-14.6-18.9l-2.7-1.2
		l6.8-13.3l2.5,1c6,2.8,11.3,7.3,13.6,14.4c0-0.2,3.5-3.8,4-4.5c3-2.8,7-5.5,11.1-6c3.7-0.5,7.1,0.8,10.3,2.2s7,5.8,7,9.6
		c0,5.5-5.1,8.8-8.6,12.1l-12.3,10.8l-2.7,2.3c-1.7,1.5-4,2.3-6.1,2.2c-2.3-0.2-3.8-2.2-4.8-4.2c-0.5-1-1.2-2.2-1.7-3.2
		C287.5,266.1,285.5,263.4,285.6,262.9z"/>
	<path style="fill:#FFFFFF;" d="M113.1,214.1L113.1,214.1c-4.8,5.3-11.1,8.5-15.4,10.3l-1.8,0.7c-4.8,2-9.6,4-13,8
		c-4.3,5.5-4.7,14.1-3.2,19.8c1.3,4.8,5.1,9.3,9.1,10.8c2.8,1,5.5,0.7,8.1-1.2c2.8-2,3.5-5.1,4.2-8.6c0.2-1,0.3-1.8,0.7-2.8
		c1.7-6.3,6.3-9.1,11.3-12c4-2.3,7.5-5.1,10.5-8.6c6.3-7,10-15.4,10.5-23.9c0.2-3,0.5-13-3.3-15.4c-1.3-0.8-3-0.7-5,0.3
		c-3.7,1.8-5,6.3-6.1,10.5c-0.7,2.3-1.3,4.7-2.3,6.5C116.2,210.4,114.7,212.3,113.1,214.1z"/>
	<path style="fill:#00A2FC;" d="M113.1,214.1L113.1,214.1c-4.8,5.3-11.1,8.5-15.4,10.3l-1.8,0.7c-4.8,2-9.6,4-13,8
		c-4.3,5.5-4.7,14.1-3.2,19.8c1.3,4.8,5.1,9.3,9.1,10.8c2.8,1,5.5,0.7,8.1-1.2c2.8-2,3.5-5.1,4.2-8.6c0.2-1,0.3-1.8,0.7-2.8
		c1.7-6.3,6.3-9.1,11.3-12c4-2.3,7.5-5.1,10.5-8.6"/>
	<g>
		<path d="M92,265.6c-1.2,0-2.3-0.2-3.5-0.7c-4.5-1.7-8.6-6.5-10-11.8c-1.7-6-1.2-15.1,3.5-20.9c3.5-4.3,8.6-6.5,13.5-8.5l1.8-0.7
			c4.2-1.7,10.1-4.8,14.8-10l0,0c1.5-1.7,2.8-3.5,4-5.3c1-1.8,1.7-4,2.3-6.3c1.2-4.3,2.7-9.1,6.8-11.5c2.5-1.3,4.7-1.3,6.5-0.3
			c4.3,2.8,4.3,12.6,4,16.8c-0.5,8.8-4.3,17.6-10.8,24.9c-3.2,3.5-6.8,6.5-10.8,9c-5,2.8-9.1,5.5-10.6,11.1
			c-0.2,0.8-0.5,1.8-0.7,2.7c-0.7,3.5-1.5,7.1-4.8,9.5C96.1,264.9,94,265.6,92,265.6z M114.2,215.1c-5,5.5-11.5,8.8-15.9,10.6
			l-1.8,0.7c-4.7,1.8-9.3,3.8-12.3,7.6c-4,5.1-4.3,13.1-3,18.4c1.2,4.5,4.7,8.5,8.3,9.8c2.3,0.8,4.7,0.5,6.8-1
			c2.3-1.7,3-4.5,3.7-7.6c0.2-1,0.3-2,0.7-2.8c1.8-6.8,7-10,12-12.8c3.8-2.2,7.1-5,10.1-8.3c6-6.6,9.6-14.9,10.1-23.1
			c0.3-5.5-0.2-12.5-2.7-14.1c-0.8-0.5-2-0.3-3.7,0.5c-3.2,1.7-4.3,5.6-5.5,9.6c-0.7,2.3-1.3,4.8-2.5,6.8
			C117.4,211.3,115.9,213.3,114.2,215.1L114.2,215.1z"/>
		<path d="M92,265.9c-1.3,0-2.5-0.2-3.7-0.7c-4.7-1.7-8.8-6.6-10.1-12.1c-1.7-6-1.3-15.3,3.5-21.3c3.7-4.5,9-6.6,13.6-8.6l1.8-0.7
			c3.3-1.3,9.6-4.3,14.6-9.8c1.3-1.5,2.7-3.3,4-5.3c1-1.8,1.7-4,2.3-6.1c1.3-4.7,2.8-9.3,7-11.8c2.5-1.3,4.8-1.5,6.8-0.3
			c5,3.3,4.3,14.9,4.2,17.1c-0.5,8.8-4.3,17.8-11,25.1c-3.2,3.5-6.8,6.5-11,9c-5,2.8-9,5.5-10.5,11c0,0.3-0.2,0.8-0.3,1.3
			c-0.2,0.5-0.2,0.8-0.3,1.3c-0.7,3.8-1.7,7.3-5,9.8C96.3,265.3,94.1,265.9,92,265.9z M128.8,189.4c-1.2,0-2.3,0.3-3.5,1
			c-3.8,2.2-5.5,6.8-6.6,11.1c-0.7,2.3-1.3,4.5-2.3,6.5c-1.3,2-2.7,3.8-4,5.3c-5,5.6-11.5,8.6-14.9,10.1l-1.8,0.7
			c-4.7,1.8-9.8,4-13.3,8.3c-4.5,5.5-5.1,14.6-3.5,20.6c1.3,5.1,5.3,9.8,9.6,11.5c1,0.5,2.2,0.7,3.3,0.7c2,0,4-0.7,5.8-2
			c3.2-2.2,4-5.5,4.7-9.1c0.2-0.5,0.2-0.8,0.3-1.3c0.2-0.5,0.2-0.8,0.3-1.3c1.5-5.8,5.6-8.5,10.8-11.5c4-2.5,7.6-5.5,10.6-8.8
			c6.5-7.1,10.1-15.9,10.6-24.6c0.2-1.3,1-13.3-3.8-16.4C130.7,189.7,129.8,189.4,128.8,189.4z M92,263.1c-0.8,0-1.7-0.2-2.7-0.5
			c-3.8-1.3-7.5-5.5-8.6-10.1c-1.3-5.6-1-13.6,3-18.8c3-3.8,7.6-5.8,12.5-7.8l1.8-0.7c4.5-1.8,11-5.1,15.8-10.5l0,0
			c1.5-1.7,3-3.7,4.3-5.6c1-1.8,1.7-4,2.3-6.1l0.2-0.5c1.2-4,2.3-8.1,5.6-10c1.8-0.8,3.2-1,4-0.5c3.5,2.3,3,12.5,2.8,14.4
			c-0.5,8.3-4.2,16.6-10.3,23.4c-3.2,3.5-6.5,6.3-10.3,8.5c-5.5,3-10,6.1-11.8,12.5c-0.3,0.8-0.5,1.8-0.7,2.8c-0.7,3-1.3,6.1-3.8,8
			C95.1,262.6,93.5,263.1,92,263.1z M129,192.7c-0.7,0-1.3,0.2-2.3,0.7c-3,1.5-4.2,5.3-5.3,9.3l-0.2,0.5c-0.7,2.2-1.3,4.5-2.3,6.5
			c-1.3,2-2.8,4-4.3,5.6l0,0c-5,5.5-11.5,8.8-16.1,10.8l-1.8,0.7c-4.8,1.8-9.3,3.8-12.1,7.5c-3.8,5-4.2,12.8-3,18.1
			c1.2,4.3,4.5,8.1,8,9.5c2.2,0.8,4.3,0.5,6.5-1s2.8-4,3.5-7.3c0.2-1,0.3-2,0.7-2.8c1.8-6.6,6.5-9.8,12.1-13c3.7-2,6.8-4.7,10-8.1
			c5.8-6.5,9.5-14.8,10-22.8c0.3-5.8-0.3-12.3-2.5-13.8C129.7,192.7,129.3,192.7,129,192.7z"/>
	</g>
	<path style="fill:#FFFFFF;" d="M231.3,144.8L231.3,144.8c-0.7,2.3-1.5,4.5-2.7,6.5c-1,1.8-2.8,3.7-4.3,5.5c-3,3.2-6.1,6.6-5.8,10.6
		c0.2,2.3,1,3.8,2.3,4.5c4.2,2,12.5-3.5,14.9-5.1c7-4.8,12.3-12.5,15.1-21.4c1.3-4.3,2-9,2-13.5c0-5.8-0.2-11.3,4.3-15.9
		c0.7-0.7,1.3-1.3,2-2c2.5-2.3,5-4.5,5.1-8c0.2-3.2-0.8-5.6-3.2-7.5c-3.3-2.7-9.1-3.7-14-2.2c-5.6,1.7-12.8,6.3-15.3,13
		c-1.8,5-1,10.1-0.2,15.3l0.3,1.8C232.8,131.1,233.2,138,231.3,144.8z"/>
	<path style="fill:#00A2FC;" d="M251.3,145.5c1.3-4.3,2-9,2-13.5c0-5.8-0.2-11.3,4.3-15.9c0.7-0.7,1.3-1.3,2-2c2.5-2.3,5-4.5,5.1-8
		c0.2-3.2-0.8-5.6-3.2-7.5c-3.3-2.7-9.1-3.7-14-2.2c-5.6,1.7-12.8,6.3-15.3,13c-1.8,5-1,10.1-0.2,15.3l0.3,1.8
		c0.7,4.7,1.2,11.6-0.8,18.4l0,0"/>
	<g>
		<path d="M222.9,173.9c-1,0-2-0.2-2.8-0.5c-1.8-0.8-2.8-2.8-3.2-5.6c-0.3-4.8,3.2-8.5,6.1-11.8c1.5-1.7,3.2-3.5,4.2-5.1
			c1-1.8,2-4,2.5-6.1l0,0c1.8-6.6,1.5-13.5,0.8-17.9l-0.3-1.8c-0.8-5.3-1.7-10.6,0.3-15.9c2.7-7,10.1-12.1,16.1-13.8
			c5.3-1.5,11.5-0.5,15.3,2.5c2.7,2.2,4,5.1,3.7,8.8c-0.3,4-3,6.5-5.6,9c-0.7,0.7-1.3,1.3-2,2c-4.2,4.3-4,9.1-4,14.9
			c0,4.7-0.7,9.3-2,14c-2.8,9.3-8.3,17.1-15.6,22.1C233,170.4,227.3,173.9,222.9,173.9z M232.7,145.3L232.7,145.3
			c-0.7,2.5-1.7,4.7-2.8,6.8c-1.2,2-2.8,3.8-4.5,5.6c-3,3.2-5.6,6.1-5.5,9.6c0.2,1.8,0.7,2.8,1.5,3.3c2.7,1.3,9-1.8,13.5-5
			c6.8-4.7,12-12,14.4-20.6c1.3-4.3,2-8.6,1.8-13.1c0-5.8-0.2-11.8,4.8-16.9c0.7-0.7,1.3-1.3,2-2c2.5-2.3,4.7-4.3,4.8-7.1
			c0.2-2.7-0.7-4.8-2.7-6.3c-3-2.3-8.3-3.2-12.6-2c-5.3,1.5-12,6-14.3,12.1c-1.7,4.7-0.8,9.6-0.2,14.4l0.3,1.8
			C234.3,131.1,234.6,138.2,232.7,145.3z"/>
		<path d="M222.9,174.4c-1.2,0-2.2-0.2-3-0.5c-1.8-0.8-3-2.8-3.5-6c-0.3-4.8,3-8.5,6-11.8l0.5-0.5c1.5-1.5,3-3.3,4-5
			c1.2-2.2,2-4.3,2.5-6c2-7.1,1.3-14.1,0.8-17.8l-0.3-1.8c-0.8-5.3-1.7-10.8,0.3-16.1c2.8-7.3,10.5-12.5,16.4-14.1
			c5.5-1.5,11.8-0.5,15.6,2.5c2.8,2.3,4.2,5.5,3.8,9.1c-0.3,4.2-3.2,6.8-5.8,9.3l-2,2c-3.8,4-3.8,8.5-3.8,14v0.7
			c0,4.7-0.7,9.5-2,14.1c-2.8,9.5-8.5,17.3-15.8,22.3l-0.3,0.2C232.8,170.9,227.3,174.4,222.9,174.4z M251.8,94.8
			c-1.7,0-3.3,0.2-5,0.7c-6,1.7-13.3,6.8-15.8,13.5c-2,5.1-1.2,10.6-0.3,15.8l0.3,1.8c0.5,3.7,1.2,10.8-0.8,18.1
			c-0.5,1.8-1.3,4-2.5,6.3c-1,1.7-2.7,3.5-4.2,5.1l-0.5,0.5c-2.8,3.2-6,6.6-5.6,11.1c0.3,2.8,1.3,4.7,3,5.3c0.7,0.3,1.7,0.5,2.7,0.5
			c4.2,0,9.6-3.3,13-5.1l0.3-0.2c7.1-4.8,12.6-12.6,15.4-21.9c1.3-4.7,2-9.3,2-13.8v-0.7c0-5.5,0-10.3,4.2-14.6l2-2
			c2.7-2.5,5.1-4.8,5.5-8.6c0.3-3.5-0.8-6.3-3.5-8.5C259.1,96,255.4,94.8,251.8,94.8z M222.9,171.4c-0.7,0-1.2-0.2-1.7-0.3
			c-1-0.7-1.5-1.8-1.7-3.7c-0.2-3.7,2.3-6.5,5.6-10c1.7-1.8,3.3-3.7,4.5-5.6c1.3-2.5,2.2-4.7,2.8-6.6l0,0c2.3-8.5,1.2-16.1,0.7-19.1
			l-0.5-2.7c-0.7-4.7-1.3-9.3,0.3-13.8c2.5-6.3,9.3-11,14.6-12.5c4.5-1.2,10-0.3,13,2c2,1.5,3,3.8,2.8,6.6c-0.2,3-2.3,5-4.8,7.3
			l-2,2c-4.7,4.8-4.7,10.6-4.7,16.1v0.5c0.2,4.3-0.5,8.6-1.8,13.3c-2.5,8.6-7.6,16.1-14.6,20.8C232,168.3,226.3,171.4,222.9,171.4z
			 M233,145.5c-0.7,2.2-1.5,4.3-2.8,7c-1.2,2-2.8,4-4.5,5.6c-3.2,3.3-5.5,6.1-5.3,9.3c0.2,1.7,0.5,2.5,1.3,3c2.3,1.2,8.5-1.7,13-5
			c6.8-4.7,11.8-11.8,14.3-20.4c1.3-4.5,2-8.6,1.8-13v-0.5c0-5.6,0-11.6,5-16.6l2-2c2.5-2.3,4.5-4.3,4.7-6.8c0.2-2.7-0.7-4.7-2.5-6
			c-2.8-2.3-8-3-12.3-2c-5.1,1.5-11.6,5.8-14,11.8c-1.5,4.3-0.8,9-0.3,13.5l0.2,0.8l0.3,1.8C234.3,128.9,235.5,136.9,233,145.5z"/>
	</g>
	<path d="M190.6,249.6c1.7,0,3.2,0.7,4.5,1.7c12.1,10.1,15.8,23.8,17.8,40.5l0,0l0.3,2.5c0,0,0,0,0,0.2l0,0c0.8,6.6-0.8,12.8-5,19.3
		l0,0c0.7,0,5.3,1,6,1.2c4,1,8,3.2,10.6,6.3c2.3,2.8,3,6.5,3.7,10s-1.2,8.6-4.3,10.6c-1.7,1-3.3,1.5-5.1,1.5c-3.2,0-6.5-1.3-9.5-2.2
		l-15.6-4.7l-3.3-1c-2-0.7-4.2-2.2-5-4.2c-1-2-0.2-4.5,0.8-6.3c0.7-1,1.2-2,1.8-3c0.3-0.5,1.5-3.7,2-3.7h0.2
		c1.8-6.3,7.8-13.8,8.1-22.4l0,0l0,0l-0.3-2.8l0,0c-1.5-12.6-3.3-22.6-12.3-29.9c-2.2-1.8-3.2-4.3-2.7-7c0.5-2.8,2.5-5.3,5-6.1
		C189.1,249.8,189.8,249.6,190.6,249.6 M190.6,245.3L190.6,245.3c-1.3,0-2.7,0.2-3.8,0.7c-4,1.5-7,5.1-7.6,9.5
		c-0.7,4.2,0.8,8.3,4.2,11.1c7.6,6.3,9.3,15.1,10.6,26.7c0,0.2,0,0.3,0,0.5l0.3,2.5c-0.3,4.3-2.5,8.6-4.5,12.6
		c-1.2,2.5-2.3,4.8-3.2,7.1c-0.7,1-1.2,2.2-1.8,3.5c-0.2,0.2-0.2,0.5-0.3,0.5c-0.5,0.8-1,1.7-1.5,2.7l-0.2,0.3
		c-2.2,3.7-2.5,7.3-1,10.3s4.3,5.3,7.6,6.3l0,0l3.3,1l15.6,4.7c0.5,0.2,1.2,0.3,1.7,0.5c2.7,0.8,5.8,1.8,9.1,1.8
		c2.8,0,5.3-0.7,7.5-2.2c4.8-3.2,7.1-10.3,6.3-15.1c-0.7-4-1.7-8.3-4.7-11.8c-4-5-9.8-7-13-7.8c0,0-0.2,0-0.5-0.2
		c2.5-5.5,3.3-11,2.7-16.6l-0.3-2.7V291c-2.3-18.1-6.5-32.4-19.3-43.2C195.8,246.2,193.3,245.3,190.6,245.3L190.6,245.3z"/>
	<path style="fill:#FFFFFF;" d="M188.3,250c2.3-0.8,4.8-0.3,6.8,1.3c12.8,10.6,15.9,25.4,18.1,43.2l-0.8,4.7l-13.6-0.3l-0.3-2.7
		c-1.8-13.6-3-24.9-12.6-32.7c-2.2-1.8-3.2-4.3-2.7-7C183.8,253.5,185.8,251,188.3,250z"/>
	<path style="fill-rule:evenodd;clip-rule:evenodd;fill:#00A2FC;" d="M190.1,318.4L190.1,318.4c1.8-6.3,7.8-13.8,8.3-22.4l-0.3-2.8
		l14.8-1.3l0.3,2.7c0.8,6.6-0.8,12.8-5,19.3c0.2-0.2,5.3,1,6.1,1.2c4,1,8,3.2,10.6,6.3c2.3,2.8,3,6.5,3.7,10s-1.2,8.6-4.3,10.6
		c-4.7,3-10.1,0.7-14.8-0.7l-15.6-4.7l-3.3-1c-2-0.7-4.2-2.2-5-4.2c-1-2-0.2-4.5,0.8-6.3c0.7-1,1.2-2,1.8-3
		C188.5,321.6,189.8,318.6,190.1,318.4z"/>
	<g>
		<g>
			<g>
				<g>
					<g>
						<g>
							<path style="fill:#FFFFFF;" d="M171.2,48.7c-1.7,1.2-3.2,2.5-4.5,4.2c-1.2,1.3-2.2,3-3.2,4.5c-3,5-4.5,18.4,2.8,20.8
								c5.3,1.7,6.5-7.8,8-11c3.5-7.3,13.1-4,18.6-1.2c4.5,2.3,10,0.5,12.3-4s0.5-10.3-4-12.6c-5.6-2.8-12-4.8-18.3-4.5
								C178.3,44.9,174.5,46.2,171.2,48.7z"/>
							<path d="M184.3,45.2c6,0,11.8,1.8,16.9,4.5c4.5,2.3,6.3,7.8,4,12.5c-1.7,3.2-4.8,5-8.1,5c-1.3,0-2.8-0.3-4.2-1
								c-3-1.5-7.3-3.2-11.1-3.2c-3.2,0-6,1.2-7.6,4.3c-1.5,2.8-2.5,11-6.6,11c-0.3,0-0.8,0-1.2-0.2c-7.5-2.3-5.8-15.4-2.8-20.4
								c1-1.5,2-3.2,3.2-4.5c1.5-1.7,3-3,4.5-4.2c3.3-2.5,7.1-3.7,11.8-4C183.5,45.2,184,45.2,184.3,45.2 M184.3,40.9
								c-0.5,0-1,0-1.5,0c-5.5,0.3-10.1,1.8-14.1,4.8c-1.8,1.3-3.5,2.8-5.3,4.8c-1.2,1.3-2.3,3-3.7,5.1c-2.7,4.7-4.2,13.5-1.8,19.6
								c1.3,3.7,3.8,6,7.1,7.1c0.8,0.3,1.7,0.3,2.5,0.3c6.3,0,8.5-6.8,9.8-11c0.3-1,0.7-2,0.8-2.5c0.5-1,1.3-2,3.8-2s5.8,1,9.1,2.7
								c1.8,1,4,1.5,6.1,1.5c5.1,0,9.8-2.8,12-7.5c3.3-6.6,0.7-14.8-5.8-18.1C196.8,42.5,190.5,40.9,184.3,40.9L184.3,40.9z"/>
						</g>
					</g>
				</g>
			</g>
			<g>
				<g>
					<path style="fill:#6E2E00;" d="M189.6,60.6c0.7-0.5,1.3-0.5,2-0.5c-1-0.2-1.8-0.7-2.3-1.5c-1.2-1.7-0.7-4,1-5.3
						c0.8-0.5,1.7-0.7,2.5-0.5c-0.8-0.2-1.5-0.7-2-1.5c-1.2-1.7-0.7-4,1-5.3c0.2-0.2,0.3-0.2,0.5-0.2c4.7,1.3,8.1,3,9,3.5
						c4.5,2.3,6.3,8,4,12.6c-2.3,4.5-7.8,6.5-12.3,4c-1.3-0.7-3-1.3-4.8-1.8C188,63,188.5,61.5,189.6,60.6"/>
				</g>
			</g>
		</g>
	</g>
	<g>
		<g>
			<g>
				<g>
					<g>
						<g>
							<path style="fill:#FFFFFF;" d="M114.7,61.8c1.8,0.7,3.7,1.5,5.6,2.7c1.5,1,3,2.2,4.3,3.3c4.3,3.8,9.8,16.1,3.5,20.6
								c-4.7,3.3-8.5-5.5-10.8-8c-5.5-5.8-13.6,0.2-18.1,4.5c-3.7,3.7-9.5,3.5-13-0.2s-3.5-9.6,0-13.3c4.5-4.5,9.8-8.3,15.9-10
								C106.8,60.5,110.7,60.5,114.7,61.8z"/>
							<path d="M108.4,61.3c2.2,0,4.3,0.3,6.3,1c1.8,0.7,3.7,1.5,5.6,2.7c1.5,1,3,2.2,4.3,3.3c4.3,3.8,9.8,15.8,3.5,20.3
								c-0.7,0.5-1.3,0.7-2.2,0.7c-3.7,0-6.8-6.5-8.8-8.6c-1.7-1.7-3.5-2.3-5.5-2.3c-4.7,0-9.6,3.8-12.8,7c-1.8,1.8-4.2,2.7-6.5,2.7
								s-4.8-1-6.5-2.8c-3.5-3.7-3.5-9.5,0-13.1c4.5-4.5,9.8-8.1,15.9-9.8C104.4,61.5,106.4,61.3,108.4,61.3 M108.4,57
								c-2.3,0-4.8,0.3-7.3,1c-6.3,1.7-12.3,5.5-17.9,11c-5.1,5.3-5.3,13.8,0,19.1c2.5,2.7,6,4,9.6,4c3.5,0,7-1.3,9.5-3.8
								c3.5-3.5,7.3-5.6,9.8-5.6c1,0,1.7,0.3,2.3,1c0.3,0.3,1,1.3,1.5,2.2c2.3,3.3,5.5,7.8,10.3,7.8c1.7,0,3.2-0.5,4.7-1.5
								c2.8-2,4.5-5.1,4.7-9c0.3-6.6-3.8-14.4-7.8-18.1c-1.8-1.7-3.5-2.8-5-3.8c-2.2-1.3-4.3-2.3-6.5-3
								C113.4,57.3,110.9,57,108.4,57L108.4,57z"/>
						</g>
					</g>
				</g>
			</g>
			<g>
				<g>
					<path style="fill:#6E2E00;" d="M100.6,79.2c-0.7-0.2-1.5-0.2-2.2,0c0.8-0.5,1.5-1.2,1.8-2.2c0.5-2-0.5-4-2.5-4.8
						c-0.8-0.3-1.8-0.2-2.7,0.2c0.7-0.5,1.3-1.2,1.5-2c0.5-2-0.5-4-2.5-4.8c-0.2,0-0.3,0-0.5,0c-4.2,2.7-7,5.6-7.6,6.1
						c-3.7,3.7-3.7,9.6,0,13.3c3.5,3.7,9.5,3.7,13.1,0.2c1-1,2.5-2.2,4-3.3C102.9,80.9,101.9,79.6,100.6,79.2"/>
				</g>
			</g>
		</g>
	</g>
	<g>
		<g>
			<g>
				<g>
					<g>
						<path style="fill-rule:evenodd;clip-rule:evenodd;fill:#00A2FC;" d="M225.3,260.4c1.8-1.3,3.8-2.7,5.6-4.2l3.7-3l-0.7-1.2
							l0.8,1c1.8-1.5,3.7-3,5.3-4.7c17.4-16.8,24.1-34.7,19.3-52c-4.5-16.1-15.8-27.7-25.2-36.4c-1.8-1.7-4.2-3.3-6.5-5.1
							c-1.7-1.2-3.3-2.5-5-3.8c0.2-1.2,0.3-2.3,0.5-3.5c0.3-1.7,0.7-3.3,0.7-5c1.2-14.1-1.5-27.6-7.8-40.4
							c-6.1-12.5-15.3-21.9-24.7-26.2c-15.4-7.1-31.9-9.3-45.5-5.6l-4.8,1.2c-5.8,1.5-11.6,4.2-17.4,8c-7.3,4.8-14.1,11.5-19.8,18.8
							c-6.3,8.5-9.8,21.1-9.5,35c0.3,14.9,4.7,28.2,13.1,41c4.3,6.3,8.6,13.8,13.5,22.3l0.8,1.5c2.8,5,5.6,10,7.6,15.3
							c0.2,0.8,0.5,1.7,0.8,2.3l0.7,1.7c1.3,3.5,2.7,7,4.2,10.3c3.5,8.3,7.3,15.3,11.5,21.1c6.8,9.5,18.9,20.3,31.1,23.3
							c13.8,3.3,30.6-0.7,46.2-11L225.3,260.4z"/>
						<path d="M159.4,70.1c10.1,0,21.3,2.5,31.9,7.3c9.5,4.3,18.6,13.8,24.7,26.1c6.5,12.6,9,26.1,7.8,40c-0.2,1.7-0.5,3.3-0.7,5
							c-0.2,1.2-0.3,2.3-0.5,3.5c1.7,1.3,3.3,2.5,5,3.8c2.3,1.7,4.5,3.3,6.5,5.1c9.3,8.5,20.8,20.3,25.2,36
							c4.8,17.1-1.8,34.9-19.3,51.5c-1.7,1.7-3.5,3.2-5.3,4.7l-0.8-1l0.7,1.2l-3.7,3c-1.8,1.5-3.8,3-5.6,4.2l-1.2,0.7
							c-12,7.8-24.6,12-36,12c-3.5,0-6.8-0.3-10-1.2c-12.1-2.8-24.4-13.6-31.1-23.1c-4.2-5.8-8-12.8-11.5-20.9
							c-1.5-3.3-2.8-6.8-4.2-10.1l-0.7-1.7c-0.3-0.7-0.5-1.5-0.8-2.3c-2.2-5.3-4.8-10.1-7.6-15.1l-1.2-1.7
							c-4.8-8.5-9.3-15.6-13.5-22.1c-8.2-12.7-12.5-26-12.9-40.8c-0.3-13.6,3.2-26.4,9.5-34.7c5.6-7.5,12.5-14,19.8-18.6
							c5.6-3.8,11.6-6.3,17.4-7.8l4.8-1.2C150.3,70.8,154.8,70.1,159.4,70.1 M159.4,65.9c-5.1,0-10,0.7-14.4,1.7l-4.8,1.2
							c-6.3,1.5-12.6,4.5-18.8,8.5c-7.6,5-14.9,11.8-20.9,19.6c-7,9.1-10.6,22.8-10.3,37.4c0.3,15.6,5,29.7,13.8,43
							c4.2,6.3,8.6,13.5,13.3,21.8l0.8,1.5c2.8,4.8,5.3,9.3,7.3,14.3c0.2,1,0.5,1.8,0.8,2.7l0.7,1.7c1.3,3.3,2.7,6.8,4.2,10.3
							c3.5,8.5,7.5,15.8,12,21.8c7.3,10,20.4,21.6,33.6,24.7c3.5,0.8,7.1,1.2,11,1.2c12.3,0,26.1-4.5,38.5-12.6l1.2-0.8
							c2-1.3,4.2-2.8,6-4.5l3.7-3l0,0l0.2-0.2c1.8-1.5,3.8-3.2,5.5-4.8c18.6-17.8,25.7-37,20.4-55.8c-4.8-16.9-16.6-29.2-26.4-38.2
							c-2-1.8-4.3-3.5-6.8-5.3c-1-0.7-1.8-1.3-2.8-2.2c0-0.3,0.2-0.5,0.2-0.8c0.3-1.7,0.7-3.7,0.8-5.5c1.3-14.8-1.5-28.9-8.3-42.4
							c-6.6-13.1-16.4-23.3-26.7-27.9C182,68.6,170.4,65.9,159.4,65.9L159.4,65.9z"/>
					</g>
				</g>
			</g>
		</g>
	</g>
	<g>
		<g>
			<g>
				
					<path style="fill-rule:evenodd;clip-rule:evenodd;fill:#FFFFFF;stroke:#000000;stroke-width:1.5;stroke-linecap:round;stroke-linejoin:round;stroke-miterlimit:10;" d="
					M169.7,176.6"/>
			</g>
		</g>
	</g>
	<g>
		<g>
			<g>
				
					<path style="fill-rule:evenodd;clip-rule:evenodd;fill:#FFFFFF;stroke:#000000;stroke-width:1.5;stroke-linecap:round;stroke-linejoin:round;stroke-miterlimit:10;" d="
					M143.5,78.4"/>
			</g>
		</g>
	</g>
	<g>
		<g>
			<path style="fill-rule:evenodd;clip-rule:evenodd;fill:#00A2FC;" d="M116.7,184.5c-1.3-3.8-6.1-7.5-8.3-10.8
				c-8.1-12.5-12.3-25.2-12.5-40.2c-0.2-11.5,2.5-24.6,9.5-33.7c9.1-11.8,22.3-22.3,36.7-25.6c0,0,0.2,0,0.3,0h-0.3l4.7-1.2
				c0.2,0,0.3,0,0.3,0c14.4-3.5,30.9-0.2,44.3,6.1c10.5,5,18.8,15.4,23.8,25.7c6.1,12.3,8.6,25.7,7.3,39.4c-0.3,4-1.8,8.6-1.7,12.6
				l-50.3,29.4L116.7,184.5z"/>
		</g>
	</g>
	<g>
		<g>
			<g>
				<path style="fill-rule:evenodd;clip-rule:evenodd;fill:#FFFFFF;" d="M201.9,163.3c9.1-6,14.9-14.1,16.8-23.6
					c1.2-6,0.3-12.6-2.2-18.9c-2.7-6.5-4.2-9.1-9.1-13.5c-1.3-1.2-1.8-3.3-2.5-5.3c-0.3-1.2-0.7-2.3-1.2-3.5
					c-1.8-4-4.2-7.5-6.8-10.3c-6-6.3-14.3-10.6-24.4-12.3c-3.5-0.7-7.3-0.8-11.1-0.8c-7.1,0-16.6,1.8-23.4,4.5
					c-4.3,1.7-8.5,3.8-12.3,6.3c-1,0.7-2,1.3-2.8,2c-6.8,5.1-15.6,13.1-18.3,22.6c-1.2,3.8-1.5,8-1.3,12.3c0,1.2,0.3,2.3,0.5,3.5
					c0.5,2.2,0.8,4.3,0.2,5.8c-2.3,6-2.5,9.1-2,16.1c0.5,6.8,3,13.1,6.6,17.9c9,11.5,25.1,16.1,43,12.5l6.1-1.3
					c10.1-2.2,19.9-4.7,28.2-7C191.8,168.8,197.3,166.3,201.9,163.3z"/>
			</g>
		</g>
	</g>
	<g>
		<g>
			<g>
				<path style="fill-rule:evenodd;clip-rule:evenodd;fill:#FFBBB7;" d="M181.8,131.6c2,8.5,10.5,13.6,18.9,11.6
					c8.5-2,13.6-10.5,11.5-18.9c-2-8.5-10.5-13.6-18.9-11.6C184.8,114.6,179.8,123.2,181.8,131.6"/>
			</g>
		</g>
		<g>
			<g>
				<path style="fill-rule:evenodd;clip-rule:evenodd;fill:#FFBBB7;" d="M107.6,149.5c2,8.5,10.5,13.6,18.9,11.6
					c8.3-2,13.5-10.5,11.5-18.9s-10.5-13.6-18.9-11.6C110.7,132.5,105.6,141,107.6,149.5"/>
			</g>
		</g>
	</g>
	<g>
		<g>
			<g>
				<g>
					<path style="fill-rule:evenodd;clip-rule:evenodd;" d="M156.1,132.5c0.3,1.2,1.7,1.7,3.2,1.3c1.5-0.3,2.5-1.5,2.2-2.7
						s-1.7-1.7-3.2-1.3C156.7,130.4,155.9,131.6,156.1,132.5"/>
				</g>
			</g>
		</g>
	</g>
	<g>
		<g>
			<path style="fill:none;stroke:#712500;stroke-linecap:round;stroke-linejoin:round;stroke-miterlimit:10;" d="M131.2,85.2"/>
		</g>
	</g>
	<path style="fill:#E73841;" d="M153.4,143.2c0,0,2.2,10.5,8.5,9.3c6.3-1,5.6-11.6,5.6-11.6"/>
	<path d="M161.1,154c-6.6,0-9-10.1-9-10.6c-0.2-0.8,0.3-1.5,1.2-1.7c0.8-0.2,1.5,0.3,1.7,1.2c0,0.2,2,9.1,7,8.3s4.5-10,4.5-10.1
		c0-0.8,0.5-1.5,1.3-1.5s1.5,0.5,1.5,1.3c0,0.5,0.7,11.8-6.8,13.1C161.9,154,161.4,154,161.1,154z"/>
	<path d="M153.6,144.7c-0.3,0-0.5,0-0.8,0c-3.5-0.3-5.3-3.3-5.5-3.3c-0.5-0.7-0.2-1.5,0.5-2s1.5-0.2,2,0.5c0,0,1.3,1.8,3.3,2.2
		c2,0.2,4.2-0.8,6.5-3.2c0.5-0.5,1.2-0.5,1.8-0.2c0,0,2.8,1.8,5.5,1.2c1.5-0.3,2.8-1.7,3.8-3.7c0.3-0.7,1.2-1,2-0.7
		c0.7,0.3,1,1.2,0.7,2c-1.3,2.8-3.3,4.5-5.8,5.1c-2.8,0.7-5.5-0.3-6.8-1C158.2,143.5,155.9,144.7,153.6,144.7z"/>
	<path d="M143.6,138.2c-0.5,0-1,0-1.5-0.2c-2.3-0.5-4.3-1.8-5.3-3.5c-1.3-2.3-1.5-4.8-0.7-7.1c0-0.2,2-5.8,7-6
		c0.8,0,1.5,0.5,1.5,1.3s-0.5,1.5-1.3,1.5c-3,0.2-4.3,4.2-4.3,4.2c-0.8,1.8-0.2,3.5,0.5,4.7c0.7,1,1.8,1.8,3.3,2.2s2.8,0,3.7-0.8
		c1-0.8,1.7-2,1.7-3.3c0.2-1-0.2-2-0.8-2.7c-1-1.2-2.2-0.8-2.7-0.7c-0.8,0.3-1.8,1-1.8,2.3c0,0.3,0.2,0.8,0.5,1s0.5,0.2,0.5,0.2
		c-0.2-0.8,0.3-1.7,1.2-1.8c0.8-0.2,1.5,0.2,1.7,1c0.3,1.3-0.3,2.7-1.3,3.3c-1.2,0.7-2.7,0.3-3.8-0.7c-1-0.8-1.3-2-1.3-3.3
		c0-2.2,1.5-4.2,3.7-4.8c2.2-0.8,4.3-0.2,5.8,1.5c1.2,1.3,1.7,3,1.5,4.8c-0.2,2-1.2,4-2.8,5.3C146.8,137.7,145.3,138.2,143.6,138.2z
		"/>
	<path d="M173.2,133.5c-0.5,0-1,0-1.5-0.2c-2.3-0.5-4.3-1.8-5.3-3.5c-1.3-2.3-1.5-4.8-0.7-7.1c0-0.2,2-5.8,7-6
		c0.8,0,1.5,0.5,1.5,1.3s-0.5,1.5-1.3,1.5c-3,0.2-4.3,4.2-4.3,4.2c-0.8,1.8-0.2,3.5,0.5,4.7c0.7,1,1.8,1.8,3.3,2.2s2.8,0,3.7-0.8
		c1-0.8,1.7-2,1.7-3.3c0.2-1-0.2-2-0.8-2.7c-1-1.2-2.2-0.8-2.7-0.7c-0.8,0.3-1.8,1-1.8,2.3c0,0.3,0.2,0.8,0.5,1
		c0.2,0.2,0.3,0.3,0.5,0.2c-0.2-0.8,0.3-1.7,1.2-1.8c0.8-0.2,1.5,0.2,1.7,1c0.3,1.3-0.3,2.7-1.3,3.3c-1.2,0.7-2.7,0.3-3.8-0.7
		c-1-0.8-1.5-2-1.3-3.3c0-2.2,1.5-4.2,3.7-4.8c2.2-0.8,4.3-0.2,5.8,1.5c1.2,1.3,1.7,3,1.5,4.8c-0.2,2-1.2,4-2.8,5.3
		C176.5,133,174.9,133.5,173.2,133.5z"/>
</g>
</svg>
