<?xml version="1.0" encoding="utf-8"?>
<!-- Generator: Adobe Illustrator 24.1.3, SVG Export Plug-In . SVG Version: 6.00 Build 0)  -->
<svg version="1.1" id="Layer_1" xmlns="http://www.w3.org/2000/svg" xmlns:xlink="http://www.w3.org/1999/xlink" x="0px" y="0px"
	 viewBox="0 0 120 280" style="enable-background:new 0 0 120 280;" xml:space="preserve">
<g>
	<g>
		<g>
			<g>
				<g>
					<g>
						<polygon style="fill:#FF8891;" points="60,34.8 47.4,38 46.1,29.3 57.7,26.2 						"/>
						<g>
							<path style="fill:#FF6679;" d="M57.7,26.2L57.7,26.2c-1.3,2.3-2.1,3.4-4,4.5c-2.2,1.3-5.4,1.2-7.3,0.8l-0.3-2.2L57.7,26.2z"
								/>
						</g>
						<g>
							<circle style="fill:#FF8891;" cx="50.6" cy="18.9" r="12.1"/>
						</g>
						<circle style="fill:#181F41;" cx="40.3" cy="18.7" r="0.6"/>
						<g>
							<path style="fill:#181F41;" d="M40.6,25.3c-0.1,0-0.2,0-0.2,0c-0.2,0-0.4-0.2-0.4-0.4c0-0.2,0.2-0.4,0.4-0.4
								c0.1,0,2.1,0.1,3.3-1c0.2-0.2,0.4-0.1,0.6,0c0.2,0.2,0.1,0.4,0,0.6C43.1,25.2,41.2,25.3,40.6,25.3z"/>
						</g>
						<g>
							<path style="fill:#181F41;" d="M42.3,17.7c-0.1,0-0.2,0-0.3-0.1c-0.9-0.7-2-0.9-2.7-0.5c-0.2,0.1-0.5,0-0.6-0.2
								c-0.1-0.2,0-0.5,0.2-0.6c1.1-0.5,2.5-0.3,3.6,0.6c0.2,0.1,0.2,0.4,0.1,0.6C42.5,17.7,42.4,17.7,42.3,17.7z"/>
						</g>
					</g>
					<path style="fill:#DA478F;" d="M61.2,14.1c0.6,0.7,0.8,1.4,1.3,2.5c3.4,2,3.7,6.7,5.4,10.2c-3.4,0.6-5.7,0-5.7,0
						s0.4,1.9,0.8,3.7c-4.7-0.6-9.8-4.7-9.7-6.8c-1.4-2.9-2.4-2.4-3.2-12.2"/>
					<g>
						<path style="fill:#DA478F;" d="M48.6,15.9C37.9,16,35.7,8.3,35.3,7.1c11.8-1.9,13.6-7,21-2.4c10,0.9,5,5.7,9.2,15.7"/>
					</g>
					<g>
						<path style="fill:#DA478F;" d="M45.4,13.7c0,3.9,0.2,6.1,4.8,8.9c0.2-2.9,1.1-6.7,3.7-8.5"/>
					</g>
					<path style="fill:#DA478F;" d="M62.3,12.7c2.7,1.1,6,1.8,8.8,1.1c-2.5-1.1-5.7-4.2-7.5-6.2c-1.2-1.3-5.7-7.1-8.7-1.1"/>
					<path style="fill:#DA478F;" d="M61.4,21c2.8,2,7.2,2,10.6,0.3c-2.4-4-5.5-6.4-7-9.1c-1-1.8-4.7-9.7-9.7-3.6"/>
					
						<ellipse transform="matrix(0.9903 -0.1388 0.1388 0.9903 -2.1621 7.7632)" style="fill:#FF8891;" cx="54.6" cy="19.4" rx="3.7" ry="4.5"/>
					<g>
						<path style="fill:#181F41;" d="M53,19.1C53,19.1,53,19.1,53,19.1c-0.2,0-0.4-0.2-0.4-0.4c0-0.7,0.5-1.4,1.2-1.7
							c0.9-0.4,2,0,2.4,0.9c0.1,0.2,0,0.5-0.2,0.6c-0.2,0.1-0.5,0-0.6-0.2c-0.2-0.5-0.8-0.7-1.3-0.5c-0.4,0.2-0.6,0.5-0.6,0.9
							C53.5,19,53.3,19.1,53,19.1z"/>
					</g>
				</g>
			</g>
		</g>
		<g>
			<path style="fill:#EFEFEF;" d="M51.5,260.4c1.4,8.4,0.5,17.8,0.5,17.8H4.7v-4.8c0-2.1,1.1-4.1,2.9-5.2l12.6-7.9
				c0,0,9-6.3,18.8-6.3S51.5,260.4,51.5,260.4z"/>
			<g>
				<defs>
					<path id="SVGID_1_" d="M51.5,260.4c1.4,8.4,0.5,17.8,0.5,17.8H4.7v-4.8c0-2.1,1.1-4.1,2.9-5.2l12.6-7.9c0,0,9-6.3,18.8-6.3
						S51.5,260.4,51.5,260.4z"/>
				</defs>
				<clipPath id="SVGID_2_">
					<use xlink:href="#SVGID_1_"  style="overflow:visible;"/>
				</clipPath>
				<g style="clip-path:url(#SVGID_2_);">
					<g>
						<path style="fill:#181F41;" d="M16.2,269.8c-0.1,0-0.3-0.1-0.3-0.2l-6-8.5c-0.1-0.2-0.1-0.5,0.1-0.6c0.2-0.1,0.5-0.1,0.6,0.1
							l6,8.5c0.1,0.2,0.1,0.5-0.1,0.6C16.4,269.8,16.3,269.8,16.2,269.8z"/>
					</g>
					<g>
						<path style="fill:#181F41;" d="M21,267.2c-0.1,0-0.3-0.1-0.3-0.2l-6-8.5c-0.1-0.2-0.1-0.5,0.1-0.6c0.2-0.1,0.5-0.1,0.6,0.1
							l6,8.5c0.1,0.2,0.1,0.5-0.1,0.6C21.2,267.2,21.1,267.2,21,267.2z"/>
					</g>
					<g>
						<path style="fill:#181F41;" d="M63.3,274.4H-4.5c-0.2,0-0.4-0.2-0.4-0.4c0-0.2,0.2-0.4,0.4-0.4h67.8c0.2,0,0.4,0.2,0.4,0.4
							C63.8,274.2,63.6,274.4,63.3,274.4z"/>
					</g>
					<g>
						<path style="fill:#181F41;" d="M25.8,264.7c-0.1,0-0.3-0.1-0.3-0.2l-6-8.5c-0.1-0.2-0.1-0.5,0.1-0.6c0.2-0.1,0.5-0.1,0.6,0.1
							l6,8.5c0.1,0.2,0.1,0.5-0.1,0.6C25.9,264.6,25.8,264.7,25.8,264.7z"/>
					</g>
				</g>
			</g>
		</g>
		<g>
			<path style="fill:#EFEFEF;" d="M107.8,242.7c4.7,7.1,7.6,16.1,7.6,16.1L72.2,278l-1.9-4.4c-0.9-1.9-0.7-4.2,0.5-5.9l8.3-12.3
				c0,0,5.7-9.4,14.7-13.4S107.8,242.7,107.8,242.7z"/>
			<g>
				<defs>
					<path id="SVGID_3_" d="M107.8,242.7c4.7,7.1,7.6,16.1,7.6,16.1L72.2,278l-1.9-4.4c-0.9-1.9-0.7-4.2,0.5-5.9l8.3-12.3
						c0,0,5.7-9.4,14.7-13.4S107.8,242.7,107.8,242.7z"/>
				</defs>
				<clipPath id="SVGID_4_">
					<use xlink:href="#SVGID_3_"  style="overflow:visible;"/>
				</clipPath>
				<g style="clip-path:url(#SVGID_4_);">
					<g>
						<path style="fill:#181F41;" d="M79.2,265.7c-0.1,0-0.1,0-0.2-0.1l-9-5.4c-0.2-0.1-0.3-0.4-0.1-0.6c0.1-0.2,0.4-0.3,0.6-0.1
							l9,5.4c0.2,0.1,0.3,0.4,0.1,0.6C79.5,265.6,79.3,265.7,79.2,265.7z"/>
					</g>
					<g>
						<path style="fill:#181F41;" d="M82.5,261.4c-0.1,0-0.1,0-0.2-0.1l-9-5.4c-0.2-0.1-0.3-0.4-0.1-0.6c0.1-0.2,0.4-0.3,0.6-0.1
							l9,5.4c0.2,0.1,0.3,0.4,0.1,0.6C82.8,261.3,82.6,261.4,82.5,261.4z"/>
					</g>
					<g>
						<path style="fill:#181F41;" d="M62.1,278.2c-0.2,0-0.3-0.1-0.4-0.3c-0.1-0.2,0-0.5,0.2-0.6l62-27.4c0.2-0.1,0.5,0,0.6,0.2
							c0.1,0.2,0,0.5-0.2,0.6l-62,27.4C62.2,278.2,62.1,278.2,62.1,278.2z"/>
					</g>
					<g>
						<path style="fill:#181F41;" d="M85.8,257.1c-0.1,0-0.1,0-0.2-0.1l-9-5.4c-0.2-0.1-0.3-0.4-0.1-0.6c0.1-0.2,0.4-0.3,0.6-0.1
							l9,5.4c0.2,0.1,0.3,0.4,0.1,0.6C86.1,257.1,85.9,257.1,85.8,257.1z"/>
					</g>
				</g>
			</g>
		</g>
		<polyline style="fill:#181F41;" points="74.6,103.7 74.3,180.2 112.1,250.5 78.2,256.8 44.1,191.2 43.3,103.7 		"/>
		<polyline style="fill:#181F41;" points="73.3,109.1 52.3,271.3 20.2,260.4 42,109.1 		"/>
		<g>
			<path style="fill:#354686;" d="M59.3,217.4C59.3,217.4,59.3,217.4,59.3,217.4c-0.3,0-0.4-0.2-0.4-0.5l11.6-89.9
				c0-0.2,0.2-0.4,0.5-0.4c0.2,0,0.4,0.2,0.4,0.5l-11.6,89.9C59.7,217.3,59.5,217.4,59.3,217.4z"/>
		</g>
		<g>
			<path style="fill:#FF8891;" d="M32.4,72.2c0,0-7.3,7.8-5.5,10.4c2.9,4.3,6.9,5.5,10.3,4.9c3.1-0.6,7-3.6,11.8-11.9
				c1.4-5.5,5-10.3,9.3-20.1l-12.8-9.4L32.4,72.2z"/>
			<path style="fill:#5442E5;" d="M38,68.3c1.6,1.1,3.1,2.1,4.7,3.1c1.6,1.1,3.3,2.1,4.9,3.2c0.4,0.3,0.9,0.6,1.3,0.9
				c2.5-4.7,5.4-11.2,9.3-20.1l-12.8-9.4L35.2,66.5C36.2,67.1,37,67.6,38,68.3z"/>
			<path style="fill:#FF8891;" d="M38.1,72.8c0,0-6.3,14.9-9.7,11.5c-5.5-5.5-9.8-18.7-12.7-25.8c2.4-1.2,7.8-3.5,11.2-4.5
				C29.7,59.6,38.1,72.8,38.1,72.8z"/>
			<g>
				<path style="fill:#FF8891;" d="M14.6,41.4c0,0-2.4,0.5-3.1,2.4c-1,2.7,0.3,7.5,2.4,11.8c1.5,2.9,2.5,4.6,5.3,4.7
					c3.2,0.1,6-2.2,6.1-4.3c0.1-1.4-4.1-8.1-8.4-7.5l-2.1-3.1L14.6,41.4z"/>
				<path style="fill:#FF8891;" d="M24.2,47.6c0.4-1.7,1.3-4.5,1.6-4.8c0.3-0.5,0.8-0.9,1.3-1.2c0.9-0.4,2.2-0.2,2.5,0.8
					c0.2,0.7,0.1,1.4-0.2,2.4c-0.5,2.2-1,3.5-1.5,5.7c-0.4,1.8-0.7,6.5-4.1,7.7l-1.2-5.6"/>
				<g>
					<path style="fill:#181F41;" d="M24.7,58.7c-0.1,0-0.3-0.1-0.3-0.2c-0.1-0.2-0.1-0.4,0.1-0.6c1.1-0.9,1.9-2,2-2.8
						c0-0.2,0.2-0.4,0.5-0.4c0.2,0,0.4,0.2,0.4,0.5c-0.1,1.1-1,2.4-2.4,3.4C24.9,58.6,24.8,58.7,24.7,58.7z"/>
				</g>
				<g>
					<path style="fill:#181F41;" d="M27.7,47.2C27.7,47.2,27.7,47.2,27.7,47.2c-1.5-0.2-2.9-1.2-3.2-1.5c-0.2-0.2-0.1-0.4,0-0.6
						c0.2-0.2,0.4-0.1,0.6,0c0.2,0.2,1.4,1.1,2.7,1.3c0.2,0,0.4,0.2,0.4,0.5C28.1,47.1,27.9,47.2,27.7,47.2z"/>
				</g>
				<g>
					<path style="fill:#181F41;" d="M28.6,52.3l-0.2,0.1l-6-19.2c-0.2-0.5-0.6-0.8-1.1-0.8L13.9,32l-0.6-1.3c-1.3,0-1.8,1.4-1.8,2
						c0,0,0,0,0,0c0,0.1,0,0.1,0,0.2l6.8,22c0.2,0.5,0.6,0.8,1.1,0.8l9,0.4c0,0,0.1,0,0.1,0c0,0,0,0,0,0c0.8,0,1.6-1,1.6-2
						C30.3,53.6,28.6,52.3,28.6,52.3z"/>
					<path style="fill:#FFB83B;" d="M29.4,54.9l-9-0.4c-0.5,0-0.9-0.4-1.1-0.8l-6.8-22c-0.2-0.5,0.2-1,0.8-1l9,0.4
						c0.5,0,0.9,0.4,1.1,0.8l6.8,22C30.4,54.4,30,54.9,29.4,54.9z"/>
					<g>
						<path style="fill:#FFFFFF;" d="M22.7,32.2c-0.1-0.2-0.2-0.3-0.4-0.3c0,0,0,0-0.1,0l-9-0.4c0,0,0,0,0,0c0,0,0,0,0,0L14,34
							l9.4,0.4L22.7,32.2z"/>
						<path style="fill:#FFFFFF;" d="M27,45.9l-9.4-0.4l2.4,7.9c0.1,0.2,0.2,0.3,0.4,0.3c0,0,0,0,0.1,0l9,0.4c0,0,0,0,0,0
							c0,0,0,0,0,0L27,45.9z"/>
						<polygon style="fill:#78AFFF;" points="23.4,34.4 14,34 17.6,45.5 27,45.9 						"/>
						<g>
							<defs>
								<polygon id="SVGID_5_" points="23.4,34.4 14,34 17.6,45.5 27,45.9 								"/>
							</defs>
							<clipPath id="SVGID_6_">
								<use xlink:href="#SVGID_5_"  style="overflow:visible;"/>
							</clipPath>
							<g style="clip-path:url(#SVGID_6_);">
								<path style="fill:#FFFFFF;" d="M21.7,36.3c-0.1,0-0.2,0-0.3,0.1c-0.3-0.5-0.8-0.8-1.3-0.8c-0.2,0-0.3,0-0.4,0.1
									c-0.4-0.6-1.1-1-1.7-1c-0.7,0-1.2,0.4-1.2,1c-0.1,0-0.2-0.1-0.4-0.1c-0.6,0-0.9,0.4-0.7,1l6.6,0.4
									C22.3,36.6,22,36.3,21.7,36.3z"/>
							</g>
							<g style="clip-path:url(#SVGID_6_);">
								<path style="fill:#678EF6;" d="M23.4,37.1c-2.4-0.9-3.4,1.3-3.5,2.3c0.2-0.4,0.5-0.8,0.9-1.1c0,0.3,0,0.5,0.1,0.8
									c0.2-0.3,0.3-0.7,0.5-1c0.1,0.2,0,0.5,0.2,0.7c0.2-0.3,0.4-0.7,0.6-1c0.1,0.2,0,0.3,0.1,0.5C22.2,38,23.1,37.3,23.4,37.1"/>
								<path style="fill:#678EF6;" d="M23.5,36.9c0.3-0.2,0.3-0.7,0.3-1.1c0-0.5-0.3-0.9-0.8-1c-0.4-0.1-0.9,0-1.3,0.2
									c-0.3,0.1-0.4,0.4-0.7,0.5c0.4-0.2,0.9-0.3,1.4-0.3c-0.3,0.1-0.6,0.2-0.7,0.5c0.3,0,0.7,0,1.1,0c-0.3,0.1-0.5,0.3-0.8,0.5
									c0.3,0,0.5,0,0.8,0c-0.1,0.1-0.2,0.3-0.3,0.4c0.2,0,0.5-0.1,0.7-0.1c-0.1,0.1-0.4,0.4-0.3,0.5
									C22.9,36.9,23.4,36.9,23.5,36.9z"/>
								<path style="fill:#678EF6;" d="M23.1,37c0.9-2.4,3.2-1.7,4-1.1c-0.5-0.1-0.9-0.1-1.4-0.1c0.2,0.2,0.4,0.4,0.6,0.6
									c-0.3,0-0.7-0.2-1-0.3c0.1,0.2,0.4,0.4,0.4,0.6c-0.3,0-0.8-0.1-1.1-0.2c0.1,0.2,0.2,0.2,0.3,0.4c-0.2-0.1-0.9,0-1.2,0.4
									C23.3,37,23.3,37.1,23.1,37"/>
								<path style="fill:#678EF6;" d="M23.4,37.1c2.3-0.9,3.4,1.2,3.6,2.1c-0.3-0.4-0.6-0.8-0.9-1.1c0,0.3,0,0.5,0,0.8
									c-0.2-0.3-0.3-0.7-0.5-1c-0.1,0.2,0,0.5-0.1,0.7c-0.2-0.2-0.4-0.7-0.6-1c-0.1,0.2,0,0.3,0,0.5C24.6,38,23.7,37.3,23.4,37.1"
									/>
								<path style="fill:#678EF6;" d="M23.5,37.1c-1.5-2.5-4.1-2-5-1.6c0.5,0,1.1,0,1.7,0.1c-0.2,0.2-0.4,0.3-0.6,0.5
									c0.4,0,0.8-0.1,1.2-0.2c-0.1,0.2-0.4,0.3-0.4,0.6c0.4,0,0.9-0.1,1.3-0.1c-0.1,0.1-0.3,0.2-0.4,0.4
									C21.7,36.7,23,37,23.5,37.1"/>
								<g>
									<path style="fill:#678EF6;" d="M23.9,39c0.2,0,0.3,0.1,0.4,0.1c-0.1,0-0.3,0-0.4,0.1c0,0.2,0,0.3,0.1,0.5
										c0.2,0,0.5,0.1,0.7,0.1c-0.1-0.5-0.2-1-0.4-1.5c-0.2,0.1-0.4,0.1-0.5,0.2C23.9,38.7,23.9,38.9,23.9,39z"/>
									<path style="fill:#678EF6;" d="M24.8,40.2c0-0.1-0.1-0.3-0.1-0.4c-0.2,0-0.5,0-0.7,0c0,0.1,0,0.2,0,0.2
										c0.2,0,0.4,0,0.6,0.1C24.7,40.2,24.8,40.2,24.8,40.2z"/>
									<path style="fill:#678EF6;" d="M24.8,40.4c-0.2,0-0.5,0-0.7,0c0,0-0.1,0-0.1,0c0,0.1,0.1,0.4,0.1,0.4
										c0.3,0.1,0.6,0.1,0.9,0.1C25,40.9,24.9,40.5,24.8,40.4z"/>
									<path style="fill:#678EF6;" d="M24.3,38.2c-0.2-0.6-0.4-1.1-0.6-1.4L23.1,37c0.2,0.2,0.4,0.6,0.6,1.3
										C23.9,38.3,24.1,38.2,24.3,38.2z"/>
									<g>
										<path style="fill:#678EF6;" d="M25,43.8c0-0.3,0-0.6,0-0.9c-0.4,0.1-0.7,0.1-1.1,0.2c0,0.1-0.1,0.7-0.1,0.7
											C24.3,43.8,24.7,43.8,25,43.8z"/>
										<path style="fill:#678EF6;" d="M23.9,44c-0.2,1.8-0.6,3.6-0.8,4l1.8-0.1c0,0,0.1-2.1,0.2-4.1C24.6,43.9,24.2,44,23.9,44z"
											/>
										<path style="fill:#678EF6;" d="M24.1,41.9c0.2,0,0.8-0.2,1-0.3c-0.2,0.1-0.8,0.4-1,0.5c0,0.1,0,0.1,0,0.2
											c0.3,0,0.5,0,0.8,0c-0.2,0-0.5,0.2-0.8,0.3c0,0.1,0,0.1,0,0.2c0.1,0,0.1,0,0.2,0c0.3,0,0.6,0,0.8,0c0-0.8,0-1.4-0.1-1.7
											c-0.3,0-0.6,0-0.9,0C24.1,41.3,24.1,41.6,24.1,41.9z"/>
									</g>
								</g>
							</g>
							<g style="clip-path:url(#SVGID_6_);">
								<path style="fill:#FF8891;" d="M20.9,38.6c-0.4-0.3-0.9-0.3-1.1,0c-0.1,0.1,0,0.3,0,0.4c0.2,0.3,0.6,0.5,0.9,0.4
									C21.1,39.4,21.2,39,20.9,38.6C20.9,38.6,20.9,38.6,20.9,38.6z"/>
								<path style="fill:#5442E5;" d="M21.4,38.8c-0.1,0-0.2-0.1-0.3-0.1c-0.1,0-0.1-0.1-0.2-0.1c-0.1-0.1-0.1-0.3-0.3-0.4
									c-0.1-0.1-0.3-0.1-0.4-0.1c-0.2,0-0.5,0-0.5,0.2c0,0,0,0.1,0,0.1c0,0,0,0.1,0,0.1c0,0,0,0,0,0c0,0-0.1,0-0.1,0.1
									c-0.1,0.1-0.3,0.1-0.4,0.2c-0.1,0,0,0.1,0.1,0.2c0.1,0.1,0.2,0.1,0.3,0.1l1.9,0.1c0.1,0,0.1-0.1,0.1-0.1
									C21.6,38.9,21.5,38.9,21.4,38.8z"/>
								<path style="fill:#FF8891;" d="M20.1,43.8C20,43.4,20,43,19.9,42.6c0-0.1-0.1-0.2-0.2-0.2c0,0,0,0,0,0
									c0-0.1-0.2-0.1-0.3-0.1c0,0-0.1,0-0.1,0c0,0,0,0-0.1,0c0,0,0,0-0.1,0c-0.1,0-0.2,0.1-0.1,0.2c0,0.3,0.1,0.7,0.1,1
									c0,0.3,0.1,0.6,0.2,0.9c0.1,0.2,0.3,0.2,0.4,0.1c0,0,0,0,0,0c0,0,0.1,0,0.1,0c0.1,0,0.1,0,0.2-0.1
									C20.1,44.1,20.1,44,20.1,43.8z"/>
								<path style="fill:#FF8891;" d="M23.4,42.3c-0.1,0-0.2,0-0.3,0c0,0-0.1,0-0.2,0c0,0,0,0,0,0c-0.1,0-0.2,0-0.3,0.1
									c-0.1,0.5-0.1,1.1-0.1,1.7c0,0.1,0.1,0.2,0.1,0.2c0.1,0,0.2,0,0.2,0c0.6-0.4,0.7-1.1,0.7-1.8C23.7,42.4,23.5,42.2,23.4,42.3
									z"/>
								<path style="fill:#DA478F;" d="M23.8,46.6c-0.1-0.8-0.2-1.5-0.4-2.3c0-0.2-0.1-0.4-0.2-0.6c0-0.1-0.1-0.3-0.1-0.4
									c-0.2-0.3-0.4-0.3-0.7-0.3c-0.6,0-1.2,0-1.8,0.1c-0.1,0-0.1,0.1-0.1,0.3c0.1,0.2,0.2,0.3,0.2,0.5c0.2,1.1,0.3,2.1,0.5,3.2
									c0,0.1,0.1,0.2,0.2,0.3c0.3,0,0.7,0,1,0c0.1,0,0.1,0,0.1,0c0,0,0,0.1,0,0.1c0,0.1,0.1,0.2,0.2,0.2c0.3-0.1,0.6-0.1,0.9-0.2
									C24,47.3,23.9,46.9,23.8,46.6z"/>
								<path style="fill:#5442E5;" d="M24.1,42.1c0-0.2-0.1-0.3-0.1-0.5c-0.3-1-1.2-1.8-2.3-2.1c-1.1-0.4-2.4-0.3-2.9,0.5
									c-0.2,0.3-0.2,0.7-0.2,1c0,0.5,0,1,0,1.5c0,0.1,0.2,0.2,0.3,0.2c0.3,0,0.6,0,0.9,0c0.2,0,0.3-0.1,0.3-0.3c0,0,0-0.1,0-0.1
									c0.1,0.5,0.3,0.9,0.4,1.4c0,0.1,0.2,0.2,0.3,0.2c0.4-0.1,0.8-0.2,1.2-0.2c0.3,0,0.8,0,1.1-0.1c0.1,0,0.1-0.1,0.1-0.2
									c-0.1-0.3-0.2-0.5-0.2-0.7c0,0,0,0,0,0c0.1,0,0.2,0,0.2,0c0.2,0,0.7,0.1,0.8-0.1C24.1,42.4,24.1,42.2,24.1,42.1z"/>
							</g>
							<g style="clip-path:url(#SVGID_6_);">
								<path style="fill:#FFFFFF;" d="M17,39c-0.1,0-0.2,0-0.2,0.1c-0.1-0.2-0.3-0.3-0.5-0.3c0,0-0.1,0-0.1,0
									c-0.1-0.3-0.4-0.5-0.7-0.5c-0.3,0-0.5,0.2-0.4,0.5c0,0-0.1,0-0.1,0c-0.1,0-0.2,0-0.3,0.1c-0.1-0.1-0.3-0.2-0.4-0.2
									c-0.3,0-0.4,0.2-0.4,0.5l3.5,0.2C17.4,39.2,17.2,39,17,39z"/>
							</g>
						</g>
					</g>
					<g>
						<path style="fill:#BBCFFA;" d="M20,33.5C20,33.5,20,33.5,20,33.5l-2.7-0.1c-0.2,0-0.4-0.2-0.4-0.4c0-0.2,0.2-0.4,0.4-0.4
							l2.7,0.1c0.2,0,0.4,0.2,0.4,0.4C20.4,33.3,20.3,33.5,20,33.5z"/>
					</g>
					<g>
						<path style="fill:#BBCFFA;" d="M22.2,32.6C22.2,32.6,22.2,32.6,22.2,32.6l-1.4-0.1c-0.2,0-0.4-0.2-0.4-0.4
							c0-0.2,0.2-0.4,0.4-0.4l1.3,0.1c0.2,0,0.4,0.2,0.4,0.4C22.6,32.4,22.4,32.6,22.2,32.6z"/>
					</g>
					<g>
						<path style="fill:#BBCFFA;" d="M24.1,47.3C24.1,47.3,24.1,47.3,24.1,47.3l-3-0.1c-0.2,0-0.4-0.2-0.4-0.4s0.2-0.4,0.4-0.4
							l3,0.1c0.2,0,0.4,0.2,0.4,0.4C24.5,47.1,24.3,47.3,24.1,47.3z"/>
					</g>
					<g>
						<g>
							<path style="fill:#BBCFFA;" d="M26.1,49.1C26.1,49.1,26.1,49.1,26.1,49.1l-6.4-0.3c-0.2,0-0.4-0.2-0.4-0.4s0.2-0.4,0.4-0.4
								l6.4,0.3c0.2,0,0.4,0.2,0.4,0.4C26.5,48.9,26.4,49.1,26.1,49.1z"/>
						</g>
						<g>
							<path style="fill:#BBCFFA;" d="M24.7,50.3C24.7,50.3,24.7,50.3,24.7,50.3l-4.6-0.2c-0.2,0-0.4-0.2-0.4-0.4
								c0-0.2,0.2-0.4,0.4-0.4l4.6,0.2c0.2,0,0.4,0.2,0.4,0.4C25.1,50.2,24.9,50.3,24.7,50.3z"/>
						</g>
						<g>
							<path style="fill:#BBCFFA;" d="M23.5,51.6C23.5,51.6,23.5,51.6,23.5,51.6l-3-0.1c-0.2,0-0.4-0.2-0.4-0.4
								c0-0.2,0.2-0.4,0.4-0.4l2.9,0.1c0.2,0,0.4,0.2,0.4,0.4C23.9,51.4,23.7,51.6,23.5,51.6z"/>
						</g>
						<g>
							<path style="fill:#BBCFFA;" d="M26,53.1C26,53.1,26,53.1,26,53.1l-5.1-0.2c-0.2,0-0.4-0.2-0.4-0.4c0-0.2,0.2-0.4,0.4-0.4
								l5,0.2c0.2,0,0.4,0.2,0.4,0.4C26.4,52.9,26.2,53.1,26,53.1z"/>
						</g>
					</g>
					<g>
						<path style="fill:#BBCFFA;" d="M15.1,33.8c-0.1,0-0.1,0-0.2,0l-0.6-0.3c-0.1-0.1-0.2-0.2-0.2-0.3c0-0.1,0-0.3,0.1-0.4l0.4-0.3
							c0.2-0.2,0.4-0.1,0.6,0c0.1,0.1,0.1,0.4,0,0.5l0.1,0.1c0.2,0.1,0.3,0.4,0.2,0.6C15.4,33.7,15.3,33.8,15.1,33.8z"/>
					</g>
					
						<ellipse transform="matrix(0.6393 -0.7689 0.7689 0.6393 -28.8905 31.9638)" style="fill:#DA478F;" cx="19.6" cy="46.8" rx="0.8" ry="1.2"/>
				</g>
				<path style="fill:#FF8891;" d="M11.4,43.8c0.9-2.6,5.4-5.3,6.7-3.4c1.2,1.8-1.2,3.4-2.8,4.4l0.2,1.2"/>
				<path style="fill:#FF8891;" d="M12.7,45.7c1.2-1.8,6.7-3.2,7.5-1.5c0.8,1.9-2.1,3.3-3.4,3.7s-2.4,1.5-2.4,1.5"/>
				<path style="fill:#FF8891;" d="M13.1,48.8c1.8-1.5,7.1-3.5,8-1.4c0.8,1.9-2.1,3.3-3.4,3.7s-2.4,1.2-2.4,1.2"/>
				<path style="fill:#FF8891;" d="M14.7,51.8c2.8-1.8,5.9-2.6,6.7-1.2c0.8,1.5-0.5,2.5-2,3.4c-1.2,0.7-2.7,1.6-2.7,1.6"/>
				<g>
					<path style="fill:#181F41;" d="M16.8,55.9l-0.4-0.7c0,0,1.5-0.9,2.7-1.6c1.9-1.1,2.4-1.9,1.9-2.9c-0.1-0.2-0.3-0.4-0.6-0.5
						C19.2,50,17,50.8,15,52.1c-0.2,0.1-0.5,0.1-0.6-0.1c-0.1-0.2-0.1-0.5,0.1-0.6c2.3-1.5,4.7-2.3,6.1-1.9c0.5,0.1,1,0.4,1.2,0.9
						c1.1,2.1-1.1,3.4-2.2,4C18.4,55,16.8,55.9,16.8,55.9z"/>
				</g>
				<g>
					<path style="fill:#181F41;" d="M11.9,46.9c-0.1,0-0.2,0-0.2-0.1c-0.2-0.1-0.2-0.4-0.1-0.6c1.3-1.8,5.3-3.1,5.3-3.1
						c0.2-0.1,0.5,0.1,0.5,0.3c0.1,0.2-0.1,0.5-0.3,0.5c-0.4,0.1-3.8,1.3-4.9,2.7C12.2,46.8,12,46.9,11.9,46.9z"/>
				</g>
				<g>
					<path style="fill:#181F41;" d="M13.3,49.6c-0.1,0-0.2,0-0.3-0.1c-0.2-0.2-0.2-0.4,0-0.6c1.7-1.9,4.8-2.8,6.3-2.8
						c0.2,0,0.4,0.2,0.4,0.4c0,0.2-0.2,0.4-0.4,0.4c-1.2,0-4.1,0.8-5.7,2.5C13.6,49.6,13.4,49.6,13.3,49.6z"/>
				</g>
				<g>
					<path style="fill:#181F41;" d="M20.3,50.3c-0.2,0-0.3-0.1-0.4-0.2c-0.1-0.2,0-0.5,0.2-0.6c0.1,0,0.4-0.2,0.6-0.6
						c0.1-0.2,0.4-0.3,0.6-0.1c0.2,0.1,0.3,0.4,0.1,0.6c-0.3,0.5-0.6,0.8-1,1C20.4,50.3,20.3,50.3,20.3,50.3z"/>
				</g>
			</g>
			<g>
				<path style="fill:#181F41;" d="M35.6,72.8c-0.2,0-0.4-0.1-0.4-0.3l-1-5.1c0-0.2,0.1-0.4,0.3-0.5c0.2,0,0.4,0.1,0.5,0.3l1,5.1
					C36,72.6,35.9,72.8,35.6,72.8C35.6,72.8,35.6,72.8,35.6,72.8z"/>
			</g>
		</g>
		<path style="fill:#5442E5;" d="M60.3,35.9c1.5,1.6,6.7,7.8,9.7,17.3c4.2,13.4,5.7,31.6,8.9,57.1c0,0-23.7,0.4-39.1,0.4
			c0-10.5,3.1-64.7,6.3-73.6"/>
		<path style="fill:#FF8891;" d="M69.2,130c0,1.8-0.5,3-2.8,3.1c-1.5,0.1-2.1-1.4-2.1-3.2s1.2-3.2,2.7-3.2S69.2,128.2,69.2,130z"/>
		<g>
			
				<ellipse transform="matrix(0.9875 -0.1576 0.1576 0.9875 -17.1342 10.7678)" style="fill:#48298F;" cx="59.3" cy="113.4" rx="55.3" ry="17.3"/>
			<g>
				<defs>
					
						<ellipse id="SVGID_7_" transform="matrix(0.9875 -0.1576 0.1576 0.9875 -17.1342 10.7678)" cx="59.3" cy="113.4" rx="55.3" ry="17.3"/>
				</defs>
				<clipPath id="SVGID_8_">
					<use xlink:href="#SVGID_7_"  style="overflow:visible;"/>
				</clipPath>
				<g style="clip-path:url(#SVGID_8_);">
					<g>
						<path style="fill:#FFB83B;" d="M64.9,111.7c-0.5-0.2-1-0.5-1.5-0.6c-0.8-0.2-1.7-0.3-2.6-0.2c-1.5,0.2-2.4,0.4-3.9,0.7
							c-0.4,0.1-0.9,0.2-1.3,0.2c-0.7,0.1-1.7,0.1-1.8-0.7c-0.1-1.5,1.2-2.2,2.4-2.5c0.8-0.2,1.7-0.3,2.6-0.4
							c0.9-0.1,1.8-0.3,2.7-0.3c0.4,0,0.7,0.1,1,0.2c-0.2-0.3-0.8-0.6-1.1-0.7c-0.5-0.2-1-0.3-1.5-0.4c-1-0.2-1.8-0.2-2.7-0.1
							c-0.8,0.1-1.5,0.3-2.3,0.7c-0.8,0.4-1.5,1-2.2,1.6c-0.7,0.6-1.5,1.1-2.3,1.6c-0.9,0.6-2,0.7-3,0.9c-1.2,0.2-2.5,0.3-3.7,0.2
							c-0.8-0.1-1.8-0.3-2.1-1.2c-0.4-0.9,0.1-2,0.9-2.5c0.5-0.3,1.2-0.3,1.8-0.2c0.6,0.1,1.1,0.4,1.7,0.4c0.6,0.1,1.9,0.2,2.5,0.1
							c2-0.3,4-1.3,5.6-2.5c0.5-0.4,0.9-0.9,1.4-1.2c0.5-0.3,1.1-0.5,1.7-0.6c0.5-0.1,1-0.1,1.4-0.2c0.2,0,0.5,0,0.7,0
							c0,0,0.3,0,0.9,0.2c-0.1-0.2-0.8-0.5-1-0.6c-0.2-0.1-0.5-0.2-0.7-0.2c-0.5-0.1-1.1-0.2-1.7-0.2c-1.1,0-2.3,0.4-3.1,1.2
							c-0.5,0.5-0.9,1-1.5,1.5c-0.3,0.3-0.6,0.6-1,0.9c-0.7,0.6-1.7,0.8-2.6,0.9c-0.9,0.1-1.8,0-2.7-0.3c-0.6-0.2-1.8-0.7-1.8-1.5
							c0-0.4,0.4-0.9,0.6-1.2c0.7-0.8,2.2-1,3.2-1.1c0.6-0.1,1.3-0.1,1.9,0c0.3,0,0.6,0,0.9,0.1c0.2,0,0.7,0,0.9,0.1
							c-1-0.8-2.4-1.1-3.6-1.1c-0.5,0-1,0.1-1.4,0.2c-0.5,0.1-1.1,0.1-1.6,0.3c-0.5,0.2-1,0.4-1.5,0.7c-1.9,1.1-3,3.1-4.8,4.4
							c-0.9,0.6-1.7,0.9-2.7,1.1c-1.1,0.2-2.1,0.4-3.2,0.1c-0.5-0.1-1-0.3-1.3-0.6c-1.1-1.1,0-2.5,1.2-2.8c1.1-0.3,2.2-0.1,3.3-0.2
							c1.4-0.1,2.6-0.6,3.6-1.6c0.2-0.2,0.5-0.5,0.8-0.9c-0.4,0.3-0.8,0.5-1,0.6c-0.3,0.1-0.5,0.3-0.8,0.4c-0.5,0.2-0.9,0.3-1.4,0.4
							c-0.6,0.1-1.1,0.2-1.7,0.2c-1.2-0.2-2.9-0.4-3.6-1.5c-1.2-1.9,1-4.6,2.8-5.2c1.2-0.4,2.3-0.6,3.5-0.8l-5.2-2.7L-3.2,103
							l6.9,43.4l47.1-1.1c0.8-1.9,1.1-3.8,0.3-5.7c-0.3-0.8-0.6-1.5-1.3-2c-0.6-0.5-1.4-0.7-2.2-0.9c-1.9-0.5-3.9-0.1-5.7,0.4
							c-1.6,0.4-3.1,1-4.8,1c-0.9,0-4.2-3.4-4.2-6.2c0-0.8,0.8-1.5,1.3-1.9c0.4-0.3,0.9-0.5,1.3-0.9c0.4-0.4,1.1-0.9,1.4-1.3
							c0.3-0.4,0.6-0.8,0.9-1.2c0.2-0.3,0.5-0.5,0.7-0.8c-0.2,0-0.4,0.2-0.6,0.3c-0.4,0.3-0.7,0.5-1.1,0.7c-1.1,0.6-2.1,1-3.3,1.2
							c-1.3,0.2-2.5,0.1-3.8-0.2c-1-0.3-1.8-0.8-1.9-1.8c-0.2-1.5,1-2.4,2.4-2.3c0.6,0,1.2,0.2,1.8,0.3c1,0.2,2,0.3,2.9,0.1
							c0.8-0.1,1.5-0.5,2.3-0.8c1.4-0.4,2.9,0.1,4.2,0.6c1.1,0.4,2,1.2,3.1,1.5c2.4,0.9,4.9-0.4,7.3-0.8c0.7-0.1,1.4-0.3,2.2-0.3
							c0.5,0,0.9,0,1.4,0c0.2,0,0.4,0,0.9,0.2c-0.4-1.1-2.4-1.4-3.4-1.4c-1.3,0-2.5,0.1-3.7,0.2c-0.5,0-1.1,0.1-1.6-0.2
							c-0.8-0.5-1.2-1.8-0.9-2.6c0.2-0.4,0.5-0.8,0.9-1.1c1.2-0.8,2.5-1,3.9-1.2c1.3-0.2,2.7-0.3,4.1-0.1c-0.4-0.5-1.2-0.6-1.8-0.7
							c-1.5-0.3-2.7-0.2-4.2,0.1c-1.1,0.2-2.1,0.4-3.1,0.9c-2.3,1.1-5.1,1-7.6,0.3c-1.6-0.5-2.4-1.7-1.5-3.3
							c0.3-0.6,0.9-0.9,1.5-1.1c1.7-0.5,3.5-0.1,5.3-0.3c1.4-0.2,2.8-0.3,4.2-0.3c1.1,0,2.1,0.1,3.2,0.2c0.9,0.1,1.8,0.4,2.8,0.6
							c2.5,0.4,4.7-1.7,7.7-2.2c0.7-0.1,1.4-0.2,2.1-0.1c0.7,0.1,1.2,0.5,1.8,0.7C65.5,112,65.3,111.9,64.9,111.7z"/>
						<g>
							<path style="fill:#DA478F;" d="M65.6,110.7c-1.6-0.8-3.2-1-5-0.9c-0.3,0-3.7,0.8-3.9,0.7c-0.8-0.8,4.9-1.2,5.6-1
								c1.1,0.2,2.3-1.2,1.2-2.1c-1.8-1.5-4.1-1.9-6.4-1.6c-4.1,0.5-6.6,5.3-10.9,4.9c-0.3,0-2.4-0.2-1.3-1.2c0,0,1.3,0.3,1.6,0.3
								c1.3-0.1,2.4,0.1,3.6-0.2c3.2-0.8,6.5-5,9.9-4.1c1.4,0.4,2.1-1.5,1-2.3c-2-1.3-4.8-1.5-6.9-0.4c-1.8,0.9-2.7,3.2-4.7,3.7
								c-3.6,0.2-4.4-0.1-2.2-0.9c0.6-0.5,1.3-0.7,2-0.6c0.8-0.1,1.6,0,2.4,0.2c1.4,0.4,2.2-1.6,1-2.3c-3.7-2.2-8.3-1.3-11.3,1.6
								c-1.2,1.1-2.6,3.4-4.3,3.6c-0.3,0.1-0.6,0.1-1,0.2c-1.2-0.9-1.1-1.3,0.3-1c0.7-0.4,1.8-0.3,2.6-0.6c1.1-0.5,1.9-1.3,2.7-2.2
								c1-1-0.3-2.7-1.5-2c-0.9,0.6-1.8,1-2.9,1.2c-1.9,0.7-2.6,0-2.2-1.9c-0.2-2.9,1.4-2.5,3.8-2.9c1.1-0.2,1.2-1.8,0.3-2.3
								c-2.3-1.2-4.5-3-7-2.6c-3.9,0.6-7.9,1.8-11.7,2.6c-7.9,1.8-15.9,3.6-23.8,5.4c-0.7,0.2-1,0.9-0.9,1.6
								c2.3,14.5,4.6,28.9,6.9,43.4c0.1,0.5,0.7,0.9,1.2,0.9c15.7-0.4,31.4-0.7,47.1-1.1c0.6,0,1-0.4,1.2-0.9
								c1.7-5,0.2-10.2-5.8-10.5c-3.1-0.1-7.8,2.7-10.3,0.3c-3.3-3.3,1.7-6.6,3.5-9c0.9-1.1-0.2-2.7-1.5-2c-1.6,0.8-2.9,1.8-4.6,2
								c-1.5,0.2-5.8,0-1.5-1.6c0.6-0.2,2.6,0.2,3.4,0.1c2.5-0.3,4.1-1,6.6,0.2c1.9,0.9,3.4,1.6,5.6,1.4c2.8-0.3,5.7-2,8.5-1.2
								c1,0.3,2.1-0.9,1.4-1.9c-0.9-1.3-2.2-1.8-3.8-2c-0.6-0.1-4.2,0.4-4.4,0.2c0.4-2.2,1.6-3.1,3.7-2.7c0.9-0.1,1.8,0,2.7,0.1
								c1.3,0.1,1.7-1.8,0.6-2.3c-2.3-1.3-5-1.2-7.5-0.6c-1.7,0.4-3.2,1.1-4.9,1.4c-1.1,0.2-2.4,0.3-3.5-0.1c-1.5,0-1.5-0.4,0.1-1.3
								c0.6-1,1.4-1.3,2.5-1c3.9-0.7,7.6,0.1,11.5,0.4c3.9,0.3,7.1-3.6,11-1.8c1.2,0.5,2.7-1,1.5-2C66.5,111.3,66.1,111,65.6,110.7
								c-1.4-0.8-2.7,1.4-1.3,2.2c0.3,0.2,0.6,0.4,0.9,0.6c0.5-0.7,1-1.3,1.5-2c-1.7-0.8-3.1-1-4.9-0.7c-1.2,0.2-2.2,0.7-3.3,1.1
								c-2.4,1-4,0.8-6.5,0.5c-3.1-0.3-6,0-9,0.1c-1.8,0.1-4-0.3-5.6,0.9c-2.2,1.7-1.9,4.5,0.4,5.8c5.7,3.2,11.9-3.3,17.2-0.3
								c0.2-0.8,0.4-1.6,0.6-2.3c-3.1-0.3-10.5-0.2-10.2,4.5c0.3,5.8,7.7,0.8,9.8,3.7c0.5-0.6,0.9-1.2,1.4-1.9
								c-1.7-0.5-3.5-0.2-5.2,0.1c-2.5,0.5-4.6,1.5-7.4,0.4c-0.8-0.3-1.5-0.9-2.4-1.2c-2.9-1.1-4.3-0.4-7.2,0
								c-1.9,0.3-4.2-0.8-6.1,0c-2.5,1.1-2.6,4.4-0.4,5.9c3.6,2.4,7.8,0,11-1.7c-0.5-0.7-1-1.3-1.5-2c-3.2,4.1-8.2,6-4.3,11.6
								c0.9,1.3,2.1,2.7,3.7,3c1.2,0.2,2.8-0.4,3.9-0.7c1.6-0.4,2.8-0.6,4.4-0.7c2-0.6,3.1,0.3,3.2,2.8c1.5,1.4,1.8,2.8,0.9,4.3
								c0.4-0.3,0.8-0.6,1.2-0.9c-15.7,0.4-31.4,0.7-47.1,1.1c0.4,0.3,0.8,0.6,1.2,0.9c-2.3-14.5-4.6-28.9-6.9-43.4
								c-0.3,0.5-0.6,1-0.9,1.6c7.4-1.7,14.8-3.3,22.2-5c4-0.9,8.1-1.8,12.1-2.7c1-0.2,2.6-0.1,1.1-0.5c1.7,0.5,3.5,1.8,5.1,2.6
								c0.1-0.8,0.2-1.5,0.3-2.3c-3.2,0.6-9.5,2.9-7.2,7.5c1.9,3.7,7.6,2.3,10.3,0.7c-0.5-0.7-1-1.3-1.5-2c-2,2.1-3.5,1.7-6,2.1
								c-1.2,0.2-2.3,0.5-3.1,1.6c-1,1.5-0.4,3.2,1.1,4.1c2.1,1.2,5.5,0.4,7.4-0.7c4-2.3,6.5-8,12.1-4.6c0.3-0.8,0.6-1.5,1-2.3
								c-2.4-0.6-11.6,0.1-8.6,4.6c1.2,1.8,4.1,2,6,1.6c3.7-0.7,6.2-6.3,10.2-3.7c0.3-0.8,0.6-1.5,1-2.3c-4.9-1.3-6.9,3-11.2,4.1
								c-2.7,0.7-7.1-1.9-8.8,1.5c-1.6,3.2,1.7,4.6,4.3,4.6c2,0,4.3-0.3,6.1-1.2c3.2-1.7,6.8-6,10.6-2.8c0.4-0.7,0.8-1.4,1.2-2.1
								c-2.6-0.5-10.6-0.3-10.3,4.1c0.1,1.3,0.8,1.8,2,2.1c3.2,0.8,6.3-1.9,9.7-0.3C65.8,113.5,67,111.4,65.6,110.7z"/>
						</g>
					</g>
					<g>
						<path style="fill:#FFB83B;" d="M64.9,111.7c-0.5-0.2-1-0.5-1.5-0.6c-0.8-0.2-1.7-0.3-2.6-0.2c-1.5,0.2-2.4,0.4-3.9,0.7
							c-0.4,0.1-0.9,0.2-1.3,0.2c-0.7,0.1-1.7,0.1-1.8-0.7c-0.1-1.5,1.2-2.2,2.4-2.5c0.8-0.2,1.7-0.3,2.6-0.4
							c0.9-0.1,1.8-0.3,2.7-0.3c0.4,0,0.7,0.1,1,0.2c-0.2-0.3-0.8-0.6-1.1-0.7c-0.5-0.2-1-0.3-1.5-0.4c-1-0.2-1.8-0.2-2.7-0.1
							c-0.8,0.1-1.5,0.3-2.3,0.7c-0.8,0.4-1.5,1-2.2,1.6c-0.7,0.6-1.5,1.1-2.3,1.6c-0.9,0.6-2,0.7-3,0.9c-1.2,0.2-2.5,0.3-3.7,0.2
							c-0.8-0.1-1.8-0.3-2.1-1.2c-0.4-0.9,0.1-2,0.9-2.5c0.5-0.3,1.2-0.3,1.8-0.2c0.6,0.1,1.1,0.4,1.7,0.4c0.6,0.1,1.9,0.2,2.5,0.1
							c2-0.3,4-1.3,5.6-2.5c0.5-0.4,0.9-0.9,1.4-1.2c0.5-0.3,1.1-0.5,1.7-0.6c0.5-0.1,1-0.1,1.4-0.2c0.2,0,0.5,0,0.7,0
							c0,0,0.3,0,0.9,0.2c-0.1-0.2-0.8-0.5-1-0.6c-0.2-0.1-0.5-0.2-0.7-0.2c-0.5-0.1-1.1-0.2-1.7-0.2c-1.1,0-2.3,0.4-3.1,1.2
							c-0.5,0.5-0.9,1-1.5,1.5c-0.3,0.3-0.6,0.6-1,0.9c-0.7,0.6-1.7,0.8-2.6,0.9c-0.9,0.1-1.8,0-2.7-0.3c-0.6-0.2-1.8-0.7-1.8-1.5
							c0-0.4,0.4-0.9,0.6-1.2c0.7-0.8,2.2-1,3.2-1.1c0.6-0.1,1.3-0.1,1.9,0c0.3,0,0.6,0,0.9,0.1c0.2,0,0.7,0,0.9,0.1
							c-1-0.8-2.4-1.1-3.6-1.1c-0.5,0-1,0.1-1.4,0.2c-0.5,0.1-1.1,0.1-1.6,0.3c-0.5,0.2-1,0.4-1.5,0.7c-1.9,1.1-3,3.1-4.8,4.4
							c-0.9,0.6-1.7,0.9-2.7,1.1c-1.1,0.2-2.1,0.4-3.2,0.1c-0.5-0.1-1-0.3-1.3-0.6c-1.1-1.1,0-2.5,1.2-2.8c1.1-0.3,2.2-0.1,3.3-0.2
							c1.4-0.1,2.6-0.6,3.6-1.6c0.2-0.2,0.5-0.5,0.8-0.9c-0.4,0.3-0.8,0.5-1,0.6c-0.3,0.1-0.5,0.3-0.8,0.4c-0.5,0.2-0.9,0.3-1.4,0.4
							c-0.6,0.1-1.1,0.2-1.7,0.2c-1.2-0.2-2.9-0.4-3.6-1.5c-1.2-1.9,1-4.6,2.8-5.2c1.2-0.4,2.3-0.6,3.5-0.8l-5.2-2.7L-3.2,103
							l6.9,43.4l47.1-1.1c0.8-1.9,1.1-3.8,0.3-5.7c-0.3-0.8-0.6-1.5-1.3-2c-0.6-0.5-1.4-0.7-2.2-0.9c-1.9-0.5-3.9-0.1-5.7,0.4
							c-1.6,0.4-3.1,1-4.8,1c-0.9,0-4.2-3.4-4.2-6.2c0-0.8,0.8-1.5,1.3-1.9c0.4-0.3,0.9-0.5,1.3-0.9c0.4-0.4,1.1-0.9,1.4-1.3
							c0.3-0.4,0.6-0.8,0.9-1.2c0.2-0.3,0.5-0.5,0.7-0.8c-0.2,0-0.4,0.2-0.6,0.3c-0.4,0.3-0.7,0.5-1.1,0.7c-1.1,0.6-2.1,1-3.3,1.2
							c-1.3,0.2-2.5,0.1-3.8-0.2c-1-0.3-1.8-0.8-1.9-1.8c-0.2-1.5,1-2.4,2.4-2.3c0.6,0,1.2,0.2,1.8,0.3c1,0.2,2,0.3,2.9,0.1
							c0.8-0.1,1.5-0.5,2.3-0.8c1.4-0.4,2.9,0.1,4.2,0.6c1.1,0.4,2,1.2,3.1,1.5c2.4,0.9,4.9-0.4,7.3-0.8c0.7-0.1,1.4-0.3,2.2-0.3
							c0.5,0,0.9,0,1.4,0c0.2,0,0.4,0,0.9,0.2c-0.4-1.1-2.4-1.4-3.4-1.4c-1.3,0-2.5,0.1-3.7,0.2c-0.5,0-1.1,0.1-1.6-0.2
							c-0.8-0.5-1.2-1.8-0.9-2.6c0.2-0.4,0.5-0.8,0.9-1.1c1.2-0.8,2.5-1,3.9-1.2c1.3-0.2,2.7-0.3,4.1-0.1c-0.4-0.5-1.2-0.6-1.8-0.7
							c-1.5-0.3-2.7-0.2-4.2,0.1c-1.1,0.2-2.1,0.4-3.1,0.9c-2.3,1.1-5.1,1-7.6,0.3c-1.6-0.5-2.4-1.7-1.5-3.3
							c0.3-0.6,0.9-0.9,1.5-1.1c1.7-0.5,3.5-0.1,5.3-0.3c1.4-0.2,2.8-0.3,4.2-0.3c1.1,0,2.1,0.1,3.2,0.2c0.9,0.1,1.8,0.4,2.8,0.6
							c2.5,0.4,4.7-1.7,7.7-2.2c0.7-0.1,1.4-0.2,2.1-0.1c0.7,0.1,1.2,0.5,1.8,0.7C65.5,112,65.3,111.9,64.9,111.7z"/>
					</g>
				</g>
			</g>
			<g>
				<g>
					<g>
						<path style="fill:#FFFFFF;" d="M26.2,118.7l1-0.2c-0.6-3.9-3.7-5.4-4.6-11.2l-0.3-1.6c-0.1-0.5-0.7-0.9-1.3-0.8l-1.7,0.3
							c-0.6,0.1-1.1,0.6-1,1.1l0.3,1.6c0.9,5.8-1.5,8.1-0.9,12l1-0.2"/>
						<path style="fill:#BBCFFA;" d="M22.9,110c-0.1-0.1-0.1-0.3-0.2-0.4c-0.1-0.2-0.1-0.3-0.3-0.3c-0.1,0-0.3,0-0.4,0.1
							c-0.2,0-0.3,0.1-0.5,0.1c-0.6,0.2-1.3,0.3-1.9,0.5c-0.3,0.1-0.2,0.5,0,0.5c0,0,0,0,0.1,0.1c-0.1,0.2,0.1,0.4,0.3,0.3
							c0.9-0.3,1.8-0.5,2.7-0.6C22.8,110.3,23,110.2,22.9,110z"/>
						<path style="fill:#FFFFFF;" d="M26.2,118.7l1-0.2c0.6,3.9-1.8,6.2-0.9,12l0.3,1.6c0.1,0.5-0.4,1-1,1.1l-1.7,0.3
							c-0.6,0.1-1.2-0.2-1.3-0.8l-0.3-1.6c-0.9-5.8-4-7.2-4.6-11.2l1-0.2"/>
						<path style="fill:#BBCFFA;" d="M25.7,128.4c-0.1-0.1-0.1-0.3-0.2-0.4c-0.1-0.2-0.1-0.3-0.3-0.3c-0.1,0-0.3,0-0.4,0.1
							c-0.2,0-0.3,0.1-0.5,0.1c-0.6,0.2-1.3,0.3-1.9,0.5c-0.3,0.1-0.2,0.5,0,0.5c0,0,0,0,0.1,0.1c-0.1,0.2,0.1,0.4,0.3,0.3
							c0.9-0.3,1.8-0.5,2.7-0.6C25.6,128.7,25.7,128.6,25.7,128.4z"/>
						<circle style="fill:#FFFFFF;" cx="22.4" cy="119.3" r="4.8"/>
						<path style="fill:#BBCFFA;" d="M24,132.7l-0.3-1.6c-0.9-5.8-4-7.2-4.6-11.2c-0.6-3.9,1.8-6.2,0.9-12l-0.3-1.6
							c-0.1-0.5,0.4-1,1-1.1l0.2,0c0,0,0,0,0,0l-1.7,0.3c-0.6,0.1-1.1,0.6-1,1.1l0.3,1.6c0.9,5.8-1.5,8.1-0.9,12
							c0.6,3.9,3.7,5.4,4.6,11.2l0.3,1.6c0.1,0.5,0.7,0.9,1.3,0.8l1.5-0.2C24.7,133.5,24.1,133.2,24,132.7z"/>
						<path style="fill:#BBCFFA;" d="M26.2,130.6c-0.9-5.8,1.5-8.1,0.9-12c-0.6-3.9-3.7-5.4-4.6-11.2l-0.3-1.6
							c-0.1-0.5-0.7-0.9-1.3-0.8l-0.5,0.1c0.3,0.1,0.5,0.4,0.6,0.7l0.3,1.6c0.9,5.8,4,7.2,4.6,11.2c0.6,3.9-1.8,6.2-0.9,12l0.3,1.6
							c0.1,0.5-0.4,1-1,1.1l-1.2,0.2c0.2,0.1,0.5,0.1,0.7,0.1l1.7-0.3c0.6-0.1,1.1-0.6,1-1.1L26.2,130.6z"/>
						<circle style="fill:#181F41;" cx="22.4" cy="119.3" r="2"/>
					</g>
					<path style="fill:#DA478F;" d="M26,109l-10.3,1.6c-0.9,0.1-1.8-0.5-1.9-1.4l-0.8-5.2c-0.1-0.9,0.5-1.8,1.4-1.9l10.3-1.6
						c0.9-0.1,1.8,0.5,1.9,1.4l0.8,5.2C27.6,108.1,26.9,108.9,26,109z"/>
					<path style="fill:#DA478F;" d="M29.1,128l-10.3,1.6c-0.9,0.1-1.5,1-1.4,1.9l0.8,5.2c0.1,0.9,1,1.5,1.9,1.4l10.3-1.6
						c0.9-0.1,1.5-1,1.4-1.9l-0.8-5.2C30.8,128.5,30,127.8,29.1,128z"/>
				</g>
				<g>
					<g>
						<path style="fill:#FFFFFF;" d="M100.1,118.8c-0.9-5.8,1.5-8.1,0.9-12c-0.6-3.9-3.7-5.4-4.6-11.2L96.1,94
							c-0.1-0.5-0.7-0.9-1.3-0.8l-1.7,0.3c-0.6,0.1-1.1,0.6-1,1.1l0.3,1.6c0.9,5.8-1.5,8.1-0.9,12c0.6,3.9,3.7,5.4,4.6,11.2l0.3,1.6
							c0.1,0.5,0.7,0.9,1.3,0.8l1.7-0.3c0.6-0.1,1.1-0.6,1-1.1L100.1,118.8z"/>
						<path style="fill:#BBCFFA;" d="M99.3,116.6c0-0.1,0-0.2,0-0.3c0-0.1,0-0.3-0.1-0.4c-0.4-0.5-3.3-0.1-3.2,0.6
							c0,0.1,0.1,0.2,0.2,0.2c0,0,0.1,0,0.1,0c0,0.1,0,0.2,0,0.3c0.2,0.3,0.5,0.2,0.8,0.2c0.7-0.1,1.3-0.2,2-0.3
							C99.3,117,99.4,116.8,99.3,116.6z"/>
						<path style="fill:#BBCFFA;" d="M96.6,98.3c0-0.1,0-0.2,0-0.3c0-0.1,0-0.3-0.1-0.4c-0.2-0.2-0.5-0.2-0.8-0.2
							c-0.3,0.1-0.7,0.2-1,0.2c0,0,0,0,0,0c-0.2,0-0.3,0-0.5,0c-0.1-0.1-0.3,0-0.3,0.1c-0.1,0-0.2,0.1-0.3,0.1
							c-0.1,0-0.2,0.2-0.2,0.3c0,0.1,0.1,0.2,0.2,0.2c0,0,0.1,0,0.1,0c0,0.1,0,0.2,0,0.3c0.2,0.3,0.5,0.2,0.8,0.2
							c0.7-0.1,1.3-0.2,2-0.3C96.6,98.7,96.7,98.5,96.6,98.3z"/>
						<path style="fill:#BBCFFA;" d="M97.9,120.9l-0.3-1.6c-0.9-5.8-4-7.2-4.6-11.2c-0.6-3.9,1.8-6.2,0.9-12l-0.3-1.6
							c-0.1-0.5,0.4-1,1-1.1l0.2,0c0,0,0,0,0,0l-1.7,0.3c-0.6,0.1-1.1,0.6-1,1.1l0.3,1.6c0.9,5.8-1.5,8.1-0.9,12
							c0.6,3.9,3.7,5.4,4.6,11.2l0.3,1.6c0.1,0.5,0.7,0.9,1.3,0.8l1.5-0.2C98.5,121.8,97.9,121.4,97.9,120.9z"/>
						<path style="fill:#BBCFFA;" d="M100.1,118.8c-0.9-5.8,1.5-8.1,0.9-12c-0.6-3.9-3.7-5.4-4.6-11.2L96.1,94
							c-0.1-0.5-0.7-0.9-1.3-0.8l-0.5,0.1c0.3,0.1,0.5,0.4,0.6,0.7l0.3,1.6c0.9,5.8,4,7.2,4.6,11.2c0.6,3.9-1.8,6.2-0.9,12l0.3,1.6
							c0.1,0.5-0.4,1-1,1.1l-1.2,0.2c0.2,0.1,0.5,0.1,0.7,0.1l1.7-0.3c0.6-0.1,1.1-0.6,1-1.1L100.1,118.8z"/>
						<circle style="fill:#181F41;" cx="96.3" cy="107.5" r="2"/>
					</g>
					<path style="fill:#DA478F;" d="M89.6,98.9l10.3-1.6c0.9-0.1,1.5-1,1.4-1.9l-0.8-5.2c-0.1-0.9-1-1.5-1.9-1.4l-10.3,1.6
						c-0.9,0.1-1.5,1-1.4,1.9l0.8,5.2C87.9,98.4,88.7,99,89.6,98.9z"/>
					<path style="fill:#DA478F;" d="M92.6,117.8l10.3-1.6c0.9-0.1,1.8,0.5,1.9,1.4l0.8,5.2c0.1,0.9-0.5,1.8-1.4,1.9L94,126.3
						c-0.9,0.1-1.8-0.5-1.9-1.4l-0.8-5.2C91.1,118.8,91.7,118,92.6,117.8z"/>
					<path style="fill:#AF226C;" d="M27.4,107.1l-0.8-5.2c-0.1-0.9-1-1.5-1.9-1.4l-0.2,0c0.1,0.1,0.1,0.3,0.1,0.4l0.8,5.2
						c0.1,0.9-0.5,1.8-1.4,1.9L14,109.8c0.3,0.7,1,1.1,1.8,0.9L26,109C26.9,108.9,27.6,108.1,27.4,107.1z"/>
					<path style="fill:#AF226C;" d="M31.8,134.5l-0.8-5.2c-0.1-0.9-1-1.5-1.9-1.4l-0.2,0c0.1,0.1,0.1,0.3,0.1,0.4l0.8,5.2
						c0.1,0.9-0.5,1.8-1.4,1.9l-10.1,1.6c0.3,0.7,1,1.1,1.8,0.9l10.3-1.6C31.3,136.3,31.9,135.4,31.8,134.5z"/>
					<path style="fill:#AF226C;" d="M101.3,95.4l-0.8-5.2c-0.1-0.9-1-1.5-1.9-1.4l-0.2,0c0.1,0.1,0.1,0.3,0.1,0.4l0.8,5.2
						c0.1,0.9-0.5,1.8-1.4,1.9L87.9,98c0.3,0.7,1,1.1,1.8,0.9l10.3-1.6C100.8,97.1,101.4,96.3,101.3,95.4z"/>
					<path style="fill:#AF226C;" d="M105.6,122.8l-0.8-5.2c-0.1-0.9-1-1.5-1.9-1.4l-0.2,0c0.1,0.1,0.1,0.3,0.1,0.4l0.8,5.2
						c0.1,0.9-0.5,1.8-1.4,1.9l-10.1,1.6c0.3,0.7,1,1.1,1.8,0.9l10.3-1.6C105.2,124.5,105.8,123.7,105.6,122.8z"/>
				</g>
			</g>
		</g>
		<g>
			<path style="fill:#181F41;" d="M68,131.6C68,131.6,68,131.6,68,131.6c-0.2,0-0.4-0.2-0.4-0.4l0-1.6c0-0.2,0.2-0.4,0.4-0.4
				c0.2,0,0.4,0.2,0.4,0.4l0,1.6C68.4,131.4,68.2,131.6,68,131.6z"/>
		</g>
		<g>
			<g>
				<g>
					<path style="fill:#FF8891;" d="M69.1,127.1c0.4-1.6,1.6-6.2,0-9.7c-2.6-1.5-3.9-3.2-8.7-3.2c-6.7,0-7.7,2.1-7.7,2.1
						s-1.1,4.1-1.4,8.2c0,0.4,0,0.7,0.1,1.1c1,4.9,1,8.1,3,8.1c2.5,0,2-2.4,2-5.3l0,0c0,1.9-0.1,5.2,2,5.3c2.7,0.1,2.3-2.3,2.3-5.2
						l0,0c0,1.9-0.2,5.5,2.3,5.3c2.2-0.2,2-2.3,2-5.2l0,0c0,1.9,0.7,5,2.7,4.7C69.7,132.7,69.1,130.8,69.1,127.1z"/>
					<g>
						<path style="fill:#181F41;" d="M56.4,130.7c-0.2,0-0.4-0.1-0.4-0.3c-0.2-0.9-0.5-2.4-0.5-3.3c0-0.2,0.2-0.4,0.4-0.4
							s0.4,0.2,0.4,0.4c0,0.8,0.3,2.3,0.5,3.1C56.8,130.4,56.7,130.7,56.4,130.7C56.4,130.7,56.4,130.7,56.4,130.7z"/>
					</g>
					<g>
						<path style="fill:#181F41;" d="M60.6,130.7c-0.2,0-0.4-0.2-0.4-0.4l-0.3-3.2c0-0.2,0.1-0.4,0.4-0.5c0.2,0,0.4,0.1,0.5,0.4
							l0.3,3.2C61.1,130.5,60.9,130.7,60.6,130.7C60.6,130.7,60.6,130.7,60.6,130.7z"/>
					</g>
					<g>
						<path style="fill:#181F41;" d="M64.9,130.4c-0.2,0-0.4-0.2-0.4-0.4c0-0.3-0.1-0.6-0.1-0.9c-0.1-0.7-0.2-1.3-0.2-2.2
							c0-0.2,0.2-0.4,0.4-0.4s0.4,0.2,0.4,0.4c0,0.8,0.1,1.4,0.2,2c0,0.3,0.1,0.6,0.1,0.9C65.4,130.1,65.2,130.3,64.9,130.4
							C65,130.4,65,130.4,64.9,130.4z"/>
					</g>
				</g>
				<path style="fill:#5442E5;" d="M57.4,46.4c-5.2,1-9.8,1.9-7.9,13.2c0.9,5.5,2.6,12.1,3.7,16.9c1.1,5,1.8,9.3,1.8,9.3l18.1-2.2
					c0,0-3.5-19.1-4.7-28.1C67.1,46.4,63.3,45.3,57.4,46.4z"/>
				<g>
					<polygon style="fill:#5442E5;" points="44.8,34.7 46.6,41.5 62.5,38 60.6,31.9 					"/>
					<g>
						<path style="fill:#181F41;" d="M46.6,41.9c-0.2,0-0.4-0.1-0.4-0.3l-0.8-3.1c-0.1-0.2,0.1-0.5,0.3-0.5c0.2-0.1,0.5,0.1,0.5,0.3
							l0.7,2.8L62,37.7c0.2-0.1,0.5,0.1,0.5,0.3c0,0.2-0.1,0.5-0.3,0.5L46.6,41.9C46.7,41.9,46.6,41.9,46.6,41.9z"/>
					</g>
				</g>
				<path style="fill:#FF8891;" d="M73.1,83.5c-0.6-3.9-1-6-1.5-9c-0.5,0.1-17.8,1.9-18.4,2c0.6,2.3,1.7,7,1.7,7l-2.2,32.4l16.4,1.5
					C69.1,117.4,74,90.1,73.1,83.5z"/>
			</g>
			<g>
				<path style="fill:#181F41;" d="M53.2,76.9c-0.2,0-0.4-0.1-0.4-0.3c-0.3-1.5-0.7-3.2-1.1-5c-0.9-3.8-1.9-8.1-2.5-11.9
					c0-0.2,0.1-0.4,0.3-0.5c0.2,0,0.4,0.1,0.5,0.3c0.6,3.7,1.6,8,2.5,11.8c0.4,1.8,0.8,3.5,1.2,5C53.6,76.6,53.5,76.8,53.2,76.9
					C53.2,76.9,53.2,76.9,53.2,76.9z"/>
			</g>
			<g>
				<path style="fill:#181F41;" d="M71.6,74.9c-0.2,0-0.4-0.1-0.4-0.4l-3.2-19.1c0-0.2,0.1-0.4,0.3-0.5c0.2,0,0.4,0.1,0.5,0.3
					L72,74.5C72,74.7,71.9,74.9,71.6,74.9C71.6,74.9,71.6,74.9,71.6,74.9z"/>
			</g>
		</g>
		<g>
			<ellipse style="fill:#181F41;" cx="54.4" cy="19.2" rx="6.6" ry="6.9"/>
			<path style="fill:#FFFFFF;" d="M57.8,19.2h0.9c0-3.5-2.2-5.2-2.2-10.4V3c0-0.6-0.5-1.2-1.2-1.2h-1.7c-0.6,0-1.2,0.5-1.2,1.2v5.9
				c0,5.2-2.2,6.9-2.2,10.4h0.9"/>
			<ellipse style="fill:#FFFFFF;" cx="54.4" cy="19.2" rx="4.3" ry="4.9"/>
			<path style="fill:#BBCFFA;" d="M58.7,19c-0.1-3.3-2.2-5.1-2.2-10.1V3c0-0.3-0.1-0.6-0.4-0.9v6.5c0,5.1,2.1,6.8,2.2,10.1
				c0,0.1,0,0.2,0,0.3c0,2.7-1.6,4.9-4.3,4.9c-0.8,0-1.4-0.2-2-0.5c0.6,0.5,1.4,0.7,2.4,0.7c2.7,0,4.3-2.2,4.3-4.9
				C58.7,19.1,58.7,19.1,58.7,19z"/>
			<g>
				<path style="fill:#00E7AE;" d="M55.9,18.3h-0.5h-0.9H53c-0.5,0-0.9,0.4-0.9,0.9c0,0.5,0.4,0.9,0.9,0.9h0.9H55h0.9
					c0.5,0,0.9-0.4,0.9-0.9C56.8,18.7,56.4,18.3,55.9,18.3z"/>
			</g>
			<g>
				<path style="fill:#00E7AE;" d="M53.5,3.1v2.2c0,0.5,0.4,0.9,0.9,0.9c0.5,0,0.9-0.4,0.9-0.9V3.5V2.6V1.8c0,0,0,0,0,0h-1.7
					c0,0,0,0,0,0V2V3.1z"/>
			</g>
			<g>
				<path style="fill:#BBCFFA;" d="M56.5,8.8h-4.1c-0.2,0-0.4-0.2-0.4-0.4c0-0.2,0.2-0.4,0.4-0.4h4.1c0.2,0,0.4,0.2,0.4,0.4
					C56.9,8.6,56.7,8.8,56.5,8.8z"/>
			</g>
		</g>
		<g>
			<path style="fill:#181F41;" d="M41.9,71.3C41.9,71.3,41.9,71.3,41.9,71.3c-0.3,0-0.4-0.2-0.4-0.5c0.7-9.1,1.4-16.6,2.1-22.4
				c0-0.2,0.2-0.4,0.5-0.4c0.2,0,0.4,0.2,0.4,0.5c-0.7,5.8-1.4,13.3-2.1,22.4C42.3,71.1,42.2,71.3,41.9,71.3z"/>
		</g>
	</g>
	<g>
		<ellipse style="fill:#5442E5;" cx="27.4" cy="20.5" rx="5.7" ry="5.1"/>
		<g>
			<circle style="fill:#FFFFFF;" cx="23.9" cy="20.5" r="0.8"/>
			<circle style="fill:#FFFFFF;" cx="27.4" cy="20.5" r="0.8"/>
			<circle style="fill:#FFFFFF;" cx="30.9" cy="20.5" r="0.8"/>
		</g>
		<polyline style="fill:#5442E5;" points="27.3,24 26.3,28.1 31.2,24.3 		"/>
	</g>
</g>
</svg>
