<?xml version="1.0" encoding="utf-8"?>
<!-- Generator: Adobe Illustrator 23.1.1, SVG Export Plug-In . SVG Version: 6.00 Build 0)  -->
<!DOCTYPE svg PUBLIC "-//W3C//DTD SVG 1.1//EN" "http://www.w3.org/Graphics/SVG/1.1/DTD/svg11.dtd" [
	<!ENTITY ns_flows "http://ns.adobe.com/Flows/1.0/">
	<!ENTITY ns_extend "http://ns.adobe.com/Extensibility/1.0/">
	<!ENTITY ns_ai "http://ns.adobe.com/AdobeIllustrator/10.0/">
	<!ENTITY ns_graphs "http://ns.adobe.com/Graphs/1.0/">
	<!ENTITY ns_vars "http://ns.adobe.com/Variables/1.0/">
	<!ENTITY ns_imrep "http://ns.adobe.com/ImageReplacement/1.0/">
	<!ENTITY ns_sfw "http://ns.adobe.com/SaveForWeb/1.0/">
	<!ENTITY ns_custom "http://ns.adobe.com/GenericCustomNamespace/1.0/">
	<!ENTITY ns_adobe_xpath "http://ns.adobe.com/XPath/1.0/">
]>
<svg version="1.1" id="레이어_1" xmlns:x="&ns_extend;" xmlns:i="&ns_ai;" xmlns:graph="&ns_graphs;"
	 xmlns="http://www.w3.org/2000/svg" xmlns:xlink="http://www.w3.org/1999/xlink" xmlns:a="http://ns.adobe.com/AdobeSVGViewerExtensions/3.0/"
	 x="0px" y="0px" viewBox="0 0 500 600" style="enable-background:new 0 0 500 600;" xml:space="preserve">
<metadata>
	<sfw  xmlns="&ns_sfw;">
		<slices></slices>
		<sliceSourceBounds  bottomLeftOrigin="true" height="125.2" width="133.6" x="241.4" y="156.4"></sliceSourceBounds>
	</sfw>
</metadata>
<path style="fill:#5277FF;" d="M350.4,392.3L350,392l-0.7,1.1l-2.5,4.3l-1.1,0.1l-0.1-2l0.1-1.9l-0.5-0.1l-0.7,1.6l-0.6,2.4l-2-0.2
	l-5.3,0.1l-0.3-1.8l-0.5-1l-0.7,2.7l-0.8,0.4l-1.9-0.8l-0.9-1.6l-1-0.1l-1.2,1v-4.3l-0.3-0.4l-0.7,0.3l-0.6,0.9v1.5l-1.3-1l-1-1.4
	l-1.1-0.9l-1.6,0.6l0.4-1.4l-0.7-2l0.3-0.7l-0.8-2.6l-0.5-0.3l-0.9,0.8l-1,1.6v1.1l1,2.1l0.6,2.6l0.3,0.9l0.7,1.2l1.3,1.8l0.2,0.9
	l-0.4,1.3l0.6,0.1l1,0.4l0.6,0.2l-0.7,0.5l-0.7,0.2h-1.6l-0.9-0.2l-0.2-0.5v-0.7l-0.3-0.6l-0.8-0.8l-0.6-0.4l-4.4-1.5l-1.2-0.1
	l-2.7,0.5l-0.7,0.4l0.1,0.7l0.9,1.3l-1.5,0.3l-2.8,1.4l-3.2,0.9l-0.4,1.2l-0.2,1.4l-0.9,0.9v0.7l8.1-4.3l1.4-0.1l0.3,1.7l0.5,1.3
	l0.2,1.1l-0.7,1.3l-1,0.6l-1.6,0.3l-1.6-0.1l-1-0.4l-0.5,1l0.4,0.5l0.7,0.4l0.5,0.8l0.1,0.5v0.7l-0.1,2l-0.6,4l0.7,0.7l0.7-0.2
	l0.6-0.8l0.3-1l1.1,1.3l-1.1,2l-2,2.7l-1.8,0.5l-2.4-0.2v-1.5h1.6l0.7-0.1l0.4-0.7l-5-0.6l-1-0.4l-1.2-1.6l-0.2-0.8l0.8-0.5l1.9-0.7
	l-1.8-3.7l-1.3,1.3l-1.3,2.6l-1.9,0.1l-1.7-2.3l-0.9-0.6l-1.8-0.2l-0.8,0.5l-0.4,1.2l-0.2,1.5v1.5l-1.7-0.3l-3.8,0.2l-1.5-0.8
	l-0.2-0.5v-1.4l-0.1-0.4l-0.4-0.1l-0.9,0.2l-1.2-0.3l-1.9-0.2l-0.7-0.4l-0.4-0.8v-0.8l0.2-0.7l0.1-0.7l-0.1-7.3l0.1-1.2l0.2-0.5
	l0.4-0.7l0.4-0.9l0.1-1.2l-1.3,1.5l-1,1.8l-1.3,1.3l-1.9,0.2l1.5,3.5l-1,0.7h-2.2l-2.1,1.3l-0.8-2.4l-0.5-1l-0.9-0.7l-0.2,3.2
	l-0.9,2.5L264,411l-2.2,0.2l-0.9-0.3l-0.8-0.2l-0.6,0.1l-0.5,0.5l-1.2-1l-0.8-0.2l-0.2-0.4v-1.8l-1.1-2.7l-5-5.5l-0.9-1.8l-0.7-2.1
	l-1.8-1.9l-2-1.4l-1.1-2l-0.3-5.2l-0.8-2.5l-1.7-2l0.4-2.2l1.7-1.7l0.1-2.4l0.5-2.6l3.4-4l0.5-2.7l-1.2-0.8l-0.8-1.9l0.1-2.5
	l-0.9-2.3l-0.2-1.2l-0.3-1.1l-2.1-0.9l0.1-2.5l1.1-2.3l0.7-3.1l0.9-3l1.3-2.3l1-2.2l0.2-3l0.9-2.6l1.8-1.6l1.7-1.8l1.5-3.3l0.8-0.5
	l1.1,0.1l2-0.6l4-2.1l0.8-2.1l3-3.2l0.7,2.2l1.6,0.9l0.8,0.6l0.7,0.6l0.1,0.8l0.3,0.8l0.7,0.3l0.7,0.2l2.4,0.2l1.1,0.9l1.3,0.9
	l2.3,0.2h2.3l2.1,0.7l1.5,1.7l1.1,2l1.8,1.3l0.5,0.9l0.3,0.9l1.2,0.8l1.1,1.3l-0.1,2.3l-1,2.2l1.3,4.6l5,0.2l2.4-0.3l2.3,0.4l2.2,1
	l2.1,1.6l2.3,0.5l4.3-2.2l2.2,0.4l2-2.8l1.9-1.4l0.7,5.5l2,2.5l2.5,1.6l2.9-0.3l3-0.5l2.6,0.8l2.5,1.3l3,0.1l2.6-2.1l1.2-0.4
	l1.2-0.2l1.1-1l0.9-1.2l2.9-1.2l3.1,0.8l2.4,1.1l2.3-0.8l0.3,3.9l-2,4.1l1.2,2.4l5,0.8l2.1,1.6l3.5,4l4.2,2.3l1.9,1.4l0.5,2.7
	l1.8,1.7l2.3,0.8l0.3,0.3l-0.4,1.3l-0.1,1.8l-0.5,0.9l-0.5,0.8l0.5,1.3v0.6l-0.9,1.8l-1.3,2.7l-1.4,1.7l-0.8,1.6l-0.1,0.3l-0.2-0.4
	l-1.6-1.7l-1.5-1.9l-1.8-1.5l-1.4-2l-0.5-2.2l-1.6-1l-2-0.1l-1.9,0.8l-1.5,1.1l-1.2,1.4l-0.8,5.8l-1.2,1.8l-1.2,1.5L350.4,392.3z
	 M278.1,423.6l0.4,1.1l-0.2,1l-0.4,1l-0.2,1.3l0.2,2l-0.1,1.2l-0.5,0.5l-0.6,0.4l0.7,2l-0.3,1l-1.2,0.2l-1.2-0.7l-1.3-0.6l-1.5,0.7
	l-1.3,0.2l-0.8-1.9l-0.9-4l-1.3-0.7l-1.1,0.7l-0.7,1.7l-0.3,2l-0.5,0.9h-1.1l-1.2-0.4l-0.7-0.5l-0.5-0.9l-0.1-0.7v-0.9L261,429
	l-2.2-7.2l-0.3-1.7l0.2-1.7l0.9-1.8l0.6-0.5l0.6-0.1l0.5-0.3l0.4-2.2l0.5-0.6l1.3-1l1.1-0.5l1.2,0.4l1.1,1l0.6,1.2l-0.1,1.3
	l-0.7,1.2l-1.8,1.9l0.3,0.7l0.4,1.7l0.5,0.9l0.7,0.5l1.7,0.6l1,1.7l1.6-0.3l2-0.8l1.9-0.4l2.7,0.5L278.1,423.6z M333.1,418.3
	l-0.1,1.2l-0.4,1.2l-0.7,0.7l-1.1-0.5l0.4,1.3l1,2.2l0.2,1.5l-0.6,0.2l-1.4-0.5l-1.5-0.8l-0.9-0.7l-0.3,1.4l-0.3,0.7l-1.4,1.6
	l-0.5,1.3l1,0.7l1.3,0.6l0.7,0.8l-1.3,1.1l-5.9,1.8l-1.8,0.1l2.8-2l-1.1-0.5l-0.4-0.9l0.1-1.2l0.4-1.4l-2.5,1.3l-0.7-0.5l-0.4-1.1
	v-1.1l0.5-0.5l2-0.4l0.6-1.1v-1.5l0.4-1.7l-1.1-0.7l-0.8,1l-2.9,1.3l-1.3,1l-0.9-1.4l-1.2-1.3l-0.9-1.4l-0.3-1.9l0.5-1.1l1.1-1
	l1.2-0.8l1.1-0.4l3-0.6h0.8l1.3,0.6l1.1,0.7l1.1,0.5l1.5,0.1v-0.6l-1.5-1l-0.9-1.5l-0.4-1.7l-0.1-1.6l1.1,0.1l5.7-3.2l-1-1.8
	l0.5-1.8l1.2-1l1.4,0.6l0.4,0.8v1l-0.5,3.6v0.6l0.4,1.2l0.5,0.9l0.4,1v1.3l-0.3,1.2l-1.3,3.3l1.6-0.6l0.8-0.5l0.3,0.2L333.1,418.3z
	 M278.4,420.6l0.3,0.3l0.4,0.7l-0.9,0.2l-3.7-1l-2,0.6l-1.2-0.1l-1.2-0.7l-0.7-1.4l0.6-1.5l1.1-1.4l0.7-1.3l0.7-0.9l1.3-0.3l0.4,1.1
	l-0.6,1.6l-0.3,1.1l0.1,0.9l0.4,0.3l0.5-1.1l0.9-1.5l0.8-0.1l0.2,0.7l0.4,0.4l0.4,0.2l0.2,1.2l0.5,1.6L278.4,420.6z M340.7,403.3
	l-0.4,2l-0.5,0.7l-0.4,0.1l-0.2-0.4l-0.4-1.7l-0.6-0.6l-0.2-0.5l0.1-0.7l-0.3-0.8l-0.4-0.8l0.2-0.7l0.9-0.5l0.9-0.1l0.8,0.2l0.6,1.2
	L340.7,403.3z M296.3,440.8l0.2,0.2l-0.1,0.5l-0.8,1l-0.3,0.2l-0.5,0.1l-0.8-0.2l-0.6,0.1l-0.9,0.4l-0.4,0.4l-0.5,0.1l-0.1-0.4
	l0.3-0.6l-0.1-0.5l-0.4-0.4l-0.3-0.1l-0.4-0.3v-0.5l0.2-0.4v-0.5l0.3-0.3l0.5-0.1l2.6,1.4v0.6h0.4L296.3,440.8z M303.7,423.1
	l0.8-0.3l1.2-0.3l1.4-0.1l0.8,0.8l0.2,1.3l-0.4,0.8l0.3,0.5l-0.4,0.6l-0.8-0.3l-0.3,0.2v0.2l0.7,0.1l0.7,0.5l-0.3,0.6l-0.8,1h-1.3
	l-0.6-0.7l-0.3-0.8h-0.7l0.2-0.6l-0.2-0.6l-1-0.2l-0.4-0.3l0.8-0.6l0.1-0.7l-0.8-0.6l-1.5-0.5l-0.9,0.3h-0.5l-0.2-0.6l0.7-0.7
	l0.9-0.2l1.2,0.5l1,0.7L303.7,423.1z M291.9,421.5l1.2,1.3l0.5,0.8l-0.3,0.5h-0.9l-0.4,0.2l0.1,0.7l-0.2,0.3l-0.8-0.2l-0.5-0.2
	l-0.9-0.6l-0.5-0.8l0.1-0.5l0.6-0.9l1.1-0.8L291.9,421.5z"/>
</svg>
