<?xml version="1.0" encoding="utf-8"?>
<!-- Generator: Adobe Illustrator 26.0.3, SVG Export Plug-In . SVG Version: 6.00 Build 0)  -->
<svg version="1.1" id="레이어_1" xmlns="http://www.w3.org/2000/svg" xmlns:xlink="http://www.w3.org/1999/xlink" x="0px"
	 y="0px" viewBox="0 0 390 390" style="enable-background:new 0 0 390 390;" xml:space="preserve">
<style type="text/css">
	.st0{fill:#FF7C00;}
	.st1{fill:#FFCE00;}
	.st2{fill:#00B839;}
	.st3{fill:#2F8BFF;}
	.st4{fill:#FFFFFF;}
	.st5{fill-rule:evenodd;clip-rule:evenodd;}
</style>
<g>
	<g>
		<rect x="161.3" y="274.6" class="st0" width="20.6" height="87.8"/>
		<path d="M183.6,364.1h-24.1v-91.3h24.1V364.1z M163.2,360.5h16.9v-84.2h-16.9V360.5z"/>
	</g>
	<g>
		<path class="st0" d="M190.3,357.1c0-14.3-12.1-25.9-26.7-25c-13.3,0.9-23.3,12.5-23.3,25.8l0,0c0,7.2,5.7,12.9,12.9,12.9h24.2
			c7.2,0,12.9-5.7,12.9-12.9L190.3,357.1L190.3,357.1z"/>
		<path d="M177.4,372.7h-24.2c-8.1,0-14.7-6.6-14.7-14.7c0-14.5,11-26.7,25.1-27.6c7.6-0.5,14.6,2.1,20.1,7.2
			c5.4,5.1,8.5,12.1,8.5,19.6v0.9C192.1,366.1,185.5,372.7,177.4,372.7z M165.4,334c-0.5,0-1.1,0-1.5,0.1
			c-12.1,0.8-21.6,11.3-21.6,24c0,6.1,5,11.1,11.1,11.1h24.2c6.1,0,11.1-5,11.1-11.1v-0.9c0-6.5-2.6-12.5-7.4-16.9
			C176.8,336.1,171.3,334,165.4,334z"/>
	</g>
</g>
<g>
	<g>
		<rect x="208.5" y="272.9" class="st0" width="20.6" height="88"/>
		<path d="M230.8,362.7h-24.1V271h24.1V362.7z M210.3,359h16.9v-84.4h-16.9V359z"/>
	</g>
	<g>
		<path class="st0" d="M249.6,357.1c0-14.3-12.1-25.9-26.7-25c-13.3,0.9-23.3,12.5-23.3,25.8l0,0c0,7.2,5.7,12.9,12.9,12.9h24.2
			c7.2,0,12.9-5.7,12.9-12.9L249.6,357.1L249.6,357.1z"/>
		<path d="M236.7,372.7h-24.2c-8.1,0-14.7-6.6-14.7-14.7c0-14.5,11-26.7,25.1-27.6c7.6-0.5,14.6,2.1,20.1,7.2
			c5.4,5.1,8.5,12.1,8.5,19.6v0.9C251.4,366.1,244.8,372.7,236.7,372.7z M224.6,334c-0.5,0-1.1,0-1.5,0.1
			c-12.1,0.8-21.6,11.3-21.6,24c0,6.1,5,11.1,11.1,11.1h24.2c6.1,0,11.1-5,11.1-11.1v-0.9c0-6.5-2.6-12.5-7.4-16.9
			C236.1,336.1,230.6,334,224.6,334z"/>
	</g>
</g>
<g>
	<path class="st1" d="M122.2,186.5c-5.6-0.2-10.7,3.3-15.1,7c-11.1,9.3-20.8,20.4-28.4,32.7c-3.4,5.5-6.6,12.3-4.1,18.4
		c2.1,5.1,7.6,7.8,12.8,9.2c16.4,4.4,35-1.1,46.4-13.7"/>
	<path d="M98.9,257.1c-4,0-8-0.5-11.9-1.5c-5-1.3-11.5-4.2-14.1-10.2c-3-7.1,1-14.8,4.2-20c7.7-12.5,17.5-23.6,28.8-33.2
		c4.5-3.8,10-7.7,16.4-7.5c1,0,1.8,0.9,1.7,1.9c0,1-1,1.8-1.9,1.7c-5.2-0.2-9.9,3.3-13.9,6.6c-11,9.3-20.5,20.1-28,32.3
		c-2.8,4.5-6.2,11.1-3.9,16.7c2,4.7,7.5,7.1,11.7,8.1c15.8,4.2,33.7-1.1,44.6-13.2c0.7-0.8,1.8-0.8,2.6-0.1s0.8,1.8,0.1,2.6
		C126,251.4,112.5,257.1,98.9,257.1z"/>
</g>
<g>
	<path class="st1" d="M267.8,186.5c5.6-0.2,10.7,3.3,15.1,7c11.1,9.3,20.8,20.4,28.4,32.7c3.4,5.5,6.6,12.3,4.1,18.4
		c-2.1,5.1-7.6,7.8-12.8,9.2c-16.4,4.4-35-1.1-46.4-13.7"/>
	<path d="M291.1,257.1c-13.6,0-27.2-5.7-36.3-15.8c-0.7-0.8-0.6-1.9,0.1-2.6c0.8-0.7,1.9-0.6,2.6,0.1c10.9,12.1,28.9,17.3,44.6,13.2
		c4.2-1.1,9.7-3.4,11.7-8.1c2.3-5.5-1.1-12.2-3.9-16.7c-7.6-12.1-17-23-28-32.3c-4-3.3-8.8-6.8-13.9-6.6c0,0,0,0-0.1,0
		c-1,0-1.8-0.8-1.8-1.7c0-1,0.8-1.8,1.7-1.9c6.4-0.3,11.8,3.6,16.4,7.5c11.3,9.5,20.9,20.7,28.8,33.2c3.3,5.2,7.2,12.9,4.2,20
		c-2.6,6.1-9.1,8.9-14.1,10.2C299.2,256.6,295.1,257.1,291.1,257.1z"/>
</g>
<g>
	<g>
		<path class="st1" d="M197.6,304.9c-12,0-22.3-1.1-31.4-3.3c-14.5-3.6-26.7-10.4-35.3-19.8c-14.6-15.9-20.2-41.2-14.9-67.8
			c0.5-2.3,1-4.5,1.4-6.8c1.4-6.4,3-13.1,2.8-19.7c-0.2-7.5-2.5-14.5-5-22.1c-1.1-3.2-2.1-6.4-3-9.8c-6.1-23-3.2-47.5,8.1-67.2
			c14.3-24.7,42.8-40.1,74.4-40.1c25.2,0,48.6,9.7,64.4,26.5c18,19.1,25.3,48.5,19.3,76.6c-0.8,3.4-1.7,6.9-2.6,10.2
			c-1.6,6-3.3,12.2-3.9,18.5c-0.4,5-0.2,10.2,0.8,16.5c0.7,4.6,1.7,9.3,2.7,13.8c0.9,3.9,1.7,7.9,2.4,12c4.5,27.1-1.3,50.5-16,64.5
			c-15.3,14.5-37.7,17.2-55.5,17.8C203.5,304.8,200.5,304.9,197.6,304.9L197.6,304.9z"/>
	</g>
	<g>
		<path d="M194.9,50.2c23.3,0,46.8,8.6,63.1,25.9c18.4,19.5,24.5,48.8,18.8,75c-2.1,9.7-5.6,19-6.5,28.9c-0.5,5.6-0.1,11.4,0.8,16.9
			c1.3,8.6,3.5,17.1,5,25.7c3.7,22.2,0.9,47.3-15.4,62.8c-14.1,13.4-34.9,16.6-54.3,17.3c-3,0.1-5.8,0.2-8.8,0.2
			c-10.4,0-20.8-0.8-30.9-3.3c-12.9-3.3-25.3-9.5-34.4-19.2c-15.9-17.3-19-43.2-14.4-66.3c1.7-8.9,4.6-17.8,4.3-26.9
			c-0.3-11.1-5.1-21.5-7.9-32.2c-5.8-21.9-3.3-46.2,7.9-65.8C137,63.4,165.9,50.2,194.9,50.2 M194.9,46.6
			c-32.3,0-61.4,15.7-75.9,40.9c-11.6,20.1-14.6,45.1-8.3,68.6c0.9,3.3,2,6.6,3,9.9c2.4,7.4,4.7,14.3,4.9,21.5
			c0.2,6.3-1.2,12.6-2.8,19.2c-0.5,2.3-1.1,4.6-1.5,6.9c-5.4,27.2,0.4,53.1,15.4,69.4c8.8,9.6,21.3,16.6,36.2,20.3
			c9.2,2.3,19.6,3.4,31.8,3.4c2.9,0,5.7-0.1,9-0.2c18.1-0.7,40.9-3.3,56.6-18.4c15.1-14.3,21.1-38.4,16.4-66.1
			c-0.7-4-1.5-8.1-2.4-12.1c-1-4.5-1.9-9.2-2.6-13.7c-1-6.2-1.1-11.3-0.8-16.2c0.5-6,2.1-12,3.8-18.1c1-3.3,1.9-6.8,2.6-10.3
			c6.2-28.7-1.3-58.7-19.7-78.2C244.5,56.4,220.5,46.6,194.9,46.6L194.9,46.6z"/>
	</g>
</g>
<g>
	<g>
		<path class="st2" d="M117.4,173.9c0,0,88.8,74.7,161.4,81.5c0,0-1,13.8-4.6,19.2c0,0-109.9-27.5-157.7-83L117.4,173.9z"/>
		<path d="M274.3,276.4c-0.2,0-0.3,0-0.5-0.1c-1.1-0.3-111-28.3-158.7-83.6c-0.3-0.4-0.5-0.8-0.5-1.2l0.9-17.7
			c0-0.7,0.5-1.3,1.1-1.5c0.7-0.3,1.3-0.2,1.9,0.3c0.9,0.8,89.1,74.4,160.5,81.1c1,0.1,1.7,1,1.6,1.9c0,0.6-1.1,14.3-4.9,20.1
			C275.4,276.1,274.9,276.4,274.3,276.4z M118.4,190.9c44.3,50.8,142.5,78.2,155,81.5c2-4,3.1-11.3,3.5-15.5
			c-64.8-7.1-142.3-66.9-157.9-79.5L118.4,190.9z"/>
	</g>
	<g>
		<path class="st3" d="M287.5,251.8c1.7,0,3.4,0,5,0.7c2,0.9,3.3,2.6,4.4,4.5c3.7,7.1,2.7,15.6,0.9,23.3c-1.5,6.8-3.5,13.7-7.2,19.6
			s-9.4,11-16.2,12.7c-6.8,1.7-14.8-0.5-18.8-6.2c-2.7-3.8-3.3-8.7-3.5-13.4c-0.4-12.6,3-25.7,11.3-35.3
			C270,250.2,278.1,251.8,287.5,251.8z"/>
		<path d="M269.7,315c-6.3,0-12.3-2.8-15.7-7.6c-3.2-4.5-3.7-10-3.8-14.3c-0.5-14.3,3.7-27.4,11.7-36.5c6.2-7.2,13.6-6.9,21.4-6.7
			c1.3,0,2.8,0.1,4.2,0.1l0,0c1.7,0,3.7,0,5.6,0.8c2.1,0.9,3.9,2.7,5.3,5.3c4.1,7.7,2.9,16.7,1.1,24.6c-1.4,6.4-3.4,13.8-7.5,20.2
			c-4.4,7-10.5,11.8-17.3,13.5C273.1,314.8,271.4,315,269.7,315z M279.2,253.4c-5.6,0-10.4,0.8-14.5,5.5c-7.4,8.4-11.2,20.6-10.8,34
			c0.1,3.8,0.6,8.7,3.2,12.4c3.3,4.8,10.4,7.1,16.9,5.5c5.7-1.4,11.3-5.7,15-11.9c3.7-6,5.6-13,7-19.1c1.6-7.3,2.8-15.5-0.7-22.1
			c-1-1.9-2.2-3.2-3.5-3.6c-1.2-0.5-2.8-0.5-4.2-0.5c-1.4,0-2.9,0-4.3-0.1C281.8,253.5,280.5,253.4,279.2,253.4z"/>
	</g>
	<g>
		<path class="st4" d="M284.3,265.8c-3.8-0.5-10.2-2-13.2-0.6c-2.1,1-3.5,5.6-0.6,6.3c7.6,1.8,15.4,2,23.1,1.4
			c2.9-0.2,6.9-2.6,3.4-5.1c-2.8-2-8.6-1.8-11.8-2C285,265.9,284.6,265.8,284.3,265.8z"/>
		<path d="M286.4,275.1c-5.9,0-11.4-0.6-16.4-1.8c-1.7-0.4-2.9-1.7-3.1-3.5c-0.2-2.4,1.2-5.3,3.3-6.2c2.8-1.2,7.4-0.6,11.4,0.1
			c1.1,0.2,2,0.3,2.9,0.4l0,0c0.3,0,0.6,0.1,0.9,0.1c0.6,0,1.1,0.1,1.8,0.1c3.6,0.1,8.1,0.3,10.9,2.2c2.3,1.6,2.3,3.4,2,4.4
			c-0.7,2.3-3.7,3.8-6.3,4C291.2,275,288.7,275.1,286.4,275.1z M274.5,266.4c-1.1,0-2,0.1-2.6,0.4c-0.5,0.2-1.3,1.5-1.2,2.6
			c0,0.3,0.1,0.4,0.3,0.4c6.6,1.5,14,2,22.6,1.4c1.5-0.1,2.9-1,3.1-1.3c0,0.1-0.2-0.2-0.6-0.5c-1.8-1.3-6.1-1.4-8.9-1.5
			c-0.7,0-1.3-0.1-1.9-0.1c-0.3,0-0.7-0.1-1.1-0.1c-0.9-0.1-1.9-0.3-3-0.4C279.1,266.8,276.5,266.4,274.5,266.4z"/>
	</g>
	<g>
		<path class="st3" d="M297.4,269.4c-0.4,0-0.9-0.1-1.1,0.2c-0.2,0.2-0.3,0.6-0.3,1c-0.6,6-0.4,12.1,0.5,18.1
			c0.1,0.7,0.3,1.4,0.9,1.8c0.4,0.3,0.9,0.3,1.3,0.3c1.2,0,2.4,0,3.6,0c0.8,0,1.6,0,2.3-0.4c1.4-0.9,1.4-3,1.2-4.6
			c-0.6-3.9-1.4-7.8-2.6-11.7C302.1,270.3,301.5,269.9,297.4,269.4z"/>
		<path d="M302.5,292.7c-0.1,0-0.2,0-0.3,0h-3.6c-0.6,0-1.5,0-2.4-0.6c-1.2-0.9-1.5-2.4-1.6-3.1c-0.9-6.1-1.1-12.3-0.5-18.6
			c0-0.4,0.1-1.3,0.9-2c1-0.9,2.2-0.8,2.6-0.8l0,0c4.9,0.5,6,1.4,7.4,5.9c1.1,4,2,8,2.6,12c0.5,3.2-0.2,5.4-2.1,6.4
			C304.5,292.6,303.4,292.7,302.5,292.7z M297.7,271.3c-0.5,5.8-0.3,11.5,0.6,17.1c0.1,0.4,0.1,0.5,0.1,0.6c0-0.1,0.2-0.1,0.3-0.1
			h3.6c0.5,0,1.1,0,1.3-0.2c0.4-0.2,0.6-1.1,0.4-2.8c-0.6-3.7-1.3-7.6-2.5-11.4C300.7,271.7,300.6,271.6,297.7,271.3z"/>
	</g>
</g>
<g>
	<g>
		<g>
			<g>
				<g>
					<path class="st5" d="M214.7,116.7L214.7,116.7c-4,0-7.2-3-7.2-6.7v-1c0-3.7,3.3-6.7,7.2-6.7s7.2,3,7.2,6.7v1
						C221.9,113.7,218.6,116.7,214.7,116.7"/>
				</g>
			</g>
			<g>
				<g>
					<path class="st5" d="M175.3,116.7L175.3,116.7c-4,0-7.2-3-7.2-6.7v-1c0-3.7,3.3-6.7,7.2-6.7c4,0,7.2,3,7.2,6.7v1
						C182.5,113.7,179.2,116.7,175.3,116.7"/>
				</g>
			</g>
		</g>
	</g>
</g>
<g>
	<path class="st0" d="M203.4,132.2c1.9,0,3.1,2.1,2.1,3.7c-1.7,2.7-4.8,5.9-10.2,5.9c-5.3,0-8.8-3.1-10.8-5.7
		c-1.2-1.6,0-3.9,1.9-3.9H203.4z"/>
	<path d="M195.3,143.6c-6,0-10-3.5-12.2-6.5c-1-1.2-1.1-3-0.4-4.4s2.2-2.4,3.8-2.4h16.9c1.5,0,3,0.9,3.7,2.2c0.8,1.3,0.8,3-0.1,4.3
		C205.1,139.9,201.6,143.6,195.3,143.6z M186.5,134c-0.4,0-0.5,0.2-0.6,0.4s-0.1,0.4,0.1,0.6c1.7,2.3,4.8,5.1,9.4,5.1
		c3.6,0,6.6-1.7,8.6-5.1c0.2-0.3,0.1-0.5,0-0.7c-0.1-0.1-0.2-0.3-0.6-0.3H186.5z"/>
</g>
<g>
	<path class="st0" d="M182.8,134.6c-2.8,0-4.4-3-3-5.4c2.4-3.9,6.9-8.5,14.6-8.5c7.6,0,12.6,4.4,15.5,8.2c1.7,2.3,0.1,5.5-2.8,5.5
		L182.8,134.6L182.8,134.6z"/>
	<path d="M207.1,136.3h-24.4c-1.9,0-3.7-1.1-4.6-2.7c-1-1.7-0.9-3.7,0.1-5.4c2.7-4.3,7.6-9.4,16.2-9.4c8.4,0,13.9,4.9,16.9,9
		c1.2,1.6,1.4,3.7,0.5,5.5C211,135.2,209.2,136.3,207.1,136.3z M194.4,122.5c-6.9,0-10.9,4.2-13.1,7.7c-0.5,0.8-0.2,1.4,0,1.7
		s0.6,0.9,1.4,0.9h24.4c0.7,0,1.2-0.4,1.5-1c0.1-0.3,0.4-1-0.2-1.7C205.9,126.6,201.3,122.5,194.4,122.5z"/>
</g>
<g>
	<path class="st1" d="M177.5,52.5c0,0,6.5-16.1,17.5-12.5c14.6,4.7,17.6-5.4,17.6-5.4s4.8,17.9-11.2,24.6"/>
	<path d="M201.4,61c-0.7,0-1.3-0.4-1.6-1.1c-0.4-1,0.1-2,1-2.4c9.7-4,11-12.6,10.7-18c-0.8,0.7-1.6,1.3-2.7,1.9
		c-3.7,2-8.6,2.1-14.3,0.2c-9.3-3-15.2,11.4-15.3,11.5c-0.4,1-1.4,1.3-2.4,1c-1-0.4-1.3-1.4-1-2.4c0.3-0.8,7.3-17.6,19.7-13.6
		c4.8,1.5,8.6,1.5,11.5,0.1c3-1.5,3.8-4.1,3.8-4.3c0.3-0.8,1-1.3,1.8-1.2c0.8,0,1.5,0.6,1.7,1.3c0.1,0.2,5,19.5-12.2,26.7
		C201.9,60.9,201.6,61,201.4,61z"/>
</g>
</svg>
