<?xml version="1.0" encoding="utf-8"?>
<!-- Generator: Adobe Illustrator 24.1.1, SVG Export Plug-In . SVG Version: 6.00 Build 0)  -->
<svg version="1.1" id="Layer_1" xmlns="http://www.w3.org/2000/svg" xmlns:xlink="http://www.w3.org/1999/xlink" x="0px" y="0px"
	 viewBox="0 0 240 240" style="enable-background:new 0 0 240 240;" xml:space="preserve">
<g>
	<rect style="fill:#5D0085;" width="240" height="240"/>
	<polygon style="fill:#74059C;" points="240,0 235.77,4.24 4.25,4.24 4.25,235.76 0,240 0,0 	"/>
	<polygon style="fill:#4B0072;" points="240,0 240,240 0,240 4.25,235.76 235.77,235.76 235.77,4.24 	"/>
</g>
<g>
	<polygon style="fill:#74059C;" points="152.94,48.23 155.15,39.41 160.44,47.79 	"/>
	<polygon style="fill:#74059C;" points="117.21,71.18 122.06,80.88 125.59,72.5 	"/>
	<polygon style="fill:#74059C;" points="177.21,51.76 183.83,48.67 183.38,56.17 	"/>
	<polygon style="fill:#74059C;" points="46.62,70.29 47.5,76.47 52.35,71.18 	"/>
	<polygon style="fill:#74059C;" points="105.74,161.18 108.38,155.44 113.24,162.94 	"/>
	<polygon style="fill:#74059C;" points="111.47,173.53 118.09,170.44 118.53,175.74 	"/>
	<polygon style="fill:#74059C;" points="167.5,220.74 167.06,214.12 171.03,218.09 	"/>
	<polygon style="fill:#74059C;" points="165.74,125.88 164.41,135.59 170.15,131.62 	"/>
	<polygon style="fill:#74059C;" points="186.47,111.76 187.35,104.26 191.77,113.53 	"/>
	<polygon style="fill:#74059C;" points="217,29.74 211.19,24.91 221.36,26.25 	"/>
	<polygon style="fill:#74059C;" points="218.24,180.15 213.38,184.12 219.12,186.77 	"/>
</g>
</svg>
