<?xml version="1.0" encoding="utf-8"?>
<!-- Generator: Adobe Illustrator 23.0.2, SVG Export Plug-In . SVG Version: 6.00 Build 0)  -->
<svg version="1.1" id="Layer_1" xmlns="http://www.w3.org/2000/svg" xmlns:xlink="http://www.w3.org/1999/xlink" x="0px" y="0px"
	 viewBox="0 0 500 200" style="enable-background:new 0 0 500 200;" xml:space="preserve">
<g>
	<path style="fill:#91746F;" d="M26.1,37.3c16.8-16.8,39.1-26.1,62.7-26.1h322.6c23.6,0,45.9,9.3,62.7,26.1
		C490.7,54.1,500,76.4,500,100s-9.3,45.9-26.1,62.7c-16.8,16.8-39.1,26.1-62.7,26.1H88.7c-23.6,0-45.9-9.3-62.7-26.1
		C9.3,145.9,0,123.6,0,100S9.3,54.1,26.1,37.3z"/>
	<path style="fill:#2D1D1F;" d="M88.7,17.3h322.6c22,0,42.7,8.6,58.4,24.3C485.3,57.3,494,78,494,100s-8.6,42.7-24.3,58.4
		c-15.7,15.7-36.4,24.3-58.4,24.3H88.7c-22,0-42.7-8.6-58.4-24.3C14.7,142.7,6,122,6,100s8.6-42.7,24.3-58.4
		C46,26,66.7,17.3,88.7,17.3"/>
	<path style="fill:#140B0C;" d="M469.7,51.7C454,36,433.3,27.4,411.3,27.4H88.7c-22,0-42.7,8.6-58.4,24.3
		C15.9,66.2,7.4,84.9,6.2,105c-0.1-1.7-0.2-3.4-0.2-5c0-22,8.6-42.7,24.3-58.4C46,26,66.7,17.3,88.7,17.3h322.6
		c22,0,42.7,8.6,58.4,24.3C485.3,57.3,494,78,494,100c0,1.7-0.1,3.4-0.2,5C492.6,84.9,484.1,66.2,469.7,51.7z"/>
	<path style="fill:#C19C9A;" d="M29.6,159.1C13.8,143.2,5,122.3,5,100s8.7-43.2,24.6-59.1s36.8-24.6,59.1-24.6h322.6
		c22.3,0,43.2,8.7,59.1,24.6S495,77.7,495,100s-8.7,43.2-24.6,59.1s-36.8,24.6-59.1,24.6H88.7C66.5,183.7,45.5,174.9,29.6,159.1z
		 M88.7,18.3c-21.7,0-42.2,8.5-57.7,24S7,78.3,7,100s8.5,42.2,24,57.7s35.9,24,57.7,24h322.6c21.7,0,42.2-8.5,57.7-24
		s24-35.9,24-57.7s-8.5-42.2-24-57.7s-35.9-24-57.7-24H88.7z"/>
</g>
<path style="fill:#333333;" d="M45.7,56.9C57.2,45.4,72.5,39,88.7,39h322.6c16.2,0,31.5,6.4,43.1,17.9
	c11.6,11.6,17.9,26.9,17.9,43.1s-6.4,31.5-17.9,43.1c-11.6,11.6-26.9,17.9-43.1,17.9H88.7c-16.2,0-31.5-6.4-43.1-17.9
	C34,131.5,27.7,116.2,27.7,100C27.7,83.8,34.1,68.5,45.7,56.9z"/>
<path style="fill:#7A7A7A;" d="M88.7,44.6h322.6c14.7,0,28.6,5.8,39.1,16.3s16.3,24.4,16.3,39.1s-5.8,28.6-16.3,39.1
	s-24.4,16.3-39.1,16.3H88.7c-14.7,0-28.6-5.8-39.1-16.3S33.3,114.7,33.3,100s5.8-28.6,16.3-39.1C60.1,50.3,74,44.6,88.7,44.6"/>
<path style="fill:#565656;" d="M450.4,60.9c10.3,10.3,16.1,23.8,16.3,38.2H33.3c0.2-14.4,6-27.9,16.3-38.2
	C60.1,50.3,74,44.6,88.7,44.6h322.6C426,44.6,439.9,50.3,450.4,60.9z"/>
<path style="fill:#333333;" d="M49.6,60.9C39.1,71.4,33.3,85.3,33.3,100s5.8,28.6,16.3,39.1s24.4,16.3,39.1,16.3h66.1
	c13-14.8,20.9-34.2,20.9-55.4s-7.9-40.6-20.9-55.4H88.7C74,44.6,60.1,50.3,49.6,60.9z"/>
<g>
	<g>
		<path style="fill:#404040;" d="M284.8,70.6c-2.8-2.5-6.2-4.4-9.9-5.6c-3.6-1.1-7.5-1.7-11.5-1.7s-7.8,0.6-11.5,1.7
			c-3.8,1.2-7.1,3.1-10,5.6c-2.9,2.6-5.2,5.9-6.8,9.9c-1.6,3.9-2.5,8.7-2.5,14.1v10.8c0,5.5,0.8,10.3,2.5,14.3s3.9,7.3,6.8,9.9
			c2.8,2.5,6.2,4.4,9.9,5.5c3.6,1.1,7.5,1.7,11.5,1.7s7.9-0.6,11.5-1.7c3.8-1.2,7.1-3,9.9-5.5s5.1-5.9,6.8-9.9
			c1.6-3.9,2.5-8.7,2.5-14.3V94.6c0-5.5-0.8-10.2-2.5-14.1C290,76.5,287.7,73.2,284.8,70.6z M263.4,120.1c-1.9,0-3.7-0.2-5.3-0.7
			c-1.5-0.4-2.7-1.2-3.8-2.3c-1.1-1.1-2-2.7-2.7-4.7c-0.7-2.2-1.1-5-1.1-8.4v-7.9c0-3.4,0.4-6.2,1.1-8.4c0.7-2,1.6-3.6,2.7-4.7
			c1.1-1.1,2.3-1.8,3.8-2.3c1.6-0.5,3.4-0.7,5.3-0.7s3.8,0.2,5.4,0.7c1.5,0.4,2.7,1.2,3.8,2.3c1.1,1.1,2,2.7,2.7,4.7
			c0.7,2.2,1.1,5,1.1,8.4v7.9c0,3.4-0.4,6.2-1.1,8.4c-0.7,2-1.6,3.6-2.7,4.7s-2.3,1.8-3.8,2.3C267.1,119.8,265.3,120.1,263.4,120.1z
			"/>
		<path style="fill:#404040;" d="M345.5,64.3h-42.1c-1.7,0-3,1.4-3,3v65.4c0,1.7,1.4,3,3,3H315c1.7,0,3-1.4,3-3v-24.1h25.6
			c1.7,0,3-1.4,3-3v-9.8c0-1.7-1.4-3-3-3H318V80.1h27.5c1.7,0,3-1.4,3-3v-9.8C348.5,65.6,347.1,64.3,345.5,64.3z"/>
		<path style="fill:#404040;" d="M398.2,64.3h-42.1c-1.7,0-3,1.4-3,3v65.4c0,1.7,1.4,3,3,3h11.6c1.7,0,3-1.4,3-3v-24.1h25.6
			c1.7,0,3-1.4,3-3v-9.8c0-1.7-1.4-3-3-3h-25.6V80.1h27.5c1.7,0,3-1.4,3-3v-9.8C401.2,65.6,399.9,64.3,398.2,64.3z"/>
	</g>
	<g>
		<path style="fill:#FFFFFF;" d="M263.4,63.3c3.7,0,7.2,0.5,10.6,1.6c3.4,1.1,6.3,2.7,8.8,5s4.5,5.2,6,8.8c1.5,3.6,2.2,7.9,2.2,13
			v10.8c0,5.1-0.7,9.5-2.2,13.1s-3.5,6.5-6,8.8c-2.5,2.2-5.4,3.9-8.8,4.9s-6.9,1.5-10.7,1.5c-3.8,0-7.3-0.5-10.7-1.5
			s-6.3-2.7-8.8-4.9c-2.5-2.2-4.5-5.2-6-8.8c-1.5-3.6-2.2-8-2.2-13.1V91.6c0-5.1,0.7-9.4,2.2-13s3.5-6.5,6-8.8s5.5-3.9,8.8-5
			C256.2,63.8,259.7,63.3,263.4,63.3z M263.4,120.1c2.2,0,4.3-0.3,6.3-0.9c1.9-0.6,3.6-1.6,5.1-3c1.5-1.5,2.6-3.4,3.4-5.9
			s1.2-5.6,1.2-9.3v-8c0-3.8-0.4-6.9-1.2-9.3c-0.8-2.5-2-4.4-3.4-5.9c-1.5-1.5-3.1-2.5-5.1-3c-1.9-0.6-4-0.9-6.3-0.9
			c-2.2,0-4.2,0.3-6.2,0.9c-1.9,0.6-3.6,1.6-5.1,3c-1.5,1.5-2.6,3.4-3.4,5.9c-0.8,2.5-1.3,5.6-1.3,9.3v7.9c0,3.8,0.4,6.9,1.3,9.3
			s2,4.4,3.4,5.9c1.5,1.5,3.1,2.5,5.1,3C259.1,119.8,261.2,120.1,263.4,120.1z"/>
		<path style="fill:#FFFFFF;" d="M303.4,129.7V64.3h42.1v9.8H315v18.7h28.6v9.8H315v27.1L303.4,129.7L303.4,129.7z"/>
		<path style="fill:#FFFFFF;" d="M356.1,129.7V64.3h42.1v9.8h-30.5v18.7h28.6v9.8h-28.6v27.1L356.1,129.7L356.1,129.7z"/>
	</g>
</g>
<g>
	<circle style="fill:#333333;" cx="91.7" cy="100" r="78.3"/>
	<circle style="fill:#8C8C8C;" cx="91.7" cy="100" r="76.3"/>
	<circle style="fill:#565656;" cx="91.7" cy="101" r="57.8"/>
	<path style="fill:#B3B3B3;" d="M29.3,141.4c0-45,35.6-81.5,79.5-81.5c22.8,0,43.3,9.8,57.8,25.5c-6.8-35.2-37.7-61.7-74.9-61.7
		c-42.1,0-76.3,34.2-76.3,76.3c0,16.4,5.2,31.5,13.9,43.9C29.4,143.1,29.3,142.3,29.3,141.4z"/>
	<path style="fill:#E6E6E6;" d="M17.5,103c0-42.1,34.2-76.3,76.3-76.3c25.8,0,48.6,12.8,62.4,32.5c-13.5-21.3-37.3-35.5-64.4-35.5
		c-42.1,0-76.3,34.2-76.3,76.3c0,16.4,5.2,31.5,13.9,43.9l0,0C21.9,132.1,17.5,118.1,17.5,103z"/>
	<path style="fill:#565656;" d="M91.7,171.2c-41.3,0-74.9-32.8-76.2-73.8c0,0.8-0.1,1.7-0.1,2.5c0,42.1,34.2,76.3,76.3,76.3
		S168,142.1,168,100c0-0.8,0-1.7-0.1-2.5C166.6,138.4,133,171.2,91.7,171.2z"/>
	<circle style="fill:#B3B3B3;" cx="91.7" cy="96" r="57.6"/>
	<path style="fill:#CFCFCF;" d="M108.8,59.9c11.7,0,22.8,2.6,32.8,7.3C131.6,50,113,38.4,91.7,38.4c-31.8,0-57.6,25.8-57.6,57.6
		c0,4.6,0.6,9.1,1.6,13.4C47.9,80.3,76,59.9,108.8,59.9z"/>
	<path style="fill:#F2F2F2;" d="M91.7,46.4c30.5,0,55.4,23.6,57.5,53.6c0.1-1.3,0.2-2.7,0.2-4c0-31.8-25.8-57.6-57.6-57.6
		S34.1,64.2,34.1,96c0,1.4,0.1,2.7,0.2,4C36.4,70.1,61.3,46.4,91.7,46.4z"/>
	<circle style="fill:#F2F2F2;" cx="63.5" cy="58.4" r="9.5"/>
	<circle style="fill:#CCCCCC;" cx="118" cy="129.7" r="7.6"/>
	<circle style="fill:#CCCCCC;" cx="99.5" cy="139.9" r="5"/>
</g>
</svg>
