<?xml version="1.0" encoding="utf-8"?>
<!-- Generator: Adobe Illustrator 24.3.0, SVG Export Plug-In . SVG Version: 6.00 Build 0)  -->
<!DOCTYPE svg PUBLIC "-//W3C//DTD SVG 1.1//EN" "http://www.w3.org/Graphics/SVG/1.1/DTD/svg11.dtd" [
	<!ENTITY ns_extend "http://ns.adobe.com/Extensibility/1.0/">
	<!ENTITY ns_ai "http://ns.adobe.com/AdobeIllustrator/10.0/">
	<!ENTITY ns_graphs "http://ns.adobe.com/Graphs/1.0/">
	<!ENTITY ns_vars "http://ns.adobe.com/Variables/1.0/">
	<!ENTITY ns_imrep "http://ns.adobe.com/ImageReplacement/1.0/">
	<!ENTITY ns_sfw "http://ns.adobe.com/SaveForWeb/1.0/">
	<!ENTITY ns_custom "http://ns.adobe.com/GenericCustomNamespace/1.0/">
	<!ENTITY ns_adobe_xpath "http://ns.adobe.com/XPath/1.0/">
]>
<svg version="1.1" id="레이어_1" xmlns:x="&ns_extend;" xmlns:i="&ns_ai;" xmlns:graph="&ns_graphs;"
	 xmlns="http://www.w3.org/2000/svg" xmlns:xlink="http://www.w3.org/1999/xlink" x="0px" y="0px" viewBox="0 0 220 280"
	 style="enable-background:new 0 0 220 280;" xml:space="preserve">
<style type="text/css">
	.st0{display:none;}
	
		.st1{display:inline;fill:#8DFFF9;stroke:#000000;stroke-width:2;stroke-linecap:round;stroke-linejoin:round;stroke-miterlimit:10;}
	.st2{fill:#5C3F39;}
	.st3{fill:#F9C6A0;}
	.st4{fill:#1D1D1B;}
	.st5{fill:#945B4A;}
	.st6{fill:#281D1C;}
	.st7{fill:#533A35;}
	.st8{fill-rule:evenodd;clip-rule:evenodd;fill:#799C4C;}
	.st9{fill:#FFFFFF;}
	.st10{fill-rule:evenodd;clip-rule:evenodd;fill:#4E3A31;}
	.st11{fill:#F1AA36;}
	.st12{fill:#F7B137;}
	.st13{fill:#683B11;}
	.st14{fill:#53413D;}
	.st15{fill:#FAAF38;}
	.st16{fill:#54413D;}
	.st17{fill-rule:evenodd;clip-rule:evenodd;fill:#EE5A36;}
	.st18{fill-rule:evenodd;clip-rule:evenodd;fill:#F9C6A0;}
	.st19{fill:#EE5A36;}
	.st20{fill-rule:evenodd;clip-rule:evenodd;}
	.st21{fill:#C68067;}
	.st22{fill-rule:evenodd;clip-rule:evenodd;fill:#CC8B75;}
</style>
<metadata>
	<sfw  xmlns="&ns_sfw;">
		<slices></slices>
		<sliceSourceBounds  bottomLeftOrigin="true" height="282" width="222" x="-0.8" y="-1"></sliceSourceBounds>
	</sfw>
</metadata>
<g id="레이어_5" class="st0">
	<rect x="0.2" class="st1" width="220" height="280"/>
</g>
<g>
	<g>
		<g>
			<path class="st2" d="M74.3,237.3c0,0-0.5,5.1,4.1,6.3l22.4-0.2l0.6-31l-17.2-1.6c-1.7,9.1-3.1,16.2-3.1,16.2
				S74.2,228.6,74.3,237.3z"/>
			<g>
				<path class="st3" d="M102.4,168.3c0,0-1-3.7-5.3-3.4c0,0-4.6,0.3-5.7,8.5c-0.1,0.7-4.1,21.9-7.1,37.4l17.2,1.6L102.4,168.3z"/>
				<path class="st4" d="M103,214l-20.5-1.9l0.3-1.6c6-31.6,7-36.9,7.1-37.3c1.3-9.3,6.9-9.8,7.1-9.8c4.4-0.2,6.4,2.9,6.9,4.6
					l0.1,0.2v0.2L103,214z M86,209.5l14,1.3l0.8-42.2c-0.2-0.6-1.1-2.3-3.7-2.2c-0.1,0-3.4,0.5-4.3,7.2
					C92.7,174.2,90.5,186.2,86,209.5z"/>
			</g>
		</g>
		<g>
			<path class="st5" d="M101.5,210.6L84.1,210c-0.6-0.1-1.2,0.3-1.3,0.9l-3.1,10.2c-0.2,0.8,0.3,1.5,1.2,1.6l5.1,0.1
				c0.5,0,0.9-0.2,1.1-0.6l1.8-4.5c0.2-0.4,0.6-0.6,1.1-0.6h2.1c0.6,0,1.1,0.4,1.2,0.9l1.9,3.9c0.1,0.6,0.7,1,1.3,0.9l5.8-0.1
				c0.7,0,1.3-0.6,1.2-1.4l-1-9.6C102.6,211.1,102.1,210.7,101.5,210.6z"/>
			<path d="M96.5,223.8c-1,0-1.9-0.6-2.2-1.6l-1.9-3.8c0-0.1-0.1-0.1-0.1-0.2c0-0.1-0.1-0.2-0.3-0.2h-2.1c-0.1,0-0.2,0-0.2,0.1
				l-1.8,4.4c0,0.1,0,0.1-0.1,0.2c-0.4,0.7-1.2,1.1-2,1.1l-5.1-0.1c-0.7,0-1.4-0.4-1.8-0.9c-0.4-0.6-0.5-1.3-0.3-1.9l3.1-10.2
				c0.3-1,1.3-1.7,2.4-1.6l17.4,0.6c0,0,0,0,0.1,0c1.1,0.1,1.9,0.9,2.1,2l1,9.7c0.1,0.6-0.1,1.2-0.5,1.7s-1,0.8-1.7,0.8L96.5,223.8
				C96.6,223.8,96.5,223.8,96.5,223.8z M94.3,217.7l1.9,3.8c0,0.1,0.1,0.1,0.1,0.2c0,0.1,0.1,0.2,0.3,0.2l5.8-0.1
				c0.1,0,0.2-0.1,0.2-0.1s0.1-0.1,0.1-0.2l-1-9.7c0-0.1-0.1-0.2-0.2-0.2L84,211c-0.2,0-0.3,0.1-0.3,0.2l-3.1,10.2
				c0,0.1,0,0.1,0,0.2c0,0,0.1,0.1,0.2,0.1l5.1,0.1c0.1,0,0.2,0,0.2-0.1l1.8-4.4c0-0.1,0-0.1,0.1-0.2c0.4-0.7,1.1-1.1,1.9-1.1l0,0
				H92C93.1,216.1,94,216.7,94.3,217.7z"/>
		</g>
		<path d="M78.4,245.1c-0.1,0-0.3,0-0.4-0.1c-4.6-1.2-5.4-5.6-5.2-7.8c0-7,4.3-10.4,7.2-11.4c0.1-0.3,0.2-0.7,0.3-1.2
			c-0.6-0.1-1.1-0.5-1.5-1c-0.6-0.8-0.8-2-0.5-2.9l3-10.1c0.2-1.1,1.1-1.9,1.8-2.4c1.7-8.7,3.6-18.6,5-25.6c1-5,1.7-9,1.8-9.3
			c1.3-9.3,6.9-9.8,7.1-9.8c4.4-0.2,6.4,2.9,6.9,4.6c0,0.1,0.1,0.3,0,0.4l-0.8,41.3c0.6,0.4,1,1.1,1.1,1.9l0.9,9.7
			c0.1,0.9-0.3,2-0.9,2.8c-0.4,0.5-0.9,0.8-1.4,0.9l-0.4,18.5c0,0.8-0.7,1.5-1.5,1.5L78.4,245.1C78.5,245.1,78.4,245.1,78.4,245.1z
			 M81.1,221.7c0.1,0,0.1,0,0.2,0.1l1.3,0.5c0.6,0.3,1,1,0.9,1.7c-0.5,2.7-0.8,3.5-0.9,3.7c-0.2,0.4-0.6,0.8-1,0.9
			c-0.2,0.1-5.8,1.5-5.7,8.8c0,0.1,0,0.1,0,0.2c0,0.4-0.3,3.7,2.8,4.6l20.8-0.2l0.4-18.1c0-0.6,0.4-1.2,1-1.4l1.1-0.3c0,0,0,0,0.1,0
			c0.1-0.1,0.2-0.3,0.2-0.4l-0.9-9.4c-0.7-0.2-1.2-0.8-1.1-1.5l0.8-42c-0.2-0.6-1.1-2.3-3.7-2.2c-0.1,0-3.4,0.5-4.3,7.2
			c0,0.3-0.5,2.7-1.8,9.5c-1.4,7.2-3.4,17.4-5.1,26.3c-0.1,0.4-0.3,0.8-0.7,1c-0.4,0.2-0.9,0.7-1,0.9c0,0.1,0,0.1,0,0.1l-3.1,10.2
			C81.1,221.5,81.1,221.6,81.1,221.7z M81.2,221.8L81.2,221.8L81.2,221.8z M82.7,210.9L82.7,210.9L82.7,210.9z"/>
	</g>
	<path d="M94.4,231.3c-0.3,0-0.5-0.1-0.7-0.3c-6-6.3-14.8-1.6-15.2-1.3c-0.5,0.3-1.1,0.1-1.4-0.4s-0.1-1.1,0.4-1.4
		c0.1-0.1,10.6-5.6,17.6,1.7c0.4,0.4,0.4,1,0,1.4C94.9,231.2,94.6,231.3,94.4,231.3z"/>
</g>
<g>
	<g>
		<g>
			<path class="st2" d="M136.1,249.3c0,0,0.5,5.1-4.1,6.3l-22.4-0.2l-0.6-31l17.2-1.6c1.7,9.1,3.1,16.2,3.1,16.2
				S136.1,240.6,136.1,249.3z"/>
			<g>
				<path class="st3" d="M108,180.3c0,0,1-3.7,5.3-3.4c0,0,4.6,0.3,5.7,8.5c0.1,0.7,4.1,21.9,7.1,37.4l-17.2,1.6L108,180.3z"/>
				<path class="st4" d="M107.4,226l-0.9-45.8l0.1-0.2c0.4-1.7,2.4-4.8,6.8-4.6c0.3,0,5.9,0.5,7.1,9.8c0.1,0.4,1.1,5.8,7.1,37.3
					l0.3,1.6L107.4,226z M109.5,180.6l0.8,42.2l14-1.3c-4.4-23.2-6.7-35.3-6.8-35.9c-0.9-6.7-4.2-7.2-4.4-7.2
					C110.6,178.3,109.7,180,109.5,180.6z"/>
			</g>
		</g>
		<g>
			<path class="st5" d="M108.9,222.6l17.4-0.6c0.6-0.1,1.2,0.3,1.3,0.9l3.1,10.2c0.2,0.8-0.3,1.5-1.2,1.6l-5.1,0.1
				c-0.5,0-0.9-0.2-1.1-0.6l-1.8-4.5c-0.2-0.4-0.6-0.6-1.1-0.6h-2.1c-0.6,0-1.1,0.4-1.2,0.9l-1.9,3.9c-0.1,0.6-0.7,1-1.3,0.9
				l-5.8-0.1c-0.7,0-1.3-0.6-1.2-1.4l1-9.6C107.8,223.1,108.3,222.7,108.9,222.6z"/>
			<path d="M113.9,235.8C113.8,235.8,113.8,235.8,113.9,235.8l-5.9-0.1c-0.6,0-1.3-0.3-1.7-0.8c-0.4-0.5-0.6-1.1-0.5-1.7l1-9.6
				c0.1-1.1,1-1.9,2.1-2c0,0,0,0,0.1,0l17.4-0.6c1-0.1,2,0.6,2.3,1.6l3.1,10.2c0.2,0.7,0.1,1.4-0.3,1.9c-0.4,0.6-1.1,0.9-1.8,0.9
				l-5.1,0.1c-0.8,0-1.6-0.4-2-1.1c0,0-0.1-0.1-0.1-0.2l-1.8-4.4c-0.1-0.1-0.1-0.1-0.2-0.1l0,0h-2.1c-0.1,0-0.2,0.1-0.3,0.2
				c0,0.1,0,0.1-0.1,0.2l-1.9,3.8C115.7,235.2,114.9,235.8,113.9,235.8z M109,223.6c-0.1,0-0.2,0.1-0.2,0.2l-1,9.6
				c0,0.1,0,0.1,0.1,0.2c0,0,0.1,0.1,0.2,0.1l5.8,0.1c0.1,0,0.2-0.1,0.3-0.2c0-0.1,0-0.1,0.1-0.2l1.9-3.8c0.3-0.9,1.2-1.6,2.2-1.6
				h2.1l0,0c0.8,0,1.5,0.4,1.9,1.1c0,0,0.1,0.1,0.1,0.2l1.8,4.4c0.1,0.1,0.1,0.1,0.2,0.1l5.1-0.1c0.1,0,0.2-0.1,0.2-0.1
				c0-0.1,0.1-0.1,0-0.2l-3.1-10.2c0-0.1-0.2-0.2-0.3-0.2L109,223.6z"/>
		</g>
		<path d="M131.9,257.1L131.9,257.1l-22.4-0.2c-0.8,0-1.5-0.7-1.5-1.5l-0.4-18.5c-0.5-0.1-1-0.4-1.4-0.9c-0.7-0.7-1-1.9-0.9-2.8
			l0.9-9.6c0.1-0.8,0.5-1.5,1.1-1.9l-0.8-41.3c0-0.1,0-0.3,0-0.4c0.4-1.7,2.4-4.8,6.8-4.6c0.3,0,5.9,0.5,7.1,9.8
			c0.1,0.4,0.8,4.3,1.8,9.3c1.4,7,3.3,16.9,5,25.6c0.7,0.5,1.6,1.3,1.8,2.4l3,10.1c0.3,0.9,0.1,2.1-0.5,2.9c-0.4,0.5-0.9,0.9-1.5,1
			c0.1,0.5,0.2,0.9,0.3,1.2c2.9,1,7.2,4.4,7.2,11.4c0.2,2.2-0.6,6.6-5.2,7.8C132.2,257.1,132.1,257.1,131.9,257.1z M111,253.9
			l20.8,0.2c3.2-1,2.9-4.5,2.8-4.6c0-0.1,0-0.1,0-0.2c0.1-7.3-5.5-8.7-5.7-8.8c-0.5-0.1-0.8-0.4-1-0.9c-0.1-0.2-0.4-1-0.9-3.7
			c-0.1-0.7,0.2-1.4,0.9-1.7l1.3-0.5c0.1,0,0.1,0,0.2-0.1c0-0.1,0-0.2,0-0.2l-3.1-10.1v-0.1c-0.1-0.2-0.6-0.6-1-0.8s-0.6-0.6-0.7-1
			c-1.7-8.8-3.7-19-5.1-26.2c-1.3-6.8-1.8-9.2-1.8-9.5c-0.9-6.7-4.2-7.2-4.4-7.2c-2.6-0.1-3.4,1.6-3.7,2.2l0.8,42
			c0,0.7-0.5,1.3-1.1,1.5l-0.9,9.4c0,0.1,0.1,0.3,0.2,0.4c0,0,0,0,0.1,0l1.1,0.3c0.6,0.2,1,0.8,1,1.4L111,253.9z M126.2,223.2
			L126.2,223.2L126.2,223.2z"/>
	</g>
	<g>
		<path class="st6" d="M109.5,255.3c0,0,3.3-7.4,15.4-7.2c0,0,13.8-0.1,7,7.4L109.5,255.3z"/>
		<path d="M131.9,256.6L131.9,256.6l-22.4-0.2c-0.3,0-0.6-0.2-0.8-0.5c-0.2-0.3-0.2-0.6-0.1-0.9c0.1-0.3,3.7-8,16.3-7.8
			c0.8,0,8.1,0,9.6,3.4c0.7,1.6,0.1,3.5-1.8,5.6C132.5,256.5,132.2,256.6,131.9,256.6z M111.3,254.4l20.1,0.2c0.8-1,1.6-2.2,1.2-3.1
			c-0.8-1.7-5.5-2.3-7.8-2.3C116.9,249,112.9,252.4,111.3,254.4z"/>
	</g>
</g>
<g>
	<path class="st3" d="M110.9,136.8c0.7,4.9,2.2,9.7,3.1,14.5c1.7,9,3.2,15.2,3.6,24.4c0.1,2.2,0,5.6,1.1,7.6
		c1.1,1.9,0.5,2.5,4.1,3.6c1.6,0.5,4.8-0.2,5.5-1.7c1.6-3.2,2-7,1.6-10.5c-1.1-11.1-4.4-18.7-6.2-27.7c-0.9-4.2-2.2-8.2-3.8-12.2
		c-1.3-3.1-2.8-7.5-7-7.1C108.4,128.3,110.5,133.5,110.9,136.8z"/>
	<path class="st7" d="M116.6,167.9c0,0,4.2-4.3,12.2-2.6l1,7.8c0,0-8.5-1.2-11.7,2.9L116.6,167.9z"/>
	<path d="M123.7,188.7c-0.4,0-0.9-0.1-1.3-0.3c-1.5-0.5-3.2-1.1-4.3-3.1c-1.6-2.6-1.7-5.5-1.8-8.3c0-0.4,0-0.8,0-1.2
		c-0.4-7.5-1.4-12.9-2.7-19.7c-0.3-1.4-0.6-3-0.9-4.5c-0.4-2-0.9-4.1-1.4-6c-0.7-2.8-1.4-5.6-1.8-8.5l0,0c-0.1-0.6-0.2-1.2-0.3-1.8
		c-0.5-2.5-1.1-5.2,0.4-7.2c0.7-1,1.8-1.6,3.3-1.7c5-0.5,7,4.2,8.3,7.4l0.3,0.6c5.1,12.3,8.8,26.6,10.2,40.3c0.4,3.5,0,7-1.1,10
		C129.3,187.3,126.5,189,123.7,188.7z M113.8,129.3c-0.2,0-0.5,0-0.7,0c-0.9,0.1-1.1,0.4-1.2,0.5c-0.6,0.8-0.2,3.1,0.2,4.8
		c0.1,0.7,0.3,1.4,0.4,2l0,0c0.4,2.8,1.1,5.5,1.7,8.2c0.5,2,1,4.1,1.4,6.2c0.3,1.6,0.6,3.1,0.9,4.5c1.3,6.7,2.4,12.4,2.8,20.1
		c0,0.4,0,0.8,0,1.2c0.1,2.5,0.2,4.9,1.4,6.9c0.6,1,1.4,1.3,2.7,1.8c1.7,0.5,3.6-0.4,4.2-2c0.9-2.6,1.3-5.5,1-8.6
		c-1.4-13.4-4.9-27.4-10-39.4l-0.3-0.6C117,131.8,115.9,129.5,113.8,129.3z"/>
</g>
<g>
	<path class="st3" d="M97.8,136.8c-2.3,4.4-5.5,8.3-8,12.5c-4.7,7.9-8.3,13.2-11.9,21.6c-0.9,2-2,5.3-3.7,6.7s-1.3,2.2-5.1,2
		c-1.7-0.1-4.4-1.8-4.6-3.5c-0.4-3.6,0.6-7.2,2.2-10.4c5-10,10.7-16,15.5-23.7c2.3-3.6,5-7,7.9-10.1c2.3-2.5,5.2-6.1,9-4.2
		C103.1,129.6,99.4,133.8,97.8,136.8z"/>
	<path class="st7" d="M81.6,163.8c0,0-2.4-5.5-10.5-6.7l-3.6,7c0,0,8.4,1.9,10,6.8L81.6,163.8z"/>
	<path d="M68.5,181c-2.6-0.3-3.9-1.6-4.6-2.8c-2.3-3.8-0.1-10.4,1.4-13.3c6.1-12.3,14.5-24.4,23.6-34.2l0.5-0.5
		c2.3-2.5,5.8-6.2,10.3-4c1.3,0.7,2.2,1.6,2.5,2.8c0.7,2.3-0.8,4.7-2.2,6.8c-0.3,0.6-0.7,1.1-1,1.6l0,0c-1.4,2.6-3.1,5-4.7,7.4
		c-1.1,1.7-2.3,3.4-3.4,5.2c-0.8,1.4-1.6,2.7-2.4,4c-3.6,5.9-6.5,10.6-9.4,17.5L79,172c-1.7,3.9-4,9.3-10,9
		C68.8,181,68.7,181,68.5,181z M97.3,128.6c-1.9-0.2-3.6,1.4-5.7,3.7l-0.5,0.5c-8.9,9.5-17.2,21.4-23.1,33.4
		c-1.4,2.9-2.9,8.1-1.5,10.5c0.3,0.5,0.9,1.2,2.6,1.3c3.6,0.2,5.2-2.9,7.1-7.2l0.2-0.6c3-7.1,6.1-12.1,9.6-17.9
		c0.8-1.3,1.6-2.6,2.4-3.9c1.1-1.8,2.3-3.6,3.5-5.3c1.6-2.3,3.2-4.7,4.5-7.1l0,0c0.3-0.6,0.7-1.2,1.1-1.8c0.9-1.4,2.1-3.4,1.8-4.4
		c0-0.1-0.1-0.5-1-0.9C98,128.8,97.6,128.7,97.3,128.6z M97.8,136.8L97.8,136.8L97.8,136.8z"/>
</g>
<g>
	<path class="st8" d="M94.3,131.5c-4.1,21.9-6.1,44.4-13.3,65.6c3.5-1.6,6.6-4.2,8.5-7.5c3.3,2.8,7.1,5.1,11.1,6.8
		c1,0.4,2.1,0.8,3.1,0.6c1.1-0.2,1.9-0.9,2.7-1.6c3-2.6,5.8-5.3,8.4-8.2c4.4,3,9.1,5.4,14.1,7.2c-5-11.1-7.6-22.7-10-34.6
		c-0.9-4.3-1.6-8.7-2.4-13c-1.4-7.6-0.8-9.3-2.7-16.8c-1.2-4.7-1.7-12.1-10.7-11.8C96.5,118.5,95,127.8,94.3,131.5z"/>
	<g>
		<path class="st3" d="M110.3,136.6c0.4-2.9,0.7-6,0.8-9.2l-13.3-0.1c0,0-0.2,3.9,0.4,9.3C101.3,137.4,105.4,137.8,110.3,136.6z"/>
		<path class="st9" d="M110.3,136.6c-4.9,1.1-9,0.8-12.1,0c0.7,6.1,1,13,6,18.6C104.2,155.2,108.5,148.6,110.3,136.6z"/>
	</g>
	<path d="M103.9,155.9c-1,0-1.8-0.5-2.3-1.4c-2.4-5-4-11.1-4.8-18.1c-0.6-5.4-0.5-9.3-0.4-9.5v-1l15.3,0.2v1c-0.1,3-0.3,6.1-0.8,9.3
		c-1.1,7.6-3.1,13.9-4.6,17.9c-0.4,1-1.2,1.6-2.2,1.6C104,155.9,103.9,155.9,103.9,155.9z M98.3,127.9c0,1.5,0,4.5,0.5,8.2
		c0.5,4.7,1.7,11.5,4.6,17.5c0.1,0.3,0.4,0.3,0.5,0.3s0.4-0.1,0.5-0.3c1.5-3.9,3.4-10,4.5-17.4c0.4-2.7,0.6-5.4,0.7-8.1L98.3,127.9z
		"/>
	<polygon class="st10" points="89.4,161.4 119.1,161.4 121.2,172.3 87.6,172.6 	"/>
	<path class="st11" d="M98.4,158.6l1.1,16.5l9.6-0.1l0.5-16.3L98.4,158.6L98.4,158.6z M107,172.1l-5.4,0.1v-3.5c0.1,0,0.2,0,0.4,0
		c1.6,0,2.4-0.4,2.4-1.4s-0.8-1.5-2.4-1.5c-0.1,0-0.3,0-0.4,0v-4.3h5.8L107,172.1z"/>
	<ellipse transform="matrix(0.9931 -0.1169 0.1169 0.9931 -16.3737 12.2329)" class="st12" cx="96.1" cy="145.7" rx="2" ry="2.2"/>
	<ellipse transform="matrix(0.9931 -0.1169 0.1169 0.9931 -17.3151 12.3708)" class="st12" cx="96.8" cy="153.8" rx="2" ry="2.2"/>
	
		<ellipse transform="matrix(0.1169 -0.9931 0.9931 0.1169 -46.6706 239.0421)" class="st12" cx="111.1" cy="145.8" rx="2.2" ry="2"/>
	
		<ellipse transform="matrix(0.1169 -0.9931 0.9931 0.1169 -55.1614 245.5173)" class="st12" cx="110.5" cy="153.8" rx="2.2" ry="2"/>
	<path class="st13" d="M110.5,154.8c-0.2,0-0.5-0.1-0.7-0.3c-3.9-3.6-9.2-6-14.4-8c-0.5-0.2-0.8-0.8-0.6-1.3
		c0.2-0.5,0.8-0.8,1.3-0.6c5.4,2.1,10.9,4.5,15,8.4c0.4,0.4,0.4,1,0.1,1.4C111,154.7,110.7,154.8,110.5,154.8z"/>
	<path class="st13" d="M96.8,154.8c-0.3,0-0.6-0.1-0.8-0.4c-0.3-0.4-0.2-1.1,0.2-1.4c4.3-3.1,8.7-5.6,14.5-8.2
		c0.5-0.2,1.1,0,1.3,0.5c0.2,0.5,0,1.1-0.5,1.3c-5.7,2.5-9.9,4.9-14.2,8C97.2,154.7,97,154.8,96.8,154.8z"/>
	<path d="M80.9,198.6c-0.4,0-0.7-0.1-1-0.4c-0.4-0.4-0.6-1-0.4-1.6c5-14.9,7.6-30.7,10-46c1-6.4,2.1-13,3.3-19.4l0.1-0.3
		c0.8-4.2,2.6-13.9,10.3-14.2c9.2-0.3,10.8,6.7,11.8,11.3c0.1,0.6,0.2,1.1,0.4,1.6c1.1,4.4,1.4,6.9,1.7,9.5c0.2,2,0.5,4.1,1.1,7.3
		c0.3,1.7,0.6,3.5,1,5.2c0.5,2.5,0.9,5.2,1.4,7.7c2.4,11.9,5,23.4,9.9,34.3c0.2,0.5,0.1,1.2-0.3,1.6c-0.4,0.4-1,0.6-1.6,0.4
		c-4.7-1.7-9.2-3.9-13.4-6.7c-2.4,2.6-5,5.1-7.7,7.4c-1,0.8-2.1,1.7-3.5,1.9c-1.5,0.3-2.8-0.2-3.9-0.7c-3.8-1.6-6.5-3.7-9.3-6
		c-2.8,3.6-7.2,5.8-9.2,6.7C81.4,198.5,81.2,198.6,80.9,198.6z M90.4,188.1c0.4,0,0.7,0.1,1,0.4c3.1,2.6,5.8,4.9,9.7,6.5
		c0.8,0.3,1.6,0.6,2.3,0.5c0.7-0.1,1.3-0.7,2-1.2c2.9-2.5,5.7-5.2,8.3-8.1c0.5-0.6,1.3-0.7,2-0.2c3.3,2.3,6.8,4.2,10.5,5.7
		c-4.1-10.1-6.4-20.7-8.6-31.6c-0.5-2.6-1-5.2-1.5-7.8c-0.3-1.7-0.6-3.5-0.9-5.2c-0.6-3.3-0.9-5.5-1.1-7.5c-0.3-2.7-0.6-5-1.6-9.2
		c-0.1-0.5-0.3-1.1-0.4-1.7c-1-4.5-2-9.2-8.8-9c-5.3,0.2-6.8,8.3-7.5,11.7l-0.1,0.3l0,0c-1.2,6.4-2.3,13-3.3,19.3
		c-2.3,14.2-4.6,28.9-9,42.9c2.5-1.6,4.6-3.4,5.6-5.2c0.2-0.4,0.6-0.6,1-0.7C90.3,188.1,90.4,188.1,90.4,188.1z M94.3,131.5
		L94.3,131.5L94.3,131.5z"/>
	<g>
		<path class="st5" d="M120.3,161.9l-6.6,10.5l12.1,16.4l6.6,0.2c1.6,0.1,2.9-1.3,2.8-2.9l-1.1-6.4L120.3,161.9z"/>
		<polygon class="st11" points="122.2,165.2 116.1,175 118.5,178.4 125.1,168 		"/>
		<path d="M132.5,190.6h-0.1l-6.6-0.2c-0.5,0-0.9-0.2-1.2-0.6l-12.1-16.4c-0.4-0.5-0.4-1.2-0.1-1.7l6.6-10.5
			c0.3-0.4,0.7-0.7,1.2-0.7s1,0.2,1.3,0.6l13.8,17.9c0.1,0.2,0.2,0.4,0.3,0.7l1.1,6.4v0.1c0.1,1.2-0.3,2.4-1.2,3.2
			C134.8,190.1,133.7,190.6,132.5,190.6z M126.6,187.4l5.9,0.2c0.4,0,0.7-0.1,0.9-0.4c0.2-0.2,0.3-0.5,0.3-0.9l-1-5.9l-12.3-15.9
			l-4.9,7.8L126.6,187.4z"/>
	</g>
</g>
<g>
	<g>
		<path class="st12" d="M35.3,62.9c0.2,0,0.4-0.1,0.6-0.1c5.3-1.1,9.6-2.3,14.4-5.1C60.3,51.8,66,41,75.5,34.3
			c8.9-6.3,19.7-9.7,30.5-9.6c17.8,0.2,34.2,10.4,46,23.5c3.4,3.8,6.5,8,11.2,10.4c5.2,2.6,9.1,2.3,14.3,4.7c2,0.9,3.8,2.1,4.7,3.7
			c0.9-1.7,1.7-3.8,1.7-5.6c0.1-3.2-2.5-5-5.4-6.3c-5.3-2.4-9.3-2.1-14.5-4.7c-4.7-2.3-7.9-6.6-11.3-10.4
			c-12-13-28.7-23.2-46.7-23.4c-10.9-0.1-21.9,3.3-30.9,9.6c-9.6,6.7-15.4,17.5-25.6,23.4c-4.8,2.8-9.1,4-14.6,5.1
			c-0.2,0-0.4,0.1-0.6,0.1c-3.8,0.8-8.1,2.1-9.3,5.8c-0.8,2.5,0.1,5.1,1.4,7.4C28,64.9,31.8,63.7,35.3,62.9z"/>
		<path class="st14" d="M182,67.5c0.1-0.1,0.1-0.2,0.2-0.4c-0.9-1.7-2.8-3.8-4.8-4.7c-5.2-2.4-9.1-2.1-14.3-4.7
			c-4.6-2.3-7.7-5.6-11.1-9.4c-11.8-13.1-28.2-23.4-46-23.5c-10.8-0.1-21.6,3.3-30.5,9.6C66,41,60.3,51.8,50.3,57.7
			c-4.2,2.5-9.1,3-13.8,4c-2.1,0.4-4.2,0.9-6.1,2c-0.9,0.5-1.6,1.1-2.3,1.9c-0.3,0.3-1.9,2.1-1.6,2.4c0.2,0.4,0.5,0.9,0.8,1.3
			c7.1,10.9,23.1,20.4,35.9,21.4c2.5,0.2,5.3,0.1,7.2-1.6c1.3-1.2,3.4-2.5,4.1-4.1c4.1-9.8,5.7-20.6,15.3-24.7s20.9-4.4,30.7-0.6
			c7.8,3,14.8,8.8,17.9,16.6c1.2,3,1.7,6.2,2.9,9.2c0.4,1-0.6,2.4-1.9,3.8c0.4,1.5,0.8,2.9,1.4,4.3c0.2,0.5,0.1,1.1-0.3,1.8
			c6.2-1.1,15.3-4.6,18.1-6.2C168.4,83.7,176.5,77.4,182,67.5z"/>
		<path d="M137.5,97.5c-1.1,0-2-0.1-2.7-0.4c-1-0.4-1.3-1.2-1.4-1.7c-0.3-1.6,1.2-3.1,3.3-5.1c0.6-0.6,1.2-1.2,1.8-1.8
			c1.5-1.6,1.5-2.2,1.5-2.3c-0.6-1.5-1.1-3.1-1.5-4.7s-0.9-3.1-1.4-4.5c-2.7-6.9-8.9-12.6-17-15.7c-9.5-3.7-20.2-3.5-29.5,0.6
			c-7,3-9.5,10-12.1,17.5c-0.8,2.1-1.5,4.3-2.4,6.4c-0.7,1.6-2.1,2.8-3.4,3.8c-0.4,0.3-0.7,0.6-1.1,0.9c-2.4,2.2-5.9,2.2-8.3,2
			c-13.4-1.1-29.6-10.8-37-22.1C26,70,25.7,69.5,25.5,69c-1.9-3.3-2.3-6.1-1.5-8.6c1.5-4.4,6.4-5.9,10.4-6.8l0.6-0.1
			c5.3-1,9.5-2.2,14.1-4.9c5.3-3.1,9.3-7.5,13.6-12.2c3.6-3.9,7.3-8,11.9-11.2c9.3-6.5,20.6-10,31.8-9.9c16.6,0.2,34,8.9,47.8,24
			c0.6,0.7,1.2,1.3,1.8,2c2.8,3.2,5.5,6.2,9.1,8c2.6,1.3,4.8,1.8,7.2,2.4c2.3,0.5,4.6,1.1,7.3,2.3l0,0c1.7,0.8,6.4,2.9,6.3,7.7
			c0,2.5-1.3,5.2-1.9,6.3l-0.2,0.4c-6.1,11.2-15.6,17.6-24,22.4c-2.8,1.6-12,5.2-18.6,6.3C139.6,97.4,138.5,97.5,137.5,97.5z
			 M136.9,94.5c0.7,0.1,1.8,0,3.6-0.3c6.2-1.1,15.1-4.5,17.7-6c8.1-4.6,17.1-10.7,22.9-21.2l0.2-0.3c0.9-1.8,1.5-3.7,1.5-4.9
			c0-2-1.3-3.4-4.5-4.9l0,0c-2.4-1.1-4.5-1.6-6.7-2.1c-2.4-0.6-4.9-1.2-7.8-2.6c-4.1-2.1-7.1-5.4-10-8.7c-0.6-0.7-1.2-1.3-1.8-2
			c-13.2-14.5-29.8-22.9-45.6-23.1c-10.6-0.1-21.3,3.2-30,9.3c-4.3,3-7.9,6.9-11.4,10.8c-4.2,4.6-8.6,9.4-14.3,12.8
			c-5,2.9-9.4,4.1-15,5.2L35,56.6c-3.5,0.7-7.2,1.9-8.2,4.8C26.2,63,26.6,65,28,67.5c0.2,0.4,0.5,0.8,0.7,1.2
			c6.8,10.4,22.4,19.7,34.7,20.8c1.8,0.2,4.5,0.2,6-1.2c0.4-0.3,0.8-0.7,1.2-1c1-0.8,2.1-1.7,2.5-2.6c0.9-2.1,1.6-4.2,2.4-6.3
			c2.7-7.7,5.6-15.7,13.8-19.2c10-4.3,21.6-4.6,31.8-0.6c8.9,3.4,15.7,9.8,18.7,17.4c0.6,1.6,1.1,3.2,1.5,4.8c0.4,1.6,0.8,3,1.4,4.5
			c0.7,1.9-0.8,3.9-2.2,5.4c-0.6,0.6-1.3,1.3-1.9,1.9C138.2,93.1,137.4,93.9,136.9,94.5z"/>
		<path class="st12" d="M65.5,58c-1-0.1-2-0.2-2.9-0.2c-0.8,0-1.7,0.3-2,1c-0.2,0.6,0,1.3,0.4,1.7c0.4,0.5,1,0.7,1.6,1
			c0.5,0.2,1,0.4,1.2,0.9c0.1,0.2,0.1,0.5,0.1,0.7c0,1-0.2,2.1,0.4,2.9c0.6,0.8,1.9,0.8,2.8,0.3s1.4-1.4,1.9-2.3s0.8-1.9,1.4-2.7
			c0.5-0.7,1.2-1.2,1.9-1.7c1.4-1,2.9-2,4.4-3c2.7-1.7,5.4-3.5,8.5-4.1c1.4-0.3,2.8-0.3,4.1-0.8c0.5-0.2,1.1-0.5,1.4-0.9
			s0.4-1.1,0.1-1.6c-0.6-0.7-1.8-0.5-2.4-1.2c-0.1-0.2-0.2-0.4-0.3-0.6c-0.1-0.8,0.2-1.6,0.3-2.5c0.1-0.8-0.2-1.8-1-2
			c-0.7-0.2-1.4,0.4-1.8,0.9c-0.8,0.9-1.4,1.9-1.8,3c-0.3,0.8-0.5,1.7-1,2.5C82,50.9,80.5,52,78.9,53c-2,1.3-4,2.3-6.2,3.2
			C70.4,57.4,68.1,58.1,65.5,58z"/>
		<path class="st15" d="M68,44.5c-2.2,1.8-4.2,4.2-4.2,6.9c0,0.8,0.2,1.6,0.7,2.2c0.7,0.8,1.9,1,2.9,0.9c1.1-0.1,2-0.6,3-1.1
			c0.8,1.1,0.1,2.7,0.5,4c0.4,1.2,1.7,2,3,2.1s2.6-0.3,3.8-0.8c1.5-0.7,2.9-1.6,4.2-2.6c1-0.8,1.9-1.8,2-3c0.3-2.2-1.8-3.8-3.6-5
			c1.5-1.1,2.6-2.9,2.5-4.7C82.4,34.3,71,42,68,44.5z"/>
		<path class="st14" d="M73.8,45.7c-0.2,1.2,0.5,2.4,1.6,2.8c1.1,0.4,2.5-0.2,3-1.2c0.3-0.7,0.3-1.5,0.2-2.3c0-0.2-0.1-0.4-0.2-0.6
			C77.2,42.6,74.1,43.9,73.8,45.7z"/>
		<path class="st14" d="M72.7,48.8c0.2,0.8-0.4,1.6-1.1,2s-1.6,0.4-2.3,0c-0.4-0.2-0.8-0.5-0.9-1c-0.2-0.7,0.2-1.4,0.6-1.9
			c0.5-0.6,1.2-1.2,2-1C71,46.9,72.2,47,72.7,48.8z"/>
		<path class="st16" d="M74.9,56.8C74.9,56.8,74.8,56.8,74.9,56.8c-1.2,0-2.2-0.6-2.6-1.5c-0.3-0.5-0.1-1.1,0.4-1.4
			c0.5-0.3,1.1-0.1,1.4,0.4c0.1,0.2,0.5,0.4,0.8,0.4c0.4,0,0.9-0.1,1.5-0.4c0.8-0.4,1.3-0.8,1.7-1.3c0.3-0.5,0.4-1.1,0.2-1.5
			c-0.3-0.5-0.1-1.1,0.4-1.3c0.5-0.3,1.1-0.1,1.3,0.4c0.5,1.1,0.4,2.4-0.3,3.5c-0.5,0.8-1.3,1.4-2.4,2
			C76.6,56.5,75.8,56.8,74.9,56.8z"/>
	</g>
	<path class="st14" d="M140.7,92.7c-0.5-1.4-0.9-2.9-1.4-4.3c-2.4,2.6-6.1,5.3-4.2,6.1c1.1,0.5,3,0.4,5.2,0
		C140.7,93.8,140.9,93.2,140.7,92.7z"/>
	<g>
		<path class="st17" d="M78,72.4c-4.4,6.8-6.3,15-7.3,23c-0.7,5.5-0.7,11-0.7,16.6c0,3.1-0.3,6.2-0.1,9.2c0.1,1.9,0.4,6.1,2.3,7.4
			c3.1,2,9.8-1.8,12.6-3.3c0.8-0.5,8-5.6,8-5.5c5.1,3.7,5.3,4.9,11.7,5c6.3,0.1,7.6-1.2,12.4-5.2c1.4-1.2,2.1-2.6,3.9-2.2
			c1.5,0.3,1.4,2.8,2.2,4.1c1.2,1.9,5.2,5.3,8.9,6c5.8,1.1,5.8-4.1,9.8-5.4c0.5-0.2,3.1,0,3.6,0.1c2.9,0.8,6.8,0.5,9.4-0.9
			c2.7-1.4,3.7-4.1,2.5-6.8c-0.6-1.3-1.8-2.2-2.9-3.2c-3.7-3.5-7-9.2-8.9-13.9c-2.6-6.2-4.6-12.6-7.4-18.7s-6.4-12-11.7-16.3
			c-2.2-1.8-4.7-3.4-7.5-4.2c-3-0.9-6.1-0.8-9.3-0.7C97.3,58.1,84.9,61.6,78,72.4z"/>
		<path d="M74.4,130.7c-1.1,0-2.2-0.2-3.1-0.8c-2.3-1.5-2.8-5.4-3-8.5c-0.1-1.8,0-3.7,0-5.4c0.1-1.3,0.1-2.6,0.1-3.9
			c-0.1-5.4,0-11.1,0.7-16.8c0.9-7,2.5-15.9,7.5-23.6l0,0c6.2-9.6,17.2-14.8,32.8-15.4c3-0.1,6.4-0.2,9.7,0.8
			c2.7,0.8,5.4,2.3,8.1,4.5c4.7,3.9,8.7,9.4,12.1,16.8c1.7,3.7,3.1,7.5,4.5,11.2c0.9,2.5,1.9,5.1,2.9,7.6c1.7,4.1,4.8,9.8,8.6,13.3
			c0.2,0.2,0.4,0.3,0.5,0.5c0.9,0.9,2,1.8,2.6,3.2c1.6,3.3,0.3,7-3.1,8.8c-3,1.5-7.2,1.9-10.5,1c-0.4-0.1-2.4-0.2-2.9-0.1
			c-1.1,0.4-1.9,1.3-2.8,2.3c-1.5,1.8-3.4,4-7.7,3.1c-4-0.8-8.4-4.4-9.8-6.7c-0.4-0.7-0.6-1.4-0.8-2.1c-0.1-0.5-0.3-1.2-0.5-1.4
			c-0.4-0.1-0.5,0-1.5,0.9c-0.3,0.3-0.7,0.7-1.1,1l-0.8,0.7c-4.3,3.5-6.1,5-12.6,4.9c-5.7-0.1-7.1-1.2-10.2-3.5
			c-0.4-0.3-0.9-0.7-1.4-1.1c-0.3,0.2-0.8,0.5-1.2,0.9c-3.6,2.5-5.5,3.9-6,4.1l-0.1,0.1C82.8,128.1,78.2,130.7,74.4,130.7z
			 M112.3,59c-0.9,0-1.8,0-2.7,0.1c-14.8,0.6-24.7,5.2-30.4,14.1l0,0c-3.6,5.6-5.8,12.5-7,22.4c-0.7,5.5-0.7,11.2-0.7,16.4
			c0,1.4,0,2.7-0.1,4c-0.1,1.8-0.2,3.4-0.1,5.1c0.3,4.7,1.1,5.9,1.6,6.2c1.5,1,5.2-0.1,10.9-3.3l0.1-0.1c0.5-0.3,3.9-2.7,5.7-4
			c3-2.1,3-2.1,3.9-1.5c0.9,0.7,1.7,1.3,2.4,1.8c2.9,2.2,3.7,2.9,8.4,2.9c5.4,0.1,6.5-0.8,10.6-4.2l0.8-0.7c0.3-0.3,0.6-0.5,0.9-0.8
			c0.9-0.9,2.1-2.2,4.3-1.7c1.8,0.4,2.3,2.3,2.7,3.5c0.1,0.5,0.3,1,0.5,1.3c0.9,1.5,4.7,4.7,7.9,5.4c2.6,0.5,3.5-0.5,4.9-2.1
			c1-1.2,2.2-2.6,4.2-3.2c1-0.3,3.9,0,4.5,0.1c2.5,0.7,6,0.4,8.3-0.8c2-1,2.7-2.9,1.8-4.8c-0.4-0.8-1.1-1.5-2-2.3
			c-0.2-0.2-0.4-0.4-0.6-0.5c-4.1-3.9-7.5-10-9.3-14.4c-1-2.5-2-5.1-2.9-7.7c-1.4-3.7-2.8-7.4-4.4-11c-3.2-7-6.9-12.1-11.3-15.7
			c-2.3-1.9-4.7-3.2-7-3.9C116.4,59.2,114.3,59,112.3,59z"/>
	</g>
	<g>
		<path class="st18" d="M109.3,56.9c3.5,0.5,7,1.6,10.1,3.2c5.1,2.5,11.1,6.6,13.9,12.3c1.2,2.5,2.1,5.3,2.5,8.1
			c0.4,2.1-0.1,5.2,1,7c2.3,3.7,2.8,5.9,3.4,10.5c0.6,4.4,0.3,9.1-1.3,13.2c-4.2,10.6-14.3,15.1-23.5,15.4c-1.3,0-2.6,0.1-3.9,0.1
			c-6,0.2-11.9,0.1-17.9-0.1c-9.2-0.3-19.3-4.8-23.5-15.4c-1.6-4.1-1.9-8.8-1.3-13.2c0.6-4.7,1.1-6.8,3.4-10.5c1.1-1.8,0.7-4.9,1-7
			c0.5-2.8,1.3-5.6,2.5-8.1c2.8-5.7,7.4-9.8,12.5-12.3c2.1-1,4.3-1.8,6.5-2.4C99.1,56.5,104.9,56.2,109.3,56.9z"/>
		<path class="st4" d="M105.1,128.3c-4.1,0-8-0.1-11.5-0.2c-11.7-0.4-21-6.5-24.8-16.4c-1.6-4-2.1-9-1.4-13.9s1.3-7.2,3.6-11.1
			c0.5-0.9,0.6-2.4,0.6-3.8c0-0.9,0.1-1.8,0.2-2.6c0.5-3.1,1.4-6,2.7-8.5c2.7-5.6,7.3-10.1,13.2-13c2.1-1,4.4-1.9,6.7-2.5
			c4.5-1.2,10.4-1.5,15.1-0.8l0,0c3.6,0.6,7.3,1.7,10.6,3.3c5,2.4,11.5,6.7,14.6,13c1.2,2.6,2.1,5.4,2.7,8.5
			c0.1,0.8,0.2,1.8,0.2,2.6c0,1.5,0.1,3,0.6,3.8c2.3,3.9,2.9,6.2,3.6,11.1c0.7,4.9,0.1,9.9-1.4,13.9c-3.9,9.8-13.1,15.9-24.8,16.4
			l-3.9,0.1C109.4,128.3,107.2,128.3,105.1,128.3z M104.2,58c-3.1,0-6.4,0.4-9.1,1.1c-2.2,0.6-4.3,1.4-6.2,2.3
			C83.6,64,79.5,68,77.1,73c-1.1,2.3-1.9,4.9-2.4,7.7c-0.1,0.6-0.1,1.4-0.2,2.2c-0.1,1.8-0.1,3.7-1.1,5.3c-2.1,3.5-2.6,5.3-3.2,9.9
			c-0.6,4.4-0.1,8.8,1.3,12.4c3.4,8.7,11.7,14.1,22.2,14.5c5.2,0.2,11.5,0.4,17.8,0.1l3.9-0.1c10.5-0.4,18.8-5.8,22.2-14.5
			c1.4-3.6,1.8-8,1.3-12.4c-0.6-4.6-1.1-6.5-3.2-9.9c-0.9-1.5-1-3.5-1.1-5.3c0-0.8-0.1-1.6-0.2-2.2c-0.5-2.8-1.3-5.4-2.4-7.7
			c-2.7-5.6-8.7-9.4-13.2-11.6c-3-1.5-6.4-2.5-9.7-3l0,0C107.5,58.1,105.9,58,104.2,58z"/>
	</g>
	<g>
		<path class="st19" d="M82.4,98.4c0.2,0,0.5-0.1,0.7-0.2c1-0.5,1.5-1.5,1.9-2.5c3.9-10.2,0.1-21,7.3-29.5c2.5-2.9,5.7-4.7,9.4-5.5
			c1.8-0.4,3.7-0.7,5.3,0.1c1.4,0.7,2.3,2,3,3.4c2.5,4.8,4.8,9,6.8,14c5.3,13.1,21.2,19.7,33.5,18c2.9-0.4,4.3-1.9,2.3-4.1
			c-2.2-2.4-7.6-5.4-9.1-8.5c-0.9-2-1.3-4.1-1.8-6.3c-1.5-6.7-4.3-13.2-8.7-18.5s-10.5-9.3-17.3-10.3s-14.2,1-18.9,5.9
			c-0.6,0.7-1.2,1.4-2,1.8c-1.1,0.6-2.3,0.6-3.5,0.6c-11.7,0.3-23.4,7.6-27.4,18.6C61.7,81.3,61.8,88,59,93.7
			c-2.8,5.8-8,9.8-13.1,13.8c-0.9,0.7-1.9,1.8-1.5,2.9c0.2,0.6,0.8,0.9,1.4,1.2c3.4,1.6,7.4,2,11.1,1c1.2-0.3,3.7-1.1,3.7-1.1
			c0.6,1.1-0.8,4-1.1,5.3c-0.4,1.9,1.5,3.7,3.4,3.8c1.9,0.1,3.7-1,5.2-2.3c6.2-5.4,8.2-14,9.9-22C79.3,97.4,80.9,98.6,82.4,98.4z"/>
		<path d="M63.2,121.9c-0.1,0-0.3,0-0.4,0c-1.5-0.1-3-0.9-4-2.2c-0.8-1.1-1.1-2.3-0.8-3.5c0.1-0.5,0.3-1,0.5-1.6
			c0.1-0.3,0.3-0.8,0.4-1.3c-0.6,0.2-1.3,0.4-1.7,0.5c-4,1.1-8.4,0.7-12.1-1c-0.8-0.4-1.7-0.9-2.1-1.9c-0.4-0.9-0.6-2.6,1.9-4.6
			l0.2-0.2C50,102.3,55,98.4,57.6,93c1.4-3,2.1-6.3,2.7-9.8c0.5-2.8,1.1-5.6,2.1-8.4c4.1-11.2,15.9-19.2,28.8-19.6h0.3
			c1,0,1.9,0,2.6-0.4c0.5-0.2,0.9-0.7,1.4-1.2l0.3-0.3c4.9-5.1,12.7-7.6,20.2-6.4c6.8,1.1,13.3,5,18.2,10.9c4.2,5.1,7.3,11.5,9,19.1
			c0.1,0.4,0.2,0.7,0.2,1.1c0.4,1.7,0.7,3.4,1.4,4.9c0.7,1.6,3.1,3.4,5.1,5c1.4,1.1,2.8,2.1,3.7,3.2c1.5,1.7,1.5,3.1,1.1,3.9
			c-0.4,1-1.4,2.3-4.4,2.7c-12.8,1.7-29.4-4.9-35.1-18.9c-1.8-4.3-3.8-8.2-5.9-12.2l-0.9-1.6c-0.5-1-1.3-2.2-2.3-2.8
			c-1.2-0.6-2.8-0.3-4.4,0.1c-3.6,0.8-6.4,2.5-8.6,5c-3.9,4.6-4.3,10.1-4.7,15.9c-0.3,4.3-0.6,8.7-2.3,13.1
			c-0.4,1.1-1.1,2.6-2.7,3.3c-0.4,0.2-0.7,0.3-1.1,0.3c-1.1,0.2-2.3-0.2-3.5-1c-1.5,6.8-3.8,15.1-9.9,20.4
			C67.1,121,65.2,121.9,63.2,121.9z M60.7,109.8c0.5,0,1,0.3,1.3,0.8c0.8,1.4,0.1,3.4-0.6,5.1c-0.2,0.5-0.4,1-0.4,1.2
			c-0.1,0.4,0.1,0.8,0.3,1c0.4,0.5,1.1,0.9,1.7,1c1.2,0.1,2.6-0.6,4.1-1.9c5.6-4.9,7.6-12.5,9.5-21.2c0.1-0.5,0.5-1,1-1.1
			c0.5-0.2,1.1,0,1.5,0.4c1.7,1.7,2.6,1.8,3,1.8l0,0c0.1,0,0.2,0,0.3-0.1c0.4-0.2,0.8-0.7,1.1-1.7c1.5-4,1.8-8.2,2.1-12.2
			c0.4-6,0.9-12.3,5.4-17.7c2.6-3,6-5.1,10.2-6c2.1-0.4,4.3-0.8,6.3,0.2c1.9,0.9,3,2.6,3.7,4.1l0.9,1.6c2.2,4.1,4.2,8,6,12.5
			c5.1,12.5,20.5,18.6,31.9,17.1c1.4-0.2,1.9-0.6,2-0.7c0-0.1-0.1-0.4-0.5-0.9c-0.7-0.8-2-1.8-3.3-2.8c-2.4-1.9-5-3.8-6-6.1
			c-0.8-1.8-1.3-3.7-1.7-5.5l-0.2-1.1c-1.6-7.1-4.5-13.2-8.4-17.9c-4.4-5.3-10.4-8.9-16.4-9.8c-6.6-1.1-13.4,1-17.6,5.5l-0.3,0.3
			c-0.6,0.6-1.2,1.3-2.1,1.8c-1.3,0.7-2.7,0.7-3.9,0.8h-0.3c-11.6,0.3-22.3,7.5-26,17.6c-0.9,2.5-1.4,5.1-1.9,7.9
			c-0.7,3.5-1.4,7.2-3,10.5c-2.9,6-8.2,10.2-13.3,14.2l-0.2,0.2c-0.8,0.6-1,1.1-1,1.2c0,0,0.1,0.1,0.6,0.3c3.1,1.5,6.8,1.8,10.1,0.9
			c1.2-0.3,3.7-1.1,3.7-1.1C60.4,109.8,60.5,109.8,60.7,109.8z"/>
	</g>
	<path class="st20" d="M111.6,96.9L111.6,96.9c-1.2,0-2.1-1.3-2.1-2.9v-0.4c0-1.6,0.9-2.9,2.1-2.9s2.1,1.3,2.1,2.9V94
		C113.7,95.6,112.7,96.9,111.6,96.9"/>
	<path class="st20" d="M101.8,96.7L101.8,96.7c-1.2,0-2.1-1.3-2.1-2.9v-0.4c0-1.6,0.9-2.9,2.1-2.9s2.1,1.3,2.1,2.9v0.4
		C103.9,95.4,102.9,96.7,101.8,96.7"/>
	<path class="st21" d="M102.6,101.1c-0.3,0-0.5-0.1-0.7-0.3c-0.4-0.4-0.4-1,0-1.4c2.9-2.7,7.7-2.9,10.8-0.4c0.4,0.3,0.5,1,0.2,1.4
		s-1,0.5-1.4,0.2c-2.3-1.8-6-1.7-8.2,0.3C103.1,101,102.8,101.1,102.6,101.1z"/>
	<path d="M107.1,113.2c-5.4,0-10-2-12-5.2c-0.3-0.5-0.2-1.1,0.3-1.4s1.1-0.2,1.4,0.3c1.6,2.6,5.8,4.3,10.6,4.2
		c4.8-0.1,9-1.8,10.6-4.5c0.3-0.5,0.9-0.6,1.4-0.3c0.5,0.3,0.6,0.9,0.3,1.4c-2.4,4-7.9,5.4-12.3,5.5
		C107.2,113.2,107.2,113.2,107.1,113.2z"/>
	<ellipse class="st22" cx="87.6" cy="99.2" rx="1.5" ry="1.2"/>
	<circle class="st22" cx="94.5" cy="98.2" r="1.6"/>
	<ellipse class="st22" cx="93.4" cy="102.6" rx="1.2" ry="1"/>
	<ellipse class="st22" cx="120.2" cy="98.5" rx="1.3" ry="1.2"/>
	<ellipse class="st22" cx="125.2" cy="101.2" rx="1.3" ry="1"/>
	<ellipse class="st22" cx="127.5" cy="97.8" rx="0.9" ry="0.9"/>
	<path d="M78,97.7c-0.5,0-1-0.2-1.3-0.7c-0.2-0.2-3.7-5.9-2-14.5c0.2-0.8,1-1.3,1.8-1.2c0.8,0.2,1.3,1,1.2,1.8
		c-1.5,7.3,1.5,12.2,1.5,12.2c0.4,0.7,0.2,1.6-0.5,2.1C78.6,97.6,78.3,97.7,78,97.7z"/>
</g>
<g id="레이어_3">
</g>
<g id="레이어_4">
</g>
</svg>
