<?xml version="1.0" encoding="utf-8"?>
<!-- Generator: Adobe Illustrator 26.5.0, SVG Export Plug-In . SVG Version: 6.00 Build 0)  -->
<svg version="1.1" id="레이어_1" xmlns="http://www.w3.org/2000/svg" xmlns:xlink="http://www.w3.org/1999/xlink" x="0px"
	 y="0px" viewBox="0 0 390 390" style="enable-background:new 0 0 390 390;" xml:space="preserve">
<style type="text/css">
	.st0{fill:#08A4A5;}
	.st1{fill:#AAAAAA;}
	.st2{fill:#665000;}
	.st3{fill:#FDC603;}
	.st4{fill:#900000;}
	.st5{fill:#E20000;}
</style>
<g>
	<g>
		<path class="st0" d="M354.7,190.9c-0.7,1.3-1.3,3.1-1.8,4c-3.1,5.6-10.1,20.2-1.2,24.2c1.7,0.7,3.5,1,5.3,1.2
			c6.9,0.8,13.4,0.9,20.3,0.1c0.7-0.1,1.4-0.2,2-0.6c0.8-0.6,1.1-1.6,1.3-2.5c1.3-5.6,2-11.4,2-17.2c0-3.9-3.4-6-6.8-6.1
			c-4.2-0.1-9-2.7-13.2-3.9c-1.7-0.5-5-1.9-6.7-0.7C355.5,189.6,355.1,190.2,354.7,190.9z"/>
		<path d="M367.5,221.9c-3.5,0-6.9-0.2-10.6-0.6c-1.7-0.2-3.7-0.5-5.6-1.3c-2.2-1-3.7-2.6-4.4-4.8c-2.2-6.6,2.8-16.7,5.1-20.7
			c0.2-0.4,0.5-1,0.8-1.7c0.3-0.7,0.7-1.6,1-2.3l0,0c0.5-1,1-1.6,1.6-2c1.8-1.2,4.6-0.3,6.6,0.3c0.3,0.1,0.7,0.2,0.9,0.3
			c1.5,0.4,3,1,4.5,1.6c2.9,1.1,5.8,2.2,8.5,2.3c3.9,0.1,7.8,2.6,7.8,7.1c0,5.9-0.7,11.7-2,17.4c-0.3,1.1-0.6,2.4-1.7,3.1
			c-0.8,0.6-1.8,0.7-2.4,0.8C374.1,221.7,370.8,221.9,367.5,221.9z M357.7,189.8c-0.5,0-0.9,0.1-1.1,0.3c-0.2,0.1-0.5,0.5-0.9,1.3
			c-0.3,0.6-0.7,1.4-1,2.1c-0.3,0.7-0.6,1.4-0.9,1.9c-1.7,3-7,13.1-5,19.1c0.6,1.7,1.7,2.9,3.3,3.6c1.6,0.7,3.4,1,5,1.2
			c6.9,0.8,13.3,0.8,20.1,0.1c0.6-0.1,1.2-0.1,1.5-0.4c0.5-0.4,0.7-1.2,0.9-2c1.3-5.6,1.9-11.3,2-17c0-3.4-3-5-5.8-5.1
			c-2.9-0.1-6.1-1.3-9.1-2.4c-1.5-0.6-3-1.1-4.4-1.5c-0.3-0.1-0.6-0.2-1-0.3C360.4,190.3,358.8,189.8,357.7,189.8z"/>
	</g>
	<g>
		<path class="st0" d="M232.3,206c0,0,34.2-0.1,50.6,6.2c16.4,6.3,87-13.1,98.2-19.7c11.2-6.6-1.7,20.5-34.9,31
			c-33.2,10.6-81.8,19.7-97.4,10C233.4,223.9,232.3,206,232.3,206z"/>
		<path d="M270.4,238.7c-8.8,0-16.9-1.1-22-4.2c-15.8-9.8-17-27.6-17.1-28.4l-0.1-1.1l1.1,0c1.4,0,34.6-0.1,51,6.3
			c15.5,6,85.7-12.8,97.4-19.7c2.1-1.2,3.5-1.5,4.5-0.8c0.5,0.3,1.1,1.1,0.9,2.6c-0.8,5.5-13.7,22.8-39.5,31.1
			c-18.2,5.8-38.4,10.4-55.5,12.7C284.7,238,277.4,238.7,270.4,238.7z M233.4,207c0.5,3.9,3.2,17.8,16,25.7
			c14.2,8.8,60.4,1.4,96.5-10.1c12.6-4,21.5-10.2,26.7-14.6c6.7-5.7,10.2-11,11.2-13.8c0.4-1.1,0.3-1.6,0.2-1.7
			c-0.1,0-0.8,0-2.4,0.9c-5.9,3.5-27.2,10.1-47.5,14.8c-15.1,3.5-41.8,8.8-51.6,5C268.2,207.6,239.5,207.1,233.4,207z"/>
	</g>
	<path d="M369.4,212.2c-7.7-5.7-6.5-13-6.5-13.3l2,0.3c0,0.3-0.9,6.4,5.7,11.3L369.4,212.2z"/>
	<path d="M365.1,215.5c-3.6-1.3-6.1-4.3-7.4-8.6c-0.9-3.2-0.8-5.9-0.8-6l2,0.1c0,0.1-0.4,10,6.8,12.7L365.1,215.5z"/>
	<path d="M345.9,224.5c-11.9-4.8-8.4-18.5-8.3-18.6l1.9,0.5c0,0-0.8,3.1-0.3,6.7c0.7,4.6,3.2,7.8,7.5,9.6L345.9,224.5z"/>
</g>
<g>
	<g>
		<path class="st1" d="M260,108.5c0,0,0.4-9.7-1.7-14.5c0,0,8.4,5.3,10.6,13S260,108.5,260,108.5z"/>
		<path d="M267,111.9c-2.8,0-6.6-2-7.5-2.5c-0.3-0.2-0.5-0.5-0.5-0.9c0-0.1,0.4-9.5-1.6-14c-0.2-0.4-0.1-0.9,0.3-1.2
			c0.3-0.3,0.8-0.3,1.2-0.1c0.4,0.2,8.8,5.6,11,13.6c0.6,2.1,0.4,3.6-0.7,4.5C268.7,111.7,267.9,111.9,267,111.9z M261.1,107.9
			c2.5,1.3,6,2.5,6.9,1.8c0.4-0.3,0.4-1.1,0-2.3c-1.3-4.7-5.2-8.5-7.8-10.7C261.1,100.9,261.1,106.1,261.1,107.9z"/>
	</g>
	<g>
		<path class="st1" d="M247.5,112.4c0,0,0.4-9.7-1.7-14.5c0,0,8.4,5.3,10.6,13S247.5,112.4,247.5,112.4z"/>
		<path d="M254.5,115.7c-2.8,0-6.6-2-7.5-2.5c-0.3-0.2-0.5-0.5-0.5-0.9c0-0.1,0.4-9.5-1.6-14c-0.2-0.4-0.1-0.9,0.3-1.2
			c0.3-0.3,0.8-0.3,1.2-0.1c0.4,0.2,8.8,5.6,11,13.6c0.6,2.1,0.4,3.6-0.7,4.5C256.1,115.6,255.3,115.7,254.5,115.7z M248.5,111.8
			c2.5,1.3,6,2.5,6.9,1.8c0.4-0.3,0.4-1.1,0-2.3c-1.3-4.7-5.2-8.5-7.8-10.7C248.6,104.7,248.5,110,248.5,111.8z"/>
	</g>
	<g>
		<path class="st2" d="M353.5,163.7c-1.6,7.5-0.7,15.2,0.6,22.7c-4.5-3.2-9.5-5.7-14.6-7.6c-1.3-0.5-2.8-0.9-4.2-0.5
			c-1.3,0.4-2.1,1.5-2.9,2.6c-2.6,3.8-4.1,8.3-4.5,12.9c-4.4-4.3-9.8-7.6-15.7-9.6c-2.2-0.7-4.6-1.3-6.7-0.4
			c-4.4,1.7-4.7,7.7-4.3,12.4c-5-5.8-12.3-9.6-20-10.2c-3.9-0.3-5.7-0.1-7.6,3.4c-0.9,1.6-4.7,8.7-3.6,10.4
			c-3.4-5.3-9-12.9-16.3-10.2c-5.4,2-7.1,8.7-8,14.3c1.2-7.6-11.1-15-16.4-8.3c-0.4,0.6-1,1.2-1.6,1.1c-0.3-13.2-11.3-23-24.7-18.8
			c1-0.1,1.7-1.2,2-2.2c4.2-13-5.7-26-8.1-39.5c-0.1-0.8-0.2-1.7,0.2-2.4c0.4-0.6,1.2-0.9,1.9-1.2c20.8-7.4,42.4-12.4,64.3-14.9
			c4-0.5,8.1-0.8,12.1-0.2c6.8,1.1,12.8,4.9,18.8,8.2c8.5,4.7,17.5,8.7,27,10.4c6,1,12,1.1,18,1.2c5.2,0.1,14-1.2,18.7,1.4
			C367.4,144.3,355,156.9,353.5,163.7z"/>
		<path d="M245.9,205.1c-0.1,0-0.1,0-0.2,0c-0.5-0.1-0.9-0.6-0.8-1.2c0.6-3.8-2.8-7.4-6.2-9c-3.4-1.5-6.5-1-8.4,1.4
			c-0.5,0.7-1.3,1.7-2.6,1.5c-0.5-0.1-0.9-0.5-0.9-1c-0.1-6.5-3.1-12.3-7.8-15.7c-4.2-3-9.5-3.8-14.8-2.3c-0.3,0.2-0.6,0.3-1,0.3
			c-0.5,0-1-0.3-1-0.8c-0.1-0.5,0.2-1,0.7-1.1c0.2-0.1,0.4-0.1,0.5-0.2c0.3-0.2,0.6-0.7,0.8-1.4c2.6-8.1-0.4-16.2-3.7-24.7
			c-1.8-4.7-3.6-9.5-4.4-14.3c-0.2-1-0.3-2.1,0.3-3.1c0.6-1,1.7-1.4,2.4-1.6c20.8-7.4,42.5-12.5,64.5-14.9c4-0.5,8.3-0.8,12.4-0.2
			c6.1,1,11.5,4.1,16.8,7.1c0.8,0.4,1.5,0.9,2.3,1.3c10,5.6,18.5,8.9,26.7,10.3c5.7,1,11.5,1.1,17.2,1.2l0.6,0c1.3,0,2.8,0,4.3-0.1
			c4.9-0.2,11.1-0.4,14.8,1.7c7.4,4.1,2.9,12.1-0.7,18.6c-1.5,2.7-2.9,5.2-3.3,7.1l0,0c-1.6,7.5-0.6,15.5,0.6,22.3
			c0.1,0.4-0.1,0.8-0.5,1c-0.3,0.2-0.8,0.2-1.1,0c-4.5-3.1-9.3-5.6-14.4-7.5c-1.1-0.4-2.5-0.8-3.5-0.5c-1,0.3-1.8,1.3-2.4,2.2
			c-2.5,3.7-4,8-4.3,12.4c0,0.4-0.3,0.7-0.6,0.9c-0.4,0.1-0.8,0.1-1.1-0.2c-4.3-4.2-9.6-7.5-15.3-9.4c-1.8-0.6-4.1-1.2-6-0.4
			c-3,1.2-4.2,5-3.7,11.4c0,0.4-0.2,0.8-0.6,1c-0.4,0.2-0.9,0.1-1.2-0.3c-4.8-5.7-11.9-9.2-19.3-9.8c-3.7-0.3-5-0.1-6.7,2.9
			c-3.2,5.8-3.9,8.8-3.6,9.4c0.3,0.5,0.2,1.1-0.3,1.4c-0.5,0.3-1.1,0.2-1.4-0.3h0c0,0,0,0,0,0c-4-6.1-8.9-12.1-15.1-9.8
			c-4.8,1.8-6.4,7.9-7.3,13.6C246.8,204.8,246.4,205.1,245.9,205.1z M235,192.2c1.4,0,2.9,0.3,4.4,1c2.6,1.1,5.1,3.2,6.5,5.8
			c1.2-4.4,3.3-8.6,7.6-10.2c7.1-2.6,12.6,3.5,15.8,8.1c0.5-1.7,1.5-4.2,3.5-7.9c2.2-4.1,4.7-4.2,8.6-3.9c7,0.6,13.7,3.6,18.8,8.5
			c0-5.7,1.7-9.3,5.1-10.7c2.5-1,5.2-0.3,7.4,0.4c5.3,1.8,10.3,4.7,14.6,8.4c0.6-4.1,2.1-8,4.4-11.4c0.8-1.2,1.8-2.5,3.4-3
			c1.7-0.6,3.4,0,4.8,0.5c4.5,1.6,8.9,3.8,12.9,6.4c-1-6.5-1.7-13.8-0.2-20.8c0.5-2.2,2-4.9,3.5-7.7c4.1-7.4,6.7-12.9,1.5-15.8
			c-3.3-1.8-9.1-1.6-13.8-1.4c-1.6,0.1-3.2,0.1-4.5,0.1l-0.6,0c-5.8-0.1-11.7-0.2-17.5-1.2c-8.5-1.5-17.2-4.8-27.3-10.5
			c-0.8-0.4-1.5-0.9-2.3-1.3c-5.1-2.9-10.4-5.9-16.1-6.8c-3.9-0.6-8-0.2-11.9,0.2c-21.8,2.5-43.4,7.5-64,14.8
			c-0.6,0.2-1.2,0.4-1.4,0.8c-0.2,0.4-0.2,1-0.1,1.7c0.8,4.7,2.6,9.4,4.3,14c3.2,8.5,6.6,17.3,3.7,26.1c0,0,0,0.1,0,0.1
			c5.1-0.8,10,0.2,14.1,3.2c4.8,3.4,7.9,9.2,8.5,15.5C230.3,193.2,232.5,192.2,235,192.2z M353.5,163.7L353.5,163.7L353.5,163.7z"/>
	</g>
	<g>
		<path class="st0" d="M316.1,127.3c-12.9-2.9-24.9-7.6-36-15.1c-2.8-1.9-5.6-4-8.9-4.7c-3.7-0.9-7.5,0.1-11.2,1.1
			c-24.7,6.7-49.1,17.5-74.7,16.2c1.8,8.2,8.6,13.2,17,13.3c22.1,0.2,42.8-16.7,64.6-12.8c11.7,2.1,23.2,8.3,34.8,11.6
			c14,4,28.3,6.9,42.8,8.7c6.5,0.8,13.3,1.3,19.7-0.2c3-0.7,10.5-1.5,6.3-5.9c-5.4-5.7-17.7-4.8-24.9-6c-9.9-1.7-19.8-3.8-29.6-6
			C316.1,127.3,316.1,127.3,316.1,127.3z"/>
		<path d="M355,147.2c-3.6,0-7.1-0.3-10.6-0.8c-14.5-1.8-28.9-4.7-43-8.7c-4.8-1.4-9.6-3.3-14.3-5.1c-6.7-2.6-13.5-5.3-20.4-6.5
			c-11.6-2.1-22.8,1.8-34.6,6c-9.6,3.4-19.6,6.9-29.8,6.8c-9.1-0.1-16.2-5.6-18-14.1c-0.1-0.3,0-0.6,0.2-0.9
			c0.2-0.2,0.5-0.4,0.8-0.4c19,1,37.7-4.9,55.8-10.6c6.1-1.9,12.3-3.9,18.5-5.6c3.8-1,7.8-2,11.7-1.1c3.1,0.7,5.8,2.6,8.4,4.3
			l0.8,0.6c10.2,6.9,21.8,11.8,35.6,14.9l0.1,0c9.4,2.1,19.4,4.4,29.5,6c1.8,0.3,4,0.5,6.3,0.6c6.9,0.5,14.8,1.1,19.1,5.6
			c1.3,1.4,1.8,2.6,1.4,3.8c-0.7,2.2-4.1,2.9-6.9,3.5c-0.5,0.1-0.9,0.2-1.3,0.3C361.4,146.9,358.2,147.2,355,147.2z M260.3,123.6
			c2.3,0,4.6,0.2,6.9,0.6c7,1.3,14,4,20.7,6.6c4.6,1.8,9.5,3.7,14.2,5c13.9,4,28.3,6.9,42.7,8.7c6.3,0.8,13.1,1.3,19.4-0.2
			c0.4-0.1,0.8-0.2,1.3-0.3c1.6-0.3,5-1,5.4-2.1c0.1-0.4-0.2-1.1-0.9-1.8c-3.7-3.9-11.2-4.5-17.8-5c-2.4-0.2-4.6-0.3-6.5-0.7
			c-10.2-1.7-20.2-3.9-29.6-6.1l-0.1,0c0,0,0,0,0,0c-14.1-3.2-25.9-8.2-36.3-15.2l-0.9-0.6c-2.4-1.7-4.9-3.4-7.7-4
			c-3.4-0.8-7,0-10.7,1c-6.2,1.7-12.4,3.6-18.5,5.5c-17.8,5.6-36.3,11.4-55.2,10.7c2,6.8,8.1,11.1,15.7,11.2
			c9.9,0.1,19.7-3.3,29.1-6.7C240.9,127,250.5,123.6,260.3,123.6z"/>
	</g>
	<path d="M277.1,181.6c-0.4,0-0.8-0.3-0.9-0.7c-3.3-9.2-6.1-18.7-8.4-28.2c-0.1-0.5,0.2-1.1,0.7-1.2c0.5-0.1,1.1,0.2,1.2,0.7
		c2.2,9.5,5,18.9,8.3,28c0.2,0.5-0.1,1.1-0.6,1.3C277.3,181.6,277.2,181.6,277.1,181.6z"/>
	<path d="M294.8,184.7c-0.4,0-0.7-0.2-0.9-0.5c-2.2-4.2-11.2-29.2-11.5-30.2c-0.2-0.5,0.1-1.1,0.6-1.3c0.5-0.2,1.1,0.1,1.3,0.6
		c0.1,0.3,9.3,25.9,11.4,30c0.3,0.5,0.1,1.1-0.4,1.4C295.1,184.6,295,184.7,294.8,184.7z"/>
	<path d="M321.5,180.7c-0.4,0-0.8-0.2-0.9-0.6c-3.5-9.1-8.5-17.5-14.8-25c-0.4-0.4-0.3-1.1,0.1-1.4c0.4-0.4,1.1-0.3,1.4,0.1
		c6.4,7.6,11.5,16.2,15.1,25.5c0.2,0.5-0.1,1.1-0.6,1.3C321.8,180.7,321.6,180.7,321.5,180.7z"/>
	<path d="M349.5,176.4c-0.3,0-0.6-0.2-0.8-0.4c-7.1-10.6-15.4-20.3-24.7-28.8c-0.4-0.4-0.4-1-0.1-1.4s1-0.4,1.4-0.1
		c9.5,8.7,17.9,18.5,25.1,29.2c0.3,0.5,0.2,1.1-0.3,1.4C349.8,176.4,349.6,176.4,349.5,176.4z"/>
	<path d="M266.7,189.2c-0.5,0-0.9-0.4-1-0.9c-2.1-18.4-15.8-49.3-15.9-49.6c-0.2-0.5,0-1.1,0.5-1.3c0.5-0.2,1.1,0,1.3,0.5
		c0.6,1.3,13.9,31.5,16.1,50.2c0.1,0.6-0.3,1.1-0.9,1.1C266.8,189.2,266.7,189.2,266.7,189.2z"/>
	<path d="M243.3,188.7c-0.5,0-1-0.4-1-1c-0.2-5.3-5.3-41.3-5.4-41.7c-0.1-0.6,0.3-1.1,0.9-1.1c0.5-0.1,1.1,0.3,1.1,0.9
		c0.2,1.5,5.2,36.5,5.4,41.9C244.3,188.2,243.9,188.7,243.3,188.7C243.3,188.7,243.3,188.7,243.3,188.7z"/>
	<path d="M228.3,178.7C228.3,178.7,228.3,178.7,228.3,178.7c-0.6,0-1-0.5-1-1.1c0.5-9.2-4.6-37.9-4.7-38.1c-0.1-0.5,0.3-1.1,0.8-1.2
		c0.5-0.1,1.1,0.3,1.2,0.8c0.2,1.2,5.2,29.1,4.7,38.6C229.3,178.3,228.8,178.7,228.3,178.7z"/>
	<g>
		<path class="st1" d="M106.9,105c0,0,0.7-9.7,3.1-14.2c0,0-8.2,4.5-11,11.9C96.2,110.2,106.9,105,106.9,105z"/>
		<path d="M100.8,107.7c-1,0-1.8-0.2-2.5-0.8c-1-0.9-1.1-2.5-0.3-4.6c2.9-7.7,11.1-12.3,11.4-12.5c0.4-0.2,0.9-0.1,1.2,0.2
			c0.3,0.3,0.4,0.8,0.2,1.2c-2.3,4.3-3,13.7-3,13.8c0,0.4-0.2,0.7-0.6,0.8C106.5,106.3,103.3,107.7,100.8,107.7z M107.9,93.4
			c-2.5,1.9-6.2,5.3-7.9,9.7c-0.5,1.2-0.5,2.1-0.2,2.4c0.7,0.7,3.7,0,6.2-1.1C106.1,102.6,106.6,97.5,107.9,93.4z M106.9,105
			L106.9,105L106.9,105z"/>
	</g>
	<g>
		<path class="st1" d="M117.7,110c0,0,0.7-9.7,3.1-14.2c0,0-8.2,4.5-11,11.9C107,115.2,117.7,110,117.7,110z"/>
		<path d="M111.6,112.8c-1,0-1.8-0.2-2.5-0.8c-1-0.9-1.1-2.5-0.3-4.6c2.9-7.7,11.1-12.3,11.4-12.5c0.4-0.2,0.9-0.1,1.2,0.2
			c0.3,0.3,0.4,0.8,0.2,1.2c-2.3,4.3-3,13.7-3,13.8c0,0.4-0.2,0.7-0.6,0.8C117.3,111.3,114.2,112.8,111.6,112.8z M118.7,98.4
			c-2.5,1.9-6.2,5.3-7.9,9.7c-0.5,1.2-0.5,2.1-0.2,2.4c0.7,0.7,3.7,0,6.2-1.1C116.9,107.6,117.5,102.5,118.7,98.4z M117.7,110
			L117.7,110L117.7,110z"/>
	</g>
	<g>
		<path class="st2" d="M16.7,151c0.6,7.6-1.1,15.2-3.1,22.5c4.4-2.7,9.1-4.8,14-6.2c1.3-0.4,2.6-0.7,3.8-0.1
			c1.1,0.5,1.8,1.7,2.3,2.9c1.9,4,2.8,8.7,2.5,13.3c4.4-3.9,9.7-6.7,15.1-8.1c2-0.5,4.2-0.8,6,0.2c3.7,2.1,3.4,8.1,2.5,12.8
			C65,183,72,180,79,180.1c3.5,0.1,5.1,0.5,6.5,4.1c0.6,1.7,3.2,9.1,2,10.7c3.7-4.9,9.6-11.9,15.8-8.5c4.6,2.5,5.4,9.3,5.5,15
			c-0.2-7.6,11.7-13.9,15.6-6.7c0.3,0.6,0.7,1.3,1.3,1.3c1.7-13.1,12.8-21.8,24.3-16.3c-0.9-0.2-1.4-1.3-1.5-2.4
			c-2.3-13.3,8.1-25.3,11.7-38.5c0.2-0.8,0.4-1.7,0.1-2.4c-0.3-0.7-1-1.1-1.6-1.4c-17.8-9.3-36.6-16.3-56-20.9
			c-3.6-0.8-7.2-1.6-10.9-1.3c-6.2,0.4-12,3.6-17.8,6.4c-8.1,3.9-16.7,7-25.4,7.8c-5.5,0.5-10.9,0-16.3-0.5
			c-4.7-0.4-12.5-2.5-16.9-0.3C6.5,130.4,16.2,144.1,16.7,151z"/>
		<path d="M108.8,202.3c-0.5,0-1-0.4-1-1c0,0,0,0,0,0c-0.2-5.4-0.9-11.9-5-14.1c-5.2-2.8-10.5,2.9-14.5,8.3l0,0c0,0,0,0,0,0
			c-0.3,0.4-1,0.5-1.4,0.2c-0.4-0.3-0.5-1-0.2-1.4l0,0l0,0c0.3-0.5,0-3.6-2.2-9.7c-1.1-3.1-2.3-3.4-5.5-3.4
			c-6.7-0.1-13.4,2.8-18.4,7.9c-0.3,0.3-0.8,0.4-1.2,0.2c-0.4-0.2-0.6-0.6-0.5-1.1c0.8-4.3,1.2-9.9-2-11.7c-1.6-0.9-3.6-0.5-5.3-0.1
			c-5.3,1.4-10.4,4.1-14.7,7.8c-0.3,0.3-0.7,0.3-1.1,0.1c-0.4-0.2-0.6-0.6-0.6-1c0.2-4.5-0.6-8.9-2.5-12.8c-0.4-1-1-2-1.8-2.4
			c-0.9-0.4-2.1-0.1-3.1,0.1c-4.8,1.4-9.4,3.4-13.7,6c-0.4,0.2-0.8,0.2-1.1-0.1c-0.3-0.2-0.5-0.7-0.4-1.1c1.9-6.7,3.7-14.6,3.1-22.2
			l0,0c-0.2-1.9-1.1-4.6-2.2-7.4c-2.5-6.7-5.6-15,1.5-18.5c3.6-1.8,9.2-0.9,13.6-0.3c1.4,0.2,2.8,0.4,3.9,0.5l0.6,0
			c5.1,0.4,10.4,0.9,15.6,0.4c7.5-0.6,15.5-3.1,25.1-7.7c0.7-0.4,1.5-0.7,2.2-1.1c5.1-2.5,10.3-5.1,15.9-5.4
			c3.8-0.3,7.6,0.5,11.2,1.4c19.4,4.6,38.4,11.6,56.2,21c0.6,0.3,1.6,0.8,2,1.9c0.4,1,0.2,2.1,0,3.1c-1.3,4.7-3.5,9.3-5.6,13.8
			c-3.9,8.2-7.6,16-6.1,24.3c0.1,0.8,0.4,1.2,0.5,1.4c0.2,0.1,0.3,0.1,0.5,0.2c0.5,0.2,0.7,0.7,0.5,1.2c-0.2,0.5-0.6,0.8-1.1,0.7
			c-0.3,0-0.6-0.2-0.9-0.4c-4.2-1.8-8.7-1.7-12.5,0.4c-5.1,2.8-8.7,8.5-9.6,15.4c-0.1,0.5-0.5,0.8-0.9,0.9c-1.2,0.1-1.9-1.1-2.3-1.8
			c-1.8-3.3-5.2-2.8-6.5-2.4c-3.6,1-7.4,4.5-7.3,8.6c0,0,0,0,0,0C109.8,201.9,109.4,202.3,108.8,202.3
			C108.8,202.3,108.8,202.3,108.8,202.3z M99.9,184.4c1.2,0,2.5,0.3,3.8,1c3.6,1.9,5.1,6,5.7,10.5c1.7-2.5,4.4-4.4,7.1-5.2
			c3.6-1,6.8,0.1,8.6,3c1.4-6.7,5.2-12.2,10.3-15c3.8-2,8-2.5,12.1-1.3c0-0.1,0-0.1,0-0.2c-1.6-8.9,2.4-17.3,6.3-25.5
			c2.1-4.4,4.2-8.9,5.5-13.5c0.2-0.6,0.3-1.3,0.1-1.7c-0.2-0.4-0.6-0.6-1.1-0.9c-17.7-9.3-36.5-16.3-55.7-20.8
			c-3.5-0.8-7-1.6-10.6-1.3c-5.2,0.4-10.3,2.8-15.2,5.2c-0.7,0.4-1.5,0.7-2.2,1.1c-9.8,4.7-18,7.2-25.8,7.9
			c-5.4,0.5-10.7,0-15.9-0.4l-0.6,0c-1.2-0.1-2.6-0.3-4-0.5c-4.2-0.6-9.3-1.4-12.4,0.1c-5,2.4-3.4,8.1-0.5,15.9c1.1,3,2.1,5.7,2.3,8
			l0,0c0.5,7-0.9,14.2-2.5,20.5c3.9-2.2,7.9-3.8,12.1-5c1.5-0.4,3.1-0.7,4.5,0c1.4,0.7,2.2,2.1,2.8,3.3c1.7,3.6,2.6,7.5,2.7,11.5
			c4.2-3.3,8.9-5.6,13.9-6.9c2-0.5,4.6-0.9,6.8,0.3c2.9,1.7,4,5.3,3.4,10.9c5.1-4.3,11.3-6.6,17.7-6.5c3.5,0.1,5.8,0.4,7.4,4.8
			c1.3,3.7,2,6.2,2.2,7.9C91.3,188.5,95.3,184.4,99.9,184.4z"/>
	</g>
	<g>
		<path class="st0" d="M54.5,118.3c11.9-1.7,23.2-5.2,34-11.6c2.7-1.6,5.5-3.4,8.5-3.9c3.4-0.5,6.7,0.8,9.9,2.1
			c21.4,9,42.1,22.1,65.2,23.1c-2.5,8-9.2,12.3-16.8,11.6c-19.9-1.9-36.5-20.6-56.5-18.8c-10.8,1-21.8,6.1-32.5,8.2
			c-13,2.6-26.2,4.2-39.4,4.6c-5.9,0.2-12.1,0-17.7-2.1c-2.6-1-9.2-2.5-5-6.5c5.5-5.2,16.4-3.1,23-3.6
			C36.2,120.9,45.3,119.6,54.5,118.3C54.4,118.4,54.4,118.3,54.5,118.3z"/>
		<path d="M156.9,140.8c-0.6,0-1.1,0-1.7-0.1c-9.2-0.9-17.8-5.3-26.1-9.6c-10.1-5.2-19.6-10.2-30.2-9.2c-6.2,0.6-12.7,2.6-19,4.5
			c-4.4,1.4-9,2.8-13.4,3.7c-13.1,2.6-26.4,4.2-39.6,4.6c-6,0.2-12.3,0-18.1-2.2c-0.3-0.1-0.7-0.2-1.1-0.4c-2.3-0.8-5.4-1.8-5.8-4
			c-0.3-1.2,0.3-2.4,1.6-3.7c4.4-4.1,11.5-4,17.9-3.8c2.1,0,4.1,0.1,5.7,0c9.3-0.7,18.5-2,27.2-3.2l0.1,0c0,0,0,0,0,0
			c12.7-1.8,23.7-5.6,33.6-11.4l0.8-0.5c2.5-1.5,5.1-3.1,8.1-3.5c3.6-0.5,7.1,0.8,10.4,2.2c5.4,2.3,10.8,4.8,16,7.3
			c15.6,7.4,31.7,15,48.8,15.8c0.3,0,0.6,0.2,0.8,0.4s0.2,0.6,0.1,0.9C170.6,136.1,164.4,140.8,156.9,140.8z M101.5,119.8
			c10.1,0,19.5,4.8,28.5,9.5c8.1,4.2,16.5,8.5,25.3,9.4c6.9,0.6,12.7-3.1,15.3-9.6c-17-1.1-32.9-8.6-48.2-15.9
			c-5.2-2.5-10.6-5-15.9-7.3c-3.2-1.3-6.3-2.5-9.4-2c-2.5,0.4-5,1.8-7.3,3.2l-0.8,0.5c-10.1,6-21.4,9.9-34.4,11.7l-0.1,0
			c-8.7,1.2-18,2.5-27.3,3.2c-1.8,0.1-3.8,0.1-5.9,0c-5.9-0.1-12.7-0.3-16.4,3.3c-0.8,0.7-1.1,1.4-1.1,1.8c0.2,1.1,3,2.1,4.5,2.6
			c0.4,0.1,0.8,0.3,1.2,0.4c5.4,2.1,11.5,2.2,17.3,2c13.1-0.4,26.3-1.9,39.2-4.6c4.4-0.9,8.9-2.3,13.3-3.6c6.4-2,12.9-4,19.4-4.6
			C99.6,119.8,100.5,119.8,101.5,119.8z"/>
	</g>
	<path d="M83.4,176c-0.1,0-0.3,0-0.4-0.1c-0.5-0.2-0.7-0.8-0.5-1.3c4-8.8,7.6-17.9,10.6-27.1c0.2-0.5,0.7-0.8,1.3-0.6
		c0.5,0.2,0.8,0.7,0.6,1.3c-3.1,9.2-6.7,18.4-10.7,27.3C84.1,175.8,83.8,176,83.4,176z"/>
	<path d="M67.2,177.4c-0.2,0-0.4,0-0.5-0.1c-0.5-0.3-0.6-0.9-0.3-1.4c2.4-3.9,13.5-28.5,13.6-28.7c0.2-0.5,0.8-0.7,1.3-0.5
		c0.5,0.2,0.7,0.8,0.5,1.3c-0.5,1-11.3,25-13.8,28.9C67.8,177.2,67.5,177.4,67.2,177.4z"/>
	<path d="M43.6,171c-0.1,0-0.3,0-0.4-0.1c-0.5-0.2-0.7-0.8-0.5-1.3c4.3-8.9,9.8-16.9,16.4-23.9c0.4-0.4,1-0.4,1.4,0
		c0.4,0.4,0.4,1,0,1.4c-6.5,6.8-11.9,14.7-16.1,23.4C44.4,170.7,44,171,43.6,171z"/>
	<path d="M19.1,164c-0.2,0-0.4-0.1-0.6-0.2c-0.4-0.3-0.5-1-0.2-1.4c7.6-9.9,16.3-18.9,25.8-26.6c0.4-0.4,1.1-0.3,1.4,0.1
		c0.4,0.4,0.3,1.1-0.1,1.4c-9.4,7.6-17.9,16.5-25.5,26.3C19.7,163.9,19.4,164,19.1,164z"/>
	<path d="M91.9,184.6c-0.1,0-0.1,0-0.2,0c-0.5-0.1-0.9-0.7-0.8-1.2c4.1-18.4,19.9-48,20.1-48.3c0.3-0.5,0.9-0.7,1.4-0.4
		c0.5,0.3,0.7,0.9,0.4,1.4c-0.2,0.3-15.9,29.7-19.9,47.8C92.7,184.2,92.3,184.6,91.9,184.6z"/>
	<path d="M113,186.3c0,0-0.1,0-0.2,0c-0.5-0.1-0.9-0.6-0.8-1.1c0.8-5.3,9.2-39.6,9.6-41.1c0.1-0.5,0.7-0.9,1.2-0.7
		c0.5,0.1,0.9,0.7,0.7,1.2c-0.1,0.4-8.7,35.6-9.5,40.9C113.9,185.9,113.4,186.3,113,186.3z"/>
	<path d="M127.5,177.8C127.5,177.8,127.5,177.8,127.5,177.8c-0.6,0-1-0.5-1-1.1c0.6-9.4,8.2-36.7,8.6-37.9c0.1-0.5,0.7-0.8,1.2-0.7
		c0.5,0.1,0.8,0.7,0.7,1.2c-0.1,0.3-7.9,28.3-8.5,37.5C128.5,177.4,128,177.8,127.5,177.8z"/>
</g>
<g>
	<g>
		<path class="st0" d="M309.6,213.5c0,0,13.9-3.1,17.4,0c3.5,3.1,1.6,10.9,1.6,10.9L309.6,213.5z"/>
		<path d="M328.6,225.4c-0.2,0-0.3,0-0.5-0.1l-19-10.9c-0.4-0.2-0.6-0.6-0.5-1c0.1-0.4,0.4-0.7,0.8-0.8c1.5-0.3,14.5-3.1,18.3,0.2
			c3.9,3.5,2,11.5,1.9,11.9c-0.1,0.3-0.3,0.6-0.6,0.7C328.9,225.3,328.7,225.4,328.6,225.4z M312.4,214l15.5,8.8
			c0.4-2.5,0.5-6.7-1.6-8.5C324.4,212.5,317.6,213.1,312.4,214z"/>
	</g>
	<g>
		<path class="st0" d="M131.1,72.1c0.2-2.4,2.4-4.1,4.8-3.7c8.6,1.5,27.7,5.9,38.1,15.5c13.6,12.7,17.8,20.3,14.9,29.8
			c-2.9,9.5-1.6,11.4,2.2,14.3c3.8,2.9,24.1,4.1,31.4,8.9c7.3,4.8,18.1,12.1,20.6,17.8c0,0,10.8,11.4,15.5,18.1
			c0,0,26,13.6,33.6,27.6c7.6,14,20,13.3,25.1,14.9c5.1,1.6,9.8,3.8,11.1,9.2s1.3,5.4,1.3,5.4s-7.6-7.9-11.4-7.9s-6.3,0.3-6.3,0.3
			s13,7,13.6,12.1c0.6,5.1,0.3,10.8,0.3,10.8s-8.2-14-11.1-14.6c-2.9-0.6-9.8,0-9.8,0s-1.6,7.3,1,10.1c2.5,2.9,7,4.4,7,4.4
			s-11.4,0-14.9-5.1c-3.5-5.1-3.2-16.2-3.2-16.2s-23.2-17.8-27.3-19.3c-4.1-1.6-12.1-11.7-12.1-11.7s-20.9-13.3-24.9-15.9
			c0,0-9.7-0.6-11.6-0.6s-1.6,12.4,1.6,13.3c3.2,1,12.7,13.3,12.7,13.3s17,10.7,22.9,27.7c6,17,11,24.5,14.5,30.2
			c3.5,5.7,7.5,17.6,6.6,35.2c0,0,10.7,11.3,13.8,13.2c3.1,1.9,1.3,11.9-7.9,8.8c0,0-8.2,4.7-13.8,0.6c0,0-8.2,3.2-11-0.3
			c-2.8-3.5-2.2-6,0.6-11.9c2.8-6,2.8-6,2.8-6s-11.3-28.3-14.8-31.7s-7.2-7.2-7.5-11.9c-0.3-4.7-17.1-4.9-19.8-10.3
			c0,0-6.4,4.3-17.9,2.4c-11.5-1.9-12.3-6.4-12.3-6.4s-10.7,1.1-12.8,1.3c-2.1,0.3-14.4,7.5-17.9,7.8c0,0-7.5,11.5-11.8,12.3
			c0,0,1.3,9.1,2.7,11.5s-4.8,15.8-2.7,20.3c2.1,4.5,5.1,7.8,5.3,11.2c0.3,3.5,0.5,6.1-3.7,6.1s-12.4-0.3-17.2,0.3
			c-4.7,0.5-8.2,3.5-11.4,1.6c-3.2-1.9-5.3-8.8-2.1-10.4c3.2-1.6,13.4-10.2,13.4-10.2s-1.3-25.9-2.9-29.9c-1.6-4-8-10.4-7-16
			c1.1-5.6,25.7-32.3,27.8-33.1c2.1-0.8,17.4-14.4,21.4-14.4c0,0-5.6-10.7-6.7-13.1c-1.1-2.4-10.4-5.1-14.2-12.8
			c0,0-15.2,6.7-17.9,10.4c-2.7,3.7-9.1,11.2-11.8,11.2c-2.7,0-31,8-37.7,7c-6.7-1.1-19.8,2.5-22.1,4.3s-10.3-3.9-8.2-9.2
			c2.1-5.3,8.2-6.2,8.2-9.4s-1.4-8.7-5-8.9c-3.7-0.2-6-0.7-6-0.7s7.1-5,12.1-2.5s8,8,8,10.3s-0.7,4.4-0.7,4.4s14.4-1.1,21.3-5.5
			s13.1-6.6,19.2-6c0,0,13.1-12.6,14-15.8c0.9-3.2,12.6-27,28.2-30l6.9-1.4c0,0-11.5-2.1-11.5-7.3c0-5.3,3.2-8,3.2-8
			s-2.5-9.2-4.4-9.9c-0.7-0.2-1.7,4.1-1.7,4.1l-6.5-6.4C137.5,105.3,128.9,99.5,131.1,72.1z"/>
		<path d="M275,321.1c-1.9,0-3.9-0.4-5.7-1.6c-2,0.7-8.8,2.7-11.6-0.8c-3.2-4-2.3-7,0.5-13l2.6-5.6c-3.3-8.1-11.7-28.3-14.4-31
			c-3.5-3.5-7.5-7.5-7.8-12.6c-0.1-1.7-4.7-3-8.3-4c-4.3-1.2-8.8-2.5-10.8-5c-2.2,1.1-8.3,3.6-17.7,2.1c-9.2-1.5-12-4.7-12.8-6.3
			c-2.5,0.3-10.3,1-12,1.3c-0.7,0.1-3.8,1.6-6.4,2.9c-5,2.5-8.8,4.4-11,4.7c-1.4,2.1-7,10.3-11.2,12.1c0.5,2.9,1.5,8.6,2.4,10.3
			c0.7,1.3,0.1,4-1.1,8.5c-1.2,4.3-2.6,9.7-1.5,11.9c0.8,1.6,1.6,3,2.4,4.4c1.5,2.5,2.8,4.7,3,7.2l0,0.1c0.2,2.4,0.3,4.4-0.9,5.8
			c-0.8,0.9-2.1,1.3-3.8,1.3c-1,0-2.1,0-3.4,0c-4.2,0-10-0.1-13.7,0.3c-1.7,0.2-3.2,0.7-4.6,1.2c-2.6,0.9-5,1.7-7.4,0.3
			c-2.4-1.4-4.3-5.2-4.2-8.3c0.1-1.8,0.8-3.2,2.1-3.9c2.7-1.4,10.9-8.1,12.8-9.7c-0.4-7.5-1.6-26-2.8-29.1c-0.5-1.2-1.5-2.7-2.5-4.3
			c-2.4-3.6-5.3-8.1-4.5-12.3c1.1-5.8,25.8-32.9,28.4-33.9c0.6-0.2,3.3-2.3,5.6-4.2c6.3-4.9,11.5-8.9,14.6-10
			c-1.5-2.9-5.2-10-6.1-12c-0.3-0.6-1.8-1.6-3.4-2.5c-3.3-2-7.7-4.8-10.3-9.4c-4.7,2.1-14.7,7-16.6,9.7c-0.1,0.1-8.5,11.6-12.6,11.6
			c-0.8,0-4.8,1-9,2c-10.2,2.4-24.1,5.7-28.8,5c-6.5-1-19.3,2.5-21.3,4.1c-1.3,1.1-3.7,0.6-6.1-1.1c-2.8-2.1-5.1-5.7-3.7-9.2
			c1.2-3,3.6-4.7,5.5-6.1c1.7-1.2,2.7-2,2.7-2.9c0-3.1-1.3-7.8-4.1-7.9c-3.7-0.2-6-0.7-6.1-0.7c-0.4-0.1-0.7-0.4-0.8-0.8
			c-0.1-0.4,0.1-0.8,0.4-1c0.3-0.2,7.7-5.4,13.2-2.6c5.2,2.6,8.6,8.4,8.6,11.2c0,1.2-0.2,2.4-0.4,3.2c3.8-0.4,14.1-1.8,19.4-5.2
			c7.4-4.7,13.6-6.7,19.4-6.2c5-4.8,12.8-12.9,13.4-15c0.7-2.6,12.5-27.6,29-30.7l2.6-0.5c-3.6-1.2-8-3.4-8-7.2
			c0-4.5,2.1-7.3,3.1-8.3c-1-3.5-2.3-6.8-3.1-8.1c-0.3,0.7-0.6,1.8-0.9,2.9c-0.1,0.4-0.4,0.6-0.7,0.7c-0.3,0.1-0.7,0-1-0.2l-6.5-6.4
			c-1-0.7-8.9-7.6-6.8-34.1c0.1-1.4,0.8-2.8,2-3.6c1.1-0.9,2.6-1.2,4-1c8.1,1.4,27.9,5.8,38.6,15.7c14.3,13.3,18.1,21.1,15.2,30.8
			c-2.8,9.2-1.5,10.6,1.9,13.2c1.5,1.1,6.5,2.1,11.8,3.1c7.2,1.4,15.3,3,19.5,5.7c8.9,5.8,18.3,12.5,20.9,18
			c1.2,1.3,10.8,11.5,15.4,17.9c2.7,1.4,26.4,14.3,33.8,27.9c6,10.9,14.9,12.6,20.8,13.6c1.4,0.3,2.6,0.5,3.6,0.8
			c5.3,1.7,10.4,4,11.8,9.9l1.3,5.4c0.1,0.4-0.1,0.9-0.5,1.1c-0.4,0.2-0.9,0.1-1.2-0.2c-2.8-2.9-8.2-7.6-10.7-7.6
			c-1.1,0-2.1,0-3,0.1c4,2.5,10.8,7.1,11.3,11.2c0.6,5.1,0.3,10.7,0.3,11c0,0.4-0.3,0.8-0.8,0.9c-0.4,0.1-0.9-0.1-1.1-0.5
			c-3.9-6.5-9-13.8-10.5-14.1c-2.1-0.5-6.9-0.2-8.8,0c-0.4,2.3-0.7,6.7,0.9,8.5c2.3,2.6,6.5,4.1,6.6,4.2c0.5,0.2,0.7,0.6,0.7,1.1
			c-0.1,0.5-0.5,0.8-1,0.8c-0.5,0-12-0.1-15.7-5.5c-3.2-4.7-3.4-13.9-3.4-16.3c-6.7-5.1-23.4-17.7-26.6-18.9
			c-4.1-1.6-11.4-10.6-12.4-11.9c-1.8-1.2-20.3-12.9-24.5-15.6c-1.5-0.1-8.9-0.6-11-0.6c-0.5,1-0.7,5.6,0.3,9.1
			c0.5,1.5,1,2.2,1.3,2.3c3.2,1,11.2,11.1,13.1,13.5c1.8,1.2,17.4,11.6,23.2,28.1c5.5,15.6,10.1,23.1,13.5,28.6l0.8,1.4
			c1.9,3,7.8,14.5,6.8,35.3c3.2,3.3,10.9,11.3,13.3,12.7c1.9,1.2,2.5,4.5,1.2,7.3c-1.3,2.7-4.4,5-9.5,3.4
			C282.2,319.5,278.8,321.1,275,321.1z M269.4,317.4c0.2,0,0.4,0.1,0.6,0.2c5.1,3.6,12.7-0.6,12.7-0.7c0.3-0.1,0.6-0.2,0.8-0.1
			c4.9,1.7,6.8-1,7.4-2.2c0.9-2,0.6-4.2-0.4-4.8c-3.2-1.9-13.6-12.9-14-13.4c-0.2-0.2-0.3-0.5-0.3-0.7c1.1-20.5-4.7-31.7-6.5-34.6
			l-0.8-1.3c-3.4-5.6-8.2-13.3-13.7-29c-5.8-16.4-22.4-27-22.5-27.1c-0.1-0.1-0.2-0.1-0.3-0.2c-3.6-4.7-10.1-12.3-12.2-13
			c-3.4-1-3.8-9.4-3.3-12.3c0.1-0.7,0.4-2.9,2-2.9c1.9,0,11.2,0.6,11.6,0.6c0.2,0,0.3,0.1,0.5,0.2c4,2.5,24.9,15.9,24.9,15.9
			c0.1,0.1,0.2,0.1,0.3,0.2c2.2,2.8,8.5,10.2,11.6,11.4c4.2,1.6,26.6,18.8,27.5,19.5c0.3,0.2,0.4,0.5,0.4,0.8c0,0.1-0.3,10.8,3,15.6
			c1.7,2.5,5.8,3.7,9.1,4.2c-1-0.6-1.9-1.4-2.7-2.3c-2.8-3.1-1.4-10.2-1.2-11c0.1-0.4,0.5-0.7,0.9-0.8c0.3,0,7.2-0.6,10.1,0
			c2.4,0.5,7.1,7.5,10,12.1c0-2-0.1-4.7-0.4-7.2c-0.4-3.3-8.3-8.7-13.1-11.3c-0.4-0.2-0.6-0.6-0.5-1.1c0.1-0.4,0.4-0.8,0.9-0.8
			c0.1,0,2.6-0.3,6.5-0.3c2.8,0,7,3.4,9.7,5.8l-0.5-2c-1.2-4.9-5.7-7-10.4-8.5c-0.9-0.3-2.1-0.5-3.4-0.7
			c-5.9-1.1-15.8-2.9-22.2-14.6c-7.4-13.5-32.9-27-33.2-27.2c-0.1-0.1-0.3-0.2-0.4-0.3c-4.7-6.5-15.3-17.9-15.5-18
			c-0.1-0.1-0.1-0.2-0.2-0.3c-2.6-5.8-15-13.9-20.2-17.3c-3.9-2.5-11.8-4.1-18.8-5.4c-6-1.2-10.7-2.1-12.6-3.5
			c-4.5-3.4-5.4-5.9-2.6-15.4c2.7-8.9-1-16.1-14.6-28.8C163,75,143.6,70.8,135.7,69.4c-0.9-0.2-1.7,0.1-2.4,0.6
			c-0.7,0.5-1.1,1.3-1.2,2.2l-1-0.1l1,0.1c-2.1,26.3,5.9,32.3,6,32.3c0,0,0.1,0.1,0.1,0.1l5.3,5.2c0.8-2.6,1.4-2.9,1.6-3.1
			c0.3-0.2,0.7-0.2,1-0.1c2,0.8,4,6.9,5,10.5c0.1,0.4,0,0.8-0.3,1c-0.1,0.1-2.9,2.5-2.9,7.3c0,3.6,7.7,5.8,10.6,6.3
			c0.5,0.1,0.8,0.5,0.8,1c0,0.5-0.3,0.9-0.8,1l-6.9,1.4c-14.6,2.8-26.3,25.5-27.4,29.3c-1,3.4-12.9,14.9-14.2,16.3
			c-0.2,0.2-0.5,0.3-0.8,0.3c-5.5-0.6-11.4,1.2-18.6,5.8c-7,4.4-21.2,5.6-21.8,5.7c-0.3,0-0.7-0.1-0.9-0.4c-0.2-0.3-0.3-0.6-0.2-0.9
			c0,0,0.6-1.9,0.6-4c0-1.7-2.5-6.9-7.5-9.4c-2.8-1.4-6.3-0.1-8.7,1c0.8,0.1,1.9,0.2,3,0.3c4.4,0.3,6,6.2,6,9.9
			c0,2.1-1.7,3.3-3.5,4.6c-1.8,1.3-3.8,2.7-4.8,5.2c-1,2.4,0.8,5.2,3.1,6.8c1.7,1.3,3.2,1.5,3.6,1.2c2.5-2,16-5.6,22.9-4.5
			c4.3,0.7,18.6-2.7,28-4.9c5.6-1.3,8.5-2,9.5-2c1.8,0,7.4-5.9,10.9-10.8c2.8-3.9,16.7-10.1,18.3-10.8c0.5-0.2,1.1,0,1.3,0.5
			c2.3,4.7,6.8,7.5,10,9.5c2.1,1.3,3.6,2.2,4.1,3.4c1,2.3,6.6,12.9,6.7,13c0.2,0.3,0.2,0.7,0,1c-0.2,0.3-0.5,0.5-0.9,0.5
			c-2.3,0-10.2,6.2-14.9,9.9c-3.5,2.7-5.3,4.2-6.2,4.5c-2.3,1.2-26.2,27.1-27.2,32.4c-0.7,3.4,1.9,7.4,4.2,10.9
			c1.1,1.7,2.1,3.3,2.7,4.6c1.6,4.1,3,29.2,3,30.3c0,0.3-0.1,0.6-0.4,0.8c-0.4,0.4-10.3,8.7-13.6,10.3c-0.8,0.4-1,1.4-1,2.1
			c-0.1,2.4,1.5,5.5,3.2,6.5c1.6,0.9,3.4,0.3,5.7-0.5c1.5-0.5,3.2-1.1,5.1-1.3c3.7-0.4,9.4-0.4,13.9-0.3c1.3,0,2.4,0,3.4,0
			c1.2,0,1.9-0.2,2.3-0.6c0.7-0.7,0.6-2.4,0.4-4.3l0-0.1c-0.2-2-1.4-4-2.7-6.3c-0.8-1.3-1.7-2.9-2.5-4.6c-1.4-2.9,0.1-8.4,1.4-13.3
			c0.7-2.6,1.7-6.3,1.3-7c-1.4-2.5-2.6-10.9-2.8-11.8c-0.1-0.5,0.3-1,0.8-1.1c2.8-0.5,8.3-7.6,11.1-11.9c0.2-0.3,0.5-0.4,0.8-0.5
			c1.8-0.1,7-2.7,10.8-4.6c3.8-1.9,6.1-3,7.1-3.1c2.1-0.3,12.4-1.3,12.9-1.3c0.5-0.1,1,0.3,1.1,0.8c0,0,1,3.9,11.5,5.6
			c10.9,1.8,17.1-2.2,17.2-2.3c0.2-0.2,0.5-0.2,0.8-0.1c0.3,0.1,0.5,0.3,0.6,0.5c1.1,2.3,5.9,3.6,10.1,4.8c5.1,1.5,9.6,2.7,9.8,5.8
			c0.3,4.3,3.8,7.9,7.2,11.3c3.5,3.5,13.8,29.2,15,32.1c0.1,0.3,0.1,0.6,0,0.8l-2.8,6c-2.8,5.9-3.2,7.9-0.8,10.9
			c1.9,2.4,7.8,0.8,9.9,0C269.2,317.4,269.3,317.4,269.4,317.4z"/>
	</g>
	<g>
		<path class="st0" d="M55.3,198.3c0,0-11.7,3.2-13.5-14.2c0,0,0.8-4.6,3.3-6.4c0,0,3.4,14.6,14.3,13.8"/>
		<path d="M53.2,199.5c-1.6,0-3.9-0.3-6.1-1.8c-3.5-2.4-5.7-6.9-6.4-13.4c0-0.1,0-0.2,0-0.3c0-0.2,0.9-5,3.7-7
			c0.3-0.2,0.6-0.2,0.9-0.1c0.3,0.1,0.6,0.4,0.6,0.7c0,0.1,3.4,13.7,13.2,13c0.6,0,1,0.4,1.1,0.9c0,0.6-0.4,1-0.9,1.1
			c-0.3,0-0.6,0-0.9,0c-8.6,0-12.6-9.1-13.9-12.9c-1,1.5-1.6,3.5-1.8,4.5c0.6,5.8,2.5,9.8,5.5,11.9c3.2,2.2,6.7,1.3,6.8,1.3
			c0.5-0.1,1.1,0.2,1.2,0.7c0.1,0.5-0.2,1.1-0.7,1.2C55.5,199.3,54.6,199.5,53.2,199.5z"/>
	</g>
	<g>
		<path class="st0" d="M52.1,201.9c0,0-11.7,3.2-13.5-14.2c0,0,0.8-4.6,3.3-6.4c0,0,3.4,14.6,14.3,13.8"/>
		<path d="M50,203.1c-1.6,0-3.9-0.3-6.1-1.8c-3.5-2.4-5.7-6.9-6.4-13.4c0-0.1,0-0.2,0-0.3c0-0.2,0.9-5,3.7-7
			c0.3-0.2,0.6-0.2,0.9-0.1c0.3,0.1,0.6,0.4,0.6,0.7c0,0.1,3.4,13.7,13.2,13c0.6,0,1,0.4,1.1,0.9c0,0.6-0.4,1-0.9,1.1
			c-0.3,0-0.6,0-0.9,0c-8.6,0-12.6-9.1-13.9-12.9c-1,1.5-1.6,3.5-1.8,4.5c0.6,5.8,2.5,9.8,5.4,11.8c3.2,2.2,6.8,1.3,6.8,1.3
			c0.5-0.1,1.1,0.2,1.2,0.7c0.1,0.5-0.2,1.1-0.7,1.2C52.3,202.9,51.4,203.1,50,203.1z"/>
	</g>
	<g>
		<path class="st0" d="M60.4,207.5c0,0-16.8,5.3-20.3-4.8s0-12.3,0-12.3s2.8,9,7.2,9.2s8.6-0.9,8.6-0.9"/>
		<path d="M51.3,209.9c-6.3,0-10.5-2.4-12.1-6.8c-3.7-10.5,0-13.2,0.4-13.5c0.3-0.2,0.6-0.2,0.9-0.1c0.3,0.1,0.5,0.3,0.6,0.6
			c0.7,2.3,3.3,8.4,6.3,8.5c4.2,0.2,8.2-0.9,8.3-0.9c0.5-0.1,1.1,0.2,1.2,0.7c0.1,0.5-0.2,1.1-0.7,1.2c-0.2,0-4.3,1.2-8.9,1
			c-3.7-0.2-6.3-5.1-7.4-7.9c-0.5,1.5-0.6,4.4,1.2,9.7c3.1,9,18.9,4.2,19,4.1c0.5-0.2,1.1,0.1,1.3,0.7c0.2,0.5-0.1,1.1-0.7,1.3
			c-0.2,0.1-4.4,1.4-9.1,1.4C51.5,209.9,51.4,209.9,51.3,209.9z"/>
	</g>
	<path d="M252.8,258.3c-0.1,0-0.3,0-0.4-0.1c-7.1-3.1-9.4-11.3-9.5-11.6c-0.2-0.5,0.2-1.1,0.7-1.2c0.5-0.2,1.1,0.2,1.2,0.7
		c0,0.1,2.2,7.6,8.4,10.3c0.5,0.2,0.7,0.8,0.5,1.3C253.5,258,253.2,258.3,252.8,258.3z"/>
	<path d="M263,264.7c-0.4,0-0.8-0.2-0.9-0.6l-3.5-8.5c0,0,0-0.1,0-0.1c0-0.1-0.6-2.5-0.1-6.6c0.4-3.4-3.8-6.8-3.9-6.8
		c-0.1-0.1-0.2-0.2-0.2-0.3l-2.5-4.2c-0.3-0.5-0.1-1.1,0.4-1.4c0.5-0.3,1.1-0.1,1.4,0.4l2.4,4.1c0.9,0.7,5,4.4,4.5,8.5
		c-0.4,3.4-0.1,5.4,0,5.8l3.4,8.4c0.2,0.5,0,1.1-0.6,1.3C263.3,264.7,263.1,264.7,263,264.7z"/>
	<path d="M134.1,264.7C134.1,264.7,134,264.7,134.1,264.7c-0.6,0-1-0.5-1-1.1c0-0.2,0.3-5.1,2.9-7.2c1.2-1,0.5-5-0.3-7.5
		c-0.2-0.5,0.1-1.1,0.6-1.3c0.5-0.2,1.1,0.1,1.3,0.6c2.4,7,0.2,9.3-0.3,9.7c-1.6,1.3-2.1,4.6-2.2,5.8
		C135.1,264.3,134.6,264.7,134.1,264.7z"/>
	<path d="M142.4,244.6c-0.3,0-0.6-0.1-0.8-0.4c-0.4-0.4-0.3-1.1,0.1-1.4c3-2.6,10.9-10.2,11.3-14.7c0.1-0.6,0.6-1,1.1-0.9
		c0.6,0.1,1,0.5,0.9,1.1c-0.6,6.2-11.6,15.6-12,16C142.9,244.5,142.7,244.6,142.4,244.6z"/>
	<path d="M136.6,284.6c-0.4,0-0.8-0.2-0.9-0.6c-2.1-5,0.9-12.5,1-12.8c0.2-0.5,0.8-0.8,1.3-0.6c0.5,0.2,0.8,0.8,0.6,1.3
		c0,0.1-2.8,7.1-1,11.3c0.2,0.5,0,1.1-0.5,1.3C136.9,284.5,136.8,284.6,136.6,284.6z"/>
	<path d="M269.6,319.4c-0.5,0-0.9-0.4-1-0.9c-1.1-9.4-1.3-14.1-1.3-14.2c0-0.6,0.4-1,1-1.1c0.5,0,1,0.4,1.1,1c0,0,0.2,4.8,1.3,14.1
		c0.1,0.6-0.3,1.1-0.9,1.1C269.7,319.4,269.6,319.4,269.6,319.4z"/>
	<path d="M283.4,318.8c-0.3,0-0.7-0.2-0.9-0.5l-7.9-13.5c-0.3-0.5-0.1-1.1,0.4-1.4c0.5-0.3,1.1-0.1,1.4,0.4l7.9,13.5
		c0.3,0.5,0.1,1.1-0.4,1.4C283.8,318.8,283.6,318.8,283.4,318.8z"/>
	<g>
		<path class="st1" d="M116.5,307.3c0,0-7.3,3.6-9.3,8.3c0,0,13.2,0.4,15,0C123.9,315.2,123.2,307.1,116.5,307.3z"/>
		<path d="M117.3,316.7c-4.1,0-9.3-0.1-10.2-0.2c-0.3,0-0.6-0.2-0.8-0.5c-0.2-0.3-0.2-0.6-0.1-0.9c2.2-4.9,9.5-8.6,9.8-8.8
			c0.1-0.1,0.3-0.1,0.4-0.1c4.6-0.1,7.1,3.4,7.5,6.6c0.2,2-0.4,3.4-1.6,3.7C121.7,316.7,119.6,316.7,117.3,316.7z M108.9,314.6
			c4.9,0.1,11.5,0.2,12.9,0c0.2-0.4,0.3-1.9-0.4-3.4c-0.6-1.3-1.9-2.9-4.6-2.9C115.7,308.8,111.1,311.4,108.9,314.6z"/>
	</g>
	<g>
		<g>
			<path class="st1" d="M257.7,316.9c0,0,1.5-2.8,5.2-2.3c3.7,0.5,4.6,4.4,4.6,4.4s0.2,3.3-1.8,5.4s-4.7,6.3-4.7,6.3
				S256.5,324.8,257.7,316.9z"/>
			<path d="M261,331.8c-0.3,0-0.6-0.1-0.8-0.4c-0.2-0.3-4.8-6.4-3.5-14.6c0-0.1,0.1-0.2,0.1-0.3c0.1-0.1,1.9-3.4,6.2-2.8
				c4.3,0.6,5.4,5,5.5,5.2c0,0.1,0,0.1,0,0.2c0,0.2,0.2,3.8-2.1,6.1c-1.9,1.9-4.5,6.1-4.5,6.2C261.7,331.6,261.4,331.8,261,331.8
				C261,331.8,261,331.8,261,331.8z M258.7,317.3c-0.8,5.2,1.2,9.6,2.3,11.6c1-1.5,2.6-3.8,4-5.2c1.5-1.5,1.5-4,1.5-4.5
				c-0.2-0.5-1.1-3.2-3.8-3.6C260.2,315.3,259,316.8,258.7,317.3z"/>
		</g>
		<g>
			<path class="st1" d="M271.7,319.5c0,0-0.4-4.5,2.8-4.9c3.2-0.4,5.3,1.1,6.1,3.8c0.8,2.7-1.1,10.3-1.6,12.3
				C278.4,332.8,271.6,321.3,271.7,319.5z"/>
			<path d="M278.6,332c-0.1,0-0.1,0-0.2,0c-2.1-0.3-7.6-10.2-7.8-12.4l0,0c-0.2-1.9,0.4-5.5,3.6-6c3.5-0.5,6.3,1.2,7.2,4.5
				c0.6,2,0,6.2-1.6,12.9C279.7,331.6,279.2,332,278.6,332z M272.7,319.6c0.1,1.3,3.7,7.6,5.5,9.8c1.7-7.3,1.6-9.8,1.4-10.7
				c-0.7-2.4-2.4-3.5-5-3.1c-2.2,0.3-1.9,3.8-1.9,3.8C272.7,319.5,272.7,319.5,272.7,319.6z"/>
		</g>
		<g>
			<path class="st1" d="M286.2,318.4c0,0-1.3-4.6,1.3-5.9c2.5-1.3,5.2,0,5.2,0s4.5,4.6,3.9,9.5L286.2,318.4z"/>
			<path d="M296.6,323c-0.1,0-0.2,0-0.3-0.1l-10.4-3.6c-0.3-0.1-0.6-0.4-0.6-0.7c-0.1-0.2-1.4-5.4,1.8-7.1c2.9-1.5,5.9-0.1,6.1,0
				c0.1,0.1,0.2,0.1,0.3,0.2c0.2,0.2,4.8,5,4.2,10.3c0,0.3-0.2,0.6-0.5,0.7C297,323,296.8,323,296.6,323z M287.1,317.6l8.6,3
				c-0.3-3.5-2.9-6.6-3.5-7.3c-0.5-0.2-2.4-0.8-4.1,0.1C286.7,314.1,286.8,316.4,287.1,317.6z"/>
		</g>
	</g>
	<path d="M254.6,192.6c-0.4,0-0.7,0-0.8,0c-0.6,0-1-0.5-0.9-1.1s0.5-1,1.1-0.9c0,0,4,0.2,6.2-1.3c0.5-0.3,1.1-0.2,1.4,0.3
		c0.3,0.5,0.2,1.1-0.3,1.4C259.1,192.4,256,192.6,254.6,192.6z"/>
	<path d="M276.7,202.2c-0.3,0-0.6-0.1-0.8-0.4c-0.8-1-8.3-10.1-9.5-12.4c-0.7-1.5-4.3-4-6.3-5.3c-0.5-0.3-0.6-0.9-0.3-1.4
		c0.3-0.5,0.9-0.6,1.4-0.3c0.6,0.4,5.8,3.6,7,6.1c0.9,1.8,7,9.3,9.2,12.1c0.4,0.4,0.3,1.1-0.1,1.4
		C277.1,202.1,276.9,202.2,276.7,202.2z"/>
	<path d="M93.4,196c-0.5,0-1-0.4-1-0.9c0-0.6,0.4-1,0.9-1.1c0.1,0,11.7-0.8,15.5-3.3c0.5-0.3,1.1-0.2,1.4,0.3
		c0.3,0.5,0.2,1.1-0.3,1.4C105.7,195.2,93.9,196,93.4,196C93.4,196,93.4,196,93.4,196z"/>
</g>
<g>
	<g>
		<g>
			<path class="st0" d="M180.6,75.9c0.5,0,1.2,0.1,1.2,0.6c0,0.3-0.3,0.5-0.5,0.7c-1.3,0.9-2.6,1.6-4.1,2c4.4-0.9,9-1,13.4-0.3
				c1.4,0.2,3.1,0.8,3.4,2.2c-1.9,0.8-3.9,1.6-5.8,2.3c4.2,0,8.3,1.7,11.2,4.6c1.2,1.2,2.3,2.8,2.2,4.5c0,0.2,0,0.4-0.2,0.5
				c-0.2,0.2-0.4,0.2-0.7,0.2c-5.6,0.1-11.1,0.1-16.7,0.2c-4.1,0-8.5,0-11.8-2.5c-1.6-1.2-2.7-2.8-3.7-4.5c-1-1.7-2.4-3.9-2.8-5.9
				c-0.4-2,0.6-1.9,2.2-2.2C172.2,77.5,176.2,76.3,180.6,75.9z"/>
			<path d="M182.7,94.5c-3.5,0-7.8-0.2-11.1-2.7c-1.8-1.4-3.1-3.3-4-4.8l-0.3-0.5c-1-1.7-2.2-3.7-2.6-5.6c-0.1-0.6-0.3-1.5,0.2-2.2
				c0.5-0.8,1.3-0.9,2.2-1.1c0.2,0,0.4-0.1,0.6-0.1c1.1-0.2,2.1-0.5,3.1-0.7c3.1-0.7,6.3-1.5,9.6-1.8c0,0,0,0,0,0
				c0.3,0,1.2,0,1.8,0.5c0.3,0.3,0.5,0.7,0.5,1.1c0,0.5-0.2,0.8-0.4,1.1c2.8-0.2,5.6,0,8.3,0.4c3.1,0.5,4,1.9,4.2,3
				c0.1,0.5-0.2,0.9-0.6,1.1l-2.2,0.9c3,0.7,5.8,2.3,7.9,4.5c1.7,1.7,2.6,3.5,2.5,5.2c0,0.3-0.1,0.8-0.4,1.1
				c-0.5,0.5-1.1,0.5-1.4,0.5l-16.7,0.2C183.6,94.5,183.2,94.5,182.7,94.5z M166.6,79.7c0,0,0,0.2,0.1,0.6c0.4,1.6,1.4,3.4,2.4,5
				l0.3,0.5c0.8,1.4,1.9,3,3.5,4.2c2.9,2.2,6.8,2.3,11.2,2.3l16.5-0.2c-0.1-1.1-0.7-2.2-1.9-3.5c-2.8-2.8-6.6-4.3-10.5-4.3
				c0,0,0,0-0.1,0c-0.5,0-0.9-0.3-1-0.8c-0.1-0.5,0.2-0.9,0.6-1.1l4.7-1.9c-0.6-0.4-1.6-0.6-2.1-0.7c-4.4-0.6-8.7-0.5-13.1,0.3
				c-0.5,0.1-1-0.2-1.2-0.7c-0.1-0.5,0.2-1,0.7-1.2c1-0.3,2-0.7,2.9-1.3c-2.9,0.3-5.6,1-8.5,1.6c-1,0.2-2.1,0.5-3.2,0.7
				c-0.2,0-0.4,0.1-0.6,0.1C167.2,79.6,166.7,79.7,166.6,79.7z"/>
		</g>
		<g>
			<path class="st3" d="M187.8,88.8c3,2.1,5.6,4.9,8.6,7.1c3.7,2.7,8.2,4.5,12.7,5.1c4.9,0.6,9.9,0,14.7,1.4
				c-12.3,5.2-24.9,10.5-38.2,10.8c-0.6,0-1.3,0-1.8-0.4c-0.4-0.3-0.6-0.8-0.7-1.3c-2.4-6.5-4.1-13.3-5.1-20.1
				c-0.3-2.2-1.1-4.9,1.5-5.7C182,85.2,185.8,87.5,187.8,88.8z"/>
			<path d="M185.3,114.3c-0.7,0-1.5-0.1-2.1-0.6c-0.6-0.5-0.9-1.2-1.1-1.7c-2.4-6.6-4.1-13.4-5.2-20.3c0-0.2-0.1-0.5-0.1-0.7
				c-0.3-2-0.9-5.1,2.4-6.1c2.9-0.8,7,1.6,9.1,3.1l0,0c1.6,1.1,3.1,2.5,4.6,3.8c1.3,1.1,2.6,2.3,4,3.4c3.6,2.6,7.9,4.3,12.3,4.9
				c1.9,0.2,3.8,0.3,5.7,0.4c3,0.1,6.1,0.2,9.1,1c0.4,0.1,0.7,0.5,0.7,0.9c0,0.4-0.2,0.8-0.6,1c-11.7,4.9-24.9,10.5-38.5,10.9
				C185.5,114.3,185.4,114.3,185.3,114.3z M180.5,86.7c-0.3,0-0.5,0-0.7,0.1c-1.3,0.4-1.3,1.3-0.9,3.8c0,0.3,0.1,0.5,0.1,0.8
				c1,6.7,2.7,13.4,5.1,19.9c0.1,0.3,0.2,0.7,0.4,0.8c0.2,0.2,0.8,0.2,1.1,0.2c12.1-0.4,24.1-5,34.8-9.5c-1.8-0.2-3.6-0.3-5.5-0.3
				c-1.9-0.1-3.9-0.1-5.9-0.4c-4.8-0.6-9.3-2.5-13.2-5.3c-1.5-1.1-2.8-2.3-4.2-3.5c-1.4-1.2-2.9-2.5-4.4-3.6l0,0
				C184.5,87.8,182.1,86.7,180.5,86.7z"/>
		</g>
		<path d="M203.3,104c-0.1,0-0.2,0-0.3,0c-4.3-0.4-8.4-1.9-12-4.4c-0.5-0.3-0.6-0.9-0.2-1.4c0.3-0.5,0.9-0.6,1.4-0.2
			c3.2,2.3,7,3.7,11,4c0,0,0,0,0.1,0c0.5-0.2,1,0.1,1.2,0.5c0.2,0.5,0,1.1-0.5,1.3C203.8,104,203.5,104,203.3,104z"/>
		<path d="M201.5,107.9c-2.6,0-5.3-0.1-7.9-0.3c-0.6,0-1-0.5-0.9-1.1c0-0.6,0.5-1,1.1-0.9c6.3,0.5,12.6,0.4,18.8-0.3
			c0.6-0.1,1.1,0.3,1.1,0.9c0.1,0.6-0.3,1.1-0.9,1.1C209.1,107.7,205.3,107.9,201.5,107.9z"/>
	</g>
	<g>
		<path class="st1" d="M140.2,70.9c0,0,1.8-13.4,8.6-16.4c0,0,1.6,16.7,5,20.6L140.2,70.9z"/>
		<path d="M153.8,76.2c-0.1,0-0.2,0-0.3,0l-13.6-4.3c-0.5-0.1-0.8-0.6-0.7-1.1c0.1-0.6,1.9-14,9.2-17.2c0.3-0.1,0.6-0.1,0.9,0.1
			c0.3,0.2,0.5,0.4,0.5,0.8c0.4,4.6,2.2,17.1,4.8,20.1c0.3,0.3,0.3,0.8,0.1,1.2C154.5,76,154.1,76.2,153.8,76.2z M141.3,70.2
			l10.3,3.2c-2.1-4.8-3.3-13.6-3.7-17.3C143.6,59.3,141.8,67.6,141.3,70.2z"/>
	</g>
	<g>
		<path class="st1" d="M156.2,75.9c0,0,0.4-9.6,6-15.5c0,0,0.7,14.3,3.5,20.2L156.2,75.9z"/>
		<path d="M165.7,81.6c-0.2,0-0.3,0-0.4-0.1l-9.5-4.7c-0.4-0.2-0.6-0.5-0.6-0.9c0-0.4,0.4-10,6.3-16.1c0.3-0.3,0.7-0.4,1.1-0.2
			c0.4,0.1,0.6,0.5,0.7,0.9c0,0.1,0.7,14.2,3.4,19.8c0.2,0.4,0.1,0.8-0.2,1.2C166.2,81.5,166,81.6,165.7,81.6z M157.2,75.3l6.6,3.2
			c-1.5-4.8-2.2-11.8-2.5-15.5C158.2,67.6,157.4,73.4,157.2,75.3z"/>
	</g>
</g>
<path d="M151.1,177.8c-0.3,0-0.6-0.1-0.8-0.4c-1.3-1.6-5.2-8.1-5.3-8.3c-0.3-0.5-0.1-1.1,0.3-1.4c0.5-0.3,1.1-0.1,1.4,0.3
	c0,0.1,4,6.6,5.2,8.1c0.3,0.4,0.3,1.1-0.2,1.4C151.6,177.7,151.4,177.8,151.1,177.8z"/>
<g>
	<g>
		<path class="st4" d="M226.1,176.7c0,0-5-0.7-7-0.7s-1.6,12.4,1.6,13.3c3.2,1,12.7,13.3,12.7,13.3s11,7,18.5,18.6
			c0,0-7.9,4.1-10.6,9.5c0,0-3,3.1-4.4,6.4c0,0-5.7,5.2-6.2,8.3l-0.8,5.1v1.4c0,0-7.4-1.4-10-5.8c0,0-6.4,4.3-17.9,2.4
			c-11.5-1.9-12.3-6.4-12.3-6.4s-10.7,1.1-12.8,1.3c-1.3,0.2-6.5,3-11.1,5.2c0,0-2.8-1.4-3.4-1.9c-2.4-2.1-5.1-7.6-5.1-7.6
			c-2.7-5.3,0.2-17.4,0.2-17.4c0.3-2.8-2.5-10.6-2.5-10.6c2.1-0.8,11.9-10.7,15.9-10.7c0,0-5.6-10.7-6.7-13.1
			c-1.1-2.4-10.4-5.1-14.2-12.8c0,0-15.2,6.7-17.9,10.4c-3.4-3-4.1-4.8-6.4-8.3c-0.8-1.2-3.7-6.2-4.1-9.9c0,0,2-2.6,2-2.6
			c0.9-3.2,12.6-27,28.2-30l6.9-1.4c0,0-11.5-2.1-11.5-7.3c0-5.3,3.2-8,3.2-8s-2.5-9.2-4.4-9.9c-0.7-0.2-1.7,4.1-1.7,4.1l-6.5-6.4
			c0,0-8.6-5.8-6.4-33.2c0.2-2.4,2.4-4.1,4.8-3.7c8.6,1.5,27.7,5.9,38.1,15.5c13.6,12.7,17.8,20.3,14.9,29.8
			c-2.9,9.5-1.6,11.4,2.2,14.3c3.8,2.9,24.1,4.1,31.4,8.9c0,0,5.5,3.9,6.8,4.9c0,0,4,23.5-0.6,29.9
			C228.9,171.5,228,175.5,226.1,176.7z"/>
		<path d="M229.9,253c-0.1,0-0.1,0-0.2,0c-0.3-0.1-7-1.4-10.1-5.4c-2.2,1.1-8.3,3.6-17.8,2.1c-9.2-1.5-12-4.7-12.8-6.3
			c-2.5,0.3-10.3,1-12,1.3c-0.7,0.1-3.8,1.6-6.4,2.9c-1.4,0.7-2.9,1.5-4.4,2.2c-0.3,0.1-0.6,0.1-0.9,0c-0.5-0.2-3-1.5-3.7-2.1
			c-2.6-2.2-5.2-7.7-5.3-7.9c-2.7-5.4-0.2-17,0.1-18c0.2-2.2-1.7-8-2.5-10.1c-0.2-0.5,0.1-1.1,0.6-1.3c0.6-0.2,2.5-1.8,4.2-3.2
			c4.3-3.6,7.8-6.4,10.5-7.3c-1.5-2.9-5.2-10-6.1-12c-0.3-0.6-1.8-1.6-3.4-2.5c-3.3-2-7.7-4.8-10.3-9.4c-4.7,2.1-14.7,7-16.6,9.7
			c-0.2,0.2-0.4,0.4-0.7,0.4c-0.3,0-0.6-0.1-0.8-0.2c-2.8-2.5-3.9-4.2-5.3-6.5c-0.4-0.6-0.8-1.3-1.2-2c-1-1.6-3.8-6.6-4.2-10.4
			c0,0,0-0.1,0-0.1c0-0.3,0-0.3,2.1-3.1c1.2-3.4,12.8-27.5,28.9-30.5l2.6-0.5c-0.5-0.2-1.1-0.4-1.7-0.6c-4.2-1.7-6.4-3.9-6.4-6.6
			c0-4.5,2.1-7.3,3.1-8.3c-1-3.5-2.3-6.8-3.1-8.1c-0.3,0.7-0.6,1.8-0.9,2.9c-0.1,0.4-0.4,0.6-0.7,0.7c-0.3,0.1-0.7,0-1-0.2L137,106
			c-1-0.7-8.9-7.6-6.8-34.1c0.1-1.4,0.8-2.8,2-3.6c1.1-0.9,2.6-1.2,4-1c24.2,4.3,35.1,12.4,38.6,15.7c14.3,13.3,18.1,21.1,15.2,30.8
			c-2.8,9.2-1.5,10.6,1.9,13.2c1.5,1.1,6.5,2.1,11.8,3.1c7.2,1.4,15.3,3,19.6,5.7c0,0,5.5,4,6.9,4.9c0.2,0.2,0.4,0.4,0.4,0.6
			c0.2,1,4,23.6-0.6,30.5c-0.2,0.9-1.2,4.4-3.2,5.6c-0.2,0.1-0.4,0.2-0.7,0.1c0,0-4.6-0.6-6.6-0.6c-0.5,1-0.7,5.6,0.3,9.1
			c0.5,1.5,1,2.2,1.3,2.3c3.2,1,11.2,11.1,13.1,13.5c1.4,0.9,11.6,7.7,18.6,18.8c0.2,0.2,0.2,0.5,0.1,0.8c-0.1,0.3-0.3,0.5-0.5,0.6
			c-0.1,0-7.7,4.1-10.1,9.1c0,0.1-0.1,0.2-0.2,0.3c0,0-2.9,3-4.2,6.1c-0.1,0.1-0.1,0.3-0.3,0.4c-1.5,1.4-5.5,5.5-5.9,7.7l-0.8,5v1.3
			c0,0.3-0.1,0.6-0.4,0.8C230.4,252.9,230.2,253,229.9,253z M219.9,245.2c0.1,0,0.2,0,0.2,0c0.3,0.1,0.5,0.2,0.6,0.5
			c1.7,2.9,6,4.4,8.2,5v-0.1c0-0.1,0-0.1,0-0.2l0.8-5.1c0.6-3.2,5.3-7.7,6.4-8.7c1.3-3.1,3.8-5.8,4.4-6.4c2.3-4.4,7.7-8,10-9.3
			c-7.2-10.7-17.4-17.3-17.6-17.4c-0.1-0.1-0.2-0.1-0.3-0.2c-3.6-4.7-10.1-12.3-12.2-13c-3.4-1-3.8-9.4-3.3-12.3
			c0.1-0.7,0.4-2.9,2-2.9c1.6,0,5.4,0.5,6.7,0.6c1.1-1,1.9-3.5,2.1-4.4c0-0.1,0.1-0.3,0.2-0.4c3.5-4.9,1.6-22,0.5-28.7
			c-1.8-1.3-6.5-4.7-6.5-4.7c-3.9-2.5-11.8-4.1-18.8-5.4c-6-1.2-10.7-2.1-12.6-3.5c-4.5-3.4-5.4-5.9-2.6-15.4
			c2.7-8.9-1-16.1-14.6-28.8c-10.3-9.6-29.7-13.8-37.6-15.2c-0.9-0.2-1.7,0.1-2.4,0.6c-0.7,0.5-1.1,1.3-1.2,2.2
			c-1.1,13.8,0.6,21.8,2.2,26.2c1.7,4.7,3.7,6.1,3.8,6.1c0,0,0.1,0.1,0.1,0.1l5.3,5.2c0.8-2.6,1.4-2.9,1.6-3.1
			c0.3-0.2,0.7-0.2,1-0.1c2,0.8,4,6.9,5,10.5c0.1,0.4,0,0.8-0.3,1c-0.1,0.1-2.9,2.5-2.9,7.3c0,3.6,7.9,5.8,10.6,6.3
			c0.5,0.1,0.8,0.5,0.8,1c0,0.5-0.3,0.9-0.8,1l-6.9,1.4c-14.6,2.8-26.3,25.5-27.4,29.3c0,0.1-0.1,0.2-0.2,0.3c0,0-1.2,1.6-1.7,2.3
			c0.5,3.3,3,7.8,3.9,9.1c0.5,0.7,0.9,1.4,1.3,2c1.3,2.1,2.2,3.5,4.2,5.4c3.9-3.9,16.1-9.3,17.6-9.9c0.5-0.2,1.1,0,1.3,0.5
			c2.3,4.7,6.8,7.5,10,9.5c2.1,1.3,3.6,2.2,4.1,3.4c1,2.3,6.6,12.9,6.7,13c0.2,0.3,0.2,0.7,0,1c-0.2,0.3-0.5,0.5-0.9,0.5
			c-2.2,0-7.4,4.3-10.7,7.1c-1.8,1.5-3,2.5-3.9,3.1c0.8,2.2,2.6,7.7,2.3,10.2c0,0,0,0.1,0,0.1c0,0.1-2.7,11.8-0.2,16.7
			c0,0.1,2.6,5.3,4.8,7.3c0.3,0.3,1.6,1,2.8,1.6c1.3-0.6,2.6-1.3,3.9-1.9c3.8-1.9,6.1-3,7.1-3.1c2.1-0.3,12.4-1.3,12.9-1.3
			c0.5-0.1,1,0.3,1.1,0.8c0,0,1,3.9,11.5,5.6c10.9,1.8,17.1-2.2,17.2-2.3C219.5,245.2,219.7,245.2,219.9,245.2z"/>
	</g>
	<path d="M214.2,220.2c0,0-0.1,0-0.1,0c-0.6-0.1-0.9-0.6-0.9-1.1c0.1-0.9,2.9-23.1,13.6-25c0.5-0.1,1.1,0.3,1.2,0.8
		c0.1,0.5-0.3,1.1-0.8,1.2c-4.7,0.9-7.7,7-9.4,12.1c-1.9,5.7-2.6,11.2-2.6,11.2C215.1,219.8,214.7,220.2,214.2,220.2z"/>
	<path d="M176.9,215.6c-0.4,0-0.8-0.2-0.9-0.6l-6.1-14c-0.2-0.5,0-1.1,0.5-1.3c0.5-0.2,1.1,0,1.3,0.5l6.1,14c0.2,0.5,0,1.1-0.5,1.3
		C177.2,215.6,177,215.6,176.9,215.6z"/>
	<g>
		<g>
			<path class="st0" d="M188.8,241.5c0,0-9.6-6.2-10.6-12.9s-2.6-18,0-22.4c2.6-4.4-0.4-13.3,4.6-15.3c5-2,15.6,12.4,15.6,12.4
				s11.8,9.8,14.9,15.1c0,0,0,6.6,2.8,11.5c2.8,4.9,2.9,15.6,2.9,15.6s-3.1,5-15.6,3.5C203.5,249.1,190.2,247.6,188.8,241.5"/>
			<path d="M207.8,250.3c-1.3,0-2.8-0.1-4.5-0.3c-0.6-0.1-13.4-1.6-15.4-7.9c-1.8-1.2-9.8-7-10.7-13.4l0-0.2
				c-1-7.2-2.6-18.2,0.2-22.8c1-1.6,1.1-4.1,1.2-6.5c0.2-3.8,0.4-7.8,3.9-9.2c5.4-2.1,14.7,9.9,16.7,12.6c1.2,1,12,10.1,15.1,15.3
				c0.1,0.2,0.1,0.3,0.1,0.5c0,0.1,0,6.4,2.7,11c2.9,5.1,3,15.7,3,16.1c0,0.2,0,0.4-0.1,0.5C219.8,246.3,217.2,250.3,207.8,250.3z
				 M183.9,191.8c-0.2,0-0.5,0-0.7,0.1c-2.3,0.9-2.5,4.1-2.6,7.4c-0.1,2.6-0.2,5.4-1.5,7.4c-2.4,4-0.8,15.4,0.1,21.5l0,0.2
				c0.9,6.2,10,12.1,10.1,12.2c0.2,0.1,0.4,0.4,0.4,0.6c1,4.4,10.3,6.4,13.7,6.8c10.1,1.2,13.7-2,14.5-2.9c0-1.8-0.4-10.7-2.8-14.8
				c-2.6-4.5-2.9-10.4-3-11.7c-3.2-5.2-14.4-14.5-14.6-14.6c-0.1-0.1-0.1-0.1-0.2-0.2C193.7,198.6,187.2,191.8,183.9,191.8z"/>
		</g>
		<path d="M191.9,236.1c-0.3,0-0.5-0.1-0.7-0.3c-5.8-5.7-7.2-16.1-7.3-16.5c-0.1-0.6,0.3-1.1,0.9-1.1c0.5-0.1,1.1,0.3,1.1,0.9
			c0,0.1,1.4,10.1,6.7,15.4c0.4,0.4,0.4,1,0,1.4C192.4,236,192.2,236.1,191.9,236.1z"/>
		<path d="M206.9,236.1C206.9,236.1,206.8,236.1,206.9,236.1c-0.6,0-1-0.5-1-1.1c0.9-11.6-3.4-16.9-3.4-17c-0.4-0.4-0.3-1.1,0.1-1.4
			c0.4-0.4,1.1-0.3,1.4,0.1c0.2,0.2,4.9,6,3.9,18.5C207.9,235.7,207.4,236.1,206.9,236.1z"/>
		<path d="M235.8,247.3c-0.4,0-0.7-0.2-0.9-0.5c-2-3.7-11.5-8.5-15.9-10.4c-1.5,2.1-6.2,7.7-15.4,8.2c-10,0.6-18.8-5.4-20.5-6.6
			c-3.7-0.2-12.8-0.5-14.8,0c-1.8,0.4-10.3,5.8-15.2,9.1c-0.5,0.3-1.1,0.2-1.4-0.3c-0.3-0.5-0.2-1.1,0.3-1.4
			c1.3-0.9,13.1-8.7,15.8-9.4c2.7-0.6,14.4-0.1,15.7,0c0.2,0,0.4,0.1,0.6,0.2c0.1,0.1,9.2,6.9,19.4,6.4c9.9-0.6,14.1-7.7,14.3-8
			c0.3-0.4,0.8-0.6,1.3-0.4c0.6,0.3,14.7,6.2,17.6,11.6c0.3,0.5,0.1,1.1-0.4,1.4C236.1,247.3,236,247.3,235.8,247.3z"/>
	</g>
	<path d="M178.9,202.8c-0.4,0-0.8-0.3-1-0.7c-2.8-8.2-8.1-19.8-11.1-20.1c-5.3-0.5-12.1-10.8-12.9-12c-0.3-0.5-0.2-1.1,0.3-1.4
		c0.5-0.3,1.1-0.2,1.4,0.3c1.9,3,7.7,10.7,11.4,11.1c5.3,0.5,11.6,17.9,12.8,21.4c0.2,0.5-0.1,1.1-0.6,1.3
		C179.1,202.8,179,202.8,178.9,202.8z"/>
	<path d="M197,202.2c-0.5,0-0.9-0.4-1-0.8c-0.7-4.3-2.7-18.4,0.4-20.8c1.9-1.5,4.6-10.3,5.9-15.5c0.1-0.5,0.7-0.9,1.2-0.7
		c0.5,0.1,0.9,0.7,0.7,1.2c-0.4,1.4-3.6,14.1-6.6,16.6c-1.5,1.2-0.9,10.7,0.4,18.9c0.1,0.5-0.3,1.1-0.8,1.2
		C197.1,202.2,197.1,202.2,197,202.2z"/>
	<path d="M219.2,177.2c-0.1,0-0.2,0-0.3,0l-7.2-2.2h-3.1c-0.6,0-1-0.5-1-1c0-0.6,0.5-1,1-1h3.3c0.1,0,0.2,0,0.3,0l7.3,2.3
		c0.5,0.2,0.8,0.7,0.7,1.3C220,176.9,219.6,177.2,219.2,177.2z"/>
	<g>
		<line class="st1" x1="188.7" y1="125.6" x2="194.3" y2="133.2"/>
		<path d="M194.3,134.2c-0.3,0-0.6-0.1-0.8-0.4l-5.6-7.6c-0.3-0.4-0.2-1.1,0.2-1.4c0.4-0.3,1.1-0.2,1.4,0.2l5.6,7.6
			c0.3,0.4,0.2,1.1-0.2,1.4C194.7,134.2,194.5,134.2,194.3,134.2z"/>
	</g>
	<path d="M161.4,141.2c-0.6,0-1-0.5-1-1c0-2.1-2-5.6-2.7-6.8c-0.2-0.3-0.2-0.7,0-1c0.2-0.3,0.5-0.5,0.9-0.5c0.1,0,13.4,0.2,18.5-4.6
		c0.4-0.4,1-0.4,1.4,0.1c0.4,0.4,0.4,1-0.1,1.4c-4.6,4.3-14.2,5-18.2,5.1c0.9,1.7,2.1,4.3,2.1,6.4
		C162.4,140.7,161.9,141.2,161.4,141.2z"/>
	<path d="M243.8,173.7c-0.1,0-0.2,0-0.4-0.1c-7.4-2.9-15.2-11.7-15.5-12c-0.4-0.4-0.3-1.1,0.1-1.4c0.4-0.4,1.1-0.3,1.4,0.1
		c0.1,0.1,7.8,8.8,14.7,11.5c0.5,0.2,0.8,0.8,0.6,1.3C244.6,173.4,244.2,173.7,243.8,173.7z"/>
	<path d="M134.1,177.2c-0.3,0-0.5-0.1-0.7-0.3c-0.4-0.4-0.4-1,0-1.4c0.4-0.4,9.5-9.5,15.7-7.9c0.5,0.1,0.9,0.7,0.7,1.2
		c-0.1,0.5-0.7,0.9-1.2,0.7c-4.2-1.1-11.4,4.9-13.8,7.3C134.6,177.1,134.3,177.2,134.1,177.2z"/>
</g>
<g>
	<path d="M160.8,90c0,0-3.2,8.1,1.5,11c4.7,2.9,14.1,0.4,17.3,1.2s9.6,2.3,9.6,2.3s-3.8-11.8-9.4-14.9L160.8,90z"/>
	<g>
		<path class="st3" d="M181.6,92c-4.6-1.2-10.2-1.2-10.2-1.2s2.9,7.1-3.7,6.9c-6.6-0.2-4.9-5.7-4.9-5.7s-2.5-5.5-6.4-6.6
			s-6.4,6.6-6.4,6.6c-2.1-10.9-18.7-7.6-18.7-7.6s-2.3-12.8,1.6-15.5c0,0,0.6-0.6,2.3-0.6c0,0,6.8,1.1,8.5,1.7
			c0,0,11.9,2.7,20.8,7.4c0,0,9.5,4.8,15.2,12.1L181.6,92z"/>
		<path d="M168,98.7c-0.1,0-0.2,0-0.3,0c-2.4-0.1-4.2-0.8-5.2-2.2c-1.1-1.6-0.9-3.5-0.7-4.3c-0.6-1.1-2.7-4.9-5.6-5.8
			c-2.4-0.7-4.6,4.2-5.2,6c-0.1,0.4-0.6,0.7-1,0.7c-0.5,0-0.8-0.4-0.9-0.8c-0.4-2.2-1.5-3.9-3.4-5.1c-5.1-3.4-14-1.7-14.1-1.7
			c-0.3,0.1-0.5,0-0.8-0.2c-0.2-0.2-0.4-0.4-0.4-0.7c-0.2-1.4-2.3-13.4,1.9-16.4c0.3-0.2,1.2-0.8,3-0.8c0.1,0,0.1,0,0.2,0
			c0.7,0.1,6.8,1.1,8.6,1.7c1,0.2,12.3,2.9,21,7.5c0.4,0.2,9.8,4.9,15.5,12.4l1.8,2.4c0.3,0.3,0.3,0.8,0,1.2s-0.7,0.5-1.1,0.4
			c-3-0.8-6.6-1-8.6-1.1c0.3,1.4,0.5,3.4-0.5,5C171.4,98,170,98.7,168,98.7z M155.7,84.2c0.4,0,0.7,0.1,1.1,0.2
			c4.3,1.3,6.9,6.9,7,7.2c0.1,0.2,0.1,0.5,0,0.7c0,0-0.5,1.8,0.3,3c0.6,0.9,1.8,1.3,3.6,1.4c1.4,0,2.4-0.3,2.9-1
			c0.9-1.3,0.2-3.7-0.1-4.5c-0.1-0.3-0.1-0.7,0.1-0.9c0.2-0.3,0.5-0.4,0.8-0.4c0,0,0,0,0,0c0.2,0,3.9,0,7.8,0.7l-0.2-0.2
			c-5.5-7.1-14.8-11.8-14.8-11.8c-8.7-4.6-20.5-7.3-20.6-7.3c0,0-0.1,0-0.1,0c-1.2-0.5-6.3-1.3-8.2-1.7c-1.1,0-1.6,0.4-1.6,0.4
			c0,0-0.1,0-0.1,0.1c-2.3,1.6-2,8.7-1.3,13.5c2.7-0.4,9.8-1,14.6,2.1c1.5,1,2.6,2.2,3.3,3.8C151.3,87,153.1,84.2,155.7,84.2z"/>
	</g>
	<g>
		<circle class="st5" cx="167.4" cy="92.1" r="2.8"/>
		<path d="M167.4,95.9c-2.1,0-3.8-1.7-3.8-3.8c0-2.1,1.7-3.8,3.8-3.8c2.1,0,3.8,1.7,3.8,3.8C171.3,94.2,169.6,95.9,167.4,95.9z
			 M167.4,90.3c-1,0-1.8,0.8-1.8,1.8s0.8,1.8,1.8,1.8s1.8-0.8,1.8-1.8S168.4,90.3,167.4,90.3z"/>
	</g>
</g>
<g>
	<g>
		<path d="M147,123.7c0,0,19.6,8.7,34.4-6.5c0,0-21.2-25.2-44.6-12.6l7.3,7.1c0,0,0.3-3.6,1.7-4.1c0,0,1.8,0.8,2.5,4.1l1.9,5.7
			C150.1,117.5,147.4,119.7,147,123.7z"/>
		<path d="M160,126.4c-7.4,0-13-2.4-13.1-2.4c-0.1,0-0.2-0.2-0.2-0.3c0.4-3.6,2.5-5.8,3.1-6.3l-1.8-5.5c-0.6-2.7-1.9-3.7-2.2-3.9
			c-0.9,0.5-1.3,2.9-1.4,3.8c0,0.1-0.1,0.2-0.2,0.2c-0.1,0-0.2,0-0.3-0.1l-7.3-7.1c-0.1-0.1-0.1-0.1-0.1-0.2c0-0.1,0.1-0.2,0.1-0.2
			c23.4-12.5,44.8,12.4,45,12.7c0.1,0.1,0.1,0.3,0,0.4C174.6,124.5,166.6,126.4,160,126.4z M147.3,123.6c2,0.8,20,7.5,33.7-6.3
			c-2-2.2-22-23.9-43.8-12.5l6.7,6.5c0.2-1.1,0.6-3.4,1.8-3.8c0.1,0,0.1,0,0.2,0c0.1,0,1.9,0.9,2.6,4.3l1.9,5.7c0,0.1,0,0.2-0.1,0.3
			C150.3,117.7,147.8,119.8,147.3,123.6z"/>
	</g>
	<g>
		<path class="st1" d="M148.8,117.1l2.8,3.9l2.8-3.9l1.9,3.9l3-3l1.9,3l3.3-3.9l2.7,3l3-4.1l2.4,2.5l2.2-3.7l3.6,4
			c0,0-1.9,1.8-5.7,4c0,0-5.2,3.3-15,2.8c0,0-8.5-0.8-10.8-2.5L148.8,117.1z"/>
		<path d="M159.8,126.6c-0.7,0-1.4,0-2.1-0.1c-0.9-0.1-8.9-0.9-11.4-2.6c-0.4-0.3-0.5-0.7-0.4-1.1l1.9-6c0.1-0.4,0.4-0.6,0.8-0.7
			c0.4-0.1,0.8,0.1,1,0.4l2,2.8l2-2.8c0.2-0.3,0.5-0.4,0.9-0.4c0.3,0,0.7,0.2,0.8,0.6l1.3,2.6l2-2c0.2-0.2,0.5-0.3,0.8-0.3
			c0.3,0,0.6,0.2,0.7,0.5l1.2,1.9l2.4-2.8c0.2-0.2,0.5-0.3,0.8-0.4c0.3,0,0.6,0.1,0.8,0.3l1.9,2.1l2.3-3.1c0.2-0.2,0.4-0.4,0.7-0.4
			c0.3,0,0.6,0.1,0.8,0.3l1.5,1.6l1.6-2.6c0.2-0.3,0.5-0.5,0.8-0.5c0.3,0,0.6,0.1,0.8,0.3l3.6,4c0.4,0.4,0.3,1-0.1,1.4
			c-0.1,0.1-2,1.9-5.9,4.1C173.1,123.7,168.5,126.6,159.8,126.6z M148.2,122.6c2.3,1,7.7,1.7,9.7,1.9c9.3,0.5,14.3-2.6,14.4-2.6
			c2.4-1.3,4-2.5,4.8-3.2l-2-2.2l-1.5,2.5c-0.2,0.3-0.4,0.4-0.8,0.5c-0.3,0-0.6-0.1-0.8-0.3l-1.6-1.6l-2.3,3.1
			c-0.2,0.2-0.5,0.4-0.8,0.4c-0.3,0-0.6-0.1-0.8-0.3l-1.9-2.1l-2.6,3c-0.2,0.2-0.5,0.4-0.8,0.4c-0.3,0-0.6-0.2-0.8-0.5l-1.3-2
			l-2.1,2.1c-0.2,0.2-0.6,0.3-0.9,0.3c-0.3-0.1-0.6-0.3-0.7-0.5l-1.2-2.4l-1.9,2.5c-0.2,0.3-0.5,0.4-0.8,0.4c0,0,0,0,0,0
			c-0.3,0-0.6-0.2-0.8-0.4l-1.6-2.3L148.2,122.6z"/>
	</g>
	<g>
		<path class="st1" d="M169.8,109l-3.1,1.7l-2.3-3.8l-2.8,0.9l-2.2-3.8l-3.6,2.9l-3.6-2.9l-2.2,3.8l-3.6-1.7c0,0-1,5.1-1.5,6.6
			c0,0-6.3-5.9-7.2-7.1c-0.3-0.3,2.7-1.9,2.9-2.1c7.3-3.6,16.3-2.3,23.3,1.1c1.1,0.5,2.3,1.2,3.3,1.9
			C168.2,107.2,169.6,107.9,169.8,109z"/>
		<path d="M144.9,113.8c-0.3,0-0.5-0.1-0.7-0.3c-0.7-0.6-6.4-6-7.3-7.2c-0.2-0.3-0.3-0.6-0.2-0.9c0.2-0.9,2.3-2.1,3.5-2.7
			c6.8-3.4,15.9-3,24.2,1.1c1.1,0.5,2.3,1.2,3.4,1.9l0.3,0.2c1,0.6,2.4,1.4,2.7,2.9c0.1,0.4-0.1,0.9-0.5,1.1l-3.1,1.7
			c-0.5,0.3-1.1,0.1-1.3-0.4l-1.9-3.1l-2.1,0.7c-0.5,0.1-0.9,0-1.2-0.5l-1.6-2.8l-2.7,2.2c-0.4,0.3-0.9,0.3-1.3,0l-2.7-2.2l-1.6,2.8
			c-0.3,0.5-0.8,0.6-1.3,0.4l-2.5-1.2c-0.3,1.6-0.9,4.4-1.3,5.5c-0.1,0.3-0.4,0.6-0.7,0.6C145.1,113.7,145,113.8,144.9,113.8z
			 M139.1,105.7c1.1,1.1,3.4,3.3,5.3,5.2c0.4-1.6,0.8-3.9,1-4.9c0.1-0.3,0.3-0.6,0.5-0.7c0.3-0.1,0.6-0.1,0.9,0l2.8,1.3l1.7-3
			c0.1-0.3,0.4-0.4,0.7-0.5c0.3-0.1,0.6,0,0.8,0.2l3,2.4l2.5-2c-6.2-1.8-12.3-1.5-17.2,0.9C140.8,104.7,139.8,105.3,139.1,105.7z
			 M165.4,106.6l1.7,2.8l1.4-0.8c-0.4-0.4-0.9-0.7-1.4-1l-0.3-0.2C166.4,107.2,165.9,106.9,165.4,106.6z M160.8,104.5l1.2,2.2l2-0.7
			c0,0,0,0,0.1,0c-0.2-0.1-0.4-0.2-0.6-0.3C162.7,105.2,161.8,104.8,160.8,104.5z"/>
	</g>
</g>
</svg>
