<svg xml:space="preserve" style="enable-background:new 0 0 250 250;" viewBox="0 0 250 250" y="0px" x="0px" xmlns:xlink="http://www.w3.org/1999/xlink" xmlns="http://www.w3.org/2000/svg" version="1.1">
<g id="레이어_6">
</g>
<g id="레이어_5">
</g>
<g id="레이어_2">
	<g>
		<g>
			<path d="M102.2,157.1L102.2,157.1c6.5-5.9,13.9-8.2,18.8-2.9l22,24.3c4.9,5.4,3.6,14.5-2.9,20.4l0,0
				c-6.5,5.9-15.7,6.3-20.6,0.9l-22-24.3C92.6,170.2,95.7,163,102.2,157.1z" style="fill:#2D3C40;"></path>
		</g>
		<g>
			<path d="M111.9,218.1h-1.8c-4.5,0-8.2-3.7-8.2-8.2v0c0-4.5,3.7-8.2,8.2-8.2h1.8c4.5,0,8.2,3.7,8.2,8.2v0
				C120.1,214.4,116.4,218.1,111.9,218.1z" style="fill:#2D3C40;"></path>
		</g>
		<g>
			<path d="M112.4,211.5H95.3c-6.5,0-11.7,4.4-11.7,9.8v6c0,2.7,2.7,5,5.9,5h28.7c3.3,0,5.9-2.2,5.9-5v-6
				C124.1,215.9,118.9,211.5,112.4,211.5z" style="fill:#2D3C40;"></path>
		</g>
		<g>
			<path d="M118.5,202.5l-11.7,6.7c-2.9,1.7-6.6,0.7-8.3-2.2l-10.2-17.7c-3.5-6.1-1.4-14,4.7-17.5l0,0
				c6.1-3.5,14-1.4,17.5,4.7l10.2,17.7C122.5,197.1,121.5,200.9,118.5,202.5z" style="fill:#2D3C40;"></path>
		</g>
		<g>
			<path d="M90,176L90,176c-3-4.1-2.1-9.8,2-12.7l3-2.2c4.1-3,9.8-2.1,12.7,2l0,0c3,4.1,2.1,9.8-2,12.7
				l-3,2.2C98.7,180.9,93,180.1,90,176z" style="fill:#2D3C40;"></path>
		</g>
	</g>
	<g>
		<path d="M185.8,164.4c0,0-5.2-19.5,5.7-28.6c7.5-6.3,11.8-3.7,19.9-9.4c4.5-3.1,7-6.9,8.3-12.1
			c1.4-5.5,2.2-10.6,8.9-11.6c7.5-1.2,4.5,14.2,3.7,17.6c-1.8,7.6-5.7,14.2-12.5,18.2c-6.8,4-17.3,3.5-22.1,10.6
			c-2.9,4.4,0.5,18.3-7.3,17C183,165,185.8,164.4,185.8,164.4z" style="fill:#143640;"></path>
	</g>
	<g>
		<g>
			<path d="M63,213.6h-1c-6.8,0-12.4-5.5-12.4-12.4v-14.8c0-6.8,5.5-12.4,12.4-12.4h1
				c6.8,0,12.4,5.5,12.4,12.4v14.8C75.4,208.1,69.9,213.6,63,213.6z" style="fill:#ABABAB;"></path>
		</g>
		<g>
			<path d="M63.4,174.7L63.4,174.7c-8,0-14.4-3.5-14.4-11.5v-35.8c0-7.9,6.4-14.4,14.4-14.4h0
				c8,0,14.4,6.4,14.4,14.4v35.8C77.8,171.1,71.3,174.7,63.4,174.7z" style="fill:#ABABAB;"></path>
		</g>
		<g>
			<path d="M62.5,186.2L62.5,186.2c-5.1,0-9.1-4.1-9.1-9.1v-3.7c0-5.1,4.1-9.1,9.1-9.1h0
				c5.1,0,9.1,4.1,9.1,9.1v3.7C71.7,182.1,67.6,186.2,62.5,186.2z" style="fill:#143640;"></path>
		</g>
		<g>
			<path d="M63.4,222.1h-1.8c-4.5,0-8.2-3.7-8.2-8.2v0c0-4.5,3.7-8.2,8.2-8.2h1.8c4.5,0,8.2,3.7,8.2,8.2v0
				C71.7,218.4,68,222.1,63.4,222.1z" style="fill:#143640;"></path>
		</g>
		<g>
			<path d="M68.5,215.4H54.1c-5.4,0-9.9,4.4-9.9,9.9v6c0,2.8,2.2,5,5,5h24.1c2.8,0,5-2.2,5-5v-6
				C78.3,219.8,73.9,215.4,68.5,215.4z" style="fill:#757575;"></path>
		</g>
	</g>
	<g>
		<g>
			<circle r="39.1" cy="181.6" cx="163.2" style="fill:#6B6B6B;"></circle>
		</g>
		<g>
			<path d="M113.1,183.9l-9.2-7.8c-13.6-11.5-15.2-31.8-3.7-45.4l0,0c11.5-13.6,31.8-15.2,45.4-3.7l9.2,7.8
				c13.6,11.5,15.2,31.8,3.7,45.4l0,0C147,193.8,126.7,195.4,113.1,183.9z" style="fill:#919191;"></path>
		</g>
		<g>
			<g>
				<path d="M120.5,101.6L92,111.1c-5.8,1.9-12-1.2-13.9-7l0,0c-1.9-5.8,1.2-12,7-13.9l28.5-9.5
					c5.8-1.9,12,1.2,13.9,7l0,0C129.4,93.5,126.3,99.7,120.5,101.6z" style="fill:#143640;"></path>
			</g>
			<g>
				<path d="M125.1,177H84.2c-13.8,0-24.9-11.2-24.9-24.9v-29.4c0-13.8,11.2-24.9,24.9-24.9h40.9
					c13.8,0,24.9,11.2,24.9,24.9v29.4C150,165.9,138.8,177,125.1,177z" style="fill:#6B6B6B;"></path>
			</g>
			<g>
				<path d="M107.5,154.7c0,0,0-5.1,0-27.3c0-18.7,16.5-26.8,21.8-29c-1.8-0.4-3.6-0.6-5.4-0.6H98.3
					c0,0-23.5,7.3-23.5,29.6s0,27.3,0,27.3s1.3,20.9,8.7,22.3c0.6,0,1.2,0.1,1.8,0.1H117C108.9,177,107.5,154.7,107.5,154.7z" style="fill:#143640;"></path>
			</g>
		</g>
	</g>
	<g>
		<g>
			<g>
				<path d="M72,21.7c0,0-4.8-11.9-15.1-6.6C39.2,24,21.8,36.8,16.7,59.8c-2.7,12.1,12.7,23,28.1-1.9
					C55.6,40.6,74.2,32.1,72,21.7z" style="fill:#143640;"></path>
			</g>
		</g>
		<g>
			<g>
				<path d="M91.2,21.7c0,0,4.8-11.9,15.1-6.6c17.7,8.9,35.1,21.7,40.2,44.7c2.7,12.1-12.7,23-28.1-1.9
					C107.6,40.6,89,32.1,91.2,21.7z" style="fill:#143640;"></path>
			</g>
		</g>
	</g>
	<g>
		<g>
			<path d="M129.6,70c0,25.7-23.6,45.4-46.5,45.4c-22.2,0-46.5-19.7-46.5-45.4s20.8-46.5,46.5-46.5
				S129.6,44.3,129.6,70z" style="fill:#ABABAB;"></path>
		</g>
		<g>
			<path d="M116,37.1c-8.4-8.5-14-16.5-32.9-16.5c-17.8,0-24.5,8-32.9,16.5c-2.8,7-4.5,15.3-1.3,22.1
				C55.6,73.8,64.5,74,64.1,82.6c-0.3,7.6,9.8,11.6,16.8,12.1c7.3,0.6,21.4-4,21-12.2c-0.4-8.5,8.5-8.7,15.3-23.3
				C120.6,52.5,118.8,44.1,116,37.1z" style="fill:#143640;"></path>
		</g>
		<g>
			<circle r="24.8" cy="85.6" cx="83.1" style="fill:#FFFBE3;"></circle>
		</g>
	</g>
	<g>
		<g>
			<path d="M86,65.6h-8.8c-2.5,0-3.8,2.9-2.1,4.8l4.4,4.9c1.1,1.3,3.1,1.3,4.2,0l4.4-4.9
				C89.8,68.5,88.5,65.6,86,65.6z" style="fill:#1C4059;"></path>
		</g>
		<g>
			<rect height="9.4" width="0.8" y="76.2" x="81.2"></rect>
		</g>
	</g>
	<g>
		<g>
			<path d="M115.3,210l-1-0.2c-6.6-1.7-10.7-8.4-9-15l3.6-14.3c1.7-6.6,8.4-10.7,15-9l1,0.2
				c6.6,1.7,10.7,8.4,9,15l-3.6,14.3C128.7,207.6,122,211.7,115.3,210z" style="fill:#ABABAB;"></path>
		</g>
		<g>
			<path d="M125.1,172.3L125.1,172.3c-7.7-1.9-13.1-6.9-11.2-14.6l8.7-34.8c1.9-7.7,9.7-12.4,17.5-10.5l0,0
				c7.7,1.9,12.4,9.7,10.5,17.4l-8.7,34.8C139.9,172.4,132.8,174.2,125.1,172.3z" style="fill:#ABABAB;"></path>
		</g>
		<g>
			<path d="M121.5,183.3L121.5,183.3c-4.9-1.2-7.9-6.2-6.7-11.1l0.9-3.6c1.2-4.9,6.2-7.9,11.1-6.7h0
				c4.9,1.2,7.9,6.2,6.7,11.1l-0.9,3.6C131.3,181.5,126.4,184.5,121.5,183.3z" style="fill:#143640;"></path>
		</g>
		<g>
			<path d="M113.7,218.3l-1.8-0.4c-4.4-1.1-7.1-5.6-6-10l0,0c1.1-4.4,5.6-7.1,10-6l1.8,0.4
				c4.4,1.1,7.1,5.6,6,10v0C122.5,216.7,118.1,219.4,113.7,218.3z" style="fill:#143640;"></path>
		</g>
		<g>
			<path d="M115.1,211.4h-14.4c-5.4,0-9.9,4.4-9.9,9.9v6c0,2.8,2.2,5,5,5h24.1c2.8,0,5-2.2,5-5v-6
				C124.9,215.8,120.5,211.4,115.1,211.4z" style="fill:#757575;"></path>
		</g>
	</g>
	<g>
		<g>
			<path d="M147.8,165.3L147.8,165.3c4.9-7.2,11.6-11.3,17.6-7.2l27.1,18.5c6,4.1,6.9,13.3,1.9,20.5l0,0
				c-4.9,7.2-13.8,9.8-19.8,5.7l-27.1-18.5C141.6,180.2,142.9,172.5,147.8,165.3z" style="fill:#9E9E9E;"></path>
		</g>
		<g>
			<path d="M181.2,221L181.2,221c-3.8,3.3-9.5,3-12.9-0.8l-1.6-1.9c-3.3-3.8-3-9.5,0.8-12.9l0,0
				c3.8-3.3,9.5-3,12.9,0.8l1.6,1.9C185.3,211.9,184.9,217.6,181.2,221z" style="fill:#143640;"></path>
		</g>
		<g>
			<path d="M178.8,211.5h-17.1c-6.5,0-11.7,4.4-11.7,9.8v6c0,2.7,2.7,5,5.9,5h28.7c3.3,0,5.9-2.2,5.9-5v-6
				C190.5,215.9,185.2,211.5,178.8,211.5z" style="fill:#757575;"></path>
		</g>
		<g>
			<path d="M175,204l-9.8,9.3c-2.4,2.3-6.3,2.2-8.6-0.2l-14.1-14.8c-4.9-5.1-4.7-13.3,0.5-18.2l0,0
				c5.1-4.9,13.3-4.7,18.2,0.5l14.1,14.8C177.5,197.8,177.4,201.7,175,204z" style="fill:#ABABAB;"></path>
		</g>
		<g>
			<path d="M141,184.8L141,184.8c-3.8-3.3-4.3-9-1-12.9l2.4-2.8c3.3-3.8,9-4.3,12.9-1l0,0
				c3.8,3.3,4.3,9,1,12.9l-2.4,2.8C150.6,187.6,144.9,188.1,141,184.8z" style="fill:#143640;"></path>
		</g>
	</g>
	<g>
		<g>
			<path d="M65.1,62.7c-2.9,0-5.3-2.4-5.3-5.3c0-2.9,2.4-5.3,5.3-5.3c2.9,0,5.3,2.4,5.3,5.3
				C70.4,60.3,68.1,62.7,65.1,62.7z M65.1,53.7c-2,0-3.7,1.7-3.7,3.7s1.7,3.7,3.7,3.7c2,0,3.7-1.7,3.7-3.7S67.2,53.7,65.1,53.7z" style="fill:#74DEFF;"></path>
		</g>
		<g>
			<path d="M101,62.7c-2.9,0-5.3-2.4-5.3-5.3c0-2.9,2.4-5.3,5.3-5.3c2.9,0,5.3,2.4,5.3,5.3
				C106.3,60.3,103.9,62.7,101,62.7z M101,53.7c-2,0-3.7,1.7-3.7,3.7s1.7,3.7,3.7,3.7c2,0,3.7-1.7,3.7-3.7S103,53.7,101,53.7z" style="fill:#74DEFF;"></path>
		</g>
	</g>
</g>
<g id="레이어_1">
</g>
</svg>
