<svg xmlns="http://www.w3.org/2000/svg" viewBox="0 0 220 280"><defs><style>.cls-1,.cls-8{fill:#fff;}.cls-2,.cls-3{fill:#0088c5;}.cls-3,.cls-4,.cls-8,.cls-9{fill-rule:evenodd;}.cls-4,.cls-6{fill:#009ff9;}.cls-5{fill:#683100;}.cls-7{fill:#009ff8;}.cls-9{fill:#ffbeb8;}.cls-10{fill:#d24848;}.cls-11{fill:#fefefe;}.cls-12{fill:#221e1f;}</style></defs><g id="레이어_2" data-name="레이어 2"><path class="cls-1" d="M158.34,101.51c-3.2,5.38-7.46,9.68-12,14.35-2,2.06-9.34,9.44-3.55,11.72,2.1.83,5-.9,6.81-1.79a45.44,45.44,0,0,0,10.81-7.35,51.69,51.69,0,0,0,9.12-11.18A37.43,37.43,0,0,1,158.34,101.51Z"/><path class="cls-2" d="M164.1,80.46v.23a45.25,45.25,0,0,1-.43,5.88,38.24,38.24,0,0,1-1.94,7.75c-.46,1.26-1,2.54-1.6,3.85a35.38,35.38,0,0,1-1.79,3.34,37.43,37.43,0,0,0,11.23,5.75,60.2,60.2,0,0,0,3.29-6.13c2.79-6,5.56-13.08,5.6-19.85a9.36,9.36,0,0,0-4.8-8.31,10.15,10.15,0,0,0-1.94-.81c-2.25-.67-4.79-.45-6.34,1.25a4,4,0,0,0-.71,1.09C163.82,76.28,164.14,78.49,164.1,80.46Z"/><path d="M141.94,127.12c-4.05-2.68,2.57-9.32,4.44-11.26,4.5-4.67,8.76-9,12-14.35a35.38,35.38,0,0,0,1.79-3.34c.61-1.31,1.14-2.59,1.6-3.85a37.57,37.57,0,0,0,1.93-7.75,43.51,43.51,0,0,0,.44-5.88v-.23c0-2-.28-4.18.57-6a4,4,0,0,1,.71-1.09c1.55-1.7,4.09-1.92,6.34-1.25a10.15,10.15,0,0,1,1.94.81l.68.41a9.4,9.4,0,0,1,4.12,7.9c-.05,6.77-2.82,13.85-5.6,19.85a60.2,60.2,0,0,1-3.29,6.13,51.94,51.94,0,0,1-9.11,11.18,45.71,45.71,0,0,1-10.82,7.35c-1.83.89-4.71,2.62-6.81,1.79a4.36,4.36,0,0,1-.89-.46M140.06,130a7.87,7.87,0,0,0,1.53.79c3.25,1.28,6.61-.42,8.84-1.55l.69-.35a48.56,48.56,0,0,0,11.63-7.9A55,55,0,0,0,172.46,109a62.4,62.4,0,0,0,3.48-6.47c2.73-5.88,5.86-13.61,5.92-21.25a12.9,12.9,0,0,0-5.65-10.76,9.71,9.71,0,0,0-.94-.56,13.23,13.23,0,0,0-2.58-1.08c-3.78-1.13-7.54-.28-9.82,2.21A7.72,7.72,0,0,0,161.61,73a12.94,12.94,0,0,0-.91,6.1c0,.43,0,.85,0,1.27v.26a40.23,40.23,0,0,1-.41,5.44,34.25,34.25,0,0,1-1.76,7.06c-.42,1.16-.9,2.33-1.48,3.58a34.46,34.46,0,0,1-1.64,3c-2.82,4.74-6.66,8.73-10.74,13l-.74.77-.17.18c-3.45,3.56-6.92,7.76-6.47,11.81a6.06,6.06,0,0,0,2.76,4.45Z"/><path d="M115.52,171.28a4.09,4.09,0,0,1,4.08,4.09v49.45s1.88-2.31,6.84-2.31a19.71,19.71,0,0,1,3.73.38l.28.07a17.91,17.91,0,0,1,12.1,9.33c1.3,2.56,1.87,7.26-.17,9.61-2.26,2.58-5.59,2.9-8.82,2.9-1.06,0-2.11,0-3.11,0H113.89c-2.37,0-6.12-1.92-6.12-4.29V205.83h0V175.37c0-2.26,5.49-4.09,7.75-4.09m0-3.39c-2.36,0-11.14,1.87-11.14,7.48v65.11c0,4.69,5.63,7.68,9.51,7.68h16.56l1.45,0h1.66c3.87,0,8.24-.48,11.37-4.06s2.33-10.06.65-13.37a21.42,21.42,0,0,0-14.41-11.12l-.28-.06a22.63,22.63,0,0,0-4.45-.47,16.89,16.89,0,0,0-3.45.35V175.37a7.49,7.49,0,0,0-7.47-7.48Z"/><path class="cls-1" d="M119.61,175.36v30.48H107.76V175.36c0-2.24,5.49-4.08,7.75-4.08A4.1,4.1,0,0,1,119.61,175.36Z"/><path class="cls-3" d="M142.37,241.89c-3,3.45-7.88,2.89-11.93,2.89H113.9c-2.38,0-6.14-1.93-6.14-4.3V205.84h11.85v19s2.8-3.42,10.55-1.92a2.13,2.13,0,0,1,.28.06,17.9,17.9,0,0,1,12.1,9.36C143.85,234.85,144.41,239.54,142.37,241.89Z"/><path class="cls-1" d="M98.09,179.94v30.45H86.27V179.94c0-2.27,5.49-4.08,7.75-4.08A4.08,4.08,0,0,1,98.09,179.94Z"/><path class="cls-4" d="M120.88,246.47c-3,3.42-7.89,2.86-11.93,2.86H92.38c-2.35,0-6.11-1.9-6.11-4.27V210.39H98.09v19s2.8-3.45,10.58-1.92a2.57,2.57,0,0,1,.28.06,18,18,0,0,1,12.1,9.33C122.35,239.43,122.92,244.13,120.88,246.47Z"/><path d="M94,175.86a4.09,4.09,0,0,1,4.09,4.08V229.4s1.88-2.32,6.84-2.32a19,19,0,0,1,3.73.39l.28.06a17.93,17.93,0,0,1,12.1,9.34c1.3,2.56,1.87,7.25-.17,9.6-2.26,2.59-5.59,2.91-8.82,2.91-1.06,0-2.11,0-3.11,0H92.39c-2.37,0-6.12-1.92-6.12-4.28V210.4h0V179.94c0-2.25,5.49-4.08,7.74-4.08m0-3.39c-2.35,0-11.13,1.87-11.13,7.47v65.11c0,4.69,5.63,7.68,9.51,7.68H109l1.45,0,1.66,0c3.87,0,8.24-.48,11.37-4.07s2.33-10.06.65-13.37a21.41,21.41,0,0,0-14.41-11.11l-.24-.06a23.33,23.33,0,0,0-4.49-.47,16.93,16.93,0,0,0-3.45.34V179.94A7.48,7.48,0,0,0,94,172.47Z"/><path class="cls-1" d="M75.67,36C83,39.73,86.31,50.12,81.4,57.22c-1.14,1.65-4.78,1.92-7,1.07-2.64-1,.36-1.85-2-4.12s-7-2.6-12.68.33a9.22,9.22,0,0,1-12.53-4.08A9.59,9.59,0,0,1,51.29,37.7c4.6-2.41,9.48-4.66,14.79-4.33A25.16,25.16,0,0,1,75.67,36Z"/><path class="cls-5" d="M63.07,49.06a3.57,3.57,0,0,0-2-.57,3.81,3.81,0,0,0,1.41-6.85,3.61,3.61,0,0,0-2.6-.56,3.73,3.73,0,0,0,2.1-1.49c1.18-1.74.16-4.17-1.54-5.34-.15-.11-.95-.27-1.12-.35a27.83,27.83,0,0,0-8,3.79,9.6,9.6,0,0,0-4.13,12.73A9.23,9.23,0,0,0,59.69,54.5L64.52,52c1.18-.64-.28-2.13-1.45-2.92"/><path d="M77.38,60.5A9.89,9.89,0,0,1,74,59.93c-2.22-.84-2.26-2.19-2-3.28.09-.43.12-.6-.47-1.17-2.08-2-6.39-1.75-11,.59A10.71,10.71,0,0,1,46,51.32,11.13,11.13,0,0,1,50.73,36.6c4.51-2.36,9.8-4.85,15.58-4.49a26.33,26.33,0,0,1,10.18,2.74h0a16.87,16.87,0,0,1,8.36,10.88,15.51,15.51,0,0,1-2.09,12.58C81.67,59.89,79.47,60.5,77.38,60.5Zm-2.46-3.43.13.06c1.92.72,4.67.31,5.24-.53a12.32,12.32,0,0,0,1.65-10.15,13.82,13.82,0,0,0-6.82-8.93h0a23.37,23.37,0,0,0-9-2.41c-5-.32-9.66,1.88-14,4.15A8.11,8.11,0,0,0,48.64,50a7.63,7.63,0,0,0,4.49,3.9,7.75,7.75,0,0,0,6-.49c5.83-3,11.35-3,14.41-.08A3.83,3.83,0,0,1,74.92,57.07Z"/><path class="cls-1" d="M102,31.82c-4.7,6.4-3,17,4.46,21.37,1.73,1,5-.26,6.58-1.94,1.85-2-1.13-1.51-.07-4.52s4.9-5.19,11.19-4.94a8.63,8.63,0,0,0,9.1-8.82A9.85,9.85,0,0,0,124,23.32c-5.07-.26-10.32-.25-14.8,2.24A23.07,23.07,0,0,0,102,31.82Z"/><path class="cls-5" d="M118.8,38.33A3.36,3.36,0,0,1,120.32,37a3.75,3.75,0,0,1-2.78-.45,3.85,3.85,0,0,1-1.49-5.09,3.37,3.37,0,0,1,2-1.58,3.69,3.69,0,0,1-2.49-.46c-1.8-1.07-2-3.66-1-5.4.08-.16.71-.64.82-.78a27,27,0,0,1,8.64.09A9.87,9.87,0,0,1,133.26,33a8.63,8.63,0,0,1-9.1,8.81l-5.33-.25c-1.31-.08-.7-2,0-3.21"/><path d="M107.94,55.3a4.38,4.38,0,0,1-2.24-.55,16,16,0,0,1-7.45-10.66,16.19,16.19,0,0,1,2.53-12.9h0a24.56,24.56,0,0,1,7.69-6.68c4.89-2.72,10.62-2.68,15.61-2.43a11.41,11.41,0,0,1,10.67,11.14,10.15,10.15,0,0,1-10.66,10.34c-5-.2-8.81,1.34-9.72,3.93-.26.75-.17.87.12,1.25.66.88,1.22,2.1-.36,3.8A9.4,9.4,0,0,1,107.94,55.3ZM120.27,25c-3.61,0-7.2.42-10.34,2.16A21.72,21.72,0,0,0,103.2,33h0a13.37,13.37,0,0,0-2,10.51,13,13,0,0,0,6,8.67c.86.51,3.4-.24,4.73-1.66l.06-.07a3.85,3.85,0,0,1-.46-3.92c1.38-3.92,6.24-6.18,12.67-5.94a7.14,7.14,0,0,0,7.54-7.3,8.37,8.37,0,0,0-7.83-8.18C122.72,25,121.49,25,120.27,25ZM102,32.08h0Z"/><path d="M97.91,42.21c10.56-1.13,22,2,31.31,7.08,8,4.3,14,13,17.54,21.22.21.5.38,1,.58,1.5.39.85.76,1.69,1.1,2.53,4.09,10.08,3.24,19.33,1.46,29.95-.38,2.31-3.69,13.73-3.71,14.26-.66,6.15,3.19,13.17,4.66,19,2.74,10.85,4.24,22.19.77,33.08-4.73,14.84-18.65,21.42-32.9,23.93-1.4.24-2.82.44-4.23.59l-.93.1h-.2l-3.52.33c-1.73.16-3.53.25-5.27.27-11.92.11-25.4-3.14-33.81-12.26-6.09-6.6-9.35-18.26-9.69-27.17-.26-6.95,1.14-13.85,1.72-20.75.22-2.7.94-5.39.45-8.06-.1-.57-.24-1.12-.38-1.67-.55-1.17-4.72-10-5.9-13.37a57.46,57.46,0,0,1-4.4-24.53c.34-9,2.88-19.26,8.79-26.18C69,53.19,79.64,45.5,91,43.38l.21,0,3.65-.68q1.5-.28,3-.45m-.35-3.41c-1.12.12-2.23.28-3.31.49L90.61,40l-.28.06c-11,2-22.53,9.26-31.54,19.8-5.69,6.64-9.19,17-9.62,28.29A60.71,60.71,0,0,0,53.8,114c1,2.84,3.72,8.78,5.85,13.31.1.39.19.74.25,1.1a15.49,15.49,0,0,1-.2,4.64c-.11.84-.22,1.68-.3,2.52-.18,2.21-.46,4.49-.73,6.7a89.51,89.51,0,0,0-1,14.47c.35,9.29,3.77,22,10.59,29.38,8,8.62,21.2,13.49,36.34,13.35,1.77,0,3.69-.12,5.54-.29l3.52-.32.19,0,1-.1c1.5-.16,3-.37,4.46-.62,18.84-3.31,31.13-12.39,35.55-26.26,4-12.6,1.73-25.31-.71-35-.51-2-1.27-4.13-2-6.18-1.43-4-2.91-8.11-2.59-11.5.14-.58.71-2.67,1.22-4.53,1.3-4.75,2.24-8.23,2.48-9.63,1.73-10.33,2.91-20.54-1.67-31.82-.35-.86-.72-1.72-1.12-2.58l-.18-.47c-.13-.34-.26-.69-.41-1-4.44-10.42-11.39-18.77-19.06-22.9-11-5.92-22.82-8.58-33.25-7.46Z"/><path class="cls-6" d="M149.9,104.49c1.78-10.62,2.63-19.87-1.46-29.95-.34-.84-.71-1.69-1.1-2.53-.2-.5-.37-1-.58-1.5-3.53-8.27-9.56-16.92-17.54-21.22-10.26-5.52-23-8.8-34.34-6.63l-3.65.68-.21,0C79.64,45.5,69,53.19,61.35,62.07,55.44,69,52.9,79.25,52.56,88.25A57.46,57.46,0,0,0,57,112.78c1.18,3.41,5.35,12.2,5.9,13.37.14.55.28,1.1.38,1.67.49,2.67-.23,5.36-.45,8.06-.58,6.9-2,13.8-1.72,20.75.34,8.91,3.6,20.57,9.69,27.17,8.41,9.12,21.89,12.37,33.81,12.26,1.74,0,3.54-.11,5.27-.27l3.52-.33h.2q2.59-.24,5.16-.69c14.25-2.51,28.17-9.09,32.9-23.93,3.46-10.89,2-22.23-.77-33.08-1.47-5.83-5.32-12.85-4.66-19C146.2,118.22,149.52,106.8,149.9,104.49Z"/><path class="cls-7" d="M94.88,42.66l-.21,0Z"/><path class="cls-8" d="M157.68,104.86c-4.86,8.12-15.7,14.63-29,17.43-32.95,7-51.5-.68-56.81-23.4C71.12,95.68,67.81,79,76,66.05a31.09,31.09,0,0,1,9.83-9.63,43.92,43.92,0,0,1,14.59-5.53c1.69-.35,3.31-.62,4.88-.84,34.42-4.63,40.75,21.73,41,22.91a1.72,1.72,0,0,0,1.46,1.3c.35.07,9.1,1.34,12.06,12.07C161.7,93.14,161,99.37,157.68,104.86Z"/><path d="M163.1,85.4c-2.94-10.65-10.77-13.57-13.75-14.29-1.61-5.52-10.64-29-44.39-24.47q-2.49.34-5.19.88C87.57,50,78.62,55.64,73.18,64.21,64.45,78,67.44,94.85,68.56,99.69c5.25,22.47,22,31.6,51,27.68,3.11-.41,6.37-1,9.79-1.72,14.4-3,25.76-10,31.18-19C164.39,100.33,165.24,93.18,163.1,85.4ZM71.88,98.89C71.12,95.68,67.81,79,76,66.05a31.09,31.09,0,0,1,9.83-9.63,43.92,43.92,0,0,1,14.59-5.53c1.69-.35,3.31-.62,4.88-.84,34.42-4.63,40.75,21.73,41,22.91a1.72,1.72,0,0,0,1.46,1.3c.35.07,9.1,1.34,12.06,12.07,1.87,6.81,1.15,13-2.15,18.53-4.86,8.12-15.7,14.63-29,17.43C95.74,129.26,77.19,121.61,71.88,98.89Z"/><path class="cls-9" d="M121.37,95.4c1.08,6.91-3.32,13.36-9.81,14.4s-12.65-3.73-13.73-10.65,3.31-13.36,9.81-14.39,12.65,3.73,13.73,10.64"/><path class="cls-9" d="M159,84.75c-.89-2.28-4.7-9.81-8.13-6.46-4.63,4.52-1,13.93,2.21,18.42,1.26,1.77,3.36,3.75,5.82,2.93,1.39-.46,1.56-3.26,1.63-4.22A24.68,24.68,0,0,0,159,84.75Z"/><path d="M135.06,83.19c1.18-.16,2-1,1.91-1.92a1.93,1.93,0,0,0-2.33-1.36c-1.19.16-2,1-1.93,1.92A2,2,0,0,0,135.06,83.19Z"/><path class="cls-10" d="M141.25,88.37c-2.23.42-3,.21-5.18-1-1.25,2.31-3.07,2.62-4.79,4.22-.81.76-2.89.28-4,.44-.78.11-.53,3.08-.39,4.22l.75,6s.94,7.32,10.5,1.91c0,0,5.7-2.89,4.84-9.09l-.53-5.25C142.4,89,141.83,88.26,141.25,88.37Z"/><path class="cls-1" d="M127,91.35c-.28,0,.54,1.56.72,1.76a3.41,3.41,0,0,0,2.32,1.49A21.28,21.28,0,0,0,139.86,92c1.28-.71,1.79-.93,2-2.66,0,0-6-.44-6.35-1.93A10.09,10.09,0,0,1,127,91.35Z"/><path d="M132.11,107.16a5.63,5.63,0,0,1-2.56-.57,5.77,5.77,0,0,1-2.92-4.21l-.75-6c-.56-4.49.37-5.21,1.23-5.33l.29,2a.68.68,0,0,0,.45-.27,9.73,9.73,0,0,0,0,3.37l.75,6a3.81,3.81,0,0,0,1.85,2.68c1.57.78,4,.26,7.16-1.51.25-.13,5.1-2.68,4.35-8.08l-.54-6.3,2-.17L144,95c.93,6.77-5.33,10-5.39,10.06A13.61,13.61,0,0,1,132.11,107.16Z"/><path d="M144.71,83.19a1.23,1.23,0,0,0-1.83-.16,1.51,1.51,0,0,0-.1,2c.06.08.19.24-.14.89a3.29,3.29,0,0,1-2.52,1.76,3.89,3.89,0,0,1-3.3-1.15,2.31,2.31,0,0,0-.19-.14,1.24,1.24,0,0,0-.18-.14h0a1.35,1.35,0,0,0-.33-.09l-.16,0a.81.81,0,0,0-.31.05.53.53,0,0,0-.18,0,1.35,1.35,0,0,0-.22.14l-.21.15,0,0a1.43,1.43,0,0,0-.12.21,1.88,1.88,0,0,0-.12.18c-1.33,3.26-6.24,4.83-9.74,3.1a6,6,0,0,1-1.52-1,1.56,1.56,0,0,0-.57-1.6,1.22,1.22,0,0,0-1.79.41,2.37,2.37,0,0,0-.22,1.88c.31,1.07,1.35,2,3.09,2.91a9.89,9.89,0,0,0,6.06.82,9.49,9.49,0,0,0,6.23-3.88,6.29,6.29,0,0,0,4.23,1l.21,0a5.77,5.77,0,0,0,4.18-3.1A3.63,3.63,0,0,0,144.71,83.19Z"/><path class="cls-11" d="M84.54,148.47a23.64,23.64,0,0,1-5.5,7.71,12.35,12.35,0,0,1-8.7,3.26c-4.23-.26-7.92-3.31-9.94-7.05s-2.58-8.07-2.74-12.31c-.14-3.89.06-7.91,1.76-11.41a8.64,8.64,0,0,1,8.6-5c3.88.12,8.07,6.27,7,10,2.1-3,4.14-6.64,8.16-6C92.27,129.11,87.2,143,84.54,148.47Z"/><path class="cls-2" d="M72.13,124.49A10,10,0,0,1,75,135.32a43.07,43.07,0,0,0-.77,7.31,11.52,11.52,0,0,1,5.45,7.47s.75,5.54-3.72,8.52c0,0-6.48,3.28-11.27-.63a20.48,20.48,0,0,1-7.51-15.28s-2.16-17.1,8.15-19.62C65.37,123.09,70.14,122.94,72.13,124.49Z"/><path class="cls-12" d="M70.46,162.9c-5.08,0-9.49-3.54-11.51-7.56-2.4-4.78-2.6-10.32-2.79-15.2-.13-3.55,0-8.13,1.91-12.12,2.24-4.59,6.83-7.05,11.16-6a10.44,10.44,0,0,1,6.31,4.78,9.55,9.55,0,0,1,1.1,2.8c1.57-1.94,3.68-4.08,6.9-3.42a7.34,7.34,0,0,1,5.47,4c2.88,5.88-1.64,15.91-3.09,18.85l-1.38-.6,1.35.65c-1.34,2.79-6.25,12-13,13.51A11.2,11.2,0,0,1,70.46,162.9Zm-3.32-38.11c-2.54,0-5,1.7-6.37,4.54-1.65,3.4-1.73,7.5-1.61,10.69.17,4.59.37,9.78,2.47,14,1.77,3.52,6.08,6.72,10.58,5.71,4.34-1,8.63-7,11-11.88h0l0-.08c2.55-5.16,4.9-12.5,3.09-16.2a4.45,4.45,0,0,0-3.39-2.4c-1.69-.35-2.84.93-4.53,3.09A13.81,13.81,0,0,1,76,134.87a1.5,1.5,0,0,1-2.34-1.6,6.29,6.29,0,0,0-.68-4.93A7.44,7.44,0,0,0,68.51,125,5.41,5.41,0,0,0,67.14,124.79Z"/><path class="cls-12" d="M74.26,144.13a1.49,1.49,0,0,1-1.46-1.2c-1-4.79,1.75-11.89,1.86-12.19a1.5,1.5,0,0,1,2.8,1.09c0,.07-2.52,6.57-1.72,10.5a1.51,1.51,0,0,1-1.17,1.77Z"/></g><g id="레이어_3" data-name="레이어 3"><path d="M115.26,80.69c-.19.2-.11.63.22,1s.88.61,1.15.44c2.71-1.7,3.35-2.1,6.18-2.63.36-.07.41-.48.13-.92a1.33,1.33,0,0,0-1.15-.68c-3,.55-3.73,1-6.47,2.74Z"/><path d="M139.43,73.35a8.74,8.74,0,0,0-2.58.78,1.08,1.08,0,0,0-.45,1.25c.13.53.55.82.93.67,2-.86,2.38-.78,3.29-.56.35.08.78.18,1.38.27.4,0,.74-.35.77-.9a1,1,0,0,0-.69-1.09c-.55-.08-.94-.17-1.27-.25A4.46,4.46,0,0,0,139.43,73.35Z"/></g></svg>