<svg id="레이어_6" data-name="레이어 6" xmlns="http://www.w3.org/2000/svg" viewBox="0 0 250 250"><defs><style>.cls-1{fill:#e09346;}.cls-2{fill:#eaa95d;}.cls-3{fill:#7bbcff;}.cls-4{fill:#f04a32;}.cls-5{fill:#53bc63;}.cls-6{fill:#90eb9e;}.cls-7{fill:#5eb86b;opacity:0.63;}.cls-8{fill:#d83221;}.cls-9{fill:#221e1f;}.cls-10{fill:#f8c96a;}.cls-11{fill:#fff5e6;}.cls-12{fill:#ffa76c;}.cls-13{fill:#ea5e2d;}.cls-14{fill:#ff864a;}.cls-15{fill:#f46b2f;}</style></defs><path class="cls-1" d="M134.92,168.08,128,165.45l-3,2-.21.17c1.85,1.16,4,2.12,6,3.46h0Z"/><path class="cls-2" d="M119.62,172.74c1.91,1.68,4.14,2.8,6.17,4.28a21.82,21.82,0,0,1,5-5.93c-2-1.34-4.1-2.3-6-3.46A24.61,24.61,0,0,0,119.62,172.74Z"/><path class="cls-1" d="M117,177.47c2.24,1,5,1.64,7.3,3.08a16.88,16.88,0,0,1,1.54-3.53c-2-1.48-4.26-2.6-6.17-4.28A20.11,20.11,0,0,0,117,177.47Z"/><path class="cls-2" d="M117,177.47a20.58,20.58,0,0,0-1.41,9.06l8.25.39a14.08,14.08,0,0,1,.46-6.37C122,179.11,119.19,178.51,117,177.47Z"/><path class="cls-1" d="M123.79,186.92l-8.25-.39a15.62,15.62,0,0,0,.45,2.91c0,.25.09.5.14.76,2.57-.48,5.4-.95,8.08-1.43A13.21,13.21,0,0,1,123.79,186.92Z"/><path class="cls-2" d="M127,194.67l-3.36,1.12c1.17-.32,2.33-.62,3.49-.92Z"/><path class="cls-1" d="M128.52,197c-.52-.75-1-1.45-1.38-2.12-1.16.3-2.32.6-3.49.92l-4.28,1.43c.44.66.89,1.31,1.36,1.93a.76.76,0,0,0,.08.11c2.77-.64,5.7-.68,8.41-1.3Z"/><path class="cls-2" d="M140.07,204.56l-5.62-.53-.28-.28,0,0a.49.49,0,0,1,0-.12l-.11,0a53,53,0,0,1-4.83-5.67c-2.71.62-5.64.66-8.41,1.3.66.87,1.32,1.69,2,2.45l-12-1.52a2.81,2.81,0,0,0-2.78,1.7,2.13,2.13,0,0,0,1.64,3l12.29.83a.33.33,0,0,1,.07.65l-8.15,2.34a2.68,2.68,0,0,0-.8,4.8l.32.22a4.37,4.37,0,0,0,4.17.42l15.4-6.44a.36.36,0,0,1,.25,0l6.05,1.2a1.72,1.72,0,0,0,2.25-1.08l.23-.73A2,2,0,0,0,140.07,204.56Z"/><path class="cls-2" d="M123.65,195.79l3.36-1.12a27.2,27.2,0,0,1-2.79-5.86.06.06,0,0,1,0,0c-2.68.48-5.51.95-8.08,1.43a21.48,21.48,0,0,0,3.22,7C120.76,196.64,122.2,196.19,123.65,195.79Z"/><path class="cls-2" d="M123.65,195.79c-1.45.4-2.89.85-4.3,1.39l0,0Z"/><path d="M115.79,215.79a5.63,5.63,0,0,1-3.18-1l-.31-.22a3.89,3.89,0,0,1-1.68-3.86,4,4,0,0,1,2.84-3.17l3.12-.89-7.07-.48a3.22,3.22,0,0,1-2.58-1.7,3.3,3.3,0,0,1-.08-3.18,4,4,0,0,1,4-2.34l9,1.12,0-.07-.09-.11c-.45-.62-.92-1.29-1.39-2l0-.05a22.55,22.55,0,0,1-3.38-7.39c0-.25-.11-.51-.15-.76a18.29,18.29,0,0,1-.47-3.08,22.07,22.07,0,0,1,1.49-9.62,22.53,22.53,0,0,1,2.83-5,26.58,26.58,0,0,1,5.47-5.37l.23-.17,3-2a1.22,1.22,0,0,1,1.14-.13l6.92,2.63a1.24,1.24,0,0,1,.8,1,1.26,1.26,0,0,1-.51,1.18l-4.09,3h0a20.15,20.15,0,0,0-4.68,5.56,15.66,15.66,0,0,0-1.42,3.27,12.92,12.92,0,0,0-.43,5.81,13.4,13.4,0,0,0,.39,1.7,25.61,25.61,0,0,0,2.67,5.6l.12.2c.45.73.89,1.4,1.34,2.05l.53.74.16.21a50.17,50.17,0,0,0,4.42,5.23,1.39,1.39,0,0,1,.43.3l.07.09,5,.48h.11a3.34,3.34,0,0,1,2.24,1.55,3.24,3.24,0,0,1,.32,2.63l-.22.73a3,3,0,0,1-1.51,1.76,3.05,3.05,0,0,1-2.26.16L133.11,209,118,215.35A5.7,5.7,0,0,1,115.79,215.79Zm-5.37-14.36a1.74,1.74,0,0,0-1.37,1,.87.87,0,0,0,.06.79.78.78,0,0,0,.57.41l12.28.83a1.59,1.59,0,0,1,1.48,1.42,1.58,1.58,0,0,1-1.14,1.68L114.15,210a1.42,1.42,0,0,0-1.06,1.16,1.39,1.39,0,0,0,.62,1.4l.31.22a3.18,3.18,0,0,0,3,.3l15.39-6.44a1.55,1.55,0,0,1,1-.06l6,1.18.18.06a.55.55,0,0,0,.4,0,.46.46,0,0,0,.23-.26l.22-.73a.74.74,0,0,0-.07-.6.82.82,0,0,0-.51-.37l-5.56-.52a1.27,1.27,0,0,1-.77-.37l-.28-.28-.06-.07-.06-.06a52.49,52.49,0,0,1-4.94-5.8l-.16-.21c-.2-.27-.39-.53-.57-.79-.48-.69-.94-1.4-1.42-2.18l-.13-.21a28.24,28.24,0,0,1-2.93-6.15,18.62,18.62,0,0,1-.46-2,15.56,15.56,0,0,1,.5-6.93,19,19,0,0,1,1.65-3.78,23,23,0,0,1,5.29-6.28l0,0,2.27-1.65-4.15-1.58-2.59,1.78a23.58,23.58,0,0,0-4.95,4.86,19.48,19.48,0,0,0-2.51,4.44,19.18,19.18,0,0,0-1.32,8.51,14.55,14.55,0,0,0,.4,2.65,1.36,1.36,0,0,1,0,.17c0,.22.08.45.13.67a20.09,20.09,0,0,0,3,6.57c.47.7.91,1.33,1.34,1.9l.08.11c.6.8,1.25,1.61,1.91,2.39a1.24,1.24,0,0,1,.15,1.4,1.28,1.28,0,0,1-1.26.65l-12-1.51ZM135.35,204Z"/><path class="cls-1" d="M149.58,168.31l-5.18-3.22L142,166.87c1.44,1.38,3.34,2.15,5,3.27l.24-.22Z"/><path class="cls-2" d="M162.17,206.05c-1-.06-2.12,0-3.16,0-.55,0-1.1,0-1.65.09a2.79,2.79,0,0,1-2-.48c-.62-.52-2.06-.63-2.52-1.28s-1.27-1.48-1.73-2.2-2.57-2-3-2.65c-.19-.34-1.24-.55-1.43-.9a6.27,6.27,0,0,0-.53-1.07c-2.51.36,1,2.12-1.61,2.86,1.71,3.22,1.47,4.11,2.41,5.32l-14.19,0a3,3,0,0,0-2.76,1.94,2,2,0,0,0,2,2.63l12.29-.76a.34.34,0,0,1,.16.65l-7.77,3.44a2.77,2.77,0,0,0-.17,5l.34.17a4.28,4.28,0,0,0,4.2-.11l14.41-8.54a.34.34,0,0,1,.26,0l6.16.43a1.71,1.71,0,0,0,2.08-1.39l.13-.77A2.07,2.07,0,0,0,162.17,206.05Z"/><path class="cls-1" d="M140,199.88c.45.55.89,1.09,1.34,1.6,2.58-.79,5.14-1.46,7.61-2.23-.7-.85-1.33-1.7-1.92-2.52A23.79,23.79,0,0,0,140,199.88Z"/><path class="cls-1" d="M133.53,188.62a12.85,12.85,0,0,0,.94,2.83c2.79-.76,5.55-1.21,8.2-1.84-.63-1.24-.95-2-.95-2-.1-.36-.19-.7-.27-1.05a72.8,72.8,0,0,1-8.34.43A11.68,11.68,0,0,0,133.53,188.62Z"/><path class="cls-2" d="M133.94,177.29a18.34,18.34,0,0,0-.83,9.7,72.8,72.8,0,0,0,8.34-.43,15.24,15.24,0,0,1,.21-7.55C139.35,178.11,136.67,177.85,133.94,177.29Z"/><path class="cls-1" d="M133.94,177.29c2.73.56,5.41.82,7.72,1.72a18.09,18.09,0,0,1,.62-1.8c-2.17-1.21-4.2-2.42-6.52-3.64A20.18,20.18,0,0,0,133.94,177.29Z"/><path class="cls-2" d="M142,166.87l-.5.37a25.59,25.59,0,0,0-5.78,6.33c2.32,1.22,4.35,2.43,6.52,3.64a21.21,21.21,0,0,1,4.74-7.07C145.38,169,143.48,168.25,142,166.87Z"/><path class="cls-2" d="M134.47,191.45a39.8,39.8,0,0,0,5.49,8.43,23.79,23.79,0,0,1,7-3.15,55.68,55.68,0,0,1-4.32-7.12C140,190.24,137.26,190.69,134.47,191.45Z"/><path class="cls-2" d="M148.91,199.25c-2.47.77-5,1.44-7.61,2.23,2.95,3.44,5.6,6,5.6,6l9.47-.89A43.15,43.15,0,0,1,148.91,199.25Z"/><path d="M138.85,220.63a5.53,5.53,0,0,1-2.58-.64l-.33-.17a4,4,0,0,1,.23-7.23l3.14-1.39-7.24.45a3.21,3.21,0,0,1-3.21-4.31,4.23,4.23,0,0,1,3.94-2.76l9.55,0c-.69-.75-1.36-1.51-2-2.26-.45-.52-.9-1.06-1.36-1.62a40.7,40.7,0,0,1-5.67-8.71,15.55,15.55,0,0,1-1-3,14.3,14.3,0,0,1-.43-1.72,19.65,19.65,0,0,1,.87-10.37,21.57,21.57,0,0,1,1.94-4,26.7,26.7,0,0,1,6.06-6.65l2.89-2.17a1.27,1.27,0,0,1,1.41-.06l5.18,3.22a1.24,1.24,0,0,1,.59,1,1.26,1.26,0,0,1-.53,1.06l-2.41,1.7a19.87,19.87,0,0,0-4.45,6.63,14.37,14.37,0,0,0-.57,1.67,14,14,0,0,0-.2,6.94c.07.3.14.6.23.91s.38.87.88,1.86A55.21,55.21,0,0,0,148,196c.64.88,1.25,1.69,1.88,2.46a43,43,0,0,0,6,6.07,2.44,2.44,0,0,1,.31.22,1.64,1.64,0,0,0,1.08.19c.57-.05,1.15-.07,1.72-.09l.88,0c.78,0,1.58-.06,2.38,0a3.35,3.35,0,0,1,3.09,3.87l-.13.76a3,3,0,0,1-3.5,2.43l-5.85-.41-14.16,8.4A5.58,5.58,0,0,1,138.85,220.63Zm5.46-12.24a1.59,1.59,0,0,1,.65,3l-7.78,3.44a1.52,1.52,0,0,0-.09,2.73l.34.18a3.07,3.07,0,0,0,3-.08l14.42-8.55a1.57,1.57,0,0,1,1-.2l6.09.42.2,0a.45.45,0,0,0,.37-.06.48.48,0,0,0,.2-.32l.13-.76a.8.8,0,0,0-.17-.65.83.83,0,0,0-.59-.31h0c-.67,0-1.41,0-2.12,0l-.93,0c-.53,0-1,0-1.57.08a4,4,0,0,1-2.9-.77l-.21-.14a45.23,45.23,0,0,1-6.42-6.48c-.67-.82-1.31-1.66-2-2.59a57.61,57.61,0,0,1-4.42-7.27c-.64-1.27-1-2.06-1-2.09s0-.09,0-.13c-.11-.38-.21-.75-.29-1.13a16.49,16.49,0,0,1,.23-8.16,17,17,0,0,1,.66-1.93,22.82,22.82,0,0,1,5-7.5l.28-.25.12-.1.76-.52-2.84-1.76-2.18,1.63a24,24,0,0,0-5.47,6,18.1,18.1,0,0,0-1.71,3.48,17.15,17.15,0,0,0-.77,9,12.37,12.37,0,0,0,.37,1.44,1.33,1.33,0,0,1,0,.19,12,12,0,0,0,.85,2.57,38.08,38.08,0,0,0,5.32,8.14l1.31,1.58c1.22,1.41,2.53,2.84,3.9,4.25a1.25,1.25,0,0,1,.26,1.36,1.24,1.24,0,0,1-1.15.76l-12.44,0a1.71,1.71,0,0,0-1.6,1.12.71.71,0,0,0,.71,1l12.29-.76Zm11.12,3Zm.68-.11h0Z"/><path class="cls-3" d="M174.84,122.5a21.82,21.82,0,0,0,5.17-8.3c1.6-5,.9-10.33,1.17-15.54.62-11.76,7.32-23.83,18.43-27.76a23.75,23.75,0,0,1,15.85,0c5.59,2,10.59,6.74,11.22,12.65A12.06,12.06,0,0,1,208.2,95a.54.54,0,0,0-.82.58c1.84,7.25-1.12,15.11-5.15,21.54-6.7,10.71-16.87,19.68-29.1,22.87a29.49,29.49,0,0,1-14.78.24c-2.31-.62-11.26-3.95-9.37-7.33,1.31-2.36,8.36-1.33,12.62-2.59A27.9,27.9,0,0,0,174.84,122.5Z"/><path d="M165,142.58a27.63,27.63,0,0,1-7.05-.88c-.09,0-8.78-2.48-10.46-6.42a3.4,3.4,0,0,1,.16-3.09c1.19-2.14,4.33-2.35,8-2.59a27.21,27.21,0,0,0,5.53-.71,26.54,26.54,0,0,0,12.58-7.43h0a20.13,20.13,0,0,0,4.82-7.72c1-3.26,1-6.74,1-10.41,0-1.56,0-3.16.08-4.74.58-11.28,6.82-24.65,19.42-29.11a25,25,0,0,1,16.86.06c6.78,2.45,11.57,7.91,12.2,13.9a13.53,13.53,0,0,1-18.94,13.81c1.1,7.69-2.42,15.39-5.73,20.68-7.57,12.11-18.23,20.47-30,23.53A33.65,33.65,0,0,1,165,142.58Zm10.9-19a28.18,28.18,0,0,1-20.08,9.06c-1.93.12-5.16.34-5.55,1.05a.42.42,0,0,0,0,.45c.76,1.79,6,4,8.46,4.7a27.81,27.81,0,0,0,14-.24c11-2.87,21-10.76,28.21-22.22,3.29-5.25,6.82-13,5-20.37A2,2,0,0,1,209,93.75a10.55,10.55,0,0,0,16.19-10c-.58-5.52-5.56-9.7-10.23-11.39a22.41,22.41,0,0,0-14.84,0c-9.63,3.41-16.79,14.28-17.43,26.43-.08,1.5-.07,3.07-.07,4.58,0,3.75,0,7.62-1.17,11.34a23.13,23.13,0,0,1-5.52,8.88Z"/><path class="cls-4" d="M159.41,135.81c1.78.75,7.48,2,8.52,2.35,15.7,5.39,31.93-15.7,35.25-28.28,1.4-5.27,2.42-12.52,1.17-17.92a.73.73,0,0,1,1.06-.81,16.32,16.32,0,0,0,10.77,1.34c4-1.13,6.28-6.31,5.13-10.13s-5.16-6.47-8.81-7.77c-14.85-5.29-24.84,10.92-25.25,23.2-.24,7.32-.93,15.51-4.67,22a24.59,24.59,0,0,1-8.31,8.62s-10.38,6.47-19.05,5.43A22.71,22.71,0,0,0,159.41,135.81Z"/><path class="cls-5" d="M200.77,101a50.2,50.2,0,0,1-1.45,11.68c-1.61,6.31-5,10.86-9.58,15.48-6.84,6.87-17.68,7.76-27.25,9.3,14.14-2.87,25.19-11.9,28.5-28.52,1-5.24.57-11.62,1.46-16.89S195.9,81,200.78,78.76c4.21-1.9,10.56-1.66,14.17,1.49,2,1.71,3.49,5.18,2.19,7.68,0,0-1.75,3.47-5.16,2.24.63.24,1.75-1.28,1.9-1.76,1.26-4-4.67-5.22-7.29-4.71C198.72,85.23,200.88,95.18,200.77,101Z"/><path class="cls-3" d="M155.85,135.49a35.33,35.33,0,0,0,18.9-1.16,42.32,42.32,0,0,0,22.4-19,30.27,30.27,0,0,1,6.48-8.3c3.84-3.32,8.93-6.07,14.43-4.7a15,15,0,0,1,9.72,7.69c1.85,3.77,1.05,8.88-2.33,11.37-3.1,2.3-8.15,1.5-10.16-1.68a.26.26,0,0,0-.48.07c-.75,2.84-5.61,9.9-6.56,11.12-13.76,17.58-47,19.86-62.3,3.23a2.2,2.2,0,0,1-.66-1.93c.18-.68,1.31-1,1.56-.32Z"/><path d="M174.76,146.94c-12.15,0-23-4.24-29.91-11.78a3.6,3.6,0,0,1-1-3.33,2.48,2.48,0,0,1,2.3-1.8,2.14,2.14,0,0,1,1.67.63l8.48,3.39a33.72,33.72,0,0,0,18-1.13,41,41,0,0,0,21.6-18.31,31.52,31.52,0,0,1,6.81-8.7c5.24-4.55,10.7-6.29,15.77-5a16.51,16.51,0,0,1,10.71,8.49c2.25,4.61,1,10.42-2.79,13.24a9,9,0,0,1-10.87-.43,75.67,75.67,0,0,1-6,9.66c-7,8.89-19.12,14.52-32.55,15.06C176.17,146.92,175.46,146.94,174.76,146.94Zm-27-13.06c6.8,6.85,17.29,10.49,29,10,12.56-.51,23.89-5.71,30.31-13.91,1.13-1.45,5.65-8.15,6.29-10.58a1.76,1.76,0,0,1,3.2-.49,5.23,5.23,0,0,0,3.5,2.19,5.92,5.92,0,0,0,4.5-.91c2.64-2,3.48-6.22,1.88-9.51a13.7,13.7,0,0,0-8.74-6.9c-4.14-1-8.55.45-13.09,4.38a28.75,28.75,0,0,0-6.15,7.9,43.94,43.94,0,0,1-23.2,19.67A36.74,36.74,0,0,1,155.54,137l-.24-.08Z"/><path class="cls-4" d="M155,136.48c-.57-.2-1.66.56-1.3.93,2.78,2.84,8.57,4.55,12.42,5.35a38,38,0,0,0,4.22.62,42.24,42.24,0,0,0,5.51.12c17-.72,31-10.93,37.08-27,.26-.69,1.48-.68,2-.19a29.35,29.35,0,0,0,2.9,2.45,4.94,4.94,0,0,0,7.1-1.52,7,7,0,0,0-.54-7.77c-3.63-5.11-10.1-5.2-14.26-2.83-6.68,3.8-8.66,10.54-13.05,15.79-8.17,9.78-20.08,16.66-33.21,15.36C164,137.81,158.11,137.57,155,136.48Z"/><path class="cls-5" d="M220.92,109.63a10.25,10.25,0,0,0-4.37-1.69c-4-.3-7.49,2.69-9.78,5.64-2.06,2.64-3.11,5.25-5,8a36.1,36.1,0,0,1-6.33,7.33,58.47,58.47,0,0,1-16.4,8.93c-7.25,2.71-13.66,2.42-20,1.88-.42,0-2.56,1.22-2.74,1.16,5.55,1.86,24.09.2,29.73-1,13.06-2.83,19.79-13.76,23.73-22.58,1-2.21,2.79-4.39,5.25-5,2.28-.53,6.09.65,5.61,3.58,0,0-.06,1.63-1.59,1.19C224.22,118.59,224.76,112,220.92,109.63Z"/><path class="cls-3" d="M171.15,140.48c8.3,0,17-1.1,23.76-5.93,5-3.58,9-9.19,15-10.17a11,11,0,0,1,12,14.91,7.55,7.55,0,0,1-5.09,4.78c-2.37.51-5.18-1-5.55-3.38-3.3,4.57-8.63,9.66-14.67,11.49a34.24,34.24,0,0,1-17.8.7,60.37,60.37,0,0,1-29.24-15.29c-.75-.71-3.59-3.92-1.12-4.2.87-.09,5.32,3.8,6.51,4.33C160,140,165.7,140.48,171.15,140.48Z"/><path d="M186.49,155.23a38.56,38.56,0,0,1-8-.88,61.47,61.47,0,0,1-30-15.68c-.75-.71-3.12-3.2-2.45-5.19a2.42,2.42,0,0,1,2.2-1.58c1-.11,2.1.63,4.94,2.77a23.9,23.9,0,0,0,2.35,1.67c5.32,2.37,11.44,2.64,15.59,2.64h0c10.2,0,17.46-1.79,22.84-5.65a51.65,51.65,0,0,0,4.31-3.62c3.32-3,6.75-6.06,11.36-6.81a12.49,12.49,0,0,1,13.59,16.95,8.92,8.92,0,0,1-6.17,5.69,6.61,6.61,0,0,1-5-1,5.83,5.83,0,0,1-1.13-1c-2.71,3.29-7.61,8.2-14,10.12A35.92,35.92,0,0,1,186.49,155.23ZM150.4,136.31l.2.2a58.44,58.44,0,0,0,28.52,14.9,32.48,32.48,0,0,0,17-.67c4.8-1.45,10-5.54,13.89-10.93a1.52,1.52,0,0,1,1.57-.58,1.5,1.5,0,0,1,1.13,1.23,2.51,2.51,0,0,0,1.08,1.58,3.64,3.64,0,0,0,2.68.57,6.13,6.13,0,0,0,4-3.87,9.49,9.49,0,0,0-10.32-12.88c-3.74.61-6.7,3.27-9.83,6.08a52.65,52.65,0,0,1-4.58,3.82C188,141.35,178,142,171.14,142c-4.41,0-11-.3-16.8-2.89a21,21,0,0,1-2.93-2Z"/><path class="cls-4" d="M167.05,142.5a76.11,76.11,0,0,0,12.54.51,33.11,33.11,0,0,0,17-5.52c5.4-3.77,8.85-10.74,16.34-10.23a7.79,7.79,0,0,1,7,8.85c-.34,2.69-1.78,4.56-4.38,4.38-3.31-.25-3.94-5-3.94-5-4.88,6.3-10.67,11.56-17.45,13.08a41,41,0,0,1-19-.31c-6.41-1.63-12.78-4.07-17.93-8.19,0,0-.81-.92,1.53.22A25.3,25.3,0,0,0,167.05,142.5Z"/><path class="cls-5" d="M200,138.12c4.06-3,7.65-9.39,12.71-9.46a6.28,6.28,0,0,1,5.05,2.62c.76,1.28,1.37,3.56.6,5-1.61,3-5.89.67-4.87-2.26-.39,1,.91,1.85,1.56,1,1.1-1.41-1-3-2.16-3.11-2-.16-4.07,2-5.18,3.36-1.91,2.41-3.21,4-5,5.93-3.48,3.78-9.16,5.32-14.22,6.21-7,1.25-15.62-1.07-22.24-3.41-2.12-.75-3.41.81-4.15-1.32C175.91,144.34,187.7,147.26,200,138.12Z"/><path class="cls-3" d="M192.56,149.33c3.48-1.09,6.85-2.91,10.5-2.85a9.44,9.44,0,0,1,8.65,5.86,8.42,8.42,0,0,1-3.2,9.51,6.22,6.22,0,0,1-8.73-1.66,6.7,6.7,0,0,1-1.9,1.29c-16.71,6.78-33.6-3-45.49-18.83-2.19-2.93-3-4.74-1.81-6.15s6.32,2.11,8.65,4.15a42.91,42.91,0,0,0,10.44,6.56C176.8,150.43,185,151.7,192.56,149.33Z"/><path d="M186.9,165.14c-12.41,0-25.15-7.54-35.7-21.59-1.5-2-4-5.33-1.78-8a2.43,2.43,0,0,1,1.74-.86c3.19-.24,9,4.79,9.06,4.84a41.05,41.05,0,0,0,10.07,6.32c7.49,3.39,15.24,4.12,21.82,2h0c.94-.29,1.85-.63,2.83-1,2.57-1,5.19-2,8.14-1.91a10.91,10.91,0,0,1,10,6.84,9.84,9.84,0,0,1-3.72,11.23,7.87,7.87,0,0,1-6,1.27,7.42,7.42,0,0,1-3.86-2,7.15,7.15,0,0,1-1.1.58A30.42,30.42,0,0,1,186.9,165.14Zm-35.3-27.47c-.19.5.05,1.49,2,4.08,13,17.31,29.36,24.17,43.72,18.34a5.28,5.28,0,0,0,1.45-1l1.33-1.25,1,1.55a4.31,4.31,0,0,0,2.9,2,4.86,4.86,0,0,0,3.65-.73,6.87,6.87,0,0,0,2.69-7.79A8,8,0,0,0,203,148a19.47,19.47,0,0,0-7,1.72c-1,.36-2,.74-3,1.06-7.29,2.28-15.79,1.51-24-2.18a44.76,44.76,0,0,1-10.81-6.8C155.75,139.6,152.69,137.82,151.6,137.67Z"/><path class="cls-4" d="M193.73,151.87c2.88-1,5.51-2.51,8.59-2.68,2.81-.16,5.52.83,6.72,3.35s.33,4.78-2,6.37c-2.1,1.43-5.35.17-6.88-2.79a16.51,16.51,0,0,1-8.84,4.46c-10.74,1.95-20.9-3.28-28.44-10.52q-1.16-1.11-2.25-2.31c-1.87-2.05-1.83-2.16-.75-3s2.92,1.61,4.83,3c6.05,4.38,17,6.91,24.35,5.59A40.28,40.28,0,0,0,193.73,151.87Z"/><path class="cls-5" d="M176.17,154.17a26.48,26.48,0,0,0,14.33.52c3.85-1.05,7.39-3.49,11.41-3.36a6.12,6.12,0,0,1,4.33,1.74,3.43,3.43,0,0,1,.4,4.3,2.62,2.62,0,0,1-4.06-.1c.33.1.62.34,1.11-.05,1.17-1-.13-3.08-1.69-3.25a8.12,8.12,0,0,0-4.8,1.54c-6.88,4.66-13.58,4.05-20.43,1.74a43.63,43.63,0,0,1-9.8-5.14,40.43,40.43,0,0,1-4.69-3.31c-.18-.16-1.51-1.44-.58-1.13a44.55,44.55,0,0,1,6.82,3.37A40.92,40.92,0,0,0,176.17,154.17Z"/><path class="cls-5" d="M161.31,153.73l-.16-.07s7.48-18.79-10.27-24.85c-5.18-1.77-5.08-1.33-10.19-2.7-4.64-1.25-12.24-3.91-15.11-8,0,0-9-12.9-23.41-4.23,0,0-16.4,4.23-12.16,21.37,0,0,8.85,33.36,41.65,35.39A65.38,65.38,0,0,0,144,169.7l0,0A38.53,38.53,0,0,0,161.31,153.73Z"/><path class="cls-6" d="M185.47,164.35l-24.16-10.62a38.53,38.53,0,0,1-17.26,16l21.31,20a1.7,1.7,0,0,0,2.86-1.21l1.24-15.16a2.75,2.75,0,0,1,2.11-2.46c3.22-.77,9.7-1.46,13.72-3.24C186.4,167.18,187.5,165.64,185.47,164.35Z"/><path class="cls-7" d="M161.77,180.31a1,1,0,0,1-.72-.31L147.4,165.78a1,1,0,0,1,0-1.42,1,1,0,0,1,1.41,0l13.65,14.23a1,1,0,0,1,0,1.41A1,1,0,0,1,161.77,180.31Z"/><path class="cls-7" d="M166.89,171.25a.94.94,0,0,1-.53-.16l-14.87-9.26a1,1,0,1,1,1.06-1.7l14.87,9.27a1,1,0,0,1,.32,1.38A1,1,0,0,1,166.89,171.25Z"/><path class="cls-7" d="M176.12,166.57a.91.91,0,0,1-.39-.08l-20-8.28a1,1,0,0,1,.77-1.85l20,8.29a1,1,0,0,1-.38,1.92Z"/><path class="cls-4" d="M106.88,77.92c4.91.29,8.89-6.23,5.73-10.36a2.22,2.22,0,0,1-.07-2.8c1-1.12,2.51-.16,3.7.5,3.77,2.08,8.89.52,11.49-2.92s2.88-8.25,1.48-12.32c-1.88-.6-2.74,2.26-4.17,3.62a4.33,4.33,0,0,1-4.9.4,9.9,9.9,0,0,1-3.59-3.73c-2.06-3.31-3.58-7.17-6.75-9.44S102.53,38.41,98.73,39c-4.07.63-8.14,2.18-11,5.14-3.06,3.16-4.5,8.11-2.54,12.13a4.94,4.94,0,0,1,.57,2c0,2.75-3,3-5.28,3.66a9.61,9.61,0,0,0-6.58,11s1.09,6.65,6,8.93c-1.12-.52-6.22,3.83-9.3,6.61,1.19,8,3.82,15.8,12.56,17.55,4.16.83,0,6.52-5,7.24.14.19.25.39.37.59-3.08,1.64-7,6-8.92,8.27-1,1.16-1.74,2.86-.94,4.16a2.87,2.87,0,0,0,2.77,1.14,7.26,7.26,0,0,0,2.92-1.34c-2,2.51-4.09,5.27-4.55,8.43s1.33,6.9,4.5,7.36c2.6.38,5.08-1.6,6.16-4s1.07-5.12,1-7.75l-.09-9.84c0-.16,0-.33,0-.5A50.18,50.18,0,0,1,83.25,125c.86,3.05,1.43,6.17,2.17,9.24a14.1,14.1,0,0,1,1.8-4.29c2.92-4.61,8-5.94,11.85-9.41a39,39,0,0,0,5.27-5.4.43.43,0,0,1,.77.34c-1.13,6-6.74,9.2-10.19,13.69a19.25,19.25,0,0,0-1,22.2,40.5,40.5,0,0,0,10.77,9A37.11,37.11,0,0,1,99,154.68l-.06-.1c-10.17-19.09,5.71-25.9,5.71-25.9,13.32-6.21,15.76-15,16.2-18.22a.66.66,0,0,1,1.12-.37c3.26,3.31,4.15,8,4.39,10.62a12.75,12.75,0,0,0,1.34-3.53c.78-3.7-.26-7.52-1.43-11.11C122.66,95,117,83.7,106.88,77.92Z"/><path class="cls-8" d="M120.87,110.46c-.44,3.27-2.88,12-16.2,18.22,0,0-15.88,6.81-5.71,25.9l.06.1a37.11,37.11,0,0,0,5.63,5.66,37.69,37.69,0,0,0,6.09,2.8A35.63,35.63,0,0,1,103,152.22c-1.32-2.92-2.24-6.21-1.47-9.32a13.15,13.15,0,0,1,4.26-6.39c3.74-3.32,8.42-5.36,12.64-8a22.91,22.91,0,0,0,7.92-7.76c-.24-2.66-1.13-7.31-4.39-10.62A.66.66,0,0,0,120.87,110.46Z"/><path class="cls-8" d="M94.92,129.14c3.45-4.49,9.06-7.69,10.19-13.69a.43.43,0,0,0-.77-.34,39,39,0,0,1-5.27,5.4c-3.88,3.47-8.93,4.8-11.85,9.41a14.1,14.1,0,0,0-1.8,4.29c.32,1.32.67,2.64,1.08,3.94a39.29,39.29,0,0,0,7.38,13.19A19.25,19.25,0,0,1,94.92,129.14Z"/><ellipse class="cls-9" cx="83.31" cy="93.98" rx="1.85" ry="2.33"/><path class="cls-8" d="M84.07,80.26a17.33,17.33,0,0,1-2.67-2.13c-2.83-3.3-2.58-9.72,1-12.41,2-1.5,7.85-1.71,8.18-5a11.74,11.74,0,0,0-.25-3.64.53.53,0,0,1,.77-.6,4.47,4.47,0,0,1,1.71,1.47c2.23,3.47-.56,7.17-3.56,9.06-4,2.55-6.06,5.1-3.71,10a17,17,0,0,0,2.31,3.3.55.55,0,0,1-.31.93A5.3,5.3,0,0,1,84.07,80.26Z"/><path class="cls-10" d="M83.12,106c-8.74-1.75-11.37-9.6-12.56-17.55-1,.94-1.87,1.71-2.22,2A41.78,41.78,0,0,0,63.46,96a40.64,40.64,0,0,0-6.29,12.61,1.54,1.54,0,0,0,1.34,2l15.08,1.19c.79-.15,3.86-.87,5.32-3.5a1,1,0,0,1,1.75,1,8.48,8.48,0,0,1-3.25,3.22,3,3,0,0,1,.73.74C83.12,112.52,87.28,106.83,83.12,106Z"/><path d="M80.66,109.28a1,1,0,0,0-1.75-1c-1.46,2.63-4.53,3.35-5.32,3.5l1.63.13a4.59,4.59,0,0,1,2.17.54l0,0A8.48,8.48,0,0,0,80.66,109.28Z"/><path d="M109.47,163.38a1,1,0,0,1-.73-.31,44,44,0,0,1-6.41-9.29c-2.36-4.57-2.82-8.85-1.38-12.68,2.43-6.46,9.37-9.26,9.66-9.37,13.5-5.32,15.91-15.3,15.93-15.4a1,1,0,1,1,2,.43c-.09.45-2.6,11.1-17.15,16.83-.06,0-6.41,2.6-8.52,8.23-1.23,3.28-.79,7,1.29,11.06a42.68,42.68,0,0,0,6.09,8.81,1,1,0,0,1,0,1.42A1,1,0,0,1,109.47,163.38Z"/><path d="M166.51,191.71a3.14,3.14,0,0,1-2.18-.88l-20.75-19.48c-11,2.56-22.2-.76-22.68-.91-5.79-1.58-9.46-4.07-13.28-6.94a40.12,40.12,0,0,1-3.71-1.86,41.42,41.42,0,0,1-11.17-9.34,40.23,40.23,0,0,1-7.66-13.69c-.38-1.18-.74-2.46-1.12-4.05-.26-1.12-.51-2.24-.76-3.37-.07-.3-.13-.61-.2-.92,0,2.6,0,5.52-1.18,8.19s-4.31,5.37-7.75,4.87a6.24,6.24,0,0,1-4.16-2.58,8.91,8.91,0,0,1-1.61-6.48,14.06,14.06,0,0,1,2.13-5.38A4.12,4.12,0,0,1,67.37,127c-1-1.64-.61-3.91,1.07-5.91a50.72,50.72,0,0,1,7.69-7.56,6.56,6.56,0,0,0-1-.14l-16.71-1.32a3,3,0,0,1-2.66-3.88,42.42,42.42,0,0,1,6.52-13.08,43.47,43.47,0,0,1,5.06-5.75c.35-.33,1.18-1.11,2.24-2.07a63.51,63.51,0,0,1,7.18-5.82,16.05,16.05,0,0,1-4.32-8.36A11.16,11.16,0,0,1,80.06,60.5l1.08-.28c2.5-.62,3.11-1,3.11-1.93a3.48,3.48,0,0,0-.42-1.36c-2.09-4.29-.93-10,2.81-13.84,2.8-2.88,6.9-4.81,11.87-5.57s9.15,0,12.17,2.13c2.64,1.9,4.19,4.67,5.69,7.35.49.88.95,1.71,1.45,2.51a8.63,8.63,0,0,0,3,3.2,2.93,2.93,0,0,0,3.17-.15,8.92,8.92,0,0,0,1-1.36c.91-1.34,2.28-3.36,4.62-2.61a1.48,1.48,0,0,1,1,.94c1.67,4.86,1,10.11-1.71,13.72-3.15,4.17-9.16,5.66-13.4,3.32l-.24-.13a4.9,4.9,0,0,0-1.63-.69.84.84,0,0,0,.15.9,7.54,7.54,0,0,1,.42,8.23,8.81,8.81,0,0,1-3.61,3.67c7.3,5.36,12.92,14.25,17.1,27.06,1.1,3.34,2.19,7.19,1.62,11.06,1.73,1.61,8.26,6.94,22.81,11.37.17.06,15.57,5.08,11.54,21.22-.27,1.09-.59,2.52-.81,3.52L186.08,163l.2.1a3.34,3.34,0,0,1,1.82,3.09,3.62,3.62,0,0,1-2.2,2.87c-3,1.32-7.12,2.05-10.45,2.64-1.4.25-2.61.47-3.54.69a1.25,1.25,0,0,0-1,1.12l-1.23,15.16a3.13,3.13,0,0,1-2,2.8A3.26,3.26,0,0,1,166.51,191.71ZM144,168.2a1.5,1.5,0,0,1,1,.39l0,0,21.31,20a.19.19,0,0,0,.22,0,.17.17,0,0,0,.12-.18L168,173.24a4.25,4.25,0,0,1,3.26-3.79c1-.24,2.26-.46,3.71-.72,3.16-.56,7.1-1.26,9.75-2.43a.92.92,0,0,0,.43-.38s-.11-.07-.36-.25L160.55,155a1.51,1.51,0,0,1-.87-1.69c0-.11.61-2.91,1.09-4.81,3.34-13.38-9-17.46-9.52-17.63-18.19-5.55-24.4-12.45-24.66-12.74a1.5,1.5,0,0,1-.34-1.3c.72-3.42-.34-7.12-1.39-10.33-4.5-13.76-10.62-22.69-18.72-27.32a1.5,1.5,0,0,1-.69-1.73A1.49,1.49,0,0,1,107,76.42a5.07,5.07,0,0,0,4.6-3,4.55,4.55,0,0,0-.15-5,3.68,3.68,0,0,1,0-4.69c1.72-2,4.07-.66,5.33,0L117,64c2.94,1.61,7.32.46,9.57-2.51A11.59,11.59,0,0,0,128.21,52a10.52,10.52,0,0,0-.67.93,11.76,11.76,0,0,1-1.46,1.85,5.84,5.84,0,0,1-6.63.64,11.31,11.31,0,0,1-4.17-4.27c-.54-.86-1-1.77-1.53-2.64-1.4-2.5-2.72-4.87-4.82-6.37-3-2.14-7.07-2.05-10-1.61s-7.21,1.66-10.16,4.7S85,52.44,86.52,55.61a6.18,6.18,0,0,1,.73,2.66c0,3.53-3.24,4.33-5.39,4.86l-1,.26a8.11,8.11,0,0,0-5.52,9.24c0,.1,1,5.93,5.12,7.85h0a1.5,1.5,0,0,1-.87,2.84c-.73.24-3.11,1.78-8.06,6.24-1,.94-1.85,1.69-2.19,2a40.81,40.81,0,0,0-4.7,5.35,39.49,39.49,0,0,0-6.06,12.14l16.73,1.37a5.81,5.81,0,0,1,2.87.79l.11.08a4.71,4.71,0,0,1,1,1c.15.21.29.44.42.66a1.56,1.56,0,0,1,.17,1.19,1.54,1.54,0,0,1-.73.94c-3.07,1.63-7.27,6.47-8.48,7.91-.66.79-1.15,1.86-.82,2.41a1.44,1.44,0,0,0,1.32.44,6.31,6.31,0,0,0,2.28-1.1,1.49,1.49,0,0,1,2,2.18c-2.08,2.63-3.84,5-4.24,7.72a6,6,0,0,0,1,4.25,3.39,3.39,0,0,0,2.18,1.41c1.94.28,3.8-1.41,4.58-3.14,1-2.14.94-4.78.92-7.12l-.09-9.83c0-.2,0-.41,0-.62a1.49,1.49,0,0,1,1.25-1.38,1.51,1.51,0,0,1,1.64.91,52.11,52.11,0,0,1,1.87,5.37c.56,2,1,4,1.44,6,.24,1.1.49,2.21.75,3.31.36,1.51.7,2.73,1.05,3.83A37.36,37.36,0,0,0,95,150.37,38.72,38.72,0,0,0,105.4,159a35.1,35.1,0,0,0,3.58,1.78,1.49,1.49,0,0,1,.3.18c3.62,2.72,7.06,5.09,12.45,6.56.16,0,11.44,3.39,21.9.68A1.64,1.64,0,0,1,144,168.2Z"/><path class="cls-11" d="M133.87,152.91c2,2.32,6.6,5.53,9.46,4.73,6.25-1.76-.11-10.33-1.52-12.33-3.12-4.46-6-8.66-7.63-13.89-.28-.88-2.41-.79-2.88-1.59-1.15-2-3.72-2.15-4.61-.15s-.26,5.42,0,7.48A30.42,30.42,0,0,0,133.87,152.91Z"/><path class="cls-12" d="M135.15,151.07c1.49,1.68,4.71,3.85,6.63,3.25,3.36-1-1.87-6.21-2.92-7.66a43.21,43.21,0,0,1-5.79-10.78,9.91,9.91,0,0,0-.77-1.91c-.88-1.42-2.62-1.48-3.13,0s.09,4,.38,5.57A24.43,24.43,0,0,0,135.15,151.07Z"/><path class="cls-11" d="M149.92,153.45c5,3.19,14.33,6,14.24,0,0-3.58-3.93-5.46-6.77-6.76a36,36,0,0,1-10.51-6.91c-2.42-2.34-3.56-3.95-6.33-1.32C136.48,142.28,145.58,150.69,149.92,153.45Z"/><path class="cls-12" d="M151,151.32c3.33,2.12,8.9,4.43,9.38.5.2-1.62-2.58-2.91-4.47-3.77-2.6-1.19-5.85-2.81-7.94-4.83-1.6-1.55-2.67-4.18-4.51-2.45C140.71,143.33,148.07,149.5,151,151.32Z"/><path class="cls-11" d="M158.08,145.23a23.53,23.53,0,0,0,13.28-.44c3.93-1.2,7.86-3.41,9.34-7.22a3.82,3.82,0,0,0-.11-3.57,3.43,3.43,0,0,0-2.16-1.31c-2.5-.54-4.82.91-7.14,1.8-4.39,1.69-9.46.45-14.27,0-2.34-.2-9.7.09-7.86,4.36C150.51,142,155.05,144.36,158.08,145.23Z"/><path class="cls-12" d="M159.93,142.42c4.93,1.09,10,1,14.44-1.11,1.37-.65,3.92-2.12,2.82-3.92-1.46-2.39-5.14-.28-7,0A34.43,34.43,0,0,1,160,137c-1.63-.25-8.16-.9-7.13,2C153.63,141.08,157.8,142,159.93,142.42Z"/><path class="cls-11" d="M172.05,131.67a16.48,16.48,0,0,0,7.8-12.43c.19-2.21-.57-5.07-2.79-5.56-.83-.19-1.58.52-2.4.37-2.64-.47-3.54,3-5.09,4.83a26.54,26.54,0,0,1-7.33,5.85c-2.65,1.45-7,1.72-9.16,3.66-5,4.37,5.15,5.94,7.72,6A20.42,20.42,0,0,0,172.05,131.67Z"/><path class="cls-12" d="M170.78,129c3.41-2.57,5.26-5,5.48-8.27.11-1.44-1-3.17-2.59-2.81-2.07.45-3.13,3.22-4.4,4.61a20,20,0,0,1-5.21,4c-1.92,1-5.5.45-7.07,1.78-3.56,3,3.89,3.53,5.76,3.44A14.49,14.49,0,0,0,170.78,129Z"/><path class="cls-13" d="M166.07,125.44c-.07-.12-.15-.22-.22-.33.19,1.89.47,5.47-3.59,5.54,0,0,.92,6.28-4.64,8,0,0-6.63,1.86-10.46-2.56,0,0-.45,5-7.07,5.75,0,0-9.69,1.14-13.82-8,3.29,12,14.79,10.64,14.79,10.64,6.61-.77,7.06-5.75,7.06-5.75,3.83,4.42,10.47,2.56,10.47,2.56,5.55-1.77,5.2-8.6,5.2-8.6C168.4,130.73,167.11,127.2,166.07,125.44Z"/><path class="cls-14" d="M161.81,123.18c.57,1.4.47,2.81-2.45,3.31,0,0,1.55,6.93-4.05,8.91,0,0-6.14,2.07-9.95-2.23,0,0-.19,5-6.36,6a13,13,0,0,1-13.14-7c.12.64.25,1.24.41,1.82,4.13,9.1,13.82,8,13.82,8,6.62-.77,7.07-5.75,7.07-5.75,3.83,4.42,10.46,2.56,10.46,2.56,5.56-1.77,4.64-8,4.64-8,4.7-.13,3.78-3.65,3.59-5.54A4.47,4.47,0,0,0,161.81,123.18Z"/><path class="cls-14" d="M138,136.5a7.37,7.37,0,0,0,5.38-3.16,2.8,2.8,0,0,1,3.59-.88,11.15,11.15,0,0,0,7.35.29,4.91,4.91,0,0,0,3.53-5,2.62,2.62,0,0,1,1.4-2.45,2.4,2.4,0,0,0,1.33-1.93h0c-14.41,1.92-20.2-4.2-26.84-4.7-2.08-.15-3.57-.8-4.7.81a16.38,16.38,0,0,0-3.25,10.06,3.4,3.4,0,0,0,.68,2.3A13.09,13.09,0,0,0,138,136.5Z"/><path class="cls-15" d="M139,139.15c6.17-1,6.36-6,6.36-6,3.81,4.3,9.95,2.23,9.95,2.23,5.6-2,4.05-8.91,4.05-8.91,2.92-.5,3-1.91,2.45-3.31a5.81,5.81,0,0,0-1.27.2c-.18,1.2-.91,2.21-3.1,2.33,0,0,2,5.09-3.16,7,0,0-6.15,2.07-10-2.22,0,0-.18,5-6.36,6a13,13,0,0,1-12.28-5.61c.06.41.11.83.18,1.22A13,13,0,0,0,139,139.15Z"/><path d="M142.21,159.26a13.86,13.86,0,0,1-9.31-4.3c-.86-.79-7.51-7.2-8.48-19.06-.4-1.5-3.07-12.58,4-17.31,4.22-2.82,9.94-.62,14.12,1,.47.19.93.36,1.35.51A32.13,32.13,0,0,0,155.83,122c1.2-.27,5.75-1.2,8.6-.56a45.22,45.22,0,0,0,5.53-6.54c1-1.51,3.7-3.83,7-2.73h0c2.22.75,4.78,2.6,4.38,7.23a17.78,17.78,0,0,1-6.68,12.3,7.24,7.24,0,0,1,4.09-.45,5,5,0,0,1,3.08,1.93,6.49,6.49,0,0,1,.39,5.48c-1.47,3.78-4.78,6.48-9.82,8a26.33,26.33,0,0,1-9.59,1c2.34,1.91,3.32,4,2.81,6.12a5.74,5.74,0,0,1-3.49,4.18c-3.88,1.54-9.58-.72-13.62-3.35-.33-.21-.68-.47-1-.76a5.38,5.38,0,0,1-.28,2.36,4.43,4.43,0,0,1-3,2.76A6.58,6.58,0,0,1,142.21,159.26Zm-8.92-39a5.61,5.61,0,0,0-3.19.85c-5.62,3.75-2.79,14-2.76,14.14a1.36,1.36,0,0,1,.06.29c.88,11.24,7.49,17.19,7.56,17.25l.14.15c1.94,2.24,6.17,3.87,8.23,3.19l.14,0a1.49,1.49,0,0,0,.91-.92c.23-.69.38-2.79-3.18-7.5a1.5,1.5,0,0,1,2.33-1.89c0,.05,4.13,4.72,6.62,6.34,4.15,2.7,8.63,4,10.87,3.07a2.72,2.72,0,0,0,1.68-2.1c.46-1.86-2.66-4-5.72-5.42l-.15-.08c-.74-.45-7.24-4.39-9-6.54a1.51,1.51,0,0,1,.1-2,1.49,1.49,0,0,1,2-.14c.05,0,4.73,3.65,8.6,4.9a22.88,22.88,0,0,0,13,0c4.17-1.28,6.76-3.32,7.9-6.24a3.59,3.59,0,0,0-.07-2.68,2,2,0,0,0-1.24-.71,6.28,6.28,0,0,0-3.6.81,15,15,0,0,1-2.94,1c-5.6,1.1-7.61.15-8.09-.16a1.5,1.5,0,0,1,.69-2.75,15.47,15.47,0,0,0,7.08-2.66,14.81,14.81,0,0,0,7.09-11.28c.2-2.27-.5-3.51-2.34-4.12h0c-2-.67-3.54,1.53-3.61,1.62-4.29,5.89-6.65,7.62-6.75,7.7a1.53,1.53,0,0,1-1.49.15c-1.42-.63-5.52,0-7.77.46l-.22,0h0a34.76,34.76,0,0,1-13.29-2.06l-1.39-.53C139,121.43,135.93,120.24,133.29,120.24Zm31.75,13Z"/></svg>