<?xml version="1.0" encoding="utf-8"?>
<!-- Generator: Adobe Illustrator 24.3.0, SVG Export Plug-In . SVG Version: 6.00 Build 0)  -->
<!DOCTYPE svg PUBLIC "-//W3C//DTD SVG 1.1//EN" "http://www.w3.org/Graphics/SVG/1.1/DTD/svg11.dtd" [
	<!ENTITY ns_extend "http://ns.adobe.com/Extensibility/1.0/">
	<!ENTITY ns_ai "http://ns.adobe.com/AdobeIllustrator/10.0/">
	<!ENTITY ns_graphs "http://ns.adobe.com/Graphs/1.0/">
	<!ENTITY ns_vars "http://ns.adobe.com/Variables/1.0/">
	<!ENTITY ns_imrep "http://ns.adobe.com/ImageReplacement/1.0/">
	<!ENTITY ns_sfw "http://ns.adobe.com/SaveForWeb/1.0/">
	<!ENTITY ns_custom "http://ns.adobe.com/GenericCustomNamespace/1.0/">
	<!ENTITY ns_adobe_xpath "http://ns.adobe.com/XPath/1.0/">
]>
<svg version="1.1" id="레이어_1" xmlns:x="&ns_extend;" xmlns:i="&ns_ai;" xmlns:graph="&ns_graphs;"
	 xmlns="http://www.w3.org/2000/svg" xmlns:xlink="http://www.w3.org/1999/xlink" x="0px" y="0px" viewBox="0 0 220 280"
	 style="enable-background:new 0 0 220 280;" xml:space="preserve">
<style type="text/css">
	.st0{display:none;}
	.st1{display:inline;fill:#FFFFFF;}
	.st2{fill-rule:evenodd;clip-rule:evenodd;fill:#C99063;}
	.st3{fill-rule:evenodd;clip-rule:evenodd;fill:#C78E63;}
	.st4{fill-rule:evenodd;clip-rule:evenodd;fill:#91A84D;}
	.st5{fill:#9B5C3D;}
	.st6{fill-rule:evenodd;clip-rule:evenodd;fill:#5D4739;}
	.st7{fill-rule:evenodd;clip-rule:evenodd;fill:#5C493A;}
	.st8{fill-rule:evenodd;clip-rule:evenodd;fill:#D24848;}
	.st9{fill:#221E1F;}
	.st10{fill-rule:evenodd;clip-rule:evenodd;fill:#5E483A;}
	.st11{fill-rule:evenodd;clip-rule:evenodd;}
	.st12{fill:#A0643C;}
	.st13{fill:#C99063;}
</style>
<metadata>
	<sfw  xmlns="&ns_sfw;">
		<slices></slices>
		<sliceSourceBounds  bottomLeftOrigin="true" height="303.6" width="764.1" x="-509.5" y="-13.9"></sliceSourceBounds>
	</sfw>
</metadata>
<g id="레이어_5" class="st0">
	<rect x="-509.5" y="-9.7" class="st1" width="764.1" height="303.6"/>
</g>
<g id="레이어_2_1_">
</g>
<g id="레이어_3">
</g>
<g>
	<path class="st2" d="M144.7,166.5c1.7,3.8,4,7.2,7,10.1c1.2,1.1,2.3,2.4,3.2,3.8c2.9,4.1,3.4,9.5,0.5,13.5
		c-1.3,1.8-5.2,4.3-7.1,3.1c-3-0.3-0.9-8.4-2.1-12c0.3,2.3-1,3.8-3.3,3c-2.1-1.6-0.1-8-1.7-11.6c-5.7-12.8-11.4-26.9-17.5-40.2
		c-1.7-3.6-3.6-5.2-0.2-7.6c4.2-1,5.9,3,8.8,9.7C135.9,147.2,141.1,157.8,144.7,166.5z"/>
	<path d="M149.4,199c-0.6,0-1.1-0.1-1.6-0.4c-2.8-0.5-2.8-4.3-2.7-7.7c0-0.4,0-0.8,0-1.2c-0.9,0.2-1.8,0.2-2.7-0.1
		c-0.2-0.1-0.3-0.1-0.5-0.3c-1.7-1.3-1.6-3.9-1.6-6.7c0-1.9,0.1-4.1-0.5-5.5c-2.5-5.5-4.9-11.1-7.4-17.1
		c-3.3-7.6-6.6-15.5-10.1-23.1c-0.3-0.7-0.6-1.3-0.9-1.8c-1.2-2.3-2.7-4.9,1.2-7.7c0.2-0.1,0.3-0.2,0.5-0.2
		c5.4-1.2,7.5,3.7,10.4,10.5c1.6,3.8,3.5,7.9,5.4,12.1c2.5,5.4,5.1,11,7.1,16c1.6,3.6,3.8,6.9,6.6,9.6c1.1,1,2.1,2.2,3,3.5l0.4,0.6
		c3.4,4.8,3.6,10.9,0.5,15.3C155.5,196.4,152.2,199,149.4,199z M148.4,195.7c0.2,0,0.4,0.1,0.6,0.2c0.8,0.5,4-1.2,5.1-2.7
		c2.4-3.4,2.2-8-0.5-11.8l-0.4-0.6c-0.7-1.1-1.6-2.1-2.5-3c-3.1-3-5.6-6.7-7.4-10.6l0,0c-2-4.9-4.6-10.5-7-15.9
		c-1.9-4.1-3.8-8.3-5.4-12.1c-3-7-4.2-9.3-6.7-8.9c-1.4,1.1-1.3,1.4,0,3.6c0.3,0.6,0.7,1.2,1,2c3.5,7.6,6.9,15.5,10.1,23.2
		c2.5,5.9,4.9,11.6,7.4,17.1c0.9,2,0.8,4.5,0.8,6.7c0,1.4-0.1,3.4,0.3,4.1c0.2,0.1,0.5,0,0.7-0.1c0.3-0.4,0.4-0.9,0.2-1.4
		c-0.1-0.8,0.5-1.6,1.3-1.7c0.7-0.1,1.4,0.3,1.6,1c0.5,2,0.7,4.2,0.6,6.3C148.1,192.5,148,195.1,148.4,195.7L148.4,195.7z"/>
</g>
<g>
	<path class="st3" d="M96.5,242.4c0,0.6-0.6,0.9-1.2,0.9c-6.7-0.2-20.1,5.8-14.9,12.6c2.5,3.3,7.1,2.1,10.8,2.2s7.2-0.4,10.8-0.3
		c2.2,0,5.6-1.6,5.7-3.7l0.3-26.5l0.1-3.3l0.3-27.7c0.1-2-3.3-3.9-5.3-3.9s-5.3,1.6-5.4,3.6L97.4,224L96.5,242.4z"/>
	<path d="M86.6,259.7c-2.7,0-5.5-0.4-7.5-3c-1.7-1.9-2-4.7-0.8-6.9c2.6-5,11.6-8.1,16.6-8.1l0.8-17.9l0.3-27.6
		c0.1-3.1,4.2-5.1,6.9-5.1c1.5,0.1,3,0.6,4.3,1.5c1.7,1.1,2.6,2.6,2.6,4l-0.3,27.6l-0.1,3.4l-0.3,26.5c-0.1,3.2-4.4,5.3-7.2,5.2
		c-1.7,0-3.5,0.1-5.2,0.2s-3.7,0.2-5.6,0.2c-0.7,0-1.5,0-2.4,0C88.1,259.7,87.4,259.7,86.6,259.7z M94.9,244.7c-4.7,0-12,3-13.8,6.5
		c-0.6,1.2-0.5,2.7,0.5,3.7c1.5,2,4.2,1.8,7,1.7c0.9,0,1.8-0.1,2.6,0c1.8,0,3.5,0,5.3-0.2s3.6-0.2,5.5-0.2c1.6,0.1,4.1-1.3,4.2-2.3
		l0.3-26.5l0.1-3.4l0.3-27.6c0-0.3-0.4-0.9-1.2-1.4c-0.8-0.5-1.7-0.9-2.7-1c-1.6-0.1-3.8,1.3-3.8,2.2l-0.3,27.6L98,242.4
		c0,0.6-0.2,1.2-0.7,1.6c-0.6,0.5-1.3,0.8-2.1,0.7H94.9z"/>
</g>
<g>
	<path class="st3" d="M125.9,242.4c0,0.6,0.6,0.9,1.2,0.9c6.7-0.2,20.1,5.8,14.9,12.6c-2.5,3.3-7.1,2.1-10.8,2.2s-7.2-0.4-10.8-0.3
		c-2.2,0-5.6-1.6-5.7-3.7l-0.3-26.5l-0.1-3.3l-0.3-27.7c-0.1-2,3.3-3.9,5.3-3.9s5.3,1.6,5.4,3.6L125,224L125.9,242.4z"/>
	<path d="M135.8,259.7c-0.7,0-1.4,0-2.1-0.1c-0.9,0-1.6-0.1-2.4,0c-1.9,0-3.8-0.1-5.6-0.2s-3.5-0.2-5.2-0.2c-2.8,0.1-7.1-2-7.2-5.2
		l-0.3-26.6l-0.1-3.3l-0.3-27.7c-0.1-1.4,0.8-2.9,2.6-4c1.3-0.8,2.7-1.3,4.3-1.5c2.7-0.1,6.8,2,6.9,5l0.3,27.7l0.8,17.9h0.1
		c5.1,0,14,3.1,16.6,8.1c1.2,2.2,0.9,5-0.8,6.9C141.3,259.3,138.4,259.7,135.8,259.7z M131.8,256.6c0.7,0,1.4,0,2.1,0.1
		c2.9,0.1,5.5,0.2,7-1.7c0.9-1,1.1-2.5,0.5-3.7c-1.9-3.6-9.5-6.6-14.1-6.5c-0.8,0.1-1.6-0.2-2.1-0.7c-0.4-0.4-0.7-1-0.7-1.6
		l-0.8-18.5l-0.3-27.7c0-0.8-2.2-2.1-3.8-2.1h-0.1c-1,0.1-1.9,0.5-2.7,1c-0.8,0.6-1.2,1.1-1.2,1.4l0.3,27.7l0.1,3.3l0.3,26.6
		c0,0.9,2.5,2.3,4.1,2.2c1.8,0,3.7,0.1,5.5,0.2s3.6,0.2,5.3,0.2L131.8,256.6z"/>
</g>
<g>
	<path class="st2" d="M93.5,174.8c-0.1,0.5,0,1.1,0.3,1.6c0.3,0.2,0.7,0.4,1.1,0.4c10.8,1.5,21.8,1.8,32.6,0.8
		c0.8,0,1.6-0.3,2.2-0.9c0.3-0.6,0.5-1.2,0.4-1.9c0-9.6-0.7-19.2-2-28.6c-1.1-7.8-1.7-18.6-7.9-24.1c-4.1-3.6-10.1-3.8-14.4-0.4
		c-6,4.5-6.6,13.5-8,20.4C95.7,152.9,94.3,163.8,93.5,174.8z"/>
	<path d="M115.2,182.1c-6.7,0-13.9-0.5-20.5-1.5c-0.7-0.1-1.4-0.3-1.9-0.8c-0.6-0.8-0.9-1.8-0.8-2.7l0,0c0.8-11,1.5-21.9,3.6-32.8
		c0.2-1,0.4-2.1,0.6-3.1c1.1-6.6,2.4-14,8-18.2c4.8-3.8,12.9-3.6,17.5,0.5c5.9,5.2,7,14.6,8,22.2c0.1,1,0.2,1.9,0.4,2.8
		c1.3,9.6,2,19.2,2,28.9c0.1,1-0.2,1.9-0.7,2.7c-0.8,1-2,1.5-3.3,1.5C123.8,181.9,119.5,182.1,115.2,182.1z M95,177.7L95,177.7
		c10.8,1.5,22,1.8,32.8,0.9c0.9-0.1,1.1-0.2,1.1-0.3c0.1-0.3,0.1-0.7,0.1-1c0-9.5-0.7-19-2-28.4c-0.1-0.9-0.2-1.9-0.4-2.8
		c-0.9-7.1-2-15.8-7-20.3c-3.5-3.2-10-3.3-13.7-0.3c-4.6,3.5-5.8,10.3-6.8,16.3c-0.2,1.1-0.4,2.2-0.6,3.2
		c-2.1,10.7-2.8,21.5-3.6,32.4l0,0C95,177.5,95,177.6,95,177.7z"/>
	<path class="st4" d="M91.2,202.1c1.8,0,3.7-3,3.8-4.8c-0.1,2.1,2.7,6.7,5.9,5.7c2-0.6,4.4-5.2,4.6-6.6c0.6,2.2,0.7,4.1,2.3,5.3
		s2.9,1.7,4.8,0.7c2.5-1.4,2.1-4.5,3.2-6.8c1.9,2.2,1.2,5.8,4,7.1c2,0.8,4.3,0.4,5.8-1.1c1.3-1.4,2.2-3,2.6-4.9
		c1.3,0.4,1.5,1.8,1.7,2.9s0.9,2.5,2.3,2.4c1-0.1,1.8-0.7,2.1-1.6c2.8-8.3,0.8-15.1-2.3-22.3c-0.2-0.5-0.5-1-1-1.3
		c-0.7-0.3-1.5-0.3-2.3-0.1c-5.3,1-10.6,1.6-16,1.9c-5.3,0.2-10.6-0.8-15.8-1.4c-5-0.5-3.8-2.2-6,1.8
		C87.5,185.4,86.7,196,91.2,202.1z"/>
	<path d="M121.7,204.7c-0.9,0-1.8-0.2-2.6-0.6c-1.5-0.8-2.6-2.3-3-4c-0.4,1.5-1.4,2.8-2.8,3.6c-2.8,1.5-4.8,0.4-6.4-0.9
		c-0.7-0.6-1.3-1.3-1.7-2.1c-1,1.7-2.4,3.2-3.8,3.7c-1.6,0.5-3.3,0.1-4.6-1c-0.7-0.6-1.4-1.3-1.9-2.1c-0.8,1.3-2.2,2.1-3.7,2.3l0,0
		c-0.5,0-0.9-0.2-1.2-0.6c-4.9-6.7-4-18-0.4-24.6l0.3-0.5c1.2-2.3,1.8-3.3,4.3-2.6c0.9,0.3,1.9,0.5,2.9,0.6c1.5,0.1,3,0.3,4.4,0.5
		c3.7,0.6,7.4,0.8,11.2,0.8c4.8-0.2,9.7-0.8,14.4-1.6l1.4-0.2c1.1-0.3,2.2-0.2,3.2,0.3c0.8,0.4,1.4,1.2,1.7,2
		c2.8,6.5,5.5,14.1,2.3,23.4c-0.5,1.5-1.9,2.5-3.5,2.6c-2.1,0.1-3.4-1.6-3.8-3.4c-0.5,0.9-1.1,1.8-1.8,2.5
		C125.3,204,123.5,204.7,121.7,204.7z M115.8,194.1c0.4,0,0.9,0.2,1.1,0.5c0.9,1.1,1.5,2.4,1.8,3.8c0.4,1.6,0.8,2.5,1.7,3
		c1.4,0.5,3,0.2,4.2-0.9c1.1-1.2,1.8-2.7,2.2-4.2c0.1-0.4,0.4-0.7,0.8-0.9s0.8-0.2,1.2-0.1c2.1,0.7,2.4,2.8,2.6,4.1
		c0.1,0.5,0.4,1.2,0.8,1.2c0.3,0,0.6-0.3,0.8-0.6c2.6-7.4,1-13.6-2.2-21.2c-0.1-0.1-0.2-0.5-0.3-0.6c-0.4-0.1-0.9-0.1-1.3,0
		l-1.4,0.2c-4.9,0.9-9.8,1.4-14.8,1.7c-3.9,0-7.8-0.2-11.7-0.8c-1.5-0.2-2.9-0.4-4.4-0.5c-1.2-0.1-2.3-0.3-3.4-0.7l-0.2-0.1
		c-0.2,0.3-0.4,0.7-0.7,1.2l-0.3,0.5c-3,5.5-3.8,14.8-0.4,20.5c0.9-0.8,1.5-1.9,1.7-3.1c0-0.8,0.7-1.5,1.6-1.4s1.5,0.7,1.4,1.6l0,0
		c0.2,1.4,1,2.8,2.1,3.7c0.5,0.5,1.2,0.7,1.9,0.5c1.2-0.4,3.4-4.3,3.5-5.3c-0.1-0.8,0.6-1.6,1.4-1.6c0.8-0.1,1.6,0.6,1.6,1.4
		c0.1,0.4,0.2,0.8,0.3,1.3c0.4,1.6,0.6,2.6,1.5,3.3c1.5,1.2,2.1,1.1,3.1,0.6s1.3-1.6,1.7-3.3c0.2-1,0.5-1.9,0.9-2.8
		c0.2-0.5,0.6-0.8,1.2-0.8V194.1z"/>
	<path class="st5" d="M115.3,173.2c-0.3,0-0.6-0.2-0.8-0.4c-1.2-1.8-2.8-3.4-4.5-4.7c-0.4-0.3-0.5-1-0.2-1.4s1-0.5,1.4-0.2l0,0
		c1.9,1.4,3.6,3.2,4.9,5.1c0.3,0.5,0.2,1.1-0.3,1.4C115.7,173.2,115.6,173.2,115.3,173.2L115.3,173.2z"/>
	<path class="st5" d="M110.6,173.2c-0.2,0-0.4-0.1-0.6-0.2c-0.5-0.3-0.6-0.9-0.3-1.4l0,0c1.4-2,3.1-3.7,5-5.1
		c0.4-0.3,1.1-0.2,1.4,0.2s0.2,1.1-0.2,1.4c-1.8,1.3-3.3,2.9-4.5,4.7C111.3,173.1,111,173.2,110.6,173.2z"/>
</g>
<g>
	<path class="st6" d="M55.9,103.1c2.5,3.2,6-0.4,9.9-0.4c-0.7,8.5,6,14.7,13.5,18.2c3.8,1.8,9.3-0.9,11.1-4.6c2,2.3,4.2,4.4,6.7,6.2
		c5.8,3.7,13.3,3.6,19.8,1.4s12.1-6.4,17.6-10.4c-1.7,6.2,2.5,11.7,10.5,8.5c4.4-1.7,10.6-4.4,12.9-8.5c3.6-6.6,5.9-12.7,5.6-20.1
		c0.6,3,5.7,2.2,6.7-0.7s-1.6-6.9-3.1-9.5c-2.1-3.7-3.3-7.6-5.5-11.3c-0.3-0.5-0.1-1.1,0.3-1.4c0.2-0.1,0.4-0.1,0.6-0.1
		c1.9,0.1,3.8-0.5,5.3-1.8c1-0.7,1.4-2.1,0.9-3.2c-8.8-24.9-32.1-39.3-58.7-35.7c-0.1-4.3-3.5-8.1-7.6-9.4s-8.7-0.4-12.4,1.6
		c-1.2,0.6,6.4,6.2,6.5,6.7c0.8,3.8-6.6,5-9,5.7c-5.7,1.5-10.5,3.6-15,7.6c-7.6,6.8-11,17.7-19.2,23.7c-0.7,0.5-1.2,1.1-1.4,1.9
		c-0.5,2,0.9,2.6,2.2,3c3.7,1.2,4.4,1.9,8.3,1.7c0,0,0.7,8-4.5,19.1C58,91.1,53.4,100.1,55.9,103.1z"/>
	<path d="M107.9,126.9c-4.1,0.1-8.1-1-11.6-3.2c-2.1-1.4-4-3.1-5.7-5c-2.7,3.3-7.9,5.4-11.9,3.6c-9.1-4.2-14.2-10.6-14.4-17.8
		c-0.7,0.2-1.4,0.4-2,0.7c-2.3,0.8-5.2,1.8-7.5-1c-2.9-3.7,1.1-12,2-13.7c2.6-5.3,4.1-11,4.3-16.9c-1.8,0-3.5-0.4-5.2-1.1
		c-0.6-0.2-1.3-0.4-2.1-0.7c-3.4-1.1-3.6-3.2-3.2-4.8c0.3-1.1,1-2.1,2-2.8c4.2-3.1,7.1-7.5,10.1-12.2c2.6-4,5.3-8.2,9-11.5
		c4.1-3.7,8.9-6.1,15.6-7.9l1.1-0.3c1.9-0.4,6.7-1.6,6.9-3.3l-1.5-1.3c-4.2-3.5-5.4-4.8-5.2-6.1c0.1-0.6,0.4-1.1,0.9-1.3
		c4.1-2.3,9-2.9,13.6-1.7c4.2,1.3,7.5,4.8,8.4,9.1c26.4-2.9,49.9,11.8,58.8,36.9c0.7,1.8,0,3.8-1.5,4.9c-1.5,1.2-3.4,1.9-5.4,2
		c0.9,1.7,1.7,3.4,2.4,5c0.8,1.9,1.7,3.7,2.7,5.5l0.3,0.5c1.7,2.9,4.1,6.9,2.9,10.3c-1.1,2.6-3.9,4-6.6,3.4
		c-0.4,6.8-3,12.5-5.8,17.6c-2.6,4.8-9.8,7.7-13.7,9.2c-5.6,2.2-8.9,0.4-10.3-0.9c-1.6-1.5-2.6-3.6-2.6-5.8
		c-4.7,3.4-9.6,6.7-15.3,8.6C114.4,126.3,111.1,126.9,107.9,126.9z M90.4,114.8c0.4,0,0.8,0.2,1.1,0.5l0.4,0.4
		c1.8,2.1,3.8,3.9,6,5.5c4.8,3.1,11.7,3.6,18.5,1.2c6.3-2.2,11.9-6.3,17.2-10.3c0.5-0.4,1.2-0.4,1.7,0s0.8,1,0.6,1.6
		c-0.7,2.6-0.2,5,1.3,6.4s4.1,1.5,7.2,0.3c3.5-1.4,10-4,12.1-7.9c3.5-6.4,5.8-12.2,5.5-19.3c-0.1-0.8,0.5-1.6,1.3-1.7
		s1.6,0.5,1.7,1.3l0,0c0,0.2,0.1,0.6,1,0.7c1.1,0.1,2.2-0.5,2.8-1.5c0.7-2-1.3-5.5-2.7-7.8l-0.3-0.5c-1.1-1.9-2-3.8-2.8-5.8
		c-0.8-1.9-1.7-3.7-2.7-5.5c-0.7-1.2-0.3-2.7,0.9-3.4c0.4-0.2,0.8-0.3,1.3-0.3c1.6,0.1,3.2-0.4,4.4-1.5c0.5-0.4,0.6-1,0.4-1.5
		c-8.6-24.3-31.5-38.2-57.1-34.7c-0.4,0.1-0.9-0.1-1.2-0.3c-0.3-0.3-0.5-0.7-0.5-1.1c-0.1-3.5-2.8-6.8-6.5-8
		c-3.3-0.9-6.8-0.6-9.9,0.8c1,1,2.6,2.3,3.5,3.1c2,1.7,2.3,2,2.4,2.6c1,4.8-5.8,6.4-9.1,7.2c-0.4,0.1-0.7,0.2-1,0.3
		c-6.1,1.6-10.6,3.8-14.3,7.2c-3.4,3-6,7-8.5,10.9c-3,4.7-6.2,9.5-10.8,12.9c-0.4,0.3-0.7,0.7-0.8,1.1c-0.1,0.5-0.2,0.8,1.2,1.2
		c0.9,0.3,1.6,0.5,2.2,0.8c1.8,0.8,3.7,1.1,5.6,0.9c0.8,0,1.5,0.6,1.6,1.4c0,0.3,0.7,8.5-4.7,19.9c-1.7,3.3-3.6,8.8-2.3,10.4l0,0
		c0.8,1,1.6,1,4.1,0.1c1.5-0.6,3-0.9,4.6-1c0.4,0,0.8,0.2,1.1,0.5c0.3,0.3,0.4,0.7,0.4,1.1c-0.8,9.4,8.5,14.8,12.6,16.7
		c3.1,1.4,7.7-1,9.2-3.9c0.2-0.4,0.6-0.7,1.1-0.8L90.4,114.8z"/>
	<path class="st2" d="M118.5,44.3c3.9,0.6,7.7,1.8,11.5,2.7c4.3,1,9,1.7,11.9,5c1.5,1.9,2.6,4.1,3.2,6.5
		c5.4,17.1,12.9,43.3-8.5,52.9c-6.1,2.8-13,2.9-19.7,3.1c-7.1,0.2-14.2,0.4-21.1-1.2c-6.7-1.5-12.5-5.7-16-11.6
		c-2.8-4.5-3.7-9.9-3.6-15.2s0-10.1,1.2-15.2c0.9-3.9,0.4-9.4,3.6-12.3c1.8-1.6,4.1-1.6,6.3-2.5c5-2,8-6.7,12.7-9.2
		c4.9-2.7,10.5-3.8,16.1-3.4C116.8,44,117.6,44.1,118.5,44.3z"/>
	<path class="st7" d="M140.3,105.3c3.3-2.9,9.2-11.9,15.1-7.2c5.5,4.4,1.9,15-0.9,19.2c-3.9,5.9-12.7,10.7-19.8,10.7
		c-1.2-0.1-2.3,0-3.5,0.3c-0.9,0.3-1.7,0.8-2.4,1.4c-8.4,5.7-23.6,5.8-32,0.1c-0.7-0.6-1.5-1-2.4-1.4c-1.1-0.3-2.3-0.4-3.5-0.3
		c-7.1,0-13.9-4.2-17.8-10.1c-2.8-4.2-8.4-15.4-2.9-19.8c6-4.7,11.1,4.3,15.1,7.2c7.9-7.1,13-11.8,28-11.7
		C113.4,93.7,130.1,93.1,140.3,105.3z"/>
	<path d="M112.7,135.4c-6.1,0-12.3-1.5-16.7-4.5l-0.4-0.3c-0.5-0.4-1.1-0.7-1.7-1c-0.8-0.2-1.6-0.3-2.3-0.2H91
		c-8.1,0-20.6-11.1-24.5-17c-0.4-0.7-0.2-1.6,0.5-2.1c0.7-0.4,1.5-0.2,2,0.4c3.8,5.8,15.8,15.6,22,15.6h0.6c2.1-0.2,4.2,0.4,5.8,1.7
		l0.3,0.2c7.9,5.3,22.4,5.3,30.3-0.1l0.3-0.2c0.7-0.6,1.6-1,2.4-1.3c1.1-0.3,2.2-0.4,3.4-0.3h0.7c20.8,0,26.9-24.6,27.2-30.7
		c0-0.8,0.8-1.5,1.6-1.4c0.8,0,1.5,0.8,1.4,1.6c-0.4,6.7-7.1,33.5-30.2,33.5H134c-0.8-0.1-1.6,0-2.4,0.2c-0.6,0.3-1.2,0.6-1.7,1
		l-0.4,0.2C125.2,133.8,119,135.3,112.7,135.4z"/>
	<path class="st8" d="M125.1,103.9c-0.1,3.1-2.3,10-10.3,9.5c-8.8,0.1-9.6-7-9.9-9.7c0,0,5.7,1.7,10.1-2.1c1.4,1.4,3.2,2.2,5.2,2.5
		c1.4,0.1,2.7,0.1,4.1-0.2L125.1,103.9z"/>
	<path class="st9" d="M115.7,114.5c-0.3,0-0.6,0-0.9,0c-9.3,0.1-10.4-7.4-10.8-10.3v-0.3c0-0.3,0.1-0.7,0.3-0.9
		c0.3-0.2,0.6-0.3,0.9-0.2c0,0,5.2,1.4,9.2-1.9c0.4-0.3,1-0.3,1.4,0.1c1.3,1.2,2.9,1.9,4.6,2.2c1.2,0.1,2.5,0,3.7-0.2h0.2h0.8
		c0.3,0,0.5,0.1,0.7,0.3c0.2,0.2,0.3,0.5,0.3,0.7c-0.1,3-1.4,5.9-3.5,8C120.7,113.7,118.2,114.5,115.7,114.5z M114.8,112.5
		c2.3,0.3,4.7-0.5,6.4-2c1.5-1.5,2.5-3.4,2.8-5.5c-1.3,0.3-2.7,0.3-4,0.2c-1.9-0.3-3.6-1-5.1-2.2c-2.6,1.8-5.8,2.5-8.9,2
		C106.6,108.1,108,112.5,114.8,112.5L114.8,112.5z"/>
	<path class="st10" d="M92.5,58.1c-0.9,2.9-1.2,6-1.1,9.1c-0.1,0.9,0.2,1.9,0.7,2.7c1.2,1.4,3.3,0.5,4.8-0.5
		c7.3-5.1,13-12.7,20.5-17.4c1.9-1.2,4-2.2,6.2-1.9s4.3,2.4,4,4.7c2.8-3.1,8.4-2.1,10.1,1.9c0.9,2.3,0.6,4.9,1.4,7.3
		c0.8,2.4,3.8,4.1,5.3,2.3c0.5-0.8,0.8-1.7,0.8-2.6c0.6-8.4-3-16.5-9.6-21.7c-7.9-5.9-18.4-5.7-28-4.1c-3.5,0.5-7,1.4-10.4,2.6
		c-8.7,3.5-16,9.8-20.7,18c-1.7,3-5.6,9.3-4.6,13c1.1,4.1,5.8,3.4,8.3,1.6C85.2,69.4,89.3,63.3,92.5,58.1z"/>
	<path d="M73.7,77.6c-0.8,0-1.5-0.7-1.5-1.5c0-0.6,0.4-1.2,0.9-1.4c12.8-5.4,20.3-22.1,20.5-22.5c0.3-0.6,0.8-0.9,1.4-0.9
		c0.7,0,1.3,0.5,1.4,1.2c0,0.2,0,0.5-0.1,0.7h0.1C96,54.6,95.5,56,95,57.3c-0.6,1.5-1.1,3-1.5,4.5c-1.3,4.6-0.8,6.4-0.3,7.1
		c0.4,0.5,1.7,0,2.8-0.8c3.3-2.4,6.3-5.1,9.2-8c3.5-3.4,7.2-6.9,11.4-9.5c1.9-1.2,4.4-2.5,7.2-2.1c2.1,0.4,3.9,1.7,4.8,3.7
		c3.9-1.8,8.6-0.1,10.4,3.9l0,0c0.5,1.4,1,2.9,1.3,4.3c0.3,1.1,0.5,2.1,0.8,3c0.6,1.8,1.1,2.3,1.4,2.4c0.4,0,0.7-0.1,1-0.3
		c1.7-1,1.6-6.5,0.4-8.7c-0.4-0.7-0.2-1.6,0.6-2c0.7-0.4,1.6-0.2,2,0.6c0,0,0,0.1,0.1,0.1c1.6,3.1,2.1,10.5-1.6,12.7
		c-1,0.7-2.4,0.9-3.6,0.5c-1.8-0.7-2.6-2.6-3.2-4.2c-0.4-1.1-0.6-2.2-0.9-3.3c-0.3-1.3-0.6-2.7-1.1-3.9c-0.6-1.5-2-2.5-3.6-2.7
		c-1.5-0.3-3,0.2-4,1.3c-0.4,0.5-1.1,0.7-1.7,0.4s-1-0.9-0.9-1.5c0.2-1.5-1.3-2.9-2.7-3c-1.8-0.3-3.8,0.8-5.2,1.7
		c-4,2.5-7.5,5.8-10.9,9.1c-3,3-6.2,5.8-9.6,8.3c-2.7,1.9-5.3,2-6.8,0.3s-1.4-4.2-1-6.7c-3.5,4.7-8.8,10.4-15.6,13.3
		C74.1,77.5,73.9,77.6,73.7,77.6z"/>
	<path d="M85.5,106.9c-0.3,0-0.6-0.1-0.9-0.3c-1.3-1-2.4-2.1-3.5-3.3c-1.2-1.3-2.6-2.6-4-3.7c-0.3-0.2-0.4-0.4-0.5-0.7
		c-2.4-8.3-2.5-17-0.1-25.3c0.2-0.8,1-1.3,1.8-1.2s1.3,1,1.2,1.8c0,0.1,0,0.1-0.1,0.2c-2,7.6-2,15.5,0,23.1c1.4,1.1,2.7,2.4,3.9,3.7
		c0.8,0.8,1.5,1.6,2.2,2.2c7.4-6.6,13.2-11.3,28-11.2c0.6,0,16.4-0.4,27,10.9l1-1.1c1.9-2,4.1-4.5,6.8-5.8c0.8-3.2,4-18.3-3.4-30.4
		c-0.4-0.7-0.2-1.6,0.5-2.1s1.6-0.2,2.1,0.5c9.1,14.8,3.8,32.7,3.6,33.5c-0.1,0.4-0.4,0.8-0.9,0.9c-2.3,1-4.6,3.4-6.4,5.4
		c-0.8,0.9-1.6,1.8-2.3,2.4c-0.3,0.3-0.7,0.4-1.1,0.4c-0.4,0-0.7-0.2-1-0.5c-9.6-11.4-25.6-11-25.7-11c-14.3-0.1-19.3,4.3-26.8,11.1
		l-0.2,0.2C86.2,106.7,85.8,106.9,85.5,106.9z"/>
	<path class="st11" d="M123.3,89.4L123.3,89.4c-1.3,0-2.3-1-2.3-2.3l0,0v-0.3c-0.1-1.3,0.9-2.3,2.1-2.4s2.3,0.9,2.4,2.1
		c0,0.1,0,0.2,0,0.3v0.3C125.5,88.4,124.5,89.4,123.3,89.4"/>
	<path class="st11" d="M105.5,89.3L105.5,89.3c-1.2,0-2.3-1-2.3-2.3v-0.3c-0.1-1.3,0.9-2.3,2.1-2.4s2.3,0.9,2.4,2.1
		c0,0.1,0,0.2,0,0.3V87C107.7,88.2,106.7,89.3,105.5,89.3L105.5,89.3"/>
	<ellipse class="st12" cx="114.8" cy="93.9" rx="5.5" ry="3.6"/>
	<path d="M94.4,56c-0.2,0-0.4,0-0.5-0.1c-0.8-0.3-1.2-1.2-0.9-1.9l0,0c0.2-0.6,6.1-15.6,19.6-15.6h0.3c0.8,0,1.5,0.7,1.5,1.5l0,0
		c0,0.8-0.7,1.5-1.5,1.5h-0.2c-11.5,0-16.7,13.5-16.8,13.7C95.6,55.6,95,56,94.4,56z"/>
</g>
<g id="레이어_6">
	<g>
		<g>
			<g>
				<path class="st13" d="M102.4,135.3c-3.1,5-10.2,0.7-10.2,0.7c-5.7-2.4-10.7-6.5-15.5-10.2c-3.6-2.8-7.1-5.7-10.6-8.6
					c-3.1-2.6-6.1-5.8-9.7-7.7c-2.4-1.4-4.4-0.9-7.1-2.4c-2.4-1.3-4.4-3.3-5.7-5.6c-2.7-4.9-2.3-11.5,1.1-16
					c0.4-0.6,0.9-1.1,1.5-1.5c1.4-0.8,3.2-0.5,4.6,0.3c1.4,0.8,2.4,2.2,3.4,3.4c1.5,2,3,3.9,4.5,5.9c1.1-0.9,0.6-2.9,1.4-4
					c0.8-1.1,2.7-1,3.7,0c1,1,1.4,2.4,1.5,3.8c0.2,2.1-0.1,4.3-0.8,6.3c-0.2,0.7-0.6,1.5-0.4,2.3c0.2,0.6,0.7,1.1,1.1,1.5
					c0,0,14.7,13.6,29.3,21.8C94.8,125.1,105.7,129.9,102.4,135.3z"/>
				<path d="M95.1,138.9c-1.4-0.4-2.7-0.9-3.6-1.5c-5.4-2.2-10.1-5.9-14.6-9.5l-1.1-0.9c-3.8-2.9-7.4-6-10.6-8.6
					c-0.9-0.7-1.8-1.5-2.6-2.3c-2.2-1.9-4.4-3.9-6.8-5.3c-1-0.6-1.9-0.8-3-1c-1.2-0.2-2.6-0.5-4.1-1.4c-2.7-1.5-4.9-3.7-6.3-6.2
					c-3-5.4-2.5-12.7,1.2-17.6c0.4-0.6,1.1-1.3,2-1.9c1.8-1,4.1-0.9,6.2,0.3c1.6,1,2.8,2.5,3.8,3.8l2.9,3.7c0.1-0.6,0.3-1.2,0.7-1.8
					c0.6-0.8,1.5-1.3,2.5-1.4c1.2-0.1,2.5,0.3,3.4,1.1c1.1,1.1,1.8,2.6,2,4.8c0.2,2.3-0.1,4.7-0.9,6.9l-0.1,0.2
					c-0.2,0.4-0.3,1-0.3,1.2c0.1,0.2,0.5,0.6,0.7,0.8c0.2,0.2,14.7,13.5,29,21.6c1,0.5,7.4,3.5,8.8,7.8c0.5,1.6,0.3,3.1-0.6,4.6l0,0
					C101.6,139.4,98.1,139.6,95.1,138.9z M54.6,107.1c0.8,0.2,1.6,0.5,2.6,1c2.7,1.5,5,3.6,7.3,5.7c0.9,0.8,1.7,1.5,2.6,2.2
					c3.1,2.6,6.8,5.7,10.5,8.6l1.1,0.9c4.4,3.5,9,7.1,14,9.1c0.1,0,0.1,0.1,0.2,0.1c0.2,0.1,5.9,3.4,8.1-0.2l0,0
					c0.4-0.7,0.5-1.4,0.3-2.1c-0.8-2.7-5.5-5.2-7.2-6c0,0-0.1,0-0.1-0.1c-14.6-8.2-29.4-21.8-29.6-22c-0.6-0.5-1.3-1.2-1.6-2.2
					c-0.3-1.1,0-2.2,0.3-3l0.1-0.2c0.6-1.8,0.9-3.8,0.7-5.7c-0.1-1.4-0.4-2.3-1-2.8c-0.3-0.2-0.7-0.4-1.1-0.3
					c-0.1,0-0.3,0.1-0.4,0.2c-0.2,0.2-0.2,0.7-0.3,1.2c-0.1,0.9-0.3,2.2-1.4,3.1c-0.3,0.3-0.7,0.4-1.1,0.3c-0.4,0-0.8-0.3-1-0.6
					l-4.5-5.9c-0.9-1.2-1.8-2.4-3-3.1c-0.9-0.5-2.2-0.8-3.1-0.3c-0.4,0.3-0.8,0.7-1.1,1.1c-3.1,4-3.5,9.9-1,14.4
					c1.2,2.1,2.9,3.8,5.1,5.1c1.2,0.6,2.2,0.9,3.3,1.1C53.7,106.9,54.2,107,54.6,107.1z"/>
			</g>
			<g>
				<path class="st13" d="M58.9,93.6c0,0-2.2,1.8-1.1,5.3"/>
				<path d="M57.4,100.3c-0.5-0.1-0.9-0.5-1.1-1c-1.4-4.4,1.4-6.8,1.6-6.9c0.6-0.5,1.6-0.4,2.1,0.2s0.4,1.6-0.2,2.1
					c-0.2,0.1-1.4,1.4-0.6,3.7c0.2,0.8-0.2,1.6-1,1.9C57.9,100.4,57.7,100.4,57.4,100.3z"/>
			</g>
		</g>
		<path d="M66.9,109.1c-0.1,0-0.2-0.1-0.2-0.1c-0.8-0.3-1.1-1.2-0.7-2c2.4-5.3,6.9-9.4,12.3-11.4c0.8-0.3,1.6,0.1,1.9,0.9
			s-0.1,1.6-0.9,1.9c-4.7,1.7-8.5,5.3-10.6,9.9C68.3,108.9,67.6,109.2,66.9,109.1z"/>
		<path d="M71.2,112.6c-0.1,0-0.2-0.1-0.3-0.1c-0.8-0.3-1.1-1.2-0.7-2c1.7-3.7,4.7-6.7,8.4-8.5c0.7-0.4,1.6,0,2,0.7s0,1.6-0.7,2
			c-3,1.4-5.6,4-7,7.1C72.6,112.5,71.9,112.8,71.2,112.6z"/>
	</g>
</g>
</svg>
