<?xml version="1.0" encoding="UTF-8"?>
<svg xmlns="http://www.w3.org/2000/svg" version="1.1" viewBox="0 0 201 189">
  <defs>
    <style>
      .cls-1 {
        fill: #48649c;
      }

      .cls-2 {
        fill: #6c3e09;
      }

      .cls-3 {
        fill: #fff;
      }

      .cls-4 {
        fill: #616161;
      }
    </style>
  </defs>
  <!-- Generator: Adobe Illustrator 28.7.1, SVG Export Plug-In . SVG Version: 1.2.0 Build 142)  -->
  <g>
    <g id="_레이어_1" data-name="레이어_1">
      <g>
        <g>
          <path class="cls-4" d="M47.855,116.037c-5.546,4.78-7.99,13.092-6.201,21.096.567,2.538,1.909,5.42,4.321,6.178,2.108.662,4.136-.682,5.137-2.497,1.001-1.815,1.255-4.032,1.759-6.11.657-2.708,1.763-5.241,3.261-7.464,2.336-3.468,5.915-6.267,10.229-6.243,4.314.024,9.163,3.712,9.586,8.243.173,1.853-.371,3.605-1.118,5.17-1.845,3.867-4.997,6.916-8.854,8.562-2.712,1.158-6.185,2.129-6.616,5.233-.319,2.3,1.442,4.804,3.598,5.905,2.156,1.101,4.564,1.055,6.737.604,3.786-.787,7.146-2.704,10.193-4.949,2.778-2.046,5.378-4.426,7.097-7.503,3.63-6.496,2.696-15.732-1.868-22.748-10.694-16.436-26.313-12.911-37.26-3.477h0Z"/>
          <path d="M66.969,155.839c-1.626,0-3.095-.33-4.389-.992-2.254-1.15-4.437-3.91-4.041-6.755.442-3.182,3.423-4.384,6.054-5.446.359-.144.714-.287,1.058-.434,3.676-1.569,6.67-4.466,8.431-8.159.834-1.747,1.174-3.296,1.041-4.735-.392-4.194-5.034-7.471-8.766-7.493-3.517-.013-7.008,2.123-9.537,5.878-1.449,2.149-2.505,4.57-3.143,7.196-.124.512-.233,1.033-.342,1.554-.338,1.619-.687,3.292-1.497,4.762-1.089,1.974-3.467,3.714-6.11,2.886-3.265-1.026-4.501-5.088-4.881-6.788-1.858-8.318.681-16.916,6.469-21.904h0c7.138-6.151,15.004-8.973,22.159-7.963,6.42.914,11.916,4.822,16.336,11.617,4.855,7.46,5.618,16.946,1.897,23.604-1.533,2.742-3.862,5.21-7.329,7.765-3.751,2.762-7.092,4.381-10.516,5.093-1.012.21-1.978.314-2.893.314h-.001ZM66.307,120.169c.019,0,.038,0,.058,0,4.518.024,9.928,3.877,10.405,8.995.163,1.744-.228,3.577-1.194,5.603-1.935,4.055-5.229,7.241-9.276,8.968-.353.151-.718.298-1.088.448-2.322.937-4.723,1.906-5.032,4.136-.28,2.014,1.384,4.151,3.154,5.054,1.677.856,3.759,1.035,6.192.53,3.182-.661,6.318-2.188,9.87-4.805,3.271-2.409,5.452-4.709,6.865-7.239,3.428-6.135,2.689-14.933-1.839-21.892-4.148-6.375-9.256-10.037-15.182-10.879-6.668-.956-14.073,1.743-20.844,7.576h0c-5.331,4.596-7.661,12.56-5.934,20.289.247,1.107,1.25,4.78,3.761,5.569,1.758.551,3.389-.705,4.163-2.107.69-1.251.999-2.731,1.327-4.299.113-.539.224-1.077.353-1.607.683-2.818,1.821-5.419,3.379-7.73,2.83-4.203,6.787-6.61,10.862-6.61h0Z"/>
        </g>
        <g>
          <path class="cls-2" d="M43.001,151.009c1.712-.484,3.136-1.667,4.384-2.934,1.791-1.818,3.339-3.875,4.59-6.1.789-1.404,1.475-3.047,1-4.586-.637-2.063-3.19-3.01-5.309-2.597s-3.889,1.816-5.567,3.174c-2.214,1.792-6.57,4.898-6.779,8.082-.233,3.545,4.497,5.861,7.68,4.961h0Z"/>
          <path d="M41.508,152.035c-1.726,0-3.566-.627-4.956-1.753-1.432-1.158-2.162-2.681-2.057-4.288.212-3.225,3.906-6.15,6.351-8.087l.733-.584c1.587-1.285,3.561-2.882,5.929-3.343,2.397-.468,5.47.609,6.259,3.165.597,1.926-.324,3.911-1.069,5.236-1.289,2.292-2.878,4.403-4.722,6.275-1.148,1.166-2.726,2.578-4.749,3.149-.543.154-1.124.229-1.719.229h0ZM48.655,135.527c-.282,0-.561.026-.829.078-1.964.383-3.686,1.775-5.204,3.005l-.747.595c-2.081,1.649-5.563,4.407-5.727,6.897-.088,1.352.737,2.32,1.446,2.893,1.448,1.172,3.581,1.673,5.182,1.217h0c1.649-.466,3.014-1.697,4.019-2.718,1.741-1.767,3.241-3.761,4.458-5.925.645-1.147,1.333-2.633.93-3.935-.423-1.37-2.02-2.107-3.529-2.107h0Z"/>
        </g>
        <g>
          <path class="cls-2" d="M58.45,162.613c1.534-.901,2.612-2.406,3.5-3.947,1.273-2.212,2.251-4.594,2.898-7.063.408-1.558.657-3.321-.192-4.69-1.138-1.834-3.847-2.105-5.793-1.17s-3.303,2.74-4.583,4.478c-1.689,2.294-5.117,6.4-4.514,9.533.671,3.489,5.833,4.533,8.685,2.857v.002Z"/>
          <path d="M55.3,164.229c-1.118,0-2.256-.226-3.273-.688-1.678-.759-2.77-2.048-3.075-3.629-.61-3.173,2.225-6.94,4.101-9.431l.56-.75c1.21-1.643,2.715-3.687,4.891-4.735,2.2-1.054,5.447-.791,6.856,1.48,1.064,1.715.675,3.868.29,5.337-.667,2.543-1.67,4.987-2.981,7.265-.818,1.42-1.988,3.184-3.798,4.249h0c-1.019.599-2.282.901-3.57.901h-.001ZM61.199,146.051c-.686,0-1.383.154-1.977.439-1.805.868-3.117,2.65-4.275,4.222l-.571.764c-1.597,2.121-4.269,5.67-3.798,8.122.256,1.331,1.3,2.057,2.131,2.433,1.694.764,3.883.713,5.32-.133h0c1.476-.867,2.487-2.404,3.202-3.647,1.238-2.15,2.185-4.458,2.814-6.859.334-1.273.625-2.884-.094-4.043-.555-.895-1.638-1.3-2.753-1.3v.002Z"/>
        </g>
      </g>
      <g>
        <g>
          <path class="cls-4" d="M68.069,55.216c-3.012-5.968-4.981-12.307-2.145-18.866.818-1.893,2.318-3.6,4.304-4.154,1.392-.389,2.872-.185,4.302.028,1.008.15,2.035.309,2.942.773,2.291,1.171,3.251,3.985,3.318,6.557s-.536,5.133-.389,7.702c.222,3.892,2.144,7.489,4.404,10.665,1.265,1.778,2.701,3.591,2.95,5.76.225,1.956-.642,4.003-2.205,5.203-6.317,4.848-12.361-4.503-15.001-9.116-.853-1.49-1.701-3.008-2.48-4.551h0Z"/>
          <path d="M81.886,71.069c-.417,0-.838-.043-1.262-.128-3.524-.708-7.055-4.228-10.794-10.763-.773-1.351-1.675-2.954-2.5-4.589h0c-2.665-5.28-5.319-12.275-2.166-19.568,1.023-2.365,2.787-4.05,4.842-4.623,1.6-.449,3.291-.196,4.647.007,1.009.15,2.153.321,3.197.855,2.272,1.16,3.681,3.879,3.769,7.272.033,1.265-.089,2.523-.207,3.74-.132,1.36-.257,2.645-.183,3.937.181,3.158,1.531,6.41,4.252,10.233l.347.485c1.229,1.709,2.499,3.476,2.751,5.66.258,2.243-.733,4.58-2.524,5.955-1.325,1.016-2.722,1.528-4.168,1.529v-.002ZM71.988,32.804c-.525,0-1.044.051-1.537.189-1.548.433-2.956,1.811-3.767,3.686-2.863,6.623-.533,12.898,2.124,18.163h0c.808,1.602,1.697,3.18,2.46,4.513,3.439,6.011,6.697,9.362,9.682,9.961,1.427.286,2.766-.071,4.096-1.091,1.339-1.027,2.079-2.774,1.886-4.451-.202-1.756-1.345-3.345-2.45-4.882l-.352-.491c-2.91-4.088-4.357-7.615-4.557-11.098-.081-1.42.056-2.829.189-4.192.118-1.22.23-2.373.2-3.536-.027-1.041-.313-4.536-2.867-5.841-.803-.41-1.761-.553-2.687-.692-.77-.115-1.602-.239-2.42-.239h0Z"/>
        </g>
        <g>
          <path class="cls-3" d="M82.776,78.198c-2.888-2.385-5.06-5.511-7.102-8.651-.153-.236-.312-.493-.298-.774.019-.354.303-.629.57-.861,3.089-2.689,6.545-4.957,10.242-6.721.519-.248,1.082-.492,1.651-.406.421.064.792.301,1.142.543,4.055,2.802,7.126,7,8.569,11.712.482,1.573.786,3.26.4,4.858-1.676,6.934-11.742,3.134-15.175.3h0Z"/>
          <path d="M92.578,82.641c-3.711,0-8.132-1.99-10.329-3.804-3.033-2.503-5.254-5.739-7.27-8.838-.173-.264-.461-.708-.43-1.272.038-.729.588-1.209.853-1.44,3.151-2.743,6.66-5.045,10.43-6.844.614-.293,1.339-.595,2.131-.477.597.091,1.083.399,1.49.681,4.228,2.921,7.386,7.237,8.89,12.151.646,2.108.777,3.792.413,5.296-.507,2.099-1.784,3.545-3.691,4.18-.762.254-1.604.367-2.487.367h0ZM87.603,61.595c-.311,0-.691.168-1.056.342-3.636,1.734-7.018,3.953-10.056,6.598-.215.187-.278.271-.292.308.016.016.127.187.169.251,1.946,2.993,4.084,6.11,6.935,8.465h0c2.481,2.049,7.957,4.24,11.238,3.143,1.375-.458,2.227-1.439,2.605-2.998.291-1.204.169-2.609-.386-4.421-1.398-4.559-4.327-8.563-8.25-11.274-.267-.185-.548-.368-.795-.406-.036-.005-.074-.008-.113-.008h0Z"/>
        </g>
      </g>
      <g>
        <g>
          <path class="cls-4" d="M144.712,115.675c6.632.835,13.265.564,18.492-4.308,1.508-1.406,2.613-3.392,2.47-5.449-.101-1.442-.789-2.768-1.469-4.043-.479-.899-.974-1.814-1.715-2.513-1.871-1.766-4.844-1.726-7.29-.926-2.445.8-4.656,2.227-7.125,2.95-3.741,1.096-7.774.493-11.525-.571-2.1-.596-4.289-1.34-6.416-.847-1.919.444-3.556,1.948-4.162,3.822-2.448,7.577,8.388,10.135,13.62,11.074,1.69.304,3.405.593,5.119.809v.002Z"/>
          <path d="M149.946,116.871c-1.859,0-3.664-.163-5.337-.373h0c-1.825-.231-3.633-.542-5.162-.816-7.411-1.331-11.912-3.477-13.76-6.56-.995-1.658-1.163-3.537-.503-5.585.696-2.149,2.565-3.866,4.764-4.375,2.145-.495,4.234.108,6.257.693l.572.164c4.512,1.282,8.031,1.465,11.065.573,1.243-.364,2.41-.913,3.648-1.492,1.107-.52,2.251-1.057,3.454-1.451,3.227-1.054,6.261-.639,8.116,1.111.856.809,1.399,1.828,1.877,2.726.646,1.211,1.451,2.716,1.565,4.376.15,2.127-.847,4.354-2.731,6.111-4.155,3.872-9.163,4.898-13.823,4.898h-.002ZM131.594,100.639c-.431,0-.856.042-1.273.139-1.643.379-3.041,1.662-3.56,3.269-.516,1.595-.403,2.977.345,4.224,1.568,2.613,5.818,4.557,12.634,5.781,1.506.271,3.287.578,5.076.802h0c5.851.737,12.543.829,17.823-4.091,1.495-1.393,2.32-3.182,2.208-4.784-.09-1.306-.772-2.584-1.374-3.711-.419-.787-.894-1.678-1.553-2.3-2.084-1.97-5.476-1.065-6.463-.741-1.107.361-2.154.853-3.265,1.375-1.239.582-2.521,1.184-3.885,1.584-3.346.98-7.154.799-11.985-.57l-.58-.166c-1.379-.399-2.793-.809-4.149-.809v-.002Z"/>
        </g>
        <g>
          <path class="cls-3" d="M118.128,109.529c3.216,1.921,6.889,2.918,10.533,3.789.274.065.57.129.829.021.327-.136.491-.496.62-.826,1.497-3.812,2.474-7.829,2.896-11.903.059-.572.1-1.184-.172-1.691-.201-.375-.549-.645-.895-.894-4-2.88-8.984-4.365-13.908-4.144-1.643.074-3.335.353-4.711,1.253-5.97,3.905.986,12.113,4.808,14.396h0Z"/>
          <path d="M129.17,114.226c-.278,0-.526-.061-.704-.104-3.595-.859-7.389-1.867-10.763-3.883h0c-3.026-1.806-7.451-6.735-7.537-10.918-.04-2.011.894-3.699,2.702-4.881,1.296-.847,2.924-1.288,5.125-1.388,5.152-.217,10.26,1.298,14.43,4.298.423.306.859.648,1.142,1.178.377.704.338,1.456.264,2.165-.429,4.155-1.421,8.233-2.948,12.122-.128.326-.396,1.004-1.073,1.286-.218.092-.435.124-.638.124h0ZM119.01,94.687c-.314,0-.627.007-.941.02-1.893.086-3.258.441-4.295,1.119-1.343.879-1.98,2.011-1.951,3.461.071,3.458,3.967,7.882,6.73,9.532h0c3.173,1.894,6.828,2.863,10.301,3.692.077.019.276.058.336.057-.012-.007.046-.094.15-.359,1.473-3.749,2.429-7.68,2.843-11.685.049-.473.08-.922-.077-1.213-.117-.22-.375-.417-.651-.616-3.613-2.6-8-4.008-12.444-4.008h0Z"/>
        </g>
      </g>
      <g>
        <path class="cls-3" d="M73.041,89.837c-2.538,1.865-5.115,3.77-6.991,6.3-.407.549-.793,1.176-.759,1.858.025.496.269.95.51,1.384,6.157,11.067,16.341,19.914,28.293,24.16.344.122.703.242,1.066.203,1.657-.182,6.615-6.863,7.965-8.439,3.45-4.03,6.573-8.529,9.943-12.675,1.967-2.43,3.964-4.91,5.11-7.819,2.371-6.017.52-13.321-4.102-17.845-14.172-13.872-29.636,4.495-41.035,12.874h0Z"/>
        <path d="M95.016,124.577c-.469,0-.884-.146-1.198-.256-11.952-4.248-22.427-13.191-28.742-24.54-.244-.438-.578-1.038-.613-1.746-.048-.949.439-1.742.921-2.392,1.965-2.651,4.608-4.595,7.165-6.474h0c1.97-1.448,4.06-3.195,6.273-5.045,10.513-8.79,23.595-19.729,35.832-7.754,4.961,4.857,6.727,12.563,4.294,18.741-1.201,3.048-3.253,5.584-5.237,8.036-1.442,1.774-2.866,3.649-4.242,5.461-1.836,2.417-3.734,4.918-5.716,7.233-.263.306-.665.81-1.154,1.422-3.683,4.616-5.945,7.146-7.35,7.301-.08.008-.156.012-.233.012h0ZM73.531,90.504h0c-2.458,1.807-4.999,3.675-6.816,6.126-.307.414-.619.895-.597,1.322.015.298.185.626.406,1.022,6.122,11.002,16.271,19.67,27.846,23.783.226.08.51.175.7.159,1.062-.205,4.956-5.084,6.235-6.687.504-.632.918-1.151,1.189-1.468,1.951-2.277,3.834-4.757,5.655-7.156,1.385-1.824,2.818-3.709,4.275-5.503,1.905-2.354,3.876-4.788,4.983-7.599,2.196-5.576.588-12.547-3.911-16.95-11.161-10.926-23.09-.955-33.61,7.841-2.234,1.867-4.344,3.631-6.354,5.109h0Z"/>
      </g>
      <g>
        <path class="cls-4" d="M161.503,55.257c2.205,19.977-12.145,40.482-33.424,40.366-13.128-.072-30.72-13.418-35.138-25.773-2.631-7.359-.982-16.083,4.154-21.974,1.791-2.055,3.944-3.758,6.082-5.448,4.656-3.68,9.312-7.359,13.968-11.039,19.625-15.509,42.027,2.742,44.358,23.868h0Z"/>
        <path d="M128.256,96.451c-.061,0-.121,0-.182,0-13.152-.071-31.276-13.355-35.913-26.321-2.75-7.692-1.059-16.64,4.309-22.798,1.85-2.121,4.058-3.866,6.193-5.553l13.968-11.039c7.831-6.186,16.866-7.621,25.445-4.034,10.728,4.486,18.867,15.923,20.25,28.46,1.198,10.865-2.418,22.164-9.679,30.225-6.428,7.137-15.084,11.061-24.391,11.061h0ZM132.71,26.436c-5.201,0-10.353,1.889-15.052,5.603l-13.968,11.039c-2.076,1.641-4.224,3.337-5.972,5.343-4.904,5.624-6.51,14.124-3.998,21.15,4.443,12.425,21.785,25.155,34.361,25.224,8.926-.012,17.184-3.684,23.334-10.513,6.949-7.715,10.411-18.532,9.263-28.934h0c-1.298-11.77-9.21-22.919-19.241-27.113-2.876-1.203-5.81-1.798-8.728-1.798h.001Z"/>
      </g>
      <g>
        <path class="cls-1" d="M54.254,104.755c-.428.312-.883.663-1.027,1.173-.11.391-.015.808.086,1.202,4.481,17.5,20.933,31.231,38.952,32.511,2.366-6.136,4.451-12.706,6.113-19.066,2.943-11.26-14.483-21.501-23.308-24.982-4.433-1.749-5.646-1.948-9.381.82-3.791,2.809-7.624,5.562-11.435,8.343h0Z"/>
        <path d="M92.265,140.468c-.02,0-.039,0-.059-.001-18.421-1.309-35.115-15.244-39.696-33.134-.102-.4-.257-1.007-.08-1.631.227-.808.894-1.294,1.335-1.616h0l3.818-2.777c2.544-1.846,5.087-3.692,7.612-5.564,3.951-2.925,5.456-2.786,10.179-.925,7.713,3.044,27.025,13.641,23.805,25.963-1.713,6.559-3.837,13.182-6.141,19.155-.123.321-.432.53-.772.53h0ZM54.742,105.423h0c-.272.2-.646.472-.718.729-.056.197.029.528.091.771,4.358,17.021,20.11,30.323,37.598,31.842,2.197-5.764,4.22-12.113,5.864-18.4,2.588-9.909-12.618-19.982-22.811-24.003-4.185-1.651-5.082-1.881-8.585.714-2.529,1.874-5.077,3.723-7.625,5.573l-3.814,2.773h0Z"/>
      </g>
    </g>
  </g>
</svg>