<?xml version="1.0" encoding="utf-8"?>
<!-- Generator: Adobe Illustrator 26.0.3, SVG Export Plug-In . SVG Version: 6.00 Build 0)  -->
<svg version="1.1" id="레이어_1" xmlns="http://www.w3.org/2000/svg" xmlns:xlink="http://www.w3.org/1999/xlink" x="0px"
	 y="0px" viewBox="0 0 134 256" style="enable-background:new 0 0 134 256;" xml:space="preserve">
<style type="text/css">
	.st0{opacity:0.3;fill-rule:evenodd;clip-rule:evenodd;enable-background:new    ;}
	.st1{fill:#FFFFFF;}
	.st2{fill:#673101;}
	.st3{fill:#009FF9;}
	.st4{fill:#202E8D;}
	.st5{fill:#0088C5;}
	.st6{fill-rule:evenodd;clip-rule:evenodd;fill:#009FF9;}
	.st7{fill-rule:evenodd;clip-rule:evenodd;fill:#FFFFFF;}
	.st8{fill-rule:evenodd;clip-rule:evenodd;fill:#FDBDB8;}
	.st9{fill-rule:evenodd;clip-rule:evenodd;}
	.st10{fill:#231815;}
	.st11{fill-rule:evenodd;clip-rule:evenodd;fill:#202E8D;}
	.st12{fill-rule:evenodd;clip-rule:evenodd;fill:#141414;}
	.st13{fill:#FDD100;}
	.st14{fill:#202E8C;}
	.st15{fill:#AC7425;}
	.st16{fill:#004799;}
	.st17{fill:#E51F22;}
</style>
<path class="st0" d="M23.2,250.8c-12-3.6-17.9-7.8-17.9-12.7s6-9.2,17.9-12.7c12-3.5,26.4-5.2,43.2-5.2c16.9,0,31.3,1.7,43.2,5.2
	s17.9,7.7,17.9,12.7c0,4.9-5.9,9.1-17.9,12.7c-11.9,3.4-26.3,5.2-43.2,5.2S35.1,254.3,23.2,250.8z"/>
<g>
	<path class="st1" d="M42.8,2.8c1.6,0.5,3.3,1.2,4.9,2.1c1.4,0.8,2.7,1.7,3.9,2.7c3.9,3.2,8.9,13.4,3.5,17.5
		c-3.9,2.9-7.4-4.4-9.6-6.5C40.7,13.8,33.8,19.1,30,23c-3,3.2-8,3.3-11.2,0.3s-3.3-8.1-0.3-11.3c3.7-4,8.3-7.4,13.5-9
		C35.9,1.9,39.4,1.8,42.8,2.8z"/>
	<path class="st2" d="M33.6,20c-0.3-1.2-1.2-2.1-2.3-2.4c-0.4-0.1-0.7-0.1-1-0.1c0.4-0.4,0.7-0.9,0.9-1.5c0.4-1.8-0.7-3.7-2.4-4.1
		c-0.5-0.1-1-0.1-1.5,0c0.3-0.3,0.5-0.7,0.6-1.2c0.4-1.9-0.6-3.7-2.4-4.2h-0.6h-0.1c-3.4,2.4-5.8,4.8-6.3,5.4
		c-3.1,3.3-3,8.4,0.3,11.6c1.5,1.4,3.5,2.2,5.6,2.2c0.1,0,0.1,0,0.2,0c2.2-0.1,4.2-1,5.7-2.5c1.2-1.2,2.3-2.1,3.4-2.9l0.1-0.1
		L33.6,20z"/>
	<path d="M37.9,2.1c1.7,0,3.3,0.2,4.9,0.7c1.6,0.5,3.3,1.2,4.9,2.1c1.4,0.8,2.7,1.7,3.9,2.7c3.9,3.2,8.9,13.4,3.5,17.5
		c-0.6,0.5-1.3,0.7-1.9,0.7c-3.1,0-5.9-5.4-7.7-7.2c-1.4-1.4-2.9-1.9-4.5-1.9c-2.6,0-5.3,1.5-7.7,3.3v0.1c-1.3,1-2.5,2-3.4,2.9l0,0
		c-1.6,1.6-3.6,2.5-5.7,2.5c-2,0-3.9-0.7-5.5-2.2c-2-1.9-2.8-4.6-2.4-7.1c0.2-1.5,0.9-3,2.1-4.2c0.3-0.3,1-1,2-2
		c3.4-3,7.3-5.6,11.6-7C34.1,2.4,36,2.1,37.9,2.1 M37.9,0c-2.1,0-4.2,0.3-6.5,1C27.1,2.3,23,4.8,19,8.5c-1,0.9-1.8,1.7-2.1,2
		c-1.4,1.5-2.3,3.3-2.6,5.3c-0.5,3.3,0.6,6.7,3,9c1.9,1.8,4.3,2.8,6.9,2.8c2.8,0,5.3-1.1,7.3-3.1l0,0c0.8-0.8,1.9-1.8,3.1-2.7
		c0.2-0.1,0.3-0.3,0.5-0.5c2.2-1.6,4.3-2.5,5.9-2.5c1.2,0,2.1,0.4,3,1.3c0.4,0.4,1,1.1,1.6,1.9c1.9,2.6,4.4,5.9,7.7,5.9
		c1.1,0,2.2-0.4,3.1-1.1c2-1.5,3.1-3.8,3.2-6.6c0.1-5.1-3.3-11.4-6.6-14.1c-1.6-1.3-2.9-2.2-4.2-3c-1.9-1-3.6-1.8-5.4-2.3
		C41.6,0.3,39.8,0,37.9,0L37.9,0z"/>
</g>
<g>
	<path class="st1" d="M89.9,2.8C88.3,3.3,86.6,4,85,4.9c-1.4,0.8-2.7,1.7-3.9,2.7c-3.9,3.2-8.9,13.4-3.5,17.5
		c3.9,2.9,7.4-4.4,9.6-6.5C92,13.8,99,19.1,102.7,23c3,3.2,8,3.3,11.2,0.3s3.3-8.1,0.3-11.3c-3.7-4-8.3-7.4-13.5-9
		C96.8,1.9,93.4,1.8,89.9,2.8z"/>
	<path class="st2" d="M114.4,12l-0.2-0.2c-0.7-0.8-3-3-6.1-5.2H108h-0.6c-0.9,0.2-1.6,0.8-2.1,1.6c-0.4,0.8-0.6,1.7-0.4,2.6
		c0.1,0.5,0.3,0.9,0.6,1.2c-0.5-0.1-1-0.1-1.5,0c-0.9,0.2-1.6,0.8-2.1,1.6c-0.4,0.8-0.6,1.7-0.4,2.6c0.2,0.6,0.5,1.1,0.9,1.4
		c-0.3,0-0.7,0-1,0.1c-1.3,0.3-2.1,1.3-2.3,2.6v0.1l0.1,0.1c1.1,0.7,2.2,1.7,3.4,2.9c1.6,1.7,3.7,2.5,5.9,2.5c2,0,4-0.7,5.6-2.2
		C117.4,20.4,117.6,15.3,114.4,12z"/>
	<path d="M94.8,2.1c1.9,0,3.8,0.3,5.9,0.9c4.4,1.3,8.2,3.9,11.5,7c1.1,1,1.8,1.7,2,2c1.1,1.2,1.8,2.7,2.1,4.2
		c0.4,2.5-0.4,5.2-2.4,7.1c-1.5,1.5-3.5,2.2-5.5,2.2c-2.1,0-4.2-0.8-5.7-2.5l0,0c-0.9-0.9-2.1-2-3.4-2.9V20
		c-2.3-1.8-5.1-3.3-7.7-3.3c-1.6,0-3.1,0.5-4.5,1.9c-1.8,1.8-4.6,7.2-7.7,7.2c-0.6,0-1.2-0.2-1.9-0.7C72.2,21,77.2,10.9,81,7.6
		c1.2-1,2.5-2,3.9-2.7c1.7-0.9,3.3-1.6,4.9-2.1C91.5,2.4,93.2,2.1,94.8,2.1 M94.8,0c-1.9,0-3.7,0.3-5.5,0.8
		c-1.7,0.5-3.5,1.3-5.4,2.3c-1.3,0.7-2.6,1.7-4.2,3c-3.3,2.7-6.7,9.1-6.6,14.1c0.1,2.8,1.2,5.1,3.2,6.6c1,0.7,2,1.1,3.1,1.1
		c3.3,0,5.7-3.3,7.7-5.9c0.6-0.8,1.2-1.6,1.6-1.9c0.9-0.9,1.9-1.3,3-1.3c1.7,0,3.7,0.9,5.9,2.5c0.1,0.2,0.3,0.3,0.5,0.5
		c1.2,0.9,2.3,1.8,3.1,2.7l0,0c0,0,0,0,0.1,0.1c1.9,2,4.5,3.1,7.2,3.1c2.6,0,5.1-1,6.9-2.8c2.4-2.3,3.5-5.7,3-9
		c-0.3-2-1.2-3.8-2.6-5.3c-0.4-0.4-1.1-1.1-2.1-2.1c-3.9-3.6-8.1-6.2-12.3-7.5C99.1,0.3,96.9,0,94.8,0L94.8,0z"/>
</g>
<g>
	<path class="st1" d="M82.5,160.2c-2.4,0-8.2,1.9-8.2,4.3v36.2h12.5v-36.2C86.9,162.2,84.9,160.2,82.5,160.2"/>
	<path class="st3" d="M104.4,224.7c-2.5-5.1-7.4-8.9-13-10.1l-0.3-0.1c-1.2-0.2-2.5-0.4-3.8-0.4v-13.9l-0.5,0.1c0,0-2.7,0.7-6.2,0.7
		s-6.2-0.7-6.2-0.7l-0.5-0.1v33.3c0,2.4,3,4.4,5.4,4.9l0,0h11.9c0.5,0,1.1,0,1.6,0c0.6,0,1.1,0,1.7,0c3.5,0,7.1-0.3,9.5-3.2
		C106.5,232.7,105.9,227.5,104.4,224.7z"/>
	<path d="M82.5,160.2c2.4,0,4.3,1.9,4.3,4.3v32.1v4.2v13.8c0.1,0,0.2,0,0.3,0c1.1,0,2.4,0.1,3.8,0.4c0.1,0,0.3,0.1,0.3,0.1
		c5.5,1.2,10.3,4.9,12.8,9.9c1.4,2.7,2,7.7-0.2,10.2c-2.4,2.7-5.9,3.1-9.3,3.1c-1.1,0-2.2,0-3.3,0h-4.4h-2.9h-3.1h-1.1l0,0
		c-2.4-0.4-5.4-2.6-5.4-4.7v-37l0,0v-32.1C74.3,162.2,80.1,160.2,82.5,160.2 M82.5,158.1c-2.4,0-10.3,2-10.3,6.4v32v0.1v37
		c0,3.2,3.2,5.5,6.5,6.4c0.3,0.2,0.7,0.3,1.1,0.3h1.1H84h2.9h4.4c0.5,0,1,0,1.6,0s1.1,0,1.7,0c4,0,8-0.5,10.9-3.8
		c3-3.4,2.1-9.4,0.5-12.5c-2.8-5.6-8.2-9.7-14.3-11l-0.3-0.1h-0.1c-0.8-0.2-1.6-0.3-2.4-0.3v-11.8v-4.2v-32.1
		C89,161,86.1,158.1,82.5,158.1L82.5,158.1z"/>
</g>
<g>
	<g>
		<path class="st1" d="M50.2,160.2c2.4,0,8.2,1.9,8.2,4.3v36.2H45.9v-36.2C45.9,162.2,47.8,160.2,50.2,160.2"/>
		<path class="st3" d="M58.3,200.6c0,0-2.7,0.7-6.2,0.7s-6.2-0.7-6.2-0.7l-0.3-0.1v13.9c-1.3,0-2.5,0.1-3.9,0.4
			c-0.1,0-0.3,0.1-0.3,0.1c-5.6,1.2-10.4,5-12.9,10c-1.4,2.7-2.1,7.8,0.2,10.4c2.5,2.8,6,3.1,9.5,3.1c0.6,0,1.1,0,1.7,0
			c0.5,0,1.1,0,1.6,0h11.8v-0.2c2.6-0.5,5.4-2.5,5.4-4.6v-33.1L58.3,200.6z"/>
	</g>
	<path d="M50.2,160.2c2.4,0,8.2,1.9,8.2,4.3v32.1l0,0v37c0,2.2-3,4-5.4,4.4v0.1h-1.1h-3.1h-2.9h-4.4c-1.1,0-2.2,0-3.3,0
		c-3.4,0-7-0.3-9.3-3.1c-2.2-2.5-1.6-7.5-0.2-10.2c2.5-5,7.3-8.7,12.8-9.9l0.3-0.1c1.4-0.3,2.7-0.4,3.8-0.4c0.1,0,0.2,0,0.3,0v-13.8
		v-4.2v-32.1C45.9,162.2,47.8,160.2,50.2,160.2 M50.2,158.1c-3.6,0-6.4,2.9-6.4,6.4v32.1v4.2v11.8c-0.8,0.1-1.6,0.2-2.4,0.3h-0.1
		L41,213c-6.1,1.3-11.4,5.4-14.2,11c-1.6,3.1-2.5,9.1,0.5,12.5c2.9,3.3,7,3.8,10.9,3.8c0.6,0,1.2,0,1.7,0s1.1,0,1.6,0h4.4h2.9h3.1
		H53c0.4,0,0.8-0.1,1.1-0.3c3.2-0.8,6.5-3.2,6.5-6.4v-37v-0.1v-32C60.5,160.1,52.6,158.1,50.2,158.1L50.2,158.1z"/>
</g>
<g>
	<g>
		<path class="st4" d="M122.4,169.4c2.8-0.1,5.2-3.3,6.1-6.2c5-17.7,4.2-36.5-8.6-51.4c-1.4-1.6-3.4-4.4-5.7-4.5
			c-8.7-0.4,1.1,17.9,2,21c3.2,10.5,2.4,21.7-0.5,32.1c-1,3.7,1,7.5,4.6,8.6C121,169.4,121.7,169.5,122.4,169.4z"/>
	</g>
	<path class="st5" d="M131.8,142.8c0-0.2-0.1-0.8-0.1-1.6c-0.3-5.6-0.5-6.2-0.9-6.2c-3.2-0.3-8-0.3-13,1h-0.2v0.2
		c1.1,8.4,0,15.9-3.3,23.8c-1,2.4-2.2,6-0.8,8.3c0.8,1.4,2.4,2.2,4.6,2.5c0.4,0.1,0.7,0.1,1.1,0.1s0.7,0,1.1-0.1
		c1.9-0.1,3.5-0.7,4.6-1.5c4.8-4,5.6-10.9,6.2-16.4l0.1-1C131.8,149.1,132,146,131.8,142.8z"/>
	<path d="M117,136.7c0.5-0.1,0.9-0.3,1.4-0.4l0,0c0.1,0,0.1,0,0.2-0.1c0.6-0.2,1.2-0.3,1.8-0.4c0.4-0.1,0.8-0.2,1.2-0.2
		c0.3-0.1,0.7-0.1,1.1-0.2c0.7-0.1,1.4-0.2,2.1-0.2c0.1,0,0.1,0,0.2,0c0,0,0,0,0.1,0c0.9-0.1,1.7-0.1,2.5-0.1c1.3,0,2.6,0.1,3.7,0.2
		c0,0,0.1,0,0.1,0.1c0.5,0.1,1,0.1,1.5,0.2c-0.3-1.4-0.8-1.6-1.5-1.7c-1.2-0.1-2.5-0.2-3.8-0.2c-3.3,0-6.6,0.4-9.6,1.3l-1.2,0.3
		l0.2,1.2C116.9,136.6,116.9,136.7,117,136.7z"/>
	<path d="M113.9,107.4c0.1,0,0.2,0,0.3,0c2.3,0.1,4.3,2.9,5.7,4.5c6.1,7.1,9.5,15,10.8,23.3h0.1c0.5,0.1,0.8,6.9,0.8,7.6
		c0.1,3,0,6-0.3,9c-0.6,5.8-1.2,13.2-6.3,17.3c-1.1,0.9-2.8,1.4-4.5,1.5c-0.3,0-0.6,0-0.9,0c-0.4,0-0.9,0-1.3-0.1
		c-6.7-0.8-5.5-6.1-3.7-10.5c2.4-5.7,3.6-11.3,3.7-17.1c0-0.6,0-1.2,0-1.8c0-0.4,0-0.9,0-1.3c-0.1-1.1-0.1-2.1-0.3-3.2
		c0-0.2,0-0.3,0-0.5c-0.3-2.7-0.9-5.3-1.7-7.9C115.3,125.4,105.6,107.4,113.9,107.4 M113.9,105.3c-2.5,0-3.8,1.2-4.5,2.2
		c-2.5,3.9,0.4,11.4,3.6,18.9c0.5,1.2,1,2.2,1.1,2.7c0.7,2.4,1.3,4.9,1.6,7.5v0.2c0,0.1,0,0.2,0,0.3c0.1,1,0.2,2,0.3,3.1
		c0,0.4,0,0.8,0,1.2c0,0.6,0,1.2,0,1.7c-0.1,5.5-1.2,10.9-3.5,16.3c-1.2,2.8-2.5,6.9-0.7,10c1.1,1.9,3.2,3.1,6.1,3.5
		c0.5,0.1,1,0.1,1.5,0.1c0.4,0,0.7,0,1.1,0c1.3-0.1,3.9-0.5,5.7-2c5.5-4.6,6.3-12.1,6.9-18.1l0.1-0.7c0.3-3.2,0.5-6.3,0.4-9.3
		c-0.2-5-0.3-7.5-1-8.7c-1.6-8.9-5.3-16.8-11.2-23.6c-0.2-0.2-0.3-0.4-0.5-0.6c-1.6-1.9-3.7-4.4-6.7-4.6
		C114.2,105.3,114,105.3,113.9,105.3L113.9,105.3z"/>
</g>
<g>
	<g>
		<path class="st4" d="M11.6,169.4c-2.8-0.1-5.2-3.3-6.1-6.2c-5-17.7-4.2-36.5,8.6-51.4c1.4-1.6,3.4-4.4,5.7-4.5
			c8.7-0.4-1.1,17.9-2,21c-3.2,10.5-2.4,21.7,0.5,32.1c1,3.7-1,7.5-4.6,8.6C13,169.4,12.3,169.5,11.6,169.4z"/>
	</g>
	<path class="st5" d="M19.6,160c-3.3-7.9-4.4-15.4-3.3-23.8V136h-0.2c-4.9-1.3-9.8-1.3-13-1c-0.4,0-0.6,0.6-0.9,6.2
		c0,0.8-0.1,1.4-0.1,1.6c-0.2,3.2,0,6.4,0.3,9l0.1,1c0.7,5.5,1.5,12.4,6.2,16.4c1.1,0.9,2.7,1.4,4.6,1.5c0.4,0.1,0.8,0.1,1.2,0.1
		s0.7,0,1.1-0.1c2.3-0.3,3.9-1.1,4.7-2.5C21.8,166,20.6,162.5,19.6,160z"/>
	<path d="M17,136.7c-0.5-0.1-0.9-0.3-1.4-0.4l0,0c-0.1,0-0.1,0-0.2-0.1c-0.6-0.2-1.2-0.3-1.8-0.4c-0.4-0.1-0.8-0.2-1.2-0.2
		c-0.3-0.1-0.7-0.1-1.1-0.2c-0.7-0.1-1.4-0.2-2.1-0.2c-0.1,0-0.1,0-0.2,0c0,0,0,0-0.1,0c-0.9-0.1-1.7-0.1-2.5-0.1
		c-1.3,0-2.6,0.1-3.7,0.2c0,0-0.1,0-0.1,0.1c-0.5,0.1-1,0.1-1.5,0.2c0.3-1.4,0.8-1.6,1.5-1.7c1.2-0.1,2.5-0.2,3.8-0.2
		c3.3,0,6.6,0.4,9.6,1.3l1.2,0.3l-0.2,1.2C17.1,136.6,17.1,136.7,17,136.7z"/>
	<path d="M20.1,107.4c8.3,0-1.3,18-2.3,21c-0.8,2.6-1.3,5.2-1.7,7.9c0,0.2,0,0.3,0,0.5c-0.1,1.1-0.2,2.1-0.3,3.2c0,0.4,0,0.9,0,1.3
		c0,0.6,0,1.2,0,1.8c0.1,5.8,1.3,11.4,3.7,17.1c1.8,4.4,3,9.7-3.7,10.5c-0.4,0-0.8,0.1-1.3,0.1c-0.3,0-0.6,0-0.9,0
		c-1.7-0.1-3.4-0.6-4.5-1.5c-5-4.2-5.6-11.6-6.3-17.3c-0.3-3-0.5-6-0.3-9c0-0.7,0.3-7.6,0.8-7.6h0.1c1.3-8.3,4.7-16.3,10.8-23.3
		c1.4-1.6,3.4-4.4,5.7-4.5C19.9,107.4,20,107.4,20.1,107.4 M20.1,105.3L20.1,105.3c-0.1,0-0.2,0-0.3,0c-3,0.1-5.1,2.7-6.7,4.6
		c-0.2,0.2-0.4,0.4-0.5,0.6c-5.8,6.8-9.6,14.7-11.2,23.6c-0.7,1.2-0.9,3.6-1,8.7c-0.1,3,0,6.2,0.4,9.3l0.1,0.7
		c0.6,6,1.4,13.5,6.9,18.1c1.8,1.5,4.3,1.9,5.7,2c0.4,0,0.7,0,1.1,0c0.5,0,1,0,1.5-0.1c2.9-0.4,5-1.5,6.1-3.5
		c1.8-3.1,0.5-7.2-0.7-10c-2.3-5.4-3.4-10.7-3.5-16.3c0-0.5,0-1.1,0-1.7c0-0.4,0-0.8,0-1.2c0.1-1,0.1-2.1,0.3-3.1c0-0.1,0-0.2,0-0.3
		v-0.2c0.3-2.6,0.9-5.1,1.6-7.5c0.1-0.4,0.6-1.5,1.1-2.7c3.2-7.4,6.2-15,3.6-18.9C23.9,106.5,22.6,105.3,20.1,105.3L20.1,105.3z"/>
</g>
<path class="st6" d="M115.9,113.6c-0.5-2.7-0.2-8-0.2-8c0.3-3.6,1.4-7,2.6-10.4c4.4-12.4,5.3-24.4,2.4-37.2
	c-2.2-9.9-7.2-20.7-15.2-27.1c-10.3-8.2-23.8-14.5-36.9-14.5h-2.2h-2.2C51,16.5,37.5,22.8,27.2,31c-8,6.4-13,17.2-15.2,27.1
	c-2.9,12.8-2,24.8,2.4,37.2c1.2,3.4,2.2,6.8,2.6,10.4c0,0,0.3,5.3-0.2,8c-1.4,7.7-3.7,15.3-4.1,23.2c-0.5,10.1,2,23.5,8.2,31.6
	c8.6,11.1,23.7,16.2,37.2,17.3c2,0.2,4,0.2,6,0.2h2.1h2.1c2,0,4-0.1,6-0.2c13.6-1.1,28.6-6.2,37.2-17.3c6.2-8.1,8.8-21.5,8.2-31.6
	C119.5,128.9,117.2,121.3,115.9,113.6z"/>
<g>
	<path class="st7" d="M73,24.7c4.9,0.6,9.8,2,14.2,3.8c7.2,3.1,15.6,8,19.5,14.9c1.7,3,2.9,6.4,3.5,9.8c0.5,2.6-0.1,6.2,1.4,8.4
		c3.2,4.5,3.9,7.1,4.7,12.7c0.8,5.3,0.4,10.9-1.9,15.8c-5.8,12.8-19.9,18.2-32.8,18.6c-1.8,0.1-3.6,0.1-5.4,0.2
		c-8.4,0.3-16.7,0.1-25-0.2c-12.9-0.4-27-5.8-32.8-18.6c-2.2-4.9-2.7-10.6-1.9-15.8c0.9-5.6,1.6-8.2,4.7-12.7
		c1.6-2.2,0.9-5.9,1.4-8.4c0.7-3.4,1.8-6.8,3.5-9.8c3.9-6.9,10.3-11.8,17.5-14.9c2.9-1.2,5.9-2.2,9-2.9C58.7,24.2,66.8,23.9,73,24.7
		z"/>
	<path class="st8" d="M46.9,76.3c0,7.5-6.1,13.6-13.5,13.6c-7.5,0-13.5-6.1-13.5-13.6S26,62.7,33.4,62.7S46.9,68.8,46.9,76.3"/>
	<path class="st8" d="M112.9,76.3c0,7.5-6.1,13.6-13.5,13.6c-7.5,0-13.5-6.1-13.5-13.6s6-13.6,13.5-13.6
		C106.9,62.7,112.9,68.8,112.9,76.3"/>
	<g>
		<path class="st9" d="M68.7,71.9c0,1-1,1.8-2.3,1.8s-2.3-0.8-2.3-1.8s1-1.8,2.3-1.8S68.7,70.9,68.7,71.9"/>
		<path class="st9" d="M79.8,69.8L79.8,69.8c-1.7,0-3.2-1.3-3.2-2.9v-0.4c0-1.6,1.4-2.9,3.2-2.9c1.7,0,3.2,1.3,3.2,2.9v0.4
			C82.9,68.5,81.5,69.8,79.8,69.8"/>
		<path class="st9" d="M53,69.8L53,69.8c-1.7,0-3.2-1.3-3.2-2.9v-0.4c0-1.6,1.4-2.9,3.2-2.9c1.7,0,3.2,1.3,3.2,2.9v0.4
			C56.1,68.5,54.7,69.8,53,69.8"/>
	</g>
	<path class="st10" d="M58.3,82.4c-2.4,0-4.7-0.6-6.6-1.9c-1-0.7-2.6-2-2.8-3.5c-0.1-0.6,0.1-1.1,0.5-1.6c0.4-0.4,1.1-0.4,1.5,0
		s0.4,1.1,0,1.5c0.1,0.2,0.7,1,1.9,1.8c3.8,2.6,9.9,1.6,12.8-1c0.4-0.4,1-0.4,1.4,0c3,2.6,9.1,3.6,12.8,1c1.2-0.8,1.9-1.7,1.9-2
		c-0.4-0.4-0.4-1,0.1-1.4c0.4-0.4,1.1-0.3,1.5,0.1s0.6,1,0.5,1.6c-0.1,1.4-1.8,2.8-2.8,3.5c-4.4,3-11,2.2-14.7-0.5
		C64.3,81.4,61.3,82.4,58.3,82.4z"/>
</g>
<path d="M68.4,187h-2.1h-2.1c-2.1,0-4.2-0.1-6.1-0.2c-16.5-1.3-30.3-7.8-38-17.7c-6.6-8.5-9-22.3-8.5-32.3
	c0.3-5.4,1.4-10.6,2.5-15.8c0.5-2.5,1.1-5.1,1.5-7.6s0.1-7.7,0.1-7.7c-0.3-3.6-1.5-7.1-2.5-10.1c-4.5-12.7-5.3-25-2.4-37.8
	c2.7-11.8,8.3-21.9,15.6-27.7c11.7-9.3,25.4-14.7,37.5-14.7H64h2.2h2.2h0.1c12.1,0,25.8,5.3,37.5,14.7c7.2,5.8,12.9,15.8,15.6,27.7
	c2.9,12.8,2.1,25.1-2.4,37.8c-1.1,2.9-2.2,6.4-2.5,10.1c0,0-0.3,5.2,0.1,7.7l0,0c0.4,2.5,1,5.1,1.5,7.6c1.1,5.1,2.3,10.4,2.5,15.8
	c0.5,10-1.9,23.8-8.5,32.3c-7.7,9.9-21.5,16.4-38,17.7C72.6,186.9,70.5,187,68.4,187z M66.4,184.9h2.1c2,0,4.1-0.1,5.9-0.2
	c15.9-1.3,29.2-7.5,36.5-16.9c6.2-8.1,8.5-21.3,8-30.9c-0.3-5.2-1.4-10.4-2.5-15.4c-0.5-2.5-1.1-5.1-1.6-7.7l0,0
	c-0.5-2.8-0.2-8-0.2-8.2c0.4-3.9,1.5-7.6,2.6-10.7c4.5-12.4,5.2-24.1,2.4-36.6c-2.6-11.4-8-21-14.8-26.5
	c-11.3-9-24.5-14.2-36.2-14.2h-0.1h-2.2h-2.2c-11.7,0-24.9,5.2-36.3,14.2C21,37.3,15.6,46.9,13,58.3c-2.8,12.5-2.1,24.2,2.4,36.6
	c1.1,3.1,2.3,6.7,2.6,10.6c0,0.3,0.3,5.5-0.2,8.2c-0.5,2.6-1,5.2-1.6,7.7c-1.1,5-2.2,10.2-2.5,15.4c-0.5,9.6,1.8,22.9,8,30.9
	c7.3,9.4,20.6,15.6,36.5,16.9c1.9,0.2,3.9,0.2,5.9,0.2L66.4,184.9z"/>
<g>
	<path class="st11" d="M119.9,136.8c-0.4-7.9-2.7-15.5-4.1-23.2c-0.3-1.5-0.3-3.8-0.2-5.6c-11,5.3-27.9,9.4-48.2,9.4
		c-23.9,0.1-45.4-8.2-50.3-10.2c0.1,1.8,0.1,4.6-0.2,6.4c-1.4,7.7-3.7,15.3-4.1,23.2c-0.5,10.1,2,23.5,8.2,31.6
		c5,6.5,12.3,10.9,20.1,13.7v22.5c0,1.2,1,2.2,2.2,2.2h16.3c1.2,0,2.2-1,2.2-2.2v-18.7c0.8,0,1.7,0,2.5,0h2.1h2.1
		c0.9,0,1.8,0,2.7-0.1v18.7c0,1.2,1,2.2,2.2,2.2h16.3c1.2,0,2.2-1,2.2-2.2V182c7.8-2.8,14.9-7.2,19.9-13.6
		C117.9,160.3,120.5,146.8,119.9,136.8z"/>
	<path d="M121,136.7c-0.3-5.3-1.4-10.6-2.5-15.7c-0.5-2.5-1.1-5.1-1.5-7.6c-0.3-1.4-0.3-3.7-0.2-5.4v-1.7l-1.6,0.7
		c-12.3,5.9-29.7,9.3-47.8,9.3c-0.1,0-0.2,0-0.2,0c-23.9,0-45.6-8.5-49.7-10.2l-1.5-0.6l0.1,1.6c0.1,2.7,0,4.9-0.2,6.2
		c-0.4,2.5-1,5.1-1.5,7.6c-1.1,5.1-2.3,10.4-2.5,15.8c-0.5,10,1.9,23.8,8.5,32.3c4.7,6,11.3,10.7,19.9,13.8v21.7
		c0,1.8,1.5,3.3,3.3,3.3h16.3c1.8,0,3.3-1.5,3.3-3.3V187c0.5,0,1,0,1.4,0h2.1h2.1c0.5,0,1.1,0,1.7,0v17.6c0,1.8,1.5,3.3,3.3,3.3
		h16.3c1.8,0,3.3-1.5,3.3-3.3v-21.8c8.4-3.1,15-7.8,19.7-13.7C119.1,160.5,121.5,146.7,121,136.7z M110.9,167.7
		c-4.5,5.8-11,10.3-19.4,13.3l-0.7,0.3v23.3c0,0.6-0.5,1.1-1.1,1.1H73.3c-0.6,0-1.1-0.5-1.1-1.1v-19.8h-1.1c-0.9,0-1.8,0.1-2.7,0.1
		h-2.1h-2.1c-0.8,0-1.6,0-2.5,0h-1.1v19.8c0,0.6-0.5,1.1-1.1,1.1H43.3c-0.6,0-1.1-0.5-1.1-1.1v-23.2l-0.7-0.3
		c-8.5-3-15.1-7.5-19.6-13.4c-6.2-8.1-8.5-21.3-8-30.9c0.3-5.2,1.4-10.4,2.5-15.4c0.5-2.5,1.1-5.1,1.6-7.7c0.2-1.3,0.3-3.3,0.3-5
		c7.4,2.9,27,9.7,49,9.7c0.1,0,0.2,0,0.2,0c17.6,0,34.7-3.2,47.1-8.8c0,1.4,0.1,3,0.3,4.1c0.5,2.6,1,5.2,1.6,7.7
		c1.1,5,2.2,10.2,2.5,15.4C119.4,146.4,117.1,159.7,110.9,167.7z"/>
</g>
<path class="st12" d="M16.5,160.2c1.2,3,2.7,5.8,4.5,8.1c5,6.5,12.3,10.9,20.1,13.7v22.5c0,1.2,1,2.2,2.2,2.2h16.3
	c1.2,0,2.2-1,2.2-2.2v-18.7c0.8,0,1.7,0,2.5,0h2.1h2.1c0.9,0,1.8,0,2.7-0.1v18.7c0,1.2,1,2.2,2.2,2.2h16.3c1.2,0,2.2-1,2.2-2.2V182
	c7.8-2.8,14.9-7.2,19.9-13.6c1.8-2.3,3.3-5.1,4.5-8.1L16.5,160.2L16.5,160.2z"/>
<path d="M89.6,207.8H73.3c-1.8,0-3.3-1.5-3.3-3.3V187c-0.6,0-1.1,0-1.7,0h-2.1h-2.1c-0.5,0-1,0-1.4,0v17.6c0,1.8-1.5,3.3-3.3,3.3
	H43.3c-1.8,0-3.3-1.5-3.3-3.3v-21.7c-8.5-3.1-15.2-7.8-19.9-13.8c-1.8-2.3-3.3-5.1-4.6-8.4l-0.6-1.4h102.8l-0.6,1.4
	c-1.3,3.3-2.9,6.1-4.6,8.4c-4.6,6-11.2,10.6-19.7,13.7v21.8C92.9,206.4,91.4,207.8,89.6,207.8z M72.2,184.8v19.8
	c0,0.6,0.5,1.1,1.1,1.1h16.3c0.6,0,1.1-0.5,1.1-1.1v-23.3l0.7-0.3c8.4-3,14.9-7.5,19.4-13.3c1.4-1.8,2.6-3.9,3.7-6.4H18.1
	c1.1,2.5,2.3,4.6,3.7,6.4c4.5,5.9,11.1,10.3,19.6,13.4l0.7,0.3v23.2c0,0.6,0.5,1.1,1.1,1.1h16.3c0.6,0,1.1-0.5,1.1-1.1v-19.8h1.1
	c0.8,0,1.7,0,2.5,0h2.1h2.1c0.9,0,1.8,0,2.7-0.1L72.2,184.8z"/>
<g>
	<g>
		<path class="st13" d="M101.2,144.1c-0.1,0-10.7-3.7-10.2-19.1v-0.4l0.4-0.1c0.2,0,4.1-1.2,9.9-1.2c3.4,0,6.8,0.4,10,1.2l0.4,0.1
			v0.4c0,0.1,1,14.4-10.2,19.2l-0.2,0.1L101.2,144.1z"/>
		<path class="st13" d="M101.3,123.8c2.9,0,6.3,0.3,9.9,1.2c0,0,1.1,13.9-9.8,18.6c0,0-10.3-3.4-9.8-18.6
			C91.5,124.9,95.5,123.8,101.3,123.8 M101.3,122.6L101.3,122.6c-5.9,0-9.9,1.2-10.1,1.2l-0.8,0.2v0.8
			c-0.4,15.8,10.2,19.5,10.6,19.7l0.4,0.1l0.4-0.2c4.8-2,8.1-6.1,9.7-11.8c1.1-4.2,0.9-7.8,0.9-7.9l-0.1-0.8l-0.8-0.2
			C108.2,123,104.8,122.6,101.3,122.6L101.3,122.6z"/>
	</g>
	<path class="st14" d="M92,125.3c0,0,8.5-2.5,18.8,0c0,0,0.9,13.2-9.4,17.8C101.4,143.1,91.6,139.4,92,125.3z"/>
	<path class="st15" d="M110.1,126.9L110.1,126.9c0.2-0.2,0.3-0.4,0.3-0.6s-0.1-0.4-0.1-0.4c-0.4,0.4-2.2,2.2-4.9,2.4V128l0,0h-2.9
		c0-0.1,0-0.3-0.1-0.4l0,0l0,0l0,0l0,0c0-0.3-0.1-0.5-0.1-0.7c0.1-0.1,0.2-0.2,0.3-0.4c0.1-0.1,0.1-0.3,0.1-0.4l0,0l0,0l-0.1,0.1
		c-0.1,0.1-0.4,0.1-0.8,0.1c-0.2,0-0.4,0-0.6,0s-0.3,0-0.4,0.1c-0.1,0-0.2,0.1-0.3,0.1c-0.1,0-0.1,0.1-0.1,0.1c-0.2,0-0.4,0-0.5,0.1
		c-0.1,0-0.2,0.1-0.2,0.1c-0.1,0.1-0.1,0.2-0.1,0.3l0,0l0,0c0,0.1,0,0.2,0.1,0.3c0.1,0.2,0.1,0.3,0.3,0.4l0,0l0,0c0,0,0-0.2,0.3-0.2
		h0.1c0.1,0,0.1,0,0.1,0v0.1c0,0,0,0.1-0.1,0.3l0,0l0,0l0,0h-2.9l0,0v0.3c-2.7-0.2-4.5-2-4.9-2.4c0,0-0.1,0.2-0.1,0.4
		c0,0.2,0.1,0.4,0.3,0.6l0,0c-0.1,0.2-0.2,0.7,0.3,1.2c0,0,0,0.1,0,0.2c0,0.3,0.1,0.7,0.6,1c0,0,0,0,0.1,0c0,0.1,0,0.9,1.1,1.2
		c0.1,0.3,0.4,0.7,1.2,0.8c0.2,0.3,0.5,0.5,0.9,0.5c0.1,0.2,0.3,0.3,0.5,0.3s0.3,0,0.5,0c0,0,0.1,0.1,0.3,0.1l0,0
		c-0.1,0.1-0.2,0.2-0.2,0.4c-0.1,0.2-0.1,0.4,0.2,0.7c0.1,0.1,0.1,0.2,0.1,0.3s0,0.2,0,0.4c0,0.1,0,0.2,0.1,0.3
		c0,0.1,0.1,0.2,0.2,0.2c0,0,0.1,0.1,0.2,0.1c0,0-0.1,0.1-0.1,0.2c0,0.1,0,0.2,0,0.3s0.1,0.2,0.1,0.3c0.1,0.1,0.2,0.2,0.2,0.3
		s0.1,0.2,0.1,0.3c0,0.4,0.1,0.6,0.3,0.7c0.2,0.1,0.4,0.2,0.8,0.1c0.1,0,0.2-0.1,0.3,0c0.1,0,0.2,0,0.4,0.1c0.1,0,0.2,0,0.3,0
		c0.1,0,0.2-0.1,0.3-0.1l0.1-0.1l0.1,0.1c0.1,0.1,0.2,0.1,0.3,0.1c0.1,0,0.2,0,0.3,0c0.2-0.1,0.3-0.1,0.4-0.1s0.2,0,0.3,0
		c0.4,0.1,0.6,0.1,0.8-0.1c0.2-0.1,0.3-0.3,0.3-0.7c0-0.1,0-0.2,0.1-0.3c0-0.1,0.1-0.2,0.2-0.3s0.1-0.2,0.1-0.3s0-0.2,0-0.3
		s0-0.1-0.1-0.2c0.1,0,0.1,0,0.2-0.1s0.1-0.1,0.2-0.2c0-0.1,0.1-0.2,0.1-0.3c0-0.2,0-0.3,0-0.4c0-0.1,0.1-0.2,0.1-0.3
		c0.2-0.3,0.2-0.5,0.2-0.7c0-0.1-0.1-0.3-0.2-0.4l0,0c0.1,0,0.2-0.1,0.3-0.1c0.2,0,0.3,0,0.5,0c0.2-0.1,0.4-0.2,0.5-0.3
		c0.4,0,0.7-0.2,0.9-0.5c0.8-0.1,1.1-0.5,1.2-0.8c1.1-0.3,1.1-1.1,1.1-1.2h0.1c0.5-0.3,0.6-0.7,0.6-1c0-0.1,0-0.2,0-0.2
		C110.3,127.7,110.2,127.1,110.1,126.9z M100,129.3c-0.2,0-0.7-0.1-1-0.5c-0.1-0.1-0.2-0.2-0.3-0.2c0.2,0,1.1,0.1,1.5,0.1
		C100.1,128.9,100,129.1,100,129.3z M103.8,128.8c-0.4,0.4-0.8,0.5-1,0.5c-0.1-0.2-0.1-0.4-0.2-0.6c0.3,0,1.3-0.1,1.5-0.1
		C103.9,128.7,103.9,128.8,103.8,128.8z"/>
	<path class="st16" d="M102.3,133.6c-0.3-0.2-0.8-0.1-1,0.2s-0.7,0.4-1,0.2s-0.4-0.6-0.2-1c-0.1,0.2-0.2,0.5-0.2,0.8
		c0,0.8,0.6,1.4,1.4,1.4c0.5,0,0.9-0.2,1.2-0.6C102.7,134.3,102.6,133.8,102.3,133.6z"/>
	<path class="st17" d="M101.4,132.4c-0.5,0-0.9,0.2-1.2,0.6c-0.2,0.3-0.1,0.8,0.2,1c0.3,0.2,0.8,0.1,1-0.2s0.6-0.4,1-0.2
		c0.3,0.2,0.4,0.7,0.2,1c0.1-0.2,0.2-0.5,0.2-0.8C102.8,133,102.1,132.4,101.4,132.4z"/>
	<path class="st13" d="M100.8,126.3"/>
	<path class="st13" d="M100.8,126.3"/>
	<polygon class="st13" points="105.8,129.9 104.6,129.9 104.6,129.9 105.2,128.6 	"/>
	<path class="st13" d="M106.3,129.2c-0.2,0.1-0.4,0.1-0.6,0.1l-0.2-0.4c0.4-0.1,0.9-0.2,1.3-0.3
		C106.8,128.8,106.7,129.1,106.3,129.2z"/>
	<path class="st13" d="M106.4,129.3c-0.1,0.3-0.2,0.4-0.4,0.5l-0.2-0.4C106,129.5,106.2,129.4,106.4,129.3
		C106.4,129.4,106.4,129.3,106.4,129.3z"/>
	<path class="st13" d="M103.3,132.1L103.3,132.1C103.2,132,103.2,132,103.3,132.1L103.3,132.1C103.2,132,103.2,132,103.3,132.1
		l-0.8,0.7c0,0-0.1-0.1-0.2-0.1l0.6-0.8c0.1-0.1,0.2-0.2,0.3-0.2c0.1,0,0.3,0.1,0.4,0.2c0.1,0.1,0.2,0.3,0.3,0.3
		c-0.2,0.1-0.7,0.5-1.2,0.9c0-0.1-0.1-0.1-0.1-0.2L103.3,132.1L103.3,132.1z"/>
	<path class="st13" d="M102.5,131.5L102.5,131.5C102.4,131.4,102.4,131.4,102.5,131.5C102.4,131.5,102.4,131.5,102.5,131.5l-0.5,0.8
		c-0.1,0-0.1,0-0.2-0.1c0.2-0.6,0.4-1.2,0.4-1.4c0.1,0.1,0.2,0.1,0.4,0.2c0.2,0.1,0.2,0.2,0.3,0.3c0,0.1,0,0.3-0.1,0.4l-0.6,0.8
		c-0.1,0-0.1-0.1-0.2-0.1L102.5,131.5L102.5,131.5L102.5,131.5z"/>
	<path class="st13" d="M100.2,131.5l0.4,0.8c-0.1,0-0.1,0.1-0.2,0.1l-0.6-0.8c-0.1-0.1-0.1-0.3-0.1-0.4c0-0.1,0.1-0.2,0.3-0.3
		c0.2-0.1,0.3-0.1,0.4-0.2c0.1,0.2,0.3,0.9,0.4,1.4c-0.1,0-0.1,0-0.2,0.1L100.2,131.5C100.4,131.5,100.3,131.5,100.2,131.5
		C100.3,131.4,100.3,131.4,100.2,131.5C100.3,131.5,100.2,131.5,100.2,131.5L100.2,131.5L100.2,131.5z"/>
	<path class="st13" d="M99.5,132.1l0.7,0.7c0,0.1-0.1,0.1-0.1,0.2c-0.5-0.3-1-0.7-1.2-0.9c0.1-0.1,0.2-0.2,0.3-0.3
		c0.1-0.1,0.2-0.2,0.4-0.2c0.1,0,0.2,0.1,0.3,0.2l0.6,0.8c-0.1,0-0.1,0.1-0.2,0.1L99.5,132.1c0.1-0.1,0.1-0.1,0.1-0.1l0,0
		C99.5,132,99.5,132,99.5,132.1C99.4,132.1,99.4,132.1,99.5,132.1C99.4,132.1,99.4,132.1,99.5,132.1z"/>
	<path class="st13" d="M104.5,129.1c0.1-0.1,0.3-0.1,0.4-0.1l-0.1,0.2C104.7,129.2,104.6,129.2,104.5,129.1z"/>
	<path class="st13" d="M104.7,129.4l-0.1,0.3c-0.2-0.1-0.3-0.2-0.4-0.2l0,0c0.1-0.1,0.1-0.1,0.2-0.2
		C104.5,129.3,104.6,129.3,104.7,129.4z"/>
	<path class="st13" d="M104.1,129.3c-0.3,0.4-0.7,0.6-1.1,0.6c0-0.1-0.1-0.3-0.1-0.4c0.2,0,0.7-0.1,1.1-0.5c0.2-0.3,0.6-0.5,1-0.5
		c0.1,0,0.1,0,0.2,0l-0.2,0.3C104.7,128.8,104.3,129,104.1,129.3z"/>
	<path class="st13" d="M103.2,131.4C103.1,131.4,103.1,131.4,103.2,131.4L103.2,131.4L103.2,131.4c-0.1-0.1-0.1-0.1-0.1-0.2l0,0
		l0.1-0.1C103.1,131.2,103.2,131.3,103.2,131.4z"/>
	<path class="st13" d="M103,131.1c-0.1-0.1-0.2-0.2-0.3-0.3c0,0,0.2-0.1,0.2-0.4c0.1,0.2,0.1,0.3,0.2,0.5
		C103,131,103,131.1,103,131.1z"/>
	<path class="st13" d="M102.4,130.3c0.1-0.1,0.2-0.2,0.2-0.5l0,0c0,0.1,0.1,0.2,0.1,0.4l0,0v0.1c0,0.3-0.1,0.4-0.2,0.5
		C102.6,130.7,102.5,130.5,102.4,130.3z"/>
	<path class="st13" d="M102.6,130.8c-0.1,0-0.2-0.1-0.3-0.1c0,0,0.1-0.1,0.1-0.2C102.4,130.7,102.5,130.8,102.6,130.8z"/>
	<path class="st13" d="M102.6,129.7L102.6,129.7c-0.1,0-0.2-0.1-0.2-0.4c0,0,0.1,0,0.1-0.1C102.5,129.3,102.6,129.5,102.6,129.7z"/>
	<path class="st13" d="M102.6,129.8L102.6,129.8c-0.1,0.2-0.2,0.3-0.2,0.4c-0.1,0-0.2-0.2-0.2-0.4c0,0,0.1-0.1,0.2-0.3
		C102.4,129.7,102.6,129.8,102.6,129.8z"/>
	<path class="st13" d="M102.1,129.7c-0.1,0-0.2-0.2-0.2-0.4c0,0,0.1-0.2,0.2-0.3c0.1,0.2,0.1,0.3,0.2,0.3
		C102.3,129.5,102.2,129.6,102.1,129.7z"/>
	<path class="st13" d="M101.9,129.2c-0.1,0-0.2-0.2-0.2-0.4c0,0,0.1-0.2,0.2-0.3c0.1,0.2,0.1,0.3,0.2,0.3
		C102,129,101.9,129.1,101.9,129.2z"/>
	<path class="st13" d="M101.8,129.3c0,0.2-0.1,0.4-0.2,0.4s-0.2-0.2-0.2-0.4c0,0,0.1-0.2,0.2-0.3
		C101.7,129.1,101.8,129.2,101.8,129.3z"/>
	<path class="st13" d="M101.4,129.2c-0.1,0-0.2-0.2-0.2-0.4c0,0,0.1-0.2,0.2-0.3c0.1,0.2,0.1,0.3,0.2,0.3
		C101.5,129,101.4,129.1,101.4,129.2z"/>
	<path class="st13" d="M101.3,129.3c0,0.2-0.1,0.4-0.2,0.4s-0.2-0.2-0.2-0.4c0,0,0.1-0.2,0.2-0.3
		C101.2,129.1,101.3,129.2,101.3,129.3z"/>
	<path class="st13" d="M100.8,129.2c-0.1,0-0.2-0.2-0.2-0.4c0,0,0.1-0.2,0.2-0.3c0.1,0.2,0.1,0.3,0.2,0.3
		C101,129,100.9,129.1,100.8,129.2z"/>
	<path class="st13" d="M100.8,129.3c0,0.2-0.1,0.4-0.2,0.4s-0.2-0.2-0.2-0.4c0,0,0.1-0.2,0.2-0.3
		C100.6,129.1,100.7,129.2,100.8,129.3z"/>
	<path class="st13" d="M100.5,129.8c0,0.2-0.2,0.4-0.2,0.4s-0.2-0.2-0.2-0.4l0,0c0,0,0.2-0.1,0.2-0.4
		C100.4,129.6,100.5,129.7,100.5,129.8z"/>
	<path class="st13" d="M99.6,131.4L99.6,131.4C99.5,131.4,99.5,131.4,99.6,131.4c-0.1-0.1-0.1-0.2,0-0.3c0,0,0,0.1,0.1,0.1l0,0
		C99.7,131.3,99.6,131.4,99.6,131.4L99.6,131.4z"/>
	<path class="st13" d="M99.6,131c0-0.2,0.1-0.3,0.2-0.5c0.1,0.3,0.2,0.4,0.2,0.4c-0.1,0.1-0.2,0.1-0.3,0.3
		C99.7,131.1,99.7,131,99.6,131z"/>
	<path class="st13" d="M99.9,130.3v-0.1l0,0c0-0.1,0.1-0.2,0.1-0.4l0,0c0,0.3,0.2,0.4,0.2,0.5c0,0.3-0.1,0.4-0.2,0.5
		C100,130.7,99.9,130.5,99.9,130.3z"/>
	<path class="st13" d="M100.3,130.5c0,0.1,0.1,0.2,0.1,0.2c-0.1,0-0.2,0.1-0.3,0.1C100.2,130.8,100.3,130.7,100.3,130.5z"/>
	<path class="st13" d="M100.1,129.7L100.1,129.7c0-0.2,0.1-0.4,0.1-0.5c0,0.1,0.1,0.1,0.1,0.1C100.3,129.5,100.1,129.7,100.1,129.7z
		"/>
	<path class="st13" d="M98.8,129c0.4,0.4,0.9,0.5,1.1,0.5c0,0.1-0.1,0.3-0.1,0.4c-0.4,0-0.9-0.3-1.1-0.6c-0.3-0.3-0.6-0.5-0.9-0.5
		l-0.2-0.3c0.1,0,0.1,0,0.2,0C98.2,128.5,98.5,128.7,98.8,129z"/>
	<path class="st13" d="M98.2,129.1c-0.1,0-0.2,0.1-0.3,0.1l-0.1-0.2C97.9,129,98.1,129.1,98.2,129.1z"/>
	<path class="st13" d="M98.3,129.2c0.1,0.1,0.1,0.1,0.2,0.2l0,0c-0.1,0.1-0.2,0.1-0.4,0.2l-0.1-0.3
		C98.1,129.3,98.2,129.3,98.3,129.2z"/>
	<path class="st13" d="M98.2,129.9l-0.1-0.1c0.2-0.1,0.4-0.2,0.4-0.3c0.1,0.1,0.1,0.1,0.2,0.2c-0.2,0.2-0.6,0.7-1.3,0.7
		c-0.4,0-0.5-0.2-0.6-0.3c0.1,0.1,0.3,0.1,0.6,0.1C97.9,130.2,98.1,130.1,98.2,129.9C98.3,130,98.2,130,98.2,129.9z"/>
	<path class="st13" d="M98.9,129.8c0.1,0,0.1,0.1,0.2,0.1c-0.1,0.2-0.4,0.7-1,0.8c-0.3,0.1-0.5-0.1-0.6-0.2
		C98.2,130.5,98.7,130,98.9,129.8z"/>
	<path class="st13" d="M99.2,130c0.1,0,0.2,0.1,0.3,0.1c-0.1,0.2-0.2,0.7-0.6,0.9c-0.3,0.2-0.5,0.1-0.7,0
		C98.8,130.7,99.1,130.1,99.2,130z"/>
	<path class="st13" d="M99,131c0.4-0.2,0.6-0.7,0.6-0.9h0.1c-0.1,0.3-0.2,0.6-0.3,0.9C99.2,131.1,99,131.1,99,131
		C98.9,131.1,98.9,131,99,131z"/>
	<path class="st13" d="M100.5,130.6c-0.1-0.1-0.2-0.2-0.2-0.3c0,0,0.2-0.1,0.2-0.4c0.1,0.2,0.2,0.3,0.2,0.3l0,0c0,0-0.1,0.1-0.1,0.2
		C100.7,130.5,100.6,130.6,100.5,130.6z"/>
	<path class="st13" d="M100.6,129.8c0,0,0.2-0.1,0.2-0.4c0.1,0.2,0.2,0.3,0.2,0.4c0,0.2-0.2,0.4-0.2,0.4
		C100.8,130.1,100.7,130,100.6,129.8z"/>
	<path class="st13" d="M101.1,129.9c0,0.1,0.1,0.1,0.1,0.2c-0.1,0-0.1,0-0.2,0.1l0,0C101,130.1,101.1,130,101.1,129.9z"/>
	<path class="st13" d="M101.2,129.8c0,0,0.1-0.2,0.2-0.3c0.1,0.2,0.1,0.3,0.2,0.3c0,0.2-0.1,0.3-0.2,0.3l0,0l0,0
		C101.3,130,101.2,129.9,101.2,129.8z"/>
	<path class="st13" d="M101.6,129.9c0,0.1,0.1,0.2,0.1,0.3l0,0c-0.1,0-0.1,0-0.2-0.1C101.5,130.1,101.6,130,101.6,129.9z"/>
	<path class="st13" d="M101.6,129.8c0,0,0.2-0.1,0.2-0.4c0.1,0.2,0.2,0.3,0.2,0.4c0,0.2-0.2,0.4-0.2,0.4
		C101.8,130.1,101.7,130,101.6,129.8z"/>
	<path class="st13" d="M101.9,130.3c0,0,0.1-0.1,0.2-0.3c0.1,0.2,0.2,0.4,0.2,0.4c0,0.2-0.1,0.3-0.2,0.3s-0.1-0.1-0.2-0.2
		C102,130.4,101.9,130.4,101.9,130.3L101.9,130.3z"/>
	<path class="st13" d="M103,130.1L103,130.1c0.2,0.2,0.4,0.7,0.7,0.9c0,0,0,0,0.1,0c-0.1,0-0.3,0.1-0.5-0.1
		C103.2,130.7,103.1,130.4,103,130.1z"/>
	<path class="st13" d="M103.2,130.1c0.1,0,0.2,0,0.3-0.1c0.1,0.2,0.4,0.7,1,0.9c-0.1,0.1-0.3,0.2-0.7,0
		C103.5,130.7,103.3,130.3,103.2,130.1z"/>
	<path class="st13" d="M103.6,129.9c0.1,0,0.1-0.1,0.2-0.1c0.2,0.2,0.7,0.8,1.4,0.7c-0.1,0.1-0.2,0.3-0.6,0.2
		C104,130.7,103.7,130.1,103.6,129.9z"/>
	<path class="st13" d="M103.9,129.7c0.1-0.1,0.1-0.1,0.2-0.2c0.1,0.1,0.2,0.2,0.4,0.3l-0.1,0.1c0,0,0,0,0,0.1
		c0.1,0.1,0.4,0.3,0.8,0.3c0.2,0,0.5-0.1,0.6-0.1c-0.1,0.1-0.3,0.3-0.6,0.3C104.6,130.4,104.1,129.9,103.9,129.7z"/>
	<path class="st13" d="M105.2,128.2L105.2,128.2c0,0.1-2.1,0.3-2.6,0.3c0-0.1,0-0.2-0.1-0.3l0,0l0,0l0,0H105.2z"/>
	<path class="st13" d="M102.5,129.1c0,0.1-0.1,0.1-0.1,0.1c-0.1,0-0.2-0.2-0.2-0.4c0,0,0.1-0.1,0.2-0.2
		C102.4,128.7,102.4,128.9,102.5,129.1z"/>
	<path class="st13" d="M100.3,127.3L100.3,127.3C100.2,127.3,100.2,127.3,100.3,127.3c-0.1,0-0.4,0-0.4,0.1c0-0.1-0.1-0.1-0.1-0.2
		s0-0.1,0-0.2s0-0.1,0-0.2l0.1-0.1c0.1,0,0.3-0.1,0.5,0l0,0l0,0l0,0c0.1,0,0.3,0.1,0.4,0.3c0,0,0.4-0.1,0.7-0.4c0,0-0.5,0.1-1,0l0,0
		l0,0l0,0c0-0.1,0.1-0.1,0.3-0.2l0,0l0,0c0.1,0,0.2,0,0.4,0c0.2,0,0.3,0,0.5,0c0.3,0,0.5,0,0.7,0c0,0.1-0.1,0.3-0.3,0.4l0,0H102
		h-0.1v0.1v0.1c0.1,0.1,0.1,0.4,0.1,0.7l0,0c0,0.2,0.1,0.4,0.1,0.6l0,0c0,0.2-0.1,0.3-0.2,0.4l0,0c-0.1,0-0.2-0.2-0.2-0.5l0,0h-0.1
		l0,0c0,0.3-0.1,0.5-0.2,0.5l0,0c-0.1,0-0.2-0.2-0.2-0.5l0,0h-0.1l0,0c0,0.3-0.1,0.5-0.2,0.5l0,0c-0.1,0-0.2-0.2-0.2-0.5l0,0h-0.1
		l0,0c0,0.3-0.1,0.5-0.2,0.5l0,0c0,0-0.1-0.2-0.2-0.3c0-0.1,0.1-0.3,0.1-0.3c0-0.2,0.1-0.3,0.1-0.3l0,0l0,0c0-0.1,0-0.2-0.1-0.3
		C100.5,127.4,100.4,127.3,100.3,127.3z"/>
	<path class="st13" d="M100.5,128.8c0,0.2-0.1,0.4-0.2,0.4l-0.1-0.1c0.1-0.2,0.1-0.4,0.1-0.5C100.4,128.7,100.5,128.7,100.5,128.8z"
		/>
	<path class="st13" d="M97.6,128.2h2.7c0,0.1,0,0.1,0,0.2l0,0l0,0l0,0c0,0,0,0.1,0,0.2C99.6,128.5,97.6,128.3,97.6,128.2L97.6,128.2
		z"/>
	<polygon class="st13" points="97.5,128.6 98.1,129.9 98.1,129.9 96.9,129.9 	"/>
	<path class="st13" d="M96.4,129.4c0.2,0.1,0.4,0.1,0.5,0.1l-0.2,0.4C96.5,129.8,96.4,129.6,96.4,129.4
		C96.3,129.3,96.3,129.4,96.4,129.4z"/>
	<path class="st13" d="M95.9,128.7c0.4,0.1,0.8,0.2,1.3,0.3l-0.2,0.4c-0.2,0-0.4,0-0.6-0.1C96,129.1,95.9,128.8,95.9,128.7z"/>
	<path class="st13" d="M92.6,126.3c1.1,1.1,3,2.1,4.8,2.2l-0.1,0.3c-2.3-0.3-4-1.5-4.5-2C92.5,126.6,92.5,126.4,92.6,126.3z"/>
	<path class="st13" d="M92.8,127c0.5,0.4,1.5,1.2,3,1.6c0,0.1,0,0.3,0.2,0.5c-0.9-0.1-2.2-0.6-2.9-1.2
		C92.7,127.6,92.7,127.2,92.8,127z"/>
	<path class="st13" d="M93.1,128.2c0.8,0.6,2.1,1,3,1.1c0,0.2,0.1,0.3,0.2,0.5c-0.8,0.1-1.9-0.1-2.7-0.6
		C93.1,128.8,93.1,128.4,93.1,128.2z"/>
	<path class="st13" d="M94.5,130.3c-0.4-0.2-0.7-0.4-0.7-0.8c0.8,0.5,1.9,0.5,2.7,0.4c0.1,0,0.1,0.1,0.2,0.1c0,0,0.1,0.2,0.2,0.3
		C96.6,130.4,95.5,130.7,94.5,130.3z"/>
	<path class="st13" d="M96,131.1c-0.5,0-0.9-0.2-1-0.5c1,0.2,1.9-0.1,2.1-0.2c0.1,0.1,0.2,0.1,0.3,0.1c0,0,0,0.1,0.1,0.2
		C97.3,130.8,96.7,131.1,96,131.1z"/>
	<path class="st13" d="M96.1,131.3c0.7,0,1.3-0.3,1.5-0.5c0.1,0.1,0.3,0.1,0.5,0.1l0.1,0.1c-0.2,0.2-0.6,0.5-1.1,0.6
		C96.6,131.7,96.3,131.6,96.1,131.3z"/>
	<path class="st13" d="M97.4,132c-0.2,0-0.3-0.1-0.4-0.2c0.7-0.1,1.1-0.5,1.3-0.7c0.1,0.1,0.3,0.1,0.4,0.1c0,0,0.1,0,0.1,0.1
		C98.7,131.4,98.2,132.1,97.4,132z"/>
	<path class="st13" d="M98,132.1c0.5-0.2,0.9-0.7,1-0.8c0.1,0,0.2,0,0.4-0.1c0,0.1,0,0.2,0,0.2c-0.2,0-0.3,0.1-0.4,0.3
		c-0.2,0.3-0.3,0.4-0.6,0.5l0,0C98.2,132.2,98.1,132.1,98,132.1z"/>
	<path class="st13" d="M98.1,133.3c-0.2-0.3-0.2-0.4-0.1-0.6c0-0.1,0.1-0.3,0.4-0.4c0.1,0,0.2-0.1,0.3-0.1c0.2,0.1,0.8,0.5,1.3,0.9
		c0,0.1-0.1,0.1-0.1,0.2l-1.3-0.4h-0.1v0.1l1.3,0.4c0,0.1,0,0.1,0,0.2c-0.6,0-1.3,0-1.5,0C98.2,133.4,98.2,133.4,98.1,133.3z"/>
	<path class="st13" d="M98.5,134.5c-0.1-0.1-0.2-0.2-0.2-0.4s0-0.3,0-0.5c0.3,0,0.9,0,1.5,0v0.1v0.1l-0.9,0.1l0,0c0,0,0,0,0,0.1l0,0
		l0,0l0,0l0.9-0.2c0,0.1,0,0.1,0,0.2l-0.9,0.3C98.8,134.5,98.6,134.5,98.5,134.5z"/>
	<path class="st13" d="M98.7,135.3c-0.1-0.1-0.1-0.3-0.1-0.4c0-0.1,0.2-0.2,0.3-0.3l0.9-0.3c0,0.1,0.1,0.1,0.1,0.2l-0.8,0.4l0,0l0,0
		c0,0,0,0,0,0.1l0,0c0,0,0,0,0.1,0l0.8-0.4c0,0.1,0.1,0.1,0.1,0.2c-0.5,0.4-1,0.7-1.2,0.9C98.9,135.6,98.8,135.5,98.7,135.3z"/>
	<path class="st13" d="M100.1,136.7c-0.1,0-0.2,0-0.3,0.1c-0.3,0.1-0.5,0-0.6-0.1s-0.2-0.2-0.2-0.5c0-0.1,0-0.2,0-0.3
		c0.2-0.1,0.7-0.6,1.2-0.9l0.1,0.1l-0.8,1.1v0.1h0.1l0.8-1.1c0.1,0,0.1,0.1,0.2,0.1C100.4,135.8,100.2,136.4,100.1,136.7z"/>
	<path class="st13" d="M101.3,136.4c0,0.1-0.1,0.3-0.2,0.4c-0.1,0.1-0.2,0.1-0.4,0.1c-0.2-0.1-0.3-0.1-0.4-0.1
		c0.1-0.2,0.3-0.8,0.5-1.4c0.1,0,0.1,0.1,0.2,0.1l-0.2,0.9l0,0l0,0c0,0,0,0,0.1,0l0,0l0,0l0.1-0.9c0.1,0,0.1,0,0.2,0L101.3,136.4z"
		/>
	<path class="st13" d="M101.4,130.8C101.3,130.8,101.3,130.9,101.4,130.8l-0.1,1.4c-0.1,0-0.1,0-0.2,0c-0.2-0.6-0.4-1.2-0.4-1.5
		c0.1-0.1,0.1-0.1,0.2-0.2c0.2-0.3,0.4-0.3,0.5-0.3s0.3,0,0.5,0.3c0.1,0.1,0.1,0.2,0.2,0.2c-0.1,0.2-0.3,0.9-0.4,1.5
		c-0.1,0-0.1,0-0.2,0L101.4,130.8C101.4,130.9,101.4,130.8,101.4,130.8z"/>
	<path class="st13" d="M102,136.8c-0.2,0-0.3,0-0.4-0.1s-0.2-0.2-0.2-0.4v-1c0.1,0,0.1,0,0.2,0l0.1,0.9l0,0l0,0l0,0l0,0l0,0
		l-0.2-0.9c0.1,0,0.1,0,0.2-0.1c0.2,0.6,0.4,1.2,0.5,1.4C102.3,136.7,102.2,136.7,102,136.8z"/>
	<path class="st13" d="M103.7,136.1c0,0.3-0.1,0.4-0.2,0.5s-0.2,0.2-0.6,0.1c-0.1,0-0.2-0.1-0.3-0.1c-0.1-0.2-0.3-0.9-0.5-1.4
		c0.1,0,0.1-0.1,0.2-0.1l0.8,1.1h0.1v-0.1l-0.8-1.1c0.1,0,0.1-0.1,0.1-0.1c0.5,0.4,1,0.8,1.2,0.9C103.7,135.9,103.7,136,103.7,136.1
		z"/>
	<path class="st13" d="M104,135.3c-0.1,0.1-0.2,0.3-0.2,0.4c-0.2-0.2-0.7-0.5-1.2-0.9c0-0.1,0.1-0.1,0.1-0.2l0.8,0.4c0,0,0,0,0.1,0
		l0,0c0,0,0,0,0-0.1l0,0l0,0l-0.8-0.4c0-0.1,0.1-0.1,0.1-0.2l0.9,0.3c0.1,0,0.2,0.1,0.3,0.3C104.1,135.1,104.1,135.2,104,135.3z"/>
	<path class="st13" d="M104.4,134.1c0,0.2-0.1,0.3-0.2,0.4c-0.1,0.1-0.2,0.1-0.4,0l-0.9-0.3c0-0.1,0-0.1,0-0.2l0.9,0.2l0,0l0,0l0,0
		c0,0,0,0,0-0.1l0,0l-0.9-0.1v-0.1v-0.1c0.6,0,1.2,0,1.5,0C104.4,133.8,104.4,133.9,104.4,134.1z"/>
	<path class="st13" d="M104.6,133.3c-0.1,0.1-0.1,0.2-0.1,0.2c-0.2,0-0.9,0-1.5,0c0-0.1,0-0.1,0-0.2l1.3-0.4c0,0,0.1-0.1,0-0.1
		c0,0-0.1-0.1-0.1,0l-1.3,0.4c0-0.1-0.1-0.1-0.1-0.2c0.5-0.3,1.1-0.7,1.3-0.9c0.1,0,0.2,0.1,0.3,0.1c0.3,0.1,0.4,0.2,0.4,0.4
		C104.8,132.8,104.8,133,104.6,133.3z"/>
	<path class="st13" d="M104.3,132.2L104.3,132.2c-0.3-0.1-0.4-0.2-0.6-0.5c-0.1-0.1-0.2-0.2-0.4-0.3c0-0.1,0-0.2,0-0.2
		c0.1,0.1,0.3,0.1,0.4,0.1c0.1,0.2,0.5,0.7,1,0.8C104.6,132.1,104.5,132.2,104.3,132.2z"/>
	<path class="st13" d="M105.3,132c-0.8,0.1-1.3-0.6-1.5-0.8c0.1,0,0.1,0,0.1-0.1c0.2,0,0.3,0,0.4-0.1c0.2,0.2,0.6,0.6,1.3,0.7
		C105.6,131.9,105.5,131.9,105.3,132z"/>
	<path class="st13" d="M105.7,131.6c-0.6-0.1-1-0.4-1.1-0.6l0.1-0.1c0.2,0,0.4,0,0.5-0.1c0.2,0.1,0.8,0.4,1.5,0.5
		C106.4,131.6,106.1,131.7,105.7,131.6z"/>
	<path class="st13" d="M106.7,131.1c-0.7,0-1.4-0.3-1.5-0.4c0.1-0.1,0.1-0.2,0.1-0.2c0.1,0,0.3-0.1,0.3-0.1c0.1,0,1,0.4,2.1,0.2
		C107.6,130.9,107.3,131.1,106.7,131.1z"/>
	<path class="st13" d="M108.2,130.3c-1,0.4-2,0.1-2.3,0c0.1-0.1,0.2-0.3,0.2-0.3c0.1,0,0.1-0.1,0.2-0.1c0.8,0.1,1.8,0,2.7-0.4
		C108.9,129.8,108.6,130.1,108.2,130.3z"/>
	<path class="st13" d="M108.9,129.8"/>
	<path class="st13" d="M109.1,129.2c-0.8,0.5-1.9,0.7-2.7,0.6c0.1-0.1,0.2-0.3,0.2-0.5c0.9-0.1,2.2-0.5,3-1.1
		C109.6,128.4,109.6,128.8,109.1,129.2z"/>
	<path class="st13" d="M109.6,128c-0.7,0.6-2,1.1-2.9,1.2c0.2-0.2,0.2-0.4,0.2-0.5c1.4-0.4,2.5-1.2,3-1.6
		C110,127.2,110,127.6,109.6,128z"/>
	<path class="st13" d="M110,126.8c-0.5,0.5-2.2,1.7-4.5,2l-0.1-0.3c1.8-0.1,3.7-1.1,4.8-2.2C110.2,126.4,110.2,126.6,110,126.8z"/>
	<path class="st13" d="M100.8,126.3"/>
	<path class="st13" d="M100.8,126.3"/>
	<path class="st1" d="M98.8,138.3c0,0.5,0.4,0.9,0.9,0.9s0.9-0.4,0.9-0.9s-0.4-0.9-0.9-0.9C99.2,137.4,98.8,137.8,98.8,138.3z
		 M99.2,138.3c0-0.3,0.2-0.5,0.5-0.5s0.5,0.2,0.5,0.5s-0.2,0.5-0.5,0.5C99.4,138.8,99.2,138.6,99.2,138.3z"/>
	<path class="st1" d="M102.5,138.3c0,0.5,0.4,0.9,0.9,0.9c0.3,0,0.5-0.1,0.7-0.3l-0.3-0.2c-0.1,0.1-0.2,0.2-0.4,0.2
		c-0.3,0-0.5-0.2-0.5-0.5s0.2-0.5,0.5-0.5c0.1,0,0.3,0.1,0.4,0.2l0.3-0.3c-0.2-0.2-0.4-0.3-0.7-0.3
		C102.9,137.4,102.5,137.8,102.5,138.3z"/>
	<path class="st1" d="M97.7,137.5h-0.2v1.7h0.4c0,0,0-0.3,0-0.4c0.1,0,0.2,0,0.2,0c0.4,0,0.6-0.3,0.6-0.6c0-0.4-0.3-0.6-0.6-0.6
		L97.7,137.5L97.7,137.5z M98.1,137.8c0.1,0,0.3,0.1,0.3,0.3c0,0.1-0.1,0.3-0.3,0.3c0,0-0.1,0-0.2,0c0-0.3,0-0.4,0-0.5
		C98,137.8,98.1,137.8,98.1,137.8z"/>
	<path class="st1" d="M100.8,137.5v1.7h0.9v-0.4c0,0-0.3,0-0.5,0c0-0.3,0-1.3,0-1.3H100.8z"/>
	<rect x="102" y="137.5" class="st1" width="0.4" height="1.7"/>
	<path class="st1" d="M104.6,138.8v-0.3h0.6v-0.4h-0.6v-0.3c0.2,0,0.6,0,0.6,0v-0.4h-1v1.8h1v-0.4
		C105.3,138.8,104.9,138.8,104.6,138.8z"/>
	<path class="st1" d="M96.2,133.4c0,0,0-0.1-0.1-0.1h-0.9v0.3h0.7c0,0,0,0.4-0.7,0.6l0.1,0.3C95.1,134.4,96.1,134.3,96.2,133.4z
		 M96.6,133.3v0.1h-0.3v0.3h0.3v0.2h-0.3v0.3h0.3v0.2h0.3v-1.1H96.6z M96.2,134.3c-0.4,0-0.7,0.3-0.7,0.7s0.3,0.7,0.7,0.7
		c0.4,0,0.7-0.3,0.7-0.7S96.6,134.3,96.2,134.3z M96.2,135.3c-0.2,0-0.4-0.2-0.4-0.4s0.2-0.4,0.4-0.4c0.2,0,0.4,0.2,0.4,0.4
		S96.4,135.3,96.2,135.3z"/>
	<path class="st1" d="M106.5,133.9c0,0,0.2,0.3,0.6,0.4l0.1-0.2c0,0-0.3-0.1-0.5-0.5h0.4v-0.3h-0.5v-0.1h-0.3v0.1h-0.5v0.3h0.4
		c0,0.1-0.2,0.3-0.5,0.5l0.2,0.2C105.9,134.3,106.3,134.2,106.5,133.9z M107.6,133.6v-0.3h-0.3v1h0.3v-0.4h0.3v-0.3H107.6z
		 M106.4,135.1h1.2v-0.7H106v0.3h1.2v0.1H106v0.5c0,0.2,0.2,0.1,0.2,0.1h1.4v-0.3L106.4,135.1L106.4,135.1z"/>
</g>
</svg>
