<?xml version="1.0" encoding="utf-8"?>
<!-- Generator: Adobe Illustrator 24.1.1, SVG Export Plug-In . SVG Version: 6.00 Build 0)  -->
<svg version="1.1" id="Layer_1" xmlns="http://www.w3.org/2000/svg" xmlns:xlink="http://www.w3.org/1999/xlink" x="0px" y="0px"
	 viewBox="0 0 180 240" style="enable-background:new 0 0 180 240;" xml:space="preserve">
<g>
	<path style="fill:#FFFFFF;" d="M170.75,82.14c-0.78,3.49-12.11,21.25-27.24,23.97c-0.9-3.37-3.64-11.9-8.56-13.29
		c1.89-3.41,5.37-8.96,8.32-10.96c0.35-0.24,0.58-0.65,0.58-1.08c0.01-0.44-0.17-0.84-0.52-1.11c-0.19-0.13-4.62-3.51-9.3-5.34
		c-2.18-0.86-3.59-0.32-4.38,0.3c-2.27,1.7-2.11,5.82-2.03,6.86c-0.79,4.85-2.86,30.4-2.96,31.49c-0.01,0.25,0.03,0.51,0.15,0.74
		c9.19,17.6,7.64,39.14,5.26,49.07c-2,8.44-6.46,11.48-7.81,11.8c-1.59-4.3-20.32-8.26-28.04-8.98c-11.45-1.06-15.42,2.9-19.41,8.21
		c-3.35,4.43-10.37,6.97-13.95,6.13c-1.27-0.31-1.53-1.56-2.03-6.72c-0.36-3.81-0.87-9.04-2.51-16.3
		c-3.67-16.3,3.19-35.12,3.25-35.31c0.04-0.11,0.05-0.22,0.07-0.32c0.03-0.15,1.64-15.28,0-29.1c-1.27-10.74-0.01-20.7,0-20.79
		c0.07-0.54-0.17-1.05-0.63-1.33c-0.22-0.12-0.46-0.19-0.7-0.19c-0.27,0-0.54,0.08-0.76,0.23c-6.53,4.5-28.57,4.32-37.56,2.5
		c-6.37-1.3-7.52-18.77-8.09-27.15c-0.12-1.97-0.23-3.55-0.36-4.61c-0.7-5.48,2.77-11.8,2.78-11.82c0,0,0.23-0.36,0.66-0.83
		c3.63,1.68,9.96,2.21,13.93,2.38c2.72,2.8,5.94,7.72,6.67,15.64c0.04,0.44,0.27,0.83,0.62,1.11c0.67,0.52,1.95,0.92,9.21-0.23
		l0.3-0.04c2.82-0.41,6.12-1.02,9.17-2.43c0.84-0.39,1.65-0.83,2.43-1.25c1.73-0.95,3.37-1.86,5.29-2.08
		c5.98-0.73,12.23,0.08,17.15,0.92c1.06,2.29,4.84,9.18,11.55,9.35c5.66,0.16,15.03,0.41,17.44-8.96c2.05-0.55,8.71-1.92,19.02-0.25
		c11.91,1.92,20.31,11.58,24.82,16.76l0.74,0.83c0.9,1.03,2.18,2.4,3.63,3.97C161.22,68.54,171.37,79.39,170.75,82.14z"/>
	<path style="fill:#FFFFFF;" d="M29.54,20.75l-0.15,7.16c-7.75-0.23-14.53-1.75-14.81-3.39c-0.55-3.08,1.67-8.1,2.85-9.3
		C18.94,16.54,23.93,20.5,29.54,20.75z"/>
	<path style="fill:#CCCCCC;" d="M31.84,18.41c-0.27-0.25-0.65-0.39-1.02-0.36c-5.98,0.46-11.92-5.12-11.98-5.18
		c-0.03-0.01-0.04-0.04-0.07-0.05c-0.67-0.57-1.57-0.62-2.4-0.13C14,14.06,11.21,20.9,11.93,25c0.89,5.05,14.58,5.59,18.76,5.63
		c0.74,0,1.33-0.59,1.35-1.32l0.22-9.89C32.27,19.05,32.11,18.68,31.84,18.41z M17.44,15.23c1.51,1.32,6.49,5.27,12.1,5.53
		l-0.15,7.16c-7.75-0.23-14.53-1.75-14.81-3.39C14.03,21.45,16.26,16.43,17.44,15.23z"/>
	<path style="fill:#CCCCCC;" d="M93.11,61.79c-0.62,0-1.24-0.01-1.89-0.04C71.43,60.94,71.2,43.31,71.2,43.14
		c0-0.74,0.6-1.35,1.35-1.35c0.74,0,1.35,0.6,1.35,1.35c0,0.66,0.29,15.23,17.44,15.94c16.44,0.67,21.99-8.17,23.85-13.5
		c0.25-0.7,1-1.07,1.71-0.83c0.7,0.25,1.07,1.01,0.83,1.71C115.7,52.27,109.82,61.79,93.11,61.79z M73.89,43.13h0.01H73.89z"/>
	<path style="fill:#CCCCCC;" d="M158.86,62.06c-1.44-1.53-2.69-2.88-3.57-3.89l-0.73-0.83c-4.73-5.45-13.56-15.58-26.43-17.66
		c-13.25-2.14-20.73,0.47-21.05,0.58c-0.43,0.16-0.76,0.54-0.86,1c-1.51,7.39-7.64,7.82-14.9,7.64c-6.1-0.17-9.39-8.29-9.43-8.37
		c-0.16-0.43-0.55-0.75-1-0.83c-5.21-0.92-12.04-1.86-18.65-1.05c-2.42,0.28-4.37,1.35-6.25,2.38c-0.74,0.4-1.51,0.82-2.27,1.18
		c-2.73,1.25-5.66,1.8-8.43,2.21l-0.32,0.05c-4.22,0.67-6.05,0.74-6.81,0.71c-0.98-8.63-4.73-13.93-7.74-16.88
		c-0.24-0.24-0.57-0.38-0.9-0.39c-6.69-0.23-11.96-1.16-14.09-2.5c-0.5-0.31-1.16-0.25-1.6,0.13c-1.14,1.02-1.75,1.99-1.83,2.14
		c-0.16,0.28-3.95,7.13-3.13,13.52c0.12,0.98,0.23,2.58,0.35,4.43c0.68,10.43,1.84,27.9,10.24,29.6c8.56,1.72,28.18,2.15,37.27-1.67
		c-0.31,3.72-0.68,11.04,0.25,18.94c1.51,12.75,0.17,26.69,0.01,28.33c-0.74,2.05-6.99,20.22-3.29,36.66
		c1.6,7.08,2.1,12.22,2.46,15.96c0.52,5.35,0.81,8.28,4.08,9.07c0.65,0.16,1.37,0.23,2.14,0.23c4.64,0,11.09-2.73,14.58-7.35
		c3.71-4.94,6.89-8.09,17.01-7.15c11.14,1.03,24.4,5.29,25.71,7.12c0.17,1.08,0.98,1.8,2.13,1.88c3.09,0.2,8.63-4.49,10.88-13.87
		c2.45-10.24,4.05-32.35-5.31-50.6c0.27-3.32,2.22-27.08,2.92-31.05c0.03-0.12,0.03-0.24,0.01-0.36c-0.13-1.46,0.07-3.97,0.95-4.64
		c0.38-0.28,0.97-0.25,1.79,0.07c2.82,1.1,5.63,2.88,7.26,3.97c-4.24,3.97-8.87,12.32-8.87,13.25c0,0.4,0.19,0.78,0.5,1.03
		c0.31,0.25,0.71,0.36,1.11,0.28c4.16-0.79,7.35,9.03,8.16,12.54c0.15,0.68,0.81,1.11,1.48,1.05c17.01-2.14,29.72-21.83,30.7-26.22
		C174.23,78.91,167.61,71.43,158.86,62.06z M143.5,106.09c-0.9-3.37-3.64-11.9-8.56-13.29c1.89-3.41,5.36-8.96,8.31-10.96
		c1.03-0.53,8.85-4.33,14.01-1c0.63,0.4,1.46,0.22,1.86-0.4c0.4-0.63,0.22-1.46-0.4-1.86c-5.83-3.75-13.64-0.59-16.1,0.58
		c-1.43-1.03-4.95-3.41-8.62-4.84c-0.55-0.22-1.05-0.34-1.51-0.41c4.72-7.7,8.26-16.34,8.42-16.74c0.28-0.69-0.05-1.47-0.74-1.75
		c-0.68-0.28-1.47,0.05-1.75,0.74c-0.04,0.11-4.37,10.71-9.69,18.65c-0.22,0.33-0.26,0.71-0.17,1.07c-1.12,1.96-1.03,4.75-0.97,5.58
		c-0.79,4.85-2.86,30.4-2.96,31.49c-0.01,0.25,0.03,0.51,0.15,0.74c9.19,17.6,7.64,39.14,5.26,49.07c-2,8.44-6.46,11.48-7.81,11.8
		c-1.59-4.3-20.32-8.26-28.04-8.98c-11.45-1.06-15.42,2.9-19.41,8.21c-3.35,4.43-10.37,6.97-13.95,6.13
		c-1.27-0.31-1.53-1.56-2.03-6.72c-0.36-3.81-0.87-9.04-2.51-16.3c-3.67-16.3,3.19-35.12,3.25-35.31c0.04-0.11,0.05-0.22,0.07-0.32
		c0.03-0.15,1.64-15.28,0-29.1c-1.27-10.74-0.01-20.7,0-20.79c0.01-0.14,0.01-0.28-0.01-0.41c-0.01-0.02-0.01-0.04-0.02-0.07
		c-0.03-0.14-0.09-0.27-0.16-0.39c-0.01-0.01-0.01-0.04-0.02-0.05c-2.64-3.98-4.43-11.62-4.45-11.7c-0.17-0.72-0.89-1.17-1.61-1
		s-1.17,0.89-1,1.61c0.07,0.31,1.61,6.87,4.09,11.36c-7.6,3.84-27.93,3.6-36.48,1.87c-6.36-1.3-7.51-18.77-8.07-27.15
		c-0.12-1.97-0.23-3.55-0.36-4.61c-0.7-5.48,2.77-11.8,2.78-11.82c0,0,0.23-0.36,0.66-0.83c3.63,1.68,9.96,2.21,13.93,2.38
		c2.58,2.66,5.61,7.28,6.52,14.55c-2.89,1.02-6.93,3.81-7.12,9.28c-0.03,0.74,0.55,1.36,1.3,1.39c0.01,0,0.03,0,0.05,0
		c0.72,0,1.32-0.58,1.34-1.3c0.17-4.72,4.08-6.44,5.61-6.92c0.84,0.37,2.73,0.5,8.8-0.47l0.3-0.04c2.82-0.41,6.12-1.02,9.17-2.43
		c0.84-0.39,1.65-0.83,2.43-1.25c1.73-0.95,3.37-1.86,5.29-2.08c5.98-0.73,12.23,0.08,17.15,0.92c1.06,2.29,4.84,9.18,11.55,9.35
		c5.66,0.16,15.03,0.41,17.44-8.96c2.05-0.55,8.71-1.92,19.02-0.25c11.91,1.92,20.31,11.58,24.82,16.76l0.74,0.83
		c0.9,1.03,2.18,2.4,3.63,3.97c4.32,4.64,14.47,15.48,13.85,18.22C169.97,85.63,158.64,103.38,143.5,106.09z"/>
	<path style="fill:#FFFFFF;" d="M141.02,107.21c-1.6,1.68-3.41,3.43-4.56,4.34c-0.09-0.4-0.22-0.84-0.31-1.27
		c-0.43-1.79-1.02-4.24-2.03-6.46c-1-2.22-2.53-4.08-3.64-5.46c-0.46-0.57-1.03-1.27-1.21-1.6c0.2-0.46,1.88-1.18,3.65-1.4
		c0.04,0,0.07-0.01,0.11-0.01C136.97,94.61,140.01,103.26,141.02,107.21z"/>
	<path style="fill:#CCCCCC;" d="M143.82,107.3c-0.38-1.64-3.8-15.96-11.25-14.6c-1.11,0.13-6.04,0.92-5.99,4.18
		c0,0.94,0.68,1.79,1.83,3.19c1.08,1.32,2.42,2.97,3.28,4.86c0.9,1.99,1.44,4.21,1.87,5.98c0.52,2.21,0.76,3.21,1.62,3.68
		c0.24,0.13,0.5,0.2,0.75,0.2c0.16,0,0.32-0.03,0.48-0.08c1.68-0.57,5.51-4.51,7.08-6.2C143.79,108.21,143.91,107.75,143.82,107.3z
		 M136.47,111.55c-0.09-0.4-0.22-0.84-0.31-1.27c-0.43-1.79-1.02-4.24-2.03-6.46c-1-2.22-2.53-4.08-3.64-5.46
		c-0.46-0.57-1.03-1.27-1.21-1.6c0.2-0.46,1.88-1.18,3.65-1.4c0.04,0,0.07-0.01,0.11-0.01c3.94-0.75,6.97,7.91,7.99,11.85
		C139.42,108.89,137.61,110.64,136.47,111.55z"/>
</g>
</svg>
