<?xml version="1.0" encoding="utf-8"?>
<!-- Generator: Adobe Illustrator 24.1.1, SVG Export Plug-In . SVG Version: 6.00 Build 0)  -->
<svg version="1.1" id="Layer_1" xmlns="http://www.w3.org/2000/svg" xmlns:xlink="http://www.w3.org/1999/xlink" x="0px" y="0px"
	 viewBox="0 0 240 240" style="enable-background:new 0 0 240 240;" xml:space="preserve">
<g>
	<path style="fill:#FFFFFF;" d="M97.48,131.87c4.78,4,10.21,6.64,15.98,9.54c2.55,1.29,11.9,5.79,7.21,9.85
		c-1.7,1.47-4.98,0.79-6.99,0.56c-4.38-0.5-8.62-1.65-12.6-3.34c-4.46-1.9-8.54-4.47-12.26-7.5
		C91.51,138.97,94.8,135.91,97.48,131.87z"/>
	<path style="fill:#0085C9;" d="M85.11,113.97c0.03,0.07,0.05,0.15,0.08,0.22c0.71,1.95,1.49,3.72,2.35,5.38
		c1.23,2.38,2.65,4.54,4.37,6.64c0.85,1.04,1.77,2.06,2.77,3.09c0.9,0.92,1.84,1.75,2.79,2.55c-2.68,4.05-5.96,7.1-8.66,9.11
		c-1.8-1.46-3.51-3.02-5.12-4.68c-4.6-4.72-9.54-10.47-11.82-16.81c-1.11-3.09-0.6-6.78,1.78-9.4c0.5-0.55,1.03-1.03,1.55-1.4
		c1.89-1.37,4.36-2,6.38-0.92c0.4,0.21,0.73,0.49,1.02,0.79C84,109.95,84.43,112.13,85.11,113.97z"/>
	<path d="M79.34,107.22c0.78,0,1.54,0.17,2.25,0.55c0.4,0.21,0.73,0.49,1.02,0.79c1.39,1.4,1.81,3.58,2.5,5.42
		c0.03,0.07,0.05,0.15,0.08,0.22c0.71,1.95,1.49,3.72,2.35,5.38c1.23,2.38,2.65,4.54,4.37,6.64c0.85,1.04,1.77,2.06,2.77,3.09
		c0.9,0.92,1.84,1.75,2.79,2.55c4.78,4,10.21,6.64,15.98,9.54c2.55,1.29,11.9,5.79,7.21,9.85c-0.82,0.71-2.01,0.92-3.25,0.92
		c-1.32,0-2.7-0.24-3.74-0.36c-4.38-0.5-8.62-1.65-12.6-3.34c-4.46-1.9-8.54-4.47-12.26-7.5c-1.8-1.46-3.51-3.02-5.12-4.68
		c-4.6-4.72-9.54-10.47-11.82-16.81c-1.11-3.09-0.6-6.78,1.78-9.4c0.5-0.55,1.03-1.03,1.55-1.4
		C76.44,107.8,77.91,107.22,79.34,107.22 M79.34,104.68c-1.89,0-3.89,0.69-5.62,1.95c-0.67,0.48-1.34,1.09-1.94,1.75
		c-2.91,3.21-3.79,7.79-2.29,11.96c2.52,7.02,7.94,13.16,12.39,17.72c1.65,1.69,3.44,3.33,5.34,4.88c4.06,3.31,8.39,5.95,12.86,7.86
		c4.27,1.82,8.74,3.01,13.31,3.53c0.24,0.03,0.5,0.06,0.78,0.1c0.93,0.12,2.09,0.28,3.25,0.28c2.11,0,3.71-0.5,4.91-1.54
		c2.06-1.78,2.3-3.68,2.14-4.96c-0.48-3.88-5.14-6.71-9.64-8.97l-0.23-0.11l-0.95-0.48c-5.27-2.65-10.25-5.15-14.54-8.74
		c-1.05-0.88-1.87-1.63-2.6-2.38c-0.97-0.99-1.83-1.95-2.63-2.93c-1.6-1.96-2.94-3.99-4.08-6.2c-0.84-1.62-1.57-3.29-2.22-5.08
		l-0.09-0.24c-0.15-0.4-0.28-0.81-0.42-1.23c-0.55-1.69-1.17-3.6-2.66-5.1c-0.53-0.53-1.05-0.93-1.62-1.24
		C81.73,104.96,80.58,104.68,79.34,104.68L79.34,104.68z"/>
</g>
<g>
	<path d="M103.69,190.84c5.18,0,11.86,0.84,19.41,1.43c1.53,4.01-3.8,8.32-3.03,12.4c-3.69-0.26-9.54-2.17-13.51-2.17
		c-1.09,0-2.04,0.14-2.77,0.5c-0.17,1.52-0.55,8.75-0.53,9.51c0.08,3.13,0.56,6.21,0.99,9.3c0.44,3.09,0.83,6.18,0.73,9.31
		c-0.07,2.36-3.8,4.18-6.22,4.18c-0.05,0-0.1,0-0.14,0l-3-0.09l-13.87-0.43c-4.12-0.13-9.11,0.3-12.06-3.3
		c-2.01-2.45-1.29-7.22,0.12-9.79c2.6-4.74,7.3-8.15,12.62-9.13c0,0,0.24-0.05,0.29-0.06c1.17-0.19,2.21-0.27,3.13-0.27
		c2.92,0,4.64,0.82,5.8,1.53c-1.72-5.84-0.52-16.17,1.49-19.22c0,0,0.05-0.01,0.07-0.01C94.76,191.7,98.46,190.84,103.69,190.84
		 M103.69,188.3c-4.47,0-9.87,0.53-12.42,4.55c-0.09,0.1-0.17,0.2-0.24,0.31c-1.94,2.93-3.17,10.46-2.62,16.75
		c-0.76-0.12-1.61-0.2-2.55-0.2c-1.1,0-2.29,0.1-3.54,0.31c-0.03,0-0.06,0.01-0.08,0.02l-0.3,0.06c-6.01,1.11-11.39,5-14.35,10.4
		c-1.7,3.1-2.77,9.06,0.14,12.62c3.34,4.07,8.39,4.14,12.45,4.2c0.51,0.01,1.01,0.01,1.49,0.03l13.87,0.43l3,0.09l0.22,0
		c3.49,0,8.64-2.59,8.76-6.64c0.1-3.33-0.3-6.51-0.75-9.74l-0.13-0.91c-0.4-2.79-0.77-5.43-0.84-8.1c-0.01-0.58,0.21-4.82,0.38-7.4
		c0.12-0.01,0.24-0.01,0.38-0.01c1.96,0,4.62,0.57,7.19,1.11c2.23,0.48,4.34,0.92,6.15,1.05c0.06,0,0.12,0.01,0.18,0.01
		c0.72,0,1.41-0.31,1.9-0.85c0.52-0.59,0.74-1.39,0.6-2.16c-0.2-1.08,0.61-2.7,1.39-4.26c1.21-2.41,2.72-5.41,1.51-8.57
		c-0.35-0.92-1.2-1.55-2.18-1.63c-2.41-0.19-4.73-0.4-6.94-0.61C111.52,188.69,107.33,188.3,103.69,188.3L103.69,188.3z"/>
	<path style="fill:#FFFFFF;" d="M120.08,204.68c-4.69-0.34-12.89-3.35-16.27-1.68c0.02-0.19,0.03-0.29,0.05-0.29
		c0,0-0.66-2.84-4.3-5.84c-3.3-2.74-5.93-2.4-6.35-2.34c3.05-5.67,14.73-3.45,29.9-2.27C124.63,196.28,119.3,200.6,120.08,204.68z"
		/>
	<path style="fill-rule:evenodd;clip-rule:evenodd;fill:#00A2F6;" d="M104.99,231.13c-0.08,2.42-3.96,4.25-6.37,4.18l-3-0.1
		l-13.87-0.42c-4.13-0.12-9.11,0.3-12.06-3.3c-2.02-2.46-1.29-7.21,0.12-9.79c2.59-4.74,7.3-8.14,12.62-9.13
		c0,0,0.24-0.05,0.29-0.05c4.91-0.8,7.42,0.32,8.92,1.25c-1.71-5.84-0.51-16.17,1.49-19.22c0,0,0.02,0,0.05-0.02c0,0,0,0,0.02,0
		c0.42-0.07,3.05-0.41,6.35,2.34c3.64,3,4.3,5.84,4.3,5.84c-0.02,0-0.03,0.1-0.05,0.29c-0.19,1.49-0.56,8.74-0.54,9.52
		c0.08,3.12,0.56,6.21,1,9.3C104.68,224.9,105.07,228,104.99,231.13z"/>
</g>
<g>
	<path style="fill:none;" d="M188.96,206.02v0.07l1.68-2.03L188.96,206.02z M191.4,218.18c-3.12,3.2-6.89,6.11-10.23,7.69
		C184.51,224.29,188.3,221.4,191.4,218.18z M178.43,214.49h-0.02 M177.06,227.05c0.14-0.32,0.88-2.25,1.07-6.52
		c0.19-4.1,0.27-5.64,0.29-5.98 M181.17,225.87c3.34-1.57,7.11-4.49,10.23-7.69v-0.02"/>
	<path d="M218.2,212.15c-0.37-0.51-0.78-1.05-1.19-1.63c-0.07-0.1-0.14-0.19-0.22-0.29l-8.25-8.96l-2.44-2.68
		c-1.39-1.88-4.49-3.83-7.65-3.83c-1.73,0-3.28,0.56-4.54,1.63c-0.1,0.08-0.19,0.17-0.27,0.27c-3.78,4.39-4.69,5.45-4.96,5.76
		l-1.68,2.03c-0.95,1.12-1.2,1.42-1.35,1.64c-1.19,1.79-3.47,4.18-6.05,5.71c-1.3-2.18-1.71-3.84-2.15-5.74
		c-0.69-2.86-1.47-6.11-5.27-11.13c-0.46-0.61-1.17-0.97-1.91-1h-0.12c-0.71,0-1.41,0.3-1.88,0.85c-0.71,0.8-2.46,1.12-4.11,1.42
		c-2.62,0.47-5.88,1.07-7.65,3.95c-0.51,0.81-0.51,1.86,0,2.68c2.59,4.17,4.57,8.31,6.32,11.97c3.81,7.96,6.84,14.31,13.36,14.73
		c0.25,0.07,0.53,0.1,0.8,0.1h0.19c4.3-0.25,9.57-3.76,13.61-7.38c0.86,1.24,1.98,2.51,3.34,3.84l0.27,0.25
		c3.28,3.08,7.42,4.67,12.24,4.67c1.2,0,2.46-0.1,3.76-0.29c3.62-0.54,9.57-4.1,10.62-8.47
		C222.18,217.42,220.17,214.74,218.2,212.15z M218.54,221.68c-0.74,3.08-5.67,6.13-8.52,6.54c-1.15,0.17-2.3,0.27-3.4,0.27
		c-0.49,0-0.97-0.02-1.44-0.05c0,0,0,0-0.02,0c-0.47-0.03-0.95-0.1-1.41-0.17c-0.47-0.08-0.93-0.19-1.39-0.29
		c-0.44-0.12-0.88-0.25-1.32-0.42c-1.76-0.64-3.42-1.64-4.93-3.08c0,0-0.19-0.15-0.22-0.19c-2.81-2.76-4-4.78-4.5-6.11
		c-3.1,3.22-6.89,6.11-10.23,7.69c-1.51,0.71-2.93,1.17-4.15,1.24c0,0,0-0.02,0.03-0.05c-0.02-0.02,0-0.02,0-0.03h-0.15
		c-4.78,0-7.42-4.35-10.5-10.63c-2.1-4.32-4.4-9.53-7.72-14.88c2.24-3.62,8.75-1.95,11.48-5.01c6.28,8.26,3.45,10.87,7.81,17.48
		l0.44,0.59c0-0.05,0-0.07,0-0.07c-0.02,0.34,1.56,0.05,1.81-0.1c3.06-1.64,5.98-4.5,7.55-6.86c0.1-0.15,0.61-0.76,1.19-1.44v-0.07
		l1.68-1.96l0.07-0.07c0.02-0.02,0.02-0.03,0.02-0.03l0.39-0.44l0.69-0.8l3.78-4.39c2.54-2.17,6.43-0.46,8.13,1.34
		c0.17,0.19,0.3,0.36,0.42,0.52l2.56,2.79l8.23,8.97C217.24,215.33,219.63,217.16,218.54,221.68z"/>
	<g>
		<path style="fill:#FFFFFF;" d="M178.41,214.55c-0.02,0.34-0.1,1.88-0.29,5.98c-0.19,4.27-0.93,6.2-1.07,6.52
			c-0.02-0.02,0-0.02,0-0.03h-0.15c-4.78,0-7.42-4.35-10.5-10.63c-2.1-4.32-4.4-9.53-7.72-14.88c2.24-3.62,8.75-1.95,11.48-5.01
			c6.28,8.26,3.45,10.87,7.81,17.48L178.41,214.55z"/>
		<path style="fill-rule:evenodd;clip-rule:evenodd;fill:#00A2F6;" d="M218.54,221.68c-0.74,3.08-5.67,6.13-8.52,6.54
			c-1.15,0.17-2.3,0.27-3.4,0.27c-0.49,0-0.97-0.02-1.44-0.05c0,0,0,0-0.02,0c-0.47-0.05-0.93-0.1-1.41-0.17
			c-0.47-0.08-0.93-0.19-1.39-0.29c-0.44-0.14-0.88-0.27-1.32-0.42c-1.76-0.64-3.42-1.64-4.93-3.08c0,0-0.19-0.15-0.22-0.19
			c-2.81-2.76-4-4.78-4.5-6.11c-3.1,3.22-6.89,6.11-10.23,7.69c-1.51,0.71-2.93,1.17-4.15,1.24c0,0,0-0.02,0.03-0.05
			c0.14-0.32,0.88-2.25,1.07-6.52c0.19-4.1,0.27-5.64,0.29-5.98c0-0.05,0-0.07,0-0.07c-0.02,0.34,1.56,0.05,1.81-0.1
			c3.06-1.64,5.98-4.5,7.55-6.86c0.1-0.15,0.61-0.76,1.19-1.44v-0.07l1.68-1.96c0,0,0.02-0.03,0.07-0.07
			c0.02-0.02,0.02-0.03,0.02-0.03l0.39-0.44l0.69-0.8l3.78-4.39c2.54-2.17,6.43-0.46,8.13,1.34c0.17,0.19,0.3,0.36,0.42,0.52
			l2.56,2.79l8.23,8.97C217.24,215.33,219.63,217.16,218.54,221.68z"/>
	</g>
</g>
<g>
	<g>
		<path d="M232.94,165.99c-0.66-0.73-1.59-1.15-2.59-1.15h-0.17c-0.2,0.02-0.44,0.02-0.66,0.02c-4.83,0-8.36-2.2-12.16-5.35
			c6.69-0.42,9.25-4.35,10.23-7.67c0.52-1.79,0.59-3.49,0.64-4.96c0.05-1.07,0.08-1.98,0.3-3l0.02-0.07
			c0.07-0.1,0.14-0.25,0.24-0.42c0.42-0.86,0.88-1.68,1.34-2.46c1.3-2.29,2.66-4.66,3.2-8.04c0.36-2.1,0.78-4.72-0.08-7.62
			c-0.97-3.29-3.79-7.21-11.75-7.21c-1.44,0-2.69,0.14-3.52,0.22c-3.27,0.32-6.72,1.03-10.28,2.12
			c-5.96,1.79-11.95,5.74-16.49,10.79c-1.51,1.69-2.3,3.42-3.05,5.1l-0.05,0.1c-1.76,0.36-3.27,1.39-4.15,2.29
			c-3.86,3.95-3.89,10.41-3.73,13c-0.34,1.13-0.52,2.34-0.56,3.64c-0.05,1.39,0.07,2.69,0.19,3.96c0.1,1.17,0.19,2.22,0.17,3.2
			c0,0.44-0.08,0.95-0.15,1.49c-0.07,0.39-0.12,0.73-0.15,1.05c-0.76,6.55-1.29,12.97,0.75,19.2c1.37,4.22,2.64,7.1,4.71,8.5
			c0.64,0.44,1.39,0.69,2.29,0.8c0.27,0.03,0.58,0.03,0.88,0.03c0.78,0,1.61-0.08,2.59-0.22c0.22-0.03,0.34-0.05,0.44-0.05
			c2.18-0.17,4.15-0.61,6.06-1.02l0.19-0.05c0.81-0.17,1.64-0.36,2.49-0.51l0.98-0.2c3.62-0.73,4.94-0.91,5.42-0.97
			c0.2,0.03,0.41,0.05,0.63,0.05c0.91,0,1.83-0.37,2.47-1.03c0.64-0.66,1-1.54,1-2.46c-0.02-0.93-0.37-1.81-1.03-2.46
			c-0.02,0-0.02-0.02-0.03-0.02l-1.07-1.05c-3.86-3.78-8.23-8.04-10.23-12.6c-0.1-0.27-0.22-0.54-0.32-0.81
			c3.34,5.77,7.45,10.33,12.29,13.58c4.79,3.2,8.69,4.76,11.94,4.76c2.12,0,3.91-0.64,5.37-1.93c0.81-0.73,1.22-1.78,1.15-2.83
			c2.35-4.03,4.27-9.62,5.1-14.88C233.94,167.82,233.63,166.79,232.94,165.99z M225.96,183.33c0.02,0.07,0.02,0.1,0.05,0.17
			c0.24,0.37,0.15,0.86-0.19,1.17c-0.97,0.86-2.2,1.29-3.67,1.29c-2.69,0-6.21-1.44-10.52-4.33c-5.44-3.62-9.92-9.08-13.33-16.17
			c-0.39-0.8-0.73-1.59-1.05-2.39c-0.64-1.51-1.25-2.95-2.17-4.27c-0.51,0.32-1.05,0.61-1.64,0.85c0.05,4.18,1,8.96,2.47,12.33
			c2.18,5.03,6.74,9.48,10.77,13.41l1.07,1.05c0.02,0,0.02,0.02,0.02,0.02c0.37,0.36,0.37,0.95,0.02,1.32
			c-0.19,0.19-0.42,0.27-0.66,0.27c-0.14,0-0.25-0.02-0.36-0.07h-0.08c-0.68,0-2.73,0.34-6.1,1.03l-0.95,0.19
			c-0.93,0.17-1.85,0.37-2.74,0.58c-1.83,0.39-3.73,0.81-5.72,0.97c-0.15,0.02-0.36,0.05-0.59,0.08c-0.81,0.1-1.57,0.19-2.25,0.19
			c-0.2,0-0.41,0-0.61-0.02c-0.44-0.05-0.83-0.17-1.13-0.37c-1.56-1.05-2.71-4.08-3.73-7.18c-1.86-5.76-1.35-11.87-0.63-18.14
			c0.03-0.3,0.08-0.61,0.14-0.93c0.08-0.61,0.17-1.24,0.19-1.85c0.02-1.12-0.07-2.22-0.19-3.4c-0.1-1.22-0.2-2.47-0.17-3.74
			s0.22-2.35,0.58-3.4c-0.32-3.79,0.27-8.75,3-11.55c0.73-0.75,2.2-1.66,3.67-1.66c0.1,0,0.2,0,0.32,0.02
			c0.07-0.14,0.14-0.27,0.19-0.39c0.17-0.36,0.34-0.71,0.49-1.07c0.71-1.56,1.37-3.05,2.64-4.45c4.22-4.71,9.8-8.38,15.32-10.04
			c3.42-1.03,6.71-1.73,9.79-2.03c0.8-0.08,1.96-0.2,3.28-0.2c3.49,0,7.98,0.83,9.31,5.38c0.69,2.35,0.34,4.56,0.02,6.5
			c-0.47,2.93-1.64,5-2.9,7.18c-0.47,0.83-0.95,1.68-1.41,2.59c-0.19,0.34-0.29,0.49-0.34,0.59c-0.03,0.07-0.05,0.2-0.12,0.49
			c-0.27,1.22-0.32,2.29-0.36,3.42c-0.07,1.41-0.12,2.86-0.56,4.37c-1.34,4.56-4.86,5.89-9.01,5.89c-2.18,0-4.52-0.37-6.82-0.83
			c0.95,0.64,1.86,1.35,2.76,2.12l0.37,0.34c5.33,4.67,9.96,8.75,17.07,8.75c0.25,0,0.53,0,0.8-0.02c0,0,0.02,0,0.03,0
			c0.27,0,0.53,0.12,0.69,0.3c0.19,0.22,0.27,0.49,0.22,0.78C230.43,173.78,228.35,179.57,225.96,183.33z"/>
	</g>
	<path style="fill:#FFE89A;" d="M226.01,183.5c0.24,0.37,0.15,0.86-0.19,1.17c-0.97,0.86-2.2,1.29-3.67,1.29
		c-2.69,0-6.21-1.44-10.52-4.33c-5.44-3.62-9.92-9.08-13.33-16.17c-0.39-0.8-0.73-1.59-1.05-2.39c-0.64-1.51-1.25-2.95-2.17-4.27
		c-0.51,0.32-1.05,0.61-1.64,0.85c0.05,4.18,1,8.96,2.47,12.33c2.18,5.03,6.74,9.48,10.77,13.41l1.07,1.05
		c0.02,0,0.02,0.02,0.02,0.02c0.37,0.36,0.37,0.95,0.02,1.32c-0.19,0.19-0.42,0.27-0.66,0.27c-0.14,0-0.25-0.02-0.36-0.07h-0.08
		c-0.68,0-2.73,0.34-6.1,1.03l-0.95,0.19c-0.93,0.17-1.85,0.37-2.74,0.58c-1.83,0.39-3.73,0.81-5.72,0.97
		c-0.15,0.02-0.36,0.05-0.59,0.08c-0.81,0.1-1.57,0.19-2.25,0.19c-0.2,0-0.41,0-0.61-0.02c-0.44-0.05-0.83-0.17-1.13-0.37
		c-1.56-1.05-2.71-4.08-3.73-7.18c-1.86-5.76-1.35-11.87-0.63-18.14c0.03-0.3,0.08-0.61,0.14-0.93c0.08-0.61,0.17-1.24,0.19-1.85
		c0.02-1.12-0.07-2.22-0.19-3.4c-0.1-1.22-0.2-2.47-0.17-3.74s0.22-2.35,0.58-3.4c-0.32-3.79,0.27-8.75,3-11.55
		c0.73-0.75,2.2-1.66,3.67-1.66c0.1,0,0.2,0,0.32,0.02c0.07-0.14,0.14-0.27,0.19-0.39c0.17-0.36,0.34-0.71,0.49-1.07
		c0.71-1.56,1.37-3.05,2.64-4.45c4.22-4.71,9.8-8.38,15.32-10.04c3.42-1.03,6.71-1.73,9.79-2.03c0.8-0.08,1.96-0.2,3.28-0.2
		c3.49,0,7.98,0.83,9.31,5.38c0.69,2.35,0.34,4.56,0.02,6.5c-0.47,2.93-1.64,5-2.9,7.18c-0.47,0.83-0.95,1.68-1.41,2.59
		c-0.19,0.34-0.29,0.49-0.34,0.59c-0.03,0.07-0.05,0.2-0.12,0.49c-0.27,1.22-0.32,2.29-0.36,3.42c-0.07,1.41-0.12,2.86-0.56,4.37
		c-1.34,4.56-4.86,5.89-9.01,5.89c-2.18,0-4.52-0.37-6.82-0.83c0.95,0.64,1.86,1.35,2.76,2.12l0.37,0.34
		c5.33,4.67,9.96,8.75,17.07,8.75c0.25,0,0.53,0,0.8-0.02c0,0,0.02,0,0.03,0c0.27,0,0.53,0.12,0.69,0.3
		c0.19,0.22,0.27,0.49,0.22,0.78c-0.83,5.32-2.91,11.11-5.3,14.87C225.98,183.4,225.98,183.43,226.01,183.5z"/>
	<path style="fill:#FDCD3A;" d="M225.96,183.33c2.39-3.76,4.47-9.55,5.3-14.87c0.05-0.29-0.03-0.56-0.22-0.78
		c-0.17-0.19-0.42-0.3-0.69-0.3c-0.02,0-0.03,0-0.03,0c-0.27,0.02-0.54,0.02-0.8,0.02c-7.11,0-11.73-4.08-17.07-8.75l-0.37-0.34
		c-0.9-0.76-1.81-1.47-2.76-2.12c2.3,0.46,4.64,0.83,6.82,0.83c4.15,0,7.67-1.34,9.01-5.89c0.44-1.51,0.49-2.96,0.56-4.37
		c0.03-1.13,0.08-2.2,0.36-3.42c0.07-0.29,0.08-0.42,0.12-0.49c0.05-0.1,0.15-0.25,0.34-0.59c0.46-0.91,0.93-1.76,1.41-2.59
		c1.25-2.18,2.42-4.25,2.9-7.18c0.32-1.95,0.68-4.15-0.02-6.5c-1.34-4.56-5.82-5.38-9.31-5.38c-1.32,0-2.49,0.12-3.28,0.2
		c-3.08,0.3-6.37,1-9.79,2.03c-5.52,1.66-11.11,5.33-15.32,10.04c-1.27,1.41-1.93,2.9-2.64,4.45c-0.15,0.36-0.32,0.71-0.49,1.07
		c-0.05,0.12-0.12,0.25-0.19,0.39c-0.12-0.02-0.22-0.02-0.32-0.02c-1.47,0-2.95,0.91-3.67,1.66c-2.73,2.79-3.32,7.76-3,11.55
		c-0.36,1.05-0.54,2.13-0.58,3.4s0.07,2.52,0.17,3.74c0.12,1.19,0.2,2.29,0.19,3.4c-0.02,0.61-0.1,1.24-0.19,1.85
		c-0.05,0.32-0.1,0.63-0.14,0.93c-0.73,6.27-1.24,12.38,0.63,18.14c1.02,3.1,2.17,6.13,3.73,7.18c0.31,0.2,0.69,0.32,1.13,0.37
		c0.2,0.02,0.41,0.02,0.61,0.02c0.68,0,1.44-0.08,2.25-0.19c0.24-0.03,0.44-0.07,0.59-0.08c2-0.15,3.89-0.58,5.72-0.97
		c0.9-0.2,1.81-0.41,2.74-0.58l0.95-0.19c3.37-0.69,5.42-1.03,6.1-1.03h0.08c0.1,0.05,0.22,0.07,0.36,0.07
		c0.24,0,0.47-0.08,0.66-0.27c0.36-0.37,0.36-0.97-0.02-1.32c0,0,0-0.02-0.02-0.02l-1.07-1.05c-4.03-3.93-8.59-8.38-10.77-13.41
		c-1.47-3.37-2.42-8.14-2.47-12.33c0.59-0.24,1.13-0.52,1.64-0.85c0.91,1.32,1.52,2.76,2.17,4.27c0.32,0.8,0.66,1.59,1.05,2.39
		c3.4,7.1,7.89,12.55,13.33,16.17c4.3,2.9,7.82,4.33,10.52,4.33c1.47,0,2.71-0.42,3.67-1.29c0.34-0.3,0.42-0.8,0.19-1.17
		C225.98,183.43,225.98,183.4,225.96,183.33z M224.15,183.31l0.03,0.19c0,0.05,0.02,0.1,0.02,0.15c-2.17,1.29-6.23,0.07-11.58-3.51
		c-5.16-3.45-9.43-8.65-12.72-15.46c-0.37-0.78-0.69-1.56-1.02-2.32c-0.68-1.59-1.37-3.23-2.46-4.78c0.25-0.27,0.46-0.54,0.64-0.85
		c0.63-1.03,0.64-1.93,0.37-2.73c1.29-0.03,2.84,0.19,4.52,0.51c0.02,0,0.03,0,0.05,0.02c3.34,1.1,6.21,2.78,8.87,5.1l0.37,0.34
		c5.35,4.67,10.4,9.11,18.07,9.19c-0.91,4.96-2.86,10.16-5.06,13.5C224.13,182.86,224.1,183.09,224.15,183.31z M187.59,189.14
		c-1.27-0.85-2.61-4.93-3.07-6.37c-1.73-5.3-1.24-11.19-0.52-17.26c0.03-0.29,0.08-0.58,0.12-0.88c0.1-0.68,0.2-1.37,0.22-2.07
		c0.02-1.22-0.08-2.44-0.19-3.61c-0.07-0.73-0.14-1.46-0.15-2.17c0.9,1.95,2.25,3.08,4.1,3.42c0.44,0.08,0.91,0.14,1.42,0.14
		c0.69,0,1.41-0.08,2.15-0.24c0.12,4.27,1.08,9.09,2.61,12.58c2.27,5.2,6.79,9.69,10.85,13.67c-1.07,0.15-2.61,0.44-4.91,0.91
		c-0.41,0.08-0.73,0.14-0.9,0.17c-0.97,0.19-1.9,0.39-2.81,0.59c-1.85,0.41-3.61,0.78-5.49,0.93c-0.17,0.02-0.41,0.05-0.69,0.08
		C189.76,189.14,187.98,189.37,187.59,189.14z M194.07,157.35c-0.22,0.14-0.44,0.27-0.68,0.37c-0.54,0.27-1.12,0.49-1.73,0.64
		c-1.13,0.29-2.3,0.37-3.25,0.19c-1.74-0.34-2.86-1.71-3.51-4.32c-0.14-0.59-0.25-1.29-0.32-2.02c-0.14-1.07-0.17-2.25-0.08-3.45
		c0.17-2.68,0.91-5.4,2.54-7.1c0.46-0.47,1.22-0.93,1.93-1.08c0.17-0.03,0.32-0.05,0.47-0.05c0.07,0,0.15,0.02,0.24,0.02
		c0.32,0.05,0.58,0.22,0.76,0.52c0.02,0.1,0.02,0.19,0.03,0.29c0.34,3.45,0.91,6.98,2.66,9.72c0.05,0.08,0.1,0.15,0.17,0.24
		c0.34,0.49,0.76,0.93,1.17,1.37c0.05,0.05,0.1,0.1,0.14,0.15c0.1,0.1,0.19,0.2,0.27,0.29c0.37,0.42,0.66,0.78,0.83,1.12
		c0.29,0.54,0.27,1.02-0.1,1.61c-0.08,0.14-0.17,0.25-0.25,0.37C195.02,156.66,194.58,157.03,194.07,157.35z M191.57,139.15
		c0.17-0.37,0.34-0.73,0.49-1.08c0.66-1.44,1.27-2.79,2.35-4c4.01-4.49,9.3-7.96,14.51-9.53c3.3-1,6.49-1.66,9.45-1.96
		c4.34-0.44,9.45-0.39,10.72,3.93c0.58,1.95,0.27,3.84-0.03,5.69c-0.42,2.62-1.52,4.56-2.69,6.59c-0.49,0.86-0.98,1.73-1.46,2.68
		c-0.14,0.27-0.2,0.39-0.25,0.46c-0.17,0.29-0.19,0.39-0.34,1.03l-0.03,0.19c-0.27,1.2-0.32,2.4-0.37,3.56
		c-0.05,1.35-0.1,2.64-0.49,3.95c-1.9,6.5-9.62,4.78-17.09,3.08c-1.47-0.34-2.93-0.66-4.32-0.9c-2.05-0.39-3.95-0.59-5.54-0.42
		c-0.25-0.3-0.51-0.59-0.76-0.86c-0.44-0.46-0.85-0.9-1.15-1.35c-1.63-2.56-2.13-6.05-2.44-9.43c-0.02-0.1-0.05-0.2-0.1-0.3
		c-0.17-0.34-0.39-0.64-0.64-0.88C191.43,139.42,191.5,139.29,191.57,139.15z"/>
</g>
<g>
	<path style="fill:#FFFFFF;" d="M165.29,66.98c-0.25,0.2-0.51,0.29-0.76,0.29c-0.95,0-1.95-1.15-3.27-2.03
		c-2-1.32-0.56-2.9-1.34-5.37c-0.54-1.69-1.63-2.24-3.15-2.24c-0.61,0-1.27,0.08-2.02,0.2c-0.07,0.05-3.22,0.66-4.45,0.86
		c-0.03,0.02-0.05,0.02-0.08,0.02c-0.46,0.08-0.93,0.12-1.39,0.12c-3.64,0-7.15-2.42-8.21-5.89c-0.74-2.44-0.12-4.81,1.46-6.43
		c0.95-0.98,2.64-2.08,9.52-2.95c1.24-0.17,2.42-0.27,3.57-0.27c3.49,0,6.62,0.97,9.92,4.03c1.95,1.81,3.37,3.96,3.89,6.38
		C169.86,57.89,168.62,64.24,165.29,66.98z"/>
	<path d="M171.47,53.18c-0.61-2.81-2.17-5.4-4.66-7.72c-3.51-3.25-7.09-4.71-11.65-4.71c-1.17,0-2.42,0.1-3.91,0.29
		c-6.62,0.83-9.13,1.93-10.72,3.42c-0.1,0.1-0.19,0.19-0.29,0.29c-2.29,2.35-3.05,5.69-2.05,8.94c1.37,4.45,5.84,7.69,10.63,7.69
		c0.61,0,1.22-0.05,1.83-0.15l0.08-0.02c0.41-0.07,0.78-0.14,1.12-0.19c1.83-0.34,2.79-0.54,3.39-0.68
		c0.64-0.12,1.13-0.17,1.52-0.17c0.42,0,0.56,0.07,0.56,0.07c0.02,0.02,0.08,0.14,0.17,0.39c0.17,0.56,0.15,1.05,0.12,1.69
		c-0.07,1.29-0.17,3.45,2.24,5.03c0.34,0.24,0.69,0.51,1.03,0.78c1,0.78,2.12,1.68,3.64,1.68c0.85,0,1.68-0.3,2.37-0.86
		C171.11,65.49,172.54,58.21,171.47,53.18z M165.29,66.98c-0.25,0.2-0.51,0.29-0.76,0.29c-0.95,0-1.95-1.15-3.27-2.03
		c-2-1.32-0.56-2.9-1.34-5.37c-0.54-1.69-1.63-2.24-3.15-2.24c-0.61,0-1.27,0.08-2.02,0.2l-0.02,0.02
		c-0.27,0.08-3.25,0.64-4.44,0.85c-0.03,0.02-0.05,0.02-0.08,0.02c-0.46,0.08-0.93,0.12-1.39,0.12c-3.64,0-7.15-2.42-8.21-5.89
		c-0.74-2.44-0.12-4.81,1.46-6.43c0.95-0.98,2.64-2.08,9.52-2.95c0.46-0.07,0.91-0.12,1.35-0.15c0.76-0.08,1.49-0.12,2.22-0.12
		c3.49,0,6.62,0.97,9.92,4.03c1.95,1.81,3.37,3.96,3.89,6.38C169.86,57.89,168.62,64.24,165.29,66.98z"/>
	<path style="fill:#653109;" d="M153.76,55.5c0.74,0.75,1.57,1.95,1,2.34l-0.02,0.02c-0.27,0.08-3.25,0.64-4.44,0.85
		c-0.03,0.02-0.05,0.02-0.08,0.02c-0.46,0.08-0.93,0.12-1.39,0.12c-3.64,0-7.15-2.42-8.21-5.89c-0.74-2.44-0.12-4.81,1.46-6.43
		c0.95-0.98,2.64-2.08,9.52-2.95c0.46-0.07,0.91-0.12,1.35-0.15c0.8,0.46,1.27,1.15,1.54,1.68v0.02c0.1,0.22,0.19,0.39,0.22,0.52
		c0.02,0.02,0.02,0.05,0.03,0.07c0.03,0.1,0.05,0.17,0.05,0.17h-0.02c0.25,0.91,0.14,1.85-0.58,2.44c-0.53,0.44-1.22,0.63-1.91,0.63
		c0.73,0.1,1.47,0.42,2.03,0.98c1.2,1.24,1.22,3.05,0.02,4.06c-0.59,0.51-1.37,0.71-2.15,0.64
		C152.74,54.79,153.32,55.04,153.76,55.5z"/>
</g>
<g>
	<g>
		<path style="fill:#FFFFFF;" d="M215.7,76.12c0.08,2.57-1.07,5.16-3.3,6.81c-1.44,1.05-3.1,1.56-4.74,1.56
			c-2.46,0-4.89-1.13-6.47-3.29c-0.02-0.02-1.93-2.73-2.61-3.69c-0.14-0.2-0.24-0.34-0.24-0.36c-1.13-1.56-2.18-2.61-3.42-2.61
			c-0.58,0-1.19,0.22-1.86,0.71c-2.13,1.56-2.2,3.2-4.18,3.2c-0.14,0-0.29,0-0.44-0.02c-2.03-0.22-4.72-1.83-4.96-3.52
			c-0.66-4.86,2.05-8.7,5.57-11.82c2.05-1.81,4.59-2.71,7.3-2.93c0.49-0.03,0.97-0.05,1.42-0.05c4.78,0,8.25,2.08,11.36,5.3
			c0.1,0.1,0.2,0.19,0.29,0.29c0.03,0,3.73,4.3,4.76,5.96C215.07,73.08,215.65,74.57,215.7,76.12z"/>
		<path style="fill:#653109;" d="M215.7,76.12c0.08,2.57-1.07,5.16-3.3,6.81c-1.44,1.05-3.1,1.56-4.74,1.56
			c-2.46,0-4.89-1.13-6.47-3.29c-0.02-0.02-1.93-2.73-2.61-3.69c0.05-0.71,1.47-1.15,2.54-1.29c0.68-0.1,1.32,0.08,1.9,0.36
			c-0.68-0.52-1.15-1.32-1.27-2.25c-0.24-1.88,1.1-3.59,2.95-3.84c0.88-0.1,1.69,0.15,2.35,0.61c-0.56-0.52-0.98-1.22-1.08-2.05
			c-0.22-1.78,1.41-3.27,3.17-3.62c0.1,0.1,0.2,0.19,0.29,0.29c0.03,0,3.73,4.3,4.76,5.96C215.07,73.08,215.65,74.57,215.7,76.12z"
			/>
	</g>
	<path d="M216.33,70.32c-0.49-0.8-1.49-2.08-2.95-3.86c-1.05-1.29-1.68-2.05-2.12-2.49c-1.3-1.37-3-2.96-5.22-4.22
		c-2.22-1.25-4.93-2.17-8.28-2.17c-0.53,0-1.08,0.02-1.63,0.07c-3.47,0.29-6.43,1.47-8.79,3.56c-5,4.4-7.08,9.01-6.38,14.07
		c0.44,3.27,4.47,5.4,7.2,5.69c0.25,0.02,0.49,0.03,0.71,0.03c2.39,0,3.56-1.41,4.32-2.34c0.39-0.47,0.76-0.91,1.35-1.34
		c0.17-0.14,0.29-0.19,0.36-0.22c0.17,0.1,0.58,0.44,1.39,1.54c0.39,0.63,1.19,1.78,2.84,4.06c1.98,2.71,5.16,4.32,8.52,4.32
		c2.27,0,4.42-0.71,6.25-2.07c2.83-2.08,4.44-5.42,4.33-8.92C218.17,74.16,217.53,72.23,216.33,70.32z M212.4,82.93
		c-1.44,1.05-3.1,1.56-4.74,1.56c-2.46,0-4.89-1.13-6.47-3.29c-0.02-0.02-1.93-2.73-2.61-3.69c-0.14-0.2-0.24-0.34-0.24-0.36
		c-1.13-1.56-2.18-2.61-3.42-2.61c-0.58,0-1.19,0.22-1.86,0.71c-2.13,1.56-2.2,3.2-4.18,3.2c-0.14,0-0.29,0-0.44-0.02
		c-2.03-0.22-4.72-1.83-4.96-3.52c-0.66-4.86,2.05-8.7,5.57-11.82c2.05-1.81,4.59-2.71,7.3-2.93c0.49-0.03,0.97-0.05,1.42-0.05
		c4.78,0,8.25,2.08,11.36,5.3c0.1,0.1,0.2,0.19,0.29,0.29c0.03,0,3.73,4.3,4.76,5.96c0.9,1.41,1.47,2.9,1.52,4.45
		C215.78,78.7,214.63,81.29,212.4,82.93z"/>
</g>
<g>
	<g>
		<path d="M193.08,156.81c-0.95-3.23-1.85-6.28-2.32-8.94c-0.1-0.59-0.34-1.1-0.63-1.54c0.51-0.29,1.03-0.58,1.54-0.85
			c2.03-1.1,3.66-1.96,4.42-3.25c6.11-10.21,9.09-21.47,8.87-33.48c-0.2-11.72-3.62-22.4-9.36-29.33
			c-5.15-6.2-10.99-11.28-17.41-15.1c-9.41-5.62-20.62-8.72-31.55-8.72c-8.65,0-17.07,1.95-24.32,5.62
			c-6.35,3.22-13.31,10.52-18.75,19.61c-1.52,0.75-3.08,1.69-4.88,2.84c-3.76,2.44-5.61,5.99-6.67,8.45
			c-1.88,4.3-2.24,10.08-1.08,17.15c0.56,3.52,1.9,6.98,3.96,10.26c0.66,1.91,1.51,3.91,2.59,6.08c1.95,3.93,5.2,10.5,5.16,15.71
			c-0.03,2.96-1.03,5.84-2.08,8.89c-0.83,2.39-1.69,4.86-2.1,7.48c-1.98,12.38-0.81,23.44,3.57,33.75
			c3.52,8.31,10.6,14.92,19.88,18.61c4,1.57,8.35,2.69,13.29,3.39l1.81,0.25c4.2,0.61,8.55,1.24,12.94,1.24
			c1.17,0,2.3-0.05,3.4-0.14c15.09-1.24,27.8-7.2,34.92-16.37c5.57-7.18,8.45-17.15,7.92-27.36
			C195.99,166.65,194.52,161.64,193.08,156.81z M186.3,196.88c-7.69,9.92-21.05,14.41-33.14,15.39c-5.88,0.49-11.77-0.51-17.58-1.34
			c-4.34-0.61-8.64-1.61-12.7-3.23c-8.18-3.23-15.02-9.04-18.49-17.24c-4.5-10.58-5.18-21.23-3.4-32.36
			c0.9-5.67,4.17-10.91,4.22-16.73c0.03-5.59-3.01-11.97-5.44-16.88c-0.49-1-0.97-2-1.39-3.01c-0.2-0.46-0.39-0.91-0.56-1.37
			c-0.03-0.03-0.05-0.08-0.05-0.14c-0.19-0.49-0.37-0.97-0.54-1.46c0-0.03-0.02-0.05-0.02-0.07c-1.93-3.03-3.22-6.21-3.76-9.57
			c-0.83-5.05-1.1-11.11,0.9-15.73c1.29-2.96,2.96-5.54,5.74-7.33c2.13-1.37,3.69-2.32,5.27-3l0.02-0.02
			c0.27-0.47,0.56-0.95,0.85-1.42c1.76-2.88,3.84-5.81,6.15-8.48c0.34-0.39,0.69-0.8,1.03-1.19c1.44-1.61,2.96-3.1,4.52-4.42
			c0.25-0.24,0.51-0.44,0.78-0.64c1.17-0.95,2.37-1.79,3.57-2.49c0.41-0.24,0.8-0.46,1.2-0.66c10.16-5.15,21.88-6.42,33.05-4.49
			c1.3,0.22,2.61,0.49,3.89,0.8c3.86,0.93,7.64,2.25,11.23,3.93c1.2,0.56,2.37,1.17,3.52,1.79c0.58,0.32,1.15,0.64,1.71,0.98
			c6.38,3.81,12.02,8.84,16.75,14.55c6.15,7.4,8.62,18.25,8.79,27.74c0.22,11.48-2.69,22.4-8.5,32.14c-0.8,1.32-5.42,2.98-7.26,4.71
			c0.19,0.83,1.46,1.85,1.59,2.68c1.22,6.86,5.06,15.9,5.44,22.89C194.14,180.16,191.86,189.7,186.3,196.88z"/>
		<g>
			<path style="fill-rule:evenodd;clip-rule:evenodd;fill:#00A2F6;" d="M186.66,145.64c0.19,0.83,1.46,1.85,1.59,2.68
				c1.22,6.86,5.06,15.9,5.44,22.89c0.46,8.96-1.83,18.49-7.38,25.67c-7.69,9.92-21.05,14.41-33.14,15.39
				c-5.88,0.49-11.77-0.51-17.58-1.34c-4.34-0.61-8.64-1.61-12.7-3.23c-8.18-3.23-15.02-9.04-18.49-17.24
				c-4.5-10.58-5.18-21.23-3.4-32.36c0.9-5.67,4.17-10.91,4.22-16.73c0.03-5.59-3.01-11.97-5.44-16.88c-0.49-1-0.97-2-1.39-3.01
				c-0.2-0.46-0.39-0.91-0.56-1.37c-0.03-0.03-0.05-0.08-0.05-0.14c-0.19-0.49-0.37-0.97-0.54-1.46c0-0.03-0.02-0.05-0.02-0.07
				c-1.93-3.03-3.22-6.21-3.76-9.57c-0.83-5.05-1.1-11.11,0.9-15.73c1.29-2.96,2.96-5.54,5.74-7.33c2.13-1.37,3.69-2.32,5.27-3
				l0.02-0.02c0.27-0.47,0.56-0.95,0.85-1.42c1.76-2.88,3.84-5.81,6.15-8.48c0.34-0.39,0.69-0.8,1.03-1.19
				c1.44-1.61,2.96-3.1,4.52-4.42c0.25-0.22,0.51-0.44,0.78-0.64c1.17-0.95,2.37-1.79,3.57-2.49c0.41-0.24,0.8-0.46,1.2-0.66
				c10.16-5.15,21.88-6.42,33.05-4.49c1.3,0.22,2.61,0.49,3.89,0.8c3.86,0.93,7.64,2.25,11.23,3.93c1.2,0.56,2.37,1.17,3.52,1.79
				c0.58,0.32,1.15,0.64,1.71,0.98c6.38,3.81,12.02,8.84,16.75,14.55c6.15,7.4,8.62,18.25,8.79,27.74
				c0.22,11.48-2.69,22.4-8.5,32.14C193.13,142.25,188.5,143.91,186.66,145.64z"/>
			<path style="fill-rule:evenodd;clip-rule:evenodd;fill:#00A2F6;" d="M105.36,82.81c0.27-0.47,0.56-0.97,0.86-1.44
				c-0.29,0.47-0.58,0.95-0.85,1.42L105.36,82.81z"/>
		</g>
	</g>
	<g>
		<path style="fill-rule:evenodd;clip-rule:evenodd;fill:#FFFFFF;" d="M180.81,78.29c-10.41-12.48-26.24-17.2-42.12-15.43
			c-7.57,0.84-15.63,3.16-20.84,8.07c-3.2,3.02-6,6.48-7.68,10.59l-0.38-0.12c-3.71,0.78-5.73,1.84-9.7,4.41
			c-2.78,1.8-4.45,4.37-5.73,7.33c-2,4.62-1.72,10.68-0.91,15.73c2.45,15.09,19.28,27.35,47.86,32.08
			c13.01,2.16,29.1,1.2,38.43-9.98c6.5-7.79,8.42-13.9,9.43-23.96C190.11,96.57,187.83,86.72,180.81,78.29z"/>
		<path style="fill-rule:evenodd;clip-rule:evenodd;fill:#FCBFBB;" d="M134.43,103.26c-2.63,6.74,0.59,14.28,7.19,16.86
			c6.6,2.57,14.07-0.8,16.7-7.53c2.63-6.73-0.59-14.28-7.19-16.85C144.54,93.16,137.06,96.53,134.43,103.26"/>
		<path style="fill-rule:evenodd;clip-rule:evenodd;fill:#FCBFBB;" d="M97.57,88.14c1.51-1.92,8.63-7.53,10.6-3.65
			c3,5.9-3.59,13.5-7.96,16.87c-1.72,1.33-4.34,2.61-6.56,1.1c-1.25-0.85-0.66-3.59-0.47-4.53C93.91,94.39,95.34,90.98,97.57,88.14z
			"/>
	</g>
</g>
<g>
	<path style="fill-rule:evenodd;clip-rule:evenodd;" d="M117.18,91.43c-0.33,0.89,0.34,1.94,1.51,2.37c1.17,0.43,2.37,0.06,2.7-0.82
		c0.32-0.88-0.35-1.95-1.52-2.38C118.7,90.18,117.51,90.56,117.18,91.43"/>
	<g>
		<path style="fill-rule:evenodd;clip-rule:evenodd;fill:#D34A4C;" d="M126.65,106.66c-1.22,1.54-2.96,3.25-4.23,4.22
			c-1.54,1.2-3.73,1.56-5.96,0.97c-2.4-0.61-4.34-2.17-5.18-4.15c-0.98-2.25-0.15-4.62,0.76-6.94c0.29,0.1,0.59,0.2,0.9,0.25
			c0.44,0.12,0.9,0.17,1.34,0.17c0.95,0,1.9-0.24,2.78-0.68c0.58,1.73,1.81,3.27,3.56,4.42c0.95,0.61,1.98,1.08,3.03,1.37
			c0.91,0.25,1.85,0.39,2.76,0.39C126.48,106.67,126.56,106.66,126.65,106.66z"/>
		<path style="fill-rule:evenodd;clip-rule:evenodd;fill:#FFFFFF;" d="M123.63,106.28l-0.05,0.1c-0.22,0.47-0.78,0.69-1.24,0.49
			l-9.21-4.13c-0.47-0.2-0.66-0.75-0.44-1.22l0.24-0.52c0.44,0.12,0.9,0.17,1.34,0.17c0.95,0,1.9-0.24,2.78-0.68
			c0.58,1.73,1.81,3.27,3.56,4.42C121.55,105.52,122.58,105.99,123.63,106.28z"/>
		<path style="fill:#231815;" d="M131.73,103.03c-0.27-0.56-0.91-0.78-1.47-0.52c-0.46,0.2-0.69,0.68-0.64,1.17
			c-0.27,0.14-0.74,0.29-1.03,0.37l-0.39,0.12c-1.86,0.63-4.35,0.19-6.35-1.12c-1.02-0.68-2.74-2.15-2.95-4.54
			c0-0.07-0.03-0.1-0.05-0.15c0-0.05-0.02-0.1-0.03-0.15c-0.19-0.46-0.66-0.8-1.12-0.73c-0.32,0.03-0.61,0.2-0.8,0.44
			c-1.68,1.47-4.2,1.3-5.94-0.44c-0.2-0.2-0.39-0.91-0.3-1.19c0.42-0.39,0.49-1.05,0.12-1.52c-0.39-0.47-1.08-0.56-1.57-0.19
			c-0.32,0.27-0.74,0.78-0.8,1.68c-0.05,1,0.36,2.17,0.98,2.79c0.36,0.36,0.74,0.68,1.13,0.95c-1.02,2.56-2.05,5.44-0.8,8.37
			c1.05,2.46,3.4,4.37,6.3,5.11c0.86,0.22,1.71,0.34,2.52,0.34c1.85,0,3.56-0.56,4.91-1.61c1.76-1.35,4.3-3.91,5.5-5.86
			c0.02-0.02,0.02-0.05,0.03-0.08l0.27-0.08c0.98-0.3,2.1-0.66,2.51-1.63C131.91,104.22,132.03,103.69,131.73,103.03z
			 M122.41,110.87c-1.54,1.2-3.73,1.56-5.96,0.97c-2.4-0.61-4.34-2.17-5.18-4.15c-0.98-2.25-0.15-4.62,0.76-6.94
			c0.29,0.1,0.59,0.2,0.9,0.25c0.44,0.12,0.9,0.17,1.34,0.17c0.95,0,1.9-0.24,2.78-0.68c0.58,1.73,1.81,3.27,3.56,4.42
			c0.95,0.61,1.98,1.08,3.03,1.37c0.91,0.25,1.85,0.39,2.76,0.39c0.08,0,0.17-0.02,0.25-0.02
			C125.43,108.2,123.68,109.91,122.41,110.87z"/>
	</g>
	<g>
		<path d="M115.68,87.41c-0.05,0-0.1,0-0.15-0.01l-3.77-0.62c-0.51-0.08-0.85-0.56-0.77-1.07c0.08-0.51,0.58-0.86,1.07-0.77
			l1.7,0.28l-0.93-1.46c-0.28-0.43-0.15-1.01,0.28-1.29c0.43-0.28,1.01-0.15,1.29,0.28l2.06,3.22c0.2,0.31,0.2,0.71-0.01,1.01
			C116.28,87.26,115.99,87.41,115.68,87.41z"/>
	</g>
	<g>
		<path d="M136.12,97.07c-0.16,0-0.33-0.04-0.48-0.13l-5.59-3.36c-0.36-0.22-0.53-0.65-0.42-1.05c0.11-0.4,0.48-0.68,0.9-0.68
			c0,0,0,0,0.01,0l6.52,0.04c0.52,0,0.93,0.42,0.93,0.94c0,0.51-0.42,0.93-0.93,0.93c0,0,0,0-0.01,0l-3.12-0.02l2.67,1.6
			c0.44,0.27,0.58,0.84,0.32,1.28C136.74,96.91,136.43,97.07,136.12,97.07z"/>
	</g>
</g>
<g>
	<g>
		<path style="fill:#FFE89A;" d="M194.7,157c-1.25-5.77-4.3-9.14-10.46-11.92c-0.69-0.3-1.44-0.68-2.22-1.05
			c-3.49-1.71-7.42-3.64-10.96-3.15c-5.2,0.71-8.38,3.25-12.07,6.2c-3.22,2.57-6.86,5.49-12.73,7.92
			c-8.47,3.51-16.34,8.82-25.01,14.9l-1.76,1.22c-3.08,2.15-6.25,4.35-9.25,6.77c-1.24,1-2.69,1.83-4.1,2.64
			c-0.8,0.44-1.57,0.9-2.32,1.37c-1.08,0.69-1.95,1.69-2.83,2.76c-0.24,0.29-1.1,2.03-1.44,3.49c-1.12-1.03-1.83-2.88-2.35-4.22
			c-0.61-1.57-0.76-3.1-0.44-4.39c0.1-0.44,0.19-0.9,0.22-1.34c0.12-0.07,0.22-0.17,0.3-0.29c1.59-2.59,2.56-5.49,2.71-8.15
			c0.02-0.47-0.34-0.88-0.81-0.9c-0.46-0.03-0.86,0.34-0.88,0.8c-0.1,1.71-0.58,3.56-1.39,5.32c-0.08-0.83-0.24-1.68-0.37-2.49
			c-0.32-1.91-0.63-3.71-0.42-5.49c0.42-3.44,3.18-5.62,6.11-7.48c1.02-0.64,1.96-1.37,2.88-2.07c1.17-0.9,2.29-1.74,3.54-2.46
			c2.35-1.32,4.79-2.4,6.65-3.2l3.42-1.49c7.89-3.4,16.05-6.93,24.1-9.62c1.39-0.47,2.81-0.97,4.25-1.47
			c7.04-2.46,14.31-5.01,21.44-5.01c0.73,0,1.44,0.03,2.15,0.08c5.79,0.44,13.7,2.61,18.49,7.35c0.34,0.34,0.69,0.78,1.05,1.32
			C192.47,146.33,195.07,153.07,194.7,157z"/>
	</g>
	<path d="M198.56,152.34c-0.85-4.18-2.57-8.37-4.86-11.73c-0.51-0.76-1.05-1.42-1.57-1.95c-5.6-5.57-14.61-8.08-21.15-8.57
		c-0.81-0.07-1.66-0.1-2.49-0.1c-7.82,0-15.43,2.66-22.76,5.23c-1.47,0.52-2.88,1-4.25,1.47c-8.21,2.74-16.44,6.3-24.4,9.74
		l-3.45,1.49c-1.95,0.85-4.52,1.98-7.06,3.42c-1.51,0.85-2.84,1.86-4.03,2.76c-0.88,0.68-1.71,1.32-2.57,1.86
		c-3.62,2.3-7.42,5.35-8.04,10.57c-0.29,2.39,0.1,4.67,0.46,6.69c0.34,2.05,0.64,3.81,0.27,5.32c-0.52,2.15-0.32,4.54,0.61,6.94
		c0.69,1.76,1.19,2.3,2.27,3.2c0.17,0.15,0.39,0.34,0.63,0.56c1.03,0.93,2.44,1.98,4.03,1.98c2.44,0,3.35-2.13,3.78-3.17
		c0.14-0.29,0.27-0.61,0.39-0.8c0.59-0.73,1.22-1.44,1.74-1.78c0.66-0.42,1.35-0.81,2.08-1.24l0.07-0.03
		c1.57-0.9,3.17-1.83,4.66-3.01c2.88-2.32,5.99-4.5,9.01-6.59l1.76-1.24c8.47-5.94,16.14-11.13,24.21-14.46
		c6.42-2.68,10.31-5.77,13.75-8.52c3.47-2.78,5.96-4.76,10.01-5.32c0.37-0.05,0.76-0.08,1.15-0.08c4.25,0,8.97,3.08,12.41,5.35
		c1.76,1.15,3.22,2.73,4.17,4.54c0.81,1.54,1.95,4.17,2.56,5.96c0.25,0.71,1.02,2.9,3.15,2.9c2.25,0,2.84-2.15,3.23-3.59
		c0.08-0.29,0.15-0.58,0.24-0.83C199.32,156.98,198.99,154.47,198.56,152.34z M196.14,158.52c-0.05,0.15-0.08,0.29-0.14,0.42
		c-0.29,1.05-0.54,2.25-0.93,2.25c-0.12,0-0.25-0.12-0.42-0.41c-0.1-0.19-0.2-0.44-0.32-0.78c-0.41-1.19-1.03-2.76-1.69-4.2
		c-0.34-0.78-0.69-1.51-1.02-2.12c-1.19-2.24-2.91-4.1-5.03-5.49c-3.95-2.59-8.86-5.76-13.8-5.76c-0.49,0-1,0.03-1.49,0.1
		c-4.74,0.66-7.62,2.95-11.24,5.84c-3.32,2.64-7.06,5.64-13.16,8.16c-8.31,3.45-16.1,8.7-24.69,14.73l-1.76,1.24
		c-3.05,2.12-6.2,4.32-9.14,6.69c-1.34,1.07-2.86,1.95-4.32,2.78c-0.78,0.44-1.54,0.88-2.27,1.34c-0.86,0.56-1.63,1.46-2.4,2.4
		c-0.03,0.05-0.08,0.14-0.14,0.24c-0.71,1.13-0.91,2.71-2,2.71c-0.52,0-1.25-0.37-2.34-1.34c-1.19-1.07-1.51-1.12-2-2.25
		c-0.08-0.19-0.15-0.37-0.22-0.54c-0.74-1.9-0.91-3.78-0.52-5.4c0.51-2.03,0.15-4.13-0.22-6.37c-0.34-1.93-0.68-3.93-0.44-5.96
		c0.49-4.13,3.61-6.64,6.89-8.7c0.95-0.61,1.83-1.29,2.76-1.98c1.15-0.9,2.37-1.83,3.73-2.59c2.42-1.35,4.91-2.47,6.81-3.29
		l3.44-1.49c7.92-3.42,16.1-6.96,24.23-9.67c1.37-0.46,2.79-0.97,4.22-1.46c2.69-0.95,5.42-1.9,8.16-2.73
		c0.81-0.25,1.63-0.49,2.46-0.69c4.52-1.2,9.08-1.95,13.65-1.61c6.1,0.47,14.44,2.78,19.56,7.84c0.42,0.42,0.85,0.95,1.27,1.57
		c0.12,0.17,0.24,0.36,0.36,0.56c1.68,2.61,2.96,5.66,3.74,8.69c0.08,0.25,0.14,0.51,0.19,0.76c0.1,0.42,0.19,0.83,0.27,1.25
		c0.07,0.32,0.12,0.66,0.15,0.98C196.53,155.69,196.58,157.18,196.14,158.52z"/>
	<path style="fill:#FDCD3A;" d="M158.01,142.68c-0.3,0-0.58-0.16-0.74-0.43c-0.23-0.41-0.08-0.92,0.33-1.15
		c8.69-4.86,17.34-5.07,25.02-0.61c0.4,0.23,0.54,0.75,0.31,1.16c-0.24,0.41-0.76,0.54-1.16,0.31c-7.24-4.2-15.1-3.99-23.35,0.63
		C158.29,142.65,158.15,142.68,158.01,142.68z"/>
	<path style="fill:#FDCD3A;" d="M196.31,154.27c-0.03-0.32-0.08-0.66-0.15-0.98c-0.08-0.42-0.17-0.83-0.27-1.25
		c-0.05-0.25-0.12-0.51-0.19-0.76c-0.93-3.35-2.51-6.71-3.74-8.69c-0.12-0.2-0.24-0.39-0.36-0.56c-0.42-0.63-0.85-1.15-1.27-1.57
		c-5.11-5.06-13.46-7.37-19.56-7.84c-4.57-0.34-9.13,0.41-13.65,1.61c-0.83,0.2-1.64,0.44-2.46,0.69c-2.74,0.83-5.47,1.78-8.16,2.73
		c-1.42,0.49-2.84,1-4.22,1.46c-8.13,2.71-16.31,6.25-24.23,9.67l-3.44,1.49c-1.9,0.81-4.39,1.93-6.81,3.29
		c-1.35,0.76-2.57,1.69-3.73,2.59c-0.93,0.69-1.81,1.37-2.76,1.98c-3.29,2.07-6.4,4.57-6.89,8.7c-0.24,2.03,0.1,4.03,0.44,5.96
		c0.37,2.24,0.73,4.33,0.22,6.37c-0.39,1.63-0.22,3.51,0.52,5.4c0.07,0.17,0.14,0.36,0.22,0.54c0.49,1.13,0.81,1.19,2,2.25
		c1.08,0.97,1.81,1.34,2.34,1.34c1.08,0,1.29-1.57,2-2.71c0.05-0.1,0.1-0.19,0.14-0.24c0.78-0.95,1.54-1.85,2.4-2.4
		c0.73-0.46,1.49-0.9,2.27-1.34c1.46-0.83,2.98-1.71,4.32-2.78c2.95-2.37,6.1-4.57,9.14-6.69l1.76-1.24
		c8.59-6.03,16.37-11.28,24.69-14.73c6.1-2.52,9.84-5.52,13.16-8.16c3.62-2.9,6.5-5.18,11.24-5.84c0.49-0.07,1-0.1,1.49-0.1
		c4.94,0,9.86,3.17,13.8,5.76c2.12,1.39,3.84,3.25,5.03,5.49c0.32,0.61,0.68,1.34,1.02,2.12c0.66,1.44,1.29,3.01,1.69,4.2
		c0.12,0.34,0.22,0.59,0.32,0.78c0.17,0.29,0.3,0.41,0.42,0.41c0.39,0,0.64-1.2,0.93-2.25c0.05-0.14,0.08-0.27,0.14-0.42
		c0.2-0.71,0.3-1.51,0.3-2.37C196.45,155.54,196.39,154.92,196.31,154.27z M194.7,157c-1.25-5.77-4.3-9.14-10.46-11.92
		c-0.69-0.3-1.44-0.68-2.22-1.05c-3.49-1.71-7.42-3.64-10.96-3.15c-5.2,0.71-8.38,3.25-12.07,6.2c-3.22,2.57-6.86,5.49-12.73,7.92
		c-8.47,3.51-16.34,8.82-25.01,14.9l-1.76,1.22c-3.08,2.15-6.25,4.35-9.25,6.77c-1.24,1-2.69,1.83-4.1,2.64
		c-0.8,0.44-1.57,0.9-2.32,1.37c-1.08,0.69-1.95,1.69-2.83,2.76c-0.24,0.29-1.1,2.03-1.44,3.49c-1.12-1.03-1.83-2.88-2.35-4.22
		c-0.61-1.57-0.76-3.1-0.44-4.39c0.1-0.44,0.19-0.9,0.22-1.34c0.12-0.07,0.22-0.17,0.3-0.29c1.59-2.59,2.56-5.49,2.71-8.15
		c0.02-0.47-0.34-0.88-0.81-0.9c-0.46-0.03-0.86,0.34-0.88,0.8c-0.1,1.71-0.58,3.56-1.39,5.32c-0.08-0.83-0.24-1.68-0.37-2.49
		c-0.32-1.91-0.63-3.71-0.42-5.49c0.42-3.44,3.18-5.62,6.11-7.48c1.02-0.64,1.96-1.37,2.88-2.07c1.17-0.9,2.29-1.74,3.54-2.46
		c2.35-1.32,4.79-2.4,6.65-3.2l3.42-1.49c7.89-3.4,16.05-6.93,24.1-9.62c1.39-0.47,2.81-0.97,4.25-1.47
		c7.04-2.46,14.31-5.01,21.44-5.01c0.73,0,1.44,0.03,2.15,0.08c5.79,0.44,13.7,2.61,18.49,7.35c0.34,0.34,0.69,0.78,1.05,1.32
		C192.47,146.33,195.07,153.07,194.7,157z"/>
</g>
<g>
	<g>
		<g>
			<path style="fill:#FFFFFF;" d="M127.1,142.47c-0.15,0.36-0.51,0.56-0.86,0.56c-0.12,0-0.25-0.03-0.37-0.08
				c-2.15-0.97-4.78-1.9-7.57-2.88c-0.42-0.15-0.83-0.29-1.25-0.44c-0.8-0.29-1.59-0.58-2.4-0.86c-0.44-0.17-0.9-0.34-1.37-0.51
				c-0.76-0.3-1.51-0.59-2.25-0.9c-3.98-1.63-7.59-3.51-9.65-5.89c0.68-0.1,1.22-0.66,1.25-1.39c0.54,0.66,1.24,1.29,2.05,1.86
				c0.54,0.41,1.13,0.8,1.76,1.15c0.63,0.37,1.3,0.73,2,1.07c1.39,0.69,2.9,1.34,4.44,1.95c0.42,0.15,0.85,0.3,1.27,0.47
				c0.78,0.3,1.57,0.59,2.37,0.88c0.81,0.29,1.61,0.58,2.4,0.85c2.83,1,5.5,1.95,7.72,2.93C127.1,141.45,127.31,141.99,127.1,142.47
				z"/>
		</g>
	</g>
	<g>
		<path style="fill:#FDF4EA;" d="M99.76,121.27c0.03,3.89-0.29,5.69-4.35,7.86l-8.92-3.89l-11.65-5.06l-8.35-3.64l-10.09-4.4
			l-5.84-2.54h-0.02l-4.96-2.17c0.08,0.02,0.15,0.03,0.24,0.03c0.27,0.05,0.54,0.08,0.83,0.12c0.6,0.06,1.24,0.06,1.9,0.02
			c0.08-0.01,0.17-0.01,0.25-0.01c0.68-0.05,1.38-0.13,2.11-0.28c0.37-0.07,0.74-0.15,1.12-0.25c0.39-0.08,0.76-0.2,1.17-0.32
			c0.24-0.07,0.49-0.15,0.75-0.24c0.25-0.08,0.51-0.17,0.76-0.25c0.93-0.34,1.88-0.75,2.84-1.2c1.81-0.83,3.67-1.88,5.54-3.12
			c0.03-0.03,0.08-0.07,0.14-0.08c0.88-0.58,1.74-1.19,2.61-1.85c0.05-0.03,0.08-0.07,0.14-0.1c0.39-0.29,0.78-0.59,1.17-0.9
			c0.05-0.05,0.12-0.08,0.17-0.15c0.46-0.37,0.93-0.76,1.39-1.15c0.51-0.44,1.03-0.9,1.54-1.37c0.75-0.69,1.47-1.39,2.15-2.1
			c0.42-0.41,0.8-0.81,1.17-1.22c0.34-0.36,0.66-0.71,0.97-1.07c0.34-0.39,0.68-0.78,0.98-1.15c0.32-0.39,0.64-0.76,0.93-1.15
			c0.27-0.32,0.51-0.64,0.75-0.97c1.69-2.25,3.08-4.52,4.1-6.67c0.14-0.27,0.25-0.54,0.37-0.81c0.02-0.02,0.02-0.02,0.02-0.03
			c0.03-0.03,0.03-0.05,0.03-0.07c0.44-1,0.8-1.96,1.07-2.9c0.58-1.93,0.81-3.73,0.66-5.28l1.69,5.01l2.3,6.82l8.69,25.67
			L99.76,121.27z"/>
		<path style="fill:#FFE89A;" d="M95.6,108.94l-8.18-24.21c6.79,23.61-8.1,36.4-12.59,35.43l11.65,5.08
			C95.07,121.29,96,113.62,95.6,108.94z"/>
		<path style="fill:#FFE89A;" d="M81.52,86.15c-0.22,3.05-0.66,6.71-1.47,10.92c-2.57,13.12-11.89,18.58-13.56,19.46l-10.09-4.4
			c4.06-2.05,6.91-5.4,8.87-9.04c2.18-1.49,4.37-3.23,6.45-5.15C75.73,94.24,79.1,90.18,81.52,86.15z"/>
		<path style="fill-rule:evenodd;clip-rule:evenodd;fill:#00A2F6;" d="M81.69,81.07c-2.12,4.86-6.1,10.31-11.46,15.24
			c-1.02,0.93-2.05,1.83-3.1,2.68c-7.94,6.33-16.27,9.52-21.56,8.43c-1.49-0.29-2.74-0.93-3.67-1.93
			c-4.62-5.05,0.54-17.32,11.55-27.45c11.01-10.11,23.69-14.21,28.33-9.16c0.97,1.05,1.51,2.42,1.64,4.01
			C83.64,75.21,83.03,78.02,81.69,81.07z"/>
		<path d="M129.49,140.86c-0.32-0.86-0.98-1.56-1.81-1.93c-2.3-1.03-5.01-2-7.87-3c-5.38-1.9-11.97-4.22-14.78-6.99
			c-0.02-0.1-0.05-0.19-0.08-0.29l-2.76-8.2l-3.67-10.87l-8.69-25.67L85.89,72.3c-0.25-2.07-1.02-3.79-2.25-5.15
			c-1.79-1.95-4.45-2.98-7.7-2.98c-6.88,0-16.15,4.61-24.21,12.01c-12.43,11.41-17.46,24.76-11.68,31.04
			c1.2,1.32,2.83,2.2,4.79,2.64l10.57,4.61l10.08,4.39l8.35,3.64l11.65,5.08l14.02,6.11c0.24,0.1,0.49,0.19,0.74,0.24
			c3.98,3.88,10.99,6.35,17.22,8.55c2.61,0.91,5.3,1.86,7.37,2.79c0.44,0.2,0.93,0.3,1.42,0.3c1.37,0,2.62-0.81,3.18-2.07
			C129.8,142.67,129.83,141.72,129.49,140.86z M44.76,107.2c-0.14-0.03-0.25-0.08-0.37-0.12c-0.12-0.05-0.24-0.1-0.36-0.15
			c-0.25-0.1-0.51-0.22-0.74-0.36c-0.14-0.08-0.27-0.17-0.41-0.25c-0.12-0.08-0.24-0.17-0.34-0.25c-0.15-0.12-0.31-0.25-0.44-0.39
			c-0.05-0.05-0.1-0.1-0.15-0.15c-0.02-0.02-0.03-0.02-0.05-0.03c-0.19-0.2-0.37-0.44-0.52-0.68c-0.47-0.71-0.8-1.56-0.98-2.47
			c-0.05-0.27-0.1-0.56-0.14-0.85c0.02-0.03,0-0.05,0-0.07c-0.07-0.91-0.03-1.9,0.14-2.93v-0.07c0.12-0.69,0.29-1.42,0.51-2.17
			c0.1-0.37,0.24-0.76,0.37-1.15c0.54-1.56,1.3-3.2,2.25-4.88c0.47-0.83,1-1.68,1.57-2.54c0.29-0.42,0.58-0.85,0.88-1.27
			c0.32-0.44,0.63-0.86,0.97-1.3c0.32-0.42,0.66-0.85,1.02-1.29c0.39-0.46,0.78-0.93,1.2-1.41c0.32-0.37,0.68-0.76,1.03-1.15
			l0.02-0.02c0.47-0.51,0.97-1,1.46-1.51c0.58-0.58,1.17-1.15,1.78-1.71c7.81-7.18,16.48-11.33,22.49-11.33
			c0.42,0,0.85,0.02,1.24,0.07c1,0.12,1.91,0.39,2.71,0.76c0.36,0.17,0.69,0.36,1.02,0.58s0.61,0.47,0.88,0.76c0,0,0,0,0,0.02
			c0.14,0.14,0.25,0.29,0.37,0.44c0.1,0.15,0.2,0.32,0.3,0.49c0.1,0.15,0.19,0.34,0.27,0.51c0.07,0.15,0.15,0.32,0.22,0.49
			c0.08,0.25,0.17,0.51,0.24,0.78c0.02,0.08,0.03,0.19,0.05,0.27c0.07,0.32,0.14,0.64,0.17,0.98c0.15,1.57-0.07,3.37-0.64,5.32
			c-0.27,0.93-0.63,1.9-1.07,2.9c0,0.02,0,0.03-0.03,0.07c0,0.02,0,0.02-0.02,0.03c-0.1,0.25-0.22,0.54-0.37,0.81
			c-1.02,2.15-2.4,4.42-4.1,6.67c-0.24,0.32-0.47,0.64-0.75,0.97c-0.3,0.39-0.61,0.78-0.93,1.15c-0.32,0.39-0.64,0.76-0.98,1.15
			c-0.3,0.36-0.63,0.71-0.97,1.07c-0.37,0.41-0.75,0.81-1.17,1.22c-0.68,0.71-1.41,1.41-2.15,2.1c-0.51,0.47-1.03,0.93-1.54,1.37
			c-0.46,0.39-0.93,0.78-1.39,1.15c-0.46,0.36-0.9,0.71-1.34,1.05c-0.05,0.03-0.08,0.07-0.14,0.1c-0.86,0.66-1.73,1.27-2.61,1.85
			c-0.05,0.02-0.1,0.05-0.14,0.08c-1.88,1.22-3.73,2.27-5.54,3.12c-0.97,0.46-1.91,0.86-2.84,1.2c-0.25,0.08-0.51,0.19-0.76,0.25
			c-0.25,0.08-0.51,0.17-0.75,0.24c-0.41,0.14-0.8,0.24-1.17,0.32c-0.39,0.1-0.76,0.19-1.12,0.25c-1.12,0.22-2.18,0.34-3.18,0.34
			c-0.37,0-0.73-0.02-1.08-0.07c-0.29-0.02-0.56-0.05-0.83-0.12c-0.12-0.02-0.24-0.03-0.36-0.07
			C45.21,107.33,44.98,107.26,44.76,107.2z M127.1,142.47c-0.15,0.36-0.51,0.56-0.86,0.56c-0.12,0-0.25-0.03-0.37-0.08
			c-2.15-0.97-4.78-1.9-7.57-2.88c-0.42-0.15-0.83-0.29-1.25-0.44c-0.8-0.29-1.59-0.58-2.4-0.86c-0.44-0.17-0.9-0.34-1.37-0.51
			c-0.76-0.3-1.51-0.59-2.25-0.9c-3.95-1.64-7.54-3.52-9.62-5.89c-0.02,0-0.02,0-0.03,0h-0.02c-0.07,0.02-0.14,0.02-0.2,0.02
			c-0.2,0-0.42-0.03-0.64-0.14l-5.1-2.22l-8.92-3.89l-11.65-5.06l-8.35-3.64l-10.09-4.4l-5.84-2.54c4.49-0.71,9.63-3,14.71-6.5
			c2.18-1.49,4.37-3.23,6.45-5.15c4.01-3.69,7.38-7.76,9.8-11.79c0.93-1.54,1.73-3.08,2.37-4.61c0.54-1.27,0.91-2.47,1.22-3.64
			l2.3,6.82l8.69,25.67l3.66,10.87l2.78,8.2c0.07,0.2,0.08,0.41,0.08,0.59v0.02c0.56,0.66,1.25,1.27,2.05,1.86
			c0.54,0.39,1.13,0.78,1.76,1.15c0.63,0.37,1.3,0.73,2,1.07c1.39,0.68,2.9,1.32,4.44,1.95c0.42,0.15,0.85,0.3,1.27,0.47
			c0.78,0.29,1.57,0.59,2.37,0.88c0.81,0.29,1.61,0.58,2.4,0.85c2.83,1,5.5,1.95,7.72,2.93C127.1,141.45,127.31,141.99,127.1,142.47
			z"/>
		<path style="fill:#FFE89A;" d="M102.62,130.06v0.02c-0.03,0.73-0.58,1.29-1.25,1.39h-0.02c-0.07,0.02-0.14,0.02-0.2,0.02
			c-0.2,0-0.42-0.03-0.64-0.14l-5.1-2.22c4.06-2.17,4.39-3.96,4.35-7.86l2.78,8.2C102.6,129.67,102.62,129.87,102.62,130.06z"/>
	</g>
</g>
<g>
	<g>
		<path style="fill:#28933F;" d="M44.01,93.58c-0.34-0.17-0.73-0.34-1.15-0.52c-0.22-0.08-0.44-0.17-0.68-0.27
			c-1.61-0.61-3.54-1.17-5.35-1.17c-0.15,0-0.29,0-0.44,0.02c-0.29,0-0.56,0.03-0.83,0.08h-0.07c-0.2,0.03-0.39,0.08-0.58,0.14
			c-0.2,0.05-0.41,0.12-0.61,0.2c-0.25,0.1-0.51,0.22-0.74,0.37l-0.83,6.82c0,0,0.07-0.02,0.17-0.03c0.12-0.02,0.27-0.05,0.49-0.1
			c0.1-0.02,0.2-0.03,0.34-0.05c0.25-0.05,0.52-0.1,0.85-0.15c0.8-0.12,1.78-0.27,2.81-0.36c0.42-0.05,0.83-0.08,1.27-0.1
			c0.41-0.02,0.85-0.03,1.25-0.03c1.64,0,3.17,0.2,4,0.83l1.85-4.76C45.76,94.5,45.08,94.09,44.01,93.58z M43.45,98.07
			c-2.64-0.97-7.47-0.27-9.74,0.14l0.64-5.25c3.23-1.59,8.55,0.95,10.35,1.93L43.45,98.07z"/>
		<path style="fill:#45CB2F;" d="M44.71,94.89l-1.25,3.18c-2.64-0.97-7.47-0.27-9.74,0.14l0.64-5.25
			C37.59,91.36,42.91,93.9,44.71,94.89z"/>
		<path d="M46.64,93.06c-0.2-0.14-5.23-3.13-9.8-3.13c-1.61,0-3,0.36-4.15,1.07c-0.44,0.27-0.73,0.73-0.8,1.24l-0.83,6.82
			c-0.07,0.54,0.14,1.08,0.54,1.46c0.32,0.29,0.73,0.44,1.13,0.44c0.12,0,0.24-0.02,0.36-0.03c0.03-0.02,3.74-0.8,6.82-0.8
			c2.22,0,2.86,0.41,2.98,0.49c0.29,0.22,0.64,0.34,1.02,0.34c0.15,0,0.3-0.02,0.46-0.07c0.51-0.14,0.91-0.53,1.12-1.02l1.86-4.74
			C47.64,94.34,47.35,93.48,46.64,93.06z M36.83,91.62c4.15,0,8.92,2.88,8.92,2.88l-1.85,4.76c-0.83-0.63-2.35-0.83-4-0.83
			c-3.32,0-7.18,0.83-7.18,0.83l0.83-6.82C34.53,91.84,35.65,91.62,36.83,91.62z"/>
	</g>
	<g>
		<path style="fill-rule:evenodd;clip-rule:evenodd;fill:#45CB2F;" d="M47.27,62.8c-0.19-0.73-4.15-4.89-4.64-9.71l6.31-2.7
			c0,0,1.97,6.51,3.96,9.11L47.27,62.8z"/>
		<path style="fill:#28933F;" d="M48.96,50.39l-6.32,2.71c0.49,4.81,4.44,8.97,4.64,9.7l5.62-3.3
			C50.92,56.89,48.96,50.39,48.96,50.39z M47.23,61.16c-1.12-1.56-3.15-4.4-3.67-7.54l4.88-2.08c0.56,1.69,1.85,5.38,3.27,7.69
			l-4.13,2.42C47.47,61.49,47.35,61.34,47.23,61.16z"/>
		<path d="M54.26,58.46c-1.47-1.93-3.17-6.84-3.69-8.57c-0.14-0.46-0.46-0.85-0.9-1.05c-0.22-0.1-0.47-0.15-0.71-0.15
			s-0.46,0.05-0.68,0.14l-6.3,2.71c-0.69,0.29-1.1,0.98-1.03,1.73c0.42,4.05,2.88,7.5,4.22,9.36c0.19,0.29,0.44,0.63,0.52,0.78
			c0.17,0.42,0.51,0.78,0.93,0.95c0.22,0.08,0.44,0.14,0.66,0.14c0.29,0,0.59-0.08,0.85-0.24l5.64-3.3
			c0.42-0.24,0.71-0.66,0.81-1.13C54.66,59.34,54.54,58.85,54.26,58.46z M52.9,59.5l-5.62,3.3c-0.2-0.73-4.15-4.89-4.64-9.7
			l6.32-2.71C48.96,50.39,50.92,56.89,52.9,59.5z"/>
	</g>
	<g>
		<path style="fill-rule:evenodd;clip-rule:evenodd;fill:#FFE89A;" d="M65.82,88.81l-2.56,2.64c-2.56-1.24-13.36-6.4-20.25-8.96
			c-4.18-1.54-5.06-2.64-5.22-3.17c-0.12-0.44,0.2-0.91,0.71-1.57l0.2-0.27c0.27-0.37,0.29-0.85,0.03-1.29
			c-1.35-2.34-15.53-7.48-22.35-7.96l3.81-4.74c8.48,1.66,21.83,5.38,23.03,8.7c0.1,0.29,0.17,0.69-0.3,1.25
			c-0.85,1.03-1.13,2.03-0.86,2.96c0.63,2.15,3.98,3.25,8.64,4.81C55.7,82.88,61.88,84.93,65.82,88.81z"/>
		<path style="fill:#FDCD3A;" d="M43.59,73.99C48.5,68,19.86,62.58,19.86,62.58l-5.23,6.52c0.29-0.03,0.61-0.05,0.97-0.05
			c2.1,0,5.08,0.59,8.2,1.47c0.61,0.17,1.24,0.36,1.85,0.54c0.64,0.2,1.25,0.41,1.88,0.61c0.93,0.3,1.85,0.63,2.71,0.97
			c0.59,0.22,1.15,0.44,1.69,0.66c0.54,0.22,1.07,0.44,1.56,0.66c0.25,0.1,0.49,0.22,0.73,0.32c0.46,0.2,0.9,0.42,1.29,0.63
			c1.8,0.91,2.81,1.68,2.52,2.07c-1.1,1.51-3.17,3.4,4.71,6.32c7.87,2.91,20.71,9.19,20.71,9.19l3.57-3.67
			C58.52,79.56,38.66,79.99,43.59,73.99z M63.26,91.45c-2.56-1.24-13.36-6.4-20.25-8.96c-4.18-1.54-5.06-2.64-5.22-3.17
			c-0.12-0.44,0.2-0.91,0.71-1.57l0.2-0.27c0.27-0.37,0.29-0.85,0.03-1.29c-1.35-2.34-15.53-7.48-22.35-7.96l3.81-4.74
			c8.48,1.66,21.83,5.38,23.03,8.7c0.1,0.29,0.17,0.69-0.3,1.25c-0.85,1.03-1.13,2.03-0.86,2.96c0.63,2.15,3.98,3.25,8.64,4.81
			c5,1.66,11.18,3.71,15.12,7.59L63.26,91.45z"/>
		<path d="M68.26,87.67c-4.37-4.76-11.24-7.03-16.76-8.87c-2.66-0.88-6.69-2.22-6.99-3.1c0,0,0.03-0.2,0.39-0.64
			c0.93-1.12,1.19-2.46,0.73-3.73c-2.01-5.57-19.98-9.38-25.45-10.43c-0.1-0.02-0.2-0.02-0.3-0.02c-0.51,0-1,0.22-1.32,0.63
			l-5.23,6.52c-0.44,0.54-0.49,1.29-0.17,1.88c0.3,0.54,0.88,0.88,1.49,0.88c0.07,0,0.12,0,0.19-0.02c0.24-0.02,0.49-0.03,0.78-0.03
			c5.45,0,17.09,4.27,20.3,6.28c-0.49,0.78-0.9,1.79-0.54,3.01c0.54,1.85,2.56,3.29,6.77,4.84c7.7,2.84,20.44,9.06,20.56,9.13
			c0.24,0.12,0.49,0.17,0.74,0.17c0.46,0,0.9-0.19,1.22-0.51l3.57-3.67C68.85,89.35,68.87,88.33,68.26,87.67z M38.02,76.97
			c0.29-0.39-0.73-1.15-2.52-2.07c-0.39-0.2-0.83-0.41-1.29-0.63c-0.24-0.1-0.47-0.22-0.73-0.32c-0.49-0.22-1.02-0.44-1.56-0.66
			c-0.54-0.22-1.12-0.44-1.69-0.66c-0.88-0.32-1.78-0.66-2.71-0.97c-0.63-0.2-1.24-0.41-1.88-0.61c-0.61-0.19-1.24-0.37-1.85-0.54
			c-3.12-0.88-6.1-1.47-8.2-1.47c-0.36,0-0.68,0.02-0.97,0.05l5.23-6.52c0,0,28.63,5.42,23.72,11.41
			c-4.93,5.99,14.94,5.57,23.42,14.82l-3.57,3.67c0,0-12.84-6.28-20.71-9.19C34.85,80.37,36.92,78.48,38.02,76.97z"/>
	</g>
	<g>
		<path style="fill:#88150A;" d="M74.42,60.41l-8.18,0.07c-1.96,5.47-0.59,12.07-0.59,12.07l7.32,0.75
			C72.29,66.46,74.42,60.41,74.42,60.41z M66.38,71.77c-0.25-1.64-0.81-6.33,0.47-10.45l6.42-0.07c-0.56,1.96-1.52,6.25-1.24,11.09
			L66.38,71.77z"/>
		<path style="fill:#F9261B;" d="M72.04,72.35l-5.66-0.58c-0.25-1.64-0.81-6.33,0.47-10.45l6.42-0.07
			C72.71,63.22,71.75,67.51,72.04,72.35z"/>
		<path d="M75.8,59.41c-0.32-0.44-0.83-0.69-1.37-0.69c-0.02,0-0.02,0-0.02,0l-8.18,0.07c-0.71,0-1.34,0.46-1.57,1.12
			c-2.1,5.86-0.71,12.7-0.64,12.99c0.14,0.73,0.74,1.27,1.47,1.34l7.3,0.76h0.19c0.44,0,0.86-0.17,1.19-0.49
			c0.36-0.36,0.54-0.85,0.49-1.35c-0.61-6.37,1.35-12.12,1.37-12.19C76.2,60.44,76.12,59.87,75.8,59.41z M72.97,73.3l-7.32-0.75
			c0,0-1.37-6.6,0.59-12.07l8.18-0.07C74.42,60.41,72.29,66.46,72.97,73.3z"/>
	</g>
	<g>
		<path style="fill:#88150A;" d="M38.32,127.57c0,0-11.16,4.96-5.79,13.65l7.86-0.83c0,0,0.83-10.33,5.37-11.57L38.32,127.57z
			 M39.61,139.62l-6.62,0.69c-1.07-1.91-1.34-3.78-0.8-5.52c1.1-3.59,5.25-5.84,6.25-6.35l4.96,0.83
			C40.71,131.94,39.85,137.54,39.61,139.62z"/>
		<path style="fill:#F9261B;" d="M43.4,129.28c-2.69,2.66-3.56,8.26-3.79,10.35l-6.62,0.69c-1.07-1.91-1.34-3.78-0.8-5.52
			c1.1-3.59,5.25-5.84,6.25-6.35L43.4,129.28z"/>
		<path d="M46.04,127.14l-7.45-1.24c-0.08-0.02-0.19-0.03-0.27-0.03c-0.24,0-0.47,0.05-0.69,0.15c-0.25,0.12-6.27,2.84-7.86,8.01
			c-0.81,2.62-0.37,5.33,1.32,8.08c0.32,0.49,0.86,0.8,1.44,0.8c0.07,0,0.12,0,0.19-0.02l7.86-0.81c0.8-0.08,1.44-0.75,1.51-1.56
			c0.3-3.79,1.79-9.43,4.13-10.08c0.76-0.2,1.29-0.93,1.24-1.71C47.42,127.94,46.82,127.28,46.04,127.14z M45.76,128.82
			c-4.54,1.24-5.37,11.57-5.37,11.57l-7.86,0.83c-5.37-8.69,5.79-13.65,5.79-13.65L45.76,128.82z"/>
	</g>
	<g>
		<path style="fill:#FDCD3A;" d="M13.97,106.84c-2.4,0-6.84,0.42-8.31,3.37v7.43c0,0,5.79-3.71,9.92-4.13v-6.6
			C15.58,106.91,14.94,106.84,13.97,106.84z M14.73,112.79c-2.96,0.52-6.38,2.32-8.23,3.37v-5.74c1.54-2.69,6.35-2.79,8.23-2.71
			V112.79z"/>
		<path style="fill:#FFE89A;" d="M14.73,107.71v5.08c-2.96,0.52-6.38,2.32-8.23,3.37v-5.74C8.05,107.72,12.85,107.62,14.73,107.71z"
			/>
		<path d="M15.77,105.22c-0.03,0-0.74-0.07-1.8-0.07c-2.86,0-7.94,0.56-9.82,4.3c-0.12,0.24-0.19,0.49-0.19,0.76v7.43
			c0,0.63,0.34,1.2,0.88,1.49c0.25,0.14,0.54,0.2,0.81,0.2c0.32,0,0.64-0.08,0.91-0.25c1.52-0.98,6.13-3.57,9.18-3.88
			c0.86-0.08,1.52-0.81,1.52-1.69v-6.6C17.27,106.03,16.63,105.32,15.77,105.22z M15.58,113.51c-4.13,0.42-9.92,4.13-9.92,4.13
			v-7.43c1.47-2.95,5.91-3.37,8.31-3.37c0.97,0,1.61,0.07,1.61,0.07V113.51z"/>
	</g>
	<g>
		<path style="fill-rule:evenodd;clip-rule:evenodd;fill:#FFE89A;" d="M65.19,50.68c0,0-1.24-12.4,3.31-16.54l7.44,3.72
			c0,0-5.79,7.03-5.37,11.16L65.19,50.68z"/>
		<path style="fill:#FDCD3A;" d="M75.95,37.86l-7.45-3.71c-4.54,4.13-3.3,16.53-3.3,16.53l5.37-1.64
			C70.16,44.88,75.95,37.86,75.95,37.86z M65.96,49.56c-0.15-2.88-0.32-10.97,2.71-14.38l5.96,2.98c-1.44,1.91-4.79,6.69-4.93,10.24
			L65.96,49.56z"/>
		<path d="M76.69,36.35l-7.43-3.73c-0.24-0.12-0.51-0.17-0.76-0.17c-0.41,0-0.81,0.15-1.13,0.44c-5.03,4.57-4,16.59-3.86,17.95
			c0.05,0.51,0.34,0.97,0.76,1.25c0.27,0.19,0.59,0.27,0.93,0.27c0.17,0,0.34-0.02,0.49-0.07l5.38-1.66
			c0.76-0.24,1.27-0.98,1.19-1.78c-0.25-2.51,2.93-7.42,5-9.92c0.32-0.41,0.46-0.93,0.34-1.42C77.49,37.01,77.17,36.59,76.69,36.35z
			 M70.56,49.03l-5.37,1.64c0,0-1.24-12.4,3.3-16.53l7.45,3.71C75.95,37.86,70.16,44.88,70.56,49.03z"/>
	</g>
</g>
<g>
	<path d="M177.77,147.01c-0.9-2.59-2.93-4.08-5.55-4.08c-4.13,0-9.09,3.49-15.16,8.04c-1.76,1.32-4.17,3.13-4.88,3.37
		c-0.2,0.07-0.39,0.12-0.59,0.15c-5.35-3.06-10.67-6.55-13.99-11.24c-2.01-2.86-4.32-6.11-9.23-6.32h-0.53
		c-3.52,0-8.06,1.34-10.21,5.13c-4.94,8.65,5.11,15.92,9.94,19.42l0.46,0.32c0.97,0.69,1.93,1.44,2.93,2.18
		c5.55,4.23,11.84,9.01,19.46,9.01c1.03,0,2.08-0.08,3.12-0.27c10.02-1.74,21.95-9.5,24.54-19.46
		C178.56,151.31,178.46,149.02,177.77,147.01z M175.6,152.63c-0.07,0.27-0.15,0.54-0.24,0.81c-0.07,0.2-0.14,0.41-0.22,0.61
		c-0.12,0.34-0.25,0.66-0.41,0.98c-3.4,7.59-13.02,13.41-20.83,15.02c-0.27,0.07-0.54,0.12-0.81,0.17
		c-0.91,0.17-1.79,0.24-2.68,0.24h-0.22c-1.3-0.02-2.57-0.2-3.83-0.51c-6.27-1.57-11.7-6.47-16.85-10.21
		c-4.52-3.27-12.9-9.04-10.09-15.6c0.1-0.27,0.25-0.56,0.41-0.83c0.34-0.61,0.8-1.13,1.32-1.59c0.12-0.1,0.25-0.2,0.39-0.3
		c0.14-0.1,0.29-0.2,0.42-0.3c0.41-0.29,0.86-0.52,1.32-0.73c1.44-0.63,3.07-0.91,4.55-0.91h0.42c3.66,0.15,5.37,2.54,7.26,5.23
		c0.27,0.39,0.56,0.78,0.88,1.15c0.24,0.32,0.51,0.64,0.81,0.97c1.3,1.51,2.79,2.88,4.4,4.15c0.05,0.05,0.1,0.08,0.17,0.14
		c2.86,2.25,6.03,4.18,9.09,5.91c0.07,0.03,0.14,0.08,0.2,0.12c0.58-0.05,1.19-0.17,1.81-0.36c0.1-0.03,0.2-0.07,0.3-0.12
		c3.37-1.44,13.53-11.19,19-11.19c1.1,0,2.02,0.39,2.62,1.34c0.22,0.29,0.39,0.63,0.53,1.02
		C175.89,149.34,175.99,151.14,175.6,152.63z"/>
	<path style="fill:#FFFFFF;" d="M175.6,152.63c-0.07,0.27-0.15,0.54-0.24,0.81c-0.07,0.2-0.14,0.41-0.22,0.61
		c-0.12,0.34-0.25,0.66-0.41,0.98c-3.4,7.59-13.02,13.41-20.83,15.02c-0.27,0.07-0.54,0.12-0.81,0.17
		c-0.91,0.17-1.79,0.24-2.68,0.24h-0.22c1.83-4.05,2.56-8.28,1.07-13.22c0,0-0.05-0.03-0.15-0.08c0.56-0.07,1.17-0.19,1.8-0.37
		c0.1-0.03,0.2-0.07,0.3-0.12c3.37-1.44,13.53-11.19,19-11.19c1.1,0,2.02,0.39,2.62,1.34c0.22,0.29,0.39,0.63,0.53,1.02
		C175.89,149.34,175.99,151.14,175.6,152.63z"/>
	<path style="fill:#0085C9;" d="M150.2,170.46c-1.3-0.02-2.57-0.2-3.83-0.51c-6.27-1.57-11.7-6.47-16.85-10.21
		c-4.52-3.27-12.9-9.04-10.09-15.6c0.12-0.27,0.25-0.56,0.41-0.83c0.34-0.61,0.8-1.13,1.32-1.59c0.12-0.1,0.25-0.2,0.39-0.3
		c0.14-0.1,0.29-0.2,0.42-0.3c0.41-0.29,0.86-0.52,1.32-0.73c1.44-0.63,3.07-0.91,4.55-0.91h0.42c3.66,0.15,5.37,2.54,7.26,5.23
		c0.27,0.39,0.56,0.78,0.88,1.15c0.24,0.32,0.51,0.64,0.81,0.97c1.3,1.51,2.79,2.88,4.4,4.15c0.05,0.05,0.1,0.08,0.17,0.14
		c2.86,2.25,6.03,4.18,9.09,5.91c0.07,0.03,0.14,0.08,0.2,0.12c0,0.02,0.02,0.02,0.02,0.02c0.1,0.05,0.15,0.08,0.15,0.08
		C152.76,162.18,152.03,166.41,150.2,170.46z"/>
</g>
<g>
	<path style="fill:#00E89A;" d="M122.82,47.62c-2.39,0.62-4.57,1.33-6.56,2.12l-1.5-3.59c-0.3-0.72-1.14-1.06-1.85-0.76
		c-0.72,0.3-1.06,1.13-0.76,1.86l1.52,3.62c-2.41,1.14-4.48,2.43-6.19,3.85l-2.31-2.31c-0.55-0.55-1.45-0.55-2.01,0
		c-0.55,0.55-0.55,1.45,0,2.01l2.28,2.27c-1.71,1.9-2.89,4.01-3.5,6.33c-0.2,0.76,0.25,1.53,1,1.74c0.18,0.05,0.36,0.06,0.53,0.04
		c0.56-0.07,1.05-0.47,1.2-1.04c0.51-1.9,1.49-3.57,2.79-5.04l1.85,1.84c0.32,0.32,0.75,0.45,1.17,0.4c0.3-0.04,0.6-0.17,0.84-0.41
		c0.55-0.55,0.55-1.45,0-2.01l-1.8-1.79c1.55-1.26,3.35-2.34,5.25-3.25l1,2.39c0.25,0.6,0.86,0.93,1.47,0.86
		c0.13-0.02,0.26-0.05,0.38-0.1c0.72-0.3,1.06-1.13,0.76-1.86l-1.02-2.42c2.08-0.82,4.19-1.48,6.18-2c0.76-0.2,1.21-0.97,1.02-1.73
		C124.35,47.87,123.57,47.42,122.82,47.62z"/>
	<path d="M113.44,45.27c0.55,0,1.08,0.33,1.31,0.87l1.5,3.59c1.99-0.79,4.18-1.49,6.56-2.12c0.12-0.03,0.24-0.05,0.35-0.05
		c0.63,0,1.21,0.42,1.38,1.06c0.2,0.76-0.26,1.53-1.02,1.73c-1.99,0.52-4.1,1.18-6.18,2l1.02,2.42c0.3,0.72-0.04,1.55-0.76,1.86
		c-0.12,0.05-0.25,0.08-0.38,0.1c-0.06,0.01-0.11,0.01-0.17,0.01c-0.55,0-1.08-0.33-1.31-0.87l-1-2.39
		c-1.9,0.92-3.69,1.99-5.25,3.25l1.8,1.79c0.55,0.55,0.55,1.45,0,2.01c-0.23,0.24-0.53,0.37-0.84,0.41
		c-0.06,0.01-0.11,0.01-0.17,0.01c-0.36,0-0.73-0.14-1-0.41l-1.85-1.84c-1.3,1.47-2.28,3.13-2.79,5.04
		c-0.15,0.58-0.65,0.98-1.2,1.04c-0.05,0.01-0.11,0.01-0.17,0.01c-0.12,0-0.24-0.02-0.37-0.05c-0.76-0.2-1.21-0.98-1.01-1.74
		c0.62-2.32,1.8-4.42,3.5-6.33l-2.28-2.27c-0.55-0.55-0.55-1.45,0-2.01c0.28-0.28,0.64-0.42,1-0.42c0.36,0,0.73,0.14,1,0.42
		l2.31,2.31c1.7-1.42,3.77-2.71,6.19-3.85l-1.52-3.62c-0.3-0.72,0.04-1.55,0.76-1.86C113.07,45.31,113.26,45.27,113.44,45.27
		 M113.44,43.58L113.44,43.58c-0.42,0-0.82,0.08-1.2,0.24c-1.58,0.66-2.33,2.49-1.66,4.07l0.9,2.16c-1.42,0.75-2.72,1.55-3.87,2.4
		l-1.25-1.25c-0.59-0.59-1.37-0.91-2.2-0.91c-0.83,0-1.62,0.33-2.2,0.92c-0.59,0.59-0.91,1.37-0.91,2.2c0,0.83,0.32,1.61,0.91,2.2
		l1.19,1.18c-1.35,1.78-2.3,3.72-2.85,5.78c-0.44,1.66,0.55,3.37,2.21,3.81c0.26,0.07,0.53,0.11,0.8,0.11
		c0.12,0,0.24-0.01,0.37-0.02c1.27-0.15,2.31-1.05,2.64-2.29c0.27-1.01,0.71-1.98,1.32-2.92l0.48,0.48c0.59,0.59,1.37,0.91,2.2,0.91
		c0.12,0,0.24-0.01,0.37-0.02c0.69-0.08,1.34-0.4,1.84-0.89c0.59-0.59,0.91-1.37,0.91-2.2c0-0.83-0.32-1.61-0.91-2.2l-0.4-0.4
		c0.56-0.38,1.17-0.74,1.8-1.1l0.29,0.7c0.48,1.16,1.61,1.91,2.87,1.91c0.12,0,0.24-0.01,0.36-0.02c0.29-0.03,0.57-0.11,0.84-0.22
		c0.77-0.32,1.36-0.92,1.68-1.69c0.32-0.77,0.31-1.62-0.01-2.38l-0.34-0.8c1.38-0.49,2.85-0.94,4.36-1.33
		c0.8-0.21,1.48-0.72,1.9-1.44c0.42-0.72,0.54-1.55,0.33-2.36c-0.36-1.37-1.6-2.33-3.01-2.33c-0.26,0-0.53,0.03-0.78,0.1
		c-1.82,0.47-3.56,1.01-5.2,1.6l-0.87-2.09C115.83,44.33,114.7,43.58,113.44,43.58L113.44,43.58z"/>
</g>
<g>
	<path style="fill:#0085C9;" d="M90.78,125.4c-1,1.54-2.76,2.37-5.22,2.49c-0.71,0.03-1.24,0.63-1.2,1.34
		c0.02,0.58,0.47,1.03,0.98,1.17l-1.34,6.23c-3.51-3.44-10.48-11.18-11.51-19.02c-0.24-1.76,0.51-5.74,1.96-7.42
		c2.1-2.4,4.4-3.39,6.84-2.95c4.1,0.76,8.13,5.54,9.69,9.72C92.17,120.2,92.1,123.44,90.78,125.4z"/>
	<path d="M92.92,126.81c-1.03,1.56-3.12,3.44-7.23,3.62c-0.12,0-0.22,0-0.34-0.03c-0.51-0.14-0.97-0.59-0.98-1.17
		c-0.03-0.71,0.49-1.3,1.2-1.34c2.46-0.12,4.22-0.95,5.22-2.49c1.32-1.96,1.39-5.2,0.2-8.43c-1.56-4.18-5.59-8.96-9.69-9.72
		c-2.44-0.44-4.74,0.54-6.84,2.95c-1.46,1.68-2.2,5.66-1.96,7.42c1.03,7.84,8.01,15.58,11.51,19.02c0.2,0.2,0.39,0.37,0.56,0.54
		c0.51,0.49,0.53,1.29,0.05,1.79c-0.25,0.27-0.59,0.39-0.93,0.39c-0.3,0-0.63-0.1-0.86-0.34c-4.32-4.11-11.72-12.31-12.85-21.08
		c-0.3-2.29,0.56-7.1,2.57-9.4c3.4-3.89,6.89-4.22,9.21-3.78c5.23,0.95,9.79,6.42,11.6,11.33
		C94.85,120.12,94.68,124.13,92.92,126.81z"/>
</g>
</svg>
