<?xml version="1.0" encoding="UTF-8"?>
<svg xmlns="http://www.w3.org/2000/svg" version="1.1" viewBox="0 0 390 390">
  <!-- Generator: Adobe Illustrator 28.7.1, SVG Export Plug-In . SVG Version: 1.2.0 Build 142)  -->
  <g>
    <g id="_레이어_1" data-name="레이어_1">
      <g>
        <g>
          <g>
            <path d="M166.3,302c-.8.7-.4,5.7-.5,6.8-.2,2.5-.3,4.9-.5,7.4-.3,4.7-.6,9.5-.8,14.2-.2,4.9-.4,9.8-.4,14.8,0,3.9,0,7.8-.3,11.6,0,0-12.8,1-14.2,1.1-5.1.6-9.7,3-14.1,5.5-.6.4-1.4.8-1.5,1.5-.1.5,0,.9.2,1.4.8,2.5,2.3,6.2,5,7.1,10.3,3.6,26.4,2.1,36.6-.9.4-.1.7-.2,1-.5.2-.3.3-.7.4-1,3.4-20.9-1.3-42.6-2.3-63.6,0-1.8-.2-3.7-1.2-5.2-1-1.5-5.9-1.4-7.2-.2Z" style="fill: #ffd174;"/>
            <path d="M154.1,376.8c-5.6,0-11.1-.6-15.5-2.2-2.5-.8-4.4-3.5-5.8-8-.2-.6-.4-1.3-.2-2.1.3-1.4,1.5-2,2.2-2.4,4.7-2.6,9.4-5.1,14.6-5.6,6.3-.7,10.7-1,13.1-1.1.2-2.7.2-5.6.2-8.3v-2.1c0-4.6.2-9.4.5-14.8.2-4.7.5-9.5.8-14.2.2-2.5.3-4.9.5-7.4,0-.3,0-.8,0-1.4,0-3.8,0-5.5.9-6.3h0c1.2-1.1,3.8-1.4,5.7-1.2,1.2.1,2.8.5,3.5,1.6,1.3,1.8,1.4,4.1,1.5,5.9.3,6.5,1,13.2,1.7,19.7,1.5,14.6,3,29.6.6,44.1,0,.4-.2,1.1-.7,1.7-.5.6-1.2.8-1.6.9-6.2,1.8-14.2,3.1-22,3.1ZM163.7,358.1c-1,0-12.5,1-14,1.1-4.7.5-8.9,2.7-13.5,5.3-.7.4-.9.6-.9.7s0,.3.1.6c1.1,3.5,2.6,5.7,4.1,6.2,10,3.4,25.6,2.1,35.8-.9,0,0,.3,0,.4-.1h0s0-.2,0-.3c2.3-14.2.8-29-.7-43.4-.7-6.5-1.4-13.3-1.7-19.9,0-1.8-.2-3.3-1-4.4-.1-.1-.8-.4-2-.5-1.4,0-2.6.2-3.1.5-.2.8-.2,3.3-.2,4.4,0,.7,0,1.3,0,1.6-.2,2.5-.3,4.9-.5,7.4-.3,4.7-.6,9.5-.8,14.2-.2,5.3-.4,10.1-.4,14.7v2.1c0,3.2,0,6.4-.4,9.7,0,.5-.4,1-.9,1.2-.2,0-.3,0-.5,0ZM167.2,303h0s0,0,0,0t0,0ZM166.3,302h0,0Z"/>
          </g>
          <g>
            <path d="M222.7,302c.8.7.4,5.7.5,6.8.2,2.5.3,4.9.5,7.4.3,4.7.6,9.5.8,14.2.2,4.9.4,9.8.4,14.8,0,3.9,0,7.8.3,11.6,0,0,12.8,1,14.2,1.1,5.1.6,9.7,3,14.1,5.5.6.4,1.4.8,1.5,1.5.1.5,0,.9-.2,1.4-.8,2.5-2.3,6.2-5,7.1-10.3,3.6-26.4,2.1-36.6-.9-.4-.1-.7-.2-1-.5-.2-.3-.3-.7-.4-1-3.4-20.9,1.3-42.6,2.3-63.6,0-1.8.2-3.7,1.2-5.2,1-1.5,5.9-1.4,7.2-.2Z" style="fill: #ffd174;"/>
            <path d="M234.9,376.8c-7.7,0-15.8-1.2-22-3.1-.4-.1-1.1-.3-1.6-.9-.5-.6-.6-1.2-.7-1.7-2.4-14.5-.9-29.6.6-44.2.7-6.5,1.4-13.2,1.7-19.7,0-1.8.2-4,1.5-5.9.8-1.1,2.4-1.5,3.5-1.6,1.9-.2,4.5.1,5.7,1.2h0c.9.8,1,2.3.9,6.3,0,.6,0,1.2,0,1.4.2,2.5.3,4.9.5,7.4.3,4.7.6,9.5.8,14.2.2,5.3.4,10.1.4,14.8v2.1c0,2.7,0,5.5.3,8.2,2,0,5.7.3,13.1,1.1,5.2.6,9.8,3,14.6,5.7.6.4,1.9,1,2.2,2.4.2.8,0,1.5-.2,2.1-1.4,4.4-3.4,7.1-5.8,8-4.4,1.5-9.9,2.2-15.5,2.2ZM213.4,371.1c0,0,.2,0,.3,0,10.3,3.1,25.8,4.4,35.8.9,1.5-.5,3-2.7,4.1-6.2.1-.4.1-.6.1-.6,0,0-.2-.3-.9-.7-4.7-2.6-8.9-4.8-13.5-5.3-1.5-.2-13-1.1-14-1.1-.2,0-.3,0-.5,0-.5-.2-.9-.6-.9-1.2-.3-3.2-.3-6.4-.3-9.6v-2.1c0-4.6-.2-9.5-.5-14.7-.2-4.7-.5-9.5-.8-14.2-.2-2.5-.3-4.9-.5-7.4,0-.3,0-.9,0-1.7,0-1.1,0-3.6-.2-4.4-.4-.3-1.6-.6-3.1-.5-1.2,0-1.9.4-2,.5-.8,1.1-.9,2.6-1,4.4-.3,6.6-1,13.3-1.7,19.9-1.5,14.4-3,29.2-.7,43.4,0,.1,0,.3,0,.4,0,0,0,0,0,0ZM221.8,303s0,0,0,0h0s0,0,0,0Z"/>
          </g>
          <g>
            <path d="M153.8,295.4v25.9c0,0,18.1,4.5,30.5,0v-14.7" style="fill: #265176;"/>
            <path d="M170.9,324.6c-8.9,0-16.8-1.9-17.3-2.1-.6-.2-1-.7-1-1.3v-25.9c0-.8.5-1.4,1.3-1.4h0c.7,0,1.4.6,1.4,1.4v24.8c3.9.8,17.7,3.4,27.8.1v-13.7c0-.8.6-1.4,1.4-1.4s1.4.6,1.4,1.4v14.7c0,.6-.4,1.1-.9,1.3-4.3,1.6-9.2,2.1-13.9,2.1Z"/>
          </g>
          <g>
            <path d="M235.2,295.4v25.9c0,0-18.1,4.5-30.5,0v-14.7" style="fill: #265176;"/>
            <path d="M218.1,324.6c-4.6,0-9.6-.5-13.9-2.1-.5-.2-.9-.7-.9-1.3v-14.7c0-.8.6-1.4,1.4-1.4s1.4.6,1.4,1.4v13.7c10.1,3.2,23.9.7,27.7-.1v-24.8c0-.8.7-1.4,1.4-1.4h0c.8,0,1.4.6,1.4,1.4v25.9c0,.6-.5,1.2-1.1,1.3-.5.1-8.4,2.1-17.3,2.1Z"/>
          </g>
          <g>
            <path d="M122.2,226.1c-9.6,13.2-18.3,28.7-16.9,45,.2,2.6.8,5.4,2.6,7.2,1.8,1.9,5.2,2.5,7,.5.9-.9,1.2-2.3,2.2-3.1s2.4-.7,3.7-1c3.2-.6,4.3-2.5,5-5.5,1.8,1.1,4.4-.2,5.4-2.1,1-1.9.9-4.2.9-6.3,0-10,1.6-21.7,5.7-30.9,3.5-7.8,10.3-13.8,12.9-22.1,1-3.3.8-8.8-3.9-9.1-3.1-.1-6,4.6-7.7,6.6-6,6.6-11.6,13.5-16.8,20.7Z" style="fill: #ffd174;"/>
            <path d="M112,281.4c-1.9,0-3.8-.8-5-2.2-2.2-2.3-2.8-5.5-3-8.1-1.6-17.7,8.3-33.8,17.1-45.9h0c5.2-7.2,10.9-14.2,16.9-20.8.4-.4.8-.9,1.2-1.5,1.9-2.4,4.5-5.7,7.6-5.5,1.8,0,3.4.9,4.3,2.3,1.7,2.5,1.5,6.1.8,8.5-1.5,4.9-4.4,8.9-7.1,12.9-2.1,3-4.3,6-5.8,9.4-3.6,8.1-5.6,19.2-5.6,30.4v.4c0,2.1,0,4.5-1.1,6.6-.8,1.4-2.2,2.6-3.7,3-.6.2-1.3.2-1.9.1-.8,2.4-2.2,4.4-5.7,5.1-.5,0-.9.1-1.3.2-.9,0-1.3.1-1.8.5-.3.3-.6.8-.9,1.3-.3.5-.6,1.2-1.1,1.7-1,1-2.3,1.6-3.9,1.6h0ZM146.6,200.1c-1.7,0-3.9,2.7-5.3,4.5-.5.6-.9,1.2-1.3,1.6-5.9,6.6-11.5,13.5-16.7,20.6h0c-8.5,11.7-18.1,27.3-16.6,44,.2,2.1.6,4.7,2.2,6.4.8.8,2,1.3,3.1,1.3h0c.6,0,1.3-.1,1.9-.8.3-.3.5-.7.7-1.1.4-.7.8-1.5,1.6-2.1,1.2-.9,2.3-1,3.3-1.1.3,0,.7,0,1-.1,2.3-.5,3.3-1.6,4-4.5,0-.4.4-.8.8-.9.4-.2.9-.1,1.2,0,.4.2.9.3,1.4.1.8-.2,1.6-.9,2.1-1.7.8-1.5.8-3.3.8-5.3v-.4c0-11.5,2-23,5.8-31.5,1.6-3.6,3.8-6.8,6-9.8,2.8-3.9,5.4-7.6,6.8-12.1.6-1.9.6-4.7-.4-6.2-.5-.7-1.2-1.1-2.2-1.1,0,0,0,0,0,0ZM122.2,226.1h0,0Z"/>
          </g>
          <g>
            <path d="M266.8,226.1c9.6,13.2,18.3,28.7,16.9,45-.2,2.6-.8,5.4-2.6,7.2-1.8,1.9-5.2,2.5-7,.5-.9-.9-1.2-2.3-2.2-3.1-1.2-1-2.4-.7-3.7-1-3.2-.6-4.3-2.5-5-5.5-1.8,1.1-4.4-.2-5.4-2.1-1-1.9-.9-4.2-.9-6.3,0-10-1.6-21.7-5.7-30.9-3.5-7.8-10.3-13.8-12.9-22.1-1-3.3-.8-8.8,3.9-9.1,3.1-.1,6,4.6,7.7,6.6,6,6.6,11.6,13.5,16.8,20.7Z" style="fill: #ffd174;"/>
            <path d="M277,281.4h0c-1.5,0-2.9-.6-3.9-1.6-.5-.5-.8-1.2-1.1-1.7-.3-.5-.5-1-.9-1.3-.5-.4-1-.4-1.8-.5-.4,0-.9,0-1.3-.2-3.5-.7-4.9-2.8-5.7-5.1-.6,0-1.2,0-1.9-.1-1.5-.4-3-1.6-3.7-3-1.1-2.1-1.1-4.5-1.1-6.6v-.4c0-11.2-2-22.2-5.6-30.4-1.5-3.3-3.6-6.4-5.8-9.4-2.8-3.9-5.7-8-7.1-12.9-.7-2.4-.9-6.1.8-8.5,1-1.4,2.5-2.2,4.3-2.3,0,0,.1,0,.2,0,3,0,5.6,3.2,7.4,5.5.4.6.8,1.1,1.2,1.5,6,6.6,11.7,13.6,16.9,20.8h0c8.8,12.1,18.7,28.2,17.1,45.9-.2,2.3-.7,5.7-3,8.1-1.3,1.3-3.2,2.2-5,2.2ZM263.2,267.8c.2,0,.4,0,.5.1.4.2.7.5.8.9.7,3,1.7,4.1,4,4.5.4,0,.7,0,1,.1,1,0,2.1.2,3.3,1.1.7.6,1.2,1.4,1.6,2.1.2.4.5.9.7,1.1.6.6,1.4.7,1.9.8,1,0,2.3-.5,3.1-1.3,1.3-1.3,2-3.3,2.2-6.4,1.5-16.8-8.1-32.4-16.6-44-5.2-7.1-10.8-14.1-16.7-20.6-.4-.4-.8-1-1.3-1.6-1.4-1.8-3.7-4.6-5.4-4.5-1,0-1.7.4-2.2,1.1-1,1.5-1,4.2-.4,6.2,1.3,4.4,4,8.1,6.8,12.1,2.2,3.1,4.5,6.3,6,9.8,3.8,8.5,5.9,20,5.8,31.5v.4c0,2,0,3.8.8,5.3.4.8,1.2,1.4,2.1,1.7.5.1,1,.1,1.4-.1.2-.1.5-.2.7-.2Z"/>
          </g>
          <g>
            <path d="M261.9,219.3c1-1,1.1-2.5.3-3.6-3.5-5-13.1-18-20-16.9-7.6,1.1-.2,18.5,5.5,29.7.9,1.8,3.2,2.1,4.6.7l9.6-9.8Z" style="fill: #fff;"/>
            <path d="M250.3,231.4c-.2,0-.4,0-.6,0-1.4-.2-2.5-1-3.1-2.3-7.6-15-10.3-24.8-8.1-29.1.7-1.4,2-2.3,3.6-2.5,7.2-1.1,16.4,10.5,21.3,17.5,1.1,1.7,1,3.9-.5,5.4l-9.6,9.8c-.8.8-1.9,1.3-3,1.3ZM243.1,200.1c-.2,0-.4,0-.6,0-.8.1-1.3.5-1.6,1.1-1.7,3.3,1.2,13,8.1,26.6.2.4.6.7,1.1.8.5,0,1,0,1.3-.4l9.6-9.8c.5-.5.6-1.3.2-1.9-5.6-8.1-13.1-16.4-18-16.4Z"/>
          </g>
          <g>
            <path d="M127.1,219.3c-1-1-1.1-2.5-.3-3.6,3.5-5,13.1-18,20-16.9,7.6,1.1.2,18.5-5.5,29.7s-3.2,2.1-4.6.7l-9.6-9.8Z" style="fill: #fff;"/>
            <path d="M138.7,231.4c-1.1,0-2.2-.5-3-1.3l-9.6-9.8c-1.4-1.4-1.6-3.7-.5-5.4,4.8-7,14-18.6,21.3-17.5,1.6.3,2.9,1.1,3.6,2.5,2.2,4.3-.5,14.1-8.1,29.1-.6,1.2-1.8,2.1-3.1,2.3-.2,0-.4,0-.6,0ZM145.9,200.1c-4.9,0-12.5,8.3-18,16.4-.4.6-.3,1.4.2,1.9l9.6,9.8c.3.4.8.5,1.3.4.5,0,.9-.4,1.1-.8,6.9-13.6,9.8-23.3,8.1-26.6-.3-.6-.8-1-1.6-1.1-.2,0-.4,0-.6,0Z"/>
          </g>
          <path d="M274.2,271.4s0,0-.1,0c-.7,0-1.3-.7-1.2-1.5.7-6.8-.3-13.7-2.9-19.9-.3-.7,0-1.5.7-1.8.7-.3,1.5,0,1.8.7,2.7,6.7,3.8,14,3.1,21.2,0,.7-.7,1.2-1.4,1.2Z" style="fill: #c48200;"/>
          <path d="M265.9,265.1h0c-.8,0-1.3-.7-1.3-1.4,0-2.2.2-4.8,0-7.2-.3-2.5-1-4.7-2.1-6.4-.4-.6-.2-1.5.4-1.9.6-.4,1.5-.2,1.9.4,1.3,2.1,2.2,4.6,2.5,7.6.3,2.6.2,5.3,0,7.6,0,.7-.6,1.3-1.4,1.3Z" style="fill: #c48200;"/>
          <g>
            <g>
              <path d="M260.3,116.7c3.2,39.9-7.2,65.6-12.7,80.7l-.5-.2h-105.7c-5.5-15.1-15.9-40.7-12.6-80.5,4.1-50.5,65.7-46.8,65.7-46.8,0,0,61.7-3.7,65.8,46.8Z" style="fill: #67a9e4;"/>
              <path d="M247,270c0,0-.1,0-.2,0,0,0,0,0,0,0h.2Z" style="fill: #67a9e4;"/>
              <path d="M246.8,270s0,0,0,0c-47.7,15.4-104.8,0-104.8,0h104.8Z" style="fill: #fff;"/>
              <path d="M246.8,270.1c-.8,12-3.8,24-15,30-23.6,12.8-53,13.2-76.2-.9-9.9-6-12.9-17.6-13.6-29.2h0s57.1,15.5,104.8,0Z" style="fill: #265176;"/>
              <path d="M141.4,197.1h105.7c-5.1,1.4-9.6,1.3-13.5,5-3.5,3.3-6.2,7.4-10.2,10.2-9.9,7-19.7,1.8-30.3,2.2-11.3.5-22.2-4.3-31.3-10.6-6.8-4.7-12.4-5.2-20.3-6.8Z" style="fill: #67a9e4;"/>
              <path d="M142,270h0c-.4-6.1-.1-12.3,0-17.6.4-14.4,4.8-31,2.4-45.3-.4-2.6-1.6-5.9-3.1-10,7.9,1.6,13.5,2.2,20.3,6.8,9.1,6.3,20,11.1,31.3,10.6,10.6-.4,20.4,4.7,30.3-2.2,4-2.8,6.7-6.9,10.2-10.2,3.9-3.7,8.4-3.6,13.5-5l.5.2c-1.5,4-2.6,7.3-3,9.8-1,6.4.3,13.4.8,19.8.8,10.2,1.7,20.3,1.7,30.6,0,4,0,8.3-.3,12.6h-104.8Z" style="fill: #fff;"/>
            </g>
            <g>
              <path d="M193.9,311.2c-13.7,0-27.2-3.6-39-10.8-8.7-5.3-13.3-14.9-14.3-30.3-.4-5.6-.2-11.3,0-16.2v-1.5c.2-5.3.9-11,1.6-16.5,1.2-9.6,2.4-19.6.9-28.5-.4-2.6-1.7-6.1-3-9.8l-.8-2.3c-5.6-15.2-15-40.6-11.9-78.8,4.1-51.3,66.5-48.1,67.2-48.1.5,0,62.9-3.2,67,48.1,3.1,38.3-6.3,63.7-11.9,78.9l-.8,2.3c-1.3,3.6-2.5,7-3,9.6-.8,4.6-.2,9.7.3,14.7.2,1.6.3,3.2.5,4.8.8,10,1.7,20.4,1.7,30.7,0,4,0,8.3-.3,12.6,0,0,0,0,0,0-.7,10.1-3,24.2-15.8,31.1-12.1,6.6-25.4,9.9-38.5,9.9ZM191.9,71.1c-5.1,0-16.7.5-28.4,4.5-20.5,7-31.8,20.8-33.4,41.2-3.1,37.6,6.2,62.6,11.7,77.6l.8,2.3c1.4,3.8,2.7,7.4,3.1,10.3,1.5,9.3.3,19.5-.9,29.3-.7,5.7-1.4,11.1-1.5,16.3v1.5c-.2,4.9-.4,10.5,0,16,.9,14.4,5,23.3,13,28.1,22.2,13.5,50.9,13.8,74.8.8,8.9-4.8,13.3-13.7,14.3-28.9,0,0,0,0,0-.1.3-4.2.3-8.5.3-12.4,0-10.2-.9-20.5-1.7-30.5-.1-1.5-.3-3.1-.5-4.7-.6-5.1-1.1-10.4-.3-15.4.5-2.8,1.7-6.4,3.1-10.1l.8-2.3c5.5-15,14.8-40.1,11.7-77.8-1.7-20.3-12.9-34.2-33.4-41.2-15.5-5.3-30.7-4.4-30.9-4.4,0,0-1,0-2.7,0Z"/>
              <path d="M211.1,217.4c-2.8,0-5.6-.4-8.3-.7-3.2-.4-6.4-.8-9.7-.7-10.3.5-21.1-3.2-32.2-10.8-5.6-3.9-10.5-4.8-16.6-6-1-.2-2.1-.4-3.2-.6-.7-.2-1.2-.9-1.1-1.6.1-.7.9-1.2,1.6-1.1,1.1.2,2.1.4,3.2.6,6.5,1.2,11.6,2.2,17.7,6.4,10.6,7.3,20.8,10.8,30.5,10.4,3.5-.2,6.9.3,10.2.7,6.7.9,13.1,1.7,19.4-2.7,2.4-1.7,4.3-3.8,6.2-6,1.2-1.4,2.5-2.8,3.8-4.1,3.1-3,6.6-3.7,10.3-4.5,1.2-.2,2.4-.5,3.7-.8.7-.2,1.5.2,1.7,1,.2.7-.2,1.5-1,1.7-1.3.4-2.6.6-3.9.9-3.4.7-6.4,1.3-9,3.8-1.3,1.2-2.5,2.6-3.7,3.9-2,2.3-4.1,4.6-6.7,6.5-4.4,3.1-8.7,3.9-13,3.9Z"/>
              <path d="M198.7,278.3c-31.1,0-56.6-6.8-57-6.9-.7-.2-1.2-.9-1-1.7.2-.7.9-1.2,1.7-1,.6.2,57.2,15.2,104,0,.1,0,.3,0,.4,0v.7l.7,1.9c0,0-.2,0-.4.1-15.9,5.1-32.8,6.8-48.4,6.8Z"/>
            </g>
          </g>
          <path d="M167,151.4c-4.3,0-12-.7-16-5.7-.5-.6-.4-1.4.2-1.9.6-.5,1.4-.4,1.9.2,4.7,5.7,16.6,4.6,16.7,4.5,11.3-1.6,15.1-9.2,15.1-9.3.3-.7,1.1-1,1.8-.6.7.3,1,1.1.6,1.8-.2.4-4.4,9.1-17.2,10.8-.2,0-1.3.1-3.1.1Z" style="fill: #215c8d;"/>
          <path d="M222,151.4c-1.7,0-2.9-.1-3-.1-12.9-1.8-17.1-10.5-17.3-10.8-.3-.7,0-1.5.6-1.8.7-.3,1.5,0,1.8.6.2.3,3.9,7.8,15.2,9.3,0,0,11.9,1.2,16.6-4.5.5-.6,1.3-.7,1.9-.2.6.5.7,1.3.2,1.9-4,4.9-11.7,5.7-16,5.7Z" style="fill: #215c8d;"/>
          <g>
            <path d="M204,123.8c0,11.6,7.2,14.2,17.2,14.2,10,0,19-2.5,19-14.2s-8.1-21.1-18.1-21.1-18.1,9.4-18.1,21.1Z" style="fill: #fff;"/>
            <path d="M221.2,139.3c-8.7,0-18.6-1.8-18.6-15.5s8.7-22.4,19.5-22.4,19.5,10.1,19.5,22.4-15.3,15.5-20.4,15.5ZM222.1,104.1c-9.2,0-16.8,8.8-16.8,19.7s4.4,12.8,15.9,12.8,17.7-4,17.7-12.8-7.5-19.7-16.8-19.7Z"/>
          </g>
          <ellipse cx="222.1" cy="123.8" rx="10.5" ry="12.1" style="fill: #7d0680;"/>
          <g>
            <path d="M185,123.8c0,11.6-9,14.2-19,14.2-10,0-17.2-2.5-17.2-14.2,0-11.6,8.1-21.1,18.1-21.1,10,0,18.1,9.4,18.1,21.1Z" style="fill: #fff;"/>
            <path d="M166,139.3c-8.7,0-18.6-1.8-18.6-15.5s8.7-22.4,19.5-22.4,19.5,10.1,19.5,22.4-15.3,15.5-20.4,15.5ZM166.9,104.1c-9.2,0-16.8,8.8-16.8,19.7s4.4,12.8,15.9,12.8,17.7-4,17.7-12.8-7.5-19.7-16.8-19.7Z"/>
          </g>
          <ellipse cx="166.9" cy="123.8" rx="10.5" ry="12.1" style="fill: #7d0680;"/>
          <g>
            <path d="M194.6,174.1c2.6.1,5.2.6,7.7,1.3,3.3,1,6.5,2.5,9.8,3.5,4.8,1.4,12.1,1.4,16.8-1,4.9-2.6,4.1-8.4,2.3-12.8-4-10.1-20.9-13.6-30.3-14.8-4.2-.5-8.5-.5-12.7,0-9.4,1.2-26.3,4.6-30.3,14.8-2.8,7.1-.7,13,7.1,15.2,2.8.8,5.7,1.4,8.5.6,2.3-.6,4.2-2.2,6.3-3.4,4.5-2.6,9.7-3.6,14.9-3.4Z" style="fill: #ffd174;"/>
            <path d="M170.6,182.6c-2.1,0-4.2-.5-6.1-1-3.9-1.1-6.7-3.2-8.1-6.1-1.5-3-1.4-6.8.2-10.9,4.3-10.8,21.5-14.4,31.4-15.6,4.3-.5,8.7-.5,13,0,9.9,1.2,27.1,4.9,31.4,15.6,2.7,6.9,1.7,12.1-2.9,14.5-5.1,2.7-12.8,2.6-17.8,1.1-1.7-.5-3.4-1.2-5-1.8-1.6-.6-3.2-1.2-4.8-1.7-2.4-.7-4.9-1.1-7.3-1.3h0c-5.2-.3-10.1.8-14.2,3.2-.5.3-1.1.7-1.6,1-1.5,1-3.1,2-5,2.5-1,.3-2.1.4-3.1.4ZM194.5,151.2c-2.1,0-4.1.1-6.2.4-9.3,1.1-25.5,4.5-29.2,13.9-1.3,3.4-1.4,6.4-.3,8.7,1.1,2.2,3.3,3.8,6.4,4.7,2.6.7,5.3,1.3,7.8.6,1.5-.4,2.8-1.3,4.3-2.2.6-.4,1.1-.7,1.7-1,4.5-2.6,9.9-3.8,15.7-3.6h0c2.7.1,5.4.6,8,1.4,1.7.5,3.4,1.1,5,1.8,1.6.6,3.2,1.2,4.8,1.7,4.4,1.3,11.4,1.4,15.7-.9,4.2-2.2,3.2-7.3,1.7-11.1-3.9-9.8-21.7-13-29.2-13.9-2.1-.3-4.1-.4-6.2-.4Z"/>
          </g>
          <g>
            <path d="M185.4,81.1c-.4-.3-.7-.6-.9-1-1.7-2.7-1.7-8.3-2.2-11.4-1.2-7.4-2.1-14.8-2.7-22.3-.2-2.9-.1-6.2,2.2-7.9,1.9-1.3,4.6-.9,6.4.5,1.8,1.4,2.9,3.6,3.6,5.7.6-3.6,1.2-7.3,3.3-10.3,2.1-3,6.1-5,9.5-3.6,2.3.9,3.8,3.2,4.5,5.6s.4,4.9.1,7.4c-.9,7.8-2,15.6-3.9,23.3s-1.3,8.7-3.3,10.4c-1.6,1.4-6.1,2.7-8.2,3.5-2.5,1-6.2,1.6-8.3,0Z" style="fill: #ffd174;"/>
            <path d="M188.8,83.4c-1.5,0-3-.3-4.2-1.2h0c-.5-.4-.9-.8-1.2-1.3-1.4-2.2-1.7-5.7-2-8.9-.1-1.1-.2-2.1-.4-3-1.3-7.4-2.2-15-2.7-22.4-.2-3.1-.1-7,2.7-9.1,2.2-1.6,5.6-1.4,8,.5.8.6,1.5,1.4,2.2,2.4.5-2.3,1.3-4.6,2.7-6.6,2.3-3.3,6.9-5.8,11.1-4.1,2.5,1,4.5,3.5,5.3,6.5.7,2.6.5,5.3.2,7.9-.9,7.5-2,15.5-4,23.4-.1.5-.3,1.3-.4,2.1-.8,4-1.6,7.5-3.3,9-1.3,1.2-4.1,2.1-6.5,3-.8.3-1.5.5-2.1.8-1.5.6-3.5,1.1-5.4,1.1ZM186.2,80c1.5,1.1,4.6.7,6.9-.3.6-.2,1.4-.5,2.2-.8,2-.7,4.6-1.6,5.6-2.5,1.2-1,2-5.1,2.5-7.5.2-.9.3-1.6.5-2.2,1.9-7.8,3-15.7,3.9-23.1.3-2.7.4-4.8-.1-6.9-.6-2.2-1.9-4-3.7-4.7-2.9-1.2-6.2.8-7.8,3.1-2,2.8-2.6,6.5-3.1,9.8,0,.6-.6,1.1-1.3,1.1-.6,0-1.2-.4-1.4-1-.7-2.4-1.7-4-3.1-5.1-1.3-1-3.4-1.4-4.8-.4-1.8,1.3-1.8,4.2-1.6,6.7.5,7.4,1.4,14.8,2.7,22.2.2.9.3,2,.4,3.2.3,2.7.6,6.1,1.6,7.7.1.2.3.4.6.6Z"/>
          </g>
          <path d="M114.8,271.4c-.7,0-1.3-.5-1.4-1.2-.7-7.2.3-14.5,3.1-21.2.3-.7,1.1-1,1.8-.7.7.3,1,1.1.7,1.8-2.6,6.3-3.6,13.2-2.9,19.9,0,.7-.5,1.4-1.2,1.5,0,0,0,0-.1,0Z" style="fill: #c48200;"/>
          <path d="M123.1,265.1c-.7,0-1.3-.6-1.4-1.3-.1-2.7-.2-5.2,0-7.6.3-3,1.2-5.5,2.5-7.6.4-.6,1.3-.8,1.9-.4.6.4.8,1.3.4,1.9-1.1,1.7-1.8,3.8-2.1,6.4-.3,2.4-.2,5.1,0,7.2,0,.8-.5,1.4-1.3,1.4h0Z" style="fill: #c48200;"/>
          <path d="M191.4,71.1c-.7,0-1.3-.5-1.4-1.2l-1.3-15.3c0-.7.5-1.4,1.2-1.5.8,0,1.4.5,1.5,1.2l1.3,15.3c0,.7-.5,1.4-1.2,1.5,0,0,0,0-.1,0Z" style="fill: #c48200;"/>
          <path d="M198.2,63.5c0,0-.1,0-.2,0-.7,0-1.3-.8-1.2-1.5l2.3-18c0-.7.8-1.3,1.5-1.2.7,0,1.3.8,1.2,1.5l-2.3,18c0,.7-.7,1.2-1.3,1.2Z" style="fill: #c48200;"/>
          <path d="M197.3,267.4c-11.7,0-20.8-2.2-21.4-2.3-.7-.2-1.2-.9-1-1.6.2-.7.9-1.2,1.6-1,.2,0,20.8,5,39.3,0,.7-.2,1.5.2,1.7,1,.2.7-.2,1.5-1,1.7-6.5,1.8-13.2,2.4-19.2,2.4Z"/>
          <path d="M216.9,367.3c-.6,0-1.2-.4-1.3-1-.9-3.7-.8-25.5-.8-28,0-.7.6-1.3,1.4-1.3h0c.8,0,1.4.6,1.3,1.4,0,6.6,0,24.4.7,27.3.2.7-.3,1.5-1,1.7-.1,0-.2,0-.3,0Z" style="fill: #c48200;"/>
          <path d="M171.9,367.3s0,0-.1,0c-.8,0-1.3-.7-1.3-1.5.2-2.3,0-9.8,0-9.8,0-.8.6-1.4,1.3-1.4.7,0,1.4.6,1.4,1.3,0,.3.2,7.7,0,10.1,0,.7-.7,1.3-1.4,1.3Z" style="fill: #c48200;"/>
          <path d="M169.1,350.7c-.8,0-1.4-.6-1.4-1.4v-12.9c0-.8.6-1.4,1.4-1.4s1.4.6,1.4,1.4v12.9c0,.8-.6,1.4-1.4,1.4Z" style="fill: #c48200;"/>
          <path d="M210.5,226.1c-3.5,0-7-.5-10.3-1.6-.5-.2-1.1-.4-1.6-.6-1.4-.5-2.8-1-4.2-1.2-1.3-.2-2.6-.1-4,0-.5,0-.9,0-1.4,0-6.5.1-13-1.5-18.7-4.7-.7-.4-.9-1.2-.5-1.9s1.2-.9,1.9-.5c5.3,2.9,11.3,4.4,17.4,4.3.4,0,.9,0,1.3,0,1.5,0,3-.1,4.5.1,1.7.2,3.2.8,4.7,1.3.5.2,1,.4,1.6.5,9.4,3.1,20.2,1.3,28.1-4.6.6-.4,1.5-.3,1.9.3.4.6.3,1.5-.3,1.9-5.8,4.3-13,6.6-20.3,6.6Z"/>
          <g>
            <path d="M194.4,166.8c.8,0,1.6,0,2.3,0,3.5.2,7,1.2,10.2,2.7,2.4,1.2,4.7,2.7,7.3,3,2.6.4,5.8-.9,6.3-3.5,1-4.7-4-6.5-7.5-7-4.9-.8-9.6-1.9-14.6-2.2-2.6-.2-5.2-.2-7.8,0-7.2.5-19.3,1-22.4,8.9-.3.7-.5,1.4-.3,2.1.2.8,1,1.4,1.8,1.8,3.5,1.5,7.4-.3,10.9-1.9,4.4-1.9,9-3.5,13.8-3.8Z" style="fill: #e34c52;"/>
            <path d="M172.6,174.3c-1.1,0-2.2-.2-3.4-.7-1.4-.6-2.3-1.5-2.6-2.7-.3-1.1,0-2.2.3-2.9,3.3-8.4,15.5-9.2,22.8-9.7h.8c2.7-.2,5.4-.2,8,0,3.4.2,6.8.8,10,1.4,1.6.3,3.1.6,4.7.8,2.1.3,6,1.3,7.8,3.9.9,1.4,1.2,3,.8,4.7-.7,3.4-4.7,5-7.8,4.6-2.3-.3-4.3-1.4-6.2-2.4-.5-.3-1-.5-1.6-.8-3.2-1.6-6.4-2.4-9.6-2.6-.7,0-1.5,0-2.2,0h0c-3.9.2-8.1,1.4-13.3,3.7-2.8,1.2-5.7,2.6-8.6,2.6ZM194.5,160.9c-1.3,0-2.6,0-3.8.1h-.8c-7.1.5-17.8,1.2-20.5,8-.2.5-.3.9-.2,1.2,0,.3.5.6,1.1.9,2.9,1.2,6.3-.3,9.6-1.8,5.7-2.5,10.2-3.8,14.5-4,.8,0,1.6,0,2.5,0,3.6.2,7.2,1.1,10.7,2.9.5.3,1.1.6,1.6.8,1.8.9,3.5,1.8,5.3,2.1,2,.3,4.4-.7,4.8-2.5.2-1,0-1.9-.4-2.6-.9-1.3-3.1-2.3-6-2.8-1.6-.2-3.2-.5-4.8-.8-3.3-.6-6.4-1.2-9.7-1.4-1.3,0-2.5-.1-3.8-.1ZM194.4,166.8h0,0Z"/>
          </g>
          <g>
            <path d="M161.8,99.7s17.8,12.8,25.7,5.6" style="fill: #67a9e4;"/>
            <path d="M181.2,108.9c-8.9,0-19.6-7.6-20.2-8-.6-.4-.8-1.3-.3-1.9.4-.6,1.3-.8,1.9-.3,4.7,3.4,18.2,11,24,5.7.6-.5,1.4-.5,1.9,0,.5.6.5,1.4,0,1.9-2,1.8-4.5,2.5-7.2,2.5Z"/>
          </g>
          <g>
            <path d="M189.6,109s2.4-2.9,2.4-6.2" style="fill: #67a9e4;"/>
            <path d="M189.6,110.3c-.3,0-.6-.1-.9-.3-.6-.5-.7-1.3-.2-1.9,0,0,2.1-2.6,2.1-5.3s.6-1.4,1.4-1.4,1.4.6,1.4,1.4c0,3.7-2.6,6.9-2.7,7.1-.3.3-.7.5-1,.5Z"/>
          </g>
          <g>
            <path d="M227.2,99.7s-17.8,12.8-25.7,5.6" style="fill: #67a9e4;"/>
            <path d="M207.8,108.9c-2.7,0-5.2-.7-7.2-2.5-.6-.5-.6-1.4,0-1.9s1.4-.6,1.9,0c5.8,5.3,19.3-2.3,24-5.7.6-.4,1.5-.3,1.9.3.4.6.3,1.5-.3,1.9-.6.4-11.4,8-20.2,8Z"/>
          </g>
          <g>
            <path d="M199.4,109s-2.4-2.9-2.4-6.2" style="fill: #67a9e4;"/>
            <path d="M199.4,110.3c-.4,0-.8-.2-1-.5-.1-.1-2.7-3.3-2.7-7.1s.6-1.4,1.4-1.4,1.4.6,1.4,1.4c0,2.7,2.1,5.3,2.1,5.3.5.6.4,1.4-.2,1.9-.3.2-.6.3-.9.3Z"/>
          </g>
        </g>
        <g>
          <g>
            <g>
              <path d="M286.5,264.1c-8.4-24.6-19.8-58.2-39.6-56.7-6.2.4-12.4.9-18.6,1.3-9.2.7-13.1,7.7-21.4,9.1-8.1,1.3-21.2,3.2-28.9-.3-2.9-1.3-4.3-5.2-7.4-6.8s-6-1.7-9-1.9c-6.2-.4-12.4-.9-18.5-1.3-19.7-1.4-31.2,32.1-39.6,56.7-9.9,29.1-15.9,61.5-17.2,94.5,12.8.7,23.4,21.8,36.1,18.9,9.6-2.2,12.4-3.3,21.5,1.8,6.3,3.5,12.7,8.6,20.4,7.3,5.8-1,10.5-5.7,16.4-6.1,9-.7,17,9,25.8,6.9,5.9-1.4,10.9-8,16.7-6.2,2.1.6,3.7,2.3,5.7,3.2,11,5,19.3-10.8,29.7-9.9,3.1.3,5.9,2.3,9,3,12.7,2.9,23.3-18.2,36.1-18.9-1.3-33-7.3-65.4-17.2-94.5Z" style="fill: #2e2e2e;"/>
              <path d="M203.9,389c-4,0-7.9-1.9-11.6-3.7-3.9-1.9-7.6-3.8-11.5-3.5-2.9.2-5.5,1.6-8.3,3-2.5,1.3-5.1,2.6-8,3.1-6.9,1.2-12.9-2.4-18.2-5.6-1-.6-2.1-1.2-3.1-1.8-8.1-4.6-10.6-4-18.9-2.1l-1.7.4c-7.5,1.7-14.1-4-20.5-9.5-5.2-4.5-10.5-9.1-16-9.4-.7,0-1.3-.7-1.3-1.4,1.3-32.7,7.3-65.5,17.3-94.9,8.3-24.4,19.6-57.7,39.6-57.7s.9,0,1.3,0l18.5,1.3c2.7.2,6.5.5,9.6,2.1,1.8.9,3,2.4,4.1,3.8,1,1.3,2,2.4,3.2,3,7.8,3.5,22.1,1.2,28.1.2,3.6-.6,6.3-2.3,9.2-4.2,3.5-2.2,7.1-4.5,12.3-4.9l18.6-1.3c20.8-1.4,32.5,32.7,41,57.7,10,29.4,15.9,62.2,17.3,94.9,0,.7-.5,1.4-1.3,1.4-5.5.3-10.8,4.9-16,9.4-6.4,5.5-13,11.2-20.5,9.5-1.4-.3-2.8-.9-4.1-1.5-1.6-.7-3.1-1.4-4.7-1.5-4.1-.4-8.1,2.3-12.2,5.2-5.5,3.8-11.2,7.7-18,4.6-1-.4-1.8-1-2.6-1.6-1-.7-1.9-1.3-2.9-1.6-2.9-.9-5.7.8-8.9,2.8-2.2,1.4-4.5,2.8-7.1,3.4-1,.2-1.9.3-2.9.3ZM181.5,379c4.2,0,8.2,1.9,12,3.8,4.3,2.1,8.4,4.2,12.6,3.2,2.1-.5,4.2-1.8,6.3-3.1,3.5-2.2,7-4.4,11.2-3.1,1.4.4,2.5,1.2,3.7,1.9.8.5,1.5,1,2.3,1.3,5.4,2.4,10.2-.9,15.3-4.4,4.4-3,8.9-6.1,14-5.6,1.9.2,3.8,1,5.5,1.7,1.3.6,2.5,1.1,3.7,1.3,6.2,1.4,11.9-3.6,18.1-8.9,5.1-4.4,10.4-9,16.3-9.9-1.4-32-7.3-64.1-17.1-92.8-8-23.6-19-55.9-37.1-55.9s-.7,0-1.1,0l-18.6,1.3c-4.6.3-7.7,2.4-11.1,4.5-3,1.9-6.1,3.9-10.2,4.6-10.4,1.7-22.1,3-29.7-.4-1.7-.8-3-2.3-4.2-3.7-1-1.3-2-2.5-3.3-3.2-2.4-1.3-5.3-1.6-8.5-1.8l-18.5-1.3c-18.8-1.3-30,31.7-38.2,55.8-9.8,28.8-15.7,60.8-17.1,92.8,5.9.9,11.2,5.5,16.3,9.9,6.1,5.3,11.9,10.3,18.1,8.9l1.7-.4c8.4-1.9,11.8-2.7,20.8,2.4,1,.6,2.1,1.2,3.1,1.9,5.1,3.1,10.4,6.3,16.3,5.2,2.5-.4,4.8-1.6,7.2-2.9,2.9-1.5,5.9-3,9.3-3.3.3,0,.7,0,1,0Z"/>
            </g>
            <path d="M220.4,279.7c-.7.5-1,1.3-1.3,2.1-1.5,4.6-2.3,9.4-2.4,14.3,0,2.6.9,6,3.5,5.9,3,0,3.3-4.4,5.3-6.6,2.7,5.6-.1,13.3,4,18,1.5-3.1,2.9-6.1,4.4-9.2.5-1.1,1.2-2.4,2.4-2.6,1.3-.2,2.4.9,3.1,1.9,4.1,6.2,3,15.7,9.2,19.8,1.7-1.1,1.8-3.5,1.8-5.5,0-8.6,0-17.2.1-25.8,2.8,1.9,5.3,4.2,7.4,6.9,2-4.7,1.1-10.4-2.2-14.3,1.9-.1,3.8-.2,5.7-.3-.3-6.6-3.1-12.8-5.8-18.8-3-6.6-5.2-4.7-9.2-1.4s-5.8,2.5-9.8,2.6c-3.4,0-6-.2-8.1,2.9-1.3,1.9-.8,4.7-2.1,6.7-2,2.9-3.8,1.7-6.3,3.4Z" style="fill: #584e3a;"/>
            <path d="M239,337.8h0c-.8,0-1.3-.7-1.3-1.4.3-7.9-3.2-41.5-5.5-63.7-.9-8.4-1.6-15-1.8-18,0-.7.5-1.4,1.2-1.5.7,0,1.4.5,1.5,1.2.3,3,.9,9.6,1.8,17.9,2.3,22.3,5.9,56.1,5.5,64.1,0,.7-.6,1.3-1.4,1.3Z"/>
            <path d="M272.8,280.8c-.7,0-1.3-.5-1.4-1.2-1.2-10.6-4.5-21.1-9.5-30.5l-.9-1.7c-1.6-3-3.3-6-4-9.4-.2-.7.3-1.5,1-1.6.7-.2,1.5.3,1.6,1,.6,3,2.2,5.8,3.8,8.7l.9,1.7c5.2,9.7,8.6,20.6,9.8,31.5,0,.7-.5,1.4-1.2,1.5,0,0-.1,0-.2,0Z"/>
            <g>
              <path d="M131.5,204.8c-3.9-1.4-7.7,3.5-6.9,7.6.9,4.1,4.5,6.9,8.1,9,10.4,6.1,24.3,11.2,36.4,12.4,15.6,1.5,31.6,8,47.4,5.5,1.1-.2,2.2-.4,3-1.2.8-.7,1.2-1.8,1.8-2.7,3-4.9,11.9-5.9,16.9-7.6,7.3-2.5,14.2-4.6,20.6-9.2,4.4-3.2,8.5-8.9,5.9-13.7-.9-1.7-2.5-3-3.2-4.7-1.4-3.9,2-8.8-.4-12.1-1.5-2-4.6-2.3-6.9-1.3-2.3,1-4.1,2.9-6,4.6-14.7,13.6-35.9,18.2-55.8,16.7-14.8-1.1-29.1-5.3-43-10.2-3.8-1.3-12.1-6.2-16.3-4.7-3.5,1.3-6.7,10.1-1.7,11.9Z" style="fill: #2e2e2e;"/>
              <path d="M208.9,241.2c-7.9,0-15.8-1.6-23.5-3.2-5.4-1.1-11-2.3-16.4-2.8-11.4-1.1-25.6-6-37-12.6-3.3-1.9-7.7-5-8.7-9.9-.6-2.7.5-5.9,2.8-7.8.7-.6,1.4-1,2.1-1.3-.4-.8-.6-1.8-.6-2.9,0-3.8,2.5-8.1,5.2-9,3.7-1.3,9.2,1.2,13.7,3.3,1.4.6,2.6,1.2,3.5,1.5,12.3,4.3,27,8.9,42.7,10.1,21.8,1.7,41.8-4.3,54.8-16.3l.7-.7c1.7-1.6,3.4-3.2,5.7-4.1,2.8-1.1,6.6-.9,8.5,1.8,1.7,2.3,1.1,5,.7,7.5-.3,1.8-.7,3.6-.1,5,.3.8.9,1.5,1.5,2.3.5.7,1.1,1.4,1.6,2.2,2.8,5.4-1.1,11.6-6.3,15.5-5.8,4.3-12,6.4-18.5,8.6l-2.4.8c-1.3.4-2.8.8-4.4,1.2-4.6,1.2-9.9,2.6-11.9,5.8-.2.3-.3.5-.4.8-.4.7-.8,1.6-1.6,2.3-1.1.9-2.4,1.3-3.7,1.5-2.6.4-5.3.6-7.9.6ZM130.1,205.9c-1,0-1.8.6-2.3,1-1.5,1.3-2.3,3.5-1.9,5.2.8,3.8,4.6,6.4,7.5,8.1,11.1,6.5,24.8,11.2,35.9,12.3,5.6.5,11.2,1.7,16.7,2.9,10,2.1,20.4,4.2,30.4,2.6.8-.1,1.8-.3,2.4-.8.4-.3.7-.9,1-1.5.2-.3.3-.6.5-1,2.5-4.2,8.4-5.7,13.5-7,1.5-.4,3-.8,4.2-1.2l2.4-.8c6.3-2.2,12.3-4.2,17.7-8.2,4.1-3,7.6-8.1,5.5-12-.3-.6-.8-1.2-1.3-1.8-.7-.9-1.5-1.9-1.9-3.1-.8-2.1-.4-4.4,0-6.4.4-2.2.8-4-.2-5.4-1.1-1.5-3.5-1.6-5.3-.9-1.8.7-3.3,2.1-4.8,3.6l-.8.7c-13.5,12.5-34.3,18.7-56.8,17-15.9-1.2-30.9-5.8-43.4-10.2-1-.4-2.3-.9-3.7-1.6-3.6-1.6-9.1-4.1-11.7-3.2-1.5.5-3.4,3.7-3.4,6.5,0,2.3,1.3,2.7,1.7,2.9l-.9,2.6c-.3-.1-.6-.2-.9-.2Z"/>
            </g>
            <g>
              <path d="M291.6,115.9c-.7-16.3-7.4-27.2-18.9-38.4-12.1-11.6-24.2-23.3-37.7-33.3-10.9-8.1-27.3-20.5-41.3-20.9-25.6-.7-53.7,25.9-68.9,43.9-10.7,12.7-19.1,27.4-24.2,43.2-3.3,10.4-5.3,21.4-3.8,32.3,2.1,14.9,10.7,28.1,20.6,39.3,8.4,9.4,18.4,20.3,30.8,23.7,8,2.2,15.7,2.7,23.9,3.3,9.5.7,18.8,3.8,28.3,4.8,8.1.9,16.8.7,24.5-2.4,3.1-1.2,5.2-3.5,8.1-4.9,3.8-1.8,9.1-2,13.2-3,15.4-3.7,20.9-18.2,26.9-31.9,5.1-11.7,10.2-23.4,14.6-35.5,2.3-6.5,4.5-13.2,4.2-20.1ZM252.6,171c-1.1,2.1-2.3,4.1-3.5,6.1-.4-1.2-.8-2.4-1.2-3.6.1.4-8.7,14.1-10.2,15.5-4.8,4.6-11.7,6.7-18.1,7.7-19,2.9-37.1,2.2-55.6-3.5,0-.1-7.5-3.4-8.2-4.1-1.8-1.7-2.6-3.7-4.7-5.5-.4.7-.5,1.6-.3,2.4-2.3-2.1-4.5-4.1-6.8-6.2,0,1.5,0,3.1-.3,4.6-3.7-2.8-7-5.9-10-9.4,1.9.2,3.9.4,5.8.5-3.2-4.2-6.1-8.6-8.8-13.1,1.4.2,2.8.4,4.2.6-6.2-7.9-6.3-23.8-1.6-32.3,4.5-8.2,17.9-9.4,26.1-10.4s10.9-1,16.4-1.4c5.3-.4,10.6-2.1,15.7-2.2-1.7-1.7-3.3-3.6-4.6-5.7,3,.8,6,2,8.7,3.5.4-1.8.7-3.6,1.1-5.4,0-.4.2-.8.5-1,.7-.5,1.6.1,2.2.7,1.5,1.6,3.1,3.2,4.6,4.9,1.7-.7.3-3.5,1.5-4.2,1.2-.6,4.9,3.7,5.9,4.6,1.5,1.3,3.1,2.6,5,3.2,1.4.5,2.8.6,4.2.8,3.9.5,7.5,2,11.3,2.2s9.2.7,13.8,1.5c3.5.6,7.1,1.4,9.9,3.5,5.4,4.1,4.7,12.2,3.7,18.2-.8,4.5-6.8,15.7-4.6,19.5.5-.1,1-.3,1.5-.5-.8,2.9-2,5.8-3.5,8.6Z" style="fill: #2e2e2e;"/>
              <path d="M208.1,215.6c-2.6,0-5.3-.2-8.1-.5-4.4-.5-8.8-1.4-13-2.3-5-1-10.1-2.1-15.2-2.5-8.2-.6-16-1.2-24.1-3.4-12.3-3.3-21.9-13.3-31.5-24.1-12.2-13.8-19.1-26.9-20.9-40-1.4-9.7,0-20.5,3.9-32.9,5-15.6,13.5-30.7,24.5-43.7,34.6-40.8,60.5-44.5,70-44.3,14.1.4,30.4,12.5,41.2,20.5l.9.7c13.9,10.3,26.6,22.6,37.9,33.4,13.1,12.6,18.7,24,19.4,39.3h0c.3,7.3-2,14.5-4.2,20.6-4.3,12.1-9.6,24-14.6,35.6l-1,2.2c-5.7,13.2-11.6,26.8-26.9,30.5-1.5.4-3.1.6-4.7.9-2.9.4-5.9.9-8.2,2-1.2.6-2.3,1.3-3.4,2.1-1.4,1-2.9,2.1-4.8,2.8-5,2-10.6,3-17,3ZM192.5,24.7c-27.9,0-58.2,33.1-66.9,43.4-10.8,12.7-19.1,27.5-23.9,42.7-3.8,12-5.1,22.4-3.8,31.6,1.8,12.6,8.4,25.2,20.3,38.6,9.3,10.5,18.6,20.1,30.2,23.3,7.9,2.1,15.5,2.7,23.6,3.3,5.3.4,10.5,1.5,15.6,2.6,4.2.9,8.5,1.8,12.8,2.3,9.5,1.1,17.2.3,23.8-2.3,1.5-.6,2.8-1.5,4.2-2.5,1.2-.8,2.4-1.7,3.8-2.4,2.7-1.3,5.9-1.8,9-2.3,1.6-.2,3.1-.5,4.5-.8,14-3.4,19.3-15.8,25-29l1-2.2c5-11.5,10.2-23.4,14.5-35.4,2.1-5.9,4.4-12.8,4.1-19.6h0c-.6-14.5-6-25.4-18.5-37.5-11.2-10.8-23.8-22.9-37.6-33.1l-.9-.7c-10.5-7.8-26.5-19.6-39.7-20-.3,0-.6,0-.9,0ZM198.3,199.6c-12,0-23.4-1.7-34.7-5.3-.2,0-.3-.1-.4-.2-.3-.2-1.3-.6-2.5-1.2-3.9-1.8-5.4-2.5-5.9-3-1-.9-1.6-1.8-2.3-2.7-.2-.3-.4-.5-.6-.8-.1.2-.3.4-.5.6-.5.3-1.2.3-1.6-.2l-4.6-4.2c0,.6-.1,1.2-.2,1.8,0,.5-.4.9-.8,1.1-.4.2-1,.1-1.3-.2-3.7-2.8-7.2-6-10.2-9.6-.4-.4-.4-1-.2-1.5.3-.5.8-.8,1.3-.7l2.8.3c-2.5-3.5-4.9-7.1-7.1-10.8-.3-.4-.3-1,0-1.5.3-.4.8-.7,1.3-.6l1.2.2c-4.9-9-4.3-23.4,0-31.2,4.7-8.4,17.5-10,26-11h1.1c4.5-.7,9.1-1,13.6-1.4l2.8-.2c2.4-.2,4.8-.6,7.2-1.1,1.9-.4,3.8-.7,5.7-.9-1.1-1.3-2.1-2.5-2.9-3.8-.3-.5-.3-1.1,0-1.5.3-.5.9-.7,1.4-.5,2.6.7,5,1.6,7.4,2.8l.7-3.6c0-.4.3-1.3,1-1.8.9-.7,2.4-.9,4,.8l3.2,3.4c0-.9,0-2.3,1.3-2.9,1.7-.9,3.6.9,6.5,3.8.4.4.8.8,1,1,1.4,1.2,2.9,2.4,4.5,3,1,.4,2.1.5,3.2.6h.7c1.7.3,3.4.8,5,1.2,2.1.5,4.1,1,6.2,1.1,5.4.3,9.8.8,13.9,1.5,3.6.6,7.4,1.4,10.5,3.8,6,4.6,5.3,13.3,4.2,19.5-.3,1.6-1.1,3.8-2.1,6.4-1.3,3.5-3.2,8.6-3,11.2,0,0,.1,0,.2,0,.5-.2,1,0,1.4.3.4.3.5.9.4,1.3-.7,2.7-1.9,5.6-3.6,8.9h0c-1.1,2.1-2.3,4.2-3.5,6.1-.3.5-.8.7-1.3.7-.5,0-1-.4-1.1-.9l-.2-.7c-2.9,5-8.8,13-8.9,13.1-4.3,4.1-10.5,6.8-18.9,8-7.5,1.1-14.6,1.7-21.5,1.7ZM164.5,191.8c17.4,5.4,34.8,6.5,54.9,3.4,7.7-1.2,13.6-3.6,17.4-7.3,1.1-1.1,9-13.2,9.8-14.8.1-.4.4-.8.9-1,.7-.2,1.5.1,1.7.8h0s.3.8.3.8c.6-1.1,1.3-2.3,1.9-3.4,0,0,0,0,0,0,1.2-2.3,2.1-4.3,2.7-6.2-.3-.1-.6-.3-.7-.6-1.8-3.1.4-8.9,2.5-14.5.9-2.3,1.7-4.5,2-5.9,1-5.5,1.7-13.1-3.1-16.8-2.5-1.9-5.8-2.6-9.3-3.2-4-.7-8.3-1.2-13.6-1.5-2.3-.1-4.5-.7-6.7-1.2-1.6-.4-3.2-.8-4.8-1h-.7c-1.2-.3-2.5-.4-3.8-.9-2.1-.7-3.8-2.1-5.4-3.5-.3-.2-.7-.7-1.2-1.2-.6-.6-2.1-2.1-3.1-2.8,0,0,0,.1,0,.2,0,1.1,0,2.8-1.8,3.6-.5.2-1.1,0-1.5-.3l-4.6-4.9c-.1-.1-.2-.2-.3-.3l-1.1,5.4c0,.4-.4.8-.8,1-.4.2-.9.2-1.2,0-1.4-.8-2.9-1.5-4.4-2.1.6.7,1.2,1.3,1.9,2,.4.4.5,1,.3,1.5-.2.5-.7.8-1.2.9-2.6,0-5.3.6-8.2,1.1-2.4.5-5,.9-7.5,1.1l-2.9.2c-4.4.3-9,.7-13.4,1.2h-1.1c-7.9,1.1-19.9,2.6-23.9,9.8-4.3,7.7-4.6,23.2,1.4,30.8.3.4.4,1,.1,1.5s-.8.7-1.4.7l-1.3-.2c2.2,3.6,4.7,7.1,7.2,10.5.3.4.4,1,.1,1.5s-.8.8-1.3.7l-2.4-.2c1.7,1.8,3.6,3.5,5.6,5.1,0-.7,0-1.3,0-2,0-.5.3-1,.8-1.3.5-.2,1.1-.1,1.5.2l4.8,4.4c0-.1.1-.2.2-.3.2-.3.6-.6.9-.6.4,0,.8,0,1.1.3,1.3,1.1,2.1,2.2,2.8,3.2.6.8,1.2,1.6,1.9,2.3.4.3,3.5,1.8,5.2,2.5,1.3.6,2.2,1,2.7,1.3Z"/>
            </g>
            <path d="M153.9,322.6c-.7,0-1.3-.6-1.4-1.3-.4-10.1,2.7-47.2,4.1-63.1l.3-3.7c0-.8.8-1.3,1.5-1.2.8,0,1.3.7,1.2,1.5l-.3,3.8c-1.2,14.5-4.5,52.9-4.1,62.8,0,.8-.6,1.4-1.3,1.4h0Z"/>
            <path d="M117.2,280.8c0,0-.1,0-.2,0-.7,0-1.3-.8-1.2-1.5,1.2-10.9,4.6-21.8,9.8-31.5l.9-1.7c1.6-2.9,3.1-5.7,3.8-8.7.2-.7.9-1.2,1.6-1,.7.2,1.2.9,1,1.6-.7,3.4-2.4,6.5-4,9.5l-.9,1.7c-5,9.4-8.3,19.9-9.5,30.5,0,.7-.7,1.2-1.4,1.2Z"/>
          </g>
          <path d="M192.6,345.8c-.7,0-1.2-.5-1.3-1.2-2.6-18.4-3.5-37.1-2.6-55.6,0-.8.7-1.3,1.4-1.3.8,0,1.3.7,1.3,1.4-.9,18.3,0,36.9,2.6,55.1.1.7-.4,1.4-1.2,1.5,0,0-.1,0-.2,0Z"/>
        </g>
        <path d="M148.9,75.1c-.5.6-.6,1.3-.7,2.1-.2,2.2.1,4.5,1.1,6.6.4.8.8,1.6.6,2.4-.2.9-1.1,1.5-2,1.9-1.2.5-2.4,1-3.6,1.3-.8.2-1.6.4-2.2,1s-.9,1.6-.3,2.2c.3.3.8.4,1.2.5,3.1.6,6.3.5,9.4-.1,1.6-.3,3.3-.8,4.8-.1,1.2.5,1.9,1.7,3,2.4,1,.6,2.1.8,3.2,1.1,2.2.4,4.9.6,6-1.3.8-1.4.2-3.2.6-4.8.5-2.3,2.8-3.7,5.1-4.4,2.2-.7,4.7-1,6.6-2.4.9-.6,1.7-1.7,1.4-2.7-.4-1.3-2.1-1.5-3.5-1.8-3.9-.8-4.5-3.4-6.4-6.2-2.9-4.4-2.1-2.9-6.3-.2-5.1,3.3-14-1.9-17.9,2.8Z" style="fill: #584e3a;"/>
        <path d="M258.9,100.3c.7,1.9,1.6,3.7,1.8,5.8.1,1.1,0,2.2.7,3.1.4.5.9.8,1.3,1.1,1.8,1.2,3.3,2.8,4.3,4.7,1.4,2.6,1.9,5.6,3.8,7.8.5.7,1.5,1.3,2.2.8.4-.3.6-.8.7-1.3.6-2.5.4-5.2-.4-7.7,1.4,1.1,2.4,2.7,2.9,4.4,1.2-2.3.2-5.2-1.4-7.3-1.6-2.1-3.6-3.8-4.8-6.2-1.9-3.8-1-11.1-5.7-13.1-5.3-2.4-6.8,4-5.4,7.9Z" style="fill: #584e3a;"/>
        <path d="M112,147.8c-.9,3.3,1.5,6.4,3.7,9.1.2.2.4.5.3.8,0,.3-.4.4-.7.5-.7.2-1.5.4-2.2.6.8,1.5,1.7,3,2.5,4.5,2.6,4.3,5.1,8.6,7.7,12.8.5.9,1.3,1.9,2.3,1.9.9,0,1.6-.9,1.7-1.8.1-.9-.2-1.8-.5-2.7-1.2-3.3-2.8-6.5-4.7-9.5.9,0,1.6-.8,1.6-1.7,0-.9-.4-1.7-.8-2.5-1.9-3.6-5.1-14-11.1-12Z" style="fill: #584e3a;"/>
        <path d="M171,214c-.5.4-1,.9-1.5,1.3-1.6,1.1-3.8.7-5.7.5-2.7-.3-5.6-.2-8.2.5-.4.8.6,1.7,1.5,2.1,2.4,1.1,4.9,2.2,7.3,3.3-1.3.8-2.5,1.7-3.8,2.5,3.6,1.8,7.6,2.6,11.5,3.3,5.2,1,10.4,1.9,15.6,2.9-1.4-1.6-3.3-2.8-5.4-3.4,2.2-.8,4.5-1.5,6.7-2.3,1.8-.6,3.9-1.9,3.4-3.7,0,.3-10.5-3-11.5-3.6-2.6-1.7-6.5-5.8-9.9-3.4Z" style="fill: #584e3a;"/>
        <path d="M201.9,226.3c-8.8,0-17.4-1.1-26-3.4-.7-.2-1.2-.9-1-1.7.2-.7,1-1.2,1.7-1,11.2,3,22.7,3.9,34.2,2.9.7,0,1.4.5,1.5,1.2s-.5,1.4-1.2,1.5c-3.1.3-6.1.4-9.2.4Z"/>
        <path d="M237.7,154c-.1,0-.3,0-.4,0-.7,0-1.3-.8-1.2-1.5,0-.7.8-1.3,1.5-1.2.5,0,1.2-.5,1.5-.8,3.2-2.6,6-5.7,8.3-9.1.4-.6,1.3-.8,1.9-.4.6.4.8,1.3.4,1.9-2.5,3.7-5.5,7-8.9,9.7-.6.5-1.7,1.4-3.1,1.4Z" style="fill: #215c8d;"/>
        <path d="M153,154.9c0,0-.2,0-.2,0-3.7-.6-6.4-3.4-8.2-5.5-1.9-2.2-3.6-4.6-5-7.1-.7-1.3-1.4-2.7-1.2-4.3.1-.7.8-1.2,1.5-1.1.7.1,1.3.8,1.1,1.5-.1.8.3,1.7.8,2.6,1.3,2.4,2.9,4.6,4.7,6.7,1.5,1.7,3.8,4.1,6.6,4.6.7.1,1.2.8,1.1,1.6-.1.7-.7,1.1-1.3,1.1Z" style="fill: #215c8d;"/>
        <path d="M224.4,188.4c-.9,0-1.8,0-2.7-.3-.7-.2-1.2-.9-1.1-1.6.2-.7.9-1.2,1.6-1.1,3.4.7,7.2-.3,9.7-2.7.8-.8,1.6-1.7,2.3-2.7l2.9-3.7c.5-.6,1.3-.7,1.9-.2.6.5.7,1.3.2,1.9l-2.9,3.7c-.8,1-1.6,2.1-2.6,3-2.5,2.4-6,3.7-9.4,3.7Z" style="fill: #215c8d;"/>
        <path d="M162.9,188.3c-1.3,0-2.7-.4-4.1-1.1-2-1.1-3.6-2.8-5-4.3l-6.6-7.1c-.5-.6-.5-1.4,0-1.9.5-.5,1.4-.5,1.9,0l6.6,7.1c1.3,1.4,2.7,2.9,4.3,3.8,1.3.7,3.2,1.1,4.6.3.7-.4,1.5-.1,1.8.5.4.7.1,1.5-.5,1.8-.9.5-2,.8-3.2.8Z" style="fill: #215c8d;"/>
        <path d="M297,153.7c-.2,0-.5,0-.7-.2l-.9-.5c-.6-.4-.9-1.2-.5-1.9.4-.6,1.2-.9,1.9-.5h0c0-.3.1-.8,0-1.2,0-.3-.2-.6-.3-.9-.3-1-.7-2.2-.4-3.5.2-.8.6-1.4,1-2,.3-.5.6-.9.6-1.3,0-.4-.3-1-.7-1.6l-.2-.3c-1-1.6-1.1-3.1-.4-4.2.3-.4.6-.8.9-1l.2-.2c1.1-1.1,1-3.2.7-5.2-.1-.7.4-1.4,1.2-1.5.8-.1,1.4.4,1.5,1.2.3,1.9.7,5.4-1.5,7.6-.1.1-.2.2-.4.3-.2.1-.3.3-.4.4-.1.2,0,.7.4,1.4l.2.3c.5.8,1.2,1.9,1.1,3.2,0,1.1-.6,1.9-1.1,2.6-.3.4-.5.8-.6,1.2-.1.5,0,1.2.3,2,.1.4.2.7.3,1.1.4,1.9-.2,4.3-2.2,4.9-.1,0-.2,0-.4,0Z"/>
        <path d="M300.4,122.1c-.8,0-1.4-.6-1.4-1.4v-2.5c0-.8.6-1.4,1.4-1.4s1.4.6,1.4,1.4v2.5c0,.8-.6,1.4-1.4,1.4Z"/>
        <path d="M298.9,104.7c-.1,0-.3,0-.4,0-1.3-.4-2.1-1.8-2-3.6,0-.3,0-.5,0-.8,0-.5,0-1,0-1.3,0-.2-.3-.5-.6-.8-.5-.6-1.1-1.4-1.1-2.5,0-.5.1-.9.2-1.3v-.3c.4-1.5-1-3.2-2.2-4.3-.5-.4-1-1-1.3-1.8-.2-.7,0-1.3,0-1.8.4-1.9,0-3.8-1-5.3-.4-.6-.2-1.5.4-1.9.6-.4,1.5-.2,1.9.4,1.4,2.1,1.9,4.7,1.5,7.2,0,.4-.1.6-.1.7,0,.1.3.4.5.5,3.2,2.9,3.4,5.4,3.1,7,0,.2,0,.3-.1.5,0,.2-.1.4-.1.5,0,.2.3.6.6.9.3.4.7.9,1,1.6.3.9.3,1.8.2,2.5,0,.2,0,.4,0,.6,0,.5.1.9.2.9.7.2,1.1,1,.8,1.7-.2.6-.7.9-1.3.9Z"/>
        <path d="M106.1,188.9c0,0-.1,0-.2,0-1.4-.2-2.5-1.3-3.2-3.1l-.2-.7c-.2-.7-.5-1.3-.9-1.7-.3-.3-.9-.6-1.6-.9-1-.4-2.2-.9-2.9-2.1-.6-1-.6-2.1-.6-3.1,0-.7,0-1.4-.3-1.7-.1-.2-.5-.4-.8-.6l-.4-.2c-1.7-1.1-2.9-2.8-3.5-4.7-.2-.7.2-1.5.9-1.7.7-.2,1.5.2,1.7.9.4,1.3,1.3,2.5,2.4,3.2l.3.2c.5.3,1.1.7,1.5,1.3.8,1.1.8,2.4.8,3.4,0,.7,0,1.3.2,1.7.3.4.9.7,1.6,1,.8.3,1.7.7,2.4,1.4.8.8,1.2,1.9,1.5,2.8l.2.6c.3.8.7,1.3,1.1,1.4.7.1,1.3.8,1.1,1.6-.1.7-.7,1.2-1.3,1.2Z"/>
        <path d="M114,196.3c-.3,0-.5,0-.7-.2-.3-.2-.6-.5-.7-.9-.6-.6-1.1-1.3-1.4-2.1-.2-.7.2-1.5.9-1.7.7-.2,1.5.2,1.7.9.1.4.4.8.8,1.1.6.4.9.8.9,1.4,0,.5-.3,1.1-.7,1.3-.2.1-.5.2-.8.2ZM113.2,195.6h0,0Z"/>
        <path d="M292.7,244.4c-.1,0-.2,0-.3,0-.7-.2-1.2-.9-1-1.6.1-.6-.3-1.3-1.1-2.3-.6-.8-1.2-1.7-1.5-2.8-.4-1.2-.2-2.4,0-3.5.1-.8.2-1.6,0-2.3-.3-1.1-1.3-2-2.5-2.9l-.5-.4c-2.8-2.3-3.1-4.4-2.9-5.8.1-.7.9-1.2,1.6-1.1.7.1,1.2.9,1.1,1.6-.2,1.2,1.1,2.5,1.9,3.2l.4.4c1.4,1.1,2.9,2.4,3.4,4.3.3,1.2.1,2.3,0,3.4-.1.9-.3,1.7,0,2.4.2.6.6,1.2,1.1,1.9.9,1.2,1.9,2.7,1.5,4.5-.1.6-.7,1.1-1.3,1.1Z"/>
        <path d="M294.2,251.3c-.6,0-1.2-.5-1.3-1.1l-.4-1.8c-.1-.7.3-1.5,1.1-1.6.7-.1,1.5.3,1.6,1.1l.4,1.8c.1.7-.3,1.5-1.1,1.6,0,0-.2,0-.3,0Z"/>
        <path d="M99.8,236.4c-.5,0-1-.3-1.2-.7-.3-.7,0-1.5.6-1.8.3-.2.3-.9.3-1.9,0-1.3,0-2.8,1.1-4,.4-.4.9-.7,1.2-.9.3-.2.6-.3.6-.4,0-.2,0-.6,0-1,0-.7,0-1.5.3-2.4.6-1.3,1.8-1.7,2.8-2,.5-.2,1.1-.4,1.3-.6.2-.3.3-.8.4-1.4,0-.2,0-.5.1-.7.3-1.5,1.4-3.1,3-3.1s0,0,0,0c.8,0,1.3.6,1.3,1.4,0,.7-.6,1.3-1.4,1.3h0c-.1,0-.3.4-.4.9,0,.2,0,.4,0,.6-.1.8-.3,1.9-1,2.8-.7.8-1.7,1.2-2.5,1.4-.5.2-1.1.4-1.2.6,0,.2,0,.6,0,1,0,.8.1,1.7-.4,2.6-.4.7-1.1,1.1-1.6,1.4-.3.1-.5.3-.6.4-.4.4-.4,1.3-.4,2.1,0,1.4,0,3.4-1.8,4.3-.2.1-.4.2-.6.2Z"/>
        <g>
          <path d="M222.2,132.9c-2.3.5-4.6,1.7-6.1,3.6-.7.9-1.3,2.2-.8,3.3.6,1.5,2.6,1.8,4.3,1.8,4.3,0,8.6,0,12.9.1.7,0,1.4,0,2.1-.1,1.7-.4,3.2-2.1,3-3.8-.2-1.2-1.1-2.2-2-3-3.6-3.2-8.8-2.9-13.3-1.9Z" style="fill: #ccf3ff;"/>
          <path d="M232.9,143.1c-.2,0-.3,0-.5,0h-12.9c-1.1-.2-4.5-.2-5.5-2.8-.6-1.4-.2-3.1,1-4.6s4-3.5,6.8-4.1h0c6.4-1.5,11.2-.8,14.5,2.2,1,.9,2.2,2.1,2.4,3.9.3,2.4-1.5,4.8-4,5.3-.7.1-1.3.2-1.9.2ZM222.5,134.2h0c-2.2.5-4.1,1.6-5.3,3.2-.4.6-.9,1.4-.6,1.9.2.6,1.3.9,3,1h12.9c.6.2,1.2.2,1.8,0,1.1-.3,2.1-1.4,1.9-2.3,0-.7-.6-1.3-1.5-2.2-2.6-2.3-6.6-2.9-12.1-1.6Z"/>
        </g>
        <g>
          <path d="M167.2,132.9c2.3.5,4.6,1.7,6.1,3.6.7.9,1.3,2.2.8,3.3-.6,1.5-2.6,1.8-4.3,1.8-4.3,0-8.6,0-12.9.1-.7,0-1.4,0-2.1-.1-1.7-.4-3.2-2.1-3-3.8.2-1.2,1.1-2.2,2-3,3.6-3.2,8.8-2.9,13.3-1.9Z" style="fill: #ccf3ff;"/>
          <path d="M156.5,143.1c-.6,0-1.2,0-1.9-.2-2.5-.6-4.4-3-4-5.3.2-1.7,1.4-3,2.4-3.9,3.4-3,8.1-3.7,14.5-2.2,2.9.7,5.3,2.1,6.8,4.1,1.2,1.5,1.6,3.2,1,4.6-1.1,2.6-4.4,2.6-5.5,2.7h-12.9c-.2.1-.3.2-.5.2ZM161.6,133.5c-2.8,0-5.1.7-6.8,2.3-1,.9-1.4,1.5-1.5,2.2-.1,1,.8,2.1,1.9,2.3.5.1,1.1.1,1.7.1h12.9c1.7-.2,2.8-.5,3-1.1.2-.5-.2-1.3-.6-1.9-1.2-1.5-3.1-2.6-5.3-3.2h0c-2-.5-3.7-.7-5.3-.7Z"/>
        </g>
      </g>
    </g>
  </g>
</svg>