<?xml version="1.0" encoding="utf-8"?>
<!-- Generator: Adobe Illustrator 25.0.0, SVG Export Plug-In . SVG Version: 6.00 Build 0)  -->
<svg version="1.1" id="Layer_1" xmlns="http://www.w3.org/2000/svg" xmlns:xlink="http://www.w3.org/1999/xlink" x="0px" y="0px"
	 viewBox="0 0 200 250" style="enable-background:new 0 0 200 250;" xml:space="preserve">
<g>
	<path style="fill:#C2DEFF;" d="M20.4,116.7l10.9-5.1l1.8,6.7c-5.2,1.8-12.2,1.1-12.2,1.1L20.4,116.7z"/>
	<g>
		<g>
			<g>
				<g>
					<g>
						<g>
							<g>
								<g>
									<g>
										<g>
											<circle style="fill:#181F41;" cx="98.3" cy="88.3" r="72.6"/>
											<path style="fill:#181F41;" d="M47.8,143.4c0,0,15.3,17.2,15.3,26.8h35.2h35.2c0-9.6,15.3-26.8,15.3-26.8H47.8z"/>
											<g>
												<path style="fill:#FFFFFF;" d="M40.7,132.6c10.8,20.7,32.5,34.9,57.5,34.9s46.7-14.1,57.5-34.9H40.7z"/>
											</g>
											<path style="fill:#B8D0FF;" d="M135,132.6c-9.3,17.8-26.6,30.7-47.1,34c3.4,0.5,6.9,0.8,10.4,0.8
												c25,0,46.7-14.1,57.5-34.9H135V132.6z"/>
										</g>
										<path style="fill:#FFFFFF;" d="M98.3,143.4H47.8c0,0,0,44.4,19.6,72.6c4.7,7.5,12.6,13.9,15.1,15.8c0.5,0.4,1,0.6,1.6,0.6
											h14.2h14.2c0.6,0,1.2-0.2,1.6-0.6c2.4-1.9,10.3-8.3,15.1-15.8c19.6-28.1,19.6-72.6,19.6-72.6H98.3z"/>
										
											<line style="fill:none;stroke:#B8D0FF;stroke-width:1.2387;stroke-linejoin:round;stroke-miterlimit:10;" x1="47.8" y1="143.4" x2="148.7" y2="143.4"/>
									</g>
								</g>
								<g>
									<path style="fill:none;stroke:#FFFFFF;stroke-width:6.6066;stroke-linecap:round;stroke-miterlimit:10;" d="M50.1,46.5
										c6.7-7.8,13.5-12.7,23.1-16.5"/>
									<circle style="fill:#FFFFFF;" cx="82.3" cy="26.7" r="3.6"/>
								</g>
							</g>
						</g>
					</g>
					<g>
						<path style="fill:#00E7AE;" d="M74.5,224.7c3.4,3.4,6.5,6,7.9,7.1c0.5,0.4,1,0.6,1.6,0.6h14.2h14.2c0.6,0,1.2-0.2,1.6-0.6
							c1.4-1.1,4.6-3.7,7.9-7.1H98.3H74.5z"/>
					</g>
					<g>
						<path style="fill:#B8D0FF;" d="M148.8,143.4h-20.2c0.3,15.1-0.3,47.7-14.1,72.4c-1.6,3.2-3.7,6.2-5.8,8.9H122
							c2.5-2.5,5.1-5.5,7.1-8.7C148.8,187.8,148.8,143.4,148.8,143.4z"/>
						<path style="fill:#10C6B9;" d="M102.1,232.3h10.5c0.6,0,1.2-0.2,1.6-0.6l0,0c0.1-0.1,0.1-0.1,0.2-0.2l0.1-0.1
							c0.1-0.1,0.1-0.1,0.2-0.2l0.1-0.1c0.1-0.1,0.2-0.1,0.2-0.2l0.1-0.1c0.1-0.1,0.2-0.1,0.3-0.2c0,0,0.1,0,0.1-0.1
							c0.1-0.1,0.2-0.2,0.4-0.3l0,0c1.6-1.3,3.8-3.3,6.1-5.6l0,0h-13.3C106.3,227.9,103.8,230.6,102.1,232.3z"/>
					</g>
				</g>
				<g>
					<g>
						<path style="fill:#181F41;" d="M148.3,222.2c0,0,28.4-7,29.8-12.3c-3.7-5.4-16.5-17.3-16.5-17.3l-24.3,14.3
							C137.3,206.9,141.9,217,148.3,222.2z"/>
					</g>
					<g>
						<path style="fill:#181F41;" d="M162.2,212.4c3.8,3.1,7.4,6.4,7.8,9.8c0.4,3.7-2.8,7-1.6,10.8c0.7,2,2.6,3.4,4.6,3.7
							c2.1,0.3,4.1-0.8,5.6-2.2c4.7-4.3,5.2-11.4,3.3-16.9c-1.3-3.7-5.9-13-13.9-16.7"/>
					</g>
					<g>
						<path style="fill:#181F41;" d="M156.2,223.4c-5.1,3.5-4.8,8.6-4.5,12c0.2,2.2,1,5.2-1,7.1c-1.1,1-2.9,1.6-4.5,1.4
							c-1.8-0.2-3.4-1.2-4.4-2.4c-2.7-3.3-3.6-8.1-3.6-12c0-2.1,0.3-4.2,0.8-6.2c0.3-1,0.6-2,1-3c0.2-0.4,1-2.9,1.5-2.9l8.9-1.3
							C150.1,215.9,155.8,218.5,156.2,223.4z"/>
					</g>
					<g>
						<path style="fill:#181F41;" d="M148.3,222.2c3.8,3.1,7.4,6.4,7.8,9.8c0.4,3.7-2.8,7-1.6,10.8c0.7,2,2.6,3.4,4.6,3.7
							c2.1,0.3,4.1-0.8,5.6-2.2c4.7-4.3,5.2-11.4,3.3-16.9c-1.3-3.7-3.6-7.1-6-10.2"/>
					</g>
					<g>
						<path style="fill:#181F41;" d="M156.4,218c3.8,3.1,7.4,6.4,7.8,9.8c0.4,3.7-2.8,7-1.6,10.8c0.7,2,2.6,3.4,4.6,3.7
							c2.1,0.3,4.1-0.8,5.6-2.2c4.7-4.3,5.2-11.4,3.3-16.9c-1.3-3.7-3.6-7.1-6-10.2"/>
					</g>
					
						<path style="fill:none;stroke:#31458C;stroke-width:1.2387;stroke-linecap:round;stroke-linejoin:round;stroke-miterlimit:10;" d="
						M155.1,228.7c3.7-0.1,9.6-2.8,11.1-5.6"/>
					
						<path style="fill:none;stroke:#31458C;stroke-width:1.2387;stroke-linecap:round;stroke-linejoin:round;stroke-miterlimit:10;" d="
						M166.2,223.1c3.4,0.2,7.9-2.5,8.2-4.3"/>
					
						<path style="fill:none;stroke:#31458C;stroke-width:1.2387;stroke-linecap:round;stroke-linejoin:round;stroke-miterlimit:10;" d="
						M174.4,218.9c3.9-0.8,6.1-2.6,6.4-4.2"/>
					
						<path style="fill:none;stroke:#31458C;stroke-width:1.2387;stroke-linecap:round;stroke-linejoin:round;stroke-miterlimit:10;" d="
						M153,226.4c-4.8,4.1-11,4.5-14.5,0.9"/>
				</g>
				
					<path style="fill:none;stroke:#31458C;stroke-width:1.2387;stroke-linecap:round;stroke-linejoin:round;stroke-miterlimit:10;" d="
					M166.7,242.2c3-4.3,3.1-10.1,1.5-14.8c-0.5-1.5-1.2-2.9-2-4.3"/>
				
					<path style="fill:none;stroke:#31458C;stroke-width:1.2387;stroke-linecap:round;stroke-linejoin:round;stroke-miterlimit:10;" d="
					M175.7,236.5c1.9-3.8,2.3-9.3,0.5-13.8c-0.5-1.2-1.1-2.5-1.7-3.8"/>
				<g>
					<path style="fill:#FFFFFF;" d="M159.5,157.6c-3.9-11.1-12-19.2-25.4-15c-13.4,4.1-13.7,19.6-10.6,31c9,33,12.7,48.1,12.7,48.1
						l41.5-12.8C177.6,208.9,170.9,189.8,159.5,157.6z"/>
					<path style="fill:#B8D0FF;" d="M151.4,157.7c12.6,33.3,20,53,20,53l-6.9,2.3l13.1-4c0,0-6.8-19.1-18.2-51.3
						c-3.7-10.4-10.9-18.1-22.8-15.7C143.7,143.8,148.5,150,151.4,157.7z"/>
					<g>
						<g>
							<defs>
								<path id="SVGID_1_" d="M159.5,157.6c-3.9-11.1-12-19.2-25.4-15c-13.4,4.1-13.7,19.6-10.6,31c9,33,12.7,48.1,12.7,48.1
									l41.5-12.8C177.6,208.9,170.9,189.8,159.5,157.6z"/>
							</defs>
							<clipPath id="SVGID_2_">
								<use xlink:href="#SVGID_1_"  style="overflow:visible;"/>
							</clipPath>
							<g style="clip-path:url(#SVGID_2_);">
								<path style="fill:#00E7AE;" d="M103.8,224.1c1.4,4.5,2.1,6.8,2.1,6.8l96.5-29.4c0,0-0.7-2.3-2.1-6.8L103.8,224.1z"/>
							</g>
						</g>
						<g>
							<defs>
								<path id="SVGID_3_" d="M159.5,157.6c-3.9-11.1-12-19.2-25.4-15c-13.4,4.1-13.7,19.6-10.6,31c9,33,12.7,48.1,12.7,48.1
									l41.5-12.8C177.6,208.9,170.9,189.8,159.5,157.6z"/>
							</defs>
							<clipPath id="SVGID_4_">
								<use xlink:href="#SVGID_3_"  style="overflow:visible;"/>
							</clipPath>
							<g style="clip-path:url(#SVGID_4_);">
								<path style="fill:#10C6B9;" d="M176.4,220.8l1.2-11.9c0,0-0.8-2.3-2.3-6.5l-6.3,1.9c1.6,4.2,2.4,6.4,2.4,6.4L176.4,220.8z"
									/>
							</g>
						</g>
						<g>
							<defs>
								<path id="SVGID_5_" d="M159.5,157.6c-3.9-11.1-12-19.2-25.4-15c-13.4,4.1-13.7,19.6-10.6,31c9,33,12.7,48.1,12.7,48.1
									l41.5-12.8C177.6,208.9,170.9,189.8,159.5,157.6z"/>
							</defs>
							<clipPath id="SVGID_6_">
								<use xlink:href="#SVGID_5_"  style="overflow:visible;"/>
							</clipPath>
							<g style="clip-path:url(#SVGID_6_);">
								
									<ellipse transform="matrix(0.8854 -0.4649 0.4649 0.8854 -55.6446 86.9141)" style="fill:#00E7AE;" cx="148.4" cy="156.3" rx="7.5" ry="9.7"/>
								<g>
									<path style="fill:#10C6B9;" d="M151.6,157.8l-6.3,1.7c-1.1,0.3-2.2-0.4-2.5-1.4c-0.3-1.1,0.4-2.2,1.4-2.5l6.3-1.7
										c1.1-0.3,2.2,0.4,2.5,1.4C153.3,156.4,152.7,157.5,151.6,157.8z"/>
								</g>
								<path style="fill:#181F41;" d="M155.7,154.3c-1.8-5-6.6-8.2-10.6-7.1c-2.3,0.6-3.9,2.5-4.5,5c0.8-1.3,2-2.3,3.5-2.7
									c4-1.1,8.8,2.1,10.6,7.1c0.8,2.1,0.9,4.2,0.5,6C156.6,160.5,156.8,157.4,155.7,154.3z"/>
							</g>
						</g>
						<g>
							<defs>
								<path id="SVGID_7_" d="M159.5,157.6c-3.9-11.1-12-19.2-25.4-15c-13.4,4.1-13.7,19.6-10.6,31c9,33,12.7,48.1,12.7,48.1
									l41.5-12.8C177.6,208.9,170.9,189.8,159.5,157.6z"/>
							</defs>
							<clipPath id="SVGID_8_">
								<use xlink:href="#SVGID_7_"  style="overflow:visible;"/>
							</clipPath>
							
								<path style="clip-path:url(#SVGID_8_);fill:none;stroke:#181F41;stroke-width:1.2387;stroke-linecap:round;stroke-linejoin:round;stroke-miterlimit:10;" d="
								M200.8,176.1l-27.6,7.6c0,0-3.6-5.3-10.2-3.3s-6.8,8.3-6.8,8.3l-32.2,10"/>
						</g>
					</g>
				</g>
				<g>
					<ellipse style="fill:#FFFFFF;" cx="157.3" cy="88.3" rx="20.4" ry="26"/>
					<path style="fill:#B8D0FF;" d="M170.6,68.5c2.3,4.2,3.7,9.3,3.7,14.9c0,14.3-9.1,26-20.4,26c-5,0-9.7-2.3-13.2-6.2
						c3.7,6.7,9.8,11.1,16.7,11.1c11.3,0,20.4-11.6,20.4-26C177.7,80.4,175,73.3,170.6,68.5z"/>
					
						<path style="fill:none;stroke:#181F41;stroke-width:1.2387;stroke-linecap:round;stroke-linejoin:round;stroke-miterlimit:10;" d="
						M157.3,114.3c7.1-4,7.8-16.2,7.8-26s-0.7-22-7.8-26"/>
					<ellipse style="fill:#00E7AE;" cx="162.9" cy="88.3" rx="11.8" ry="15.1"/>
					<path style="fill:#181F41;" d="M162.9,73.2c-0.6,0-1.1,0.1-1.7,0.2c5.7,1.1,10.1,7.3,10.1,14.9s-4.4,13.9-10.1,14.9
						c0.6,0.1,1.1,0.2,1.7,0.2c6.5,0,11.8-6.8,11.8-15.1S169.4,73.2,162.9,73.2z"/>
					<g>
						<path style="fill:#10C6B9;" d="M165.1,90.7h-7.8c-1.3,0-2.4-1.1-2.4-2.4s1.1-2.4,2.4-2.4h7.8c1.3,0,2.4,1.1,2.4,2.4
							S166.4,90.7,165.1,90.7z"/>
					</g>
				</g>
				<g>
					<g>
						<ellipse style="fill:#181F41;" cx="70.4" cy="171.2" rx="9.9" ry="14.3"/>
					</g>
					<g>
						<g>
							<defs>
								<ellipse id="SVGID_9_" cx="70.4" cy="171.2" rx="9.9" ry="14.3"/>
							</defs>
							<clipPath id="SVGID_10_">
								<use xlink:href="#SVGID_9_"  style="overflow:visible;"/>
							</clipPath>
							<g style="clip-path:url(#SVGID_10_);">
								<circle style="fill:#00E7AE;" cx="74.2" cy="171.2" r="10.8"/>
								<path style="fill:#10C6B9;" d="M78.5,161.3c1.8,1.9,2.9,4.5,2.9,7.4c0,6-4.8,10.8-10.8,10.8c-1.6,0-3-0.3-4.4-0.9
									c2,2.1,4.8,3.5,7.9,3.5c6,0,10.8-4.8,10.8-10.8C85,166.7,82.3,162.9,78.5,161.3z"/>
								<path style="fill:none;stroke:#FFFFFF;stroke-width:6.6066;stroke-linecap:round;stroke-miterlimit:10;" d="M72.7,163.9
									c-2.4,0.6-4.5,2.6-5.4,4.9"/>
							</g>
						</g>
					</g>
				</g>
				
					<path style="fill:none;stroke:#181F41;stroke-width:1.2387;stroke-linecap:round;stroke-linejoin:round;stroke-miterlimit:10;" d="
					M133.1,210.5c-2.5-9-4.6-18.7-9.6-37c-2.7-9.9-3.2-23.9,5.9-29c0,0,10.3-6.6,19.4-1.1"/>
			</g>
		</g>
		<g>
			<path style="fill:#FFFFFF;" d="M37.8,111c-0.4-0.3-0.1-1,0.5-0.9c2,0.5,5,1,8.7,0.1c6.3-1.6,10.8-11.2,16.5-12.1
				c5.8-0.9,11.5,0.6,11.3,9c-0.2,8.3-11.9,10.6-18.2,10.6C51.1,117.7,42.4,114.8,37.8,111z"/>
			<path style="fill:#FFFFFF;" d="M105.8,111c0.4-0.3,0.1-1-0.5-0.9c-2,0.5-5,1-8.7,0.1c-6.3-1.6-10.8-11.2-16.5-12.1
				c-5.8-0.9-11.5,0.6-11.3,9s11.9,10.6,18.2,10.6C92.5,117.7,101.2,114.8,105.8,111z"/>
		</g>
		<g>
			<g>
				
					<ellipse style="fill:none;stroke:#FFFFFF;stroke-width:2.8904;stroke-linecap:round;stroke-linejoin:round;stroke-miterlimit:10;" cx="56" cy="86.7" rx="7" ry="7.6"/>
				
					<ellipse style="fill:none;stroke:#FFFFFF;stroke-width:2.8904;stroke-linecap:round;stroke-linejoin:round;stroke-miterlimit:10;" cx="90.4" cy="86.7" rx="7" ry="7.6"/>
			</g>
		</g>
		<g>
			<g>
				<g>
					<path style="fill:#181F41;" d="M90.7,127.7c-1.9-0.8-4-0.8-6-0.6c-3.9,0.3-7.8,0.7-11.6,1.4c-2.5,0.5-7.4,1.4-11.7,2.3
						c0.2-1.9,0.3-3.8,0.4-6.2c0.2-3.5-0.4-7.1-3.8-8.8c-2.3-1.2-4.9-0.7-6.8,0.9c-1.9,1.6-2.6,4.4-3.2,6.8
						c-0.9,3.3-1.4,7.6-2.4,11.2l-7,19.8l21,17.2c4.2,1,18-5.7,21.8-9.2c3.1-1.4,5.8-8.6,0.9-11.8c1.4-2.6-1.1-8.4-3.1-9.1
						c3.1-0.7,3.1-0.7,7.2-1.5c2.6-0.5,5.8-1.9,6.9-4.1C94.9,132.6,93.5,128.9,90.7,127.7z"/>
				</g>
				
					<path style="fill:none;stroke:#31458C;stroke-width:1.2387;stroke-linecap:round;stroke-linejoin:round;stroke-miterlimit:10;" d="
					M49.5,135.1c2.3-1.1,7-3.2,11.9-4.3"/>
				
					<path style="fill:none;stroke:#31458C;stroke-width:1.2387;stroke-linecap:round;stroke-linejoin:round;stroke-miterlimit:10;" d="
					M73.1,139.6c2.2,0.1,4.1,0.6,6,1.8"/>
				
					<path style="fill:none;stroke:#31458C;stroke-width:1.2387;stroke-linecap:round;stroke-linejoin:round;stroke-miterlimit:10;" d="
					M77.9,149.4c1.4,0,3.3,0.6,4.4,1.2"/>
				
					<path style="fill:none;stroke:#31458C;stroke-width:1.2387;stroke-linecap:round;stroke-linejoin:round;stroke-miterlimit:10;" d="
					M65.8,129.9c4.1,2.6,14,19.6,15.5,31.7"/>
				
					<path style="fill:none;stroke:#31458C;stroke-width:1.2387;stroke-linecap:round;stroke-linejoin:round;stroke-miterlimit:10;" d="
					M94,132.6c-0.1-2.2-1.4-4.1-3.3-4.9c-1.9-0.8-4-0.8-6-0.6c-3.9,0.3-7.8,0.7-11.6,1.4c-2.5,0.5-7.4,1.4-11.7,2.3
					c0.2-1.9,0.3-3.8,0.4-6.2c0.2-3.5-0.4-7.1-3.8-8.8c-2.3-1.2-4.9-0.7-6.8,0.9c-1.9,1.6-2.6,4.4-3.2,6.8c-0.7,2.7-1.2,6.1-1.9,9.2
					"/>
			</g>
			<g>
				<path style="fill:#FFFFFF;" d="M26.9,159.2c-0.9,1.5-1.7,3.1-2.2,4.9c-1.2,4.4-1.1,9.1,0.4,13.4c2.5,7.1,8.3,11.5,15.2,13.8
					c7.3,2.5,15.2-0.5,20.5-5.8C71.6,174.7,75.1,168,75.1,168s-33.7-27.3-33.7-27.4c-0.2-0.1-9.1,11.2-9.5,11.8
					C30.1,154.8,28.3,156.8,26.9,159.2z"/>
				<g>
					<path style="fill:#B8D0FF;" d="M70.6,164.4c-1.1,1.8-5,7.9-14,16.8c-5.3,5.3-13.2,8.2-20.5,5.8c-3-1-5.8-2.4-8.2-4.3
						c3,4,7.4,6.8,12.3,8.5c7.3,2.5,15.2-0.5,20.5-5.8C71.6,174.7,75.1,168,75.1,168S73.3,166.6,70.6,164.4z"/>
					<g>
						<path style="fill:#00E7AE;" d="M70.8,174.2c3.1-3.9,4.3-6.2,4.3-6.2s-33.7-27.3-33.7-27.4c-0.1-0.1-2.4,2.8-4.8,5.8
							C43,151.6,64.4,169,70.8,174.2z"/>
						<g>
							<path style="fill:#10C6B9;" d="M75,168.3L75,168.3c0-0.1,0.1-0.1,0.1-0.1l0,0c0-0.1,0.1-0.1,0.1-0.1s-0.1-0.1-0.3-0.2
								c0,0,0,0-0.1,0c-0.6-0.5-2.1-1.7-4.1-3.4c-0.6,0.9-1.9,3-4.3,6.1c1.9,1.5,3.4,2.8,4.5,3.7l0,0C73.3,171,74.6,168.9,75,168.3z
								"/>
						</g>
					</g>
				</g>
			</g>
		</g>
		
			<path style="fill:none;stroke:#FFFFFF;stroke-width:2.8904;stroke-linecap:round;stroke-linejoin:round;stroke-miterlimit:10;" d="
			M83.2,70.6c3.8-4.2,9.5-6,15.1,0.2"/>
		<g>
			<g>
				<path style="fill:#FFFFFF;" d="M37.4,37.2C26.2,46.6,20.3,60.4,19.8,77c-0.4,16.6,11.5,28.7,11.5,28.7s0.8-42.7,10.8-57
					L37.4,37.2z"/>
				<path style="fill:#C2DEFF;" d="M122.5,15.7c11.1,1.9,27.7,5.3,37.7,19.2s15.1,29.6,17.6,43.3l-51.4,1.6l-12.1-53.4L122.5,15.7z"
					/>
				<path style="fill:#FFFFFF;" d="M22.5,71.6C17.4,70,6.8,71.1,4.3,89.8s7.6,29.7,16.8,29.6c8.7-0.1,11.1-2.8,9.9-19.8
					C29.6,79.4,26,72.6,22.5,71.6z"/>
				<path style="fill:#FFFFFF;" d="M108,44.1c0,0,10.7,9.9,9.8,50.2l15.3-12.1c0,0-0.9-28-10.6-40.1L108,44.1z"/>
				<path style="fill:#C2DEFF;" d="M126.6,119.7c0,0,20.7,3.1,43.6,0.9s27.7-12.4,25.4-29.3s-14.4-18-26.9-18.2S135.5,72,135.5,72
					L126.6,119.7z"/>
				<path style="fill:#FFFFFF;" d="M129.7,73.2c-7.6,3.1-12,9-12,21.1c0,12.2-4.3,26,13.4,25.7s18.9-19.3,18.1-30.9
					S140.2,68.9,129.7,73.2z"/>
				<path style="fill:#FFFFFF;" d="M29.8,23.1c-3.6,9.6,1.6,22.5,5.1,25.5c4.2,3.6,12,3.9,33.9,3.4c24.2-0.6,35.2,0.1,51.1-4.5
					L123,8.2c0,0-21.8-5.7-45.4-4.7C53.6,4.5,35.8,6.9,29.8,23.1z"/>
				<path style="fill:#C2DEFF;" d="M117.1,8c-13.1,1.3-16.3,15.8-13.4,27.7s9.7,12.9,15.7,11.8c6-1,13.1-6.6,12.6-23.7
					C131.4,6.9,121.5,7.6,117.1,8z"/>
				<g>
					<g>
						<defs>
							<path id="SVGID_11_" d="M29.8,23.1c-3.6,9.6,1.6,22.5,5.1,25.5c4.2,3.6,12,3.9,33.9,3.4c24.2-0.6,35.2,0.1,51.1-4.5L123,8.2
								c0,0-21.8-5.7-45.4-4.7C53.6,4.5,35.8,6.9,29.8,23.1z"/>
						</defs>
						<clipPath id="SVGID_12_">
							<use xlink:href="#SVGID_11_"  style="overflow:visible;"/>
						</clipPath>
						<path style="clip-path:url(#SVGID_12_);fill:#C2DEFF;" d="M24.4,26.4c0,0,0.2,8.3,18.4,8.1c17.8-0.2,38-3.1,59.2-0.6
							s29.1,12.5,29.1,12.5l-20.7,10.1L33.7,55L24.4,26.4z"/>
					</g>
				</g>
				
					<path style="fill:none;stroke:#B8D0FF;stroke-width:1.2387;stroke-linecap:round;stroke-linejoin:round;stroke-miterlimit:10;" d="
					M124.7,45.3c3-2.7,5-5,6.5-7.7"/>
			</g>
			<path style="fill:#B8D0FF;" d="M56.1,16c-1.2,1.8-2,3.6-2.5,5.4c-0.3,0.9-0.4,1.9-0.5,2.8c0,0.5-0.1,0.9-0.1,1.4v0.7
				c0,0.2,0,0.5,0,0.7v0.7l0.1,0.7c0,0.5,0.1,1,0.2,1.5c0.1,0.5,0.2,1,0.2,1.5l0.2,0.7c0,0.2,0.1,0.5,0.2,0.7c0.2,1,0.5,1.9,0.9,2.8
				c0.4,0.9,0.8,1.9,1.4,2.7c-0.5-0.2-0.9-0.6-1.3-0.9c-0.4-0.4-0.8-0.8-1.1-1.2c-0.7-0.9-1.2-1.8-1.7-2.8c-0.2-0.5-0.4-1-0.6-1.5
				c-0.2-0.5-0.3-1-0.4-1.6c-0.1-0.5-0.2-1.1-0.3-1.6L50.5,28l-0.1-0.8c-0.1-1.1,0-2.2,0.2-3.3c0.2-1.1,0.5-2.2,1.1-3.2
				C52.7,18.7,54.2,17,56.1,16z"/>
			<path style="fill:#B8D0FF;" d="M46.6,22.2c-0.1,0.5-0.2,0.9-0.3,1.3s-0.1,0.8-0.1,1.2c-0.1,0.8-0.1,1.5-0.1,2.3s0,1.6,0,2.4
				c0,0.4,0,0.9-0.1,1.3c0,0.5-0.1,0.9-0.2,1.4c-0.4-0.3-0.7-0.7-1-1.1s-0.5-0.8-0.7-1.3c-0.3-0.9-0.6-1.8-0.6-2.8s0.2-2,0.7-2.9
				c0.3-0.4,0.5-0.9,0.9-1.2C45.6,22.6,46.1,22.3,46.6,22.2z"/>
			<path style="fill:#B8D0FF;" d="M94.9,15.7c-0.7,1.9-1.2,3.7-1.6,5.5c-0.4,1.8-0.6,3.6-0.6,5.4c0,0.5,0,0.9,0.1,1.4
				c0,0.5,0.1,0.9,0.1,1.4c0.1,0.9,0.2,1.8,0.4,2.8c0.2,0.9,0.4,1.8,0.6,2.7c0.3,0.9,0.6,1.8,1,2.7c-0.4-0.3-0.8-0.6-1.2-1
				c-0.3-0.4-0.7-0.8-0.9-1.2c-0.6-0.9-1-1.8-1.4-2.7c-0.2-0.5-0.4-1-0.5-1.5c-0.1-0.2-0.1-0.5-0.2-0.7l-0.2-0.7
				c-0.1-0.5-0.2-1-0.2-1.5c-0.1-0.5-0.1-1-0.1-1.6c0-2.1,0.4-4.2,1.2-6.1C92.2,18.7,93.3,17,94.9,15.7z"/>
			
				<path style="fill:none;stroke:#C2DEFF;stroke-width:1.2387;stroke-linecap:round;stroke-linejoin:round;stroke-miterlimit:10;" d="
				M20.3,71.1c0,0,7.6,3.4,5.9,17.7c-1.9,17-10.3,13.1-12.1,7.7c-0.9-2.7-0.6-5.3,0.3-7.2"/>
			
				<path style="fill:none;stroke:#B8D0FF;stroke-width:1.2387;stroke-linecap:round;stroke-linejoin:round;stroke-miterlimit:10;" d="
				M121.5,20.1c0,0-6-0.4-4.8,7.8s8.4,8.7,11.8,2.9c3.7-6.3,2.8-12.7,1.9-15.8"/>
			<path style="fill:#B8D0FF;" d="M161.4,84.8c1.3,1.5,2.1,3.3,2.6,5.2c0.5,1.9,0.8,3.9,0.8,5.8c0,0.5,0,1-0.1,1.5
				c0,0.5-0.1,1-0.2,1.5c-0.1,0.5-0.2,1-0.3,1.4c-0.1,0.5-0.3,0.9-0.4,1.4c-0.2,0.9-0.7,1.8-1,2.7c-0.2,0.4-0.5,0.9-0.7,1.3
				c-0.3,0.4-0.5,0.8-0.8,1.2c0-1,0.2-1.9,0.3-2.8s0.3-1.8,0.3-2.8c0-0.5,0.1-0.9,0.1-1.4s0.1-0.9,0.1-1.4s0.1-0.9,0.1-1.4
				s0.1-0.9,0-1.4c0-1.8-0.1-3.6-0.2-5.4C161.9,88.6,161.7,86.7,161.4,84.8z"/>
			<path style="fill:#B8D0FF;" d="M170.1,90.2c0.9,0.5,1.4,1.3,1.8,2.2c0.4,0.8,0.6,1.8,0.7,2.7c0.1,0.9,0,1.9-0.3,2.8
				s-0.7,1.7-1.5,2.4c-0.2-0.5-0.2-0.9-0.3-1.4c-0.1-0.4-0.1-0.8-0.2-1.3c-0.1-0.8-0.2-1.6-0.2-2.4s-0.1-1.6-0.1-2.4
				C170,92,170,91.2,170.1,90.2z"/>
			<path style="fill:#B8D0FF;" d="M185.4,86.5c1.2,1,2,2.4,2.5,3.8s0.8,3,0.9,4.5c0,0.8,0,1.5-0.1,2.3c-0.1,0.4-0.1,0.8-0.2,1.1
				c-0.1,0.4-0.2,0.7-0.3,1.1s-0.2,0.7-0.3,1.1s-0.3,0.7-0.4,1c-0.2,0.3-0.3,0.7-0.5,1s-0.4,0.6-0.6,1c-0.1-0.8,0-1.5,0-2.2
				c0-0.4,0-0.7,0-1.1c0-0.2,0-0.4,0-0.5v-0.5c0-0.4,0-0.7,0-1s0-0.7,0-1s0-0.7,0-1v-1c-0.1-1.4-0.1-2.7-0.3-4.1
				C185.9,89.4,185.7,88,185.4,86.5z"/>
			
				<path style="fill:none;stroke:#B8D0FF;stroke-width:1.2387;stroke-linecap:round;stroke-linejoin:round;stroke-miterlimit:10;" d="
				M132.1,72.5c4.7-1.7,25.2-1.2,44.7,1.1"/>
			
				<path style="fill:none;stroke:#C2DEFF;stroke-width:1.2387;stroke-linecap:round;stroke-linejoin:round;stroke-miterlimit:10;" d="
				M132.3,72.5c0,0-6.6,1.8-7.2,18.9c-0.6,16.6,11.5,14.4,13,6.9c0.5-2.3,0.3-4.1-0.3-5.5"/>
		</g>
	</g>
</g>
</svg>
