<?xml version="1.0" encoding="utf-8"?>
<!-- Generator: Adobe Illustrator 26.5.0, SVG Export Plug-In . SVG Version: 6.00 Build 0)  -->
<svg version="1.1" id="레이어_5" xmlns="http://www.w3.org/2000/svg" xmlns:xlink="http://www.w3.org/1999/xlink" x="0px"
	 y="0px" viewBox="0 0 140 250" style="enable-background:new 0 0 140 250;" xml:space="preserve">
<g>
	<path style="fill:#242424;" d="M109.2,178.2l3.7,52.5c0,0,11.8,2.1,13.5,8.2c1.6,6.1-36.2,12.8-42.7,10
		c-6.4-2.9-20.2-46.7-20.2-46.7L109.2,178.2z"/>
	<path d="M89.1,250c4.4,0,10.3-0.7,15.2-1.6c8-1.4,17.8-3.9,21.3-6.8c1.1-0.9,1.6-1.9,1.3-2.8c-1.5-5.8-11.4-8.1-13.5-8.5l-3.8-52.9
		L63,201.9l0.1,0.4c0.6,1.8,13.9,44.1,20.4,47C84.7,249.8,86.7,250,89.1,250z M108.8,178.9l3.7,52.2l0.4,0.1
		c0.1,0,11.6,2.1,13.1,7.9c0.1,0.6-0.2,1.2-1,1.9c-6.4,5.3-35.5,10-41,7.5c-4.9-2.2-15-30.9-19.8-46.1L108.8,178.9z"/>
</g>
<path d="M91.4,185.1l-26.1,47.7c0,0,9.1,8.2,7.1,14.4s-38.7-8.5-42.7-14.5c-4-6,8.9-44.9,8.9-44.9L91.4,185.1z"/>
<g>
	<path style="fill:#FFFFFF;" d="M109.7,108c1.5,1.7,19.5,22.6,21.4,57.2c0.5,9.2-2.2,17.1-8.1,23.5c-13.9,15-41.5,17.5-49.6,17.9
		c-8.1-0.4-35.7-2.8-49.6-17.9c-5.9-6.4-8.6-14.3-8.1-23.5l0,0c1.9-34.6,19.9-55.6,21.4-57.2l36.4,5.4h0.1L109.7,108z"/>
	<path style="fill:#E7E7E7;" d="M116.9,118.1c0,0-38.3,27.9-95.5,17.6c0,0,7.2-18.8,15.6-27.7l36.4,5.3l36.5-5.3L116.9,118.1z"/>
	<path style="fill:none;stroke:#000000;stroke-miterlimit:10;" d="M109.7,108c1.5,1.7,19.5,22.6,21.4,57.2
		c0.5,9.2-2.2,17.1-8.1,23.5c-13.9,15-41.5,17.5-49.6,17.9c-8.1-0.4-35.7-2.8-49.6-17.9c-5.9-6.4-8.6-14.3-8.1-23.5l0,0
		c1.9-34.6,19.9-55.6,21.4-57.2l36.4,5.4h0.1L109.7,108z"/>
</g>
<path d="M53.4,157.9c4.5,10.9,10.4,21.7,20.1,28.3s24.4,7.8,34.5,0c2.6-2,4.8-4.4,6.1-7.3c1.5-3.3,1.8-7,1.4-10.4
	c-1.4-10.3-9.2-17.9-15.8-25.6c-6.9-7.8-13.1-16.2-18.5-24.9c-4.3-7-7.8-16.8-17.6-16.9c-3.9,0-7.7,1.4-11.2,3.3
	c-1.4,0.7-2.8,1.6-3.9,2.7c-5.3,5.5-5.3,14.6-4,21.5C46.4,138.5,49.5,148.4,53.4,157.9z"/>
<g>
	<path style="fill:#FFFFFF;stroke:#000000;stroke-miterlimit:10;" d="M68.4,8.6c14.7,0,30.1,3,38,11.1c7.6,7.6,11.6,18.4,14.3,26.9
		l0.2,0.7c1.3,4.2,3,9.5,6.4,12.4c1.3,1.2,2.8,2,4.2,2.7c2.1,1.1,4,2.2,5.5,4.2c5,6.7,2.9,14.8,0.2,20.2
		c-3.5,7.2-9.3,13.6-13.7,17.1c-7.7,6.2-19.8,9.7-28.4,11.5c-10.7,2.2-22.5,3.3-31.6,2.7c-12.4-0.8-26.2-6.2-37.1-14.6
		c-12.1-9.4-19-21.2-19.5-33.4C6.2,52.3,15,35.7,20.3,27.3l0,0c4.9-7.7,12.8-12.9,24.1-15.9C51.2,9.7,59.7,8.6,68.4,8.6z"/>
	<g>
		<path d="M112.7,75.7c-1.7,1.8-3.7,3.2-5.8,4.6c-4.1,2.5-8.6,4.5-13.5,5c-4.9,0.5-9.9-0.7-13.6-3.8c-3.6-3.1-5.5-8.4-3.8-12.9
			c2-5.2,7.8-8.1,10.4-13.1c3.1-6,3.7-11.5,11.3-13.2c4.5-0.9,10.5,0.2,14,3.1C119.9,52.3,119.4,68.6,112.7,75.7z"/>
		<g>
			<ellipse style="fill:#FFFFFF;" cx="101.9" cy="65.7" rx="11.5" ry="11.2"/>
			<path d="M102,77.5c6.3,0,11.6-4.8,12-11.1c0.4-6.5-4.7-12-11.2-12.4c-6.7-0.4-12.4,4.6-12.8,11.1s4.7,12,11.2,12.4
				C101.5,77.5,101.7,77.5,102,77.5z M101.9,55c0.2,0,0.5,0,0.7,0c3,0.2,5.7,1.5,7.6,3.6c1.9,2.2,2.9,4.9,2.8,7.8
				c-0.4,5.9-5.6,10.5-11.6,10.1C95.2,76.1,90.5,71,90.9,65C91.2,59.4,96.1,55,101.9,55z"/>
		</g>
		<ellipse cx="103.3" cy="65.8" rx="7.9" ry="7.8"/>
		<path style="fill:#FFFFFF;" d="M107.7,62c0.6,0.8,0.6,1.9,0.5,2.8c0,0.2,0,0.4-0.1,0.5c-0.1,0.2-0.2,0.3-0.4,0.3
			c-0.8,0.5-1.7,0.8-2.5,0.6c-0.4-0.1-0.8-0.4-1.2-0.5c-0.7-0.2-1.4,0-2.1-0.1c-0.8-0.2-1.6-0.8-1.8-1.6
			C99.4,60.5,106.2,59.8,107.7,62z"/>
	</g>
	<g>
		<path d="M66.8,29.1c0,0,8.2-22.5-11.3-28.4S17.2,24,37.9,38.6S66.8,29.1,66.8,29.1z"/>
		<path style="fill:#FDB2B2;" d="M63.8,27c0,0,4.3-11.3-1.1-12.6c-5.4-1.4-13.2,14-8.2,19.4C59.3,39.1,63.8,27,63.8,27z"/>
	</g>
	<path d="M139.6,80.1c-0.5,1.7-3.6,0.2-5.4-0.3c-4.6-1.3-8.8-4.3-9.3-8.5c-0.7-5.8,12.8-3.9,12.8-3.9s1.8,3.3,2.2,7.4
		C139.8,74.8,140.3,77.6,139.6,80.1z"/>
	<g>
		<path style="fill:#771D1D;" d="M131.6,94.7c-4.4,2-6.2-6.6-6.2-6.6s5,1.5,10.2,1.1C135.6,89.2,133.1,94,131.6,94.7z"/>
		<path style="fill:none;stroke:#000000;stroke-linecap:round;stroke-linejoin:round;" d="M135.9,89.1c-9.6,1.2-14.7-3.6-14.7-3.6"
			/>
		<path style="fill:#FD9B9B;" d="M134,92.2c0,0-2.6-1.5-7.1,0c0,0,1.2,2.6,3.6,2.6c0,0,1.6,0.1,2.4-1.1L134,92.2z"/>
		<path style="fill:none;stroke:#000000;stroke-linecap:round;stroke-linejoin:round;stroke-miterlimit:10;" d="M131.6,94.7
			c-4.4,2-6.2-6.6-6.2-6.6s5,1.5,10.2,1.1C135.6,89.2,133.1,94,131.6,94.7z"/>
	</g>
</g>
<path d="M0,171.4c0,8.2,6.8,14.9,15.1,14.9s16.1-6.7,16.1-14.9c0-8.2-7.7-14.9-16.1-14.9S0,163.2,0,171.4z"/>
</svg>
