<?xml version="1.0" encoding="utf-8"?>
<!-- Generator: Adobe Illustrator 24.1.1, SVG Export Plug-In . SVG Version: 6.00 Build 0)  -->
<svg version="1.1" id="Layer_1" xmlns="http://www.w3.org/2000/svg" xmlns:xlink="http://www.w3.org/1999/xlink" x="0px" y="0px"
	 viewBox="0 0 170 240" style="enable-background:new 0 0 170 240;" xml:space="preserve">
<g>
	<g>
		<path style="fill:#1797D5;" d="M45.69,73.66c0.04,1.08-1.08,3.36-1.99,4.07c-0.49,0.38-1.01,0.45-1.92,0.53
			c-0.46,0.04-0.98,0.09-1.53,0.21c-0.14,0.03-0.25,0.05-0.33,0.06c-0.56,0.09-0.89,0.28-1.13,0.55c-0.59,0.11-1.08,0.32-1.46,0.49
			c-0.12,0.05-0.26,0.12-0.41,0.17c-0.36,0.14-0.75,0.21-1.16,0.21c-0.41,0-0.83-0.07-1.26-0.2c-0.23-0.07-0.63-0.22-1.03-0.37
			c-1.69-0.63-3.99-1.49-6.13-1.49c-0.09,0-0.17,0-0.26,0.01c0.11-3.05,0.63-5.56,1.58-7.71c1.43-3.23,4.94-6.59,8.67-6.59h0.2
			c1.85,0.05,3.56,0.84,4.97,2.26C44.36,67.78,45.59,70.75,45.69,73.66z"/>
		<path style="fill:#323637;" d="M44.42,92.19c2.53-0.19,3.99-1.43,6.32-2.51c3.2-1.48,6.89-0.63,9.55,1.55
			c1.44,1.18,2.01,2.53,2.94,4.04c1.08,1.76,3.14,3.1,2.76,5.43c-0.33,1.97-0.04,4.12-1.59,5.76c-1.18,1.24-3.15,2.59-4.81,3
			c-1.63,0.41-3.69,0.77-5.38,0.78c-2.9,0.01-5.17-1.34-8.06-1.47c-3.02-0.13-6.05,0.25-9.06-0.03c-2.42-0.22-4.62-1.27-6.12-3.21
			c-1.43-1.85-1.99-4.16-3.36-6.06c-2.24-3.12-5.03-9.57-2.1-13.03c-0.53-1.17-1.24-3.31-0.66-4.56c1.36-2.91,6.94-0.16,8.86,0.44
			c1.38,0.43,2.84,0.45,4.17-0.07c1.05-0.41,1.58-0.9,2.69-0.22c2.45,1.49,1.1,3.73,1.33,5.8c0.08,0.71,0.51,1.83,0.94,2.41
			C43.39,91,44.18,91.07,44.42,92.19z"/>
		<path style="fill:#1D1D1B;" d="M66.38,95.02c-0.35-0.41-0.67-0.79-0.89-1.14c-0.18-0.3-0.35-0.59-0.51-0.87
			c-0.7-1.22-1.5-2.59-3.01-3.83c-2.28-1.87-5.07-2.9-7.84-2.9c-1.58,0-3.1,0.34-4.52,0.99c-0.71,0.34-1.37,0.68-1.93,0.99
			c-0.77,0.41-1.39,0.75-2.02,0.97c-0.18-0.18-0.36-0.32-0.5-0.43c-0.06-0.05-0.13-0.1-0.19-0.16c-0.13-0.18-0.38-0.84-0.42-1.11
			c-0.04-0.32,0.01-0.78,0.06-1.27c0.15-1.34,0.41-3.65-1.39-5.49c0.68-0.13,1.41-0.38,2.1-0.93c1.59-1.24,3.08-4.34,3.02-6.27
			c-0.05-1.8-0.46-3.59-1.14-5.24c-0.68-1.64-1.64-3.14-2.82-4.33c-1.89-1.91-4.23-2.97-6.78-3.05c-5.01-0.15-9.55,4-11.39,8.18
			c-1.17,2.67-1.76,5.72-1.81,9.47c-1.1,0.62-1.67,1.51-1.97,2.15c-0.8,1.71-0.44,3.78,0.09,5.37c-2.57,4.92,0.64,11.73,2.92,14.91
			c0.51,0.71,0.92,1.58,1.34,2.5c0.53,1.14,1.14,2.44,2.07,3.64c1.88,2.43,4.71,3.94,7.99,4.23c0.83,0.07,1.75,0.12,2.77,0.12
			c0.9,0,1.78-0.03,2.63-0.05c0.86-0.03,1.66-0.05,2.47-0.05c0.44,0,0.86,0.01,1.3,0.02c1.08,0.05,2.13,0.34,3.25,0.65
			c1.42,0.38,3.02,0.82,4.89,0.82c2.3,0,4.79-0.53,6.06-0.85c2.3-0.58,4.73-2.29,6.1-3.75c1.8-1.9,1.99-4.18,2.14-5.86
			c0.04-0.47,0.07-0.91,0.14-1.3C69.09,98.28,67.46,96.32,66.38,95.02z M37.32,63.62h0.2c1.85,0.05,3.56,0.84,4.97,2.26
			c1.87,1.9,3.09,4.87,3.19,7.79c0.04,1.08-1.08,3.36-1.99,4.07c-0.49,0.38-1.01,0.45-1.92,0.53c-0.46,0.04-0.98,0.09-1.53,0.21
			c-0.14,0.03-0.25,0.05-0.33,0.06c-0.56,0.09-0.89,0.28-1.13,0.55c-0.59,0.11-1.08,0.32-1.46,0.49c-0.12,0.05-0.26,0.12-0.41,0.17
			c-0.36,0.14-0.75,0.21-1.16,0.21c-0.41,0-0.83-0.07-1.26-0.2c-0.23-0.07-0.63-0.22-1.03-0.37c-1.69-0.63-3.99-1.49-6.13-1.49
			c-0.09,0-0.17,0-0.26,0.01c0.11-3.05,0.63-5.56,1.58-7.71C30.08,66.98,33.59,63.62,37.32,63.62z M65.98,100.7
			c-0.33,1.97-0.04,4.13-1.59,5.76c-1.18,1.24-3.16,2.58-4.81,3c-1.63,0.41-3.69,0.78-5.39,0.78h-0.03c-2.88,0-5.15-1.33-8.02-1.46
			c-0.47-0.02-0.95-0.03-1.42-0.03c-1.7,0-3.4,0.11-5.11,0.11c-0.84,0-1.69-0.02-2.53-0.11c-2.42-0.22-4.62-1.27-6.12-3.21
			c-1.43-1.85-1.99-4.15-3.36-6.06c-2.08-2.89-4.63-8.65-2.65-12.23c0.15-0.29,0.33-0.55,0.54-0.8c-0.52-1.16-1.25-3.31-0.66-4.55
			c0.21-0.46,0.53-0.78,0.93-0.98c0.37-0.2,0.82-0.3,1.31-0.32c0.08-0.01,0.16-0.01,0.25-0.01c2.2,0,5.1,1.34,6.38,1.75
			c0.67,0.2,1.37,0.32,2.05,0.32c0.73,0,1.44-0.13,2.12-0.39c0.01,0,0.01-0.01,0.02-0.01c0.53-0.2,0.94-0.44,1.35-0.51
			c0.1-0.02,0.19-0.03,0.3-0.03c0.3,0,0.62,0.1,1.01,0.34h0.01c2.45,1.5,1.09,3.72,1.32,5.79c0.09,0.71,0.51,1.82,0.94,2.41
			c0.55,0.77,1.34,0.83,1.58,1.95c2.53-0.18,3.99-1.43,6.33-2.51c1.09-0.51,2.25-0.75,3.39-0.75c2.21,0,4.41,0.86,6.15,2.29
			c1.43,1.18,2.01,2.53,2.93,4.04C64.31,97.03,66.37,98.38,65.98,100.7z"/>
		<path style="fill:#494C4E;" d="M46.49,101.52c-0.23,0-0.44-0.15-0.51-0.38c-0.09-0.28,0.07-0.58,0.35-0.67
			c0.39-0.12,0.6-0.38,0.67-0.83c0.25-1.6-1.43-4.63-2.29-5.23c-0.24-0.17-0.3-0.5-0.13-0.74c0.17-0.24,0.5-0.3,0.74-0.13
			c1.1,0.77,3.06,4.15,2.73,6.27c-0.13,0.86-0.62,1.45-1.41,1.69C46.6,101.51,46.54,101.52,46.49,101.52z"/>
		<path style="fill:#494C4E;" d="M32.15,89.79c-0.04,0-0.09,0-0.13,0c-1.21-0.02-4.11-0.19-4.85-1.3c-0.16-0.25-0.1-0.58,0.15-0.74
			c0.24-0.16,0.58-0.1,0.74,0.15c0.28,0.43,2.03,0.79,3.98,0.83c1.23,0.01,3.02-0.3,4.44-0.79c0.28-0.1,0.58,0.05,0.68,0.33
			c0.1,0.28-0.05,0.58-0.33,0.68C35.33,89.45,33.51,89.79,32.15,89.79z"/>
		<path style="fill:#494C4E;" d="M41.74,103.31c-0.13,0-0.26-0.05-0.36-0.14c-0.22-0.2-0.23-0.54-0.04-0.75
			c1.84-2.03,3.28-5.13,2.34-7.5c-0.11-0.27,0.02-0.58,0.3-0.69c0.27-0.11,0.58,0.03,0.69,0.3c1.18,2.98-0.63,6.5-2.54,8.61
			C42.03,103.25,41.89,103.31,41.74,103.31z"/>
	</g>
	<path style="fill:#F4C82B;" d="M35.58,82.76c-3.14,0-6.48-1.04-8.2-1.86c-2.2-1.05-4.02-3.13-3.12-5.39
		c0.22-0.55,0.84-0.81,1.39-0.6c0.55,0.22,0.81,0.84,0.59,1.39c-0.42,1.04,1,2.17,2.06,2.68c2.96,1.41,8.56,2.49,10.96,0.74
		c0.48-0.35,1.14-0.24,1.49,0.23c0.35,0.48,0.24,1.14-0.23,1.49C39.18,82.4,37.41,82.76,35.58,82.76z"/>
</g>
<g>
	<path d="M72.4,176.85l11.56,3.67c-2.2,10.48-1,14.82-1,14.82l5.74,29.65c0.04,2.4-3.72,4.41-6.11,4.45l-2.98,0.05l-13.79,0.25
		c-1.24,0.02-2.56,0.1-3.88,0.1c-3.04,0-6.09-0.4-8.25-2.79c-2.12-2.34-1.63-7.1-0.35-9.72c2.35-4.83,6.85-8.44,12.08-9.67
		c0,0,0.24-0.07,0.29-0.07c2.05-0.28,3.55-0.37,4.64-0.37c1.91,0,2.53,0.27,2.53,0.27l-2.11-10.83
		C69.2,188.63,72.4,176.85,72.4,176.85 M70.55,173.47l-0.73,2.69c-0.14,0.51-3.34,12.48-1.67,21.02l1.44,7.4
		c-1.24,0.04-2.67,0.16-4.25,0.38c-0.13,0.02-0.27,0.04-0.59,0.13c-5.97,1.42-11.13,5.56-13.82,11.09
		c-1.55,3.19-2.34,9.24,0.78,12.67c2.94,3.25,7.01,3.67,10.22,3.67c0.84,0,1.65-0.03,2.44-0.06c0.5-0.02,1-0.03,1.48-0.04
		l13.79-0.25l2.98-0.05c3.61-0.07,8.81-2.89,8.73-7.17l0-0.23l-0.04-0.23l-5.74-29.65l-0.02-0.1l-0.03-0.1c0,0-0.95-4.07,1.04-13.56
		l0.49-2.36l-2.3-0.73l-11.56-3.67L70.55,173.47L70.55,173.47z"/>
	<path style="fill:#FFFFFF;" d="M82.96,195.34c0,0-1.2-4.33,1-14.82l-11.56-3.67c0,0-3.19,11.78-1.63,19.81L82.96,195.34z"/>
	<path style="fill-rule:evenodd;clip-rule:evenodd;fill:#0085C9;" d="M65.42,207.66c0,0,0.24-0.07,0.29-0.07
		c5.64-0.76,7.18-0.09,7.18-0.09l-2.11-10.83l12.19-1.33l5.74,29.65c0.04,2.4-3.72,4.41-6.11,4.45l-2.99,0.05l-13.78,0.25
		c-4.09,0.07-9.03,0.73-12.12-2.69c-2.12-2.34-1.63-7.1-0.35-9.72C55.68,212.5,60.19,208.9,65.42,207.66"/>
</g>
<g>
	<path style="fill-rule:evenodd;clip-rule:evenodd;fill:#1797D5;" d="M121.46,228.48c0.04,2.4-3.71,4.41-6.11,4.45l-2.99,0.05
		l-13.78,0.26c-1.24,0.02-2.56,0.1-3.88,0.1c-0.59,0-1.16-0.01-1.74-0.05c-0.34-0.03-0.67-0.06-1-0.11c-2.06-0.27-4-0.97-5.5-2.62
		c-2.11-2.35-1.62-7.1-0.35-9.73c2.35-4.83,6.85-8.44,12.09-9.66c0,0,0.23-0.07,0.29-0.07c1.02-0.14,1.91-0.23,2.68-0.29
		c1.95-0.15,3.13-0.06,3.79,0.03c0.05,0,0.11,0.01,0.16,0.02c0.09,0.02,0.16,0.03,0.22,0.04c0.22,0.05,0.32,0.1,0.32,0.1l-1.92-9.85
		l-0.19-0.98l12-1.31l0.19-0.02L121.46,228.48z"/>
	<path d="M124.09,227.97l-5.74-29.64l-4.3-21.98l-0.45-2.34l-2.37,0.19l-12.13,0.94l-2.66,0.2l0.2,2.66
		c0.77,10.22,3.9,21.44,4.29,22.78l1.42,7.29c-1.24,0.03-2.67,0.16-4.25,0.37c-0.14,0.02-0.28,0.04-0.59,0.13
		c-5.97,1.43-11.14,5.57-13.82,11.09c-1.55,3.19-2.34,9.24,0.78,12.67c2.93,3.25,7.01,3.67,10.22,3.67c0.84,0,1.65-0.03,2.45-0.05
		c0.5-0.02,0.99-0.04,1.47-0.04l13.79-0.26l2.99-0.05c3.61-0.06,8.8-2.89,8.73-7.17v-0.22L124.09,227.97z M115.35,232.93l-2.99,0.05
		l-13.78,0.26c-1.24,0.02-2.56,0.1-3.88,0.1c-0.59,0-1.16-0.01-1.74-0.05c-0.34-0.03-0.67-0.06-1-0.11c-2.06-0.27-4-0.97-5.5-2.62
		c-2.11-2.35-1.62-7.1-0.35-9.73c2.35-4.83,6.85-8.44,12.09-9.66c0,0,0.23-0.07,0.29-0.07c1.02-0.14,1.91-0.23,2.68-0.29
		c0.77-0.05,1.42-0.07,1.96-0.07c0.83,0,1.43,0.05,1.82,0.11c0.05,0,0.11,0.01,0.16,0.02c0.09,0.02,0.16,0.03,0.22,0.04
		c0.22,0.05,0.32,0.1,0.32,0.1l-1.92-9.85l-0.19-0.98c0,0-3.21-11.07-4.14-21.38c-0.03-0.33-0.06-0.66-0.09-0.99l12.13-0.94
		l4.29,21.97l5.74,29.65C121.5,230.88,117.75,232.89,115.35,232.93z"/>
	<path style="fill:#FFFFFF;" d="M115.72,198.83l-0.19,0.02l-12,1.31c0,0-3.21-11.07-4.14-21.38c-0.03-0.33-0.06-0.66-0.09-0.99
		l12.13-0.94L115.72,198.83z"/>
</g>
<g>
	<path style="fill:#FFFFFF;" d="M105.82,27.9c-0.26,0.54-0.68,0.71-1.23,0.71c-0.83,0-1.92-0.41-3.11-0.58
		c-2.36-0.35-1.72-2.38-3.47-4.28c-0.71-0.77-1.42-1.1-2.18-1.1c-0.59,0-1.21,0.2-1.87,0.54c-0.1,0.04-0.19,0.1-0.29,0.15
		c-0.35,0.2-0.73,0.44-1.11,0.7c-1.1,0.77-2.34,1.75-3.78,2.75c-0.36,0.25-0.74,0.47-1.13,0.66c-0.38,0.18-0.79,0.33-1.19,0.46
		c-0.42,0.13-0.83,0.22-1.25,0.28c-2.15,0.31-4.42-0.18-6.19-1.41c-0.47-0.33-0.91-0.71-1.3-1.15c-2.72-3.01-2.22-7.36,1.14-9.75
		c0.94-0.66,1.83-1.3,2.7-1.91c0.29-0.2,0.57-0.41,0.85-0.6c0.82-0.55,1.62-1.08,2.41-1.54c0.3-0.17,0.59-0.34,0.89-0.5
		c0.42-0.22,0.84-0.44,1.26-0.62c0.19-0.1,0.38-0.18,0.58-0.25c0.05-0.03,0.11-0.05,0.17-0.07c0.26-0.11,0.52-0.2,0.79-0.28
		c0.34-0.13,0.68-0.22,1.03-0.31c0.15-0.03,0.3-0.06,0.46-0.1c0.16-0.04,0.33-0.07,0.5-0.1c0.13-0.02,0.26-0.04,0.38-0.06
		c0.28-0.03,0.55-0.06,0.84-0.07c0.27-0.02,0.53-0.03,0.8-0.03c1.48,0,3.07,0.26,4.84,0.83c2.52,0.81,4.7,2.13,6.19,4.12
		C106.13,17.8,107.69,24.03,105.82,27.9z"/>
	<path style="fill:#643219;" d="M77.74,25.65c-2.72-3.01-2.22-7.36,1.14-9.75c2.17-1.53,4.09-2.94,5.96-4.04
		c1.55,0.2,2.35,1.09,2.52,1.3c0.72,0.74,1.06,1.71,0.65,2.6c-0.29,0.62-0.84,1.08-1.47,1.37c0.7-0.22,1.49-0.25,2.24,0.03
		c1.61,0.61,2.39,2.23,1.73,3.65c-0.32,0.7-0.94,1.22-1.67,1.49c0.59-0.1,1.21-0.1,1.79,0.12c0.95,0.35,2.17,1.05,1.93,1.62
		l0.02,0.01v0.01c-1.1,0.77-2.34,1.75-3.78,2.75c-1.44,1-3.15,1.49-4.85,1.49C81.62,28.31,79.31,27.39,77.74,25.65z"/>
	<path d="M105.71,12.81c-1.74-2.3-4.26-4-7.5-5.05c-1.99-0.64-3.85-0.96-5.66-0.96c-5.49,0-9.55,2.9-14.25,6.25l-0.95,0.67
		c-1.16,0.82-2.1,1.85-2.78,2.99c-0.64,1.1-1.04,2.3-1.18,3.58c-0.29,2.59,0.55,5.13,2.38,7.15c2.03,2.24,5.01,3.53,8.19,3.53
		c2.34,0,4.53-0.68,6.38-1.97c0.77-0.53,1.5-1.08,2.14-1.56c0.22-0.16,0.46-0.34,0.7-0.52c1.02-0.75,2.14-1.53,2.62-1.58
		c0.04,0.02,0.13,0.09,0.26,0.22c0.37,0.41,0.55,0.85,0.79,1.43c0.46,1.13,1.32,3.25,4.25,3.68c0.39,0.06,0.82,0.16,1.23,0.26
		c0.74,0.18,1.49,0.35,2.28,0.35c1.63,0,2.95-0.81,3.64-2.22C110.6,24.13,108.81,16.93,105.71,12.81z M105.82,27.9
		c-0.26,0.54-0.68,0.71-1.23,0.71c-0.83,0-1.92-0.41-3.11-0.58c-2.36-0.35-1.72-2.38-3.47-4.28c-0.71-0.77-1.42-1.1-2.18-1.1
		c-0.59,0-1.21,0.2-1.87,0.54c-0.1,0.04-0.19,0.1-0.29,0.15c-0.35,0.2-0.73,0.44-1.11,0.7c-1.1,0.77-2.34,1.75-3.78,2.75
		c-0.36,0.25-0.74,0.47-1.13,0.66c-0.38,0.18-0.79,0.34-1.19,0.46c-0.42,0.13-0.83,0.22-1.25,0.28c-0.43,0.06-0.85,0.1-1.28,0.1
		c-1.75,0-3.48-0.51-4.91-1.5c-0.47-0.33-0.91-0.71-1.3-1.15c-2.72-3.01-2.22-7.36,1.14-9.75c0.94-0.66,1.83-1.3,2.7-1.91
		c0.29-0.2,0.57-0.41,0.85-0.6c0.82-0.55,1.62-1.08,2.41-1.54c0.29-0.18,0.59-0.34,0.89-0.5c0.42-0.22,0.84-0.44,1.26-0.62
		c0.19-0.1,0.38-0.18,0.58-0.25c0.05-0.03,0.11-0.05,0.17-0.07c0.27-0.11,0.52-0.2,0.79-0.28c0.34-0.13,0.68-0.22,1.03-0.31
		c0.15-0.04,0.31-0.07,0.46-0.1c0.16-0.04,0.33-0.07,0.5-0.1c0.13-0.02,0.26-0.04,0.38-0.06c0.28-0.03,0.55-0.06,0.84-0.07
		c0.26-0.02,0.53-0.03,0.8-0.03c1.48,0,3.07,0.26,4.84,0.83c2.52,0.81,4.7,2.13,6.19,4.12C106.13,17.8,107.69,24.03,105.82,27.9z"/>
</g>
<g>
	<path style="fill:#FFFFFF;" d="M148.97,36.2c-1.92,1.45-4.29,1.88-6.45,1.38c-0.29-0.06-0.58-0.15-0.85-0.25
		c-0.28-0.11-0.55-0.22-0.82-0.35c-0.19-0.09-0.36-0.18-0.54-0.3c-0.34-0.19-0.67-0.43-0.98-0.68c-0.23-0.19-0.46-0.41-0.68-0.63
		c-0.21-0.22-0.42-0.47-0.61-0.73c-0.05-0.07-0.12-0.15-0.17-0.23c-0.1-0.12-0.18-0.23-0.29-0.37c-0.01-0.02-0.03-0.04-0.04-0.07
		c-0.02-0.03-0.04-0.06-0.07-0.1c-0.84-1.16-1.57-2.25-2.26-3.17c-0.42-0.55-0.82-1.05-1.23-1.44c-0.07-0.06-0.14-0.13-0.2-0.19
		c-0.06-0.06-0.13-0.13-0.2-0.17c-0.14-0.12-0.27-0.21-0.41-0.29c-0.14-0.1-0.28-0.17-0.42-0.21c-0.14-0.07-0.28-0.12-0.43-0.14
		c-0.07-0.01-0.14-0.02-0.21-0.03c-0.07-0.01-0.15-0.01-0.22-0.01c-0.43,0-0.86,0.13-1.34,0.39c-0.16,0.1-0.32,0.2-0.49,0.32
		c-0.13,0.1-0.26,0.19-0.36,0.29c-0.12,0.11-0.22,0.2-0.33,0.3c-0.1,0.1-0.19,0.19-0.29,0.29c-1.18,1.23-1.5,2.29-3.1,2.29
		c-0.12,0-0.26-0.01-0.39-0.02c-1.98-0.18-4.62-1.73-4.86-3.37c-0.7-4.73,1.9-8.52,5.3-11.58c1.98-1.79,4.45-2.69,7.08-2.93
		c0.27-0.02,0.53-0.03,0.79-0.05c0.29-0.01,0.57-0.01,0.84-0.01h0.13c0.52,0.01,1.02,0.03,1.5,0.1c0.28,0.03,0.55,0.07,0.82,0.12
		c0,0,0,0,0.01,0c0.26,0.05,0.51,0.11,0.76,0.16c0.02,0,0.03,0.01,0.04,0.01c0.51,0.13,1,0.28,1.47,0.45
		c0.02,0.01,0.03,0.01,0.04,0.01c0.23,0.1,0.46,0.18,0.68,0.28c0.22,0.11,0.46,0.21,0.69,0.33c0.2,0.11,0.42,0.21,0.62,0.33
		c0.03,0.02,0.07,0.04,0.12,0.06c0.43,0.26,0.84,0.52,1.25,0.81c0.21,0.15,0.42,0.31,0.63,0.47c0.02,0.02,0.05,0.04,0.07,0.05
		c0.18,0.15,0.36,0.3,0.53,0.45c0.21,0.18,0.41,0.35,0.61,0.53c0.09,0.07,0.17,0.16,0.25,0.22c0.3,0.29,0.6,0.59,0.9,0.89
		c0.01,0.02,0.02,0.03,0.04,0.05c0.58,0.6,1.14,1.23,1.71,1.89c0.43,0.51,0.86,1.05,1.29,1.6c0.29,0.36,0.58,0.74,0.85,1.12
		c0.26,0.34,0.51,0.68,0.77,1.02c0.04,0.05,0.06,0.1,0.1,0.14C153.15,28.69,152.43,33.6,148.97,36.2z"/>
	<path style="fill:#643219;" d="M148.97,36.2c-1.92,1.45-4.29,1.88-6.45,1.38c-0.29-0.06-0.58-0.15-0.85-0.25
		c-0.28-0.11-0.55-0.22-0.82-0.35c-0.19-0.09-0.36-0.18-0.54-0.3c-0.34-0.19-0.67-0.43-0.98-0.68c-0.23-0.19-0.46-0.41-0.68-0.63
		c-0.21-0.22-0.42-0.47-0.61-0.73c-0.05-0.07-0.12-0.15-0.17-0.23c-0.1-0.12-0.18-0.23-0.29-0.37c-0.01-0.02-0.03-0.04-0.04-0.07
		c-0.02-0.03-0.04-0.06-0.07-0.1c-0.84-1.16-1.57-2.25-2.26-3.17c-0.13-0.74,1.28-1.21,2.31-1.34c0.63-0.1,1.22,0.07,1.75,0.32
		c-0.63-0.48-1.08-1.21-1.19-2.06c-0.23-1.73,0.98-3.31,2.69-3.56c0.79-0.11,1.55,0.12,2.17,0.54c-0.53-0.48-0.93-1.12-1.03-1.88
		c-0.23-1.73,1.44-3.17,3.15-3.41c0.13-0.02,0.61,0.1,0.85,0.14c0.58,0.6,1.14,1.23,1.71,1.89c0.43,0.51,0.86,1.05,1.29,1.6
		c0.29,0.36,0.58,0.74,0.85,1.12c0.26,0.34,0.51,0.68,0.77,1.02c0.04,0.05,0.06,0.1,0.1,0.14C153.15,28.69,152.43,33.6,148.97,36.2z
		"/>
	<path style="fill:#FFFFFF;" d="M134.63,14.12c0.03,0,0.05,0,0.08,0c-0.28,0-0.56-0.01-0.85,0.01
		C134.12,14.13,134.38,14.12,134.63,14.12z"/>
	<path style="fill:#FFFFFF;" d="M136.34,14.22c-0.52-0.06-1.07-0.09-1.63-0.09C135.27,14.13,135.82,14.15,136.34,14.22z"/>
	<path style="fill:#FFFFFF;" d="M147.58,21.33c-0.57-0.66-1.13-1.29-1.71-1.89C146.46,20.03,147.03,20.67,147.58,21.33z"/>
	<g>
		<path d="M152.75,23.64c-0.91-1.23-1.82-2.44-2.77-3.58c-3.98-4.83-8.51-8.6-15.34-8.6c-0.59,0-1.19,0.02-1.8,0.07
			c-3.42,0.32-6.33,1.54-8.63,3.61c-4.81,4.34-6.88,9.03-6.14,13.96c0.48,3.27,4.52,5.38,7.25,5.63c0.22,0.02,0.44,0.03,0.64,0.03
			c2.46,0,3.63-1.44,4.41-2.4c0.38-0.47,0.71-0.89,1.27-1.29c0.09-0.06,0.16-0.11,0.21-0.14c0.58,0.41,1.64,1.92,2.43,3.05
			c0.48,0.68,1.02,1.47,1.62,2.26c0.36,0.49,0.78,0.95,1.23,1.37c1.93,1.8,4.5,2.84,7.16,2.84c2.29,0,4.47-0.73,6.3-2.11
			C155.18,34.86,156.15,28.27,152.75,23.64z M148.97,36.2c-1.92,1.45-4.29,1.88-6.45,1.38c-0.29-0.06-0.58-0.15-0.85-0.25
			c-0.28-0.11-0.55-0.22-0.82-0.35c-0.19-0.09-0.36-0.18-0.54-0.3c-0.34-0.19-0.67-0.43-0.98-0.68c-0.23-0.19-0.46-0.41-0.68-0.63
			c-0.21-0.22-0.42-0.47-0.61-0.73c-0.05-0.07-0.12-0.15-0.17-0.23c-0.1-0.12-0.18-0.23-0.29-0.37c-0.01-0.02-0.03-0.04-0.04-0.07
			c-0.02-0.03-0.04-0.06-0.07-0.1c-0.84-1.16-1.57-2.25-2.26-3.17c-0.42-0.55-0.82-1.05-1.23-1.44c-0.07-0.06-0.14-0.13-0.2-0.19
			c-0.06-0.06-0.13-0.12-0.2-0.17c-0.14-0.11-0.27-0.2-0.41-0.29c-0.14-0.09-0.28-0.16-0.42-0.21c-0.14-0.05-0.28-0.11-0.43-0.14
			c-0.07-0.01-0.14-0.02-0.21-0.03c-0.07-0.01-0.15-0.01-0.22-0.01c-0.43,0-0.86,0.13-1.34,0.39c-0.16,0.1-0.32,0.2-0.49,0.32
			c-0.13,0.1-0.26,0.19-0.36,0.29c-0.12,0.11-0.22,0.2-0.33,0.3c-0.1,0.1-0.19,0.19-0.29,0.29c-1.18,1.23-1.5,2.29-3.1,2.29
			c-0.12,0-0.26-0.01-0.39-0.02c-1.98-0.18-4.62-1.73-4.86-3.37c-0.7-4.73,1.9-8.52,5.3-11.58c1.98-1.79,4.45-2.69,7.08-2.93
			c0.27-0.02,0.53-0.03,0.79-0.05c0.29-0.01,0.57-0.01,0.84-0.01h0.13c0.51,0.01,1.02,0.04,1.5,0.1c0.28,0.03,0.55,0.07,0.82,0.12
			c0,0,0,0,0.01,0c0.26,0.05,0.51,0.11,0.76,0.16c0.02,0,0.03,0.01,0.04,0.01c0.51,0.13,1,0.28,1.47,0.45
			c0.02,0.01,0.03,0.01,0.04,0.01c0.23,0.1,0.46,0.18,0.68,0.28c0.22,0.11,0.46,0.21,0.69,0.33c0.2,0.11,0.42,0.21,0.62,0.33
			c0.03,0.02,0.07,0.04,0.12,0.06c0.43,0.26,0.84,0.52,1.25,0.81c0.21,0.15,0.42,0.31,0.63,0.47c0.02,0.02,0.05,0.04,0.07,0.05
			c0.18,0.15,0.36,0.3,0.53,0.45c0.21,0.18,0.41,0.35,0.61,0.53c0.09,0.07,0.17,0.16,0.25,0.22c0.31,0.28,0.61,0.58,0.9,0.89
			c0.01,0.02,0.02,0.03,0.04,0.05c0.58,0.6,1.14,1.23,1.71,1.89c0.43,0.51,0.86,1.05,1.29,1.6c0.29,0.36,0.58,0.74,0.85,1.12
			c0.26,0.34,0.51,0.68,0.77,1.02c0.04,0.05,0.06,0.1,0.1,0.14C153.15,28.69,152.43,33.6,148.97,36.2z"/>
	</g>
</g>
<g>
	<path style="fill:#F7E494;" d="M36.69,37.05c-2.04,1.22-3.68,3.1-5.03,5.73l-0.1,0.19c-0.83,1.61-1.62,3.22-2.23,4.74
		c-1.54-3.65-3.46-6.94-6.78-9.3c2.11-1.23,4-3.1,4.74-4.18c0.67-0.99,1.33-2.22,1.87-3.57c0.5,1.14,1.13,2.21,1.95,3.11
		C32.59,35.39,34.62,36.34,36.69,37.05z"/>
	<path style="fill:#F4C82B;" d="M42.51,35.49c-0.72-0.25-1.5-0.48-2.31-0.71c-2.57-0.75-5.22-1.51-6.72-3.17
		c-1.46-1.61-2.2-4.37-2.85-6.83c-0.22-0.86-0.45-1.72-0.69-2.49c-0.27-0.83-1.14-1.29-1.97-1.06c-0.83,0.25-1.32,1.11-1.1,1.94
		c0.78,3-0.54,6.79-2.22,9.23c-1.13,1.66-4.33,4-5.66,4c-0.11,0-0.2-0.01-0.29-0.04c-0.82-0.32-1.75,0.1-2.07,0.92
		c-0.07,0.19-0.11,0.38-0.11,0.58c0,0.64,0.39,1.25,1.03,1.49c6.38,2.44,8.35,7.97,10.63,14.38l0.17,0.48
		c0.23,0.65,0.84,1.06,1.5,1.06c0.18,0,0.36-0.03,0.53-0.09c0.65-0.23,1.07-0.85,1.07-1.51c0-0.17-0.03-0.35-0.1-0.53
		c-0.21-0.63-0.12-2.58,3.04-8.69l0.11-0.2c1.85-3.58,4.14-5.27,7.65-5.64c0.75-0.07,1.34-0.66,1.43-1.41
		C43.67,36.44,43.22,35.73,42.51,35.49z M31.56,42.97c-0.83,1.61-1.62,3.22-2.23,4.74c-1.54-3.65-3.46-6.94-6.78-9.3
		c2.11-1.23,4-3.1,4.74-4.18c0.67-0.99,1.33-2.22,1.87-3.57c0.5,1.14,1.13,2.21,1.95,3.11c1.48,1.63,3.52,2.58,5.59,3.29
		c-2.04,1.22-3.68,3.1-5.03,5.73L31.56,42.97z"/>
</g>
<g>
	<path style="fill:#D1DDE2;" d="M63.29,177.26c0.06,1.83-0.06,3.63-0.83,4.44c-0.29,0.31-1.02,1-1.57,0.74
		c-0.51-0.25-0.95-1.25-0.77-2.49c0.15-1.05,0.71-2.41,1.39-3.64c-0.62-0.35-1.24-0.7-1.83-1.08c-0.84,1.55-1.5,3.22-1.66,4.42
		c-0.3,2.08,0.51,4.01,1.95,4.7c0.26,0.13,0.67,0.27,1.19,0.27c0.77,0,1.77-0.31,2.86-1.46c1.08-1.15,1.39-2.95,1.42-4.87
		C64.7,177.96,63.99,177.61,63.29,177.26z"/>
	<path style="fill:#1D1D1B;" d="M143.82,96.37c1.03-2.37,2.37-4.59,3.66-6.74c2.88-4.79,5.86-9.74,5.82-16.61
		c-0.01-5.02-1.03-10.21-3.04-15.4c-3.64-9.43-9.79-17.53-15.75-25.35l-0.09-0.12c-4.8-6.31-14.46-9.62-23.29-12.01
		c-2.39-0.65-4.71-0.91-6.95-1.16c-1.47-0.16-2.86-0.31-4.23-0.57c-0.97-0.18-1.97-0.5-3.02-0.84c-1.8-0.58-3.84-1.24-6.1-1.24
		c-0.43,0-0.84,0.03-1.26,0.07c-4.41,0.48-7.61,2.28-10.7,4.02c-0.66,0.37-1.33,0.75-2.04,1.12c-1.86,1-3.78,1.92-5.64,2.81
		c-3.88,1.85-7.9,3.77-11.71,6.58c-7.22,5.33-13.09,14.86-16.09,26.13c-3.22,12.1-2.91,23.94,0.97,36.19
		c0.37,1.21,0.85,2.36,1.32,3.47c0.95,2.28,1.86,4.44,1.69,6.55c-0.09,1.03-0.5,2.27-0.94,3.58c-0.34,1.02-0.69,2.08-0.93,3.15
		c-0.51,2.36-1.13,4.78-1.74,7.11c-1.26,4.9-2.56,9.97-3.03,15.2c-0.88,9.8,1,23.58,7.22,32.26c2.95,4.13,6.94,7.72,11.71,10.66
		c0.6,0.37,1.22,0.73,1.83,1.08c0.58,0.33,1.17,0.64,1.78,0.95c0.7,0.35,1.42,0.7,2.14,1.02c5.73,2.61,12.26,4.39,19.31,5.25
		c1.89,0.22,3.95,0.38,5.95,0.46l3.85,0.15h0.04l0.18,0.01c0.92,0.03,1.85,0.05,2.75,0.05c1.06,0,2.11-0.03,3.15-0.07
		c7.01-0.31,13.28-1.43,18.76-3.32c1.07-0.36,2.1-0.76,3.09-1.18c0.72-0.31,1.43-0.63,2.11-0.97c0.77-0.36,1.5-0.75,2.22-1.15
		c6.77-3.79,11.83-9.14,15.04-15.96c5.54-11.77,3.54-24.39,1.61-36.61c-1.18-7.46-2.4-15.17-1.76-22.34
		C141.9,100.76,143.01,98.23,143.82,96.37z M139.48,160.42c-0.44,0.92-0.9,1.8-1.4,2.66c-0.21,0.38-0.45,0.75-0.68,1.11
		c-0.55,0.87-1.14,1.71-1.77,2.51c-0.23,0.3-0.48,0.6-0.74,0.89c-0.2,0.26-0.42,0.5-0.65,0.75c-0.17,0.21-0.36,0.42-0.57,0.62
		c-0.39,0.42-0.8,0.82-1.22,1.22c-0.29,0.29-0.59,0.55-0.9,0.82c-0.3,0.27-0.6,0.52-0.91,0.77c-0.3,0.25-0.6,0.48-0.91,0.7
		c-0.01,0.02-0.02,0.03-0.03,0.03c-0.29,0.22-0.58,0.44-0.88,0.64c-0.13,0.1-0.25,0.18-0.37,0.26c-0.29,0.21-0.59,0.41-0.88,0.59
		c-0.29,0.2-0.58,0.38-0.88,0.55c-0.23,0.15-0.47,0.29-0.71,0.43c-0.32,0.18-0.63,0.36-0.95,0.53c-0.35,0.19-0.7,0.37-1.06,0.54
		c-0.03,0.02-0.06,0.03-0.1,0.05c-0.05,0.02-0.1,0.05-0.15,0.07c-0.27,0.14-0.54,0.27-0.82,0.39c-0.6,0.28-1.19,0.54-1.8,0.78
		c-0.29,0.13-0.57,0.25-0.85,0.35c-0.1,0.03-0.18,0.06-0.27,0.1c-0.38,0.15-0.76,0.29-1.14,0.42c-0.64,0.22-1.28,0.44-1.93,0.63
		c-0.81,0.26-1.64,0.49-2.49,0.69c-0.37,0.1-0.75,0.19-1.13,0.28c-1.17,0.28-2.38,0.51-3.58,0.71c-0.6,0.11-1.19,0.2-1.8,0.29
		c-0.02,0-0.04,0.01-0.06,0.01c-0.31,0.04-0.61,0.09-0.92,0.12c-0.35,0.05-0.7,0.09-1.06,0.13c-0.3,0.03-0.6,0.06-0.91,0.1
		c-0.03,0.01-0.06,0.01-0.11,0.01c-0.66,0.06-1.32,0.13-1.98,0.17c-0.78,0.06-1.56,0.11-2.35,0.14c-0.5,0.02-1,0.04-1.51,0.05
		c-0.5,0.01-1,0.02-1.51,0.02c-0.89,0-1.77-0.02-2.66-0.05c-0.07,0-0.14-0.01-0.21-0.01l-3.85-0.15c-1.9-0.06-3.86-0.21-5.75-0.44
		c-0.42-0.05-0.82-0.11-1.24-0.16c-0.81-0.11-1.61-0.23-2.42-0.38c-0.02,0-0.05,0-0.08-0.01c-0.79-0.14-1.59-0.29-2.38-0.46
		c-0.42-0.09-0.82-0.18-1.24-0.28c-1.3-0.3-2.6-0.64-3.9-1.03c-0.42-0.12-0.82-0.25-1.24-0.38c-0.32-0.1-0.64-0.2-0.96-0.32
		c-0.33-0.11-0.66-0.22-0.99-0.34c-0.21-0.07-0.42-0.15-0.62-0.22c-0.37-0.14-0.74-0.28-1.1-0.43c-1.22-0.48-2.41-1-3.57-1.57H65.3
		c-0.37-0.18-0.75-0.37-1.12-0.57c-0.37-0.19-0.74-0.38-1.11-0.59c-0.04-0.02-0.08-0.04-0.12-0.06c-0.21-0.12-0.44-0.23-0.65-0.36
		c-0.29-0.16-0.58-0.33-0.86-0.5c-0.12-0.07-0.22-0.14-0.34-0.21c-0.45-0.28-0.9-0.55-1.33-0.85c-0.61-0.41-1.21-0.82-1.79-1.26
		c-0.47-0.33-0.92-0.68-1.37-1.06c-0.05-0.04-0.12-0.09-0.17-0.14c-0.37-0.3-0.75-0.62-1.11-0.94c-0.59-0.51-1.15-1.05-1.7-1.6
		c-0.39-0.38-0.77-0.79-1.14-1.19c-0.32-0.35-0.64-0.73-0.95-1.1c-0.17-0.21-0.35-0.43-0.52-0.64c-0.31-0.39-0.61-0.79-0.9-1.19
		c-5.67-7.93-7.59-20.87-6.73-30.46c0.67-7.49,3.14-14.69,4.71-21.99c0.49-2.28,1.74-4.79,1.92-7.08c0.32-3.96-1.98-7.43-3.13-11.03
		c-3.69-11.68-4.09-22.87-0.94-34.71c2.42-9.11,7.4-18.99,15.09-24.67c5.39-3.98,11.24-6.07,17.05-9.17
		c3.91-2.1,7.03-4.34,11.75-4.85c0.33-0.03,0.65-0.05,0.97-0.05c2.27,0,4.35,0.84,6.49,1.49c0.35,0.11,0.71,0.2,1.07,0.3
		c0.36,0.1,0.73,0.18,1.09,0.25c3.67,0.67,7.32,0.68,10.98,1.67c7.15,1.94,17.27,5.01,21.86,11.06
		c5.78,7.58,11.96,15.69,15.48,24.81c1.78,4.62,2.85,9.49,2.86,14.45c0.03,9.07-5.86,14.5-9.26,22.27
		c-0.91,2.07-2.09,4.79-2.29,7.06C137.38,121.5,148,142.28,139.48,160.42z"/>
	<path style="fill:#323637;" d="M139.48,160.42c-0.44,0.92-0.9,1.8-1.4,2.66c-0.21,0.38-0.45,0.75-0.68,1.11
		c-0.55,0.87-1.14,1.71-1.77,2.51c-0.23,0.3-0.48,0.6-0.74,0.89c-0.2,0.26-0.42,0.5-0.65,0.75c-0.17,0.21-0.36,0.42-0.57,0.62
		c-0.39,0.42-0.8,0.82-1.22,1.22c-0.3,0.29-0.6,0.55-0.9,0.82c-0.3,0.27-0.6,0.52-0.91,0.77c-0.3,0.25-0.6,0.48-0.91,0.7
		c-0.01,0.02-0.02,0.03-0.03,0.03c-0.29,0.22-0.58,0.44-0.88,0.64c-0.13,0.1-0.25,0.18-0.37,0.26c-0.29,0.21-0.59,0.41-0.88,0.59
		c-0.29,0.2-0.58,0.38-0.88,0.55c-0.23,0.15-0.47,0.29-0.71,0.43c-0.32,0.18-0.63,0.36-0.95,0.53c-0.35,0.19-0.7,0.37-1.06,0.54
		c-0.03,0.02-0.06,0.03-0.1,0.05c-0.05,0.02-0.1,0.05-0.15,0.07c-0.27,0.14-0.54,0.27-0.82,0.39c-0.6,0.28-1.19,0.54-1.8,0.78
		c-0.29,0.13-0.57,0.25-0.85,0.35c-0.1,0.03-0.18,0.06-0.27,0.1c-0.38,0.15-0.76,0.29-1.14,0.42c-0.64,0.22-1.28,0.44-1.93,0.63
		c-0.81,0.26-1.64,0.49-2.49,0.69c-0.37,0.1-0.75,0.19-1.13,0.28c-1.17,0.28-2.38,0.51-3.58,0.71c-0.6,0.11-1.19,0.2-1.8,0.29
		c-0.02,0-0.04,0.01-0.06,0.01c-0.31,0.04-0.61,0.09-0.92,0.12c-0.35,0.05-0.7,0.09-1.06,0.13c-0.3,0.03-0.61,0.06-0.91,0.1
		c-0.03,0.01-0.06,0.01-0.11,0.01c-0.66,0.06-1.32,0.13-1.98,0.17c-0.78,0.06-1.56,0.11-2.35,0.14c-0.5,0.02-1,0.04-1.51,0.05
		c-1.39,0.03-2.78,0.01-4.17-0.03c-0.07,0-0.14-0.01-0.21-0.01l-3.85-0.15c-1.9-0.06-3.86-0.21-5.75-0.44
		c-0.42-0.05-0.82-0.11-1.24-0.16c-0.8-0.11-1.61-0.23-2.42-0.38c-0.02,0-0.05,0-0.08-0.01c-0.79-0.14-1.59-0.29-2.38-0.46
		c-0.42-0.09-0.82-0.18-1.24-0.28c-1.3-0.3-2.6-0.64-3.9-1.03c-0.42-0.12-0.82-0.25-1.24-0.38c-0.32-0.1-0.64-0.2-0.96-0.32
		c-0.33-0.11-0.66-0.22-0.99-0.34c-0.21-0.07-0.42-0.15-0.62-0.22c-0.37-0.14-0.74-0.28-1.1-0.43c-1.22-0.48-2.41-1-3.57-1.57H65.3
		c-0.37-0.18-0.75-0.37-1.12-0.57c-0.37-0.19-0.74-0.38-1.11-0.59c-0.04-0.02-0.08-0.04-0.12-0.06c-0.21-0.12-0.44-0.23-0.65-0.36
		c-0.29-0.16-0.58-0.33-0.86-0.5c-0.12-0.07-0.22-0.14-0.34-0.21c-0.45-0.28-0.9-0.55-1.33-0.85c-0.61-0.41-1.21-0.82-1.79-1.26
		c-0.47-0.33-0.92-0.68-1.37-1.06c-0.05-0.04-0.12-0.09-0.17-0.14c-0.37-0.3-0.75-0.62-1.11-0.94c-0.59-0.51-1.15-1.05-1.7-1.6
		c-0.39-0.38-0.77-0.79-1.14-1.19c-0.32-0.35-0.64-0.73-0.95-1.1c-0.17-0.21-0.35-0.43-0.52-0.64c-0.31-0.39-0.61-0.79-0.9-1.19
		c-5.67-7.93-7.59-20.87-6.73-30.46c0.67-7.49,3.14-14.69,4.71-21.99c0.49-2.28,1.74-4.79,1.92-7.08c0.32-3.96-1.98-7.43-3.13-11.03
		c-3.69-11.68-4.09-22.87-0.94-34.71c2.42-9.11,7.4-18.99,15.09-24.67c5.39-3.98,11.24-6.07,17.05-9.17
		c3.91-2.1,7.03-4.34,11.75-4.85c0.33-0.03,0.65-0.05,0.97-0.05c2.27,0,4.35,0.84,6.49,1.49c0.35,0.11,0.7,0.21,1.07,0.3
		c0.36,0.1,0.73,0.18,1.09,0.25c3.67,0.67,7.32,0.68,10.98,1.67c7.15,1.94,17.27,5.01,21.86,11.06
		c5.78,7.58,11.96,15.69,15.48,24.81c1.78,4.62,2.85,9.49,2.86,14.45c0.03,9.07-5.86,14.5-9.26,22.27
		c-0.91,2.07-2.09,4.79-2.29,7.06C137.38,121.5,148,142.28,139.48,160.42z"/>
	<path style="fill:#494C4E;" d="M115.99,101.52c-0.27,0-0.54-0.05-0.77-0.11c-0.29-0.07-0.46-0.36-0.39-0.64
		c0.07-0.29,0.36-0.46,0.64-0.39c0.53,0.13,0.68,0.06,0.68,0.06c0.03-0.08-0.02-0.51-0.06-0.77c-0.09-0.7-0.21-1.56,0.38-2.19
		c0.44-0.46,1.16-0.66,2.2-0.6c0.76-0.54,1.07-1.15,1.5-1.98c0.12-0.24,0.25-0.49,0.39-0.75c0.58-1.04,0.72-1.21,1.49-2.14
		c2.36-2.82,5.02-6.01,5.54-9.85c0.2-1.5,0.37-3,0.55-4.5c0.24-2.07,0.48-4.22,0.81-6.36c1.48-9.64,0.66-17.71-2.43-23.97
		c-1.31-2.67-2.85-5.05-4.48-7.57c-0.53-0.82-1.06-1.65-1.59-2.49c-0.16-0.25-0.08-0.58,0.17-0.73c0.25-0.16,0.58-0.08,0.74,0.17
		c0.53,0.84,1.06,1.66,1.58,2.48c1.57,2.44,3.2,4.96,4.54,7.68c3.19,6.46,4.04,14.74,2.53,24.6c-0.33,2.13-0.57,4.26-0.81,6.33
		c-0.17,1.51-0.35,3.01-0.55,4.52c-0.56,4.15-3.33,7.46-5.77,10.39c-0.76,0.91-0.85,1.02-1.38,1.97c-0.14,0.25-0.26,0.49-0.38,0.72
		c-0.46,0.92-0.9,1.78-2.01,2.49c-0.1,0.06-0.2,0.09-0.33,0.08c-0.77-0.06-1.32,0.03-1.53,0.26c-0.24,0.25-0.17,0.79-0.09,1.31
		c0.09,0.63,0.17,1.29-0.3,1.71C116.61,101.45,116.3,101.52,115.99,101.52z"/>
	<path style="fill:#494C4E;" d="M124.38,33.23c-0.11,0-0.23-0.04-0.33-0.11c-1.42-1.09-3.65-1.6-6.61-1.51
		c-0.31,0.04-0.54-0.22-0.55-0.52c-0.01-0.29,0.22-0.54,0.52-0.55c3.22-0.1,5.67,0.48,7.29,1.73c0.23,0.18,0.28,0.52,0.1,0.75
		C124.7,33.16,124.54,33.23,124.38,33.23z"/>
	<path style="fill:#494C4E;" d="M112.26,28.2c-0.16,0-0.32-0.07-0.43-0.21c-0.18-0.23-0.13-0.57,0.11-0.75
		c0.81-0.61,1.88-1.06,3.01-1.26c0.29-0.05,0.57,0.14,0.62,0.43c0.05,0.29-0.14,0.57-0.43,0.62c-0.96,0.17-1.89,0.56-2.55,1.06
		C112.48,28.16,112.37,28.2,112.26,28.2z"/>
	<path style="fill:#494C4E;" d="M75.12,108.03c-0.08,0-0.16-0.02-0.24-0.06c-0.82-0.42-2.05-0.47-3.35-0.53
		c-1.71-0.07-3.47-0.14-4.75-1.06c-0.24-0.17-0.29-0.51-0.12-0.74c0.17-0.24,0.5-0.29,0.74-0.12c1.01,0.73,2.62,0.8,4.17,0.86
		c1.42,0.06,2.76,0.12,3.79,0.64c0.26,0.13,0.37,0.46,0.23,0.72C75.5,107.92,75.32,108.03,75.12,108.03z"/>
	<path style="fill:#494C4E;" d="M118.52,176.13c-0.06,0-0.12-0.01-0.18-0.03c-0.28-0.1-0.42-0.41-0.32-0.68
		c0.13-0.36,0.29-0.77,0.47-1.21c0.9-2.26,2.26-5.66,1.02-7.28c-0.18-0.23-0.13-0.57,0.1-0.75c0.24-0.18,0.57-0.13,0.75,0.1
		c1.59,2.1,0.16,5.7-0.88,8.33c-0.17,0.43-0.33,0.83-0.46,1.18C118.94,175.99,118.73,176.13,118.52,176.13z"/>
	<path style="fill:#494C4E;" d="M104.36,176.35c-0.14,0-0.28-0.06-0.38-0.16c-1.13-1.17-1.72-3.2-1.91-4.71
		c-0.04-0.29,0.17-0.56,0.46-0.59c0.28-0.04,0.56,0.17,0.59,0.46c0.16,1.28,0.67,3.12,1.62,4.1c0.2,0.21,0.2,0.55-0.01,0.75
		C104.63,176.3,104.5,176.35,104.36,176.35z"/>
	<path style="fill:#494C4E;" d="M81.47,175.47c-0.13,0-0.27-0.05-0.37-0.15c-0.21-0.21-0.44-0.41-0.66-0.61
		c-0.72-0.64-1.46-1.29-1.87-2.2c-0.12-0.27,0-0.58,0.26-0.71c0.26-0.12,0.58-0.01,0.71,0.26c0.32,0.7,0.95,1.26,1.61,1.84
		c0.24,0.21,0.48,0.42,0.7,0.64c0.21,0.21,0.22,0.54,0.01,0.75C81.75,175.42,81.61,175.47,81.47,175.47z"/>
	<path style="fill:#D1DDE2;" d="M79.37,133.19c-0.57,0-1.05-0.45-1.06-1.03c-0.06-1.73,0.52-3.63,1.08-5.46
		c0.33-1.06,0.63-2.07,0.8-2.97c0.42-2.3,0.42-4.54,0.43-6.91l0-0.21c0-0.59,0.48-1.06,1.07-1.06c0,0,0,0,0,0
		c0.59,0,1.06,0.48,1.06,1.07l0,0.21c-0.01,2.47-0.02,4.8-0.47,7.29c-0.19,1.03-0.53,2.14-0.86,3.22c-0.51,1.66-1.04,3.39-0.99,4.76
		c0.02,0.59-0.44,1.08-1.03,1.1C79.39,133.19,79.38,133.19,79.37,133.19z"/>
	<g>
		<path style="fill:#D1DDE2;" d="M128.13,178.63c-0.35-0.39-0.78-0.78-1.28-1.13c-0.72,0.41-1.45,0.79-2.22,1.15
			c0.75,0.37,1.42,0.86,1.9,1.4c1.1,1.23,0.47,1.81,0.2,2.06c-0.75,0.71-1.21,0.63-1.37,0.61c-0.99-0.17-2.03-1.67-2.85-3.09
			c-0.99,0.43-2.03,0.82-3.09,1.18c0.2,0.75,0.44,1.48,0.68,2.22c0.31,0.94,0.6,1.83,0.77,2.65c0.72,3.53,1.1,7.3,1.16,12.01
			c0.01-0.59,0.49-1.05,1.07-1.05c0.6,0,1.07,0.47,1.07,1.07c-0.06-4.87-0.46-8.78-1.21-12.46c-0.14-0.67-0.35-1.37-0.57-2.06
			c0.75,0.84,1.61,1.47,2.61,1.63c1.1,0.18,2.18-0.2,3.18-1.15C129.67,182.27,129.65,180.34,128.13,178.63z M124.19,199.56
			c0-0.63,0-1.25-0.02-1.86v2.07C124.18,199.71,124.19,199.64,124.19,199.56z"/>
		<path style="fill:#F39B15;" d="M124.17,197.71v5.15c0,0.59-0.47,1.07-1.07,1.07c-0.59,0-1.07-0.48-1.07-1.07v-5.15
			c0-0.01,0-0.01,0-0.02c0.01-0.59,0.49-1.05,1.07-1.05C123.7,196.64,124.17,197.11,124.17,197.71z"/>
	</g>
	<path style="fill:#494C4E;" d="M102.09,162.09l-0.11,0.06c0-0.03,0-0.05,0-0.08l0.06-0.04c0,0,0,0,0,0
		c-0.02-0.03-0.04-0.05-0.05-0.08c-0.01-0.87-0.36-1.82-0.69-2.69c-0.21-0.57-0.41-1.1-0.48-1.51c-0.17-1.05-0.18-2.11-0.2-3.23
		c-0.02-1.2-0.03-2.44-0.25-3.66c-0.07-0.4-0.13-0.79-0.18-1.19c-0.11-0.82-0.23-1.68-0.5-2.53c-0.21-0.66-0.39-1.39-0.59-2.16
		c-0.71-2.84-1.51-6.06-4.1-7.52c-0.25-0.14-0.58-0.06-0.73,0.2c-0.02,0.04-0.03,0.08-0.04,0.12c-1.77-0.35-4.22,0.22-5.12,0.45
		c-2.51,0.66-5,1.01-7.2,1.01c-0.02,0-0.04,0-0.05,0c-1.06,0-2.13,0-3.2,0.01c-6.8,0.02-13.82,0.05-20.35-1.59
		c-0.7-0.18-1.38-0.39-2.07-0.61c-0.78-0.25-1.59-0.51-2.41-0.7c-1.02-0.24-1.77-0.31-2.33,0.06c-0.58,0.38-0.81,1.11-1.01,2.17
		c-0.72,3.93-0.97,7.48-0.73,10.55c0.08,1.02-0.11,2.21-0.3,3.47c-0.43,2.78-0.92,5.93,1.57,7.79c2.43,1.81,5.67,2.6,8.54,3.29
		l1.2,0.3c5.43,1.36,10.99,1.77,16.48,1.77c3.31,0,6.6-0.15,9.81-0.32c1.97-0.11,3.93-0.39,5.82-0.66c1.16-0.17,2.32-0.33,3.5-0.46
		c0.04,0,2.99-0.34,4.68-0.89c0.06,0.02,0.11,0.05,0.17,0.05c0.18,0,0.36-0.09,0.46-0.26c0.01-0.01,0.01-0.03,0.02-0.05
		c0.25-0.13,0.44-0.26,0.5-0.4C102.27,162.58,102.2,162.25,102.09,162.09z M98.66,147.45c0.24,0.76,0.35,1.54,0.46,2.35
		c0.06,0.41,0.11,0.82,0.19,1.23c0.21,1.14,0.22,2.33,0.24,3.48c0.01,1.11,0.03,2.26,0.21,3.38c0.05,0.3,0.15,0.63,0.27,0.98
		c-2.88-5.07-4.26-10.8-4.15-17.42c0-0.17,0.04-0.4,0.08-0.65c0.05-0.3,0.09-0.6,0.11-0.91c1.02,1.47,1.53,3.48,1.99,5.32
		C98.26,146.02,98.44,146.77,98.66,147.45z M96.25,163.24c-1.19,0.13-2.36,0.3-3.53,0.47c-1.87,0.27-3.8,0.54-5.72,0.65
		c-8.45,0.46-17.42,0.74-25.98-1.42l-1.21-0.3c-2.77-0.67-5.9-1.43-8.15-3.11c-1.98-1.48-1.58-4.05-1.15-6.77
		c0.21-1.33,0.4-2.58,0.31-3.72c-0.23-2.98,0.01-6.44,0.72-10.28c0.16-0.89,0.32-1.32,0.54-1.47c0.09-0.06,0.22-0.09,0.4-0.09
		c0.26,0,0.61,0.06,1.11,0.17c0.78,0.18,1.57,0.43,2.33,0.68c0.69,0.22,1.41,0.45,2.14,0.63c6.66,1.67,13.76,1.64,20.62,1.62
		c1.07,0,2.14-0.01,3.19-0.01c2.32-0.01,4.91-0.36,7.53-1.05c2.2-0.58,4.89-0.84,5.57-0.01c0.15,0.18,0.02,1-0.04,1.39
		c-0.05,0.31-0.09,0.59-0.1,0.8c-0.14,8.08,1.86,14.89,6.08,20.81c-0.01,0.04-0.01,0.08-0.02,0.12
		C99.75,162.71,96.95,163.16,96.25,163.24z"/>
</g>
<g>
	<g>
		<path style="fill:#F4C82B;" d="M71.41,118.98l-1.69,9.07c-0.03,0.16-0.07,0.31-0.13,0.46c-0.05,0.15-0.13,0.3-0.2,0.43
			c-0.09,0.13-0.17,0.26-0.28,0.36c-0.49,0.58-1.23,0.93-2.01,0.93c-0.16,0-0.32-0.02-0.49-0.04l-9.07-1.7
			c-1.44-0.27-2.39-1.66-2.12-3.09l0.5-2.73h0.01c0.02-0.02,0.04-0.01,0.06-0.04c0.11-0.14,0.15-0.34,0.12-0.55
			c-0.03-0.15-0.17-0.25-0.32-0.21c-0.14,0.02-0.23,0.16-0.21,0.31c0.02,0.06,0,0.12,0,0.13v0.01c-0.13,0.02-0.26,0.04-0.39,0.04
			c-0.13,0-0.26-0.02-0.39-0.04l-0.17-0.04c-1.14-0.27-1.87-1.42-1.6-2.55l0.04-0.18c0.22-0.98,1.11-1.65,2.08-1.65
			c0.15,0,0.31,0.02,0.47,0.05l0.18,0.04c0.36,0.09,0.65,0.28,0.91,0.5l0.41-2.15c0.23-1.27,1.35-2.17,2.61-2.17
			c0.16,0,0.32,0.01,0.48,0.04l2.02,0.37c0.01-0.11,0.01-0.22,0.03-0.34c0.21-1.16,1.25-1.98,2.39-1.98c0.14,0,0.29,0.01,0.44,0.04
			c0.44,0.07,0.82,0.28,1.13,0.54c0.21,0.18,0.38,0.39,0.52,0.63c0.06,0.13,0.12,0.25,0.17,0.37c0.02,0.06,0.04,0.15,0.06,0.22
			c0.05,0.25,0.08,0.51,0.08,0.7c0,0.05-0.01,0.11-0.01,0.14c0,0.01-0.43-0.04-0.57-0.12c-0.14-0.07-0.3-0.02-0.36,0.11
			c-0.07,0.13-0.03,0.29,0.1,0.36c0.19,0.1,0.46,0.21,0.77,0.21h0.03l2.28,0.42C70.72,116.15,71.68,117.54,71.41,118.98z"/>
		<path style="fill:#F39B15;" d="M63.78,125.46c-0.21,0-0.42-0.02-0.66-0.07l-1.99-0.48c-0.48-0.15-0.83-0.33-1.16-0.61
			c-0.22-0.19-0.37-0.38-0.46-0.58c-0.15-0.32-0.22-0.6-0.21-0.85c0-0.19,0.02-0.39,0.05-0.58c0.06-0.38,0.18-0.75,0.36-1.11
			c0.32-0.64,0.78-1.15,1.27-1.38c0.35-0.17,0.72-0.29,1.08-0.35c-0.1-0.07-0.25-0.07-0.46,0.02c-0.01,0.01-0.02,0.02-0.03,0.02
			c-0.08,0.03-0.16,0.07-0.21,0.11c-0.14,0.09-0.3,0.12-0.46,0.08c-0.16-0.03-0.29-0.13-0.38-0.26c-0.11-0.17-0.13-0.38-0.05-0.57
			c0.04-0.11,0.12-0.2,0.22-0.27l0.05-0.03c0.31-0.19,0.62-0.3,0.92-0.32c0.27-0.01,0.49,0.04,0.7,0.16
			c0.09,0.05,0.19,0.12,0.28,0.21c0.07,0.06,0.13,0.14,0.2,0.23c0.11,0.14,0.19,0.38,0.21,0.6c0.09,0.01,0.17,0.03,0.25,0.05
			c0.09,0.02,0.15,0.04,0.18,0.05c0.06,0.01,0.12,0.02,0.18,0.04c0.09,0.02,0.17,0.05,0.26,0.08c0.13-0.2,0.32-0.37,0.46-0.44
			c0.08-0.04,0.18-0.08,0.29-0.11c0.13-0.03,0.24-0.05,0.34-0.06c0.23-0.02,0.47,0.05,0.69,0.18c0.26,0.15,0.49,0.39,0.68,0.71
			l0.03,0.05c0.06,0.1,0.09,0.22,0.08,0.34c-0.02,0.2-0.13,0.38-0.3,0.48c-0.14,0.08-0.3,0.1-0.46,0.06
			c-0.15-0.04-0.28-0.14-0.36-0.28c0-0.01-0.01-0.01-0.01-0.02c-0.03-0.05-0.08-0.12-0.14-0.19c-0.01-0.01-0.02-0.02-0.02-0.03
			c-0.14-0.17-0.29-0.25-0.4-0.23c0.29,0.22,0.57,0.5,0.8,0.81c0.33,0.43,0.51,1.09,0.5,1.81c-0.01,0.39-0.07,0.78-0.19,1.14
			c-0.06,0.19-0.14,0.37-0.22,0.54c-0.11,0.23-0.3,0.44-0.58,0.66c-0.18,0.14-0.4,0.24-0.68,0.3
			C64.21,125.43,64,125.46,63.78,125.46z M61.89,119.14c0.26,0,0.39,0.14,0.46,0.25c0.02,0.03,0.04,0.07,0.06,0.12
			c0.02,0.04,0.01,0.08-0.01,0.12c-0.02,0.04-0.06,0.06-0.1,0.07c-0.4,0.05-0.82,0.17-1.21,0.36c-0.44,0.21-0.86,0.67-1.15,1.26
			c0,0,0,0,0,0c-0.16,0.33-0.27,0.68-0.33,1.03c-0.03,0.18-0.04,0.36-0.05,0.54c0,0.21,0.06,0.45,0.19,0.74
			c0.08,0.17,0.21,0.33,0.39,0.49c0.3,0.26,0.62,0.42,1.06,0.55l1.97,0.48c0.45,0.08,0.8,0.08,1.19-0.01
			c0.24-0.05,0.43-0.14,0.57-0.25c0.24-0.19,0.41-0.38,0.51-0.56c0.08-0.16,0.15-0.33,0.21-0.5c0.11-0.34,0.17-0.7,0.18-1.07
			c0.01-0.66-0.15-1.26-0.44-1.65c-0.26-0.35-0.58-0.65-0.91-0.87c-0.04-0.02-0.06-0.06-0.06-0.1c0-0.04,0.02-0.08,0.05-0.11
			c0.04-0.03,0.07-0.06,0.11-0.08c0.16-0.09,0.49-0.18,0.86,0.28c0.01,0.01,0.01,0.02,0.02,0.03c0.06,0.07,0.11,0.14,0.14,0.2
			c0.05,0.08,0.12,0.14,0.21,0.16c0.09,0.02,0.18,0.01,0.26-0.03c0.1-0.06,0.16-0.16,0.17-0.27c0.01-0.07-0.01-0.14-0.04-0.19
			l-0.03-0.04c-0.17-0.28-0.36-0.48-0.58-0.61c-0.18-0.11-0.36-0.16-0.55-0.14c-0.09,0-0.18,0.02-0.29,0.05
			c-0.09,0.02-0.17,0.06-0.24,0.09c-0.12,0.06-0.3,0.23-0.39,0.42c-0.03,0.06-0.1,0.09-0.17,0.07c-0.12-0.05-0.22-0.08-0.32-0.1
			c-0.07-0.02-0.12-0.03-0.16-0.04c0,0-0.03-0.01-0.04-0.01c-0.03-0.01-0.09-0.03-0.17-0.04c-0.11-0.03-0.22-0.04-0.34-0.06
			c-0.07-0.01-0.12-0.07-0.12-0.13c0-0.21-0.08-0.45-0.16-0.56c-0.06-0.08-0.11-0.14-0.17-0.19c-0.08-0.07-0.15-0.13-0.23-0.17
			c-0.16-0.1-0.34-0.14-0.55-0.12c-0.26,0.01-0.53,0.11-0.8,0.28l-0.04,0.03c-0.06,0.04-0.1,0.09-0.13,0.15
			c-0.04,0.11-0.03,0.23,0.03,0.32c0.05,0.08,0.12,0.13,0.21,0.15c0.09,0.02,0.18,0,0.26-0.05c0.07-0.04,0.15-0.08,0.22-0.12
			c0.01-0.01,0.02-0.01,0.03-0.02C61.63,119.17,61.78,119.14,61.89,119.14z M59.83,121.25L59.83,121.25L59.83,121.25z"/>
		<path style="fill:#F39B15;" d="M66.01,128.92c-0.88,0-1.78-0.2-2.35-0.33c-1.03-0.23-2.11-0.46-3.53-0.74
			c-0.28-0.06-0.58-0.1-0.88-0.14c-0.99-0.15-2.02-0.3-2.86-0.92c-0.12-0.09-0.14-0.26-0.05-0.37c0.09-0.12,0.26-0.14,0.37-0.05
			c0.73,0.54,1.69,0.69,2.62,0.82c0.31,0.05,0.61,0.09,0.9,0.15c1.42,0.28,2.51,0.51,3.54,0.74c1,0.23,3.09,0.71,3.99-0.24
			c0.27-0.29,0.43-0.99,0.56-1.56c0.05-0.24,0.1-0.46,0.16-0.64c0.21-0.69,0.29-1.35,0.37-2.04c0.06-0.49,0.12-1,0.24-1.53
			c0.27-1.25,0.52-2.48,0.64-3.79c0.01-0.15,0.15-0.26,0.29-0.24c0.15,0.01,0.25,0.14,0.24,0.29c-0.12,1.34-0.38,2.58-0.65,3.85
			c-0.11,0.51-0.17,1-0.23,1.49c-0.08,0.68-0.17,1.39-0.39,2.13c-0.05,0.17-0.1,0.38-0.15,0.61c-0.15,0.66-0.31,1.41-0.69,1.81
			C67.62,128.75,66.82,128.92,66.01,128.92z"/>
		<path style="fill:#F39B15;" d="M69.39,115.35l-1.8-0.33c0.08-0.71-0.09-1.43-0.5-2.03c-0.45-0.65-1.12-1.1-1.9-1.24
			c-0.17-0.03-0.35-0.05-0.53-0.05c-1.37,0-2.54,0.93-2.87,2.24l-1.47-0.28c-0.19-0.03-0.38-0.05-0.58-0.05
			c-1.54,0-2.86,1.1-3.14,2.6l-0.26,1.37c-0.14-0.05-0.28-0.11-0.42-0.14l-0.17-0.04c-0.2-0.04-0.41-0.06-0.6-0.06
			c-1.24,0-2.33,0.86-2.6,2.06l-0.04,0.18c-0.16,0.69-0.03,1.41,0.34,2.01c0.38,0.61,0.97,1.03,1.65,1.18l0.18,0.04
			c0.17,0.04,0.34,0.06,0.51,0.06c0.05,0,0.11,0,0.16-0.01l-0.46,2.43c-0.32,1.73,0.83,3.39,2.56,3.71l9.07,1.7
			c0.19,0.03,0.38,0.05,0.59,0.05c1.54,0,2.85-1.1,3.14-2.61l1.68-9.07C72.26,117.34,71.11,115.67,69.39,115.35z M71.41,118.98
			l-1.69,9.07c-0.03,0.16-0.07,0.31-0.13,0.46c-0.05,0.15-0.13,0.3-0.2,0.43c-0.09,0.13-0.17,0.26-0.28,0.36
			c-0.49,0.58-1.23,0.93-2.01,0.93c-0.16,0-0.32-0.02-0.49-0.04l-9.07-1.7c-1.44-0.27-2.39-1.66-2.12-3.09l0.5-2.73h0.01
			c0.02-0.02,0.04-0.01,0.06-0.04c0.11-0.14,0.15-0.34,0.12-0.55c-0.03-0.15-0.17-0.25-0.32-0.21c-0.14,0.02-0.23,0.16-0.21,0.31
			c0.02,0.06,0,0.12,0,0.13v0.01c-0.13,0.02-0.26,0.04-0.39,0.04c-0.13,0-0.26-0.02-0.39-0.04l-0.17-0.04
			c-1.14-0.27-1.87-1.42-1.6-2.55l0.04-0.18c0.22-0.98,1.11-1.65,2.08-1.65c0.15,0,0.31,0.02,0.47,0.05l0.18,0.04
			c0.36,0.09,0.65,0.28,0.91,0.5l0.41-2.15c0.23-1.27,1.35-2.17,2.61-2.17c0.16,0,0.32,0.01,0.48,0.04l2.02,0.37
			c0.01-0.11,0.01-0.22,0.03-0.34c0.21-1.16,1.25-1.98,2.39-1.98c0.14,0,0.29,0.01,0.44,0.04c0.44,0.07,0.82,0.28,1.13,0.54
			c0.21,0.18,0.38,0.39,0.52,0.63c0.06,0.13,0.12,0.25,0.17,0.37c0.02,0.06,0.04,0.15,0.06,0.22c0.05,0.25,0.08,0.51,0.08,0.7
			c0,0.05-0.01,0.11-0.01,0.14c0,0.01-0.43-0.04-0.57-0.12c-0.14-0.07-0.3-0.02-0.36,0.11c-0.07,0.13-0.03,0.29,0.1,0.36
			c0.19,0.1,0.46,0.21,0.77,0.21h0.03l2.28,0.42C70.72,116.15,71.68,117.54,71.41,118.98z"/>
		<path style="fill:#F39B15;" d="M54.84,121.51c-0.52,0-1.03-0.26-1.34-0.7c-0.09-0.12-0.06-0.29,0.06-0.37
			c0.12-0.09,0.29-0.06,0.37,0.06c0.23,0.33,0.64,0.51,1.02,0.47c0.15-0.01,0.28,0.09,0.3,0.23c0.02,0.15-0.08,0.28-0.23,0.3
			C54.96,121.51,54.9,121.51,54.84,121.51z"/>
		<path style="fill:#F7E494;" d="M57.62,120.76c-0.02,0-0.03,0-0.05,0c-0.14-0.03-0.24-0.16-0.22-0.31c0.23-1.26,0.53-2.99,1.18-4.2
			c0.64-1.2,2.63-1.17,3.82-0.69c0.14,0.06,0.2,0.21,0.15,0.35c-0.06,0.14-0.22,0.2-0.35,0.15c-1-0.4-2.68-0.43-3.15,0.45
			c-0.6,1.13-0.9,2.81-1.12,4.04C57.86,120.67,57.74,120.76,57.62,120.76z"/>
		<path style="fill:#F7E494;" d="M57.19,123.7c-0.03,0-0.07-0.01-0.1-0.02c-0.14-0.06-0.2-0.21-0.15-0.35
			c0.15-0.36,0.3-0.96,0.27-1.45c-0.01-0.15,0.1-0.27,0.25-0.28c0.16-0.02,0.27,0.1,0.28,0.25c0.04,0.58-0.13,1.25-0.31,1.68
			C57.4,123.64,57.3,123.7,57.19,123.7z"/>
		<path style="fill:#F7E494;" d="M54.47,120.11c-0.03,0-0.06,0-0.08-0.01c-0.14-0.05-0.22-0.2-0.17-0.34
			c0.17-0.53,0.37-0.71,0.84-0.92c0.49-0.22,0.74-0.14,1-0.05c0.09,0.03,0.19,0.07,0.32,0.09c0.14,0.03,0.24,0.17,0.21,0.31
			c-0.03,0.14-0.16,0.25-0.31,0.21c-0.16-0.03-0.29-0.07-0.4-0.11c-0.22-0.07-0.31-0.11-0.6,0.03c-0.34,0.16-0.43,0.22-0.55,0.6
			C54.69,120.04,54.58,120.11,54.47,120.11z"/>
		<path style="fill:#F7E494;" d="M69.18,117.8c-0.03,0-0.05,0-0.08-0.01l-0.56-0.18c-1.18-0.38-2.79-0.9-4.01-0.97
			c-0.15-0.01-0.26-0.13-0.25-0.28c0.01-0.14,0.13-0.25,0.27-0.25c0,0,0.01,0,0.01,0c1.29,0.07,2.94,0.6,4.14,0.99l0.55,0.18
			c0.14,0.04,0.22,0.19,0.17,0.33C69.4,117.72,69.29,117.8,69.18,117.8z"/>
		<path style="fill:#F7E494;" d="M63.39,115.17C63.39,115.17,63.39,115.17,63.39,115.17c-0.15,0-0.27-0.12-0.27-0.27
			c0.01-0.84,0.85-1.63,1.63-1.94c0.13-0.05,0.29,0.01,0.35,0.15c0.06,0.14-0.01,0.29-0.15,0.35c-0.62,0.25-1.3,0.88-1.3,1.45
			C63.65,115.05,63.53,115.17,63.39,115.17z"/>
		<path style="fill:#F7E494;" d="M60.53,122.81c-0.01,0-0.02,0-0.03,0c-0.15-0.02-0.25-0.15-0.23-0.29c0.14-1.24,1.25-2.2,2.57-2.24
			c0,0,0.01,0,0.01,0c0.14,0,0.26,0.11,0.27,0.26c0,0.15-0.11,0.27-0.26,0.28c-1.06,0.03-1.95,0.79-2.06,1.77
			C60.78,122.71,60.67,122.81,60.53,122.81z"/>
		<path style="fill:#F7E494;" d="M66.13,128c-0.14,0-0.26-0.11-0.27-0.26c-0.01-0.15,0.11-0.27,0.26-0.28
			c0.68-0.03,1.03-0.53,1.19-1.68c0.02-0.14,0.15-0.24,0.3-0.23c0.15,0.02,0.25,0.16,0.23,0.3c-0.08,0.57-0.29,2.09-1.7,2.14
			C66.13,128,66.13,128,66.13,128z"/>
	</g>
	<path style="fill:#F4C82B;" d="M103.6,101.97c0.17-0.15,0.18-0.4,0.04-0.56c-0.15-0.17-0.4-0.18-0.56-0.04
		c-0.43,0.38-0.92,0.67-1.44,0.99c-0.24,0.14-0.48,0.29-0.72,0.45c-0.39-0.23-0.82-0.34-1.24-0.25c-0.07,0.01-0.14,0.05-0.19,0.09
		c-1.16,0.07-2.44,0.98-2.85,2.11c-0.19,0.53-0.16,1.03,0.07,1.47c-0.16,0.07-0.31,0.13-0.47,0.2c-0.28,0.12-0.56,0.23-0.83,0.36
		c-0.2-0.27-0.43-0.52-0.71-0.69c-0.06-0.04-0.13-0.06-0.21-0.06c-1.11-0.03-2.72,0.27-3.43,0.87c-0.43,0.36-0.69,1.07-0.68,1.83
		c-0.37,0.11-0.72,0.24-1,0.36c-0.04-0.13-0.09-0.25-0.13-0.36c-0.41-0.9-1.22-0.99-1.94-1.06l-0.32-0.04
		c-0.77-0.1-2.25,0.2-2.96,0.71c-0.49,0.35-0.66,0.92-0.65,1.51c-0.47,0.07-0.93,0.18-1.34,0.29c-0.2-0.31-0.43-0.57-0.68-0.73
		c-0.81-0.51-1.81-0.33-2.63-0.18c-0.77,0.14-1.48,0.61-1.94,1.3c-0.24,0.36-0.38,0.74-0.43,1.13c-0.46,0.16-0.9,0.35-1.34,0.54
		c-0.11-0.2-0.23-0.39-0.39-0.58c-0.66-0.8-1.54-0.63-2.26-0.49l-0.18,0.04c-0.14,0.03-0.28,0.04-0.43,0.06
		c-0.38,0.05-0.81,0.11-1.17,0.28c-0.57,0.22-0.94,0.69-1.04,1.34c0,0,0,0,0,0c-0.07,0-0.15-0.01-0.22,0
		c-0.44,0.04-0.85,0.13-1.24,0.23c-0.36,0.08-0.7,0.16-1.05,0.2c-0.22,0.02-0.38,0.22-0.36,0.44c0.02,0.21,0.19,0.36,0.4,0.36
		c0.01,0,0.03,0,0.04,0c0.4-0.04,0.78-0.13,1.15-0.22c0.39-0.09,0.75-0.18,1.13-0.21c0.05,0,0.1,0,0.16,0
		c0.09,0.7,0.39,1.36,0.7,1.61c0.31,0.25,0.74,0.34,1.22,0.34c0.82,0,1.8-0.28,2.66-0.56c0.76-0.25,1.05-0.75,1.16-1.12
		c0.08-0.29,0.07-0.63,0-0.97c0.37-0.17,0.73-0.33,1.11-0.47c0.15,0.55,0.52,1.01,1.09,1.32c0.3,0.16,0.59,0.22,0.88,0.22
		c0.47,0,0.92-0.17,1.31-0.32c0.14-0.05,0.32-0.11,0.52-0.17c0.75-0.23,1.68-0.53,2.07-1.03c0.24-0.31,0.31-0.74,0.22-1.24
		c-0.02-0.13-0.07-0.27-0.12-0.4c0.34-0.09,0.73-0.17,1.11-0.23c0.08,0.3,0.19,0.58,0.32,0.8c0.27,0.47,0.85,0.78,1.67,0.9
		c0.22,0.03,0.47,0.05,0.72,0.05c1.05,0,2.26-0.28,2.84-0.84c0.44-0.43,0.55-1.07,0.5-1.67c0.28-0.12,0.62-0.25,0.96-0.36
		c0.14,0.46,0.39,0.84,0.73,1.07c0.25,0.17,0.64,0.24,1.08,0.24c1.16,0,2.7-0.5,3.18-1c0.41-0.42,0.59-1.01,0.51-1.65
		c-0.03-0.24-0.1-0.47-0.19-0.7c0.24-0.11,0.48-0.21,0.74-0.32c0.23-0.1,0.47-0.2,0.7-0.3c0.08,0.07,0.17,0.13,0.27,0.2l0.18,0.12
		c0.32,0.2,0.51,0.3,0.8,0.3c0.17,0,0.38-0.04,0.66-0.11c0.58-0.15,2.24-0.98,2.64-1.52c0.46-0.61,0.44-1.47-0.05-2.24
		c-0.06-0.1-0.14-0.17-0.21-0.25c0.17-0.11,0.34-0.21,0.52-0.32C102.58,102.71,103.12,102.39,103.6,101.97z M74.51,113.69
		c-0.08,0.28-0.29,0.47-0.64,0.58c-2.08,0.69-2.85,0.57-3.13,0.35c-0.11-0.08-0.31-0.49-0.39-0.98c0.27,0.01,0.54,0.01,0.82-0.03
		c0.22-0.03,0.37-0.24,0.33-0.46c-0.03-0.22-0.24-0.37-0.46-0.33c-0.21,0.03-0.43,0.03-0.66,0.02c0.08-0.3,0.23-0.51,0.5-0.61
		c0.01,0,0.02-0.01,0.04-0.01c0.25-0.12,0.6-0.17,0.94-0.21c0.17-0.02,0.33-0.04,0.48-0.07l0.19-0.04c0.31-0.06,0.56-0.11,0.78-0.11
		c0.29,0,0.51,0.08,0.71,0.32c0.11,0.13,0.2,0.26,0.27,0.4c-0.07,0.03-0.14,0.06-0.21,0.09c-0.2,0.1-0.27,0.34-0.17,0.54
		c0.07,0.14,0.21,0.22,0.36,0.22c0.06,0,0.13-0.01,0.18-0.04c0.03-0.02,0.07-0.03,0.1-0.05C74.54,113.42,74.54,113.57,74.51,113.69z
		 M81.62,112.01c-0.23,0.3-1.13,0.58-1.67,0.75c-0.22,0.07-0.42,0.13-0.57,0.19c-0.65,0.25-1.08,0.38-1.52,0.14
		c-0.39-0.21-0.63-0.5-0.72-0.85c0,0,0,0,0-0.01c0.32-0.1,0.63-0.22,0.95-0.3c0.21-0.06,0.34-0.27,0.29-0.49
		c-0.06-0.21-0.27-0.34-0.49-0.29c-0.22,0.06-0.44,0.14-0.66,0.21c0.05-0.13,0.12-0.27,0.2-0.4c0.33-0.5,0.86-0.85,1.43-0.96
		c0.67-0.12,1.5-0.27,2.05,0.07c0.11,0.07,0.23,0.21,0.35,0.37c-0.09,0.11-0.12,0.26-0.06,0.4c0.06,0.15,0.21,0.24,0.37,0.24
		c0.01,0,0.02,0,0.03-0.01c0.04,0.1,0.07,0.21,0.09,0.31C81.74,111.67,81.71,111.89,81.62,112.01z M85.57,111.54
		c-0.55-0.08-0.95-0.26-1.09-0.51h0c-0.08-0.14-0.15-0.32-0.21-0.5c0.28-0.02,0.54-0.03,0.73-0.01c0.23,0.04,0.42-0.14,0.43-0.36
		c0.02-0.22-0.14-0.41-0.36-0.43c-0.25-0.02-0.57-0.01-0.92,0.01c0.01-0.32,0.1-0.61,0.31-0.76c0.43-0.31,1.47-0.58,2.15-0.58
		c0.09,0,0.17,0,0.24,0.01l0.34,0.04c0.71,0.07,1.08,0.13,1.29,0.59c0.05,0.12,0.09,0.25,0.13,0.38c-0.2,0.1-0.42,0.21-0.57,0.28
		c-0.2,0.09-0.28,0.33-0.19,0.53c0.07,0.14,0.21,0.23,0.36,0.23c0.06,0,0.12-0.01,0.17-0.04c0.09-0.04,0.2-0.1,0.32-0.16
		c-0.02,0.28-0.09,0.54-0.25,0.7C88.05,111.37,86.73,111.7,85.57,111.54z M95.19,108.27c0.03,0.28,0.01,0.69-0.29,1.01
		c-0.44,0.46-2.71,0.99-3.24,0.64c-0.18-0.12-0.31-0.33-0.4-0.59c0.16-0.02,0.3-0.04,0.4-0.02c0.23,0.02,0.42-0.14,0.44-0.36
		c0.02-0.22-0.14-0.42-0.36-0.44c-0.17-0.02-0.37,0-0.58,0.03c0.03-0.45,0.18-0.86,0.39-1.03c0.45-0.38,1.71-0.68,2.79-0.68
		c0.13,0.09,0.24,0.21,0.35,0.34c-0.05,0.03-0.1,0.05-0.15,0.08c-0.18,0.12-0.23,0.37-0.11,0.56c0.08,0.11,0.2,0.18,0.33,0.18
		c0.08,0,0.16-0.02,0.22-0.07c0.03-0.02,0.06-0.03,0.09-0.05C95.13,107.99,95.17,108.13,95.19,108.27z M101.06,104.03
		c0.23,0.36,0.39,0.93,0.09,1.33c-0.23,0.31-1.68,1.09-2.2,1.22c-0.5,0.13-0.5,0.13-0.83-0.09l-0.09-0.06
		c0.32-0.19,0.62-0.41,0.86-0.68c0.15-0.17,0.13-0.42-0.03-0.56c-0.17-0.15-0.42-0.13-0.56,0.03c-0.22,0.25-0.53,0.46-0.86,0.64
		c-0.14-0.25-0.16-0.53-0.05-0.84c0.31-0.85,1.37-1.58,2.23-1.58c0.07,0,0.13,0,0.2,0.01c0.13,0.02,0.26-0.03,0.34-0.12
		c0.01,0,0.02,0.01,0.02,0.01c-0.16,0.14-0.18,0.38-0.04,0.55c0.08,0.1,0.19,0.14,0.31,0.14c0.09,0,0.18-0.03,0.26-0.09
		c0.06-0.05,0.13-0.09,0.19-0.14C100.96,103.87,101.01,103.95,101.06,104.03z"/>
	<path style="fill:#F4C82B;" d="M62.49,112.9c-0.36-0.23-0.66-0.58-0.98-0.94c-0.05-0.05-0.1-0.1-0.14-0.15
		c0.02-0.04,0.05-0.07,0.07-0.1c0.23-0.45,0.24-0.96,0.04-1.43c-0.41-0.97-1.08-1.76-1.89-2.23c-0.37-0.22-0.59-0.3-0.83-0.25
		c-0.19-0.49-0.41-0.97-0.67-1.43c0.07-0.09,0.13-0.19,0.19-0.3c0.51-1-0.08-2.59-0.92-3.39h0c-0.1-0.1-0.2-0.18-0.31-0.25
		c-0.04-0.54-0.09-1.1-0.09-1.59c0-0.22-0.18-0.4-0.4-0.4h0c-0.22,0-0.4,0.18-0.4,0.4c0,0.39,0.03,0.83,0.06,1.27
		c-0.1-0.01-0.19-0.02-0.29-0.01c-0.86,0.08-1.24,0.53-1.4,0.9c-0.44,0.98,0.14,2.5,0.7,3.26c0.4,0.55,0.97,0.86,1.54,0.86
		c0.04,0,0.08,0,0.13-0.01c0.21-0.02,0.4-0.09,0.58-0.19c0.21,0.4,0.4,0.82,0.57,1.25c-0.03,0.02-0.06,0.04-0.1,0.06c0,0,0,0,0,0
		c-0.72,0.51-1.09,1.03-1.09,1.54c0,0.53,0.41,1.22,1.21,2.04c0.37,0.38,0.9,0.92,1.67,0.92c0.12,0,0.25-0.01,0.39-0.04
		c0.25-0.06,0.47-0.16,0.67-0.29c0.03,0.04,0.07,0.07,0.1,0.11c0.34,0.39,0.69,0.79,1.14,1.08c0.07,0.04,0.14,0.07,0.22,0.07
		c0.13,0,0.26-0.06,0.33-0.18C62.72,113.27,62.67,113.02,62.49,112.9z M56.83,106.3c-0.32,0.03-0.69-0.17-0.95-0.53
		c-0.44-0.6-0.91-1.82-0.62-2.46c0.04-0.09,0.17-0.38,0.74-0.43c0.02,0,0.04,0,0.06,0c0.08,0,0.15,0.01,0.22,0.04
		c0.02,0.33,0.05,0.65,0.05,0.92c0,0.22,0.18,0.4,0.4,0.4h0c0.22,0,0.4-0.18,0.4-0.4c0-0.06-0.01-0.14-0.01-0.21
		c0.44,0.63,0.66,1.46,0.48,1.97c-0.06-0.08-0.1-0.17-0.16-0.25c-0.13-0.18-0.38-0.21-0.56-0.07c-0.17,0.13-0.21,0.39-0.07,0.56
		c0.1,0.13,0.18,0.27,0.27,0.4C56.99,106.27,56.91,106.29,56.83,106.3z M59.96,111.89c-0.48,0.11-0.81-0.13-1.32-0.65
		c-0.91-0.93-0.98-1.37-0.98-1.48c0-0.16,0.19-0.47,0.68-0.83c0.07,0.2,0.14,0.39,0.21,0.59l0.09,0.26
		c0.06,0.17,0.21,0.27,0.38,0.27c0.04,0,0.09-0.01,0.13-0.02c0.21-0.07,0.32-0.3,0.24-0.51l-0.09-0.26
		c-0.07-0.19-0.14-0.38-0.2-0.57c0.03,0.02,0.07,0.04,0.08,0.05c0.65,0.38,1.21,1.04,1.55,1.85c0.11,0.26,0.09,0.47,0.03,0.63
		c-0.16-0.14-0.33-0.29-0.52-0.4c-0.19-0.11-0.44-0.05-0.55,0.14c-0.11,0.19-0.05,0.44,0.14,0.55c0.13,0.07,0.24,0.18,0.35,0.28
		C60.12,111.82,60.05,111.87,59.96,111.89z"/>
</g>
<g>
	<g>
		<g>
			<path style="fill:#1797D5;" d="M146.76,88.48c-0.54-0.12-1.07-0.16-1.54-0.19c-0.9-0.06-1.43-0.12-1.93-0.49
				c-0.61-0.46-1.53-1.83-1.91-3.16c-0.14-0.46-0.5-0.81-0.97-0.92c-0.1-0.03-0.2-0.04-0.31-0.04c-0.36,0-0.71,0.15-0.96,0.41
				c-1.1,1.14-1.82,1.83-3.03,1.86h-0.04c-0.77,0-1.01-0.28-1.16-0.59c-0.81-1.58,0.39-5.39,1.34-6.67
				c0.82-1.11,0.79-2.42,0.77-3.57c-0.01-0.58-0.02-1.12,0.07-1.54c0-0.01,0.04-0.16,0.23-0.5c0.35-0.65,1.45-1.33,2.38-1.5
				c0.71-0.12,1.37-0.06,2.2,0.01l0.18,0.01c0.61,0.05,1.22,0.07,1.81,0.1c1.39,0.04,2.58,0.09,3.8,0.53
				c0.9,0.34,2.21,0.91,3.33,1.74c0.04,0.03,0.1,0.06,0.15,0.1c1.77,0.97,3.29,3.16,4.5,4.91l0.2,0.3c1.71,2.45,2.81,4.28,3.41,6.21
				c-0.67,0.27-1.23,0.64-1.64,0.96l-0.6,0.46c-1.6,1.24-2.87,2.21-4.52,2.76c-0.45,0.15-0.9,0.22-1.33,0.22
				c-0.38,0-0.75-0.06-1.09-0.18c-0.15-0.06-0.28-0.12-0.42-0.17c-0.38-0.16-0.86-0.37-1.46-0.46c-0.25-0.28-0.59-0.46-1.14-0.53
				C147.01,88.52,146.9,88.51,146.76,88.48z"/>
			<path style="fill:#1D1D1B;" d="M162.04,85.33c-0.36-0.12-0.75-0.17-1.14-0.17c-0.11,0-0.2,0-0.3,0.01
				c-0.48,0.03-0.92,0.15-1.3,0.3c-0.61-1.93-1.71-3.75-3.41-6.21l-0.2-0.3c-1.22-1.75-2.73-3.94-4.5-4.91
				c-0.05-0.03-0.11-0.06-0.15-0.1c-1.12-0.83-2.43-1.4-3.33-1.74c-1.22-0.45-2.41-0.49-3.8-0.53c-0.6-0.02-1.21-0.04-1.81-0.1
				l-0.18-0.01c-0.83-0.07-1.48-0.13-2.2-0.01c-0.93,0.17-2.03,0.85-2.38,1.5c-0.19,0.34-0.23,0.49-0.23,0.5
				c-0.1,0.42-0.09,0.96-0.07,1.54c0.02,1.15,0.05,2.46-0.77,3.57c-0.95,1.28-2.15,5.09-1.34,6.67c0.15,0.31,0.39,0.59,1.16,0.59
				h0.04c1.21-0.02,1.93-0.71,3.03-1.86c0.25-0.26,0.6-0.41,0.96-0.41c0.11,0,0.21,0.01,0.31,0.04c0.47,0.11,0.83,0.46,0.97,0.92
				c0.38,1.32,1.3,2.7,1.91,3.16c0.5,0.37,1.03,0.43,1.93,0.49c0.47,0.03,0.99,0.07,1.54,0.19c0.14,0.03,0.25,0.04,0.33,0.05
				c0.56,0.07,0.9,0.26,1.14,0.53c-0.21-0.04-0.44-0.06-0.68-0.06c-0.77,0-1.48,0.2-2.22,0.63c-0.08,0.04-0.17,0.1-0.26,0.15
				c-0.5,0.32-0.92,0.66-1.26,1.02c-0.68-0.11-1.42-0.35-2.12-0.87c-0.79-0.6-1.51-1.59-2.07-2.62c-0.9,0.7-1.99,1.28-3.48,1.3
				c-1.65,0-2.93-0.7-3.62-2.04c-1.44-2.83,0.29-7.74,1.58-9.48c0.28-0.36,0.27-1.15,0.25-1.92c-0.01-0.71-0.03-1.46,0.15-2.21
				c0.07-0.34,0.23-0.71,0.49-1.18c0.88-1.58,2.82-2.57,4.26-2.83c1.05-0.18,1.98-0.11,2.89-0.03l0.17,0.02
				c0.57,0.04,1.12,0.06,1.67,0.09c1.48,0.04,3.02,0.1,4.64,0.7c1.05,0.38,2.56,1.06,3.91,2.04c2.28,1.29,3.97,3.72,5.32,5.69
				l0.21,0.29C160.07,80.6,161.37,82.79,162.04,85.33z"/>
		</g>
		<g>
			<path style="fill:#323637;" d="M142.86,102.26c-2.53-0.14-4.02-1.35-6.37-2.38c-4.62-2.03-9.57,0.91-12.49,4.46
				c-2.63,3.19-4.21,9.16-0.82,12.59c1.2,1.22,3.2,2.52,4.87,2.9c3.18,0.72,6.25,1.71,9.51,2.18c2.06,0.3,4.16,0.89,6.28,0.69
				c4.86-0.46,7.85-4.37,11.59-7.02c2.42-1.71,2.74-4.07,4.39-6.47c2.02-2.93,3.91-7.26,2.97-10.87c-0.19-0.73-1.06-1.68-1.07-2.35
				c-0.01-0.57,0.65-1.73,0.79-2.38c0.36-1.7,0.85-3.96-0.57-5.33c-0.85-0.81-1.76-0.43-2.67,0.26c-1.93,1.47-3.58,2.86-5.9,3.63
				c-1.37,0.45-2.83,0.51-4.17,0.02c-1.06-0.39-1.6-0.86-2.7-0.17c-2.42,1.54-1.02,3.75-1.22,5.82c-0.07,0.71-0.48,1.84-0.89,2.43
				C143.87,101.05,143.07,101.14,142.86,102.26z"/>
			<path style="fill:#1D1D1B;" d="M165.38,97.67c-0.18-0.69-0.53-1.27-0.81-1.74c-0.01-0.03-0.02-0.05-0.04-0.07
				c0.03-0.07,0.06-0.15,0.09-0.2c0.2-0.48,0.41-0.97,0.51-1.48c0.44-2.04,1.16-5.42-1.33-7.81c-0.52-0.5-1.11-0.85-1.75-1.03
				c-0.36-0.12-0.75-0.17-1.14-0.17c-0.11,0-0.2,0-0.3,0.01c-0.48,0.03-0.92,0.15-1.3,0.3c-0.67,0.27-1.23,0.64-1.64,0.96l-0.6,0.46
				c-1.6,1.24-2.87,2.21-4.52,2.76c-0.45,0.15-0.9,0.22-1.33,0.22c-0.38,0-0.75-0.06-1.09-0.18c-0.15-0.06-0.28-0.12-0.42-0.17
				c-0.38-0.16-0.86-0.37-1.46-0.46c-0.21-0.04-0.44-0.06-0.68-0.06c-0.77,0-1.48,0.2-2.22,0.63c-0.08,0.04-0.17,0.1-0.26,0.15
				c-0.5,0.32-0.92,0.66-1.26,1.02c-1.77,1.89-1.46,4.19-1.28,5.54c0.06,0.49,0.13,0.95,0.1,1.26c-0.02,0.27-0.28,0.94-0.43,1.16
				c-0.02,0.02-0.1,0.07-0.16,0.12c-0.14,0.12-0.31,0.26-0.49,0.44c-0.64-0.21-1.26-0.53-2.04-0.93c-0.58-0.3-1.23-0.63-1.95-0.95
				c-1.34-0.59-2.77-0.89-4.23-0.89c-3.99,0-8.25,2.27-11.39,6.09c-3.64,4.41-4.93,11.84-0.66,16.16c1.41,1.42,3.86,3.1,6.18,3.63
				c1.03,0.23,2.09,0.51,3.11,0.77c2.11,0.55,4.3,1.12,6.6,1.45c0.51,0.07,1.03,0.16,1.56,0.26c1.33,0.25,2.72,0.49,4.21,0.49
				c0.39,0,0.78-0.01,1.14-0.04c4.36-0.42,7.42-3.01,10.12-5.29c0.94-0.8,1.83-1.56,2.76-2.21c2.11-1.5,3.03-3.35,3.84-4.98
				c0.38-0.76,0.74-1.47,1.21-2.15C163.49,108.59,166.76,103.03,165.38,97.67z M159.82,109.22c-1.64,2.39-1.97,4.75-4.39,6.46
				c-3.73,2.65-6.73,6.56-11.58,7.02c-0.3,0.02-0.6,0.03-0.9,0.03c-1.81,0-3.62-0.47-5.39-0.73c-3.26-0.47-6.34-1.45-9.52-2.18
				c-1.66-0.37-3.67-1.69-4.86-2.9c-3.39-3.43-1.81-9.4,0.82-12.59c2.26-2.74,5.74-5.12,9.33-5.12c1.05,0,2.11,0.2,3.16,0.66
				c2.36,1.03,3.84,2.24,6.38,2.38c0.2-1.12,1-1.21,1.54-1.98c0.41-0.6,0.82-1.72,0.89-2.43c0.19-2.07-1.21-4.28,1.22-5.81
				c0.41-0.27,0.74-0.36,1.05-0.36c0.09,0,0.18,0.01,0.27,0.02c0.42,0.07,0.82,0.3,1.37,0.49c0.01,0.01,0.01,0.01,0.02,0.01
				c0.65,0.25,1.32,0.35,1.99,0.35c0.74,0,1.47-0.13,2.18-0.36c2.33-0.77,3.97-2.15,5.9-3.63c0.19-0.15,0.39-0.29,0.59-0.41
				c0.35-0.19,0.69-0.32,1.03-0.32c0.09,0,0.17,0.01,0.27,0.03c0.26,0.05,0.52,0.19,0.78,0.43c0.3,0.29,0.52,0.62,0.66,0.98
				c0.57,1.32,0.2,3.01-0.08,4.35c0,0.02-0.01,0.03-0.02,0.05c-0.15,0.64-0.78,1.76-0.78,2.31c0.01,0.34,0.22,0.75,0.47,1.15
				c0,0.01,0,0.01,0,0.01c0.25,0.42,0.51,0.83,0.61,1.19C163.73,101.95,161.83,106.28,159.82,109.22z"/>
			<path style="fill:#494C4E;" d="M140.96,111.63c-0.05,0-0.1-0.01-0.15-0.02c-0.79-0.23-1.29-0.8-1.44-1.66
				c-0.37-2.11,1.52-5.53,2.61-6.32c0.24-0.17,0.57-0.12,0.74,0.12c0.17,0.24,0.12,0.57-0.12,0.74c-0.84,0.61-2.46,3.68-2.18,5.27
				c0.08,0.45,0.29,0.71,0.68,0.82c0.28,0.08,0.45,0.38,0.36,0.66C141.41,111.48,141.19,111.63,140.96,111.63z"/>
			<path style="fill:#494C4E;" d="M154.9,99.61c-1.33,0-3.07-0.29-4.52-0.76c-0.28-0.09-0.43-0.39-0.34-0.67
				c0.09-0.28,0.39-0.43,0.67-0.34c1.43,0.47,3.21,0.75,4.46,0.71c1.95-0.07,3.69-0.47,3.96-0.9c0.16-0.25,0.49-0.32,0.74-0.16
				c0.25,0.16,0.32,0.49,0.16,0.74c-0.72,1.13-3.61,1.35-4.82,1.4C155.11,99.61,155.01,99.61,154.9,99.61z"/>
			<path style="fill:#494C4E;" d="M145.75,113.33c-0.14,0-0.28-0.06-0.39-0.17c-1.95-2.07-3.83-5.55-2.71-8.55
				c0.1-0.28,0.41-0.41,0.69-0.31c0.28,0.1,0.42,0.41,0.31,0.69c-0.89,2.38,0.61,5.46,2.49,7.45c0.2,0.21,0.19,0.55-0.02,0.75
				C146.01,113.28,145.88,113.33,145.75,113.33z"/>
		</g>
	</g>
	<g>
		<path style="fill:#DCF0FA;" d="M156.07,88.27c0.39,0.25,0.83,0.43,1.3,0.51c-1.08,0.71-3.43,2.22-5.03,2.34
			c-0.33,0.02-0.68-0.01-1.06-0.05l-0.26-0.03c0.09-0.1,0.19-0.2,0.33-0.32c0.29-0.26,0.63-0.49,0.94-0.7
			c0.23-0.15,0.44-0.3,0.6-0.43c0.72-0.59,1.41-1.23,2.07-1.85c0.07-0.07,0.15-0.15,0.23-0.21
			C155.46,87.81,155.75,88.06,156.07,88.27z"/>
		<path style="fill:#DCF0FA;" d="M162.42,84.43c0,0.13-0.01,0.26-0.03,0.37c0,0.09-0.02,0.17-0.04,0.25
			c-0.01,0.1-0.04,0.19-0.07,0.29c-0.03,0.09-0.06,0.16-0.11,0.25c-0.02,0.05-0.04,0.11-0.07,0.16c0,0,0,0,0,0.01
			c-0.02,0.03-0.03,0.06-0.06,0.1c-0.04,0.1-0.11,0.19-0.18,0.29c-0.02,0.03-0.04,0.06-0.07,0.1c-0.07,0.11-0.17,0.21-0.28,0.31
			c-0.26,0.28-0.59,0.52-0.96,0.74c-0.03,0.01-0.05,0.03-0.08,0.04c-0.5,0.27-1.02,0.43-1.54,0.49c-0.82,0.11-1.62-0.04-2.26-0.45
			c-0.25-0.16-0.47-0.35-0.67-0.58c-0.12-0.13-0.22-0.27-0.33-0.42l0.01-0.01c-0.05-0.07-0.1-0.16-0.15-0.23
			c-0.01-0.01-0.02-0.02-0.02-0.04c-0.04-0.09-0.09-0.17-0.13-0.26c-0.2-0.43-0.33-0.91-0.38-1.41c-0.02-0.15-0.03-0.31-0.03-0.47
			c0-0.17,0.01-0.33,0.03-0.5c0.16-1.45,0.99-2.59,2.23-3.04c0.58-0.21,1.12-0.31,1.64-0.31c0.27,0,0.53,0.02,0.78,0.09
			C161.31,80.55,162.4,82.23,162.42,84.43z"/>
		<path style="fill:#A9B3B7;" d="M162.49,80.95c-0.63-0.93-1.53-1.57-2.62-1.81c-0.94-0.21-1.95-0.12-3.02,0.27
			c-1.62,0.59-2.72,2.06-2.92,3.93c-0.13,1.19,0.11,2.36,0.66,3.31c-0.01,0.01-0.01,0.01-0.02,0.02v0.01c0.09,0.28,0.3,0.6,0.6,0.9
			c0.01-0.02,0.03-0.03,0.04-0.04c0.26,0.29,0.55,0.54,0.88,0.75c0.39,0.25,0.83,0.43,1.3,0.51c-0.04,0.03-0.08,0.05-0.13,0.09
			c0.03,0.01,0.05,0.02,0.08,0.03c0.45,0.14,1.29,0.32,1.86-0.11c0.13-0.1,0.3-0.11,0.43-0.02c0.49-0.12,0.97-0.3,1.44-0.55
			c1.54-0.85,2.44-2.27,2.43-3.8C163.48,83.06,163.11,81.87,162.49,80.95z M162.39,84.8c0,0.09-0.02,0.17-0.04,0.25
			c-0.01,0.1-0.04,0.19-0.07,0.29c-0.03,0.09-0.06,0.17-0.11,0.25c-0.02,0.05-0.04,0.11-0.07,0.16c0,0,0,0,0,0.01
			c-0.02,0.03-0.03,0.06-0.06,0.1c-0.04,0.1-0.11,0.19-0.18,0.29c-0.02,0.03-0.04,0.06-0.07,0.1c-0.07,0.11-0.17,0.22-0.28,0.31
			c-0.26,0.28-0.59,0.52-0.96,0.74c-0.03,0.01-0.05,0.03-0.08,0.04c-0.5,0.27-1.02,0.43-1.54,0.49c-0.82,0.11-1.62-0.04-2.26-0.45
			c-0.25-0.16-0.47-0.35-0.67-0.58c-0.12-0.13-0.22-0.27-0.33-0.42c-0.04-0.09-0.1-0.16-0.14-0.25c-0.01-0.01-0.02-0.02-0.02-0.04
			c-0.04-0.06-0.07-0.13-0.11-0.19c-0.01-0.02-0.02-0.04-0.02-0.06c-0.2-0.43-0.33-0.91-0.38-1.41c-0.02-0.15-0.03-0.31-0.03-0.47
			c0-0.17,0.01-0.33,0.03-0.5c0.16-1.45,0.99-2.59,2.23-3.04c0.58-0.21,1.12-0.31,1.64-0.31c0.27,0,0.53,0.02,0.78,0.09
			c1.69,0.37,2.77,2.05,2.79,4.25C162.42,84.55,162.41,84.68,162.39,84.8z M156.42,89.4c-1.19,0.74-2.86,1.63-4.07,1.72
			c-0.33,0.02-0.68-0.01-1.06-0.05l-0.26-0.03c0.09-0.1,0.19-0.2,0.33-0.32c0.29-0.26,0.63-0.49,0.94-0.7
			c0.23-0.15,0.44-0.3,0.6-0.43c0.59-0.47,1.14-0.97,1.67-1.48c-0.27-0.28-0.49-0.58-0.64-0.87c-0.54,0.53-1.12,1.05-1.71,1.53
			c-0.14,0.12-0.32,0.25-0.52,0.38c-0.34,0.22-0.71,0.48-1.05,0.78c-0.63,0.54-0.93,1.07-0.93,1.61c0,0.15,0.05,0.29,0.15,0.38
			c0.11,0.1,0.23,0.15,0.38,0.15c0.32-0.01,0.61,0.03,0.91,0.06c0.32,0.03,0.64,0.07,0.97,0.07c0.09,0,0.18,0,0.28-0.01
			c1.6-0.11,3.56-1.23,5.32-2.38c-0.21-0.02-0.43-0.07-0.65-0.15C156.86,89.58,156.64,89.49,156.42,89.4z"/>
		<path style="fill:#676C6F;" d="M157.88,84.76c-0.13,0-0.26-0.06-0.33-0.18c-0.12-0.18-0.07-0.43,0.11-0.55
			c0.24-0.16,0.54-0.21,0.83-0.25c0.13-0.02,0.4-0.06,0.5-0.11c-0.08-0.25-0.38-0.85-0.64-1.3c-0.11-0.19-0.05-0.44,0.14-0.55
			c0.19-0.11,0.44-0.05,0.55,0.14c0.92,1.56,0.79,1.86,0.73,1.99c-0.21,0.48-0.73,0.56-1.16,0.62c-0.19,0.03-0.41,0.06-0.5,0.12
			C158.04,84.74,157.96,84.76,157.88,84.76z M159.4,83.79h0.01H159.4z"/>
		<path style="fill:#676C6F;" d="M159.67,89.43c-0.37,0.28-0.85,0.43-1.4,0.43c-0.17,0-0.35-0.01-0.53-0.05
			c-0.21-0.02-0.43-0.07-0.65-0.15c-0.22-0.07-0.45-0.16-0.67-0.26c-0.7-0.32-1.35-0.79-1.85-1.3c-0.27-0.28-0.49-0.58-0.64-0.87
			c-0.05-0.1-0.1-0.2-0.13-0.3c-0.07-0.21,0.04-0.44,0.25-0.51c0.21-0.06,0.43,0.04,0.51,0.25v0.01c0.09,0.28,0.3,0.6,0.6,0.9
			c0.53,0.54,1.31,1.05,2.09,1.3c0.03,0.01,0.05,0.02,0.08,0.03c0.45,0.14,1.29,0.32,1.86-0.11c0.13-0.1,0.3-0.11,0.43-0.02
			c0.05,0.02,0.1,0.05,0.13,0.1C159.88,89.05,159.84,89.3,159.67,89.43z"/>
	</g>
	<g>
		<path style="fill:#F4C82B;" d="M140.68,82.23c-0.34-1.61-1.07-2.65-2.43-3.43c-0.81-0.48-2.32-0.64-3.32-0.05
			c-0.63,0.37-0.96,0.97-0.95,1.69c0.01,0.67,0.67,1.15,1.31,1.62l0.03,0.03c0.39,0.28,0.83,0.6,0.95,0.83
			c0.12,0.22,0.22,0.46,0.32,0.68c0.33,0.77,0.76,1.77,1.9,1.77c0.25,0,0.52-0.05,0.84-0.16C141.19,84.59,140.81,82.82,140.68,82.23
			z M139,84.19c-0.82,0.28-0.98,0-1.42-1.02c-0.12-0.26-0.22-0.51-0.36-0.76c-0.03-0.05-0.07-0.12-0.12-0.18
			c-0.05-0.07-0.13-0.15-0.2-0.22c-0.23-0.22-0.51-0.46-0.71-0.62c-0.03-0.02-0.06-0.04-0.09-0.06c-0.03-0.03-0.06-0.05-0.1-0.07
			c-0.03-0.02-0.05-0.04-0.06-0.04c-0.01-0.01-0.01-0.01-0.01-0.01c-0.27-0.2-0.83-0.62-0.87-0.79c-0.01-0.33,0.13-0.57,0.42-0.74
			c0.63-0.37,1.71-0.28,2.25,0.04c1.1,0.65,1.64,1.42,1.93,2.74C139.89,83.65,139.59,83.99,139,84.19z"/>
		<path style="fill:#F7E494;" d="M139,84.19c-0.82,0.28-0.98,0-1.42-1.02c-0.12-0.26-0.22-0.51-0.36-0.76
			c-0.03-0.05-0.07-0.12-0.12-0.18c-0.05-0.07-0.13-0.15-0.2-0.22c-0.23-0.22-0.51-0.46-0.71-0.62c-0.03-0.02-0.06-0.04-0.09-0.06
			c-0.03-0.03-0.06-0.05-0.1-0.07c-0.03-0.02-0.05-0.04-0.06-0.04c-0.01-0.01-0.01-0.01-0.01-0.01c-0.27-0.2-0.83-0.62-0.87-0.79
			c-0.01-0.33,0.13-0.57,0.42-0.74c0.63-0.37,1.71-0.28,2.25,0.04c1.1,0.65,1.64,1.42,1.93,2.74
			C139.89,83.65,139.59,83.99,139,84.19z"/>
	</g>
</g>
<g>
	<path style="fill-rule:evenodd;clip-rule:evenodd;fill:#FFFFFF;" d="M41.86,63.16c0.85-2.81,2.39-5.48,4.71-7.82
		c2.12-2.14,5.24-2.84,7.98-3.84l0.35,0.05c0.28-1.03,0.73-2.04,1.03-2.91c0.93-2.67,4.06-6.85,5.84-9.1
		c10.87-13.75,37.66-11.81,50.05,1.09c12.41,12.93,15.37,36.25,2.55,49.85c-8.49,9.01-22.36,9.53-33.98,8.56
		c-11.48-0.95-23.76-5.87-32.08-13.94C42.32,79.28,39.58,70.72,41.86,63.16z"/>
	<path d="M84.6,30.05c10.11,0,20.67,3.75,27.21,10.57c12.41,12.93,15.37,36.25,2.55,49.85c-6.66,7.07-16.63,8.91-26.23,8.91
		c-2.64,0-5.24-0.14-7.75-0.35c-11.48-0.95-23.76-5.87-32.08-13.94c-5.99-5.81-8.72-14.37-6.44-21.93c0.85-2.81,2.39-5.48,4.71-7.82
		c2.12-2.14,5.24-2.84,7.98-3.84l0.35,0.05c0.28-1.03,0.73-2.04,1.03-2.91c0.93-2.67,4.06-6.85,5.84-9.1
		C66.9,33.05,75.57,30.05,84.6,30.05 M84.6,27.39c-10.57,0-19.65,3.82-24.92,10.49c-2.31,2.92-5.27,7-6.27,9.88
		c-0.09,0.27-0.2,0.55-0.32,0.85c-0.08,0.21-0.17,0.44-0.25,0.67c-0.26,0.09-0.53,0.18-0.79,0.27c-2.45,0.82-5.22,1.75-7.37,3.92
		c-2.55,2.57-4.35,5.57-5.37,8.92C36.8,70.7,39.6,80.36,46.45,87c8.39,8.14,21,13.63,33.72,14.69c2.88,0.24,5.49,0.36,7.97,0.36
		c12.77,0,21.99-3.19,28.17-9.75c6.54-6.94,9.7-16.6,8.9-27.21c-0.75-9.91-4.93-19.5-11.47-26.32C107,31.75,95.83,27.39,84.6,27.39
		L84.6,27.39z"/>
	<path style="fill-rule:evenodd;clip-rule:evenodd;fill:#F5BBB7;" d="M79.75,67.84c-1.63,6.31,2.11,12.71,8.35,14.3
		c6.24,1.58,12.63-2.25,14.27-8.56c1.63-6.31-2.11-12.71-8.35-14.29S81.39,61.54,79.75,67.84"/>
	<path style="fill-rule:evenodd;clip-rule:evenodd;fill:#F5BBB7;" d="M44.56,58.07c1.15-1.88,6.97-7.68,9.18-4.42
		c3.36,4.95-1.76,12.47-5.34,15.96c-1.41,1.38-3.63,2.81-5.81,1.7c-1.23-0.63-1-3.14-0.92-4C41.94,64.07,42.86,60.85,44.56,58.07z"
		/>
</g>
<g>
	<path style="fill-rule:evenodd;clip-rule:evenodd;" d="M60.76,59.5c-0.12,0.84,0.67,1.65,1.79,1.81c1.12,0.16,2.12-0.39,2.25-1.23
		c0.12-0.83-0.68-1.65-1.8-1.81C61.88,58.11,60.89,58.67,60.76,59.5"/>
	<path style="fill-rule:evenodd;clip-rule:evenodd;" d="M59.03,58.05L59.03,58.05c1.15,0.24,2.32-0.68,2.61-2.06l0.07-0.35
		c0.29-1.38-0.4-2.69-1.55-2.93c-1.15-0.24-2.32,0.69-2.61,2.06l-0.07,0.35C57.18,56.5,57.88,57.81,59.03,58.05"/>
	<path style="fill-rule:evenodd;clip-rule:evenodd;" d="M77.61,60.97L77.61,60.97c1.34,0.35,2.71-0.47,3.08-1.83l0.09-0.35
		c0.36-1.36-0.42-2.75-1.76-3.1s-2.72,0.47-3.08,1.83l-0.09,0.35C75.48,59.23,76.27,60.62,77.61,60.97"/>
	<path style="fill:#1D1D1B;" d="M78.4,67.47c-0.45-0.59-1.28-0.7-1.87-0.26c-0.48,0.36-0.64,0.98-0.45,1.52
		c-0.23,0.27-0.79,0.71-1.54,1.11c-1.68,0.88-3.94,0.93-5.9,0.1c-1.9-0.8-3.25-2.25-3.81-4.11c-0.21-0.7-0.96-1.11-1.66-0.89
		c-0.43,0.13-0.72,0.47-0.86,0.86c-0.93,1.32-2.18,2.14-3.32,2.15c-0.77-0.03-1.39-0.35-1.89-1.07c-0.48-0.69-0.72-1.36-0.72-1.61
		c0.37-0.58,0.24-1.36-0.32-1.78c-0.59-0.45-1.42-0.33-1.87,0.26c-1.18,1.56,0.11,3.77,0.72,4.65c0.99,1.44,2.43,2.22,4.06,2.22
		c0.02,0,0.04,0,0.06,0c1.49-0.02,2.98-0.7,4.24-1.87c1,1.6,2.48,2.86,4.35,3.65c1.28,0.54,2.63,0.8,3.96,0.8
		c1.49,0,2.94-0.34,4.22-1.01c0.99-0.52,2.69-1.6,3-2.99C78.92,68.59,78.79,67.98,78.4,67.47z"/>
</g>
<g>
	<g>
		<path style="fill:#102637;" d="M61.78,54.72c-0.7,1-2.56,3.67-4.28,3.79c-0.47,0.03-0.93,0.04-1.35,0.04
			c-3.84,0-6.11-1.22-6.94-3.72c-0.86-2.59-1.53-7.02-0.32-8.74c0.33-0.48,0.8-0.7,1.46-0.73h0.13c0.88,0,1.98,0.21,2.95,0.41
			l0.33,0.07c0.72,0.14,1.48,0.23,2.29,0.34c2.94,0.37,5.99,0.76,7.03,3.18C63.85,51.17,62.79,53.27,61.78,54.72z"/>
		<path style="fill:#1C3A4D;" d="M64.06,48.95c-0.01-0.04-0.03-0.07-0.05-0.11c-0.26-0.47-0.55-0.9-0.94-1.28
			c-0.03-0.04-0.08-0.07-0.11-0.11c-0.03-0.04-0.07-0.07-0.12-0.12c-0.08-0.06-0.15-0.14-0.23-0.2c-0.09-0.07-0.16-0.14-0.26-0.2
			c-0.11-0.07-0.21-0.16-0.33-0.23c-0.27-0.18-0.57-0.34-0.86-0.48c-0.26-0.12-0.52-0.21-0.79-0.3c-0.12-0.04-0.23-0.07-0.35-0.11
			c-0.06-0.02-0.12-0.04-0.18-0.05c-0.05-0.01-0.11-0.03-0.17-0.04c-0.23-0.06-0.48-0.12-0.72-0.17c-0.25-0.04-0.49-0.1-0.74-0.14
			c-0.25-0.04-0.5-0.09-0.75-0.12c-0.37-0.05-0.75-0.11-1.11-0.15c-0.09-0.01-0.16-0.02-0.25-0.03c-0.28-0.03-0.55-0.06-0.81-0.11
			c-0.19-0.02-0.37-0.05-0.55-0.07c-0.27-0.04-0.52-0.09-0.78-0.14c-1.06-0.2-2.38-0.49-3.49-0.49h-0.16
			c-0.06,0-0.13,0.01-0.19,0.01c-0.06,0.01-0.12,0.01-0.17,0.02c-0.03,0-0.06,0.01-0.09,0.01c-0.07,0.01-0.15,0.02-0.21,0.04
			c-0.1,0.02-0.18,0.05-0.28,0.09c-0.25,0.1-0.47,0.21-0.71,0.35c-0.01,0.01-0.02,0.01-0.03,0.02c-0.01,0.01-0.02,0.01-0.02,0.01
			c-2.46,1.86-1.22,7.88-0.42,10.3c0.15,0.44,0.32,0.83,0.53,1.19c0.21,0.36,0.45,0.69,0.71,0.98c0.27,0.29,0.57,0.55,0.88,0.78
			c0.31,0.22,0.64,0.42,0.99,0.59c1.42,0.68,3.13,0.92,4.84,0.92c0.48,0,0.95-0.02,1.42-0.05c2.1-0.14,4-2.67,5.09-4.23
			C63.93,53.51,64.99,51.14,64.06,48.95z M61.78,54.72c-0.7,1-2.56,3.67-4.28,3.79c-0.47,0.03-0.93,0.04-1.35,0.04
			c-3.84,0-6.11-1.22-6.94-3.72c-0.86-2.59-1.53-7.02-0.32-8.74c0.33-0.48,0.8-0.7,1.46-0.73h0.13c0.88,0,1.98,0.21,2.95,0.41
			l0.33,0.07c0.72,0.14,1.48,0.23,2.29,0.34c2.94,0.37,5.99,0.76,7.03,3.18C63.85,51.17,62.79,53.27,61.78,54.72z"/>
	</g>
	<path style="fill:#102637;" d="M91.48,54.62c0.1,0.28,0.22,0.52,0.35,0.76c-0.2,0.44-0.45,0.98-0.68,1.5
		c-0.31,0.66-0.68,1.48-0.76,1.63c-0.74,1.26-1.64,2.35-3.04,3.64c-1.6,1.47-3.05,2.45-4.94,2.45c-0.42,0-0.86-0.05-1.33-0.15
		l-0.6-0.12c-2.23-0.45-4.74-0.95-6.04-2.56c-1.9-2.37-2.5-8.7-0.48-10.83c0.18-0.18,0.37-0.33,0.6-0.45
		c0.76-0.41,1.8-0.46,2.62-0.46h0.49c2.1,0.04,4.36,0.29,6.92,0.76c2.41,0.44,4.21,1.07,5.66,1.95
		C90.91,53.16,91.11,53.59,91.48,54.62z"/>
	<path style="fill:#1C3A4D;" d="M92.79,55.21c0.01,0.03,0.03,0.05,0.05,0.07c0.04,0.05,0.1,0.11,0.15,0.15
		C92.92,55.37,92.84,55.3,92.79,55.21z"/>
	<path style="fill:#1C3A4D;" d="M92.84,55.29c-0.02-0.02-0.04-0.04-0.05-0.07c-0.03-0.03-0.05-0.06-0.07-0.1
		c-0.01-0.01-0.01-0.02-0.02-0.03c-0.05-0.07-0.1-0.15-0.14-0.22c-0.05-0.09-0.1-0.18-0.14-0.28c-0.04-0.11-0.09-0.2-0.13-0.31
		c-0.04-0.12-0.09-0.23-0.13-0.35c-0.13-0.36-0.26-0.71-0.46-1.02c-0.04-0.06-0.08-0.12-0.13-0.18c-0.04-0.06-0.1-0.12-0.15-0.17
		c-0.04-0.05-0.11-0.11-0.17-0.16c-1.79-1.44-4.14-1.88-6.35-2.25c-0.55-0.1-1.1-0.2-1.65-0.32l-0.8-0.16
		c-0.28-0.05-0.57-0.12-0.85-0.17c-0.25-0.04-0.49-0.09-0.75-0.12c-0.06-0.01-0.14-0.02-0.2-0.03c-0.52-0.09-1.05-0.15-1.57-0.18
		c-0.28-0.02-0.57-0.03-0.84-0.03c-0.33,0-0.67,0.02-1.01,0.05c-1.33,0.12-2.62,0.54-3.73,1.3c-0.1,0.06-0.18,0.13-0.27,0.19
		c-0.17,0.13-0.33,0.26-0.49,0.36c-0.07,0.06-0.15,0.12-0.22,0.17c0,0.01-0.01,0.01-0.01,0.01v0.01c-1.6,3.08-0.77,8.9,1.11,11.23
		c1.67,2.08,4.79,2.55,7.25,3.05c0.54,0.12,1.07,0.17,1.55,0.17c1.66,0,3.02-0.62,4.34-1.62c0.22-0.17,0.44-0.34,0.66-0.53
		c0.21-0.18,0.44-0.38,0.66-0.59c1.29-1.18,2.35-2.36,3.23-3.88c0.16-0.28,1.22-2.66,1.69-3.62C92.94,55.39,92.89,55.34,92.84,55.29
		z M91.15,56.89c-0.31,0.66-0.68,1.48-0.76,1.63c-0.74,1.26-1.64,2.35-3.04,3.64c-1.6,1.47-3.05,2.45-4.94,2.45
		c-0.42,0-0.86-0.05-1.33-0.15l-0.6-0.12c-2.23-0.45-4.74-0.95-6.04-2.56c-1.9-2.37-2.5-8.7-0.48-10.83
		c0.18-0.18,0.37-0.33,0.6-0.45c0.76-0.41,1.8-0.46,2.62-0.46h0.49c2.1,0.04,4.36,0.29,6.92,0.76c2.41,0.44,4.21,1.07,5.66,1.95
		c0.65,0.41,0.85,0.83,1.22,1.87c0.1,0.28,0.22,0.52,0.35,0.76C91.63,55.82,91.38,56.36,91.15,56.89z"/>
	<path style="fill:#3C2D13;" d="M96.09,54.52c-0.45,0.42-1.18,0.85-1.88,0.85c-0.23,0-0.45-0.05-0.64-0.16
		c-0.47-0.26-0.66-0.79-0.89-1.4c-0.22-0.63-0.48-1.34-1.1-1.85c-1.94-1.57-4.52-2.01-6.59-2.36c-0.62-0.11-1.24-0.23-1.86-0.36
		c-1.59-0.32-3.23-0.66-4.9-0.66c-0.36,0-0.71,0.02-1.06,0.05c-1.48,0.14-2.86,0.62-4,1.4c-0.28,0.19-0.52,0.38-0.76,0.57
		c-0.59,0.45-1,0.78-1.5,0.78c-0.23,0-0.49-0.06-0.8-0.2c-1.28-0.54-2.26-0.57-3.51-0.59h-0.1c-1.05-0.02-1.22-0.2-1.58-1.06
		c-0.64-1.53-1.4-2.47-2.61-3.27c-1.66-1.12-3.87-1.4-6.01-1.66c-0.8-0.1-1.56-0.19-2.25-0.33l-0.33-0.06
		c-1.03-0.2-2.22-0.44-3.26-0.44h-0.18c-0.85,0.02-1.35,0.3-1.88,0.59c-0.18,0.11-0.38,0.22-0.63,0.33
		c-0.32,0.15-0.65,0.32-0.99,0.49c-0.37-0.13-0.58-0.42-0.61-0.85c-0.03-0.69,0.44-1.6,1.27-1.87c0.85-0.27,1.81-0.39,3.02-0.39
		c0.9,0,1.81,0.07,2.7,0.14c0.44,0.03,0.88,0.06,1.29,0.1c1.6,0.09,7.01,0.52,9.8,2.23c0.73,0.45,0.94,1.09,1.17,1.82
		c0.31,0.99,0.7,2.23,2.68,2.49c0.6,0.07,1.08,0.11,1.51,0.11c1.11,0,2.03-0.23,2.89-0.76c0.26-0.15,0.51-0.32,0.78-0.49
		c0.66-0.44,1.35-0.9,2.08-1.07c0.45-0.11,0.94-0.15,1.56-0.15c0.42,0,0.84,0.02,1.26,0.04c0.3,0.01,0.59,0.03,0.89,0.03
		c2.68,0.07,5.48,0.45,8.34,1.1c2.04,0.47,4.14,1.09,6.23,1.85c1.45,0.52,3.11,1.66,3.37,2.95C97.15,53.14,96.84,53.83,96.09,54.52z
		"/>
	<path style="fill:#A17F2D;" d="M93.83,48.99c-2.06-0.75-4.16-1.38-6.29-1.87c-2.77-0.63-5.6-1.02-8.45-1.11
		c-0.7-0.01-1.43-0.07-2.15-0.07c-0.57,0-1.13,0.03-1.67,0.17c-1.11,0.26-2.06,1.05-3.01,1.61c-0.11,0.06-0.21,0.13-0.32,0.18
		c-0.33,0.16-0.65,0.28-0.98,0.35c-0.21,0.05-0.43,0.1-0.65,0.12c-0.22,0.02-0.45,0.03-0.67,0.03c-0.47,0-0.95-0.04-1.44-0.11
		c-2.9-0.37-1.59-2.98-3.65-4.23c-2.52-1.54-7.11-2.13-10.05-2.3c-1.3-0.07-2.68-0.23-4.02-0.23c-1.09,0-2.17,0.1-3.18,0.42
		c-1.8,0.58-2.37,3.41-0.44,3.8c0.39-0.2,0.78-0.39,1.15-0.58c0.22-0.11,0.42-0.2,0.6-0.31c0,0,0.01,0,0.02-0.01
		c0.01-0.01,0.02-0.01,0.03-0.02c0.25-0.14,0.47-0.26,0.71-0.35c0.1-0.03,0.18-0.06,0.28-0.09c0.06-0.02,0.14-0.03,0.21-0.04
		c0.02,0,0.05-0.01,0.09-0.01c0.05-0.01,0.11-0.01,0.17-0.02c0.06,0,0.13-0.01,0.19-0.01h0.16c1.11,0,2.43,0.29,3.49,0.49
		c0.26,0.05,0.51,0.1,0.78,0.14c0.18,0.02,0.36,0.05,0.55,0.07c0.26,0.04,0.53,0.07,0.81,0.11c0.09,0.01,0.16,0.02,0.25,0.03
		c0.36,0.04,0.74,0.1,1.11,0.15c0.25,0.03,0.5,0.07,0.75,0.12c0.05,0.01,0.11,0.01,0.16,0.02c0.1,0.01,0.19,0.03,0.29,0.05
		c0.1,0.02,0.19,0.04,0.29,0.06c0.17,0.03,0.34,0.06,0.51,0.11c0.09,0.03,0.16,0.04,0.25,0.06c0.04,0.01,0.1,0.02,0.14,0.04
		c0.06,0.01,0.12,0.03,0.18,0.05c0.12,0.03,0.23,0.06,0.35,0.11c0.27,0.09,0.53,0.18,0.79,0.3c0.3,0.14,0.6,0.3,0.86,0.48
		c0.12,0.07,0.22,0.16,0.33,0.23c0.1,0.06,0.17,0.13,0.26,0.2c0.09,0.06,0.16,0.14,0.23,0.2c0.04,0.04,0.08,0.07,0.12,0.12
		c0.03,0.03,0.07,0.06,0.11,0.11c0.38,0.38,0.68,0.81,0.94,1.28c0.02,0.03,0.04,0.06,0.05,0.11c0.14,0.25,0.27,0.51,0.38,0.79
		c0.43,1.02,0.78,1.35,2.07,1.39c1.27,0.02,2.19,0.02,3.4,0.54c0.19,0.09,0.37,0.15,0.53,0.18c0.43,0.1,0.79,0.06,1.12-0.07
		c0.1-0.03,0.19-0.09,0.3-0.14c0.14-0.07,0.29-0.17,0.44-0.28c0.06-0.04,0.13-0.09,0.19-0.14v-0.01c0,0,0.01,0,0.01-0.01
		c0.07-0.05,0.15-0.11,0.22-0.17c0.16-0.12,0.32-0.23,0.49-0.36c0.09-0.06,0.17-0.13,0.27-0.19c1.11-0.76,2.4-1.18,3.73-1.3
		c0.34-0.03,0.68-0.05,1.01-0.05c0.28,0,0.57,0.01,0.84,0.03c0.52,0.03,1.05,0.1,1.57,0.18c0.06,0.01,0.14,0.02,0.2,0.03
		c0.26,0.03,0.5,0.07,0.75,0.12c0.29,0.05,0.58,0.12,0.85,0.17l0.8,0.16c0.55,0.12,1.1,0.22,1.65,0.32
		c2.21,0.37,4.55,0.81,6.35,2.25c0.06,0.05,0.13,0.11,0.17,0.16c0.05,0.05,0.11,0.11,0.15,0.17c0.05,0.06,0.09,0.12,0.13,0.18
		c0.2,0.31,0.33,0.66,0.46,1.02c0.04,0.12,0.09,0.23,0.13,0.35c0.04,0.11,0.09,0.2,0.13,0.31c0.04,0.1,0.09,0.19,0.14,0.28
		c0.04,0.07,0.09,0.15,0.14,0.22c0.01,0.01,0.01,0.02,0.02,0.03c0.02,0.03,0.04,0.06,0.07,0.1c0.01,0.03,0.03,0.05,0.05,0.07
		c0.04,0.05,0.1,0.11,0.15,0.15c0.04,0.04,0.07,0.07,0.12,0.11c0.06,0.05,0.14,0.1,0.21,0.14c0.28,0.16,0.59,0.22,0.89,0.22
		c0.83,0,1.67-0.49,2.24-0.99C99.26,52.37,96.24,49.86,93.83,48.99z M96.09,54.52c-0.45,0.42-1.18,0.85-1.88,0.85
		c-0.23,0-0.45-0.05-0.64-0.16c-0.47-0.26-0.66-0.79-0.89-1.4c-0.22-0.63-0.48-1.34-1.1-1.85c-1.94-1.57-4.52-2.01-6.59-2.36
		c-0.62-0.11-1.24-0.23-1.86-0.36c-1.59-0.32-3.23-0.66-4.9-0.66c-0.36,0-0.71,0.02-1.06,0.05c-1.48,0.14-2.86,0.62-4,1.4
		c-0.28,0.19-0.52,0.38-0.76,0.57c-0.59,0.45-1,0.78-1.5,0.78c-0.23,0-0.49-0.06-0.8-0.2c-1.28-0.54-2.26-0.57-3.51-0.59h-0.1
		c-1.05-0.02-1.22-0.2-1.58-1.06c-0.64-1.53-1.4-2.47-2.61-3.27c-1.66-1.12-3.87-1.4-6.01-1.66c-0.8-0.1-1.56-0.19-2.25-0.33
		l-0.33-0.06c-1.03-0.2-2.22-0.44-3.26-0.44h-0.18c-0.85,0.02-1.35,0.3-1.88,0.59c-0.18,0.11-0.38,0.22-0.63,0.33
		c-0.32,0.15-0.65,0.32-0.99,0.49c-0.37-0.13-0.58-0.42-0.61-0.85c-0.03-0.69,0.44-1.6,1.27-1.87c0.85-0.27,1.81-0.39,3.02-0.39
		c0.9,0,1.81,0.07,2.7,0.14c0.44,0.03,0.88,0.06,1.29,0.1c1.6,0.09,7.01,0.52,9.8,2.23c0.73,0.45,0.94,1.09,1.17,1.82
		c0.31,0.99,0.7,2.23,2.68,2.49c0.6,0.07,1.08,0.11,1.51,0.11c1.11,0,2.03-0.23,2.89-0.76c0.26-0.15,0.51-0.32,0.78-0.49
		c0.66-0.44,1.35-0.9,2.08-1.07c0.45-0.11,0.94-0.15,1.56-0.15c0.42,0,0.84,0.02,1.26,0.04c0.3,0.01,0.59,0.03,0.89,0.03
		c2.68,0.07,5.48,0.45,8.34,1.1c2.04,0.47,4.14,1.09,6.23,1.85c1.45,0.52,3.11,1.66,3.37,2.95C97.15,53.14,96.84,53.83,96.09,54.52z
		"/>
	<g>
		<path style="fill:#1C3A4D;" d="M54.26,49.91c0.3,0.04,0.63,0.1,0.84-0.17c0.45-0.55,0.23-1.22,0.03-1.66
			c-0.04-0.1-0.08-0.19-0.13-0.3c-0.17-0.42-0.34-0.84-0.72-1.12c-0.02-0.01-0.04-0.03-0.07-0.05c-0.31-0.19-1.37-0.44-1.81-0.26
			c-0.17,0.06-0.22,0.17-0.25,0.25c-0.07,0.33,0.11,0.6,0.28,0.84c0.12,0.17,0.23,0.34,0.25,0.5c0.01,0.14,0,0.23-0.05,0.28
			c-0.05,0.06-0.22,0.04-0.38,0.02c-0.11-0.01-0.22-0.02-0.34-0.01c-0.22,0.01-0.39,0.11-0.51,0.27c-0.19,0.27-0.19,0.71-0.02,1.37
			c0.14,0.51,0.25,1.07,0.34,1.65c0.3,1.66,0.64,3.54,1.99,4.61c0.13,0.11,0.31,0.21,0.52,0.21c0.05,0,0.1,0,0.15-0.01
			c0.15-0.04,0.27-0.13,0.34-0.27c0.32-0.57-0.08-1.87-0.5-3.25c-0.35-1.14-0.75-2.44-0.5-2.82C53.79,49.86,53.97,49.88,54.26,49.91
			z M53.87,55.9c-1.27-1-1.59-2.75-1.89-4.45c-0.11-0.59-0.2-1.15-0.35-1.66c-0.15-0.57-0.16-0.95-0.02-1.15
			c0.07-0.1,0.17-0.14,0.32-0.16h0.05c0.08,0,0.16,0.01,0.23,0.02c0.22,0.02,0.45,0.05,0.61-0.1c0.11-0.1,0.15-0.26,0.13-0.48
			c-0.01-0.25-0.16-0.45-0.29-0.64c-0.15-0.21-0.29-0.42-0.25-0.62c0.01-0.01,0.01-0.04,0.09-0.07c0.35-0.14,1.32,0.09,1.58,0.25
			c0.02,0.01,0.04,0.02,0.06,0.03c0.31,0.23,0.46,0.63,0.62,1c0.04,0.11,0.09,0.21,0.13,0.32c0.28,0.62,0.28,1.05,0,1.39
			c-0.11,0.13-0.3,0.12-0.6,0.07c-0.29-0.04-0.62-0.1-0.8,0.18c-0.32,0.48,0.05,1.66,0.47,3.04c0.37,1.22,0.79,2.58,0.53,3.04
			c-0.04,0.07-0.1,0.12-0.18,0.14C54.19,56.09,54.05,56.04,53.87,55.9z"/>
		<path style="fill:#6D95B2;" d="M54.89,49.58c-0.11,0.13-0.3,0.12-0.6,0.07c-0.29-0.04-0.62-0.1-0.8,0.18
			c-0.32,0.48,0.05,1.66,0.47,3.04c0.37,1.22,0.79,2.58,0.53,3.04c-0.04,0.07-0.1,0.12-0.18,0.14c-0.13,0.03-0.27-0.01-0.45-0.15
			c-1.27-1-1.59-2.75-1.89-4.45c-0.11-0.59-0.2-1.15-0.35-1.66c-0.15-0.57-0.16-0.95-0.02-1.15c0.07-0.1,0.17-0.14,0.32-0.16h0.05
			c0.08,0,0.16,0.01,0.23,0.02c0.22,0.02,0.45,0.05,0.61-0.1c0.11-0.1,0.15-0.26,0.13-0.48c-0.01-0.25-0.16-0.45-0.29-0.64
			c-0.15-0.21-0.29-0.42-0.25-0.62c0.01-0.01,0.01-0.04,0.09-0.07c0.35-0.14,1.32,0.09,1.58,0.25c0.02,0.01,0.04,0.02,0.06,0.03
			c0.31,0.23,0.46,0.63,0.62,1c0.04,0.11,0.09,0.21,0.13,0.32C55.17,48.81,55.17,49.24,54.89,49.58z"/>
	</g>
	<g>
		<path style="fill:#6D95B2;" d="M80.02,54.51c-0.12,0.15-0.33,0.13-0.65,0.09c-0.32-0.04-0.67-0.1-0.86,0.19
			c-0.34,0.52,0.05,1.81,0.51,3.31c0.41,1.31,0.85,2.81,0.58,3.32c-0.05,0.07-0.12,0.13-0.2,0.15c-0.16,0.04-0.3-0.01-0.49-0.16
			c-1.39-1.1-1.73-3-2.07-4.84c-0.11-0.65-0.22-1.26-0.37-1.81c-0.17-0.62-0.17-1.05-0.02-1.26c0.07-0.11,0.19-0.16,0.35-0.18h0.06
			c0.07,0,0.17,0.01,0.26,0.02c0.23,0.03,0.48,0.05,0.64-0.1c0.12-0.11,0.16-0.28,0.15-0.52c-0.02-0.26-0.17-0.48-0.32-0.69
			c-0.16-0.23-0.32-0.45-0.26-0.68c0-0.01,0.01-0.04,0.1-0.07c0.37-0.16,1.44,0.09,1.72,0.26c0.02,0.01,0.04,0.03,0.06,0.04
			c0.34,0.26,0.51,0.68,0.68,1.1c0.04,0.12,0.1,0.22,0.14,0.34C80.33,53.66,80.33,54.13,80.02,54.51z"/>
		<path style="fill:#1C3A4D;" d="M79.33,54.86c0.32,0.04,0.68,0.1,0.91-0.18c0.48-0.6,0.25-1.31,0.03-1.8
			c-0.04-0.11-0.1-0.21-0.14-0.33c-0.18-0.45-0.36-0.91-0.77-1.21c-0.02-0.02-0.05-0.03-0.08-0.05c-0.33-0.21-1.47-0.48-1.96-0.29
			c-0.17,0.07-0.23,0.19-0.26,0.27c-0.09,0.35,0.12,0.64,0.3,0.91c0.14,0.18,0.27,0.36,0.28,0.55c0.01,0.15-0.01,0.26-0.06,0.31
			c-0.08,0.06-0.26,0.04-0.43,0.02c-0.13-0.01-0.26-0.02-0.37-0.02c-0.25,0.02-0.43,0.12-0.54,0.29c-0.21,0.3-0.21,0.78-0.02,1.48
			c0.15,0.55,0.26,1.15,0.37,1.79c0.32,1.8,0.69,3.85,2.15,5c0.15,0.12,0.33,0.23,0.57,0.23c0.05,0,0.11,0,0.16-0.02
			c0.16-0.03,0.29-0.13,0.36-0.28c0.34-0.61-0.09-2.03-0.54-3.52c-0.38-1.26-0.82-2.67-0.54-3.08
			C78.82,54.79,79.02,54.82,79.33,54.86z M76.46,54.74c-0.17-0.62-0.17-1.05-0.02-1.26c0.07-0.11,0.19-0.16,0.35-0.18h0.06
			c0.07,0,0.17,0.01,0.26,0.02c0.23,0.03,0.48,0.05,0.64-0.1c0.12-0.11,0.16-0.28,0.15-0.52c-0.02-0.26-0.17-0.48-0.32-0.69
			c-0.16-0.23-0.32-0.45-0.26-0.68c0-0.01,0.01-0.04,0.1-0.07c0.37-0.16,1.44,0.09,1.72,0.26c0.02,0.01,0.04,0.03,0.06,0.04
			c0.34,0.26,0.51,0.68,0.68,1.1c0.04,0.12,0.1,0.22,0.14,0.34c0.31,0.67,0.31,1.14,0,1.51c-0.12,0.15-0.33,0.13-0.65,0.09
			c-0.32-0.04-0.67-0.1-0.86,0.19c-0.34,0.52,0.05,1.81,0.51,3.31c0.41,1.31,0.85,2.81,0.58,3.32c-0.05,0.07-0.12,0.13-0.2,0.15
			c-0.16,0.04-0.3-0.01-0.49-0.16c-1.39-1.1-1.73-3-2.07-4.84C76.73,55.9,76.61,55.3,76.46,54.74z"/>
	</g>
	<g>
		<path style="fill:#1C3A4D;" d="M82.93,57.01c-0.31-0.58-0.82-0.85-1.42-0.78l-0.04,0.01c-0.43,0.2-0.66,0.64-0.63,1.25
			c0.03,0.86,0.52,1.81,1.05,2.01c0.12,0.04,0.25,0.06,0.35,0.06c0.23,0,0.45-0.1,0.61-0.28C83.29,58.78,83.32,57.75,82.93,57.01z
			 M82.66,59.1c-0.18,0.19-0.39,0.25-0.68,0.14c-0.36-0.13-0.84-0.97-0.86-1.75c-0.02-0.35,0.05-0.8,0.46-0.99
			c0.63-0.06,0.96,0.31,1.13,0.64C83.03,57.77,83.01,58.7,82.66,59.1z"/>
		<path style="fill:#6D95B2;" d="M82.66,59.1c-0.18,0.19-0.39,0.25-0.68,0.14c-0.36-0.13-0.84-0.97-0.86-1.75
			c-0.02-0.35,0.05-0.8,0.46-0.99c0.63-0.06,0.96,0.31,1.13,0.64C83.03,57.77,83.01,58.7,82.66,59.1z"/>
	</g>
</g>
</svg>
