<?xml version="1.0" encoding="utf-8"?>
<!-- Generator: Adobe Illustrator 22.0.1, SVG Export Plug-In . SVG Version: 6.00 Build 0)  -->
<svg version="1.1" id="레이어_1" xmlns="http://www.w3.org/2000/svg" xmlns:xlink="http://www.w3.org/1999/xlink" x="0px"
	 y="0px" viewBox="0 0 213 386" style="enable-background:new 0 0 213 386;" xml:space="preserve">
<style type="text/css">
	.st0{fill:#FFFFFF;}
	.st1{fill:#FFC0BB;}
	.st2{fill:#673101;}
	.st3{fill:#008AC4;}
	.st4{fill:#0078AB;}
	.st5{fill:#00A2E7;}
	.st6{fill:#008BC7;}
	.st7{fill:#DD9900;}
	.st8{fill:#C18100;}
	.st9{fill:#FFB400;}
	.st10{fill:#FFE4A9;}
</style>
<title>자산 6</title>
<g>
	<path class="st0" d="M152.2,106.5c0,27.1-24.2,49.1-54,49.1H60.6c-16.9-0.1-30.6-13.8-30.6-30.7v-2.4c0-10.9,5.8-21,15.2-26.5
		c0.5-5.3,4.4-32.8,38.8-37.9c2.9-0.5,14.5-0.8,14.5-0.8C128.1,57.4,152.2,79.4,152.2,106.5z"/>
	<path class="st1" d="M47.8,119c0.1,8.7-7,15.8-15.7,15.9h-0.4c-1.1-3.2-1.7-6.6-1.7-10v-2.4c0-6.8,2.2-13.3,6.4-18.7
		C43.1,105.7,47.8,111.9,47.8,119L47.8,119z"/>
</g>
<g>
	<path class="st0" d="M140,77.6c6.9-9.1,6.6-20.9,6.5-22.2l-0.1-0.6c-1.2-11.2-6.9-16.5-11.4-19c-12.5-6.8-29.2,1-31,1.9
		c-4.3,2.3-6.1,7.6-4.1,12c2.1,4.6,7.6,6.6,12.2,4.5c3.9-1.9,11.3-3.8,14.1-2.2c1.2,0.7,1.7,3.1,1.9,4.6c0,1.6-0.4,6.9-2.8,10.1
		c-3.1,4-2.3,9.8,1.8,12.8l0.2,0.2C131.4,82.5,136.9,81.6,140,77.6z"/>
	<path class="st2" d="M116.9,52.5c-1.7,0.5-3.3,1.1-4.9,1.8c-4.5,2-9.7,0.2-12-4.1c-2.3-4.5-0.6-10.1,3.9-12.4
		c2.9-1.4,6-2.5,9.1-3.3c0.1,0,0.3,0.1,0.4,0.2c0.8,0.5,1.3,1.2,1.5,2.1c0.4,2-0.8,3.9-2.7,4.4c1.9-0.2,3.6,1.1,4,3
		c0.4,2-0.9,3.9-2.9,4.3c0.7,0,1.4,0.2,2,0.6C116.4,49.9,117,51.2,116.9,52.5z"/>
</g>
<g>
	<path class="st0" d="M100.3,75.6c6.9-9.1,6.6-20.9,6.5-22.2v-0.6c-1.2-11.2-6.8-16.5-11.4-19c-12.5-6.8-29.1,1-31,1.9
		c-4.4,2.2-6.2,7.6-4.1,12.1c2.1,4.5,7.6,6.5,12.2,4.3c3.9-1.9,11.3-3.8,14.1-2.2c1.3,0.7,1.8,3.1,2,4.6c0,1.6-0.4,6.9-2.8,10.1l0,0
		c-3.1,4-2.3,9.8,1.8,12.8l0.2,0.2C91.8,80.4,97.2,79.5,100.3,75.6z"/>
	<path class="st2" d="M77.5,50.3c-1.7,0.4-3.4,1-5,1.8c-4.5,2.2-9.8,0.3-12.1-4.1c-2.3-4.5-0.5-10,4-12.3c2.9-1.4,6-2.5,9.2-3.3
		c0.2,0.1,0.3,0.1,0.4,0.2l0,0c1.7,1.1,2.1,3.4,0.9,5.1c-0.5,0.7-1.3,1.2-2.1,1.4c0.9-0.1,1.8,0.1,2.6,0.6c0.8,0.6,1.3,1.4,1.5,2.4
		c0.4,2-1,3.9-3,4.3c0.7,0,1.4,0.2,2,0.6C76.8,47.7,77.6,49,77.5,50.3z"/>
</g>
<g>
	<path class="st3" d="M95.5,329.3c-0.5,0.1-0.9,0.2-1.4,0.3c-11.5,3.2-18.3,15.1-15.1,26.6h49V290h-10.2v41.6c0,0-12.4-4.3-22-2.4
		L95.5,329.3L95.5,329.3z"/>
	<g>
		<path class="st4" d="M83.1,337.2c1.4-1.8,3.1-3.3,5-4.6c6.6-0.7,10.3,1.3,10.7,1.6l-2.2,3.1C92.2,335.3,87.3,335.3,83.1,337.2z"/>
		<path class="st4" d="M78.4,348.4c0.1-1.7,0.5-3.4,1.1-5c9.7-2.5,14.4,0.4,14.9,0.8l-2.5,3.7C91.8,347.8,87.8,345.4,78.4,348.4z"/>
	</g>
	<path class="st0" d="M123,240.6c-2.9,0.1-5.1,2.3-5.1,5.1V290h10.1v-44.4C128.1,242.8,125.8,240.6,123,240.6
		C122.9,240.6,122.9,240.6,123,240.6z"/>
</g>
<g>
	<path class="st0" d="M86.2,240.7c-2.8,0-5,2.2-5,5V290h10.1v-44.4C91.3,242.8,89.2,240.6,86.2,240.7
		C86.2,240.6,86.2,240.6,86.2,240.7z"/>
	<path class="st5" d="M41.5,350.7c0.1,1.9,0.3,3.7,0.8,5.5h49V290H81.2v41.6c0,0-12.4-4.3-22-2.4l-0.4,0.1
		C48.8,331.5,41.6,340.4,41.5,350.7z"/>
	<g>
		<path class="st6" d="M46.3,337.2c1.4-1.8,3.1-3.3,5-4.6c6.6-0.7,10.3,1.3,10.7,1.6l-2.1,3.1C55.6,335.3,50.6,335.3,46.3,337.2z"/>
		<path class="st6" d="M41.8,348.4c0.2-1.7,0.5-3.4,1.1-5c9.7-2.5,14.3,0.4,14.9,0.8l-2.5,3.7C55.1,347.8,51.1,345.4,41.8,348.4z"/>
	</g>
</g>
<g>
	<path class="st0" d="M134.8,248.8c-3.8-3.4-4-10-0.6-14.8c27.9-39,19-69.3,18.5-70.6c-2.1-5-2.2-13.5,2.8-15.9
		c3.2-1.5,6.7,2.9,8.9,7.8c0.6,1.6,20.1,39.6-16.6,91c-2.8,3.8-7.1,5.3-10.6,4C136.2,249.9,135.4,249.4,134.8,248.8z"/>
	<path class="st4" d="M134.2,234.1c7.6-10.4,13.4-21.9,17-34.2c5.7,0.5,11.3,2.2,16.3,5c-2.9,12.2-8.9,26.2-19.7,41.4
		c-2.8,3.8-7.1,5.3-10.6,4c-0.9-0.4-1.7-0.9-2.4-1.5C130.9,245.4,130.8,238.8,134.2,234.1z"/>
</g>
<path class="st5" d="M164.6,98.1V214c0,20.8-25.2,37.8-56.5,37.8S51.5,234.9,51.5,214V97.6c0,0,2.3-43.5,56.6-43.4
	C108,54.2,165.8,52.6,164.6,98.1z"/>
<g>
	<path class="st0" d="M51.3,249.9c-3.9-3.1-4.5-9.7-1.4-14.7c25.6-40.6,15-70.4,14.4-71.6c-2.3-4.8-3-13.3,1.9-16
		c3.2-1.7,7,2.5,9.4,7.3c0.7,1.5,22.3,38.3-11.4,91.7c-2.5,4-6.7,5.7-10.3,4.6C53,251,52.1,250.5,51.3,249.9z"/>
	<path class="st3" d="M50,235.2c6.9-10.8,12-22.6,14.9-35.1c5.7,0.1,11.4,1.5,16.6,4c-2.3,12.4-7.4,26.7-17.3,42.5
		c-2.5,4-6.7,5.7-10.3,4.6c-0.9-0.3-1.8-0.7-2.5-1.3C47.5,246.8,46.8,240.2,50,235.2z"/>
</g>
<g>
	<g>
		<path class="st7" d="M142.2,158.3c3.1,0,5.6,3.5,5.6,7.9s-2.4,7.9-5.6,7.9s-5.7-3.5-5.7-7.9S139.1,158.3,142.2,158.3z"/>
		<path class="st8" d="M143.2,161.2c1.8,0,3.3,2.2,3.3,5s-1.5,5-3.3,5s-3.3-2.2-3.3-5S141.4,161.2,143.2,161.2z"/>
		<path class="st9" d="M143.6,162.8h11.1v6.7h-11.1c-1,0-1.9-1.5-1.9-3.3S142.6,162.9,143.6,162.8L143.6,162.8L143.6,162.8z"/>
	</g>
	<path class="st9" d="M151.6,169.5c2.3,2,1.5,6.1,1.2,8.6c-1.3,3.9-1.9,8-1.9,12.1c0,14.3,7.2,25.9,16.1,25.9
		c8.9,0,16.1-11.6,16.1-25.9c0-3.8-0.5-7.6-1.6-11.2l0,0c-0.1-0.3-0.1-0.5-0.2-0.7l-0.2-0.6c-2.7-8.5-5.5-11.3-5.5-11.3
		c3.8-4.9,6-13.7,6.2-14.5c0-0.1,0-0.1,0-0.1v-0.1l0,0c0.8-3.2,1.2-6.5,1.2-9.9c0-14.3-7.2-25.8-16.1-25.8
		c-8.9,0-16.1,11.6-16.1,25.9c0,3.8,0.6,7.7,1.7,11.4l0,0c0,0,1.6,6.7-1.2,9.6L151.6,169.5z M163.9,195.9c-4.1,0-5.7-3.3-5.7-9.9
		s1.6-10.6,5.7-10.6c4.1,0,5.6,4,5.6,10.6S167.9,195.9,163.9,195.9L163.9,195.9z M163.9,156.6c-4.1,0-5.7-4-5.7-10.6
		s1.6-9.9,5.7-9.9c4.1,0,5.6,3.3,5.6,9.9S167.9,156.6,163.9,156.6L163.9,156.6z"/>
	<g>
		<path class="st10" d="M179.6,148c2.9-17-5.6-25.3-6-25.6c-0.9-0.9-2.4-0.8-3.3,0.1c-0.9,0.9-0.8,2.4,0.1,3.3
			c0.3,0.2,7.1,7,4.6,21.4v0.1c-0.2,1.3,0.6,2.5,1.9,2.7h0.4C178.4,150,179.4,149.2,179.6,148z"/>
		<path class="st10" d="M175,206.1c4.9-5.7,5.1-13.5,5.1-13.8l0,0c0-1.3-1-2.4-2.3-2.4h-0.1c-1.3,0-2.3,1-2.3,2.3
			c0,0.1-0.2,6.5-4,10.9c-0.4,0.4-0.6,0.9-0.6,1.5c0,1.3,1.1,2.4,2.4,2.4C173.9,207,174.6,206.7,175,206.1z"/>
	</g>
</g>
</svg>
