<?xml version="1.0" encoding="utf-8"?>
<!-- Generator: Adobe Illustrator 26.5.0, SVG Export Plug-In . SVG Version: 6.00 Build 0)  -->
<svg version="1.1" id="레이어_1" xmlns="http://www.w3.org/2000/svg" xmlns:xlink="http://www.w3.org/1999/xlink" x="0px"
	 y="0px" viewBox="0 0 390 390" style="enable-background:new 0 0 390 390;" xml:space="preserve">
<g>
	<g>
		<path style="fill:#0091FF;" d="M294.5,380.7H77.7c-4.8,0-8.7-3.9-8.7-8.7V88c0-43.5,35.3-78.7,78.7-78.7H222
			c44.9,0,81.2,36.4,81.2,81.2V372C303.2,376.8,299.3,380.7,294.5,380.7z"/>
		<path d="M294.5,382H77.7c-5.5,0-10-4.5-10-10V88c0-44.1,35.9-80,80-80H222c45.5,0,82.5,37,82.5,82.5V372
			C304.5,377.5,300,382,294.5,382z M147.7,10.5C105,10.5,70.2,45.3,70.2,88v284c0,4.1,3.4,7.5,7.5,7.5h216.8c4.1,0,7.5-3.4,7.5-7.5
			V90.5c0-44.1-35.9-80-80-80H147.7z"/>
	</g>
</g>
<g>
	<path style="fill:#000B2B;" d="M279.2,368.8H93c-4.8,0-8.7-3.9-8.7-8.7V94c0-38.5,31.2-69.7,69.7-69.7h65.2
		c37.9,0,68.7,30.8,68.7,68.7v267.1C287.9,364.9,284,368.8,279.2,368.8z"/>
</g>
<g>
	<path d="M279.2,370H93c-5.5,0-10-4.5-10-10V94c0-39.1,31.8-71,71-71h65.2c38.6,0,69.9,31.4,69.9,69.9v267.1
		C289.1,365.6,284.7,370,279.2,370z M154,25.5c-37.8,0-68.5,30.7-68.5,68.5v266c0,4.1,3.4,7.5,7.5,7.5h186.1c4.1,0,7.5-3.4,7.5-7.5
		V93c0-37.2-30.3-67.4-67.4-67.4H154z"/>
</g>
<g>
	<g>
		<path style="fill:#311580;" d="M279.2,347.8H113.3c-4.8,0-8.7-3.9-8.7-8.7V94c0-38.5,31.2-69.7,69.7-69.7h44.9
			c37.9,0,68.7,30.8,68.7,68.7v246.1C287.9,343.9,284,347.8,279.2,347.8z"/>
	</g>
	<g>
		<g>
			<circle style="fill:#EAFF4D;" cx="225.8" cy="127.3" r="44"/>
			<path d="M225.8,172.6c-25,0-45.3-20.3-45.3-45.3s20.3-45.3,45.3-45.3c25,0,45.3,20.3,45.3,45.3S250.7,172.6,225.8,172.6z
				 M225.8,84.6c-23.6,0-42.8,19.2-42.8,42.8s19.2,42.8,42.8,42.8s42.8-19.2,42.8-42.8S249.3,84.6,225.8,84.6z"/>
		</g>
	</g>
	<g>
		<g>
			<path style="fill:#61FFDA;" d="M287.9,125.3c0,0-32-6.9-38.8,26.9c0,0-33.6-1.3-40.1,22s11,33.4,26.3,33.4s52.6,0,52.6,0"/>
			<path d="M287.9,208.8h-52.6c-10.1,0-19.3-4-24.4-10.8c-4.8-6.3-5.8-14.7-3.1-24.2c6.1-21.5,34.5-22.8,40.3-22.9
				c2.2-10.1,6.9-17.6,14-22.2c11.7-7.7,25.4-4.8,26-4.7l-0.5,2.4c-0.1,0-13.4-2.7-24.1,4.3c-6.7,4.4-11.1,11.7-13.1,21.6l-0.2,1
				l-1.1,0c-0.3,0-32.6-0.9-38.9,21.1c-2.5,8.9-1.6,16.3,2.7,22c4.6,6.1,13.2,9.8,22.4,9.8h52.6V208.8z"/>
		</g>
	</g>
	<g>
		<g>
			<circle style="fill:#47FF94;" cx="201.4" cy="248.3" r="7.1"/>
			<path d="M201.4,256.4c-4.5,0-8.1-3.6-8.1-8.1s3.6-8.1,8.1-8.1s8.1,3.6,8.1,8.1S205.9,256.4,201.4,256.4z M201.4,242.2
				c-3.4,0-6.1,2.7-6.1,6.1s2.7,6.1,6.1,6.1s6.1-2.7,6.1-6.1S204.8,242.2,201.4,242.2z"/>
		</g>
	</g>
	<g>
		<g>
			<circle style="fill:#FFDB4D;" cx="164.5" cy="292.6" r="5.8"/>
			<path d="M164.5,299.4c-3.8,0-6.8-3.1-6.8-6.8s3.1-6.8,6.8-6.8s6.8,3.1,6.8,6.8S168.2,299.4,164.5,299.4z M164.5,287.8
				c-2.7,0-4.8,2.2-4.8,4.8c0,2.7,2.2,4.8,4.8,4.8s4.8-2.2,4.8-4.8C169.3,289.9,167.1,287.8,164.5,287.8z"/>
		</g>
	</g>
	<g>
		<g>
			<circle style="fill:#E1F3F0;" cx="219.5" cy="55.9" r="5"/>
			<path d="M219.5,61.9c-3.3,0-6-2.7-6-6s2.7-6,6-6s6,2.7,6,6S222.8,61.9,219.5,61.9z M219.5,51.8c-2.2,0-4,1.8-4,4c0,2.2,1.8,4,4,4
				s4-1.8,4-4C223.5,53.7,221.7,51.8,219.5,51.8z"/>
		</g>
	</g>
	<g>
		<g>
			<circle style="fill:#FF4DA3;" cx="157.4" cy="152" r="7.1"/>
			<path d="M157.4,160.1c-4.5,0-8.1-3.6-8.1-8.1s3.6-8.1,8.1-8.1s8.1,3.6,8.1,8.1S161.8,160.1,157.4,160.1z M157.4,145.8
				c-3.4,0-6.1,2.7-6.1,6.1s2.7,6.1,6.1,6.1s6.1-2.7,6.1-6.1S160.7,145.8,157.4,145.8z"/>
		</g>
	</g>
	<g>
		<g>
			<circle style="fill:#E1F3F0;" cx="138.8" cy="209.5" r="3.6"/>
			<path d="M138.8,214c-2.5,0-4.6-2-4.6-4.6s2-4.6,4.6-4.6s4.6,2,4.6,4.6S141.3,214,138.8,214z M138.8,206.9c-1.4,0-2.6,1.1-2.6,2.6
				s1.1,2.6,2.6,2.6s2.6-1.1,2.6-2.6S140.2,206.9,138.8,206.9z"/>
		</g>
	</g>
	<g>
		<g>
			<circle style="fill:#5EFFD9;" cx="245.5" cy="317" r="3.6"/>
			<path d="M245.5,321.6c-2.5,0-4.6-2-4.6-4.6s2-4.6,4.6-4.6s4.6,2,4.6,4.6S248,321.6,245.5,321.6z M245.5,314.5
				c-1.4,0-2.6,1.1-2.6,2.6s1.1,2.6,2.6,2.6s2.6-1.1,2.6-2.6S246.9,314.5,245.5,314.5z"/>
		</g>
	</g>
	<g>
		<g>
			<circle style="fill:#47FF94;" cx="131" cy="84.9" r="7.1"/>
			<path d="M131,93.1c-4.5,0-8.1-3.6-8.1-8.1c0-4.5,3.6-8.1,8.1-8.1c4.5,0,8.1,3.6,8.1,8.1C139.1,89.4,135.5,93.1,131,93.1z
				 M131,78.8c-3.4,0-6.1,2.7-6.1,6.1s2.7,6.1,6.1,6.1s6.1-2.7,6.1-6.1S134.4,78.8,131,78.8z"/>
		</g>
	</g>
	<g>
		<g>
			<circle style="fill:#FF4DA3;" cx="259.3" cy="248.3" r="5.8"/>
			<path d="M259.3,255.1c-3.8,0-6.8-3.1-6.8-6.8s3.1-6.8,6.8-6.8c3.8,0,6.8,3.1,6.8,6.8S263,255.1,259.3,255.1z M259.3,243.5
				c-2.7,0-4.8,2.2-4.8,4.8s2.2,4.8,4.8,4.8c2.7,0,4.8-2.2,4.8-4.8S261.9,243.5,259.3,243.5z"/>
		</g>
	</g>
</g>
</svg>
