<?xml version="1.0" encoding="utf-8"?>
<!-- Generator: Adobe Illustrator 24.1.1, SVG Export Plug-In . SVG Version: 6.00 Build 0)  -->
<svg version="1.1" id="Layer_1" xmlns="http://www.w3.org/2000/svg" xmlns:xlink="http://www.w3.org/1999/xlink" x="0px" y="0px"
	 viewBox="0 0 226.71 330" style="enable-background:new 0 0 226.71 330;" xml:space="preserve">
<g>
	<path style="fill:#FFFFFF;" d="M77.28,49.71c-0.77,0.63-1.5,1.23-2.17,1.9c-0.23,0.2-0.47,0.43-0.7,0.63
		c-0.3,0.27-0.57,0.53-0.8,0.8c0,0,0,0-0.03,0c-1.7,1.8-3.97,2.7-6.23,2.7c-2.17,0-4.3-0.8-5.97-2.43c-1.8-1.73-2.7-4.03-2.7-6.33
		c0-0.4,0.03-0.83,0.1-1.23v-0.17c0.07-0.43,0.17-0.87,0.33-1.27c0.1-0.37,0.23-0.77,0.43-1.13c0-0.03,0.03-0.07,0.03-0.1
		c0.17-0.37,0.37-0.7,0.6-1.03c0.23-0.37,0.53-0.7,0.83-1.03c0.07-0.07,0.17-0.17,0.3-0.3c0.57-0.6,1.2-1.17,1.8-1.77
		c0.03,0,0.07-0.03,0.1-0.07c1.47-1.33,3-2.6,4.63-3.7c1.43,0.2,2.03,0.8,2.03,0.8c0.9,0.83,1.37,2.13,1.03,3.43
		c-0.2,0.83-0.73,1.47-1.37,1.93c0.73-0.37,1.6-0.53,2.47-0.3c1.83,0.5,2.97,2.4,2.47,4.27c-0.23,0.93-0.83,1.67-1.57,2.1
		c0.6-0.2,1.27-0.3,1.97-0.13C76.11,47.61,76.95,48.58,77.28,49.71z"/>
	<path style="fill:#FFFFFF;" d="M83.35,46.48c-0.73,0.2-1.43,0.47-2.17,0.8C81.92,46.94,82.62,46.64,83.35,46.48z"/>
	<path style="fill:#FFFFFF;" d="M85.98,46.18c-0.17,0-0.33-0.03-0.5,0h-0.27c0.17-0.03,0.3-0.03,0.43-0.03
		C85.75,46.14,85.88,46.14,85.98,46.18z"/>
	<path style="fill:#673101;" d="M77.32,49.84c-0.77,0.57-1.53,1.17-2.2,1.77c-0.23,0.2-0.47,0.43-0.7,0.63
		c-0.3,0.27-0.57,0.53-0.8,0.8c0,0,0,0-0.03,0c-1.7,1.8-3.97,2.7-6.23,2.7c-2.17,0-4.3-0.8-5.97-2.43c-1.8-1.73-2.7-4.03-2.7-6.33
		c0-0.4,0.03-0.83,0.1-1.23v-0.17c0.07-0.43,0.17-0.87,0.33-1.27c0.1-0.37,0.23-0.77,0.43-1.13c0-0.03,0.03-0.07,0.03-0.1
		c0.17-0.37,0.37-0.7,0.6-1.03c0.23-0.37,0.53-0.7,0.83-1.03c0.07-0.07,0.17-0.17,0.3-0.3c0.57-0.6,1.2-1.17,1.8-1.77
		c0.03,0,0.07-0.03,0.1-0.07c1.47-1.33,3-2.6,4.63-3.7c1.43,0.2,2.03,0.8,2.03,0.8c0.9,0.83,1.37,2.13,1.03,3.43
		c-0.2,0.83-0.73,1.47-1.37,1.93c0.73-0.37,1.6-0.53,2.47-0.3c1.83,0.5,2.97,2.4,2.47,4.27c-0.23,0.93-0.83,1.67-1.57,2.1
		c0.6-0.2,1.27-0.3,1.97-0.13c1.23,0.33,2.07,1.3,2.4,2.43C77.28,49.74,77.32,49.81,77.32,49.84z"/>
	<path d="M73.61,53.01v0.03c0.23-0.27,0.5-0.53,0.8-0.8C74.11,52.51,73.85,52.78,73.61,53.01z"/>
	<path d="M85.65,46.14c-0.13,0-0.27,0-0.43,0.03h0.27c0.17-0.03,0.33,0,0.5,0C85.88,46.14,85.75,46.14,85.65,46.14z M81.18,47.28
		c0.73-0.33,1.43-0.6,2.17-0.8C82.62,46.64,81.92,46.94,81.18,47.28z"/>
	<path d="M99.75,33.24c-1.8-1.5-3.33-2.6-4.83-3.43c-2.13-1.17-4.17-2.03-6.2-2.63c-2.17-0.63-4.3-0.93-6.5-0.93
		c-2.47,0-4.93,0.37-7.57,1.17c-4.17,1.27-8.24,3.53-12.14,6.8c-0.7,0.53-1.37,1.13-2.03,1.77c-1.13,1-1.97,1.87-2.37,2.3
		c-1.73,1.87-2.87,4.17-3.27,6.67c-0.63,3.8,0.5,7.67,3.03,10.54c0.2,0.27,0.47,0.5,0.7,0.73c2.37,2.27,5.47,3.53,8.77,3.53
		c3.43,0,6.77-1.43,9.14-3.93c0.87-0.9,1.97-1.87,3.2-2.77c0.27-0.2,0.5-0.4,0.7-0.67c2.03-1.43,3.87-2.23,5.27-2.23
		c0.83,0,1.47,0.3,2.13,0.93c0.33,0.33,0.97,1.2,1.53,1.93c2.2,3,5.27,7.1,9.7,7.1c1.57,0,3.13-0.57,4.47-1.57
		c2.6-2,4.03-4.97,4.1-8.57C107.72,43.78,103.65,36.44,99.75,33.24z M101.05,55.35c-0.33,0.27-0.67,0.47-1.03,0.57
		c-0.17,0.07-0.33,0.13-0.5,0.13c-0.07,0-0.17,0.03-0.23,0.03c-0.1,0.03-0.2,0.03-0.27,0.03c-0.47,0-0.93-0.1-1.4-0.33
		c-0.17-0.07-0.33-0.13-0.47-0.23c-0.4-0.23-0.8-0.53-1.2-0.87c-0.2-0.17-0.37-0.33-0.57-0.53c-0.4-0.4-0.77-0.8-1.13-1.23
		c-0.7-0.87-1.37-1.8-2-2.63c-0.47-0.6-0.9-1.17-1.3-1.63c-0.13-0.13-0.23-0.27-0.37-0.4c-0.77-0.73-1.57-1.27-2.37-1.6
		c-0.2-0.07-0.4-0.17-0.63-0.2c-0.13-0.07-0.27-0.1-0.43-0.1c-0.27-0.1-0.53-0.13-0.83-0.13c-0.1-0.03-0.23-0.03-0.33-0.03
		c-0.17,0-0.33-0.03-0.5,0h-0.27c-0.13,0-0.27,0-0.4,0.03c-0.47,0.03-0.97,0.13-1.47,0.27c-0.73,0.2-1.43,0.47-2.17,0.8
		c-0.7,0.33-1.43,0.73-2.1,1.17c-0.53,0.33-1.03,0.7-1.53,1.07c-0.1,0.07-0.17,0.13-0.27,0.2c0,0.03,0.03,0.1,0.03,0.13
		c-0.77,0.57-1.53,1.17-2.2,1.77c-0.23,0.2-0.47,0.43-0.7,0.63c-0.3,0.27-0.57,0.53-0.8,0.8c0,0,0,0-0.03,0
		c-1.7,1.8-3.97,2.7-6.23,2.7c-2.17,0-4.3-0.8-5.97-2.43c-1.8-1.73-2.7-4.03-2.7-6.33c0-0.4,0.03-0.83,0.1-1.23v-0.17
		c0.07-0.43,0.17-0.87,0.33-1.27c0.1-0.37,0.23-0.77,0.43-1.13c0-0.03,0.03-0.07,0.03-0.1c0.17-0.37,0.37-0.7,0.6-1.03
		c0.23-0.37,0.53-0.7,0.83-1.03c0.07-0.07,0.17-0.17,0.3-0.3c0.57-0.6,1.2-1.17,1.8-1.77c0.03,0,0.07-0.03,0.1-0.07
		c1.47-1.33,3-2.6,4.63-3.7c1.83-1.27,3.77-2.37,5.83-3.2c0.7-0.27,1.4-0.53,2.1-0.73c0.47-0.13,0.93-0.27,1.4-0.37
		c0.3-0.1,0.6-0.17,0.9-0.2c0.27-0.1,0.53-0.13,0.8-0.17c0.1-0.03,0.23-0.07,0.33-0.07c1.53-0.23,3.07-0.3,4.53-0.13
		c0.43,0.03,0.87,0.1,1.3,0.13c0.43,0.07,0.87,0.13,1.3,0.23c0.43,0.1,0.83,0.2,1.27,0.33c1.77,0.53,3.53,1.3,5.37,2.3
		c1.5,0.83,2.9,1.9,4.23,3C101.45,39.84,106.89,50.91,101.05,55.35z"/>
	<path style="fill:#FFFFFF;" d="M97.22,36.31c-1.33-1.1-2.73-2.17-4.23-3c-1.83-1-3.6-1.77-5.37-2.3c-0.43-0.13-0.83-0.23-1.27-0.33
		c-0.43-0.1-0.87-0.17-1.3-0.23c-0.43-0.03-0.87-0.1-1.3-0.13c-1.47-0.17-3-0.1-4.53,0.13c-0.1,0-0.23,0.03-0.33,0.07
		c-0.27,0.03-0.53,0.07-0.8,0.17c-0.3,0.03-0.6,0.1-0.9,0.2c-0.47,0.1-0.93,0.23-1.4,0.37c-0.7,0.2-1.4,0.47-2.1,0.73
		c-2.07,0.83-4,1.93-5.83,3.2c1.43,0.2,2.03,0.8,2.03,0.8c0.9,0.83,1.37,2.13,1.03,3.43c-0.2,0.83-0.73,1.47-1.37,1.93
		c0.73-0.37,1.6-0.53,2.47-0.3c1.83,0.5,2.97,2.4,2.47,4.27c-0.23,0.93-0.83,1.67-1.57,2.1c0.6-0.2,1.27-0.3,1.97-0.13
		c1.23,0.33,2.07,1.3,2.4,2.43c0.1-0.07,0.17-0.13,0.27-0.2c0.5-0.37,1-0.73,1.53-1.07c0.67-0.43,1.4-0.83,2.1-1.17
		c0.73-0.33,1.43-0.63,2.17-0.8c0.5-0.13,1-0.23,1.47-0.27c0.13-0.03,0.27-0.03,0.4-0.03c0.17-0.03,0.3-0.03,0.43-0.03
		c0.1,0,0.23,0,0.33,0.03c0.1,0,0.23,0,0.33,0.03c0.3,0,0.57,0.03,0.83,0.13c0.1,0,0.2,0.03,0.3,0.03c0.03,0.03,0.1,0.03,0.13,0.07
		c0.23,0.03,0.43,0.13,0.63,0.2c0.8,0.33,1.6,0.87,2.37,1.6c0.13,0.13,0.23,0.27,0.37,0.4c0.4,0.47,0.83,1.03,1.3,1.63
		c0.63,0.83,1.3,1.77,2,2.63c0.37,0.43,0.73,0.83,1.13,1.23c0.2,0.2,0.37,0.37,0.57,0.53c0.4,0.33,0.8,0.63,1.2,0.87
		c0.13,0.1,0.3,0.17,0.47,0.23c0.53,0.23,1.1,0.33,1.67,0.3c0.07,0,0.17-0.03,0.23-0.03c0.17,0,0.33-0.07,0.5-0.13
		c0.37-0.1,0.7-0.3,1.03-0.57C106.89,50.91,101.45,39.84,97.22,36.31z"/>
</g>
<g>
	<path style="fill:#FFFFFF;" d="M138.95,31.02c-1.78,0.52-3.55,1.29-5.38,2.3c-1.5,0.83-2.91,1.89-4.23,2.99
		c-4.24,3.52-9.69,14.61-3.86,19.05c4.22,3.21,8.12-4.8,10.48-7.12c5.3-5.2,12.88,0.52,16.99,4.81c3.3,3.47,8.78,3.61,12.23,0.28
		c3.46-3.32,3.62-8.81,0.35-12.3c-4.06-4.34-9.04-8.03-14.78-9.77C146.49,29.96,142.72,29.92,138.95,31.02z"/>
	<path d="M171.73,44.94c-0.43-2.5-1.53-4.8-3.27-6.67c-0.43-0.43-1.27-1.3-2.47-2.37c-0.4-0.37-0.8-0.73-1.2-1.07
		c-4.1-3.57-8.4-6.07-12.87-7.43c-2.63-0.8-5.13-1.17-7.6-1.17c-2.2,0-4.33,0.3-6.5,0.93c-2.03,0.6-4.03,1.47-6.2,2.63
		c-1.5,0.83-3.03,1.93-4.83,3.43c-3.87,3.2-7.97,10.54-7.83,16.74c0.07,3.6,1.5,6.57,4.1,8.57c1.37,1,2.9,1.57,4.47,1.57
		c4.47,0,7.5-4.1,9.74-7.1c0.53-0.73,1.17-1.6,1.5-1.93c0.67-0.63,1.33-0.93,2.13-0.93c1.4,0,3.23,0.8,5.27,2.23
		c0.81,0.6,3.33,2.8,3.9,3.4c2.37,2.53,5.7,3.97,9.17,3.97c3.27,0,6.37-1.27,8.73-3.53C171,53.31,172.4,49.08,171.73,44.94z
		 M165.2,53.31c-1.7,1.63-3.83,2.43-5.97,2.43c-2.3,0-4.57-0.9-6.27-2.7l-0.03-0.03c-0.97-1-3.63-3.23-3.63-3.3
		c-2.57-1.97-5.57-3.57-8.4-3.57c-1.73,0-3.43,0.6-4.93,2.1c-1.97,1.93-5.03,7.87-8.44,7.87c-0.67,0-1.33-0.23-2.03-0.77
		c-5.83-4.43-0.37-15.5,3.87-19.04c1.3-1.1,2.7-2.17,4.2-3c1.83-1,3.6-1.77,5.4-2.3c1.77-0.5,3.53-0.77,5.37-0.77
		c2.07,0,4.17,0.33,6.43,1c2.77,0.87,5.37,2.17,7.77,3.83c1.7,1.1,3.3,2.4,4.8,3.8c1.13,1.07,1.93,1.83,2.2,2.13
		c1.23,1.33,1.97,2.9,2.23,4.57C168.23,48.34,167.37,51.24,165.2,53.31z"/>
	<path style="fill:#673101;" d="M165.2,53.31c-1.7,1.63-3.83,2.43-5.97,2.43c-2.3,0-4.57-0.9-6.27-2.7l-0.03-0.03
		c-0.97-1-3.63-3.23-3.63-3.3c0.3-1.13,1.17-2.1,2.4-2.43c0.67-0.17,1.33-0.07,1.97,0.13c-0.77-0.43-1.37-1.17-1.6-2.1
		c-0.47-1.87,0.63-3.77,2.5-4.27c0.83-0.23,1.7-0.07,2.43,0.3c-0.63-0.47-1.17-1.1-1.37-1.93c-0.5-1.87,0.63-3.77,2.47-4.27
		c0,0,0.13-0.03,0.43-0.07c1.7,1.1,3.3,2.4,4.8,3.8c1.13,1.07,1.93,1.83,2.2,2.13c1.23,1.33,1.97,2.9,2.23,4.57
		C168.23,48.34,167.37,51.24,165.2,53.31z"/>
</g>
<g>
	<path style="fill:#FFFFFF;" d="M135.74,210.51v7.03c0,0-3.03-2.3-6.93-2.3c-3.9,0-6.77,2.3-6.77,2.3v-7.03
		c0-2.6,3.03-4.73,5.63-4.73S135.74,207.91,135.74,210.51z"/>
	<path style="fill-rule:evenodd;clip-rule:evenodd;fill:#009FF9;" d="M154.31,257.25c-3.47,3.97-9.14,3.3-13.8,3.3h-12.54v-0.1
		c-2.67-0.5-5.93-2.47-5.93-4.83v-38.07c0,0,2.87-2.3,6.77-2.3c3.9,0,6.93,2.3,6.93,2.3v17.3c1.3,0,2.73,0.07,4.43,0.4
		c0.07,0.03,0.33,0.1,0.33,0.1c6,1.3,11.2,5.3,14,10.8C156.01,249.08,156.67,254.52,154.31,257.25z"/>
	<path d="M127.67,205.78c2.61,0,8.06,2.11,8.06,4.72v4.77v4.53v15.06c0.1,0,0.19,0,0.29,0c1.23,0,2.58,0.09,4.16,0.4
		c0.06,0.01,0.33,0.08,0.33,0.08c6,1.3,11.21,5.33,13.99,10.8c1.5,2.96,2.16,8.39-0.2,11.11c-2.61,2.99-6.46,3.36-10.19,3.36
		c-1.23,0-2.44-0.04-3.6-0.04h-4.78h-3.2h-3.41h-1.16v-0.12c-2.65-0.49-5.91-2.46-5.91-4.84v-40.32h0v-4.77
		C122.05,207.9,125.06,205.78,127.67,205.78 M127.67,201.78c-4.55,0-9.62,3.58-9.62,8.72v4.77l0,40.32c0,4.27,4.06,7.46,8.2,8.55
		c0.52,0.26,1.1,0.41,1.71,0.41h1.16h3.41h3.2h4.78c0.55,0,1.11,0.01,1.68,0.02c0.63,0.01,1.27,0.02,1.92,0.02
		c4.49,0,9.57-0.56,13.21-4.73c3.77-4.32,2.71-11.7,0.76-15.55c-3.32-6.53-9.57-11.35-16.71-12.89l-0.26-0.06
		c-0.47-0.09-0.92-0.17-1.37-0.24v-11.32v-4.53v-4.77C139.72,204.38,131.1,201.78,127.67,201.78L127.67,201.78z"/>
</g>
<g>
	<path style="fill:#FFFFFF;" d="M104.7,207.44v39.51c0,0-2.93,0.73-6.83,0.73c-3.9,0-6.83-0.73-6.83-0.73v-39.51
		c0-2.6,2.1-4.73,4.7-4.73C98.33,202.71,104.7,204.84,104.7,207.44z"/>
	<path style="fill-rule:evenodd;clip-rule:evenodd;fill:#009FF9;" d="M104.7,246.95v35.81c0,2.37-3.27,4.33-5.9,4.83v0.1H86.23
		c-4.67,0-10.34,0.67-13.8-3.3c-2.37-2.73-1.7-8.17-0.2-11.1c2.8-5.47,8-9.5,14-10.8c0,0,0.27-0.07,0.33-0.1
		c1.7-0.3,3.13-0.4,4.47-0.37v-15.07c0,0,2.93,0.73,6.83,0.73C101.76,247.68,104.7,246.95,104.7,246.95z"/>
	<path d="M95.74,202.72c2.61,0,8.95,2.11,8.95,4.72v34.98h0v40.32c0,2.37-3.26,4.35-5.91,4.84v0.12h-1.16h-3.41h-3.2h-4.78
		c-1.15,0-2.37,0.04-3.6,0.04c-3.74,0-7.58-0.37-10.19-3.36c-2.37-2.71-1.71-8.14-0.2-11.11c2.78-5.47,8-9.5,13.99-10.8
		c0,0,0.28-0.06,0.33-0.08c1.58-0.31,2.93-0.4,4.16-0.4c0.1,0,0.2,0,0.29,0v-15.06v-4.53v-34.98
		C91.01,204.83,93.13,202.72,95.74,202.72 M95.74,198.72c-4.81,0-8.72,3.91-8.72,8.72v34.98v4.53v11.32
		c-0.4,0.06-0.81,0.13-1.22,0.21l-0.47,0.11c-7.09,1.54-13.34,6.36-16.66,12.88c-1.96,3.85-3.02,11.22,0.76,15.55
		c3.64,4.17,8.72,4.73,13.21,4.73c0.64,0,1.29-0.01,1.92-0.02c0.57-0.01,1.13-0.02,1.68-0.02h4.78h3.2h3.41h1.16
		c0.65,0,1.27-0.16,1.81-0.43c4.1-1.12,8.1-4.29,8.1-8.52v-40.32l0-34.98C108.69,200.9,98.48,198.72,95.74,198.72L95.74,198.72z"/>
</g>
<g>
	<path style="fill:#FFFFFF;" d="M73.49,167.03c-4.3,8.5-16.5-10.57-18.97-13.1c-2.33-2.43-4.9-4.57-7.6-6.47
		c1.03-4.83,5.53-9.1,8.87-10.97c7.23,5.67,12.97,13.17,16.47,22.74C73.06,161.36,74.62,164.73,73.49,167.03z"/>
	<path style="fill:#0088C5;" d="M55.82,136.46c0,0,0,0.03-0.03,0.03c-3.33,1.87-7.83,6.13-8.87,10.97v0.03
		c-0.73-0.53-1.47-1.03-2.23-1.5c-1.53-0.8-3.13-1.53-3.73-1.87c-0.1-0.03-0.17-0.07-0.2-0.1c-5.77-3.2-11.37-3.8-17.7-5.07
		c-4.73-0.93-10.2-3.1-7.67-9.44c0.27-0.67,0.67-1.4,1.13-2.1c1-1.5,2.4-2.9,3.83-3.47c0.87-0.3,1.7-0.57,2.57-0.7
		c0.87-0.17,1.73-0.23,2.6-0.23c5.13,0,10.34,2.33,14.67,4.17c3.03,1.3,6,2.77,8.8,4.47c0.2,0.13,0.93,0.57,1.87,1.17
		c0.9,0.6,2,1.3,2.97,1.93l0.03,0.03c0.53,0.4,1.03,0.73,1.4,1c0.27,0.2,0.43,0.4,0.53,0.5C55.82,136.36,55.82,136.43,55.82,136.46z
		"/>
	<path d="M76.32,158.66l-0.3-0.8c-3.43-9.47-9.17-17.5-17.04-23.94c-1.3-1.67-4-3.3-7.9-5.67c-2.93-1.77-6.07-3.37-9.34-4.73
		l-0.67-0.3c-4.4-1.87-9.9-4.2-15.57-4.2c-2.33,0-4.57,0.4-6.6,1.2c-2.83,1.07-4.8,3.6-5.73,5c-0.6,0.9-1.13,1.87-1.5,2.8
		c-1.63,4.03-0.83,6.93,0.1,8.7c1.67,3.07,5.1,5.1,10.5,6.17c1.07,0.2,2.13,0.4,3.17,0.6c4.9,0.9,9.14,1.7,13.37,4.03
		c0.13,0.1,0.57,0.3,1.17,0.6c0.73,0.33,1.73,0.83,2.7,1.33c3.4,2.17,6.4,4.6,8.97,7.27c0.27,0.27,1.1,1.37,1.83,2.33
		c5.7,7.43,11.3,14.14,17,14.14c1.63,0,4.67-0.57,6.57-4.37C78.86,165.27,77.32,161.3,76.32,158.66z M73.49,167.03
		c-0.77,1.53-1.8,2.17-3,2.17c-5.37,0-13.94-13.17-15.97-15.27c-2.33-2.4-4.87-4.57-7.6-6.43c-0.73-0.53-1.47-1.03-2.23-1.5
		c-1.53-0.8-3.13-1.53-3.73-1.87c-0.1-0.03-0.17-0.07-0.2-0.1c-5.77-3.2-11.37-3.8-17.7-5.07c-4.73-0.93-10.2-3.1-7.67-9.44
		c0.27-0.67,0.67-1.4,1.13-2.1c1-1.5,2.4-2.9,3.83-3.47c0.87-0.33,1.7-0.57,2.57-0.7c0.87-0.17,1.73-0.23,2.6-0.23
		c5.13,0,10.34,2.33,14.67,4.17c3.03,1.3,6,2.77,8.8,4.47c0.2,0.13,0.93,0.57,1.87,1.17c0.93,0.57,2.03,1.27,2.97,1.93l0.03,0.03
		c0.57,0.37,1.03,0.7,1.4,1c0.27,0.2,0.43,0.4,0.53,0.5c0.07,0.07,0.07,0.13,0.03,0.17c0,0,0,0.03-0.03,0.03
		c7.2,5.7,13,13.17,16.47,22.74C73.06,161.36,74.62,164.73,73.49,167.03z"/>
</g>
<g>
	<path style="fill:#FFFFFF;" d="M188.58,158.93c-1.63,3.47-5.57,8.2-10.34,9.6c-2.07-2.57-4.4-4.97-6.97-7.13
		c-2.7-2.27-22.57-13.1-14.4-17.97c2.2-1.33,5.7,0.03,7.87,0.67C174.54,146.93,182.41,152.13,188.58,158.93z"/>
	<path style="fill:#0088C5;" d="M203.58,193.4c-0.47,1.5-1.77,2.97-3.2,4.07c-0.67,0.53-1.37,0.97-2.03,1.27
		c-1.23,0.6-2.33,0.87-3.3,0.87c-2.37,0-3.97-1.6-5.1-3.73c-0.23-0.4-0.43-0.83-0.6-1.3c-0.37-0.9-0.67-1.87-0.93-2.8
		c-1.7-6.23-2.7-11.77-6.3-17.3c-0.03-0.03-0.07-0.1-0.13-0.2c-0.33-0.57-1.2-2.1-2.1-3.6c-0.53-0.73-1.1-1.43-1.67-2.13h0.03
		c4.77-1.4,8.7-6.13,10.34-9.6c0,0,0-0.03,0.03-0.03c0,0,0,0,0.03,0c0.03,0,0.07,0,0.13,0.03c0.07,0.07,0.17,0.13,0.27,0.23
		c0.5,0.5,1.37,1.6,2.27,2.73l0.03,0.03c0.57,0.77,1.13,1.57,1.6,2.17c0.47,0.63,0.8,1.1,0.9,1.27c1.9,2.7,3.6,5.53,5.1,8.47
		C201.82,179.5,205.65,186.6,203.58,193.4z"/>
	<path d="M202.82,172.67l-0.3-0.63c-1.63-3.2-3.43-6.2-5.4-8.97c-3.2-4.57-4.83-6.63-6.23-7.53c-6.97-7.37-15.37-12.5-25.04-15.3
		l-0.83-0.23c-1.53-0.47-3.67-1.13-5.83-1.13c-1.63,0-3.1,0.37-4.33,1.13c-3.33,1.97-3.9,4.7-3.93,6.17
		c-0.13,5.97,7.17,11.27,15.34,16.64c1,0.67,2.13,1.43,2.47,1.67c2.8,2.37,5.47,5.23,7.83,8.44c0.6,0.97,1.13,1.93,1.53,2.6
		c0.33,0.57,0.57,1,0.67,1.13c2.63,4.07,3.73,8.23,4.97,13.07c0.27,1,0.53,2.07,0.83,3.1c2.43,8.94,7.07,10.8,10.5,10.8
		c1.63,0,3.33-0.43,5.07-1.27c0.9-0.43,1.83-1.03,2.7-1.7c1.33-1,3.7-3.17,4.57-6.07C209.88,186.47,205.82,178.5,202.82,172.67z
		 M203.58,193.4c-0.47,1.5-1.77,2.97-3.2,4.07c-0.67,0.53-1.37,0.97-2.03,1.27c-1.23,0.6-2.33,0.87-3.3,0.87
		c-2.37,0-3.97-1.6-5.1-3.73c-0.23-0.43-0.43-0.87-0.6-1.3c-0.37-0.9-0.67-1.87-0.93-2.8c-1.7-6.23-2.7-11.77-6.3-17.3
		c-0.03-0.03-0.07-0.1-0.13-0.2c-0.33-0.57-1.2-2.1-2.1-3.6c-0.53-0.73-1.1-1.43-1.67-2.13c-2.07-2.57-4.37-4.97-6.93-7.13
		c-2.7-2.27-22.57-13.1-14.4-17.97c0.67-0.4,1.47-0.57,2.3-0.57c1.9,0,4.03,0.8,5.57,1.23c9.8,2.8,17.64,8.03,23.84,14.84
		c0,0,0-0.03,0.03-0.03c0,0,0,0,0.03,0c0.03-0.03,0.1,0,0.13,0.03c0.07,0.07,0.17,0.13,0.27,0.23c0.53,0.47,1.4,1.57,2.27,2.73
		l0.03,0.03c0.57,0.77,1.17,1.53,1.6,2.17c0.47,0.63,0.8,1.1,0.9,1.27c1.9,2.7,3.6,5.53,5.1,8.47
		C201.82,179.5,205.65,186.6,203.58,193.4z"/>
</g>
<g>
	<path style="fill-rule:evenodd;clip-rule:evenodd;fill:#009FF9;" d="M169.81,177.2c0.53,9.97-1.93,24.6-8.57,33.17
		c-7.83,10.1-22.14,16.7-39.21,18.1c-2.03,0.17-4.27,0.27-6.4,0.27h-4.53c-2.13,0-4.37-0.1-6.4-0.27c-17.07-1.4-31.37-8-39.21-18.1
		c-6.63-8.57-9.1-23.2-8.57-33.17c0.3-5.57,1.53-11.2,2.7-16.67c0.63-2.8,1.23-5.57,1.73-8.37c0.53-3.13,0.2-8.94,0.17-9.23
		c-0.4-4.33-1.7-8.4-2.9-11.8c-4.8-13.4-5.6-25.94-2.57-39.44c2.77-12.2,8.57-22.54,15.87-28.41c12.24-9.74,26.4-15.34,38.94-15.34
		h5c12.54,0,26.7,5.6,38.94,15.34c7.3,5.87,13.1,16.2,15.87,28.41c3.03,13.5,2.23,26.04-2.57,39.44c-1.2,3.4-2.5,7.47-2.9,11.87
		c-0.03,0.23-0.37,6.03,0.2,9.17c0.47,2.8,1.1,5.6,1.7,8.37C168.31,166,169.51,171.63,169.81,177.2z"/>
	<path d="M171.01,159.7c-0.6-2.73-1.2-5.5-1.67-8.23c-0.4-2.2-0.23-6.67-0.17-8.17c0.37-3.9,1.57-7.67,2.7-10.8
		c5-13.97,5.87-27.61,2.7-41.67c-2.97-13.07-9.27-24.24-17.27-30.64c-12.97-10.34-28.24-16.27-41.54-16.24h-4.9
		c-13.44,0-28.51,5.93-41.41,16.24c-8.03,6.4-14.34,17.57-17.3,30.64c-3.17,14.07-2.3,27.71,2.7,41.67c1.13,3.13,2.33,6.9,2.7,10.74
		c0.07,1.57,0.23,6.03-0.17,8.24c-0.47,2.73-1.07,5.47-1.67,8.23c-1.23,5.6-2.5,11.4-2.8,17.3c-0.57,11.04,2.1,26.4,9.4,35.81
		c8.53,11,23.87,18.17,42.04,19.67c2.17,0.17,4.5,0.27,6.73,0.27h4.53c2.27,0,4.57-0.1,6.73-0.27c18.17-1.5,33.51-8.67,42.04-19.67
		c7.3-9.4,9.97-24.77,9.4-35.81C173.51,171.1,172.24,165.3,171.01,159.7z M115.63,228.74h-4.53c-2.13,0-4.37-0.1-6.4-0.27
		c-17.07-1.4-31.37-8-39.21-18.1c-6.63-8.57-9.1-23.2-8.57-33.17c0.3-5.57,1.53-11.2,2.7-16.67c0.63-2.8,1.23-5.57,1.73-8.37
		c0.53-3.13,0.2-8.94,0.17-9.23c-0.4-4.33-1.7-8.4-2.9-11.8c-4.8-13.4-5.6-25.94-2.57-39.44c2.77-12.2,8.57-22.54,15.87-28.41
		c12.24-9.74,26.4-15.34,38.94-15.34h5c12.54,0,26.7,5.6,38.94,15.34c7.3,5.87,13.1,16.2,15.87,28.41
		c3.03,13.5,2.23,26.04-2.57,39.44c-1.2,3.4-2.5,7.47-2.9,11.87c-0.03,0.23-0.37,6.03,0.2,9.17c0.47,2.8,1.1,5.6,1.7,8.37
		c1.2,5.47,2.4,11.1,2.7,16.67c0.53,9.97-1.93,24.6-8.57,33.17c-7.83,10.1-22.14,16.7-39.21,18.1
		C120,228.64,117.77,228.74,115.63,228.74z"/>
</g>
</svg>
