<?xml version="1.0" encoding="utf-8"?>
<!-- Generator: Adobe Illustrator 26.5.0, SVG Export Plug-In . SVG Version: 6.00 Build 0)  -->
<svg version="1.1" id="레이어_5" xmlns="http://www.w3.org/2000/svg" xmlns:xlink="http://www.w3.org/1999/xlink" x="0px"
	 y="0px" viewBox="0 0 130 260" style="enable-background:new 0 0 130 260;" xml:space="preserve">
<g>
	<path d="M60.3,167.6c2.6,0,8.8,2.1,8.8,4.6v34.5h0v39.3c0,2.7-4.3,4.9-7,4.9h-3.4H43.3c-1.1,0-2.3,0-3.5,0c-3.7,0-7.5-0.4-10-3.3
		c-2.3-2.7-1.7-8-0.2-10.9c2.7-5.4,7.9-9.3,13.7-10.6c0,0,0.3-0.1,0.3-0.1c1.6-0.3,3-0.4,4.2-0.4c5.6,0,7.8,2.6,7.8,2.6v-21.5v-34.5
		C55.6,169.7,57.7,167.6,60.3,167.6 M60.3,163.7c-4.7,0-8.5,3.8-8.5,8.5v34.5v15.5c-1.1-0.2-2.4-0.4-3.9-0.4c-1.6,0-3.2,0.2-5,0.5
		c0,0-0.1,0-0.1,0c-0.1,0-0.3,0.1-0.3,0.1c-7,1.5-13.1,6.2-16.3,12.6c-1,2-1.7,4.7-1.7,7.2c-0.1,3.3,0.8,6,2.5,8
		c3.6,4.1,8.5,4.6,12.9,4.6c0.6,0,1.3,0,1.9,0c0.6,0,1.1,0,1.6,0h15.5h3.4c4.4,0,10.8-3.4,10.8-8.7v-39.3c0,0,0-0.1,0-0.1v-34.4
		C72.9,165.9,63,163.7,60.3,163.7L60.3,163.7z"/>
	<g>
		<path style="fill:#FFFFFF;" d="M60.3,167.6c2.6,0,8.8,2.1,8.8,4.6V211H55.6v-38.7C55.6,169.7,57.7,167.6,60.3,167.6"/>
		<path style="fill-rule:evenodd;clip-rule:evenodd;fill:#0486C3;" d="M43.3,226.2c0,0,0.3-0.1,0.3-0.1c8.8-1.7,12,2.2,12,2.2v-21.5
			h13.4v39.3c0,2.7-4.3,4.9-7,4.9h-3.4H43.3c-4.6,0-10.1,0.6-13.5-3.3c-2.3-2.7-1.7-8-0.2-10.9C32.3,231.4,37.4,227.5,43.3,226.2"/>
	</g>
</g>
<g>
	<g>
		<path style="fill:#FFFFFF;" d="M84.7,172.8c2.6,0,8.8,2.1,8.8,4.6v38.7H80.1v-38.7C80.1,174.8,82.1,172.8,84.7,172.8"/>
		<path style="fill-rule:evenodd;clip-rule:evenodd;fill:#029DF7;" d="M67.7,231.4c0,0,0.3-0.1,0.3-0.1c8.8-1.7,12,2.2,12,2.2v-21.5
			h13.4v39.3c0,2.7-4.3,4.9-7,4.9h-3.4H67.7c-4.6,0-10.1,0.6-13.5-3.3c-2.3-2.7-1.7-8-0.2-10.9C56.7,236.6,61.8,232.7,67.7,231.4"/>
	</g>
	<path d="M84.7,172.8c2.6,0,8.8,2.1,8.8,4.6v34.5h0v39.3c0,2.7-4.3,4.9-7,4.9h-3.4H67.7c-1.1,0-2.3,0-3.5,0c-3.7,0-7.5-0.4-10-3.3
		c-2.3-2.7-1.7-8-0.2-10.9c2.7-5.4,7.9-9.3,13.7-10.6c0,0,0.3-0.1,0.3-0.1c1.6-0.3,3-0.4,4.2-0.4c5.6,0,7.8,2.6,7.8,2.6v-21.5v-34.5
		C80.1,174.8,82.1,172.8,84.7,172.8 M84.7,168.9c-4.7,0-8.5,3.8-8.5,8.5v34.5v15.5c-1.1-0.2-2.4-0.4-3.9-0.4c-1.6,0-3.2,0.2-5,0.5
		c0,0-0.1,0-0.1,0l-0.3,0.1c-7,1.5-13.1,6.2-16.3,12.6c-1,2-1.7,4.7-1.7,7.2c-0.1,3.3,0.8,6,2.5,8c3.6,4.1,8.5,4.6,12.9,4.6
		c0.6,0,1.3,0,1.9,0c0.6,0,1.1,0,1.6,0h15.5h3.4c4.4,0,10.8-3.4,10.8-8.7v-39.3c0,0,0-0.1,0-0.1v-34.4
		C97.4,171,87.4,168.9,84.7,168.9L84.7,168.9z"/>
</g>
<g>
	<g>
		<g>
			<path style="fill:#FFFFFF;" d="M24.3,142.2C25,135.1,24,128.3,23,121c-0.4-3.2-2.2-14.9,4.6-13.1c2.5,0.7,4,4.2,5,6.2
				c2.4,4.4,4,9.2,5,14c1.1,5.4,1.3,10.9,0.9,16.3C34.9,143.2,29.9,142.1,24.3,142.2z"/>
		</g>
		<g>
			<path style="fill:#0486C3;" d="M15.5,165.3c0.1-0.1,0.1-0.1,0.2-0.2c1.4-1.9,2.5-3.8,3.5-5.7c1.4-2.7,2.6-5.4,3.4-8.4
				c0.4-1.5,0.8-3,1.1-4.6c0.3-1.4,0.5-2.9,0.6-4.3c5.5-0.1,10.5,1,14.2,2.3c-0.2,2.6-0.6,5.2-1.1,7.8c-1.5,7.4-3.7,15.7-8.2,21.9
				c-2.2,3-6,4.9-10,4.4c-0.8-0.1-1.6-0.3-2.3-0.6c-2.5-0.9-4.7-2.8-5-5.4c-0.1-0.5,0-1,0.1-1.5C12.4,168.9,14.2,167.1,15.5,165.3z"
				/>
		</g>
	</g>
	<path d="M26.3,107.7c0.4,0,0.8,0.1,1.3,0.2c2.5,0.7,4,4.2,5,6.2c2.4,4.4,4,9.2,5,14c1.1,5.4,1.3,10.9,0.9,16.3
		c-0.2,2.6-0.6,5.2-1.1,7.8c-1.5,7.4-3.7,15.7-8.2,21.9c-1.9,2.7-5.1,4.5-8.6,4.5c-0.5,0-0.9,0-1.4-0.1c-0.8-0.1-1.6-0.3-2.3-0.6
		c-2.5-0.9-4.7-2.8-5-5.4c-0.1-0.5,0-1,0.1-1.5c0.4-2.2,2.2-4,3.5-5.8c0.1-0.1,0.1-0.1,0.2-0.2c1.4-1.9,2.5-3.8,3.5-5.7
		c1.4-2.7,2.6-5.4,3.4-8.4c0.4-1.5,0.8-3,1.1-4.6c0.3-1.4,0.5-2.9,0.6-4.3C25,135.1,24,128.3,23,121C22.6,118,21,107.7,26.3,107.7
		 M26.3,103.9C26.3,103.9,26.3,103.9,26.3,103.9c-2.1,0-3.9,0.8-5.3,2.4c-3,3.4-2.6,9.5-1.9,15l0,0.3l0.2,1.2
		c0.9,6.6,1.7,12.8,1.1,19.1c-0.1,1.5-0.3,2.7-0.5,3.9c-0.3,1.5-0.6,2.9-1,4.3c-0.8,2.7-1.8,5.2-3.1,7.6c-1,1.8-2,3.5-3.3,5.2
		l-0.1,0.2l0,0.1c-0.3,0.4-0.6,0.8-0.9,1.2c-1.2,1.6-2.8,3.6-3.3,6.2C8,171.3,8,172.2,8.1,173c0.4,3.8,3.3,7.1,7.5,8.6
		c0.9,0.3,2,0.6,3.1,0.7c0.6,0.1,1.3,0.1,1.9,0.1c4.6,0,9-2.3,11.7-6.1c5.1-7,7.4-16.2,8.8-23.4c0.5-2.7,0.9-5.5,1.2-8.3
		c0.5-6,0.2-11.9-0.9-17.4c-1.1-5.3-2.9-10.3-5.4-15c-0.1-0.2-0.3-0.5-0.4-0.8c-1.3-2.5-3.2-6.3-7.1-7.3
		C27.8,104,27,103.9,26.3,103.9L26.3,103.9z"/>
</g>
<g>
	<g>
		<path style="fill:#FFFFFF;" d="M56.6,4.8c2.5,0.9,4.7,2.4,6.2,4.5c2.5,3.7,4,10.4,2,14.5c-0.7,1.4-2.4,0.4-4.4,0.1
			c-2.4-0.4-1.7-2.6-3.4-4.6c-2.5-3-5.1,0.1-9.4,3.2c-3.5,2.5-8.5,1.9-11.2-1.4c-2.7-3.3-2.1-7.9,1.4-10.5C44.4,5.7,48.8,2,56.6,4.8
			z"/>
		<path d="M51.5,3.8c1.5,0,3.2,0.3,5.1,1c2.5,0.9,4.7,2.4,6.2,4.5c2.5,3.7,4,10.4,2,14.5c-0.3,0.6-0.7,0.8-1.2,0.8
			c-0.8,0-2-0.5-3.2-0.7c-2.4-0.4-1.7-2.6-3.4-4.6c-0.7-0.9-1.4-1.2-2.2-1.2c-1.9,0-4.1,2.2-7.2,4.4c-1.4,1-3.1,1.5-4.8,1.5
			c-2.4,0-4.8-1-6.4-2.9c-2.7-3.3-2.1-7.9,1.4-10.5C42.8,6.9,46.6,3.8,51.5,3.8 M51.5,0L51.5,0c-5.9,0-10.2,3.1-15.1,6.8l-1,0.7
			c-2.5,1.9-4.2,4.6-4.5,7.6c-0.4,3,0.5,6,2.5,8.4c2.3,2.8,5.7,4.3,9.3,4.3c2.6,0,5-0.8,7.1-2.3c0.8-0.6,1.6-1.2,2.2-1.7
			c0.7-0.5,1.6-1.2,2.3-1.6c0.1,0.2,0.2,0.4,0.3,0.8c0.5,1.3,1.5,4.1,5.1,4.7c0.3,0.1,0.7,0.2,1.1,0.3c0.8,0.2,1.7,0.5,2.7,0.5
			c2.1,0,3.8-1.1,4.7-3c2.6-5.5,0.9-13.7-2.3-18.3c-1.9-2.7-4.6-4.7-8.1-6C55.7,0.4,53.6,0,51.5,0L51.5,0z"/>
	</g>
	<path style="fill:#693001;" d="M49.5,17.7c-0.6-0.2-1.2-0.3-1.8-0.2c0.7-0.3,1.4-0.8,1.7-1.6c0.7-1.5-0.1-3.3-1.7-3.9
		c-0.8-0.3-1.6-0.3-2.3-0.1c0.7-0.3,1.2-0.8,1.5-1.5c0.7-1.5-0.6-3.3-2.2-3.9c-0.1-0.1-0.8-0.1-1-0.1c-3.8,1.7-5.5,3.6-6.1,4.1
		c-3.5,2.5-4.1,7.2-1.4,10.5c2.7,3.3,7.7,3.9,11.2,1.4c1-0.7,3-2.2,3.6-2.6C52.1,19.1,50.6,18.2,49.5,17.7"/>
</g>
<g>
	<g>
		<path style="fill:#FFFFFF;" d="M101.8,8.8c-3.1,0.4-6,1.5-8.2,3.7c-3.9,3.7-6.8,8.3-5.8,13.8c0.4,1.9,3.5,3.6,5.9,3.8
			c2.8,0.2,2.6-1.9,5.2-3.9c3.6-2.9,5.7,1.5,9.7,6.4c3.2,4,9,4.6,13,1.4c4-3.2,4.6-9,1.5-13C116.8,13.4,111.4,7.6,101.8,8.8z"/>
		<path d="M104.3,8.6c8.1,0,13.1,5.4,18.6,12.5c3.2,4,2.5,9.8-1.5,13c-1.7,1.4-3.7,2-5.8,2c-2.7,0-5.4-1.2-7.2-3.5
			c-3.1-3.8-5-7.3-7.4-7.3c-0.7,0-1.4,0.3-2.2,0.9c-2.4,1.9-2.4,3.9-4.8,3.9c-0.1,0-0.2,0-0.3,0c-2.4-0.1-5.5-1.9-5.9-3.8
			c-1-5.5,1.9-10.1,5.8-13.8c2.3-2.2,5.1-3.3,8.2-3.7C102.7,8.7,103.5,8.6,104.3,8.6 M104.3,4.8c-0.9,0-1.9,0.1-2.9,0.2
			c-4.2,0.5-7.7,2.1-10.4,4.8c-5.7,5.5-8,11.3-6.9,17.3c0.8,4.4,6.1,6.7,9.4,6.9c0.2,0,0.4,0,0.6,0c3.4,0,5-2,5.9-3.3
			c0.4-0.5,0.7-0.9,1.1-1.3c0.7,0.7,1.7,2,2.4,3c0.6,0.8,1.3,1.7,2,2.6c2.5,3.1,6.2,4.9,10.2,4.9c3,0,5.9-1,8.2-2.9
			c5.6-4.5,6.5-12.8,2.1-18.4C120.2,11.4,114.1,4.8,104.3,4.8L104.3,4.8z"/>
	</g>
	<path style="fill:#693001;" d="M107.6,26.5c0.7-0.1,1.4,0,2.1,0.3c-0.8-0.5-1.3-1.4-1.5-2.4c-0.3-2,1-3.9,3-4.3
		c0.9-0.2,1.8,0.1,2.6,0.6c-0.6-0.5-1.1-1.3-1.3-2.2c-0.3-2,1.6-3.8,3.6-4.1c0.2,0,1,0.1,1.2,0.1c3.8,3.2,5.1,5.9,5.6,6.6
		c3.2,4,2.5,9.8-1.5,13c-4,3.2-9.8,2.6-13-1.4c-0.9-1.2-2.8-3.5-3.3-4.2C104.3,27.5,106.3,26.7,107.6,26.5"/>
</g>
<g>
	
		<path style="fill-rule:evenodd;clip-rule:evenodd;fill:#FFFFFF;stroke:#231816;stroke-width:3.6902;stroke-linecap:round;stroke-linejoin:round;stroke-miterlimit:10;" d="
		M72.3,118.3"/>
</g>
<g>
	<path style="fill:#029DF7;" d="M118.3,111.4c-0.1,0.6-0.2,1.3-0.2,1.9c-0.2,3,0.9,6,1.5,8.9c1.5,7.6,3.9,15.2,4.4,23
		c0.7,10-1.6,23.4-7.7,31.5c-8.4,11.2-23.3,16.4-36.8,17.7c-2,0.2-4,0.3-6,0.3l-4,0.1c-0.1,0-0.2,0-0.2,0c-2,0-3.9,0-5.9-0.2
		c-16.4-1.1-32.9-6.8-40-22.8c-5.2-11.7-4.9-24.6-3-37c1-6.7,4.5-15,3-21.8"/>
	<path d="M68.8,21.9c1.2,0,2.3,0,3.5,0.1l4.2,0.3c0.1,0,0.2,0,0.2,0c13.1,1,26.1,8.3,35.7,17.3c7.5,7,11.6,18.2,13,28.2
		c1.4,9.5,0.6,18.9-2.1,27.9c-0.9,3.9-4.6,14.3-5.1,15.6c-0.1,0.6-0.2,1.3-0.2,1.9c-0.2,3,0.9,6,1.5,8.9c1.5,7.6,3.9,15.2,4.4,23
		c0.7,10-1.6,23.4-7.7,31.5c-8.4,11.2-23.3,16.4-36.8,17.7c-2,0.2-4,0.3-6,0.3l-4,0.1c-0.1,0-0.2,0-0.2,0c-0.4,0-0.7,0-1.1,0
		c-1.6,0-3.2-0.1-4.9-0.2c-16.4-1.1-32.9-6.8-40-22.8c-5.2-11.7-4.9-24.6-3-37c1-6.7,4.5-15,3-21.8c-0.1-0.6-5.2-12.9-5.9-15.5
		C14.1,86,12.1,75.8,15.5,64c0.3-1,0.6-2,0.9-3c0.2-0.6,0.3-1.2,0.5-1.7c3-9.7,8.8-20,17.3-25.8C44.2,26.8,56.7,21.9,68.8,21.9
		 M68.8,18.1v3.8V18.1C68.8,18.1,68.8,18.1,68.8,18.1c-11.9,0-25,4.4-36.7,12.3C23.9,35.9,17,46,13.2,58.2c-0.1,0.4-0.2,0.8-0.3,1.2
		c0,0.2-0.1,0.4-0.1,0.5c-0.4,1.1-0.7,2.1-1,3C8,76.1,10.5,87.3,13.7,98.7c0.4,1.5,1.9,5.3,3.9,10.5c0.8,2,1.7,4.3,1.9,4.9
		c0.8,3.7-0.4,8.5-1.6,13.1c-0.6,2.4-1.2,4.8-1.5,7.1c-1.6,11.1-2.7,25.5,3.3,39.1c6.6,15,21.6,23.6,43.3,25.1
		c1.7,0.1,3.4,0.2,5.1,0.2c0.4,0,0.7,0,1.1,0c0.1,0,0.1,0,0.2,0l4-0.1c2.1,0,4.3-0.1,6.3-0.3c17.1-1.6,31.5-8.7,39.5-19.2
		c6.8-9.1,9.2-23.6,8.5-34c-0.4-5.5-1.6-10.9-2.8-16c-0.6-2.4-1.2-4.9-1.6-7.4c-0.2-1-0.4-1.9-0.6-2.8c-0.5-1.9-0.9-3.6-0.8-5.1
		c0-0.4,0.1-0.8,0.2-1.3c1.9-5.3,4.3-12.3,5-15.6c2.9-9.6,3.6-19.5,2.2-29.5c-1.8-12.6-7-23.7-14.2-30.4
		c-11.4-10.7-25.3-17.4-38-18.4l-0.2,0c0,0,0,0-0.1,0l-4.2-0.3C71.3,18.1,70.1,18.1,68.8,18.1L68.8,18.1z"/>
	<path style="fill:#029DF7;" d="M23.3,113.1c-0.1-0.6-5.2-12.9-5.9-15.5C14.1,86,12.1,75.8,15.5,64c0.3-1,0.6-2,0.9-3
		c0.2-0.6,0.3-1.2,0.5-1.7c3-9.7,8.8-20,17.3-25.8c10.9-7.4,24.9-12.6,38-11.5l4.2,0.3c0.1,0,0.2,0,0.2,0c13.1,1,26.1,8.3,35.7,17.3
		c7.5,7,11.6,18.2,13,28.2c1.4,9.5,0.6,18.9-2.1,27.9c-0.9,3.9-4.6,14.3-5.1,15.6"/>
</g>
<path style="fill:#019DF6;" d="M72.3,22.1c0,0,0.1,0,0.2,0L72.3,22.1z"/>
<path style="fill-rule:evenodd;clip-rule:evenodd;fill:#FDBBB6;" d="M5.3,75.1c0.6-2.7,3.4-11.7,7.9-8.7c6,4.1,3.7,15.2,1,20.8
	c-1.1,2.2-3,4.8-6,4.4c-1.6-0.2-2.4-3.3-2.6-4.4C4.7,83.3,4.5,79.1,5.3,75.1z"/>
<g>
	<g>
		<g>
			<path style="fill:#FFFFFF;" d="M105.3,152.3c0.3-7.1-1-13.8-2.3-21.1c-0.6-3.2-2.9-14.8,4-13.3c2.5,0.5,4.1,4,5.3,6
				c2.6,4.3,4.4,9,5.6,13.7c1.3,5.4,1.8,10.8,1.6,16.3C115.8,152.8,110.8,151.9,105.3,152.3z"/>
		</g>
		<g>
			<path style="fill:#0486C3;" d="M97.5,175.8c0-0.1,0.1-0.2,0.1-0.2c1.3-2,2.4-3.9,3.3-5.8c1.3-2.8,2.3-5.5,3-8.5
				c0.4-1.5,0.7-3,0.9-4.6c0.2-1.4,0.3-2.9,0.4-4.3c5.5-0.3,10.6,0.5,14.2,1.6c-0.1,2.6-0.3,5.3-0.7,7.9c-1.1,7.4-3,15.8-7.2,22.3
				c-2,3.1-5.8,5.2-9.8,4.8c-0.8-0.1-1.6-0.2-2.3-0.4c-2.6-0.8-4.8-2.6-5.2-5.2c-0.1-0.5-0.1-1,0-1.5
				C94.6,179.6,96.3,177.7,97.5,175.8z"/>
		</g>
	</g>
	<path d="M105.8,117.8c0.3,0,0.7,0,1.1,0.1c2.5,0.5,4.1,4,5.3,6c2.6,4.3,4.4,9,5.6,13.7c1.3,5.4,1.8,10.8,1.6,16.3
		c-0.1,2.6-0.3,5.3-0.7,7.9c-1.1,7.4-3,15.8-7.2,22.3c-1.9,2.9-5.2,4.9-8.9,4.9c-0.3,0-0.6,0-0.9,0c-0.8-0.1-1.6-0.2-2.3-0.4
		c-2.6-0.8-4.8-2.6-5.2-5.2c-0.1-0.5-0.1-1,0-1.5c0.3-2.2,2-4.1,3.2-6c0-0.1,0.1-0.2,0.1-0.2c1.3-2,2.4-3.9,3.3-5.8
		c1.3-2.8,2.3-5.5,3-8.5c0.4-1.5,0.7-3,0.9-4.6c0.2-1.4,0.3-2.9,0.4-4.3c0.3-7.1-1-13.8-2.3-21.1
		C102.4,128.2,100.3,117.8,105.8,117.8 M105.8,113.9C105.8,113.9,105.8,113.9,105.8,113.9c-2.2,0-4.1,0.9-5.4,2.5
		c-3,3.6-2.3,9.7-1.3,15.2l0.1,0.3l0.2,1.2c1.2,6.5,2.3,12.7,2,19c-0.1,1.5-0.2,2.8-0.4,3.9c-0.2,1.5-0.5,2.9-0.8,4.3
		c-0.7,2.7-1.6,5.3-2.8,7.8c-0.9,1.8-1.9,3.6-3,5.4l-0.1,0.2c0,0,0,0,0,0c-0.2,0.4-0.5,0.8-0.8,1.2c-1.2,1.7-2.6,3.7-3,6.3
		c-0.1,0.9-0.1,1.8,0,2.6c0.6,3.8,3.6,6.9,7.9,8.3c1,0.3,2,0.5,3.1,0.6c0.4,0,0.8,0.1,1.2,0.1c4.8,0,9.4-2.5,12.1-6.6
		c4.7-7.3,6.6-16.5,7.7-23.8c0.4-2.7,0.7-5.5,0.8-8.3c0.2-6-0.4-11.9-1.7-17.3c-1.3-5.2-3.3-10.2-6.1-14.8c-0.1-0.2-0.3-0.5-0.4-0.8
		c-1.4-2.5-3.5-6.2-7.4-7C107.1,114,106.4,113.9,105.8,113.9L105.8,113.9z"/>
</g>
<g>
	<g>
		<g>
			<path style="fill-rule:evenodd;clip-rule:evenodd;fill:#FFFFFF;" d="M65.9,29.6c-46.4-3.1-50.3,31.6-50.4,33.2
				c0,0-11.3,2.9-13.2,16.8c-3.5,24.9,20.4,35.9,42.2,37.6c43.1,3.2,60.1-11.8,62.6-36.3C108,71.4,108.5,32.5,65.9,29.6z"/>
			<path d="M55.6,119.5c-3.6,0-7.3-0.1-11.3-0.4c-16.7-1.2-30.5-7.2-38-16.5c-5.2-6.5-7.3-14.3-6-23.3c1.7-12.3,10.1-16.7,13.4-18
				c0.5-3,2.3-10.8,8.1-18.1c6.4-8,19.3-17.2,44.2-15.5c14.1,0.9,25,5.9,32.4,14.6c11.9,14,11,33.2,10.4,38.8
				c-1.3,13.5-7,23.6-16.9,29.9C83.2,116.7,71.2,119.5,55.6,119.5z M60.2,31.4c-39.5,0-42.6,30.3-42.8,31.6
				c-0.1,0.8-0.6,1.5-1.4,1.7c-0.4,0.1-10.1,2.9-11.8,15.2c-1.1,7.9,0.6,14.7,5.2,20.3c6.7,8.3,19.9,13.9,35.2,15
				c38.1,2.8,57.9-8.5,60.5-34.6c0.4-3.7,1.6-22.7-9.6-35.9c-6.7-7.9-16.7-12.4-29.7-13.2l0,0C63.9,31.4,62,31.4,60.2,31.4z"/>
		</g>
		<path style="fill-rule:evenodd;clip-rule:evenodd;fill:#FDBBB6;" d="M48.8,84.2c-0.2,7.9,5.7,14.4,13.2,14.6
			c7.5,0.2,13.7-6,13.9-13.9c0.2-7.9-5.7-14.4-13.2-14.5S49,76.4,48.8,84.2"/>
		<g>
			<path style="fill-rule:evenodd;clip-rule:evenodd;" d="M25.6,77.1c0,1,1,1.9,2.4,1.9c1.4,0,2.5-0.8,2.5-1.8c0-1-1-1.9-2.4-1.9
				C26.8,75.2,25.7,76.1,25.6,77.1"/>
			<g>
				<path style="fill-rule:evenodd;clip-rule:evenodd;" d="M22.2,74.8L22.2,74.8c1.4,0,2.6-1.3,2.6-3l0-0.4c0-1.7-1.1-3.1-2.5-3.1
					c-1.4,0-2.6,1.3-2.6,3l0,0.4C19.7,73.3,20.8,74.7,22.2,74.8"/>
				<path style="fill-rule:evenodd;clip-rule:evenodd;" d="M44,75.3L44,75.3c1.7,0,3-1.3,3.1-3l0-0.4c0-1.7-1.3-3.1-2.9-3.1
					c-1.7,0-3,1.3-3.1,3l0,0.4C41,73.9,42.4,75.3,44,75.3"/>
			</g>
		</g>
		<path style="fill:#231816;" d="M37.2,89.5c-3.9,0-7.7-1.6-9.7-4.5c-0.5-0.7-0.3-1.7,0.4-2.2c0.7-0.5,1.7-0.3,2.2,0.4
			c2.3,3.4,8.6,4.1,12.5,1.6c0.9-0.6,1.4-1.1,1.7-1.4c-0.3-0.6-0.2-1.4,0.4-1.9c0.7-0.6,1.7-0.5,2.3,0.1c0.5,0.6,0.7,1.3,0.7,2
			c-0.2,1.2-1.2,2.5-3.2,3.8C42.3,88.9,39.7,89.5,37.2,89.5z"/>
		<path style="fill:#231816;" d="M23.5,88.3c-2.3,0-4.3-0.9-5.7-2.6c-1.8-2.1-1.1-3.8-0.6-4.7c0.5-0.8,1.5-1,2.2-0.5
			c0.8,0.5,1,1.4,0.5,2.2c-0.1,0.1-0.2,0.3,0.4,1c1.1,1.3,2.6,1.5,3.4,1.5c1.5-0.1,3-0.8,3.8-1.9c0.5-0.7,1.5-0.9,2.2-0.4
			c0.7,0.5,0.9,1.5,0.4,2.2c-1.4,1.9-3.8,3.1-6.3,3.2C23.7,88.3,23.6,88.3,23.5,88.3z"/>
	</g>
	<path style="fill-rule:evenodd;clip-rule:evenodd;fill:#FDBBB6;" d="M4.9,78c0.7-2.7,3.8-11.6,8.2-8.4c5.9,4.3,3.2,15.3,0.2,20.8
		c-1.1,2.2-3.2,4.7-6.1,4.1c-1.6-0.3-2.2-3.4-2.5-4.5C4,86.1,3.9,82,4.9,78z"/>
</g>
</svg>
