<?xml version="1.0" encoding="utf-8"?>
<!-- Generator: Adobe Illustrator 23.0.2, SVG Export Plug-In . SVG Version: 6.00 Build 0)  -->
<svg version="1.1" id="Layer_1" xmlns="http://www.w3.org/2000/svg" xmlns:xlink="http://www.w3.org/1999/xlink" x="0px" y="0px"
	 viewBox="0 0 147 202" style="enable-background:new 0 0 147 202;" xml:space="preserve">
<g>
	<path style="fill:#FFFFFF;" d="M87.2,40.2c0.2-0.7,0.6-1.7,1.2-1.9c1-0.4,2.8,0.2,4.3,0.9c-0.1,0-0.2-0.1-0.3-0.1
		c0-0.6,0.3-1.1,0.9-1.4c0.3-0.2,0.6-0.2,0.9-0.1c-0.4-0.1-0.7-0.4-0.9-0.8C92.9,36,93.2,35,94,34.6c0.4-0.2,0.8-0.2,1.2-0.1
		c-0.3-0.1-0.6-0.4-0.8-0.8c-0.4-0.8-0.1-1.8,0.7-2.2c0.1,0,0.2,0,0.2-0.1c-2.7-1.2-6.4-2.1-9.8-0.9c-2.2,0.8-5,2.8-6.3,7.7
		l-0.1,0.3c0,0,0,0.1,0,0.1c2.4,0.3,5.2,1,8,2.1C87.1,40.5,87.2,40.3,87.2,40.2z"/>
	<path style="fill:#673101;" d="M94.4,33.7c0.2,0.4,0.5,0.6,0.8,0.8c-0.4-0.1-0.8-0.1-1.2,0.1c-0.8,0.4-1.1,1.4-0.7,2.2
		c0.2,0.4,0.5,0.7,0.9,0.8c-0.3,0-0.6,0-0.9,0.1c-0.6,0.3-0.9,0.8-0.9,1.4c0.1,0,0.2,0.1,0.3,0.1c0.2,0.1,0.3,0.2,0.5,0.3
		c0.2,0.1,0.3,0.2,0.5,0.3c0.1,0,0.1,0.1,0.2,0.1c0.2,0.1,0.4,0.3,0.6,0.4c1.9,1.3,4.4,0.8,5.7-1c0.9-1.2,0.9-2.8,0.3-4.1
		c-0.3-0.6-0.7-1.2-1.4-1.7c-0.1-0.1-0.3-0.2-0.5-0.4c0,0,0,0,0,0c-0.1-0.1-0.2-0.2-0.4-0.2c0,0-0.1-0.1-0.1-0.1
		c-0.1-0.1-0.2-0.1-0.4-0.2c-0.1,0-0.1-0.1-0.2-0.1c-0.1-0.1-0.3-0.2-0.4-0.2c-0.1,0-0.1-0.1-0.2-0.1c-0.4-0.2-0.9-0.5-1.4-0.7
		c-0.1,0-0.2,0-0.2,0.1C94.3,31.9,94,32.9,94.4,33.7z"/>
</g>
<g>
	<path style="fill:#FFFFFF;" d="M67.8,37.5l-0.1-0.2c-1.8-4.7-4.9-6.4-7.1-6.9c-3.5-0.9-7.1,0.5-9.6,2c0.1,0,0.2,0,0.2,0
		c0.9,0.3,1.3,1.3,1,2.1c-0.1,0.4-0.4,0.7-0.7,0.8c0.4-0.1,0.8-0.2,1.2,0c0.8,0.3,1.3,1.3,1,2.1c-0.2,0.4-0.5,0.7-0.8,0.9
		c0.3-0.1,0.6-0.1,0.9,0c0.6,0.2,1,0.7,1,1.3c-0.1,0.1-0.2,0.1-0.3,0.2c1.5-0.9,3.2-1.7,4.2-1.5c0.6,0.2,1.1,1.1,1.4,1.8
		c0,0.2,0.1,0.4,0.1,0.7c2.2-1,4.8-1.8,7.9-2.2C67.9,38,67.8,37.6,67.8,37.5z"/>
	<path style="fill:#673101;" d="M53.7,38.3c-0.3-0.1-0.6-0.1-0.9,0c0.4-0.2,0.7-0.5,0.8-0.9c0.3-0.9-0.1-1.8-1-2.1
		c-0.4-0.1-0.8-0.1-1.2,0c0.3-0.2,0.6-0.5,0.7-0.8c0.3-0.9-0.1-1.8-1-2.1c-0.1,0-0.2,0-0.2,0c-0.2,0.1-0.4,0.2-0.6,0.4
		c-0.1,0-0.1,0.1-0.2,0.1c-0.2,0.1-0.4,0.2-0.5,0.3c-0.1,0.1-0.2,0.2-0.3,0.2c-0.1,0.1-0.2,0.1-0.3,0.2c-0.1,0.1-0.2,0.2-0.3,0.2
		c-0.1,0-0.1,0.1-0.2,0.1c-0.1,0.1-0.2,0.1-0.3,0.2c0,0-0.1,0.1-0.1,0.1c-0.1,0.1-0.2,0.1-0.2,0.2c0,0-0.1,0-0.1,0.1
		c-0.2,0.1-0.3,0.2-0.3,0.3c-1.7,1.5-1.9,4.1-0.4,5.8c1.5,1.7,4.1,1.9,5.8,0.4c0.2-0.1,0.3-0.3,0.5-0.4c0.1,0,0.1-0.1,0.2-0.1
		c0.1-0.1,0.3-0.2,0.4-0.3c0.1-0.1,0.3-0.2,0.4-0.3c0.1-0.1,0.2-0.1,0.3-0.2C54.6,39,54.3,38.5,53.7,38.3z"/>
</g>
<g>
	<path style="fill:#FFFFFF;" d="M60.8,142.5l4.3,0.7l1.5-18.4c-1.5-0.3-3-0.7-4.4-1.1L60.8,142.5z"/>
	<path style="fill:#00A2E7;" d="M59.4,161c0,0-6.5-1.9-10.8-1.1c0,0-0.2,0-0.2,0c-1.2,0.3-2.3,0.8-3.3,1.4c2.9-0.3,4.5,0.6,4.7,0.7
		l-1,1.4c0,0-2.8-1.5-6-0.1c-0.7,0.8-1.2,1.8-1.5,2.8c4.3-1.1,6.4,0.2,6.6,0.3l-1.1,1.6c0,0-1.9-1.1-6,0.2c0,0.3-0.1,0.7-0.1,1
		c0,0.8,0.1,1.6,0.3,2.4h7.3h11.4h3l2.3-28.7l-4.3-0.7L59.4,161z"/>
	<path style="fill:#008BC7;" d="M43.9,162.3C43.9,162.3,43.9,162.3,43.9,162.3c-0.4,0.4-0.7,0.7-1,1.1c0,0,0,0,0,0
		c3.2-1.4,6,0.1,6,0.1l1-1.4c-0.2-0.1-1.8-1-4.7-0.7c0,0,0,0,0,0C44.7,161.7,44.3,162,43.9,162.3z"/>
	<path style="fill:#008BC7;" d="M41,167.1c0,0.1,0,0.2-0.1,0.3c-0.1,0.3-0.1,0.6-0.1,0.9c0,0,0,0.1,0,0.1c4.1-1.3,6-0.2,6-0.2
		l1.1-1.6c-0.2-0.2-2.3-1.4-6.6-0.3c0,0,0,0.1,0,0.1C41.2,166.6,41.1,166.9,41,167.1z"/>
</g>
<g>
	<path style="fill:#FFFFFF;" d="M85.3,123.5c-1.4,0.5-2.8,0.9-4.4,1.2l1.5,18.5l4.3-0.7L85.3,123.5z"/>
	<path style="fill:#00A2E7;" d="M87.7,171.9h11.4h7.3c0.2-0.8,0.3-1.6,0.3-2.4c0-0.4,0-0.7-0.1-1c-4.1-1.3-6-0.2-6-0.2l-1.1-1.6
		c0.2-0.2,2.3-1.4,6.6-0.3c-0.4-1-0.9-1.9-1.5-2.8c-3.2-1.4-6,0.1-6,0.1l-1-1.4c0.2-0.1,1.8-1,4.7-0.7c-1-0.7-2.1-1.2-3.3-1.4
		c0,0-0.1,0-0.2,0c-4.2-0.8-10.8,1.1-10.8,1.1l-1.5-18.5l-4.3,0.7l2.3,28.7H87.7z"/>
	<path style="fill:#008BC7;" d="M97.8,162.1l1,1.4c0,0,2.8-1.5,6-0.1c0,0,0,0,0,0c-0.3-0.4-0.6-0.7-1-1.1c0,0,0,0-0.1-0.1
		c-0.4-0.3-0.7-0.6-1.2-0.9c0,0,0,0,0,0C99.6,161.1,98,162,97.8,162.1z"/>
	<path style="fill:#008BC7;" d="M99.7,166.5l1.1,1.6c0,0,1.9-1.1,6,0.2c0,0,0-0.1,0-0.1c0-0.3-0.1-0.6-0.2-0.9c0-0.1,0-0.2-0.1-0.2
		c-0.1-0.3-0.2-0.6-0.2-0.9c0,0,0-0.1,0-0.1C101.9,165.1,99.9,166.4,99.7,166.5z"/>
</g>
<g>
	<path style="fill:#FFFFFF;" d="M41.3,68.3c-2.4,1.4-5.2,2.3-7.1,2.6c4.9,11.3,12.6,15.8,14.2,16.6v-7.8
		C46.4,77.6,43.5,73.9,41.3,68.3z"/>
	<path style="fill:#008AC4;" d="M38.1,51.7c-0.1-2.6-2-4.9-4.2-5c-0.4,0-0.9,0-1.3,0.1C31,47.3,29.9,49,30,51.1
		c0.3,8.2,1.9,14.6,4.1,19.7c2-0.3,4.7-1.2,7.1-2.6C39.6,64,38.3,58.5,38.1,51.7z"/>
</g>
<g>
	<path style="fill:#FFFFFF;" d="M98.5,87.6c0.5-0.3,9.1-4.4,14.5-16.8c-2-0.3-4.7-1.2-7.1-2.6c-2.3,6-5.4,9.7-7.4,11.7L98.5,87.6
		C98.5,87.6,98.5,87.6,98.5,87.6z"/>
	<path style="fill:#008AC4;" d="M117.2,51.1c0.1-2.1-1-3.8-2.6-4.3c-0.4-0.1-0.8-0.2-1.3-0.1c-2.2,0.2-4.1,2.4-4.2,5
		c-0.2,6.8-1.5,12.2-3.2,16.5c2.4,1.4,5.2,2.3,7.1,2.6C115.3,65.7,116.9,59.3,117.2,51.1z"/>
</g>
<g>
	<path style="fill:#00A2E7;" d="M98.5,57.6c0.2-9.6-5.4-14.4-11.4-16.9c-2.8-1.1-5.6-1.8-8-2.1c-3.3-0.5-5.7-0.4-5.7-0.4
		c-1.9,0-3.7,0.1-5.4,0.4c-3.1,0.4-5.7,1.2-7.9,2.2C49,46,48.4,57.4,48.4,57.4v21.4v0.8v7.8v21.3c0,6.6,5.7,12.3,13.9,15
		c1.4,0.5,2.8,0.8,4.4,1.1c2.2,0.4,4.4,0.6,6.8,0.6c2.6,0,5.1-0.3,7.5-0.8c1.5-0.3,3-0.7,4.4-1.2c7.9-2.8,13.2-8.4,13.2-14.8V87.6
		v-7.7V57.6z"/>
	<path style="fill:#008BC7;" d="M81.4,94.2L81.4,94.2c0-4.4-3.6-8-8-8c-4.4,0-8,3.6-8,8v12.5c0,0,0,0,0,0c0,4.4,3.6,8,8,8
		c4.4,0,8-3.6,8-8V94.2z"/>
</g>
<path style="fill:#FFFFFF;" d="M98.5,58.7c-0.2-0.2-0.4-0.4-0.6-0.5c-0.3-8.7-5.3-13.4-10.8-15.8c-1.7-0.7-3.4-1.3-5-1.7
	c-0.6-0.2-2-0.4-3.1-0.6c-0.6-0.1-1.1-0.2-1.3-0.2c-3-0.3-5-0.2-5-0.2c-1.5,0-2.9,0.2-4.3,0.4c-2.9,0.5-5.6,1.5-8,2.8
	C53.7,46.7,49.2,53.4,49,61l0,0c0,0-2.3,18.6,18.9,21.9c1.8,0.2,3.4,0.4,5.1,0.4H88c4.1,0,7.9-2.1,10.5-5.3c2.2-2.6,3.5-5.9,3.5-9.3
	C102,64.6,101.2,61.1,98.5,58.7z"/>
<g>
	<path style="fill:#FFC0BB;" d="M58.6,59.3c-3.9,0-7,3.2-7,7.1c0,3.9,3.1,7.1,7,7.1c3.9,0,7-3.2,7-7.1
		C65.6,62.4,62.5,59.3,58.6,59.3z"/>
	<path style="fill:#FFC0BB;" d="M98.5,62.2c-1.3-1.8-3.3-2.9-5.7-2.9c-3.9,0-7,3.2-7,7.1c0,3.9,3.1,7.1,7,7.1c2.3,0,4.4-1.2,5.7-2.9
		c0.8-1.2,1.3-2.6,1.3-4.1C99.9,64.8,99.4,63.3,98.5,62.2z"/>
</g>
<g>
	<path d="M75.4,64.8c0.5,0,1-0.5,1-1.1c0-0.6-0.4-1.1-1-1.1s-1,0.5-1,1.1C74.4,64.3,74.9,64.8,75.4,64.8z"/>
	<path d="M66.3,64.6c0.1,0,0.1,0,0.2,0l4.9-1.8c0,0,0,0,0,0c0,0,0,0,0,0c0.1,0,0.1-0.1,0.1-0.1c0,0,0,0,0,0c0,0,0.1-0.1,0.1-0.1
		c0,0,0,0,0-0.1c0-0.1,0-0.1,0.1-0.2c0,0,0,0,0,0c0,0,0,0,0,0c0,0,0,0,0,0c0-0.1,0-0.1,0-0.2c0,0,0,0,0-0.1c0-0.1,0-0.1-0.1-0.1
		c0,0,0,0,0,0c0,0-0.1-0.1-0.1-0.1L66.8,59c-0.3-0.2-0.7-0.1-0.8,0.2c-0.2,0.3-0.1,0.7,0.2,0.8l2.4,1.4l-3.2-0.2
		c-0.3,0-0.6,0.2-0.7,0.6c0,0.3,0.2,0.6,0.6,0.7l3,0.2l-2.2,0.8c-0.3,0.1-0.5,0.5-0.4,0.8C65.8,64.5,66.1,64.6,66.3,64.6z"/>
	<path d="M84.8,61.2l-3.2,0.2l2.4-1.4c0.3-0.2,0.4-0.5,0.2-0.8c-0.2-0.3-0.5-0.4-0.8-0.2l-4.7,2.7c-0.1,0-0.1,0.1-0.1,0.1
		c0,0,0,0,0,0c0,0-0.1,0.1-0.1,0.1c0,0,0,0,0,0.1c0,0.1,0,0.1,0,0.2c0,0,0,0,0,0c0,0,0,0,0,0c0,0,0,0,0,0c0,0.1,0,0.1,0.1,0.2
		c0,0,0,0,0,0.1c0,0,0.1,0.1,0.1,0.1c0,0,0,0,0,0c0,0,0.1,0.1,0.1,0.1c0,0,0,0,0,0c0,0,0,0,0,0l4.9,1.8c0.1,0,0.1,0,0.2,0
		c0.3,0,0.5-0.2,0.6-0.4c0.1-0.3,0-0.7-0.4-0.8l-2.2-0.8l3-0.2c0.3,0,0.6-0.3,0.6-0.7C85.4,61.4,85.1,61.2,84.8,61.2z"/>
	<path style="fill:#D84848;" d="M75.4,68.6c-6.4,0-7.5-0.2-7.6-2c-0.8-0.1-1.4-0.2-1.6-0.2c0.4,2.8,4.4,6.9,9.2,6.9
		c4.8,0,8.7-4.1,9-6.9c-0.2,0-0.8,0.1-1.6,0.2C82.8,68.2,82.1,68.6,75.4,68.6z"/>
	<path style="fill:#FFFFFF;" d="M67.9,66.6c0.1,1.8,1.1,2,7.6,2c6.7,0,7.4-0.4,7.4-2c-1.7,0.2-4.5,0.5-7.4,0.5
		C72.5,67.1,69.6,66.8,67.9,66.6z"/>
	<path d="M84.4,65.6c0,0-4.4,0.7-9,0.7c-4.6,0-9.1-0.7-9.2-0.7c-0.2,0-0.4,0.1-0.5,0.3c0,0.2,0.1,0.4,0.3,0.5c0,0,0,0,0.1,0
		c0.2,0,0.8,0.1,1.6,0.2c1.8,0.2,4.7,0.5,7.6,0.5c2.9,0,5.7-0.3,7.4-0.5c0.8-0.1,1.4-0.2,1.6-0.2c0.1,0,0.1,0,0.1,0
		c0.2,0,0.4-0.2,0.3-0.5C84.9,65.7,84.6,65.5,84.4,65.6z"/>
</g>
</svg>
