<?xml version="1.0" encoding="utf-8"?>
<!-- Generator: Adobe Illustrator 24.0.3, SVG Export Plug-In . SVG Version: 6.00 Build 0)  -->
<!DOCTYPE svg PUBLIC "-//W3C//DTD SVG 1.1//EN" "http://www.w3.org/Graphics/SVG/1.1/DTD/svg11.dtd" [
	<!ENTITY ns_flows "http://ns.adobe.com/Flows/1.0/">
	<!ENTITY ns_extend "http://ns.adobe.com/Extensibility/1.0/">
	<!ENTITY ns_ai "http://ns.adobe.com/AdobeIllustrator/10.0/">
	<!ENTITY ns_graphs "http://ns.adobe.com/Graphs/1.0/">
	<!ENTITY ns_vars "http://ns.adobe.com/Variables/1.0/">
	<!ENTITY ns_imrep "http://ns.adobe.com/ImageReplacement/1.0/">
	<!ENTITY ns_sfw "http://ns.adobe.com/SaveForWeb/1.0/">
	<!ENTITY ns_custom "http://ns.adobe.com/GenericCustomNamespace/1.0/">
	<!ENTITY ns_adobe_xpath "http://ns.adobe.com/XPath/1.0/">
]>
<svg version="1.1" id="레이어_1" xmlns:x="&ns_extend;" xmlns:i="&ns_ai;" xmlns:graph="&ns_graphs;"
	 xmlns="http://www.w3.org/2000/svg" xmlns:xlink="http://www.w3.org/1999/xlink" xmlns:a="http://ns.adobe.com/AdobeSVGViewerExtensions/3.0/"
	 x="0px" y="0px" viewBox="0 0 171 350" style="enable-background:new 0 0 171 350;" xml:space="preserve">
<metadata>
	<sfw  xmlns="&ns_sfw;">
		<slices></slices>
		<sliceSourceBounds  bottomLeftOrigin="true" height="350" width="171.4" x="0.7" y="-350"></sliceSourceBounds>
	</sfw>
</metadata>
<g>
	<g>
		<path style="fill:#FFFFFF;" d="M78.8,210.6c-2.1-1.8-5.1-2.2-7.9-1.1c-3.8,1.4-6.6,5.1-7.4,10c-0.5,3.1-1.1,6.3-1.6,9.5
			c-3.4,20.2-6.9,41-12.2,61.3l5.7,1.6l0.9-3.2l11,3.1l0.7-3c5.5-21.9,9.3-44.1,13-65.6l0.5-2.9C82.5,214.6,80.2,211.8,78.8,210.6z"
			/>
	</g>
	<path style="fill:#0083BB;" d="M89.7,332.4c-0.5-7.8-4.6-15.2-10.9-19.8c0,0-0.3-0.2-0.3-0.3c-9.1-6.2-14.8-3.9-15.4-3.6
		c0-0.1,0.1-0.3,0.1-0.4l1.3-2.9l-0.4,0c2.7-9,4.4-16.2,4.5-16.7l0.7-3.2l-17.3-4.8l-2.7,9.3c-0.6,2.2-1.3,4.5-1.9,6.7l-2,7
		c0,0.1-0.1,0.5-0.5,1.5c-0.9,2.6-2.8,7.5-5.7,14.6l-1.4,3.2c-1.4,3.2,2.6,8,5.8,9.4l4,1.7l18.5,8c5.5,2.4,11.8,6,17.9,3.1
		C88,343.4,90,336.7,89.7,332.4z"/>
</g>
<g>
	<g>
		<path style="fill:#FFFFFF;" d="M82.6,303.1c-5.8-1.4-11.6-2.8-17.5-4.2c7.5-31.1,7.5-63.6,0-94.7c5.8-1.4,11.6-2.8,17.5-4.2
			C90.8,233.9,90.8,269.2,82.6,303.1z"/>
	</g>
	<g>
		<path style="fill-rule:evenodd;clip-rule:evenodd;fill:#0099DA;" d="M91.9,316c0,0-0.4-0.1-0.4-0.1c-8.5-1.2-10.8-0.1-10.8-0.1
			l5.1-26.2l-18.3-2l-10.5,55c-0.1,3.7,5.6,6.8,9.2,6.8l4.5,0.1l20.7,0.4c6.1,0.1,13.5,1.1,18.2-4.1c3.2-3.6,2.4-10.9,0.5-14.9
			C106.5,323.4,99.7,317.9,91.9,316"/>
	</g>
</g>
<g>
	<g>
		<path style="fill:#FFFFFF;" d="M87.9,0.7c-3,0.9-5.7,2.6-7.6,5.3c-3.3,4.6-5.8,13.4-4.1,19.2c0.6,2,2.7,0.9,5.1,0.7
			c2.8-0.2,2.2-3.2,4.5-5.8c3.2-3.7,5.8,0.7,10.4,5.4c3.7,3.8,9.5,3.6,13-0.5c3.5-4.1,3.4-10.4-0.3-14.2C101.8,3.5,97.1-2,87.9,0.7z
			"/>
		<path style="fill:#6B2F1A;" d="M94.5,18.9c0.7-0.3,1.4-0.2,2.1,0c-0.8-0.5-1.5-1.3-1.8-2.3c-0.6-2.1,0.5-4.4,2.4-5.1
			c0.9-0.3,1.8-0.2,2.6,0.2c-0.7-0.5-1.3-1.2-1.6-2.1c-0.6-2.1,1-4.3,3-5c0.2-0.1,1,0,1.2,0c4.2,2.8,5.8,5.5,6.5,6.2
			c3.7,3.8,3.8,10.1,0.3,14.2c-3.5,4-9.3,4.3-13,0.5c-1.1-1.1-3.2-3.3-3.9-4C91.3,20.5,93.1,19.4,94.5,18.9"/>
	</g>
</g>
<g>
	<path style="fill:#0099DA;" d="M67.8,258.9C67.7,258.9,67.9,258.9,67.8,258.9L67.8,258.9z"/>
	<path style="fill:#0099DA;" d="M155.1,81.8c-0.2-1.1-0.5-2.1-0.8-3.2c-0.2-1.1-0.5-2.2-0.7-3.3c-3.3-13.4-10.3-28-21.3-36.5
		C118,27.8,99.4,19.6,81.6,20l-5.7,0.1c-0.2,0-0.3,0-0.3,0c-17.9,0.3-36.1,9.1-49.9,20.6c-10.8,8.9-17.2,23.7-20,37.2
		C2.9,90.6,3,103.4,5.9,115.8c0.9,5.5,2.4,11,4.4,16.5c0.7,1.9,1.3,3.8,1.8,5.7c0.1,0.9,0.1,1.8,0.1,2.7c0.1,4.3-1.8,8.3-2.8,12.4
		c-2.7,10.6-6.7,21-8.1,31.9c-1.8,14,0.3,33,8.1,44.9c10.8,16.4,31.2,25.1,50,28c2.7,0.4,5.6,0.8,8.4,1l5.6,0.4c0.1,0,0.2,0,0.3,0
		c2.8,0.2,5.5,0.3,8.3,0.3c23.1-0.1,46.7-6.7,58-28.5c8.3-16,8.9-34.1,7.5-51.7c-0.8-9.5-5-21.4-2.4-30.8c0,0,0,0,0,0l0.3-0.1
		c0.2-0.8,0.4-1.8,0.8-2.8c0.3-0.6,0.5-1.2,0.8-1.8l-0.2,0c1.7-4.7,4.4-10.5,5.6-13.9C157.8,114.4,158.8,98,155.1,81.8z"/>
	<path style="fill:#0099DA;" d="M81.6,20c0,0-0.1,0-0.3,0L81.6,20z"/>
</g>
<path style="fill-rule:evenodd;clip-rule:evenodd;fill:#FFFFFF;" d="M153.5,74.7c-0.2-2.1-0.8-7.9-1.2-9.7
	c-0.9-4.8-2.4-9.4-4.5-13.6c-4.9-9.5-14.6-16.5-23.3-20.6c-5.4-2.5-10.3-4-16.3-4.8c-7.5-1-10.6-1.1-17.9,1.1
	c-8.6,2.6-9.8,9.6-14.3,20.8c-3,7.5-4.1,11.5-5,19.8l0.2,0c-0.2,1.5-1,6.4-0.1,19c0.5,7.5,2,20,4.3,27c2.1,6.4,7,29.5,23,29.8
	c10.4,0.2,12.8,0.4,23.1-0.2c2.2-0.1,4.5-0.2,6.7-0.3c16-0.8,33.2-8.7,40.1-26.6c2.6-6.9,3.8-14.8,2.7-22.2
	c-0.7-4.7-1.6-6.5-3.7-10.7c-2.4-4.8-5.4-6.9-14.2-8.8"/>
<g>
	<g>
		<path style="fill-rule:evenodd;clip-rule:evenodd;" d="M171,85.2c0,1.4-0.3,2.5-1.6,2.5c-1.3,0-2.9-1.3-2.9-2.7
			c0-1.4,0.8-2.3,2.1-2.3C169.9,82.8,170.9,83.9,171,85.2"/>
		<g>
			<path style="fill-rule:evenodd;clip-rule:evenodd;" d="M147.6,84.3L147.6,84.3c-1.8,0.1-3.4-1.6-3.6-3.8l0-0.6
				c-0.2-2.3,0.5-4.3,3-4.4c1.8,0,2.9,1.9,3,4.1l0,0.6C150.2,82.5,149.5,84.1,147.6,84.3"/>
		</g>
	</g>
	
		<path style="fill-rule:evenodd;clip-rule:evenodd;fill:none;stroke:#251714;stroke-width:3.2499;stroke-linecap:round;stroke-linejoin:round;stroke-miterlimit:10;" d="
		M170.4,98.8c-3.9,4.1-12,5.8-17.2,1.7c-1.4-1-3.8-3.4-2.6-4.8"/>
</g>
<path style="fill-rule:evenodd;clip-rule:evenodd;fill:#F5B6B5;" d="M139.7,98.9c0.2,10.5-7.8,19.2-17.7,19.3s-18.2-8.2-18.4-18.7
	c-0.2-10.5,7.7-19.1,17.7-19.3S139.5,88.4,139.7,98.9"/>
<g>
	<g>
		<path style="fill:#FFFFFF;" d="M51.1,1.1c4.4,0.8,8.5,2.7,11.6,6c5.4,5.7,7.7,14.3,5.9,22.3c-0.6,2.8-3.7,3.4-7.1,3.5
			c-4,0.1-3.6-2.9-7.1-6c-5-4.5-6.2,1.8-12.2,8.7c-4.8,5.6-13.2,6.1-18.7,1.2c-5.5-5-6.1-13.5-1.4-19.1C31.4,6.7,37.5-1.3,51.1,1.1z
			"/>
		<path style="fill:#6B2F1A;" d="M43.8,26.5c-1-0.2-2.1,0-3,0.3c1.1-0.8,2-1.9,2.3-3.4c0.6-2.9-1.2-5.8-4.1-6.5
			c-1.3-0.3-2.6,0-3.7,0.6c1-0.8,1.7-1.8,2-3.1c0.6-2.9-2-5.6-4.9-6.3c-0.3-0.1-1.4,0.1-1.7,0.1c-5.6,4.4-7.6,8.3-8.5,9.3
			c-4.8,5.6-4.1,14.2,1.4,19.1c5.5,5,13.8,4.4,18.6-1.2c1.4-1.6,4.2-4.9,5-5.9C48.4,28.2,45.7,27,43.8,26.5"/>
	</g>
</g>
<g>
	<path style="fill:#FFFFFF;" d="M75.4,203.5c1.4-9.8,4.9-18.7,8.6-28.2c1.6-4.2,7.8-19.5-2-19.3c-3.6,0.1-6.7,4.4-8.8,6.8
		c-4.6,5.3-8.4,11.1-11.2,17.4c-3.2,7-5.3,14.4-6.4,21.9C60.8,201.5,67.9,201.6,75.4,203.5z"/>
	<path style="fill:#0083BB;" d="M79.9,237.7c0-0.1-0.1-0.2-0.1-0.3c-1.2-3-2.2-6-3-8.8c-1.1-4.1-1.7-8.2-1.9-12.5
		c-0.1-2.1-0.1-4.3,0-6.6c0.1-2,0.3-4,0.6-6c-7.5-1.9-14.6-2-19.9-1.5c-0.6,3.6-0.9,7.3-1,11c-0.4,10.5-0.1,22.5,4,32.4
		c2,4.8,6.5,8.6,12.1,9.2c1.2,0.1,2.3,0.1,3.3,0c3.7-0.4,7.3-2.3,8.5-5.7c0.2-0.7,0.3-1.4,0.4-2C82.9,243.6,81.1,240.6,79.9,237.7z"
		/>
</g>
</svg>
