<?xml version="1.0" encoding="utf-8"?>
<!-- Generator: Adobe Illustrator 26.5.0, SVG Export Plug-In . SVG Version: 6.00 Build 0)  -->
<svg version="1.1" id="레이어_1" xmlns="http://www.w3.org/2000/svg" xmlns:xlink="http://www.w3.org/1999/xlink" x="0px"
	 y="0px" viewBox="0 0 154 236" style="enable-background:new 0 0 154 236;" xml:space="preserve">
<g>
	<path style="fill:#7D7D7D;" d="M84.1,189c0,0,14.9,16.3,13.8,32.5v8.5c0,0,1.8,4.8,11.6,4.8s26.8,1.8,24.6-10.7
		s-10.9-12.9-14.9-12.1c0,0-0.8-24.7-10.1-34C99.9,168.9,84.1,189,84.1,189z"/>
	<path d="M117.2,236c-1.4,0-2.8,0-4.1,0c-1.2,0-2.3,0-3.5,0c-10.5,0-12.7-5.2-12.8-5.5c0-0.1-0.1-0.2-0.1-0.3v-8.4
		c1-15.7-13.4-31.7-13.6-31.8c-0.3-0.3-0.3-0.9,0-1.3c0.5-0.6,10.5-13.3,19.7-13.9c2.8-0.1,5.2,0.7,7.3,2.7
		c8.5,8.3,10.1,28.4,10.5,33.5c2.2-0.2,5.5,0,8.5,1.9c3.3,2.2,5.4,5.9,6.3,11.2c0.6,3.3,0,5.9-1.8,7.9
		C130.2,235.4,123.5,236,117.2,236z M99.1,229.8c0.3,0.7,2.5,4,10.6,4c1,0,2.2,0,3.5,0c6.8,0.1,15.3,0.3,18.8-3.4
		c1.4-1.5,1.8-3.5,1.4-6.2c-0.8-4.7-2.6-8-5.4-9.8c-3-1.9-6.3-1.7-8.1-1.5c-0.3,0-0.7,0-0.9-0.2c-0.2-0.2-0.5-0.5-0.5-0.8
		c0-0.2-0.8-24.5-9.9-33.3c-1.5-1.5-3.3-2.2-5.4-2.1c-7.1,0.5-15.4,9.8-17.5,12.4c2.8,3.3,14.5,17.8,13.5,32.6L99.1,229.8z"/>
</g>
<g>
	<path style="fill:#7D7D7D;" d="M65.4,189c0,0-14.9,16.3-13.8,32.5v8.5c0,0-1.8,4.8-11.6,4.8s-26.8,1.8-24.6-10.7
		s10.9-12.9,14.9-12.1c0,0,0.8-24.7,10.1-34C49.6,168.9,65.4,189,65.4,189z"/>
	<path d="M32.3,236c-6.3,0-13-0.6-16.3-4.1c-1.8-1.9-2.4-4.6-1.8-7.9c0.9-5.2,3-9,6.3-11.2c3-1.9,6.3-2.2,8.5-1.9
		c0.2-5.1,2-25.2,10.5-33.5c2-1.9,4.5-2.8,7.3-2.7C56,175.3,66,188,66.5,188.6c0.3,0.3,0.2,0.9,0,1.3c-0.1,0.1-14.6,16.1-13.6,31.7
		v8.5c0,0.1,0,0.2-0.1,0.3c-0.1,0.2-2.2,5.5-12.8,5.5c-1,0-2.2,0-3.5,0C35.1,236,33.7,236,32.3,236z M27.5,212.9
		c-1.7,0-3.8,0.3-5.8,1.6c-2.8,1.8-4.6,5.1-5.4,9.8c-0.5,2.6,0,4.7,1.4,6.2c3.3,3.6,11.9,3.5,18.8,3.4c1.3,0,2.4,0,3.5,0
		c8.1,0,10.1-3.3,10.6-4l0.1-8.3c-1-14.7,10.7-29.3,13.5-32.5c-2.2-2.6-10.4-12-17.5-12.4c-2.1-0.1-3.9,0.6-5.4,2.1
		c-9,8.9-9.9,33.1-9.9,33.3c0,0.3-0.1,0.6-0.5,0.8c-0.2,0.2-0.6,0.2-0.9,0.2C29.2,213,28.4,212.9,27.5,212.9z"/>
</g>
<g>
	<g>
		<path style="fill:#7D7D7D;" d="M113.8,123.4c-1.6-3-7.6-10.4-7.6-10.4H41.4c0,0-0.6,1.3-5.8,10.4c-7.7,13.7-15.1,35.4-9,50.4
			c7.1,17.3,28.2,24.2,48.1,24.2s41-6.8,48.1-24.2C128.9,158.8,121.5,137,113.8,123.4z"/>
		<path d="M74.7,199c-24.4,0-42.7-9.3-49.2-24.8c-6.2-15.2,1-37,9-51.3c5.1-8.9,5.8-10.3,5.8-10.4c0.2-0.3,0.6-0.6,1-0.6h64.9
			c0.3,0,0.7,0.1,0.9,0.5c0.2,0.3,6,7.5,7.7,10.5l0,0c8.1,14.2,15.2,36.1,9,51.3C117.5,189.7,99.1,199,74.7,199z M42.1,113.9
			c-0.6,1-2,3.6-5.5,9.8c-7.8,13.8-14.9,35.1-8.9,49.6c6,14.7,23.6,23.6,47.1,23.6s41-8.8,47.1-23.6c5.9-14.5-1.2-35.7-8.9-49.6
			c-1.4-2.4-5.9-8.2-7.1-9.8H42.1z"/>
	</g>
	<g>
		<g>
			<path style="fill:#CC0016;" d="M29.4,117.9c0,0-0.3,26.7-5.1,33.7c0,0-2.8,16.2-1.8,25.2c0,0,25.1,5.5,45.7,2.7V144l-3.3-16.5
				L29.4,117.9z"/>
			<path d="M55.7,181.4c-16.9,0-33.2-3.5-33.4-3.5c-0.5-0.1-0.8-0.5-0.8-0.9c-0.9-9.1,1.7-24.8,1.8-25.5c0-0.1,0.1-0.2,0.1-0.3
				c4.5-6.7,4.8-32.9,4.8-33.2c0-0.3,0.1-0.7,0.5-0.8c0.2-0.2,0.7-0.2,0.9-0.1l35.5,9.6c0.5,0.1,0.7,0.5,0.8,0.8l3.3,16.5
				c0,0.1,0,0.1,0,0.2v35.6c0,0.6-0.5,0.9-0.9,1C64.3,181.2,60,181.4,55.7,181.4z M23.6,175.9c4.4,0.9,25.7,4.8,43.5,2.7v-34.5
				l-3.2-15.8l-33.4-9c-0.1,5.6-0.9,26.1-5.1,32.7C25.2,153.7,23,167.5,23.6,175.9z"/>
		</g>
		<g>
			<path style="fill:#3D3D3D;" d="M32.8,135.2c0,0.3,0,0.7,0.2,1s0.6,0.6,0.9,0.7c3.7,1.6,7.8,1.9,12,2.2c3.5,0.2,6.9,0.2,10.4,0.3
				c1,0,2.2,0,3.2-0.3c0.5-0.1,0.9-0.3,1.2-0.8c0.2-0.3,0.2-0.7,0.2-1c0.1-1.1,0.1-2.3,0.2-3.5c0-0.3,0-0.8-0.2-1.1
				s-0.8-0.5-1.3-0.6c-8.2-0.9-16.5-1-24.6-1.1c-0.5,0-1,0-1.5,0.2C32.2,131.7,32.8,134.2,32.8,135.2z"/>
			<path d="M56.4,140.4c-0.1,0-0.1,0-0.2,0c-3.5,0-6.9-0.1-10.4-0.3c-4.1-0.2-8.4-0.6-12.3-2.3c-0.3-0.1-1-0.5-1.5-1.1
				c-0.3-0.6-0.3-1.1-0.3-1.5l0,0c0-0.2,0-0.5-0.1-0.7c-0.1-1.5-0.3-3.5,1.2-4.3c0.7-0.3,1.5-0.3,2.1-0.3c8.2,0.1,16.6,0.2,24.9,1.1
				c0.5,0,1.5,0.2,2.1,0.9c0.5,0.7,0.5,1.4,0.5,1.8l-0.2,3.5c0,0.3-0.1,0.9-0.3,1.5c-0.3,0.6-0.9,0.9-1.7,1.3
				C58.7,140.4,57.5,140.4,56.4,140.4z M34.5,131.9c-0.2,0-0.6,0-0.7,0.1c-0.2,0.2-0.1,1.7,0,2.3c0,0.3,0.1,0.7,0.1,0.9l0,0
				c0,0.1,0,0.5,0,0.5s0.1,0.1,0.5,0.2c3.6,1.6,7.6,1.8,11.5,2.1c3.3,0.2,6.8,0.2,10.2,0.3c1.2,0,2.1,0,2.9-0.3
				c0.3-0.1,0.5-0.2,0.5-0.3c0.1-0.1,0.1-0.3,0.1-0.6l0.2-3.5c0-0.1,0-0.3,0-0.5c0,0-0.1,0-0.6-0.1c-8.2-0.9-16.5-1-24.5-1.1
				C34.6,131.9,34.6,131.9,34.5,131.9z"/>
		</g>
		<g>
			<path style="fill:#3D3D3D;" d="M22.5,176.8c0,0,0.3,4.2,1.8,7.2c0,0,32,4,43.2,2.7l0.7-7.2C68.2,179.6,30.1,180.3,22.5,176.8z"/>
			<path d="M61.9,188c-13.5,0-36.6-2.8-37.6-3c-0.3,0-0.7-0.2-0.9-0.6c-1.5-3.1-2-7.4-2-7.5c0-0.3,0.1-0.7,0.5-0.9
				c0.3-0.2,0.8-0.2,1.2-0.1c7.3,3.3,44.8,2.6,45.1,2.6c0.2,0,0.6,0.1,0.8,0.3c0.2,0.2,0.3,0.6,0.3,0.8l-0.7,7.2
				c0,0.5-0.5,0.9-1,0.9C66.1,187.9,64.1,188,61.9,188z M25.2,183c4.4,0.6,30.7,3.5,41.3,2.7l0.5-5.1c-6.3,0.1-33.7,0.2-43.2-2.3
				C24.1,179.7,24.5,181.5,25.2,183z"/>
		</g>
		<path style="fill:#DFDFDF;" d="M52.2,136.7c-7.6,0-13.7-1.1-14-1.3c-0.6-0.1-1-0.7-0.9-1.3s0.7-0.9,1.3-0.8
			c0.1,0,8.2,1.5,16.8,1.1c0.7,0,1.2,0.5,1.2,1s-0.5,1-1,1.1C54.5,136.7,53.4,136.7,52.2,136.7z"/>
		<g>
			<path style="fill:#3D3D3D;" d="M25.8,158.6c7.3,2.7,15.2,3,23,3.2c3.6,0.1,7.4,0.1,10.6-1.4c0.2-1,0.2-2.4-0.7-2.8
				c-0.3-0.1-0.7-0.2-0.9-0.2c-6-0.8-12.2-0.2-18.3-0.8c-2.9-0.3-5.6-0.9-8.4-1.3c-1.2-0.1-4.4-0.7-5.2,0.2
				C25.6,155.9,25.6,158.6,25.8,158.6z"/>
			<path d="M51.3,162.9c-0.8,0-1.7,0-2.5,0c-7.5-0.2-15.9-0.5-23.5-3.3l0,0c-0.3-0.1-0.6-0.5-0.7-0.8c0,0-0.5-3.2,0.2-4
				c1-1.3,3.3-1,5.8-0.7l0.5,0.1c1.4,0.1,2.6,0.3,4,0.6c1.5,0.2,3,0.5,4.5,0.7c2.8,0.3,5.6,0.3,8.5,0.3c3.2,0,6.6,0,9.9,0.5
				c0.3,0,0.9,0.1,1.4,0.3c1.2,0.7,1.6,1.9,1.3,4c-0.1,0.3-0.2,0.6-0.6,0.8C57.2,162.7,54.1,162.9,51.3,162.9z M26.8,157.9
				c7,2.5,14.6,2.7,22.1,2.8c3.1,0.1,6.7,0.1,9.6-1c0.1-0.8-0.1-1.1-0.2-1.3c-0.1-0.1-0.3-0.1-0.6-0.1c-3.1-0.5-6.4-0.5-9.6-0.5
				c-2.9,0-5.9,0-8.8-0.3c-1.5-0.1-3.1-0.5-4.6-0.7c-1.3-0.2-2.5-0.5-3.9-0.6l-0.6-0.1c-2.2-0.3-3.1-0.2-3.6-0.1
				C26.8,156.6,26.8,157.4,26.8,157.9z"/>
		</g>
		<path d="M40.7,169.4c-0.5,0-0.8,0-1.4-0.1c-1.7-0.2-3.1-0.8-4-1.7c-1-1-1.6-2.4-1.5-3.9c0.1-1.3,0.6-2.6,1.5-3.6l0,0
			c1.3-1.6,3.2-2.2,5.3-1.7c2.5,0.6,4.7,2.6,5.2,4.9c0.6,2.6-1.3,5.5-3.9,6C41.6,169.4,41.2,169.4,40.7,169.4z M39.3,160.3
			c-0.7,0-1.5,0.2-2.2,1l0,0c-0.7,0.8-1,1.7-1,2.5c0,0.9,0.2,1.7,0.9,2.3c0.6,0.6,1.5,0.9,2.8,1.1c0.7,0.1,1.3,0.1,1.8,0
			c1.5-0.3,2.5-2.1,2.2-3.5c-0.3-1.5-1.8-3-3.6-3.3C40,160.4,39.7,160.3,39.3,160.3z M36.3,160.8L36.3,160.8L36.3,160.8z"/>
	</g>
	<g>
		<g>
			<path style="fill:#CC0016;" d="M120.1,117.9c0,0,0.3,26.7,5.1,33.7c0,0,2.8,16.2,1.8,25.2c0,0-25.1,5.5-45.7,2.7v-36.9l3.3-15.2
				L120.1,117.9z"/>
			<path d="M93.8,181.4c-4.3,0-8.6-0.2-12.7-0.8c-0.6-0.1-0.9-0.6-0.9-1v-36.9c0-0.1,0-0.1,0-0.2l3.3-15.2c0.1-0.3,0.3-0.7,0.8-0.8
				l35.5-9.6c0.3-0.1,0.7,0,0.9,0.1c0.2,0.2,0.5,0.5,0.5,0.8c0,0.2,0.5,26.4,4.8,33.2c0.1,0.1,0.1,0.2,0.1,0.3
				c0.1,0.7,2.8,16.4,1.8,25.5c0,0.5-0.3,0.8-0.8,0.9C127,177.9,110.7,181.4,93.8,181.4z M82.3,178.7c17.8,2.2,39.1-1.8,43.5-2.7
				c0.6-8.4-1.5-22.2-1.8-24c-4.1-6.6-5-27.1-5.1-32.7l-33.4,9l-3.2,14.5V178.7z"/>
		</g>
		<g>
			<path style="fill:#3D3D3D;" d="M116.7,135.2c0,0.3,0,0.7-0.2,1s-0.6,0.6-0.9,0.7c-3.7,1.6-7.8,1.9-12,2.2
				c-3.5,0.2-6.9,0.2-10.4,0.3c-1,0-2.2,0-3.2-0.3c-0.5-0.1-0.9-0.3-1.2-0.8c-0.2-0.3-0.2-0.7-0.2-1c-0.1-1.1-0.1-2.3-0.2-3.5
				c0-0.3,0-0.8,0.2-1.1s0.8-0.5,1.3-0.6c8.2-0.9,16.5-1,24.6-1.1c0.5,0,1,0,1.5,0.2C117.3,131.7,116.7,134.2,116.7,135.2z"/>
			<path d="M93.1,140.4c-1.2,0-2.3,0-3.3-0.5c-0.8-0.2-1.4-0.7-1.7-1.3c-0.3-0.6-0.3-1-0.3-1.5l-0.2-3.4c0-0.5-0.1-1.1,0.5-1.8
				c0.6-0.8,1.6-0.9,2.1-0.9c8.3-0.9,16.7-1,24.8-1.1c0.6,0,1.4,0,2.1,0.3c1.5,0.8,1.3,2.8,1.2,4.3c0,0.2,0,0.6-0.1,0.7
				c0,0.3,0,0.9-0.3,1.5c-0.3,0.7-1.2,1-1.5,1.1c-3.9,1.7-8.3,2.1-12.3,2.3c-3.5,0.2-6.9,0.2-10.4,0.3
				C93.2,140.4,93.1,140.4,93.1,140.4z M115,131.9c-0.1,0-0.2,0-0.2,0c-8.1,0.1-16.5,0.2-24.5,1.1c-0.3,0-0.6,0.1-0.6,0.1
				s0,0.3,0,0.5l0.2,3.5c0,0.2,0,0.5,0.1,0.6c0,0.1,0.2,0.2,0.5,0.3c0.8,0.2,1.7,0.3,2.9,0.3c3.5,0,6.9-0.1,10.2-0.3
				c3.9-0.2,7.9-0.6,11.5-2.1c0.3-0.1,0.5-0.2,0.5-0.2c0-0.1,0-0.3,0-0.5l0,0c0-0.2,0-0.6,0.1-0.9c0-0.6,0.2-1.9-0.1-2.3
				C115.4,131.9,115.2,131.9,115,131.9z"/>
		</g>
		<g>
			<path style="fill:#3D3D3D;" d="M127,176.8c0,0-0.3,4.2-1.8,7.2c0,0-32,4-43.2,2.7l-0.7-7.2C81.3,179.6,119.4,180.3,127,176.8z"/>
			<path d="M87.6,188c-2.2,0-4.1-0.1-5.8-0.2c-0.6-0.1-0.9-0.5-1-0.9l-0.7-7.2c0-0.3,0.1-0.6,0.3-0.8c0.2-0.2,0.5-0.3,0.8-0.3
				s38,0.7,45.1-2.6c0.3-0.1,0.8-0.1,1.2,0.1c0.3,0.2,0.5,0.6,0.5,0.9c0,0.2-0.3,4.4-2,7.5c-0.1,0.3-0.5,0.6-0.9,0.6
				C124.1,185.2,101.1,188,87.6,188z M83,185.7c10.6,0.9,37-2.2,41.3-2.7c0.7-1.6,1-3.4,1.3-4.7c-9.4,2.5-36.8,2.3-43.2,2.3
				L83,185.7z"/>
		</g>
		<path style="fill:#DFDFDF;" d="M97.3,136.7c-1.2,0-2.3,0-3.5-0.1c-0.6,0-1-0.6-1-1.1s0.6-1,1.2-1c8.8,0.5,16.8-1,16.9-1.1
			c0.6-0.1,1.2,0.2,1.3,0.8c0.1,0.6-0.2,1.1-0.9,1.3C111,135.6,104.7,136.7,97.3,136.7z"/>
		<g>
			<path style="fill:#3D3D3D;" d="M123.7,158.6c-7.3,2.7-15.2,3-23,3.2c-3.6,0.1-7.4,0.1-10.6-1.4c-0.2-1-0.2-2.4,0.7-2.8
				c0.3-0.1,0.7-0.2,0.9-0.2c6-0.8,12.2-0.2,18.3-0.8c2.9-0.3,5.6-0.9,8.4-1.3c1.2-0.1,4.4-0.7,5.2,0.2
				C123.8,155.9,123.7,158.6,123.7,158.6z"/>
			<path d="M98.2,162.9c-2.9,0-6-0.2-8.6-1.5c-0.3-0.1-0.6-0.5-0.6-0.8c-0.3-1.9,0-3.3,1.3-4c0.5-0.2,1-0.3,1.4-0.3
				c3.2-0.5,6.6-0.5,9.9-0.5c2.8,0,5.8,0,8.5-0.3c1.5-0.1,3-0.5,4.5-0.7c1.4-0.2,2.6-0.5,4-0.6l0.5-0.1c2.3-0.3,4.6-0.6,5.8,0.7
				c0.7,0.8,0.3,3.9,0.2,4c-0.1,0.3-0.3,0.6-0.7,0.8l0,0c-7.5,2.8-16,3.1-23.5,3.3C99.9,162.9,99.1,162.9,98.2,162.9z M91,159.7
				c3,1.3,6.4,1.1,9.6,1c7.4-0.2,15.1-0.3,22.1-2.8c0-0.6,0-1.4,0-1.7c-0.3-0.1-1.3-0.2-3.6,0.1l-0.6,0.1c-1.3,0.1-2.5,0.3-3.9,0.6
				c-1.5,0.2-3,0.5-4.6,0.7c-2.9,0.3-5.9,0.3-8.8,0.3c-3.2,0-6.4,0-9.6,0.5c-0.2,0-0.5,0.1-0.6,0.1C91,158.6,90.9,158.9,91,159.7z
				 M123.7,158.6L123.7,158.6L123.7,158.6z M123.7,158.6L123.7,158.6L123.7,158.6z"/>
		</g>
		<path d="M108.8,169.4c-0.5,0-0.9,0-1.3-0.1c-2.6-0.6-4.5-3.3-3.9-6c0.5-2.3,2.6-4.3,5.2-4.9c2.1-0.5,4,0.1,5.3,1.7
			c0.9,1.1,1.5,2.4,1.5,3.6c0.1,1.5-0.5,2.8-1.5,3.9c-0.9,0.9-2.3,1.5-4,1.7C109.6,169.4,109.1,169.4,108.8,169.4z M110,160.3
			c-0.3,0-0.6,0-0.8,0.1c-1.7,0.3-3.2,1.8-3.6,3.3c-0.3,1.6,0.7,3.3,2.2,3.5c0.5,0.1,1,0.1,1.8,0c1.3-0.2,2.2-0.6,2.8-1.1
			c0.6-0.6,0.9-1.5,0.9-2.3s-0.5-1.7-1-2.5l0,0C111.6,160.5,110.8,160.3,110,160.3z"/>
	</g>
</g>
<g>
	<g>
		<path style="fill:#7D7D7D;" d="M94.5,37.6c0,0-0.6-0.2-1.8-0.6c-11.7-3.4-24.2-3.4-35.9,0c-1.2,0.3-1.8,0.6-1.8,0.6
			S20.3,49.3,20.3,96.4c0,9.6,6.6,19.4,14.4,24c8.6,5.2,19.7,6,29.6,6.8c14.6,1.3,30.2,0.8,44.2-4c7.3-2.5,13.4-7.6,16.9-14.6
			c1.8-3.6,3.6-8.2,3.6-12.3C129,49.3,94.5,37.6,94.5,37.6z"/>
		<path d="M77.7,128.9c-4.3,0-8.8-0.2-13.4-0.6l-1.3-0.1c-9.4-0.8-20.3-1.7-28.8-7c-8.6-5.2-14.9-15.7-14.9-25
			c0-24.6,9.6-39.6,17.5-47.8c8.8-8.9,17.4-11.9,17.7-12.1l0,0c0,0,0.7-0.2,1.8-0.6c12-3.5,24.6-3.5,36.6,0c1.3,0.3,1.8,0.6,1.8,0.6
			c0.8,0.2,35.2,12.9,35.2,59.7c0,4.7-2,9.6-3.7,12.8c-3.6,7.1-9.9,12.4-17.5,15C99.8,127.4,89.5,128.9,77.7,128.9z M74.7,35.5
			c-6,0-11.9,0.8-17.6,2.5c-1.2,0.3-1.7,0.6-1.7,0.6C55,38.7,21.6,50.7,21.6,96.4c0,9.7,7,19,13.8,23.3c8.1,4.9,18.5,5.8,27.9,6.6
			l1.3,0.1c17.3,1.5,31.5,0.2,43.8-4c7.1-2.4,12.9-7.4,16.2-14c2.2-4.3,3.5-8.5,3.5-11.9c0-45.7-33.4-57.7-33.7-57.8l0,0
			c0,0-0.6-0.2-1.7-0.6C86.5,36.3,80.7,35.5,74.7,35.5z"/>
	</g>
	<g>
		<g>
			<path style="fill:#7D7D7D;" d="M9.2,60.5c-0.7,3.1-0.9,6.6,1.5,8.8c1.6,1.5,4,1.8,6.2,1.9c9.3,0.5,18.4-2.8,26.5-7.2
				c6.6-3.5,13-8.4,14.7-15.3c0.3-1.5,0.6-3.2-0.1-4.7c-0.6-1.3-1.7-2.3-2.9-3.2C46.9,34,37.5,27,27.3,33.5
				C18,39.5,11.5,50.3,9.2,60.5z"/>
			<path d="M18.7,72.3c-0.7,0-1.3,0-2,0c-2.1-0.1-5-0.5-6.9-2.3C7.7,68,7,64.8,8,60.2l1,0.2l-1-0.2c2.5-11.3,9.7-21.9,18.7-27.6
				c11.5-7.4,22.1,1.6,29.1,7.4c1,0.9,2.4,2.1,3.1,3.5s0.7,3.2,0.1,5.2c-1.6,5.9-6.6,11.2-15.3,16C34.9,69.9,26.6,72.3,18.7,72.3z
				 M35.8,32c-2.5,0-5.1,0.7-7.7,2.4c-8.5,5.5-15.3,15.5-17.7,26.3l0,0c-0.8,3.8-0.5,6.4,1.2,7.9c1.5,1.4,3.8,1.6,5.5,1.7
				c7.9,0.5,16.3-1.9,25.8-7.1C51,58.8,55.7,54,57.1,48.6c0.5-1.6,0.5-3-0.1-4c-0.5-1.1-1.6-2.1-2.5-2.8C48.3,36.5,42.1,32,35.8,32z
				"/>
		</g>
		<g>
			<path style="fill:#7D7D7D;" d="M140.2,60.5c0.7,3.1,0.9,6.6-1.5,8.8c-1.6,1.5-4,1.8-6.2,1.9c-9.3,0.5-18.4-2.8-26.5-7.2
				c-6.6-3.5-13-8.4-14.7-15.3c-0.3-1.5-0.6-3.2,0.1-4.7c0.6-1.3,1.7-2.3,2.9-3.2c8.2-6.8,17.6-13.9,27.9-7.4
				C131.4,39.5,137.9,50.3,140.2,60.5z"/>
			<path d="M130.6,72.3c-7.8,0-16.1-2.4-25.2-7.4c-8.8-4.8-13.7-10-15.3-16c-0.6-2.1-0.5-3.9,0.1-5.2c0.7-1.5,2.1-2.6,3.1-3.5
				c7-5.9,17.7-14.8,29.1-7.4c9,5.7,16.1,16.3,18.7,27.6c1,4.4,0.3,7.8-1.8,9.8c-2,1.8-5,2.2-6.9,2.3
				C131.9,72.3,131.3,72.3,130.6,72.3z M113.7,32c-6.3,0-12.4,4.6-18.7,9.7c-0.9,0.8-2.1,1.7-2.5,2.8c-0.5,1-0.5,2.3,0,4
				c1.4,5.4,6.1,10.1,14.3,14.6c9.4,5.1,17.8,7.4,25.8,7.1c1.6-0.1,4-0.3,5.5-1.7c1.6-1.5,2.1-4.1,1.2-7.9l0,0
				c-2.4-10.7-9.2-20.9-17.7-26.3C118.8,32.8,116.3,32,113.7,32z"/>
		</g>
	</g>
</g>
<g>
	<g>
		<path style="fill:#B2B2B2;" d="M68.7,102.9c0,0,0.2,0,0.6,0.1c3.6,0.8,7.4,0.8,10.9,0c0.3-0.1,0.6-0.1,0.6-0.1s10.5-2.8,10.5-14.6
			c0,0-0.3-7.2-10.5-7.2h-6h-6c-10.1,0-10.5,7.2-10.5,7.2C58.2,99.9,68.7,102.9,68.7,102.9z"/>
		<path d="M74.7,104.7c-2,0-3.9-0.2-5.8-0.7c-0.3-0.1-0.6-0.1-0.6-0.1l0,0C68,103.8,57,100.5,57,88.4c0-0.1,0.6-8.2,11.6-8.2h12.1
			c11.1,0,11.6,8.1,11.6,8.2c0,12.3-11.2,15.6-11.3,15.6l0,0c0,0-0.2,0.1-0.6,0.1C78.6,104.5,76.6,104.7,74.7,104.7z M68.7,82.2
			c-8.9,0-9.4,5.9-9.4,6.2c0,10.6,9.3,13.3,9.8,13.4l-0.3,1l0.3-1c0,0,0.2,0,0.5,0.1c3.5,0.8,7,0.8,10.5,0c0.3-0.1,0.5-0.1,0.5-0.1
			c0.3-0.1,9.8-2.8,9.8-13.6c0-0.2-0.5-6.2-9.4-6.2H68.7V82.2z"/>
	</g>
	
		<ellipse transform="matrix(0.8891 -0.4577 0.4577 0.8891 -34.5195 41.897)" style="fill:#242424;" cx="69.2" cy="92.2" rx="2.3" ry="3.2"/>
	
		<ellipse transform="matrix(0.4577 -0.8891 0.8891 0.4577 -38.4955 121.342)" style="fill:#242424;" cx="80.2" cy="92.2" rx="3.2" ry="2.3"/>
</g>
<g>
	<ellipse transform="matrix(0.8488 -0.5287 0.5287 0.8488 -32.0926 39.7262)" cx="53.4" cy="76" rx="13.7" ry="11"/>
	<path d="M21,102.4c-0.3,0-0.6-0.1-0.8-0.3c-0.3-0.5-0.3-1.1,0.1-1.5l79.4-63.1c0.5-0.3,1.2-0.3,1.6,0.1c0.3,0.5,0.3,1.1-0.1,1.5
		l-79.4,63.1C21.6,102.4,21.3,102.4,21,102.4z"/>
</g>
<g>
	<g>
		<path style="fill:#FFFFFF;" d="M48.1,104.1c1.3,2.5,4.6,4.8,6.8,5.9c14.9,7.1,35.1,5.2,48-4.6c1.8-1.5,3.5-3.5,2.3-5.8
			c-1.3-2.5-4.8-3.5-7.4-2.3c-1,0.5-2,1.3-2.9,2.1c-6.3,5.1-15,8.5-23.4,7.6c-4.4-0.5-8.4-2.2-11.6-4.9c-3.1-2.6-6.4-6.6-10.7-3.1
			C47.4,100.6,47.3,102.4,48.1,104.1z"/>
		<path d="M74.8,115.3c-7.1,0-14.2-1.5-20.4-4.4c-2.5-1.3-6-3.6-7.4-6.4l0,0c-1.2-2.4-0.6-4.7,1.5-6.4c4.5-3.8,8.3-0.3,11.2,2.2
			c0.3,0.3,0.7,0.7,1,0.9c3.1,2.6,6.9,4.2,11.1,4.7c7.4,0.8,15.8-1.9,22.6-7.4l0.3-0.3c0.8-0.7,1.6-1.4,2.6-1.8
			c1.5-0.7,3.5-0.8,5.2-0.2c1.7,0.6,3,1.6,3.7,3c1.2,2.4,0.3,4.9-2.5,7.1C95.9,112.2,85.3,115.3,74.8,115.3z M49.1,103.7
			c1,2.2,4,4.3,6.3,5.4c14.6,7,34.3,5.1,46.9-4.4c2.1-1.6,2.6-3.1,2-4.6c-0.5-0.9-1.3-1.6-2.4-1.9c-1.2-0.3-2.4-0.3-3.5,0.1
			c-0.8,0.3-1.5,0.9-2.2,1.5l-0.5,0.3c-7.1,5.8-16.2,8.8-24.3,7.9c-4.6-0.5-8.8-2.3-12.2-5.2c-0.3-0.3-0.7-0.7-1.2-0.9
			c-3.2-2.8-5.3-4.4-8.1-2.2C48.7,100.8,48.3,102.1,49.1,103.7L49.1,103.7z"/>
	</g>
	<g>
		<line style="fill:none;" x1="60.1" y1="102" x2="54.9" y2="109.9"/>
		<polygon points="55.9,110.5 54,109.5 59.1,101.5 61,102.5 		"/>
	</g>
	<g>
		<line style="fill:none;" x1="70.1" y1="106.7" x2="69.2" y2="113.9"/>
		<polygon points="70.3,114 68.1,113.8 69,106.6 71.2,106.9 		"/>
	</g>
	<g>
		<line style="fill:none;" x1="82.2" y1="105.9" x2="84.1" y2="113.5"/>
		<polygon points="83.1,113.7 81.1,106.3 83.2,105.7 85.2,113.1 		"/>
	</g>
	<g>
		<line style="fill:none;" x1="92.2" y1="101.4" x2="97" y2="109.1"/>
		<polygon points="96,109.7 91.2,102 93.1,100.9 97.9,108.6 		"/>
	</g>
</g>
<path style="fill:#FFFFFF;stroke:#000000;stroke-width:1.2;stroke-linecap:round;stroke-linejoin:round;stroke-miterlimit:10;" d="
	M87,235.8"/>
<path d="M95.9,77.1c0,1.9-1.6,2.1-3.7,2.1s-3.7-0.2-3.7-2.1s0.6-4,3.7-4C95,73.2,95.9,75.3,95.9,77.1z"/>
<g>
	<g>
		<path style="fill:#C0A27D;" d="M15.9,36c-0.2,0.1-0.5,0.3-0.7,0.6s-0.1,0.9,0.1,1.3c2.6,6.7,10.5,10.6,18,12
			c7.5,1.4,15.3,1,22.9,2.3c5,0.9,9.8,2.5,14.6,3.4C83,57.8,96,56.3,107,51c1.7-0.8,3.6-1.8,5.4-2.3c2.2-0.6,4.6-0.3,6.9-0.7
			c6.1-0.7,11.7-4.4,14.4-9.7c-7.6-3.1-14.9-7.2-21.3-12.1c-0.9-0.7-1.8-1.5-3-1.7c-0.9-0.1-1.7,0-2.6,0.2
			c-10.6,2.1-21.5,3-32.4,3.2c-9,0.2-20.1,1.3-28.8-1.5c-2.3-0.8-4.1-1.7-6.6-1.4c-2.6,0.3-5.5,1.9-7.9,3
			C25.9,30.4,20.8,33.1,15.9,36z"/>
		<path d="M82.1,57.6c-3.9,0-7.7-0.3-11.5-1.1c-2.3-0.5-4.6-1-6.8-1.6c-2.5-0.7-5.2-1.4-7.8-1.8c-3.6-0.7-7.4-0.9-11.1-1.1
			C41,51.8,37,51.5,33,50.7C23.7,49,16.7,44.2,14.2,38c-0.1-0.3-0.5-1.3,0-2.2c0.3-0.5,0.7-0.8,1-0.9l0,0c6-3.4,10.7-5.8,15.4-7.8
			c0.6-0.2,1.2-0.5,1.7-0.8c2.1-0.9,4.4-1.9,6.6-2.3c2.2-0.3,3.9,0.2,5.8,0.9c0.5,0.1,0.9,0.3,1.4,0.5c6.9,2.3,15.8,1.9,23.6,1.6
			c1.6-0.1,3.3-0.1,4.8-0.1c11.6-0.2,22.1-1.3,32.1-3.2c0.9-0.2,2-0.3,3-0.2c1.4,0.2,2.5,1.1,3.6,1.8c6.4,4.9,13.5,9,21.1,12
			c0.2,0.1,0.5,0.3,0.6,0.6c0.1,0.2,0.1,0.6,0,0.8c-2.9,5.5-8.9,9.5-15.3,10.3c-0.9,0.1-1.7,0.1-2.6,0.2c-1.4,0.1-2.8,0.1-4,0.5
			c-1.5,0.3-2.9,1-4.4,1.7l-0.9,0.5C99.7,55.7,90.9,57.6,82.1,57.6z M16.2,37c0,0,0,0.1,0.1,0.3c2.2,5.5,8.6,9.7,17.2,11.3
			c3.8,0.7,7.7,0.9,11.5,1.1c3.7,0.2,7.6,0.5,11.3,1.1c2.8,0.5,5.4,1.1,8.1,1.8c2.2,0.6,4.5,1.1,6.7,1.6c12,2.4,24.6,0.8,35.5-4.3
			l0.8-0.5c1.5-0.7,3.1-1.5,4.8-1.9c1.5-0.3,3-0.5,4.5-0.5c0.8,0,1.6-0.1,2.4-0.2c5.3-0.6,10.4-3.8,13-8.1
			c-7.4-3.1-14.2-7.1-20.4-11.9c-0.9-0.7-1.7-1.3-2.5-1.5c-0.7-0.1-1.4,0-2.2,0.2c-10.1,1.9-20.8,3-32.6,3.2c-1.5,0-3.2,0.1-4.8,0.1
			c-7.9,0.3-17,0.6-24.4-1.7c-0.5-0.1-0.9-0.3-1.5-0.5c-1.6-0.6-3-1-4.6-0.8c-1.8,0.2-4,1.3-6,2.2c-0.6,0.2-1.2,0.6-1.7,0.8
			c-4.6,1.9-9.2,4.3-15.2,7.6l0,0C16.3,36.9,16.2,36.9,16.2,37L16.2,37z"/>
	</g>
	<g>
		<path style="fill:#C0A27D;" d="M39.1,25.2L49,9.5c1-1.6,2.5-2.8,4.3-3.5c6.4-2.7,23.4-8.2,43.2-1.7c2.4,0.8,4.5,2.6,5.5,4.8
			l7.4,15.7C109.5,24.7,74.1,38.5,39.1,25.2z"/>
		<path d="M72,32c-10.4,0-21.9-1.5-33.3-5.8c-0.3-0.1-0.6-0.3-0.7-0.7c-0.1-0.3-0.1-0.6,0.1-0.9L48,8.9c1.2-1.8,2.8-3.2,4.7-4
			C59.3,2.1,76.6-3.5,96.9,3c2.8,0.9,5,2.8,6.2,5.4l7.4,15.7c0.1,0.2,0.1,0.6,0,0.8c-0.1,0.2-0.3,0.5-0.6,0.6
			C109.6,25.7,93.3,32,72,32z M40.7,24.7c30.5,10.9,61.1,1.5,67.2-0.6L101,9.4c-0.9-2.1-2.6-3.5-4.8-4.2C76.6-1.2,60.1,4.3,53.8,6.9
			C52.2,7.6,51,8.6,50,10.1L40.7,24.7z"/>
	</g>
	<g>
		<path style="fill:#C0A27D;" d="M54.9,9.7c0,0,16,7.5,39.6,0"/>
		<path d="M73.7,14.1c-11.6,0-18.9-3.3-19.2-3.5c-0.6-0.2-0.8-0.9-0.5-1.4c0.2-0.6,0.9-0.7,1.5-0.5c0.1,0.1,15.9,7.2,38.8,0
			c0.6-0.2,1.3,0.1,1.4,0.7c0.1,0.6-0.1,1.1-0.7,1.4C86.9,13.3,79.6,14.1,73.7,14.1z"/>
	</g>
</g>
<g>
	<g>
		<path style="fill:#73CEFF;" d="M132.6,182.5c3.4,2.1,7.6,4.1,11.2,2.4c3.8-1.9,4.6-6.9,4.5-11.1c-0.3-9.2-2.6-18.8,0.6-27.5
			c1-2.7,2.5-5.2,3.4-7.9s1.2-5.9-0.3-8.4c-1.5-2.7-4.8-4.1-7.9-4.1c-3.1,0-6.1,1.2-8.8,2.8c-7.7,4.3-13.9,11.2-17.3,19.2
			C110.7,164.4,119.1,173.9,132.6,182.5z"/>
		<path d="M140.8,186.6c-2.5,0-5.4-1.1-8.8-3.2l0,0c-12.5-8-22.9-17.8-15.2-36c3.5-8.3,9.9-15.3,17.8-19.7c3.5-2,6.5-2.9,9.4-2.9
			c0,0,0,0,0.1,0c3.8,0,7.2,1.8,8.8,4.6c1.4,2.4,1.5,5.7,0.3,9.2c-0.5,1.5-1.2,3-1.8,4.4c-0.5,1.2-1.1,2.4-1.6,3.6
			c-2.2,6.1-1.6,12.9-1,19.5c0.2,2.5,0.5,5.1,0.5,7.6c0.2,6.2-1.6,10.4-5.1,12.1C143.2,186.3,142,186.6,140.8,186.6z M133.1,181.6
			c4.3,2.8,7.7,3.5,10.1,2.3c3.4-1.7,4-6.4,3.9-10.1c-0.1-2.5-0.3-5-0.5-7.5c-0.6-6.8-1.3-13.9,1.2-20.4c0.5-1.3,1.1-2.5,1.6-3.8
			c0.7-1.4,1.3-2.7,1.8-4.1c0.6-1.7,1.3-4.9-0.2-7.5c-1.2-2.2-4-3.5-7-3.5l0,0c-2.5,0-5.1,0.8-8.3,2.6c-7.5,4.2-13.5,10.8-16.9,18.7
			C112,164,119.7,172.9,133.1,181.6L133.1,181.6z"/>
	</g>
	<g>
		<path style="fill:#73CEFF;" d="M59.1,108.5c2.4-2.9,7-2.6,10.5-1.1c3.5,1.4,6.7,3.7,10.5,4.1c2.7,0.3,5.5-0.6,8.2-1
			s5.8-0.2,7.8,1.6c1.5,1.4,2.2,3.6,3.6,5.1c2.4,2.5,6.6,2.9,8.4,5.8c1.2,1.9,1,4.4-0.2,6.3c-1.2,1.9-3,3.3-5,4.2
			c-8.6,4.1-18.9,1.2-27.8-2.4C68.1,128.3,50.5,118.7,59.1,108.5z"/>
		<path d="M93.5,136.6c-6.5,0-13.1-2.2-18.7-4.5c-1.7-0.7-16.5-6.9-18.8-15.7c-0.8-3,0-5.9,2.3-8.6l0,0c2.9-3.4,8.1-2.9,11.7-1.4
			c1.1,0.5,2.2,1,3.2,1.5c2.3,1.2,4.5,2.3,6.9,2.5c1.8,0.2,3.6-0.2,5.5-0.5c0.8-0.2,1.6-0.3,2.4-0.4c3.8-0.5,6.8,0.1,8.7,1.9
			c0.9,0.9,1.5,1.9,2.1,2.9c0.5,0.8,1,1.6,1.6,2.2c0.9,1,2.2,1.6,3.6,2.3c1.9,0.9,3.8,1.8,4.9,3.7c1.3,2.1,1.3,5-0.1,7.4
			c-1.1,1.9-2.9,3.5-5.5,4.7C100.2,136,96.9,136.6,93.5,136.6z M59.9,109.2L59.9,109.2c-1.8,2.2-2.4,4.4-1.8,6.7
			c1.6,6.4,11.8,12,17.5,14.3c8.1,3.2,18.4,6.5,26.9,2.4c2.1-1,3.7-2.3,4.5-3.8c1-1.7,1.1-3.8,0.2-5.2c-0.8-1.3-2.4-2.1-4.1-2.9
			c-1.5-0.7-3-1.5-4.2-2.7c-0.8-0.8-1.3-1.7-1.9-2.6c-0.5-0.9-1-1.8-1.7-2.4c-1.8-1.7-4.8-1.7-6.9-1.4c-0.8,0.1-1.6,0.3-2.3,0.4
			c-2,0.4-4,0.8-6.1,0.6c-2.8-0.3-5.3-1.5-7.7-2.7c-1-0.5-2.1-1-3.1-1.5C66,107.1,61.9,106.8,59.9,109.2z"/>
	</g>
	<path style="fill:#488BF3;" d="M49.2,177.3l0.7,0.2c16.4,3.8,32.3,3.7,45.9-0.1c11.5-3.2,20.5-7.7,27-13.2c4.5-3.8,6.4-8,5.8-12.3
		c-1.9-12.8-25.1-24-32.2-27.1c-20.5-9.1-42.5-11-62-5.5c-5.4,1.5-10.5,3.6-15.3,6.2c-6.2,3.4-19,10.3-18.1,18.5
		c0.3,2.3,1.7,4.3,3.1,6.1C14.5,163.1,30.6,172.8,49.2,177.3L49.2,177.3z"/>
	<path style="fill:#73CEFF;" d="M40.8,175c19.5-28.8,6.5-58.2,6.3-58.5c0,0-28.6,3.7-43.7,20.1c0,0-6.1,6.1,0.6,13.3
		c0,0,8.3,10.3,18.8,16.5c0,0,10.4,6.4,15.5,7.5L40.8,175z"/>
	<path d="M73.6,181.1c-7.7,0-15.7-0.9-23.9-2.8l-0.7-0.2c-18.9-4.5-35.1-14.3-45.7-27.6c-1.6-2-3-4.1-3.3-6.6
		c-1-8.8,12.2-16,18.6-19.4c4.9-2.6,10.1-4.8,15.5-6.3c19.7-5.6,42-3.6,62.6,5.5c7.2,3.2,30.8,14.6,32.7,27.8
		c0.7,4.7-1.4,9.1-6.1,13.1c-6.6,5.6-15.8,10.1-27.3,13.4C89.1,180.1,81.5,181.1,73.6,181.1z M49.4,176.4l0.7,0.2
		c16.3,3.7,32,3.7,45.5-0.1c11.3-3.2,20.3-7.6,26.7-13.1c4.2-3.6,6.1-7.5,5.5-11.5c-1.8-12.3-24.7-23.4-31.7-26.5
		c-20.3-9-42.1-10.9-61.4-5.4c-5.3,1.5-10.4,3.6-15.2,6.2c-6,3.3-18.5,10-17.7,17.7c0.2,2,1.5,3.9,2.9,5.7
		C15.1,162.4,31,172,49.4,176.4z"/>
	<ellipse cx="29.8" cy="138" rx="5.9" ry="5.8"/>
	<g>
		<g>
			<path style="fill:#73CEFF;" d="M72,134.3c-0.4,0.1-0.7,0.3-1.1,0.5c-6.2,2.6-11.1,8.4-11.5,15.3c-0.6,8.9,17.7,13.3,24.5,13.4
				c2,0,4-0.2,5.7-1.1c4.1-2.4,0.8-6.1,3.4-9.4c1.1-1.4,2.4-2.9,2.4-4.7c-0.1-1.8-1.6-3.2-1.7-5c-0.2-2.4,2.3-4.6,1.9-7
				c-0.4-2.3-3.1-3.3-5.4-3.7C84.1,131.5,77.7,132.1,72,134.3z"/>
			<path d="M84.2,164.5c-0.1,0-0.2,0-0.3,0c-5.2-0.1-17.8-2.7-23.1-8.4c-1.8-1.9-2.6-4-2.4-6.1c0.5-6.9,5.3-13.2,12.2-16.2
				c0.4-0.2,0.8-0.3,1.1-0.5l0,0c5.9-2.3,12.4-2.9,18.7-1.9c3.6,0.6,5.9,2.3,6.3,4.6c0.3,1.6-0.4,3-1,4.2c-0.5,1-0.9,1.9-0.9,2.8
				c0,0.7,0.4,1.4,0.7,2.1c0.4,0.9,0.9,1.8,1,2.9c0.1,2.1-1.2,3.7-2.3,5.1l-0.3,0.3c-0.9,1.2-0.9,2.5-0.9,3.9c0,1.9,0,4.2-2.8,5.8
				C88.1,164.4,85.8,164.5,84.2,164.5z M72.4,135.3c-0.4,0.1-0.7,0.3-1.1,0.4c-6.2,2.6-10.5,8.3-10.9,14.4c-0.1,1.6,0.5,3.1,1.9,4.6
				c4.7,5,16.4,7.7,21.6,7.7c1.4,0,3.5-0.1,5.1-1c1.8-1,1.8-2.2,1.8-4c0-1.5,0-3.4,1.4-5.2l0.3-0.3c0.9-1.2,1.9-2.4,1.9-3.7
				c0-0.7-0.4-1.4-0.7-2.1c-0.4-0.8-0.9-1.8-1-2.9c-0.1-1.4,0.5-2.7,1.1-3.9c0.5-1.1,1-2.1,0.8-3c-0.3-2-3.3-2.7-4.5-2.9
				C84.1,132.5,78,133.2,72.4,135.3z"/>
		</g>
		<path d="M87.1,144L87.1,144c-2.7-0.3-5.4-0.3-8-0.1c-0.6,0.1-1.1-0.4-1.2-1s0.4-1.1,1-1.1c2.8-0.2,5.6-0.2,8.3,0.1
			c0.6,0.1,1,0.6,0.9,1.2C88.1,143.6,87.7,144,87.1,144z"/>
		<path d="M88.6,151.9c-0.1,0-0.1,0-0.2,0l-15.2-2.8c-0.6-0.1-1-0.7-0.9-1.2c0.1-0.6,0.7-1,1.2-0.8l15.2,2.8c0.6,0.1,1,0.7,0.9,1.2
			C89.5,151.6,89.1,151.9,88.6,151.9z"/>
	</g>
</g>
<g>
	<path style="fill:#7D7D7D;" d="M21.7,181.4c5,1.8,10.9,2.2,15.5-0.5s7.2-9,4.5-13.6c-3.9-6.8-19.5-16-27.4-11.3
		C2.5,163.2,12.2,177.9,21.7,181.4z"/>
	<path d="M29.5,183.9c-2.6,0-5.4-0.5-8.1-1.5l0,0c-5.9-2.2-12.7-9-13.4-16.3c-0.3-3.2,0.5-7.7,6-11c2.7-1.6,6.3-1.9,10.6-0.8
		c7.2,1.8,15.3,7.4,18.2,12.5c3.1,5.4-0.1,12.2-4.9,15C35.4,183.2,32.5,183.9,29.5,183.9z M22.1,180.4c5.4,2,10.8,1.8,14.7-0.4
		c4-2.3,6.6-8,4.2-12.2c-2.3-4.1-9.7-9.6-17-11.5c-2.6-0.7-6.2-1.1-9,0.6c-3.7,2.2-5.3,5.3-5,9C10.6,172.2,16.7,178.5,22.1,180.4
		L22.1,180.4z"/>
</g>
<g>
	<path style="fill:#7D7D7D;" d="M118.3,189.3c-5,1.8-10.9,2.2-15.5-0.5s-7.2-9-4.5-13.6c3.9-6.8,19.5-16,27.4-11.3
		C137.6,171,127.8,185.8,118.3,189.3z"/>
	<path d="M110.6,191.7c2.6,0,5.4-0.5,8.1-1.5l0,0c5.9-2.2,12.7-9,13.4-16.3c0.3-3.2-0.5-7.7-6-11c-2.7-1.6-6.3-1.9-10.6-0.8
		c-7.2,1.8-15.3,7.4-18.2,12.5c-3.1,5.4,0.1,12.2,4.9,15C104.6,191,107.5,191.7,110.6,191.7z M118,188.3c-5.4,2-10.8,1.8-14.7-0.4
		c-4-2.3-6.6-8-4.2-12.2c2.3-4.1,9.7-9.6,17-11.5c2.6-0.7,6.2-1.1,9,0.6c3.7,2.2,5.3,5.3,5,9C129.4,180,123.3,186.3,118,188.3
		L118,188.3z"/>
</g>
</svg>
