<?xml version="1.0" encoding="UTF-8"?>
<svg xmlns="http://www.w3.org/2000/svg" version="1.1" viewBox="0 0 390 390">
  <defs>
    <style>
      .cls-1 {
        fill: #12295d;
      }

      .cls-2 {
        fill: #86d145;
      }

      .cls-3 {
        fill: #868686;
      }

      .cls-4 {
        fill: #3d3d3d;
      }

      .cls-5 {
        fill: #9a0000;
      }

      .cls-6 {
        fill: #fff;
      }

      .cls-7 {
        fill: #ffc800;
      }

      .cls-8 {
        fill: #5cab18;
      }

      .cls-9 {
        fill: #ff7467;
      }

      .cls-10 {
        fill: #c4b380;
      }

      .cls-11 {
        fill: red;
      }

      .cls-12 {
        fill: #dadada;
      }

      .cls-13 {
        fill: #c96d00;
      }
    </style>
  </defs>
  <!-- Generator: Adobe Illustrator 28.7.1, SVG Export Plug-In . SVG Version: 1.2.0 Build 142)  -->
  <g>
    <g id="_레이어_1" data-name="레이어_1">
      <g>
        <path class="cls-1" d="M277.9,125.3c-4.7,4.9-5.5,9.9-4,16.3,1.5,6.4,4.4,12.8,9.9,16.8,1.1.8,2.3,1.5,3.6,1.8,1.3.3,2.7,0,4-.3,8.2-1.8,16.6-5.2,23.2-10.4,3.3-2.5,6.6-5.1,9.1-8.5.8-1.1,1.6-2.4,1.9-3.8.4-1.9-.2-4-.9-5.8-3.5-9.1-11.4-16-20.2-18.5-4.5-1.3-9-1.8-13,.8-5,3.2-9.6,7.2-13.7,11.5h0,0Z"/>
        <path d="M288.6,161.6c-.5,0-1,0-1.4-.1-1.7-.3-3.2-1.3-4.1-2-5-3.7-8.5-9.6-10.4-17.6-1.7-7.3-.4-12.6,4.3-17.5l.9.9-.9-.9c4.6-4.8,9.3-8.8,13.9-11.7,4.7-3,10-2.1,14-.9,9.4,2.7,17.5,10,21,19.3.7,1.8,1.4,4.1.9,6.5-.4,1.8-1.3,3.2-2.1,4.3-2.6,3.6-6.1,6.2-9.4,8.8-6.4,5-14.8,8.7-23.8,10.6-1,.2-2,.4-3.1.4h0s0,0,0,0ZM298.2,113.3c-2,0-4,.4-5.9,1.6-4.4,2.8-9,6.6-13.5,11.3h0c-4.1,4.3-5.2,8.7-3.7,15.2,1.7,7.3,4.9,12.8,9.4,16.1,1.2.9,2.1,1.4,3.1,1.5,1.1.2,2.4,0,3.5-.3,8.6-1.8,16.7-5.4,22.7-10.1,3.2-2.5,6.4-5,8.9-8.3.6-.9,1.4-2,1.6-3.3.4-1.7-.2-3.6-.8-5.1-3.3-8.5-10.7-15.3-19.3-17.7-1.9-.5-4-1-6.1-1h0Z"/>
      </g>
      <g>
        <g>
          <path class="cls-1" d="M271.6,137.7c2.6-1.6,5.1-3.2,7.7-4.8-2.3-6.7-1.2-18.1-1.2-18.8-2.2,1.6-4.2,3.3-6,5.2-2.4,2.5-4.3,4-4,7.3.4,3.6,2.6,7.6,3.5,11.1h0Z"/>
          <path d="M279.3,132.9l-1.2-18.8c0,.7-1.2,12.1,1.2,18.8Z"/>
          <path class="cls-5" d="M288.5,127.2c.2-.1.3-.2.4-.4.2-.3.1-.7,0-1-1.1-5.7-1.4-11.5-1.1-17.3,0,.5-7.2,3.8-8.1,4.4-.6.4-1.1.8-1.6,1.2h0s1.2,18.8,1.2,18.8c3.1-1.9,6.1-3.8,9.2-5.7h0Z"/>
        </g>
        <g>
          <path d="M271.6,139c-.2,0-.3,0-.5,0-.4-.1-.7-.5-.8-.9-.4-1.3-.9-2.7-1.5-4.2-.9-2.3-1.8-4.7-2.1-7.1-.4-3.6,1.6-5.6,3.8-7.8l.6-.6c1.9-1.9,4-3.7,6.2-5.3,0,0,0,0,0,0l.7,1-.7-1s0,0,0,0h0c.6-.4,1.1-.8,1.7-1.2.4-.3,1.4-.8,3.2-1.7,1.5-.8,4-2,4.6-2.5.2-.3.7-.5,1.1-.5.7,0,1.2.6,1.2,1.3-.3,5.7,0,11.4,1.1,17,0,.5.2,1.2-.3,1.9-.3.4-.6.6-.8.7l-9.2,5.7c-2.6,1.6-5.1,3.2-7.7,4.8-.2.1-.4.2-.7.2h0ZM279,115c0,0-.1,0-.2.1-2.1,1.5-4,3.2-5.9,5l-.6.6c-2.2,2.2-3.3,3.4-3.1,5.7.2,2,1.1,4.3,1.9,6.4.4.9.7,1.9,1,2.8,2.1-1.3,4.2-2.6,6.3-3.9l9.1-5.7s0,0,0,0c-.9-5-1.3-10.1-1.2-15.2-.8.4-1.8.9-3.1,1.6-1.2.6-2.6,1.3-2.9,1.5-.5.3-1,.7-1.4,1h0ZM286.6,108.4h0Z"/>
          <path d="M279.3,134.2c-.5,0-1-.3-1.2-.9-2.5-7.2-1.2-19.2-1.2-19.3,0-.7.7-1.2,1.4-1.1.7,0,1.2.7,1.1,1.4,0,.1-1.2,11.6,1.1,18.2.2.7-.1,1.4-.8,1.6-.1,0-.3,0-.4,0h0Z"/>
          <path d="M279.3,134.2c-.7,0-1.2-.5-1.3-1.2l-1.2-18.8s0,0,0-.1c0-.7.6-1.2,1.3-1.2.7,0,1.2.6,1.2,1.3l1.2,18.7c0,.7-.5,1.3-1.2,1.4,0,0,0,0,0,0h0Z"/>
        </g>
      </g>
      <g>
        <path class="cls-2" d="M59,338c-.4,1.4-.4,2.8.5,4.2,2.9,4.3,14.3,2.5,18.3,1.6,57.4-12.6,113.4-35.4,159-72.5,3.1-2.5,6.2-5.2,7.6-8.9,1.4-3.5.9-7.5.3-11.2-1.7-9.5-5-19.1-11.6-26.2-26-28-61.3,24.2-80.7,40.2-16.1,13.2-32.6,25.9-49.4,38.3-8.4,6.2-16.8,12.3-25.3,18.4-4.2,3-8.5,6.1-12.7,9.1-2,1.5-5,4.3-5.9,7.2h0Z"/>
        <path d="M68,346.2c-4,0-7.9-.7-9.6-3.3-1-1.5-1.3-3.3-.6-5.3,1-3.1,4-6.1,6.4-7.8,4.2-3,8.5-6.1,12.7-9.1,9.8-7.1,17.8-12.9,25.2-18.4,19.2-14.2,34.8-26.3,49.3-38.2,4.2-3.4,9.2-8.7,14.6-14.3,14.6-15.3,32.8-34.3,50-34.3h.2c6.5,0,12.5,2.9,17.7,8.5,6,6.4,9.9,15.2,12,26.9.7,3.9,1.1,8.1-.3,11.9-1.5,3.9-4.6,6.7-8,9.4-42.1,34.3-95.7,58.8-159.5,72.8-1.9.4-6,1.2-10,1.2h0ZM60.2,338.4c-.4,1.2-.3,2.2.3,3.1,1.9,2.9,9.9,2.6,17,1.1,63.4-13.9,116.7-38.2,158.4-72.3,3.1-2.5,5.9-5,7.2-8.4,1.2-3.3.8-7,.2-10.6-2-11.2-5.7-19.5-11.3-25.6-4.8-5.1-10-7.7-15.9-7.7h-.2c-16,0-33.8,18.6-48.1,33.5-5.4,5.7-10.5,11-14.8,14.5-14.5,12-30.2,24.1-49.4,38.3-7.4,5.5-15.5,11.3-25.3,18.4-4.2,3-8.5,6.1-12.7,9.1-2,1.5-4.7,4-5.5,6.5h0Z"/>
      </g>
      <g>
        <path class="cls-8" d="M156.6,293.2c-.5,0-.9-.3-1.1-.7-3.8-7.5-4.4-16.4-1.8-24.4.2-.7.9-1,1.6-.8.7.2,1,.9.8,1.6-2.4,7.3-1.8,15.5,1.6,22.4.3.6,0,1.4-.6,1.7-.2,0-.4.1-.6.1h0Z"/>
        <path class="cls-8" d="M174.6,288.1c-.4,0-.7-.2-1-.5-6.7-8.1-8.7-19.6-5.1-29.5.2-.7,1-1,1.6-.8.7.2,1,1,.8,1.6-3.3,9-1.5,19.6,4.7,27,.5.5.4,1.3-.2,1.8-.2.2-.5.3-.8.3h0Z"/>
      </g>
      <path d="M179.6,264.7c3.3,7.7,8.8,14.2,14.8,20.1,5,4.9,10.5,9.3,16.5,12.9,7.9,4.8,17.1,5.7,26.2,5.5,7.9-.2,18.8-.3,26-4.1,5.8-3.1,11.1-7.2,16-11.6,5.8-5.3,11.2-11.1,14.7-18.2,7.7-15.6,4.4-34.2-.9-50.7-3.6-11.2-8.3-22.6-17.1-30.4-6.9-6.2-15.9-9.7-24.9-11.9-21.1-5.1-53.5-3.4-66.1,17.9-4.8,8-5.6,19.8-7.2,28.8-2.5,13.8-3.8,28.5,1.9,41.7h0Z"/>
      <g>
        <g>
          <path class="cls-4" d="M200.1,245.9c15.3,6.2,32.2,6.2,48.3,5,12.6-.9,27.1-2.3,35-14.6,3.7-5.7,5.4-13.2,3.4-19.9-2-6.8-7.4-11.8-13.3-15.3-12.7-7.6-27.9-9-42.4-8.7-7.1.2-14.3.7-21.1,3-9.4,3.1-23.4,12.1-26.7,22.9-3.2,10.6,3,20.9,11.8,25.3,1.6.8,3.3,1.5,4.9,2.2h0Z"/>
          <path d="M233.5,252.8c-11.2,0-22.9-1.3-33.9-5.7h0c-1.7-.7-3.4-1.4-5-2.2-11.8-5.9-15.2-18-12.5-26.9,3.6-11.8,18.8-20.8,27.5-23.7,7.3-2.4,14.9-2.9,21.4-3.1,11.6-.3,28.7.4,43.1,8.9,5,3,11.5,8.2,13.8,16,2,6.6.6,14.4-3.5,20.9-8.4,13.1-24.4,14.3-36,15.2-4.8.4-9.8.6-14.9.6h0ZM234.9,193.8c-1.3,0-2.6,0-3.8,0-6.3.1-13.7.6-20.7,2.9-8.8,2.9-22.7,11.7-25.9,22-2.4,7.9.7,18.6,11.2,23.8,1.6.8,3.2,1.5,4.8,2.2h0c15.6,6.3,32.9,6,47.7,4.9,11.7-.9,26.3-1.9,34.1-14,3.8-5.9,5-12.9,3.2-18.8-2.1-7-8-11.8-12.7-14.5-12.3-7.3-26.9-8.6-38-8.6h0Z"/>
        </g>
        <g>
          <path class="cls-1" d="M280.4,227.9c6.5-7.9,10.1-18.6,12.7-29.2,1.3-5.4,1.3-11.1,1.9-16.6.6-5.8.1-11.7-.3-17.5-.3-3.6-.5-7.2-1.2-10.8-1.7-8.6-5.9-16.5-10.8-23.7-2.6-3.8-4.4-5.9-8.8-7.6-4-1.6-8.4-2.4-12.7-2.4-6.8,0-13.6-2.7-20.6-3.2-8.1-.5-16.4.1-24.3,1.8-4.6,1-8.8,3.8-13.3,4.7-4.3.8-7.5.1-11.7,2.7-6.4,3.8-12.6,8.3-17.1,14.2-6.2,8.2-3.8,24.2-2.2,33.6,1.9,11.1-.2,22.1,5.5,32.6,4.8,8.8,10.3,17.2,16.6,24.9,6.4,8,16.2,8,26.1,8.5,9.1.4,18.3.6,27.4.5,4.9,0,9.7-.2,14.5-1.3,8-1.8,13.9-5.9,18.4-11.4h0s0,0,0,0Z"/>
          <path d="M241.6,241.9c-7.2,0-14.4-.2-21.6-.5h-1.4c-9.4-.5-19.1-1-25.6-9-6.2-7.7-11.8-16.1-16.7-25.1-3.9-7.1-4.2-14.6-4.6-21.8-.2-3.7-.4-7.5-1-11.2-2.1-11.9-3.7-26.5,2.4-34.6,5.2-6.8,12.4-11.6,17.4-14.6,3.1-1.9,5.7-2.1,8.5-2.4,1.2-.1,2.4-.2,3.6-.5,2.2-.4,4.3-1.3,6.5-2.3,2.2-.9,4.4-1.9,6.8-2.4,8.2-1.7,16.5-2.4,24.7-1.9,3.4.2,6.6.9,9.8,1.6,3.7.8,7.2,1.5,10.7,1.6,4.5,0,9,.9,13.1,2.5,4.8,1.9,6.8,4.3,9.4,8.1,5.9,8.5,9.5,16.4,11,24.2.7,3.6,1,7.4,1.2,11,.4,5.8.9,11.8.3,17.7-.2,1.6-.3,3.2-.4,4.8-.3,4-.6,8.1-1.5,12-2.3,9.3-5.9,21-13,29.7h0c-5.1,6.1-11.5,10.1-19.1,11.8-4.9,1.1-9.8,1.2-14.7,1.3-2,0-3.9,0-5.9,0h0ZM235.1,118.1c-6.2,0-12.5.7-18.7,2-2.1.5-4.2,1.3-6.3,2.2-2.3,1-4.6,2-7,2.4-1.4.3-2.7.4-3.9.5-2.5.2-4.7.4-7.4,2-7.7,4.6-13,9-16.7,13.9-6.2,8.2-3.1,26-2,32.6.7,3.9.9,7.8,1.1,11.5.4,7.2.7,14.1,4.3,20.7,4.8,8.9,10.4,17.2,16.5,24.7,5.8,7.1,14.5,7.6,23.7,8h1.4c9.1.5,18.2.7,27.3.6,4.9,0,9.6-.2,14.2-1.2,7.2-1.6,12.9-5.2,17.7-10.9h0c6.8-8.2,10.2-19.6,12.5-28.7.9-3.8,1.2-7.8,1.5-11.6.1-1.6.2-3.2.4-4.8.6-5.7.1-11.5-.3-17.2-.3-3.6-.5-7.2-1.2-10.7-1.5-7.4-4.9-15-10.6-23.2-2.6-3.8-4.2-5.6-8.2-7.1-3.9-1.5-8-2.3-12.2-2.3-3.8,0-7.6-.8-11.2-1.6-3.1-.7-6.3-1.4-9.5-1.6-1.8-.1-3.5-.2-5.3-.2h0s0,0,0,0Z"/>
        </g>
        <path d="M241.4,239.5l-2.5-.3c2.1-19.2.7-38.9-.7-57.9-.8-11.1-1.6-22.6-1.7-33.9h2.5c.1,11.2.9,22.6,1.7,33.7,1.3,19.1,2.7,38.9.6,58.4h0s0,0,0,0Z"/>
        <g>
          <g>
            <path class="cls-7" d="M279.1,166c-10.1,1.9-13.8-1.7-13.8-1.7,0,0-2.1,4.7-12.3,6.6,0,0,4.3,24.5,17.6,22.1,13.3-2.5,8.5-26.9,8.5-26.9h0Z"/>
            <path d="M268.7,194.4c-2.2,0-4.3-.7-6.2-2-8-5.5-10.7-20.6-10.8-21.3-.1-.7.3-1.3,1-1.5,9.2-1.7,11.4-5.8,11.4-5.9.2-.4.5-.6.9-.7.4,0,.8,0,1.1.3,0,0,3.5,3.1,12.7,1.4.7-.1,1.4.3,1.5,1,.1.6,3,15.8-2.5,23.8-1.7,2.5-4.1,4.1-7.1,4.7-.7.1-1.4.2-2.1.2ZM254.5,171.9c.8,3.6,3.6,14.4,9.5,18.4,2,1.4,4.1,1.8,6.3,1.4,2.3-.4,4.1-1.6,5.4-3.6,4-5.9,2.8-16.9,2.3-20.6-6.8,1-10.7-.4-12.5-1.4-1.3,1.6-4.4,4.3-11.1,5.8h0Z"/>
          </g>
          <g>
            <path class="cls-13" d="M273.5,181.3c.5,2.5-1.6,3.4-4.4,3.9s-5,.3-5.5-2.1c-.5-2.5,1.4-4.8,4.1-5.4s5.3,1.1,5.7,3.5h0Z"/>
            <g>
              <ellipse class="cls-13" cx="261.6" cy="178.5" rx="1.6" ry="1.9" transform="translate(-28.2 50.7) rotate(-10.5)"/>
              <ellipse class="cls-13" cx="273.7" cy="176.3" rx="1.6" ry="1.9" transform="translate(-27.5 52.8) rotate(-10.5)"/>
            </g>
            <g>
              <ellipse class="cls-13" cx="264.9" cy="175.2" rx="1.6" ry="1.9" transform="translate(-27.5 51.2) rotate(-10.5)"/>
              <ellipse class="cls-13" cx="269.5" cy="174.3" rx="1.6" ry="1.9" transform="translate(-27.3 52) rotate(-10.5)"/>
            </g>
          </g>
        </g>
        <g>
          <g>
            <path class="cls-1" d="M200.6,147.2c5.9,4.4,14.7,10.2,21.1,12.7,1.3.5,2.7,1,4.1.8,1.7-.3,11.5-13.5,12-13.1,4,3.6,5.3,7.6,9.2,11.3.3.3.7.6,1.1.7.5.1,1.1,0,1.6-.2,10.6-3.9,21.1-10.7,25.7-21.6,2.7-6.5.3-16.5-3.7-21.8-5.5-7.4-15.1-10.4-24.3-11.7-9.9-1.4-20.2-1.4-30.1-.2-11.1,1.3-16.3,4.6-23.4,13.7-9.7,12.4-4.5,21.1,6.7,29.5h0Z"/>
            <path d="M225.1,162.1c-1.4,0-2.7-.5-3.8-.9-6.6-2.6-15.6-8.6-21.4-12.9-7.6-5.7-11.4-10.8-12.2-16.3-.6-4.8,1.1-9.7,5.2-15,7.4-9.5,13.1-12.8,24.2-14.1,10.3-1.2,20.6-1.1,30.5.2,12,1.7,20.3,5.7,25.1,12.2,4.2,5.6,6.8,16,3.9,23.1-5.1,12.2-17.2,18.8-26.4,22.2-.7.2-1.4.5-2.3.3-.7-.2-1.3-.6-1.7-1-2-1.9-3.3-3.8-4.6-5.7-1.1-1.7-2.2-3.3-3.7-4.8-.8.9-2.2,2.6-3.4,4-5.3,6.4-7.1,8.4-8.4,8.7-.3,0-.7,0-1,0h0ZM201.4,146.2c5.6,4.2,14.4,10,20.8,12.6,1.1.4,2.3.9,3.3.7,1-.6,4.7-5.1,7-7.8,4-4.9,4.4-5.3,5.3-5.4h.5s.4.3.4.3c2.1,1.9,3.5,4,4.9,6,1.3,1.9,2.5,3.6,4.3,5.3.1.1.4.4.6.4.2,0,.6-.1.8-.2,8.8-3.2,20.2-9.5,25-20.9,2.5-6,.2-15.5-3.6-20.6-4.4-6-12.1-9.6-23.4-11.2-9.7-1.3-19.7-1.4-29.8-.2-10.5,1.2-15.5,4.2-22.5,13.2-3.7,4.8-5.3,9.1-4.7,13.1.6,4.7,4.2,9.4,11.2,14.6h0s0,0,0,0Z"/>
          </g>
          <g>
            <path class="cls-10" d="M251.5,153.3c-.4,0-.9-.1-1.2-.4-.4-.3-1.1-1-.9-2.5,0-.4,0-.6,0-.7,0,0,0,0,0,0,0,0-.4,0-.6-.1-.2,0-.4-.1-.6-.2-1-.4-1.2-1.1-1.2-1.4,0-.4,0-.9.6-1.5.5-.4,1-.8,1.5-1.1,0-.6,0-1.3.1-2,0-.7.4-1.1.7-1.2.2-.1.5-.2.8-.2s.6,0,.7.2c.3.1.7.4,1.1.6.3.2.8.5,1,.5h0c.1,0,.3,0,.5,0,.3,0,.7-.2,1.1-.2s.3,0,.3,0c1.3.2,2.3,1.2,2.3,2.4,0,.9-.5,1.6-.9,2,.1.1.2.2.3.3.7.8.9,1.8.5,2.7-.2.5-.8,1.2-2.3,1.2s-.5,0-.7,0h-.8c-.2.3-.4.7-.8,1.1-.5.5-1.1.7-1.8.7h0Z"/>
            <path d="M250.8,143.2c0,0,.1,0,.2,0,.7.3,1.6,1.1,2.4,1.2,0,0,.2,0,.2,0,.5,0,1-.3,1.6-.3s.1,0,.2,0c.6,0,1.2.5,1.2,1.1,0,.8-1,1.4-1.2,2.2.3.4.7.6,1,1s.5.8.3,1.3c-.2.4-.7.5-1.2.5s-.4,0-.5,0c-.4,0-.8-.1-1.2-.2,0,0-.1,0-.2,0s-.1,0-.2,0c-.1,0-.2.2-.3.3-.2.4-.4.9-.8,1.2-.2.2-.6.4-.9.4s-.3,0-.5-.1c-.4-.3-.4-.8-.3-1.3s.2-1,0-1.4c-.3-.7-1.2-.7-2-1-.2,0-.4-.2-.4-.4,0-.2.1-.3.2-.4.6-.5,1.2-1,1.9-1.3,0-.9,0-1.7,0-2.6,0-.1,0-.2.1-.3,0,0,0,0,.1,0M250.8,140.6c-.5,0-1,.1-1.4.4-.4.3-1.2.9-1.3,2.2,0,.5,0,.9,0,1.4-.4.3-.8.6-1.1.9-1.1,1-1.1,2-1,2.6.1,1.1.9,2.1,2.1,2.5,0,0,.2,0,.3,0,0,1.4.4,2.5,1.4,3.3.6.4,1.2.6,2,.6s1.9-.4,2.7-1.1c.2-.2.4-.5.6-.7.3,0,.5,0,.8,0,2.2,0,3.2-1.4,3.4-1.9.6-1.1.4-2.5-.4-3.6.3-.5.5-1.2.5-2,0-1.8-1.5-3.4-3.4-3.6-.2,0-.3,0-.5,0-.6,0-1.1.1-1.5.2,0,0,0,0,0,0-.2,0-.3-.2-.5-.3-.4-.2-.8-.5-1.2-.7-.4-.2-.8-.3-1.2-.3h0Z"/>
          </g>
          <g>
            <path class="cls-10" d="M222.3,154.9c-.4,0-.9-.1-1.2-.4-.4-.3-1.1-1-.9-2.5,0-.4,0-.6,0-.7,0,0,0,0,0,0,0,0-.4,0-.6-.1-.2,0-.4-.1-.6-.2-1-.4-1.2-1.1-1.2-1.4,0-.4,0-1,.6-1.5.5-.4,1-.8,1.5-1.1,0-.7,0-1.3.1-2,0-.7.4-1.1.7-1.2.2-.1.5-.2.8-.2s.6,0,.7.2c.3.1.7.4,1.1.6.3.2.8.5,1,.5h0c.1,0,.3,0,.5,0,.3,0,.7-.2,1.1-.2s.3,0,.3,0c1.3.2,2.3,1.2,2.3,2.4,0,.9-.5,1.6-.9,2,.1.1.2.2.3.3.7.8.9,1.8.5,2.7-.2.5-.8,1.2-2.3,1.2s-.5,0-.7,0h-.8c-.2.3-.4.7-.8,1.1-.5.5-1.1.8-1.8.8h0Z"/>
            <path d="M221.6,144.8c0,0,.1,0,.2,0,.7.3,1.6,1.1,2.4,1.2,0,0,.2,0,.2,0,.5,0,1-.3,1.6-.3s.1,0,.2,0c.6,0,1.2.5,1.2,1.1,0,.8-1,1.4-1.2,2.2.3.4.7.6,1,1s.5.8.3,1.3c-.2.4-.7.5-1.2.5s-.4,0-.5,0c-.4,0-.8-.1-1.2-.2,0,0-.1,0-.2,0s-.1,0-.2,0c-.1,0-.2.2-.3.3-.2.4-.4.9-.8,1.2-.2.2-.6.4-.9.4s-.3,0-.5-.1c-.4-.3-.4-.8-.3-1.3s.2-1,0-1.4c-.3-.7-1.2-.7-2-1-.2,0-.4-.2-.4-.4,0-.2.1-.3.2-.4.6-.5,1.2-1,1.9-1.3,0-.9,0-1.7,0-2.6,0-.1,0-.2.1-.3,0,0,0,0,.1,0M221.6,142.3c-.5,0-1,.1-1.4.4-.4.3-1.2.9-1.3,2.2,0,.5,0,.9,0,1.4-.4.3-.8.6-1.1.9-1.1,1-1.1,2-1,2.6.1,1.1.9,2.1,2.1,2.5,0,0,.2,0,.3,0,0,1.4.4,2.5,1.4,3.3.6.4,1.2.6,2,.6s1.9-.4,2.7-1.1c.2-.2.4-.5.6-.7.3,0,.5,0,.8,0,2.2,0,3.2-1.4,3.4-1.9.6-1.1.4-2.5-.4-3.6.3-.5.5-1.2.5-2,0-1.8-1.5-3.4-3.4-3.6-.2,0-.3,0-.5,0-.6,0-1.1.1-1.5.2,0,0,0,0,0,0-.2,0-.4-.2-.5-.3-.4-.2-.8-.5-1.2-.7-.4-.2-.8-.3-1.2-.3h0Z"/>
          </g>
          <g>
            <path class="cls-10" d="M209.1,147.2c-.4,0-.8-.1-1.1-.4-.4-.3-1-.9-.8-2.2,0-.1,0-.2,0-.3,0,0-.2,0-.3,0-.2,0-.3-.1-.5-.2-.6-.2-1.1-.7-1.2-1.4,0-.4,0-.9.6-1.4.3-.3.7-.6,1.1-.8,0-.5,0-.9,0-1.4,0-.7.4-1,.7-1.2.2-.1.5-.2.8-.2s.5,0,.7.1c.3.1.6.3.9.5.2.1.6.4.7.4,0,0,.2,0,.3,0,.3,0,.6-.2,1-.2s.3,0,.3,0c1.2.1,2,1.1,2.1,2.1,0,.7-.3,1.2-.6,1.6,0,0,0,0,0,0,.7.7.8,1.7.5,2.4-.2.4-.7,1.1-2,1.1s-.4,0-.6,0h-.4c-.1.2-.3.5-.6.7-.4.4-1,.7-1.6.7h0Z"/>
            <path d="M208.5,139c0,0,.1,0,.2,0,.6.2,1.3.8,1.9,1,0,0,.1,0,.2,0,.4,0,.8-.2,1.3-.2s0,0,.1,0c.5,0,.9.4.9.9,0,.7-.8,1.1-1,1.7.2.3.5.5.8.8s.4.7.3,1c-.2.3-.5.4-.9.4s-.3,0-.4,0c-.3,0-.6,0-.9-.1,0,0-.1,0-.2,0s-.1,0-.2,0c-.1,0-.2.1-.2.2-.2.3-.3.7-.6,1-.2.2-.4.3-.7.3s-.3,0-.4-.1c-.3-.2-.3-.7-.3-1,0-.4.1-.8,0-1.1-.3-.5-1-.6-1.5-.8-.1,0-.3-.1-.3-.3,0-.1,0-.3.2-.3.4-.4,1-.8,1.5-1,0-.7,0-1.4,0-2,0,0,0-.2,0-.2,0,0,0,0,0,0M208.5,136.4c-.5,0-1,.2-1.4.4-.4.3-1.2.9-1.3,2.1,0,.3,0,.6,0,.8-.2.2-.5.4-.7.6-1,.9-1.1,2-1,2.5.1,1.1.8,1.9,1.8,2.3,0,1.1.5,2,1.3,2.6.5.4,1.2.6,1.9.6s1.8-.4,2.5-1c.1-.1.2-.2.3-.4.1,0,.3,0,.4,0,2.1,0,2.9-1.3,3.2-1.8.5-1,.4-2.1-.1-3.1.2-.4.3-.9.3-1.5,0-1.7-1.4-3.1-3.2-3.4-.2,0-.3,0-.5,0-.4,0-.8,0-1.1.1,0,0-.1,0-.2-.1-.3-.2-.6-.4-1-.6-.4-.2-.8-.3-1.2-.3h0Z"/>
          </g>
          <g>
            <path class="cls-10" d="M198.4,139.1c-.4,0-.8-.1-1.1-.4-.4-.3-1-.9-.8-2.2,0-.1,0-.2,0-.3,0,0-.2,0-.3,0-.2,0-.3,0-.5-.2-.9-.3-1.1-1.1-1.2-1.4,0-.4,0-.9.6-1.4.3-.3.7-.6,1.1-.8,0-.5,0-.9,0-1.4,0-.7.4-1,.7-1.2.2-.1.5-.2.8-.2s.5,0,.7.1c.3.1.6.3.9.5.2.1.6.4.7.4,0,0,.2,0,.3,0,.3,0,.6-.2,1-.2s.3,0,.3,0c1.2.1,2,1.1,2.1,2.1,0,.7-.3,1.2-.6,1.6,0,0,0,0,0,0,.6.7.8,1.7.5,2.4-.2.4-.8,1.1-2.1,1.1s-.4,0-.6,0h-.4c-.1.2-.3.5-.6.8-.4.4-1,.7-1.6.7h0Z"/>
            <path d="M197.8,130.9c0,0,.1,0,.2,0,.6.2,1.3.8,1.9,1,0,0,.1,0,.2,0,.4,0,.8-.2,1.3-.2s0,0,.1,0c.5,0,.9.4.9.9,0,.7-.8,1.1-1,1.7.2.3.5.5.8.8s.4.7.3,1c-.2.3-.5.4-.9.4s-.3,0-.4,0c-.3,0-.6,0-.9-.1,0,0-.1,0-.2,0s-.1,0-.2,0c-.1,0-.2.1-.2.2-.2.3-.3.7-.6,1-.2.2-.4.3-.7.3s-.3,0-.4-.1c-.3-.2-.3-.7-.3-1,0-.4.1-.8,0-1.1-.3-.5-1-.6-1.5-.8-.1,0-.3-.1-.3-.3,0-.1,0-.2.2-.3.4-.4,1-.8,1.5-1,0-.7,0-1.4,0-2,0,0,0-.2,0-.2,0,0,0,0,0,0M197.8,128.3c-.5,0-1,.2-1.4.4-.4.3-1.2.9-1.3,2.1,0,.3,0,.6,0,.9-.2.2-.5.4-.7.6-1,.9-1.1,2-1,2.5.1,1.1.8,1.9,1.8,2.3,0,1.1.5,2,1.3,2.6.5.4,1.2.6,1.9.6s1.8-.4,2.5-1c.1-.1.2-.2.3-.4.1,0,.3,0,.4,0,2.1,0,2.9-1.3,3.2-1.8.5-1,.4-2.1-.1-3.1.2-.4.3-.9.3-1.5,0-1.7-1.4-3.1-3.2-3.4-.2,0-.3,0-.5,0-.4,0-.8,0-1.1.1,0,0-.1,0-.2-.1-.3-.2-.6-.4-1-.6-.4-.2-.8-.3-1.2-.3h0Z"/>
          </g>
          <g>
            <path class="cls-10" d="M270.3,136.5c-.4,0-.8-.1-1.1-.4-.4-.3-1-.9-.8-2.2,0-.1,0-.2,0-.3,0,0-.2,0-.3,0-.2,0-.3-.1-.5-.2-.9-.3-1.1-1.1-1.2-1.4,0-.4,0-.9.6-1.4.3-.3.7-.6,1.1-.8,0-.5,0-.9,0-1.4,0-.7.4-1,.7-1.2.2-.1.5-.2.7-.2s.5,0,.7.2c.3.1.6.3.9.5.2.1.6.4.7.4,0,0,.1,0,.3,0,.3,0,.6-.2,1-.2s.3,0,.3,0c1.2.1,2,1.1,2.1,2.1,0,.7-.3,1.2-.6,1.6,0,0,0,0,0,0,.7.7.8,1.7.4,2.4-.2.4-.7,1.1-2,1.1s-.4,0-.6,0h-.4c-.1.2-.3.5-.6.8-.4.4-1,.7-1.6.7h0s0,0,0,0Z"/>
            <path d="M269.8,128.3c0,0,.1,0,.2,0,.6.2,1.3.8,1.9,1,0,0,.1,0,.2,0,.4,0,.8-.2,1.3-.2s0,0,.1,0c.5,0,.9.4.9.9,0,.7-.8,1.1-1,1.7.2.3.5.5.8.8.2.3.4.7.3,1-.2.3-.5.4-.9.4s-.3,0-.4,0c-.3,0-.6,0-.9-.1,0,0-.1,0-.2,0s-.1,0-.2,0c-.1,0-.2.1-.2.2-.2.3-.3.7-.6,1-.2.2-.4.3-.7.3s-.3,0-.4-.1c-.3-.2-.3-.7-.3-1s.1-.8,0-1.1c-.3-.5-1-.6-1.5-.8-.1,0-.3-.1-.3-.3,0-.1,0-.2.2-.3.4-.4,1-.8,1.5-1,0-.7,0-1.4,0-2,0,0,0-.2,0-.2,0,0,0,0,0,0M269.8,125.8c-.5,0-1,.2-1.4.4-.4.3-1.2.9-1.3,2.1,0,.3,0,.6,0,.9-.2.2-.5.4-.7.6-1,.9-1.1,2-1,2.5.1,1.1.8,1.9,1.8,2.3,0,1.1.5,2,1.3,2.6.5.4,1.2.6,1.9.6s1.8-.4,2.5-1c.1-.1.2-.2.3-.4.1,0,.3,0,.4,0,2.1,0,2.9-1.3,3.2-1.8.5-1,.4-2.1-.1-3.1.2-.4.3-.9.3-1.5,0-1.7-1.4-3.1-3.2-3.4-.2,0-.3,0-.5,0-.4,0-.8,0-1.1.1,0,0-.1,0-.2-.1-.3-.2-.6-.4-1-.6-.4-.2-.8-.3-1.2-.3h0Z"/>
          </g>
          <g>
            <path class="cls-10" d="M262.8,145.6c-.4,0-.8-.1-1.1-.4-.4-.3-1-.9-.8-2.2,0-.1,0-.2,0-.3,0,0-.2,0-.3,0-.2,0-.3-.1-.5-.2-.9-.3-1.1-1.1-1.2-1.4,0-.4,0-.9.6-1.4.3-.3.7-.6,1.1-.8,0-.5,0-.9,0-1.4,0-.7.4-1,.7-1.2.2-.1.5-.2.8-.2s.5,0,.7.1c.3.1.6.3.9.5.2.1.6.4.7.4,0,0,.2,0,.3,0,.3,0,.6-.2,1-.2s.3,0,.3,0c1.2.1,2,1.1,2.1,2.1,0,.7-.3,1.2-.6,1.6,0,0,0,0,0,0,.7.7.8,1.7.5,2.4-.2.4-.7,1.1-2,1.1s-.4,0-.6,0h-.4c-.1.2-.3.5-.6.7-.4.4-1,.7-1.6.7h0s0,0,0,0Z"/>
            <path d="M262.3,137.4c0,0,.1,0,.2,0,.6.2,1.3.8,1.9,1,0,0,.1,0,.2,0,.4,0,.8-.2,1.3-.2s0,0,.1,0c.5,0,.9.4.9.9,0,.7-.8,1.1-1,1.7.2.3.5.5.8.8.2.3.4.7.3,1-.2.3-.5.4-.9.4s-.3,0-.4,0c-.3,0-.6,0-.9-.1,0,0-.1,0-.2,0s-.1,0-.2,0c-.1,0-.2.1-.2.2-.2.3-.3.7-.6,1-.2.2-.4.3-.7.3s-.3,0-.4-.1c-.3-.2-.3-.7-.3-1,0-.4.1-.8,0-1.1-.3-.5-1-.6-1.5-.8-.1,0-.3-.1-.3-.3,0-.1,0-.3.2-.3.4-.4,1-.8,1.5-1,0-.7,0-1.4,0-2,0,0,0-.2,0-.2,0,0,0,0,0,0M262.3,134.9c-.5,0-1,.2-1.4.4-.4.3-1.2.9-1.3,2.1,0,.3,0,.6,0,.8-.2.2-.5.4-.7.6-1,.9-1.1,2-1,2.5.1,1.1.8,1.9,1.8,2.3,0,1.1.5,2,1.3,2.6.5.4,1.2.6,1.9.6s1.8-.4,2.5-1c.1-.1.2-.2.3-.4.1,0,.3,0,.4,0,2.1,0,2.9-1.3,3.2-1.8.5-1,.4-2.1-.1-3.1.2-.4.3-.9.3-1.5,0-1.7-1.4-3.1-3.2-3.4-.2,0-.3,0-.5,0-.4,0-.8,0-1.1.1,0,0-.1,0-.2-.1-.3-.2-.6-.4-1-.6-.4-.2-.8-.3-1.2-.3h0Z"/>
          </g>
        </g>
        <g>
          <path class="cls-3" d="M244.1,239l-13,.4c-1.6,0-2.8,1.4-2.8,3l.3,7.9c0,1.6,1.4,2.8,3,2.8l13-.4c1.6,0,2.8-1.4,2.8-3l-.3-7.9c0-1.6-1.4-2.8-3-2.8ZM243.2,247.7c0,.8-.6,1.4-1.5,1.4l-7.4.3c-.9,0-1.6-.6-1.6-1.3v-3.6c-.1-.8.5-1.4,1.4-1.4l7.4-.3c.9,0,1.6.6,1.6,1.3v3.6Z"/>
          <path d="M231.5,254.5c-2.2,0-4.1-1.8-4.1-4l-.3-7.9c0-1.1.4-2.2,1.1-3s1.8-1.3,2.9-1.3l13-.4h0c2.3,0,4.2,1.7,4.3,4l.3,7.9c0,1.1-.4,2.2-1.1,3s-1.8,1.3-2.9,1.3l-13,.4s0,0-.1,0h0ZM244.2,240.3l-13,.4c-.4,0-.8.2-1.1.5s-.4.7-.4,1.1l.3,7.9c0,.9.7,1.6,1.7,1.5l13-.4c.9,0,1.6-.8,1.5-1.7l-.3-7.9c0-.9-.7-1.5-1.6-1.5h0,0ZM234.2,250.7c-.7,0-1.3-.2-1.9-.7-.6-.5-.9-1.2-1-1.9v-3.6c-.1-.7.2-1.4.7-2,.5-.5,1.2-.8,1.9-.8l7.4-.3c.7,0,1.4.2,2,.6.6.5.9,1.2,1,1.9v3.6c.1.7-.2,1.4-.7,2-.5.5-1.2.8-1.9.8l-7.4.2s0,0-.1,0h0ZM241.5,244.1h0l-7.4.3c-.2,0-.3,0-.3.1v3.6c.1,0,.2,0,.4,0l7.4-.2c.2,0,.3,0,.3-.1v-3.6c-.1,0-.2,0-.4,0h0ZM241.9,247.7h0Z"/>
        </g>
        <g>
          <rect class="cls-3" x="240.6" y="244.3" width="9.6" height="3.1" rx="1.5" ry="1.5" transform="translate(-8.2 8.5) rotate(-2)"/>
          <path d="M242.2,248.8c-1.5,0-2.8-1.2-2.8-2.7,0-1.6,1.2-2.9,2.7-2.9l6.5-.2c1.5,0,2.9,1.2,2.9,2.7,0,.8-.2,1.5-.8,2s-1.2.9-2,.9h0l-6.5.2h0ZM248.7,247.3h0,0ZM248.7,245.5h0l-6.5.2c-.1,0-.3.1-.3.3,0,.1.1.3.3.3l6.5-.2c0,0,.2,0,.2,0,0,0,0-.1,0-.2,0-.1-.1-.3-.3-.3h0Z"/>
        </g>
      </g>
      <g>
        <path d="M169.1,291.8c-1.7,9.8-2.7,20.1-.2,29.7,3.3,12.4,11.9,22.2,17.4,33.6,2.3,4.8,2.6,13.8,8.6,14.5,4.1.5,12.1.5,15.9-.6,1.6-.5,3.1-1.4,4.5-2.2.6-.4,1.2-.7,1.6-1.3.6-.9.6-2.1.5-3.1-1.7-13.5-13.3-24.6-13.6-38.7-.1-7.5,5.2-13.7,8.5-20.4,5.5-11,5.7-24.5.5-35.6-4-8.5-18-25.5-29.1-20-10.4,5.2-13,34-14.7,44.1h0Z"/>
        <g>
          <path class="cls-4" d="M169.8,354.9c5.5-4,12.2-6.1,18.9-7.2,6-.9,12.3-1,17.8,1.5,7,3.2,13.9,8.1,18.2,14.6,3.1,4.6,6.1,12.5,3.9,18.1-2,5-8.1,6-12.9,6-16.2,0-32.5,0-48.7,0-2,0-4.1,0-5.9-1.1-11.1-6.8,2.2-27.4,8.6-32h0Z"/>
          <path d="M166.8,389.3c-1.9,0-4.3,0-6.2-1.3-3-1.9-4.7-4.9-4.9-8.7-.4-9.5,8.5-21.9,13.4-25.4h0c5.1-3.7,11.7-6.2,19.5-7.4,7.5-1.2,13.5-.6,18.5,1.6,8,3.6,14.7,8.9,18.8,15,2.7,4,6.6,12.7,4,19.3-1.8,4.5-6.5,6.8-14.1,6.8h-48.7c0,0-.3,0-.3,0h0ZM170.6,355.9h0c-4.5,3.3-12.6,15-12.3,23.3.1,3,1.3,5.2,3.6,6.6,1.3.8,3,.9,5.2.9h48.7c6.4,0,10.4-1.8,11.7-5.3,1.9-4.9-.6-12.2-3.7-17-3.8-5.7-10.1-10.7-17.7-14.1-4.5-2-10.1-2.5-17.1-1.4-7.4,1.1-13.6,3.5-18.4,7h0Z"/>
        </g>
      </g>
      <g>
        <path d="M303.2,291.8c1.7,9.8,2.7,20.1.2,29.7-3.3,12.4-11.9,22.2-17.4,33.6-2.3,4.8-2.6,13.8-8.6,14.5-4.1.5-12.1.5-15.9-.6-1.6-.5-3.1-1.4-4.5-2.2-.6-.4-1.2-.7-1.6-1.3-.6-.9-.6-2.1-.5-3.1,1.7-13.5,13.3-24.6,13.6-38.7.1-7.5-5.2-13.7-8.5-20.4-5.5-11-5.7-24.5-.5-35.6,4-8.5,18-25.5,29.1-20,10.4,5.2,13,34,14.7,44.1h0Z"/>
        <g>
          <path class="cls-4" d="M302.4,354.9c-5.5-4-12.2-6.1-18.9-7.2-6-.9-12.3-1-17.8,1.5-7,3.2-13.9,8.1-18.2,14.6-3.1,4.6-6.1,12.5-3.9,18.1,2,5,8.1,6,12.9,6,16.2,0,32.5,0,48.7,0,2,0,4.1,0,5.9-1.1,11.1-6.8-2.2-27.4-8.6-32h0Z"/>
          <path d="M305.5,389.3h-49c-7.6,0-12.3-2.4-14.1-6.9-2.6-6.6,1.3-15.2,4-19.3,4.1-6.1,10.7-11.4,18.8-15,5-2.2,11-2.8,18.5-1.6,7.8,1.2,14.3,3.7,19.5,7.4,4.9,3.6,13.7,15.9,13.4,25.4-.1,3.8-1.8,6.8-4.9,8.7-2,1.2-4.3,1.3-6.2,1.3h0ZM276.5,348.4c-3.9,0-7.3.7-10.3,2-7.6,3.4-13.9,8.4-17.7,14.1-3.2,4.7-5.7,12-3.7,17,1.3,3.4,5.3,5.2,11.7,5.2h48.7c2.1,0,3.8,0,5.2-.8,2.3-1.4,3.5-3.6,3.6-6.6.3-8.2-7.8-20-12.3-23.3h0c-4.8-3.5-11-5.8-18.4-7-2.4-.4-4.7-.6-6.8-.6h0Z"/>
        </g>
      </g>
      <g>
        <g>
          <path class="cls-2" d="M201.8,116.4c.9,3.3,2,6.7,4.3,9.3,4.1,4.7,8.9,4.6,14.3,6,6.2,1.6,12.7,6.5,17.6,10.5-.5-.4,12.5-8.2,13.8-8.7,4.7-1.9,9-3.7,12.3-7.7,3.8-4.6,6.2-10.2,8-15.9,5.9-18.8.4-45.6-11.8-61.2-8-10.3-21.5-17.2-34.3-14.4-38.6,8.3-32,53.7-24.2,82.1h0s0,0,0,0Z"/>
          <path d="M237.8,143.5c-.3,0-.6,0-.8-.3h0c-4.8-4-11.2-8.7-17.1-10.3-1.1-.3-2.3-.5-3.4-.7-4.2-.8-8.1-1.6-11.5-5.6-2.4-2.8-3.6-6.4-4.5-9.8h0c-8.3-30.1-8.1-52.7.6-67.1,5.2-8.6,13.4-14.2,24.5-16.6,12.3-2.6,26.5,3.3,35.5,14.9,12.6,16.2,17.9,43.6,12,62.3-2.2,6.9-4.8,12.1-8.2,16.3-3.5,4.2-7.9,6-12.5,8h-.3c-1.1.6-11.6,6.9-13.1,8.3,0,0,0,.2-.2.2-.3.3-.6.5-1,.5h0,0ZM203,116.1c.9,3.1,1.9,6.4,4,8.9,2.9,3.4,6.2,4,10.1,4.8,1.1.2,2.3.5,3.5.8,6,1.6,12.3,6.1,17.2,10,.9-.7,2.7-1.9,5.9-3.8,3-1.9,6.7-4,7.5-4.4h.3c4.5-2,8.5-3.6,11.5-7.4,3.2-3.9,5.7-8.8,7.8-15.4,5.7-18,.6-44.4-11.6-60-8.4-10.8-21.7-16.4-33-14-10.4,2.2-18.1,7.4-22.9,15.4-8.3,13.6-8.4,36.2-.4,65.1h0Z"/>
        </g>
        <g>
          <path class="cls-2" d="M275.4,16.6c.3,1.9.4,3.9.3,5.9,0,1.5-.8,4-.3,5.4.6,1.7,3,3.6,4,5.2,1,1.7,1.9,3.5,3,5.3,2.3,3.9,4.9,7.6,7.4,11.3,3.5,5.3,5.9,11.1,7.1,17.3,1.4,7.1,1.4,14.4,1.4,21.6,0,2.8,0,5.9-2,7.9-1.4,1.4-3.8,3.1-5.8,3.6,0,3.4.2,7.4-2,10-4.7,5.7-13.2,6.2-20.6,6.2-3.2,0-6.5,0-9.6-.7-11.2-2.5-20.4-10.4-29.7-17.2-5.5-4-13.3-3.9-18.7-8.1-3.2-2.5-5.2-6.2-6.8-9.9-3.7-8.7-5.9-18-6.4-27.5-.7-12.3,4.5-24.4,11-34.6,2.9-4.6,6-9.5,10.5-12.7,6.9-5,16.1-4.6,23.3-.8,1,.5,2,1.1,2.9,1.7,1.3,1,1.4,1.8,3.1,1.8,1.7,0,3.3,0,5,.2.2,0,.4,0,.6,0,.5-.2.6-.7.8-1.2.5-1.4,2.1-2.4,3.3-3.1,1.1-.6,2.5-.4,3.8-.4,2.8,0,5.7.4,8.2,1.9,2.4,1.4,4.1,3.8,5.2,6.4.6,1.4.9,2.8,1.2,4.3h0s0,0,0,0Z"/>
          <path d="M266.7,117.7c-2.9,0-5.8,0-8.7-.7-9.8-2.2-18-8.3-26-14.3-1.4-1-2.8-2.1-4.2-3.1-2.5-1.8-5.6-2.8-8.8-3.7-3.4-1-7-2.1-9.9-4.4-3.5-2.8-5.6-6.8-7.2-10.4-3.8-8.9-6-18.3-6.5-27.9-.6-10.8,3.2-22.7,11.2-35.4,2.8-4.5,6.1-9.6,10.8-13.1,6.7-4.9,16.4-5.3,24.7-.9h.1c1,.6,2,1.1,3,1.8.5.3.8.7,1,.9.5.5.6.6,1.3.6h1.1c1.3,0,2.5,0,3.9.2,0,0,0,0,0-.1v-.2c.6-1.4,1.9-2.6,4-3.8,1.2-.6,2.5-.6,3.6-.5.3,0,.5,0,.8,0,2.4,0,5.8.3,8.8,2,2.5,1.5,4.5,4,5.7,7,.6,1.4,1,3,1.3,4.6h0c.3,1.8.4,3.8.3,6.1,0,.6-.1,1.3-.2,2-.2,1.1-.4,2.4-.2,3,.2.7,1.2,1.7,2,2.6.7.8,1.4,1.6,1.9,2.3.6.9,1.1,1.9,1.6,2.9.4.8.9,1.6,1.4,2.4,1.9,3.2,4.1,6.4,6.1,9.5l1.2,1.7c3.6,5.3,6,11.3,7.3,17.8,1.4,7.3,1.4,14.7,1.5,21.9,0,3.2-.2,6.4-2.4,8.7-1.3,1.3-3.4,2.9-5.4,3.7h0c0,3.4,0,7.2-2.3,9.9-5.1,6.1-13.8,6.7-21.6,6.7-.4,0-.8,0-1.2,0h0ZM230,3.3c-4.1,0-8,1.2-11.1,3.4-4.4,3.2-7.4,8.1-10.2,12.4-7.7,12.2-11.3,23.6-10.8,33.9.5,9.3,2.6,18.4,6.3,27,1.4,3.3,3.3,7,6.4,9.4,2.6,2,5.7,2.9,9.1,4,3.3,1,6.7,2,9.5,4.1,1.4,1,2.8,2.1,4.2,3.1,7.7,5.8,15.7,11.8,25,13.8,3,.7,6.2.7,9.3.7,7.2,0,15.3-.5,19.6-5.8,1.7-2,1.7-5.2,1.7-8.2v-1c0-.6.4-1.1,1-1.2,1.7-.4,3.9-2,5.2-3.3,1.6-1.6,1.7-4.3,1.7-7,0-7.1,0-14.4-1.4-21.4-1.2-6.2-3.5-11.8-6.9-16.9l-1.2-1.7c-2.1-3.1-4.3-6.3-6.2-9.6-.5-.8-.9-1.7-1.4-2.5-.5-.9-1-1.9-1.6-2.8-.3-.6-1-1.3-1.6-1.9-1-1.1-2.1-2.3-2.5-3.5-.4-1.2-.2-2.8,0-4.2.1-.6.2-1.2.2-1.7,0-2.1,0-3.9-.3-5.6h0c-.2-1.4-.6-2.8-1.1-4-1-2.5-2.7-4.6-4.7-5.8-1.9-1.1-4.3-1.7-7.5-1.7h0c-.3,0-.6,0-.9,0-.9,0-1.7,0-2.3.2-1.5.8-2.5,1.6-2.8,2.4v.2c-.2.5-.6,1.4-1.5,1.7-.5.2-.9.1-1.1,0-1.2-.1-2.4-.2-3.7-.2h-1.2c-1.7,0-2.4-.8-3-1.4-.2-.2-.5-.5-.8-.7-.7-.6-1.7-1.1-2.6-1.5h-.1c-3.5-1.9-7.2-2.8-10.9-2.8,0,0,0,0,0,0Z"/>
        </g>
        <path d="M273,101.3c-1,0-2.1-.2-3.4-.6-.7-.2-1.4-.5-2.1-.8-1.2-.5-2.4-1-3.6-1.1-1.3,0-2.6.3-4,.7-2.2.6-4.6,1.3-7,0-.8-.4-1.4-.9-2-1.5-.4-.4-.9-.8-1.3-1-1.4-.8-3.3-.6-5.2-.4-1.3.2-2.7.3-4.1.2-4.7-.5-8.2-4.5-10.3-7.5-2.4-3.3-4-6.9-5.5-10.3-1.1-2.6-2.2-5-3.6-7.3-2.5-4.2-7.9-3.4-12.9-2-.7.2-1.4-.2-1.6-.9s.2-1.4.9-1.6c3.6-1,12-3.2,15.8,3.2,1.4,2.4,2.6,5,3.7,7.5,1.5,3.3,3,6.8,5.2,9.8,1.9,2.6,4.8,6.1,8.6,6.5,1.1.1,2.3,0,3.6-.2,2.3-.3,4.6-.5,6.8.7.7.4,1.2.9,1.7,1.3.5.4,1,.8,1.4,1.1,1.4.7,3.2.3,5.1-.3,1.5-.4,3.1-.8,4.8-.7,1.6.1,3,.7,4.4,1.3.6.3,1.3.5,1.9.7,3.3,1.1,5.2,0,8.2-1.5l.8-.4c2.2-1.1,4.2-1.2,5.9-.3,2.4,1.3,5.1.8,9.1-1.6.6-.4,1.4-.2,1.8.4.4.6.2,1.4-.4,1.8-3.4,2.1-7.5,3.9-11.6,1.7-1.2-.7-2.9,0-3.5.4l-.8.4c-2.2,1.1-4.3,2.2-6.8,2.2h0Z"/>
        <path d="M243.5,32.5c-.2,0-.3,0-.5-.1-.6-.3-.9-1-.7-1.7,1.4-3.2,7.3-13.2,26-7.8,2.7.8,5.6,3,8,4.9.4.3.7.6,1.1.8.6.4.7,1.2.2,1.8-.4.6-1.2.7-1.8.2-.3-.3-.7-.5-1.1-.8-2.2-1.7-4.9-3.8-7.1-4.4-4.2-1.2-18.3-4.3-23,6.4-.2.5-.7.8-1.2.8h0Z"/>
        <path d="M265.8,74.5c-.4,0-.8-.2-1-.5-1-1.3-2.4-2.2-4.1-2.5-.7-.1-1.2-.8-1-1.5.1-.7.8-1.2,1.5-1,2.3.4,4.3,1.7,5.7,3.5.4.6.3,1.4-.3,1.8-.2.2-.5.2-.7.2h0Z"/>
        <path d="M285,72c-.3,0-.5,0-.7-.2-.6-.4-.7-1.2-.3-1.8,1.1-1.6,2.9-2.7,4.8-3,.7-.1,1.4.3,1.5,1,.1.7-.3,1.4-1,1.5-1.2.2-2.4.9-3.1,2-.2.3-.6.5-1,.5h0Z"/>
        <g>
          <path class="cls-6" d="M226.9,15.4c-.4,0-.9,0-1.1.4-.1.2-.2.5-.2.7,0,4,3.6,7.5,7.7,8,4.1.5,8.4-1.9,10.2-5.7,2-4.3-2.3-3.7-5.2-3.6-3.8,0-7.6.1-11.4.2h0Z"/>
          <path d="M234.4,25.8c-.4,0-.8,0-1.3,0-4.9-.6-8.8-4.8-8.8-9.3,0-.3,0-.9.4-1.4.6-.9,1.7-.9,2.1-.9h0c3.8,0,7.6-.1,11.4-.2.3,0,.6,0,.9,0,2.1,0,4.6-.2,5.6,1.5.7,1,.6,2.3-.2,4-1.8,3.9-6,6.5-10.2,6.5ZM226.9,16.7c.1,3.2,3.1,6.1,6.5,6.6,3.5.4,7.4-1.7,8.9-4.9.5-1,.4-1.4.4-1.5-.3-.5-2.5-.4-3.4-.3-.3,0-.6,0-.9,0-3.8,0-7.6.1-11.4.2h0,0Z"/>
        </g>
        <path d="M235.8,21.9c-.8,2.4-3,2.1-5.3,1.3s-4.1-1.9-3.2-4.3c.8-2.4,3.4-3.6,5.8-2.8,2.4.8,3.6,3.4,2.8,5.8Z"/>
        <g>
          <path class="cls-6" d="M271.7,13.4c.4,0,.9,0,1.1.4.1.2.2.4.2.7.1,4-3.5,7.6-7.5,8.2-3.5.5-6.2-1.4-7.7-4.5-.5-1-1.7-4.4.3-4.6,4.5-.4,9.1-.1,13.6-.1,0,0,0,0,0,0Z"/>
          <path d="M264.4,24.1c-3.3,0-6.1-1.9-7.7-5.3-.3-.6-1.5-3.5-.5-5.3.4-.7,1-1.1,1.9-1.1,3.2-.3,6.4-.2,9.6-.2,1.4,0,2.8,0,4.1,0h0c.4,0,1.5,0,2.1.9.4.5.4,1.1.4,1.4.1,4.5-3.7,8.8-8.6,9.5-.4,0-.9,0-1.3,0h0ZM258.3,14.8c0,.5.2,1.7.7,2.8,1.3,2.8,3.6,4.2,6.3,3.8,3.5-.5,6.3-3.6,6.4-6.7h0c-1.4,0-2.8,0-4.2,0-3.1,0-6.2-.1-9.2.2h0ZM271.7,14.4h0Z"/>
        </g>
        <path d="M257.9,17.8c-.7,2.4,1.5,3.6,3.9,4.4s4.1.7,4.8-1.7c.7-2.4-.6-4.9-3-5.7-2.4-.7-4.9.6-5.7,3h0Z"/>
        <path class="cls-8" d="M228.1,110.2c-5,0-10-.7-14.7-2.1-.7-.2-1.3-.4-2-.6-1.9-.6-3.8-1.2-5.6-1.5-.7,0-1.2-.7-1.1-1.4,0-.7.7-1.2,1.4-1.1,2.1.3,4.1.9,6.1,1.6.7.2,1.3.4,2,.6,6.4,1.9,13.4,2.5,20,1.7.7,0,1.3.4,1.4,1.1,0,.7-.4,1.3-1.1,1.4-2.1.3-4.2.4-6.4.4h0,0Z"/>
        <path class="cls-8" d="M220,116.2c-.1,0-.3,0-.4,0-3.1-1-6.3-1.8-9.5-2.5-.7-.1-1.1-.8-1-1.5s.8-1.1,1.5-1c3.3.7,6.5,1.6,9.7,2.6.7.2,1,.9.8,1.6-.2.5-.7.9-1.2.9h0Z"/>
        <path class="cls-8" d="M228.6,129.4c-7.6,0-15.1-2.4-21.3-6.9-.6-.4-.7-1.2-.3-1.8.4-.6,1.2-.7,1.8-.3,7.1,5.2,16.4,7.4,25.1,6,.7-.1,1.4.4,1.5,1.1.1.7-.4,1.3-1.1,1.5-1.9.3-3.8.5-5.7.5Z"/>
        <path class="cls-6" d="M220.6,36.1c-.9,0-1.8-.3-2.5-.8-1.2-.9-1.8-2.5-1.7-4.6,0-.4,0-.8,0-1.2,0-.8.1-1.6,0-2.3-.1-.7.3-1.4,1-1.5.7-.1,1.4.3,1.5,1,.2,1.1.1,2.1,0,3.1,0,.4,0,.7,0,1.1,0,.7,0,1.9.7,2.5.6.5,1.6.3,2.3-.3.7-.6,1.1-1.7,1-3,0-.7.5-1.3,1.2-1.3h0c.7,0,1.3.6,1.3,1.2,0,2-.6,3.8-1.9,4.9-.9.8-2,1.2-3.2,1.2h0Z"/>
        <path class="cls-9" d="M274.7,44.5c-5.2,1.2-11.1,1.9-14.7,2.2-9.3.8-18.7,1.4-28,1.6-4.9.1-10.7,0-12.6-2.3-1.5-1.8.3-4,3.1-5.6,5.8-3.2,13.6-3.7,21.3-4.4,6.4-.6,12.7-1.1,19.1-1.5,5.5-.3,10.9-.9,15.9.3,2.8.6,5.4,1.8,5.8,3.4.7,2.9-4.1,4.9-9.8,6.3h0Z"/>
        <path class="cls-11" d="M262.2,47.2c-.4,0-.7-.2-1-.5-2.6-3.2-5.4-6.2-8.4-9.1-.5-.5-.5-1.3,0-1.8.5-.5,1.3-.5,1.8,0,3,2.9,5.9,6,8.5,9.3.4.5.4,1.3-.2,1.8-.2.2-.5.3-.8.3h0Z"/>
        <path class="cls-11" d="M270.9,43.7c-.3,0-.6-.1-.9-.4-2.8-2.8-5.7-5.5-8.6-8.2-.5-.5-.6-1.3,0-1.8.5-.5,1.3-.6,1.8,0,2.9,2.7,5.8,5.4,8.7,8.2.5.5.5,1.3,0,1.8-.2.3-.6.4-.9.4h0Z"/>
        <path class="cls-11" d="M284.7,44.9c-.3,0-.7-.1-.9-.4-4-4.1-8.5-7.5-13.5-10.3-.6-.3-.8-1.1-.5-1.7.3-.6,1.1-.8,1.7-.5,5.2,2.9,9.9,6.5,14.1,10.8.5.5.5,1.3,0,1.8-.2.2-.6.4-.9.4h0Z"/>
        <path class="cls-11" d="M245.2,49.5c-.3,0-.6-.1-.9-.4-2.9-2.8-5.6-5.8-8.1-9-.4-.6-.3-1.4.2-1.8.6-.4,1.4-.3,1.8.2,2.4,3.1,5.1,6,7.9,8.7.5.5.5,1.3,0,1.8-.2.3-.6.4-.9.4h0Z"/>
        <path class="cls-11" d="M230.9,53c-.5,0-1-.3-1.2-.8l-4.8-10.9c-.3-.6,0-1.4.6-1.7.6-.3,1.4,0,1.7.6l4.8,10.9c.3.6,0,1.4-.6,1.7-.2,0-.3.1-.5.1Z"/>
      </g>
      <g>
        <g>
          <path class="cls-2" d="M190.5,251.1c0,.6.1,1.1.2,1.7.1,1.4.2,2.9-.3,4.2-2.2,5.7-14.8,1.8-18.6-.2-.4-.2-.8-.4-1.1-.8-.3-.5-.4-1.1-.3-1.6.2-3.4,2.4-6.6,1.6-9.9-.6-2.4-2.6-4.1-4.5-5.7-2-1.6-4-3.3-6-4.9-2.3-1.9-4.8-2.9-7.2-5.1-2.2-2.1-4.4-4.3-6.5-6.5-5.8-6.1-12.1-10.2-13.3-19.1-1-7.5,1.8-14.9,3.6-22.2,1.7-7.2,4.3-14.4,8.3-20.8,1.2-1.9,2.7-3.9,4.8-4.7,1.1-.4,2.2-.5,3.3-.5,4.8,0,9.4,1.9,13.2,4.6s7,6.2,9.9,9.9c.8,1.1,1.7,2.2,1.9,3.5.5,3.6-3.1,5.8-4.9,8.4-1.9,2.8-2.5,6.1-4,9.1-1.8,3.5-4,6.7-5.9,10.1-1.1,1.9-1.7,2.6-.9,4.3.7,1.6,2.8,3.2,3.8,4.7,3.7,5.7,6.9,11.6,9.6,17.8.5,1.1.9,2.2,1.8,3.1.6.6,1.3,1.1,2.1,1.6,4.1,2.6,7.8,5.1,8.4,10.3.1,1.3-.1,2.5,0,3.8.1.9.5,1.8.7,2.8.2.8.3,1.6.4,2.4h0Z"/>
          <path d="M184.2,261.3c-5,0-10.9-2.2-13.1-3.3-.5-.3-1.1-.6-1.5-1.2-.6-.8-.6-1.8-.6-2.4,0-1.5.5-3,.9-4.3.6-1.9,1.1-3.6.7-5.2-.5-1.9-2.1-3.4-4.1-5.1l-6-4.9c-1-.8-1.9-1.4-3-2.1-1.4-.9-2.8-1.8-4.2-3.1-2.3-2.2-4.5-4.4-6.6-6.6-1.2-1.3-2.4-2.5-3.6-3.6-4.6-4.5-9-8.7-10-16.2-.8-6.1.8-12.1,2.4-17.9.4-1.6.9-3.2,1.2-4.8,1.9-8.2,4.8-15.3,8.4-21.2,1.3-2.1,2.9-4.3,5.4-5.3,1.1-.4,2.3-.6,3.8-.6,5.9,0,10.9,2.6,14,4.8,4.4,3,7.7,7,10.2,10.2,1,1.2,1.9,2.5,2.1,4.1.5,3.1-1.5,5.3-3.3,7.2-.7.7-1.3,1.4-1.8,2.1-1,1.5-1.6,3.2-2.3,5-.5,1.3-1,2.7-1.7,4-1.1,2.1-2.3,4-3.5,6-.8,1.4-1.7,2.8-2.5,4.2-.1.2-.3.5-.4.7-.8,1.4-.9,1.6-.5,2.5.3.7,1.1,1.6,1.9,2.4.7.7,1.3,1.4,1.8,2.2,3.7,5.7,7,11.7,9.7,18h0c.4,1.1.8,2,1.5,2.7.5.5,1.1.9,1.8,1.4,3.9,2.5,8.3,5.2,9,11.2,0,.7,0,1.4,0,2,0,.6,0,1.2,0,1.7,0,.5.2,1.1.4,1.7,0,.3.2.6.3.9.2.7.3,1.6.4,2.5,0,.6.1,1.2.2,1.7.1,1.4.3,3.2-.4,4.8-.6,1.5-1.7,2.6-3.3,3.2-1.2.5-2.6.6-4,.6h0s0,0,0,0ZM154.3,156.1c-1.2,0-2,.1-2.8.4-1.8.7-3.1,2.5-4.2,4.2-3.5,5.6-6.2,12.5-8.1,20.4-.4,1.6-.8,3.3-1.3,4.9-1.5,5.6-3.1,11.3-2.3,16.9.9,6.6,4.8,10.4,9.3,14.7,1.2,1.2,2.5,2.4,3.7,3.7,2,2.2,4.2,4.3,6.5,6.5,1.2,1.2,2.5,2,3.8,2.8,1.1.7,2.2,1.4,3.3,2.3l6,4.9c1.8,1.5,4.3,3.5,5,6.4.6,2.3,0,4.5-.7,6.6-.4,1.3-.8,2.5-.8,3.8,0,.5,0,.7,0,.8.1.1.4.3.6.4,3.2,1.7,11.2,4,15,2.5.9-.4,1.5-.9,1.8-1.7.4-1.1.3-2.4.2-3.7,0-.6,0-1.1-.2-1.7h0c0-.9-.2-1.6-.4-2.2,0-.3-.2-.6-.2-.9-.2-.7-.4-1.3-.5-2.1,0-.7,0-1.5,0-2.1,0-.6,0-1.1,0-1.7-.5-4.4-3.5-6.6-7.8-9.3-.8-.5-1.6-1-2.3-1.8-.9-1-1.5-2.2-2-3.3h0c-2.6-6.2-5.8-12.1-9.5-17.7-.4-.6-.9-1.2-1.6-1.9-.9-1-1.8-2-2.3-3-1-2.1-.2-3.4.6-4.8.1-.2.2-.4.4-.6.8-1.4,1.7-2.9,2.6-4.3,1.2-1.9,2.4-3.8,3.4-5.8.6-1.2,1.1-2.4,1.5-3.7.7-1.9,1.4-3.8,2.6-5.5.6-.9,1.3-1.7,2-2.4,1.5-1.6,3-3.2,2.7-5.1-.1-1-.8-1.9-1.6-2.9-2.4-3-5.6-6.8-9.7-9.7-2.8-2-7.3-4.3-12.5-4.4h0,0Z"/>
        </g>
        <g>
          <path class="cls-1" d="M157.6,139.8c-10.4,7.5-17.1,19.6-19.2,32.3,6.6,2.2,13.4,3.6,19.8,6.3,6.6,2.8,11.7,7,15.7,12.9,5.4-2.5,8.3-17.9,10-23.3,2.8-8.9,5-18.1,5.5-27.4.3-5,1.3-7.3-3.5-8.5-3.1-.7-7.2.3-10.2.9-6.1,1.2-12.9,3.2-18,6.9h0Z"/>
          <path d="M173.4,192.8l-.6-.9c-3.8-5.7-8.7-9.7-15.1-12.4-3.9-1.7-8.2-2.9-12.3-4-2.5-.7-5-1.4-7.5-2.2l-1-.3.2-1.1c2.3-13.6,9.5-25.7,19.7-33.1h0c4.5-3.2,10.5-5.5,18.5-7.1l1.1-.2c3-.6,6.7-1.3,9.7-.6,5.3,1.2,5,4.1,4.7,7.8,0,.6-.1,1.3-.2,2-.5,8.5-2.3,17.3-5.6,27.7-.3,1-.7,2.5-1.1,4.1-2,7.5-4.7,17.7-9.5,19.9l-1,.5h0ZM139.8,171.2c2.1.7,4.2,1.3,6.3,1.9,4.2,1.2,8.5,2.4,12.5,4.1,6.4,2.7,11.5,6.8,15.5,12.3,3.3-2.8,5.7-12,7.2-17.7.4-1.7.8-3.2,1.2-4.3,3.2-10.2,5-18.9,5.5-27.1,0-.7.1-1.4.2-2.1.3-3.6.4-4.4-2.7-5.1-2.4-.6-5.8.1-8.6.7l-1.1.2c-7.6,1.5-13.3,3.6-17.5,6.6h0c-9.4,6.8-16.1,17.8-18.5,30.4h0Z"/>
        </g>
        <g>
          <g>
            <path class="cls-1" d="M200.5,140.2c-2.9.8-5.8,1.6-8.7,2.4-3.5-6.4-13.1-13.5-13.1-13.5,2.6-.5,5.2-.8,7.9-1,3.5-.1,5.9-.5,8.1,2,2.4,2.7,3.9,7,5.8,10.1h0Z"/>
            <path d="M191.8,142.6l-13.1-13.5s9.6,7.1,13.1,13.5Z"/>
            <path class="cls-5" d="M181.3,145.6c-.2,0-.4,0-.5,0-.3,0-.6-.3-.8-.6-3.5-4.6-7.5-8.8-12-12.5.4.3,7.6-2.7,8.8-3,.7-.2,1.3-.3,2-.4l13.1,13.5c-3.5,1-7,2-10.4,2.9h0Z"/>
          </g>
          <g>
            <path d="M180.9,146.9c0,0-.1,0-.2,0-.9-.1-1.4-.8-1.7-1.1-3.5-4.6-7.4-8.7-11.8-12.3-.5-.4-.6-1.2-.2-1.8.3-.4.7-.5,1.1-.5.8-.2,3.4-1.2,5-1.8,1.8-.7,2.8-1.1,3.3-1.2.7-.2,1.3-.3,2-.4h0c2.5-.5,5.3-.8,8-1h.8c3.2-.2,5.9-.3,8.3,2.4,1.6,1.8,2.7,4.1,3.9,6.4.7,1.4,1.3,2.7,2.1,3.8.2.3.3.8.1,1.1-.1.4-.5.7-.8.8-2.9.8-5.8,1.6-8.7,2.4-3.5,1-7,2-10.4,2.9-.2,0-.5.1-.8.1h0ZM170.6,133.1c3.8,3.3,7.3,7,10.3,11.1,0,0,0,0,0,0,3.4-1,6.9-1.9,10.4-2.9,2.4-.7,4.8-1.3,7.1-2-.5-.8-.9-1.7-1.3-2.6-1.1-2.1-2.2-4.3-3.5-5.8-1.5-1.7-3.1-1.7-6.3-1.6h-.8c-2.7.2-5.2.5-7.7,1h0c-.6.1-1.3.3-1.9.4-.4,0-1.8.6-3,1.1-1.4.5-2.5,1-3.4,1.3h0ZM168.8,131.6h0s0,0,0,0ZM168.8,131.6h0,0ZM178.7,129.1h0,0Z"/>
            <path d="M191.8,143.9c-.5,0-.9-.2-1.1-.7-3.3-6.1-12.6-13-12.7-13.1-.6-.4-.7-1.2-.3-1.8.4-.6,1.2-.7,1.8-.3.4.3,9.9,7.4,13.4,13.9.3.6.1,1.4-.5,1.7-.2.1-.4.2-.6.2Z"/>
          </g>
        </g>
        <g>
          <path class="cls-12" d="M160.2,264.3c-.4,4,1.1,8,3.8,11,.7.8,1.7,1.6,2.8,1.4.9-.2,1.5-1,1.8-1.8s.3-1.7.5-2.6c.8-3.9,4.4-6.7,6.2-10.3.4-.8.8-1.7.7-2.6,0-.9-.5-1.8-1.1-2.5-2-2.3-6.6-3.3-9.5-2.1-3.3,1.4-5,6.4-5.3,9.5h0Z"/>
          <path d="M166.5,277.9c-1.1,0-2.3-.6-3.4-1.8-3-3.2-4.5-7.7-4.1-12h0c.3-3.4,2.2-8.9,6.1-10.6,3.4-1.4,8.6-.3,10.9,2.5.9,1,1.4,2.1,1.4,3.2,0,1.3-.5,2.5-.9,3.3-.8,1.5-1.8,2.8-2.8,4.1-1.5,1.9-2.9,3.7-3.3,5.9,0,.3-.1.6-.1.8,0,.6-.2,1.3-.4,1.9-.5,1.4-1.5,2.4-2.8,2.6-.2,0-.4,0-.6,0ZM161.5,264.4c-.3,3.6,1,7.3,3.5,10,.6.7,1.2,1,1.7,1,.3,0,.7-.4.9-1,.2-.4.2-.9.3-1.4,0-.3.1-.6.2-1,.6-2.7,2.2-4.8,3.8-6.9,1-1.3,1.9-2.4,2.6-3.7.4-.8.6-1.4.6-2,0-.7-.5-1.3-.8-1.8-1.6-1.9-5.6-2.8-8-1.8-2.7,1.2-4.3,5.7-4.6,8.5h0Z"/>
        </g>
        <g>
          <path class="cls-12" d="M167.6,267.5c0,4,1.7,7.9,4.7,10.6.8.7,1.9,1.4,2.9,1.1.9-.2,1.4-1.1,1.7-1.9s.2-1.7.3-2.6c.5-4,3.8-7.1,5.3-10.8.4-.8.6-1.8.5-2.7-.1-.9-.7-1.7-1.3-2.4-2.2-2.1-6.9-2.8-9.6-1.3-3.2,1.7-4.5,6.8-4.5,10h0Z"/>
          <path d="M174.7,280.6c-1.1,0-2.1-.5-3.3-1.5-3.2-2.9-5.2-7.3-5.2-11.6,0-3.4,1.4-9.1,5.2-11.1,3.3-1.7,8.6-1,11.1,1.5,1,.9,1.5,2,1.7,3.1.2,1.3-.2,2.5-.6,3.3-.6,1.5-1.5,3-2.4,4.3-1.3,2-2.5,4-2.8,6.1,0,.3,0,.6,0,.8,0,.6,0,1.3-.3,1.9-.4,1.4-1.3,2.5-2.5,2.8-.3,0-.6.1-.9.1h0ZM175.6,258c-1.1,0-2.2.2-3,.6-2.6,1.4-3.8,6-3.8,8.8h0c0,3.6,1.6,7.2,4.3,9.7.7.6,1.3.9,1.7.8.3,0,.6-.5.8-1,.1-.4.1-.9.2-1.4,0-.3,0-.7,0-1,.3-2.7,1.8-5,3.2-7.2.9-1.3,1.7-2.6,2.2-3.9.4-.8.5-1.5.4-2-.1-.7-.6-1.3-1-1.7-1.1-1.1-3.2-1.7-5.1-1.7h0ZM167.6,267.5h0,0Z"/>
        </g>
        <g>
          <path class="cls-12" d="M176.8,270.9c1.6,3.7,4.8,6.6,8.7,7.9,1,.4,2.3.6,3.1-.1.7-.6.9-1.5.7-2.4s-.5-1.7-.8-2.5c-1.2-3.8.6-7.9.5-12,0-.9-.1-1.9-.6-2.6-.5-.8-1.3-1.3-2.2-1.7-2.9-1.1-7.4.1-9.4,2.5-2.2,2.7-1.3,7.9,0,10.9h0Z"/>
          <path d="M187.2,280.4c-.6,0-1.4-.1-2.1-.4-4.2-1.4-7.7-4.7-9.4-8.6h0c-1.4-3.1-2.4-8.9.2-12.2,2.3-2.8,7.5-4.2,10.8-2.9,1.2.5,2.2,1.3,2.8,2.2.7,1.1.8,2.4.8,3.3,0,1.7-.2,3.3-.5,4.9-.4,2.4-.7,4.6,0,6.7,0,.3.2.5.3.8.2.6.4,1.2.5,1.9.2,1.5-.2,2.8-1.2,3.6-.6.5-1.3.7-2.2.7h0ZM178,270.4c1.5,3.3,4.4,6,7.9,7.2.9.3,1.6.3,1.9,0,.2-.2.4-.7.3-1.2,0-.4-.2-.9-.4-1.4-.1-.3-.2-.6-.3-.9-.8-2.6-.4-5.3,0-7.8.2-1.6.5-3,.4-4.5,0-.9-.2-1.5-.4-2-.4-.6-1.1-1-1.6-1.2-2.3-.9-6.3.1-7.9,2.1-1.8,2.3-1,6.9.1,9.6h0Z"/>
        </g>
        <g>
          <g>
            <path class="cls-7" d="M183.6,152.4c-9.4-5.7-9.4-11.8-9.4-11.8,0,0-5.4,2.8-14.8-3,0,0-16.1,25.9-3.8,33.4,12.3,7.5,28-18.7,28-18.7h0Z"/>
            <path d="M160.4,173.7c-1.9,0-3.7-.5-5.4-1.5-2.5-1.5-4.1-3.8-4.8-6.8-2.6-10.8,7.8-27.7,8.2-28.4.4-.6,1.1-.8,1.7-.4,8.6,5.2,13.5,2.9,13.5,2.9.4-.2.9-.2,1.2,0,.4.2.6.6.6,1.1s.2,5.5,8.8,10.7c.6.4.8,1.1.4,1.7-.4.7-10.7,17.6-21.5,20.3-1,.2-1.9.4-2.8.4h0ZM159.9,139.4c-2.2,3.8-9.3,17-7.3,25.4.6,2.3,1.8,4,3.7,5.2,1.9,1.2,4,1.5,6.3.9,8.3-2,16.9-14.4,19.3-18.1-6.2-4.1-8.1-8.3-8.6-10.5-2.3.5-6.9.7-13.3-2.9h0Z"/>
          </g>
          <g>
            <path class="cls-13" d="M167.2,162.4c-1.6,2.6-4,2-6.5.4-2.5-1.5-4.2-3.4-2.6-6s4.9-3.5,7.4-1.9c2.5,1.5,3.3,4.9,1.7,7.5h0Z"/>
            <g>
              <ellipse class="cls-13" cx="160.1" cy="151" rx="2.3" ry="1.7" transform="translate(-52.2 208.9) rotate(-58.6)"/>
              <ellipse class="cls-13" cx="171.4" cy="157.9" rx="2.3" ry="1.7" transform="translate(-52.7 221.8) rotate(-58.6)"/>
            </g>
            <g>
              <ellipse class="cls-13" cx="165.3" cy="150.4" rx="2.3" ry="1.7" transform="translate(-49.2 213) rotate(-58.6)"/>
              <ellipse class="cls-13" cx="169.6" cy="153" rx="2.3" ry="1.7" transform="translate(-49.4 217.9) rotate(-58.6)"/>
            </g>
          </g>
        </g>
      </g>
      <g>
        <g>
          <path class="cls-2" d="M319.4,89.7c-10.4-4.1-22.7-11.4-33.8-11.5-13.3-.1-26.8,3.9-40,.4-3.6-1-7.1-2.5-10.8-3-3.7-.5-7.9.4-10.2,3.3-2,2.6-2.1,6.2-2.2,9.4,0,3,0,6.2,1.7,8.7,2.1,3.2,6.4,4.3,10.2,4.1s7.6-1.4,11.4-1.6c7.8-.5,17.2,3.1,24.8,4.8,3.6.8,24.5,6.2,27.2,6.3-3.6,4.3-7.5,7.5-5.3,13.6,1.4,4,6.1,8.2,9.3,10.9,4.5,3.9,9.9,6,15.1,2,2-1.5,3.5-3.6,5-5.6,2.3-3.2,4.5-6.5,5.9-10.2,2-4.8,1.7-9.8,2.7-14.7.9-4.3,1.9-8.4-1.7-11.9-2.4-2.3-5.5-3.5-8.6-4.7-.2,0-.5-.2-.7-.3h0Z"/>
          <path d="M310.9,140.6c-3.2,0-6.6-1.5-10-4.5-3.1-2.6-8.2-7.1-9.7-11.5-2.1-6,1-9.6,4.1-13.2-3.6-.7-10.3-2.3-17.9-4.2-3.2-.8-6-1.5-7.1-1.7-2.2-.5-4.6-1.1-7.1-1.8-5.9-1.6-12.1-3.3-17.4-3-1.8.1-3.6.4-5.4.8-1.9.4-3.9.7-6,.8-5,.3-9.2-1.5-11.4-4.6-1.9-2.9-1.9-6.5-1.9-9.4,0-3,0-7.2,2.5-10.2,2.3-3,6.6-4.4,11.4-3.8,2.5.3,4.9,1.1,7.3,1.9,1.2.4,2.5.8,3.7,1.1,8.2,2.2,16.9,1.3,25.2.5,4.7-.5,9.6-1,14.4-.9,8.6,0,17.5,4.1,26.1,8,2.9,1.3,5.5,2.5,8.1,3.5h0l.7.3c3,1.2,6.4,2.5,9,5,4,3.8,3,8.3,2.1,12.7v.4c-.4,1.8-.7,3.6-.9,5.3-.4,3.2-.7,6.4-2,9.6-1.6,3.8-3.8,7.3-6.1,10.4-1.5,2.1-3.1,4.3-5.3,5.9-2.1,1.6-4.3,2.4-6.7,2.4h0s0,0,0,0ZM247.2,98.1c5.3,0,11.1,1.6,16.7,3.1,2.4.7,4.7,1.3,6.9,1.8,1.1.2,3.8.9,7.2,1.7,6.8,1.7,18.1,4.5,19.8,4.5.5,0,.9.3,1.1.8s.1,1-.2,1.3c-.5.6-.9,1.1-1.4,1.6-3.1,3.6-5.3,6.1-3.7,10.8,1.3,3.8,6.1,7.9,9,10.4,5,4.3,9.5,5,13.5,2,1.9-1.4,3.3-3.3,4.7-5.4,2.2-3,4.3-6.3,5.8-9.9,1.2-2.9,1.5-5.8,1.9-9,.2-1.8.4-3.7.8-5.6v-.4c1-4.2,1.6-7.5-1.3-10.3-2.2-2.1-5.3-3.3-8.2-4.5l-.7-.3c-2.7-1.1-5.4-2.3-8.3-3.6-8.4-3.8-17-7.7-25.1-7.8-4.6,0-9.5.4-14.1.9-8.6.9-17.4,1.8-26.1-.6-1.3-.4-2.6-.8-3.9-1.2-2.3-.8-4.5-1.5-6.8-1.8-3-.4-7,.2-9.1,2.8-1.7,2.2-1.9,5.2-1.9,8.7,0,3.1,0,5.9,1.4,8,1.6,2.4,5,3.7,9.1,3.5,1.9,0,3.7-.4,5.6-.8,1.9-.3,3.8-.7,5.7-.8.5,0,1,0,1.6,0h0Z"/>
        </g>
        <path d="M298.3,111.9c-.3,0-.6,0-1-.1-.7-.2-1.1-.9-.9-1.5.2-.7.9-1.1,1.5-.9,1,.2,2.7-.6,4-1.4.7-.3,1.3-.7,1.9-.9,1.8-.7,3.5-1.9,5.2-3,.6-.4,1.4-.2,1.8.3.4.6.2,1.4-.3,1.8-1.8,1.2-3.6,2.4-5.6,3.3-.5.2-1,.5-1.6.8-1.5.8-3.2,1.7-4.8,1.7h0Z"/>
        <g>
          <path class="cls-12" d="M217.1,72.1c-3.1,0-6.2.7-8.7,2.4-.9.6-1.7,1.4-2.1,2.4-.4,1-.3,2.2.5,3,.8.7,1.9.7,2.9.7,2.2,0,4.4.3,6.5,1.1,1.7.7,3.2,1.7,5,2,2.6.4,5.4-1,6.6-3.4,3.6-7.4-5.8-8.1-10.6-8.1h0Z"/>
          <path d="M222.1,84.9c-.4,0-.8,0-1.1,0-1.3-.2-2.5-.8-3.7-1.3-.5-.3-1.1-.5-1.6-.7-1.6-.6-3.5-.9-6-1-1.2,0-2.6,0-3.7-1-1.1-1-1.5-2.8-.9-4.4.4-1.1,1.3-2.1,2.6-2.9,2.5-1.7,5.7-2.6,9.4-2.6h.2c6.4,0,10.3,1.2,11.8,3.8,1,1.7,1,3.8-.2,6.2-1.2,2.5-4,4.2-6.8,4.2h0ZM217.1,73.3c-3.2,0-5.9.8-8,2.2-.9.6-1.4,1.2-1.6,1.8-.2.6-.1,1.2.2,1.5.4.4,1.3.4,2.1.4,2.9,0,5,.4,6.9,1.2.6.2,1.2.5,1.7.8,1,.5,2,.9,3,1.1,2,.3,4.3-.8,5.2-2.7.8-1.6.9-2.8.3-3.7-.6-1-2.7-2.6-9.8-2.6h0ZM217.1,72.1h0,0Z"/>
        </g>
        <g>
          <path class="cls-12" d="M215.2,80.9c-3,.7-5.9,2.1-7.9,4.3-.7.8-1.3,1.7-1.5,2.8s.3,2.2,1.2,2.8c.9.5,2,.2,3,0,2.1-.5,4.4-.7,6.5-.4,1.8.2,3.5.9,5.3.8,2.6-.2,5-2.2,5.6-4.8,1.8-8.1-7.5-6.6-12.2-5.4h0Z"/>
          <path d="M221.3,92.4c-1.1,0-2.2-.2-3.3-.5-.6-.1-1.1-.2-1.7-.3-1.7-.2-3.6-.1-6.1.4-1.2.2-2.6.5-3.9-.2-1.3-.7-2.1-2.4-1.9-4.1.2-1.2.8-2.3,1.8-3.5,2-2.2,5-3.9,8.6-4.7h0c6.3-1.5,10.4-1.2,12.5.9,1.4,1.4,1.8,3.4,1.2,6.1-.7,3.1-3.5,5.6-6.7,5.8-.2,0-.4,0-.6,0h0ZM214.7,88.9c.7,0,1.4,0,2.1.1.6,0,1.3.2,1.9.4,1.1.2,2.1.5,3.1.4,2.1-.2,4-1.8,4.4-3.8.4-1.7.2-3-.5-3.7-.8-.8-3.2-1.9-10.2-.2-3.1.7-5.6,2.1-7.3,4-.7.8-1.1,1.5-1.2,2.1,0,.6.2,1.2.6,1.4.5.3,1.3,0,2.1,0,1.9-.4,3.5-.6,4.9-.6,0,0,0,0,0,0Z"/>
        </g>
        <g>
          <path class="cls-12" d="M216,89.9c-3,.7-5.9,2.1-7.9,4.3-.7.8-1.3,1.7-1.5,2.8s.3,2.2,1.2,2.8c.9.5,2,.2,3,0,2.1-.5,4.4-.7,6.5-.4,1.8.2,3.5.9,5.3.8,2.6-.2,5-2.2,5.6-4.8,1.8-8.1-7.5-6.6-12.2-5.4h0Z"/>
          <path d="M222.1,101.4c-1.1,0-2.2-.2-3.3-.5-.6-.1-1.1-.2-1.7-.3-1.7-.2-3.6-.1-6.1.4-1.2.2-2.6.5-3.9-.2-1.3-.7-2.1-2.4-1.9-4.1.2-1.2.8-2.3,1.8-3.5,2-2.2,5-3.9,8.6-4.7,6.3-1.5,10.4-1.2,12.5.9,1.4,1.4,1.8,3.4,1.2,6.1-.7,3.1-3.5,5.6-6.7,5.8-.2,0-.4,0-.6,0h0ZM215.4,97.9c.7,0,1.4,0,2.1.1.6,0,1.3.2,1.9.4,1.1.2,2.1.5,3.1.4,2.1-.2,4-1.8,4.4-3.8.4-1.7.2-3-.5-3.7-.8-.8-3.2-1.9-10.2-.2h0c-3.1.7-5.6,2.1-7.3,4-.7.8-1.1,1.5-1.2,2.1,0,.6.2,1.2.6,1.4.5.3,1.3,0,2.1,0,1.9-.4,3.5-.6,4.9-.6h0ZM216,89.9h0,0Z"/>
        </g>
      </g>
    </g>
  </g>
</svg>