<?xml version="1.0" encoding="utf-8"?>
<!-- Generator: Adobe Illustrator 26.5.0, SVG Export Plug-In . SVG Version: 6.00 Build 0)  -->
<svg version="1.1" id="레이어_5" xmlns="http://www.w3.org/2000/svg" xmlns:xlink="http://www.w3.org/1999/xlink" x="0px"
	 y="0px" viewBox="0 0 176 214" style="enable-background:new 0 0 176 214;" xml:space="preserve">
<g>
	<path style="fill:#FFFFFF;" d="M161.2,26.3c-1.3,0.7-2.3,2.1-3.2,3.2l-5.2,7.1c-1.2,1.6-2.1,2.4-3.5,3.5l-0.6,0.5
		c-0.1,0.1-0.3,0.3-0.6,0.3c-0.3,0-0.5-0.1-0.7-0.2c-0.6-0.4-1.1-0.8-1.7-1.2c-1-0.7-2-1.5-3-2c-1.9-1-3.7-1.3-5.2-0.8
		c-0.4,0.1-0.7,0.3-0.8,0.5c-0.4,0.4-0.5,1.1-0.4,1.6c0.1,0.6,0.5,1.2,0.9,1.8c1.3,1.8,2.7,3.3,4.4,4.7c0.2,0.2,0.2,0.5,0.1,0.7
		c-7.2,10.1-11.8,21.2-15.9,31.7c-2.3,5.9-4.9,12.6-4.9,19.6c0,3.2,0.8,7.7,2.6,9.9l0,0c1.3,1.6,3,1.9,5.2,1
		c4.7-2.2,7.2-8.5,9.5-14.1c0.9-2.3,1.8-4.5,2.8-6.3c4.2-7.7,9-16.5,14.7-24.3c1-1.4,2.1-2.7,3.2-3.9c1.4-1.7,2.9-3.4,4.1-5.3
		c1.9-3,3.2-7.7,1.8-11.7c-0.4-1-1.1-1.7-1.9-2.3c-0.7-0.5-1.4-1.1-1.8-1.9c-0.8-1.6,0.5-3.5,1.5-5c0.3-0.4,0.5-0.8,0.7-1.1
		c0.6-1.1,1.2-2.3,1.3-3.6c0-1.1-0.6-2.4-1.7-2.6c-0.1,0-0.2,0-0.3,0C162,25.9,161.5,26.1,161.2,26.3z"/>
	<path style="fill:#0181C4;" d="M148.1,40.8c0,0,5.1-3.5,7.2-7.6c0,0,4.1-7.6,7.6-7.3c0,0,3.7,0.6,0.4,6.1c0,0-2.7,3.4-2.4,5.4
		c0,0,6.2,3.9,4.3,10.9c0,0-0.4,4.9-4.6,9.1c0,0-7.4,8.3-8.8,11.7l-4,6.5c0,0-13.5,4.4-17.6-8.5c0,0,9.1-19.9,11.6-21.2
		c0,0,0.5-0.6-1.2-1.6c0,0-6.1-4.7-3.9-7.2C136.7,37.1,140.1,32.8,148.1,40.8z"/>
	<path d="M158.5,55.2c1.2,0,2.4-0.4,3.2-1.1c0.6-0.5,0.6-1.3,0.2-1.9c-0.5-0.6-1.3-0.6-1.9-0.2c-0.3,0.3-0.9,0.5-1.5,0.4
		c-1.3,0-2.9-0.9-4.2-2.4c-1.4-1.5-2.3-3.4-2.3-4.7c0.1-2.1,1.8-3.4,4.6-4.8c2-1,5.5,0.1,6.9,2.1c0.4,0.6,1.3,0.8,1.9,0.3
		s0.8-1.3,0.3-1.9c-1.9-2.9-6.7-4.7-10.2-3c-2.1,1-6,3-6.1,7.1c-0.1,2.1,1.1,4.6,3,6.7c1.9,2,4.1,3.2,6.1,3.3
		C158.4,55.2,158.4,55.2,158.5,55.2z"/>
	<path d="M126.4,110c-1.8,0-3.1-1-3.9-2c-2.1-2.5-2.9-7.2-2.9-10.8c0.1-7.3,2.7-14.1,5-20.1c4-10.4,8.5-21.3,15.6-31.4
		c-1.5-1.3-2.9-2.8-4-4.5c-0.5-0.7-0.9-1.4-1.1-2.3c-0.2-1.1,0-2.2,0.7-2.9c0.3-0.3,0.8-0.6,1.4-0.8c1.8-0.6,4-0.3,6.2,0.9
		c1.2,0.6,2.2,1.4,3.2,2.1c0.5,0.4,1,0.7,1.5,1.1l0.5-0.4c1.3-1.1,2.2-1.8,3.3-3.2l5.2-7.1c0.9-1.2,2-2.8,3.7-3.6l0,0
		c0.9-0.5,1.7-0.6,2.5-0.5c1.8,0.3,2.8,2.3,2.8,3.9c0,1.6-0.8,3-1.4,4.2c-0.2,0.4-0.5,0.8-0.7,1.2c-0.8,1.2-1.8,2.9-1.4,3.7
		c0.3,0.6,0.8,1,1.4,1.5c0.9,0.7,1.8,1.5,2.3,2.9c1.6,4.4,0.2,9.6-1.9,12.8c-1.2,2-2.8,3.7-4.2,5.4c-1.1,1.2-2.2,2.5-3.1,3.9
		c-5.7,7.8-10.4,16.5-14.6,24.2c-0.9,1.7-1.8,3.9-2.7,6.1c-2.3,5.8-4.9,12.4-10.2,14.8C128.2,109.8,127.3,110,126.4,110z M139,37.7
		c-0.4,0-0.8,0.1-1.1,0.2c-0.2,0.1-0.3,0.1-0.3,0.1c0,0,0,0.2,0,0.4c0.1,0.4,0.3,0.8,0.7,1.3c1.2,1.7,2.6,3.2,4.2,4.4
		c0.8,0.6,0.9,1.7,0.3,2.5c-7.1,10-11.7,21-15.7,31.4c-2.2,5.8-4.8,12.4-4.9,19.2c0,3.1,0.7,7.2,2.3,9c0.7,0.8,1.6,1.5,3.6,0.6
		c4.2-1.9,6.7-8,8.8-13.4c0.9-2.4,1.8-4.6,2.8-6.5c4.2-7.8,9.1-16.5,14.8-24.5c1-1.4,2.2-2.7,3.3-4c1.4-1.6,2.8-3.3,4-5.1
		c1.7-2.7,2.9-7,1.7-10.5c-0.2-0.7-0.8-1.2-1.5-1.7c-0.7-0.6-1.6-1.3-2.1-2.4c-1.1-2.2,0.4-4.6,1.5-6.4c0.3-0.4,0.5-0.8,0.6-1
		c0.5-0.9,1.1-2,1.1-3c0-0.6-0.3-1.2-0.6-1.2c-0.2,0-0.5,0.1-0.8,0.2l0,0c-1.1,0.6-2,1.8-2.8,2.9l-5.2,7.1c-1.3,1.7-2.3,2.6-3.7,3.7
		l-0.6,0.5c-0.2,0.1-0.7,0.6-1.4,0.6c-0.7,0-1.3-0.3-1.5-0.5c-0.6-0.4-1.2-0.8-1.7-1.2c-0.9-0.7-1.9-1.4-2.9-1.9
		C141,38,139.9,37.7,139,37.7z"/>
</g>
<g>
	<g>
		<path d="M62,173.9c0.9,0.4,1.7,1,2.3,1.9c-8.4,13.1-10.5,25.6-18.6,25.2c0.1,0.1,0.1,0.1,0.1,0.1c-1-0.1-2.1-0.4-3.2-0.9
			c-3.4-1.5-7.5-4.7-10.8-8.3c-0.5,1.3-1.7,3.3-4.5,6c0,0-0.2,0.2-0.2,0.2c-3.9,3.6-8.6,4.4-13.8,3.5c-0.6-0.1-1.3-0.3-2-0.6
			c-2.6-1.2-5.7-3.6-6.3-6c-1-4.5,1.4-6.3,3.7-9.6l8.3-8.8l2.6-2.7c1.2-1.7,4.7-3.6,7.4-2.4c0.4,0.2,0.7,0.4,1.1,0.7
			c0,0,4.7,5.7,4.7,5.7l0,0c0,0,0,0.1,0.1,0.1l1.6,2l0,0.1c0.6,0.7,1,1.3,1.1,1.5c0.9,1.5,2.3,3.1,3.6,4.2c0.7,0.6,1.8,1.6,2.6,2.2
			c0.3,0.2,0.6,0.4,1,0.5c0.3,0.1,0.5,0.2,0.7,0.3c2.6,0.7,3.4-3.1,3.8-4.9c0.2-0.8,0.4-1.6,0.7-2.4c0.3-1,0.5-1.9,0.8-2.9
			c1-3,2.3-5.2,4.2-7.7c0.5,0.6,1.2,1,1.9,1.3C57.1,172.9,59.9,173,62,173.9 M63.1,171.2L63.1,171.2c-1.3-0.6-2.7-0.9-4.1-1.2
			c-1.1-0.2-2.2-0.4-3-0.8c-0.4-0.2-0.7-0.4-0.9-0.6c-0.3-0.3-0.6-0.6-1-0.8c-0.4-0.2-0.8-0.3-1.2-0.2c-0.9,0-1.7,0.4-2.2,1.1
			c-2,2.6-3.6,5-4.7,8.5c-0.2,0.7-0.4,1.4-0.6,2.2l-0.2,0.8c-0.1,0.2-0.1,0.4-0.2,0.6c-0.2,0.6-0.4,1.3-0.5,2
			c-0.3,1.4-0.5,2.1-0.7,2.5c-0.2-0.1-0.3-0.2-0.4-0.2c-0.5-0.3-1.2-1-1.8-1.5l-0.5-0.5c-1.1-0.9-2.2-2.3-3-3.5
			c-0.1-0.2-0.3-0.5-1.1-1.4c-0.1-0.2-0.2-0.3-0.3-0.4l-1.5-1.8c-0.1-0.1-0.2-0.2-0.3-0.4c-0.4-0.4-3-3.6-4.6-5.6
			c-0.1-0.1-0.2-0.2-0.3-0.3c-0.6-0.5-1.2-0.9-1.8-1.2c-4.1-1.8-8.8,0.7-10.7,3.2l-2.4,2.6l-8.3,8.8c-0.1,0.1-0.2,0.2-0.3,0.3
			c-0.4,0.6-0.8,1.1-1.2,1.6c-1.9,2.5-4.1,5.3-3,10.4c0.8,3.5,4.5,6.6,7.9,8.1c1,0.4,1.9,0.7,2.7,0.8c6.5,1.1,12-0.3,16.1-4.2
			l0.3-0.3c1.2-1.2,2.3-2.4,3.1-3.5c3,2.8,6.2,5,9,6.3c1.5,0.7,2.9,1,4.2,1.1c0.3,0,0.6,0,1-0.1c6.7-0.3,10-7,13.8-14.7
			c1.8-3.6,3.8-7.7,6.4-11.8c0.6-0.9,0.6-2.1,0.1-3.1C65.9,173,64.7,171.9,63.1,171.2L63.1,171.2L63.1,171.2z"/>
	</g>
	<g>
		<g>
			<path style="fill:#FFFFFF;" d="M45.1,187.9c4.4-6.5,1.7-9.2,8-17.3c2.6,3.1,9.1,1.5,11.2,5.2c-8.4,13.3-10.5,25.8-18.8,25.2
				l-5.1-6.7L45.1,187.9L45.1,187.9z"/>
		</g>
		<g>
			<path style="fill:#029EF2;" d="M32.7,177.7c0,0.1,2.6,3.2,2.8,3.6c1.5,2.4,4.3,5.3,7.3,7c0.3,0.1,1.8,0.5,1.8,0.1
				c0,0-1.8,1.6-1.7,6.3c0.1,4.7,2.9,6.3,2.9,6.3c-4.1-0.3-10.6-5.1-15-10.3C27.6,183.6,30.6,181.1,32.7,177.7z"/>
		</g>
		<g>
			<path style="fill-rule:evenodd;clip-rule:evenodd;fill:#029EF2;" d="M34.4,179.8L28,172c-2.7-2.4-7.1-0.2-8.5,1.7l-2.6,2.7
				l-8.3,8.8c-2.3,3.3-4.7,5.1-3.7,9.6c0.7,3.1,5.5,6.2,8.3,6.7c5.1,0.9,9.9,0.1,13.8-3.5c0,0,0.2-0.2,0.2-0.2
				c5.7-5.5,4.8-8.1,4.8-8.1l2,1.5"/>
		</g>
	</g>
</g>
<g>
	<g>
		<path d="M98.8,157.7c1.5-1.2,3.7-1.2,5.2,0l26.4,22.2l13.9,11.6c0,0,0.4-4,4.7-7.5c0.8-0.7,1.8-1.3,2.9-1.9
			c4.8-2.4,10.6-2.6,15.4-0.3c2.6,1.2,6,4.6,5.9,7.7c-0.1,3.5-2.5,5.9-5.1,7.9c-0.8,0.7-1.7,1.3-2.5,2l-10,8.1l-2.3,1.9
			c-1.9,1.5-6,2.4-7.5,0.5l-6.6-7l-16.4-13.8l-26.4-22.2c-1.7-1.5,0.4-7,1.8-8.7C98.4,158.1,98.6,157.9,98.8,157.7 M97,155.5
			c-0.4,0.3-0.7,0.6-1,1c-1,1.3-2.1,3.4-2.6,5.6c-1.2,4.2,0,6.3,1.2,7.3l26.4,22.2l16.3,13.7l6.4,6.8c2.8,3.3,8.6,2.1,11.4-0.2
			l2.3-1.9l10-8.1c0.4-0.3,0.8-0.6,1.2-0.9c0.4-0.3,0.9-0.7,1.3-1c2.9-2.4,6-5.5,6.1-10.1c0.2-4.8-4.3-9-7.6-10.5
			c-5.6-2.6-12.3-2.4-17.9,0.4c-1.2,0.7-2.3,1.4-3.4,2.2c-2,1.6-3.3,3.4-4.2,4.9l-10.8-9l-26.4-22.2
			C103.3,153.4,99.6,153.4,97,155.5L97,155.5z"/>
	</g>
	<g>
		<g>
			<path style="fill:#FFFFFF;" d="M98.2,158.3c-1.4,1.8-3.5,7.3-1.8,8.7l26.4,22.2l7.6-9.3L104,157.8
				C102.2,156.3,99.6,156.6,98.2,158.3"/>
		</g>
		<g>
			<path style="fill-rule:evenodd;clip-rule:evenodd;fill:#029EF2;" d="M139.2,203l6.6,7c1.5,1.9,5.6,1,7.5-0.5l2.3-1.9l10-8.1
				c3.2-2.6,7.3-5.2,7.5-9.9c0.1-3.2-3.3-6.5-5.9-7.7c-4.9-2.2-10.7-2.1-15.4,0.3c0,0,0,0,0,0c-7,3.8-7.6,9.4-7.6,9.4L130.4,180
				l-7.6,9.3L139.2,203z"/>
		</g>
	</g>
</g>
<g>
	<g>
		<path d="M96.9,2.9c2.8,0,5.5,0.9,8.1,2.4c0,0,0.1,0,0.1,0c3.2,1.9,5.1,3.8,5.6,4.3c1.1,1,1.8,2.3,2.2,3.7c0.6,2.4,0.2,5-1.2,7
			c-1.3,1.8-3.3,2.8-5.2,2.8c-1.5,0-3-0.6-4.3-1.7c-0.7-0.6-1.3-1.3-2-2c-0.4-0.4-0.8-0.7-1.2-1c0-0.1,0-0.1,0.1-0.2
			c-1.2-1.1-2.3-2-3.4-2c-1,0-2.1,0.6-3.2,2.3c-1.4,2-3.2,7.7-6.1,7.7c-0.4,0-0.9-0.1-1.3-0.4c-4.2-2.4-1.9-13.5,1.1-17.1
			c0.9-1.1,1.9-2.2,3-3.1c1.3-1,1.5-1.2,2.9-1.8C93.5,3.3,95.2,2.9,96.9,2.9 M96.9,0L96.9,0c-2.2,0-4.3,0.5-6.3,1.3
			c-1.7,0.7-2,1-3.5,2.2C86,4.4,85,5.5,83.7,7c-2.8,3.4-4.7,10.9-3.8,15.8c0.6,3.4,2.2,4.9,3.5,5.7c0.9,0.5,1.8,0.8,2.8,0.8
			c3.9,0,5.9-4.1,7.4-7.1c0.4-0.8,0.8-1.5,1-1.9c0.5-0.7,0.8-0.9,0.9-1c0.1,0.1,0.4,0.2,0.8,0.6c0.2,0.5,0.6,0.9,1,1.1
			c0.3,0.2,0.6,0.5,0.8,0.6c0.6,0.7,1.3,1.4,2,2c1.8,1.6,4,2.5,6.3,2.5c3,0,5.7-1.5,7.6-4c1.9-2.7,2.6-6.2,1.7-9.5
			c-0.5-2-1.6-3.8-3.1-5.1l-0.2-0.2c-0.8-0.7-2.8-2.6-5.9-4.5c-0.2-0.1-0.4-0.2-0.6-0.3C102.9,0.8,99.8,0,96.9,0L96.9,0L96.9,0z"/>
	</g>
	<g>
		<g>
			<g>
				<path style="fill:#FFFFFF;" d="M91.8,4c-1.4,0.6-1.6,0.8-2.9,1.8c-1.1,0.9-2.1,2-3,3.1c-2.9,3.5-5.3,14.6-1.1,17.1
					c3.7,2.2,5.8-5.1,7.5-7.3c3.6-5.1,6.2-0.4,9.8,2.9c2.9,2.7,7.2,2.2,9.6-1.1c2.4-3.3,1.9-8.1-1-10.8C105.4,4.7,98.6,1,91.8,4z"/>
			</g>
			<g>
				<path style="fill:#653109;" d="M100.5,16.6c0.5-0.2,1-0.2,1.5-0.1c-0.6-0.3-1.2-0.9-1.4-1.7c-0.6-1.6,0.1-3.4,1.5-4
					c0.6-0.3,1.3-0.2,1.9,0c-0.6-0.3-1-0.8-1.3-1.5c-0.6-1.6,0.5-3.3,1.9-3.9c0.1-0.1,0.3-0.1,0.4-0.1c3.2,1.9,5.1,3.8,5.6,4.3
					c2.9,2.7,3.3,7.5,1,10.8c-2.4,3.3-6.6,3.7-9.6,1.1c-0.9-0.8-2-2.2-3.2-3C99,17.4,99.6,17,100.5,16.6"/>
			</g>
		</g>
	</g>
</g>
<g>
	<g>
		<path d="M45.4,8.1c0.5,0,1,0,1.4,0.1c5.8,0.5,8.8,4,11.8,9c1.7,2.8,5,9.4,1.2,11.9c-0.7,0.4-1.3,0.6-1.9,0.6
			c-3.2,0-5.5-4.9-7.6-6.5c-0.7-0.5-1.3-0.7-2-0.7c-1.6,0-3.3,1.3-5,3.2c0,0.1,0.1,0.2,0.1,0.3c-1.2,1.1-2.2,2.3-3,3.4c0,0,0,0,0,0
			c-1.6,2.1-3.9,3.3-6.4,3.3c-1.6,0-3.3-0.5-4.7-1.6c-2.2-1.7-3.3-4.2-3.2-6.8c0.1-1.6,0.5-3.1,1.5-4.5c0.5-0.6,2-3.2,5.1-6.1
			c0,0,0,0,0,0C36.4,10.3,40.5,8.1,45.4,8.1 M45.4,5.1c-5.1,0-9.8,2-14.2,6.2c-0.1,0.1-0.2,0.1-0.2,0.2c-2.9,2.7-4.6,5.2-5.3,6.2
			c-0.1,0.1-0.2,0.2-0.2,0.3c-1.3,1.8-2,3.9-2.1,6.1c-0.1,3.6,1.5,7.1,4.4,9.3c1.9,1.4,4.1,2.2,6.4,2.2c3.4,0,6.7-1.7,8.7-4.5
			c0.7-0.9,1.6-2,2.7-3c0.4-0.3,0.6-0.8,0.8-1.2c1.4-1.4,2-1.4,2.1-1.4c0.1,0,0.2,0.1,0.3,0.1c0.4,0.3,1.1,1.1,1.7,1.9
			c1.7,2.2,4.1,5.1,7.6,5.1c1.2,0,2.4-0.4,3.5-1.1c4.2-2.7,4.1-8.6-0.2-15.8c-2.8-4.7-6.5-9.8-14-10.4C46.5,5.2,45.9,5.1,45.4,5.1
			L45.4,5.1z"/>
	</g>
	<g>
		<g>
			<g>
				<path style="fill:#FFFFFF;" d="M46.8,8.1c5.8,0.5,8.8,4,11.8,9c1.7,2.8,5,9.4,1.2,11.9c-4.2,2.7-7-4-9.5-5.8
					c-3.2-2.4-6.6,1.7-9.8,6.1c-2.6,3.6-7.6,4.3-11.1,1.7c-3.5-2.7-4.3-7.7-1.7-11.3C32.7,12.8,38.6,7.4,46.8,8.1z"/>
			</g>
			<g>
				<path style="fill:#653109;" d="M41,23.9c-0.6-0.1-1.2,0.1-1.8,0.3c0.6-0.5,1.1-1.2,1.2-2.1c0.2-1.8-1-3.4-2.7-3.6
					c-0.8-0.1-1.6,0.1-2.2,0.6c0.5-0.5,0.9-1.2,1-1.9c0.2-1.8-1.5-3.2-3.2-3.5c-0.2,0-0.3,0-0.5,0c-3.1,2.9-4.7,5.5-5.1,6.1
					c-2.6,3.6-1.8,8.6,1.7,11.3c3.5,2.7,8.5,1.9,11.1-1.7c0.8-1,1.8-2.3,3-3.4C43.1,24.9,42.2,24,41,23.9"/>
			</g>
		</g>
	</g>
</g>
<g>
	<g>
		<g>
			<path style="fill:#029EF2;" d="M86,180.3c0.5,0,1.1,0,1.6,0c19.7-0.5,33.5-7.7,40-21c6-12.3,5.6-25.9,4.6-36.3
				c-0.3-2.8-1-5.9-1.7-9.1c-1.1-5.1-2.3-10.4-1.9-14.7c0.4-4.6,1.7-7.5,3.4-11.2c0.8-1.7,1.5-3.4,2.3-5.4c3.9-10.3-0.2-25.1-2.1-31
				c-3.6-10.8-9.8-19.7-17-24.4C105,20.5,93.7,16.8,83.4,16.8c-1.4,0-2.9,0.1-4.3,0.2l-4.1,0.4c-11.2,1.1-23.3,7.4-33.3,17.3
				c-6.1,6.1-10.4,16.1-11.8,27.4c-1.4,11.6,0.3,22.9,5.2,33.4c0.6,1.2,1.3,2.5,2,3.7l0.4,0.7c-0.2,1.3-0.6,2.6-1,4
				c-0.2,0.8-0.5,1.7-0.7,2.5c-0.6,2.4-1.2,4.8-1.9,7.2c-1.3,4.8-2.7,9.8-3.3,15c-1,9.6,0.5,23,6.2,31.6c6.7,10,19.5,17,35,19.2
				c1.8,0.3,3.8,0.5,5.8,0.6l3.8,0.2L82,179l-0.1,1.2C83.3,180.3,84.6,180.3,86,180.3z"/>
			<path d="M83.4,16.8c10.3,0,21.5,3.7,31.8,10.4c7.2,4.7,13.4,13.6,17,24.4c1.9,5.9,6.1,20.7,2.1,31c-0.8,2.1-1.6,3.8-2.3,5.4
				c-1.7,3.6-3,6.5-3.4,11.2c-0.4,4.2,0.8,9.5,1.9,14.7c0.7,3.3,1.4,6.4,1.7,9.1c1,10.4,1.5,24-4.6,36.3c-6.5,13.3-20.3,20.5-40,21
				c-0.5,0-1.1,0-1.6,0c-1.4,0-2.7,0-4.1-0.1L82,179l-0.3,1.1l-3.8-0.2c-1.9-0.1-3.9-0.3-5.8-0.6c-15.5-2.2-28.3-9.2-35-19.2
				c-5.8-8.5-7.3-22-6.2-31.6c0.6-5.1,1.9-10.1,3.3-15c0.6-2.4,1.3-4.8,1.9-7.2c0.2-0.8,0.4-1.7,0.7-2.5c0.4-1.4,0.8-2.7,1-4
				l-0.4-0.7c-0.7-1.2-1.4-2.5-2-3.7c-4.8-10.5-6.6-21.8-5.2-33.4c1.4-11.3,5.6-21.3,11.8-27.4c9.9-9.9,22.1-16.2,33.3-17.3l4.1-0.4
				C80.6,16.9,82,16.8,83.4,16.8 M83.4,14.1c-1.5,0-3.1,0.1-4.5,0.2l-4.1,0.4C63,15.9,50.3,22.5,39.9,32.8
				c-6.5,6.5-11.1,17.1-12.5,29c-1.5,12.2,0.4,23.9,5.4,34.9c0.6,1.3,1.3,2.6,2,3.8c-0.2,0.9-0.4,1.8-0.7,2.7l0,0
				c-0.2,0.8-0.5,1.7-0.7,2.6c-0.6,2.4-1.2,4.9-1.9,7.1l0,0c-1.4,4.9-2.8,10-3.4,15.4c-1.1,10.1,0.5,24.3,6.7,33.4
				c7.2,10.6,20.6,18,36.9,20.3c1.9,0.3,4,0.5,6,0.6l1.4,0.1v0l2.7,0.2c0.2,0,0.4,0,0.7,0l1.3,0.1l0,0c0.8,0,1.5,0,2.3,0
				c0.5,0,1.1,0,1.7,0c20.7-0.5,35.4-8.3,42.3-22.5c6.3-12.9,5.9-27,4.8-37.8c-0.3-2.9-1-6.1-1.7-9.5c-1.1-4.9-2.2-10-1.9-13.8
				c0.4-4.2,1.6-6.7,3.2-10.3c0.7-1.6,1.6-3.4,2.4-5.6c4.2-11.2-0.1-26.7-2.1-32.9c-3.8-11.4-10.3-20.8-18-25.8
				C106,17.9,94.2,14.1,83.4,14.1L83.4,14.1z"/>
		</g>
	</g>
</g>
<g>
	<path style="fill:#029EF2;" d="M79.3,18.2l-0.2,0C79.2,18.2,79.3,18.2,79.3,18.2z"/>
</g>
<g>
	<g>
		<g>
			<g>
				<path style="fill-rule:evenodd;clip-rule:evenodd;fill:#FFFFFF;" d="M125.4,48.6c-0.2-0.8-0.4-1.5-0.7-2.2
					c-0.1-0.4-0.3-0.8-0.4-1.1c-1-3.4-2.5-6.6-4.4-9.3c-4.6-6.7-13.6-10.6-20.2-12.7c-4.4-1.4-9.2-2.2-14-2.3c-0.4,0-0.8,0-1.2,0
					c-5.8,0-12.9,1.2-18.1,2.9c-3,1-5.8,2.3-8.4,3.7c-7.3,4.1-12.6,9.7-15.5,16.4c-1.3,3.1-2.2,6.4-2.5,10c-0.1,1.6-0.3,3.6-0.3,5.5
					c0,1.3-0.1,3.8-0.2,4.7c-0.2,2.8-0.3,4.2-0.4,5.5c-0.1,1-0.1,2-0.2,3.4c-0.5,5.4,2.2,12.2,4.8,16.8c6.3,11,20.9,14.9,32.4,14.9
					c0,0,0,0,0,0c1.2,0,2.5,0,3.6-0.1l0.4,0c7.6-0.5,11.8-0.8,19.6-1.9l5.1-0.7c14.9-2,26.1-10.1,29.9-21.6
					c1.6-4.7,1.7-10.4,0.3-15.9c-1.4-5.6-2.4-8-5.9-12c-0.4-0.4-0.9-0.8-1.5-1.3c-0.7-0.6-1.8-1.3-1.9-1.9"/>
				<path d="M76.1,106.2L76.1,106.2c-11.9,0-26.9-4.1-33.5-15.6c-2.7-4.7-5.5-11.9-5-17.6c0.1-1.4,0.2-2.3,0.2-3.3l0-0.1
					c0.1-1.3,0.2-2.8,0.4-5.6c0.1-0.9,0.2-3.6,0.2-4.6c0.1-1.9,0.2-4,0.3-5.6c0.3-3.7,1.2-7.2,2.6-10.4c3-6.9,8.5-12.8,16.1-17
					c2.6-1.5,5.5-2.8,8.6-3.8c5.7-2,13.6-3.2,19.8-3c4.9,0.1,9.8,1,14.3,2.4c6.9,2.2,16.1,6.2,20.9,13.2c2,2.9,3.5,6.1,4.6,9.7
					c0.1,0.3,0.2,0.7,0.3,1.1l0,0c0.1,0.3,0.2,0.7,0.4,1.1l0.1,0.2l0.6,1.8c0.2,0.3,1,0.9,1.3,1.1c0.6,0.4,1.2,0.9,1.7,1.5
					c3.6,4.2,4.7,6.9,6.2,12.6c1.5,5.8,1.4,11.7-0.3,16.7c-4,12-15.6,20.4-31,22.5l-5.1,0.7c-7.8,1-12,1.3-19.6,1.9l-0.5,0
					C78.6,106.2,77.3,106.2,76.1,106.2z M84.5,22.4c-5.7,0-12.6,1.1-17.7,2.9c-2.9,1-5.7,2.2-8.2,3.6c-7,3.9-12.2,9.4-14.9,15.7
					c-1.3,2.9-2.1,6.2-2.4,9.6c-0.1,1.6-0.3,3.5-0.3,5.4c-0.1,1.8-0.2,3.9-0.2,4.7c-0.2,2.7-0.3,4.2-0.4,5.5l0,0.1
					c-0.1,1-0.1,2-0.2,3.4c-0.4,5.1,2.1,11.6,4.6,15.9c6.1,10.5,20.1,14.2,31.2,14.2h0c1.2,0,2.4,0,3.5-0.1l0.4,0
					c7.6-0.5,11.8-0.8,19.5-1.9l5.1-0.7c14.4-2,25.2-9.7,28.8-20.7c1.5-4.5,1.6-9.9,0.2-15.1c-1.4-5.4-2.3-7.6-5.6-11.5
					c-0.3-0.3-0.8-0.7-1.3-1c-1.1-0.8-2-1.5-2.3-2.4l-0.2-0.5l-0.3-0.7c-0.2-0.7-0.4-1.4-0.6-2l0,0c-0.1-0.4-0.3-0.8-0.4-1.2
					c-1-3.3-2.4-6.3-4.2-8.9c-4.4-6.4-13.1-10.1-19.5-12.2c-4.3-1.3-9-2.1-13.6-2.3C85.3,22.4,84.9,22.4,84.5,22.4z M127.1,49.3
					L127.1,49.3C127.1,49.3,127.1,49.3,127.1,49.3z"/>
			</g>
		</g>
	</g>
	<g>
		<g>
			<g>
				<path style="fill-rule:evenodd;clip-rule:evenodd;fill:#F8BBB7;" d="M78.1,73.5c0.7,7.2-4.4,13.6-11.4,14.3
					c-7,0.7-13.3-4.5-14-11.7C51.9,69,57,62.6,64,61.9S77.3,66.4,78.1,73.5"/>
			</g>
			<g>
				<path style="fill-rule:evenodd;clip-rule:evenodd;fill:#F8BBB7;" d="M133.4,68.3c0.4,7.2-2.9,13.4-8.7,13.6
					c-7.1,0.3-12.3-6.2-12.8-11.7c-0.7-7.2,2-14.1,9.1-14.5C128,55.3,133.2,62.4,133.4,68.3z"/>
			</g>
		</g>
		<g>
			<path style="fill-rule:evenodd;clip-rule:evenodd;" d="M98.6,65.3c0.1,0.9-0.8,1.8-2,1.9c-1.2,0.1-2.3-0.5-2.4-1.4
				c-0.1-0.9,0.8-1.8,2-1.9C97.4,63.7,98.5,64.4,98.6,65.3"/>
		</g>
		<g>
			<path style="fill-rule:evenodd;clip-rule:evenodd;fill:#CE4A4C;" d="M84.6,75.9c0.6,3.4,4,11.5,12.2,9.6c9-1.3,9.5-9.3,9.5-12.4"
				/>
			<path d="M94.4,86.7c0.8,0,1.7-0.1,2.6-0.3c6.7-1,10.3-5.7,10.2-13.3c0-0.5-0.4-1-1-1c0,0,0,0,0,0c-0.5,0-1,0.4-0.9,1
				c0.1,4.6-1.4,10.3-8.6,11.4c-2.5,0.6-4.6,0.2-6.4-1c-3-2.1-4.4-6-4.7-7.8c-0.1-0.5-0.6-0.9-1.1-0.8c-0.5,0.1-0.9,0.6-0.8,1.1
				c0.4,2.2,2,6.7,5.5,9.1C90.8,86.2,92.5,86.7,94.4,86.7z"/>
		</g>
		<g>
			<path style="fill-rule:evenodd;clip-rule:evenodd;fill:#FFFFFF;" d="M102.9,74.6l0.1,0.7c0.1,0.6-0.4,1.1-1,1.2l-12.5,1.8
				c-0.6,0.1-1.2-0.3-1.3-0.9l-0.1-0.5c-0.1-0.5,0.2-1,0.8-1.2c1.4-0.5,4.2-1.5,5.4-2.7c0.3-0.3,0.9-0.5,1.3-0.3
				c1.1,0.5,3.4,1.2,6,1C102.4,73.7,102.9,74.1,102.9,74.6z"/>
		</g>
		<g>
			<path d="M87.3,77.4c4.1,0,8.5-2.2,10.7-4.6c0.4-0.5,0.4-1.2-0.1-1.6c-0.5-0.4-1.2-0.4-1.6,0.1c-2.4,2.6-8.5,5.2-12.3,3.1
				c-1-0.6-1.7-1.2-1.9-1.5c0.3-0.5,0.1-1.1-0.3-1.5c-0.5-0.4-1.2-0.3-1.6,0.2c-0.4,0.5-0.5,1.1-0.4,1.7c0.3,1.4,2,2.6,3.1,3.1
				C84.2,77,85.7,77.4,87.3,77.4z"/>
		</g>
		<g>
			<path d="M102.5,75.1c2.2,0,4.4-0.8,6-2.6c1.8-2,2.2-3.9,1.2-5c-0.4-0.5-1.2-0.5-1.6-0.1c-0.4,0.4-0.5,1.1-0.1,1.6
				c0,0.3-0.4,1.1-1.1,1.9c-2.3,2.6-6.6,2.2-8.9,0.1c-0.5-0.4-1.2-0.4-1.6,0.1c-0.4,0.5-0.4,1.2,0.1,1.6
				C97.9,74.3,100.2,75.1,102.5,75.1z"/>
		</g>
		<path style="fill:#231816;" d="M108.5,61.3C108.5,61.3,108.4,61.3,108.5,61.3l-5.4-0.4c-0.4,0-0.7-0.3-0.8-0.7
			c-0.1-0.4,0-0.8,0.4-1l4.5-3.1c0.4-0.3,1-0.2,1.2,0.3c0.3,0.4,0.2,1-0.2,1.3l-2.4,1.6l2.7,0.2c0.5,0,0.9,0.5,0.8,1
			C109.3,60.9,109,61.3,108.5,61.3z"/>
		<path style="fill:#231816;" d="M78.1,65.8c-0.3,0-0.6-0.2-0.8-0.5c-0.2-0.4,0-1,0.4-1.2l2.2-1.1l-2.7-0.3c-0.5-0.1-0.8-0.5-0.8-1
			c0.1-0.5,0.5-0.9,1-0.8l5.7,0.7c0.4,0,0.7,0.3,0.8,0.7c0.1,0.4-0.1,0.8-0.5,1l-4.9,2.5C78.4,65.8,78.3,65.8,78.1,65.8z"/>
	</g>
</g>
<g>
	<g>
		<path style="fill:#4A4A4A;" d="M97.2,178.9c1.9,0.2,3.8,0.4,5.5,0.5c15.9,1.6,34.5-1.1,48.9-8.3c4.6-2.3,19.3-9.4,16.1-16.1
			c-1.5-3.3-7.1-6.9-9.7-9.6c-3.5-3.5-6.9-7.1-10.4-10.7c-4.2-4.3-8.1-8.9-11.6-13.8c-1-1.4-5.8-14.4-6.5-14.3
			c-12.6,1.1-27.4,2.6-40,3.8c-10.4,1-21.5,1.7-31.6,4.9c-0.5,0.2-1.1,0.4-1.4,0.9c-0.2,0.4-0.2,0.8-0.1,1.2
			c1.1,18.9,10.3,37,23.1,50.6c2.9,3,6.6,7.5,10.4,9.2C92.1,178.1,94.6,178.6,97.2,178.9z"/>
		<path d="M111.9,181.3c-3.1,0-6.3-0.2-9.4-0.5c-0.6-0.1-1.2-0.1-1.9-0.2c-1.2-0.1-2.4-0.2-3.6-0.4h0c-2.1-0.3-5.1-0.7-7.5-1.8
			c-3.5-1.6-6.8-5.2-9.5-8.1c-0.5-0.5-0.9-1-1.3-1.5c-13.9-14.7-22.4-33.4-23.5-51.5c0-0.4-0.1-1.2,0.3-1.9c0.5-1,1.6-1.4,2.1-1.5
			c9.3-2.9,19.3-3.8,29.1-4.7c0.9-0.1,1.8-0.2,2.8-0.2c6.3-0.6,13.3-1.2,20-1.9c6.7-0.6,13.7-1.3,20-1.9c1.2-0.1,1.7,0.9,2.8,3.3
			c0.7,1.5,1.5,3.6,2.3,5.5c1,2.3,2.3,5.6,2.7,6.1c3.5,4.8,7.3,9.4,11.5,13.6c1.6,1.7,3.3,3.4,4.9,5c1.8,1.9,3.6,3.7,5.5,5.6
			c0.8,0.8,2,1.8,3.2,2.8c2.6,2.2,5.6,4.7,6.7,7.1c3.6,7.7-10.9,15-16.4,17.7l-0.4,0.2C140.7,178.1,126.1,181.3,111.9,181.3z
			 M97.3,177.5c1.2,0.1,2.4,0.3,3.5,0.4c0.7,0.1,1.3,0.1,1.9,0.2c16.5,1.7,34.5-1.4,48.2-8.2l0.4-0.2c11.7-5.9,16.8-10.6,15.1-14.1
			c-0.9-1.9-3.6-4.2-6-6.2c-1.3-1.1-2.5-2.1-3.4-3c-1.8-1.9-3.6-3.7-5.5-5.6c-1.6-1.7-3.3-3.4-4.9-5c-4.2-4.3-8.2-9-11.7-13.9
			c-0.5-0.7-1.3-2.5-3-6.6c-1-2.4-2.4-5.8-3.1-7.1c-6.1,0.6-12.8,1.2-19.3,1.8c-6.7,0.6-13.7,1.3-20,1.9c-0.9,0.1-1.8,0.2-2.8,0.2
			c-9.6,0.9-19.5,1.7-28.5,4.6c-0.4,0.1-0.5,0.2-0.6,0.2c0,0.1,0,0.3,0,0.4c1,17.4,9.3,35.6,22.8,49.8c0.4,0.5,0.9,1,1.4,1.5
			c2.5,2.7,5.6,6.1,8.6,7.4C92.7,176.9,95.4,177.3,97.3,177.5L97.3,177.5z"/>
	</g>
	<path d="M110.1,156.2c-5.7,0-10.3-1.4-13.5-4.2c-3.8-3.3-5.5-8.2-6.5-12.1c-0.1-0.4,0-0.8,0.2-1.1c0.2-0.3,0.6-0.5,0.9-0.6
		c7.4-1.1,14.7-2.7,21.8-4.9l0,0c2.9-0.9,5.9-1.6,8.8-2.2c3-0.7,6-1.3,8.9-2.3c0,0,0,0,0,0c0.7-0.2,1.5,0.2,1.7,0.9
		c0.1,0.4,0.1,0.8-0.1,1.1c-0.1,0.9,0.2,3.9,0.4,5.6c0.2,1.8,0.3,2.8,0.3,3.3c-0.2,3.7-1.7,7.4-4,9.8c-4.7,5.1-11.9,6.5-17,6.7
		C111.3,156.2,110.7,156.2,110.1,156.2z M93.1,140.7c1,3.2,2.5,6.8,5.3,9.3c3,2.6,7.5,3.8,13.4,3.5c4.7-0.2,11.1-1.4,15.2-5.9
		c1.9-2,3.1-5.1,3.3-8.1c0-0.3-0.1-1.7-0.2-2.8c-0.2-2-0.4-3.6-0.4-4.7c-2.4,0.7-4.8,1.2-7.2,1.8c-2.8,0.6-5.8,1.3-8.6,2.2
		C107,138,100.1,139.6,93.1,140.7z M131.5,131.3L131.5,131.3C131.5,131.3,131.5,131.3,131.5,131.3
		C131.5,131.3,131.5,131.3,131.5,131.3L131.5,131.3z"/>
</g>
<g>
	<path style="fill:#4A4A4A;" d="M56.6,122.5c0,0-5-19.4-21.4-20.7l-2.4-6.1c0,0,16.3-5.1,34,23.7L56.6,122.5z"/>
	<path d="M56.6,123.8c-0.2,0-0.5-0.1-0.7-0.2c-0.3-0.2-0.5-0.5-0.6-0.8c-0.1-0.2-5-18.5-20.2-19.7c-0.5,0-0.9-0.4-1.1-0.8l-2.4-6.1
		c-0.1-0.4-0.1-0.7,0-1.1s0.5-0.6,0.8-0.7c0.7-0.2,17.5-5.1,35.6,24.3c0.2,0.4,0.3,0.8,0.1,1.2c-0.1,0.4-0.5,0.7-0.9,0.8L57,123.8
		C56.9,123.8,56.7,123.8,56.6,123.8z M36.2,100.5c6.8,0.8,12.6,4.7,17,11.3c2.4,3.6,3.7,7.1,4.3,8.9l7.2-2.2
		c-4.9-7.7-12.5-16.9-21.8-20.5c-3.7-1.4-6.6-1.5-8.3-1.4L36.2,100.5z"/>
</g>
<g>
	<path style="fill:#4A4A4A;" d="M126.6,106.9c0,0,4-8.4,5.4-18.9c0,0,2.5,7.4-1.4,20.4L126.6,106.9z"/>
	<path d="M130.5,109.7c-0.1,0-0.3,0-0.4-0.1l-4-1.4c-0.4-0.1-0.6-0.4-0.8-0.8s-0.1-0.8,0-1.1c0-0.1,3.9-8.4,5.3-18.5
		c0.1-0.6,0.6-1.1,1.2-1.2c0.6-0.1,1.2,0.3,1.4,0.9c0.1,0.3,2.6,8-1.4,21.2c-0.1,0.4-0.4,0.6-0.7,0.8
		C131,109.7,130.8,109.7,130.5,109.7z M128.4,106.2l1.3,0.4c0.9-3.3,1.4-6.2,1.6-8.7C130.2,101.6,129.1,104.5,128.4,106.2z"/>
</g>
<g>
	<path style="fill:#4A4A4A;" d="M63.5,144.4c0,0-30.1,1.2-35.7-7.4c0,0-1.3,9.2,5,11.2s34,4.2,34,4.2L63.5,144.4z"/>
	<path d="M66.8,153.8c0,0-0.1,0-0.1,0c-1.1-0.1-28-2.3-34.3-4.3c-7.3-2.3-6-12.3-5.9-12.7c0.1-0.6,0.5-1,1-1.1
		c0.5-0.1,1.1,0.1,1.4,0.6c4.3,6.5,26.4,7.1,34.6,6.8c0.6,0,1.1,0.3,1.3,0.8l3.3,8.1c0.2,0.4,0.1,0.9-0.2,1.3
		C67.7,153.6,67.2,153.8,66.8,153.8z M29.1,140.2c0,0.5,0.1,1,0.2,1.5c0.5,2.8,1.8,4.6,3.9,5.2c5,1.6,24.9,3.4,31.5,4l-2.1-5.1
		c-2.3,0.1-8.4,0.1-15-0.5C38.9,144.5,32.6,142.7,29.1,140.2z"/>
</g>
<g>
	<path style="fill:#FFFFFF;" d="M4.1,25.9c-0.1,0-0.2,0-0.3,0c-1.1,0.2-1.7,1.5-1.7,2.6c0,1.3,0.7,2.5,1.3,3.6
		c0.2,0.3,0.4,0.7,0.7,1.1c1,1.6,2.2,3.5,1.5,5c-0.4,0.8-1.1,1.4-1.8,1.9c-0.8,0.7-1.6,1.3-1.9,2.3c-1.4,3.9-0.1,8.7,1.8,11.7
		c1.2,1.9,2.7,3.6,4.1,5.3C8.9,60.7,10,62,11,63.4c5.7,7.8,10.5,16.6,14.7,24.3c1,1.8,1.9,4,2.8,6.3c2.2,5.6,4.7,11.9,9.5,14.1
		c2.1,1,3.8,0.7,5.2-1l0,0c1.8-2.2,2.6-6.7,2.6-9.9c-0.1-7.1-2.7-13.7-4.9-19.6C36.7,67.1,32.1,56,24.9,45.9
		c-0.2-0.2-0.1-0.5,0.1-0.7c1.7-1.4,3.2-2.9,4.4-4.7c0.5-0.6,0.8-1.2,0.9-1.8c0.1-0.5,0.1-1.2-0.4-1.6c-0.2-0.2-0.5-0.3-0.8-0.5
		c-1.5-0.5-3.3-0.2-5.2,0.8c-1.1,0.6-2.1,1.3-3,2c-0.5,0.4-1.1,0.8-1.7,1.2c-0.1,0.1-0.4,0.3-0.7,0.2c-0.3,0-0.5-0.2-0.6-0.3
		l-0.6-0.5c-1.4-1.1-2.3-1.9-3.5-3.5l-5.2-7.1c-0.9-1.2-1.9-2.5-3.2-3.2C5.1,26.1,4.6,25.9,4.1,25.9z"/>
	<path style="fill:#0181C4;" d="M18.6,40.8c0,0-5.1-3.5-7.2-7.6c0,0-4.1-7.6-7.6-7.3c0,0-3.7,0.6-0.4,6.1c0,0,2.7,3.4,2.4,5.4
		c0,0-6.2,3.9-4.3,10.9c0,0,0.4,4.9,4.6,9.1c0,0,7.4,8.3,8.8,11.7l4,6.5c0,0,13.5,4.4,17.6-8.5c0,0-9.1-19.9-11.6-21.2
		c0,0-0.5-0.6,1.2-1.6c0,0,6.1-4.7,3.9-7.2C30,37.1,26.6,32.8,18.6,40.8z"/>
	<path d="M8.2,55.2c-1.2,0-2.4-0.4-3.2-1.1c-0.6-0.5-0.6-1.3-0.2-1.9c0.5-0.6,1.3-0.6,1.9-0.2c0.3,0.3,0.9,0.5,1.5,0.4
		c1.3,0,2.9-0.9,4.2-2.4c1.4-1.5,2.3-3.4,2.3-4.7c-0.1-2.1-1.8-3.4-4.6-4.8c-2-1-5.5,0.1-6.9,2.1c-0.4,0.6-1.3,0.8-1.9,0.3
		s-0.8-1.3-0.3-1.9c1.9-2.9,6.7-4.7,10.2-3c2.1,1,6,3,6.1,7.1c0.1,2.1-1.1,4.6-3,6.7c-1.9,2-4.1,3.2-6.1,3.3
		C8.3,55.2,8.2,55.2,8.2,55.2z"/>
	<path d="M40.2,110c-0.8,0-1.7-0.2-2.8-0.7c-5.2-2.4-7.8-9-10.1-14.8c-0.9-2.3-1.8-4.5-2.7-6.2c-4.2-7.7-9-16.4-14.6-24.2
		c-1-1.3-2.1-2.6-3.1-3.8c-1.5-1.7-3-3.5-4.2-5.4c-2.1-3.2-3.5-8.5-1.9-12.8c0.5-1.4,1.5-2.2,2.3-2.9c0.6-0.5,1.1-0.9,1.4-1.5
		C4.9,36.8,3.8,35.2,3,34c-0.3-0.4-0.5-0.8-0.7-1.2c-0.6-1.2-1.4-2.6-1.4-4.2c0-1.7,1-3.6,2.8-3.9c0.8-0.1,1.6,0,2.5,0.5
		c1.6,0.9,2.7,2.4,3.7,3.6l5.2,7.1c1.1,1.4,1.9,2.1,3.3,3.2l0.5,0.4c0.5-0.3,1-0.7,1.5-1.1c1-0.7,2.1-1.5,3.2-2.1
		c2.2-1.2,4.4-1.5,6.2-0.9c0.6,0.2,1,0.5,1.4,0.8c0.7,0.7,1,1.8,0.7,2.9c-0.2,0.9-0.7,1.6-1.1,2.3c-1.2,1.6-2.5,3.1-4,4.5
		c7,10,11.6,21,15.6,31.4c2.3,6,5,12.8,5,20.1c0,3.6-0.8,8.3-2.9,10.8C43.3,109,42,110,40.2,110z M4.1,27.3
		C4.1,27.3,4.1,27.3,4.1,27.3c-0.3,0.1-0.7,0.7-0.7,1.2c0,0.9,0.6,2,1.1,3c0.2,0.3,0.4,0.7,0.6,1c1.1,1.8,2.7,4.1,1.6,6.4
		c-0.5,1.1-1.4,1.8-2.1,2.4c-0.7,0.6-1.3,1.1-1.5,1.7c-1.3,3.5-0.1,7.8,1.7,10.5c1.1,1.8,2.6,3.5,4,5.1c1.1,1.3,2.2,2.6,3.3,4
		c5.8,7.9,10.6,16.7,14.8,24.5c1,1.9,1.9,4.1,2.8,6.4c2.1,5.4,4.5,11.4,8.8,13.4c2,0.9,2.9,0.3,3.6-0.6c1.5-1.9,2.3-6,2.3-9
		c-0.1-6.8-2.6-13.4-4.9-19.2c-4-10.4-8.6-21.5-15.7-31.4c-0.6-0.8-0.4-1.9,0.3-2.5c1.6-1.3,3-2.8,4.2-4.4c0.4-0.5,0.6-0.9,0.7-1.3
		c0-0.2,0-0.4,0-0.4l0,0c0,0-0.1-0.1-0.3-0.1c-1.1-0.4-2.6-0.1-4.1,0.7c-1,0.5-1.9,1.2-2.9,1.9c-0.6,0.4-1.1,0.8-1.7,1.2
		c-0.2,0.1-0.7,0.5-1.5,0.5c-0.7,0-1.2-0.4-1.4-0.6l-0.6-0.5c-1.4-1.1-2.5-2-3.7-3.7l-5.2-7.1c-0.8-1.1-1.7-2.3-2.8-2.9
		C4.6,27.3,4.3,27.3,4.1,27.3z"/>
</g>
</svg>
