<?xml version="1.0" encoding="utf-8"?>
<!-- Generator: Adobe Illustrator 26.0.3, SVG Export Plug-In . SVG Version: 6.00 Build 0)  -->
<svg version="1.1" id="레이어_1" xmlns="http://www.w3.org/2000/svg" xmlns:xlink="http://www.w3.org/1999/xlink" x="0px"
	 y="0px" viewBox="0 0 390 390" style="enable-background:new 0 0 390 390;" xml:space="preserve">
<style type="text/css">
	.st0{fill:#FF7C00;}
	.st1{fill:#FFCE00;}
	.st2{fill:#00B839;}
	.st3{fill:#2F8BFF;}
	.st4{fill:#FFFFFF;}
	.st5{fill-rule:evenodd;clip-rule:evenodd;fill:#F9FF2E;}
	.st6{fill:#A90718;}
	.st7{fill-rule:evenodd;clip-rule:evenodd;}
</style>
<g>
	<g>
		<rect x="159" y="267" class="st0" width="20.5" height="87.8"/>
		<path d="M181.4,356.6h-24.2v-91.4h24.2V356.6z M160.8,353h16.9v-84.2h-16.9V353z"/>
	</g>
	<g>
		<path class="st0" d="M188.1,349.6c0-14.4-12.1-25.9-26.7-25c-13.3,0.9-23.4,12.5-23.4,25.8l0,0c0,7.1,5.8,12.9,12.9,12.9h24.2
			c7.1,0,12.9-5.8,12.9-12.9v-0.8H188.1z"/>
		<path d="M175.2,365.2H151c-8.1,0-14.7-6.6-14.7-14.7c0-14.6,11-26.7,25-27.6c7.5-0.5,14.7,2.1,20.1,7.2c5.4,5.1,8.5,12.2,8.5,19.6
			v0.9C189.9,358.6,183.3,365.2,175.2,365.2z M163.1,326.4c-0.5,0-1,0-1.6,0.1c-12.1,0.8-21.7,11.3-21.7,24c0,6.1,5,11.1,11.1,11.1
			h24.2c6.1,0,11.1-5,11.1-11.1v-0.9c0-6.5-2.6-12.5-7.3-16.9C174.6,328.6,169,326.4,163.1,326.4z"/>
	</g>
</g>
<g>
	<g>
		<rect x="206.2" y="265.3" class="st0" width="20.5" height="88"/>
		<path d="M228.6,355.2h-24.1v-91.7h24.1V355.2z M208,351.5h17v-84.4h-17V351.5z"/>
	</g>
	<g>
		<path class="st0" d="M247.4,349.6c0-14.4-12.1-25.9-26.7-25c-13.3,0.9-23.4,12.5-23.4,25.8l0,0c0,7.1,5.8,12.9,12.9,12.9h24.2
			c7.1,0,12.9-5.8,12.9-12.9v-0.8H247.4z"/>
		<path d="M234.5,365.2h-24.2c-8.1,0-14.7-6.6-14.7-14.7c0-14.6,11-26.7,25-27.6c7.5-0.5,14.7,2.1,20.1,7.2
			c5.4,5.1,8.5,12.2,8.5,19.6v0.9C249.2,358.6,242.6,365.2,234.5,365.2z M222.4,326.4c-0.5,0-1,0-1.6,0.1
			c-12.1,0.8-21.7,11.3-21.7,24c0,6.1,5,11.1,11.1,11.1h24.2c6.1,0,11.1-5,11.1-11.1v-0.9c0-6.5-2.6-12.5-7.3-16.9
			C233.9,328.6,228.3,326.4,222.4,326.4z"/>
	</g>
</g>
<g>
	<path class="st1" d="M138,183.6c-4.1-3.9-10.3-4.6-16-4.7c-14.5-0.3-29.1,1.7-42.9,5.9c-6.2,1.9-13.1,5-15.2,11.1
		c-1.7,5.2,0.5,10.9,3.6,15.4c9.5,14.1,27.1,22.2,44,20.3"/>
	<path d="M106.5,233.8c-15.8,0-31.6-8.2-40.5-21.4c-2.9-4.3-5.9-10.8-3.8-17c2.5-7.3,10.5-10.5,16.4-12.3c14.1-4.3,28.8-6.3,43.5-6
		c5.9,0.1,12.6,0.8,17.2,5.2c0.7,0.7,0.8,1.8,0.1,2.6c-0.7,0.7-1.8,0.8-2.6,0.1c-3.7-3.5-9.6-4.1-14.8-4.2
		c-14.4-0.3-28.6,1.7-42.4,5.8c-8.1,2.4-12.5,5.6-14,10c-1.6,4.8,0.9,10.2,3.4,13.8c9.1,13.5,26.1,21.3,42.2,19.5
		c1-0.1,1.9,0.6,2,1.6s-0.6,1.9-1.6,2C110,233.7,108.2,233.8,106.5,233.8z"/>
</g>
<g>
	<path class="st1" d="M252,183.6c4.1-3.9,10.3-4.6,16-4.7c14.5-0.3,29.1,1.7,42.9,5.9c6.2,1.9,13.1,5,15.2,11.1
		c1.7,5.2-0.5,10.9-3.6,15.4c-9.5,14.1-27.1,22.2-44,20.3"/>
	<path d="M283.5,233.8c-1.7,0-3.5-0.1-5.2-0.3c-1-0.1-1.7-1-1.6-2s1.1-1.7,2-1.6c16.2,1.9,33.2-6,42.2-19.5c2.4-3.6,5-9,3.4-13.8
		c-1.5-4.4-5.9-7.5-14-10c-13.7-4.2-28-6.2-42.4-5.8c-5.2,0.1-11.1,0.7-14.8,4.2c-0.7,0.7-1.9,0.7-2.6-0.1c-0.7-0.7-0.6-1.9,0.1-2.6
		c4.6-4.3,11.3-5.1,17.2-5.2c14.8-0.3,29.4,1.7,43.5,6c5.8,1.8,13.9,5,16.4,12.3c2.1,6.2-0.9,12.7-3.8,17
		C315.1,225.6,299.3,233.8,283.5,233.8z"/>
</g>
<g>
	<g>
		<path class="st1" d="M195.9,297.9c-12,0-22.3-1.1-31.4-3.4c-14.5-3.6-26.7-10.5-35.3-19.8c-14.6-15.9-20.2-41.2-14.9-67.9
			c0.4-2.3,1-4.5,1.5-6.8c1.5-6.5,3-13.1,2.8-19.7c-0.2-7.5-2.5-14.6-4.9-22.1c-1-3.2-2.1-6.5-3-9.7c-6.2-23-3.2-47.5,8.1-67.3
			c14.2-24.7,42.7-40.1,74.4-40.1c25.2,0,48.6,9.6,64.4,26.5c18,19.2,25.4,48.6,19.3,76.7c-0.7,3.4-1.7,6.9-2.6,10.2
			c-1.6,6-3.4,12.2-3.9,18.5c-0.4,4.9-0.2,10.2,0.8,16.6c0.7,4.6,1.7,9.3,2.6,13.8c0.8,3.9,1.7,7.9,2.3,11.9
			c4.5,27-1.3,50.6-15.9,64.5c-15.3,14.6-37.7,17.2-55.5,17.8C201.8,297.8,198.9,297.9,195.9,297.9L195.9,297.9z"/>
	</g>
	<g>
		<path d="M193.2,43.1c23.4,0,46.8,8.6,63.1,25.9c18.4,19.6,24.5,48.8,18.8,75.1c-2.1,9.7-5.7,19-6.5,28.9c-0.5,5.7-0.1,11.3,0.8,17
			c1.3,8.6,3.6,17.2,5,25.8c3.7,22.2,0.9,47.4-15.4,62.9c-14.1,13.4-34.9,16.6-54.3,17.3c-2.9,0.1-5.9,0.2-8.8,0.2
			c-10.4,0-20.8-0.8-30.9-3.3c-12.9-3.2-25.4-9.5-34.4-19.3c-15.9-17.3-19-43.3-14.5-66.3c1.8-8.9,4.6-17.8,4.3-26.9
			c-0.3-11.1-5.1-21.5-8-32.2c-5.9-21.9-3.4-46.2,8-65.9C135.3,56.2,164.2,43.1,193.2,43.1 M193.2,39.4c-32.3,0-61.5,15.7-76,41
			c-11.6,20.1-14.6,45.1-8.3,68.6c0.9,3.3,2,6.6,3,9.8c2.4,7.4,4.7,14.3,4.9,21.6c0.2,6.4-1.2,12.6-2.7,19.3c-0.5,2.3-1,4.6-1.5,6.8
			c-5.4,27.2,0.4,53.2,15.4,69.4c8.8,9.6,21.3,16.6,36.2,20.3c9.2,2.3,19.6,3.4,31.8,3.4c2.8,0,5.8-0.1,9-0.2
			c18.1-0.7,41-3.3,56.7-18.3c15.1-14.4,21.1-38.5,16.5-66.1c-0.7-4-1.5-8.1-2.4-12c-1-4.5-1.9-9.2-2.6-13.7
			c-0.9-6.2-1.2-11.3-0.8-16.1c0.5-6.1,2.1-11.9,3.8-18.1c0.9-3.4,1.9-6.8,2.6-10.3c6.2-28.7-1.3-58.7-19.7-78.3
			C242.9,49.3,218.9,39.4,193.2,39.4L193.2,39.4z"/>
	</g>
</g>
<g>
	<g>
		<path class="st2" d="M115.1,166.2c0,0,88.8,74.7,161.5,81.5c0,0-0.9,13.7-4.6,19.2c0,0-110-27.6-157.8-83L115.1,166.2z"/>
		<path d="M272.1,268.8c-0.1,0-0.3,0-0.4-0.1c-1.1-0.3-111.1-28.3-158.7-83.6c-0.3-0.4-0.5-0.8-0.4-1.3l0.9-17.7
			c0-0.7,0.5-1.3,1.1-1.6s1.4-0.2,1.9,0.3c0.9,0.7,89.2,74.4,160.6,81.1c1,0.1,1.7,0.9,1.6,1.9c0,0.6-1,14.3-4.9,20.1
			C273.2,268.5,272.7,268.8,272.1,268.8z M116.1,183.3c44.3,50.8,142.6,78.2,155.1,81.6c2-4,3.1-11.3,3.5-15.5
			c-64.9-7.1-142.4-67-158-79.5L116.1,183.3z"/>
	</g>
	<g>
		<path class="st3" d="M285.1,244.2c1.7,0,3.4,0,4.9,0.7c2,0.8,3.4,2.6,4.4,4.5c3.7,7,2.6,15.6,0.9,23.4c-1.5,6.8-3.5,13.7-7.2,19.6
			c-3.7,6-9.3,11-16.1,12.7c-6.8,1.7-14.7-0.5-18.7-6.3c-2.7-3.8-3.3-8.7-3.5-13.4c-0.4-12.6,2.9-25.7,11.2-35.3
			C267.6,242.6,275.8,244.2,285.1,244.2z"/>
		<path d="M267.4,307.5c-6.3,0-12.3-2.8-15.6-7.6c-3.1-4.5-3.7-10-3.8-14.4c-0.4-14.4,3.7-27.4,11.6-36.5c6.2-7.1,13.5-6.9,21.3-6.7
			c1.4,0,2.8,0.1,4.2,0.1l0,0c1.8,0,3.7,0,5.6,0.8c2.1,0.9,3.9,2.7,5.3,5.3c4.1,7.6,2.8,16.7,1.1,24.6c-1.4,6.4-3.4,13.8-7.4,20.2
			c-4.3,7-10.4,11.8-17.2,13.5C270.8,307.3,269.1,307.5,267.4,307.5z M276.8,245.9c-5.7,0-10.4,0.8-14.5,5.5
			c-7.3,8.5-11.2,20.5-10.8,34c0.1,3.8,0.6,8.7,3.2,12.4c3.3,4.8,10.4,7.1,16.8,5.5c5.7-1.4,11.2-5.8,15-11.9c3.7-6,5.6-13,6.9-19.1
			c1.6-7.2,2.8-15.5-0.7-22.1c-1-1.9-2.2-3.1-3.5-3.7c-1.2-0.5-2.8-0.5-4.2-0.5c-1.5,0-2.9,0-4.3-0.1
			C279.4,245.9,278.1,245.9,276.8,245.9z"/>
	</g>
	<g>
		<path class="st4" d="M282.1,258.2c-3.8-0.4-10.2-2-13.2-0.6c-2.1,0.9-3.6,5.6-0.6,6.3c7.5,1.8,15.4,2,23.1,1.5
			c2.9-0.2,6.9-2.6,3.4-5.1c-2.8-2-8.6-1.8-11.8-2C282.8,258.3,282.5,258.2,282.1,258.2z"/>
		<path d="M284.2,267.5c-6,0-11.4-0.6-16.3-1.8c-1.7-0.4-2.9-1.7-3-3.6c-0.2-2.4,1.3-5.3,3.3-6.2c2.8-1.3,7.4-0.6,11.3,0.1
			c1,0.2,2,0.3,2.8,0.4l0,0c0.3,0,0.6,0.1,0.8,0.1c0.5,0,1.2,0.1,1.8,0.1c3.6,0.1,8.1,0.3,10.9,2.2c2.3,1.7,2.3,3.5,2,4.4
			c-0.7,2.3-3.7,3.8-6.3,4C289,267.4,286.6,267.5,284.2,267.5z M272.3,258.9c-1.1,0-2,0.1-2.6,0.4c-0.5,0.2-1.3,1.6-1.2,2.5
			c0,0.3,0.1,0.3,0.3,0.4c6.6,1.6,13.9,2,22.6,1.4c1.5-0.1,2.9-0.9,3.1-1.3c0,0.1-0.2-0.2-0.6-0.5c-1.8-1.3-6.1-1.5-8.9-1.6
			c-0.7,0-1.4-0.1-1.9-0.1c-0.3,0-0.7-0.1-1-0.1c-0.9-0.1-1.9-0.3-3-0.4C276.9,259.3,274.3,258.9,272.3,258.9z"/>
	</g>
	<g>
		<path class="st3" d="M295.2,261.9c-0.4,0-0.9-0.1-1.2,0.2c-0.2,0.2-0.3,0.6-0.3,0.9c-0.6,6-0.4,12.1,0.5,18.1
			c0.1,0.7,0.3,1.4,0.8,1.8c0.4,0.3,0.9,0.3,1.4,0.3c1.2,0,2.4,0,3.6,0c0.8,0,1.6,0,2.3-0.4c1.5-0.9,1.5-2.9,1.2-4.6
			c-0.6-3.9-1.4-7.8-2.6-11.7C299.9,262.7,299.3,262.3,295.2,261.9z"/>
		<path d="M300.3,285.1c-0.1,0-0.2,0-0.3,0h-3.6c-0.6,0-1.5,0-2.4-0.6c-1.3-0.9-1.5-2.3-1.6-3.1c-0.9-6.1-1.1-12.4-0.5-18.5
			c0-0.4,0.1-1.3,0.8-2c0.9-0.9,2.2-0.8,2.6-0.7l0,0c4.9,0.5,6.1,1.5,7.4,6c1.2,4,2,8,2.6,11.9c0.5,3.2-0.2,5.4-2.1,6.5
			C302.3,285,301.2,285.1,300.3,285.1z M295.5,263.7c-0.5,5.8-0.3,11.5,0.5,17.1c0.1,0.3,0.1,0.5,0.1,0.6c0-0.1,0.2-0.1,0.3-0.1h3.6
			c0.5,0,1.1,0,1.4-0.2s0.6-1,0.3-2.8c-0.5-3.7-1.4-7.6-2.5-11.4C298.5,264.2,298.4,264,295.5,263.7z"/>
	</g>
</g>
<g>
	<path class="st1" d="M175.2,44.8c0,0,6.5-16.1,17.5-12.5c14.6,4.7,17.6-5.4,17.6-5.4s4.8,17.9-11.2,24.6"/>
	<path d="M199.1,53.3c-0.7,0-1.4-0.4-1.7-1.1c-0.4-0.9,0.1-2,1-2.4c9.7-4.1,11-12.7,10.8-18c-0.7,0.7-1.6,1.4-2.7,1.9
		c-3.8,2-8.6,2.1-14.3,0.2c-9.3-3-15.2,11.3-15.3,11.5c-0.4,0.9-1.4,1.4-2.4,1c-0.9-0.4-1.4-1.4-1-2.4c0.3-0.7,7.3-17.6,19.7-13.6
		c4.8,1.5,8.6,1.5,11.5,0.1c3-1.5,3.8-4.2,3.8-4.3c0.2-0.8,1-1.3,1.8-1.3s1.5,0.6,1.7,1.3c0.1,0.2,5,19.5-12.2,26.7
		C199.6,53.3,199.4,53.3,199.1,53.3z"/>
</g>
<g>
	<path class="st5" d="M291.3,103.3c8.2-7.2,22-8.5,22-8.5c-22-9.1,0-29.6,0-29.6c-32.6,12.1-26-15.7-26-15.7s-6.6,10.3-13.9,13.3"/>
	<path d="M291.3,105.1c-0.5,0-1-0.2-1.4-0.6c-0.7-0.7-0.6-1.9,0.2-2.6c5.3-4.7,12.7-7,17.7-8c-3.3-2.3-5.2-5.1-5.8-8.5
		c-1.1-6,2.5-12.3,5.7-16.5c-8.2,2.1-14.3,1.4-18.2-2.1c-3.4-3-4.4-7.5-4.5-11.2c-2.7,3.2-6.7,7.1-10.8,8.8c-0.9,0.4-2-0.1-2.4-1
		s0.1-2,1-2.4c6.7-2.8,13-12.5,13.1-12.6c0.5-0.7,1.4-1,2.2-0.7c0.8,0.3,1.3,1.2,1.1,2.1c0,0.1-2.2,9.8,2.8,14.2
		c3.7,3.3,10.9,3.1,20.8-0.6c0.8-0.3,1.7,0,2.2,0.7s0.3,1.7-0.3,2.3c-0.1,0.1-10.6,10-9.1,18.2c0.6,3.5,3.5,6.3,8.5,8.4
		c0.8,0.3,1.2,1.1,1.1,1.9s-0.8,1.5-1.6,1.5c-0.1,0-13.4,1.3-21,8C292.2,104.9,291.7,105.1,291.3,105.1z"/>
</g>
<g>
	<g>
		<path class="st0" d="M201.8,136.8c1.9,0,3.1,2.1,2.1,3.7c-1.7,2.7-4.8,5.9-10.2,5.9c-5.3,0-8.8-3.1-10.8-5.8c-1.2-1.6,0-3.9,2-3.9
			h16.9V136.8z"/>
		<path d="M193.7,148.2c-6.1,0-10-3.5-12.2-6.5c-1-1.3-1.1-3-0.4-4.4c0.7-1.5,2.2-2.4,3.8-2.4h17c1.5,0,3,0.8,3.7,2.2
			c0.8,1.4,0.7,3-0.1,4.3C203.5,144.5,199.9,148.2,193.7,148.2z M184.8,138.6c-0.3,0-0.5,0.2-0.6,0.4s-0.1,0.4,0.1,0.6
			c1.7,2.3,4.8,5,9.4,5c3.7,0,6.6-1.7,8.7-5.1c0.2-0.3,0.1-0.5,0-0.6s-0.2-0.3-0.5-0.3L184.8,138.6L184.8,138.6z"/>
	</g>
	<g>
		<polygon class="st6" points="181.1,121.2 184.8,136.8 201.8,136.8 205.5,121.2 195,114.3 		"/>
		<path d="M203.2,138.6h-19.8l-4.4-18.4l16.1-8l12.4,8.2L203.2,138.6z M186.3,135h14.1l3.1-13l-8.6-5.7l-11.6,5.8L186.3,135z"/>
	</g>
	<g>
		<path class="st0" d="M181.1,121.2c-2.7,0-4.4-3-3-5.3c2.4-3.9,6.9-8.5,14.7-8.5c7.6,0,12.6,4.4,15.5,8.3c1.7,2.3,0.1,5.6-2.8,5.6
			c0,0-5.7-3-12.2-2.8S181.1,121.2,181.1,121.2z"/>
		<path d="M205.5,123H205l-0.4-0.2c-0.1,0-5.4-2.8-11.3-2.6c-6,0.2-11.4,2.6-11.5,2.7l-0.4,0.2H181c-2,0-3.7-1-4.6-2.7
			c-1-1.7-0.9-3.7,0.1-5.4c2.6-4.3,7.6-9.4,16.2-9.4c8.4,0,13.8,4.9,17,9c1.2,1.6,1.4,3.7,0.5,5.5S207.5,123,205.5,123z
			 M192.8,109.1c-6.9,0-11,4.2-13.1,7.7c-0.5,0.8-0.2,1.4,0,1.7c0.1,0.2,0.5,0.7,1.2,0.8c1.5-0.6,6.7-2.6,12.4-2.8
			c5.8-0.2,11,2,12.6,2.8c0.7-0.1,1.1-0.7,1.2-0.9c0.1-0.3,0.4-1-0.2-1.7C204.2,113.3,199.7,109.1,192.8,109.1z"/>
	</g>
</g>
<g>
	<g>
		<g>
			<g>
				<g>
					<path class="st7" d="M212.5,109L212.5,109c-4,0-7.2-3-7.2-6.7v-0.9c0-3.7,3.2-6.7,7.2-6.7s7.2,3,7.2,6.7v0.9
						C219.7,106,216.4,109,212.5,109"/>
				</g>
			</g>
			<g>
				<g>
					<path class="st7" d="M173,109L173,109c-4,0-7.2-3-7.2-6.7v-0.9c0-3.7,3.2-6.7,7.2-6.7s7.2,3,7.2,6.7v0.9
						C180.2,106,177,109,173,109"/>
				</g>
			</g>
		</g>
	</g>
</g>
</svg>
