<?xml version="1.0" encoding="utf-8"?>
<!-- Generator: Adobe Illustrator 24.1.1, SVG Export Plug-In . SVG Version: 6.00 Build 0)  -->
<svg version="1.1" id="Layer_1" xmlns="http://www.w3.org/2000/svg" xmlns:xlink="http://www.w3.org/1999/xlink" x="0px" y="0px"
	 viewBox="0 0 226.71 330" style="enable-background:new 0 0 226.71 330;" xml:space="preserve">
<g>
	<g>
		<path style="fill:#FFFFFF;" d="M135.73,241.68v39.56c0,0-2.94,0.73-6.84,0.73c-3.91,0-6.88-0.73-6.88-0.73v-39.56
			c0-2.6,6.38-4.74,8.98-4.74S135.73,239.08,135.73,241.68z"/>
		<path style="fill-rule:evenodd;clip-rule:evenodd;fill:#009FF9;" d="M154.32,318.73c-3.47,3.97-9.15,3.3-13.82,3.3h-12.55v-0.1
			c-2.67-0.5-5.94-2.47-5.94-4.87v-35.82c0,0,2.97,0.73,6.88,0.73c3.91,0,6.84-0.73,6.84-0.73v15.06c1.3,0,2.74,0.07,4.44,0.4
			c0.07,0.03,0.33,0.1,0.33,0.1c6.01,1.3,11.22,5.31,14.02,10.78C156.02,310.55,156.69,315.99,154.32,318.73z"/>
	</g>
	<path d="M130.99,236.95c2.61,0,4.73,2.11,4.73,4.73v35.02v4.53v15.08c0.1,0,0.19,0,0.29,0c1.23,0,2.58,0.09,4.17,0.4
		c0.06,0.01,0.33,0.08,0.33,0.08c6,1.3,11.23,5.33,14.01,10.81c1.51,2.97,2.17,8.4-0.2,11.12c-2.61,2.99-6.47,3.36-10.21,3.36
		c-1.23,0-2.44-0.04-3.6-0.04h-4.79h-3.2h-3.41l-1.16-0.12c-2.66-0.49-5.92-2.47-5.92-4.85V276.7h0v-35.02
		C122.02,239.06,128.38,236.95,130.99,236.95 M130.99,232.94c-2.75,0-12.97,2.18-12.97,8.73v35.02l0,40.37
		c0,4.61,4.74,7.97,9.2,8.79c0.1,0.02,0.21,0.03,0.31,0.04l1.16,0.12c0.14,0.01,0.27,0.02,0.41,0.02h3.41h3.2h4.79
		c0.55,0,1.11,0.01,1.68,0.02c0.63,0.01,1.27,0.02,1.92,0.02c4.5,0,9.58-0.56,13.23-4.74c3.78-4.33,2.72-11.71,0.76-15.57
		c-3.32-6.54-9.58-11.36-16.73-12.91l-0.26-0.06c-0.47-0.09-0.93-0.17-1.37-0.24v-11.34v-4.53v-35.02
		C139.72,236.86,135.8,232.94,130.99,232.94L130.99,232.94z"/>
</g>
<g>
	<g>
		<path style="fill:#FFFFFF;" d="M104.65,241.68v39.56c0,0-2.94,0.73-6.84,0.73s-6.84-0.73-6.84-0.73v-39.56
			c0-2.6,2.1-4.74,4.71-4.74C98.27,236.94,104.65,239.08,104.65,241.68z"/>
		<path style="fill-rule:evenodd;clip-rule:evenodd;fill:#009FF9;" d="M104.65,281.24v35.82c0,2.4-3.27,4.37-5.91,4.87v0.1H86.16
			c-4.67,0-10.35,0.67-13.79-3.3c-2.4-2.74-1.74-8.18-0.23-11.15c2.8-5.47,8.01-9.48,14.02-10.78c0,0,0.27-0.07,0.33-0.1
			c1.7-0.33,3.14-0.4,4.47-0.4v-15.06c0,0,2.94,0.73,6.84,0.73S104.65,281.24,104.65,281.24z"/>
	</g>
	<path d="M95.68,236.95c2.61,0,8.96,2.11,8.96,4.73v35.02h0v40.37c0,2.38-3.26,4.36-5.92,4.85l-1.16,0.12h-3.41h-3.2h-4.79
		c-1.16,0-2.37,0.04-3.6,0.04c-3.74,0-7.59-0.37-10.21-3.36c-2.37-2.72-1.71-8.15-0.2-11.12c2.78-5.48,8.01-9.51,14.01-10.81
		c0,0,0.28-0.06,0.33-0.08c1.58-0.31,2.93-0.4,4.17-0.4c0.1,0,0.2,0,0.29,0v-15.08v-4.53v-35.02
		C90.95,239.06,93.07,236.95,95.68,236.95 M95.68,232.94c-4.82,0-8.74,3.92-8.74,8.73v35.02v4.53v11.33
		c-0.4,0.06-0.81,0.13-1.22,0.21l-0.47,0.11c-7.1,1.54-13.36,6.36-16.68,12.9c-1.96,3.86-3.02,11.24,0.76,15.57
		c3.64,4.17,8.73,4.74,13.23,4.74c0.65,0,1.29-0.01,1.92-0.02c0.57-0.01,1.13-0.02,1.68-0.02h4.79h3.2h3.41
		c0.14,0,0.27-0.01,0.41-0.02l1.16-0.12c0.11-0.01,0.21-0.03,0.31-0.04c4.46-0.82,9.2-4.17,9.2-8.79V276.7l0-35.02
		C108.65,235.13,98.42,232.94,95.68,232.94L95.68,232.94z"/>
</g>
<g>
	<path style="fill:#FFFFFF;" d="M87.63,65.04c1.78,0.52,3.56,1.29,5.38,2.3c1.5,0.83,2.91,1.9,4.23,2.99
		c4.24,3.53,9.7,14.63,3.87,19.07c-4.22,3.21-8.13-4.81-10.49-7.13c-5.31-5.2-12.9,0.52-17.01,4.82c-3.31,3.48-8.79,3.61-12.25,0.28
		c-3.46-3.32-3.62-8.82-0.35-12.32c4.06-4.34,9.05-8.04,14.8-9.79C80.08,63.98,83.85,63.94,87.63,65.04z"/>
	<path style="fill:#673101;" d="M74.87,81.33c-0.68-0.18-1.35-0.08-1.97,0.12c0.76-0.45,1.35-1.19,1.58-2.11
		c0.48-1.87-0.64-3.77-2.48-4.27c-0.86-0.22-1.72-0.07-2.46,0.31c0.65-0.46,1.17-1.11,1.38-1.94c0.48-1.87-0.63-3.78-2.49-4.27
		c-0.17-0.05-0.33-0.02-0.51-0.03c-3.78,2.66-6.34,5.3-6.92,5.91c-3.27,3.5-3.12,9,0.35,12.32c3.45,3.32,8.94,3.19,12.24-0.29
		c0.97-1.02,2.29-2.16,3.72-3.21C77.02,82.68,76.14,81.66,74.87,81.33L74.87,81.33z"/>
	<path d="M82.23,64.26c1.83,0,3.62,0.27,5.4,0.79c1.78,0.52,3.56,1.29,5.38,2.3c1.5,0.83,2.91,1.9,4.23,2.99
		c4.24,3.53,9.7,14.63,3.87,19.07c-0.69,0.52-1.37,0.75-2.04,0.75c-3.42,0-6.48-5.94-8.46-7.88c-1.5-1.48-3.19-2.07-4.93-2.07
		c-2.85,0-5.84,1.6-8.4,3.57c0.01,0.04,0.03,0.07,0.04,0.11c-1.42,1.05-2.73,2.18-3.7,3.19c-0.01,0.01-0.01,0.01-0.02,0.02
		c-1.7,1.79-3.99,2.7-6.27,2.7c-2.15,0-4.3-0.8-5.98-2.41c-2.16-2.08-3.04-5-2.59-7.76c0.27-1.65,1.01-3.25,2.24-4.56
		c0.29-0.3,1.05-1.09,2.21-2.13c3.63-3.38,7.83-6.21,12.59-7.65C78.06,64.59,80.18,64.26,82.23,64.26L82.23,64.26z M82.23,60.25
		c-2.47,0-4.95,0.39-7.59,1.19c-4.91,1.49-9.67,4.37-14.16,8.55c-1.14,1.03-1.98,1.88-2.37,2.3c-1.76,1.88-2.89,4.18-3.3,6.68
		c-0.68,4.16,0.73,8.38,3.77,11.29c2.37,2.27,5.48,3.53,8.75,3.53c3.45,0,6.79-1.44,9.17-3.94c0.84-0.87,1.97-1.85,3.19-2.75
		c0.27-0.2,0.5-0.42,0.71-0.67c2.03-1.44,3.88-2.23,5.27-2.23c0.82,0,1.48,0.29,2.13,0.93c0.34,0.33,0.97,1.18,1.52,1.92
		c2.23,3,5.28,7.1,9.74,7.1c1.57,0,3.11-0.54,4.46-1.57c2.62-1.99,4.04-4.95,4.12-8.56c0.13-6.22-3.97-13.56-7.85-16.78
		c-1.8-1.49-3.34-2.58-4.85-3.42c-2.14-1.19-4.17-2.05-6.2-2.64C86.57,60.56,84.43,60.25,82.23,60.25L82.23,60.25z"/>
</g>
<g>
	<path style="fill:#FFFFFF;" d="M139.04,65.04c-1.78,0.52-3.56,1.29-5.38,2.3c-1.5,0.83-2.91,1.9-4.23,2.99
		c-4.24,3.53-9.7,14.63-3.87,19.07c4.22,3.21,8.13-4.81,10.49-7.13c5.31-5.2,12.9,0.52,17.01,4.82c3.31,3.48,8.79,3.61,12.25,0.28
		c3.46-3.32,3.62-8.82,0.35-12.32c-4.06-4.34-9.05-8.04-14.8-9.79C146.59,63.98,142.81,63.94,139.04,65.04z"/>
	<path style="fill:#673101;" d="M151.79,81.33c0.68-0.18,1.35-0.08,1.97,0.12c-0.76-0.45-1.35-1.19-1.58-2.11
		c-0.48-1.87,0.64-3.77,2.48-4.27c0.86-0.22,1.72-0.07,2.46,0.31c-0.65-0.46-1.17-1.11-1.38-1.94c-0.48-1.87,0.63-3.78,2.49-4.27
		c0.17-0.05,0.33-0.02,0.51-0.03c3.78,2.66,6.34,5.3,6.92,5.91c3.28,3.5,3.12,9-0.35,12.32c-3.45,3.32-8.94,3.19-12.24-0.29
		c-0.97-1.02-2.29-2.16-3.72-3.21C149.64,82.68,150.52,81.66,151.79,81.33"/>
	<path d="M144.44,64.26c2.05,0,4.17,0.33,6.42,1.02c4.76,1.44,8.96,4.27,12.59,7.65c1.15,1.04,1.92,1.84,2.21,2.13
		c1.23,1.31,1.97,2.9,2.24,4.56c0.45,2.76-0.42,5.68-2.59,7.76c-1.68,1.61-3.83,2.41-5.98,2.41c-2.28,0-4.57-0.9-6.27-2.7
		c-0.01-0.01-0.01-0.01-0.02-0.02c-0.97-1.01-2.28-2.15-3.7-3.19c0.01-0.04,0.03-0.07,0.04-0.11c-2.55-1.97-5.54-3.57-8.4-3.57
		c-1.74,0-3.43,0.6-4.93,2.07c-1.98,1.94-5.04,7.88-8.46,7.88c-0.67,0-1.35-0.23-2.04-0.75c-5.84-4.44-0.38-15.54,3.87-19.07
		c1.32-1.1,2.73-2.16,4.23-2.99c1.83-1.01,3.61-1.78,5.38-2.3C140.82,64.52,142.6,64.26,144.44,64.26 M144.44,60.25
		c-2.2,0-4.34,0.31-6.52,0.95c-2.03,0.59-4.06,1.46-6.2,2.64c-1.51,0.84-3.06,1.92-4.85,3.42c-3.88,3.23-7.98,10.56-7.85,16.78
		c0.08,3.61,1.5,6.56,4.12,8.56c1.35,1.03,2.89,1.57,4.46,1.57c4.46,0,7.51-4.1,9.74-7.1c0.55-0.75,1.18-1.59,1.52-1.92
		c0.65-0.64,1.31-0.93,2.13-0.93c1.39,0,3.24,0.79,5.27,2.23c0.2,0.25,0.44,0.47,0.71,0.67c1.22,0.9,2.36,1.87,3.19,2.74
		c2.39,2.51,5.73,3.95,9.18,3.95c3.28,0,6.39-1.25,8.75-3.53c3.03-2.91,4.44-7.13,3.77-11.29c-0.41-2.5-1.54-4.8-3.27-6.65
		c-0.42-0.44-1.26-1.3-2.44-2.37c-4.44-4.15-9.21-7.02-14.12-8.51C149.38,60.64,146.9,60.25,144.44,60.25L144.44,60.25z"/>
</g>
<g>
	<path style="fill:#FFFFFF;" d="M57.2,203.09c-0.47,0.97-0.87,1.94-1.27,2.94c-0.87,2.14-1.54,4.31-2.1,6.51
		c-0.23,0.87-0.43,1.74-0.57,2.6c-1.54,7.44-1.57,15.19-0.57,22.77c0.53,4.14-2.3,7.98-6.38,8.58c-0.8,0.1-1.57,0.1-2.34-0.03
		c-3.07-0.53-5.27-4.41-5.71-7.71c-1.37-10.45-0.93-20.93,2.14-30.58v-0.03c0-0.03,0.03-0.07,0.03-0.1c0.33-1.07,0.7-2.1,1.1-3.17
		c0.43-1.07,0.87-2.14,1.37-3.17c0.53-1.2,1.17-2.37,1.84-3.54c0.43-0.8,0.9-1.6,1.37-2.37c0.13-0.2,0.27-0.37,0.37-0.53
		c0.57-0.87,1.14-1.7,1.74-2.5l0.13-0.13c0.6-0.83,1.27-1.67,2-2.47c0.1-0.17,0.23-0.3,0.37-0.47c0.43-0.5,0.9-1,1.44-1.5
		c0.37-0.47,0.83-0.93,1.3-1.37c0.77-0.77,1.54-1.5,2.37-2.2c1.64-1.4,4.07-3.94,6.51-3.94c0.1,0,0.23,0.03,0.33,0.03
		C72.19,181.69,58.7,199.89,57.2,203.09z"/>
	<path style="fill:#0088C5;" d="M53.1,246.79c-0.27,0.3-0.57,0.53-0.93,0.77c-0.9,0.57-2.1,0.87-3.64,0.87h-0.23
		c-0.73-0.03-1.54-0.13-2.37-0.3c-1.77-0.4-3.57-1.2-4.61-2.37c-4.77-5.31-4.27-13.39-4.04-19.73c0.13-3.3,0.47-6.58,1.07-9.81
		c0.03-0.27,0.27-1.47,0.57-2.87c0.1-0.47,0.2-0.93,0.3-1.44c0.03-0.23,0.1-0.5,0.17-0.73c0.17-0.7,0.33-1.37,0.47-1.87
		c0.1-0.4,0.23-0.73,0.33-0.93c0.03-0.07,0.07-0.1,0.1-0.17c0.03-0.03,0.07-0.07,0.1-0.07h0.03v0.03c2.94,2.44,8.51,5.11,13.42,4.37
		c0.03-0.03,0.03-0.03,0.03-0.03c-0.23,0.87-0.43,1.74-0.6,2.64c-0.2,1.74-0.33,3.47-0.4,4.14c0,0.1-0.03,0.17-0.03,0.23
		c-0.93,6.54,0.5,11.98,1.57,18.36C54.93,241.08,55.1,244.75,53.1,246.79z"/>
	<path d="M69.25,180.69c-0.63-1.34-2.3-3.57-6.14-3.97c-0.27-0.03-0.53-0.07-0.77-0.07c-3.64,0-6.58,2.64-8.48,4.37l-0.67,0.57
		c-7.61,6.58-13.12,14.82-16.32,24.47c-1.1,1.84-1.67,4.91-2.47,9.41c-0.63,3.34-1,6.84-1.14,10.41l-0.03,0.7
		c-0.23,6.54-0.57,15.52,5.11,21.86c2,2.24,5.04,3.2,6.71,3.57c1.03,0.23,2.14,0.37,3.14,0.4h0.33c4.17,0,6.58-1.77,7.84-3.27
		c2.24-2.67,2.87-6.58,1.97-11.95c-0.17-1.07-0.37-2.14-0.57-3.17c-0.9-4.91-1.67-9.15-0.97-13.95c0.03-0.17,0.07-0.67,0.13-1.3
		c0.07-0.8,0.17-1.9,0.3-3c0.8-3.94,2-7.64,3.57-10.98c0.17-0.37,0.9-1.54,1.54-2.54C67.48,193.94,71.89,186.03,69.25,180.69z
		 M57.2,203.09c-0.47,0.97-0.87,1.94-1.27,2.94c-0.83,2.1-1.54,4.27-2.07,6.48c-0.23,0.87-0.43,1.74-0.6,2.64
		c-0.2,1.74-0.33,3.47-0.4,4.14c0,0.1-0.03,0.17-0.03,0.23c-0.93,6.54,0.5,11.98,1.57,18.36c0.53,3.2,0.7,6.88-1.3,8.91
		c-0.27,0.3-0.57,0.57-0.93,0.77c-0.9,0.57-2.1,0.87-3.64,0.87h-0.23c-0.73-0.03-1.54-0.13-2.37-0.3c-1.77-0.4-3.57-1.2-4.61-2.37
		c-4.77-5.31-4.27-13.39-4.04-19.73c0.13-3.3,0.47-6.58,1.07-9.81c0.03-0.27,0.27-1.47,0.57-2.87c0.1-0.47,0.2-0.97,0.3-1.44
		c0.03-0.23,0.1-0.5,0.17-0.73c0.13-0.7,0.3-1.34,0.47-1.87c0.1-0.4,0.23-0.73,0.33-0.93c0.03-0.1,0.07-0.17,0.1-0.17
		c0.03-0.03,0.07-0.07,0.1-0.07h0.03c0-0.03,0.03-0.07,0.03-0.1c0.33-1.07,0.7-2.14,1.1-3.17c0.43-1.07,0.87-2.14,1.37-3.17
		c0.53-1.2,1.17-2.37,1.84-3.54c0.4-0.8,0.9-1.6,1.37-2.37c0.13-0.2,0.27-0.37,0.37-0.53c0.53-0.83,1.14-1.67,1.74-2.5l0.13-0.13
		c0.6-0.83,1.27-1.67,2-2.47c0.1-0.17,0.23-0.3,0.37-0.47c0.43-0.5,0.9-1,1.44-1.5c0.37-0.47,0.83-0.93,1.3-1.37
		c0.77-0.77,1.54-1.5,2.37-2.2c1.64-1.4,4.07-3.94,6.51-3.94c0.1,0,0.23,0.03,0.33,0.03C72.19,181.69,58.7,199.89,57.2,203.09z"/>
</g>
<g>
	<g>
		<path style="fill:#FFFFFF;" d="M188.29,238.74c-0.43,3.3-2.67,7.18-5.71,7.71c-0.77,0.13-1.57,0.13-2.37,0.03
			c-4.04-0.6-6.88-4.44-6.34-8.58c1-7.58,0.97-15.32-0.57-22.77c-0.13-0.87-0.33-1.74-0.57-2.6c-0.57-2.2-1.24-4.37-2.1-6.51
			c-0.4-1-0.8-1.97-1.27-2.94c-1.5-3.2-14.99-21.4-5.51-22.4c0.13,0,0.27-0.03,0.37-0.03c2.44,0,4.87,2.54,6.51,3.94
			c0.83,0.7,1.6,1.44,2.37,2.2c0.47,0.43,0.93,0.9,1.3,1.37c0.53,0.5,1,1,1.44,1.5c0.13,0.17,0.27,0.3,0.37,0.47
			c0.73,0.8,1.37,1.64,2,2.47c0.03,0.03,0.07,0.07,0.1,0.13c0.7,0.93,1.37,1.87,1.97,2.84c0.57,0.9,1.1,1.8,1.6,2.7
			c0.63,1.1,1.24,2.24,1.77,3.4c0.47,1.03,0.93,2.1,1.37,3.17c0.4,1.07,0.77,2.1,1.1,3.17c0,0.03,0.03,0.07,0.03,0.1v0.03
			C189.23,217.81,189.66,228.29,188.29,238.74z"/>
		<path style="fill:#0088C5;" d="M185.25,245.75c-1.03,1.17-2.84,1.97-4.61,2.37c-0.83,0.17-1.64,0.27-2.37,0.3h-0.23
			c-1.54,0-2.74-0.3-3.64-0.87c-0.37-0.23-0.67-0.47-0.93-0.77c-2-2.04-1.84-5.71-1.3-8.91c1.07-6.38,2.5-11.82,1.57-18.36
			c0-0.07-0.03-0.13-0.03-0.23c-0.07-0.67-0.2-2.4-0.4-4.14c-0.17-0.9-0.37-1.77-0.6-2.64c0,0,0,0,0.03,0.03
			c4.91,0.73,10.45-1.94,13.42-4.37v-0.03c0,0,0,0,0.03,0l0.1,0.07c0.03,0.07,0.07,0.1,0.1,0.17l0.17,0.47
			c0.17,0.53,0.4,1.4,0.63,2.34c0,0.03,0,0.03,0,0.03c0.13,0.7,0.3,1.44,0.47,2.14c0.3,1.4,0.53,2.6,0.57,2.87
			c0.6,3.24,0.93,6.51,1.07,9.81C189.53,232.37,190.03,240.44,185.25,245.75z"/>
	</g>
	<path d="M193.3,226.59v-0.7c-0.13-3.57-0.53-7.08-1.13-10.41c-0.83-4.51-1.4-7.58-2.47-9.38c-3.2-9.68-8.71-17.93-16.36-24.5
		l-0.63-0.57c-1.94-1.74-4.84-4.37-8.48-4.37c-0.27,0-0.5,0.03-0.77,0.07c-3.87,0.4-5.51,2.64-6.18,3.97
		c-2.6,5.34,1.8,13.25,6.94,21.56c0.63,1,1.34,2.17,1.54,2.54c1.57,3.34,2.77,7.04,3.57,10.98c0.13,1.1,0.23,2.2,0.3,3
		c0.07,0.63,0.1,1.13,0.13,1.3c0.7,4.81-0.1,9.05-0.97,13.95c-0.2,1.03-0.4,2.1-0.57,3.17c-0.93,5.37-0.27,9.28,1.97,11.95
		c1.27,1.5,3.64,3.27,7.84,3.27h0.3c1.03-0.03,2.1-0.17,3.17-0.4c1.64-0.37,4.71-1.34,6.71-3.61
		C193.9,242.11,193.57,233.13,193.3,226.59z M185.25,245.75c-1.03,1.17-2.84,1.97-4.61,2.37c-0.83,0.17-1.64,0.27-2.37,0.3h-0.23
		c-1.54,0-2.74-0.3-3.64-0.87c-0.37-0.2-0.67-0.47-0.93-0.77c-2-2.04-1.84-5.71-1.3-8.91c1.07-6.38,2.5-11.82,1.57-18.36
		c0-0.07-0.03-0.13-0.03-0.23c-0.07-0.67-0.2-2.4-0.4-4.14c-0.17-0.9-0.37-1.77-0.6-2.64c-0.53-2.2-1.24-4.37-2.07-6.48
		c-0.4-1-0.8-1.97-1.27-2.94c-1.5-3.2-14.99-21.4-5.51-22.4c0.13,0,0.27-0.03,0.37-0.03c2.44,0,4.87,2.54,6.51,3.94
		c0.83,0.7,1.6,1.44,2.37,2.2c0.47,0.43,0.93,0.9,1.3,1.37c0.53,0.5,1,1,1.44,1.5c0.13,0.17,0.27,0.3,0.37,0.47
		c0.73,0.8,1.4,1.64,2,2.47c0.03,0.03,0.07,0.07,0.1,0.13c0.7,0.93,1.37,1.87,1.97,2.84c0.6,0.9,1.13,1.77,1.6,2.7
		c0.63,1.1,1.24,2.24,1.77,3.4c0.5,1.03,0.93,2.1,1.37,3.17c0.4,1.03,0.77,2.1,1.1,3.17c0,0.03,0.03,0.07,0.03,0.1c0,0,0,0,0.03,0
		l0.1,0.07c0.03,0,0.07,0.07,0.1,0.17l0.17,0.47c0.23,0.57,0.43,1.44,0.63,2.34c0,0.03,0,0.03,0,0.03c0.07,0.23,0.13,0.47,0.17,0.7
		c0.1,0.47,0.2,0.97,0.3,1.44c0.3,1.4,0.53,2.6,0.57,2.87c0.6,3.24,0.93,6.51,1.07,9.81C189.53,232.37,190.03,240.44,185.25,245.75z
		"/>
</g>
<g>
	<path style="fill-rule:evenodd;clip-rule:evenodd;" d="M171.07,193.88c-0.6-2.74-1.2-5.51-1.7-8.25c-0.4-2.2-0.23-6.68-0.13-8.18
		c0.37-3.91,1.57-7.68,2.67-10.85c5.01-13.95,5.91-27.61,2.7-41.69c-2.97-13.12-9.28-24.3-17.29-30.71
		c-12.92-10.31-28.04-16.22-41.46-16.22h-5.04c-13.42,0-28.54,5.91-41.46,16.22c-8.01,6.41-14.32,17.59-17.29,30.71
		c-3.2,14.09-2.3,27.74,2.67,41.69c1.13,3.17,2.34,6.94,2.7,10.78c0.1,1.57,0.27,6.04-0.13,8.25c-0.5,2.74-1.1,5.47-1.7,8.21
		c-1.2,5.64-2.47,11.45-2.77,17.36c-0.6,11.05,2.1,26.44,9.41,35.85c8.55,11.02,23.87,18.19,42.09,19.7
		c2.14,0.17,4.47,0.27,6.74,0.27h4.51c2.27,0,4.61-0.1,6.74-0.27c18.23-1.5,33.58-8.68,42.09-19.7c7.31-9.41,10.01-24.8,9.41-35.85
		C173.54,205.29,172.27,199.49,171.07,193.88z M115.59,263.01h-4.51c-2.17,0-4.37-0.1-6.41-0.27c-17.12-1.4-31.41-8.01-39.26-18.13
		c-6.64-8.58-9.11-23.23-8.61-33.21c0.3-5.57,1.54-11.22,2.74-16.69c0.6-2.8,1.2-5.57,1.7-8.38c0.57-3.14,0.2-8.95,0.2-9.25
		c-0.4-4.34-1.7-8.41-2.94-11.82c-4.77-13.42-5.61-25.97-2.54-39.49c2.77-12.22,8.55-22.57,15.89-28.44
		c12.22-9.75,26.4-15.36,38.99-15.36c0,0,0.07,0,0.1,0h4.81c12.62,0.07,26.81,5.57,39.06,15.36c7.34,5.88,13.12,16.22,15.89,28.44
		c3.07,13.52,2.24,26.07-2.54,39.49c-1.24,3.4-2.54,7.48-2.94,11.88c0,0.23-0.37,6.04,0.2,9.18c0.5,2.8,1.1,5.61,1.7,8.38
		c1.2,5.47,2.44,11.12,2.74,16.69c0.5,9.98-1.97,24.64-8.61,33.21c-7.84,10.11-22.13,16.72-39.26,18.13
		C119.96,262.91,117.76,263.01,115.59,263.01z"/>
	<path style="fill-rule:evenodd;clip-rule:evenodd;fill:#009FF9;" d="M169.86,211.4c0.5,9.98-1.97,24.64-8.61,33.21
		c-7.84,10.11-22.13,16.72-39.26,18.13c-2.04,0.17-4.24,0.27-6.41,0.27h-4.51c-2.17,0-4.37-0.1-6.41-0.27
		c-17.12-1.4-31.41-8.01-39.26-18.13c-6.64-8.58-9.11-23.23-8.61-33.21c0.3-5.57,1.54-11.22,2.74-16.69c0.6-2.8,1.2-5.57,1.7-8.38
		c0.57-3.14,0.2-8.95,0.2-9.25c-0.4-4.34-1.7-8.41-2.94-11.82c-4.77-13.42-5.61-25.97-2.54-39.49c2.77-12.22,8.55-22.57,15.89-28.44
		c12.22-9.75,26.4-15.36,38.99-15.36c0,0,0.07,0,0.1,0h4.81c12.62,0.07,26.81,5.57,39.06,15.36c7.34,5.88,13.12,16.22,15.89,28.44
		c3.07,13.52,2.24,26.07-2.54,39.49c-1.24,3.4-2.54,7.48-2.94,11.88c0,0.23-0.37,6.04,0.2,9.18c0.5,2.8,1.1,5.61,1.7,8.38
		C168.33,200.19,169.56,205.83,169.86,211.4z"/>
</g>
<g>
	<polygon style="fill-rule:evenodd;clip-rule:evenodd;fill:#AE7BFF;" points="53.3,49.87 49.86,49.7 47.79,52.41 46.89,49.1 
		43.62,48 46.49,46.1 46.59,42.66 49.26,44.83 52.53,43.83 51.33,47.03 	"/>
	<path style="fill:#5429A8;" d="M55.07,46.57l2.97-7.88l-8.08,2.44l-6.58-5.27l-0.17,8.41l-7.08,4.64l7.98,2.77l2.24,8.15l5.11-6.71
		l8.41,0.4L55.07,46.57z M47.79,52.41l-0.9-3.3L43.62,48l2.87-1.9l0.1-3.44l2.67,2.17l3.27-1l-1.2,3.2l1.97,2.84l-3.44-0.17
		L47.79,52.41z"/>
</g>
<g>
	<polygon style="fill-rule:evenodd;clip-rule:evenodd;fill:#E8B21C;" points="138.62,27.27 136.68,28.24 136.38,30.38 134.88,28.87 
		132.74,29.24 133.75,27.34 132.71,25.43 134.85,25.77 136.32,24.2 136.65,26.34 	"/>
	<path style="fill:#E5861F;" d="M139.69,24.1l-1.1-7.08l-4.94,5.17l-7.08-1.14l3.4,6.31l-3.27,6.38l7.04-1.3l5.07,5.07l0.93-7.08
		l6.38-3.24L139.69,24.1z M136.38,30.38l-1.5-1.5l-2.14,0.37l1-1.9l-1.03-1.9l2.14,0.33l1.47-1.57l0.33,2.14l1.97,0.93l-1.94,0.97
		L136.38,30.38z"/>
</g>
<path style="fill:#E8AE1C;" d="M167.9,52.19c-1.84,0-3.34,1.5-3.34,3.34s1.5,3.34,3.34,3.34c1.84,0,3.34-1.5,3.34-3.34
	S169.74,52.19,167.9,52.19z M169.57,55.53L169.57,55.53L169.57,55.53L169.57,55.53z"/>
</svg>
