<?xml version="1.0" encoding="utf-8"?>
<!-- Generator: Adobe Illustrator 24.3.0, SVG Export Plug-In . SVG Version: 6.00 Build 0)  -->
<!DOCTYPE svg PUBLIC "-//W3C//DTD SVG 1.1//EN" "http://www.w3.org/Graphics/SVG/1.1/DTD/svg11.dtd" [
	<!ENTITY ns_extend "http://ns.adobe.com/Extensibility/1.0/">
	<!ENTITY ns_ai "http://ns.adobe.com/AdobeIllustrator/10.0/">
	<!ENTITY ns_graphs "http://ns.adobe.com/Graphs/1.0/">
	<!ENTITY ns_vars "http://ns.adobe.com/Variables/1.0/">
	<!ENTITY ns_imrep "http://ns.adobe.com/ImageReplacement/1.0/">
	<!ENTITY ns_sfw "http://ns.adobe.com/SaveForWeb/1.0/">
	<!ENTITY ns_custom "http://ns.adobe.com/GenericCustomNamespace/1.0/">
	<!ENTITY ns_adobe_xpath "http://ns.adobe.com/XPath/1.0/">
]>
<svg version="1.1" id="레이어_6" xmlns:x="&ns_extend;" xmlns:i="&ns_ai;" xmlns:graph="&ns_graphs;"
	 xmlns="http://www.w3.org/2000/svg" xmlns:xlink="http://www.w3.org/1999/xlink" x="0px" y="0px" viewBox="0 0 220 280"
	 style="enable-background:new 0 0 220 280;" xml:space="preserve">
<style type="text/css">
	.st0{fill:#CB8A55;}
	.st1{fill:#A5663A;}
	.st2{fill:#FDF8F5;}
	.st3{fill:#463F3D;}
	.st4{fill:#FEF7F0;}
	.st5{fill:#F62524;}
	.st6{fill:#945B4A;}
	.st7{fill:#F1AA36;}
	.st8{fill:#53413D;}
	.st9{fill-rule:evenodd;clip-rule:evenodd;fill:#CB8A55;}
	.st10{fill:#070707;}
	.st11{fill-rule:evenodd;clip-rule:evenodd;}
	.st12{fill:#9E5C30;}
	.st13{fill-rule:evenodd;clip-rule:evenodd;fill:#FCBF65;}
</style>
<metadata>
	<sfw  xmlns="&ns_sfw;">
		<slices></slices>
		<sliceSourceBounds  bottomLeftOrigin="true" height="242.7" width="157.4" x="32.4" y="23.1"></sliceSourceBounds>
	</sfw>
</metadata>
<g>
	<g>
		<path class="st0" d="M109.8,212.4l1.3-42.7c0,0-1.1-3.5-5.3-3.2c0,0-4.5,0.5-5.3,8.4c-0.1,0.7-4.2,21.4-6.6,36.5
			c-1.4,8.9-3.4,15.8-3.4,15.8s-6.7,1.8-6.3,10.2c0,0-0.4,4.9,4.2,6h19.1c1,0,1.7-0.8,1.8-1.7L109.8,212.4z"/>
		<path d="M107.6,244.9H88.2c-4.5-1-5.5-5.3-5.4-7.4c-0.3-6.8,3.8-10.2,6.6-11.3c0.6-2,2.1-7.9,3.2-14.9c1.8-11.4,4.5-25.8,5.9-32.7
			c0.4-2,0.7-3.5,0.7-3.8c0.9-9,6.4-9.7,6.6-9.7c4.3-0.3,6.4,2.6,6.9,4.2l0.1,0.2l-1.3,42.9l-0.5,29.3
			C110.8,243.4,109.4,244.9,107.6,244.9z M88.7,241.9h18.9c0.1,0,0.3-0.1,0.3-0.2l0.5-29.3l1.3-42.4c-0.2-0.6-1.2-2.1-3.6-1.9
			c-0.1,0-3.2,0.6-3.9,7.1c0,0.2-0.1,0.9-0.7,4c-1.3,6.9-4.1,21.2-5.9,32.6c-1.4,8.8-3.4,15.7-3.5,16l-0.2,0.8l-0.8,0.2
			c-0.2,0.1-5.5,1.6-5.2,8.7v0.1v0.1C85.8,237.9,85.7,241.1,88.7,241.9z"/>
	</g>
	<path d="M104.5,231.5c-0.3,0-0.5-0.1-0.7-0.3c-6-6.3-14.8-1.6-15.2-1.3c-0.5,0.3-1.1,0.1-1.4-0.4s-0.1-1.1,0.4-1.4
		c0.1-0.1,10.6-5.6,17.6,1.7c0.4,0.4,0.4,1,0,1.4C105,231.4,104.7,231.5,104.5,231.5z"/>
</g>
<g>
	<path class="st0" d="M115.4,224.4l-1.3-42.3c0-0.3,0-0.5,0.2-0.8c0.4-0.9,1.8-3,5-2.8c0.1,0,0.2,0,0.3,0c0.9,0.2,4.4,1.4,5.1,8.4
		c0.1,0.7,4.2,21.4,6.6,36.5c1.1,7,2.6,12.9,3.2,15c0.1,0.5,0.5,0.9,1,1.1c1.7,0.7,5.9,3.2,5.6,9.9c0,0,0.3,4.7-4,5.9
		c-0.2,0-0.3,0.1-0.5,0.1h-18.9c-0.9,0-1.7-0.8-1.7-1.7L115.4,224.4z"/>
	<path class="st1" d="M115.4,255c0,0,3.3-7.4,15.4-7.2c0,0,13.8-0.1,7,7.4L115.4,255z"/>
	<path d="M136.9,256.9h-19.4c-1.7,0-3-1.4-3.1-3l-0.5-29.5l-1.3-42.9l0.1-0.2c0.5-1.6,2.5-4.6,6.8-4.2c0.3,0,5.7,0.7,6.6,9.8
		c0,0.2,0.3,1.8,0.7,3.7c1.3,6.9,4.1,21.3,5.9,32.7c1.1,7,2.6,12.9,3.2,14.9c2.8,1.1,6.8,4.5,6.6,11.3c0.1,2.2-0.8,6.4-5.4,7.4
		H136.9z M115.6,181.9l1.3,42.4l0.5,29.5l19.1,0.1c3-0.8,2.9-4,2.9-4.4v-0.1v-0.1c0.3-7.1-5.1-8.7-5.2-8.7l-0.8-0.2l-0.2-0.8
		c-0.1-0.3-2.1-7.2-3.5-16c-1.8-11.3-4.5-25.7-5.9-32.6c-0.6-3.1-0.7-3.8-0.7-4c-0.7-6.5-3.8-7.1-4-7.1
		C116.8,179.8,115.9,181.3,115.6,181.9z"/>
</g>
<g>
	<g>
		<path class="st0" d="M104.2,139.5c-2.7,4.4-6.1,8.4-9,12.7c-5.3,8-9.3,13.3-13.6,22c-1,2.1-2.4,5.4-4.2,6.8s-1.5,2.2-5.1,1.8
			c-1.6-0.2-4.1-2.1-4.1-3.9c0-3.8,1.2-7.5,3.1-10.8c5.7-10.2,11.9-16.2,17.3-24c2.5-3.7,5.5-7,8.6-10.1c2.5-2.4,5.7-6.1,9.2-3.9
			C110,132.3,106,136.5,104.2,139.5z"/>
		<path d="M72.4,184.3c-0.1,0-0.2,0-0.3,0c-3.3-0.4-5.8-3.5-5.4-7c0.3-3.3,1.4-6.8,3.2-10c7.1-12.5,16.4-24.8,26.1-34.5l0.5-0.5
			c2.5-2.5,6.2-6.3,10.5-3.6c1.2,0.7,1.9,1.7,2.2,2.9c0.5,2.4-1.2,4.9-2.7,7c-0.4,0.6-0.8,1.1-1.1,1.6l0,0c-1.6,2.6-3.4,5.1-5.2,7.5
			c-1.3,1.7-2.6,3.5-3.8,5.3c-0.9,1.4-1.8,2.7-2.7,4c-4.1,6-7.3,10.8-10.8,17.8c-0.2,0.4-0.4,0.7-0.5,1.1c-1.3,2.6-2.6,5.3-5.1,7.2
			C75.5,184.4,73.9,184.5,72.4,184.3z M104.3,130.9c-1.7-0.2-3.5,1.4-5.6,3.6l-0.5,0.5c-9.6,9.5-18.7,21.5-25.6,33.8
			c-1.6,2.9-2.6,5.9-2.9,8.8c-0.2,1.9,1.1,3.5,2.8,3.7c1.3,0.1,2.2,0.1,3.1-0.6c1.9-1.4,3-3.7,4.2-6.1c0.2-0.4,0.4-0.8,0.6-1.1
			c3.6-7.2,6.9-12.1,11-18.2c0.9-1.3,1.8-2.6,2.7-4c1.2-1.9,2.6-3.6,3.9-5.4c1.7-2.3,3.5-4.7,5-7.2c0.3-0.6,0.8-1.2,1.2-1.8
			c1.1-1.6,2.5-3.6,2.2-4.7c0-0.2-0.2-0.6-0.8-0.9C105.1,131,104.7,130.9,104.3,130.9z M104.2,139.5L104.2,139.5L104.2,139.5z"/>
	</g>
	<path class="st2" d="M94.5,154.9c0.3,0.2,0.7,0.3,0.9,0c4.7-7.5,6.2-10.4,11.7-17.7c4.1-5.6,0.5-8.1,0.5-8.1
		c-3.5-3.5-7.5,1.1-7.5,1.1c-7.1,6.7-10.5,10-16.3,17.2c-0.4,0.4,0,1.1,0.5,0.9l4.9,3.5C89.4,151.8,92.7,153.6,94.5,154.9z"/>
	<path class="st3" d="M87.2,143c0,0,6.6,5.4,10.5,7.2l1.1-3.6c0,0-8.2-5.3-9-7.1L87.2,143z"/>
	<path class="st3" d="M93,137.3c0,0,5.4,4.6,8.5,6.7l1.9-2.7c0,0-7.2-5.2-7.6-6.5C95.5,133.7,93,137.3,93,137.3z"/>
	<path d="M94.3,156.5c-0.3,0-0.8-0.2-1.2-0.5c-1.8-1.2-5-3-5-3l-0.1-0.1l-4.5-3.2c-0.5-0.1-1-0.4-1.3-0.8c-0.5-0.8-0.5-1.8,0.1-2.5
		c5.8-7.3,9.2-10.6,16.4-17.3c0.4-0.5,2.6-2.8,5.5-2.8c1.5,0,2.9,0.5,4,1.7c0.4,0.3,1.6,1.4,1.9,3.4c0.3,2.1-0.4,4.4-2.2,6.8
		c-4.3,5.8-6.2,8.8-9.2,13.7c-0.7,1.2-1.5,2.4-2.4,3.9c-0.3,0.5-0.7,0.8-1.3,0.9C94.7,156.5,94.5,156.5,94.3,156.5z M89.6,150.4
		c0.5,0.3,2.8,1.6,4.5,2.7c0.7-1.1,1.3-2.1,1.9-3c3.1-5,4.9-7.9,9.3-13.9c3.1-4.1,1.1-5.8,0.8-6L106,130c-0.6-0.6-1.2-0.9-1.9-0.9
		c-1.4,0-2.9,1.4-3.4,1.9l-0.1,0.1c-6.8,6.4-10.1,9.6-15.4,16.1L89.6,150.4z"/>
</g>
<g>
	<g>
		<path class="st0" d="M119.1,138.6c0.7,5.1,2.3,10.1,3.2,15.2c1.8,9.5,3.3,15.9,3.8,25.6c0.1,2.3,0.1,5.9,1.2,7.9s0.5,2.6,4,3.7
			c1.6,0.5,4.6-0.3,5.3-2c1.5-3.4,1.9-7.4,1.5-11.2c-1.2-11.6-4.5-19.6-6.4-28.9c-0.9-4.4-2.2-8.6-3.9-12.7
			c-1.3-3.2-2.8-7.8-6.9-7.2C116.5,129.6,118.6,135,119.1,138.6z"/>
		<path d="M132.3,192.6c-0.5,0-1-0.1-1.5-0.3c-1.5-0.5-3.1-1.1-4.3-3.1c-1.6-2.7-1.7-5.7-1.9-8.6c0-0.4,0-0.8-0.1-1.2
			c-0.4-7.9-1.5-13.5-2.9-20.6c-0.3-1.5-0.6-3.1-0.9-4.8c-0.4-2.1-0.9-4.3-1.4-6.3c-0.7-2.9-1.4-5.9-1.8-8.9
			c-0.1-0.6-0.2-1.3-0.3-1.9c-0.5-2.6-1.1-5.5,0.3-7.5c0.7-1,1.8-1.6,3.1-1.8c5-0.7,6.9,4.2,8.2,7.5l0.3,0.6
			c5.1,12.8,8.8,27.7,10.4,42c0.4,3.7,0.1,7.3-1,10.5C137.6,190.9,135,192.7,132.3,192.6z M121.7,130.5c-0.2,0-0.4,0-0.6,0
			c-0.7,0.1-1,0.4-1.1,0.5c-0.7,0.9-0.2,3.3,0.2,5.2c0.1,0.7,0.3,1.5,0.4,2.1l0,0c0.4,2.9,1.1,5.8,1.8,8.6c0.5,2.1,1,4.3,1.4,6.5
			c0.3,1.7,0.6,3.2,0.9,4.7c1.4,7.3,2.5,13,2.9,21c0,0.4,0,0.8,0.1,1.3c0.1,2.7,0.2,5.2,1.4,7.3c0.6,1,1.3,1.4,2.6,1.7
			c1.6,0.5,3.4-0.5,4-2.3c0.9-2.8,1.2-5.9,0.8-9.2c-1.5-14-5.1-28.7-10.2-41.2L126,136C124.8,132.9,123.7,130.5,121.7,130.5z"/>
	</g>
	<path class="st2" d="M121.8,156.5c-0.4,0.1-0.8,0-0.8-0.4c-1.3-8.7-1.6-12-3.7-20.8c-1.6-6.8,2.7-7.7,2.7-7.7
		c4.5-1.8,6.4,3.9,6.4,3.9c3.9,9,5.7,13.4,8.1,22.2c0.2,0.5-0.4,1-0.9,0.6l-5.9,1.3C127.8,155.6,124.1,156,121.8,156.5z"/>
	<path class="st3" d="M133.3,148.5c0,0-8.2,2.4-12.5,2.4l0.4-3.8c0,0,9.6-1.6,11-2.9L133.3,148.5z"/>
	<path class="st3" d="M130.2,141c0,0-6.8,2.1-10.5,2.8l-0.7-3.2c0,0,8.6-1.9,9.5-2.9C129.4,136.7,130.2,141,130.2,141z"/>
	<path d="M122,158.2c-0.5,0-0.9-0.2-1.1-0.4c-0.4-0.3-0.7-0.8-0.8-1.3c-0.3-1.7-0.5-3.2-0.7-4.5c-0.8-5.7-1.3-9.1-3-16.2
		c-0.7-2.9-0.5-5.3,0.6-7.1c1.1-1.7,2.6-2.2,3.1-2.4c1.5-0.6,3-0.6,4.4,0.1c2.6,1.2,3.7,4.2,3.9,4.8c3.9,9,5.7,13.4,8.2,22.3
		c0.2,0.9-0.1,1.9-0.9,2.4c-0.5,0.3-1,0.4-1.5,0.3l-5.6,1.2c0,0-3.7,0.4-5.8,0.8C122.5,158.1,122.2,158.2,122,158.2z M122.4,128.9
		c-0.4,0-0.8,0.1-1.2,0.2l-0.2,0.1c-0.3,0.1-2.8,0.9-1.6,5.9c1.7,7.2,2.2,10.7,3.1,16.4c0.2,1.1,0.3,2.2,0.5,3.5
		c2.1-0.3,4.7-0.6,5.2-0.7l5.3-1.2c-2.3-8.1-4.1-12.4-7.8-20.9l-0.1-0.1c-0.2-0.6-1.1-2.5-2.4-3.1
		C122.9,128.9,122.7,128.9,122.4,128.9z"/>
</g>
<g>
	<g>
		<path class="st0" d="M103.2,134.8c1.5,1.1,3.5,0.9,5.3,1c0.3,0,0.6,0.2,0.6,0.6c0.3,1.5,0.9,2.7,1.6,4c0.3,0.5,1.1,0.5,1.2-0.1
			c0.4-1.3,0.8-2.8,1.1-3.9c0.1-0.2,0.2-0.4,0.5-0.5c1.5-0.4,5.6-1.4,7.9-3.2l0.7-2.2c-0.2-0.7-0.5-1.3-0.9-2
			c-2.2-4-6.8-4.5-10.9-4.4c-6.2,0.2-8.7,2.9-9.8,7.5C101.1,132.7,102,133.9,103.2,134.8z"/>
		<path d="M125.9,162.3c-0.2-1.2-0.3-2.6-0.5-3.9l-27.9,0.8c-0.6,5.4-1.2,10.8-2,16.2l-3.1,22.2c-0.2,1.2,1.2,2,2.2,1.2
			c1.1-1,1.9-2.2,3-3c0.2-0.1,0.4-0.1,0.6,0l2.8,2.5c0.7,0.6,1.8,0.5,2.3-0.3c0.9-1.3,1.8-2.9,2.1-3.9c0.8,0.6,2.2,2,3.3,3.3
			c0.6,0.7,1.7,0.4,1.9-0.5c0.4-1.9,1-4,1.4-5.9c0.1-0.3,0.5-0.3,0.6,0c0.5,2.1,1.4,4.2,2.2,6.3c0.3,0.8,1.4,1,1.9,0.3
			c1.1-1.3,1.9-2.6,3.3-3.9l4.6,3.9c0.8,0.7,1.9,0.3,2.3-0.6l0.9-2.5l1.1,0.7c0.9,0.6,2.1-0.2,1.9-1.3
			C129.2,183.2,127.2,173.2,125.9,162.3z"/>
	</g>
	<g>
		<path class="st4" d="M98.7,146.6c-0.1,1.5-0.2,2.8-0.3,3.8h26c-0.2-1.3-0.3-2.6-0.4-3.8H98.7z"/>
		<path class="st4" d="M122,130.4l-0.7,2.2c-2.3,1.9-6.4,2.8-7.9,3.2c-0.2,0.1-0.4,0.2-0.5,0.5c-0.3,1-0.7,2.6-1.1,3.9
			c-0.2,0.6-1,0.7-1.2,0.1c-0.7-1.3-1.3-2.5-1.6-4c-0.1-0.3-0.3-0.6-0.6-0.6c-1.8,0-3.8,0.1-5.3-1c-1.2-0.9-2.1-2.1-2.8-3.2
			c-0.3,1.3-0.5,2.6-0.7,4.2c-0.2,1.8-0.4,4.9-0.6,7.1h24.4C123.2,139.1,123.3,134,122,130.4z"/>
		<path class="st4" d="M97.4,159.2l28.2-0.3c-0.1-1.1-0.6-3.8-0.7-4.9h-27C97.7,155.5,97.6,157.8,97.4,159.2z"/>
		<path class="st3" d="M123.5,144c0-0.4-0.1-0.7-0.1-1.1H99.1c-0.1,1.6-0.3,2.2-0.4,3.7h25.2C123.7,145.4,123.6,145.1,123.5,144z"/>
		<path class="st3" d="M98.3,150.7c-0.1,1.4-0.3,1.9-0.4,3.3h27c-0.2-1.5-0.4-2.1-0.6-3.7h-26C98.3,150.5,98.3,150.6,98.3,150.7z"/>
	</g>
	<path class="st5" d="M97.8,158.9l-2.4,12.5c0,0,14.8,3,31.3,0.1l-1.9-13C124.8,158.5,111,159.3,97.8,158.9z"/>
	<path d="M92.7,200.2c-0.2,0-0.4-0.1-0.7-0.2c-0.5-0.2-1.1-0.8-0.9-1.8l3.1-23.1c0.7-5.2,1.4-10.6,2-16.1c0.1-0.9,0.2-1.8,0.3-2.7
		l0.3-2.8c0.1-1,0.2-2,0.3-3v-0.3c0.1-0.9,0.2-1.9,0.3-3l0.1-0.8c0.1-1.5,0.3-3.1,0.4-4.7c0.2-2.6,0.4-4.6,0.6-6.2
		c0.2-1.7,0.5-3.1,0.8-4.4c1.5-5.8,4.9-8.5,11.3-8.7c4-0.1,9.6,0.3,12.3,5.2c0.4,0.7,0.7,1.4,1,2.2c1.1,3,1.2,6.3,1.3,9.4
		c0,0.8,0.1,1.7,0.1,2.5c0,0.4,0,0.7,0.1,1.1c0.1,1.1,0.2,2.3,0.4,3.5c0.1,1.2,0.3,2.5,0.4,3.8c0.2,1.5,0.4,3.1,0.6,4.7l0.4,3.4
		c0.2,1.4,0.4,2.7,0.5,3.9c0.8,6,1.7,12.1,2.6,18c0.7,4.8,1.5,9.7,2.2,14.4c0.1,0.6-0.2,1.2-0.7,1.5s-1.2,0.3-1.7-0.1l-6.3-5
		c-0.6-0.5-0.8-1.5-0.2-2.1c0.5-0.6,1.5-0.8,2.1-0.2l3.4,2.7c-0.5-3.6-1.1-7.2-1.6-10.7c-0.9-6-1.9-12.1-2.7-18.1
		c-0.2-1.2-0.3-2.6-0.5-3.9l-0.4-3.4c-0.2-1.6-0.4-3.1-0.6-4.7c-0.2-1.3-0.3-2.6-0.4-3.8s-0.3-2.4-0.4-3.6c0-0.4-0.1-0.7-0.1-1.1
		c-0.1-0.9-0.1-1.8-0.1-2.6c-0.1-2.9-0.2-5.9-1.2-8.5c-0.2-0.6-0.5-1.2-0.8-1.7c-1.5-2.6-4.4-3.8-9.6-3.6c-5.7,0.2-7.5,2.6-8.4,6.4
		c-0.3,1.1-0.5,2.4-0.7,4c-0.2,1.5-0.4,3.5-0.6,6.1c-0.1,1.6-0.3,3.2-0.4,4.7l-0.1,0.8c-0.1,1.1-0.2,2.2-0.3,3v0.4
		c-0.1,1-0.2,2-0.3,3l-0.3,2.8c-0.1,0.9-0.2,1.8-0.3,2.7c-0.6,5.6-1.3,11-2,16.2L94.7,194c0.4-0.5,0.7-0.8,0.9-1
		c0.6-0.5,1.6-0.5,2.1,0.1s0.5,1.6-0.1,2.1c-0.2,0.2-1,1.2-1.6,1.9C94.4,199.3,93.7,200.2,92.7,200.2z M94.1,198.7L94.1,198.7
		L94.1,198.7z"/>
	<g>
		<path d="M105.8,152.2c0.3,2.1,0.6,4.3-0.1,6.3c-1.2,3.3-3.8,5-7,6.3c-0.4,0.2-0.9,0.3-1.2,0.1c-0.3-0.2-0.3-0.7-0.3-1.1
			c0-2.2,0.1-4.4,0.2-6.6c0.3-6.3,0.6-12.5,0.9-18.8c0.2-4.7-0.2-8.4,3.7-11.6c1.2,4.2,1.8,8.6,2.6,12.9
			C105.3,143.6,105.3,147,105.8,152.2z"/>
		<path d="M97.9,165.4c-0.3,0-0.5-0.1-0.8-0.2c-0.5-0.4-0.5-1.1-0.5-1.5c0-2.2,0.1-4.5,0.2-6.7l0.9-18.8c0-0.6,0-1.2,0.1-1.8
			c0.1-3.9,0.2-7.3,3.8-10.2l0.6-0.5l0.2,0.7c0.9,3.1,1.5,6.4,2,9.6c0.2,1.1,0.4,2.2,0.6,3.3c0.5,2.7,0.7,5.1,0.8,7.9
			c0.1,1.4,0.2,3,0.4,4.7c0.3,1.9,0.7,4.3-0.1,6.5c-1.3,3.7-4.4,5.4-7.3,6.6C98.7,165.3,98.3,165.4,97.9,165.4z M101.7,127.6
			c-2.7,2.5-2.8,5.4-2.9,8.9c0,0.6,0,1.2-0.1,1.8l-0.9,18.8c-0.1,2.2-0.2,4.4-0.2,6.6c0,0.2,0,0.6,0.1,0.7c0.1,0.1,0.4,0,0.7-0.1
			c2.8-1.2,5.5-2.7,6.7-6c0.7-1.9,0.3-4.2,0-6l0,0c-0.2-1.8-0.3-3.3-0.4-4.7c-0.2-2.8-0.3-5.2-0.8-7.8c-0.2-1.1-0.4-2.2-0.6-3.4
			C103,133.4,102.5,130.4,101.7,127.6z"/>
	</g>
	<g>
		<path d="M116.3,152.2c-0.3,2.1-0.6,4.3,0.1,6.3c1.2,3.3,3.8,5,7,6.3c0.4,0.2,0.9,0.3,1.2,0.1c0.3-0.2,0.3-0.7,0.3-1.1
			c0-2.2-0.1-4.4-0.2-6.6c-0.3-6.3-0.6-12.5-0.9-18.8c-0.2-4.7,0.2-8.4-3.7-11.6c-1.2,4.2-1.8,8.6-2.6,12.9
			C116.8,143.6,116.8,147,116.3,152.2z"/>
		<path d="M124.2,165.4c-0.4,0-0.8-0.2-1-0.2c-2.9-1.2-5.9-2.9-7.3-6.6c-0.8-2.2-0.4-4.6-0.1-6.5c0.2-1.7,0.3-3.3,0.4-4.7
			c0.2-2.8,0.3-5.2,0.8-7.9c0.2-1.1,0.4-2.2,0.6-3.3c0.5-3.2,1.1-6.5,2-9.6l0.2-0.7l0.6,0.5c3.6,2.9,3.7,6.3,3.8,10.2
			c0,0.6,0,1.2,0.1,1.8l0.9,18.8c0.1,2.2,0.2,4.5,0.2,6.7c0,0.3,0,1.1-0.5,1.5C124.7,165.4,124.4,165.4,124.2,165.4z M120.4,127.6
			c-0.8,2.8-1.3,5.8-1.8,8.7c-0.2,1.1-0.4,2.3-0.6,3.4c-0.5,2.6-0.6,5-0.8,7.8c-0.1,1.4-0.2,3-0.4,4.7l0,0c-0.3,1.8-0.7,4.1,0,6
			c1.2,3.3,3.9,4.8,6.7,6c0.4,0.2,0.6,0.2,0.7,0.1c0.1-0.1,0.1-0.5,0.1-0.7c0-2.2-0.1-4.4-0.2-6.6l-0.9-18.8c0-0.6,0-1.2-0.1-1.8
			C123.1,133,123,130.1,120.4,127.6z"/>
	</g>
	<g>
		<path class="st6" d="M127,161.1l-6.4,10.2l11.7,15.9l6.4,0.2c1.6,0.1,2.8-1.3,2.7-2.8l-1.1-6.2L127,161.1z"/>
		<polygon class="st7" points="128.8,164.4 122.9,173.8 125.3,177.1 131.6,167 		"/>
		<path d="M138.8,189h-0.1l-6.4-0.2c-0.5,0-0.9-0.2-1.2-0.6l-11.7-15.9c-0.4-0.5-0.4-1.2-0.1-1.7l6.4-10.2c0.3-0.4,0.7-0.7,1.2-0.7
			s1,0.2,1.3,0.6l13.4,17.3c0.1,0.2,0.2,0.4,0.3,0.7l1.1,6.2v0.1c0.1,1.2-0.3,2.3-1.1,3.2C141,188.5,139.9,189,138.8,189z
			 M133.1,185.8l5.7,0.2c0.4,0,0.7-0.2,0.9-0.4c0.1-0.1,0.3-0.4,0.3-0.8l-1-5.7l-11.9-15.3l-4.7,7.5L133.1,185.8z"/>
	</g>
</g>
<g>
	<g>
		<g>
			<path class="st5" d="M43.8,60.4c0.2,0,0.4-0.1,0.5-0.1c5.2-1,9.3-2.2,13.9-4.9c9.8-5.7,15.3-16.3,24.5-22.7
				c8.6-6.1,19.1-9.4,29.6-9.3c17.3,0.2,33.2,10.1,44.6,22.8c3.3,3.7,6.4,7.8,10.8,10c5,2.5,8.8,2.2,13.9,4.6c1.9,0.9,3.7,2,4.6,3.6
				c0.8-1.6,1.6-3.7,1.6-5.4c0.1-3.1-2.4-4.8-5.2-6.1c-5.2-2.3-9-2.1-14.1-4.6c-4.5-2.3-7.6-6.4-11-10
				c-11.6-12.7-27.8-22.7-45.3-22.8c-10.6-0.1-21.3,3.2-30,9.3c-9.3,6.5-14.9,17-24.8,22.7c-4.6,2.7-8.9,3.9-14.1,4.9
				c-0.2,0-0.4,0.1-0.5,0.1c-3.7,0.8-7.8,2.1-9,5.6c-0.8,2.4,0.1,4.9,1.3,7.2C36.7,62.3,40.4,61.1,43.8,60.4z"/>
			<path class="st8" d="M146,90.2c-0.5-1.4-0.9-2.8-1.3-4.2c-2.4,2.5-5.9,5.1-4,5.9c1,0.4,2.9,0.4,5.1,0
				C146.1,91.3,146.2,90.7,146,90.2z"/>
			<path d="M186.1,64.8c0.1-0.1,0.1-0.2,0.2-0.4c-0.9-1.6-2.7-3.7-4.7-4.5c-5.1-2.3-8.9-2.1-13.9-4.6c-4.5-2.3-7.4-5.4-10.7-9.1
				c-11.4-12.7-27.4-22.7-44.6-22.8c-10.5-0.1-21,3.2-29.6,9.3c-9.2,6.5-14.7,17-24.5,22.7c-4.1,2.4-8.8,2.9-13.3,3.9
				c-2,0.4-4.1,0.9-5.9,1.9c-0.8,0.5-1.6,1.1-2.3,1.8c-0.3,0.3-1.8,2-1.6,2.4s0.5,0.8,0.8,1.2c6.9,10.5,22.4,19.8,34.8,20.8
				c2.4,0.2,5.1,0.1,7-1.5c1.3-1.2,3.3-2.4,4-4c4-9.5,5.5-20,14.9-24s20.3-4.2,29.8-0.6c7.5,2.9,14.4,8.5,17.3,16.1
				c1.1,2.9,1.7,6,2.8,9c0.4,1-0.5,2.3-1.8,3.7c0.4,1.4,0.8,2.8,1.3,4.2c0.2,0.5,0.1,1.1-0.3,1.7c6.1-1,14.9-4.4,17.6-6
				C172.9,80.5,180.8,74.5,186.1,64.8z"/>
		</g>
		<path d="M142.9,94c-1.1,0-1.9-0.1-2.6-0.4c-1-0.4-1.3-1.2-1.4-1.6c-0.3-1.6,1.2-3,3.2-5c0.6-0.6,1.2-1.1,1.7-1.7
			c1.5-1.6,1.5-2.1,1.5-2.2c-0.6-1.5-1-3-1.4-4.6c-0.4-1.5-0.8-3-1.4-4.4c-2.6-6.6-8.6-12.2-16.5-15.2c-9.2-3.5-19.6-3.3-28.6,0.5
			c-6.7,2.9-9.2,9.7-11.7,16.9c-0.7,2.1-1.5,4.2-2.4,6.3c-0.7,1.6-2.1,2.7-3.3,3.7c-0.4,0.3-0.7,0.6-1,0.9c-2.4,2.1-5.8,2.1-8.1,1.9
			C57.9,88,42.1,78.6,35,67.6c-0.3-0.4-0.5-0.9-0.8-1.3c-1.8-3.2-2.3-6-1.4-8.4c1.5-4.3,6.2-5.8,10.1-6.6l0.6-0.1
			c5.1-1,9.2-2.2,13.7-4.7c5.1-3,9.1-7.3,13.2-11.8c3.5-3.8,7.1-7.8,11.5-10.9c9-6.3,19.9-9.7,30.9-9.6c16.1,0.2,33,8.7,46.4,23.3
			c0.6,0.6,1.2,1.3,1.7,2c2.7,3.1,5.3,6,8.8,7.8c2.5,1.2,4.7,1.8,7,2.3c2.2,0.5,4.4,1.1,7,2.2l0,0c1.7,0.8,6.2,2.8,6.1,7.5
			c0,2.4-1.3,5.1-1.8,6.1l-0.2,0.4c-5.9,10.8-15.1,17.1-23.3,21.7c-2.7,1.5-11.6,5-18.1,6.1C145,93.9,143.9,94,142.9,94z M142.4,91
			c0.7,0,1.7,0,3.4-0.3c6-1,14.6-4.4,17.1-5.8c7.9-4.5,16.6-10.4,22.2-20.6l0.2-0.3c0.9-1.7,1.5-3.5,1.5-4.8c0-1.9-1.2-3.3-4.4-4.7
			c-2.3-1.1-4.4-1.5-6.5-2.1c-2.4-0.6-4.8-1.2-7.6-2.5c-4-2-6.9-5.3-9.7-8.5c-0.6-0.6-1.1-1.3-1.7-1.9c-12.8-14-28.9-22.2-44.2-22.4
			c-10.2-0.1-20.6,3.1-29.1,9c-4.1,2.9-7.6,6.7-11,10.4c-4.1,4.5-8.4,9.2-13.9,12.4c-4.8,2.8-9.2,4-14.6,5.1l-0.5,0.1
			c-3.4,0.7-6.9,1.8-7.9,4.6c-0.5,1.6-0.2,3.6,1.2,6c0.2,0.4,0.5,0.8,0.7,1.2C44.2,76,59.3,85,71.3,86c1.8,0.1,4.3,0.2,5.8-1.2
			c0.4-0.3,0.8-0.6,1.2-1c1-0.8,2.1-1.6,2.4-2.5c0.8-2,1.6-4.1,2.3-6.1c2.7-7.5,5.4-15.3,13.4-18.7c9.7-4.2,21-4.4,30.9-0.6
			c8.6,3.3,15.3,9.5,18.2,16.9c0.6,1.5,1,3.1,1.5,4.7c0.4,1.5,0.8,2.9,1.4,4.3c0.7,1.9-0.7,3.8-2.1,5.3c-0.6,0.6-1.2,1.2-1.8,1.8
			C143.7,89.7,142.9,90.4,142.4,91z"/>
		<path class="st5" d="M74.3,55c-0.9,0-1.8-0.2-2.7-0.2c-0.7,0-1.6,0.3-1.9,1c-0.2,0.5,0,1.2,0.4,1.6c0.4,0.4,0.9,0.7,1.4,0.9
			c0.4,0.2,0.9,0.4,1.1,0.8c0.1,0.2,0.1,0.4,0.1,0.7c0,0.9-0.2,2,0.3,2.7c0.6,0.7,1.7,0.8,2.5,0.3s1.3-1.3,1.7-2.1s0.7-1.7,1.3-2.5
			c0.5-0.6,1.1-1.1,1.8-1.6c1.3-1,2.7-1.9,4.1-2.7c2.4-1.6,5-3.2,7.8-3.8c1.3-0.3,2.6-0.3,3.8-0.8c0.5-0.2,1-0.4,1.3-0.8
			c0.3-0.4,0.4-1,0.1-1.5c-0.5-0.7-1.7-0.4-2.2-1.1c-0.1-0.2-0.2-0.4-0.2-0.6c-0.1-0.8,0.2-1.5,0.3-2.3c0.1-0.8-0.2-1.7-0.9-1.9
			c-0.6-0.2-1.3,0.3-1.7,0.8c-0.7,0.8-1.3,1.7-1.7,2.7c-0.3,0.8-0.5,1.6-0.9,2.4c-0.8,1.5-2.2,2.5-3.6,3.4c-1.8,1.2-3.7,2.1-5.7,3
			C78.7,54.5,76.7,55.2,74.3,55z"/>
		<path class="st5" d="M76.3,41.1c-2,1.7-3.9,3.8-3.9,6.4c0,0.7,0.2,1.5,0.7,2c0.6,0.7,1.7,1,2.7,0.8c1-0.1,1.9-0.5,2.7-1
			c0.8,1,0.1,2.5,0.5,3.7c0.3,1.1,1.5,1.9,2.7,2s2.4-0.3,3.5-0.8c1.4-0.6,2.7-1.5,3.8-2.4c0.9-0.7,1.7-1.7,1.9-2.8
			c0.3-2-1.7-3.5-3.4-4.6c1.4-1,2.4-2.6,2.3-4.3C89.5,31.8,79.1,38.8,76.3,41.1z"/>
		<path d="M81.6,42.3c-0.2,1.1,0.5,2.2,1.5,2.6s2.3-0.1,2.8-1.1c0.3-0.6,0.3-1.4,0.2-2.1c0-0.2-0.1-0.4-0.2-0.5
			C84.8,39.4,81.9,40.7,81.6,42.3z"/>
		<path d="M80.6,45.2c0.2,0.7-0.3,1.5-1,1.9c-0.6,0.4-1.5,0.3-2.1,0c-0.4-0.2-0.7-0.5-0.8-0.9c-0.2-0.6,0.2-1.2,0.6-1.7
			c0.5-0.6,1.1-1.1,1.8-0.9C79,43.4,80.1,43.5,80.6,45.2z"/>
		<path d="M82.6,52.6L82.6,52.6c-1.1,0-2-0.5-2.5-1.4c-0.3-0.5-0.1-1.1,0.4-1.4c0.5-0.3,1.1-0.1,1.4,0.4c0.1,0.2,0.4,0.3,0.7,0.3
			c0.4,0,0.8-0.1,1.3-0.4c0.7-0.4,1.2-0.7,1.5-1.2c0.3-0.4,0.4-1,0.2-1.3c-0.3-0.5-0.1-1.1,0.4-1.3c0.5-0.3,1.1-0.1,1.3,0.4
			c0.5,1,0.4,2.3-0.3,3.3c-0.5,0.7-1.2,1.3-2.3,1.9C84.2,52.3,83.5,52.6,82.6,52.6z"/>
	</g>
	<g>
		<path class="st9" d="M150.5,92.4c-1.3-0.3-2.7-0.2-3.9,0.3c0-1.7-0.1-3.2-1.2-5c-1.1-1.8,0.9-7.1,0.5-9.2
			c-0.5-2.8-1.3-5.4-2.5-7.9c-2.7-5.5-12-6.6-17-9.1c-3.1-1.5-6.4-2.6-9.8-3.1c-4.3-0.6-9.9-0.4-14.1,0.8c-2.1,0.6-4.2,1.3-6.3,2.3
			c-5,2.5-9.5,6.4-12.2,12c-1.2,2.5-4.4,2.7-4.9,5.5c-0.4,2.1,0.1,5-1,6.8c-1.4,2.3-1.1,4.8-0.9,7.6c-1.6-1-3.4-1.4-5.1-0.9
			c-4,1-6.1,6.1-4.8,11.2c1.3,5.2,5.7,8.5,9.6,7.5c0.5-0.1,0.9-0.3,1.3-0.5c0.1,0.2,0.1,0.4,0.2,0.6c4,10.3,13.8,14.6,22.8,14.9
			c5.8,0.2,11.6,0.3,17.4,0.1c1.3,0,2.5-0.1,3.8-0.1c9-0.3,18.8-4.7,22.8-14.9v-0.1c0.1,0,0.2,0.1,0.3,0.1c4,1,8.3-2.3,9.6-7.5
			C156.6,98.4,154.4,93.4,150.5,92.4z"/>
		<path class="st10" d="M112.4,127.8c-4,0-7.7-0.1-11.1-0.2c-11-0.4-19.8-6-23.8-15h-0.1c-4.8,1.2-9.9-2.6-11.5-8.6
			c-0.7-2.8-0.6-5.7,0.5-8.1c1.1-2.6,3-4.3,5.4-4.9c1.2-0.3,2.5-0.3,3.8,0c-0.1-2.1,0.1-4.1,1.3-6c0.5-0.8,0.6-2.3,0.6-3.7
			c0-0.9,0.1-1.8,0.2-2.6c0.4-2.1,1.9-3.2,3.1-4c0.8-0.6,1.5-1.1,1.9-1.8c2.6-5.4,7.1-9.8,12.8-12.7c2-1,4.2-1.8,6.5-2.4
			c4.4-1.2,10.1-1.5,14.7-0.8c3.5,0.5,7.1,1.7,10.3,3.2c1.4,0.7,3.2,1.3,5.1,1.9c4.9,1.6,10.4,3.4,12.6,7.9c1.2,2.5,2.1,5.3,2.6,8.3
			c0.2,1.1-0.1,2.6-0.4,4.3c-0.2,1.3-0.7,3.8-0.3,4.3c0.8,1.4,1.2,2.7,1.4,3.9c1-0.1,2-0.1,2.9,0.2l0,0c4.8,1.2,7.4,7.1,5.9,13.1
			c-1.4,5.5-6,9.3-10.5,8.7c-4,8.9-12.8,14.4-23.7,14.8l-3.8,0.1C116.6,127.7,114.5,127.8,112.4,127.8z M78.3,109
			c0.2,0,0.4,0,0.5,0.1c0.4,0.2,0.7,0.5,0.9,0.9l0.1,0.3c0,0.1,0.1,0.2,0.1,0.3c3.3,8.4,11.3,13.6,21.5,14
			c5.1,0.2,11.1,0.3,17.3,0.1l3.8-0.1c10.1-0.4,18.2-5.6,21.5-14v-0.1c0.3-0.7,1.1-1.1,1.9-0.9l0.2,0.1c3.2,0.8,6.7-2,7.9-6.4
			c1.1-4.4-0.5-8.6-3.7-9.4l0,0c-1-0.2-2-0.2-3,0.3c-0.5,0.2-1,0.1-1.4-0.1c-0.4-0.3-0.7-0.8-0.7-1.3c0-1.5-0.1-2.8-1-4.2
			c-0.9-1.5-0.5-3.9,0-6.4c0.2-1.3,0.5-2.7,0.4-3.3c-0.5-2.7-1.2-5.3-2.3-7.5c-1.6-3.3-6.5-4.9-10.8-6.3c-2-0.7-3.9-1.3-5.5-2.1
			c-2.9-1.4-6.2-2.5-9.4-3c-4.1-0.6-9.5-0.3-13.5,0.7c-2.1,0.6-4.1,1.3-6,2.2c-3.6,1.8-8.5,5.2-11.5,11.3c-0.7,1.5-1.9,2.3-2.9,3
			c-1.1,0.8-1.7,1.2-1.8,2.1c-0.1,0.6-0.1,1.4-0.2,2.2c-0.1,1.7-0.1,3.6-1,5.1c-1.1,1.8-0.9,4-0.7,6.6c0,0.6-0.2,1.1-0.7,1.4
			s-1.1,0.3-1.6,0c-0.9-0.6-2.3-1.1-3.9-0.7c-1.5,0.4-2.7,1.5-3.4,3.2c-0.8,1.8-0.9,4-0.3,6.2c1.1,4.4,4.6,7.2,7.8,6.4
			c0.3-0.1,0.7-0.2,1-0.4C77.8,109.1,78.1,109,78.3,109z"/>
	</g>
	<g>
		<g>
			<path class="st11" d="M117.7,95.1L117.7,95.1c-1.1,0-2-1.4-2-3.1v-0.4c0-1.7,0.9-3.1,2-3.1s2,1.4,2,3.1V92
				C119.7,93.8,118.8,95.1,117.7,95.1"/>
			<path class="st11" d="M107.5,95.7L107.5,95.7c-1.1,0-2-1.4-2-3.1v-0.4c0-1.7,0.9-3.1,2-3.1s2,1.4,2,3.1v0.4
				C109.5,94.3,108.6,95.7,107.5,95.7"/>
		</g>
	</g>
	<path class="st12" d="M109,100.4c-0.3,0-0.5-0.1-0.7-0.3c-0.4-0.4-0.4-1,0-1.4c2.8-2.6,7.5-2.8,10.5-0.4c0.4,0.3,0.5,1,0.2,1.4
		s-1,0.5-1.4,0.2c-2.2-1.8-5.8-1.6-7.9,0.3C109.5,100.3,109.2,100.4,109,100.4z"/>
	<path d="M114.8,112.6c-0.9,0-1.8,0-2.7-0.1c-1.7-0.1-3.7-0.3-5.6-0.9c-2.1-0.7-3.8-2-4.8-3.6c-0.3-0.5-0.2-1.1,0.3-1.4
		s1.1-0.2,1.4,0.3c0.8,1.2,2.1,2.2,3.8,2.7c1.6,0.6,3.4,0.7,5.1,0.8c2.1,0.1,4.4,0.2,6.6-0.4s4-1.8,4.9-3.4c0.3-0.5,0.9-0.6,1.4-0.4
		c0.5,0.3,0.7,0.9,0.4,1.4c-1.2,2.1-3.4,3.7-6.2,4.4C117.9,112.5,116.3,112.6,114.8,112.6z"/>
	<g>
		<path class="st13" d="M78.5,97.2c-0.1,1-1.4,1.4-2.2,0.8c-2.9-2.5-5.1-5.7-6.7-9.1c-0.9-2-1.3-4.1-1.3-6.3
			c0-8.1,2.5-16.3,8.5-21.7c5.5-4.9,11.7-6.2,18.6-7.9c6-1.5,9.3-6.8,14.6-9.9c2.6-1.5,6.3,0.3,5.3,3.6c-0.3,1.1-1.6,1.7-2.6,2.3
			c10.3-1.7,23.4,1.9,30.7,9.3c3.2,3.2,6.1,8.3,7.4,12.6c3,9.5,0.9,17.1-2.5,24.2c-0.5,0.9-1.9,0.8-2-0.3c-1.1-7.2-3-14.3-5.6-20.9
			c-0.1-0.2-0.4-0.3-0.6-0.2c-1.1,0.9-5.8,0-7.2-0.6c-2-0.8-6.2-2.9-9.1-6.4c-5.3,14.7-20.9,2-20.9,2c-7.8,13.1-17.1,6.8-17.1,6.8
			S79.2,85.4,78.5,97.2z"/>
		<path d="M77.2,99.8c-0.7,0-1.4-0.2-1.9-0.7c-3-2.6-5.4-5.9-7-9.7c-0.9-2.1-1.4-4.5-1.4-6.9c0-9.5,3.2-17.6,9-22.8
			c5.5-4.9,11.6-6.4,18.2-8l1.1-0.3c3.3-0.8,5.7-3,8.3-5.2c1.8-1.6,3.6-3.2,5.9-4.5c1.9-1.1,4.3-1,6,0.3c1.5,1.2,2,3,1.5,5l0,0
			c10.2-0.4,21.3,3.6,27.7,10.1c3.3,3.3,6.3,8.5,7.8,13.2c3.3,10.6,0.6,18.8-2.6,25.3c-0.5,1-1.6,1.6-2.7,1.4c-1.1-0.2-2-1-2.2-2.1
			c-1.1-6.8-2.8-13.4-5.1-19.6c-2.6,0.5-6.8-0.7-7.4-0.9c-1.2-0.5-5-2.1-8.1-5.1c-1.5,2.9-3.7,4.8-6.4,5.5c-5.5,1.5-11.8-2.2-14.5-4
			c-2.7,4.1-6,6.6-9.6,7.4c-3.2,0.7-5.9-0.1-7.4-0.8c-1.7,2.9-5.8,10.9-6.4,19.9l0,0c-0.1,1-0.7,1.9-1.7,2.3
			C77.9,99.7,77.5,99.8,77.2,99.8z M78.5,97.2L78.5,97.2L78.5,97.2z M77,97.1L77,97.1L77,97.1L77,97.1z M77.3,96.8L77.3,96.8
			L77.3,96.8z M112.1,44c-0.4,0-0.8,0.1-1.3,0.3c-2,1.1-3.7,2.6-5.4,4.1c-2.8,2.4-5.6,4.9-9.6,5.9l-1.1,0.3
			c-6.4,1.5-12,2.9-16.9,7.3c-5.1,4.7-8,12-8,20.6c0,2,0.4,3.9,1.2,5.7c1.4,3.2,3.5,6.1,6,8.4c0.9-11.8,7.3-21.6,7.6-22
			c0.2-0.3,0.6-0.6,1-0.6c0.4-0.1,0.8,0,1.1,0.2c0,0,2.9,1.9,6.5,1.1c3.1-0.7,6-3.2,8.5-7.4c0.2-0.4,0.6-0.6,1-0.7s0.9,0,1.2,0.3
			c0.1,0.1,7.5,6,13.2,4.5c2.4-0.6,4.1-2.6,5.3-5.8c0.2-0.5,0.6-0.9,1.2-1c0.5-0.1,1.1,0.1,1.4,0.6c2.9,3.7,7.5,5.6,8.4,6
			c1.4,0.5,5,1.1,5.8,0.8c0.5-0.3,1-0.4,1.6-0.3c0.6,0.2,1.1,0.6,1.3,1.1c2.5,6.3,4.3,13,5.5,19.9c2.7-5.8,4.7-12.9,1.9-21.9
			c-1.3-4.2-4.2-9-7.1-12c-6.7-6.8-19-10.6-29.3-8.9c-0.7,0.1-1.4-0.3-1.6-0.9c-0.3-0.7,0-1.4,0.6-1.8c0.2-0.1,0.3-0.2,0.5-0.3
			c0.6-0.4,1.3-0.8,1.4-1.2c0.2-0.8,0.1-1.4-0.5-1.8C113.1,44.2,112.6,44,112.1,44z M141,74.8L141,74.8L141,74.8z"/>
	</g>
</g>
</svg>
