<?xml version="1.0" encoding="utf-8"?>
<!-- Generator: Adobe Illustrator 23.1.1, SVG Export Plug-In . SVG Version: 6.00 Build 0)  -->
<!DOCTYPE svg PUBLIC "-//W3C//DTD SVG 1.1//EN" "http://www.w3.org/Graphics/SVG/1.1/DTD/svg11.dtd" [
	<!ENTITY ns_flows "http://ns.adobe.com/Flows/1.0/">
	<!ENTITY ns_extend "http://ns.adobe.com/Extensibility/1.0/">
	<!ENTITY ns_ai "http://ns.adobe.com/AdobeIllustrator/10.0/">
	<!ENTITY ns_graphs "http://ns.adobe.com/Graphs/1.0/">
	<!ENTITY ns_vars "http://ns.adobe.com/Variables/1.0/">
	<!ENTITY ns_imrep "http://ns.adobe.com/ImageReplacement/1.0/">
	<!ENTITY ns_sfw "http://ns.adobe.com/SaveForWeb/1.0/">
	<!ENTITY ns_custom "http://ns.adobe.com/GenericCustomNamespace/1.0/">
	<!ENTITY ns_adobe_xpath "http://ns.adobe.com/XPath/1.0/">
]>
<svg version="1.1" id="레이어_1" xmlns:x="&ns_extend;" xmlns:i="&ns_ai;" xmlns:graph="&ns_graphs;"
	 xmlns="http://www.w3.org/2000/svg" xmlns:xlink="http://www.w3.org/1999/xlink" xmlns:a="http://ns.adobe.com/AdobeSVGViewerExtensions/3.0/"
	 x="0px" y="0px" viewBox="0 0 500 600" style="enable-background:new 0 0 500 600;" xml:space="preserve">
<metadata>
	<sfw  xmlns="&ns_sfw;">
		<slices></slices>
		<sliceSourceBounds  bottomLeftOrigin="true" height="135.5" width="130.3" x="760.6" y="2779.5"></sliceSourceBounds>
		<optimizationSettings>
			<targetSettings  fileFormat="PNG24Format" targetSettingsID="0">
				<PNG24Format  filtered="false" interlaced="false" matteColor="#FFFFFF" noMatteColor="false" transparency="true">
					</PNG24Format>
			</targetSettings>
		</optimizationSettings>
	</sfw>
</metadata>
<path style="fill:#52B1FF;" d="M164.7,122.4l-0.6-8.8l0.4-2.4l1-0.7l1.5-0.2l2.1-0.8l3.2-2.6l6.9-10.5l1.4-1.4l3.1-2.4l1.3-1.5
	l1.6-4.1l1.1-2.7l1-1.3l1.6,0.8l2.8,1.8l1.2,0.8l0.7,1.6l0.9,0.7l0.7,0.9l0.6,1.7l0.9,1.3l1-0.1l1,1l2.7,2.4l3,1.4l1.1-1.6l0-3.4
	l0.2-1l0.6-0.7l0.6,0.4l0.1,1l0.3,1l1.6,1.1l1.8-0.3l1.2-1.2l1.1-1.4l0.6-0.4l0.7-0.1l0.7,0.2l0.5,0.4l-0.3,0.7l-0.5,0.7l-0.6,1.8
	l0,1.9l1.3,1.2l1.3,0.8l3.1,0.8l3.4-1.2l1.4,1l0.5-0.1l0.4-0.4l0.6-0.1l0.5,0.5l0.8,2.4l0.4,4.8l1,2.7l2.1,1.5l1.9-0.1l1.8,0.1
	l1.1,3l1.5,0.7l1.6,0.3l1.9,2.9l-0.4,4.1l-0.9,1.4l-1.7,0.5l-4.1,3l0.2,1.6l0,1.7l-0.5,1.4l0.7,1.8l0.4,1.8l-2.4,2.8l1,1.2l2.1-0.7
	l0,2.1l-0.3,2l-0.9,1.7l-0.1,1.6l1.8,1.5l2.2-0.7l2.2,0.3l2,1.3l2,0.8l4.5,2.5l2.7,0.4l2,0.7l1.9,0.2l1.2,1l0.9,1.6l-0.8,1.8
	l-1.6,0.7l-1.5,1.8l-1.1,1.8l0.5,2.3l-0.6,2.3l-5,10.6l-3.6,8.8l-4.4,8.1l-0.6,1.1l-0.7,1l-0.7,0.5l-0.6,0.5l-0.5,0.8l-0.4,0.9
	l-3.9,7.2l-2,1.4l-0.5-0.6l-1.6-0.3l-1.3,1.3l-0.7,1.7l-1,1.3l-2.1,0.9l-1.3,1.4l-0.7,3l-2.7,0.9l-3.4,1.6l-3.6,1.1l-3.8-0.5
	l-3.1-2.6l-3.5-1.6l-6.7,2.9l-3.2,0l-3.8-0.8l0,0l1-0.8l1.2-0.6l0.9-1l0.6-2.4l-0.2-0.4l-0.8-0.8l-0.1-0.2l0.4-0.4l0.4-0.1l0.4,0
	l1.1-0.6l0.7-0.1l0.5-0.4l0.2-1.2l-4.8,1.4l-0.7,1l0.3,3.1l-0.6,0.7l-1.9,0.6l-2.7-0.4l-3.2-1.8l-2.9-2.8l-1.1-2.7l4.8-0.5v-0.6
	l-0.3-0.2l-0.8-0.6l0.9-0.1l0.9,0l0.8,0.3l0.7,0.5l-0.3-1.9l-1.1-1.7l-0.8-2l0.6-2.7l-0.9-0.4l-0.7,0.9l-0.4,1.6l-0.1,1.6l-0.4,1.8
	l-0.8,0.4l-0.8-0.8l-1.5,0.3l-1.6,0.4l-3.7-1.1l0-1.1l-0.4-1l0.3-1.4l-0.2-1.7l0.9-1.7l1.1-1.5l1.3-0.6l1.4-0.5l2,0l2.2-0.6l0.5-0.7
	l0.1-1.9l-0.5-0.4l-1.1,0.6l-1.7,1.5l-1-0.2l-0.8-0.5l-0.4-0.8l0-1.2l-1.9,1l-1.6,1.1l-2.9,3.1l-0.7,0.6l-0.9,0.3l-0.9,0l-0.5-0.5
	l0-0.9l0.5-0.9l1.2-1.7l-2.4,0.5l-0.8-0.2l-0.3-1.4l0.4-1l1-0.6l1.1-0.4l0.8-0.5l1-1.3l-0.3-0.3l-2.2,0.3l-0.7-0.4l-0.6-1.1
	l-0.5-1.4l-0.7-1.3l0.4-0.1l0.2-0.2l0.5-0.5l0.6,0.5l0.9,0l1.6-0.4l1.3,0.4l1.1,0.7l1.1,0.3l1.2-0.6l-0.1,1.1l0.1,1.1l0.4,0.8
	l0.8,0.4l0.8-0.3l0.4-1l0.4-2.2l1.4-2l1.1,0.2l1.3,0.8l1.8-0.3l-0.4-0.8l-0.5-0.6l-0.6-0.4l-0.8-0.2l-1.1,0l-0.5-0.8l-1.2-0.2
	l-1,0.3l-1-0.1l-1.5-0.3l-2.5-0.8l-3.5-2.7l-0.2-1.2l1.6-2.3l1.1-1.1l2.5-0.7l0.6-0.4l1.1-0.8l1.2-2.2l0.8-2.5l-0.8-1.3l-1.3-0.9
	l-0.9-2l0-2.4l-4.8-4.6l-4.1,0.1l-3.7,0.1l-0.4-0.9l-0.6-1.5l-0.7-1.2l-0.8-1.4l-0.9-0.9l0-1.4l-0.3-2.1l-0.9-3.2l-1.2-8.4l0.3-1.4
	l1.1-0.2l4.5,1.6l1.4-0.3l1.2-0.6l1.1-0.2l1.1,0.7l0.4,1.2l0.2,1.9l-0.1,1.9l-0.4,1.3l0,2.4l2.5,2.1l3.1,1.3l2,0.1l-1.5-1.6
	l-4.7-3.4l1.4-3.6l0.4-2.2l-0.3-1.5l-0.8-1.6l-0.1-0.9l-0.1-1.2l0.4-2l0.8-1.6l-0.6-0.8l-0.8,0.1L164.7,122.4z M201,150.6l0.7-2.9
	l-0.1-2.5l-0.8-2.3l-0.5-3.2l-1.4-2.4l-2.9-0.2l-2.5,0.6l-1.6,1.7l-1.1,2.4l-1.9,2.4l-3.6,0.3l-0.5,1.6l-0.1,1.7l-1.7,1l-1.9,0.7
	l-2.6-1.6l-2.3-0.1l-1.2,2.6l1.9,2.3l1.6,2.3l0.4,2.9l1.6,1.1l2.3,0.7l2.4,3.1l3.5,0.1l1.5-0.2l1.4-0.8l2-0.6l2-0.5l0.9,2.1l2.4-1.2
	l2.3-0.5l2.1-1.2l0.8-1.3l1.4-1.9l-0.7-0.7l0-1.8l1.2-0.8l1.1-0.6l0.2-1.5l-0.6-1.5l-1.6,0l-1.9,0.7L201,150.6z M134.6,125l1.6,0
	l1.5,0.2l0.8,0.8l-0.5,1.8l-1.4,1.2l-1.8,0.1l-3.4-0.7l-0.7,0.3l-0.9,0.5l-0.8,0l-0.3-1.1l0.2-0.3l0.9-2.8l1-1l1.1-0.3l1.3,0.3
	L134.6,125z M139.6,135.9l1,0.8l0.8,0.9l0.2,1l-0.9,1.1l-1.6,0.1l-5.5-4.3l0.7-0.6l0.3-0.8l0.5-1.9l0.3-0.5l0.4-0.5l0.5-0.4l0.5-0.1
	l0.3,0.2l0.2,0.3l0.1,0.4l0.3,1.9l0.1,0.4l0.4,0.7l0.5,0.6L139.6,135.9z M151.8,145.9l-0.6,0.1l-0.5-0.2l-0.8-0.9l-0.6-0.4l-0.4,0.2
	l-0.3,0.3l-0.3,0.2l-4.3,0.2l-1.6-0.7l-1.7-2.2l2.5-0.6l0.6-0.4l0.7-1.1l-0.1-0.5l-0.5-0.3l-0.4-0.6l-2.9-5.5l-0.2-0.8l0.3-1.1
	l-0.1-4.8l0.3-1.1l0.8-0.3l1.9-2.2l1.5-0.4l1.3,0.9l1.2,1.4l1.2,1.1l2.6,1.3l1,1l0.4,1.6l-0.1,0.8l-0.4,1.4l-0.1,0.6l0.2,0.7
	l0.8,1.4l0.2,0.8l0.3,3.7l-0.3,0.9l0.4,0.5l0.5,1.1l0.3,0.4l-1,0.6l-0.9,2.1L151.8,145.9z M149.9,178.1l0.8,0.6l0.3,1.2l-0.4,0.4
	l-0.9,0.3l-0.3,0.7l-0.1,0.6l-0.7,0.8l-0.9,0.2l-0.6-0.5l-0.7,0.1l-0.5-0.3l-0.2-1.3l0.2-1.3l0.7-0.9l1.4-0.8L149.9,178.1z
	 M160.4,180.5l0.2,0.5l0.2,0.9l-0.4,0.9l-4.1,3.3l-1.9,0.2l0-0.5l0.9-1.2l0.1-0.7l-0.4-0.6l1.1-1.2l0-1.2l-0.4-1.5l-0.6-1l-0.6-0.7
	l0.2-0.2l1.3,0.6l1.1-1l0.3,0.1l-0.2,0.9l0.3,0.8l0.9,0.5l1.5,0.6L160.4,180.5z"/>
</svg>
