<?xml version="1.0" encoding="utf-8"?>
<!-- Generator: Adobe Illustrator 16.0.0, SVG Export Plug-In . SVG Version: 6.00 Build 0)  -->
<!DOCTYPE svg PUBLIC "-//W3C//DTD SVG 1.1//EN" "http://www.w3.org/Graphics/SVG/1.1/DTD/svg11.dtd" [
	<!ENTITY ns_flows "http://ns.adobe.com/Flows/1.0/">
	<!ENTITY ns_extend "http://ns.adobe.com/Extensibility/1.0/">
	<!ENTITY ns_ai "http://ns.adobe.com/AdobeIllustrator/10.0/">
	<!ENTITY ns_graphs "http://ns.adobe.com/Graphs/1.0/">
]>
<svg version="1.1" id="Layer_5" xmlns:x="&ns_extend;" xmlns:i="&ns_ai;" xmlns:graph="&ns_graphs;"
	 xmlns="http://www.w3.org/2000/svg" xmlns:xlink="http://www.w3.org/1999/xlink" xmlns:a="http://ns.adobe.com/AdobeSVGViewerExtensions/3.0/"
	 x="0px" y="0px" width="280px" height="280px" viewBox="0 0 280 280" style="enable-background:new 0 0 280 280;"
	 xml:space="preserve">
<metadata><?xpacket begin="﻿" id="W5M0MpCehiHzreSzNTczkc9d"?>
<x:xmpmeta xmlns:x="adobe:ns:meta/" x:xmptk="Adobe XMP Core 5.3-c011 66.145661, 2012/02/06-14:56:27        ">
   <rdf:RDF xmlns:rdf="http://www.w3.org/1999/02/22-rdf-syntax-ns#">
      <rdf:Description rdf:about=""
            xmlns:dc="http://purl.org/dc/elements/1.1/">
         <dc:format>image/svg+xml</dc:format>
         <dc:title>
            <rdf:Alt>
               <rdf:li xml:lang="x-default">요리사(3)_2</rdf:li>
            </rdf:Alt>
         </dc:title>
      </rdf:Description>
      <rdf:Description rdf:about=""
            xmlns:xmp="http://ns.adobe.com/xap/1.0/"
            xmlns:xmpGImg="http://ns.adobe.com/xap/1.0/g/img/">
         <xmp:MetadataDate>2020-02-11T19:09:20+09:00</xmp:MetadataDate>
         <xmp:ModifyDate>2020-02-11T19:09:20+09:00</xmp:ModifyDate>
         <xmp:CreateDate>2020-02-11T19:09:20+09:00</xmp:CreateDate>
         <xmp:CreatorTool>Adobe Illustrator CS6 (Windows)</xmp:CreatorTool>
         <xmp:Thumbnails>
            <rdf:Alt>
               <rdf:li rdf:parseType="Resource">
                  <xmpGImg:width>96</xmpGImg:width>
                  <xmpGImg:height>256</xmpGImg:height>
                  <xmpGImg:format>JPEG</xmpGImg:format>
                  <xmpGImg:image>/9j/4AAQSkZJRgABAgEASABIAAD/7QAsUGhvdG9zaG9wIDMuMAA4QklNA+0AAAAAABAASAAAAAEA&#xA;AQBIAAAAAQAB/+4ADkFkb2JlAGTAAAAAAf/bAIQABgQEBAUEBgUFBgkGBQYJCwgGBggLDAoKCwoK&#xA;DBAMDAwMDAwQDA4PEA8ODBMTFBQTExwbGxscHx8fHx8fHx8fHwEHBwcNDA0YEBAYGhURFRofHx8f&#xA;Hx8fHx8fHx8fHx8fHx8fHx8fHx8fHx8fHx8fHx8fHx8fHx8fHx8fHx8fHx8f/8AAEQgBAABgAwER&#xA;AAIRAQMRAf/EAaIAAAAHAQEBAQEAAAAAAAAAAAQFAwIGAQAHCAkKCwEAAgIDAQEBAQEAAAAAAAAA&#xA;AQACAwQFBgcICQoLEAACAQMDAgQCBgcDBAIGAnMBAgMRBAAFIRIxQVEGE2EicYEUMpGhBxWxQiPB&#xA;UtHhMxZi8CRygvElQzRTkqKyY3PCNUQnk6OzNhdUZHTD0uIIJoMJChgZhJRFRqS0VtNVKBry4/PE&#xA;1OT0ZXWFlaW1xdXl9WZ2hpamtsbW5vY3R1dnd4eXp7fH1+f3OEhYaHiImKi4yNjo+Ck5SVlpeYmZ&#xA;qbnJ2en5KjpKWmp6ipqqusra6voRAAICAQIDBQUEBQYECAMDbQEAAhEDBCESMUEFURNhIgZxgZEy&#xA;obHwFMHR4SNCFVJicvEzJDRDghaSUyWiY7LCB3PSNeJEgxdUkwgJChgZJjZFGidkdFU38qOzwygp&#xA;0+PzhJSktMTU5PRldYWVpbXF1eX1RlZmdoaWprbG1ub2R1dnd4eXp7fH1+f3OEhYaHiImKi4yNjo&#xA;+DlJWWl5iZmpucnZ6fkqOkpaanqKmqq6ytrq+v/aAAwDAQACEQMRAD8A9U4q7FXYq07qoqfuxVQa&#xA;Zz02GFVhJPU1xQ1iq9ZXXvUeBxSqmdKV7+GBVhuG7AYq2tx/MPpGKqwIIqNxirTMFFTiqi07Hpti&#xA;rXrSeOFVruWNTihbirsVdirsVdirsVdiqpC5VqdjgS1K/Jj4DphQsxV2KuxV2KuxV2KuxV2KuxV2&#xA;KtqKsB74q0RQ0xV2KuxVbI4RGcgkKKkDriraOrqHU1VtwcVbxV2KuJoKnpiqHspGlR5WJozngPBR&#xA;sMVRGKuxVEQx0HI9T0wJaliqeS9e4xVQIIND1wodirsVQVoxguZLU/Z+1F8j2xVG4q7FVG8fhayt&#xA;/k0+/bFWrFONpEPFa/fviqvirsVRUZqi/LAldiqGmH7w4VUmkjT7bBfmQMUKLX9mvWQH5VP6sVQN&#xA;3ewvNFLDXnGd6ilR4YqqtrK/sxE/M0/hiqmdYl/ZjUfOp/piqhPqE80ZjYKFNK0B7fTira6ldqoV&#xA;WACgAbDtirjqV7/vyn0D+mKuGp3n84P0D+mKpvo93LcQuJCCUIAptscCUwxVi+o3ci3E5kmKxo7D&#xA;dqKADTCrHb3zn5TsiRc6xaIw6p6yM3/AqS2RMx3sxikeiRXf5xeQreoS+e5YfswwyfrdUH45E5Yt&#xA;g00z0Se5/Pny8Kiz028nI7uI4wevg0h/DInOGY0cu9LZ/wA99QeotdACeDSzlvwEafryB1DYNF5p&#xA;fN+dXnaSohsbGFT0LLIzD/kpT8MidQWY0UfNBS/mt+YchqtzbQitaLCp69viDdMHjlmNJBCP+Yn5&#xA;jSActapTpxhgX/iMYweNJl+Vh3KL+dvPjMWbXZgT1oFUfcABg8aSfy0O5GaNrv5jaxqVvp9lrdxJ&#xA;cXLBU2FAO7N4Ko3OA5ig6eAHJ69+Teq+YIdc8xeWfMF615e2LpLBI4AJj3VmB68WDRsvzy/DkMnE&#xA;1OMAAh6rl7iPjzzxcSax5s1e8luZJoJLydrdS1VWP1CEC1r0WmYE52Xc4sYEQkyafbAV4cqdSScj&#xA;bZQVo7ePkFSNQT4AYE0vYKDRdwO/jilrFXYq3bw3V3eRWNlA91fTnjDbxCrMf4DxOLEmnqunfk7D&#xA;YeW7++13lfas1tJ9WsLct6ccrIRGBwo0knIj/Jr9+Q499mk5CShfLn5Nag9vJfa6nFUjZ4dLjYep&#xA;KwUlVdweKAnsDX5YmbKWToGd/l35AtvK9h6k/GbVp1AuJhuEXr6SHw8T3P0ZGUra5ztbBCLT87bK&#xA;aMhRqWkSpMv8zQyVr93H7sydKd2nN/d/F6Nql39T0y7u/wDlnhkl/wCAQt7+GZpNBwYizT40JJNT&#xA;uT1Oa53qq44woO7fEf4Yq5PghZ/2m+Ffl3xVSxS7FVWysdQ1K/t9N02Iz3903CGMdB4sx7Ko3JxY&#xA;yNPoTyB+XemeU7LkKXWrzqPrl8w3r/JHX7KD7z37UqlK3GlK0+1u+1CzsTJp1i2oXjsEigVlRQSC&#xA;eTuxAVRTIoDGf0b+a10fVk1ex0+pqLeGH1QB4FpFJ+44dmVhk+iprSWQTWHglvFYj1bYMEZP2WKt&#xA;0bxA2wMSoWOktcfmHHqbKDFp+ltEGPUS3U/wkePwQOD88zNIOZaM8vTSdedmZfJuvMpIYaddkEbE&#xA;EQPmXP6S4+L6x73yJmvd2q3H2lHgoxKGpj9lOygfedziq5LK9eEzpbyNAK1lCMUFOvxAUwLagSAK&#xA;noMKvc/yZ8pw6doC65On+5HVlEiseqW1axIv+uPjPzHhlcz0cbJKy9FyDBA6xeXFpYPJaoJbuRo4&#xA;LWNjRTNM4jj5U34hmq3thjGzSvMvzJub3y7Z391pxhmbRGt/0zqs4he+mubqjIIvUBMcachxVKU7&#xA;dDmXKFbDowhO9z15PQPJXmBfMPlXTdZXrdwhn/11JR/+GU5iSFFmzGxTjbL4t8R+nNjp41BwsxuS&#xA;jrlidQ0XULAUJu7aaAA9P3kZT+OXSFhhA0QXyLe6Rd2dlZXcy8Yr5ZDEDsQYZDE4PyK5ryKd2JAk&#xA;juQspqQf8kfqwJTzyJpllq/nLTdPvV5W9xI7SJ/MIonl4mnY8KHAeTGZoPo92htI0jSNEt1AVUWi&#xA;gAbUVQKUGY8pU0whxPKfzX/LKe4jbWPLVp6kkgpd2MAAJr/u2NR1J/aA+fjl0JMozrYvUdCh9HRN&#xA;Ph4GP07aFPTYEFeMYFCDuKZAtRR2BDXowyyQ+r9mOVJAR2ZGDD9WTxSqQLGYsF4h+e35c+Y9S8x3&#xA;NxYWc1zb6g0U0EkMbyqJFjEbI/AGh2JHsfnmVliRK65scMwYUTuHpf5b+XLry35I0nRrs/6VbRMZ&#xA;x/K8sjSsv+xL0zFnzbAzS0vVCpE4Nfsqw/DMrDqOUS42XF1COzMcZ5d+dPkuCfyfHd6ZbhH0iaW5&#xA;aJAT+6uXL3BA/wCMhDnwFcozQ22czS5fVR6vnwmtPbMR2a2LVr3R9UsNUs243FnL6qV6Einwt7MK&#xA;g+2EC2Ew+jPKH5keVfM9tGYbiO31ErSXT52Cyq3cJWnqL7r9NMplCmgghlUScIwla06fLtkAESNm&#xA;1+Fi7FXYqqrd3CrxDnj9H68tGaQFWwOOJN0pZUzR2nW6MPVbcg0UfxzM02MH1Fxs8zyR+ZrjNOiO&#xA;jI6hkYFWVhUEHYgg4q8Q8+/kjBY2Oq6zo0rukXG4h0+m6RgsZ1B7hVoy96AjfMXJhqyHYYdXZALx&#xA;W7jElu4PUDkPmMxw5xSXLGt9GfkHrEt75NkspTybTrl44ya/3cgEg/4ZmyjIN2qY3el5WwdirsVd&#xA;iqUnTLm2cizvZYYXJb0TGJlUk1+GvxAZXwkci5YzCQ9UQT76ZVpttNbWUUM8pnmUfHKVCkkmvRdt&#xA;umbjDDhiAXT5piUyQKCJy1qdirsVfPf5tfk/rFldTan5WsmvNOujWWyt1LzQOx3CRqCWjNduP2fC&#xA;grmLPDvYdjh1IIqXN5F5i8uaz5d1SXS9XtzbXkQBKEgqysKhlYVVlPiMgQQ3xkJCw+gvyW8q3Ohe&#xA;WPrFxKHbVxFdpGBQxq0fwqd9zQ1wy00pCw4uTUC6eg1GY8sM48wscsT1XKjt9lSfkK5WIk8mZIDf&#xA;pyfyn7jh4T3LxBcltO/2UPzIoPxyUcUj0YnJEdUda2IjIeTdx0HYZl4dPw7nm4+TNewReZTQ7FXY&#xA;q7FXYqgNX0jRtSjRNSsLe+EZJiW5iSYKT1Khw1MBAKRIjkWlt7dUVFjVUUAKqgAADoBTJMVj2cZ+&#xA;ySp+8Y2tIjT0eMPG1CK1Uj8cFBNovFXYq7FXYq7FXYq7FXYqhpW5OfbYYUIWe59NuKird64q3BP6&#xA;lQRRhiq/6wEaQ0NYgGO3UEV2xVHIwZQw6MAR8jgS3irsVdirsVdirsVcTQE+GKoPChLZW5SMfE4q&#xA;qWn98PkcVR2KoqI1jGBK7FXYq7FXYq7FXYq032T8sVQhwoSvFVa1/vh9OKowuodUJ+Jq8R8uuKom&#xA;1kV4qqagEj6QaYEquKuxV2KuxV2KuxV2KoNuhwoSvFVa1/vh9P6sVR1BWtNx0OKoiAARigpufxOB&#xA;KpirsVdirsVdirsVdiqEcfEw9zhQlWKqtqf36/T+rFUfiqJg/uxgSvxV2KuxV2KuxV2KpWPNHl3/&#xA;ABCfLn6QhGuCEXP6PLASmJq/EAev2SSBuBv0w0qJf7R+ZxQlZ6nFV8BpMnzxVHMjGRGDUVa1Xxri&#xA;qItEZYqMxY8mNT4E1pgSrYq7FXYq7FXYq7FXyT+dtt5CtPO91r3lvzfezeeluhMbSKP6zHHMhCrF&#xA;HPEqCP0woUL8ZFKHLY3TEsM078/Pzb064mkh1qWaGaVpWt7pEuUHIk8VaVXkVRXYKwyXAEW+utA1&#xA;CXUtC07UZQFlvbWG4kUdA0sauQPpOUlku1y/udO0XUNQtUWS5s7aaeCNgSrPFGXVSAQaEjscQr5o&#xA;vf8AnLL8x7iN47Ww0y1LfZlWGaSRenTnKU+9ct4Axt7h/wA45edfM/m/yTf6n5iuRdXseqS28TCK&#xA;OELCtvA6oFjVBs0jbnfITFFkHqmQS7FXYq7FXYq7FXzB+evl3yV+Wmi3sPl21EWvecp5FMjEMbSw&#xA;AX6xFb/77SV24+6swrQDLYkliXgGXsX21+WtwLj8vfLcgptptqhoa7xxKh/FcxZc2YTzUIoprC5i&#xA;lZUikidJGY0UKykEk+FMCvgnMtg+s/8AnEv/AMlzqP8A22Jv+oW2zHy82UXteVsnYq7FXYq7FXYq&#xA;+Iv+cjPM76/+bOoQo/O00fhp1utdgYfin28fWZx9GXwGzAvPstQ+qv8AnGqSR/y6fmxbjfzKvI1o&#xA;oSOgFe2ajWyInsejm6eIMXonmPzBpvl7R59X1IuthbFBcPGpcosjrHyKjcgF6mm9MxYiUzXVvJER&#xA;b49/NAeTj5wupvKMwl0i4VZuKI6RxyvvIiBwp4136bVp2zdafj4fVzdfl4b25Pof/nEv/wAlzqP/&#xA;AG2Jv+oW2wZebGL2vK2TsVdirsVdirsVfDH5r/lj5k8meYfrWuXtpey6w9xdo9q0harP8RkWRE41&#xA;Z9qE5kQNsCGEZYh7T/zjv+YWm6NLdeXNVuFtYL2ZbmymkYLH63H05EZjsC6heNe606kZrtfhMgJD&#xA;o5mkyAExPVnn54+cNBtvy/vtNW9hnv8AVEihgt45FdzwlVmkIUkhOKH4uldsxdFil4gNbByNXOPD&#xA;T5azdurfWX/OJbKfy71JajkNXmJXuAba3ofwzHy82UXtmVsnYq7FXYq7FXYq+RP+codZF9+Yr2am&#xA;q6XaQWxHbm9bgn7pQPoy/GNmEnjmWodirsVdir6h/wCcRLsN5b1+02rDeRSkd6Sxcf8AmVlGXmyi&#xA;99ypk7FXYq7FXYq7FXiX5+/ksfMNn+m/K2l+t5kkuEa/CSiMSwLEwLcJGVC/IJ0oT75ZCdc2JD5m&#xA;1jyb5s0VmXVtGvLELWrzwSIlB1IcjiR7g5eCCxSfCrsVTjTfJvm7U2A07RL+8r0MFtLIOtNyqkDp&#xA;gsK+jv8AnGfyJ548q3WtSa9pb6fY6jFAYmlePmZIGegMaszr8Mp6gZTkkCyAe8ZUydirsVdirsVd&#xA;irsVdiqWPY2Mjl3t4mdt2ZkUk/SRhQuitLSFi0MMcbEULIoU08NhiqYL9kfLAlvFXYq7FXYq7FXY&#xA;q7FXYq032T8sVQmFDsVRg6DAl2KuxV2KuxV2KuxV2KuxVp/sN8jiqEwodiqMwJdirsVdirsVdirs&#xA;VdirsVQmsajBpuk3uo3H9xZW8txNT+SJC7fguKvHIP8AnJ/yWy1uNM1KN6DaNIHFe+5lT9WKoe+/&#xA;5yi8sojGw0a9ncfZE7RQg/Mo01MVZp5a/Pf8uNbt42k1JdLumH7y1v8A9zxP/GU/uiP9l9AxVnGm&#xA;6tpWqW/1nTL2C+t68fWtpUmSvhyQsMVRWKuxV2KuxV2KuxV2KpB+YNndXvkXzBaWoZribT7lIkjB&#xA;Z2Jib4FVdyW6UxV8Sz6PewSGOVDHIuzI6srAjbcEYqpGwuR2GKtfUrj+UfeMVet/842LrNp59KIs&#xA;osLq1lW6CgmOqUZGf9nZhQH3p3xV9SYq7FXYq//Z</xmpGImg:image>
               </rdf:li>
            </rdf:Alt>
         </xmp:Thumbnails>
      </rdf:Description>
      <rdf:Description rdf:about=""
            xmlns:xmpMM="http://ns.adobe.com/xap/1.0/mm/"
            xmlns:stRef="http://ns.adobe.com/xap/1.0/sType/ResourceRef#"
            xmlns:stEvt="http://ns.adobe.com/xap/1.0/sType/ResourceEvent#">
         <xmpMM:InstanceID>xmp.iid:D8239AA2B54CEA1199D68A9015A78B9C</xmpMM:InstanceID>
         <xmpMM:DocumentID>xmp.did:D8239AA2B54CEA1199D68A9015A78B9C</xmpMM:DocumentID>
         <xmpMM:OriginalDocumentID>uuid:5D20892493BFDB11914A8590D31508C8</xmpMM:OriginalDocumentID>
         <xmpMM:RenditionClass>proof:pdf</xmpMM:RenditionClass>
         <xmpMM:DerivedFrom rdf:parseType="Resource">
            <stRef:instanceID>uuid:c0147e5a-a907-495a-a280-7032ab31ab30</stRef:instanceID>
            <stRef:documentID>xmp.did:DCF91A01F347EA11A937BE7FF657B69C</stRef:documentID>
            <stRef:originalDocumentID>uuid:5D20892493BFDB11914A8590D31508C8</stRef:originalDocumentID>
            <stRef:renditionClass>proof:pdf</stRef:renditionClass>
         </xmpMM:DerivedFrom>
         <xmpMM:History>
            <rdf:Seq>
               <rdf:li rdf:parseType="Resource">
                  <stEvt:action>saved</stEvt:action>
                  <stEvt:instanceID>xmp.iid:809CA61CA539EA1196A8E01C4E493A69</stEvt:instanceID>
                  <stEvt:when>2020-01-18T12:46:30+09:00</stEvt:when>
                  <stEvt:softwareAgent>Adobe Illustrator CS6 (Windows)</stEvt:softwareAgent>
                  <stEvt:changed>/</stEvt:changed>
               </rdf:li>
               <rdf:li rdf:parseType="Resource">
                  <stEvt:action>saved</stEvt:action>
                  <stEvt:instanceID>xmp.iid:D8239AA2B54CEA1199D68A9015A78B9C</stEvt:instanceID>
                  <stEvt:when>2020-02-11T19:09:20+09:00</stEvt:when>
                  <stEvt:softwareAgent>Adobe Illustrator CS6 (Windows)</stEvt:softwareAgent>
                  <stEvt:changed>/</stEvt:changed>
               </rdf:li>
            </rdf:Seq>
         </xmpMM:History>
      </rdf:Description>
      <rdf:Description rdf:about=""
            xmlns:illustrator="http://ns.adobe.com/illustrator/1.0/">
         <illustrator:StartupProfile>Print</illustrator:StartupProfile>
      </rdf:Description>
      <rdf:Description rdf:about=""
            xmlns:xmpTPg="http://ns.adobe.com/xap/1.0/t/pg/"
            xmlns:stDim="http://ns.adobe.com/xap/1.0/sType/Dimensions#"
            xmlns:xmpG="http://ns.adobe.com/xap/1.0/g/">
         <xmpTPg:HasVisibleOverprint>False</xmpTPg:HasVisibleOverprint>
         <xmpTPg:HasVisibleTransparency>False</xmpTPg:HasVisibleTransparency>
         <xmpTPg:NPages>1</xmpTPg:NPages>
         <xmpTPg:MaxPageSize rdf:parseType="Resource">
            <stDim:w>280.000000</stDim:w>
            <stDim:h>280.000000</stDim:h>
            <stDim:unit>Pixels</stDim:unit>
         </xmpTPg:MaxPageSize>
         <xmpTPg:PlateNames>
            <rdf:Seq>
               <rdf:li>Cyan</rdf:li>
               <rdf:li>Magenta</rdf:li>
               <rdf:li>Yellow</rdf:li>
               <rdf:li>Black</rdf:li>
            </rdf:Seq>
         </xmpTPg:PlateNames>
         <xmpTPg:SwatchGroups>
            <rdf:Seq>
               <rdf:li rdf:parseType="Resource">
                  <xmpG:groupName>Default Swatch Group</xmpG:groupName>
                  <xmpG:groupType>0</xmpG:groupType>
                  <xmpG:Colorants>
                     <rdf:Seq>
                        <rdf:li rdf:parseType="Resource">
                           <xmpG:swatchName>White</xmpG:swatchName>
                           <xmpG:mode>RGB</xmpG:mode>
                           <xmpG:type>PROCESS</xmpG:type>
                           <xmpG:red>255</xmpG:red>
                           <xmpG:green>255</xmpG:green>
                           <xmpG:blue>255</xmpG:blue>
                        </rdf:li>
                        <rdf:li rdf:parseType="Resource">
                           <xmpG:swatchName>Black</xmpG:swatchName>
                           <xmpG:mode>RGB</xmpG:mode>
                           <xmpG:type>PROCESS</xmpG:type>
                           <xmpG:red>35</xmpG:red>
                           <xmpG:green>31</xmpG:green>
                           <xmpG:blue>32</xmpG:blue>
                        </rdf:li>
                        <rdf:li rdf:parseType="Resource">
                           <xmpG:swatchName>CMYK Red</xmpG:swatchName>
                           <xmpG:mode>RGB</xmpG:mode>
                           <xmpG:type>PROCESS</xmpG:type>
                           <xmpG:red>237</xmpG:red>
                           <xmpG:green>28</xmpG:green>
                           <xmpG:blue>36</xmpG:blue>
                        </rdf:li>
                        <rdf:li rdf:parseType="Resource">
                           <xmpG:swatchName>CMYK Yellow</xmpG:swatchName>
                           <xmpG:mode>RGB</xmpG:mode>
                           <xmpG:type>PROCESS</xmpG:type>
                           <xmpG:red>255</xmpG:red>
                           <xmpG:green>242</xmpG:green>
                           <xmpG:blue>0</xmpG:blue>
                        </rdf:li>
                        <rdf:li rdf:parseType="Resource">
                           <xmpG:swatchName>CMYK Green</xmpG:swatchName>
                           <xmpG:mode>RGB</xmpG:mode>
                           <xmpG:type>PROCESS</xmpG:type>
                           <xmpG:red>0</xmpG:red>
                           <xmpG:green>166</xmpG:green>
                           <xmpG:blue>81</xmpG:blue>
                        </rdf:li>
                        <rdf:li rdf:parseType="Resource">
                           <xmpG:swatchName>CMYK Cyan</xmpG:swatchName>
                           <xmpG:mode>RGB</xmpG:mode>
                           <xmpG:type>PROCESS</xmpG:type>
                           <xmpG:red>0</xmpG:red>
                           <xmpG:green>174</xmpG:green>
                           <xmpG:blue>239</xmpG:blue>
                        </rdf:li>
                        <rdf:li rdf:parseType="Resource">
                           <xmpG:swatchName>CMYK Blue</xmpG:swatchName>
                           <xmpG:mode>RGB</xmpG:mode>
                           <xmpG:type>PROCESS</xmpG:type>
                           <xmpG:red>46</xmpG:red>
                           <xmpG:green>49</xmpG:green>
                           <xmpG:blue>146</xmpG:blue>
                        </rdf:li>
                        <rdf:li rdf:parseType="Resource">
                           <xmpG:swatchName>CMYK Magenta</xmpG:swatchName>
                           <xmpG:mode>RGB</xmpG:mode>
                           <xmpG:type>PROCESS</xmpG:type>
                           <xmpG:red>236</xmpG:red>
                           <xmpG:green>0</xmpG:green>
                           <xmpG:blue>140</xmpG:blue>
                        </rdf:li>
                        <rdf:li rdf:parseType="Resource">
                           <xmpG:swatchName>C=15 M=100 Y=90 K=10</xmpG:swatchName>
                           <xmpG:mode>RGB</xmpG:mode>
                           <xmpG:type>PROCESS</xmpG:type>
                           <xmpG:red>190</xmpG:red>
                           <xmpG:green>30</xmpG:green>
                           <xmpG:blue>45</xmpG:blue>
                        </rdf:li>
                        <rdf:li rdf:parseType="Resource">
                           <xmpG:swatchName>C=0 M=90 Y=85 K=0</xmpG:swatchName>
                           <xmpG:mode>RGB</xmpG:mode>
                           <xmpG:type>PROCESS</xmpG:type>
                           <xmpG:red>239</xmpG:red>
                           <xmpG:green>65</xmpG:green>
                           <xmpG:blue>54</xmpG:blue>
                        </rdf:li>
                        <rdf:li rdf:parseType="Resource">
                           <xmpG:swatchName>C=0 M=80 Y=95 K=0</xmpG:swatchName>
                           <xmpG:mode>RGB</xmpG:mode>
                           <xmpG:type>PROCESS</xmpG:type>
                           <xmpG:red>241</xmpG:red>
                           <xmpG:green>90</xmpG:green>
                           <xmpG:blue>41</xmpG:blue>
                        </rdf:li>
                        <rdf:li rdf:parseType="Resource">
                           <xmpG:swatchName>C=0 M=50 Y=100 K=0</xmpG:swatchName>
                           <xmpG:mode>RGB</xmpG:mode>
                           <xmpG:type>PROCESS</xmpG:type>
                           <xmpG:red>247</xmpG:red>
                           <xmpG:green>148</xmpG:green>
                           <xmpG:blue>30</xmpG:blue>
                        </rdf:li>
                        <rdf:li rdf:parseType="Resource">
                           <xmpG:swatchName>C=0 M=35 Y=85 K=0</xmpG:swatchName>
                           <xmpG:mode>RGB</xmpG:mode>
                           <xmpG:type>PROCESS</xmpG:type>
                           <xmpG:red>251</xmpG:red>
                           <xmpG:green>176</xmpG:green>
                           <xmpG:blue>64</xmpG:blue>
                        </rdf:li>
                        <rdf:li rdf:parseType="Resource">
                           <xmpG:swatchName>C=5 M=0 Y=90 K=0</xmpG:swatchName>
                           <xmpG:mode>RGB</xmpG:mode>
                           <xmpG:type>PROCESS</xmpG:type>
                           <xmpG:red>249</xmpG:red>
                           <xmpG:green>237</xmpG:green>
                           <xmpG:blue>50</xmpG:blue>
                        </rdf:li>
                        <rdf:li rdf:parseType="Resource">
                           <xmpG:swatchName>C=20 M=0 Y=100 K=0</xmpG:swatchName>
                           <xmpG:mode>RGB</xmpG:mode>
                           <xmpG:type>PROCESS</xmpG:type>
                           <xmpG:red>215</xmpG:red>
                           <xmpG:green>223</xmpG:green>
                           <xmpG:blue>35</xmpG:blue>
                        </rdf:li>
                        <rdf:li rdf:parseType="Resource">
                           <xmpG:swatchName>C=50 M=0 Y=100 K=0</xmpG:swatchName>
                           <xmpG:mode>RGB</xmpG:mode>
                           <xmpG:type>PROCESS</xmpG:type>
                           <xmpG:red>141</xmpG:red>
                           <xmpG:green>198</xmpG:green>
                           <xmpG:blue>63</xmpG:blue>
                        </rdf:li>
                        <rdf:li rdf:parseType="Resource">
                           <xmpG:swatchName>C=75 M=0 Y=100 K=0</xmpG:swatchName>
                           <xmpG:mode>RGB</xmpG:mode>
                           <xmpG:type>PROCESS</xmpG:type>
                           <xmpG:red>57</xmpG:red>
                           <xmpG:green>181</xmpG:green>
                           <xmpG:blue>74</xmpG:blue>
                        </rdf:li>
                        <rdf:li rdf:parseType="Resource">
                           <xmpG:swatchName>C=85 M=10 Y=100 K=10</xmpG:swatchName>
                           <xmpG:mode>RGB</xmpG:mode>
                           <xmpG:type>PROCESS</xmpG:type>
                           <xmpG:red>0</xmpG:red>
                           <xmpG:green>148</xmpG:green>
                           <xmpG:blue>68</xmpG:blue>
                        </rdf:li>
                        <rdf:li rdf:parseType="Resource">
                           <xmpG:swatchName>C=90 M=30 Y=95 K=30</xmpG:swatchName>
                           <xmpG:mode>RGB</xmpG:mode>
                           <xmpG:type>PROCESS</xmpG:type>
                           <xmpG:red>0</xmpG:red>
                           <xmpG:green>104</xmpG:green>
                           <xmpG:blue>56</xmpG:blue>
                        </rdf:li>
                        <rdf:li rdf:parseType="Resource">
                           <xmpG:swatchName>C=75 M=0 Y=75 K=0</xmpG:swatchName>
                           <xmpG:mode>RGB</xmpG:mode>
                           <xmpG:type>PROCESS</xmpG:type>
                           <xmpG:red>43</xmpG:red>
                           <xmpG:green>182</xmpG:green>
                           <xmpG:blue>115</xmpG:blue>
                        </rdf:li>
                        <rdf:li rdf:parseType="Resource">
                           <xmpG:swatchName>C=80 M=10 Y=45 K=0</xmpG:swatchName>
                           <xmpG:mode>RGB</xmpG:mode>
                           <xmpG:type>PROCESS</xmpG:type>
                           <xmpG:red>0</xmpG:red>
                           <xmpG:green>167</xmpG:green>
                           <xmpG:blue>157</xmpG:blue>
                        </rdf:li>
                        <rdf:li rdf:parseType="Resource">
                           <xmpG:swatchName>C=70 M=15 Y=0 K=0</xmpG:swatchName>
                           <xmpG:mode>RGB</xmpG:mode>
                           <xmpG:type>PROCESS</xmpG:type>
                           <xmpG:red>39</xmpG:red>
                           <xmpG:green>170</xmpG:green>
                           <xmpG:blue>225</xmpG:blue>
                        </rdf:li>
                        <rdf:li rdf:parseType="Resource">
                           <xmpG:swatchName>C=85 M=50 Y=0 K=0</xmpG:swatchName>
                           <xmpG:mode>RGB</xmpG:mode>
                           <xmpG:type>PROCESS</xmpG:type>
                           <xmpG:red>28</xmpG:red>
                           <xmpG:green>117</xmpG:green>
                           <xmpG:blue>188</xmpG:blue>
                        </rdf:li>
                        <rdf:li rdf:parseType="Resource">
                           <xmpG:swatchName>C=100 M=95 Y=5 K=0</xmpG:swatchName>
                           <xmpG:mode>RGB</xmpG:mode>
                           <xmpG:type>PROCESS</xmpG:type>
                           <xmpG:red>43</xmpG:red>
                           <xmpG:green>57</xmpG:green>
                           <xmpG:blue>144</xmpG:blue>
                        </rdf:li>
                        <rdf:li rdf:parseType="Resource">
                           <xmpG:swatchName>C=100 M=100 Y=25 K=25</xmpG:swatchName>
                           <xmpG:mode>RGB</xmpG:mode>
                           <xmpG:type>PROCESS</xmpG:type>
                           <xmpG:red>38</xmpG:red>
                           <xmpG:green>34</xmpG:green>
                           <xmpG:blue>98</xmpG:blue>
                        </rdf:li>
                        <rdf:li rdf:parseType="Resource">
                           <xmpG:swatchName>C=75 M=100 Y=0 K=0</xmpG:swatchName>
                           <xmpG:mode>RGB</xmpG:mode>
                           <xmpG:type>PROCESS</xmpG:type>
                           <xmpG:red>102</xmpG:red>
                           <xmpG:green>45</xmpG:green>
                           <xmpG:blue>145</xmpG:blue>
                        </rdf:li>
                        <rdf:li rdf:parseType="Resource">
                           <xmpG:swatchName>C=50 M=100 Y=0 K=0</xmpG:swatchName>
                           <xmpG:mode>RGB</xmpG:mode>
                           <xmpG:type>PROCESS</xmpG:type>
                           <xmpG:red>146</xmpG:red>
                           <xmpG:green>39</xmpG:green>
                           <xmpG:blue>143</xmpG:blue>
                        </rdf:li>
                        <rdf:li rdf:parseType="Resource">
                           <xmpG:swatchName>C=35 M=100 Y=35 K=10</xmpG:swatchName>
                           <xmpG:mode>RGB</xmpG:mode>
                           <xmpG:type>PROCESS</xmpG:type>
                           <xmpG:red>158</xmpG:red>
                           <xmpG:green>31</xmpG:green>
                           <xmpG:blue>99</xmpG:blue>
                        </rdf:li>
                        <rdf:li rdf:parseType="Resource">
                           <xmpG:swatchName>C=10 M=100 Y=50 K=0</xmpG:swatchName>
                           <xmpG:mode>RGB</xmpG:mode>
                           <xmpG:type>PROCESS</xmpG:type>
                           <xmpG:red>218</xmpG:red>
                           <xmpG:green>28</xmpG:green>
                           <xmpG:blue>92</xmpG:blue>
                        </rdf:li>
                        <rdf:li rdf:parseType="Resource">
                           <xmpG:swatchName>C=0 M=95 Y=20 K=0</xmpG:swatchName>
                           <xmpG:mode>RGB</xmpG:mode>
                           <xmpG:type>PROCESS</xmpG:type>
                           <xmpG:red>238</xmpG:red>
                           <xmpG:green>42</xmpG:green>
                           <xmpG:blue>123</xmpG:blue>
                        </rdf:li>
                        <rdf:li rdf:parseType="Resource">
                           <xmpG:swatchName>C=25 M=25 Y=40 K=0</xmpG:swatchName>
                           <xmpG:mode>RGB</xmpG:mode>
                           <xmpG:type>PROCESS</xmpG:type>
                           <xmpG:red>194</xmpG:red>
                           <xmpG:green>181</xmpG:green>
                           <xmpG:blue>155</xmpG:blue>
                        </rdf:li>
                        <rdf:li rdf:parseType="Resource">
                           <xmpG:swatchName>C=40 M=45 Y=50 K=5</xmpG:swatchName>
                           <xmpG:mode>RGB</xmpG:mode>
                           <xmpG:type>PROCESS</xmpG:type>
                           <xmpG:red>155</xmpG:red>
                           <xmpG:green>133</xmpG:green>
                           <xmpG:blue>121</xmpG:blue>
                        </rdf:li>
                        <rdf:li rdf:parseType="Resource">
                           <xmpG:swatchName>C=50 M=50 Y=60 K=25</xmpG:swatchName>
                           <xmpG:mode>RGB</xmpG:mode>
                           <xmpG:type>PROCESS</xmpG:type>
                           <xmpG:red>114</xmpG:red>
                           <xmpG:green>102</xmpG:green>
                           <xmpG:blue>88</xmpG:blue>
                        </rdf:li>
                        <rdf:li rdf:parseType="Resource">
                           <xmpG:swatchName>C=55 M=60 Y=65 K=40</xmpG:swatchName>
                           <xmpG:mode>RGB</xmpG:mode>
                           <xmpG:type>PROCESS</xmpG:type>
                           <xmpG:red>89</xmpG:red>
                           <xmpG:green>74</xmpG:green>
                           <xmpG:blue>66</xmpG:blue>
                        </rdf:li>
                        <rdf:li rdf:parseType="Resource">
                           <xmpG:swatchName>C=25 M=40 Y=65 K=0</xmpG:swatchName>
                           <xmpG:mode>RGB</xmpG:mode>
                           <xmpG:type>PROCESS</xmpG:type>
                           <xmpG:red>196</xmpG:red>
                           <xmpG:green>154</xmpG:green>
                           <xmpG:blue>108</xmpG:blue>
                        </rdf:li>
                        <rdf:li rdf:parseType="Resource">
                           <xmpG:swatchName>C=30 M=50 Y=75 K=10</xmpG:swatchName>
                           <xmpG:mode>RGB</xmpG:mode>
                           <xmpG:type>PROCESS</xmpG:type>
                           <xmpG:red>169</xmpG:red>
                           <xmpG:green>124</xmpG:green>
                           <xmpG:blue>80</xmpG:blue>
                        </rdf:li>
                        <rdf:li rdf:parseType="Resource">
                           <xmpG:swatchName>C=35 M=60 Y=80 K=25</xmpG:swatchName>
                           <xmpG:mode>RGB</xmpG:mode>
                           <xmpG:type>PROCESS</xmpG:type>
                           <xmpG:red>139</xmpG:red>
                           <xmpG:green>94</xmpG:green>
                           <xmpG:blue>60</xmpG:blue>
                        </rdf:li>
                        <rdf:li rdf:parseType="Resource">
                           <xmpG:swatchName>C=40 M=65 Y=90 K=35</xmpG:swatchName>
                           <xmpG:mode>RGB</xmpG:mode>
                           <xmpG:type>PROCESS</xmpG:type>
                           <xmpG:red>117</xmpG:red>
                           <xmpG:green>76</xmpG:green>
                           <xmpG:blue>41</xmpG:blue>
                        </rdf:li>
                        <rdf:li rdf:parseType="Resource">
                           <xmpG:swatchName>C=40 M=70 Y=100 K=50</xmpG:swatchName>
                           <xmpG:mode>RGB</xmpG:mode>
                           <xmpG:type>PROCESS</xmpG:type>
                           <xmpG:red>96</xmpG:red>
                           <xmpG:green>57</xmpG:green>
                           <xmpG:blue>19</xmpG:blue>
                        </rdf:li>
                        <rdf:li rdf:parseType="Resource">
                           <xmpG:swatchName>C=50 M=70 Y=80 K=70</xmpG:swatchName>
                           <xmpG:mode>RGB</xmpG:mode>
                           <xmpG:type>PROCESS</xmpG:type>
                           <xmpG:red>60</xmpG:red>
                           <xmpG:green>36</xmpG:green>
                           <xmpG:blue>21</xmpG:blue>
                        </rdf:li>
                     </rdf:Seq>
                  </xmpG:Colorants>
               </rdf:li>
               <rdf:li rdf:parseType="Resource">
                  <xmpG:groupName>Grays</xmpG:groupName>
                  <xmpG:groupType>1</xmpG:groupType>
                  <xmpG:Colorants>
                     <rdf:Seq>
                        <rdf:li rdf:parseType="Resource">
                           <xmpG:swatchName>C=0 M=0 Y=0 K=100</xmpG:swatchName>
                           <xmpG:mode>RGB</xmpG:mode>
                           <xmpG:type>PROCESS</xmpG:type>
                           <xmpG:red>35</xmpG:red>
                           <xmpG:green>31</xmpG:green>
                           <xmpG:blue>32</xmpG:blue>
                        </rdf:li>
                        <rdf:li rdf:parseType="Resource">
                           <xmpG:swatchName>C=0 M=0 Y=0 K=90</xmpG:swatchName>
                           <xmpG:mode>RGB</xmpG:mode>
                           <xmpG:type>PROCESS</xmpG:type>
                           <xmpG:red>65</xmpG:red>
                           <xmpG:green>64</xmpG:green>
                           <xmpG:blue>66</xmpG:blue>
                        </rdf:li>
                        <rdf:li rdf:parseType="Resource">
                           <xmpG:swatchName>C=0 M=0 Y=0 K=80</xmpG:swatchName>
                           <xmpG:mode>RGB</xmpG:mode>
                           <xmpG:type>PROCESS</xmpG:type>
                           <xmpG:red>88</xmpG:red>
                           <xmpG:green>89</xmpG:green>
                           <xmpG:blue>91</xmpG:blue>
                        </rdf:li>
                        <rdf:li rdf:parseType="Resource">
                           <xmpG:swatchName>C=0 M=0 Y=0 K=70</xmpG:swatchName>
                           <xmpG:mode>RGB</xmpG:mode>
                           <xmpG:type>PROCESS</xmpG:type>
                           <xmpG:red>109</xmpG:red>
                           <xmpG:green>110</xmpG:green>
                           <xmpG:blue>113</xmpG:blue>
                        </rdf:li>
                        <rdf:li rdf:parseType="Resource">
                           <xmpG:swatchName>C=0 M=0 Y=0 K=60</xmpG:swatchName>
                           <xmpG:mode>RGB</xmpG:mode>
                           <xmpG:type>PROCESS</xmpG:type>
                           <xmpG:red>128</xmpG:red>
                           <xmpG:green>130</xmpG:green>
                           <xmpG:blue>133</xmpG:blue>
                        </rdf:li>
                        <rdf:li rdf:parseType="Resource">
                           <xmpG:swatchName>C=0 M=0 Y=0 K=50</xmpG:swatchName>
                           <xmpG:mode>RGB</xmpG:mode>
                           <xmpG:type>PROCESS</xmpG:type>
                           <xmpG:red>147</xmpG:red>
                           <xmpG:green>149</xmpG:green>
                           <xmpG:blue>152</xmpG:blue>
                        </rdf:li>
                        <rdf:li rdf:parseType="Resource">
                           <xmpG:swatchName>C=0 M=0 Y=0 K=40</xmpG:swatchName>
                           <xmpG:mode>RGB</xmpG:mode>
                           <xmpG:type>PROCESS</xmpG:type>
                           <xmpG:red>167</xmpG:red>
                           <xmpG:green>169</xmpG:green>
                           <xmpG:blue>172</xmpG:blue>
                        </rdf:li>
                        <rdf:li rdf:parseType="Resource">
                           <xmpG:swatchName>C=0 M=0 Y=0 K=30</xmpG:swatchName>
                           <xmpG:mode>RGB</xmpG:mode>
                           <xmpG:type>PROCESS</xmpG:type>
                           <xmpG:red>188</xmpG:red>
                           <xmpG:green>190</xmpG:green>
                           <xmpG:blue>192</xmpG:blue>
                        </rdf:li>
                        <rdf:li rdf:parseType="Resource">
                           <xmpG:swatchName>C=0 M=0 Y=0 K=20</xmpG:swatchName>
                           <xmpG:mode>RGB</xmpG:mode>
                           <xmpG:type>PROCESS</xmpG:type>
                           <xmpG:red>209</xmpG:red>
                           <xmpG:green>211</xmpG:green>
                           <xmpG:blue>212</xmpG:blue>
                        </rdf:li>
                        <rdf:li rdf:parseType="Resource">
                           <xmpG:swatchName>C=0 M=0 Y=0 K=10</xmpG:swatchName>
                           <xmpG:mode>RGB</xmpG:mode>
                           <xmpG:type>PROCESS</xmpG:type>
                           <xmpG:red>230</xmpG:red>
                           <xmpG:green>231</xmpG:green>
                           <xmpG:blue>232</xmpG:blue>
                        </rdf:li>
                        <rdf:li rdf:parseType="Resource">
                           <xmpG:swatchName>C=0 M=0 Y=0 K=5</xmpG:swatchName>
                           <xmpG:mode>RGB</xmpG:mode>
                           <xmpG:type>PROCESS</xmpG:type>
                           <xmpG:red>241</xmpG:red>
                           <xmpG:green>242</xmpG:green>
                           <xmpG:blue>242</xmpG:blue>
                        </rdf:li>
                     </rdf:Seq>
                  </xmpG:Colorants>
               </rdf:li>
               <rdf:li rdf:parseType="Resource">
                  <xmpG:groupName>Brights</xmpG:groupName>
                  <xmpG:groupType>1</xmpG:groupType>
                  <xmpG:Colorants>
                     <rdf:Seq>
                        <rdf:li rdf:parseType="Resource">
                           <xmpG:swatchName>C=0 M=100 Y=100 K=0</xmpG:swatchName>
                           <xmpG:mode>RGB</xmpG:mode>
                           <xmpG:type>PROCESS</xmpG:type>
                           <xmpG:red>237</xmpG:red>
                           <xmpG:green>28</xmpG:green>
                           <xmpG:blue>36</xmpG:blue>
                        </rdf:li>
                        <rdf:li rdf:parseType="Resource">
                           <xmpG:swatchName>C=0 M=75 Y=100 K=0</xmpG:swatchName>
                           <xmpG:mode>RGB</xmpG:mode>
                           <xmpG:type>PROCESS</xmpG:type>
                           <xmpG:red>242</xmpG:red>
                           <xmpG:green>101</xmpG:green>
                           <xmpG:blue>34</xmpG:blue>
                        </rdf:li>
                        <rdf:li rdf:parseType="Resource">
                           <xmpG:swatchName>C=0 M=10 Y=95 K=0</xmpG:swatchName>
                           <xmpG:mode>RGB</xmpG:mode>
                           <xmpG:type>PROCESS</xmpG:type>
                           <xmpG:red>255</xmpG:red>
                           <xmpG:green>222</xmpG:green>
                           <xmpG:blue>23</xmpG:blue>
                        </rdf:li>
                        <rdf:li rdf:parseType="Resource">
                           <xmpG:swatchName>C=85 M=10 Y=100 K=0</xmpG:swatchName>
                           <xmpG:mode>RGB</xmpG:mode>
                           <xmpG:type>PROCESS</xmpG:type>
                           <xmpG:red>0</xmpG:red>
                           <xmpG:green>161</xmpG:green>
                           <xmpG:blue>75</xmpG:blue>
                        </rdf:li>
                        <rdf:li rdf:parseType="Resource">
                           <xmpG:swatchName>C=100 M=90 Y=0 K=0</xmpG:swatchName>
                           <xmpG:mode>RGB</xmpG:mode>
                           <xmpG:type>PROCESS</xmpG:type>
                           <xmpG:red>33</xmpG:red>
                           <xmpG:green>64</xmpG:green>
                           <xmpG:blue>154</xmpG:blue>
                        </rdf:li>
                        <rdf:li rdf:parseType="Resource">
                           <xmpG:swatchName>C=60 M=90 Y=0 K=0</xmpG:swatchName>
                           <xmpG:mode>RGB</xmpG:mode>
                           <xmpG:type>PROCESS</xmpG:type>
                           <xmpG:red>127</xmpG:red>
                           <xmpG:green>63</xmpG:green>
                           <xmpG:blue>152</xmpG:blue>
                        </rdf:li>
                     </rdf:Seq>
                  </xmpG:Colorants>
               </rdf:li>
            </rdf:Seq>
         </xmpTPg:SwatchGroups>
      </rdf:Description>
      <rdf:Description rdf:about=""
            xmlns:pdf="http://ns.adobe.com/pdf/1.3/">
         <pdf:Producer>Adobe PDF library 10.01</pdf:Producer>
      </rdf:Description>
   </rdf:RDF>
</x:xmpmeta>
                                                                                                    
                                                                                                    
                                                                                                    
                                                                                                    
                                                                                                    
                                                                                                    
                                                                                                    
                                                                                                    
                                                                                                    
                                                                                                    
                                                                                                    
                                                                                                    
                                                                                                    
                                                                                                    
                                                                                                    
                                                                                                    
                                                                                                    
                                                                                                    
                                                                                                    
                                                                                                    
                           
<?xpacket end="w"?>
	</metadata>
<g>
	<g>
		<path style="fill:#3A3A3A;" d="M147.1,258.2c0,0,2.5,3.5,9.9,4.1c7.4,0.5,4.9,8.3,4.9,8.3s-9.3,1.4-14.9,0.7
			c-5.5-0.7-10.9,0.5-15.7-1c0,0-1.9-8.3,2.5-14.5C133.9,255.7,144.7,256.3,147.1,258.2z"/>
		<path style="fill:#4C4C4C;" d="M142.2,268.8c-5.1-0.1-9.3-0.8-11.1-1.2c0.1,1.6,0.3,2.6,0.3,2.6c4.8,1.5,10.2,0.3,15.7,1
			c5.5,0.7,14.9-0.7,14.9-0.7s0.3-0.9,0.4-2.1C154,270,148.5,269,142.2,268.8z"/>
	</g>
	<path style="fill:#F5F6F7;" d="M126.5,185.8c0,0-2.5,5.3,2.1,18.1c4.7,12.8,3.9,18.7,4.2,21.7c0.2,3-2.6,22.1-1.4,33.7
		c0,0,8.6,1.7,16.7-0.4c0,0,0.5-24.4,1.5-33.1c1-8.6,3.4-34.7,6.5-39.3L126.5,185.8z"/>
</g>
<g>
	<path style="fill:#855243;" d="M184.3,82.6c0,0,7.4-11.6-2.8-28.2s-45.5-24.6-64.2-6.6c0,0-12.7-2.8-17.7,26.3
		C96,95.6,101,101,101,101s0.3-4.5,1.3-7c0,0,1,12.4,9,17.8l1-2.6c0,0,3.1,9.4,10.9,13.4l1.7-2.6c0,0,2.2,7.7,12.5,2.6
		c0,0-0.9-52.8,39.7-46.3L184.3,82.6z"/>
	<g>
		<path style="fill:#683C32;" d="M181.5,60.7c-1,7.4-4.9,12.3-8.1,15.1c1.2,0.1,2.4,0.2,3.7,0.4l7.2,6.3c0,0,1.3-2.1,2.1-5.7
			C187.5,67.7,181.5,60.7,181.5,60.7z"/>
		<path style="fill:#683C32;" d="M170.9,75.7c3.3-6.6,2.6-11,2.6-11c-3.5,7.7-12,11.8-12,11.8c3.5-6.2,3.5-10.2,3.5-10.2
			c-23.8,8-27,29.4-27.2,32.5c-3.9,0.6-7.8-0.9-13.8-7c0,0-7.2,8.4-2.6,16.4c4.2,7.3,0.4,13.1-2.7,10.9c1.3,1.2,2.7,2.4,4.5,3.3
			l1.7-2.6c0,0,2.2,7.7,12.5,2.6C137.3,122.5,136.5,75.3,170.9,75.7z"/>
		<path style="fill:#683C32;" d="M185.2,62c-0.8-2.4-2-4.9-3.7-7.6c-10.2-16.6-45.5-24.6-64.2-6.6c0,0-11.5-2.6-16.9,22.2
			C109.9,68.2,149.4,61.1,185.2,62z"/>
		<path style="fill:#936054;" d="M113.3,72.7c0,0-9.3,7.3-3,29.8C110.3,102.5,107.6,87.7,113.3,72.7z"/>
		<path style="fill:#936054;" d="M127,68.7c0,0-10.2,5-11.3,26.8C115.7,95.6,120.4,76.1,127,68.7z"/>
	</g>
</g>
<g>
	<path style="fill:#FFE5C2;" d="M182.9,88.1c-1.3,4.2-0.2,6.8,3.5,7.6c3.6,0.8,1.9,4.6,0,5.5c-1.9,1-2.1,2.5-2.1,2.5
		c-2.7,23.8-25.5,18.7-29.9,18.8c-4.4,0.2-4,4.9-4,4.9l-15.7-4.8c0.2-0.5,0.4-1,0.6-1.4c1.2-7.8-0.5-11.1-0.5-11.1
		c-0.7-1.5-0.8-3-0.8-3c-11.6-1-15.2-11.2-10.1-15.4c2.5-2.1,5.7-2.2,8.5-0.5c2.5,1.5,3.5,4.3,5.8,6c1,0.8,3,0.9,3,1
		c0,0-2.3-7.8,4.2-15.3s14.6-13.7,18.3-15.4c0,0,1.2,2.8-1.3,6.5c0,0,8-3.3,10.4-6.5c0,0,0,3.6-1.6,6.3c0,0,8.3-7.2,10.2-11.7
		C181.5,62.2,188.1,70.8,182.9,88.1z"/>
	<path style="fill:#FFC49C;" d="M129.8,97.6C129.8,97.6,129.9,97.6,129.8,97.6c0.6-0.1,1.1,0.1,1.6,0.3c-0.4-0.6-0.8-1.1-1.3-1.4
		c-1.2-0.8-2.3-0.5-2.4-0.5c-0.3,0.1-0.5-0.1-0.6-0.3c-0.1-0.3,0.1-0.5,0.3-0.6c0.1,0,1.5-0.4,3.1,0.6c1.2,0.8,2.1,2.1,2.7,4
		c0,0,0,0,0,0.1c0.3,0.9,0.5,1.9,0.7,3.1c0,0.3-0.2,0.5-0.4,0.5c-0.3,0-0.5-0.2-0.5-0.4c-0.1-1.1-0.4-2.1-0.6-2.9
		c-0.8-1-1.6-1.5-2.3-1.5c0,0,0,0,0,0c-0.9,0.1-1.4,1.1-1.4,1.2c-0.1,0.2-0.4,0.3-0.7,0.2c-0.2-0.1-0.3-0.4-0.2-0.7
		C127.7,99.3,128.4,97.8,129.8,97.6z"/>
</g>
<g>
	<path style="fill:#EF8965;" d="M182.9,109.3c-6.6,1.2-8-1.6-8.1-1.6c-0.2-0.4-0.6-0.5-0.9-0.4c-0.4,0.2-0.5,0.6-0.4,0.9
		c0.1,0.1,1.2,2.8,6.3,2.8c0.8,0,1.8-0.1,2.9-0.3c0.2-0.5,0.3-0.9,0.5-1.4C183.1,109.3,183,109.2,182.9,109.3z"/>
	<path style="fill:#FFC49C;" d="M181.2,113.4c-2.2,0.3-3.3-0.7-3.4-0.7c-0.2-0.2-0.5-0.2-0.7,0c-0.2,0.2-0.2,0.5,0,0.7
		c0.1,0,1.1,1,3.2,1c0.2,0,0.4,0,0.6,0c0.2-0.3,0.3-0.6,0.5-0.9C181.4,113.4,181.3,113.4,181.2,113.4z"/>
	<path style="fill:#845941;" d="M175.8,78.4c-0.3-0.4-1.6-1.7-4.6-1.8c-1.1,0-2.4,0.1-3.7,0.4c-3.2,0.7-5.4,3-5.5,3.1
		c-0.1,0.1-0.1,0.2-0.1,0.3c0,0.1,0.1,0.3,0.2,0.3c0.1,0.1,0.2,0.1,0.4,0.1c0.1,0,0.2,0,0.3-0.1c0,0,2.8-1.5,6.3-2
		c0.9-0.1,1.9-0.2,2.7-0.2c1.2,0,2.4,0.2,3.4,0.5c0.1,0,0.1,0,0.2,0c0,0,0.1,0,0.1,0c0.3,0,0.5-0.2,0.5-0.5
		C176,78.6,175.9,78.5,175.8,78.4z"/>
	<g>
		<path style="fill:#845941;" d="M174.3,86.7c-0.6-1.5-1.4-3.1-3-3.8c-2.2-1-4.4,0.2-5.7,1.5c-0.8,0.8-1.5,1.7-2,2.7
			c-0.2,0.4-1.5,3.1-0.5,6.4c0.5,0.1,1-0.3,1.5-0.3c3.2,0,9.5-4.9,9.8-5.2c0.1-0.1,0.1-0.1,0.1-0.2
			C174.5,87.4,174.4,87.1,174.3,86.7z"/>
		<path style="fill-rule:evenodd;clip-rule:evenodd;fill:#FFFFFF;" d="M163.4,92.5c0,4.7,2.5,8,6.1,8.5c3.6,0.5,5.4-3.5,5.6-8.3
			c0.3-4.8-1.6-8.9-4.8-9.2C167.7,83.2,163.4,87.5,163.4,92.5z"/>
		<path style="fill-rule:evenodd;clip-rule:evenodd;fill:#895F47;" d="M166.9,91.9c0,3.1,1.1,6.3,4.6,6.1c3-0.2,3.6-3.1,3.6-6.8
			c0-3.8-1.5-6.8-3.7-6.8C169.4,84.4,166.8,87.4,166.9,91.9z"/>
		<path style="fill-rule:evenodd;clip-rule:evenodd;fill:#3F2618;" d="M170.3,91.9c0.2,2.2,0.9,3.9,2.7,3.7c1.3-0.2,2-2.1,1.8-4.3
			c-0.2-2.2-1.1-3.9-2.4-3.7C171.2,87.7,170.1,89.7,170.3,91.9z"/>
		<ellipse style="fill-rule:evenodd;clip-rule:evenodd;fill:#FFFFFF;" cx="169.8" cy="89.4" rx="1.4" ry="1.6"/>
	</g>
</g>
<g>
	<path style="fill:#F5F6F7;" d="M184.6,17.7c-10.7-11.6-25.4-2.1-25.4-2.1s-4.1-7.9-20.5-6.9l0-0.1c-0.4,0.1-0.9,0.1-1.3,0.2
		c-0.4,0-0.9,0.1-1.3,0.1l0,0.1c-16.2,2.7-18.4,11.4-18.4,11.4s-16.5-5.9-24.3,7.8c-8.3,14.6,7.6,20.5,7.6,20.5l1.7,14.5
		c12.9-3.6,29.3-6.2,40.1-7.7c10.8-1,27.4-2.2,40.8-1.7l-1.7-14.5C181.8,39.4,195.9,29.9,184.6,17.7z"/>
	<g>
		<path style="fill:#D9DADB;" d="M123.3,38.6c-0.2-0.2-0.4-0.2-0.6,0s-0.3,0.4-0.1,0.6c0.1,0.1,6.1,13,6.8,17.2
			c0,0.3,0.3,0.4,0.6,0.4l2-0.2c0.2,0,0.3-0.1,0.4-0.2c0.1-0.1,0.1-0.3,0-0.4C132.1,55.4,127.7,42.5,123.3,38.6z"/>
		<path style="fill:#D9DADB;" d="M159.2,34.5c0.1-0.2,0.4-0.3,0.6-0.2c0.2,0.1,0.3,0.3,0.3,0.6c0,0.1-3,14-2.7,18.3
			c0,0.3-0.2,0.5-0.4,0.5l-2,0.2c-0.2,0-0.3,0-0.4-0.1c-0.1-0.1-0.2-0.3-0.1-0.4C154.4,52.8,155.7,39.2,159.2,34.5z"/>
	</g>
	<path style="fill:#D9DADB;" d="M100.4,66.7c0,0,45.3-8.5,84.7-7.4c0,0-0.2-4.1-0.7-6.9c0,0-29.2-3.2-84,7.2V66.7z"/>
</g>
<g>
	<path style="fill:#F5F6F7;" d="M134,123.1c0,0-5.4,5.1-8,12c-4.2,11.1-2.8,18.8-1.6,29.1c1.4,12.2-0.8,16.8,0.8,23.6
		c0,0,11.3,6.4,34.4,2.4c0,0-1.1-26.3-0.6-34.2c0.5-7.9-0.6-23.3-10.1-30.2L134,123.1z"/>
	<path style="fill:#E4E7EA;" d="M132.7,124.1l1.2-4.1c0,0,12.6,1.9,17.7,5.2l1.1,4.4C152.7,129.6,142.6,124.7,132.7,124.1z"/>
	<g>
		
			<ellipse transform="matrix(0.9569 -0.2905 0.2905 0.9569 -33.4585 51.4039)" style="fill:#D9DADB;" cx="156.4" cy="138.4" rx="0.9" ry="1.7"/>
		<ellipse style="fill:#D9DADB;" cx="158.2" cy="155.6" rx="0.9" ry="1.7"/>
		<ellipse style="fill:#D9DADB;" cx="158.2" cy="175.6" rx="0.9" ry="1.7"/>
	</g>
	<g>
		
			<ellipse transform="matrix(0.9569 -0.2905 0.2905 0.9569 -33.6633 50.0242)" style="fill:#D9DADB;" cx="151.7" cy="138.4" rx="0.9" ry="1.7"/>
		<ellipse style="fill:#D9DADB;" cx="153.5" cy="155.6" rx="0.9" ry="1.7"/>
		<ellipse style="fill:#D9DADB;" cx="153.5" cy="175.6" rx="0.9" ry="1.7"/>
	</g>
</g>
<g>
	<path style="fill:#2F3344;" d="M124.5,185.5c0,0-5.6,32.3-7.2,37.5c0,0,1.7,1.9,6.2,2.2C123.5,225.2,125.2,195.8,124.5,185.5z"/>
	<g>
		<path style="fill:#161A28;" d="M124.8,185.5c0,0-1.7-4.4-5.7-6.2l-2.4,4.4c0,0,4.5,0.3,7.7,3.7L124.8,185.5z"/>
		<path style="fill:#161A28;" d="M124.6,186.4c0,0-6.6,0-8.8,3.4l2.4,2.8c0,0,1.1-2.3,6.7-5.1L124.6,186.4z"/>
		<path style="fill:#161A28;" d="M124.4,187.4c0,0-5.5,7.2-8.6,22.7l5,1.1l5.2-23.8H124.4z"/>
	</g>
	<path style="fill:#23273A;" d="M124.8,182.3c0,0,14.8,5.3,34.9,1c0,0,0.1,10.7,0,23s1.8,21.5,1.8,21.5s-23.7,6.5-40.7-0.3
		L124.8,182.3z"/>
	<path style="fill:#161A28;" d="M124.8,182.3l-0.4,5.1c6.3,1.1,22.2,3.4,35.3,0.2c0-2.7,0-4.4,0-4.4
		C139.6,187.6,124.8,182.3,124.8,182.3z"/>
</g>
<g>
	<g>
		<path style="fill:#FFE5C2;" d="M145.8,194.7c0,0,2.8,3.9,4.4,5.6c1.6,1.7,1.6,5.9-4.3,1.9c0,0,3,10.1-3.3,11.2
			c-6.3,1-9.6-8.3-6.6-18.5L145.8,194.7z"/>
		<g>
			<path style="fill:#FFC49C;" d="M138.3,206.6c0-0.3-0.2-0.5-0.4-0.5c-0.2,0-0.5,0.2-0.5,0.4c-0.1,2,0.7,4.1,1.4,5.9
				c0.4,0.3,0.8,0.5,1.2,0.6c-0.1-0.2-0.2-0.4-0.2-0.6C139,210.6,138.1,208.6,138.3,206.6z"/>
			<path style="fill:#FFC49C;" d="M141.1,206.7c0-0.3-0.2-0.5-0.4-0.5c-0.3,0-0.5,0.2-0.5,0.4c-0.1,2.2,0.9,4.7,1.8,6.7
				c0.2,0,0.4,0,0.7-0.1c0.1,0,0.2,0,0.3-0.1C142,211.3,141,208.8,141.1,206.7z"/>
			<path style="fill:#FFC49C;" d="M142.7,205.9c0.1,0.3,0.2,0.6,0.3,1c0.4,1.8,1,4,1.9,5.3c0.2-0.2,0.4-0.4,0.6-0.7
				c-0.8-1.2-1.3-3.3-1.7-4.8c-0.1-0.4-0.2-0.7-0.3-1c-0.1-0.2-0.3-0.4-0.6-0.3C142.8,205.4,142.7,205.7,142.7,205.9z"/>
		</g>
	</g>
	<path style="fill:#E6E7E8;" d="M145.9,142.7c0,0-0.3-7.8-6.4-7.6c-6.1,0.2-7.1,11.6-7.4,20.4c-0.4,8.8,1.1,36.3,1.8,42.3
		c0,0,8.1,1.4,14.7-1.2c0,0-2.5-26.8-2.5-36.3C146,150.8,145.9,142.7,145.9,142.7z"/>
</g>
</svg>
