<?xml version="1.0" encoding="utf-8"?>
<!-- Generator: Adobe Illustrator 26.5.0, SVG Export Plug-In . SVG Version: 6.00 Build 0)  -->
<svg version="1.1" id="레이어_1" xmlns="http://www.w3.org/2000/svg" xmlns:xlink="http://www.w3.org/1999/xlink" x="0px"
	 y="0px" viewBox="0 0 390 390" style="enable-background:new 0 0 390 390;" xml:space="preserve">
<style type="text/css">
	.st0{fill:#9D7460;}
	.st1{fill:#262626;}
	.st2{fill-rule:evenodd;clip-rule:evenodd;fill:#8F6C59;}
	.st3{fill:#FFFFFF;}
	.st4{fill:#D6CAC4;}
	.st5{fill:#474747;}
	.st6{fill:#6C9F4D;}
	.st7{fill:#AEFF7B;}
	.st8{fill:#00C63D;}
	.st9{fill:#00AE6B;}
</style>
<g>
	<g>
		<path class="st0" d="M246.9,243.5c1.1,0.3,1.9,18.2,2,19.6c1.2,11.5,7.1,27.6,8.4,39.1c0.7,5.7,2.8,13,2.3,18.6
			c-1.4,16-0.5,27.7,0.2,43.7c4.2,0.9,8.4,1.4,12.7,1.4c0.4,0,0.8,0,1.1-0.3c0.4-0.3,0.4-0.8,0.5-1.3c0.8-11.5,1.6-18.3,2.3-29.7
			c0.7-9.9,2.1-20,1.9-29.9c-0.4-15,0.6-46,0.1-61c-0.1-1.7-0.1-3.4-0.2-5.2C278.3,238.6,247,243.5,246.9,243.5z"/>
		<path d="M272.4,367.3c-4.3,0-8.6-0.5-12.8-1.4c-0.6-0.1-1-0.6-1-1.2c-0.1-2-0.2-3.9-0.3-5.8c-0.7-13.4-1.2-24,0.1-38.1
			c0.3-3.5-0.5-7.9-1.3-12.1c-0.4-2.2-0.8-4.4-1-6.3c-0.6-5.5-2.4-12.4-4.1-19c-1.8-7-3.7-14.2-4.3-20.1c0-0.3-0.1-1.1-0.2-2.6
			c-0.2-3.6-0.9-14.5-1.5-16.3c-0.3-0.3-0.4-0.8-0.3-1.2c0.1-0.5,0.6-0.9,1.1-0.9c0.9-0.1,20.8-3.2,31.3-4.9c0.4-0.1,0.7,0,1,0.3
			c0.3,0.2,0.4,0.6,0.5,0.9l0.2,5.2c0.2,7.5,0.1,19.3-0.1,30.6c-0.1,11.3-0.3,23-0.1,30.5c0.2,6.9-0.4,13.9-1.1,20.8
			c-0.3,3-0.6,6.2-0.8,9.2c-0.4,5.7-0.8,10.4-1.2,14.9c-0.4,4.5-0.8,9.1-1.2,14.8c0,0.5-0.1,1.5-0.9,2.2c-0.7,0.5-1.4,0.5-1.9,0.5
			C272.5,367.3,272.5,367.3,272.4,367.3z M261.1,363.6c3.7,0.8,7.5,1.2,11.3,1.2c0.1,0,0.2,0,0.4,0c0-0.1,0-0.2,0-0.4
			c0.4-5.7,0.8-10.4,1.2-14.9c0.4-4.5,0.8-9.1,1.2-14.9c0.2-3.1,0.5-6.2,0.8-9.3c0.6-6.8,1.3-13.7,1.1-20.5
			c-0.2-7.5-0.1-19.2,0.1-30.6c0.1-11.3,0.3-23,0.1-30.5l-0.1-3.7c-18.4,2.9-25.6,4-28.4,4.4c0.4,2.2,0.9,6.7,1.4,16
			c0.1,1.2,0.1,2.2,0.2,2.5c0.6,5.7,2.4,12.9,4.2,19.7c1.7,6.7,3.5,13.6,4.2,19.3c0.2,1.9,0.6,4,1,6.1c0.8,4.4,1.7,8.9,1.3,12.7
			c-1.2,13.9-0.7,24.4-0.1,37.7C261,360.3,261,361.9,261.1,363.6z M246.6,244.8C246.6,244.8,246.6,244.8,246.6,244.8
			C246.6,244.8,246.6,244.8,246.6,244.8z"/>
	</g>
	<g>
		<path class="st1" d="M280.1,378.2c0-2-0.3-4-1.2-5.9c-1.5-3.2-3.3-6.2-5.4-9c-4.1-1.6-8.6-2.4-13.1-2.2
			c-4.7,6.3-7.9,14.3-8.2,22.2c0,0.5,22.6,0.9,24.1,1c0.9,0,3.1-0.1,3.6-0.8C280.6,382.7,280.1,379.3,280.1,378.2z"/>
		<path d="M276.7,385.5c-0.1,0-0.2,0-0.3,0l-0.2,0c-23.9-0.4-24.3-0.8-24.8-1.3c-0.2-0.2-0.4-0.6-0.4-0.9c0.3-7.9,3.4-16.2,8.4-22.9
			c0.2-0.3,0.6-0.5,0.9-0.5c4.6-0.2,9.3,0.6,13.6,2.2c0.2,0.1,0.4,0.2,0.5,0.4c2.2,2.8,4,5.9,5.6,9.3c1.1,2.3,1.2,4.7,1.3,6.4
			c0,0,0,0,0,0c0,0.2,0,0.6,0.1,1c0.2,2.4,0.3,4.1-0.4,5C280.2,385.4,277.8,385.5,276.7,385.5z M253.6,382.2
			c2.7,0.2,11.2,0.5,22.6,0.7l0.2,0c1,0,2.1-0.2,2.5-0.3c0.2-0.7,0-2.5-0.1-3.3c0-0.5-0.1-0.9-0.1-1.1c-0.1-2.3-0.4-3.9-1.1-5.4
			c-1.4-3-3.1-5.9-5-8.5c-3.7-1.4-7.7-2.1-11.6-2C256.8,368.2,254.1,375.4,253.6,382.2z M279,382.8L279,382.8L279,382.8z"/>
	</g>
</g>
<g>
	<g>
		<path class="st0" d="M141.8,248.2c1.1,0.3,1.9,18.2,2,19.6c1.2,11.5,2.4,23,3.7,34.4c0.7,5.7,2.8,13,2.3,18.6
			c-1.4,16-0.5,27.7,0.2,43.7c4.2,0.9,8.4,1.4,12.7,1.4c0.4,0,0.8,0,1.1-0.3c0.4-0.3,0.4-0.8,0.5-1.3c0.8-11.5,1.6-18.3,2.3-29.7
			c0.7-9.9,2.1-20,1.9-29.9c-0.4-15-0.9-30-1.3-45c-0.1-1.7-0.1-3.4-0.2-5.2C167,254.6,141.8,248.2,141.8,248.2z"/>
		<path d="M162.6,367.3c-4.3,0-8.6-0.5-12.8-1.4c-0.6-0.1-1-0.6-1-1.2c-0.1-2-0.2-4-0.3-5.8c-0.7-13.4-1.2-24,0.1-38.1
			c0.3-3.5-0.5-7.9-1.3-12.1c-0.4-2.2-0.8-4.4-1-6.3c-1.4-11.9-2.7-24.4-3.7-34.4c0-0.3-0.1-1.1-0.2-2.6c-0.2-3.6-0.9-14.5-1.5-16.3
			c-0.3-0.3-0.4-0.7-0.3-1.2c0.2-0.7,0.8-1.1,1.5-0.9c0,0,0,0,0,0l0,0c0,0,0,0,0.1,0c0.4,0.1,3.4,0.9,25.2,6.4
			c0.5,0.1,0.9,0.6,0.9,1.2l1.5,50.2c0.2,6.9-0.5,13.9-1.1,20.8c-0.3,3-0.6,6.2-0.8,9.2c-0.4,5.7-0.8,10.4-1.2,14.9
			c-0.4,4.5-0.8,9.1-1.2,14.8c0,0.5-0.1,1.5-0.9,2.2c-0.7,0.5-1.4,0.5-1.9,0.5C162.7,367.3,162.7,367.3,162.6,367.3z M151.3,363.6
			c3.8,0.8,7.6,1.2,11.5,1.2c0,0,0.2,0,0.3,0c0-0.1,0-0.2,0-0.4c0.4-5.7,0.8-10.4,1.2-14.9c0.4-4.5,0.8-9.1,1.2-14.8
			c0.2-3.1,0.5-6.2,0.8-9.3c0.6-6.8,1.3-13.7,1.1-20.5l-1.4-49.2c-3.6-0.9-16.9-4.3-22.2-5.7c0.4,2.4,0.8,6.9,1.3,15.2
			c0.1,1.2,0.1,2.2,0.2,2.5c1,10,2.3,22.5,3.7,34.4c0.2,1.9,0.6,4,1,6.1c0.8,4.4,1.7,8.9,1.3,12.7c-1.2,13.9-0.7,24.4-0.1,37.7
			C151.1,360.3,151.2,361.9,151.3,363.6z M163.2,364.7L163.2,364.7L163.2,364.7z M141.5,249.4L141.5,249.4L141.5,249.4z
			 M141.5,249.4L141.5,249.4C141.5,249.4,141.5,249.4,141.5,249.4z"/>
	</g>
	<g>
		<path class="st1" d="M170.3,378.2c0-2-0.3-4-1.2-5.9c-1.5-3.2-3.3-6.2-5.4-9c-4.1-1.6-8.6-2.4-13.1-2.2
			c-4.7,6.3-10.2,14.3-10.5,22.2c0,0.5,24.9,0.9,26.4,1c0.9,0,3.1-0.1,3.6-0.8C170.8,382.7,170.3,379.3,170.3,378.2z"/>
		<path d="M166.8,385.5c-0.1,0-0.2,0-0.3,0l-0.5,0c-26-0.5-26.3-0.8-26.8-1.3c-0.2-0.2-0.4-0.6-0.4-0.9c0.3-8.1,5.6-16.1,10.7-22.9
			c0.2-0.3,0.6-0.5,0.9-0.5c4.6-0.2,9.3,0.6,13.6,2.2c0.2,0.1,0.4,0.2,0.5,0.4c2.2,2.8,4,5.9,5.6,9.3c1.1,2.3,1.2,4.7,1.3,6.4v0
			c0,0.2,0,0.6,0.1,1c0.2,2.4,0.3,4.1-0.4,5C170.3,385.4,168,385.5,166.8,385.5z M141.5,382.2c2.5,0.2,9.9,0.5,24.6,0.7l0.5,0
			c1,0,2.1-0.2,2.5-0.3c0.2-0.7,0-2.5-0.1-3.3c0-0.5-0.1-0.9-0.1-1.1l0,0c-0.1-2.3-0.4-3.9-1.1-5.4c-1.4-3-3.1-5.9-5-8.5
			c-3.7-1.4-7.7-2.1-11.6-2C146.8,368.4,142.2,375.4,141.5,382.2z M169.1,382.8L169.1,382.8L169.1,382.8z M169.1,382.8L169.1,382.8
			L169.1,382.8L169.1,382.8z M169.3,382.6C169.3,382.6,169.3,382.6,169.3,382.6S169.3,382.6,169.3,382.6z"/>
	</g>
</g>
<g>
	<g>
		<path class="st0" d="M138.3,112.6c0,0-2.4,56.6-4.3,66.3c-1.9,9.7-5.3,44.8,4.3,63.4s23.5,23.7,23.5,23.7s16,5.4,45.2-7.3
			c8.1,0,18.3-7.3,27.1-8.4c14.2-1.7,28.6-3.3,42.9-5.4c12.1-1.7,26.2-8.5,32.9-18.8c6.5-10,9.2-26.4,6.3-37.9
			c-4-15.4-20.2-31.4-37.2-29.9c-11.3,1-21,7.9-32.3,8.7c-8.8,0.6-17.8,0.6-26.6,0.7c-3.7,0-36.6,1.6-36.8-4.3
			c0,0-1.6-34.1-6.2-39.1C172.5,119.3,140,101.1,138.3,112.6z"/>
		<path d="M171.8,268.4c-6.5,0-10.1-1.1-10.4-1.2c-0.6-0.2-14.4-5.4-24.2-24.3c-10.2-19.7-6-56.3-4.5-64.3
			c1.9-9.5,4.3-65.5,4.3-66.1c0,0,0-0.1,0-0.1c0.3-2.2,1.6-3.8,3.8-4.4c5-1.6,14,1.9,20.6,5.1c7.1,3.4,14.4,8,16.6,10.4
			c4.8,5.2,6.3,36.3,6.5,39.9c0,0.7,1.8,4,33.4,3.2c1,0,1.7,0,2.1,0l0.2,0c8.6,0,17.6-0.1,26.3-0.7c5.6-0.4,11-2.4,16.1-4.3
			c5.1-1.9,10.5-3.9,16.1-4.4c17.6-1.6,34.4,15,38.5,30.9c3.1,11.9,0.3,28.6-6.4,38.9c-7.2,11.1-22.2,17.7-33.8,19.3
			c-10.6,1.5-21.5,2.8-31.9,4c-3.7,0.4-7.3,0.9-11,1.3c-3.9,0.5-8.3,2.3-12.5,4.1c-4.9,2.1-9.9,4.2-14.4,4.3
			C191.5,266.8,179.5,268.4,171.8,268.4z M139.6,112.7c-0.1,3.1-2.5,56.8-4.4,66.4c-0.8,4-2.3,15.1-2.2,28.1
			c0.1,10.3,1.3,24.7,6.4,34.5c9.3,18,22.7,23,22.8,23.1c0.1,0,16,5.1,44.3-7.2c0.2-0.1,0.3-0.1,0.5-0.1c4.1,0,8.8-2,13.7-4.1
			c4.4-1.9,8.9-3.8,13.2-4.3c3.6-0.4,7.3-0.9,11-1.3c10.5-1.2,21.3-2.5,31.9-4c11-1.6,25.2-7.8,32.1-18.2c6.4-9.8,9-25.6,6.1-36.9
			c-3.9-14.9-19.5-30.5-35.8-29c-5.4,0.5-10.5,2.4-15.5,4.2c-5.4,2-10.9,4-16.8,4.4c-8.8,0.6-17.8,0.6-26.5,0.7l-0.2,0
			c-0.4,0-1.1,0-2.1,0c-25.4,0.7-35.8-1-36-5.6c-0.6-13.5-2.7-34.9-5.8-38.3c-1.8-1.9-8.3-6.2-15.9-9.9c-8.6-4.2-15.4-6-18.7-5
			C140.4,110.8,139.8,111.5,139.6,112.7z"/>
	</g>
	<path class="st2" d="M143.2,211.2c1.1,12.7,6.1,26.2,17.1,32.6c1-6.5,0.3-13.2-2.1-19.3c7.7-0.2,12.2,10.5,20,10.8
		c1.6,0.1,3.3-0.4,4.8,0.1c1.4,0.4,2.6,1.5,4.1,1.6c1.8,0.1,3.2-1.5,3.6-3.2s0-3.5-0.5-5.2c-0.2-0.5-0.3-1.1-0.2-1.7
		c0.1-0.5,0.5-0.9,0.9-1.2c5.2-4.7,13.7-2.6,19.6-6.2c4.5-2.8,6.6-8.3,7.7-13.5c0.9-4.3,0.6-8.7,0.8-13c0.2-4.5-0.7-9.1-2.6-13.2
		c-0.9-2-2.2-3.9-4.1-4.9c-1.3-0.7-2.7-0.9-4.2-1.1c-4.9-0.7-9.9-1-14.9-0.8c-0.4,0-0.8,0-1,0.3c-0.3,0.3-0.2,0.7-0.2,1.1
		c0.4,3.9,0.5,10.3-2.5,13.4c-3.3,3.3-7.8-2.4-9.7-5.6c-2.3-3.9-3.3-8.4-4.4-12.7c-1.8-7.5-3.9-14.9-6.8-22.1
		c-1.3-3.3-3.3-7-6.8-7.6c-3.4-0.7-6.6,1.8-8.8,4.4c-6.2,7.1-9.6,16.3-11.1,25.6c-1.2,7.6-2,16.4-0.9,24c0.4,2.4,1.5,4.5,1.9,6.8
		C143.5,204,142.9,207.6,143.2,211.2z"/>
	<g>
		<path class="st3" d="M183.3,163.4c0,0,1,12.8,0,16.4"/>
		<path d="M183.3,181.1c-0.1,0-0.2,0-0.3,0c-0.7-0.2-1.1-0.9-0.9-1.5c0.8-2.8,0.2-12.5,0-16c-0.1-0.7,0.5-1.3,1.2-1.4
			c0.7-0.1,1.3,0.5,1.4,1.2c0.1,1.3,1,13.1,0,16.8C184.4,180.7,183.8,181.1,183.3,181.1z"/>
	</g>
	<path class="st4" d="M202.3,176.4c0.8,0.4,1.1,1,0.1,1.9c-0.9,0.8-2.2,1-3.4,1.2c-2.6,0.3-5.2,0.5-7.8,0.6c-1,0-2,0-2.9-0.5
		c-0.9-0.5-1.5-1.5-1.2-2.4c0.4-1.2,2-1.4,3.3-1.4c2.3,0,4.6,0,6.9,0C198,175.7,200.9,175.7,202.3,176.4z"/>
	<path class="st4" d="M226.3,171.7c0.8,0.4,1.1,1,0.1,1.9c-0.9,0.8-2.2,1-3.4,1.2c-2.6,0.3-5.2,0.5-7.8,0.6c-1,0-2,0-2.9-0.5
		s-1.5-1.5-1.2-2.4c0.4-1.2,2-1.4,3.3-1.4c2.3,0,4.6,0,6.9,0C222,171,224.9,171.1,226.3,171.7z"/>
	<path class="st4" d="M239.8,180.5c0.8,0.4,1.1,1,0.1,1.9c-0.9,0.8-2.2,1-3.4,1.2c-2.6,0.3-5.2,0.5-7.8,0.6c-1,0-2,0-2.9-0.5
		s-1.5-1.5-1.2-2.4c0.4-1.2,2-1.4,3.3-1.4c2.3,0,4.6,0,6.9,0C235.5,179.8,238.4,179.9,239.8,180.5z"/>
	<path class="st4" d="M264.3,175.1c0.8,0.4,1.1,1,0.1,1.9c-0.9,0.8-2.2,1-3.4,1.2c-2.6,0.3-5.2,0.5-7.8,0.6c-1,0-2,0-2.9-0.5
		s-1.5-1.5-1.2-2.4c0.4-1.2,2-1.4,3.3-1.4c2.3,0,4.6,0,6.9,0C259.9,174.4,262.9,174.5,264.3,175.1z"/>
	<path class="st4" d="M295.8,177.3c0.8,0.4,1.1,1,0.1,1.9c-0.9,0.8-2.2,1-3.4,1.2c-2.6,0.3-5.2,0.5-7.8,0.6c-1,0-2,0-2.9-0.5
		c-0.9-0.5-1.5-1.5-1.2-2.4c0.4-1.2,2-1.4,3.3-1.4c2.3,0,4.6,0,6.9,0C291.5,176.6,294.4,176.7,295.8,177.3z"/>
	<path class="st4" d="M281.6,166.4c0.8,0.4,1.1,1,0.1,1.9c-0.9,0.8-2.2,1-3.4,1.2c-2.6,0.3-5.2,0.5-7.8,0.6c-1,0-2,0-2.9-0.5
		s-1.5-1.5-1.2-2.4c0.4-1.2,2-1.4,3.3-1.4c2.3,0,4.6,0,6.9,0C277.2,165.7,280.2,165.7,281.6,166.4z"/>
</g>
<g>
	<g>
		<path class="st0" d="M265,234.9l5.3,26.2c0.2,1.7,0.6,3.4,1,5.1c2,7.7,8.1,30.8,8.6,34.4c0.6,4.3-2.3,8.4,0,12.3
			c2,3.3,1.2,8,1.3,11.7c0.1,5.1,0.3,10.1,0.5,15.2c0.3,10.1,0.8,15.6,1.3,25.7c3.5-0.4,7-0.7,10.5-1.2c6.2-0.8,5.4-4.5,6-10.3
			c1.3-11.9,1.1-24-1.2-35.8c-1.5-7.6-0.8-14.8,1.8-21.8c2.2-5.9,3.5-12.1,4.9-18.3c1.5-6.2,9-57.1,9.9-63.4"/>
		<path d="M282.9,366.7c-0.3,0-0.6-0.1-0.8-0.3c-0.3-0.2-0.4-0.5-0.4-0.9c-0.2-3.3-0.3-6.2-0.5-8.8c-0.3-5.4-0.6-10.1-0.8-16.9
			c-0.2-5-0.3-10.1-0.5-15.2c0-0.9,0-1.9,0-2.9c0.1-2.9,0.2-6-1.1-8.2c-1.6-2.7-1.1-5.4-0.6-8c0.3-1.7,0.6-3.2,0.4-4.8
			c-0.5-3.6-6.7-27.1-8.6-34.2c-0.5-1.7-0.8-3.5-1.1-5.2l-5.2-26.2c-0.1-0.7,0.3-1.3,1-1.5c0.7-0.1,1.3,0.3,1.5,1l5.3,26.2
			c0.3,1.7,0.6,3.4,1,5c2.4,9.2,8.1,30.9,8.6,34.5c0.3,2-0.1,3.9-0.4,5.7c-0.5,2.3-0.9,4.3,0.3,6.2c1.7,2.8,1.6,6.4,1.5,9.6
			c0,1-0.1,1.9,0,2.8c0.1,5.1,0.3,10.2,0.5,15.2c0.2,6.8,0.5,11.4,0.8,16.8c0.1,2.3,0.3,4.7,0.4,7.5c0.7-0.1,1.4-0.2,2.1-0.2
			c2.3-0.2,4.7-0.5,7-0.8c4.2-0.6,4.4-2.3,4.7-6.7c0.1-0.8,0.1-1.6,0.2-2.5c1.3-12.5,0.9-24.5-1.2-35.4c-1.5-7.6-0.9-15.2,1.8-22.5
			c1.8-4.9,3-10.1,4.2-15.1c0.2-1,0.5-2,0.7-3c1.5-6.2,9.1-57.7,9.9-63.3c0.1-0.7,0.7-1.2,1.4-1.1c0.7,0.1,1.2,0.7,1.1,1.4
			c-0.8,5.8-8.4,57.1-9.9,63.6c-0.2,1-0.5,2-0.7,3c-1.2,5.1-2.4,10.4-4.3,15.4c-2.5,6.9-3.1,14-1.7,21.1c2.2,11.2,2.6,23.3,1.3,36.1
			c-0.1,0.8-0.1,1.6-0.2,2.4c-0.3,4.4-0.6,8.2-6.8,9c-2.3,0.3-4.7,0.6-7,0.8c-1.2,0.1-2.3,0.2-3.5,0.4
			C283,366.7,283,366.7,282.9,366.7z"/>
	</g>
	<g>
		<path class="st5" d="M305.6,378.2c0-2-0.3-4-1.2-5.9c-1.5-3.2-3.3-6.2-5.4-9c-4.1-1.6-11.4-2.4-15.9-2.2
			c-4.7,6.3-10.2,14.3-10.5,22.2c0,0.5,27.2,0.9,28.8,1c0.9,0,3.1-0.1,3.6-0.8C305.7,382.7,305.7,379.3,305.6,378.2z"/>
		<path d="M301.7,385.5c-0.1,0-0.2,0-0.3,0l-0.8,0c-28-0.5-28.3-0.8-28.9-1.3c-0.2-0.2-0.4-0.6-0.4-0.9c0.3-8.1,5.6-16.1,10.7-22.9
			c0.2-0.3,0.6-0.5,0.9-0.5c4.7-0.2,12.1,0.6,16.4,2.2c0.2,0.1,0.4,0.2,0.5,0.4c2.2,2.8,4,5.9,5.6,9.3c1.1,2.3,1.2,4.7,1.3,6.4
			c0,0,0,0,0,0c0.1,3.2-0.2,5.2-0.8,6C305.2,385.4,302.9,385.5,301.7,385.5z M274,382.2c2,0.2,8.1,0.4,26.6,0.7l0.8,0
			c1.1,0,2.2-0.2,2.6-0.3c0.2-0.4,0.3-2.2,0.3-4.4c-0.1-2.3-0.4-3.9-1.1-5.4c-1.4-3-3.1-5.9-5-8.5c-3.8-1.4-10.2-2.1-14.4-2
			C279.3,368.4,274.7,375.4,274,382.2z M304.1,382.6L304.1,382.6L304.1,382.6z"/>
	</g>
</g>
<g>
	<path class="st6" d="M321,165.7c6.4,5.1,11.4,12.1,13.7,18.7c2.8,7.9,3.7,16.4,4.5,24.8c-1.4,0.4-2.9,0-3.9-0.9
		c1,7.4,2,14.9,3.1,22.3c0.3,1.8,0.5,3.8-0.4,5.5c-0.9,1.6-3.5,2.4-4.7,0.9c2.1,8.5,1.4,17.7-2.1,25.8c-1,2.3,1.1,8.1,0.9,10.9
		c-0.4,4.3-2.3,7.5-4,11.4c-1.9,4.6-3.2,10.9-9.1,11.8c-0.6-1.6-0.9-3.2-1.3-4.9c-0.7,1.4-2.4,2.3-3.9,2c-3.2-8.1,2.1-16.9,3.1-25.6
		c1.5-13.1-7.1-25.4-7.9-38.5c-4-0.7-6.6-4.7-7.3-8.7c-0.7-4,0.1-8,0.3-12c0.6-9.2-1.3-18.6-5.6-26.8c-3.5-6.7-13.9-16.6-2.8-21.9
		C303,156.1,313,159.3,321,165.7z"/>
	<path d="M319,298.2c-0.5,0-1-0.3-1.2-0.8c-0.3-0.9-0.6-1.9-0.8-2.8c-1,0.6-2.2,0.9-3.4,0.7c-0.4-0.1-0.8-0.4-1-0.8
		c-2.3-5.7-0.6-11.7,1.1-17.5c0.8-2.9,1.7-5.8,2-8.7c0.8-7.1-1.4-13.9-3.8-21c-1.7-5.3-3.6-10.7-4-16.4c-4.1-1.3-6.7-5.5-7.4-9.5
		c-0.6-3.2-0.2-6.3,0.1-9.4c0.1-1,0.2-2,0.3-2.9c0.6-8.9-1.3-18.2-5.5-26.1c-0.7-1.3-1.7-2.8-2.7-4.3c-2.9-4.3-6.2-9.2-5-13.6
		c0.6-2.3,2.5-4.2,5.4-5.7c8.8-4.2,19.3-2.3,28.8,5.3c6.4,5.1,11.7,12.3,14.1,19.3c2.8,8.1,3.7,16.7,4.6,25.1
		c0.1,0.6-0.3,1.2-0.9,1.3c-0.9,0.2-1.8,0.3-2.7,0.1l2.7,20c0.2,1.8,0.6,4.2-0.6,6.3c-0.7,1.3-2.2,2.2-3.7,2.3c-0.1,0-0.2,0-0.3,0
		c1.5,8.1,0.6,16.7-2.6,24.3c-0.4,1,0,3.4,0.4,5.4c0.4,1.9,0.7,3.7,0.5,5.1c-0.4,3.5-1.6,6.3-2.9,9.2c-0.4,0.8-0.8,1.7-1.1,2.6
		c-0.3,0.7-0.6,1.5-0.9,2.3c-1.6,4.2-3.5,9.4-9.1,10.3C319.2,298.2,319.1,298.2,319,298.2z M317.7,290.8c0.1,0,0.1,0,0.2,0
		c0.5,0.1,0.9,0.4,1.1,1l0.2,1c0.2,0.9,0.4,1.8,0.7,2.7c3.4-1.1,4.8-4.8,6.1-8.4c0.3-0.8,0.6-1.6,0.9-2.3c0.4-0.9,0.8-1.8,1.2-2.6
		c1.2-2.7,2.4-5.3,2.7-8.4c0.1-1-0.2-2.7-0.5-4.4c-0.5-2.7-1-5.2-0.2-6.9c3.3-7.8,4.1-16.7,2-25c-0.1-0.6,0.1-1.2,0.7-1.4
		c0.5-0.3,1.2-0.1,1.5,0.3c0.2,0.2,0.5,0.3,0.9,0.3c0.7-0.1,1.4-0.5,1.7-1.1c0.7-1.2,0.5-2.8,0.3-4.7l-3.1-22.3
		c-0.1-0.5,0.2-1,0.6-1.3c0.5-0.3,1-0.2,1.4,0.1c0.5,0.4,1.1,0.7,1.8,0.7c-0.8-7.8-1.7-15.8-4.3-23.2c-2.3-6.5-7.2-13.3-13.3-18.1
		c0,0,0,0,0,0c-11.9-9.5-21.5-7.2-26.1-5c-2.3,1.1-3.7,2.4-4.1,4.1c-0.9,3.3,2,7.7,4.6,11.5c1.1,1.6,2.1,3.1,2.9,4.6
		c4.4,8.4,6.4,17.9,5.8,27.5c-0.1,1-0.2,2-0.3,3c-0.3,3-0.6,5.9-0.1,8.7c0.6,3.2,2.8,7,6.3,7.7c0.6,0.1,1,0.6,1,1.2
		c0.3,5.6,2.2,11.2,4,16.6c2.4,7.1,4.8,14.5,3.9,22.1c-0.3,3.1-1.2,6.1-2.1,9.1c-1.5,5.3-2.9,10.4-1.4,15.1c0.8-0.1,1.6-0.6,1.9-1.4
		C316.8,291.1,317.3,290.8,317.7,290.8z"/>
</g>
<g>
	<g>
		<path class="st0" d="M148,91.2c0,0-6.6,4.6-8.5,12.3c-1.9,7.8-2.7,27.6,1.4,33.5c4.2,5.9,8.9,10.2,9.4,15.4s1.7,17,6.9,19.1
			c5.2,2,16.4,3.1,18.9-2.6c2.5-5.7,1.5-18.1,4.2-23.2s10-7.1,7-33.4c0,0-4.9-17-10.3-20C171.8,89.4,148,91.2,148,91.2z"/>
		<path d="M166.6,174.4c-3.6,0-7.3-0.8-9.7-1.7c-5.8-2.3-7-14.2-7.6-19.9l0-0.2c-0.4-3.5-2.9-6.7-5.8-10.4c-1.1-1.4-2.3-2.9-3.4-4.5
			c-4.6-6.5-3.4-27.2-1.6-34.5c2-8.1,8.7-12.9,9-13.1c0.2-0.1,0.4-0.2,0.6-0.2c2.5-0.2,24.2-1.7,29.8,1.3c5.7,3.1,10.4,19,10.9,20.8
			c0,0.1,0,0.1,0,0.2c2.5,21.7-2,27.4-5.3,31.5c-0.7,0.9-1.4,1.7-1.8,2.6c-1.3,2.4-1.6,6.8-2,11.2c-0.4,4.4-0.8,8.9-2.1,11.9
			C175.7,173.2,171.2,174.4,166.6,174.4z M148.5,92.5c-1.2,0.9-6.2,5.1-7.7,11.4c-1.9,7.6-2.6,27.1,1.2,32.5c1.1,1.5,2.2,3,3.3,4.4
			c3.2,4,5.9,7.5,6.3,11.7l0,0.2c0.4,4.4,1.6,16.1,6,17.8c4.7,1.9,15.1,2.8,17.3-2c1.2-2.6,1.5-6.9,1.9-11.1
			c0.4-4.8,0.8-9.3,2.3-12.1c0.6-1.1,1.3-2,2.1-3c3-3.8,7.2-8.9,4.8-29.6c-1.4-4.7-5.7-16.9-9.7-19.1
			C172.5,91.3,155.3,92,148.5,92.5z"/>
	</g>
	<g>
		<g>
			<path class="st7" d="M147.6,129.5c0,0-4.4,3-1.6,7.7c2.8,4.8,6.1,2.8,6.1,2.8S151.9,130,147.6,129.5z"/>
			<path d="M150.5,141.7c-1.7,0-3.8-0.9-5.6-3.9c-2.7-4.6,0.1-8.2,2-9.4c0.3-0.2,0.6-0.2,0.9-0.2c5.2,0.6,5.6,10.7,5.6,11.8
				c0,0.5-0.2,0.9-0.6,1.1C152.2,141.4,151.4,141.7,150.5,141.7z M147.9,130.8c-0.9,0.8-2.5,2.8-0.8,5.7c1.4,2.5,2.9,2.7,3.7,2.6
				C150.6,136.3,149.8,131.7,147.9,130.8z"/>
		</g>
		<g>
			<circle class="st3" cx="149.8" cy="135.1" r="1.4"/>
			<path d="M149.8,137.8c-1.5,0-2.7-1.2-2.7-2.7s1.2-2.7,2.7-2.7s2.7,1.2,2.7,2.7S151.2,137.8,149.8,137.8z M149.8,135
				c-0.1,0-0.2,0.1-0.2,0.2c0,0.2,0.3,0.2,0.3,0C149.9,135.1,149.8,135,149.8,135z"/>
		</g>
		<g>
			<path class="st8" d="M144.5,125.7c0,0,2.2,2,5,6.5c2.8,4.5,2.6,7.8,2.6,7.8s2.5-2.3,1.7-5.9s-2.5-5.5-4.5-6.5
				C147.2,126.6,144.5,125.7,144.5,125.7z"/>
			<path d="M152.1,141.3c-0.2,0-0.4,0-0.6-0.1c-0.5-0.2-0.7-0.7-0.7-1.2c0,0,0.1-3-2.4-7c-2.7-4.3-4.8-6.3-4.8-6.3
				c-0.4-0.4-0.5-1.1-0.2-1.6c0.3-0.5,0.9-0.7,1.5-0.6c0.1,0,2.8,0.9,4.9,2c2.6,1.3,4.3,3.7,5.2,7.4c1,4.3-1.9,7-2,7.1
				C152.7,141.2,152.4,141.3,152.1,141.3z M148.7,128.8c0.6,0.8,1.2,1.8,1.9,2.8c1,1.6,1.7,3.1,2.1,4.4c0-0.5,0-1-0.1-1.5
				C151.9,131.5,150.6,129.7,148.7,128.8z"/>
		</g>
		<g>
			<path class="st3" d="M144.5,125.7c0,0-2.2-1.4-2.6-2.4"/>
			<path d="M144.5,127c-0.2,0-0.5-0.1-0.7-0.2c-0.6-0.4-2.5-1.7-3.1-3c-0.3-0.6,0-1.4,0.6-1.7c0.6-0.3,1.4,0,1.7,0.6
				c0.2,0.4,1.3,1.3,2.2,1.9c0.6,0.4,0.8,1.2,0.4,1.7C145.3,126.8,144.9,127,144.5,127z"/>
		</g>
	</g>
	<g>
		<g>
			<path class="st7" d="M181.2,129.9c0,0,4.1,3.4,0.9,7.9c-3.2,4.5-6.3,2.3-6.3,2.3S176.8,130.1,181.2,129.9z"/>
			<path d="M177.7,141.9c-1.1,0-2.1-0.4-2.6-0.8c-0.4-0.3-0.6-0.7-0.5-1.2c0.1-1.1,1.4-11.1,6.6-11.3c0.3,0,0.6,0.1,0.8,0.3
				c1.7,1.4,4.2,5.2,1.2,9.6C181.3,141.1,179.3,141.9,177.7,141.9z M177.1,139.3c0.8,0.2,2.3,0.1,3.9-2.2c2-2.8,0.5-4.9-0.3-5.8
				C178.9,131.9,177.6,136.1,177.1,139.3z"/>
		</g>
		<g>
			<circle class="st3" cx="178.5" cy="135.4" r="1.4"/>
			<path d="M178.5,138.1c-0.1,0-0.2,0-0.2,0c-0.7-0.1-1.4-0.4-1.8-0.9c-0.5-0.5-0.7-1.2-0.6-2c0.1-0.7,0.4-1.4,0.9-1.8
				c0.5-0.5,1.2-0.7,2-0.6c1.5,0.1,2.6,1.4,2.4,2.9c-0.1,0.7-0.4,1.4-0.9,1.8C179.8,137.9,179.2,138.1,178.5,138.1z M178.5,135.3
				c-0.1,0-0.1,0.1-0.2,0.1c0,0.1,0.1,0.2,0.1,0.2c0.1,0,0.2-0.1,0.2-0.1C178.7,135.3,178.6,135.3,178.5,135.3
				C178.5,135.3,178.5,135.3,178.5,135.3z"/>
		</g>
		<g>
			<path class="st8" d="M184.6,126.5c0,0-2.4,1.8-5.6,6c-3.2,4.2-3.3,7.5-3.3,7.5s-2.3-2.5-1.1-6c1.2-3.5,3-5.3,5.1-6.1
				C181.9,127.1,184.6,126.5,184.6,126.5z"/>
			<path d="M175.7,141.3c-0.3,0-0.7-0.1-0.9-0.4c-0.1-0.1-2.8-3.1-1.4-7.3c1.2-3.5,3.1-5.8,5.8-6.9c2.2-0.9,4.9-1.5,5.1-1.5
				c0.6-0.1,1.2,0.2,1.4,0.7c0.3,0.5,0.1,1.2-0.4,1.5l0,0c0,0-2.3,1.8-5.4,5.8c-2.9,3.8-3,6.8-3,6.8c0,0.5-0.3,1-0.8,1.1
				C176,141.3,175.9,141.3,175.7,141.3z M180.2,129.1c-2,0.8-3.4,2.5-4.4,5.3c-0.2,0.5-0.3,1-0.3,1.5c0.5-1.2,1.3-2.6,2.5-4.2
				C178.8,130.8,179.5,129.9,180.2,129.1z"/>
		</g>
		<g>
			<path class="st3" d="M184.6,126.5c0,0,2.3-1.2,2.9-2.2"/>
			<path d="M184.6,127.8c-0.5,0-0.9-0.2-1.1-0.7c-0.3-0.6-0.1-1.4,0.5-1.7c0.9-0.5,2.1-1.3,2.3-1.7c0.3-0.6,1.1-0.8,1.7-0.5
				c0.6,0.3,0.8,1.1,0.5,1.7c-0.7,1.2-2.7,2.3-3.4,2.7C185,127.7,184.8,127.8,184.6,127.8z"/>
		</g>
	</g>
	<g>
		<path class="st3" d="M157.9,162.6c0,0,4.9,2.4,3.8,4.7C160.5,169.7,157.9,162.6,157.9,162.6z"/>
		<path d="M161.1,169.1C161,169.1,161,169.1,161.1,169.1c-0.6,0-2.2-0.1-4.4-6c-0.2-0.5,0-1,0.3-1.4c0.4-0.3,0.9-0.4,1.4-0.2
			c0.6,0.3,3.7,1.9,4.5,4.1c0.3,0.8,0.2,1.6-0.1,2.3C162.3,168.9,161.5,169.1,161.1,169.1z"/>
	</g>
	<g>
		<path class="st3" d="M173.1,162.6c0,0-4.9,2.4-3.8,4.7C170.5,169.7,173.1,162.6,173.1,162.6z"/>
		<path d="M170,169.1c-0.4,0-1.2-0.1-1.7-1.2c-0.4-0.7-0.4-1.5-0.1-2.3c0.7-2.2,3.9-3.8,4.5-4.1c0.5-0.2,1-0.1,1.4,0.2
			c0.4,0.3,0.5,0.9,0.3,1.4C172.1,169,170.6,169.1,170,169.1C170,169.1,170,169.1,170,169.1z M170.5,166.8L170.5,166.8L170.5,166.8z
			"/>
	</g>
	<g>
		<path class="st3" d="M155.5,162.6c0,0,0.5-1.2,2.4,0"/>
		<path d="M155.5,163.9c-0.2,0-0.3,0-0.5-0.1c-0.6-0.3-0.9-1-0.6-1.7c0.2-0.4,0.6-0.9,1.4-1.1c0.8-0.3,1.8-0.1,2.9,0.6
			c0.6,0.4,0.8,1.1,0.4,1.7c-0.4,0.6-1.1,0.8-1.7,0.4c-0.4-0.2-0.6-0.3-0.7-0.3C156.3,163.7,155.9,163.9,155.5,163.9z M156.6,163.2
			C156.6,163.2,156.6,163.2,156.6,163.2C156.6,163.2,156.6,163.2,156.6,163.2z"/>
	</g>
	<g>
		<path class="st3" d="M173.1,162.6c0,0,1.4-1,1.8,0.8"/>
		<path d="M174.9,164.7c-0.6,0-1.1-0.4-1.2-0.9c-0.6,0.3-1.3,0.1-1.6-0.4c-0.4-0.6-0.3-1.3,0.3-1.7c0.2-0.1,1.2-0.8,2.3-0.4
			c0.5,0.2,1.2,0.7,1.4,1.9c0.2,0.7-0.3,1.4-1,1.5C175.1,164.7,175,164.7,174.9,164.7z M173.6,163.5L173.6,163.5z"/>
	</g>
	<path class="st2" d="M152.5,127.8c3,3.5,6.2,7.7,5.7,12.3c-0.2,1.6-0.9,3.2-0.7,4.9c0.3,2.3,2.1,4.1,2.6,6.3c0.3,1.4,0.1,3,0.4,4.4
		c0.5,2.3,2.3,4,4.1,5.6c0.2,0.2,0.5,0.4,0.7,0.4c0.3,0,0.4-0.3,0.6-0.5c1.3-1.8,2.6-3.7,3.8-5.5c0.7-1,1.5-2.1,1.6-3.4
		c0.1-1-0.1-2-0.3-3.1c-0.7-3.7-0.8-7.6-0.2-11.3c0.5-3.2,1.5-6.3,3.3-9c1.8-2.7,4.5-4.8,7.6-5.7c0.2,0,0.4-0.1,0.5-0.2
		c0.4-0.3,0.3-1-0.1-1.3c-0.4-0.3-0.9-0.4-1.4-0.5c-1.8-0.3-3.6-0.6-5.4-0.9c-0.4,2.2-1.6,4.9-3.8,4.8c-1.9-0.1-3-2.3-4.9-2.7
		c0.7,1.4-0.9,3.1-2.4,3.1s-2.9-1-4.2-2c-2.4-1.9-4.7-3.8-7.1-5.8c-0.9-0.7-1.9-1.5-3-1.5c-2-0.1-3.9,2.6-3.4,4.5
		C147.1,123,150.9,126,152.5,127.8z"/>
</g>
<g>
	<g>
		<path class="st9" d="M159.3,37.9c-1.7,1-3,2.9-3.1,4.9c-1.8,0-5.1,0-6.7,1c-0.5,0.3-3.2,3.8-1.7,3.8c-2.7,0.1-6.2,0.8-6.5,3.5
			c-0.2,1.8,1.3,3.4,3,4s3.5,0.4,5.3,0.2c3.8-0.2,7.7,0,11.5,0.7c3,0.6,6.2,1.4,8.9,0c1.3-0.7,2.3-1.8,3.6-2.6
			c3.2-1.9,7.2-1.1,10.9-0.8c1.6,0.1,3.7-0.2,4-1.8c0.4-2-1.9-2.6-3.1-3.5c-0.1-0.1-4.2-3.6-4.3-2.6c0.2-3.3-2.8-5.3-5.2-6.9
			c-2.9-1.9-5.3-0.8-8.5-0.5c-2.2,0.2-4.4-0.4-6.5,0.1C160.4,37.3,159.9,37.6,159.3,37.9z"/>
		<path d="M166.5,58c-1.6,0-3.3-0.3-4.8-0.6l-0.8-0.2c-3.7-0.7-7.4-0.9-11.2-0.7l-0.6,0c-1.7,0.1-3.5,0.2-5.2-0.3
			c-2.1-0.7-4.2-2.8-3.9-5.3c0.3-2.5,2.5-4.1,6.2-4.5c0.5-1.6,2.2-3.5,2.6-3.7c1.2-0.8,3.3-1.1,6.3-1.2c0.5-1.9,1.8-3.7,3.5-4.8
			c0,0,0,0,0,0c0.6-0.4,1.3-0.6,2-0.8c1.4-0.3,2.8-0.2,4.1-0.1c0.9,0.1,1.8,0.1,2.6,0c0.7-0.1,1.4-0.2,2-0.3c2.3-0.4,4.7-0.8,7.3,1
			c2.3,1.5,5.3,3.5,5.7,6.8c0.8,0.4,1.9,1.2,3.8,2.7l0.1,0.1c0.2,0.2,0.5,0.3,0.9,0.5c1.2,0.7,3.2,1.8,2.7,4.2
			c-0.4,1.9-2.5,3-5.4,2.8c-0.6,0-1.2-0.1-1.9-0.2c-3.1-0.3-6-0.6-8.3,0.8c-0.5,0.3-1,0.7-1.5,1.1c-0.7,0.5-1.4,1.1-2.2,1.5
			C169.3,57.7,167.9,58,166.5,58z M152.6,53.9c3,0,5.9,0.3,8.8,0.8l0.8,0.2c2.6,0.5,5.2,1,7.3-0.1c0.6-0.3,1.2-0.8,1.8-1.3
			c0.6-0.4,1.1-0.9,1.8-1.3c3-1.8,6.5-1.5,9.8-1.1c0.6,0.1,1.2,0.1,1.8,0.2c1.2,0.1,2.6-0.2,2.7-0.8c0.1-0.5-0.2-0.8-1.5-1.5
			c-0.4-0.2-0.8-0.5-1.2-0.7l-0.1-0.1c-1.8-1.5-2.7-2.1-3.1-2.3c-0.1,0-0.2,0-0.4,0c-0.7,0-1.2-0.6-1.2-1.3l0,0c0,0,0,0,0,0
			c0.2-2.6-2.4-4.3-4.7-5.8c-1.8-1.2-3.4-1-5.5-0.6c-0.7,0.1-1.4,0.2-2.2,0.3c-1,0.1-2,0-3,0c-1.2-0.1-2.3-0.2-3.3,0.1
			c-0.4,0.1-0.9,0.3-1.3,0.5c-1.4,0.8-2.4,2.4-2.5,3.9c0,0.7-0.6,1.2-1.3,1.2c-3.9-0.1-5.4,0.4-5.9,0.8c-0.3,0.3-1.1,1.3-1.4,1.9
			c0.2,0.2,0.3,0.5,0.3,0.8c0,0.7-0.5,1.3-1.2,1.3l0,0c0,0,0,0,0,0c-1.2,0-5.1,0.3-5.3,2.4c-0.1,1.1,1,2.2,2.1,2.6
			c1.3,0.4,2.7,0.3,4.3,0.2l0.6,0C150.6,53.9,151.6,53.9,152.6,53.9z M150.2,44.9C150.2,44.9,150.2,44.9,150.2,44.9
			C150.2,44.9,150.2,44.9,150.2,44.9z"/>
	</g>
	<g>
		<path class="st9" d="M180.9,15.3c-2.3,0.7-4.4,2.5-4.7,4.8c-3.3-1.9-8-0.7-10,2.5c-1.3,2.1-1.7,4.9-3.7,6.2
			c-0.9,0.6-2.1,0.8-3.1,1.4c-2.6,1.7-1.9,6.1,0.6,8c2.5,1.9,5.8,2.1,8.9,2.2c5.3,0.2,10.6,0.3,15.8-0.6c2.8-0.5,5.7-1.3,8.3-0.2
			c1.3,0.6,2.3,1.5,3.6,2.1c1.3,0.6,2.9,0.7,4.3,0.4c2.5-0.7,4.5-3.8,3-5.9c-0.3-0.4-0.7-0.7-0.9-1.2c-0.5-1.1,0.1-2.4,0.3-3.6
			c0.6-3.3-2.7-6.7-6-6.2c0.9-0.1-5.4-7.6-6.1-8.1C188,15,184.6,14.2,180.9,15.3z"/>
		<path d="M199.2,43.6c-1.1,0-2.2-0.2-3.2-0.7c-0.7-0.3-1.3-0.7-1.9-1.1c-0.6-0.4-1.1-0.7-1.7-1c-1.9-0.8-4.2-0.4-6.6,0.1
			c-0.3,0.1-0.7,0.1-1,0.2c-5.5,1-11.1,0.8-16.1,0.7c-2.9-0.1-6.8-0.2-9.7-2.5c-1.7-1.4-2.8-3.7-2.7-5.9c0.1-1.8,0.9-3.2,2.2-4.1
			c0.6-0.4,1.2-0.6,1.8-0.8c0.5-0.2,0.9-0.3,1.3-0.6c1-0.6,1.6-1.9,2.1-3.3c0.4-0.8,0.7-1.7,1.2-2.5c2.1-3.3,6.6-4.8,10.3-3.6
			c0.9-2.2,3.1-3.7,5.1-4.3c3.9-1.2,7.7-0.5,11.4,2c0.1,0,4.8,5,6.3,7.9c1.6,0,3.3,0.8,4.5,2.1c1.5,1.6,2.2,3.7,1.8,5.7
			c-0.1,0.3-0.2,0.7-0.3,1c-0.2,0.7-0.4,1.4-0.2,1.8c0.1,0.1,0.2,0.3,0.4,0.5c0.2,0.2,0.3,0.3,0.4,0.5c0.8,1.2,1,2.6,0.5,4
			c-0.7,1.8-2.3,3.4-4.2,3.9C200.6,43.5,199.9,43.6,199.2,43.6z M190,37.8c1.2,0,2.4,0.2,3.5,0.7c0.8,0.3,1.4,0.8,2,1.2
			c0.5,0.4,1,0.7,1.6,0.9c1.1,0.5,2.3,0.6,3.4,0.3c1.1-0.3,2.1-1.2,2.5-2.3c0.2-0.5,0.3-1.1-0.1-1.7c-0.1-0.1-0.2-0.2-0.3-0.3
			c-0.2-0.3-0.5-0.6-0.7-1c-0.6-1.3-0.3-2.5,0-3.5c0.1-0.3,0.2-0.6,0.2-0.8c0.2-1.1-0.2-2.4-1.2-3.4c-1-1-2.2-1.5-3.4-1.3
			c-0.7,0.1-1.3-0.3-1.5-1c0-0.1,0-0.2,0-0.3c-0.8-1.4-4.9-6.4-5.6-7c-3-2.1-6-2.6-9.2-1.7l0,0c-1.7,0.5-3.5,1.9-3.8,3.8
			c-0.1,0.4-0.3,0.8-0.7,1c-0.4,0.2-0.8,0.2-1.2,0c-2.7-1.5-6.7-0.5-8.3,2.1c-0.4,0.6-0.7,1.4-1,2.1c-0.7,1.6-1.4,3.4-3.1,4.5
			c-0.6,0.4-1.2,0.6-1.7,0.8c-0.5,0.2-0.9,0.3-1.3,0.6c-0.8,0.6-1,1.5-1.1,2.1c-0.1,1.4,0.6,3,1.7,3.8c2.1,1.6,4.9,1.8,8.2,1.9
			c4.8,0.2,10.3,0.3,15.5-0.6c0.3-0.1,0.7-0.1,1-0.2C186.9,38.1,188.4,37.8,190,37.8z M180.9,15.3L180.9,15.3L180.9,15.3z"/>
	</g>
	<g>
		<path class="st9" d="M234.6,25.1c-0.3-1.3-1-2.5-1.7-3.7c-2-3.1-4-6.2-5.9-9.4c-1.2-1.9-2.6-4-4.8-4.6c-3-0.8-6.3,1.5-9.3,0.5
			c-1.6-0.5-2.9-2.1-4.6-2.2c-3.3-0.3-5.1,4.2-8.4,4.8c-0.9,0.2-1.9,0-2.8,0.1c-1.7,0.2-3.3,1.6-3.8,3.3c-0.2,0.8-0.3,1.7-0.8,2.2
			c-0.4,0.4-1,0.5-1.6,0.7c-2.3,0.8-4.1,3.6-2.8,5.7c0.4,0.6,1.1,1.1,1.7,1.5c8.7,5.4,17.8,2.6,27,4.8c3.4,0.8,6.2,3,9.4,4.3
			C231.3,35.2,235.8,30.8,234.6,25.1z"/>
		<path d="M228.6,35c-0.9,0-1.9-0.2-2.9-0.5c-1.4-0.5-2.8-1.3-4-2c-1.7-0.9-3.4-1.8-5.2-2.3c-3.4-0.8-6.8-0.9-10.2-1.1
			c-5.7-0.2-11.5-0.4-17.2-3.9c-0.8-0.5-1.6-1-2.1-1.9c-0.7-1.1-0.8-2.4-0.4-3.8c0.6-1.7,2.1-3.2,3.8-3.8l0.3-0.1
			c0.3-0.1,0.6-0.2,0.8-0.3c0.2-0.2,0.3-0.6,0.3-1c0-0.2,0.1-0.4,0.2-0.7c0.6-2.2,2.6-3.9,4.8-4.2c0.5-0.1,1-0.1,1.5-0.1
			c0.5,0,0.9,0,1.3-0.1c1.1-0.2,2.1-1.2,3.2-2.2c1.5-1.4,3.2-2.9,5.5-2.7c1.3,0.1,2.3,0.8,3.3,1.4c0.6,0.4,1.1,0.7,1.7,0.9
			c1.2,0.4,2.6,0.1,4.1-0.3c1.7-0.4,3.4-0.8,5.2-0.3c2.6,0.7,4.1,2.9,5.5,5.1l5.9,9.4c0.7,1.2,1.6,2.5,1.9,4.1
			c0.7,3.3-0.3,6.5-2.6,8.4C231.9,34.4,230.3,35,228.6,35z M198.1,12c-0.3,0-0.6,0-0.9,0c-1.2,0.2-2.4,1.2-2.7,2.4
			c0,0.2-0.1,0.3-0.1,0.5c-0.2,0.7-0.3,1.6-1.1,2.3c-0.6,0.5-1.2,0.8-1.8,0.9l-0.3,0.1c-1,0.3-1.9,1.3-2.3,2.2
			c-0.2,0.6-0.2,1.1,0.1,1.6c0.3,0.4,0.8,0.8,1.3,1.1c5.1,3.1,10.4,3.3,16,3.5c3.5,0.1,7.1,0.3,10.7,1.1c2.2,0.5,4,1.5,5.8,2.5
			c1.3,0.7,2.5,1.3,3.7,1.8c1.8,0.7,3.6,0.4,5-0.7c1.6-1.4,2.3-3.6,1.8-6l0,0c-0.2-1.1-0.9-2.2-1.6-3.3l-5.9-9.4
			c-1.2-1.9-2.4-3.6-4.1-4c-1.2-0.3-2.5,0-3.9,0.3c-1.7,0.4-3.6,0.8-5.4,0.2c-0.8-0.3-1.5-0.7-2.2-1.2c-0.8-0.5-1.4-0.9-2.1-1
			c-1.2-0.1-2.3,0.9-3.6,2c-1.2,1.1-2.6,2.4-4.5,2.8c-0.6,0.1-1.2,0.1-1.8,0.1C198.2,12,198.2,12,198.1,12z"/>
	</g>
	<g>
		<path class="st9" d="M236.9,67.5c-0.6-1.4-0.9-2.9-1.5-4.3c-1.6-3.9-5.8-6.8-10-6.4c-2.1,0.2-4,1.2-5.9,2.2
			c-0.9,0.5-1.8,0.9-2.7,1.4c-0.5,0.3-1.1,0.6-1.5,1c-0.4,0.4-0.5,1-0.6,1.5c-0.4,2.7,1.8,5.1,3.8,7c2,1.9,4,3.8,6,5.8
			c0.7,0.7,1.4,1.3,2.2,1.8c2.8,1.6,7.4,0.2,10-1.5C240.1,73.7,238.3,70.6,236.9,67.5z"/>
		<path d="M229.6,79.4c-1.3,0-2.5-0.2-3.6-0.8c-1-0.6-1.8-1.3-2.5-2l-6-5.8c-2.4-2.3-4.6-4.9-4.1-8.1c0.1-0.8,0.4-1.6,0.9-2.2
			c0.6-0.7,1.3-1.1,1.9-1.4l2.7-1.4c1.9-1,4-2,6.3-2.3c4.6-0.5,9.4,2.5,11.3,7.2c0.3,0.7,0.5,1.4,0.7,2.1c0.2,0.8,0.5,1.5,0.8,2.2
			l0.3,0.7c1.3,2.8,3.1,6.7-1.1,9.4C235.5,78.2,232.4,79.4,229.6,79.4z M226.2,58c-0.2,0-0.5,0-0.7,0c-1.9,0.2-3.7,1.1-5.4,2
			l-2.7,1.4c-0.4,0.2-0.9,0.4-1.1,0.7c-0.2,0.2-0.3,0.5-0.3,0.9c-0.3,2.1,1.5,4.1,3.4,5.9l6,5.8c0.6,0.6,1.3,1.2,2,1.6
			c2.1,1.2,6.1,0.2,8.7-1.4c2.1-1.4,1.7-2.8,0.2-6.2l-0.3-0.7l0,0c-0.4-0.8-0.6-1.6-0.9-2.4c-0.2-0.7-0.4-1.3-0.7-1.9
			C232.8,60.3,229.5,58,226.2,58z"/>
	</g>
	<g>
		<path class="st0" d="M232.1,50.7c-1.8,1.2-3.4,2.5-3.9,2.9c-1.9,1.4-3.8,2.6-5.9,3.5c0.1-0.6,0.2-1.3,0.2-1.9
			c0.4-8-1.1-16.5-6.5-22.3c1.5-1.6,2.8-3.4,3.8-5.4c0.4-0.8,0.8-1.7,0.6-2.6c-0.1-0.9-0.9-1.7-1.8-1.6c-0.7,0.1-1.1,0.7-1.5,1.3
			c-1.4,2.1-2.8,4.2-4.2,6.3c-1.6-2.3-3.1-4.5-4.7-6.8c-0.4-0.6-0.8-1.1-1.4-1.4c-0.6-0.2-1.5,0.2-1.5,0.8
			c2.8,6.8,6.4,13.3,10.6,19.3c0.6,0.8,1.2,1.7,1.4,2.6c1.1,4.8-2.4,9.3-2.3,13.8c0,0.1,0,0.3,0,0.4c-1.2,0.3-2.4,0.6-3.6,0.8
			c-1.2,0.2-2.4,0.3-3.5,0.9c-3.4,1.8-3.6,6.5-3.7,10.4c-0.2,6.1-1.5,12.3-3.9,17.9c-7.5,1.9-15.2,2.8-22.9,2.6
			c-0.4,6.6,3.4,13.3,9.3,16.2c6,3,14.9-1.3,20-5.7c4.8-4.2,6.2-11.1,6.9-17.4c0.5-4.4,0.8-8.9,2.4-13.1c2.2-6.2,5.1-4.4,10.7-6.5
			c2.1-0.8,4.2-1.6,6.3-2.3c1.3-0.5,2.6-1,3.4-2.1c0.6-0.9,0.8-2.1,1-3.3c0.4-2.4,1.2-4.7,2.5-6.9c0.3-0.6,0.7-1.2,0.7-1.9
			C240.1,46,235.6,48.4,232.1,50.7z"/>
		<path d="M191.3,110.9c-1.8,0-3.5-0.3-5.1-1.1c-6.3-3.2-10.4-10.4-10-17.4c0-0.7,0.6-1.2,1.3-1.2c7.4,0.2,14.7-0.7,21.9-2.4
			c2.1-5.3,3.4-11.1,3.6-16.9c0.1-4.2,0.3-9.4,4.4-11.5c1.2-0.6,2.4-0.8,3.6-1l0.4-0.1c0.8-0.1,1.6-0.3,2.5-0.5
			c0.1-1.9,0.7-3.8,1.3-5.6c0.8-2.5,1.6-4.9,1-7.3c-0.2-0.7-0.6-1.4-1.2-2.1c-4.3-6.1-7.9-12.7-10.8-19.6c-0.1-0.1-0.1-0.3-0.1-0.5
			c0-0.7,0.3-1.3,0.9-1.7c0.7-0.5,1.5-0.6,2.3-0.4c1.1,0.4,1.7,1.2,2.1,1.8l3.6,5.3l3.1-4.8c0.4-0.6,1.1-1.6,2.3-1.9
			c0.7-0.1,1.4,0,2,0.5c0.7,0.5,1.2,1.3,1.3,2.2c0.2,1.2-0.3,2.4-0.8,3.3c-0.9,1.7-2,3.4-3.2,4.8c5.5,6.6,6.4,15.5,6.1,22.1
			c1.3-0.7,2.5-1.5,3.6-2.3l0.4-0.3c0.7-0.5,2-1.6,3.5-2.6l0,0c4.3-2.9,7-3.8,8.7-3c0.6,0.3,1.4,1,1.5,2.6c0.1,1-0.4,1.8-0.8,2.5
			l0,0.1c-1.1,2-1.9,4.2-2.3,6.5l-0.1,0.4c-0.2,1.1-0.4,2.3-1.1,3.3c-1,1.5-2.7,2.1-4,2.6l-6.3,2.3c-1.7,0.6-3.1,0.9-4.4,1.2
			c-2.9,0.6-4.2,0.9-5.6,4.6c-1.3,3.5-1.7,7.4-2.1,11.1c-0.1,0.6-0.1,1.2-0.2,1.7c-0.7,6.5-2.2,13.8-7.3,18.2
			C203.8,107.1,197.2,110.9,191.3,110.9z M178.7,93.7c0.1,5.7,3.5,11.3,8.6,13.8c5,2.5,13.3-1,18.6-5.5c4.5-3.9,5.8-10.3,6.5-16.6
			c0.1-0.6,0.1-1.1,0.2-1.7c0.4-3.9,0.9-7.9,2.2-11.7c1.8-5,4.3-5.6,7.4-6.2c1.2-0.2,2.5-0.5,4-1.1l6.3-2.3c1.2-0.5,2.2-0.9,2.8-1.6
			c0.4-0.6,0.5-1.4,0.7-2.3l0.1-0.4c0.4-2.6,1.3-5,2.6-7.3l0-0.1c0.2-0.4,0.5-0.8,0.4-1.1c0-0.3-0.1-0.5-0.1-0.5
			c0,0-1.2-0.5-6.2,2.8l0,0c-1.4,1-2.7,1.9-3.4,2.5l-0.5,0.4c-1.9,1.4-3.9,2.6-6.1,3.7c-0.4,0.2-0.9,0.2-1.3-0.1
			c-0.4-0.3-0.6-0.8-0.5-1.2c0.1-0.6,0.2-1.3,0.2-1.7c0.3-6.4-0.4-15.2-6.2-21.4c-0.4-0.5-0.4-1.2,0-1.7c1.4-1.5,2.6-3.3,3.6-5.1
			c0.3-0.6,0.6-1.3,0.5-1.8c0-0.3-0.3-0.5-0.4-0.5c-0.1,0-0.3,0.3-0.7,0.8l-4.2,6.3c-0.2,0.3-0.6,0.6-1,0.6c-0.4,0-0.8-0.2-1-0.5
			l-4.7-6.8c0,0,0-0.1-0.1-0.1c2.6,6.1,5.9,12,9.8,17.4c0.6,0.9,1.3,1.9,1.6,3.1c0.7,3.1-0.2,5.9-1.1,8.6c-0.6,1.9-1.2,3.7-1.1,5.4
			c0,0.1,0,0.1,0,0.2l0,0.1c0.1,0.6-0.3,1.2-0.9,1.4c-1.3,0.3-2.6,0.6-3.7,0.8l-0.4,0.1c-1,0.2-2,0.3-2.8,0.7
			c-2.8,1.5-2.9,5.6-3,9.3c-0.2,6.4-1.6,12.7-4,18.4c-0.2,0.4-0.5,0.6-0.9,0.7C193.5,92.8,186.1,93.7,178.7,93.7z M232.1,50.7
			L232.1,50.7L232.1,50.7z"/>
	</g>
	<g>
		<path class="st0" d="M249.4,74.5c0.4-1.3,0.8-2.5,0.8-3.9c-0.7-0.8-2.2-0.5-2.9,0.4c-1.7,2.1-2.2,4.6-3.5,6.9
			c-0.1,0.2-0.5,0.8-1,1.5c-0.9,0.1-1.8,0.3-2.6,0.5c-0.9,0.2-1.8,0.4-2.7,0.7c-0.2-0.5-0.5-1-0.8-1.5c-2-2.7-3.3-5.7-5.1-8.5
			c-0.6-1-1.7-2-2.7-1.5c-0.3,1.8,0.6,3.6,1.3,5.3c1,2.5,1.9,5.1,2.5,7.8c-2.9,1.3-5.5,3.1-6.8,6c-0.6,1.2-0.9,2.6-1.9,3.6
			c-3.2,3.1-8.2,0.7-11.8,1c-3.4,0.2-8.2,3.9-7,7.9c0.4,1.5,1.9,2.4,3.4,2.7c1.5,0.3,3-0.1,4.5-0.4c3.8-0.8,7.5-1.6,11.3-2.4
			c1.7-0.4,3.5-0.7,4.8-1.8c1.1-0.9,1.8-2.1,2.5-3.3c1.8,1.9,6.7,2.9,8.5,3.9c1,0.6,2.1,1.2,3.2,1.3c1.2,0.2,2.5-0.2,3.1-1.2
			c-2.1-1.6-4.4-2.9-6.7-4.2c-0.9-0.5-4.3-2.8-6.6-3.4c0.6-1.1,1.2-2.1,2.2-2.9c2.4-2,5.9-1.9,8.9-2.7c1.6-0.5,3.4-1.5,3.6-3.2
			c0.1-0.7-0.1-1.3-0.5-1.8c0.1-0.3,0.2-0.6,0.3-0.9C248.1,78.5,248.8,76.5,249.4,74.5z"/>
		<path d="M209.7,104.7c-0.5,0-0.9,0-1.4-0.1c-2.2-0.4-3.9-1.8-4.4-3.6c-0.5-1.8-0.2-3.6,1-5.3c1.6-2.3,4.5-4,7.1-4.2
			c1.3-0.1,2.7,0.1,4.1,0.3c2.7,0.4,5.2,0.8,6.9-0.9c0.5-0.5,0.8-1.3,1.2-2.1c0.2-0.4,0.3-0.7,0.5-1.1c1.2-2.6,3.3-4.6,6.5-6.1
			c-0.6-2.3-1.4-4.5-2.2-6.6l-0.1-0.3c-0.7-1.7-1.5-3.6-1.2-5.7c0.1-0.4,0.3-0.8,0.7-1c1.4-0.6,3.1,0.1,4.3,2
			c0.7,1.2,1.4,2.4,2.1,3.6c0.9,1.7,1.8,3.3,3,4.8c0.2,0.2,0.3,0.5,0.5,0.7c0.6-0.1,1.2-0.3,1.8-0.4c0.7-0.2,1.4-0.3,2.2-0.4
			c0.4-0.6,0.6-0.9,0.6-0.9c0.4-0.8,0.8-1.6,1.1-2.5c0.6-1.6,1.3-3.2,2.5-4.6c0.6-0.8,1.7-1.3,2.7-1.3c0.8,0,1.6,0.3,2.2,0.9
			c0.2,0.2,0.3,0.5,0.3,0.9c0,1.5-0.5,2.9-0.9,4.2l0,0l-1.9,6.2c0.3,0.7,0.5,1.4,0.4,2.1c-0.2,2-1.9,3.6-4.5,4.3c-1,0.3-2,0.4-3,0.6
			c-2.1,0.3-4,0.7-5.4,1.8c-0.4,0.3-0.8,0.8-1.1,1.3c1.8,0.7,3.6,1.9,4.7,2.6c0.3,0.2,0.5,0.3,0.6,0.4c2.3,1.3,4.6,2.7,6.8,4.3
			c0.5,0.4,0.7,1.1,0.3,1.7c-0.8,1.3-2.6,2-4.4,1.7c-1.3-0.2-2.4-0.8-3.4-1.4l-0.2-0.1c-0.5-0.3-1.5-0.6-2.5-1
			c-1.7-0.6-3.6-1.2-5-2.1c-0.5,0.8-1.2,1.7-2.1,2.4c-1.6,1.3-3.7,1.7-5.3,2l-11.3,2.4C212.2,104.4,210.9,104.7,209.7,104.7z
			 M212.7,94c-0.2,0-0.3,0-0.5,0c-1.8,0.1-4.1,1.5-5.2,3.1c-0.7,1.1-1,2.1-0.7,3.2c0.3,1,1.4,1.6,2.4,1.8c1.3,0.2,2.7-0.1,4-0.4
			l11.3-2.4c1.5-0.3,3.1-0.7,4.3-1.6c0.8-0.6,1.4-1.5,2.1-2.9c0.2-0.4,0.5-0.6,0.9-0.7c0.4-0.1,0.8,0.1,1.1,0.4
			c0.9,1,3.3,1.8,5.3,2.5c1.2,0.4,2.2,0.8,2.9,1.1l0.2,0.1c0.9,0.5,1.7,1,2.6,1.1c0.2,0,0.4,0,0.6,0c-1.6-1.1-3.3-2.1-5-3
			c-0.2-0.1-0.4-0.2-0.7-0.4c-1.2-0.8-3.8-2.4-5.6-2.8c-0.4-0.1-0.7-0.3-0.8-0.7c-0.2-0.3-0.2-0.7,0-1.1c0.5-0.9,1.2-2.3,2.5-3.3
			c1.9-1.6,4.3-2,6.6-2.4c1-0.2,1.9-0.3,2.8-0.6c1.2-0.3,2.6-1.1,2.7-2.1c0-0.3-0.1-0.6-0.3-1c-0.2-0.3-0.3-0.7-0.2-1.1l2.1-6.8
			c0.3-0.9,0.5-1.8,0.7-2.7c-0.2,0.1-0.5,0.2-0.6,0.4c-0.9,1.2-1.5,2.5-2.1,4c-0.4,0.9-0.8,1.9-1.3,2.8c0,0.1-0.2,0.3-1,1.6
			c-0.2,0.3-0.6,0.5-0.9,0.6c-0.8,0.1-1.6,0.2-2.4,0.4c-0.9,0.2-1.8,0.4-2.7,0.7c-0.6,0.2-1.2-0.1-1.5-0.7c-0.2-0.4-0.4-0.8-0.7-1.2
			c-1.2-1.6-2.2-3.4-3.1-5.1c-0.6-1.1-1.3-2.3-2-3.4c-0.1-0.2-0.2-0.3-0.3-0.4c0.2,0.9,0.6,1.8,1,2.7l0.1,0.3c1,2.5,1.9,5.2,2.6,8
			c0.1,0.6-0.2,1.2-0.7,1.5c-3.1,1.4-5.1,3.1-6.2,5.3c-0.1,0.3-0.3,0.6-0.4,1c-0.4,1-0.8,2.1-1.7,3c-2.6,2.6-6,2.1-9.1,1.6
			C214.7,94.2,213.7,94,212.7,94z M249.4,74.5L249.4,74.5L249.4,74.5z"/>
	</g>
	<g>
		<path class="st9" d="M245.6,90c-1.1,1.1-1.4,2.9-0.9,4.4c-2.1,0.6-2.7,3.4-2,5.4c0.7,2,2.2,3.7,3,5.7c1,2.7,0.6,5.8,2.1,8.2
			c1.5,2.5,4.7,3.7,7.4,2.7c2.7-0.9,4.5-3.9,4.2-6.7c-0.2-1.5-0.9-2.9-0.7-4.3c0.2-1.4,1.2-2.5,1.5-3.8c0.5-2.2-0.8-4.4-1.1-6.6
			c-0.1-0.6-0.1-1.3-0.3-1.9c-0.5-1.7-2-2.9-3.6-3.5C252.5,88.5,247.7,87.7,245.6,90z"/>
		<path d="M253.3,118c-2.6,0-5.3-1.4-6.6-3.7c-1-1.6-1.2-3.4-1.5-5.1c-0.2-1.2-0.3-2.3-0.7-3.3c-0.3-0.9-0.8-1.7-1.3-2.5
			c-0.6-1-1.2-2-1.6-3.2c-0.6-1.6-0.4-3.5,0.3-5c0.4-0.7,0.8-1.2,1.4-1.6c-0.2-1.6,0.3-3.3,1.4-4.5c2.7-2.9,8.3-1.8,10.9-0.8
			c2.2,0.8,3.8,2.5,4.3,4.3c0.1,0.5,0.2,1,0.3,1.5c0,0.2,0.1,0.4,0.1,0.6c0.1,0.7,0.3,1.3,0.5,2c0.5,1.5,1,3.2,0.6,5
			c-0.2,0.8-0.5,1.4-0.8,2c-0.3,0.6-0.6,1.2-0.7,1.7c-0.1,0.7,0.1,1.5,0.3,2.3c0.1,0.5,0.3,1.1,0.4,1.7c0.5,3.4-1.7,7-5,8.1
			C254.8,117.8,254,118,253.3,118z M249.8,89.8c-1.4,0-2.6,0.3-3.3,1.1l0,0c-0.7,0.8-1,2.1-0.6,3.1c0.1,0.3,0.1,0.7-0.1,1
			c-0.2,0.3-0.4,0.5-0.8,0.6c-0.4,0.1-0.7,0.4-0.9,0.8c-0.4,0.8-0.5,2-0.2,3c0.3,0.9,0.8,1.8,1.4,2.7c0.6,0.9,1.1,1.9,1.5,2.9
			c0.5,1.3,0.7,2.6,0.9,3.8c0.2,1.5,0.4,3,1.1,4.2c1.1,1.9,3.8,2.9,5.9,2.2c2.1-0.7,3.6-3.1,3.3-5.4c-0.1-0.4-0.2-0.9-0.3-1.4
			c-0.3-1-0.5-2.1-0.4-3.3c0.1-0.9,0.5-1.7,0.9-2.4c0.3-0.5,0.5-1,0.6-1.5c0.3-1.1-0.1-2.4-0.5-3.7c-0.2-0.8-0.5-1.5-0.6-2.4
			c0-0.2-0.1-0.5-0.1-0.7c-0.1-0.4-0.1-0.8-0.2-1.1c-0.3-1.1-1.4-2.1-2.8-2.7C253.3,90.2,251.5,89.8,249.8,89.8z M245.6,90L245.6,90
			L245.6,90z"/>
	</g>
	<g>
		<path class="st9" d="M243.9,73.9c4.8,4,9.6,7.9,14.5,11.9c2.1,1.8,5,3.6,7.5,2.5c1.8-0.8,2.6-2.9,3-4.8c0.3-1.9,0.4-4,1.2-5.8
			c0.6-1.3,1.6-2.5,1.5-3.9c-0.1-0.9-0.6-1.6-1.2-2.3c-1.3-1.7-2.8-3.5-4.9-3.7c-0.7-0.1-1.5,0-2.2-0.2c-1.3-0.4-2.1-1.7-3-2.7
			c-2.7-3.2-7.3-4.5-11.3-3.3c-0.9,0.3-1.8,0.7-2.7,0.5c-2.9-0.5-6.4-2.4-7,2.3C238.7,67.6,241.6,72,243.9,73.9z"/>
		<path d="M264.2,89.8c-2.8,0-5.5-2.2-6.6-3.1l-14.5-11.9v0c-2.5-2-5.7-6.9-5.2-10.7c0.2-1.8,0.8-2.9,1.8-3.6
			c1.5-1.1,3.5-0.6,5.2-0.1c0.5,0.1,1,0.2,1.5,0.3c0.4,0.1,1-0.1,1.6-0.3c0.2-0.1,0.3-0.1,0.5-0.2c4.4-1.4,9.6,0.1,12.6,3.7
			c0.2,0.2,0.3,0.4,0.5,0.6c0.6,0.8,1.2,1.5,1.9,1.7c0.3,0.1,0.6,0.1,1,0.1c0.3,0,0.7,0,1,0.1c2.6,0.3,4.3,2.3,5.8,4.2
			c0.5,0.7,1.3,1.7,1.4,2.9c0.2,1.4-0.5,2.6-1.1,3.6c-0.2,0.3-0.3,0.6-0.5,0.9c-0.5,1.1-0.7,2.4-0.8,3.7c-0.1,0.6-0.1,1.2-0.2,1.7
			c-0.4,2-1.3,4.7-3.7,5.8C265.6,89.7,264.9,89.8,264.2,89.8z M244.7,72.9l14.5,11.9c1.7,1.4,4.2,3.2,6.2,2.3
			c1.5-0.7,2.1-2.7,2.3-3.9c0.1-0.5,0.2-1.1,0.2-1.6c0.2-1.5,0.4-3,1.1-4.5c0.2-0.4,0.4-0.7,0.6-1.1c0.5-0.8,0.8-1.5,0.8-2.1
			c-0.1-0.5-0.4-1-0.9-1.7c-1.2-1.5-2.5-3.1-4.1-3.3c-0.2,0-0.5,0-0.7,0c-0.5,0-1.1,0-1.7-0.2c-1.5-0.4-2.4-1.5-3.2-2.6
			c-0.2-0.2-0.3-0.4-0.5-0.6c-2.4-2.8-6.5-4-10-2.9c-0.1,0-0.3,0.1-0.4,0.1c-0.8,0.3-1.8,0.6-2.9,0.4c-0.5-0.1-1.1-0.2-1.6-0.4
			c-1.2-0.3-2.6-0.7-3.2-0.2c-0.5,0.3-0.7,1.2-0.7,1.9C240,67.2,242.7,71.2,244.7,72.9L244.7,72.9z"/>
	</g>
	<g>
		<path class="st9" d="M248.7,34.2c-1,0-2.1,0.1-3-0.4c-0.6-0.3-1.1-0.9-1.6-1.5c-3.5-3.7-10.2-3.7-13.6,0.1
			c-0.7,0.8-1.4,1.8-2.3,2.5c-3.1,2.2-8.1-0.3-11.1,2c-1.5,1.2-2,3.1-2.5,5c-0.4,1.6-0.7,3.3,0.2,4.7c0.4,0.7,1.1,1.1,1.7,1.5
			c4.9,3.2,10.7,1.7,16.4,2.2c6.6,0.6,13.1,2,19.3,4.2c1.4,0.5,2.9,1.1,4.4,0.9C271,54.5,258,34.3,248.7,34.2z"/>
		<path d="M256.5,56.8c-1.5,0-2.9-0.5-4.2-1l-0.2-0.1c-6.1-2.2-12.5-3.6-19-4.1c-1.7-0.1-3.4-0.1-5-0.1c-4,0.1-8.2,0.1-12-2.3
			c-0.8-0.5-1.6-1.1-2.1-1.9c-1.2-1.9-0.7-4.2-0.4-5.7c0.5-2.2,1.1-4.3,2.9-5.7c1.9-1.5,4.3-1.4,6.4-1.3c1.8,0.1,3.6,0.1,4.7-0.7
			c0.5-0.3,0.9-0.9,1.3-1.4c0.2-0.3,0.5-0.6,0.7-0.9c1.9-2.1,4.7-3.3,7.7-3.3c3,0,5.9,1.1,7.7,3.2c0.1,0.1,0.2,0.2,0.3,0.4
			c0.3,0.4,0.6,0.7,0.9,0.9c0.5,0.2,1.1,0.2,1.8,0.2c0.2,0,0.3,0,0.5,0l0,0c7.2,0.1,15.4,10,15.6,16.7c0.1,4.1-2.6,6.7-7.4,7.1
			C256.8,56.8,256.6,56.8,256.5,56.8z M230,49c1.1,0,2.2,0,3.2,0.1c6.7,0.6,13.3,2,19.6,4.3l0.2,0.1c1.3,0.5,2.5,0.9,3.7,0.8
			c3.5-0.3,5.2-1.7,5.1-4.5c-0.2-5.9-7.8-14.2-13.2-14.3c-0.2,0-0.3,0-0.5,0c-1,0-2,0-3.1-0.5c-0.7-0.4-1.2-0.9-1.6-1.4
			c-0.1-0.1-0.2-0.2-0.3-0.3c-1.4-1.5-3.5-2.4-5.8-2.4c0,0,0,0-0.1,0c-2.3,0-4.5,0.9-5.8,2.4c-0.2,0.2-0.4,0.5-0.6,0.8
			c-0.5,0.7-1.1,1.3-1.8,1.9c-1.9,1.4-4.2,1.3-6.3,1.2c-1.9-0.1-3.6-0.1-4.8,0.8c-1.1,0.9-1.6,2.4-2,4.3c-0.3,1.4-0.6,2.8,0,3.7
			c0.3,0.4,0.8,0.8,1.4,1.2c3.1,2.1,6.8,2,10.6,1.9C228.6,49,229.3,49,230,49z"/>
	</g>
	<g>
		<path class="st0" d="M184.9,61.8c0.7,2.8,1.2,5.7,1.4,8.6c0.2,1.7,0.3,3.6,1.2,5.1c1,1.6,2.8,2.6,4.4,3.5c3.1,1.7,6.3,3.3,9.4,5
			c0.3,0.1,0.5,0.3,0.8,0.2c0.5-0.1,0.8-0.6,1-1c0.7-1.5,1.2-3.1,1.5-4.8c0.1-0.6,0.2-1.3,0.1-2c-0.4-1.6-2.4-2.3-4-2.5
			s-3.5,0-4.9-0.8c-1.8-1.1-2.3-3.5-2.2-5.6c0.1-2.1,0.5-4.2,0-6.3c-0.8-2.9-3.1-4.5-4.8-6.7c-1.7-2.2-1.8-3.9-1.4-6.7
			c0.5-3.8,1.1-7.7,2.6-11.2c0.3-0.7,0.6-1.4,0.7-2.1c0.1-0.7-0.2-1.6-0.8-1.9c-0.7-0.4-1.7-0.1-2.3,0.4c-1.4,1.2-1.1,4-3.5,4.1
			c-0.8,0-1.4-0.6-1.8-1.3c-1-1.2-2-2.5-2.9-3.7c-0.4-0.5-0.8-1.1-1.4-1.4c-0.6-0.3-1.3-0.4-2-0.4c-1.1-0.1-2.2-0.2-3.2-0.3
			c0.8,1.1,1.8,2,2.9,2.8c0.6,0.4,1.2,0.8,1.7,1.3c0.7,0.8,1,1.9,1.6,2.7c1.4,2.1,4.5,3.5,4.2,6.5c-0.4,3.5-4.9,2.4-7.2,2.1
			c-0.9-0.1-9.6-1.7-9.7-1.5c-0.3,0.9-0.4,1.9-0.3,2.8c3.8,0.9,7.4,2.2,10.9,3.9C180.6,52.3,184,57.9,184.9,61.8z"/>
		<path d="M202.1,85.4c-0.6,0-1-0.2-1.3-0.4l-9.4-5c-1.7-0.9-3.7-2-4.9-3.9c-1-1.6-1.2-3.6-1.4-5.3l0-0.3c-0.3-2.8-0.8-5.7-1.4-8.4
			l0,0c-0.9-3.7-4.1-8.9-7.2-10.4c-3.4-1.6-7-2.9-10.7-3.8c-0.5-0.1-0.9-0.6-1-1.1c-0.1-1.1,0-2.3,0.4-3.4c0.4-1.1,1.2-1,4-0.5
			c1.5,0.2,3.3,0.6,4.7,0.8c1.1,0.2,2.1,0.4,2.3,0.4c0.3,0,0.6,0.1,0.9,0.1c1.4,0.2,3.6,0.5,4.5-0.1c0.2-0.1,0.4-0.4,0.4-1
			c0.1-1.3-0.7-2.2-2.1-3.6c-0.7-0.6-1.4-1.3-1.9-2.1c-0.3-0.4-0.5-0.9-0.7-1.3c-0.2-0.5-0.5-1-0.8-1.3c-0.3-0.3-0.7-0.6-1.1-0.8
			l-0.4-0.3c-1.2-0.8-2.3-1.9-3.2-3c-0.3-0.4-0.3-0.9-0.1-1.4c0.2-0.4,0.7-0.7,1.2-0.7l3.2,0.3c0.7,0.1,1.6,0.1,2.5,0.6
			c0.8,0.4,1.4,1.2,1.8,1.7l2.9,3.7c0.6,0.7,0.8,0.8,0.8,0.8c0.6,0,0.7-0.2,1.2-1.4c0.3-0.8,0.7-1.7,1.4-2.3c1-1,2.6-1.2,3.7-0.6
			c1,0.6,1.6,1.8,1.4,3.2c-0.1,0.8-0.4,1.6-0.7,2.2l-0.1,0.2c-1.5,3.3-2,7-2.5,10.8c-0.3,2.6-0.2,4,1.2,5.8c0.5,0.6,1,1.2,1.6,1.8
			c1.4,1.5,2.8,3,3.4,5.3c0.4,1.7,0.3,3.3,0.2,4.9c0,0.6-0.1,1.2-0.1,1.7c0,1,0.1,3.5,1.6,4.5c0.8,0.5,2,0.6,3.2,0.6
			c0.4,0,0.8,0,1.1,0.1c2.1,0.2,4.6,1.1,5.2,3.4c0.2,0.9,0.1,1.7-0.1,2.5c-0.4,1.7-0.9,3.4-1.6,5c-0.5,1.1-1.2,1.7-2,1.8
			C202.3,85.3,202.2,85.4,202.1,85.4z M202.2,82.8L202.2,82.8L202.2,82.8z M167.3,45.7c3.5,0.9,7,2.2,10.2,3.7
			c4,1.9,7.6,7.7,8.6,12.1v0c0.7,2.9,1.2,5.8,1.5,8.8l0,0.3c0.2,1.6,0.3,3,1,4.2c0.8,1.4,2.5,2.2,3.9,3l9.4,5c0,0,0-0.1,0.1-0.2
			c0.6-1.4,1.1-3,1.5-4.5c0.1-0.5,0.2-1,0.1-1.4c-0.2-0.9-1.6-1.4-2.9-1.5c-0.3,0-0.7,0-1,0c-1.4-0.1-3-0.1-4.5-1
			c-1.9-1.2-2.9-3.6-2.8-6.7c0-0.6,0.1-1.2,0.1-1.9c0.1-1.4,0.2-2.8-0.1-4c-0.4-1.7-1.6-2.9-2.8-4.2c-0.6-0.6-1.2-1.3-1.8-2
			c-1.9-2.5-2.1-4.5-1.7-7.6c0.5-4,1.1-7.9,2.7-11.5l0.1-0.3c0.2-0.5,0.5-1,0.5-1.5c0-0.3-0.1-0.6-0.2-0.7c-0.1-0.1-0.5,0-0.7,0.3
			c-0.4,0.3-0.6,0.8-0.8,1.4c-0.5,1.2-1.2,2.9-3.5,3c-1.5,0-2.4-1.2-2.9-1.7l-2.9-3.7c-0.3-0.4-0.7-0.9-1-1.1
			c-0.3-0.2-0.7-0.2-1.2-0.3c0.1,0.1,0.2,0.1,0.2,0.2l0.3,0.2c0.5,0.3,1.1,0.7,1.6,1.2c0.5,0.6,0.9,1.3,1.2,1.9
			c0.2,0.4,0.3,0.7,0.5,1c0.4,0.6,0.9,1.1,1.5,1.7c1.4,1.3,3.2,3,2.9,5.7c-0.1,1.1-0.6,2-1.4,2.7c-1.7,1.3-4.4,0.9-6.4,0.6
			c-0.3,0-0.6-0.1-0.8-0.1c-0.3,0-1-0.2-2.4-0.4c-1.6-0.3-4.6-0.8-6.1-1C167.3,45.3,167.3,45.5,167.3,45.7z"/>
	</g>
</g>
<g>
	<g>
		<path class="st9" d="M162.9,37.9c1.7,1,3,2.9,3.1,4.9c1.8,0,5.1,0,6.7,1c0.5,0.3,3.2,3.8,1.7,3.8c2.7,0.1,6.2,0.8,6.5,3.5
			c0.2,1.8-1.3,3.4-3,4c-1.7,0.6-3.5,0.4-5.3,0.2c-3.8-0.2-7.7,0-11.5,0.7c-3,0.6-6.2,1.4-8.9,0c-1.3-0.7-2.3-1.8-3.6-2.6
			c-3.2-1.9-7.2-1.1-10.9-0.8c-1.6,0.1-3.7-0.2-4-1.8c-0.4-2,1.9-2.6,3.1-3.5c0.1-0.1,4.2-3.6,4.3-2.6c-0.2-3.3,2.8-5.3,5.2-6.9
			c2.9-1.9,5.3-0.8,8.5-0.5c2.2,0.2,4.4-0.4,6.5,0.1C161.9,37.3,162.4,37.6,162.9,37.9z"/>
		<path d="M155.7,58c-1.4,0-2.8-0.2-4.1-0.9c-0.8-0.4-1.5-1-2.2-1.5c-0.5-0.4-1-0.8-1.5-1.1c-2.3-1.4-5.2-1.1-8.3-0.8
			c-0.6,0.1-1.2,0.1-1.9,0.2c-2.9,0.2-5-0.9-5.4-2.8c-0.5-2.4,1.5-3.5,2.7-4.2c0.3-0.2,0.7-0.4,0.9-0.6l0.1-0.1
			c1.9-1.5,3-2.3,3.8-2.7c0.4-3.3,3.5-5.3,5.7-6.8c2.6-1.8,5-1.4,7.3-1c0.6,0.1,1.3,0.2,2,0.3c0.8,0.1,1.7,0,2.6,0
			c1.3-0.1,2.7-0.2,4.1,0.1c0.7,0.2,1.4,0.4,2,0.8c0,0,0,0,0,0c1.8,1.1,3.1,2.8,3.5,4.8c3,0,5,0.4,6.3,1.2c0.4,0.2,2.1,2.1,2.6,3.7
			c3.7,0.4,5.9,2,6.2,4.5c0.3,2.5-1.8,4.6-3.9,5.3c-1.8,0.6-3.5,0.5-5.2,0.3l-0.6,0c-3.7-0.2-7.5,0-11.2,0.7l-0.8,0.2
			C159,57.7,157.4,58,155.7,58z M143.4,50.9c2,0,4,0.3,5.8,1.4c0.7,0.4,1.2,0.9,1.8,1.3c0.6,0.5,1.2,0.9,1.8,1.3
			c2.1,1.1,4.7,0.6,7.3,0.1l0.8-0.2c3.9-0.7,7.9-1,11.8-0.7l0.6,0c1.5,0.1,3,0.2,4.3-0.2c1.1-0.4,2.3-1.5,2.1-2.6
			c-0.3-2.1-4.1-2.4-5.3-2.4c0,0,0,0,0,0l0,0c-0.7,0-1.2-0.6-1.2-1.3c0-0.3,0.1-0.5,0.3-0.8c-0.4-0.7-1.1-1.6-1.4-1.9
			c-0.6-0.3-2.1-0.8-5.9-0.8c-0.7,0-1.2-0.5-1.3-1.2c-0.1-1.6-1.1-3.1-2.5-3.9l0,0c-0.4-0.2-0.8-0.4-1.3-0.5c-1-0.2-2.1-0.2-3.3-0.1
			c-1,0.1-2,0.1-3,0c-0.8-0.1-1.5-0.2-2.2-0.3c-2.2-0.3-3.7-0.6-5.5,0.6c-2.3,1.5-4.8,3.2-4.7,5.8c0,0,0,0,0,0l0,0
			c0,0.7-0.5,1.3-1.2,1.3c-0.1,0-0.3,0-0.4,0c-0.4,0.2-1.3,0.8-3.1,2.3l-0.1,0.1c-0.4,0.3-0.8,0.5-1.2,0.7c-1.3,0.8-1.6,1-1.5,1.5
			c0.1,0.6,1.5,0.9,2.7,0.8c0.6,0,1.2-0.1,1.8-0.2C140.7,51,142.1,50.9,143.4,50.9z"/>
	</g>
	<g>
		<path class="st9" d="M141.4,15.3c2.3,0.7,4.4,2.5,4.7,4.8c3.3-1.9,8-0.7,10,2.5c1.3,2.1,1.7,4.9,3.7,6.2c0.9,0.6,2.1,0.8,3.1,1.4
			c2.6,1.7,1.9,6.1-0.6,8c-2.5,1.9-5.8,2.1-8.9,2.2c-5.3,0.2-10.6,0.3-15.8-0.6c-2.8-0.5-5.7-1.3-8.3-0.2c-1.3,0.6-2.3,1.5-3.6,2.1
			c-1.3,0.6-2.9,0.7-4.3,0.4c-2.5-0.7-4.5-3.8-3-5.9c0.3-0.4,0.7-0.7,0.9-1.2c0.5-1.1-0.1-2.4-0.3-3.6c-0.6-3.3,2.7-6.7,6-6.2
			c-0.9-0.1,5.4-7.6,6.1-8.1C134.2,15,137.7,14.2,141.4,15.3z"/>
		<path d="M123,43.6c-0.7,0-1.3-0.1-1.9-0.3c-1.8-0.5-3.5-2-4.2-3.9c-0.5-1.4-0.4-2.9,0.5-4c0.1-0.2,0.3-0.4,0.4-0.5
			c0.2-0.2,0.3-0.3,0.4-0.5c0.2-0.4,0-1-0.2-1.8c-0.1-0.3-0.2-0.7-0.3-1c-0.4-2,0.3-4.1,1.8-5.7c1.3-1.3,2.9-2,4.5-2.1
			c1.5-2.9,6.3-7.8,6.3-7.9c3.7-2.5,7.5-3.2,11.4-2l0,0c2,0.6,4.2,2.1,5.1,4.3c3.7-1.2,8.2,0.3,10.3,3.6c0.5,0.8,0.9,1.7,1.2,2.5
			c0.6,1.4,1.1,2.7,2.1,3.3c0.4,0.2,0.8,0.4,1.3,0.6c0.6,0.2,1.2,0.4,1.8,0.8c1.4,0.9,2.1,2.4,2.2,4.1c0.1,2.2-1,4.6-2.7,5.9
			c-2.9,2.3-6.8,2.4-9.7,2.5c-5,0.2-10.6,0.3-16.1-0.7c-0.3-0.1-0.7-0.1-1-0.2c-2.4-0.5-4.7-0.9-6.6-0.1c-0.6,0.2-1.1,0.6-1.7,1
			c-0.6,0.4-1.2,0.8-1.9,1.1C125.2,43.4,124.1,43.6,123,43.6z M124.2,26.5c-1,0-2,0.5-2.9,1.3c-1,1-1.4,2.3-1.2,3.4
			c0.1,0.3,0.1,0.6,0.2,0.8c0.3,1,0.6,2.3,0,3.5c-0.2,0.4-0.5,0.7-0.7,1c-0.1,0.1-0.2,0.2-0.3,0.3c-0.4,0.6-0.3,1.3-0.1,1.7
			c0.4,1.1,1.4,2,2.5,2.3c1.1,0.3,2.4,0.2,3.4-0.3c0.5-0.2,1-0.6,1.6-0.9c0.6-0.4,1.3-0.9,2-1.2c2.6-1.2,5.5-0.6,8.1-0.1
			c0.3,0.1,0.7,0.1,1,0.2c5.2,0.9,10.7,0.8,15.5,0.6c3.3-0.1,6.1-0.3,8.2-1.9c1.1-0.9,1.8-2.4,1.7-3.8c0-0.7-0.2-1.6-1.1-2.1
			c-0.4-0.2-0.8-0.4-1.3-0.6c-0.5-0.2-1.2-0.4-1.7-0.8c-1.7-1.1-2.5-2.9-3.1-4.5c-0.3-0.8-0.6-1.5-1-2.1c-1.6-2.6-5.6-3.7-8.3-2.1
			c-0.4,0.2-0.8,0.2-1.2,0c-0.4-0.2-0.6-0.6-0.7-1c-0.2-1.9-2.1-3.3-3.8-3.8l0,0c-3.2-0.9-6.2-0.4-9.2,1.7c-0.7,0.6-4.8,5.6-5.6,7
			c0,0.1,0,0.2,0,0.3c-0.1,0.7-0.8,1.1-1.5,1C124.6,26.5,124.4,26.5,124.2,26.5z"/>
	</g>
	<g>
		<path class="st9" d="M87.6,25.1c0.3-1.3,1-2.5,1.7-3.7c2-3.1,4-6.2,5.9-9.4c1.2-1.9,2.6-4,4.8-4.6c3-0.8,6.3,1.5,9.3,0.5
			c1.6-0.5,2.9-2.1,4.6-2.2c3.3-0.3,5.1,4.2,8.4,4.8c0.9,0.2,1.9,0,2.8,0.1c1.7,0.2,3.3,1.6,3.8,3.3c0.2,0.8,0.3,1.7,0.8,2.2
			c0.4,0.4,1,0.5,1.6,0.7c2.3,0.8,4.1,3.6,2.8,5.7c-0.4,0.6-1.1,1.1-1.7,1.5c-8.7,5.4-17.8,2.6-27,4.8c-3.4,0.8-6.2,3-9.4,4.3
			C91,35.2,86.5,30.8,87.6,25.1z"/>
		<path d="M93.7,35c-1.7,0-3.3-0.6-4.6-1.7c-2.3-2-3.3-5.1-2.6-8.4l0,0c0.3-1.6,1.2-2.9,1.9-4.1l5.9-9.4c1.4-2.2,3-4.4,5.5-5.1
			c1.8-0.5,3.5-0.1,5.2,0.3c1.5,0.3,2.9,0.7,4.1,0.3c0.5-0.2,1.1-0.5,1.7-0.9c0.9-0.6,2-1.3,3.3-1.4c2.4-0.2,4,1.3,5.5,2.7
			c1.1,1,2.1,1.9,3.2,2.2c0.4,0.1,0.8,0.1,1.3,0.1c0.5,0,1,0,1.5,0.1c2.3,0.3,4.2,2,4.8,4.2c0.1,0.2,0.1,0.4,0.2,0.7
			c0.1,0.4,0.2,0.8,0.3,1c0.1,0.1,0.5,0.2,0.8,0.3l0.3,0.1c1.7,0.6,3.2,2.1,3.8,3.8c0.5,1.3,0.3,2.7-0.4,3.8
			c-0.5,0.9-1.3,1.4-2.1,1.9c-5.7,3.5-11.5,3.7-17.2,3.9c-3.3,0.1-6.8,0.2-10.2,1.1c-1.8,0.4-3.5,1.3-5.2,2.3c-1.3,0.7-2.6,1.4-4,2
			C95.6,34.8,94.6,35,93.7,35z M101.5,8.5c-0.4,0-0.7,0-1.1,0.1c-1.7,0.5-2.9,2.2-4.1,4l-5.9,9.4c-0.7,1-1.3,2.1-1.6,3.3h0
			c-0.5,2.4,0.2,4.7,1.8,6c1.4,1.2,3.2,1.4,5,0.7c1.3-0.5,2.5-1.1,3.7-1.8c1.8-1,3.7-2,5.8-2.5c3.6-0.9,7.2-1,10.7-1.1
			c5.6-0.2,10.9-0.4,16-3.5c0.5-0.3,1-0.7,1.3-1.1c0.3-0.4,0.3-1,0.1-1.6c-0.3-1-1.3-1.9-2.3-2.2l-0.3-0.1c-0.5-0.2-1.2-0.4-1.8-0.9
			c-0.7-0.7-0.9-1.6-1.1-2.3c0-0.2-0.1-0.3-0.1-0.5c-0.3-1.2-1.5-2.2-2.7-2.4c-0.3,0-0.7,0-1.1,0c-0.5,0-1.1,0-1.8-0.1
			c-1.8-0.4-3.2-1.6-4.5-2.8c-1.2-1.2-2.3-2.2-3.6-2c-0.7,0.1-1.4,0.5-2.1,1c-0.7,0.4-1.4,0.9-2.2,1.2c-1.9,0.6-3.8,0.2-5.4-0.2
			C103.4,8.8,102.4,8.5,101.5,8.5z M87.6,25.1L87.6,25.1L87.6,25.1z"/>
	</g>
	<g>
		<path class="st9" d="M85.4,67.5c0.6-1.4,0.9-2.9,1.5-4.3c1.6-3.9,5.8-6.8,10-6.4c2.1,0.2,4,1.2,5.9,2.2c0.9,0.5,1.8,0.9,2.7,1.4
			c0.5,0.3,1.1,0.6,1.5,1c0.4,0.4,0.5,1,0.6,1.5c0.4,2.7-1.8,5.1-3.8,7c-2,1.9-4,3.8-6,5.8c-0.7,0.7-1.4,1.3-2.2,1.8
			c-2.8,1.6-7.4,0.2-10-1.5C82.1,73.7,84,70.6,85.4,67.5z"/>
		<path d="M92.7,79.4c-2.8,0-5.9-1.2-7.7-2.4c-4.2-2.7-2.4-6.5-1.1-9.4l0.3-0.7l0,0c0.3-0.7,0.5-1.4,0.8-2.2
			c0.2-0.7,0.5-1.4,0.7-2.1c1.9-4.6,6.7-7.7,11.3-7.2c2.3,0.3,4.5,1.3,6.3,2.3l2.7,1.4c0.6,0.3,1.3,0.7,1.9,1.4
			c0.5,0.6,0.8,1.3,0.9,2.2c0.4,3.2-1.7,5.8-4.1,8.1l-6,5.8c-0.7,0.7-1.5,1.4-2.5,2C95.2,79.2,93.9,79.4,92.7,79.4z M86.5,68
			l-0.3,0.7c-1.5,3.3-1.9,4.8,0.2,6.2c2.6,1.6,6.5,2.6,8.7,1.4c0.7-0.4,1.3-1,2-1.6l6-5.8c1.9-1.9,3.7-3.9,3.4-5.9
			c0-0.4-0.2-0.7-0.3-0.9c-0.2-0.3-0.7-0.5-1.1-0.7l-2.7-1.4c-1.7-0.9-3.6-1.8-5.4-2c-3.5-0.4-7.2,2.1-8.7,5.6
			c-0.3,0.6-0.5,1.2-0.7,1.9C87.1,66.4,86.9,67.2,86.5,68z"/>
	</g>
	<g>
		<path class="st0" d="M90.2,50.7c1.8,1.2,3.4,2.5,3.9,2.9C96,55,98,56.1,100,57.1c-0.1-0.6-0.2-1.3-0.2-1.9
			c-0.4-8,1.1-16.5,6.5-22.3c-1.5-1.6-2.8-3.4-3.8-5.4c-0.4-0.8-0.8-1.7-0.6-2.6s0.9-1.7,1.8-1.6c0.7,0.1,1.1,0.7,1.5,1.3
			c1.4,2.1,2.8,4.2,4.2,6.3c1.6-2.3,3.1-4.5,4.7-6.8c0.4-0.6,0.8-1.1,1.4-1.4c0.6-0.2,1.5,0.2,1.5,0.8c-2.8,6.8-6.4,13.3-10.6,19.3
			c-0.6,0.8-1.2,1.7-1.4,2.6c-1.1,4.8,2.4,9.3,2.3,13.8c0,0.1,0,0.3,0,0.4c1.2,0.3,2.4,0.6,3.6,0.8c1.2,0.2,2.4,0.3,3.5,0.9
			c3.4,1.8,3.6,6.5,3.7,10.4c0.2,6.1,1.5,12.3,3.9,17.9c7.5,1.9,15.2,2.8,22.9,2.6c0.4,6.6-3.4,13.3-9.3,16.2c-6,3-14.9-1.3-20-5.7
			c-4.8-4.2-6.2-11.1-6.9-17.4c-0.5-4.4-0.8-8.9-2.4-13.1c-2.2-6.2-5.1-4.4-10.7-6.5c-2.1-0.8-4.2-1.6-6.3-2.3
			c-1.3-0.5-2.6-1-3.4-2.1c-0.6-0.9-0.8-2.1-1-3.3c-0.4-2.4-1.2-4.7-2.5-6.9c-0.3-0.6-0.7-1.2-0.7-1.9C82.1,46,86.7,48.4,90.2,50.7z
			"/>
		<path d="M131,110.9c-5.9,0-12.5-3.8-16.3-7c-5.1-4.5-6.6-11.7-7.3-18.2c-0.1-0.6-0.1-1.2-0.2-1.7c-0.4-3.7-0.8-7.6-2.1-11.1
			c-1.4-3.7-2.7-4-5.6-4.6c-1.3-0.3-2.7-0.6-4.4-1.2l-6.3-2.3c-1.2-0.5-2.9-1.1-4-2.6c-0.7-1.1-0.9-2.3-1.1-3.3l-0.1-0.4
			c-0.4-2.3-1.2-4.5-2.3-6.5l0-0.1c-0.4-0.7-0.8-1.5-0.8-2.5c0.1-1.6,0.9-2.3,1.5-2.6c1.7-0.8,4.4,0.1,8.7,3c1.5,1,2.8,2,3.5,2.6
			l0.4,0.3c1.2,0.9,2.4,1.6,3.6,2.3c-0.3-6.5,0.6-15.4,6.1-22.1c-1.3-1.5-2.3-3.1-3.2-4.8c-0.5-0.9-0.9-2.1-0.8-3.3
			c0.1-0.8,0.6-1.7,1.3-2.2c0.6-0.4,1.3-0.6,2-0.5c1.3,0.2,2,1.3,2.3,1.9l3.1,4.8l3.6-5.3c0.4-0.6,1-1.5,2.1-1.8
			c0.8-0.3,1.6-0.1,2.3,0.4c0.6,0.4,0.9,1,0.9,1.7c0,0.2,0,0.3-0.1,0.5c-2.8,6.9-6.4,13.4-10.7,19.5c-0.6,0.8-1,1.5-1.2,2.2
			c-0.5,2.4,0.2,4.8,1,7.3c0.6,1.8,1.2,3.7,1.3,5.6c0.9,0.2,1.7,0.4,2.5,0.5l0.4,0.1c1.2,0.2,2.4,0.4,3.5,1
			c4.1,2.1,4.2,7.3,4.4,11.4c0.2,5.9,1.4,11.7,3.6,17c7.2,1.8,14.5,2.6,21.9,2.4c0.7,0,1.2,0.5,1.3,1.2c0.5,7.1-3.6,14.2-10,17.4
			C134.5,110.5,132.8,110.9,131,110.9z M83.6,48.9c-0.2,0-0.3,0-0.3,0c0,0-0.1,0.2-0.1,0.5c0,0.3,0.2,0.7,0.5,1.1l0,0.1
			c1.3,2.3,2.2,4.7,2.6,7.3l0.1,0.4c0.1,0.9,0.3,1.7,0.7,2.3c0.5,0.8,1.6,1.2,2.8,1.6l6.3,2.3c1.5,0.6,2.8,0.8,4,1.1
			c3.1,0.6,5.6,1.2,7.4,6.2c1.4,3.8,1.8,7.8,2.2,11.7c0.1,0.6,0.1,1.1,0.2,1.7c0.7,6.3,2,12.7,6.5,16.6c5.3,4.6,13.5,8.1,18.6,5.5
			c5.1-2.6,8.5-8.1,8.6-13.8c-7.4,0-14.8-0.9-21.9-2.7c-0.4-0.1-0.7-0.4-0.9-0.7c-2.4-5.7-3.8-12.1-4-18.4c-0.1-3.7-0.3-7.9-3-9.3
			c-0.8-0.4-1.7-0.6-2.8-0.7l-0.4-0.1c-1.2-0.2-2.4-0.4-3.7-0.8c-0.6-0.2-1-0.7-0.9-1.4l0-0.1c0-0.1,0-0.1,0-0.2
			c0-1.7-0.5-3.5-1.1-5.4c-0.9-2.7-1.8-5.5-1.1-8.6c0.3-1.2,1-2.2,1.6-3.1c3.9-5.5,7.2-11.3,9.8-17.5c0,0,0,0.1-0.1,0.1l-4.7,6.8
			c-0.2,0.3-0.6,0.6-1,0.5c-0.4,0-0.8-0.2-1-0.6l-4.2-6.3c-0.4-0.6-0.6-0.8-0.7-0.8c-0.1,0-0.3,0.2-0.3,0.5
			c-0.1,0.5,0.2,1.2,0.5,1.8c0.9,1.9,2.1,3.6,3.6,5.1c0.4,0.5,0.4,1.2,0,1.7c-5.7,6.2-6.5,15.1-6.2,21.4c0,0.5,0.1,1.1,0.2,1.7
			c0.1,0.5-0.1,1-0.5,1.2c-0.4,0.3-0.9,0.3-1.3,0.1c-2.1-1-4.2-2.3-6.1-3.7l-0.5-0.4c-0.7-0.6-2-1.5-3.4-2.5h0
			C85.8,49.3,84.2,48.9,83.6,48.9z"/>
	</g>
	<g>
		<path class="st0" d="M72.9,74.5c-0.4-1.3-0.8-2.5-0.8-3.9c0.7-0.8,2.2-0.5,2.9,0.4c1.7,2.1,2.2,4.6,3.5,6.9c0.1,0.2,0.5,0.8,1,1.5
			c0.9,0.1,1.8,0.3,2.6,0.5c0.9,0.2,1.8,0.4,2.7,0.7c0.2-0.5,0.5-1,0.8-1.5c2-2.7,3.3-5.7,5.1-8.5c0.6-1,1.7-2,2.7-1.5
			c0.3,1.8-0.6,3.6-1.3,5.3c-1,2.5-1.9,5.1-2.5,7.8c2.9,1.3,5.5,3.1,6.8,6c0.6,1.2,0.9,2.6,1.9,3.6c3.2,3.1,8.2,0.7,11.8,1
			c3.4,0.2,8.2,3.9,7,7.9c-0.4,1.5-1.9,2.4-3.4,2.7c-1.5,0.3-3-0.1-4.5-0.4c-3.8-0.8-7.5-1.6-11.3-2.4c-1.7-0.4-3.5-0.7-4.8-1.8
			c-1.1-0.9-1.8-2.1-2.5-3.3c-1.8,1.9-6.7,2.9-8.5,3.9c-1,0.6-2.1,1.2-3.2,1.3c-1.2,0.2-2.5-0.2-3.1-1.2c2.1-1.6,4.4-2.9,6.7-4.2
			c0.9-0.5,4.3-2.8,6.6-3.4c-0.6-1.1-1.2-2.1-2.2-2.9c-2.4-2-5.9-1.9-8.9-2.7c-1.6-0.5-3.4-1.5-3.6-3.2c-0.1-0.7,0.1-1.3,0.5-1.8
			c-0.1-0.3-0.2-0.6-0.3-0.9C74.1,78.5,73.5,76.5,72.9,74.5z"/>
		<path d="M112.6,104.7c-1.3,0-2.5-0.3-3.6-0.5l-11.3-2.4c-1.7-0.4-3.7-0.8-5.3-2c-0.9-0.7-1.6-1.6-2.1-2.4c-1.4,0.9-3.3,1.5-5,2.1
			c-1,0.4-2,0.7-2.5,1l-0.2,0.1c-1,0.6-2.1,1.2-3.4,1.4c-1.8,0.3-3.5-0.4-4.4-1.7c-0.3-0.6-0.2-1.3,0.3-1.7c2.2-1.6,4.5-3,6.8-4.3
			c0.1-0.1,0.4-0.2,0.7-0.4c1.1-0.7,3-1.8,4.7-2.6c-0.3-0.5-0.7-0.9-1.1-1.3c-1.4-1.2-3.3-1.5-5.4-1.8c-1-0.2-2-0.3-3-0.6
			c-2.6-0.7-4.3-2.3-4.5-4.3c-0.1-0.7,0.1-1.4,0.4-2.1l-1.9-6.2c-0.4-1.3-0.8-2.7-0.9-4.2c0-0.3,0.1-0.6,0.3-0.9
			c0.5-0.6,1.3-0.9,2.2-0.9c1,0,2,0.5,2.7,1.3c1.2,1.4,1.8,3,2.5,4.6c0.4,0.9,0.7,1.7,1.1,2.5c0,0.1,0.2,0.3,0.6,0.9
			c0.7,0.1,1.4,0.3,2.2,0.4c0.6,0.1,1.2,0.3,1.8,0.4c0.2-0.3,0.3-0.5,0.5-0.7c1.1-1.5,2-3.1,3-4.8c0.6-1.2,1.3-2.4,2.1-3.6
			c1.2-1.9,2.8-2.7,4.3-2c0.4,0.2,0.7,0.5,0.7,1c0.3,2.1-0.5,4-1.2,5.7L93.3,75c-0.9,2.1-1.6,4.3-2.2,6.6c3.1,1.6,5.2,3.6,6.5,6.1
			c0.2,0.4,0.3,0.7,0.5,1.1c0.3,0.8,0.6,1.6,1.2,2.1c1.7,1.7,4.2,1.3,6.9,0.9c1.4-0.2,2.8-0.4,4.1-0.3c2.6,0.2,5.5,1.9,7.1,4.2
			c1.2,1.7,1.5,3.5,1,5.3c-0.5,1.8-2.2,3.2-4.3,3.6C113.5,104.7,113,104.7,112.6,104.7z M90.7,94.2c0.1,0,0.1,0,0.2,0
			c0.4,0.1,0.8,0.3,0.9,0.7c0.7,1.4,1.3,2.3,2.1,2.9c1.2,0.9,2.8,1.3,4.3,1.6l11.3,2.4c1.3,0.3,2.7,0.6,4,0.4
			c0.9-0.2,2.1-0.8,2.3-1.8c0.3-1.1,0.1-2.1-0.6-3.2c-1.1-1.6-3.4-3-5.2-3.1c-1-0.1-2.3,0.1-3.6,0.3c-3,0.5-6.5,1-9.1-1.6
			c-0.9-0.9-1.3-2-1.7-3c-0.1-0.3-0.3-0.7-0.4-1c-1.1-2.2-3.1-4-6.2-5.3c-0.6-0.2-0.9-0.9-0.7-1.5c0.7-2.8,1.6-5.4,2.6-8l0.1-0.3
			c0.4-0.9,0.8-1.9,1-2.7c-0.1,0.1-0.2,0.3-0.3,0.4c-0.7,1.1-1.3,2.3-2,3.4c-0.9,1.7-1.9,3.5-3.1,5.1c-0.3,0.4-0.5,0.8-0.7,1.2
			c-0.2,0.6-0.9,0.9-1.5,0.7c-0.9-0.2-1.8-0.5-2.7-0.7c-0.8-0.2-1.7-0.4-2.4-0.4c-0.4,0-0.7-0.2-0.9-0.6c-0.9-1.3-1-1.5-1-1.6
			c-0.5-0.9-0.9-1.9-1.3-2.8c-0.6-1.4-1.2-2.8-2.1-4c-0.1-0.2-0.4-0.3-0.6-0.4c0.1,0.9,0.4,1.8,0.7,2.7l2.1,6.8
			c0.1,0.4,0.1,0.8-0.2,1.1c-0.2,0.3-0.3,0.7-0.3,1c0.1,1.1,1.5,1.8,2.7,2.1c0.9,0.2,1.8,0.4,2.8,0.6c2.3,0.4,4.7,0.8,6.6,2.4
			c1.2,1,2,2.4,2.5,3.3c0.2,0.3,0.2,0.7,0,1.1c-0.2,0.3-0.5,0.6-0.8,0.7c-1.7,0.4-4.3,2-5.5,2.8c-0.3,0.2-0.6,0.3-0.7,0.4
			c-1.7,1-3.4,1.9-5,3c0.2,0,0.4,0,0.6,0c0.9-0.1,1.7-0.6,2.6-1.1l0.2-0.1c0.7-0.4,1.7-0.7,2.9-1.1c1.9-0.7,4.3-1.5,5.3-2.5
			C90,94.3,90.4,94.2,90.7,94.2z"/>
	</g>
	<g>
		<path class="st9" d="M76.7,90c1.1,1.1,1.4,2.9,0.9,4.4c2.1,0.6,2.7,3.4,2,5.4c-0.7,2-2.2,3.7-3,5.7c-1,2.7-0.6,5.8-2.1,8.2
			c-1.5,2.5-4.7,3.7-7.4,2.7c-2.7-0.9-4.5-3.9-4.2-6.7c0.2-1.5,0.9-2.9,0.7-4.3c-0.2-1.4-1.2-2.5-1.5-3.8c-0.5-2.2,0.8-4.4,1.1-6.6
			c0.1-0.6,0.1-1.3,0.3-1.9c0.5-1.7,2-2.9,3.6-3.5C69.8,88.5,74.6,87.7,76.7,90z"/>
		<path d="M69,118c-0.8,0-1.6-0.1-2.3-0.4c-3.2-1.1-5.4-4.7-5-8.1c0.1-0.6,0.2-1.2,0.4-1.7c0.2-0.8,0.4-1.6,0.3-2.3
			c-0.1-0.5-0.4-1.1-0.7-1.7c-0.3-0.6-0.6-1.3-0.8-2c-0.4-1.8,0.1-3.5,0.6-5c0.2-0.7,0.4-1.4,0.5-2c0-0.2,0.1-0.4,0.1-0.6
			c0.1-0.5,0.1-0.9,0.3-1.4c0.5-1.9,2.2-3.5,4.3-4.3c2.6-1,8.2-2.1,10.9,0.8c1.1,1.2,1.6,2.9,1.4,4.5c0.6,0.4,1,0.9,1.4,1.6
			c0.8,1.4,0.9,3.3,0.3,5c-0.4,1.2-1,2.2-1.6,3.2c-0.5,0.9-1,1.7-1.3,2.5c-0.4,1-0.5,2.1-0.7,3.3c-0.3,1.7-0.5,3.5-1.5,5.1
			C74.3,116.6,71.6,118,69,118z M72.4,89.8c-1.6,0-3.5,0.4-4.8,0.9c-1.4,0.6-2.5,1.6-2.8,2.7c-0.1,0.3-0.1,0.7-0.2,1.1
			c0,0.2-0.1,0.5-0.1,0.7c-0.1,0.8-0.4,1.6-0.6,2.4c-0.4,1.3-0.8,2.6-0.5,3.7c0.1,0.5,0.4,1,0.6,1.5c0.4,0.7,0.8,1.5,0.9,2.4
			c0.2,1.2-0.1,2.3-0.4,3.3c-0.1,0.5-0.3,1-0.3,1.4c-0.3,2.2,1.2,4.6,3.3,5.4c2.1,0.7,4.8-0.2,5.9-2.2c0.7-1.2,0.9-2.6,1.1-4.2
			c0.2-1.3,0.4-2.6,0.9-3.8c0.4-1.1,1-2,1.5-2.9c0.6-0.9,1.1-1.8,1.4-2.7c0.3-1,0.3-2.2-0.2-3c-0.2-0.4-0.6-0.7-0.9-0.8
			c-0.3-0.1-0.6-0.3-0.8-0.6c-0.2-0.3-0.2-0.7-0.1-1c0.4-1,0.1-2.3-0.6-3.1c0,0,0,0,0,0C75.1,90.1,73.8,89.8,72.4,89.8z"/>
	</g>
	<g>
		<path class="st9" d="M78.4,73.9c-4.8,4-9.6,7.9-14.5,11.9c-2.1,1.8-5,3.6-7.5,2.5c-1.8-0.8-2.6-2.9-3-4.8c-0.3-1.9-0.4-4-1.2-5.8
			c-0.6-1.3-1.6-2.5-1.5-3.9c0.1-0.9,0.6-1.6,1.2-2.3c1.3-1.7,2.8-3.5,4.9-3.7c0.7-0.1,1.5,0,2.2-0.2c1.3-0.4,2.1-1.7,3-2.7
			c2.7-3.2,7.3-4.5,11.3-3.3c0.9,0.3,1.8,0.7,2.7,0.5c2.9-0.5,6.4-2.4,7,2.3C83.5,67.6,80.7,72,78.4,73.9z"/>
		<path d="M58.1,89.8c-0.7,0-1.4-0.1-2.2-0.5c-2.4-1.1-3.4-3.7-3.7-5.8C52.1,83,52,82.4,52,81.9c-0.2-1.4-0.3-2.6-0.8-3.7
			c-0.1-0.3-0.3-0.6-0.5-0.9c-0.6-1-1.3-2.2-1.1-3.6c0.1-1.2,0.9-2.2,1.4-2.9c1.4-1.9,3.2-3.9,5.8-4.2c0.3,0,0.7,0,1-0.1
			c0.4,0,0.7,0,1-0.1c0.7-0.2,1.3-0.9,1.9-1.7c0.2-0.2,0.3-0.4,0.5-0.6c3-3.5,8.2-5.1,12.6-3.7c0.2,0,0.3,0.1,0.5,0.2
			c0.6,0.2,1.2,0.4,1.6,0.3c0.5-0.1,1-0.2,1.5-0.3c1.7-0.4,3.7-0.9,5.2,0.1c1,0.7,1.6,1.9,1.8,3.6c0.5,3.8-2.7,8.6-5.2,10.7
			L64.7,86.7C63.6,87.7,60.9,89.8,58.1,89.8z M70.4,62.3c-2.8,0-5.5,1.2-7.3,3.3c-0.2,0.2-0.3,0.4-0.5,0.6c-0.8,1-1.7,2.1-3.2,2.6
			c-0.6,0.2-1.2,0.2-1.7,0.2c-0.2,0-0.5,0-0.7,0c-1.6,0.2-2.9,1.7-4.1,3.3c-0.5,0.6-0.9,1.2-0.9,1.7c-0.1,0.6,0.3,1.3,0.8,2.1
			c0.2,0.4,0.4,0.7,0.6,1.1c0.7,1.5,0.9,3,1.1,4.5c0.1,0.5,0.1,1.1,0.2,1.6c0.2,1.2,0.8,3.2,2.3,3.9c1.9,0.9,4.4-0.9,6.2-2.3
			l14.5-11.9c0,0,0,0,0,0c2-1.7,4.7-5.7,4.3-8.4c-0.1-0.7-0.3-1.5-0.7-1.9c-0.6-0.4-2-0.1-3.2,0.2c-0.5,0.1-1.1,0.3-1.6,0.4
			c-1.1,0.2-2-0.1-2.9-0.4c-0.1,0-0.3-0.1-0.4-0.1C72.2,62.4,71.3,62.3,70.4,62.3z"/>
	</g>
	<g>
		<path class="st9" d="M73.6,34.2c1,0,2.1,0.1,3-0.4c0.6-0.3,1.1-0.9,1.6-1.5c3.5-3.7,10.2-3.7,13.6,0.1c0.7,0.8,1.4,1.8,2.3,2.5
			c3.1,2.2,8.1-0.3,11.1,2c1.5,1.2,2,3.1,2.5,5c0.4,1.6,0.7,3.3-0.2,4.7c-0.4,0.7-1.1,1.1-1.7,1.5c-4.9,3.2-10.7,1.7-16.4,2.2
			c-6.6,0.6-13.1,2-19.3,4.2c-1.4,0.5-2.9,1.1-4.4,0.9C51.3,54.5,64.3,34.3,73.6,34.2z"/>
		<path d="M65.8,56.8c-0.2,0-0.3,0-0.5,0c-4.8-0.4-7.5-2.9-7.4-7.1C58.1,43,66.4,33.1,73.6,33h0c0.2,0,0.3,0,0.5,0
			c0.7,0,1.4,0,1.8-0.2c0.3-0.2,0.6-0.5,0.9-0.9c0.1-0.1,0.2-0.2,0.3-0.4c1.9-2,4.7-3.2,7.7-3.2c3,0,5.8,1.2,7.7,3.3
			c0.3,0.3,0.5,0.6,0.7,0.9c0.4,0.5,0.9,1.1,1.3,1.4c1.2,0.9,2.9,0.8,4.7,0.7c2.1-0.1,4.5-0.2,6.4,1.3c1.9,1.5,2.5,4,2.9,5.7
			c0.4,1.8,0.8,3.9-0.4,5.7c-0.6,0.8-1.3,1.4-2.1,1.9c-3.8,2.5-8,2.4-12,2.3c-1.7,0-3.4-0.1-5,0.1c-6.5,0.6-12.9,2-19,4.1L70,55.8
			C68.7,56.3,67.3,56.8,65.8,56.8z M73.6,35.5L73.6,35.5c-5.3,0.1-13,8.3-13.2,14.3c-0.1,2.8,1.6,4.2,5.1,4.5
			c1.2,0.1,2.4-0.3,3.7-0.8l0.2-0.1c6.3-2.2,12.9-3.7,19.6-4.3c1.8-0.2,3.6-0.1,5.3-0.1c3.8,0.1,7.4,0.1,10.6-1.9
			c0.6-0.4,1.1-0.7,1.4-1.2c0.6-0.9,0.3-2.3,0-3.7c-0.4-1.8-0.9-3.4-2-4.3c-1.2-0.9-2.9-0.8-4.8-0.8c-2.1,0.1-4.4,0.2-6.3-1.2
			c-0.8-0.5-1.3-1.2-1.8-1.9c-0.2-0.3-0.4-0.5-0.6-0.8c-1.4-1.5-3.5-2.4-5.8-2.4c-2.4,0-4.5,0.9-5.9,2.4c-0.1,0.1-0.2,0.2-0.3,0.3
			c-0.4,0.5-0.9,1-1.6,1.4c-1,0.6-2.1,0.6-3.1,0.5C73.9,35.5,73.7,35.5,73.6,35.5z"/>
	</g>
	<g>
		<path class="st0" d="M137.4,61.8c-0.7,2.8-1.2,5.7-1.4,8.6c-0.2,1.7-0.3,3.6-1.2,5.1c-1,1.6-2.8,2.6-4.4,3.5
			c-3.1,1.7-6.3,3.3-9.4,5c-0.3,0.1-0.5,0.3-0.8,0.2c-0.5-0.1-0.8-0.6-1-1c-0.7-1.5-1.2-3.1-1.5-4.8c-0.1-0.6-0.2-1.3-0.1-2
			c0.4-1.6,2.4-2.3,4-2.5s3.5,0,4.9-0.8c1.8-1.1,2.3-3.5,2.2-5.6c-0.1-2.1-0.5-4.2,0-6.3c0.8-2.9,3.1-4.5,4.8-6.7
			c1.7-2.2,1.8-3.9,1.4-6.7c-0.5-3.8-1.1-7.7-2.6-11.2c-0.3-0.7-0.6-1.4-0.7-2.1c-0.1-0.7,0.2-1.6,0.8-1.9c0.7-0.4,1.7-0.1,2.3,0.4
			c1.4,1.2,1.1,4,3.5,4.1c0.8,0,1.4-0.6,1.8-1.3c1-1.2,2-2.5,2.9-3.7c0.4-0.5,0.8-1.1,1.4-1.4c0.6-0.3,1.3-0.4,2-0.4
			c1.1-0.1,2.2-0.2,3.2-0.3c-0.8,1.1-1.8,2-2.9,2.8c-0.6,0.4-1.2,0.8-1.7,1.3c-0.7,0.8-1,1.9-1.6,2.7c-1.4,2.1-4.5,3.5-4.2,6.5
			c0.4,3.5,4.9,2.4,7.2,2.1c0.9-0.1,9.6-1.7,9.7-1.5c0.3,0.9,0.4,1.9,0.3,2.8c-3.8,0.9-7.4,2.2-10.9,3.9
			C141.6,52.3,138.3,57.9,137.4,61.8z"/>
		<path d="M120.1,85.4c-0.1,0-0.1,0-0.2,0c-0.9-0.1-1.5-0.7-2-1.8c-0.7-1.6-1.3-3.3-1.6-5c-0.2-0.8-0.3-1.7-0.1-2.5
			c0.6-2.3,3-3.2,5.2-3.4c0.4,0,0.8,0,1.1-0.1c1.2,0,2.4-0.1,3.2-0.6c1.6-1,1.7-3.5,1.6-4.5c0-0.6-0.1-1.2-0.1-1.7
			c-0.1-1.6-0.3-3.2,0.2-4.9c0.6-2.3,2-3.8,3.4-5.3c0.6-0.6,1.1-1.2,1.6-1.8c1.4-1.8,1.5-3.2,1.2-5.8c-0.5-3.8-1-7.5-2.5-10.8
			l-0.1-0.2c-0.3-0.6-0.6-1.4-0.7-2.2c-0.1-1.3,0.4-2.6,1.4-3.2c1.1-0.7,2.7-0.4,3.8,0.6c0.7,0.6,1.1,1.5,1.4,2.3
			c0.5,1.2,0.7,1.4,1.2,1.4c0.1,0,0.3-0.1,0.8-0.8l2.9-3.7c0.4-0.6,1-1.3,1.8-1.7c0.8-0.5,1.7-0.5,2.5-0.6l3.2-0.3
			c0.5,0,1,0.2,1.2,0.7c0.2,0.4,0.2,1-0.1,1.4c-0.9,1.2-2,2.2-3.2,3l-0.4,0.3c-0.4,0.3-0.8,0.5-1.1,0.8c-0.3,0.3-0.5,0.8-0.8,1.3
			c-0.2,0.4-0.4,0.9-0.7,1.3c-0.5,0.8-1.2,1.4-1.9,2.1c-1.4,1.3-2.3,2.3-2.1,3.6c0.1,0.6,0.3,0.8,0.4,1c0.9,0.7,3,0.4,4.5,0.1
			c0.3,0,0.6-0.1,0.9-0.1c0.2,0,1.2-0.2,2.3-0.4c1.4-0.3,3.3-0.6,4.7-0.8c2.8-0.4,3.6-0.6,4,0.5c0.4,1.1,0.5,2.2,0.4,3.4
			c-0.1,0.5-0.4,1-1,1.1c-3.7,0.9-7.3,2.2-10.7,3.8c-3.2,1.5-6.4,6.7-7.2,10.4c0,0,0,0,0,0c-0.7,2.8-1.1,5.6-1.4,8.4l0,0.3
			c-0.2,1.7-0.3,3.6-1.4,5.3c-1.2,2-3.3,3.1-4.9,3.9l-9.4,5C121.2,85.1,120.7,85.4,120.1,85.4z M133.1,33.7c-0.1,0-0.1,0-0.1,0
			c-0.1,0.1-0.2,0.4-0.2,0.7c0,0.4,0.3,0.9,0.5,1.5l0.1,0.2c1.6,3.6,2.2,7.5,2.7,11.5c0.4,3.1,0.3,5.2-1.7,7.6
			c-0.6,0.7-1.2,1.4-1.8,2c-1.2,1.3-2.4,2.6-2.8,4.2c-0.3,1.2-0.2,2.6-0.1,4c0,0.6,0.1,1.2,0.1,1.9c0.1,3.1-0.9,5.5-2.8,6.7
			c-1.4,0.9-3,0.9-4.5,1c-0.3,0-0.7,0-1,0c-1.3,0.1-2.7,0.6-2.9,1.5c-0.1,0.4,0,0.9,0.1,1.4c0.3,1.5,0.8,3.1,1.5,4.5
			c0,0.1,0.1,0.1,0.1,0.2l9.4-5c1.5-0.8,3.1-1.6,3.9-3c0.7-1.2,0.8-2.6,1-4.2l0-0.3c0.3-2.9,0.8-5.9,1.5-8.8l0,0
			c1-4.3,4.6-10.2,8.6-12.1c3.3-1.5,6.7-2.8,10.2-3.7c0-0.2,0-0.3-0.1-0.5c-1.5,0.2-4.5,0.7-6.1,1c-1.4,0.2-2.1,0.4-2.4,0.4
			c-0.2,0-0.5,0.1-0.8,0.1c-2,0.3-4.7,0.7-6.4-0.6c-0.8-0.6-1.3-1.5-1.4-2.7c-0.3-2.6,1.5-4.3,2.9-5.7c0.6-0.6,1.2-1.1,1.5-1.7
			c0.2-0.3,0.4-0.6,0.5-1c0.3-0.6,0.6-1.3,1.2-1.9c0.5-0.5,1.1-0.9,1.6-1.2l0.3-0.2c0.1-0.1,0.2-0.1,0.2-0.2c-0.4,0-0.9,0.1-1.2,0.3
			c-0.4,0.2-0.7,0.6-1,1.1l-2.9,3.7c-0.4,0.6-1.4,1.7-2.8,1.7c-2.3,0-3.1-1.8-3.5-3c-0.2-0.6-0.4-1.1-0.8-1.4
			C133.6,33.8,133.3,33.7,133.1,33.7z M137.4,61.8L137.4,61.8L137.4,61.8z"/>
	</g>
</g>
<g>
	<g>
		<path class="st0" d="M161.8,254.6l1.3,8.8c0,0-0.6,32.8,0,37.1c0.6,4.3-2.3,8.4,0,12.3c2,3.3,1.2,8,1.3,11.7
			c0.1,5.1,0.3,10.1,0.5,15.2c0.3,10.1,0.8,15.6,1.3,25.7c4.4-0.6,8.7-1.2,13.1-1.8c1.9-15,2.2-30.7-0.7-45.4
			c-1.5-7.6,1.3-14.8,3.9-21.8c2.2-5.9,3.5-12.1,4.9-18.3c1.5-6.2,4.5-12,5.4-18.3"/>
		<path d="M166.1,366.7c-0.3,0-0.6-0.1-0.8-0.3c-0.3-0.2-0.4-0.6-0.5-0.9c-0.2-3.3-0.3-6.2-0.5-8.8c-0.3-5.4-0.6-10.1-0.8-16.9
			c-0.2-5.1-0.3-10.2-0.5-15.2c0-0.9,0-1.9,0-2.9c0.1-2.9,0.2-6-1.1-8.2c-1.6-2.7-1.1-5.4-0.6-8c0.3-1.7,0.6-3.2,0.4-4.8
			c-0.6-4.3-0.1-34.8,0-37.2l-1.3-8.7c-0.1-0.7,0.4-1.3,1.1-1.4c0.7-0.1,1.3,0.4,1.4,1.1l1.3,8.8c0,0.1,0,0.1,0,0.2
			c-0.2,11.3-0.5,33.5,0,36.9c0.3,2-0.1,3.9-0.4,5.7c-0.5,2.3-0.9,4.3,0.3,6.2c1.7,2.8,1.6,6.4,1.5,9.6c0,1-0.1,1.9,0,2.8
			c0.1,5,0.3,10.1,0.5,15.2c0.2,6.8,0.5,11.4,0.8,16.8c0.1,2.3,0.3,4.7,0.4,7.5l10.8-1.5c2-16.2,1.7-31-0.8-44
			c-1.5-7.8,1.2-15.1,3.8-22.2l0.1-0.3c1.8-4.9,3-10.1,4.2-15.1c0.2-1,0.5-2,0.7-3c0.6-2.7,1.6-5.3,2.5-7.8
			c1.2-3.5,2.4-6.8,2.9-10.3c0.1-0.7,0.7-1.2,1.4-1.1c0.7,0.1,1.2,0.7,1.1,1.4c-0.5,3.8-1.8,7.4-3,10.8c-0.9,2.5-1.8,5-2.4,7.6
			c-0.2,1-0.5,2-0.7,3c-1.2,5.1-2.4,10.4-4.3,15.4l-0.1,0.3c-2.5,6.7-5.1,13.7-3.7,20.8c2.6,13.5,2.9,28.9,0.7,45.8
			c-0.1,0.6-0.5,1-1.1,1.1l-13.1,1.8C166.2,366.7,166.2,366.7,166.1,366.7z"/>
	</g>
	<g>
		<path class="st5" d="M186,378.2c0-2-0.3-4-1.2-5.9c-1.5-3.2-3.3-6.2-5.4-9c-4.1-1.6-8.6-2.4-13.1-2.2
			c-4.7,6.3-10.2,14.3-10.5,22.2c0,0.5,24.9,0.9,26.4,1c0.9,0,3.1-0.1,3.6-0.8C186.5,382.7,186.1,379.3,186,378.2z"/>
		<path d="M182.6,385.5c-0.1,0-0.2,0-0.3,0l-0.5,0c-26-0.5-26.3-0.8-26.8-1.3c-0.2-0.2-0.4-0.6-0.4-0.9c0.3-8.1,5.6-16.1,10.7-22.9
			c0.2-0.3,0.6-0.5,0.9-0.5c4.6-0.2,9.3,0.6,13.6,2.2c0.2,0.1,0.4,0.2,0.5,0.4c2.2,2.8,4,5.9,5.6,9.3c1.1,2.3,1.2,4.7,1.3,6.4v0
			c0,0.2,0,0.6,0.1,1c0.2,2.4,0.3,4.1-0.4,5C186.1,385.4,183.8,385.5,182.6,385.5z M157.2,382.2c2.5,0.2,9.9,0.5,24.6,0.7l0.5,0
			c1,0,2.1-0.2,2.5-0.3c0.2-0.7,0-2.5-0.1-3.3c0-0.5-0.1-0.9-0.1-1.1l0,0c-0.1-2.3-0.4-3.9-1.1-5.4c-1.4-3-3.1-5.9-5-8.5
			c-3.7-1.4-7.7-2.1-11.6-2C162.5,368.4,157.9,375.4,157.2,382.2z M184.9,382.8L184.9,382.8L184.9,382.8z M184.9,382.8L184.9,382.8
			L184.9,382.8L184.9,382.8z M185,382.6C185,382.6,185,382.6,185,382.6S185,382.6,185,382.6z"/>
	</g>
</g>
</svg>
