<?xml version="1.0" encoding="utf-8"?>
<!-- Generator: Adobe Illustrator 24.1.1, SVG Export Plug-In . SVG Version: 6.00 Build 0)  -->
<svg version="1.1" id="Layer_1" xmlns="http://www.w3.org/2000/svg" xmlns:xlink="http://www.w3.org/1999/xlink" x="0px" y="0px"
	 viewBox="0 0 180 240" style="enable-background:new 0 0 180 240;" xml:space="preserve">
<g>
	<path d="M157.44,66.96c-2.97,2.03-12.79,8.94-14.37,12.59c-0.03,0.08-0.17,0.2-0.48,0.29c-2.54,0.79-9.96-1.1-15.73-4.72
		c-0.38-0.24-0.85-0.26-1.26-0.07c-0.41,0.18-0.68,0.58-0.73,1.02c-0.79,6.22-2.09,13.51-3.14,19.36
		c-1.09,6.06-1.69,9.55-1.69,10.91c0,0.04,0,0.12-0.16,0.26c-2.36,2.29-15.55,1.92-22.64,1.73c-1.03-0.04-2-0.07-2.88-0.08
		c-5.58-0.12-17.16-0.38-22.73-3.34c-2.54-1.6-5.59-24.42-5.56-34.73c0.01-0.41-0.17-0.77-0.48-1.02c-0.24-0.2-0.52-0.29-0.82-0.29
		c-0.09,0-0.18,0-0.29,0.03c-6.03,1.37-17.84-0.3-19.43-1.87c4.03-5.47-0.96-14.51-2.68-17.31c2.12-2.5,9.54-10.77,15.98-12.88
		c5.27-1.71,11.73,0.34,15.09,1.73c0.3,0.12,0.64,0.13,0.94,0.01c1.32-0.47,2.81-0.43,4.14-0.41c1.36,0.04,2.53,0.07,3.4-0.46
		c1.75-1.06,1.64-2.63,1.52-4.16c-0.03-0.35-0.05-0.72-0.08-1.13c5.05,0.26,18.06,0.76,23.18-0.43c-0.22,0.96-0.43,2.19-0.39,3.57
		c0.12,4.24,6.47,4.31,11.58,4.36l0.58,0.01c0.29-0.01,0.6-0.1,0.84-0.29c0.27-0.22,4.25-3.31,9.61-3.31c3.64,0,7.9,1.44,12.08,6.18
		C151.86,55.1,156.05,60.66,157.44,66.96z"/>
	<path d="M160.17,67.32c-1.39-7.68-6.37-13.99-17.41-26.54c-9.71-11.05-20.9-6.49-24.92-3.48h-0.12c-2.68-0.03-8.95-0.09-8.99-1.81
		c-0.04-1.64,0.35-3.04,0.6-3.97c0.27-0.96,0.55-1.95-0.31-2.59c-0.86-0.65-1.83-0.04-2.29,0.25c-1.75,1.11-13.91,1.15-24.64,0.55
		c-0.35-0.01-0.69,0.1-0.96,0.34c-0.25,0.24-0.41,0.56-0.42,0.92c-0.04,1.13,0.03,2.03,0.08,2.75c0.12,1.51,0.07,1.53-0.25,1.71
		c-0.25,0.14-1.26,0.12-1.99,0.09c-1.33-0.03-2.97-0.07-4.59,0.41c-3.81-1.51-10.61-3.51-16.45-1.61
		C49.2,37.05,40.08,48.3,39.7,48.79c-0.37,0.44-0.39,1.09-0.07,1.56c1.95,2.85,6.33,11.12,3.23,15.18c-0.65,0.86-0.72,1.9-0.17,2.76
		c2.07,3.21,14.51,4.23,20.78,3.43c0.26,8.45,2.53,33.16,6.91,35.49c5.38,2.87,14.67,3.46,23.91,3.65c0.86,0.01,1.83,0.04,2.87,0.08
		c3.05,0.08,5.98,0.14,8.69,0.14c7.71,0,13.69-0.52,15.85-2.62c0.62-0.6,0.94-1.33,0.94-2.13c0-1.19,0.76-5.48,1.65-10.46
		c0.96-5.27,2.11-11.73,2.91-17.54c5.31,2.88,12.64,5.08,16.16,3.99c1.3-0.41,1.86-1.18,2.11-1.75c1.1-2.53,9.25-8.66,14.13-11.94
		C160.04,68.36,160.26,67.83,160.17,67.32z M142.58,79.83c-2.54,0.79-9.96-1.1-15.73-4.72c-0.38-0.24-0.85-0.26-1.26-0.07
		c-0.41,0.18-0.68,0.58-0.73,1.02c-0.79,6.22-2.09,13.51-3.14,19.36c-1.09,6.06-1.69,9.55-1.69,10.91c0,0.04,0,0.12-0.16,0.26
		c-2.36,2.29-15.55,1.92-22.64,1.73c-1.03-0.04-2-0.07-2.88-0.08c-5.58-0.12-17.16-0.38-22.73-3.34c-2.54-1.6-5.59-24.42-5.56-34.73
		c0.01-0.41-0.17-0.77-0.48-1.02c-0.24-0.2-0.52-0.29-0.82-0.29c-0.09,0-0.18,0-0.29,0.03c-6.03,1.37-17.84-0.3-19.43-1.87
		c4.03-5.47-0.96-14.51-2.68-17.31c2.12-2.5,9.54-10.77,15.98-12.88c5.27-1.71,11.73,0.34,15.09,1.73c0.3,0.12,0.64,0.13,0.94,0.01
		c1.32-0.47,2.81-0.43,4.14-0.41c1.36,0.04,2.53,0.07,3.4-0.46c1.75-1.06,1.64-2.63,1.52-4.16c-0.03-0.35-0.05-0.72-0.08-1.13
		c5.05,0.26,18.06,0.76,23.18-0.43c-0.22,0.96-0.43,2.19-0.39,3.57c0.12,4.24,6.47,4.31,11.58,4.36l0.58,0.01
		c0.29-0.01,0.6-0.1,0.84-0.29c0.27-0.22,4.25-3.31,9.61-3.31c3.64,0,7.9,1.44,12.08,6.18c11.06,12.59,15.25,18.15,16.63,24.45
		c-2.97,2.03-12.79,8.94-14.37,12.59C143.04,79.63,142.9,79.74,142.58,79.83z"/>
</g>
</svg>
