<?xml version="1.0" encoding="utf-8"?>
<!-- Generator: Adobe Illustrator 23.0.2, SVG Export Plug-In . SVG Version: 6.00 Build 0)  -->
<svg version="1.1" id="레이어_1" xmlns="http://www.w3.org/2000/svg" xmlns:xlink="http://www.w3.org/1999/xlink" x="0px"
	 y="0px" viewBox="0 0 346 386" style="enable-background:new 0 0 346 386;" xml:space="preserve">
<style type="text/css">
	.st0{fill:#FFFFFF;}
	.st1{fill:#673101;}
	.st2{fill:#00A2E7;}
	.st3{fill:#008AC4;}
	.st4{fill:#FFB400;}
	.st5{fill:#DD9900;}
	.st6{fill:#FFE4A9;}
	.st7{fill:#FFC0BB;}
	.st8{fill:#353535;}
	.st9{fill:#FF6469;}
	.st10{fill:#FAFF59;}
	.st11{fill:#EFE630;}
	.st12{fill:#C93C1B;}
	.st13{fill:#D34A20;}
	.st14{fill:#EDC932;}
	.st15{fill:#4D5B77;}
	.st16{fill:#384559;}
	.st17{fill:#BC3617;}
	.st18{fill:#7888A3;}
	.st19{fill:#8393AA;}
</style>
<title>자산 17</title>
<g>
	<path class="st0" d="M116.4,143.5c-0.1,0-0.2-0.1-0.3-0.1c-4.8-1.5-7.5-6.5-6.1-11.3c1.1-3.8-0.3-8.9-0.8-10.4
		c-0.7-1.4-2-3.4-3.4-3.6c-3.2-0.5-9.4,3.8-12.4,7c-3.5,3.6-9.2,3.8-12.9,0.3c-3.6-3.5-3.8-9.2-0.3-12.9C81.6,111,94.4,98,108.4,100
		c5.1,0.8,12.2,3.8,17.2,13.8l0.2,0.5c0.5,1.2,4.8,12.1,1.6,22.9C126,142,121.2,144.7,116.4,143.5z"/>
	<path class="st1" d="M94.7,119c-0.7-0.2-1.4-0.1-2.1,0.1c1.7-1,2.3-3.3,1.3-5c-0.5-0.8-1.3-1.4-2.2-1.7c-0.9-0.2-1.8-0.1-2.6,0.3
		c0.7-0.5,1.2-1.2,1.5-2c0.5-1.9-0.7-3.9-2.6-4.5l0,0c-0.2,0-0.3,0-0.5,0c-2.6,1.8-5.1,3.9-7.3,6.2c-3.5,3.6-3.3,9.4,0.3,12.9
		c3.6,3.5,9.4,3.3,12.9-0.3c1.2-1.2,2.6-2.4,4-3.4C97,120.4,96,119.3,94.7,119z"/>
</g>
<g>
	<path class="st0" d="M147.4,137.4l0.3-0.1c4.6-2.1,6.6-7.5,4.5-12.1l0,0c-1.6-3.6-0.9-8.9-0.6-10.4c0.5-1.5,1.5-3.7,2.9-4
		c3.1-0.9,9.9,2.5,13.3,5.2c4,3.1,9.8,2.3,12.9-1.7c3-3.9,2.4-9.5-1.5-12.7c-1.6-1.3-16.2-12.5-29.9-8.4c-5,1.5-11.6,5.5-15.2,16.2
		l-0.2,0.6c-0.3,1.3-3.1,12.7,1.6,23C137.6,137.2,142.8,139.2,147.4,137.4z"/>
	<path class="st1" d="M165.6,110c0.7-0.3,1.4-0.3,2.1-0.2c-0.9-0.4-1.6-1.1-2-2c-0.8-1.9,0.1-4,1.9-4.8c0.9-0.4,1.8-0.4,2.7-0.1
		c-0.8-0.4-1.4-1-1.8-1.8c-0.8-1.9,0.1-4.1,2-4.8c0.1,0,0.3-0.1,0.4-0.1c2.9,1.5,5.7,3.2,8.3,5.2c3.9,3.2,4.5,9,1.2,12.9
		c-3.1,3.8-8.7,4.5-12.7,1.5c-1.4-1.1-2.9-2-4.4-2.8C163.5,111.6,164.4,110.5,165.6,110z"/>
</g>
<g>
	<path class="st2" d="M155,116.7c0,0,14.8-0.8,37.1,11.3l15,88.5l-4.4,62.3c-1.5,20.7-28,35.8-59.2,33.5s-55.4-20.8-53.9-41.5
		l4.7-66.8l3.4-48C97.6,156,100.7,112.8,155,116.7z"/>
	<path class="st3" d="M185,272.5L185,272.5l2-28.1c0.7-9.9,9.3-17.4,19.2-16.7l0,0l-3.6,51c-0.3,4.4-1.8,8.7-4.2,12.4
		C190,289,184.4,281.2,185,272.5z"/>
</g>
<g>
	<path class="st4" d="M92.8,222.9l0.2-3.3l-10.6-0.8c-4.2-3.2-1.2-9.8-1.2-9.8l0,0c7.1-12.2,3-27.9-9.3-35.1s-27.9-3-35.1,9.3
		c-3.7,6.4-4.5,14-2.2,21l0,0v0.1l0,0c0.2,0.8,3.1,9.8,8.9,15c0,0-4.6,2.5-9.5,10.6c-0.1,0.2-0.3,0.4-0.4,0.6s-0.3,0.4-0.4,0.7l0,0
		c-7,12.3-2.7,28,9.6,35s28,2.7,35-9.6c4-7.1,4.4-15.6,1.1-23c-0.3-2.5-1-6.4,2.8-8.2l10.6,0.8l0.2-3.3L92.8,222.9z M58.9,190.5
		c6.5,0.4,8.8,3.9,8.4,10.4s-3.3,10.3-9.8,9.8s-8.6-4.6-8.1-11.1S52.4,190.1,58.9,190.5z M54.7,249.6c-6.5-0.5-8.6-3.9-8.1-10.4
		s3.1-10.3,9.6-9.8s8.8,4.6,8.3,11.1S61.2,250,54.7,249.6z"/>
	<path class="st5" d="M93.9,230.3c-0.1,0.9-0.8,1.6-1.8,1.5l0,0l0,0c-0.9-0.1-1.6-0.8-1.5-1.8l1.1-15.2c0.1-0.9,0.8-1.6,1.7-1.5l0,0
		l0,0c0.9,0.1,1.6,0.8,1.5,1.7l0,0L93.9,230.3z"/>
	<path class="st6" d="M78.7,201.6L78.7,201.6c1.3,0.1,2.4-0.9,2.5-2.2c0.7-9.6-4.3-18.6-12.7-23.2c-1.2-0.6-2.6-0.1-3.2,1.1
		c-0.6,1.2-0.1,2.6,1.1,3.2l0,0c6.7,3.8,10.6,11.1,10,18.8C76.3,200.4,77.3,201.6,78.7,201.6C78.6,201.6,78.6,201.6,78.7,201.6z"/>
</g>
<path class="st0" d="M173.7,120c34.4,6.3,36.1,37.3,36.3,42.7c10.3,2.6,16.2,12.5,15.8,23.9l-0.1,2.4c-0.6,17-14.8,30.3-31.8,29.8
	l0,0l-11.8-0.4c-30-1-46.5-23.7-45.6-51S152.8,116.6,173.7,120z"/>
<path class="st7" d="M199,184.8c-0.3,9.8-8.5,17.4-18.2,17.1s-17.4-8.5-17.1-18.2s8.5-17.4,18.2-17.1h0.1
	C191.7,166.9,199.3,175.1,199,184.8z"/>
<g>
	<path d="M225.2,176.8c0.4,1.2,0.3,2.3-0.6,2.9s-2.6-0.4-3.1-1.7s-0.1-2.9,1.2-3.1S224.8,175.8,225.2,176.8z"/>
	<path d="M206.1,163.3l-3.6,3.4l-3.4-3.6c-0.5-0.6-1.4-0.6-2,0l0,0c-0.5,0.6-0.5,1.4,0,2l3.4,3.6l-3.6,3.4c-0.6,0.6-0.6,1.5,0,2
		c0.5,0.5,1.4,0.6,1.9,0.1h0.1l3.6-3.4l3.4,3.6c0.5,0.5,1.4,0.6,1.9,0.1h0.1c0.5-0.6,0.5-1.4,0-2l-3.4-3.6l3.6-3.4
		c0.6-0.5,0.6-1.4,0-2l0,0C207.6,162.9,206.7,162.8,206.1,163.3z"/>
	<path d="M225.7,184l-3.3,3.4l-4.7-6.3l-5.6,6l-2.9-4.7c-0.4-0.7-1.3-0.9-1.9-0.5c-0.7,0.4-0.9,1.3-0.5,1.9c0,0,0,0,0,0.1l4.8,7.9
		l5.9-6.2l4.7,6.3l3.5-3.7v-1.6C225.8,185.7,225.8,184.9,225.7,184z"/>
</g>
<path class="st8" d="M259.3,252.1l-26.2-13.8l6.5-12.3c1-1.8,0.4-4.1-1.4-5.1s-4.1-0.4-5.1,1.4c0,0.1-0.1,0.1-0.1,0.2l-16,30.2
	c-1,1.8-0.3,4.1,1.6,5.1c1.8,1,4.1,0.3,5.1-1.6l6.5-12.2l26.2,13.8L259.3,252.1z"/>
<g>
	<path class="st0" d="M230.9,237.6c-2.6-2.9-7.1-3.2-10-0.6c-9.8,8.1-15,8.3-19.4,7.6c-2.7-0.5-5.3-1.1-7.9-2
		c-16.1-5.5-18.4-16-18.6-16.7c-0.6-3.8-4.2-6.5-8.1-5.8s-6.5,4.2-5.8,8.1l0,0c0.1,0.9,3.5,20.8,30.7,28.7c2.5,0.7,5,1.3,7.6,1.8
		h0.3h0.3c11.2,1,22.3-3.1,30.3-11C233.1,245,233.4,240.6,230.9,237.6z"/>
	<path class="st3" d="M199.7,258.6h0.3c11.2,1,22.3-3.1,30.3-11c2.9-2.6,3.1-7,0.6-10c-2.6-2.9-7.1-3.2-10-0.6
		c-9.8,8.1-15,8.3-19.4,7.6c-2.7-0.5-5.3-1.1-7.9-2l-1.8,14.2c2.5,0.7,5,1.3,7.6,1.8H199.7z"/>
</g>
<g>
	<path class="st9" d="M102.5,29.8c0,0,1.4,15.7-12.9,15.7c0,0,12.9,1,12.9,14.4c0,0,0.2-13.4,13.4-13.4
		C115.9,46.6,102.5,47.4,102.5,29.8z"/>
	<path class="st10" d="M44.7,101.9c0,0,1.4,15.7-12.9,15.7c0,0,12.9,1,12.9,14.5c0,0,0.2-13.4,13.4-13.4
		C58.1,118.7,44.7,119.5,44.7,101.9z"/>
	<path class="st10" d="M194.2,60.7c0,0,1.4,15.7-12.9,15.7c0,0,12.9,1,12.9,14.4c0,0,0.2-13.4,13.4-13.4
		C207.6,77.5,194.2,78.3,194.2,60.7z"/>
	<path class="st0" d="M72.8,76.9H74c3,0,3-4.7,0-4.7h-1.2C69.8,72.2,69.8,76.9,72.8,76.9z"/>
	<path class="st0" d="M145.8,47.5h1.2c3,0,3-4.7,0-4.7h-1.2C142.8,42.8,142.8,47.5,145.8,47.5z"/>
</g>
<path class="st11" d="M296.5,243.5c10.8,0,19.5,9.6,19.5,21.5s-8.7,21.5-19.5,21.5V243.5z"/>
<g>
	<path class="st12" d="M296.5,318.6c0.1,2.7-2,5-4.7,5h-38.4c-2.7-0.1-4.8-2.4-4.7-5V215.3c-0.1-2.7,2-4.9,4.7-5h38.4
		c2.7,0.1,4.8,2.3,4.7,5V318.6z"/>
	<path class="st13" d="M291.8,220.1h-38.4c-2.6,0-4.7,2.1-4.7,4.7l0,0v39.9h-156v-21.2c0-2.6-2.1-4.7-4.7-4.7l0,0h-3.1
		c-2.6,0-4.7,2.1-4.7,4.7l0,0v82h171.5c0.5,0.2,1.1,0.3,1.7,0.3h38.4c0.6,0,1.1-0.1,1.7-0.3h3V224.8
		C296.5,222.3,294.4,220.1,291.8,220.1z"/>
</g>
<path class="st14" d="M75.3,284.9h4.9v16.3h-4.9c-2.6,0-4.7-2.1-4.7-4.7l0,0v-6.9C70.6,287,72.7,284.9,75.3,284.9L75.3,284.9z"/>
<g>
	<path class="st15" d="M99.1,325c0-15.7,12.7-28.5,28.5-28.5c15.7,0,28.5,12.7,28.5,28.5s-12.7,28.5-28.5,28.5l0,0
		C111.8,353.5,99.1,340.8,99.1,325z"/>
	<path class="st16" d="M127.6,341.8c-9.2,0-16.7-7.5-16.7-16.7s7.5-16.7,16.7-16.7s16.7,7.5,16.7,16.7l0,0
		C144.2,334.3,136.8,341.7,127.6,341.8z"/>
</g>
<path class="st17" d="M127.6,291c-18.8,0-34.1,15.9-34.1,35.6v6.5h4.9v-6.5l0,0c0-16.8,13.1-30.4,29.2-30.4s29.2,13.6,29.2,30.4l0,0
	v6.5h4.9v-6.5C161.7,306.9,146.4,291,127.6,291z"/>
<g>
	<path class="st15" d="M208.5,324.1c0-15.7,12.7-28.5,28.5-28.5c15.7,0,28.5,12.7,28.5,28.5c0,15.7-12.7,28.5-28.5,28.5l0,0
		C221.2,352.6,208.5,339.9,208.5,324.1z"/>
	<path class="st16" d="M236.9,340.9c-9.2,0-16.7-7.5-16.7-16.7s7.5-16.7,16.7-16.7s16.7,7.5,16.7,16.7S246.1,340.9,236.9,340.9z"/>
</g>
<path class="st17" d="M236.9,290.1c-18.8,0-34.1,15.9-34.1,35.6v6.5h4.9v-6.5l0,0c0-16.8,13.1-30.4,29.2-30.4s29.2,13.6,29.2,30.4
	l0,0v6.5h4.9v-6.5C271,306,255.8,290.1,236.9,290.1z"/>
<path class="st18" d="M303.5,309.2c0,1.9-1.1,3.5-2.4,3.5h-14.3c-1.3,0-2.4-1.6-2.4-3.5l0,0c0-2,1.1-3.5,2.4-3.5h14.3
	C302.4,305.6,303.5,307.2,303.5,309.2z"/>
<rect x="288.7" y="312.7" class="st19" width="10.5" height="10.6"/>
<path class="st18" d="M301.1,323.3h-14.3c-1.3,0-2.4,1.6-2.4,3.5s1.1,3.5,2.4,3.5h14.3c1.3,0,2.4-1.6,2.4-3.5
	S302.4,323.3,301.1,323.3z"/>
<path class="st18" d="M88.9,309.2c0,1.9-1.1,3.5-2.4,3.5H72.2c-1.3,0-2.4-1.6-2.4-3.5l0,0c0-2,1.1-3.5,2.4-3.5h14.3
	C87.8,305.6,88.9,307.2,88.9,309.2L88.9,309.2z"/>
<rect x="74.1" y="312.7" class="st19" width="10.5" height="10.6"/>
<path class="st18" d="M86.5,323.3H72.2c-1.3,0-2.4,1.6-2.4,3.5s1.1,3.5,2.4,3.5h14.3c1.3,0,2.4-1.6,2.4-3.5S87.8,323.3,86.5,323.3z"
	/>
</svg>
