<svg id="레이어_3" data-name="레이어 3" xmlns="http://www.w3.org/2000/svg" viewBox="0 0 220 280"><defs><style>.cls-1,.cls-10,.cls-6{fill:#fff;}.cls-2{fill:#0088c5;}.cls-3{fill:#009ff9;}.cls-4{fill:#683100;}.cls-5{fill:#009ff8;}.cls-6,.cls-7,.cls-8{fill-rule:evenodd;}.cls-7{fill:#ffbeb8;}.cls-9{fill:#5fd9ff;}.cls-10{opacity:0.49;}.cls-11{fill:#d24848;}</style></defs><path class="cls-1" d="M134.48,206.88c.8-10.49-1.08-19.88-4.59-29.81-.75-2.13-1.75-4.11-4-4.16s-8.22,1.68-7.83,3.9c1.85,10.51,4.2,17,3.28,30.41l12.33.11S134.48,206.92,134.48,206.88Z"/><path class="cls-2" d="M113,241.33c0,2.37,4.44,5,6.79,5l17.57.37c4,.09,9.4.29,12.47-3.07,2.08-2.3,1.62-7,.37-9.61-2.3-4.77-5.58-9.19-10.73-10.43a2.13,2.13,0,0,0-.28-.06,14.6,14.6,0,0,0-8,.14.73.73,0,0,1-.89-1c2.53-4.83,3.62-11.6,4-16.08l-12-.21a.66.66,0,0,1,0,.14C121.51,216.21,114.1,233,113,241.33Z"/><path d="M125.83,172.25h.09c2.24,0,3.24,2,4,4.15a71.2,71.2,0,0,1,3.85,30s0,.08,0,.11c-.35,4.49-1.66,11.9-4.2,16.73a.74.74,0,0,0,.65,1.07.77.77,0,0,0,.25,0,11.78,11.78,0,0,1,4-.62,19,19,0,0,1,4.07.47,2.13,2.13,0,0,1,.28.06c5.15,1.24,8.6,4.8,10.9,9.57,1.25,2.6,1.71,7.3-.37,9.61s-5.08,2.71-8,2.71c-1.35,0-2.7-.08-4-.11l-17.57-.38c-2.35,0-6.07-2-6-4.39,1.15-8.36,7.75-25.09,8.43-34.78a.66.66,0,0,0,0-.14c.91-13.37-2.2-19.63-4-30.13-.38-2.2,5.41-3.91,7.74-3.91m0-4h0c-2.42,0-8,1.21-10.4,4.12a5.43,5.43,0,0,0-1.28,4.48c.55,3.1,1.19,5.81,1.81,8.43,1.5,6.32,2.8,11.78,2.19,20.73v.17c-.35,5-2.6,12.65-4.59,19.41-1.68,5.72-3.27,11.12-3.81,15.07a3.55,3.55,0,0,0,0,.46c-.06,2.51,1.33,4.81,3.91,6.5a12,12,0,0,0,6,2l17.57.38,1.45.05c.84,0,1.7.06,2.6.06,3.4,0,7.73-.46,11-4,3.7-4.09,2.59-10.78,1-14-3.06-6.33-7.6-10.27-13.52-11.71a4.9,4.9,0,0,0-.56-.13,23.86,23.86,0,0,0-3.9-.51,61.44,61.44,0,0,0,2.46-12.84v-.12a74.87,74.87,0,0,0-4.07-31.65c-.58-1.66-2.36-6.71-7.67-6.82Z"/><path class="cls-1" d="M112.43,211c.8-10.49-1.06-20-4.56-30-.75-2.13-1.75-4.11-4-4.16s-8.22,1.68-7.83,3.9c1.85,10.51,4.51,16.74,3.6,30.11l12,.27S112.43,211,112.43,211Z"/><path class="cls-3" d="M91.31,246c0,2.38,3.75,4,6.1,4l18.22.34c4.05.08,8.92.75,12-2.61,2.09-2.3,1.35-7.55.1-10.15-2.3-4.78-5.75-8.33-10.9-9.57a2.13,2.13,0,0,0-.28-.06,14.6,14.6,0,0,0-8,.14.74.74,0,0,1-.9-1c2.54-4.83,3.84-12.23,4.2-16.72l-11.61-.25a.76.76,0,0,1,0,.15C99.52,219.92,92.45,237.6,91.31,246Z"/><path d="M103.81,176.17h.09c2.24.05,3.24,2,4,4.16a71.2,71.2,0,0,1,3.85,30s0,.08,0,.11c-.36,4.49-1.66,11.9-4.2,16.73a.74.74,0,0,0,.65,1.07.77.77,0,0,0,.25,0,11.78,11.78,0,0,1,3.95-.62,19,19,0,0,1,4.07.47,2.57,2.57,0,0,1,.28.06c5.15,1.24,8.6,4.8,10.9,9.57,1.25,2.6,1.71,7.3-.37,9.61s-5.08,2.71-8,2.71c-1.34,0-2.69-.08-4-.11l-17.57-.38c-2.35-.05-6.07-2-6-4.39,1.15-8.36,7.75-25.09,8.43-34.78a.66.66,0,0,0,0-.14c.91-13.37-2.2-19.63-4.05-30.14-.39-2.19,5.41-3.9,7.74-3.9m0-4h0c-2.42,0-8,1.21-10.4,4.12a5.43,5.43,0,0,0-1.28,4.48c.55,3.1,1.19,5.81,1.81,8.43,1.5,6.32,2.8,11.78,2.19,20.73v.17c-.35,5-2.6,12.65-4.59,19.41-1.68,5.72-3.27,11.12-3.81,15.07,0,.15,0,.31,0,.46-.1,5.12,5.71,8.39,9.93,8.48l17.57.38,1.45,0c.83,0,1.7.06,2.59.06,3.41,0,7.74-.46,11-4,3.7-4.09,2.59-10.78,1-14-3.06-6.33-7.6-10.27-13.52-11.71a4.9,4.9,0,0,0-.56-.13,23.86,23.86,0,0,0-3.9-.51,61.44,61.44,0,0,0,2.46-12.84v-.12A74.87,74.87,0,0,0,111.66,179c-.58-1.66-2.37-6.71-7.67-6.82Z"/><path class="cls-1" d="M145.85,153.46c-.6-6.23.3-12.22,1.17-18.64.38-2.84,2-13.14-4.07-11.56-2.18.58-3.47,3.67-4.43,5.47a45.56,45.56,0,0,0-4.38,12.32,52,52,0,0,0-.75,14.4A37.65,37.65,0,0,1,145.85,153.46Z"/><path class="cls-2" d="M153.64,173.85l-.13-.2a44,44,0,0,1-3.13-5,37.72,37.72,0,0,1-3-7.38c-.38-1.3-.71-2.64-1-4.06-.25-1.26-.41-2.51-.53-3.75a37.65,37.65,0,0,0-12.46,2,61.58,61.58,0,0,0,1,6.9c1.3,6.48,3.25,13.83,7.21,19.32a9.38,9.38,0,0,0,8.79,3.86,10,10,0,0,0,2-.49c2.22-.78,4.13-2.47,4.38-4.75a4.3,4.3,0,0,0-.07-1.3C156.34,177.05,154.78,175.46,153.64,173.85Z"/><path d="M144.12,123.1c4.64,0,3.25,9.08,2.9,11.72-.87,6.42-1.77,12.41-1.17,18.64.12,1.24.28,2.49.53,3.75.28,1.42.61,2.76,1,4a37.56,37.56,0,0,0,3,7.39,44,44,0,0,0,3.13,5l.13.2c1.14,1.61,2.7,3.2,3.07,5.14a4.3,4.3,0,0,1,.07,1.3c-.25,2.28-2.16,4-4.38,4.75a10,10,0,0,1-2,.49,9.83,9.83,0,0,1-1.21.08,9.46,9.46,0,0,1-7.58-3.94c-4-5.49-5.91-12.84-7.21-19.32a61.58,61.58,0,0,1-1-6.9,52,52,0,0,1,.75-14.4,45.56,45.56,0,0,1,4.38-12.32c1-1.8,2.25-4.89,4.43-5.47a4.74,4.74,0,0,1,1.17-.16m0-3.4a8.19,8.19,0,0,0-2,.28c-3.38.89-5.08,4.25-6.21,6.47l-.35.69a48.58,48.58,0,0,0-4.71,13.25,54.79,54.79,0,0,0-.81,15.34,65.94,65.94,0,0,0,1,7.29c1.28,6.35,3.32,14.44,7.79,20.63A12.81,12.81,0,0,0,149.15,189a11.62,11.62,0,0,0,1.67-.11,13.52,13.52,0,0,0,2.72-.65c3.72-1.32,6.25-4.23,6.62-7.59a7.79,7.79,0,0,0-.11-2.29,13.14,13.14,0,0,0-2.87-5.46c-.27-.34-.53-.67-.76-1l-.16-.21a43.2,43.2,0,0,1-2.89-4.63,35.17,35.17,0,0,1-2.75-6.74c-.34-1.18-.64-2.42-.91-3.76a34,34,0,0,1-.48-3.42c-.53-5.49.22-11,1-16.8l.14-1.06,0-.25c.67-4.84,1-10.21-1.66-13.24a6,6,0,0,0-4.63-2.08Z"/><path class="cls-1" d="M117.46,32.33a10.87,10.87,0,0,0-5.45,4c-2.21,3.25-3.49,9.16-1.76,12.81.6,1.27,2.11.38,3.88.08,2.09-.36,1.48-2.27,3-4.09,2.18-2.61,4.47.06,8.27,2.78a7.34,7.34,0,0,0,9.84-1.23,6.32,6.32,0,0,0-1.2-9.23C128.18,33.13,124.29,29.89,117.46,32.33Z"/><path d="M121.9,31.49c4.35,0,7.68,2.66,12.15,5.93a6.32,6.32,0,0,1,1.2,9.23,7.35,7.35,0,0,1-9.84,1.23C122.7,46,120.76,44,119.08,44a2.51,2.51,0,0,0-1.94,1.07c-1.53,1.82-.92,3.73-3,4.09a25.52,25.52,0,0,1-2.8.59,1.08,1.08,0,0,1-1.08-.67c-1.73-3.65-.45-9.56,1.76-12.81a10.87,10.87,0,0,1,5.45-4,13.1,13.1,0,0,1,4.44-.84m0-3.39a16.46,16.46,0,0,0-5.59,1,14.08,14.08,0,0,0-7.1,5.25c-2.81,4.12-4.34,11.29-2,16.18a4.48,4.48,0,0,0,4.15,2.6,9.1,9.1,0,0,0,2.38-.4,9,9,0,0,1,1-.23,5.62,5.62,0,0,0,4.51-4.16c.1-.27.18-.49.26-.67.58.37,1.36,1,2,1.45s1.27,1,2,1.48a10.71,10.71,0,0,0,14.43-1.84,9.7,9.7,0,0,0-1.82-14.12l-.86-.62c-4.35-3.2-8.11-6-13.29-6Z"/><path class="cls-4" d="M123.7,43.74a2.92,2.92,0,0,1,1.6-.14,2.74,2.74,0,0,1-1.53-1.39,2.61,2.61,0,0,1,1.48-3.48,3,3,0,0,1,2-.06,2.63,2.63,0,0,1-1.33-1.28c-.61-1.33.49-2.87,1.91-3.46.13,0,.74-.06.88-.1a20.2,20.2,0,0,1,5.34,3.59,6.31,6.31,0,0,1,1.19,9.23,7.34,7.34,0,0,1-9.83,1.23c-.9-.64-2.65-1.92-3.2-2.33-.78-.58.52-1.42,1.49-1.81"/><path class="cls-1" d="M77.64,35.85a12.52,12.52,0,0,1,7.26,3.29c3.42,3.29,6,7.32,5.1,12.2-.31,1.7-3.1,3.21-5.17,3.34-2.45.15-2.3-1.64-4.53-3.42-3.21-2.55-5,1.32-8.5,5.66a8.09,8.09,0,0,1-11.41,1.25A8.23,8.23,0,0,1,59.08,46.7C64.44,39.89,69.25,34.8,77.64,35.85Z"/><path d="M75.49,35.72a17.82,17.82,0,0,1,2.15.13,12.52,12.52,0,0,1,7.26,3.29c3.42,3.29,6,7.32,5.1,12.2-.31,1.7-3.1,3.21-5.17,3.34h-.28c-2.16,0-2.1-1.72-4.25-3.43a3.18,3.18,0,0,0-2-.81c-2.13,0-3.82,3.09-6.54,6.47a8.08,8.08,0,0,1-11.41,1.25A8.23,8.23,0,0,1,59.08,46.7c4.89-6.21,9.32-11,16.41-11m0-3.4h0c-8.69,0-14,5.81-19.07,12.28a11.58,11.58,0,0,0,9,18.76,11.42,11.42,0,0,0,9-4.32c.64-.79,1.23-1.58,1.78-2.31a28.3,28.3,0,0,1,2.14-2.66,7.42,7.42,0,0,1,1,1.12,6.09,6.09,0,0,0,5.2,2.89l.49,0c2.93-.18,7.6-2.24,8.3-6.11,1-5.3-1.08-10.44-6.09-15.26a15.7,15.7,0,0,0-9.19-4.2,20.53,20.53,0,0,0-2.57-.17Z"/><path class="cls-4" d="M72.53,51.45a3.16,3.16,0,0,0-1.83.27A3.25,3.25,0,0,0,72,49.62a3.3,3.3,0,0,0-2.66-3.79,3.2,3.2,0,0,0-2.27.49,3.18,3.18,0,0,0,1.13-1.92c.3-1.78-1.38-3.34-3.15-3.64a8.69,8.69,0,0,0-1,.12,23.64,23.64,0,0,0-5,5.82A8.23,8.23,0,0,0,60.4,58.17a8.08,8.08,0,0,0,11.4-1.25c.83-1,2.43-3.06,2.93-3.7.7-.92-1-1.57-2.2-1.77"/><path d="M106.73,47.42c10.62,0,21.62,4.32,30.4,10.25,7.49,5.07,12.58,14.22,15.23,22.73.16.52.28,1,.43,1.54.3.87.58,1.74.83,2.6,3,10.35,1.22,19.36-1.66,29.63-.62,2.23-5.1,13.12-5.17,13.65-1.29,6,1.81,13.29,2.66,19.18,1.59,11,1.9,22.29-2.67,32.64-6.25,14.12-20.78,19.13-35.21,20.1-1.42.09-2.84.14-4.27.14h-1.13l-3.53-.05c-1.74,0-3.54-.12-5.27-.29C85.5,198.39,72.43,193.78,65,183.92c-5.37-7.13-7.41-18.95-6.82-27.76.46-6.87,2.57-13.51,3.87-20.24.5-2.63,1.49-5.21,1.29-7.89,0-.56-.13-1.12-.21-1.68-.43-1.2-3.66-10.3-4.47-13.77A56.38,56.38,0,0,1,56.84,88c1.28-8.82,4.87-18.66,11.47-24.84,8.48-8,19.91-14.39,31.44-15.28l.21,0,3.71-.29c1-.08,2-.12,3.06-.12m0-3.4c-1.12,0-2.25,0-3.34.14l-3.69.29-.28,0C88.26,45.33,76.05,51.23,66,60.65c-6.34,5.94-10.9,15.72-12.51,26.84a59.63,59.63,0,0,0,1.92,26c.69,2.9,2.79,9,4.44,13.71.06.4.1.76.13,1.12a14.9,14.9,0,0,1-.68,4.54c-.2.81-.4,1.63-.56,2.45-.41,2.16-.93,4.37-1.43,6.52a87.55,87.55,0,0,0-2.48,14.14c-.62,9.17,1.46,22,7.48,30,7,9.32,19.68,15.5,34.75,16.95,1.76.17,3.68.27,5.54.3l3.53,0h1.18c1.51,0,3-.05,4.5-.15,19.08-1.28,32.25-8.92,38.08-22.1,5.3-12,4.35-24.73,2.93-34.5-.3-2-.83-4.21-1.35-6.3-1-4.07-2.05-8.29-1.38-11.58.2-.56,1-2.56,1.68-4.34,1.79-4.54,3.09-7.86,3.47-9.21,2.8-10,5-19.91,1.65-31.5-.26-.88-.54-1.76-.85-2.65l-.13-.48c-.09-.35-.18-.71-.29-1.06-3.34-10.73-9.39-19.67-16.58-24.54-10.34-7-21.81-10.84-32.3-10.84Z"/><path class="cls-3" d="M152,114.17c2.88-10.27,4.68-19.28,1.66-29.63-.25-.86-.53-1.73-.83-2.6-.15-.52-.27-1-.43-1.54-2.65-8.51-7.74-17.66-15.23-22.73-9.63-6.51-21.93-11.07-33.46-10.13l-3.71.29-.21,0c-11.53.89-23,7.33-31.44,15.28-6.6,6.18-10.19,16-11.47,24.84a56.38,56.38,0,0,0,1.84,24.61c.81,3.47,4,12.57,4.47,13.77.08.56.16,1.12.21,1.68.2,2.68-.79,5.26-1.29,7.89-1.3,6.73-3.41,13.37-3.87,20.24-.59,8.81,1.45,20.63,6.82,27.76,7.41,9.86,20.48,14.47,32.35,15.61,1.73.17,3.53.26,5.27.29l3.53.05h.2c1.74,0,3.47,0,5.2-.13,14.43-1,29-6,35.21-20.1C151.35,169.29,151,158,149.45,147c-.85-5.89-3.95-13.2-2.66-19.18C146.86,127.29,151.34,116.4,152,114.17Z"/><path class="cls-5" d="M103.67,47.54h0Z"/><path class="cls-1" d="M74.62,162.37c-.31-6.25.87-12.19,2-18.57.51-2.82,2.57-13-3.52-11.73-2.2.47-3.64,3.51-4.68,5.25a45.44,45.44,0,0,0-4.95,12.11,51.55,51.55,0,0,0-1.43,14.35A37.32,37.32,0,0,1,74.62,162.37Z"/><path class="cls-2" d="M81.45,183.1l-.13-.2a44.59,44.59,0,0,1-2.88-5.14,37.54,37.54,0,0,1-2.67-7.52c-.32-1.31-.58-2.66-.8-4.09a37.94,37.94,0,0,1-.35-3.78,37.32,37.32,0,0,0-12.54,1.41,61.77,61.77,0,0,0,.65,6.93c1,6.54,2.6,14,6.29,19.64a9.39,9.39,0,0,0,8.6,4.27,10.32,10.32,0,0,0,2.06-.39c2.25-.68,4.25-2.28,4.6-4.55a4.35,4.35,0,0,0,0-1.3C84,186.43,82.51,184.77,81.45,183.1Z"/><path d="M74.14,132c4.85,0,3,9.19,2.52,11.84-1.17,6.38-2.35,12.32-2,18.57a37.94,37.94,0,0,0,.35,3.78c.22,1.43.48,2.78.8,4.09a37.54,37.54,0,0,0,2.67,7.52,44.59,44.59,0,0,0,2.88,5.14l.13.2c1.06,1.67,2.55,3.33,2.82,5.28a4.35,4.35,0,0,1,0,1.3c-.35,2.27-2.35,3.87-4.6,4.55a10.32,10.32,0,0,1-2.06.39c-.26,0-.53,0-.79,0a9.43,9.43,0,0,1-7.81-4.3c-3.69-5.67-5.3-13.1-6.29-19.64a61.77,61.77,0,0,1-.65-6.93,51.55,51.55,0,0,1,1.43-14.35,45.44,45.44,0,0,1,4.95-12.11c1-1.74,2.48-4.78,4.68-5.25a4.63,4.63,0,0,1,1-.11m0-3.4a8.61,8.61,0,0,0-1.71.19c-3.41.73-5.27,4-6.5,6.18l-.39.67a48.71,48.71,0,0,0-5.33,13,55.11,55.11,0,0,0-1.52,15.29,64.4,64.4,0,0,0,.68,7.32c1,6.41,2.64,14.58,6.81,21a12.87,12.87,0,0,0,10.65,5.85c.36,0,.73,0,1.09-.05a14.57,14.57,0,0,0,2.75-.52c3.77-1.15,6.44-3.94,7-7.27a7.72,7.72,0,0,0,0-2.3A12.92,12.92,0,0,0,85,182.33c-.24-.36-.49-.7-.71-1.05l-.14-.22a41.82,41.82,0,0,1-2.67-4.76,34.5,34.5,0,0,1-2.43-6.86c-.3-1.2-.54-2.44-.74-3.8A32.45,32.45,0,0,1,78,162.2c-.27-5.51.73-11,1.79-16.73l.2-1.05,0-.25c.9-4.88,1.47-10.29-1.13-13.42a6.09,6.09,0,0,0-4.77-2.19Z"/><path class="cls-6" d="M159,116.46c-5.88,7.32-17.47,12.27-31,13.26-33.56,2.49-50.95-7.47-53.25-30.46-.33-3.25-1.44-20,8.4-31.67a30.82,30.82,0,0,1,11-8.14,44.2,44.2,0,0,1,15.19-3.51c1.72-.11,3.36-.17,5-.17,34.72,0,37.55,26.7,37.63,27.88a1.69,1.69,0,0,0,1.28,1.47c.34.12,8.85,2.52,10.37,13.44C164.55,105.48,163,111.51,159,116.46Z"/><path d="M167,98.08c-1.53-10.83-8.91-14.74-11.76-15.84-.88-5.63-6.76-29.86-40.81-29.86-1.67,0-3.42.06-5.26.17-12.41.82-22,5.17-28.53,12.86-10.46,12.36-9.7,29.3-9.22,34.19,2.26,22.74,17.67,33.91,47,33.91,3.14,0,6.45-.14,9.93-.4,14.67-1.07,26.83-6.36,33.39-14.51C166.27,112.89,168.05,106,167,98.08ZM74.76,99.26c-.33-3.25-1.44-20,8.4-31.67a30.82,30.82,0,0,1,11-8.14,44.2,44.2,0,0,1,15.19-3.51c1.72-.11,3.36-.17,5-.17,34.72,0,37.55,26.7,37.63,27.88a1.69,1.69,0,0,0,1.28,1.47c.34.12,8.85,2.52,10.37,13.44,1,6.92-.56,13-4.55,17.9-5.88,7.32-17.47,12.27-31,13.26C94.45,132.21,77.06,122.25,74.76,99.26Z"/><path class="cls-7" d="M124.27,102.37c.17,6.93-5,12.68-11.61,12.83s-12-5.33-12.21-12.25,5-12.67,11.61-12.83,12,5.33,12.21,12.25"/><path class="cls-7" d="M162.94,96.89c-.59-2.35-3.38-10.23-7.22-7.4-5.17,3.81-2.78,13.53-.21,18.36,1,1.9,2.83,4.12,5.38,3.64,1.44-.27,2-3,2.17-3.93A24.17,24.17,0,0,0,162.94,96.89Z"/><path class="cls-8" d="M144.7,93.06c0,.9-.91,1.66-2.11,1.69a2,2,0,0,1-2.19-1.59c0-.89.92-1.65,2.12-1.68a1.93,1.93,0,0,1,2.18,1.58"/><path class="cls-9" d="M119.29,94.25a17.27,17.27,0,0,0-6.2,6.49c-3.9,7.21,4.28,11.89,8.23,5.45A27.46,27.46,0,0,0,124.09,99c.39-1.44,2.34-6.72,1.67-7.5S120.19,93.7,119.29,94.25Z"/><path class="cls-10" d="M117.26,96.54a7.48,7.48,0,0,1,2.81-1.92c.67-.23,1.25-.19,1.5.57a2.89,2.89,0,0,1-.57,2.2,9.53,9.53,0,0,1-2.52,3.15,2.32,2.32,0,0,1-2,.3,1.42,1.42,0,0,1-.87-.78C115,98.79,116.56,97.32,117.26,96.54Z"/><path class="cls-11" d="M150.43,101.62c-2.74,0-5-1.88-7.29-3.27-1.94,1.81-3.54,3.49-5.89,4.61a9.27,9.27,0,0,1-4,.86,1.81,1.81,0,0,0-1.76,1.81l-.27,5.34s1.08,6.66,12.13,2.7c0,0,6.44-1.86,7.52-6.51l.69-4.08A1.21,1.21,0,0,0,150.43,101.62Z"/><path class="cls-1" d="M134.17,102.82s-2.36,2.74,5.76,1.71c0,0,7.95-1.24,9.31-3.87,0,0-5.75-1.26-6.1-2.31C143.14,98.35,137,104,134.17,102.82Z"/><path d="M137.33,115.69a8,8,0,0,1-4.36-1.13,5.8,5.8,0,0,1-2.56-3.66.81.81,0,0,1,0-.22l.27-5.34a2.79,2.79,0,0,1,2.71-2.76,8.61,8.61,0,0,0,3.61-.77,19,19,0,0,0,4.87-3.72l.79-.74a.89.89,0,0,1,1.07-.12l1.42.9c1.77,1.16,3.46,2.25,5.36,2.25h.06a2,2,0,0,1,1.57.79,2.39,2.39,0,0,1,.46,1.85l-.69,4.07c-1.22,5.23-7.91,7.22-8.2,7.31A19.3,19.3,0,0,1,137.33,115.69Zm-5.07-5a3.9,3.9,0,0,0,1.71,2.23c1.35.84,4,1.46,9.2-.39.11,0,6-1.79,6.91-5.81l.68-4a.3.3,0,0,0,0-.2.19.19,0,0,0-.15-.08h-.06c-2.42,0-4.41-1.29-6.33-2.54l-.8-.51-.28.26a20.43,20.43,0,0,1-5.34,4,10.06,10.06,0,0,1-4.41.94.91.91,0,0,0-.81.87Zm18.29-9.26h0Z"/><path d="M124.05,93.67a1,1,0,0,1-.28-1.93c1-.4,2.36-.77,3.61-1.13l1.17-.33c-.82-.27-1.72-.48-2.6-.68s-1.41-.33-2.15-.57a1,1,0,0,1,.62-1.9c.65.21,1.18.33,2,.52a14.29,14.29,0,0,1,5.4,2,1,1,0,0,1,.39.94,1,1,0,0,1-.64.79c-1.05.4-2.36.77-3.62,1.13s-2.48.71-3.45,1.07A1.07,1.07,0,0,1,124.05,93.67Z"/><path d="M150.29,90a3.18,3.18,0,0,1-.62,0,23,23,0,0,1-4.24-.43,1,1,0,0,1-.68-.67A1,1,0,0,1,145,88a11.6,11.6,0,0,1,4.18-3.24,1,1,0,0,1,1.4.39,1,1,0,0,1-.39,1.36,12.73,12.73,0,0,0-2.32,1.44h.1a9.42,9.42,0,0,1,2.68.19,1,1,0,0,1,.67,1.26A1,1,0,0,1,150.29,90Z"/></svg>