<?xml version="1.0" encoding="utf-8"?>
<!-- Generator: Adobe Illustrator 24.1.1, SVG Export Plug-In . SVG Version: 6.00 Build 0)  -->
<svg version="1.1" id="Layer_1" xmlns="http://www.w3.org/2000/svg" xmlns:xlink="http://www.w3.org/1999/xlink" x="0px" y="0px"
	 viewBox="0 0 240 240" style="enable-background:new 0 0 240 240;" xml:space="preserve">
<g>
	<path style="fill:#9AE6FF;" d="M220.57,229.94l-109.7,2.39c0-0.15-0.03-0.3-0.1-0.45c-3.92-8.29-3.71-18.16-3.48-29.59
		c0.51-24.65,1.13-55.33-43.6-82.95C30.93,99.11,21.7,70.51,19.73,50.08c-2.15-22.22,3.58-39.9,3.63-40.08
		c0.03-0.11,0.06-0.24,0.06-0.35h107.94c-2.6,4.39-16.37,30.93,8.7,63c7.45,9.54,15.88,18.45,24.03,27.07
		c5.24,5.55,10.61,11.22,15.74,17.08c2.28,2.6,4.52,5.24,6.67,7.93c1.51,1.89,2.93,3.72,4.26,5.52c0.05,0.07,0.09,0.12,0.13,0.18
		c5.94,8.06,10.14,15.35,13.03,22.56c3.39,8.45,3.86,16.65,4.37,25.35c0.15,2.59,0.3,5.25,0.54,7.96
		C209.85,198.01,213.81,219.1,220.57,229.94z"/>
	<path d="M110.87,232.33c0.01,0.43-0.22,0.84-0.64,1.05c-0.16,0.07-0.32,0.1-0.48,0.1c-0.42,0-0.82-0.24-1.01-0.64
		c-4.14-8.76-3.92-19.36-3.69-30.59c0.52-25.34,1.1-54.05-42.53-80.99C28.92,100.52,19.49,71.17,17.48,50.2
		c-2.17-22.67,3.69-40.73,3.75-40.91c0.19-0.58,0.83-0.91,1.42-0.71c0.48,0.16,0.78,0.6,0.78,1.07c0,0.11-0.02,0.24-0.06,0.35
		c-0.06,0.18-5.78,17.86-3.63,40.08c1.97,20.43,11.2,49.03,43.96,69.26c44.72,27.61,44.11,58.29,43.6,82.95
		c-0.24,11.43-0.44,21.3,3.48,29.59C110.84,232.03,110.87,232.18,110.87,232.33z"/>
	<path style="fill:#49C0E7;" d="M128.83,231.94l-17.96,0.39c0-0.15-0.03-0.3-0.1-0.45c-3.92-8.29-3.71-18.16-3.48-29.59
		c0.51-24.65,1.13-55.33-43.6-82.95C30.93,99.11,21.7,70.51,19.73,50.08c-2.15-22.22,3.58-39.9,3.63-40.08
		c0.03-0.11,0.06-0.24,0.06-0.35h18.14c0,0-36.71,70.99,27.54,110.65C133.03,159.77,116.45,204.61,128.83,231.94z"/>
	<path style="fill:#49C0E7;" d="M220.57,229.94l-2.28,0.05c-7.37-7.02-14.53-15.39-17.18-23.31c-6.29-18.77-0.79-27.97-10.62-61.77
		c-9.82-33.8-19.87-21.92-56.87-62.22c-32.03-34.9-25.26-64.35-21.56-73.03h19.3c-2.6,4.39-16.37,30.93,8.7,63
		c7.45,9.54,15.88,18.45,24.03,27.07c5.24,5.55,10.61,11.22,15.74,17.08c1.72,2.05,3.44,4.13,5.15,6.27c1.85,2.3,3.8,4.69,5.78,7.19
		c0.05,0.07,0.09,0.12,0.13,0.18c5.94,8.06,10.14,15.35,13.03,22.56c3.39,8.45,3.86,16.65,4.37,25.35c0.15,2.59,0.3,5.25,0.54,7.96
		C209.85,198.01,213.81,219.1,220.57,229.94z"/>
	<path d="M222.48,230.84c-0.19,0.12-0.4,0.19-0.61,0.19c-0.37,0-0.73-0.18-0.94-0.52c-0.12-0.19-0.25-0.38-0.36-0.57
		c-6.76-10.85-10.72-31.93-11.74-43.64c-0.24-2.7-0.39-5.37-0.54-7.96c-0.51-8.7-0.98-16.9-4.37-25.35
		c-2.89-7.21-7.09-14.5-13.03-22.56c-0.04-0.06-0.09-0.11-0.13-0.18c-1.34-1.8-2.76-3.63-4.26-5.52c-2.15-2.69-4.39-5.33-6.67-7.93
		c-5.13-5.86-10.5-11.53-15.74-17.08c-8.16-8.62-16.58-17.53-24.03-27.07c-25.07-32.07-11.3-58.61-8.7-63
		c0.24-0.41,0.38-0.62,0.39-0.64c0.35-0.51,1.05-0.64,1.56-0.29c0.51,0.35,0.64,1.05,0.29,1.56c-0.18,0.27-18.06,27.36,8.21,60.98
		c7.39,9.45,15.79,18.33,23.9,26.9c7.61,8.04,15.48,16.36,22.54,25.16c8.47,10.58,14.12,19.75,17.77,28.84
		c3.52,8.79,4.01,17.17,4.51,26.05c0.15,2.58,0.3,5.23,0.54,7.9c1.02,11.7,5,32.85,11.74,43.18
		C223.16,229.81,223.01,230.51,222.48,230.84z"/>
</g>
<path style="fill:#BCEEFF;" d="M79.27,116.43c-5.94-4.18-11.25-9.25-15.71-14.99c9.1,6.09,18.86,11.19,29.06,15.18
	c-8.14-14.77-24.39-25.15-27.94-41.64l36.97,30.37l-7.28-11.83c3.49,3.5,7.83,6.15,12.54,7.64c-4.15-5.61-6.98-12.19-8.2-19.06
	c-0.22-1.24-0.31-2.74,1.14-3.29c0.84-0.32,1.8-0.08,2.49,0.5c7.06,5.84,14.12,11.68,21.18,17.51c0.64,0.53,1.58,0.66,2.26,0.18
	c1.13-0.79,0.47-2.26-0.21-3.28c-4.56-6.72-9.5-13.43-11.69-21.25c3.16,4.03,7.11,7.43,11.55,9.99c2.7,1.56,5.7-1.47,4.08-4.13
	l-20.42-33.59c-0.58-0.96-1.33-2.03-2.45-2.13c0.24,7.3,4.54,13.68,7.34,20.48c0.77,1.88-1.51,3.53-3.06,2.22l0,0
	c-2.57-2.17-6.35,0.51-5.15,3.66c1.61,4.24,3.29,8.46,5.04,12.65c-3.62-4.28-7.47-8.73-12.21-11.56c-1.85-1.11-4.14,0.5-3.72,2.61
	c0.9,4.47,1.31,9.04,1.22,13.59l-7.21-6.7c1.84,4.21,2.85,8.78,2.96,13.37L72.14,71.14c-0.82-0.91-1.8-1.69-2.94-2.14
	c-4.39-1.75-6.8,1.98-7.14,5.36c-0.5,4.88,2.03,9.57,4.98,13.49c2.95,3.92,6.45,7.53,8.44,12.02l-18.2-7.23
	c1.68,4.41,1.68,4.41,2.52,6.62C57.53,93.29,45.4,82.7,39.45,80.94c1.66,6.59,9.87,13.81,14.62,18.32
	C61.48,106.28,70.01,112.12,79.27,116.43z"/>
<path style="fill:#BCEEFF;" d="M131.87,193.17c2.82-10.9-8.69-21.7-8.11-32.89c5.29,11.29,11.98,22.2,19.93,32.5
	c-0.26-3.7-0.52-7.39-0.78-11.09c4.1,4.14,8.2,8.29,12.3,12.43c1.25,1.26,2.54,2.56,4.29,3.33c1.75,0.78,4.09,0.9,5.52-0.14
	c0.92-12.32-10.38-24.81-6.07-36.55c2.55,6.14,5.11,12.29,7.66,18.43c1.86,4.48,3.91,9.2,8.34,12.37c0.45-4.12,0.17-8.31-0.81-12.42
	c2.04,3.22,4.45,6.29,7.2,9.17c0.37-3.85,0.73-7.69,1.1-11.54c1.81,0.17,2.86,1.75,3.51,3.13c3.97,8.37,6.01,17.35,11.66,25.11
	c0.05-3.95,0.09-7.91,0.14-11.86c1.42,5.9,1.93,11.91,1.52,17.85c-8.33-2.94-9.25-12.49-16.16-17.3c-0.44,3.35-0.87,6.7-1.31,10.05
	c-2.56-3.4-5.11-6.79-7.67-10.19c0.42,1.17,0.39,2.42-0.08,3.54c-1.47-1.12-2.94-2.25-4.41-3.37c2.52,7.18,2.38,14.87-0.39,21.82
	c-6.12-6.38-12.43-12.65-18.91-18.8c0.33,4.09,0.67,8.19,1,12.28c-3.37-3.71-6.74-7.42-10.11-11.13c-0.58-0.64-1.33-1.35-2.29-1.33
	c-1.48,0.03-1.88,1.61-1.85,2.81c0.07,2.73,0.14,5.46,0.21,8.2c-1.84,0.69-3.57-1.34-3.9-2.98c-0.34-1.64-0.72-3.75-2.73-4.19
	c1.4,7.33,1.75,14.77,1.02,22.1c0.2-2.02-3.75-6.87-4.55-9.08c-0.88-2.4-1.72-4.9-2.15-7.37c-0.86-4.95-1.01-11.17,0.69-15.85
	C127.39,191.64,129.42,192.81,131.87,193.17z"/>
<g>
	<path style="fill:#49C0E7;" d="M148.45,112.75c-0.25,0.93-0.02,1.9,0.24,2.83c2.05,7.31,5.65,14.32,10.58,20.58
		c0.2,0.25,0.41,0.51,0.75,0.61c0.45,0.14,0.94-0.05,1.36-0.24c4.02-1.79,8.04-3.59,12.07-5.38c1.28-0.57,2.61-1.18,3.47-2.17
		c1.06-1.22,1.23-2.86,0.92-4.36c-0.57-2.79-2.58-5.19-4.54-7.49c-2.87-3.36-6.73-9.7-12-10.65
		C157.01,105.71,149.45,109.05,148.45,112.75z"/>
	<g>
		<path style="fill:#A2AAA9;" d="M173.21,121.15c-0.01,0.09-0.01,0.18-0.02,0.26c-0.03,0.27-0.09,0.54-0.17,0.81
			c-0.03,0.09-0.07,0.18-0.1,0.27c-0.02,0.08-0.06,0.16-0.1,0.24c-0.03,0.08-0.08,0.16-0.12,0.24c-0.06,0.1-0.12,0.2-0.19,0.3
			c-0.62,0.84-1.69,1.42-2.64,1.91l-10.17,5.39c-0.31,0.16-0.44,0.19-0.45,0.2c-0.07-0.05-0.19-0.22-0.24-0.3
			c-1.88-2.81-3.5-5.75-4.88-8.8c1.05,2.01,2.22,3.97,3.48,5.88c0.19,0.28,0.49,0.73,1.05,0.94c0.19,0.07,0.38,0.1,0.56,0.1
			c0.54,0,1.01-0.26,1.27-0.39l10.18-5.38C171.5,122.37,172.44,121.87,173.21,121.15z"/>
		<path style="fill:#C3C3BA;" d="M172.93,118.63c-0.11,0.27-0.25,0.53-0.43,0.78c-0.62,0.86-1.69,1.42-2.64,1.92l-10.17,5.39
			c-0.31,0.16-0.44,0.19-0.45,0.2c-0.07-0.05-0.19-0.23-0.24-0.3c-4.03-6.06-6.94-12.71-8.67-19.78c-0.05-0.17-0.08-0.35-0.12-0.52
			c-0.15-0.62-0.28-1.22-0.28-1.79c0-0.23,0.02-0.45,0.08-0.66c0.66-2.95,5.65-5.73,8.89-5.73c0.34,0,0.65,0.03,0.95,0.09
			c3.25,0.7,5.95,4.8,8.11,8.1c0.53,0.81,1.04,1.58,1.5,2.23c1.52,2.1,3.23,4.48,3.69,7.13
			C173.25,116.39,173.35,117.57,172.93,118.63z"/>
		<path d="M174.8,119.26c-0.03-0.2-0.08-0.39-0.11-0.59c0.27-0.98,0.32-2.08,0.11-3.26c-0.53-3.04-2.36-5.59-3.98-7.84
			c-0.45-0.63-0.95-1.37-1.46-2.16c-2.33-3.56-5.23-7.98-9.16-8.82c-0.41-0.09-0.84-0.14-1.31-0.14c-4.01,0-9.66,3.22-10.54,7.04
			c-0.25,1.08-0.03,2.16,0.2,3.17c-0.08,0.22-0.15,0.45-0.2,0.68c-0.25,1.09-0.03,2.18,0.21,3.21c1.76,7.46,4.8,14.47,9.03,20.85
			c0.19,0.28,0.49,0.74,1.05,0.94c0.19,0.07,0.38,0.1,0.56,0.1c0.54,0,1.01-0.25,1.27-0.39l10.18-5.38
			c1.05-0.56,2.35-1.25,3.21-2.42C174.8,122.99,175.14,121.21,174.8,119.26z M173.19,121.41c-0.02,0.27-0.08,0.54-0.17,0.81
			c-0.02,0.09-0.06,0.18-0.1,0.27c-0.02,0.08-0.06,0.16-0.1,0.24c-0.03,0.08-0.08,0.16-0.12,0.24c-0.06,0.1-0.12,0.2-0.19,0.3
			c-0.62,0.84-1.69,1.42-2.64,1.91l-10.17,5.39c-0.31,0.16-0.44,0.19-0.45,0.2c-0.07-0.05-0.19-0.22-0.24-0.3
			c-1.88-2.81-3.5-5.75-4.88-8.8c1.05,2.01,2.22,3.97,3.48,5.88c0.19,0.28,0.49,0.73,1.05,0.94c0.19,0.07,0.38,0.1,0.56,0.1
			c0.54,0,1.01-0.26,1.27-0.39l10.18-5.38c0.84-0.46,1.78-0.96,2.55-1.68C173.21,121.23,173.2,121.32,173.19,121.41z M172.93,118.63
			c-0.11,0.27-0.25,0.53-0.43,0.78c-0.62,0.86-1.69,1.42-2.64,1.92l-10.17,5.39c-0.31,0.16-0.44,0.19-0.45,0.2
			c-0.07-0.05-0.19-0.23-0.24-0.3c-4.03-6.06-6.94-12.71-8.67-19.78c-0.05-0.17-0.08-0.35-0.12-0.52c-0.15-0.62-0.28-1.22-0.28-1.79
			v-0.05c0-0.21,0.02-0.42,0.08-0.62c0.66-2.95,5.65-5.73,8.89-5.73c0.34,0,0.65,0.03,0.95,0.09c3.25,0.7,5.95,4.8,8.11,8.1
			c0.53,0.81,1.04,1.58,1.5,2.23c1.25,1.72,2.62,3.63,3.33,5.73c0.16,0.46,0.28,0.92,0.36,1.41
			C173.25,116.39,173.35,117.57,172.93,118.63z"/>
	</g>
</g>
<g>
	<path style="fill:#49C0E7;" d="M97.87,150.96c1.38,2.62,2.79,5.22,4.22,7.81c0.3,0.55,0.63,1.12,1.17,1.43
		c0.56,0.34,1.26,0.33,1.92,0.35c2.43,0.08,4.86,0.59,7.26,0.27c2.41-0.32,4.91-1.75,5.47-4.11c0.31-1.28,0-2.63-0.33-3.91
		c-0.93-3.63-2.23-7.13-3.23-10.73c-0.51-1.84-0.38-5.14-1.26-6.74c-3.75-6.84-13.1,1.54-16.94,2.59c-1.5,0.41-2.35,2.09-2.32,3.64
		c0.03,1.55,0.74,3,1.44,4.38C96.13,147.63,96.99,149.3,97.87,150.96z"/>
	<g>
		<path style="fill:#A2AAA9;" d="M115.52,149.83c-0.48,2.04-2.73,3.21-4.76,3.47c-1.49,0.2-2.98,0.06-4.56-0.09
			c-0.84-0.08-1.71-0.16-2.58-0.18l-0.12-0.01c-0.54-0.01-1.05-0.02-1.38-0.23c-0.33-0.2-0.57-0.61-0.87-1.13
			c-1.43-2.58-2.85-5.2-4.21-7.79c-0.88-1.65-1.73-3.32-2.58-5c-0.75-1.47-1.33-2.71-1.36-4.02c-0.01-0.89,0.36-1.94,1.08-2.49
			c-0.07,0.33-0.11,0.64-0.1,0.96c0.03,1.44,0.69,2.73,1.22,3.78c0.66,1.31,1.34,2.61,2.03,3.9c1.07,2.05,2.18,4.11,3.31,6.11
			c0.25,0.45,0.59,1.07,1.22,1.44c0.6,0.35,1.26,0.37,1.9,0.39c0.63,0.02,1.27,0.08,1.91,0.14c0.81,0.08,1.63,0.16,2.48,0.16
			c0.46,0,0.93-0.02,1.41-0.09c2.09-0.27,4.44-1.56,4.98-3.85c0.08-0.32,0.11-0.62,0.11-0.93c0.19,0.65,0.38,1.29,0.55,1.95
			C115.52,147.62,115.78,148.78,115.52,149.83z"/>
		<path style="fill:#C3C3BA;" d="M112.88,144.93c-0.36,1.5-2.05,2.37-3.56,2.57c-1.14,0.16-2.3,0.05-3.51-0.07
			c-0.68-0.07-1.35-0.12-2.13-0.15c-0.39-0.01-0.77-0.02-0.99-0.16c-0.24-0.15-0.43-0.49-0.6-0.81c-1.11-1.99-2.22-4.04-3.29-6.06
			c-0.69-1.29-1.35-2.6-2.01-3.89c-0.57-1.14-1.01-2.07-1.04-3.05c-0.02-0.83,0.42-1.81,1.18-2.01c0.89-0.24,1.99-0.85,3.26-1.58
			c2.34-1.31,5.27-2.95,7.26-2.37c0.72,0.2,1.29,0.71,1.74,1.52c0.33,0.6,0.45,1.78,0.55,2.82c0.09,0.83,0.17,1.61,0.35,2.25
			c0.36,1.27,0.77,2.54,1.15,3.77c0.48,1.5,0.98,3.05,1.37,4.58C112.88,143.27,113.07,144.14,112.88,144.93z"/>
		<path d="M116.82,145.92c-0.52-2.03-1.16-4.04-1.78-5.99c-0.49-1.55-1-3.16-1.45-4.76c-0.18-0.66-0.28-1.6-0.38-2.58
			c-0.17-1.59-0.34-3.24-0.94-4.34c-0.82-1.5-1.96-2.46-3.39-2.87c-3.32-0.96-7.46,1.36-10.78,3.22c-1.45,0.82-2.84,1.59-3.74,1.83
			c-1.98,0.54-2.98,2.66-2.95,4.48c0.05,1.79,0.87,3.42,1.54,4.74c0.86,1.68,1.71,3.35,2.59,5.02c1.37,2.6,2.8,5.23,4.23,7.82
			c0.32,0.55,0.73,1.3,1.47,1.75c0.72,0.42,1.51,0.45,2.21,0.46l0.12,0.01c0.81,0.02,1.65,0.1,2.46,0.18
			c1.04,0.09,2.08,0.19,3.15,0.19c0.6,0,1.18-0.03,1.78-0.11c2.6-0.34,5.51-1.94,6.19-4.75
			C117.51,148.79,117.19,147.37,116.82,145.92z M106.2,153.21c-0.84-0.08-1.71-0.16-2.58-0.18l-0.12-0.01
			c-0.54-0.01-1.05-0.02-1.38-0.23c-0.33-0.2-0.57-0.61-0.87-1.13c-1.43-2.58-2.85-5.2-4.21-7.79c-0.88-1.65-1.73-3.32-2.58-5
			c-0.75-1.47-1.33-2.71-1.36-4.02c-0.01-0.89,0.36-1.94,1.08-2.49c-0.07,0.33-0.11,0.64-0.1,0.96c0.03,1.44,0.69,2.73,1.22,3.78
			c0.66,1.31,1.34,2.61,2.03,3.9c1.07,2.05,2.18,4.11,3.31,6.11c0.25,0.45,0.59,1.07,1.22,1.44c0.6,0.35,1.26,0.37,1.9,0.39
			c0.63,0.02,1.27,0.08,1.91,0.14c0.81,0.08,1.63,0.16,2.48,0.16c0.46,0,0.93-0.02,1.41-0.09c2.09-0.27,4.44-1.56,4.98-3.85
			c0.08-0.32,0.11-0.62,0.11-0.93c0.19,0.65,0.38,1.29,0.55,1.95c0.33,1.28,0.59,2.44,0.33,3.5c-0.48,2.04-2.73,3.21-4.76,3.47
			C109.27,153.5,107.78,153.36,106.2,153.21z M109.22,128.86c0.33,0.6,0.45,1.78,0.55,2.82c0.09,0.83,0.17,1.61,0.35,2.25
			c0.36,1.27,0.77,2.54,1.15,3.77c0.48,1.5,0.98,3.05,1.37,4.58c0.25,0.99,0.44,1.86,0.25,2.64c-0.36,1.5-2.05,2.37-3.56,2.57
			c-1.14,0.16-2.3,0.05-3.51-0.07c-0.68-0.07-1.35-0.12-2.13-0.15c-0.39-0.01-0.77-0.02-0.99-0.16c-0.24-0.15-0.43-0.49-0.6-0.81
			c-1.11-1.99-2.22-4.04-3.29-6.06c-0.69-1.29-1.35-2.6-2.01-3.89c-0.57-1.14-1.01-2.07-1.04-3.05c-0.02-0.83,0.42-1.81,1.18-2.01
			c0.89-0.24,1.99-0.85,3.26-1.58c2.34-1.31,5.27-2.95,7.26-2.37C108.19,127.54,108.77,128.05,109.22,128.86z"/>
	</g>
</g>
<g>
	<path style="fill:#49C0E7;" d="M122.8,150.1c0.18,0.51,0.41,1.06,0.91,1.33c0.59,0.31,1.32,0.12,1.96-0.07
		c6.03-1.84,22.66-5.51,24.96-11.22c2.04-5.09-5.2-14.15-9.25-16.77c-2.3-1.48-5.24-1.93-8.04-1.72c-2.8,0.21-5.5,1.04-8.14,1.93
		c-2.16,0.73-4.3,1.5-6.43,2.32C112.37,128.37,121.15,145.51,122.8,150.1z"/>
	<g>
		<path style="fill:#A2AAA9;" d="M148.55,132c0.07,0.86-0.02,1.65-0.26,2.35c-1.63,4.73-13,8.38-19.09,10.34
			c-1.26,0.4-2.36,0.77-3.23,1.07c-0.27,0.1-0.83,0.29-1.07,0.16c-0.22-0.14-0.38-0.66-0.47-0.94c-0.26-0.83-0.7-2.06-1.22-3.47
			c-0.17-0.45-0.35-0.94-0.54-1.49c-0.08-0.24-0.17-0.48-0.27-0.74c-0.11-0.34-0.24-0.69-0.37-1.05c-0.12-0.34-0.25-0.69-0.36-1.05
			c-0.25-0.73-0.49-1.5-0.75-2.28c-0.05-0.15-0.09-0.3-0.14-0.45c0.29,0.77,0.57,1.51,0.84,2.19c0.51,1.3,0.96,2.43,1.19,3.18
			c0.17,0.51,0.45,1.35,1.22,1.79c0.36,0.2,0.74,0.28,1.09,0.28c0.55,0,1.07-0.17,1.4-0.28c0.86-0.29,1.95-0.62,3.18-0.99
			C135.94,138.74,144.92,136.02,148.55,132z"/>
		<path d="M149.91,129.79c1.99-5.73-5.12-15.04-8.81-17.65c-2.06-1.46-4.87-2.13-7.91-1.87c-2.73,0.23-5.39,1.14-7.66,1.97
			c-1.98,0.73-3.97,1.52-5.92,2.34c-2.48,1.05-2.94,3.99-2.43,7.62c-0.97,5.07,2.28,13.99,4.44,19.88c0.51,1.39,0.95,2.6,1.19,3.39
			c0.16,0.53,0.44,1.42,1.2,1.89c0.36,0.21,0.74,0.29,1.1,0.29c0.56,0,1.07-0.18,1.42-0.3c0.84-0.3,1.94-0.65,3.17-1.05
			c7.27-2.34,18.26-5.87,20.17-11.4C150.41,133.4,150.35,131.63,149.91,129.79z M148.29,134.35c-1.63,4.73-13,8.38-19.09,10.34
			c-1.26,0.4-2.36,0.77-3.23,1.07c-0.27,0.1-0.83,0.29-1.07,0.16c-0.22-0.14-0.38-0.66-0.47-0.94c-0.26-0.83-0.7-2.06-1.22-3.47
			c-0.17-0.45-0.35-0.94-0.54-1.49c-0.09-0.24-0.18-0.48-0.27-0.74c-0.11-0.34-0.24-0.69-0.37-1.05c-0.12-0.34-0.25-0.69-0.36-1.05
			c-0.25-0.73-0.49-1.5-0.75-2.28c-0.05-0.15-0.09-0.3-0.14-0.45c0.29,0.77,0.57,1.51,0.84,2.19c0.51,1.3,0.96,2.43,1.19,3.18
			c0.17,0.51,0.45,1.35,1.22,1.79c0.36,0.2,0.74,0.28,1.09,0.28c0.55,0,1.07-0.17,1.4-0.28c0.86-0.29,1.95-0.62,3.18-0.99
			c6.23-1.89,15.21-4.61,18.85-8.63l0.01-0.01C148.62,132.84,148.54,133.64,148.29,134.35z M148.29,129.31
			c-0.05,0.12-0.09,0.24-0.16,0.36c-2.07,4.24-12.98,7.55-18.92,9.34c-1.25,0.38-2.35,0.72-3.22,1.01
			c-0.28,0.09-0.86,0.28-1.11,0.13c-0.21-0.12-0.36-0.59-0.45-0.85c-0.26-0.79-0.71-1.94-1.23-3.26c-1.37-3.53-3.62-9.33-4.33-13.79
			c-0.17-1.08-0.26-2.08-0.21-2.95c0.08-1.56,0.54-2.71,1.61-3.16c1.92-0.81,3.89-1.59,5.85-2.31c2.26-0.83,4.69-1.67,7.22-1.88
			c2.63-0.21,5.05,0.34,6.8,1.58c2.81,1.98,7.01,7.44,8.15,11.93C148.64,126.89,148.7,128.22,148.29,129.31z"/>
		<path style="fill:#C3C3BA;" d="M148.29,129.31c-0.05,0.12-0.09,0.24-0.16,0.36c-2.07,4.24-12.98,7.55-18.92,9.34
			c-1.25,0.38-2.35,0.72-3.22,1.01c-0.28,0.09-0.86,0.28-1.11,0.13c-0.21-0.12-0.36-0.59-0.45-0.85c-0.26-0.79-0.71-1.94-1.23-3.26
			c-1.37-3.53-3.62-9.33-4.33-13.79c-0.48-3-0.26-5.41,1.39-6.11c1.92-0.81,3.89-1.59,5.85-2.31c2.26-0.83,4.69-1.67,7.22-1.88
			c2.63-0.21,5.05,0.34,6.8,1.58C143.84,116.14,149.96,124.79,148.29,129.31z"/>
	</g>
</g>
</svg>
