<svg xml:space="preserve" style="enable-background:new 0 0 250 250;" viewBox="0 0 250 250" y="0px" x="0px" xmlns:xlink="http://www.w3.org/1999/xlink" xmlns="http://www.w3.org/2000/svg" id="레이어_1" version="1.1">
<g>
	<path d="M221.7,147.7L183.6,95l17.3,10.6c1.5,0.9,3.5,0.5,4.5-1.1l0.3-0.5c0.9-1.5,0.5-3.5-1.1-4.5L190.8,91
		l34.8,5.6c1.9,0.3,3.7-1,4.1-2.9s-1-3.7-2.9-4.1l-43.2-7l24.5-6.9c1.7-0.5,2.7-2.3,2.3-4l-0.2-0.6c-0.5-1.7-2.3-2.7-4-2.3
		l-11.6,3.3l5-3.6c1.6-1.1,1.9-3.3,0.8-4.9l-0.1-0.1c-1.1-1.6-3.3-1.9-4.9-0.8l-15.2,11l13.3-21.6c0.9-1.5,0.5-3.5-1.1-4.5l-0.5-0.3
		c-1.5-0.9-3.5-0.5-4.5,1.1l-8.6,14l1.4-8.9c0.3-2-1-3.8-3-4.1c-2-0.3-3.8,1-4.1,3l-2.7,17L163.4,45c-0.5-1.7-2.3-2.7-4-2.3
		l-0.6,0.2c-1.7,0.5-2.7,2.3-2.3,4l4.9,17.3L120.2,7.2c-1.2-1.6-3.4-2-5-0.8c-1.6,1.2-2,3.4-0.8,5l42.4,58.7l-17-10.5
		c-1.5-0.9-3.5-0.5-4.5,1.1l-0.3,0.5c-0.9,1.5-0.5,3.5,1.1,4.5l20.4,12.5l-39-6.3c-1.9-0.3-3.7,1-4.1,2.9c-0.3,1.9,1,3.7,2.9,4.1
		l34.3,5.5l-17.8,5c-1.7,0.5-2.7,2.3-2.3,4l0.2,0.6c0.5,1.7,2.3,2.7,4,2.3l22.8-6.4l-35,25.3c-1.6,1.1-1.9,3.3-0.8,4.9l0.1,0.1
		c1.1,1.6,3.3,1.9,4.9,0.8l28.5-20.6l-7.8,12.7c-0.9,1.5-0.5,3.5,1.1,4.5l0.5,0.3c1.5,0.9,3.5,0.5,4.5-1.1l12.4-20.1l-19.6,121.9
		c-0.3,2,1,3.8,3,4.1l0,0c2,0.3,3.8-1,4.1-3l18.9-117.5l5.1,17.9c0.5,1.7,2.3,2.7,4,2.3l0.6-0.2c1.7-0.5,2.7-2.3,2.3-4l-4.8-17
		l36.5,50.6c1.2,1.6,3.4,2,5,0.8C222.5,151.5,222.8,149.3,221.7,147.7z" style="fill:#62FF42;"></path>
	<path d="M117.3,5.7c1.1,0,2.2,0.5,2.9,1.5l41.3,57.1L156.5,47c-0.5-1.7,0.5-3.5,2.3-4l0.6-0.2c0.3-0.1,0.6-0.1,0.9-0.1
		c1.4,0,2.7,0.9,3.1,2.4l6.8,24.2l2.7-17c0.3-1.8,1.8-3,3.5-3c0.2,0,0.4,0,0.6,0c2,0.3,3.3,2.2,3,4.1l-1.4,8.9l8.6-14
		c0.6-1,1.7-1.6,2.8-1.6c0.6,0,1.2,0.2,1.7,0.5l0.5,0.3c1.5,0.9,2,3,1.1,4.5L180,73.7l15.2-11c0.6-0.5,1.3-0.7,2.1-0.7
		c1.1,0,2.2,0.5,2.9,1.5l0.1,0.1c1.1,1.6,0.8,3.8-0.8,4.9l-5,3.6l11.6-3.3c0.3-0.1,0.6-0.1,0.9-0.1c1.4,0,2.7,0.9,3.1,2.4l0.2,0.6
		c0.5,1.7-0.5,3.5-2.3,4l-24.5,6.9l43.2,7c1.9,0.3,3.2,2.1,2.9,4.1c-0.3,1.7-1.8,3-3.5,3c-0.2,0-0.4,0-0.6,0L190.8,91l13.9,8.5
		c1.5,0.9,2,3,1.1,4.5l-0.3,0.5c-0.6,1-1.7,1.6-2.8,1.6c-0.6,0-1.2-0.2-1.7-0.5L183.6,95l38.1,52.7c1.2,1.6,0.8,3.8-0.8,5
		c-0.6,0.5-1.4,0.7-2.1,0.7c-1.1,0-2.2-0.5-2.9-1.5l-36.5-50.6l4.8,17c0.5,1.7-0.5,3.5-2.3,4l-0.6,0.2c-0.3,0.1-0.6,0.1-0.9,0.1
		c-1.4,0-2.7-0.9-3.1-2.4l-5.1-17.9l-18.9,117.5c-0.3,1.8-1.8,3-3.5,3c-0.2,0-0.4,0-0.6,0c-2-0.3-3.3-2.2-3-4.1l19.6-121.9
		L153.5,117c-0.6,1-1.7,1.6-2.8,1.6c-0.6,0-1.2-0.2-1.7-0.5l-0.5-0.3c-1.5-0.9-2-3-1.1-4.5l7.8-12.7l-28.5,20.6
		c-0.6,0.5-1.3,0.7-2.1,0.7c-1.1,0-2.2-0.5-2.9-1.5l-0.1-0.1c-1.1-1.6-0.8-3.8,0.8-4.9l35-25.3l-22.8,6.4c-0.3,0.1-0.6,0.1-0.9,0.1
		c-1.4,0-2.7-0.9-3.1-2.4l-0.2-0.6c-0.5-1.7,0.5-3.5,2.3-4l17.8-5L116.3,79c-1.9-0.3-3.2-2.1-2.9-4.1c0.3-1.7,1.8-3,3.5-3
		c0.2,0,0.4,0,0.6,0l39,6.3L136,65.8c-1.5-0.9-2-3-1.1-4.5l0.3-0.5c0.6-1,1.7-1.6,2.8-1.6c0.6,0,1.2,0.2,1.7,0.5l17,10.5l-42.4-58.7
		c-1.2-1.6-0.8-3.8,0.8-5C115.8,6,116.5,5.7,117.3,5.7 M117.3,2.7L117.3,2.7c-1.4,0-2.7,0.4-3.9,1.2c-2.9,2.1-3.6,6.2-1.5,9.2
		l33.6,46.5l-4.2-2.6c-1-0.6-2.1-0.9-3.3-0.9c-2.2,0-4.2,1.1-5.3,3l-0.3,0.5c-1.8,2.9-0.9,6.8,2.1,8.6l7.5,4.6l-24.1-3.9
		c-0.3-0.1-0.7-0.1-1-0.1c-3.2,0-5.9,2.3-6.4,5.5c-0.3,1.7,0.1,3.5,1.2,4.9s2.5,2.3,4.3,2.6l20.9,3.4l-4.8,1.3
		c-3.3,0.9-5.3,4.4-4.3,7.7l0.2,0.6c0.8,2.7,3.2,4.6,6,4.6c0.6,0,1.1-0.1,1.7-0.2l6.5-1.8l-21.2,15.3c-2.9,2.1-3.6,6.2-1.5,9.1
		l0.1,0.1c1.2,1.7,3.2,2.7,5.3,2.7c1.4,0,2.7-0.4,3.8-1.2l16.3-11.8c-0.8,1.4-1.1,3.1-0.7,4.7c0.4,1.6,1.4,3,2.8,3.9l0.5,0.3
		c1,0.6,2.1,0.9,3.3,0.9c2.2,0,4.2-1.1,5.3-3l4.4-7.2l-17.2,106.9c-0.6,3.6,1.9,7,5.4,7.5c0.3,0.1,0.7,0.1,1.1,0.1
		c3.2,0,6-2.3,6.5-5.5L173,116.2l1.4,4.9c0.8,2.7,3.2,4.6,6,4.6c0.6,0,1.1-0.1,1.7-0.2l0.6-0.2c3.3-0.9,5.3-4.4,4.3-7.7l-0.2-0.7
		l26.6,36.8c1.2,1.7,3.2,2.7,5.3,2.7c1.4,0,2.7-0.4,3.9-1.2c2.9-2.1,3.6-6.2,1.5-9.2l-29.3-40.5l4.5,2.8c1,0.6,2.1,0.9,3.3,0.9
		c2.2,0,4.2-1.1,5.3-3l0.3-0.5c1.8-2.9,0.9-6.8-2.1-8.6l-1-0.6l19.8,3.2c0.3,0.1,0.7,0.1,1,0.1c3.2,0,5.9-2.3,6.4-5.5
		c0.3-1.7-0.1-3.5-1.2-4.9c-1-1.4-2.5-2.3-4.3-2.6l-29.8-4.8l11.4-3.2c1.6-0.5,2.9-1.5,3.8-3c0.8-1.5,1-3.2,0.6-4.8l-0.2-0.6
		c-0.8-2.7-3.2-4.6-6-4.6c-0.6,0-1.1,0.1-1.7,0.2l-1.3,0.4c0.2-1.5-0.2-3.2-1.2-4.5l-0.1-0.1c-1.2-1.7-3.2-2.7-5.3-2.7
		c-1.4,0-2.7,0.4-3.8,1.2l-3,2.2l5.4-8.8c0.9-1.4,1.1-3.1,0.8-4.7c-0.4-1.6-1.4-3-2.8-3.9l-0.5-0.3c-1-0.6-2.1-0.9-3.3-0.9
		c-2.2,0-4.2,1.1-5.3,3l-2.1,3.4c-0.9-2-2.7-3.5-5-3.9c-0.3-0.1-0.7-0.1-1-0.1c-3.2,0-6,2.3-6.5,5.5l-0.6,3.6l-3.1-11.1
		c-0.8-2.7-3.2-4.6-6-4.6c-0.6,0-1.1,0.1-1.7,0.2l-0.6,0.2c-3.3,0.9-5.3,4.4-4.3,7.7l0.3,1L122.6,5.5C121.4,3.8,119.4,2.7,117.3,2.7
		L117.3,2.7z"></path>
</g>
<g>
	<g>
		<path d="M66,216.4l-7.4,26.2H12.7c0,0,1-93,9.8-114.2s16.6-20.1,16.6-20.1s10.6,1.1,7.8,24.7
			c0,0,7.8-12.4,15.9-8.5c0,0,11.3-14.8,23.3-0.4c0,0,15.2-16.3,23.7-13.8c8.5,2.5,9.2,11.3,3.9,18c-5.3,6.7-20.1,18-20.1,18
			s-8,12-3.1,20.3c1,1.7,3.4,1.9,4.6,0.4c4.6-5.6,17.3-16.8,19.3-17.8c4.8-2.3,12.8-3,17.2,0.6c5.1,4.1,1.8,10.2-1.2,14.5
			c-7.9,10.9-17.5,20.8-26.7,30.6c-3.3,3.5-6.7,7.1-10,10.5C93.6,205.5,80.8,219.6,66,216.4z" style="fill:#FF863B;"></path>
		<path d="M58.6,244.1H12.7c-0.4,0-0.8-0.2-1.1-0.4c-0.3-0.3-0.4-0.7-0.4-1.1c0-3.8,1.1-93.5,9.9-114.7c9-21.6,17.3-21.2,18.2-21.1
			c0.3,0,3,0.4,5.5,3.5c3,3.8,4.3,9.7,4,17.8c3.1-3.3,8.1-7.2,13.5-5.4c1.7-1.9,6.3-6.3,12.3-6.4c4.1-0.1,8,1.8,11.5,5.6
			c4-4,16.1-15.3,24-13c3.9,1.1,6.7,3.7,7.8,7.1c1.3,4.1,0.1,9.1-3.2,13.3c-5.1,6.4-18.3,16.7-20.2,18.1c-1,1.5-7,11.7-3,18.5
			c0.2,0.4,0.6,0.6,1,0.7c0.4,0,0.8-0.1,1.1-0.5c4.5-5.5,17.5-17.1,19.8-18.2c5.5-2.7,14-3.1,18.8,0.8c4.6,3.7,4.3,9.3-1,16.5
			c-7,9.7-15.5,18.7-23.6,27.3c-1.1,1.1-2.2,2.3-3.2,3.4c-4,4.3-7.1,7.5-10.1,10.5c-0.5,0.5-12.7,13.9-27.6,11.6L60,243
			C59.8,243.6,59.3,244.1,58.6,244.1z M14.3,241.1h43.2l7.1-25.1c0.2-0.8,1-1.2,1.8-1.1c13.8,3,26-10.4,26.1-10.5
			c3-3.1,6.1-6.3,10.1-10.5c1.1-1.1,2.1-2.3,3.2-3.4c8.1-8.6,16.4-17.4,23.4-27c5.6-7.7,3.5-10.8,1.5-12.4
			c-3.8-3.1-11.1-2.6-15.6-0.4c-1.5,0.8-14.1,11.7-18.8,17.4c-0.9,1.1-2.3,1.7-3.7,1.6c-1.4-0.1-2.7-0.9-3.4-2.1
			c-5.3-9,2.8-21.3,3.2-21.9c0.1-0.1,0.2-0.3,0.3-0.4c0.1-0.1,14.8-11.3,19.9-17.8c2.7-3.4,3.7-7.3,2.7-10.5
			c-0.8-2.5-2.8-4.3-5.8-5.2c-6.2-1.8-18.1,9-22.2,13.4c-0.3,0.3-0.7,0.5-1.1,0.5c-0.4,0-0.8-0.2-1.1-0.5c-3.3-3.9-6.7-5.9-10.2-5.8
			c-6.1,0.1-10.7,6.1-10.7,6.1c-0.4,0.6-1.2,0.7-1.8,0.4c-6.8-3.3-13.9,7.8-14,7.9c-0.4,0.6-1.1,0.8-1.8,0.6c-0.7-0.2-1.1-0.9-1-1.6
			c2.6-21.6-6.4-23.1-6.5-23.1c-0.1,0-6.9-0.2-15.1,19.2C15.9,148.2,14.4,229,14.3,241.1z"></path>
	</g>
	<g>
		<g>
			<path d="M75.9,176.2l-0.2-0.2c-3.3-3.3-3.3-8.7,0-12L145,94.8l12.1,12.1l-69.2,69.2
				C84.6,179.5,79.2,179.5,75.9,176.2z" style="fill:#6B6B6B;"></path>
			<path d="M81.9,180.1c-2.5,0-5.1-1-7-2.9l-0.2-0.2c-1.9-1.9-2.9-4.4-2.9-7s1-5.2,2.9-7l69.2-69.2c0.6-0.6,1.5-0.6,2.1,0l12.1,12.1
				c0.6,0.6,0.6,1.5,0,2.1l-69.2,69.2C87,179.2,84.5,180.1,81.9,180.1z M145,96.9l-68.2,68.2c-1.3,1.3-2,3.1-2,4.9
				c0,1.9,0.7,3.6,2,4.9l0.2,0.2c0,0,0,0,0,0c2.7,2.7,7.1,2.7,9.8,0l68.2-68.2L145,96.9z"></path>
		</g>
		<g>
			<path d="M145.7,106.3L145.7,106.3c-3.3-3.3-3.3-8.8,0-12.1l13.1-4.4l3.4,3.4l-4.4,13.1
				C154.4,109.6,149,109.6,145.7,106.3z" style="fill:#A8A8A8;"></path>
			<path d="M151.7,110.3c-2.6,0-5.2-1-7.1-2.9c-1.9-1.9-3-4.4-3-7.1s1-5.2,3-7.1c0.2-0.2,0.4-0.3,0.6-0.4l13.1-4.4
				c0.5-0.2,1.1,0,1.5,0.4l3.4,3.4c0.4,0.4,0.5,1,0.4,1.5l-4.4,13.1c-0.1,0.2-0.2,0.4-0.4,0.6C156.9,109.3,154.3,110.3,151.7,110.3z
				 M146.5,95.5c-1.2,1.3-1.8,3-1.8,4.8c0,1.9,0.7,3.7,2.1,5c2.7,2.7,7,2.8,9.8,0.2l4-11.9l-2.1-2.1L146.5,95.5z"></path>
		</g>
		<g>
			<path d="M164.2,87.8L164.2,87.8c-1-1-2.5-1-3.4,0l-2.7,2.7c-0.9,0.9-0.9,2.4,0,3.3l0,0
				c0.9,0.9,2.4,0.9,3.3,0l2.7-2.7C165.1,90.2,165.1,88.7,164.2,87.8z" style="fill:#FFFFFF;"></path>
			<path d="M159.8,96c-1,0-2-0.4-2.7-1.1c-0.8-0.8-1.2-1.7-1.2-2.8c0-1,0.4-2,1.1-2.7l2.7-2.7c1.5-1.5,3.9-1.5,5.4,0l0,0
				c1.5,1.5,1.5,3.9,0,5.4l-2.7,2.7C161.8,95.6,160.8,96,159.8,96z M162.5,88.5c-0.2,0-0.4,0.1-0.6,0.2l-2.7,2.7
				c-0.2,0.2-0.2,0.4-0.2,0.6s0.1,0.4,0.2,0.6c0.4,0.4,0.9,0.4,1.2,0l2.7-2.7c0.2-0.2,0.2-0.4,0.2-0.6c0-0.2-0.1-0.4-0.2-0.6l0,0
				C162.9,88.6,162.7,88.5,162.5,88.5z"></path>
		</g>
	</g>
	<g>
		<path d="M86.1,124.2c0,0,9.5,22.5,4.2,29.6c-6.7,8.9-13.7-1.7-13.7-1.7" style="fill:#FF863B;"></path>
		<path d="M84.5,158.9c-0.1,0-0.1,0-0.2,0c-5-0.1-8.8-5.7-9-5.9c-0.5-0.7-0.3-1.6,0.4-2.1c0.7-0.5,1.6-0.3,2.1,0.4
			c0.8,1.2,3.6,4.5,6.5,4.6c1.6,0.1,3.2-1,4.7-3c3.9-5.2-1.8-22.1-4.4-28.1c-0.3-0.8,0-1.6,0.8-2c0.8-0.3,1.6,0,2,0.8
			c0.1,0.2,2.4,5.8,4.1,12.3c2.4,9.1,2.3,15.4-0.1,18.7C89.5,157.4,87.1,158.9,84.5,158.9z"></path>
	</g>
	<g>
		<path d="M62.8,124.2c0,0,16.4,4.4,13.7,29.7c-0.4,3.8-3.3,7.1-7.1,7.7c-3.5,0.6-7.6-0.8-9.9-8.8l-3.2-12.4" style="fill:#FF863B;"></path>
		<path d="M68.1,163.2c-3.5,0-7.6-2-9.9-10L55,140.8c-0.2-0.8,0.3-1.6,1.1-1.8c0.8-0.2,1.6,0.3,1.8,1.1l3.2,12.4
			c1.6,5.7,4.4,8.3,8.2,7.7c3.1-0.5,5.5-3.1,5.8-6.4c2.5-23.6-12-28-12.6-28.1c-0.8-0.2-1.3-1-1-1.8c0.2-0.8,1-1.3,1.8-1.1
			c0.2,0,17.6,5.1,14.8,31.3c-0.5,4.6-3.9,8.3-8.3,9C69.2,163.2,68.7,163.2,68.1,163.2z"></path>
	</g>
	<g>
		<path d="M46.9,133c0,0-5.7,10.2-4.6,22.6" style="fill:#FF863B;"></path>
		<path d="M42.3,157.1c-0.8,0-1.4-0.6-1.5-1.4c-1.1-12.7,4.5-23,4.8-23.5c0.4-0.7,1.3-1,2-0.6c0.7,0.4,1,1.3,0.6,2
			c-0.1,0.1-5.4,10-4.4,21.8c0.1,0.8-0.5,1.6-1.4,1.6C42.4,157.1,42.4,157.1,42.3,157.1z"></path>
	</g>
</g>
</svg>
