<?xml version="1.0" encoding="utf-8"?>
<!-- Generator: Adobe Illustrator 26.5.0, SVG Export Plug-In . SVG Version: 6.00 Build 0)  -->
<svg version="1.1" id="레이어_1" xmlns="http://www.w3.org/2000/svg" xmlns:xlink="http://www.w3.org/1999/xlink" x="0px"
	 y="0px" viewBox="0 0 47 343" style="enable-background:new 0 0 47 343;" xml:space="preserve">
<g>
	<g>
		<g>
			<path style="fill:#E89258;" d="M29.1,341c-4.3,0-6.5-3.9-6.5-7.7l-2.4-40.1L17,248.5l-4.7-67.9l-3.9-62.6L4.3,58.7
				C2.1,18.3,2.1,17.3,2.1,17.3C1.7,9.7,2.3,5.7,4.2,3.6C5.1,2.6,6.3,2,7.6,2c5,0,6.4,6.4,7,9.2l0.1,0.3c0.6,2.7,0.9,5.4,1.1,8
				l0.1,0.7c0.2,2.3,0.4,4.6,0.5,6.9c0.1,2.1,0.3,4.2,0.5,6.2l2.6,38.3l3.1,38.9l4.5,60l2.9,44.6l2.8,39.8l1.7,26.5l5.1,9.1
				c0.3,0.6,0.7,1.2,1.1,1.8c0.9,1.5,1.9,3,2.5,4.7c1.1,3,1.1,6.1,1,8.9c0,1,0,1.9,0,2.8l1,23.5c0.3,5.8-3,7.8-5,8.1l-0.2,0
				L29.6,341C29.5,341,29.3,341,29.1,341z"/>
		</g>
	</g>
	<path style="fill:#F9BA8F;" d="M19.5,145.4c-0.3,0-0.5-0.2-0.5-0.5l-0.8-9.2c0-0.3,0.2-0.5,0.4-0.5c0.3,0,0.5,0.2,0.5,0.5l0.8,9.2
		C20,145.1,19.8,145.3,19.5,145.4C19.5,145.4,19.5,145.4,19.5,145.4z"/>
	<path style="fill:#F9BA8F;" d="M20.3,155c-0.3,0-0.5-0.2-0.5-0.5l-0.6-6.7c0-0.3,0.2-0.5,0.4-0.5c0.3,0,0.5,0.2,0.5,0.5l0.6,6.7
		C20.8,154.8,20.6,155,20.3,155C20.3,155,20.3,155,20.3,155z"/>
	<path style="fill:#F9BA8F;" d="M26.9,249.5c-0.3,0-0.5-0.2-0.5-0.5l-0.9-10.8c0-0.3,0.2-0.5,0.4-0.5c0.3,0,0.5,0.2,0.5,0.5
		l0.9,10.8C27.4,249.3,27.2,249.5,26.9,249.5C26.9,249.5,26.9,249.5,26.9,249.5z"/>
	<path style="fill:#F9BA8F;" d="M27.8,262.8c-0.3,0-0.5-0.2-0.5-0.5l-0.7-9.9c0-0.3,0.2-0.5,0.5-0.5c0.3,0,0.5,0.2,0.5,0.5l0.7,9.9
		C28.3,262.5,28.1,262.7,27.8,262.8C27.9,262.8,27.8,262.8,27.8,262.8z"/>
	<path style="fill:#F9BA8F;" d="M8.5,45.3c-0.3,0-0.5-0.2-0.5-0.5l-0.4-9.6c0-0.3,0.2-0.5,0.5-0.5c0.3,0,0.5,0.2,0.5,0.5L9,44.8
		C9,45.1,8.8,45.3,8.5,45.3C8.5,45.3,8.5,45.3,8.5,45.3z"/>
	<path style="fill:#F9BA8F;" d="M38.3,311.8c-0.3,0-0.5-0.2-0.5-0.5v-7.8c0-0.3,0.2-0.5,0.5-0.5c0.3,0,0.5,0.2,0.5,0.5v7.8
		C38.8,311.5,38.6,311.8,38.3,311.8z"/>
	<path style="fill:#F9BA8F;" d="M38.3,323.3c-0.3,0-0.5-0.2-0.5-0.5V315c0-0.3,0.2-0.5,0.5-0.5c0.3,0,0.5,0.2,0.5,0.5v7.8
		C38.8,323.1,38.6,323.3,38.3,323.3z"/>
	<path style="fill:#F9BA8F;" d="M35,317.2c-0.3,0-0.5-0.2-0.5-0.5v-8.1c0-0.3,0.2-0.5,0.5-0.5c0.3,0,0.5,0.2,0.5,0.5v8.1
		C35.5,317,35.3,317.2,35,317.2z"/>
	<path style="fill:#2B2F33;" d="M7.7,4c3.4,0,4.5,5.1,5.1,7.6l0.1,0.3c0.6,2.6,0.8,5.2,1.1,7.8l0.1,0.7c0.2,2.3,0.4,4.6,0.5,6.8
		c0.1,2,0.3,4.2,0.5,6.2l2.6,38.3l3.1,39l4.5,60l2.9,44.5l2.8,39.8l1.7,26.9l5.3,9.5c0.4,0.6,0.7,1.3,1.1,1.9
		c0.9,1.4,1.8,2.9,2.3,4.4c1,2.6,0.9,5.4,0.9,8.2c0,1,0,2,0,2.9l1,23.5c0.3,5.4-3.2,6-3.3,6l-0.1,0L29.5,339c-0.1,0-0.3,0-0.4,0
		c-3.6,0-4.6-3.8-4.6-5.7l-2.4-40.1L19,248.4l-4.7-67.9l-3.9-62.6L6.2,58.5C4.1,17.5,4.1,17.2,4.1,17.2C3.7,10.4,4.2,6.6,5.6,5
		C6.2,4.4,6.9,4,7.7,4 M7.7,0L7.7,0L7.7,0C5.7,0,4,0.8,2.8,2.3C0.4,4.9-0.3,9.1,0.1,17.4c0,0,0.1,1.2,2.2,41.3l0,0l0,0l4.2,59.4
		l3.9,62.5l4.7,67.9l3.1,44.7l2.4,40c0.1,6.3,4.3,9.6,8.5,9.6c0.2,0,0.4,0,0.7,0l10-0.6l0.1,0l0.1,0l0.1,0l0.1,0l0.1,0
		c2.5-0.3,7.1-2.9,6.7-10.2l-1-23.4c0-0.8,0-1.7,0-2.6c0.1-3,0.1-6.4-1.2-9.7c-0.7-1.9-1.8-3.6-2.7-5c-0.4-0.6-0.8-1.2-1.1-1.8
		l-4.9-8.7l-1.7-26l-2.8-39.8L29,170.4l-4.5-60l-3.1-39l-2.6-38.3l0,0l0,0c-0.2-2-0.3-4.1-0.4-6.1c-0.2-2.3-0.3-4.6-0.5-7l-0.1-0.7
		c-0.3-2.7-0.5-5.5-1.1-8.3l-0.1-0.3C15.9,7.8,14.2,0,7.7,0L7.7,0z"/>
</g>
</svg>
