<?xml version="1.0" encoding="utf-8"?>
<!-- Generator: Adobe Illustrator 26.5.0, SVG Export Plug-In . SVG Version: 6.00 Build 0)  -->
<svg version="1.1" id="레이어_5" xmlns="http://www.w3.org/2000/svg" xmlns:xlink="http://www.w3.org/1999/xlink" x="0px"
	 y="0px" viewBox="0 0 240 240" style="enable-background:new 0 0 240 240;" xml:space="preserve">
<g>
	<defs>
		<rect id="SVGID_1_" width="240" height="240"/>
	</defs>
	<clipPath id="SVGID_00000085965971004289903540000008417434235772143245_">
		<use xlink:href="#SVGID_1_"  style="overflow:visible;"/>
	</clipPath>
	<g style="clip-path:url(#SVGID_00000085965971004289903540000008417434235772143245_);">
		<g>
			<path style="fill:#595959;" d="M60.5,197.1c-0.9-0.2-1.9-0.4-2.9-0.5c-8.7-1.1-16.7,7.1-22.7,12.8
				c-15.4,14.4-22.2,34.9-10.1,55.3c3.6,6.1,8.8,13,15,16.2c2.6,1.3,5.7,1.5,8.6,1.3c5.4-0.5,11.2-2.9,12.9-7.7
				c1.3-3.7-0.3-7.7-2.5-11c-3-4.4-7.1-8-10.4-12.1c-4.1-5.3-6.1-12.6-3.2-18.5c2.9-5.9,7-9,11.6-13.8c3.9-4.1,8.3-7.4,9.8-13
				C67.9,200.8,64.9,198.2,60.5,197.1z"/>
			<path d="M46.2,283.5c-2.8,0-5.1-0.5-7.1-1.5c-5.3-2.7-10.5-8.3-15.5-16.7c-11.3-19-7.4-40.3,10.4-57l1.1-1.1
				c5.8-5.5,13.9-13.1,22.6-12c1.1,0.1,2.1,0.3,3.1,0.6l0,0c5.9,1.5,8.4,5.2,7,10.5c-1.3,4.9-4.6,8.2-7.8,11.3
				c-0.8,0.7-1.5,1.5-2.3,2.3c-1.1,1.1-2.1,2.1-3.1,3.1c-3.3,3.2-6.1,6-8.3,10.3c-2.4,4.9-1.3,11.6,3,17c1.4,1.7,2.9,3.4,4.4,5
				c2.1,2.3,4.2,4.6,6,7.2c2.1,3.1,4.3,7.7,2.7,12.2c-1.9,5.6-8.5,8.1-14,8.6C47.7,283.5,47,283.5,46.2,283.5z M56.1,197.8
				c-7,0-13.7,6.3-19.1,11.4l-1.1,1.1C19.1,226,15.4,246.1,26,263.9c4.6,7.8,9.6,13.2,14.4,15.7c2,1,4.7,1.4,7.9,1.1
				c4.5-0.4,10.2-2.4,11.7-6.8c1.2-3.5-0.6-7.2-2.4-9.8c-1.7-2.4-3.7-4.7-5.8-6.9c-1.5-1.7-3.1-3.4-4.6-5.2
				c-4.9-6.3-6.2-14.1-3.3-19.9c2.4-4.7,5.3-7.6,8.8-11c1-1,2-2,3.1-3.1c0.8-0.8,1.6-1.6,2.3-2.3c3.1-3,6-5.9,7.1-10.1
				c0.6-2.4,0.7-5.7-5.1-7.2h0c-0.8-0.2-1.7-0.4-2.7-0.5C57,197.8,56.5,197.8,56.1,197.8z"/>
		</g>
		<g>
			<path style="fill:#264DA0;" d="M29.6,271.8c-0.9-1.3-4.1-5.9-4.8-7.2c-12.1-20.4-5.3-40.9,10.1-55.3c6-5.6,14-13.8,22.7-12.8
				c1,0.1,2,0.3,2.9,0.5c4.4,1.1,7.4,3.7,6.1,8.9c-1.4,5.6-5.8,8.9-9.8,13c-4.6,4.8-8.7,7.9-11.6,13.8c-2.9,5.9-1,13.2,3.2,18.5
				c1.6,2.1,3.5,4,5.3,6L29.6,271.8z"/>
			<path d="M29.7,273.1c-0.4,0-0.9-0.2-1.1-0.6c-0.2-0.4-0.7-1-1.1-1.7c-1.3-1.9-3.2-4.6-3.7-5.6c-11.3-19-7.4-40.3,10.4-57l1.1-1.1
				c5.8-5.5,13.9-13.1,22.6-12c1.1,0.1,2.1,0.3,3.1,0.6c5.9,1.5,8.4,5.2,7,10.5c-1.3,4.9-4.6,8.2-7.8,11.3c-0.8,0.7-1.5,1.5-2.3,2.3
				c-1.1,1.1-2.1,2.1-3.1,3.1c-3.3,3.2-6.1,6-8.3,10.3c-2.4,4.9-1.3,11.6,3,17c1.4,1.8,2.9,3.4,4.5,5.1l0.8,0.8
				c0.3,0.3,0.4,0.7,0.3,1.1c-0.1,0.4-0.3,0.7-0.6,1l-24,14.6C30.1,273.1,29.9,273.1,29.7,273.1z M56.1,197.8
				c-7,0-13.7,6.3-19.1,11.4l-1.1,1.1C19.1,226,15.4,246.1,26,263.9c0.5,0.9,2.4,3.6,3.6,5.4c0.2,0.2,0.3,0.4,0.4,0.6l21.5-13
				c-1.4-1.6-2.9-3.2-4.2-4.9c-4.9-6.3-6.2-14.1-3.3-19.9c2.4-4.7,5.3-7.6,8.8-11c1-1,2-2,3.1-3.1c0.8-0.8,1.6-1.6,2.3-2.3
				c3.1-3,6-5.9,7.1-10.1c0.6-2.4,0.7-5.7-5.1-7.2c-0.8-0.2-1.7-0.4-2.7-0.5C57,197.8,56.5,197.8,56.1,197.8z"/>
		</g>
		<g>
			<line style="fill:#D5B898;" x1="19.3" y1="250.2" x2="44" y2="241.4"/>
			<path d="M19.3,251.6c-0.6,0-1.1-0.3-1.3-0.9c-0.2-0.7,0.1-1.5,0.8-1.7l24.7-8.8c0.7-0.2,1.5,0.1,1.7,0.8c0.2,0.7-0.1,1.5-0.8,1.7
				l-24.7,8.8C19.6,251.6,19.4,251.6,19.3,251.6z"/>
		</g>
		<g>
			<g>
				<path style="fill:#FFC600;" d="M38,204c0,0-4.6,3.6-6.4,5.5l9.7,6.7l6-5.1L38,204z"/>
				<path d="M41.3,217.6c-0.3,0-0.5-0.1-0.8-0.2l-9.7-6.7c-0.3-0.2-0.5-0.6-0.6-1c0-0.4,0.1-0.8,0.3-1.1c1.8-2,6.4-5.5,6.6-5.7
					c0.5-0.4,1.2-0.4,1.6,0l9.3,7.2c0.3,0.2,0.5,0.6,0.5,1c0,0.4-0.2,0.8-0.5,1.1l-6,5.1C42,217.5,41.6,217.6,41.3,217.6z
					 M33.7,209.3l7.5,5.2l3.9-3.4l-7.1-5.5C37,206.5,35.1,208,33.7,209.3z"/>
			</g>
			<g>
				<line style="fill:#FFC600;" x1="37.8" y1="208.3" x2="41" y2="210.7"/>
				<path d="M41,212c-0.3,0-0.5-0.1-0.8-0.3l-3.3-2.4c-0.6-0.4-0.7-1.3-0.3-1.9c0.4-0.6,1.3-0.7,1.9-0.3l3.3,2.4
					c0.6,0.4,0.7,1.3,0.3,1.9C41.9,211.9,41.5,212,41,212z"/>
			</g>
			<g>
				<path d="M38,204c0,0,7.3-7.4,12.8-8.3l9,7.2c0,0-10.1,6.2-12.5,8.3L38,204z"/>
				<path d="M47.3,212.5c-0.3,0-0.6-0.1-0.8-0.3l-9.3-7.2c-0.3-0.2-0.5-0.6-0.5-1c0-0.4,0.1-0.8,0.4-1c0.3-0.3,7.6-7.8,13.6-8.7
					c0.4-0.1,0.8,0,1.1,0.3l9,7.2c0.3,0.3,0.5,0.7,0.5,1.1c0,0.4-0.3,0.8-0.6,1.1c-0.1,0.1-10,6.1-12.4,8.1
					C47.9,212.4,47.6,212.5,47.3,212.5z M40.1,203.9l7.2,5.6c2.5-1.9,7.6-5.1,10.2-6.7l-7-5.6C46.8,198,42.2,201.9,40.1,203.9z"/>
			</g>
		</g>
		<g>
			<polygon style="fill:#FFC600;" points="21.1,257 45.2,245.8 48.4,251.2 23.7,262.7 			"/>
			<path d="M23.7,264.1c-0.2,0-0.3,0-0.5-0.1c-0.3-0.1-0.6-0.4-0.8-0.7l-2.6-5.8c-0.3-0.7,0-1.5,0.7-1.8l24.1-11.1
				c0.6-0.3,1.4-0.1,1.7,0.5l3.1,5.4c0.2,0.3,0.2,0.7,0.1,1.1c-0.1,0.4-0.4,0.7-0.7,0.8L24.3,264C24.1,264,23.9,264.1,23.7,264.1z
				 M22.9,257.6l1.5,3.3l22.1-10.3l-1.8-3.1L22.9,257.6z"/>
		</g>
	</g>
	<g style="clip-path:url(#SVGID_00000085965971004289903540000008417434235772143245_);">
		<g>
			<path style="fill:#2C4F9E;" d="M106.8,171.6c-11.8,0-22.7,1.6-22.7,1.6c-0.3,0-20.3,6.6-23.2,26.8c-1.8,13.3-4.1,20.7-6.3,28.4
				c-1.4,4.5-2.7,9.5-4.3,15.8c-2.5,10.8-0.7,28.2,9.2,40.8C69,296.9,84.1,303,103.9,303s34.9-6,44.4-18.1
				c9.9-12.6,11.9-30,9.2-40.8c-1.6-6.3-2.7-10.6-4.1-14.9c-2-7-4.1-13.7-6.7-29.3c-2.9-20-22.5-26.8-22.7-26.8
				C118.7,172,112.7,171.6,106.8,171.6z"/>
			<path d="M103.9,304.2c-20.4,0-35.7-6.2-45.4-18.5c-10.1-12.9-12-30.8-9.5-41.9c1.5-6.2,2.9-11.2,4.3-15.8l0.2-0.7
				c2.2-7.6,4.3-14.7,6-27.5c3-20.4,22.2-27.3,24.3-27.9l0,0c0.1,0,11.2-1.6,22.9-1.6c6.6,0,12.5,0.6,17.4,1.6l0,0
				c2.7,0.6,21,8.6,23.8,27.9c2.6,14.9,4.6,21.8,6.5,28.4l0.2,0.7c1.4,4.3,2.5,8.6,4.1,14.9c2.7,10.9,0.9,28.6-9.5,41.9
				C139.5,298,124.3,304.2,103.9,304.2z M84.3,174.4c-0.9,0.3-19.4,6.8-22.2,25.7c-1.8,12.9-4,20.5-6.1,27.9l-0.2,0.7
				c-1.4,4.6-2.7,9.6-4.3,15.8c-2.4,10.5-0.6,27.4,9,39.7c9.2,11.7,23.9,17.5,43.4,17.5c19.6,0,34.2-5.9,43.4-17.5
				c9.5-12,11.7-29,9-39.7c-1.5-6.3-2.6-10.5-4-14.8l-0.3-0.8c-2-6.7-3.9-13.6-6.6-28.7c-2.7-18.9-21.1-25.6-21.8-25.8
				c-4.7-1-10.5-1.5-16.9-1.5C95.8,172.8,85.3,174.3,84.3,174.4z"/>
		</g>
		<g>
			<path d="M50.9,267.3c0,0,24.8,9.7,55.5,8.5c0,0,21.4-0.9,31.3-3.6c0,0,18.1-4.1,19.3-4.9c0,0-4.3,18.7-18.2,26.8
				c0,0-12.4,9.7-34.7,9.2c0,0-21.6,0.4-34.7-9C69.2,294.1,54.8,285.3,50.9,267.3z"/>
			<path d="M105.6,304.6c-0.5,0-1,0-1.5,0c-0.9,0-22.1,0.3-35.4-9.3l-0.2-0.1c-4.5-3.1-15.4-12-18.8-27.7l-0.5-2.3l2.2,0.9
				c0.3,0.1,24.9,9.5,54.9,8.4c0.2,0,21.4-0.9,31-3.6c7.2-1.6,17.9-4.2,19-4.8l2.6-1.8l-0.8,3.2c-0.2,0.8-4.5,19.3-18.7,27.6
				C138.4,296,126.6,304.6,105.6,304.6z M104.1,302c21.6,0.4,33.8-8.9,33.9-8.9l0.2-0.1c10.5-6,15.3-18.6,17-23.7
				c-4.4,1.3-12.9,3.2-17.2,4.2c-9.9,2.7-30.7,3.6-31.5,3.7c-25.3,0.9-46.8-5.5-53.7-7.8c3.7,13.8,14,21.6,17.2,23.9
				c0.1,0.1,0.2,0.1,0.3,0.2l0,0C82.7,302.4,103.8,302,104.1,302z"/>
		</g>
	</g>
	<g style="clip-path:url(#SVGID_00000085965971004289903540000008417434235772143245_);">
		<g>
			<path style="fill:#595959;" d="M147.3,211.1c0.9,0.2,1.9,0.4,2.9,0.5c8.7,1.1,16.7-7.1,22.7-12.8c15.4-14.4,22.2-34.9,10.1-55.3
				c-3.6-6.1-8.8-13-15-16.2c-2.6-1.3-5.7-1.5-8.6-1.3c-5.4,0.5-11.2,2.9-12.9,7.7c-1.3,3.7,0.3,7.7,2.5,11c3,4.4,7.1,8,10.4,12.1
				c4.1,5.3,6.1,12.6,3.2,18.5c-2.9,5.9-7,9-11.6,13.8c-3.9,4.1-8.3,7.4-9.8,13C139.9,207.3,142.8,209.9,147.3,211.1z"/>
			<path d="M151.7,213c-0.6,0-1.1,0-1.7-0.1c-1.1-0.1-2.1-0.3-3.1-0.6l0,0c-5.9-1.5-8.4-5.2-7-10.5c1.3-4.9,4.6-8.2,7.8-11.3
				c0.8-0.7,1.5-1.5,2.3-2.3c1.1-1.1,2.1-2.1,3.1-3.1c3.3-3.2,6.1-6,8.3-10.3c2.4-4.9,1.3-11.6-3-17c-1.4-1.7-2.9-3.4-4.4-5
				c-2.1-2.2-4.2-4.6-6-7.2c-2.1-3.1-4.3-7.7-2.7-12.2c1.9-5.6,8.5-8.1,14-8.6c3.8-0.3,6.9,0.1,9.4,1.4c5.3,2.7,10.5,8.3,15.5,16.7
				c11.3,19,7.4,40.3-10.4,57l-1.1,1.1C167.2,206.1,159.8,213,151.7,213z M161.5,127.3c-0.6,0-1.3,0-2,0.1
				c-4.5,0.4-10.2,2.4-11.7,6.8c-1.2,3.5,0.6,7.2,2.4,9.8c1.7,2.4,3.7,4.7,5.8,6.9c1.5,1.7,3.1,3.4,4.6,5.2
				c4.9,6.3,6.2,14.1,3.3,19.9c-2.4,4.7-5.3,7.6-8.8,11c-1,1-2,2-3.1,3.1c-0.8,0.8-1.6,1.6-2.3,2.3c-3.1,3-6,5.9-7.1,10.1
				c-0.6,2.4-0.7,5.7,5.1,7.2h0c0.8,0.2,1.7,0.4,2.7,0.5c7.5,0.9,14.7-5.9,20.4-11.3l1.2-1.1c16.8-15.8,20.5-35.8,9.9-53.7
				c-4.6-7.8-9.6-13.2-14.4-15.7C165.8,127.7,163.8,127.3,161.5,127.3z"/>
		</g>
		<g>
			<path style="fill:#264DA0;" d="M178.1,136.3c0.9,1.3,4.1,5.9,4.8,7.2c12.1,20.4,5.3,40.9-10.1,55.3c-6,5.6-14,13.8-22.7,12.8
				c-1-0.1-2-0.3-2.9-0.5c-4.4-1.1-7.4-3.7-6.1-8.9c1.4-5.6,5.8-8.9,9.8-13c4.6-4.8,8.7-7.9,11.6-13.8c2.9-5.9,1-13.2-3.2-18.5
				c-1.6-2.1-3.5-4-5.3-6L178.1,136.3z"/>
			<path d="M151.7,213c-0.6,0-1.1,0-1.7-0.1c-1.1-0.1-2.1-0.3-3.1-0.6c-5.9-1.5-8.4-5.2-7-10.5c1.3-4.9,4.6-8.2,7.8-11.3
				c0.8-0.7,1.5-1.5,2.3-2.3c1.1-1.1,2.1-2.1,3.1-3.1c3.3-3.2,6.1-6,8.3-10.3c2.4-4.9,1.3-11.6-3-17c-1.4-1.7-2.9-3.4-4.4-5.1
				l-1.9-2.1l26.5-16.1l1.8,2.6c1.4,2,3.2,4.7,3.8,5.7c11.3,19,7.4,40.3-10.4,57l-1.1,1.1C167.2,206.1,159.8,213,151.7,213z
				 M156.2,151.2c1.4,1.6,2.9,3.2,4.2,4.9c4.9,6.3,6.2,14.1,3.3,19.9c-2.4,4.7-5.3,7.6-8.8,11c-1,1-2,2-3.1,3.1
				c-0.8,0.8-1.6,1.6-2.3,2.3c-3.1,3-6,5.9-7.1,10.1c-0.6,2.4-0.7,5.7,5.1,7.2c0.8,0.2,1.7,0.4,2.7,0.5c7.5,0.9,14.7-5.9,20.4-11.3
				l1.2-1.1c16.8-15.8,20.5-35.8,9.9-53.7c-0.5-0.9-2.4-3.7-3.7-5.5l-0.4-0.5L156.2,151.2z"/>
		</g>
		<g>
			<line style="fill:#D5B898;" x1="188.5" y1="157.9" x2="163.8" y2="166.7"/>
			<path d="M163.8,168c-0.6,0-1.1-0.3-1.3-0.9c-0.2-0.7,0.1-1.5,0.8-1.7l24.7-8.8c0.7-0.3,1.5,0.1,1.7,0.8c0.2,0.7-0.1,1.5-0.8,1.7
				l-24.7,8.8C164.1,168,163.9,168,163.8,168z"/>
		</g>
		<g>
			<polygon style="fill:#FFC600;" points="186.7,151.2 162.6,162.3 159.4,156.9 184,145.4 			"/>
			<path d="M162.6,163.6c-0.5,0-0.9-0.2-1.2-0.7l-3.1-5.4c-0.2-0.3-0.2-0.7-0.1-1.1c0.1-0.4,0.4-0.7,0.7-0.8l24.6-11.5
				c0.3-0.2,0.7-0.2,1,0c0.3,0.1,0.6,0.4,0.8,0.7l2.6,5.8c0.3,0.7,0,1.5-0.7,1.8l-24.1,11.1C163,163.6,162.8,163.6,162.6,163.6z
				 M161.3,157.5l1.8,3.1l21.8-10.1l-1.5-3.3L161.3,157.5z"/>
		</g>
	</g>
	<g style="clip-path:url(#SVGID_00000085965971004289903540000008417434235772143245_);">
		<path style="fill:#878787;" d="M108.9,259.8H95.1c-1.7,0-3,1.4-3,3v8.4c0,1.7,1.4,3,3,3h13.8c1.7,0,3-1.4,3-3v-8.4
			C111.9,261.2,110.6,259.8,108.9,259.8z M107.6,269c0,0.8-0.7,1.4-1.6,1.4h-7.8c-0.9,0-1.6-0.6-1.6-1.4v-3.8c0-0.8,0.7-1.4,1.6-1.4
			h7.8c0.9,0,1.6,0.6,1.6,1.4V269z"/>
		<path d="M108.9,275.7H95.1c-2.4,0-4.4-2-4.4-4.4v-8.4c0-2.4,2-4.4,4.4-4.4h13.8c2.4,0,4.4,2,4.4,4.4v8.4
			C113.3,273.7,111.3,275.7,108.9,275.7z M95.1,261.2c-0.9,0-1.7,0.8-1.7,1.7v8.4c0,0.9,0.8,1.7,1.7,1.7h13.8c0.9,0,1.7-0.8,1.7-1.7
			v-8.4c0-0.9-0.8-1.7-1.7-1.7H95.1z M105.9,271.7h-7.8c-1.6,0-3-1.3-3-2.8v-3.8c0-1.5,1.3-2.8,3-2.8h7.8c1.6,0,3,1.3,3,2.8v3.8
			C108.9,270.5,107.6,271.7,105.9,271.7z M98.1,265.1c-0.2,0-0.3,0.1-0.3,0.1l0,3.8c0,0,0.1,0.1,0.3,0.1h7.8c0.2,0,0.3-0.1,0.3-0.1
			v-3.8c0,0-0.1-0.1-0.3-0.1H98.1z"/>
	</g>
	<g style="clip-path:url(#SVGID_00000085965971004289903540000008417434235772143245_);">
		<path style="fill:#878787;" d="M114.1,268.7h-8.3c-0.5,0-0.9-0.4-0.9-0.9v-1.4c0-0.5,0.4-0.9,0.9-0.9h8.3c0.5,0,0.9,0.4,0.9,0.9
			v1.4C115.1,268.3,114.7,268.7,114.1,268.7z"/>
		<path d="M113.4,270h-6.9c-1.6,0-3-1.3-3-3c0-1.6,1.3-3,3-3h6.9c1.6,0,3,1.3,3,3C116.4,268.7,115.1,270,113.4,270z M106.6,266.8
			c-0.2,0-0.3,0.1-0.3,0.3c0,0.2,0.1,0.3,0.3,0.3h6.9c0.2,0,0.3-0.1,0.3-0.3c0-0.2-0.1-0.3-0.3-0.3H106.6z"/>
	</g>
	<g style="clip-path:url(#SVGID_00000085965971004289903540000008417434235772143245_);">
		<path d="M99.3,227.9c0.3,0.2,0.5,0.5,0.6,0.9c0.1,0.4,0,0.8-0.1,1.1c-1.8,6-3.8,11.9-6,17.7c-0.2,0.4-0.3,0.9-0.3,1.4
			c0,0.5,0.3,1,0.5,1.4c2,3.6,4.3,7.1,6.8,10.3c0.3,0.3,0.6,0.7,0.9,0.9c3.1,1.6,6.5-5.7,7.6-7.5c1.4-2.3,2.4-4.4,1.8-7.2
			c-0.6-2.6-2.1-5-3-7.5c-1.1-3-2.7-6.7-2.8-9.9c0-0.5,0.3-1,0.7-1.4c1.1-1.4,2.4-2.7,3.2-4.3c0.8-1.6,1.2-3.5,0.6-5.2
			c-1.5-4.2-7.4-4.2-10.2-1.4c-1.2,1.1-2.3,2.8-3.2,4.1C94.8,223.8,97.3,226,99.3,227.9z"/>
		<g>
			<path style="fill:#264DA0;" d="M77.8,206.3c-0.1,7.1,6.2,14.6,11.9,18.1c2.3,1.4,2.8,1.7,5.1,0.6c2.9-1.4,5.8-4.4,8-6.4
				c2.4,1.9,4.7,6.8,7.7,7.7c4,1.1,9.9-5.5,12.2-8.2c3.4-3.8,5.7-8.6,3.9-13.7c-3.5-10.4-15.2-14.5-25.4-14
				c-7.2,0.3-16.8,3.3-21.2,9.4C78.5,201.8,77.8,204.1,77.8,206.3z"/>
			<path d="M111.4,227.7c-0.5,0-0.9-0.1-1.3-0.2c-2.3-0.7-4-2.9-5.6-5c-0.6-0.8-1.1-1.5-1.7-2.1c-2.1,2-4.7,4.5-7.4,5.8
				c-2.8,1.3-3.7,0.9-6.2-0.6c-6.4-3.9-12.7-11.7-12.7-19.3c0-2.7,0.8-5.1,2.4-7.3c4.7-6.4,14.5-9.6,22.2-10
				c10.6-0.5,23,3.9,26.7,15c1.6,4.8,0.2,10-4.2,15C120,223.1,115.4,227.7,111.4,227.7z M102.7,216.8l0.9,0.7c1,0.8,2,2.1,3,3.4
				c1.3,1.7,2.8,3.7,4.2,4.1c1.5,0.4,4.5-0.6,10.8-7.7c3.8-4.3,5-8.5,3.7-12.4c-3.3-9.7-14.4-13.6-24-13.1c-7.1,0.3-16,3.2-20.2,8.9
				c-1.2,1.7-1.9,3.7-1.9,5.8l0,0c-0.1,6.5,5.7,13.6,11.2,16.9c2.2,1.3,2.2,1.3,3.8,0.5c2.4-1.1,4.8-3.5,6.8-5.4L102.7,216.8z"/>
		</g>
	</g>
	<path style="clip-path:url(#SVGID_00000085965971004289903540000008417434235772143245_);" d="M72.5,237.2c-0.1,0-0.3,0-0.4-0.1
		l-11-3.7c-0.7-0.2-1-0.9-0.9-1.6L62,224c0.2-0.7,0.8-1.1,1.4-1l22.3,2.1c0.7,0.1,1.2,0.6,1.2,1.3v7.8c0,0.7-0.5,1.2-1.2,1.3
		l-13,1.7C72.7,237.2,72.6,237.2,72.5,237.2z M63.1,231.2l9.6,3.2l11.6-1.5v-5.4l-19.9-1.9L63.1,231.2z"/>
	<g style="clip-path:url(#SVGID_00000085965971004289903540000008417434235772143245_);">
		<g>
			<path style="fill:#FFCA00;" d="M146.1,219.4c-10.1,0.4-13.1-3.6-13.1-3.6s-2.7,4.2-12.8,4.6c0,0,0.7,24.3,13.9,23.8
				C147.2,243.7,146.1,219.4,146.1,219.4z"/>
			<path d="M133.6,245.5c-2.8,0-5.3-1-7.4-3c-6.9-6.5-7.5-21.6-7.5-22.2c0-0.7,0.6-1.4,1.3-1.4c9.1-0.3,11.7-4,11.8-4
				c0.2-0.4,0.6-0.6,1.1-0.6c0,0,0,0,0,0c0.4,0,0.8,0.2,1.1,0.5c0,0,2.9,3.4,12,3.1c0.7-0.1,1.4,0.5,1.4,1.3
				c0,0.6,0.6,15.7-5.8,22.7c-2.1,2.2-4.6,3.4-7.6,3.5C133.9,245.5,133.8,245.5,133.6,245.5z M121.5,221.6c0.3,3.7,1.5,14.3,6.6,19
				c1.7,1.6,3.6,2.3,5.9,2.2c2.3-0.1,4.1-1,5.7-2.7c4.7-5.1,5.1-15.7,5.1-19.5l0,0c-6.6,0-10.1-1.9-11.7-3.1
				C131.5,219,128.1,221.1,121.5,221.6z"/>
		</g>
		<g>
			<path style="fill:#BF7100;" d="M138.5,233.3c0.1,2.4-2.1,3.1-4.8,3.2s-4.9-0.4-5-2.8c-0.1-2.4,2-4.5,4.7-4.6
				C136.1,229,138.4,230.9,138.5,233.3z"/>
			<g>
				
					<ellipse transform="matrix(0.9993 -3.796101e-02 3.796101e-02 0.9993 -8.5987 5.001)" style="fill:#BF7100;" cx="127.4" cy="228.9" rx="1.6" ry="1.9"/>
				
					<ellipse transform="matrix(0.9993 -3.796101e-02 3.796101e-02 0.9993 -8.5726 5.4584)" style="fill:#BF7100;" cx="139.5" cy="228.5" rx="1.6" ry="1.9"/>
			</g>
			<g>
				
					<ellipse transform="matrix(0.9993 -3.796101e-02 3.796101e-02 0.9993 -8.4917 5.1373)" style="fill:#BF7100;" cx="131" cy="226.2" rx="1.6" ry="1.9"/>
				
					<ellipse transform="matrix(0.9993 -3.796101e-02 3.796101e-02 0.9993 -8.4818 5.3109)" style="fill:#BF7100;" cx="135.6" cy="226" rx="1.6" ry="1.9"/>
			</g>
		</g>
	</g>
	<g style="clip-path:url(#SVGID_00000085965971004289903540000008417434235772143245_);">
		<g>
			<path style="fill:#595959;" d="M162.1,137.7c-2.5-3.9-4.5-8.1-5.7-12.6c-6.3-24.3-16.9-31.6-28.3-37.8c-14.8-8.2-34.1-3.9-41.7-2
				c-1.7,0.4-3.4,0.7-5.1,0.9c-7.8,0.9-27.4,3.6-38.5,16.3c-8.5,9.8-16,20.3-13.5,45.3c0.5,4.6,0,9.3-1,13.8
				c-1.3,6.2-0.4,14.5,1.3,18.7c9,21.6,29.2,31.5,52.7,33.5c7.9,0.7,16,0.3,24.1-1.1c8-1.5,15.8-4,23-7.3
				c21.4-10,36.9-26.3,37.9-49.6C167.5,151.2,165.5,143.1,162.1,137.7z"/>
			<path d="M89.9,215.5c-2.6,0-5.2-0.1-7.7-0.3c-26.8-2.3-45.4-14.1-53.8-34.3c-1.8-4.4-2.9-12.9-1.4-19.5c1.1-4.9,1.4-9.3,1-13.4
				c-2.5-25.2,4.8-35.8,13.8-46.3c7.9-9.1,21.1-14.7,39.3-16.8c1.7-0.2,3.3-0.5,4.9-0.9c17.8-4.4,32.2-3.7,42.7,2.2
				c12.1,6.7,22.6,14.2,29,38.7c1,4,2.8,8,5.5,12.2l0,0c3.6,5.7,5.6,14.1,5.4,18.8c-0.9,21.9-14.3,39.4-38.7,50.8
				c-7.1,3.3-14.9,5.8-23.3,7.4C100.9,215,95.3,215.5,89.9,215.5z M107,83.8c-6.1,0-12.9,0.9-20.4,2.8c-1.7,0.4-3.5,0.7-5.3,0.9
				c-17.5,2-30.2,7.3-37.6,15.9c-8.6,10-15.6,20.2-13.2,44.3c0.4,4.4,0.1,9-1,14.2c-1.3,6-0.4,14,1.3,17.9
				c10.1,24.3,33.6,31.2,51.6,32.7c7.6,0.6,15.6,0.3,23.8-1c8.1-1.6,15.7-4,22.6-7.2c16.3-7.6,36-22.2,37.1-48.5
				c0.2-4.3-1.7-12.1-5-17.3l0,0c-2.8-4.5-4.8-8.7-5.9-13c-6.1-23.4-16.1-30.6-27.6-37C121.8,85.4,115,83.8,107,83.8z"/>
		</g>
		
			<ellipse transform="matrix(0.9845 -0.1752 0.1752 0.9845 -28.6107 20.0337)" style="fill:#FFFFFF;" cx="99.1" cy="172" rx="29.9" ry="21.6"/>
		<g>
			<path style="fill-rule:evenodd;clip-rule:evenodd;fill:#FF7D6E;" d="M96.4,157.1c1.9-0.4,3.7,0.5,4,1.9c0.3,1.5-1,3-2.9,3.4
				c-1.9,0.4-3.8-0.5-4.1-1.9C93.1,159,94.5,157.5,96.4,157.1z"/>
			<path d="M97.3,157c1.6,0,2.9,0.8,3.1,2c0.3,1.5-1,3-2.9,3.4c-0.3,0.1-0.6,0.1-0.9,0.1c-1.6,0-2.9-0.8-3.1-2c-0.3-1.5,1-3,3-3.4
				C96.7,157,97,157,97.3,157 M97.3,154.3L97.3,154.3c-0.5,0-1,0.1-1.5,0.2c-3.4,0.7-5.7,3.6-5,6.6c0.5,2.5,2.9,4.2,5.7,4.2
				c0.5,0,1-0.1,1.5-0.2c3.4-0.7,5.6-3.6,5-6.6C102.6,156,100.2,154.3,97.3,154.3L97.3,154.3z"/>
		</g>
		<path style="fill-rule:evenodd;clip-rule:evenodd;" d="M76.9,157.6L76.9,157.6c2.8-0.5,4.7-3.2,4.2-6l-0.1-0.7
			c-0.5-2.8-3.2-4.6-6.1-4.1c-2.8,0.5-4.7,3.2-4.2,6l0.1,0.7C71.4,156.3,74.1,158.1,76.9,157.6"/>
		<g>
			<path style="fill:#595959;" d="M71.4,93.3c0,0-9.6-6.7-16.1-10s-23.9-11.2-26.7-9.7c-2.9,1.6-12.6,33.1,4.2,45.6"/>
			<path d="M32.8,120.6c-0.3,0-0.6-0.1-0.8-0.3c-9.4-7-10.7-19.1-10.1-28c0.6-8.7,3.6-18.6,6-19.9c4.3-2.4,27.7,9.5,28,9.6
				c6.5,3.3,15.8,9.8,16.2,10.1c0.6,0.4,0.8,1.3,0.3,1.9c-0.4,0.6-1.3,0.8-1.9,0.3c-0.1-0.1-9.6-6.7-15.9-9.9
				c-9.9-5-23.5-10.5-25.5-9.7c-1.1,0.9-5,11-4.7,22.6c0.2,6.5,1.9,15.4,9.1,20.7c0.6,0.4,0.7,1.3,0.3,1.9
				C33.6,120.4,33.2,120.6,32.8,120.6z"/>
			<path style="fill:#FF7D6E;" d="M56.5,98.9c0,0-23.9-14.4-25-17.8c-1.2-3.4-4.9,24.1,6.6,28.4c0,0,2.6-2.3,4.2-3.1
				c0,0-3.6-5.8,3.6-3.2C50.6,104.9,56.5,98.9,56.5,98.9z"/>
			<path d="M38.1,110.8c-0.2,0-0.3,0-0.5-0.1c-9.1-3.3-9.6-18.8-8.7-26.5c0.5-3.8,1.1-4.6,2.2-4.7c0.6-0.1,1.3,0.2,1.6,1.2
				c0.8,2,13.1,10.2,24.5,17.1c0.4,0.2,0.6,0.6,0.6,1c0.1,0.4-0.1,0.8-0.4,1.1c-0.3,0.3-6.6,6.6-12,4.6c-1.7-0.6-2.5-0.6-2.7-0.6
				c0,0.4,0.3,1.2,0.7,1.8c0.2,0.3,0.3,0.7,0.1,1.1c-0.1,0.4-0.4,0.7-0.7,0.8c-1.2,0.6-3.3,2.3-4,2.9
				C38.7,110.7,38.4,110.8,38.1,110.8z M31.7,83.5c-0.6,3.8-1,12.2,1.4,18.3c1.1,3,2.7,5,4.7,6c0.7-0.5,1.7-1.4,2.7-2
				c-0.5-1.1-0.8-2.7,0.1-3.8c1.3-1.6,3.9-0.9,5.8-0.2c2.5,0.9,5.8-1.2,7.9-2.8C48.4,95.5,36.1,87.9,31.7,83.5z"/>
			<path style="fill:#FF7D6E;" d="M43.2,102.5c0,0-6.9-4.4-7.8-9.6"/>
			<path d="M43.2,103.8c-0.2,0-0.5-0.1-0.7-0.2c-0.3-0.2-7.5-4.8-8.4-10.5c-0.1-0.7,0.4-1.4,1.1-1.5c0.7-0.1,1.4,0.4,1.5,1.1
				c0.6,3.8,5.4,7.5,7.2,8.6c0.6,0.4,0.8,1.2,0.4,1.8C44.1,103.6,43.6,103.8,43.2,103.8z"/>
		</g>
		<g>
			<path style="fill:#595959;" d="M98,88.6c0,0,6.7-9.6,11.7-14.9c4.9-5.3,18.5-18.8,21.8-18.3c3.2,0.5,23.3,26.7,11.8,44.3"/>
			<path d="M143.2,101c-0.3,0-0.5-0.1-0.7-0.2c-0.6-0.4-0.8-1.2-0.4-1.9c4.9-7.5,3.4-16.4,1.4-22.6c-3.7-11-10.9-19.1-12.3-19.6
				c0,0,0,0,0,0c-2.1,0-13,9.8-20.5,17.9c-4.8,5.2-11.5,14.7-11.5,14.8c-0.4,0.6-1.3,0.8-1.9,0.3c-0.6-0.4-0.8-1.3-0.3-1.9
				c0.3-0.4,6.8-9.7,11.8-15.1c0.2-0.2,18-19.4,22.9-18.7c2.7,0.4,8.9,8.6,12.5,16.6c3.7,8.1,6.7,19.9,0.2,29.7
				C144,100.7,143.6,101,143.2,101z"/>
			<path style="fill:#FF7D6E;" d="M113.9,88.7c0,0,17.4-21.7,17.4-25.3c-0.1-3.6,13,20.9,3.6,28.9c0,0-3.2-1.2-5-1.4
				c0,0,1.4-6.7-4.5-1.7C121.5,92.3,113.9,88.7,113.9,88.7z"/>
			<path d="M134.8,93.6c-0.2,0-0.3,0-0.5-0.1c-0.9-0.3-3.4-1.2-4.7-1.4c-0.4,0-0.7-0.2-0.9-0.5c-0.2-0.3-0.3-0.7-0.2-1.1
				c0.1-0.7,0.1-1.6,0-2c-0.3,0.1-1,0.3-2.4,1.5c-4.4,3.7-12.5,0-12.8-0.2c-0.4-0.2-0.6-0.5-0.7-0.9c-0.1-0.4,0-0.8,0.3-1.1
				c8.3-10.4,17-22.4,17.1-24.5c0-1,0.6-1.5,1.1-1.7c1-0.2,1.9,0.3,3.7,3.7c3.6,6.9,8.4,21.6,1,27.9
				C135.5,93.5,135.2,93.6,134.8,93.6z M131.3,89.7c1.2,0.3,2.4,0.7,3.2,1c1.5-1.6,2.3-4.1,2.4-7.3c0-6.6-3.2-14.4-5-17.7
				c-2.6,5.6-11.5,17-15.8,22.4c2.5,0.9,6.3,1.7,8.4,0c1.5-1.3,3.7-2.9,5.5-1.8C131.1,86.9,131.3,88.5,131.3,89.7z"/>
			<path style="fill:#FF7D6E;" d="M127.6,87.5c0,0,5-6.5,4-11.7"/>
			<path d="M127.6,88.8c-0.3,0-0.6-0.1-0.8-0.3c-0.6-0.5-0.7-1.3-0.2-1.9c0-0.1,4.6-6.1,3.8-10.6c-0.1-0.7,0.3-1.4,1.1-1.6
				c0.7-0.1,1.4,0.3,1.6,1.1c1.1,5.7-4.1,12.4-4.3,12.7C128.4,88.6,128,88.8,127.6,88.8z"/>
		</g>
		<path style="fill:#595959;" d="M95.2,92.4c4.2,0.2,10.5-9.1,4.3-13c-6.2-3.9-9.2,5.9-9.2,5.9s-0.5-12.9-9-10.7
			c-8.5,2.2-3.6,11.5-3.6,11.5s-2.4-5.4-6.9-3.7c-9.3,3.4-4.4,13,3.3,14"/>
		<path d="M74,97.7c-0.1,0-0.1,0-0.2,0c-4.9-0.6-9-4.5-9.5-8.7c-0.2-1.7,0-5.8,5.9-7.9c1.8-0.6,3.4-0.4,4.7,0.2
			c-0.1-1.3,0-2.6,0.6-3.9c0.9-2,2.7-3.4,5.4-4.1c2.4-0.6,4.4-0.3,6.2,1c2.1,1.5,3.2,4.2,3.8,6.5c0.9-1.4,2.2-2.8,3.9-3.4
			c1.2-0.4,3.1-0.7,5.4,0.8c2.9,1.8,3.9,4.9,2.8,8.4c-1.1,3.5-4.4,7.1-7.6,7.1c-0.1,0-0.1,0-0.2,0c-0.7,0-1.3-0.7-1.3-1.4
			c0-0.7,0.7-1.3,1.4-1.3c1.6,0.1,4.2-2.2,5.2-5.2c0.5-1.6,0.6-3.9-1.7-5.3c-1.1-0.7-2.1-0.9-3.1-0.6c-2.2,0.8-3.8,4.4-4.2,5.7
			c-0.2,0.6-0.8,1-1.5,0.9c-0.6-0.1-1.1-0.6-1.2-1.3c-0.1-1.8-0.8-7-3.4-8.9c-1-0.8-2.3-1-3.9-0.6c-1.8,0.5-3,1.3-3.6,2.6
			c-1,2.2,0,5.2,0.7,6.6c0.1,0.1,0.2,0.3,0.2,0.4c0.3,0.7,0,1.4-0.6,1.8c-0.7,0.3-1.4,0.1-1.8-0.6c0,0-0.1-0.1-0.1-0.3
			c-0.4-0.8-2.3-3.9-5.2-2.8c-2.9,1.1-4.4,2.8-4.2,5.1c0.3,2.6,3.1,5.8,7.2,6.4c0.7,0.1,1.3,0.8,1.2,1.5
			C75.2,97.2,74.6,97.7,74,97.7z"/>
		<path d="M119,148.8c0,0-0.1,0-0.1,0l-10-0.8c-0.6,0-1.1-0.5-1.2-1c-0.1-0.6,0.1-1.2,0.6-1.5l8.2-5c0.6-0.4,1.5-0.2,1.8,0.4
			c0.4,0.6,0.2,1.5-0.4,1.8l-4.7,2.9l5.9,0.5c0.7,0.1,1.3,0.7,1.2,1.4C120.3,148.3,119.7,148.8,119,148.8z"/>
		<g>
			<g>
				<path style="fill-rule:evenodd;clip-rule:evenodd;fill:#FF7D6E;" d="M107.1,173.5c0,0,4.3,8.6-3.1,9.4c-7.4,0.8-9.4-7.4-9.4-7.4
					l3.6-3.9C98.2,171.7,105.1,173.2,107.1,173.5z"/>
			</g>
			<path d="M93,177.2c-2.5,0-4.8-1.1-6.4-3.1c-0.5-0.6-0.4-1.4,0.2-1.9c0.6-0.5,1.4-0.4,1.9,0.2c1.8,2.2,4.4,2.3,6.2,1.8
				c1.3-0.4,2.7-1.4,2.8-3c0-0.7,0.6-1.3,1.3-1.3c0,0,0,0,0,0c0.7,0,1.3,0.6,1.3,1.4c-0.1,2.5-1.8,4.5-4.6,5.4
				C94.8,177,93.9,177.2,93,177.2z"/>
			<path d="M103.6,175.3c-2.8,0-5-1.3-5.9-3.5c-0.3-0.7,0-1.5,0.7-1.7c0.7-0.3,1.5,0,1.7,0.7c0.6,1.4,2.2,1.9,3.6,1.9
				c1.8-0.1,4.3-1.1,5.2-3.8c0.2-0.7,1-1.1,1.7-0.9c0.7,0.2,1.1,1,0.9,1.7c-1.1,3.3-4.1,5.5-7.6,5.6
				C103.8,175.3,103.7,175.3,103.6,175.3z"/>
			<path d="M103,185.3c-6,0-8.9-5.4-9.6-8.5c-0.2-0.7,0.3-1.4,1-1.6c0.7-0.2,1.4,0.3,1.6,1c0.1,0.3,1.7,7,7.9,6.3
				c1.4-0.2,2.4-0.6,2.8-1.5c1-1.8-0.2-4.9-0.7-6c-0.3-0.7-0.1-1.5,0.6-1.8c0.7-0.3,1.5-0.1,1.8,0.6c0.3,0.5,2.5,5.2,0.7,8.5
				c-0.9,1.6-2.5,2.6-4.9,2.9C103.7,185.3,103.3,185.3,103,185.3z"/>
			<path d="M102,179c-0.3,0-0.6-0.1-0.9-0.3c-0.5-0.4-1.4-1.9-2.8-4.6c-0.3-0.7-0.1-1.5,0.6-1.8c0.7-0.3,1.5-0.1,1.8,0.6
				c0.8,1.6,1.9,3.5,2.2,3.8c0.6,0.5,0.6,1.3,0.1,1.9C102.8,178.9,102.4,179,102,179z"/>
		</g>
	</g>
	<g style="clip-path:url(#SVGID_00000085965971004289903540000008417434235772143245_);">
		<path d="M158.3,107.7c-0.1,0-0.2,0-0.3,0c-0.7-0.2-1.2-0.9-1-1.6c0.2-0.7,4.1-17.9,18.6-19.6c0.7-0.1,1.4,0.4,1.5,1.2
			c0.1,0.7-0.4,1.4-1.2,1.5c-12.6,1.5-16.3,17.3-16.3,17.5C159.5,107.3,159,107.7,158.3,107.7z"/>
		<g>
			<path style="fill:#FFD400;" d="M203.9,62.6l3.9,9.3c0.2,0.6,0.7,1,1.3,1.3l9.3,3.5c1.6,0.6,2,2.8,0.7,4l-7.5,6.7
				c-0.5,0.4-0.8,1-0.8,1.7l-0.5,10.1c-0.1,1.8-2,2.8-3.5,1.9l-8.6-5.1c-0.5-0.3-1.2-0.4-1.8-0.2l-9.6,2.7c-1.7,0.5-3.3-1-2.9-2.8
				l2.2-9.8c0.1-0.6,0-1.3-0.3-1.8l-5.5-8.4c-1-1.5,0-3.5,1.7-3.6l9.9-1c0.6-0.1,1.2-0.4,1.6-0.9l6.2-7.9
				C201.1,60.7,203.2,61,203.9,62.6z"/>
			<path d="M201.8,61.2c0.9,0,1.7,0.5,2.1,1.4l3.9,9.3c0.2,0.6,0.7,1,1.3,1.3l9.3,3.5c1.6,0.6,2,2.8,0.7,4l-7.5,6.7
				c-0.5,0.4-0.8,1-0.8,1.7l-0.5,10.1c-0.1,1.3-1.2,2.3-2.3,2.3c-0.4,0-0.8-0.1-1.2-0.3l-8.6-5.1c-0.4-0.2-0.8-0.3-1.2-0.3
				c-0.2,0-0.4,0-0.6,0.1l-9.6,2.7c-0.2,0.1-0.4,0.1-0.6,0.1c-1.4,0-2.6-1.4-2.3-2.9l2.2-9.8c0.1-0.6,0-1.3-0.3-1.8l-5.5-8.4
				c-1-1.5,0-3.5,1.7-3.6l9.9-1c0.6-0.1,1.2-0.4,1.6-0.9l6.2-7.9C200.4,61.5,201.1,61.2,201.8,61.2 M201.8,58.5
				C201.8,58.5,201.8,58.5,201.8,58.5c-1.5,0-3,0.7-3.9,1.9l-6.1,7.8l-9.8,0.9c-1.8,0.2-3.3,1.2-4,2.8c-0.8,1.6-0.7,3.5,0.3,5
				l5.4,8.3l-2.2,9.7c-0.3,1.5,0,3.1,1,4.3c1,1.2,2.4,1.9,3.9,1.9c0.5,0,0.9-0.1,1.4-0.2l9.5-2.7l8.4,5.1c0.8,0.5,1.7,0.7,2.6,0.7
				c2.7,0,4.9-2.1,5-4.8l0.5-10l7.4-6.6c1.3-1.2,1.9-2.9,1.6-4.7c-0.3-1.7-1.5-3.2-3.2-3.8l-9.2-3.5l-3.9-9.1
				C205.6,59.7,203.8,58.5,201.8,58.5L201.8,58.5z"/>
		</g>
	</g>
	<g style="clip-path:url(#SVGID_00000085965971004289903540000008417434235772143245_);">
		<g>
			<g>
				<path d="M72.1,22.8c0.1-2.7-0.9-4.3-1.8-5.1c-1.2-1.2-2.9-1.8-4.7-1.7c-2.6,0.1-5.1,1.8-6.3,4.1c-1,1.9-1,3.9,0.1,5.7
					c1.2,2,3.4,3.1,5.8,3.1c0.6,0,1.3-0.1,1.9-0.2C70,27.9,72,25.6,72.1,22.8z M61.6,24.4c-0.7-1.2-0.4-2.4,0-3.1
					c0.8-1.5,2.5-2.6,4.1-2.7c1.1-0.1,2,0.3,2.7,0.9c0.7,0.7,1,1.8,1,3.1c-0.1,2-1.6,3.1-3.1,3.5C64.7,26.5,62.7,26.1,61.6,24.4z"/>
				<path style="fill:#FFFFFF;" d="M66,15.9c1.7,0,3.2,0.6,4.3,1.7c0.9,0.9,1.9,2.5,1.8,5.1C72,25.6,70,27.9,67,28.7
					c-0.6,0.2-1.3,0.2-1.9,0.2c-2.4,0-4.6-1.1-5.8-3.1c-1.1-1.8-1.1-3.8-0.1-5.7c1.2-2.3,3.8-4,6.3-4.1C65.7,15.9,65.8,15.9,66,15.9
					 M65.1,26.2c0.4,0,0.8-0.1,1.2-0.2c1.4-0.4,3-1.5,3.1-3.5c0.1-1.4-0.3-2.4-1-3.1c-0.6-0.6-1.4-0.9-2.4-0.9c-0.1,0-0.2,0-0.3,0
					c-1.6,0.1-3.3,1.2-4.1,2.7c-0.4,0.7-0.7,1.9,0,3.1C62.4,25.7,63.8,26.2,65.1,26.2 M66,13.2c-0.2,0-0.4,0-0.5,0
					c-3.5,0.2-6.9,2.4-8.6,5.6c-1.4,2.7-1.4,5.8,0.2,8.4c1.7,2.8,4.7,4.4,8.1,4.4c0.9,0,1.7-0.1,2.6-0.3c4.2-1.1,6.9-4.4,7.1-8.4
					c0.2-3.7-1.3-5.9-2.6-7.2C70.6,14.1,68.4,13.2,66,13.2L66,13.2z M65.1,23.6c-0.4,0-0.9-0.1-1.2-0.5c-0.1-0.1-0.1-0.2,0-0.5
					c0.3-0.7,1.2-1.3,1.9-1.3l0.1,0c0.2,0,0.4,0.1,0.5,0.1c0.1,0.1,0.2,0.4,0.2,1.1c0,0.6-0.7,0.9-1,1
					C65.5,23.5,65.3,23.6,65.1,23.6L65.1,23.6z"/>
			</g>
			<g>
				<path d="M85.7,20h-5.1c-0.2-2.1-0.5-4.2-0.9-6.2c-0.1-0.7-0.8-1.2-1.6-1.1c-0.7,0.1-1.2,0.8-1.1,1.6c1,5.3,1.5,10.7,1.4,16.1
					c0,0.7,0.6,1.4,1.3,1.4c0,0,0,0,0,0c0.7,0,1.3-0.6,1.3-1.3c0.1-2.6,0-5.2-0.2-7.8h4.8c0.7,0,1.3-0.6,1.3-1.3
					C87.1,20.6,86.5,20,85.7,20z"/>
				<path style="fill:#FFFFFF;" d="M78.4,12.7c0.6,0,1.2,0.4,1.3,1.1c0.4,2.1,0.7,4.1,0.9,6.2h5.1c0.7,0,1.3,0.6,1.3,1.3
					s-0.6,1.3-1.3,1.3h-4.8c0.2,2.6,0.3,5.2,0.2,7.8c0,0.7-0.6,1.3-1.3,1.3c0,0,0,0,0,0c-0.7,0-1.3-0.6-1.3-1.4
					c0.1-5.4-0.4-10.8-1.4-16.1c-0.1-0.7,0.3-1.4,1.1-1.6C78.2,12.7,78.3,12.7,78.4,12.7 M78.4,10L78.4,10c-0.2,0-0.5,0-0.7,0.1
					c-2.2,0.4-3.6,2.6-3.2,4.7c1,5.1,1.5,10.3,1.3,15.5c0,2.2,1.7,4.1,3.9,4.1c0,0,0,0,0,0c2.3,0,4.1-1.8,4.1-3.9
					c0-1.7,0-3.4-0.1-5.1h2c2.2,0,4-1.8,4-4c0-2.2-1.8-4-4-4H83c-0.2-1.5-0.4-2.8-0.7-4.1C82,11.4,80.3,10,78.4,10L78.4,10z"/>
			</g>
			<g>
				<path d="M80.3,41.6L73,37.9c0.6-1,1.2-2,1.7-3.1c0.3-0.7,0-1.5-0.7-1.8c-0.7-0.3-1.5,0-1.8,0.7c-1.5,3.3-3.7,6.4-6.4,8.8
					c-0.6,0.5-0.6,1.3-0.1,1.9c0.3,0.3,0.6,0.4,1,0.4c0.3,0,0.6-0.1,0.9-0.3c1.4-1.3,2.7-2.8,3.9-4.3l7.6,3.8
					c0.2,0.1,0.4,0.1,0.6,0.1c0.5,0,1-0.3,1.2-0.7C81.3,42.7,81,41.9,80.3,41.6z"/>
				<path style="fill:#FFFFFF;" d="M73.5,32.9c0.2,0,0.4,0,0.6,0.1c0.7,0.3,1,1.1,0.7,1.8c-0.5,1.1-1.1,2.1-1.7,3.1l7.3,3.7
					c0.7,0.3,0.9,1.1,0.6,1.8c-0.2,0.5-0.7,0.7-1.2,0.7c-0.2,0-0.4,0-0.6-0.1l-7.6-3.8c-1.2,1.6-2.5,3-3.9,4.3
					c-0.3,0.2-0.6,0.3-0.9,0.3c-0.4,0-0.7-0.1-1-0.4c-0.5-0.5-0.5-1.4,0.1-1.9c2.7-2.4,4.9-5.5,6.4-8.8C72.5,33.2,73,32.9,73.5,32.9
					 M73.5,30.2c-1.6,0-3,0.9-3.7,2.4c-1.4,3-3.4,5.7-5.8,7.9c-1.6,1.5-1.8,4-0.3,5.7c0.8,0.8,1.9,1.3,3,1.3c1,0,2-0.4,2.7-1
					c1-0.9,2-1.9,2.9-2.9l5.7,2.8c0.6,0.3,1.2,0.4,1.8,0.4c1.5,0,2.9-0.8,3.6-2.2c0.5-1,0.6-2.1,0.2-3.1c-0.3-1-1.1-1.8-2-2.3
					l-4.8-2.4c0.1-0.3,0.3-0.6,0.4-0.8c0.4-1,0.5-2.1,0.1-3.1c-0.4-1-1.1-1.8-2.1-2.3C74.6,30.3,74.1,30.2,73.5,30.2L73.5,30.2z"/>
			</g>
			<g>
				<path d="M95.4,38.3c-0.7-0.3-1.5,0-1.8,0.7L92,42.5c-0.3,0.7,0,1.5,0.7,1.8c0.2,0.1,0.4,0.1,0.6,0.1c0.5,0,1-0.3,1.2-0.8L96,40
					C96.4,39.4,96.1,38.6,95.4,38.3z"/>
				<path style="fill:#FFFFFF;" d="M94.8,38.2c0.2,0,0.4,0,0.5,0.1c0.7,0.3,1,1.1,0.7,1.8l-1.6,3.5c-0.2,0.5-0.7,0.8-1.2,0.8
					c-0.2,0-0.4,0-0.6-0.1c-0.7-0.3-1-1.1-0.7-1.8l1.6-3.5C93.8,38.4,94.3,38.2,94.8,38.2 M94.8,35.5c-1.6,0-3,0.9-3.7,2.4l-1.6,3.5
					c-0.4,1-0.5,2.1-0.1,3.1c0.4,1,1.1,1.8,2.1,2.2c0.5,0.2,1.1,0.4,1.7,0.4c1.6,0,3-0.9,3.7-2.4l1.6-3.5c0.4-1,0.5-2.1,0.1-3.1
					c-0.4-1-1.1-1.8-2.1-2.2C96,35.6,95.4,35.5,94.8,35.5L94.8,35.5z"/>
			</g>
			<g>
				<path d="M120.2,25.4c0.2,0.3,0.6,0.5,1,0.5c0.1,0,0.1,0,0.2,0c0.7-0.1,1.2-0.8,1.1-1.5c-0.2-1.1-4.7-4.2-6.3-5.3
					c0.8-1.3,1.6-2.6,2.3-4c0.3-0.7,0.1-1.5-0.5-1.8c-0.7-0.4-1.5-0.1-1.8,0.5c-2,3.7-4.3,7.3-6.8,10.7c-0.4,0.6-0.3,1.4,0.3,1.9
					c0.2,0.2,0.5,0.3,0.8,0.3c0.4,0,0.8-0.2,1.1-0.5c1.1-1.5,2.2-3.1,3.3-4.7C117.4,23,119.8,25,120.2,25.4z"/>
				<path style="fill:#FFFFFF;" d="M117.4,13.1c0.2,0,0.4,0.1,0.6,0.2c0.7,0.4,0.9,1.2,0.5,1.8c-0.7,1.4-1.5,2.7-2.3,4
					c1.6,1.1,6.1,4.2,6.3,5.3c0.1,0.7-0.4,1.4-1.1,1.5c-0.1,0-0.1,0-0.2,0c-0.4,0-0.8-0.2-1-0.5c-0.4-0.4-2.8-2.4-5.4-4.1
					c-1,1.6-2.1,3.2-3.3,4.7c-0.3,0.4-0.7,0.5-1.1,0.5c-0.3,0-0.6-0.1-0.8-0.3c-0.6-0.4-0.7-1.3-0.3-1.9c2.5-3.4,4.8-7,6.8-10.7
					C116.4,13.4,116.9,13.1,117.4,13.1 M117.4,10.4L117.4,10.4c-1.5,0-2.8,0.8-3.5,2.1c-1.9,3.6-4.1,7.1-6.6,10.3
					c-0.6,0.9-0.9,1.9-0.8,3c0.2,1.1,0.7,2,1.6,2.6c0.7,0.5,1.5,0.8,2.4,0.8c1.3,0,2.5-0.6,3.2-1.6c0.6-0.8,1.2-1.7,1.8-2.6
					c1.4,1,2.4,1.9,2.7,2.2c0.8,0.8,1.8,1.3,2.9,1.3c0.2,0,0.4,0,0.6,0c2.2-0.3,3.7-2.4,3.4-4.6c-0.1-0.9-0.3-2.1-5.4-5.6
					c0.4-0.7,0.7-1.3,1.1-1.9c1-2,0.3-4.4-1.6-5.4C118.7,10.6,118,10.4,117.4,10.4L117.4,10.4z"/>
			</g>
			<g>
				<path d="M141.8,26.6c0.4,0,0.8-0.2,1.1-0.5c1.1-1.5,2.2-3.1,3.3-4.7c2.5,1.6,5,3.7,5.4,4.1c0.2,0.3,0.6,0.5,1,0.5
					c0.1,0,0.1,0,0.2,0c0.7-0.1,1.2-0.8,1.1-1.5c-0.2-1.1-4.7-4.2-6.3-5.3c0.8-1.3,1.6-2.6,2.3-4c0.3-0.7,0.1-1.5-0.5-1.8
					c-0.7-0.4-1.5-0.1-1.8,0.5c-2,3.7-4.3,7.3-6.8,10.7c-0.4,0.6-0.3,1.4,0.3,1.9C141.3,26.5,141.6,26.6,141.8,26.6z"/>
				<path style="fill:#FFFFFF;" d="M148.7,13.1c0.2,0,0.4,0.1,0.6,0.2c0.7,0.3,0.9,1.2,0.5,1.8c-0.7,1.4-1.5,2.7-2.3,4
					c1.6,1.1,6.1,4.2,6.3,5.3c0.1,0.7-0.4,1.4-1.1,1.5c-0.1,0-0.1,0-0.2,0c-0.4,0-0.8-0.2-1-0.5c-0.4-0.4-2.8-2.4-5.4-4.1
					c-1,1.6-2.1,3.2-3.3,4.7c-0.3,0.4-0.7,0.5-1.1,0.5c-0.3,0-0.6-0.1-0.8-0.3c-0.6-0.4-0.7-1.3-0.3-1.9c2.5-3.4,4.8-7,6.8-10.7
					C147.8,13.4,148.2,13.1,148.7,13.1 M148.7,10.4c-1.5,0-2.8,0.8-3.5,2.1c-1.9,3.6-4.1,7.1-6.6,10.3c-1.3,1.8-1,4.3,0.8,5.6
					c0.7,0.5,1.5,0.8,2.4,0.8c1.3,0,2.5-0.6,3.2-1.6c0.6-0.8,1.2-1.7,1.8-2.6c1.4,1,2.4,1.9,2.7,2.2c0.8,0.8,1.8,1.3,2.9,1.3
					c0.2,0,0.4,0,0.6,0c2.2-0.3,3.7-2.4,3.4-4.6c-0.1-0.9-0.3-2.1-5.4-5.6c0.4-0.7,0.7-1.3,1.1-1.9c1-2,0.3-4.4-1.6-5.4
					C150,10.6,149.4,10.4,148.7,10.4L148.7,10.4z"/>
			</g>
			<g>
				<path d="M128.7,11.3c-0.7,0-1.3,0.7-1.3,1.4l0.7,13.7c0,0,0,0.1,0,0.1l0,0.7c0,0.7,0.6,1.3,1.3,1.3c0,0,0.1,0,0.1,0
					c0.7,0,1.3-0.7,1.3-1.4l-0.8-14.4C130.1,11.8,129.5,11.2,128.7,11.3z"/>
				<path style="fill:#FFFFFF;" d="M128.8,11.3c0.7,0,1.3,0.6,1.3,1.3l0.8,14.4c0,0.7-0.5,1.4-1.3,1.4c0,0-0.1,0-0.1,0
					c-0.7,0-1.3-0.6-1.3-1.3l0-0.7c0,0,0-0.1,0-0.1l-0.7-13.7c0-0.7,0.5-1.4,1.3-1.4C128.8,11.3,128.8,11.3,128.8,11.3 M128.8,8.6
					c-0.1,0-0.2,0-0.3,0c-1,0.1-2,0.5-2.7,1.3c-0.7,0.8-1.1,1.8-1,2.9l0.7,13.6c0,0.1,0,0.1,0,0.2l0,0.7c0.1,2.1,1.9,3.8,4,3.8h0.1
					l0.2,0c1-0.1,2-0.5,2.7-1.3c0.7-0.8,1.1-1.8,1-2.9l-0.8-14.4C132.7,10.3,131,8.6,128.8,8.6L128.8,8.6z"/>
			</g>
			<g>
				<path d="M126.9,42.7l-6.1,0.1c-0.5,0-1.2,0-1.5-0.2c-0.3-0.2-0.4-0.8-0.5-1.2l-0.5-2c2.6-0.6,5.3-0.9,8-0.8c0.4,0,0.7-0.1,1-0.4
					c0.3-0.2,0.4-0.6,0.4-1l0.1-4.6c0-0.3,0-1-0.4-1.6c-0.6-0.8-1.7-0.8-2.1-0.8l-8.5,0c-0.7,0-1.3,0.6-1.3,1.3
					c0,0.7,0.6,1.3,1.3,1.3h0l8.3,0l0,3c-2.7,0-5.4,0.4-8,1c-0.2,0.1-0.8,0.2-1.2,0.7c-0.6,0.8-0.3,1.7-0.3,2l0.7,2.5
					c0.2,0.7,0.5,1.9,1.4,2.6c0.9,0.8,2.1,0.8,2.9,0.8c0.1,0,0.2,0,0.3,0l6.1-0.1c0.7,0,1.3-0.6,1.3-1.4
					C128.3,43.3,127.7,42.7,126.9,42.7z"/>
				<path style="fill:#FFFFFF;" d="M125.3,30.1c0.4,0,1.4,0,2,0.8c0.5,0.6,0.5,1.3,0.4,1.6l-0.1,4.6c0,0.4-0.2,0.7-0.4,1
					c-0.3,0.2-0.6,0.4-1,0.4c-0.3,0-0.7,0-1,0c-2.3,0-4.7,0.3-7,0.8l0.5,2c0.1,0.4,0.3,1,0.5,1.2c0.3,0.2,1,0.2,1.5,0.2l6.1-0.1
					c0,0,0,0,0.1,0c0.7,0,1.3,0.6,1.3,1.3c0,0.7-0.6,1.3-1.3,1.4l-6.1,0.1c-0.1,0-0.2,0-0.3,0c-0.8,0-2-0.1-2.9-0.8
					c-0.9-0.8-1.2-1.9-1.4-2.6l-0.7-2.5c-0.1-0.3-0.3-1.2,0.3-2c0.4-0.5,1-0.7,1.2-0.7c2.6-0.7,5.3-1,8-1l0-3l-8.3,0h0
					c-0.7,0-1.3-0.6-1.3-1.3s0.6-1.3,1.3-1.3L125.3,30.1C125.2,30.1,125.2,30.1,125.3,30.1 M125.3,27.4L125.3,27.4l-0.1,0l-8.4,0
					c-1.1,0-2.1,0.4-2.8,1.2c-0.8,0.8-1.2,1.8-1.2,2.9c0,1.5,0.8,2.8,2,3.5c-0.3,0.2-0.7,0.5-1,1c-0.6,0.8-1.3,2.3-0.7,4.3l0.7,2.5
					c0.3,1,0.7,2.7,2.3,4c1.7,1.4,3.8,1.4,4.6,1.4l0.2,0l0.1,0l6.2-0.1c1.1,0,2.1-0.4,2.8-1.2c0.8-0.8,1.2-1.8,1.2-2.9
					c0-1.6-1-3-2.3-3.6c0.1-0.1,0.3-0.2,0.4-0.3c0.8-0.7,1.2-1.8,1.2-2.9l0.1-4.6c0-0.5,0-2-1-3.3C128.7,28.5,127.5,27.4,125.3,27.4
					L125.3,27.4z"/>
			</g>
			<g>
				<path d="M156.6,30c-6.1,0.5-12.3,0.4-18.4-0.3c-0.7-0.1-1.4,0.5-1.5,1.2c-0.1,0.7,0.5,1.4,1.2,1.5c2.7,0.3,5.5,0.4,8.2,0.5
					l0.1,8.3c0,0.7,0.6,1.3,1.3,1.3c0,0,0,0,0,0c0.7,0,1.3-0.6,1.3-1.4l-0.1-8.2c2.7,0,5.3-0.1,8-0.3c0.7-0.1,1.3-0.7,1.2-1.4
					S157.4,30,156.6,30z"/>
				<path style="fill:#FFFFFF;" d="M138.1,29.8c0,0,0.1,0,0.1,0c3.5,0.4,7.1,0.6,10.6,0.6c2.6,0,5.2-0.1,7.8-0.3c0,0,0,0,0.1,0
					c0.7,0,1.3,0.5,1.4,1.2c0.1,0.7-0.5,1.4-1.2,1.4c-2.6,0.2-5.3,0.3-8,0.3l0.1,8.2c0,0.7-0.6,1.4-1.3,1.4c0,0,0,0,0,0
					c-0.7,0-1.3-0.6-1.3-1.3l-0.1-8.3c-2.8-0.1-5.5-0.2-8.2-0.5c-0.7-0.1-1.3-0.7-1.2-1.5C136.8,30.3,137.4,29.8,138.1,29.8
					 M138.1,27.1C138.1,27.1,138.1,27.1,138.1,27.1c-2.1,0-3.8,1.5-4,3.6c-0.2,2.2,1.4,4.2,3.6,4.4c1.8,0.2,3.8,0.3,5.9,0.4l0.1,5.8
					c0,2.2,1.8,4,4,4c2.3,0,4.1-1.9,4-4.1l-0.1-5.5c1.8,0,3.7-0.1,5.4-0.3c2.2-0.2,3.9-2.1,3.7-4.3c-0.2-2.1-1.9-3.7-4.1-3.7h-0.1
					l-0.1,0l-0.1,0l-0.1,0c-2.5,0.2-5.1,0.3-7.6,0.3c-3.4,0-6.9-0.2-10.3-0.5C138.3,27.1,138.2,27.1,138.1,27.1L138.1,27.1
					L138.1,27.1z"/>
			</g>
			<g>
				<path d="M169,15.1c0-0.7-0.6-1.3-1.3-1.3c0,0,0,0,0,0c-0.7,0-1.3,0.6-1.3,1.4c0.1,5.3,0,10.6-0.3,15.8c0,0.7,0.5,1.4,1.3,1.4
					c0,0,0.1,0,0.1,0c0.7,0,1.3-0.5,1.3-1.3C169,25.8,169.1,20.4,169,15.1z"/>
				<path style="fill:#FFFFFF;" d="M167.7,13.8c0.7,0,1.3,0.6,1.3,1.3c0.1,5.3,0,10.7-0.3,16c0,0.7-0.6,1.3-1.3,1.3c0,0-0.1,0-0.1,0
					c-0.7,0-1.3-0.7-1.3-1.4c0.3-5.2,0.4-10.5,0.3-15.8C166.3,14.4,166.9,13.8,167.7,13.8C167.7,13.8,167.7,13.8,167.7,13.8
					 M167.7,11.1L167.7,11.1c-2.3,0.1-4.1,1.9-4,4.1c0.1,5.2,0,10.4-0.3,15.6c-0.1,2.2,1.6,4.1,3.8,4.3l0.1,0l0.2,0
					c2.1,0,3.9-1.7,4-3.8c0.3-5.4,0.4-10.8,0.3-16.3C171.6,12.8,169.9,11.1,167.7,11.1L167.7,11.1z"/>
			</g>
			<g>
				<path d="M167.5,39.7c-0.1-0.1-0.3-0.3-0.6-0.4c-0.7-0.2-1.5,0.1-1.7,0.9c-0.2,0.6,0.1,1.3,0.6,1.6c0.1,0.1,0.3,0.3,0.6,0.4
					c0.1,0,0.3,0.1,0.4,0.1c0.6,0,1.1-0.4,1.3-0.9C168.3,40.7,168,40,167.5,39.7z"/>
				<path style="fill:#FFFFFF;" d="M166.4,39.3c0.1,0,0.3,0,0.4,0.1c0.3,0.1,0.5,0.2,0.6,0.4c0.5,0.3,0.8,1,0.6,1.6
					c-0.2,0.6-0.7,0.9-1.3,0.9c-0.1,0-0.3,0-0.4-0.1c-0.3-0.1-0.5-0.2-0.6-0.4c-0.5-0.3-0.8-1-0.6-1.6
					C165.4,39.6,165.9,39.3,166.4,39.3 M166.4,36.6c-1.7,0-3.3,1.1-3.8,2.8c-0.6,1.7,0.1,3.5,1.5,4.6c0.4,0.3,0.9,0.6,1.4,0.8
					c0.4,0.1,0.9,0.2,1.3,0.2c1.7,0,3.3-1.1,3.8-2.7c0.6-1.7-0.1-3.5-1.5-4.6c-0.4-0.3-0.9-0.6-1.4-0.8
					C167.3,36.7,166.9,36.6,166.4,36.6L166.4,36.6z"/>
			</g>
		</g>
		<g>
			<g>
				<path d="M72.1,22.8c0.1-2.7-0.9-4.3-1.8-5.1c-1.2-1.2-2.9-1.8-4.7-1.7c-2.6,0.1-5.1,1.8-6.3,4.1c-1,1.9-1,3.9,0.1,5.7
					c1.2,2,3.4,3.1,5.8,3.1c0.6,0,1.3-0.1,1.9-0.2C70,27.9,72,25.6,72.1,22.8z M61.6,24.4c-0.7-1.2-0.4-2.4,0-3.1
					c0.8-1.5,2.5-2.6,4.1-2.7c1.1-0.1,2,0.3,2.7,0.9c0.7,0.7,1,1.8,1,3.1c-0.1,2-1.6,3.1-3.1,3.5C64.7,26.5,62.7,26.1,61.6,24.4z"/>
			</g>
			<g>
				<path d="M85.7,20h-5.1c-0.2-2.1-0.5-4.2-0.9-6.2c-0.1-0.7-0.8-1.2-1.6-1.1c-0.7,0.1-1.2,0.8-1.1,1.6c1,5.3,1.5,10.7,1.4,16.1
					c0,0.7,0.6,1.4,1.3,1.4c0,0,0,0,0,0c0.7,0,1.3-0.6,1.3-1.3c0.1-2.6,0-5.2-0.2-7.8h4.8c0.7,0,1.3-0.6,1.3-1.3
					C87.1,20.6,86.5,20,85.7,20z"/>
			</g>
			<g>
				<path d="M80.3,41.6L73,37.9c0.6-1,1.2-2,1.7-3.1c0.3-0.7,0-1.5-0.7-1.8c-0.7-0.3-1.5,0-1.8,0.7c-1.5,3.3-3.7,6.4-6.4,8.8
					c-0.6,0.5-0.6,1.3-0.1,1.9c0.3,0.3,0.6,0.4,1,0.4c0.3,0,0.6-0.1,0.9-0.3c1.4-1.3,2.7-2.8,3.9-4.3l7.6,3.8
					c0.2,0.1,0.4,0.1,0.6,0.1c0.5,0,1-0.3,1.2-0.7C81.3,42.7,81,41.9,80.3,41.6z"/>
			</g>
			<g>
				<path d="M95.4,38.3c-0.7-0.3-1.5,0-1.8,0.7L92,42.5c-0.3,0.7,0,1.5,0.7,1.8c0.2,0.1,0.4,0.1,0.6,0.1c0.5,0,1-0.3,1.2-0.8L96,40
					C96.4,39.4,96.1,38.6,95.4,38.3z"/>
			</g>
			<g>
				<path d="M120.2,25.4c0.2,0.3,0.6,0.5,1,0.5c0.1,0,0.1,0,0.2,0c0.7-0.1,1.2-0.8,1.1-1.5c-0.2-1.1-4.7-4.2-6.3-5.3
					c0.8-1.3,1.6-2.6,2.3-4c0.3-0.7,0.1-1.5-0.5-1.8c-0.7-0.4-1.5-0.1-1.8,0.5c-2,3.7-4.3,7.3-6.8,10.7c-0.4,0.6-0.3,1.4,0.3,1.9
					c0.2,0.2,0.5,0.3,0.8,0.3c0.4,0,0.8-0.2,1.1-0.5c1.1-1.5,2.2-3.1,3.3-4.7C117.4,23,119.8,25,120.2,25.4z"/>
			</g>
			<g>
				<path d="M141.8,26.6c0.4,0,0.8-0.2,1.1-0.5c1.1-1.5,2.2-3.1,3.3-4.7c2.5,1.6,5,3.7,5.4,4.1c0.2,0.3,0.6,0.5,1,0.5
					c0.1,0,0.1,0,0.2,0c0.7-0.1,1.2-0.8,1.1-1.5c-0.2-1.1-4.7-4.2-6.3-5.3c0.8-1.3,1.6-2.6,2.3-4c0.3-0.7,0.1-1.5-0.5-1.8
					c-0.7-0.4-1.5-0.1-1.8,0.5c-2,3.7-4.3,7.3-6.8,10.7c-0.4,0.6-0.3,1.4,0.3,1.9C141.3,26.5,141.6,26.6,141.8,26.6z"/>
			</g>
			<g>
				<path d="M128.7,11.3c-0.7,0-1.3,0.7-1.3,1.4l0.7,13.7c0,0,0,0.1,0,0.1l0,0.7c0,0.7,0.6,1.3,1.3,1.3c0,0,0.1,0,0.1,0
					c0.7,0,1.3-0.7,1.3-1.4l-0.8-14.4C130.1,11.8,129.5,11.2,128.7,11.3z"/>
			</g>
			<g>
				<path d="M126.9,42.7l-6.1,0.1c-0.5,0-1.2,0-1.5-0.2c-0.3-0.2-0.4-0.8-0.5-1.2l-0.5-2c2.6-0.6,5.3-0.9,8-0.8c0.4,0,0.7-0.1,1-0.4
					c0.3-0.2,0.4-0.6,0.4-1l0.1-4.6c0-0.3,0-1-0.4-1.6c-0.6-0.8-1.7-0.8-2.1-0.8l-8.5,0c-0.7,0-1.3,0.6-1.3,1.3
					c0,0.7,0.6,1.3,1.3,1.3h0l8.3,0l0,3c-2.7,0-5.4,0.4-8,1c-0.2,0.1-0.8,0.2-1.2,0.7c-0.6,0.8-0.3,1.7-0.3,2l0.7,2.5
					c0.2,0.7,0.5,1.9,1.4,2.6c0.9,0.8,2.1,0.8,2.9,0.8c0.1,0,0.2,0,0.3,0l6.1-0.1c0.7,0,1.3-0.6,1.3-1.4
					C128.3,43.3,127.7,42.7,126.9,42.7z"/>
			</g>
			<g>
				<path d="M156.6,30c-6.1,0.5-12.3,0.4-18.4-0.3c-0.7-0.1-1.4,0.5-1.5,1.2c-0.1,0.7,0.5,1.4,1.2,1.5c2.7,0.3,5.5,0.4,8.2,0.5
					l0.1,8.3c0,0.7,0.6,1.3,1.3,1.3c0,0,0,0,0,0c0.7,0,1.3-0.6,1.3-1.4l-0.1-8.2c2.7,0,5.3-0.1,8-0.3c0.7-0.1,1.3-0.7,1.2-1.4
					S157.4,30,156.6,30z"/>
			</g>
			<g>
				<path d="M169,15.1c0-0.7-0.6-1.3-1.3-1.3c0,0,0,0,0,0c-0.7,0-1.3,0.6-1.3,1.4c0.1,5.3,0,10.6-0.3,15.8c0,0.7,0.5,1.4,1.3,1.4
					c0,0,0.1,0,0.1,0c0.7,0,1.3-0.5,1.3-1.3C169,25.8,169.1,20.4,169,15.1z"/>
			</g>
			<g>
				<path d="M167.5,39.7c-0.1-0.1-0.3-0.3-0.6-0.4c-0.7-0.2-1.5,0.1-1.7,0.9c-0.2,0.6,0.1,1.3,0.6,1.6c0.1,0.1,0.3,0.3,0.6,0.4
					c0.1,0,0.3,0.1,0.4,0.1c0.6,0,1.1-0.4,1.3-0.9C168.3,40.7,168,40,167.5,39.7z"/>
			</g>
		</g>
	</g>
	<g style="clip-path:url(#SVGID_00000085965971004289903540000008417434235772143245_);">
		<g>
			<path style="fill:#264DA0;" d="M56.4,102.6c-1.3,0.3,3.5,11,4,11.9c2.9,5.5,10.4,6.1,15.8,4.8c4-0.9,7.6-2.6,11.5-3.8
				c4.2-1.3,9.1-1.6,13.4-1.8c6.3-0.3,13.1-0.2,14.8-7.6c1.1-4.7,1.2-10.6-1.5-14.8C114.4,91.3,56.6,102.5,56.4,102.6z"/>
			<path d="M71.2,121.2c-5,0-9.8-1.7-12.1-6.1c-0.1-0.1-5.2-10.7-4.2-13c0.2-0.5,0.6-0.8,1.1-0.9c0,0,0,0,0,0
				c0.3-0.1,58-11.3,58-11.3c0.5-0.1,1.1,0.1,1.4,0.6c2.5,3.8,3.1,9.8,1.7,15.8c-1.9,8.1-9.4,8.4-15.4,8.6l-0.7,0
				c-4.5,0.2-9.1,0.5-13.1,1.7c-1.5,0.5-2.9,1-4.3,1.5c-2.3,0.8-4.7,1.7-7.2,2.3C74.8,121,73,121.2,71.2,121.2z M57.6,103.7
				c0.5,2.4,3.3,8.9,4,10.1c2.8,5.3,10.3,5,14.3,4.1c2.4-0.6,4.7-1.4,6.9-2.2c1.5-0.5,3-1.1,4.4-1.5c4.2-1.3,9.1-1.6,13.8-1.8l0.7,0
				c5.9-0.2,11.5-0.4,12.9-6.5c1.2-4.9,0.8-9.7-0.9-13C106.8,94.1,64.4,102.4,57.6,103.7z"/>
		</g>
		<g>
			<path style="fill:#7FA8FF;" d="M56.4,102.6c0,0,3.3,10.7,29.5,5c26.2-5.7,28.7-13.2,28.5-16.2L56.4,102.6z"/>
			<path d="M72.2,110.6c-14.5,0-17-7.2-17.1-7.6c-0.1-0.4-0.1-0.8,0.1-1.1c0.2-0.3,0.5-0.6,0.9-0.6l58-11.3c0.4-0.1,0.8,0,1.1,0.3
				c0.3,0.2,0.5,0.6,0.5,1c0.3,4.1-3.2,11.9-29.5,17.6C80.6,110.1,76,110.6,72.2,110.6z M58.5,103.5c2.1,2.4,8.6,6.7,27.1,2.7
				c21.2-4.6,26.2-10.2,27.2-13.2L58.5,103.5z M56.4,102.6L56.4,102.6L56.4,102.6z"/>
		</g>
		<g>
			<g>
				<path style="fill:#264DA0;" d="M51,89c2.7-12.2,16.4-17.3,27.2-19.7c14-3.1,25.4-2,36.1,8.5c6.5,6.4,0.9,14.5-5.8,17.9
					c-9.2,4.7-19.3,7.5-29.6,8.3c-11,0.9-31,2.6-28-14.6C50.9,89.3,51,89.2,51,89z"/>
				<path d="M69.1,105.9c-6.6,0-13.3-1-17.1-5.1c-2.5-2.8-3.4-6.7-2.5-11.5c0-0.2,0.1-0.3,0.1-0.5C52,78.6,61.5,71.6,77.9,68
					c16.2-3.6,27.4-0.9,37.3,8.9c2.6,2.5,3.7,5.6,3.2,8.8c-0.7,4.3-4.3,8.7-9.3,11.3c-9.2,4.7-19.6,7.6-30.1,8.4
					C76,105.6,72.6,105.9,69.1,105.9z M90.5,69.2c-3.6,0-7.6,0.5-12,1.5C63.1,74,54.3,80.3,52.3,89.3c0,0,0,0,0,0
					c0,0.1-0.1,0.3-0.1,0.4c-0.7,4.1-0.1,7.1,1.8,9.3c4.8,5.3,17.2,4.3,24.5,3.7c10.3-0.8,20.4-3.6,29.3-8.2
					c4.2-2.1,7.4-5.9,7.9-9.3c0.4-2.4-0.4-4.5-2.4-6.5C106.7,72.3,99.6,69.2,90.5,69.2z M51,89L51,89L51,89z"/>
			</g>
		</g>
		<g>
			<g>
				<path style="fill:#FFCA00;" d="M89.7,88.3c-4.1,0.7-5.6-0.7-5.6-0.7s-0.9,1.9-5,2.6c0,0,1.7,9.9,7,8.9
					C91.5,98.1,89.7,88.3,89.7,88.3z"/>
				<path d="M85.4,100.5c-1.1,0-2.1-0.3-3-1c-3.4-2.4-4.5-8.5-4.6-9.1c-0.1-0.7,0.4-1.4,1.1-1.5c3.2-0.6,4-1.9,4-1.9
					c0.2-0.4,0.6-0.6,1-0.7c0.4-0.1,0.8,0.1,1.1,0.4c0,0,0,0,0,0c0,0,1.2,0.9,4.4,0.4c0.7-0.1,1.4,0.3,1.6,1.1
					c0.1,0.7,1.2,6.8-1.2,10.2c-0.8,1.2-2,1.9-3.4,2.2C86.1,100.5,85.7,100.5,85.4,100.5z M80.7,91.2c0.5,2,1.6,5,3.3,6.2
					c0.6,0.4,1.2,0.6,1.9,0.4c0.7-0.1,1.2-0.5,1.7-1.1c1.2-1.7,1.1-4.9,0.9-6.9c-1.9,0.2-3.3-0.2-4.1-0.5
					C83.7,89.9,82.6,90.7,80.7,91.2z"/>
			</g>
			<g>
				<path style="fill:#BF7100;" d="M87.4,94.4c0.2,1-0.7,1.4-1.8,1.6c-1.1,0.2-2,0.1-2.2-0.9c-0.2-1,0.6-1.9,1.7-2.1
					C86.2,92.8,87.2,93.4,87.4,94.4z"/>
				<g>
					
						<ellipse transform="matrix(0.9845 -0.1752 0.1752 0.9845 -15.0623 15.9152)" style="fill:#BF7100;" cx="82.6" cy="93.2" rx="0.7" ry="0.8"/>
					
						<ellipse transform="matrix(0.9845 -0.1752 0.1752 0.9845 -14.8339 16.7596)" style="fill:#BF7100;" cx="87.5" cy="92.4" rx="0.7" ry="0.8"/>
				</g>
				<g>
					
						<ellipse transform="matrix(0.9845 -0.1752 0.1752 0.9845 -14.8088 16.1277)" style="fill:#BF7100;" cx="83.9" cy="91.9" rx="0.7" ry="0.8"/>
					
						<ellipse transform="matrix(0.9845 -0.1752 0.1752 0.9845 -14.7221 16.4483)" style="fill:#BF7100;" cx="85.8" cy="91.6" rx="0.7" ry="0.8"/>
				</g>
			</g>
		</g>
	</g>
	<g style="clip-path:url(#SVGID_00000085965971004289903540000008417434235772143245_);">
		<g>
			<path style="fill:#704A1C;" d="M62.6,334.9c0,0.2-0.2,0.4-0.4,0.4s-16.7,1.7-20.5,13c-1.3,4.2-1.6,9.2,1.6,12.7
				c4,4.8,13.2,4.7,18.9,5.1c4.8,0.4,9.7,0.2,14.3-0.7c2.7-0.4,5.5-1.1,7.7-2.4c5.1-2.8,4.2-9,4.4-14.1c0-0.9,0.4-12.7,0.7-12.7
				C89.5,336.2,62.6,334.9,62.6,334.9z"/>
			<path d="M67,367.7c-1.7,0-3.3-0.1-5-0.2c-0.7-0.1-1.6-0.1-2.5-0.2c-5.7-0.3-13.5-0.7-17.3-5.3c-2.8-3.2-3.5-8.4-1.7-13.9
				c3.7-10.9,18.1-13.4,21.2-13.8c0.1-0.1,0.1-0.1,0.2-0.2c0.2-0.2,0.6-0.3,0.9-0.3l25.5,1.2c0.3,0,0.7,0,0.9,0.1c0.1,0,0.1,0,0.2,0
				l0,0c0.8,0.1,1.2,0.4,1.2,1.2c0,0.2,0,0.2-0.1,0.4c-0.2,1.4-0.6,11.4-0.6,12.3c0,0.8-0.1,1.7-0.1,2.5c-0.1,4.7-0.1,10-5,12.7
				c-2.5,1.5-5.7,2.2-8.1,2.6C73.5,367.4,70.3,367.7,67,367.7z M63.2,336.2c-0.3,0.2-0.7,0.4-1.1,0.4c-0.1,0-15.8,1.7-19.3,12.2
				c-0.7,2.2-2,7.8,1.3,11.6c3.1,3.7,10.2,4.2,15.5,4.5c0.9,0.1,1.7,0.1,2.6,0.2c4.7,0.4,9.5,0.2,14-0.7c2.2-0.4,5.2-1,7.3-2.2
				c3.7-2.1,3.7-6.2,3.7-10.6c0-0.8,0-1.7,0.1-2.5c0-0.4,0.1-3.7,0.2-6.7c0.1-1.6,0.2-3.1,0.2-4.2c0-0.2,0-0.4,0-0.6
				C83.7,337.2,71,336.6,63.2,336.2z M89.6,337.4c-0.1,0-0.2,0.1-0.4,0.1C89.4,337.4,89.5,337.4,89.6,337.4z M62.1,334.1
				c-0.1,0-0.1,0-0.2,0C62.1,334.1,62.1,334.1,62.1,334.1z"/>
		</g>
		<g>
			<path d="M89.2,340.6c0-2.7,4-48.1,4.4-54.7l-22.9-5.1L63,333.8l-0.2,1.1c0,0,3.7,11.9,26.4,7.2L89.2,340.6L89.2,340.6z"/>
			<path d="M79.5,344.5c-14.8,0-17.7-8.7-17.9-9.2c-0.1-0.2-0.1-0.4,0-0.6l0.2-1.1l7.7-52.8c0.1-0.3,0.2-0.7,0.5-0.8
				c0.2-0.2,0.7-0.2,1-0.2l22.9,5.1c0.6,0.2,1,0.7,1,1.3c-0.2,2.7-1,12.4-1.8,22.6c-1.2,13.6-2.6,30.5-2.6,31.9v1.6
				c0,0.6-0.4,1.1-1,1.2C85.7,344.2,82.4,344.5,79.5,344.5z M89.2,342.2L89.2,342.2L89.2,342.2z M64.1,334.8
				c0.7,1.7,5.2,9.8,23.9,6.3v-0.5c0-1.6,1.3-17.2,2.6-32.2c0.7-9.2,1.5-17.8,1.7-21.5l-20.6-4.6l-7.5,51.6L64.1,334.8z"/>
		</g>
	</g>
	<g style="clip-path:url(#SVGID_00000085965971004289903540000008417434235772143245_);">
		<g>
			<path style="fill:#704A1C;" d="M115,336.2c0.2,0,0.7,11.9,0.7,12.7c0.2,5.1-0.7,11.2,4.4,14.1c2.4,1.3,5.1,2,7.7,2.4
				c4.8,0.9,9.7,0.9,14.3,0.7c5.7-0.4,15-0.4,18.9-5.1c3.1-3.5,2.8-8.6,1.6-12.7c-3.5-11.2-20.2-13-20.5-13c-0.2,0-0.4-0.2-0.4-0.4
				C141.9,334.9,115,336.2,115,336.2z"/>
			<path d="M137.5,367.6c-3.1,0-6.5-0.2-9.9-0.8c-2.2-0.4-5.2-1-8.1-2.6c-4.9-2.7-5-8.1-5-12.7c0-0.8,0-1.7-0.1-2.4
				c0-1-0.4-11-0.6-12.4c-0.1-0.1-0.1-0.2-0.1-0.4c0-0.7,0.5-1.2,1.2-1.2c8.9-0.4,25.9-1.2,26.6-1.3h0.1c0.4,0,0.7,0.2,1,0.5
				c3.1,0.4,17.7,2.8,21.2,13.8c1.7,5.6,1.1,10.7-1.8,14c-3.8,4.5-11.8,5-17.7,5.3c-0.7,0.1-1.5,0.1-2.2,0.2
				C140.8,367.5,139.1,367.6,137.5,367.6z M116.4,337.4c0,0.2,0,0.4,0,0.6c0.1,1.2,0.2,2.7,0.2,4.2c0.2,3.1,0.2,6.3,0.2,6.7
				c0,0.7,0,1.6,0.1,2.4c0,4.4,0.1,8.5,3.7,10.6c1.9,1.1,4.2,1.7,7.3,2.2c5.1,0.9,10.2,0.8,14.1,0.7c0.7-0.1,1.3-0.1,2.2-0.2
				c5.4-0.3,12.7-0.8,15.9-4.5c3.2-3.7,2-9.3,1.3-11.6c-3.2-10.4-19.2-12.1-19.4-12.2l0,0c-0.3,0-0.7-0.2-1-0.4c-0.2,0-0.2,0-0.4,0
				L116.4,337.4z M114.6,337.4c0.1,0.1,0.2,0.1,0.4,0.1C114.9,337.4,114.7,337.4,114.6,337.4z M142.1,334.1c0,0,0.1,0,0.2,0
				C142.2,334.1,142.2,334.1,142.1,334.1z"/>
		</g>
		<g>
			<path d="M115.2,340.6c0-2.7-4-48.1-4.4-54.7l22.9-5.1l7.7,52.9l0.2,1.1c0,0-3.7,11.9-26.4,7.2L115.2,340.6L115.2,340.6z"/>
			<path d="M125,344.5c-2.8,0-6.2-0.3-10-1.1c-0.6-0.1-1-0.7-1-1.2v-1.6c0-1.5-1.4-18.4-2.6-32c-0.8-10.2-1.7-19.8-1.8-22.6
				c0-0.6,0.3-1.2,1-1.3l22.9-5.1c0.3-0.1,0.7,0,1,0.2c0.2,0.2,0.5,0.5,0.5,0.8l7.7,52.9l0.2,1c0,0.2,0,0.4,0,0.6
				C142.7,335.7,139.8,344.5,125,344.5z M116.5,341.1c18.6,3.5,23.2-4.7,23.9-6.3l-0.2-0.7l-7.5-51.7l-20.6,4.6
				c0.2,3.7,1,12.3,1.7,21.5c1.2,15,2.6,30.6,2.6,32.2L116.5,341.1L116.5,341.1z"/>
		</g>
	</g>
	<g style="clip-path:url(#SVGID_00000085965971004289903540000008417434235772143245_);">
		<g>
			<path style="fill:#704A1C;" d="M158.3,266.2c-63.5,20.6-108.9,0-108.9,0c-1.6-3.6,0-14.7,0-14.7s45.4,20.8,108.9,0
				C158.3,251.6,159,266,158.3,266.2z"/>
			<path d="M101.7,276.6c-8.4,0-15.7-0.6-21.8-1.5c-19.2-2.6-30.5-7.6-31-7.8c-0.3-0.2-0.5-0.3-0.7-0.7c-1.7-3.8-0.3-14.2-0.1-15.4
				c0.1-0.4,0.3-0.8,0.7-0.9c0.3-0.2,0.8-0.2,1.1,0c0.4,0.2,45.7,20.3,108-0.1c0.3-0.1,0.8-0.1,1.1,0.2c0.3,0.3,0.5,0.6,0.5,1
				c0.7,15.5,0.2,15.6-0.9,16l0,0C137,274.4,117.6,276.6,101.7,276.6z M50.4,265.2c5,2.1,48.4,18.6,106.9-0.1
				c0.2-1.7,0.1-6.9-0.2-12c-20.5,6.5-39.2,8.7-55,8.7c-27.3,0-46.2-6.5-51.6-8.6C50.1,256.9,49.7,262.7,50.4,265.2z M158.3,266.2
				L158.3,266.2L158.3,266.2z"/>
		</g>
		<g>
			<path style="fill:#8A8A8A;" d="M110.4,259.7H96.6c-1.6,0-3.2,1.4-3.2,3.2v8.4c0,1.6,1.4,3.2,3.2,3.2h13.8c1.6,0,3.2-1.4,3.2-3.2
				v-8.4C113.4,261,112,259.7,110.4,259.7z M109.1,268.9c0,0.9-0.7,1.4-1.6,1.4h-7.9c-0.9,0-1.6-0.7-1.6-1.4v-3.8
				c0-0.9,0.7-1.4,1.6-1.4h7.9c0.9,0,1.6,0.7,1.6,1.4V268.9z"/>
			<path d="M110.4,275.7H96.6c-2.5,0-4.5-2.1-4.5-4.5v-8.4c0-2.5,2.1-4.5,4.5-4.5h13.8c2.5,0,4.5,2.1,4.5,4.5v8.4
				C114.8,273.7,112.7,275.7,110.4,275.7z M96.4,261c-0.9,0-1.8,0.7-1.8,1.8v8.4c0,0.9,0.7,1.8,1.8,1.8h13.8c0.9,0,1.8-0.7,1.8-1.8
				v-8.4c0-0.9-0.7-1.8-1.8-1.8H96.4L96.4,261z M107.2,271.9h-7.9c-1.6,0-2.9-1.4-2.9-2.7v-3.8c0-1.6,1.4-2.7,2.9-2.7h7.9
				c1.6,0,2.9,1.4,2.9,2.7v3.8C110.4,270.5,109.1,271.9,107.2,271.9z M99.5,265.1c-0.3,0-0.3,0-0.3,0.3v3.8h0.3h7.9
				c0.3,0,0.3,0,0.3-0.3v-3.8h-0.3H99.5z"/>
		</g>
		<g>
			<path style="fill:#8A8A8A;" d="M114.9,268.7h-7c-0.9,0-1.6-0.7-1.6-1.6l0,0c0-0.9,0.7-1.6,1.6-1.6h7c0.9,0,1.6,0.7,1.6,1.6l0,0
				C116.5,268,115.9,268.7,114.9,268.7z"/>
			<path d="M114.9,270.1h-7c-1.6,0-2.9-1.4-2.9-2.9c0-1.5,1.4-2.9,2.9-2.9h7c1.6,0,2.9,1.4,2.9,2.9
				C117.9,268.7,116.5,270.1,114.9,270.1z M107.9,266.7c-0.3,0-0.3,0.3-0.3,0.3c0,0.3,0.3,0.3,0.3,0.3h7c0.3,0,0.3-0.3,0.3-0.3
				c0-0.3-0.3-0.3-0.3-0.3H107.9z"/>
		</g>
	</g>
</g>
</svg>
