<?xml version="1.0" encoding="utf-8"?>
<!-- Generator: Adobe Illustrator 26.5.0, SVG Export Plug-In . SVG Version: 6.00 Build 0)  -->
<svg version="1.1" id="레이어_1" xmlns="http://www.w3.org/2000/svg" xmlns:xlink="http://www.w3.org/1999/xlink" x="0px"
	 y="0px" viewBox="0 0 182 208" style="enable-background:new 0 0 182 208;" xml:space="preserve">
<g>
	<path style="fill:#FFFFFF;" d="M117.3,152.5l43.5,26c5,2.5,8.8,2.9,11.8,1.2c4.8-2.5,6.4-9.8,7.6-16.6c0.8-4.3,1.1-8.3,0.8-11.6
		c-0.2-3.9-1.3-7-3.1-9.3c-2-2.7-5-4.2-8.8-4.6c-0.4,0-0.8,0-1.1,0c-11.3,0-14.4,17.9-14.4,17.9c0,0,0,0.2-0.2,0.2h-0.2l-26.6-12
		L117.3,152.5z"/>
	<path style="fill:#00A2F6;" d="M140.8,166.6c-2.7-2.5-2.5-6.6-1-9.7c1-1.9,2.1-3.1,6-4.6l7.4,3.4c0,0,0.8-7.5,6.6-14.2
		c0,0,5-7.1,14.3-2.5c0,0,6.4,2.5,6.8,12.5c0,0,0,10.2-2.1,17.9c0,0-2,10-9.5,11.2c0,0-5.2,0.4-9.5-2.7L140.8,166.6z"/>
	<path d="M168.7,181.5c-2.4,0-5.1-0.8-8.3-2.3h-0.2l-44.5-26.6l10.9-10.2l26.2,11.9c0.8-3.8,4.8-17.9,15.1-17.9c0.4,0,0.8,0,1.2,0
		c4.1,0.4,7.4,2,9.5,5c1.9,2.5,2.9,5.7,3.2,9.8c0.2,3.4,0,7.5-0.8,11.9c-1.2,7-3.1,14.6-8.2,17.3
		C171.8,181.1,170.3,181.5,168.7,181.5z M161.4,177.6c4.7,2.1,8.2,2.7,10.9,1.2c4.4-2.3,6-9.4,7.2-16.1c0.8-4.3,1.1-8.1,0.8-11.4
		c-0.2-3.8-1.2-6.7-2.8-8.9c-1.9-2.5-4.5-3.9-8.3-4.3c-0.4,0-0.6,0-1.1,0c-10.5,0-13.6,17.1-13.6,17.3c0,0.2-0.2,0.6-0.6,0.8
		c-0.2,0.2-0.6,0.2-1,0l-26.1-11.7l-8.2,7.7L161.4,177.6z M152.8,155.2L152.8,155.2L152.8,155.2z M153.7,154.7L153.7,154.7
		C153.8,154.7,153.7,154.7,153.7,154.7z"/>
	<g>
		<path style="fill:#00A2F6;" d="M170.5,141.3c0,0-9,6.7-7.8,22.4"/>
		<path d="M162.7,164.7c-0.4,0-0.8-0.4-1-0.8c-1.3-16,7.8-22.9,8-23.3c0.4-0.2,1-0.2,1.2,0.2c0.2,0.4,0.2,1-0.2,1.2
			c-0.2,0.2-8.6,6.7-7.4,21.6C163.6,164.3,163.2,164.7,162.7,164.7L162.7,164.7z"/>
	</g>
</g>
<g>
	<path style="fill:#FFFFFF;" d="M88.6,149.5l5.6,15.1c1.2,3.4,2.4,6.7,3.5,10.2c0.8,2.5,1.6,4.8,2.5,7.3c0.2,0.7,0.6,1.6,1,3.1
		c1.6,5.4,4.7,15.6,7.4,17.7c2.8,2.3,8.6-0.6,10.7-2.3c4.4-3.5,4-9.8,1.7-14.4c0-0.2-21.3-42.4-22.9-45.5L88.6,149.5z"/>
	<path style="fill:#00A2F6;" d="M100.2,182c0,0,2.9-9.6,14.7-7.9l6,11.9c0,0,4.8,9.7-1.7,14.4c0,0-8.3,6.5-11.8,1L100.2,182z"/>
	<path d="M111.1,204.5c-1.2,0-2.4-0.2-3.3-1.1c-2.7-2.1-5.4-10.4-7.6-18.1c-0.4-1.3-0.6-2.5-1-2.9c-0.8-2.5-1.7-4.8-2.5-7.3
		c-1.1-3.4-2.3-6.7-3.5-10.2l-5.8-15.6L98.1,139l4,7.9c6.8,13.5,19.4,38.7,19.4,38.7c2.4,4.8,2.8,11.7-2,15.6
		C117.9,202.4,114.4,204.5,111.1,204.5z M89.5,149.6l5.4,14.6c1.2,3.4,2.4,6.7,3.5,10.2c0.8,2.5,1.6,4.8,2.5,7.3
		c0.2,0.7,0.6,1.7,1,3.1c1.5,5,4.5,15.2,7,17.1c2.3,1.9,7.5-0.7,9.7-2.3c4-3.1,3.7-9.1,1.6-13.3c-0.2-0.2-13-26-19.4-38.7l-2.8-5.7
		L89.5,149.6z"/>
	<g>
		<g>
			<path style="fill:#00A2F6;" d="M108.4,202.2c0,0,2.9,5.8,14.3,4.7c17.3-1.6,20.2-36.2,5.4-40c-7.8-2-15.8-0.2-18.5,10.6"/>
			<path d="M120,208c-9.5,0-12.2-5.2-12.3-5.4c-0.2-0.4,0-1,0.4-1.2c0.4-0.2,1,0,1.2,0.4c0.2,0.2,2.9,5.2,13.4,4.3
				c8.7-0.8,13.4-10.6,14-19.6c0.6-7.9-1.9-16.9-8.7-18.7c-5.2-1.3-14.3-1.7-17.4,10c-0.2,0.6-0.6,0.8-1.1,0.7
				c-0.6-0.2-0.8-0.7-0.6-1.1c2.5-9.7,9.7-13.9,19.6-11.4c7.9,2,10.7,11.7,10.1,20.6c-0.4,5.2-2,10.2-4.4,13.9
				c-2.8,4.3-6.7,6.9-11.1,7.3C121.8,208,120.9,208,120,208z"/>
		</g>
		<g>
			<path style="fill:#00A2F6;" d="M123.7,171c0,0-11.4,2.1-10.1,25.2"/>
			<path d="M113.6,197c-0.6,0-0.8-0.4-1-0.8c-1.5-23.5,10.3-26,10.7-26.2c0.6-0.2,1,0.2,1.1,0.7c0.2,0.6-0.2,1-0.6,1.1
				c-0.2,0-10.6,2.5-9.3,24.3C114.6,196.6,114.2,197,113.6,197L113.6,197z"/>
		</g>
	</g>
</g>
<g>
	<path style="fill:#E4ADD1;" d="M16.3,96.9C7.8,106.3,0.8,119,0.8,134.8h49h6h110.6c-17.3-50.3-61.6-61.1-90.3-62.6
		C53.6,71.2,31.5,79.9,16.3,96.9z"/>
	<path d="M167.6,135.6H0v-0.8c0-14.1,5.2-27,15.7-38.7c15.3-16.9,37.3-26,60.6-24.7c18.9,1,35.6,5.4,49.8,13.1
		c19.6,10.6,33.4,27.5,41.2,50L167.6,135.6z M1.8,134h163.6c-7.6-21.5-21.2-37.6-40-48c-14-7.5-30.4-11.9-49.1-12.9
		C53.6,72,32,80.9,17,97.4C7.1,108.3,1.9,120.6,1.8,134z"/>
</g>
<g>
	<path style="fill:#FFAB5C;" d="M127.8,59.7c0,0,15,3.9,22.2-8.7c0,0,2.3,10.6,12.4,10.2c0,0-4.5,13.8,5.5,17.7
		c0,0-11.3,6.5-9.7,15.6c0,0-11.9-3.8-18.2,2.3c0,0-6.4-16.1-13.6-15.1C126.5,81.9,143.7,67.2,127.8,59.7z"/>
	<path style="fill:#FFFF4D;" d="M140.2,97.9c-0.2,0-0.2,0-0.2,0c-0.2-0.2-0.6-0.2-0.6-0.6c-1.7-4.3-7.2-15.2-12.6-14.4
		c-0.4,0-0.8-0.2-1.1-0.6c-0.2-0.4-0.2-1,0.2-1.2c0.2-0.2,8.4-7.3,7.6-13.8c-0.4-2.7-2.4-5-6-6.7c-0.4-0.2-0.6-0.8-0.6-1.2
		c0.2-0.6,0.6-0.8,1.2-0.7c0.6,0.2,14.3,3.5,21.2-8.1c0.2-0.4,0.6-0.6,1.1-0.6c0.4,0,0.6,0.4,0.8,0.8c0,0,0.6,2.5,2.3,5
		c2.3,3.1,5.4,4.6,9.1,4.4c0.2,0,0.6,0.2,0.8,0.4c0.2,0.2,0.2,0.7,0.2,1c0,0-1.1,3.4-1,7c0.2,4.7,2.1,7.9,5.9,9.3
		c0.4,0.2,0.6,0.6,0.6,0.8c0,0.4-0.2,0.8-0.6,1c-0.2,0-10.6,6.2-9.3,14.6c0,0.4-0.2,0.7-0.2,1c-0.2,0.2-0.6,0.2-1,0.2
		c-0.2,0-11.4-3.5-17.3,2C140.6,97.9,140.3,97.9,140.2,97.9z M128.8,81.1c5.6,1.6,10.1,10.8,11.6,14.3c5.5-4,13.6-2.9,16.7-2
		c-0.2-3.7,1.5-7.1,4.7-10.6c1.5-1.6,3.1-2.9,4.1-3.5c-6.3-3.7-6-11.9-4.8-16.8c-7-0.4-10.1-6-11.5-8.9c-5.1,7-12.8,7.9-17.7,7.9
		c1.9,1.6,3.1,3.7,3.3,5.8C136.1,72.6,131.5,78.4,128.8,81.1z"/>
</g>
<g>
	<g>
		<g>
			<path style="fill:#FFFFFF;" d="M147.6,106.5c-4.1-5-9.1-8.8-14.4-12.9c-2.4-1.7-11-8.3-5.5-11.5c2-1.2,5.2,0.2,7.2,0.8
				c4.4,1.3,8.4,3.4,12.2,6c4.1,2.9,7.9,6.2,11,10.2C155,100.3,151.1,102.9,147.6,106.5z"/>
		</g>
		<g>
			<g>
				<path style="fill:#00709E;" d="M156.7,127.3c0-0.2,0-0.2,0-0.2c-0.4-2.1-0.8-4-1.3-6c-0.8-2.7-1.9-5.2-3.2-7.7
					c-0.6-1.2-1.3-2.5-2.3-3.8c-0.8-1.1-1.5-2.1-2.4-3.1c3.5-3.7,7.5-6.1,10.6-7.7c1.6,1.9,2.9,3.8,4.3,5.8
					c3.7,5.8,7.6,12.5,8.8,19.6c0.6,3.4-0.6,7-3.7,9.3c-0.6,0.4-1.2,0.8-1.9,1.1c-2.1,1.1-4.8,1.2-6.7-0.2c-0.4-0.2-0.6-0.7-1-1
					C157.1,131.7,157.1,129.2,156.7,127.3z"/>
			</g>
		</g>
	</g>
	<path d="M162.4,136.3c-1.5,0-2.8-0.4-3.9-1.3c-0.4-0.2-0.6-0.7-1.1-1.2c-1-1.5-1.2-3.3-1.5-5c0-0.6-0.2-1-0.2-1.3v-0.2
		c-0.2-2-0.8-3.9-1.3-6c-0.8-2.5-1.7-5.2-3.1-7.5c-0.6-1.2-1.3-2.5-2.1-3.7c-0.6-1-1.3-1.9-2.3-3.1c-3.7-4.7-8.4-8.3-13.4-12.1
		l-1.1-0.8c-3.5-2.7-7.6-6.4-7.4-9.6c0.2-1.3,0.8-2.5,2.3-3.3c2.1-1.2,5-0.2,7.1,0.4c0.2,0.2,0.6,0.2,0.8,0.2
		c4.4,1.3,8.6,3.4,12.4,6c4,2.7,7.8,6.2,11.3,10.2c1.6,1.9,3.1,3.9,4.4,6c3.5,5.4,7.8,12.5,9,19.8l0,0c0.6,3.9-1,7.9-3.9,10.2
		c-0.6,0.6-1.3,1-2,1.2C164.8,136,163.6,136.3,162.4,136.3z M129.6,82.5c-0.6,0-1.1,0.2-1.6,0.4c-1,0.6-1.3,1.1-1.5,1.9
		c-0.2,2.7,5,6.7,6.7,8.1l1.1,0.8c5,3.9,9.7,7.5,13.6,12.4c1,1.2,1.7,2.1,2.4,3.3c0.8,1.3,1.6,2.5,2.3,3.8c1.3,2.5,2.4,5.2,3.2,7.9
		c0.6,2,1.1,3.9,1.3,6.1v0.2c0.2,0.6,0.2,1,0.2,1.5c0.2,1.5,0.4,3.1,1.2,4.2c0.2,0.4,0.4,0.7,0.6,0.8c1.7,1.3,4.1,1,5.8,0.2
		c0.6-0.2,1.2-0.7,1.7-1.1c2.5-1.9,3.7-5.2,3.3-8.5l0,0c-1.1-7-5.2-13.9-8.7-19.2c-1.3-1.9-2.7-3.9-4.3-5.7c-3.3-3.9-7-7.3-10.9-10
		c-3.7-2.5-7.8-4.4-11.9-5.8c-0.2-0.2-0.6-0.2-0.8-0.2C132.6,83,130.9,82.5,129.6,82.5z"/>
</g>
<g>
	<g>
		<g>
			<g>
				<path style="fill:#FFFFFF;" d="M109.1,3.5c-2.5,1.3-4.4,3.9-5.5,6.4c-2.4,5.2-0.8,9.1,1.7,10.2c2.3,1.1,4-0.6,5.6-2.5
					c3.5-4.7,5.9-2,9.5,1c2.9,2.5,7.1,1.9,9.3-1.1c2.3-2.9,1.9-7.3-1.1-9.7c-2.5-2-5.2-3.9-8.3-5C116.5,1.1,113.2,1.3,109.1,3.5z"/>
				<path d="M115.7,1.7c1.6,0,3.2,0.2,5,1.1c3.1,1.1,5.8,2.9,8.3,5c2.8,2.5,3.3,6.7,1.1,9.7c-1.3,1.7-3.2,2.5-5.2,2.5
					c-1.5,0-2.9-0.6-4.1-1.5c-2.1-1.7-3.9-3.4-5.8-3.4c-1.2,0-2.4,0.7-3.7,2.5c-1.2,1.6-2.5,2.9-4.1,2.9c-0.4,0-1-0.2-1.5-0.4
					c-2.5-1.2-4.1-5-1.7-10.2c1.1-2.5,2.9-5,5.5-6.4C111.4,2.3,113.6,1.7,115.7,1.7 M115.7,0c-2.4,0-4.7,0.7-7.2,2
					c-2.5,1.3-4.8,3.9-6.3,7.1c-2.8,6.4-0.6,11,2.5,12.5c0.6,0.4,1.5,0.6,2.1,0.6c2.5,0,4.4-2,5.5-3.7c1-1.2,1.7-1.9,2.4-1.9
					c1,0,2.4,1.2,3.9,2.5c0.2,0.2,0.6,0.4,0.8,0.7c1.5,1.2,3.3,1.9,5.2,1.9c2.5,0,5-1.2,6.6-3.3c2.8-3.7,2.3-9.1-1.3-12
					c-2.7-2.5-5.6-4.2-8.7-5.4C119.3,0.4,117.5,0,115.7,0L115.7,0z"/>
			</g>
			<path style="fill:#673101;" d="M119,14.2c0.6-0.2,1.1-0.2,1.5-0.2c-0.6-0.2-1.2-0.8-1.5-1.5c-0.6-1.5,0.2-3.1,1.5-3.7
				c0.6-0.2,1.3-0.2,1.9,0c-0.6-0.2-1.1-0.8-1.2-1.3c-0.6-1.5,0.2-3.1,1.5-3.7c0.2,0,0.2,0,0.4-0.2c3.2,1.7,5.4,3.5,5.9,3.9
				c2.8,2.5,3.3,6.7,1.1,9.7c-2.3,3-6.4,3.5-9.3,1.1c-0.8-0.7-2-1.5-3.2-2.1C117.5,15.4,118.1,14.6,119,14.2"/>
		</g>
	</g>
</g>
<path style="fill-rule:evenodd;clip-rule:evenodd;fill:#FFFFFF;stroke:#231815;stroke-width:2.5726;stroke-linecap:round;stroke-linejoin:round;stroke-miterlimit:10;" d="
	M96.8,16"/>
<g>
	<path style="fill:#00A2F6;" d="M101.6,16h-0.2H101.6z"/>
	<g>
		<path style="fill:#00A2F6;" d="M138.2,86.3L138.2,86.3v-0.8c0.2-2.9,1.1-5.6,2-8.1c3.5-9.7,4.1-19.1,1.9-29.1
			c-1.7-7.7-5.6-16.2-11.8-21.2c-8-6.5-18.5-11.4-28.7-11.4h-3.2c-0.2,0-0.2,0-0.2,0c-10.1,0-20.6,4.8-28.7,11.4
			c-6.1,5.1-10,13.5-11.7,21.2c-2.1,9.3-1.6,18.8,1.5,27.7c2.9,8.4,4,15.4,3.7,24.2c-0.6,12.4-2.4,23.7,5.2,34.6
			c13.6,19.2,36.4,24.7,58.1,16.5c13.2-5,19-17.1,20-30.5C147.4,108.8,143.1,97.3,138.2,86.3z"/>
		<path d="M98.3,16h3.2c0,0,0,0,0.2,0c10.1,0,20.6,4.8,28.5,11.4c6.2,5,10.1,13.5,11.8,21.2c2.3,10,1.6,19.5-1.9,29.1
			c-1,2.5-1.7,5.2-2,8.1l0,0v0.8c5.1,11,9.3,22.4,8.3,34.5c-1.2,13.3-6.8,25.4-20,30.5c-6.6,2.5-13.2,3.7-19.6,3.7
			c-15,0-29.2-6.7-38.7-20.2c-7.6-10.8-5.9-22-5.2-34.6c0.4-8.8-0.6-15.8-3.7-24.2c-3.1-9.2-3.6-18.7-1.5-28
			c1.7-7.7,5.6-16.2,11.8-21.2c8-6.5,18.3-11.4,28.5-11.4c0,0,0,0,0.2,0C98.1,16,98.1,16,98.3,16 M98.3,14.2L98.3,14.2h-0.2l0,0
			c-9.7,0-20.4,4.3-29.6,11.7C62.7,30.5,58.2,38.6,56.2,48c-2.1,9.7-1.6,19.3,1.6,28.7c2.9,8.5,3.9,15.2,3.5,23.5
			c-0.2,1.5-0.2,2.9-0.2,4.3c-0.6,11-1.3,21.2,5.8,31.2c9.7,13.5,23.9,21,40.2,21c6.7,0,13.6-1.2,20-3.8c6.6-2.5,11.8-6.9,15.4-12.9
			c3.2-5.2,5.1-11.6,5.8-19.1c1.1-12.5-3.7-24.7-8.3-35v-0.2c0.2-2.9,1.1-5.4,1.9-7.7c3.7-10.2,4.1-19.8,1.9-30
			c-2.1-9.4-6.7-17.5-12.3-22.1c-9.3-7.5-20-11.7-29.6-11.7h-0.2L98.3,14.2L98.3,14.2L98.3,14.2z"/>
	</g>
</g>
<g>
	<g>
		<g>
			<g>
				<path style="fill:#FFFFFF;" d="M72.7,7.9c3.1,1,5.9,3.5,7.6,6.1c4,5.6,4,7.3,1.3,9.6c-3.7,3.1-4.8,2.9-7.1,1
					c-5.1-4.6-7.6-0.7-11,3.7c-2.7,3.5-7.4,3.9-10.7,1.1c-3.3-2.9-3.9-8.1-1.3-11.6c2.3-3.1,4.8-5.8,7.9-7.9
					C64,6.9,67.8,6.4,72.7,7.9z"/>
				<path d="M67.8,7c1.6,0,3.2,0.2,5,0.8c3.1,1,5.9,3.5,7.6,6.1c4,5.6,4,7.3,1.3,9.6c-2,1.6-3.2,2.5-4.3,2.5c-1,0-1.7-0.6-2.8-1.5
					c-1.6-1.5-2.9-2-4.1-2c-2.7,0-4.5,2.7-6.8,5.7C62.1,30,59.9,31,57.8,31c-1.7,0-3.5-0.7-5-1.9c-3.3-2.9-3.9-8.1-1.3-11.6
					c2.3-3.1,4.8-5.8,7.9-7.9C62.5,7.9,64.9,7,67.8,7 M67.8,5.4L67.8,5.4c-3.1,0-5.9,1-9,2.9c-2.9,2-5.8,4.8-8.3,8.3
					C47.4,20.8,48.1,27,52,30.5c1.7,1.5,3.9,2.3,6,2.3c2.8,0,5.4-1.3,7.1-3.7l0.4-0.6c1.7-2.3,3.5-4.6,5.1-4.6
					c0.8,0,1.9,0.6,3.1,1.6c1.1,1,2.3,1.9,3.9,1.9c1.7,0,3.3-1.1,5.4-2.9c3.9-3.3,2.8-6.5-1.1-11.9c-1.1-1.6-4.1-5.4-8.6-6.7
					C71.3,5.7,69.5,5.4,67.8,5.4L67.8,5.4z"/>
			</g>
			<path style="fill:#673101;" d="M64.4,22.7c-0.6-0.2-1.2,0-1.7,0.2c0.6-0.6,1.1-1.2,1.2-2c0.2-1.7-0.8-3.5-2.5-3.9
				c-0.8-0.2-1.5,0-2.1,0.4c0.6-0.6,1-1.1,1.1-1.9c0.2-1.7-0.8-3.5-2.5-3.9c-0.2,0-0.2,0-0.4,0c-3.1,2.7-5.1,5.4-5.6,6
				c-2.5,3.5-2,8.7,1.3,11.6c3.3,2.9,8,2.5,10.7-1.1c0.8-1.1,1.9-2.1,2.9-3.3C66.4,23.7,65.6,22.9,64.4,22.7"/>
		</g>
	</g>
</g>
<g>
	<g>
		<path style="fill-rule:evenodd;clip-rule:evenodd;fill:#FFFFFF;" d="M72,60.5c0.2-3.4,1-6.6,1.6-9.8c2.1-10.6,9.7-19.1,20.2-22.5
			c11.5-3.8,22.3-4.4,33.2,1.5c4.5,2.5,9.1,7.1,10.9,11.9c1.7,4.6,2.9,13.8,2.9,13.8s3.5,2.9,3.9,3.7c4.5,7.5,1.5,16.8-3.9,23.1
			c-6.4,7.7-14.4,10.2-24.1,11.2C102.5,94.7,85,93,76.1,80C72.3,74.8,71.4,66.7,72,60.5z"/>
		<path d="M109.9,25.1c5.8,0,11.4,1.3,17,4.3c4.5,2.5,9.1,7.1,10.9,11.9c1.7,4.6,2.9,13.8,2.9,13.8s3.5,2.9,3.9,3.7
			c4.5,7.5,1.5,16.8-3.9,23.1c-6.4,7.7-14.4,10.2-24.1,11.2c-2.7,0.2-5.4,0.4-8.2,0.4c-12.3,0-25.2-3.1-32.6-13.7
			c-3.7-5.2-4.7-13.3-4-19.6c0.2-3.4,1-6.6,1.6-9.8c2.1-10.6,9.7-19.1,20.2-22.5C99.2,26.2,104.6,25.1,109.9,25.1 M109.9,23.5v1.7
			V23.5L109.9,23.5c-5.1,0-10.6,1-16.7,2.9c-11.1,3.7-19,12.5-21.3,23.9c-0.6,2.9-1.3,6.5-1.6,10c-0.6,6.2,0.2,14.8,4.4,20.8
			c8.3,11.7,23.1,14.2,33.8,14.2c2.7,0,5.5-0.2,8.3-0.4c8.3-0.8,17.8-2.9,25.2-11.9c2.9-3.7,5.1-7.7,5.9-11.7
			c1.1-4.7,0.4-9.3-2-13.3c-0.2-0.6-1.6-1.7-3.7-3.7c-0.2-2.1-1.5-9.3-2.9-13.5c-1.9-4.8-6.4-10-11.6-12.9
			C122.1,25,116.3,23.5,109.9,23.5L109.9,23.5z"/>
	</g>
	<g>
		<path style="fill-rule:evenodd;clip-rule:evenodd;fill:#FFBFBA;" d="M110.2,74.8c1.1,5.7-2.8,11.1-8.6,12.3
			c-5.8,1.1-11.4-2.5-12.4-8.3c-1.1-5.7,2.8-11.1,8.6-12.3C103.5,65.5,109.1,69.3,110.2,74.8"/>
		<path style="fill-rule:evenodd;clip-rule:evenodd;fill:#FFBFBA;" d="M146.4,65.9c0.4,5.8-2.5,10.6-2.9,10.8
			c-2.3,0.4-4.3-3.9-4.5-9.4c-0.2-5.6,2.4-11.2,4.1-9.7C144.5,58.9,146,61.3,146.4,65.9"/>
		<path style="fill:#231815;" d="M121.4,92.1c-3.7,0-7.5-1.1-9.5-3.8c-0.2-0.4-0.2-1,0.2-1.3c0.4-0.2,1-0.2,1.3,0.2
			c2.5,3.7,10.1,3.5,13,2c0.4-0.2,1.1,0,1.2,0.4c0.2,0.4,0,1.1-0.4,1.2C126,91.7,123.9,92.1,121.4,92.1z"/>
		<g>
			<path style="fill-rule:evenodd;clip-rule:evenodd;" d="M128.3,64c0.2,0.8-0.6,1.5-1.9,1.6c-1.1,0.2-2-0.4-2.1-1.2
				c-0.2-0.8,0.8-1.5,1.9-1.6C127.2,62.6,128.2,63.2,128.3,64"/>
			<path style="fill:#231815;" d="M109.5,64.7c-0.4,0-0.8-0.2-1-0.7c-0.2-0.6,0.2-1.1,0.6-1.2c1.1-0.2,2.3-0.6,3.5-0.7
				c-0.6,0-1,0-1.6-0.2c-0.8-0.2-1.7-0.2-2.8-0.4c-0.6-0.2-0.8-0.6-0.8-1.1c0-0.5,0.6-0.8,1.1-0.8c1,0.2,1.9,0.2,2.7,0.4
				c2,0.2,3.7,0.4,5.5,1.5c0.2,0.2,0.6,0.6,0.4,1c0,0.4-0.2,0.7-0.6,0.8c-1.1,0.4-2.4,0.6-3.7,0.7C111.7,64.1,110.5,64.4,109.5,64.7
				C109.7,64.7,109.7,64.7,109.5,64.7z"/>
			<path style="fill-rule:evenodd;clip-rule:evenodd;fill:#D74848;" d="M131.1,79.9c1.3-1,1.2-6,0.6-7.5c-1-2.5-2.4-0.8-4.4-1.7
				c-0.6-0.2-1.1-0.6-1.5-0.2c-0.2,0.2-0.2,0.2-0.2,0.6c-0.4,0.7-1.2,1.2-1.9,1.5c-1.3,0.7-2.8,1.1-4.3,1c-0.8-0.2-1.6-0.7-2.4-0.6
				c0.2,1.6,3.7,6.4,5,6.9c2,1,4.3,1.3,6.4,1.1C129.3,80.7,130.3,80.5,131.1,79.9z"/>
			<path style="fill-rule:evenodd;clip-rule:evenodd;fill:#FFFFFF;" d="M122.1,78.5c2.3-0.4,5.1-0.4,7.4-0.8
				c0.4-0.2,1.6-1.6,1.9-1.3c0.4,0.2,0.2,2.5,0.4,2.9c0.2,0.2,0.2,0.7,0,1c-0.2,0.2-0.2,0.2-0.4,0.4c-1.3,1-3.2,1.3-4.8,1.1
				C125.2,81.5,122.1,80.1,122.1,78.5z"/>
			<path style="fill:#231815;" d="M127.2,82.6c-4.1,0-7.8-4.6-10.5-8.7c-0.2-0.4-0.2-1,0.2-1.2c0.4-0.2,1-0.2,1.2,0.2
				c1.5,2.3,5.6,8.4,9.7,7.9c1.1-0.2,1.7-0.4,2.3-0.8c0.6-0.4,1.2-2.5,1.1-5c-0.2-2.1-0.6-3.7-1.2-3.9c-0.4-0.2-0.6-0.7-0.2-1.1
				c0.2-0.4,0.6-0.6,1.1-0.2c1.6,1,2,4,2,5.2c0.2,2.3-0.2,5.4-1.7,6.5c-0.8,0.6-1.7,1-3.1,1.1C127.6,82.6,127.4,82.6,127.2,82.6z"/>
			<path style="fill-rule:evenodd;clip-rule:evenodd;fill:#FFFFFF;" d="M120.5,74.1c0.6,0.2,1.3,0.2,2,0.2c1.7-0.2,3.5-0.6,5.2-1.2
				c0.2-0.2,0.6-0.2,0.8-0.4c0.2-0.4,0.2-0.8,0.2-1.3c0-0.2,0-0.6-0.2-0.8c-0.2-0.2-0.2-0.2-0.4-0.2c-0.6-0.2-1.2-0.4-1.9-0.6
				c-0.2,0-0.2-0.2-0.4,0c-0.2,0-0.4,0.2-0.6,0.4c-0.8,1.1-2.1,1.9-3.5,2.3C120.9,72.8,118.2,73.2,120.5,74.1z"/>
			<path style="fill:#231815;" d="M113.6,74.5c-0.4,0-0.6-0.2-1-0.6c-0.6-1.3,0.6-4.6,2.5-6.6c0.4-0.4,1-0.4,1.3,0
				c0.4,0.4,0.4,1,0,1.3c-1.6,1.6-2.3,4-2.1,4.6s0,1-0.6,1.2C114,74.5,113.8,74.5,113.6,74.5z"/>
			<path style="fill:#231815;" d="M130.9,59.9c-0.4,0-0.6-0.2-0.8-0.6c-0.2-0.4,0-0.8,0.2-1.1c1.2-1.1,2.5-1.9,4-2.7
				c0.4-0.2,1.1,0,1.2,0.4c0.2,0.4,0,1.1-0.4,1.2c-0.4,0.2-0.8,0.4-1.3,0.7h1.6l0,0c0.6,0,1,0.4,1,1c0,0.6-0.4,1-1,1L130.9,59.9
				L130.9,59.9z"/>
			<g>
				<path style="fill:#231815;" d="M119.2,74.4c-2,0-4-0.6-5.1-1.6c-0.4-0.4-0.4-1,0-1.3c0.4-0.3,1-0.4,1.3,0c0.8,0.8,3.1,1.3,5.5,1
					c1.5-0.2,3.5-1.1,4.4-3.4c0.2-0.6,0.8-0.7,1.2-0.6c0.6,0.2,0.6,0.8,0.6,1.2c-1,2.3-3.1,3.9-5.8,4.4
					C120.5,74.4,119.8,74.4,119.2,74.4z"/>
				<path style="fill:#231815;" d="M129.3,71.6c-0.4,0-0.6,0-1.1,0c-1.3-0.2-2.4-0.8-2.9-1.6c0-0.2-0.2-0.2-0.2-0.2
					c-0.2-0.4,0-1.1,0.4-1.2c0.4-0.2,1,0,1.2,0.2c0,0,0,0.2,0.2,0.2c0.2,0.4,0.8,0.7,1.6,0.8c1.6,0.2,3.3-0.2,4.1-1.1
					c0.4-0.4,0.6-0.8,0.8-1.1c-0.2-0.2-0.4-0.7-0.2-1.1c0.2-0.4,0.8-0.7,1.2-0.4s0.6,0.6,0.8,1.1c0.2,1.1-0.6,2.1-1.2,2.7
					C133,71.2,130.9,71.6,129.3,71.6z M133.6,67.8L133.6,67.8L133.6,67.8z"/>
			</g>
			<path style="fill:#231815;" d="M120.5,74.9c-0.4,0-0.6-0.2-0.6-0.7c0-0.4,0.2-0.8,0.6-0.8c2.5-0.2,6.4-0.6,7.1-0.8
				c1.2-0.6,1.3-1.3,1.3-1.9c0-0.4,0.2-0.7,0.6-0.8c0.4,0,0.6,0.2,0.8,0.7c0,1.5-0.6,2.7-2.1,3.4C127,74.4,121.7,74.8,120.5,74.9
				C120.6,74.9,120.5,74.9,120.5,74.9z"/>
			<path style="fill:#231815;" d="M127.4,78.9c-0.8,0-1.6-0.2-2.4-0.2c-2.1-0.4-3.2,0.2-3.2,0.2c-0.2,0.2-0.8,0.2-1-0.2
				c-0.2-0.2-0.2-0.8,0.2-1c0.2-0.2,1.5-1,4.3-0.4c2.9,0.6,3.7,0.2,4.1-0.8c0.4-0.8,1-1.3,1.5-1.3c0.8-0.2,1.5,0.4,1.5,0.6
				c0.2,0.2,0.2,0.8,0,1.1s-0.8,0.2-1.1,0l-0.2-0.2c0,0-0.2,0.2-0.4,0.6C130,78.5,128.8,78.9,127.4,78.9z"/>
			<path style="fill:#231815;" d="M126.4,73.9C126.4,73.9,126.2,73.9,126.4,73.9c-0.4,0-0.8-0.4-0.6-0.8c0-0.2-0.2-1.5-0.6-2.5
				c-0.2-0.4,0.2-0.8,0.6-1c0.4-0.2,0.8,0.2,1,0.6c0.2,0.6,0.6,2.3,0.6,2.9C127,73.5,126.6,73.9,126.4,73.9z"/>
			<path style="fill:#231815;" d="M125.5,81.9c-0.4,0-0.6-0.2-0.6-0.7l-0.4-3.3c0-0.4,0.2-0.8,0.6-0.8s0.8,0.2,0.8,0.7l0.4,3.3
				C126.2,81.5,126,81.7,125.5,81.9C125.6,81.9,125.6,81.9,125.5,81.9z"/>
			<path style="fill:#231815;" d="M128.4,81.6c-0.4,0-0.6-0.2-0.6-0.7V78c0-0.4,0.2-0.7,0.6-0.7s0.6,0.2,0.6,0.7v2.9
				C129.1,81.3,128.8,81.6,128.4,81.6z"/>
			<path style="fill:#231815;" d="M131.1,80.7c-0.2,0-0.6-0.2-0.6-0.6l-1-3.4c-0.2-0.4,0.2-0.8,0.6-1c0.4-0.2,0.8,0.2,1,0.6l1,3.4
				c0.2,0.4-0.2,0.8-0.6,1C131.2,80.7,131.1,80.7,131.1,80.7z"/>
		</g>
	</g>
</g>
<g>
	<path style="fill:#FFFFFF;" d="M67,92.4c-1,0-1.9,0.2-3.1,1c-6.3,3.5-13.2,15.6-13,22.8c0.2,5.2,2.8,10,7.6,13.5
		c5.8,4.3,13.6,6,19.6,4.2c6-1.9,7.5-5.8,6.8-8.9c-0.8-3.5-4.4-6.9-9.7-6.1c-4.3,0.6-9.9-1.3-11.3-4c-1.6-3.3,0.2-8.7,3.1-12.4
		c2.9-4,3.3-6.4,3.2-7.5c-0.2-0.8-0.6-1.5-1.3-2l0,0C68.4,92.5,67.8,92.4,67,92.4z"/>
	<path style="fill:#00709E;" d="M64.9,116c-0.6-0.4-2.3-1.7-4.8-1.7c-1,0-2,0.2-3.2,0.8c-5,2.5-5.1,6.2-5,7c0,0,3.7,7.3,9.3,9.2
		c0,0,9.1,5.8,19.8,1.5c0,0,5.8-3.3,4-8.5c0,0-2.8-7-9.7-5.6c0,0-5.2,0.6-8.7-1.7L64.9,116z"/>
	<path d="M73.2,135.4c-5.1,0-10.7-1.7-15.1-5c-5.1-3.8-7.9-8.8-8-14.3c-0.2-7.7,6.8-19.8,13.6-23.7c2.3-1.2,4.3-1.3,5.8-0.4
		c1,0.7,1.6,1.5,1.7,2.5c0.4,2-0.8,4.8-3.3,8.3c-2.5,3.4-4.4,8.5-2.9,11.4c1.1,2,6,4.2,10.3,3.5c5.9-0.8,9.9,2.9,10.7,6.9
		c0.8,3.5-0.8,7.9-7.5,10C76.9,135.4,75.1,135.4,73.2,135.4z M67,93.4c-0.8,0-1.6,0.2-2.5,0.8c-6,3.4-12.8,15.1-12.7,22
		c0.2,4.8,2.7,9.4,7.4,12.9c5.6,4.2,13.2,5.8,18.9,4c5.5-1.6,6.8-5.2,6.2-7.9c-0.6-3.1-4-6.1-8.7-5.4s-10.6-1.5-12.2-4.4
		c-1.9-3.8,0.2-9.4,3.1-13.3c2.9-3.9,3.1-6,2.9-6.9c-0.2-0.6-0.4-1-1-1.3C68.2,93.4,67.6,93.4,67,93.4z"/>
</g>
</svg>
