<?xml version="1.0" encoding="utf-8"?>
<!-- Generator: Adobe Illustrator 26.5.0, SVG Export Plug-In . SVG Version: 6.00 Build 0)  -->
<svg version="1.1" id="레이어_1" xmlns="http://www.w3.org/2000/svg" xmlns:xlink="http://www.w3.org/1999/xlink" x="0px"
	 y="0px" viewBox="0 0 165 225" style="enable-background:new 0 0 165 225;" xml:space="preserve">
<g>
	<g>
		<g>
			<polygon style="fill:#27343E;" points="30.6,169.9 99.9,142.5 95.2,132 28,157.6 			"/>
			<path d="M30.6,170.4c-0.1,0-0.2,0-0.2-0.1c-0.1-0.1-0.2-0.2-0.2-0.3l-2.6-12.3c0-0.2,0.1-0.4,0.3-0.5l67.2-25.6
				c0.2-0.1,0.5,0,0.6,0.2l4.6,10.5c0.1,0.1,0.1,0.2,0,0.4c0,0.1-0.1,0.2-0.3,0.3l-69.3,27.4C30.7,170.4,30.6,170.4,30.6,170.4z
				 M28.5,157.9l2.4,11.4l68.3-27.1l-4.3-9.6L28.5,157.9z"/>
		</g>
		<g>
			<polygon style="fill:#2B2B2B;" points="6.8,40.2 0.5,43.5 3.2,133.4 20.9,153.8 			"/>
			<path d="M20.9,154.3c-0.1,0-0.3-0.1-0.4-0.2L2.9,133.7c-0.1-0.1-0.1-0.2-0.1-0.3L0,43.5c0-0.2,0.1-0.3,0.2-0.4l6.4-3.3
				c0.1-0.1,0.3-0.1,0.4,0c0.1,0.1,0.2,0.2,0.2,0.4l14,113.6c0,0.2-0.1,0.4-0.3,0.5C21,154.3,20.9,154.3,20.9,154.3z M3.7,133.2
				l16.5,19.1L6.5,40.9l-5.5,2.9L3.7,133.2z"/>
		</g>
		<g>
			<polygon style="fill:#2B2B2B;" points="51.4,142.5 45,103.8 79.1,99.1 79.1,134.5 			"/>
			<path d="M51.4,143c-0.1,0-0.2,0-0.2-0.1c-0.1-0.1-0.2-0.2-0.2-0.3l-6.4-38.7c0-0.1,0-0.3,0.1-0.4c0.1-0.1,0.2-0.2,0.3-0.2
				l34.1-4.8c0.1,0,0.3,0,0.4,0.1c0.1,0.1,0.2,0.2,0.2,0.4v35.4c0,0.2-0.1,0.4-0.3,0.4l-27.7,8C51.5,143,51.4,143,51.4,143z
				 M45.6,104.2l6.2,37.7l26.9-7.8V99.6L45.6,104.2z"/>
		</g>
		<g>
			<polygon style="fill:#5F8097;" points="46.1,109.4 51.4,142.5 32.8,149.3 27.9,113.8 			"/>
			<path d="M32.8,149.8c-0.1,0-0.2,0-0.2-0.1c-0.1-0.1-0.2-0.2-0.2-0.3l-4.9-35.5c0-0.2,0.1-0.5,0.4-0.5l18.2-4.4
				c0.1,0,0.3,0,0.4,0.1c0.1,0.1,0.2,0.2,0.2,0.3l5.4,33.1c0,0.2-0.1,0.4-0.3,0.5l-18.6,6.8C32.9,149.8,32.8,149.8,32.8,149.8z
				 M28.4,114.1l4.8,34.5l17.7-6.5L45.7,110L28.4,114.1z"/>
		</g>
		<g>
			<polygon style="fill:#FB0014;" points="49.9,91.1 52.6,108.5 88.9,100.8 85.3,85.1 			"/>
			<path d="M52.6,109c-0.1,0-0.2,0-0.3-0.1c-0.1-0.1-0.2-0.2-0.2-0.3l-2.8-17.4c0-0.3,0.1-0.5,0.4-0.5l35.5-6c0.2,0,0.5,0.1,0.5,0.4
				l3.6,15.8c0,0.1,0,0.2-0.1,0.4c-0.1,0.1-0.2,0.2-0.3,0.2L52.6,109C52.7,109,52.6,109,52.6,109z M50.4,91.5L53,108l35.3-7.5
				L85,85.6L50.4,91.5z"/>
		</g>
		<g>
			<polygon style="fill:#02A0F4;" points="45,88.4 49.9,91.1 85.3,85.1 81,82.3 			"/>
			<path d="M49.9,91.6c-0.1,0-0.2,0-0.2-0.1l-4.8-2.7c-0.2-0.1-0.3-0.3-0.2-0.5c0-0.2,0.2-0.3,0.4-0.4l35.9-6.1c0.1,0,0.2,0,0.3,0.1
				l4.4,2.7c0.2,0.1,0.2,0.3,0.2,0.5c0,0.2-0.2,0.3-0.4,0.4L49.9,91.6C49.9,91.6,49.9,91.6,49.9,91.6z M46.4,88.6l3.5,2L84,84.8
				l-3.2-2L46.4,88.6z"/>
		</g>
		<g>
			<polygon style="fill:#364A58;" points="32.8,149.3 28,157.6 92.2,134.4 86.1,129.8 			"/>
			<path d="M28,158.1c-0.1,0-0.3-0.1-0.4-0.2c-0.1-0.1-0.1-0.4,0-0.5l4.8-8.3c0.1-0.1,0.1-0.2,0.2-0.2L86,129.3
				c0.2-0.1,0.3,0,0.4,0.1l6,4.6c0.1,0.1,0.2,0.3,0.2,0.4s-0.1,0.3-0.3,0.4l-64.2,23.2C28.1,158.1,28,158.1,28,158.1z M33.1,149.7
				l-4.1,7.1l62.2-22.5l-5.2-4L33.1,149.7z"/>
		</g>
		<g>
			<polygon style="fill:#27343E;" points="28,157.6 32.8,149.3 27.9,113.8 20.9,112.9 			"/>
			<path d="M28,158.1C28,158.1,27.9,158.1,28,158.1c-0.3,0-0.4-0.2-0.5-0.4L20.4,113c0-0.1,0-0.3,0.1-0.4c0.1-0.1,0.2-0.2,0.4-0.1
				l7,0.9c0.2,0,0.4,0.2,0.4,0.4l4.9,35.5c0,0.1,0,0.2-0.1,0.3l-4.8,8.3C28.3,158,28.1,158.1,28,158.1z M21.4,113.5l6.8,42.8l4-7
				l-4.8-35L21.4,113.5z"/>
		</g>
		<g>
			<path style="fill:#D40000;" d="M43.3,88.4l6.5,2.7l2.8,17.4l-2.7-0.5c0,0-0.6-10.3-3.9-12L43.3,88.4z"/>
			<path d="M52.6,109C52.6,109,52.6,109,52.6,109l-2.8-0.5c-0.2,0-0.4-0.2-0.4-0.4c-0.2-2.8-1.1-10.3-3.6-11.6
				c-0.1-0.1-0.2-0.1-0.2-0.3l-2.7-7.6c-0.1-0.2,0-0.4,0.1-0.5c0.1-0.1,0.3-0.2,0.5-0.1l6.5,2.7c0.2,0.1,0.3,0.2,0.3,0.4l2.8,17.4
				c0,0.1,0,0.3-0.1,0.4C52.9,108.9,52.7,109,52.6,109z M50.3,107.6l1.7,0.3l-2.6-16.5l-5.3-2.2l2.3,6.5
				C49.4,97.6,50.2,105.8,50.3,107.6z"/>
		</g>
		<g>
			<path style="fill:#364A58;" d="M44.1,91.8L15.7,96c0,0,11.8,0.8,13.2,19.4l20.9-7.3C49.9,108,50.2,93.1,44.1,91.8z"/>
			<path d="M29,115.9c-0.1,0-0.2,0-0.3-0.1c-0.1-0.1-0.2-0.2-0.2-0.4c-1.4-18-12.7-18.9-12.8-18.9c-0.2,0-0.4-0.2-0.4-0.4
				c0-0.2,0.2-0.4,0.4-0.5L44,91.3c0.1,0,0.1,0,0.2,0c6.4,1.4,6.2,16.1,6.2,16.7c0,0.2-0.1,0.4-0.3,0.4l-20.9,7.3
				C29.1,115.8,29,115.9,29,115.9z M18.1,96.1c3.6,1.3,10.1,5.5,11.3,18.6l20-7c0-2.1-0.3-14.2-5.4-15.5L18.1,96.1z"/>
		</g>
		<g>
			<polygon style="fill:#DDDDDD;" points="17.6,96 12.5,36.2 88.4,37.5 91.3,84.2 			"/>
			<path d="M17.6,96.5c-0.1,0-0.2,0-0.3-0.1c-0.1-0.1-0.2-0.2-0.2-0.3L12,36.2c0-0.1,0-0.3,0.1-0.4c0.1-0.1,0.2-0.1,0.3-0.1L88.4,37
				c0.2,0,0.4,0.2,0.5,0.4l2.9,46.7c0,0.2-0.2,0.4-0.4,0.5L17.6,96.5C17.6,96.5,17.6,96.5,17.6,96.5z M13,36.7l5,58.8l72.8-11.7
				l-2.9-45.9L13,36.7z"/>
		</g>
		<g>
			<path style="fill:#2B2B2B;" d="M19.8,112.9l9.2,2.5c0,0,1.3-18.4-9.6-19.8L19.8,112.9z"/>
			<path d="M29,115.9c0,0-0.1,0-0.1,0l-9.2-2.5c-0.2-0.1-0.3-0.2-0.3-0.4l-0.4-17.3c0-0.1,0.1-0.3,0.2-0.4c0.1-0.1,0.2-0.1,0.4-0.1
				c4.7,0.6,7.9,4.3,9.3,10.8c1,4.8,0.7,9.3,0.7,9.5c0,0.1-0.1,0.3-0.2,0.3C29.2,115.8,29.1,115.9,29,115.9z M20.3,112.6l8.3,2.2
				c0.1-3,0.1-17-8.7-18.7L20.3,112.6z"/>
		</g>
		<g>
			<polygon style="fill:#9D0000;" points="12.8,36.2 88.4,37.5 100.6,26.7 15.3,22.7 			"/>
			<path d="M88.4,38C88.4,38,88.4,38,88.4,38l-75.5-1.3c-0.1,0-0.3-0.1-0.4-0.2c-0.1-0.1-0.1-0.2-0.1-0.4l2.5-13.5
				c0-0.2,0.3-0.4,0.5-0.4l85.3,4.1c0.2,0,0.4,0.1,0.4,0.3c0.1,0.2,0,0.4-0.1,0.5L88.7,37.8C88.6,37.9,88.5,38,88.4,38z M13.4,35.7
				L88.2,37l11.3-9.9l-83.8-4L13.4,35.7z"/>
		</g>
		<g>
			<polygon style="fill:#02A0F4;" points="15.3,22.7 15.3,0.5 99.6,6.3 100.6,26.7 			"/>
			<path d="M100.6,27.2C100.6,27.2,100.6,27.2,100.6,27.2l-85.3-4.1c-0.2,0-0.4-0.2-0.4-0.5V0.5c0-0.1,0.1-0.3,0.1-0.3
				C15.1,0,15.2,0,15.4,0l84.3,5.8c0.2,0,0.4,0.2,0.4,0.4l1,20.4c0,0.1,0,0.3-0.1,0.4C100.9,27.2,100.8,27.2,100.6,27.2z M15.8,22.2
				l84.4,4l-1-19.5L15.8,1V22.2z"/>
		</g>
		<g>
			<polygon style="fill:#D40000;" points="15.3,0.5 15.3,22.7 12.8,36.2 30.6,169.9 19.1,156.1 2.7,37.5 			"/>
			<path d="M30.6,170.4c-0.1,0-0.3-0.1-0.4-0.2l-11.5-13.8c-0.1-0.1-0.1-0.1-0.1-0.2L2.2,37.5c0-0.1,0-0.1,0-0.2l12.6-37
				C15,0.1,15.2,0,15.4,0c0.2,0,0.4,0.2,0.4,0.5v22.2c0,0,0,0.1,0,0.1l-2.5,13.5L31,169.9c0,0.2-0.1,0.4-0.3,0.5
				C30.7,170.4,30.6,170.4,30.6,170.4z M19.5,155.9l10.3,12.5L12.4,36.3c0,0,0-0.1,0-0.1l2.5-13.5V3.3L3.2,37.5L19.5,155.9z"/>
		</g>
		<g>
			<polygon style="fill:#DDDDDD;" points="53.3,93.2 55,105.5 86.2,98.9 83.8,88 			"/>
			<path d="M55,106c-0.1,0-0.2,0-0.3-0.1c-0.1-0.1-0.2-0.2-0.2-0.3l-1.7-12.3c0-0.2,0.1-0.5,0.4-0.5l30.5-5.2c0.2,0,0.5,0.1,0.5,0.4
				l2.4,10.9c0,0.1,0,0.2-0.1,0.4c-0.1,0.1-0.2,0.2-0.3,0.2L55,106C55,106,55,106,55,106z M53.8,93.6l1.6,11.4l30.2-6.4l-2.2-10
				L53.8,93.6z"/>
		</g>
		<g>
			<defs>
				<polygon id="XMLID_00000124860019020493746540000003215087086967925170_" points="18.6,41.2 25,90.6 86.3,80.3 83.9,41.2 				
					"/>
			</defs>
			<use xlink:href="#XMLID_00000124860019020493746540000003215087086967925170_"  style="overflow:visible;fill:#F1D284;"/>
			<clipPath id="XMLID_00000076601441086015924710000013780466262057249973_">
				<use xlink:href="#XMLID_00000124860019020493746540000003215087086967925170_"  style="overflow:visible;"/>
			</clipPath>
		</g>
		<g>
			<g>
				<path style="fill:#2B2B2B;" d="M73.6,82.8c-6.4,0-11.6,6.1-11.6,13.6c0,7.5,5.2,13.6,11.6,13.6c6.4,0,11.6-6.1,11.6-13.6
					C85.2,88.9,80,82.8,73.6,82.8z M73.6,104.4c-3.8,0-6.8-3.6-6.8-8c0-4.4,3-8,6.8-8c3.8,0,6.8,3.6,6.8,8
					C80.4,100.8,77.4,104.4,73.6,104.4z"/>
				<path d="M73.6,110.5c-6.6,0-12-6.3-12-14.1s5.4-14.1,12-14.1s12,6.3,12,14.1S80.3,110.5,73.6,110.5z M73.6,83.2
					c-6.1,0-11.1,5.9-11.1,13.2s5,13.2,11.1,13.2s11.1-5.9,11.1-13.2S79.7,83.2,73.6,83.2z M73.6,104.9c-4,0-7.3-3.8-7.3-8.5
					s3.3-8.5,7.3-8.5s7.3,3.8,7.3,8.5S77.6,104.9,73.6,104.9z M73.6,88.9c-3.5,0-6.3,3.4-6.3,7.6c0,4.2,2.8,7.6,6.3,7.6
					s6.3-3.4,6.3-7.6C80,92.2,77.1,88.9,73.6,88.9z"/>
			</g>
			<g>
				<ellipse style="fill:#868686;" cx="73.6" cy="96.4" rx="3.7" ry="4.4"/>
				<path d="M73.6,101.3c-2.3,0-4.2-2.2-4.2-4.9s1.9-4.9,4.2-4.9c2.3,0,4.2,2.2,4.2,4.9S76,101.3,73.6,101.3z M73.6,92.5
					c-1.8,0-3.3,1.8-3.3,4c0,2.2,1.5,4,3.3,4s3.3-1.8,3.3-4C76.9,94.2,75.4,92.5,73.6,92.5z"/>
			</g>
		</g>
		<g>
			<polygon style="fill:#02A0F4;" points="27.4,20.1 27.4,4.2 87.8,8.4 88.5,23 			"/>
			<path d="M88.5,23.5C88.5,23.5,88.5,23.5,88.5,23.5l-61.1-2.9c-0.2,0-0.4-0.2-0.4-0.5V4.2c0-0.1,0.1-0.3,0.1-0.3
				c0.1-0.1,0.2-0.1,0.4-0.1l60.3,4.2c0.2,0,0.4,0.2,0.4,0.4L89,23c0,0.1,0,0.3-0.1,0.4C88.8,23.4,88.6,23.5,88.5,23.5z M27.9,19.6
				L88,22.5L87.3,8.8L27.9,4.7V19.6z"/>
		</g>
		<g>
			<g>
				<polygon style="fill:#FB0014;" points="15.3,22.7 15.3,0.5 99.6,6.3 100.6,26.7 				"/>
				<path d="M100.6,27.2C100.6,27.2,100.6,27.2,100.6,27.2l-85.3-4.1c-0.2,0-0.4-0.2-0.4-0.5V0.5c0-0.1,0.1-0.3,0.1-0.3
					C15.1,0,15.2,0,15.4,0l84.3,5.8c0.2,0,0.4,0.2,0.4,0.4l1,20.4c0,0.1,0,0.3-0.1,0.4C100.9,27.2,100.8,27.2,100.6,27.2z
					 M15.8,22.2l84.4,4l-1-19.5L15.8,1V22.2z"/>
			</g>
		</g>
		<g>
			<g>
				<polygon style="fill:#2B2B2B;" points="27.4,20.1 27.4,4.2 87.8,8.4 88.5,23 				"/>
				<path d="M88.5,23.5C88.5,23.5,88.5,23.5,88.5,23.5l-61.1-2.9c-0.2,0-0.4-0.2-0.4-0.5V4.2c0-0.1,0.1-0.3,0.1-0.3
					c0.1-0.1,0.2-0.1,0.4-0.1l60.3,4.2c0.2,0,0.4,0.2,0.4,0.4L89,23c0,0.1,0,0.3-0.1,0.4C88.8,23.4,88.6,23.5,88.5,23.5z M27.9,19.6
					L88,22.5L87.3,8.8L27.9,4.7V19.6z"/>
			</g>
		</g>
		<g>
			<polygon style="fill:#2D55F6;" points="14.9,51.4 16.9,67 8.7,80.3 6.3,63.5 			"/>
			<path d="M8.7,80.8C8.6,80.8,8.6,80.8,8.7,80.8c-0.3-0.1-0.4-0.2-0.5-0.4L5.8,63.5c0-0.1,0-0.2,0.1-0.3l8.6-12.1
				c0.1-0.2,0.3-0.2,0.5-0.2c0.2,0,0.3,0.2,0.3,0.4l2,15.6c0,0.1,0,0.2-0.1,0.3L9.1,80.6C9,80.7,8.8,80.8,8.7,80.8z M6.8,63.6
				L8.9,79l7.5-12.1l-1.9-14.2L6.8,63.6z"/>
		</g>
		<g>
			<polygon style="fill:#2D55F6;" points="9.9,87.8 18.1,75 19,82.9 10.7,94 			"/>
			<path d="M10.7,94.5c0,0-0.1,0-0.1,0c-0.2,0-0.3-0.2-0.3-0.4l-0.8-6.3c0-0.1,0-0.2,0.1-0.3l8.2-12.8c0.1-0.2,0.3-0.2,0.5-0.2
				c0.2,0,0.3,0.2,0.4,0.4l0.9,7.9c0,0.1,0,0.2-0.1,0.3L11,94.3C11,94.4,10.8,94.5,10.7,94.5z M10.4,87.9l0.6,4.9l7.6-10.1l-0.8-6.4
				L10.4,87.9z"/>
		</g>
		<g>
			<g>
				<polygon style="fill:#364A58;" points="54.7,131.7 54.1,133.2 61,146.7 71.5,142.5 71.7,141.3 				"/>
				<path d="M61,147.2c-0.2,0-0.3-0.1-0.4-0.3l-6.9-13.5c-0.1-0.1-0.1-0.3,0-0.4l0.7-1.5c0.1-0.1,0.2-0.2,0.3-0.3c0.1,0,0.3,0,0.4,0
					l16.9,9.6c0.2,0.1,0.3,0.3,0.2,0.5l-0.2,1.2c0,0.2-0.1,0.3-0.3,0.4l-10.5,4.2C61.1,147.2,61.1,147.2,61,147.2z M54.6,133.2
					l6.6,12.9l9.8-3.9l0.1-0.6L55,132.4L54.6,133.2z"/>
			</g>
			<g>
				<polygon style="fill:#5F8097;" points="54.7,131.7 61.6,145.3 71.7,141.3 64.8,128 				"/>
				<path d="M61.6,145.7c-0.2,0-0.3-0.1-0.4-0.3l-6.8-13.5c-0.1-0.1-0.1-0.3,0-0.4c0-0.1,0.1-0.2,0.3-0.3l10.1-3.7
					c0.2-0.1,0.5,0,0.6,0.2l6.9,13.3c0.1,0.1,0.1,0.3,0,0.4c0,0.1-0.1,0.2-0.3,0.3l-10.1,3.9C61.7,145.7,61.6,145.7,61.6,145.7z
					 M55.4,132l6.4,12.7l9.2-3.6l-6.4-12.5L55.4,132z"/>
			</g>
			<g>
				<line style="fill:#02A0F4;" x1="58.2" y1="133.2" x2="64.6" y2="130.8"/>
				<path d="M58.2,133.7c-0.2,0-0.4-0.1-0.4-0.3c-0.1-0.2,0-0.5,0.3-0.6l6.4-2.5c0.2-0.1,0.5,0,0.6,0.3c0.1,0.2,0,0.5-0.3,0.6
					l-6.4,2.5C58.3,133.7,58.2,133.7,58.2,133.7z"/>
			</g>
			<g>
				<line style="fill:#02A0F4;" x1="59.6" y1="135.7" x2="66" y2="133.2"/>
				<path d="M59.6,136.2c-0.2,0-0.4-0.1-0.4-0.3c-0.1-0.2,0-0.5,0.3-0.6l6.4-2.5c0.2-0.1,0.5,0,0.6,0.3c0.1,0.2,0,0.5-0.3,0.6
					l-6.4,2.5C59.7,136.1,59.7,136.2,59.6,136.2z"/>
			</g>
			<g>
				<line style="fill:#02A0F4;" x1="61" y1="138.1" x2="67.4" y2="135.7"/>
				<path d="M61,138.6c-0.2,0-0.4-0.1-0.4-0.3c-0.1-0.2,0-0.5,0.3-0.6l6.4-2.5c0.2-0.1,0.5,0,0.6,0.3c0.1,0.2,0,0.5-0.3,0.6
					l-6.4,2.5C61.1,138.6,61.1,138.6,61,138.6z"/>
			</g>
			<g>
				<line style="fill:#02A0F4;" x1="62.4" y1="140.6" x2="68.8" y2="138.1"/>
				<path d="M62.4,141.1c-0.2,0-0.4-0.1-0.4-0.3c-0.1-0.2,0-0.5,0.3-0.6l6.4-2.5c0.2-0.1,0.5,0,0.6,0.3c0.1,0.2,0,0.5-0.3,0.6
					l-6.4,2.5C62.5,141.1,62.5,141.1,62.4,141.1z"/>
			</g>
		</g>
		
			<path style="fill:#CE9338;stroke:#000000;stroke-width:1.2;stroke-linecap:round;stroke-linejoin:round;stroke-miterlimit:10;" d="
			M83.9,41.2l2.4,39.2l-23.7,4c-0.1-1.9,1.6-5.3,2.9-6.9c2.4-3.1,4.7-6.2,5.9-9.6c1.2-3.4,1.3-7.2-0.7-10.4
			c-3.2-5.1-10.1-6.2-14.5-10.1c-5.9-5.3,8.2-6,12.6-6.1L83.9,41.2z"/>
		
			<path style="fill:#CE9338;stroke:#000000;stroke-width:1.2;stroke-linecap:round;stroke-linejoin:round;stroke-miterlimit:10;" d="
			M18.6,41.2c14.4-0.7,14.7,10,20.1,13.6c5.1,3.4,16.9,3.2,17.6,11.2c0.3,3.8-2.9,7.1-6.3,8.9c-4.6,2.5-9.2,5.1-14.1,6.9
			c-1,0.4-11.5,3.9-11.4,4.4C24.4,86.1,18.6,41.2,18.6,41.2z"/>
		<path d="M25,91.1c-0.1,0-0.2,0-0.3-0.1c-0.1-0.1-0.2-0.2-0.2-0.3l-6.5-49.5c0-0.1,0-0.3,0.1-0.4c0.1-0.1,0.2-0.2,0.4-0.2h65.4
			c0.2,0,0.5,0.2,0.5,0.4l2.4,39.2c0,0.2-0.2,0.4-0.4,0.5L25,91.1C25.1,91.1,25,91.1,25,91.1z M19.1,41.6l6.3,48.5l60.4-10.2
			l-2.3-38.3H19.1z"/>
	</g>
	<g>
		<g>
			<path style="fill:#EFEFEF;" d="M55.3,61.8l1.6-4.6c0.1-0.2,0.3-0.4,0.5-0.4l8.4-0.9c0.2,0,0.5,0.1,0.6,0.3l2.4,4.2L55.3,61.8z"/>
			<path d="M65.9,55.9c0.2,0,0.4,0.1,0.5,0.3l2.4,4.2l-13.5,1.4l1.6-4.6c0.1-0.2,0.3-0.4,0.5-0.4L65.9,55.9
				C65.9,55.9,65.9,55.9,65.9,55.9 M65.9,55.2c0,0-0.1,0-0.1,0l-8.4,0.9c-0.5,0-0.9,0.4-1,0.8l-1.6,4.6c-0.1,0.2,0,0.4,0.1,0.6
				c0.1,0.2,0.3,0.2,0.5,0.2c0,0,0,0,0.1,0L68.9,61c0.2,0,0.4-0.2,0.5-0.3c0.1-0.2,0.1-0.4,0-0.6L67,55.8
				C66.8,55.5,66.4,55.2,65.9,55.2L65.9,55.2z"/>
		</g>
		<g>
			<g>
				<path style="fill:#333333;" d="M57.5,70.6L57.5,70.6c-0.9,0.1-1.7-0.6-1.8-1.5L55.3,66c-0.1-0.9,0.6-1.7,1.5-1.8l0,0
					c0.9-0.1,1.7,0.6,1.8,1.5l0.3,3.2C59,69.7,58.4,70.5,57.5,70.6z"/>
				<path d="M57.3,71c-1,0-1.9-0.8-2-1.8L55,66c-0.1-0.5,0.1-1,0.4-1.4c0.3-0.4,0.8-0.7,1.3-0.7c0.5-0.1,1,0.1,1.4,0.4
					c0.4,0.3,0.7,0.8,0.7,1.3l0.3,3.2c0.1,0.5-0.1,1-0.4,1.4c-0.3,0.4-0.8,0.7-1.3,0.7l0,0C57.4,71,57.3,71,57.3,71z M57.5,70.6
					L57.5,70.6L57.5,70.6z M56.9,64.5c0,0-0.1,0-0.1,0c-0.4,0-0.7,0.2-0.9,0.5c-0.2,0.3-0.3,0.6-0.3,1l0.3,3.2
					c0.1,0.7,0.7,1.3,1.5,1.2c0.4,0,0.7-0.2,0.9-0.5c0.2-0.3,0.3-0.6,0.3-1l-0.3-3.2c0-0.4-0.2-0.7-0.5-0.9
					C57.5,64.6,57.2,64.5,56.9,64.5z"/>
			</g>
			<g>
				<path style="fill:#333333;" d="M69,69.4L69,69.4c0.9-0.1,1.6-0.9,1.5-1.8l-0.3-3.2c-0.1-0.9-0.9-1.6-1.8-1.5h0
					c-0.9,0.1-1.6,0.9-1.5,1.8l0.3,3.2C67.3,68.8,68.1,69.5,69,69.4z"/>
				<path d="M68.8,69.7c-0.4,0-0.9-0.2-1.2-0.4c-0.4-0.3-0.7-0.8-0.7-1.3l-0.3-3.2c-0.1-1.1,0.7-2.1,1.8-2.2
					c1.1-0.1,2.1,0.7,2.2,1.8l0.3,3.2c0.1,0.5-0.1,1-0.4,1.4c-0.3,0.4-0.8,0.7-1.3,0.7l0,0C68.9,69.7,68.9,69.7,68.8,69.7z
					 M68.5,63.2c0,0-0.1,0-0.1,0c-0.7,0.1-1.3,0.7-1.2,1.5l0.3,3.2c0,0.4,0.2,0.7,0.5,0.9c0.3,0.2,0.6,0.3,1,0.3l0,0
					c0.4,0,0.7-0.2,0.9-0.5c0.2-0.3,0.3-0.6,0.3-1l-0.3-3.2C69.7,63.7,69.1,63.2,68.5,63.2z"/>
			</g>
		</g>
		<g>
			<g id="stage1_x5F_policecar_00000002358264826854599710000012771257714592634783_">
				<g id="policecar_00000117667904845758277650000010931271374234842295_">
					<g id="car_00000133493466275763858660000009578464671622009248_">
						<g>
							<g>
								<path style="fill:#333333;" d="M64,61.4l-0.5,0.1c-0.2,0-0.4,0.2-0.4,0.5c0,0.2,0.2,0.4,0.4,0.4l0.5-0.1
									c0.2,0-0.2-0.2-0.2-0.4S64.3,61.4,64,61.4z"/>
								<path d="M63.6,62.6c-0.2,0-0.3-0.1-0.5-0.2c-0.1-0.1-0.2-0.3-0.3-0.5c0-0.4,0.2-0.8,0.6-0.8l0.5-0.1c0.2,0,0.3,0.1,0.4,0.2
									c0.1,0.2,0,0.4-0.1,0.5c0,0-0.1,0.1-0.1,0.1c0,0,0.1,0,0.1,0.1c0.1,0.1,0.2,0.2,0.2,0.4c0,0.1-0.1,0.2-0.3,0.2L63.6,62.6
									C63.6,62.6,63.6,62.6,63.6,62.6z M63.6,61.8L63.6,61.8c-0.1,0-0.1,0.1-0.1,0.1c0,0,0.1,0.1,0.1,0.1l0.1,0c0,0,0-0.1,0-0.1
									C63.6,61.9,63.6,61.8,63.6,61.8z M64,61.4l0,0.3c0,0,0,0,0,0L64,61.4z M64,61.4L64,61.4L64,61.4z"/>
							</g>
						</g>
						<g>
							<g>
								<g>
									<g>
										<path style="fill:#EFEFEF;" d="M53.3,64.3l0.3,2.5c0.1,0.8,0.8,1.4,1.6,1.3l1.9-0.2l0.9-0.1l9.8-1.1l0.9-0.1l2-0.2
											c0.8-0.1,1.3-0.8,1.2-1.6l-0.3-2.4L53.3,64.3C53.3,64.2,53.3,64.2,53.3,64.3z"/>
										<path d="M71.7,62.2l0.3,2.4c0.1,0.8-0.5,1.6-1.2,1.6l-2,0.2l-0.9,0.1L58,67.8l-0.9,0.1l-1.9,0.2c-0.1,0-0.1,0-0.2,0
											c-0.7,0-1.3-0.6-1.4-1.3l-0.3-2.5c0,0,0,0,0-0.1L71.7,62.2 M71.7,61.6C71.6,61.6,71.6,61.6,71.7,61.6l-18.4,2
											c-0.3,0-0.6,0.3-0.6,0.7c0,0,0,0.1,0,0.1l0.3,2.5c0.1,1.1,1,1.9,2.1,1.9c0.1,0,0.2,0,0.2,0l1.9-0.2l0.9-0.1l9.8-1.1
											l0.9-0.1l2-0.2c1.1-0.1,1.9-1.2,1.8-2.4l-0.3-2.4C72.3,61.8,72,61.6,71.7,61.6L71.7,61.6z"/>
									</g>
								</g>
								<g>
									<g>
										<path style="fill:#C9C9C9;" d="M71.7,62.2L71.7,62.2c0-0.1,0-0.2-0.1-0.3C71.6,62,71.6,62.1,71.7,62.2L71.7,62.2z"/>
										<path d="M71.7,62.5c-0.2,0-0.3-0.1-0.3-0.3l0-0.1c0-0.1,0-0.1,0-0.2c0,0,0-0.1,0-0.1c0-0.1,0.1-0.3,0.2-0.3
											c0.2,0,0.3,0.1,0.4,0.2c0,0.1,0,0.2,0.1,0.3l0,0.1c0,0,0,0,0,0C72,62.4,71.9,62.5,71.7,62.5
											C71.7,62.5,71.7,62.5,71.7,62.5z"/>
									</g>
									<path style="fill:#D9DADA;" d="M71.7,62.2l-2.2,0.2l0.3,2.5c0.1,0.8-0.5,1.6-1.2,1.6l3-0.4c0.3,0,0.5-0.3,0.5-0.6
										L71.7,62.2z"/>
									<g>
										<path style="fill:#C9C9C9;" d="M71.6,61.8C71.6,61.8,71.6,61.8,71.6,61.8C71.6,61.8,71.6,61.8,71.6,61.8z"/>
										<path d="M71.6,62.2c-0.1,0-0.2-0.1-0.3-0.2c0,0,0-0.1,0-0.1c0-0.1,0.1-0.3,0.2-0.3c0.2-0.1,0.3,0,0.4,0.2c0,0,0,0,0,0
											c0,0,0,0.1,0,0.1c0,0.1-0.1,0.3-0.2,0.3C71.7,62.1,71.6,62.2,71.6,62.2z"/>
									</g>
									<g>
										<polygon style="fill:#2800FF;" points="71.7,62.2 71.7,62.2 71.7,62.2 										"/>
										<path d="M71.7,62.5c-0.2,0-0.3-0.1-0.3-0.3l0,0c0,0,0,0,0,0c0-0.2,0.1-0.3,0.3-0.3c0.2,0,0.3,0.1,0.4,0.3c0,0,0,0,0,0
											C72,62.4,71.9,62.5,71.7,62.5C71.7,62.5,71.7,62.5,71.7,62.5z"/>
									</g>
									<g>
										<path style="fill:#2800FF;" d="M71.6,61.8C71.6,61.9,71.6,61.9,71.6,61.8C71.6,61.9,71.6,61.9,71.6,61.8z"/>
										<path d="M71.6,62.2c-0.1,0-0.3-0.1-0.3-0.2l0-0.1c0,0,0-0.1,0-0.1c0-0.1,0.1-0.3,0.2-0.3c0.2-0.1,0.3,0,0.4,0.2l0,0.1
											c0,0,0,0.1,0,0.1C71.9,62.1,71.8,62.2,71.6,62.2C71.7,62.2,71.6,62.2,71.6,62.2z"/>
									</g>
									<g>
										<g>
											<path style="fill:#1C00CB;" d="M71.6,61.9C71.6,61.9,71.6,61.9,71.6,61.9C71.6,61.9,71.6,61.9,71.6,61.9
												C71.6,61.9,71.6,61.9,71.6,61.9z"/>
											<path d="M71.6,62.2c-0.1,0-0.3-0.1-0.3-0.2c0,0,0,0,0,0c0,0,0,0,0,0v0c0,0,0,0,0,0c0,0,0,0,0,0v0c0,0,0,0,0,0l0,0
												c0,0,0,0,0,0c0,0,0,0,0,0c0,0,0,0,0,0c0,0,0,0,0,0v0c0,0,0,0,0,0v0c0,0,0,0,0,0v0c0,0,0,0,0,0c0,0,0,0,0,0v0c0,0,0,0,0,0
												c0,0,0,0,0,0c0,0,0,0,0,0s0,0,0,0c0,0,0,0,0,0c0,0,0,0,0,0c0,0,0,0,0,0c0,0,0,0,0,0c0,0,0,0,0,0v0c0,0,0,0,0,0v0
												c0,0,0,0,0,0c0,0,0,0,0,0v0c0,0,0,0,0,0c0,0,0,0,0,0c0,0,0,0,0,0c0,0,0,0,0,0l0,0c0,0,0,0,0,0c0,0,0,0,0,0c0,0,0,0,0,0v0
												c0,0,0,0,0,0c0,0,0,0,0,0l0,0c0,0,0,0,0,0l0,0c0,0,0,0,0,0l0,0c0,0,0,0,0,0l0,0c0,0,0,0,0-0.1l0,0c0,0,0,0,0,0l0,0
												c0,0,0,0,0,0c0,0,0,0,0,0v0c0,0,0,0,0,0c0,0,0,0,0,0l0,0c0,0,0,0,0,0c0,0,0,0,0,0v0c0,0,0,0,0,0v0c0,0,0,0,0,0v0
												c0,0,0,0,0,0c0,0,0,0,0,0c0,0,0,0,0,0c0,0,0,0,0,0c0,0,0,0,0,0v0c0,0,0,0,0,0v0c0,0,0,0,0,0c0,0,0,0,0,0l0,0c0,0,0,0,0,0
												l0,0c0-0.1,0.1-0.3,0.2-0.3c0,0,0,0,0,0l0,0c0,0,0,0,0,0l0,0c0.1,0,0.3,0,0.4,0.2c0,0,0,0,0,0l0,0c0,0,0,0,0,0.1
												c0,0,0,0,0,0c0,0,0,0,0,0C72,62,71.9,62.2,71.6,62.2C71.7,62.2,71.6,62.2,71.6,62.2z"/>
										</g>
										<g>
											<path style="fill:#1C00CB;" d="M71.6,62.1C71.7,62.1,71.7,62.1,71.6,62.1C71.7,62.1,71.7,62.1,71.6,62.1z"/>
											<path d="M71.7,62.5c-0.2,0-0.3-0.1-0.3-0.3l0-0.1c0,0,0,0,0,0c0-0.2,0.1-0.3,0.3-0.3c0.2,0,0.3,0.1,0.4,0.3l0,0.1
												c0,0,0,0,0,0C72,62.3,71.9,62.4,71.7,62.5C71.7,62.5,71.7,62.5,71.7,62.5z"/>
										</g>
										<g>
											<path style="fill:#1C00CB;" d="M71.6,62C71.6,62,71.6,62,71.6,62C71.6,62,71.6,62,71.6,62z"/>
											<path d="M71.3,62.1C71.3,62.1,71.3,62.1,71.3,62.1c0-0.2,0.1-0.4,0.3-0.4c0.2,0,0.3,0.1,0.4,0.2L71.6,62L72,62L71.6,62
												L71.3,62.1z"/>
										</g>
										<g>
											<path style="fill:#1C00CB;" d="M71.6,61.8C71.6,61.8,71.6,61.8,71.6,61.8C71.6,61.8,71.6,61.8,71.6,61.8
												C71.6,61.8,71.6,61.8,71.6,61.8z"/>
											<path d="M71.6,62.2c-0.1,0-0.3-0.1-0.3-0.2c0,0,0,0,0,0l0,0l0.6-0.2l0,0C72,61.9,71.9,62.1,71.6,62.2
												C71.7,62.2,71.6,62.2,71.6,62.2z"/>
										</g>
										<g>
											<path style="fill:#FFDA23;" d="M71.6,61.8L71.6,61.8C71.6,61.8,71.6,61.8,71.6,61.8C71.6,61.8,71.6,61.8,71.6,61.8z"/>
											<path d="M71.6,62.2c-0.1,0-0.3-0.1-0.3-0.2c0,0,0,0,0,0c0,0,0,0,0,0v0c0,0,0,0,0,0c0,0,0,0,0,0l0.3-0.1l0.3-0.1
												c0,0,0,0,0,0l0,0c0,0,0,0,0,0c0,0,0,0,0,0c0.1,0.2,0,0.3-0.2,0.4C71.7,62.2,71.6,62.2,71.6,62.2z"/>
										</g>
										<g>
											<path style="fill:#FFDA23;" d="M71.6,61.9C71.6,61.9,71.6,61.9,71.6,61.9C71.6,61.9,71.6,61.9,71.6,61.9z"/>
											<path d="M71.6,62.2c-0.1,0-0.3-0.1-0.3-0.2c0,0,0-0.1,0-0.1c0-0.1,0.1-0.3,0.2-0.3c0.2-0.1,0.3,0,0.4,0.2l0,0.1
												c0,0,0,0.1,0,0.1C71.9,62.1,71.8,62.2,71.6,62.2C71.7,62.2,71.6,62.2,71.6,62.2z"/>
										</g>
										<g>
											<path style="fill:#FFDA23;" d="M71.6,61.9C71.6,62,71.6,62,71.6,61.9C71.6,62,71.6,62,71.6,61.9z"/>
											<path d="M71.6,62.3c-0.1,0-0.3-0.1-0.3-0.3l0-0.1c0,0,0-0.1,0-0.1c0-0.1,0.1-0.3,0.2-0.3c0.2,0,0.3,0.1,0.4,0.2
												c0,0,0,0.1,0,0.1c0,0,0,0,0,0.1C72,62.2,71.9,62.3,71.6,62.3C71.7,62.3,71.7,62.3,71.6,62.3z"/>
										</g>
										<g>
											<polygon style="fill:#FFDA23;" points="71.7,62.2 71.7,62.1 71.7,62.2 											"/>
											<path d="M71.3,62.3L71.3,62.3c0-0.3,0.1-0.4,0.3-0.5c0.2,0,0.3,0.1,0.4,0.3l0,0.1L71.3,62.3z"/>
										</g>
										<g>
											<path style="fill:#FFDA23;" d="M71.6,62C71.6,62.1,71.6,62.1,71.6,62C71.6,62.1,71.6,62.1,71.6,62z"/>
											<path d="M71.6,62.4c-0.2,0-0.3-0.1-0.3-0.3c0,0,0,0,0-0.1c0-0.2,0.1-0.3,0.3-0.3c0.2,0,0.3,0.1,0.4,0.2c0,0,0,0,0,0
												c0,0,0,0,0,0.1C72,62.2,71.9,62.4,71.6,62.4C71.7,62.4,71.7,62.4,71.6,62.4z"/>
										</g>
										<g>
											<path style="fill:#FFEF00;" d="M71.7,62.1c0-0.1,0-0.2,0-0.2c0,0,0,0,0,0c0,0,0,0,0,0c0,0,0,0,0-0.1c0,0,0,0,0,0
												c0,0,0,0,0,0c0,0,0,0,0,0c0,0,0,0,0,0l0,0l-2.2,0.2l-16,1.7c0,0.1,0,0.3,0,0.4l16.2-1.7L71.7,62.1L71.7,62.1z"/>
											<path d="M71.6,61.8C71.6,61.8,71.6,61.8,71.6,61.8C71.6,61.8,71.6,61.8,71.6,61.8C71.6,61.8,71.6,61.8,71.6,61.8
												C71.6,61.9,71.6,61.9,71.6,61.8C71.6,61.9,71.6,61.9,71.6,61.8C71.6,61.9,71.6,61.9,71.6,61.8
												C71.6,61.9,71.6,61.9,71.6,61.8c0,0.2,0.1,0.2,0.1,0.3l0,0.1l-2.2,0.2l-16.2,1.7c0-0.1,0-0.3,0-0.4l16-1.7L71.6,61.8
												L71.6,61.8 M71.6,61.2C71.6,61.2,71.5,61.2,71.6,61.2l-2.3,0.2l-16,1.7c-0.3,0-0.5,0.2-0.6,0.5c0,0.2-0.1,0.4,0,0.6
												c0,0.2,0.1,0.3,0.2,0.4c0.1,0.1,0.3,0.2,0.4,0.2c0,0,0,0,0.1,0l16.2-1.7l2.2-0.2c0.2,0,0.3-0.1,0.4-0.2
												c0.1-0.1,0.2-0.3,0.1-0.5l0-0.1c0-0.1,0-0.2-0.1-0.3c0,0,0-0.1,0-0.1l0,0C72.1,61.4,71.9,61.2,71.6,61.2L71.6,61.2z"/>
										</g>
									</g>
								</g>
								<defs>
									<filter id="Adobe_OpacityMaskFilter" filterUnits="userSpaceOnUse" x="52.7" y="63.7" width="3.4" height="3.2">
										<feColorMatrix  type="matrix" values="1 0 0 0 0  0 1 0 0 0  0 0 1 0 0  0 0 0 1 0"/>
									</filter>
								</defs>
								<mask maskUnits="userSpaceOnUse" x="52.7" y="63.7" width="3.4" height="3.2" id="SVGID_1_">
									<g style="filter:url(#Adobe_OpacityMaskFilter);">
										<path style="fill:#FFFFFF;" d="M68.7,60.2l-0.2-2c-0.2-1.5-1.5-2.6-2.9-2.4l-6.2,0.7c-1.4,0.2-2.5,1.5-2.3,3l0.2,2
											c0,0.3-0.2,0.6-0.5,0.7l-2.4,0.7c-0.7,0.2-1.1,0.9-1,1.6l0.3,2.5c0.1,0.8,0.8,1.4,1.6,1.3l2.8-0.3l0.9-0.1l9.7-1.1
											l0.9-0.1l2.8-0.3c0.8-0.1,1.3-0.8,1.2-1.6l-0.3-2.5c-0.1-0.7-0.7-1.3-1.4-1.3l-2.5-0.1C69,60.8,68.7,60.5,68.7,60.2z"/>
									</g>
								</mask>
								<g style="mask:url(#SVGID_1_);">
									<g>
										<g>
											<path style="fill:#FFDA23;" d="M53.3,64.4l1.1-0.1c0.5,0,0.9,0.3,0.9,0.8s-0.3,0.9-0.7,1l-1.2,0.1
												C53.3,65,53.3,64.8,53.3,64.4z"/>
											<path d="M54.6,64.3c0.4,0,0.8,0.3,0.8,0.8c0.1,0.5-0.3,0.9-0.7,1l-1.2,0.1c-0.1-1.2-0.2-1.3-0.1-1.7L54.6,64.3
												C54.5,64.3,54.5,64.3,54.6,64.3 M54.6,63.7C54.6,63.7,54.6,63.7,54.6,63.7c-0.1,0-0.1,0-0.2,0l-1.1,0.1
												c-0.3,0-0.5,0.3-0.6,0.5c-0.1,0.4,0,0.7,0,1.4l0.1,0.5c0,0.3,0.3,0.6,0.6,0.6c0,0,0,0,0.1,0l1.2-0.1
												c0.8-0.1,1.4-0.8,1.3-1.7C55.9,64.2,55.3,63.7,54.6,63.7L54.6,63.7z"/>
										</g>
									</g>
									<g>
										<path style="fill:#FF9252;" d="M53.7,65.7c-0.1-0.6,0.4-1.2,1-1.3c0.2,0,0.3,0,0.4,0c-0.2-0.1-0.4-0.2-0.6-0.2l-1.1,0.1
											c-0.1,0.4,0,0.6,0.1,1.7l0.4,0C53.7,66,53.7,65.9,53.7,65.7z"/>
									</g>
								</g>
								<defs>
									
										<filter id="Adobe_OpacityMaskFilter_00000125566968408891041300000004188333720748610746_" filterUnits="userSpaceOnUse" x="69.2" y="61.8" width="3.4" height="3.1">
										<feColorMatrix  type="matrix" values="1 0 0 0 0  0 1 0 0 0  0 0 1 0 0  0 0 0 1 0"/>
									</filter>
								</defs>
								
									<mask maskUnits="userSpaceOnUse" x="69.2" y="61.8" width="3.4" height="3.1" id="SVGID_00000030448843380232133700000015169397120538058901_">
									<g style="filter:url(#Adobe_OpacityMaskFilter_00000125566968408891041300000004188333720748610746_);">
										<path style="fill:#FFFFFF;" d="M55.8,61.6l-0.2-2c-0.1-1.5,0.9-2.9,2.3-3l6.2-0.6c1.4-0.1,2.7,1,2.9,2.5l0.2,2
											c0,0.3,0.3,0.6,0.6,0.6l2.5,0.2c0.7,0,1.3,0.6,1.3,1.3l0.3,2.5c0.1,0.8-0.5,1.5-1.3,1.6L67.9,67L67,67.1L57.3,68l-0.9,0.1
											l-2.8,0.3c-0.8,0.1-1.5-0.5-1.6-1.3l-0.3-2.5c-0.1-0.7,0.4-1.4,1.1-1.6l2.4-0.6C55.6,62.2,55.8,61.9,55.8,61.6z"/>
									</g>
								</mask>
								<g style="mask:url(#SVGID_00000030448843380232133700000015169397120538058901_);">
									<g>
										<g>
											<path style="fill:#FFDA23;" d="M71.7,62.5l-1.1,0.1c-0.5,0-0.8,0.5-0.7,1c0.1,0.5,0.5,0.8,0.9,0.8l1.2-0.1
												C71.9,63,71.9,62.9,71.7,62.5z"/>
											<path d="M71.7,62.5c0.1,0.4,0.1,0.6,0.3,1.7l-1.2,0.1c0,0-0.1,0-0.1,0c-0.4,0-0.8-0.3-0.8-0.8c-0.1-0.5,0.3-0.9,0.7-1
												L71.7,62.5 M71.7,61.8C71.7,61.8,71.7,61.8,71.7,61.8l-1.2,0.1c-0.8,0.1-1.4,0.8-1.3,1.7c0.1,0.8,0.7,1.4,1.5,1.4
												c0.1,0,0.1,0,0.2,0l1.2-0.1c0.2,0,0.3-0.1,0.4-0.2c0.1-0.1,0.2-0.3,0.1-0.5l-0.1-0.5c-0.1-0.7-0.1-1-0.3-1.4
												C72.2,62,72,61.8,71.7,61.8L71.7,61.8z"/>
										</g>
									</g>
									<g>
										<path style="fill:#FF9252;" d="M71.6,63.8c-0.1-0.6-0.6-1.1-1.2-1c-0.2,0-0.3,0.1-0.4,0.1c0.1-0.2,0.3-0.3,0.6-0.3
											l1.1-0.1c0.1,0.4,0.1,0.6,0.3,1.7l-0.4,0C71.6,64.1,71.7,64,71.6,63.8z"/>
									</g>
								</g>
							</g>
						</g>
						<g>
							<g>
								<path style="fill:#5A6E78;" d="M54.3,68.6l17.4-1.8c0.5-0.1,0.9-0.5,0.8-1v0c-0.1-0.5-0.5-0.9-1-0.8l-17.4,1.8
									c-0.5,0.1-0.9,0.5-0.8,1h0C53.3,68.3,53.8,68.7,54.3,68.6z"/>
								<path d="M54.2,68.9c-0.6,0-1.2-0.5-1.2-1.1c0-0.3,0.1-0.7,0.3-0.9c0.2-0.3,0.5-0.4,0.8-0.5l17.4-1.8c0.3,0,0.7,0.1,0.9,0.3
									c0.3,0.2,0.4,0.5,0.5,0.8c0.1,0.7-0.4,1.3-1.1,1.4l-17.4,1.8C54.3,68.9,54.2,68.9,54.2,68.9z M54.3,68.6L54.3,68.6
									L54.3,68.6z M71.6,65.3C71.5,65.3,71.5,65.3,71.6,65.3l-17.4,1.9c-0.2,0-0.3,0.1-0.4,0.2c-0.1,0.1-0.1,0.3-0.1,0.4
									c0,0.3,0.3,0.6,0.7,0.5l17.4-1.8c0.3,0,0.6-0.3,0.5-0.7c0-0.2-0.1-0.3-0.2-0.4C71.8,65.3,71.7,65.3,71.6,65.3z"/>
							</g>
						</g>
						<g>
							<path style="fill:#79E1EF;" d="M67.8,60.4c0,0-1.5-3.7-2.1-3.6l-3.9,0.4l0,0L58,57.7c-0.3,0-1.3,3.9-1.3,3.9l5.7-0.6l0,0
								l0.3,0L67.8,60.4z"/>
							<path d="M65.6,57.5c0.3,0.3,0.8,1.4,1.3,2.4l-4.1,0.4l-0.3,0c0,0,0,0,0,0l-4.8,0.5c0.3-1.1,0.6-2.2,0.8-2.6l3.5-0.4
								c0,0,0.1,0,0.1,0L65.6,57.5 M58.5,58.1L58.5,58.1L58.5,58.1 M65.7,56.8C65.7,56.8,65.7,56.8,65.7,56.8l-3.9,0.4l0,0L58,57.7
								c-0.3,0-1.3,3.9-1.3,3.9l5.7-0.6l0,0l0.3,0l5-0.5C67.8,60.4,66.3,56.8,65.7,56.8L65.7,56.8z"/>
						</g>
					</g>
				</g>
				<g id="character_00000133513282836423614460000006483017255879664560_" style="display:none;">
					<defs>
						<path id="SVGID_00000081619585554576948450000002848371415431537816_" d="M67.3,58.3c-0.1-0.9-0.9-1.6-1.8-1.5l-6.2,0.7
							c-0.9,0.1-1.5,0.9-1.4,1.8l0.2,2.1l9.3-1L67.3,58.3z"/>
					</defs>
					<clipPath id="SVGID_00000053545558442243304960000000232674721962302644_" style="display:inline;">
						<use xlink:href="#SVGID_00000081619585554576948450000002848371415431537816_"  style="overflow:visible;"/>
					</clipPath>
					
						<g id="side_00000110459081205180955870000008948947434964855425_" style="display:inline;clip-path:url(#SVGID_00000053545558442243304960000000232674721962302644_);">
						<g>
							<g>
								<path style="fill:#041F8C;" d="M60.8,62.6l0.3-0.6c0.1-0.1,0-0.2-0.1-0.3l-0.1,0c-0.1-0.1-0.2,0-0.3,0.1l-0.3,0.6l0,0
									l-0.2,0.3l0.4,0.2L60.8,62.6z"/>
								<g>
									<path d="M60.2,62.7c-0.1,0-0.2,0-0.2,0.1l0,0c0,0.1,0,0.1,0,0.2l0.4,0.2c0.1,0,0.1,0,0.1,0l0,0l0.1-0.2L60.2,62.7z"/>
								</g>
							</g>
							<g>
								<path style="fill:#041F8C;" d="M61.6,62.1l-0.5-0.5c-0.1-0.1-0.2-0.1-0.3,0l-0.1,0.1c-0.1,0.1-0.1,0.2,0,0.3l0.5,0.5v0
									l0.3,0.3l0.3-0.4L61.6,62.1z"/>
								<g>
									<path d="M61.5,62.8c0,0.1,0,0.2,0.1,0.3l0,0c0,0,0.1,0,0.2,0l0.3-0.3c0,0,0-0.1,0-0.2l0,0l-0.2-0.2L61.5,62.8z"/>
								</g>
							</g>
							<path style="fill:#0094DF;" d="M61.5,61.4c0,0.6-0.2,0.9-0.6,0.9s-0.7-0.2-0.7-0.8c0-0.6-0.1-1.2,0.6-1.3
								C61.3,60.2,61.5,60.8,61.5,61.4z"/>
							<g>
								<path style="fill:#FFFFFF;" d="M60.2,60.7c0,0,0,0.1,0,0.1c0,0,0,0.1,0,0.1l0.2-0.4l-0.1-0.2C60.3,60.5,60.2,60.6,60.2,60.7
									z"/>
								<path style="fill:#0F2C83;" d="M60.2,60.5c0,0-0.1,0.2,0,0.4l0.1,0l0.1-0.1L60.2,60.5L60.2,60.5L60.2,60.5z"/>
								<polygon style="fill:#0F2C83;" points="60.3,60.6 60.2,60.5 60.3,60.4 60.4,60.4 								"/>
								<path style="fill:#DFDFDF;" d="M60.3,60.4l0.1,0.2l0.2-0.4C60.5,60.3,60.4,60.3,60.3,60.4z"/>
							</g>
							<path style="fill:#0094DF;" d="M61.5,61c0-0.1,0-0.2-0.1-0.3c0,0,0-0.1-0.1-0.1c-0.1-0.2-0.3-0.4-0.6-0.4c0,0-0.1,0-0.1,0
								L60.2,61c0,0.1,0,0.1,0,0.2c0,0.1,0,0.1,0,0.2c0,0.1,0,0.1,0,0.2c0,0.1,0,0.2,0.1,0.3l1.3-0.1c0-0.1,0-0.2,0-0.3
								c0-0.1,0-0.1,0-0.2C61.5,61.1,61.5,61.1,61.5,61z"/>
							<g>
								<path style="fill:#FFD3A5;" d="M60.5,61.1c-0.3,0-0.8-0.1-1-0.2c-0.2-0.1-0.2-0.3-0.1-0.4c0.1-0.2,0.3-0.2,0.4-0.1
									c0.2,0.1,0.6,0.2,0.8,0.2c0.2,0,0.3,0.1,0.4,0.3c0,0.2-0.1,0.3-0.3,0.4C60.7,61.1,60.6,61.1,60.5,61.1z"/>
							</g>
							<path style="fill:#0094DF;" d="M60.3,61c0.1,0,0.3,0,0.4,0c0.1,0,0.2-0.1,0.2-0.3c0-0.1-0.1-0.2-0.3-0.2c-0.1,0-0.2,0-0.3,0
								C60.3,60.7,60.3,60.8,60.3,61z"/>
							<line style="fill:none;" x1="61" y1="59.7" x2="61" y2="59.7"/>
						</g>
						<g>
							<path style="fill:#FFD3A5;" d="M59.8,58.1c-0.1,0.1-0.1,0.1-0.2,0.3c-0.2,0.4-0.4,0.9-0.2,1.4c0.1,0.3,0.3,0.6,0.6,0.6
								c0.8,0.2,1.5-0.2,1.6-1c0-0.1,0-0.3,0-0.5c-0.1-0.5-0.3-0.9-0.7-1C60.6,57.7,60.2,57.8,59.8,58.1z"/>
							
								<ellipse transform="matrix(0.9944 -0.1058 0.1058 0.9944 -5.8393 6.8208)" style="fill:#5E2123;" cx="61.3" cy="58.4" rx="0.4" ry="0.3"/>
							<path style="fill:#333333;" d="M62,59.1c-0.1,0.6-0.3,0.9-0.6,1c-0.1,0.1-0.3,0.1-0.4,0c-0.3-0.2-0.8-0.6-0.7-1.4l0.2-0.1
								l0.7,0.1L62,59.1z"/>
							
								<ellipse transform="matrix(0.9944 -0.1058 0.1058 0.9944 -5.9214 6.646)" style="fill:#401C00;" cx="59.7" cy="59.1" rx="0.1" ry="0.2"/>
							<path style="fill:#EF8F7B;" d="M60.2,59.4c0,0.1-0.1,0.2-0.2,0.2c-0.1,0-0.2,0-0.2-0.1s0.1-0.2,0.2-0.2
								C60.1,59.2,60.2,59.3,60.2,59.4z"/>
							<g>
								<defs>
									<path id="SVGID_00000121274990622898343390000000698915286108635794_" d="M59.8,58.1c-0.1,0.1-0.1,0.1-0.2,0.3
										c-0.2,0.4-0.4,0.9-0.2,1.4c0.1,0.3,0.3,0.6,0.6,0.6c0.8,0.2,1.5-0.2,1.6-1c0-0.1,0-0.3,0-0.5c-0.1-0.5-0.3-0.9-0.7-1
										C60.6,57.7,60.2,57.8,59.8,58.1z"/>
								</defs>
								<clipPath id="SVGID_00000050641095083293801210000017369446833797742496_">
									<use xlink:href="#SVGID_00000121274990622898343390000000698915286108635794_"  style="overflow:visible;"/>
								</clipPath>
								<path style="clip-path:url(#SVGID_00000050641095083293801210000017369446833797742496_);fill:#401C00;" d="M59.4,59.9
									c-0.2,0-0.4-0.2-0.4-0.4c0-0.2,0.1-0.3,0.3-0.4c0.1,0,0.1,0,0.2,0c0,0,0.1,0,0.2,0c0.2,0,0.3,0.2,0.3,0.3
									C59.8,59.7,59.7,59.9,59.4,59.9C59.4,59.9,59.4,59.9,59.4,59.9z"/>
							</g>
							<g>
								<g>
									<path style="fill:#333333;" d="M61.1,58c0,0-0.1,0-0.1-0.1L61.1,58z"/>
									<path style="fill:#333333;" d="M62,58.8c0-0.2-0.1-0.3-0.2-0.4L61.1,58c0.3,0.2,0.6,0.6,0.6,1c0,0.2,0,0.3,0,0.5
										c0,0.1-0.1,0.3-0.1,0.4C61.9,59.7,62.1,59.2,62,58.8z"/>
								</g>
								<path style="fill:#333333;" d="M61.7,59c-0.1-0.5-0.3-0.9-0.7-1c-0.4-0.2-0.8-0.1-1.1,0.2c-0.1,0.1-0.1,0.1-0.2,0.3
									c-0.1,0.1-0.1,0.3-0.2,0.4c0.1,0,0.3,0,0.4-0.1c0.1,0.1,0.2,0.1,0.3,0.1c0.1,0,0.2,0,0.2-0.1c0,0,0,0,0,0
									c0,0.2,0.1,0.4,0.3,0.4c0.1,0.4,0.4,0.7,0.8,0.7c0,0,0.1,0,0.1,0c0.1-0.1,0.1-0.2,0.1-0.4C61.7,59.3,61.7,59.1,61.7,59z"/>
							</g>
							
								<ellipse transform="matrix(0.994 -0.109 0.109 0.994 -6.1068 6.9796)" style="fill:#FFD3A5;" cx="60.8" cy="59.3" rx="0.4" ry="0.5"/>
							<g>
								<path style="fill:#FFAD7B;" d="M61,59.3c0-0.2-0.1-0.3-0.3-0.3c0,0-0.1,0-0.1,0c0,0.1,0,0.3,0.1,0.6c0,0,0,0,0.1,0
									C60.9,59.6,61,59.5,61,59.3z"/>
							</g>
							<g>
								<g>
									<path style="fill:#041F8C;" d="M61.4,58.4c0,0-1.1,0.1-1.8-0.2c0,0-0.2-0.1-0.1-0.2c0.1-0.1,0.4-0.1,0.4-0.1l0.6,0
										L61.4,58.4z"/>
									<path style="fill:#969696;" d="M60,57.8C60,57.8,60,57.8,60,57.8l0.6,0l0.8,0.6c0,0-0.1,0-0.4,0c-0.4,0-1,0-1.4-0.2
										c0,0-0.2-0.1-0.1-0.2C59.7,57.8,59.9,57.8,60,57.8 M60,57.2c-0.4,0-0.7,0.1-0.9,0.4c-0.1,0.2-0.2,0.4-0.2,0.6
										c0,0.3,0.3,0.5,0.4,0.6c0,0,0.1,0,0.1,0.1c0.5,0.2,1.2,0.3,1.7,0.3c0.2,0,0.4,0,0.4,0c0.3,0,0.5-0.2,0.6-0.5s0-0.5-0.3-0.7
										L61,57.3c-0.1-0.1-0.2-0.1-0.4-0.1L60,57.2C60,57.2,60,57.2,60,57.2L60,57.2z"/>
								</g>
								<g id="XMLID_00000068657201006792195960000012117106350492265656_">
									<g>
										<path d="M62.3,58.2c0.1,0,0.1,0.1,0.1,0.2l-0.1,0.2c0,0,0,0-0.1,0L62,58.4l0,0l-1.7-0.8l0,0L60,57.5c0,0,0,0,0,0l0.1-0.2
											c0,0,0-0.1,0.1-0.1c0,0,0.1,0,0.1,0L62.3,58.2z"/>
										<path d="M62.3,58.5c0,0,0,0.1,0,0.1c0,0-0.1,0.1-0.1,0.1c0,0,0,0,0-0.1L62.3,58.5z"/>
										<path d="M62,58.5l0.1-0.1l0.2,0.1c0,0,0,0,0.1,0l-0.1,0.2c0,0,0,0,0,0.1c0,0,0,0,0,0c0,0,0,0-0.1,0l-2.1-1l0-0.1l0.2,0.1
											l0,0L62,58.5L62,58.5z"/>
										<path d="M62.1,58.7C62.1,58.7,62.1,58.7,62.1,58.7c0,0-0.1,0.1-0.2,0.1c0,0-0.1,0-0.1,0L60,57.9c-0.1,0-0.1-0.1-0.1-0.2
											l0-0.1L62.1,58.7C62.1,58.7,62.1,58.7,62.1,58.7z"/>
										<polygon points="62,58.4 62,58.5 60.2,57.7 60.3,57.6 										"/>
										<polygon points="62,58.5 62,58.5 60.2,57.8 60.2,57.7 										"/>
										<polygon points="60.3,57.6 60.2,57.7 60,57.6 60,57.5 60,57.5 										"/>
										<path d="M60,57.6l0,0.1l0,0c-0.1,0-0.1-0.1-0.1-0.2c0-0.1,0.1-0.1,0.2-0.1L60,57.6z"/>
									</g>
									<g>
									</g>
								</g>
								<path style="fill:#041F8C;" d="M60.2,57.4c-0.1-0.1-0.1-0.2-0.1-0.2c0-0.1,0-0.2,0-0.3c0.1-0.1,0.3-0.1,0.4-0.1
									c0.3,0,0.5,0.1,0.7,0.3c0.1,0.2,0.2,0.3,0.4,0.4c0.2,0.2,0.4,0.3,0.6,0.4c0.1,0,0.2,0.1,0.2,0.1c0.2,0.2-0.1,0.4-0.3,0.5
									c0,0,0,0,0,0c-0.2-0.1-0.4-0.2-0.6-0.3c-0.3-0.2-0.6-0.3-0.9-0.5c-0.1-0.1-0.2-0.1-0.3-0.2C60.3,57.4,60.3,57.4,60.2,57.4
									C60.2,57.4,60.2,57.4,60.2,57.4z"/>
							</g>
						</g>
					</g>
					
						<g id="front_00000012433046353550102550000005671799705952237466_" style="display:inline;clip-path:url(#SVGID_00000053545558442243304960000000232674721962302644_);">
						<g id="arm_x5F_01_x5F_R_x5F_1_00000096023480278009620140000017063735125802314144_">
							<path style="fill:#0094DF;" d="M60.9,60.5C60.9,60.5,60.9,60.5,60.9,60.5c-0.1,0.1-0.1,0.3,0,0.3c0.1,0.1,0.2,0.2,0.3,0.3
								c0.1,0.1,0.2,0.1,0.3,0.1c0.1-0.1,0.1-0.2,0.1-0.3c-0.1-0.2-0.2-0.3-0.4-0.4C61.1,60.4,61,60.4,60.9,60.5z"/>
						</g>
						<g id="arm_x5F_01_x5F_R_x5F_2_00000012470084765980163190000000689806716497737362_">
							<path style="fill:#0094DF;" d="M61.2,60.8c-0.1,0.1-0.1,0.2,0,0.3c0.1,0.1,0.1,0.2,0.1,0.3c0,0.1,0,0.2,0,0.3
								c0,0.1,0.1,0.2,0.2,0.2c0.1,0,0.2-0.1,0.2-0.2c0-0.2,0-0.3,0-0.4c0-0.1-0.1-0.3-0.2-0.4C61.5,60.7,61.4,60.7,61.2,60.8
								C61.2,60.8,61.2,60.8,61.2,60.8z"/>
							<path style="fill:#FFD4A6;" d="M61.4,61.7c0,0.1,0.1,0.2,0.2,0.2c0.1,0,0.2-0.1,0.2-0.2c0-0.2,0-0.4-0.1-0.6
								c-0.1,0-0.2,0.1-0.4,0.2C61.3,61.3,61.4,61.5,61.4,61.7z"/>
						</g>
						<g id="arm_x5F_L_x5F_thumbsup_00000072273028935703269240000018076709555915508924_">
							<g id="arm_x5F_R_x5F_01_00000119821937139444608280000001895623786322224292_">
								<g>
									<path style="fill:#FFD4A6;" d="M59.8,61.1c-0.1,0-0.2-0.1-0.2-0.2c0-0.1,0.1-0.2,0.2-0.2c0.1,0,0.2-0.1,0.3-0.1
										c0.1-0.1,0.2-0.1,0.3,0c0.1,0.1,0.1,0.2,0,0.3C60.3,61,60.1,61.1,59.8,61.1C59.8,61.1,59.8,61.1,59.8,61.1z"/>
								</g>
								<g>
									<path style="fill:#FFD4A6;" d="M59.6,61.1c-0.2,0-0.3-0.1-0.5-0.4c-0.1-0.1,0-0.2,0.1-0.3c0.1-0.1,0.2,0,0.3,0.1
										c0.1,0.2,0.2,0.2,0.4,0.2l0,0c0.1,0,0.2,0.1,0.2,0.2c0,0.1-0.1,0.2-0.2,0.2l0,0C59.8,61.1,59.7,61.1,59.6,61.1z"/>
								</g>
								<g>
									<g>
										<g>
											<path style="fill:#0094DF;" d="M59.9,60.7c0.1,0,0.2-0.1,0.2-0.1c0.1-0.1,0.2-0.1,0.3,0c0.1,0.1,0.1,0.2,0,0.3
												c-0.1,0.1-0.1,0.1-0.2,0.2c-0.1,0.1-0.2,0.1-0.2,0.1C59.9,61,59.9,60.8,59.9,60.7z"/>
										</g>
									</g>
								</g>
							</g>
							<g>
								<path style="fill:#FFD4A6;" d="M59.5,60.5c0,0.1-0.1,0.1-0.1,0.1s0-0.1,0-0.2c0-0.1,0.1-0.1,0.1-0.1S59.5,60.5,59.5,60.5z"
									/>
							</g>
						</g>
						<g id="leg_x5F_R_00000083057071455306191540000005003631387602950305_">
							
								<rect x="60.8" y="61.9" transform="matrix(-0.9944 0.1058 -0.1058 -0.9944 128.3035 117.3801)" style="fill:#041F8C;" width="0.5" height="0.4"/>
							<polygon style="fill:#041F8C;" points="60.9,62.7 60.8,62.3 61.3,62.3 61.3,62.6 60.9,62.7 							"/>
							<path d="M61.3,62.6c0.1,0,0.2,0.1,0.2,0.2l0,0c0,0.1,0,0.1-0.1,0.1l-0.4,0c-0.1,0-0.1,0-0.1-0.1l0,0l0-0.2L61.3,62.6z"/>
						</g>
						<g id="leg_x5F_L_00000083087279231943572410000017306844296698087347_">
							
								<rect x="60.3" y="61.9" transform="matrix(0.9944 -0.1058 0.1058 0.9944 -6.2379 6.7556)" style="fill:#041F8C;" width="0.5" height="0.4"/>
							<polygon style="fill:#041F8C;" points="60.8,62.7 60.8,62.3 60.3,62.4 60.4,62.7 60.8,62.7 							"/>
							<path d="M60.4,62.7c-0.1,0-0.1,0.1-0.1,0.2l0,0c0,0.1,0.1,0.1,0.1,0.1l0.4,0c0.1,0,0.1-0.1,0.1-0.1l0,0l0-0.2L60.4,62.7z"/>
						</g>
						<g id="body_00000084523937992212201570000010338127370429907104_">
							<path style="fill:#0094DF;" d="M60.3,62.1c-0.2-0.5-0.3-1.1-0.2-1.6c0,0,0-0.1,0.1-0.1c0.1,0,0.2-0.1,0.4-0.1l0.1,0l0.2,1.7
								L60.3,62.1z"/>
							<path style="fill:#0094DF;" d="M61.2,62c0.1-0.5,0.1-1.2-0.1-1.6c0,0,0,0-0.1-0.1c-0.1,0-0.2,0-0.4,0l-0.1,0l0.2,1.7L61.2,62
								z"/>
							<path style="fill:#FFFFFF;" d="M60.7,61C60.7,60.9,60.8,60.9,60.7,61c0.1-0.2,0.2-0.6,0.2-0.6l-0.7,0c0,0,0.2,0.4,0.3,0.5
								C60.6,60.9,60.7,61,60.7,61L60.7,61L60.7,61z"/>
							<path style="fill:#0F2C83;" d="M60.7,60.7L60.7,60.7c-0.1-0.1,0-0.1,0-0.1l0-0.1l0,0l0,0c0,0,0,0,0,0l-0.1,0c0,0,0,0,0,0
								l0,0.1l0,0.1c0,0,0,0,0,0l0,0.1c0,0,0,0.1,0,0.1l0,0.1c0,0,0,0,0,0l0.1,0l0,0c0,0,0,0,0,0c0,0,0,0,0,0l0,0l0,0l0,0
								c0,0,0,0,0-0.1L60.7,60.7C60.8,60.8,60.7,60.7,60.7,60.7z"/>
							<path style="fill:#DADADA;" d="M60.6,60.4C60.6,60.4,60.6,60.4,60.6,60.4c0,0-0.3,0-0.3,0c0,0,0,0,0,0l0.1,0.1l0.1,0.1l0,0
								c0,0,0,0,0,0C60.5,60.7,60.6,60.5,60.6,60.4C60.6,60.5,60.6,60.5,60.6,60.4z"/>
							<path style="fill:#DADADA;" d="M60.7,60.4C60.7,60.4,60.7,60.4,60.7,60.4c0,0,0.3-0.1,0.3-0.1c0,0,0,0,0,0l-0.1,0.3
								c0,0,0,0,0,0C60.8,60.6,60.7,60.5,60.7,60.4C60.7,60.4,60.7,60.4,60.7,60.4z"/>
							<path style="fill:#0F2C83;" d="M60.3,61L60.3,61c-0.1,0-0.2,0-0.2,0l0,0c0,0,0-0.1,0-0.1l0.1,0C60.3,60.9,60.4,60.9,60.3,61
								L60.3,61C60.4,61,60.4,61,60.3,61z"/>
						</g>
						<g id="head_00000144332411547266431890000008525988896900970140_">
							
								<ellipse transform="matrix(0.9998 -2.224420e-02 2.224420e-02 0.9998 -1.3107 1.3345)" style="fill:#FFD4A6;" cx="59.3" cy="59.6" rx="0.5" ry="0.5"/>
							
								<ellipse transform="matrix(0.9998 -2.223934e-02 2.223934e-02 0.9998 -1.3104 1.3342)" style="fill:#FFAE7C;" cx="59.3" cy="59.6" rx="0.3" ry="0.3"/>
							
								<ellipse transform="matrix(0.9799 -0.1997 0.1997 0.9799 -10.6058 13.5135)" style="fill:#FFD4A6;" cx="61.7" cy="59.3" rx="0.5" ry="0.5"/>
							
								<ellipse transform="matrix(0.9998 -2.200421e-02 2.200421e-02 0.9998 -1.2907 1.3718)" style="fill:#FFAE7C;" cx="61.7" cy="59.3" rx="0.3" ry="0.3"/>
							
								<ellipse id="Head_00000163031485069861043230000001094191690901059981_" transform="matrix(0.9947 -0.1024 0.1024 0.9947 -5.7514 6.5042)" style="fill:#FFD4A6;" cx="60.5" cy="59.3" rx="1.3" ry="1.2"/>
							<path style="fill:#333333;" d="M61.8,58.8c-0.3,0.2-0.6,0-0.7-0.2l0.1-0.1l0.4,0.1L61.8,58.8z"/>
							<g>
								<path style="fill:#333333;" d="M60.4,58.1c-0.6,0.1-1,0.5-1.1,1c0.4,0.1,0.5-0.1,0.6-0.3c0.2,0.1,0.4,0.1,0.6-0.1
									c0.2,0.1,0.4,0.1,0.6,0c0.2,0.1,0.4,0.1,0.6,0C61.4,58.3,60.9,58,60.4,58.1z"/>
							</g>
						</g>
						<g id="cheek_00000049193347837752645020000016518307892210397069_">
							<path id="Cheek_x5F_R_00000136406990926653860290000005017266806179592867_" style="fill:#F0907B;" d="M60.1,59.5
								c0,0.1-0.1,0.2-0.2,0.2c-0.1,0-0.2,0-0.2-0.1c0-0.1,0.1-0.2,0.2-0.2C60,59.3,60.1,59.4,60.1,59.5z"/>
							<path id="Cheek_x5F_L_00000161592461277227023270000015370867329691657146_" style="fill:#F0907B;" d="M61.3,59.4
								c0,0.1-0.1,0.2-0.2,0.2c-0.1,0-0.2,0-0.2-0.1s0.1-0.2,0.2-0.2C61.2,59.2,61.3,59.3,61.3,59.4z"/>
						</g>
						<g id="eye_x5F_03_x5F_R_00000089576467601002469100000003137712390781691793_">
							<path style="fill:#333333;" d="M60.7,59.6c-0.2,0-0.3-0.1-0.3-0.3c0-0.2,0.2-0.5,0.4-0.5c0.2,0,0.5,0.2,0.5,0.4
								c0,0.2-0.1,0.3-0.3,0.4c0,0-0.1,0-0.1,0C60.8,59.5,60.7,59.5,60.7,59.6C60.7,59.5,60.7,59.6,60.7,59.6z"/>
						</g>
						<g id="eye_x5F_03_x5F_L_00000070093381865072132760000015555885134073580693_">
							<path style="fill:#333333;" d="M60.1,59.6c-0.2,0-0.3-0.1-0.3-0.3c0-0.1,0-0.2,0.1-0.3c0.1-0.1,0.2-0.2,0.3-0.2
								c0.1,0,0.2,0,0.3,0.1c0.1,0.1,0.2,0.2,0.2,0.3c0,0.2-0.1,0.3-0.3,0.4c0,0-0.1,0-0.1,0C60.2,59.6,60.2,59.6,60.1,59.6
								C60.1,59.6,60.1,59.6,60.1,59.6z"/>
						</g>
						<g id="mouth_x5F_03_00000102509482364071647610000002558644706296211091_">
							<g id="Mouth_00000075885556020954220350000002941082696832664961_">
								<g>
									<path d="M60.8,59.4c0,0,0,0.1,0,0.1c0,0.1,0,0.1-0.1,0.2c0,0,0-0.1-0.1-0.1C60.8,59.5,60.8,59.5,60.8,59.4
										c-0.1,0.1-0.1,0-0.1,0c0,0,0,0-0.1,0c0,0-0.1,0-0.1,0c0,0,0,0,0,0c0,0-0.1,0-0.1,0c0,0-0.1,0-0.1,0c0,0,0,0,0,0
										c0,0,0,0.1,0,0.1c0,0,0,0.1,0,0.1c0,0,0,0,0,0c-0.1-0.1-0.1-0.2-0.1-0.3c0.1-0.1,0.2-0.1,0.2,0c0,0,0.1,0,0.1,0
										c0,0,0,0,0.1,0C60.6,59.4,60.7,59.3,60.8,59.4z"/>
									<path d="M60.8,59.6C60.8,59.7,60.8,59.7,60.8,59.6c0,0.1,0,0.2,0,0.2c0,0.1-0.1,0.1-0.2,0.1c0,0,0,0,0,0
										c-0.1,0-0.1,0-0.2,0c-0.1,0-0.1-0.1-0.1-0.2c0,0,0,0,0-0.1c0,0,0,0,0,0c0,0,0,0,0,0c0,0.1,0.1,0.2,0.3,0.2
										C60.7,59.9,60.8,59.8,60.8,59.6C60.8,59.7,60.8,59.7,60.8,59.6C60.8,59.7,60.8,59.7,60.8,59.6
										C60.8,59.6,60.8,59.6,60.8,59.6z"/>
									<path d="M60.8,59.6C60.8,59.6,60.8,59.6,60.8,59.6C60.8,59.7,60.8,59.7,60.8,59.6C60.8,59.6,60.7,59.6,60.8,59.6
										C60.7,59.6,60.7,59.6,60.8,59.6C60.7,59.6,60.7,59.6,60.8,59.6C60.8,59.6,60.8,59.6,60.8,59.6z"/>
									<path d="M60.8,59.7C60.8,59.7,60.8,59.7,60.8,59.7c0,0.1-0.1,0.2-0.2,0.2c-0.1,0-0.2-0.1-0.3-0.2c0,0,0,0,0,0c0,0,0,0,0,0
										c0,0,0,0,0,0c0,0,0,0.1,0.1,0.1c0,0,0.1,0,0.1,0c0.1,0,0.1,0,0.1-0.1C60.7,59.8,60.7,59.8,60.8,59.7
										C60.7,59.7,60.7,59.7,60.8,59.7C60.7,59.7,60.8,59.7,60.8,59.7z"/>
									<path d="M60.8,59.7C60.8,59.7,60.7,59.7,60.8,59.7C60.7,59.7,60.7,59.6,60.8,59.7C60.7,59.6,60.7,59.6,60.8,59.7
										C60.7,59.6,60.8,59.6,60.8,59.7z"/>
									<path d="M60.7,59.6C60.7,59.6,60.7,59.6,60.7,59.6C60.7,59.6,60.7,59.6,60.7,59.6c-0.1,0-0.1,0-0.2,0s-0.1,0-0.2,0.1
										c0,0,0,0,0,0c0,0,0,0,0,0c0,0,0,0,0,0c0-0.1,0.1-0.1,0.2-0.1c0,0,0,0,0,0C60.6,59.5,60.7,59.5,60.7,59.6
										C60.7,59.6,60.7,59.6,60.7,59.6z"/>
									<path d="M60.7,59.6C60.7,59.6,60.7,59.7,60.7,59.6c0,0.1,0,0.1,0,0.1c0,0-0.1,0-0.1,0c0,0,0,0-0.1,0c0,0,0,0-0.1,0
										c0,0-0.1,0-0.1,0c0,0,0-0.1,0-0.1c0,0,0,0,0,0c0,0,0,0,0,0c0,0,0.1,0,0.1,0C60.6,59.7,60.6,59.7,60.7,59.6
										C60.6,59.6,60.7,59.6,60.7,59.6z"/>
									<path d="M60.5,59.5c0.1,0,0.1,0,0.2,0.1c0,0,0,0,0,0c0,0,0,0,0,0C60.6,59.6,60.6,59.6,60.5,59.5
										C60.5,59.6,60.5,59.6,60.5,59.5c-0.1,0.1-0.1,0.1-0.1,0.1c0,0,0,0,0,0C60.4,59.6,60.4,59.6,60.5,59.5z"/>
									<path d="M60.4,59.7C60.4,59.7,60.4,59.7,60.4,59.7C60.4,59.7,60.3,59.7,60.4,59.7C60.3,59.7,60.3,59.7,60.4,59.7
										C60.3,59.7,60.3,59.7,60.4,59.7C60.4,59.6,60.4,59.7,60.4,59.7z"/>
									<path d="M60.3,59.6C60.3,59.6,60.3,59.6,60.3,59.6C60.3,59.7,60.3,59.7,60.3,59.6C60.3,59.7,60.3,59.7,60.3,59.6
										C60.3,59.7,60.3,59.6,60.3,59.6C60.3,59.6,60.3,59.6,60.3,59.6z"/>
								</g>
								<g>
								</g>
							</g>
						</g>
						<g id="hat_00000066509887990505285400000018072530966318411183_">
							<g>
								<path style="fill:#041F8C;" d="M61.4,57.1c-0.1,0-0.6,0.3-1,0.4c0,0,0,0,0,0c0,0,0,0,0,0c-0.5,0.1-1-0.1-1.1-0.1
									c-0.1,0-0.3,0-0.3,0.3c0,0.1,0.1,0.2,0.1,0.3c0.1,0.1,0.2,0.1,0.3,0.1l1,0c0,0,0.1,0,0.1,0l1-0.2c0.1,0,0.2-0.1,0.3-0.2
									c0.1-0.1,0.1-0.2,0.1-0.3C61.7,57,61.5,57.1,61.4,57.1z"/>
								<g>
									<path style="fill:#041F8C;" d="M60.4,58.2c-0.4,0-1.2,0-1.1,0.3c0,0.1,0.1,0.3,0.2,0.3c0.1,0.1,0.3,0.1,0.4,0.1
										c0.2,0,0.5,0,0.7-0.1c0.2,0,0.3-0.1,0.5-0.1c0.1-0.1,0.2-0.2,0.3-0.3c0-0.1,0-0.1,0-0.2C61.5,57.9,60.8,58.1,60.4,58.2z"/>
									<path style="fill:#969696;" d="M61.2,58.1c0.2,0,0.3,0,0.3,0.2c0,0.1,0,0.1,0,0.2c-0.1,0.1-0.2,0.2-0.3,0.3
										c-0.2,0.1-0.3,0.1-0.5,0.1c-0.2,0-0.4,0.1-0.6,0.1c0,0-0.1,0-0.1,0c-0.2,0-0.3,0-0.4-0.1c-0.1-0.1-0.2-0.2-0.2-0.3
										c-0.1-0.2,0.3-0.3,0.7-0.3c0.1,0,0.3,0,0.4,0C60.6,58.1,60.9,58.1,61.2,58.1 M61.2,57.4c-0.2,0-0.5,0.1-0.9,0.1
										c-0.1,0-0.2,0-0.3,0c-0.4,0-0.9,0-1.2,0.4c-0.2,0.2-0.2,0.5-0.1,0.7c0.1,0.3,0.3,0.6,0.6,0.7c0.3,0.1,0.5,0.2,0.7,0.2
										c0,0,0.1,0,0.1,0c0.2,0,0.4,0,0.7-0.1c0.2,0,0.4-0.1,0.7-0.2c0.3-0.1,0.5-0.4,0.6-0.6c0-0.1,0.1-0.2,0.1-0.4
										c0-0.2-0.1-0.4-0.2-0.6C61.7,57.5,61.5,57.4,61.2,57.4L61.2,57.4z"/>
								</g>
								<path style="fill:#FFA800;" d="M59.3,58.2l0,0.2c0,0,1.3,0.1,2.1-0.2c0-0.1,0-0.2,0-0.2L59.3,58.2z"/>
								<path style="fill:#E3E3E3;" d="M59.3,58l0,0.2c0,0,1.3,0.1,2.1-0.2c0-0.1,0-0.2,0-0.2L59.3,58z"/>
							</g>
							<g>
								<g>
									<g>
										<polygon style="fill:#FFBB00;" points="60.6,58.1 60.7,58.1 60.7,57.9 60.6,57.8 60.5,57.9 60.4,57.8 60.5,57.8 
											60.3,57.7 60.2,57.8 60.2,57.8 60.2,57.9 60.1,57.9 60,58 60.1,58.2 60.1,58.1 60.2,58.2 60.1,58.3 60.2,58.4 60.3,58.4 
											60.3,58.3 60.4,58.3 60.5,58.4 60.6,58.4 60.7,58.2 60.6,58.2 										"/>
										<path style="fill:#F2F2F2;" d="M60.3,57.7l0.1,0.1l0,0.1l0.1,0.1l0-0.1l0.2,0.1l0,0.2l-0.1,0l0,0.1l0.1,0l0,0.2l-0.2,0
											l0-0.1l-0.1,0l0,0.1l-0.2,0l-0.1-0.1l0.1,0l0-0.1l-0.1,0L60,58l0.1-0.1l0,0l0.1-0.1l0,0L60.3,57.7 M60.3,57
											c-0.2,0-0.3,0.1-0.4,0.2l-0.1,0.1c0,0,0,0,0,0c0,0,0,0,0,0l-0.1,0.1c-0.2,0.2-0.3,0.5-0.1,0.7l0.1,0.2c0,0,0,0,0,0.1
											c0,0,0,0,0,0.1l0.1,0.1c0.1,0.2,0.3,0.4,0.6,0.4c0,0,0,0,0.1,0l0.2,0c0,0,0,0,0.1,0c0,0,0,0,0.1,0l0.2,0
											c0.3,0,0.5-0.2,0.6-0.5l0-0.2c0,0,0,0,0-0.1c0,0,0,0,0-0.1l0-0.2c0.1-0.3-0.1-0.5-0.3-0.7l-0.2-0.1c0,0,0,0,0,0
											c0,0,0,0,0,0l-0.1-0.1C60.5,57.1,60.4,57,60.3,57L60.3,57z"/>
									</g>
								</g>
								<g>
									<path style="fill:#0E2C8B;" d="M60.4,58c-0.1,0-0.1,0.1-0.1,0.1c0,0.1,0,0.1-0.1,0.1c-0.1,0-0.1,0-0.1-0.1
										c0,0.1,0.1,0.2,0.2,0.2s0.2-0.1,0.2-0.2C60.5,58,60.5,58,60.4,58z"/>
									<path style="fill:#CE0023;" d="M60.3,57.9c-0.1,0-0.2,0.1-0.2,0.2c0,0.1,0.1,0.1,0.1,0.1c0.1,0,0.1-0.1,0.1-0.1
										c0-0.1,0-0.1,0.1-0.1c0.1,0,0.1,0,0.1,0.1C60.5,57.9,60.4,57.9,60.3,57.9z"/>
								</g>
							</g>
						</g>
					</g>
				</g>
				<g id="window_00000139973172425815932040000017494882811893961914_" style="display:none;">
					<defs>
						<path id="SVGID_00000176738781946437743030000017605636499011648927_" d="M59.4,57.5c-0.9,0.1-1.5,0.9-1.4,1.8l0.2,2.1
							l4.2-0.4L62,57.2L59.4,57.5z"/>
					</defs>
					<clipPath id="SVGID_00000121279740873769111410000001279374935548269193_" style="display:inline;">
						<use xlink:href="#SVGID_00000176738781946437743030000017605636499011648927_"  style="overflow:visible;"/>
					</clipPath>
					<g style="display:inline;clip-path:url(#SVGID_00000121279740873769111410000001279374935548269193_);">
						
							<rect x="57.2" y="61" transform="matrix(0.9944 -0.1058 0.1058 0.9944 -6.3604 6.703)" style="fill:#AAFFFB;" width="5.6" height="4.6"/>
						<path style="fill:#DDFFFF;" d="M59.5,61c-0.7,0.8-1.9,2-2.3,2.6l0.2,2.2l4-5L59.5,61z"/>
					</g>
				</g>
			</g>
		</g>
		<g>
			<defs>
				<path id="SVGID_00000024694915772121042660000005995168198610902711_" d="M67.8,60.4c0,0-1.5-3.7-2.1-3.6l-3.9,0.4l0,0L58,57.7
					c-0.3,0-1.3,3.9-1.3,3.9l5.7-0.6l0,0l0.3,0L67.8,60.4z"/>
			</defs>
			<clipPath id="SVGID_00000106115372010763652720000013278933087927350409_">
				<use xlink:href="#SVGID_00000024694915772121042660000005995168198610902711_"  style="overflow:visible;"/>
			</clipPath>
			<g style="clip-path:url(#SVGID_00000106115372010763652720000013278933087927350409_);">
				
					<rect x="64.1" y="56.8" transform="matrix(0.9944 -0.1058 0.1058 0.9944 -5.8603 7.1406)" style="fill:#D1D1D1;" width="0.5" height="3.9"/>
				<path d="M64.3,61.1c-0.2,0-0.3-0.1-0.3-0.3l-0.4-3.9c0-0.1,0-0.2,0.1-0.2c0.1-0.1,0.1-0.1,0.2-0.1l0.5-0.1
					c0.2,0,0.3,0.1,0.4,0.3l0.4,3.9c0,0.1,0,0.2-0.1,0.2C65,61,64.9,61,64.8,61L64.3,61.1C64.3,61.1,64.3,61.1,64.3,61.1z"/>
			</g>
			<g style="clip-path:url(#SVGID_00000106115372010763652720000013278933087927350409_);">
				
					<rect x="66.4" y="56.6" transform="matrix(0.9944 -0.1058 0.1058 0.9944 -5.8221 7.3788)" style="fill:#D1D1D1;" width="0.5" height="3.9"/>
				<path d="M66.6,60.9c-0.1,0-0.1,0-0.2-0.1c-0.1-0.1-0.1-0.1-0.1-0.2l-0.4-3.9c0-0.1,0-0.2,0.1-0.2c0.1-0.1,0.1-0.1,0.2-0.1
					l0.5-0.1c0.2,0,0.3,0.1,0.4,0.3l0.4,3.9c0,0.2-0.1,0.3-0.3,0.4L66.6,60.9C66.6,60.9,66.6,60.9,66.6,60.9z"/>
			</g>
			<g style="clip-path:url(#SVGID_00000106115372010763652720000013278933087927350409_);">
				
					<rect x="59.9" y="57.3" transform="matrix(0.9944 -0.1058 0.1058 0.9944 -5.9321 6.6931)" style="fill:#D1D1D1;" width="0.5" height="3.9"/>
				<path d="M60.1,61.5c-0.2,0-0.3-0.1-0.3-0.3l-0.4-3.9c0-0.1,0-0.2,0.1-0.2c0.1-0.1,0.1-0.1,0.2-0.1l0.5-0.1
					c0.2,0,0.3,0.1,0.4,0.3l0.4,3.9c0,0.1,0,0.2-0.1,0.2c-0.1,0.1-0.1,0.1-0.2,0.1L60.1,61.5C60.1,61.5,60.1,61.5,60.1,61.5z"/>
			</g>
			<g style="clip-path:url(#SVGID_00000106115372010763652720000013278933087927350409_);">
				
					<rect x="57.4" y="57.5" transform="matrix(0.9944 -0.1058 0.1058 0.9944 -5.974 6.4323)" style="fill:#D1D1D1;" width="0.5" height="3.9"/>
				<path d="M57.6,61.8c-0.1,0-0.1,0-0.2-0.1c-0.1-0.1-0.1-0.1-0.1-0.2l-0.4-3.9c0-0.1,0-0.2,0.1-0.2c0.1-0.1,0.1-0.1,0.2-0.1
					l0.5-0.1c0.2,0,0.3,0.1,0.4,0.3l0.4,3.9c0,0.2-0.1,0.3-0.3,0.4L57.6,61.8C57.6,61.8,57.6,61.8,57.6,61.8z"/>
			</g>
			
				<polygon style="opacity:0.43;clip-path:url(#SVGID_00000106115372010763652720000013278933087927350409_);fill:#FFFFFF;" points="
				64.8,61.2 63.5,61.3 61.6,56.6 62.9,56.5 			"/>
			
				<polygon style="opacity:0.43;clip-path:url(#SVGID_00000106115372010763652720000013278933087927350409_);fill:#FFFFFF;" points="
				65.9,61.1 65.2,61.2 63.3,56.4 64,56.4 			"/>
			
				<polygon style="opacity:0.43;clip-path:url(#SVGID_00000106115372010763652720000013278933087927350409_);fill:#FFFFFF;" points="
				61.6,61.6 59.4,61.8 57.5,57.1 59.7,56.8 			"/>
		</g>
		<path style="fill:#AAFFFB;" d="M64.1,58.5"/>
		<path d="M65.6,57.5c0.3,0.3,0.8,1.4,1.3,2.4l-4.1,0.4l-0.3,0c0,0,0,0,0,0l-4.8,0.5c0.3-1.1,0.6-2.2,0.8-2.6l3.5-0.4
			c0,0,0.1,0,0.1,0L65.6,57.5 M58.5,58.1L58.5,58.1L58.5,58.1 M65.7,56.8C65.7,56.8,65.7,56.8,65.7,56.8l-3.9,0.4l0,0L58,57.7
			c-0.3,0-1.3,3.9-1.3,3.9l5.7-0.6l0,0l0.3,0l5-0.5C67.8,60.4,66.3,56.8,65.7,56.8L65.7,56.8z"/>
		<g>
			<polygon style="fill:#383838;" points="56.8,61.2 67.6,60.1 67.7,60.4 56.7,61.6 			"/>
			<path d="M56.7,61.9c-0.1,0-0.2,0-0.2-0.1c-0.1-0.1-0.1-0.2-0.1-0.3l0.1-0.4c0-0.1,0.1-0.2,0.3-0.3l10.8-1.1
				c0.1,0,0.3,0.1,0.3,0.2l0.1,0.3c0,0.1,0,0.2,0,0.3c-0.1,0.1-0.1,0.1-0.2,0.2L56.7,61.9C56.8,61.9,56.8,61.9,56.7,61.9z"/>
		</g>
		
			<path style="fill:#311CFF;stroke:#000000;stroke-width:1.2;stroke-linecap:round;stroke-linejoin:round;stroke-miterlimit:10;" d="
			M69.3,60.5"/>
		<g>
			<path style="fill:#311CFF;" d="M68.8,60.3l-13.5,1.4c-0.1,0.2-1.9,1.7-1.9,2l18.2-1.9C71.6,61.5,68.9,60.5,68.8,60.3z"/>
			<path d="M68.8,60.3c0.1,0.1,2.8,1.2,2.8,1.5l-18.2,1.9c0.1-0.3,1.9-1.8,1.9-2L68.8,60.3 M68.8,59.7
				C68.8,59.7,68.7,59.7,68.8,59.7l-13.6,1.4c-0.2,0-0.4,0.1-0.5,0.3c-0.1,0.1-0.4,0.4-0.6,0.6c-1,0.9-1.3,1.2-1.4,1.6
				c0,0.2,0,0.4,0.1,0.6c0.1,0.1,0.3,0.2,0.5,0.2c0,0,0,0,0.1,0l18.2-1.9c0.2,0,0.3-0.1,0.4-0.2s0.2-0.3,0.1-0.5
				c-0.1-0.5-0.5-0.8-2.4-1.6c-0.3-0.1-0.6-0.3-0.7-0.3C69.1,59.7,68.9,59.7,68.8,59.7L68.8,59.7z"/>
		</g>
		<g>
			<g>
				<polygon style="fill:#423DFF;" points="67,60.5 62.2,61 57.5,61.5 56.5,63.5 68.4,62.2 				"/>
				<path d="M56.5,63.8c-0.1,0-0.2-0.1-0.3-0.1c-0.1-0.1-0.1-0.2,0-0.3l1-1.9c0-0.1,0.1-0.2,0.3-0.2l9.6-1c0.1,0,0.2,0,0.3,0.1
					l1.4,1.7c0.1,0.1,0.1,0.2,0,0.3c0,0.1-0.1,0.2-0.3,0.2L56.5,63.8C56.5,63.8,56.5,63.8,56.5,63.8z M57.7,61.8L57,63.1l10.8-1.1
					l-0.9-1.1L57.7,61.8z"/>
			</g>
			<g>
				<path style="fill:#EFEFEF;" d="M68.5,62.6l-11.9,1.3l0.1,1.2c0,0,0,0.7,0.4,0.7c0.4,0,5.6-0.6,5.6-0.6s5.3-0.6,5.6-0.6
					c0.4,0,0.3-0.8,0.3-0.8L68.5,62.6z"/>
				<path d="M68.5,62.6l0.1,1.2c0,0,0.1,0.7-0.3,0.8c-0.4,0-5.6,0.6-5.6,0.6s-5.3,0.6-5.6,0.6c0,0,0,0,0,0c-0.3,0-0.4-0.7-0.4-0.7
					l-0.1-1.2L68.5,62.6 M68.5,61.9C68.4,61.9,68.4,61.9,68.5,61.9l-12,1.3c-0.2,0-0.3,0.1-0.4,0.2c-0.1,0.1-0.2,0.3-0.1,0.5
					l0.1,1.2c0,0.8,0.4,1.3,1,1.3c0,0,0.1,0,0.1,0l5.6-0.6l5.6-0.6c0.2,0,0.5-0.1,0.6-0.3c0.3-0.4,0.2-0.9,0.2-1.2l-0.1-1.2
					c0-0.2-0.1-0.3-0.2-0.4C68.7,62,68.6,61.9,68.5,61.9L68.5,61.9z"/>
			</g>
			<g>
				<polygon style="fill:#FFEF00;" points="68.5,62.6 68.4,62.2 68.5,62.6 				"/>
				<path d="M68.4,62.2l0,0.4l0,0L68.4,62.2 M68.4,61.5C68.4,61.5,68.4,61.5,68.4,61.5c-0.4,0-0.7,0.4-0.6,0.7l0,0.4
					c0,0.3,0.3,0.6,0.6,0.6c0,0,0,0,0.1,0c0.2,0,0.3-0.1,0.4-0.2c0.1-0.1,0.2-0.3,0.1-0.5l0-0.4C69,61.8,68.7,61.5,68.4,61.5
					L68.4,61.5z"/>
			</g>
			<g>
				<polygon style="fill:#FFEF00;" points="56.5,63.9 56.5,63.9 56.5,63.5 				"/>
				<path d="M56.5,63.5l0,0.4l0,0L56.5,63.5 M56.5,62.8C56.4,62.8,56.4,62.8,56.5,62.8c-0.4,0-0.7,0.4-0.6,0.7l0,0.4
					c0,0.2,0.1,0.3,0.2,0.4c0.1,0.1,0.3,0.1,0.4,0.1c0,0,0,0,0.1,0c0.2,0,0.3-0.1,0.4-0.2s0.2-0.3,0.1-0.5l0-0.4
					C57.1,63.1,56.8,62.8,56.5,62.8L56.5,62.8z"/>
			</g>
			<g>
				
					<rect x="56.5" y="62.8" transform="matrix(0.9944 -0.1058 0.1058 0.9944 -6.3198 6.9647)" style="fill:#FFEF00;" width="12" height="0.4"/>
				<path d="M68.4,62.2l0,0.4l-11.9,1.3l0-0.4L68.4,62.2 M68.4,61.5C68.4,61.5,68.4,61.5,68.4,61.5l-12,1.3c-0.4,0-0.6,0.4-0.6,0.7
					l0,0.4c0,0.2,0.1,0.3,0.2,0.4c0.1,0.1,0.3,0.1,0.4,0.1c0,0,0,0,0.1,0l11.9-1.3c0.4,0,0.6-0.4,0.6-0.7l0-0.4
					c0-0.2-0.1-0.3-0.2-0.4C68.7,61.6,68.6,61.5,68.4,61.5L68.4,61.5z"/>
			</g>
		</g>
	</g>
</g>
<path style="fill:#02A0F4;" d="M109.9,68.2C109.9,68.2,109.9,68.2,109.9,68.2L109.9,68.2z"/>
<g>
	<g>
		<g>
			<path style="fill:#364A58;" d="M111.1,224.5l43.7-35c0,0,4.2-9.5-10.4-17.3l-43.3,26.6L111.1,224.5z"/>
			<path d="M111.1,225c0,0-0.1,0-0.1,0c-0.1,0-0.3-0.1-0.3-0.3l-9.9-25.7c-0.1-0.2,0-0.4,0.2-0.6l43.3-26.6c0.1-0.1,0.3-0.1,0.5,0
				c7.7,4.1,10.2,8.7,10.9,11.9c0.8,3.5-0.2,5.9-0.3,6c0,0.1-0.1,0.1-0.1,0.2l-43.7,35C111.3,225,111.2,225,111.1,225z M101.8,199
				l9.6,24.8l43.2-34.6c0.4-1.1,3.1-9.3-10-16.4L101.8,199z"/>
		</g>
		<g>
			<polygon style="fill:#5F8097;" points="58.8,161.4 101.2,198.8 144.5,172.2 102.6,141.6 			"/>
			<path d="M101.2,199.3c-0.1,0-0.2,0-0.3-0.1l-42.4-37.4c-0.1-0.1-0.2-0.3-0.2-0.4c0-0.2,0.1-0.3,0.3-0.4l43.7-19.7
				c0.2-0.1,0.3,0,0.5,0l41.9,30.6c0.1,0.1,0.2,0.2,0.2,0.4c0,0.2-0.1,0.3-0.2,0.4l-43.3,26.6C101.4,199.3,101.3,199.3,101.2,199.3z
				 M59.7,161.5l41.6,36.7l42.4-26l-41.1-30L59.7,161.5z"/>
		</g>
		<g>
			<path style="fill:#27343E;" d="M58.8,161.4v9.8l52.3,53.4c0,0,3.7-14.3-9.9-25.7L58.8,161.4z"/>
			<path d="M111.1,225c-0.1,0-0.2,0-0.3-0.1l-52.3-53.4c-0.1-0.1-0.1-0.2-0.1-0.3v-9.8c0-0.2,0.1-0.3,0.3-0.4c0.2-0.1,0.4,0,0.5,0.1
				l42.4,37.4c7.1,6,9.5,12.8,10.2,17.4c0.8,5-0.1,8.6-0.1,8.8c0,0.2-0.2,0.3-0.3,0.3C111.2,225,111.2,225,111.1,225z M59.3,171
				l51.5,52.6c0.5-3.2,1.4-14.9-9.9-24.4l-41.6-36.8V171z"/>
		</g>
		<path style="fill:#526F83;" d="M111.9,203.6c0,0,2.6,2.5,2.4,6.8l37.2-27.1c0,0-0.4-3.8-2.1-4L111.9,203.6z"/>
		<g>
			<path style="fill:#2B2B2B;" d="M78.5,152.6c0,0-0.4,7.1,0,8.6s21.1,19.7,21.1,19.7l26.6-14.1L78.5,152.6z"/>
			<path d="M99.7,181.3c-0.1,0-0.2,0-0.3-0.1c-4.9-4.3-20.9-18.4-21.3-19.9c-0.4-1.6,0-8.4,0-8.7c0-0.1,0.1-0.3,0.2-0.4
				c0.1-0.1,0.3-0.1,0.4-0.1l47.7,14.1c0.2,0.1,0.3,0.2,0.3,0.4c0,0.2-0.1,0.4-0.2,0.5l-26.6,14.1C99.8,181.3,99.7,181.3,99.7,181.3
				z M79,153.2c-0.1,2.3-0.3,6.8,0,7.9c0.5,1.2,12.9,12.3,20.7,19.2l25.3-13.4L79,153.2z"/>
		</g>
	</g>
	<g>
		<g>
			<path style="fill:#E00017;" d="M76.1,150.6c0,0-0.7-9.1,2.9-11.9c1.2-1,3.8-2.3,5.3-2.4c1.9-0.1,3.5,0.9,5.4,0.8
				c1.7-0.1,4.9-0.4,6.3-1.7c0.6-0.6,0.6-1.6,1.1-2.2c0.7-0.8,1.7-0.9,2.7-1.1c1.3-0.3,2.6-0.6,4-0.9c0,0,16.7,8.1,21.3,11.8
				c4.6,3.7-23.7,28.2-23.7,28.2L76.1,150.6z"/>
			<path d="M101.3,171.6c-0.1,0-0.2,0-0.3-0.1L75.8,151c-0.1-0.1-0.2-0.2-0.2-0.3c0-0.4-0.7-9.4,3.1-12.4c1.2-0.9,3.9-2.4,5.6-2.5
				c1-0.1,2,0.2,2.9,0.4c0.9,0.2,1.7,0.4,2.5,0.4c2.9-0.1,5.1-0.7,6-1.6c0.2-0.2,0.3-0.6,0.5-0.9c0.1-0.4,0.3-0.9,0.7-1.3
				c0.7-0.8,1.6-0.9,2.4-1.1c0.2,0,0.3-0.1,0.5-0.1c1.3-0.3,2.6-0.6,4-0.9c0.1,0,0.2,0,0.3,0c0.7,0.3,16.8,8.1,21.4,11.9
				c0.4,0.4,0.7,0.9,0.7,1.5c0,2.6-4.1,8.1-12.2,16.1c-6,5.9-12.1,11.2-12.2,11.3C101.5,171.6,101.4,171.6,101.3,171.6z M76.5,150.4
				l24.8,20.2c6.9-6,23.8-21.7,23.7-26.4c0-0.4-0.1-0.6-0.3-0.8c-4.2-3.5-19.4-10.9-21.1-11.7c-1.3,0.3-2.5,0.6-3.8,0.9
				c-0.2,0-0.3,0.1-0.5,0.1c-0.8,0.2-1.4,0.3-1.9,0.8c-0.2,0.2-0.3,0.6-0.5,0.9c-0.1,0.4-0.3,0.9-0.7,1.3c-1.4,1.3-4.3,1.7-6.6,1.8
				c-1,0-1.9-0.2-2.8-0.4c-0.9-0.2-1.7-0.5-2.6-0.4c-1.3,0.1-3.8,1.3-5,2.3C76.1,141.5,76.4,149.1,76.5,150.4z"/>
		</g>
		<g>
			<line style="fill:#FB0014;" x1="84.3" y1="144.1" x2="97.9" y2="153.4"/>
			<path d="M97.8,153.8c-0.1,0-0.2,0-0.3-0.1L84,144.4c-0.2-0.1-0.3-0.4-0.1-0.6c0.1-0.2,0.4-0.3,0.6-0.1l13.6,9.3
				c0.2,0.1,0.3,0.4,0.1,0.6C98.1,153.8,98,153.8,97.8,153.8z"/>
		</g>
	</g>
</g>
<g>
	<g>
		<g>
			<g>
				<g>
					<path style="fill:#FFFFFF;" d="M108,75.9c0.7,0.4,1.2,0.9,1.5,1.7c0.5,1.3,0.6,3.5-0.1,4.8c-0.3,0.4-0.7,0.1-1.3-0.1
						c-0.7-0.2-0.4-0.9-0.8-1.6c-0.6-1.1-1.4-0.1-2.8,0.7c-1.1,0.7-2.5,0.3-3.1-0.8c-0.6-1.2-0.2-2.7,0.9-3.4
						C104.5,75.8,105.9,74.7,108,75.9z"/>
					<path style="fill:#673101;" d="M105.4,79.9c-0.2-0.1-0.3-0.1-0.5-0.1c0.2-0.1,0.4-0.2,0.6-0.5c0.3-0.5,0.1-1.1-0.3-1.3
						c-0.2-0.1-0.4-0.1-0.6-0.1c0.2-0.1,0.4-0.2,0.5-0.4c0.3-0.5,0-1.1-0.4-1.4c0,0-0.2-0.1-0.3-0.1c-1.2,0.4-1.7,1-1.9,1.1
						c-1.1,0.7-1.5,2.2-0.9,3.4c0.6,1.2,2,1.5,3.1,0.8c0.3-0.2,1-0.6,1.1-0.7C106.1,80.4,105.7,80.1,105.4,79.9"/>
				</g>
				<path d="M106.3,75.4c0.5,0,1.1,0.2,1.7,0.5c0.7,0.4,1.2,0.9,1.5,1.7c0.5,1.3,0.6,3.5-0.1,4.8c-0.1,0.2-0.2,0.2-0.3,0.2
					c-0.2,0-0.6-0.2-0.9-0.3c-0.7-0.2-0.4-0.9-0.8-1.6c-0.2-0.3-0.4-0.5-0.6-0.5c-0.3,0-0.6,0.2-0.9,0.4c0,0,0,0-0.1,0.1
					c-0.2,0.1-0.8,0.5-1.1,0.7c0,0,0,0,0,0c-0.4,0.2-0.8,0.4-1.2,0.4c-0.8,0-1.5-0.4-1.9-1.2c-0.4-0.7-0.4-1.6-0.1-2.3
					c0.2-0.4,0.5-0.8,0.9-1.1c0.2-0.1,0.6-0.6,1.5-1C104.7,75.7,105.5,75.4,106.3,75.4 M106.3,74.4c-1.1,0-2,0.4-2.7,0.9
					c-0.8,0.4-1.3,0.7-1.5,1c0,0-0.1,0.1-0.1,0.1c-0.5,0.3-1,0.9-1.3,1.5c-0.5,1-0.4,2.2,0.1,3.1c0.5,1,1.6,1.7,2.7,1.7
					c0.6,0,1.2-0.2,1.7-0.5c0.4-0.2,1-0.6,1.2-0.8c0.1,0,0.1-0.1,0.1-0.1c0.1-0.1,0.2-0.1,0.2-0.1c0.1,0.1,0.1,0.3,0.1,0.5
					c0.1,0.4,0.2,1.2,1.1,1.5c0.1,0,0.2,0.1,0.3,0.1c0.3,0.1,0.6,0.2,0.9,0.2c0.5,0,0.9-0.2,1.1-0.7c0.9-1.6,0.8-4.1,0.1-5.7
					c-0.4-0.9-1-1.6-1.9-2.1C107.7,74.7,107,74.4,106.3,74.4L106.3,74.4z"/>
			</g>
			<g>
				<path d="M105.5,80.1c1.3,0,2.7,0.1,3.9,0.5c0,0,0,0,0.1,0l1.4,0.3c4.3,1.1,8.2,4.2,10.8,7.7c2.1,2.7,2.8,6.7,2.7,10
					c-0.1,3-0.8,6-2.1,8.7c-0.6,1.3-1.4,2.6-2.2,3.8c-0.6,0.9-1.3,1.9-1.7,3c-0.4,1.2-0.1,2.1-0.2,3.3c-0.1,2.7,0.1,5.4-0.3,8.1
					c-0.5,3.4-2.4,7.8-5.1,10c-2.9,2.4-6.8,3.3-10.6,3.3c-1.1,0-2.1-0.1-3.2-0.2c-0.7-0.1-1.4-0.2-2-0.4l-1.4-0.3c0,0-0.1,0-0.1,0
					c-0.7-0.1-1.3-0.3-2-0.5c-5.5-1.6-10.6-4.8-11.7-10.8c-0.8-4.4,0.3-8.7,1.8-12.7c0.8-2.1,2.1-4,2.9-6.1c0.9-2.1,0.2-4.5,0-6.6
					c-0.3-4,0.4-8,2.3-11.6c1.5-3,4-6.1,7.2-7.5C99,81,102.3,80.1,105.5,80.1 M105.5,79.2c-3.1,0-6.5,0.8-9.7,2.2
					c-2.9,1.3-5.7,4.2-7.6,8c-2,3.8-2.8,7.9-2.4,12.1c0,0.5,0.1,1.1,0.2,1.6c0.2,1.7,0.4,3.2-0.1,4.6c-0.4,0.9-0.9,1.9-1.4,2.8
					c-0.5,1-1.1,2.1-1.6,3.3c-1.4,3.6-2.8,8.3-1.9,13.2c1,5.4,5.3,9.4,12.4,11.5c0.7,0.2,1.4,0.4,2.1,0.5l0.1,0l1.4,0.3
					c0.7,0.2,1.4,0.3,2.1,0.4c1.1,0.1,2.2,0.2,3.3,0.2c3.2,0,7.7-0.6,11.2-3.6c2.9-2.5,4.8-7.1,5.4-10.6c0.3-1.9,0.3-3.7,0.3-5.6
					c0-0.9,0-1.8,0-2.6c0-0.4,0-0.9,0-1.2c0-0.7-0.1-1.2,0.1-1.8c0.3-0.9,0.9-1.9,1.6-2.7c0.8-1.2,1.6-2.5,2.3-3.9
					c1.3-2.8,2.1-5.9,2.2-9.1c0.1-4.2-0.9-8.1-2.9-10.6c-3.1-4.1-7.3-7.1-11.3-8.1l-1.4-0.3l-0.1,0
					C108.3,79.4,106.9,79.2,105.5,79.2L105.5,79.2z"/>
				<path style="fill:#02A0F4;" d="M118.2,117.5c0-1.2-0.3-2.1,0.2-3.3c0.4-1.1,1.1-2.1,1.7-3c0.8-1.2,1.6-2.5,2.2-3.8
					c1.3-2.7,2-5.7,2.1-8.7c0.1-3.4-0.6-7.3-2.7-10c-2.7-3.5-6.5-6.7-10.8-7.7l-1.4-0.3c0,0-0.1,0-0.1,0c-4.3-1.1-9.2-0.2-13.2,1.6
					c-3.1,1.4-5.6,4.5-7.2,7.5c-1.9,3.6-2.7,7.6-2.3,11.6c0.2,2.2,0.8,4.5,0,6.6c-0.8,2.1-2.1,4-2.9,6.1c-1.6,4.1-2.7,8.4-1.8,12.7
					c1.2,5.9,6.3,9.1,11.7,10.8c0.7,0.2,1.3,0.4,2,0.5c0,0,0.1,0,0.1,0l1.4,0.3c0.7,0.1,1.4,0.3,2,0.4c4.7,0.6,10.1,0,13.8-3.1
					c2.7-2.3,4.5-6.6,5.1-10C118.4,123,118.1,120.2,118.2,117.5z"/>
			</g>
			<g>
				<g>
					<g>
						<defs>
							<path id="XMLID_00000068673478451518798060000015557703831197873561_" d="M108.3,92.9c0.3-2.1,0.2-4.1-0.2-6.2
								c-0.3-1.6-0.8-3.3-2-4.4c-1.2-1-2.7-1.5-4.2-1.7c-1.5-0.1-2.9,0.1-4.4,0.4c-2.3,0.5-5.1,1.6-6.8,3.6c-0.8,0.9-1.4,1.9-1.8,3
								c-0.2,0.4-0.7,1.8-0.8,2.3c0,0-2.1,0.2-2.4,0.3c-1.4,0.5-2.4,2.2-2.9,3.4c-0.7,1.7-0.8,3.7-0.6,5.5c0.6,4.3,4.1,7.4,8.1,8.6
								c2.4,0.7,4.7,1.3,7.1,1.8c1.9,0.4,3.6-0.8,4.8-2.2C105.7,103.3,107.6,98.1,108.3,92.9C108.3,92.9,108.3,92.9,108.3,92.9z"/>
						</defs>
						
							<use xlink:href="#XMLID_00000068673478451518798060000015557703831197873561_"  style="overflow:visible;fill-rule:evenodd;clip-rule:evenodd;fill:#FFFFFF;"/>
						<clipPath id="XMLID_00000100364656637801313280000007353717242998762414_">
							<use xlink:href="#XMLID_00000068673478451518798060000015557703831197873561_"  style="overflow:visible;"/>
						</clipPath>
						<g style="clip-path:url(#XMLID_00000100364656637801313280000007353717242998762414_);">
							<path style="fill-rule:evenodd;clip-rule:evenodd;fill:#E11D2C;" d="M84.2,96.5c0,0,0.3,4.3-1.9,3.8l-1.4-3.6l1-1.3l1,0.2
								C82.7,95.6,83.2,96.4,84.2,96.5"/>
							<path d="M82.6,100.8c-0.1,0-0.3,0-0.5-0.1c-0.1,0-0.3-0.1-0.3-0.3l-1.4-3.6c-0.1-0.1,0-0.3,0.1-0.4l1-1.3
								c0.1-0.1,0.3-0.2,0.5-0.2l1,0.2c0.1,0,0.2,0.1,0.3,0.2c0,0,0.4,0.6,1.1,0.7c0.2,0,0.4,0.2,0.4,0.4c0,0.3,0.2,3-1,4
								C83.3,100.7,83,100.8,82.6,100.8z M82.6,99.9c0.2,0,0.4-0.1,0.5-0.2c0.6-0.5,0.7-2,0.7-2.8c-0.7-0.2-1.1-0.6-1.3-0.8
								l-0.5-0.1l-0.6,0.8L82.6,99.9z"/>
						</g>
					</g>
					<path d="M86.8,106.6c-2.8-1.8-4.6-4.4-5-7.4c-0.3-2-0.1-4,0.6-5.7c0.5-1.2,0.8-1.6,1.6-2.5c1-1.1,1.8-1.5,3.8-1.5
						c0.2-0.6,0.6-1.6,0.7-2c0.5-1.2,1.2-2.2,1.9-3.1c2.1-2.5,5.3-3.4,7-3.8c1.5-0.3,3-0.6,4.5-0.5c0.2,0,0.4,0,0.6,0.1l-0.1,0.9
						c-0.2,0-0.4,0-0.5-0.1c-1.4-0.1-2.7,0.1-4.2,0.4c-2.8,0.6-5.1,1.9-6.5,3.5c-0.7,0.8-1.3,1.8-1.8,2.9c-0.2,0.4-0.6,1.7-0.8,2.2
						l-0.1,0.3l-0.3,0c-2.1,0-2.7,0.3-3.4,1.2c-0.8,0.9-1,1.2-1.4,2.2c-0.6,1.5-0.8,3.4-0.6,5.2c0.4,2.7,2,5.1,4.6,6.8L86.8,106.6z"
						/>
					<g>
						<path style="fill-rule:evenodd;clip-rule:evenodd;" d="M83.6,91.4c-0.1,0.4-0.1,0.8,0.3,0.9c0.4,0.1,1-0.2,1.1-0.6
							c0.1-0.4-0.1-0.8-0.5-0.9S83.8,90.9,83.6,91.4"/>
					</g>
					<path style="fill-rule:evenodd;clip-rule:evenodd;fill:#FDBDB8;" d="M90.1,96.5c-0.6,2.5,0.8,5,3.2,5.6c2.4,0.6,4.8-1,5.5-3.5
						c0.6-2.5-0.8-5-3.2-5.6S90.7,94,90.1,96.5"/>
				</g>
				<path d="M98.3,110.1c-0.3,0-0.6,0-0.9-0.1c-2.6-0.6-5-1.1-7.2-1.8c-1.2-0.4-2.4-0.9-3.5-1.6l0.5-0.8c1,0.6,2.1,1.1,3.2,1.5
					c2.2,0.6,4.5,1.2,7.1,1.8c1.8,0.4,3.4-0.9,4.3-2c3.9-4.6,5.4-10.3,5.9-14.2c0.3-1.9,0.2-4-0.2-6.1c-0.3-1.9-1-3.3-1.9-4.1
					c-0.9-0.8-2-1.3-3.4-1.5l0.1-0.9c1.5,0.2,2.8,0.8,3.9,1.7c1.1,1,1.8,2.5,2.2,4.7c0.4,2.2,0.4,4.3,0.2,6.3
					c-0.5,4.1-2,9.9-6.1,14.7C101.3,109.2,99.8,110.1,98.3,110.1z"/>
			</g>
			<g>
				<g>
					<g>
						<path style="fill:#FFFFFF;" d="M75.4,114.5c0,1,1.2,1.8,2.3,2.2c3,0.9,6.9,1.3,10.7,0.8c3.3-0.4,6.6-1.5,8.8-3.1
							c0.6-0.4,1.7-1.1,1.7-1.9c0.2-3-6.8-0.2-8,0.1c-0.9,0.2-1.9,0.3-2.9,0.4c-3.1,0.4-6.2,0.3-9.2-0.6c-1.4-0.4-2.9,0.3-3.3,1.5
							C75.5,114.1,75.4,114.3,75.4,114.5z"/>
					</g>
					<path style="fill:#0183C6;" d="M88.3,117.5c0.2-1.2,0.2-2.8-0.3-4.5c-3.2,0.3-6.1,0.2-9-1c-1.6-0.7-3.6-1.2-4,1.1
						c0,0.2-0.1,0.5,0,0.7c0,0.6,0.2,1.2,0.5,1.6c1.6,1.9,4.2,2.2,6.6,2.3C82.6,117.7,88.2,117.9,88.3,117.5z"/>
				</g>
				<path d="M97.1,111.1c0.9,0,2,0.3,1.9,1.4c-0.1,0.8-1.1,1.5-1.7,1.9c-2.5,1.8-5.9,2.7-9,3.2c-0.3,0-0.6,0.1-0.8,0.1
					c-0.7,0.1-1.4,0.1-2,0.1c-0.3,0-0.6,0-1,0c-0.8,0-1.6,0-2.4,0c-2.4,0-5-0.4-6.6-2.3c-0.3-0.4-0.5-1-0.5-1.6c0-0.3,0-0.5,0-0.7
					c0.2-1.3,0.9-1.7,1.8-1.7c0.7,0,1.5,0.3,2.2,0.6c0.6,0.2,1.2,0.4,1.8,0.6c1.2,0.3,2.4,0.5,3.7,0.5c0.3,0,0.5,0,0.8,0
					c0.4,0,0.7,0,1.1,0c0.3,0,0.6,0,1-0.1c0.9-0.1,1.8-0.1,2.7-0.3c0.9-0.2,1.8-0.5,2.7-0.7c1.3-0.4,2.7-0.8,4.1-0.9
					C96.9,111.1,97,111.1,97.1,111.1 M97.1,110.1c-0.1,0-0.2,0-0.3,0c-1.5,0.1-2.9,0.5-4.4,0.9c-0.8,0.3-1.7,0.5-2.6,0.7
					c-0.8,0.2-1.5,0.2-2.3,0.3l-0.2,0c-0.3,0-0.6,0-0.9,0.1c-0.3,0-0.7,0-1,0c-0.3,0-0.5,0-0.8,0c-1.2,0-2.4-0.2-3.5-0.5
					c-0.6-0.2-1.1-0.3-1.7-0.6c-1-0.4-1.8-0.6-2.6-0.6c-1.5,0-2.5,0.9-2.7,2.5c-0.1,0.3-0.1,0.6-0.1,1c0,0.5,0.2,1.4,0.8,2.1
					c1.9,2.2,4.9,2.5,7.3,2.6c0.8,0,1.6,0,2.4,0c0.3,0,0.6,0,1,0l0.3,0c0.6,0,1.2,0,1.8-0.1c0.3,0,0.6-0.1,0.9-0.1
					c4-0.5,7.1-1.7,9.4-3.3c0.1-0.1,0.2-0.1,0.2-0.2c0.7-0.5,1.8-1.3,1.9-2.4c0.1-0.8-0.2-1.3-0.5-1.6
					C98.9,110.4,98.1,110.1,97.1,110.1L97.1,110.1z"/>
			</g>
			<g>
				<g>
					<path style="fill:#FFFFFF;" d="M117.5,78.2c-1.1-0.1-2.2,0.2-3.1,0.8c-1.6,1.1-2.6,3-2.7,5c0,0.7,0.7,1,1.5,1.2
						c1,0.2,1-0.5,2.1-1c1.5-0.8,1.4,0.8,2.4,2.8c0.8,1.6,2.8,2.2,4.4,1.3c1.6-0.9,2.2-2.9,1.4-4.5
						C121.9,80.6,120.9,78.3,117.5,78.2z"/>
					<path style="fill:#673101;" d="M117.8,84.7c0.3,0,0.5,0.1,0.7,0.2c-0.2-0.2-0.4-0.6-0.4-0.9c0-0.7,0.6-1.3,1.3-1.3
						c0.3,0,0.6,0.1,0.9,0.4c-0.2-0.2-0.3-0.5-0.3-0.9c0-0.7,0.8-1.2,1.5-1.2c0.1,0,0.3,0.1,0.4,0.1c1.1,1.4,1.4,2.4,1.5,2.7
						c0.8,1.6,0.2,3.6-1.4,4.5c-1.6,0.9-3.6,0.3-4.4-1.3c-0.2-0.5-0.7-1.4-0.9-1.7C116.6,84.8,117.3,84.7,117.8,84.7"/>
				</g>
				<path d="M117.1,78.2c0.1,0,0.2,0,0.3,0c2.5,0.1,3.7,1.4,4.8,3.3c0.9,1.2,1.1,2,1.2,2.3c0.3,0.6,0.4,1.3,0.3,1.9
					c-0.1,1.1-0.7,2.1-1.7,2.6c-0.5,0.3-1,0.4-1.6,0.4c-1.2,0-2.3-0.6-2.8-1.7c0,0,0,0,0,0c-0.3-0.5-0.7-1.4-0.9-1.7
					c-0.1-0.1,0-0.2,0-0.3c-0.3-0.6-0.5-1-0.9-1c-0.2,0-0.4,0.1-0.7,0.2c-0.9,0.5-1.1,1.1-1.7,1.1c-0.1,0-0.2,0-0.3,0
					c-0.8-0.2-1.5-0.5-1.5-1.2c0-2,1.1-3.9,2.7-5C115.2,78.4,116.1,78.2,117.1,78.2 M117.1,77.2c-1.2,0-2.4,0.3-3.3,1
					c-1.9,1.3-3,3.5-3.1,5.8c0,1.1,0.7,1.8,2.2,2.1c0.2,0,0.4,0.1,0.6,0.1c0.7,0,1.2-0.4,1.5-0.7c0.2-0.2,0.4-0.3,0.6-0.5
					c0,0,0.1,0,0.1-0.1c0,0,0,0.1,0.1,0.1c0,0.2,0,0.4,0.1,0.6c0.1,0.3,0.6,1.2,0.9,1.7c0.7,1.4,2.1,2.2,3.7,2.2
					c0.7,0,1.4-0.2,2-0.5c1.2-0.7,2.1-1.9,2.2-3.3c0.1-0.8-0.1-1.7-0.4-2.4c0,0,0-0.1-0.1-0.2c-0.2-0.4-0.5-1.2-1.2-2.2
					c-1.1-1.8-2.5-3.5-5.5-3.7C117.4,77.2,117.3,77.2,117.1,77.2L117.1,77.2z"/>
			</g>
		</g>
		<path d="M90.5,91.9c-0.1,0-0.1,0-0.2,0c-1-0.4-1.4-0.1-1.4-0.1c-0.2,0.2-0.5,0.1-0.6-0.1c-0.2-0.2-0.2-0.5,0-0.6
			c0.1-0.1,0.8-0.7,2.3-0.1c0.2,0.1,0.4,0.4,0.3,0.6C90.8,91.8,90.7,91.9,90.5,91.9z"/>
		<path d="M84.4,97c-0.2,0-0.4,0-0.5-0.1c-1.1-0.3-1.7-1.3-1.8-1.4c-0.1-0.2,0-0.5,0.2-0.6c0.2-0.1,0.5,0,0.6,0.2
			c0,0,0.4,0.7,1.2,0.9c0.5,0.1,0.9,0,1.5-0.4c0.2-0.1,0.5-0.1,0.6,0.1c0.1,0.2,0.1,0.5-0.1,0.6C85.5,96.8,84.9,97,84.4,97z"/>
	</g>
	<g>
		<path style="fill:#FFFFFF;" d="M69.5,134.5c-0.4,0-0.8,0.1-1.2,0.2c-1.5,0.6-2.6,2.2-2.7,4c-0.2,3,5.4,4.1,8.4,4.7
			c0.5,0.1,1,0.2,1.3,0.3c0.6,0.1,1.2,0.2,1.6-0.1c0.3-0.3,0.4-0.7,0.4-1.1c0.2-1.6-0.1-3.2-0.4-4.7c-0.1-0.5-0.2-1-0.3-1.5
			c-0.1-0.5-0.2-1.1-0.2-1.9l0,0c-0.2-2.2,0.2-3.6,1.1-4.2c0.3-0.2,0.6-0.2,0.9-0.2c1.9,0,3.7,0.8,5.4,1.5c1,0.4,2.1,0.9,3.2,1.2
			c1.2,0.3,2.1,0.3,2.9,0c0.8-0.4,1.5-1.3,1.2-2.2c-0.2-0.6-0.7-1-1.3-1.4c-2-1.3-3.9-2.5-5.9-3.4c-2.7-1.2-7.7-2.8-10.3,0.4
			c-1,1.3-1.4,3.1-1.6,4.6c-0.1,0.7-0.1,0.8-0.1,1.1c0,0.2,0,0.4,0,0.7c0,0.4,0,0.8,0,1.2c0,0.5,0.1,1,0,1.5c0,0.1-0.1,0.1-0.1,0.2
			c-0.1,0-0.1,0-0.2,0C71,134.8,70.2,134.5,69.5,134.5z"/>
		<path style="fill:#0183C6;" d="M72.1,129.6c0,0,1.5,1.8,4.4,1.7c0,0-0.3,4.2,0.4,6.4c0,0,1.1,4.5,0,5.8c0,0-0.3,0.8-4-0.4
			c0,0-5.9-1.1-7.2-3.5c0,0-0.7-3.5,2.6-4.9c0,0,1.4-1,3.6,0.7C71.9,135.4,71.4,131.4,72.1,129.6z"/>
		<path style="fill:none;stroke:#000000;stroke-miterlimit:10;" d="M69.5,134.5c-0.4,0-0.8,0.1-1.2,0.2c-1.5,0.6-2.6,2.2-2.7,4
			c-0.2,3,5.4,4.1,8.4,4.7c0.5,0.1,1,0.2,1.3,0.3c0.6,0.1,1.2,0.2,1.6-0.1c0.3-0.3,0.4-0.7,0.4-1.1c0.2-1.6-0.1-3.2-0.4-4.7
			c-0.1-0.5-0.2-1-0.3-1.5c-0.1-0.5-0.2-1.1-0.2-1.9l0,0c-0.2-2.2,0.2-3.6,1.1-4.2c0.3-0.2,0.6-0.2,0.9-0.2c1.9,0,3.7,0.8,5.4,1.5
			c1,0.4,2.1,0.9,3.2,1.2c1.2,0.3,2.1,0.3,2.9,0c0.8-0.4,1.5-1.3,1.2-2.2c-0.2-0.6-0.7-1-1.3-1.4c-2-1.3-3.9-2.5-5.9-3.4
			c-2.7-1.2-7.7-2.8-10.3,0.4c-1,1.3-1.4,3.1-1.6,4.6c-0.1,0.7-0.1,0.8-0.1,1.1c0,0.2,0,0.4,0,0.7c0,0.4,0,0.8,0,1.2
			c0,0.5,0.1,1,0,1.5c0,0.1-0.1,0.1-0.1,0.2c-0.1,0-0.1,0-0.2,0C71,134.8,70.2,134.5,69.5,134.5z"/>
		<path style="fill:none;stroke:#000000;stroke-miterlimit:10;" d="M72.1,129.6c0,0,1.8,1.9,4.4,1.7"/>
	</g>
</g>
<g>
	<g>
		<path style="fill:#DDDDDD;" d="M110.7,179.3l-12.5-10.2c0,0,7.2-48.5,8.2-54c0.8-4.3,22.2-27.6,22.2-27.6s14.2-3.1,16.6-3.1
			c2.4-0.1,13.7,5.9,13.7,5.9l-30.1,75.9L110.7,179.3z"/>
		<path d="M110.7,179.8c-0.1,0-0.2,0-0.3-0.1L98,169.5c-0.1-0.1-0.2-0.3-0.2-0.4c0.1-0.5,7.2-48.5,8.2-54
			c0.9-4.4,21.5-26.9,22.4-27.8c0.1-0.1,0.2-0.1,0.2-0.1c0.6-0.1,14.3-3.1,16.7-3.1c2.4-0.1,12.8,5.3,13.9,5.9
			c0.2,0.1,0.3,0.4,0.2,0.6l-30.1,75.9c0,0.1-0.1,0.2-0.2,0.2L111,179.7C110.9,179.7,110.8,179.8,110.7,179.8z M98.8,168.9l12,9.8
			l17.8-12.8l29.9-75.4c-3.4-1.8-11.3-5.7-13.1-5.6c-2.2,0.1-14.9,2.8-16.4,3.1c-7.4,8-21.4,23.9-22,27.2
			C106,120.5,99.3,165.1,98.8,168.9z"/>
	</g>
	<g>
		<path style="fill:#D40000;" d="M110.7,179.3c0,0,25-12.1,29.2-14.6c4.2-2.6,27-35.8,24.4-57.7c0,0-2.3-12.3-3.7-15.1
			c-1.4-2.8-4.9-1.7-7.2-1.5c-2.2,0.1-17.2,4.5-17.2,4.5s-17.4,20.8-17.8,28.4c-0.3,7.6-7.5,44.8-8.1,47.6
			C110.4,171.5,109.5,179.3,110.7,179.3z"/>
		<path d="M110.7,179.8c-0.2,0-0.5-0.1-0.6-0.3c-1.1-1.3-0.1-8.6-0.1-8.7c0.7-3.1,7.7-39.9,8-47.5c0.3-7.7,17.2-27.8,17.9-28.7
			c0.1-0.1,0.1-0.1,0.2-0.1c0.6-0.2,15-4.4,17.3-4.5c0.4,0,0.8-0.1,1.3-0.1c2.1-0.3,5-0.6,6.3,1.9c1.4,2.8,3.6,14.7,3.7,15.2
			c2.6,22.1-20.2,55.5-24.6,58.2C137.4,166.7,111.3,179.8,110.7,179.8z M110.8,178.9L110.8,178.9L110.8,178.9z M136.6,95.2
			c-1.3,1.6-17.3,20.9-17.6,28c-0.3,7.7-7.4,44.6-8.1,47.7c-0.2,1.1-0.7,6.8-0.2,7.8c2.5-1.2,25-12.1,28.9-14.5
			c4.3-2.6,26.7-35.5,24.2-57.2c0-0.1-2.3-12.3-3.6-15c-1-2-3.3-1.7-5.4-1.4c-0.5,0.1-0.9,0.1-1.4,0.1
			C151.8,90.9,141.8,93.7,136.6,95.2z"/>
	</g>
	<g>
		<path style="fill:#DDDDDD;" d="M121.2,174.2c0,0,17.2-34.5,17.8-53.6l16.4-3c0,0-4.7,32.3-19.3,49.1L121.2,174.2z"/>
		<path d="M121.2,174.6c-0.1,0-0.2,0-0.3-0.1c-0.1-0.1-0.2-0.4-0.1-0.5c0.2-0.3,17.1-34.6,17.8-53.4c0-0.2,0.2-0.4,0.4-0.4l16.4-3
			c0.1,0,0.3,0,0.4,0.1c0.1,0.1,0.2,0.3,0.1,0.4c0,0.3-4.9,32.6-19.4,49.4c0,0-0.1,0.1-0.1,0.1l-14.9,7.4
			C121.4,174.6,121.3,174.6,121.2,174.6z M139.5,121c-0.8,17-14.2,45.9-17.2,52.2l13.6-6.8c13.2-15.3,18.3-43.6,19.1-48.2L139.5,121
			z"/>
	</g>
	<g>
		<polygon style="fill:#2B2B2B;" points="101.3,171.2 110.1,116.5 130.4,89.7 150.7,86.2 154.1,87.8 132.2,92.2 114.1,117.6 
			105.9,175.4 		"/>
		<path d="M105.9,175.8c-0.1,0-0.2,0-0.3-0.1l-4.6-4.2c-0.1-0.1-0.2-0.3-0.1-0.4l8.8-54.7c0-0.1,0-0.1,0.1-0.2L130,89.4
			c0.1-0.1,0.2-0.2,0.3-0.2l20.3-3.4c0.1,0,0.2,0,0.3,0l3.4,1.6c0.2,0.1,0.3,0.3,0.3,0.5c0,0.2-0.2,0.4-0.4,0.4l-21.7,4.3
			l-17.9,25.2l-8.2,57.7c0,0.2-0.1,0.3-0.3,0.4C106,175.8,106,175.8,105.9,175.8z M101.8,171l3.8,3.4l8.1-56.9c0-0.1,0-0.1,0.1-0.2
			l18.1-25.4c0.1-0.1,0.2-0.2,0.3-0.2l20.5-4.1l-2-0.9l-20,3.4l-20.1,26.6L101.8,171z"/>
	</g>
</g>
</svg>
