<?xml version="1.0" encoding="UTF-8"?>
<svg xmlns="http://www.w3.org/2000/svg" version="1.1" viewBox="0 0 390 390">
  <!-- Generator: Adobe Illustrator 28.7.1, SVG Export Plug-In . SVG Version: 1.2.0 Build 142)  -->
  <g>
    <g id="_레이어_1" data-name="레이어_1">
      <g>
        <g>
          <g>
            <path d="M168.1,302.1c-.8.7-.4,5.7-.5,6.8-.2,2.5-.3,4.9-.5,7.4-.3,4.7-.6,9.5-.8,14.2-.2,4.9-.4,9.8-.4,14.7,0,3.8,0,7.8-.3,11.6,0,0-12.8,1-14.2,1.1-5,.6-9.7,3-14,5.5-.6.4-1.4.8-1.5,1.5-.1.5,0,.9.2,1.4.8,2.5,2.3,6.2,5,7.1,10.3,3.5,26.3,2.1,36.6-.9.4-.1.7-.2,1-.5.2-.3.3-.7.4-1,3.4-20.8-1.3-42.5-2.3-63.5,0-1.8-.2-3.7-1.2-5.2-1-1.5-5.9-1.4-7.2-.2Z" style="fill: #ffd174;"/>
            <path d="M155.9,376.9c-5.6,0-11.1-.6-15.5-2.2-2.4-.8-4.4-3.5-5.8-7.9-.2-.6-.4-1.3-.2-2.1.3-1.3,1.5-2,2.2-2.4,4.7-2.6,9.4-5.1,14.5-5.6,6.3-.7,10.7-1,13.1-1.1.2-2.7.2-5.6.2-8.3v-2.1c0-4.6.2-9.4.5-14.8.2-4.7.5-9.5.8-14.2.2-2.5.3-4.9.5-7.4,0-.3,0-.8,0-1.4,0-3.8,0-5.5.9-6.3h0c1.2-1.1,3.8-1.4,5.7-1.2,1.2.1,2.7.5,3.5,1.6,1.3,1.8,1.4,4.1,1.5,5.9.3,6.5,1,13.2,1.7,19.7,1.5,14.5,3,29.6.6,44.1,0,.4-.2,1.1-.7,1.7-.5.6-1.2.8-1.6.9-6.2,1.8-14.2,3.1-21.9,3.1ZM165.5,358.2c-1,0-12.5,1-14,1.1-4.7.5-8.9,2.7-13.5,5.3-.7.4-.9.6-.9.7,0,0,0,.3.1.6,1.1,3.5,2.6,5.7,4.1,6.2,9.9,3.4,25.5,2.1,35.8-.9,0,0,.3,0,.4-.1h0s0-.2,0-.3c2.3-14.2.8-29-.7-43.4-.7-6.5-1.4-13.3-1.7-19.9,0-1.8-.2-3.3-1-4.4-.1-.1-.8-.4-2-.5-1.4,0-2.6.2-3.1.5-.2.8-.2,3.3-.2,4.4,0,.7,0,1.3,0,1.6-.2,2.5-.3,4.9-.5,7.4-.3,4.7-.6,9.4-.8,14.2-.2,5.3-.4,10.1-.4,14.7v2.1c0,3.2,0,6.4-.3,9.6,0,.5-.4,1-.9,1.2-.2,0-.3,0-.5,0Z"/>
          </g>
          <g>
            <path d="M224.5,302.1c.8.7.4,5.7.5,6.8.2,2.5.3,4.9.5,7.4.3,4.7.6,9.5.8,14.2.2,4.9.4,9.8.4,14.7,0,3.8,0,7.8.3,11.6,0,0,12.8,1,14.2,1.1,5,.6,9.7,3,14,5.5.6.4,1.4.8,1.5,1.5.1.5,0,.9-.2,1.4-.8,2.5-2.3,6.2-5,7.1-10.3,3.5-26.3,2.1-36.6-.9-.4-.1-.7-.2-1-.5-.2-.3-.3-.7-.4-1-3.4-20.8,1.3-42.5,2.3-63.5,0-1.8.2-3.7,1.2-5.2,1-1.5,5.9-1.4,7.2-.2Z" style="fill: #ffd174;"/>
            <path d="M236.6,376.9c-7.7,0-15.8-1.2-21.9-3.1-.4-.1-1.1-.3-1.6-.9-.5-.6-.6-1.2-.7-1.7-2.4-14.5-.8-29.5.6-44.1.7-6.5,1.4-13.2,1.7-19.7,0-1.8.2-4,1.5-5.9.8-1.1,2.4-1.5,3.5-1.6,1.9-.2,4.5.1,5.7,1.2h0c.9.8,1,2.3.9,6.3,0,.6,0,1.2,0,1.4.2,2.5.3,4.9.5,7.4.3,4.7.6,9.5.8,14.2.2,5.3.4,10.2.4,14.8v2.1c0,2.7,0,5.5.3,8.2,2,0,5.7.3,13.1,1.1,5.2.6,9.8,3,14.5,5.6.7.4,1.9,1,2.2,2.4.2.8,0,1.5-.2,2.1-1.4,4.4-3.4,7.1-5.8,7.9-4.4,1.5-9.9,2.2-15.5,2.2ZM215.2,371.1c0,0,.2,0,.3,0,10.2,3.1,25.8,4.3,35.8.9,1.5-.5,3-2.7,4.1-6.2.1-.4.1-.6.1-.6,0,0-.2-.3-.9-.7-4.6-2.6-8.9-4.8-13.5-5.3-1.5-.2-13-1.1-14-1.1-.2,0-.3,0-.5,0-.5-.2-.9-.6-.9-1.2-.3-3.2-.3-6.4-.3-9.6v-2.1c0-4.6-.2-9.4-.5-14.7-.2-4.7-.5-9.4-.8-14.2-.2-2.5-.3-4.9-.5-7.4,0-.3,0-.9,0-1.7,0-1.1,0-3.6-.2-4.3-.4-.3-1.6-.5-3.1-.5-1.2,0-1.9.4-2,.5-.8,1.1-.9,2.6-1,4.4-.3,6.6-1,13.3-1.7,19.8-1.5,14.4-3,29.2-.7,43.4,0,.1,0,.3,0,.4,0,0,0,0,0,0Z"/>
          </g>
          <g>
            <path d="M155.7,295.6v25.8c0,0,18.1,4.5,30.4,0v-14.7" style="fill: #265176;"/>
            <path d="M172.7,324.8c-8.9,0-16.8-1.9-17.3-2-.6-.2-1-.7-1-1.3v-25.8c0-.8.5-1.4,1.3-1.4h0c.7,0,1.4.6,1.4,1.4v24.7c3.9.8,17.6,3.4,27.7.1v-13.7c0-.8.6-1.4,1.4-1.4s1.4.6,1.4,1.4v14.7c0,.6-.4,1.1-.9,1.3-4.3,1.6-9.2,2.1-13.9,2.1Z"/>
          </g>
          <g>
            <path d="M236.9,295.6v25.8c0,0-18.1,4.5-30.4,0v-14.7" style="fill: #265176;"/>
            <path d="M219.9,324.8c-4.6,0-9.6-.5-13.9-2.1-.5-.2-.9-.7-.9-1.3v-14.7c0-.8.6-1.4,1.4-1.4s1.4.6,1.4,1.4v13.7c10.1,3.2,23.8.7,27.6-.1v-24.7c0-.8.7-1.4,1.4-1.4h0c.8,0,1.4.6,1.4,1.4v25.8c0,.6-.5,1.2-1.1,1.3-.5.1-8.4,2-17.3,2Z"/>
          </g>
          <g>
            <path d="M124.1,226.3c-9.6,13.2-18.3,28.6-16.8,44.9.2,2.6.8,5.3,2.6,7.2,1.8,1.9,5.2,2.5,7,.5.9-.9,1.2-2.3,2.1-3.1,1.2-1,2.4-.7,3.7-1,3.2-.6,4.3-2.5,5-5.5,1.8,1.1,4.3-.2,5.3-2.1,1-1.9.9-4.2.9-6.3,0-10,1.6-21.7,5.7-30.9,3.5-7.8,10.3-13.7,12.8-22,1-3.3.8-8.8-3.9-9-3.1-.1-5.9,4.6-7.7,6.6-6,6.6-11.6,13.5-16.8,20.7Z" style="fill: #ffd174;"/>
            <path d="M113.9,281.5c-1.9,0-3.8-.8-5-2.1-2.2-2.3-2.8-5.7-3-8.1-1.6-17.7,8.3-33.8,17.1-45.8h0c5.2-7.2,10.9-14.2,16.9-20.8.4-.4.8-.9,1.2-1.5,1.8-2.3,4.4-5.5,7.4-5.5s.1,0,.2,0c1.8,0,3.3.9,4.3,2.3,1.7,2.5,1.5,6.1.8,8.5-1.5,4.9-4.3,8.9-7.1,12.8-2.1,3-4.3,6-5.7,9.3-3.6,8.1-5.6,19.2-5.5,30.3v.4c0,2.1,0,4.5-1.1,6.6-.8,1.4-2.2,2.6-3.7,3-.6.2-1.3.2-1.9.1-.8,2.4-2.2,4.4-5.7,5.1-.5,0-.9.1-1.3.2-.9,0-1.3.1-1.8.5-.3.3-.6.8-.9,1.3-.3.5-.6,1.2-1.1,1.7-1,1-2.3,1.6-3.9,1.6h0ZM148.5,200.4c-1.7,0-3.8,2.7-5.3,4.5-.5.6-.9,1.2-1.3,1.6-5.9,6.5-11.5,13.5-16.7,20.6h0c-8.5,11.7-18,27.2-16.6,44,.2,2.1.6,4.7,2.2,6.4.8.8,2,1.3,3.1,1.3.5,0,1.4-.1,1.9-.7.3-.3.5-.7.7-1.1.4-.7.8-1.5,1.6-2.1,1.1-.9,2.3-1,3.3-1.1.3,0,.7,0,1-.1,2.3-.5,3.3-1.6,4-4.5,0-.4.4-.8.8-.9.4-.2.9-.1,1.2,0,.4.2.9.3,1.4.1.8-.2,1.6-.9,2-1.7.8-1.5.8-3.3.8-5.3v-.4c0-11.5,2-23,5.8-31.4,1.6-3.6,3.8-6.7,6-9.8,2.8-3.9,5.4-7.6,6.8-12.1.6-1.9.6-4.7-.4-6.2-.5-.7-1.2-1.1-2.2-1.1,0,0,0,0,0,0ZM124.1,226.3h0,0Z"/>
          </g>
          <g>
            <path d="M268.5,226.3c9.6,13.2,18.3,28.6,16.8,44.9-.2,2.6-.8,5.3-2.6,7.2-1.8,1.9-5.2,2.5-7,.5-.9-.9-1.2-2.3-2.1-3.1-1.2-1-2.4-.7-3.7-1-3.2-.6-4.3-2.5-5-5.5-1.8,1.1-4.3-.2-5.3-2.1s-.9-4.2-.9-6.3c0-10-1.6-21.7-5.7-30.9-3.5-7.8-10.3-13.7-12.8-22-1-3.3-.8-8.8,3.9-9,3.1-.1,5.9,4.6,7.7,6.6,6,6.6,11.6,13.5,16.8,20.7Z" style="fill: #ffd174;"/>
            <path d="M278.7,281.5h0c-1.5,0-2.9-.6-3.9-1.6-.5-.5-.8-1.2-1.1-1.7-.3-.5-.5-1-.9-1.3-.5-.4-1-.5-1.8-.5-.4,0-.9,0-1.3-.2-3.5-.7-4.9-2.8-5.7-5.1-.6,0-1.2,0-1.9-.1-1.5-.4-3-1.6-3.7-3-1.1-2.1-1.1-4.5-1.1-6.6v-.4c0-11.1-1.9-22.2-5.5-30.3-1.5-3.3-3.6-6.4-5.7-9.3-2.8-3.9-5.7-8-7.1-12.8-.7-2.4-.9-6,.8-8.5,1-1.4,2.5-2.2,4.3-2.3,3.1,0,5.7,3.1,7.6,5.5.4.6.8,1.1,1.2,1.5,6,6.6,11.6,13.6,16.9,20.8h0c8.8,12.1,18.6,28.2,17.1,45.8-.2,2.3-.7,5.7-3,8.1-1.3,1.3-3.2,2.1-5,2.1ZM264.8,268c.2,0,.4,0,.5.1.4.2.7.5.8.9.7,3,1.7,4,4,4.5.4,0,.7,0,1,.1,1,0,2.1.2,3.3,1.1.7.6,1.2,1.4,1.6,2.1.2.4.5.9.7,1.1.6.6,1.4.7,1.9.7,1.1,0,2.3-.5,3.1-1.3,1.3-1.3,2-3.3,2.2-6.4,1.5-16.8-8.1-32.3-16.6-44-5.2-7.1-10.8-14-16.7-20.6-.4-.4-.8-1-1.3-1.6-1.4-1.8-3.6-4.6-5.3-4.5-1,0-1.7.4-2.2,1.1-1,1.5-1,4.2-.4,6.2,1.3,4.4,4,8.1,6.8,12.1,2.2,3.1,4.4,6.3,6,9.8,3.7,8.5,5.8,19.9,5.8,31.4v.4c0,2,0,3.8.8,5.3.4.8,1.2,1.4,2.1,1.7.5.1,1,.1,1.4-.1.2-.1.5-.2.7-.2Z"/>
          </g>
          <g>
            <path d="M263.6,219.6c1-1,1.1-2.5.3-3.6-3.5-5-13.1-17.9-19.9-16.9-7.6,1.1-.2,18.5,5.4,29.6.9,1.8,3.2,2.1,4.6.7l9.6-9.8Z" style="fill: #fff;"/>
            <path d="M252,231.7c-.2,0-.4,0-.6,0-1.4-.2-2.5-1-3.1-2.3-7.6-15-10.3-24.8-8.1-29.1.7-1.4,2-2.3,3.6-2.5,7.2-1.1,16.4,10.5,21.3,17.5,1.1,1.7,1,3.9-.5,5.3l-9.6,9.8c-.8.8-1.9,1.3-3,1.3ZM244.8,200.4c-.2,0-.4,0-.6,0-.8.1-1.3.5-1.6,1.1-1.7,3.3,1.2,13,8.1,26.6.2.4.6.7,1.1.8.5,0,1,0,1.3-.4l9.6-9.8c.5-.5.6-1.3.2-1.9-5.6-8-13.1-16.4-18-16.4Z"/>
          </g>
          <g>
            <path d="M129,219.6c-1-1-1.1-2.5-.3-3.6,3.5-5,13.1-17.9,19.9-16.9,7.6,1.1.2,18.5-5.4,29.6-.9,1.8-3.2,2.1-4.6.7l-9.6-9.8Z" style="fill: #fff;"/>
            <path d="M140.6,231.7c-1.1,0-2.2-.5-3-1.3l-9.6-9.8c-1.4-1.4-1.6-3.7-.5-5.3,4.8-7,14.1-18.6,21.3-17.5,1.6.2,2.9,1.1,3.6,2.5,2.2,4.3-.5,14.1-8.1,29.1-.6,1.2-1.8,2-3.1,2.3-.2,0-.4,0-.6,0ZM129.9,218.7l9.6,9.8c.3.4.8.5,1.3.4.5,0,.9-.4,1.1-.8,6.8-13.6,9.8-23.3,8.1-26.6-.3-.6-.8-1-1.6-1.1-4.9-.8-12.8,7.9-18.6,16.3-.4.6-.3,1.4.2,1.9h0Z"/>
          </g>
          <path d="M275.8,271.6s0,0-.1,0c-.7,0-1.3-.7-1.2-1.5.7-6.7-.3-13.6-2.9-19.9-.3-.7,0-1.5.7-1.8.7-.3,1.5,0,1.8.7,2.7,6.7,3.8,14,3.1,21.2,0,.7-.7,1.2-1.3,1.2Z" style="fill: #c48200;"/>
          <path d="M267.6,265.3h0c-.8,0-1.3-.7-1.3-1.4,0-2.2.2-4.8,0-7.2-.3-2.5-1-4.7-2.1-6.4-.4-.6-.2-1.5.4-1.9.6-.4,1.5-.2,1.9.4,1.3,2.1,2.2,4.6,2.5,7.6.3,2.6.2,5.3,0,7.6,0,.7-.6,1.3-1.4,1.3Z" style="fill: #c48200;"/>
          <g>
            <g>
              <path d="M261.9,117.1c3.2,39.9-7.1,65.5-12.7,80.5l-.5-.2h-105.5c-5.5-15.1-15.8-40.6-12.6-80.3,4.1-50.5,65.6-46.8,65.6-46.8,0,0,61.6-3.7,65.7,46.8Z" style="fill: #67a9e4;"/>
              <path d="M248.7,270.3c0,0-.1,0-.2,0,0,0,0,0,0,0h.2Z" style="fill: #67a9e4;"/>
              <path d="M248.5,270.3s0,0,0,0c-47.6,15.4-104.6,0-104.6,0h104.6Z" style="fill: #67a9e4;"/>
              <path d="M248.5,270.3c-.8,12-3.8,23.9-15,30-23.5,12.8-52.9,13.2-76-.9-9.9-6-12.8-17.6-13.6-29.2h0s57,15.5,104.6,0Z" style="fill: #67a9e4;"/>
              <path d="M163.5,204.3c-6.8-4.7-12.4-5.2-20.3-6.8h105.5c-5.1,1.4-9.6,1.3-13.4,4.9-3.5,3.3-6.2,7.4-10.2,10.2-9.9,7-19.7,1.8-30.3,2.2-11.3.5-22.2-4.3-31.3-10.6Z" style="fill: #67a9e4;"/>
              <path d="M143.9,270.3h0c-.4-6.1-.1-12.3,0-17.6.4-14.4,4.8-30.9,2.4-45.2-.4-2.6-1.6-5.9-3.1-10,7.9,1.6,13.5,2.1,20.3,6.8,9.1,6.3,20,11.1,31.3,10.6,10.6-.4,20.3,4.7,30.3-2.2,4-2.8,6.7-6.9,10.2-10.2,3.9-3.6,8.4-3.6,13.4-4.9l.5.2c-1.5,4-2.6,7.2-3,9.8-1,6.3.3,13.4.8,19.7.8,10.1,1.7,20.3,1.7,30.5,0,4,0,8.3-.3,12.5h-104.6Z" style="fill: #67a9e4;"/>
            </g>
            <g>
              <path d="M143.9,271.6c-.7,0-1.3-.6-1.4-1.3-.4-5.6-.2-11.2,0-16.2v-1.5c.2-5.3.9-11,1.6-16.5,1.2-9.6,2.4-19.6.9-28.4-.4-2.4-1.4-5.4-3-9.8-.3-.7.1-1.5.8-1.7.7-.3,1.5.1,1.7.8,1.6,4.5,2.7,7.6,3.1,10.2,1.5,9.3.3,19.4-.9,29.2-.7,5.7-1.4,11.1-1.5,16.2v1.5c-.2,4.9-.4,10.5,0,15.9,0,.8-.5,1.4-1.3,1.4,0,0,0,0,0,0Z"/>
              <path d="M212.9,217.7c-2.8,0-5.6-.4-8.3-.7-3.2-.4-6.4-.8-9.7-.7-10.3.5-21.1-3.2-32.1-10.8-5.6-3.9-10.4-4.8-16.5-6-1.1-.2-2.1-.4-3.3-.6-.7-.2-1.2-.9-1.1-1.6.1-.7.9-1.2,1.6-1.1,1.1.2,2.2.4,3.2.6,6.4,1.2,11.5,2.2,17.6,6.4,10.6,7.3,20.8,10.8,30.5,10.3,3.5-.2,6.9.3,10.2.7,6.7.9,13.1,1.7,19.4-2.7,2.4-1.7,4.2-3.8,6.2-6,1.2-1.4,2.5-2.8,3.8-4.1,3.1-3,6.6-3.7,10.3-4.4,1.2-.2,2.5-.5,3.7-.8.7-.2,1.5.2,1.7,1,.2.7-.2,1.5-1,1.7-1.3.4-2.6.6-3.9.9-3.4.7-6.4,1.3-8.9,3.7-1.3,1.2-2.5,2.6-3.7,3.9-2,2.3-4.1,4.6-6.7,6.5-4.4,3.1-8.7,3.9-13,3.9Z"/>
              <path d="M200.5,278.5c-31,0-56.5-6.8-56.9-6.9-.7-.2-1.2-.9-1-1.7.2-.7.9-1.2,1.7-1,.6.2,57.1,15.2,103.8,0,.1,0,.3,0,.4,0v.7l.2.6.4,1.3c0,0-.2,0-.4,0-15.8,5.1-32.8,6.8-48.3,6.8Z"/>
            </g>
          </g>
          <path d="M177.9,151.8c-4.3,0-12-.7-16-5.6-.5-.6-.4-1.4.2-1.9.6-.5,1.4-.4,1.9.2,4.7,5.8,16.5,4.6,16.7,4.5,11.3-1.6,15-9.2,15.1-9.3.3-.7,1.1-1,1.8-.6.7.3,1,1.1.6,1.8-.2.4-4.4,9.1-17.2,10.8-.2,0-1.3.1-3.1.1Z" style="fill: #215c8d;"/>
          <path d="M232.8,151.8c-1.7,0-2.9-.1-3-.1-12.8-1.8-17.1-10.5-17.2-10.8-.3-.7,0-1.5.6-1.8.7-.3,1.5,0,1.8.6.2.3,3.9,7.7,15.1,9.3,0,0,11.9,1.2,16.6-4.5.5-.6,1.3-.7,1.9-.2.6.5.7,1.3.2,1.9-4,4.9-11.7,5.7-16,5.7Z" style="fill: #215c8d;"/>
          <g>
            <path d="M187.2,81.7c-.4-.3-.7-.6-.9-1-1.7-2.6-1.7-8.3-2.2-11.3-1.2-7.4-2.1-14.8-2.7-22.3-.2-2.8-.1-6.2,2.2-7.9,1.9-1.3,4.6-.9,6.4.5,1.8,1.4,2.9,3.6,3.5,5.7.6-3.6,1.2-7.3,3.3-10.3,2.1-3,6.1-5,9.4-3.6,2.3.9,3.8,3.2,4.5,5.6s.4,4.9.1,7.4c-.9,7.8-2,15.6-3.9,23.2-.6,2.5-1.3,8.6-3.3,10.4-1.6,1.4-6.1,2.7-8.2,3.5-2.5,1-6.2,1.6-8.2,0Z" style="fill: #ffd174;"/>
            <path d="M190.6,83.9c-1.5,0-3-.3-4.2-1.2-.5-.4-.9-.8-1.2-1.3-1.4-2.2-1.7-5.7-2-8.8-.1-1.1-.2-2.1-.4-3-1.2-7.4-2.2-14.9-2.7-22.4-.2-3.1-.1-7,2.7-9.1,2.2-1.6,5.6-1.4,8,.5.8.6,1.5,1.4,2.2,2.4.5-2.3,1.3-4.6,2.7-6.6,2.3-3.3,6.9-5.8,11.1-4.1,2.5,1,4.5,3.4,5.3,6.5.7,2.7.5,5.5.2,7.9-.9,7.5-2,15.5-4,23.4-.1.5-.3,1.3-.4,2.1-.8,4-1.6,7.5-3.3,9-1.3,1.2-4,2.1-6.4,3-.8.3-1.6.5-2.1.8-1.5.6-3.5,1.1-5.4,1.1ZM186.3,39.7c-.7,0-1.3.2-1.9.6-1.8,1.3-1.8,4.2-1.6,6.7.5,7.4,1.4,14.8,2.7,22.1.2.9.3,2,.4,3.2.3,2.7.6,6,1.6,7.7.1.2.3.4.6.6h0c1.5,1.1,4.6.7,6.9-.3.6-.2,1.4-.5,2.2-.8,2-.7,4.6-1.6,5.6-2.5,1.2-1,2-5.1,2.4-7.5.2-.9.3-1.6.5-2.2,1.9-7.7,3-15.7,3.9-23.1.3-2.1.5-4.6-.1-6.9-.6-2.2-1.9-4-3.6-4.7-2.9-1.2-6.2.8-7.8,3.1-1.9,2.8-2.5,6.5-3.1,9.8,0,.6-.6,1.1-1.2,1.1-.7,0-1.2-.4-1.4-1-.7-2.4-1.7-4-3.1-5.1-.8-.6-1.8-1-2.9-1Z"/>
          </g>
          <path d="M116.7,271.6c-.7,0-1.3-.5-1.3-1.2-.7-7.2.3-14.5,3.1-21.2.3-.7,1.1-1,1.8-.7.7.3,1,1.1.7,1.8-2.6,6.3-3.6,13.2-2.9,19.9,0,.7-.5,1.4-1.2,1.5,0,0,0,0-.1,0Z" style="fill: #c48200;"/>
          <path d="M125,265.3c-.7,0-1.3-.6-1.4-1.3,0-2.3-.2-5,0-7.6.3-3,1.2-5.5,2.5-7.6.4-.6,1.2-.8,1.9-.4.6.4.8,1.2.4,1.9-1.1,1.7-1.8,3.8-2.1,6.4-.3,2.4-.2,4.9,0,7.2,0,.8-.6,1.4-1.3,1.4h0Z" style="fill: #c48200;"/>
          <path d="M193.2,71.7c-.7,0-1.3-.5-1.4-1.2l-1.3-15.3c0-.7.5-1.4,1.2-1.5.7,0,1.4.5,1.5,1.2l1.3,15.3c0,.7-.5,1.4-1.2,1.5,0,0,0,0-.1,0Z" style="fill: #c48200;"/>
          <path d="M200,64c0,0-.1,0-.2,0-.7,0-1.3-.8-1.2-1.5l2.3-18c0-.7.8-1.3,1.5-1.2.7,0,1.3.8,1.2,1.5l-2.3,18c0,.7-.7,1.2-1.3,1.2Z" style="fill: #c48200;"/>
          <path d="M199.1,267.6c-11.6,0-20.8-2.2-21.4-2.3-.7-.2-1.2-.9-1-1.6.2-.7.9-1.2,1.6-1,.2,0,20.8,5,39.2,0,.7-.2,1.5.2,1.7,1,.2.7-.2,1.5-1,1.7-6.5,1.8-13.2,2.4-19.2,2.4Z"/>
          <path d="M218.7,367.3c-.6,0-1.2-.4-1.3-1-.9-3.7-.8-25.4-.8-27.9,0-.7.6-1.3,1.4-1.3h0c.8,0,1.4.6,1.3,1.4,0,6.6,0,24.4.7,27.2.2.7-.3,1.5-1,1.6-.1,0-.2,0-.3,0Z" style="fill: #c48200;"/>
          <path d="M173.7,367.3s0,0-.1,0c-.8,0-1.3-.7-1.3-1.5.2-2.3,0-9.7,0-9.8,0-.8.6-1.4,1.3-1.4h0c.7,0,1.3.6,1.4,1.3,0,.3.2,7.6,0,10.1,0,.7-.7,1.3-1.4,1.3Z" style="fill: #c48200;"/>
          <path d="M170.9,350.8c-.8,0-1.4-.6-1.4-1.4v-12.9c0-.8.6-1.4,1.4-1.4s1.4.6,1.4,1.4v12.9c0,.8-.6,1.4-1.4,1.4Z" style="fill: #c48200;"/>
          <path d="M212.3,226.4c-3.5,0-7-.5-10.3-1.6-.5-.2-1.1-.4-1.6-.6-1.4-.5-2.8-1-4.2-1.2-1.3-.2-2.6-.1-4,0-.5,0-.9,0-1.4,0-6.5.1-13-1.5-18.7-4.7-.7-.4-.9-1.2-.5-1.8.4-.7,1.2-.9,1.8-.5,5.3,2.9,11.3,4.4,17.3,4.3.4,0,.9,0,1.3,0,1.4,0,2.9-.1,4.5.1,1.7.2,3.2.8,4.7,1.3.5.2,1,.4,1.6.5,9.4,3.1,20.1,1.3,28.1-4.5.6-.4,1.5-.3,1.9.3.4.6.3,1.5-.3,1.9-5.8,4.3-13,6.6-20.2,6.6Z"/>
          <g>
            <ellipse cx="233.3" cy="125.3" rx="18.1" ry="21" style="fill: #fff;"/>
            <path d="M233.3,147.7c-10.7,0-19.5-10-19.5-22.4s8.7-22.4,19.5-22.4,19.5,10,19.5,22.4-8.7,22.4-19.5,22.4ZM233.3,105.7c-9.2,0-16.7,8.8-16.7,19.7s7.5,19.7,16.7,19.7,16.7-8.8,16.7-19.7-7.5-19.7-16.7-19.7Z"/>
          </g>
          <g>
            <ellipse cx="178.2" cy="125.3" rx="18.1" ry="21" style="fill: #fff;"/>
            <path d="M178.2,147.7c-10.7,0-19.5-10-19.5-22.4s8.7-22.4,19.5-22.4,19.5,10,19.5,22.4-8.7,22.4-19.5,22.4ZM178.2,105.7c-9.2,0-16.7,8.8-16.7,19.7s7.5,19.7,16.7,19.7,16.7-8.8,16.7-19.7-7.5-19.7-16.7-19.7Z"/>
          </g>
          <g>
            <path d="M190.3,154.4c-2.6,2.1-4.5,5.1-6.4,8.1-2.7,4.5-5.3,9.6-4.7,15,.7,6,5.3,10.6,10.4,12.4,5,1.8,10.5,1.4,15.7,1,3.2-.3,6.4-.5,9.7-.8,5.6-.4,12.2-1.5,15-7.2,1-2,1.3-4.3,1.3-6.5.3-10.2-5.3-20.1-13.2-24.7-7.3-4.3-21.2-3-27.8,2.6Z" style="fill: #ffd174;"/>
            <path d="M198.6,192.6c-3.2,0-6.4-.3-9.5-1.5-6.1-2.2-10.6-7.6-11.2-13.5-.7-5.8,2.1-11.3,4.9-15.9,1.7-2.8,3.8-6,6.7-8.4h0c7.1-5.9,21.7-7.3,29.4-2.7,8.5,5,14.1,15.4,13.8,25.9,0,2.9-.6,5.2-1.5,7.1-3,6.1-9.8,7.4-16.1,7.9l-9.7.8c-2.2.2-4.5.3-6.8.3ZM207,150.6c-5.9,0-12.2,1.7-15.9,4.8h0c-2.5,2.1-4.5,5.1-6.1,7.7-2.6,4.2-5.1,9.1-4.5,14.2.7,5.7,5.2,9.8,9.5,11.3,4.8,1.8,10.1,1.3,15.2,1l9.7-.8c5.8-.4,11.5-1.5,13.9-6.4.7-1.5,1.1-3.5,1.2-6,.3-9.4-4.9-19-12.5-23.5-2.7-1.6-6.5-2.3-10.4-2.3ZM190.3,154.4h0,0Z"/>
          </g>
          <g>
            <path d="M196,160.5c-1.6,1.3-2.8,3.1-3.9,4.9-1.7,2.7-3.3,5.9-2.9,9.2.4,3.7,3.3,6.5,6.3,7.6,3.1,1.1,6.4.9,9.6.6,2-.2,3.9-.3,5.9-.5,3.5-.3,7.5-.9,9.2-4.4.6-1.2.8-2.6.8-4,.2-6.2-3.2-12.3-8.1-15.1-4.5-2.6-12.9-1.8-17,1.6Z" style="fill: #e34c52;"/>
            <path d="M201.1,184.5c-2,0-4-.2-6-.9-3.9-1.4-6.8-4.9-7.2-8.7-.4-3.7,1.3-7.2,3.1-10.1,1.1-1.8,2.4-3.8,4.2-5.3h0c4.6-3.8,13.6-4.6,18.6-1.7,5.4,3.2,8.9,9.7,8.7,16.3,0,1.8-.4,3.3-1,4.5-1.9,4-6.3,4.8-10.3,5.2l-5.9.5c-1.3.1-2.8.2-4.2.2ZM196.9,161.6c-1.3,1.1-2.4,2.6-3.6,4.6-1.5,2.5-3,5.4-2.7,8.3.4,3.2,3,5.6,5.5,6.5,2.9,1,6,.8,9.1.6l5.9-.5c3.4-.3,6.7-.9,8-3.6.4-.9.6-2,.7-3.4.2-5.6-2.9-11.3-7.4-13.9-4-2.3-11.8-1.6-15.5,1.5h0Z"/>
          </g>
          <path d="M233.6,137.8c-1.3,0-2.7-.4-4-1-2.9-1.5-5.1-4.4-5.8-7.6-.4-2-.3-4.7.3-7.9.8-4.1,3-6.9,6.5-8.3.7-.3,1.5,0,1.8.8.3.7,0,1.5-.8,1.8-2.6,1-4.2,3.1-4.8,6.3-.6,2.9-.7,5.2-.3,6.8.5,2.4,2.2,4.6,4.4,5.7,1,.5,2,.8,3,.7,2.6-.1,4.7-2.6,5.6-5,.6-1.5.9-3.2.9-4.9,0-1.8-.4-3.2-1.2-4.2-.8-1.1-2.1-1.8-3.3-1.7-.9.1-1.8.7-2.5,1.6-.6.8-1,2-1.1,3.3-.2,1.5,0,2.6.5,3.3.5.7,1.4,1.1,2,.8.7-.4.9-1.6.6-3.5,0-.7.4-1.4,1.2-1.5.8,0,1.4.4,1.5,1.2.1,1.2.6,4.7-2,6.2-2,1.2-4.5,0-5.6-1.6-.9-1.3-1.2-3.1-.9-5.2.2-1.8.8-3.3,1.6-4.5,1.1-1.6,2.7-2.6,4.4-2.8,2.2-.3,4.4.9,5.8,2.8,1.1,1.5,1.6,3.5,1.7,5.8,0,2-.3,4-1.1,5.9-1.2,3-4,6.5-8,6.7-.1,0-.2,0-.3,0Z" style="fill: #7d0680;"/>
          <path d="M178.5,137.8c-1.3,0-2.7-.4-4-1-2.9-1.5-5.1-4.4-5.8-7.6-.4-2-.3-4.6.3-7.9.8-4.1,3-6.9,6.5-8.3.7-.3,1.5,0,1.8.8.3.7,0,1.5-.8,1.8-2.6,1-4.2,3.1-4.8,6.3-.6,2.9-.7,5.2-.3,6.8.5,2.4,2.2,4.6,4.4,5.7,1,.5,2,.8,3,.7,2.6-.1,4.7-2.6,5.6-5,.6-1.5.9-3.2.9-4.9,0-1.8-.4-3.2-1.2-4.2-.8-1.1-2.1-1.8-3.3-1.7-.9.1-1.8.7-2.5,1.6-.6.8-1,2-1.1,3.3-.2,1.5,0,2.6.5,3.3.5.7,1.4,1.1,2,.8.7-.4.9-1.6.6-3.5,0-.7.4-1.4,1.2-1.5.8,0,1.4.4,1.5,1.2.1,1.2.6,4.7-2,6.2-2,1.2-4.5,0-5.6-1.6-.9-1.3-1.2-3-.9-5.2.2-1.8.8-3.3,1.6-4.5,1.1-1.6,2.7-2.6,4.4-2.8,2.1-.3,4.4.9,5.8,2.8,1.1,1.5,1.6,3.5,1.7,5.8,0,2-.3,4.1-1.1,5.9-1.2,3-4,6.5-8,6.7-.1,0-.2,0-.3,0Z" style="fill: #7d0680;"/>
        </g>
        <path d="M246.2,154.4c-.1,0-.3,0-.4,0-.7,0-1.3-.8-1.2-1.5,0-.7.8-1.3,1.5-1.2.5,0,1.2-.5,1.5-.8,3.2-2.6,6-5.7,8.3-9.1.4-.6,1.3-.8,1.9-.4.6.4.8,1.3.4,1.9-2.5,3.7-5.4,7-8.9,9.7-.9.7-1.9,1.4-3.1,1.4Z" style="fill: #215c8d;"/>
        <path d="M154.8,155.3c0,0-.2,0-.2,0-3.7-.6-6.4-3.4-8.2-5.5-1.9-2.2-3.6-4.6-5-7.1-.7-1.3-1.4-2.7-1.2-4.3.1-.7.8-1.2,1.5-1.1.7.1,1.3.8,1.1,1.5-.1.7.3,1.5.8,2.6,1.3,2.4,2.9,4.6,4.7,6.7,1.5,1.7,3.8,4.1,6.6,4.5.7.1,1.2.8,1.1,1.6-.1.7-.7,1.1-1.3,1.1Z" style="fill: #215c8d;"/>
        <path d="M232.9,188.7c-.9,0-1.8,0-2.7-.3-.7-.2-1.2-.9-1.1-1.6.2-.7.9-1.2,1.6-1.1,3.4.7,7.1-.3,9.7-2.7.8-.8,1.6-1.7,2.3-2.7l2.9-3.7c.5-.6,1.3-.7,1.9-.2.6.5.7,1.3.2,1.9l-2.9,3.7c-.8,1-1.6,2.1-2.6,3-2.5,2.4-6,3.7-9.4,3.7Z" style="fill: #215c8d;"/>
        <path d="M167,188.7c-1.3,0-2.7-.4-4.1-1.1-2-1.1-3.6-2.8-5-4.3l-6.6-7.1c-.5-.6-.5-1.4,0-1.9.6-.5,1.4-.5,1.9,0l6.6,7.1c1.3,1.4,2.7,2.9,4.3,3.8,1.3.7,3.2,1.1,4.6.3.7-.4,1.5-.1,1.8.5.4.7.1,1.5-.5,1.8-.9.5-2,.8-3.2.8Z" style="fill: #215c8d;"/>
        <g>
          <g>
            <g>
              <path d="M288.1,264.3c-8.3-24.6-19.8-58.1-39.5-56.7-6.2.4-12.3.9-18.5,1.3-9.2.7-13.1,7.7-21.4,9.1s-21.1,3.2-28.9-.3c-2.9-1.3-4.3-5.2-7.4-6.8s-6-1.7-9-1.9c-6.2-.4-12.3-.9-18.5-1.3-19.7-1.4-31.2,32.1-39.5,56.7-9.8,29-15.8,61.4-17.2,94.3,12.8.7,23.3,21.8,36,18.9,9.6-2.2,12.4-3.3,21.5,1.8,6.2,3.5,12.7,8.6,20.3,7.2,5.8-1,10.5-5.7,16.3-6.1,9-.7,16.9,9,25.7,6.9,5.9-1.4,10.9-8,16.7-6.2,2.1.6,3.7,2.3,5.7,3.2,11,4.9,19.3-10.8,29.7-9.9,3.1.3,5.9,2.3,9,3,12.7,2.9,23.2-18.2,36-18.9-1.3-33-7.3-65.3-17.2-94.3Z" style="fill: #2e2e2e;"/>
              <path d="M205.6,389c-4,0-7.8-1.9-11.5-3.7-3.9-1.9-7.6-3.8-11.5-3.5-2.9.2-5.5,1.6-8.3,3-2.5,1.3-5.1,2.6-7.9,3.1-6.9,1.2-12.9-2.4-18.2-5.6-1-.6-2.1-1.2-3.1-1.8-8.1-4.6-10.6-4-18.8-2.1l-1.7.4c-7.5,1.7-14.1-4-20.4-9.5-5.2-4.5-10.5-9.1-16-9.4-.7,0-1.3-.7-1.3-1.4,1.3-32.6,7.3-65.4,17.2-94.7,8.3-24.4,19.6-57.6,39.6-57.6s.9,0,1.3,0l18.5,1.3c2.7.2,6.5.5,9.6,2.1,1.8.9,3,2.4,4.1,3.8,1,1.3,2,2.4,3.2,3,7.8,3.5,22,1.2,28.1.2,3.6-.6,6.3-2.3,9.2-4.2,3.5-2.2,7.1-4.5,12.3-4.9l18.5-1.3c20.8-1.5,32.4,32.6,40.9,57.6h0c10,29.3,15.9,62.1,17.2,94.7,0,.7-.5,1.4-1.3,1.4-5.5.3-10.8,4.9-16,9.4-6.4,5.5-12.9,11.2-20.4,9.5-1.4-.3-2.8-.9-4.1-1.5-1.6-.7-3.1-1.4-4.6-1.5-4.1-.3-8,2.3-12.2,5.2-5.5,3.8-11.1,7.7-17.9,4.6-1-.4-1.8-1-2.6-1.5-1-.7-1.9-1.3-2.9-1.6-2.9-.9-5.7.8-8.9,2.8-2.2,1.4-4.5,2.8-7.1,3.4-1,.2-1.9.3-2.9.3ZM183.4,379c4.2,0,8.1,1.9,11.9,3.8,4.3,2.1,8.4,4.2,12.6,3.2,2.1-.5,4.2-1.8,6.3-3.1,3.5-2.1,7-4.4,11.2-3.1,1.4.4,2.5,1.2,3.7,1.9.8.5,1.5,1,2.2,1.3,5.4,2.4,10.2-.9,15.3-4.4,4.4-3,8.9-6.1,14-5.6,1.9.2,3.7,1,5.5,1.7,1.3.6,2.5,1.1,3.6,1.3,6.1,1.4,11.9-3.6,18-8.9,5.1-4.4,10.4-9,16.3-9.9-1.4-31.9-7.3-64-17-92.7-8.2-24.1-19.3-57-38.1-55.7l-18.5,1.3c-4.6.3-7.7,2.3-11.1,4.5-3,1.9-6.1,3.9-10.2,4.6-10.4,1.7-22.1,3-29.6-.4-1.7-.8-3-2.3-4.1-3.7-1-1.3-2-2.5-3.3-3.1-2.4-1.3-5.3-1.6-8.5-1.8l-18.5-1.3c-.4,0-.7,0-1.1,0-18.1,0-29,32.2-37,55.8-9.7,28.7-15.6,60.7-17,92.7,5.9.9,11.2,5.5,16.3,9.9,6.1,5.3,11.9,10.3,18,8.9l1.7-.4c8.3-1.9,11.8-2.7,20.8,2.4,1,.6,2.1,1.2,3.1,1.9,5.1,3.1,10.4,6.3,16.3,5.2,2.5-.4,4.8-1.6,7.2-2.9,2.9-1.5,5.9-3,9.3-3.3.3,0,.7,0,1,0Z"/>
            </g>
            <path d="M222.1,279.9c-.7.5-1,1.3-1.3,2.1-1.5,4.6-2.3,9.4-2.4,14.3,0,2.6.9,5.9,3.4,5.9,3,0,3.3-4.4,5.3-6.6,2.7,5.6-.1,13.3,4,18,1.5-3.1,2.9-6.1,4.4-9.2.5-1.1,1.2-2.4,2.4-2.6,1.3-.2,2.4.9,3.1,1.9,4.1,6.2,3,15.7,9.2,19.8,1.7-1.1,1.8-3.5,1.8-5.5,0-8.6,0-17.2.1-25.8,2.8,1.9,5.3,4.2,7.3,6.9,2-4.7,1.1-10.4-2.1-14.3,1.9-.1,3.8-.2,5.7-.3-.3-6.6-3.1-12.8-5.8-18.8-3-6.6-5.1-4.7-9.2-1.4s-5.8,2.5-9.8,2.6c-3.4,0-6-.2-8,2.9-1.3,1.9-.8,4.7-2.1,6.6-2,2.9-3.8,1.7-6.2,3.3Z" style="fill: #584e3a;"/>
            <path d="M240.7,337.9h0c-.8,0-1.3-.7-1.3-1.4.3-7.9-3.2-41.4-5.5-63.6-.9-8.4-1.6-15-1.8-18,0-.7.5-1.4,1.2-1.5.7,0,1.4.5,1.5,1.2.3,3,.9,9.6,1.8,17.9,2.3,22.3,5.9,56,5.5,64,0,.7-.6,1.3-1.4,1.3Z"/>
            <path d="M274.4,281c-.7,0-1.3-.5-1.3-1.2-1.2-10.6-4.5-21.1-9.5-30.4l-.9-1.7c-1.6-3-3.3-6-4-9.4-.2-.7.3-1.5,1-1.6.7-.2,1.5.3,1.6,1,.6,3,2.1,5.8,3.7,8.7l.9,1.7c5.2,9.7,8.5,20.5,9.8,31.4,0,.7-.5,1.4-1.2,1.5,0,0-.1,0-.2,0Z"/>
            <g>
              <path d="M133.4,205.1c-3.9-1.4-7.7,3.5-6.9,7.6.9,4.1,4.5,6.9,8.1,9,10.4,6.1,24.3,11.2,36.4,12.4,15.6,1.5,31.5,8,47.3,5.4,1.1-.2,2.2-.4,3-1.2.8-.7,1.2-1.8,1.8-2.7,3-4.9,11.9-5.9,16.9-7.6,7.3-2.5,14.2-4.6,20.5-9.2,4.4-3.2,8.4-8.9,5.9-13.7-.9-1.7-2.5-2.9-3.1-4.7-1.4-3.9,2-8.8-.4-12.1-1.5-2-4.5-2.3-6.9-1.3-2.3,1-4.1,2.8-6,4.6-14.6,13.5-35.8,18.2-55.7,16.7-14.8-1.1-29-5.3-42.9-10.1-3.8-1.3-12.1-6.2-16.3-4.7-3.5,1.3-6.7,10.1-1.7,11.9Z" style="fill: #2e2e2e;"/>
              <path d="M210.6,241.5c-7.9,0-15.8-1.6-23.4-3.2-5.4-1.1-11-2.3-16.4-2.8-11.4-1.1-25.6-6-36.9-12.6-3.3-1.9-7.7-5-8.7-9.9-.6-2.7.5-5.9,2.8-7.8.7-.6,1.4-1,2.1-1.3-.4-.8-.6-1.8-.6-2.9,0-3.7,2.5-8,5.2-9,3.6-1.3,9.2,1.2,13.7,3.2,1.4.6,2.6,1.2,3.5,1.5,12.3,4.3,27,8.9,42.6,10.1,21.8,1.6,41.7-4.3,54.7-16.3l.7-.7c1.7-1.6,3.4-3.2,5.7-4.1,2.8-1.1,6.6-.9,8.5,1.8,1.7,2.3,1.1,5,.7,7.4-.3,1.8-.7,3.6-.1,5,.3.8.9,1.5,1.5,2.3.6.7,1.1,1.4,1.6,2.2,2.8,5.4-1.1,11.6-6.3,15.4-5.8,4.3-11.9,6.4-18.4,8.6l-2.4.8c-1.3.4-2.8.8-4.4,1.2-4.6,1.2-9.9,2.6-11.8,5.8-.2.3-.3.5-.4.8-.4.7-.8,1.6-1.6,2.3-1.1.9-2.4,1.3-3.7,1.5-2.6.4-5.2.6-7.9.6ZM132,206.3c-1,0-1.8.6-2.3,1-1.5,1.3-2.3,3.5-1.9,5.2.8,3.8,4.6,6.4,7.4,8.1,11,6.5,24.8,11.1,35.8,12.2,5.5.5,11.2,1.7,16.6,2.9,10,2.1,20.3,4.2,30.3,2.6.8-.1,1.8-.3,2.3-.8.4-.3.7-.9,1-1.5.2-.3.3-.6.5-1,2.5-4.2,8.4-5.7,13.5-7,1.5-.4,3-.8,4.1-1.2l2.5-.8c6.3-2.1,12.3-4.2,17.7-8.2,4.1-3,7.6-8.1,5.5-12-.3-.6-.8-1.2-1.3-1.8-.7-.9-1.5-1.9-1.9-3.1-.8-2.1-.4-4.4,0-6.4.4-2.2.8-4-.2-5.4-1.1-1.5-3.5-1.6-5.2-.9-1.8.7-3.3,2.1-4.8,3.6l-.7.7c-13.5,12.5-34.2,18.7-56.7,17-15.9-1.2-30.8-5.8-43.3-10.2-1-.4-2.3-.9-3.7-1.6-3.6-1.6-9.1-4.1-11.7-3.2-1.5.5-3.4,3.7-3.4,6.5,0,2.2,1.2,2.7,1.7,2.8,0,0,0,0,0,0h0l-.9,2.6s0,0,0,0c-.3-.1-.6-.2-.9-.2Z"/>
            </g>
            <path d="M155.8,322.8c-.7,0-1.3-.6-1.4-1.3-.4-10,2.7-47.2,4.1-63l.3-3.7c0-.8.8-1.3,1.5-1.2.8,0,1.3.7,1.2,1.5l-.3,3.7c-1.2,14.4-4.5,52.8-4.1,62.7,0,.8-.6,1.4-1.3,1.4h0Z"/>
            <path d="M119.1,281c0,0-.1,0-.2,0-.7,0-1.3-.8-1.2-1.5,1.2-10.9,4.6-21.7,9.8-31.4l.9-1.7c1.6-2.9,3.1-5.7,3.7-8.7.2-.7.9-1.2,1.6-1,.7.2,1.2.9,1,1.6-.7,3.4-2.4,6.5-4,9.4l-.9,1.7c-5,9.4-8.3,19.9-9.5,30.4,0,.7-.7,1.2-1.3,1.2Z"/>
          </g>
          <path d="M194.3,345.9c-.7,0-1.2-.5-1.3-1.2-2.6-18.3-3.5-37-2.6-55.5,0-.8.7-1.3,1.4-1.3.8,0,1.3.7,1.3,1.4-.9,18.3,0,36.8,2.6,55,.1.7-.4,1.4-1.2,1.5,0,0-.1,0-.2,0Z"/>
          <g>
            <path d="M85.6,133.2c1,5.3,4,10,6.9,14.6,8.8,13.6,16.6,30.3,28.3,41.7,11.2,10.8,23.7,11,36.4,17.4,2.8,1.4,5,3.7,8,4.9,7.7,3.1,16.3,3.3,24.4,2.4,9.5-1.1,18.7-4.1,28.2-4.8,8.1-.6,15.8-1.1,23.8-3.3,17.1-4.6,23.2-18.8,30.1-33.6,7.2-15.4,12.8-32.1,11.9-49.3-.6-10.6-2.2-22.4-4.4-32.8-1.7-8.2-8.9-16.1-14.3-22.5-22.4-26.4-62.7-58.3-97.9-39.2-25.4,13.8-58.3,29.3-72.1,56.4-3.8,7.5-7.7,20.3-9.3,31.8-.9,6.2-1.1,12-.2,16.4ZM133.9,162.8c.5.2,1,.3,1.5.5,2.2-3.8-3.8-15-4.6-19.5-1.1-5.9-1.8-14,3.6-18.1,2.8-2.1,6.4-2.9,9.9-3.5,4.5-.8,9.2-1.2,13.7-1.5,3.9-.2,7.5-1.7,11.3-2.2,1.4-.2,2.9-.3,4.2-.8,1.9-.7,3.4-1.9,4.9-3.2,1-.9,4.8-5.2,5.9-4.6s-.2,3.5,1.5,4.2c1.5-1.6,3.1-3.2,4.6-4.8.6-.6,1.5-1.3,2.2-.7.3.2.4.7.5,1,.4,1.8.7,3.6,1.1,5.4,2.7-1.5,5.7-2.7,8.7-3.5-1,.3-3.7,4.6-4.5,5.6,4.2.8,10.5-1.3,14.9-1.6,6.2-.4,12.5-.7,18.7-.7,6.2,0,14.9-2,20.1,1.4,7.2,4.8,7.9,12.9,9.2,20.5,1.4,8.1-1.1,20-6.4,26.8,1.4-.2,2.8-.4,4.1-.6-2.7,4.5-5.6,8.9-8.8,13.1,1.9-.2,3.9-.4,5.8-.5-3,3.5-6.3,6.6-10,9.4-.2-1.5-.3-3.1-.3-4.6-2.3,2.1-4.5,4.1-6.8,6.2.2-.8.1-1.7-.3-2.4-2.1,1.8-2.9,3.8-4.7,5.5-.7.7-8.2,3.9-8.2,4.1-18.5,5.7-36.5,6.4-55.5,3.5-6.4-1-13.3-3.1-18.1-7.7-1.4-1.4-10.3-15.1-10.1-15.4-.4,1.2-.8,2.4-1.2,3.6-1.2-1.9-2.4-4-3.4-6-1.5-2.8-2.7-5.7-3.5-8.6Z" style="fill: #2e2e2e;"/>
            <path d="M181.8,215.9c-6.4,0-12-1-17-3-1.8-.7-3.3-1.8-4.8-2.8-1.1-.8-2.2-1.6-3.4-2.1-4.5-2.2-9-3.7-13.3-5.2-8.2-2.7-16-5.3-23.5-12.4-8.6-8.3-15.1-19.3-21.3-30-2.5-4.2-4.8-8.1-7.2-11.9-2.8-4.4-6-9.4-7.1-15-.8-4.3-.7-10,.2-16.8,1.6-11.2,5.4-24.2,9.5-32.2,12.6-24.9,40.5-39.8,65.2-53,2.6-1.4,5.1-2.7,7.5-4,33.4-18.1,73.3,8.5,99.6,39.5l1.3,1.5c5.2,6.1,11.7,13.7,13.3,21.6,2.3,11.2,3.8,22.9,4.4,33,.8,14.9-3,30.8-12,50l-.7,1.5c-6.8,14.5-13.2,28.2-30.3,32.8-8.1,2.2-15.8,2.8-24,3.3-5.1.4-10.3,1.5-15.2,2.5-4.2.9-8.6,1.8-13,2.3-2.8.3-5.5.5-8.1.5ZM190,24.2c-7.5,0-15,1.7-22.1,5.6-2.4,1.3-4.9,2.7-7.5,4-24.3,13-51.8,27.7-64,51.8-3.9,7.7-7.7,20.6-9.2,31.4-.9,6.5-1,12-.3,15.9h0c1,5.1,4,9.9,6.7,14.1,2.5,3.8,4.8,7.8,7.3,12,6.2,10.5,12.5,21.4,20.9,29.4,7,6.7,14.5,9.2,22.4,11.8,4.4,1.5,9,3,13.7,5.3,1.4.7,2.6,1.5,3.7,2.4,1.4,1,2.7,1.9,4.2,2.5,6.5,2.6,14.3,3.4,23.7,2.3,4.3-.5,8.6-1.4,12.8-2.3,5.1-1.1,10.3-2.2,15.5-2.5,8.1-.6,15.7-1.1,23.6-3.3,15.9-4.3,22-17.4,28.5-31.3l.7-1.5c8.8-18.8,12.6-34.3,11.8-48.7-.5-9.9-2.1-21.5-4.3-32.6-1.5-7.2-7.7-14.5-12.7-20.3l-1.3-1.5c-19.9-23.5-47.8-44.5-74.2-44.5ZM191.6,200c-6.9,0-14-.6-21.5-1.7-8.4-1.3-14.5-3.9-18.8-8,0,0-6-8.2-8.9-13.1l-.3.7c-.2.5-.6.9-1.1.9-.5,0-1-.2-1.3-.7-1.1-1.9-2.4-3.9-3.5-6.1-1.7-3.3-2.9-6.2-3.6-8.9-.1-.5,0-1,.4-1.3.4-.3.9-.4,1.4-.3,0,0,.1,0,.2,0,.3-2.6-1.6-7.7-3-11.2-1-2.6-1.8-4.8-2.1-6.4-1.1-6.1-1.9-14.8,4.2-19.4,3-2.3,6.8-3.1,10.5-3.7,4.1-.7,8.5-1.2,13.9-1.5,2.1-.1,4.1-.6,6.2-1.1,1.6-.4,3.3-.8,5-1.1h.7c1.2-.2,2.3-.4,3.3-.7,1.6-.6,3.1-1.8,4.5-3,.2-.2.6-.6,1-1,2.8-2.9,4.8-4.7,6.4-3.8,1.2.6,1.3,2,1.3,2.9l3.2-3.4c1.4-1.4,2.9-1.8,4-.8.7.6.9,1.4.9,1.8l.7,3.6c2.4-1.2,4.8-2.1,7.4-2.8,0,0,0,0,0,0,.7-.2,1.5.2,1.7,1,.2.7-.2,1.5-1,1.7-.3.2-1.6,2-2.3,3.1,2,0,4.4-.5,6.7-.9,2-.4,3.8-.7,5.5-.9,6.3-.4,12.6-.7,18.8-.7,1.5,0,3.2-.1,5-.3,5.4-.4,11.6-.9,15.8,1.9,7.1,4.7,8.3,12.3,9.5,19.6l.3,1.9c1.2,7-.4,17.7-4.9,25.2l1.1-.2c.5,0,1,.2,1.3.6.3.4.3,1,0,1.5-2.2,3.7-4.5,7.3-7.1,10.7l2.8-.3c.6,0,1.1.2,1.3.7.3.5.2,1.1-.2,1.5-3,3.6-6.5,6.8-10.2,9.6-.4.3-.9.4-1.3.2-.4-.2-.8-.6-.8-1.1,0-.6-.2-1.2-.2-1.8l-4.6,4.2c-.5.4-1.1.5-1.6.2-.2-.1-.4-.3-.5-.6-.2.3-.4.5-.6.8-.7.9-1.3,1.8-2.3,2.7-.5.5-2,1.2-5.8,3-1.1.5-2.1,1-2.5,1.2-.1,0-.3.2-.4.2-11.3,3.5-22.6,5.3-34.7,5.3ZM143.4,173.5c.8,1.6,8.6,13.7,9.8,14.8,3.8,3.7,9.7,6.1,17.4,7.3,20,3,37.4,2,54.8-3.4.5-.3,1.3-.7,2.7-1.3,1.6-.8,4.7-2.2,5.2-2.6.7-.7,1.3-1.4,1.9-2.3.7-1,1.6-2.2,2.8-3.2.3-.3.7-.4,1.1-.3.4,0,.7.3.9.7,0,.1.1.2.2.3l4.8-4.4c.4-.4,1-.5,1.5-.2.5.2.8.7.8,1.3,0,.7,0,1.3,0,2,1.9-1.6,3.8-3.3,5.6-5.1l-2.4.2c-.5,0-1.1-.2-1.3-.7s-.2-1.1.1-1.5c2.6-3.4,5-6.9,7.2-10.5l-1.3.2c-.5,0-1.1-.2-1.4-.7-.3-.5-.2-1.1.1-1.5,4.8-6.1,7.5-17.4,6.1-25.7l-.3-1.9c-1.1-7-2.2-13.7-8.3-17.7-3.4-2.3-9.1-1.9-14.1-1.5-1.9.1-3.6.3-5.2.3-6.2,0-12.4.2-18.6.7-1.5.1-3.3.4-5.2.8-3.5.7-7.1,1.4-10,.8-.5,0-.9-.4-1-.9s0-1,.3-1.3c.3-.3.7-.9,1.2-1.6v-.2c-1.2.5-2.5,1.2-3.7,1.9-.4.2-.8.2-1.2,0s-.7-.5-.8-1l-1.1-5.4c-.1,0-.2.2-.3.3l-4.6,4.8c-.4.4-1,.5-1.5.3-1.7-.7-1.7-2.5-1.8-3.6,0,0,0-.1,0-.2-1,.7-2.4,2.2-3.1,2.8-.5.5-.9.9-1.2,1.2-1.6,1.3-3.3,2.7-5.4,3.5-1.3.4-2.6.6-3.8.8h-.7c-1.6.3-3.2.7-4.8,1.1-2.1.5-4.3,1.1-6.7,1.2-5.3.3-9.6.8-13.6,1.5-3.4.6-6.7,1.3-9.3,3.2-4.8,3.7-4.1,11.4-3.1,16.8.2,1.4,1.1,3.6,2,5.9,2.1,5.6,4.3,11.4,2.5,14.5-.2.3-.4.5-.7.6.7,1.9,1.6,3.9,2.7,6.2.6,1.2,1.3,2.3,1.9,3.4l.3-.8c.2-.7,1-1.1,1.7-.8.5.2.8.5.9,1Z"/>
          </g>
        </g>
        <path d="M150.7,75.6c-.5.6-.6,1.3-.7,2.1-.2,2.2.1,4.5,1.1,6.6.3.8.8,1.5.6,2.4-.2.9-1.1,1.5-2,1.9-1.2.5-2.4,1-3.6,1.3-.8.2-1.6.4-2.2,1s-.9,1.6-.3,2.2c.3.3.8.4,1.2.5,3.1.6,6.3.5,9.4-.1,1.6-.3,3.3-.8,4.8-.1,1.2.5,1.9,1.7,3,2.4,1,.6,2.1.8,3.2,1.1,2.1.4,4.9.6,6-1.3.8-1.4.2-3.2.6-4.8.5-2.3,2.8-3.7,5.1-4.4,2.2-.7,4.6-1,6.6-2.4.9-.6,1.7-1.7,1.4-2.7-.4-1.3-2.1-1.5-3.5-1.8-3.8-.8-4.5-3.4-6.4-6.2-2.9-4.4-2.1-2.9-6.3-.2-5.1,3.3-13.9-1.9-17.9,2.8Z" style="fill: #584e3a;"/>
        <path d="M260.6,100.8c.7,1.9,1.6,3.7,1.8,5.7.1,1.1,0,2.2.7,3.1.4.5.9.8,1.3,1.1,1.8,1.2,3.3,2.8,4.3,4.7,1.4,2.5,1.9,5.6,3.8,7.8.5.7,1.5,1.3,2.2.8.4-.3.6-.8.7-1.3.6-2.5.4-5.2-.4-7.7,1.4,1.1,2.4,2.7,2.9,4.4,1.2-2.3.2-5.2-1.3-7.3-1.6-2.1-3.6-3.8-4.7-6.2-1.8-3.8-1-11.1-5.7-13.1-5.3-2.4-6.8,4-5.4,7.9Z" style="fill: #584e3a;"/>
        <path d="M113.9,148.2c-.9,3.3,1.5,6.4,3.7,9,.2.2.4.5.3.8,0,.3-.4.4-.7.5-.7.2-1.5.4-2.2.6.8,1.5,1.6,3,2.5,4.5,2.6,4.3,5.1,8.5,7.7,12.8.5.9,1.3,1.9,2.3,1.9.9,0,1.6-.9,1.7-1.8.1-.9-.2-1.8-.5-2.6-1.2-3.3-2.8-6.5-4.7-9.4.9,0,1.6-.8,1.6-1.7,0-.9-.4-1.7-.8-2.5-1.9-3.6-5.1-14-11-12Z" style="fill: #584e3a;"/>
        <path d="M172.8,214.3c-.5.4-.9.9-1.5,1.3-1.6,1.1-3.8.7-5.7.5-2.7-.3-5.5-.2-8.2.5-.4.8.6,1.7,1.5,2.1,2.4,1.1,4.8,2.2,7.3,3.3-1.3.8-2.5,1.7-3.8,2.5,3.6,1.8,7.5,2.6,11.5,3.3,5.2,1,10.4,1.9,15.6,2.9-1.4-1.6-3.3-2.8-5.4-3.4,2.2-.8,4.5-1.5,6.7-2.3,1.8-.6,3.9-1.9,3.4-3.7,0,.3-10.4-3-11.5-3.6-2.6-1.7-6.5-5.7-9.9-3.4Z" style="fill: #584e3a;"/>
        <path d="M203.6,226.6c-8.7,0-17.4-1.1-25.9-3.4-.7-.2-1.2-.9-1-1.7s1-1.2,1.7-1c11.2,3,22.6,3.9,34.1,2.9.8,0,1.4.5,1.5,1.2s-.5,1.4-1.2,1.5c-3.1.3-6.1.4-9.2.4Z"/>
        <g>
          <g>
            <g>
              <path d="M189.5,52.9c-.6-.1-1.4-.2-1.8.4-.2.3-.2.7-.2,1.1.3,2.7,2.6,5,5.3,5.4-.8.5-1.7.7-2.6,1.1-.8.4-1.6,1.3-1.4,2.2.2,1.1,1.5,1.6,2.6,1.7,2.3.3,4.6,0,6.7-.8,3.1-1.1,3.3.9,5.6,2.3,2.3,1.4,4.8,2.3,7.4,2.8,1.5.3,3,.4,4.5.1,3.8-.7,7.4-3.9,9.3-7.3,1.4-2.5,2-5.3,3.2-8,.5-1.2.9-1.6,1.8-2.4.8-.6,1.8-2.6,2.6-2.9-.7.3-1.6.1-2.3-.1-.7-.3-1.4-.7-2.1-1-2.1-.8-4.9-1.3-7-.6-2.8,1-4.3,3.8-6.5,5.6-1.7,1.4-4.1,2.4-6.3,2.6-2.5.2-4.9.9-7.4.9-3.6,0-7.8-2.3-11.4-3Z" style="fill: #008eff;"/>
              <path d="M213.9,70.7c-.9,0-1.9,0-2.9-.3-2.8-.5-5.4-1.5-7.9-3-.9-.5-1.5-1.1-1.9-1.5-.9-.9-1.2-1.1-2.5-.6-2.3.9-4.9,1.2-7.4.9-2.1-.2-3.6-1.3-3.8-2.8-.3-1.5.7-2.8,1.9-3.5-1.7-1.2-2.9-3.1-3.2-5.2,0-.3-.2-1.3.4-2.1.6-.9,1.7-1.2,3.2-.9h0c1.6.3,3.2.9,4.8,1.4,2.2.8,4.4,1.5,6.3,1.6,1.3,0,2.6-.2,4-.4,1.1-.2,2.2-.4,3.3-.4,1.9-.1,4-1,5.6-2.3.7-.6,1.3-1.3,2-2,1.3-1.5,2.7-3.1,4.9-3.8,3-1,6.6,0,8,.6.4.2.8.4,1.3.6.3.2.6.3.9.4.5.2,1,.3,1.3.2h0c.7-.3,1.5,0,1.8.7s0,1.5-.7,1.8h0c-.2.1-.7.8-1,1.2-.4.6-.9,1.2-1.3,1.6-.8.6-1,.9-1.4,1.9-.4,1-.8,2-1.1,3.1-.6,1.7-1.2,3.4-2.1,5-1.9,3.4-5.8,7.2-10.3,8-.6.1-1.3.2-2,.2ZM199.8,62.3c1.5,0,2.4.8,3.3,1.6.4.4.9.8,1.5,1.2,2.2,1.3,4.5,2.2,6.9,2.6,1.5.3,2.9.3,4,.1,3.6-.6,6.8-3.8,8.4-6.6.8-1.4,1.3-3,1.9-4.6.4-1.1.8-2.2,1.2-3.2.6-1.4,1.2-2.1,2.2-2.9.2-.1.4-.4.6-.8-.4-.2-.7-.3-1.1-.5-.3-.2-.6-.3-1-.5-2.3-.9-4.6-1.1-6.1-.5-1.5.5-2.6,1.7-3.7,3-.7.8-1.5,1.6-2.3,2.3-2,1.6-4.6,2.7-7.1,2.9-1,0-2,.2-3,.4-1.4.2-2.8.5-4.3.5,0,0,0,0,0,0-2.4,0-4.8-.9-7.2-1.7-1.6-.5-3.1-1.1-4.4-1.3h0c-.2,0-.3,0-.4,0,0,0,0,0,0,0,.3,2.1,2.1,3.9,4.1,4.2.6,0,1,.5,1.1,1.1.1.6-.1,1.1-.6,1.4-.6.4-1.2.6-1.7.8-.3.1-.7.2-1,.4-.5.2-.7.6-.7.7,0,.2.5.5,1.4.6,2.1.2,4.2,0,6.1-.7.8-.3,1.5-.4,2.1-.4Z"/>
            </g>
            <g>
              <path d="M217.7,54.5c-1.5-.4-2.8-1.5-3.8-2.8-1-1.3-1.7-2.7-2.4-4.1-.5-.8-1-1.7-1.8-2.1-.9-.4-1.9-.3-2.9-.3-2.1,0-4.1-.9-6.2-1.6-.8-.3-1.6-.5-2.4-.4s-1.6.5-1.9,1.3c-.3,1,.3,2.1,1.1,2.8.8.9,1.8,1.7,2.8,2.4-.9.7-1.7,1.7-2.2,2.7-.1.2-.2.5-.2.8,0,.3.2.5.5.7,1.5,1.4,3.5,2.3,5.5,2.4-.5.7-.9,1.6-.5,2.4.3.6.9.8,1.5,1,1.4.4,3,.3,4.3-.3-.2.6.1,1.2.7,1.5s1.2.3,1.8.2c1.4-.2,2.8-.7,3.9-1.6" style="fill: #008eff;"/>
              <path d="M210.8,62.5c-.6,0-1.2,0-1.8-.4-.4-.2-.8-.6-1-1-1.2.3-2.4.2-3.6-.1-1.2-.3-1.9-.9-2.3-1.7-.3-.7-.3-1.3-.2-1.9-1.7-.4-3.3-1.3-4.5-2.5-.3-.3-.7-.8-.8-1.5,0-.6.1-1.1.3-1.5.4-.7.8-1.4,1.3-2-.6-.5-1.1-1-1.7-1.6-1.7-1.8-1.7-3.3-1.4-4.2.4-1.2,1.6-2.1,3.1-2.2,1.1-.1,2.1.2,2.9.5l1,.4c1.6.6,3.2,1.2,4.7,1.2h.6c.9,0,1.9,0,2.9.4,1.3.6,2,1.9,2.4,2.6l.5.9c.6,1.1,1.1,2.1,1.8,3,.6.8,1.7,1.9,3,2.3.7.2,1.2.9,1,1.7s-.9,1.2-1.7,1c-1.7-.4-3.2-1.6-4.5-3.3-.8-1.1-1.4-2.2-2-3.3l-.5-.9c-.3-.6-.7-1.3-1.2-1.5-.4-.2-1-.2-1.6-.2-.2,0-.5,0-.7,0-2,0-3.8-.7-5.6-1.3l-1-.4c-.6-.2-1.3-.4-1.8-.4-.4,0-.7.2-.7.4,0,.2,0,.7.8,1.5.8.8,1.6,1.5,2.5,2.2.4.2.6.6.6,1.1s-.2.8-.5,1.1c-.7.6-1.3,1.3-1.8,2.2,1.3,1.2,2.9,1.9,4.6,2,.5,0,.9.3,1.2.7.2.4.2.9,0,1.4-.6.9-.5,1.1-.5,1.1,0,0,.2.2.6.3,1.1.3,2.3.2,3.4-.3.5-.2,1.1-.1,1.5.3.3.3.5.8.4,1.3.2.1.5.1.9,0,1.2-.2,2.3-.6,3.3-1.3.6-.4,1.5-.3,1.9.3.4.6.3,1.5-.3,1.9-1.3,1-2.9,1.6-4.6,1.8-.2,0-.5,0-.8,0Z"/>
            </g>
            <circle cx="223.5" cy="50.5" r=".8"/>
          </g>
          <g>
            <g>
              <path d="M238.9,8.8c.6-.1,1.4-.2,1.8.4.2.3.2.7.2,1.1-.3,2.7-2.6,5-5.3,5.4.8.5,1.7.7,2.6,1.1s1.6,1.3,1.4,2.2c-.2,1.1-1.5,1.6-2.6,1.7-2.3.3-4.6,0-6.7-.8-3.1-1.1-3.3.9-5.6,2.3-2.3,1.4-4.8,2.3-7.4,2.8-1.5.3-3,.4-4.5.1-3.8-.7-7.4-3.9-9.3-7.3-1.4-2.5-2-5.3-3.2-8-.5-1.2-.9-1.6-1.8-2.4-.8-.6-1.8-2.6-2.6-2.9.7.3,1.6.1,2.3-.1s1.4-.7,2.1-1c2.1-.8,4.9-1.3,7-.6,2.8,1,4.3,3.8,6.5,5.6,1.7,1.4,4.1,2.4,6.3,2.6,2.5.2,4.9.9,7.4.9,3.6,0,7.8-2.3,11.4-3Z" style="fill: #008eff;"/>
              <path d="M214.6,26.5c-.7,0-1.4,0-2-.2-4.5-.8-8.4-4.6-10.3-8-.9-1.6-1.5-3.4-2.1-5-.4-1-.7-2.1-1.1-3.1-.4-1-.7-1.2-1.4-1.9-.5-.4-.9-1-1.3-1.6-.3-.4-.8-1-1-1.2-.7-.3-1-1.1-.7-1.8.3-.7,1.1-1,1.8-.7h0c.3.1.7,0,1.3-.1.3-.1.6-.3.9-.4.4-.2.8-.4,1.3-.6,1.4-.5,4.9-1.6,8-.6,2.1.7,3.5,2.3,4.9,3.8.7.8,1.3,1.5,2,2,1.6,1.3,3.7,2.1,5.6,2.3,1.1,0,2.2.3,3.3.4,1.4.2,2.6.5,4,.4,1.9,0,4.2-.8,6.3-1.6,1.6-.6,3.2-1.1,4.8-1.4,1.5-.3,2.5,0,3.2.9.6.8.5,1.8.4,2.1-.3,2.1-1.5,4-3.2,5.2,1.2.7,2.2,2,1.9,3.5-.3,1.5-1.7,2.6-3.8,2.8-2.5.3-5,0-7.4-.9-1.3-.5-1.5-.3-2.5.6-.5.5-1.1,1-1.9,1.5-2.4,1.5-5.1,2.5-7.9,3-1,.2-2,.3-2.9.3ZM198.7,5.5c.2.3.5.6.6.8,1.1.8,1.6,1.5,2.2,2.9.5,1.1.8,2.2,1.2,3.2.6,1.6,1.1,3.2,1.9,4.6,1.6,2.8,4.8,6,8.4,6.6,1.1.2,2.4.2,4-.1,2.4-.4,4.8-1.3,6.9-2.6.6-.4,1-.8,1.5-1.2,1.1-1.1,2.4-2.3,5.3-1.2,1.9.7,4.1,1,6.1.7.9-.1,1.4-.4,1.4-.6,0-.1-.2-.5-.7-.7-.3-.2-.6-.3-1-.4-.5-.2-1.1-.4-1.7-.8-.5-.3-.7-.9-.6-1.4.1-.6.6-1,1.1-1.1,2.1-.3,3.9-2.2,4.1-4.2,0,0,0,0,0,0,0,0-.2,0-.4,0h0c-1.4.3-2.9.8-4.4,1.3-2.4.8-4.8,1.7-7.2,1.7-1.6,0-3-.2-4.4-.5-1-.2-2-.3-3-.4-2.4-.2-5.1-1.2-7.1-2.9-.9-.7-1.6-1.5-2.3-2.3-1.2-1.3-2.3-2.5-3.7-3-1.5-.5-3.8-.3-6.1.5-.3.1-.7.3-1,.5-.4.2-.7.4-1.1.5ZM238.9,8.8h0,0Z"/>
            </g>
            <g>
              <path d="M212,10.8c1.3.8,3,1,4.6.8s3.1-.6,4.6-1c.9-.2,1.9-.4,2.8,0,.9.4,1.5,1.2,2.2,1.9,1.5,1.5,3.5,2.4,5.4,3.4.7.4,1.4.8,2,1.4.5.6.7,1.6.4,2.3-.5.9-1.7,1.2-2.8,1.2-1.2,0-2.4-.1-3.6-.4.1,1.2,0,2.4-.5,3.4,0,.2-.2.5-.4.6-.2.2-.5.2-.8.2-2.1,0-4.1-1-5.5-2.4-.2.8-.6,1.8-1.4,2.1-.6.2-1.2,0-1.7-.4-1.2-.8-2.2-2-2.7-3.4-.2.6-1,.7-1.6.6s-1-.7-1.4-1.2c-.8-1.2-1.4-2.5-1.6-3.9" style="fill: #008eff;"/>
              <path d="M225.9,25.9c0,0-.1,0-.2,0-1.7,0-3.5-.6-4.9-1.6-.3.5-.8,1-1.5,1.2-.9.3-1.8,0-2.9-.5-1.1-.6-1.9-1.5-2.6-2.6-.5,0-.9,0-1.4,0-1-.3-1.7-1.1-2.1-1.7-1-1.3-1.6-2.9-1.8-4.6,0-.7.4-1.4,1.2-1.5.7-.1,1.4.4,1.5,1.2.2,1.2.6,2.3,1.3,3.3.3.4.5.6.7.7.3-.4.7-.6,1.2-.6.6,0,1,.4,1.2.9.4,1.1,1.1,2,2.1,2.6.4.2.6.3.6.3,0,0,.2-.1.5-1.1.1-.5.5-.8,1-1,.5-.1,1,0,1.3.3,1.2,1.2,2.9,1.9,4.6,2,.3-1,.5-1.9.4-2.8,0-.4.1-.9.5-1.1.3-.3.8-.4,1.2-.3,1.1.2,2.2.4,3.3.4,1,0,1.5-.2,1.6-.4,0-.2,0-.5-.2-.8-.3-.4-.9-.8-1.5-1.1l-.9-.5c-1.7-.8-3.4-1.7-4.8-3.2-.2-.2-.3-.4-.5-.5-.4-.5-.8-.9-1.2-1.1-.5-.2-1.3,0-1.9.1l-1,.3c-1.2.3-2.5.7-3.8.8-2.1.2-4-.1-5.4-1-.6-.4-.8-1.2-.4-1.9.4-.6,1.2-.8,1.9-.4,1.2.7,2.7.7,3.7.6,1.1-.1,2.2-.4,3.4-.7l1-.3c1.2-.3,2.4-.5,3.6,0,1,.4,1.7,1.1,2.3,1.8.1.2.3.3.4.5,1.1,1.1,2.6,1.9,4.1,2.6l1,.5c.8.4,1.7.9,2.4,1.8.9,1.1,1.1,2.6.5,3.7-.5.9-1.5,1.9-4,1.9-.8,0-1.5,0-2.3-.1,0,.8-.3,1.6-.5,2.3,0,.3-.3.9-.9,1.3-.5.3-1,.4-1.5.4Z"/>
            </g>
            <circle cx="204.9" cy="6.4" r=".8"/>
          </g>
          <g>
            <g>
              <path d="M157.3,9.9c.6-.3,1.3-.6,1.8-.1.3.2.4.6.5,1,.4,2.7-1.2,5.5-3.6,6.6.9.3,1.9.2,2.8.4.9.2,1.9.8,2,1.7.1,1.1-1,1.9-2.1,2.3-2.1.8-4.4,1.2-6.7,1-3.2-.3-2.9,1.7-4.8,3.7-1.8,1.9-4,3.5-6.4,4.7-1.3.6-2.8,1.1-4.3,1.3-3.9.4-8.2-1.8-10.9-4.5-2-2-3.4-4.6-5.2-6.8-.8-1-1.3-1.3-2.4-1.8-.9-.4-2.4-2-3.3-2.1.8,0,1.5-.3,2.2-.7.6-.5,1.2-1.1,1.8-1.5,1.8-1.3,4.4-2.5,6.6-2.4,2.9.2,5.1,2.5,7.7,3.7,2.1.9,4.6,1.2,6.8.8s4.9-.4,7.3-1.1c3.5-1,6.9-4.3,10.2-5.9Z" style="fill: #008eff;"/>
              <path d="M135.6,33.8c-4.2,0-8.5-2.4-11-5-1.3-1.3-2.3-2.8-3.3-4.3-.6-.9-1.2-1.8-1.9-2.6-.6-.8-1-1-1.9-1.4-.6-.2-1.1-.7-1.7-1.1-.4-.3-1-.8-1.3-.9-.7-.1-1.2-.8-1.2-1.5,0-.7.8-1.3,1.5-1.2h0c.3,0,.7-.1,1.2-.5.3-.2.5-.4.7-.6.3-.3.7-.6,1.1-.9,1.2-.9,4.3-2.8,7.5-2.7,2.2.1,4,1.3,5.7,2.4.9.5,1.7,1.1,2.5,1.4,1.8.8,4.1,1.1,6,.7,1.1-.2,2.2-.3,3.3-.4,1.4-.1,2.7-.3,3.9-.6,1.8-.5,3.8-1.9,5.7-3.2,1.4-1,2.8-2,4.3-2.7h0c1.3-.7,2.4-.7,3.3,0,.8.6.9,1.6,1,1.9.3,2.1-.4,4.3-1.7,5.9,1.3.4,2.6,1.3,2.8,2.8.2,1.5-.9,2.9-2.9,3.7-2.3.9-4.9,1.3-7.3,1.1-1.4-.1-1.6.1-2.2,1.3-.3.6-.8,1.3-1.5,2-2,2.1-4.3,3.7-6.8,5-1.7.8-3.3,1.3-4.7,1.4-.3,0-.6,0-1,0ZM117.7,17.4c.3.2.6.5.8.6,1.2.5,2,1,2.9,2.2.7.9,1.4,1.8,2,2.8,1,1.4,1.9,2.8,3,3.9,2.3,2.3,6.2,4.5,9.8,4.1,1.2-.1,2.4-.5,3.8-1.2,2.3-1.1,4.3-2.5,6-4.4.5-.5.8-1,1.1-1.5.8-1.3,1.7-2.8,4.8-2.6,2.1.2,4.2-.1,6.1-.9.9-.4,1.2-.8,1.2-.9,0-.1-.4-.4-.9-.5-.3,0-.7,0-1-.1-.6,0-1.2,0-1.9-.3-.5-.2-.9-.7-1-1.2,0-.6.3-1.1.8-1.3,1.9-.8,3.2-3.1,2.8-5.2,0,0,0,0,0,0,0,0-.2,0-.4.2h0c-1.3.6-2.6,1.5-3.9,2.5-2.1,1.4-4.2,2.9-6.5,3.6-1.5.4-3,.6-4.4.7-1.1.1-2.1.2-3,.4-2.4.5-5.2.2-7.6-.9-1-.5-2-1-2.9-1.6-1.5-.9-2.9-1.8-4.4-1.9-1.6,0-3.8.7-5.7,2.2-.3.2-.6.5-.8.7-.3.3-.6.5-.9.8ZM157.3,9.9h0,0Z"/>
            </g>
            <g>
              <path d="M131.5,18.5c1.5.6,3.1.5,4.7.1,1.5-.4,3-1.1,4.4-1.7.9-.4,1.8-.7,2.7-.5,1,.2,1.7,1,2.5,1.6,1.7,1.3,3.8,1.8,5.9,2.5.8.3,1.6.6,2.1,1.1.6.6,1,1.4.7,2.2-.3,1-1.5,1.4-2.6,1.6-1.2.2-2.4.2-3.6.2.3,1.1.3,2.3,0,3.5,0,.3-.1.5-.3.7-.2.2-.5.3-.8.3-2,.2-4.2-.3-5.8-1.5,0,.9-.3,1.9-1.1,2.3-.6.3-1.2.1-1.8-.1-1.4-.6-2.5-1.6-3.2-2.9-.2.6-.9.9-1.5.8-.6,0-1.1-.5-1.5-.9-1-1-1.8-2.3-2.2-3.7" style="fill: #008eff;"/>
              <path d="M139.6,32.2c-.5,0-1.1-.1-1.6-.4-1.1-.5-2.1-1.2-2.9-2.1-.4.2-.9.2-1.4.1-1-.2-1.8-.8-2.3-1.3-1.2-1.2-2-2.6-2.5-4.2-.2-.7.2-1.5.9-1.7.7-.2,1.5.2,1.7.9.3,1.2,1,2.2,1.8,3.1.3.3.6.5.8.5.2-.4.6-.8,1.1-.8.6,0,1.1.2,1.4.7.5,1,1.4,1.8,2.5,2.3.5.2.7.1.7.1,0,0,.2-.2.3-1.2,0-.5.4-.9.8-1.1.4-.2,1-.1,1.3.1,1.4,1,3.1,1.5,4.8,1.3.2-1,.2-1.9,0-2.8-.1-.4,0-.9.3-1.2.3-.3.7-.5,1.1-.5,1.1,0,2.2,0,3.3-.2,1-.2,1.4-.5,1.5-.7,0-.2,0-.5-.3-.8-.4-.4-1-.6-1.7-.8l-1-.3c-1.8-.6-3.6-1.2-5.3-2.4-.2-.1-.4-.3-.6-.5-.5-.4-.9-.8-1.4-.9-.5-.1-1.3.2-1.9.4l-.9.4c-1.2.5-2.4,1-3.7,1.4-2.1.5-4,.5-5.5-.2-.7-.3-1-1.1-.7-1.8.3-.7,1.1-1,1.8-.7,1.3.5,2.8.3,3.8,0,1.1-.3,2.1-.8,3.3-1.3l1-.4c1-.4,2.2-.9,3.5-.6,1.1.2,1.8.9,2.5,1.4.2.1.3.3.5.4,1.2.9,2.8,1.4,4.5,2l1,.3c.9.3,1.8.7,2.6,1.4,1.1,1,1.5,2.4,1.1,3.6-.3.9-1.2,2.1-3.7,2.5-.8.1-1.5.2-2.3.2,0,.8,0,1.6-.2,2.4,0,.4-.2,1-.7,1.4-.5.5-1.1.6-1.6.7-1.7.2-3.5,0-5.1-.8-.3.6-.7,1.1-1.3,1.4-.4.2-.8.3-1.3.3Z"/>
            </g>
            <circle cx="123.9" cy="16.6" r=".8"/>
          </g>
          <path d="M237.1,59c-.6,0-1.2,0-1.8,0-.7,0-1.3-.7-1.2-1.5,0-.8.7-1.3,1.5-1.2,7.9.6,15.5-3.7,21.7-7.2,2.1-1.2,4.2-2.6,4.3-4.6,0-.8.7-1.3,1.4-1.3.7,0,1.3.7,1.3,1.4-.2,3.2-3,5.2-5.7,6.8-6,3.4-13.4,7.6-21.4,7.6Z"/>
          <g>
            <polygon points="262.2 23.1 265.1 29 271.7 30 266.9 34.6 268.1 41.1 262.2 38.1 256.3 41.1 257.5 34.6 252.7 30 259.3 29 262.2 23.1" style="fill: #ffc200;"/>
            <path d="M268.1,42.5c-.2,0-.4,0-.6-.2l-5.2-2.8-5.2,2.8c-.5.2-1,.2-1.4-.1-.4-.3-.6-.8-.5-1.3l1-5.8-4.2-4.1c-.4-.4-.5-.9-.3-1.4.2-.5.6-.8,1.1-.9l5.8-.8,2.6-5.3c.5-.9,2-.9,2.4,0l2.6,5.3,5.8.8c.5,0,.9.4,1.1.9.2.5,0,1-.3,1.4l-4.2,4.1,1,5.8c0,.5-.1,1-.5,1.3-.2.2-.5.3-.8.3ZM262.2,36.7c.2,0,.4,0,.6.2l3.4,1.8-.7-3.8c0-.4,0-.9.4-1.2l2.8-2.7-3.8-.6c-.4,0-.8-.3-1-.7l-1.7-3.5-1.7,3.5c-.2.4-.6.7-1,.7l-3.8.6,2.8,2.7c.3.3.5.8.4,1.2l-.7,3.8,3.4-1.8c.2-.1.4-.2.6-.2Z"/>
          </g>
          <g>
            <polygon points="151.8 48.9 154.8 54.8 161.3 55.8 156.6 60.4 157.7 66.9 151.8 63.9 146 66.9 147.1 60.4 142.3 55.8 148.9 54.8 151.8 48.9" style="fill: #ffc200;"/>
            <path d="M146,68.3c-.3,0-.6,0-.8-.3-.4-.3-.6-.8-.5-1.3l1-5.8-4.2-4.1c-.4-.4-.5-.9-.3-1.4.2-.5.6-.8,1.1-.9l5.8-.8,2.6-5.3c.2-.5.7-.8,1.2-.8h0c.5,0,1,.3,1.2.8l2.6,5.3,5.8.8c.5,0,.9.4,1.1.9.2.5,0,1-.3,1.4l-4.2,4.1,1,5.8c0,.5-.1,1-.5,1.3-.4.3-1,.3-1.4.1l-5.2-2.8-5.2,2.8c-.2.1-.4.2-.6.2ZM145.3,56.7l2.8,2.7c.3.3.5.8.4,1.2l-.7,3.8,3.4-1.8c.4-.2.9-.2,1.3,0l3.4,1.8-.7-3.8c0-.4,0-.9.4-1.2l2.8-2.7-3.8-.6c-.4,0-.8-.3-1-.7l-1.7-3.5-1.7,3.5c-.2.4-.6.7-1,.7l-3.8.6Z"/>
          </g>
          <path d="M255.2,24.9c-.3,0-.6,0-.9-.3-2.2-1.8-7.7-3.9-9.7-4.5-.7-.2-1.1-1-.9-1.7.2-.7,1-1.1,1.7-.9.3.1,7.5,2.5,10.5,5,.6.5.7,1.3.2,1.9-.3.3-.7.5-1,.5Z"/>
          <path d="M193.2,12.7c-.1,0-.3,0-.4,0-8.3-2.6-28,0-28.2,0-.7,0-1.4-.4-1.5-1.2-.1-.7.4-1.4,1.2-1.5.8-.1,20.5-2.8,29.4,0,.7.2,1.1,1,.9,1.7-.2.6-.7.9-1.3.9Z"/>
          <path d="M139.3,61.5c-.1,0-.2,0-.3,0-.2,0-5.4-1.4-21.2-9.1-5-2.4-7.7-5.5-8.1-9.1-.6-6.3,6.6-11.7,6.9-11.9.6-.5,1.5-.3,1.9.3.4.6.3,1.5-.3,1.9,0,0-6.3,4.7-5.8,9.5.2,2.6,2.4,4.9,6.5,6.9,15.5,7.5,20.7,8.9,20.7,8.9.7.2,1.2.9,1,1.7-.2.6-.7,1-1.3,1Z"/>
          <g>
            <path d="M164.4,61.2s12.5,1.1,18.5,1.5" style="fill: #ffc200;"/>
            <path d="M182.9,64s0,0,0,0c-5.9-.4-18.4-1.5-18.5-1.5-.7,0-1.3-.7-1.2-1.5,0-.8.8-1.3,1.5-1.2.1,0,12.6,1.1,18.4,1.5.8,0,1.3.7,1.3,1.4,0,.7-.6,1.3-1.4,1.3Z"/>
          </g>
        </g>
      </g>
    </g>
  </g>
</svg>