<?xml version="1.0" encoding="utf-8"?>
<!-- Generator: Adobe Illustrator 24.1.1, SVG Export Plug-In . SVG Version: 6.00 Build 0)  -->
<svg version="1.1" id="Layer_1" xmlns="http://www.w3.org/2000/svg" xmlns:xlink="http://www.w3.org/1999/xlink" x="0px" y="0px"
	 viewBox="0 0 226.71 330" style="enable-background:new 0 0 226.71 330;" xml:space="preserve">
<g>
	<path style="fill:#FFFFFF;" d="M87.66,65.42c1.78,0.52,3.55,1.29,5.38,2.3c1.5,0.83,2.91,1.89,4.22,2.99
		c4.24,3.52,9.69,14.61,3.86,19.04c-4.22,3.21-8.11-4.8-10.48-7.12c-5.3-5.2-12.88,0.52-16.98,4.81c-3.3,3.47-8.78,3.6-12.23,0.28
		c-3.46-3.32-3.62-8.81-0.35-12.3c4.06-4.33,9.04-8.03,14.78-9.77C80.13,64.35,83.9,64.32,87.66,65.42z"/>
	<path style="fill:#673101;" d="M74.93,81.69c-0.67-0.18-1.35-0.08-1.97,0.12c0.76-0.45,1.34-1.18,1.58-2.11
		c0.48-1.87-0.64-3.77-2.48-4.26c-0.86-0.22-1.72-0.07-2.45,0.31c0.65-0.46,1.17-1.11,1.38-1.93c0.48-1.87-0.63-3.78-2.48-4.26
		c-0.17-0.05-0.33-0.02-0.51-0.03c-3.78,2.66-6.34,5.29-6.91,5.9c-3.27,3.49-3.11,8.98,0.35,12.3c3.45,3.32,8.92,3.19,12.23-0.29
		c0.97-1.02,2.29-2.16,3.72-3.21C77.08,83.03,76.2,82.01,74.93,81.69"/>
	<path d="M82.27,64.63c1.83,0,3.61,0.27,5.39,0.78c1.78,0.52,3.55,1.29,5.38,2.3c1.5,0.83,2.91,1.89,4.22,2.99
		c4.24,3.52,9.69,14.61,3.86,19.04c-0.69,0.52-1.37,0.75-2.03,0.75c-3.42,0-6.47-5.93-8.45-7.87c-1.5-1.47-3.19-2.07-4.93-2.07
		c-2.85,0-5.83,1.6-8.38,3.56c0.01,0.04,0.03,0.07,0.04,0.11c-1.42,1.04-2.72,2.17-3.7,3.19c-0.01,0.01-0.01,0.01-0.02,0.02
		c-1.7,1.79-3.98,2.69-6.26,2.69c-2.15,0-4.3-0.8-5.97-2.41c-2.16-2.07-3.03-5-2.58-7.75c0.27-1.65,1.01-3.24,2.24-4.55
		c0.28-0.3,1.05-1.09,2.2-2.13c3.62-3.38,7.82-6.2,12.57-7.64C78.11,64.96,80.23,64.63,82.27,64.63 M82.27,60.63
		c-2.46,0-4.94,0.39-7.57,1.19c-4.9,1.49-9.66,4.36-14.14,8.54c-1.13,1.02-1.97,1.88-2.37,2.3c-1.76,1.88-2.89,4.17-3.29,6.67
		c-0.68,4.15,0.73,8.36,3.76,11.28c2.36,2.27,5.47,3.52,8.74,3.52c3.44,0,6.78-1.43,9.16-3.94c0.84-0.87,1.97-1.84,3.19-2.74
		c0.27-0.2,0.5-0.42,0.71-0.67c2.02-1.44,3.87-2.23,5.26-2.23c0.82,0,1.47,0.29,2.13,0.93c0.34,0.33,0.97,1.18,1.52,1.92
		c2.23,2.99,5.27,7.09,9.73,7.09c1.57,0,3.11-0.54,4.45-1.56c2.61-1.99,4.04-4.94,4.11-8.54c0.13-6.21-3.97-13.54-7.84-16.76
		c-1.79-1.49-3.33-2.58-4.85-3.41c-2.14-1.18-4.17-2.05-6.19-2.64C86.6,60.94,84.48,60.63,82.27,60.63L82.27,60.63z"/>
</g>
<g>
	<path style="fill:#FFFFFF;" d="M139,65.42c-1.78,0.52-3.55,1.29-5.38,2.3c-1.5,0.83-2.91,1.89-4.22,2.99
		c-4.24,3.52-9.69,14.61-3.86,19.04c4.22,3.21,8.11-4.8,10.48-7.12c5.3-5.2,12.88,0.52,16.98,4.81c3.3,3.47,8.78,3.6,12.23,0.28
		c3.46-3.32,3.62-8.81,0.35-12.3c-4.06-4.33-9.04-8.03-14.78-9.77C146.54,64.35,142.77,64.32,139,65.42z"/>
	<path style="fill:#673101;" d="M151.74,81.69c0.67-0.18,1.35-0.08,1.97,0.12c-0.76-0.45-1.34-1.18-1.58-2.11
		c-0.48-1.87,0.64-3.77,2.48-4.26c0.86-0.22,1.72-0.07,2.45,0.31c-0.65-0.46-1.17-1.11-1.38-1.93c-0.48-1.87,0.63-3.78,2.48-4.26
		c0.17-0.05,0.33-0.02,0.51-0.03c3.78,2.66,6.34,5.29,6.91,5.9c3.27,3.49,3.11,8.98-0.35,12.3c-3.45,3.32-8.92,3.19-12.23-0.29
		c-0.97-1.02-2.29-2.16-3.72-3.21C149.59,83.03,150.47,82.01,151.74,81.69"/>
	<path d="M144.39,64.63c2.05,0,4.16,0.33,6.41,1.02c4.75,1.44,8.95,4.26,12.57,7.64c1.15,1.04,1.92,1.83,2.2,2.13
		c1.23,1.31,1.97,2.9,2.24,4.55c0.45,2.75-0.42,5.67-2.58,7.75c-1.67,1.61-3.82,2.41-5.97,2.41c-2.28,0-4.56-0.9-6.26-2.69
		c-0.01-0.01-0.01-0.01-0.02-0.02c-0.97-1.01-2.28-2.14-3.7-3.19c0.01-0.04,0.03-0.07,0.04-0.11c-2.55-1.96-5.54-3.56-8.38-3.56
		c-1.74,0-3.42,0.6-4.93,2.07c-1.98,1.94-5.03,7.87-8.45,7.87c-0.67,0-1.34-0.22-2.03-0.75c-5.83-4.43-0.38-15.52,3.86-19.04
		c1.32-1.09,2.73-2.16,4.22-2.99c1.83-1.01,3.6-1.78,5.38-2.3C140.78,64.9,142.56,64.63,144.39,64.63 M144.39,60.63
		c-2.2,0-4.33,0.31-6.51,0.94c-2.03,0.59-4.05,1.45-6.19,2.64c-1.51,0.84-3.05,1.92-4.85,3.41c-3.87,3.22-7.97,10.54-7.84,16.76
		c0.08,3.6,1.5,6.55,4.11,8.54c1.35,1.02,2.89,1.57,4.45,1.57c4.46,0,7.5-4.1,9.73-7.09c0.55-0.74,1.18-1.59,1.52-1.92
		c0.65-0.64,1.31-0.93,2.13-0.93c1.39,0,3.24,0.79,5.26,2.23c0.2,0.25,0.44,0.47,0.71,0.67c1.22,0.9,2.35,1.87,3.18,2.73
		c2.39,2.51,5.72,3.94,9.17,3.94c3.27,0,6.38-1.25,8.74-3.52c3.03-2.91,4.44-7.12,3.76-11.28c-0.41-2.5-1.54-4.79-3.27-6.64
		c-0.42-0.44-1.26-1.3-2.44-2.36c-4.44-4.14-9.19-7.01-14.09-8.5C149.33,61.02,146.85,60.63,144.39,60.63L144.39,60.63z"/>
</g>
<g>
	<path style="fill:#FFFFFF;" d="M104.65,241.81v39.5c0,0-2.93,0.73-6.83,0.73s-6.83-0.73-6.83-0.73v-39.5
		c0-2.63,2.13-4.73,4.73-4.73C98.31,237.07,104.65,239.17,104.65,241.81z"/>
	<path style="fill-rule:evenodd;clip-rule:evenodd;fill:#009FF9;" d="M104.65,281.31v35.77c0,2.4-3.23,4.37-5.9,4.83l-1.17,0.13
		H86.21c-1.17,0-2.37,0.03-3.6,0.03c-3.73,0-7.6-0.37-10.2-3.37c-2.37-2.7-1.7-8.13-0.2-11.1c2.77-5.47,8-9.5,14-10.8
		c0,0,0.27-0.03,0.33-0.07c0.8-0.17,1.5-0.23,2.2-0.3c0.27-0.03,0.53-0.07,0.8-0.07c0.4-0.03,0.77-0.03,1.13-0.03h0.3v-15.03
		c0,0,2.93,0.73,6.83,0.73S104.65,281.31,104.65,281.31z"/>
	<path d="M95.71,233.07c-4.83,0-8.73,3.9-8.73,8.73v50.8c-0.4,0.07-0.8,0.13-1.2,0.2l-0.47,0.13c-7.1,1.53-13.37,6.33-16.67,12.87
		c-1.97,3.87-3.03,11.23,0.77,15.53c3.63,4.17,8.7,4.73,13.2,4.73h1.9c0.57-0.03,1.13-0.03,1.7-0.03h11.37c0.13,0,0.27,0,0.4-0.03
		l1.17-0.1c0.1,0,0.23-0.03,0.33-0.03c4.43-0.83,9.17-4.17,9.17-8.8v-75.27C108.65,235.27,98.45,233.07,95.71,233.07z
		 M104.65,317.07c0,2.4-3.23,4.37-5.9,4.83l-1.17,0.13H86.21c-1.17,0-2.37,0.03-3.6,0.03c-3.73,0-7.6-0.37-10.2-3.37
		c-2.37-2.7-1.7-8.13-0.2-11.1c2.77-5.47,8-9.5,14-10.8c0,0,0.27-0.03,0.33-0.07c0.8-0.17,1.5-0.23,2.2-0.3
		c0.27-0.03,0.53-0.07,0.8-0.07c0.4-0.03,0.77-0.03,1.13-0.03h0.3v-54.53c0-2.63,2.13-4.73,4.73-4.73c2.6,0,8.93,2.1,8.93,4.73
		V317.07z"/>
</g>
<g>
	<path style="fill:#FFFFFF;" d="M135.68,241.81v39.5c0,0-2.93,0.73-6.83,0.73c-3.9,0-6.83-0.73-6.83-0.73v-39.5
		c0-2.63,6.33-4.73,8.93-4.73C133.58,237.07,135.68,239.17,135.68,241.81z"/>
	<path style="fill-rule:evenodd;clip-rule:evenodd;fill:#009FF9;" d="M154.25,318.71c-2.6,3-6.47,3.37-10.2,3.37
		c-1.2,0-2.43-0.03-3.57-0.03h-11.4l-1.17-0.13c-2.63-0.47-5.9-2.43-5.9-4.83v-35.77c0,0,2.93,0.73,6.83,0.73
		c3.9,0,6.83-0.73,6.83-0.73v15.03h0.3c0.37,0,0.73,0,1.13,0.03c0.27,0,0.53,0.03,0.8,0.07c0.7,0.07,1.43,0.13,2.23,0.3
		c0.03,0.03,0.33,0.07,0.33,0.07c5.97,1.3,11.2,5.33,13.97,10.8C155.95,310.57,156.61,316.01,154.25,318.71z"/>
	<path d="M158.01,305.81c-3.3-6.53-9.57-11.33-16.7-12.9l-0.27-0.07c-0.47-0.07-0.93-0.17-1.37-0.23v-50.8
		c0-4.83-3.9-8.73-8.73-8.73c-2.73,0-12.93,2.2-12.93,8.73v75.27c0,4.63,4.73,7.97,9.2,8.8c0.1,0,0.2,0.03,0.3,0.03l1.17,0.1
		c0.13,0.03,0.27,0.03,0.4,0.03h11.4c0.53,0,1.1,0,1.67,0.03h1.9c4.5,0,9.57-0.57,13.23-4.73
		C161.05,317.04,159.98,309.67,158.01,305.81z M154.25,318.71c-2.6,3-6.47,3.37-10.2,3.37c-1.2,0-2.43-0.03-3.57-0.03h-11.4
		l-1.17-0.13c-2.63-0.47-5.9-2.43-5.9-4.83v-75.27c0-2.63,6.33-4.73,8.93-4.73c2.63,0,4.73,2.1,4.73,4.73v54.53h0.3
		c0.37,0,0.73,0,1.13,0.03c0.27,0,0.53,0.03,0.8,0.07c0.7,0.07,1.43,0.13,2.23,0.3c0.03,0.03,0.33,0.07,0.33,0.07
		c5.97,1.3,11.2,5.33,13.97,10.8C155.95,310.57,156.61,316.01,154.25,318.71z"/>
</g>
<g>
	<path style="fill:#FFFFFF;" d="M57.28,203.27c-1.43,3.03-2.57,6.2-3.37,9.43c-4.9,0.73-10.43-1.93-13.4-4.4
		c2.77-8.77,7.7-16.83,15.4-23.5c1.7-1.47,4.3-4.17,6.83-3.9C72.25,181.87,58.78,200.07,57.28,203.27z"/>
	<path style="fill:#0088C5;" d="M53.18,246.91c-0.27,0.3-0.57,0.53-0.93,0.77c-0.9,0.57-2.1,0.87-3.63,0.87h-0.23
		c-0.73-0.03-1.53-0.13-2.37-0.3c-1.77-0.4-3.57-1.2-4.6-2.37c-4.77-5.3-4.27-13.37-4.03-19.7c0.13-3.3,0.47-6.57,1.07-9.8
		c0.03-0.27,0.27-1.5,0.57-2.9c0.1-0.47,0.2-0.93,0.3-1.43c0.03-0.23,0.1-0.47,0.17-0.73c0.17-0.7,0.33-1.37,0.47-1.87
		c0.1-0.4,0.23-0.73,0.33-0.93c0.03-0.07,0.07-0.1,0.1-0.17c0.03-0.03,0.07-0.07,0.1-0.07l0.03,0.03c2.97,2.47,8.5,5.13,13.4,4.4
		h0.03c-0.23,0.87-0.43,1.73-0.6,2.6c-0.2,1.7-0.33,3.47-0.4,4.13c0,0.1-0.03,0.2-0.03,0.23c-0.93,6.53,0.5,11.97,1.57,18.33
		C55.01,241.21,55.18,244.87,53.18,246.91z"/>
	<path d="M69.31,180.91c-0.63-1.33-2.3-3.57-6.13-4c-0.27,0-0.53-0.03-0.77-0.03c-3.63,0-6.57,2.63-8.47,4.33l-0.67,0.57
		c-7.6,6.6-13.1,14.83-16.3,24.47c-1.1,1.8-1.63,4.9-2.47,9.37c-0.63,3.37-1,6.87-1.13,10.43l-0.03,0.7
		c-0.23,6.53-0.57,15.5,5.1,21.8c2,2.27,5.07,3.23,6.7,3.6c1.03,0.23,2.13,0.37,3.13,0.4h0.33c4.2,0,6.57-1.77,7.83-3.27
		c2.23-2.67,2.9-6.57,1.97-11.93c-0.17-1.07-0.37-2.13-0.57-3.17c-0.9-4.9-1.67-9.13-0.97-13.93c0.03-0.17,0.07-0.67,0.13-1.3
		c0.07-0.8,0.17-1.9,0.3-3c0.8-3.93,2-7.63,3.57-10.97c0.17-0.37,0.9-1.53,1.53-2.57C67.55,194.14,71.95,186.24,69.31,180.91z
		 M57.28,203.27c-1.43,3.03-2.53,6.2-3.33,9.43c-0.23,0.87-0.43,1.73-0.6,2.6c-0.2,1.7-0.33,3.47-0.4,4.13c0,0.1-0.03,0.2-0.03,0.23
		c-0.93,6.53,0.5,11.97,1.57,18.33c0.53,3.2,0.7,6.87-1.3,8.9c-0.27,0.3-0.57,0.57-0.93,0.77c-0.9,0.57-2.1,0.87-3.63,0.87h-0.23
		c-0.73-0.03-1.53-0.13-2.37-0.3c-1.77-0.4-3.57-1.2-4.6-2.37c-4.77-5.3-4.27-13.37-4.03-19.7c0.13-3.3,0.47-6.57,1.07-9.8
		c0.03-0.27,0.27-1.5,0.57-2.9c0.1-0.47,0.2-0.97,0.3-1.43c0.03-0.23,0.1-0.47,0.17-0.73c0.13-0.7,0.3-1.33,0.47-1.87
		c0.1-0.4,0.23-0.73,0.33-0.93c0.03-0.1,0.07-0.17,0.1-0.17c0.03-0.03,0.07-0.07,0.1-0.07c0.03,0,0.03,0,0.03,0
		c2.77-8.73,7.7-16.8,15.4-23.47c1.63-1.4,4.07-3.93,6.5-3.93c0.1,0,0.23,0,0.33,0.03C72.25,181.87,58.78,200.07,57.28,203.27z"/>
</g>
<g>
	<path style="fill:#FFFFFF;" d="M186.05,208.31c-2.97,2.47-8.5,5.13-13.4,4.4c-0.8-3.23-1.93-6.4-3.37-9.43
		c-1.5-3.2-14.97-21.4-5.47-22.37c2.53-0.27,5.13,2.43,6.83,3.9C178.35,191.47,183.28,199.54,186.05,208.31z"/>
	<path style="fill:#0088C5;" d="M185.15,245.87c-1.03,1.17-2.83,1.97-4.6,2.37c-0.83,0.17-1.63,0.27-2.37,0.3h-0.23
		c-1.53,0-2.73-0.3-3.63-0.87c-0.37-0.23-0.67-0.47-0.93-0.77c-2-2.03-1.83-5.7-1.3-8.9c1.07-6.37,2.5-11.8,1.57-18.33
		c0-0.03-0.03-0.13-0.03-0.23c-0.07-0.67-0.2-2.43-0.4-4.13c-0.17-0.87-0.37-1.73-0.6-2.6h0.03c4.9,0.73,10.43-1.93,13.4-4.4
		l0.03-0.03l0.1,0.07c0.03,0.07,0.07,0.1,0.1,0.17l0.33,0.93c0.13,0.5,0.3,1.17,0.47,1.87l0.17,0.73c0.1,0.5,0.2,0.97,0.3,1.43
		c0.3,1.4,0.53,2.63,0.57,2.9c0.6,3.23,0.93,6.5,1.07,9.8C189.41,232.51,189.91,240.57,185.15,245.87z"/>
	<path d="M193.18,226.74v-0.7c-0.13-3.57-0.53-7.07-1.13-10.4c-0.83-4.5-1.37-7.57-2.47-9.4c-3.2-9.63-8.7-17.87-16.33-24.47
		l-0.63-0.57c-1.93-1.7-4.83-4.33-8.47-4.33c-0.27,0-0.5,0.03-0.77,0.03c-3.83,0.43-5.5,2.67-6.13,4c-2.63,5.33,1.77,13.23,6.9,21.5
		c0.63,1.03,1.37,2.2,1.53,2.57c1.57,3.33,2.77,7.03,3.57,10.97c0.13,1.1,0.23,2.2,0.3,3c0.07,0.63,0.1,1.13,0.13,1.3
		c0.7,4.8-0.1,9.03-0.97,13.93c-0.2,1.03-0.4,2.1-0.57,3.17c-0.93,5.37-0.27,9.27,1.97,11.93c1.27,1.5,3.63,3.27,7.83,3.27h0.33
		c1-0.03,2.07-0.17,3.13-0.4c1.63-0.37,4.7-1.33,6.7-3.6C193.78,242.24,193.45,233.27,193.18,226.74z M185.15,245.87
		c-1.03,1.17-2.83,1.97-4.6,2.37c-0.83,0.17-1.63,0.27-2.37,0.3h-0.23c-1.53,0-2.73-0.3-3.63-0.87c-0.37-0.2-0.67-0.47-0.93-0.77
		c-2-2.03-1.83-5.7-1.3-8.9c1.07-6.37,2.5-11.8,1.57-18.33c0-0.03-0.03-0.13-0.03-0.23c-0.07-0.67-0.2-2.43-0.4-4.13
		c-0.17-0.87-0.37-1.73-0.6-2.6c-0.8-3.23-1.9-6.4-3.33-9.43c-1.5-3.2-14.97-21.4-5.47-22.37c0.1-0.03,0.23-0.03,0.33-0.03
		c2.43,0,4.87,2.53,6.5,3.93c7.7,6.67,12.63,14.73,15.4,23.47c0,0,0,0,0.03,0l0.1,0.07c0.03,0,0.07,0.07,0.1,0.17l0.33,0.93
		c0.17,0.53,0.33,1.17,0.47,1.87l0.17,0.73c0.1,0.47,0.2,0.97,0.3,1.43c0.3,1.4,0.53,2.63,0.57,2.9c0.6,3.23,0.93,6.5,1.07,9.8
		C189.41,232.51,189.91,240.57,185.15,245.87z"/>
</g>
<g>
	<path style="fill-rule:evenodd;clip-rule:evenodd;fill:#009FF9;" d="M169.78,211.57c0.5,9.97-1.97,24.6-8.6,33.17
		c-7.83,10.1-22.1,16.7-39.17,18.1c-2.07,0.17-4.27,0.27-6.43,0.27h-4.5c-2.17,0-4.37-0.1-6.4-0.27c-17.1-1.4-31.37-8-39.2-18.1
		c-6.63-8.57-9.1-23.2-8.6-33.17c0.3-5.57,1.53-11.2,2.73-16.63c0.6-2.8,1.2-5.6,1.7-8.43c0.57-3.1,0.2-8.9,0.2-9.2
		c-0.4-4.37-1.7-8.4-2.9-11.8c-4.8-13.4-5.63-25.93-2.57-39.43c2.77-12.2,8.53-22.57,15.87-28.4c12.2-9.73,26.37-15.33,38.93-15.33
		h5c12.53,0,26.7,5.6,38.9,15.33c7.33,5.83,13.1,16.2,15.87,28.4c3.07,13.5,2.27,26.03-2.53,39.43c-1.23,3.4-2.53,7.43-2.93,11.87
		c0,0.13-0.13,2.03-0.13,4.23c0,1.7,0.1,3.53,0.33,4.9c0.5,2.8,1.1,5.6,1.7,8.4C168.25,200.34,169.48,206.01,169.78,211.57z"/>
	<path style="fill-rule:evenodd;clip-rule:evenodd;fill:#FFFFFF;" d="M120.53,89.23c5.39,0.71,10.66,2.15,15.47,4.19
		c7.84,3.33,16.99,8.69,21.22,16.2c1.87,3.32,3.13,6.96,3.87,10.7c0.55,2.82-0.14,6.79,1.56,9.21c3.44,4.92,4.23,7.69,5.17,13.82
		c0.89,5.77,0.39,11.94-2.05,17.28c-6.36,13.92-21.74,19.8-35.82,20.24c-1.95,0.06-3.93,0.11-5.9,0.17
		c-9.15,0.28-18.16,0.12-27.31-0.17c-14.08-0.45-29.46-6.32-35.82-20.24c-2.44-5.35-2.94-11.52-2.05-17.28
		c0.95-6.13,1.73-8.9,5.17-13.82c1.7-2.42,1.01-6.39,1.56-9.21c0.73-3.74,2-7.38,3.87-10.7c4.23-7.52,11.26-12.87,19.1-16.2
		c3.18-1.35,6.49-2.39,9.85-3.16C104.99,88.73,113.83,88.35,120.53,89.23z"/>
	<path style="fill-rule:evenodd;clip-rule:evenodd;fill:#FDBDB8;" d="M92.05,145.51c0,8.2-6.6,14.85-14.74,14.85
		s-14.74-6.65-14.74-14.85c0-8.19,6.6-14.84,14.74-14.84S92.05,137.32,92.05,145.51"/>
	<path style="fill-rule:evenodd;clip-rule:evenodd;fill:#FDBDB8;" d="M164.09,145.51c0,8.2-6.6,14.85-14.75,14.85
		c-8.14,0-14.73-6.65-14.73-14.85c0-8.19,6.6-14.84,14.73-14.84C157.49,130.67,164.09,137.32,164.09,145.51"/>
	<path d="M170.98,194.04c-0.6-2.73-1.2-5.47-1.7-8.2c-0.37-2.2-0.23-6.7-0.13-8.17c0.37-3.9,1.57-7.67,2.7-10.83
		c4.97-13.97,5.87-27.57,2.67-41.67c-2.93-13.07-9.23-24.23-17.27-30.63c-12.9-10.3-28-16.2-41.4-16.2h-4.9
		c-13.47-0.13-28.6,5.87-41.53,16.2c-8,6.4-14.3,17.57-17.27,30.63c-3.2,14.1-2.3,27.7,2.7,41.67c1.1,3.17,2.3,6.93,2.67,10.77
		c0.1,1.53,0.27,6-0.13,8.23c-0.5,2.73-1.1,5.5-1.7,8.23c-1.2,5.6-2.47,11.4-2.77,17.3c-0.6,11.03,2.1,26.4,9.4,35.8
		c8.53,11,23.83,18.17,42.03,19.67c2.13,0.17,4.47,0.27,6.73,0.27h4.5c2.27,0,4.6-0.1,6.73-0.27c18.2-1.5,33.53-8.67,42.03-19.67
		c7.3-9.43,10-24.77,9.43-35.8C173.45,205.47,172.18,199.67,170.98,194.04z M115.58,263.11h-4.5c-2.17,0-4.37-0.1-6.4-0.27
		c-17.1-1.4-31.37-8-39.2-18.1c-6.63-8.57-9.1-23.2-8.6-33.17c0.3-5.57,1.53-11.2,2.73-16.63c0.6-2.8,1.2-5.6,1.7-8.43
		c0.57-3.1,0.2-8.9,0.2-9.2c-0.4-4.37-1.7-8.4-2.9-11.8c-4.8-13.4-5.63-25.93-2.57-39.43c2.77-12.2,8.53-22.57,15.87-28.4
		c12.2-9.73,26.37-15.33,38.93-15.33h5c12.53,0,26.7,5.6,38.9,15.33c7.33,5.83,13.1,16.2,15.87,28.4
		c3.07,13.5,2.27,26.03-2.53,39.43c-1.23,3.4-2.53,7.43-2.93,11.87c0,0.13-0.13,2.03-0.13,4.23c0,1.7,0.1,3.53,0.33,4.9
		c0.5,2.8,1.1,5.6,1.7,8.4c1.2,5.43,2.43,11.1,2.73,16.67c0.5,9.97-1.97,24.6-8.6,33.17c-7.83,10.1-22.1,16.7-39.17,18.1
		C119.95,263.01,117.75,263.11,115.58,263.11z"/>
</g>
<g>
	<path style="fill-rule:evenodd;clip-rule:evenodd;" d="M115.86,140.74c0,1.09-1.15,1.96-2.58,1.96s-2.59-0.88-2.59-1.96
		c0-1.08,1.15-1.96,2.59-1.96S115.86,139.66,115.86,140.74"/>
	<g>
		<path style="fill-rule:evenodd;clip-rule:evenodd;fill:#D54848;" d="M117.01,154.07v8.5c0,1.47-1.67,3.67-3.73,3.67
			s-3.73-2.2-3.73-3.67v-8.5c0.07-0.03,0.17-0.07,0.23-0.1c0.17,0.13,0.3,0.2,0.43,0.2h5.97c0.13,0,0.33-0.1,0.5-0.27
			C116.78,153.97,116.91,154.01,117.01,154.07z"/>
		<path style="fill-rule:evenodd;clip-rule:evenodd;fill:#FFFFFF;" d="M116.68,153.91c-0.17,0.17-0.37,0.27-0.5,0.27h-5.97
			c-0.13,0-0.27-0.07-0.43-0.2c0.3-0.17,0.57-0.33,0.83-0.53c1.13-0.8,1.9-2,2.67-3.57c0.77,1.57,1.53,2.77,2.67,3.57
			C116.18,153.64,116.41,153.77,116.68,153.91z"/>
		<path d="M121.08,152.24c-0.13-0.03-0.27-0.03-0.4-0.07l-0.7-0.1c-2.93-0.3-3.47-1.3-5.47-5.93c-0.03-0.07-0.1-0.1-0.13-0.17
			c-0.03-0.1-0.1-0.17-0.17-0.23c-0.07-0.07-0.13-0.1-0.2-0.17c-0.07-0.03-0.13-0.1-0.2-0.13h-0.03c-0.1-0.03-0.17-0.03-0.27-0.07
			c-0.07,0-0.17-0.03-0.23-0.03s-0.13,0.03-0.17,0.03c-0.13,0-0.23,0.03-0.33,0.07c-0.03,0-0.03,0-0.03,0
			c-0.07,0.03-0.1,0.1-0.17,0.13c-0.1,0.03-0.17,0.1-0.23,0.17c-0.1,0.07-0.13,0.17-0.2,0.27c-0.03,0.03-0.07,0.07-0.1,0.13v0.03
			c-1.03,2.3-1.67,3.7-2.4,4.57c-0.77,0.87-1.63,1.17-3.07,1.33l-0.73,0.1c-0.1,0.03-0.27,0.03-0.4,0.07
			c-0.6-0.93-2.43-0.47-2.43,0.73c0,0.6,0.23,1.13,0.63,1.47c0.43,0.4,0.93,0.5,1.47,0.5c0.37,0,0.77-0.07,1.13-0.13l0.6-0.07
			c0.03,0,0.03,0,0.03,0v7.83c0,2.87,2.87,6.33,6.4,6.33s6.4-3.47,6.4-6.33v-7.83l0.6,0.07c0.37,0.07,0.77,0.13,1.17,0.13
			c0.5,0,1.03-0.1,1.43-0.5c0.43-0.33,0.67-0.87,0.67-1.47C123.51,151.77,121.71,151.31,121.08,152.24z M117.01,162.57
			c0,1.47-1.67,3.67-3.73,3.67s-3.73-2.2-3.73-3.67v-8.5c0.07-0.03,0.17-0.07,0.23-0.1c0.3-0.17,0.57-0.33,0.83-0.53
			c1.13-0.8,1.9-2,2.67-3.57c0.77,1.57,1.53,2.77,2.67,3.57c0.23,0.2,0.47,0.33,0.73,0.47c0.1,0.07,0.23,0.1,0.33,0.17V162.57z"/>
	</g>
	<g>
		<path d="M131.89,138.37c-0.11,0-0.22-0.01-0.33-0.04l-7.25-1.98c-0.54-0.15-0.92-0.64-0.92-1.2c0-0.56,0.38-1.06,0.92-1.21
			l7.25-1.99c0.68-0.18,1.36,0.21,1.54,0.88c0.18,0.67-0.21,1.35-0.87,1.54l-2.85,0.78l2.84,0.77c0.67,0.18,1.06,0.87,0.88,1.53
			C132.94,138,132.44,138.37,131.89,138.37z"/>
	</g>
	<g>
		<path d="M93.95,138.37c-0.55,0-1.05-0.36-1.2-0.92c-0.18-0.67,0.21-1.35,0.88-1.53l2.84-0.77l-2.84-0.78
			c-0.66-0.18-1.05-0.87-0.87-1.54c0.18-0.67,0.86-1.06,1.54-0.88l7.25,1.99c0.54,0.15,0.92,0.64,0.92,1.21
			c0,0.56-0.38,1.06-0.92,1.2l-7.25,1.98C94.17,138.35,94.06,138.37,93.95,138.37z"/>
	</g>
</g>
<g>
	<polygon style="fill-rule:evenodd;clip-rule:evenodd;fill:#AE7BFF;" points="172.4,48.38 169.17,49.52 168.27,52.82 166.2,50.12 
		162.77,50.25 164.73,47.45 163.53,44.25 166.8,45.25 169.47,43.08 169.53,46.52 	"/>
	<path style="fill:#5429A8;" d="M172.83,44.69l-0.17-8.43l-6.6,5.3L158,39.12l3,7.87l-4.8,6.93l8.4-0.4l5.1,6.7l2.23-8.13l7.97-2.77
		L172.83,44.69z M166.2,50.12l-3.43,0.13l1.97-2.8l-1.2-3.2l3.27,1l2.67-2.17l0.07,3.43l2.87,1.87l-3.23,1.13l-0.9,3.3L166.2,50.12z
		"/>
</g>
<g>
	<polygon style="fill-rule:evenodd;clip-rule:evenodd;fill:#E8B21C;" points="82.43,27.73 83.43,29.67 81.3,29.27 79.8,30.8 
		79.5,28.67 77.57,27.7 79.53,26.77 79.83,24.63 81.33,26.2 83.47,25.87 	"/>
	<path style="fill:#E5861F;" d="M89.6,21.5l-7.07,1.13l-4.93-5.17l-1.1,7.03l-6.47,3.1l6.4,3.23l0.93,7.1l5.07-5.07l7.03,1.3
		L86.2,27.8L89.6,21.5z M79.8,30.8l-0.3-2.13l-1.93-0.97l1.97-0.93l0.3-2.13l1.5,1.57l2.13-0.33l-1.03,1.87l1,1.93l-2.13-0.4
		L79.8,30.8z"/>
</g>
<path style="fill:#E8AE1C;" d="M48.33,52.58c-1.84,0-3.33,1.5-3.33,3.33c0,1.84,1.5,3.33,3.33,3.33c1.84,0,3.33-1.5,3.33-3.33
	C51.66,54.08,50.16,52.58,48.33,52.58z M46.66,55.92L46.66,55.92L46.66,55.92L46.66,55.92z"/>
</svg>
