<svg xmlns="http://www.w3.org/2000/svg" viewBox="0 0 275 282.21"><defs><style>.cls-1,.cls-6{fill:#ffc4c4;}.cls-2{fill:#1588c2;}.cls-11,.cls-3,.cls-5,.cls-6,.cls-7,.cls-8,.cls-9{fill-rule:evenodd;}.cls-3{opacity:0.3;}.cls-4{fill:#663109;}.cls-5{fill:#1ba0f5;}.cls-6,.cls-9{stroke:#000;}.cls-6{stroke-miterlimit:10;}.cls-11,.cls-6,.cls-9{stroke-width:2.5px;}.cls-7{fill:#fb8680;}.cls-11,.cls-9{fill:none;stroke-linecap:round;stroke-linejoin:round;}.cls-10{fill:#231815;}.cls-11{stroke:#231815;}</style></defs><g id="레이어_3" data-name="레이어 3"><path class="cls-1" d="M209,180.29c3-.8,4.81-4.82,4.93-8.12.78-19.89-5-39.4-22.26-51.75-1.83-1.31-4.64-3.73-7.12-3.23-9.26,1.84,5.7,18.56,7.47,21.58,6,10.21,8.08,22.16,7.62,33.9a7.56,7.56,0,0,0,7.05,7.86A7.07,7.07,0,0,0,209,180.29Z"/><path class="cls-2" d="M207.23,182.11a8.93,8.93,0,0,0,4.33-2.74c4.22-5.69,3-13.59,2.17-19.82A67.72,67.72,0,0,0,211.8,150c-.2-.71-2.38-8.19-2.77-7.79-2.95,3-9.06,6.53-14.4,5.37.78.13,3,6.25,3.18,7,1.52,6.35.62,11.85.14,18.24-.36,4.78.26,10.58,7,9.82A11.3,11.3,0,0,0,207.23,182.11Z"/><path d="M185.22,117.12c2.3,0,4.78,2.11,6.44,3.3A50.43,50.43,0,0,1,209,142.18h0c.58,0,2.56,7.09,2.76,7.79a67.72,67.72,0,0,1,1.93,9.58c.82,6.23,2.05,14.13-2.17,19.82a8.94,8.94,0,0,1-4.32,2.74,11.54,11.54,0,0,1-2.3.51,9.44,9.44,0,0,1-1.15.07c-5.65,0-6.18-5.4-5.84-9.89.48-6.39,1.38-11.89-.14-18.24-.1-.39-.42-2.38-.83-4.28a51.82,51.82,0,0,0-5-11.51c-1.77-3-16.73-19.74-7.47-21.58a3.14,3.14,0,0,1,.68-.07m0-2.5a6.34,6.34,0,0,0-1.16.11,5.74,5.74,0,0,0-4.63,3.57c-1.83,4.82,3.24,12.13,8.59,19.21.82,1.09,1.59,2.11,1.84,2.52a50.59,50.59,0,0,1,4.7,10.87c.23,1.1.43,2.21.58,3s.19,1,.24,1.21c1.17,4.89.79,9.25.34,14.3-.09,1-.18,2.09-.27,3.17-.35,4.75.43,8.08,2.39,10.2a7.77,7.77,0,0,0,5.95,2.38,14.18,14.18,0,0,0,1.43-.08,14.62,14.62,0,0,0,2.79-.62,11.57,11.57,0,0,0,5.56-3.63c4.66-6.28,3.59-14.4,2.74-20.92l-.1-.71a70.79,70.79,0,0,0-2-9.94c-.44-1.56-.89-3.08-1.28-4.29a14,14,0,0,0-1.87-4.37,52.89,52.89,0,0,0-17.94-22.24l-.71-.52c-1.85-1.37-4.38-3.25-7.19-3.25Z"/><path class="cls-1" d="M66,180.29c-3-.8-4.81-4.82-4.94-8.12-.77-19.89,5-39.4,22.27-51.75,1.83-1.31,4.63-3.73,7.11-3.23,9.27,1.84-5.69,18.56-7.46,21.58-6,10.21-8.08,22.16-7.62,33.9a7.57,7.57,0,0,1-7,7.86A7.07,7.07,0,0,1,66,180.29Z"/><path class="cls-2" d="M67.77,182.11a9,9,0,0,1-4.33-2.74c-4.21-5.69-3-13.59-2.17-19.82A67.75,67.75,0,0,1,63.21,150c.2-.71,2.37-8.19,2.76-7.79,3,3,9.07,6.53,14.4,5.37-.77.13-3,6.25-3.17,7-1.53,6.35-.62,11.85-.14,18.24.36,4.78-.26,10.58-7,9.82A11.54,11.54,0,0,1,67.77,182.11Z"/><path d="M89.79,117.12a3.05,3.05,0,0,1,.67.07c9.27,1.84-5.69,18.56-7.46,21.58a52.32,52.32,0,0,0-5,11.51c-.4,1.9-.73,3.89-.82,4.28-1.53,6.35-.62,11.85-.14,18.24.34,4.49-.19,9.89-5.84,9.89a9.32,9.32,0,0,1-1.15-.07,11.54,11.54,0,0,1-2.3-.51,9,9,0,0,1-4.33-2.74c-4.21-5.69-3-13.59-2.17-19.82A67.75,67.75,0,0,1,63.21,150c.2-.7,2.18-7.79,2.75-7.79h0a50.43,50.43,0,0,1,17.35-21.76c1.66-1.19,4.14-3.3,6.44-3.3m0-2.5c-2.81,0-5.34,1.88-7.19,3.25l-.71.52A52.89,52.89,0,0,0,64,140.63,13.56,13.56,0,0,0,62.09,145c-.4,1.22-.84,2.7-1.28,4.28a72.41,72.41,0,0,0-2,10l-.09.71c-.86,6.52-1.92,14.64,2.73,20.92A11.51,11.51,0,0,0,67,184.49a14.62,14.62,0,0,0,2.79.62,14.18,14.18,0,0,0,1.43.08,7.73,7.73,0,0,0,5.94-2.38c2-2.12,2.75-5.45,2.39-10.2-.08-1.08-.17-2.13-.26-3.17-.45-5.05-.83-9.41.34-14.3.05-.21.11-.52.24-1.21s.35-1.93.58-3A50.1,50.1,0,0,1,85.15,140c.25-.41,1-1.43,1.84-2.52,5.35-7.08,10.42-14.4,8.59-19.21A5.76,5.76,0,0,0,91,114.73a6.42,6.42,0,0,0-1.16-.11Z"/><path class="cls-3" d="M90.8,274.63q-19.39-5.76-19.39-13.69t19.39-13.7q19.4-5.69,46.74-5.67t46.75,5.67q19.31,5.65,19.3,13.7t-19.3,13.69q-19.31,5.58-46.75,5.58T90.8,274.63Z"/><path class="cls-1" d="M112.05,6.49a26.06,26.06,0,0,1,5.33,2.28,26.63,26.63,0,0,1,4.19,3c4.2,3.49,9.6,14.48,3.83,18.87-4.18,3.19-8.05-4.75-10.39-7-5.25-5.15-12.77.51-16.84,4.77a8.54,8.54,0,0,1-12.12.28,8.67,8.67,0,0,1-.34-12.19c4-4.3,9-8,14.64-9.69A19.76,19.76,0,0,1,112.05,6.49Z"/><path class="cls-4" d="M99.43,22.62a3.4,3.4,0,0,0-2,.12,3.43,3.43,0,0,0,1.57-2.09,3.48,3.48,0,0,0-2.46-4.23,3.39,3.39,0,0,0-2.43.31,3.41,3.41,0,0,0,1.36-1.92,3.46,3.46,0,0,0-2.46-4.22,2.74,2.74,0,0,0-.5,0,48.27,48.27,0,0,0-6.85,5.85,8.68,8.68,0,0,0,.34,12.2,8.54,8.54,0,0,0,12.12-.29,30,30,0,0,1,3.69-3.17,3.4,3.4,0,0,0-2.43-2.52"/><path class="cls-1" d="M163,6.49a26.06,26.06,0,0,0-5.33,2.28,26.63,26.63,0,0,0-4.19,3c-4.2,3.49-9.6,14.48-3.83,18.87,4.18,3.19,8.05-4.75,10.39-7,5.25-5.15,12.77.51,16.84,4.77A8.54,8.54,0,0,0,189,28.6a8.67,8.67,0,0,0,.34-12.19c-4-4.3-9-8-14.64-9.69A19.76,19.76,0,0,0,163,6.49Z"/><path class="cls-4" d="M175.57,22.62a3.4,3.4,0,0,1,2,.12A3.43,3.43,0,0,1,176,20.65a3.48,3.48,0,0,1,2.46-4.23,3.39,3.39,0,0,1,2.43.31,3.41,3.41,0,0,1-1.36-1.92,3.46,3.46,0,0,1,2.46-4.22,2.74,2.74,0,0,1,.5,0,48.27,48.27,0,0,1,6.85,5.85A8.68,8.68,0,0,1,189,28.6a8.54,8.54,0,0,1-12.12-.29,30,30,0,0,0-3.69-3.17,3.4,3.4,0,0,1,2.43-2.52"/><path d="M106.71,5.71a19,19,0,0,1,5.34.78,26.06,26.06,0,0,1,5.33,2.28,26.63,26.63,0,0,1,4.19,3c4.2,3.49,9.6,14.48,3.83,18.87a3.3,3.3,0,0,1-2,.75c-3.38,0-6.41-5.88-8.37-7.8a6.76,6.76,0,0,0-4.88-2.05c-2.83,0-5.79,1.58-8.32,3.53a.37.37,0,0,1,0,.11,29.52,29.52,0,0,0-3.67,3.15l0,0a8.55,8.55,0,0,1-12.12.28,8.69,8.69,0,0,1-2.56-7.68,8.54,8.54,0,0,1,2.22-4.52c.28-.29,1-1.08,2.18-2.11a32.3,32.3,0,0,1,12.46-7.57,21.74,21.74,0,0,1,6.36-1m0-2.5a24.14,24.14,0,0,0-7.08,1.12,34.64,34.64,0,0,0-13.45,8.13c-1.11,1-1.91,1.82-2.28,2.22A11,11,0,0,0,81,20.52a11.2,11.2,0,0,0,3.3,9.88A11,11,0,0,0,100,30h0a25.64,25.64,0,0,1,3.34-2.88,2.56,2.56,0,0,0,.54-.55c2.35-1.71,4.5-2.6,6.25-2.6a4.26,4.26,0,0,1,3.13,1.33,20,20,0,0,1,1.65,2.08c2.14,2.87,4.79,6.44,8.47,6.44a5.7,5.7,0,0,0,3.53-1.26,9.06,9.06,0,0,0,3.5-7.33c.13-5.72-3.66-12.48-7.24-15.45a29.29,29.29,0,0,0-4.58-3.23,28,28,0,0,0-5.84-2.49,21.27,21.27,0,0,0-6-.88Z"/><path d="M168.29,5.71a21.68,21.68,0,0,1,6.36,1,32.3,32.3,0,0,1,12.46,7.57c1.14,1,1.9,1.82,2.18,2.11a8.54,8.54,0,0,1,2.22,4.52A8.69,8.69,0,0,1,189,28.6a8.55,8.55,0,0,1-12.12-.28l0,0a29.52,29.52,0,0,0-3.67-3.15.37.37,0,0,1,.05-.11c-2.53-2-5.49-3.53-8.31-3.53A6.77,6.77,0,0,0,160,23.55c-2,1.92-5,7.8-8.37,7.8a3.3,3.3,0,0,1-2-.75c-5.77-4.39-.37-15.38,3.83-18.87a26.63,26.63,0,0,1,4.19-3A26.06,26.06,0,0,1,163,6.49a19,19,0,0,1,5.34-.78m0-2.5a21.27,21.27,0,0,0-6,.88,28,28,0,0,0-5.84,2.49,29.29,29.29,0,0,0-4.58,3.23c-3.58,3-7.37,9.73-7.24,15.45a9.06,9.06,0,0,0,3.5,7.33,5.7,5.7,0,0,0,3.53,1.26c3.68,0,6.33-3.57,8.47-6.44a20,20,0,0,1,1.65-2.08A4.27,4.27,0,0,1,164.88,24c1.74,0,3.89.89,6.24,2.6a2.56,2.56,0,0,0,.54.55A25.64,25.64,0,0,1,175,30h0l0,0a11.05,11.05,0,0,0,15.66.35,11.21,11.21,0,0,0,3.3-9.89,11,11,0,0,0-2.86-5.81c-.39-.41-1.19-1.23-2.33-2.26a34.51,34.51,0,0,0-13.42-8.11,24.14,24.14,0,0,0-7.08-1.12Z"/><path class="cls-1" d="M120,176.66c2.59,0,8.88,2.44,8.88,5.45v45.6H115.34v-45.6c0-3,2.1-5.45,4.68-5.45"/><path class="cls-5" d="M115.34,238V220.5a31.85,31.85,0,0,0,13.56,0V256c0,2.72-4.3,4.92-7,4.92h-6.55"/><path class="cls-5" d="M110.93,235.81l-.33.08a20.6,20.6,0,0,0-13.87,10.7c-1.49,2.94-2.14,8.32.21,11,3.43,3.93,9,3.29,13.66,3.29H123V238S119.84,234.08,110.93,235.81Z"/><path d="M120,176.66c2.59,0,8.88,2.09,8.88,4.68V216h0v40c0,2.36-3.23,4.32-5.86,4.8v.12H110.6c-1.14,0-2.35,0-3.56,0-3.7,0-7.52-.37-10.1-3.33-2.35-2.69-1.7-8.07-.21-11a20.6,20.6,0,0,1,13.87-10.7l.33-.08a21.44,21.44,0,0,1,4.12-.39h.29V181.34a4.68,4.68,0,0,1,4.68-4.68m0-2.5a7.19,7.19,0,0,0-7.18,7.18V233a22.53,22.53,0,0,0-2.39.34l-.1,0-.31.07a23.17,23.17,0,0,0-15.54,12c-1.75,3.45-2.74,10,.55,13.78s7.66,4.19,12,4.19l1.88,0,1.68,0H123a2.41,2.41,0,0,0,1.25-.34c3.58-.91,7.11-3.56,7.11-7.08V181.34c0-5-8.63-7.18-11.38-7.18Z"/><path class="cls-1" d="M155,176.66c-2.59,0-8.88,2.44-8.88,5.45v45.6h13.56v-45.6c0-3-2.1-5.45-4.68-5.45"/><path class="cls-5" d="M159.66,238V220.5a31.85,31.85,0,0,1-13.56,0V256c0,2.72,4.3,4.92,7,4.92h6.55"/><path class="cls-5" d="M164.07,235.81l.33.08a20.6,20.6,0,0,1,13.87,10.7c1.49,2.94,2.14,8.32-.21,11-3.43,3.93-9,3.29-13.66,3.29H152V238S155.16,234.08,164.07,235.81Z"/><path d="M155,176.66a4.68,4.68,0,0,1,4.68,4.68v54.08H160a21.44,21.44,0,0,1,4.12.39l.33.08a20.6,20.6,0,0,1,13.87,10.7c1.49,2.94,2.14,8.32-.21,11-2.58,3-6.4,3.33-10.1,3.33-1.21,0-2.42,0-3.56,0H152v-.12c-2.63-.48-5.86-2.44-5.86-4.8V216h0V181.34c0-2.59,6.29-4.68,8.88-4.68m0-2.5c-2.75,0-11.38,2.16-11.38,7.18V256c0,3.52,3.53,6.17,7.11,7.08a2.41,2.41,0,0,0,1.25.34H164.4l1.68,0,1.88,0c4.33,0,8.78-.51,12-4.19s2.3-10.33.55-13.78a23.16,23.16,0,0,0-15.57-12l-.27-.07-.11,0a22.53,22.53,0,0,0-2.39-.34V181.34a7.19,7.19,0,0,0-7.18-7.18Z"/><path class="cls-5" d="M191,126.2a51.2,51.2,0,0,1-.17-8.61,45.75,45.75,0,0,1,2.78-11.22,69.63,69.63,0,0,0,2.59-40.19c-2.41-10.67-7.75-22.34-16.42-29.26C168.66,28,154.07,21.25,139.88,21.29h-4.76c-14.19,0-28.78,6.74-39.92,15.63-8.67,6.92-14,18.59-16.42,29.26a69.63,69.63,0,0,0,2.59,40.19,45.75,45.75,0,0,1,2.78,11.22A51.2,51.2,0,0,1,84,126.2c-1.47,8.34-4,16.58-4.41,25.08-.57,10.89,2.16,25.46,8.92,34.18,9.34,12,25.57,17.52,40.26,18.72,2.14.17,4.37.25,6.51.25h4.48c2.14,0,4.37-.08,6.51-.25,14.69-1.2,30.92-6.67,40.26-18.72,6.76-8.72,9.49-23.29,8.92-34.18C195,142.78,192.49,134.54,191,126.2Z"/><path class="cls-6" d="M144.63,30.1A58.84,58.84,0,0,1,160,34.25c7.78,3.3,16.85,8.61,21,16.06a35.69,35.69,0,0,1,3.83,10.61c.55,2.79-.13,6.73,1.55,9.13,3.4,4.87,4.19,7.62,5.12,13.7a30.35,30.35,0,0,1-2,17.13c-6.3,13.81-21.55,19.63-35.51,20.07l-5.85.17c-9.06.28-18,.12-27.07-.17-14-.44-29.21-6.26-35.51-20.07a30.35,30.35,0,0,1-2-17.13c.93-6.08,1.72-8.83,5.12-13.7,1.68-2.4,1-6.34,1.55-9.13A35.69,35.69,0,0,1,94,50.31c4.19-7.45,11.16-12.76,18.94-16.06a58.73,58.73,0,0,1,9.76-3.14A67.59,67.59,0,0,1,144.63,30.1Z"/><path class="cls-7" d="M116.4,85.89a14.61,14.61,0,1,1-14.61-14.71A14.66,14.66,0,0,1,116.4,85.89"/><path class="cls-7" d="M187.82,85.89A14.61,14.61,0,1,1,173.2,71.18a14.67,14.67,0,0,1,14.62,14.71"/><path class="cls-8" d="M140,81.16c0,1.07-1.12,1.92-2.52,1.92A2,2,0,1,1,140,81.16"/><path class="cls-8" d="M152,78.88h0a3.31,3.31,0,0,1-3.42-3.18v-.45a3.43,3.43,0,0,1,6.84,0v.45A3.31,3.31,0,0,1,152,78.88"/><path class="cls-8" d="M123,78.88h0a3.31,3.31,0,0,1-3.42-3.18v-.45a3.43,3.43,0,0,1,6.84,0v.45A3.31,3.31,0,0,1,123,78.88"/><path class="cls-9" d="M191,126.2a51.2,51.2,0,0,1-.17-8.61,45.75,45.75,0,0,1,2.78-11.22,69.63,69.63,0,0,0,2.59-40.19c-2.41-10.67-7.75-22.34-16.42-29.26C168.66,28,154.07,21.25,139.88,21.29h-4.76c-14.19,0-28.78,6.74-39.92,15.63-8.67,6.92-14,18.59-16.42,29.26a69.63,69.63,0,0,0,2.59,40.19,45.75,45.75,0,0,1,2.78,11.22A51.2,51.2,0,0,1,84,126.2c-1.47,8.34-4,16.58-4.41,25.08-.57,10.89,2.16,25.46,8.92,34.18,9.34,12,25.57,17.52,40.26,18.72,2.14.17,4.37.25,6.51.25h4.48c2.14,0,4.37-.08,6.51-.25,14.69-1.2,30.92-6.67,40.26-18.72,6.76-8.72,9.49-23.29,8.92-34.18C195,142.78,192.49,134.54,191,126.2Z"/><path class="cls-10" d="M159,54.14a5.2,5.2,0,0,1-2.94-.86,1.35,1.35,0,0,1,1.5-2.24c1.82,1.22,4.72-.48,6.11-2a1.35,1.35,0,0,1,2,1.8A9.58,9.58,0,0,1,159,54.14Z"/><path class="cls-10" d="M169.39,61.64h0a3.37,3.37,0,0,1-3.24-3c-.43-2.28.54-5.46,2.48-6.29a1.33,1.33,0,0,1,1.73.69,1.38,1.38,0,0,1-.67,1.79c-.45.22-1.17,2-.88,3.38.15.75.47.76.68.77a1.35,1.35,0,0,1-.05,2.69Z"/><path class="cls-10" d="M161.81,62.77a1.35,1.35,0,0,1-1.23-.81c-.84-1.92-1.57-3.22-2.92-3.13a1.33,1.33,0,0,1-1.41-1.28,1.36,1.36,0,0,1,1.29-1.41c3.39-.19,4.81,3.15,5.51,4.74a1.35,1.35,0,0,1-.7,1.77A1.32,1.32,0,0,1,161.81,62.77Z"/><path class="cls-10" d="M101.22,97.25a5.23,5.23,0,0,1-2.94-.87,1.35,1.35,0,0,1,1.5-2.24c1.83,1.23,4.73-.48,6.11-2a1.35,1.35,0,0,1,2,1.8A9.6,9.6,0,0,1,101.22,97.25Z"/><path class="cls-10" d="M111.66,104.75h0a3.38,3.38,0,0,1-3.24-3c-.42-2.28.55-5.46,2.48-6.29a1.32,1.32,0,0,1,1.73.69,1.37,1.37,0,0,1-.66,1.78c-.46.23-1.18,2-.89,3.39.16.75.48.76.69.77a1.35,1.35,0,0,1-.06,2.69Z"/><path class="cls-10" d="M104.09,105.87a1.35,1.35,0,0,1-1.24-.81c-.83-1.91-1.57-3.22-2.91-3.12a1.34,1.34,0,0,1-1.41-1.28,1.36,1.36,0,0,1,1.29-1.41c3.39-.19,4.81,3.15,5.5,4.74a1.34,1.34,0,0,1-.7,1.77A1.23,1.23,0,0,1,104.09,105.87Z"/><path class="cls-11" d="M149.48,94c1,1-1.86,1.34-2.38,1.32-1.34-.06-2.72-1.18-3.86-1.86a24.26,24.26,0,0,1-5.74-4.94,24.26,24.26,0,0,1-5.74,4.94c-1.14.68-2.52,1.8-3.86,1.86-.52,0-3.37-.29-2.38-1.32"/></g></svg>