<?xml version="1.0" encoding="utf-8"?>
<!-- Generator: Adobe Illustrator 24.1.1, SVG Export Plug-In . SVG Version: 6.00 Build 0)  -->
<svg version="1.1" id="Layer_1" xmlns="http://www.w3.org/2000/svg" xmlns:xlink="http://www.w3.org/1999/xlink" x="0px" y="0px"
	 viewBox="0 0 240 240" style="enable-background:new 0 0 240 240;" xml:space="preserve">
<g>
	<path style="fill:#85C053;" d="M215.14,180.5c-0.24,0.87,0.16,1.85,0.95,2.31c0.14,0.11,1.47,0.98,1.25,3.78
		c-0.16,1.8-0.82,3.19-1.85,3.87c-0.98,0.68-2.31,0.76-4,0.27c-0.41-0.14-0.82-0.11-1.23,0l-3.65,1.22
		c-0.6,0.19-1.06,0.65-1.28,1.25c-0.19,0.6-0.14,1.25,0.22,1.8c0,0.03,1.69,2.78,0.35,3.95c-1.12,0.98-4.85,0.19-7.11-0.73
		c-0.44-0.22-0.98-0.22-1.44-0.05l-2.94,1.01c-0.52,0.16-0.95,0.55-1.2,1.06c-0.22,0.49-0.25,1.06-0.05,1.58
		c0.05,0.16,1.47,4.08-1.66,7.05c-0.65,0.6-1.31,0.87-2.07,0.84c-1.82-0.08-3.84-1.85-4.47-2.5c-0.63-0.71-1.69-0.87-2.5-0.41
		c-0.84,0.46-1.23,1.44-0.95,2.34c0.22,0.76,0.35,2.15,0,2.81c-0.08,0.11-0.19,0.24-0.52,0.33c-1.93,0.49-3.35-1.42-3.38-1.5
		c-0.44-0.63-1.23-0.98-1.99-0.87s-1.42,0.65-1.63,1.39c-0.65,1.99-2.07,4.33-3,4.47c-1.69,0.3-2.37,0.41-5.47-3.57
		c-0.54-0.68-1.42-0.95-2.26-0.68c-0.82,0.27-1.36,1.01-1.39,1.88c-0.03,0.63-0.33,2.1-1.06,2.53c-0.19,0.11-0.44,0.16-0.74,0.16
		c-0.68,0-1.58-0.27-2.61-0.82c-1.01-0.52-2.23-0.14-2.75,0.87c-0.24,0.43-0.3,0.93-0.19,1.39c-0.03,0.03-0.03,0.03-0.05,0.05
		c-0.38-0.27-0.93-0.9-1.2-1.2c-0.22-0.24-0.41-0.46-0.57-0.63c-0.49-0.49-1.17-0.71-1.85-0.6c-0.68,0.14-1.23,0.57-1.5,1.2
		c-1.2,2.81-2.07,4.57-4.17,5.55c-0.93,0.44-1.88,0.52-2.4,0.22c-0.55-0.33-0.84-1.12-0.9-2.4c0.22-0.87,0.22-1.77,0.05-2.67
		c-0.22-0.98-1.12-1.69-2.12-1.61c-1.01,0.05-1.82,0.82-1.93,1.82c-0.03,0.46-0.11,1.14-0.11,1.93c-0.11,0.27-0.3,0.57-0.54,0.84
		c-0.65,0.76-1.58,1.23-2.45,1.17c-1.17-0.08-2.31-0.95-2.97-2.1c-0.08-0.84-0.3-1.77-0.63-2.69c-0.35-0.93-1.31-1.47-2.29-1.31
		c-0.95,0.16-1.66,1.01-1.69,1.99c0,1.06,0.19,2.07,0.57,3.02c-0.03,0.46-0.14,0.84-0.35,1.09c-0.54,0.63-2.04,0.55-2.94-0.19
		c-1.25-1.01-1.91-2.78-2.45-4.52c-0.27-0.95-1.2-1.55-2.15-1.44c-0.98,0.11-1.74,0.9-1.82,1.88c-0.14,1.69-0.3,3.19-0.9,4.46
		c-0.54,1.12-1.44,1.91-2.34,2.02c-1.06,0.11-2.15-0.71-2.75-1.58c-0.46-0.63-0.74-1.28-1.01-1.88c-0.46-1.12-1.01-2.34-2.45-2.89
		c-0.41-0.16-0.84-0.24-1.28-0.24c-1.06,0-2.1,0.41-3.05,0.84c-0.44,0.19-0.84,0.38-1.23,0.6c-1.33,0.68-1.91,0.95-3,0.71
		c-1.55-0.35-2.91-1.74-3.19-3.32c-0.19-0.98-1.12-1.71-2.04-1.66c-0.98,0-1.82,0.74-1.99,1.71c-0.19,1.12-0.98,2.12-2.21,2.75
		c-1.5,0.79-3.24,0.87-4.57,0.22c-2.67-1.28-4.17-4.9-3.43-8.25c0.22-1.06-0.41-2.12-1.47-2.42c-1.03-0.27-2.12,0.3-2.48,1.33
		c-0.27,0.84-1.03,1.58-2.01,1.99c-0.95,0.41-2.01,0.41-2.83,0c-0.79-0.38-1.44-1.23-1.69-2.26c-0.27-1.01-0.14-2.07,0.35-2.8
		c0.46-0.68,0.46-1.55,0.03-2.23c-0.44-0.71-1.25-1.06-2.07-0.93c-1.33,0.22-2.37,0.9-3.29,1.5c-0.3,0.19-0.6,0.38-0.9,0.55
		c-0.63,0.35-1.17,0.38-1.25,0.35c-0.03-0.03-0.11-0.16-0.19-0.74c-0.25-1.61-0.11-3.32,0.44-4.87c0.14-0.33,0.25-0.63,0.38-0.95
		c0.38-1.03-0.14-2.18-1.17-2.59c-1.01-0.44-2.18,0.05-2.61,1.06c-0.16,0.33-0.27,0.65-0.41,0.98c-0.68,1.55-1.77,3.32-3.46,4.27
		c-1.42,0.79-3.65,0.87-4.76-0.41c-0.6-0.71-0.95-1.8-1.09-3.46c-0.19-2.53,0.11-5.17,0.84-7.6c0.33-1.03-0.22-2.15-1.25-2.53
		c-1.01-0.35-2.15,0.14-2.56,1.14c-0.54,1.25-1.69,2.29-3.13,2.83c-1.47,0.54-3,0.52-4.22-0.08c-1.52-0.74-2.94-3.43-3.16-5.99
		c-0.03-0.19-0.03-0.41-0.03-0.68c0-0.95,0.19-2.34,1.17-3.05c0.93-0.65,1.14-1.93,0.46-2.86c-0.41-0.54-1.03-0.84-1.66-0.84
		c-0.41,0-0.82,0.14-1.17,0.38c0,0,0,0-0.03,0c-1.52,1.12-4.08,0.74-5.23-0.79c-1.14-1.52-0.82-4.06,0.68-5.25
		c0.71-0.55,0.98-1.5,0.65-2.34c-0.33-0.84-1.17-1.36-2.07-1.28c-2.12,0.16-4.25-0.93-5.04-2.61c-0.38-0.84-0.38-1.88,0-2.81
		c0.14-0.38,0.46-1.01,1.06-1.41c0.24-0.08,0.46-0.22,0.68-0.35c0.93-0.54,1.28-1.69,0.79-2.64c-0.46-0.95-1.61-1.39-2.59-1.01
		c-0.22,0.11-0.46,0.22-0.68,0.33c-0.79,0.27-1.61-0.03-1.96-0.19c-0.98-0.43-1.74-1.28-1.91-2.18c-0.35-1.74,0.95-3.73,2.78-4.41
		c0.3-0.08,0.57-0.16,0.87-0.24c1.01-0.35,1.58-1.44,1.31-2.48s-1.31-1.69-2.37-1.47c-0.33,0.08-0.63,0.14-0.9,0.25
		c-2.37,0.43-5.09-0.95-6.02-3.13c-0.65-1.52-0.57-2.99,0.24-4.52c1.52-2.86,5.09-4.9,7.84-5.45c1.09-0.22,1.8-1.25,1.61-2.34
		c-0.87-4.95-2.1-18.68,2.42-22.9c1.28-1.17,3.02-1.47,5.31-0.9c0.79,0.19,1.63-0.11,2.12-0.74c0.49-0.65,0.54-1.52,0.16-2.23
		c-0.03-0.06-2.78-5.23-0.19-8.11c2.23-2.45,5.36-0.05,5.72,0.22c0.76,0.63,1.85,0.6,2.61-0.03c0.74-0.65,0.93-1.74,0.44-2.59
		c-0.93-1.61-2.48-5.45-1.36-7.13c0.93-1.36,4.25-0.33,5.61,0.33c0.79,0.38,1.74,0.22,2.37-0.41c0.63-0.63,0.76-1.58,0.33-2.37
		c-0.03-0.11-4.82-9.34,0.54-13.4c5.04-3.81,9.64,1.63,10.13,2.26c0.68,0.84,1.91,0.98,2.78,0.35c0.9-0.65,1.09-1.91,0.49-2.83
		c-0.03-0.05-0.9-1.39,0.24-4.06c0.16-0.35,0.27-0.49,0.27-0.49c0.16,0,0.46,0.11,0.79,0.3c0.74,0.63,1.33,1.04,1.5,1.12
		c0.87,0.57,2.04,0.38,2.67-0.44c0.65-0.82,0.6-1.99-0.14-2.72c-0.19-0.19-0.79-0.76-1.61-1.28c-0.79-0.74-1.63-1.77-1.8-2.83
		c-0.08-0.44-0.11-1.14,0.63-2.07c0.63-0.79,1.28-1.2,2.07-1.31c1.69-0.19,3.65,1.09,4.25,1.58c0.55,0.46,1.31,0.6,1.99,0.35
		c0.68-0.24,1.17-0.82,1.31-1.52l0.63-3.08c0.22-1.01-0.35-1.99-1.31-2.34c-0.57-0.19-2.83-1.28-2.64-2.42
		c0.14-0.71,2.42-1.36,4.6-1.36h0.16c0.84,0,1.61-0.54,1.91-1.33c0.3-0.82,0.05-1.74-0.63-2.29c-0.74-0.63-2.64-2.64-2.56-4.6
		c0.05-1.22,0.93-2.42,2.56-3.54c5.83-3.97,10.1,1.77,10.56,2.42c0.3,0.46,0.79,0.76,1.33,0.87c0.54,0.08,1.12-0.05,1.55-0.38
		l3.02-2.23c0.74-0.55,1.01-1.5,0.68-2.37c-0.35-0.98-0.44-1.77-0.19-2.04c0.6-0.71,3.21-0.74,5.15-0.33
		c0.63,0.14,1.28-0.05,1.77-0.46c0.49-0.43,0.74-1.06,0.68-1.71c-0.19-2.59,0.3-3.43,0.46-3.54c0.57-0.3,2.72,0.6,4.25,1.82
		c0.65,0.52,1.58,0.57,2.29,0.14c0.74-0.41,1.12-1.22,1.01-2.07c-0.33-1.99-0.65-8.2,1.8-10.75c0.95-0.98,2.26-1.36,4.08-1.14
		c8.41,0.95,7.38,12.01,7.35,12.47c-0.11,0.9,0.41,1.74,1.25,2.07c0.84,0.35,1.82,0.08,2.4-0.6c0.33-0.44,1.31-1.31,3.02-0.35
		c1.14,0.65,1.63,1.09,1.8,1.31c-0.05,0.79,0.35,1.58,1.09,1.96c0.98,0.52,2.21,0.16,2.75-0.82c0-0.03,0-0.03,0.03-0.05
		c0.08-0.19,1.55-2.72,4.49-2.48c2.81,0.27,7.41,1.88,6.94,9.8c0,0.14,0,0.3,0.03,0.43l0.84,5.23c0.11,0.63,0.49,1.17,1.06,1.47
		c0.54,0.3,1.23,0.33,1.8,0.05c0.22-0.08,5.23-2.29,8.39,1.28c3.05,3.49,1.91,5.66,1.88,5.69c-0.54,0.87-0.38,1.99,0.41,2.64
		c0.76,0.68,1.93,0.63,2.7-0.05c0,0,0.57-0.49,1.25-0.44c0.74,0.03,1.44,0.65,1.91,1.17c0.9,1.03,0.3,3.7-0.11,4.76
		c-0.3,0.71-0.16,1.52,0.35,2.12c0.52,0.57,1.33,0.79,2.1,0.6c0.03,0,3.02-0.82,5.01,0.87c2.23,1.91,2.83,5.04,2.15,6.21
		c-0.57,0.95-0.27,2.18,0.65,2.78c0.54,0.35,1.36,1.14,0.76,2.37c-0.35,0.71-0.27,1.55,0.22,2.18c0.46,0.63,1.28,0.9,2.04,0.74
		c3.73-0.82,8.47-0.82,9.34,0.55c0.95,1.47,1.88,3.89-1.23,7.6c-0.46,0.57-0.6,1.33-0.33,2.01c0.25,0.68,0.84,1.2,1.55,1.31
		c0.03,0,2.94,0.57,2.83,2.02c-0.08,1.03-0.33,1.44-0.41,1.58c-0.93,0.22-1.61,1.04-1.61,1.99c0,1.12,0.87,2.02,1.96,2.07
		c0.05,0,5.66,0.22,6.48,3.73c0.98,4.11-0.25,5.69-3.02,8.11c-0.71,0.6-0.9,1.63-0.49,2.45c0.41,0.84,1.33,1.28,2.26,1.09
		c0.84-0.19,2.78-0.3,3.54,0.19c0.11,0.08,0.16,0.16,0.19,0.35c0.38,2.15-1.25,3.62-1.31,3.67c-0.41,0.35-0.65,0.84-0.71,1.39
		l-0.38,4.49c-0.05,0.71,0.27,1.39,0.82,1.8c0.57,0.44,1.31,0.55,1.96,0.27c1.55-0.57,6.23-1.77,9.12-0.33
		c1.23,0.63,2.04,1.66,2.48,3.19c1.42,4.93-3.1,7.65-3.29,7.76c-0.93,0.55-1.25,1.69-0.79,2.64c0.46,0.98,1.63,1.39,2.61,1.01
		c0.11-0.03,0.27-0.05,0.3-0.05c0.08,0.05,0.3,0.44,0.41,1.36c0.22,1.85-0.76,2.37-1.61,2.48c-1.09,0.11-1.91,1.06-1.85,2.15
		c0.08,1.09,0.95,1.99,2.1,1.93c0.19,0,4.6,0.03,5.25,2.89c0.19,0.84-0.03,1.28-0.19,1.55c-0.71,1.01-2.56,1.5-3.13,1.58
		c-1.09,0.16-1.85,1.17-1.74,2.26c0.14,1.12,1.14,1.91,2.2,1.8c0.9-0.05,2.64,0.14,2.75,0.76c0.3,1.96-0.19,2.72-2.15,3.4
		c-0.82,0.27-1.36,1.03-1.39,1.91c0,0.84,0.52,1.63,1.33,1.93c0.05,0.03,4.66,1.85,4.49,4.79c-0.25,3.76-3.02,7.3-5.77,7.3
		c-0.03,0-0.03,0-0.05,0C216.15,178.97,215.41,179.6,215.14,180.5z"/>
	<path d="M226.98,171.95c0.22-3.29-1.85-5.58-3.81-7.02c1.39-1.44,1.88-3.4,1.5-5.88c-0.19-1.12-0.71-1.99-1.42-2.64
		c0.22-0.24,0.46-0.52,0.65-0.82c0.93-1.36,1.22-3,0.82-4.76c-0.6-2.67-2.42-4.25-4.41-5.12c0.46-0.9,0.79-2.18,0.6-3.87
		c-0.16-1.58-0.65-2.81-1.44-3.68c1.85-2.23,3.27-5.58,2.1-9.72c-0.76-2.67-2.31-4.57-4.6-5.72c-3.08-1.55-6.83-1.2-9.39-0.68
		l0.05-0.84c0.98-1.12,2.61-3.54,2.04-6.83c-0.22-1.25-0.87-2.31-1.93-3.02c-0.52-0.35-1.09-0.6-1.69-0.76
		c1.33-2.07,2.01-4.74,1.09-8.66c-0.87-3.76-4.06-5.47-6.67-6.23c0.16-0.55,0.27-1.17,0.33-1.85c0.22-2.69-1.47-4.41-3.32-5.39
		c2.42-4.25,1.36-7.76-0.14-10.1c-2.07-3.21-7.32-3.19-10.78-2.78c-0.16-1.25-0.76-2.34-1.5-3.16c0.74-3.13-0.71-7.24-3.7-9.78
		c-1.77-1.5-3.84-1.96-5.5-2.01c0.25-1.85,0.11-4.19-1.42-5.91c-1.44-1.63-3.08-2.51-4.82-2.56c-0.08,0-0.19-0.03-0.22,0
		c-0.16-1.77-0.93-4-3.1-6.45c-3.4-3.87-7.9-3.68-10.65-3.08l-0.44-2.69c0.46-9.45-5.17-13.37-10.65-13.86
		c-2.89-0.27-4.98,0.85-6.37,2.04c-0.57-0.46-1.28-0.95-2.18-1.47c-1.71-0.95-3.27-1.09-4.57-0.84
		c-0.41-5.45-2.99-12.33-10.97-13.23c-3.87-0.46-6.21,1.04-7.49,2.37c-2.61,2.72-3.19,7.02-3.19,10.21
		c-1.61-0.65-3.49-0.98-5.12-0.14c-1.58,0.84-2.45,2.53-2.64,5.01c-2.1-0.14-4.95,0.11-6.59,1.99c-0.76,0.84-1.44,2.31-0.98,4.63
		l-0.33,0.24c-3-3.1-8.55-6.15-14.87-1.85c-2.78,1.91-4.25,4.17-4.36,6.75c-0.08,1.85,0.57,3.48,1.36,4.79
		c-2.12,0.55-4.33,1.74-4.76,4.25c-0.3,1.63,0.22,3,1.06,4.11c-0.55-0.08-1.12-0.08-1.69-0.03c-1.91,0.22-3.59,1.2-4.87,2.86
		c-1.28,1.61-1.77,3.43-1.44,5.28c0.11,0.57,0.27,1.14,0.52,1.66c-0.71,0.43-1.42,1.17-1.93,2.4c-0.3,0.71-0.52,1.39-0.68,2.02
		c-3.16-1.83-7.38-2.64-11.65,0.6c-5.23,3.92-4.55,10.26-3.32,14.43c-2.4-0.3-4.96,0.11-6.45,2.37c-1.36,2.02-1.25,4.52-0.74,6.67
		c-2.07-0.24-4.36,0.24-6.32,2.42c-2.67,2.94-2.37,6.75-1.66,9.45c-2.59,0.14-4.38,1.23-5.5,2.29c-5.94,5.53-4.68,19.49-3.95,24.72
		c-3.24,1.12-6.92,3.54-8.74,7.02c-1.39,2.61-1.52,5.36-0.41,8c0.98,2.34,2.97,4.11,5.28,5.04c-1.09,1.66-1.61,3.7-1.2,5.66
		c0.41,2.21,2.01,4.14,4.22,5.12c0.19,0.08,0.35,0.14,0.52,0.22c-0.71,1.93-0.65,4.06,0.16,5.85c1.01,2.12,2.97,3.76,5.31,4.52
		c-0.98,2.5-0.74,5.53,0.93,7.73c1.36,1.8,3.51,2.83,5.74,3.02c-0.14,0.84-0.19,1.74-0.08,2.7c0.27,3.46,2.26,7.76,5.42,9.31
		c2.23,1.09,4.96,1.17,7.46,0.22c0.16-0.05,0.35-0.14,0.54-0.22c-0.03,0.95-0.03,1.91,0.05,2.86c0.14,1.63,0.49,4,2.07,5.83
		c2.26,2.61,6.51,3.16,9.86,1.28c0.27-0.14,0.54-0.33,0.82-0.52c0.16,0.82,0.46,1.85,1.28,2.67c1.39,1.42,3.68,1.63,5.85,0.52
		c0.05,0.44,0.14,0.84,0.24,1.25c0.57,2.18,1.96,3.95,3.84,4.87c1.88,0.93,4.14,0.95,6.21,0.08c0.14-0.05,0.27-0.11,0.41-0.16
		c0.76,3.24,2.78,6.07,5.64,7.43c2.48,1.2,5.64,1.09,8.22-0.27c0.9-0.46,1.66-1.03,2.31-1.71c1.14,1.28,2.67,2.23,4.33,2.61
		c2.59,0.57,4.27-0.33,5.77-1.09c0.33-0.16,0.68-0.35,1.03-0.52c0.52-0.24,0.87-0.35,1.09-0.41c0.08,0.19,0.19,0.41,0.27,0.6
		c0.3,0.73,0.71,1.66,1.39,2.64c1.47,2.07,3.68,3.29,5.91,3.29c0.19,0,0.41,0,0.63-0.03c2.29-0.25,4.44-1.91,5.58-4.3
		c0.33,0.35,0.68,0.71,1.06,1.01c2.4,1.93,6.45,2.26,8.63-0.33c0.03-0.03,0.03-0.03,0.05-0.05c1.14,0.87,2.5,1.39,3.97,1.5
		c1.52,0.08,3.08-0.41,4.38-1.33c0.44,0.63,0.98,1.2,1.72,1.63c1.71,1.06,4,1.06,6.26,0c2.48-1.14,3.89-2.99,4.93-4.9
		c1.12,0.87,2.59,1.52,4.3,0.79c0.54-0.22,1.2-0.87,1.72-1.66c1.93,0.57,3.62,0.43,5.04-0.41c0.82-0.49,1.42-1.14,1.85-1.85
		c2.04,1.99,3.95,2.72,6.92,2.21c2.31-0.38,3.97-2.53,4.98-4.41c1.39,0.84,3.21,1.39,5.34,0.87c1.33-0.35,2.4-1.14,3.05-2.29
		c0.22-0.41,0.38-0.82,0.52-1.25c1.09,0.57,2.34,1.01,3.7,1.06c1.82,0.08,3.59-0.6,5.01-1.93c3.43-3.21,3.54-7.08,3.21-9.39
		l0.46-0.16c2.21,0.82,7.62,2.42,10.67-0.24c2.23-1.99,2.15-4.74,1.44-6.92l0.9-0.3c3.27,0.79,5.5-0.08,6.83-0.98
		c2.07-1.42,3.35-3.87,3.59-6.89c0.16-1.96-0.16-3.51-0.74-4.74C224.26,180.39,226.77,176.01,226.98,171.95z M217.16,179
		c-0.03,0-0.03,0-0.05,0c-0.95-0.03-1.69,0.6-1.96,1.5c-0.24,0.87,0.16,1.85,0.95,2.31c0.14,0.11,1.47,0.98,1.25,3.78
		c-0.16,1.8-0.82,3.19-1.85,3.87c-0.98,0.68-2.31,0.76-4,0.27c-0.41-0.14-0.82-0.11-1.23,0l-3.65,1.22
		c-0.6,0.19-1.06,0.65-1.28,1.25c-0.19,0.6-0.14,1.25,0.22,1.8c0,0.03,1.69,2.78,0.35,3.95c-1.12,0.98-4.85,0.19-7.11-0.73
		c-0.44-0.22-0.98-0.22-1.44-0.05l-2.94,1.01c-0.52,0.16-0.95,0.55-1.2,1.06c-0.22,0.49-0.25,1.06-0.05,1.58
		c0.05,0.16,1.47,4.08-1.66,7.05c-0.65,0.6-1.31,0.87-2.07,0.84c-1.82-0.08-3.84-1.85-4.47-2.5c-0.63-0.71-1.69-0.87-2.5-0.41
		c-0.84,0.46-1.23,1.44-0.95,2.34c0.22,0.76,0.35,2.15,0,2.81c-0.08,0.11-0.19,0.24-0.52,0.33c-1.93,0.49-3.35-1.42-3.38-1.5
		c-0.44-0.63-1.23-0.98-1.99-0.87s-1.42,0.65-1.63,1.39c-0.65,1.99-2.07,4.33-3,4.47c-1.69,0.3-2.37,0.41-5.47-3.57
		c-0.54-0.68-1.42-0.95-2.26-0.68c-0.82,0.27-1.36,1.01-1.39,1.88c-0.03,0.63-0.33,2.1-1.06,2.53c-0.19,0.11-0.44,0.16-0.74,0.16
		c-0.68,0-1.58-0.27-2.61-0.82c-1.01-0.52-2.23-0.14-2.75,0.87c-0.24,0.43-0.3,0.93-0.19,1.39c-0.03,0.03-0.03,0.03-0.05,0.05
		c-0.38-0.27-0.93-0.9-1.2-1.2c-0.22-0.24-0.41-0.46-0.57-0.63c-0.49-0.49-1.17-0.71-1.85-0.6c-0.68,0.14-1.23,0.57-1.5,1.2
		c-1.2,2.81-2.07,4.57-4.17,5.55c-0.93,0.44-1.88,0.52-2.4,0.22c-0.55-0.33-0.84-1.12-0.9-2.4c0.22-0.87,0.22-1.77,0.05-2.67
		c-0.22-0.98-1.12-1.69-2.12-1.61c-1.01,0.05-1.82,0.82-1.93,1.82c-0.03,0.46-0.11,1.14-0.11,1.93c-0.11,0.27-0.3,0.57-0.54,0.84
		c-0.65,0.76-1.58,1.23-2.45,1.17c-1.17-0.08-2.31-0.95-2.97-2.1c-0.08-0.84-0.3-1.77-0.63-2.69c-0.35-0.93-1.31-1.47-2.29-1.31
		c-0.95,0.16-1.66,1.01-1.69,1.99c0,1.06,0.19,2.07,0.57,3.02c-0.03,0.46-0.14,0.84-0.35,1.09c-0.54,0.63-2.04,0.55-2.94-0.19
		c-1.25-1.01-1.91-2.78-2.45-4.52c-0.27-0.95-1.2-1.55-2.15-1.44c-0.98,0.11-1.74,0.9-1.82,1.88c-0.14,1.69-0.3,3.19-0.9,4.46
		c-0.54,1.12-1.44,1.91-2.34,2.02c-1.06,0.11-2.15-0.71-2.75-1.58c-0.46-0.63-0.74-1.28-1.01-1.88c-0.46-1.12-1.01-2.34-2.45-2.89
		c-0.41-0.16-0.84-0.24-1.28-0.24c-1.06,0-2.1,0.41-3.05,0.84c-0.44,0.19-0.84,0.38-1.23,0.6c-1.33,0.68-1.91,0.95-3,0.71
		c-1.55-0.35-2.91-1.74-3.19-3.32c-0.19-0.98-1.12-1.71-2.04-1.66c-0.98,0-1.82,0.74-1.99,1.71c-0.19,1.12-0.98,2.12-2.21,2.75
		c-1.5,0.79-3.24,0.87-4.57,0.22c-2.67-1.28-4.17-4.9-3.43-8.25c0.22-1.06-0.41-2.12-1.47-2.42c-1.03-0.27-2.12,0.3-2.48,1.33
		c-0.27,0.84-1.03,1.58-2.01,1.99c-0.95,0.41-2.01,0.41-2.83,0c-0.79-0.38-1.44-1.23-1.69-2.26c-0.27-1.01-0.14-2.07,0.35-2.8
		c0.46-0.68,0.46-1.55,0.03-2.23c-0.44-0.71-1.25-1.06-2.07-0.93c-1.33,0.22-2.37,0.9-3.29,1.5c-0.3,0.19-0.6,0.38-0.9,0.55
		c-0.63,0.35-1.17,0.38-1.25,0.35c-0.03-0.03-0.11-0.16-0.19-0.74c-0.25-1.61-0.11-3.32,0.44-4.87c0.14-0.33,0.25-0.63,0.38-0.95
		c0.38-1.03-0.14-2.18-1.17-2.59c-1.01-0.44-2.18,0.05-2.61,1.06c-0.16,0.33-0.27,0.65-0.41,0.98c-0.68,1.55-1.77,3.32-3.46,4.27
		c-1.42,0.79-3.65,0.87-4.76-0.41c-0.6-0.71-0.95-1.8-1.09-3.46c-0.19-2.53,0.11-5.17,0.84-7.6c0.33-1.03-0.22-2.15-1.25-2.53
		c-1.01-0.35-2.15,0.14-2.56,1.14c-0.54,1.25-1.69,2.29-3.13,2.83c-1.47,0.54-3,0.52-4.22-0.08c-1.52-0.74-2.94-3.43-3.16-5.99
		c-0.03-0.19-0.03-0.41-0.03-0.68c0-0.95,0.19-2.34,1.17-3.05c0.93-0.65,1.14-1.93,0.46-2.86c-0.41-0.54-1.03-0.84-1.66-0.84
		c-0.41,0-0.82,0.14-1.17,0.38c0,0,0,0-0.03,0c-1.52,1.12-4.08,0.74-5.23-0.79c-1.14-1.52-0.82-4.06,0.68-5.25
		c0.71-0.55,0.98-1.5,0.65-2.34c-0.33-0.84-1.17-1.36-2.07-1.28c-2.12,0.16-4.25-0.93-5.04-2.61c-0.38-0.84-0.38-1.88,0-2.81
		c0.14-0.38,0.46-1.01,1.06-1.41c0.24-0.08,0.46-0.22,0.68-0.35c0.93-0.54,1.28-1.69,0.79-2.64c-0.46-0.95-1.61-1.39-2.59-1.01
		c-0.22,0.11-0.46,0.22-0.68,0.33c-0.79,0.27-1.61-0.03-1.96-0.19c-0.98-0.43-1.74-1.28-1.91-2.18c-0.35-1.74,0.95-3.73,2.78-4.41
		c0.3-0.08,0.57-0.16,0.87-0.24c1.01-0.35,1.58-1.44,1.31-2.48s-1.31-1.69-2.37-1.47c-0.33,0.08-0.63,0.14-0.9,0.25
		c-2.37,0.43-5.09-0.95-6.02-3.13c-0.65-1.52-0.57-2.99,0.24-4.52c1.52-2.86,5.09-4.9,7.84-5.45c1.09-0.22,1.8-1.25,1.61-2.34
		c-0.87-4.95-2.1-18.68,2.42-22.9c1.28-1.17,3.02-1.47,5.31-0.9c0.79,0.19,1.63-0.11,2.12-0.74c0.49-0.65,0.54-1.52,0.16-2.23
		c-0.03-0.06-2.78-5.23-0.19-8.11c2.23-2.45,5.36-0.05,5.72,0.22c0.76,0.63,1.85,0.6,2.61-0.03c0.74-0.65,0.93-1.74,0.44-2.59
		c-0.93-1.61-2.48-5.45-1.36-7.13c0.93-1.36,4.25-0.33,5.61,0.33c0.79,0.38,1.74,0.22,2.37-0.41c0.63-0.63,0.76-1.58,0.33-2.37
		c-0.03-0.11-4.82-9.34,0.54-13.4c5.04-3.81,9.64,1.63,10.13,2.26c0.68,0.84,1.91,0.98,2.78,0.35c0.9-0.65,1.09-1.91,0.49-2.83
		c-0.03-0.05-0.9-1.39,0.24-4.06c0.16-0.35,0.27-0.49,0.27-0.49c0.16,0,0.46,0.11,0.79,0.3c0.74,0.63,1.33,1.04,1.5,1.12
		c0.87,0.57,2.04,0.38,2.67-0.44c0.65-0.82,0.6-1.99-0.14-2.72c-0.19-0.19-0.79-0.76-1.61-1.28c-0.79-0.74-1.63-1.77-1.8-2.83
		c-0.08-0.44-0.11-1.14,0.63-2.07c0.63-0.79,1.28-1.2,2.07-1.31c1.69-0.19,3.65,1.09,4.25,1.58c0.55,0.46,1.31,0.6,1.99,0.35
		c0.68-0.24,1.17-0.82,1.31-1.52l0.63-3.08c0.22-1.01-0.35-1.99-1.31-2.34c-0.57-0.19-2.83-1.28-2.64-2.42
		c0.14-0.71,2.42-1.36,4.6-1.36h0.16c0.84,0,1.61-0.54,1.91-1.33c0.3-0.82,0.05-1.74-0.63-2.29c-0.74-0.63-2.64-2.64-2.56-4.6
		c0.05-1.22,0.93-2.42,2.56-3.54c5.83-3.97,10.1,1.77,10.56,2.42c0.3,0.46,0.79,0.76,1.33,0.87c0.54,0.08,1.12-0.05,1.55-0.38
		l3.02-2.23c0.74-0.55,1.01-1.5,0.68-2.37c-0.35-0.98-0.44-1.77-0.19-2.04c0.6-0.71,3.21-0.74,5.15-0.33
		c0.63,0.14,1.28-0.05,1.77-0.46c0.49-0.43,0.74-1.06,0.68-1.71c-0.19-2.59,0.3-3.43,0.46-3.54c0.57-0.3,2.72,0.6,4.25,1.82
		c0.65,0.52,1.58,0.57,2.29,0.14c0.74-0.41,1.12-1.22,1.01-2.07c-0.33-1.99-0.65-8.2,1.8-10.75c0.95-0.98,2.26-1.36,4.08-1.14
		c8.41,0.95,7.38,12.01,7.35,12.47c-0.11,0.9,0.41,1.74,1.25,2.07c0.84,0.35,1.82,0.08,2.4-0.6c0.33-0.44,1.31-1.31,3.02-0.35
		c1.14,0.65,1.63,1.09,1.8,1.31c-0.05,0.79,0.35,1.58,1.09,1.96c0.98,0.52,2.21,0.16,2.75-0.82c0-0.03,0-0.03,0.03-0.05
		c0.08-0.19,1.55-2.72,4.49-2.48c2.81,0.27,7.41,1.88,6.94,9.8c0,0.14,0,0.3,0.03,0.43l0.84,5.23c0.11,0.63,0.49,1.17,1.06,1.47
		c0.54,0.3,1.23,0.33,1.8,0.05c0.22-0.08,5.23-2.29,8.39,1.28c3.05,3.49,1.91,5.66,1.88,5.69c-0.54,0.87-0.38,1.99,0.41,2.64
		c0.76,0.68,1.93,0.63,2.7-0.05c0,0,0.57-0.49,1.25-0.44c0.74,0.03,1.44,0.65,1.91,1.17c0.9,1.03,0.3,3.7-0.11,4.76
		c-0.3,0.71-0.16,1.52,0.35,2.12c0.52,0.57,1.33,0.79,2.1,0.6c0.03,0,3.02-0.82,5.01,0.87c2.23,1.91,2.83,5.04,2.15,6.21
		c-0.57,0.95-0.27,2.18,0.65,2.78c0.54,0.35,1.36,1.14,0.76,2.37c-0.35,0.71-0.27,1.55,0.22,2.18c0.46,0.63,1.28,0.9,2.04,0.74
		c3.73-0.82,8.47-0.82,9.34,0.55c0.95,1.47,1.88,3.89-1.23,7.6c-0.46,0.57-0.6,1.33-0.33,2.01c0.25,0.68,0.84,1.2,1.55,1.31
		c0.03,0,2.94,0.57,2.83,2.02c-0.08,1.03-0.33,1.44-0.41,1.58c-0.93,0.22-1.61,1.04-1.61,1.99c0,1.12,0.87,2.02,1.96,2.07
		c0.05,0,5.66,0.22,6.48,3.73c0.98,4.11-0.25,5.69-3.02,8.11c-0.71,0.6-0.9,1.63-0.49,2.45c0.41,0.84,1.33,1.28,2.26,1.09
		c0.84-0.19,2.78-0.3,3.54,0.19c0.11,0.08,0.16,0.16,0.19,0.35c0.38,2.15-1.25,3.62-1.31,3.67c-0.41,0.35-0.65,0.84-0.71,1.39
		l-0.38,4.49c-0.05,0.71,0.27,1.39,0.82,1.8c0.57,0.44,1.31,0.55,1.96,0.27c1.55-0.57,6.23-1.77,9.12-0.33
		c1.23,0.63,2.04,1.66,2.48,3.19c1.42,4.93-3.1,7.65-3.29,7.76c-0.93,0.55-1.25,1.69-0.79,2.64c0.46,0.98,1.63,1.39,2.61,1.01
		c0.11-0.03,0.27-0.05,0.3-0.05c0.08,0.05,0.3,0.44,0.41,1.36c0.22,1.85-0.76,2.37-1.61,2.48c-1.09,0.11-1.91,1.06-1.85,2.15
		c0.08,1.09,0.95,1.99,2.1,1.93c0.19,0,4.6,0.03,5.25,2.89c0.19,0.84-0.03,1.28-0.19,1.55c-0.71,1.01-2.56,1.5-3.13,1.58
		c-1.09,0.16-1.85,1.17-1.74,2.26c0.14,1.12,1.14,1.91,2.2,1.8c0.9-0.05,2.64,0.14,2.75,0.76c0.3,1.96-0.19,2.72-2.15,3.4
		c-0.82,0.27-1.36,1.03-1.39,1.91c0,0.84,0.52,1.63,1.33,1.93c0.05,0.03,4.66,1.85,4.49,4.79C222.68,175.46,219.9,179,217.16,179z"
		/>
</g>
</svg>
