<?xml version="1.0" encoding="utf-8"?>
<!-- Generator: Adobe Illustrator 24.0.3, SVG Export Plug-In . SVG Version: 6.00 Build 0)  -->
<!DOCTYPE svg PUBLIC "-//W3C//DTD SVG 1.1//EN" "http://www.w3.org/Graphics/SVG/1.1/DTD/svg11.dtd" [
	<!ENTITY ns_flows "http://ns.adobe.com/Flows/1.0/">
	<!ENTITY ns_extend "http://ns.adobe.com/Extensibility/1.0/">
	<!ENTITY ns_ai "http://ns.adobe.com/AdobeIllustrator/10.0/">
	<!ENTITY ns_graphs "http://ns.adobe.com/Graphs/1.0/">
	<!ENTITY ns_vars "http://ns.adobe.com/Variables/1.0/">
	<!ENTITY ns_imrep "http://ns.adobe.com/ImageReplacement/1.0/">
	<!ENTITY ns_sfw "http://ns.adobe.com/SaveForWeb/1.0/">
	<!ENTITY ns_custom "http://ns.adobe.com/GenericCustomNamespace/1.0/">
	<!ENTITY ns_adobe_xpath "http://ns.adobe.com/XPath/1.0/">
]>
<svg version="1.1" id="레이어_1" xmlns:x="&ns_extend;" xmlns:i="&ns_ai;" xmlns:graph="&ns_graphs;"
	 xmlns="http://www.w3.org/2000/svg" xmlns:xlink="http://www.w3.org/1999/xlink" xmlns:a="http://ns.adobe.com/AdobeSVGViewerExtensions/3.0/"
	 x="0px" y="0px" viewBox="0 0 175 351" style="enable-background:new 0 0 175 351;" xml:space="preserve">
<metadata>
	<sfw  xmlns="&ns_sfw;">
		<slices></slices>
		<sliceSourceBounds  bottomLeftOrigin="true" height="350" width="174.6" x="0" y="-350.2"></sliceSourceBounds>
	</sfw>
</metadata>
<g>
	<g>
		<path style="fill:#FFFFFF;" d="M63,219.4c-2.7-1.9-6.5-2.2-9.5-0.8c-2.9,1.3-4.7,4-5,7.3c-1.4,15-3.5,32.6-8.3,49.4l-0.8,2.8
			l17.2,5.6l0.9-3c5.4-18.8,7.6-38.4,9-53.5C66.7,224,65.5,221.2,63,219.4z"/>
	</g>
	<path style="fill:#0099DA;" d="M61.1,316c0,0-0.3-0.3-0.3-0.3c-8.7-8.1-15-6-15.1-6c4.7-8.9,8.7-18.6,11.6-29l0.8-2.8L41,272.3
		l-0.9,3c-3.4,11.9-8,22.4-13.9,32l-0.1,0l-8.1,12.9c-1.9,3,1.4,8.5,4.4,10.4l3.8,2.4l17.4,10.9c5.2,3.2,11,7.9,17.5,5.9
		c4.5-1.4,7.5-7.8,7.9-12.1C69.8,329.6,66.9,321.6,61.1,316z"/>
</g>
<g>
	<path style="fill-rule:evenodd;clip-rule:evenodd;fill:#0099DA;" d="M147.5,321.7c-3.7-7.1-10.6-12.2-18.5-13.8
		c0,0-0.4-0.1-0.4-0.1c-8.9-1.6-13.5,1.1-15.1,2.4c-0.1-8.4-1-17-2.7-25.8l-0.5-2.7l-18,1.9l0.6,3.2c1.5,8.5,2.3,18.1,2.2,28.5l0,0
		l0,0.3c0,2-0.1,4-0.1,6l0.2,0l0.1,13.2c0.1,3.6,5.8,6.4,9.3,6.3l4.4-0.1l20.5-0.3c6.1-0.1,13.5,0.6,17.9-4.6
		C150.5,332.6,149.5,325.5,147.5,321.7z"/>
	<path style="fill:#FFFFFF;" d="M110.7,284.4c-3.8-19.6-11-38.7-16.9-53.1c-1.2-3-3.6-4.9-6.6-5.3c-3.3-0.5-6.8,1-8.8,3.7
		c-2,2.5-2.4,5.7-1.1,8.8c5.8,14.2,12.1,31,15.6,48.4l0.5,2.7l18-1.9L110.7,284.4z"/>
</g>
<g>
	<g>
		<path style="fill:#FFFFFF;" d="M88.9,1c-3.1,0.9-5.8,2.6-7.8,5.4C77.7,11,75.2,20,77,25.9c0.6,2.1,2.8,0.9,5.2,0.7
			c2.8-0.3,2.3-3.3,4.6-5.9c3.3-3.7,5.9,0.7,10.6,5.5c3.8,3.9,9.7,3.6,13.3-0.5c3.6-4.1,3.4-10.6-0.3-14.5C103,3.7,98.3-1.8,88.9,1z
			"/>
		<path style="fill:#6B2F1A;" d="M95.6,19.5c0.7-0.3,1.5-0.2,2.1,0c-0.8-0.5-1.5-1.3-1.8-2.4c-0.6-2.2,0.5-4.5,2.4-5.2
			c0.9-0.3,1.9-0.2,2.7,0.2c-0.7-0.5-1.3-1.2-1.6-2.2c-0.6-2.2,1-4.4,3-5.1c0.2-0.1,1,0,1.2,0c4.2,2.9,5.9,5.7,6.6,6.3
			c3.7,3.9,3.9,10.3,0.3,14.5c-3.6,4.1-9.5,4.3-13.3,0.5c-1.1-1.1-3.3-3.4-3.9-4.1C92.4,21.1,94.3,20,95.6,19.5"/>
	</g>
</g>
<g>
	<path style="fill:#0099DA;" d="M68.4,264.1C68.3,264.1,68.5,264.1,68.4,264.1L68.4,264.1z"/>
	<path style="fill:#0099DA;" d="M157.4,83.6c-0.2-1.1-0.5-2.2-0.8-3.3c-0.2-1.1-0.5-2.2-0.8-3.4c-3.3-13.6-10.5-28.5-21.7-37.2
		c-14.5-11.2-33.4-19.5-51.6-19.2l-5.9,0.1c-0.2,0-0.3,0-0.3,0C58.1,21,39.5,30,25.4,41.7C14.4,50.7,7.8,65.8,5,79.6
		c-2.7,13-2.5,26,0.4,38.7c0.9,5.6,2.4,11.2,4.4,16.9c0.7,1.9,1.3,3.8,1.9,5.8c0.1,0.9,0.1,1.8,0.1,2.7c0.1,4.4-1.8,8.5-2.9,12.7
		c-2.8,10.8-6.9,21.4-8.3,32.5c-1.8,14.2,0.3,33.6,8.3,45.7c11.1,16.8,31.8,25.5,51,28.6c2.8,0.4,5.7,0.8,8.5,1l5.7,0.4
		c0.1,0,0.2,0,0.3,0c2.8,0.2,5.6,0.3,8.5,0.3c23.5-0.1,47.6-6.8,59.2-29.1c8.5-16.3,9.1-34.8,7.6-52.7c-0.8-9.7-5.1-21.8-2.4-31.4
		c0,0,0,0,0,0l0.3-0.1c0.2-0.8,0.4-1.8,0.8-2.8c0.3-0.6,0.5-1.2,0.8-1.8l-0.2,0c1.8-4.8,4.5-10.7,5.7-14.2
		C160.2,116.9,161.1,100.1,157.4,83.6z"/>
	<path style="fill:#0099DA;" d="M82.5,20.6c0,0-0.1,0-0.3,0L82.5,20.6z"/>
</g>
<path style="fill-rule:evenodd;clip-rule:evenodd;fill:#FFFFFF;" d="M155.7,76.4c-0.2-2.1-0.8-8-1.2-9.8c-0.9-4.9-2.4-9.6-4.6-13.9
	c-5-9.7-14.8-16.8-23.8-21c-5.5-2.6-10.5-4.1-16.6-4.9c-7.6-1-10.8-1.1-18.2,1.1c-8.8,2.6-10,9.8-14.6,21.2
	c-3,7.6-4.2,11.7-5.1,20.2l0.2,0c-0.2,1.5-1,6.5-0.1,19.4c0.5,7.6,2,20.4,4.4,27.5c2.2,6.5,7.1,30.1,23.4,30.4
	c10.6,0.2,13,0.4,23.6-0.2c2.3-0.1,4.6-0.2,6.8-0.3c16.3-0.9,33.8-8.8,40.9-27.1c2.7-7,3.9-15.1,2.7-22.6c-0.7-4.8-1.6-6.6-3.8-10.9
	c-2.5-4.8-5.5-7-14.5-8.9"/>
<g>
	<g>
		<path style="fill-rule:evenodd;clip-rule:evenodd;" d="M173.6,87.1c0,1.4-0.3,2.5-1.6,2.6c-1.3,0-3-1.3-3-2.7
			c0-1.4,0.8-2.3,2.2-2.3C172.5,84.6,173.6,85.7,173.6,87.1"/>
		<g>
			<path style="fill-rule:evenodd;clip-rule:evenodd;" d="M149.8,86.1L149.8,86.1c-1.9,0.1-3.5-1.6-3.7-3.9l0-0.6
				c-0.2-2.3,0.6-4.4,3-4.4c1.9,0,2.9,1.9,3.1,4.2l0,0.6C152.4,84.3,151.7,86,149.8,86.1"/>
		</g>
	</g>
	
		<path style="fill-rule:evenodd;clip-rule:evenodd;fill:none;stroke:#251714;stroke-width:3.3124;stroke-linecap:round;stroke-linejoin:round;stroke-miterlimit:10;" d="
		M173,101c-4,4.2-12.2,5.9-17.5,1.8c-1.4-1.1-3.8-3.4-2.7-4.8"/>
</g>
<path style="fill-rule:evenodd;clip-rule:evenodd;fill:#F5B6B5;" d="M141.7,101c0.2,10.7-7.9,19.5-18.1,19.7
	c-10.2,0.2-18.5-8.4-18.7-19.1c-0.2-10.7,7.9-19.5,18-19.7C133.1,81.8,141.5,90.3,141.7,101"/>
<g>
	<path style="fill:#FFFFFF;" d="M105.5,201.7c-5.4-8.5-8.4-17.8-11.8-27.7c-1.5-4.4-6.7-20.3-14.2-13.7c-2.7,2.4-2.4,7.8-2.4,11.1
		c-0.2,7.1,0.7,14.2,2.6,20.9c2.1,7.6,5.3,14.7,9.3,21.3C92.8,209.7,98.4,205.1,105.5,201.7z"/>
	<path style="fill:#0083BB;" d="M131.4,225.5c-0.1-0.1-0.2-0.1-0.3-0.2c-3-1.6-5.6-3.2-8.1-4.9c-3.5-2.5-6.7-5.2-9.7-8.5
		c-1.5-1.6-2.9-3.3-4.3-5.1c-1.3-1.6-2.4-3.3-3.5-5c-7.1,3.4-12.7,8-16.5,11.9c1.9,3.2,4.1,6.3,6.4,9.2c6.6,8.4,14.7,17.6,24.3,22.6
		c4.7,2.5,10.7,2.5,15.4-0.8c1-0.7,1.9-1.4,2.6-2.2c2.6-2.7,4.2-6.6,2.9-10c-0.3-0.7-0.6-1.3-1-1.8
		C137.6,228.1,134.2,227,131.4,225.5z"/>
</g>
<g>
	<g>
		<path style="fill:#FFFFFF;" d="M51.4,1.3c4.5,0.8,8.6,2.7,11.8,6.1c5.5,5.9,7.8,14.5,6,22.7c-0.6,2.9-3.7,3.5-7.2,3.6
			c-4.1,0.1-3.7-3-7.3-6.1c-5.1-4.6-6.3,1.8-12.4,8.9c-4.9,5.7-13.4,6.3-19,1.2c-5.6-5.1-6.2-13.8-1.4-19.5
			C31.3,7.1,37.6-1.1,51.4,1.3z"/>
		<path style="fill:#6B2F1A;" d="M44,27.3c-1.1-0.3-2.1-0.1-3.1,0.3c1.1-0.8,2-2,2.3-3.4c0.6-3-1.2-5.9-4.1-6.6
			c-1.4-0.3-2.7,0-3.8,0.6c1-0.8,1.7-1.8,2-3.2c0.6-3-2.1-5.8-5-6.4c-0.3-0.1-1.4,0.1-1.7,0.1c-5.7,4.5-7.8,8.4-8.6,9.4
			c-4.8,5.7-4.2,14.5,1.4,19.5c5.6,5.1,14.1,4.5,19-1.2c1.4-1.7,4.2-5,5.1-6C48.7,28.9,45.9,27.7,44,27.3"/>
	</g>
</g>
</svg>
