<?xml version="1.0" encoding="utf-8"?>
<!-- Generator: Adobe Illustrator 23.1.1, SVG Export Plug-In . SVG Version: 6.00 Build 0)  -->
<!DOCTYPE svg PUBLIC "-//W3C//DTD SVG 1.1//EN" "http://www.w3.org/Graphics/SVG/1.1/DTD/svg11.dtd" [
	<!ENTITY ns_flows "http://ns.adobe.com/Flows/1.0/">
	<!ENTITY ns_extend "http://ns.adobe.com/Extensibility/1.0/">
	<!ENTITY ns_ai "http://ns.adobe.com/AdobeIllustrator/10.0/">
	<!ENTITY ns_graphs "http://ns.adobe.com/Graphs/1.0/">
	<!ENTITY ns_vars "http://ns.adobe.com/Variables/1.0/">
	<!ENTITY ns_imrep "http://ns.adobe.com/ImageReplacement/1.0/">
	<!ENTITY ns_sfw "http://ns.adobe.com/SaveForWeb/1.0/">
	<!ENTITY ns_custom "http://ns.adobe.com/GenericCustomNamespace/1.0/">
	<!ENTITY ns_adobe_xpath "http://ns.adobe.com/XPath/1.0/">
]>
<svg version="1.1" id="레이어_1" xmlns:x="&ns_extend;" xmlns:i="&ns_ai;" xmlns:graph="&ns_graphs;"
	 xmlns="http://www.w3.org/2000/svg" xmlns:xlink="http://www.w3.org/1999/xlink" xmlns:a="http://ns.adobe.com/AdobeSVGViewerExtensions/3.0/"
	 x="0px" y="0px" viewBox="0 0 960 540" style="enable-background:new 0 0 960 540;" xml:space="preserve">
<metadata>
	<sfw  xmlns="&ns_sfw;">
		<slices></slices>
		<sliceSourceBounds  bottomLeftOrigin="true" height="179.9" width="165.2" x="413.6" y="115.9"></sliceSourceBounds>
		<optimizationSettings>
			<targetSettings  fileFormat="PNG24Format" targetSettingsID="0">
				<PNG24Format  filtered="false" interlaced="false" matteColor="#FFFFFF" noMatteColor="false" transparency="true">
					</PNG24Format>
			</targetSettings>
		</optimizationSettings>
	</sfw>
</metadata>
<path style="fill:#4A90FF;" d="M538.7,269.1l0.3-0.7C538.8,268.5,538.6,268.8,538.7,269.1z"/>
<g>
	<path style="fill:#4A90FF;" d="M578.7,374.1c-1.2-4.2-6.4-5.4-9.4-2.2l-5.8,6.3c-0.7,0.8-1.2,1.8-1.4,2.9l-1.8,11.8
		c-0.5,3.3,2.1,6.4,5.4,6.4h1.9c2.4,0,4.5-1.6,5.2-3.8l5.7-18.1C578.9,376.2,578.9,375.1,578.7,374.1z"/>
	<path style="fill:#4A90FF;" d="M552,351.8c-1.1-2-0.8-4.5,0.9-6.1l19.7-19.2c0.7-0.6,1.1-1.5,1.4-2.3l2-7.7c1.2-4.7-3-8.9-7.7-7.8
		c-3.5,0.8-7.2-0.5-9.4-3.3l-2.6-3.3l-6.8-3.7l-10.7-29.3c-0.1-0.3,0.1-0.6,0.3-0.7l0,0l-2.2-9.3h-10.5c-0.2,0-0.4,0-0.7-0.1
		l-17.8-3.3c-2.1-0.4-4.3,0.5-5.4,2.4c-1.4,2.2-4.2,3-6.5,2l-16.2-6.9c-0.8-0.3-1.2-1.2-1-2l1.4-4.9c0.3-1.1-0.6-2.2-1.7-2.1
		l-25.4,1.7l-1.4,0.1c-7.4,0.7-14.2,4.3-19.1,9.9l-3.9,4.6c-0.1,0.1-0.3,0.3-0.4,0.5l-12.7,16.7c-2.2,2.9-2.6,6.7-1.1,10l0.7,1.6
		c1.3,2.7,1.2,5.8-0.1,8.5c-1.9,3.8-1.1,8.3,1.9,11.3l14.7,14.5c1.8,1.8,4.3,2.8,6.8,2.8h8.4h4c1.4,0,2.9-0.3,4.2-0.9l8.8-4.2
		c0.6-0.3,1.3-0.2,1.8,0.2l5.5,4.5c0.3,0.2,0.7,0.4,1.1,0.4h4.5c0.9,0,1.7,0.8,1.7,1.7v12c0,0.8,0.2,1.5,0.5,2.2l8.4,16.9
		c0.6,1.2,0.7,2.5,0.3,3.8l-4.3,13.5c-0.4,1.2-0.3,2.5,0.2,3.7l4.2,8.9c0.3,0.7,0.5,1.4,0.5,2.1v9.1c0,1,0.3,2,0.8,2.8l12.5,18.8
		c0.9,1.4,2.5,2.2,4.2,2.2h14.5c1.6,0,3.1-0.8,4.1-2.1l8.7-12.1c0.6-0.9,0.9-1.9,0.9-2.9v-4c0-2.2,1.5-4.2,3.6-4.8l1.4-0.4
		c2.2-0.6,3.6-2.6,3.6-4.8v-5.3c0-1.3,0.5-2.6,1.5-3.5l9.4-9.4c0.9-0.9,1.5-2.2,1.5-3.5v-12.7c0-0.9-0.2-1.7-0.7-2.5L552,351.8z"/>
</g>
</svg>
