<svg id="레이어_1" data-name="레이어 1" xmlns="http://www.w3.org/2000/svg" viewBox="0 0 960 540.37"><defs><style>.cls-1{fill:#00b4ff;}.cls-2{fill:#3ecaff;}.cls-21,.cls-3{fill:#7ad8ff;}.cls-4{fill:#a2e4ff;}.cls-5{fill:#30a83d;}.cls-6{fill:#278c00;}.cls-7{fill:#2a9300;}.cls-8{fill:#c3c3c3;}.cls-9{fill:#868686;}.cls-10{fill:#9d9d9d;}.cls-11{fill:#247b02;}.cls-12{fill:#258700;}.cls-13{fill:#2b681c;}.cls-14{fill:#2d701e;}.cls-15{fill:#29631b;}.cls-16{fill:#227304;}.cls-17{fill:#35bd00;}.cls-18{fill:#2ea03a;}.cls-19{fill:#606060;}.cls-20{fill:#99e1ff;}.cls-21{fill-rule:evenodd;}</style></defs><rect class="cls-1" width="960" height="506.75"/><path class="cls-2" d="M68.21,387.87c38.9-90.46,179.27-67.57,179.27-67.57S274.3,230.21,396,222.7s183.66,53.09,183.66,53.09c95.25-20.1,130.3,11.36,174.67,93.75C782.06,356,845.87,323,914.5,389.11c87.82,84.58,15,104.72,15,104.72l-238.77,5.52L60.8,486.65S31.4,473.49,68.21,387.87Z"/><path class="cls-3" d="M538.85,175.5c3.49-7.17-12.49-16.45-20.64-16.45,0,0-4-18.57-19.9-18.08s-28.81,8.72-31.18,16.33c0,0-26.8-4.11-29.65,12C434.91,184,464,185.87,475,186.44c18.43,1,43.55,2.3,59.15-6.59C536.64,178.42,538.14,177,538.85,175.5Z"/><path class="cls-4" d="M948.76,376c-10-67.67-85.63-49.92-85.63-49.92S845.59,259.49,766,253.94s-110.69,52.53-110.69,52.53C593.06,291.62,562,311.56,533,372.42c-18.17-10-64.64-27.48-109.53,21.36-57.43,62.49-6.37,39.63-6.37,39.63l156.15,4.08-13.4-24.91,393.76,15.53S958.74,443.64,948.76,376Z"/><path class="cls-3" d="M71.68,361.79s5.19-39.63,54.83-40.06,52.26,51.82,52.26,51.82,11.69-19.59,43.52-10,35.3,36.14,35.3,36.14H26.5s2.51-28.23,17.82-35C62.69,356.45,71.68,361.79,71.68,361.79Z"/><polygon class="cls-5" points="479.65 540.07 0 540 0 399.56 108.42 396.91 228.06 403.48 479.65 399.74 479.65 540.07"/><polygon class="cls-6" points="0 539.97 157.03 530.96 239.17 540.37 0 539.97"/><polygon class="cls-7" points="180.84 540.07 364.24 523.74 479.65 540.07 180.84 540.07"/><rect class="cls-8" y="421.94" width="486.44" height="90.77"/><rect class="cls-9" x="358.6" y="506.43" width="124.22" height="6.28"/><rect class="cls-10" y="506.43" width="111.79" height="6.28"/><rect class="cls-9" x="111.79" y="506.43" width="124.22" height="6.28"/><rect class="cls-10" x="235.73" y="506.43" width="124.22" height="6.28"/><path class="cls-11" d="M390.34,540.06s0-17.64-17.54-23.33c0,0,15.29-1.21,20.69,16.24,0,0-1.8-27.6,14.39-29.23,0,0-13.49,13.4-9,29.23,0,0,2.25-14.61,20.69-16.64,0,0-16.19,13.37-15.74,23.73Z"/><path class="cls-12" d="M187.21,540.06s0-18.28-21.63-24.17c0,0,18.86-1.27,25.51,16.83,0,0-2.22-28.61,17.75-30.3,0,0-16.64,13.89-11.09,30.3,0,0,2.77-15.15,25.51-17.25,0,0-20,13.85-19.41,24.59Z"/><polygon class="cls-13" points="261.85 540.07 271.23 514.44 296.54 507.41 342.94 530.85 344.81 540.07 261.85 540.07"/><path class="cls-11" d="M115.91,540.06s6.79-34.92-15.93-37.64c0,0,16.27,13.24,11.87,37.64Z"/><path class="cls-11" d="M115.91,540.06s-4.49-27.12,15.2-34.15c0,0-14.77,17-9.84,34.15Z"/><path class="cls-11" d="M123.29,540.06s2.54-19,19.08-18.82c0,0-15,9.94-13.73,18.82Z"/><polygon class="cls-11" points="296.54 507.41 329.32 534.28 342.94 530.85 296.54 507.41"/><polygon class="cls-11" points="296.54 507.41 281.46 526.94 272.11 534.28 267.05 540.07 261.85 540.07 271.23 514.44 296.54 507.41"/><path class="cls-11" d="M78.5,540.06s-.35-9.89,8.94-11.12c11.27-1.49,12.54,5.34,12.54,5.34s4.13-9.71,12.11-9,16.7,4.11,16.7,10.56c0,0-1.24-5,6.2-5.17s11.23,9.41,11.23,9.41Z"/><path class="cls-11" d="M264,540.06s.49-16.88-13.91-19.22c0,0,10.54,11,10.54,19.22Z"/><path class="cls-11" d="M264,540.06s5-29.6-8.5-32.65a44.17,44.17,0,0,1,5.13,32.65Z"/><path class="cls-14" d="M398.35,540.06s3.9-14,23.72-12.84c17.34,1,18.8,7.06,18.8,7.06s7.45-5.33,15.23-3.83S471,540.06,471,540.06Z"/><polygon class="cls-15" points="60.1 540.07 44.78 520.84 21.82 523.74 6.96 540.07 60.1 540.07"/><polygon class="cls-11" points="44.78 520.84 27.77 522.99 60.1 540.07 44.78 520.84"/><polygon class="cls-16" points="27.77 522.99 21.82 523.74 6.96 540.07 24.81 540.07 33.53 526.03 27.77 522.99"/><polygon class="cls-17" points="108.42 396.6 221.34 415.35 228.06 403.17 108.42 396.6"/><polygon class="cls-18" points="221.34 415.35 396.19 401.93 228.06 403.17 221.34 415.35"/><polygon class="cls-17" points="108.42 396.6 49.72 408.64 6.96 399.08 108.42 396.6"/><polygon class="cls-17" points="363.67 401.3 413.6 408.64 465.22 399.64 363.67 401.3"/><path class="cls-19" d="M72.56,437.17"/><rect class="cls-9" y="421.94" width="110.34" height="6.28"/><rect class="cls-10" x="110.05" y="421.94" width="124.22" height="6.28"/><rect class="cls-9" x="234.28" y="421.94" width="124.22" height="6.28"/><rect class="cls-10" x="358.22" y="421.94" width="124.22" height="6.28"/><polygon class="cls-5" points="959.99 539.68 474.29 540.07 474.29 399.43 589.8 396.6 709.43 403.17 960 399.44 959.99 539.68"/><polygon class="cls-6" points="474.29 540.07 638.4 530.65 720.54 540.07 474.29 540.07"/><polygon class="cls-7" points="662.22 540.07 845.62 523.74 959.51 539.85 662.22 540.07"/><rect class="cls-8" x="467.49" y="421.94" width="492.51" height="90.77"/><rect class="cls-9" x="839.98" y="506.43" width="120.02" height="6.28"/><rect class="cls-10" x="465.94" y="506.43" width="124.22" height="6.28"/><rect class="cls-9" x="590.17" y="506.43" width="124.22" height="6.28"/><rect class="cls-10" x="713.66" y="506.43" width="127.68" height="6.28"/><path class="cls-11" d="M871.71,540.06s0-17.64-17.54-23.33c0,0,15.3-1.21,20.69,16.24,0,0-1.8-27.6,14.4-29.23,0,0-13.5,13.4-9,29.23,0,0,2.25-14.61,20.69-16.64,0,0-16.19,13.37-15.74,23.73Z"/><path class="cls-12" d="M668.59,540.06s0-18.28-21.63-24.17c0,0,18.86-1.27,25.51,16.83,0,0-2.22-28.61,17.75-30.3,0,0-16.64,13.89-11.09,30.3,0,0,2.77-15.15,25.5-17.25,0,0-20,13.85-19.4,24.59Z"/><polygon class="cls-13" points="743.23 540.07 752.6 514.44 777.91 507.41 824.32 530.85 826.19 540.07 743.23 540.07"/><path class="cls-11" d="M597.29,540.06s6.78-34.92-15.93-37.64c0,0,16.27,13.24,11.86,37.64Z"/><path class="cls-11" d="M597.29,540.06s-4.49-27.12,15.2-34.15c0,0-14.77,17-9.85,34.15Z"/><path class="cls-11" d="M604.67,540.06s2.54-19,19.08-18.82c0,0-15,9.94-13.73,18.82Z"/><polygon class="cls-11" points="777.91 507.41 810.7 534.28 824.32 530.85 777.91 507.41"/><polygon class="cls-11" points="777.91 507.41 762.84 526.94 753.49 534.28 748.42 540.07 743.23 540.07 752.6 514.44 777.91 507.41"/><path class="cls-11" d="M559.88,540.06s-.35-9.89,8.94-11.12c11.27-1.49,12.54,5.34,12.54,5.34s4.13-9.71,12.11-9,16.69,4.11,16.69,10.56c0,0-1.23-5,6.21-5.17s11.23,9.41,11.23,9.41Z"/><path class="cls-11" d="M745.4,540.06s.5-16.88-13.91-19.22c0,0,10.55,11,10.55,19.22Z"/><path class="cls-11" d="M745.4,540.06s5-29.6-8.5-32.65A44.15,44.15,0,0,1,742,540.06Z"/><path class="cls-14" d="M879.73,540.06s3.89-14,23.72-12.84c17.34,1,18.79,7.06,18.79,7.06s7.46-5.33,15.24-3.83,14.88,9.61,14.88,9.61Z"/><polygon class="cls-15" points="541.47 540.07 526.16 520.84 503.19 523.74 488.33 540.07 541.47 540.07"/><polygon class="cls-11" points="526.16 520.84 509.14 522.99 541.47 540.07 526.16 520.84"/><polygon class="cls-16" points="509.14 522.99 503.19 523.74 488.33 540.07 506.19 540.07 514.9 526.03 509.14 522.99"/><polygon class="cls-17" points="589.8 396.6 702.72 415.35 709.43 403.17 589.8 396.6"/><polygon class="cls-18" points="702.72 415.35 877.56 401.93 709.43 403.17 702.72 415.35"/><polygon class="cls-17" points="589.8 396.6 531.1 408.64 488.33 399.08 589.8 396.6"/><polygon class="cls-17" points="845.05 401.3 894.98 408.64 946.6 399.64 845.05 401.3"/><path class="cls-19" d="M553.94,437.17"/><rect class="cls-9" x="467.49" y="421.94" width="124.22" height="6.28"/><rect class="cls-10" x="591.43" y="421.94" width="124.22" height="6.28"/><rect class="cls-9" x="715.66" y="421.94" width="124.22" height="6.28"/><rect class="cls-10" x="839.6" y="421.94" width="120.4" height="6.28"/><path class="cls-20" d="M131.38,322.11s31.45,16.72,37.78,61a72,72,0,0,0,7.6-8.43S177.31,325.86,131.38,322.11Z"/><path class="cls-21" d="M196,75.69l-.2.06Z"/><path class="cls-21" d="M252.12,96.07c-4.71-7.74-12-15.5-20.62-18.65-2.46-.89-16.38-3.19-16.44-7.15,0-3.41,7-1.54,8.68-1v.1A24.44,24.44,0,0,1,227.5,71l.06,0a7.29,7.29,0,0,0,8.52-1.23,7.44,7.44,0,0,0,1.3-8.7,7.29,7.29,0,0,0-3-3l-.74-.37A28.5,28.5,0,0,0,220,54.19a16.74,16.74,0,0,0-9.48,3,22.56,22.56,0,0,0-3.68,3.27A24,24,0,0,0,204.24,64a17.81,17.81,0,0,0-2,10.18A39.68,39.68,0,0,0,196,75.69l-3.58,1.2-.2.07a39.69,39.69,0,0,0-5.9,2.53,17.8,17.8,0,0,0-7.74-6.91,23.3,23.3,0,0,0-4.17-1.26,22.8,22.8,0,0,0-4.91-.39,16.84,16.84,0,0,0-9.35,3.35,28.58,28.58,0,0,0-8.81,11c-.17.33-.29.6-.36.74a7.26,7.26,0,0,0-.57,4.23,7.44,7.44,0,0,0,6.29,6.15,7.31,7.31,0,0,0,7.54-4.17l0-.06a24.8,24.8,0,0,1,2.07-3.49l-.06-.08c2.43-3.62,6-6.79,10.22-4.76a14.75,14.75,0,0,1,1.68,1A64.1,64.1,0,0,0,165,99.77c-5,7.72-6.1,18.3-5.18,27.31a57.29,57.29,0,0,0,11.73,29.5l.06.08A19.13,19.13,0,0,0,187.34,164l3.47-.11a116.5,116.5,0,0,0,61.3-19.77,19.41,19.41,0,0,0,8.58-15.74v-.09A57.69,57.69,0,0,0,252.12,96.07Z"/><path class="cls-4" d="M187.06,152.35s-15.29-28.88-34.71-28.7-30.64,22-30.64,22-23-8.41-29.16,14.58c0,0-15.7-7.29-16.26,6.73s146.92,16.82,148,2.8S206.43,136.57,187.06,152.35Z"/><path class="cls-3" d="M875.57,134.45S853,91.9,824.41,92.16s-45.14,32.49-45.14,32.49-33.88-12.4-43,21.48c0,0-23.14-10.74-24,9.92s216.5,24.79,218.15,4.13S904.1,111.2,875.57,134.45Z"/></svg>