<?xml version="1.0" encoding="utf-8"?>
<!-- Generator: Adobe Illustrator 23.0.2, SVG Export Plug-In . SVG Version: 6.00 Build 0)  -->
<svg version="1.1" id="Layer_1" xmlns="http://www.w3.org/2000/svg" xmlns:xlink="http://www.w3.org/1999/xlink" x="0px" y="0px"
	 viewBox="0 0 219 133" style="enable-background:new 0 0 219 133;" xml:space="preserve">
<g>
	<path style="fill:#A8321E;" d="M51.3,70.5v1.4H39v7.6h12.3v13.4h12V86C63.3,77.7,58,70.9,51.3,70.5z"/>
	<path style="fill:#445268;" d="M42,73.3h8.7v5c1.8,2.6,2.9,5.9,2.9,9.5c0,3.6-1.1,7-2.9,9.5v5H42c-6.4,0-11.6-6.5-11.6-14.5
		C30.4,79.7,35.6,73.3,42,73.3z"/>
	<path style="fill:#364254;" d="M38.4,87.7c0,8,5.2,14.5,11.6,14.5c6.4,0,11.6-6.5,11.6-14.5c0-8-5.2-14.5-11.6-14.5
		C43.5,73.3,38.4,79.7,38.4,87.7z"/>
	<path style="fill:#C64224;" d="M50.7,70.5l-8.7,0l0,0.1c-6.7,0.7-12,7.3-12,15.5v6.9h9.4V86c0-3.7,1.1-7.1,2.9-9.8l3.2-3L50.7,70.5
		z"/>
	<path style="fill:#BC3617;" d="M51.3,70.5c7,0,12.6,7,12.6,15.6v6.9h-1.6v-5.1c0.3-9.5-4.9-15.9-11-15.9c-6.8,0-11.1,6.7-11,15.9
		v5.1h-1.6V86C38.7,77.4,44.3,70.5,51.3,70.5z"/>
</g>
<g>
	<path style="fill:#A8321E;" d="M87.6,70.8v1.4H75.4v7.6h12.3v13.4h12v-6.9C99.7,78,94.3,71.2,87.6,70.8z"/>
	<path style="fill:#445268;" d="M78.3,73.6H87v5c1.8,2.6,2.9,5.9,2.9,9.5c0,3.6-1.1,7-2.9,9.5v5h-8.7c-6.4,0-11.6-6.5-11.6-14.5
		C66.8,80,71.9,73.6,78.3,73.6z"/>
	<path style="fill:#364254;" d="M74.7,88c0,8,5.2,14.5,11.6,14.5c6.4,0,11.6-6.5,11.6-14.5c0-8-5.2-14.5-11.6-14.5
		C79.9,73.6,74.7,80,74.7,88z"/>
	<polygon style="fill:#C64224;" points="87.1,70.8 78.3,70.8 77.9,77.3 81.8,73.6 	"/>
	<g>
		<path style="fill:#C64224;" d="M78.9,70.8v5.4c-2,2.7-3.1,6.2-3.1,10.1v6.8h-9.4v-6.9C66.3,78,71.9,71.2,78.9,70.8z"/>
	</g>
	<path style="fill:#BC3617;" d="M87.6,70.8c7,0,12.6,7,12.6,15.6v6.9h-1.6v-5.1c0.3-9.5-4.9-15.9-11-15.9c-6.8,0-11.1,6.7-11,15.9
		v5.1H75v-6.9C75,77.7,80.7,70.8,87.6,70.8z"/>
</g>
<g>
	<rect x="139" y="44.6" style="fill:#9B2C16;" width="35" height="13.2"/>
	<g>
		<rect x="60.1" y="35.1" style="fill:#D34A20;" width="20.4" height="30.9"/>
		<path style="fill:#D34A20;" d="M174.1,44.6h-1.6c-1.3,0-2.4,1.1-2.4,2.4v10.8h-19.7v-3.1c0-10.8-6.9-19.6-15.4-19.6h-13.5
			c-3.1-3.1-7.5-5.1-12.4-5.1H88.8v30.9h20.4c1.9,0,3.7-0.3,5.5-0.9V66h7.8c0.3,0.5,0.5,1,0.8,1.4v21.5h53.2V59.4v-1.5V47
			C176.5,45.7,175.5,44.6,174.1,44.6z"/>
	</g>
</g>
<g>
	<path style="fill:#A8321E;" d="M176.7,71.4v1.4h-12.2v7.6h12.2v13.3h12v-6.9C188.7,78.6,183.4,71.8,176.7,71.4z"/>
	<path style="fill:#445268;" d="M167.4,74.2h8.7v5c1.8,2.5,2.9,5.9,2.9,9.5c0,3.6-1.1,7-2.9,9.5v5h-8.7c-6.4,0-11.6-6.5-11.6-14.5
		C155.8,80.7,161,74.2,167.4,74.2z"/>
	<path style="fill:#4D5B77;" d="M163.8,88.7c0,8,5.2,14.5,11.6,14.5c6.4,0,11.6-6.5,11.6-14.5c0-8-5.2-14.5-11.6-14.5
		C168.9,74.2,163.8,80.7,163.8,88.7z"/>
	<path style="fill:#384559;" d="M175.3,97.2c2.6,0,5.6-3.5,5.6-8.5c0-5-2.9-8.5-5.6-8.5c-2.6,0-5.6,3.5-5.6,8.5
		C169.8,93.7,172.7,97.2,175.3,97.2z"/>
	<path style="fill:#C64224;" d="M175.9,71.4l-8.7,0l0,0.1c-6.6,0.8-11.8,7.4-11.8,15.4v6.9h9.4V87c0-3.9,1.2-7.4,3.2-10.1v-0.1
		l2.7-2.6L175.9,71.4z"/>
	<path style="fill:#D34A20;" d="M176.7,71.4c7,0,12.6,7,12.6,15.6v6.9h-1.6v-5.1c0.3-9.5-4.9-15.9-11-15.9c-6.8,0-11.1,6.7-11,15.9
		v5.1h-1.6V87C164.1,78.4,169.7,71.4,176.7,71.4z"/>
</g>
<path style="fill:#C93C1B;" d="M60.4,34.9c3.3,0,7,1.3,9.6,3.5c4.8-5.2,9-8.4,16.3-8.4c7,0,14.1,2.9,18.8,7.8
	c2.5-1.9,6.5-2.8,9.6-2.8c9.8,0,17.8,11,17.8,24.5v29.4H42.6V59.4C42.6,45.9,50.6,34.9,60.4,34.9z"/>
<g>
	<path style="fill:#7888A3;" d="M40,80.7c0,1,0.5,1.8,1.2,1.8H121c0.7,0,1.2-0.8,1.2-1.8l0,0c0-1-0.5-1.8-1.2-1.8H41.3
		C40.6,78.9,40,79.7,40,80.7L40,80.7z"/>
	<rect x="42.2" y="82.5" style="fill:#8393AA;" width="77.8" height="7.2"/>
	<path style="fill:#7888A3;" d="M40,89.7c0,1,0.5,1.8,1.2,1.8H121c0.7,0,1.2-0.8,1.2-1.8l0,0c0-1-0.5-1.8-1.2-1.8H41.3
		C40.6,87.9,40,88.7,40,89.7L40,89.7z"/>
</g>
<g>
	<path style="fill:#B73A1D;" d="M72.8,39.1h19.4c1.1,0,2,1.1,2,2.4v12.9v12.9v11.5H70.9V67.3V54.4V41.5
		C70.9,40.2,71.7,39.1,72.8,39.1z"/>
	<rect x="90.5" y="39.1" style="fill:#9B2C16;" width="1.3" height="39.7"/>
	<rect x="87" y="39.1" style="fill:#9B2C16;" width="1.3" height="39.7"/>
	<rect x="83.3" y="39.1" style="fill:#9B2C16;" width="1.3" height="39.7"/>
	<rect x="79.8" y="39.1" style="fill:#9B2C16;" width="1.3" height="39.7"/>
	<rect x="76.5" y="39.1" style="fill:#9B2C16;" width="1.3" height="39.7"/>
	<rect x="73" y="39.1" style="fill:#9B2C16;" width="1.3" height="39.7"/>
</g>
<g>
	<path style="fill:#A8321E;" d="M140.4,71.1v1.4h-12.2v7.6h12.2v13.3h12v-6.9C152.4,78.3,147.1,71.5,140.4,71.1z"/>
	<path style="fill:#445268;" d="M131.1,73.9h8.7v5c1.8,2.5,2.9,5.9,2.9,9.5c0,3.6-1.1,7-2.9,9.5v5h-8.7c-6.4,0-11.6-6.5-11.6-14.5
		C119.5,80.4,124.7,73.9,131.1,73.9z"/>
	<path style="fill:#4D5B77;" d="M127.4,88.4c0,8,5.2,14.5,11.6,14.5c6.4,0,11.6-6.5,11.6-14.5c0-8-5.2-14.5-11.6-14.5
		C132.6,73.9,127.4,80.4,127.4,88.4z"/>
	<path style="fill:#384559;" d="M139,96.9c2.6,0,5.6-3.5,5.6-8.5s-2.9-8.5-5.6-8.5c-2.6,0-5.6,3.5-5.6,8.5S136.4,96.9,139,96.9z"/>
	<path style="fill:#C64224;" d="M139.8,71.1l-8.7,0l0,0.1c-6.7,0.7-12,7.3-12,15.5v6.9h9.4v-6.8c0-3.7,1.1-7.1,2.9-9.8l3.2-3
		L139.8,71.1z"/>
	<path style="fill:#D34A20;" d="M140.4,71.1c7,0,12.6,7,12.6,15.6v6.9h-1.6v-5.1c0.3-9.5-4.9-15.9-11-15.9c-6.8,0-11.1,6.7-11,15.9
		v5.1h-1.6v-6.9C127.8,78.1,133.4,71.1,140.4,71.1z"/>
</g>
<g>
	<g>
		<path style="fill:#D84848;" d="M98,68.7c0,0,0.7,3.5-3.3,4.3c-4.6,0.9-13.7,1.9-18.7,2c-4.6,0.1-4.9-2.9-4.9-3.4
			c-0.8,0-1.7,0-2.5-0.1c0,0,3.6,12.4,17.5,11c13.9-1.4,14.4-14.3,14.4-14.3S99.6,68.3,98,68.7z"/>
		<path style="fill:#FFFFFF;" d="M76,74.9c5-0.1,14.1-1.1,18.7-2c4-0.8,3.3-4.3,3.3-4.3c-4.6,1-15.3,3.1-26.9,2.8
			C71.1,72,71.4,75,76,74.9z"/>
		<path d="M71.8,72.3c-2.4,0-3.8-0.1-3.9-0.1c-0.5,0-0.8-0.4-0.8-0.9c0-0.5,0.4-0.8,0.9-0.8c0.2,0,18.1,0.8,32.9-3.3
			c0.5-0.1,0.9,0.1,1.1,0.6c0.1,0.5-0.1,0.9-0.6,1.1C90.5,71.9,78,72.3,71.8,72.3z"/>
	</g>
	<path style="fill:#424F60;" d="M49.7,34c-0.2,0-0.5-0.1-0.6-0.3c-0.4-0.4-0.4-1.1,0-1.5c0.1-0.1,6.7-6.5,15.6,0.5
		c0.5,0.4,0.5,1,0.2,1.5c-0.4,0.5-1,0.5-1.5,0.2c-7.4-5.9-12.5-0.9-12.7-0.7C50.3,33.9,50,34,49.7,34z"/>
	<path style="fill:#424F60;" d="M117,34c0.2,0,0.5-0.1,0.6-0.3c0.4-0.4,0.4-1.1,0-1.5c-0.1-0.1-6.7-6.5-15.6,0.5
		c-0.5,0.4-0.5,1-0.2,1.5c0.4,0.5,1,0.5,1.5,0.2c7.4-5.9,12.5-0.9,12.7-0.7C116.4,33.9,116.7,34,117,34z"/>
	<path style="fill:#231F20;" d="M119.7,57.3c-0.1-0.7-0.7-1.1-1.4-1c-2.5,0.4-8.4,1-12.6,1.4c4.4-3.2,10-7.5,10.3-7.7
		c0.5-0.4,0.6-1.2,0.2-1.7c-0.4-0.5-1.2-0.6-1.7-0.2c-0.1,0.1-10.2,7.8-14,10.4c0,0,0,0,0,0c-0.1,0-0.1,0.1-0.2,0.2c0,0,0,0,0,0
		c-0.1,0.1-0.1,0.2-0.2,0.2c0,0,0,0,0,0.1c0,0.1-0.1,0.1-0.1,0.2c0,0,0,0.1,0,0.1c0,0.1,0,0.2,0,0.3c0,0,0,0,0,0
		c0,0.1,0.1,0.3,0.1,0.4c0,0,0,0.1,0.1,0.1c0.1,0.1,0.1,0.2,0.2,0.2c0,0,0,0.1,0.1,0.1c0.1,0.1,0.2,0.2,0.3,0.2
		c0.1,0,8,3.3,15.7,5.9c0.1,0,0.3,0.1,0.4,0.1c0.5,0,1-0.3,1.2-0.8c0.2-0.6-0.1-1.3-0.8-1.6c-4-1.3-8-2.8-10.9-4
		c4.2-0.4,9.9-1.1,12.4-1.4C119.4,58.6,119.8,58,119.7,57.3z"/>
	<path style="fill:#231F20;" d="M48.6,57.3c0.1-0.7,0.7-1.1,1.4-1c2.5,0.4,8.4,1,12.6,1.4c-4.4-3.2-10-7.5-10.3-7.7
		c-0.5-0.4-0.6-1.2-0.2-1.7c0.4-0.5,1.2-0.6,1.7-0.2c0.1,0.1,10.2,7.8,14,10.4c0,0,0,0,0,0c0.1,0,0.1,0.1,0.2,0.2c0,0,0,0,0,0
		c0.1,0.1,0.1,0.2,0.2,0.2c0,0,0,0,0,0.1c0,0.1,0.1,0.1,0.1,0.2c0,0,0,0.1,0,0.1c0,0.1,0,0.2,0,0.3c0,0,0,0,0,0
		c0,0.1-0.1,0.3-0.1,0.4c0,0,0,0.1-0.1,0.1c-0.1,0.1-0.1,0.2-0.2,0.2c0,0,0,0.1-0.1,0.1c-0.1,0.1-0.2,0.2-0.3,0.2
		c-0.1,0-8,3.3-15.7,5.9c-0.1,0-0.3,0.1-0.4,0.1c-0.5,0-1-0.3-1.2-0.8c-0.2-0.6,0.1-1.3,0.8-1.6c4-1.3,8-2.8,10.9-4
		c-4.2-0.4-9.9-1.1-12.4-1.4C48.9,58.6,48.5,58,48.6,57.3z"/>
</g>
</svg>
