<?xml version="1.0" encoding="utf-8"?>
<!-- Generator: Adobe Illustrator 23.0.2, SVG Export Plug-In . SVG Version: 6.00 Build 0)  -->
<svg version="1.1" id="레이어_1" xmlns="http://www.w3.org/2000/svg" xmlns:xlink="http://www.w3.org/1999/xlink" x="0px"
	 y="0px" viewBox="0 0 346 373" style="enable-background:new 0 0 346 373;" xml:space="preserve">
<style type="text/css">
	.st0{fill:#FFFFFF;}
	.st1{fill:#673101;}
	.st2{fill:#00A2E7;}
	.st3{fill:#008AC4;}
	.st4{fill:#FFB400;}
	.st5{fill:#DD9900;}
	.st6{fill:#FFE4A9;}
	.st7{fill:#FFC0BB;}
	.st8{fill:#353535;}
	.st9{fill:#FAFF59;}
	.st10{fill:#FF6469;}
	.st11{fill:#EFE630;}
	.st12{fill:#C93C1B;}
	.st13{fill:#D34A20;}
	.st14{fill:#EDC932;}
	.st15{fill:#4D5B77;}
	.st16{fill:#384559;}
	.st17{fill:#BC3617;}
	.st18{fill:#7888A3;}
	.st19{fill:#8393AA;}
</style>
<title>자산 16</title>
<g>
	<path class="st0" d="M107,137.5h-0.3c-5-0.6-8.6-5.1-8-10.1c0.4-3.9-1.8-8.7-2.7-10.1c-0.9-1.2-2.6-3-4-2.9c-3.2,0.1-8.6,5.4-11,9
		c-2.9,4.1-8.5,5.2-12.7,2.3c-4-2.8-5.1-8.2-2.5-12.4c1.2-1.7,11.5-16.8,25.7-17.2c5.1-0.2,12.7,1.6,19.3,10.6l0.3,0.5
		c0.7,1.1,6.9,11,5.6,22.2C116.2,134.3,111.9,137.9,107,137.5z"/>
	<path class="st1" d="M81.3,117.2c-0.7,0-1.4,0.1-2,0.5c1.5-1.3,1.7-3.6,0.3-5.2c-1.3-1.4-3.4-1.6-4.9-0.5c0.6-0.6,1-1.4,1.1-2.2
		c0.2-2-1.3-3.8-3.4-3.9l0,0c-0.2,0-0.3,0-0.5,0c-2.3,2.3-4.3,4.7-6.2,7.4c-2.6,4.3-1.1,9.9,3.2,12.5c4,2.4,9.2,1.3,11.9-2.4
		c1-1.4,2.1-2.8,3.3-4C83.8,118.2,82.6,117.4,81.3,117.2z"/>
</g>
<g>
	<path class="st0" d="M136.4,126l0.3-0.2c4.2-2.9,5.2-8.6,2.3-12.8c-2.3-3.3-2.5-8.6-2.4-10.2c0.3-1.5,0.9-3.9,2.1-4.5
		c2.9-1.5,10.1,0.7,14,2.8c4.5,2.4,10,0.8,12.5-3.7c2.4-4.5,0.8-10-3.7-12.5c-1.8-1-18.1-9.4-30.9-3.1c-4.6,2.3-10.5,7.4-12.1,18.6
		l-0.1,0.6c-0.1,1.3-0.8,13,5.6,22.4C126.7,127.6,132.3,128.7,136.4,126z"/>
	<path class="st1" d="M149.5,95.9c0.6-0.4,1.3-0.6,2.1-0.5c-1-0.2-1.8-0.8-2.3-1.6c-1.1-1.7-0.7-4,1-5.1c0.8-0.5,1.8-0.7,2.7-0.6
		c-0.8-0.2-1.6-0.8-2.1-1.5c-1.1-1.7-0.6-4,1.1-5.1c0.1-0.1,0.2-0.1,0.4-0.2c3.1,0.9,6.2,2.2,9.1,3.7c4.4,2.5,5.9,8.1,3.4,12.5
		c-2.4,4.2-7.7,5.8-12.1,3.6c-1.6-0.8-3.2-1.5-4.9-2C147.8,97.9,148.4,96.6,149.5,95.9z"/>
</g>
<g>
	<path class="st2" d="M140.3,104.4c0,0,14.4-3.4,38.5,4.6l30.2,84.5l6.6,62.1c2.2,20.7-21.2,40.1-52.4,43.4s-58.2-10.8-60.4-31.4
		l-7.1-66.7l-5.1-47.8C90.7,153.1,86.1,110,140.3,104.4z"/>
	<path class="st3" d="M197.2,252.5L197.2,252.5l-3-28c-1.1-9.9,6.1-18.8,16-19.8l0,0l5.4,50.9c0.5,4.4-0.2,8.9-1.9,13
		C205,267.8,198.1,261.1,197.2,252.5z"/>
</g>
<g>
	<path class="st4" d="M97.7,219.8l-0.4-3.3l-10.6,1.1c-4.7-2.4-2.9-9.5-2.9-9.5l0,0c4.9-13.3-2-28-15.3-32.9s-28,2-32.9,15.3
		c-2.5,6.9-2,14.6,1.6,21.1l0,0v0.1l0,0c0.4,0.7,4.8,9.1,11.4,13.2c0,0-4.1,3.2-7.5,12.1c-0.1,0.2-0.2,0.4-0.3,0.7s-0.2,0.5-0.3,0.8
		l0,0c-4.7,13.4,2.3,28,15.6,32.7s28-2.3,32.7-15.6c2.7-7.7,1.6-16.2-2.9-22.9c-0.8-2.4-2.1-6.1,1.3-8.5l10.6-1L97.7,219.8
		L97.7,219.8z M58.6,193.8c6.5-0.7,9.4,2.3,10,8.8s-1.5,10.7-7.9,11.4s-9.2-3-9.9-9.5S52.2,194.6,58.6,193.8L58.6,193.8z
		 M64.9,252.7c-6.5,0.7-9.2-2.3-9.8-8.8s1.2-10.7,7.7-11.4s9.4,3,10.1,9.5S71.3,252.1,64.9,252.7L64.9,252.7z"/>
	<path class="st5" d="M100.1,226.9c0.1,0.9-0.5,1.7-1.4,1.8l0,0l0,0c-0.9,0.1-1.7-0.6-1.8-1.4l-1.6-15.2c-0.1-0.9,0.6-1.7,1.4-1.8
		l0,0c0.9-0.1,1.7,0.6,1.8,1.5L100.1,226.9z"/>
	<path class="st6" d="M80,201.3L80,201.3c1.3-0.2,2.2-1.4,2-2.6c-1-9.5-7.4-17.6-16.4-20.7c-1.3-0.3-2.5,0.5-2.8,1.8
		c-0.3,1.2,0.4,2.3,1.5,2.8l0,0c7.3,2.6,12.4,9.1,13.2,16.8C77.6,200.6,78.7,201.5,80,201.3z"/>
</g>
<path class="st0" d="M159.2,104.3c34.9,0.2,42.1,30.4,43.2,35.6c10.6,0.7,18.1,9.5,19.7,20.7l0.3,2.4c2.4,16.9-9.3,32.5-26.1,34.9
	l0,0l-11.7,1.7c-29.7,4.3-50-15.2-53.8-42.2S138.1,104.6,159.2,104.3z"/>
<path class="st7" d="M195.6,163.7c1.4,9.7-5.3,18.6-15,20s-18.6-5.3-20-15c-1.4-9.6,5.3-18.6,15-20
	C185.2,147.3,194.2,154,195.6,163.7C195.5,163.6,195.5,163.7,195.6,163.7z"/>
<g>
	<path d="M219.9,151.2c0.6,1.1,0.7,2.2-0.1,3s-2.7,0-3.4-1.1s-0.6-2.8,0.6-3.3S219.4,150.2,219.9,151.2z"/>
	<path d="M198.8,141.2l-2.9,4l-4-2.9c-0.6-0.5-1.5-0.3-2,0.3s-0.3,1.5,0.3,2l4,2.9l-2.9,4c-0.5,0.6-0.4,1.5,0.3,2
		c0.6,0.5,1.5,0.4,2-0.3v-0.1l2.9-4l4,2.9c0.6,0.4,1.5,0.3,1.9-0.3v-0.1c0.5-0.6,0.3-1.5-0.3-2l0,0l-4-2.9l2.9-4
		c0.5-0.6,0.3-1.5-0.3-2l0,0C200,140.5,199.2,140.6,198.8,141.2z"/>
	<path d="M221.7,158.2l-2.6,4l-5.8-5.4l-4.5,6.9l-3.7-4.1c-0.5-0.6-1.4-0.7-2-0.1c-0.6,0.5-0.7,1.4-0.1,2l0,0l6.1,6.9l4.7-7.2
		l5.8,5.4l2.8-4.3l-0.2-1.6C222.1,159.8,221.9,159,221.7,158.2z"/>
</g>
<path class="st8" d="M259.2,239.1L233,225.3l6.5-12.3c1-1.8,0.4-4.1-1.4-5.1s-4.1-0.4-5.1,1.4c0,0.1-0.1,0.1-0.1,0.2l-16,30.2
	c-0.9,1.9-0.2,4.1,1.7,5c1.8,0.9,3.9,0.2,4.9-1.5L230,231l26.2,13.8L259.2,239.1z"/>
<g>
	<path class="st0" d="M236.2,209c-3.2-2.2-7.6-1.5-9.9,1.6c-7.8,10.1-12.7,11.4-17.2,11.7c-2.7,0.1-5.4,0-8.1-0.2
		c-16.9-1.8-21.5-11.5-21.8-12.2c-1.5-3.6-5.7-5.3-9.2-3.8s-5.2,5.5-3.8,9.1c0.3,0.9,8.1,19.5,36.3,21.2c2.6,0.1,5.2,0.1,7.8,0h0.3
		h0.3c11.2-1.6,21.1-8,27.1-17.5C240,215.7,239.3,211.3,236.2,209z"/>
	<path class="st3" d="M210.5,236.4h0.3c11.2-1.6,21.1-8,27.1-17.5c2.2-3.2,1.5-7.5-1.6-9.9c-3.2-2.2-7.6-1.5-9.9,1.6
		c-7.8,10.1-12.7,11.4-17.2,11.7c-2.7,0.1-5.4,0-8.1-0.2l1.4,14.3c2.6,0.1,5.2,0.1,7.8,0L210.5,236.4z"/>
</g>
<g>
	<path class="st9" d="M247.2,81c0,0-0.6,15.8-14.8,14c0,0,12.7,2.7,11,16c0,0,1.9-13.2,15-11.6C258.4,99.4,245,98.4,247.2,81z"/>
	<path class="st10" d="M207.5,29.6c0,0-0.6,15.8-14.8,13.9c0,0,12.7,2.7,11,16c0,0,1.9-13.2,15-11.6C218.7,47.9,205.3,47,207.5,29.6
		z"/>
	<path class="st9" d="M144.5,37.4c0,0-0.6,15.8-14.8,13.9c0,0,12.7,2.7,11,16c0,0,1.9-13.2,15-11.5
		C155.6,55.8,142.2,54.8,144.5,37.4z"/>
	<path class="st0" d="M166.6,35c3,0,3-4.7,0-4.7S163.6,35,166.6,35z"/>
</g>
<path class="st11" d="M296.3,230.5c10.8,0,19.5,9.6,19.5,21.5s-8.7,21.5-19.5,21.5V230.5z"/>
<g>
	<path class="st12" d="M296.3,305.6c0.1,2.7-2,5-4.7,5h-38.4c-2.7-0.1-4.8-2.4-4.7-5V202.3c-0.1-2.7,2-4.9,4.7-5h38.4
		c2.7,0.1,4.8,2.3,4.7,5V305.6z"/>
	<path class="st13" d="M291.6,207.1h-38.4c-2.6,0-4.7,2.1-4.7,4.7l0,0v39.9h-156v-21.2c0-2.6-2.1-4.7-4.7-4.7l0,0h-3.1
		c-2.6,0-4.7,2.1-4.7,4.7l0,0v82h171.5c0.5,0.2,1.1,0.3,1.7,0.3h38.4c0.6,0,1.1-0.1,1.7-0.3h3V211.8
		C296.3,209.3,294.2,207.1,291.6,207.1z"/>
</g>
<path class="st14" d="M75.1,271.9H80v16.3h-4.9c-2.6,0-4.7-2.1-4.7-4.7l0,0v-6.9C70.4,274,72.5,271.9,75.1,271.9L75.1,271.9z"/>
<g>
	<g>
		<path class="st15" d="M98.9,312c0-15.7,12.7-28.5,28.5-28.5c15.7,0,28.5,12.7,28.5,28.5s-12.7,28.5-28.5,28.5l0,0
			C111.6,340.5,98.9,327.8,98.9,312z"/>
		<path class="st16" d="M127.4,328.8c-9.2,0-16.7-7.5-16.7-16.7s7.5-16.7,16.7-16.7s16.7,7.5,16.7,16.7l0,0
			C144,321.3,136.6,328.7,127.4,328.8z"/>
	</g>
	<path class="st17" d="M127.4,278c-18.8,0-34.1,15.9-34.1,35.6v6.5h4.9v-6.5l0,0c0-16.8,13.1-30.4,29.2-30.4s29.2,13.6,29.2,30.4
		l0,0v6.5h4.9v-6.5C161.5,293.9,146.2,278,127.4,278z"/>
</g>
<g>
	<g>
		<path class="st15" d="M208.3,311.1c0-15.7,12.7-28.5,28.5-28.5c15.7,0,28.5,12.7,28.5,28.5c0,15.7-12.7,28.5-28.5,28.5l0,0
			C221,339.6,208.3,326.9,208.3,311.1z"/>
		<path class="st16" d="M236.7,327.9c-9.2,0-16.7-7.5-16.7-16.7s7.5-16.7,16.7-16.7s16.7,7.5,16.7,16.7S245.9,327.9,236.7,327.9z"/>
	</g>
	<path class="st17" d="M236.7,277.1c-18.8,0-34.1,15.9-34.1,35.6v6.5h4.9v-6.5l0,0c0-16.8,13.1-30.4,29.2-30.4s29.2,13.6,29.2,30.4
		l0,0v6.5h4.9v-6.5C270.8,293,255.6,277.1,236.7,277.1z"/>
</g>
<g>
	<path class="st18" d="M303.3,296.2c0,1.9-1.1,3.5-2.4,3.5h-14.3c-1.3,0-2.4-1.6-2.4-3.5l0,0c0-2,1.1-3.5,2.4-3.5h14.3
		C302.2,292.6,303.3,294.2,303.3,296.2z"/>
	<rect x="288.5" y="299.7" class="st19" width="10.5" height="10.6"/>
	<path class="st18" d="M300.9,310.3h-14.3c-1.3,0-2.4,1.6-2.4,3.5s1.1,3.5,2.4,3.5h14.3c1.3,0,2.4-1.6,2.4-3.5
		S302.2,310.3,300.9,310.3z"/>
</g>
<g>
	<path class="st18" d="M88.7,296.2c0,1.9-1.1,3.5-2.4,3.5H72c-1.3,0-2.4-1.6-2.4-3.5l0,0c0-2,1.1-3.5,2.4-3.5h14.3
		C87.6,292.6,88.7,294.2,88.7,296.2L88.7,296.2z"/>
	<rect x="73.9" y="299.7" class="st19" width="10.5" height="10.6"/>
	<path class="st18" d="M86.3,310.3H72c-1.3,0-2.4,1.6-2.4,3.5s1.1,3.5,2.4,3.5h14.3c1.3,0,2.4-1.6,2.4-3.5S87.6,310.3,86.3,310.3z"
		/>
</g>
</svg>
