<?xml version="1.0" encoding="utf-8"?>
<!-- Generator: Adobe Illustrator 24.1.1, SVG Export Plug-In . SVG Version: 6.00 Build 0)  -->
<svg version="1.1" id="Layer_1" xmlns="http://www.w3.org/2000/svg" xmlns:xlink="http://www.w3.org/1999/xlink" x="0px" y="0px"
	 viewBox="0 0 160 240" style="enable-background:new 0 0 160 240;" xml:space="preserve">
<g>
	<path d="M74,183.34c3.25,0.71,6.63,1.16,10.1,1.44l-2.77,13.52l0,0c0,0,0.01,0,0.01,0l-3.69,16.08l-0.72,8.16
		c0,2.04-3.23,3.69-5.27,3.69h-2.54h-11c-0.86,0-1.76,0.03-2.68,0.03c-2.78,0-5.65-0.28-7.59-2.5c-1.76-2.02-1.27-6.06-0.15-8.27
		c2.07-4.07,6.04-7.09,10.5-8.06c1.07-0.21,2.05-0.29,2.94-0.29c4.73,0,7.09,2.42,7.09,2.42l3.13-13.31c0,0,0,0,0,0l0,0L74,183.34
		 M72.51,181.04l-0.39,1.91l-2.65,12.9l-2.49,10.63c-1.4-0.66-3.35-1.26-5.84-1.26c-1.07,0-2.19,0.11-3.31,0.33l-0.02,0l-0.02,0
		c-5.07,1.1-9.48,4.49-11.81,9.07c-1.32,2.61-2.07,7.56,0.42,10.41c2.42,2.78,5.78,3.16,9.04,3.16c0.47,0,0.95-0.01,1.41-0.02
		c0.43-0.01,0.85-0.01,1.27-0.01h11h2.54c2.84,0,7.11-2.2,7.19-5.52l0.7-7.96l3.39-14.79l0.02-0.01l0.23-1.1l0.01-0.06l0.54-2.36
		h-0.06l2.3-11.21l0.44-2.13l-2.16-0.18c-3.74-0.31-6.96-0.77-9.84-1.41L72.51,181.04L72.51,181.04z"/>
	<path style="fill-rule:evenodd;clip-rule:evenodd;fill:#0097EB;" d="M77.64,214.39l-0.72,8.16c0,2.04-3.23,3.69-5.27,3.69h-2.54
		H58.11c-3.48,0-7.69,0.49-10.27-2.47c-1.76-2.02-1.27-6.06-0.15-8.27c2.07-4.07,6.04-7.09,10.5-8.06c0,0-0.04,0.01,0,0
		c6.69-1.3,10.03,2.13,10.03,2.13l3.13-13.32c0,0,2.62,1.2,4.57,1.62s5.41,0.43,5.41,0.43L77.64,214.39z"/>
	<path style="fill:#FFFFFF;" d="M74,183.34l-2.65,12.92l0,0c0.05,0.02,2.63,1.2,4.57,1.62c1.93,0.42,5.33,0.43,5.4,0.43l0,0
		l2.77-13.52C80.63,184.5,77.25,184.06,74,183.34z"/>
</g>
<g>
	<path style="fill:#FFFFFF;" d="M107.93,182.9v17.65H96.98v-15.69C100.69,184.55,104.37,183.92,107.93,182.9z"/>
	<path style="fill-rule:evenodd;clip-rule:evenodd;fill:#019DF7;" d="M107.93,200.55v28.66c0,2.19-3.47,3.97-5.66,3.97H86.93
		c-0.93,0-1.9,0.03-2.88,0.03c-1.12,0-2.26-0.04-3.35-0.22c-0.36-0.05-0.72-0.13-1.07-0.22c-1.4-0.38-2.7-1.05-3.74-2.25
		c-1.9-2.17-1.37-6.52-0.16-8.89c2.22-4.38,6.4-7.6,11.2-8.64c0,0,0.22-0.05,0.26-0.07c1.3-0.25,2.44-0.35,3.45-0.35
		c0.86,0,1.62,0.08,2.29,0.2c0.44,0.08,0.85,0.18,1.22,0.3c1.09,0.34,1.84,0.8,2.29,1.14c0.15,0.12,0.26,0.22,0.35,0.3
		c0.13,0.12,0.19,0.2,0.19,0.2v-14.16H107.93z"/>
	<path d="M109.09,181.37c-0.34-0.26-0.75-0.39-1.16-0.39c-0.18,0-0.35,0.02-0.53,0.07c-3.3,0.93-6.86,1.57-10.58,1.88
		c-1,0.08-1.77,0.91-1.77,1.91v26.5c-1.14-0.4-2.6-0.7-4.41-0.7c-1.2,0-2.48,0.14-3.81,0.39c-0.03,0.01-0.06,0.02-0.08,0.02
		l-0.25,0.06c-5.33,1.15-10.01,4.76-12.49,9.65c-1.41,2.76-2.2,8.01,0.43,11.03c2.57,2.94,6.14,3.35,9.61,3.35
		c0.51,0,1.02-0.01,1.51-0.02c0.47-0.01,0.92-0.01,1.37-0.01h15.34c3.02,0,7.59-2.35,7.59-5.9V182.9
		C109.86,182.3,109.57,181.73,109.09,181.37z M107.93,229.21c0,2.19-3.47,3.97-5.66,3.97H86.93c-0.93,0-1.9,0.03-2.88,0.03
		c-1.12,0-2.26-0.04-3.35-0.22c-0.36-0.05-0.72-0.13-1.07-0.22c-1.4-0.38-2.7-1.05-3.74-2.25c-1.9-2.17-1.37-6.52-0.16-8.89
		c2.22-4.38,6.4-7.6,11.2-8.64c0,0,0.22-0.05,0.26-0.07c1.3-0.25,2.44-0.35,3.45-0.35c0.86,0,1.62,0.08,2.29,0.2
		c0.44,0.08,0.85,0.18,1.22,0.3c1.09,0.34,1.84,0.8,2.29,1.14c0.15,0.12,0.26,0.22,0.35,0.3c0.13,0.12,0.19,0.2,0.19,0.2v-29.87
		c3.71-0.3,7.39-0.93,10.95-1.94V229.21z"/>
</g>
<g>
	<path style="fill:#FFFFFF;" d="M56.39,35.13c-0.75,0.65-1.55,0.92-2.36,0.92c-1.58,0-3.22-1.01-4.78-2.26
		c-1.66-1.35-3-1.91-4.16-1.91c-1.37,0-2.48,0.77-3.56,1.96c-0.92,1-1.83,2.29-2.85,3.66c-1.53,2.04-3.83,3.11-6.16,3.11
		c-1.68,0-3.37-0.55-4.81-1.69c-3.44-2.72-4.14-7.74-1.55-11.25c1.65-2.24,3.52-4.34,5.62-6.14c0.76-0.66,1.56-1.28,2.39-1.85
		c2.91-2.01,5.62-2.95,8.64-2.95c1.45,0,2.97,0.21,4.62,0.63c3.21,0.8,6.1,3.2,8.03,5.64C59.63,28.31,58.87,32.99,56.39,35.13z"/>
	<path style="fill:#673101;" d="M26.16,27.67c1.65-2.24,3.52-4.34,5.62-6.14c1.36,0,2.05,0.79,2.09,0.84
		c0.77,0.7,1.19,1.76,1.03,2.88c-0.1,0.77-0.51,1.42-1.04,1.9c0.62-0.42,1.38-0.64,2.17-0.52c1.71,0.28,2.91,1.92,2.66,3.68
		c-0.12,0.88-0.57,1.6-1.21,2.09c0.54-0.25,1.13-0.41,1.76-0.3c1.03,0.16,1.85,0.84,2.29,1.74c-0.92,1-1.83,2.29-2.85,3.66
		c-1.53,2.04-3.83,3.11-6.16,3.11c-1.68,0-3.37-0.55-4.81-1.69C24.27,36.2,23.57,31.18,26.16,27.67z"/>
	<path d="M56.97,21.81c-2.52-3.21-5.83-5.51-9.08-6.32c-1.84-0.46-3.5-0.69-5.08-0.69c-3.39,0-6.49,1.05-9.74,3.3
		c-2.22,1.53-4.33,3.45-6.3,5.72c-0.74,0.85-1.46,1.75-2.16,2.7c-3.18,4.33-2.33,10.57,1.91,13.91c1.74,1.37,3.81,2.1,6,2.1
		c3.05,0,5.86-1.41,7.7-3.88c0.24-0.32,0.47-0.63,0.7-0.94c0.43-0.58,0.84-1.14,1.25-1.65c1.04-1.31,1.99-2.25,2.92-2.25
		c0.74,0,1.76,0.51,2.96,1.48c1.43,1.15,3.6,2.68,5.98,2.68c1.33,0,2.55-0.46,3.61-1.38C60.79,33.88,61.92,28.1,56.97,21.81z
		 M56.39,35.13c-0.75,0.65-1.55,0.92-2.36,0.92c-1.58,0-3.22-1.01-4.78-2.26c-1.66-1.35-3-1.91-4.16-1.91
		c-1.37,0-2.48,0.77-3.56,1.96c-0.92,1-1.83,2.29-2.85,3.66c-1.53,2.04-3.83,3.11-6.16,3.11c-1.68,0-3.37-0.55-4.81-1.69
		c-3.44-2.72-4.14-7.74-1.55-11.25c1.65-2.24,3.52-4.34,5.62-6.14c0.76-0.66,1.56-1.28,2.39-1.85c2.91-2.01,5.62-2.95,8.64-2.95
		c1.45,0,2.97,0.21,4.62,0.63c3.21,0.8,6.1,3.2,8.03,5.64C59.63,28.31,58.87,32.99,56.39,35.13z"/>
</g>
<g>
	<path style="fill:#0185C4;" d="M55.7,161.92c0.02,0.55-0.03,1.01-0.17,1.46c-0.64,2.18-2.8,3.8-5.76,4.34
		c-0.68,0.13-1.43,0.19-2.17,0.19h-0.09c-2.95-0.02-5.75-1.27-7.67-3.43c-0.45-0.51-0.85-1.07-1.17-1.65
		c-3.25-5.82-3.97-13.11-4.23-18.8c-0.06-1.29-0.06-2.61-0.02-3.95c0.02-0.47,0.04-0.94,0.07-1.41l0.08-1.11l0.07-0.68l0.65-0.11
		c3-0.51,7.67-0.96,12.91-0.19l0.8,0.12h0.02c-0.04,0.27-0.06,0.53-0.08,0.8c-0.05,0.86-0.08,1.62-0.08,2.33
		c0,0.36,0.01,0.7,0.02,1.04c0.06,1.31,0.17,2.52,0.34,3.71c0.33,2.39,0.92,4.65,1.78,6.89c0.63,1.63,1.37,3.21,2.26,4.82l0.1,0.19
		c0.2,0.37,0.42,0.73,0.64,1.1C54.81,158.92,55.65,160.31,55.7,161.92z"/>
	<path d="M55.63,156.55c-0.21-0.35-0.4-0.67-0.57-0.98l-0.11-0.21c-0.86-1.54-1.56-3.04-2.16-4.58c-0.8-2.11-1.35-4.22-1.67-6.47
		c-0.16-1.13-0.26-2.28-0.31-3.52c-0.05-0.94-0.03-1.94,0.06-3.15c0.2-3.06,1.61-6.04,3.1-9.2c0.97-2.05,1.98-4.18,2.73-6.48
		c1.39-4.25,2.47-9.96-0.25-13.02c-1.1-1.24-2.65-1.9-4.48-1.9c-0.29,0-0.59,0.02-0.89,0.05c-3.12,0.33-5.39,2.64-7.2,4.86
		c-2.95,3.62-6.08,8.8-7.61,12.62c-1.4,3.45-2.73,6.74-3.35,10.63l-0.22,1.52l-0.05,0.68l-0.09,1.11l-0.08,2.41
		c-0.02,1.09-0.01,2.16,0.04,3.2c0.27,5.9,1.02,13.48,4.47,19.65c0.39,0.7,0.87,1.37,1.41,1.99c2.28,2.57,5.6,4.05,9.1,4.08h0.1
		c0.86,0,1.73-0.08,2.52-0.22c3.69-0.68,6.4-2.8,7.26-5.69c0.19-0.65,0.27-1.33,0.24-2.07c-0.07-2.12-1.08-3.8-1.97-5.28
		L55.63,156.55z M55.53,163.38c-0.64,2.18-2.8,3.8-5.76,4.34c-0.68,0.13-1.43,0.19-2.17,0.19h-0.09c-2.95-0.02-5.75-1.27-7.67-3.43
		c-0.45-0.51-0.85-1.07-1.17-1.65c-3.25-5.82-3.97-13.11-4.23-18.8c-0.06-1.29-0.06-2.61-0.02-3.95c0.02-0.47,0.04-0.94,0.07-1.41
		l0.08-1.11l0.07-0.68c0.04-0.39,0.09-0.77,0.15-1.15c0.56-3.72,1.82-6.87,3.26-10.44c1.48-3.66,4.49-8.64,7.32-12.12
		c1.56-1.92,3.49-3.91,5.91-4.16c0.24-0.03,0.47-0.04,0.69-0.04c0.32,0,0.63,0.03,0.92,0.08c0.29,0.05,0.56,0.13,0.81,0.23
		s0.49,0.23,0.71,0.39c0.22,0.16,0.42,0.34,0.6,0.54c2.23,2.51,0.87,8.07-0.14,11.15c-0.72,2.19-1.69,4.26-2.64,6.26
		c-0.2,0.43-0.41,0.86-0.6,1.28c-0.88,1.89-1.69,3.74-2.18,5.63c-0.1,0.37-0.19,0.74-0.26,1.12c-0.07,0.35-0.13,0.7-0.17,1.05
		c-0.04,0.27-0.06,0.53-0.08,0.8c-0.05,0.86-0.08,1.62-0.08,2.33c0,0.36,0.01,0.7,0.02,1.04c0.06,1.31,0.17,2.52,0.34,3.71
		c0.33,2.39,0.92,4.65,1.78,6.89c0.63,1.63,1.37,3.21,2.26,4.82l0.1,0.19c0.2,0.37,0.42,0.73,0.64,1.1c0.81,1.34,1.65,2.73,1.7,4.34
		C55.72,162.47,55.67,162.93,55.53,163.38z"/>
	<path style="fill:#FFFFFF;" d="M54.87,121.36c-0.72,2.19-1.69,4.26-2.64,6.26c-0.2,0.43-0.41,0.86-0.6,1.28
		c-0.88,1.89-1.69,3.74-2.18,5.63c-0.1,0.37-0.19,0.74-0.26,1.12c-0.07,0.35-0.13,0.7-0.17,1.05H49l-0.8-0.12
		c-5.24-0.77-9.91-0.32-12.91,0.19l-0.65,0.11c0.04-0.39,0.09-0.78,0.15-1.15c0.56-3.72,1.82-6.87,3.26-10.44
		c1.48-3.66,4.49-8.64,7.32-12.12c1.56-1.92,3.49-3.91,5.91-4.16c0.24-0.03,0.47-0.04,0.69-0.04c0.32,0,0.63,0.03,0.92,0.08
		c0.29,0.05,0.56,0.13,0.81,0.23s0.49,0.23,0.71,0.39c0.22,0.16,0.42,0.34,0.6,0.54C57.24,112.72,55.88,118.28,54.87,121.36z"/>
</g>
<g>
	<path style="fill:#0097EB;" d="M134.43,155.05c-2.94,10.2-9.34,18.65-17.58,23.18c-8.68,4.78-19.63,6.67-32.55,5.61
		c-13.03-1.06-26.28-4.14-34.85-19.37c-6.73-11.96-5.22-27.21-4.26-33.21c0.25-1.53,0.57-2.89,0.88-4.21
		c1.04-4.39,1.93-8.19-1.64-13.44c-1.46-2.15-3.44-3.83-5.36-5.45c-2.3-1.95-4.48-3.79-5.77-6.36c-5.4-10.73-7.37-21.14-6.2-32.76
		c1.06-10.53,4.87-19.84,10.44-25.53c9.24-9.44,20.6-15.59,31.14-16.86l3.8-0.47l0.22-0.02c1.56-0.2,3.16-0.29,4.8-0.29
		c9.41,0,19.91,3.2,29.5,9.1c6.79,4.17,12.74,12.28,16.31,22.24c3.72,10.34,4.45,20.98,2.16,31.62c-0.63,2.96-1.19,10.35-1.48,14.32
		l-0.03,0.38c-0.2,2.68,1.09,6.1,2.23,9.11c0.34,0.89,0.65,1.72,0.89,2.44c0.8,2.43,1.72,4.85,2.61,7.18l0.38,0.99
		c0.55,1.46,1.19,3.16,1.78,4.86C134.64,136.17,137.13,145.68,134.43,155.05z"/>
	<path d="M133.67,127.48c-0.6-1.73-1.25-3.44-1.8-4.92l-0.38-0.98c-0.88-2.32-1.79-4.72-2.58-7.1c-0.25-0.76-0.58-1.62-0.92-2.52
		c-1.01-2.69-2.28-6.03-2.11-8.29l0.03-0.38c0.27-3.64,0.84-11.23,1.44-14.06c2.37-10.99,1.62-21.99-2.22-32.67
		c-3.73-10.36-9.97-18.83-17.12-23.23c-11.62-7.15-24.58-10.46-35.52-9.09l-4.04,0.5c-10.97,1.32-22.74,7.67-32.29,17.42
		c-5.87,6-9.87,15.73-10.97,26.69c-1.19,11.83,0.9,22.89,6.39,33.81c1.47,2.93,3.9,4.98,6.25,6.97c1.9,1.61,3.69,3.13,5.01,5.06
		c3.09,4.55,2.36,7.64,1.35,11.92c-0.31,1.35-0.64,2.75-0.9,4.34c-0.99,6.21-2.54,21.98,4.48,34.46
		c9.02,16.01,22.81,19.25,36.38,20.35c2.37,0.2,4.67,0.29,6.92,0.29c10.34,0,19.3-2.05,26.71-6.13c8.68-4.78,15.42-13.65,18.5-24.33
		C139.13,145.7,136.56,135.83,133.67,127.48z M84.3,183.84c-13.03-1.06-26.28-4.14-34.85-19.37c-6.73-11.96-5.22-27.21-4.26-33.21
		c0.25-1.53,0.57-2.89,0.88-4.21c1.04-4.39,1.93-8.19-1.64-13.44c-1.46-2.15-3.44-3.83-5.36-5.45c-2.3-1.95-4.48-3.79-5.77-6.36
		c-5.4-10.73-7.37-21.14-6.2-32.76c1.06-10.53,4.87-19.84,10.44-25.53c9.24-9.44,20.6-15.59,31.14-16.86l3.8-0.47l0.22-0.02
		c1.56-0.2,3.16-0.29,4.8-0.29c9.41,0,19.91,3.2,29.5,9.1c6.79,4.17,12.74,12.28,16.31,22.24c3.72,10.34,4.45,20.98,2.16,31.62
		c-0.63,2.96-1.19,10.35-1.48,14.32l-0.03,0.38c-0.2,2.68,1.09,6.1,2.23,9.11c0.34,0.89,0.65,1.72,0.89,2.44
		c0.8,2.43,1.72,4.85,2.61,7.18l0.38,0.99c0.55,1.46,1.19,3.16,1.78,4.86c2.79,8.06,5.28,17.57,2.58,26.94
		c-2.94,10.2-9.34,18.65-17.58,23.18C108.17,183.01,97.22,184.9,84.3,183.84z"/>
</g>
<g>
	<path style="fill-rule:evenodd;clip-rule:evenodd;fill:#FFFFFF;" d="M109.07,91.39c-4.81,14.6-15.39,19.43-32.73,24.41
		c-9.03,2.58-20.04,3.19-29.7,1.78c-0.75-0.11-1.51-0.23-2.24-0.37c-13.21-2.42-22.51-13.45-19.5-25.67
		c0.21-0.87,3.08-5.43,3.08-5.43s-1.72-10.53-1.38-16.29c0.34-5.92,3.86-12.67,8.13-17.01C44.92,42.47,57.37,39.49,71.5,39.76
		c1.59,0.03,3.16,0.16,4.69,0.38c10.94,1.6,20.33,8.01,25.63,17.72c1.8,3.28,3.64,6.76,5.13,10.37
		C109.74,74.98,111.43,84.25,109.07,91.39z"/>
	<path d="M108.62,67.54c-1.57-3.8-3.51-7.44-5.21-10.55c-5.54-10.15-15.37-16.95-26.96-18.64c-1.61-0.23-3.27-0.37-4.92-0.4
		c-16.54-0.31-28.64,4.01-38.08,13.6c-4.91,4.97-8.3,12.11-8.66,18.17c-0.29,5.09,0.92,13.54,1.3,16c-1.3,2.09-2.73,4.51-2.95,5.39
		c-1.38,5.63-0.4,11.43,2.78,16.35c3.83,5.92,10.45,10.12,18.15,11.53c0.76,0.14,1.53,0.27,2.31,0.38
		c9.98,1.46,21.37,0.77,30.46-1.84c15.97-4.57,28.6-9.36,33.95-25.57C113.38,84.1,111.37,74.19,108.62,67.54z M46.64,117.58
		c-0.75-0.11-1.51-0.23-2.24-0.37c-13.21-2.42-22.51-13.45-19.5-25.67c0.21-0.87,3.08-5.43,3.08-5.43s-1.72-10.53-1.38-16.29
		c0.34-5.92,3.86-12.67,8.13-17.01C44.92,42.47,57.37,39.49,71.5,39.76c1.59,0.03,3.16,0.16,4.69,0.38
		c10.94,1.6,20.33,8.01,25.63,17.72c1.8,3.28,3.64,6.76,5.13,10.37c2.79,6.75,4.48,16.02,2.12,23.16
		c-4.81,14.6-15.39,19.43-32.73,24.41C67.31,118.38,56.3,118.99,46.64,117.58z"/>
	<path style="fill-rule:evenodd;clip-rule:evenodd;fill:#FFB7B3;" d="M69.03,97.39c0.73,6.64,6.92,11.39,13.8,10.62
		c6.88-0.77,11.87-6.78,11.13-13.42c-0.73-6.63-6.91-11.39-13.79-10.62C73.29,84.75,68.3,90.76,69.03,97.39"/>
	<path style="fill-rule:evenodd;clip-rule:evenodd;fill:#FFB7B3;" d="M25.27,100c1.56,6.62,6.54,11.02,7.04,10.97
		c2.74-0.3,3.53-5.84,1.94-12.01c-1.59-6.17-6.58-11.55-7.95-9.39C25.11,91.44,24.35,94.74,25.27,100"/>
</g>
<g>
	<path style="fill:#0185C4;" d="M84.75,132.3l-0.14,0.64l-0.69,0.05h-0.08L82.81,133c-0.27,0.01-0.54,0.01-0.81,0.01
		c-1.74,0-3.47-0.07-5.14-0.22c-6.19-0.55-14.1-1.65-20.32-5.28c-0.7-0.41-1.36-0.91-1.95-1.49c-2.14-2.06-3.32-4.93-3.24-7.87
		c0.03-0.81,0.13-1.62,0.29-2.33c0.7-2.97,2.58-5.16,4.93-5.7c0.33-0.08,0.68-0.12,1.06-0.12c0.16,0,0.32,0.01,0.49,0.02
		c1.73,0.13,3.2,1.06,4.63,1.95c0.39,0.25,0.78,0.49,1.17,0.72l0.22,0.12c1.73,1,3.43,1.85,5.19,2.58c2.42,1,4.87,1.71,7.48,2.18
		c1.28,0.24,2.61,0.41,4.05,0.54c0.05,0,0.1,0.01,0.15,0.01c0.83,0.06,1.71,0.1,2.71,0.1c0.27,0,0.55,0,0.84-0.01
		c0.26,0,0.53-0.02,0.79-0.04v0.03l0.09,0.78C86.08,124.43,85.42,129.23,84.75,132.3z"/>
	<path d="M84.86,132.93c0.28-0.01,0.55-0.03,0.82-0.06C85.39,132.89,85.07,132.91,84.86,132.93z"/>
	<path d="M115.92,112.05c-1.41-1.36-3.58-2.05-6.45-2.05c-2.69,0-5.57,0.6-7.52,1.11c-2.52,0.66-4.87,1.58-7.15,2.48
		c-3.53,1.39-6.87,2.71-10.28,2.77h-0.8c-1,0-1.88-0.03-2.7-0.1c-1.38-0.12-2.65-0.29-3.87-0.51c-2.47-0.45-4.79-1.12-7.09-2.07
		c-1.68-0.7-3.3-1.5-4.96-2.46l-0.22-0.13c-0.34-0.2-0.68-0.41-1.1-0.68c-1.56-0.97-3.31-2.07-5.51-2.24
		c-0.22-0.02-0.43-0.03-0.64-0.03c-0.53,0-1.02,0.06-1.5,0.17c-3.06,0.71-5.5,3.45-6.36,7.14c-0.2,0.83-0.31,1.77-0.34,2.71
		c-0.11,3.48,1.29,6.88,3.82,9.32c0.7,0.68,1.49,1.27,2.32,1.76c6.55,3.83,14.73,4.97,21.12,5.54c1.2,0.11,2.44,0.17,3.72,0.21
		l2.45,0.02l1.04-0.03H84l0.66-0.02l1.53-0.13c4.3-0.43,7.97-1.64,11.84-2.92c4.2-1.39,9.95-4.35,13.99-7.19
		c2.48-1.75,5.08-3.96,5.56-7.18C118,114.72,116.91,113,115.92,112.05z M115.68,117.19c-0.37,2.49-2.62,4.37-4.77,5.89
		c-3.9,2.74-9.45,5.59-13.49,6.93c-3.27,1.08-6.23,2.05-9.47,2.58c-0.6,0.1-1.2,0.18-1.83,0.24c-0.14,0.01-0.29,0.03-0.44,0.04
		c-0.27,0.03-0.54,0.05-0.82,0.06c-0.15,0.01-0.25,0.01-0.25,0.01l-0.77,0.05L82.81,133c-0.27,0.01-0.54,0.01-0.81,0.01
		c-1.74,0-3.47-0.07-5.14-0.22c-6.19-0.55-14.1-1.65-20.32-5.28c-0.7-0.41-1.36-0.91-1.95-1.49c-2.14-2.06-3.32-4.93-3.24-7.87
		c0.03-0.81,0.13-1.62,0.29-2.33c0.7-2.97,2.58-5.16,4.93-5.7c0.33-0.08,0.68-0.12,1.06-0.12c0.16,0,0.32,0.01,0.49,0.02
		c1.73,0.13,3.2,1.06,4.63,1.95c0.39,0.25,0.78,0.49,1.17,0.72l0.22,0.12c1.73,1,3.43,1.85,5.19,2.58c2.42,1,4.87,1.71,7.48,2.18
		c1.28,0.24,2.61,0.41,4.05,0.54c0.05,0,0.1,0.01,0.15,0.01c0.83,0.06,1.71,0.1,2.71,0.1c0.27,0,0.55,0,0.84-0.01
		c0.26,0,0.53-0.02,0.79-0.04c0.25-0.02,0.5-0.04,0.75-0.07c2.72-0.29,5.34-1.21,8.03-2.25c0.46-0.18,0.92-0.36,1.38-0.54
		c2.22-0.88,4.52-1.78,6.93-2.41c0.47-0.12,0.99-0.25,1.54-0.37c1.08-0.24,2.29-0.45,3.51-0.57c0.35-0.03,0.7-0.06,1.05-0.08
		c0.54-0.03,1.08-0.03,1.6,0c0.53,0.02,1.05,0.07,1.54,0.16c0.23,0.04,0.46,0.09,0.68,0.15c0.88,0.24,1.65,0.61,2.23,1.17
		C115.55,114.29,115.91,115.58,115.68,117.19z"/>
	<path style="fill:#FFFFFF;" d="M115.68,117.19c-0.37,2.49-2.62,4.37-4.77,5.89c-3.9,2.74-9.45,5.59-13.49,6.93
		c-3.27,1.08-6.23,2.05-9.47,2.58c-0.6,0.1-1.2,0.18-1.83,0.24c-0.14,0.01-0.29,0.03-0.44,0.04c-0.27,0.03-0.54,0.05-0.82,0.06
		c-0.15,0.01-0.25,0.01-0.25,0.01l0.14-0.64c0.67-3.07,1.33-7.87,0.69-13.32l-0.09-0.78v-0.03c0.25-0.02,0.5-0.04,0.75-0.07
		c2.72-0.29,5.34-1.21,8.03-2.25c0.46-0.18,0.92-0.36,1.38-0.54c2.22-0.88,4.52-1.78,6.93-2.41c0.47-0.12,0.99-0.25,1.54-0.37
		c1.08-0.24,2.29-0.45,3.51-0.57c0.35-0.03,0.7-0.06,1.05-0.08c0.54-0.03,1.08-0.03,1.6,0c0.23,0.01,0.47,0.03,0.7,0.05
		c0.09,0.01,0.16,0.02,0.24,0.03c0.2,0.02,0.4,0.05,0.6,0.08c0.23,0.04,0.46,0.09,0.68,0.15c0.88,0.24,1.65,0.61,2.23,1.17
		C115.55,114.29,115.91,115.58,115.68,117.19z"/>
</g>
<g>
	<path style="fill-rule:evenodd;clip-rule:evenodd;" d="M61.2,88.55L61.2,88.55c1.52,0.04,2.77-1.05,2.81-2.45l0.01-0.35
		c0.04-1.4-1.16-2.57-2.68-2.61c-1.52-0.04-2.78,1.06-2.81,2.45l-0.01,0.35C58.48,87.34,59.68,88.5,61.2,88.55"/>
	<path style="fill-rule:evenodd;clip-rule:evenodd;" d="M40.32,89.76L40.32,89.76c1.52-0.08,2.68-1.28,2.6-2.67l-0.02-0.35
		c-0.08-1.4-1.37-2.46-2.89-2.38s-2.68,1.28-2.6,2.68l0.02,0.35C37.51,88.78,38.8,89.84,40.32,89.76"/>
	<path style="fill-rule:evenodd;clip-rule:evenodd;" d="M46.63,93.59c0.18,0.86,1.29,1.35,2.51,1.1c1.21-0.25,2.05-1.14,1.87-1.99
		c-0.18-0.85-1.3-1.35-2.51-1.1C47.27,91.85,46.45,92.74,46.63,93.59"/>
	<g>
		<path style="fill:#CC4848;" d="M54.16,104.26c-0.16,0.5-0.67,1.17-2.24,1.18h-0.05c-1.82,0-2.72-0.96-3.09-1.53
			c0.59-0.53,1.15-1.19,1.58-2.05C51.17,102.64,52.44,103.59,54.16,104.26z"/>
		<path d="M59.06,103.18h-0.03c-5.48,0.16-8.1-3.53-8.21-3.69c-0.21-0.31-0.58-0.47-0.95-0.41c-0.38,0.06-0.68,0.34-0.77,0.7
			c-1,3.74-4.17,3.83-4.32,3.83c-0.52,0.01-0.95,0.44-0.95,0.97c0,0.53,0.43,0.96,0.96,0.96c0.62,0,1.48-0.17,2.37-0.58
			c0.63,0.95,2.02,2.41,4.71,2.41h0.06c1.4-0.01,2.5-0.41,3.26-1.19c0.43-0.45,0.66-0.94,0.8-1.35c0.93,0.2,1.96,0.31,3.1,0.27
			c0.53-0.01,0.95-0.46,0.93-0.99C60.01,103.59,59.58,103.18,59.06,103.18z M51.92,105.44h-0.05c-1.82,0-2.72-0.96-3.09-1.53
			c0.59-0.53,1.15-1.19,1.58-2.05c0.81,0.78,2.08,1.73,3.8,2.4C54,104.76,53.49,105.43,51.92,105.44z"/>
	</g>
</g>
<g>
	<path style="fill:#9ED3FF;" d="M64.74,88.76c-0.01,0.28-0.56,0.67-1.54,0.67c-1.06,0.01-3.59,0.01-4.18-0.72
		c-0.11-0.14-0.14-0.29-0.1-0.49c0.01-0.07,0.05-0.18,0.22-0.29c0.31-0.2,0.83-0.27,1.41-0.27c0.95,0,2.05,0.19,2.57,0.31l0.04,0.01
		C64.34,88.11,64.75,88.52,64.74,88.76z"/>
	<path style="fill:#76A4FF;" d="M63.27,87.22c-0.43-0.1-3.33-0.71-4.55,0.06c-0.3,0.19-0.49,0.46-0.56,0.78
		c-0.08,0.43,0,0.82,0.26,1.13c0.68,0.84,2.4,1.01,4.77,1.01h0.01c1.47,0,2.27-0.7,2.31-1.4C65.55,88.16,64.97,87.41,63.27,87.22z
		 M63.2,89.43c-1.06,0.01-3.59,0.01-4.18-0.72c-0.11-0.14-0.14-0.29-0.1-0.49c0.01-0.07,0.05-0.18,0.22-0.29
		c0.31-0.2,0.83-0.27,1.41-0.27c0.95,0,2.05,0.19,2.57,0.31l0.04,0.01c1.18,0.13,1.59,0.54,1.58,0.78
		C64.73,89.04,64.18,89.43,63.2,89.43z"/>
</g>
<g>
	<path style="fill:#9ED3FF;" d="M42.6,90.05c-0.16,0.25-1.27,0.31-1.94,0.34l-0.58,0.03c-1.7,0.11-2.24,0.03-2.29-0.63
		c-0.01-0.06,0-0.13,0.08-0.22c0.37-0.41,1.6-0.61,2.3-0.64c1.98-0.03,1.99-0.03,2.35,0.82l0.04,0.1
		C42.6,89.95,42.62,90.02,42.6,90.05z"/>
	<path style="fill:#76A4FF;" d="M43.27,89.55l-0.04-0.1c-0.48-1.1-0.76-1.29-2.57-1.29h-0.51c-0.22,0.01-2.15,0.11-2.85,0.9
		c-0.21,0.23-0.3,0.5-0.28,0.79c0.09,1.16,0.98,1.38,2.08,1.38c0.35,0,0.72-0.02,1.08-0.04l0.52-0.03c1.17-0.06,2.18-0.11,2.55-0.7
		C43.36,90.28,43.46,89.98,43.27,89.55z M42.6,90.05c-0.16,0.25-1.27,0.31-1.94,0.34l-0.58,0.03c-1.7,0.11-2.24,0.03-2.29-0.63
		c-0.01-0.06,0-0.13,0.08-0.22c0.37-0.41,1.6-0.61,2.3-0.64c1.98-0.03,1.99-0.03,2.35,0.82l0.04,0.1
		C42.6,89.95,42.62,90.02,42.6,90.05z"/>
</g>
<g>
	<path style="fill:#FFFFFF;" d="M115.29,27.85c-1.72,2.48-4.37,3.79-7.06,3.79c-0.4,0-0.81-0.03-1.21-0.09
		c-1.47-0.22-2.91-0.83-4.19-1.86c-1.49-1.19-2.9-2.35-4.27-3.22c-1.11-0.71-2.2-1.22-3.28-1.38c-0.23-0.03-0.46-0.05-0.69-0.05
		c-1.73,0-3.45,0.99-5.22,3.6c-1.13,1.65-2.03,2.5-3.5,2.5c-0.2,0-0.42-0.01-0.65-0.05c-1.04-0.15-2.36-0.65-4.14-1.51
		c-3.69-1.78-4.08-3.77-1.14-11.19c1.34-3.4,3.77-7.07,7.05-9.01c3.11-1.84,5.94-2.77,8.93-2.77c0.73,0,1.48,0.06,2.23,0.17
		c1.31,0.19,2.66,0.54,4.09,1.06c1,0.36,1.99,0.78,2.95,1.25c2.96,1.41,5.74,3.27,8.31,5.37C117.43,17.67,118.22,23.65,115.29,27.85
		z"/>
	<path d="M114.72,12.97c-2.29-1.87-4.62-3.46-6.97-4.73c-1.61-0.89-3.23-1.62-4.85-2.21c-1.58-0.57-3.04-0.95-4.47-1.16
		c-0.84-0.12-1.69-0.18-2.51-0.18c-3.27,0-6.42,0.96-9.92,3.03c-4.61,2.74-7.03,7.88-7.86,9.97c-2.89,7.32-3.28,11.02,2.1,13.62
		c2.08,1.01,3.49,1.51,4.71,1.69c0.31,0.05,0.63,0.07,0.92,0.07c2.59,0,3.99-1.73,5.09-3.34c1.87-2.76,3.19-2.76,3.63-2.76
		c0.13,0,0.27,0.01,0.41,0.03c0.9,0.13,1.92,0.67,3.01,1.42c0.96,0.65,1.98,1.47,3.04,2.32l0.58,0.46c1.49,1.2,3.26,1.98,5.12,2.25
		c0.45,0.06,0.91,0.1,1.36,0.11h0.12c1.04,0,2.05-0.15,3.01-0.45c2.24-0.67,4.21-2.11,5.63-4.16
		C120.35,23.96,119.39,16.78,114.72,12.97z M108.23,31.64c-0.4,0-0.81-0.03-1.21-0.09c-1.47-0.22-2.91-0.83-4.19-1.86
		c-1.49-1.19-2.9-2.35-4.27-3.22c-1.11-0.71-2.2-1.22-3.28-1.38c-0.23-0.03-0.46-0.05-0.69-0.05c-1.73,0-3.45,0.99-5.22,3.6
		c-1.13,1.65-2.03,2.5-3.5,2.5c-0.2,0-0.42-0.01-0.65-0.05c-1.04-0.15-2.36-0.65-4.14-1.51c-3.69-1.78-4.08-3.77-1.14-11.19
		c1.34-3.4,3.77-7.07,7.05-9.01c3.11-1.84,5.94-2.77,8.93-2.77c0.73,0,1.48,0.06,2.23,0.17c1.31,0.19,2.66,0.54,4.09,1.06
		c1,0.36,1.99,0.78,2.95,1.25c2.96,1.41,5.74,3.27,8.31,5.37c3.93,3.21,4.72,9.19,1.79,13.39
		C113.57,30.33,110.92,31.64,108.23,31.64z"/>
	<path style="fill:#673101;" d="M115.29,27.85c-1.72,2.48-4.37,3.79-7.06,3.79c-0.4,0-0.81-0.03-1.21-0.09
		c-1.47-0.22-2.91-0.83-4.19-1.86c-1.49-1.19-2.9-2.35-4.27-3.22c0.19-1.2,0.87-2.27,1.98-2.78c0.65-0.32,1.35-0.33,2.02-0.22
		c-0.85-0.35-1.57-1.04-1.98-2.01c-0.81-1.94-0.01-4.19,1.78-5.06c0.83-0.39,1.73-0.38,2.54-0.09c-0.74-0.38-1.38-1-1.73-1.85
		c-0.46-1.09-0.4-2.27,0.05-3.26c0,0,0.47-1.22,1.97-2.11c2.96,1.41,5.74,3.27,8.31,5.37C117.43,17.67,118.22,23.65,115.29,27.85z"
		/>
</g>
</svg>
