<svg xml:space="preserve" style="enable-background:new 0 0 334.2 270;" viewBox="0 0 334.2 270" y="0px" x="0px" xmlns:xlink="http://www.w3.org/1999/xlink" xmlns="http://www.w3.org/2000/svg" version="1.1">
<g id="레이어_6">
</g>
<g id="레이어_5">
</g>
<g id="레이어_2">
	<g>
		<g>
			<path d="M98.4,148.8L98.4,148.8c-6-5.2-8.6-12.1-3.4-18.1l23.4-27.1c5.2-6,14.3-6.6,20.3-1.4l0,0
				c6,5.2,6.7,14.3,1.5,20.3l-23.4,27.1C111.6,155.5,104.4,154,98.4,148.8z" style="fill:#ABABAB;"></path>
		</g>
		<g>
			<path d="M95.6,157.8L95.6,157.8c-4.5-2.2-6.4-7.7-4.2-12.2l1.6-3.4c2.2-4.5,7.7-6.4,12.2-4.2h0
				c4.5,2.2,6.4,7.7,4.2,12.2l-1.6,3.4C105.6,158.1,100.1,160,95.6,157.8z" style="fill:#143640;"></path>
		</g>
		<g>
			<path d="M69.2,173.6l-0.6-0.8c-4.1-5.4-3.1-13.2,2.4-17.4l11.8-8.9c5.4-4.1,13.2-3.1,17.4,2.4l0.6,0.8
				c4.1,5.4,3.1,13.2-2.4,17.4L86.5,176C81.1,180.1,73.3,179.1,69.2,173.6z" style="fill:#ABABAB;"></path>
		</g>
		<g>
			<path d="M63.2,167.2l1.5-1.1c3.6-2.7,8.8-2,11.5,1.6l0,0c2.7,3.6,2,8.8-1.6,11.5l-1.5,1.1
				c-3.6,2.7-8.8,2-11.5-1.6h0C58.9,175.1,59.6,169.9,63.2,167.2z" style="fill:#143640;"></path>
		</g>
		<g>
			<path d="M70.5,176.3l-14.1-2.7c-5.3-1-10.5,2.5-11.5,7.8l-1.1,5.9c-0.5,2.7,1.3,5.3,4,5.8l23.7,4.5
				c2.7,0.5,5.3-1.3,5.8-4l1.1-5.9C79.4,182.4,75.9,177.3,70.5,176.3z" style="fill:#757575;"></path>
		</g>
	</g>
	<g>
		<g>
			<path d="M218.4,241.9h-1.8c-4.5,0-8.2-3.7-8.2-8.2v0c0-4.5,3.7-8.2,8.2-8.2h1.8c4.5,0,8.2,3.7,8.2,8.2v0
				C226.6,238.3,222.9,241.9,218.4,241.9z" style="fill:#2D3C40;"></path>
		</g>
		<g>
			<path d="M218.9,235.3h-17.1c-6.5,0-11.7,4.4-11.7,9.8v6c0,2.7,2.7,5,5.9,5h28.7c3.3,0,5.9-2.2,5.9-5v-6
				C230.7,239.7,225.4,235.3,218.9,235.3z" style="fill:#2D3C40;"></path>
		</g>
		<g>
			<path d="M225.5,229.4l-12.8,4.2c-3.2,1.1-6.6-0.7-7.7-3.9l-6.4-19.4c-2.2-6.7,1.4-14,8.1-16.2l0,0
				c6.7-2.2,14,1.4,16.2,8.1l6.4,19.4C230.4,224.9,228.7,228.4,225.5,229.4z" style="fill:#2D3C40;"></path>
		</g>
		<g>
			<path d="M208,192.9L208,192.9c-8.2-3-13.7-8.5-11.2-15.4l11.4-30.8c2.5-6.8,11.2-9.9,19.4-6.8h0
				c8.2,3,12.8,11,10.3,17.8l-11.4,30.8C224,195.4,216.2,196,208,192.9z" style="fill:#2D3C40;"></path>
		</g>
		<g>
			<path d="M210,204.9L210,204.9c-5,0.3-9.3-3.5-9.7-8.6l-0.2-3.7c-0.3-5,3.5-9.3,8.6-9.7h0
				c5-0.3,9.3,3.5,9.7,8.6l0.2,3.7C218.9,200.3,215,204.6,210,204.9z" style="fill:#2D3C40;"></path>
		</g>
	</g>
	<g>
		<path d="M236.9,127.8c0,0-3-19.9,8.8-27.8c8.2-5.5,12.2-2.4,20.8-7.1c4.8-2.6,7.7-6.1,9.6-11.1
			c2-5.3,3.4-10.3,10.1-10.5c7.6-0.3,2.9,14.6,1.8,17.9c-2.6,7.3-7.3,13.5-14.5,16.7c-7.2,3.3-17.6,1.6-23.1,8.1
			c-3.4,4-1.5,18.3-9.2,16.1C234,128,236.9,127.8,236.9,127.8z" style="fill:#143640;"></path>
	</g>
	<g>
		<path d="M251.2,235.3h-17.1c-6.5,0-11.7,4.4-11.7,9.8v6c0,2.7,2.7,5,5.9,5H257c3.3,0,5.9-2.2,5.9-5v-6
			C262.9,239.7,257.7,235.3,251.2,235.3z" style="fill:#757575;"></path>
	</g>
	<g>
		<g>
			<circle r="39.1" cy="152.4" cx="227.8" style="fill:#6B6B6B;"></circle>
		</g>
		<g>
			<path d="M189.4,189.4h-12c-17.8,0-32.2-14.4-32.2-32.2v0c0-17.8,14.4-32.2,32.2-32.2h12
				c17.8,0,32.2,14.4,32.2,32.2v0C221.6,175,207.2,189.4,189.4,189.4z" style="fill:#919191;"></path>
		</g>
		<g>
			<g>
				<path d="M185.4,115.2l-30-2.2c-6.1-0.4-10.6-5.7-10.2-11.8v0c0.4-6.1,5.7-10.6,11.8-10.2l30,2.2
					c6.1,0.4,10.6,5.7,10.2,11.8l0,0C196.8,111.1,191.5,115.6,185.4,115.2z" style="fill:#143640;"></path>
			</g>
			<g>
				<g>
					<path d="M159.9,186.2l-36-14.9c-13.2-5.5-19.5-20.6-14-33.8l10.5-25.4c5.5-13.2,20.6-19.5,33.8-14
						l36,14.9c13.2,5.5,19.5,20.6,14,33.8l-10.5,25.4C188.2,185.4,173.1,191.7,159.9,186.2z" style="fill:#6B6B6B;"></path>
				</g>
				<g>
					<path d="M153.1,159.2c0,0,1.9-4.7,10.5-25.3c7.2-17.3,25.6-18.4,31.3-18.4c-1.5-1-3.1-1.9-4.8-2.6
						l-23.7-9.8c0,0-24.5-2.3-33,18.3s-10.5,25.3-10.5,25.3s-6.8,19.8-0.5,23.9c0.5,0.3,1.1,0.5,1.7,0.8l29.3,12.1
						C145.8,180.4,153.1,159.2,153.1,159.2z" style="fill:#143640;"></path>
				</g>
			</g>
		</g>
	</g>
	<g>
		<g>
			<g>
				<path d="M176.8,28.2c0,0,2.2-12.6-9.3-13.7c-19.7-1.8-41.3-0.3-57.8,16.5c-8.7,8.8-1.5,26.2,24.8,13.4
					C152.8,35.5,173.1,38.2,176.8,28.2z" style="fill:#143640;"></path>
			</g>
		</g>
		<g>
			<g>
				<path d="M193,38.4c0,0,10.4-7.5,16.3,2.4c10.2,17,18.2,37,10.2,59.2c-4.2,11.6-23,12.7-22.8-16.6
					C196.8,63.1,185.6,46.1,193,38.4z" style="fill:#143640;"></path>
			</g>
		</g>
	</g>
	<g>
		<g>
			<path d="M199.8,99.7c-13.7,21.7-44.1,25.9-63.5,13.7c-18.8-11.8-28.9-41.4-15.2-63.2s42.4-28.3,64.1-14.6
				S213.5,77.9,199.8,99.7z" style="fill:#ABABAB;"></path>
		</g>
		<g>
			<path d="M205.8,64.7c-2.6-11.6-3-21.4-19.1-31.5c-15.1-9.5-25-6.2-36.7-3.6c-6.1,4.4-12,10.6-12.9,18
				c-2,16,5.4,20.9,0.6,27.9c-4.3,6.3,2.1,15,7.8,19.2c5.9,4.4,20.3,8,24.3,0.9c4.2-7.4,11.8-2.8,25.4-11.5
				C201.5,80.1,204.5,72.1,205.8,64.7z" style="fill:#143640;"></path>
		</g>
		<g>
			<circle r="24.8" cy="88.2" cx="152.1" style="fill:#FFFBE3;"></circle>
		</g>
	</g>
	<g>
		<g>
			<path d="M165.3,72.8l-7.5-4.7c-2.1-1.3-4.7,0.5-4.3,2.9l1.1,6.5c0.3,1.7,2,2.7,3.6,2.3l6.3-1.8
				C166.9,77.3,167.3,74.1,165.3,72.8z" style="fill:#1C4059;"></path>
		</g>
		<g>
			<line y2="79.4" x2="155.9" y1="87.4" x1="150.9" style="fill:#1C4059;"></line>
			<rect height="0.8" width="9.4" transform="matrix(0.5322 -0.8466 0.8466 0.5322 1.1162 168.87)" y="83" x="148.6"></rect>
		</g>
	</g>
	<g>
		<g>
			<path d="M182.7,233.5h-1c-6.8,0-12.4-5.5-12.4-12.4v-14.8c0-6.8,5.5-12.4,12.4-12.4h1
				c6.8,0,12.4,5.5,12.4,12.4v14.8C195.1,227.9,189.6,233.5,182.7,233.5z" style="fill:#ABABAB;"></path>
		</g>
		<g>
			<path d="M183.1,194.5L183.1,194.5c-8,0-14.4-3.5-14.4-11.5v-35.8c0-7.9,6.4-14.4,14.4-14.4h0
				c8,0,14.4,6.4,14.4,14.4V183C197.5,191,191,194.5,183.1,194.5z" style="fill:#ABABAB;"></path>
		</g>
		<g>
			<path d="M182.2,206L182.2,206c-5.1,0-9.1-4.1-9.1-9.1v-3.7c0-5.1,4.1-9.1,9.1-9.1h0c5.1,0,9.1,4.1,9.1,9.1
				v3.7C191.4,201.9,187.3,206,182.2,206z" style="fill:#143640;"></path>
		</g>
		<g>
			<path d="M183.1,241.9h-1.8c-4.5,0-8.2-3.7-8.2-8.2v0c0-4.5,3.7-8.2,8.2-8.2h1.8c4.5,0,8.2,3.7,8.2,8.2v0
				C191.4,238.2,187.7,241.9,183.1,241.9z" style="fill:#143640;"></path>
		</g>
		<g>
			<path d="M188.2,235.2h-14.4c-5.4,0-9.9,4.4-9.9,9.9v6c0,2.8,2.2,5,5,5H193c2.8,0,5-2.2,5-5v-6
				C198,239.7,193.6,235.2,188.2,235.2z" style="fill:#757575;"></path>
		</g>
	</g>
	<g>
		<g>
			<path d="M184.2,78.3c-0.4,0-0.7-0.3-0.8-0.6l-1.3-6.6l-6.4,0.9c-0.4,0.1-0.8-0.2-0.9-0.7
				c-0.1-0.4,0.2-0.8,0.7-0.9l7.1-1.1c0.4-0.1,0.8,0.2,0.9,0.6l1.5,7.4c0.1,0.4-0.2,0.9-0.6,0.9C184.3,78.2,184.2,78.3,184.2,78.3z" style="fill:#74DEFF;"></path>
		</g>
		<g>
			<path d="M157.1,61c-0.3,0-0.6-0.2-0.7-0.5l-2.7-5.8l-6.3,2.5c-0.4,0.2-0.9,0-1-0.4c-0.2-0.4,0-0.9,0.4-1
				l7-2.8c0.4-0.2,0.8,0,1,0.4l3,6.5c0.2,0.4,0,0.9-0.4,1.1C157.3,61,157.2,61,157.1,61z" style="fill:#74DEFF;"></path>
		</g>
	</g>
	<g>
		<g>
			<path d="M250.7,241.9h-1.8c-4.5,0-8.2-3.7-8.2-8.2v0c0-4.5,3.7-8.2,8.2-8.2h1.8c4.5,0,8.2,3.7,8.2,8.2v0
				C258.9,238.3,255.2,241.9,250.7,241.9z" style="fill:#143640;"></path>
		</g>
		<g>
			<path d="M254.8,226.6l-11.7,6.7c-2.9,1.7-6.6,0.7-8.3-2.2l-10.2-17.7c-3.5-6.1-1.4-14,4.7-17.5l0,0
				c6.1-3.5,14-1.4,17.5,4.7l10.2,17.7C258.7,221.2,257.7,224.9,254.8,226.6z" style="fill:#ABABAB;"></path>
		</g>
		<g>
			<path d="M236.6,191.2L236.6,191.2c-7.7-4.2-12.4-10.4-8.9-16.8l15.7-28.8c3.5-6.4,12.5-8.1,20.2-4l0,0
				c7.7,4.2,11.1,12.8,7.6,19.1l-15.7,28.8C252,196,244.2,195.4,236.6,191.2z" style="fill:#ABABAB;"></path>
		</g>
		<g>
			<path d="M228.3,201.4L228.3,201.4c-4.2-2.7-5.4-8.4-2.7-12.6l2-3.1c2.7-4.2,8.4-5.4,12.6-2.7l0,0
				c4.2,2.7,5.4,8.4,2.7,12.6l-2,3.1C238.2,203,232.5,204.2,228.3,201.4z" style="fill:#143640;"></path>
		</g>
	</g>
</g>
<g id="레이어_1">
</g>
</svg>
