<?xml version="1.0" encoding="utf-8"?>
<!-- Generator: Adobe Illustrator 23.0.2, SVG Export Plug-In . SVG Version: 6.00 Build 0)  -->
<svg version="1.1" id="Layer_1" xmlns="http://www.w3.org/2000/svg" xmlns:xlink="http://www.w3.org/1999/xlink" x="0px" y="0px"
	 viewBox="0 0 200 200" style="enable-background:new 0 0 200 200;" xml:space="preserve">
<g>
	<path style="fill:#63251C;" d="M171.3,28.7c-18.5-18.5-43-28.7-69-28.7h-4.7c-26,0-50.5,10.2-69,28.7C10.2,47.2,0,71.7,0,97.7v4.7
		c0,26,10.2,50.5,28.7,69s43,28.7,69,28.7h4.7c26,0,50.5-10.2,69-28.7s28.7-43,28.7-69v-4.7C200,71.7,189.8,47.2,171.3,28.7z"/>
	<path style="fill:#EE7706;" d="M169.8,30.2c-18.1-18.1-42.1-28.1-67.5-28.1h-4.6c-25.4,0-49.4,10-67.5,28.1s-28,42.1-28,67.5v4.6
		c0,25.4,10,49.4,28.1,67.5s42.1,28.1,67.5,28.1h4.6c25.4,0,49.4-10,67.5-28.1s28.1-42.1,28.1-67.5v-4.6
		C197.8,72.3,187.9,48.3,169.8,30.2z"/>
	<path style="fill:#BD4218;" d="M197.4,101.2c0,51.6-42.7,93.9-95,93.9h-4.7c-52.3,0-95-42.2-95-93.9v-4.7c0-51.6,42.7-93.9,95-93.9
		h4.7c52.2,0,95,42.2,95,93.9V101.2z"/>
	<path style="fill:#FFFF77;" d="M105.6,184.5c0.5,0,1.1,0,1.6-0.1c0.3,0,0.6,0,0.9-0.1c0.5,0,1-0.1,1.4-0.1c0.3,0,0.7-0.1,1-0.1
		c0.5,0,0.9-0.1,1.4-0.1c0.4,0,0.7-0.1,1.1-0.1s0.9-0.1,1.3-0.1s0.7-0.1,1.1-0.1c0.4-0.1,0.8-0.1,1.3-0.2c0.4-0.1,0.7-0.1,1.1-0.2
		c0.4-0.1,0.8-0.1,1.2-0.2c0.4-0.1,0.7-0.1,1.1-0.2c0.4-0.1,0.8-0.1,1.2-0.2c0.4-0.1,0.7-0.1,1.1-0.2c0.4-0.1,0.8-0.2,1.2-0.2
		c0.4-0.1,0.7-0.2,1.1-0.3s0.8-0.2,1.2-0.3c0.4-0.1,0.7-0.2,1.1-0.3s0.8-0.2,1.1-0.3c0.4-0.1,0.7-0.2,1.1-0.3
		c0.4-0.1,0.7-0.2,1.1-0.3c0.4-0.1,0.7-0.2,1.1-0.3c0.4-0.1,0.7-0.2,1.1-0.3c0.4-0.1,0.7-0.2,1.1-0.4c0.4-0.1,0.7-0.2,1.1-0.4
		c0.4-0.1,0.7-0.3,1.1-0.4c0.3-0.1,0.7-0.2,1-0.4c0.4-0.1,0.7-0.3,1.1-0.4c0.3-0.1,0.7-0.3,1-0.4c0.4-0.1,0.7-0.3,1.1-0.4
		c0.3-0.1,0.7-0.3,1-0.4c0.4-0.2,0.7-0.3,1.1-0.5c0.3-0.1,0.6-0.3,1-0.4c0.4-0.2,0.7-0.3,1.1-0.5c0.3-0.1,0.6-0.3,0.9-0.4
		c0.4-0.2,0.7-0.4,1.1-0.5c0.3-0.2,0.6-0.3,0.9-0.5c0.4-0.2,0.7-0.4,1.1-0.6c0.3-0.2,0.6-0.3,0.9-0.5c0.4-0.2,0.7-0.4,1.1-0.6
		c0.3-0.2,0.6-0.3,0.9-0.5c0.4-0.2,0.7-0.4,1.1-0.6c0.3-0.2,0.6-0.3,0.9-0.5c0.4-0.2,0.7-0.4,1.1-0.7c0.3-0.2,0.6-0.3,0.8-0.5
		c0.4-0.2,0.7-0.5,1.1-0.7c0.3-0.2,0.5-0.3,0.8-0.5c0.4-0.2,0.7-0.5,1.1-0.7c0.3-0.2,0.5-0.4,0.8-0.5c0.4-0.2,0.7-0.5,1.1-0.7
		c0.2-0.2,0.5-0.4,0.7-0.5c0.4-0.3,0.7-0.5,1.1-0.8c0.2-0.2,0.5-0.4,0.7-0.5c0.4-0.3,0.7-0.5,1-0.8c0.2-0.2,0.5-0.4,0.7-0.5
		c0.3-0.3,0.7-0.6,1-0.8c0.2-0.2,0.4-0.4,0.7-0.5c0.3-0.3,0.7-0.6,1-0.9c0.2-0.2,0.4-0.4,0.6-0.5c0.3-0.3,0.7-0.6,1-0.9
		c0.2-0.2,0.4-0.4,0.6-0.5c0.3-0.3,0.7-0.6,1-1c0.2-0.2,0.4-0.4,0.6-0.5c0.3-0.3,0.7-0.7,1-1c0.2-0.2,0.4-0.4,0.5-0.5
		c0.3-0.3,0.7-0.7,1-1c0.2-0.2,0.3-0.4,0.5-0.5c0.3-0.4,0.7-0.7,1-1.1c0.2-0.2,0.3-0.3,0.5-0.5c0.3-0.4,0.7-0.7,1-1.1
		c0.1-0.2,0.3-0.3,0.4-0.5c0.3-0.4,0.7-0.8,1-1.2c0.1-0.2,0.3-0.3,0.4-0.5c0.3-0.4,0.7-0.8,1-1.2c0.1-0.2,0.2-0.3,0.4-0.5
		c0.3-0.4,0.7-0.8,1-1.3c0.1-0.1,0.2-0.3,0.3-0.4c0.3-0.4,0.6-0.9,1-1.3c0.1-0.1,0.2-0.3,0.3-0.4c0.3-0.5,0.6-0.9,1-1.4
		c0.1-0.1,0.2-0.2,0.2-0.4c0.3-0.5,0.6-1,1-1.5c0.1-0.1,0.1-0.2,0.2-0.3c0.3-0.5,0.6-1,1-1.5c0.1-0.1,0.1-0.2,0.2-0.3
		c0.3-0.5,0.6-1.1,1-1.6c0-0.1,0.1-0.1,0.1-0.2c0.3-0.6,0.6-1.1,1-1.7v-0.1c6.1-11.4,9.8-24.1,10.2-37.5l0,0
		C196.3,47.2,154.1,6,102.8,6h-4.7C46.8,6,4.7,47.2,3.1,98.1l0,0c0.4,13.4,4,26.2,10.2,37.5c0,0,0,0.1,0.1,0.1
		c0.3,0.6,0.6,1.1,0.9,1.7c0,0.1,0.1,0.1,0.1,0.2c0.3,0.5,0.6,1.1,0.9,1.6c0.1,0.1,0.1,0.2,0.2,0.3c0.3,0.5,0.6,1,0.9,1.5
		c0.1,0.1,0.1,0.2,0.2,0.3c0.3,0.5,0.6,1,0.9,1.4c0.1,0.1,0.2,0.3,0.3,0.4c0.3,0.5,0.6,0.9,0.9,1.4c0.1,0.1,0.2,0.3,0.3,0.4
		c0.3,0.4,0.6,0.9,1,1.3c0.1,0.1,0.2,0.3,0.3,0.4c0.3,0.4,0.6,0.8,1,1.3c0.1,0.2,0.2,0.3,0.4,0.5c0.3,0.4,0.6,0.8,1,1.2
		c0.1,0.2,0.3,0.3,0.4,0.5c0.3,0.4,0.6,0.8,1,1.1c0.1,0.2,0.3,0.3,0.4,0.5c0.3,0.4,0.6,0.7,1,1.1c0.2,0.2,0.3,0.4,0.5,0.5
		c0.3,0.4,0.7,0.7,1,1.1c0.2,0.2,0.3,0.4,0.5,0.5c0.3,0.3,0.7,0.7,1,1c0.2,0.2,0.4,0.4,0.5,0.6c0.3,0.3,0.7,0.7,1,1
		c0.2,0.2,0.4,0.4,0.6,0.6c0.3,0.3,0.7,0.6,1,0.9c0.2,0.2,0.4,0.4,0.6,0.6c0.3,0.3,0.7,0.6,1,0.9c0.2,0.2,0.4,0.4,0.6,0.6
		c0.3,0.3,0.7,0.6,1,0.9c0.2,0.2,0.4,0.4,0.7,0.6c0.3,0.3,0.7,0.6,1,0.8c0.2,0.2,0.5,0.4,0.7,0.6c0.3,0.3,0.7,0.5,1,0.8
		c0.2,0.2,0.5,0.4,0.7,0.6c0.3,0.3,0.7,0.5,1,0.8c0.3,0.2,0.5,0.4,0.8,0.5c0.3,0.2,0.7,0.5,1,0.7s0.5,0.4,0.8,0.5
		c0.3,0.2,0.7,0.5,1,0.7s0.5,0.4,0.8,0.5c0.3,0.2,0.7,0.4,1,0.7c0.3,0.2,0.6,0.4,0.8,0.5c0.3,0.2,0.7,0.4,1.1,0.6
		c0.3,0.2,0.6,0.3,0.9,0.5c0.4,0.2,0.7,0.4,1.1,0.6c0.3,0.2,0.6,0.3,0.9,0.5c0.4,0.2,0.7,0.4,1.1,0.6c0.3,0.2,0.6,0.3,0.9,0.5
		c0.4,0.2,0.7,0.4,1.1,0.6c0.3,0.2,0.6,0.3,0.9,0.5c0.4,0.2,0.7,0.4,1.1,0.5c0.3,0.2,0.6,0.3,1,0.5s0.7,0.3,1.1,0.5
		c0.3,0.1,0.7,0.3,1,0.4c0.4,0.2,0.7,0.3,1.1,0.5c0.3,0.1,0.7,0.3,1,0.4c0.4,0.1,0.7,0.3,1.1,0.4c0.3,0.1,0.7,0.3,1,0.4
		c0.4,0.1,0.7,0.3,1.1,0.4c0.4,0.1,0.7,0.3,1.1,0.4c0.4,0.1,0.7,0.3,1.1,0.4c0.4,0.1,0.7,0.2,1.1,0.4c0.4,0.1,0.7,0.2,1.1,0.4
		c0.4,0.1,0.7,0.2,1.1,0.3s0.7,0.2,1.1,0.3s0.7,0.2,1.1,0.3s0.7,0.2,1.1,0.3s0.8,0.2,1.1,0.3c0.4,0.1,0.7,0.2,1.1,0.3
		s0.8,0.2,1.2,0.3c0.4,0.1,0.7,0.2,1.1,0.2c0.4,0.1,0.8,0.2,1.2,0.2c0.4,0.1,0.7,0.2,1.1,0.2c0.4,0.1,0.8,0.1,1.2,0.2
		c0.4,0.1,0.7,0.1,1.1,0.2c0.4,0.1,0.8,0.1,1.2,0.2c0.4,0.1,0.7,0.1,1.1,0.2c0.4,0.1,0.8,0.1,1.3,0.2c0.4,0,0.7,0.1,1.1,0.1
		c0.4,0.1,0.9,0.1,1.3,0.1c0.3,0,0.7,0.1,1,0.1c0.5,0,0.9,0.1,1.4,0.1c0.3,0,0.7,0.1,1,0.1c0.5,0,1,0.1,1.4,0.1c0.3,0,0.6,0,0.9,0.1
		c0.5,0,1.1,0,1.6,0.1c0.3,0,0.5,0,0.8,0c0.8,0,1.6,0,2.4,0h4.7c0.8,0,1.6,0,2.4,0C105.1,184.5,105.3,184.5,105.6,184.5z"/>
	<path style="fill:#FA8106;" d="M105.6,181.5c0.5,0,1.1,0,1.6-0.1c0.3,0,0.6,0,0.9-0.1c0.5,0,1-0.1,1.4-0.1c0.3,0,0.7-0.1,1-0.1
		c0.5,0,0.9-0.1,1.4-0.1c0.4,0,0.7-0.1,1.1-0.1s0.9-0.1,1.3-0.1s0.7-0.1,1.1-0.1c0.4-0.1,0.8-0.1,1.3-0.2c0.4-0.1,0.7-0.1,1.1-0.2
		c0.4-0.1,0.8-0.1,1.2-0.2c0.4-0.1,0.7-0.1,1.1-0.2c0.4-0.1,0.8-0.1,1.2-0.2c0.4-0.1,0.7-0.1,1.1-0.2c0.4-0.1,0.8-0.2,1.2-0.2
		c0.4-0.1,0.7-0.2,1.1-0.3s0.8-0.2,1.2-0.3c0.4-0.1,0.7-0.2,1.1-0.3s0.8-0.2,1.1-0.3c0.4-0.1,0.7-0.2,1.1-0.3
		c0.4-0.1,0.7-0.2,1.1-0.3c0.4-0.1,0.7-0.2,1.1-0.3c0.4-0.1,0.7-0.2,1.1-0.3c0.4-0.1,0.7-0.2,1.1-0.4c0.4-0.1,0.7-0.2,1.1-0.4
		c0.4-0.1,0.7-0.3,1.1-0.4c0.3-0.1,0.7-0.2,1-0.4c0.4-0.1,0.7-0.3,1.1-0.4c0.3-0.1,0.7-0.3,1-0.4c0.4-0.1,0.7-0.3,1.1-0.4
		c0.3-0.1,0.7-0.3,1-0.4c0.4-0.2,0.7-0.3,1.1-0.5c0.3-0.1,0.6-0.3,1-0.4c0.4-0.2,0.7-0.3,1.1-0.5c0.3-0.1,0.6-0.3,0.9-0.4
		c0.4-0.2,0.7-0.4,1.1-0.5c0.3-0.2,0.6-0.3,0.9-0.5c0.4-0.2,0.7-0.4,1.1-0.6c0.3-0.2,0.6-0.3,0.9-0.5c0.4-0.2,0.7-0.4,1.1-0.6
		c0.3-0.2,0.6-0.3,0.9-0.5c0.4-0.2,0.7-0.4,1.1-0.6c0.3-0.2,0.6-0.3,0.9-0.5c0.4-0.2,0.7-0.4,1.1-0.6c0.3-0.2,0.6-0.3,0.8-0.5
		c0.4-0.2,0.7-0.5,1.1-0.7c0.3-0.2,0.5-0.3,0.8-0.5c0.4-0.2,0.7-0.5,1.1-0.7c0.3-0.2,0.5-0.4,0.8-0.5c0.4-0.2,0.7-0.5,1.1-0.7
		c0.2-0.2,0.5-0.4,0.7-0.5c0.4-0.3,0.7-0.5,1.1-0.8c0.2-0.2,0.5-0.4,0.7-0.5c0.4-0.3,0.7-0.5,1-0.8c0.2-0.2,0.5-0.4,0.7-0.5
		c0.3-0.3,0.7-0.6,1-0.8c0.2-0.2,0.4-0.4,0.7-0.5c0.3-0.3,0.7-0.6,1-0.9c0.2-0.2,0.4-0.4,0.6-0.5c0.3-0.3,0.7-0.6,1-0.9
		c0.2-0.2,0.4-0.4,0.6-0.5c0.3-0.3,0.7-0.6,1-1c0.2-0.2,0.4-0.4,0.6-0.5c0.3-0.3,0.7-0.7,1-1c0.2-0.2,0.4-0.4,0.5-0.5
		c0.3-0.3,0.7-0.7,1-1c0.2-0.2,0.3-0.4,0.5-0.5c0.3-0.4,0.7-0.7,1-1.1c0.2-0.2,0.3-0.3,0.5-0.5c0.3-0.4,0.7-0.7,1-1.1
		c0.1-0.2,0.3-0.3,0.4-0.5c0.3-0.4,0.7-0.8,1-1.2c0.1-0.2,0.3-0.3,0.4-0.5c0.3-0.4,0.7-0.8,1-1.2c0.1-0.2,0.2-0.3,0.4-0.5
		c0.3-0.4,0.7-0.8,1-1.3c0.1-0.1,0.2-0.3,0.3-0.4c0.3-0.4,0.6-0.9,1-1.3c0.1-0.1,0.2-0.3,0.3-0.4c0.3-0.5,0.6-0.9,1-1.4
		c0.1-0.1,0.2-0.2,0.2-0.4c0.3-0.5,0.6-1,1-1.5c0.1-0.1,0.1-0.2,0.2-0.3c0.3-0.5,0.6-1,1-1.5c0.1-0.1,0.1-0.2,0.2-0.3
		c0.3-0.5,0.6-1.1,1-1.6c0-0.1,0.1-0.1,0.1-0.2c0.3-0.6,0.6-1.1,1-1.7v-0.1c6.1-11.4,9.8-24.1,10.2-37.5l0,0
		c-1.5-50.9-43.7-92.1-95-92.1h-4.7c-51.3,0-93.4,41.2-95,92.1l0,0c0.4,13.4,4,26.2,10.2,37.5c0,0,0,0.1,0.1,0.1
		c0.3,0.6,0.6,1.1,0.9,1.7c0,0.1,0.1,0.1,0.1,0.2c0.3,0.5,0.6,1.1,0.9,1.6c0.1,0.1,0.1,0.2,0.2,0.3c0.3,0.5,0.6,1,0.9,1.5
		c0.1,0.1,0.1,0.2,0.2,0.3c0.3,0.5,0.6,1,0.9,1.4c0.1,0.1,0.2,0.3,0.3,0.4c0.3,0.5,0.6,0.9,0.9,1.4c0.1,0.1,0.2,0.3,0.3,0.4
		c0.3,0.4,0.6,0.9,1,1.3c0.1,0.1,0.2,0.3,0.3,0.4c0.3,0.4,0.6,0.8,1,1.3c0.1,0.2,0.2,0.3,0.4,0.5c0.3,0.4,0.6,0.8,1,1.2
		c0.1,0.2,0.3,0.3,0.4,0.5c0.3,0.4,0.6,0.8,1,1.1c0.1,0.2,0.3,0.4,0.4,0.5c0.3,0.4,0.6,0.7,1,1.1c0.2,0.2,0.3,0.4,0.5,0.5
		c0.3,0.4,0.7,0.7,1,1.1c0.2,0.2,0.3,0.4,0.5,0.5c0.3,0.3,0.7,0.7,1,1c0.2,0.2,0.4,0.4,0.5,0.6c0.3,0.3,0.7,0.7,1,1
		c0.2,0.2,0.4,0.4,0.6,0.6c0.3,0.3,0.7,0.6,1,0.9c0.2,0.2,0.4,0.4,0.6,0.6c0.3,0.3,0.7,0.6,1,0.9c0.2,0.2,0.4,0.4,0.6,0.6
		c0.3,0.3,0.7,0.6,1,0.9c0.2,0.2,0.4,0.4,0.7,0.6c0.3,0.3,0.7,0.6,1,0.8c0.2,0.2,0.5,0.4,0.7,0.6c0.3,0.3,0.7,0.5,1,0.8
		c0.2,0.2,0.5,0.4,0.7,0.6c0.3,0.3,0.7,0.5,1,0.8c0.3,0.2,0.5,0.4,0.8,0.5c0.3,0.2,0.7,0.5,1,0.7s0.5,0.4,0.8,0.5
		c0.3,0.2,0.7,0.5,1,0.7s0.5,0.4,0.8,0.5c0.3,0.2,0.7,0.4,1,0.7c0.3,0.2,0.6,0.4,0.8,0.5c0.3,0.2,0.7,0.4,1.1,0.6
		c0.3,0.2,0.6,0.3,0.9,0.5c0.4,0.2,0.7,0.4,1.1,0.6c0.3,0.2,0.6,0.3,0.9,0.5c0.4,0.2,0.7,0.4,1.1,0.6c0.3,0.2,0.6,0.3,0.9,0.5
		c0.4,0.2,0.7,0.4,1.1,0.6c0.3,0.2,0.6,0.3,0.9,0.5c0.4,0.2,0.7,0.4,1.1,0.5c0.3,0.2,0.6,0.3,1,0.5s0.7,0.3,1.1,0.5
		c0.3,0.1,0.7,0.3,1,0.4c0.4,0.2,0.7,0.3,1.1,0.5c0.3,0.1,0.7,0.3,1,0.4c0.4,0.1,0.7,0.3,1.1,0.4c0.3,0.1,0.7,0.3,1,0.4
		c0.4,0.1,0.7,0.3,1.1,0.4c0.4,0.1,0.7,0.3,1.1,0.4c0.4,0.1,0.7,0.3,1.1,0.4c0.4,0.1,0.7,0.2,1.1,0.4c0.4,0.1,0.7,0.2,1.1,0.4
		c0.4,0.1,0.7,0.2,1.1,0.3s0.7,0.2,1.1,0.3s0.7,0.2,1.1,0.3s0.7,0.2,1.1,0.3s0.8,0.2,1.1,0.3c0.4,0.1,0.7,0.2,1.1,0.3
		s0.8,0.2,1.2,0.3c0.4,0.1,0.7,0.2,1.1,0.2c0.4,0.1,0.8,0.2,1.2,0.2c0.4,0.1,0.7,0.2,1.1,0.2c0.4,0.1,0.8,0.1,1.2,0.2
		c0.4,0.1,0.7,0.1,1.1,0.2c0.4,0.1,0.8,0.1,1.2,0.2c0.4,0.1,0.7,0.1,1.1,0.2c0.4,0.1,0.8,0.1,1.3,0.2c0.4,0,0.7,0.1,1.1,0.1
		c0.4,0.1,0.9,0.1,1.3,0.1c0.3,0,0.7,0.1,1,0.1c0.5,0,0.9,0.1,1.4,0.1c0.3,0,0.7,0.1,1,0.1c0.5,0,1,0.1,1.4,0.1c0.3,0,0.6,0,0.9,0.1
		c0.5,0,1.1,0,1.6,0.1c0.3,0,0.5,0,0.8,0c0.8,0,1.6,0,2.4,0h4.7c0.8,0,1.6,0,2.4,0C105.1,181.5,105.3,181.5,105.6,181.5z"/>
	<path style="fill:#F8C82C;" d="M105.6,181.5c0.5,0,1.1,0,1.6-0.1c0.3,0,0.6,0,0.9-0.1c0.5,0,1-0.1,1.4-0.1c0.3,0,0.7-0.1,1-0.1
		c0.5,0,0.9-0.1,1.4-0.1c0.4,0,0.7-0.1,1.1-0.1s0.9-0.1,1.3-0.1s0.7-0.1,1.1-0.1c0.4-0.1,0.8-0.1,1.3-0.2c0.4-0.1,0.7-0.1,1.1-0.2
		c0.4-0.1,0.8-0.1,1.2-0.2c0.4-0.1,0.7-0.1,1.1-0.2c0.4-0.1,0.8-0.1,1.2-0.2c0.4-0.1,0.7-0.1,1.1-0.2c0.4-0.1,0.8-0.2,1.2-0.2
		c0.4-0.1,0.7-0.2,1.1-0.3s0.8-0.2,1.2-0.3c0.4-0.1,0.7-0.2,1.1-0.3s0.8-0.2,1.1-0.3c0.4-0.1,0.7-0.2,1.1-0.3
		c0.4-0.1,0.7-0.2,1.1-0.3c0.4-0.1,0.7-0.2,1.1-0.3c0.4-0.1,0.7-0.2,1.1-0.3c0.4-0.1,0.7-0.2,1.1-0.4c0.4-0.1,0.7-0.2,1.1-0.4
		c0.4-0.1,0.7-0.3,1.1-0.4c0.3-0.1,0.7-0.2,1-0.4c0.4-0.1,0.7-0.3,1.1-0.4c0.3-0.1,0.7-0.3,1-0.4c0.4-0.1,0.7-0.3,1.1-0.4
		c0.3-0.1,0.7-0.3,1-0.4c0.4-0.2,0.7-0.3,1.1-0.5c0.3-0.1,0.6-0.3,1-0.4c0.4-0.2,0.7-0.3,1.1-0.5c0.3-0.1,0.6-0.3,0.9-0.4
		c0.4-0.2,0.7-0.4,1.1-0.5c0.3-0.2,0.6-0.3,0.9-0.5c0.4-0.2,0.7-0.4,1.1-0.6c0.3-0.2,0.6-0.3,0.9-0.5c0.4-0.2,0.7-0.4,1.1-0.6
		c0.3-0.2,0.6-0.3,0.9-0.5c0.4-0.2,0.7-0.4,1.1-0.6c0.3-0.2,0.6-0.3,0.9-0.5c0.4-0.2,0.7-0.4,1.1-0.6c0.3-0.2,0.6-0.3,0.8-0.5
		c0.4-0.2,0.7-0.5,1.1-0.7c0.3-0.2,0.5-0.3,0.8-0.5c0.4-0.2,0.7-0.5,1.1-0.7c0.3-0.2,0.5-0.4,0.8-0.5c0.4-0.2,0.7-0.5,1.1-0.7
		c0.2-0.2,0.5-0.4,0.7-0.5c0.4-0.3,0.7-0.5,1.1-0.8c0.2-0.2,0.5-0.4,0.7-0.5c0.4-0.3,0.7-0.5,1-0.8c0.2-0.2,0.5-0.4,0.7-0.5
		c0.3-0.3,0.7-0.6,1-0.8c0.2-0.2,0.4-0.4,0.7-0.5c0.3-0.3,0.7-0.6,1-0.9c0.2-0.2,0.4-0.4,0.6-0.5c0.3-0.3,0.7-0.6,1-0.9
		c0.2-0.2,0.4-0.4,0.6-0.5c0.3-0.3,0.7-0.6,1-1c0.2-0.2,0.4-0.4,0.6-0.5c0.3-0.3,0.7-0.7,1-1c0.2-0.2,0.4-0.4,0.5-0.5
		c0.3-0.3,0.7-0.7,1-1c0.2-0.2,0.3-0.4,0.5-0.5c0.3-0.4,0.7-0.7,1-1.1c0.2-0.2,0.3-0.3,0.5-0.5c0.3-0.4,0.7-0.7,1-1.1
		c0.1-0.2,0.3-0.3,0.4-0.5c0.3-0.4,0.7-0.8,1-1.2c0.1-0.2,0.3-0.3,0.4-0.5c0.3-0.4,0.7-0.8,1-1.2c0.1-0.2,0.2-0.3,0.4-0.5
		c0.3-0.4,0.7-0.8,1-1.3c0.1-0.1,0.2-0.3,0.3-0.4c0.3-0.4,0.6-0.9,1-1.3c0.1-0.1,0.2-0.3,0.3-0.4c0.3-0.5,0.6-0.9,1-1.4
		c0.1-0.1,0.2-0.2,0.2-0.4c0.3-0.5,0.6-1,1-1.5c0.1-0.1,0.1-0.2,0.2-0.3c0.3-0.5,0.6-1,1-1.5c0.1-0.1,0.1-0.2,0.2-0.3
		c0.3-0.5,0.6-1.1,1-1.6c0-0.1,0.1-0.1,0.1-0.2c0.3-0.6,0.6-1.1,1-1.7v-0.1c6.1-11.4,9.8-24.1,10.2-37.5l0,0
		c-1.5-50.9-43.7-92.1-95-92.1h-4.7c-51.3,0-93.4,41.2-95,92.1l0,0c0.4,13.4,4,26.2,10.2,37.5c0,0,0,0.1,0.1,0.1
		c0.3,0.6,0.6,1.1,0.9,1.7c0,0.1,0.1,0.1,0.1,0.2c0.3,0.5,0.6,1.1,0.9,1.6c0.1,0.1,0.1,0.2,0.2,0.3c0.3,0.5,0.6,1,0.9,1.5
		c0.1,0.1,0.1,0.2,0.2,0.3c0.3,0.5,0.6,1,0.9,1.4c0.1,0.1,0.2,0.3,0.3,0.4c0.3,0.5,0.6,0.9,0.9,1.4c0.1,0.1,0.2,0.3,0.3,0.4
		c0.3,0.4,0.6,0.9,1,1.3c0.1,0.1,0.2,0.3,0.3,0.4c0.3,0.4,0.6,0.8,1,1.3c0.1,0.2,0.2,0.3,0.4,0.5c0.3,0.4,0.6,0.8,1,1.2
		c0.1,0.2,0.3,0.3,0.4,0.5c0.3,0.4,0.6,0.8,1,1.1c0.1,0.2,0.3,0.4,0.4,0.5c0.3,0.4,0.6,0.7,1,1.1c0.2,0.2,0.3,0.4,0.5,0.5
		c0.3,0.4,0.7,0.7,1,1.1c0.2,0.2,0.3,0.4,0.5,0.5c0.3,0.3,0.7,0.7,1,1c0.2,0.2,0.4,0.4,0.5,0.6c0.3,0.3,0.7,0.7,1,1
		c0.2,0.2,0.4,0.4,0.6,0.6c0.3,0.3,0.7,0.6,1,0.9c0.2,0.2,0.4,0.4,0.6,0.6c0.3,0.3,0.7,0.6,1,0.9c0.2,0.2,0.4,0.4,0.6,0.6
		c0.3,0.3,0.7,0.6,1,0.9c0.2,0.2,0.4,0.4,0.7,0.6c0.3,0.3,0.7,0.6,1,0.8c0.2,0.2,0.5,0.4,0.7,0.6c0.3,0.3,0.7,0.5,1,0.8
		c0.2,0.2,0.5,0.4,0.7,0.6c0.3,0.3,0.7,0.5,1,0.8c0.3,0.2,0.5,0.4,0.8,0.5c0.3,0.2,0.7,0.5,1,0.7s0.5,0.4,0.8,0.5
		c0.3,0.2,0.7,0.5,1,0.7s0.5,0.4,0.8,0.5c0.3,0.2,0.7,0.4,1,0.7c0.3,0.2,0.6,0.4,0.8,0.5c0.3,0.2,0.7,0.4,1.1,0.6
		c0.3,0.2,0.6,0.3,0.9,0.5c0.4,0.2,0.7,0.4,1.1,0.6c0.3,0.2,0.6,0.3,0.9,0.5c0.4,0.2,0.7,0.4,1.1,0.6c0.3,0.2,0.6,0.3,0.9,0.5
		c0.4,0.2,0.7,0.4,1.1,0.6c0.3,0.2,0.6,0.3,0.9,0.5c0.4,0.2,0.7,0.4,1.1,0.5c0.3,0.2,0.6,0.3,1,0.5s0.7,0.3,1.1,0.5
		c0.3,0.1,0.7,0.3,1,0.4c0.4,0.2,0.7,0.3,1.1,0.5c0.3,0.1,0.7,0.3,1,0.4c0.4,0.1,0.7,0.3,1.1,0.4c0.3,0.1,0.7,0.3,1,0.4
		c0.4,0.1,0.7,0.3,1.1,0.4c0.4,0.1,0.7,0.3,1.1,0.4c0.4,0.1,0.7,0.3,1.1,0.4c0.4,0.1,0.7,0.2,1.1,0.4c0.4,0.1,0.7,0.2,1.1,0.4
		c0.4,0.1,0.7,0.2,1.1,0.3s0.7,0.2,1.1,0.3s0.7,0.2,1.1,0.3s0.7,0.2,1.1,0.3s0.8,0.2,1.1,0.3c0.4,0.1,0.7,0.2,1.1,0.3
		s0.8,0.2,1.2,0.3c0.4,0.1,0.7,0.2,1.1,0.2c0.4,0.1,0.8,0.2,1.2,0.2c0.4,0.1,0.7,0.2,1.1,0.2c0.4,0.1,0.8,0.1,1.2,0.2
		c0.4,0.1,0.7,0.1,1.1,0.2c0.4,0.1,0.8,0.1,1.2,0.2c0.4,0.1,0.7,0.1,1.1,0.2c0.4,0.1,0.8,0.1,1.3,0.2c0.4,0,0.7,0.1,1.1,0.1
		c0.4,0.1,0.9,0.1,1.3,0.1c0.3,0,0.7,0.1,1,0.1c0.5,0,0.9,0.1,1.4,0.1c0.3,0,0.7,0.1,1,0.1c0.5,0,1,0.1,1.4,0.1c0.3,0,0.6,0,0.9,0.1
		c0.5,0,1.1,0,1.6,0.1c0.3,0,0.5,0,0.8,0c0.8,0,1.6,0,2.4,0h4.7c0.8,0,1.6,0,2.4,0C105.1,181.5,105.3,181.5,105.6,181.5z M7.9,90.5
		C7.9,44,49.3,5.9,100,5.9s92.1,38.1,92.1,84.6s-41.4,84.6-92.1,84.6S7.9,137,7.9,90.5z"/>
	<path style="fill:#FDBE0B;" d="M8,87.2c18.5-25,52.8-41.8,92-41.8s73.5,16.8,92,41.8c-1.1-26.7-15.9-50.3-38.1-65.1l0,0
		c-1.1-0.8-2.3-1.5-3.5-2.2l-0.1-0.1c-1.2-0.7-2.3-1.4-3.5-2c-0.1,0-0.1-0.1-0.2-0.1c-1.2-0.6-2.4-1.2-3.6-1.8
		c-0.1,0-0.2-0.1-0.3-0.1c-1.2-0.6-2.4-1.1-3.6-1.7c-0.1,0-0.2-0.1-0.3-0.1c-1.2-0.5-2.4-1-3.7-1.5c-0.1,0-0.2-0.1-0.4-0.1
		c-1.2-0.5-2.5-0.9-3.7-1.3c-0.1,0-0.3-0.1-0.4-0.1c-1.3-0.4-2.5-0.8-3.8-1.2c-0.1,0-0.3-0.1-0.4-0.1c-1.3-0.4-2.6-0.7-3.9-1
		c-0.1,0-0.3-0.1-0.4-0.1c-1.3-0.3-2.6-0.6-4-0.8c-0.1,0-0.2,0-0.4-0.1c-1.3-0.2-2.7-0.5-4.1-0.7c-0.1,0-0.2,0-0.3,0
		c-1.4-0.2-2.8-0.4-4.2-0.5c-0.1,0-0.2,0-0.2,0c-1.4-0.1-2.9-0.2-4.3-0.3h-0.1c-1.5-0.1-3-0.1-4.5-0.1s-3,0-4.5,0.1h-0.1
		c-1.5,0.1-2.9,0.2-4.3,0.3c-0.1,0-0.2,0-0.2,0c-1.4,0.1-2.8,0.3-4.2,0.5c-0.1,0-0.2,0-0.3,0c-1.4,0.2-2.7,0.4-4.1,0.7
		c-0.1,0-0.2,0-0.4,0.1c-1.3,0.2-2.7,0.5-4,0.8c-0.1,0-0.3,0.1-0.4,0.1c-1.3,0.3-2.6,0.6-3.9,1c-0.1,0-0.3,0.1-0.4,0.1
		c-1.3,0.4-2.6,0.8-3.8,1.2c-0.1,0-0.2,0.1-0.4,0.1c-1.3,0.4-2.5,0.9-3.8,1.3c-0.1,0-0.2,0.1-0.3,0.1c-1.2,0.5-2.5,1-3.7,1.5
		c-0.1,0-0.2,0.1-0.3,0.1c-1.2,0.5-2.4,1.1-3.6,1.7c-0.1,0-0.2,0.1-0.2,0.1c-1.2,0.6-2.4,1.2-3.6,1.9c-0.1,0-0.1,0.1-0.2,0.1
		c-1.2,0.7-2.4,1.3-3.6,2c0,0,0,0-0.1,0C25.5,34.3,9.2,59,8,87.2z"/>
	<path style="fill:#FED70E;" d="M98.1,11.6c-36.8,0-67.7,25.2-75.1,59.9c19.3-16.1,46.7-26.2,77-26.2s57.7,10,77.1,26.1
		c-7.4-34.7-38.4-59.9-75.1-59.9h-3.9V11.6z"/>
	<path style="fill:#FBA708;" d="M100,45.3c-30.3,0-57.7,10-77.1,26.1c-0.9,4.4-1.5,9-1.7,13.7l0,0c0.3,10.9,3.3,21.2,8.2,30.4
		c0,0,0,0.1,0.1,0.1c0.2,0.5,0.5,0.9,0.8,1.4c0,0.1,0.1,0.1,0.1,0.2c0.2,0.4,0.5,0.9,0.8,1.3c0,0.1,0.1,0.2,0.1,0.2
		c0.2,0.4,0.5,0.8,0.8,1.2c0.1,0.1,0.1,0.2,0.2,0.3c0.2,0.4,0.5,0.8,0.8,1.2c0.1,0.1,0.1,0.2,0.2,0.3c0.3,0.4,0.5,0.7,0.8,1.1
		c0.1,0.1,0.2,0.2,0.2,0.3c0.3,0.4,0.5,0.7,0.8,1.1c0.1,0.1,0.2,0.2,0.3,0.4c0.3,0.3,0.5,0.7,0.8,1c0.1,0.1,0.2,0.3,0.3,0.4
		c0.3,0.3,0.5,0.6,0.8,1c0.1,0.1,0.2,0.3,0.3,0.4c0.3,0.3,0.5,0.6,0.8,0.9c0.1,0.1,0.2,0.3,0.4,0.4c0.3,0.3,0.5,0.6,0.8,0.9
		c0.1,0.1,0.3,0.3,0.4,0.4c0.3,0.3,0.5,0.6,0.8,0.9c0.1,0.1,0.3,0.3,0.4,0.4c0.3,0.3,0.5,0.6,0.8,0.8c0.1,0.1,0.3,0.3,0.4,0.4
		c0.3,0.3,0.5,0.5,0.8,0.8c0.2,0.2,0.3,0.3,0.5,0.5c0.3,0.3,0.5,0.5,0.8,0.8c0.2,0.2,0.3,0.3,0.5,0.5c0.3,0.2,0.5,0.5,0.8,0.7
		c0.2,0.2,0.3,0.3,0.5,0.5c0.3,0.2,0.5,0.5,0.8,0.7c0.2,0.2,0.4,0.3,0.5,0.5c0.3,0.2,0.5,0.5,0.8,0.7c0.2,0.2,0.4,0.3,0.6,0.5
		c0.3,0.2,0.6,0.4,0.8,0.6c0.2,0.1,0.4,0.3,0.6,0.4c0.3,0.2,0.6,0.4,0.8,0.6c0.2,0.1,0.4,0.3,0.6,0.4c0.3,0.2,0.6,0.4,0.8,0.6
		c0.2,0.1,0.4,0.3,0.6,0.4c0.3,0.2,0.6,0.4,0.8,0.6c0.2,0.1,0.4,0.3,0.7,0.4c0.3,0.2,0.6,0.4,0.8,0.5s0.5,0.3,0.7,0.4
		c0.3,0.2,0.6,0.3,0.9,0.5c0.2,0.1,0.5,0.3,0.7,0.4c0.3,0.2,0.6,0.3,0.9,0.5c0.2,0.1,0.5,0.3,0.7,0.4c0.3,0.2,0.6,0.3,0.9,0.5
		c0.2,0.1,0.5,0.3,0.7,0.4c0.3,0.2,0.6,0.3,0.9,0.4c0.3,0.1,0.5,0.3,0.8,0.4c0.3,0.1,0.6,0.3,0.9,0.4c0.3,0.1,0.5,0.2,0.8,0.4
		c0.3,0.1,0.6,0.3,0.9,0.4c0.3,0.1,0.5,0.2,0.8,0.4c0.3,0.1,0.6,0.3,0.9,0.4c0.3,0.1,0.5,0.2,0.8,0.3s0.6,0.2,0.9,0.4
		c0.3,0.1,0.6,0.2,0.8,0.3c0.3,0.1,0.6,0.2,0.9,0.3s0.6,0.2,0.9,0.3s0.6,0.2,0.9,0.3s0.6,0.2,0.9,0.3s0.6,0.2,0.9,0.3
		s0.6,0.2,0.9,0.3s0.6,0.2,0.9,0.3s0.6,0.2,0.9,0.3s0.6,0.2,0.9,0.2c0.3,0.1,0.6,0.2,0.9,0.2c0.3,0.1,0.6,0.2,0.9,0.2
		c0.3,0.1,0.6,0.1,0.9,0.2c0.3,0.1,0.6,0.1,0.9,0.2c0.3,0.1,0.6,0.1,1,0.2c0.3,0.1,0.6,0.1,0.9,0.2c0.3,0.1,0.7,0.1,1,0.2
		c0.3,0.1,0.6,0.1,0.9,0.2c0.3,0.1,0.7,0.1,1,0.2c0.3,0,0.6,0.1,0.9,0.1s0.7,0.1,1,0.1s0.6,0.1,0.9,0.1c0.4,0,0.7,0.1,1.1,0.1
		c0.3,0,0.6,0.1,0.8,0.1c0.4,0,0.7,0.1,1.1,0.1c0.3,0,0.5,0,0.8,0.1c0.4,0,0.8,0,1.2,0.1c0.3,0,0.5,0,0.8,0c0.4,0,0.9,0,1.3,0
		c0.2,0,0.4,0,0.6,0c0.7,0,1.3,0,2,0h3.8c0.7,0,1.3,0,2,0c0.2,0,0.4,0,0.7,0c0.4,0,0.9,0,1.3,0c0.3,0,0.5,0,0.8,0
		c0.4,0,0.8,0,1.2-0.1c0.3,0,0.5,0,0.8-0.1c0.4,0,0.7-0.1,1.1-0.1c0.3,0,0.6-0.1,0.9-0.1c0.4,0,0.7-0.1,1.1-0.1
		c0.3,0,0.6-0.1,0.9-0.1s0.7-0.1,1-0.1s0.6-0.1,0.9-0.1c0.3-0.1,0.7-0.1,1-0.2c0.3-0.1,0.6-0.1,0.9-0.2c0.3-0.1,0.7-0.1,1-0.2
		c0.3-0.1,0.6-0.1,0.9-0.2c0.3-0.1,0.6-0.1,1-0.2c0.3-0.1,0.6-0.1,0.9-0.2c0.3-0.1,0.6-0.1,0.9-0.2c0.3-0.1,0.6-0.2,0.9-0.2
		c0.3-0.1,0.6-0.2,0.9-0.2c0.3-0.1,0.6-0.2,0.9-0.2c0.3-0.1,0.6-0.2,0.9-0.3s0.6-0.2,0.9-0.3s0.6-0.2,0.9-0.3s0.6-0.2,0.9-0.3
		s0.6-0.2,0.9-0.3c0.3-0.1,0.6-0.2,0.9-0.3c0.3-0.1,0.6-0.2,0.8-0.3c0.3-0.1,0.6-0.2,0.9-0.3c0.3-0.1,0.6-0.2,0.8-0.3
		c0.3-0.1,0.6-0.2,0.9-0.4c0.3-0.1,0.5-0.2,0.8-0.3s0.6-0.3,0.9-0.4c0.3-0.1,0.5-0.2,0.8-0.3s0.6-0.3,0.9-0.4
		c0.3-0.1,0.5-0.2,0.8-0.4c0.3-0.1,0.6-0.3,0.9-0.4c0.3-0.1,0.5-0.2,0.7-0.4c0.3-0.1,0.6-0.3,0.9-0.5c0.2-0.1,0.5-0.3,0.7-0.4
		c0.3-0.2,0.6-0.3,0.9-0.5c0.2-0.1,0.5-0.3,0.7-0.4c0.3-0.2,0.6-0.3,0.9-0.5c0.2-0.1,0.5-0.3,0.7-0.4c0.3-0.2,0.6-0.4,0.9-0.5
		c0.2-0.1,0.4-0.3,0.7-0.4c0.3-0.2,0.6-0.4,0.9-0.5c0.2-0.1,0.4-0.3,0.6-0.4c0.3-0.2,0.6-0.4,0.9-0.6c0.2-0.1,0.4-0.3,0.6-0.4
		c0.3-0.2,0.6-0.4,0.9-0.6c0.2-0.1,0.4-0.3,0.6-0.4c0.3-0.2,0.6-0.4,0.9-0.6c0.2-0.1,0.4-0.3,0.6-0.4c0.3-0.2,0.6-0.4,0.8-0.7
		c0.2-0.1,0.4-0.3,0.6-0.4c0.3-0.2,0.6-0.5,0.8-0.7c0.2-0.1,0.4-0.3,0.5-0.4c0.3-0.2,0.6-0.5,0.8-0.7c0.2-0.1,0.3-0.3,0.5-0.4
		c0.3-0.2,0.6-0.5,0.8-0.7c0.2-0.1,0.3-0.3,0.5-0.4c0.3-0.3,0.6-0.5,0.8-0.8c0.2-0.1,0.3-0.3,0.5-0.4c0.3-0.3,0.5-0.5,0.8-0.8
		c0.1-0.1,0.3-0.3,0.4-0.4c0.3-0.3,0.5-0.6,0.8-0.8c0.1-0.1,0.3-0.3,0.4-0.4c0.3-0.3,0.5-0.6,0.8-0.9c0.1-0.1,0.2-0.3,0.4-0.4
		c0.3-0.3,0.5-0.6,0.8-0.9c0.1-0.1,0.2-0.3,0.3-0.4c0.3-0.3,0.5-0.6,0.8-0.9c0.1-0.1,0.2-0.3,0.3-0.4c0.3-0.3,0.5-0.7,0.8-1
		c0.1-0.1,0.2-0.3,0.3-0.4c0.3-0.3,0.5-0.7,0.8-1c0.1-0.1,0.2-0.2,0.3-0.4c0.3-0.4,0.5-0.7,0.8-1.1c0.1-0.1,0.2-0.2,0.2-0.3
		c0.3-0.4,0.5-0.7,0.8-1.1c0.1-0.1,0.1-0.2,0.2-0.3c0.3-0.4,0.5-0.8,0.8-1.2c0.1-0.1,0.1-0.2,0.2-0.3c0.3-0.4,0.5-0.8,0.8-1.2
		c0-0.1,0.1-0.1,0.1-0.2c0.3-0.4,0.5-0.9,0.8-1.3c0,0,0.1-0.1,0.1-0.2c0.3-0.5,0.5-0.9,0.8-1.4v-0.1c5-9.2,7.9-19.5,8.2-30.4l0,0
		c-0.1-4.7-0.7-9.2-1.7-13.7C157.7,55.4,130.3,45.3,100,45.3z"/>
	<path style="fill:#FFFF77;" d="M101,9.9c40.5,0,75.1,23.3,87.4,56.9c-5.8-18.2-18.1-33.9-34.5-44.8l0,0c-1.1-0.8-2.3-1.5-3.5-2.2
		l-0.1-0.1c-1.2-0.7-2.3-1.4-3.5-2c-0.1,0-0.1-0.1-0.2-0.1c-1.2-0.6-2.4-1.2-3.6-1.8c-0.1,0-0.2-0.1-0.3-0.1
		c-1.2-0.6-2.4-1.1-3.6-1.7c-0.1,0-0.2-0.1-0.3-0.1c-1.2-0.5-2.4-1-3.7-1.5c-0.1,0-0.2-0.1-0.4-0.1c-1.2-0.5-2.5-0.9-3.7-1.3
		c-0.1,0-0.3-0.1-0.4-0.1c-1.3-0.4-2.5-0.8-3.8-1.2c-0.1,0-0.3-0.1-0.4-0.1c-1.3-0.4-2.6-0.7-3.9-1c-0.1,0-0.3-0.1-0.4-0.1
		c-1.3-0.3-2.6-0.6-4-0.8c-0.1,0-0.2,0-0.4-0.1c-1.3-0.2-2.7-0.5-4.1-0.7c-0.1,0-0.2,0-0.3,0c-1.4-0.2-2.8-0.4-4.2-0.5
		c-0.1,0-0.2,0-0.2,0c-1.4-0.1-2.9-0.2-4.3-0.3h-0.1C103,6,101.5,6,100,6s-3,0-4.5,0.1h-0.1c-1.5,0.1-2.9,0.2-4.3,0.3
		c-0.1,0-0.2,0-0.2,0c-1.4,0.1-2.8,0.3-4.2,0.5c-0.1,0-0.2,0-0.3,0c-1.4,0.2-2.7,0.4-4.1,0.7c-0.1,0-0.2,0-0.4,0.1
		c-1.3,0.2-2.7,0.5-4,0.8c-0.1,0-0.3,0.1-0.4,0.1c-1.3,0.3-2.6,0.6-3.9,1c-0.1,0-0.3,0.1-0.4,0.1c-1.3,0.4-2.6,0.8-3.8,1.2
		c-0.1,0-0.2,0.1-0.4,0.1c-1.3,0.4-2.5,0.9-3.8,1.3c-0.1,0-0.2,0.1-0.3,0.1c-1.2,0.5-2.5,1-3.7,1.5c-0.1,0-0.2,0.1-0.3,0.1
		c-1.2,0.5-2.4,1.1-3.6,1.7c-0.1,0-0.2,0.1-0.2,0.1c-1.2,0.6-2.4,1.2-3.6,1.9c-0.1,0-0.1,0.1-0.2,0.1c-1.2,0.7-2.4,1.3-3.6,2
		c0,0,0,0-0.1,0C25.5,34.3,9.2,59,8,87.2c0.4-0.6-0.1-0.2,0.3-0.7C12.8,43.7,53.3,9.9,101,9.9z"/>
	<path style="fill:#FFFF9F;" d="M66.9,32.9c-4.7,2.4-9.9,1.8-11.5-1.3s0.9-7.7,5.7-10.1c4.7-2.4,9.9-1.8,11.5,1.3
		C74.1,26,71.6,30.5,66.9,32.9z"/>
	<path style="fill:#E96606;" d="M187.6,64.5c2.3,7.3,3.5,15,3.5,23c0,46.5-41.4,84.6-92.1,84.6c-40.8,0-75.6-24.7-87.6-58.6
		c11,35.5,46.6,61.6,88.6,61.6c50.7,0,92.1-38.1,92.1-84.6C192.1,81.4,190.5,72.7,187.6,64.5z"/>
	<path style="fill:#FFFF77;" d="M50.5,38.2c-1.7,1.3-3.9,1.4-4.8,0.3c-0.9-1.2-0.2-3.2,1.6-4.5c1.7-1.3,3.9-1.4,4.8-0.3
		C52.9,34.8,52.2,36.9,50.5,38.2z"/>
	<g>
		<path style="fill:#FDAC0B;" d="M160.2,143.5c1.2,1.8-1.6,5.7-6.1,8.7s-9.3,3.9-10.5,2.1s1.6-5.7,6.1-8.7S159,141.7,160.2,143.5z"
			/>
	</g>
	<g>
		<path style="fill:#FD9D0B;" d="M139.3,156.9c0.7,1.9-1.1,4.4-4.1,5.5s-6,0.5-6.7-1.4s1.1-4.4,4.1-5.5
			C135.5,154.4,138.5,155,139.3,156.9z"/>
	</g>
</g>
<g>
	<path style="display:none;fill:#BD4218;" d="M148.8,97.3c0-0.5,0.1-1,0.1-1.5c0.1-1.6,0.1-3.1,0.1-4.6l6-6.5c1.5-1.6,2-4,1.3-6.1
		l-3.8-11c-0.7-2.1-2.6-3.6-4.8-4l-9.1-1.5c-1.5-1.9-3.1-3.7-4.8-5.3l-0.4-9.1c-0.1-2.2-1.4-4.2-3.4-5.2l-10.5-5
		c-0.8-0.4-1.7-0.6-2.6-0.6c-1.3,0-2.5,0.4-3.6,1.2l-7.5,5.5c-0.9-0.1-1.8-0.2-2.7-0.3c-1.1-0.1-2.2-0.1-3.2-0.1c-0.6,0-1.2,0-1.8,0
		l-6.8-6.1c-1.1-1-2.6-1.6-4.1-1.6c-0.7,0-1.4,0.1-2.1,0.4l-11,4c-2.1,0.8-3.6,2.6-3.9,4.8l-1.4,9.2c-1.7,1.4-3.4,2.9-4.9,4.5
		l-9.4,0.7c-2.2,0.2-4.2,1.5-5.1,3.6l-4.7,10.6c-0.9,2-0.6,4.4,0.8,6.2l5.2,6.8c-0.1,1-0.2,2-0.3,2.9c-0.1,1.7-0.1,3.4-0.1,5.1
		L45,99.8c-1.6,1.6-2.1,3.9-1.4,6.1l3.6,11.1c0.7,2.1,2.5,3.7,4.7,4.1l8.7,1.6c1.6,2.1,3.4,4,5.3,5.8l0.2,8.3c0,2.2,1.3,4.3,3.3,5.3
		l10.4,5.3c0.8,0.4,1.8,0.7,2.8,0.7c1.2,0,2.4-0.4,3.5-1.1l7.9-5.5c0.9,0.1,1.7,0.2,2.5,0.2c1.1,0.1,2.2,0.1,3.2,0.1
		c1.4,0,2.9-0.1,4.3-0.2l7.4,5.5c1,0.8,2.3,1.2,3.6,1.2c0.9,0,1.8-0.2,2.6-0.6l10.6-4.9c2-0.9,3.4-2.9,3.5-5.2l0.5-8.1
		c1.4-1.2,2.7-2.5,4-3.9l9-0.5c2.2-0.1,4.2-1.4,5.2-3.5l5-10.5c1-2,0.7-4.4-0.6-6.2L148.8,97.3z M119.8,92.9
		c-0.3,10.8-9,19.3-19.8,19.3c-0.2,0-0.4,0-0.6,0c-5.3-0.2-10.2-2.4-13.8-6.2c-3.6-3.9-5.6-8.9-5.4-14.2c0.3-10.8,9-19.3,19.8-19.3
		c0.2,0,0.4,0,0.6,0c5.3,0.2,10.2,2.4,13.8,6.2C118.1,82.6,120,87.6,119.8,92.9z"/>
	<path style="display:none;fill:#A6A6A6;" d="M146.7,97.9c0.1-0.7,0.1-1.5,0.2-2.2c0.1-1.8,0.1-3.5,0.1-5.3l6.5-7.1
		c1-1.1,1.3-2.7,0.8-4.1l-3.8-11c-0.5-1.4-1.7-2.4-3.2-2.7l-9.9-1.6c-1.7-2.3-3.6-4.4-5.7-6.3l-0.4-9.9c-0.1-1.5-0.9-2.8-2.3-3.5
		l-10.5-5c-0.6-0.3-1.2-0.4-1.8-0.4c-0.8,0-1.7,0.3-2.4,0.8l-8.2,6c-1.1-0.2-2.3-0.3-3.4-0.4c-1-0.1-2.1-0.1-3.1-0.1
		c-0.8,0-1.7,0-2.5,0.1l-7.4-6.6c-0.8-0.7-1.7-1-2.7-1c-0.5,0-0.9,0.1-1.4,0.2l-11,4c-1.4,0.5-2.4,1.7-2.6,3.2l-1.5,10
		c-2.1,1.6-4,3.4-5.8,5.3l-10.2,0.8c-1.5,0.1-2.8,1-3.4,2.4l-4.7,10.6c-0.6,1.4-0.4,2.9,0.5,4.1l5.8,7.4c-0.2,1.2-0.3,2.5-0.4,3.6
		c-0.1,1.9-0.1,3.8,0,5.7l-5.9,6.1c-1,1.1-1.4,2.6-0.9,4l3.6,11.1c0.5,1.4,1.7,2.5,3.1,2.7l9.5,1.7c1.8,2.5,3.9,4.7,6.2,6.8l0.2,9.2
		c0,1.5,0.9,2.8,2.2,3.5l10.4,5.3c0.6,0.3,1.2,0.4,1.8,0.4c0.8,0,1.6-0.2,2.3-0.7l8.5-5.9c1.1,0.1,2.1,0.3,3.2,0.3
		c1,0.1,2.1,0.1,3.1,0.1c1.6,0,3.3-0.1,4.9-0.3l8,6c0.7,0.5,1.6,0.8,2.4,0.8c0.6,0,1.2-0.1,1.7-0.4l10.6-4.9c1.4-0.6,2.2-2,2.3-3.4
		l0.5-9c1.8-1.5,3.5-3.1,5-4.9l9.8-0.5c1.5-0.1,2.8-1,3.5-2.3l5-10.5c0.6-1.3,0.5-2.9-0.4-4.1L146.7,97.9z M121.9,93
		c-0.3,11.9-9.9,21.2-21.8,21.2c-0.2,0-0.4,0-0.7,0c-5.8-0.2-11.3-2.6-15.3-6.8c-4-4.2-6.1-9.8-5.9-15.6
		c0.3-11.9,9.9-21.2,21.8-21.2c0.2,0,0.4,0,0.6,0c5.8,0.2,11.3,2.6,15.3,6.8S122,87.1,121.9,93z"/>
	<path style="fill:#BD4218;" d="M148.8,97.3c0-0.3,0.1-0.8,0.1-1.5c0.1-1.9,0.1-3.7,0.1-4.6l4.6-5c2.3-2.5,3.1-6.3,2-9.5l-2.5-7.2
		c-1.1-3.2-4.1-5.7-7.4-6.2l-7.3-1.2l0,0l-4.6-5.1l-0.3-7.2c-0.2-3.4-2.3-6.6-5.3-8.1l-6.8-3.3c-1.2-0.6-2.6-0.9-4-0.9
		c-2.1,0-4.1,0.6-5.6,1.8l-5.9,4.3c-0.6-0.1-1.5-0.2-2.7-0.3c-0.9-0.1-1.8-0.1-2.8-0.1c-0.9,0-1.7,0-2.1,0L93,38.5
		c-1.7-1.5-4-2.4-6.4-2.4c-1.1,0-2.1,0.2-3.1,0.5L76,39.3c-3.2,1.2-5.6,4.2-6.1,7.5l-1.1,7.4l0,0l-4.7,4.3l0,0l0,0l-7.5,0.6
		c-3.4,0.2-6.6,2.5-7.9,5.6l-3.1,6.9c-1.4,3.1-0.9,7,1.2,9.6l4,5.2c-0.1,0.6-0.2,1.7-0.3,2.9c-0.1,1.9-0.1,4,0,5l-3.9,4.1
		c-2.3,2.4-3.2,6.2-2.2,9.5l2.3,7.2c1,3.2,4,5.8,7.3,6.4l6.8,1.2l0,0l0.1,0.1l5,5.5l0.1,6.5c0.1,3.4,2.1,6.7,5.1,8.2l6.8,3.5
		c1.3,0.6,2.7,1,4.2,1c2,0,3.9-0.6,5.4-1.6l6.2-4.3c0.5,0.1,1.4,0.2,2.5,0.2c0.7,0,1.6,0.1,2.4,0.1c2.2,0,4.3-0.1,5.1-0.2l5.9,4.4
		c1.6,1.2,3.6,1.8,5.7,1.8c1.4,0,2.7-0.3,3.9-0.8l6.9-3.2c3.1-1.4,5.3-4.7,5.4-8l0.3-6.2l3.9-3.8l7.1-0.4c3.4-0.2,6.6-2.3,8.1-5.4
		l3.2-6.9c1.4-3.1,1.1-6.9-1-9.7L148.8,97.3z M119.8,92.9c-0.3,10.8-9,19.3-19.8,19.3c-0.2,0-0.4,0-0.6,0
		c-5.3-0.2-10.2-2.4-13.8-6.2c-3.6-3.9-5.6-8.9-5.4-14.2c0.3-10.8,9-19.3,19.8-19.3c0.2,0,0.4,0,0.6,0c5.3,0.2,10.2,2.4,13.8,6.2
		C118.1,82.6,120,87.6,119.8,92.9z"/>
	<path style="fill:#A6A6A6;" d="M147,98.3c-0.1-0.2-0.2-0.6-0.2-0.8c0-0.2,0.1-0.7,0.1-1.7c0.1-2.2,0.1-4.4,0-4.8
		c0-0.2,0.2-0.5,0.3-0.7l4.9-5.4c1.8-1.9,2.4-5,1.5-7.5l-2.5-7.2c-0.9-2.5-3.3-4.5-5.8-4.9l-7.6-1.2c-0.2-0.1-0.6-0.3-0.8-0.5
		c0-0.1-0.1-0.1-0.1-0.2l-4.7-5.1c0-0.1-0.1-0.1-0.1-0.2c-0.1-0.2-0.3-0.6-0.4-0.8l-0.3-7.5c-0.1-2.6-1.8-5.2-4.2-6.4l-6.8-3.3
		c-0.9-0.4-2-0.7-3.1-0.7c-1.7,0-3.2,0.5-4.5,1.4l-6.2,4.6c-0.2,0.1-0.5,0.2-0.7,0.2c-0.3,0-1.4-0.2-2.9-0.3
		c-0.8-0.1-1.7-0.1-2.7-0.1c-1.2,0-2.2,0-2.5,0.1c-0.2,0-0.6-0.1-0.7-0.3l-5.6-5c-1.3-1.2-3.2-1.9-5.1-1.9c-0.8,0-1.7,0.1-2.4,0.4
		l-7.1,2.6C74.3,42,72.4,44.4,72,47l-1.1,7.7c-0.1,0.2-0.3,0.6-0.4,0.8c-0.1,0-0.1,0.1-0.2,0.1L65.5,60c-0.1,0.1-0.1,0.1-0.2,0.2
		c-0.1,0.1-0.6,0.4-0.9,0.4l-7.7,0.6c-2.6,0.2-5.2,2-6.2,4.4l-3.1,6.9c-1.1,2.4-0.7,5.5,0.9,7.6l4.3,5.6c0.1,0.1,0.2,0.5,0.2,0.6
		c0,0.3-0.2,1.7-0.3,3.3c-0.1,2.3,0,4.9,0,5.3c0,0.2-0.1,0.4-0.2,0.6L48,100c-1.8,1.9-2.5,4.9-1.7,7.4l2.3,7.2
		c0.8,2.5,3.2,4.6,5.7,5l7.1,1.3c0.2,0.1,0.7,0.3,0.8,0.5c0.1,0.1,0.1,0.1,0.1,0.2l5.1,5.6c0,0.1,0.1,0.1,0.1,0.2
		c0.1,0.1,0.3,0.5,0.3,0.7l0.1,6.9c0.1,2.6,1.7,5.3,4,6.5l6.8,3.5c1,0.5,2.1,0.8,3.3,0.8c1.6,0,3.1-0.5,4.3-1.3l6.5-4.5
		c0.2-0.1,0.6-0.2,0.9-0.2c0.2,0,1.3,0.2,2.7,0.3c0.7,0,1.5,0.1,2.3,0.1c2.6,0,5.1-0.2,5.2-0.2c0.2,0,0.7,0.2,0.9,0.3l6.1,4.5
		c1.2,0.9,2.8,1.4,4.5,1.4c1.1,0,2.1-0.2,3-0.6l6.9-3.2c2.4-1.1,4.1-3.7,4.3-6.3l0.4-6.6c0-0.2,0.2-0.5,0.3-0.6l0.1-0.1l4.1-4
		l0.1-0.1c0.2-0.1,0.5-0.3,0.7-0.3l7.5-0.4c2.6-0.1,5.2-1.9,6.3-4.2l3.2-6.9c1.1-2.4,0.8-5.5-0.7-7.6L147,98.3z M121.9,93
		c-0.3,11.9-9.9,21.2-21.8,21.2c-0.2,0-0.4,0-0.7,0c-5.8-0.2-11.3-2.6-15.3-6.8c-4-4.2-6.1-9.8-5.9-15.6
		c0.3-11.9,9.9-21.2,21.8-21.2c0.2,0,0.4,0,0.7,0c5.8,0.2,11.3,2.6,15.3,6.8C119.9,81.6,122,87.1,121.9,93z"/>
	<path style="fill:#FFFFFF;" d="M143.7,96.6c-0.7-0.9-1.1-2.5-0.9-3.6c0,0,0.1-0.4,0.1-1.5c0.1-2.1,0-4.4,0-4.4
		c0-1.1,0.5-2.7,1.3-3.5l5-5.4c0.8-0.8,1.1-2.3,0.7-3.4l-2.5-7.2c-0.4-1.1-1.6-2.1-2.7-2.2l-7.6-1.2c-1.1-0.2-2.6-1-3.3-1.9
		l-4.7-5.1c-0.8-0.8-1.5-2.3-1.5-3.4l-0.3-7.6c0-1.1-0.9-2.4-1.9-2.9l-6.9-3.3c-1-0.5-2.6-0.3-3.5,0.3l-6.3,4.6
		c-0.9,0.7-2.5,1.1-3.6,0.9c0,0-1.2-0.2-2.7-0.3c-2.2-0.1-4.7,0-4.7,0c-1.1,0.1-2.7-0.5-3.5-1.2L88.7,39c-0.8-0.7-2.4-1-3.4-0.7
		L78.1,41c-1,0.4-2,1.6-2.2,2.7l-1.1,7.7c-0.2,1.1-1,2.6-1.9,3.3L68.2,59c-0.8,0.8-2.3,1.5-3.4,1.6L57,61.1c-1.1,0.1-2.4,1-2.8,2
		L51.1,70c-0.5,1-0.3,2.6,0.4,3.4l4.4,5.6c0.7,0.9,1.1,2.5,0.9,3.6c0,0-0.2,1.4-0.3,3c-0.1,2.3,0,4.9,0,4.9c0.1,1.1-0.5,2.7-1.3,3.5
		l-4.4,4.5c-0.8,0.8-1.1,2.3-0.8,3.4l2.3,7.2c0.3,1.1,1.5,2.1,2.6,2.3l7.1,1.3c1.1,0.2,2.6,1.1,3.2,1.9l5.1,5.6
		c0.8,0.8,1.5,2.3,1.5,3.4l0.1,6.9c0,1.1,0.9,2.4,1.8,2.9l6.8,3.5c1,0.5,2.5,0.4,3.5-0.2l6.5-4.5c0.9-0.6,2.6-1,3.7-0.9
		c0,0,1,0.1,2.4,0.2c2.9,0.2,6.9-0.1,6.9-0.1c1.1-0.1,2.7,0.4,3.6,1l6.1,4.6c0.9,0.7,2.4,0.8,3.5,0.4l6.9-3.2c1-0.5,1.9-1.8,1.9-2.9
		l0.4-6.7c0.1-1.1,0.8-2.6,1.6-3.3l4.1-4c0.8-0.8,2.3-1.5,3.4-1.6l7.5-0.4c1.1-0.1,2.4-0.9,2.9-1.9l3.2-6.9c0.5-1,0.3-2.6-0.3-3.5
		L143.7,96.6z M99.3,114.2c-14.3-0.4-25.6-12.3-25.1-26.6c0.4-14.3,12.3-25.5,26.6-25.1s25.6,12.3,25.1,26.6
		C125.5,103.4,113.6,114.6,99.3,114.2z"/>
</g>
</svg>
