<?xml version="1.0" encoding="utf-8"?>
<!-- Generator: Adobe Illustrator 24.0.3, SVG Export Plug-In . SVG Version: 6.00 Build 0)  -->
<!DOCTYPE svg PUBLIC "-//W3C//DTD SVG 1.1//EN" "http://www.w3.org/Graphics/SVG/1.1/DTD/svg11.dtd" [
	<!ENTITY ns_flows "http://ns.adobe.com/Flows/1.0/">
	<!ENTITY ns_extend "http://ns.adobe.com/Extensibility/1.0/">
	<!ENTITY ns_ai "http://ns.adobe.com/AdobeIllustrator/10.0/">
	<!ENTITY ns_graphs "http://ns.adobe.com/Graphs/1.0/">
	<!ENTITY ns_vars "http://ns.adobe.com/Variables/1.0/">
	<!ENTITY ns_imrep "http://ns.adobe.com/ImageReplacement/1.0/">
	<!ENTITY ns_sfw "http://ns.adobe.com/SaveForWeb/1.0/">
	<!ENTITY ns_custom "http://ns.adobe.com/GenericCustomNamespace/1.0/">
	<!ENTITY ns_adobe_xpath "http://ns.adobe.com/XPath/1.0/">
]>
<svg version="1.1" id="레이어_1" xmlns:x="&ns_extend;" xmlns:i="&ns_ai;" xmlns:graph="&ns_graphs;"
	 xmlns="http://www.w3.org/2000/svg" xmlns:xlink="http://www.w3.org/1999/xlink" xmlns:a="http://ns.adobe.com/AdobeSVGViewerExtensions/3.0/"
	 x="0px" y="0px" viewBox="0 0 177 351" style="enable-background:new 0 0 177 351;" xml:space="preserve">
<metadata>
	<sfw  xmlns="&ns_sfw;">
		<slices></slices>
		<sliceSourceBounds  bottomLeftOrigin="true" height="350" width="176.8" x="1" y="-350.7"></sliceSourceBounds>
	</sfw>
</metadata>
<g>
	<path style="fill:#FFFFFF;" d="M123.1,195c-8.1-6.3-14.3-14.2-21-22.5c-3-3.7-13.5-17.2-18.4-8.2c-1.8,3.3,0.5,8.3,1.5,11.5
		c2.3,6.9,5.7,13.4,9.8,19.2c4.6,6.5,10.2,12.2,16.4,17.2C113.7,207.1,117.5,200.7,123.1,195z"/>
	<path style="fill:#0083BB;" d="M156.3,208.7c-0.1,0-0.3,0-0.4-0.1c-3.4-0.5-6.5-1.1-9.5-1.9c-4.3-1.2-8.3-2.7-12.3-4.7
		c-2-1-3.9-2.1-6-3.4c-1.8-1.1-3.5-2.4-5.1-3.6c-5.6,5.7-9.4,12.1-11.7,17.2c3,2.4,6.1,4.6,9.3,6.6c9.2,5.8,20.2,11.8,31.3,13.2
		c5.4,0.7,11.2-1.4,14.6-6.2c0.7-1,1.3-2,1.7-3c1.6-3.5,1.7-7.7-0.7-10.6c-0.5-0.6-1-1-1.6-1.4C163.2,209.1,159.5,209.2,156.3,208.7
		z"/>
</g>
<g>
	<path style="fill:#FFFFFF;" d="M64.2,223.1L64.2,223.1c-0.9-3.1-3.1-5.3-6-6c-3.2-0.8-6.9,0.3-9.3,2.8c-2.3,2.4-3.1,5.6-2.1,8.8
		c4.3,15.2,2.5,30.9-5.5,46.5l-1.4,2.7l15.9,8.7l1.4-2.8C67.6,263.7,70,243.3,64.2,223.1z"/>
	<path style="fill-rule:evenodd;clip-rule:evenodd;fill:#0099DA;" d="M57.5,313.1c0,0-0.2-0.3-0.3-0.4c-6.2-8.1-11.9-8.6-13.5-8.6
		c1.8-2.2,3.6-4.5,5.2-6.8c3.1-4.3,5.8-8.8,8.3-13.5c0-0.1,0.1-0.2,0.1-0.3l1.4-2.6l-15.9-8.7l-1.4,2.8c-0.2,0.3-0.3,0.6-0.5,0.9
		c-0.2,0.3-0.3,0.7-0.5,1c-0.4,0.7-0.8,1.5-1.3,2.2l-1,1.6c-3,4.9-6.6,9.7-10.6,14.4l-0.2,0.3c-1,1-2,2-2.9,2.9l-0.2,0L13.8,310
		c-2.4,2.7-0.1,8.7,2.6,11.1l3.4,3L35.3,338c4.6,4.1,9.6,9.7,16.5,8.9c4.7-0.6,8.8-6.5,10-10.8C63.9,328.2,62.3,319.7,57.5,313.1z"
		/>
</g>
<g>
	<g>
		<path style="fill:#FFFFFF;" d="M119.8,288.9l-0.1-0.3c-5.9-17.9-14-40.5-24-57.2c-3-5-8.4-5.2-12.2-3c-3.9,2.3-6.4,7.5-3.3,12.6
			c9.4,15.7,17.1,37.6,22.1,52.7l1,3l17.5-4.9L119.8,288.9z"/>
	</g>
	<path style="fill-rule:evenodd;clip-rule:evenodd;fill:#0099DA;" d="M167.1,319.9c-5.5-5.9-13.6-9.1-21.7-8.6c0,0-0.4,0-0.4,0
		c-12,1.1-14.7,7.3-14.7,7.3l-1.5-3.4c-2.8-7.8-5.4-15.7-8-23.4l-1.9-5.7l-17.5,4.9l8.8,26.5c1,2.8,2.7,8,3.2,9.7l6.1,19.5
		c1,3.5,7.3,4.7,10.8,3.7l4.3-1.3l20-5.8c5.9-1.7,13.3-3,16.3-9.3C172.9,329.7,170,323.1,167.1,319.9z"/>
</g>
<g>
	<g>
		<path style="fill:#FFFFFF;" d="M90.9,1.4C87.8,2.3,85,4.1,83,6.8c-3.4,4.8-6,13.9-4.2,19.8c0.6,2.1,2.8,0.9,5.2,0.7
			c2.9-0.3,2.3-3.3,4.6-6c3.3-3.8,6,0.7,10.8,5.6c3.8,3.9,9.8,3.7,13.4-0.5c3.6-4.2,3.5-10.7-0.3-14.6C105.2,4.2,100.5-1.4,90.9,1.4
			z"/>
		<path style="fill:#6B2F1A;" d="M97.7,20.2c0.7-0.3,1.5-0.2,2.2,0c-0.9-0.5-1.5-1.3-1.9-2.4c-0.6-2.2,0.5-4.5,2.5-5.2
			c0.9-0.3,1.9-0.2,2.7,0.2c-0.7-0.5-1.3-1.2-1.6-2.2c-0.6-2.2,1.1-4.4,3.1-5.1c0.2-0.1,1,0,1.2,0c4.3,2.9,6,5.7,6.7,6.4
			c3.8,3.9,3.9,10.5,0.3,14.6c-3.6,4.2-9.6,4.4-13.4,0.5c-1.1-1.1-3.3-3.4-4-4.1C94.5,21.8,96.4,20.7,97.7,20.2"/>
	</g>
</g>
<g>
	<path style="fill:#0099DA;" d="M70.2,267.8C70.1,267.8,70.3,267.8,70.2,267.8L70.2,267.8z"/>
	<path style="fill:#0099DA;" d="M160.3,85c-0.2-1.1-0.5-2.2-0.8-3.3c-0.2-1.1-0.5-2.3-0.8-3.4c-3.4-13.8-10.6-28.9-22-37.7
		C122,29.4,102.9,20.9,84.4,21.3l-5.9,0.1c-0.2,0-0.3,0-0.3,0c-18.4,0.3-37.3,9.4-51.5,21.2C15.5,51.8,8.8,67.1,5.9,81
		c-2.7,13.2-2.6,26.4,0.4,39.1c1,5.7,2.4,11.3,4.5,17.1c0.7,1.9,1.3,3.9,1.9,5.8c0.1,0.9,0.1,1.8,0.1,2.8c0.1,4.4-1.8,8.6-2.9,12.8
		c-2.8,10.9-6.9,21.6-8.4,32.9c-1.9,14.4,0.3,34,8.4,46.3c11.2,17,32.2,25.9,51.6,28.9c2.8,0.4,5.8,0.8,8.6,1l5.8,0.4
		c0.1,0,0.2,0,0.3,0c2.8,0.2,5.7,0.3,8.6,0.3c23.8-0.1,48.2-6.9,59.9-29.5c8.6-16.5,9.2-35.2,7.7-53.4c-0.8-9.8-5.2-22.1-2.4-31.8
		c0,0,0,0,0,0l0.3-0.1c0.2-0.8,0.4-1.8,0.8-2.9c0.3-0.6,0.5-1.2,0.8-1.8l-0.2,0c1.8-4.9,4.6-10.8,5.8-14.3
		C163.1,118.7,164.1,101.8,160.3,85z"/>
	<path style="fill:#0099DA;" d="M84.4,21.3c0,0-0.1,0-0.3,0L84.4,21.3z"/>
</g>
<path style="fill-rule:evenodd;clip-rule:evenodd;fill:#FFFFFF;" d="M158.6,77.7c-0.2-2.2-0.9-8.1-1.2-10c-0.9-4.9-2.5-9.7-4.7-14.1
	c-5-9.8-15-17-24.1-21.3c-5.6-2.6-10.6-4.1-16.8-4.9c-7.7-1-10.9-1.1-18.4,1.1c-8.9,2.7-10.1,9.9-14.8,21.5
	c-3.1,7.7-4.3,11.9-5.2,20.5l0.2,0c-0.2,1.5-1,6.6-0.1,19.6c0.5,7.7,2.1,20.6,4.5,27.8c2.2,6.6,7.2,30.4,23.7,30.7
	c10.7,0.2,13.2,0.4,23.9-0.2c2.3-0.1,4.6-0.2,6.9-0.4c16.5-0.9,34.2-8.9,41.4-27.5c2.7-7.1,3.9-15.3,2.7-22.9
	c-0.8-4.9-1.6-6.7-3.9-11.1c-2.5-4.9-5.6-7.1-14.7-9.1"/>
<g>
	<g>
		<path style="fill-rule:evenodd;clip-rule:evenodd;" d="M176.6,88.6c0,1.4-0.3,2.6-1.6,2.6c-1.4,0-3-1.3-3-2.7
			c0-1.4,0.8-2.3,2.2-2.4C175.5,86.1,176.6,87.2,176.6,88.6"/>
		<g>
			<path style="fill-rule:evenodd;clip-rule:evenodd;" d="M152.6,87.6L152.6,87.6c-1.9,0.1-3.5-1.6-3.7-4l0-0.6
				c-0.2-2.3,0.6-4.4,3.1-4.5c1.9,0,3,1.9,3.1,4.3l0,0.6C155.2,85.7,154.5,87.4,152.6,87.6"/>
		</g>
	</g>
	
		<path style="fill-rule:evenodd;clip-rule:evenodd;fill:none;stroke:#251714;stroke-width:3.353;stroke-linecap:round;stroke-linejoin:round;stroke-miterlimit:10;" d="
		M176.1,102.6c-4,4.2-12.3,5.9-17.7,1.8c-1.4-1.1-3.9-3.5-2.7-4.9"/>
</g>
<path style="fill-rule:evenodd;clip-rule:evenodd;fill:#F5B6B5;" d="M144.4,102.7c0.2,10.8-8,19.8-18.3,19.9
	c-10.3,0.2-18.8-8.5-19-19.3c-0.2-10.8,8-19.7,18.3-19.9S144.2,91.8,144.4,102.7"/>
<g>
	<g>
		<path style="fill:#FFFFFF;" d="M53,1.8c4.6,0.8,8.7,2.7,12,6.2c5.5,5.9,7.9,14.7,6.1,23c-0.6,2.9-3.8,3.5-7.3,3.6
			c-4.1,0.1-3.7-3-7.4-6.2c-5.2-4.6-6.4,1.8-12.6,9c-5,5.8-13.6,6.3-19.2,1.2c-5.7-5.1-6.3-13.9-1.4-19.7C32.7,7.6,39-0.7,53,1.8z"
			/>
		<path style="fill:#6B2F1A;" d="M45.4,28c-1.1-0.3-2.1-0.1-3.1,0.3c1.2-0.8,2-2,2.3-3.5c0.6-3-1.3-6-4.2-6.7
			c-1.4-0.3-2.7,0-3.8,0.7c1-0.8,1.8-1.9,2-3.2c0.6-3-2.1-5.8-5-6.5c-0.3-0.1-1.4,0.1-1.7,0.1c-5.8,4.5-7.9,8.5-8.7,9.6
			c-4.9,5.8-4.3,14.6,1.4,19.7c5.7,5.1,14.3,4.6,19.2-1.2c1.5-1.7,4.3-5,5.2-6.1C50.2,29.7,47.4,28.5,45.4,28"/>
	</g>
</g>
<g>
	<path style="fill:#FFFFFF;" d="M49.4,196.6c8.1-7.4,17.5-12.4,27.4-17.8c4.4-2.4,20.5-11,12-17.8c-3.1-2.5-8.8-1.1-12.3-0.5
		c-7.7,1.2-15,3.5-21.9,6.7c-7.7,3.6-14.7,8.4-21,14C38.5,184.5,44.5,189.7,49.4,196.6z"/>
	<path style="fill:#0083BB;" d="M28.9,228.9c0-0.1,0.1-0.3,0.1-0.4c1.1-3.5,2.4-6.6,3.8-9.6c2-4.3,4.4-8.2,7.2-12
		c1.4-1.9,3-3.7,4.7-5.6c1.5-1.7,3.1-3.2,4.7-4.7c-5-6.9-11-12.1-15.8-15.4c-3.1,2.7-6,5.5-8.7,8.6c-7.8,8.6-16.1,19-19.6,30.3
		c-1.7,5.5-0.6,12,3.8,16.4c0.9,0.9,1.9,1.7,2.8,2.4c3.4,2.3,7.8,3.2,11.3,1.2c0.7-0.4,1.2-0.9,1.7-1.5
		C27.2,236,27.8,232.2,28.9,228.9z"/>
</g>
</svg>
