<?xml version="1.0" encoding="utf-8"?>
<!-- Generator: Adobe Illustrator 26.0.3, SVG Export Plug-In . SVG Version: 6.00 Build 0)  -->
<svg version="1.1" id="레이어_1" xmlns="http://www.w3.org/2000/svg" xmlns:xlink="http://www.w3.org/1999/xlink" x="0px"
	 y="0px" viewBox="0 0 390 390" style="enable-background:new 0 0 390 390;" xml:space="preserve">
<style type="text/css">
	.st0{fill:#00A200;}
	.st1{fill:#006600;}
	.st2{fill:#FFCE00;}
	.st3{fill:#FF7C00;}
	.st4{fill-rule:evenodd;clip-rule:evenodd;}
	.st5{fill:#00B839;}
	.st6{fill:#2F8BFF;}
	.st7{fill:#FFFFFF;}
	.st8{fill:#A90718;}
	.st9{fill:#A5E3FF;}
</style>
<g>
	<g>
		<path class="st0" d="M202.1,23.3c2-1.8,3.7-3.9,4.8-6.3c0.8-2,1.2-4.2,0.5-6.2c-1-2.5-3.7-4.1-6.5-4.2s-5.4,0.8-7.8,2
			c-3.8,1.9-7.4,4.6-9.7,8.2c-1.7,2.6-2.6,5.7-2.6,8.7c0.1,3.2,1.1,4,4.1,4.1C191.1,29.7,197.4,27.4,202.1,23.3z"/>
		<path d="M185.5,31.3c-0.2,0-0.4,0-0.6,0c-4.1-0.1-5.8-1.8-5.9-5.8c-0.1-3.3,1-6.8,2.9-9.7c2.3-3.6,5.8-6.6,10.4-8.9
			c3.3-1.7,6.1-2.4,8.7-2.2c3.7,0.2,6.8,2.3,8,5.4c0.9,2.2,0.7,4.9-0.5,7.6c-1.1,2.5-2.8,4.9-5.3,7l0,0
			C198.4,28.9,192,31.3,185.5,31.3z M200.2,8.3c-1.8,0-3.9,0.6-6.3,1.8c-4,2-7,4.6-9,7.6c-1.5,2.4-2.3,5.1-2.3,7.7
			c0,2.1,0.2,2.2,2.4,2.3c5.8,0.2,11.6-2,15.9-5.8l0,0c2-1.8,3.5-3.7,4.3-5.7c0.5-1.1,1.1-3.1,0.4-4.8c-0.8-2-3-3-4.9-3.1
			C200.6,8.3,200.4,8.3,200.2,8.3z M202.1,23.3L202.1,23.3L202.1,23.3z"/>
	</g>
	<g>
		<path class="st1" d="M186,25.6c-0.3,0-0.7-0.1-1-0.3c-0.8-0.6-1-1.7-0.5-2.5c0.3-0.4,7-10.3,16.5-12.2c1-0.2,1.9,0.4,2.1,1.4
			c0.2,1-0.4,1.9-1.4,2.1c-8,1.6-14.1,10.5-14.2,10.6C187.2,25.3,186.6,25.6,186,25.6z"/>
	</g>
	<g>
		<path class="st0" d="M162.2,23.3c-2-1.8-3.7-3.9-4.8-6.3c-0.8-2-1.2-4.2-0.5-6.2c1-2.5,3.7-4.1,6.5-4.2s5.4,0.8,7.8,2
			c3.8,1.9,7.4,4.6,9.7,8.2c1.7,2.6,2.6,5.7,2.6,8.7c-0.1,3.2-1.1,4-4.1,4.1C173.1,29.7,166.9,27.4,162.2,23.3z"/>
		<path d="M178.8,31.3c-6.5,0-12.9-2.4-17.8-6.7c0,0,0,0,0,0c-2.4-2.1-4.2-4.5-5.3-7c-1.2-2.7-1.3-5.4-0.5-7.6c1.2-3,4.3-5.1,8-5.4
			c2.6-0.2,5.4,0.5,8.7,2.2c4.6,2.3,8.1,5.3,10.4,8.9c1.9,3,2.9,6.4,2.9,9.7c-0.1,4.1-1.8,5.8-5.9,5.8
			C179.2,31.3,179,31.3,178.8,31.3z M163.4,21.9c4.3,3.8,10.1,5.9,15.9,5.8c2.2,0,2.3-0.2,2.4-2.3c0-2.6-0.8-5.3-2.3-7.7
			c-1.9-3-5-5.6-9-7.6c-2.7-1.4-4.9-1.9-6.9-1.8c-1.9,0.1-4.1,1.1-4.9,3.1c-0.7,1.7,0,3.8,0.4,4.8C160,18.2,161.4,20.1,163.4,21.9
			L163.4,21.9z"/>
	</g>
	<g>
		<path class="st1" d="M178.2,25.6c-0.6,0-1.2-0.3-1.5-0.8c-0.1-0.1-6.2-9-14.2-10.6c-1-0.2-1.6-1.1-1.4-2.1c0.2-1,1.1-1.6,2.1-1.4
			c9.5,1.9,16.2,11.7,16.5,12.2c0.6,0.8,0.3,2-0.5,2.5C178.9,25.5,178.6,25.6,178.2,25.6z"/>
	</g>
	<g>
		<path class="st2" d="M183.5,49.8c0,0-2.4-14.2-1.4-20.9"/>
		<path d="M181.7,50.1c-0.1-0.6-2.4-14.5-1.4-21.5l3.6,0.6c-1,6.3,1.3,20.2,1.4,20.3L181.7,50.1z"/>
	</g>
</g>
<g>
	<g>
		<g>
			<rect x="148.4" y="274.4" class="st3" width="20.5" height="87.9"/>
		</g>
		<g>
			<path d="M170.7,364.1h-24.2v-91.5h24.2V364.1z M150.2,360.5h16.9v-84.2h-16.9V360.5z"/>
		</g>
	</g>
	<g>
		<g>
			<path class="st3" d="M177.5,357.1c0-14.4-12.1-25.9-26.7-25c-13.3,0.9-23.4,12.5-23.4,25.8v0c0,7.1,5.8,12.9,12.9,12.9h24.2
				c7.1,0,12.9-5.8,12.9-12.9V357.1z"/>
		</g>
		<g>
			<path d="M164.6,372.7h-24.2c-8.1,0-14.7-6.6-14.7-14.7c0-14.6,11-26.7,25.1-27.6c7.5-0.5,14.7,2.1,20.1,7.2
				c5.4,5.1,8.5,12.2,8.5,19.6v0.9C179.3,366.1,172.7,372.7,164.6,372.7z M152.5,333.9c-0.5,0-1,0-1.6,0.1
				c-12.2,0.8-21.7,11.3-21.7,24c0,6.1,5,11.1,11.1,11.1h24.2c6.1,0,11.1-5,11.1-11.1v-0.9c0-6.5-2.6-12.5-7.3-16.9
				C164,336.1,158.4,333.9,152.5,333.9z"/>
		</g>
	</g>
</g>
<g>
	<g>
		<g>
			<rect x="195.6" y="272.8" class="st3" width="20.5" height="88.1"/>
		</g>
		<g>
			<path d="M218,362.7h-24.2V271H218V362.7z M197.4,359h16.9v-84.5h-16.9V359z"/>
		</g>
	</g>
	<g>
		<g>
			<path class="st3" d="M236.8,357.1c0-14.4-12.1-25.9-26.7-25c-13.3,0.9-23.4,12.5-23.4,25.8v0c0,7.1,5.8,12.9,12.9,12.9h24.2
				c7.1,0,12.9-5.8,12.9-12.9V357.1z"/>
		</g>
		<g>
			<path d="M223.9,372.7h-24.2c-8.1,0-14.7-6.6-14.7-14.7c0-14.6,11-26.7,25.1-27.6c7.5-0.5,14.7,2.1,20.1,7.2
				c5.4,5.1,8.5,12.2,8.5,19.6v0.9C238.6,366.1,232,372.7,223.9,372.7z M211.8,333.9c-0.5,0-1,0-1.6,0.1
				c-12.2,0.8-21.7,11.3-21.7,24c0,6.1,5,11.1,11.1,11.1h24.2c6.1,0,11.1-5,11.1-11.1v-0.9c0-6.5-2.6-12.5-7.3-16.9
				C223.3,336.1,217.7,333.9,211.8,333.9z"/>
		</g>
	</g>
</g>
<g>
	<g>
		<g>
			<path class="st2" d="M185.3,305.4c-12.2,0-22.2-1.1-31.4-3.4c-14.5-3.6-26.7-10.5-35.3-19.8c-14.6-15.9-20.2-41.3-14.9-67.9
				c0.4-2.3,1-4.5,1.5-6.8c1.5-6.5,3-13.1,2.8-19.7c-0.2-7.5-2.5-14.6-5-22.1c-1-3.2-2.1-6.5-3-9.7c-6.2-23-3.2-47.6,8.2-67.3
				c14.2-24.7,42.8-40.1,74.5-40.1c25.2,0,48.7,9.7,64.5,26.5c18,19.2,25.4,48.6,19.3,76.7c-0.7,3.4-1.7,6.9-2.6,10.2
				c-1.6,6-3.4,12.2-3.9,18.5c-0.4,4.9-0.2,10.2,0.8,16.6c0.7,4.6,1.7,9.3,2.6,13.8c0.8,3.9,1.7,8,2.4,12c4.5,27.1-1.3,50.6-16,64.6
				c-15.3,14.6-37.7,17.2-55.5,17.8C191.2,305.3,188.3,305.4,185.3,305.4z"/>
		</g>
	</g>
	<g>
		<g>
			<path d="M182.6,50.4c23.4,0,46.9,8.6,63.2,25.9c18.4,19.6,24.6,48.9,18.9,75.1c-2.1,9.7-5.7,19.1-6.5,28.9
				c-0.5,5.7-0.1,11.4,0.8,17c1.3,8.6,3.6,17.2,5,25.8c3.7,22.2,0.9,47.4-15.4,63c-14.1,13.4-34.9,16.6-54.4,17.3
				c-2.9,0.1-5.9,0.2-8.8,0.2c-10.4,0-20.8-0.8-30.9-3.3c-12.9-3.2-25.4-9.5-34.4-19.3c-15.9-17.3-19-43.3-14.5-66.3
				c1.8-8.9,4.6-17.8,4.3-26.9c-0.3-11.1-5.1-21.5-8-32.2c-5.9-21.9-3.4-46.2,8-65.9C124.7,63.6,153.6,50.4,182.6,50.4 M182.6,46.8
				c-32.4,0-61.5,15.7-76,41C95,107.9,92,132.9,98.2,156.4c0.9,3.3,2,6.6,3,9.8c2.4,7.4,4.7,14.3,4.9,21.6
				c0.2,6.4-1.2,12.6-2.7,19.3c-0.5,2.3-1,4.6-1.5,6.9c-5.4,27.2,0.4,53.2,15.4,69.5c8.8,9.6,21.4,16.6,36.2,20.3
				c9.2,2.3,19.6,3.4,31.8,3.4c2.8,0,5.8-0.1,9-0.2c18.1-0.7,41-3.3,56.7-18.3c15.1-14.4,21.1-38.5,16.5-66.2c-0.7-4-1.5-8.1-2.4-12
				c-1-4.5-1.9-9.2-2.6-13.7c-0.9-6.2-1.2-11.3-0.8-16.1c0.5-6.1,2.1-11.9,3.8-18.1c0.9-3.4,1.9-6.8,2.6-10.3
				c6.2-28.7-1.3-58.8-19.8-78.4C232.3,56.6,208.3,46.8,182.6,46.8L182.6,46.8z"/>
		</g>
	</g>
</g>
<g>
	<g>
		<g>
			<g>
				<g>
					<g>
						<path class="st4" d="M202.4,140.5L202.4,140.5c-4,0-7.2-3-7.2-6.7v-0.9c0-3.7,3.2-6.7,7.2-6.7c4,0,7.2,3,7.2,6.7v0.9
							C209.6,137.5,206.4,140.5,202.4,140.5"/>
					</g>
				</g>
			</g>
			<g>
				<g>
					<g>
						<path class="st4" d="M162.9,140.5L162.9,140.5c-4,0-7.2-3-7.2-6.7v-0.9c0-3.7,3.2-6.7,7.2-6.7s7.2,3,7.2,6.7v0.9
							C170.2,137.5,166.9,140.5,162.9,140.5"/>
					</g>
				</g>
			</g>
		</g>
	</g>
</g>
<g>
	<g>
		<g>
			<path class="st5" d="M104.5,173.6c0,0,88.8,74.7,161.6,81.6c0,0-0.9,13.7-4.6,19.2c0,0-110.1-27.6-157.9-83.1L104.5,173.6z"/>
		</g>
		<g>
			<path d="M261.5,276.2c-0.1,0-0.3,0-0.4-0.1c-1.1-0.3-111.2-28.4-158.8-83.7c-0.3-0.4-0.5-0.8-0.4-1.3l0.9-17.7
				c0-0.7,0.5-1.3,1.1-1.6c0.6-0.3,1.4-0.2,1.9,0.3c0.9,0.7,89.3,74.5,160.6,81.2c1,0.1,1.7,0.9,1.6,1.9c0,0.6-1,14.3-4.9,20.1
				C262.7,275.9,262.1,276.2,261.5,276.2z M105.5,190.7c44.3,50.8,142.6,78.3,155.2,81.6c2-4,3.1-11.3,3.5-15.5
				c-64.9-7.1-142.5-67-158-79.5L105.5,190.7z"/>
		</g>
	</g>
	<g>
		<g>
			<path class="st6" d="M274.5,251.7c1.7,0,3.4,0,4.9,0.7c2,0.8,3.4,2.6,4.4,4.5c3.7,7,2.6,15.6,0.9,23.4
				c-1.5,6.8-3.5,13.7-7.2,19.7c-3.7,6-9.3,11-16.1,12.7c-6.8,1.7-14.8-0.5-18.8-6.3c-2.7-3.8-3.4-8.7-3.5-13.4
				c-0.4-12.6,2.9-25.8,11.2-35.3C257.1,250,265.2,251.7,274.5,251.7z"/>
		</g>
		<g>
			<path d="M256.8,315c-6.3,0-12.3-2.8-15.6-7.6c-3.1-4.5-3.7-10-3.8-14.4c-0.4-14.4,3.7-27.4,11.6-36.5c6.2-7.1,13.5-6.9,21.3-6.7
				c1.4,0,2.8,0.1,4.2,0.1c1.7,0,3.7,0,5.6,0.8c2.1,0.9,3.9,2.7,5.3,5.3c4.1,7.6,2.8,16.8,1.1,24.7c-1.4,6.4-3.4,13.8-7.4,20.2
				c-4.3,7-10.5,11.8-17.2,13.5C260.2,314.8,258.5,315,256.8,315z M266.3,253.3c-5.7,0-10.4,0.8-14.5,5.5
				c-7.3,8.5-11.2,20.6-10.8,34c0.1,3.8,0.6,8.7,3.2,12.4c3.3,4.8,10.4,7.1,16.8,5.5c5.7-1.4,11.2-5.8,15-11.9
				c3.7-6,5.6-13,6.9-19.1c1.6-7.3,2.8-15.6-0.7-22.2c-1-1.9-2.2-3.1-3.5-3.7c-1.2-0.5-2.8-0.5-4.2-0.5h0c-1.5,0-2.9,0-4.3-0.1
				C268.9,253.4,267.5,253.3,266.3,253.3z"/>
		</g>
	</g>
	<g>
		<g>
			<path class="st7" d="M271.6,265.7c-3.8-0.4-10.2-2-13.2-0.6c-2.1,0.9-3.6,5.6-0.6,6.3c7.5,1.8,15.4,2,23.1,1.5
				c2.9-0.2,6.9-2.6,3.4-5.1c-2.8-2-8.6-1.8-11.8-2C272.2,265.7,271.9,265.7,271.6,265.7z"/>
		</g>
		<g>
			<path d="M273.7,274.9c-6,0-11.4-0.6-16.4-1.8c-1.7-0.4-2.9-1.7-3-3.6c-0.2-2.4,1.3-5.3,3.3-6.2c2.8-1.3,7.4-0.6,11.4,0.1
				c1,0.2,2,0.3,2.8,0.4c0.3,0,0.6,0.1,0.8,0.1c0.5,0,1.2,0.1,1.9,0.1c3.6,0.1,8.1,0.3,10.8,2.2c2.3,1.7,2.3,3.5,2,4.4
				c-0.7,2.3-3.8,3.8-6.3,4C278.5,274.8,276,274.9,273.7,274.9z M261.7,266.3c-1.1,0-2,0.1-2.6,0.4c-0.5,0.2-1.3,1.6-1.2,2.5
				c0,0.3,0.1,0.3,0.3,0.4c6.6,1.6,14,2,22.6,1.4c1.5-0.1,2.9-0.9,3.1-1.3c0,0.1-0.2-0.2-0.6-0.5c-1.8-1.3-6.1-1.5-8.9-1.6
				c-0.7,0-1.4-0.1-2-0.1c-0.3,0-0.6-0.1-1-0.1l0,0c-0.9-0.1-1.9-0.3-3-0.4C266.3,266.7,263.7,266.3,261.7,266.3z"/>
		</g>
	</g>
	<g>
		<g>
			<path class="st6" d="M284.6,269.3c-0.4,0-0.9-0.1-1.2,0.2c-0.2,0.2-0.3,0.6-0.3,0.9c-0.6,6-0.4,12.1,0.5,18.1
				c0.1,0.7,0.3,1.4,0.8,1.8c0.4,0.3,0.9,0.3,1.4,0.3c1.2,0,2.4,0,3.6,0c0.8,0,1.6,0,2.3-0.4c1.5-0.9,1.5-3,1.2-4.6
				c-0.6-4-1.4-7.8-2.6-11.7C289.4,270.1,288.8,269.7,284.6,269.3z"/>
		</g>
		<g>
			<path d="M289.8,292.5c-0.1,0-0.2,0-0.3,0l-3.6,0c-0.6,0-1.5,0-2.4-0.6c-1.3-0.9-1.5-2.3-1.6-3.1c-0.9-6.1-1.1-12.4-0.5-18.5
				c0-0.4,0.1-1.3,0.9-2.1c0.9-0.9,2.1-0.8,2.6-0.7c0,0,0,0,0,0c4.9,0.5,6.1,1.5,7.4,6c1.2,4,2,8,2.6,11.9c0.5,3.2-0.2,5.4-2.1,6.5
				C291.7,292.5,290.6,292.5,289.8,292.5z M284.9,271.2c-0.5,5.8-0.3,11.5,0.5,17.1c0.1,0.3,0.1,0.5,0.1,0.6c0-0.1,0.2-0.1,0.3-0.1
				l3.6,0c0.5,0,1.1,0,1.4-0.2c0.3-0.2,0.6-1,0.3-2.8c-0.5-3.7-1.4-7.6-2.5-11.4C287.9,271.6,287.9,271.5,284.9,271.2z"/>
		</g>
	</g>
</g>
<g>
	<g>
		<path class="st2" d="M164.6,52.1c0,0,6.5-16.1,17.5-12.5c14.6,4.7,17.6-5.4,17.6-5.4s4.8,17.9-11.2,24.6"/>
	</g>
	<g>
		<path d="M188.5,60.6c-0.7,0-1.4-0.4-1.7-1.1c-0.4-0.9,0.1-2,1-2.4c9.7-4.1,11-12.7,10.8-18c-0.7,0.7-1.6,1.4-2.7,1.9
			c-3.8,2-8.6,2.1-14.3,0.2c-9.3-3-15.2,11.4-15.3,11.5c-0.4,0.9-1.4,1.4-2.4,1c-0.9-0.4-1.4-1.4-1-2.4c0.3-0.7,7.3-17.6,19.8-13.6
			c4.8,1.5,8.6,1.6,11.5,0.1c3-1.5,3.8-4.2,3.8-4.3c0.2-0.8,1-1.3,1.8-1.3c0.8,0,1.5,0.6,1.7,1.3c0.1,0.2,5,19.5-12.2,26.8
			C189,60.6,188.8,60.6,188.5,60.6z"/>
	</g>
</g>
<g>
	<g>
		<path class="st2" d="M109.7,200c16.6,13.1,40.9,15.4,59.8,5.9c3.5-1.8,7.3-4,11.1-2.7c1.5,0.5,2.8,1.6,3.9,2.8
			c3.4,4,4.5,9.6,3.9,14.8c-0.7,5.2-2.9,10.1-5.6,14.6c-7.7,13.2-19.5,24.6-34.2,29c-5.5,1.6-11.6,2.2-16.9-0.2"/>
	</g>
	<g>
		<path d="M139.6,267.5c-3.2,0-6.1-0.6-8.7-1.8c-0.9-0.4-1.3-1.5-0.9-2.4c0.4-0.9,1.5-1.3,2.4-0.9c5.2,2.4,11.3,1.4,15.6,0.1
			c13-3.8,24.8-13.8,33.2-28.1c3.2-5.4,4.8-9.7,5.4-13.9c0.7-5.2-0.6-10.1-3.4-13.4c-1-1.2-2-1.9-3.1-2.3c-2.7-0.9-5.9,0.7-9,2.3
			l-0.7,0.4c-19.6,9.9-44.4,7.5-61.7-6.1c-0.8-0.6-0.9-1.8-0.3-2.5c0.6-0.8,1.8-0.9,2.5-0.3c16,12.5,39.7,14.9,57.8,5.7l0.7-0.4
			c3.5-1.8,7.6-3.9,11.8-2.5c1.7,0.6,3.2,1.7,4.7,3.3c3.5,4.1,5.1,10,4.3,16.2c-0.8,6.1-3.7,11.7-5.8,15.3
			c-8.8,15.1-21.4,25.7-35.3,29.8C145.6,267.1,142.5,267.5,139.6,267.5z"/>
	</g>
</g>
<g>
	<g>
		<path class="st2" d="M255.5,200c-16.6,13.1-40.9,15.4-59.8,5.9c-3.5-1.8-7.3-4-11.1-2.7c-1.5,0.5-2.8,1.6-3.9,2.8
			c-3.4,4-4.5,9.6-3.9,14.8c0.7,5.2,2.9,10.1,5.6,14.6c7.7,13.2,19.5,24.6,34.2,29c17.7,5.2,34-6.1,43.6-20.2"/>
	</g>
	<g>
		<path d="M225.7,267.4c-3.1,0-6.2-0.4-9.4-1.4c-13.9-4.1-26.4-14.7-35.3-29.8c-2.1-3.6-5-9.2-5.8-15.3c-0.8-6.2,0.8-12.1,4.3-16.2
			c1.4-1.6,3-2.8,4.7-3.3c4.2-1.4,8.2,0.7,11.8,2.5l0.7,0.4c18.1,9.2,41.9,6.8,57.8-5.7c0.8-0.6,1.9-0.5,2.5,0.3
			c0.6,0.8,0.5,1.9-0.3,2.5c-17.3,13.6-42.1,16-61.7,6.1l-0.7-0.4c-3.1-1.6-6.2-3.2-9-2.3c-1.1,0.3-2.1,1.1-3.1,2.3
			c-2.9,3.3-4.1,8.2-3.4,13.4c0.7,5.5,3.4,10.6,5.4,13.9c8.4,14.3,20.2,24.3,33.2,28.1c17.3,5.1,32.9-6.7,41.6-19.5
			c0.6-0.8,1.7-1,2.5-0.5c0.8,0.6,1,1.7,0.5,2.5C254,256.6,240.9,267.4,225.7,267.4z"/>
	</g>
</g>
<g>
	<g>
		<g>
			<rect x="174.6" y="152.5" class="st8" width="17.1" height="10.5"/>
		</g>
		<g>
			<path d="M193.4,164.9h-20.7v-14.2h20.7V164.9z M176.4,161.3h13.4v-6.9h-13.4V161.3z"/>
		</g>
	</g>
	<g>
		<g>
			<path class="st3" d="M191.2,160.8c1.9,0,3.1,2.1,2.1,3.7c-1.7,2.7-4.8,5.9-10.2,5.9c-5.3,0-8.8-3.1-10.8-5.8
				c-1.2-1.6,0-3.9,2-3.9H191.2z"/>
		</g>
		<g>
			<path d="M183,172.3c-6.1,0-10-3.5-12.2-6.5c-1-1.3-1.1-3-0.4-4.4c0.7-1.5,2.2-2.4,3.8-2.4h17c1.5,0,3,0.8,3.7,2.2
				c0.8,1.4,0.7,3-0.1,4.3C192.9,168.6,189.3,172.3,183,172.3z M174.2,162.6c-0.3,0-0.5,0.2-0.6,0.4c-0.1,0.2-0.1,0.4,0.1,0.6
				c1.7,2.3,4.8,5,9.4,5c3.7,0,6.6-1.7,8.7-5.1c0.2-0.3,0.1-0.5,0-0.6c-0.1-0.1-0.2-0.3-0.5-0.3H174.2z"/>
		</g>
	</g>
	<g>
		<g>
			<path class="st3" d="M170.5,158.4c-2.7,0-4.4-3-3-5.3c2.4-3.9,6.9-8.5,14.7-8.5c7.6,0,12.6,4.4,15.5,8.3c1.7,2.3,0.1,5.6-2.8,5.6
				c0,0-5.1-3.4-12.9-2.9S170.5,158.4,170.5,158.4z"/>
		</g>
		<g>
			<path d="M194.9,160.2h-0.5l-0.5-0.3c0,0-4.8-3-11.8-2.6c-7.1,0.4-10.6,2.6-10.6,2.6l-0.4,0.3l-0.5,0c-2,0-3.7-1-4.6-2.7
				c-1-1.7-0.9-3.7,0.1-5.4c2.6-4.3,7.6-9.4,16.2-9.4c8.4,0,13.9,4.9,17,9c1.2,1.6,1.4,3.7,0.5,5.5
				C198.7,159.1,196.9,160.2,194.9,160.2z M182.2,146.4c-6.9,0-11,4.2-13.1,7.7c-0.5,0.8-0.2,1.4,0,1.7c0.1,0.2,0.4,0.7,1.1,0.8
				c1.4-0.7,5.3-2.4,11.8-2.8c6.9-0.4,11.8,1.9,13.4,2.8c0.7-0.2,1-0.7,1.1-0.9c0.1-0.3,0.4-1-0.2-1.7
				C193.6,150.5,189.1,146.4,182.2,146.4z"/>
		</g>
	</g>
</g>
<g>
	<g>
		<path class="st9" d="M217.2,144.9c0.2,2-0.2,4,0.1,6c0.3,2,1.5,4,3.5,4.3c1.7,0.2,3.4-1.2,4.1-2.8s0.6-3.5,0.5-5.2"/>
	</g>
	<g>
		<path d="M221.2,157c-0.2,0-0.4,0-0.6,0c-3-0.4-4.7-3.3-5.1-5.8c-0.2-1.2-0.1-2.4-0.1-3.5c0-0.9,0.1-1.7,0-2.6
			c-0.1-1,0.6-1.9,1.6-2c1-0.1,1.9,0.6,2,1.6c0.1,1.1,0.1,2.1,0,3.1c0,1-0.1,1.9,0.1,2.8c0.2,1.3,1,2.6,1.9,2.7
			c0.8,0.1,1.7-0.7,2.2-1.7c0.5-1.2,0.5-2.7,0.3-4.4c-0.1-1,0.7-1.9,1.7-1.9c0.9,0,1.9,0.7,1.9,1.7c0.1,2.1,0.2,4.1-0.6,6
			C225.7,155.1,223.6,157,221.2,157z"/>
	</g>
</g>
</svg>
