<?xml version="1.0" encoding="utf-8"?>
<!-- Generator: Adobe Illustrator 26.5.0, SVG Export Plug-In . SVG Version: 6.00 Build 0)  -->
<svg version="1.1" id="레이어_1" xmlns="http://www.w3.org/2000/svg" xmlns:xlink="http://www.w3.org/1999/xlink" x="0px"
	 y="0px" viewBox="0 0 232 158" style="enable-background:new 0 0 232 158;" xml:space="preserve">
<g>
	<g>
		<g>
			<rect x="9.8" y="9.9" style="fill:#B649FF;" width="65.6" height="66.1"/>
		</g>
		<g>
			<path style="fill:#7F21B6;" d="M75.4,80.2H9.8c-2.3,0-4.2-1.9-4.2-4.2c0-2.3,1.9-4.2,4.2-4.2h61.4V9.9c0-2.3,1.9-4.2,4.2-4.2
				s4.2,1.9,4.2,4.2V76C79.6,78.3,77.7,80.2,75.4,80.2z"/>
		</g>
		<g>
			<path style="fill:#DB8EFF;" d="M9.8,80.2c-2.3,0-4.2-1.9-4.2-4.2V9.9c0-2.3,1.9-4.2,4.2-4.2h65.6c2.3,0,4.2,1.9,4.2,4.2
				s-1.9,4.2-4.2,4.2H14V76C14,78.3,12.2,80.2,9.8,80.2z"/>
		</g>
	</g>
	<g>
		<g>
			<rect x="83.2" y="9.9" style="fill:#B649FF;" width="65.6" height="66.1"/>
		</g>
		<g>
			<path style="fill:#7F21B6;" d="M148.8,80.2H83.2c-2.3,0-4.2-1.9-4.2-4.2c0-2.3,1.9-4.2,4.2-4.2h61.4V9.9c0-2.3,1.9-4.2,4.2-4.2
				c2.3,0,4.2,1.9,4.2,4.2V76C153,78.3,151.1,80.2,148.8,80.2z"/>
		</g>
		<g>
			<path style="fill:#DB8EFF;" d="M83.2,80.2c-2.3,0-4.2-1.9-4.2-4.2V9.9c0-2.3,1.9-4.2,4.2-4.2h65.6c2.3,0,4.2,1.9,4.2,4.2
				s-1.9,4.2-4.2,4.2H87.4V76C87.4,78.3,85.5,80.2,83.2,80.2z"/>
		</g>
	</g>
	<g>
		<g>
			<rect x="83.2" y="82" style="fill:#B649FF;" width="65.6" height="66.1"/>
		</g>
		<g>
			<path style="fill:#7F21B6;" d="M148.8,152.3H83.2c-2.3,0-4.2-1.9-4.2-4.2c0-2.3,1.9-4.2,4.2-4.2h61.4V82c0-2.3,1.9-4.2,4.2-4.2
				c2.3,0,4.2,1.9,4.2,4.2v66.1C153,150.4,151.1,152.3,148.8,152.3z"/>
		</g>
		<g>
			<path style="fill:#DB8EFF;" d="M83.2,152.3c-2.3,0-4.2-1.9-4.2-4.2V82c0-2.3,1.9-4.2,4.2-4.2h65.6c2.3,0,4.2,1.9,4.2,4.2
				c0,2.3-1.9,4.2-4.2,4.2H87.4v61.9C87.4,150.4,85.5,152.3,83.2,152.3z"/>
		</g>
	</g>
	<g>
		<g>
			<rect x="156.6" y="9.9" style="fill:#B649FF;" width="65.6" height="66.1"/>
		</g>
		<g>
			<path style="fill:#7F21B6;" d="M222.2,80.2h-65.6c-2.3,0-4.2-1.9-4.2-4.2c0-2.3,1.9-4.2,4.2-4.2H218V9.9c0-2.3,1.9-4.2,4.2-4.2
				c2.3,0,4.2,1.9,4.2,4.2V76C226.4,78.3,224.5,80.2,222.2,80.2z"/>
		</g>
		<g>
			<path style="fill:#DB8EFF;" d="M156.6,80.2c-2.3,0-4.2-1.9-4.2-4.2V9.9c0-2.3,1.9-4.2,4.2-4.2h65.6c2.3,0,4.2,1.9,4.2,4.2
				s-1.9,4.2-4.2,4.2h-61.4V76C160.8,78.3,158.9,80.2,156.6,80.2z"/>
		</g>
	</g>
	<path d="M222.2,5.7c2.3,0,4.2,1.9,4.2,4.2V76c0,2.3-1.9,4.2-4.2,4.2h-65.6c-1.8,0-3.3-1.2-3.9-2.8c-0.2,0.6-0.5,1.1-0.9,1.5
		c0.8,0.8,1.2,1.8,1.2,3v66.1c0,2.3-1.9,4.2-4.2,4.2H83.2c-2.3,0-4.2-1.9-4.2-4.2V82c0-1.2,0.5-2.2,1.2-3c-0.4-0.4-0.7-1-0.9-1.5
		c-0.6,1.6-2.1,2.8-3.9,2.8H9.8c-2.3,0-4.2-1.9-4.2-4.2V9.9c0-2.3,1.9-4.2,4.2-4.2h65.6c1.8,0,3.3,1.2,3.9,2.8
		c0.6-1.6,2.1-2.8,3.9-2.8h65.6c1.8,0,3.3,1.2,3.9,2.8c0.6-1.6,2.1-2.8,3.9-2.8H222.2 M222.2,0h-65.6c-1.4,0-2.7,0.3-3.9,0.8
		c-1.2-0.5-2.5-0.8-3.9-0.8H83.2c-1.4,0-2.7,0.3-3.9,0.8C78.1,0.3,76.8,0,75.4,0H9.8C4.4,0,0,4.4,0,9.9V76c0,5.5,4.4,9.9,9.8,9.9
		h63.5v62.2c0,5.5,4.4,9.9,9.8,9.9h65.6c5.4,0,9.8-4.4,9.8-9.9V85.9h63.5c5.4,0,9.8-4.4,9.8-9.9V9.9C232,4.4,227.6,0,222.2,0
		L222.2,0z"/>
</g>
</svg>
