<?xml version="1.0" encoding="utf-8"?>
<!-- Generator: Adobe Illustrator 24.1.1, SVG Export Plug-In . SVG Version: 6.00 Build 0)  -->
<svg version="1.1" id="Layer_1" xmlns="http://www.w3.org/2000/svg" xmlns:xlink="http://www.w3.org/1999/xlink" x="0px" y="0px"
	 viewBox="0 0 240 240" style="enable-background:new 0 0 240 240;" xml:space="preserve">
<rect style="fill:#AC1232;" width="240" height="240"/>
<g>
	<rect y="215.53" style="fill:#E4AD6A;" width="240" height="24.47"/>
	<rect y="212.51" width="240" height="3.02"/>
</g>
<g>
	<path style="fill:#401400;" d="M157.29,163.87c-0.43,4.54-1.74,18.99-1.71,27.27l-12.38,3.44c-0.34,0.09-0.6,0.31-0.76,0.6
		c-1.22,0.12-2.38,0.69-3.28,1.63c-0.29,0.3-0.55,0.64-0.78,1.01c-2.62,0.28-5.23,0.78-8.88,1.92c-4.44,1.39-8.31,5.71-9.85,11.01
		c-0.17,0.59-0.31,1.17-0.42,1.76h-17.07c0-0.03-0.01-0.06-0.01-0.09c0-0.12-0.01-0.24-0.03-0.35c-0.09-0.82-0.25-1.65-0.46-2.47
		c-1.28-4.84-4.46-8.68-8.28-10.01c-1.57-0.55-3.16-1.02-4.76-1.45c-0.02-1.08-0.3-2.05-0.85-2.88c-0.52-0.8-1.28-1.44-2.2-1.86
		c0.01-0.52-0.29-0.99-0.77-1.18c-0.23-0.1-1.83-0.75-4.21-1.6l2.16-28.48l19.94,6l16.47,21.12l11.32-18.03L157.29,163.87z"/>
	<path style="fill:#282F33;" d="M171.01,234.04c-0.02,0.01-0.04,0.02-0.06,0.02c-0.23,0.11-0.48,0.2-0.73,0.29
		c-0.27,0.1-0.56,0.19-0.85,0.28c-1.87,0.53-3.67,0.78-5.39,0.78h-0.01c-0.27,0-0.53-0.01-0.79-0.02c-0.25-0.01-0.49-0.02-0.73-0.05
		c-0.58-0.05-1.15-0.12-1.71-0.23c-0.22-0.04-0.45-0.08-0.68-0.14c-0.25-0.05-0.5-0.11-0.75-0.18c-0.49-0.13-0.98-0.29-1.46-0.46
		v-0.01c-0.25-0.09-0.49-0.18-0.74-0.28c-0.3-0.12-0.6-0.25-0.9-0.39c-0.59-0.28-1.18-0.58-1.75-0.91
		c-0.28-0.17-0.56-0.34-0.84-0.52c-0.22-0.15-0.44-0.3-0.66-0.44c-0.43-0.3-0.85-0.61-1.27-0.95c-0.21-0.17-0.41-0.34-0.62-0.51
		c-0.24-0.21-0.48-0.42-0.71-0.62c-0.22-0.2-0.43-0.4-0.64-0.6c2.49-0.23,4.85-0.59,7.15-0.93c2.16-0.33,4.38-0.67,6.73-0.9
		c0.88-0.09,1.79-0.21,2.73-0.38c0.53,0.42,1.05,0.8,1.53,1.13C171.59,230.54,171.27,233.11,171.01,234.04z"/>
	<path style="fill:#282F33;" d="M200.5,202.28c-0.09,0.7-0.22,1.39-0.39,2.08c0,0.01,0,0.01,0,0.02c-0.18,0.69-0.38,1.37-0.62,2.05
		c0,0.01,0,0.01,0,0.02v0.01c0,0.01,0,0.01,0,0.01c-0.09,0.26-0.18,0.51-0.29,0.77c-0.14,0.34-0.28,0.68-0.43,1.02
		c-0.05,0.14-0.11,0.27-0.18,0.41c-0.24,0.53-0.5,1.06-0.78,1.59c-0.21,0.39-0.43,0.77-0.65,1.16c-0.09,0.15-0.18,0.3-0.27,0.44
		c-0.09,0.16-0.19,0.31-0.28,0.46c-0.54,0.87-1.12,1.73-1.75,2.58c-0.19,0.27-0.39,0.53-0.6,0.8c-0.29,0.37-0.58,0.74-0.88,1.11
		c-0.08,0.1-0.17,0.21-0.25,0.31c-0.14,0.16-0.27,0.32-0.4,0.48c-0.12,0.14-0.24,0.28-0.37,0.42c-1.29,1.51-2.67,2.95-4.08,4.31
		c-0.15,0.14-0.29,0.28-0.43,0.42c-0.1,0.1-0.21,0.19-0.31,0.28c-2.63,2.49-5.32,4.69-7.7,6.5c-0.21,0.16-0.43,0.33-0.64,0.48
		c-0.49,0.37-0.96,0.71-1.41,1.04c-0.58,0.42-1.13,0.81-1.65,1.16c-0.33,0.23-0.64,0.45-0.93,0.64c-0.32,0.22-0.61,0.42-0.89,0.6
		c-0.31,0.21-0.6,0.39-0.85,0.56c0.22-1.19,0.16-1.61,0.16-1.61v-0.01c-0.18-1.89-1.21-4.17-3.98-6.18
		c-0.12-0.09-0.25-0.18-0.38-0.27c-0.72-0.49-1.48-1.07-2.27-1.73c-3.77-3.19-8-8.25-10.19-13.66v-0.01
		c-0.02-0.05-0.04-0.11-0.07-0.16c0-0.01,0-0.01,0-0.02c-0.79-1.97-1.3-4-1.41-6c-0.11-1.95-0.9-3.54-2.03-4.82
		c-0.33-0.39-0.69-0.75-1.08-1.07c-0.6-0.52-1.25-0.98-1.92-1.39c-0.79-0.48-1.6-0.88-2.36-1.2l0.82-0.23l8.05-2.23l0.15-0.04
		l12.8-3.56c0.02-0.01,0.04-0.02,0.06-0.03c0.06-0.02,0.12-0.05,0.17-0.08c0.08-0.04,0.15-0.08,0.22-0.14
		c0.05-0.04,0.09-0.09,0.14-0.14c0.03-0.03,0.07-0.06,0.1-0.1c0.03-0.03,2.66-3.63,10.39,1.34c0.58,0.37,1.36,0.2,1.74-0.38
		c0.37-0.59,0.2-1.37-0.38-1.74c-0.38-0.24-0.74-0.47-1.1-0.67c-0.57-0.34-1.12-0.63-1.65-0.87c-0.35-0.17-0.69-0.32-1.02-0.45
		c-0.67-0.28-1.3-0.49-1.89-0.64c-0.15-0.04-0.3-0.08-0.44-0.11c-0.29-0.07-0.57-0.13-0.84-0.16c-0.13-0.02-0.26-0.04-0.39-0.05
		c-1.43-0.17-2.6-0.01-3.53,0.29c0.45-1.24,1.2-2.65,2.43-3.68c1.34-1.13,3.08-1.64,5.15-1.54c0.15,0.02,0.3,0.03,0.45,0.04h0.07
		c0.69,0.05,1.3-0.44,1.37-1.14c0.07-0.69-0.44-1.31-1.13-1.37c-0.31-0.03-0.62-0.05-0.92-0.05c-0.81-0.03-1.58,0.02-2.32,0.16
		c-0.43,0.07-0.83,0.17-1.23,0.3c-0.6,0.18-1.18,0.44-1.73,0.75c-0.47,0.27-0.92,0.58-1.34,0.94c-2.7,2.27-3.58,5.7-3.86,7.32
		l-10.2,2.83c0.05-8.93,1.52-24.54,1.79-27.29l7.73-2.12c2.22-0.61,4.32-1.48,6.29-2.6h0.01c1.77,1.24,3.79,2.11,5.96,2.57
		c1.13,0.24,2.28,0.36,3.43,0.36c2.06,0,4.06-0.39,5.91-1.11c0.35,0.3,0.7,0.63,1.04,0.98C201.61,172.75,202.4,187.13,200.5,202.28z
		"/>
	<path style="fill:#0087C6;" d="M163.8,224.7c-0.16,0.03-0.31,0.04-0.46,0.06c-5.64,0.57-10.36,1.66-15.82,1.98
		c-0.66,0.04-1.33,0.07-2.01,0.08c-0.35,0.01-0.71,0.02-1.06,0.04c-3.33,0.15-6.52,0.66-9.64,0.66c-1.94,0-3.86-0.2-5.77-0.8
		c-1.68-0.53-3.24-1.48-4.56-3.05c-6.67-7.9-1.09-19.38,5.77-21.53c2.83-0.89,4.95-1.35,6.99-1.65c0.92-0.12,1.81-0.21,2.75-0.29
		c1.87-0.15,3.91-0.24,6.56-0.42c1.04-0.07,2.07-0.12,3.07-0.15c1.68,1.15,3.08,2.74,3.2,4.87c0.23,4.15,1.88,8.23,4.14,11.86
		C158.96,219.59,161.43,222.46,163.8,224.7z"/>
	<path style="fill:#282F33;" d="M43.12,183.73c3.79-8.45,9.13-17.51,15.06-22.44h0.03C52.28,166.22,46.93,175.28,43.12,183.73z"/>
	<path style="fill:#FFFFFF;" d="M56.27,47.3c0-0.56,0.05-1.13,0.14-1.68C56.32,46.18,56.27,46.74,56.27,47.3z"/>
	<path style="fill:#FFFFFF;" d="M65.31,34.55c-1.92,1.47-3.73,3.1-5.42,4.82c-0.09,0.09-0.18,0.19-0.27,0.27
		C61.37,37.81,63.28,36.09,65.31,34.55z"/>
	<path style="fill:#FFFFFF;" d="M63.42,57.21c0.76,0.24,1.55,0.39,2.34,0.46C64.97,57.6,64.18,57.46,63.42,57.21z"/>
	<path style="fill:#FFFFFF;" d="M66.52,57.7c0.03,0,0.06,0,0.08,0c-0.01,0-0.02,0-0.03,0C66.55,57.7,66.54,57.7,66.52,57.7z"/>
	<path style="fill:#FFFFFF;" d="M65.78,57.67c0.25,0.02,0.49,0.03,0.74,0.03C66.27,57.7,66.03,57.69,65.78,57.67z"/>
	<path style="fill:#FFFFFF;" d="M65.76,57.67c0.01,0,0.02,0,0.03,0C65.77,57.67,65.76,57.67,65.76,57.67z"/>
	<path style="fill:#FFFFFF;" d="M70.54,56.9c2.46-2.17,4.86-4.1,7.18-5.8c-1.38,1.11-2.63,2.3-3.69,3.4
		c-1.03,1.08-2.24,1.9-3.53,2.43c-1.25,0.51-2.57,0.76-3.9,0.77c1.33,0,2.67-0.27,3.92-0.79C70.53,56.91,70.53,56.91,70.54,56.9z"/>
	<path style="fill:#FFFFFF;" d="M182.99,54.84c-1.99,1.91-4.54,2.86-7.09,2.86c-1.35,0-2.7-0.27-3.97-0.8
		c-2.71-2.39-5.34-4.49-7.89-6.31c-10.92-7.87-20.19-10.8-27.49-11.42c1.2-1.91,2.54-3.53,3.8-4.58c1.57-1.3,3.24-2.56,5.03-3.55
		c2.17-1.2,4.28-2.12,6.4-2.73c2.11-0.62,4.23-0.94,6.41-0.94c2.43,0,4.95,0.4,7.63,1.21c6.45,1.96,12.08,6,16.76,10.79
		c0.38,0.38,0.66,0.68,0.82,0.84c1.46,1.55,2.34,3.45,2.66,5.41C186.6,48.9,185.56,52.37,182.99,54.84z"/>
	<g>
		<path style="fill-rule:evenodd;clip-rule:evenodd;fill:#FFFFFF;" d="M175.81,113.48c-2.7,3.53-3.65,7.97-2.66,12.49
			c0.41,1.87,1.12,3.63,2.08,5.21c-4.13,1.89-7.09,5.51-8.1,10.25c-0.9,4.23-0.13,8.56,2.17,12.21c-8.36,5.26-18.6,7.74-28.31,8.05
			c-2.31,0.07-4.68,0.13-7.02,0.21c-10.88,0.33-21.61,0.13-32.49-0.21c-9.71-0.31-19.95-2.79-28.31-8.05
			c2.29-3.65,3.06-7.98,2.17-12.21c-1.01-4.74-3.97-8.36-8.1-10.25c0.96-1.58,1.67-3.34,2.08-5.21c1.12-5.14-0.31-9.98-3.59-13.57
			c4.51-2.56,7.64-7.12,8.36-12.78c0.4-3.16,0.14-6.45-0.76-9.47c7.61-14.63,22.93-35.81,47.87-35.85h0.07
			c24.9,0.04,40.22,21.17,47.85,35.8c-0.88,2.99-1.15,6.29-0.74,9.52c0.71,5.65,3.84,10.22,8.34,12.78
			C176.4,112.75,176.09,113.11,175.81,113.48z"/>
		<path style="fill-rule:evenodd;clip-rule:evenodd;fill:#FFB6B1;" d="M95.91,119.61c0,9.76-7.86,17.67-17.54,17.67
			s-17.53-7.91-17.53-17.67c0-9.75,7.85-17.66,17.53-17.66S95.91,109.86,95.91,119.61L95.91,119.61z"/>
		<path style="fill-rule:evenodd;clip-rule:evenodd;fill:#FFB6B1;" d="M181.63,119.61c0,9.76-7.86,17.67-17.54,17.67
			c-9.68,0-17.53-7.91-17.53-17.67c0-9.75,7.85-17.66,17.53-17.66C173.77,101.95,181.63,109.86,181.63,119.61L181.63,119.61z"/>
	</g>
	<path style="fill-rule:evenodd;clip-rule:evenodd;fill:#FFFFFF;" d="M204.08,119.25c-1.21-5.57-5.34-8.87-10.43-9.65
		c5.14-2.75,8.48-8,7.71-14.13c-0.62-4.97-4.3-9.52-8.92-12.15c-26.26-34.81-46.75-41.75-58.88-41.75c-7.65,0-11.97,2.74-12.33,2.98
		c-0.36-0.24-4.68-2.98-12.33-2.98c-12.13,0-32.62,6.93-58.87,41.74c-4.63,2.63-8.31,7.18-8.93,12.16
		c-0.78,6.12,2.57,11.38,7.71,14.13c-5.1,0.78-9.22,4.08-10.43,9.65c-1.68,7.72,3.22,15.35,10.95,17.03
		c0.17,0.04,0.33,0.05,0.5,0.08c-3.19,2.69-4.83,6.67-3.85,11.29c1.35,6.35,6.95,10.7,13.18,10.7c0.93,0,1.87-0.1,2.82-0.3
		c7.28-1.54,11.94-8.7,10.39-15.99c-1.16-5.45-5.28-8.61-10.34-9.22c2.11-1.93,3.67-4.51,4.33-7.51c1.33-6.13-1.7-11.22-6.86-13.9
		c6.09-0.99,10.74-5.54,11.58-12.19c0.38-2.99,0.09-6.04-0.8-8.78c7.56-15.16,23.67-38.66,50.94-38.68
		c27.28,0.02,43.38,23.51,50.94,38.68c-0.89,2.74-1.17,5.8-0.8,8.78c0.84,6.66,5.48,11.2,11.58,12.19
		c-5.16,2.68-8.19,7.77-6.86,13.9c0.65,3.01,2.21,5.58,4.32,7.51c-5.06,0.6-9.19,3.76-10.34,9.22c-1.54,7.29,3.11,14.45,10.4,15.99
		c0.95,0.2,1.89,0.3,2.81,0.3c6.24,0,11.84-4.35,13.19-10.7c0.98-4.62-0.67-8.6-3.85-11.29c0.17-0.03,0.33-0.04,0.5-0.08
		C200.85,134.6,205.76,126.97,204.08,119.25z"/>
	<path style="fill:#BEBEBE;" d="M83.41,67.36c-5.13,3.88-12.81,16.73-12.88,16.86c-0.01,0.02-0.02,0.04-0.04,0.05
		c-0.3-0.44-0.63-0.86-1-1.26c1.43-2.36,8.13-13.16,13.01-16.85c0.33-0.25,0.81-0.19,1.06,0.15C83.81,66.64,83.74,67.11,83.41,67.36
		z"/>
	<path style="fill:#BEBEBE;" d="M65.16,73.34c-1.33,1.26-3.12,3.38-4.3,4.83c-0.18-0.04-0.37-0.07-0.56-0.09
		c-0.4-0.05-0.82-0.08-1.23-0.1c1.09-1.37,3.37-4.15,5.05-5.74c0.31-0.28,0.78-0.27,1.07,0.03C65.48,72.57,65.46,73.05,65.16,73.34z
		"/>
	<path style="fill:#BEBEBE;" d="M118.68,49.43v1.64c-0.55-0.25-2.57-1.12-4.68-1.26c-0.42-0.03-0.74-0.39-0.71-0.8
		c0.03-0.42,0.39-0.7,0.81-0.71C115.96,48.43,117.69,49.03,118.68,49.43z"/>
	<path style="fill:#BEBEBE;" d="M118.68,45.88v1.45c-0.12,0.03-0.25,0.04-0.39,0.01c-0.04-0.01-4.37-0.97-9.19,0
		c-0.05,0.01-0.1,0.01-0.15,0.01c-0.36,0-0.67-0.24-0.74-0.6c-0.09-0.41,0.18-0.81,0.59-0.89c5.16-1.03,9.64-0.04,9.83,0
		C118.65,45.86,118.66,45.87,118.68,45.88z"/>
	<g>
		<path style="fill:#BEBEBE;" d="M52.23,152.41c-0.2,0-0.39-0.08-0.54-0.23c-2.72-2.79-1.8-7.86-1.76-8.08
			c0.08-0.41,0.47-0.67,0.88-0.6c0.41,0.08,0.68,0.47,0.6,0.88c-0.01,0.05-0.81,4.53,1.36,6.75c0.29,0.3,0.29,0.78-0.01,1.07
			C52.61,152.33,52.42,152.41,52.23,152.41z"/>
		<path style="fill:#BEBEBE;" d="M59.7,154.94c-0.39,0-0.72-0.3-0.75-0.7c-0.03-0.42,0.28-0.78,0.7-0.81
			c0.08-0.01,8.48-0.71,8.74-6.21c0.02-0.42,0.4-0.68,0.79-0.72c0.42,0.02,0.74,0.37,0.72,0.79c-0.32,6.83-9.73,7.61-10.13,7.64
			C59.74,154.94,59.72,154.94,59.7,154.94z"/>
		<path style="fill:#BEBEBE;" d="M64.5,144.25c0-1.9-3.24-3.88-3.89-4.26c-0.36-0.21-0.82-0.09-1.03,0.27
			c-0.21,0.36-0.09,0.82,0.27,1.03c0.52,0.3,1.05,0.67,1.52,1.04c-0.43-0.15-0.91-0.29-1.46-0.41c-1.3-0.29-2.91,0.17-4.19,1.2
			c-1.18,0.95-1.85,2.18-1.85,3.39c0,2.64,2.14,4.78,4.78,4.78c3.84,0,5.79-1.12,5.79-3.34c0-0.26,0.01-0.51,0.02-0.76
			c0.03-0.78,0.06-1.61-0.2-2.39C64.4,144.67,64.5,144.47,64.5,144.25z"/>
		<path style="fill:#BEBEBE;" d="M68.23,143.88c0,0.42-0.33,0.76-0.75,0.76c-0.42,0-0.75-0.34-0.75-0.76c0-2.57-3.47-5.94-4.8-7.02
			c-0.03-0.02-0.06-0.05-0.08-0.08c0.43-0.28,0.85-0.58,1.26-0.91C64.15,136.76,68.23,140.47,68.23,143.88z"/>
	</g>
	<g>
		<path style="fill:#BEBEBE;" d="M53,121.78c-1.3-0.29-2.91,0.17-4.19,1.2c-1.18,0.95-1.85,2.18-1.85,3.39
			c0,0.66,0.13,1.28,0.37,1.85c-0.32-0.24-0.61-0.5-0.82-0.83c-1.27-2.01-0.17-5.18-0.16-5.22c0.14-0.39-0.06-0.82-0.46-0.96
			c-0.39-0.14-0.82,0.07-0.96,0.45c-0.06,0.16-1.37,3.89,0.3,6.53c0.85,1.34,2.28,2.13,4.25,2.37c0.68,0.37,1.44,0.59,2.26,0.59
			c3.84,0,5.79-1.12,5.79-3.33c0-0.26,0.01-0.51,0.02-0.76C57.62,125.07,57.7,122.82,53,121.78z"/>
		<path style="fill:#BEBEBE;" d="M45.64,132.62c-0.14,0-0.28-0.04-0.4-0.12c-6.22-3.94-4.2-10.74-4.18-10.81
			c0.12-0.4,0.54-0.63,0.94-0.5c0.4,0.12,0.62,0.54,0.5,0.94c-0.07,0.23-1.69,5.78,3.54,9.09c0.35,0.22,0.46,0.69,0.24,1.04
			C46.13,132.5,45.89,132.62,45.64,132.62z"/>
		<path style="fill:#BEBEBE;" d="M63.43,125.65c-0.03,0-0.05,0-0.08,0c-0.42-0.04-0.72-0.42-0.67-0.83c0.5-4.57-3.9-7.93-3.94-7.97
			c-0.33-0.25-0.4-0.73-0.15-1.06c0.25-0.34,0.73-0.4,1.05-0.15c0.21,0.16,5.13,3.9,4.54,9.34
			C64.14,125.36,63.81,125.65,63.43,125.65z"/>
		<path style="fill:#BEBEBE;" d="M43.55,117c-0.11,0-0.21-0.02-0.31-0.07c-0.38-0.17-0.55-0.62-0.38-1
			c1.29-2.84,4.43-2.74,4.59-2.74c0.41,0.02,0.74,0.37,0.72,0.78c-0.01,0.42-0.45,0.74-0.78,0.73c-0.11,0-2.29-0.04-3.15,1.86
			C44.11,116.83,43.84,117,43.55,117z"/>
		<path style="fill:#BEBEBE;" d="M59.73,123.99c-0.28,0-0.54-0.15-0.67-0.41c-0.11-0.21-2.66-5.07-8.2-3.87
			c-0.42,0.09-0.81-0.17-0.9-0.58c-0.09-0.41,0.17-0.81,0.58-0.9c6.74-1.47,9.83,4.6,9.86,4.66c0.19,0.37,0.04,0.82-0.33,1.01
			C59.96,123.96,59.84,123.99,59.73,123.99z"/>
	</g>
	<g>
		<path style="fill:#BEBEBE;" d="M67.2,101.76c-0.04,0-0.09,0-0.13-0.01c-0.41-0.07-0.68-0.46-0.61-0.88
			c1.22-6.82-3.67-10.8-5.82-12.2c-3.33-2.16-7.96-0.43-8.01-0.41c-0.38,0.15-0.83-0.05-0.98-0.44c-0.15-0.39,0.04-0.83,0.44-0.98
			c0.21-0.08,5.38-2.03,9.37,0.55c2.41,1.56,7.86,6.02,6.49,13.73C67.88,101.5,67.56,101.76,67.2,101.76z"/>
		<path style="fill:#BEBEBE;" d="M61.77,106.06c-0.2,0-0.4-0.08-0.55-0.24c-0.29-0.3-0.28-0.78,0.03-1.07
			c3.32-3.15-1.05-10.23-1.1-10.3c-0.22-0.35-0.12-0.82,0.24-1.04c0.35-0.22,0.82-0.12,1.04,0.24c0.21,0.33,5.07,8.2,0.86,12.2
			C62.14,106,61.96,106.06,61.77,106.06z"/>
		<path style="fill:#BEBEBE;" d="M50.2,107.86c-0.1,0-0.2-0.02-0.3-0.06c-7.38-3.23-6.35-10.27-6.34-10.34
			c0.06-0.41,0.45-0.72,0.86-0.63c0.41,0.06,0.69,0.45,0.63,0.86c-0.04,0.24-0.84,5.97,5.45,8.72c0.38,0.17,0.56,0.61,0.39,0.99
			C50.76,107.69,50.49,107.86,50.2,107.86z"/>
		<path style="fill:#BEBEBE;" d="M55.49,95.04c-1.31-0.28-2.92,0.17-4.2,1.2c-0.28,0.22-0.52,0.46-0.74,0.71
			c-0.01-0.24,0.02-0.51,0.14-0.79c0.45-1.11,1.99-2,4.43-2.57c0.41-0.09,0.66-0.5,0.57-0.9c-0.09-0.41-0.51-0.67-0.9-0.57
			c-2.99,0.69-4.83,1.86-5.49,3.47c-0.67,1.65,0.2,3.09,0.26,3.2c-0.07,0.28-0.11,0.56-0.11,0.85c0,2.64,2.14,4.78,4.78,4.78
			c3.84,0,5.79-1.12,5.79-3.34c0-0.26,0.01-0.51,0.02-0.76C60.1,98.33,60.19,96.08,55.49,95.04z"/>
	</g>
	<path style="fill:#BEBEBE;" d="M172.95,82.97c-0.36,0.4-0.69,0.82-1,1.27c0-0.01-0.01-0.01-0.01-0.02
		c-0.08-0.13-7.75-12.98-12.88-16.86c-0.33-0.25-0.4-0.72-0.15-1.05c0.25-0.34,0.73-0.4,1.06-0.15
		C164.82,69.83,171.47,80.53,172.95,82.97z"/>
	<path style="fill:#BEBEBE;" d="M183.41,77.98c-0.42,0.02-0.83,0.05-1.24,0.1c-0.19,0.02-0.37,0.05-0.56,0.09
		c-1.18-1.45-2.97-3.57-4.3-4.83c-0.31-0.29-0.32-0.77-0.04-1.07c0.29-0.31,0.77-0.32,1.07-0.03
		C180.02,73.83,182.31,76.61,183.41,77.98z"/>
	<path style="fill:#BEBEBE;" d="M123.3,51.23c-0.28,0-0.54-0.15-0.67-0.42c-0.19-0.37-0.04-0.83,0.33-1.01
		c0.11-0.05,2.63-1.31,5.41-1.5c0.41,0,0.77,0.29,0.8,0.71c0.03,0.42-0.29,0.77-0.71,0.8c-2.46,0.16-4.81,1.33-4.83,1.34
		C123.53,51.21,123.41,51.23,123.3,51.23z"/>
	<path style="fill:#BEBEBE;" d="M133.52,47.35c-0.05,0-0.1,0-0.15-0.01c-4.82-0.97-9.15-0.01-9.2,0c-0.42,0.09-0.81-0.16-0.9-0.57
		c-0.09-0.41,0.16-0.81,0.57-0.9c0.19-0.04,4.67-1.04,9.83,0c0.41,0.08,0.67,0.48,0.59,0.89C134.19,47.11,133.87,47.35,133.52,47.35
		z"/>
	<g>
		<path style="fill:#BEBEBE;" d="M190.24,152.41c-0.19,0-0.38-0.07-0.53-0.21c-0.3-0.29-0.3-0.77-0.01-1.07
			c2.16-2.22,1.36-6.7,1.35-6.75c-0.08-0.41,0.19-0.8,0.6-0.88c0.44-0.06,0.8,0.2,0.88,0.6c0.04,0.22,0.96,5.3-1.76,8.08
			C190.63,152.33,190.44,152.41,190.24,152.41z"/>
		<path style="fill:#BEBEBE;" d="M182.77,154.94c-0.02,0-0.04,0-0.06,0c-0.4-0.03-9.81-0.81-10.13-7.64
			c-0.02-0.42,0.3-0.77,0.72-0.79c0.39,0.04,0.77,0.3,0.79,0.72c0.26,5.5,8.65,6.2,8.74,6.21c0.42,0.03,0.73,0.39,0.7,0.81
			C183.49,154.64,183.16,154.94,182.77,154.94z"/>
		<path style="fill:#BEBEBE;" d="M186.75,143.12c-1.28-1.03-2.89-1.49-4.19-1.2c-0.55,0.12-1.03,0.26-1.46,0.41
			c0.47-0.37,1-0.74,1.52-1.04c0.36-0.21,0.48-0.67,0.27-1.03s-0.67-0.48-1.03-0.27c-0.65,0.38-3.88,2.36-3.88,4.26
			c0,0.22,0.1,0.42,0.25,0.56c-0.26,0.78-0.24,1.6-0.2,2.39c0.01,0.25,0.02,0.5,0.02,0.76c0,2.21,1.95,3.34,5.79,3.34
			c2.64,0,4.78-2.14,4.78-4.78C188.6,145.3,187.93,144.07,186.75,143.12z"/>
		<path style="fill:#BEBEBE;" d="M180.62,136.78c-0.02,0.03-0.05,0.06-0.08,0.08c-1.34,1.08-4.8,4.45-4.8,7.02
			c0,0.42-0.33,0.76-0.75,0.76s-0.76-0.34-0.76-0.76c0-3.41,4.09-7.12,5.13-8.01C179.77,136.2,180.19,136.5,180.62,136.78z"/>
	</g>
	<g>
		<path style="fill:#BEBEBE;" d="M197.54,121.67c-0.14-0.39-0.57-0.6-0.96-0.45c-0.39,0.14-0.6,0.57-0.46,0.96
			c0.01,0.03,1.12,3.2-0.16,5.21c-0.21,0.33-0.5,0.6-0.82,0.83c0.24-0.57,0.37-1.19,0.37-1.85c0-1.21-0.68-2.44-1.85-3.39
			c-1.28-1.03-2.88-1.49-4.2-1.2c-4.7,1.03-4.62,3.29-4.54,5.28c0.01,0.25,0.02,0.5,0.02,0.76c0,2.21,1.95,3.33,5.79,3.33
			c0.82,0,1.58-0.23,2.26-0.59c1.97-0.23,3.4-1.03,4.25-2.37C198.91,125.55,197.6,121.82,197.54,121.67z"/>
		<path style="fill:#BEBEBE;" d="M196.83,132.62c-0.25,0-0.49-0.12-0.64-0.35c-0.22-0.35-0.12-0.82,0.24-1.04
			c5.23-3.31,3.61-8.85,3.54-9.09c-0.12-0.4,0.1-0.82,0.5-0.94c0.4-0.14,0.82,0.1,0.94,0.5c0.02,0.07,2.04,6.87-4.18,10.81
			C197.11,132.59,196.97,132.62,196.83,132.62z"/>
		<path style="fill:#BEBEBE;" d="M179.03,125.65c-0.38,0-0.71-0.29-0.75-0.67c-0.59-5.43,4.33-9.18,4.54-9.34
			c0.33-0.25,0.8-0.18,1.05,0.15c0.25,0.33,0.18,0.81-0.15,1.06c-0.04,0.03-4.44,3.4-3.94,7.97c0.05,0.41-0.25,0.79-0.67,0.83
			C179.09,125.65,179.06,125.65,179.03,125.65z"/>
		<path style="fill:#BEBEBE;" d="M198.92,117c-0.29,0-0.56-0.16-0.69-0.44c-0.86-1.9-3.01-1.88-3.15-1.86c-0.01,0-0.01,0-0.02,0
			c-0.4,0-0.74-0.32-0.75-0.73c-0.01-0.42,0.31-0.76,0.72-0.78c0.16,0,3.3-0.09,4.59,2.74c0.17,0.38,0,0.83-0.38,1
			C199.13,116.98,199.03,117,198.92,117z"/>
		<path style="fill:#BEBEBE;" d="M182.74,123.99c-0.12,0-0.23-0.02-0.34-0.08c-0.37-0.19-0.52-0.64-0.33-1.01
			c0.03-0.06,3.15-6.11,9.86-4.66c0.41,0.09,0.67,0.49,0.58,0.9c-0.09,0.41-0.47,0.67-0.9,0.58c-5.57-1.2-8.17,3.81-8.2,3.86
			C183.28,123.84,183.02,123.99,182.74,123.99z"/>
	</g>
	<g>
		<path style="fill:#BEBEBE;" d="M175.27,101.76c-0.36,0-0.68-0.26-0.74-0.62c-1.38-7.71,4.08-12.17,6.49-13.73
			c3.99-2.58,9.15-0.63,9.37-0.55c0.39,0.15,0.58,0.59,0.44,0.98c-0.15,0.39-0.6,0.58-0.98,0.44c-0.05-0.02-4.68-1.75-8.01,0.41
			c-2.16,1.39-7.04,5.38-5.82,12.2c0.07,0.41-0.2,0.8-0.61,0.88C175.36,101.76,175.31,101.76,175.27,101.76z"/>
		<path style="fill:#BEBEBE;" d="M180.7,106.06c-0.19,0-0.37-0.07-0.52-0.21c-4.22-4,0.65-11.87,0.86-12.2
			c0.22-0.35,0.69-0.46,1.04-0.24c0.35,0.22,0.46,0.69,0.24,1.04c-0.04,0.07-4.42,7.15-1.1,10.3c0.3,0.29,0.32,0.76,0.03,1.07
			C181.1,105.99,180.9,106.06,180.7,106.06z"/>
		<path style="fill:#BEBEBE;" d="M192.27,107.86c-0.29,0-0.57-0.17-0.69-0.45c-0.17-0.38,0-0.83,0.39-0.99
			c6.29-2.75,5.49-8.48,5.45-8.72c-0.06-0.41,0.22-0.8,0.63-0.86c0.42-0.06,0.79,0.22,0.86,0.63c0.01,0.07,1.04,7.11-6.34,10.34
			C192.48,107.84,192.37,107.86,192.27,107.86z"/>
		<path style="fill:#BEBEBE;" d="M193.18,95.59c-0.66-1.61-2.51-2.77-5.49-3.47c-0.4-0.1-0.81,0.16-0.9,0.57
			c-0.1,0.41,0.16,0.81,0.57,0.9c2.43,0.57,3.96,1.45,4.43,2.55c0.12,0.29,0.15,0.56,0.14,0.81c-0.22-0.25-0.46-0.49-0.74-0.71
			c-1.28-1.03-2.88-1.49-4.2-1.2c-4.7,1.04-4.62,3.29-4.54,5.28c0.01,0.25,0.02,0.5,0.02,0.76c0,2.22,1.95,3.34,5.79,3.34
			c2.64,0,4.78-2.14,4.78-4.78c0-0.28-0.04-0.57-0.11-0.85C192.98,98.68,193.85,97.24,193.18,95.59z"/>
	</g>
	<path style="fill:#BEBEBE;" d="M78.58,64.73C73.96,68.96,68,75.83,64.94,79.46c-0.47-0.24-0.96-0.45-1.47-0.62
		c2.99-3.55,9.25-10.8,14.1-15.22c0.3-0.28,0.78-0.26,1.06,0.05C78.91,63.98,78.89,64.45,78.58,64.73z"/>
	<path style="fill:#BEBEBE;" d="M179,78.84c-0.5,0.18-0.98,0.38-1.45,0.62c-3.07-3.63-9.03-10.5-13.66-14.73
		c-0.31-0.28-0.33-0.75-0.05-1.06c0.28-0.31,0.76-0.33,1.06-0.05C169.75,68.04,176.01,75.29,179,78.84z"/>
	<path style="fill:#0087C6;" d="M85.83,200.02c0.75,0.18,1.48,0.37,2.22,0.57c-0.31-0.08-0.63-0.17-0.94-0.24
		C86.69,200.23,86.26,200.12,85.83,200.02z"/>
	<path style="fill:#0087C6;" d="M99.16,209.99c-0.19-0.63-0.41-1.25-0.66-1.84C98.76,208.74,98.98,209.36,99.16,209.99z"/>
	<path style="fill:#0087C6;" d="M99.02,218.36c0.15-0.46,0.28-0.92,0.38-1.38C99.31,217.44,99.18,217.9,99.02,218.36z"/>
	<path style="fill:#0087C6;" d="M99.69,214.98c0.12-1.71-0.09-3.4-0.53-4.98C99.61,211.58,99.81,213.27,99.69,214.98z"/>
	<path d="M75.18,223.81c-0.01,0.01-0.01,0.03-0.02,0.04c0.36,0.1,0.72,0.19,1.08,0.27C75.89,224.02,75.54,223.9,75.18,223.81z"/>
	<path style="fill:#0087C6;" d="M99.69,214.98c-0.03,0.34-0.06,0.68-0.11,1.03c-0.02,0.14-0.04,0.28-0.07,0.42
		c-0.03,0.18-0.07,0.36-0.11,0.55c-0.1,0.46-0.23,0.92-0.38,1.38c-0.05,0.15-0.11,0.31-0.17,0.47c-0.06,0.16-0.12,0.32-0.19,0.47
		c-0.27,0.63-0.59,1.25-0.97,1.85c-0.09,0.15-0.18,0.29-0.29,0.44v0.01c-0.06,0.09-0.11,0.17-0.17,0.25
		c-0.05,0.07-0.11,0.15-0.17,0.22c-0.11,0.15-0.22,0.29-0.34,0.44c-0.1,0.12-0.2,0.25-0.31,0.37c-1.31,1.5-2.8,2.41-4.37,2.91
		c-1.32,0.42-2.68,0.58-4.05,0.58c-0.25,0-0.49-0.01-0.74-0.02c-0.21,0-0.42-0.02-0.63-0.03c-0.02-0.01-0.05-0.01-0.07-0.01
		c-1.99-0.15-3.99-0.59-5.89-1.07c-0.48-0.12-0.94-0.24-1.4-0.36c-0.28-0.07-0.55-0.14-0.82-0.21c-0.63-0.17-1.25-0.32-1.84-0.46
		c-0.12-0.03-0.24-0.06-0.36-0.09c-0.36-0.08-0.72-0.17-1.08-0.27c-0.55-0.15-1.09-0.3-1.63-0.46c-0.51-0.15-1.01-0.31-1.51-0.48
		c-0.45-0.15-0.91-0.3-1.37-0.47c-0.3-0.1-0.59-0.21-0.89-0.32c-0.75-0.27-1.5-0.56-2.24-0.85c-0.67-0.26-1.34-0.54-2.01-0.8
		c-1.05-0.43-2.1-0.87-3.14-1.31c1.26-2.82,2.82-5.74,4.23-8.38c0.84-1.56,1.64-3.07,2.35-4.48c1.91-3.79,5.08-6.48,8.06-8.32
		c1.29,0.3,2.59,0.6,3.88,0.89c1.65,0.37,3.3,0.75,4.94,1.15c0.43,0.1,0.86,0.21,1.28,0.33c0.31,0.07,0.63,0.16,0.94,0.24
		c0.07,0.02,0.14,0.04,0.21,0.06c0.62,0.17,1.23,0.34,1.84,0.53c0.82,0.24,1.64,0.51,2.45,0.79c1.73,0.6,3.32,1.93,4.56,3.69
		c0.18,0.25,0.35,0.51,0.51,0.78c0.08,0.14,0.16,0.27,0.24,0.41c0.15,0.28,0.3,0.56,0.44,0.85c0.07,0.15,0.13,0.29,0.2,0.45
		c0.25,0.59,0.47,1.21,0.66,1.84c-0.01,0.01,0,0.01,0,0.01C99.6,211.58,99.81,213.27,99.69,214.98z"/>
	<path style="fill:#282F33;" d="M86,197.47c-1.54-0.37-3.06-0.72-4.57-1.06c-0.34-0.08-0.68-0.16-1.03-0.23
		c0.78-0.37,1.5-0.65,2.11-0.88h0.01c0,0,0.05,0,0.14,0C83.26,195.3,85.52,195.43,86,197.47z"/>
	<path style="fill:#282F33;" d="M73.95,226.12c-2.18,3.38-5.42,5.34-9.15,5.34c-1.46,0-2.98-0.29-4.54-0.93
		c-0.1-0.03-0.2-0.08-0.3-0.12c0.1-0.21,0.14-0.45,0.11-0.69c-0.01-0.06-0.02-0.11-0.03-0.16c-0.02-0.09-0.04-0.18-0.06-0.27
		c-0.01-0.03-0.01-0.07-0.02-0.11c-0.36-2.04,0.3-4.76,1.44-7.71C65.44,223.18,69.61,224.93,73.95,226.12z"/>
	<path d="M172.14,180.3c0.42-0.36,0.87-0.67,1.34-0.94C173.01,179.62,172.56,179.94,172.14,180.3z M187.54,223.03
		c0.1-0.09,0.21-0.18,0.31-0.28c0.14-0.14,0.28-0.28,0.43-0.42C188.04,222.56,187.79,222.8,187.54,223.03z M192.36,218.02
		c0.13-0.14,0.25-0.28,0.37-0.42c0.13-0.16,0.26-0.32,0.4-0.48c0.08-0.1,0.17-0.21,0.25-0.31
		C193.05,217.22,192.71,217.62,192.36,218.02z"/>
	<path d="M209.98,117.96c-0.86-3.95-2.88-7.38-5.81-9.92c2.63-3.93,3.78-8.63,3.19-13.32c-0.84-6.67-5.42-13.02-12.01-16.72
		c-4.19-5.44-8.41-10.39-12.61-14.82c-0.99-1.04-1.97-2.06-2.96-3.04c1.97-0.6,3.78-1.66,5.3-3.12c3.19-3.07,4.68-7.51,3.96-11.88
		c-0.42-2.63-1.61-5.05-3.44-7c-0.18-0.19-0.49-0.51-0.89-0.91c-1.32-1.36-2.68-2.61-4.06-3.75c-4.42-3.71-9.11-6.32-13.96-7.79
		c-2.96-0.9-5.75-1.34-8.5-1.34c-2.45,0-4.83,0.35-7.26,1.06c-2.29,0.66-4.58,1.64-7.01,2.99c-1.7,0.94-3.45,2.17-5.5,3.87
		c-1.14,0.95-2.3,2.24-3.41,3.79c-0.5-0.02-0.98-0.03-1.45-0.03c-5.43,0-9.55,1.16-12.33,2.34c-2.77-1.18-6.89-2.34-12.32-2.34
		c-0.47,0-0.95,0.01-1.45,0.03c-1.11-1.55-2.27-2.84-3.41-3.79c-2.05-1.7-3.8-2.93-5.5-3.87c-2.43-1.35-4.73-2.33-7.01-2.99
		c-2.43-0.71-4.81-1.06-7.26-1.06c-2.76,0-5.54,0.44-8.51,1.34c-5.7,1.73-11.16,5.03-16.26,9.83c-0.6,0.56-1.19,1.14-1.78,1.74
		c-0.37,0.37-0.68,0.69-0.85,0.87c-1.84,1.96-3.03,4.38-3.46,7.01c-0.71,4.37,0.77,8.81,3.97,11.88c1.52,1.46,3.33,2.52,5.29,3.12
		c-1.51,1.51-3.02,3.08-4.53,4.73c-3.68,3.99-7.37,8.37-11.04,13.13c-6.59,3.7-11.16,10.05-12,16.72c-0.6,4.77,0.52,9.41,3.16,13.34
		c-2.91,2.54-4.93,5.96-5.78,9.9c-1.16,5.32-0.18,10.76,2.77,15.34c1.44,2.25,3.32,4.19,5.51,5.7c-1.17,3.11-1.42,6.48-0.69,9.91
		c1.39,6.54,6.05,11.79,12.09,14.12c-9.81,11.28-16.85,30.66-17.76,37.36c-1.36,10.12,17.51,27.42,22.11,31.48
		c0.11,0.1,0.22,0.19,0.31,0.27c0.18,0.16,0.37,0.29,0.58,0.4c2.45,1.29,4.93,1.95,7.39,1.95c4.88,0,9.21-2.63,11.95-7.14
		c0.52,0.13,1.06,0.27,1.61,0.42c0.04,0.01,0.08,0.02,0.12,0.03c2.89,0.75,6.16,1.6,9.51,1.6c1.8,0,3.42-0.24,4.97-0.73
		c2.21-0.71,4.14-1.99,5.73-3.81c1.72-1.98,2.87-3.99,3.5-6.16c0.2-1.19,0.19-2.71,0.13-3.99c0,0-0.08-1.09-0.11-1.64
		c-0.02-0.22-0.03-0.4-0.05-0.56c0-0.03-0.01-0.06-0.01-0.09c0-0.12-0.01-0.24-0.03-0.35c-0.09-0.82-0.25-1.65-0.46-2.47
		c-1.28-4.84-4.46-8.68-8.28-10.01c-1.57-0.55-3.16-1.02-4.76-1.45c-0.02-1.08-0.3-2.05-0.85-2.88c-0.52-0.8-1.28-1.44-2.2-1.86
		c0.01-0.52-0.29-0.99-0.77-1.18c-0.23-0.1-1.83-0.75-4.21-1.6l2.16-28.48l19.94,6l16.47,21.12l11.32-18.03l26.81-7.36
		c-0.43,4.54-1.74,18.99-1.71,27.27l-12.38,3.44c-0.34,0.09-0.6,0.31-0.76,0.6c-1.22,0.12-2.38,0.69-3.28,1.63
		c-0.29,0.3-0.55,0.64-0.78,1.01c-2.62,0.28-5.23,0.78-8.88,1.92c-4.44,1.39-8.31,5.71-9.85,11.01c-0.17,0.59-0.31,1.17-0.42,1.76
		c-0.85,4.65,0.33,9.24,3.33,12.79c1.53,1.82,3.46,3.1,5.72,3.82c1.98,0.62,4.06,0.91,6.53,0.91c1.91,0,3.84-0.18,5.71-0.35
		c1.65-0.15,3.35-0.31,5.04-0.34c0.05,0,0.11,0,0.16-0.01c3.75,4.17,8.02,6.91,12.36,8.21c1.96,0.6,3.94,0.89,5.9,0.89
		c2.05,0,4.14-0.3,6.22-0.9c0.05-0.01,0.09-0.03,0.14-0.04c0.49,0.31,1.05,0.47,1.62,0.47c0.55,0,1.11-0.15,1.61-0.45
		c0.89-0.53,17.85-10.78,25.9-24.08c2.07-3.42,3.55-7.05,4.02-10.77c1.7-13.49,1.85-28.87-9.32-41.63
		c4.19-2.81,7.15-7.11,8.22-12.12c0.72-3.43,0.48-6.8-0.7-9.91c2.2-1.51,4.07-3.45,5.52-5.7
		C210.15,128.72,211.14,123.28,209.98,117.96z M64.8,231.46c-1.46,0-2.98-0.29-4.54-0.93c-0.1-0.03-0.2-0.08-0.3-0.12
		c0.1-0.21,0.14-0.45,0.11-0.69c-0.01-0.06-0.02-0.11-0.03-0.16c-0.02-0.09-0.04-0.18-0.06-0.27c-0.01-0.03-0.01-0.07-0.02-0.11
		c-0.36-2.04,0.3-4.76,1.44-7.71c4.04,1.71,8.21,3.46,12.55,4.65C71.77,229.5,68.53,231.46,64.8,231.46z M88.05,200.59
		c0.07,0.02,0.14,0.04,0.21,0.06c0.62,0.17,1.23,0.34,1.84,0.53c0.82,0.24,1.64,0.51,2.45,0.79c1.73,0.6,3.32,1.93,4.56,3.69
		c0.18,0.25,0.35,0.51,0.51,0.78c0.08,0.14,0.16,0.27,0.24,0.41c0.16,0.27,0.3,0.56,0.44,0.85c0.07,0.15,0.13,0.29,0.2,0.45
		c0.25,0.59,0.47,1.21,0.66,1.84V210c0.23,0.81,0.39,1.65,0.47,2.51c0.1,0.81,0.12,1.64,0.06,2.47c-0.03,0.34-0.06,0.68-0.11,1.03
		c-0.02,0.14-0.04,0.28-0.07,0.42c-0.03,0.18-0.07,0.36-0.11,0.55c-0.1,0.46-0.23,0.92-0.38,1.38c-0.05,0.15-0.11,0.31-0.17,0.47
		c-0.06,0.16-0.12,0.32-0.19,0.47c-0.27,0.63-0.59,1.25-0.97,1.85c-0.09,0.15-0.18,0.29-0.29,0.44c0.11-0.14,0.21-0.27,0.31-0.41
		c-0.14,0.22-0.3,0.45-0.48,0.67c-0.05,0.07-0.11,0.15-0.17,0.22c-0.11,0.15-0.22,0.29-0.34,0.44c-0.1,0.12-0.2,0.25-0.31,0.37
		c-1.31,1.5-2.8,2.41-4.37,2.91c-1.32,0.42-2.68,0.58-4.05,0.58c-0.25,0-0.49-0.01-0.74-0.02c-0.21,0-0.42-0.02-0.63-0.03
		c-0.02-0.01-0.05-0.01-0.07-0.01c-1.99-0.15-3.99-0.59-5.89-1.07c-0.47-0.11-0.94-0.23-1.4-0.36c-0.28-0.07-0.55-0.14-0.82-0.21
		c-0.63-0.17-1.25-0.32-1.84-0.46c-0.12-0.03-0.24-0.06-0.36-0.09c-0.36-0.08-0.72-0.17-1.08-0.27c-0.55-0.15-1.09-0.3-1.63-0.46
		c-0.51-0.15-1.01-0.31-1.51-0.48c-0.45-0.15-0.91-0.3-1.37-0.47c-0.3-0.1-0.59-0.21-0.89-0.32c-0.75-0.27-1.5-0.55-2.24-0.85
		c-0.67-0.26-1.34-0.53-2.01-0.8c-1.05-0.43-2.1-0.87-3.14-1.31c1.26-2.82,2.82-5.74,4.23-8.38c0.84-1.56,1.64-3.07,2.35-4.48
		c1.91-3.79,5.08-6.48,8.06-8.32c0.65,0.15,1.31,0.3,1.96,0.45c0.64,0.15,1.28,0.3,1.92,0.44c1.65,0.37,3.3,0.75,4.94,1.15
		c0.43,0.1,0.86,0.21,1.28,0.33C87.42,200.42,87.74,200.51,88.05,200.59z M82.52,195.3c0,0,0.05,0,0.14,0c0.6,0,2.86,0.13,3.34,2.17
		c-1.54-0.37-3.06-0.72-4.57-1.06c-0.34-0.08-0.68-0.16-1.03-0.23c0.78-0.37,1.5-0.65,2.11-0.88H82.52z M142.1,196.96
		c0.33-0.17,1.74-0.4,2.34,0.65c-0.98,0.05-1.95,0.11-2.91,0.17c-0.22,0.01-0.43,0.02-0.65,0.04
		C141.29,197.49,141.36,197.35,142.1,196.96z M145.95,226.81c-0.14,0-0.29,0.01-0.44,0.01c-0.35,0.01-0.71,0.02-1.06,0.04
		c-3.33,0.15-6.52,0.66-9.64,0.66c-1.94,0-3.86-0.2-5.77-0.8c-1.68-0.53-3.24-1.48-4.56-3.05c-2.87-3.4-3.47-7.46-2.68-11.16
		c1.05-4.89,4.54-9.14,8.45-10.37c2.83-0.89,4.95-1.35,6.99-1.65c0.05,0,0.1-0.01,0.15-0.02c0.41-0.05,0.8-0.1,1.21-0.14
		c0.34-0.04,0.68-0.07,1.03-0.1c0.12-0.01,0.24-0.02,0.36-0.03c1.87-0.15,3.91-0.24,6.56-0.42c1.04-0.07,2.06-0.12,3.06-0.15h0.01
		c1.68,1.15,3.08,2.74,3.2,4.87c0.15,2.74,0.92,5.44,2.08,8.01c0.59,1.33,1.29,2.61,2.06,3.85c2,3.23,4.47,6.1,6.84,8.34
		c-0.16,0.03-0.31,0.04-0.46,0.06c-5.64,0.57-10.36,1.66-15.82,1.98C147,226.77,146.48,226.8,145.95,226.81z M171.01,234.04
		c-0.02,0.01-0.04,0.02-0.06,0.02c-0.23,0.11-0.48,0.2-0.73,0.29c-0.27,0.1-0.56,0.19-0.85,0.28c-1.87,0.53-3.67,0.78-5.39,0.78
		h-0.01c-0.27,0-0.53-0.01-0.79-0.02c-0.25-0.01-0.49-0.02-0.73-0.05c-0.58-0.05-1.15-0.12-1.71-0.23
		c-0.22-0.04-0.45-0.08-0.68-0.14c-0.25-0.05-0.5-0.11-0.75-0.18c-0.49-0.13-0.98-0.29-1.46-0.46v-0.01
		c-0.25-0.09-0.49-0.18-0.74-0.28c-0.3-0.12-0.6-0.25-0.9-0.39c-0.59-0.28-1.18-0.58-1.75-0.91c-0.28-0.17-0.56-0.34-0.84-0.52
		c-0.22-0.15-0.44-0.3-0.66-0.44c-0.43-0.3-0.85-0.61-1.27-0.95c-0.21-0.17-0.41-0.34-0.62-0.51c-0.24-0.21-0.48-0.42-0.71-0.62
		c-0.22-0.2-0.43-0.4-0.64-0.6c2.49-0.23,4.85-0.59,7.15-0.93c2.16-0.33,4.38-0.67,6.73-0.9c0.88-0.09,1.79-0.21,2.73-0.38
		c0.53,0.42,1.05,0.8,1.53,1.13C171.59,230.54,171.27,233.11,171.01,234.04z M204.67,131.66c-0.43,0.67-0.9,1.31-1.41,1.9
		c-0.51,0.6-1.06,1.16-1.64,1.67c-1.16,1.03-2.46,1.89-3.85,2.58c0.55,0.92,1,1.9,1.33,2.92c0.11,0.34,0.2,0.68,0.29,1.03
		c0.11,0.47,0.2,0.94,0.26,1.42c0.04,0.3,0.07,0.61,0.09,0.91c0.09,1.36-0.01,2.76-0.31,4.19c-0.06,0.26-0.12,0.52-0.19,0.78
		c-0.03,0.14-0.07,0.29-0.12,0.43c-0.06,0.22-0.13,0.44-0.21,0.65c-0.02,0.09-0.05,0.17-0.08,0.25c-0.1,0.28-0.21,0.57-0.33,0.84
		c-0.01,0.04-0.03,0.08-0.05,0.12c-0.13,0.3-0.26,0.58-0.4,0.87c-0.47,0.92-1.01,1.79-1.63,2.6c-0.46,0.61-0.97,1.19-1.52,1.72
		c-1.62,1.6-3.57,2.87-5.72,3.7c0.01,0.01,0.01,0.01,0.02,0.02c0.35,0.3,0.7,0.63,1.04,0.98c11.37,11.51,12.16,25.89,10.26,41.04
		c-0.09,0.7-0.22,1.39-0.39,2.08c0,0.01,0,0.01,0,0.02c-0.17,0.68-0.37,1.37-0.62,2.05c0,0.01,0,0.01,0,0.02v0.01
		c0,0.01,0,0.01,0,0.01c-0.09,0.26-0.18,0.51-0.29,0.77c-0.13,0.34-0.27,0.68-0.43,1.02c-0.05,0.14-0.11,0.27-0.18,0.41
		c-0.24,0.53-0.5,1.06-0.78,1.59c-0.2,0.39-0.42,0.78-0.65,1.16c-0.17,0.3-0.35,0.6-0.55,0.9c-0.54,0.87-1.12,1.73-1.75,2.58
		c-0.19,0.27-0.39,0.53-0.6,0.8c-0.29,0.37-0.58,0.74-0.88,1.11c-0.08,0.1-0.17,0.21-0.25,0.31c-0.14,0.16-0.27,0.32-0.4,0.48
		c-0.12,0.14-0.24,0.28-0.37,0.42c-1.29,1.51-2.67,2.95-4.08,4.31c-0.15,0.14-0.29,0.28-0.43,0.42c-0.1,0.1-0.21,0.19-0.31,0.28
		c-2.63,2.49-5.32,4.69-7.7,6.5c-0.21,0.16-0.43,0.33-0.64,0.48c-0.49,0.37-0.96,0.71-1.41,1.04c-0.58,0.42-1.13,0.81-1.65,1.16
		c-0.33,0.23-0.64,0.45-0.93,0.64c-0.32,0.22-0.61,0.42-0.89,0.6c-0.31,0.21-0.6,0.39-0.85,0.56c0.22-1.19,0.16-1.61,0.16-1.61
		v-0.01c-0.18-1.89-1.21-4.17-3.98-6.18c-0.12-0.09-0.25-0.18-0.38-0.27c-0.72-0.49-1.48-1.07-2.27-1.73
		c-3.77-3.19-8-8.25-10.19-13.66v-0.01c-0.02-0.05-0.04-0.11-0.07-0.16c0-0.01,0-0.01,0-0.02c-0.79-1.97-1.3-4-1.41-6
		c-0.11-1.95-0.9-3.54-2.03-4.82c-0.33-0.39-0.69-0.75-1.08-1.07c-0.6-0.52-1.25-0.98-1.92-1.39c-0.79-0.48-1.6-0.88-2.36-1.2
		l0.82-0.23l8.05-2.23l0.15-0.04l12.8-3.56c0.02-0.01,0.04-0.02,0.06-0.03c0.06-0.02,0.12-0.05,0.17-0.08
		c0.08-0.04,0.15-0.08,0.22-0.14c0.05-0.04,0.09-0.09,0.14-0.14c0.03-0.03,0.07-0.06,0.1-0.1c0.03-0.03,2.66-3.63,10.39,1.34
		c0.58,0.37,1.36,0.2,1.74-0.38c0.37-0.59,0.2-1.37-0.38-1.74c-0.38-0.24-0.74-0.47-1.1-0.67c-0.57-0.34-1.12-0.63-1.65-0.87
		c-0.35-0.17-0.69-0.32-1.02-0.45c-0.67-0.28-1.3-0.49-1.89-0.64c-0.15-0.04-0.3-0.08-0.44-0.11c-0.29-0.07-0.57-0.13-0.84-0.16
		c-0.13-0.02-0.26-0.04-0.39-0.05c-1.43-0.17-2.6-0.01-3.53,0.29c0.45-1.24,1.2-2.65,2.43-3.68c1.34-1.13,3.08-1.64,5.15-1.54
		c0.15,0.01,0.3,0.02,0.45,0.03v0.01h0.07c0.69,0.05,1.3-0.44,1.37-1.14c0.07-0.69-0.44-1.31-1.13-1.37
		c-0.31-0.03-0.62-0.05-0.92-0.05c-0.81-0.03-1.58,0.02-2.32,0.16c-0.43,0.07-0.83,0.17-1.23,0.3c-0.6,0.18-1.18,0.44-1.73,0.75
		c-0.47,0.27-0.92,0.58-1.34,0.94c-2.7,2.27-3.58,5.7-3.86,7.32l-10.2,2.83c0.05-8.93,1.52-24.54,1.79-27.29l7.73-2.12
		c2.22-0.61,4.32-1.48,6.29-2.6c-0.38-0.26-0.74-0.54-1.1-0.83c-0.34-0.28-0.67-0.58-0.99-0.89c-1.53,0.79-3.16,1.42-4.86,1.89
		l-7.22,1.98l-0.84,0.23l-30.01,8.24l-9.93,15.82l-14.75-18.92l-22.27-6.71l-10.21-3.07c-0.13-0.04-0.26-0.08-0.39-0.13
		c-0.32,0.35-0.65,0.68-1,1c-0.36,0.33-0.73,0.64-1.12,0.94c0.58,0.22,1.18,0.42,1.78,0.6l9.33,2.8l-2.16,28.38
		c-3.44-1.15-7.79-2.44-11.99-3.22c-0.29-0.06-0.57-0.11-0.85-0.15c-0.33-0.06-0.65-0.11-0.97-0.16c-0.28-0.04-0.56-0.08-0.83-0.11
		c-0.31-0.05-0.61-0.08-0.9-0.11c-0.33-0.04-0.66-0.07-0.99-0.09c-0.35-0.04-0.71-0.06-1.05-0.07c-0.41-0.02-0.8-0.03-1.19-0.03
		c-1.62,0-3.09,0.16-4.33,0.55c-9.17,2.86-8.85,7.23-8.79,7.71c0.1,0.67,0.7,1.08,1.36,1.05c0.67-0.05,1.17-0.66,1.14-1.33
		c0-0.08,0.03-2.85,7.04-5.03c0.23-0.07,0.47-0.13,0.72-0.18c0.35-0.09,0.73-0.15,1.12-0.19c0.23-0.03,0.47-0.05,0.72-0.06
		c0.58-0.04,1.19-0.05,1.83-0.03c0.18,0.01,0.36,0.02,0.54,0.03c0.33,0.01,0.65,0.04,0.99,0.07c0.33,0.03,0.68,0.06,1.02,0.11
		c0.23,0.02,0.46,0.05,0.69,0.09c0.22,0.03,0.44,0.06,0.66,0.09c0.25,0.04,0.5,0.08,0.75,0.13c0.24,0.04,0.48,0.08,0.72,0.13
		c0.31,0.06,0.63,0.12,0.94,0.18c0.38,0.08,0.77,0.16,1.15,0.24c1.01,0.23,2.03,0.48,3.03,0.75c0.34,0.09,0.67,0.18,1,0.27
		c1.32,0.37,2.61,0.76,3.82,1.15c0.22,0.07,0.44,0.14,0.65,0.21c0.85,0.27,1.66,0.55,2.41,0.81c0.19,0.06,0.37,0.13,0.55,0.19
		c0.05,0.02,0.11,0.04,0.16,0.06c0.12,0.04,0.24,0.08,0.35,0.12c0.35,0.12,0.68,0.24,1,0.36c-0.44,0.18-0.92,0.39-1.42,0.62
		c-0.82,0.38-1.71,0.83-2.62,1.35c-0.24,0.14-0.47,0.27-0.71,0.42c-0.24,0.14-0.48,0.29-0.72,0.45c-0.48,0.31-0.96,0.63-1.44,0.99
		c-0.05,0.03-0.09,0.06-0.14,0.1c-0.3,0.22-0.6,0.46-0.89,0.7c-0.34,0.27-0.68,0.56-1.01,0.86c-0.22,0.2-0.44,0.41-0.66,0.62
		c-0.21,0.2-0.41,0.4-0.62,0.61c-0.2,0.21-0.4,0.42-0.59,0.64c-0.13,0.14-0.26,0.29-0.38,0.44l-0.01,0.01
		c-0.12,0.12-0.22,0.25-0.31,0.37c-0.11,0.13-0.22,0.27-0.33,0.41c-0.16,0.21-0.32,0.42-0.47,0.64c-0.1,0.13-0.19,0.26-0.28,0.4
		c-0.01,0.02-0.03,0.04-0.04,0.06c-0.22,0.31-0.42,0.63-0.61,0.96c-0.24,0.39-0.46,0.79-0.67,1.21c-0.7,1.39-1.49,2.88-2.32,4.42
		c-0.42,0.79-0.85,1.59-1.28,2.4c-0.15,0.3-0.31,0.6-0.47,0.91c-0.19,0.37-0.39,0.74-0.58,1.12c-0.35,0.67-0.68,1.35-1.01,2.03
		c-0.17,0.35-0.34,0.7-0.5,1.05c-0.17,0.36-0.33,0.72-0.49,1.08c-0.35,0.78-0.68,1.56-0.98,2.33c-0.03,0.09-0.07,0.17-0.1,0.26
		c-0.13,0.34-0.26,0.68-0.37,1.02c-0.08,0.22-0.15,0.43-0.22,0.64c-0.02,0.05-0.03,0.1-0.04,0.15c-0.09,0.26-0.17,0.52-0.24,0.77
		c-0.09,0.31-0.17,0.61-0.24,0.91c-0.02,0.07-0.04,0.14-0.05,0.21c-0.05,0.19-0.09,0.39-0.13,0.58c-0.05,0.24-0.1,0.48-0.13,0.71
		c-0.02,0.13-0.04,0.25-0.06,0.37c-0.01,0.06-0.01,0.11-0.02,0.16c-0.01,0.06-0.01,0.11-0.02,0.17c-0.02,0.15-0.04,0.29-0.05,0.43
		c0,0,0,0.62,0,1.7c-0.54-0.49-1.22-1.12-2-1.86c-0.46-0.43-0.95-0.91-1.47-1.42c-0.34-0.32-0.69-0.67-1.05-1.02
		c-0.22-0.22-0.45-0.45-0.69-0.69c-4.12-4.14-9.18-9.7-12.2-14.74c-0.11-0.19-0.22-0.38-0.33-0.57c-0.12-0.2-0.23-0.4-0.33-0.59
		c-0.14-0.25-0.26-0.49-0.38-0.72c-0.16-0.31-0.3-0.62-0.44-0.93c-0.12-0.27-0.24-0.54-0.34-0.81c-0.1-0.26-0.2-0.52-0.28-0.77
		v-0.01c-0.08-0.24-0.15-0.47-0.21-0.7c-0.01-0.04-0.02-0.08-0.03-0.11c-0.06-0.23-0.11-0.46-0.15-0.69
		c-0.04-0.19-0.07-0.39-0.09-0.58c-0.01-0.12-0.03-0.24-0.03-0.35c-0.03-0.43-0.02-0.85,0.03-1.24c0.16-1.18,0.51-2.73,1.03-4.55
		c0.09-0.31,0.19-0.62,0.29-0.95c0.76-2.53,1.82-5.49,3.13-8.63c0.1-0.24,0.2-0.47,0.3-0.71c0.11-0.27,0.23-0.54,0.34-0.81
		c0.2-0.45,0.4-0.9,0.6-1.35c0.01-0.02,0.02-0.04,0.02-0.06c3.8-8.43,9.13-17.46,15.04-22.4c0.02-0.01,0.03-0.03,0.05-0.04h-0.03
		c-3.25-0.2-6.3-1.36-8.83-3.22c-0.17-0.11-0.33-0.25-0.5-0.38c-0.4-0.32-0.79-0.66-1.16-1.02c-0.18-0.18-0.36-0.36-0.54-0.55
		c-0.66-0.69-1.25-1.45-1.77-2.25c-0.26-0.37-0.48-0.75-0.69-1.14c-0.11-0.2-0.21-0.4-0.31-0.6c-0.1-0.2-0.19-0.4-0.29-0.61
		c-0.11-0.25-0.21-0.5-0.31-0.76c-0.07-0.16-0.13-0.33-0.19-0.5c-0.22-0.64-0.41-1.3-0.55-1.98c-0.81-3.8-0.15-7.42,1.64-10.45
		c0-0.01,0.01-0.01,0.01-0.02c-1.52-0.75-2.92-1.71-4.17-2.87c-0.18-0.17-0.35-0.34-0.52-0.51c-0.82-0.84-1.56-1.76-2.2-2.77
		c-2.51-3.89-3.35-8.53-2.36-13.05c0.06-0.28,0.13-0.55,0.2-0.82c0.14-0.53,0.31-1.06,0.51-1.56c0.24-0.62,0.51-1.21,0.81-1.78
		c1.33-2.45,3.28-4.42,5.67-5.81c-0.14-0.15-0.29-0.28-0.42-0.43c-3.25-3.66-4.71-8.32-4.1-13.12c0.39-3.06,1.7-5.99,3.63-8.53
		c0.48-0.63,1-1.24,1.57-1.83c0.21-0.22,0.42-0.43,0.64-0.64c0.38-0.37,0.78-0.72,1.18-1.07c0.01,0,0.01,0,0.01,0
		c1.23-1.02,2.56-1.92,3.98-2.67c0.48-0.62,0.95-1.23,1.42-1.84c0.46-0.6,0.94-1.2,1.41-1.78c0.47-0.59,0.94-1.16,1.4-1.73
		c0.47-0.57,0.93-1.13,1.39-1.68c0.46-0.55,0.92-1.09,1.38-1.63c0.92-1.07,1.82-2.11,2.72-3.11c0.59-0.66,1.18-1.3,1.77-1.93
		c0.3-0.33,0.61-0.66,0.91-0.98c1.32-1.42,2.64-2.76,3.94-4.03c0.43-0.42,0.86-0.84,1.29-1.25c0.42-0.41,0.85-0.81,1.27-1.21
		c0.83-0.77,1.67-1.53,2.48-2.25c0.01-0.01,0.01-0.01,0.02-0.02c-1.25,0.52-2.59,0.78-3.92,0.79c-0.03,0-0.06,0-0.08,0
		c-0.25,0-0.49-0.01-0.74-0.03c-0.01,0-0.02,0-0.03,0c-0.79-0.06-1.58-0.22-2.34-0.46c-0.09-0.04-0.18-0.07-0.27-0.09
		c-0.27-0.1-0.53-0.21-0.78-0.32c-0.15-0.07-0.3-0.14-0.44-0.21c-0.29-0.15-0.58-0.32-0.86-0.49c-0.56-0.36-1.09-0.78-1.59-1.26
		c-2.13-2.05-3.21-4.79-3.21-7.54c0-0.56,0.05-1.12,0.14-1.68c0.04-0.23,0.08-0.46,0.13-0.69c0.01-0.03,0.02-0.05,0.02-0.07
		c0.05-0.22,0.11-0.43,0.18-0.64c0.09-0.31,0.2-0.61,0.32-0.9c0.07-0.17,0.14-0.33,0.22-0.49c0.12-0.27,0.26-0.53,0.41-0.78
		c0.08-0.14,0.17-0.28,0.26-0.41c0.09-0.15,0.19-0.3,0.3-0.44c0.1-0.13,0.2-0.26,0.3-0.39c0.16-0.21,0.34-0.41,0.52-0.6
		c0.11-0.12,0.3-0.32,0.55-0.57c0.09-0.08,0.18-0.18,0.27-0.27c1.69-1.72,3.5-3.35,5.42-4.82c0.02-0.02,0.04-0.03,0.06-0.05
		c0.31-0.23,0.63-0.47,0.94-0.69c0.33-0.24,0.66-0.47,1-0.7c0.36-0.24,0.72-0.48,1.09-0.71c0.37-0.23,0.74-0.45,1.11-0.67
		c1.13-0.66,2.29-1.25,3.48-1.78c0.78-0.35,1.58-0.67,2.39-0.95c0.42-0.15,0.84-0.29,1.27-0.42c2.68-0.81,5.19-1.21,7.63-1.21
		c2.18,0,4.3,0.32,6.41,0.94c2.11,0.61,4.23,1.53,6.4,2.73c1.78,0.99,3.46,2.25,5.03,3.55c0.47,0.39,0.96,0.87,1.44,1.41
		c0.81,0.9,1.61,1.98,2.36,3.17v0.01h0.03c0.51-0.04,1.01-0.07,1.5-0.1c0.28-0.01,0.56-0.02,0.84-0.02
		c0.21-0.01,0.42-0.01,0.62-0.01c0.82,0,1.6,0.03,2.35,0.08c0.57,0.04,1.12,0.1,1.64,0.17c0.15,0.01,0.3,0.03,0.45,0.05
		c1.82,0.25,3.39,0.64,4.69,1.06c0.45,0.14,0.87,0.29,1.26,0.44c0.71,0.27,1.32,0.54,1.81,0.78c0.04,0.02,0.08,0.04,0.12,0.06
		l0.01-0.01c0.03-0.01,0.06-0.03,0.1-0.05h0.01c0.14-0.07,0.3-0.15,0.48-0.22c0.22-0.1,0.45-0.21,0.71-0.31
		c0.55-0.23,1.19-0.47,1.91-0.69c0.91-0.29,1.94-0.56,3.08-0.79c1.73-0.34,3.75-0.57,6.03-0.57c0.2,0,0.41,0,0.62,0.01
		c0.12,0,0.24,0,0.36,0.01c0.16,0,0.32,0,0.48,0.01c0.5,0.03,1.01,0.06,1.53,0.1v-0.01c1.2-1.91,2.54-3.53,3.8-4.58
		c1.57-1.3,3.24-2.56,5.03-3.55c2.17-1.2,4.28-2.12,6.4-2.73c2.11-0.62,4.23-0.94,6.41-0.94c2.43,0,4.95,0.4,7.63,1.21
		c3.31,1,6.4,2.56,9.25,4.47c2.72,1.83,5.23,3.99,7.51,6.32c0.38,0.38,0.66,0.68,0.82,0.84c1.46,1.55,2.34,3.45,2.66,5.41
		c0.54,3.28-0.5,6.75-3.07,9.22c-1.99,1.91-4.54,2.86-7.09,2.86c-1.35,0-2.7-0.27-3.97-0.8c0.41,0.37,0.83,0.74,1.25,1.12
		c0.02,0.02,0.05,0.04,0.07,0.07c0.4,0.35,0.79,0.72,1.19,1.09c0.43,0.4,0.85,0.8,1.28,1.21c0.43,0.41,0.86,0.83,1.29,1.25
		c0.43,0.42,0.86,0.86,1.3,1.3c0.08,0.08,0.17,0.17,0.25,0.26h0.01c0.35,0.36,0.7,0.72,1.05,1.08c0.38,0.4,0.77,0.8,1.16,1.21
		c0.58,0.61,1.16,1.24,1.75,1.88c0.59,0.65,1.18,1.3,1.77,1.97c0.8,0.89,1.59,1.81,2.39,2.75c0.8,0.95,1.61,1.91,2.42,2.91
		c0.93,1.14,1.87,2.31,2.82,3.51c0.47,0.6,0.94,1.21,1.42,1.83v0.01c0.76,0.4,1.5,0.85,2.22,1.34c1.07,0.73,2.07,1.55,3,2.46
		c0.31,0.3,0.61,0.6,0.9,0.92c0.57,0.63,1.11,1.29,1.61,1.98c0.11,0.16,0.23,0.33,0.34,0.49c0.34,0.49,0.65,1,0.93,1.52
		c0.38,0.69,0.71,1.4,1,2.12c0.5,1.26,0.84,2.58,1.01,3.91c0.16,1.26,0.17,2.5,0.05,3.7c-0.04,0.47-0.11,0.93-0.2,1.39
		c-0.07,0.37-0.15,0.73-0.24,1.09c-0.06,0.26-0.13,0.51-0.22,0.76c-0.1,0.36-0.22,0.71-0.36,1.05c-0.37,0.93-0.81,1.83-1.34,2.69
		c-0.63,1.02-1.37,1.99-2.21,2.87c2.49,1.44,4.5,3.53,5.83,6.12c0.6,1.18,1.06,2.47,1.36,3.85
		C208.01,123.13,207.18,127.77,204.67,131.66z"/>
	<path style="fill:#FFFFFF;" d="M105.92,39.17c-6.58,0.55-14.78,3-24.33,9.25c-0.03,0.01-0.06,0.03-0.09,0.05
		c-1.27,0.73-2.5,1.6-3.64,2.52c-0.04,0.04-0.09,0.07-0.14,0.11c-2.32,1.7-4.72,3.63-7.18,5.8c-0.01,0.01-0.01,0.01-0.02,0.01
		c-1.26,0.52-2.61,0.79-3.95,0.79c-1.06,0-2.13-0.17-3.15-0.49c-0.09-0.04-0.18-0.07-0.27-0.09c-0.27-0.1-0.53-0.21-0.78-0.32
		c-0.15-0.07-0.3-0.14-0.44-0.21c-0.29-0.15-0.58-0.32-0.86-0.49c-0.56-0.36-1.09-0.78-1.59-1.26c-2.13-2.05-3.21-4.79-3.21-7.54
		c0-0.56,0.05-1.13,0.14-1.68c0.04-0.23,0.08-0.46,0.13-0.69c0.01-0.03,0.02-0.05,0.02-0.07c0.05-0.22,0.11-0.43,0.18-0.64
		c0.09-0.31,0.2-0.61,0.32-0.9c0.07-0.17,0.14-0.33,0.22-0.49c0.12-0.27,0.26-0.53,0.41-0.78c0.08-0.14,0.17-0.28,0.26-0.41
		c0.09-0.15,0.2-0.29,0.3-0.44c0.1-0.13,0.2-0.26,0.3-0.39c0.16-0.21,0.34-0.41,0.52-0.6c0.11-0.12,0.3-0.32,0.55-0.57
		c0.09-0.08,0.18-0.18,0.27-0.27c1.69-1.72,3.5-3.35,5.42-4.82c0.02-0.02,0.04-0.03,0.06-0.05c0.31-0.23,0.63-0.47,0.94-0.69
		c0.33-0.24,0.66-0.47,1-0.7c0.36-0.24,0.72-0.48,1.09-0.71c0.37-0.23,0.74-0.45,1.11-0.67c1.13-0.66,2.29-1.25,3.48-1.78
		c0.78-0.35,1.58-0.67,2.39-0.95c0.42-0.15,0.84-0.29,1.27-0.42c2.68-0.81,5.19-1.21,7.63-1.21c2.18,0,4.3,0.32,6.41,0.94
		c2.11,0.61,4.23,1.53,6.4,2.73c1.78,0.99,3.46,2.25,5.03,3.55c0.47,0.39,0.96,0.87,1.44,1.41
		C104.37,36.9,105.17,37.98,105.92,39.17z"/>
	<path style="fill:#0099ED;" d="M171.8,156.72c-1.53,0.79-3.16,1.42-4.86,1.89l-7.22,1.98l-0.84,0.23l-30.01,8.24l-9.93,15.82
		l-14.75-18.92l-22.27-6.71l-10.21-3.07c-0.13-0.04-0.26-0.08-0.39-0.13c0.46-0.49,0.89-1.02,1.28-1.57
		c0.15-0.2,0.29-0.41,0.43-0.62c0.05-0.07,0.09-0.15,0.14-0.22c8.36,5.26,18.6,7.74,28.31,8.05c10.88,0.34,21.61,0.54,32.49,0.21
		c2.34-0.08,4.71-0.14,7.02-0.21c9.71-0.31,19.95-2.79,28.31-8.05c0.05,0.07,0.09,0.15,0.14,0.22
		C170.13,154.91,170.92,155.87,171.8,156.72z"/>
	<path style="fill:#282F33;" d="M80.62,193.31c-1.17,0.48-2.57,1.13-4.04,1.97c-0.24,0.14-0.47,0.27-0.71,0.42
		c-0.24,0.14-0.48,0.29-0.72,0.45c-0.48,0.31-0.96,0.63-1.44,0.99c-0.05,0.03-0.09,0.06-0.14,0.1c-0.3,0.22-0.6,0.45-0.89,0.7
		c-0.34,0.27-0.68,0.55-1.01,0.86c-0.22,0.19-0.45,0.39-0.66,0.62c-0.21,0.19-0.42,0.39-0.62,0.61c-0.2,0.21-0.4,0.42-0.59,0.64
		c-0.14,0.14-0.27,0.29-0.38,0.44l-0.01,0.01c-0.12,0.12-0.22,0.25-0.31,0.37c-0.11,0.13-0.22,0.27-0.33,0.41
		c-0.16,0.21-0.32,0.42-0.47,0.64c-0.1,0.13-0.2,0.26-0.28,0.4c-0.01,0.02-0.03,0.04-0.04,0.06c-0.22,0.31-0.42,0.63-0.61,0.96
		c-0.24,0.39-0.46,0.79-0.67,1.21c-0.7,1.39-1.49,2.88-2.32,4.42c-0.42,0.79-0.85,1.59-1.28,2.4c-0.15,0.3-0.31,0.6-0.47,0.91
		c-0.19,0.37-0.39,0.74-0.58,1.12c-0.35,0.68-0.68,1.35-1.01,2.03c-0.17,0.35-0.34,0.7-0.5,1.05c-0.17,0.36-0.34,0.72-0.49,1.08
		c-0.35,0.78-0.68,1.56-0.98,2.33c-0.03,0.09-0.07,0.17-0.1,0.26c-0.13,0.34-0.26,0.68-0.37,1.02c-0.08,0.22-0.15,0.43-0.22,0.64
		c-0.02,0.05-0.03,0.1-0.04,0.15c-0.09,0.26-0.17,0.52-0.24,0.77c-0.09,0.31-0.17,0.61-0.24,0.91c-0.02,0.07-0.04,0.14-0.05,0.21
		c-0.05,0.19-0.1,0.39-0.13,0.58c-0.05,0.24-0.1,0.48-0.13,0.71c-0.03,0.13-0.05,0.25-0.06,0.37c-0.01,0.06-0.01,0.11-0.02,0.16
		c-0.01,0.06-0.01,0.11-0.02,0.17c-0.02,0.15-0.04,0.29-0.05,0.43c0,0,0,0.62,0,1.7c-0.54-0.49-1.22-1.12-2-1.86
		c-0.46-0.43-0.95-0.91-1.47-1.42c-0.34-0.32-0.69-0.67-1.05-1.02c-0.22-0.22-0.45-0.45-0.69-0.69c-4.12-4.14-9.18-9.7-12.2-14.74
		c-0.11-0.19-0.22-0.38-0.33-0.57c-0.12-0.2-0.23-0.4-0.33-0.59c-0.14-0.25-0.26-0.49-0.38-0.72c-0.16-0.31-0.3-0.62-0.44-0.93
		c-0.12-0.27-0.24-0.54-0.34-0.81c-0.1-0.26-0.2-0.52-0.28-0.77v-0.01c-0.08-0.24-0.15-0.47-0.21-0.7
		c-0.01-0.04-0.02-0.08-0.03-0.11c-0.06-0.23-0.11-0.46-0.15-0.69c-0.04-0.19-0.07-0.39-0.09-0.58c-0.01-0.12-0.03-0.24-0.03-0.35
		c-0.03-0.43-0.02-0.85,0.03-1.24c0.16-1.18,0.51-2.73,1.03-4.55c0.09-0.31,0.19-0.62,0.29-0.95c0.76-2.53,1.82-5.49,3.13-8.63
		c0.1-0.24,0.2-0.47,0.3-0.71c0.11-0.27,0.23-0.54,0.34-0.81c0.2-0.45,0.4-0.9,0.6-1.35c0.01-0.02,0.02-0.04,0.02-0.06
		c3.8-8.43,9.13-17.46,15.04-22.4c0.33,0.03,0.67,0.04,1.01,0.04c1.15,0,2.31-0.12,3.44-0.36c2.43-0.52,4.67-1.55,6.59-3.02
		c0.58,0.22,1.18,0.42,1.78,0.6l9.33,2.8l-2.16,28.38c-3.44-1.15-7.79-2.44-11.99-3.22c-0.29-0.05-0.57-0.11-0.85-0.15
		c-0.33-0.06-0.65-0.11-0.97-0.16c-0.28-0.04-0.56-0.08-0.83-0.11c-0.31-0.05-0.61-0.08-0.9-0.11c-0.34-0.04-0.66-0.07-0.99-0.09
		c-0.35-0.04-0.71-0.06-1.05-0.07c-0.41-0.02-0.8-0.03-1.19-0.03c-1.62,0-3.09,0.16-4.33,0.55c-9.17,2.86-8.85,7.23-8.79,7.71
		c0.1,0.67,0.7,1.08,1.36,1.05c0.67-0.05,1.17-0.66,1.14-1.33c0-0.08,0.03-2.85,7.04-5.03c0.23-0.07,0.47-0.14,0.72-0.18
		c0.35-0.09,0.73-0.15,1.12-0.19c0.23-0.03,0.47-0.05,0.72-0.06c0.58-0.04,1.19-0.05,1.83-0.03c0.18,0.01,0.36,0.02,0.54,0.03
		c0.33,0.02,0.65,0.05,0.99,0.07c0.34,0.04,0.68,0.07,1.02,0.11c0.23,0.02,0.46,0.05,0.69,0.09c0.22,0.03,0.44,0.06,0.66,0.09
		c0.25,0.04,0.5,0.08,0.75,0.13c0.24,0.04,0.48,0.08,0.72,0.13c0.31,0.06,0.63,0.12,0.94,0.18c0.38,0.08,0.77,0.16,1.15,0.24
		c1.01,0.23,2.03,0.48,3.03,0.75c0.34,0.09,0.67,0.18,1,0.27c1.32,0.37,2.61,0.76,3.82,1.15c0.22,0.07,0.44,0.14,0.65,0.21
		c0.85,0.27,1.66,0.55,2.41,0.81c0.19,0.06,0.37,0.13,0.55,0.19s0.35,0.12,0.51,0.18C79.97,193.07,80.3,193.19,80.62,193.31z"/>
	<path d="M73.7,197.14c-0.04,0.03-0.09,0.07-0.13,0.1c0.05-0.04,0.09-0.07,0.14-0.1H73.7z"/>
	<path style="fill:#282F33;" d="M144.44,197.61c-0.98,0.05-1.95,0.11-2.91,0.17c-0.22,0.01-0.43,0.02-0.65,0.04
		c0.41-0.33,0.48-0.47,1.22-0.86C142.43,196.79,143.84,196.56,144.44,197.61z"/>
	<path style="fill:#673101;" d="M182.99,54.84c-1.99,1.91-4.54,2.86-7.09,2.86c-1.35,0-2.7-0.27-3.97-0.8
		c-2.71-2.39-5.34-4.49-7.89-6.31c0.38-1.38,1.42-2.55,2.89-2.92c0.8-0.22,1.6-0.1,2.34,0.14c-0.9-0.54-1.6-1.41-1.89-2.51
		c-0.57-2.22,0.76-4.48,2.95-5.07c1.03-0.27,2.05-0.09,2.92,0.37c-0.77-0.55-1.38-1.33-1.64-2.3c-0.32-1.27-0.02-2.54,0.7-3.52
		l-0.01-0.02c0,0,0.23-0.36,0.74-0.76c0.05-0.04,0.1-0.08,0.15-0.11c0.13-0.1,0.28-0.19,0.45-0.28c0.07-0.04,0.15-0.09,0.23-0.12
		c0.34-0.17,0.74-0.33,1.2-0.44c2.72,1.83,5.23,3.99,7.51,6.32c0.38,0.38,0.66,0.68,0.82,0.84c1.46,1.55,2.34,3.45,2.66,5.41
		C186.6,48.9,185.56,52.37,182.99,54.84z"/>
	<path style="fill:#989898;" d="M207.03,118.61c-0.3-1.38-0.76-2.67-1.36-3.85c-1.31-2.6-3.31-4.7-5.79-6.15
		c0.14-0.13,0.26-0.26,0.38-0.4c0.69-0.77,1.29-1.59,1.79-2.44c0.55-0.86,0.99-1.76,1.34-2.69c0.14-0.34,0.26-0.69,0.36-1.05
		c0.09-0.25,0.16-0.5,0.22-0.76c0.09-0.36,0.17-0.72,0.24-1.09c0.09-0.46,0.16-0.92,0.2-1.39c0.12-1.2,0.11-2.44-0.05-3.7
		c-0.17-1.33-0.51-2.65-1.01-3.91c-0.29-0.72-0.62-1.43-1-2.12c-0.28-0.52-0.59-1.03-0.93-1.52c-0.11-0.16-0.23-0.33-0.34-0.49
		c-0.49-0.69-1.03-1.35-1.61-1.98c-0.29-0.32-0.59-0.62-0.9-0.92c-0.93-0.91-1.93-1.73-3-2.46c-0.71-0.49-1.45-0.95-2.22-1.35
		c-0.48-0.62-0.95-1.23-1.42-1.83c-0.94-1.21-1.88-2.38-2.82-3.51c-0.81-1-1.62-1.96-2.42-2.91c-0.8-0.94-1.59-1.86-2.39-2.75
		c-0.59-0.67-1.18-1.32-1.77-1.97c-0.59-0.64-1.17-1.27-1.75-1.88c-0.39-0.41-0.78-0.81-1.16-1.21c-0.35-0.36-0.7-0.72-1.05-1.08
		h-0.01c-0.08-0.09-0.17-0.18-0.25-0.26c-0.44-0.44-0.87-0.88-1.3-1.3c-0.43-0.42-0.86-0.84-1.29-1.25
		c-0.43-0.41-0.85-0.81-1.28-1.21c-0.4-0.37-0.79-0.74-1.19-1.09c-0.02-0.03-0.05-0.05-0.07-0.07c-0.42-0.38-0.84-0.75-1.25-1.12
		c-2.71-2.39-5.34-4.49-7.89-6.31c-10.92-7.87-20.19-10.8-27.49-11.42c-0.52-0.04-1.03-0.07-1.53-0.09
		c-0.16-0.01-0.32-0.01-0.48-0.01c-0.12-0.01-0.24-0.01-0.36-0.01c-0.21-0.01-0.42-0.01-0.62-0.01c-2.28,0-4.3,0.23-6.03,0.57
		c-1.14,0.23-2.17,0.5-3.08,0.79c-0.72,0.22-1.36,0.46-1.91,0.69c-0.26,0.1-0.49,0.21-0.71,0.31c-0.18,0.07-0.34,0.15-0.48,0.22
		h-0.01c-0.04,0.02-0.07,0.04-0.1,0.05c-0.03-0.02-0.06-0.03-0.1-0.05c-0.5-0.24-1.11-0.51-1.84-0.78c-0.39-0.15-0.81-0.3-1.26-0.44
		c-1.3-0.42-2.87-0.81-4.69-1.06c-0.15-0.02-0.3-0.04-0.45-0.05c-0.52-0.07-1.07-0.13-1.64-0.17c-0.75-0.05-1.53-0.08-2.35-0.08
		c-0.2,0-0.41,0-0.62,0.01c-0.28,0-0.56,0.01-0.84,0.02c-0.49,0.02-1,0.05-1.51,0.09c-0.01,0-0.01,0-0.02,0
		c-6.58,0.55-14.78,3-24.33,9.25c-0.03,0.01-0.06,0.03-0.09,0.05c-1.01,0.67-2.04,1.37-3.08,2.12c-0.19,0.13-0.37,0.27-0.56,0.4
		c-0.04,0.04-0.09,0.07-0.14,0.11c-2.32,1.7-4.72,3.63-7.18,5.8c-0.01,0.01-0.01,0.01-0.02,0.01c-0.01,0.01-0.01,0.01-0.02,0.02
		c-0.81,0.71-1.65,1.47-2.48,2.25c-0.42,0.4-0.85,0.8-1.27,1.21c-0.43,0.41-0.86,0.83-1.29,1.25c-1.3,1.27-2.62,2.61-3.94,4.03
		c-0.3,0.32-0.61,0.65-0.91,0.98c-0.59,0.63-1.18,1.27-1.77,1.93c-0.9,1-1.81,2.04-2.72,3.11c-0.46,0.54-0.92,1.08-1.38,1.63
		c-0.46,0.55-0.92,1.11-1.39,1.68c-0.46,0.57-0.93,1.14-1.4,1.73c-0.47,0.58-0.95,1.18-1.41,1.78c-0.48,0.6-0.95,1.2-1.42,1.82
		c-1.41,0.75-2.75,1.65-3.98,2.69c0,0,0,0-0.01,0c-0.4,0.35-0.8,0.7-1.18,1.07c-0.22,0.21-0.43,0.42-0.64,0.64
		c-0.57,0.59-1.09,1.2-1.57,1.83c-1.93,2.54-3.24,5.47-3.63,8.53c-0.61,4.8,0.85,9.46,4.1,13.12c0.12,0.14,0.24,0.27,0.38,0.4
		c-2.39,1.39-4.32,3.38-5.63,5.84c-0.3,0.57-0.57,1.16-0.81,1.78c-0.2,0.5-0.37,1.03-0.51,1.56c-0.07,0.27-0.14,0.54-0.2,0.82
		c-0.99,4.52-0.15,9.16,2.36,13.05c0.64,1.01,1.38,1.93,2.2,2.77c0.17,0.17,0.34,0.34,0.52,0.51c1.24,1.16,2.64,2.14,4.16,2.89
		c-1.79,3.03-2.45,6.65-1.64,10.45c0.14,0.68,0.33,1.34,0.55,1.98c0.06,0.17,0.12,0.34,0.19,0.5c0.1,0.26,0.2,0.51,0.31,0.76
		c0.1,0.21,0.19,0.41,0.29,0.61c0.1,0.2,0.2,0.4,0.31,0.6c0.21,0.39,0.43,0.77,0.69,1.14c0.52,0.8,1.11,1.56,1.77,2.25
		c0.18,0.19,0.36,0.37,0.54,0.55c0.37,0.36,0.76,0.7,1.16,1.02c0.17,0.13,0.33,0.27,0.5,0.38c2.51,1.89,5.56,3.06,8.81,3.26
		c0.33,0.03,0.67,0.04,1.01,0.04c1.15,0,2.31-0.12,3.44-0.36c2.43-0.52,4.67-1.55,6.59-3.02c0.39-0.3,0.76-0.61,1.12-0.94
		c0.35-0.32,0.68-0.65,1-1c0.46-0.49,0.89-1.02,1.28-1.57c0.15-0.2,0.29-0.41,0.43-0.62c0.05-0.07,0.09-0.15,0.14-0.22
		c2.29-3.65,3.06-7.98,2.17-12.21c-1.01-4.74-3.97-8.36-8.1-10.25c0.96-1.58,1.67-3.34,2.08-5.21c1.12-5.14-0.31-9.98-3.59-13.57
		c4.51-2.56,7.64-7.12,8.36-12.78c0.4-3.16,0.14-6.45-0.76-9.47c5.64-10.85,15.52-25.3,30.42-32.06c1.2-0.54,2.42-1.04,3.69-1.47
		c4.21-1.47,8.8-2.31,13.76-2.32h0.07c3.65,0.01,7.1,0.47,10.35,1.3c2.67,0.67,5.21,1.6,7.61,2.73
		c14.59,6.85,24.3,21.05,29.89,31.77c-0.88,2.99-1.15,6.29-0.74,9.52c0.71,5.65,3.84,10.22,8.34,12.78
		c-0.32,0.35-0.63,0.71-0.91,1.08c-2.7,3.53-3.65,7.97-2.66,12.49c0.41,1.87,1.12,3.63,2.08,5.21c-4.13,1.89-7.09,5.51-8.1,10.25
		c-0.9,4.23-0.13,8.56,2.17,12.21c0.05,0.07,0.09,0.15,0.14,0.22c0.69,1.05,1.48,2.01,2.36,2.86c0.32,0.31,0.65,0.61,0.99,0.89
		c0.36,0.29,0.72,0.57,1.1,0.83h0.01c1.77,1.24,3.79,2.11,5.96,2.57c1.13,0.24,2.28,0.36,3.43,0.36c2.06,0,4.06-0.39,5.91-1.11
		c2.14-0.83,4.09-2.1,5.7-3.72c0.55-0.53,1.06-1.11,1.52-1.72c0.62-0.81,1.16-1.68,1.63-2.6c0.14-0.29,0.27-0.57,0.4-0.87
		c0.02-0.04,0.04-0.08,0.05-0.12c0.12-0.27,0.23-0.56,0.33-0.84c0.03-0.08,0.06-0.16,0.08-0.25c0.08-0.21,0.15-0.43,0.21-0.65
		c0.05-0.14,0.09-0.29,0.12-0.43c0.07-0.26,0.13-0.52,0.19-0.78c0.3-1.43,0.4-2.83,0.31-4.19c-0.02-0.3-0.05-0.61-0.09-0.91
		c-0.06-0.48-0.15-0.95-0.26-1.42c-0.09-0.35-0.18-0.69-0.29-1.03c-0.31-1.01-0.74-1.98-1.29-2.91c1.38-0.68,2.66-1.55,3.81-2.59
		c0.58-0.51,1.13-1.07,1.64-1.67c0.51-0.59,0.98-1.23,1.41-1.9C207.18,127.77,208.01,123.13,207.03,118.61z M72.38,142.06
		c0.75,3.53,0.05,7.04-1.71,9.88c-0.67,1.08-1.49,2.06-2.43,2.92c-0.34,0.31-0.7,0.61-1.07,0.88c-0.24,0.18-0.49,0.35-0.75,0.52
		h-0.01c-0.01,0-0.01,0-0.01,0c-0.15,0.1-0.31,0.19-0.46,0.28c-0.13,0.07-0.26,0.15-0.39,0.21c-0.09,0.05-0.17,0.1-0.26,0.14
		c-1.02,0.52-2.13,0.91-3.3,1.16c-0.95,0.2-1.89,0.3-2.82,0.3c-6.23,0-11.83-4.35-13.18-10.7c-0.7-3.31-0.06-6.3,1.54-8.72
		c0.38,0.11,0.77,0.21,1.17,0.3c1.07,0.23,2.16,0.37,3.25,0.39c0.15,0.01,0.29,0.01,0.44,0.01c0.3,0,0.6-0.01,0.89-0.03
		c0.43-0.02,0.86-0.06,1.28-0.11c1.61-0.21,3.15-0.64,4.61-1.26c0.93-0.41,1.83-0.89,2.68-1.45c0.43-0.28,0.85-0.58,1.26-0.91
		c0.83-0.65,1.61-1.39,2.31-2.19C68.87,135.05,71.5,137.89,72.38,142.06z M66.37,125.33c-0.39,1.78-1.1,3.42-2.04,4.85
		c-0.66,0.99-1.43,1.88-2.29,2.66c-1.2,1.1-2.57,1.98-4.05,2.62c-1.37,0.59-2.85,0.97-4.37,1.1c-0.41,0.03-0.82,0.05-1.23,0.05
		h-0.06c-0.44,0-0.89-0.02-1.34-0.07c-0.39-0.04-0.77-0.1-1.16-0.17c-0.17-0.02-0.33-0.05-0.49-0.09c-0.99-0.22-1.93-0.53-2.82-0.93
		c-6.06-2.7-9.6-9.37-8.13-16.1c0.89-4.09,3.34-6.95,6.6-8.49c0.87,0.64,1.78,1.21,2.75,1.69c0.41,0.22,0.84,0.41,1.27,0.6
		c0.4,0.17,0.81,0.32,1.23,0.47c1.34,0.46,2.75,0.8,4.2,0.98c0.8,0.09,1.59,0.15,2.37,0.16h0.15c2.06,0,4.02-0.33,5.83-0.94
		C65.87,116.57,67.39,120.65,66.37,125.33z M71.09,99.24c-0.65,5.17-3.6,9.06-7.73,11.02c-1.19,0.55-2.47,0.95-3.83,1.17
		c-0.69,0.12-1.4,0.18-2.12,0.2c-0.15,0.01-0.3,0.01-0.45,0.01c-0.7,0-1.41-0.05-2.14-0.14c-1.58-0.2-3.09-0.6-4.5-1.18
		c-0.42-0.18-0.83-0.36-1.22-0.57c-0.1-0.05-0.2-0.1-0.3-0.15c-0.32-0.17-0.63-0.35-0.94-0.55c-0.83-0.52-1.61-1.11-2.32-1.76
		c-3.2-2.93-5.03-7.12-4.43-11.82c0.25-1.98,0.98-3.9,2.07-5.65c1.63-2.65,4.07-4.94,6.86-6.52c1.33-0.76,2.74-1.35,4.18-1.75
		c0.5-0.14,1.01-0.25,1.52-0.35c0.49-0.08,0.97-0.14,1.46-0.18c0.36-0.03,0.72-0.04,1.08-0.04c0.55,0,1.1,0.03,1.64,0.1
		c0.57,0.07,1.12,0.18,1.65,0.33c0.47,0.12,0.92,0.27,1.36,0.45c1.13,0.46,2.16,1.1,3.07,1.87c2,1.7,3.44,4.06,4.3,6.72
		c0.43,1.32,0.71,2.71,0.85,4.13C71.31,96.12,71.28,97.69,71.09,99.24z M118.72,44.15c-0.03,0.14-0.04,0.28-0.04,0.42v7.29
		c-1.48,0.08-2.92,0.23-4.33,0.45c-0.01,0-0.02,0-0.02,0c-1.71,0.26-3.37,0.62-4.98,1.06c-3,0.82-5.82,1.93-8.48,3.27
		c-13.71,6.89-23.05,19.87-28.76,30.34c-0.47-0.96-1-1.86-1.62-2.71c-0.3-0.44-0.63-0.86-1-1.26c-0.71-0.82-1.49-1.56-2.36-2.21
		c-0.68-0.51-1.41-0.96-2.19-1.34c-0.47-0.24-0.96-0.45-1.47-0.62c-0.82-0.3-1.69-0.53-2.61-0.67c-0.18-0.04-0.37-0.07-0.56-0.09
		c-0.4-0.05-0.82-0.08-1.23-0.1c-0.13,0-0.26-0.01-0.39-0.01c-0.13-0.01-0.27-0.01-0.4-0.01c-0.35,0-0.69,0.01-1.03,0.03
		c-0.49,0.03-0.98,0.08-1.47,0.15c-0.69,0.1-1.37,0.23-2.05,0.41c1.88-2.36,3.73-4.58,5.55-6.66c3.9-4.47,7.66-8.3,11.25-11.59
		c1.38-1.26,2.73-2.45,4.06-3.55c0.81-0.68,1.61-1.32,2.4-1.94c0.01-0.01,0.03-0.02,0.04-0.03c4.64-3.63,8.98-6.32,12.97-8.3
		c6.79-3.36,12.61-4.64,17.32-4.87c0.55-0.03,1.08-0.04,1.59-0.04c1.35,0,2.6,0.09,3.74,0.23c1.96,0.24,3.61,0.66,4.92,1.09
		c0.52,0.17,0.99,0.35,1.4,0.52C118.85,43.64,118.76,43.89,118.72,44.15z M170.33,86.92c-5.74-10.52-15.16-23.55-28.97-30.39
		c-3.28-1.64-6.81-2.91-10.6-3.72c-0.07-0.02-0.13-0.04-0.2-0.05c-2.17-0.47-4.43-0.77-6.77-0.9c-0.83-0.05-1.67-0.08-2.52-0.08
		h-0.07v-7.21c0,0,0.01-0.01,0.04-0.02c0.08-0.06,0.31-0.2,0.68-0.4c0.38-0.21,0.91-0.46,1.58-0.74c0.38-0.16,0.81-0.32,1.29-0.48
		c1.09-0.37,2.41-0.72,3.97-0.98c1.3-0.21,2.78-0.36,4.4-0.37c0.13-0.01,0.27-0.01,0.4-0.01c5,0,11.43,1.18,19.09,5
		c3.92,1.95,8.17,4.61,12.72,8.15c3.08,2.4,6.29,5.2,9.63,8.48c4.36,4.27,8.95,9.34,13.75,15.35c-1.5-0.38-3.03-0.59-4.57-0.59
		c-0.1,0-0.21,0-0.31,0.01c-0.15,0-0.3,0-0.46,0.01c-0.3,0.01-0.6,0.03-0.9,0.07c-0.12,0-0.23,0.02-0.34,0.03
		c-0.19,0.02-0.37,0.05-0.56,0.09c-0.14,0.02-0.27,0.04-0.41,0.07c-0.76,0.14-1.49,0.34-2.2,0.6c-0.5,0.18-0.98,0.38-1.45,0.62
		c-0.78,0.38-1.51,0.82-2.21,1.34c-0.86,0.62-1.66,1.35-2.39,2.17c-0.36,0.4-0.69,0.82-1,1.27c-0.41,0.55-0.78,1.12-1.12,1.73
		C170.66,86.28,170.49,86.6,170.33,86.92z M171.38,99.24c-0.2-1.55-0.22-3.13-0.06-4.67c0.14-1.42,0.42-2.82,0.85-4.13
		c0.86-2.66,2.31-5.01,4.3-6.7c0.92-0.78,1.94-1.42,3.08-1.88c0.43-0.18,0.88-0.33,1.35-0.45c0.53-0.15,1.08-0.26,1.65-0.33
		c0.01,0,0.01,0,0.02,0c0.43-0.06,0.88-0.09,1.32-0.09c0.1-0.01,0.19-0.01,0.29-0.01c0.37,0,0.74,0.02,1.11,0.05
		c2.44,0.19,4.9,1,7.14,2.27c2.79,1.58,5.23,3.87,6.86,6.52c1.09,1.75,1.82,3.67,2.07,5.65c0.59,4.69-1.23,8.88-4.43,11.82
		c-0.97,0.89-2.07,1.67-3.26,2.31c-0.55,0.29-1.11,0.56-1.7,0.79c-0.4,0.16-0.81,0.3-1.23,0.44c-0.4,0.13-0.81,0.24-1.23,0.34
		c-0.61,0.14-1.23,0.25-1.86,0.33c-0.73,0.09-1.44,0.14-2.15,0.14c-0.15,0-0.3,0-0.44-0.01c-0.73-0.02-1.43-0.08-2.12-0.2
		c-1.36-0.22-2.65-0.62-3.83-1.17C174.97,108.3,172.03,104.41,171.38,99.24z M196.48,147.65c-1.15,5.43-5.41,9.39-10.52,10.43
		c-0.87,0.18-1.76,0.27-2.67,0.27c-0.92,0-1.86-0.1-2.81-0.3c-1.36-0.29-2.63-0.77-3.79-1.42c-0.4-0.22-0.78-0.46-1.15-0.72
		c-0.36-0.25-0.71-0.52-1.04-0.8c-0.63-0.54-1.21-1.14-1.72-1.79c-0.36-0.44-0.68-0.9-0.98-1.38c-1.76-2.85-2.47-6.35-1.72-9.88
		c0.89-4.18,3.52-7.02,6.97-8.38c0.7,0.8,1.48,1.54,2.31,2.19c0.41,0.33,0.83,0.63,1.26,0.91c0.85,0.56,1.74,1.04,2.68,1.45
		c0.71,0.3,1.45,0.56,2.2,0.77c0.4,0.12,0.82,0.22,1.23,0.3c0.41,0.08,0.83,0.15,1.26,0.2c0.68,0.09,1.38,0.13,2.08,0.13
		c1.24,0,2.48-0.14,3.7-0.4c0.4-0.09,0.79-0.18,1.17-0.3C196.54,141.35,197.18,144.34,196.48,147.65z M195.94,135.36
		c-0.89,0.39-1.83,0.71-2.81,0.92c-0.16,0.04-0.33,0.07-0.49,0.09c-0.86,0.16-1.72,0.24-2.57,0.24c-0.41,0-0.81-0.02-1.21-0.05
		c-0.42-0.04-0.84-0.09-1.26-0.16c-0.41-0.08-0.82-0.18-1.22-0.29c-0.65-0.17-1.28-0.39-1.89-0.66c-1.49-0.62-2.87-1.51-4.07-2.61
		c-0.86-0.78-1.63-1.67-2.28-2.66c-0.95-1.43-1.66-3.07-2.04-4.85c-1.02-4.68,0.5-8.76,3.58-11.61c1.81,0.61,3.76,0.94,5.82,0.94
		h0.16c0.78-0.01,1.57-0.07,2.36-0.16c0.52-0.07,1.04-0.15,1.55-0.26c0.42-0.08,0.83-0.18,1.24-0.29c0.42-0.11,0.83-0.23,1.24-0.37
		c1.97-0.66,3.8-1.61,5.43-2.82c3.26,1.54,5.71,4.41,6.6,8.49C205.55,125.99,201.99,132.65,195.94,135.36z"/>
	<path style="fill:#673101;" d="M78.42,50.59c-2.54,1.83-5.17,3.92-7.88,6.31c-0.01,0.01-0.01,0.01-0.02,0.01
		c-1.26,0.52-2.61,0.79-3.95,0.79c-2.55,0-5.1-0.95-7.09-2.86c-2.57-2.47-3.61-5.94-3.07-9.22c0.31-1.96,1.2-3.86,2.66-5.41
		c0.15-0.16,0.44-0.46,0.82-0.84c2.26-2.3,4.73-4.44,7.42-6.26c0.24,0.04,0.43,0.08,0.57,0.11c0,0,0.01,0,0.02,0
		c0.02,0.01,0.03,0.02,0.05,0.02c0.1,0.03,0.16,0.05,0.16,0.05v0.01c2.07,0.67,3.3,2.85,2.74,5c-0.25,0.97-0.87,1.75-1.64,2.3
		c0.88-0.46,1.9-0.64,2.93-0.37c2.19,0.59,3.52,2.85,2.94,5.07c-0.28,1.1-0.98,1.97-1.88,2.51c0.74-0.24,1.54-0.36,2.34-0.14
		C77.01,48.04,78.04,49.21,78.42,50.59z"/>
</g>
<g>
	<path style="fill-rule:evenodd;clip-rule:evenodd;" d="M124.26,113.94c0,1.27-1.34,2.3-3.02,2.3c-1.68,0-3.03-1.03-3.03-2.3
		c0-1.26,1.35-2.3,3.03-2.3C122.92,111.64,124.26,112.68,124.26,113.94L124.26,113.94z"/>
	<path style="fill-rule:evenodd;clip-rule:evenodd;" d="M138.62,111.19L138.62,111.19c-2.27,0-4.11-1.71-4.11-3.82v-0.53
		c0-2.11,1.84-3.82,4.11-3.82s4.11,1.71,4.11,3.82v0.53C142.73,109.49,140.89,111.19,138.62,111.19L138.62,111.19z"/>
	<path style="fill-rule:evenodd;clip-rule:evenodd;" d="M103.84,111.19L103.84,111.19c-2.27,0-4.11-1.71-4.11-3.82v-0.53
		c0-2.11,1.84-3.82,4.11-3.82s4.11,1.71,4.11,3.82v0.53C107.95,109.49,106.11,111.19,103.84,111.19L103.84,111.19z"/>
	<path style="fill:#231815;" d="M137.21,127.93c-0.18-0.82-1.01-1.33-1.8-1.15c-0.61,0.14-1.05,0.62-1.16,1.2
		c-1.97,0.75-8.69-0.5-11.85-6.13c-0.01-0.02-0.03-0.04-0.05-0.07c-0.03-0.05-0.07-0.1-0.11-0.15c-0.03-0.04-0.06-0.07-0.09-0.1
		c-0.04-0.04-0.07-0.07-0.11-0.11c-0.04-0.04-0.09-0.06-0.14-0.09c-0.03-0.02-0.05-0.04-0.08-0.06c-0.01-0.01-0.02-0.01-0.03-0.01
		c-0.05-0.03-0.11-0.05-0.16-0.07c-0.04-0.02-0.08-0.03-0.12-0.05c-0.05-0.01-0.1-0.02-0.15-0.03c-0.05-0.01-0.09-0.02-0.14-0.02
		c-0.05,0-0.09,0-0.14,0c-0.05,0-0.1,0-0.15,0c-0.04,0-0.08,0.01-0.12,0.02c-0.06,0.01-0.11,0.02-0.17,0.04
		c-0.03,0.01-0.06,0.02-0.09,0.04c-0.06,0.02-0.13,0.05-0.19,0.08c-0.01,0-0.01,0.01-0.02,0.01c-0.02,0.01-0.04,0.03-0.06,0.04
		c-0.06,0.04-0.11,0.07-0.16,0.12c-0.03,0.03-0.06,0.06-0.09,0.09c-0.04,0.04-0.08,0.07-0.11,0.12c-0.03,0.04-0.06,0.09-0.09,0.13
		c-0.02,0.03-0.04,0.05-0.06,0.08c-2.49,4.44-9.73,7.41-11.54,6.94c-0.11-0.57-0.55-1.05-1.16-1.18c-0.81-0.19-1.62,0.33-1.8,1.15
		c-0.19,0.85,0.17,2,1.39,2.65c0.54,0.29,1.22,0.42,1.98,0.42c3.63,0,9.29-2.98,12.4-6.6c3.26,4.14,8.27,5.95,11.82,5.95
		c1.2,0,2.23-0.21,2.97-0.6C137.04,129.93,137.39,128.78,137.21,127.93z"/>
</g>
</svg>
