<?xml version="1.0" encoding="utf-8"?>
<!-- Generator: Adobe Illustrator 26.5.0, SVG Export Plug-In . SVG Version: 6.00 Build 0)  -->
<svg version="1.1" id="레이어_1" xmlns="http://www.w3.org/2000/svg" xmlns:xlink="http://www.w3.org/1999/xlink" x="0px"
	 y="0px" viewBox="0 0 309 81" style="enable-background:new 0 0 309 81;" xml:space="preserve">
<g>
	<g>
		<g>
			<g>
				<rect x="85.5" y="10.7" style="fill:#63ACFF;" width="65.4" height="59.6"/>
			</g>
			<g>
				<path style="fill:#5282FF;" d="M151,74.1H85.5c-2.3,0-4.2-1.7-4.2-3.8c0-2.1,1.9-3.8,4.2-3.8h61.2V10.7c0-2.1,1.9-3.8,4.2-3.8
					c2.3,0,4.2,1.7,4.2,3.8v59.6C155.2,72.4,153.3,74.1,151,74.1z"/>
			</g>
			<g>
				<path style="fill:#78ECFF;" d="M85.5,74.1c-2.3,0-4.2-1.7-4.2-3.8V10.7c0-2.1,1.9-3.8,4.2-3.8H151c2.3,0,4.2,1.7,4.2,3.8
					s-1.9,3.8-4.2,3.8H89.7v55.8C89.7,72.4,87.9,74.1,85.5,74.1z"/>
			</g>
		</g>
		<g>
			<g>
				<rect x="11.7" y="10.7" style="fill:#63ACFF;" width="65.4" height="59.6"/>
			</g>
			<g>
				<path style="fill:#5282FF;" d="M77.1,74.1H11.7c-2.3,0-4.2-1.7-4.2-3.8c0-2.1,1.9-3.8,4.2-3.8h61.2V10.7c0-2.1,1.9-3.8,4.2-3.8
					s4.2,1.7,4.2,3.8v59.6C81.3,72.4,79.5,74.1,77.1,74.1z"/>
			</g>
			<g>
				<path style="fill:#78ECFF;" d="M11.7,74.1c-2.3,0-4.2-1.7-4.2-3.8V10.7c0-2.1,1.9-3.8,4.2-3.8h65.4c2.3,0,4.2,1.7,4.2,3.8
					s-1.9,3.8-4.2,3.8H15.9v55.8C15.9,72.4,14,74.1,11.7,74.1z"/>
			</g>
		</g>
		<g>
			<g>
				<rect x="158.8" y="10.7" style="fill:#63ACFF;" width="65.4" height="59.6"/>
			</g>
			<g>
				<path style="fill:#5282FF;" d="M224.2,74.1h-65.4c-2.3,0-4.2-1.7-4.2-3.8c0-2.1,1.9-3.8,4.2-3.8H220V10.7c0-2.1,1.9-3.8,4.2-3.8
					c2.3,0,4.2,1.7,4.2,3.8v59.6C228.4,72.4,226.5,74.1,224.2,74.1z"/>
			</g>
			<g>
				<path style="fill:#78ECFF;" d="M158.8,74.1c-2.3,0-4.2-1.7-4.2-3.8V10.7c0-2.1,1.9-3.8,4.2-3.8h65.4c2.3,0,4.2,1.7,4.2,3.8
					s-1.9,3.8-4.2,3.8H163v55.8C163,72.4,161.1,74.1,158.8,74.1z"/>
			</g>
		</g>
		<g>
			<g>
				<rect x="232" y="10.7" style="fill:#63ACFF;" width="65.4" height="59.6"/>
			</g>
			<g>
				<path style="fill:#5282FF;" d="M297.4,74.1H232c-2.3,0-4.2-1.7-4.2-3.8c0-2.1,1.9-3.8,4.2-3.8h61.2V10.7c0-2.1,1.9-3.8,4.2-3.8
					s4.2,1.7,4.2,3.8v59.6C301.6,72.4,299.7,74.1,297.4,74.1z"/>
			</g>
			<g>
				<path style="fill:#78ECFF;" d="M232,74.1c-2.3,0-4.2-1.7-4.2-3.8V10.7c0-2.1,1.9-3.8,4.2-3.8h65.4c2.3,0,4.2,1.7,4.2,3.8
					s-1.9,3.8-4.2,3.8h-61.2v55.8C236.2,72.4,234.3,74.1,232,74.1z"/>
			</g>
		</g>
	</g>
	<path d="M297.3,6.9c2.3,0,4.2,1.7,4.2,3.8v59.6c0,2.1-1.9,3.8-4.2,3.8h-65.4c-1.8,0-3.3-1-3.9-2.5c-0.6,1.5-2.1,2.5-3.9,2.5h-65.4
		c-1.8,0-3.3-1-3.9-2.5c-0.6,1.5-2.1,2.5-3.9,2.5H85.4c-2.2,0-4-1.6-4.1-3.6c-0.1,2-1.9,3.6-4.1,3.6H11.7c-2.3,0-4.2-1.7-4.2-3.8
		V10.7c0-2.1,1.9-3.8,4.2-3.8h65.4c2.2,0,4,1.6,4.1,3.6c0.1-2,1.9-3.6,4.1-3.6h65.4c1.8,0,3.3,1,3.9,2.5c0.6-1.5,2.1-2.5,3.9-2.5
		h65.4c1.8,0,3.3,1,3.9,2.5c0.6-1.5,2.1-2.5,3.9-2.5H297.3 M297.3,0h-65.4c-1.4,0-2.7,0.2-3.9,0.6c-1.2-0.4-2.5-0.6-3.9-0.6h-65.4
		c-1.4,0-2.7,0.2-3.9,0.6c-1.2-0.4-2.5-0.6-3.9-0.6H85.4c-1.5,0-2.9,0.2-4.1,0.7C80,0.2,78.6,0,77.1,0H11.7C5.3,0,0,4.8,0,10.7v59.6
		C0,76.2,5.3,81,11.7,81h65.4c1.5,0,2.9-0.2,4.1-0.7c1.3,0.5,2.7,0.7,4.1,0.7h65.4c1.4,0,2.7-0.2,3.9-0.6c1.2,0.4,2.5,0.6,3.9,0.6
		h65.4c1.4,0,2.7-0.2,3.9-0.6c1.2,0.4,2.5,0.6,3.9,0.6h65.4c6.5,0,11.7-4.8,11.7-10.7V10.7C309,4.8,303.7,0,297.3,0L297.3,0z"/>
</g>
</svg>
