<?xml version="1.0" encoding="utf-8"?>
<!-- Generator: Adobe Illustrator 24.1.1, SVG Export Plug-In . SVG Version: 6.00 Build 0)  -->
<svg version="1.1" id="Layer_1" xmlns="http://www.w3.org/2000/svg" xmlns:xlink="http://www.w3.org/1999/xlink" x="0px" y="0px"
	 viewBox="0 0 960 490" style="enable-background:new 0 0 960 490;" xml:space="preserve">
<g>
	<path style="fill:#F1580B;" d="M940.75,214.47c-15.6,5.75-34.5-7.58-34.5-7.58c1.41,16.06-15.6,23.64-15.6,23.64
		c-11.34-3.94-8.98-21.82-8.98-21.82c-18.43,7.57-38.76,0-38.76,0c5.2-12.43,29.31-15.76,29.31-15.76
		c-19.38-6.06-18.44-14.85-18.44-14.85c18.44-3.33,37.34,3.94,37.34,3.94c-6.14-11.82,4.73-17.27,4.73-17.27
		c10.4,1.51,12.29,16.66,12.29,16.66c1.41-6.66,8.98-8.18,8.98-8.18c2.5,2.14,1.73,6.38,0.67,9.5
		c-25.47,14.38-58.89,21.66-59.34,21.75c-1.28,0.27-1.97,1.16-1.54,1.97c0.34,0.66,1.29,1.07,2.31,1.07c0.25,0,0.51-0.02,0.77-0.08
		c1.83-0.39,34.42-7.49,60.16-21.83c9.19-1.19,20.6,3.38,20.6,3.38c-4.34,5.83-17.79,5.55-20.01,5.47
		C935.16,195.49,940.75,214.47,940.75,214.47z"/>
	<g>
		<g>
			<path style="fill:#AE400C;" d="M942.89,168.09c-5.71,6.73-13.82,12.57-22.74,17.54c-25.74,14.34-58.33,21.44-60.16,21.83
				c-0.26,0.06-0.52,0.08-0.77,0.08c-1.02,0-1.97-0.41-2.31-1.07c-0.43-0.81,0.26-1.7,1.54-1.97c0.45-0.09,33.87-7.37,59.34-21.75
				c8.23-4.64,15.63-10.03,20.82-16.15c0.65-0.76,2.11-1.03,3.3-0.63C943.1,166.38,943.53,167.33,942.89,168.09z"/>
		</g>
	</g>
	<path style="fill:#231815;" d="M895.85,164.76c10.4,1.52,12.29,16.67,12.29,16.67c1.42-6.67,8.98-8.18,8.98-8.18
		c2.5,2.14,1.73,6.36,0.68,9.48c8.22-4.64,15.63-10.02,20.82-16.14c0.44-0.52,1.28-0.81,2.14-0.81c0.39,0,0.79,0.06,1.16,0.19
		c1.18,0.41,1.62,1.36,0.97,2.12c-5.71,6.73-13.82,12.57-22.75,17.54c1.06-0.14,2.14-0.2,3.23-0.2c8.43,0,17.37,3.58,17.37,3.58
		c-3.68,4.95-13.93,5.5-18.3,5.5c-1.06,0-1.77-0.03-1.97-0.04c-0.02,0-0.04,0-0.05,0c0,0,0.02,0,0.05,0c14.61,0.8,20.27,20,20.27,20
		c-2.77,1.02-5.64,1.44-8.5,1.44c-13.22,0-26.01-9.02-26.01-9.02c1.42,16.06-15.6,23.64-15.6,23.64
		c-11.34-3.94-8.98-21.82-8.98-21.82c-6.14,2.53-12.5,3.37-18.24,3.37c-11.48,0-20.52-3.37-20.52-3.37
		c5.2-12.43,29.3-15.76,29.3-15.76c-19.38-6.06-18.43-14.85-18.43-14.85c3.44-0.62,6.89-0.87,10.23-0.87
		c14.59,0,27.1,4.81,27.1,4.81C884.98,170.22,895.85,164.76,895.85,164.76 M895.85,161.76c-0.47,0-0.93,0.11-1.35,0.32
		c-0.23,0.12-5.68,2.91-7.6,8.83c-0.67,2.07-0.84,4.24-0.49,6.48c-5.2-1.43-13.38-3.17-22.39-3.17c-3.76,0-7.38,0.31-10.77,0.92
		c-1.31,0.24-2.31,1.31-2.45,2.63c-0.1,0.95-0.45,8.16,11.41,14.36c-7.97,2.36-18.54,6.99-22.07,15.41
		c-0.31,0.75-0.31,1.6,0.01,2.35c0.32,0.75,0.94,1.33,1.71,1.62c0.39,0.15,9.68,3.56,21.56,3.56c5.35,0,10.38-0.69,15.03-2.06
		c0.07,6.3,1.66,17.04,11.2,20.35c0.32,0.11,0.65,0.17,0.98,0.17c0.42,0,0.83-0.09,1.22-0.26c0.69-0.31,15.21-6.95,17.23-21.13
		c5.15,2.83,13.97,6.77,23.15,6.77c3.4,0,6.61-0.55,9.54-1.63c1.48-0.55,2.28-2.15,1.84-3.66c-0.18-0.61-3.27-10.79-10.8-17.15
		c4.1-0.92,8.06-2.62,10.33-5.67c0.55-0.75,0.73-1.71,0.48-2.6s-0.91-1.62-1.77-1.97c-0.29-0.12-5.44-2.15-11.72-3.19
		c6.19-4.16,11.22-8.52,15.03-13c0.91-1.08,1.22-2.44,0.87-3.75c-0.39-1.44-1.54-2.58-3.14-3.14c-0.7-0.24-1.42-0.35-2.15-0.35
		c-1.8,0-3.41,0.68-4.42,1.86c-3.53,4.16-8.41,8.25-14.57,12.2c-0.17-2.96-1.41-4.78-2.7-5.88c-0.55-0.47-1.24-0.72-1.95-0.72
		c-0.2,0-0.39,0.02-0.59,0.06c-0.25,0.05-4.07,0.85-7.27,3.65c-1.93-5.05-5.73-11.11-12.98-12.16
		C896.14,161.77,896,161.76,895.85,161.76L895.85,161.76z"/>
</g>
<g>
	<path style="fill:#F1580B;" d="M324.06,81.33c0,0,2.47,29.07-9.36,35.47c0,0-17.73-12.31-16.26-38.43c0,0-19.7,21.68-35.96,12.32
		c0,0,5.91-31.28,21.18-32.52c0,0-16.25,1.48-21.18-8.86c0,0,11.88-7.43,21.46-5.51c26.83,23.32,60.81,34.87,62.72,35.51
		c0.27,0.08,0.54,0.13,0.81,0.13c1.06,0,2.05-0.68,2.4-1.74c0.44-1.33-0.27-2.77-1.6-3.21c-0.46-0.15-35.3-11.99-61.86-35.37
		c-1.1-5.08-1.9-11.96,0.7-15.43c0,0,7.89,2.46,9.36,13.3c0,0,1.97-24.63,12.81-27.1c0,0,11.33,8.87,4.93,28.09
		c0,0,19.71-11.83,38.92-6.41c0,0,0.99,14.29-19.21,24.14c0,0,25.12,5.42,30.54,25.62C364.46,81.33,343.28,93.65,324.06,81.33z"/>
	<g>
		<g>
			<path style="fill:#AE400C;" d="M349.87,77.7c-0.35,1.06-1.34,1.74-2.4,1.74c-0.27,0-0.54-0.05-0.81-0.13
				c-1.91-0.64-35.89-12.19-62.72-35.51c-9.3-8.07-17.74-17.56-23.69-28.5c-0.67-1.24-0.22-2.78,1.01-3.45
				c1.25-0.65,2.77-0.21,3.45,1.02c5.41,9.95,13.12,18.7,21.7,26.25c26.56,23.38,61.4,35.22,61.86,35.37
				C349.6,74.93,350.31,76.37,349.87,77.7z"/>
		</g>
	</g>
	<path style="fill:#231815;" d="M309.29,9.89c0,0,11.33,8.87,4.93,28.08c0,0,13.04-7.83,28.25-7.83c3.48,0,7.09,0.41,10.67,1.42
		c0,0,0.99,14.29-19.21,24.14c0,0,25.13,5.42,30.54,25.62c0,0-9.42,5.47-21.39,5.47c-5.98,0-12.61-1.37-19.01-5.47
		c0,0,2.46,29.07-9.36,35.47c0,0-17.74-12.32-16.26-38.43c0,0-13.33,14.66-27.11,14.66c-2.97,0-5.97-0.68-8.86-2.35
		c0,0,5.9-31.21,21.13-32.51c0.04,0,0.06,0,0.06,0c-0.02,0-0.04,0-0.06,0c-0.2,0.02-0.95,0.07-2.05,0.07
		c-4.56,0-15.25-0.89-19.08-8.94c0,0,9.32-5.82,18.11-5.82c1.14,0,2.27,0.1,3.37,0.32c-9.3-8.08-17.76-17.57-23.71-28.51
		c-0.67-1.23-0.21-2.77,1.02-3.44c0.39-0.21,0.81-0.3,1.21-0.3c0.9,0,1.77,0.47,2.23,1.32c5.41,9.95,13.13,18.69,21.7,26.24
		c-1.1-5.08-1.9-11.94,0.71-15.42c0,0,7.88,2.46,9.36,13.3C296.48,36.99,298.45,12.35,309.29,9.89 M309.29,6.89
		c-0.22,0-0.44,0.02-0.67,0.07c-7.65,1.74-11.51,11.3-13.41,19.18c-3.19-4.01-6.96-5.24-7.2-5.32c-0.29-0.09-0.6-0.14-0.89-0.14
		c-0.93,0-1.82,0.43-2.4,1.2c-1.62,2.16-2.4,5.28-2.34,9.3c-6.32-6.38-11.36-13.01-15.03-19.76c-0.98-1.78-2.84-2.88-4.87-2.89
		c-0.9,0-1.81,0.22-2.61,0.65c-2.71,1.48-3.71,4.84-2.25,7.53c4.55,8.36,10.82,16.45,18.7,24.13c-7.98,1.31-15.08,5.69-15.42,5.91
		c-1.29,0.81-1.78,2.46-1.12,3.83c2.75,5.78,8.25,8.46,13.3,9.68c-3.17,3.1-6,7.6-8.5,13.48c-3.46,8.17-4.98,16.05-5.04,16.38
		c-0.24,1.25,0.35,2.52,1.45,3.16c3.16,1.82,6.65,2.75,10.35,2.75c9.57,0,18.69-6.17,24.15-10.76c1.56,22.65,16.8,33.5,17.51,33.99
		c0.51,0.36,1.11,0.54,1.71,0.54c0.49,0,0.98-0.12,1.43-0.36c10.2-5.53,11.31-23.6,11.17-32.95c4.88,2.2,10.16,3.31,15.77,3.31
		c12.63,0,22.48-5.64,22.89-5.88c1.17-0.68,1.74-2.06,1.39-3.37c-4.02-14.99-17.6-22.41-25.99-25.64
		c15.46-10.27,14.79-22.95,14.75-23.55c-0.09-1.26-0.96-2.34-2.18-2.68c-3.61-1.02-7.47-1.53-11.48-1.53
		c-9.59,0-18.27,2.9-23.76,5.26c2.77-16.54-7.1-24.51-7.57-24.88C310.6,7.11,309.95,6.89,309.29,6.89L309.29,6.89z"/>
</g>
<g>
	<path style="fill:#F1580B;" d="M143.45,345.77c0,0,6.46,21.86-6.93,29c0,0-22.73-6.13-24.11-26.46c0,0-20.99,20.35-41.59,16.22
		c0,0,3.29-25,21.3-28.93c-1.79,0.37-19.51,3.81-26.29-2.85c0,0,13.32-7.94,25.02-8.28c34.95,12.88,77.07,15.36,79.43,15.49
		c0.33,0.02,0.66,0,0.98-0.05c1.27-0.2,2.38-0.9,2.67-1.78c0.37-1.11-0.66-2.08-2.31-2.17c-0.57-0.03-43.73-2.57-78.36-15.54
		c-1.93-3.69-3.71-8.82-1.01-11.98c0,0,9.74,0.41,12.81,8.46c0,0-0.61-19.29,12.08-23.22c0,0,14.64,4.68,9.29,20.64
		c0,0,22.18-12.79,45.84-12.24c0,0,2.91,10.79-20.1,22.16c0,0,30.75-0.56,39.67,13.93C191.84,338.17,167.95,351.61,143.45,345.77z"
		/>
	<g>
		<g>
			<path style="fill:#AE400C;" d="M173.93,338.13c-0.29,0.88-1.4,1.58-2.67,1.78c-0.32,0.05-0.65,0.07-0.98,0.05
				c-2.36-0.13-44.48-2.61-79.43-15.49c-12.1-4.45-23.35-10.15-31.79-17.43c-0.95-0.82-0.6-2.09,0.8-2.83
				c1.41-0.74,3.29-0.69,4.25,0.13c7.68,6.62,17.97,11.9,29.15,16.08c34.63,12.97,77.79,15.51,78.36,15.54
				C173.27,336.05,174.3,337.02,173.93,338.13z"/>
		</g>
	</g>
	<path style="fill:#231815;" d="M117.14,293.67c0,0,14.64,4.68,9.29,20.64c0,0,21.25-12.25,44.35-12.25c0.5,0,1,0.01,1.5,0.02
		c0,0,2.9,10.79-20.11,22.15c0,0,0.16,0,0.45,0c3.84,0,30.94,0.48,39.22,13.94c0,0-16.12,9.07-35.45,9.07
		c-4.21,0-8.56-0.43-12.94-1.47c0,0,6.45,21.86-6.94,29c0,0-22.73-6.13-24.11-26.46c0,0-17.3,16.77-35.91,16.77
		c-1.89,0-3.79-0.17-5.69-0.55c0,0,3.3-25.08,21.39-28.94c0.04-0.01,0.07-0.01,0.07-0.01l0,0c-0.02,0-0.05,0.01-0.07,0.01
		c-0.66,0.14-6.05,1.23-12.01,1.23c-5.33,0-11.11-0.87-14.37-4.07c0,0,13.36-7.94,25.07-8.26c-12.12-4.46-23.39-10.15-31.84-17.44
		c-0.95-0.82-0.59-2.09,0.8-2.84c0.66-0.35,1.43-0.52,2.16-0.52c0.82,0,1.59,0.22,2.09,0.65c7.68,6.62,17.98,11.89,29.15,16.07
		c-1.93-3.69-3.72-8.82-1.01-11.98c0,0,9.74,0.41,12.82,8.46C105.06,316.89,104.45,297.6,117.14,293.67 M117.14,290.67
		c-0.3,0-0.6,0.04-0.89,0.13c-9,2.79-12.31,11.64-13.51,18.3c-4.58-3.37-10.04-3.65-10.36-3.67c-0.04,0-0.08,0-0.13,0
		c-0.88,0-1.71,0.38-2.28,1.05c-1.44,1.68-2.64,4.41-1.83,8.64c-9.12-3.9-16.53-8.29-22.07-13.06c-1.04-0.89-2.48-1.38-4.05-1.38
		c-1.24,0-2.47,0.3-3.54,0.86c-1.68,0.9-2.74,2.33-2.92,3.94c-0.16,1.44,0.4,2.83,1.54,3.82c5.99,5.16,13.7,9.86,23.01,14.03
		c-8.43,2.48-15.4,6.58-15.81,6.83c-0.8,0.48-1.33,1.3-1.45,2.22c-0.11,0.92,0.21,1.85,0.88,2.5c3.14,3.08,8.24,4.73,15.18,4.91
		c-8.95,9.23-10.95,23.52-11.06,24.34c-0.21,1.57,0.84,3.02,2.38,3.33c2.03,0.41,4.14,0.61,6.28,0.61
		c14.17,0,27.33-8.84,33.81-14.01c4.66,17.79,24.5,23.34,25.42,23.59c0.26,0.07,0.52,0.1,0.78,0.1c0.49,0,0.97-0.12,1.41-0.35
		c11.37-6.06,10.68-20.39,9.43-27.84c2.93,0.44,5.96,0.66,9.04,0.66c19.89,0,36.23-9.07,36.92-9.45c0.71-0.4,1.23-1.07,1.43-1.86
		s0.08-1.63-0.35-2.32c-6.29-10.22-21.54-13.66-32.01-14.8c14.96-10.21,13.09-19.33,12.78-20.49c-0.35-1.29-1.5-2.19-2.83-2.22
		c-0.52-0.01-1.05-0.02-1.57-0.02c-16.67,0-32.19,6.04-40.2,9.78c0.19-3.21-0.4-6.19-1.76-8.88c-3.41-6.73-10.46-9.05-10.76-9.15
		C117.76,290.72,117.45,290.67,117.14,290.67L117.14,290.67z"/>
</g>
<g>
	<path style="fill:#F1580B;" d="M72.57,180.86c0,0,4.42,14.97-4.75,19.86c0,0-15.56-4.19-16.5-18.11c0,0-14.37,13.93-28.48,11.1
		c0,0,2.24-16.96,14.42-19.76c-1.92,0.37-13.36,2.4-17.83-2c0,0,9.11-5.43,17.13-5.66c23.93,8.81,52.76,10.51,54.38,10.6
		c0.22,0.01,0.45,0,0.66-0.03c0.87-0.14,1.63-0.62,1.84-1.23c0.25-0.75-0.46-1.41-1.59-1.48c-0.39-0.02-29.93-1.76-53.64-10.63
		c-1.32-2.53-2.54-6.05-0.69-8.21c0,0,6.66,0.28,8.77,5.79c0,0-0.42-13.2,8.27-15.89c0,0,10.02,3.2,6.35,14.13
		c0,0,15.19-8.76,31.39-8.38c0,0,1.99,7.39-13.76,15.17c0,0,21.05-0.39,27.16,9.54C105.7,175.67,89.34,184.87,72.57,180.86z"/>
	<g>
		<g>
			<path style="fill:#AE400C;" d="M93.44,175.63c-0.21,0.61-0.97,1.09-1.84,1.23c-0.21,0.03-0.44,0.04-0.66,0.03
				c-1.62-0.09-30.45-1.79-54.38-10.6c-8.29-3.04-15.99-6.94-21.77-11.93c-0.65-0.57-0.4-1.44,0.55-1.95
				c0.97-0.5,2.26-0.46,2.91,0.1c5.26,4.53,12.3,8.14,19.96,11.01c23.71,8.87,53.25,10.61,53.64,10.63
				C92.98,174.22,93.69,174.88,93.44,175.63z"/>
		</g>
	</g>
	<path style="fill:#231815;" d="M54.55,145.2c0,0,10.02,3.2,6.36,14.13c0,0,14.55-8.39,30.36-8.39c0.34,0,0.68,0,1.02,0.01
		c0,0,1.99,7.38-13.76,15.16c0,0,0.11,0,0.31,0c2.63,0,21.18,0.33,26.85,9.54c0,0-11.03,6.21-24.27,6.21
		c-2.88,0-5.86-0.29-8.86-1.01c0,0,4.42,14.97-4.75,19.85c0,0-15.56-4.19-16.5-18.11c0,0-11.84,11.48-24.58,11.48
		c-1.29,0-2.6-0.12-3.9-0.38c0,0,2.26-17.17,14.64-19.81c0.03-0.01,0.05-0.01,0.05-0.01c-0.02,0-0.03,0.01-0.05,0.01
		c-0.45,0.09-4.14,0.84-8.22,0.84c-3.65,0-7.61-0.6-9.84-2.79c0,0,9.14-5.43,17.16-5.66c-8.3-3.05-16.01-6.95-21.8-11.94
		c-0.65-0.56-0.4-1.43,0.55-1.94c0.46-0.24,0.98-0.35,1.48-0.35c0.56,0,1.08,0.15,1.43,0.45c5.26,4.53,12.31,8.14,19.96,11
		c-1.32-2.53-2.54-6.04-0.69-8.2c0,0,6.67,0.28,8.77,5.79C46.28,161.1,45.87,147.89,54.55,145.2 M54.55,142.2
		c-0.3,0-0.6,0.04-0.89,0.13c-6,1.86-8.54,7.32-9.61,11.89c-3.06-1.75-6.2-1.91-6.42-1.92c-0.04,0-0.08,0-0.13,0
		c-0.87,0-1.71,0.38-2.28,1.05c-0.92,1.08-1.73,2.69-1.66,5.01c-5.47-2.46-9.95-5.19-13.37-8.13c-0.89-0.76-2.09-1.17-3.39-1.17
		c-1,0-1.99,0.24-2.86,0.7c-1.44,0.77-2.34,2.02-2.5,3.43c-0.15,1.3,0.36,2.55,1.38,3.44c3.69,3.18,8.3,6.1,13.79,8.74
		c-4.81,1.71-8.48,3.87-8.72,4.01c-0.8,0.48-1.33,1.3-1.45,2.22c-0.11,0.92,0.21,1.85,0.88,2.5c2.01,1.97,5.05,3.15,9.07,3.52
		c-5.24,6.49-6.46,15.17-6.53,15.71c-0.21,1.57,0.84,3.02,2.38,3.33c1.45,0.29,2.96,0.44,4.48,0.44c9.22,0,17.81-5.29,22.63-8.94
		c3.92,11.63,17.04,15.3,17.67,15.47c0.26,0.07,0.52,0.1,0.78,0.1c0.49,0,0.97-0.12,1.41-0.35c7.68-4.1,7.85-13.23,7.13-18.79
		c1.66,0.2,3.35,0.3,5.07,0.3c13.86,0,25.26-6.32,25.74-6.59c0.71-0.4,1.23-1.07,1.43-1.86s0.08-1.63-0.35-2.32
		c-4.04-6.56-13.13-9.21-20.26-10.27c8.67-6.82,7.43-12.83,7.21-13.64c-0.35-1.29-1.5-2.19-2.83-2.22
		c-0.36-0.01-0.73-0.01-1.09-0.01c-10.7,0-20.71,3.58-26.57,6.17c-0.09-1.79-0.53-3.47-1.32-5.04c-2.47-4.87-7.37-6.56-7.92-6.73
		C55.17,142.25,54.86,142.2,54.55,142.2L54.55,142.2z"/>
</g>
<g>
	<path style="fill:#F1580B;" d="M280.14,233.24c-14.93,5.51-33.03-7.26-33.03-7.26c1.36,15.38-14.93,22.63-14.93,22.63
		c-10.86-3.77-8.59-20.89-8.59-20.89c-17.65,7.26-37.11,0-37.11,0c4.98-11.89,28.06-15.08,28.06-15.08
		c-18.55-5.81-17.65-14.22-17.65-14.22c17.65-3.19,35.74,3.77,35.74,3.77c-5.88-11.31,4.53-16.53,4.53-16.53
		c9.95,1.45,11.76,15.95,11.76,15.95c1.36-6.38,8.6-7.83,8.6-7.83c2.39,2.05,1.66,6.1,0.64,9.09
		c-24.39,13.77-56.38,20.74-56.8,20.83c-1.22,0.26-1.88,1.1-1.48,1.89c0.33,0.62,1.24,1.02,2.21,1.02c0.25,0,0.5-0.03,0.74-0.08
		c1.75-0.37,32.96-7.17,57.6-20.91c8.8-1.13,19.71,3.25,19.71,3.25c-4.52,6.09-19.45,5.22-19.45,5.22
		C274.71,214.81,280.14,233.24,280.14,233.24z"/>
	<g>
		<g>
			<path style="fill:#AE400C;" d="M282.19,188.84c-5.47,6.44-13.22,12.03-21.76,16.78c-24.64,13.74-55.85,20.54-57.6,20.91
				c-0.24,0.05-0.49,0.08-0.74,0.08c-0.97,0-1.88-0.4-2.21-1.02c-0.4-0.79,0.26-1.63,1.48-1.89c0.42-0.09,32.41-7.06,56.8-20.83
				c7.88-4.44,14.97-9.6,19.94-15.46c0.61-0.72,2.01-0.99,3.16-0.6C282.39,187.2,282.81,188.11,282.19,188.84z"/>
		</g>
	</g>
	<path style="fill:#231815;" d="M237.16,185.65c9.95,1.45,11.76,15.96,11.76,15.96c1.36-6.38,8.6-7.83,8.6-7.83
		c2.39,2.05,1.66,6.09,0.65,9.08c7.87-4.44,14.96-9.59,19.93-15.45c0.43-0.5,1.22-0.78,2.05-0.78c0.38,0,0.76,0.06,1.11,0.18
		c1.13,0.39,1.55,1.3,0.93,2.03c-5.47,6.45-13.23,12.03-21.78,16.79c1.01-0.13,2.05-0.19,3.1-0.19c8.07,0,16.63,3.43,16.63,3.43
		c-3.52,4.74-13.33,5.26-17.52,5.26c-1.01,0-1.7-0.03-1.88-0.04c-0.02,0-0.04,0-0.05,0c0,0,0.02,0,0.05,0
		c13.99,0.77,19.4,19.15,19.4,19.15c-2.65,0.98-5.4,1.38-8.13,1.38c-12.65,0-24.9-8.63-24.9-8.63
		c1.36,15.38-14.93,22.63-14.93,22.63c-10.86-3.77-8.6-20.89-8.6-20.89c-5.88,2.42-11.97,3.22-17.46,3.22
		c-10.99,0-19.64-3.22-19.64-3.22c4.98-11.89,28.05-15.09,28.05-15.09c-18.55-5.8-17.65-14.21-17.65-14.21
		c3.29-0.6,6.6-0.84,9.8-0.84c13.97,0,25.95,4.61,25.95,4.61C226.75,190.88,237.16,185.65,237.16,185.65 M237.16,182.65
		c-0.47,0-0.93,0.11-1.35,0.32c-0.22,0.11-5.49,2.81-7.34,8.53c-0.63,1.95-0.8,3.97-0.51,6.07c-4.99-1.36-12.75-2.99-21.28-2.99
		c-3.61,0-7.08,0.3-10.33,0.89c-1.31,0.24-2.31,1.31-2.45,2.63c-0.1,0.91-0.43,7.78,10.72,13.73c-7.62,2.3-17.56,6.73-20.91,14.74
		c-0.31,0.75-0.31,1.6,0.01,2.35c0.32,0.75,0.94,1.33,1.71,1.62c0.37,0.14,9.28,3.41,20.69,3.41c5.07,0,9.85-0.65,14.27-1.94
		c0.1,6.08,1.68,16.26,10.81,19.43c0.32,0.11,0.65,0.17,0.98,0.17c0.42,0,0.83-0.09,1.22-0.26c0.66-0.29,14.51-6.62,16.54-20.14
		c4.96,2.71,13.34,6.41,22.06,6.41c3.27,0,6.36-0.53,9.17-1.57c1.48-0.55,2.28-2.15,1.84-3.66c-0.17-0.58-3.09-10.19-10.18-16.31
		c3.86-0.9,7.57-2.53,9.72-5.42c0.55-0.75,0.73-1.71,0.48-2.6s-0.91-1.62-1.77-1.97c-0.27-0.11-5.04-2-10.93-3.01
		c5.81-3.94,10.55-8.05,14.15-12.29c0.9-1.06,1.21-2.41,0.85-3.7c-0.39-1.42-1.51-2.55-3.09-3.1c-0.69-0.23-1.39-0.35-2.1-0.35
		c-1.76,0-3.33,0.67-4.33,1.83c-3.34,3.93-7.94,7.8-13.73,11.54c-0.21-2.75-1.39-4.45-2.61-5.5c-0.55-0.47-1.24-0.72-1.95-0.72
		c-0.2,0-0.39,0.02-0.59,0.06c-0.24,0.05-3.82,0.8-6.88,3.41c-1.88-4.83-5.54-10.55-12.46-11.56
		C237.45,182.66,237.31,182.65,237.16,182.65L237.16,182.65z"/>
</g>
<path style="fill:#877302;" d="M349.29,304.21c-0.17,0.19-0.32,0.32-0.42,0.39C348.95,304.52,349.09,304.38,349.29,304.21z"/>
<path style="fill:#877302;" d="M349.68,303.83c-0.12,0.12-0.23,0.22-0.33,0.31c0.08-0.09,0.17-0.19,0.26-0.31H349.68z"/>
<g>
	<path style="fill:#AE400C;" d="M739.25,397.17c-7.37,8.69-17.84,16.24-29.37,22.65c-33.24,18.52-75.33,27.7-77.69,28.2
		c-0.33,0.07-0.67,0.11-1,0.11c-1.31,0-2.54-0.54-2.98-1.39c-0.55-1.05,0.34-2.19,1.99-2.54c0.57-0.13,43.74-9.53,76.64-28.1
		c10.63-6,20.18-12.95,26.88-20.86c0.84-0.97,2.72-1.33,4.27-0.8C739.51,394.97,740.08,396.19,739.25,397.17z"/>
	<path style="fill:#F1580B;" d="M736.48,457.06c-20.14,7.44-44.55-9.78-44.55-9.78c1.83,20.74-20.15,30.53-20.15,30.53
		c-14.64-5.09-11.59-28.18-11.59-28.18c-23.81,9.78-50.05,0-50.05,0c6.71-16.05,37.84-20.35,37.84-20.35
		c-25.03-7.83-23.8-19.18-23.8-19.18c23.5-4.25,47.59,4.85,48.2,5.08c-7.91-15.25,6.12-22.3,6.12-22.3
		c13.43,1.96,15.87,21.53,15.87,21.53c1.83-8.61,11.59-10.57,11.59-10.57c3.23,2.76,2.24,8.23,0.88,12.26
		c-32.9,18.57-76.07,27.97-76.64,28.1c-1.65,0.35-2.54,1.49-1.99,2.54c0.44,0.85,1.67,1.39,2.98,1.39c0.33,0,0.67-0.04,1-0.11
		c2.36-0.5,44.45-9.68,77.69-28.2c11.87-1.54,26.6,4.37,26.6,4.37c-6.1,8.22-26.24,7.04-26.24,7.04
		C729.16,432.21,736.48,457.06,736.48,457.06z"/>
	<path style="fill:#231815;" d="M678.5,392.88c13.43,1.96,15.87,21.53,15.87,21.53c1.83-8.61,11.6-10.57,11.6-10.57
		c3.23,2.76,2.24,8.21,0.87,12.25c10.62-6,20.18-12.94,26.88-20.84c0.57-0.67,1.65-1.05,2.76-1.05c0.51,0,1.02,0.08,1.5,0.24
		c1.52,0.53,2.09,1.76,1.26,2.74c-7.38,8.7-17.85,16.23-29.38,22.65c1.36-0.18,2.76-0.25,4.18-0.25c10.89,0,22.44,4.62,22.44,4.62
		c-4.75,6.39-17.99,7.1-23.64,7.1c-1.36,0-2.29-0.04-2.54-0.05c-0.02,0-0.05,0-0.07,0c0,0,0.02,0,0.07,0
		c18.87,1.04,26.18,25.83,26.18,25.83c-3.58,1.32-7.29,1.86-10.97,1.86c-17.07,0-33.58-11.65-33.58-11.65
		c1.83,20.74-20.14,30.53-20.14,30.53c-14.65-5.09-11.6-28.18-11.6-28.18c-7.93,3.26-16.14,4.35-23.56,4.35
		c-14.83,0-26.49-4.35-26.49-4.35c6.71-16.05,37.84-20.35,37.84-20.35c-25.02-7.83-23.8-19.18-23.8-19.18
		c4.44-0.8,8.9-1.13,13.22-1.13c18.84,0,35,6.22,35,6.22C664.46,399.92,678.5,392.88,678.5,392.88L678.5,392.88z M678.5,389.88
		c-0.47,0-0.93,0.11-1.35,0.32c-0.29,0.14-7.01,3.59-9.38,10.9c-0.96,2.96-1.07,6.08-0.35,9.32c-6.53-1.89-17.67-4.45-30.03-4.45
		c-4.81,0-9.43,0.4-13.75,1.18c-1.31,0.24-2.31,1.31-2.45,2.63c-0.13,1.22-0.57,10.73,16.27,18.67
		c-10.29,2.78-25.34,8.67-30.09,20.02c-0.31,0.75-0.31,1.6,0.01,2.35c0.32,0.75,0.94,1.33,1.71,1.62c0.5,0.19,12.35,4.54,27.54,4.54
		c7.25,0,14.05-1,20.29-2.97c-0.09,7.68,1.44,22.32,13.88,26.64c0.32,0.11,0.65,0.17,0.98,0.17c0.42,0,0.83-0.09,1.22-0.26
		c0.89-0.4,20.07-9.16,21.9-27.89c6.33,3.61,18.23,9.27,30.61,9.27c4.29,0,8.33-0.69,12.01-2.05c1.48-0.55,2.28-2.15,1.84-3.66
		c-0.24-0.81-4.55-15-15.11-22.87c5.75-1.04,11.52-3.17,14.64-7.37c0.56-0.75,0.73-1.71,0.48-2.61c-0.25-0.9-0.91-1.62-1.77-1.97
		c-0.4-0.16-8.21-3.25-17.2-4.41c8.8-5.71,15.89-11.7,21.13-17.89c0.98-1.16,1.33-2.64,0.94-4.04c-0.43-1.58-1.71-2.84-3.5-3.47
		c-0.81-0.27-1.64-0.41-2.49-0.41c-2.03,0-3.92,0.78-5.04,2.1c-4.87,5.74-11.69,11.36-20.34,16.77c0.18-4.45-1.47-7.03-3.19-8.51
		c-0.55-0.47-1.24-0.72-1.95-0.72c-0.2,0-0.39,0.02-0.59,0.06c-0.33,0.07-5.84,1.22-9.92,5.4c-2.25-6.52-6.98-14.99-16.52-16.38
		C678.79,389.89,678.65,389.88,678.5,389.88L678.5,389.88z"/>
</g>
</svg>
