<?xml version="1.0" encoding="utf-8"?>
<!-- Generator: Adobe Illustrator 24.1.1, SVG Export Plug-In . SVG Version: 6.00 Build 0)  -->
<svg version="1.1" id="Layer_1" xmlns="http://www.w3.org/2000/svg" xmlns:xlink="http://www.w3.org/1999/xlink" x="0px" y="0px"
	 viewBox="0 0 240 240" style="enable-background:new 0 0 240 240;" xml:space="preserve">
<g>
	<path style="fill:#FFFFFF;" d="M203.86,63.4c-2.25,2.05-5.06,3.06-7.87,3.06c-3.2,0-6.4-1.32-8.72-3.89
		c-0.02-0.02-0.02-0.02-0.03-0.03c-1.29-1.41-3.93-4.11-4.72-4.86c-2.54-2.32-5.03-3.95-7.33-3.95c-1.13,0-2.24,0.41-3.28,1.34
		c-2.9,2.59-5.74,10.53-10.67,10.53c-0.78,0-1.61-0.19-2.49-0.64c-5.99-3.01-2.07-13.17-0.02-17.44c3.73-7.74,7.6-13.29,16.17-14.88
		c1.52-0.29,3.03-0.42,4.49-0.42c6.27,0,11.82,2.51,16.9,6.4c0.02,0,0.02,0,0.03,0c2.52,1.88,4.45,3.67,5.84,5.13
		s2.25,2.54,2.62,2.96c1.63,1.83,2.57,4.01,2.88,6.27C208.16,56.73,206.87,60.66,203.86,63.4z"/>
	<path d="M210.16,52.63c-0.37-2.83-1.59-5.47-3.49-7.6c-0.1-0.12-0.24-0.27-0.39-0.46c-0.93-1.1-2.85-3.37-5.93-5.98
		c-0.76-0.64-1.61-1.32-2.52-2.02c-0.1-0.07-0.19-0.14-0.29-0.19c-5.98-4.52-11.94-6.72-18.17-6.72c-1.64,0-3.3,0.15-4.96,0.46
		c-10.3,1.91-14.53,9.09-17.98,16.29c-4.91,10.19-4.47,17.98,1.15,20.81c1.22,0.61,2.44,0.91,3.64,0.91c4.67,0,7.57-4.35,9.87-7.86
		c0.88-1.32,1.79-2.69,2.49-3.34c0.69-0.61,1.22-0.68,1.59-0.68c1.34,0,3.23,1.1,5.62,3.29c0.61,0.56,2.4,2.4,3.71,3.79
		c0.32,0.34,0.61,0.64,0.85,0.9c2.74,3.03,6.6,4.76,10.63,4.76c3.56,0,6.96-1.32,9.58-3.73C209.09,62.08,210.8,57.36,210.16,52.63z
		 M203.86,63.4c-2.25,2.05-5.06,3.06-7.87,3.06c-3.2,0-6.4-1.32-8.72-3.89c-0.02-0.02-0.02-0.02-0.03-0.03
		c-1.29-1.41-3.93-4.11-4.72-4.86l-0.02-0.02c-2.54-2.3-5.01-3.93-7.32-3.93c-1.13,0-2.24,0.41-3.28,1.34
		c-2.9,2.59-5.74,10.53-10.67,10.53c-0.78,0-1.61-0.19-2.49-0.64c-5.99-3.01-2.07-13.17-0.02-17.44c3.73-7.74,7.6-13.29,16.17-14.88
		c1.52-0.29,3.03-0.42,4.49-0.42c6.23,0,11.75,2.47,16.8,6.32c0.03,0.03,0.07,0.05,0.1,0.08c0.02,0,0.02,0,0.03,0
		c2.52,1.88,4.45,3.67,5.84,5.13s2.25,2.54,2.62,2.96c1.63,1.83,2.57,4.01,2.88,6.27C208.16,56.73,206.87,60.66,203.86,63.4z"/>
	<path style="fill:#653109;" d="M203.86,63.4c-2.25,2.05-5.06,3.06-7.87,3.06c-3.2,0-6.4-1.32-8.72-3.89
		c-0.02-0.02-0.02-0.02-0.03-0.03c-1.29-1.41-3.93-4.11-4.72-4.86l-0.02-0.02c0.52-1.42,1.68-2.57,3.27-2.93
		c0.91-0.24,1.83-0.07,2.66,0.24c-1.02-0.64-1.78-1.66-2.07-2.93c-0.59-2.56,1-5.1,3.51-5.69c1.19-0.29,2.34-0.05,3.34,0.51
		c-0.86-0.66-1.56-1.56-1.81-2.68c-0.07-0.27-0.08-0.54-0.08-0.81c0-1.27,0.66-2.44,1.64-3.32c0,0,0.27-0.27,0.81-0.61
		c0.05-0.03,0.1-0.07,0.15-0.1c0.15-0.08,0.32-0.17,0.51-0.25c0.39-0.19,0.8-0.36,1.22-0.44c0.03-0.02,0.07-0.02,0.12-0.02
		c0.14-0.03,0.27-0.07,0.42-0.1c0.03,0.03,0.07,0.05,0.1,0.08c0.02,0,0.02,0,0.03,0c2.52,1.88,4.45,3.67,5.84,5.13
		s2.25,2.54,2.62,2.96c1.63,1.83,2.57,4.01,2.88,6.27C208.16,56.73,206.87,60.66,203.86,63.4z"/>
</g>
<g>
	<path style="fill:#FFFFFF;" d="M121.31,64.15c-0.78,0.56-1.52,0.8-2.25,0.8c-2.32,0-4.39-2.42-6.18-5.03
		c-0.81-1.24-1.57-2.46-2.24-3.44c-0.51-0.76-0.97-1.44-1.41-1.93c-1.8-2.03-3.32-2.84-4.72-2.84c-1.86,0-3.47,1.44-5.13,3.37
		c-0.64,0.73-1.07,1.32-1.59,1.93c-0.85,1.05-1.71,2.13-2.64,3.15c-1.95,2.15-4.49,3.22-7.04,3.22c-2.62,0-5.25-1.12-7.25-3.35
		c-2.47-2.76-3.44-6.57-2.84-10.09c0.36-2.12,1.25-4.13,2.73-5.76c0.68-0.76,3.42-4.06,7.82-7.1c4.08-2.86,8.6-4.76,13.45-4.76
		c1.91,0,3.88,0.3,5.89,0.95c2.13,0.69,2.44,0.86,4.47,2.18c1.73,1.13,3.35,2.57,4.86,4.03C122.1,44.18,127.12,59.98,121.31,64.15z"
		/>
	<path d="M119.01,37.65c-1.96-1.88-3.62-3.27-5.25-4.32c-2.2-1.44-2.73-1.73-5.08-2.49c-2.18-0.71-4.44-1.07-6.67-1.07
		c-4.96,0-9.97,1.76-14.92,5.22c-2.05,1.42-3.76,2.9-5.08,4.15c-1.41,1.34-2.39,2.46-2.93,3.05l-0.22,0.27
		c-1.76,1.95-2.91,4.39-3.35,7.06c-0.73,4.4,0.56,8.96,3.45,12.19c2.42,2.71,5.67,4.2,9.14,4.2c3.39,0,6.55-1.44,8.92-4.05
		c0.75-0.81,1.46-1.68,2.12-2.51c0.19-0.22,0.36-0.44,0.52-0.66l0.05-0.05c0.29-0.32,0.54-0.64,0.81-0.98
		c0.22-0.29,0.46-0.59,0.75-0.91c0.54-0.64,2.17-2.51,3.23-2.51c0.69,0,1.69,0.69,2.81,1.98c0.51,0.59,1.2,1.68,1.95,2.81
		c2.4,3.76,5.42,8.45,9.79,8.45c1.29,0,2.54-0.42,3.73-1.27c1.47-1.07,3.3-3.22,3.62-7.54C126.96,51.28,122.95,41.47,119.01,37.65z
		 M121.31,64.15c-0.78,0.56-1.52,0.8-2.25,0.8c-2.32,0-4.39-2.42-6.18-5.03c-0.81-1.24-1.57-2.46-2.24-3.44
		c-0.51-0.76-0.97-1.44-1.41-1.93c-1.8-2.03-3.32-2.84-4.72-2.84c-1.86,0-3.45,1.42-5.11,3.35l-0.02,0.02
		c-0.64,0.73-1.07,1.32-1.59,1.93c-0.85,1.05-1.71,2.13-2.64,3.15c-1.95,2.15-4.49,3.22-7.04,3.22c-2.62,0-5.25-1.12-7.25-3.35
		c-2.47-2.76-3.44-6.57-2.84-10.09c0.36-2.12,1.25-4.13,2.73-5.76c0.68-0.76,3.42-4.06,7.82-7.1c0.02-0.02,0.05-0.03,0.07-0.05
		c4.06-2.83,8.57-4.71,13.38-4.71c1.91,0,3.88,0.3,5.89,0.95c2.13,0.69,2.44,0.86,4.47,2.18c1.73,1.13,3.35,2.57,4.86,4.03
		C122.1,44.18,127.12,59.98,121.31,64.15z"/>
	<path style="fill:#653109;" d="M99.4,55.06l-0.02,0.02c-0.64,0.73-1.07,1.32-1.59,1.93c-0.85,1.05-1.71,2.13-2.64,3.15
		c-1.95,2.15-4.49,3.22-7.04,3.22c-2.62,0-5.25-1.12-7.25-3.35c-2.47-2.76-3.44-6.57-2.84-10.09c0.36-2.12,1.25-4.13,2.73-5.76
		c0.68-0.76,3.42-4.06,7.82-7.1c0.02-0.02,0.05-0.03,0.07-0.05c1.39,0.25,2.17,1.13,2.17,1.13v0.02c1.22,1.07,1.96,2.68,1.54,4.33
		c-0.27,1.05-0.9,1.86-1.66,2.44c0.86-0.47,1.88-0.63,2.88-0.3c2.13,0.73,3.4,3.22,2.79,5.59c-0.3,1.19-1,2.1-1.9,2.66
		c0.73-0.24,1.52-0.34,2.3-0.07C98.13,53.24,99.01,53.73,99.4,55.06z"/>
</g>
<path style="fill:#00A2F6;" d="M131.54,51.29l0.33-0.03C131.67,51.28,131.54,51.29,131.54,51.29z"/>
<g>
	<path d="M224.92,217.95c-1.3-10.21-5.79-27.84-8.53-36.66c-3.44-10.97-1.69-21.17,0.14-31.95c1-5.88,2.03-11.95,2.25-18.34
		l0.03-0.59c0.27-8.23,0.54-16-1.12-24.25c-3.25-16-11.33-30.26-22.74-40.17c-15.07-13.06-37.41-20.86-59.77-20.86
		c-0.95,0-1.88,0.02-2.81,0.05c-16.87,0.52-33.09,5.96-45.7,15.34c-16.26,12.09-22.03,31.23-23.99,45.14
		c-0.42,3-0.71,5.94-0.86,8.77c-2.47,4.61-3.32,8.5-4.15,14.82c-1.17,8.89,1.88,19.03,8.37,27.79c3.18,4.3,7.4,7.96,12.53,10.89
		c3.69,11.16,1,22.62-2.34,34.36c-2.34,8.16-3.42,17.29-3.44,28.7c0,2.73,0.39,5.88,1.22,9.01h2.62c-0.88-3.18-1.3-6.37-1.3-8.99
		c0.02-9.52,0.73-18.88,3.34-28.02c1.05-3.64,2-7.23,2.73-10.75c0.27-1.32,0.52-2.64,0.73-3.95c0.03-0.14,0.05-0.29,0.07-0.42
		c0.14-0.9,0.25-1.79,0.36-2.69c0.34-3.06,0.42-6.08,0.2-9.08c-0.05-0.56-0.1-1.12-0.17-1.66c-0.2-1.66-0.49-3.32-0.91-4.96
		c-0.15-0.54-0.3-1.1-0.47-1.64c-0.17-0.54-0.34-1.08-0.54-1.63v-0.02c-1.22-0.66-2.4-1.37-3.54-2.13c-0.58-0.39-1.13-0.78-1.68-1.2
		c-0.41-0.3-0.81-0.61-1.2-0.93c-0.78-0.63-1.52-1.27-2.24-1.98c-0.41-0.37-0.81-0.78-1.2-1.2c-0.42-0.42-0.83-0.88-1.2-1.34
		c-0.52-0.59-1.03-1.24-1.51-1.88c-5.42-7.3-9.11-16.73-7.89-25.94c0.07-0.49,0.14-0.98,0.2-1.44c0.14-1.02,0.27-1.96,0.44-2.86
		c0.69-3.89,1.63-6.76,3.49-10.13v-0.07c0.03-0.73,0.08-1.46,0.14-2.18c0-0.05,0.02-0.1,0.02-0.15c0.07-1.1,0.17-2.22,0.3-3.34
		c0.12-1.12,0.25-2.25,0.42-3.39c2.34-16.59,9.19-33.21,23-43.47c12.62-9.38,28.6-14.36,44.25-14.83c0.91-0.03,1.83-0.05,2.74-0.05
		c20.3,0,42.74,6.91,58.12,20.24c11.45,9.94,18.91,23.98,21.91,38.74c1.64,8.16,1.32,16.04,1.03,24.27
		c-0.61,17.88-7.81,33.41-2.29,51.14c2.91,9.31,7.23,26.52,8.45,36.22c0.98,7.79,1.35,14.43,0.93,21.73h2.56
		C226.28,232.91,225.96,226.12,224.92,217.95z"/>
	<path style="fill:#00A2F6;" d="M223.33,240H76.62c-0.88-3.18-1.3-6.37-1.3-8.99c0.02-9.52,0.73-18.88,3.34-28.02
		c1.05-3.64,2-7.23,2.73-10.75c0.27-1.32,0.52-2.62,0.73-3.95c0.03-0.14,0.05-0.29,0.07-0.42c0.14-0.9,0.25-1.79,0.36-2.69
		c0.34-3.06,0.44-6.08,0.2-9.08c-0.03-0.56-0.08-1.12-0.17-1.66c-0.19-1.66-0.47-3.32-0.91-4.96c-0.14-0.54-0.29-1.1-0.47-1.64
		c-0.15-0.54-0.34-1.08-0.54-1.63v-0.02c-1.03-2.88-2.49-5.74-4.44-8.6c-1.59-2.34-3.4-4.52-4.86-6.94c-0.52-0.88-1-1.79-1.42-2.73
		c-0.86-1.85-1.56-3.79-2.18-5.74c-1.69-5.28-2.73-10.48-3.18-15.71c-0.37-3.78-0.42-7.57-0.22-11.41c0.02-0.71,0.07-1.42,0.12-2.15
		c0-0.05,0.02-0.1,0.02-0.15c0.08-1.1,0.19-2.22,0.3-3.34c0.12-1.12,0.27-2.25,0.42-3.39c2.34-16.59,9.19-33.21,23-43.47
		c12.62-9.38,28.6-14.36,44.25-14.83c0.91-0.03,1.83-0.05,2.74-0.05c20.3,0,42.74,6.91,58.12,20.24
		c11.45,9.94,18.91,23.98,21.91,38.74c1.64,8.16,1.32,16.04,1.03,24.27c-0.61,17.88-7.81,33.41-2.29,51.14
		c2.91,9.31,7.23,26.52,8.45,36.22C223.38,226.07,223.75,232.7,223.33,240z"/>
	<g>
		<g>
			<path style="fill-rule:evenodd;clip-rule:evenodd;fill:#FFFFFF;" d="M200.22,124.54c-0.62-6.65-2.16-13.31-3.74-19.59
				c-3.44-13.65-9.11-27.41-20.77-36.04c-17.45-12.91-43.83-15.16-64.12-8.83c-8.36,2.6-16.36,6.51-23.33,11.83
				c-4.41,3.37-8.66,8.9-11.29,13.83c-2.31,4.33-3.84,9.06-4.68,13.89c-0.32,1.82-1.04,4.03-1.14,6.15
				c-0.09,2.12-3.64,4.26-4.7,5.85c-4.29,6.43-5.23,10.02-6.27,17.95c-1.22,9.21,2.47,18.64,7.89,25.95
				c10.42,14.06,29.77,17.7,46.12,19.25c27.28,2.58,65.6,3.23,81.51-24.61C200.22,142.23,201.04,133.39,200.22,124.54z"/>
		</g>
		<path style="fill-rule:evenodd;clip-rule:evenodd;fill:#FCBFBB;" d="M146.03,131.84c0.23,10.57,8.93,18.94,19.41,18.71
			c10.48-0.23,18.79-8.98,18.56-19.55c-0.23-10.55-8.92-18.93-19.4-18.7C154.12,112.53,145.8,121.28,146.03,131.84L146.03,131.84z"
			/>
		<path style="fill-rule:evenodd;clip-rule:evenodd;fill:#FCBFBB;" d="M63.37,133.66c0.23,10.57,8.56,18.95,18.59,18.73
			c10.03-0.22,17.98-8.97,17.74-19.53c-0.23-10.55-8.56-18.94-18.59-18.72S63.14,123.1,63.37,133.66L63.37,133.66z"/>
	</g>
</g>
<g>
	<path d="M157.07,189.08c-0.68-0.95-1.63-1.91-2.71-2.78c-2.37-1.85-5.6-3.06-9.35-3.57c-1.29-0.19-2.62-0.27-4.01-0.27
		c-2.69,0-5.45,0.32-8.2,0.97c-14.31,3.34-33.63,12.55-42.28,16.88c-1.19-4.06-2.02-7.94-2.56-12.01c-0.08-0.56-0.12-1.52-0.17-2.62
		c-0.3-6.21-0.85-17.78-9.48-17.78c-1.02,0-2.1,0.19-3.23,0.56c-4.47,1.46-7.04,6.74-8.42,10.92c-2.08,6.28-2.95,12.92-2.57,19.73
		c0.27,4.86,1.13,8.57,2.54,13.36c1.03,3.54,4.98,9.18,8.99,11.63c1.66,1.02,3.78,1.66,5.3,2.02c2.08,0.76,4.47,1.17,6.87,1.17
		c0.71,0,1.41-0.03,2.1-0.1c3.52-0.36,6.3-2.15,8.75-3.73c0.86-0.56,1.68-1.08,2.49-1.52c2.78-1.51,5.4-2.84,8.04-4.08
		c5.37-2.52,10.74-4.64,16.43-6.47c4.13-1.34,8.3-2.49,12.72-3.52l0.17-0.05l0.36-0.08c1-0.24,2.02-0.46,3.05-0.68
		c3.66-0.78,7.43-1.59,10.65-3.37c1.12-0.61,1.98-1.19,2.71-1.83c0.8-0.69,1.46-1.44,1.98-2.22
		C159.48,196.38,159.48,192.45,157.07,189.08z M153.58,199.94c-0.68,0.59-1.44,1.08-2.25,1.52c-1.24,0.68-2.59,1.2-4.01,1.64
		c-2.93,0.91-6.13,1.44-9.06,2.15c-0.17,0.05-0.34,0.08-0.52,0.14c-0.34,0.08-0.68,0.15-1,0.24c-4.22,1.02-8.14,2.13-11.9,3.34
		c-5.83,1.86-11.26,4.01-16.73,6.59c-2.69,1.27-5.4,2.64-8.18,4.15c-3.18,1.73-6.25,4.54-10.3,4.96c-0.59,0.05-1.2,0.08-1.83,0.08
		c-0.14,0-0.29,0-0.42-0.02c-1.88-0.03-3.83-0.37-5.54-1c-0.05-0.02-0.12-0.03-0.17-0.05c-1.2-0.27-2.35-0.63-3.34-1.05
		c-0.25-0.1-0.49-0.22-0.73-0.34c-0.22-0.12-0.44-0.24-0.64-0.36c-3.42-2.08-7.01-7.2-7.89-10.18c-1.34-4.59-2.18-8.2-2.44-12.78
		c-0.36-6.38,0.44-12.73,2.44-18.8c0.91-2.79,3.12-8.09,6.79-9.3c0.91-0.3,1.73-0.44,2.46-0.44c1.03,0,1.91,0.27,2.64,0.76
		c0.2,0.1,0.39,0.25,0.56,0.41c0.07,0.05,0.14,0.12,0.2,0.19c0.3,0.27,0.56,0.59,0.81,0.95c0.25,0.36,0.47,0.73,0.68,1.15
		c0.2,0.41,0.37,0.83,0.54,1.29c1.61,4.56,1.37,11.06,1.69,13.46c0.08,0.66,0.19,1.32,0.29,1.96c0.42,2.59,0.95,5.08,1.56,7.5
		c0.47,1.83,1,3.62,1.57,5.42c0.05,0.14,0.08,0.27,0.14,0.41c12.94-6.65,31.39-15,44.38-18.03c2.54-0.59,5.13-0.9,7.62-0.9
		c4.64,0,8.92,1.07,11.79,3.3c0.91,0.73,1.68,1.51,2.22,2.25C156.97,193.32,157,196.94,153.58,199.94z"/>
	<path style="fill:#FFFFFF;" d="M153.58,199.94c-0.68,0.59-1.44,1.08-2.25,1.52c-1.24,0.68-2.59,1.2-4.01,1.64
		c-2.93,0.91-6.13,1.44-9.06,2.15c-0.17,0.05-0.34,0.08-0.52,0.14c-0.34,0.08-0.68,0.15-1,0.24c-4.22,1.02-8.14,2.13-11.9,3.34
		c-5.83,1.86-11.26,4.01-16.73,6.59c-2.69,1.27-5.4,2.64-8.18,4.15c-3.18,1.73-6.25,4.54-10.3,4.96c-0.59,0.05-1.2,0.08-1.83,0.08
		c-0.14,0-0.29,0-0.42-0.02c-1.88-0.03-3.83-0.37-5.54-1c-0.05-0.02-0.12-0.03-0.17-0.05c-1.2-0.27-2.35-0.63-3.34-1.05
		c-0.25-0.1-0.49-0.22-0.73-0.34c-0.24-0.12-0.44-0.24-0.64-0.36c-3.42-2.08-7.01-7.2-7.89-10.18c-1.34-4.59-2.18-8.2-2.44-12.78
		c-0.36-6.38,0.44-12.73,2.44-18.8c0.91-2.79,3.12-8.09,6.79-9.3c0.91-0.3,1.73-0.44,2.46-0.44c1.03,0,1.91,0.27,2.64,0.76
		c0.2,0.1,0.39,0.25,0.56,0.41c0.07,0.05,0.14,0.12,0.2,0.19c0.3,0.27,0.56,0.59,0.81,0.95c0.25,0.36,0.47,0.73,0.68,1.15
		c0.19,0.41,0.37,0.83,0.54,1.29c1.61,4.56,1.37,11.06,1.69,13.46c0.08,0.66,0.19,1.32,0.29,1.96c0.41,2.59,0.93,5.08,1.56,7.5
		c0.47,1.83,1,3.62,1.57,5.42c0.05,0.14,0.08,0.27,0.14,0.41c12.94-6.65,31.39-15,44.38-18.03c2.54-0.59,5.13-0.9,7.62-0.9
		c4.64,0,8.92,1.07,11.79,3.3c0.91,0.73,1.68,1.51,2.22,2.25C156.97,193.32,157,196.94,153.58,199.94z"/>
	<path style="fill:#0085C9;" d="M153.58,199.94c-0.68,0.59-1.44,1.08-2.25,1.52c-1.24,0.68-2.59,1.2-4.01,1.64
		c-2.93,0.91-6.13,1.44-9.06,2.15c-0.17,0.05-0.34,0.08-0.52,0.14c-0.34,0.08-0.68,0.15-1,0.24c-4.22,1.02-8.14,2.13-11.9,3.34
		c-5.83,1.86-11.26,4.01-16.73,6.59c-2.69,1.27-5.4,2.64-8.18,4.15c-3.18,1.73-6.25,4.54-10.3,4.96c-0.59,0.05-1.2,0.08-1.83,0.08
		c-0.14,0-0.29,0-0.42-0.02c-1.24-0.1-2.47-0.32-3.62-0.66c-1.98-0.58-3.74-1.49-4.98-2.74c-5.01-5.13,0.32-12.55,5.81-15.53
		c1.34-0.73,2.76-1.49,4.28-2.27c0.05,0.14,0.08,0.27,0.14,0.41c12.94-6.65,31.39-15,44.38-18.03c2.54-0.59,5.13-0.9,7.62-0.9
		c4.64,0,8.92,1.07,11.79,3.3c0.91,0.73,1.68,1.51,2.22,2.25C156.97,193.32,157,196.94,153.58,199.94z"/>
</g>
<g>
	<path style="fill:#FFFFFF;" d="M193,197.99c-1.59,5.06-4.01,9.91-7.21,14.24c-5.05,6.82-12.9,13.87-21.35,17.03
		c-1.61,0.59-3.17,0.88-4.69,0.91c2.91-1.56,4.83-5.1,5.47-8.28c0.63-3.12,0.07-5.71-0.83-8.72c-0.86-2.84-2.4-4.74-4.49-6.43
		c1.27-0.39,2.52-0.97,3.78-1.79c4.47-2.93,8.18-8.91,10.74-13.19c2.81-4.69,4.76-8.5,9.58-11.58c1.51-0.95,2.79-1.37,3.89-1.37
		c3.56,0,5.15,4.35,5.66,9.04C193.97,191.81,193.61,196.03,193,197.99z"/>
	<path style="fill:#0085C9;" d="M165.22,221.9c-0.64,3.18-2.56,6.72-5.47,8.28c-0.12,0.02-0.24,0.02-0.36,0.02
		c-4.64,0-8.94-2.29-12.84-5.1c-1.3-0.93-2.56-1.93-3.76-2.91c-0.1-0.08-0.2-0.17-0.3-0.25c-0.61-0.51-1.24-1.02-1.85-1.54
		c-0.24-0.19-0.47-0.39-0.71-0.59c-0.93-0.8-1.88-1.59-2.84-2.39c-1.05-0.85-2.12-1.69-3.22-2.49c-0.41-0.3-0.81-0.61-1.24-0.88
		c-0.51-0.36-1.03-0.69-1.56-1.03c-6.2-3.88-12.89-7.18-19.93-9.45c-0.95-0.3-1.88-0.59-2.83-0.85c-0.05-0.03-0.12-0.03-0.17-0.05
		c-0.73-0.2-1.44-0.39-2.17-0.56c-1-0.25-2.02-0.49-3.05-0.68c-0.39-0.08-0.8-0.17-1.2-0.22c-0.76-0.15-1.54-0.27-2.3-0.39
		c-0.2-0.03-0.41-0.07-0.61-0.08c-1.19-0.14-2.47-0.19-3.69-0.39c-0.03,0-0.08-0.02-0.14-0.02c-0.9-0.15-1.74-0.39-2.47-0.81
		c-2.3-2.35,1.76-9.35,3.13-10.87c3.3-3.64,10.06-5.32,16.09-5.32c2.42,0,4.74,0.27,6.65,0.78c7.03,1.9,13.12,6.15,19.32,9.45
		c5.88,3.13,11.7,6.43,17.26,10.06c1.61,1.05,3.25,2.08,4.86,3.15c0.02,0,0.05-0.02,0.07-0.02c2.08,1.69,3.62,3.59,4.49,6.43
		C165.28,216.19,165.84,218.78,165.22,221.9z"/>
	<path d="M95.13,200.34c1.22,0.2,2.51,0.25,3.69,0.39C97.6,200.56,96.37,200.43,95.13,200.34z"/>
	<path d="M196.07,187.58c-1.05-9.84-5.57-11.31-8.18-11.31c-1.64,0-3.4,0.59-5.25,1.78c-4.91,3.12-7.11,6.86-9.67,11.18l-0.73,1.24
		c-2.02,3.35-5.76,9.62-9.96,12.38c-0.68,0.44-1.37,0.81-2.12,1.12c-0.69-0.46-1.41-0.91-2.1-1.35l-1.71-1.12
		c-5.05-3.29-10.6-6.52-17.46-10.18c-1.56-0.83-3.1-1.71-4.74-2.64c-4.71-2.71-9.58-5.5-15.09-7.01c-2.13-0.56-4.67-0.86-7.33-0.86
		c-5.99,0-13.85,1.61-17.97,6.15c-1.35,1.49-5.83,8.52-4.08,12.82c0.44,1.07,1.61,2.88,4.64,3.08c5.27,0.36,10.67,1.41,16.04,3.13
		c6.43,2.08,12.95,5.18,19.37,9.19c3.01,1.9,5.69,4.15,8.52,6.55c0.97,0.81,1.95,1.63,2.93,2.44c5.08,4.15,11.11,8.59,18.2,8.59
		c2.02,0,4.01-0.36,5.94-1.08c8.01-3.01,16.43-9.7,22.49-17.92c3.34-4.5,5.89-9.55,7.6-14.99
		C196.22,196.19,196.49,191.5,196.07,187.58z M142.8,222.19c-0.1-0.08-0.2-0.17-0.3-0.25c-0.61-0.51-1.24-1.02-1.85-1.54
		c-0.24-0.19-0.47-0.39-0.71-0.59c-0.93-0.8-1.88-1.59-2.84-2.39c-1.05-0.85-2.12-1.69-3.22-2.49c-0.41-0.3-0.81-0.59-1.24-0.88
		c-0.51-0.36-1.03-0.69-1.56-1.03c-6.2-3.88-12.89-7.18-19.93-9.45c-0.95-0.3-1.88-0.59-2.83-0.85c-0.05-0.03-0.12-0.03-0.17-0.05
		c-0.73-0.2-1.44-0.39-2.17-0.56c-1-0.25-2.02-0.49-3.05-0.68c-0.39-0.08-0.8-0.17-1.2-0.22c-0.76-0.15-1.54-0.27-2.3-0.39
		c-0.2-0.03-0.41-0.07-0.61-0.08c-1.19-0.14-2.47-0.19-3.69-0.39c-0.03,0-0.08-0.02-0.14-0.02c-0.17-0.02-0.32-0.02-0.49-0.03
		c-0.91-0.05-1.56-0.34-1.98-0.78c-2.3-2.35,1.76-9.35,3.13-10.87c3.3-3.64,10.06-5.32,16.09-5.32c2.42,0,4.74,0.27,6.65,0.78
		c7.03,1.9,13.12,6.15,19.32,9.45c5.88,3.13,11.7,6.43,17.26,10.06c1.61,1.05,3.25,2.08,4.86,3.15c0.02,0,0.05-0.02,0.07-0.02
		c1.27-0.39,2.52-0.97,3.78-1.79c4.47-2.93,8.18-8.91,10.74-13.19c2.81-4.69,4.76-8.5,9.58-11.58c1.51-0.95,2.79-1.37,3.89-1.37
		c3.56,0,5.15,4.35,5.66,9.04c0.42,3.96,0.07,8.18-0.54,10.14c-1.59,5.06-4.01,9.91-7.21,14.24c-5.05,6.82-12.9,13.87-21.35,17.03
		c-1.61,0.59-3.17,0.88-4.69,0.91c-0.12,0.02-0.24,0.02-0.36,0.02c-4.64,0-8.94-2.29-12.84-5.1
		C145.25,224.17,144,223.17,142.8,222.19z"/>
</g>
<g>
	<path style="fill-rule:evenodd;clip-rule:evenodd;" d="M105.11,121.41L105.11,121.41c2.26-0.05,4.06-1.94,4.01-4.22l-0.01-0.58
		c-0.05-2.28-1.93-4.09-4.19-4.04c-2.26,0.05-4.06,1.94-4.01,4.22l0.01,0.58C100.97,119.65,102.84,121.46,105.11,121.41"/>
	<path style="fill-rule:evenodd;clip-rule:evenodd;" d="M139.24,120.14L139.24,120.14c2.46-0.05,4.4-1.95,4.35-4.23l-0.01-0.58
		c-0.05-2.28-2.08-4.09-4.54-4.04c-2.46,0.05-4.41,1.95-4.36,4.23l0.01,0.58C134.75,118.39,136.78,120.2,139.24,120.14"/>
	<path style="fill:#8EA7B1;" d="M124.87,112.37c-0.37,0-0.73-0.2-0.91-0.56c-0.72-1.44-0.53-3.1-0.34-4.7c0.06-0.5,0.12-1,0.15-1.49
		c0.03-0.56,0.51-0.98,1.07-0.96c0.56,0.03,0.99,0.51,0.96,1.07c-0.03,0.53-0.09,1.07-0.16,1.61c-0.16,1.37-0.31,2.66,0.14,3.55
		c0.25,0.5,0.05,1.11-0.45,1.36C125.18,112.34,125.02,112.37,124.87,112.37z"/>
	<path style="fill:#8EA7B1;" d="M130.07,113.29c-0.24,0-0.49-0.08-0.68-0.25c-1.49-1.25-0.93-6.39-0.92-6.43
		c0.12-0.55,0.67-0.9,1.21-0.78c0.55,0.12,0.9,0.66,0.78,1.21c-0.11,0.91-0.11,3.94,0.28,4.5c0.43,0.36,0.46,0.98,0.1,1.41
		C130.64,113.17,130.36,113.29,130.07,113.29z"/>
	<path style="fill-rule:evenodd;clip-rule:evenodd;" d="M123.34,123.22c0.03,1.38-1.4,2.52-3.22,2.56c-1.82,0.04-3.3-1.04-3.33-2.42
		c-0.03-1.37,1.41-2.52,3.23-2.56C121.83,120.76,123.31,121.86,123.34,123.22"/>
	<path style="fill:#231815;" d="M139.6,143.8c-1.06-2.8-1.12-8.06-0.11-10.41c0.34-0.8-0.03-1.72-0.83-2.07
		c-0.79-0.34-1.72,0.03-2.06,0.83c-0.67,1.56-0.95,3.71-0.96,5.88c-5.85-0.06-10.58-2.19-13.67-6.19c-0.32-0.41-0.83-0.65-1.35-0.61
		c-0.52,0.04-1,0.33-1.26,0.79c-2.72,4.72-6.94,6.24-10,6.67c-0.32,0.05-0.46,0.05-0.45,0.06c-0.08-0.07-0.27-0.28-0.7-0.99
		c-0.03-0.04-0.07-0.07-0.1-0.11c-0.2-1.26-0.68-2.44-1.57-3.38c-0.6-0.63-1.59-0.67-2.23-0.07c-0.63,0.6-0.66,1.59-0.07,2.22
		c1.34,1.42,0.92,5.01-0.25,7.65c-0.35,0.79,0,1.72,0.8,2.08c0.13,0.06,0.26,0.1,0.4,0.12c0.69,0.11,1.38-0.25,1.68-0.91
		c0.43-0.96,0.86-2.25,1.12-3.65c0.12,0.03,0.22,0.09,0.36,0.11c0.42,0.07,0.9,0.06,1.47-0.02c3.33-0.48,7.79-2,11.09-6.41
		c3.69,3.78,8.81,5.77,14.93,5.78c0.17,1.41,0.45,2.71,0.83,3.72c0.21,0.55,0.69,0.92,1.23,1c0.26,0.04,0.53,0.02,0.8-0.08
		C139.5,145.52,139.91,144.61,139.6,143.8z"/>
</g>
<g>
	<path d="M60.28,161.57l-0.24-0.63c-0.98-2.61-1.95-5.11-2.83-7.37c-0.85-2.22-1.86-4.72-2.9-7.32l-0.24-0.59
		c-0.58-1.44-1.95-2.34-3.59-2.34c-0.83,0-2.17,0.39-3.67,1.03c-1.51,0.63-3.18,1.51-4.74,2.49c-0.03-0.1-0.08-0.2-0.12-0.3
		c-0.97-2.35-3.03-4.69-5.37-6.11c-1.66-1-3.56-1.52-5.47-1.52c-3.64,0-7.04,1.93-8.89,5.05c-1.63,2.78-2.46,6.21-1.91,9.25
		c-1.63,0.47-3.03,1.27-4.27,2.42c-3.84,3.61-4.25,9.8-2.66,14.07l0.02,0.03l0.03,0.05c1.71,4.22,6.2,8.5,11.48,8.55h0.1
		c1.79,0,3.34-0.44,4.66-1.1c1.66,2.61,4.61,4.57,7.69,5.5c0.97,0.3,1.96,0.44,2.96,0.44c4.57,0,8.67-3.12,9.97-7.57
		c0.73-2.52,0.69-5.5-0.08-7.84c4.01-0.17,8.28-0.86,9.65-2.86C60.55,163.92,60.7,162.67,60.28,161.57z M57.59,163.68
		c-1.27,1.2-8.26,1.81-11.79,1.49l0.02,0.02c0.73,0.97,1.47,1.96,1.91,3.17c0.69,1.86,0.75,4.44,0.14,6.54
		c-0.61,2.08-1.96,3.79-3.84,4.81c-1.15,0.63-2.4,0.93-3.67,0.93c-0.76,0-1.51-0.1-2.25-0.32c-2.88-0.88-6.79-3.37-7.2-6.96
		c-1.47,1.29-3.37,2.44-5.88,2.44h-0.08c-2.08-0.02-4.03-0.9-5.62-2.22c-1.59-1.3-2.83-3.03-3.52-4.76c-1.32-3.49-1.03-8.5,2-11.35
		c1.86-1.74,4.06-2.18,6.05-2.24c-2.13-2.91-0.95-7.4,0.59-9.99c1.05-1.79,2.74-3.05,4.76-3.56c2.08-0.52,4.23-0.2,6.08,0.93
		c1.88,1.13,3.57,3.05,4.33,4.89c0.49,1.19,0.61,2.42,0.73,3.62c0.02,0.05,0.02,0.1,0.02,0.15c2.44-2.3,8.26-5.42,10.16-5.42
		c0,0,0,0,0.02,0c0.81,0.02,1.12,0.52,1.2,0.73l0.08,0.24c1.08,2.71,2.13,5.33,3.05,7.69c0.9,2.29,1.88,4.86,2.9,7.54l0.15,0.41
		C58.08,162.89,57.96,163.34,57.59,163.68z"/>
	<path style="fill:#A0DCFC;" d="M43.57,163.55c-0.3,0.37-0.34,0.91-0.07,1.32c0.3,0.46,0.64,0.9,0.97,1.34
		c0.68,0.91,1.32,1.76,1.68,2.74c0.58,1.52,0.61,3.73,0.1,5.49c-0.49,1.63-1.56,2.98-3.03,3.78c-1.42,0.78-3.06,0.95-4.62,0.47
		c-2.61-0.8-6.54-3.29-5.98-6.6c0.07-0.49-0.17-0.98-0.61-1.2c-0.14-0.07-0.3-0.1-0.46-0.1c-0.27,0-0.54,0.1-0.75,0.32
		c-2.03,2.1-3.76,3-5.77,3h-0.07c-3.39-0.03-6.45-3.06-7.59-5.89c-1.08-2.88-0.9-7.18,1.57-9.5c1.51-1.41,3.4-1.93,6.33-1.74
		c0.47,0.03,0.88-0.24,1.05-0.66c0.17-0.46,0.02-0.98-0.37-1.29c-2.66-2.08-1.46-6.57-0.07-8.91c0.81-1.41,2.15-2.39,3.73-2.78
		c1.63-0.42,3.32-0.15,4.78,0.73c1.57,0.95,3.03,2.59,3.64,4.1c0.41,0.97,0.51,2.02,0.63,3.15c0.05,0.54,0.1,1.1,0.2,1.64
		c0.07,0.49,0.46,0.86,0.93,0.91c0.46,0.05,0.91-0.2,1.12-0.64c0.61-1.47,7.59-5.4,9.38-5.64c1.07,2.66,2.1,5.23,3,7.55
		c0.9,2.27,1.86,4.83,2.86,7.47c-1.83,0.71-9.75,1.39-11.33,0.68C44.38,163.07,43.89,163.19,43.57,163.55z"/>
	<path style="fill:#5DAED9;" d="M57.59,163.68c0.37-0.34,0.49-0.8,0.32-1.22l-0.15-0.41c-1.02-2.68-2-5.25-2.9-7.54
		c-0.91-2.35-1.96-4.98-3.05-7.69l-0.08-0.24c-0.08-0.2-0.39-0.71-1.2-0.73c-0.02,0-0.02,0-0.02,0c-1.9,0-7.72,3.12-10.16,5.42
		c0-0.05,0-0.1-0.02-0.15c-0.12-1.2-0.24-2.44-0.73-3.62c-0.76-1.85-2.46-3.76-4.33-4.89c-1.85-1.13-4-1.46-6.08-0.93
		c-2.02,0.51-3.71,1.76-4.76,3.56c-1.54,2.59-2.73,7.08-0.59,9.99c-1.98,0.05-4.18,0.49-6.05,2.24c-3.03,2.84-3.32,7.86-2,11.35
		c0.69,1.73,1.93,3.45,3.52,4.76c1.59,1.32,3.54,2.2,5.62,2.22h0.08c2.51,0,4.4-1.15,5.88-2.44c0.41,3.59,4.32,6.08,7.2,6.96
		c0.75,0.22,1.49,0.32,2.25,0.32c1.27,0,2.52-0.3,3.67-0.93c1.88-1.02,3.23-2.73,3.84-4.81c0.61-2.1,0.56-4.67-0.14-6.54
		c-0.44-1.2-1.19-2.2-1.91-3.17l-0.02-0.02C49.32,165.49,56.32,164.88,57.59,163.68z M44.82,163.28c-0.44-0.2-0.93-0.08-1.25,0.27
		c-0.3,0.37-0.34,0.91-0.07,1.32c0.3,0.46,0.64,0.9,0.97,1.34c0.68,0.91,1.32,1.76,1.68,2.74c0.58,1.52,0.61,3.73,0.1,5.49
		c-0.49,1.63-1.56,2.98-3.03,3.78c-1.42,0.78-3.06,0.95-4.62,0.47c-2.61-0.8-6.54-3.29-5.98-6.6c0.07-0.49-0.17-0.98-0.61-1.2
		c-0.14-0.07-0.3-0.1-0.46-0.1c-0.27,0-0.54,0.1-0.75,0.32c-2.03,2.1-3.76,3-5.77,3h-0.07c-3.39-0.03-6.45-3.06-7.59-5.89
		c-1.08-2.88-0.9-7.18,1.57-9.5c1.51-1.41,3.4-1.93,6.33-1.74c0.47,0.03,0.88-0.24,1.05-0.66c0.17-0.46,0.02-0.98-0.37-1.29
		c-2.66-2.08-1.46-6.57-0.07-8.91c0.81-1.41,2.15-2.39,3.73-2.78c1.63-0.42,3.32-0.15,4.78,0.73c1.57,0.95,3.03,2.59,3.64,4.1
		c0.41,0.97,0.51,2.02,0.63,3.15c0.05,0.54,0.1,1.1,0.2,1.64c0.07,0.49,0.46,0.86,0.93,0.91c0.46,0.05,0.91-0.2,1.12-0.64
		c0.61-1.47,7.59-5.4,9.38-5.64c1.07,2.66,2.1,5.23,3,7.55c0.9,2.27,1.86,4.83,2.86,7.47C54.32,163.31,46.39,163.99,44.82,163.28z"
		/>
</g>
<g>
	<path style="fill:#0085C9;" d="M163.59,206.13c-2.17,2.37-5.33,3.37-8.65,3.37c-4.18,0-8.62-1.57-11.63-3.89
		c-6.06-4.71-16.21-17.17-4.66-21.59c1.12-0.44,2.46-0.64,3.91-0.64C153.97,183.38,172.99,195.86,163.59,206.13z"/>
	<path d="M167.64,195.55c-3.66-8.28-16.49-14.72-25.08-14.72c-1.81,0-3.44,0.27-4.83,0.81c-5,1.9-6.45,5.11-6.81,7.47
		c-1.05,7.18,6.62,15.24,10.84,18.49c3.52,2.74,8.57,4.44,13.17,4.44c4.39,0,8.03-1.46,10.53-4.2
		C168.77,204.24,169.53,199.87,167.64,195.55z M143.3,205.61c-6.06-4.71-16.21-17.17-4.66-21.59c1.12-0.44,2.46-0.64,3.91-0.64
		c11.41,0,30.43,12.48,21.03,22.76c-2.17,2.37-5.33,3.37-8.65,3.37C150.76,209.5,146.32,207.93,143.3,205.61z"/>
</g>
</svg>
