<?xml version="1.0" encoding="utf-8"?>
<!-- Generator: Adobe Illustrator 23.0.3, SVG Export Plug-In . SVG Version: 6.00 Build 0)  -->
<svg version="1.1" id="Layer_1" xmlns="http://www.w3.org/2000/svg" xmlns:xlink="http://www.w3.org/1999/xlink" x="0px" y="0px"
	 viewBox="0 0 440 436" style="enable-background:new 0 0 440 436;" xml:space="preserve">
<style type="text/css">
	.st0{fill-rule:evenodd;clip-rule:evenodd;fill:url(#SVGID_1_);}
	.st1{opacity:0.4;fill-rule:evenodd;clip-rule:evenodd;fill:url(#SVGID_2_);enable-background:new    ;}
</style>
<title>img / entrybot</title>
<desc>Created with Sketch.</desc>
<g>
	<g id="img_entrybot" transform="translate(-17.000000, -11.000000)">
		<g id="img_light">
			<g id="Combined-Shape">
				
					<radialGradient id="SVGID_1_" cx="-722.2258" cy="767.8423" r="0.4979" gradientTransform="matrix(2.708135e-14 -442.2719 -442.272 -2.708135e-14 339832.3125 -319193.0312)" gradientUnits="userSpaceOnUse">
					<stop  offset="0" style="stop-color:#FFFFC7"/>
					<stop  offset="0.3979" style="stop-color:#FAD961"/>
					<stop  offset="1" style="stop-color:#FFF0DE;stop-opacity:0"/>
				</radialGradient>
				<path class="st0" d="M237.1,233L237.1,233L14.9,273.3v-80.8L237,232.9L51.2,105.2l57.5-57.1L237.1,233l0.1,0L237.1,233
					L237.1,233L237.1,233L237.1,233L237.1,233L237.1,233L108.5,417.6L51,360.5L237.1,233z M237.6,232.9l221.9-40.3v80.8L237.4,233
					l0,0l0,0l-0.3,0l0.3-0.1L365.3,49.1l57.5,57.1L237.6,232.9z M174.3,11.9h125.8l-62.9,221L174.3,11.9z M174.3,454.1l62.9-221
					l62.9,221H174.3z M438.1,337.2l-50.1,63.7L237.1,233L438.1,337.2z"/>
				
					<radialGradient id="SVGID_2_" cx="-722.1882" cy="767.9156" r="0.474" gradientTransform="matrix(2.856094e-14 -466.4353 -466.4355 -2.856093e-14 358421.4375 -336620.8438)" gradientUnits="userSpaceOnUse">
					<stop  offset="0" style="stop-color:#FFFFC7"/>
					<stop  offset="0.3979" style="stop-color:#FAD961"/>
					<stop  offset="1" style="stop-color:#FFF0DE;stop-opacity:0"/>
				</radialGradient>
				<path class="st1" d="M236.9,233.7l-66.2,232.8l-71.6-35.2l137.4-197.3l-200,136.5L0.9,275.7l235.8-42l0.3-0.4L236.9,233.7
					l0.1-0.1L236.9,233.7z M237.4,233l-0.1,0.2L237.4,233L237.4,233z M237.3,232.9l-0.2-0.1l0.1,0.4L237.3,232.9z M237.2,233.2
					L99.3,35.2L170.9,0l66.2,232.8l0.2,0L303.5,0.1l71.6,35.2L237.5,232.9l0.2,0l200-136.5l35.8,92.9L238.4,233l237.4,41.7l-23,68.6
					L237.7,233.2L237.2,233.2l0,0.1L237.2,233.2L237.2,233.2L237.2,233.2L237.2,233.2z M237.2,233.3l164.9,179.2l-97.9,53.9
					L237.2,233.3z M236.8,232.9L1,189.4l36.9-93.3L236.8,232.9z"/>
			</g>
		</g>
	</g>
</g>
</svg>
