<?xml version="1.0" encoding="utf-8"?>
<!-- Generator: Adobe Illustrator 23.0.1, SVG Export Plug-In . SVG Version: 6.00 Build 0)  -->
<svg version="1.1" id="레이어_1" xmlns="http://www.w3.org/2000/svg" xmlns:xlink="http://www.w3.org/1999/xlink" x="0px"
	 y="0px" viewBox="0 0 297.96 309" style="enable-background:new 0 0 297.96 309;" xml:space="preserve">
<style type="text/css">
	.st0{fill:#040000;}
	.st1{fill:#FFFFFF;}
	.st2{fill:#2E97D5;}
	.st3{fill:#643219;}
	.st4{fill-rule:evenodd;clip-rule:evenodd;fill:#FFFFFF;}
	.st5{fill-rule:evenodd;clip-rule:evenodd;fill:#F6BBB7;}
	.st6{fill-rule:evenodd;clip-rule:evenodd;fill:#CC4947;}
	.st7{fill:#231815;}
	.st8{fill-rule:evenodd;clip-rule:evenodd;}
	.st9{fill:#117DBB;}
</style>
<g>
	<g>
		<path class="st0" d="M201.87,215.54c3.33,0,6.44,2.54,7.2,6.73c2.86,15.8,4.82,35.66,6.66,51.58c0.45,3.88,3.32,11.36,1.36,14.9
			c-1.43,2.58-7.47,4.29-10.11,4.76c-4.11,0.73-7.64,1.2-11.75,1.2c-0.14,0-0.28,0-0.42,0c-3.95-0.03-14.45-0.33-17.12-4.06
			c-3.59-5.01,2.06-16.31,6.16-19.23c2.71-1.93,8.05-4.02,12.57-4.02c1.33,0,2.59,0.18,3.7,0.6c0.54-7.37-0.77-11.58-1.75-18.93
			c0.01,0,0.01,0,0.02,0.01c-0.16-1.13-0.31-2.29-0.43-3.5c-0.54-5.57-4.67-26.56,0.92-29.33
			C199.84,215.78,200.87,215.54,201.87,215.54 M201.87,212.91c-1.45,0-2.85,0.33-4.18,0.99c-5.87,2.91-4.7,14.98-2.86,28.15
			c0.22,1.57,0.41,2.92,0.49,3.79c0.1,1.02,0.23,2.07,0.4,3.3c0,0.09,0.01,0.19,0.02,0.28c0.26,1.97,0.54,3.67,0.81,5.32
			c0.57,3.52,1.05,6.45,1.04,10.07c-0.39-0.03-0.78-0.04-1.19-0.04c-5.1,0-10.95,2.27-14.09,4.5c-3.59,2.55-7.26,9.1-8.17,14.59
			c-0.56,3.37-0.08,6.24,1.4,8.31c2.42,3.38,8.72,5.07,19.24,5.16l0.44,0c4.31,0,8-0.5,12.21-1.24c0.98-0.17,9.59-1.81,11.95-6.07
			c1.89-3.41,0.74-8.35-0.28-12.7c-0.34-1.44-0.65-2.81-0.77-3.78c-0.35-3-0.7-6.13-1.05-9.35c-1.54-13.82-3.29-29.49-5.63-42.4
			C210.71,216.57,206.69,212.91,201.87,212.91L201.87,212.91z"/>
	</g>
	<g>
		<path class="st1" d="M215.73,273.85c-1.84-15.92-3.8-35.78-6.66-51.58c-0.99-5.46-5.97-8.11-10.21-6.01
			c-5.58,2.77-1.46,23.76-0.92,29.33c0.83,8.47,3.08,14.94,2.46,23.47c-4.29-0.29-10.26,1.18-13.77,3.68
			c-4.09,2.91-9.56,11.92-5.97,16.93c2.67,3.73,9.46,2.97,13.41,3c4.29,0.03,8.66,0.34,12.91-0.41c2.64-0.47,7.84-1.36,9.27-3.95
			C218.21,284.77,216.18,277.74,215.73,273.85z"/>
	</g>
	<g>
		<path class="st2" d="M212.58,247.34c-0.54,0.48-1.13,0.91-1.84,1.23c-3.25,1.42-8.47,1.89-12.38,0.52
			c0.98,7.36,2.28,11.56,1.75,18.93c-4.85-1.84-12.75,0.92-16.26,3.42c-4.09,2.91-9.74,14.22-6.16,19.23
			c2.67,3.73,13.18,4.02,17.12,4.06c4.29,0.03,7.92-0.45,12.17-1.2c2.64-0.47,8.68-2.18,10.11-4.76c1.96-3.55-0.91-11.02-1.36-14.9
			C214.75,265.39,213.74,257.41,212.58,247.34z"/>
	</g>
</g>
<g>
	<g>
		<path class="st0" d="M162.9,216.11c3.31,0,4.67,0.78,5.52,4.04c2.01,7.71,2.78,15.08-0.56,22.59c-0.79,1.77-1.76,3.43-2.87,5
			c-0.29,0.41-0.62,0.79-0.93,1.18c0.02,0,0.04,0,0.06,0c0,0,0,0,0.01,0c0.02,0,0.04,0,0.06,0c-0.34,0.37-0.67,0.74-1,1.1
			c-0.16,0.18-0.32,0.36-0.49,0.54c-0.61,0.67-1.24,1.34-1.92,1.96c-2.38,2.19-6.65,6.19-9.88,6.7c0.02,0,0.04,0,0.06,0
			c0.83,0,3.93,2.27,4.32,2.8c0.81,1.09,2.91,3.55,3.4,4.81c3.01,7.6,1.53,17.79-5.54,23.16c-2.2,1.67-4.43,2.86-6.83,2.86
			c-1.16,0-2.36-0.28-3.62-0.92c-1.13-0.58-2.27-1.6-3.36-2.81c-2.13-1.89-3.6-4.69-5.01-7.08c-1.49-2.53-2.74-5.19-3.79-7.93
			c-0.65-1.58-1.27-3.17-1.89-4.74c-1.42-3.62-3.37-8.43-1.59-12.25c0,0,0,0,0,0c0,0,0,0,0,0c0.79-1.7,2.48-2.5,4.15-3.18
			c0.56-0.23,1.12-0.44,1.64-0.67c4.89-2.14,9.38-3.37,13.66-6.92c0.65-0.54,1.29-1.06,1.92-1.59c1.26-1.06,2.47-2.13,3.54-3.33
			c0.53-0.6,1.03-1.24,1.48-1.92c0.44-0.67,0.84-1.36,1.17-2.13c1.99-4.63,2.24-8.55,2.11-13.39c-0.11-4.1,0.14-7.68,5.19-7.86
			c0.17-0.01,0.34-0.01,0.5-0.01C162.59,216.11,162.75,216.11,162.9,216.11 M162.9,213.48l-0.53,0.01l-0.54,0.01
			c-8.01,0.28-7.82,7.22-7.73,10.56c0.13,4.69-0.14,8.2-1.9,12.28c-0.23,0.54-0.54,1.09-0.96,1.73c-0.36,0.54-0.77,1.07-1.25,1.62
			c-1,1.12-2.15,2.14-3.26,3.06c-0.37,0.31-0.74,0.61-1.11,0.92l-0.81,0.66c-2.94,2.44-6,3.67-9.54,5.09
			c-1.14,0.46-2.31,0.93-3.49,1.44c-0.34,0.15-0.69,0.29-1.05,0.43l-0.53,0.21c-1.48,0.6-4.22,1.71-5.53,4.46
			c-0.01,0.02-0.01,0.03-0.02,0.05c-2.23,4.79-0.09,10.21,1.46,14.17l0.06,0.16c0.62,1.58,1.25,3.18,1.91,4.77
			c1.09,2.87,2.43,5.67,3.95,8.27l0.52,0.89c1.31,2.25,2.78,4.8,4.91,6.73c1.42,1.55,2.73,2.62,4.02,3.28
			c1.57,0.8,3.19,1.21,4.82,1.21c3.53,0,6.5-1.94,8.42-3.4c8.48-6.43,9.63-18.06,6.39-26.23c-0.48-1.21-1.6-2.68-3.01-4.47
			c-0.29-0.36-0.54-0.69-0.72-0.93c-0.14-0.19-0.48-0.52-0.94-0.92c1.97-1.33,3.94-3.08,5.85-4.83l0.26-0.24
			c0.8-0.73,1.5-1.49,2.09-2.13l0.15-0.16c0.13-0.14,0.26-0.28,0.38-0.43l0.05-0.06c0.3-0.33,0.59-0.66,0.89-0.99
			c0.2-0.22,0.36-0.47,0.47-0.73c0.18-0.23,0.37-0.46,0.54-0.7c1.24-1.75,2.29-3.59,3.12-5.45c3.91-8.79,2.55-17.23,0.7-24.32
			C169.67,214.5,166.8,213.48,162.9,213.48L162.9,213.48z"/>
	</g>
	<g>
		<path class="st1" d="M162.42,216.11c-0.16,0-0.33,0.01-0.5,0.01c-5.05,0.18-5.3,3.75-5.19,7.86c0.13,4.84-0.12,8.76-2.11,13.39
			c-0.33,0.77-0.74,1.47-1.17,2.13c-1.79,2.73-4.35,4.7-6.94,6.84c-4.27,3.55-8.77,4.78-13.66,6.92c-2.09,0.92-4.73,1.57-5.79,3.84
			c-1.07,2.29,0.28,5.9,0.89,8.15c0.23,0.84,0.44,1.58,0.57,2.17c1.13,5.14,3.14,10.07,5.81,14.61c1.79,3.04,3.67,6.76,6.9,8.41
			c3.86,1.97,7.19,0.53,10.45-1.94c7.07-5.37,7.21-15.06,4.19-22.66c-0.5-1.26-1.02-2.36-1.83-3.44c-0.4-0.54-2.4-3.3-3.14-3.18
			c3.23-0.51,7.5-4.52,9.88-6.7c1.58-1.45,2.98-3.05,4.2-4.78c1.11-1.56,2.08-3.23,2.87-5c3.34-7.5,2.57-14.88,0.56-22.59
			C167.53,216.73,166.08,216.04,162.42,216.11z"/>
	</g>
	<g>
		<path class="st2" d="M159.11,247.46c-0.81-0.55-1.52-1.17-2.22-1.93c-0.8-0.87-4.31-4.71-3.45-6.02c-1.79,2.73-4.35,4.7-6.94,6.84
			c-4.27,3.55-8.77,4.78-13.66,6.92c-2.09,0.92-4.73,1.57-5.79,3.85c-1.78,3.82,0.17,8.64,1.59,12.25
			c1.69,4.28,3.34,8.69,5.68,12.67c1.79,3.04,5.15,8.24,8.37,9.89c3.86,1.97,7.19,0.53,10.45-1.94c7.07-5.37,8.55-15.56,5.54-23.16
			c-0.5-1.26-2.6-3.72-3.4-4.81c-0.4-0.54-3.64-2.91-4.38-2.79c3.23-0.51,7.5-4.52,9.88-6.7c1.23-1.13,2.28-2.38,3.4-3.6
			c-1.49,0.21-2.9-0.18-4.22-0.92C159.67,247.82,159.39,247.65,159.11,247.46z"/>
	</g>
</g>
<g>
	<g>
		<g>
			<path class="st3" d="M102.41,59.58c-1.71,0-3.4-0.43-4.91-1.26c-3-1.64-5.01-4.66-5.36-8.06c-0.21-2.05,0.18-4.09,1.15-5.91
				c0.1-0.19,0.28-0.51,0.52-0.92c3.29-5.9,7.35-10.4,12.07-13.35c3.96-2.48,7.78-3.63,12.02-3.63l0.44,0
				c1.97,0.03,4.03,0.32,6.29,0.87c1.55,0.38,3.23,0.99,5.27,1.92c4.17,1.9,9.51,7.48,10.81,12.74c0.68,2.75,0.24,5.26-1.29,7.25
				c-0.97,1.26-2.26,1.92-3.74,1.92c0,0,0,0,0,0c-2.73,0-5.62-2.28-7.95-4.1c-0.92-0.72-1.78-1.4-2.4-1.75
				c-0.97-0.55-1.97-0.82-2.96-0.82c-3.12,0-5.95,2.67-7.89,5.1l-0.31,0.59c-1.07,1.35-2.03,2.77-2.71,4
				C109.64,57.51,106.18,59.58,102.41,59.58z"/>
		</g>
		<g>
			<path class="st0" d="M117.9,27.75c0.13,0,0.27,0,0.41,0c1.92,0.04,3.9,0.32,6,0.84c1.72,0.42,3.42,1.1,5.03,1.84
				c5.19,2.37,13.65,11.98,9.02,17.99c-0.78,1.01-1.7,1.41-2.7,1.41c-3.3,0-7.41-4.4-9.71-5.69c-1.23-0.69-2.44-0.99-3.6-0.99
				c-3.6,0-6.85,2.87-9.3,6.09c0.02,0.04,0.05,0.06,0.07,0.1c-1.14,1.43-2.13,2.91-2.83,4.19c0,0.01-0.01,0.02-0.01,0.02
				c-1.62,3-4.69,4.7-7.87,4.7c-1.45,0-2.92-0.35-4.28-1.1c-2.72-1.49-4.39-4.17-4.68-7.04c-0.18-1.72,0.13-3.52,1-5.16
				c0.09-0.17,0.27-0.48,0.49-0.88c2.84-5.09,6.65-9.78,11.63-12.9C110.35,28.82,113.99,27.75,117.9,27.75 M117.9,25.12
				c-4.44,0-8.6,1.26-12.73,3.84c-4.91,3.07-9.12,7.73-12.53,13.84c-0.23,0.39-0.41,0.72-0.51,0.91c-1.1,2.07-1.55,4.38-1.31,6.69
				c0.4,3.84,2.66,7.23,6.04,9.08c1.7,0.93,3.62,1.42,5.54,1.42c4.25,0,8.16-2.33,10.18-6.08c0.64-1.18,1.56-2.53,2.59-3.83
				l1.11-1.4l-0.05-0.09c2.12-2.4,4.26-3.71,6.11-3.71c0.77,0,1.53,0.21,2.32,0.65c0.53,0.3,1.36,0.95,2.23,1.64
				c2.48,1.95,5.57,4.38,8.76,4.38c1.9,0,3.55-0.84,4.78-2.44c1.78-2.32,2.31-5.21,1.53-8.37c-1.44-5.81-7.12-11.59-11.54-13.62
				c-2.11-0.97-3.86-1.6-5.5-2c-2.35-0.58-4.5-0.87-6.57-0.91L117.9,25.12L117.9,25.12z"/>
		</g>
	</g>
	<g>
		<g>
			<g>
				<path class="st1" d="M118.31,27.75c1.92,0.04,3.9,0.32,6,0.84c1.72,0.42,3.42,1.1,5.03,1.84c5.19,2.37,13.65,11.98,9.02,17.99
					c-3.35,4.35-9.42-2.6-12.41-4.27c-6.71-3.76-12.74,4.01-15.67,9.41c-2.36,4.37-7.8,5.98-12.15,3.6c-4.36-2.38-6-7.82-3.68-12.2
					c2.88-5.43,6.86-10.48,12.12-13.78C110.48,28.74,114.24,27.68,118.31,27.75z"/>
			</g>
			<g>
				<path class="st3" d="M109.99,47.47c-0.72,0-1.37,0.28-1.93,0.66c0.63-0.66,1.02-1.55,1.01-2.54c-0.02-2-1.66-3.59-3.63-3.59
					c-0.92,0.01-1.74,0.39-2.37,0.98c0.52-0.63,0.86-1.43,0.85-2.31c-0.02-2-1.65-3.6-3.64-3.59c-0.18-0.01-0.34,0.07-0.52,0.1
					c-3.05,3.68-4.9,7.01-5.31,7.78c-2.32,4.38-0.67,9.82,3.69,12.2c4.35,2.38,9.79,0.76,12.15-3.6c0.7-1.28,1.7-2.78,2.84-4.21
					C112.5,48.24,111.34,47.45,109.99,47.47"/>
			</g>
		</g>
	</g>
</g>
<g>
	<g>
		<g>
			<path class="st3" d="M164.21,43.42c-0.63,0-1.28-0.13-1.93-0.4c-2.33-0.94-3.98-2.88-4.78-5.6c-1.53-5.2,0.26-12.71,2.89-16.46
				c1.29-1.83,2.42-3.2,3.58-4.32c1.67-1.62,3.3-2.9,4.98-3.93c3.5-2.14,7.33-3.17,11.71-3.17c0.29,0,0.58,0,0.87,0.01
				c5.56,0.16,11.33,1.99,17.17,5.42c0.4,0.23,0.72,0.42,0.9,0.52c1.77,1.09,3.14,2.65,3.99,4.53c1.42,3.12,1.21,6.73-0.55,9.67
				c-1.87,3.12-5.15,4.98-8.79,4.98c0,0,0,0,0,0c-1.87,0-3.72-0.52-5.33-1.5c-1.26-0.75-2.79-1.48-4.38-2.1l-0.82-0.32l0-0.13
				c-2.08-0.78-3.96-1.18-5.6-1.18c-2.61,0-4.46,1-5.67,3.06c-0.36,0.61-0.76,1.64-1.19,2.73
				C169.91,38.69,168.05,43.42,164.21,43.42z"/>
		</g>
		<g>
			<path class="st0" d="M180.66,10.84c0.27,0,0.55,0,0.83,0.01c5.86,0.17,11.52,2.29,16.54,5.24c0.41,0.23,0.72,0.41,0.88,0.52
				c1.58,0.98,2.76,2.36,3.47,3.94c1.19,2.63,1.12,5.79-0.48,8.45c-1.68,2.8-4.63,4.34-7.66,4.34c-1.58,0-3.19-0.42-4.65-1.31
				c-0.03-0.02-0.06-0.03-0.08-0.05c-1.24-0.74-2.82-1.5-4.5-2.15c0-0.04,0.01-0.08,0.01-0.12c-2.24-0.92-4.66-1.59-6.91-1.59
				c-2.73,0-5.21,0.99-6.81,3.71c-1.56,2.66-3.11,10.26-7.11,10.26c-0.45,0-0.92-0.1-1.44-0.3c-7.03-2.85-4.59-15.41-1.31-20.08
				c1.02-1.45,2.14-2.9,3.41-4.13c1.55-1.5,3.12-2.76,4.75-3.76C172.89,11.84,176.42,10.84,180.66,10.84 M180.66,8.21
				c-4.64,0-8.69,1.1-12.4,3.37c-1.77,1.08-3.47,2.43-5.21,4.11c-1.21,1.18-2.4,2.61-3.73,4.51c-2.8,3.98-4.77,11.84-3.08,17.58
				c0.92,3.12,2.84,5.35,5.55,6.45c0.81,0.33,1.63,0.5,2.43,0.5c4.73,0,6.78-5.21,8.28-9.02c0.41-1.04,0.79-2.02,1.1-2.54
				c0.96-1.65,2.41-2.41,4.54-2.41c1.24,0,2.71,0.27,4.31,0.8l0,0.1l1.63,0.63c1.52,0.59,2.97,1.28,4.1,1.96
				c1.89,1.14,3.96,1.73,6.08,1.73c4.1,0,7.81-2.1,9.92-5.62c1.98-3.3,2.22-7.37,0.62-10.89c-0.96-2.11-2.51-3.87-4.49-5.09
				c-0.2-0.12-0.53-0.32-0.97-0.57c-5.99-3.53-11.97-5.41-17.76-5.58C181.27,8.22,180.96,8.21,180.66,8.21L180.66,8.21z"/>
		</g>
	</g>
	<g>
		<g>
			<g>
				<path class="st1" d="M169.63,13.83c-1.64,1-3.2,2.25-4.75,3.76c-1.27,1.24-2.39,2.68-3.41,4.13
					c-3.28,4.67-5.72,17.23,1.31,20.08c5.09,2.06,6.81-7,8.55-9.96c3.89-6.63,13.02-2.98,18.28,0.2c4.25,2.58,9.75,1.22,12.31-3.03
					c2.56-4.25,1.23-9.78-2.99-12.39c-5.23-3.23-11.22-5.58-17.42-5.76C176.88,10.72,173.1,11.71,169.63,13.83z"/>
			</g>
			<g>
				<path class="st3" d="M186.78,26.64c0.62-0.37,1.32-0.45,2-0.41c-0.88-0.25-1.67-0.82-2.15-1.68c-0.99-1.74-0.39-3.94,1.32-4.93
					c0.8-0.46,1.7-0.54,2.54-0.36c-0.77-0.28-1.47-0.79-1.9-1.56c-0.99-1.74-0.4-3.94,1.33-4.94c0.15-0.1,0.33-0.11,0.5-0.17
					c4.5,1.64,7.77,3.57,8.51,4.03c4.22,2.6,5.55,8.14,2.99,12.39c-2.55,4.25-8.06,5.61-12.3,3.03c-1.25-0.75-2.87-1.53-4.58-2.2
					C185,28.57,185.6,27.31,186.78,26.64"/>
			</g>
		</g>
	</g>
</g>
<g>
	<g>
		<g>
			<path class="st2" d="M173.4,231.36c-1.67,0-3.33-0.04-4.99-0.13c-12.38-0.65-29.5-3.94-40.79-15.96
				c-11.55-12.3-15.27-32.33-10.19-54.93l0.45-1.98c1.26-5.43,2.56-11.05,1.03-16.18c-0.97-3.26-2.98-6.06-5.12-9.02
				c-0.56-0.77-1.11-1.55-1.65-2.33c-13.59-19.79-14.53-46.97-2.33-67.64c11.09-18.81,32.55-30.97,54.67-30.97
				c1.89,0,3.79,0.09,5.65,0.27c23.89,2.32,45.31,19.08,53.3,41.72c2.78,7.88,2.91,16.38,3.04,24.61l0.04,2.51
				c0.04,2.06,0.06,4.04,0.08,5.98c0.1,10.61,0.19,19.77,3.64,30.72c0.42,1.34,0.85,2.68,1.28,4.02c3.16,9.83,6.42,20,6.53,30.31
				c0.02,1.66-0.02,3.32-0.12,4.93c-0.75,12.6-5.14,24.34-12.35,33.05C214.52,223.69,195.5,231.36,173.4,231.36
				C173.4,231.36,173.4,231.36,173.4,231.36z"/>
		</g>
		<g>
			<path class="st0" d="M164.49,33.53c1.84,0,3.69,0.09,5.53,0.27c23.21,2.25,44.42,18.85,52.19,40.84
				c2.99,8.47,2.84,17.84,3.01,26.71c0.26,13.51-0.36,23.93,3.77,37.06c3.49,11.08,7.63,22.45,7.75,33.96
				c0.02,1.61-0.02,3.22-0.12,4.84c-0.7,11.66-4.6,23.29-12.05,32.29c-12.13,14.64-32.01,20.55-51.18,20.55
				c-1.64,0-3.29-0.04-4.91-0.13c-14.61-0.76-29.88-4.88-39.9-15.55c-12.98-13.83-14.02-35.23-9.87-53.74
				c1.4-6.22,3.29-12.72,1.46-18.82c-1.3-4.37-4.36-7.96-6.94-11.72c-13.2-19.22-14.13-46.14-2.29-66.23
				C121.85,45.35,143.07,33.53,164.49,33.53 M164.49,30.9c-22.58,0-44.48,12.41-55.8,31.61c-12.45,21.11-11.49,48.86,2.38,69.06
				c0.54,0.79,1.1,1.57,1.67,2.35c2.06,2.87,4.01,5.58,4.92,8.62c1.43,4.79,0.17,10.24-1.05,15.5c-0.15,0.67-0.31,1.33-0.46,1.99
				c-5.17,23.04-1.34,43.49,10.52,56.12c11.58,12.34,29.06,15.71,41.68,16.37c1.68,0.09,3.38,0.13,5.05,0.13
				c22.5,0,41.89-7.84,53.21-21.5c7.39-8.92,11.88-20.93,12.65-33.81c0.1-1.65,0.14-3.34,0.12-5.02
				c-0.11-10.51-3.41-20.78-6.6-30.71c-0.43-1.34-0.86-2.68-1.28-4.01c-3.39-10.76-3.48-19.83-3.58-30.33
				c-0.02-1.94-0.04-3.93-0.08-5.99l-0.04-2.51c-0.13-8.33-0.26-16.95-3.12-25.03c-8.16-23.11-30.03-40.22-54.42-42.59
				C168.36,31,166.42,30.9,164.49,30.9L164.49,30.9z"/>
		</g>
	</g>
</g>
<g>
	<g>
		<path class="st4" d="M156.71,39.29c5.58-0.75,11.24-0.75,16.6-0.01c8.75,1.2,19.34,4.08,25.61,10.44
			c2.77,2.82,5.02,6.11,6.77,9.65c1.32,2.67,1.7,6.82,4.06,8.79c4.77,3.98,6.31,6.54,8.92,12.41c2.46,5.53,3.63,11.83,2.64,17.84
			c-2.58,15.64-16.37,25.69-30.32,29.95c-1.93,0.59-3.9,1.18-5.85,1.77c-9.07,2.76-18.13,5.04-27.35,7.23
			c-14.2,3.37-31.17,1.68-41.3-10.52c-3.89-4.68-6.06-10.72-6.74-16.72c-0.72-6.38-0.68-9.37,1.42-15.22
			c1.04-2.88-0.73-6.66-0.94-9.63c-0.28-3.93,0-7.92,0.96-11.75c2.19-8.66,7.76-15.92,14.7-21.38c2.81-2.21,5.84-4.15,8.99-5.84
			C141.04,43.01,149.77,40.23,156.71,39.29z"/>
	</g>
	<g>
		<g>
			<path class="st5" d="M143.51,103.28c2.23,8.2-2.57,16.64-10.71,18.85s-16.54-2.65-18.76-10.85c-2.22-8.19,2.57-16.63,10.71-18.84
				C132.88,90.23,141.29,95.09,143.51,103.28"/>
		</g>
		<g>
			<path class="st5" d="M215.53,83.74c2.23,8.2-2.57,16.64-10.71,18.85c-8.13,2.21-16.53-2.65-18.76-10.85
				c-2.22-8.19,2.57-16.63,10.7-18.84C204.9,70.69,213.31,75.55,215.53,83.74"/>
		</g>
	</g>
	<g>
		<g>
			<g>
				<path class="st6" d="M178.68,97.91c0.96,4,0.44,13.5-9.97,15.49c-11.19,3.04-14.43-5.7-15.84-9.03c0,0,7.72,0.25,12.15-6"/>
				<path class="st0" d="M164.33,115.14c-8.14,0-11.1-7.07-12.33-10l-0.14-0.34c-0.15-0.34-0.1-0.74,0.11-1.04
					c0.21-0.31,0.57-0.48,0.94-0.48c0.06,0,7.2,0.13,11.23-5.54c0.35-0.49,1.03-0.61,1.53-0.26c0.49,0.35,0.61,1.04,0.26,1.53
					c-3.48,4.9-8.76,6.1-11.42,6.38c1.64,3.69,4.98,9.39,13.93,6.96c3.52-0.68,6.07-2.26,7.66-4.73c2.18-3.38,1.99-7.53,1.52-9.46
					c-0.14-0.59,0.22-1.18,0.81-1.32c0.59-0.14,1.18,0.22,1.32,0.81c0.67,2.81,0.6,7.41-1.82,11.16c-1.93,2.98-4.96,4.89-9.01,5.67
					C167.23,114.94,165.7,115.14,164.33,115.14z"/>
			</g>
			<g>
				<path class="st4" d="M157.42,104.6l0.21,0.78c0.18,0.67,0.91,1.05,1.62,0.86l14.33-3.89c0.71-0.19,1.15-0.89,0.97-1.56
					l-0.15-0.57c-0.16-0.58-0.73-0.96-1.37-0.9c-1.77,0.17-5.25,0.37-7.15-0.38c-0.53-0.21-1.15-0.14-1.56,0.27
					c-1.01,1.03-3.09,2.82-6.07,3.88C157.61,103.32,157.26,103.98,157.42,104.6z"/>
			</g>
			<g>
				<path class="st7" d="M153.44,105.59c-1.35,0-2.7-0.21-3.97-0.66c-1.29-0.46-3.54-1.46-4.14-3.04c-0.25-0.65-0.2-1.34,0.13-1.95
					c0.35-0.64,1.15-0.88,1.78-0.53c0.59,0.32,0.83,1.02,0.6,1.63c0.25,0.33,1.17,0.94,2.51,1.41c4.82,1.72,11.15-1.12,13.58-4.79
					c0.36-0.55,1.08-0.74,1.67-0.45c3.96,1.94,10.85,1.18,14.14-2.73c0.92-1.09,1.4-2.08,1.45-2.49c-0.51-0.4-0.65-1.14-0.31-1.71
					c0.38-0.62,1.19-0.82,1.81-0.45c0.6,0.36,0.99,0.94,1.1,1.62c0.28,1.67-1.16,3.67-2.04,4.72c-3.89,4.62-11.38,5.64-16.3,3.83
					C162.88,103.13,158.1,105.59,153.44,105.59z M181.34,92.08h0.02H181.34z"/>
			</g>
		</g>
		<g>
			<g>
				<path class="st8" d="M166.03,92.05c0.29,1.07-0.6,2.24-2.01,2.62s-2.78-0.17-3.07-1.24c-0.29-1.06,0.61-2.24,2.02-2.62
					C164.38,90.42,165.75,90.99,166.03,92.05"/>
			</g>
		</g>
	</g>
	<g>
		<polyline class="st4" points="180,79.11 174.18,84.1 181.73,82.77 		"/>
		<path d="M174.18,85.19c-0.42,0-0.81-0.24-0.99-0.63c-0.21-0.45-0.1-0.98,0.28-1.3l5.83-4.99c0.46-0.39,1.15-0.34,1.55,0.12
			c0.39,0.46,0.34,1.15-0.12,1.55l-2.78,2.38l3.61-0.63c0.6-0.13,1.16,0.29,1.27,0.89c0.1,0.6-0.29,1.16-0.89,1.27l-7.55,1.32
			C174.3,85.18,174.24,85.19,174.18,85.19z"/>
	</g>
	<g>
		<path class="st8" d="M148.25,94.4L148.25,94.4c-1.91,0.52-3.84-0.5-4.32-2.27l-0.12-0.45c-0.48-1.77,0.67-3.63,2.58-4.14
			c1.91-0.52,3.84,0.5,4.32,2.27l0.12,0.45C151.31,92.03,150.16,93.88,148.25,94.4"/>
	</g>
</g>
<g>
	<g>
		<g>
			<path class="st1" d="M225.41,128.36c-4.81,0-7.3-3.71-7.97-6.89c-0.79-3.77,1.35-7.1,1.45-7.24c0.33-0.4,5.8-6.8,7.6-8.56
				c1.36-1.33,1.48-3.87,1.49-3.9c-0.61-5.15-12.22-5.82-18.46-6.18c-1.54-0.09-2.84-0.16-3.73-0.28
				c-4.56-0.59-5.36-6.28-5.09-10.14c-2.73-1.48-10.61-6.21-10.3-11.4c0.13-2.29,1.45-3.65,3.51-3.65c2.13,0,4.8,1.51,6.4,2.69
				c-0.05-0.13-0.11-0.25-0.16-0.38c-0.38-0.91-0.68-1.8-0.9-2.66c-1.2-4.66,0.8-6.29,2.09-6.85c0.55-0.24,1.12-0.36,1.7-0.36
				c3.04,0,5.24,3.29,6.28,5.25c0.44,0.83,0.76,1.24,0.94,1.43c1.84-0.56,3.6-0.85,5.26-0.85c5.12,0,7.87,2.66,8.75,3.69
				c23.26,7.29,25.37,18.44,25.56,20.46c1.43,3.35,1,7.66-1.28,12.81c-4.59,10.38-15.25,21.01-19.77,22.45
				C227.61,128.17,226.48,128.36,225.41,128.36L225.41,128.36z"/>
		</g>
		<g>
			<path class="st0" d="M203.05,63.87c2.11,0,3.96,2.36,5.12,4.55c1.05,1.99,1.72,2.22,1.97,2.22c0.08,0,0.11-0.02,0.11-0.02
				c2.01-0.66,3.76-0.92,5.28-0.92c5.59,0,7.97,3.51,7.97,3.51c24.87,7.67,25.04,19.64,25.04,19.64
				c4.91,10.72-14.12,31.76-20.15,33.69c-1.09,0.35-2.08,0.5-2.97,0.5c-4.05,0-6.12-3.17-6.68-5.85c-0.69-3.28,1.26-6.25,1.26-6.25
				s5.64-6.61,7.42-8.34c1.78-1.73,1.88-4.8,1.88-4.8c-0.91-7.83-18.38-7.17-23.33-7.81c-4.96-0.64-3.86-9.59-3.86-9.59
				s-10.69-5.34-10.38-10.57c0.11-1.79,1.01-2.42,2.2-2.42c2.3,0,5.68,2.33,6.58,3.22c0.26,0.26,0.59,0.49,0.93,0.49
				c0.16,0,0.32-0.05,0.47-0.17c0.19-0.15,0.51-0.55,0.52-0.81c0-0.29-0.37-0.76-0.5-1.03c-0.19-0.4-0.37-0.8-0.54-1.2
				c-0.34-0.81-0.63-1.64-0.85-2.49c-0.46-1.8-0.74-4.42,1.34-5.32C202.27,63.95,202.66,63.87,203.05,63.87 M203.05,61.24
				C203.05,61.24,203.05,61.24,203.05,61.24c-0.76,0-1.5,0.16-2.22,0.47c-1.34,0.57-4.26,2.51-2.91,8.14
				c-1.29-0.6-2.69-1.04-4.01-1.04c-2.76,0-4.65,1.92-4.83,4.89c-0.33,5.54,6.75,10.25,10.26,12.24c-0.11,4.3,1.1,10.01,6.27,10.68
				c0.97,0.13,2.29,0.2,3.82,0.29c4.93,0.28,16.38,0.94,17.21,5.02c-0.07,0.66-0.34,2.09-1.07,2.8c-1.85,1.8-7.35,8.24-7.59,8.52
				c-0.07,0.08-0.14,0.17-0.2,0.27c-0.26,0.4-2.52,4.01-1.63,8.23c0.83,3.95,4.02,7.94,9.26,7.94c1.2,0,2.47-0.21,3.77-0.63
				c5.3-1.69,16.05-12.94,20.57-23.18c2.39-5.41,2.85-10,1.36-13.67c-0.16-1.28-0.84-4.32-3.72-7.93
				c-4.42-5.54-11.95-10.02-22.39-13.34c-1.25-1.34-4.3-3.86-9.48-3.86c-1.51,0-3.1,0.22-4.74,0.65c-0.09-0.14-0.19-0.32-0.3-0.53
				C208.46,63.35,205.81,61.24,203.05,61.24L203.05,61.24z"/>
		</g>
	</g>
	<g>
		<path class="st2" d="M223.5,73.22c0,0-3.84-5.68-13.25-2.6c0,0-0.72,0.39-2.09-2.2c-1.37-2.59-3.7-5.42-6.3-4.3
			c-2.09,0.9-1.8,3.54-1.33,5.35c0.23,0.9,0.55,1.78,0.92,2.63c0.15,0.35,0.3,0.69,0.46,1.03c0.16,0.33,0.54,0.75,0.46,1.12
			c-0.04,0.19-0.19,0.41-0.31,0.55c-0.48,0.57-1.11,0.31-1.57-0.15c-1.37-1.37-8.48-6.03-8.78-0.81
			c-0.31,5.22,10.38,10.57,10.38,10.57S201,93.36,205.96,94c4.96,0.64,22.42-0.02,23.33,7.81c0,0,11.53,4.66,19.95-3.48
			c0.22-1.99,0.04-3.85-0.71-5.47C248.54,92.86,248.36,80.89,223.5,73.22z"/>
	</g>
	<g>
		<path class="st0" d="M206.46,74.4c-0.04,0-0.09,0-0.13-0.01c-0.72-0.07-1.25-0.71-1.18-1.44c0.12-1.25,1.03-2.32,1.21-2.52
			c1.05-1.19,3.04-2.08,3.27-2.18c0.67-0.29,1.44,0.01,1.73,0.68c0.29,0.67-0.01,1.44-0.68,1.73c-0.64,0.28-1.84,0.94-2.35,1.52
			c-0.22,0.25-0.52,0.74-0.55,1.03C207.7,73.9,207.13,74.4,206.46,74.4z"/>
	</g>
	<g>
		<path class="st0" d="M208.87,91.07c-0.4,0-0.8-0.18-1.05-0.52c-0.44-0.58-0.32-1.41,0.26-1.84c1.52-1.14,2.8-4.46,2.87-6.55
			c0.06-1.74-0.68-3.82-2.46-4.29c-1.51-0.39-2.9,0.58-3.7,1.62c-0.7,0.91-2.34,3.27-2.5,5.49c-0.05,0.72-0.69,1.27-1.41,1.22
			c-0.72-0.05-1.27-0.68-1.22-1.41c0.21-2.83,1.99-5.53,3.04-6.9c1.31-1.71,3.7-3.28,6.46-2.56c3.19,0.84,4.52,4.08,4.42,6.93
			c-0.09,2.42-1.5,6.74-3.92,8.56C209.42,90.99,209.14,91.07,208.87,91.07z"/>
	</g>
	<g>
		<path class="st0" d="M215.41,85.83c-0.52,0-1.01-0.31-1.22-0.82c-0.28-0.67,0.05-1.44,0.72-1.72c2.91-1.19,4.42-2.66,4.63-4.5
			c0.14-1.2-0.17-3.01-0.86-3.78c-0.48-0.54-0.43-1.37,0.11-1.86c0.54-0.48,1.38-0.43,1.86,0.11c1.32,1.49,1.7,4.07,1.5,5.83
			c-0.33,2.84-2.43,5.07-6.25,6.64C215.74,85.8,215.58,85.83,215.41,85.83z"/>
	</g>
</g>
<g>
	<g>
		<g>
			<path class="st1" d="M70,161.37c-7.76,0-16.03-0.45-24.58-1.35c-12.09-1.26-29.82-8.72-29.12-24.09
				c0.03-0.71,0.11-1.42,0.22-2.13c2.07-12.8,9.97-20.74,20.62-20.74c4.11,0,8.35,1.19,12.61,3.54
				c10.19,5.36,21.65,10.06,34.04,13.96c6.56,2.06,12.51,3.56,18.19,4.56c3.17,0.56,6.09,0.94,8.93,1.16
				c0.98,0.08,1.94,0.1,2.87,0.12c3.32,0.07,6.76,0.14,9.99,2.87c2.49,2.1,3.32,5.48,2.17,8.83c-1.24,3.6-3.48,4.43-6.07,5.4
				l-0.82,0.31c-4.23,1.62-8.92,2.97-14.36,4.13C94.04,160.21,82.37,161.37,70,161.37z"/>
		</g>
		<g>
			<path class="st0" d="M37.15,114.38c3.77,0,7.83,1.09,11.97,3.38c10.9,5.73,22.55,10.37,34.28,14.06
				c6.02,1.89,12.14,3.5,18.35,4.6c3,0.53,6.02,0.94,9.06,1.18c4.47,0.35,8.4-0.45,12.11,2.68c2.21,1.86,2.69,4.74,1.77,7.4
				c-1.15,3.34-3.11,3.76-6.12,4.91c-4.59,1.76-9.36,3.05-14.16,4.07c-11.26,2.41-22.84,3.4-34.4,3.4c-8.19,0-16.37-0.5-24.45-1.34
				c-11.79-1.24-28.59-8.43-27.95-22.72c0.03-0.66,0.1-1.32,0.21-1.98C19.85,121.51,27.52,114.38,37.15,114.38 M37.15,111.75
				L37.15,111.75c-11.34,0-19.74,8.37-21.92,21.85c-0.12,0.77-0.2,1.54-0.24,2.28c-0.74,16.27,17.72,24.13,30.3,25.45
				c8.6,0.9,16.91,1.36,24.72,1.36c12.46,0,24.22-1.16,34.95-3.46c5.51-1.18,10.27-2.55,14.56-4.19l0.81-0.31
				c2.66-0.99,5.4-2.01,6.85-6.2c1.34-3.87,0.35-7.81-2.56-10.26c-3.58-3.02-7.42-3.1-10.81-3.18c-0.91-0.02-1.86-0.04-2.79-0.11
				c-2.8-0.22-5.68-0.6-8.81-1.15c-5.63-0.99-11.52-2.47-18.02-4.52c-12.31-3.87-23.7-8.55-33.84-13.88
				C45.94,112.99,41.48,111.75,37.15,111.75L37.15,111.75z"/>
		</g>
	</g>
	<g>
		<path class="st9" d="M89.11,149.24c1.37-6.06-0.22-12.83-4.55-17.07c-0.39-0.12-0.77-0.23-1.16-0.35
			c-11.73-3.69-23.38-8.33-34.28-14.06c-14.74-8.14-28.48-1.13-31.3,16.26c-0.11,0.65-0.18,1.31-0.21,1.98
			c-0.65,14.29,16.15,21.48,27.95,22.72c12.49,1.31,25.25,1.78,37.87,0.86C86.64,157.52,88.2,153.27,89.11,149.24z"/>
	</g>
</g>
<g>
</g>
<g>
</g>
<g>
</g>
<g>
</g>
<g>
</g>
<g>
</g>
</svg>
