<?xml version="1.0" encoding="utf-8"?>
<!-- Generator: Adobe Illustrator 26.0.3, SVG Export Plug-In . SVG Version: 6.00 Build 0)  -->
<svg version="1.1" id="레이어_1" xmlns="http://www.w3.org/2000/svg" xmlns:xlink="http://www.w3.org/1999/xlink" x="0px"
	 y="0px" viewBox="0 0 135 256" style="enable-background:new 0 0 135 256;" xml:space="preserve">
<style type="text/css">
	.st0{opacity:0.3;fill-rule:evenodd;clip-rule:evenodd;enable-background:new    ;}
	.st1{fill:#FFFFFF;}
	.st2{fill:#673101;}
	.st3{fill-rule:evenodd;clip-rule:evenodd;fill:#009FF9;}
	.st4{fill:#009FF9;}
	.st5{fill:#2C4F9E;}
	.st6{fill:#0088C5;}
	.st7{fill:none;stroke:#000000;stroke-width:1.4205;stroke-linecap:round;stroke-linejoin:round;stroke-miterlimit:10;}
	.st8{fill:#FFCA1C;}
	.st9{fill-rule:evenodd;clip-rule:evenodd;fill:#FFFFFF;}
	.st10{fill-rule:evenodd;clip-rule:evenodd;fill:#FDBDB8;}
	.st11{fill-rule:evenodd;clip-rule:evenodd;}
	.st12{fill:#231815;}
	.st13{fill-rule:evenodd;clip-rule:evenodd;fill:#2C4F9E;}
	.st14{fill:#FFC300;}
	.st15{fill:#FFE591;}
	.st16{fill-rule:evenodd;clip-rule:evenodd;fill:#704A1C;}
	.st17{fill:#8A8A8A;}
</style>
<path class="st0" d="M25.3,250.8c-12-3.6-17.9-7.8-17.9-12.7s6-9.2,17.9-12.7c12-3.5,26.4-5.2,43.2-5.2c16.9,0,31.3,1.7,43.2,5.2
	s17.9,7.7,17.9,12.7c0,4.9-5.9,9.1-17.9,12.7c-11.9,3.4-26.3,5.2-43.2,5.2C51.7,256,37.3,254.3,25.3,250.8z"/>
<g>
	<path class="st1" d="M45,2.8c1.6,0.5,3.3,1.2,4.9,2.1c1.4,0.8,2.7,1.7,3.9,2.7c3.9,3.2,8.9,13.4,3.5,17.5c-3.9,2.9-7.4-4.4-9.6-6.5
		c-4.9-4.8-11.8,0.5-15.6,4.4c-3,3.2-8,3.3-11.2,0.3s-3.3-8.1-0.3-11.3c3.7-4,8.3-7.4,13.5-9C38.1,1.9,41.5,1.8,45,2.8z"/>
	<path class="st2" d="M33.3,17.8c-0.6-0.2-1.2-0.1-1.8,0.1c0.7-0.4,1.2-1.1,1.5-1.9c0.4-1.7-0.6-3.5-2.3-3.9
		c-0.8-0.2-1.6-0.1-2.3,0.3c0.6-0.4,1.1-1,1.3-1.8c0.4-1.7-0.6-3.5-2.3-3.9c-0.2,0-0.3,0-0.5,0c-3.5,2.4-5.8,4.9-6.3,5.4
		c-3,3.2-2.9,8.2,0.3,11.3c3.2,3,8.2,2.9,11.2-0.3c0.9-0.9,2.1-2,3.4-2.9C35.3,19,34.5,18.1,33.3,17.8"/>
	<path d="M40.1,2.1c1.7,0,3.3,0.2,4.9,0.7c1.6,0.5,3.3,1.2,4.9,2.1c1.4,0.8,2.7,1.7,3.9,2.7c3.9,3.2,8.9,13.4,3.5,17.5
		c-0.6,0.5-1.3,0.7-1.9,0.7c-3.1,0-5.9-5.4-7.7-7.2c-1.4-1.4-2.9-1.9-4.5-1.9c-2.6,0-5.3,1.5-7.7,3.3v0.1c-1.3,1-2.5,2-3.4,2.9l0,0
		c-1.6,1.6-3.6,2.5-5.7,2.5c-2,0-3.9-0.7-5.5-2.2c-2-1.9-2.8-4.6-2.4-7.1c0.2-1.5,0.9-3,2.1-4.2c0.3-0.3,1-1,2-2
		c3.4-3,7.2-5.6,11.6-7C36.2,2.4,38.2,2.1,40.1,2.1 M40.1,0c-2.1,0-4.2,0.3-6.5,1c-4.3,1.3-8.4,3.8-12.4,7.5c-1,0.9-1.8,1.7-2.1,2
		c-1.4,1.5-2.3,3.3-2.6,5.3c-0.5,3.3,0.6,6.7,3,9c1.9,1.8,4.3,2.8,6.9,2.8c2.8,0,5.3-1.1,7.3-3.1l0,0c0.8-0.8,1.9-1.8,3.1-2.7
		c0.2-0.1,0.3-0.3,0.5-0.5c2.2-1.6,4.3-2.5,5.9-2.5c1.2,0,2.1,0.4,3,1.3c0.4,0.4,1,1.1,1.6,1.9c1.9,2.6,4.4,5.9,7.7,5.9
		c1.1,0,2.2-0.4,3.1-1.1c2-1.5,3.1-3.8,3.2-6.6c0.1-5.1-3.3-11.4-6.6-14.1c-1.6-1.3-2.9-2.2-4.2-3c-1.9-1-3.6-1.8-5.4-2.3
		C43.7,0.3,41.9,0,40.1,0L40.1,0z"/>
</g>
<g>
	<path class="st1" d="M92.1,2.8c-1.6,0.5-3.3,1.2-4.9,2.1c-1.4,0.8-2.7,1.7-3.9,2.7c-3.9,3.2-8.9,13.4-3.5,17.5
		c3.9,2.9,7.4-4.4,9.6-6.5c4.9-4.8,11.8,0.5,15.6,4.4c3,3.2,8,3.3,11.2,0.3s3.3-8.1,0.3-11.3c-3.7-4-8.3-7.4-13.5-9
		C99,1.9,95.5,1.8,92.1,2.8z"/>
	<path class="st2" d="M103.7,17.8c0.6-0.2,1.2-0.1,1.8,0.1c-0.7-0.4-1.2-1.1-1.5-1.9c-0.4-1.7,0.6-3.5,2.3-3.9
		c0.8-0.2,1.6-0.1,2.3,0.3c-0.6-0.4-1.1-1-1.3-1.8c-0.4-1.7,0.6-3.5,2.3-3.9c0.2,0,0.3,0,0.5,0c3.5,2.4,5.8,4.9,6.3,5.4
		c3,3.2,2.9,8.2-0.3,11.3c-3.2,3-8.2,2.9-11.2-0.3c-0.9-0.9-2.1-2-3.4-2.9C101.8,19,102.6,18.1,103.7,17.8"/>
	<path d="M97,2.1c1.9,0,3.8,0.3,5.9,0.9c4.4,1.3,8.2,3.9,11.5,7c1.1,1,1.8,1.7,2,2c1.1,1.2,1.8,2.7,2.1,4.2c0.4,2.5-0.4,5.2-2.4,7.1
		c-1.5,1.5-3.5,2.2-5.5,2.2c-2.1,0-4.2-0.8-5.7-2.5l0,0c-0.9-0.9-2.1-2-3.4-2.9V20c-2.3-1.8-5.1-3.3-7.7-3.3c-1.6,0-3.1,0.5-4.5,1.9
		c-1.8,1.8-4.6,7.2-7.7,7.2c-0.6,0-1.2-0.2-1.9-0.7c-5.3-4.1-0.3-14.2,3.5-17.5c1.2-1,2.5-2,3.9-2.7C88.8,4,90.4,3.3,92,2.8
		C93.7,2.4,95.3,2.1,97,2.1 M97,0c-1.9,0-3.7,0.3-5.5,0.8c-1.7,0.5-3.5,1.3-5.4,2.3c-1.3,0.7-2.6,1.7-4.2,3
		c-3.3,2.7-6.7,9.1-6.6,14.1c0.1,2.8,1.2,5.1,3.2,6.6c1,0.7,2,1.1,3.1,1.1c3.3,0,5.7-3.3,7.7-5.9c0.6-0.8,1.2-1.6,1.6-1.9
		c0.9-0.9,1.9-1.3,3-1.3c1.7,0,3.7,0.9,5.9,2.5c0.1,0.2,0.3,0.3,0.5,0.5c1.2,0.9,2.3,1.8,3.1,2.7l0,0c0,0,0,0,0.1,0.1
		c1.9,2,4.5,3.1,7.2,3.1c2.6,0,5.1-1,6.9-2.8c2.4-2.3,3.5-5.7,3-9c-0.3-2-1.2-3.8-2.6-5.3c-0.4-0.4-1.1-1.1-2.1-2.1
		c-3.9-3.6-8.1-6.2-12.3-7.5C101.2,0.3,99.1,0,97,0L97,0z"/>
</g>
<g>
	<path class="st1" d="M52.4,160.2c2.4,0,8.2,1.9,8.2,4.3v36.2H48v-36.2C48,162.2,50,160.2,52.4,160.2"/>
	<path class="st3" d="M54.3,201.5c-3.6,0-6.3-0.7-6.3-0.7v13.8c-1.2,0-2.5,0.1-4.1,0.4c-0.1,0-0.3,0.1-0.3,0.1
		c-5.5,1.2-10.3,4.9-12.8,9.9c-1.4,2.7-2,7.7,0.2,10.2c3.2,3.6,8.4,3,12.6,3h11.5V238c2.4-0.4,5.4-2.3,5.4-4.4v-32.8
		C60.6,200.8,57.9,201.5,54.3,201.5z"/>
	<path d="M52.4,160.2c2.4,0,8.2,1.9,8.2,4.3v32.1l0,0v37c0,2.2-3,4-5.4,4.4v0.1h-1.1H51h-3h-4.4c-1.1,0-2.2,0-3.3,0
		c-3.4,0-7-0.3-9.3-3.1c-2.2-2.5-1.6-7.5-0.2-10.2c2.5-5,7.3-8.7,12.8-9.9l0.3-0.1c1.4-0.3,2.7-0.4,3.8-0.4c0.1,0,0.2,0,0.3,0v-13.8
		v-4.2v-32.1C48,162.2,50,160.2,52.4,160.2 M52.4,158.1c-3.6,0-6.4,2.9-6.4,6.4v32.1v4.2v11.8c-0.8,0.1-1.6,0.2-2.4,0.3h-0.1
		l-0.3,0.1c-6.1,1.3-11.4,5.4-14.2,11c-1.6,3.1-2.5,9.1,0.5,12.5c2.9,3.3,7,3.8,10.9,3.8c0.6,0,1.2,0,1.7,0s1.1,0,1.6,0H48h3h3.1
		h1.1c0.4,0,0.8-0.1,1.1-0.3c3.2-0.8,6.5-3.2,6.5-6.4v-37v-0.1v-32C62.7,160.1,54.8,158.1,52.4,158.1L52.4,158.1z"/>
</g>
<g>
	<path class="st1" d="M84.6,160.2c-2.4,0-8.2,1.9-8.2,4.3v36.2h12.5v-36.2C89,162.2,87,160.2,84.6,160.2"/>
	<path class="st4" d="M106.5,224.7c-2.5-5.1-7.4-8.9-13-10.1l-0.3-0.1c-1.2-0.2-2.5-0.4-3.8-0.4v-13.9l-0.5,0.1c0,0-2.7,0.7-6.2,0.7
		s-6.2-0.7-6.2-0.7l-0.5-0.1v33.3c0,2.4,3,4.4,5.4,4.9l0,0h11.9c0.5,0,1.1,0,1.6,0c0.6,0,1.1,0,1.7,0c3.5,0,7.1-0.3,9.5-3.2
		C108.6,232.7,108,227.5,106.5,224.7z"/>
	<path d="M84.6,160.2c2.4,0,4.3,1.9,4.3,4.3v32.1v4.2v13.8c0.1,0,0.2,0,0.3,0c1.1,0,2.4,0.1,3.8,0.4c0.1,0,0.3,0.1,0.3,0.1
		c5.5,1.2,10.3,4.9,12.8,9.9c1.4,2.7,2,7.7-0.2,10.2c-2.4,2.7-5.9,3.1-9.3,3.1c-1.1,0-2.2,0-3.3,0h-4.4H86h-3.1h-1.1l0,0
		c-2.4-0.4-5.4-2.6-5.4-4.7v-37l0,0v-32.1C76.4,162.2,82.2,160.2,84.6,160.2 M84.6,158.1c-2.4,0-10.3,2-10.3,6.4v32v0.1v37
		c0,3.2,3.2,5.5,6.5,6.4c0.3,0.2,0.7,0.3,1.1,0.3H83h3.1H89h4.4c0.5,0,1,0,1.6,0s1.1,0,1.7,0c4,0,8-0.5,10.9-3.8
		c3-3.4,2.1-9.4,0.5-12.5c-2.8-5.6-8.2-9.7-14.3-11l-0.3-0.1h-0.1c-0.8-0.2-1.6-0.3-2.4-0.3v-11.8v-4.2v-32.1
		C91.1,161,88.2,158.1,84.6,158.1L84.6,158.1z"/>
</g>
<g>
	<path class="st5" d="M124.8,169.4c2.8-0.1,5.2-3.3,6.1-6.2c5-17.7,4.2-36.5-8.6-51.4c-1.4-1.6-3.4-4.4-5.7-4.5
		c-8.7-0.4,1.1,17.9,2,21c3.2,10.5,2.4,21.7-0.5,32.1c-1,3.7,1,7.5,4.6,8.6C123.4,169.4,124.1,169.5,124.8,169.4z"/>
	<path class="st6" d="M125.6,156.9c-3,0-5.9-0.1-8.7-0.4c-0.4,1.2-0.8,2.4-1.3,3.6c-1.8,4.4-3,9.7,3.7,10.5c0.7,0.1,1.4,0.1,2.2,0
		c1.7-0.1,3.4-0.6,4.5-1.5c3.7-3.1,5-7.9,5.7-12.5C129.6,156.8,127.6,156.9,125.6,156.9z"/>
	<line class="st7" x1="132.7" y1="144.4" x2="119" y2="144.4"/>
	<polygon class="st8" points="133.2,148.7 118.7,148 118.2,152.3 132.7,153.1 	"/>
	<path d="M132.7,153.9L132.7,153.9l-14.6-0.8c-0.2,0-0.5-0.1-0.6-0.3c-0.2-0.2-0.2-0.4-0.2-0.6l0.5-4.3c0.1-0.4,0.4-0.8,0.9-0.7
		l14.5,0.7c0.2,0,0.5,0.1,0.6,0.3c0.2,0.2,0.2,0.4,0.2,0.6l-0.5,4.4C133.5,153.6,133.1,153.9,132.7,153.9z M119.1,151.5l12.8,0.7
		l0.3-2.7l-12.8-0.6L119.1,151.5z"/>
	<line class="st7" x1="131.7" y1="156.6" x2="118" y2="156.6"/>
	<path d="M114.9,107.4c0.1,0,0.2,0,0.3,0c2.3,0.1,4.3,2.9,5.7,4.5c6.1,7.1,9.5,15,10.8,23.3h0.1c0.5,0.1,0.8,6.9,0.8,7.6
		c0.1,3,0,6-0.3,9c-0.6,5.8-1.2,13.2-6.3,17.3c-1.1,0.9-2.8,1.4-4.5,1.5c-0.3,0-0.6,0-0.9,0c-0.4,0-0.9,0-1.3-0.1
		c-6.7-0.8-5.5-6.1-3.7-10.5c2.4-5.7,3.6-11.3,3.7-17.1c0-0.6,0-1.2,0-1.8c0-0.4,0-0.9,0-1.3c-0.1-1.1-0.1-2.1-0.3-3.2
		c0-0.2,0-0.3,0-0.5c-0.3-2.7-0.9-5.3-1.7-7.9C116.2,125.4,106.6,107.4,114.9,107.4 M114.9,105.3c-2.5,0-3.8,1.2-4.5,2.2
		c-2.5,3.9,0.4,11.4,3.6,18.9c0.5,1.2,1,2.2,1.1,2.7c0.7,2.4,1.3,4.9,1.6,7.5v0.2c0,0.1,0,0.2,0,0.3c0.1,1,0.2,2,0.3,3.1
		c0,0.4,0,0.8,0,1.2c0,0.6,0,1.2,0,1.7c-0.1,5.5-1.2,10.9-3.5,16.3c-1.2,2.8-2.5,6.9-0.7,10c1.1,1.9,3.2,3.1,6.1,3.5
		c0.5,0.1,1,0.1,1.5,0.1c0.4,0,0.7,0,1.1,0c1.3-0.1,3.9-0.5,5.7-2c5.5-4.6,6.3-12.1,6.9-18.1l0.1-0.7c0.3-3.2,0.5-6.3,0.4-9.3
		c-0.2-5-0.3-7.5-1-8.7c-1.6-8.9-5.3-16.8-11.2-23.6c-0.2-0.2-0.3-0.4-0.5-0.6c-1.6-1.9-3.7-4.4-6.7-4.6
		C115.1,105.3,115,105.3,114.9,105.3L114.9,105.3z"/>
	<g>
		<path class="st8" d="M128.4,114.9c0,0,1.4,3,1.8,4.6l-5.9,2.7l-1.7-4.2L128.4,114.9z"/>
		<path d="M124.3,122.9c-0.1,0-0.2,0-0.3-0.1c-0.2-0.1-0.3-0.2-0.4-0.4l-1.7-4.2c-0.1-0.4,0-0.8,0.3-0.9l5.8-3.1
			c0.2-0.1,0.4-0.1,0.6,0c0.2,0.1,0.3,0.2,0.4,0.4c0.1,0.1,1.4,3.1,1.9,4.7c0.1,0.3-0.1,0.7-0.4,0.9l-5.9,2.7
			C124.6,122.8,124.4,122.9,124.3,122.9z M123.6,118.3l1.2,2.9l4.6-2.1c-0.4-1-0.9-2.3-1.3-3.1L123.6,118.3z"/>
		<path d="M125.6,119.4c-0.3,0-0.5-0.2-0.7-0.4c-0.2-0.4,0-0.8,0.3-1l2-1c0.4-0.2,0.8,0,1,0.3c0.2,0.4,0,0.8-0.3,1l-2,1
			C125.8,119.4,125.7,119.4,125.6,119.4z"/>
		<path d="M129.1,114.6c-0.2-0.6-2-6.2-4.5-7.8c-0.2-0.1-0.5-0.1-0.7,0l-5.7,3.1c-0.2,0.1-0.3,0.3-0.4,0.5s0,0.4,0.1,0.6
			c0,0.1,3.4,5.5,4,7.2c0.1,0.2,0.2,0.3,0.4,0.4c0.1,0,0.2,0,0.3,0c0.1,0,0.2,0,0.3-0.1l5.8-3.1C129.1,115.3,129.2,115,129.1,114.6z
			"/>
	</g>
</g>
<g>
	<path class="st5" d="M11.6,171c-2.9-0.2-5.6-3.6-6.6-6.6c-5.8-18.3-5.5-37.5,7.2-52.3c1.3-1.6,3.3-4.4,5.7-4.4
		c9-0.1-0.5,18.3-1.3,21.5c-2.9,10.6-1.8,22.1,1.7,32.9c1.2,3.8-0.8,7.7-4.5,8.7C13,171,12.3,171.1,11.6,171z"/>
	<path class="st6" d="M18.3,156.6c-2.7,0.2-5.4,0.3-8.2,0.3c-2.4,0-4.7-0.1-7-0.2c0.7,4.6,2,9.4,5.7,12.5c1.1,0.9,2.8,1.4,4.5,1.5
		c0.8,0.1,1.5,0,2.2,0c6.2-0.8,5.5-6.1,4.1-10.3C19.2,159,18.7,157.8,18.3,156.6z"/>
	<path d="M15.2,145.1H1.5c-0.4,0-0.7-0.3-0.7-0.7s0.3-0.7,0.7-0.7h13.7c0.4,0,0.7,0.3,0.7,0.7S15.6,145.1,15.2,145.1z"/>
	<polygon class="st8" points="1,148.7 15.5,147.9 16,152.3 1.5,153.1 	"/>
	<path d="M1.5,153.9c-0.4,0-0.8-0.3-0.8-0.7l-0.5-4.4c0-0.2,0-0.5,0.2-0.6c0.2-0.2,0.4-0.3,0.6-0.3l14.5-0.7c0.4,0,0.8,0.3,0.9,0.7
		l0.5,4.3c0,0.2,0,0.5-0.2,0.6c-0.2,0.2-0.4,0.3-0.6,0.3L1.5,153.9L1.5,153.9z M1.9,149.5l0.3,2.7l12.8-0.7l-0.3-2.6L1.9,149.5z"/>
	<path d="M16.1,157.3H2.4c-0.4,0-0.7-0.3-0.7-0.7s0.3-0.7,0.7-0.7h13.7c0.4,0,0.7,0.3,0.7,0.7S16.5,157.3,16.1,157.3z"/>
	<path d="M19.8,107.4c8.3,0-1.3,18-2.3,21c-1.1,3.7-1.8,7.6-2,11.4c0.1,1.8,0.2,3.7,0.2,4c0,6,2,10.8,3.8,16.4
		c1.4,4.2,2.1,9.6-4.1,10.3c-0.4,0-0.8,0.1-1.3,0.1c-0.3,0-0.6,0-0.9,0c-1.7-0.1-3.4-0.6-4.5-1.5c-5-4.2-5.6-11.6-6.3-17.3
		c-0.3-3-0.5-6-0.3-9c0-0.7,0.3-7.6,0.8-7.6l0,0c1.4-8.3,4.8-16.3,10.9-23.3c1.4-1.6,3.4-4.4,5.7-4.5
		C19.6,107.4,19.7,107.4,19.8,107.4 M19.8,105.3c-0.1,0-0.2,0-0.3,0c-3,0.1-5.1,2.7-6.7,4.6c-0.2,0.2-0.4,0.4-0.5,0.6
		c-5.9,6.8-9.7,14.8-11.2,23.8c-0.6,1.2-0.8,3.7-0.9,8.4c-0.1,3.1,0,6.2,0.4,9.4l0.1,0.7c0.6,6,1.4,13.5,6.9,18.1
		c1.8,1.5,4.3,1.9,5.7,2c0.4,0,0.7,0,1.1,0c0.5,0,1,0,1.5-0.1c2.7-0.3,4.6-1.4,5.8-3.3c1.5-2.3,1.5-5.5,0.1-9.8
		c-0.3-1-0.6-1.9-0.9-2.8c-1.5-4.5-2.8-8.3-2.8-13c0-0.2,0-0.6-0.1-1.1c0-0.8-0.1-1.8-0.1-2.9c0.2-3.8,0.8-7.5,1.9-10.8
		c0.1-0.4,0.6-1.5,1.1-2.7c3.2-7.4,6.2-15,3.6-18.9C23.6,106.5,22.3,105.3,19.8,105.3L19.8,105.3z"/>
	<g>
		<path class="st8" d="M6.5,114.9c0,0-1.4,3-1.8,4.6l5.9,2.7l1.7-4.2L6.5,114.9z"/>
		<path d="M10.6,122.9c-0.1,0-0.2,0-0.3-0.1l-5.9-2.7C4,120,3.9,119.6,4,119.2c0.4-1.6,1.8-4.5,1.9-4.7s0.2-0.3,0.4-0.4s0.4,0,0.6,0
			l5.8,3.1c0.3,0.2,0.5,0.6,0.3,0.9l-1.7,4.2c-0.1,0.2-0.2,0.3-0.4,0.4C10.8,122.9,10.7,122.9,10.6,122.9z M5.6,119.1l4.6,2.1
			l1.2-2.9l-4.5-2.4C6.5,116.7,5.9,118,5.6,119.1z"/>
		<path d="M9.3,119.4c-0.1,0-0.2,0-0.3-0.1l-2-1c-0.4-0.2-0.5-0.6-0.3-1s0.6-0.5,1-0.3l2,1c0.4,0.2,0.5,0.6,0.3,1
			C9.8,119.3,9.6,119.4,9.3,119.4z"/>
		<path d="M17.1,110.5c-0.1-0.2-0.2-0.4-0.4-0.5l-5.7-3.1c-0.2-0.1-0.5-0.1-0.7,0c-2.6,1.6-4.4,7.1-4.5,7.8c-0.1,0.3,0,0.7,0.4,0.9
			l5.8,3.1c0.1,0.1,0.2,0.1,0.3,0.1s0.2,0,0.3,0c0.2-0.1,0.4-0.2,0.4-0.4c0.7-1.7,4-7.1,4-7.2C17.1,110.9,17.2,110.7,17.1,110.5z"/>
	</g>
</g>
<g>
	<path class="st3" d="M118,113.6c-0.5-2.7-0.2-8-0.2-8c0.3-3.6,1.4-7,2.6-10.4c4.4-12.4,5.3-24.4,2.4-37.2
		c-2.2-9.9-7.2-20.7-15.2-27.1c-10.3-8.2-23.8-14.5-36.9-14.5h-2.2h-2.2c-13.1,0-26.6,6.2-36.9,14.5c-8,6.4-13,17.2-15.2,27.1
		c-2.9,12.8-2,24.8,2.4,37.2c1.2,3.4,2.2,6.8,2.6,10.4c0,0,0.3,5.3-0.2,8c-1.4,7.7-3.7,15.3-4.1,23.2c-0.5,10.1,2,23.5,8.2,31.6
		c8.6,11.1,23.7,16.2,37.2,17.3c2,0.2,4,0.2,6,0.2h2.1h2.1c2,0,4-0.1,6-0.2c13.6-1.1,28.6-6.2,37.2-17.3c6.2-8.1,8.8-21.5,8.2-31.6
		C121.7,128.9,119.4,121.3,118,113.6z"/>
</g>
<g>
	<path class="st9" d="M75.1,24.7c4.9,0.6,9.8,2,14.2,3.8c7.2,3.1,15.6,8,19.5,14.9c1.7,3,2.9,6.4,3.5,9.8c0.5,2.6-0.1,6.2,1.4,8.4
		c3.2,4.5,3.9,7.1,4.7,12.7c0.8,5.3,0.4,10.9-1.9,15.8c-5.8,12.8-19.9,18.2-32.8,18.6c-1.8,0.1-3.6,0.1-5.4,0.2
		c-8.4,0.3-16.7,0.1-25-0.2c-12.9-0.4-27-5.8-32.8-18.6c-2.2-4.9-2.7-10.6-1.9-15.8c0.9-5.6,1.6-8.2,4.7-12.7
		c1.6-2.2,0.9-5.9,1.4-8.4c0.7-3.4,1.8-6.8,3.5-9.8c3.9-6.9,10.3-11.8,17.5-14.9c2.9-1.2,5.9-2.2,9-2.9C60.9,24.2,69,23.9,75.1,24.7
		z"/>
	<g>
		<path class="st10" d="M49,76.3c0,7.5-6.1,13.6-13.5,13.6C28,89.9,22,83.8,22,76.3s6.1-13.6,13.5-13.6C43,62.7,49,68.8,49,76.3"/>
		<path class="st10" d="M115.1,76.3c0,7.5-6.1,13.6-13.5,13.6c-7.5,0-13.5-6.1-13.5-13.6s6-13.6,13.5-13.6
			C109,62.7,115.1,68.8,115.1,76.3"/>
	</g>
	<g>
		<g>
			<path class="st11" d="M70.9,71.9c0,1-1,1.8-2.3,1.8s-2.3-0.8-2.3-1.8s1-1.8,2.3-1.8C69.8,70.1,70.9,70.9,70.9,71.9"/>
			<g>
				<path class="st11" d="M81.9,69.8L81.9,69.8c-1.7,0-3.2-1.3-3.2-2.9v-0.4c0-1.6,1.4-2.9,3.2-2.9c1.7,0,3.2,1.3,3.2,2.9v0.4
					C85.1,68.5,83.7,69.8,81.9,69.8"/>
				<path class="st11" d="M55.1,69.8L55.1,69.8c-1.7,0-3.2-1.3-3.2-2.9v-0.4c0-1.6,1.4-2.9,3.2-2.9c1.7,0,3.2,1.3,3.2,2.9v0.4
					C58.3,68.5,56.9,69.8,55.1,69.8"/>
			</g>
		</g>
		<path class="st12" d="M60.4,82.4c-2.4,0-4.7-0.6-6.6-1.9c-1-0.7-2.6-2-2.8-3.5c-0.1-0.6,0.1-1.1,0.5-1.6c0.4-0.4,1.1-0.4,1.5,0
			s0.4,1.1,0,1.5c0.1,0.2,0.7,1,1.9,1.8c3.8,2.6,9.9,1.6,12.8-1c0.4-0.4,1-0.4,1.4,0c3,2.6,9.1,3.6,12.8,1c1.2-0.8,1.9-1.7,1.9-2
			c-0.4-0.4-0.4-1,0.1-1.4c0.4-0.4,1.1-0.3,1.5,0.1s0.6,1,0.5,1.6c-0.1,1.4-1.8,2.8-2.8,3.5c-4.4,3-11,2.2-14.7-0.5
			C66.4,81.4,63.4,82.4,60.4,82.4z"/>
	</g>
</g>
<path d="M70.6,187h-2.1h-2.1c-2.1,0-4.2-0.1-6.1-0.2c-16.5-1.3-30.3-7.8-38-17.7c-6.6-8.5-9-22.3-8.5-32.3
	c0.3-5.4,1.4-10.6,2.5-15.8c0.5-2.5,1.1-5.1,1.5-7.6s0.1-7.7,0.1-7.7c-0.3-3.6-1.5-7.1-2.5-10.1c-4.5-12.7-5.3-25-2.4-37.8
	c2.7-11.8,8.3-21.9,15.6-27.7C40.3,20.7,54,15.4,66.2,15.4h2.2h2.2h0.1c12.1,0,25.8,5.3,37.5,14.7c7.2,5.8,12.9,15.8,15.6,27.7
	c2.9,12.8,2.1,25.1-2.4,37.8c-1.1,2.9-2.2,6.4-2.5,10.1c0,0-0.3,5.2,0.1,7.7l0,0c0.4,2.5,1,5.1,1.5,7.6c1.1,5.1,2.3,10.4,2.5,15.8
	c0.5,10-1.9,23.8-8.5,32.3c-7.7,9.9-21.5,16.4-38,17.7C74.8,186.9,72.7,187,70.6,187z M68.5,184.9h2.1c2,0,4.1-0.1,5.9-0.2
	c15.9-1.3,29.2-7.5,36.5-16.9c6.2-8.1,8.5-21.3,8-30.9c-0.3-5.2-1.4-10.4-2.5-15.4c-0.5-2.5-1.1-5.1-1.6-7.7l0,0
	c-0.5-2.8-0.2-8-0.2-8.2c0.4-3.9,1.5-7.6,2.6-10.7c4.5-12.4,5.2-24.1,2.4-36.6c-2.6-11.4-8-21-14.8-26.5
	c-11.3-9-24.5-14.2-36.2-14.2h-0.1h-2.2h-2.2h-0.1c-11.7,0-24.8,5.2-36.2,14.2c-6.8,5.5-12.2,15.1-14.8,26.5
	c-2.8,12.5-2.1,24.2,2.4,36.6c1.1,3.1,2.3,6.7,2.6,10.6c0,0.3,0.3,5.5-0.2,8.2c-0.5,2.6-1,5.2-1.6,7.7c-1.1,5-2.2,10.2-2.5,15.4
	c-0.5,9.6,1.8,22.9,8,30.9c7.3,9.4,20.6,15.6,36.5,16.9c1.9,0.2,3.9,0.2,5.9,0.2L68.5,184.9z"/>
<path class="st13" d="M122.1,136.8c-0.4-7.9-2.7-15.5-4.1-23.2c-0.3-1.5-0.3-3.8-0.2-5.6c-11,5.3-27.9,9.4-48.2,9.4
	c-23.9,0.1-45.4-8.2-50.3-10.2c0.1,1.8,0.1,4.6-0.2,6.4c-1.4,7.7-3.7,15.3-4.1,23.2c-0.5,10.1,2,23.5,8.2,31.6
	c5,6.5,12.3,10.9,20.1,13.7v22.5c0,1.2,1,2.2,2.2,2.2h16.3c1.2,0,2.2-1,2.2-2.2v-18.7c0.8,0,1.7,0,2.5,0h2.1h2.1
	c0.9,0,1.8,0,2.7-0.1v18.7c0,1.2,1,2.2,2.2,2.2h16.3c1.2,0,2.2-1,2.2-2.2V182c7.8-2.8,14.9-7.2,19.9-13.6
	C120.1,160.3,122.6,146.8,122.1,136.8z"/>
<path d="M91.8,207.8H75.5c-1.8,0-3.3-1.5-3.3-3.3V187c-0.6,0-1.1,0-1.7,0h-2.1h-2.1c-0.5,0-1,0-1.4,0v17.6c0,1.8-1.5,3.3-3.3,3.3
	H45.5c-1.8,0-3.3-1.5-3.3-3.3v-21.7C33.7,179.7,27,175,22.4,169c-6.6-8.5-9-22.3-8.5-32.3c0.3-5.4,1.4-10.6,2.5-15.8
	c0.5-2.5,1.1-5.1,1.5-7.6c0.2-1.3,0.3-3.4,0.2-6.2l-0.1-1.6l1.5,0.6c4.1,1.7,26,10.2,49.9,10.2c18.1,0,35.5-3.4,47.8-9.3l1.6-0.7
	v1.7c0,1.7,0,3.9,0.2,5.4c0.4,2.5,1,5.1,1.5,7.6c1.1,5.1,2.3,10.4,2.5,15.8l0,0c0.5,10-1.9,23.8-8.5,32.3
	c-4.6,6-11.2,10.6-19.7,13.7v21.8C95,206.4,93.6,207.8,91.8,207.8z M74.4,184.8v19.8c0,0.6,0.5,1.1,1.1,1.1h16.3
	c0.6,0,1.1-0.5,1.1-1.1v-23.3l0.7-0.3c8.4-3,14.9-7.5,19.4-13.3c6.2-8.1,8.5-21.3,8-30.9l0,0c-0.3-5.2-1.4-10.4-2.5-15.4
	c-0.5-2.5-1.1-5.1-1.6-7.7c-0.2-1.1-0.3-2.7-0.3-4.1c-12.5,5.6-29.5,8.8-47.1,8.8c-0.1,0-0.2,0-0.3,0c-22,0-41.6-6.8-49-9.7
	c0,1.7,0,3.7-0.3,5c-0.5,2.6-1,5.2-1.6,7.7c-1.1,5-2.2,10.2-2.5,15.4c-0.5,9.6,1.8,22.9,8,30.9c4.5,5.9,11.1,10.3,19.6,13.4l0.7,0.3
	v23.2c0,0.6,0.5,1.1,1.1,1.1h16.3c0.6,0,1.1-0.5,1.1-1.1v-19.8h1.1c0.8,0,1.7,0,2.5,0h2.1h2.1c0.9,0,1.8,0,2.7-0.1L74.4,184.8z"/>
<g>
	<path class="st11" d="M18.7,160.2c1.2,3,2.7,5.8,4.5,8.1c5,6.5,12.3,10.9,20.1,13.7v22.5c0,1.2,1,2.2,2.2,2.2h16.3
		c1.2,0,2.2-1,2.2-2.2v-18.7c0.8,0,1.7,0,2.5,0h2.1h2.1c0.9,0,1.8,0,2.7-0.1v18.7c0,1.2,1,2.2,2.2,2.2h16.3c1.2,0,2.2-1,2.2-2.2V182
		c7.8-2.8,14.9-7.2,19.9-13.6c1.8-2.3,3.3-5.1,4.5-8.1L18.7,160.2L18.7,160.2z"/>
	<path d="M91.8,207.8H75.5c-1.8,0-3.3-1.5-3.3-3.3V187c-0.6,0-1.1,0-1.7,0h-2.1h-2.1c-0.5,0-1,0-1.4,0v17.6c0,1.8-1.5,3.3-3.3,3.3
		H45.5c-1.8,0-3.3-1.5-3.3-3.3v-21.7C33.7,179.7,27,175,22.4,169c-1.8-2.3-3.3-5.1-4.6-8.4l-0.6-1.4H120l-0.6,1.4
		c-1.3,3.3-2.9,6.1-4.6,8.4c-4.6,6-11.2,10.6-19.7,13.7v21.8C95,206.4,93.6,207.8,91.8,207.8z M74.4,184.8v19.8
		c0,0.6,0.5,1.1,1.1,1.1h16.3c0.6,0,1.1-0.5,1.1-1.1v-23.3l0.7-0.3c8.4-3,14.9-7.5,19.4-13.3c1.4-1.8,2.6-3.9,3.7-6.4H20.3
		c1.1,2.5,2.3,4.6,3.7,6.4c4.5,5.9,11.1,10.3,19.6,13.4l0.7,0.3v23.2c0,0.6,0.5,1.1,1.1,1.1h16.3c0.6,0,1.1-0.5,1.1-1.1v-19.8h1.1
		c0.8,0,1.7,0,2.5,0h2.1h2.1c0.9,0,1.8,0,2.7-0.1L74.4,184.8z"/>
</g>
<g>
	<path class="st14" d="M113.4,123.6c-7.3,0.3-9.5-2.6-9.5-2.6s-2,3-9.2,3.3c0,0,0.5,17.5,10,17.2S113.4,123.6,113.4,123.6z"/>
	<path d="M104.4,142.4c-2,0-3.7-0.7-5.2-2.1c-5-4.7-5.4-15.5-5.4-15.9c0-0.5,0.4-0.9,0.9-0.9c6.6-0.3,8.5-2.9,8.5-2.9
		c0.2-0.2,0.4-0.4,0.7-0.4c0.3,0,0.6,0.1,0.7,0.3c0,0,2.1,2.5,8.7,2.3c0.5,0,0.9,0.4,0.9,0.9s0.5,11.3-4.1,16.3
		c-1.5,1.6-3.3,2.4-5.4,2.5C104.6,142.4,104.5,142.4,104.4,142.4z M95.6,125.2c0.2,2.6,1.1,10.4,4.8,13.8c1.2,1.2,2.6,1.7,4.3,1.6
		c1.6-0.1,3-0.7,4.1-1.9c3.4-3.7,3.7-11.5,3.7-14.1c0,0,0,0-0.1,0c-4.8,0-7.3-1.4-8.5-2.3C102.9,123.3,100.4,124.8,95.6,125.2z"/>
	<path class="st15" d="M104.6,139.5c-1.4,0.1-2.5-0.4-3.5-1.3c-2.8-2.6-3.9-8.6-4.3-12c3.8-0.4,6-1.6,7.2-2.5
		c1.3,0.8,3.6,1.8,7.4,1.9c-0.1,3.4-0.7,9.4-3.3,12.2C107.1,138.9,106,139.4,104.6,139.5z"/>
	<path class="st14" d="M105.8,135.8v-0.6c0-0.4-0.3-0.8-0.8-0.8c-0.4,0-0.8,0.3-0.8,0.8v0.6H101v-3.2h0.6c0.4,0,0.8-0.3,0.8-0.8
		s-0.3-0.8-0.8-0.8H101v-3.2h2.1c0.2-0.8,1-1.3,1.8-1.3s1.6,0.6,1.8,1.3h2.1v2.1c0.8,0.2,1.3,1,1.3,1.8s-0.6,1.6-1.3,1.8v2.1h-3
		V135.8z"/>
	<path d="M105.1,127.2c0.7,0,1.3,0.6,1.3,1.3h2.1v2.1c0.7,0,1.3,0.6,1.3,1.3s-0.6,1.3-1.3,1.3v2.1h-2.1c0-0.7-0.6-1.3-1.3-1.3
		c-0.7,0-1.3,0.6-1.3,1.3h-2.1v-2.1c0.7,0,1.3-0.6,1.3-1.3s-0.6-1.3-1.3-1.3v-2.1h2.1C103.7,127.8,104.3,127.2,105.1,127.2
		 M105.1,126c-0.9,0-1.8,0.5-2.2,1.3h-1.2h-1.1v1.1v2.1v1.1h1.1c0.1,0,0.2,0.1,0.2,0.2c0,0.1-0.1,0.2-0.2,0.2h-1.1v1.1v2.1v1.1h1.1
		h2.1h1.1v-1.1c0-0.1,0.1-0.2,0.2-0.2s0.2,0.1,0.2,0.2v1.1h1.1h2.1h1.1v-1.1V134c0.8-0.4,1.3-1.2,1.3-2.2s-0.5-1.8-1.3-2.2v-1.2
		v-1.1h-1.1h-1.2C106.8,126.6,106,126,105.1,126L105.1,126z"/>
</g>
<g>
	<path class="st16" d="M18.2,158.9h100.6c0.9-2.5,1.6-5.1,2.1-7.8H16.1C16.6,153.8,17.3,156.4,18.2,158.9z"/>
	<path d="M119.4,159.8H17.6l-0.2-0.6c-0.9-2.5-1.6-5.1-2.2-7.9l-0.2-1h107l-0.2,1c-0.5,2.7-1.3,5.4-2.2,7.9L119.4,159.8z
		 M18.8,158.1h99.4c0.7-1.9,1.2-4,1.7-6.1H17.1C17.6,154.1,18.1,156.1,18.8,158.1z"/>
	<path class="st17" d="M71.7,150.5h-8c-1,0-1.8,0.9-1.8,1.9v5.3c0,1.1,0.8,1.9,1.8,1.9h8c1,0,1.8-0.9,1.8-1.9v-5.3
		C73.5,151.3,72.7,150.5,71.7,150.5z M70.9,156.2c0,0.5-0.4,0.9-1,0.9h-4.6c-0.5,0-1-0.4-1-0.9v-2.4c0-0.5,0.4-0.9,1-0.9h4.6
		c0.5,0,1,0.4,1,0.9V156.2z"/>
	<path d="M71.7,160.4h-8c-1.4,0-2.6-1.2-2.6-2.8v-5.3c0-1.5,1.2-2.8,2.6-2.8h8c1.4,0,2.6,1.2,2.6,2.8v5.3
		C74.3,159.2,73.1,160.4,71.7,160.4z M63.6,151.3c-0.5,0-0.9,0.5-0.9,1.1v5.3c0,0.6,0.4,1.1,0.9,1.1h8c0.5,0,0.9-0.5,0.9-1.1v-5.3
		c0-0.6-0.4-1.1-0.9-1.1H63.6z M69.9,158h-4.6c-1,0-1.8-0.8-1.8-1.8v-2.4c0-1,0.8-1.8,1.8-1.8h4.6c1,0,1.8,0.8,1.8,1.8v2.4
		C71.8,157.2,70.9,158,69.9,158z M65.4,153.8l-0.1,2.4l4.7,0.1l0.1-0.1v-2.4H65.4z"/>
	<path class="st17" d="M74.6,156.1h-4.5c-0.4,0-0.7-0.3-0.7-0.7v-0.6c0-0.4,0.3-0.7,0.7-0.7h4.5c0.4,0,0.7,0.3,0.7,0.7v0.6
		C75.3,155.7,75,156.1,74.6,156.1z"/>
	<path d="M74.3,156.9h-3.9c-1,0-1.8-0.8-1.8-1.8c0-1.1,0.8-1.9,1.8-1.9h3.9c1,0,1.8,0.8,1.8,1.8C76.1,156.1,75.3,156.9,74.3,156.9z
		 M70.4,154.9c-0.1,0-0.1,0.1-0.1,0.1c0,0.2,0.1,0.2,0.1,0.2h3.9c0.1,0,0.1-0.1,0.1-0.1c0-0.2-0.1-0.2-0.1-0.2H70.4z"/>
</g>
<path d="M68.2,126.3c0.2,0.2,0.3,0.3,0.4,0.5s0,0.5-0.1,0.7c-1,3.8-2.2,7.5-3.5,11.1c-0.1,0.3-0.2,0.6-0.2,0.9
	c0,0.3,0.2,0.6,0.3,0.9c1.2,2.3,2.5,4.4,4,6.5c0.2,0.2,0.3,0.4,0.6,0.6c1.8,1,3.8-3.6,4.4-4.7c0.8-1.5,1.4-2.7,1.1-4.5
	c-0.3-1.7-1.2-3.1-1.8-4.7c-0.7-1.9-1.6-4.2-1.6-6.3c0-0.3,0.2-0.6,0.4-0.9c0.7-0.9,1.4-1.7,1.9-2.7s0.7-2.2,0.4-3.3
	c-0.9-2.6-4.3-2.6-6-0.9c-0.7,0.7-1.3,1.8-1.9,2.6C65.5,123.7,67,125.1,68.2,126.3z"/>
<g>
	<path class="st5" d="M69.6,117.4c-5.1,0-10.1-0.4-14.8-1c1.6,3,4.1,5.7,6.5,7.2c1.6,1,1.9,1.3,3.5,0.5c2-1,4-3.2,5.5-4.8
		c1.6,1.4,3.2,5.1,5.3,5.7c2.7,0.8,6.8-4.1,8.4-6c0.6-0.8,1.2-1.6,1.7-2.5C80.6,117.1,75.2,117.4,69.6,117.4z"/>
	<path d="M85.5,115.5c-5.2,0.6-10.6,0.9-16,0.9c-4.7,0-9.7-0.3-14.7-1l-1.9-0.2l0.9,1.7c1.6,3,4.1,5.8,6.9,7.6
		c1.7,1.1,2.4,1.5,4.4,0.4c1.9-0.9,3.6-2.7,5.1-4.2c0.3,0.4,0.7,0.9,1.1,1.5c1.1,1.6,2.3,3.3,3.9,3.7c0.3,0.1,0.6,0.1,0.9,0.1
		c2.8,0,6-3.4,8.5-6.5c0.7-0.8,1.3-1.7,1.8-2.7l0.9-1.7L85.5,115.5z M69,119.2c-1.4,1.4-3.1,3.2-4.7,4c-1.1,0.5-1.1,0.5-2.5-0.4
		c-1.9-1.2-3.7-3.1-5.1-5.1c4.4,0.5,8.8,0.7,12.9,0.7c0.1,0,0.1,0,0.2,0L69,119.2z M83.1,118.4c-4.3,5.3-6.3,6-7.3,5.7s-2-1.7-2.9-3
		c-0.7-1-1.3-1.9-2.1-2.5l-0.2-0.2c4.3,0,8.7-0.3,13-0.7C83.5,117.9,83.3,118.2,83.1,118.4z"/>
</g>
<path d="M34.9,136.5c-0.1,0-0.2,0-0.3-0.1l-7.6-2.8c-0.5-0.2-0.7-0.7-0.6-1.1l1.2-5.8c0.1-0.5,0.6-0.8,1.1-0.8l15.3,1.5
	c0.5,0.1,0.9,0.5,0.9,1v5.7c0,0.5-0.4,0.9-0.9,1l-9,1.3C35,136.5,34.9,136.5,34.9,136.5z M28.4,132.1l6.5,2.4l7.9-1.1v-4L29.3,128
	L28.4,132.1z"/>
<g>
	<path class="st5" d="M52.2,19.7c-0.9,0,0.7,7.2,0.9,7.8c1.1,3.7,5.6,5.1,9.1,4.9c2.6-0.1,5-0.6,7.5-0.9c2.7-0.3,5.8,0.2,8.5,0.6
		c3.9,0.6,8.1,1.5,10.1-2.8c1.3-2.7,2.1-6.4,1-9.3C89.3,20.2,52.3,19.7,52.2,19.7z"/>
	<path d="M82.7,33.6c-1.4,0-2.9-0.2-4.2-0.5L78.1,33c-2.8-0.5-5.7-0.9-8.2-0.6c-1,0.1-1.9,0.2-2.8,0.4c-1.5,0.2-3.1,0.5-4.7,0.5
		c-4.1,0.1-8.8-1.5-10-5.6c0-0.1-1.8-7.3-0.9-8.5c0.2-0.2,0.6-0.4,0.8-0.4l0,0c0.2,0,37.1,0.5,37.1,0.5c0.3,0,0.7,0.2,0.8,0.5
		c1,2.7,0.7,6.4-1,9.9C87.7,32.8,85.3,33.6,82.7,33.6z M71.5,30.7c2.3,0,4.6,0.4,6.9,0.7l0.4,0.1c3.7,0.6,7.1,1.2,8.8-2.4
		c1.3-2.9,1.7-5.9,1.1-8.1c-4.4-0.1-31.5-0.4-35.9-0.5c0,1.5,0.9,5.9,1.1,6.7c1,3.6,5.7,4.4,8.3,4.3c1.5,0,3.1-0.3,4.5-0.5
		c1-0.1,2-0.3,2.9-0.4C70.3,30.7,70.9,30.7,71.5,30.7z"/>
	<path d="M69.1,27.4c-16.8,0-17.7-7.3-17.7-7.6c0-0.2,0.1-0.5,0.2-0.7c0.2-0.2,0.3-0.3,0.6-0.3l37.1,0.5c0.2,0,0.5,0.1,0.6,0.3
		c0.2,0.2,0.2,0.4,0.2,0.7c-0.4,2.6-3.5,6.9-20.4,7.1C69.5,27.4,69.3,27.4,69.1,27.4z M53.4,20.6c1,1.7,4.5,5.3,16.3,5.1
		c13.6-0.1,17.4-2.9,18.4-4.7L53.4,20.6z"/>
	<path class="st5" d="M50.6,10.7C53.8,3.6,62.9,2.1,69.9,2c9-0.1,15.9,2,21.1,9.9c3.2,4.8-1.3,9-5.9,10.3
		c-6.3,1.7-12.8,2.1-19.3,1.3C59,22.6,46.4,21.1,50.5,11C50.5,10.9,50.6,10.8,50.6,10.7z"/>
	<path d="M72.1,24.7c-2.1,0-4.3-0.1-6.4-0.4c-5.3-0.7-13.2-1.7-16-6.3c-1.2-2-1.2-4.5-0.1-7.4l0.1-0.3l0,0c2.7-6,9.4-9,20-9.1
		c10.4-0.1,17,2.9,21.8,10.2c1.3,1.9,1.6,3.9,0.8,5.8c-1,2.6-3.8,4.8-7.2,5.7C81.1,24.1,76.6,24.7,72.1,24.7z M51.4,11l-0.1,0.2
		c-1,2.4-1,4.3-0.1,5.9c2.3,3.9,10,4.9,14.6,5.4c6.4,0.8,13,0.4,19-1.3c2.8-0.8,5.3-2.7,6-4.7c0.5-1.4,0.3-2.8-0.7-4.3
		c-4.6-6.8-10.4-9.6-20.4-9.5C60,3,53.8,5.7,51.4,11L51.4,11z"/>
	<path class="st8" d="M72.7,16.3l0.1-2.1l-2.1-0.1c0-0.7-0.6-1.3-1.3-1.4c-0.7,0-1.3,0.6-1.4,1.3l-2,0l-0.1,2.1
		c0.7,0,1.3,0.6,1.3,1.4c0,0.7-0.6,1.3-1.4,1.3l-0.1,2.1l2.1,0.1c0-0.7,0.6-1.3,1.4-1.3c0.7,0,1.3,0.6,1.3,1.4l2.1,0.1l0.1-2.1
		c0.7,0,1.3-0.6,1.4-1.3C74,16.9,73.4,16.3,72.7,16.3z"/>
	<path d="M72.6,21.8L72.6,21.8l-2.1-0.1c-0.5,0-0.8-0.4-0.8-0.9c0-0.1,0-0.2-0.1-0.3c-0.1-0.1-0.2-0.1-0.3-0.1c-0.2,0-0.2,0-0.3,0.1
		c-0.1,0.1-0.1,0.2-0.2,0.3c0,0.5-0.4,0.9-0.9,0.8l-2.1-0.1c-0.5,0-0.8-0.4-0.8-0.9l0.1-2.1c0-0.2,0.1-0.4,0.3-0.6
		c0.2-0.2,0.4-0.2,0.6-0.2s0.5-0.2,0.5-0.5s-0.2-0.5-0.5-0.5c-0.5,0-0.8-0.4-0.8-0.9l0.1-2.1c0-0.5,0.4-0.9,0.9-0.8h1.4
		c0.1-0.3,0.3-0.5,0.5-0.7c0.4-0.4,1-0.6,1.6-0.6s1.1,0.3,1.5,0.7c0.2,0.2,0.3,0.4,0.4,0.7H73c0.5,0,0.8,0.4,0.8,0.9v1.4
		c0.3,0.1,0.5,0.3,0.7,0.5c0.4,0.4,0.6,1,0.6,1.6s-0.3,1.1-0.7,1.5c-0.2,0.2-0.4,0.3-0.7,0.4v1.4C73.4,21.5,73,21.8,72.6,21.8z
		 M71.2,20.1h0.5v-1.2c0-0.5,0.4-0.9,0.9-0.8c0.2,0,0.2,0,0.3-0.1c0.1-0.1,0.1-0.2,0.2-0.3c0-0.3-0.2-0.5-0.5-0.5
		c-0.5,0-0.8-0.4-0.8-0.9v-1.2h-1.2c-0.5,0-0.8-0.4-0.8-0.9c0-0.1,0-0.2-0.1-0.3s-0.2-0.1-0.3-0.1l0,0c-0.3,0-0.5,0.2-0.5,0.5
		c0,0.5-0.4,0.9-0.9,0.8h-1.2v0.5c0.8,0.4,1.3,1.1,1.3,2c0,0.9-0.6,1.7-1.4,2v0.5h0.5c0.4-0.8,1.1-1.3,2-1.3c0.6,0,1.1,0.3,1.5,0.7
		C71,19.6,71.1,19.9,71.2,20.1z"/>
</g>
</svg>
