<?xml version="1.0" encoding="utf-8"?>
<!-- Generator: Adobe Illustrator 24.1.1, SVG Export Plug-In . SVG Version: 6.00 Build 0)  -->
<svg version="1.1" id="Layer_1" xmlns="http://www.w3.org/2000/svg" xmlns:xlink="http://www.w3.org/1999/xlink" x="0px" y="0px"
	 viewBox="0 0 181.18 280" style="enable-background:new 0 0 181.18 280;" xml:space="preserve">
<g>
	<path style="fill:#FFFFFF;" d="M122.03,31.84c-2.77,3.36-7.91,3.99-11.46,1.42c-0.13-0.1-0.26-0.2-0.43-0.33
		c-0.26-0.16-0.49-0.33-0.72-0.49c-0.1-0.1-0.23-0.16-0.33-0.23c-0.89-0.72-1.71-1.35-2.47-1.88v-0.03
		c-1.28-0.89-2.4-1.52-3.43-1.52c-0.79,0-1.52,0.36-2.27,1.25c-1.78,2.11-1.05,4.35-3.49,4.74c-1.25,0.23-2.4,0.69-3.26,0.69
		c-0.56,0-0.99-0.2-1.25-0.76c-2.04-4.25-0.53-11.17,2.04-14.92c1.52-2.21,3.76-3.72,6.36-4.64c1.88-0.66,3.59-0.96,5.17-0.96
		c0.69,0,1.35,0.07,2.01,0.16c0.56,0.1,1.09,0.23,1.61,0.4c1.52,0.43,2.93,1.15,4.41,2.08h0.03c1.91,1.19,3.85,2.67,6.06,4.25
		C124.17,23.67,124.8,28.48,122.03,31.84z"/>
	<path d="M106.84,30.56c0.4,0.3,1.35,0.99,2.24,1.65c-0.89-0.72-1.71-1.35-2.47-1.88C106.68,30.39,106.74,30.46,106.84,30.56z"/>
	<path d="M127.6,25.68c-0.4-3.13-2.04-5.9-4.64-7.77l-0.99-0.76c-5.07-3.72-9.45-6.92-15.48-6.92c-2.11,0-4.25,0.4-6.52,1.19
		c-3.59,1.28-6.36,3.36-8.27,6.13c-3.26,4.81-5.07,13.14-2.37,18.84c0.89,1.91,2.7,3.03,4.84,3.03c1.02,0,1.94-0.23,2.77-0.46
		c0.36-0.1,0.76-0.2,1.15-0.26c3.72-0.66,4.78-3.49,5.27-4.84c0.1-0.33,0.2-0.56,0.3-0.79c0.66,0.43,1.58,1.15,2.31,1.71
		c0.72,0.53,1.48,1.12,2.31,1.71c2.11,1.52,4.61,2.31,7.25,2.31c3.76,0,7.25-1.61,9.59-4.45C127.1,31.88,127.99,28.81,127.6,25.68z
		 M122.03,31.84c-2.77,3.36-7.91,3.99-11.46,1.42c-0.13-0.1-0.26-0.2-0.43-0.33c-0.26-0.16-0.49-0.33-0.72-0.49
		c-0.1-0.1-0.23-0.16-0.33-0.23c-0.89-0.66-1.84-1.35-2.24-1.65c-0.1-0.1-0.16-0.16-0.23-0.23v-0.03c-1.28-0.89-2.4-1.52-3.43-1.52
		c-0.79,0-1.52,0.36-2.27,1.25c-1.78,2.11-1.05,4.35-3.49,4.74c-1.25,0.23-2.4,0.69-3.26,0.69c-0.56,0-0.99-0.2-1.25-0.76
		c-2.04-4.25-0.53-11.17,2.04-14.92c1.52-2.21,3.76-3.72,6.36-4.64c1.88-0.66,3.59-0.96,5.17-0.96c0.69,0,1.35,0.07,2.01,0.16
		c0.56,0.1,1.09,0.23,1.61,0.4c1.52,0.43,2.93,1.15,4.41,2.08h0.03c1.91,1.19,3.85,2.67,6.06,4.25
		C124.17,23.67,124.8,28.48,122.03,31.84z"/>
	<path style="fill:#683100;" d="M122.03,31.84c-2.77,3.36-7.91,3.99-11.46,1.42c-0.13-0.1-0.26-0.2-0.43-0.33
		c-0.23-0.13-0.46-0.33-0.72-0.49c-0.1-0.1-0.23-0.16-0.33-0.23c-0.89-0.66-1.84-1.35-2.24-1.65c-0.1-0.1-0.16-0.16-0.23-0.23v-0.03
		c-0.33-0.66,0.96-1.45,1.98-1.84c0.59-0.26,1.22-0.26,1.84-0.16c-0.79-0.3-1.42-0.86-1.78-1.61c-0.72-1.58,0.07-3.39,1.71-4.05
		c0.79-0.33,1.61-0.3,2.34-0.07c-0.66-0.33-1.25-0.82-1.55-1.52c-0.72-1.55,0.56-3.33,2.24-4.02c0.13-0.07,0.79-0.23,1.12-0.2h0.03
		c1.91,1.19,3.85,2.67,6.06,4.25C124.17,23.67,124.8,28.48,122.03,31.84z"/>
</g>
<g>
	<path d="M97.28,179c2.54,0,4.65,2.01,4.75,4.57l1.39,35.46l0.86,22.11c0,0,2.26-3.02,8.61-3.02c1.08,0,2.28,0.09,3.6,0.29
		c0.06,0.01,0.33,0.06,0.33,0.06c6.09,1.07,11.5,4.92,14.51,10.32c1.63,2.92,2.51,8.36,0.23,11.19c-3.33,4.14-9.05,3.7-13.75,3.89
		l-15.85,0.62l-3.43,0.13c-0.07,0-0.14,0-0.21,0c-2.77,0-7-2.03-7.11-4.72l-1.58-40.34l0,0l-1.39-35.46c-0.1-2.63,6.2-5,8.83-5.1
		C97.15,179,97.21,179,97.28,179 M97.28,175.05L97.28,175.05l-0.34,0.01c-2.74,0.11-12.88,2.68-12.62,9.21l1.39,35.46l1.57,40.34
		c0.21,5.28,6.58,8.51,11.06,8.51l0.36-0.01l3.43-0.13l15.85-0.62c0.55-0.02,1.12-0.03,1.69-0.05c4.6-0.1,10.9-0.25,14.98-5.31
		c3.61-4.47,2.25-11.81,0.14-15.59c-3.58-6.42-10.04-11.01-17.28-12.28l-0.33-0.06c-1.54-0.24-2.95-0.35-4.29-0.35
		c-1.89,0-3.51,0.22-4.91,0.58l-0.62-15.87l-1.39-35.46C105.79,178.73,101.97,175.05,97.28,175.05L97.28,175.05z"/>
	<path style="fill:#FFFFFF;" d="M103.43,219.03l-13.77,0.53l-1.38-35.44c-0.13-2.64,6.19-5.01,8.83-5.11
		c2.6-0.1,4.81,1.94,4.94,4.58L103.43,219.03z"/>
	<path style="fill-rule:evenodd;clip-rule:evenodd;fill:#0088C2;" d="M131.56,259.97c-3.33,4.15-9.03,3.72-13.74,3.89l-15.84,0.63
		l-3.43,0.13c-2.77,0.1-7.21-1.94-7.35-4.71l-1.38-36.04l-0.16-4.32l13.77-0.53l0.16,4.32l0.69,17.79c0,0,3.1-4.12,12.22-2.7
		c0.03,0,0.33,0.03,0.33,0.03c6.09,1.09,11.5,4.94,14.49,10.34C132.98,251.7,133.83,257.14,131.56,259.97z"/>
</g>
<g>
	<path style="fill:#FFFFFF;" d="M78.09,186.88l-5.07,35.12l-13.64-1.98l5.07-35.12c0.36-2.6,6.98-3.79,9.59-3.43
		C76.65,181.87,78.46,184.27,78.09,186.88z"/>
	<path style="fill-rule:evenodd;clip-rule:evenodd;fill:#009FF8;" d="M93.31,267.35c-4.05,3.49-9.59,2.01-14.23,1.35l-15.71-2.27
		l-3.39-0.49c-2.73-0.4-6.72-3.23-6.36-5.96l5.14-35.68l0.63-4.28l13.64,1.98l-0.63,4.28l-2.54,17.62c0,0,3.82-3.49,12.52-0.46
		c0.07,0,0.33,0.1,0.33,0.1c5.76,2.17,10.41,6.95,12.39,12.78C96.18,259.48,96.05,265.01,93.31,267.35z"/>
	<path d="M72.96,181.42c0.41,0,0.78,0.02,1.09,0.07c2.6,0.37,4.41,2.78,4.03,5.38l-5.06,35.12l-3.15,21.9c0,0,1.85-1.71,5.93-1.71
		c1.76,0,3.95,0.32,6.57,1.23c0.05,0.02,0.32,0.12,0.32,0.12c5.79,2.16,10.42,6.92,12.4,12.77c1.08,3.17,0.95,8.68-1.8,11.04
		c-1.98,1.7-4.33,2.22-6.76,2.22c-2.51,0-5.1-0.54-7.47-0.88l-15.7-2.26l-3.4-0.49c-2.73-0.39-6.73-3.23-6.34-5.96l5.75-39.96l0,0
		l5.06-35.12C64.77,182.62,69.95,181.42,72.96,181.42 M72.96,177.47C72.96,177.47,72.96,177.47,72.96,177.47
		c-3.96,0-11.64,1.44-12.43,6.88l-5.06,35.12l-5.75,39.96c-0.78,5.41,5.22,9.79,9.69,10.43l3.4,0.49l15.7,2.26
		c0.55,0.08,1.1,0.17,1.67,0.26c1.94,0.31,4.14,0.67,6.36,0.67c3.8,0,6.86-1.04,9.34-3.17c4.36-3.75,4.35-11.21,2.96-15.31
		c-2.36-6.96-7.88-12.65-14.77-15.21l-0.26-0.1c-2.91-1.01-5.56-1.5-8.01-1.5c-0.39,0-0.77,0.01-1.13,0.03l2.26-15.71l5.06-35.12
		c0.68-4.75-2.63-9.18-7.38-9.86C74.12,177.5,73.56,177.47,72.96,177.47L72.96,177.47L72.96,177.47z"/>
</g>
<g>
	<path style="fill:#FFFFFF;" d="M115.45,155.27c-1.16-7.2-0.55-14.23-0.02-21.76c0.24-3.33,1.31-15.42-5.58-13.13
		c-2.49,0.83-3.77,4.52-4.75,6.68c-2.12,4.7-3.51,9.64-4.18,14.65c-0.76,5.62-0.62,11.26,0.19,16.8
		C104.75,157.01,109.78,155.54,115.45,155.27z"/>
	<path style="fill:#0088C5;" d="M126.02,178.4c-0.06-0.07-0.12-0.14-0.17-0.21c-1.53-1.88-2.84-3.72-4-5.58
		c-1.65-2.66-2.97-5.38-4.05-8.37c-0.53-1.47-1.01-3.01-1.45-4.64c-0.39-1.45-0.66-2.89-0.89-4.33c-5.67,0.27-10.7,1.74-14.33,3.24
		c0.39,2.68,0.93,5.33,1.63,7.94c1.99,7.44,4.8,15.84,9.81,21.93c2.44,2.96,6.45,4.66,10.5,3.84c0.84-0.17,1.65-0.42,2.34-0.71
		c2.51-1.08,4.62-3.18,4.74-5.86c0.02-0.53-0.06-1.02-0.18-1.5C129.39,181.92,127.46,180.19,126.02,178.4z"/>
	<path d="M111.45,120.09c5.11,0,4.2,10.37,3.98,13.42c-0.53,7.53-1.14,14.56,0.02,21.76c0.23,1.44,0.51,2.88,0.89,4.33
		c0.43,1.63,0.91,3.17,1.45,4.64c1.08,2.99,2.4,5.71,4.05,8.37c1.16,1.86,2.46,3.7,4,5.58c0.06,0.07,0.12,0.14,0.17,0.21
		c1.44,1.79,3.38,3.52,3.95,5.75c0.12,0.48,0.2,0.97,0.18,1.5c-0.12,2.67-2.23,4.78-4.74,5.86c-0.69,0.3-1.49,0.54-2.34,0.71
		c-0.69,0.14-1.38,0.21-2.06,0.21c-3.32,0-6.42-1.59-8.45-4.05c-5.01-6.09-7.82-14.49-9.81-21.93c-0.7-2.61-1.24-5.27-1.63-7.94
		c-0.82-5.54-0.95-11.18-0.19-16.8c0.68-5.01,2.07-9.96,4.18-14.65c0.97-2.16,2.25-5.85,4.75-6.68
		C110.44,120.18,110.97,120.09,111.45,120.09 M111.45,116.14c-0.91,0-1.87,0.16-2.84,0.49c-3.86,1.28-5.6,5.32-6.74,7.98l-0.36,0.82
		c-2.25,4.98-3.76,10.28-4.5,15.75c-0.77,5.73-0.71,11.75,0.2,17.9c0.42,2.86,1,5.69,1.73,8.39c1.95,7.29,4.92,16.54,10.58,23.42
		c2.83,3.44,7.13,5.49,11.5,5.49c0.95,0,1.91-0.1,2.84-0.28c1.09-0.22,2.17-0.55,3.11-0.96c4.22-1.81,6.95-5.38,7.13-9.31
		c0.04-0.86-0.06-1.73-0.3-2.66c-0.67-2.63-2.37-4.57-3.74-6.13c-0.33-0.38-0.65-0.75-0.96-1.12l-0.19-0.23
		c-1.39-1.7-2.6-3.39-3.7-5.17c-1.5-2.42-2.71-4.91-3.7-7.63c-0.49-1.35-0.93-2.76-1.34-4.31c-0.3-1.14-0.56-2.39-0.81-3.94
		c-1.02-6.35-0.56-12.79-0.07-19.61l0.09-1.24l0.02-0.29c0.4-5.57,0.39-11.72-2.75-15.1C115.27,116.92,113.48,116.14,111.45,116.14
		L111.45,116.14z"/>
</g>
<g>
	<path style="fill:#FFFFFF;" d="M54.9,19.27c3.18,0.4,6.13,1.58,8.46,3.82c3.99,3.84,6.99,8.53,5.95,14.22
		c-0.36,1.98-3.61,3.73-6.02,3.88c-2.86,0.18-2.68-1.91-5.28-3.98c-3.74-2.97-5.83,1.54-9.9,6.59c-3.27,4.09-9.22,4.75-13.29,1.45
		c-4.07-3.29-4.76-9.25-1.53-13.36C39.53,23.97,45.13,18.05,54.9,19.27z"/>
	<path d="M49.24,42.36c0.89-1.12,1.88-2.34,2.27-2.87c0.1-0.13,0.16-0.23,0.16-0.36C50.95,40.09,50.13,41.18,49.24,42.36z"/>
	<path d="M66.1,20.26c-2.83-2.73-6.42-4.38-10.71-4.91c-1.02-0.13-2.01-0.2-3-0.2c-10.11,0-16.27,6.75-22.24,14.3
		c-4.55,5.8-3.56,14.26,2.17,18.88c2.37,1.94,5.34,3,8.4,3c4.08,0,7.91-1.84,10.44-5.04c0.76-0.92,1.45-1.84,2.08-2.7
		c0.79-1.05,1.81-2.4,2.5-3.1c0.46,0.4,0.76,0.82,1.12,1.32c0.96,1.25,2.57,3.36,6.06,3.36c0.2,0,0.4,0,0.59-0.03
		c3.39-0.2,8.83-2.6,9.65-7.12C74.31,31.85,71.93,25.86,66.1,20.26z M69.3,37.32c-0.36,1.98-3.59,3.72-6.03,3.89h-0.33
		c-2.5,0-2.44-2.01-4.94-3.99c-0.82-0.66-1.58-0.96-2.27-0.96c-1.42,0-2.64,1.15-4.05,2.87c0,0.13-0.07,0.23-0.16,0.36
		c-0.4,0.53-1.38,1.75-2.27,2.87c-0.4,0.56-0.82,1.05-1.12,1.45c-3.29,4.08-9.22,4.74-13.31,1.45c-4.08-3.29-4.74-9.26-1.52-13.37
		c1.98-2.5,3.92-4.81,5.93-6.79c3.72-3.62,7.77-6,13.18-6c0.79,0,1.65,0.07,2.5,0.16c3.16,0.4,6.13,1.58,8.47,3.82
		C67.36,26.95,70.35,31.62,69.3,37.32z"/>
	<path style="fill:#683100;" d="M51.68,39.13c0,0.13-0.07,0.23-0.16,0.36c-0.4,0.53-1.38,1.75-2.27,2.87
		c-0.4,0.56-0.82,1.05-1.12,1.45c-3.29,4.08-9.22,4.74-13.31,1.45c-4.08-3.29-4.74-9.26-1.52-13.37c1.98-2.5,3.92-4.81,5.93-6.79
		c0.3-0.03,0.89-0.16,1.02-0.13c2.08,0.36,4.02,2.17,3.69,4.25c-0.16,0.92-0.66,1.68-1.32,2.24c0.76-0.49,1.68-0.72,2.64-0.56
		c2.04,0.36,3.43,2.34,3.1,4.41c-0.16,1.02-0.76,1.88-1.55,2.44c0.66-0.3,1.38-0.46,2.14-0.33C50.19,37.62,51.87,38.24,51.68,39.13z
		"/>
</g>
<g>
	<path d="M88.79,32.74c12.37,0,25.18,5.03,35.41,11.95c8.73,5.9,14.66,16.56,17.75,26.47c0.19,0.6,0.32,1.19,0.49,1.79
		c0.35,1.02,0.68,2.03,0.97,3.03c3.52,12.06,1.42,22.55-1.93,34.52c-0.73,2.6-5.94,15.28-6.03,15.9c-1.5,6.97,2.11,15.48,3.11,22.35
		c1.85,12.77,2.22,25.96-3.12,38.02c-7.27,16.44-24.2,22.28-41.01,23.41c-1.66,0.11-3.32,0.17-4.98,0.17c-0.36,0-0.72,0-1.09-0.01
		c-0.08,0-0.16-0.01-0.24-0.01l-4.11-0.06c-2.02-0.03-4.12-0.14-6.13-0.33c-13.82-1.33-29.05-6.7-37.69-18.19
		c-6.25-8.31-8.62-22.08-7.94-32.33c0.54-8,2.99-15.74,4.5-23.58c0.59-3.07,1.74-6.07,1.5-9.19c-0.05-0.66-0.15-1.3-0.24-1.95
		c-0.5-1.41-4.26-12-5.21-16.05c-2.8-9.22-3.55-18.89-2.13-28.66c1.49-10.28,5.67-21.74,13.36-28.94
		c9.88-9.26,23.19-16.76,36.63-17.8c0,0,0.1-0.01,0.24-0.02l4.32-0.34C86.41,32.79,87.6,32.74,88.79,32.74 M88.79,28.79
		c-1.31,0-2.62,0.05-3.89,0.16l-4.3,0.34l-0.33,0.03c-13,1-27.23,7.87-38.94,18.84c-7.39,6.92-12.7,18.31-14.57,31.26
		c-1.48,10.25-0.73,20.43,2.23,30.26c0.81,3.38,3.25,10.52,5.17,15.98c0.07,0.46,0.12,0.88,0.16,1.3c0.12,1.58-0.32,3.38-0.79,5.29
		c-0.23,0.95-0.47,1.9-0.65,2.86c-0.48,2.51-1.08,5.09-1.67,7.59c-1.24,5.3-2.52,10.79-2.9,16.47c-0.71,10.69,1.7,25.64,8.72,34.97
		c8.17,10.86,22.92,18.06,40.47,19.75c2.06,0.2,4.29,0.32,6.46,0.35l4.11,0.06l0.22,0.01l1.16,0.01c1.75,0,3.51-0.06,5.24-0.17
		c22.23-1.49,37.57-10.4,44.36-25.75c6.17-13.95,5.07-28.81,3.42-40.19c-0.35-2.38-0.97-4.89-1.57-7.33
		c-1.17-4.75-2.39-9.66-1.61-13.5c0.23-0.65,1.14-2.98,1.96-5.05c2.09-5.29,3.6-9.16,4.04-10.74c3.26-11.64,5.86-23.2,1.92-36.69
		c-0.3-1.02-0.63-2.06-0.99-3.09l-0.15-0.56c-0.11-0.41-0.22-0.82-0.35-1.24c-3.89-12.49-10.93-22.91-19.31-28.58
		C114.38,33.27,101.01,28.79,88.79,28.79L88.79,28.79z"/>
	<path style="fill:#009FF9;" d="M141.48,110.5c3.35-11.96,5.45-22.46,1.93-34.52c-0.29-1.01-0.62-2.02-0.97-3.03
		c-0.17-0.6-0.3-1.19-0.49-1.79c-3.09-9.92-9.02-20.57-17.75-26.47c-11.22-7.58-25.54-12.9-38.98-11.81l-4.32,0.34
		c-0.15,0.01-0.24,0.02-0.24,0.02c-13.44,1.03-26.75,8.54-36.63,17.8c-7.69,7.21-11.87,18.66-13.36,28.94
		c-1.41,9.78-0.66,19.44,2.14,28.66c0.95,4.05,4.71,14.64,5.21,16.05c0.1,0.65,0.19,1.3,0.24,1.95c0.24,3.12-0.91,6.12-1.5,9.19
		c-1.51,7.84-3.96,15.58-4.5,23.58c-0.69,10.25,1.69,24.02,7.94,32.33c8.64,11.49,23.87,16.86,37.69,18.19
		c2.01,0.19,4.11,0.3,6.13,0.33l4.11,0.06c0.08,0,0.16,0.01,0.24,0.01c2.02,0.03,4.04-0.02,6.06-0.16
		c16.81-1.13,33.74-6.97,41.01-23.41c5.33-12.06,4.97-25.25,3.12-38.02c-1-6.87-4.61-15.38-3.11-22.35
		C135.54,125.79,140.76,113.1,141.48,110.5z"/>
</g>
<path style="fill:#009FF8;" d="M85.23,32.88c0,0-0.1,0.01-0.24,0.02L85.23,32.88z"/>
<g>
	<path style="fill:#FFFFFF;" d="M58.92,165.31c-2.19-6.95-2.62-13.99-3.19-21.52c-0.25-3.33-0.95-15.45-7.43-12.18
		c-2.35,1.18-3.07,5.03-3.72,7.3c-1.41,4.95-2.07,10.05-2,15.11c0.07,5.67,1.03,11.23,2.64,16.59
		C48.59,168.59,53.35,166.4,58.92,165.31z"/>
	<path style="fill:#0088C5;" d="M72.74,186.65c-0.07-0.06-0.14-0.12-0.2-0.19c-1.79-1.63-3.35-3.26-4.77-4.94
		c-2.02-2.39-3.72-4.89-5.23-7.69c-0.74-1.38-1.44-2.83-2.11-4.38c-0.6-1.38-1.08-2.77-1.51-4.15c-5.57,1.09-10.33,3.28-13.71,5.29
		c0.78,2.59,1.7,5.14,2.77,7.62c3.06,7.07,7.06,14.97,12.9,20.27c2.84,2.58,7.06,3.67,10.95,2.27c0.81-0.29,1.57-0.65,2.21-1.05
		c2.33-1.44,4.11-3.82,3.84-6.48c-0.05-0.53-0.21-1-0.4-1.46C76.59,189.64,74.43,188.21,72.74,186.65z"/>
	<path d="M50.34,131.05c4.59,0,5.17,9.79,5.39,12.73c0.57,7.53,1,14.57,3.19,21.52c0.44,1.39,0.92,2.77,1.51,4.15
		c0.67,1.55,1.36,3,2.11,4.38c1.51,2.8,3.21,5.29,5.23,7.69c1.42,1.68,2.98,3.3,4.77,4.94c0.07,0.06,0.14,0.12,0.2,0.19
		c1.68,1.56,3.85,2.99,4.74,5.12c0.19,0.46,0.34,0.93,0.4,1.46c0.27,2.66-1.51,5.05-3.84,6.48c-0.64,0.39-1.4,0.76-2.21,1.05
		c-1.16,0.42-2.36,0.61-3.53,0.61c-2.76,0-5.42-1.08-7.42-2.88c-5.84-5.29-9.85-13.19-12.9-20.27c-1.07-2.48-1.99-5.03-2.77-7.62
		c-1.61-5.36-2.57-10.92-2.64-16.59c-0.06-5.06,0.59-10.15,2-15.11c0.65-2.28,1.37-6.12,3.72-7.3
		C49.05,131.22,49.73,131.05,50.34,131.05 M50.34,127.1c-1.25,0-2.54,0.33-3.82,0.98c-3.63,1.83-4.76,6.07-5.51,8.88l-0.24,0.87
		c-1.5,5.26-2.22,10.72-2.16,16.24c0.07,5.78,1.01,11.73,2.81,17.68c0.83,2.77,1.82,5.48,2.93,8.05
		c2.99,6.93,7.28,15.65,13.88,21.63c2.74,2.48,6.41,3.91,10.07,3.91c1.67,0,3.31-0.29,4.87-0.85c1.05-0.38,2.06-0.86,2.94-1.4
		c3.91-2.41,6.1-6.34,5.7-10.25c-0.09-0.86-0.31-1.7-0.68-2.59c-1.05-2.5-3.01-4.18-4.59-5.52c-0.38-0.32-0.76-0.64-1.11-0.97
		l-0.22-0.2c-1.62-1.48-3.07-2.98-4.42-4.57c-1.84-2.17-3.4-4.47-4.77-7.01c-0.68-1.27-1.32-2.6-1.96-4.07
		c-0.47-1.08-0.9-2.29-1.38-3.78c-1.93-6.13-2.42-12.57-2.93-19.39l-0.09-1.24l-0.02-0.29C59.32,138.79,58.46,127.1,50.34,127.1
		L50.34,127.1z"/>
</g>
<g>
	<path style="fill-rule:evenodd;clip-rule:evenodd;fill:#FFFFFF;" d="M149.71,113.19c-6.85,8.5-20.36,14.26-36.14,15.45
		c-39.07,2.87-59.36-8.73-62.03-35.51c-0.36-3.79-1.68-23.32,9.78-36.86c6.88-8.14,17.16-12.72,30.5-13.6
		c45.89-3.13,49.51,30.83,49.64,32.28c0.07,0.82,0.66,1.52,1.45,1.75c0.43,0.1,10.31,2.93,12.09,15.61
		C156.17,100.37,154.35,107.42,149.71,113.19z"/>
	<path d="M158.93,91.74c-1.78-12.58-10.38-17.13-13.7-18.45c-1.02-6.56-7.84-34.79-47.53-34.79c-1.94,0-3.99,0.07-6.13,0.2
		c-14.46,0.99-25.66,6.03-33.24,14.99C46.14,68.12,47.06,87.82,47.62,93.52c2.64,26.52,20.56,39.5,54.68,39.5
		c3.69,0,7.54-0.16,11.56-0.46c17.1-1.25,31.26-7.41,38.94-16.9C158.14,109,160.22,100.96,158.93,91.74z M51.54,93.12
		c-0.36-3.79-1.68-23.32,9.78-36.86c6.88-8.14,17.16-12.72,30.5-13.6c45.89-3.13,49.51,30.83,49.64,32.28
		c0.07,0.82,0.66,1.52,1.45,1.75c0.43,0.1,10.31,2.93,12.09,15.61c1.15,8.07-0.66,15.12-5.3,20.88
		c-6.85,8.5-20.36,14.26-36.14,15.45C74.5,131.5,54.21,119.91,51.54,93.12z"/>
	<path style="fill-rule:evenodd;clip-rule:evenodd;fill:#FFBEB8;" d="M109.22,96.76c0.19,8.07-5.86,14.77-13.52,14.95
		s-14.03-6.21-14.22-14.28C81.29,89.36,87.34,82.67,95,82.48S109.03,88.69,109.22,96.76"/>
	<path style="fill-rule:evenodd;clip-rule:evenodd;fill:#FFBEB8;" d="M154.27,90.37c-0.69-2.74-3.94-11.93-8.41-8.63
		c-6.03,4.45-3.24,15.77-0.25,21.39c1.18,2.21,3.3,4.8,6.27,4.24c1.68-0.31,2.3-3.49,2.52-4.58
		C155.24,98.72,155.29,94.43,154.27,90.37z"/>
</g>
<g>
	<path style="fill-rule:evenodd;clip-rule:evenodd;" d="M133.02,89.4c0.03,1.05-1.06,1.93-2.45,1.96c-1.39,0.03-2.53-0.79-2.55-1.84
		c-0.03-1.04,1.07-1.93,2.46-1.96C131.87,87.53,133,88.36,133.02,89.4"/>
	<path style="fill-rule:evenodd;clip-rule:evenodd;" d="M136.51,87.05L136.51,87.05c-1.44,0.03-2.64-1.35-2.68-3.09l-0.01-0.44
		c-0.04-1.74,1.09-3.19,2.53-3.22c1.44-0.03,2.64,1.35,2.69,3.09l0.01,0.44C139.09,85.57,137.95,87.01,136.51,87.05"/>
	<path style="fill-rule:evenodd;clip-rule:evenodd;" d="M114.19,87.59L114.19,87.59c-1.69,0.04-3.1-1.34-3.14-3.08l-0.01-0.44
		c-0.04-1.74,1.3-3.19,2.99-3.23s3.1,1.34,3.15,3.08l0.01,0.44C117.23,86.1,115.89,87.55,114.19,87.59"/>
	<path style="fill:#231815;" d="M141.75,93.41c-0.47-0.78-1.49-1.02-2.26-0.54c-0.78,0.48-1.02,1.49-0.54,2.26
		c0.06,0.1,0.19,0.31-0.37,0.98c-1.15,1.37-2.65,1.55-3.53,1.51c-1.56-0.05-3.05-0.8-3.89-1.95c-0.06-0.08-0.14-0.12-0.2-0.19
		c-0.07-0.07-0.12-0.15-0.2-0.2c-0.01-0.01-0.03-0.01-0.04-0.02c-0.11-0.07-0.22-0.1-0.34-0.14c-0.09-0.03-0.16-0.08-0.25-0.09
		c-0.11-0.02-0.22-0.01-0.33,0c-0.1,0-0.2-0.01-0.3,0.01c-0.09,0.02-0.18,0.07-0.27,0.11c-0.11,0.04-0.22,0.08-0.32,0.15
		c-0.01,0.01-0.03,0.01-0.04,0.02c-0.08,0.06-0.13,0.15-0.2,0.22c-0.06,0.06-0.14,0.11-0.19,0.19c-2.35,3.44-8.83,4.26-12.85,1.61
		c-0.93-0.61-1.47-1.15-1.69-1.44c0.3-0.64,0.17-1.42-0.38-1.92c-0.67-0.61-1.71-0.56-2.33,0.11c-0.53,0.58-0.77,1.32-0.67,2.09
		c0.16,1.28,1.25,2.6,3.26,3.91c2.19,1.44,4.82,2.12,7.41,2.12c3.28,0,6.44-1.14,8.62-3.19c1.4,1.15,3.2,1.84,5.1,1.91
		c0.09,0,0.18,0,0.28,0c2.32,0,4.45-0.97,5.89-2.69C142.91,96.07,142.29,94.28,141.75,93.41z"/>
</g>
</svg>
