<?xml version="1.0" encoding="utf-8"?>
<!-- Generator: Adobe Illustrator 26.5.0, SVG Export Plug-In . SVG Version: 6.00 Build 0)  -->
<svg version="1.1" id="레이어_5" xmlns="http://www.w3.org/2000/svg" xmlns:xlink="http://www.w3.org/1999/xlink" x="0px"
	 y="0px" viewBox="0 0 390 390" style="enable-background:new 0 0 390 390;" xml:space="preserve">
<g>
	<g>
		<g id="XMLID_170_">
			<g>
				<g>
					<path style="fill:#00A2FC;" d="M214.9,305.8c-0.3-1.4-0.7-2.8-1.1-4.2c-2.1-7.7-4.4-16.5,2.9-20c1.9-0.9,4.5-1.5,7.3-1.5
						c6.2,0,12.5,2.6,12.7,8.6c0.8,19.7,6.7,36,12,50.3c2.3,6.4,4.5,12.4,6,18.1c1,2.5,2,4.7,2.8,6.7c3,6.9,4.9,11.1,2.5,15.3
						c-2.4,4.2-10.6,6.4-13.7,6.9c-2.8,0.5-5.6,0.7-9.3,0.7c-1.6,0-3.2-0.1-4.9-0.1c-1,0-2-0.1-3-0.1c-13.2-0.2-21.3-2.3-24-6.1
						c-2.2-3.1-2.9-7.6-2-12.8c1-5.8,3.9-11.2,7.1-13.4c3.2-2.3,9.6-6,15.9-6c0.7,0,1.5,0.1,2.1,0.2c-1.6-3.9-2.2-6.4-3.2-9.8
						l-0.2-0.7l-0.6-1.7C221,325.9,217,314.3,214.9,305.8z"/>
					<path d="M237.1,388.3c-1.1,0-2.2,0-3.2,0c-0.5,0-1.1,0-1.6,0c-1,0-2-0.1-3-0.1c-14-0.2-22.3-2.4-25.3-6.8
						c-2.4-3.4-3.2-8.4-2.2-14c1.1-6.3,4.2-11.9,7.8-14.5c3.3-2.3,9.9-6.2,16.5-6.3c-0.9-2.6-1.5-4.7-2.2-7.2l-0.3-1.1l-0.6-1.6
						c-3.4-9.7-7.6-21.7-9.6-30.5l0,0c-0.2-1-0.5-1.9-0.7-2.9c-0.1-0.4-0.2-0.8-0.3-1.3c-2.1-7.9-4.8-17.7,3.8-21.9
						c2.2-1,5-1.6,8-1.6c6.9,0,14,3.1,14.3,10.1c0.8,19.5,6.7,35.6,11.9,49.8c2.5,6.9,4.6,12.6,6.1,18.2c0.9,2.2,1.7,4.2,2.5,5.9
						l0.3,0.6c3.1,7.1,5.2,11.8,2.4,16.7c-3.2,5.7-14.3,7.6-14.8,7.7C243.9,388.1,240.9,388.3,237.1,388.3z M229.3,384.9
						c1,0,2,0,3,0.1c0.5,0,1.1,0,1.6,0c1.1,0,2.1,0,3.2,0c3.6,0,6.4-0.2,9-0.7c3.9-0.7,10.7-2.9,12.5-6.1c1.9-3.4,0.6-6.7-2.6-13.9
						l-0.3-0.6c-0.8-1.8-1.7-3.8-2.6-6.1l-0.1-0.2c-1.5-5.4-3.5-11.1-6-18c-5.3-14.4-11.2-30.8-12.1-50.8c-0.2-4.9-5.7-7-11.1-7
						c-2.5,0-4.8,0.5-6.6,1.3c-5.7,2.8-4.4,9.3-2.1,18.2c0.1,0.4,0.2,0.9,0.3,1.3c0.3,1,0.5,2,0.7,3c2.1,8.6,6.2,20.6,9.6,30.2
						l0.6,1.8l0.3,1.2c0.9,3.2,1.5,5.5,3,9.2l1,2.6l-2.8-0.4c-0.6-0.1-1.2-0.1-1.9-0.1c-5.9,0-11.9,3.6-14.9,5.8
						c-2.9,2-5.5,7.1-6.5,12.4c-0.8,4.8-0.2,8.9,1.7,11.6C208.3,381.9,213.5,384.7,229.3,384.9C229.3,384.9,229.3,384.9,229.3,384.9
						z"/>
				</g>
			</g>
		</g>
		<g id="XMLID_169_">
			<g>
				<path d="M257,364c3,6.7,4.7,10.8,2.5,14.7c-2.2,4-10.3,6.1-13.2,6.6c-3.1,0.5-6.1,0.7-9.2,0.7c-1.6,0-3.2,0-4.9-0.1
					c-1,0-2-0.1-3-0.1c-13-0.2-20.9-2.2-23.5-5.8c-2.1-2.9-2.7-7.3-1.8-12.3c1-5.6,3.7-10.9,6.9-13.1c3.3-2.3,11.5-7.3,18.7-5.6
					c-1.9-4.5-2.6-7.1-3.6-10.8l-0.2-0.8l-0.6-1.6c-1.4-4.2-3-8.5-4.4-12.8c0.1,0.1,0.2,0.2,0.3,0.3c0,0,0.5,0.3,1.4,0.6
					c1.3,3.9,2.7,7.8,4,11.5l0.6,1.7l0.2,0.8c1.1,4,1.8,6.6,4,11.8c0,0,0,0.1,0,0.1l0.1,0.2c0.1,0.3,0,0.5-0.2,0.7
					c-0.2,0.2-0.5,0.2-0.7,0.1c-1.3-0.5-2.7-0.7-4.1-0.7c-5.8,0-12,3.8-14.7,5.7c-2.9,2-5.4,6.9-6.3,12.2c-0.8,4.6-0.3,8.7,1.6,11.3
					c1.6,2.3,6.8,5,22.4,5.3c1,0,2,0.1,3,0.1c4.7,0.1,9.1,0.2,13.8-0.6c4.1-0.7,10.6-3,12.3-5.9c1.9-3.4,0.3-7-2.6-13.5
					c-0.9-2-1.9-4.2-2.9-6.8c0,0,0-0.1,0-0.1c-1.5-5.7-3.7-11.7-6-18c-2.2-6.1-4.6-12.6-6.6-19.5c0.3-0.2,0.5-0.4,0.8-0.6
					c0.2-0.2,0.3-0.5,0.2-0.7c2.1,7.2,4.6,14,6.9,20.4c2.3,6.4,4.5,12.4,6,18.1C255.2,359.8,256.2,362,257,364z"/>
				<path d="M240.1,319.5c-0.1-0.2-0.2-0.4-0.2-0.7c0.1-0.1,0.2-0.2,0.3-0.3c0.3-0.2,0.7-0.2,0.9,0.1c0.1,0.1,0.1,0.1,0.1,0.2
					c0.1,0.3,0.1,0.5-0.2,0.7c-0.3,0.2-0.5,0.4-0.8,0.6C240.2,320,240.1,319.7,240.1,319.5z"/>
				<path d="M236.1,288.7c0.4,11,2.5,21,5.1,30.2c0-0.1-0.1-0.2-0.1-0.2c-0.2-0.3-0.6-0.3-0.9-0.1c-0.1,0.1-0.2,0.2-0.3,0.3
					c-2.6-9.1-4.6-19.1-5.1-30.1c-0.1-2.1-1.2-3.7-3.2-4.9c-4.1-2.4-10.5-2.2-14-0.5c-5.9,2.9-3.9,10.1-1.9,17.8
					c0.4,1.4,0.8,2.9,1.1,4.3c1.1,4.9,3,10.8,5,16.9c-0.1-0.1-0.2-0.1-0.2-0.1c-0.3-0.2-0.7-0.1-0.9,0.3c-0.1,0.1-0.1,0.3-0.1,0.4
					c-2.1-6.2-3.9-12.3-5.1-17.2c-0.3-1.4-0.7-2.9-1.1-4.3c-2.1-7.8-4.3-16,2.6-19.3c3.8-1.8,10.7-2.1,15.2,0.6
					C234.7,284.1,236,286.2,236.1,288.7z"/>
				<path d="M240.1,319.5c0.1,0.2,0.1,0.5,0.2,0.7c-4.8,3.7-9.3,4.5-12.5,4.5c-0.2,0-0.4,0-0.6,0c-2.1-0.1-3.7-0.5-4.8-0.8
					c-0.1-0.3-0.2-0.5-0.3-0.8C224.6,324,232,325.9,240.1,319.5z"/>
				<path d="M239.9,318.8c0.1,0.2,0.1,0.5,0.2,0.7c-8.1,6.4-15.5,4.5-17.9,3.6c-0.1-0.3-0.2-0.6-0.3-0.8
					C223.4,322.9,231.2,325.8,239.9,318.8z"/>
				<path d="M222.2,323.1c0.1,0.3,0.2,0.5,0.3,0.8c-0.9-0.3-1.3-0.5-1.4-0.6c-0.1-0.1-0.2-0.2-0.3-0.3c0-0.1-0.1-0.2-0.1-0.2
					c0-0.1,0-0.3,0.1-0.4c0.2-0.3,0.6-0.5,0.9-0.3c0,0,0.1,0.1,0.2,0.1C222,322.5,222.1,322.8,222.2,323.1z"/>
			</g>
			<g>
			</g>
		</g>
		<g>
			<path style="fill:#242424;" d="M214.9,305.8c0,0,8,34.5,10.8,42.1c0,0,11.6,7,26.9,0c0,0-12-33.1-12-48.9"/>
			<path d="M238.8,352.6c-8.2,0-13.6-3.2-13.9-3.4c-0.3-0.2-0.6-0.5-0.7-0.8c-2.8-7.6-10.5-40.8-10.8-42.2c-0.2-0.9,0.3-1.7,1.2-1.9
				c0.9-0.2,1.7,0.3,1.9,1.2c0.1,0.3,7.6,32.9,10.5,41.3c1,0.5,3.4,1.6,6.8,2.2c5.6,1,11.2,0.3,16.8-1.9c-2.3-6.6-11.6-33.8-11.6-48
				c0-0.9,0.7-1.6,1.6-1.6c0,0,0,0,0,0c0.9,0,1.6,0.7,1.6,1.6c0,15.3,11.8,48,11.9,48.3c0.3,0.8-0.1,1.7-0.8,2
				C247.9,351.7,243,352.6,238.8,352.6z"/>
		</g>
	</g>
	<g>
		<g>
			<path style="fill-rule:evenodd;clip-rule:evenodd;fill:#00A2FC;" d="M181.7,269.9c0.7-3.3-6.9-10.9-10.2-11.6
				c-3.3-0.7-6.6,4.6-7.3,8L153.7,317l0,0c0,0,0,0,0,0l-5.5,23.4c0,0-5.9-6-17.7-3.7c-7.9,1.7-14.8,7-18.5,14.2
				c-2,3.9-2.8,11,0.3,14.5c4.5,5.2,11.9,4.4,18.1,4.4h19.4h4.5c3.6,0,9.3-2.9,9.3-6.5l1.3-14.4l6.5-28.3c0,0,0,0,0,0l0,0
				L181.7,269.9z"/>
			<path d="M170.8,258.2c0.2,0,0.4,0,0.6,0.1c3.3,0.7,10.9,8.2,10.2,11.6l-10.4,50.7l0,0c0,0,0,0,0,0l-6.5,28.3l-1.3,14.4
				c0,3.6-5.7,6.5-9.3,6.5h-4.5h-19.4c-1.5,0-3.1,0.1-4.7,0.1c-4.9,0-9.9-0.5-13.4-4.4c-3.1-3.6-2.2-10.7-0.3-14.5
				c3.6-7.2,10.6-12.5,18.5-14.2c1.9-0.4,3.6-0.5,5.2-0.5c8.3,0,12.5,4.3,12.5,4.3l5.5-23.4c0,0,0,0,0,0l0,0l10.4-50.7
				C164.8,263.1,167.7,258.2,170.8,258.2 M170.8,255c-2.5,0-4.8,1.4-6.9,4.1c-1.4,1.9-2.6,4.4-3,6.5l-10.4,50.6l-4.4,18.9
				c-2.5-1.2-5.9-2.3-10.4-2.3c-1.9,0-3.8,0.2-5.8,0.6l0,0l0,0c-8.9,1.9-16.6,7.8-20.7,15.9c-2.3,4.5-3.6,13.2,0.7,18.1
				c4.2,4.8,10.1,5.5,15.8,5.5c0.8,0,1.7,0,2.5,0c0.8,0,1.5,0,2.2,0h19.4h4.5c4.9,0,12.3-3.8,12.5-9.5l1.2-14l6-26.2l0,0l0.4-1.8
				l0-0.1l0.9-3.9h-0.1l9.6-46.8c0.7-3.3-2-7.1-4.4-9.6c-1.1-1.2-4.9-5.1-8.3-5.8C171.7,255.1,171.3,255,170.8,255L170.8,255z"/>
		</g>
		<g>
			<g>
				<g>
					<path style="fill:#FFFFFF;" d="M171.4,258.3c3.3,0.7,10.9,8.2,10.2,11.6l-10.4,50.7l-9.3,2.2l-8.3-5.8l10.4-50.7
						C164.8,262.9,168.1,257.6,171.4,258.3"/>
				</g>
			</g>
			<g>
				<g>
					<path style="fill-rule:evenodd;clip-rule:evenodd;fill:#0098F3;" d="M164.8,348.9l-1.3,14.4c0,3.6-5.7,6.5-9.3,6.5h-4.5h-19.4
						c-6.1,0-13.5,0.9-18.1-4.4c-3.1-3.6-2.2-10.7-0.3-14.5c3.6-7.2,10.6-12.5,18.5-14.2c0,0-0.1,0,0,0c11.8-2.3,17.7,3.7,17.7,3.7
						l5.5-23.4c0,0,4.6,2.1,8,2.9c3.4,0.7,9.5,0.7,9.5,0.7L164.8,348.9z"/>
				</g>
			</g>
		</g>
		<g>
			<path style="fill:#242424;" d="M154.8,297.9l-8.7,38.3c0,0,9.9,11,21.7,12.3l10.5-45.4"/>
			<path d="M167.7,350.1c-0.1,0-0.1,0-0.2,0c-12.3-1.3-22.3-12.3-22.7-12.8c-0.3-0.4-0.5-0.9-0.4-1.4l8.7-38.3
				c0.2-0.9,1.1-1.4,1.9-1.2c0.9,0.2,1.4,1.1,1.2,1.9l-8.6,37.5c2.1,2.1,9.8,9.4,18.7,11l10.2-43.9c0.2-0.9,1.1-1.4,1.9-1.2
				c0.9,0.2,1.4,1.1,1.2,1.9l-10.5,45.4C169.1,349.6,168.5,350.1,167.7,350.1z"/>
		</g>
	</g>
	<g>
		<g>
			<g>
				<g>
					<g>
						<g>
							<path style="fill:#FFFFFF;" d="M168.7,9.3c5,3,8.7,8.5,10.7,13.6c4.4,11.1,0.7,18.6-4.5,20.9c-4.7,2.1-8.3-1.5-11.4-5.9
								c-6.8-9.9-12-4.7-19.7,0.9c-6.2,4.6-14.8,3.2-19.2-3.1c-4.4-6.3-3.1-15.1,3.1-19.8c5.3-4,11.2-7.4,17.5-9.4
								C154,3.7,160.8,4.6,168.7,9.3z"/>
							<path d="M154.5,4.9c4.8,0,9.3,1.5,14.2,4.4c5,3,8.7,8.5,10.7,13.6c4.4,11.1,0.7,18.6-4.5,20.9c-0.9,0.4-1.9,0.6-2.7,0.6
								c-3.4,0-6.2-3-8.6-6.5c-2.8-4-5.3-5.6-7.8-5.6c-3.7,0-7.3,3.2-11.9,6.5c-2.5,1.8-5.3,2.7-8.1,2.7c-4.3,0-8.4-2-11.1-5.8
								c-4.4-6.3-3.1-15.1,3.1-19.8c5.3-4,11.2-7.4,17.5-9.4C148.5,5.5,151.6,4.9,154.5,4.9 M154.5,1.7v3.2V1.7
								C154.5,1.7,154.5,1.7,154.5,1.7c-3.2,0-6.6,0.6-10.3,1.8c-6.2,2-12.4,5.4-18.5,9.9c-7.5,5.6-9.1,16.5-3.7,24.2
								c3.2,4.5,8.3,7.2,13.7,7.2c3.6,0,7.1-1.2,10-3.3c0.6-0.4,1.1-0.8,1.7-1.2c3.3-2.5,6.2-4.6,8.3-4.6c0.6,0,2.3,0,5.2,4.2
								c2.3,3.4,6,7.9,11.3,7.9c1.3,0,2.7-0.3,4-0.9c6.6-3,11.3-12,6.2-25c-2.6-6.6-7-12.2-12-15.1C164.8,3.3,159.7,1.7,154.5,1.7
								L154.5,1.7z"/>
						</g>
					</g>
				</g>
			</g>
		</g>
		<g>
			<path style="fill:#6E2E00;" d="M147.5,30c-1-0.5-2.1-0.5-3.1-0.4c1.3-0.5,2.4-1.5,3.1-2.9c1.3-2.8,0.1-6.2-2.6-7.5
				c-1.3-0.6-2.7-0.6-3.9-0.2c1.1-0.5,2.1-1.4,2.7-2.7c1.3-2.8,0.1-6.2-2.6-7.5c-0.2-0.1-0.5-0.1-0.8-0.2
				c-6.7,3.1-11.5,6.6-12.5,7.4c-6.1,4.6-7.5,13.4-3,19.8c4.4,6.3,13,7.7,19.2,3.1c1.8-1.3,4.2-2.8,6.7-4
				C150.4,32.8,149.4,30.9,147.5,30"/>
		</g>
	</g>
	<path style="fill-rule:evenodd;clip-rule:evenodd;fill:#00A2FC;" d="M269.3,197.5c-1.5-3.9-2.9-7.8-4.2-11.7
		c-0.9-2.9-2.2-10.6-1.4-13.8c1.4-5.5,5.3-11.1,7.5-16.4c7.4-17.9,9.6-37,6.4-56.3c-2.6-16-9.5-33.7-21.7-44.7
		c-15.7-14.1-36.6-25.4-57.6-26.6c0,0-0.2,0-0.4,0l-6.7-0.4c-21-1.3-43.1,7.4-60.3,19.6c-13.4,9.5-22.3,26.2-26.8,41.8
		c-2.7,9.5-4.1,18.7-4.2,27.9c-2.2,2-4.7,4.4-5.3,5.3c-4.8,8.2-6,17.5-3.3,26.8c3.2,11.1,11.7,20.8,23.2,26.7
		c2.5,1.3,5.1,2.4,7.8,3.5c1.6,10.3-3.7,22.6-5.3,32.6c-3.1,19.1-2,42.3,7.7,59.5c14.8,26.4,37.5,32.9,62.7,35
		c26.4,2.2,54.1-1.1,73.2-21.1c10.9-11.4,16.8-26.6,19.3-42C282.5,226.4,275.1,212.8,269.3,197.5z"/>
	<path style="fill:#242424;" d="M115.8,249.7c0,0,38.6,18.9,92.8,15.2c0,0,51.7-0.8,69.8-15.8c0,0-4,53.9-69.8,59.4
		c0,0-69.4,5-87.4-39.8C121.3,268.6,115.1,251.1,115.8,249.7z"/>
	<path d="M187,27.5c1.4,0,2.8,0,4.2,0.1L198,28c0.2,0,0.4,0,0.4,0c21,1.2,41.9,12.5,57.6,26.6c12.2,11,19.1,28.7,21.7,44.7
		c3.2,19.3,1,38.5-6.4,56.3c-2.2,5.3-6,10.9-7.5,16.4c-0.8,3.2,0.5,10.8,1.4,13.8c1.2,3.9,2.7,7.8,4.2,11.7
		c5.8,15.3,13.2,28.9,10.5,45.7c-2.5,15.4-8.4,30.6-19.3,42c-15.9,16.7-37.6,21.7-59.7,21.7c-4.5,0-9-0.2-13.5-0.6
		c-25.2-2.1-47.8-8.6-62.7-35c-9.7-17.2-10.8-40.4-7.7-59.5c1.6-10,6.9-22.3,5.3-32.6c-2.7-1.1-5.3-2.3-7.8-3.5
		c-11.5-5.9-19.9-15.6-23.2-26.7c-2.7-9.3-1.6-18.5,3.3-26.8c0.6-0.9,3.1-3.4,5.3-5.3c0.1-9.2,1.5-18.5,4.2-27.9
		c4.5-15.5,13.4-32.3,26.8-41.8C147,35.9,167.4,27.5,187,27.5 M187,24.3c-18.6,0-39.7,7.4-58,20.3c-12.3,8.7-22.6,24.6-28.1,43.5
		c-2.7,9.2-4.1,18.2-4.3,27.4c-4,3.7-4.6,4.7-4.9,5.1c-5.3,9-6.5,19.2-3.6,29.3c3.5,11.9,12.5,22.4,24.8,28.6c1.9,1,3.9,1.9,6.2,2.9
		c0.4,5.9-1.3,12.6-3,19.2c-1,3.7-1.9,7.3-2.4,10.7c-1.8,11.1-4.5,39.2,8.1,61.6c7.2,12.9,16.7,22,28.8,27.9
		c9.7,4.7,21,7.4,36.4,8.7c4.8,0.4,9.4,0.6,13.7,0.6c12.6,0,23.4-1.6,33.2-4.8c11.3-3.7,21.1-9.8,28.8-17.9
		c10.3-10.8,17.3-25.9,20.1-43.7c2.4-14.9-2.5-27.1-7.7-40c-1-2.4-2-4.9-2.9-7.4c-1.4-3.7-2.9-7.7-4.1-11.5c-0.9-2.9-1.9-9.8-1.4-12
		c0.8-3,2.5-6.3,4.2-9.4c1.1-2.1,2.3-4.4,3.2-6.5c7.7-18.5,9.9-38.1,6.6-58.1c-3.2-19.5-11.5-36.4-22.7-46.5
		C240,36,218.3,26,198.5,24.9l-0.4,0l0,0l0,0l-6.7-0.4C190,24.4,188.5,24.3,187,24.3L187,24.3z"/>
	<g>
		
			<path style="fill-rule:evenodd;clip-rule:evenodd;fill:#FFFFFF;stroke:#251814;stroke-width:4.1021;stroke-linecap:round;stroke-linejoin:round;stroke-miterlimit:10;" d="
			M193.1,35.7"/>
	</g>
	<path style="fill:#FFFFFF;" d="M115.1,182.8c0,0,44.2,30.5,150,3c0,0,19.2,31.7,13.4,63.2c0,0-44.3,24.3-102.4,15.8
		c0,0-47.9-6-60.3-15.1c0,0-4.5-23.1-2.1-38.4L115.1,182.8z"/>
	<path d="M186.1,198.8c-12.2,0-22.4-1-30.6-2.2c-24-3.7-35.7-10.7-36.2-11c-0.8-0.5-1-1.4-0.5-2.2c0.5-0.8,1.4-1,2.2-0.5l0,0
		c0.1,0.1,11.8,7,35.3,10.6c21.7,3.3,58.1,4.4,108.4-9.2c0.9-0.2,1.7,0.3,2,1.1c0.2,0.9-0.3,1.7-1.1,2
		C233.4,196.1,206.9,198.8,186.1,198.8z"/>
	<path d="M191,266.9c-9.5,0-18.2-0.7-25.8-1.7c-30.1-4.1-49.8-13.9-50-14c-0.8-0.4-1.1-1.4-0.7-2.2c0.4-0.8,1.4-1.1,2.2-0.7
		c0.2,0.1,19.6,9.7,49.2,13.7c27.3,3.7,69.1,3.1,113.3-20.2c0.8-0.4,1.8-0.1,2.2,0.7c0.4,0.8,0.1,1.8-0.7,2.2
		C247.8,261.9,216.4,266.9,191,266.9z"/>
	<g>
		<g>
			<g>
				<g>
					<g>
						<path style="fill:#FFFFFF;" d="M281.6,37.7c-4.3-6.4-9.5-12.3-15.6-16.8c-5.8-4.3-11.3-6.3-17.4-6.3c-2.8,0-5.8,0.4-9,1.2
							c-6.5,1.6-12.4,6.6-16.4,11.6c-8.7,11-9,14.6-3.7,19.4c4,3.7,6.6,5.3,8.9,5.3c1.8,0,3.4-1,5.6-2.7c3.3-2.7,6-3.8,8.4-3.8
							c5.6,0,9.4,6,13.8,12.3c3,4.3,7.6,6.6,12.3,6.6c3.3,0,6.7-1.1,9.6-3.4C284.9,55.6,286.6,45.1,281.6,37.7z"/>
						<path d="M248.5,14.6c6.2,0,11.6,2,17.4,6.3c6.1,4.5,11.3,10.4,15.6,16.8c5,7.4,3.3,17.9-3.7,23.5c-2.9,2.3-6.3,3.4-9.6,3.4
							c-4.7,0-9.4-2.3-12.3-6.6c-4.4-6.4-8.2-12.3-13.8-12.3c-2.4,0-5.1,1.1-8.4,3.8c-2.1,1.7-3.8,2.7-5.6,2.7
							c-2.3,0-4.8-1.6-8.9-5.3c-5.3-4.9-5-8.4,3.7-19.4c4-5.1,9.9-10,16.4-11.6C242.7,15,245.6,14.6,248.5,14.6 M248.5,11.3
							c-3,0-6.3,0.4-9.8,1.3c-9.1,2.3-15.7,9.7-18.2,12.8c-8.5,10.8-11,16.8-3.3,23.8c4.1,3.8,7.4,6.1,11,6.1c3,0,5.4-1.6,7.6-3.4
							c2.5-2,4.6-3,6.4-3c3.6,0,6.7,4.6,10.4,9.9l0.7,1.1c3.5,5.1,9,8,15,8c4.2,0,8.2-1.4,11.6-4.1c4-3.2,6.7-7.9,7.6-13.1
							c0.8-5.2-0.3-10.5-3.2-14.7c-4.9-7.2-10.4-13.2-16.4-17.6C261.4,13.6,255.3,11.3,248.5,11.3L248.5,11.3z"/>
					</g>
				</g>
				<g>
					<path style="fill:#6E2E00;" d="M255.1,46.7c1.3-0.2,2.4,0.1,3.5,0.7c-1.2-1-2.1-2.6-2.3-4.4c-0.4-3.7,2.1-7.1,5.5-7.6
						c1.6-0.2,3.1,0.2,4.3,1.1c-1-1-1.8-2.4-2-4c-0.4-3.7,2.1-7.1,5.5-7.6c0.3-0.1,0.6,0,0.9,0c6.1,5.9,10.1,11.5,11,12.8
						c5,7.4,3.3,17.9-3.7,23.5c-7,5.6-16.9,4.2-21.9-3.2c-1.5-2.2-3.6-4.6-5.9-6.9C250.9,48.8,252.7,47.1,255.1,46.7"/>
				</g>
			</g>
		</g>
	</g>
	<g>
		<g>
			<g>
				<path style="fill-rule:evenodd;clip-rule:evenodd;fill:#FFFFFF;" d="M167.9,189.1c-17.3-0.2-37.3-5.2-53.4-13.4
					c-11.5-5.9-19.9-15.6-23.2-26.7c-2.7-9.3-1.6-18.5,3.3-26.8c0.8-1.3,5.5-5.6,7.6-7.4c0.4-3.2,2.6-18.5,5.7-26.9
					c3.4-9.2,12.3-19.1,22.2-24.6c11.1-6.1,22.7-9.1,35.3-9.1c9.8,0,20.4,1.8,32.2,5.6c21.5,6.9,37,23.8,41.6,45.4
					c1.2,5.8,2.6,12.7,3.3,19.5c1.2,11.9-0.3,28.6-8.1,39.8c-14.4,20.6-32.9,24.5-62,24.5C172.3,189.1,169.4,189.1,167.9,189.1z"/>
			</g>
		</g>
		<g>
			<path style="fill-rule:evenodd;clip-rule:evenodd;fill:#FFB4B2;" d="M164.9,155.2c-2.1,11.6,5.9,22.7,17.9,24.9
				c12,2.2,23.4-5.4,25.5-17c2.1-11.6-5.9-22.7-17.9-24.8C178.5,136,167,143.6,164.9,155.2"/>
		</g>
		<g>
			<path style="fill-rule:evenodd;clip-rule:evenodd;fill:#DD3A42;" d="M147.2,162.5c-1,4.1-2.2,7.9-12,5
				c-10.9-2.2-10.7-7.2-10.5-10.9"/>
			<path d="M141,170.2c-1.7,0-3.8-0.4-6.2-1.1c-11.4-2.3-12-7.7-11.6-12.5c0.1-0.9,0.8-1.5,1.7-1.5c0.9,0.1,1.5,0.8,1.5,1.7
				c-0.3,3.4-0.5,7.2,9.2,9.2c3.9,1.1,6.5,1.3,8,0.4c1.3-0.7,1.7-2.3,2.2-4.3c0.2-0.9,1.1-1.4,1.9-1.2c0.9,0.2,1.4,1.1,1.2,1.9
				c-0.6,2.5-1.3,4.9-3.7,6.3C144,169.8,142.6,170.2,141,170.2z"/>
		</g>
		<g>
			<path style="fill-rule:evenodd;clip-rule:evenodd;fill:#FFFFFF;" d="M141.7,161.6l-0.2,0.7c-0.2,0.6-0.8,1-1.5,0.8l-11-2.7
				c-0.7-0.2-1.1-0.8-1-1.4l0.1-0.5c0.1-0.5,0.7-0.9,1.3-0.8c1.7,0.1,2.3-0.4,4-1.1c0.5-0.2,1.1-0.1,1.5,0.2c1,0.9,3,2.5,5.9,3.5
				C141.5,160.4,141.8,161,141.7,161.6z"/>
		</g>
		<g>
			<path style="fill-rule:evenodd;clip-rule:evenodd;fill:#FFB4B2;" d="M89.8,137.5c-0.7,11.9,5.5,21.9,6.4,22
				c4.8,0.9,8.9-8.1,9.3-19.3c0.4-11.2-5.3-22.8-8.7-19.8C93.9,123,90.9,128.2,89.8,137.5"/>
		</g>
		<g>
			<g>
				<g>
					<g>
						<path style="fill-rule:evenodd;clip-rule:evenodd;" d="M120,135.2L120,135.2c2.4,0.2,4.5-1.5,4.7-3.8l0-0.6
							c0.2-2.3-1.7-4.4-4.1-4.6c-2.4-0.2-4.5,1.5-4.7,3.8l0,0.6C115.7,132.9,117.5,135,120,135.2"/>
					</g>
					<g>
						<path style="fill-rule:evenodd;clip-rule:evenodd;" d="M159.1,142.8L159.1,142.8c2.7-0.4,4.6-2.7,4.3-5.1l-0.1-0.6
							c-0.4-2.4-2.9-4.1-5.7-3.7c-2.7,0.4-4.6,2.7-4.3,5.1l0.1,0.6C153.9,141.6,156.4,143.2,159.1,142.8"/>
					</g>
				</g>
			</g>
		</g>
		<g>
			<path style="fill-rule:evenodd;clip-rule:evenodd;" d="M127.5,143.3c-0.1,1.6,1.5,3,3.8,3.3s4.2-0.9,4.3-2.5
				c0.1-1.6-1.6-3-3.8-3.3S127.7,141.7,127.5,143.3"/>
		</g>
		<path d="M151.1,164.2c-0.1,0-0.2,0-0.3,0c-9.8-1.9-14.4-6-16.3-8.3c-5.4,3.6-14.1,2.2-14.5,2.1c-0.9-0.1-1.5-1-1.3-1.9
			c0.1-0.9,1-1.5,1.9-1.3c0.1,0,9.3,1.5,13.1-2.4c0.4-0.4,0.9-0.5,1.4-0.5c0.5,0.1,1,0.4,1.2,0.9c0,0,3.1,5.9,15.1,8.2
			c0.9,0.2,1.4,1,1.3,1.9C152.6,163.7,151.9,164.2,151.1,164.2z"/>
	</g>
	<g>
		<g>
			<path style="fill:#242424;" d="M130.3,188.7c0,0-8.2,60.9-2.3,77.2c0,0-14-5.2-17.8-12c-3.8-6.8,1.6-56,5.7-69.7L130.3,188.7z"/>
			<path d="M128,267.5c-0.2,0-0.4,0-0.6-0.1c-0.6-0.2-14.6-5.5-18.6-12.7c-4.2-7.5,1.5-57.6,5.5-71c0.1-0.4,0.4-0.8,0.8-1
				c0.4-0.2,0.8-0.2,1.2-0.1l14.4,4.5c0.7,0.2,1.2,1,1.1,1.7c-0.1,0.6-8,60.7-2.4,76.5c0.2,0.6,0.1,1.2-0.4,1.7
				C128.8,267.4,128.4,267.5,128,267.5z M116.9,186.2c-4.3,16.5-8.5,61.3-5.4,66.9c2.5,4.4,9.8,8.2,14,10
				c-3.8-18.4,1.8-64.6,2.9-73.4L116.9,186.2z"/>
		</g>
		<g>
			<g>
				<path style="fill:#2E2E2E;" d="M104.2,169.9L104.2,169.9c-1.7,0-3.1-1.4-3.1-3.1v-22.8c0-1.7,1.4-3.1,3.1-3.1h0
					c1.7,0,3.1,1.4,3.1,3.1v22.8C107.3,168.5,105.9,169.9,104.2,169.9z"/>
				<path d="M104.2,140.8c1.7,0,3.1,1.4,3.1,3.1v22.8c0,1.7-1.4,3.1-3.1,3.1c-1.7,0-3.1-1.4-3.1-3.1v-22.8
					C101.1,142.2,102.5,140.8,104.2,140.8 M104.2,137.6c-3.5,0-6.4,2.9-6.4,6.4v22.8c0,3.5,2.9,6.4,6.4,6.4c3.5,0,6.4-2.9,6.4-6.4
					v-22.8C110.6,140.4,107.7,137.6,104.2,137.6L104.2,137.6z"/>
			</g>
			<g>
				<path style="fill:#474747;" d="M119.1,202.5h-17.8c-2.2,0-4-1.8-4-4v-30.6c0-2.2,1.8-4,4-4h17.8c2.2,0,4,1.8,4,4v30.6
					C123.1,200.7,121.3,202.5,119.1,202.5z"/>
				<path d="M117.3,163.9c3.2,0,5.8,2.6,5.8,5.8v27.1c0,3.2-2.6,5.8-5.8,5.8H103c-3.2,0-5.8-2.6-5.8-5.8v-27.1
					c0-3.2,2.6-5.8,5.8-5.8H117.3 M117.3,160.7H103c-4.9,0-9,4-9,9v27.1c0,4.9,4,9,9,9h14.3c4.9,0,9-4,9-9v-27.1
					C126.3,164.7,122.3,160.7,117.3,160.7L117.3,160.7z"/>
			</g>
		</g>
		<g>
			<path style="fill:#00A2FC;" d="M81.5,197.4c-0.5,7.1,3.9,14.8,8.1,20.1c5.4,6.8,13.6,7.4,21.5,5.1c3.4-1,6.6-3.2,8.1-6.4
				c0.7-1.7,1-3.6,0.9-5.5c0-9.4-5.7-19.4-13.1-25c-6.9-5.2-18-2.2-23,4.5C82.4,192.4,81.7,194.9,81.5,197.4z"/>
			<path d="M98.6,183c3,0,6,0.8,8.4,2.7c7.4,5.6,13.1,15.7,13.1,25c0,1.9-0.2,3.8-0.9,5.5c-1.4,3.3-4.7,5.4-8.1,6.4
				c-2.6,0.8-5.3,1.2-7.9,1.2c-5.2,0-10-1.8-13.6-6.3c-4.2-5.3-8.6-13-8.1-20.1c0.2-2.5,1-5,2.6-7.3C87.3,185.8,93.1,183,98.6,183
				 M98.6,179.8c-6.7,0-13.4,3.3-17.2,8.5c-1.9,2.6-3,5.6-3.2,9c-0.3,3.9,0.6,11.9,8.8,22.3c3.9,4.9,9.5,7.5,16.1,7.5
				c2.8,0,5.8-0.5,8.8-1.4c4.7-1.4,8.4-4.4,10.1-8.2c0.8-1.9,1.2-4.1,1.2-6.8c0-10-5.8-21.1-14.4-27.6
				C106.1,180.9,102.5,179.8,98.6,179.8L98.6,179.8z"/>
		</g>
	</g>
	<g>
		<path d="M162.1,213.7c-2.3,0-3.7-0.1-3.9-0.1c-0.5,0-1-0.3-1.2-0.7l-6-9.3l-5.4,7.4c-0.4,0.5-1.1,0.8-1.8,0.6
			c-7.9-2.4-13.4-11.6-13.6-12c-0.5-0.8-0.2-1.7,0.6-2.2c0.8-0.5,1.7-0.2,2.2,0.6c0,0.1,4.6,7.7,10.7,10.2l6.1-8.3
			c0.3-0.4,0.8-0.7,1.3-0.7c0.5,0,1,0.3,1.3,0.7l6.8,10.6c3.3,0.1,16.5,0.3,27.9-4.6c0.8-0.3,1.8,0,2.1,0.8c0.3,0.8,0,1.8-0.8,2.1
			C178.6,213,167.8,213.7,162.1,213.7z"/>
		<g>
			<path style="fill:#242424;" d="M146,207.7l5.1-7l5.2,8l-3,5.9l6.4,33.5l-8.6,7.8l-6.2-10.8l3.8-31
				C148.8,214.1,146.4,212.5,146,207.7z"/>
			<path d="M151.1,257.5c-0.1,0-0.2,0-0.3,0c-0.5-0.1-0.9-0.4-1.1-0.8l-6.2-10.8c-0.2-0.3-0.2-0.7-0.2-1l3.7-30.2
				c-1-1-2.4-3.1-2.7-7c0-0.4,0.1-0.8,0.3-1.1l5.1-7c0.3-0.4,0.8-0.7,1.3-0.7c0.5,0,1,0.3,1.3,0.7l5.2,8c0.3,0.5,0.3,1.1,0.1,1.6
				l-2.7,5.4l6.3,32.9c0.1,0.6-0.1,1.1-0.5,1.5l-8.6,7.8C151.9,257.4,151.5,257.5,151.1,257.5z M146.6,244.8l4.9,8.6l6.5-5.8
				l-6.2-32.6c-0.1-0.3,0-0.7,0.1-1l2.6-5.1l-3.4-5.3l-3.4,4.6c0.4,3.5,2,4.6,2,4.7c0.5,0.3,0.8,0.9,0.7,1.5L146.6,244.8z"/>
		</g>
	</g>
	<g>
		<g>
			<g>
				<path style="fill:#242424;" d="M267.1,168.6c0,0-38.2,20.2-54.8,22.2c-16.5,2-25.7,35.1-24.1,52.4c1.6,17.3-1.1,31.2-1.1,31.2
					s69.1-0.8,94.7-20.1c0,0-4-41.8-10.5-56.7S267.1,168.6,267.1,168.6z"/>
				<path d="M187.1,276c-0.5,0-0.9-0.2-1.2-0.6c-0.3-0.4-0.4-0.9-0.3-1.3c0-0.1,2.6-13.9,1.1-30.7c-1.6-17.7,7.8-52,25.6-54.2
					c16.1-1.9,53.8-21.8,54.2-22c0.5-0.3,1.2-0.2,1.7,0.1c0.5,0.4,0.7,1,0.6,1.6l0,0c0,0.1-2.2,13.7,4.1,28
					c6.6,15.1,10.5,55.5,10.6,57.2c0.1,0.6-0.2,1.1-0.6,1.4c-10.8,8.2-30.2,14.1-57.7,17.6C204.8,275.7,187.3,276,187.1,276
					C187.1,276,187.1,276,187.1,276z M265.2,171.4c-9,4.6-38.4,19.2-52.6,21c-3.9,0.5-11.4,3.6-17.6,19.5c-4,10.1-6,22.4-5.2,31.2
					c1.3,13.8-0.1,25.2-0.8,29.7c11.2-0.3,68.1-2.7,91.1-19.2c-0.6-6.1-4.4-42-10.3-55.4C264.9,186.9,264.9,176.4,265.2,171.4z
					 M267.1,168.6L267.1,168.6L267.1,168.6z"/>
			</g>
			<g>
				<polyline style="fill:#242424;" points="234.5,190.7 222.9,208.3 204.9,208.3 207.9,225.6 194.6,247.4 				"/>
				<path d="M194.6,249c-0.3,0-0.6-0.1-0.8-0.2c-0.8-0.5-1-1.4-0.5-2.2l13-21.3l-2.9-16.7c-0.1-0.5,0-0.9,0.4-1.3
					c0.3-0.4,0.8-0.6,1.2-0.6h17.1l11-16.8c0.5-0.7,1.5-0.9,2.2-0.5c0.7,0.5,0.9,1.5,0.5,2.2l-11.5,17.5c-0.3,0.5-0.8,0.7-1.3,0.7
					h-16.1l2.7,15.4c0.1,0.4,0,0.8-0.2,1.1L196,248.3C195.7,248.8,195.2,249,194.6,249z"/>
			</g>
		</g>
		<g>
			<g>
				<path style="fill:#00A2FC;" d="M302.7,240c-0.6-1.9-1.2-3.8-1.8-5.7c-0.7-1.9-1.4-3.7-2.1-5.6l0,0l-0.8-1.9l-0.5-1.1l0,0
					c-3.8-8.5-8.8-14.7-14.6-21.8c-5.3-6.5-14.4-14.8-22.2-20.1c-4.2-2.9-9.2-5.7-13.9-4.6c-2.7,0.6-4.5,1.9-5.6,3.9
					c-1.4,2.5-1.3,5.9,0.2,10.2c1.8,5.2,5.4,10.6,7.4,13.4c2.9,4,6.1,7.6,9.3,11.1c5.3,5.8,10.3,11.4,13.2,18.3
					c0.6,1.4,1.1,2.7,1.6,4.1l0,0c0.3,0.9,0.6,1.9,0.9,2.8c0.8,2.8,1.5,5.4,2,7.9c1.1,5.2,1.5,10.3,1.5,15.5c0,3.8-0.3,7.6-0.8,11.5
					l-0.1,0.5c-0.1,0.9-0.3,1.8-0.4,2.7c-0.6,3.3-1.1,6.6-0.1,9.9l0.2,0.5c0.3,0.9,0.7,1.6,1.1,2.3c2.6,3.9,7.9,5.8,13.7,5
					c1.4-0.2,2.9-0.6,4.4-1.1c6.9-2.5,11.9-8.7,12.9-16.2C310,267.3,306.2,251.8,302.7,240z"/>
				<path d="M248.9,178.9c4.1,0,8.2,2.4,11.8,4.9c7.7,5.3,16.9,13.5,22.2,20.1c5.8,7.1,10.8,13.3,14.6,21.8l0,0l0.5,1.1l0.8,1.9l0,0
					c0.8,1.9,1.5,3.8,2.1,5.6c0.7,1.9,1.3,3.8,1.8,5.7c3.5,11.9,7.3,27.3,5.3,41.4c-1.1,7.5-6,13.7-12.9,16.2
					c-1.5,0.5-3,0.9-4.4,1.1c-0.9,0.1-1.8,0.2-2.6,0.2c-4.7,0-8.8-1.9-11-5.2c-0.4-0.7-0.8-1.4-1.1-2.3l-0.2-0.5
					c-1-3.3-0.4-6.6,0.1-9.9c0.2-0.9,0.3-1.8,0.4-2.7l0.1-0.5c0.5-3.9,0.8-7.7,0.8-11.5c0-5.2-0.5-10.3-1.5-15.5
					c-0.5-2.6-1.2-5.2-2-7.9c-0.3-1-0.6-1.9-0.9-2.8l0,0c-0.5-1.4-1-2.8-1.6-4.1c-2.9-7-7.9-12.5-13.2-18.3
					c-3.2-3.5-6.5-7.1-9.3-11.1c-2-2.7-5.5-8.1-7.4-13.4c-1.5-4.3-1.6-7.7-0.2-10.2c1.1-1.9,3-3.2,5.6-3.9
					C247.5,179,248.2,178.9,248.9,178.9 M248.9,175.7l0,3.2L248.9,175.7c-1,0-1.9,0.1-2.9,0.3c-4.5,1-6.7,3.5-7.7,5.4
					c-1.8,3.3-1.8,7.6,0,12.8c2,5.6,5.7,11.3,7.8,14.2c3,4.2,6.3,7.9,9.6,11.4c5.1,5.6,9.9,11,12.6,17.4c0.6,1.5,1.1,2.8,1.5,4
					c0.3,0.9,0.6,1.8,0.9,2.7c0.8,2.7,1.4,5.2,1.9,7.6c1,5,1.5,9.8,1.4,14.8c0,3.7-0.3,7.3-0.8,11.1l-0.1,0.5
					c-0.1,0.8-0.3,1.7-0.4,2.6c-0.6,3.5-1.3,7.4-0.1,11.4l0,0l0,0l0.2,0.5l0,0l0,0c0.4,1.1,0.9,2.1,1.5,3c2.8,4.2,7.8,6.6,13.7,6.6
					c1,0,2.1-0.1,3.1-0.2c1.6-0.2,3.3-0.7,5-1.3c8-2.9,13.8-10.1,15-18.8c2.1-14.7-1.8-30.6-5.4-42.8c-0.6-1.9-1.2-3.9-1.9-5.9
					c-0.2-0.6-0.5-1.3-0.7-2l0.2,0l-1.6-3.8l-0.8-1.9l-0.5-1.1l-1-2.3l-0.1,0c-3.9-7.9-8.8-13.9-14-20.2
					c-5.5-6.8-14.9-15.3-22.8-20.7C258.6,178.4,253.9,175.7,248.9,175.7L248.9,175.7z"/>
			</g>
			<g>
				<g>
					<g>
						<path style="fill:#FFFFFF;" d="M296.7,228.9c-5.7,0.9-14.4,3-23.3,7.9l-1.6,0.9l-0.7-1.6c-2.9-7-7.9-12.5-13.2-18.3
							c-3.2-3.5-6.5-7.1-9.3-11.1c-2-2.7-5.5-8.1-7.4-13.4c-1.5-4.3-1.6-7.7-0.2-10.2c1.1-1.9,3-3.2,5.6-3.9
							c4.7-1.1,9.7,1.7,13.9,4.6c7.7,5.3,16.9,13.5,22.2,20.1c6,7.4,11.2,13.8,15.1,22.9l0.8,1.9L296.7,228.9z"/>
					</g>
				</g>
				<g>
					<g>
						<path style="fill:#0087CB;" d="M300.9,234.2c0.7,1.9,1.3,3.8,1.8,5.7c3.5,11.9,7.3,27.3,5.3,41.4c-1.1,7.5-6,13.7-12.9,16.2
							c-1.5,0.5-3,0.9-4.4,1.1c-5.8,0.8-11-1.1-13.7-5c-0.4-0.7-0.8-1.4-1.1-2.3l-0.2-0.5c-1-3.3-0.4-6.6,0.1-9.9
							c0.2-0.9,0.3-1.8,0.4-2.7l0.1-0.5c0.5-3.9,0.8-7.7,0.8-11.5c0-5.2-0.5-10.3-1.5-15.5c-0.5-2.6-1.2-5.2-2-7.9
							c-0.3-1-0.6-1.9-0.9-2.8l0,0c-0.5-1.4-1-2.8-1.6-4.1l-0.5-1.3l1.2-0.7c9.3-5.1,18.4-7.3,24.3-8.2l1.2-0.2l0.5,1.1
							C299,229.2,300,231.7,300.9,234.2z"/>
					</g>
				</g>
			</g>
			<g>
				<path style="fill:#242424;" d="M272.8,240.1L272.8,240.1c0.3,0.9,0.6,1.9,0.9,2.8c0.8,2.8,1.5,5.4,2,7.9c0.6,2.9,1,5.7,1.2,8.6
					c5.3,0.7,17.8,1.5,29.5-5.2c-1.1-5.1-2.4-10-3.7-14.3c-0.6-1.9-1.2-3.8-1.8-5.7c-0.7-1.9-1.4-3.7-2.1-5.6l0,0l-0.8-1.9l-0.5-1.1
					l0,0c-3.8-8.5-8.8-14.7-14.6-21.8c-5.3-6.5-14.4-14.8-22.2-20.1c-4.2-2.9-9.2-5.7-13.9-4.6c-2.7,0.6-4.5,1.9-5.6,3.9
					c-1.4,2.5-1.3,5.9,0.2,10.2c1.8,5.2,5.4,10.6,7.4,13.4c2.9,4,6.1,7.6,9.3,11.1c5.3,5.8,10.3,11.4,13.2,18.3
					C271.7,237.4,272.3,238.7,272.8,240.1z"/>
				<path d="M248.9,178.9c4.1,0,8.2,2.4,11.8,4.9c7.7,5.3,16.9,13.5,22.2,20.1c5.8,7.1,10.8,13.3,14.6,21.8l0,0l0.5,1.1l0.8,1.9l0,0
					c0.8,1.9,1.5,3.8,2.1,5.6c0.7,1.9,1.3,3.8,1.8,5.7c1.3,4.4,2.6,9.2,3.7,14.3c-8,4.6-16.3,5.7-22.5,5.7c-2.9,0-5.3-0.2-6.9-0.5
					c-0.2-2.9-0.7-5.7-1.2-8.6c-0.5-2.6-1.2-5.2-2-7.9c-0.3-1-0.6-1.9-0.9-2.8l0,0c-0.5-1.4-1-2.8-1.6-4.1
					c-2.9-7-7.9-12.5-13.2-18.3c-3.2-3.5-6.5-7.1-9.3-11.1c-2-2.7-5.5-8.1-7.4-13.4c-1.5-4.3-1.6-7.7-0.2-10.2
					c1.1-1.9,3-3.2,5.6-3.9C247.5,179,248.2,178.9,248.9,178.9 M248.9,175.7c-1,0-1.9,0.1-2.9,0.3c-4.5,1-6.7,3.5-7.7,5.4
					c-1.8,3.3-1.8,7.6,0,12.8c2,5.6,5.7,11.3,7.8,14.2c3,4.2,6.3,7.9,9.6,11.4c5.1,5.6,9.9,11,12.6,17.4c0.6,1.5,1.1,2.8,1.5,4
					c0.3,0.9,0.6,1.8,0.9,2.7c0.8,2.7,1.4,5.2,1.9,7.6c0.6,2.8,0.9,5.4,1.2,8.2c0.1,1.5,1.3,2.7,2.8,2.9c1.6,0.2,4.2,0.5,7.4,0.5
					c6.2,0,15.4-1.1,24.1-6.1c1.2-0.7,1.8-2.1,1.5-3.4c-0.9-4.4-2.1-9.1-3.7-14.6c-0.6-1.9-1.2-3.9-1.9-5.9c-0.6-1.6-1.2-3.4-2-5.3
					c0-0.2-0.1-0.3-0.2-0.5l-0.8-1.9l-0.5-1.1c-0.1-0.2-0.2-0.3-0.3-0.5c-4-8.7-9.3-15.2-14.8-22c-5.5-6.8-14.9-15.3-22.8-20.7
					C258.6,178.4,253.9,175.7,248.9,175.7L248.9,175.7z"/>
			</g>
		</g>
	</g>
</g>
</svg>
