<?xml version="1.0" encoding="UTF-8"?>
<svg xmlns="http://www.w3.org/2000/svg" version="1.1" viewBox="0 0 390 390">
  <!-- Generator: Adobe Illustrator 28.7.1, SVG Export Plug-In . SVG Version: 1.2.0 Build 142)  -->
  <g>
    <g id="_레이어_1" data-name="레이어_1">
      <g>
        <g>
          <g>
            <path d="M232.6,242.3c4.8,6,10,20.4,3.7,26.9-5.8,6.1-18.4,3.4-23.3-2.3-1.6-1.8-2.7-3.9-3.6-6.1,12.5-4.8,22.6-18.5,22.6-18.5l.4-.3c0,.1.2.2.3.3Z" style="fill: #757575;"/>
            <path d="M194.7,211.7c13.8,6.9,23.4,14.2,32.8,24.7,0,0-9.1,13.4-20.8,17.8-5.5-12.8-15.9-22.7-26.1-32.2-2.8-2.7-6.4-5.4-4.8-8.9,1.5-3.5,5.3-4.7,9.1-4.6,3.5,0,6.8,1.6,9.9,3.2Z" style="fill: #424242;"/>
            <path d="M206.7,254.2c11.7-4.4,20.8-17.8,20.8-17.8,1.6,1.8,3.2,3.7,4.8,5.7l-.4.3s-10,13.8-22.6,18.5c-1-2.2-1.8-4.5-2.7-6.7Z" style="fill: #fff;"/>
          </g>
          <g>
            <path d="M227,274.3c-.2,0-.4,0-.6,0-5.6-.2-11.5-2.7-14.5-6.3-1.5-1.7-2.7-3.7-3.9-6.5-.5-1.1-.9-2.3-1.4-3.4-.4-1.1-.9-2.2-1.3-3.3-5.5-12.7-16.2-22.8-25.8-31.6l-.9-.8c-2.7-2.5-6.1-5.7-4.3-9.8,1.6-3.6,5.4-5.6,10.5-5.6,4,0,7.6,1.9,10.6,3.4,14,7,23.6,14.3,33.2,25,1.8,2,3.5,4.1,4.9,5.7l.2.2c5.1,6.3,10.8,21.8,3.7,29.1-2.4,2.6-6.1,4-10.4,4ZM184.7,210c-2.8,0-6.3.7-7.6,3.7-.9,2,.8,3.8,3.6,6.3l.9.8c9.7,9.1,20.8,19.4,26.5,32.7.5,1.1.9,2.3,1.4,3.4.4,1.1.9,2.2,1.3,3.3,1.1,2.5,2.1,4.3,3.4,5.7,2.5,2.9,7.5,5.1,12.3,5.2,3.7,0,6.7-1,8.7-3,5.7-6,.5-19.6-3.8-24.9l1-1.2-1.2,1c-1.4-1.7-3.1-3.8-4.8-5.7h0c-9.3-10.4-18.7-17.5-32.3-24.3-2.7-1.3-6-3-9.2-3.1h-.1Z"/>
            <path d="M206.7,255.7c-.6,0-1.2-.4-1.4-1-.3-.8.1-1.7.9-2,11.1-4.2,20-17.1,20.1-17.3.5-.7,1.4-.9,2.1-.4.7.5.9,1.4.4,2.1-.4.6-9.5,13.9-21.6,18.4-.2,0-.4.1-.5.1Z"/>
            <path d="M209.4,262.4c-.6,0-1.2-.4-1.4-1-.3-.8,0-1.7.9-2,12-4.6,21.8-17.9,21.9-18,.5-.7,1.5-.8,2.2-.3.7.5.8,1.5.3,2.2-.4.6-10.4,14.2-23.3,19.1-.2,0-.4.1-.6.1Z"/>
          </g>
        </g>
        <g>
          <circle cx="195" cy="67.2" r="33" style="fill: #757575;"/>
          <path d="M194.9,101.7c-7.9,0-15.4-2.7-21.6-7.7-7.2-5.8-11.7-14-12.6-23.2s1.7-18.2,7.5-25.3c5.8-7.2,14-11.7,23.2-12.6,18.9-2,36,11.7,38,30.7,2,18.9-11.7,36-30.7,38-1.2.1-2.5.2-3.7.2ZM195,35.8c-1.1,0-2.3,0-3.4.2-8.3.9-15.8,5-21.1,11.5-5.3,6.5-7.7,14.7-6.8,23.1.9,8.3,5,15.8,11.5,21.1,6.5,5.3,14.7,7.7,23.1,6.8,17.2-1.8,29.8-17.3,27.9-34.6h0c-.9-8.3-5-15.8-11.5-21.1-5.6-4.6-12.5-7-19.7-7Z"/>
        </g>
        <g>
          <g>
            <path d="M4.5,195.1c0,7.8,2.5,15.8,8.2,22.9,8.6,11,24.3,12,35,20.3,13.3,10.3,15.5,26.8,23.4,40.5,5.4,9.2,15.1,16.4,25.6,20,7,2.4,14.5,3.3,21.3,2.2-3-28.2-13.7-56-33.2-76.6-20.4-21.5-51.1-34.1-80.4-29.4Z" style="fill: #757575;"/>
            <path d="M31.2,161c-16.7,5-26.6,19.1-26.7,34.1,29.2-4.7,59.9,7.9,80.4,29.4,19.5,20.6,30.2,48.4,33.2,76.6,10.9-1.8,20.2-8.9,23.3-23,4.2-18.8.1-41.3-8-58.6-4.9-10.5-12.2-19.8-20.2-28.2-21.2-22.1-52.6-39-82-30.3Z" style="fill: #474747;"/>
          </g>
          <path d="M112.1,303.2c-5.1,0-10.4-.9-15.7-2.8-11.4-3.9-21.1-11.5-26.5-20.7-2.7-4.7-4.8-9.8-6.8-14.7-4-9.7-7.7-18.9-16.2-25.4-4.3-3.4-9.7-5.5-14.9-7.7-7.5-3-15.2-6.2-20.4-12.9-5.6-7.1-8.5-15.4-8.5-23.9,0-16.4,11.2-30.7,27.8-35.6,31-9.3,63.5,9.8,83.6,30.7,9.3,9.7,16,19.1,20.5,28.7,8.9,19.1,12,41.9,8.1,59.6-3,13.5-11.7,22.1-24.6,24.2h0c-2,.3-4.1.5-6.3.5ZM118.1,301.1h0,0ZM47.5,160.2c-5.3,0-10.6.7-15.8,2.3-15.2,4.5-25.5,17.6-25.6,32.6,0,7.8,2.7,15.4,7.9,22,4.8,6.1,11.8,8.9,19.2,12,5.4,2.2,10.9,4.5,15.6,8.1,9.2,7.1,13.2,17.1,17.2,26.7,2,4.8,4,9.7,6.6,14.3,4.9,8.5,14.2,15.7,24.8,19.3,7.1,2.5,14.2,3.2,20.5,2.1h0c11.5-1.9,19.4-9.7,22.1-21.8,3.8-17,.8-39.1-7.9-57.6-4.3-9.3-10.9-18.4-20-27.8-16-16.7-40.1-32.1-64.6-32.1Z"/>
        </g>
        <g>
          <g>
            <path d="M159.3,345.3c.2,2.4-.9,4.3-2.2,5.8-7.6,8.3-40.2,5.9-34.1-10.3,3.2-8.6,9.8-9.6,9.8-9.6-1.9-3.4-3.5-8.8-4.8-14.8,0,0,12.1,8.6,30.9,0h0c0,11.6.1,25.4.4,28.9Z" style="fill: #757575;"/>
            <path d="M158.9,298.9s0,8.1,0,17.5h0c-18.9,8.6-30.9,0-30.9,0-2.9-13.1-4.4-28.6-4.4-28.6l1-2.5,34.3,13.5Z" style="fill: #0c5290;"/>
          </g>
          <g>
            <path d="M141.6,357.3c-5.6,0-11.3-1.2-15.4-3.7-5.2-3.2-6.9-7.9-4.8-13.4,2.4-6.5,6.6-9,9-10-1.4-3.2-2.8-7.7-4.1-13.5-2.9-13.1-4.4-28.6-4.4-28.8,0-.9.5-1.6,1.4-1.7.8,0,1.6.5,1.7,1.4,0,.2,1.5,15.5,4.3,28.4,1.5,6.7,3,11.5,4.6,14.4l1.1,2-2.2.3c-.2,0-5.7,1-8.6,8.6-1.5,4.1-.3,7.3,3.5,9.7,7.7,4.7,23.4,4.1,28-1,1.3-1.4,1.9-3,1.8-4.6-.3-3.7-.4-17.9-.4-29,0-9.5,0-17.5,0-17.5,0-.9.7-1.5,1.5-1.5h0c.9,0,1.5.7,1.5,1.6,0,0,0,8,0,17.5,0,11.9.1,25.4.4,28.8.2,2.5-.7,4.9-2.6,6.9-3.1,3.4-9.7,5.2-16.6,5.2Z"/>
            <path d="M142.4,321.8c-9.4,0-15-3.9-15.4-4.1-.7-.5-.9-1.5-.4-2.2.5-.7,1.5-.9,2.2-.4.5.3,11.6,7.9,29.4-.1.8-.4,1.7,0,2,.8.4.8,0,1.7-.8,2-6.5,3-12.3,4-17.1,4Z"/>
          </g>
        </g>
        <g>
          <g>
            <path d="M165.6,345.3c-.2,2.4.8,4.3,2.2,5.8,7.6,8.3,40.2,5.9,34.1-10.3-3.2-8.6-9.8-9.6-9.8-9.6,1.9-3.4,3.4-8.8,4.7-14.8,0,0-12.1,8.6-30.9,0,0,11.6-.1,25.4-.4,28.9Z" style="fill: #757575;"/>
            <path d="M166,298.9s0,8.1,0,17.5c18.9,8.6,30.9,0,30.9,0,2.9-13.1,4.4-28.6,4.4-28.6l-1-2.5-34.3,13.5Z" style="fill: #0c5290;"/>
          </g>
          <g>
            <path d="M183.2,357.3c-6.8,0-13.5-1.8-16.6-5.2-1.9-2.1-2.8-4.4-2.6-6.9.3-3.6.4-17.8.4-28.8,0-9.5,0-17.5,0-17.5,0-.9.7-1.6,1.5-1.6h0c.9,0,1.5.7,1.5,1.5,0,0,0,8.1,0,17.5,0,11.1,0,25.3-.4,29-.1,1.7.5,3.2,1.8,4.6,4.7,5.1,20.4,5.6,28.1,1,3.8-2.4,5-5.6,3.5-9.7-2.8-7.6-8.3-8.6-8.5-8.6l-2.2-.4,1.1-1.9c1.6-2.8,3.1-7.7,4.6-14.4,2.8-12.9,4.3-28.3,4.3-28.4,0-.9.9-1.4,1.7-1.4.9,0,1.5.8,1.4,1.7,0,.2-1.5,15.7-4.4,28.8-1.3,5.9-2.6,10.4-4.1,13.5,2.5,1,6.6,3.5,9,10,2.1,5.5.4,10.2-4.8,13.4-4,2.5-9.8,3.7-15.4,3.7Z"/>
            <path d="M182.4,321.8c-4.8,0-10.5-1-17.1-4-.8-.4-1.1-1.3-.8-2.1.4-.8,1.3-1.1,2.1-.8,17.8,8.1,28.9.5,29.4.1.7-.5,1.7-.3,2.2.4s.3,1.7-.4,2.2c-.3.2-6,4.1-15.4,4.1Z"/>
          </g>
        </g>
        <path d="M164.3,316.4" style="fill: #fff; stroke: #000; stroke-linecap: round; stroke-linejoin: round; stroke-width: 3.1px;"/>
        <g>
          <circle cx="191.6" cy="72.3" r="17.3" style="fill: #f2a29c;"/>
          <path d="M191.6,91.1c-9.5,0-17.7-7.2-18.7-16.8-1.1-10.3,6.4-19.6,16.7-20.7,10.3-1.1,19.6,6.4,20.7,16.7.5,5-.9,9.9-4.1,13.8-3.2,3.9-7.6,6.4-12.6,6.9-.7,0-1.3.1-2,.1ZM191.6,56.6c-.6,0-1.1,0-1.7,0-8.6.9-14.9,8.7-14,17.3.9,8.6,8.7,14.9,17.3,14,4.2-.4,7.9-2.5,10.6-5.8,2.6-3.3,3.8-7.4,3.4-11.5h0c-.9-8.1-7.7-14.1-15.6-14.1Z"/>
        </g>
        <g>
          <circle cx="88.7" cy="78.5" r="33" style="fill: #757575;"/>
          <path d="M88.7,113.1c-17.4,0-32.4-13.2-34.3-30.9-1-9.2,1.7-18.2,7.5-25.3,5.8-7.2,14-11.7,23.2-12.6,18.9-2,36,11.7,38,30.7,2,18.9-11.7,36-30.7,38-1.2.1-2.5.2-3.7.2ZM88.7,47.1c-1.1,0-2.2,0-3.3.2-8.3.9-15.8,5-21.1,11.5-5.3,6.5-7.7,14.7-6.8,23.1,1.8,17.2,17.3,29.8,34.6,27.9,17.2-1.8,29.8-17.3,27.9-34.6-1.7-16.1-15.4-28.1-31.2-28.1Z"/>
        </g>
        <g>
          <g>
            <path d="M197.8,213.7c9.6,14.3,19.8,37.9,15.3,55.2-52.9,18.7-99.6,10.6-99.6,10.6-8.1-16-3.1-41.2,3.3-57.2,4.3-10.8-.5-11.7-.5-11.7l79.5-8.5s-4.4,1.8,2,11.5Z" style="fill: #424242;"/>
            <path d="M213.1,268.9c-5.3,20.2-26.3,30.1-46.9,32.3s-43.2-3.1-52.7-21.7c0,0,46.7,8.1,99.6-10.6Z" style="fill: #0c5290;"/>
          </g>
          <g>
            <path d="M157.1,303.3c-21.1,0-37.6-8.3-45-23-8.3-16.3-3.4-41.7,3.2-58.5,2.2-5.5,1.8-7.9,1.3-8.9-.3-.6-.7-.7-.7-.7l.6-3c.2,0,1.7.4,2.7,2.2,1.4,2.5,1,6.4-1.1,11.6-6.4,16.2-11.2,40.6-3.4,55.9,7.9,15.6,27.1,23.4,51.1,20.9,24.1-2.6,41.1-14.2,45.6-31.2,4.4-16.7-5.4-39.5-15.1-54-3.1-4.7-4.3-8.5-3.5-11.1.6-2,2-2.6,2.2-2.7l1.3,2.8s-.4.2-.5.9c-.2,1-.2,3.4,3.2,8.4,10,15,20.1,38.8,15.5,56.5-4.8,18.2-22.8,30.7-48.2,33.4-3.1.3-6.2.5-9.2.5Z"/>
            <path d="M139.5,282.8c-16,0-26.1-1.7-26.3-1.7-.8-.1-1.4-.9-1.3-1.8.1-.8,1-1.4,1.8-1.3.5,0,46.9,7.8,98.8-10.5.8-.3,1.7.1,2,.9s-.1,1.7-.9,2c-28.4,10.1-55.3,12.4-74,12.4Z"/>
          </g>
        </g>
        <g>
          <path d="M138.1,218.1s23.6,37.6,33.9,44.9c0,0,15.6-28.8,20.8-50.7l-54.7,5.8Z" style="fill: #fff;"/>
          <path d="M172.6,265.3l-1.4-1c-10.5-7.4-33.4-43.8-34.3-45.4l-1.3-2.1,59.4-6.3-.5,2.1c-5.2,21.9-20.8,50.8-20.9,51.1l-.8,1.5ZM140.8,219.4c4.9,7.6,21.7,33.4,30.8,41.3,3.2-6.1,14.5-28.4,19.3-46.6l-50,5.3Z"/>
        </g>
        <g>
          <circle cx="93.1" cy="82.8" r="17.3" style="fill: #f2a29c;"/>
          <path d="M93,101.6c-4.3,0-8.4-1.5-11.8-4.2-3.9-3.2-6.4-7.7-6.9-12.6-.5-5,.9-9.9,4.1-13.8,3.2-3.9,7.6-6.4,12.6-6.9,5-.5,9.9.9,13.8,4.1,3.9,3.2,6.4,7.7,6.9,12.6.5,5-.9,9.9-4.1,13.8-3.2,3.9-7.7,6.4-12.6,6.9-.7,0-1.4.1-2,.1ZM93.1,67.1c-.6,0-1.1,0-1.7,0-4.2.4-7.9,2.5-10.6,5.8-2.6,3.3-3.8,7.4-3.4,11.5h0c.4,4.2,2.5,7.9,5.8,10.6,3.3,2.6,7.4,3.8,11.5,3.4,4.2-.4,7.9-2.5,10.6-5.8,2.6-3.3,3.8-7.4,3.4-11.5-.4-4.2-2.5-7.9-5.8-10.6-2.8-2.3-6.3-3.5-9.8-3.5Z"/>
        </g>
        <g>
          <path d="M233.7,143.7c4.9,46-29.6,76.8-75.6,81.7-46,4.9-86.2-18-91.1-64-4.9-46,28.4-87.3,74.5-92.2,46-4.9,87.3,28.4,92.2,74.5Z" style="fill: #757575;"/>
          <path d="M145.9,227.6c-43.8,0-76.2-25.9-80.4-66-5-46.8,29-88.9,75.9-93.9,46.8-5,88.9,29,93.9,75.9,2.4,22.4-4.2,42.3-19.1,57.5-13.9,14.2-34.4,23.4-57.8,25.9-4.2.4-8.3.7-12.4.7ZM150.4,70.3c-2.9,0-5.8.2-8.8.5-45.1,4.8-77.9,45.4-73.1,90.5,4.5,42,41.3,67.8,89.4,62.6,48.2-5.1,78.7-38,74.2-80-4.5-42.2-40.3-73.6-81.8-73.6Z"/>
        </g>
        <ellipse cx="173.9" cy="182.9" rx="44.5" ry="32.4" transform="translate(-18.4 19.4) rotate(-6.1)" style="fill: #9b9b9b;"/>
        <g>
          <path d="M189.3,160.1c.5,4.7-4.5,9.2-11.2,9.9-6.7.7-12.5-2.6-13-7.3-.5-4.7,4.9-5.5,11.6-6.2,6.7-.7,12.1-1.1,12.6,3.6Z" style="fill: #595959;"/>
          <path d="M176.3,171.7c-6.7,0-12.2-3.7-12.7-8.8-.7-6.5,6.5-7.2,12.9-7.9,3.6-.4,6.6-.7,9-.2,4,.7,5,3.2,5.3,5.2h0c.6,5.6-5,10.8-12.5,11.6-.7,0-1.3.1-2,.1ZM182.7,157.6c-1.7,0-3.7.2-5.8.4-7.4.8-10.5,1.6-10.2,4.5.4,3.8,5.6,6.5,11.3,5.9,5.7-.6,10.2-4.3,9.8-8.2h0c-.1-1.2-.6-2.1-2.7-2.5-.7-.1-1.5-.2-2.3-.2Z"/>
        </g>
        <circle cx="146.2" cy="150.2" r="8.1"/>
        <circle cx="197.4" cy="144.8" r="8.1"/>
        <g>
          <path d="M134.3,72.1c-5.2,7.5-7.1,17-6.1,26,1,9.3,6.2,19.1,15.2,21.5,1.8-3.3,3.3-6.8,4.3-10.5,5.2,6.5,12.9,10.9,21.2,12,3.8-3.7,6.8-8.1,8.8-12.9,2.1,2.7,4.2,5.4,6.3,8.1,17.2-7.5,16.8-31.5,8.5-45.6-2.6-4.4-6.5-7.9-10.6-10.9-14.4-10.4-37.6-2-47.5,12.2Z" style="fill: #474747;"/>
          <path d="M168.8,122.7c0,0-.1,0-.2,0-7.7-1.1-14.9-4.9-20.3-10.5-.9,2.8-2.1,5.5-3.6,8.1-.3.6-1.1.9-1.8.7-10.5-2.8-15.4-14.1-16.3-22.8-1.1-9.7,1.2-19.6,6.4-27,6-8.6,16.5-15.2,27.4-17,8.5-1.5,16.2,0,22.2,4.4,3.3,2.4,8,6.2,11.1,11.4,5.7,9.7,7.4,22.9,4.1,32.8-2.3,7-6.9,12.3-13.3,15.1-.7.3-1.4,0-1.8-.5l-4.7-6.1c-2,4.1-4.8,7.9-8.1,11.1-.3.3-.7.4-1.1.4ZM147.6,107.6c.5,0,.9.2,1.2.6,4.8,6,11.9,10.1,19.4,11.4,3.4-3.4,6.1-7.5,7.9-11.9.2-.5.7-.9,1.2-.9.5,0,1.1.2,1.4.6l5.5,7.1c5-2.5,8.7-6.9,10.5-12.7,3-9.1,1.4-21.2-3.9-30.3-2.1-3.6-5.3-6.9-10.2-10.4-6.7-4.9-14.5-4.8-19.9-3.9-10,1.7-20,7.9-25.4,15.7h0c-4.7,6.8-6.8,15.9-5.8,24.9.9,8,5.2,17.1,12.9,19.8,1.5-2.9,2.7-5.9,3.5-9,.2-.6.6-1,1.2-1.1.1,0,.2,0,.3,0ZM134.3,72.1h0,0Z"/>
        </g>
        <g>
          <path d="M143,224.2c-2.6,3.5-1.2,8.7,1.9,11.6,1.2,1.1,2.7,2.3,2.6,3.9,0,.6-.3,1.2-.4,1.8-.3,2.2,1.6,4.2,3.7,4.6,2.1.4,4.3-.5,6.2-1.6,5.1-3.1,12-13.8,5.9-18.7-4.3-3.4-15.9-7-19.9-1.6Z" style="fill: #ffcf2e;"/>
          <path d="M152,247.7c-.5,0-.9,0-1.4-.1-2.8-.5-5.5-3.2-5-6.3,0-.3.1-.6.2-.9,0-.3.1-.5.1-.7,0-.7-.8-1.5-1.7-2.3l-.5-.4c-3.5-3.4-5.2-9.4-2.1-13.7h0c1.3-1.8,3.3-2.9,6-3.2,5.4-.7,12.6,1.8,16.1,4.5,2.1,1.7,3.2,4.1,3,6.9-.3,5.4-4.9,11.7-9,14.3-2.1,1.3-4.1,1.9-5.9,1.9ZM144.3,225.1h0c-2.1,2.9-.8,7.2,1.7,9.6l.4.4c1.2,1.1,2.7,2.5,2.6,4.7,0,.5-.1,1-.3,1.4,0,.2-.1.4-.1.6-.2,1.3,1.2,2.6,2.5,2.8,1.4.3,3.1-.2,5.1-1.4,3.4-2.1,7.3-7.6,7.5-11.8.1-1.9-.5-3.3-1.8-4.3-3-2.3-9.4-4.5-13.8-3.9-1.8.2-3.1.9-3.9,2Z"/>
        </g>
        <g>
          <path d="M193,218.9c3.2,2.8,3,8.2.6,11.8-.9,1.3-2.1,2.8-1.7,4.4.2.6.5,1.1.7,1.7.8,2-.7,4.4-2.7,5.2-2,.8-4.3.5-6.4-.3-5.6-2-14.7-11-9.7-17,3.5-4.2,14.1-10.2,19.1-5.8Z" style="fill: #ffcf2e;"/>
          <path d="M187.4,243.9c-1.3,0-2.8-.3-4.4-.8-4.5-1.6-10.4-6.8-11.8-12.1-.8-2.8-.2-5.3,1.5-7.4,2.9-3.4,9.3-7.4,14.8-7.8,2.7-.2,4.9.4,6.5,1.9,4,3.5,3.6,9.8.9,13.8l-.4.5c-.7.9-1.3,1.9-1.1,2.6,0,.2.2.4.3.7.1.3.3.5.4.8,1.1,3-.9,6.1-3.5,7.2-1,.4-2,.6-3.1.6ZM188.5,218.9c-.2,0-.5,0-.7,0-4.4.3-10.2,3.8-12.6,6.7-1.1,1.3-1.4,2.8-.9,4.6,1.1,4.1,6.1,8.6,9.9,10,2.1.8,3.9.9,5.3.3,1.2-.5,2.3-2.1,1.8-3.3,0-.2-.2-.3-.2-.5-.2-.4-.4-.8-.5-1.3-.5-2.1.7-3.8,1.6-5.1l.3-.5c1.9-2.9,2.3-7.4-.3-9.8h0c-.9-.8-2.1-1.2-3.6-1.2Z"/>
        </g>
        <g>
          <rect x="164.2" y="224.3" width="9.6" height="12.7" rx="4.8" ry="4.8" transform="translate(-23.5 19.2) rotate(-6.1)" style="fill: #ffcf2e;"/>
          <path d="M169.2,238.5c-1.4,0-2.8-.5-4-1.4-1.3-1.1-2.1-2.6-2.3-4.3l-.3-3c-.2-1.7.3-3.3,1.4-4.7,1.1-1.3,2.6-2.1,4.3-2.3,3.5-.4,6.6,2.2,7,5.7l.3,3c.4,3.5-2.2,6.6-5.7,7-.2,0-.5,0-.7,0ZM168.8,225.8c-.1,0-.2,0-.3,0-.9,0-1.6.5-2.2,1.2-.5.7-.8,1.5-.7,2.4l.3,3c0,.9.5,1.6,1.2,2.2.7.5,1.5.8,2.4.7.9,0,1.6-.5,2.2-1.2.5-.7.8-1.5.7-2.4l-.3-3c-.2-1.7-1.6-2.9-3.2-2.9Z"/>
        </g>
        <g>
          <circle cx="192.7" cy="260.1" r="5.2" style="fill: #ffcf2e;"/>
          <path d="M192.7,266.9c-1.5,0-3-.5-4.2-1.5-1.4-1.1-2.3-2.7-2.5-4.5s.3-3.5,1.5-4.9c1.1-1.4,2.7-2.3,4.5-2.5,1.8-.2,3.5.3,4.9,1.5s2.3,2.7,2.5,4.5h0c.4,3.7-2.3,7-6,7.4-.2,0-.5,0-.7,0ZM192.7,256.5c-.1,0-.3,0-.4,0-1,.1-1.8.6-2.4,1.3-.6.8-.9,1.7-.8,2.7.2,2,2,3.5,4,3.2,2-.2,3.4-2,3.2-4-.1-1-.6-1.8-1.3-2.4-.7-.5-1.4-.8-2.3-.8Z"/>
        </g>
        <g>
          <circle cx="152" cy="264.5" r="5.2" style="fill: #ffcf2e;"/>
          <path d="M152,271.2c-1.5,0-3-.5-4.2-1.5-1.4-1.1-2.3-2.7-2.5-4.5h0c-.4-3.7,2.3-7,6-7.4,1.8-.2,3.5.3,4.9,1.5s2.3,2.7,2.5,4.5-.3,3.5-1.5,4.9c-1.1,1.4-2.7,2.3-4.5,2.5-.2,0-.5,0-.7,0ZM148.4,264.9c.1,1,.6,1.8,1.3,2.4.8.6,1.7.9,2.7.8,2-.2,3.4-2,3.2-4s-2-3.5-4-3.2c-2,.2-3.4,2-3.2,4h0Z"/>
        </g>
        <path d="M114.3,181c-.2,0-.4,0-.6-.1-.8-.4-1.1-1.3-.8-2,.2-.5,5-11.1,8.5-14.9.6-.6,1.6-.7,2.2,0,.6.6.7,1.6,0,2.2-3.2,3.4-7.9,14-8,14.1-.3.6-.8.9-1.4.9Z" style="fill: #ff797e;"/>
        <path d="M126.3,179.7c-.2,0-.4,0-.6-.1-.8-.3-1.1-1.3-.8-2,.2-.5,5-11.1,8.5-14.9.6-.6,1.6-.7,2.2,0,.6.6.7,1.6,0,2.2-3.2,3.4-7.9,14-8,14.1-.3.6-.8.9-1.4.9Z" style="fill: #ff797e;"/>
        <path d="M138.2,178.4c-.2,0-.4,0-.6-.1-.8-.3-1.1-1.3-.8-2,.2-.5,5-11.1,8.5-14.9.6-.6,1.6-.7,2.2,0,.6.6.7,1.6,0,2.2-3.2,3.4-7.9,14-8,14.1-.3.6-.8.9-1.4.9Z" style="fill: #ff797e;"/>
        <path d="M196.6,172.2c-.2,0-.4,0-.6-.1-.8-.4-1.1-1.3-.8-2,.2-.5,5-11.1,8.5-14.9.6-.6,1.6-.7,2.2,0,.6.6.7,1.6,0,2.2-3.2,3.4-7.9,14-8,14.1-.3.6-.8.9-1.4.9Z" style="fill: #ff797e;"/>
        <path d="M208.5,170.9c-.2,0-.4,0-.6-.1-.8-.4-1.1-1.3-.8-2,.2-.5,5-11.1,8.5-14.9.6-.6,1.6-.7,2.2,0,.6.6.7,1.6,0,2.2-3.2,3.4-7.9,14-8,14.1-.3.6-.8.9-1.4.9Z" style="fill: #ff797e;"/>
        <path d="M220.5,169.6c-.2,0-.4,0-.6-.1-.8-.4-1.1-1.3-.8-2,.2-.5,5-11.1,8.5-14.9.6-.6,1.6-.7,2.2,0,.6.6.7,1.6,0,2.2-3.2,3.4-7.9,14-8,14.1-.3.6-.8.9-1.4.9Z" style="fill: #ff797e;"/>
        <g>
          <path d="M205.8,109.3c.9,2.9.6,6.1,1.3,9.1.7,3,2.9,6.1,5.9,6.1,2.6,0,4.7-2.3,5.3-4.8.7-2.5.2-5.1-.2-7.6" style="fill: #a5e1ff;"/>
          <path d="M213.1,125.9c-4,0-6.6-3.8-7.4-7.3-.3-1.4-.4-2.9-.6-4.3-.1-1.7-.3-3.2-.7-4.7-.3-.8.2-1.7,1-1.9.8-.3,1.7.2,1.9,1,.6,1.8.7,3.6.9,5.4.1,1.3.2,2.6.5,3.8.5,2.4,2.2,4.8,4.4,4.8h0c1.9,0,3.4-1.9,3.9-3.6.6-2.2.2-4.7-.2-7-.1-.8.4-1.6,1.3-1.8.8-.1,1.6.4,1.8,1.3.4,2.6.9,5.5.2,8.3-.8,2.9-3.4,5.9-6.8,5.9h0Z"/>
        </g>
        <g>
          <path d="M96,150.6c.9,2.9.6,6.1,1.3,9.1.7,3,2.9,6.1,5.9,6.1,2.6,0,4.7-2.3,5.3-4.8.7-2.5.2-5.1-.2-7.6" style="fill: #a5e1ff;"/>
          <path d="M103.2,167.3c-4,0-6.6-3.8-7.4-7.3-.3-1.4-.4-2.9-.6-4.3-.1-1.7-.3-3.2-.7-4.7-.3-.8.2-1.7,1-1.9.8-.3,1.7.2,1.9,1,.6,1.8.7,3.6.9,5.4.1,1.3.2,2.6.5,3.8.5,2.4,2.2,4.9,4.4,4.9h0c1.9,0,3.4-1.9,3.9-3.6.6-2.2.2-4.6-.2-7-.1-.8.4-1.6,1.3-1.8.8-.1,1.6.4,1.8,1.3.4,2.6.9,5.5.2,8.3-.8,2.9-3.4,5.9-6.8,5.9h0Z"/>
        </g>
        <g>
          <path d="M123.9,191c.9,2.9.6,6.1,1.3,9.1.7,3,2.9,6.1,5.9,6.1,2.6,0,4.7-2.3,5.3-4.8.7-2.5.2-5.1-.2-7.6" style="fill: #a5e1ff;"/>
          <path d="M131.1,207.7c-4,0-6.6-3.8-7.4-7.3-.3-1.4-.4-2.9-.6-4.3-.1-1.7-.3-3.2-.7-4.7-.3-.8.2-1.7,1-1.9.8-.3,1.7.2,1.9,1,.6,1.8.7,3.6.9,5.4.1,1.3.2,2.6.5,3.8.5,2.4,2.2,4.9,4.4,4.9h0c1.9,0,3.4-1.9,3.9-3.6.6-2.2.2-4.7-.2-7-.1-.8.4-1.6,1.3-1.8.8-.1,1.6.4,1.8,1.3.4,2.6.9,5.4.2,8.3-.8,2.9-3.4,5.9-6.8,5.9h0Z"/>
        </g>
        <g>
          <g>
            <g>
              <path d="M178.7,176.5s3.7,4.6,8,5.9c-.7,1.6-2.3,2.7-4.1,2.9l-5.9.6c-1.9.2-3.6-.6-4.7-2,1.8-1.3,4.2-3.5,6.6-7.4Z" style="fill: #fff;"/>
              <path d="M189.4,182.7s-1.6,17.5-8.4,18.1c-6.8.5-13.1-15-13.1-15,0,0,1.7,0,4.2-1.8,1.1,1.4,2.8,2.2,4.7,2l5.9-.6c1.9-.2,3.4-1.3,4.1-2.9.9.3,1.8.4,2.7.3Z" style="fill: #f85246;"/>
            </g>
            <path d="M165,186.5c-2.7,0-4.7-.5-4.7-.5-.8-.2-1.3-1.1-1.1-1.9.2-.8,1.1-1.3,1.9-1.1.5.1,12.6,3.3,16.1-8.8.2-.8,1.1-1.3,1.9-1.1.8.2,1.3,1.1,1.1,1.9-2.8,9.7-10.2,11.4-15.1,11.4Z"/>
            <path d="M190.5,183.8c-4.4,0-9.6-1.7-13.2-8.4-.4-.8-.1-1.7.6-2.1.8-.4,1.7-.1,2.1.6,5.9,11,17.1,5.4,17.6,5.2.8-.4,1.7,0,2.1.7.4.8,0,1.7-.7,2.1,0,0-3.9,2-8.5,2Z"/>
          </g>
          <path d="M180.7,202.3c-7.5,0-13.7-15.2-14.4-16.9-.3-.8,0-1.7.9-2,.8-.3,1.7,0,2,.9,2.3,6,7.7,15.3,11.7,15,4.2-.3,6.5-11.4,7-16.7,0-.9.9-1.5,1.7-1.4.9,0,1.5.8,1.4,1.7-.2,1.9-2,18.9-9.9,19.5-.1,0-.3,0-.4,0Z"/>
        </g>
        <path d="M156.6,148.2c-.2,0-.4,0-.6-.1-1.8-.8-10.9-4.6-12.9-6.4-.6-.6-.7-1.6-.1-2.2.6-.6,1.6-.7,2.2-.1,1.3,1.1,8.1,4.2,12,5.9.8.3,1.2,1.2.8,2-.2.6-.8,1-1.4,1Z"/>
        <path d="M188.8,142.3c-.7,0-1.3-.4-1.5-1.1-.3-.8.2-1.7,1-1.9,4.9-1.6,10.6-4.1,11.4-5.5.4-.7,1.4-1,2.1-.6.7.4,1,1.4.6,2.1-1.7,3.1-10.5,6.1-13.2,7-.2,0-.3,0-.5,0Z"/>
        <g>
          <g>
            <ellipse cx="332.1" cy="249.9" rx="53.3" ry="40.2" style="fill: #959595;"/>
            <path d="M332.1,291.6c-30.3,0-54.9-18.7-54.9-41.8s24.6-41.8,54.9-41.8,54.9,18.7,54.9,41.8-24.6,41.8-54.9,41.8ZM332.1,211.2c-28.5,0-51.8,17.3-51.8,38.7s23.2,38.7,51.8,38.7,51.8-17.3,51.8-38.7-23.2-38.7-51.8-38.7Z"/>
          </g>
          <g>
            <ellipse cx="332.1" cy="258.9" rx="46.9" ry="35.4" style="fill: #757575;"/>
            <path d="M332.1,295.8c-26.7,0-48.5-16.6-48.5-36.9s21.7-36.9,48.5-36.9,48.5,16.6,48.5,36.9-21.7,36.9-48.5,36.9ZM332.1,225c-25,0-45.4,15.2-45.4,33.8s20.4,33.8,45.4,33.8,45.4-15.2,45.4-33.8-20.4-33.8-45.4-33.8Z"/>
          </g>
          <g>
            <path d="M264.7,248h17.2v13.4h-17.2c-2,0-3.7-1.7-3.7-3.7v-6c0-2,1.7-3.7,3.7-3.7Z" transform="translate(542.8 509.5) rotate(180)" style="fill: #757575;"/>
            <path d="M278.1,263h-18.7v-16.5h18.7c2.9,0,5.3,2.4,5.3,5.3v6c0,2.9-2.4,5.3-5.3,5.3ZM262.5,259.9h15.6c1.2,0,2.2-1,2.2-2.2v-6c0-1.2-1-2.2-2.2-2.2h-15.6v10.3Z"/>
          </g>
          <g>
            <rect x="204.9" y="245.8" width="60.8" height="17.9" rx="7.2" ry="7.2" transform="translate(470.5 509.5) rotate(180)" style="fill: #ff7a7f;"/>
            <path d="M258.4,265.2h-46.3c-4.8,0-8.8-3.9-8.8-8.8v-3.4c0-4.8,3.9-8.8,8.8-8.8h46.3c4.8,0,8.8,3.9,8.8,8.8v3.4c0,4.8-3.9,8.8-8.8,8.8ZM212.1,247.3c-3.1,0-5.7,2.5-5.7,5.7v3.4c0,3.1,2.5,5.7,5.7,5.7h46.3c3.1,0,5.7-2.5,5.7-5.7v-3.4c0-3.1-2.5-5.7-5.7-5.7h-46.3Z"/>
          </g>
        </g>
        <g>
          <g>
            <path d="M191.8,271.9c9.7,1.6,29.1-1.7,32.5-12.9,3.1-10.4-7.8-22.7-17.2-24.6-3-.6-6.1-.5-9.1-.2,2.6,17.1-6.5,36.9-6.5,36.9v.6c0,0,.3,0,.4,0Z" style="fill: #757575;"/>
            <path d="M181.9,270h0s9.2-18.7,6.8-34.6c-17.8,1.9-35.4-3.6-52.5-8.9-4.7-1.5-10-3.8-13,.2-3,4-1.9,8.8.6,13.1,2.2,3.9,6.1,6.6,9.9,9.1,16.5,11.1,30.6,17.2,48.3,21.1Z" style="fill: #424242;"/>
            <path d="M188.7,235.5c2.4,15.9-6.8,34.5-6.8,34.5h0c3,.7,6.1,1.3,9.4,1.8v-.6c.1,0,9.2-19.9,6.6-36.9-3.1.3-6.1.9-9.2,1.2Z" style="fill: #fff;"/>
          </g>
          <g>
            <path d="M196.9,273.9c-2,0-3.8-.1-5.3-.4-.4,0-.5,0-.7-.1-2.9-.5-6-1.1-9.3-1.8h0c-18.1-4-32.2-10.2-48.8-21.3-3.7-2.5-7.9-5.3-10.3-9.6-3.3-5.7-3.4-10.9-.4-14.8,3.4-4.4,8.9-2.6,13.4-1.1l1.3.4c16,5,34.2,10.7,51.9,8.8,1.5-.2,3.1-.4,4.6-.6,1.5-.2,3.1-.4,4.6-.6,3.9-.4,6.8-.4,9.6.2,5.9,1.2,12.3,6,16,12.1,2.9,4.9,3.8,10,2.5,14.4-3.1,10.4-18.2,14.4-28.9,14.4ZM182.2,268.5c3.3.7,6.4,1.3,9.3,1.8.4,0,.5,0,.7.1,8.6,1.4,27.4-1.4,30.6-11.9,1.1-3.6.3-7.8-2.2-11.9-3.3-5.4-8.8-9.7-13.9-10.7-2.5-.5-5.1-.5-8.7-.1-1.5.2-3,.4-4.5.6-1.6.2-3.1.4-4.7.6-18.3,2-36.8-3.9-53.1-9l-1.4-.4c-4.8-1.6-8.1-2.4-10,0-2.8,3.6-1.2,8.2.7,11.4,2.1,3.7,6,6.3,9.4,8.5,16.3,10.9,30.1,17,47.8,20.9Z"/>
            <path d="M181.9,271.5c-.2,0-.5,0-.7-.2-.8-.4-1.1-1.3-.7-2.1,0-.2,9-18.4,6.7-33.6-.1-.8.5-1.6,1.3-1.8.8-.1,1.6.5,1.8,1.3,2.5,16.2-6.6,34.7-7,35.5-.3.5-.8.9-1.4.9Z"/>
            <path d="M191.4,272.8c-.2,0-.4,0-.6-.1-.8-.4-1.1-1.3-.8-2.1,0-.2,8.8-19.7,6.4-36.1-.1-.8.5-1.6,1.3-1.8.8-.1,1.6.5,1.8,1.3,2.6,17.3-6.2,37-6.6,37.8-.3.6-.8.9-1.4.9Z"/>
          </g>
        </g>
      </g>
    </g>
  </g>
</svg>