<svg id="레이어_1" data-name="레이어 1" xmlns="http://www.w3.org/2000/svg" xmlns:xlink="http://www.w3.org/1999/xlink" viewBox="0 0 240 340"><defs><style>.cls-1{fill:none;}.cls-2{fill:#ffc67b;}.cls-3{fill:#da9531;}.cls-4{opacity:0.47;}.cls-5{fill:#e59641;}.cls-6{clip-path:url(#clip-path);}.cls-7{fill:#6dccae;}.cls-8{fill:#070707;}.cls-9{fill:#ace2d3;}.cls-10{fill:#226357;}.cls-11{fill:#cbf4e8;}.cls-12{fill:#763b06;}.cls-13{fill:#442811;}.cls-14{clip-path:url(#clip-path-2);}.cls-15{clip-path:url(#clip-path-3);}.cls-16{clip-path:url(#clip-path-4);}.cls-17{clip-path:url(#clip-path-5);}.cls-18{clip-path:url(#clip-path-6);}.cls-19{clip-path:url(#clip-path-7);}.cls-20{clip-path:url(#clip-path-8);}.cls-21{clip-path:url(#clip-path-9);}.cls-22{clip-path:url(#clip-path-10);}.cls-23{clip-path:url(#clip-path-11);}.cls-24{clip-path:url(#clip-path-12);}.cls-25{fill:#06823e;}.cls-26{opacity:0.5;}.cls-27{fill:#1a3d14;}</style><clipPath id="clip-path"><path class="cls-1" d="M69.52,176.24s39.05,134,58.31,150.24c13.65,11.55,59.88-148.13,59.88-148.13S93.16,150,69.52,176.24Z"/></clipPath><clipPath id="clip-path-2"><path class="cls-1" d="M153.09,91s-4.13-3.62-6.24-3-10.17,9-11.28,9.67-2.62,3.32-.8,3.72,6.14,5,15.2,3.43,9.76-9.06,8.55-9.77S153.09,91,153.09,91Z"/></clipPath><clipPath id="clip-path-3"><path class="cls-1" d="M107.25,27.9s-9.43-3.58-10.38-3.58-9.43,5.28-9.24,6.6,1.7,6,8.49,6.23,19.81-2.27,20.19-4.72,4.15-3.4-2.46-4Z"/></clipPath><clipPath id="clip-path-4"><path class="cls-1" d="M173.27,57.33s-.86-2.84-3.61-2.93-14.36.86-14.27,2.67a7.4,7.4,0,0,0,3.69,6.2c2.75,1.46,12.64,11.11,18.4,9.21s4.47-7.75,2.41-8.43S173.35,58.45,173.27,57.33Z"/></clipPath><clipPath id="clip-path-5"><path class="cls-1" d="M130.62,48s-4.14-3.48-6.09-3.16-7,6.53-7,7.51.44,7.72,9.79,6.53,11.86-6.2,10.34-7.29A71.67,71.67,0,0,0,130.62,48Z"/></clipPath><clipPath id="clip-path-6"><path class="cls-1" d="M96.93,73.16s-15.4.88-17.65,2.55-9.42,15.6-9.52,18.64,20.41-4.91,20.41-4.91S98,75.32,96.93,73.16Z"/></clipPath><clipPath id="clip-path-7"><path class="cls-1" d="M113.68,115.21s-11.2-.92-11.2.93,4.49,5.28,5.85,5.85,4.28,2.93,7.13.22,4.43-6.21,1.93-6.21A7.21,7.21,0,0,1,113.68,115.21Z"/></clipPath><clipPath id="clip-path-8"><path class="cls-1" d="M87.15,58.31s-4.57-.65-4.57.43-1.2,8.71,2.83,7.94,8.26-6.31,7.39-7S87.15,58.31,87.15,58.31Z"/></clipPath><clipPath id="clip-path-9"><path class="cls-1" d="M64.78,66.3s-3.66-5.51-4.26-5.39S50.64,71,50.94,73.67s1.68,4.91,6.53,2.94,7-2.76,7.07-4S67.11,69.54,64.78,66.3Z"/></clipPath><clipPath id="clip-path-10"><path class="cls-1" d="M74.19,44.1S73.3,41,70.63,41.2s-6,.89-6,2.67-5.33,5.34,2,5.12S75.08,47.88,74.19,44.1Z"/></clipPath><clipPath id="clip-path-11"><path class="cls-1" d="M142,13.55s-6-2.18-7.36-.28-.82,7.64,6.27,7.64,9-1.91,7.36-3.82S142,13.55,142,13.55Z"/></clipPath><clipPath id="clip-path-12"><path class="cls-1" d="M180.92,115.35s-1.36-3.42-4.08-3.32-6.35,2-6.3,3.64,1.52,6.63,5.81,5.65S182.27,118.82,180.92,115.35Z"/></clipPath></defs><path class="cls-2" d="M69,176.27S108,310.21,127.27,326.5c13.66,11.55,59.88-148.13,59.88-148.13S92.6,150,69,176.27Z"/><path d="M128.82,327.65a2.88,2.88,0,0,1-1.91-.73c-19.16-16.21-56.89-145-58.49-150.5l-.08-.3.21-.23c9.93-11,33-14.06,68.45-9a395.51,395.51,0,0,1,50.31,10.92l.53.16-.15.53c-1.71,5.89-41.9,144.14-57.92,149A3.58,3.58,0,0,1,128.82,327.65ZM69.58,176.41c2.09,7.11,39.58,134,58.05,149.66a1.79,1.79,0,0,0,1.81.37c15-4.52,54.22-138.09,57-147.69C178.83,176.53,92.14,152.1,69.58,176.41Z"/><path class="cls-3" d="M81.35,216.46l-1-2c36.92-17.69,46.56-36,46.65-36.19l2,1C128.65,180,119.06,198.39,81.35,216.46Z"/><path class="cls-3" d="M92,244.88l-1-2c43.68-22.31,69.18-65.37,69.43-65.8l1.93,1.12C162.1,178.65,136.27,222.28,92,244.88Z"/><path class="cls-3" d="M100.87,271.42l-.94-2c51.64-24,80.86-73.7,81.15-74.2l1.93,1.12C182.71,196.82,153.16,247.09,100.87,271.42Z"/><path class="cls-3" d="M107.73,292.08c-.52,0-.65-.25-.82-.59a1.18,1.18,0,0,1,.56-1.56l1.12,1.93a1.1,1.1,0,0,0-.79-2c.38-.07,3-.93,21.55-8.77,24.08-10.18,33.35-27.58,33.44-27.76l2,1c-.39.74-9.69,18.27-34.55,28.79C113.61,290.21,109.17,292.08,107.73,292.08Z"/><path class="cls-3" d="M117.63,312.48l-.47-2.18c20.12-4.31,31.94-20.37,32.05-20.53l1.81,1.3C150.52,291.76,138.62,308,117.63,312.48Z"/><path class="cls-3" d="M174.61,217.71c-23.07-13.48-37.09-41.84-37.23-42.13l2-1c.13.27,13.87,28,36.35,41.18Z"/><path class="cls-3" d="M165.43,248.1C133.61,228.46,108.22,181.51,108,181l2-1.06a254.39,254.39,0,0,0,16.5,25.83c9.31,12.86,23.84,30.31,40.17,40.4Z"/><path class="cls-3" d="M155,277.57c-.73,0-7.88-1-33.3-29.68-28.14-31.77-37.48-58.42-37.57-58.69l2.11-.72c.09.26,9.31,26.53,37.13,57.94,24.57,27.74,31.46,28.89,31.74,28.92Z"/><path class="cls-3" d="M145.46,302.08c-.25-.14-25-14.5-54.45-55.6l1.82-1.3c29.19,40.7,53.49,54.82,53.73,55Z"/><path class="cls-3" d="M138.23,318c-.8-.24-19.78-6-27-16.37L113,300.3c6.82,9.73,25.67,15.45,25.86,15.51Z"/><g class="cls-4"><path class="cls-5" d="M68.34,176.88s39.06,134,58.31,150.24c6.06,5.13,18.53-23.48,30.54-56.88-6,9.82-14.94,18.62-19.74,18.62-6.73,0-14.47-103-15.87-122.47C99.52,164.54,78,166.15,68.34,176.88Z"/></g><g class="cls-6"><path class="cls-5" d="M207.91,142.84c-14.67-6.12-19-11.53-19-11.53L160.24,145.1l-46.62-38.54L93.4,160.38c-8.08-3.85-20.64-7.13-20.64-7.13L51.12,166.12s-13.62,13.06-5.6,30.22,34.21,9,40.73-1.45c1.79-2.86,3.9-6,5.93-9.28A14.87,14.87,0,0,0,102.59,193c14.5,2.79,18.51-8.21,19-12.23,0,0,.52,14.33,14.49,13.63s16.07-9.43,16.25-14.15c0,0,0-.08,0-.12a18,18,0,0,1,4.53,8.15c3.14,12.23,15.54,24.28,32.66,18.87,16.18-5.12,20.18-25.55,14.36-35.13,1.55,1.39,5,2.45,12-3.3C226.59,160,222.58,149,207.91,142.84Z"/></g><path d="M128.81,328.49a3.69,3.69,0,0,1-2.44-.93C107,311.19,69.22,182.14,67.62,176.66l-.21-.75.51-.58c10.14-11.26,33.42-14.37,69.2-9.24A395.39,395.39,0,0,1,187.55,177l1.32.4-.38,1.32c-.1.36-10.56,36.4-22.82,72.56-25,73.78-33,76.2-35.66,77A4.26,4.26,0,0,1,128.81,328.49ZM70.52,176.64c3.21,10.88,39.67,133.59,57.65,148.79a1,1,0,0,0,1,.21c3.46-1.05,12.46-12.21,33.83-75.22,10.91-32.18,20.39-64.25,22.39-71.1C174,176.06,92.6,153.91,70.52,176.64Z"/><path class="cls-7" d="M50.81,125.06s-25.15,2.1-33.12,12.58,1,22.41,11.65,22.59,16.41-5.41,16.41-5.41-9.42,6.41-5.59,12.5c5.33,8.48,29.28-8.77,29.28-8.77L89,140.09Z"/><path class="cls-8" d="M45.1,171.05a9.22,9.22,0,0,1-1.85-.17A6.19,6.19,0,0,1,39,168.06a7.46,7.46,0,0,1-.06-7.87,28.36,28.36,0,0,1-9.61,1.44,16.88,16.88,0,0,1-14.6-9.3c-2.46-5.07-1.78-10.73,1.87-15.53,8.25-10.85,33.06-13,34.12-13.13a1.33,1.33,0,0,1,.62.1l38.22,15a1.37,1.37,0,0,1,.86,1A1.42,1.42,0,0,1,90,141.1L70.4,159.57l-.14.12C69.57,160.18,54.35,171.05,45.1,171.05ZM45,157.16c-2.23,1.93-5.93,5.88-3.7,9.42a3.47,3.47,0,0,0,2.45,1.57c6.37,1.25,20-7.23,24.77-10.67l17.92-16.9-35.87-14.1c-2.9.29-24.78,2.75-31.81,12-3,4-3.6,8.49-1.59,12.64a14.06,14.06,0,0,0,12.15,7.72,24.05,24.05,0,0,0,14-3.93c.86-.73,1.5-1.17,1.6-1.24a1.39,1.39,0,0,1,1.75,2.15A13.32,13.32,0,0,1,45,157.16Z"/><path class="cls-9" d="M54.52,156.32s-13.62,13.05-5.59,30.22,34.2,9,40.73-1.45,17.38-25.36,13.09-30.58-26.59-11.07-26.59-11.07"/><path class="cls-8" d="M65.69,197.86c-.52,0-1,0-1.55-.05-7.62-.46-13.47-4.26-16.48-10.68-8.34-17.86,5.75-31.68,5.9-31.82a1.39,1.39,0,1,1,1.93,2c-.53.51-12.79,12.6-5.3,28.62,3.27,7,9.48,8.81,14.12,9.09,10.07.6,20.63-5,24.16-10.68.92-1.47,1.92-3,3-4.63,5.61-8.7,13.29-20.62,10.24-24.33-3.28-4-19.78-9-25.86-10.6a1.39,1.39,0,1,1,.7-2.69c2.33.61,22.87,6.11,27.32,11.52s-3,16.63-10.06,27.61c-1,1.59-2,3.14-2.93,4.6C86.62,192.57,75.4,197.86,65.69,197.86Z"/><path class="cls-9" d="M92.37,162.37s-.87,18,13.62,20.79,18.52-8.21,19-12.23c0,0,.52,14.32,14.5,13.63s16.06-9.44,16.24-14.15,18.86-26,18.86-26L117,96.76"/><path class="cls-8" d="M138.55,185.7a13.74,13.74,0,0,1-9.64-3.45,15.48,15.48,0,0,1-4.11-6.67,15.79,15.79,0,0,1-5,6.33c-3.65,2.64-8.35,3.43-14,2.34-15.27-2.94-14.53-21.74-14.52-21.93a1.13,1.13,0,0,1,1.16-1.06,1.11,1.11,0,0,1,1.06,1.17,28.34,28.34,0,0,0,1.34,9c2,6,5.82,9.56,11.38,10.63,5,1,9.12.31,12.25-1.95a14.52,14.52,0,0,0,5.47-9.32,1.09,1.09,0,0,1,1.16-1,1.11,1.11,0,0,1,1.06,1.07c0,.06.29,6.08,4.29,9.73,2.25,2.06,5.29,3,9,2.82,12.17-.61,15-7.44,15.18-13.07.17-4.56,14-20.83,18.39-25.86L116.31,97.62a1.12,1.12,0,1,1,1.42-1.72l57.61,47.63a1.1,1.1,0,0,1,.4.77,1.08,1.08,0,0,1-.27.82c-7.12,8.12-18.47,22.18-18.59,25.33-.2,5.37-2.71,14.49-17.3,15.22Z"/><path class="cls-9" d="M144.59,164.3s12.58,1.92,15.72,14.14,15.54,24.28,32.66,18.87,20.61-27.95,13.27-36.68c0,0,2.45,7,13.1-1.75s6.64-19.73-8-25.85-19-11.52-19-11.52l-29,14"/><path class="cls-8" d="M184.71,200a24.51,24.51,0,0,1-12-3.1A29.31,29.31,0,0,1,159,178.79c-2.87-11.16-14.11-13-14.58-13.12a1.41,1.41,0,0,1-1.17-1.59,1.39,1.39,0,0,1,1.59-1.16c.55.08,13.52,2.21,16.86,15.18a26.48,26.48,0,0,0,12.39,16.39c5.51,3.06,11.91,3.57,18.5,1.49,7.13-2.26,12.54-8.08,14.83-16,1.81-6.23,1.33-12.75-1.12-17a5.33,5.33,0,0,1-1.33-2,1.38,1.38,0,0,1,.62-1.67,1.41,1.41,0,0,1,1.76.31,14.44,14.44,0,0,1,1.12,1.54,2.68,2.68,0,0,0,1,.5c2,.54,5.25-.87,9-4,4.08-3.35,5.95-7.09,5.4-10.84-.71-4.86-5.48-9.47-13.09-12.64-11.67-4.86-17-9.32-18.81-11.12l-28.08,13.53a1.39,1.39,0,0,1-1.21-2.51l29-14a1.39,1.39,0,0,1,1.68.38c0,.05,4.44,5.26,18.49,11.12,8.53,3.55,13.92,8.95,14.78,14.81.49,3.32-.22,8.34-6.4,13.4-4,3.26-7.4,4.85-10.18,4.7a27.06,27.06,0,0,1,0,16.13c-2.56,8.8-8.63,15.3-16.67,17.84A28.77,28.77,0,0,1,184.71,200Z"/><path class="cls-9" d="M53.75,149S25.24,135.54,35.3,87.33,84.38,13.5,135.92,15.64c50.77,2.11,88,48.88,82.59,94.75-4.39,37.16-22.4,35.11-22.4,35.11"/><path class="cls-8" d="M53.75,150.35a1.41,1.41,0,0,1-.6-.13c-.3-.14-7.56-3.64-13.58-13.26C29.62,121.07,31,101,33.94,87.05c10-47.83,48.12-75,102-72.8,24.43,1,46.87,12.1,63.17,31.22,15.87,18.62,23.43,42.34,20.74,65.08-4.5,38.09-23.15,36.43-23.94,36.33a1.38,1.38,0,0,1-1.23-1.54,1.41,1.41,0,0,1,1.54-1.23c.16,0,4.15.37,8.71-3.47,4.34-3.65,10-11.89,12.15-30.41,2.6-22-4.73-44.92-20.09-62.95C181.24,28.76,159.51,18,135.86,17c-52.44-2.17-89.52,24.21-99.2,70.59-9.72,46.59,17.4,59.95,17.68,60.08a1.39,1.39,0,0,1-.59,2.65Z"/><path class="cls-9" d="M68.19,145.12S66.6,156.78,78,156.52s14.85-5.7,22.41-4.38,10.87,9.28,24.39,8.22,14.19-9,14.19-9"/><path class="cls-10" d="M122.38,161.58c-7.23,0-11.38-2.66-15.09-5-2.39-1.53-4.46-2.85-7.07-3.31-3.51-.62-6,.35-9.25,1.57A35.39,35.39,0,0,1,78,157.63c-3.67.09-6.46-1-8.38-3.1-3.32-3.72-2.6-9.33-2.56-9.56a1.12,1.12,0,1,1,2.21.3s-.61,4.85,2,7.78c1.46,1.63,3.7,2.43,6.65,2.35a33.29,33.29,0,0,0,12.19-2.68c3.39-1.28,6.32-2.39,10.43-1.67,3.06.53,5.41,2,7.89,3.62,4,2.57,8.15,5.21,16.23,4.58,12.31-1,13.13-7.72,13.16-8a1.13,1.13,0,0,1,1.21-1,1.12,1.12,0,0,1,1,1.2c0,.36-.91,8.91-15.21,10C124,161.54,123.18,161.58,122.38,161.58Z"/><path class="cls-9" d="M142.57,142.33s9.28,13.26,25.46,12.6,16.3-11,16.3-11"/><path class="cls-10" d="M166.83,156.07c-15.82,0-24.79-12.55-25.17-13.1a1.11,1.11,0,0,1,1.82-1.28c.09.13,9.15,12.76,24.5,12.12,14.84-.6,15.23-9.53,15.24-9.91a1.16,1.16,0,0,1,1.13-1.09,1.11,1.11,0,0,1,1.1,1.13c0,.11-.35,11.4-17.38,12.1Z"/><path class="cls-7" d="M47,66.17s-15.18,36.34-6,58.57S59.5,143.18,59.5,143.18s10.58-1.17,16.81-6c0,0-7.63,12.9,2.4,13.36s15.87-5.23,20.43-4.77,13.56,17.81,34.28,4.77c0,0-22.41,11.34-36-21.88,0,0-32.61,19.65-29.63-18.7C67.77,110,45.89,115.36,47,66.17Z"/><path class="cls-11" d="M179.62,35.44s-23.13-17.59-51.31-13.92S103,37.27,103,37.27s5.42,12.1,3.25,15.39,1.45,20.53,28.18,23.46,3.26,27.85,26,32.61,50.58-4.76,48.77-23.08S200.6,51.32,179.62,35.44Z"/><path class="cls-12" d="M96.79,72.88s-15.4.88-17.65,2.55S69.72,91,69.62,94.06,90,89.16,90,89.16,97.87,75,96.79,72.88Z"/><path d="M71,95.28a2.66,2.66,0,0,1-1.44-.3,1.1,1.1,0,0,1-.47-.93c.11-3.19,7.3-17.26,9.75-19.07s16.36-2.57,18-2.66a.56.56,0,0,1,.53.31c1.12,2.24-4.9,13.43-6.78,16.8a.57.57,0,0,1-.28.25C87.56,90.71,75.52,95.28,71,95.28ZM96.36,73.46c-6.14.37-15.37,1.29-16.89,2.41-2.17,1.61-9.2,15.39-9.29,18.21.94,1,10.8-2,19.45-5.37C93.13,82.41,96.4,75.35,96.36,73.46Z"/><path class="cls-12" d="M130.33,47.87s-4.13-3.49-6.09-3.16-7,6.53-7,7.51.43,7.72,9.79,6.52,11.86-6.2,10.33-7.28A71.67,71.67,0,0,0,130.33,47.87Z"/><path d="M125,59.44a8.6,8.6,0,0,1-5.88-1.89,7.37,7.37,0,0,1-2.36-5.33c0-1.3,5.27-7.7,7.43-8.06s5.82,2.68,6.48,3.23a70.55,70.55,0,0,1,7.1,3.61,1.79,1.79,0,0,1,.56,2c-.61,2.42-4.36,5.43-11.15,6.3A18.65,18.65,0,0,1,125,59.44Zm-.43-14.19h-.2c-1.64.27-6.33,6-6.49,7a6.3,6.3,0,0,0,2,4.47c1.57,1.39,4,1.89,7.18,1.48,6.7-.86,9.78-3.73,10.21-5.46,0-.19.13-.64-.13-.82a71.93,71.93,0,0,0-7-3.54.46.46,0,0,1-.13-.08C128.53,47.07,125.85,45.25,124.53,45.25Z"/><path class="cls-12" d="M148.28,34.38s-2.94,1.19-2.72,2.17,1.85,5.22,5.66,5.44,3.59-4.35,1.63-4.68S148.28,34.38,148.28,34.38Z"/><path d="M151.48,42.56h-.29c-4.09-.24-5.91-4.7-6.17-5.88s2-2.4,3-2.81a.57.57,0,0,1,.61.12c.69.69,2.8,2.54,4.26,2.78s2,1.72,1.83,3A3.07,3.07,0,0,1,151.48,42.56ZM148.16,35c-1.06.47-2,1.12-2,1.41.22,1,1.75,4.79,5.14,5,2,.1,2.36-1.32,2.41-1.76.1-.89-.32-1.72-.9-1.82C151,37.57,148.91,35.73,148.16,35Z"/><path class="cls-12" d="M87.15,58.31s-4.57-.65-4.57.43-1.2,8.71,2.83,7.94,8.26-6.31,7.39-7S87.15,58.31,87.15,58.31Z"/><path d="M84.86,67.3a2.42,2.42,0,0,1-1.66-.62c-1.68-1.52-1.37-5.4-1.22-7.27,0-.3,0-.53,0-.67a.93.93,0,0,1,.34-.71c.89-.77,4-.4,4.87-.27h0c.83.13,5,.82,5.91,1.52a1,1,0,0,1,.29,1.08c-.39,1.68-4.1,6.15-7.92,6.87A3.69,3.69,0,0,1,84.86,67.3Zm-1.73-8.46c0,.16,0,.38,0,.66-.11,1.42-.42,5.2.86,6.35a1.52,1.52,0,0,0,1.35.29c3.5-.66,6.88-5,7.06-6a28.45,28.45,0,0,0-5.3-1.24A10.3,10.3,0,0,0,83.13,58.84Z"/><path class="cls-12" d="M173.49,57.22s-.86-2.84-3.61-2.93-14.36.86-14.28,2.67a7.44,7.44,0,0,0,3.7,6.2c2.75,1.47,12.64,11.11,18.4,9.21s4.47-7.74,2.41-8.43S173.57,58.34,173.49,57.22Z"/><path d="M176.07,73.18c-4.46,0-10.1-4.34-14-7.34a32.14,32.14,0,0,0-3-2.19,7.94,7.94,0,0,1-4-6.66,1.07,1.07,0,0,1,.35-.83c1.79-1.82,12.57-2.49,14.49-2.42,3.12.09,4.09,3.19,4.13,3.32a.5.5,0,0,1,0,.12c.11.81,4.3,5.58,6.24,6.23,1.22.4,2.14,2.09,2.13,3.91,0,2.57-1.7,4.65-4.53,5.58A5.76,5.76,0,0,1,176.07,73.18Zm-6.74-18.34c-3.86,0-12.63,1-13.18,2.15a7,7,0,0,0,3.41,5.68A29.31,29.31,0,0,1,162.75,65c4,3.07,10.7,8.22,14.78,6.88,3.39-1.11,3.76-3.53,3.77-4.52,0-1.48-.71-2.64-1.37-2.86-2.16-.72-6.71-5.59-7-7.11a3.55,3.55,0,0,0-3.08-2.5Z"/><path class="cls-12" d="M122.58,84.39s-3.22-4.12-10.07-2.81-.2,6.14,2.32,6.14,6.24,1.1,7.25-.2S123.48,84.7,122.58,84.39Z"/><path d="M120,88.71a23.63,23.63,0,0,1-2.65-.22,22,22,0,0,0-2.55-.22c-1.91,0-5.67-2.28-5.87-4.43-.09-1,.43-2.24,3.45-2.81,6.52-1.25,9.89,2.19,10.51,2.9a1.28,1.28,0,0,1,.65.77c.29.94-.35,2.25-1,3.16A3,3,0,0,1,120,88.71Zm-4.89-6.84a13.76,13.76,0,0,0-2.52.25c-1,.19-2.64.65-2.55,1.61.14,1.48,3.36,3.43,4.76,3.43a23.57,23.57,0,0,1,2.68.22c1.62.2,3.63.44,4.12-.2A3.18,3.18,0,0,0,122.5,85a.14.14,0,0,0-.1-.11.58.58,0,0,1-.26-.18A9,9,0,0,0,115.14,81.87Z"/><path class="cls-12" d="M153,91.14s-4.13-3.62-6.24-3-10.17,9-11.28,9.66-2.61,3.33-.8,3.73,6.14,5,15.2,3.42,9.77-9.06,8.56-9.76S153,91.14,153,91.14Z"/><path d="M146.19,105.83a18.88,18.88,0,0,1-10.09-3,7.76,7.76,0,0,0-1.56-.79,1.49,1.49,0,0,1-1.25-1.22c-.22-1.26,1-3,1.87-3.52.33-.2,1.55-1.37,2.85-2.6,3.85-3.66,7.15-6.72,8.58-7.13,2.33-.66,6.25,2.69,6.75,3.13.25.19,4.23,3.32,5.36,4,.77.44.83,1.78.63,2.89-.55,3.11-3.3,6.82-9.37,7.9A21.67,21.67,0,0,1,146.19,105.83Zm1.08-17.22a1.17,1.17,0,0,0-.38,0c-1.28.36-5.56,4.43-8.11,6.86a35.25,35.25,0,0,1-3,2.73,3.39,3.39,0,0,0-1.38,2.38c0,.09.05.26.4.33a7.51,7.51,0,0,1,1.88.92,17.59,17.59,0,0,0,13.1,2.5c6.16-1.09,7.87-4.8,8.32-6.34a3.16,3.16,0,0,0,0-2.4c-1.21-.71-5.31-3.93-5.48-4.06l0,0C151.23,90.35,148.7,88.61,147.27,88.61Z"/><path class="cls-12" d="M181,115s-1.36-3.42-4.08-3.31-6.35,2-6.3,3.64,1.52,6.63,5.82,5.65S182.4,118.46,181,115Z"/><path d="M175.39,121.64a4.23,4.23,0,0,1-2.68-.92,7.81,7.81,0,0,1-2.6-5.39c-.08-2.25,4.09-4.11,6.83-4.22h.15c3,0,4.41,3.52,4.47,3.67h0a4.58,4.58,0,0,1,.12,3.92c-.68,1.29-2.25,2.16-5.08,2.8A5.17,5.17,0,0,1,175.39,121.64Zm1.7-9.41H177c-2.72.11-5.8,1.94-5.77,3.06a6.87,6.87,0,0,0,2.17,4.55,3.39,3.39,0,0,0,3,.57c2.45-.55,3.83-1.26,4.35-2.23a3.62,3.62,0,0,0-.18-3C180.49,115.11,179.29,112.23,177.09,112.23Z"/><path class="cls-12" d="M199,90.75s-8.39-.69-9.2-.31-3.21,2.65-2.55,3.83a5.43,5.43,0,0,0,4.52,2.56c1.9-.13,8.75-2.78,8.82-3.68S200.72,90.75,199,90.75Z"/><path d="M191.49,97.39a6.11,6.11,0,0,1-4.78-2.85,1.7,1.7,0,0,1-.07-1.39,7,7,0,0,1,2.88-3.22c.85-.39,6.87,0,9.45.26a2.13,2.13,0,0,1,1.61.61,3.1,3.1,0,0,1,.52,2.36c0,.35-.08,1-4.07,2.64a23,23,0,0,1-5.28,1.58Zm-.4-6.51A5,5,0,0,0,190,91a6.15,6.15,0,0,0-2.27,2.55.67.67,0,0,0,0,.5,4.88,4.88,0,0,0,4,2.27c1.88-.12,7.68-2.5,8.31-3.24a2.16,2.16,0,0,0-.23-1.47,1.31,1.31,0,0,0-.86-.25C196,91.07,192.76,90.88,191.09,90.88ZM200,93.11Z"/><path class="cls-13" d="M64.94,66.63s-3.65-5.51-4.25-5.39S50.8,71.3,51.1,74s1.68,4.91,6.53,2.93,6.95-2.75,7.07-4S67.28,69.86,64.94,66.63Z"/><path class="cls-13" d="M47.66,96.68a6.88,6.88,0,0,0-8.62-2c-5.63,2.39-7.61,6.41-4.31,6.7s7.06,1.14,8.8.12S48.74,100.7,47.66,96.68Z"/><path d="M41,102.52a34,34,0,0,1-4-.35c-.77-.09-1.55-.19-2.3-.26-1.69-.15-2-1.15-2.09-1.57-.3-1.9,2.38-4.57,6.23-6.21a7.51,7.51,0,0,1,9.31,2.24l.07.17c1,3.55-1.34,4.31-3,4.87a7.37,7.37,0,0,0-1.37.55A5.6,5.6,0,0,1,41,102.52Zm1.27-8a7.65,7.65,0,0,0-3,.67c-3.89,1.65-5.73,4-5.57,5,.07.44.63.59,1.09.63.76.07,1.55.17,2.34.27,2.44.3,5,.61,6.13-.08a8.56,8.56,0,0,1,1.58-.64c1.64-.54,2.94-1,2.32-3.43A6.21,6.21,0,0,0,42.28,94.49Z"/><path class="cls-12" d="M113,114.94s-11.21-.93-11.21.93,4.5,5.28,5.86,5.85,4.28,2.92,7.13.21,4.42-6.2,1.93-6.2A7.21,7.21,0,0,1,113,114.94Z"/><path d="M111.83,123.77a8,8,0,0,1-3.69-1.18c-.27-.14-.51-.27-.71-.36-1.24-.52-6.19-4.06-6.19-6.36a1.05,1.05,0,0,1,.36-.79c1.56-1.43,9.81-.83,11.44-.69a.5.5,0,0,1,.26.08h0a6.86,6.86,0,0,0,3.41.7,1.63,1.63,0,0,1,1.68,1c.62,1.57-1.23,4.32-3.23,6.21A4.73,4.73,0,0,1,111.83,123.77Zm-4.29-8.51c-2.84,0-4.91.23-5.2.66,0,1.4,4.14,4.7,5.52,5.28a8.82,8.82,0,0,1,.8.41c1.53.81,3.63,1.92,5.74-.08s3.25-4.24,2.95-5c0-.06-.1-.26-.64-.26a8.44,8.44,0,0,1-3.88-.79C111,115.33,109.13,115.26,107.54,115.26Z"/><path class="cls-12" d="M70.07,164.15s-5.5-.91-6.34,1.32-.55,4.67,3.35,5.72,7.66-1.33,7.66-2.86S74.11,165.06,70.07,164.15Z"/><path d="M69.06,172a8.46,8.46,0,0,1-2.13-.27,5.52,5.52,0,0,1-3.72-2.54,4.73,4.73,0,0,1,0-3.91c1-2.59,6.34-1.78,6.95-1.68h0c3.48.78,5.11,2.28,5.11,4.72a2.9,2.9,0,0,1-1.34,2.1A8.34,8.34,0,0,1,69.06,172Zm-1.38-7.47c-1.48,0-3.09.24-3.43,1.14a3.71,3.71,0,0,0,0,3,4.52,4.52,0,0,0,3,2,7.3,7.3,0,0,0,6.06-1.11c.66-.51.9-1,.9-1.21,0-1.33-.5-2.8-4.21-3.63A15.82,15.82,0,0,0,67.68,164.53Z"/><path class="cls-12" d="M107.11,27.76s-9.43-3.58-10.37-3.58-9.44,5.28-9.25,6.6,1.7,6,8.49,6.23,19.81-2.27,20.19-4.72,4.15-3.39-2.45-4Z"/><path d="M96.62,37.57H96c-8-.23-9-6.44-9-6.71a1.61,1.61,0,0,1,.54-1.23c1.69-1.95,8.16-6,9.26-6s8.18,2.72,10.5,3.6l6.53.56c2.88.24,4,.56,4.28,1.26s-.13,1.16-.52,1.71a4.1,4.1,0,0,0-.81,1.63C116.24,35.52,102.75,37.57,96.62,37.57Zm.11-12.83c-1.24.19-8.43,4.94-8.69,6,0,.16.88,5.49,8,5.68,7.77.21,19.36-2.56,19.62-4.24a4.94,4.94,0,0,1,1-2.11,2.83,2.83,0,0,0,.41-.66,10.68,10.68,0,0,0-3.36-.55l-6.6-.57a.66.66,0,0,1-.15,0C102.45,26.59,97.37,24.77,96.73,24.74Z"/><path class="cls-12" d="M74,44.4s-.89-3.12-3.56-2.9-6,.89-6,2.67-5.33,5.34,2,5.12S74.88,48.18,74,44.4Z"/><path d="M65.8,49.86c-2.08,0-3.21-.36-3.64-1.12-.51-.93.2-2,.89-3a4.18,4.18,0,0,0,.82-1.55c0-2.21,3.54-3,6.51-3.22,2.48-.22,3.79,2.06,4.14,3.29a0,0,0,0,1,0,0c.32,1.35.51,2.75-.27,3.76-.92,1.21-2.9,1.67-7.82,1.82Zm4.89-7.81h-.21c-3.39.28-5.5,1.09-5.5,2.11a4.5,4.5,0,0,1-1,2.18c-.43.64-1,1.51-.84,1.85.08.15.55.62,3.27.53,3.63-.11,6.21-.39,7-1.38.4-.51.42-1.33.07-2.81C73.39,44.33,72.65,42.05,70.69,42.05Z"/><path class="cls-12" d="M142.23,13.11s-6-2.18-7.36-.27-.82,7.63,6.27,7.63,9-1.9,7.36-3.81S142.23,13.11,142.23,13.11Z"/><path d="M141.14,21c-4.4,0-6.14-2.12-6.79-3.39a5.18,5.18,0,0,1,.06-5.12c1.57-2.19,7.34-.17,8,.07.22.08,4.79,1.71,6.5,3.7a2.13,2.13,0,0,1,.52,2.36C148.72,20.21,145.85,21,141.14,21Zm-4-8.41a2.14,2.14,0,0,0-1.77.55,4.14,4.14,0,0,0,0,4c.65,1.27,2.19,2.79,5.8,2.79,4.78,0,6.9-.9,7.28-1.73.15-.33,0-.72-.35-1.17-1.52-1.77-6-3.36-6-3.38h0A16.31,16.31,0,0,0,137.09,12.62Z"/><path class="cls-12" d="M206.73,66.84s2.22-3.74-1.39-6.1-6.94-.42-6.94,1,.69,5,4,5S205.06,68.23,206.73,66.84Z"/><path d="M205.68,68a1.9,1.9,0,0,1-.83-.23,4.82,4.82,0,0,0-2.43-.49c-3.36,0-4.58-3.32-4.58-5.55a2.52,2.52,0,0,1,1.54-2,6.11,6.11,0,0,1,6.26.59,4.94,4.94,0,0,1,1.56,6.86.53.53,0,0,1-.12.14A2.24,2.24,0,0,1,205.68,68Zm-3.8-7.79a4.12,4.12,0,0,0-2,.47c-.63.34-1,.78-1,1.05,0,0,0,4.44,3.47,4.44a6,6,0,0,1,2.9.59c.39.18.42.2,1-.26A3.87,3.87,0,0,0,205,61.2,5.77,5.77,0,0,0,201.88,60.19Zm4.85,6.65h0Z"/><path class="cls-12" d="M210.22,99.94s1-6.73,4.33-6.89,8.5-1.76,6.9,3.21-3.37,12.34-7.86,12.82S210.22,99.94,210.22,99.94Z"/><path d="M213.27,109.66a2.82,2.82,0,0,1-2.07-.86c-2.27-2.3-1.56-8.65-1.53-8.92v0c0-.29,1.07-7.19,4.86-7.37.58,0,1.22-.1,1.86-.17,2.16-.24,4.4-.5,5.42.75.6.74.66,1.84.17,3.36-.17.53-.35,1.09-.53,1.67-1.53,4.93-3.43,11.07-7.8,11.54ZM210.78,100c-.2,1.69-.36,6.4,1.22,8a1.74,1.74,0,0,0,1.53.52c3.64-.39,5.43-6.14,6.86-10.76.18-.58.35-1.15.53-1.69.36-1.11.37-1.88,0-2.3-.64-.78-2.66-.55-4.44-.35-.66.07-1.33.15-1.93.18C212.2,93.72,211,98.26,210.78,100Z"/><path class="cls-7" d="M94.33,93a.49.49,0,0,1,1,0c.68,3.85,2.8,9.28,9.34,9.28,8.11,0,11.71-1.12,14.81-5.32a.49.49,0,0,1,.85.46c-1.93,4.7-5.94,11.7-12.75,12.2-8.57.63-12.7-2.29-14.05-7.37C93.15,101,93.79,96.38,94.33,93Z"/><path class="cls-7" d="M143.55,138.3S155.2,152.87,169.38,150s15.16-17.67,14.38-19.62C183.76,130.33,173.7,156.15,143.55,138.3Z"/><path class="cls-7" d="M91,174.38c-5.38,10.23-29,16-34.55,1.85-2-5.14-3.77-17.13,11.19-27.52l-11.36,5s-12.47,14.25-7,30c2.09,2.64,4.1,5.25,7.61,6.32C81.65,197.57,91,174.38,91,174.38Z"/><path class="cls-9" d="M56.22,146.15s-4.88,1.82-4.52,5.08.25,6.65,7.82,4.3,7.08-6.25,5.61-8.47S56.22,146.15,56.22,146.15Z"/><path class="cls-7" d="M158.79,165.07s7.71,17.29,22.57,18.31c13.69.94,24.58-9.07,22.4-19.71,0,0,4.32,24.71-14.26,27.54-15.36,2.34-20.36-5.35-24.1-12.23S158.79,165.07,158.79,165.07Z"/><path class="cls-7" d="M119.32,169.25s-5.67,4.71-12.2.86-10-10.7-11.76-8.56,2,11,5,13.91c1.52,1.5,6.75,6.63,14.59,2.78S121.49,170.11,119.32,169.25Z"/><path class="cls-7" d="M128,169.76s6.6,6.43,18.09.64,3.15,10.29-4,10.29S127.1,179.41,128,169.76Z"/><path class="cls-11" d="M122.11,125.91s7.72,8.21,11.52,7.64-3.45-14.2-8.33-13.24S122.11,125.91,122.11,125.91Z"/><g class="cls-14"><path class="cls-13" d="M146.85,88s-3.67,10.57.74,11.34,1.81,4.92,9.58,1.82-16.69,18.11-16.69,18.11l-24.72-18.84Z"/></g><path d="M146.19,105.83a18.88,18.88,0,0,1-10.09-3,7.76,7.76,0,0,0-1.56-.79,1.49,1.49,0,0,1-1.25-1.22c-.22-1.26,1-3,1.87-3.52.33-.2,1.55-1.37,2.85-2.6,3.85-3.66,7.15-6.72,8.58-7.13,2.33-.66,6.25,2.69,6.75,3.13.25.19,4.23,3.32,5.36,4,.77.44.83,1.78.63,2.89-.55,3.11-3.3,6.82-9.37,7.9A21.67,21.67,0,0,1,146.19,105.83Zm1.08-17.22a1.17,1.17,0,0,0-.38,0c-1.28.36-5.56,4.43-8.11,6.86a35.25,35.25,0,0,1-3,2.73,3.39,3.39,0,0,0-1.38,2.38c0,.09.05.26.4.33a7.51,7.51,0,0,1,1.88.92,17.59,17.59,0,0,0,13.1,2.5c6.16-1.09,7.87-4.8,8.32-6.34a3.16,3.16,0,0,0,0-2.4c-1.21-.71-5.31-3.93-5.48-4.06l0,0C151.23,90.35,148.7,88.61,147.27,88.61Z"/><g class="cls-15"><path class="cls-13" d="M91.72,25s.82,7.56,6.87,7.7,18.84-.28,22.42-.28S101.07,44,101.07,44L79.76,37Z"/></g><path d="M96.62,37.57H96c-8-.23-9-6.44-9-6.71a1.61,1.61,0,0,1,.54-1.23c1.69-1.95,8.16-6,9.26-6s8.18,2.72,10.5,3.6l6.53.56c2.88.24,4,.56,4.28,1.26s-.13,1.16-.52,1.71a4.1,4.1,0,0,0-.81,1.63C116.24,35.52,102.75,37.57,96.62,37.57Zm.11-12.83c-1.24.19-8.43,4.94-8.69,6,0,.16.88,5.49,8,5.68,7.77.21,19.36-2.56,19.62-4.24a4.94,4.94,0,0,1,1-2.11,2.83,2.83,0,0,0,.41-.66,10.68,10.68,0,0,0-3.36-.55l-6.6-.57a.66.66,0,0,1-.15,0C102.45,26.59,97.37,24.77,96.73,24.74Z"/><g class="cls-16"><path class="cls-13" d="M159.81,52.28s1.54,9.44,5.38,10.53,7.24,5.71,10.21,5.82,9.54-1.43,9.54-1.43l-6.58,13-25.9-11.08-7.57-14.49Z"/></g><path d="M176.07,73.18c-4.46,0-10.1-4.34-14-7.34a32.14,32.14,0,0,0-3-2.19,7.94,7.94,0,0,1-4-6.66,1.07,1.07,0,0,1,.35-.83c1.79-1.82,12.57-2.49,14.49-2.42,3.12.09,4.09,3.19,4.13,3.32a.5.5,0,0,1,0,.12c.11.81,4.3,5.58,6.24,6.23,1.22.4,2.14,2.09,2.13,3.91,0,2.57-1.7,4.65-4.53,5.58A5.76,5.76,0,0,1,176.07,73.18Zm-6.74-18.34c-3.86,0-12.63,1-13.18,2.15a7,7,0,0,0,3.41,5.68A29.31,29.31,0,0,1,162.75,65c4,3.07,10.7,8.22,14.78,6.88,3.39-1.11,3.76-3.53,3.77-4.52,0-1.48-.71-2.64-1.37-2.86-2.16-.72-6.71-5.59-7-7.11a3.55,3.55,0,0,0-3.08-2.5Z"/><g class="cls-17"><path class="cls-13" d="M124.53,44.85s-1.85,5.75.72,7.31,5,5.26,11.09,3.84-4.41,12.09-4.41,12.09l-25-3.41,4.69-16.22Z"/></g><path d="M125,59.44a8.6,8.6,0,0,1-5.88-1.89,7.37,7.37,0,0,1-2.36-5.33c0-1.3,5.27-7.7,7.43-8.06s5.82,2.68,6.48,3.23a70.55,70.55,0,0,1,7.1,3.61,1.79,1.79,0,0,1,.56,2c-.61,2.42-4.36,5.43-11.15,6.3A18.65,18.65,0,0,1,125,59.44Zm-.43-14.19h-.2c-1.64.27-6.33,6-6.49,7a6.3,6.3,0,0,0,2,4.47c1.57,1.39,4,1.89,7.18,1.48,6.7-.86,9.78-3.73,10.21-5.46,0-.19.13-.64-.13-.82a71.93,71.93,0,0,0-7-3.54.46.46,0,0,1-.13-.08C128.53,47.07,125.85,45.25,124.53,45.25Z"/><g class="cls-18"><path class="cls-13" d="M82,73.85s-4.2,9.84-3.37,11.08,6.14.85,6.14.85a40.3,40.3,0,0,1,6.45-1c2.07,0,7.68.83,7.68.83L93.1,99.88,52.21,103S72.67,69.08,82,73.85Z"/></g><path d="M71,95.28a2.66,2.66,0,0,1-1.44-.3,1.1,1.1,0,0,1-.47-.93c.11-3.19,7.3-17.26,9.75-19.07s16.36-2.57,18-2.66a.56.56,0,0,1,.53.31c1.12,2.24-4.9,13.43-6.78,16.8a.57.57,0,0,1-.28.25C87.56,90.71,75.52,95.28,71,95.28ZM96.36,73.46c-6.14.37-15.37,1.29-16.89,2.41-2.17,1.61-9.2,15.39-9.29,18.21.94,1,10.8-2,19.45-5.37C93.13,82.41,96.4,75.35,96.36,73.46Z"/><g class="cls-19"><path class="cls-13" d="M113.55,113.06s-3.19,5-.46,5.64a10.18,10.18,0,0,1,4.49,2.54l-3.47,7.42-18-3-.28-10.94,5.74-1Z"/></g><path d="M111.85,123.65a8,8,0,0,1-3.69-1.17c-.27-.15-.51-.27-.71-.36-1.24-.52-6.19-4.06-6.19-6.36a1.05,1.05,0,0,1,.36-.79c1.56-1.44,9.8-.83,11.44-.7a.54.54,0,0,1,.25.09h0a6.93,6.93,0,0,0,3.42.7,1.64,1.64,0,0,1,1.68,1c.62,1.57-1.24,4.31-3.23,6.2A4.69,4.69,0,0,1,111.85,123.65Zm-4.29-8.5c-2.84,0-4.92.23-5.2.66,0,1.39,4.14,4.7,5.52,5.28a8.82,8.82,0,0,1,.8.41c1.53.81,3.63,1.92,5.73-.08s3.26-4.24,3-5c0-.06-.1-.26-.64-.26a8.21,8.21,0,0,1-3.88-.8C111,115.22,109.14,115.15,107.56,115.15Z"/><g class="cls-20"><path class="cls-13" d="M85.37,57.21s1.34,5.16,2.61,5.16,5,1.87,5,1.87l-2.75,4.15-11.44.07.8-13.12Z"/></g><path d="M84.86,67.3a2.42,2.42,0,0,1-1.66-.62c-1.68-1.52-1.37-5.4-1.22-7.27,0-.3,0-.53,0-.67a.93.93,0,0,1,.34-.71c.89-.77,4-.4,4.87-.27h0c.83.13,5,.82,5.91,1.52a1,1,0,0,1,.29,1.08c-.39,1.68-4.1,6.15-7.92,6.87A3.69,3.69,0,0,1,84.86,67.3Zm-1.73-8.46c0,.16,0,.38,0,.66-.11,1.42-.42,5.2.86,6.35a1.52,1.52,0,0,0,1.35.29c3.5-.66,6.88-5,7.06-6a28.45,28.45,0,0,0-5.3-1.24A10.3,10.3,0,0,0,83.13,58.84Z"/><g class="cls-21"><path class="cls-12" d="M57.14,60.38s-.41,9.23.82,10.13,5.89-1.39,5.89-1.39l4.82-2.37-.82-6.46-6-1.63Z"/></g><path d="M54.36,77.6a3.77,3.77,0,0,1-2-.5,4.59,4.59,0,0,1-1.92-3.69c-.32-2.87,8.89-13.15,10-13.37.36-.08,1-.19,4.82,5.62a4.73,4.73,0,0,1,.26,5.72,3,3,0,0,0-.4.94c-.15,1.52-2,2.29-6.6,4.14l-.82.34A9.32,9.32,0,0,1,54.36,77.6Zm6.28-16.37c-1.58,1.32-9.3,9.92-9.06,12.05.16,1.47.61,2.41,1.37,2.86.94.56,2.41.43,4.39-.38l.82-.33c3.75-1.53,5.82-2.37,5.91-3.22a3.77,3.77,0,0,1,.52-1.36,3.64,3.64,0,0,0-.18-4.55l0,0A42.91,42.91,0,0,0,60.64,61.23Z"/><path class="cls-12" d="M42,95.27s-1.35.49-1.17.88,3,2.06,4.05,1.18S42.92,95.19,42,95.27Z"/><g class="cls-22"><path class="cls-13" d="M66.83,40.78s-1.3,4.9-.9,5,2.59,2.29,4.79,2.09a11.66,11.66,0,0,0,4.7-2l-1,6.09L57.53,53l1.2-10.19Z"/></g><path d="M65.8,49.86c-2.08,0-3.21-.36-3.64-1.12-.51-.93.2-2,.89-3a4.18,4.18,0,0,0,.82-1.55c0-2.21,3.54-3,6.51-3.22,2.48-.22,3.79,2.06,4.14,3.29a0,0,0,0,1,0,0c.32,1.35.51,2.75-.27,3.76-.92,1.21-2.9,1.67-7.82,1.82Zm4.89-7.81h-.21c-3.39.28-5.5,1.09-5.5,2.11a4.5,4.5,0,0,1-1,2.18c-.43.64-1,1.51-.84,1.85.08.15.55.62,3.27.53,3.63-.11,6.21-.39,7-1.38.4-.51.42-1.33.07-2.81C73.39,44.33,72.65,42.05,70.69,42.05Z"/><g class="cls-23"><path class="cls-13" d="M138.6,10.39s-2.59,5.41-.32,6.06,4,3.67,14.48.86-16.21,9.08-16.21,9.08l-11-10.48Z"/></g><path d="M141.14,21c-4.4,0-6.14-2.12-6.79-3.39a5.18,5.18,0,0,1,.06-5.12c1.57-2.19,7.34-.17,8,.07.22.08,4.79,1.71,6.5,3.7a2.13,2.13,0,0,1,.52,2.36C148.72,20.21,145.85,21,141.14,21Zm-4-8.41a2.14,2.14,0,0,0-1.77.55,4.14,4.14,0,0,0,0,4c.65,1.27,2.19,2.79,5.8,2.79,4.78,0,6.9-.9,7.28-1.73.15-.33,0-.72-.35-1.17-1.52-1.77-6-3.36-6-3.38h0A16.31,16.31,0,0,0,137.09,12.62Z"/><g class="cls-24"><path class="cls-13" d="M170.85,111.05s1.45,7,5.94,6.55,7.52-4.73,7.52-4.73L183.46,124,167,123.91Z"/></g><path d="M175.39,121.64a4.23,4.23,0,0,1-2.68-.92,7.81,7.81,0,0,1-2.6-5.39c-.08-2.25,4.09-4.11,6.83-4.22h.15c3,0,4.41,3.52,4.47,3.67h0a4.58,4.58,0,0,1,.12,3.92c-.68,1.29-2.25,2.16-5.08,2.8A5.17,5.17,0,0,1,175.39,121.64Zm1.7-9.41H177c-2.72.11-5.8,1.94-5.77,3.06a6.87,6.87,0,0,0,2.17,4.55,3.39,3.39,0,0,0,3,.57c2.45-.55,3.83-1.26,4.35-2.23a3.62,3.62,0,0,0-.18-3C180.49,115.11,179.29,112.23,177.09,112.23Z"/><path class="cls-25" d="M52.69,148.6s4.69-20.49-12.22-26.81-23.48-6-23.48-6-4.84,17.78,10.73,28.56C42.3,154.48,52.69,148.6,52.69,148.6Z"/><path d="M44.62,151.17c-4.47,0-10.46-1.3-17.37-6.09-15.88-11-11.11-29.28-11.06-29.46l.16-.58.6,0c.27,0,6.93-.3,23.81,6,17.4,6.5,12.8,27.56,12.75,27.77l-.08.36-.32.18A18.13,18.13,0,0,1,44.62,151.17Zm-27-34.49c-.69,3.23-2.9,17.72,10.55,27,7.29,5,13.44,5.89,17.34,5.74A17.77,17.77,0,0,0,52,148a32.45,32.45,0,0,0,.13-10.38c-1.21-7.5-5.22-12.57-11.91-15.07C26.51,117.47,19.63,116.77,17.65,116.68Z"/><g class="cls-26"><path class="cls-25" d="M51.81,148s-31.33-28.29-34.28-31.37"/><path class="cls-27" d="M51.81,148.81a.85.85,0,0,1-.56-.21c-1.28-1.16-31.39-28.35-34.32-31.42A.83.83,0,1,1,18.14,116c2.89,3,33.92,31,34.23,31.33a.83.83,0,0,1-.56,1.45Z"/><path class="cls-27" d="M31,130.39h-.09L17,128.84a.83.83,0,0,1,.18-1.66l13,1.44.22-9.55a.84.84,0,0,1,1.67,0l-.24,10.46a.83.83,0,0,1-.29.61A.86.86,0,0,1,31,130.39Z"/><path class="cls-27" d="M41.69,138.81h-.12L19,135.73a.84.84,0,1,1,.22-1.66L40.77,137l-1.14-15.14a.84.84,0,0,1,1.67-.13l1.22,16.18a.84.84,0,0,1-.26.67A.83.83,0,0,1,41.69,138.81Z"/><path class="cls-27" d="M27.72,145.23a.84.84,0,0,1,0-1.67l19.87-.39,1.17-13.92a.85.85,0,0,1,.9-.76.84.84,0,0,1,.77.9l-1.24,14.68a.84.84,0,0,1-.82.76l-20.62.4Z"/></g><path d="M44.62,151.17c-4.47,0-10.46-1.3-17.37-6.09-15.88-11-11.11-29.28-11.06-29.46l.16-.58.6,0c.27,0,6.93-.3,23.81,6,17.4,6.5,12.8,27.56,12.75,27.77l-.08.36-.32.18A18.13,18.13,0,0,1,44.62,151.17Zm-27-34.49c-.69,3.23-2.9,17.72,10.55,27,7.29,5,13.44,5.89,17.34,5.74A17.77,17.77,0,0,0,52,148a32.45,32.45,0,0,0,.13-10.38c-1.21-7.5-5.22-12.57-11.91-15.07C26.51,117.47,19.63,116.77,17.65,116.68Z"/><path class="cls-25" d="M53,150.29s21-.6,22.88-18.56-.12-24.22-.12-24.22-18.44-.22-25,17.55C44.71,141.7,53,150.29,53,150.29Z"/><path d="M52.66,151.14l-.25-.27c-.36-.36-8.6-9.16-2.38-26.1,6.64-18.1,25.56-18.13,25.75-18.09h.6l.18.57c.09.26,2,6.64.16,24.56-1.93,18.47-23.47,19.3-23.69,19.31Zm22.45-42.78c-3.29.14-17.88,1.63-23.51,17-3.06,8.32-2.35,14.5-1.21,18.22a17.32,17.32,0,0,0,3,5.86A32,32,0,0,0,63.45,147c7-3.05,10.86-8.2,11.61-15.31C76.57,117.14,75.52,110.3,75.11,108.36Z"/><g class="cls-26"><path class="cls-25" d="M53.38,149.28s19.53-37.42,21.78-41"/><path class="cls-27" d="M53.38,150.11a.83.83,0,0,1-.74-1.22c.8-1.53,19.57-37.49,21.81-41.1a.83.83,0,0,1,1.15-.27.84.84,0,0,1,.27,1.15c-2.2,3.56-21.55,40.62-21.74,41A.84.84,0,0,1,53.38,150.11Z"/><path class="cls-27" d="M66,125.36a.83.83,0,0,1-.48-.15.81.81,0,0,1-.35-.57l-2-13.87a.84.84,0,0,1,.7-1,.85.85,0,0,1,.95.71l1.87,13,9.3-2.18a.85.85,0,0,1,1,.63.84.84,0,0,1-.63,1L66.2,125.34Z"/><path class="cls-27" d="M60.53,137.8a.86.86,0,0,1-.44-.12.84.84,0,0,1-.39-.61L57,114.41a.84.84,0,0,1,.73-.93.83.83,0,0,1,.93.73l2.58,21.63,14.38-4.9a.83.83,0,1,1,.54,1.58L60.8,137.76A.84.84,0,0,1,60.53,137.8Z"/><path class="cls-27" d="M56.37,145.76a.84.84,0,0,1-.81-.61L50,125.29a.84.84,0,1,1,1.61-.45L57,144l13.77-2.35a.84.84,0,1,1,.28,1.65l-14.51,2.48Z"/></g><path d="M52.66,151.14l-.25-.27c-.36-.36-8.6-9.16-2.38-26.1,6.64-18.1,25.56-18.13,25.75-18.09h.6l.18.57c.09.26,2,6.64.16,24.56-1.93,18.47-23.47,19.3-23.69,19.31Zm22.45-42.78c-3.29.14-17.88,1.63-23.51,17-3.06,8.32-2.35,14.5-1.21,18.22a17.32,17.32,0,0,0,3,5.86A32,32,0,0,0,63.45,147c7-3.05,10.86-8.2,11.61-15.31C76.57,117.14,75.52,110.3,75.11,108.36Z"/></svg>