<?xml version="1.0" encoding="utf-8"?>
<!-- Generator: Adobe Illustrator 26.5.0, SVG Export Plug-In . SVG Version: 6.00 Build 0)  -->
<svg version="1.1" id="레이어_1" xmlns="http://www.w3.org/2000/svg" xmlns:xlink="http://www.w3.org/1999/xlink" x="0px"
	 y="0px" viewBox="0 0 250 250" style="enable-background:new 0 0 250 250;" xml:space="preserve">
<g>
	<g>
		<g>
			<path style="fill:#F5FF3B;" d="M182.4,231.6c9.6,2.5,18.3,8,27.9,10.6c6.1,1.7,20.3,1.8,17.2-10.8c-1.3-5.1-5.7-7.9-9.6-9.8
				c-4.8-2.5-9.5-4.4-14.6-6.1c-4.2-1.4-8.4-1.5-12.3-3.2c-3.9-1.7-7.4-2.2-10.2,2.5C178.4,219.3,178.5,226.2,182.4,231.6z"/>
			<path d="M216.5,244.7c-2.4,0-4.7-0.3-6.5-0.8c-4.9-1.2-9.6-3.3-14-5.4c-4.5-1.9-9.1-4-13.9-5.2c-0.4-0.1-0.6-0.3-0.8-0.6
				c-4.1-5.7-4.8-13.4-1.6-18.9c3.4-5.8,7.8-5,12-3.2c2.2,1,4.4,1.4,6.7,1.8c1.8,0.4,3.6,0.7,5.5,1.4c5.1,1.7,9.9,3.6,14.7,6.2
				c4.5,2.3,9,5.4,10.4,10.9c1.2,5.1-0.1,8.1-1.6,9.8C225,243.8,220.7,244.7,216.5,244.7z M183.3,230.1c4.8,1.2,9.3,3.3,13.8,5.2
				c4.4,1.9,9,4,13.6,5.2c4.3,1.1,11.7,1.2,14.6-2.2c1.2-1.5,1.6-3.6,0.8-6.5c-1.1-4.4-5-6.8-8.7-8.7c-4.7-2.5-9.3-4.4-14.4-5.9
				c-1.7-0.6-3.5-1-5.3-1.2c-2.4-0.4-4.8-1-7.3-1.9c-3.9-1.7-6.2-1.8-8.4,1.8C180.3,219.2,179.8,225,183.3,230.1z"/>
		</g>
		<g>
			<path style="fill:#DE3BFF;" d="M146.8,141.9l-35.1-19.7l-19,17.7c0.2,1.1-12.6,21.3-12.6,21.3l20.3,14.6c0,0,3.1,13.1,4.8,19.6
				c4.3,17.1,9.5,53.4,32.2,45.8c2-0.7,6.8-2.2,7.7-4.7c0.1,2.3,2.8,4.1,4.2,5.4c3.7,2.8,8.6,5.1,12.6,1.7c0,0,3.1,2.5,3.4,2.6
				c2.5,1.5,5.4,2.5,8.1,2.2c5.4-0.6,9.3-5.5,10.8-11.3c1.6-6.1-0.5-13.1-0.5-19.5c0-3.7-0.1-7.6,0-11.5c0.1-2.3,1.3-5.1,0.7-7.5
				c-0.4-1.5-1.8-2.8-2.5-4c-1.1-2.2-2.6-6.8,1.2-5.8c2.6,0.7,6,4.7,8.3,6.4c4.3,3.2,9.6,7.9,14.7,9.4c5,1.5,12.8,0.4,16.3-4.6
				c4.1-5.7-0.2-11.6-4.1-15.6c-9.7-10.2-20.7-18.8-31.5-27.5c-3.8-3.2-7.8-6.2-11.6-9.3C175.1,147.7,160.3,135,146.8,141.9z"/>
			<path d="M172.4,250c-2.5,0-5.1-0.8-7.9-2.5c-0.1-0.1-0.5-0.3-2.4-1.8c-0.1-0.1-0.2-0.1-0.4-0.3c-2.6,1.8-7.1,2.5-13.4-2.3l0,0
				c-1.2-0.8-2.8-2.1-3.7-3.6c-1.7,1.4-4.2,2.3-6.6,3.2h-0.2c-5.5,1.8-10.4,1.4-14.7-1.4c-10.4-6.8-14.6-25.4-17.8-39.1
				c-0.5-2.3-1.1-4.6-1.6-6.5c-1.4-5.7-3.9-16.3-4.7-19.1l-19.7-14.2c-0.4-0.3-0.6-0.7-0.7-1.1c-0.1-0.4,0-1,0.2-1.4
				c5.6-8.8,11.6-18.8,12.2-20.4c0-0.4,0.2-0.8,0.6-1.1l19-17.7c0.5-0.4,1.1-0.6,1.6-0.1l34.5,19.5c5.7-2.6,12.6-2.5,19.7,0.6
				c5.4,2.3,9.1,5.4,9.5,5.7c3.4,2.6,7.1,5.5,11.6,9.3c1.2,1,2.5,2.1,3.7,3c9.5,7.6,19.3,15.5,27.9,24.6c6.5,6.8,7.8,12.8,4.2,17.9
				c-2.3,3.3-5.9,4.7-8.4,5.2c-3.1,0.7-6.6,0.7-9.3-0.1c-4.2-1.2-8.5-4.6-12.2-7.5c-1.1-0.8-2-1.5-3-2.2c-0.8-0.6-1.8-1.5-2.8-2.3
				c-1.6-1.5-3.6-3.3-5-3.7c-0.2-0.1-0.5-0.1-0.6-0.1c0,0.6,0.4,1.9,1.1,3.3c0.2,0.4,0.6,0.8,0.8,1.4c0.6,0.8,1.3,1.8,1.7,3
				c0.5,1.9,0.1,3.9-0.2,5.7c-0.1,0.8-0.4,1.7-0.4,2.3c-0.1,2.5-0.1,5,0,7.5c0,1.2,0,2.5,0,3.9c0,2.2,0.2,4.4,0.5,6.8
				c0.5,4.4,1,9-0.1,13.3c-1.9,7-6.6,12-12.1,12.6C173.1,250,172.7,250,172.4,250z M165.9,244.4c2.6,1.5,5,2.2,7.3,2.1
				c5.1-0.6,8.4-5.8,9.6-10.1c1-3.6,0.5-7.6,0-11.7c-0.2-2.3-0.5-4.8-0.5-7.2c0-1.2,0-2.5,0-3.7c0-2.5-0.1-5.1,0-7.7
				c0-1,0.2-2.1,0.5-3c0.2-1.4,0.6-2.8,0.4-3.7c-0.1-0.6-0.6-1.2-1.1-1.9c-0.4-0.6-0.8-1.1-1.2-1.8c-0.7-1.4-2.3-5.1-1-7.2
				c0.5-0.8,1.6-1.7,3.7-1.1c2,0.6,4.3,2.6,6.2,4.4c1,0.8,1.8,1.7,2.5,2.2c1,0.7,1.9,1.5,3,2.3c3.6,2.8,7.5,5.8,11.2,6.9
				c4.8,1.4,11.7,0.3,14.7-4c3.4-4.7-0.6-9.8-3.8-13.3c-8.5-9-18.2-16.7-27.5-24.3c-1.2-1-2.5-2.1-3.7-3c-4.5-3.7-8.3-6.6-11.6-9.3
				l0,0c-0.1-0.1-14.4-12-26.9-5.5c-0.4,0.1-0.8,0.1-1.3,0l-34.1-19.3L94.4,141c-0.5,1.4-2,4-6.2,11c-2.2,3.5-4.2,6.9-5.4,8.7
				l18.9,13.7c0.4,0.3,0.6,0.6,0.6,1c0,0.1,3.1,13.1,4.8,19.6c0.5,1.9,1,4.1,1.6,6.5c3,13.1,7.1,30.9,16.4,37
				c3.6,2.3,7.7,2.8,12.4,1.1h0.2c3.9-1.2,6.1-2.5,6.5-3.6c0.2-0.7,1-1.2,1.7-1.1c0.7,0.1,1.2,0.8,1.3,1.5c0.1,1.4,2.3,3,3.5,4
				l0.1,0.1c4.5,3.5,8.1,4,10.8,1.7c0.8-0.7,1.3-0.4,2.9,0.8C164.5,243.3,165.7,244.3,165.9,244.4z M91.3,140.1L91.3,140.1
				L91.3,140.1z M91.3,140.1L91.3,140.1L91.3,140.1z"/>
		</g>
		<g>
			<g>
				<path style="fill:#91FDFF;" d="M130,187.8l-0.6,2.6c-1,4.4,1.3,8.8,5.1,10.1l93.3,27.2l4.1-18.6l-93.3-27.2
					C134.8,180.8,131,183.4,130,187.8z"/>
				<path d="M227.9,229.5c-0.1,0-0.2,0-0.4,0l-92.1-26.9c-2.5-0.7-4.7-2.6-6-5.2c-1.3-2.6-1.7-5.7-1.1-8.6c0.6-2.9,2.3-5.4,4.5-6.9
					c2.3-1.5,4.9-1.9,7.4-1.2l92.1,26.9c0.4,0.1,0.7,0.4,1,0.8c0.2,0.4,0.2,0.8,0.1,1.4l-4.1,18.6c-0.1,0.4-0.4,0.8-0.7,1.1
					C228.4,229.4,228.1,229.5,227.9,229.5z M137.8,183.7c-1.2,0-2.4,0.4-3.5,1.1c-1.6,1.1-2.6,2.8-3.1,4.8l0,0
					c-0.5,2.1-0.2,4.1,0.7,5.9c1,1.8,2.4,3,4.2,3.6l90.7,26.5l3.4-15.2L139.5,184C138.9,183.7,138.3,183.7,137.8,183.7z
					 M129.7,189.2L129.7,189.2L129.7,189.2z"/>
			</g>
			<g>
				<path style="fill:#E89E70;" d="M222.8,216.4L222.8,216.4c-1.1,5.1,1.6,10.4,6,11.7l13.2-3.3l1.2-5.1l-10.2-10.1
					C228.4,208.1,223.8,211.2,222.8,216.4z"/>
				<path d="M228.7,229.8c-0.1,0-0.2,0-0.4,0c-2.5-0.7-4.7-2.6-6-5.2s-1.7-5.7-1.1-8.6l0,0c1.3-6.1,6.7-9.8,12-8.1
					c0.2,0,0.5,0.1,0.6,0.4l10.2,10.1c0.5,0.4,0.6,1.1,0.5,1.8l-1.2,5.1c-0.1,0.7-0.6,1.1-1.2,1.2l-13.2,3.3
					C229,229.8,228.9,229.8,228.7,229.8z M224.2,216.8L224.2,216.8c-0.5,2.1-0.2,4.1,0.7,5.9c0.8,1.7,2.3,2.9,3.8,3.5l11.8-3l0.7-3
					l-9.2-9.1C228.6,210.2,225.1,212.7,224.2,216.8z"/>
			</g>
			<g>
				<path style="fill:#21AEFF;" d="M248.6,222.9l-0.2,0.6c-0.2,1.4-1.2,1.9-2.5,1.7l-3.6-0.8c-1.3-0.3-2-1.7-1.8-3.2l0,0
					c0.2-1.4,1.4-2.3,2.8-2.1l3.6,0.8C248,220,248.8,221.4,248.6,222.9z"/>
				<path d="M246.6,226.6c-0.2,0-0.6,0-1-0.1l-3.6-0.8c-1-0.3-1.8-0.8-2.4-1.8c-0.6-1-0.7-2.1-0.6-3.2c0.2-1.1,0.7-2.1,1.6-2.8
					c0.8-0.7,1.8-0.8,2.8-0.7l3.6,0.8c2,0.4,3.4,2.6,3,5v0.1l-0.2,0.6c-0.2,1.1-0.7,1.9-1.6,2.3
					C247.6,226.5,247.2,226.6,246.6,226.6z M242.7,220.6c-0.2,0-0.4,0-0.5,0.1c-0.2,0.1-0.4,0.4-0.4,0.7c0,0.3,0,0.6,0.1,0.8
					c0.1,0.3,0.4,0.4,0.6,0.4l3.6,0.8c0.4,0.1,0.6,0,0.7,0c0,0,0.1-0.1,0.1-0.3V223l0.2-0.4c0-0.3,0-0.4-0.1-0.7
					c-0.1-0.3-0.4-0.4-0.6-0.4l-3.6-0.8C242.9,220.6,242.7,220.6,242.7,220.6z"/>
			</g>
		</g>
		<g>
			<path style="fill:#DE3BFF;" d="M184.1,235.7c0,0,4.5-24.2-1.8-30.7c-8.1-8.3-12.8,5-12.8,5"/>
			<path d="M184.1,237.5c-0.1,0-0.2,0-0.4,0c-0.8-0.1-1.3-1.1-1.2-2.1c0,0,1.1-6.1,1.4-12.7c0.4-8.3-0.6-14.1-2.8-16.4
				c-1.8-1.9-3.5-2.6-5-2.2c-3.2,0.8-5.3,6.4-5.3,6.5c-0.4,0.8-1.2,1.4-1.9,1c-0.7-0.4-1.2-1.4-0.8-2.2c0.1-0.3,2.6-7.2,7.4-8.6
				c2.5-0.7,5.1,0.3,7.8,3c3,3,4.3,9.5,3.8,19.2c-0.4,6.9-1.4,13-1.6,13.1C185.4,237,184.7,237.5,184.1,237.5z"/>
		</g>
		<g>
			<path style="fill:#DE3BFF;" d="M161.9,243.8c0,0,14.8-8.6,7.3-35.8c-1.2-4.1-4.4-7-8.3-6.9c-3.5,0.1-9.2,3.2-9.8,12.4l-1.1,11.7"
				/>
			<path d="M161.9,245.4c-0.6,0-1.1-0.4-1.3-1c-0.4-0.8-0.1-1.9,0.7-2.3c0.6-0.3,13.5-8.4,6.5-33.7c-1-3.5-3.7-5.8-6.7-5.7
				c-0.4,0-7.8,0.4-8.4,10.8l0,0l-1.1,11.7c-0.1,1-0.8,1.7-1.7,1.5c-0.8-0.1-1.4-1-1.3-1.9l1.1-11.7c0.7-10.6,7.8-13.8,11.4-13.9
				c4.3-0.1,8.4,3,9.7,8c2.3,8,3.9,19.7-1,29.4c-3,5.9-6.9,8.3-7.1,8.4C162.3,245.4,162.1,245.4,161.9,245.4z"/>
		</g>
	</g>
	<g>
		<path style="fill:#DE3BFF;" d="M144.9,236.2c0,0,6.6-6.5,9.1-22.1c2.6-15.6-10.4-19.6-16.4-12s-10.1,21-10.1,21"/>
		<path d="M144.9,238c-0.5,0-0.8-0.1-1.2-0.6c-0.6-0.7-0.5-1.8,0.1-2.5l0,0c0.1,0,6.2-6.4,8.6-21.1c1.4-8.7-2.4-11.9-4.1-12.8
			c-3.2-1.8-7.3-0.8-9.7,2.2c-5.6,7.3-9.7,20.3-9.8,20.4c-0.2,1-1.2,1.4-1.9,1.1c-0.8-0.3-1.2-1.4-1-2.2c0.1-0.6,4.3-13.8,10.4-21.5
			c3.4-4.3,8.9-5.5,13.3-3c4.8,2.8,6.9,9,5.6,16.6c-2.6,16.2-9.3,22.8-9.6,23.1C145.6,237.8,145.2,238,144.9,238z"/>
	</g>
</g>
<g>
	<g>
		<path style="fill:#FFFFFF;" d="M2,200.3c40.8,32.7,84.2,4.1,93.1-28c2.6-9.3,3.1-18.8,1.9-27.9c13.3,0.4,25.7-9.1,30-24.4l0,0
			c0.6,0.3,1.3,0.6,1.9,0.8c27.9,10.2,57.7-7.5,66.5-39.6c8.9-32.2-6.5-66.3-34.3-76.5c-20.6-7.6-42.4,0.1-55.8,17.8l-21.8-8
			L61,95.9c-0.1,0-0.1,0-0.1,0L2,200.3z"/>
		<g>
			<path style="fill:#BFF9FF;" d="M6.9,192.5c51,14.2,72.3-18.4,79.3-44c2.4-8.8,3-17.8,1.8-26.2c12.6,0.4,24.3-8.7,28.4-23.1l0,0
				c0.6,0.3,1.2,0.6,1.8,0.7c26.3,9.7,54.4-7,62.8-37.4c4.5-16.3,2.4-33.3-4.7-46.9c-4.5-3.9-9.7-6.9-15.3-9
				c-20.6-7.6-42.4,0.1-55.8,17.8l-21.8-8L61,97.8c-0.1,0-0.1,0-0.1,0L6.9,192.5z"/>
		</g>
		<path d="M40.1,216.6c-13.3,0-26.7-5-38.9-14.8l-1.2-1L59.8,94.4l22.7-82.2l22.4,8.1C119.3,2.3,141.4-4.5,161.6,3
			c13.9,5.1,25.1,16,31.8,30.9c6.7,14.9,7.9,31.9,3.5,47.8s-14,29-26.9,36.6c-12.9,7.7-27.6,9.1-41.5,4c-0.2,0-0.4-0.1-0.6-0.3
			c-4.5,14.1-16.2,23.6-29.2,24c1,9,0.2,17.9-2.2,26.6c-4.8,17.4-19.1,33-36.6,39.8C53.5,215.3,46.8,216.6,40.1,216.6z M4,199.8
			c17.2,13.3,36.6,16.7,54.9,9.5c16.5-6.5,30.2-21.3,34.7-37.6c2.4-8.8,3.1-17.9,1.8-27.1l-0.2-2.1H97c0.2,0,0.6,0,0.8,0
			c12.6,0,23.8-9.4,27.6-23.2l0,0l0.5-1.7l1.4,0.6c0.7,0.3,1.3,0.6,1.9,0.7c13,4.8,27,3.5,39.2-3.9c12.2-7.3,21.2-19.6,25.4-34.7
			c4.2-15.1,3-31.1-3.4-45.2c-6.1-13.9-16.9-24.3-29.9-29.1c-19.4-7-40.7-0.3-54.2,17.3l-0.6,0.8l-21.4-7.7L62,98.1l-0.5-0.1
			L4,199.8z"/>
	</g>
</g>
</svg>
