<?xml version="1.0" encoding="utf-8"?>
<!-- Generator: Adobe Illustrator 24.1.1, SVG Export Plug-In . SVG Version: 6.00 Build 0)  -->
<svg version="1.1" id="Layer_1" xmlns="http://www.w3.org/2000/svg" xmlns:xlink="http://www.w3.org/1999/xlink" x="0px" y="0px"
	 viewBox="0 0 226.71 330" style="enable-background:new 0 0 226.71 330;" xml:space="preserve">
<g>
	<g>
		<path style="fill:#FFFFFF;" d="M135.71,241.68v39.56c0,0-2.94,0.73-6.84,0.73c-3.91,0-6.88-0.73-6.88-0.73v-39.56
			c0-2.6,6.38-4.74,8.98-4.74S135.71,239.08,135.71,241.68z"/>
		<path style="fill-rule:evenodd;clip-rule:evenodd;fill:#009FF9;" d="M154.31,318.73c-3.47,3.97-9.15,3.3-13.82,3.3h-12.55v-0.1
			c-2.67-0.5-5.94-2.47-5.94-4.87v-35.82c0,0,2.97,0.73,6.88,0.73c3.91,0,6.84-0.73,6.84-0.73v15.06c1.3,0,2.74,0.07,4.44,0.4
			c0.07,0.03,0.33,0.1,0.33,0.1c6.01,1.3,11.22,5.31,14.02,10.78C156.01,310.55,156.68,315.99,154.31,318.73z"/>
	</g>
	<path d="M130.97,236.95c2.61,0,4.73,2.11,4.73,4.73v35.02v4.53v15.08c0.1,0,0.19,0,0.29,0c1.23,0,2.58,0.09,4.17,0.4
		c0.06,0.01,0.33,0.08,0.33,0.08c6,1.3,11.23,5.33,14.01,10.81c1.51,2.97,2.17,8.4-0.2,11.12c-2.61,2.99-6.47,3.36-10.21,3.36
		c-1.23,0-2.44-0.04-3.6-0.04h-4.79h-3.2h-3.41l-1.16-0.12c-2.66-0.49-5.92-2.47-5.92-4.85V276.7h0v-35.02
		C122.01,239.06,128.36,236.95,130.97,236.95 M130.97,232.94c-2.75,0-12.97,2.18-12.97,8.73v35.02l0,40.37
		c0,4.61,4.74,7.97,9.2,8.79c0.1,0.02,0.21,0.03,0.31,0.04l1.16,0.12c0.14,0.01,0.27,0.02,0.41,0.02h3.41h3.2h4.79
		c0.55,0,1.11,0.01,1.68,0.02c0.63,0.01,1.27,0.02,1.92,0.02c4.5,0,9.58-0.56,13.23-4.74c3.78-4.33,2.72-11.71,0.76-15.57
		c-3.32-6.54-9.58-11.36-16.73-12.91l-0.26-0.06c-0.47-0.09-0.93-0.17-1.37-0.24v-11.34v-4.53v-35.02
		C139.71,236.86,135.79,232.94,130.97,232.94L130.97,232.94z"/>
</g>
<g>
	<g>
		<path style="fill:#FFFFFF;" d="M104.63,241.68v39.56c0,0-2.94,0.73-6.84,0.73s-6.84-0.73-6.84-0.73v-39.56
			c0-2.6,2.1-4.74,4.71-4.74C98.26,236.94,104.63,239.08,104.63,241.68z"/>
		<path style="fill-rule:evenodd;clip-rule:evenodd;fill:#009FF9;" d="M104.63,281.24v35.82c0,2.4-3.27,4.37-5.91,4.87v0.1H86.14
			c-4.67,0-10.35,0.67-13.79-3.3c-2.4-2.74-1.74-8.18-0.23-11.15c2.8-5.47,8.01-9.48,14.02-10.78c0,0,0.27-0.07,0.33-0.1
			c1.7-0.33,3.14-0.4,4.47-0.4v-15.06c0,0,2.94,0.73,6.84,0.73S104.63,281.24,104.63,281.24z"/>
	</g>
	<path d="M95.66,236.95c2.61,0,8.96,2.11,8.96,4.73v35.02h0v40.37c0,2.38-3.26,4.36-5.92,4.85l-1.16,0.12h-3.41h-3.2h-4.79
		c-1.16,0-2.37,0.04-3.6,0.04c-3.74,0-7.59-0.37-10.21-3.36c-2.37-2.72-1.71-8.15-0.2-11.12c2.78-5.48,8.01-9.51,14.01-10.81
		c0,0,0.28-0.06,0.33-0.08c1.58-0.31,2.93-0.4,4.17-0.4c0.1,0,0.2,0,0.29,0v-15.08v-4.53v-35.02
		C90.93,239.06,93.05,236.95,95.66,236.95 M95.66,232.94c-4.82,0-8.74,3.92-8.74,8.73v35.02v4.53v11.33
		c-0.4,0.06-0.81,0.13-1.22,0.21l-0.47,0.11c-7.1,1.54-13.36,6.36-16.68,12.9c-1.96,3.86-3.02,11.24,0.76,15.57
		c3.64,4.17,8.73,4.74,13.23,4.74c0.65,0,1.29-0.01,1.92-0.02c0.57-0.01,1.13-0.02,1.68-0.02h4.79h3.2h3.41
		c0.14,0,0.27-0.01,0.41-0.02l1.16-0.12c0.11-0.01,0.21-0.03,0.31-0.04c4.46-0.82,9.2-4.17,9.2-8.79V276.7l0-35.02
		C108.63,235.13,98.41,232.94,95.66,232.94L95.66,232.94z"/>
</g>
<g>
	<path style="fill:#FFFFFF;" d="M79.24,68.52c1.83,0.31,3.68,0.87,5.62,1.66c1.59,0.65,3.11,1.54,4.55,2.48
		c4.62,3.01,11.33,13.4,6.05,18.49c-3.82,3.68-8.63-3.83-11.25-5.86c-5.88-4.55-12.75,2.01-16.33,6.76
		c-2.88,3.84-8.31,4.61-12.13,1.71c-3.82-2.9-4.62-8.34-1.78-12.19c3.53-4.78,8.06-9.04,13.56-11.44
		C71.62,68.34,75.37,67.87,79.24,68.52z"/>
	<path style="fill:#673101;" d="M68.47,86.18c-0.69-0.1-1.35,0.07-1.94,0.35c0.7-0.54,1.2-1.33,1.33-2.28
		c0.26-1.92-1.07-3.67-2.96-3.95c-0.88-0.12-1.72,0.13-2.41,0.59c0.59-0.53,1.03-1.24,1.15-2.08c0.26-1.92-1.06-3.68-2.97-3.95
		c-0.17-0.03-0.33,0.02-0.51,0.03c-3.45,3.09-5.69,6-6.19,6.68c-2.85,3.85-2.05,9.3,1.78,12.19c3.82,2.9,9.25,2.13,12.13-1.71
		c0.85-1.12,2.03-2.41,3.32-3.62C70.76,87.27,69.77,86.36,68.47,86.18"/>
	<path d="M75.97,68.24c1.09,0,2.18,0.09,3.27,0.28c1.83,0.31,3.68,0.87,5.62,1.66c1.59,0.65,3.11,1.54,4.55,2.48
		c4.62,3.01,11.33,13.4,6.06,18.49c-0.73,0.71-1.5,1-2.29,1c-3.3,0-6.85-5.22-8.97-6.86c-1.4-1.08-2.85-1.53-4.3-1.53
		c-3.12,0-6.23,2.1-8.77,4.57c0.02,0.04,0.04,0.07,0.06,0.1c-1.29,1.2-2.46,2.48-3.3,3.6c-0.01,0.01-0.01,0.02-0.02,0.02
		c-1.7,2.27-4.3,3.47-6.92,3.47c-1.82,0-3.65-0.57-5.21-1.76c-2.39-1.81-3.6-4.62-3.47-7.41c0.07-1.67,0.63-3.34,1.7-4.79
		c0.25-0.33,0.92-1.21,1.94-2.38c3.21-3.78,7.06-7.07,11.62-9.06C70.46,68.85,73.22,68.24,75.97,68.24 M75.97,64.23
		c-3.33,0-6.62,0.73-10.04,2.22c-4.7,2.05-9.1,5.46-13.07,10.14c-1.01,1.15-1.74,2.1-2.09,2.56c-1.53,2.07-2.39,4.49-2.5,7.02
		c-0.19,4.21,1.7,8.24,5.05,10.78c2.22,1.68,4.86,2.57,7.63,2.57c4.02,0,7.71-1.85,10.12-5.07c0.73-0.96,1.74-2.06,2.85-3.1
		c0.24-0.23,0.45-0.48,0.62-0.74c2.02-1.82,3.94-2.85,5.35-2.85c0.41,0,1.04,0.07,1.84,0.7c0.38,0.29,1.1,1.06,1.73,1.73
		c2.51,2.66,5.63,5.97,9.68,5.97c1.87,0,3.63-0.73,5.07-2.12c2.37-2.28,3.44-5.39,3.1-8.98c-0.59-6.2-5.52-13-9.75-15.76
		c-1.96-1.27-3.62-2.17-5.22-2.83c-2.27-0.93-4.38-1.55-6.47-1.9C78.59,64.35,77.26,64.23,75.97,64.23L75.97,64.23z"/>
</g>
<g>
	<path style="fill:#FFFFFF;" d="M130.31,62.54c-1.71,0.72-3.38,1.69-5.08,2.91c-1.39,1-2.67,2.22-3.85,3.46
		c-3.8,4-7.93,15.66-1.62,19.39c4.57,2.7,7.51-5.72,9.59-8.3c4.67-5.79,12.87-0.98,17.45,2.81c3.69,3.07,9.15,2.56,12.2-1.14
		c3.05-3.7,2.57-9.18-1.09-12.27c-4.54-3.84-9.93-6.94-15.84-8C137.68,60.61,133.93,61.01,130.31,62.54z"/>
	<path style="fill:#673101;" d="M144.87,77.25c0.65-0.26,1.33-0.24,1.97-0.11c-0.8-0.36-1.48-1.02-1.82-1.92
		c-0.7-1.8,0.19-3.82,1.97-4.53c0.83-0.32,1.7-0.27,2.48,0.02c-0.7-0.38-1.29-0.97-1.6-1.76c-0.7-1.8,0.19-3.83,1.97-4.53
		c0.16-0.07,0.33-0.06,0.5-0.09c4.07,2.21,6.92,4.53,7.56,5.07c3.66,3.09,4.14,8.57,1.08,12.27c-3.05,3.7-8.5,4.21-12.2,1.14
		c-1.09-0.9-2.53-1.88-4.07-2.76C142.89,78.83,143.65,77.72,144.87,77.25"/>
	<path d="M137.87,61.01c1.34,0,2.74,0.13,4.21,0.4c4.89,0.88,9.4,3.2,13.39,6.13c1.27,0.9,2.12,1.6,2.44,1.86
		c1.37,1.16,2.3,2.65,2.76,4.27c0.77,2.69,0.24,5.69-1.67,8.01c-1.71,2.08-4.18,3.15-6.66,3.15c-1.95,0-3.91-0.66-5.53-2.01
		c-0.01-0.01-0.02-0.01-0.02-0.02c-1.08-0.89-2.51-1.87-4.05-2.74c0.01-0.04,0.02-0.08,0.03-0.11c-2.46-1.47-5.23-2.62-7.81-2.62
		c-2.08,0-4.04,0.75-5.6,2.69c-1.8,2.23-4.24,8.83-7.83,8.83c-0.56,0-1.15-0.16-1.77-0.53c-6.31-3.73-2.18-15.39,1.62-19.39
		c1.18-1.24,2.46-2.46,3.85-3.46c1.7-1.22,3.37-2.19,5.08-2.91C132.72,61.53,135.19,61.01,137.87,61.01 M137.87,57
		c-3.18,0-6.17,0.61-9.12,1.86c-1.95,0.82-3.86,1.92-5.85,3.34c-1.41,1.01-2.81,2.27-4.42,3.96c-3.48,3.65-6.7,11.41-5.85,17.58
		c0.5,3.57,2.25,6.35,5.09,8.02c1.22,0.72,2.5,1.09,3.81,1.09c4.91,0,7.65-4.76,9.66-8.23c0.46-0.8,0.99-1.72,1.29-2.09
		c0.68-0.84,1.42-1.19,2.48-1.19c1.33,0,3.09,0.57,5.02,1.63c0.23,0.22,0.49,0.42,0.78,0.58c1.32,0.75,2.56,1.59,3.48,2.35
		c0.03,0.03,0.06,0.05,0.09,0.07c2.19,1.83,5.07,2.87,8.01,2.87c3.79,0,7.35-1.68,9.76-4.61c2.68-3.25,3.58-7.6,2.43-11.65
		c-0.69-2.44-2.09-4.59-4.02-6.23c-0.47-0.39-1.41-1.14-2.7-2.07c-4.89-3.6-9.96-5.91-15.01-6.81C141.09,57.15,139.44,57,137.87,57
		L137.87,57z"/>
</g>
<g>
	<path style="fill:#FFFFFF;" d="M54.27,201.96c-2,2.74-3.67,5.64-5.07,8.65c-5.01-0.2-9.98-3.87-12.38-6.88
		c4.34-8.08,10.78-15.06,19.59-20.16c1.97-1.13,5.04-3.3,7.48-2.54C73.03,183.76,56.34,199.12,54.27,201.96z"/>
	<path style="fill:#0088C5;" d="M49.2,210.6c-0.4,0.8-0.77,1.6-1.07,2.44c-0.53,1.67-1,3.37-1.2,4.04c-0.03,0.1-0.07,0.17-0.07,0.2
		c-2.17,6.24-1.8,11.85-1.94,18.33c0,0.57-0.03,1.14-0.1,1.74c-0.03,0.53-0.1,1.03-0.2,1.57c-0.1,0.53-0.2,1.07-0.37,1.6
		c-0.13,0.5-0.33,0.97-0.53,1.44c-0.87,1.8-2.37,3.07-4.87,3.07c-0.57,0-1.2-0.07-1.94-0.23c-0.7-0.17-1.47-0.4-2.24-0.73
		c-1.67-0.73-3.3-1.87-4.07-3.17c-3.71-6.14-1.67-13.99-0.23-20.16c0.73-3.2,1.7-6.38,2.87-9.45c0.07-0.13,0.2-0.47,0.37-0.93
		c0.67-1.57,1.94-4.61,2.64-5.98c0.17-0.27,0.3-0.47,0.4-0.57c0.03-0.03,0.1-0.1,0.13-0.07h0.03
		C39.21,206.73,44.19,210.4,49.2,210.6z"/>
	<path d="M70.36,182.26c-0.4-1.44-1.6-3.97-5.31-5.07c-0.7-0.23-1.47-0.33-2.24-0.33c-3,0-5.71,1.6-7.68,2.8l-0.73,0.43
		c-8.71,5.04-15.69,12.08-20.66,20.96c-1.3,1.4-2.4,4.14-4.21,8.75c-1.24,3.17-2.27,6.54-3.07,10.01l-0.17,0.7
		c-1.47,6.38-3.51,15.12,0.87,22.4c1.54,2.6,4.37,4.14,5.91,4.81c1,0.43,2.04,0.77,3,0.97c0.97,0.23,1.9,0.33,2.77,0.33
		c3.67,0,9.81-1.74,10.08-13.32c0.03-1.1,0.03-2.2,0.03-3.24c0.07-5.01,0.1-9.31,1.7-13.89c0.03-0.17,0.2-0.63,0.37-1.27
		c0.2-0.77,0.53-1.84,0.87-2.9c1.54-3.71,3.4-7.08,5.57-10.08c0.27-0.33,1.17-1.34,2-2.2C66.09,194.91,71.93,188,70.36,182.26z
		 M54.24,201.96c-1.97,2.74-3.64,5.64-5.04,8.65c-0.37,0.8-0.73,1.6-1.07,2.44c-0.53,1.67-1,3.37-1.2,4.04
		c-0.03,0.1-0.07,0.17-0.07,0.2c-2.17,6.24-1.8,11.85-1.94,18.33c0,0.57-0.03,1.14-0.1,1.74c-0.03,0.53-0.1,1.07-0.2,1.57
		c-0.07,0.57-0.2,1.1-0.37,1.6c-0.13,0.5-0.3,0.97-0.53,1.44c-0.87,1.8-2.37,3.07-4.87,3.07c-0.57,0-1.2-0.07-1.94-0.23
		c-0.7-0.17-1.47-0.4-2.24-0.73c-1.67-0.73-3.3-1.87-4.07-3.17c-3.71-6.14-1.67-13.99-0.23-20.16c0.73-3.2,1.7-6.38,2.87-9.45
		c0.07-0.13,0.2-0.47,0.37-0.93c0.63-1.6,1.87-4.64,2.64-5.98c0.17-0.27,0.3-0.47,0.4-0.57c0.03-0.03,0.1-0.1,0.13-0.07h0.03
		c4.41-8.08,10.75-15.06,19.59-20.16c1.7-0.97,4.21-2.7,6.41-2.7c0.37,0,0.73,0.03,1.07,0.17
		C73.03,183.76,56.34,199.12,54.24,201.96z"/>
</g>
<g>
	<path style="fill:#FFFFFF;" d="M189.8,203.76c-2.4,2.97-7.38,6.64-12.35,6.84c-1.4-3-3.07-5.91-5.07-8.65
		c-2.07-2.84-18.76-18.19-9.65-20.93c2.47-0.77,5.51,1.4,7.48,2.54C179.08,188.67,185.42,195.65,189.8,203.76z"/>
	<path style="fill:#0088C5;" d="M196.04,240.88c-0.8,1.3-2.4,2.44-4.07,3.17c-0.77,0.33-1.54,0.57-2.27,0.73
		c-0.7,0.17-1.34,0.23-1.94,0.23c-1.87,0-3.17-0.7-4.07-1.84c-0.3-0.37-0.57-0.77-0.77-1.24c-0.2-0.47-0.4-0.93-0.53-1.44
		c-0.17-0.53-0.27-1.07-0.37-1.6c-0.1-0.53-0.17-1.03-0.2-1.57c-0.07-0.6-0.1-1.17-0.1-1.74c-0.17-6.48,0.2-12.08-1.97-18.33
		c-0.03-0.03-0.03-0.1-0.07-0.2c-0.2-0.67-0.63-2.37-1.17-4.04c-0.33-0.83-0.7-1.64-1.07-2.44c4.97-0.2,9.95-3.87,12.35-6.84
		l0.03-0.03c0.07-0.07,0.17,0.03,0.3,0.27l0.47,0.8c0.17,0.33,0.33,0.7,0.53,1.13c0.67,1.47,1.4,3.3,1.87,4.41
		c0.17,0.47,0.33,0.8,0.37,0.93c1.2,3.07,2.17,6.24,2.9,9.45C197.71,226.89,199.71,234.74,196.04,240.88z"/>
	<path d="M189.83,203.73c0.07,0,0.17,0.1,0.3,0.27C190,203.76,189.9,203.66,189.83,203.73z"/>
	<path d="M200.35,220.52l-0.17-0.7c-0.8-3.47-1.84-6.84-3.07-9.98c-1.8-4.64-2.9-7.38-4.21-8.78c-5.01-8.88-11.95-15.92-20.7-20.96
		l-0.73-0.43c-1.97-1.2-4.67-2.8-7.68-2.8c-0.77,0-1.5,0.1-2.2,0.33c-3.74,1.1-4.94,3.64-5.31,5.07
		c-1.57,5.74,4.24,12.65,10.88,19.86c0.8,0.87,1.74,1.87,1.97,2.2c2.17,3,4.07,6.38,5.61,10.08c0.33,1.07,0.63,2.14,0.87,2.9
		c0.17,0.63,0.3,1.1,0.37,1.27c1.6,4.57,1.64,8.88,1.67,13.89c0.03,1.03,0.03,2.14,0.07,3.24c0.27,11.58,6.41,13.32,10.05,13.32
		c0.87,0,1.8-0.1,2.77-0.33c1-0.2,2.04-0.53,3.04-0.97c1.54-0.67,4.37-2.2,5.91-4.81C203.85,235.64,201.81,226.89,200.35,220.52z
		 M196.04,240.88c-0.8,1.3-2.4,2.44-4.07,3.17c-0.77,0.33-1.54,0.57-2.27,0.73c-0.7,0.17-1.34,0.23-1.94,0.23
		c-1.87,0-3.17-0.7-4.07-1.84c-0.3-0.37-0.57-0.8-0.77-1.24c-0.23-0.47-0.4-0.93-0.53-1.44c-0.17-0.5-0.3-1.04-0.37-1.6
		c-0.1-0.5-0.17-1.03-0.2-1.57c-0.07-0.6-0.1-1.17-0.1-1.74c-0.17-6.48,0.2-12.08-1.97-18.33c-0.03-0.03-0.03-0.1-0.07-0.2
		c-0.2-0.67-0.63-2.37-1.17-4.04c-0.33-0.83-0.7-1.64-1.07-2.44c-1.4-3-3.07-5.91-5.07-8.65c-2.07-2.84-18.76-18.19-9.65-20.93
		c0.37-0.13,0.73-0.17,1.07-0.17c2.24,0,4.74,1.74,6.41,2.7c8.85,5.11,15.22,12.08,19.59,20.16h0.03c0.07-0.07,0.17,0.03,0.3,0.27
		l0.47,0.8c0.17,0.33,0.33,0.7,0.53,1.13c0.2,0.4,0.4,0.83,0.6,1.3c0.47,1.14,0.93,2.3,1.27,3.1c0.17,0.47,0.33,0.8,0.37,0.93
		c1.2,3.07,2.17,6.24,2.9,9.45C197.71,226.89,199.71,234.74,196.04,240.88z"/>
</g>
<g>
	<path style="fill-rule:evenodd;clip-rule:evenodd;fill:#009FF9;" d="M169.84,211.4c0.53,9.98-1.94,24.64-8.58,33.21
		c-7.84,10.11-22.17,16.72-39.26,18.13c-2.04,0.17-4.27,0.27-6.41,0.27h-4.54c-2.14,0-4.37-0.1-6.41-0.27
		c-17.09-1.4-31.41-8.01-39.26-18.13c-6.64-8.58-9.11-23.23-8.58-33.21c0.27-5.57,1.5-11.22,2.7-16.69c0.6-2.77,1.2-5.57,1.7-8.38
		c0.57-3.14,0.23-8.95,0.2-9.25c-0.4-4.34-1.7-8.41-2.9-11.82c-4.81-13.42-5.61-25.97-2.57-39.49c2.77-12.22,8.58-22.57,15.89-28.44
		c12.25-9.78,26.44-15.42,39.09-15.36h4.91c12.55,0,26.74,5.61,38.96,15.36c7.34,5.88,13.15,16.22,15.89,28.44
		c3.07,13.52,2.27,26.07-2.54,39.49c-1.24,3.4-2.5,7.44-2.94,11.88c0,0.23-0.33,6.04,0.2,9.18c0.5,2.8,1.1,5.61,1.74,8.41
		C168.3,200.19,169.54,205.83,169.84,211.4z"/>
	<path d="M171.04,193.88c-0.6-2.74-1.2-5.51-1.7-8.25c-0.37-2.2-0.2-6.68-0.13-8.18c0.37-3.91,1.57-7.68,2.7-10.85
		c5.01-13.95,5.88-27.61,2.67-41.69c-2.94-13.12-9.25-24.3-17.29-30.71c-12.92-10.31-28.01-16.22-41.46-16.22h-5.01
		c-13.45,0-28.57,5.91-41.49,16.22c-8.01,6.41-14.32,17.59-17.29,30.71c-3.17,14.09-2.3,27.74,2.7,41.69
		c1.14,3.17,2.34,6.94,2.67,10.78c0.1,1.57,0.27,6.04-0.13,8.25c-0.47,2.74-1.07,5.51-1.67,8.25c-1.24,5.61-2.5,11.42-2.8,17.32
		c-0.57,11.05,2.1,26.44,9.41,35.85c8.55,11.02,23.87,18.19,42.09,19.7c2.14,0.17,4.47,0.27,6.74,0.27h4.54
		c2.24,0,4.57-0.1,6.71-0.27c18.23-1.5,33.58-8.68,42.09-19.7c7.31-9.41,10.01-24.8,9.45-35.85
		C173.54,205.29,172.27,199.49,171.04,193.88z M115.59,263.01h-4.54c-2.14,0-4.37-0.1-6.41-0.27c-17.09-1.4-31.41-8.01-39.26-18.13
		c-6.64-8.58-9.11-23.23-8.58-33.21c0.27-5.57,1.5-11.22,2.7-16.69c0.6-2.77,1.2-5.57,1.7-8.38c0.57-3.14,0.23-8.95,0.2-9.25
		c-0.4-4.34-1.7-8.41-2.9-11.82c-4.81-13.42-5.61-25.97-2.57-39.49c2.77-12.22,8.58-22.57,15.89-28.44
		c12.25-9.78,26.44-15.42,39.09-15.36h4.91c12.55,0,26.74,5.61,38.96,15.36c7.34,5.88,13.15,16.22,15.89,28.44
		c3.07,13.52,2.27,26.07-2.54,39.49c-1.24,3.4-2.5,7.44-2.94,11.88c0,0.23-0.33,6.04,0.2,9.18c0.5,2.8,1.1,5.61,1.74,8.41
		c1.17,5.44,2.4,11.08,2.7,16.66c0.53,9.98-1.94,24.64-8.58,33.21c-7.84,10.11-22.17,16.72-39.26,18.13
		C119.96,262.91,117.73,263.01,115.59,263.01z"/>
</g>
<g>
	<polygon style="fill-rule:evenodd;clip-rule:evenodd;fill:#AE7BFF;" points="56.62,51.44 50.81,51.17 47.3,55.81 45.77,50.2 
		40.29,48.3 45.13,45.1 45.27,39.29 49.81,42.93 55.35,41.26 53.31,46.67 	"/>
	<path style="fill:#5429A8;" d="M57.05,46.23l3.84-10.11l-10.38,3.1l-8.45-6.74l-0.2,10.78l-9.05,5.94l10.21,3.57l2.84,10.41
		l6.54-8.61l10.82,0.53L57.05,46.23z M47.3,55.81l-1.54-5.61l-5.47-1.9l4.84-3.2l0.13-5.81l4.54,3.64l5.54-1.67l-2.04,5.41l3.3,4.77
		l-5.81-0.27L47.3,55.81z"/>
</g>
<g>
	<polygon style="fill-rule:evenodd;clip-rule:evenodd;fill:#E8B21C;" points="142.24,27.24 137.93,29.41 137.3,34.21 133.9,30.78 
		129.16,31.64 131.36,27.37 129.06,23.13 133.83,23.87 137.17,20.39 137.9,25.17 	"/>
	<path style="fill:#E5861F;" d="M140.94,22.9l-1.54-9.71l-6.78,7.11l-9.71-1.54l4.67,8.65l-4.47,8.75l9.65-1.77l6.98,6.98l1.3-9.75
		l8.75-4.44L140.94,22.9z M137.3,34.21l-3.4-3.44l-4.74,0.87l2.2-4.27l-2.3-4.24l4.77,0.73l3.34-3.47l0.73,4.77l4.34,2.07
		l-4.31,2.17L137.3,34.21z"/>
</g>
<g>
	<circle style="fill-rule:evenodd;clip-rule:evenodd;fill:#F2D211;" cx="167.91" cy="55.51" r="1.67"/>
	<path style="fill:#E8AE1C;" d="M167.91,50.5c-2.77,0-5.01,2.27-5.01,5.01c0,2.77,2.24,5.01,5.01,5.01c2.74,0,5.01-2.24,5.01-5.01
		C172.92,52.77,170.65,50.5,167.91,50.5z M167.91,57.18c-0.93,0-1.67-0.73-1.67-1.67c0-0.9,0.73-1.67,1.67-1.67
		c0.9,0,1.67,0.77,1.67,1.67C169.58,56.45,168.81,57.18,167.91,57.18z"/>
</g>
</svg>
