<?xml version="1.0" encoding="utf-8"?>
<!-- Generator: Adobe Illustrator 24.3.0, SVG Export Plug-In . SVG Version: 6.00 Build 0)  -->
<!DOCTYPE svg PUBLIC "-//W3C//DTD SVG 1.1//EN" "http://www.w3.org/Graphics/SVG/1.1/DTD/svg11.dtd" [
	<!ENTITY ns_extend "http://ns.adobe.com/Extensibility/1.0/">
	<!ENTITY ns_ai "http://ns.adobe.com/AdobeIllustrator/10.0/">
	<!ENTITY ns_graphs "http://ns.adobe.com/Graphs/1.0/">
	<!ENTITY ns_vars "http://ns.adobe.com/Variables/1.0/">
	<!ENTITY ns_imrep "http://ns.adobe.com/ImageReplacement/1.0/">
	<!ENTITY ns_sfw "http://ns.adobe.com/SaveForWeb/1.0/">
	<!ENTITY ns_custom "http://ns.adobe.com/GenericCustomNamespace/1.0/">
	<!ENTITY ns_adobe_xpath "http://ns.adobe.com/XPath/1.0/">
]>
<svg version="1.1" id="레이어_5" xmlns:x="&ns_extend;" xmlns:i="&ns_ai;" xmlns:graph="&ns_graphs;"
	 xmlns="http://www.w3.org/2000/svg" xmlns:xlink="http://www.w3.org/1999/xlink" x="0px" y="0px" viewBox="0 0 220 280"
	 style="enable-background:new 0 0 220 280;" xml:space="preserve">
<style type="text/css">
	.st0{fill:#F9C6A0;}
	.st1{fill:#5C3F39;}
	.st2{fill:#945B4A;}
	.st3{fill:#533A35;}
	.st4{fill:#799C4C;}
	.st5{fill:#FFFFFF;}
	.st6{fill:#4E3A31;}
	.st7{fill:#F1AA36;}
	.st8{fill:#F7B137;}
	.st9{fill:#683B11;}
	.st10{fill-rule:evenodd;clip-rule:evenodd;fill:#F9C6A0;}
	.st11{fill:#EE5A36;}
	.st12{fill-rule:evenodd;clip-rule:evenodd;fill:#CC8B75;}
	.st13{fill-rule:evenodd;clip-rule:evenodd;}
	.st14{fill:#C68067;}
	.st15{fill:#53413D;}
	.st16{fill:none;stroke:#000000;stroke-width:3;stroke-miterlimit:10;}
	.st17{fill:#FAAF38;}
	.st18{fill:#54413D;}
	.st19{fill:#777777;}
	.st20{fill:#A5A5A5;}
</style>
<metadata>
	<sfw  xmlns="&ns_sfw;">
		<slices></slices>
		<sliceSourceBounds  bottomLeftOrigin="true" height="246.8" width="16383" x="-8051" y="-259.8"></sliceSourceBounds>
	</sfw>
</metadata>
<g>
	<g>
		<path class="st0" d="M114.5,182.9c-1.2-9.3-7.4-15-10.8-8.5c-2.2,4.4-0.9,14-1.7,19c-1.3,8.7-3.4,15.8-5.9,22.2l16.2,0.4
			C115.4,205.2,116,194.1,114.5,182.9z"/>
		<path class="st1" d="M83.4,246.4c0.8,0.8,2.1,0.9,3.2,0.9c9.5,0.5,17.9,2.1,27.3,0.8c1.2-0.2,2.4-0.3,3.3-1c1.4-0.9,3-3.1,3.4-4.7
			c0.9-3.8,1.4-7.6-0.5-11c-1.8-3.5-7.2-6.1-11.1-6c1.3-3.1,2.4-6.2,3.3-9.3l-16.2-0.4c-3.4,8.6-7.7,16-11.9,24.2
			C83.2,242,81.7,244.8,83.4,246.4z"/>
	</g>
	<g>
		<path class="st2" d="M109,215.8l-14.1-2.1c-0.6-0.1-1.2,0.3-1.4,0.8l-3,8.7c-0.3,0.8,0.2,1.6,1,1.7l9.7,1.2c0.4,0,0.9-0.2,1.1-0.5
			l2.5-3.7c0.5-0.7,1.3-1.2,2.2-1.1l1.1,0c0.6,0,0.8,0.2,0.9,0.7l-0.6,4.1c0.1,0.6,0.6,1,1.2,1l2.2-0.1c0.6,0,1.1-0.5,1.2-1.1
			l0.8-7.9c0.1-0.7-0.5-1.3-1.2-1.4l-3.6-0.2C109.1,215.8,109,215.8,109,215.8z"/>
		<path d="M109.7,227.5c-1.1,0-2-0.7-2.2-1.7c0-0.1,0-0.2,0-0.4l0.6-3.7l-1,0c-0.5,0-1,0.2-1.3,0.7l-2.5,3.7c-0.4,0.7-1.2,1-2,1
			l-9.8-1.2c-0.7-0.1-1.3-0.5-1.7-1c-0.4-0.6-0.4-1.3-0.2-1.9l3-8.7c0.4-1,1.4-1.7,2.5-1.5l14.1,2.1l3.6,0.2c0.6,0,1.2,0.3,1.6,0.8
			c0.4,0.5,0.6,1.1,0.5,1.7l-0.8,7.9c-0.1,1.1-1,2-2.1,2L109.7,227.5z M109.5,225.4c0,0,0.1,0.1,0.2,0.1l2.2-0.1
			c0.1,0,0.2-0.1,0.2-0.2l0.8-7.9c0-0.1,0-0.2-0.1-0.2c0,0-0.1-0.1-0.2-0.1l-3.6-0.2c-0.1,0-0.1,0-0.2,0l0,0l-14.1-2.1
			c-0.1,0-0.2,0.1-0.3,0.2l-3,8.7c0,0.1,0,0.2,0,0.2c0,0,0.1,0.1,0.2,0.1l9.7,1.2c0.1,0,0.1,0,0.2-0.1l2.5-3.7c0.7-1,1.8-1.6,3-1.6
			l1.1,0c0.7,0,1.6,0.2,1.9,1.5c0,0.1,0,0.2,0,0.4L109.5,225.4z"/>
	</g>
	<path d="M106,249.6c-4.4,0-8.1-0.3-12.1-0.7c-2.3-0.2-4.8-0.4-7.4-0.5c-1.1-0.1-2.9-0.2-4.1-1.3c-2.5-2.3-0.8-5.8,0.4-8.1l1.7-3.3
		c1.9-3.6,3.3-6.3,5.1-10.2c-0.3-0.2-0.6-0.5-0.8-0.9c-0.5-0.9-0.7-1.9-0.4-2.8l3-8.7c0.4-1.3,1.7-2,3-1.8l1.4,0.2
		c0.3-0.9,0.7-1.8,1-2.7c1.9-4.9,4-10.5,4.8-15.9c0.2-1.5,0.3-3.5,0.5-5.6c0.3-4.9,0.7-10.5,2.3-13.8c1.7-3.4,3.7-3.8,5-3.6
		c3.7,0.6,5.8,6.9,6.6,12.5c1.4,10.6,0.8,21.8-1.6,31.7c0.6,0.6,0.9,1.4,0.8,2.2l-0.8,8.1c0,0.5-0.1,1-0.3,1.3
		c2.6,0.7,5.1,1.8,6.6,4.6c1.9,3.5,2.3,7.9,1.3,12.5c-0.4,1.6-1.1,3.9-3,5.2c-1.2,0.8-3.1,1-5,1.2
		C111.1,249.5,108.5,249.6,106,249.6z M91.3,222.9c0.2,0.1,0.4,0.2,0.5,0.3l0.7,0.6c0.5,0.4,0.7,1.2,0.4,1.8
		c-2.2,4.6-3.7,7.5-5.7,11.5l-1.7,3.3c-1,2-1.8,3.8-1,4.5c0.5,0.4,1.4,0.5,2.3,0.6c2.7,0.1,5.1,0.4,7.5,0.6c6,0.5,11.7,1,19.6,0.3
		c1.9-0.2,3.2-0.4,3.6-0.7c0.8-0.5,1.4-1.6,1.8-3.4c0.9-3.8,0.5-7.5-1-10.4c-1.2-2.3-3.4-2.8-6.4-3.6c-0.7-0.2-1.4-0.3-2.1-0.5
		c-0.8-0.2-1.2-1-1.1-1.7c0.2-0.8,0.9-1.3,1.7-1.2c0.5,0,1.1-0.1,1.2-0.2l0,0c0,0,0,0,0-0.2c0-0.1,0-0.1,0-0.2l0.8-8
		c-0.3-0.1-0.6-0.3-0.8-0.6c-0.2-0.3-0.3-0.8-0.2-1.2c2.5-9.8,3.1-21.1,1.8-31.7c-0.8-6.2-2.9-9.8-4.1-10c-0.4,0-1.1,0.4-1.8,2
		c-1.4,2.7-1.7,8.2-2,12.6c-0.1,2.2-0.3,4.3-0.5,5.9c-0.8,5.7-3.1,11.7-5,16.6c-0.5,1.4-1,2.6-1.4,3.8c-0.2,0.7-0.9,1.1-1.6,1
		l-2.4-0.4l-2.9,8.5C91.3,222.8,91.3,222.9,91.3,222.9z"/>
</g>
<g>
	<g>
		<path class="st0" d="M102.5,187.1c-1.2-9.2-7.4-14.9-10.7-8.5c-2.2,4.4-0.9,14-1.7,18.9c-1.3,8.6-3.4,15.7-5.9,22.2l16.1,0.4
			C103.4,209.3,103.9,198.2,102.5,187.1z"/>
		<path class="st1" d="M74.2,250c0.8,0.8,2.1,0.9,3.2,0.9c9.4,0.5,15.2,2.5,24.6,1.2c1.2-0.2,2.3-0.3,3.3-1c1.4-0.9,3-3,3.4-4.7
			c0.9-3.8,1.4-7.5-0.5-11c-1.8-3.4-7.2-6-11.1-6c1.3-3.1,2.4-6.2,3.3-9.3l-16.1-0.4c-3.4,8.6-5.2,16.5-9.5,24.7
			C73.7,246.5,72.4,248.3,74.2,250z"/>
	</g>
	<g>
		<path class="st2" d="M97,219.8l-14.1-2c-0.6-0.1-1.2,0.3-1.4,0.8l-3,8.7c-0.3,0.8,0.2,1.6,1,1.7l9.7,1.1c0.4,0,0.9-0.2,1.1-0.5
			l2.5-3.7c0.5-0.7,1.3-1.2,2.2-1.1l1.1,0c0.6,0,0.8,0.2,0.9,0.7l-0.6,4.1c0.1,0.6,0.6,1,1.2,1l2.2-0.1c0.6,0,1.1-0.5,1.2-1.1
			l0.8-7.8c0.1-0.7-0.5-1.3-1.2-1.4l-3.6-0.2C97.1,219.8,97,219.8,97,219.8z"/>
		<path d="M97.7,231.5c-1.1,0-2-0.7-2.2-1.7c0-0.1,0-0.2,0-0.4l0.6-3.7l-1,0c-0.5,0-1,0.2-1.3,0.7l-2.5,3.7c-0.4,0.7-1.2,1-2,1
			l-9.8-1.2c-0.7-0.1-1.3-0.5-1.6-1c-0.4-0.6-0.4-1.3-0.2-1.9l3-8.7c0.4-1,1.4-1.7,2.5-1.5l14.1,2h0l3.6,0.2c0.6,0,1.2,0.3,1.6,0.8
			c0.4,0.5,0.6,1.1,0.5,1.7l-0.8,7.8c-0.1,1.1-1,2-2.1,2L97.7,231.5z M97.5,229.5c0,0,0.1,0.1,0.2,0.1l2.2-0.1
			c0.1,0,0.2-0.1,0.2-0.2l0.8-7.8c0-0.1,0-0.2-0.1-0.2c0,0-0.1-0.1-0.2-0.1l-3.8-0.2l-14.1-2c-0.1,0-0.2,0.1-0.3,0.2l-3,8.7
			c0,0.1,0,0.2,0,0.2c0,0,0.1,0.1,0.2,0.1l9.7,1.1c0,0,0.1,0,0.2-0.1l2.5-3.7c0.7-1,1.8-1.6,3-1.6l1.1,0c0.7,0,1.6,0.2,1.9,1.5
			c0,0.1,0,0.2,0,0.4L97.5,229.5z"/>
	</g>
	<path d="M94.3,253.6c-3.6,0-6.5-0.3-9.7-0.6c-2.2-0.2-4.5-0.4-7.3-0.6c-1.1-0.1-2.8-0.2-4.1-1.3c-2.4-2.3-1.1-5.9-0.2-8.3l1-2.9
		c1.3-3.6,2.2-6.2,3.9-10.3c-0.4-0.2-0.7-0.5-0.9-0.9c-0.5-0.9-0.7-1.9-0.4-2.8l3-8.7c0.4-1.3,1.7-2,3-1.8l1.4,0.2
		c0.3-0.9,0.7-1.8,1-2.7c1.9-4.9,4-10.5,4.8-15.9c0.2-1.5,0.3-3.5,0.5-5.6c0.3-4.9,0.7-10.5,2.3-13.8c1.7-3.4,3.7-3.8,5-3.6
		c3.7,0.6,5.8,6.9,6.5,12.5c1.4,10.5,0.8,21.7-1.6,31.6c0.6,0.6,0.9,1.4,0.8,2.2l-0.8,8.1c0,0.5-0.1,1-0.3,1.3
		c2.6,0.7,5.1,1.8,6.6,4.6c1.9,3.5,2.3,7.9,1.3,12.4c-0.4,1.6-1.1,3.9-3,5.2c-1.1,0.8-3.1,1-5,1.2C99,253.5,96.5,253.6,94.3,253.6z
		 M79.4,227c0.2,0.1,0.4,0.2,0.5,0.3l0.7,0.6c0.5,0.4,0.7,1.1,0.4,1.7c-1.9,4.7-2.9,7.5-4.3,11.3l-1,2.9c-0.6,1.8-1.5,4.2-0.5,5.1
		c0.5,0.4,1.4,0.5,2.3,0.5c2.9,0.2,5.2,0.4,7.5,0.6c5,0.5,9.2,0.9,16.9,0.2c1.9-0.2,3.1-0.4,3.6-0.7c0.8-0.5,1.4-1.6,1.8-3.4
		c0.9-3.8,0.5-7.5-1-10.4c-1.2-2.3-3.4-2.8-6.4-3.6c-0.7-0.2-1.4-0.3-2-0.5c-0.8-0.2-1.2-1-1.1-1.7c0.2-0.8,0.9-1.3,1.7-1.2
		c0.5,0,1-0.1,1.1-0.2l0,0c0,0,0,0,0-0.2c0-0.1,0-0.1,0-0.2l0.8-8c-0.3-0.1-0.6-0.3-0.8-0.6c-0.2-0.3-0.3-0.8-0.2-1.2
		c2.5-9.8,3.1-21,1.8-31.5c-0.8-6.1-2.9-9.7-4.1-9.9c-0.4-0.1-1,0.4-1.8,2c-1.4,2.7-1.7,8.2-2,12.6c-0.1,2.2-0.3,4.2-0.5,5.8
		c-0.8,5.7-3.1,11.7-4.9,16.5c-0.5,1.4-1,2.6-1.4,3.8c-0.2,0.7-0.9,1.1-1.6,1l-2.4-0.4l-2.9,8.5C79.3,226.8,79.4,226.9,79.4,227z"/>
</g>
<g>
	<g>
		<path class="st0" d="M92.7,129c1.4-0.4,2.8-0.6,4.2-0.1c2.1,0.9,2.8,3.9,4.4,5.3c1.8,1.7,3.9,8.1,6.7,7.2c2.5-0.7,9.3-6.6,9.3-6.6
			s0.4-4.6,2.3-7c0.9-1.2,3.3-2.3,4.8-2.7c2.3-0.6,4.8,0.5,6,2.3c1.3,1.8,1.5,4.1,1,6.3c-1.2,5.4-4.1,5.7-9.4,9.1
			c-3.3,2.2-10.8,8.7-14.8,8.6c-5.1-0.1-7.7-5.1-11.4-8.3c-2.9-2.5-4.6-6.3-5.2-10C90.5,131.6,90.8,129.3,92.7,129"/>
	</g>
	<path class="st3" d="M116.5,135.4c0,0,3.1,6.7,6.7,6.9l-6.4,4.9c0,0-4.1-3.1-5.9-6.9L116.5,135.4z"/>
	<g>
		<path d="M107.4,152.9c0,0-0.1,0-0.1,0c-4.3-0.1-6.9-3-9.5-5.8c-0.9-1-1.8-2-2.8-2.9c-2.9-2.5-4.9-6.5-5.7-10.9
			c-0.4-2.4,0.4-5.3,3.1-5.8c1.5-0.4,3.3-0.8,5.1,0c1.7,0.7,2.7,2.3,3.5,3.7c0.4,0.8,0.9,1.5,1.3,1.9c0.8,0.7,1.4,1.8,2.2,3.1
			c0.8,1.3,2.3,4,3.1,3.8c1.4-0.4,5.5-3.6,8.3-5.9c0.2-1.4,0.8-5,2.5-7.2c1.2-1.6,4.1-2.9,5.6-3.2c2.8-0.7,5.9,0.5,7.6,2.9
			c1.4,2,1.9,4.7,1.3,7.5c-1.1,4.8-3.5,6.2-6.8,8.1c-0.9,0.5-2,1.2-3.2,1.9c-0.7,0.5-1.7,1.2-2.8,2
			C115.1,149.8,110.7,152.9,107.4,152.9z M95.1,130c-0.6,0-1.3,0.1-2,0.3c0,0-0.1,0-0.1,0c-0.9,0.2-0.8,1.9-0.7,2.4
			c0.6,3.7,2.3,7.1,4.7,9.1c1.1,1,2.1,2.1,3.1,3.1c2.3,2.5,4.3,4.8,7.3,4.8c0,0,0,0,0.1,0c2.6,0,7.8-3.9,10.9-6.2
			c1.1-0.8,2.1-1.6,2.9-2.1c1.2-0.8,2.4-1.5,3.3-2c3.2-1.8,4.6-2.7,5.4-6.1c0.4-1.9,0.1-3.8-0.8-5.1c-1-1.4-2.9-2.1-4.5-1.7
			c-1.3,0.3-3.3,1.4-4,2.2c-1.3,1.7-1.9,5.1-2,6.3c0,0.4-0.2,0.7-0.5,1c-1.2,1-7.2,6.1-9.9,6.9c-3,0.9-5-2.5-6.5-5.1
			c-0.6-1-1.2-2-1.6-2.4c-0.8-0.7-1.4-1.7-1.9-2.6c-0.6-1.1-1.2-2.1-2-2.4C95.9,130.1,95.5,130,95.1,130z M92.7,129L92.7,129
			L92.7,129z"/>
	</g>
</g>
<g>
	<g>
		<path class="st4" d="M117.5,179.9c-0.6-5.1-1.9-10.2-3.2-15.1c-1-3.8-2.3-8-3.7-12.4c-5.1-3.9-10.1-9.9-14.1-15.3
			c-3.6-4.9-6.4-9.4-7.7-11.4c-0.4,0.6-0.7,1.4-1,2.3c-2.8,8.9-3,22.8-3.2,32.8c-0.2,12.3-1.9,23-5.1,35.9c-0.2,0.7,0.6,1.2,1.1,0.8
			c3.5-2.5,5.9-5.4,9.6-9.2c0.4-0.4,0.9-0.4,1.2,0.1c2.3,3.7,4.9,7.7,7.7,11.2c0.3,0.4,0.9,0.4,1.2,0c2.2-3.3,4.5-5.9,6.7-9.3
			c0.5-0.7,1-1.5,1.9-1.5c0.7-0.1,1.2,0.5,1.8,0.7c1,0.4,4.8,3.5,6.7,5.1c0.5,0.4,1.2,0.1,1.2-0.5
			C118.6,187.8,117.5,179.9,117.5,179.9z"/>
		<path class="st0" d="M90.3,123.8c-0.8,0.1-1.5,0.3-2.3,0.7c0,0,0.3,0.4,0.7,1.2C89.2,124.8,89.7,124.2,90.3,123.8z"/>
		<path class="st0" d="M104.9,137.5c-0.9-2.1-1.8-4.1-2.7-5.9c-1.4-2.8-4.1-6.1-6.9-7.7c-1.5-0.3-3.3-0.5-5.1-0.1
			c-0.6,0.4-1.1,1-1.6,1.9c1.3,2.1,4,6.5,7.7,11.4C99.2,137.7,102.1,137.9,104.9,137.5z"/>
		<path class="st5" d="M96.4,137.1c4,5.4,8.7,13.7,15.6,17c-1.7-5.1-5-11.9-7-16.6C102.1,137.9,99.2,137.7,96.4,137.1z"/>
	</g>
	<path class="st6" d="M83.2,162.2c0,0,16.3,1.4,31.9-1.4l1.9,11c0,0-11.8,2.6-34.2,1.1L83.2,162.2z"/>
	<path d="M111.3,155.1c-0.2,0-0.3,0-0.5-0.1c-6.3-3.4-11.1-9.9-14.9-15.1c-0.4-0.6-0.9-1.2-1.3-1.8c-2.6-3.5-4.5-7.2-5.8-9.8
		c-0.5-1.1-1-2-1.4-2.5c-0.3-0.5-0.1-1.1,0.3-1.4c0.5-0.3,1.1-0.1,1.4,0.3c0.4,0.6,0.8,1.5,1.4,2.7c1.3,2.6,3.2,6.2,5.7,9.6
		c0.4,0.6,0.9,1.2,1.3,1.8c3.7,5.1,8.3,11.3,14.2,14.5c0.5,0.3,0.7,0.9,0.4,1.4C112,154.9,111.6,155.1,111.3,155.1z"/>
	<path class="st7" d="M106.2,159.2l2.2,15.5l8.7-0.9l-2.5-15.2L106.2,159.2z M114.6,171.6l-4.5,0.4l-0.3-3.4c0.1,0,0.2,0,0.4,0
		c1.5-0.1,2.2-0.6,2.1-1.5c-0.1-0.9-0.9-1.4-2.4-1.3c-0.1,0-0.2,0-0.4,0l-0.3-4l3.6-0.3L114.6,171.6z"/>
	<g>
		<path class="st8" d="M95.8,145.3c0-0.5,0.5-1,1-1c0,0,0,0,0,0c0.6,0,1.1,0,1.7,0.1c-0.6-0.9-1.8-1.2-2.7-0.7
			c-0.9,0.6-1.2,1.8-0.6,2.8c0.6,1,1.9,1.4,2.8,0.8c0.4-0.2,0.7-0.6,0.8-1c-0.7,0-1.4-0.1-2.1-0.1C96.2,146.3,95.8,145.8,95.8,145.3
			z"/>
		<path class="st8" d="M100.4,153.5c-0.2,0-0.4-0.1-0.6-0.2c-0.4-0.3-0.5-0.9-0.2-1.4c0.4-0.5,0.7-1,1.1-1.4c-0.5-0.1-0.9,0-1.4,0.2
			c-0.9,0.6-1.2,1.8-0.6,2.8c0.6,1,1.9,1.4,2.8,0.8c0.9-0.5,1.2-1.6,0.7-2.6c-0.3,0.4-0.7,0.9-1,1.4
			C101.1,153.3,100.7,153.5,100.4,153.5z"/>
		<path class="st9" d="M107.7,145.4c-0.8-0.2-1.6-0.3-2.4-0.4c-2.3-0.3-4.6-0.5-6.8-0.6c-0.6,0-1.1-0.1-1.7-0.1c0,0,0,0,0,0
			c-0.5,0-1,0.4-1,1c0,0.6,0.4,1,1,1c0.7,0,1.4,0.1,2.1,0.1c1.6,0.1,3.2,0.2,4.9,0.4c-1,1.2-2,2.4-3,3.6c-0.4,0.5-0.7,1-1.1,1.4
			c-0.3,0.4-0.2,1.1,0.2,1.4c0.2,0.1,0.4,0.2,0.6,0.2c0.3,0,0.6-0.1,0.8-0.4c0.3-0.5,0.7-0.9,1-1.4c1.2-1.6,2.4-3.1,3.8-4.5
			C106.6,146.6,107.1,146,107.7,145.4C107.7,145.4,107.7,145.4,107.7,145.4z"/>
		<polygon class="st9" points="107.7,145.4 107.7,145.4 107.7,145.4 		"/>
	</g>
	<path d="M99.6,201.3c-0.7,0-1.3-0.3-1.7-0.8c-2.6-3.3-5-7-7.2-10.5c-0.6,0.6-1.2,1.3-1.8,1.8c-2.5,2.6-4.6,4.9-7.4,6.8
		c-0.8,0.6-1.8,0.6-2.6,0c-0.8-0.5-1.1-1.5-0.9-2.4l0,0c3.8-13.9,5-35.4,5-35.6c0.1-9.4,0.4-23.8,3.3-33.1c0.3-1,0.7-1.9,1.1-2.6
		c0.6-1,1.3-1.8,2-2.3c0.2-0.1,0.4-0.2,0.6-0.3c1.8-0.3,3.7-0.2,5.6,0.2c0.1,0,0.3,0.1,0.4,0.2c3.2,1.8,6,5.4,7.5,8.3
		c1,2.1,1.9,4,2.7,6c0.5,1.1,5.7,15.4,6,16l0.2,0.6c0.3,1,0.5,1.5,0.7,2.3l1-0.1c0.7,0,1.4,0.5,1.6,1.2l0.8,3.6l2.5,12.9
		c0.1,0.5,0,0.9-0.3,1.3l-0.4,0.5c0.2,1,0.5,3.1,0.7,5c0,0.2,1.2,7.5,1,13.7c0,0.9-0.5,1.6-1.3,2c-0.8,0.3-1.7,0.2-2.3-0.3
		c-4.2-3.5-5.9-4.7-6.3-4.9c-0.3-0.1-0.6-0.3-0.8-0.4c-0.1-0.1-0.3-0.2-0.4-0.2c0,0-0.2,0.1-0.7,0.9c-1.2,1.9-2.5,3.5-3.7,5.1
		c-1,1.3-2,2.7-3,4.2C101,200.9,100.3,201.3,99.6,201.3C99.6,201.3,99.6,201.3,99.6,201.3z M90.7,186.5c0.1,0,0.2,0,0.2,0
		c0.7,0.1,1.3,0.4,1.6,1c2.1,3.4,4.4,7,6.9,10.2c0.8-1.2,1.7-2.3,2.5-3.4c1.2-1.6,2.4-3.2,3.6-5c0.4-0.7,1.4-2.1,3-2.2
		c0.9-0.1,1.6,0.3,2.1,0.6c0.1,0.1,0.3,0.2,0.4,0.2c0.3,0.1,1.2,0.5,5.8,4.3c0-5.6-1-11.6-1-11.6c-0.3-2.7-0.8-5.6-0.8-5.6
		c-0.1-0.5,0-0.9,0.3-1.3l0.4-0.5l-2.3-12.2l-0.5-2.3l-0.9,0.1c-0.7,0-1.3-0.4-1.5-1.1c-0.5-1.5-0.6-2-1.1-3.4l-0.2-0.5
		c-1.5-4.1-5.5-15-5.9-15.9c-0.8-1.9-1.7-3.8-2.7-5.8c-1.4-2.8-3.9-5.6-6-6.9c-1.4-0.3-2.7-0.3-3.9-0.1c-0.3,0.3-0.6,0.7-0.9,1.2
		c-0.3,0.6-0.6,1.3-0.9,2c-2.8,8.9-3,23-3.1,32.4c-0.1,0.9-1.2,19.9-4.6,34c1.8-1.5,3.3-3.1,5.2-5.1c0.8-0.8,1.6-1.6,2.4-2.5
		C89.5,186.8,90.1,186.5,90.7,186.5z M80.9,197.1C80.9,197.1,80.9,197.1,80.9,197.1C80.9,197.1,80.9,197.1,80.9,197.1L80.9,197.1z"
		/>
</g>
<g>
	<g>
		<g>
			<path class="st10" d="M128.9,119.9c-6.8,7.4-14,7.6-26.2,8.6c-30.1,2.4-41.6-7.2-43.7-29.2c-0.3-3.1-1.3-19.2,7.5-30.3
				c5.3-6.7,13.5-8.5,23.5-11.2c47.7-12.7,38.1,34.4,38.2,35.6c0.1,1.8,1.8,3,2.8,4.3C135.6,103.6,133.5,114.9,128.9,119.9z"/>
			<path d="M94.5,130.3c-23.8,0-35-9.5-36.9-30.9c-0.3-3.2-1.4-19.7,7.9-31.4c5.3-6.7,13.3-8.8,22.6-11.3l1.7-0.4
				c14.4-3.8,25.2-2.7,32.2,3.4c5,4.4,10.5,13.7,8,33c0,0.3-0.1,0.5-0.1,0.6c0.1,0.8,0.7,1.5,1.4,2.2c0.4,0.4,0.7,0.8,1.1,1.3
				c4.9,6.6,2.8,18.6-2.3,24.1l0,0c-6.9,7.5-14.2,8.1-25.4,8.9l-1.8,0.1C99.9,130.2,97.1,130.3,94.5,130.3z M104.7,57
				c-4.2,0-8.9,0.7-14.2,2.1l-1.7,0.4c-9.1,2.4-16.3,4.3-21,10.2c-8.7,11-7.4,27.4-7.2,29.3c2.1,22.3,13.8,30.1,42.1,27.9l1.8-0.1
				c10.8-0.9,17.4-1.4,23.4-8c4.2-4.6,6-15,2.1-20.3c-0.2-0.3-0.5-0.7-0.9-1c-0.9-1-2.1-2.3-2.2-4.1c0-0.2,0-0.5,0.1-1.2
				c2.3-17.9-2.5-26.4-7-30.3C116.2,58.7,111.1,57,104.7,57z"/>
		</g>
		<g>
			<path class="st11" d="M85.8,47.8c-6.6,0.2-13.4,1.8-18.7,5.3c-5.3,3.5-9.7,8.5-12,14.5C52.7,73.7,53.5,80.6,52,87
				c-1.7,7.2-6.4,13.6-12.7,17.4c-1,0.6-2.1,1.2-2.2,2.4c-0.3,1.7,1.9,2.8,3.6,3c5.3,0.8,9.1-1,13.7-3.8c0.6,2.6-1.1,6-2.5,8.4
				c-1.4,2.3-2.3,5,0.1,6.3c0.7,0.4,1.5,0.5,2.3,0.5c9.2,0.1,17.9-5,23.9-11.9c6-6.9,7.8-11.3,10.1-20.2c-0.6,2.7,5.7,6.9,8,5.4
				c2.3-1.5,3.8-11.1,4.6-13.8c1.6-5.1,1.7-7.7,4.8-12c2.8-3.9,4.4-4.8,8.1-4.2c4.8,0.8,6.4,2.7,8.4,7.7c2.1,5.1,2.5,9.1,6.9,14.2
				c3.6,4.2,6.5,6,12,5.7c1.1,0,2.2-0.3,2.9-1.1c1.2-1.8-0.9-3.8-2.4-5.3c-8.4-7.8-1.9-17.4-7.2-27.6c-3.9-7.5-14.9-14.8-26.1-8.9
				c-6.7,3.6-9-0.5-14.1-1.2C91.4,47.8,88.6,47.7,85.8,47.8z"/>
			<path d="M54.7,122.7c-0.1,0-0.3,0-0.4,0c-1,0-2.1-0.1-3-0.7c-1.1-0.6-1.8-1.5-2.1-2.7c-0.4-1.6,0.1-3.5,1.5-5.7
				c1.2-1.9,1.9-3.6,2.2-5c-3.7,2-7.5,3.4-12.4,2.6c-1.2-0.2-2.3-0.6-3.2-1.2c-1.3-0.9-1.9-2.2-1.7-3.5c0.3-1.8,1.9-2.8,2.9-3.4
				c5.9-3.6,10.4-9.7,12-16.4c0.6-2.6,0.8-5.4,1.1-8c0.3-3.9,0.7-7.9,2.1-11.7c2.4-6,6.8-11.4,12.6-15.2c6.5-4.2,14.2-5.3,19.5-5.5
				l0,0c2.8-0.1,5.6,0,8.4,0.4c1.9,0.2,3.4,0.9,4.7,1.5c2.6,1.1,4.5,1.9,8.4-0.1c4.7-2.5,9.9-3,14.9-1.5c5.5,1.7,10.6,5.9,13.3,11
				c2.5,4.8,2.6,9.5,2.6,13.7c0,5.1,0.1,9.5,4.3,13.4c1.5,1.4,4.7,4.3,2.7,7.2c-1.2,1.7-3.3,1.8-4,1.8c-6.3,0.2-9.6-2.1-13.2-6.3
				c-3.4-4-4.6-7.3-5.8-10.9c-0.4-1.2-0.8-2.4-1.3-3.7c-1.9-4.6-3.1-6.1-7.2-6.8c-2.9-0.5-4-0.1-6.7,3.6c-2.2,3.1-2.8,5.1-3.6,8.3
				c-0.3,1-0.6,2.1-0.9,3.3c-0.2,0.6-0.4,1.7-0.7,3c-1.3,5.7-2.4,10.2-4.5,11.6c-1.9,1.3-4.8,0.2-6.8-1.2c-0.6-0.4-1.1-0.8-1.6-1.3
				c-2,6.8-4.2,11-9.4,17C72.4,118.2,63.5,122.7,54.7,122.7z M54.4,104.5c0.2,0,0.4,0,0.6,0.1c0.4,0.2,0.8,0.6,0.9,1
				c0.6,2.5-0.3,5.7-2.7,9.5c-0.9,1.5-1.3,2.7-1.1,3.4c0.1,0.2,0.2,0.5,0.7,0.8c0.4,0.2,1,0.3,1.6,0.3c7.9,0.1,16.4-4.1,22.7-11.4
				c5.7-6.6,7.5-10.7,9.8-19.5c0.2-0.8,1-1.3,1.8-1.1c0.8,0.2,1.3,1,1.1,1.8c-0.1,0.3,0.5,1.5,2.2,2.7c1.8,1.2,3.2,1.3,3.5,1.1
				c1.2-0.8,2.6-7.1,3.2-9.8c0.3-1.3,0.6-2.5,0.8-3.2c0.4-1.2,0.6-2.2,0.9-3.2c0.9-3.2,1.6-5.7,4.1-9.2c2.8-3.9,4.9-5.6,9.6-4.8
				c5.5,0.9,7.4,3.4,9.5,8.6c0.6,1.4,1,2.6,1.4,3.9c1.2,3.4,2.2,6.4,5.2,9.9c3.6,4.2,6.1,5.4,10.8,5.2c1.2,0,1.6-0.3,1.7-0.5
				c0.5-0.8-1.6-2.7-2.2-3.3c-5.2-4.8-5.2-10.3-5.3-15.6c0-4-0.1-8.2-2.3-12.4c-2.3-4.4-6.7-8-11.5-9.5c-4.2-1.3-8.6-0.9-12.6,1.3
				c-5.2,2.8-8.3,1.4-11,0.2c-1.3-0.5-2.5-1.1-3.9-1.3c-2.6-0.3-5.3-0.5-7.9-0.4l0,0c-4.9,0.2-12,1.2-17.9,5
				c-5.2,3.4-9.3,8.3-11.4,13.7c-1.3,3.4-1.6,7-1.9,10.8c-0.2,2.8-0.5,5.7-1.1,8.5c-1.8,7.6-6.7,14.3-13.3,18.3
				c-0.6,0.4-1.5,0.9-1.5,1.3c0,0.1,0,0.3,0.4,0.6c0.5,0.3,1.2,0.6,1.9,0.7c4.5,0.7,7.8-0.7,12.7-3.6
				C53.8,104.6,54.1,104.5,54.4,104.5z M85.8,47.8L85.8,47.8L85.8,47.8z"/>
		</g>
		<g>
			<ellipse class="st12" cx="105.5" cy="100.2" rx="1.2" ry="1"/>
			<circle class="st12" cx="111.2" cy="99.3" r="1.3"/>
			<ellipse class="st12" cx="110.3" cy="103" rx="1" ry="0.8"/>
		</g>
		<g>
			<g>
				<path class="st13" d="M124.6,99.2L124.6,99.2c-1,0-1.7-1.2-1.7-2.6v-0.4c0-1.4,0.8-2.6,1.7-2.6c1,0,1.7,1.2,1.7,2.6v0.4
					C126.3,98,125.6,99.2,124.6,99.2"/>
				<path class="st13" d="M116.6,99L116.6,99c-1,0-1.7-1.2-1.7-2.6V96c0-1.4,0.8-2.6,1.7-2.6s1.7,1.2,1.7,2.6v0.4
					C118.3,97.8,117.5,99,116.6,99"/>
			</g>
		</g>
		<path class="st14" d="M127.3,102c-0.3,0-0.6-0.1-0.8-0.3c-1.5-1.7-3.5-1.9-5.6-0.6c-0.5,0.3-1.1,0.2-1.4-0.3
			c-0.3-0.5-0.2-1.1,0.3-1.4c2.9-1.9,6-1.5,8.2,0.9c0.4,0.4,0.3,1-0.1,1.4C127.8,101.9,127.5,102,127.3,102z"/>
		<path d="M125.4,116.2c-0.4,0-0.8-0.3-1-0.7c-1.4-5-8.7-7.6-14.7-7.6c0,0,0,0,0,0c-0.5,0-1-0.4-1-1c0-0.6,0.4-1,1-1
			c5.6,0,14.7,2.3,16.6,9c0.2,0.5-0.2,1.1-0.7,1.2C125.6,116.2,125.5,116.2,125.4,116.2z"/>
	</g>
	<g>
		<g>
			<path class="st8" d="M40.5,65.8c0.1,0,0.3-0.1,0.4-0.1c3.8-1.4,6.8-2.8,10-5.8c6.8-6.5,12.2-17.7,18.5-24.9
				c5.9-6.8,12.5-11,20.2-11.5c12.8-0.8,24.4,8.8,33.9,21.2c2.7,3.6,5.2,6.7,8.7,8.8c3.9,2.3,3.6-0.8,7.5,1.3
				c1.5,0.8,2.9,1.8,3.7,3.5c0.5-1.7,0.9-3.9,0.8-5.7c-0.2-3.2-2.2-4.8-4.4-5.9c-4-2.1-3.6,2-7.5-0.3c-3.6-2.1-6.2-6.1-9-9.7
				c-9.6-12.4-22.4-21.7-35.4-20.9c-7.9,0.5-15.5,4.5-21.5,11.3c-6.4,7.2-9.7,18.3-16.6,24.8c-3.2,3-6.7,3.5-10.5,4.9
				c-0.1,0-0.3,0.1-0.4,0.1c-2.7,1-5.3,3.5-5.9,7.2c-0.4,2.5,0.4,5.1,1.6,7.3C35.4,68.1,38.1,66.7,40.5,65.8z"/>
			<path class="st15" d="M125.3,74.2c-3.1,0.6-1.7-6.1-2.8-9.1c-2.8-7.6-11.5-0.7-17.8-1.7c-6.7-1-12.8-0.7-19.4,3.9
				s-10.8,8.5-14.9,18.2c-0.7,1.6-1.8,3.1-2.6,4.3c-1.2,1.8-3.2,2-5,2c-9.3-0.4-21.5-9-27.5-19.4c-0.2-0.4-0.4-0.8-0.7-1.2
				c-0.2-0.4,0.8-2.2,1-2.5c0.4-0.8,1-1.4,1.5-2c1.2-1.2,2.8-1.7,4.2-2.3c3.3-1.2,6.8-2.1,9.6-4.8c6.8-6.5,12.2-17.7,18.5-24.9
				c5.9-6.8,13.5-11.1,21.2-12c15.4-1.7,24.4,8.8,33.9,21.2c2.7,3.6,4.7,6.3,8.2,8.4c3.9,2.3,5.7-2.9,9.8,2c1.1,1.3-0.3,2.1,0.5,3.8
				c0,0.1-0.8,2.2-0.8,2.3c-5.9,9.4-2.1,5.1-8.7,11.2C133.4,71.8,126.9,73.9,125.3,74.2z"/>
		</g>
		<path d="M62.6,93.5C53,93.1,40,83.8,33.8,72.9c-0.2-0.4-0.5-0.9-0.7-1.3c-1.2-2.4-2.2-7.2-1.7-10.1c0.8-4.7,6.4-6.7,9.1-7.7
			l0.4-0.2c3.7-1.3,6.5-2.7,9.6-5.5c3.6-3.4,5.8-7,8.1-10.8c1.9-3.2,3.9-6.6,6.9-10c6.1-6.9,14.8-11.5,23.2-12.4
			c16.9-1.7,26.7,9,36.1,21.1c0.5,0.6,1,1.3,1.4,1.9c2.2,2.9,4.4,5.9,7.1,7.4l0.3,0.2c0.3,0.2,1.6,0.7,4.8,0c1-0.3,3-0.4,4.5,1
			c2.1,1.9,2.6,5.5,1.5,11.2c-0.1,0.6-3.1,12-11.6,18.7l-1.9-2.3c7.6-6.1,10.5-16.9,10.5-17.1c1.2-6,0-7.8-0.5-8.3
			c-0.7-0.6-1.7-0.3-1.7-0.3l-0.1,0c-4.7,1-6.8-0.1-7.5-0.7c-3.1-1.9-5.5-5-7.8-8.1c-0.5-0.6-0.9-1.3-1.4-1.9
			c-9.2-11.8-18-21.5-33.4-19.9c-7.7,0.8-15.6,5-21.2,11.4c-2.8,3.2-4.7,6.4-6.6,9.5c-2.3,3.8-4.7,7.8-8.6,11.5
			c-3.4,3.2-6.6,4.7-10.6,6.2l-0.4,0.1c-2.2,0.8-6.7,2.5-7.1,5.4c-0.3,2,0.4,6.2,1.4,8.3c0.2,0.4,0.4,0.8,0.6,1.2
			C42.2,81.5,54,90.1,62.7,90.5L62.6,93.5z M133.5,45.4L133.5,45.4L133.5,45.4z"/>
		<path class="st8" d="M62.9,62.2c-0.9,0-1.8-0.1-2.6,0c-0.7,0.1-1.5,0.4-1.7,1.1c-0.2,0.6,0.1,1.3,0.5,1.7c0.4,0.4,1,0.7,1.5,0.9
			c0.4,0.2,0.9,0.4,1.2,0.8c0.1,0.2,0.1,0.5,0.1,0.7c0.1,1,0,2.1,0.6,2.9c0.6,0.8,1.8,0.7,2.5,0.2c0.7-0.5,1.2-1.5,1.5-2.4
			c0.3-0.9,0.5-1.9,1-2.7c0.4-0.7,1-1.3,1.5-1.8c1.2-1.1,2.4-2.2,3.7-3.2c2.2-1.9,4.5-3.8,7.2-4.6c1.2-0.4,2.5-0.5,3.6-1
			c0.5-0.2,0.9-0.5,1.2-1c0.3-0.5,0.3-1.2-0.1-1.6c-0.6-0.7-1.7-0.4-2.2-1.1c-0.1-0.2-0.2-0.4-0.3-0.6c-0.2-0.8,0-1.6,0-2.5
			s-0.4-1.8-1.1-2c-0.6-0.1-1.2,0.4-1.6,1c-0.6,0.9-1.1,2-1.3,3.1c-0.2,0.9-0.3,1.8-0.6,2.6c-0.6,1.7-1.8,2.9-3.1,3.9
			c-1.7,1.4-3.4,2.5-5.2,3.6C67.1,61.4,65.2,62.2,62.9,62.2z"/>
		<path class="st17" d="M63.4,47.1c-1.8,1.9-3.4,4.4-3.1,7.1c0.1,0.8,0.3,1.6,0.9,2.1c0.7,0.7,1.8,0.9,2.7,0.8
			c0.9-0.2,1.8-0.7,2.6-1.2c0.9,1.1,0.4,2.7,0.9,4c0.4,1.2,1.7,1.9,2.9,2s2.3-0.4,3.3-1c1.3-0.8,2.4-1.7,3.5-2.9
			c0.8-0.9,1.5-1.9,1.5-3.1c0.1-2.2-2-3.7-3.7-4.8c1.3-1.2,2.1-3,1.8-4.8C75.2,36.2,65.8,44.4,63.4,47.1z"/>
		<path class="st15" d="M68.6,48c-0.1,1.2,0.7,2.4,1.7,2.7s2.2-0.3,2.6-1.4c0.2-0.7,0.1-1.5,0-2.3c-0.1-0.2-0.1-0.4-0.2-0.6
			C71.4,44.7,68.8,46.2,68.6,48z"/>
		<path class="st15" d="M68,51.2c0.3,0.8-0.2,1.6-0.8,2.1s-1.4,0.5-2.1,0.1c-0.4-0.2-0.7-0.5-0.9-0.9c-0.2-0.6,0-1.4,0.4-1.9
			c0.4-0.6,1-1.2,1.7-1.1C66.3,49.4,67.3,49.4,68,51.2z"/>
		<path class="st18" d="M70.5,59.1c-1,0-1.9-0.5-2.4-1.3c-0.3-0.5-0.1-1.1,0.4-1.4c0.5-0.3,1.1-0.1,1.4,0.4c0.1,0.2,0.4,0.4,0.7,0.3
			c0.3,0,0.7-0.2,1.2-0.5c0.7-0.4,1.1-0.9,1.3-1.4c0.3-0.5,0.3-1.2,0-1.6c-0.3-0.5-0.1-1.1,0.4-1.4c0.5-0.3,1.1-0.1,1.4,0.4
			c0.6,1,0.6,2.3,0,3.5c-0.4,0.8-1.1,1.5-2,2.2c-0.5,0.3-1.3,0.8-2.2,0.8C70.6,59.1,70.5,59.1,70.5,59.1z"/>
	</g>
	<g>
		<path class="st11" d="M61.9,92.2c7.9-4.3,8.3-15.8,12.1-23.3c4.4-8.5,11.1-15.5,21.4-14.2c5.1,0.7,6.4-1.2,13.1-4.8
			c11.2-6,22.2,1.4,26.1,8.9c5.3,10.2-1.2,19.7,7.2,27.6c1.6,1.4,3.7,3.5,2.4,5.3c-0.6,0.9-1.8,1.1-2.9,1.1c-5.5,0.2-8.4-1.6-12-5.7
			c-4.4-5.1-4.8-9.1-6.9-14.2c-2-5-3.6-6.9-8.4-7.7c-3.7-0.6-5.3,0.3-8.1,4.2c-3.1,4.3-3.2,6.9-4.8,12c-0.8,2.7-2.3,12.2-4.6,13.8
			s-9-4.2-9-7.4"/>
		<path d="M95.8,96.8c-0.8,0-1.8-0.2-3-0.9c-2.8-1.5-6.6-5.2-6.6-8.3c0-0.8,0.7-1.5,1.5-1.5s1.5,0.7,1.5,1.5c0,1.1,1.8,3.5,4.1,5.1
			c1.4,1,2.4,1.1,2.6,1c1.2-0.8,2.6-7.1,3.2-9.7c0.3-1.3,0.6-2.5,0.8-3.2c0.4-1.2,0.6-2.2,0.9-3.2c0.9-3.2,1.6-5.7,4.1-9.2
			c2.8-3.9,4.9-5.6,9.6-4.8c5.5,0.9,7.4,3.4,9.5,8.6c0.6,1.4,1,2.6,1.4,3.9c1.2,3.4,2.2,6.4,5.2,9.9c3.6,4.2,6.1,5.4,10.8,5.2
			c1.2,0,1.6-0.3,1.7-0.5c0.5-0.8-1.6-2.7-2.2-3.3c-5.2-4.8-5.2-10.3-5.3-15.6c0-4-0.1-8.2-2.3-12.4c-2.3-4.4-6.7-8-11.5-9.5
			c-4.2-1.3-8.6-0.9-12.6,1.3c-1.6,0.8-2.9,1.6-4,2.2c-3.6,2.1-5.6,3.3-10,2.7c-8.1-1-14.8,3.5-19.9,13.4c-1.2,2.3-2,5.1-2.9,8
			c-1.9,6.3-3.9,12.7-9.8,16c-0.7,0.4-1.6,0.1-2-0.6c-0.4-0.7-0.1-1.6,0.6-2c4.8-2.6,6.6-8.5,8.4-14.2c0.9-2.9,1.8-5.9,3.1-8.4
			c5.7-11.2,13.5-16.2,22.9-15c3.4,0.4,4.7-0.3,8.1-2.4c1.1-0.7,2.4-1.4,4.1-2.3c4.7-2.5,9.9-3,14.8-1.5c5.5,1.7,10.6,5.9,13.3,11
			c2.5,4.8,2.6,9.5,2.6,13.7c0,5.1,0.1,9.5,4.3,13.4c1.5,1.4,4.7,4.3,2.7,7.2c-1.2,1.7-3.3,1.8-4,1.8c-6.3,0.2-9.6-2.1-13.2-6.3
			c-3.4-4-4.6-7.3-5.8-10.9c-0.4-1.2-0.8-2.4-1.3-3.7c-1.9-4.6-3.1-6.1-7.2-6.8c-2.9-0.5-4-0.1-6.7,3.6c-2.2,3.1-2.8,5.1-3.6,8.3
			c-0.3,1-0.6,2.1-0.9,3.3c-0.2,0.6-0.4,1.7-0.7,3c-1.3,5.7-2.4,10.2-4.5,11.6C97.1,96.6,96.5,96.8,95.8,96.8z"/>
	</g>
</g>
<path class="st19" d="M39.8,245.8c0,0.9,0.1,1.8,0.8,2.4c0.7,0.5,1.7,0.6,2.5,0.1c0.4-0.4,1.1-0.5,0.1-2.9c-0.4-0.9-1.7-1.8-2.5-1.2
	C40.7,244.2,39.7,244.5,39.8,245.8z"/>
<g>
	<path class="st0" d="M85.1,140.4c2.9,0.2,6.2-3.9,5.4-7.2c-0.5-1.9-2.2-2.3-4.2-2.5c-5.4-0.5-13.2-0.9-18.8-1.3
		c-0.7-0.1-0.9-0.9-0.4-1.3c6.7-4.8,28.4-5,22.8-17.9c-1.7-4-6.3-6.2-10.5-5.1c-5.1,1.3-5.7,4.3-8.1,7.9c-2.4,3.5-6.5,5.1-10.1,7.1
		c-4.2,2.4-8.9,6.6-7.3,12c0.8,2.7,3.2,3.7,5.8,4.6C59.8,136.9,69.2,139.1,85.1,140.4z"/>
	<path class="st3" d="M71.4,113.1c0,0,0.2,7.2,6.9,10.6l-8.4,3.2c0,0-4.3-1-5.5-9.1L71.4,113.1z"/>
	<path d="M85,141.7C85,141.7,85,141.7,85,141.7L85,141.7c-15.5-0.2-25-2.6-25.4-2.7c0,0-0.1,0-0.1,0c-3.6-1.3-6.2-3.7-7.1-6.5
		c-1.5-5.1,1.4-10.1,8-13.8c0.7-0.4,1.5-0.8,2.2-1.2c2.9-1.5,5.7-2.9,7.4-5.5c0.5-0.7,0.9-1.4,1.3-2.1c1.6-2.7,3-5.2,7.6-6.4
		c5-1.3,10.2,1.2,12.3,5.9c1.3,2.9,1.4,5.5,0.3,7.8c-2.2,4.7-9,6.8-15,8.6c-2.3,0.7-4.6,1.4-6.4,2.2c2.1,0.1,4.3,0.3,6.5,0.4
		c3.4,0.2,6.8,0.4,9.7,0.7c2.7,0.2,4.9,2.1,5.5,4.6c0.4,1.8,0,3.7-1.2,5.2C89.2,140.6,87.1,141.7,85,141.7z M85,138.7
		c1.1,0,2.4-0.7,3.3-1.7c0.5-0.6,1-1.5,0.7-2.6c-0.3-1.3-1.5-2.2-2.9-2.3c-2.8-0.2-6.2-0.5-9.6-0.7c-3.2-0.2-6.5-0.4-9.2-0.6
		c-0.9-0.1-1.7-0.7-2-1.6c-0.3-0.9,0.1-1.8,0.8-2.4c2.3-1.6,5.8-2.7,9.5-3.8c5.4-1.6,11.5-3.5,13.1-7c0.7-1.5,0.6-3.2-0.3-5.3
		c-1.4-3.3-5.2-5.1-8.7-4.2c-3.4,0.9-4.4,2.5-5.8,5c-0.4,0.7-0.9,1.5-1.4,2.3c-2.1,3.2-5.4,4.8-8.5,6.5c-0.7,0.4-1.5,0.8-2.2,1.2
		c-2.5,1.4-8.1,5.2-6.6,10.3c0.6,1.8,2.5,3.5,5.2,4.5C61.3,136.3,70.6,138.6,85,138.7L85,138.7z"/>
</g>
</svg>
