<?xml version="1.0" encoding="utf-8"?>
<!-- Generator: Adobe Illustrator 23.1.1, SVG Export Plug-In . SVG Version: 6.00 Build 0)  -->
<!DOCTYPE svg PUBLIC "-//W3C//DTD SVG 1.1//EN" "http://www.w3.org/Graphics/SVG/1.1/DTD/svg11.dtd" [
	<!ENTITY ns_flows "http://ns.adobe.com/Flows/1.0/">
	<!ENTITY ns_extend "http://ns.adobe.com/Extensibility/1.0/">
	<!ENTITY ns_ai "http://ns.adobe.com/AdobeIllustrator/10.0/">
	<!ENTITY ns_graphs "http://ns.adobe.com/Graphs/1.0/">
	<!ENTITY ns_vars "http://ns.adobe.com/Variables/1.0/">
	<!ENTITY ns_imrep "http://ns.adobe.com/ImageReplacement/1.0/">
	<!ENTITY ns_sfw "http://ns.adobe.com/SaveForWeb/1.0/">
	<!ENTITY ns_custom "http://ns.adobe.com/GenericCustomNamespace/1.0/">
	<!ENTITY ns_adobe_xpath "http://ns.adobe.com/XPath/1.0/">
]>
<svg version="1.1" id="레이어_1" xmlns:x="&ns_extend;" xmlns:i="&ns_ai;" xmlns:graph="&ns_graphs;"
	 xmlns="http://www.w3.org/2000/svg" xmlns:xlink="http://www.w3.org/1999/xlink" xmlns:a="http://ns.adobe.com/AdobeSVGViewerExtensions/3.0/"
	 x="0px" y="0px" viewBox="0 0 500 600" style="enable-background:new 0 0 500 600;" xml:space="preserve">
<metadata>
	<sfw  xmlns="&ns_sfw;">
		<slices></slices>
		<sliceSourceBounds  bottomLeftOrigin="true" height="24" width="23.2" x="350.2" y="361.5"></sliceSourceBounds>
		<optimizationSettings>
			<targetSettings  fileFormat="PNG24Format" targetSettingsID="0">
				<PNG24Format  filtered="false" interlaced="false" matteColor="#FFFFFF" noMatteColor="false" transparency="true">
					</PNG24Format>
			</targetSettings>
		</optimizationSettings>
	</sfw>
</metadata>
<path style="fill:#88E9FF;" d="M371.9,230.6l-0.6-0.2l-0.8,0.1v0.7l-0.1,0.8l-0.8,2v0.6l-0.2,0.9l-1.8,1.1l-4.7-1.2l-2.6-0.3
	l-1.2,0.9l-1.2,2l-0.6,0.5l-0.7-0.6l-1-0.6l-1.4-1.2l-1-1.9L352,233l-1.3-0.5l-0.5-1.8l1.1-1.6h1.2l1.3-0.2l0.3-0.9l0.2-1l-0.7-0.3
	l-0.8-0.1l0.9-2l1.4-1.5l-0.5-4.5l3.8-3.1l5.1-0.7l4.3-0.3l3.2,2.4l1,1.8v0.8l-0.4,0.7v2.5l0.7,1l0.9,0.7l0.2,1.6v1.7l-0.4,1.6
	L371.9,230.6z"/>
</svg>
