<?xml version="1.0" encoding="utf-8"?>
<!-- Generator: Adobe Illustrator 26.0.3, SVG Export Plug-In . SVG Version: 6.00 Build 0)  -->
<svg version="1.1" id="레이어_1" xmlns="http://www.w3.org/2000/svg" xmlns:xlink="http://www.w3.org/1999/xlink" x="0px"
	 y="0px" viewBox="0 0 225 165" style="enable-background:new 0 0 225 165;" xml:space="preserve">
<g>
	<g>
		<path style="fill:#698065;" d="M129.5,159.7c-2.9,0-5.6-0.6-7.7-1.9L9.7,93.2c-2.2-1.3-3.7-3.3-4.2-5.5c-0.2-0.5-0.3-1.1-0.3-1.7
			l0.3-27.7c0-1.3,0.6-2.6,1.6-3.5c0.9-0.8,2-1.2,3.2-1.2c0.2,0,0.3,0,0.5,0l45.1,4.4L86,40.5c2.6-1.5,6-2.4,9.3-2.4
			c2.9,0,5.6,0.6,7.7,1.9l47,27.2l65.3,6.4c2.4,0.2,4.3,2.3,4.3,4.7V105c0,0.4-0.1,0.8-0.2,1.3c-0.2,2.6-1.6,5.5-5.2,7.6l-75.5,43.6
			C136.2,158.9,132.9,159.7,129.5,159.7z"/>
	</g>
	<path style="fill:#040000;" d="M95.4,42.9c2,0,3.9,0.4,5.3,1.2l47.9,27.7l66.3,6.5V105l-0.3,0c0.4,1.6-0.4,3.4-2.8,4.7l-75.5,43.6
		c-2,1.1-4.5,1.7-6.9,1.7c-2,0-3.9-0.4-5.3-1.2L12,89c-1.4-0.8-2-1.9-2-3l-0.1,0l0.3-27.7l46.6,4.6l31.5-18.2
		C90.4,43.5,92.9,42.9,95.4,42.9 M95.4,33.4c-4.2,0-8.3,1.1-11.7,3L54.8,53.1l-43.6-4.3c-0.3,0-0.6,0-0.9,0c-2.3,0-4.6,0.9-6.3,2.4
		c-2,1.8-3.1,4.3-3.2,7L0.4,85.9c0,1,0.1,2,0.4,3c0.8,3.5,3.1,6.5,6.4,8.4L119.4,162c2.8,1.6,6.3,2.5,10.1,2.5c4.2,0,8.3-1.1,11.7-3
		l75.5-43.6c4.5-2.6,7.2-6.6,7.6-11c0.1-0.6,0.2-1.3,0.2-1.9V78.2c0-4.9-3.7-9-8.6-9.5l-64.3-6.3l-46.2-26.6
		C102.6,34.2,99.1,33.4,95.4,33.4L95.4,33.4z"/>
</g>
<g>
	<path style="fill:#ADCFA1;" d="M129.9,133.1c-2.9,0-5.6-0.6-7.7-1.9L10.1,66.5c-2.9-1.7-4.5-4.3-4.5-7.2c0-3.2,2-6.2,5.4-8.1
		L86.5,7.6c2.7-1.5,6-2.4,9.3-2.4c2.9,0,5.6,0.6,7.7,1.9l112.1,64.7c2.9,1.7,4.5,4.3,4.5,7.2c0,3.2-2,6.2-5.4,8.1l-75.5,43.6
		C136.6,132.3,133.3,133.1,129.9,133.1C129.9,133.1,129.9,133.1,129.9,133.1z"/>
	<path style="fill:#040000;" d="M95.4,10c2,0,3.9,0.4,5.3,1.2L212.4,76c3.1,1.8,2.7,5-0.9,7.1l-75.2,43.6c-2,1.1-4.5,1.7-6.9,1.7
		c-2,0-3.9-0.4-5.3-1.2L12.4,62.4c-3.1-1.8-2.7-5,0.9-7.1l75.2-43.6C90.5,10.6,93,10,95.4,10 M95.4,0.5c-4.2,0-8.3,1.1-11.7,3
		L8.6,47.1c-4.9,2.8-7.7,7.3-7.7,12.2c0,4.6,2.6,8.8,6.9,11.3l111.7,64.7c2.8,1.6,6.3,2.5,10,2.5c4.2,0,8.3-1.1,11.7-3l75.2-43.6
		c4.9-2.8,7.7-7.3,7.7-12.2c0-4.6-2.6-8.8-6.9-11.3L105.5,3C102.6,1.4,99.2,0.5,95.4,0.5L95.4,0.5z"/>
</g>
<g>
	<g>
		<path style="fill:#C0DEBD;" d="M117.6,105.5c-0.4,0-0.8-0.1-1.2-0.3L50.2,66.6c-0.7-0.4-1.2-1.2-1.2-2.1c0-0.8,0.5-1.6,1.2-2.1
			l53-30.6c0.4-0.2,0.8-0.3,1.2-0.3c0.4,0,0.8,0.1,1.2,0.3l66.1,38.5c0.7,0.4,1.2,1.2,1.2,2.1c0,0.8-0.5,1.6-1.2,2.1l-53,30.6
			C118.4,105.4,118,105.5,117.6,105.5z"/>
	</g>
	<path style="fill:#040000;" d="M104.4,34l66.1,38.5l-53,30.6L51.4,64.6L104.4,34 M104.4,29.2c-0.8,0-1.6,0.2-2.4,0.6L49,60.4
		c-1.5,0.8-2.4,2.4-2.4,4.1c0,1.7,0.9,3.3,2.4,4.1l66.1,38.5c0.7,0.4,1.6,0.6,2.4,0.6c0.8,0,1.6-0.2,2.4-0.6l53-30.6
		c1.5-0.8,2.4-2.4,2.4-4.1c0-1.7-0.9-3.3-2.4-4.1l-66.1-38.5C106.1,29.4,105.2,29.2,104.4,29.2L104.4,29.2z"/>
</g>
<g>
	<g>
		<path style="fill:#ED1F1F;" d="M148.7,110.5c-2.5,0-4.8-0.5-6.6-1.6c-2.1-1.2-3.3-3.1-3.3-5.2c0-2.3,1.5-4.5,4.2-6.1
			c2.3-1.3,5.3-2.1,8.2-2.1c2.5,0,4.8,0.5,6.6,1.6c2.1,1.2,3.3,3.1,3.3,5.2c0,2.3-1.5,4.5-4.2,6.1
			C154.6,109.8,151.6,110.5,148.7,110.5C148.7,110.5,148.7,110.5,148.7,110.5z"/>
	</g>
	<path style="fill:#040000;" d="M151.2,98c2,0,3.9,0.4,5.4,1.2c3.2,1.8,2.8,5-0.9,7.1c-2,1.2-4.6,1.7-7,1.7c-2,0-3.9-0.4-5.4-1.2
		c-3.2-1.8-2.8-5,0.9-7.1C146.2,98.6,148.8,98,151.2,98 M151.2,93.3c-3.4,0-6.7,0.8-9.4,2.4c-3.4,2-5.4,5-5.4,8.2
		c0,2.9,1.6,5.6,4.5,7.2c2.1,1.2,4.8,1.9,7.7,1.9c3.4,0,6.7-0.8,9.4-2.4c3.4-2,5.4-5,5.4-8.2c0-2.9-1.6-5.6-4.5-7.2
		C156.9,93.9,154.2,93.3,151.2,93.3L151.2,93.3z"/>
</g>
<g>
	<g>
		<path style="fill:#ED1F1F;" d="M50.2,53.1c-2.5,0-4.8-0.5-6.6-1.6c-2.1-1.2-3.3-3.1-3.3-5.2c0-2.3,1.5-4.5,4.2-6.1
			c2.3-1.3,5.3-2.1,8.2-2.1c2.5,0,4.8,0.5,6.6,1.6c2.1,1.2,3.3,3.1,3.3,5.2c0,2.3-1.5,4.5-4.2,6.1C56.1,52.3,53.1,53.1,50.2,53.1
			C50.2,53.1,50.2,53.1,50.2,53.1z"/>
	</g>
	<path style="fill:#040000;" d="M52.7,40.6c2,0,3.9,0.4,5.4,1.2c3.2,1.8,2.8,5-0.9,7.1c-2,1.2-4.6,1.7-7,1.7c-2,0-3.9-0.4-5.4-1.2
		c-3.2-1.8-2.8-5,0.9-7.1C47.7,41.2,50.3,40.6,52.7,40.6 M52.7,35.8c-3.4,0-6.7,0.8-9.4,2.4c-3.4,2-5.4,5-5.4,8.2
		c0,2.9,1.6,5.6,4.5,7.2c2.1,1.2,4.8,1.9,7.7,1.9c3.4,0,6.7-0.8,9.4-2.4c3.4-2,5.4-5,5.4-8.2c0-2.9-1.6-5.6-4.5-7.2
		C58.3,36.5,55.6,35.8,52.7,35.8L52.7,35.8z"/>
</g>
</svg>
