<?xml version="1.0" encoding="utf-8"?>
<!-- Generator: Adobe Illustrator 26.0.3, SVG Export Plug-In . SVG Version: 6.00 Build 0)  -->
<svg version="1.1" id="레이어_1" xmlns="http://www.w3.org/2000/svg" xmlns:xlink="http://www.w3.org/1999/xlink" x="0px"
	 y="0px" viewBox="0 0 141 249" style="enable-background:new 0 0 141 249;" xml:space="preserve">
<style type="text/css">
	.st0{fill:#E6BB63;}
	.st1{fill:#6CF0D2;}
	.st2{fill:#C48847;}
	.st3{fill:#402C17;}
	.st4{fill:#9BFFE9;}
</style>
<g>
	<g>
		<path class="st0" d="M24.5,111.4l43.5,133.7c1,2.9,5.1,2.9,6.1,0l43.7-129.8L24.5,111.4z"/>
		<path d="M71,248.6C71,248.6,71,248.6,71,248.6c-2,0-3.7-1.2-4.3-3.1L22.7,110l96.8,4.1L75.2,245.5C74.6,247.4,72.9,248.6,71,248.6
			z M26.3,112.8l42.9,131.9c0.3,1,1.1,1.3,1.8,1.3c0,0,0,0,0,0c0.7,0,1.5-0.3,1.8-1.3l43.1-128.1L26.3,112.8z"/>
	</g>
	<g>
		<path class="st1" d="M130.1,97.7c-0.6-1.6-0.7-3.3-0.1-5.4c3.1-9.4,5.7-17,5.1-27.2c-1-16.9-7.4-33.9-19.9-45.3
			C96,2.2,55.1-4.3,31.8,8.4c-6,3.3-11.1,8.2-15.5,13.5C6.7,33.8,0.2,48.8,1.5,63.9c1,12.5,5.2,23.9,11.1,34.9
			c-6.4,2.8-10.8,11.4-8.3,17.9c2.6,6.5,10.7,10.1,17.2,7.7c2.5-0.9,4.8-2.6,7.5-3c6.4-1,11.3,5.4,17,8.6c5.1,2.9,11.7,3.1,17,0.5
			c2.2-1.1,4.2-2.5,6.5-3.1c4-0.9,7.9,1.2,11.6,2.8c8.6,3.7,19.9,4.8,26-2.2c5.3-6.1,5.1-5.7,12.9-5c6,0.5,12.1-1,16.9-4.8
			c0.6-0.5,1.2-1,1.6-1.7c0.4-0.8,0.5-1.8,0.5-2.7C138.9,106.6,132.1,102.9,130.1,97.7z"/>
		<path d="M94.4,134.5c-4.8,0-9.7-1.3-13.7-3l-1.1-0.5c-3.2-1.4-6.5-2.9-9.7-2.2c-1.4,0.3-2.8,1.1-4.2,1.9c-0.7,0.4-1.4,0.8-2.1,1.1
			c-5.7,2.8-12.7,2.5-18.2-0.6c-1.8-1-3.6-2.4-5.2-3.7c-3.6-2.8-7-5.4-10.9-4.8c-1.5,0.2-2.8,0.9-4.3,1.6c-0.9,0.5-1.9,0.9-2.9,1.3
			c-7.2,2.6-16.1-1.3-18.9-8.5c-2.6-6.5,1.1-15.3,7.7-18.9c-6.2-11.8-9.7-23-10.6-34.2C-1,49.8,4.4,34.6,15.3,21.1
			c5.1-6.3,10.3-10.8,15.9-13.8c23.3-12.7,64.6-7.1,85,11.5C128,29.7,135.4,46.5,136.5,65c0.6,10.2-2,17.9-4.9,26.9l-0.3,0.8
			c-0.5,1.6-0.5,3,0,4.5c0.7,1.8,2.1,3.5,3.6,5.3c2.5,3,5.3,6.4,5.5,11.2c0,0.9,0,2.2-0.7,3.4c-0.5,0.9-1.2,1.6-2,2.2
			c-4.9,3.8-11.2,5.6-17.8,5l-1.3-0.1c-6-0.6-6-0.5-10.6,4.7C104.6,133,99.6,134.5,94.4,134.5z M71.5,126c3.2,0,6.3,1.4,9.1,2.6
			l1.1,0.5c7.7,3.3,18.7,4.8,24.5-1.9c5.2-6,5.7-6.3,12.8-5.6l1.3,0.1c6,0.5,11.6-1.1,16-4.5c0.5-0.4,1-0.8,1.3-1.3
			c0.3-0.5,0.4-1.1,0.3-2.1c-0.1-4-2.5-6.8-4.9-9.6c-1.7-2-3.2-3.8-4.1-6.1v0c-0.8-2-0.8-4.1-0.1-6.2l0.3-0.8
			c3-9.1,5.4-16.2,4.8-25.9c-1.1-17.9-8.2-34.1-19.5-44.4C95,3.1,54.4-2.5,32.4,9.6c-5.3,2.9-10.2,7.2-15.1,13.2
			C6.8,35.7,1.6,50.3,2.8,63.8c0.9,11.2,4.5,22.5,11,34.4l0.7,1.3l-1.3,0.6c-6,2.6-9.8,10.6-7.6,16.2c2.3,5.8,9.7,9.1,15.6,7
			c0.9-0.3,1.7-0.8,2.7-1.2c1.6-0.8,3.2-1.6,5.1-1.9c5-0.8,9,2.3,12.9,5.3c1.6,1.2,3.3,2.5,4.9,3.5c4.8,2.7,10.9,2.9,15.8,0.5
			c0.7-0.3,1.3-0.7,1.9-1c1.5-0.8,3.1-1.7,4.9-2.1C70,126.1,70.8,126,71.5,126z"/>
	</g>
	<g>
		<path class="st2" d="M46.6,153.7c-0.5,0-1-0.3-1.2-0.8c-0.3-0.7,0.1-1.4,0.7-1.7c0.2-0.1,18.3-7.2,27.4-16.3
			c0.5-0.5,1.3-0.5,1.8,0c0.5,0.5,0.5,1.3,0,1.8c-9.5,9.5-27.5,16.6-28.3,16.9C46.9,153.7,46.7,153.7,46.6,153.7z"/>
	</g>
	<g>
		<path class="st2" d="M51.8,177.4c-0.5,0-1-0.3-1.2-0.8c-0.3-0.7,0-1.4,0.7-1.7c0.4-0.2,36.3-15.9,48.3-36.7
			c0.4-0.6,1.2-0.8,1.8-0.5c0.6,0.4,0.8,1.2,0.5,1.8c-12.5,21.6-48,37.2-49.5,37.8C52.2,177.4,52,177.4,51.8,177.4z"/>
	</g>
	<g>
		<path class="st2" d="M60.5,199.3c-0.5,0-1-0.3-1.2-0.9c-0.2-0.7,0.1-1.4,0.8-1.7c0.2-0.1,17.7-6.4,26.2-14.8
			c0.5-0.5,1.3-0.5,1.8,0c0.5,0.5,0.5,1.3,0,1.8c-9,8.8-26.5,15.1-27.2,15.4C60.8,199.3,60.7,199.3,60.5,199.3z"/>
	</g>
	<g>
		<path class="st2" d="M82.7,180.6c-0.2,0-0.4,0-0.5-0.1c-14.5-6.3-35.8-35.5-36.7-36.8c-0.4-0.6-0.3-1.4,0.3-1.8
			c0.6-0.4,1.4-0.3,1.8,0.3c0.2,0.3,21.8,29.9,35.6,35.9c0.7,0.3,1,1.1,0.7,1.7C83.7,180.4,83.2,180.6,82.7,180.6z"/>
	</g>
	<g>
		<path class="st2" d="M93.6,162.5c-0.2,0-0.4-0.1-0.6-0.2c-9.8-5.6-28.5-24.7-29.3-25.5c-0.5-0.5-0.5-1.3,0-1.8
			c0.5-0.5,1.3-0.5,1.8,0c0.2,0.2,19.2,19.7,28.7,25.1c0.6,0.4,0.8,1.2,0.5,1.8C94.5,162.2,94.1,162.5,93.6,162.5z"/>
	</g>
	<g>
		<path class="st2" d="M79.1,203c-0.1,0-0.3,0-0.4-0.1c-8.6-3-21.2-14.8-21.7-15.3c-0.5-0.5-0.5-1.3-0.1-1.8
			c0.5-0.5,1.3-0.5,1.8-0.1c0.1,0.1,12.7,11.9,20.8,14.8c0.7,0.2,1,1,0.8,1.7C80.2,202.7,79.7,203,79.1,203z"/>
	</g>
	<g>
		<path class="st2" d="M74.4,224.1c-0.3,0-0.5-0.1-0.7-0.2c-5.8-4.1-9.9-9.5-10.1-9.7c-0.4-0.6-0.3-1.4,0.3-1.8
			c0.6-0.4,1.4-0.3,1.8,0.3c0,0.1,4,5.3,9.5,9.1c0.6,0.4,0.7,1.2,0.3,1.8C75.2,223.9,74.8,224.1,74.4,224.1z"/>
	</g>
</g>
<g>
	<path class="st3" d="M25.6,83.1c0.1,0.3,0.2,0.6,0.2,0.7c0.1,0.5,0,1,0.1,1.5c0.2,1,0.5,2,1.2,2.8c0.7,0.9,3.5,3.5,4.9,2.8
		c0.7-0.3,1.3-0.7,2-1c0.3-0.2,0.7-0.4,0.8-0.8c0-0.3-0.2-0.6-0.4-0.8c-1.9-2.4-3.2-5.3-3.8-8.4c-1.6-0.1-4.8,0.8-5,2.7
		C25.5,82.6,25.6,82.8,25.6,83.1z"/>
	<path d="M31.4,92.3c-2.5,0-5.3-3.4-5.3-3.4c-0.8-1-1.2-2.1-1.4-3.4c0-0.3-0.1-0.6-0.1-0.9c0-0.2,0-0.4,0-0.6c0-0.1-0.1-0.2-0.1-0.3
		c0,0-0.1-0.2-0.1-0.2c0,0,0,0,0,0c-0.1-0.3-0.2-0.7-0.1-1c0.3-2.8,4.3-4,6.4-3.8c0.6,0,1.1,0.5,1.2,1.1c0.5,2.8,1.7,5.5,3.5,7.8
		c0.2,0.3,0.7,0.9,0.6,1.7c-0.1,1.1-1.1,1.7-1.5,1.9l-2,1C32.2,92.2,31.8,92.3,31.4,92.3z M26.9,82.9c0.1,0.3,0.2,0.6,0.2,0.7
		c0,0.3,0,0.5,0,0.8c0,0.2,0,0.4,0,0.6c0.1,0.8,0.4,1.5,0.9,2.2c0.7,1,2.7,2.5,3.3,2.4l1.7-0.9c-1.7-2.2-2.9-4.8-3.6-7.5
		c-1.2,0.2-2.5,0.8-2.7,1.4c0,0,0,0,0,0.1l-1.3,0.4L26.9,82.9z"/>
</g>
<g>
	<path class="st3" d="M82,1.8c-0.3,0-0.6,0.1-0.7,0.1c-0.5,0-1-0.1-1.5-0.1c-1,0.1-2,0.3-2.9,0.9c-1,0.6-3.9,3.1-3.3,4.5
		c0.3,0.7,0.6,1.4,0.8,2.1c0.1,0.4,0.4,0.8,0.7,0.8c0.3,0.1,0.6-0.1,0.8-0.3c2.6-1.6,5.6-2.6,8.7-2.9c0.2-1.5-0.4-4.8-2.2-5.3
		C82.4,1.7,82.2,1.8,82,1.8z"/>
	<path d="M75.3,11.5c-0.1,0-0.2,0-0.4,0c-1.1-0.2-1.6-1.3-1.7-1.6l-0.8-2.1c-1.2-2.9,3.8-6.1,3.8-6.2c1.1-0.6,2.2-1,3.5-1.1
		c0.3,0,0.6,0,0.9,0c0.2,0,0.4,0,0.6,0c0.1,0,0.2,0,0.3-0.1c0,0,0.2,0,0.2,0l0,0c0.4-0.1,0.7-0.1,1,0c2.7,0.6,3.5,4.7,3.2,6.7
		c-0.1,0.6-0.6,1-1.2,1.1c-2.9,0.2-5.7,1.2-8.1,2.7C76.4,11.2,75.9,11.5,75.3,11.5z M75.1,9L75.1,9L75.1,9z M80,3.2c0,0-0.1,0-0.1,0
		c-0.8,0-1.6,0.3-2.3,0.7c-1,0.6-2.7,2.4-2.7,3l0.7,1.8c2.4-1.5,5.1-2.4,7.9-2.8c-0.1-1.2-0.6-2.7-1.2-2.8L82,1.8l0,1.3
		c-0.3,0.1-0.6,0.1-0.8,0.1c-0.3,0-0.5,0-0.8,0C80.3,3.2,80.1,3.2,80,3.2z"/>
</g>
<g>
	<path class="st3" d="M77.2,54.3c2.4,1.4,4.4,3.9,4.5,5.8c0.2,2.6-1.9,5.2-4.4,5.3c-0.3,0-0.6,0-0.9-0.1c-0.6-0.2-1-0.8-1.4-1.3
		c-0.9-1.3-1.9-2.6-2.8-4c-1.2-1.6-2.4-3.8-1.2-5.5C72.4,52.6,74.9,53,77.2,54.3z"/>
	<path d="M77.1,66.8c-0.4,0-0.8-0.1-1.1-0.2c-1-0.4-1.6-1.2-2-1.7l-2.8-4c-2-2.9-2.5-5.2-1.2-7c1.7-2.4,4.7-2.7,8-0.7l0,0
		c2.4,1.5,5,4.3,5.1,6.9c0.1,1.7-0.5,3.4-1.7,4.8c-1.1,1.2-2.5,1.9-4,2C77.2,66.8,77.2,66.8,77.1,66.8z M73.8,54.5
		c-0.7,0-1.3,0.2-1.8,0.9c-0.7,1,0.3,2.7,1.2,4l2.8,4c0.2,0.3,0.5,0.7,0.8,0.8c0,0,0.2,0,0.4,0c0.8,0,1.5-0.4,2.2-1.1
		c0.7-0.8,1.1-1.9,1-2.8c-0.1-1.2-1.7-3.4-3.9-4.8l0,0C75.8,55,74.8,54.5,73.8,54.5z"/>
</g>
<g>
	<path class="st3" d="M108.9,93.9c-1.3,3.4-3.7,6.4-6.7,8.6c1,1,2.1,1.9,3.2,2.7c0.3,0.2,0.7,0.4,1,0.4c0.3,0,0.6-0.2,0.9-0.5
		c2.5-2,4.6-4.5,6.2-7.4c0.1-0.2,0.2-0.4,0.2-0.7c-0.1-0.3-0.4-0.5-0.7-0.7c-1.6-0.9-3.1-1.7-4.7-2.6"/>
	<path d="M106.5,106.8c-0.8,0-1.4-0.4-1.7-0.6c-1.3-0.8-2.4-1.8-3.5-2.8c-0.3-0.3-0.4-0.7-0.4-1c0-0.4,0.2-0.7,0.5-1
		c2.5-1.8,4.5-4.2,5.8-7c-0.2-0.4-0.3-0.9,0-1.3c0.3-0.6,1.1-0.9,1.8-0.5l0,0c0.1,0,0.2,0,0.3,0.1c0.2,0.1,0.4,0.2,0.5,0.4l3.8,2.1
		c0.3,0.2,1.2,0.6,1.3,1.6c0.1,0.7-0.2,1.3-0.3,1.5c-1.6,3-3.9,5.6-6.5,7.7c-0.3,0.2-0.8,0.7-1.6,0.7
		C106.6,106.8,106.5,106.8,106.5,106.8z M104.3,102.5c0.6,0.5,1.3,1,2,1.5c0.1,0.1,0.2,0.1,0.2,0.1c0,0,0.1-0.1,0.2-0.1
		c2.3-1.8,4.2-4.1,5.7-6.7l-2.8-1.5C108.3,98.4,106.5,100.7,104.3,102.5z"/>
</g>
<g>
	<path class="st3" d="M36,38.6c-0.8-0.1-1.5,0.2-2.3,1.3c-1.6,2.2-2.8,4.7-3.6,7.3c3.5,0,7.1,0,10.6,0C40.6,45,38.5,39,36,38.6z"/>
	<path d="M40.7,48.4H30.1c-0.4,0-0.8-0.2-1-0.5c-0.2-0.3-0.3-0.7-0.2-1.1c0.8-2.8,2.1-5.4,3.8-7.7c1.3-1.8,2.7-2,3.6-1.8l0,0
		c3.5,0.7,5.7,7.5,5.8,9.8c0,0.4-0.1,0.7-0.4,1C41.4,48.3,41.1,48.4,40.7,48.4z M31.9,45.8h7.3c-0.6-2.4-2.2-5.7-3.4-6
		c-0.4-0.1-0.8,0.5-1,0.8C33.5,42.2,32.6,44,31.9,45.8z"/>
</g>
<g>
	<path class="st3" d="M103,32c-1.2-0.2-2.4,0.3-2.5,2.1c-0.1,1.6,2.6,4.6,3.5,5.8c0.2,0.3,0.4,0.5,0.7,0.6c0.3,0.1,0.6,0,0.9-0.1
		c0.8-0.2,1.6-0.4,2.3-0.7c0.3-0.1,0.6-0.2,0.8-0.4c0.3-0.4,0.2-1,0-1.4c-0.8-2-2.1-3.7-3.8-5C104.5,32.4,103.7,32.1,103,32z"/>
	<path d="M105,41.8c-0.2,0-0.4,0-0.7-0.1c-0.7-0.2-1.2-0.8-1.4-1.1l-0.5-0.6c-1.8-2.2-3.4-4.3-3.3-6c0.1-1.4,0.7-2.2,1.2-2.7
		c0.7-0.6,1.7-0.8,2.8-0.6c0,0,0,0,0,0c0.9,0.1,1.9,0.6,2.7,1.2c1.9,1.4,3.3,3.4,4.2,5.5c0.4,1.1,0.4,2-0.2,2.7
		c-0.5,0.6-1.1,0.7-1.4,0.8l-2.3,0.7C105.8,41.7,105.4,41.8,105,41.8z M102.5,33.2c-0.2,0-0.4,0-0.4,0.1c-0.1,0.1-0.2,0.4-0.2,0.8
		c0,0.8,2,3.4,2.7,4.2L105,39c0,0,0.1,0.1,0.1,0.1c0.1,0,0.1,0,0.2,0l2.3-0.7c0,0,0-0.1,0-0.1c-0.7-1.7-1.8-3.3-3.3-4.4
		c-0.4-0.3-1-0.6-1.5-0.6C102.7,33.2,102.6,33.2,102.5,33.2z"/>
</g>
<g>
	<path class="st3" d="M3.8,65.5c-1.2-0.2-2.4,0.3-2.5,2.1c-0.1,1.6,2.6,4.6,3.5,5.8C5,73.6,5.3,73.9,5.6,74c0.3,0.1,0.6,0,0.9-0.1
		c0.8-0.2,1.6-0.4,2.3-0.7c0.3-0.1,0.6-0.2,0.8-0.4c0.3-0.4,0.2-1,0-1.4c-0.8-2-2.1-3.7-3.8-5C5.3,66,4.5,65.7,3.8,65.5z"/>
	<path d="M5.8,75.4c-0.2,0-0.4,0-0.7-0.1C4.5,75,4,74.5,3.8,74.2l-0.5-0.6c-1.8-2.2-3.4-4.3-3.3-6c0.1-1.4,0.7-2.2,1.2-2.7
		c0.7-0.6,1.7-0.8,2.8-0.6h0c0.9,0.1,1.9,0.6,2.7,1.2c1.9,1.4,3.3,3.4,4.2,5.5c0.5,1.4,0.2,2.3-0.2,2.7c-0.5,0.6-1.1,0.7-1.4,0.8
		l-2.3,0.7C6.6,75.3,6.2,75.4,5.8,75.4z M3.3,66.8c-0.2,0-0.4,0-0.4,0.1c-0.1,0.1-0.2,0.4-0.2,0.8c0,0.8,2,3.4,2.7,4.2l0.6,0.7
		c0,0,0.1,0.1,0.1,0.1c0.1,0,0.1,0,0.2,0L8.4,72c0,0,0-0.1,0-0.1c-0.7-1.7-1.8-3.3-3.3-4.4c-0.4-0.3-1-0.6-1.5-0.6
		C3.5,66.8,3.4,66.8,3.3,66.8z"/>
</g>
<g>
	<path class="st3" d="M71.3,105c1.2-0.2,2.4,0.3,2.5,2.1c0.1,1.6-2.6,4.6-3.5,5.8c-0.2,0.3-0.4,0.5-0.7,0.6c-0.3,0.1-0.6,0-0.9-0.1
		c-0.8-0.2-1.6-0.4-2.3-0.7c-0.3-0.1-0.6-0.2-0.8-0.4c-0.3-0.4-0.2-1,0-1.4c0.8-2,2.1-3.7,3.8-5C69.8,105.5,70.6,105.1,71.3,105z"/>
	<path d="M69.3,114.8c-0.4,0-0.8-0.1-1-0.2l-2.3-0.7c-0.4-0.1-1-0.3-1.4-0.8c-0.4-0.5-0.8-1.3-0.2-2.7c0.9-2.2,2.3-4.1,4.2-5.5
		c0.8-0.6,1.7-1,2.7-1.2l0,0c1.1-0.2,2.1,0,2.8,0.6c0.5,0.4,1.1,1.2,1.2,2.7c0.1,1.7-1.5,3.8-3.3,6l-0.5,0.6
		c-0.2,0.3-0.7,0.9-1.4,1.1C69.7,114.8,69.5,114.8,69.3,114.8z M66.7,111.5l2.3,0.7c0,0,0.1,0,0.2,0c0,0,0.1-0.1,0.1-0.1l0.6-0.7
		c0.7-0.8,2.7-3.4,2.7-4.2c0-0.4-0.1-0.7-0.2-0.8c-0.1-0.1-0.4-0.1-0.7-0.1l0,0c-0.5,0.1-1.1,0.3-1.5,0.6c-1.5,1.2-2.7,2.7-3.3,4.4
		C66.7,111.4,66.7,111.4,66.7,111.5z M66.6,111.7L66.6,111.7L66.6,111.7z M71.3,105L71.3,105L71.3,105z"/>
</g>
<g>
	<path class="st3" d="M139.5,64.1c-0.3-1.2-1.2-2.1-2.9-1.4c-1.5,0.6-3.1,4.2-3.8,5.6c-0.2,0.3-0.3,0.6-0.3,0.9
		c0,0.3,0.3,0.6,0.5,0.8c0.5,0.6,1.1,1.2,1.6,1.9c0.2,0.2,0.4,0.5,0.7,0.6c0.5,0.1,0.9-0.2,1.3-0.6c1.5-1.5,2.5-3.4,3-5.5
		C139.7,65.7,139.7,64.8,139.5,64.1z"/>
	<path d="M135.5,73.8c-0.2,0-0.4,0-0.5-0.1c-0.7-0.2-1.1-0.7-1.4-1l-1.6-1.9c-0.2-0.3-0.7-0.8-0.8-1.5c-0.1-0.8,0.2-1.4,0.4-1.7
		l0.4-0.7c1.2-2.5,2.5-4.8,4.1-5.5c1.3-0.5,2.3-0.3,2.9,0c0.8,0.4,1.4,1.2,1.8,2.3c0,0,0,0,0,0c0.3,0.9,0.3,2,0.1,2.9
		c-0.5,2.3-1.7,4.4-3.3,6.1C136.8,73.6,136.1,73.8,135.5,73.8z M133.9,69.1c0,0,0.1,0.1,0.1,0.1l1.6,1.8c0,0,0.1-0.1,0.1-0.1
		c1.3-1.3,2.2-3,2.6-4.9c0.1-0.5,0.1-1.1,0-1.6c-0.1-0.3-0.2-0.6-0.4-0.6c-0.2-0.1-0.4,0-0.8,0.1c-0.8,0.3-2.2,3.2-2.7,4.2l-0.4,0.8
		C134,69,133.9,69,133.9,69.1z"/>
</g>
<g>
	<path d="M39.4,110.5c-2.7,0-5.5-0.9-7.6-2.6c-0.2-0.2-0.5-0.4-0.7-0.6c-0.6-0.5-1.1-1-1.7-1.2c-0.6-0.2-1.3-0.2-2.1-0.2
		c-0.5,0-1.1,0-1.6,0c-3-0.3-5.7-2.4-6.7-5.3c-0.2-0.7,0.1-1.4,0.8-1.7c0.7-0.2,1.4,0.1,1.7,0.8c0.7,1.9,2.5,3.3,4.5,3.5
		c0.4,0,0.9,0,1.3,0c1,0,2,0,3.1,0.4c1,0.4,1.8,1.1,2.5,1.7c0.2,0.2,0.4,0.4,0.6,0.5c2.6,2.1,6.3,2.6,9.4,1.4c0.7-0.3,1.4,0,1.7,0.7
		c0.3,0.7,0,1.4-0.7,1.7C42.4,110.2,40.9,110.5,39.4,110.5z"/>
</g>
<g>
	<path class="st4" d="M44.8,14.8c-4.3-0.9-10.5,3.1-13.3,5.9C30.7,21.5,24.8,31,25.2,33l-0.3,0.2c-1.8-0.2-3.3,1.3-4.2,2.9
		c-0.7,1.1-1.3,2.4-1.2,3.8c0.1,1.3,1.1,2.7,2.5,2.7c1.2,0,2.2-1,2.8-2.2c0.6-1.1,1-2.4,1.8-3.3c1.5-1.6,4.2-1.9,5.3-3.8
		c0.6-1,0.5-2.1,0.7-3.1c0.3-0.5,0.7-1.1,1-1.6l-0.5,0.2c0.4-0.6,1-1.2,1.4-1.8c1.4-2,2.5-4,4.7-5.3c1.7-1,3.8-1.3,5.7-2.1
		c0.9-0.4,1.7-0.9,2-1.8C47.4,16.6,46.1,15.1,44.8,14.8z"/>
</g>
</svg>
