<?xml version="1.0" encoding="utf-8"?>
<!-- Generator: Adobe Illustrator 24.1.1, SVG Export Plug-In . SVG Version: 6.00 Build 0)  -->
<svg version="1.1" id="Layer_1" xmlns="http://www.w3.org/2000/svg" xmlns:xlink="http://www.w3.org/1999/xlink" x="0px" y="0px"
	 viewBox="0 0 960 540" style="enable-background:new 0 0 960 540;" xml:space="preserve">
<g>
	<g>
		<rect x="0.99" style="fill:#EDDEC7;" width="959.01" height="540"/>
	</g>
	<g>
		<polygon style="fill:#E3C3A4;" points="415.93,540 0,540 0,238.08 0.99,238.8 99.37,310.21 101.21,311.55 144.13,342.7 		"/>
	</g>
	<g>
		<rect style="fill:#C5F8F6;" width="960" height="180"/>
	</g>
	<g>
		<g>
			<rect y="180.83" style="fill:#E3CBA9;" width="960" height="60"/>
		</g>
	</g>
</g>
<g>
	<path style="fill:#FFFFF6;" d="M211.63,17.58c0,0-27.81-7.18-35.06,9.1c-7.25,16.28-42.31,20.08-27.81,29.07
		c14.51,8.98,93.16,13.05,94.94-1.08s-22.81-7.97-24.42-18.3C217.67,26.04,221.29,19.02,211.63,17.58z"/>
</g>
<g>
	<path style="fill:#96B56C;" d="M271.05,540H0V201.06c0,0,0.36-0.23,0.99-0.55c4.28-2.17,21.27-8.51,26.89,24.12
		c0,0,45.14-1.3,49.97,36.22c0,0,1.61-22.58,19.35,0c13.64,17.37,6.29,31.69,2.17,37.36c-1.12,1.55-2,2.46-2.15,2.62
		c0.18-0.07,1.66-0.66,3.99-1.28c9-2.36,30.68-5.09,39.51,20.06c1.36,3.87,2.48,7.57,3.41,11.09c6.78,25.75,3.04,41.91,3.04,41.91
		s24.18-6.33,29.01,6.66c4.84,13,3.23,49.81-8.06,53.81c0,0,59.65-1.3,53.2,28.03c-6.12,27.83-19.49,27.75-20.85,27.67
		c2.16,0.2,35.41,3.62,36.97,21.55c1.03,11.88,1.4,16.15,1.54,17.67c0.07,0.86,0.07,0.86,0.07,0.86s0.44-0.34,1.21-0.86
		c4.25-2.89,18.65-11.42,25.7,0c0.17,0.28,0.34,0.56,0.5,0.86C268.6,532.83,270.06,536.6,271.05,540z"/>
</g>
<g>
	<path style="fill:#FFFFF6;" d="M0.04,113.77V57.53c0,0,57.71,16.29,66.17,33.21c8.46,16.92,32.64-5.85,42.32,12.78
		C118.18,122.18,0.04,113.77,0.04,113.77z"/>
</g>
<g>
	<g>
		<g>
			<path style="fill:#7CC9B8;" d="M392.85,6.1v0.01c-0.29,1.23-0.46,2.54-0.46,3.92c0,0-27.45,0.44-29.2,22.58
				c-0.99,12.39,9.77,23.04,19.4,30.01l-102.2,7.49c-6.92-9.4-9.53-19.84,9.82-22.37c0,0-7.7-20.93,14.69-17.72
				c0,0-5.57-28.13,14.86-28.13c20.42,0,30.1,13.61,30.1,13.61s9.34-16.8,25.62-15.21C381.66,0.9,387.72,3.32,392.85,6.1z"/>
		</g>
		<g>
			<path style="fill:#92D9AB;" d="M542.05,0l-0.55,19.43l-0.2,6.95l-0.39,13.81l-0.31,10.89l-99.88,7.29h-0.01l-58.1,4.25h-0.02
				c-9.63-6.97-20.39-17.62-19.4-30.01c1.75-22.14,29.2-22.58,29.2-22.58c0-1.38,0.17-2.69,0.46-3.92V6.1
				c0.47-2.23,1.34-4.26,2.46-6.1H542.05z"/>
		</g>
	</g>
	<g>
		<polygon style="fill:#FFF5DD;" points="540.4,58.03 540.02,71.3 537.34,165.43 536.91,180.54 535.5,230.19 535.3,237.21 
			534.66,259.85 260.35,205.74 260.35,78.5 355.6,71.54 392.32,68.86 392.36,68.86 445.92,64.94 445.93,64.94 		"/>
		<path style="fill:#CBBCA8;" d="M260.35,78.5v127.24l274.31,54.11l-0.2,7.02l-278.23-54.9c-1.64-0.33-2.8-1.74-2.8-3.4V75.28
			c0-1.81,1.4-3.31,3.2-3.44l23.76-1.73l102.2-7.49h0.02l58.1-4.25h0.01l99.88-7.29l-0.2,6.95l-94.47,6.91h-0.01l-53.56,3.92h-0.04
			l-36.72,2.68l-69.67,5.08h-0.02L260.35,78.5z"/>
		<g>
			<g>
				<path style="fill:#E2D3BD;" d="M279.59,99c0,0-7.93,28.78,0,28.55c7.93-0.23,41.78,3.08,41.78,3.08l6.45-25.84L279.59,99z"/>
			</g>
			<g>
				<path style="fill:#E2D3BD;" d="M340.71,90.89h56.33c0,0,5.55,14.61,0,21.89c-5.55,7.28-45.85,3.18-45.85,3.18
					s-14.51-3.88-13.7-11.18S340.71,90.89,340.71,90.89z"/>
			</g>
			<g>
				<path style="fill:#E2D3BD;" d="M409.82,186.99h56.33c0,0,5.55,14.61,0,21.89c-5.55,7.28-45.85,3.18-45.85,3.18
					s-14.51-3.88-13.7-11.18C407.4,193.59,409.82,186.99,409.82,186.99z"/>
			</g>
			<g>
				<path style="fill:#E2D3BD;" d="M408.42,134.36c0,0-41.99-4.34-39.94,2.37c2.05,6.71-7.96,25.66,9.54,26.66
					c17.5,1,49.34,3.03,50.35,0C429.37,160.36,434.2,135.73,408.42,134.36z"/>
			</g>
			<g>
				<path style="fill:#E2D3BD;" d="M347.46,171.96c0,0-41.99-4.34-39.94,2.37c2.05,6.71-7.96,25.66,9.54,26.66
					c17.5,1,49.34,3.03,50.35,0C368.41,197.97,373.24,173.33,347.46,171.96z"/>
			</g>
			<g>
				<path style="fill:#E2D3BD;" d="M437.65,85.89h56.33c0,0,5.55,14.61,0,21.89c-5.55,7.28-45.85,3.18-45.85,3.18
					s-14.51-3.88-13.7-11.18S437.65,85.89,437.65,85.89z"/>
			</g>
		</g>
	</g>
</g>
<g>
	<g>
		<polygon style="fill:#DEA35F;" points="960,0 960,512.8 537.69,335.49 540.45,238.22 540.65,231.2 542.1,180.54 542.53,165.43 
			545.2,71.3 546.08,40.19 546.48,25.99 546.68,19.04 547.22,0 		"/>
	</g>
	<g>
		<polygon style="fill:#080000;" points="960,512.8 960,518.45 532.41,338.9 534.46,266.87 534.66,259.85 535.3,237.21 
			535.5,230.19 536.91,180.54 537.34,165.43 540.02,71.3 540.4,58.03 540.6,51.08 540.91,40.19 541.3,26.38 541.5,19.43 542.05,0 
			547.22,0 546.68,19.04 546.48,25.99 546.08,40.19 545.78,50.7 545.59,57.65 545.2,71.3 542.53,165.43 542.1,180.54 540.65,231.2 
			540.45,238.22 539.81,260.86 539.61,267.88 537.69,335.49 		"/>
	</g>
</g>
<g>
	<g>
		<g>
			<polygon style="fill:#745B40;" points="960,438.06 960,465.79 718.95,372.04 718.95,0 752.75,0 752.75,357.45 			"/>
		</g>
		<g>
			<polygon style="fill:#C5FFEF;" points="960,0 960,438.06 752.75,357.45 752.75,0 			"/>
		</g>
	</g>
	<g>
		<path style="fill:#EFFAF6;" d="M852.49,151.7l19.4,4.93v29.08l-19.4-4.93c-24.92-54.11-61.96-55.14-79.8-51.9V99.8
			C790.53,96.56,827.57,97.59,852.49,151.7z"/>
		<path style="fill:#EFFAF6;" d="M960,140.28v29.08c-3.02-4.25-12.91-15.96-32.55-20.14c-14.27-3.03-26.87,11.31-34.8,23.58v-29.08
			c7.93-12.27,20.52-26.61,34.8-23.58C947.09,124.33,956.98,136.03,960,140.28z"/>
	</g>
	<g>
		<path style="fill:#92D9AB;" d="M852.49,180.77l19.4,4.93v197l-99.16-39.21l-0.04-214.62
			C790.53,125.64,827.57,126.67,852.49,180.77z"/>
		<path style="fill:#92D9AB;" d="M960,169.35v248.18l-61.63-24.37l-5.72-2.26V172.79c7.93-12.27,20.52-26.61,34.8-23.58
			C947.09,153.39,956.98,165.1,960,169.35z"/>
	</g>
	<g>
		<polygon style="fill:#ADCCCD;" points="871.89,0 871.89,50.86 841.32,39.7 828.06,34.84 811.82,28.92 783.02,18.4 772.67,14.61 
			772.66,0 		"/>
		<polygon style="fill:#ADCCCD;" points="960,0 960,83.04 892.65,58.44 892.65,0 		"/>
	</g>
	<g>
		<polygon style="fill:#67BD99;" points="811.82,28.92 783.02,18.4 780.08,0 806.32,0 		"/>
		<polygon style="fill:#67BD99;" points="871.89,344.89 871.89,382.7 839.3,369.81 786.79,41.87 816.35,52.68 		"/>
	</g>
	<g>
		<polygon style="fill:#67BD99;" points="841.32,39.7 828.06,34.84 821.89,0 834.92,0 		"/>
		<polygon style="fill:#67BD99;" points="871.89,229.07 871.89,282.36 832.24,58.49 845.13,63.18 		"/>
		<polygon style="fill:#67BD99;" points="898.37,393.17 892.65,390.9 892.65,357.73 		"/>
	</g>
	<path style="fill:#080000;" d="M892.65,80.54l64.81,23.67c0.85,0.29,1.69,0.5,2.54,0.57V83.04l-67.35-24.6V0h-20.76v50.86
		L841.32,39.7l-13.26-4.86l-16.24-5.92l-28.8-10.52l-10.35-3.79L772.66,0h-20.74l0.06,357.62L960,439.84v-22.31l-61.63-24.36
		l-5.72-2.27V80.54z M786.79,41.87l29.56,10.81l15.89,5.81l12.89,4.69l26.76,9.78V382.7l-32.59-12.89l-66.57-26.32l-0.04-214.62
		V99.8l-0.02-63.08L786.79,41.87z"/>
</g>
</svg>
