<?xml version="1.0" encoding="utf-8"?>
<!-- Generator: Adobe Illustrator 26.0.3, SVG Export Plug-In . SVG Version: 6.00 Build 0)  -->
<svg version="1.1" id="레이어_1" xmlns="http://www.w3.org/2000/svg" xmlns:xlink="http://www.w3.org/1999/xlink" x="0px"
	 y="0px" viewBox="0 0 390 390" style="enable-background:new 0 0 390 390;" xml:space="preserve">
<style type="text/css">
	.st0{fill:#FF7C00;}
	.st1{fill:#504C3C;}
	.st2{fill:#A90718;}
	.st3{fill-rule:evenodd;clip-rule:evenodd;fill:#F9FF2E;}
	.st4{fill-rule:evenodd;clip-rule:evenodd;}
	.st5{fill:#0053DD;}
	.st6{fill:#FFFFFF;}
</style>
<g>
	<g>
		<rect x="159" y="274.5" class="st0" width="20.5" height="87.8"/>
		<path d="M181.4,364.1h-24.1v-91.4h24.1V364.1z M160.9,360.5h16.9v-84.2h-16.9V360.5z"/>
	</g>
	<g>
		<path class="st0" d="M188.1,357.1c0-14.4-12.1-25.9-26.7-25c-13.3,0.9-23.3,12.5-23.3,25.8v0c0,7.1,5.8,12.9,12.9,12.9h24.2
			c7.1,0,12.9-5.8,12.9-12.9V357.1z"/>
		<path d="M175.2,372.7H151c-8.1,0-14.7-6.6-14.7-14.7c0-14.6,11-26.7,25-27.6c7.5-0.5,14.7,2.1,20.1,7.2c5.4,5.1,8.5,12.2,8.5,19.6
			v0.9C189.9,366.1,183.3,372.7,175.2,372.7z M163.1,333.9c-0.5,0-1,0-1.6,0.1c-12.1,0.8-21.7,11.3-21.7,24c0,6.1,5,11.1,11.1,11.1
			h24.2c6.1,0,11.1-5,11.1-11.1v-0.9c0-6.5-2.6-12.5-7.3-16.9C174.6,336.1,169,333.9,163.1,333.9z"/>
	</g>
</g>
<g>
	<g>
		<rect x="206.2" y="272.8" class="st0" width="20.5" height="88"/>
		<path d="M228.6,362.7h-24.1V271h24.1V362.7z M208,359.1h16.9v-84.4H208V359.1z"/>
	</g>
	<g>
		<path class="st0" d="M247.4,357.1c0-14.4-12.1-25.9-26.7-25c-13.3,0.9-23.3,12.5-23.3,25.8v0c0,7.1,5.8,12.9,12.9,12.9h24.2
			c7.1,0,12.9-5.8,12.9-12.9V357.1z"/>
		<path d="M234.5,372.7h-24.2c-8.1,0-14.7-6.6-14.7-14.7c0-14.6,11-26.7,25-27.6c7.5-0.5,14.7,2.1,20.1,7.2
			c5.4,5.1,8.5,12.2,8.5,19.6v0.9C249.2,366.1,242.6,372.7,234.5,372.7z M222.4,333.9c-0.5,0-1,0-1.6,0.1
			c-12.1,0.8-21.7,11.3-21.7,24c0,6.1,5,11.1,11.1,11.1h24.2c6.1,0,11.1-5,11.1-11.1v-0.9c0-6.5-2.6-12.5-7.3-16.9
			C233.9,336.1,228.3,333.9,222.4,333.9z"/>
	</g>
</g>
<g>
	<path class="st1" d="M138,191.2c-4.1-3.9-10.3-4.6-16-4.7c-14.5-0.3-29,1.7-42.9,5.9c-6.2,1.9-13.1,4.9-15.2,11.1
		c-1.7,5.2,0.5,10.9,3.6,15.4c9.5,14.1,27.1,22.2,43.9,20.3"/>
	<path d="M106.5,241.3c-15.8,0-31.6-8.2-40.5-21.4c-2.9-4.3-5.9-10.7-3.8-17c2.5-7.3,10.5-10.5,16.4-12.3c14.1-4.3,28.7-6.3,43.5-6
		c5.9,0.1,12.6,0.8,17.2,5.2c0.7,0.7,0.8,1.8,0.1,2.6c-0.7,0.7-1.8,0.8-2.6,0.1c-3.7-3.5-9.6-4.1-14.8-4.2
		c-14.3-0.3-28.6,1.7-42.4,5.8c-8.1,2.4-12.5,5.6-14,10c-1.6,4.8,0.9,10.2,3.4,13.8c9.1,13.5,26,21.3,42.2,19.5c1-0.1,1.9,0.6,2,1.6
		c0.1,1-0.6,1.9-1.6,2C110,241.2,108.3,241.3,106.5,241.3z"/>
</g>
<g>
	<path class="st1" d="M252,191.2c4.1-3.9,10.3-4.6,16-4.7c14.5-0.3,29,1.7,42.9,5.9c6.2,1.9,13.1,4.9,15.2,11.1
		c1.7,5.2-0.5,10.9-3.6,15.4c-9.5,14.1-27.1,22.2-43.9,20.3"/>
	<path d="M283.5,241.3c-1.7,0-3.5-0.1-5.2-0.3c-1-0.1-1.7-1-1.6-2c0.1-1,1.1-1.7,2-1.6c16.2,1.9,33.2-6,42.2-19.5
		c2.4-3.6,5-9,3.4-13.8c-1.5-4.4-5.9-7.5-14-10c-13.7-4.2-28-6.2-42.4-5.8c-5.2,0.1-11.1,0.7-14.8,4.2c-0.7,0.7-1.9,0.6-2.6-0.1
		c-0.7-0.7-0.6-1.9,0.1-2.6c4.6-4.3,11.3-5.1,17.2-5.2c14.8-0.3,29.4,1.7,43.5,6c5.8,1.8,13.9,5,16.4,12.3c2.1,6.2-0.9,12.7-3.8,17
		C315.1,233.1,299.3,241.3,283.5,241.3z"/>
</g>
<g>
	<g>
		<path class="st1" d="M195.9,305.4c-12,0-22.3-1.1-31.4-3.4c-14.5-3.6-26.7-10.5-35.3-19.8c-14.6-15.9-20.2-41.2-14.9-67.8
			c0.4-2.3,1-4.5,1.5-6.8c1.5-6.5,3-13.1,2.8-19.7c-0.2-7.5-2.5-14.6-4.9-22.1c-1-3.2-2.1-6.5-3-9.7c-6.2-23-3.2-47.5,8.1-67.2
			c14.2-24.7,42.7-40.1,74.4-40.1c25.1,0,48.6,9.6,64.4,26.5c18,19.2,25.4,48.5,19.3,76.7c-0.7,3.4-1.7,6.9-2.6,10.2
			c-1.6,6-3.3,12.2-3.9,18.4c-0.4,4.9-0.2,10.2,0.8,16.6c0.7,4.6,1.7,9.3,2.6,13.8c0.8,3.9,1.7,7.9,2.3,11.9
			c4.5,27-1.3,50.6-15.9,64.5c-15.3,14.6-37.7,17.2-55.5,17.8C201.8,305.4,198.9,305.4,195.9,305.4L195.9,305.4z"/>
	</g>
	<g>
		<path d="M193.2,50.6c23.4,0,46.8,8.6,63.1,25.9c18.4,19.6,24.5,48.8,18.8,75c-2.1,9.7-5.7,19-6.5,28.9c-0.5,5.7-0.1,11.3,0.8,17
			c1.3,8.6,3.6,17.2,5,25.8c3.7,22.2,0.9,47.4-15.4,62.9c-14.1,13.4-34.9,16.6-54.3,17.3c-2.9,0.1-5.9,0.2-8.8,0.2
			c-10.4,0-20.8-0.8-30.9-3.3c-12.9-3.2-25.4-9.5-34.4-19.3c-15.9-17.3-19-43.2-14.5-66.3c1.8-8.9,4.6-17.8,4.3-26.9
			c-0.3-11.1-5.1-21.5-8-32.2c-5.9-21.9-3.4-46.2,8-65.9C135.3,63.8,164.2,50.6,193.2,50.6 M193.2,47c-32.3,0-61.4,15.7-76,41
			c-11.6,20.1-14.6,45.1-8.3,68.6c0.9,3.3,2,6.6,3,9.8c2.4,7.4,4.7,14.3,4.9,21.6c0.2,6.4-1.2,12.6-2.7,19.3c-0.5,2.3-1,4.6-1.5,6.8
			c-5.4,27.2,0.4,53.1,15.4,69.4c8.8,9.6,21.3,16.6,36.2,20.3c9.2,2.3,19.6,3.4,31.8,3.4c2.8,0,5.8-0.1,9-0.2
			c18.1-0.7,41-3.3,56.7-18.3c15.1-14.4,21.1-38.5,16.5-66.1c-0.7-4-1.5-8.1-2.4-12c-1-4.5-1.9-9.2-2.6-13.7
			c-0.9-6.2-1.2-11.3-0.8-16.1c0.5-6.1,2.1-11.9,3.8-18.1c0.9-3.4,1.9-6.8,2.6-10.3c6.2-28.7-1.3-58.7-19.7-78.3
			C242.9,56.9,218.9,47,193.2,47L193.2,47z"/>
	</g>
</g>
<g>
	<path class="st1" d="M175.2,52.4c0,0,6.5-16.1,17.5-12.5c14.6,4.7,17.6-5.4,17.6-5.4s4.8,17.9-11.2,24.6"/>
	<path d="M199.1,60.9c-0.7,0-1.4-0.4-1.7-1.1c-0.4-0.9,0.1-2,1-2.4c9.7-4.1,11-12.6,10.8-18c-0.7,0.7-1.6,1.4-2.7,1.9
		c-3.8,2-8.6,2.1-14.3,0.2c-9.3-3-15.2,11.3-15.3,11.5c-0.4,0.9-1.4,1.4-2.4,1c-0.9-0.4-1.4-1.4-1-2.4c0.3-0.7,7.3-17.6,19.7-13.6
		c4.7,1.5,8.6,1.5,11.5,0.1c3-1.5,3.8-4.2,3.8-4.3c0.2-0.8,1-1.3,1.8-1.3c0.8,0,1.5,0.6,1.7,1.3c0.1,0.2,5,19.5-12.2,26.7
		C199.6,60.8,199.4,60.9,199.1,60.9z"/>
</g>
<g>
	<g>
		<path class="st0" d="M201.8,144.3c1.9,0,3.1,2.1,2.1,3.7c-1.7,2.7-4.8,5.9-10.2,5.9c-5.3,0-8.8-3.1-10.8-5.8c-1.2-1.6,0-3.9,2-3.9
			H201.8z"/>
		<path d="M193.7,155.8c-6.1,0-10-3.5-12.2-6.5c-1-1.3-1.1-3-0.4-4.4c0.7-1.5,2.2-2.4,3.8-2.4h17c1.6,0,3,0.8,3.7,2.2s0.7,3-0.1,4.3
			C203.5,152.1,199.9,155.8,193.7,155.8z M184.8,146.2c-0.3,0-0.5,0.2-0.6,0.4c-0.1,0.2-0.1,0.4,0.1,0.6c1.7,2.3,4.8,5,9.3,5
			c3.7,0,6.6-1.7,8.7-5.1c0.2-0.3,0.1-0.5,0-0.6c-0.1-0.1-0.2-0.3-0.5-0.3H184.8z"/>
	</g>
	<g>
		<polygon class="st2" points="181.1,128.8 184.8,144.3 201.8,144.3 205.5,128.8 195,121.8 		"/>
		<path d="M203.2,146.2h-19.8l-4.4-18.4l16.1-8l12.4,8.2L203.2,146.2z M186.3,142.5h14.1l3.1-13l-8.6-5.7l-11.6,5.8L186.3,142.5z"/>
	</g>
	<g>
		<path class="st0" d="M181.1,128.8c-2.7,0-4.4-3-3-5.3c2.4-3.9,6.9-8.5,14.6-8.5c7.6,0,12.6,4.4,15.5,8.3c1.7,2.3,0.1,5.6-2.8,5.6
			c0,0-5.7-3-12.2-2.8C186.9,126.2,181.1,128.8,181.1,128.8z"/>
		<path d="M205.5,130.6H205l-0.4-0.2c-0.1,0-5.4-2.8-11.3-2.6c-6,0.2-11.4,2.6-11.5,2.7l-0.4,0.2l-0.4,0c-2,0-3.7-1-4.6-2.7
			c-0.9-1.7-0.9-3.7,0.1-5.4c2.6-4.3,7.6-9.4,16.2-9.4c8.4,0,13.8,4.9,16.9,9c1.2,1.6,1.4,3.7,0.5,5.5
			C209.3,129.4,207.5,130.6,205.5,130.6z M192.8,116.7c-6.9,0-11,4.2-13.1,7.7c-0.5,0.8-0.2,1.4,0,1.7c0.1,0.2,0.5,0.7,1.2,0.8
			c1.5-0.6,6.7-2.6,12.4-2.8c5.8-0.2,11,2,12.6,2.8c0.7-0.1,1.1-0.7,1.2-0.9c0.1-0.3,0.4-1-0.2-1.7
			C204.2,120.8,199.7,116.7,192.8,116.7z"/>
	</g>
</g>
<g>
	<path class="st3" d="M291.3,110.9c8.2-7.2,22-8.5,22-8.5c-22-9.1,0-29.6,0-29.6c-32.6,12.1-26-15.7-26-15.7s-6.6,10.3-13.9,13.3"/>
	<path d="M291.3,112.7c-0.5,0-1-0.2-1.4-0.6c-0.7-0.7-0.6-1.9,0.2-2.6c5.3-4.7,12.7-7,17.7-8c-3.3-2.3-5.2-5.1-5.8-8.5
		c-1.1-6,2.5-12.3,5.7-16.5c-8.2,2.1-14.3,1.4-18.2-2.1c-3.4-3-4.4-7.5-4.5-11.2c-2.7,3.2-6.6,7.1-10.8,8.8c-0.9,0.4-2-0.1-2.4-1
		c-0.4-0.9,0.1-2,1-2.4c6.7-2.8,13-12.5,13.1-12.6c0.5-0.7,1.4-1,2.2-0.7c0.8,0.3,1.3,1.2,1.1,2.1c0,0.1-2.2,9.8,2.8,14.2
		c3.7,3.3,10.9,3.1,20.8-0.6c0.8-0.3,1.7,0,2.2,0.7c0.5,0.7,0.3,1.7-0.3,2.3c-0.1,0.1-10.6,10-9.1,18.2c0.6,3.5,3.5,6.3,8.5,8.4
		c0.8,0.3,1.2,1.1,1.1,1.9c-0.1,0.8-0.8,1.5-1.6,1.5c-0.1,0-13.4,1.3-21,8C292.1,112.5,291.7,112.7,291.3,112.7z"/>
</g>
<g>
	<g>
		<g>
			<g>
				<g>
					<path class="st4" d="M212.5,116.6L212.5,116.6c-4,0-7.2-3-7.2-6.7V109c0-3.7,3.2-6.7,7.2-6.7s7.2,3,7.2,6.7v0.9
						C219.7,113.6,216.4,116.6,212.5,116.6"/>
				</g>
			</g>
			<g>
				<g>
					<path class="st4" d="M173,116.6L173,116.6c-4,0-7.2-3-7.2-6.7V109c0-3.7,3.2-6.7,7.2-6.7s7.2,3,7.2,6.7v0.9
						C180.2,113.6,177,116.6,173,116.6"/>
				</g>
			</g>
		</g>
	</g>
</g>
<g>
	<g>
		<rect x="76.7" y="176.6" class="st5" width="236.7" height="69.1"/>
	</g>
	<g>
		<path class="st6" d="M103,207c0-5.6,3.1-8.7,8-8.7c3.8,0,6.5,1.9,7.6,5.3l1.9-0.1v-3.1c0-1,0.4-1.5,1.3-1.5h3.4
			c0.9,0,1.3,0.5,1.3,1.5v15.4c0,1-0.4,1.6-1.3,1.6h-3.4c-0.9,0-1.3-0.5-1.3-1.6v-6l-1.8,0.1c-1,3.8-3.7,5.8-7.7,5.8
			C106.2,215.7,103,212.5,103,207z M113.3,207c0-1.6-1-2.4-2.2-2.4c-1.2,0-2.2,0.9-2.2,2.4c0,1.6,0.9,2.4,2.2,2.4
			C112.3,209.4,113.3,208.6,113.3,207z M112.3,227.7c-0.9,0-1.3-0.5-1.3-1.6v-7.7c0-1,0.4-1.5,1.3-1.5h4.1c0.9,0,1.3,0.5,1.3,1.5v3
			l11.8-0.2c0.7,0,1.1,0.4,1.1,1.2v3.8c0,0.8-0.4,1.2-1.2,1.2L112.3,227.7z M127.8,200.1c0-1,0.4-1.6,1.3-1.6h3.4
			c0.9,0,1.3,0.5,1.3,1.6v15.4c0,1-0.4,1.6-1.3,1.6h-3.4c-0.9,0-1.3-0.5-1.3-1.6V200.1z"/>
		<path class="st6" d="M138.5,223.3c-0.7,0-1.1-0.3-1.1-1v-3.7c0-0.7,0.4-1,1.1-1l18.8-0.3c0.7,0,1.1,0.3,1.1,1v3.7
			c0,0.7-0.4,1-1.1,1L138.5,223.3z M144.4,203.7v1.1l12.3-0.2c0.7,0,1.1,0.3,1.1,1v3.1c0,0.6-0.4,1-1.1,1l-12.2,0.2l0,1l12.2-0.2
			c0.9,0,1.1,0.4,1.1,1.3v2.4c0,1-0.2,1.3-1.1,1.3l-17.8,0.3c-0.9,0-1.2-0.5-1.3-1.5l-0.2-14.2c0-1.1,0.4-1.5,1.3-1.5l18.4-0.3
			c0.9,0,1.1,0.3,1.1,1.3v2.2c0,1.1-0.2,1.3-1.1,1.3L144.4,203.7z"/>
		<path class="st6" d="M169.3,214l0.1,2.4l7.6-0.2c0.7,0,1.1,0.3,1.1,1v4.2c0,0.7-0.4,1-1.1,1l-13.1,0.3c-0.9,0-1.2-0.4-1.3-1.5
			l-0.2-11.2c0-1.1,0.3-1.4,1.3-1.5l7.6-0.8l0.1-2.6l-8.3,0.2c-0.7,0-1.1-0.3-1.1-1v-4.3c0-0.7,0.4-1,1.1-1l14.1-0.3
			c1,0,1.3,0.4,1.3,1.5l-0.3,11.7c0,1.1-0.3,1.4-1.2,1.5L169.3,214z M180,200.7c0-1,0.4-1.6,1.3-1.6h4.2c0.9,0,1.3,0.5,1.3,1.6v19.4
			c0,1-0.4,1.6-1.3,1.6h-4.2c-0.9,0-1.3-0.5-1.3-1.6V200.7z"/>
		<path class="st6" d="M206.6,216.7l-3.4,5.5c-0.4,0.6-0.8,0.6-1.4,0.2l-3.4-2.6c-0.6-0.4-0.7-1-0.3-1.6l4.6-7.1
			c0.4-0.6,0.5-1.2,0.5-1.9v-9.1c0-1.1,0.4-1.5,1.3-1.5h4.3c0.9,0,1.3,0.4,1.3,1.5v9.2c0,0.7,0.1,1.3,0.5,1.9l4.2,6.4
			c0.4,0.6,0.5,1-0.1,1.5l-3.5,2.6c-0.5,0.3-0.9,0.2-1.3-0.3L206.6,216.7z M215.7,200.7c0-1,0.4-1.6,1.3-1.6h4.2
			c0.9,0,1.3,0.5,1.3,1.6v6.5l1.6-0.1c0.8,0,1.2,0.3,1.2,1.1v4.2c0,0.7-0.4,1-1.2,1.1l-1.6,0.1v6.7c0,1-0.4,1.6-1.3,1.6H217
			c-0.9,0-1.3-0.5-1.3-1.6V200.7z"/>
		<path class="st6" d="M235,209v1l7-0.2c0.7,0,1.1,0.3,1.1,1v2.9c0,0.7-0.4,1-1.1,1l-12.5,0.3c-0.9,0-1.2-0.4-1.3-1.5l-0.1-7.1
			c0-1.1,0.3-1.4,1.3-1.5l7.1-0.8l0-0.9l-7.7,0.2c-0.7,0-1.1-0.3-1.1-1v-2.9c0-0.7,0.4-1,1.1-1l13.5-0.3c1,0,1.3,0.4,1.3,1.5
			l-0.2,7.2c0,1.1-0.3,1.4-1.2,1.5L235,209z M233.2,222c0-4.1,3.5-6.3,8.6-6.3c5.1,0,8.6,2.3,8.6,6.3c0,4.1-3.5,6.3-8.6,6.3
			C236.6,228.3,233.2,226.1,233.2,222z M244,222c0-0.9-0.7-1.6-2.2-1.6c-1.5,0-2.2,0.7-2.2,1.6s0.7,1.6,2.2,1.6
			C243.3,223.6,244,222.9,244,222z M244.8,200.1c0-1,0.4-1.6,1.3-1.6h4.1c0.9,0,1.3,0.5,1.3,1.6v3.3l1.6-0.1c0.8,0,1.2,0.3,1.2,1.1
			v4.2c0,0.7-0.4,1-1.2,1.1l-1.6,0.1v3.7c0,1-0.4,1.6-1.3,1.6h-4.1c-0.9,0-1.3-0.5-1.3-1.6V200.1z"/>
		<path class="st6" d="M271.7,203.4c0,1.1-0.3,1.4-1.2,1.4l-12.9,0.3c-0.9,0-1.2-0.3-1.2-1.4v-2.9c0-1.1,0.3-1.4,1.2-1.4l3.1-0.1
			v-1.1c0-1.1,0.4-1.4,1.3-1.4h4.3c0.9,0,1.3,0.3,1.3,1.4v1l3-0.1c0.9,0,1.2,0.3,1.2,1.4V203.4z M256.7,213.2c0-4.6,3.1-7.4,7.5-7.4
			c4.5,0,7.5,2.9,7.5,7.4c0,4.6-3.1,7.4-7.5,7.4C259.8,220.6,256.7,217.8,256.7,213.2z M266.3,213.2c0-1.1-0.7-1.9-2-1.9
			c-1.3,0-2,0.8-2,1.9c0,1.1,0.7,1.9,2,1.9C265.6,215,266.3,214.3,266.3,213.2z M280.7,213.1l-1.5,0v7c0,1-0.4,1.6-1.3,1.6h-3.4
			c-0.9,0-1.3-0.5-1.3-1.6v-19.4c0-1,0.4-1.6,1.3-1.6h3.4c0.9,0,1.3,0.5,1.3,1.6v6.2l1.5,0v-6.4c0-1,0.4-1.5,1.3-1.5h3.4
			c0.9,0,1.3,0.5,1.3,1.5v19.4c0,1-0.4,1.6-1.3,1.6H282c-0.9,0-1.3-0.5-1.3-1.6V213.1z"/>
	</g>
	<g>
		<rect x="296.6" y="177.1" class="st6" width="16.6" height="68.6"/>
	</g>
	<g>
		<rect x="76.7" y="177.1" class="st6" width="16.6" height="68.6"/>
	</g>
	<g>
		<path d="M313.3,247.5H76.7c-1,0-1.8-0.8-1.8-1.8v-69.1c0-1,0.8-1.8,1.8-1.8h236.7c1,0,1.8,0.8,1.8,1.8v69.1
			C315.2,246.7,314.3,247.5,313.3,247.5z M78.5,243.9h233.1v-65.5H78.5V243.9z"/>
	</g>
</g>
</svg>
