<?xml version="1.0" encoding="utf-8"?>
<!-- Generator: Adobe Illustrator 23.0.2, SVG Export Plug-In . SVG Version: 6.00 Build 0)  -->
<svg version="1.1" id="Layer_1" xmlns="http://www.w3.org/2000/svg" xmlns:xlink="http://www.w3.org/1999/xlink" x="0px" y="0px"
	 viewBox="0 0 200 200" style="enable-background:new 0 0 200 200;" xml:space="preserve">
<g>
	<path style="fill:#282828;" d="M136.3,0H63.7C29.6,0,2,27.7,2,61.7v17.2v42.2v17.2c0,34,27.7,61.7,61.7,61.7h72.7
		c34,0,61.7-27.7,61.7-61.7v-17.2V78.9V61.7C198,27.7,170.4,0,136.3,0z"/>
	<path style="fill:#868686;" d="M196,138.3c0,32.8-26.9,59.7-59.7,59.7H63.7C30.8,198,4,171.1,4,138.3V78.9
		C4,46,30.8,19.2,63.7,19.2h72.7c32.8,0,59.7,26.9,59.7,59.7L196,138.3L196,138.3z"/>
	<path style="fill:#565656;" d="M196,136.3c0,32.8-26.9,59.7-59.7,59.7H63.7C30.8,196,4,169.2,4,136.3V76.9
		c0-32.8,26.9-59.7,59.7-59.7h72.7c32.8,0,59.7,26.9,59.7,59.7L196,136.3L196,136.3z"/>
	<path style="fill:#C1C1C1;" d="M196,121.1c0,32.8-26.9,59.7-59.7,59.7H63.7C30.8,180.8,4,154,4,121.1V61.7C4,28.9,30.8,2,63.7,2
		h72.7C169.2,2,196,28.9,196,61.7V121.1z"/>
	<path style="fill:#F9F9F9;" d="M136.3,180.8H63.7C30.8,180.8,4,154,4,121.1v3.2C4,157.2,30.8,184,63.7,184h72.7
		c32.8,0,59.7-26.9,59.7-59.7v-3.2C196,154,169.2,180.8,136.3,180.8z"/>
	<path style="fill:#909090;" d="M190.4,116.7c0,33.5-27.4,60.9-60.9,60.9h-59c-33.5,0-60.9-27.4-60.9-60.9V70.1
		C9.6,36.6,37,9.2,70.5,9.2h59.1c33.5,0,60.9,27.4,60.9,60.9v46.6H190.4z"/>
	<path style="fill:#BCBCBC;" d="M100,41.2c36.9,0,69.6,13.9,90.4,35.4v-6.5c0-33.5-27.4-60.9-60.9-60.9h-59
		C37,9.2,9.6,36.6,9.6,70.1v6.5C30.4,55.1,63.1,41.2,100,41.2z"/>
	<path style="fill:#7A7A7A;" d="M179.2,35.1c5.8,9.3,9.2,20.3,9.2,32v46.6c0,33.5-27.4,60.9-60.9,60.9H68.4
		c-20.5,0-38.7-10.2-49.7-25.9c10.8,17.3,30,28.9,51.7,28.9h59.1c33.5,0,60.9-27.4,60.9-60.9V70.1C190.4,57.1,186.3,45,179.2,35.1z"
		/>
	<path style="fill:#F8F8F8;" d="M133.9,5.3H66.1c-30.7,0-55.8,27.1-55.8,57.8v3.5c0-30.7,25.1-55.8,55.8-55.8H134
		c30.7,0,55.8,25.1,55.8,55.8v-3.5C189.7,32.4,164.6,5.3,133.9,5.3z"/>
	<path style="fill:#A9A9A9;" d="M180.8,106.2c0,29.9-24.5,54.4-54.4,54.4H73.6c-29.9,0-54.4-24.5-54.4-54.4V64.6
		c0-29.9,24.5-54.4,54.4-54.4h52.8c29.9,0,54.4,24.5,54.4,54.4L180.8,106.2L180.8,106.2z"/>
	<path style="fill:#CFCFCF;" d="M126.4,10.3H73.6c-29.9,0-54.4,24.5-54.4,54.4v3.2C39.9,51.4,68.4,41.2,100,41.2
		s60.1,10.2,80.8,26.7v-3.2C180.8,34.7,156.3,10.3,126.4,10.3z"/>
	<path style="fill:#FAFAFA;" d="M56.6,29.2c-4.6,2.4-9.7,1.8-11.3-1.3s0.9-7.6,5.6-9.9c4.6-2.4,9.7-1.8,11.3,1.3
		C63.8,22.3,61.3,26.8,56.6,29.2z"/>
	<path style="fill:#F7F7F7;" d="M40.5,34.3c-1.7,1.3-3.8,1.4-4.7,0.3c-0.9-1.1-0.2-3.1,1.5-4.4s3.8-1.4,4.7-0.3S42.2,33,40.5,34.3z"
		/>
	<g>
		<path style="fill:#AEAEAE;" d="M166.5,152.2c1.2,1.8-1.5,5.7-6,8.6c-4.5,2.9-9.1,3.8-10.3,2.1c-1.2-1.8,1.5-5.7,6-8.6
			S165.3,150.4,166.5,152.2z"/>
	</g>
	<g>
		<path style="fill:#A2A2A2;" d="M145.9,165.4c0.7,1.9-1.1,4.3-4,5.4s-5.9,0.5-6.6-1.4c-0.7-1.9,1.1-4.3,4-5.4
			S145.1,163.6,145.9,165.4z"/>
	</g>
</g>
<g>
	<path style="fill:#7A7A7A;" d="M157.4,60.2l-11.7-12.1c-2.1-2.2-5-3.4-8.1-3.4c-2.9,0-5.7,1.1-7.8,3.2L89,87.6L70.7,69.5
		c-2.1-2.1-5-3.3-8-3.3c-2.9,0-5.7,1.1-7.8,3.2L42.8,81c-2.2,2.1-3.4,4.9-3.4,7.9c-0.1,3,1.1,5.9,3.2,8l0,0l0.1,0.1l38.1,37.8
		c2.1,2.1,5,3.3,8,3.3c2.9,0,5.7-1.1,7.8-3.2l8.5-8.2c0.1-0.1,0.2-0.2,0.3-0.3l1.2-1.2l2-2c0.1-0.1,0.2-0.2,0.3-0.3L157.2,76
		C161.7,71.8,161.8,64.6,157.4,60.2z"/>
	<path style="fill:#565656;" d="M155.9,61.6l-11.7-12c-1.7-1.8-4.1-2.8-6.6-2.8c-2.4,0-4.7,0.9-6.4,2.6L89,90.5L69.3,70.9
		c-1.7-1.7-4.1-2.7-6.5-2.7s-4.7,0.9-6.4,2.6L44.3,82.5c-1.8,1.7-2.8,4-2.8,6.4c0,2.5,0.9,4.8,2.6,6.5c0,0,0,0,0.1,0.1l38.1,37.8
		c1.7,1.7,4.1,2.7,6.5,2.7s4.7-0.9,6.4-2.6l8.5-8.2c0.1-0.1,0.2-0.2,0.3-0.2l1.3-1.2l2-2c0.1-0.1,0.2-0.2,0.2-0.2l48.3-46.9
		C159.4,71.1,159.5,65.3,155.9,61.6z"/>
	<path style="fill:#7A7A7A;" d="M152.9,67.7l-11.7-12c-1-1-2.2-1.5-3.6-1.5c-1.3,0-2.5,0.5-3.5,1.4l-45.2,44L66.3,77
		c-0.9-1-2.2-1.5-3.6-1.5c-1.3,0-2.5,0.5-3.5,1.4l-12,11.7c-1,0.9-1.5,2.2-1.5,3.5s0.5,2.6,1.4,3.6l38.1,37.8c0.9,1,2.2,1.5,3.6,1.5
		c1.3,0,2.5-0.5,3.5-1.4l8.6-8.3l0.1-0.1l1.3-1.2l2.1-2l0.1-0.1l48.4-47C154.8,72.8,154.9,69.6,152.9,67.7z"/>
</g>
</svg>
