<?xml version="1.0" encoding="utf-8"?>
<!-- Generator: Adobe Illustrator 26.5.0, SVG Export Plug-In . SVG Version: 6.00 Build 0)  -->
<svg version="1.1" id="레이어_1" xmlns="http://www.w3.org/2000/svg" xmlns:xlink="http://www.w3.org/1999/xlink" x="0px"
	 y="0px" viewBox="0 0 240 150" style="enable-background:new 0 0 240 150;" xml:space="preserve">
<g id="Group" transform="translate(73.000000, 185.000000)">
	<polygon id="Path-5" style="opacity:8.000000e-02;fill-rule:evenodd;clip-rule:evenodd;enable-background:new    ;" points="
		46.9,-176.4 -73,-105.7 47,-35 167,-105.7 	"/>
	<g id="Group-17" transform="translate(27.000000, 0.000000)">
		
			<polygon id="Fill-1_00000000903019622150926080000003277778546274343100_" style="fill-rule:evenodd;clip-rule:evenodd;fill:#9E6444;" points="
			-92.4,-118.2 -64.3,-101.6 -36.2,-118.2 -64.3,-134.8 		"/>
		<polygon id="Fill-2" style="fill-rule:evenodd;clip-rule:evenodd;fill:#E8D6C5;" points="-8.1,-134.8 -36.2,-118.2 -64.3,-134.8 
			-36.2,-151.4 		"/>
		<polygon id="Fill-3" style="fill-rule:evenodd;clip-rule:evenodd;fill:#9E6444;" points="20,-151.4 -8.1,-134.8 -36.2,-151.4 
			-8.1,-168 		"/>
		<polygon id="Fill-4" style="fill-rule:evenodd;clip-rule:evenodd;fill:#9E6444;" points="-8.1,-101.6 -36.2,-85 -8.1,-68.4 
			20,-85 		"/>
		
			<polygon id="Fill-5_00000159446205845188583840000016540553310485511822_" style="fill-rule:evenodd;clip-rule:evenodd;fill:#E8D6C5;" points="
			20,-118.2 -8.1,-101.6 20,-85 48.1,-101.6 		"/>
		<polygon id="Fill-6" style="fill-rule:evenodd;clip-rule:evenodd;fill:#9E6444;" points="48.1,-134.8 20,-118.2 48.1,-101.6 
			76.2,-118.2 		"/>
		<polygon id="Fill-7" style="fill-rule:evenodd;clip-rule:evenodd;fill:#E8D6C5;" points="-36.2,-118.2 -64.3,-101.6 -36.2,-85 
			-8.1,-101.6 		"/>
		<polygon id="Fill-8" style="fill-rule:evenodd;clip-rule:evenodd;fill:#9E6444;" points="-8.1,-134.8 -36.2,-118.2 -8.1,-101.6 
			20,-118.2 		"/>
		
			<polygon id="Fill-9_00000171694061290870256640000012080296808198577318_" style="fill-rule:evenodd;clip-rule:evenodd;fill:#E8D6C5;" points="
			20,-184.6 -8.1,-168 20,-151.4 48.1,-168 		"/>
		<polygon id="Fill-10" style="fill-rule:evenodd;clip-rule:evenodd;fill:#E8D6C5;" points="104.3,-134.8 76.2,-118.2 48.1,-134.8 
			76.2,-151.4 		"/>
		<polygon id="Fill-11" style="fill-rule:evenodd;clip-rule:evenodd;fill:#9E6444;" points="76.2,-151.4 48.1,-134.8 20,-151.4 
			48.1,-168 		"/>
		<polygon id="Fill-12" style="fill-rule:evenodd;clip-rule:evenodd;fill:#E8D6C5;" points="48.1,-134.8 20,-118.2 -8.1,-134.8 
			20,-151.4 		"/>
		
			<polygon id="Fill-13_00000078740913684167157550000009895779245703970705_" style="fill-rule:evenodd;clip-rule:evenodd;fill:#E8D6C5;" points="
			-8.1,-68.4 20,-51.8 48.1,-68.4 20,-85 		"/>
		<polygon id="Fill-14" style="fill-rule:evenodd;clip-rule:evenodd;fill:#9E6444;" points="48.1,-101.6 20,-85 48.1,-68.4 
			76.2,-85 		"/>
		<polygon id="Fill-15" style="fill-rule:evenodd;clip-rule:evenodd;fill:#9E6444;" points="76.2,-118.2 104.3,-101.6 132.4,-118.2 
			132.4,-118.2 104.3,-134.8 		"/>
		<polygon id="Fill-16" style="fill-rule:evenodd;clip-rule:evenodd;fill:#E8D6C5;" points="76.2,-118.2 48.1,-101.6 76.2,-85 
			104.3,-101.6 		"/>
	</g>
	<path d="M159.4-118.1c-0.1,0-0.1,0-0.2-0.1L46.6-184.2c-0.2-0.1-0.3-0.4-0.1-0.6c0.1-0.2,0.4-0.3,0.6-0.1l112.6,66.1
		c0.2,0.1,0.3,0.4,0.1,0.6C159.7-118.2,159.6-118.1,159.4-118.1z"/>
	<path d="M-65.4-117.8c-0.1,0-0.3-0.1-0.4-0.2c-0.1-0.2-0.1-0.5,0.1-0.6l112.3-66.4c0.2-0.1,0.5-0.1,0.6,0.1
		c0.1,0.2,0.1,0.5-0.1,0.6l-112.3,66.4C-65.3-117.8-65.3-117.8-65.4-117.8z"/>
	<g>
		
			<path id="Path-2_00000182507112904610421420000001447029560203108263_" style="fill-rule:evenodd;clip-rule:evenodd;fill:#724329;" d="
			M-65.4-118.2v10.3C9.4-61.8,47-38.2,47-39.8s-0.1-7.1,0-12L-65.4-118.2z"/>
		<path d="M46.9-39.3c-0.7,0-3.3-1.2-18.6-10.5C16.5-56.9-1.4-67.9-24.1-81.9c-12.3-7.6-26.1-16.1-41.6-25.6
			c-0.1-0.1-0.2-0.2-0.2-0.4v-10.3c0-0.2,0.1-0.3,0.2-0.4c0.1-0.1,0.3-0.1,0.4,0L47.2-52.2c0.1,0.1,0.2,0.2,0.2,0.4
			c-0.1,3.7,0,7.8,0,10.2c0,0.8,0,1.4,0,1.8c0,0.2-0.1,0.3-0.2,0.4C47.1-39.4,47-39.3,46.9-39.3z M-65-108.2
			c15.4,9.5,29.2,18,41.4,25.5c41.2,25.4,66.7,41.1,70.2,42.4c0-0.4,0-0.8,0-1.4c0-2.4-0.1-6.4,0-10L-65-117.5V-108.2z"/>
	</g>
	<g>
		
			<polygon id="Path-3_00000080902023661341054470000008095892568614940038_" style="fill-rule:evenodd;clip-rule:evenodd;fill:#4D230C;" points="
			159.4,-118.2 159.4,-107.4 47,-39.8 46.9,-51.8 		"/>
		<path d="M47-39.4c-0.1,0-0.1,0-0.2-0.1c-0.1-0.1-0.2-0.2-0.2-0.4l-0.1-12c0-0.2,0.1-0.3,0.2-0.4l112.6-66.4c0.1-0.1,0.3-0.1,0.4,0
			c0.1,0.1,0.2,0.2,0.2,0.4v10.8c0,0.1-0.1,0.3-0.2,0.4L47.2-39.5C47.2-39.4,47.1-39.4,47-39.4z M47.3-51.6l0.1,11L159-107.7v-9.8
			L47.3-51.6z"/>
	</g>
</g>
</svg>
