<?xml version="1.0" encoding="utf-8"?>
<!-- Generator: Adobe Illustrator 24.3.0, SVG Export Plug-In . SVG Version: 6.00 Build 0)  -->
<!DOCTYPE svg PUBLIC "-//W3C//DTD SVG 1.1//EN" "http://www.w3.org/Graphics/SVG/1.1/DTD/svg11.dtd" [
	<!ENTITY ns_extend "http://ns.adobe.com/Extensibility/1.0/">
	<!ENTITY ns_ai "http://ns.adobe.com/AdobeIllustrator/10.0/">
	<!ENTITY ns_graphs "http://ns.adobe.com/Graphs/1.0/">
	<!ENTITY ns_vars "http://ns.adobe.com/Variables/1.0/">
	<!ENTITY ns_imrep "http://ns.adobe.com/ImageReplacement/1.0/">
	<!ENTITY ns_sfw "http://ns.adobe.com/SaveForWeb/1.0/">
	<!ENTITY ns_custom "http://ns.adobe.com/GenericCustomNamespace/1.0/">
	<!ENTITY ns_adobe_xpath "http://ns.adobe.com/XPath/1.0/">
]>
<svg version="1.1" id="레이어_5" xmlns:x="&ns_extend;" xmlns:i="&ns_ai;" xmlns:graph="&ns_graphs;"
	 xmlns="http://www.w3.org/2000/svg" xmlns:xlink="http://www.w3.org/1999/xlink" x="0px" y="0px" viewBox="0 0 220 280"
	 style="enable-background:new 0 0 220 280;" xml:space="preserve">
<style type="text/css">
	.st0{fill:#F9C6A0;}
	.st1{fill:#5C3F39;}
	.st2{fill:#945B4A;}
	.st3{fill:#533A35;}
	.st4{fill:#799C4C;}
	.st5{fill:#FFFFFF;}
	.st6{fill:#4E3A31;}
	.st7{fill:#F1AA36;}
	.st8{fill:#F7B137;}
	.st9{fill:#683B11;}
	.st10{fill-rule:evenodd;clip-rule:evenodd;fill:#F9C6A0;}
	.st11{fill:#EE5A36;}
	.st12{fill-rule:evenodd;clip-rule:evenodd;fill:#CC8B75;}
	.st13{fill-rule:evenodd;clip-rule:evenodd;}
	.st14{fill:#C68067;}
	.st15{fill:#53413D;}
	.st16{fill:none;stroke:#000000;stroke-width:3;stroke-miterlimit:10;}
	.st17{fill:#FAAF38;}
	.st18{fill:#54413D;}
	.st19{fill:#777777;}
	.st20{fill:#A5A5A5;}
</style>
<metadata>
	<sfw  xmlns="&ns_sfw;">
		<slices></slices>
		<sliceSourceBounds  bottomLeftOrigin="true" height="246.8" width="16383" x="-8051" y="-259.8"></sliceSourceBounds>
	</sfw>
</metadata>
<g>
	<g>
		<path class="st0" d="M114.3,182.7c-1.2-9.3-7.4-15-10.8-8.5c-2.2,4.4-0.9,14-1.7,19c-1.3,8.7-3.4,15.8-5.9,22.2l16.2,0.4
			C115.2,204.9,115.8,193.8,114.3,182.7z"/>
		<path class="st1" d="M83.2,246.1c0.8,0.8,2.1,0.9,3.2,0.9c9.5,0.5,17.9,2.1,27.3,0.8c1.2-0.2,2.4-0.3,3.3-1c1.4-0.9,3-3.1,3.4-4.7
			c0.9-3.8,1.4-7.6-0.5-11c-1.8-3.5-7.2-6.1-11.1-6c1.3-3.1,2.4-6.2,3.3-9.3L96,215.4c-3.4,8.6-7.7,16-11.9,24.2
			C82.9,241.8,81.4,244.5,83.2,246.1z"/>
	</g>
	<g>
		<path class="st2" d="M108.8,215.5l-14.1-2.1c-0.6-0.1-1.2,0.3-1.4,0.8l-3,8.7c-0.3,0.8,0.2,1.6,1,1.7l9.7,1.2
			c0.4,0,0.9-0.2,1.1-0.5l2.5-3.7c0.5-0.7,1.3-1.2,2.2-1.1l1.1,0c0.6,0,0.8,0.2,0.9,0.7l-0.6,4.1c0.1,0.6,0.6,1,1.2,1l2.2-0.1
			c0.6,0,1.1-0.5,1.2-1.1l0.8-7.9c0.1-0.7-0.5-1.3-1.2-1.4l-3.6-0.2C108.9,215.5,108.8,215.5,108.8,215.5z"/>
		<path d="M109.5,227.3c-1.1,0-2-0.7-2.2-1.7c0-0.1,0-0.2,0-0.4l0.6-3.7l-1,0c-0.5,0-1,0.2-1.3,0.7l-2.5,3.7c-0.4,0.7-1.2,1-2,1
			l-9.8-1.2c-0.7-0.1-1.3-0.5-1.6-1c-0.4-0.6-0.4-1.3-0.2-1.9l3-8.7c0.4-1,1.4-1.7,2.5-1.5l14.1,2.1l-0.1,1l0.2-1l3.6,0.2
			c0.6,0,1.2,0.3,1.6,0.8c0.4,0.5,0.6,1.1,0.5,1.7l-0.8,7.9c-0.1,1.1-1,2-2.1,2L109.5,227.3z M109.3,225.2c0,0,0.1,0.1,0.2,0.1
			l2.2-0.1c0.1,0,0.2-0.1,0.2-0.2l0.8-7.9c0-0.1,0-0.2-0.1-0.2s-0.1-0.1-0.2-0.1l-3.8-0.3l0,0l-14.1-2.1c-0.1,0-0.2,0.1-0.3,0.2
			l-3,8.7c0,0.1,0,0.2,0,0.2c0,0,0.1,0.1,0.2,0.1l9.7,1.2h0c0,0,0.1,0,0.2-0.1l2.5-3.7c0.7-1,1.8-1.6,3-1.6l1.1,0
			c0.7,0,1.6,0.2,1.9,1.5c0,0.1,0,0.2,0,0.4L109.3,225.2z"/>
	</g>
	<path d="M105.8,249.4c-4.4,0-8.1-0.3-12.1-0.7c-2.3-0.2-4.8-0.4-7.4-0.5c-1.1-0.1-2.9-0.2-4.1-1.3c-2.5-2.3-0.8-5.8,0.4-8.1
		l1.7-3.3c1.9-3.6,3.3-6.3,5.1-10.2c-0.3-0.2-0.6-0.5-0.8-0.9c-0.5-0.9-0.7-1.9-0.4-2.8l3-8.7c0.4-1.3,1.7-2,3-1.8l1.4,0.2
		c0.3-0.9,0.7-1.8,1-2.7c1.9-4.9,4-10.5,4.8-15.9c0.2-1.5,0.3-3.5,0.5-5.6c0.3-4.9,0.7-10.5,2.3-13.8c1.7-3.4,3.7-3.8,5-3.6
		c3.7,0.6,5.8,6.9,6.6,12.5c1.4,10.6,0.8,21.8-1.6,31.7c0.6,0.6,0.9,1.4,0.8,2.2l-0.8,8.1c0,0.5-0.1,1-0.3,1.3
		c2.6,0.7,5.1,1.8,6.6,4.6c1.9,3.5,2.3,7.9,1.3,12.5c-0.4,1.6-1.1,3.9-3,5.2c-1.2,0.8-3.1,1-5,1.2
		C110.9,249.3,108.2,249.4,105.8,249.4z M91.1,222.7c0.2,0.1,0.4,0.2,0.5,0.3l0.7,0.6c0.5,0.4,0.7,1.2,0.4,1.8
		c-2.2,4.6-3.7,7.4-5.7,11.5l-1.7,3.3c-1,2-1.8,3.8-1,4.5c0.5,0.4,1.4,0.5,2.3,0.6c2.7,0.1,5.1,0.4,7.5,0.6c6,0.5,11.7,1,19.6,0.3
		c1.9-0.2,3.2-0.4,3.6-0.7c0.8-0.5,1.4-1.6,1.8-3.4c0.9-3.8,0.5-7.5-1-10.4c-1.2-2.3-3.4-2.8-6.4-3.6c-0.7-0.2-1.4-0.3-2.1-0.5
		c-0.8-0.2-1.2-1-1.1-1.7c0.2-0.8,0.9-1.3,1.7-1.2c0.5,0,1.1-0.1,1.2-0.2l0,0c0,0,0,0,0-0.2c0-0.1,0-0.1,0-0.2l0.8-8
		c-0.3-0.1-0.6-0.3-0.8-0.6c-0.2-0.3-0.3-0.8-0.2-1.2c2.5-9.8,3.1-21.1,1.8-31.7c-0.8-6.2-2.9-9.8-4.1-10c-0.4,0-1.1,0.4-1.8,2
		c-1.4,2.7-1.7,8.2-2,12.6c-0.1,2.2-0.3,4.3-0.5,5.9c-0.8,5.7-3.1,11.7-5,16.6c-0.5,1.4-1,2.6-1.4,3.8c-0.2,0.7-0.9,1.1-1.6,1
		L94,214l-2.9,8.5C91,222.5,91.1,222.6,91.1,222.7z"/>
</g>
<g>
	<g>
		<g>
			<path class="st0" d="M106.4,185.1c-0.6-9.3-4.6-14.5-9.4-8.9c-3.2,3.7-2.2,11-2,16c0.3,7,1.1,11.9-9.1,23.7l15.6,4.3
				C112.4,200.2,107,194.8,106.4,185.1z"/>
			<path class="st1" d="M69.9,238c0.6,1,6.1,7,6.9,7.8c5.8,5,9,5.6,17.3,6.2c1.2,0.1,3.5-0.3,4.6-0.7c1.6-0.5,3.2-1.6,4-3.1
				c1.9-3.4,3-6.1,2.1-10c-0.8-3.8-5-7.2-8.8-8.2c2.1-2.6,4.1-6.7,5.8-9.5l-15.4-4.8c-5.6,7.3-8.7,10.4-15,17.2
				C69.8,234.7,68.7,236,69.9,238z"/>
		</g>
		<g>
			<path class="st2" d="M98.7,219.4l-13-5.8c-0.6-0.2-1.2-0.1-1.6,0.4l-5.2,7.6c-0.5,0.7-0.2,1.6,0.6,1.9l9.1,3.8
				c0.4,0.1,0.9,0.1,1.2-0.2l3.4-2.9c0.7-0.6,1.6-0.8,2.4-0.5l1.1,0.3c0.5,0.2,0.7,0.4,0.7,0.9l-1.7,3.8c0,0.6,0.3,1.1,0.9,1.3
				l2.2,0.5c0.6,0.1,1.2-0.2,1.5-0.8l2.9-7.4c0.3-0.7-0.1-1.4-0.8-1.7L98.7,219.4C98.8,219.4,98.8,219.4,98.7,219.4z"/>
			<path d="M99,231.5c-0.2,0-0.3,0-0.5-0.1l-2.2-0.5c-1.1-0.3-1.7-1.2-1.7-2.3c0-0.1,0-0.2,0.1-0.4l1.5-3.4l-1-0.3
				c-0.5-0.2-1.1,0-1.5,0.3l-3.4,2.9c-0.6,0.5-1.5,0.7-2.2,0.4l-9.1-3.8c-0.6-0.3-1.1-0.8-1.3-1.5c-0.2-0.7-0.1-1.4,0.3-1.9l5.2-7.6
				c0.6-0.9,1.8-1.2,2.8-0.8l13,5.8l-0.4,0.9l0.4-0.9l3.4,1.2c0.6,0.2,1,0.6,1.3,1.2c0.3,0.6,0.3,1.2,0,1.8L101,230
				C100.7,230.9,99.9,231.5,99,231.5z M96.6,228.8c0,0.1,0.1,0.1,0.2,0.1l2.1,0.5c0.1,0,0.3,0,0.3-0.2l2.9-7.4c0-0.1,0-0.2,0-0.2
				c0,0-0.1-0.1-0.2-0.1l-3.4-1.2c0,0-0.1,0-0.2-0.1c0,0,0,0,0,0l-13-5.8c-0.1-0.1-0.3,0-0.3,0.1l-5.2,7.6c-0.1,0.1-0.1,0.2,0,0.2
				c0,0.1,0.1,0.1,0.2,0.2l9.1,3.8c0,0,0.1,0,0.2-0.1l3.4-2.9c0.9-0.8,2.2-1.1,3.4-0.7l1.1,0.3c0.6,0.2,1.5,0.6,1.4,1.9
				c0,0.1,0,0.2-0.1,0.4L96.6,228.8z"/>
		</g>
	</g>
	<path d="M94.1,253.2c-0.2,0-0.3,0-0.5,0c-8.6-0.7-12.2-1.4-18.1-6.6c-0.9-0.8-6.5-7-7.2-8.1c-1.9-3,0.1-5.2,1.7-6.9l2-2.2
		c2-2.2,3.7-4,5.3-5.8c-0.2-0.3-0.3-0.6-0.4-0.9c-0.2-0.8-0.1-1.7,0.4-2.4l5.2-7.6c0.8-1.1,2.2-1.5,3.4-0.9l0.4,0.2
		c7-8.8,6.7-14.2,6.4-19.9c0-0.5-0.1-1.1-0.1-1.6c0-1-0.1-2.1-0.2-3.3c-0.4-4.9-1-10.9,2-14.4c2.4-2.7,4.7-2.5,5.9-2.1
		c4.3,1.4,6.9,8.6,7.3,14.9c0.1,2.2,0.5,3.9,0.9,5.7c1.2,5.8,2.4,11.2-5.5,27.9c0.4,0.3,0.8,0.7,1,1.2c0.3,0.7,0.3,1.5,0.1,2.2
		l-2.9,7.4c-0.1,0.3-0.2,0.5-0.4,0.7c2.5,1.7,4.5,4.2,5.2,7.1c1,4.5-0.4,7.6-2.3,11c-0.9,1.7-2.7,3.1-4.8,3.8
		C97.8,252.8,95.6,253.2,94.1,253.2z M79.9,221.8l0.3,0.1c0.4,0.2,0.8,0.6,0.9,1c0.1,0.5,0,1-0.3,1.3c-2,2.3-4,4.4-6.5,7.1l-2,2.2
		c-1.8,1.9-1.9,2.3-1.4,3.3c0.5,0.9,5.9,6.8,6.6,7.4c5.5,4.8,8.5,5.2,16.4,5.9c0.9,0.1,3-0.3,4-0.6c1.4-0.5,2.5-1.3,3.1-2.4
		c1.9-3.5,2.7-5.7,2-8.9c-0.7-3.3-4.5-6.2-7.7-7.1c-0.5-0.1-0.9-0.5-1-1c-0.2-0.5-0.1-1,0.3-1.4l0.2-0.3c0.4-0.6,1.2-0.7,1.9-0.4
		c0,0,0,0,0,0l1.8,0.4l2.7-6.9l-3.2-1.1c-0.1,0-0.1-0.1-0.2-0.1l-0.2-0.1c-0.7-0.3-1.1-1.1-0.8-1.9c0.3-0.7,1.1-1.1,1.8-0.9l1.6,0.5
		c7.5-15.8,6.5-20.5,5.3-26.1c-0.4-1.8-0.8-3.7-0.9-6.1c-0.4-6.6-3-11.5-5.3-12.2c-0.3-0.1-1.3-0.4-2.7,1.2
		c-2.1,2.5-1.7,7.8-1.3,12.1c0.1,1.2,0.2,2.4,0.3,3.4c0,0.5,0,1.1,0.1,1.6c0.3,6.2,0.7,12.7-7.8,22.9c-0.4,0.5-1.2,0.7-1.8,0.4
		l-1.3-0.6L79.9,221.8z"/>
</g>
<g>
	<g>
		<path class="st0" d="M90.2,138.1c2.4-2.2,5.2-3.8,8.1-5.5c2.1-1.3,5.6-2.1,6.3-4.8c0.3-1.1-0.2-2-0.9-2.7
			c-2.9-2.8-6.8-1.5-9.8-0.1c-9.7,4.4-18.4,9.9-26.6,22c-0.5,0.7-1.3,1.5-2,2c-0.5,0.4-1.2,0.5-1.8,0.8c-0.6,0.3-1.2,0.6-1.8,0.9
			c-1.1,0.7-2.1,1.5-3,2.5c-1.4,1.5-2.3,3.4-2.7,5.3c-1,4.2,1.6,7.2,5.7,8.2c4.6,1.1,8.8-2.7,10.8-6.6c0.5-1,0.9-1.7,1.1-2.7
			c0.5-1.9,3.4-5.2,4.6-6.8C82.1,145.5,85.5,142.4,90.2,138.1z"/>
		<path class="st3" d="M80,148.9c0,0-1.9-5.3-8.7-7.6l-5,6.1c0,0,6.9,2.7,8.5,7.8L80,148.9z"/>
	</g>
	<g>
		<path d="M63.3,168.5c-0.7,0-1.3-0.1-2-0.2c-5.2-1.2-7.9-5.3-6.8-10c0.6-2.4,1.6-4.4,3.1-6c1-1.1,2.1-2,3.3-2.8
			c0.6-0.4,1.3-0.7,2-1c0.2-0.1,0.5-0.2,0.7-0.3c0.3-0.1,0.6-0.2,0.8-0.4c0.6-0.4,1.3-1.1,1.6-1.6c8.1-12.2,16.8-17.9,27.2-22.6
			c2.1-0.9,7.6-3.4,11.5,0.4c1.2,1.2,1.7,2.7,1.3,4.2c-0.7,2.7-3.2,3.9-5.3,4.9c-0.6,0.3-1.2,0.6-1.7,0.9l-1.1,0.7
			c-2.5,1.5-4.8,2.8-6.8,4.6l-0.3,0.3c-4.5,4.2-7.8,7.2-11.5,12.1c-0.3,0.4-0.6,0.8-1,1.3c-1.1,1.4-3.1,3.8-3.3,5
			c-0.3,1.1-0.7,1.9-1.1,2.8l-0.1,0.2C71.7,164.9,67.8,168.5,63.3,168.5z M99.5,125c-1.3,0-3,0.5-5,1.4c-10,4.5-18.2,9.9-25.9,21.5
			c-0.7,1-1.7,1.9-2.5,2.4c-0.5,0.3-1,0.5-1.5,0.7c-0.2,0.1-0.3,0.1-0.5,0.2c-0.5,0.2-1.1,0.5-1.6,0.8c-1,0.6-1.9,1.4-2.7,2.3
			c-1.1,1.2-1.9,2.8-2.4,4.7c-0.9,3.7,1.8,5.8,4.6,6.4c3.7,0.9,7.3-2.4,9.1-5.8l0.1-0.2c0.4-0.8,0.7-1.3,0.9-2.1
			c0.4-1.7,2-3.8,3.9-6.2c0.4-0.5,0.7-0.9,1-1.2c3.9-5.2,7.3-8.3,11.9-12.5l0.3-0.3c2.2-2,4.8-3.5,7.3-5l1.1-0.6
			c0.6-0.4,1.3-0.7,1.9-1c1.6-0.8,3.3-1.6,3.7-2.9c0-0.1,0.2-0.6-0.5-1.3C101.8,125.4,100.7,125,99.5,125z"/>
	</g>
</g>
<g>
	<g>
		<g>
			<path class="st10" d="M135.4,121.1c-7.4,6.8-14.6,6.4-26.8,6.4c-30.2-0.2-40.9-10.7-41.1-32.8c0-3.1,0.3-19.2,10.1-29.6
				c5.8-6.2,14.2-7.4,24.4-9.2c48.6-8.6,35.1,37.5,35.1,38.7c0,1.8,1.5,3.1,2.4,4.6C143.4,105.5,140.4,116.5,135.4,121.1z"/>
			<path d="M113.4,129c-1,0-2,0-3,0l-1.8,0c-29.6-0.2-42.4-10.4-42.5-34.3c0-3.2,0.3-19.8,10.5-30.6c5.9-6.2,14-7.7,23.5-9.3
				l1.7-0.3c14.7-2.6,25.4-0.5,31.8,6.1c4.6,4.8,9.3,14.5,5.2,33.5c-0.1,0.3-0.1,0.5-0.1,0.6c0,0.8,0.6,1.5,1.3,2.3
				c0.3,0.4,0.7,0.9,1,1.3c4.3,7,1.2,18.8-4.3,23.8C129.7,128.4,122.9,129,113.4,129z M113.1,56.3c-3.3,0-6.9,0.3-10.8,1l-1.7,0.3
				c-9.3,1.6-16.6,2.9-21.8,8.4c-9.6,10.2-9.7,26.7-9.7,28.6c0.2,22.4,11.3,31.2,39.6,31.3l1.8,0c10.9,0.1,17.4,0.1,24-6l1,1.1
				l-1-1.1c4.6-4.2,7.3-14.5,3.8-20c-0.2-0.3-0.5-0.7-0.8-1.1c-0.8-1.1-1.9-2.4-1.9-4.3c0-0.2,0-0.4,0.2-1.2
				c3.8-17.7-0.3-26.5-4.4-30.8C127.3,58.4,121.2,56.3,113.1,56.3z"/>
		</g>
		<g>
			<path class="st11" d="M98.6,45.7c-6.6-0.3-13.5,0.7-19.1,3.7c-5.6,3-10.4,7.7-13.2,13.4c-2.9,5.9-2.7,12.9-4.8,19.2
				c-2.3,7-7.5,13-14.1,16.2c-1,0.5-2.2,1.1-2.4,2.2c-0.4,1.7,1.6,2.9,3.3,3.3c5.2,1.2,9.2-0.3,14-2.6c0.4,2.7-1.6,5.9-3.2,8.1
				c-1.6,2.2-2.7,4.8-0.4,6.3c0.7,0.5,1.5,0.6,2.3,0.7c9.1,0.9,21.1-2.5,27.6-8.9c6.6-6.4,8.3-12.2,8.9-20.2c-0.8,2.7,5.1,7.4,7.5,6
				c2.4-1.3,4.7-10.7,5.8-13.3c2-4.9,2.3-7.5,5.7-11.5c3.1-3.6,4.8-4.4,8.4-3.5c4.8,1.2,6.1,3.2,7.7,8.4c1.6,5.3,1.7,9.3,5.7,14.7
				c3.2,4.5,5.9,6.5,11.4,6.7c1.1,0,2.3-0.1,2.9-0.9c1.4-1.6-0.6-3.9-2-5.4c-7.7-8.5-0.4-17.5-4.9-28.1c-3.3-7.8-13.6-16-25.3-11
				c-7,3-8.9-1.3-13.9-2.3C104.1,46.2,101.4,45.8,98.6,45.7z"/>
			<path d="M64.1,117.8c-1.1,0-2.2-0.1-3.3-0.2c-1-0.1-2-0.3-3-0.9c-1-0.7-1.7-1.7-1.8-2.8c-0.3-1.6,0.4-3.5,1.9-5.6
				c1.3-1.8,2.2-3.4,2.6-4.8c-3.9,1.7-7.7,2.7-12.6,1.6c-2.6-0.6-5-2.5-4.4-5.1c0.4-1.8,2.1-2.6,3.2-3.2C53,93.8,58,88,60.1,81.5
				c0.8-2.5,1.3-5.3,1.7-7.9c0.7-3.8,1.3-7.8,3.1-11.5c2.9-5.8,7.8-10.8,13.8-14.1c6.8-3.7,14.6-4.1,19.9-3.9l0,0
				c2.8,0.1,5.6,0.5,8.4,1.1c1.9,0.4,3.3,1.2,4.6,1.9c2.5,1.3,4.3,2.3,8.4,0.6c4.9-2.1,10.1-2.2,14.9-0.2
				c5.4,2.2,10.1,6.8,12.3,12.1c2.1,5,1.8,9.7,1.4,13.9c-0.4,5.1-0.7,9.5,3.2,13.7c1.4,1.5,4.3,4.7,2,7.4c-1.3,1.6-3.5,1.5-4.2,1.4
				c-6.3-0.3-9.4-2.9-12.6-7.3c-3.1-4.3-3.9-7.7-4.9-11.4c-0.3-1.2-0.6-2.5-1-3.8c-1.5-4.8-2.5-6.3-6.6-7.4c-2.8-0.7-4-0.4-6.9,3
				c-2.5,2.9-3.2,4.9-4.3,7.9c-0.3,1-0.7,2-1.2,3.2c-0.2,0.6-0.6,1.7-1,2.9c-1.8,5.6-3.3,10-5.5,11.2c-2,1.1-4.8-0.2-6.7-1.7
				c-0.2-0.2-0.4-0.4-0.6-0.5c-1,5.8-3.3,10.9-8.8,16.2C83.8,114.1,73.5,117.8,64.1,117.8z M62.3,99.6c0.2,0,0.5,0.1,0.7,0.2
				c0.4,0.2,0.7,0.6,0.8,1.1c0.4,2.5-0.8,5.6-3.5,9.2c-1,1.4-1.5,2.6-1.4,3.3c0,0.2,0.1,0.5,0.6,0.8c0.4,0.3,1,0.3,1.5,0.4
				c9.2,0.9,20.6-2.7,26.5-8.4c6.1-5.9,7.8-11.3,8.4-18.4c0-0.4,0-0.8,0.1-1.2c0.2-0.7,1-1.2,1.7-1c0.8,0.1,1.3,0.8,1.2,1.6
				c0,0.2,0,0.4,0,0.6c0.1,0.5,0.7,1.5,2,2.6c1.7,1.4,3.1,1.6,3.4,1.4c1.3-0.7,3.2-6.8,4-9.5c0.4-1.3,0.8-2.4,1-3.1
				c0.5-1.1,0.8-2.1,1.2-3.1c1.1-3.1,2-5.6,4.8-8.9c3.2-3.7,5.3-5.1,9.9-4c5.4,1.4,7.1,4,8.8,9.4c0.4,1.4,0.8,2.7,1.1,4
				c0.9,3.5,1.6,6.5,4.4,10.3c3.2,4.5,5.6,5.9,10.3,6.1c1.2,0.1,1.6-0.2,1.7-0.3c0.6-0.7-1.3-2.8-1.9-3.5c-4.7-5.2-4.3-10.7-3.9-16
				c0.3-4,0.6-8.2-1.2-12.5c-1.9-4.6-6-8.6-10.7-10.5c-4.1-1.7-8.5-1.6-12.6,0.2c-5.4,2.3-8.4,0.7-11-0.7c-1.2-0.7-2.4-1.3-3.8-1.6
				c-2.6-0.6-5.2-0.9-7.9-1c-4.9-0.2-12.1,0.2-18.3,3.5c-5.5,3-10,7.5-12.5,12.7c-1.6,3.2-2.2,6.8-2.9,10.6c-0.5,2.8-1,5.6-1.8,8.3
				c-2.4,7.4-7.8,13.7-14.8,17.1c-0.6,0.3-1.5,0.8-1.6,1.2c-0.1,0.5,1,1.2,2.2,1.5c4.5,1.1,7.9,0,13-2.5
				C61.9,99.6,62.1,99.6,62.3,99.6z"/>
		</g>
		<g>
			
				<ellipse transform="matrix(8.409675e-02 -0.9965 0.9965 8.409675e-02 5.0115 204.576)" class="st12" cx="113.8" cy="99.6" rx="1" ry="1.2"/>
			<circle class="st12" cx="119.6" cy="99.1" r="1.3"/>
			
				<ellipse transform="matrix(8.409675e-02 -0.9965 0.9965 8.409675e-02 6.0485 212.014)" class="st12" cx="118.4" cy="102.7" rx="0.8" ry="1"/>
		</g>
		<g>
			<g>
				<path class="st13" d="M132.9,100.1L132.9,100.1c-0.9-0.1-1.6-1.3-1.5-2.7l0-0.4c0.1-1.4,1-2.5,1.9-2.5s1.6,1.3,1.5,2.7l0,0.4
					C134.7,99.1,133.8,100.2,132.9,100.1"/>
				<path class="st13" d="M124.9,99.3L124.9,99.3c-0.9-0.1-1.6-1.3-1.5-2.7l0-0.4c0.1-1.4,1-2.5,1.9-2.5c0.9,0.1,1.6,1.3,1.5,2.7
					l0,0.4C126.7,98.3,125.8,99.4,124.9,99.3"/>
			</g>
		</g>
		<path class="st14" d="M135.4,103.2c-0.3,0-0.6-0.1-0.8-0.4c-1.4-1.8-3.4-2.2-5.5-1.1c-0.5,0.3-1.1,0.1-1.4-0.4
			c-0.3-0.5-0.1-1.1,0.4-1.4c3-1.6,6.1-1,8.1,1.6c0.3,0.4,0.2,1.1-0.2,1.4C135.8,103.1,135.6,103.2,135.4,103.2z"/>
		<path d="M132.4,117.1c-0.5,0-0.9-0.3-1-0.8c-1-5.1-8-8.3-14-8.8c-0.6,0-1-0.5-0.9-1.1c0-0.5,0.5-1,1.1-0.9
			c5.6,0.4,14.4,3.6,15.8,10.4c0.1,0.5-0.2,1.1-0.8,1.2C132.5,117.1,132.4,117.1,132.4,117.1z"/>
	</g>
	<g>
		<g>
			<path class="st8" d="M51.9,59.8c0.1,0,0.3-0.1,0.4-0.1c3.9-1,7-2.2,10.4-5c7.3-5.9,13.6-16.6,20.5-23.2
				c6.5-6.2,13.3-9.9,21.1-9.7c12.9,0.3,23.6,10.8,32,24c2.4,3.8,4.6,7.1,7.9,9.5c3.7,2.6,3.6-0.5,7.4,1.9c1.4,0.9,2.7,2.1,3.4,3.8
				c0.6-1.7,1.2-3.8,1.3-5.6c0.1-3.2-1.8-5-3.9-6.3c-3.8-2.4-3.7,1.7-7.5-0.9c-3.4-2.3-5.6-6.6-8.1-10.4
				c-8.5-13.2-20.5-23.5-33.5-23.8c-7.9-0.2-15.9,3.2-22.4,9.4c-7,6.6-11.2,17.4-18.7,23.3c-3.5,2.8-6.9,3-10.8,4
				c-0.1,0-0.3,0.1-0.4,0.1c-2.8,0.8-5.5,3.1-6.5,6.7c-0.6,2.5,0,5.1,0.9,7.4C46.6,61.7,49.4,60.5,51.9,59.8z"/>
			<path class="st15" d="M135.7,75.3c-3.1,0.3-1.2-6.2-2-9.3c-2.2-7.8-11.4-1.6-17.6-3.1c-6.6-1.6-12.7-1.8-19.7,2.3
				S84.9,72.8,80,82.1c-0.8,1.5-2,2.9-3,4.1c-1.4,1.7-3.4,1.8-5.2,1.5C62.5,86.6,51.1,77,46,66.1c-0.2-0.4-0.4-0.8-0.6-1.3
				c-0.1-0.4,1-2.1,1.2-2.4c0.5-0.7,1.1-1.3,1.7-1.8c1.3-1.1,2.9-1.5,4.4-1.9c3.4-1,6.9-1.5,10-3.9c7.3-5.9,13.6-16.6,20.5-23.2
				c6.5-6.2,14.3-10,22.1-10.2c15.5-0.4,23.6,10.8,32,24c2.4,3.8,4.1,6.7,7.4,9c3.7,2.6,5.9-2.4,9.6,2.8c1,1.4-0.4,2.1,0.2,3.8
				c0,0.1-1,2.1-1,2.2c-6.6,8.9-2.5,4.9-9.6,10.4C144,73.6,137.3,75.2,135.7,75.3z"/>
		</g>
		<path d="M71.6,89.2C62,88,49.9,77.7,44.6,66.3c-0.2-0.4-0.4-0.9-0.6-1.4c-1-2.5-1.5-7.4-0.8-10.2c1.2-4.6,6.9-6.2,9.7-6.9l0.4-0.1
			c3.8-1,6.7-2.1,10-4.7c3.9-3.1,6.4-6.5,9-10.1c2.2-3.1,4.5-6.2,7.7-9.3c6.7-6.4,15.7-10.2,24.1-10.4c17-0.3,25.9,11.2,34.2,24
			c0.4,0.7,0.9,1.3,1.3,2c1.9,3.1,3.9,6.2,6.4,8l0.3,0.3c0.3,0.2,1.5,0.8,4.8,0.4c1-0.2,3-0.1,4.4,1.3c1.9,2,2.1,5.7,0.5,11.3
			c-0.2,0.5-4.1,11.7-13.1,17.7l-1.7-2.5c8.1-5.5,11.9-16,11.9-16.1c1.7-5.9,0.7-7.8,0.2-8.3c-0.6-0.7-1.6-0.5-1.7-0.5l-0.1,0
			c-4.8,0.6-6.7-0.7-7.4-1.3c-3-2.1-5.1-5.5-7.1-8.8c-0.4-0.7-0.8-1.3-1.3-2c-8.1-12.5-16.1-22.9-31.6-22.7
			c-7.7,0.1-16,3.7-22.1,9.5c-3.1,2.9-5.3,6-7.4,8.9c-2.6,3.6-5.3,7.4-9.5,10.7c-3.7,2.9-7,4.2-11.1,5.3l-0.4,0.1
			c-2.2,0.6-6.8,1.9-7.6,4.8c-0.5,2-0.2,6.2,0.7,8.4c0.2,0.4,0.3,0.8,0.5,1.2c4.9,10.6,16,20.2,24.7,21.2L71.6,89.2z"/>
		<path class="st8" d="M74.5,58.1c-0.9-0.1-1.8-0.3-2.6-0.2c-0.7,0-1.5,0.3-1.8,1c-0.2,0.6,0,1.3,0.4,1.7c0.4,0.5,0.9,0.8,1.4,1
			c0.4,0.2,0.9,0.4,1.1,0.9c0.1,0.2,0.1,0.5,0.1,0.7c0,1-0.2,2.1,0.4,2.9c0.6,0.8,1.7,0.9,2.5,0.4c0.8-0.5,1.3-1.4,1.7-2.3
			c0.4-0.9,0.7-1.9,1.2-2.7c0.5-0.7,1.1-1.2,1.7-1.7c1.3-1,2.6-1.9,3.9-2.9c2.4-1.7,4.8-3.4,7.5-4c1.2-0.3,2.5-0.3,3.7-0.7
			c0.5-0.2,0.9-0.4,1.2-0.9c0.3-0.5,0.4-1.1,0-1.6c-0.5-0.7-1.6-0.5-2.1-1.2c-0.1-0.2-0.2-0.4-0.2-0.7c-0.1-0.8,0.2-1.6,0.2-2.5
			c0.1-0.8-0.2-1.8-0.9-2.1c-0.6-0.2-1.2,0.3-1.6,0.9c-0.7,0.9-1.2,1.9-1.6,2.9c-0.3,0.8-0.5,1.7-0.8,2.5c-0.7,1.6-2.1,2.7-3.4,3.6
			c-1.8,1.2-3.6,2.2-5.5,3.1C78.8,57.6,76.8,58.3,74.5,58.1z"/>
		<path class="st17" d="M76.3,43.1c-1.9,1.8-3.7,4.1-3.7,6.9c0,0.8,0.2,1.6,0.7,2.2c0.6,0.8,1.7,1.1,2.6,1c0.9-0.1,1.8-0.6,2.7-1
			c0.8,1.1,0.2,2.7,0.5,4.1c0.3,1.2,1.5,2,2.7,2.2c1.2,0.2,2.3-0.2,3.4-0.8c1.3-0.7,2.6-1.5,3.7-2.6c0.9-0.8,1.7-1.8,1.8-3
			c0.2-2.2-1.6-3.9-3.3-5.1c1.4-1.1,2.3-2.8,2.2-4.7C89,33.2,78.9,40.6,76.3,43.1z"/>
		<path class="st15" d="M81.4,44.4c-0.2,1.2,0.5,2.4,1.5,2.9s2.2-0.1,2.7-1.2c0.3-0.7,0.3-1.5,0.1-2.3c0-0.2-0.1-0.4-0.2-0.6
			C84.5,41.4,81.7,42.7,81.4,44.4z"/>
		<path class="st15" d="M80.5,47.5c0.2,0.8-0.3,1.6-0.9,2c-0.6,0.4-1.4,0.3-2.1,0c-0.4-0.2-0.7-0.6-0.8-1c-0.2-0.7,0.2-1.4,0.5-1.9
			c0.4-0.6,1.1-1.2,1.7-1C78.9,45.6,80,45.7,80.5,47.5z"/>
		<path class="st18" d="M82.6,55.6c0,0-0.1,0-0.1,0c-1,0-2-0.6-2.4-1.5c-0.2-0.5,0-1.1,0.5-1.3c0.5-0.2,1.1,0,1.3,0.5
			c0.1,0.3,0.4,0.4,0.7,0.4c0.3,0,0.7-0.1,1.2-0.4c0.7-0.4,1.2-0.8,1.4-1.2c0.3-0.5,0.4-1.1,0.2-1.6c-0.2-0.5,0-1.1,0.5-1.3
			c0.5-0.2,1.1,0,1.3,0.5c0.5,1,0.4,2.4-0.3,3.5c-0.5,0.8-1.2,1.4-2.2,2C84.1,55.3,83.4,55.6,82.6,55.6z"/>
	</g>
	<g>
		<path class="st11" d="M71,87.9c8.2-3.7,9.6-15.1,14-22.2c5.1-8.1,12.4-14.6,22.5-12.4c5,1.1,6.4-0.7,13.5-3.7
			c11.6-5,22,3.2,25.3,11c4.5,10.6-2.9,19.6,4.9,28.1c1.4,1.6,3.3,3.8,2,5.4c-0.7,0.8-1.9,0.9-2.9,0.9c-5.5-0.2-8.2-2.3-11.4-6.7
			c-4-5.5-4-9.5-5.7-14.7c-1.6-5.1-3-7.2-7.7-8.4c-3.6-0.9-5.3-0.1-8.4,3.5c-3.4,4-3.8,6.6-5.7,11.5c-1,2.6-3.3,12-5.8,13.3
			c-2.4,1.3-8.6-5-8.4-8.2"/>
		<path d="M150.6,96.6c-0.2,0-0.4,0-0.5,0c-6.3-0.3-9.4-2.9-12.6-7.3c-3.1-4.3-3.9-7.7-4.9-11.4c-0.3-1.2-0.6-2.5-1-3.8
			c-1.5-4.8-2.5-6.3-6.6-7.4c-2.8-0.7-4-0.4-6.9,3c-2.5,2.9-3.2,4.9-4.3,7.9c-0.3,1-0.7,2-1.2,3.2c-0.2,0.6-0.6,1.7-1,2.9
			c-1.8,5.6-3.3,10-5.5,11.2c-0.9,0.5-2.4,0.7-4.7-0.8c-2.6-1.7-6.1-5.7-5.8-8.8c0.1-0.8,0.8-1.4,1.6-1.4c0.8,0.1,1.4,0.8,1.4,1.6
			c-0.1,1.1,1.5,3.6,3.7,5.4c1.3,1.1,2.3,1.3,2.5,1.3c1.3-0.7,3.2-6.8,4-9.4c0.4-1.3,0.8-2.4,1-3.1c0.5-1.1,0.8-2.1,1.2-3.1
			c1.1-3.1,2-5.6,4.8-8.9c3.2-3.7,5.3-5.1,9.9-4c5.4,1.4,7.1,4,8.8,9.4c0.4,1.4,0.8,2.7,1.1,4c0.9,3.5,1.6,6.5,4.4,10.3
			c3.2,4.5,5.6,5.9,10.3,6.1c1.2,0,1.6-0.2,1.7-0.3c0.6-0.7-1.3-2.8-1.9-3.5c-4.7-5.2-4.3-10.7-3.9-16c0.3-4,0.6-8.2-1.2-12.5
			c-1.9-4.6-6-8.6-10.7-10.5c-4.1-1.7-8.5-1.6-12.6,0.2c-1.6,0.7-3,1.3-4.1,1.9c-3.8,1.8-5.9,2.8-10.2,1.9c-8-1.7-15,2.2-20.9,11.7
			c-1.4,2.2-2.4,4.9-3.6,7.7c-2.4,6.1-5,12.4-11.1,15.1c-0.8,0.3-1.6,0-2-0.8c-0.3-0.8,0-1.6,0.8-2c5-2.2,7.3-7.9,9.5-13.5
			c1.1-2.8,2.3-5.7,3.8-8.1c6.7-10.7,14.8-15.1,24.1-13c3.3,0.7,4.7,0.1,8.3-1.7c1.2-0.6,2.5-1.2,4.3-1.9c4.9-2.1,10.1-2.2,14.9-0.2
			c5.4,2.2,10.1,6.8,12.3,12.1c2.1,5,1.8,9.7,1.4,13.9c-0.4,5.1-0.7,9.5,3.2,13.7c1.4,1.5,4.3,4.7,2,7.4
			C153.2,96.5,151.6,96.6,150.6,96.6z"/>
	</g>
</g>
<g>
	<g>
		<path class="st4" d="M119.1,178.6c0-5.2-0.7-10.3-1.5-15.4c-0.6-3.9-1.3-8.2-2.3-12.7c-3.4-7.2-2.3-16.8-5.7-22.6
			c-3-5.3-9.4-8.8-12.9-6.4c-0.4,0.6-0.9,1.3-1.2,2.2c-3.8,8.6-5.7,22.3-7,32.2c-1.6,12.2-4.6,22.6-9.2,35c-0.2,0.6,0.4,1.2,1,0.9
			c3.7-2.1,6.5-4.7,10.6-8c0.4-0.3,1-0.3,1.2,0.2c1.9,4,4,8.2,6.3,12c0.3,0.4,0.9,0.5,1.2,0.1c2.6-3,5.1-5.3,7.7-8.4
			c0.5-0.6,1.2-1.3,2.1-1.3c0.7,0,1.1,0.6,1.7,0.9c0.9,0.5,4.3,4,6,5.8c0.4,0.4,1.2,0.2,1.2-0.4
			C119.3,186.6,119.1,178.6,119.1,178.6z"/>
		<path class="st0" d="M98.6,119.8c-0.8,0-1.6,0.2-2.4,0.4c0,0,0.2,0.5,0.6,1.3C97.3,120.7,97.9,120.1,98.6,119.8z"/>
	</g>
	<path class="st6" d="M87.1,157.1c0,0,16,3.2,31.9,2.3l0.6,11.2c0,0-12,1.3-34.1-2.8L87.1,157.1z"/>
	<path class="st7" d="M115,157.1l0.4,15.7l4.1-0.1l-0.7-15.4L115,157.1z"/>
	<g>
		<polygon class="st9" points="113.4,143.2 113.4,143.2 113.3,143.2 		"/>
	</g>
	<path d="M99.1,197.8c-0.1,0-0.1,0-0.2,0c-0.7-0.1-1.3-0.4-1.7-1c-2.2-3.6-4.2-7.5-6-11.2c-0.7,0.6-1.3,1.1-2,1.6
		c-2.8,2.3-5.2,4.3-8.1,5.9c-0.8,0.5-1.8,0.4-2.6-0.3c-0.7-0.6-0.9-1.6-0.6-2.5l0,0c5.4-13.4,9.1-34.5,9.1-34.7
		c1.2-9.4,3.1-23.6,7.1-32.5c1.5-3.3,3.8-5.3,6.5-5.6c6.1-0.7,8.5,6.1,10,10.2l0.3,0.8c0.8,2.2,1.5,4.2,2,6.2
		c0.3,1.2,3.9,16,4.1,16.6l0.1,0.6c0.2,1,0.3,1.6,0.5,2.4l1,0c0.7,0,1.3,0.6,1.4,1.3l0.4,3.6l1,13.1c0,0.5-0.1,0.9-0.5,1.2l-0.5,0.4
		c0.1,1.1,0.2,3.1,0.2,5.1c0,0.2,0.3,7.6-0.6,13.8c-0.1,0.9-0.7,1.5-1.5,1.8c-0.8,0.3-1.7,0-2.3-0.6c-3.7-3.9-5.3-5.3-5.7-5.5
		c-0.3-0.2-0.5-0.3-0.8-0.5c-0.1-0.1-0.3-0.2-0.4-0.3c0,0-0.2,0.1-0.8,0.8c-1.4,1.7-2.9,3.2-4.2,4.7c-1.1,1.2-2.3,2.4-3.5,3.8
		C100.3,197.6,99.7,197.8,99.1,197.8z M91.5,182.1c0.2,0,0.3,0,0.5,0.1c0.7,0.2,1.2,0.6,1.5,1.2c1.7,3.6,3.6,7.4,5.7,10.9
		c1-1.1,1.9-2.1,2.9-3.1c1.3-1.4,2.7-2.9,4.1-4.5c0.5-0.6,1.6-1.9,3.3-1.8c0.9,0,1.6,0.5,2,0.8c0.1,0.1,0.2,0.2,0.4,0.3
		c0.3,0.2,1.1,0.6,5.3,5c0.6-5.5,0.4-11.6,0.4-11.7c0-2.8-0.2-5.6-0.2-5.7c0-0.5,0.1-0.9,0.5-1.2l0.5-0.4l-0.9-12.3l-0.2-2.3l-0.9,0
		c-0.7,0-1.3-0.5-1.4-1.2c-0.3-1.6-0.4-2.1-0.7-3.5l-0.1-0.5c-1-4.2-3.8-15.5-4-16.4c-0.6-2-1.2-3.9-2-6.1l-0.3-0.8
		c-1.6-4.6-3.4-8.6-6.8-8.2c-2.1,0.2-3.4,2.2-4.1,3.8c-3.8,8.5-5.6,22.5-6.9,31.8c-0.2,0.9-3.5,19.7-8.5,33.3
		c1.9-1.3,3.7-2.7,5.8-4.5c0.8-0.7,1.7-1.4,2.7-2.2C90.4,182.3,91,182.1,91.5,182.1z M79.3,190.9L79.3,190.9L79.3,190.9z"/>
</g>
<g>
	<g>
		<path class="st0" d="M101.9,119.8c2.3-2.3,5.3-1,7.8,0.6c0,0,14.6,8.7,15.4,8.2c3.4-2,11.2-4.1,12.4-9.5
			c1.4-6.1,6.5-11.5,13.1-7.3c3.7,2.4,5,6.3,3.2,10.3c-2.1,4.8-5.8,4.2-8.8,5.9c-4.8,2.8-8.3,6.8-13.5,9.2
			c-6.6,3.1-12.4,0.2-18.4-2.8c-4.7-2.4-6.5-3.5-10.6-6.8C100.2,125.7,99.9,122,101.9,119.8z"/>
		<path class="st3" d="M144.1,128.6c0,0-4.2-1.2-7.3-7.7l-5.9,5c0,0,1.4,5.1,7.2,7.5L144.1,128.6z"/>
	</g>
	<g>
		<path d="M125.7,140.2c-4.7,0-9-2.2-13.2-4.3c-4.9-2.5-6.8-3.7-10.8-7c-1.5-1.3-2.5-3.2-2.6-5.2c-0.1-1.9,0.6-3.6,1.8-4.9v0
			c1.6-1.7,4.7-2.9,9.7,0.5c5.8,3.5,12.5,7.2,14.3,7.9c0.8-0.4,1.7-0.8,2.7-1.3c3.5-1.6,7.8-3.6,8.5-7c1-4.4,3.6-8,6.9-9.4
			c1.9-0.8,4.8-1.2,8.5,1.1c4.4,2.8,5.8,7.6,3.8,12.2c-1.8,4-4.6,4.9-6.9,5.6c-0.9,0.3-1.8,0.6-2.6,1c-2,1.2-3.8,2.6-5.7,4.1
			c-2.4,1.9-4.9,3.8-7.9,5.3C130,139.8,127.8,140.2,125.7,140.2z M103,120.9c-0.6,0.7-1,1.6-0.9,2.6c0.1,1.2,0.6,2.3,1.5,3
			c3.9,3.2,5.5,4.3,10.3,6.7c5.7,2.9,11.1,5.6,17,2.8c2.7-1.3,4.9-3,7.3-4.9c1.9-1.5,3.8-3,6-4.3c1.1-0.6,2.1-1,3.2-1.3
			c2.1-0.7,3.8-1.2,5.1-4c1.5-3.3,0.5-6.4-2.7-8.4c-2-1.3-3.9-1.6-5.7-0.9c-2.3,1-4.3,3.8-5.1,7.2c-1.1,4.9-6.4,7.3-10.2,9
			c-1.1,0.5-2.1,1-2.9,1.4c-0.9,0.5-1.7,1-17-8.2C104.9,119,103.5,120.4,103,120.9L103,120.9z M125.2,127.2L125.2,127.2L125.2,127.2
			z"/>
	</g>
</g>
<g>
	<g>
		<path class="st20" d="M146.3,236.6c-3-3.5-1.9-9.6,2.7-10.8c-3.5-2.2-4.3-7.3-1.5-10.1c2.8-2.8,8.5-2.6,11.2,0.4
			c1.8-3.1,6.4-4.6,10.1-3.3c3.7,1.3,6,5.3,5.2,8.7c3.7-0.9,8.2,1.1,9.6,4.4c1.5,3.3-0.3,7.5-3.8,9c1.4,2.7,0.5,6.2-2.1,7.9
			c-2.6,1.7-6.6,1.5-9-0.5c0.5,0.4-4,1.6-4.5,1.5c-5.8-0.6-5.7-4.3-7.7-4.4C151.9,239.4,149.4,240.2,146.3,236.6z"/>
		<path d="M173.5,245.5c-1.7,0-3.5-0.4-4.9-1.3c-1.7,0.8-4.4,1.2-4.7,1.2c-4.2-0.5-5.8-2.4-6.9-3.6c-0.2-0.3-0.6-0.7-0.7-0.7
			c-0.8,0-1.5,0-2.2,0c-3.2,0-5.9,0-9-3.5l0,0c-1.9-2.2-2.6-5.3-1.7-8.2c0.5-1.7,1.5-3,2.8-3.9c-1.1-1.2-1.7-2.8-1.9-4.5
			c-0.3-2.4,0.5-4.7,2.1-6.4c1.6-1.6,4-2.5,6.6-2.4c2,0,3.9,0.7,5.4,1.7c2.6-2.7,7.1-3.8,10.8-2.5c3.7,1.3,6.2,4.8,6.3,8.4
			c3.9-0.1,7.9,2.2,9.3,5.6c1.6,3.7,0.1,8.1-3.3,10.3c0.9,3.1-0.4,6.6-3.2,8.5C177,245.1,175.3,245.5,173.5,245.5z M169.5,241.2
			c1.9,1.6,5.2,1.8,7.2,0.4c1.9-1.3,2.7-4,1.6-6c-0.2-0.4-0.2-0.8-0.1-1.2s0.4-0.7,0.8-0.9c2.7-1.2,4.1-4.5,3-7.1
			c-1.2-2.7-4.8-4.3-7.9-3.6c-0.5,0.1-1.1,0-1.4-0.4c-0.4-0.4-0.5-0.9-0.4-1.4c0.7-2.7-1.3-5.9-4.2-7c-3-1.1-6.8,0.1-8.3,2.6
			c-0.2,0.4-0.7,0.7-1.1,0.7c-0.5,0.1-0.9-0.1-1.3-0.5c-1-1.1-2.7-1.8-4.6-1.9c-1.8-0.1-3.4,0.5-4.4,1.6c-1,1-1.4,2.4-1.2,3.9
			c0.2,1.6,1.1,3.1,2.5,3.9c0.5,0.3,0.8,0.9,0.7,1.5c-0.1,0.6-0.5,1.1-1.1,1.2c-2,0.5-2.7,2.1-3,3c-0.6,1.8-0.2,3.9,1.1,5.3l0,0
			c2.2,2.5,3.7,2.4,6.7,2.4c0.7,0,1.5,0,2.3,0c1.4,0.1,2.2,1,2.9,1.8c0.9,1,1.9,2.2,4.8,2.6c0.6-0.1,2.4-0.6,3.2-0.9
			c0,0,0-0.1,0.1-0.1C167.9,240.8,168.9,240.7,169.5,241.2C169.5,241.2,169.5,241.2,169.5,241.2L169.5,241.2
			C169.5,241.2,169.5,241.2,169.5,241.2z M164.2,242.4C164.2,242.4,164.2,242.4,164.2,242.4C164.2,242.4,164.2,242.4,164.2,242.4z"
			/>
	</g>
	<g>
		<path class="st20" d="M53,253.2c-4,1.3-8.8,1.8-12.4-0.2s-5-7.4-1.6-9.8c-5.1-1.3-9.3-6-8.5-10.8c0.7-4.8,7.3-8.3,11.9-5.9
			c0.6-3.9,4.8-7.1,9.3-7c4.4,0.1,8.4,3.5,8.8,7.5c4.4-3,11.4-2.1,14.7,1.9c3.3,4,2.3,10.3-2.1,13.2c2.4,2,2.9,5.6,1.3,8.1
			c-1.6,2.5-5.3,3.8-8.5,3c-1.2,2.6-3.7,4.8-6.8,5.1c-3.1,0.3-6.4-2.1-6-4.8c0,0.8,0.4,1.7,1,2.3"/>
		<path d="M58.5,259.8c-2,0-4.1-0.9-5.5-2.3c-0.7-0.7-1.2-1.6-1.4-2.4c-3.6,0.9-8,1.2-11.8-0.9c-2.5-1.4-4.2-4-4.3-6.8
			c-0.1-1.3,0.2-2.5,0.8-3.6c-4.9-2.2-8.1-7-7.4-11.7c0.4-2.7,2.4-5.3,5.3-6.7c2.3-1.2,4.9-1.5,7.1-0.9c1.5-3.8,5.8-6.6,10.3-6.6
			c4.4,0.1,8.4,3,9.8,6.7c5-2.1,11.5-0.9,14.8,3.2c1.8,2.2,2.6,5.1,2.2,8c-0.3,2.5-1.5,4.7-3.3,6.4c1.9,2.6,2.1,6.1,0.3,8.8
			c-1.8,2.8-5.5,4.3-8.9,3.9c-1.4,2.3-4,4.6-7.4,4.9C59,259.8,58.7,259.8,58.5,259.8z M55.5,255.8c0.9,0.8,2.2,1.2,3.4,1.1
			c2.7-0.3,4.7-2.5,5.6-4.3c0.3-0.7,1-1,1.7-0.8c2.5,0.7,5.5-0.4,6.8-2.4c1.2-1.9,0.8-4.6-1-6.2c-0.4-0.3-0.5-0.8-0.5-1.2
			c0-0.5,0.3-0.9,0.7-1.2c1.8-1.2,3-3.2,3.3-5.4c0.3-2.1-0.3-4.1-1.5-5.7c-2.8-3.4-9-4.1-12.7-1.6c-0.4,0.3-1,0.3-1.5,0.1
			c-0.5-0.2-0.8-0.7-0.9-1.2c-0.3-3.2-3.7-6-7.3-6.1c-3.7-0.1-7.2,2.5-7.7,5.8c-0.1,0.5-0.4,0.9-0.8,1.1c-0.4,0.2-0.9,0.2-1.4,0
			c-1.7-0.9-4-0.8-6.1,0.3c-2,1-3.4,2.8-3.7,4.5c-0.6,3.7,2.8,7.9,7.4,9.1c0.6,0.1,1,0.6,1.1,1.2c0.1,0.6-0.1,1.2-0.6,1.5
			c-1.2,0.8-1.3,2-1.3,2.9c0.1,1.7,1.2,3.5,2.8,4.4c3.5,1.9,8,1.1,11.2,0.1c0.8-0.2,1.6,0.2,1.9,1c0.1,0.2,0.1,0.4,0.1,0.6
			c0,0,0,0,0,0.1c0,0.5,0.2,0.9,0.6,1.3C55.4,255,55.5,255.4,55.5,255.8z"/>
	</g>
	<g>
		<path class="st20" d="M31.3,215.7c-2.6,1.4-5.7,2.3-8.4,1.2c-2.7-1.1-4.3-4.9-2.3-7.1c-3.6-0.4-7-3.4-7.1-7
			c-0.1-3.6,3.9-7,7.3-5.7c-0.1-3,2.4-5.8,5.4-6.3s6.1,1.7,6.9,4.6c2.6-2.7,7.4-2.8,10.1-0.2c2.7,2.6,2.8,7.4,0.2,10.1
			c1.8,1.2,2.7,3.8,1.9,5.9c-0.8,2.1-3.1,3.5-5.3,3.2c-0.5,2-1.9,4-3.9,4.6c-2,0.6-4.6-0.8-4.7-2.9c0.1,0.6,0.5,1.2,1,1.6"/>
		<path d="M35.1,220.5c-1.2,0-2.3-0.4-3.3-1.1c-0.6-0.4-1.1-1-1.4-1.6c-2.3,1-5.3,1.6-8,0.5c-1.9-0.8-3.5-2.7-4-4.8
			c-0.2-0.9-0.2-1.8,0-2.6c-3.6-1.2-6.3-4.5-6.4-8c-0.1-2.3,1.2-4.7,3.2-6.1c1.3-1,2.8-1.4,4.3-1.4c0.7-3,3.3-5.5,6.5-6
			c3-0.4,6.1,1.1,7.7,3.7c3.3-1.9,7.8-1.6,10.6,1c1.6,1.5,2.5,3.7,2.6,6c0,1.8-0.4,3.5-1.3,4.9c1.5,1.8,2.1,4.4,1.2,6.6
			c-0.9,2.3-3.2,4-5.7,4.2c-0.9,2.2-2.6,3.9-4.6,4.5C36,220.4,35.5,220.5,35.1,220.5z M33.8,217.1c0.6,0.3,1.3,0.4,1.8,0.3
			c1.6-0.4,2.5-2.2,2.9-3.5c0.2-0.7,0.9-1.2,1.6-1.1c1.5,0.2,3.2-0.8,3.7-2.2c0.5-1.4,0-3.2-1.3-4.1c-0.4-0.2-0.6-0.6-0.7-1.1
			c0-0.4,0.1-0.9,0.4-1.2c1-1,1.5-2.5,1.5-4c0-1.5-0.6-3-1.6-3.9c-2.1-2-6-1.9-8,0.2c-0.4,0.4-0.9,0.5-1.5,0.4s-0.9-0.5-1.1-1.1
			c-0.6-2.1-3-3.8-5.2-3.4c-2.2,0.3-4.1,2.5-4.1,4.7c0,0.5-0.2,1-0.6,1.3c-0.4,0.3-0.9,0.4-1.4,0.2c-1-0.4-2.2-0.1-3.3,0.6
			c-1.2,0.9-2,2.3-2,3.6c0.1,2.7,2.7,5.2,5.8,5.6c0.6,0.1,1,0.4,1.2,1s0.1,1.1-0.3,1.5c-0.6,0.6-0.5,1.4-0.4,2
			c0.3,1.2,1.1,2.2,2.2,2.7c2.4,1,5.2-0.1,7.1-1.2c0.7-0.4,1.6-0.1,2,0.6c0.1,0.2,0.2,0.4,0.2,0.6c0,0,0,0,0,0
			c0.1,0.3,0.2,0.5,0.4,0.7C33.5,216.5,33.7,216.8,33.8,217.1z"/>
	</g>
	<path class="st19" d="M62.2,212.7c-0.7-0.5-1.8-0.4-2.5,0.3c-0.5,0.6-0.7,1.5-0.4,2.2c0.3,0.7,1,1.2,1.8,1.3c0.4,0.1,0.8,0,1.1-0.3
		c0.6-0.6,0.4-2,0.3-2.7"/>
	<path class="st19" d="M47.3,191.6c-0.4,0.4-0.7,0.9-1,1.4c0,0-0.1,0.1-0.1,0.2c0,0.1,0.1,0.1,0.1,0.2c0.3,0.3,0.6,0.5,0.9,0.8
		c0.1,0.1,0.3,0.2,0.4,0.2c0.2,0,0.3-0.2,0.4-0.3c0.3-0.5,0.6-1.1,0.6-1.8c0-0.7-0.5-0.6-1.1-0.6"/>
	<path class="st19" d="M125.9,219.8c0.2,0.8-0.1,1.8-0.3,2.6c-0.6,0.6-1.5,0.6-2.2,0.2c-0.6-0.4-1.7-1.3-1.1-3.2
		c0,0,0.3-1.4,1.6-0.9C124.1,218.4,125.6,218.4,125.9,219.8z"/>
</g>
</svg>
