<?xml version="1.0" encoding="utf-8"?>
<!-- Generator: Adobe Illustrator 26.5.0, SVG Export Plug-In . SVG Version: 6.00 Build 0)  -->
<svg version="1.1" id="레이어_1" xmlns="http://www.w3.org/2000/svg" xmlns:xlink="http://www.w3.org/1999/xlink" x="0px"
	 y="0px" viewBox="0 0 390 390" style="enable-background:new 0 0 390 390;" xml:space="preserve">
<g>
	<g>
		<path style="fill:#61CDF9;" d="M59.2,257.8c0.1,0-12.1,66.6-13.8,78.5c-0.2,1.6-0.4,3.4,0.2,4.9c1.8,4.6,15.1,5.9,19.2,5.9
			c5.2,0,15.3,0.1,21.4-2.2c1.7-0.6,2.9-2.1,3.3-3.9c0.4-1.9,0.8-4.3,0.8-6c0-3-0.1-71.5-0.1-71.5L59.2,257.8z"/>
		<path d="M65.6,348.4c-0.2,0-0.4,0-0.6,0l-0.3,0c-0.2,0-17.9-0.4-20.3-6.7c-0.7-1.8-0.5-3.6-0.2-5.5c1.2-8.6,7.9-45.7,11.5-65.7
			c1.3-7,2.2-12.5,2.3-12.8l1.2,0.2l0.2-1.2l32,6l0,1c0,0.7,0.1,68.6,0.1,71.5c0,1.4-0.3,3.5-0.8,6.2c-0.4,2.2-2,4-4,4.8
			C80.6,348.4,71.1,348.4,65.6,348.4z M60.2,259.2c-0.1,0.6-0.2,1.4-0.4,2.3c-0.4,2.3-1,5.5-1.7,9.4c-3.6,19.9-10.2,57-11.5,65.6
			c-0.2,1.6-0.4,3.1,0.1,4.3c1.3,3.4,12.5,5.2,18.1,5.2H65c5.2,0,14.9,0,20.7-2.1c1.3-0.5,2.2-1.6,2.5-3c0.5-2.5,0.8-4.5,0.8-5.8
			c0-2.7-0.1-62-0.1-70.5L60.2,259.2z"/>
	</g>
	<g>
		<path style="fill:#E2E2E2;" d="M58,346.1c0-1.6,0-3.2-0.2-4.9c-0.2-1.3-0.5-2.5-1.1-3.7c-1.1-2.1-3.3-3.6-5.4-2.9
			c-1.4,0.5-2.4,2-2.8,3.6c-0.4,1.6-0.4,3.3-0.2,5c0,0,1,1.1,4.5,2.1C56.3,346.3,58,346.1,58,346.1z"/>
		<path d="M57.4,347.3c-0.9,0-2.5-0.1-4.9-0.8c-3.6-1-4.8-2.2-5-2.4c-0.2-0.2-0.3-0.4-0.3-0.7c-0.1-1.7-0.2-3.6,0.3-5.4
			c0.6-2.2,1.9-3.8,3.5-4.4c2.8-1.1,5.6,1,6.9,3.4c0.6,1.1,1,2.4,1.2,4c0.2,1.6,0.2,3.1,0.2,4.6l0,0.5c0,0.6-0.4,1.1-1,1.2
			C58.2,347.3,57.9,347.3,57.4,347.3z M58,346.1L58,346.1L58,346.1z M49.6,342.6c0.5,0.3,1.5,0.9,3.6,1.5c1.6,0.5,2.9,0.6,3.6,0.7
			c0-1.2,0-2.3-0.2-3.5c-0.2-1.3-0.5-2.4-1-3.3c-0.8-1.5-2.4-2.8-3.8-2.3c-0.9,0.3-1.7,1.4-2,2.8C49.4,339.9,49.5,341.3,49.6,342.6z
			"/>
	</g>
	<g>
		<path style="fill:#E2E2E2;" d="M72.3,347.1c0-1.6,0-3.2,0.2-4.9c0.2-1.3,0.5-2.5,1.1-3.7c1.1-2.1,3.3-3.6,5.4-2.9
			c1.4,0.5,2.4,2,2.8,3.6c0.4,1.6,0.5,5.1,0.3,6.8c0,0-0.8,0.7-4.7,0.8C73.9,347,72.3,347.1,72.3,347.1z"/>
		<path d="M72.3,348.3c-0.3,0-0.6-0.1-0.8-0.3c-0.2-0.2-0.4-0.6-0.4-0.9l0-0.5c0-1.5,0-3,0.2-4.6c0.2-1.6,0.6-2.9,1.2-4
			c1.3-2.5,4.1-4.5,6.9-3.4c1.6,0.6,3,2.3,3.5,4.4c0.5,1.9,0.5,5.6,0.4,7.2c0,0.3-0.2,0.6-0.4,0.8c-0.4,0.3-1.6,1-5.4,1.1
			C74,348.3,72.4,348.3,72.3,348.3C72.4,348.3,72.3,348.3,72.3,348.3z M73.5,347.1L73.5,347.1L73.5,347.1z M77.8,336.7
			c-1.2,0-2.5,1.1-3.2,2.4c-0.4,0.9-0.8,2-1,3.3c-0.2,1.1-0.2,2.3-0.2,3.4c0.8,0,2.1-0.1,3.9-0.1c1.9-0.1,3-0.3,3.5-0.4
			c0.1-1.7,0-4.4-0.3-5.6c-0.4-1.4-1.1-2.4-2-2.8C78.3,336.8,78.1,336.7,77.8,336.7z"/>
	</g>
	<g>
		<path style="fill:#E2E2E2;" d="M69.7,347.1c0-1.6,0-3.2-0.2-4.9c-0.2-1.3-0.5-2.5-1.1-3.7c-1.1-2.1-3.3-3.6-5.4-2.9
			c-1.4,0.5-2.4,2-2.8,3.6s-0.5,5.6-0.4,7.3c0,0,0.5,0.3,3.9,0.6C67.6,347.4,69.7,347.1,69.7,347.1z"/>
		<path d="M66.9,348.4c-0.9,0-1.9,0-3.1-0.1c-3.8-0.3-4.3-0.6-4.5-0.7c-0.3-0.2-0.5-0.5-0.6-0.9c-0.2-1.8,0-5.9,0.4-7.7
			c0.6-2.2,1.9-3.8,3.5-4.4c2.8-1.1,5.6,1,6.9,3.4c0.6,1.1,1,2.4,1.2,4c0.2,1.6,0.2,3.1,0.2,4.6l0,0.5c0,0.6-0.4,1.1-1,1.2
			C69.9,348.3,68.8,348.4,66.9,348.4z M69.7,347.1L69.7,347.1L69.7,347.1z M61.1,345.6c0.5,0.1,1.4,0.2,2.9,0.3
			c2.1,0.2,3.6,0.1,4.6,0.1c0-1.2,0-2.4-0.2-3.6c-0.2-1.3-0.5-2.4-1-3.3c-0.8-1.5-2.4-2.8-3.8-2.3c-0.9,0.3-1.7,1.4-2,2.8
			C61.2,340.8,61,343.8,61.1,345.6z"/>
	</g>
</g>
<g>
	<g>
		<path style="fill:#61CDF9;" d="M58.8,167.7c-1-0.4-2-0.8-3.1-1.1c-9.3-2.6-19,6.3-26.2,12.3c-9.1,7.7-15.9,18.1-19.8,30.3
			c-2.4,7.3-3.5,14.9-4.8,22.6c-0.8,4.7-1.7,11.4,3.3,13.2c7.7,2.9,16,2.6,24.1,2.2c1.5-0.1,3.7,0.3,4.4-1.6
			c0.3-0.9,0.2-1.9,0.2-2.8c-0.3-5.5-0.8-11.6-0.2-17c0.6-5.5,2.7-10.7,4.9-15.6c2.6-5.8,5.8-11.7,10.3-15.9
			c4.8-4.5,10-7.9,12.3-14.7C66.3,173.4,63.5,169.8,58.8,167.7z"/>
		<path d="M24.5,248.6c-5.5,0-11.3-0.5-16.7-2.5c-6.2-2.3-4.8-10.3-4.1-14.6c0.2-0.9,0.3-1.9,0.5-2.8c1.1-6.6,2.2-13.4,4.3-19.9
			c4-12.4,11-23.1,20.2-30.8c0.4-0.4,0.9-0.8,1.4-1.2c7-5.9,16.7-14.1,26-11.4c1.2,0.3,2.3,0.7,3.2,1.2l0,0c6,2.7,8.1,7.4,6,13.4
			c-2,5.8-6,9.3-9.9,12.7c-0.9,0.8-1.9,1.6-2.8,2.5c-4.7,4.3-7.8,10.6-10,15.5c-2.1,4.7-4.2,9.9-4.8,15.2c-0.5,4.7-0.2,9.8,0.1,14.7
			c0,0.7,0.1,1.4,0.1,2c0.1,1,0.1,2.2-0.3,3.3c-0.8,2.4-3.3,2.4-4.8,2.4c0,0-0.1,0-0.1,0c-0.2,0-0.4,0-0.6,0
			C29.8,248.5,27.2,248.6,24.5,248.6z M52.3,167.3c-7.1,0-14.5,6.2-20.6,11.4c-0.5,0.4-0.9,0.8-1.4,1.2
			c-8.9,7.4-15.6,17.7-19.5,29.7c-2,6.3-3.1,12.8-4.2,19.6c-0.2,0.9-0.3,1.9-0.5,2.8c-0.8,5-1.4,10.4,2.5,11.9
			c7.6,2.8,15.7,2.5,23.6,2.1c0.2,0,0.5,0,0.8,0c0,0,0,0,0,0c1.6,0,2.3-0.1,2.5-0.8c0.2-0.6,0.2-1.5,0.1-2.3c0-0.7-0.1-1.4-0.1-2.1
			c-0.3-5.1-0.6-10.3,0-15.2c0.7-5.7,2.8-11,5-15.9c2.3-5.2,5.6-11.7,10.6-16.3c0.9-0.9,1.9-1.7,2.8-2.5c3.8-3.3,7.4-6.5,9.2-11.6
			c1.7-4.8,0.1-8.2-4.7-10.4l0,0c-0.9-0.4-1.8-0.7-2.9-1C54.4,167.5,53.3,167.3,52.3,167.3z"/>
	</g>
	<g>
		<path style="fill:#E2E2E2;" d="M14.7,246.3c0-1.4,0-2.8-0.2-4.3c-0.2-1.1-0.4-2.2-0.9-3.2c-0.9-1.8-2.9-3.2-4.7-2.5
			c-1.2,0.5-2.1,1.8-2.4,3.2s-0.3,2.9-0.2,4.3c0,0,0.9,1,3.9,1.8C13.2,246.5,14.7,246.3,14.7,246.3z"/>
		<path d="M14.1,247.5c-0.8,0-2.2-0.1-4.3-0.7c-3.2-0.9-4.3-2-4.5-2.2c-0.2-0.2-0.3-0.4-0.3-0.7c-0.1-1.5-0.2-3.2,0.2-4.8
			c0.5-1.9,1.7-3.4,3.2-4c2.5-1,5.1,0.9,6.2,3.1c0.5,1,0.9,2.2,1.1,3.6c0.2,1.4,0.2,2.7,0.2,4l0,0.4c0,0.6-0.4,1.1-1,1.2
			C14.8,247.5,14.5,247.5,14.1,247.5z M14.7,246.3L14.7,246.3L14.7,246.3z M7.4,243.2c0.4,0.3,1.3,0.8,3.1,1.3
			c1.3,0.4,2.3,0.5,3,0.6c0-1,0-1.9-0.2-2.9c-0.2-1.2-0.4-2.1-0.8-2.8c-0.6-1.3-2-2.3-3.2-1.9c-0.7,0.3-1.4,1.2-1.7,2.3
			C7.3,240.8,7.3,242,7.4,243.2z"/>
	</g>
	<g>
		<path style="fill:#E2E2E2;" d="M24.8,247.4c0-1.4,0-2.8-0.2-4.3c-0.2-1.1-0.4-2.2-0.9-3.2c-0.9-1.8-2.9-3.2-4.7-2.5
			c-1.2,0.5-2.1,1.8-2.4,3.2c-0.4,1.4-0.5,4.9-0.3,6.3c0,0,0.4,0.3,3.4,0.5C22.9,247.7,24.8,247.4,24.8,247.4z"/>
		<path d="M22.2,248.7c-0.8,0-1.7,0-2.7-0.1c-3.3-0.3-3.8-0.6-4-0.7c-0.3-0.2-0.5-0.5-0.6-0.9c-0.1-1.6,0-5.2,0.4-6.8
			c0.5-1.9,1.7-3.4,3.2-4c2.5-1,5.1,0.9,6.2,3.1c0.5,1,0.9,2.2,1.1,3.6c0.2,1.4,0.2,2.7,0.2,4l0,0.4c0,0.6-0.4,1.1-1,1.2
			C24.9,248.6,23.9,248.7,22.2,248.7z M24.8,247.4L24.8,247.4L24.8,247.4z M17.3,246c0.5,0.1,1.2,0.2,2.4,0.3c1.7,0.1,3,0.1,3.9,0.1
			c0-1,0-2-0.2-3c-0.2-1.2-0.4-2.1-0.8-2.8c-0.6-1.3-2-2.3-3.2-1.9c-0.7,0.3-1.4,1.2-1.7,2.3C17.4,241.9,17.3,244.4,17.3,246z"/>
	</g>
</g>
<g>
	<g>
		<path style="fill:#61CDF9;" d="M127,257.8c-0.1,0,12.1,66.6,13.8,78.5c0.2,1.6,0.4,3.4-0.2,4.9c-1.8,4.6-15.1,5.9-19.2,5.9
			c-5.2,0-15.3,0.1-21.4-2.2c-1.7-0.6-2.9-2.1-3.3-3.9c-0.4-1.9-0.8-4.3-0.8-6c0-3,0.1-71.5,0.1-71.5L127,257.8z"/>
		<path d="M120.6,348.4c-5.5,0-15-0.1-21-2.3c-2.1-0.8-3.6-2.6-4-4.8c-0.5-2.7-0.8-4.8-0.8-6.2c0-2.9,0.1-70.8,0.1-71.5l0-1l32-6
			l0.2,1.2l1.2-0.1c0.1,0.4,1,5.9,2.3,12.8c3.6,19.9,10.3,57,11.5,65.7c0.3,1.9,0.5,3.7-0.2,5.5c-2.5,6.3-20.2,6.7-20.3,6.7l-0.3,0
			C120.9,348.4,120.7,348.4,120.6,348.4z M97.2,264.6c0,8.5-0.1,67.7-0.1,70.5c0,1.2,0.3,3.2,0.8,5.8c0.3,1.4,1.2,2.5,2.5,3
			c5.8,2.1,15.5,2.1,20.7,2.1h0.3c5.6,0,16.7-1.8,18.1-5.2c0.5-1.2,0.3-2.7,0.1-4.3c-1.2-8.6-7.9-45.7-11.5-65.6
			c-0.7-3.9-1.3-7.1-1.7-9.4c-0.2-1-0.3-1.8-0.4-2.3L97.2,264.6z"/>
	</g>
	<g>
		<path style="fill:#E2E2E2;" d="M128.1,346.1c0-1.6,0-3.2,0.2-4.9c0.2-1.3,0.5-2.5,1.1-3.7c1.1-2.1,3.3-3.6,5.4-2.9
			c1.4,0.5,2.4,2,2.8,3.6c0.4,1.6,0.4,3.3,0.2,5c0,0-1,1.1-4.5,2.1C129.8,346.3,128.1,346.1,128.1,346.1z"/>
		<path d="M128.8,347.3c-0.5,0-0.8,0-0.8,0c-0.6-0.1-1-0.6-1-1.2l0-0.5c0-1.5,0-3,0.2-4.6c0.2-1.6,0.6-2.9,1.2-4
			c1.3-2.5,4.1-4.5,6.9-3.4c1.6,0.6,3,2.3,3.5,4.4c0.5,1.8,0.4,3.7,0.3,5.4c0,0.3-0.1,0.5-0.3,0.7c-0.2,0.2-1.4,1.4-5,2.4
			C131.3,347.2,129.7,347.3,128.8,347.3z M129.3,346.1L129.3,346.1L129.3,346.1z M128.1,346.1L128.1,346.1L128.1,346.1z
			 M133.6,335.7c-1.2,0-2.5,1.1-3.2,2.4c-0.4,0.9-0.8,2-1,3.3c-0.2,1.2-0.2,2.3-0.2,3.5c0.8-0.1,2-0.2,3.6-0.7
			c2.1-0.6,3.2-1.2,3.6-1.5c0.1-1.4,0.1-2.8-0.2-4c-0.4-1.4-1.1-2.4-2-2.8C134.1,335.7,133.9,335.7,133.6,335.7z"/>
	</g>
	<g>
		<path style="fill:#E2E2E2;" d="M113.8,347.1c0-1.6,0-3.2-0.2-4.9c-0.2-1.3-0.5-2.5-1.1-3.7c-1.1-2.1-3.3-3.6-5.4-2.9
			c-1.4,0.5-2.4,2-2.8,3.6c-0.4,1.6-0.5,5.1-0.3,6.8c0,0,0.8,0.7,4.7,0.8C112.2,347,113.8,347.1,113.8,347.1z"/>
		<path d="M113.8,348.3C113.8,348.3,113.8,348.3,113.8,348.3c-0.1,0-1.7-0.1-5.2-0.2c-3.8-0.1-5.1-0.8-5.4-1.1
			c-0.2-0.2-0.4-0.5-0.4-0.8c-0.1-1.6-0.1-5.3,0.4-7.2c0.6-2.2,1.9-3.8,3.5-4.4c2.8-1.1,5.6,1,6.9,3.4c0.6,1.1,1,2.4,1.2,4
			c0.2,1.6,0.2,3.1,0.2,4.6l0,0.5c0,0.3-0.1,0.7-0.4,0.9C114.4,348.2,114.1,348.3,113.8,348.3z M105.2,345.3
			c0.5,0.2,1.6,0.4,3.5,0.4c1.7,0.1,3,0.1,3.9,0.1c0-1.2,0-2.3-0.2-3.4c-0.2-1.3-0.5-2.4-1-3.3c-0.8-1.5-2.4-2.8-3.8-2.3
			c-0.9,0.3-1.7,1.4-2,2.8C105.2,340.9,105.2,343.6,105.2,345.3z"/>
	</g>
	<g>
		<path style="fill:#E2E2E2;" d="M116.4,347.1c0-1.6,0-3.2,0.2-4.9c0.2-1.3,0.5-2.5,1.1-3.7c1.1-2.1,3.3-3.6,5.4-2.9
			c1.4,0.5,2.4,2,2.8,3.6s0.5,5.6,0.4,7.3c0,0-0.5,0.3-3.9,0.6C118.5,347.4,116.4,347.1,116.4,347.1z"/>
		<path d="M119.3,348.4c-1.9,0-3-0.2-3.1-0.2c-0.6-0.1-1-0.6-1-1.2l0-0.5c0-1.5,0-3,0.2-4.6c0.2-1.6,0.6-2.9,1.2-4
			c1.3-2.5,4.1-4.5,6.9-3.4c1.6,0.6,3,2.3,3.5,4.4c0.5,1.7,0.6,5.9,0.4,7.7c0,0.4-0.2,0.7-0.6,0.9c-0.2,0.1-0.7,0.5-4.5,0.7
			C121.2,348.4,120.2,348.4,119.3,348.4z M117.6,347.1L117.6,347.1L117.6,347.1z M116.4,347.1L116.4,347.1L116.4,347.1z M117.6,346
			c0.9,0.1,2.5,0.1,4.6-0.1c1.5-0.1,2.3-0.2,2.9-0.3c0-1.8-0.1-4.8-0.4-6c-0.4-1.4-1.1-2.4-2-2.8c-1.4-0.5-3.1,0.7-3.8,2.3
			c-0.4,0.9-0.8,2-1,3.3C117.6,343.6,117.6,344.7,117.6,346z"/>
	</g>
</g>
<g>
	<g>
		<path style="fill:#61CDF9;" d="M124.4,167.7c1-0.4,2-0.8,3.1-1.1c9.3-2.6,19,6.3,26.2,12.3c9.1,7.7,15.9,18.1,19.8,30.3
			c2.4,7.3,3.5,14.9,4.8,22.6c0.8,4.7,1.7,11.4-3.3,13.2c-7.7,2.9-16,2.6-24.1,2.2c-1.5-0.1-3.7,0.3-4.4-1.6
			c-0.3-0.9-0.2-1.9-0.2-2.8c0.3-5.5,0.8-11.6,0.2-17c-0.6-5.5-2.7-10.7-4.9-15.6c-2.6-5.8-5.8-11.7-10.3-15.9
			c-4.8-4.5-10-7.9-12.3-14.7C116.9,173.4,119.8,169.8,124.4,167.7z"/>
		<path d="M158.7,248.6c-2.7,0-5.3-0.1-7.9-0.2c-0.2,0-0.4,0-0.7,0c0,0,0,0,0,0c-1.5,0-3.9,0-4.8-2.4c-0.4-1.1-0.3-2.2-0.3-3.3
			c0-0.7,0.1-1.4,0.1-2.1c0.3-5,0.6-10.1,0.1-14.8c-0.6-5-2.3-9.7-4.8-15.2c-2.2-4.9-5.3-11.2-10-15.5c-0.9-0.9-1.9-1.7-2.8-2.5
			c-3.9-3.4-7.9-6.9-9.9-12.7c-2.1-6.1,0-10.7,6-13.4c1-0.4,2.1-0.8,3.2-1.2c9.3-2.6,18.9,5.5,26,11.4c0.5,0.4,0.9,0.8,1.4,1.2
			c9.2,7.7,16.2,18.4,20.2,30.8c2.1,6.5,3.2,13.3,4.3,19.9c0.2,0.9,0.3,1.9,0.5,2.8c0.7,4.3,2.1,12.3-4.1,14.6
			C170,248.2,164.3,248.6,158.7,248.6z M150.2,246c0.3,0,0.5,0,0.7,0c7.9,0.3,16,0.7,23.6-2.1c4-1.5,3.4-6.9,2.5-11.9
			c-0.2-0.9-0.3-1.9-0.5-2.8c-1.1-6.8-2.2-13.2-4.2-19.6c-3.9-12-10.6-22.3-19.5-29.7c-0.5-0.4-0.9-0.8-1.4-1.2
			c-7-5.9-15.7-13.2-23.7-10.9c-1.1,0.3-2,0.7-2.9,1l0,0c-4.8,2.2-6.4,5.6-4.7,10.4c1.8,5.1,5.4,8.3,9.2,11.6
			c0.9,0.8,1.9,1.7,2.8,2.5c5,4.6,8.3,11.2,10.6,16.3c2.2,4.9,4.3,10.3,5,15.9c0.6,4.9,0.3,10.1,0,15.2c0,0.7-0.1,1.4-0.1,2
			c0,0.9-0.1,1.7,0.1,2.3C147.9,245.9,148.6,246,150.2,246C150.2,246,150.2,246,150.2,246z"/>
	</g>
	<g>
		<path style="fill:#E2E2E2;" d="M168.6,246.3c0-1.4,0-2.8,0.2-4.3c0.2-1.1,0.4-2.2,0.9-3.2c0.9-1.8,2.9-3.2,4.7-2.5
			c1.2,0.5,2.1,1.8,2.4,3.2s0.3,2.9,0.2,4.3c0,0-0.9,1-3.9,1.8C170.1,246.5,168.6,246.3,168.6,246.3z"/>
		<path d="M169.1,247.5c-0.4,0-0.7,0-0.8,0c-0.6-0.1-1-0.6-1-1.2l0-0.4c0-1.3,0-2.6,0.2-4c0.2-1.4,0.6-2.6,1.1-3.6
			c1.1-2.2,3.7-4.1,6.2-3.1c1.5,0.6,2.7,2.1,3.2,4c0.4,1.6,0.4,3.2,0.2,4.8c0,0.3-0.1,0.5-0.3,0.7c-0.2,0.2-1.3,1.3-4.5,2.2
			C171.4,247.4,169.9,247.5,169.1,247.5z M169.8,246.3L169.8,246.3L169.8,246.3z M168.6,246.3L168.6,246.3L168.6,246.3z
			 M173.4,237.3c-1,0-2.1,0.9-2.6,2c-0.4,0.8-0.7,1.7-0.8,2.8c-0.1,1-0.2,1.9-0.2,2.9c0.7-0.1,1.7-0.2,3-0.6c1.7-0.5,2.6-1,3.1-1.3
			c0.1-1.2,0.1-2.3-0.2-3.4c-0.3-1.1-1-2.1-1.7-2.3C173.8,237.3,173.6,237.3,173.4,237.3z"/>
	</g>
	<g>
		<path style="fill:#E2E2E2;" d="M158.5,247.4c0-1.4,0-2.8,0.2-4.3c0.2-1.1,0.4-2.2,0.9-3.2c0.9-1.8,2.9-3.2,4.7-2.5
			c1.2,0.5,2.1,1.8,2.4,3.2c0.4,1.4,0.5,4.9,0.3,6.3c0,0-0.4,0.3-3.4,0.5C160.3,247.7,158.5,247.4,158.5,247.4z"/>
		<path d="M161,248.7c-1.7,0-2.7-0.1-2.7-0.1c-0.6-0.1-1-0.6-1-1.2l0-0.4c0-1.3,0-2.6,0.2-4c0.2-1.4,0.6-2.6,1.1-3.6
			c1.1-2.2,3.7-4.1,6.2-3.1c1.5,0.6,2.7,2.1,3.2,4c0.4,1.6,0.5,5.2,0.4,6.8c0,0.4-0.2,0.7-0.6,0.9c-0.2,0.1-0.7,0.4-4,0.7
			C162.7,248.7,161.8,248.7,161,248.7z M159.7,247.4L159.7,247.4L159.7,247.4z M158.5,247.4L158.5,247.4L158.5,247.4z M159.7,246.3
			c0.8,0,2.1,0.1,3.9-0.1c1.2-0.1,1.9-0.2,2.4-0.3c0-1.6-0.1-4.1-0.4-5.1c-0.3-1.1-1-2.1-1.7-2.3c-1.1-0.4-2.5,0.7-3.2,1.9
			c-0.4,0.8-0.7,1.7-0.8,2.8C159.7,244.3,159.7,245.3,159.7,246.3z M166.6,245.8L166.6,245.8L166.6,245.8z"/>
	</g>
</g>
<g>
	<g>
		<path style="fill:#242424;" d="M151.3,212.8c-4.3-18.4-6.9-20.7-11.4-46.9c-3.8-22.1-25.3-29.1-25.3-29.1c-16.7-3.8-43,0-43,0
			s-22.1,6.9-25.3,29.1c-3.2,22.3-7.1,28.5-11.4,46.9c-4.3,18.4,2,70.4,58.2,70.4S155.6,231.2,151.3,212.8z"/>
		<path d="M93.1,284.4c-20.7,0-36.6-6.8-47.3-20.4c-13.6-17.2-14.6-40.7-12.1-51.5c1.6-6.8,3.1-11.9,4.6-16.8
			c2.4-8.2,4.8-15.9,6.8-30c3.3-22.7,25.9-30,26.1-30l0.2,0c0.1,0,6.7-1,15.4-1.4c11.6-0.6,21.1-0.1,28.1,1.4l0.1,0
			c0.2,0.1,22.2,7.5,26.1,30c2.8,16.5,4.9,23.5,7.1,30.9c1.3,4.4,2.7,9,4.3,15.9c2.5,10.8,1.5,34.3-12.1,51.5
			C129.7,277.5,113.8,284.4,93.1,284.4z M71.8,138.1c-1.5,0.5-21.4,7.6-24.4,28c-2,14.2-4.4,22-6.9,30.3c-1.5,4.9-3,9.9-4.5,16.7
			c-2.4,10.4-1.4,32.9,11.6,49.4c10.2,12.9,25.5,19.4,45.4,19.4s35.2-6.5,45.4-19.4c13.1-16.5,14.1-39.1,11.6-49.4l0,0
			c-1.6-6.7-2.9-11.3-4.2-15.7c-2.2-7.5-4.3-14.6-7.2-31.2c-3.5-20.6-23.3-27.7-24.4-28.1C98.5,134.5,73.6,137.8,71.8,138.1z"/>
	</g>
	<g>
		<g>
			<path style="fill:#D8D8D8;" d="M67.2,195.3c-1.5,1.6-1.6,3.9-0.4,5.6c-1.8-1.1-4.1-0.8-5.6,0.8c-1.7,1.8-1.6,4.6,0.2,6.3
				c1.8,1.7,4.6,1.6,6.3-0.2c0.1-0.1,0.2-0.3,0.3-0.4l14.9,14l4.9-5.2l-15-14c0.3-0.2,0.6-0.4,0.8-0.7c1.7-1.8,1.6-4.6-0.2-6.3
				C71.8,193.4,68.9,193.5,67.2,195.3z"/>
			<path d="M83,222.6c-0.3,0-0.6-0.1-0.8-0.3l-14-13.1c-1,0.8-2.2,1.3-3.4,1.3c-1.5,0-3-0.5-4.1-1.5c-2.3-2.1-2.4-5.8-0.3-8
				c1.2-1.3,2.9-1.9,4.5-1.8c-0.2-1.6,0.3-3.3,1.5-4.6c0,0,0,0,0,0c2.1-2.3,5.8-2.4,8-0.3c1.1,1,1.7,2.4,1.8,4c0,1.5-0.5,2.9-1.4,4
				l14,13.1c0.5,0.5,0.5,1.2,0.1,1.7l-4.9,5.2C83.7,222.4,83.4,222.6,83,222.6C83,222.6,83,222.6,83,222.6z M68.1,206.2
				c0.3,0,0.6,0.1,0.8,0.3l14,13.1l3.2-3.5L72.1,203c-0.3-0.3-0.4-0.6-0.4-1c0-0.4,0.2-0.7,0.6-0.9c0.3-0.2,0.5-0.3,0.6-0.5
				c0.6-0.6,0.9-1.5,0.9-2.3c0-0.9-0.4-1.7-1-2.3c-0.6-0.6-1.5-0.9-2.3-0.9c-0.9,0-1.7,0.4-2.3,1c-1,1.1-1.2,2.8-0.3,4.1
				c0.3,0.5,0.3,1.1-0.1,1.5c-0.4,0.4-1,0.5-1.5,0.2c-1.3-0.8-3-0.6-4.1,0.6c-1.2,1.3-1.2,3.4,0.1,4.6c0.6,0.6,1.5,0.9,2.3,0.9
				c0.9,0,1.7-0.4,2.3-1c0,0,0.1-0.1,0.1-0.1l0.1-0.1c0.2-0.3,0.5-0.5,0.9-0.5C68,206.2,68,206.2,68.1,206.2z"/>
		</g>
		<g>
			<path style="fill:#D8D8D8;" d="M118.9,195.3c1.5,1.6,1.6,3.9,0.4,5.6c1.8-1.1,4.1-0.8,5.6,0.8c1.7,1.8,1.6,4.6-0.2,6.3
				c-1.8,1.7-4.6,1.6-6.3-0.2c-0.1-0.1-0.2-0.3-0.3-0.4l-14.9,14l-4.9-5.2l15-14c-0.3-0.2-0.6-0.4-0.8-0.7c-1.7-1.8-1.6-4.6,0.2-6.3
				C114.4,193.4,117.2,193.5,118.9,195.3z"/>
			<path d="M103.2,222.6C103.1,222.6,103.1,222.6,103.2,222.6c-0.4,0-0.7-0.1-0.9-0.4l-4.9-5.2c-0.5-0.5-0.4-1.3,0.1-1.7l14-13.1
				c-1-1.1-1.5-2.5-1.4-4c0-1.5,0.7-2.9,1.8-4c1.1-1,2.6-1.6,4.1-1.5c1.5,0,2.9,0.7,4,1.8l0,0c1.2,1.3,1.7,3,1.5,4.6
				c1.6-0.1,3.3,0.5,4.5,1.8c2.1,2.3,2,5.9-0.3,8c-1.1,1-2.6,1.6-4.1,1.5c-1.3,0-2.5-0.5-3.4-1.3l-14,13.1
				C103.8,222.5,103.5,222.6,103.2,222.6z M100,216.2l3.2,3.5l14-13.1c0.3-0.2,0.6-0.4,0.9-0.3c0.3,0,0.7,0.2,0.9,0.5l0.1,0.1
				c0,0.1,0.1,0.1,0.1,0.1c0.6,0.6,1.4,1,2.3,1c0.9,0,1.7-0.3,2.3-0.9c1.3-1.2,1.4-3.3,0.1-4.6c-1-1.1-2.8-1.3-4.1-0.6
				c-0.5,0.3-1.1,0.2-1.5-0.2c-0.4-0.4-0.4-1.1-0.1-1.5c0.9-1.3,0.8-3-0.3-4.1c0,0,0,0,0,0c-0.6-0.6-1.4-1-2.3-1
				c-0.9,0-1.7,0.3-2.3,0.9c-0.6,0.6-1,1.4-1,2.3c0,0.9,0.3,1.7,0.9,2.3c0.2,0.2,0.4,0.3,0.6,0.5c0.3,0.2,0.5,0.5,0.6,0.9
				s-0.1,0.7-0.4,1L100,216.2z"/>
		</g>
		<g>
			<path style="fill:#D8D8D8;" d="M67.2,253c-1.5-1.6-1.6-3.9-0.4-5.6c-1.8,1.1-4.1,0.8-5.6-0.8c-1.7-1.8-1.6-4.6,0.2-6.3
				c1.8-1.7,4.6-1.6,6.3,0.2c0.1,0.1,0.2,0.3,0.3,0.4L83,227l4.9,5.2l-15,14c0.3,0.2,0.6,0.4,0.8,0.7c1.7,1.8,1.6,4.6-0.2,6.3
				C71.8,254.9,68.9,254.8,67.2,253z"/>
			<path d="M70.5,255.7c-1.5,0-3-0.6-4.2-1.8c0,0,0,0,0,0c-1.2-1.3-1.7-3-1.5-4.6c-1.6,0.1-3.3-0.5-4.5-1.8c-2.1-2.3-2-5.9,0.3-8
				c1.1-1,2.6-1.6,4.1-1.5c1.3,0,2.5,0.5,3.4,1.3l14-13.1c0.2-0.2,0.5-0.3,0.9-0.3c0.3,0,0.6,0.1,0.8,0.4l4.9,5.2
				c0.5,0.5,0.4,1.3-0.1,1.7l-14,13.1c1,1.1,1.5,2.5,1.4,4c0,1.5-0.7,2.9-1.8,4C73.3,255.2,71.9,255.7,70.5,255.7z M68.1,252.2
				c0.6,0.6,1.4,1,2.3,1c0.9,0,1.7-0.3,2.3-0.9c0.6-0.6,1-1.4,1-2.3c0-0.9-0.3-1.7-0.9-2.3c-0.2-0.2-0.4-0.3-0.6-0.5
				c-0.3-0.2-0.5-0.5-0.6-0.9c0-0.4,0.1-0.7,0.4-1l14.1-13.2l-3.2-3.5l-14,13.1c-0.3,0.2-0.6,0.4-0.9,0.3c-0.3,0-0.7-0.2-0.9-0.5
				l-0.1-0.1c0-0.1-0.1-0.1-0.1-0.1c-0.6-0.6-1.4-1-2.3-1c-0.9,0-1.7,0.3-2.3,0.9c-1.3,1.2-1.4,3.3-0.1,4.6c1,1.1,2.8,1.3,4.1,0.6
				c0.5-0.3,1.1-0.2,1.5,0.2c0.4,0.4,0.4,1.1,0.1,1.5C67,249.4,67.1,251.1,68.1,252.2L68.1,252.2z"/>
		</g>
		<g>
			<path style="fill:#D8D8D8;" d="M118.9,253c1.5-1.6,1.6-3.9,0.4-5.6c1.8,1.1,4.1,0.8,5.6-0.8c1.7-1.8,1.6-4.6-0.2-6.3
				c-1.8-1.7-4.6-1.6-6.3,0.2c-0.1,0.1-0.2,0.3-0.3,0.4l-14.9-14l-4.9,5.2l15,14c-0.3,0.2-0.6,0.4-0.8,0.7c-1.7,1.8-1.6,4.6,0.2,6.3
				C114.4,254.9,117.2,254.8,118.9,253z"/>
			<path d="M115.7,255.7c-1.4,0-2.8-0.5-3.9-1.5c-1.1-1-1.7-2.4-1.8-4c0-1.5,0.5-2.9,1.4-4l-14-13.1c-0.5-0.5-0.5-1.2-0.1-1.7
				l4.9-5.2c0.2-0.2,0.5-0.4,0.9-0.4c0.3,0,0.6,0.1,0.9,0.3l14,13.1c1-0.8,2.2-1.3,3.4-1.3c1.5,0,3,0.5,4.1,1.5
				c2.3,2.1,2.4,5.8,0.3,8c-1.2,1.3-2.8,1.9-4.5,1.8c0.2,1.6-0.3,3.3-1.5,4.6c-1,1.1-2.4,1.7-4,1.8
				C115.8,255.7,115.7,255.7,115.7,255.7z M100,232.1l14.1,13.2c0.3,0.3,0.4,0.6,0.4,1c0,0.4-0.2,0.7-0.6,0.9
				c-0.3,0.2-0.5,0.3-0.6,0.5c-0.6,0.6-0.9,1.5-0.9,2.3c0,0.9,0.4,1.7,1,2.3c0.6,0.6,1.5,0.9,2.3,0.9c0.9,0,1.7-0.4,2.3-1
				c0,0,0,0,0,0c1-1.1,1.2-2.8,0.3-4.1c-0.3-0.5-0.3-1.1,0.1-1.5c0.4-0.4,1-0.5,1.5-0.2c1.3,0.8,3,0.6,4.1-0.6
				c1.2-1.3,1.2-3.4-0.1-4.6c-0.6-0.6-1.5-0.9-2.3-0.9c-0.9,0-1.7,0.4-2.3,1c0,0-0.1,0.1-0.1,0.1l-0.1,0.1c-0.2,0.3-0.5,0.5-0.9,0.5
				c-0.3,0-0.7-0.1-0.9-0.3l-14-13.1L100,232.1z"/>
		</g>
		<g>
			<path style="fill:#D8D8D8;" d="M108.6,235.2c0,8.5-6.9,15.3-15.5,15.3s-15.5-6.9-15.5-15.3v-8h31V235.2z"/>
			<path d="M93.1,251.7c-9.2,0-16.7-7.4-16.7-16.5v-8c0-0.7,0.5-1.2,1.2-1.2h31c0.7,0,1.2,0.5,1.2,1.2v8
				C109.8,244.3,102.3,251.7,93.1,251.7z M78.8,228.3v6.8c0,7.8,6.4,14.1,14.3,14.1s14.3-6.3,14.3-14.1v-6.8H78.8z"/>
		</g>
		<g>
			<path style="fill:#D8D8D8;" d="M76,218.1c0-9.3,7.7-16.9,17.1-16.9s17.1,7.6,17.1,16.9v8.9H76V218.1z"/>
			<path d="M110.2,228.2H76c-0.7,0-1.2-0.5-1.2-1.2v-8.9c0-10,8.2-18.1,18.3-18.1s18.3,8.1,18.3,18.1v8.9
				C111.4,227.6,110.9,228.2,110.2,228.2z M77.2,225.7H109v-7.6c0-8.6-7.1-15.7-15.9-15.7s-15.9,7-15.9,15.7V225.7z"/>
		</g>
		<g>
			<g>
				<path style="fill:#E2E2E2;" d="M85.4,244.6L85.4,244.6c-1.4,0-2.5-1.1-2.5-2.5v-0.7c0-1.4,1.1-2.5,2.5-2.5h0
					c1.4,0,2.5,1.1,2.5,2.5v0.7C87.9,243.5,86.8,244.6,85.4,244.6z"/>
				<path d="M86.4,245.8h-2.1c-1.5,0-2.7-1.2-2.7-2.7v-2.8c0-1.5,1.2-2.7,2.7-2.7h2.1c1.5,0,2.7,1.2,2.7,2.7v2.8
					C89.1,244.6,87.9,245.8,86.4,245.8z M84.3,240c-0.2,0-0.3,0.1-0.3,0.3v2.8c0,0.2,0.1,0.3,0.3,0.3h2.1c0.2,0,0.3-0.1,0.3-0.3
					v-2.8c0-0.2-0.1-0.3-0.3-0.3H84.3z"/>
			</g>
			<g>
				<path style="fill:#E2E2E2;" d="M100.8,244.6L100.8,244.6c-1.4,0-2.5-1.1-2.5-2.5v-0.7c0-1.4,1.1-2.5,2.5-2.5l0,0
					c1.4,0,2.5,1.1,2.5,2.5v0.7C103.3,243.5,102.2,244.6,100.8,244.6z"/>
				<path d="M101.8,245.8h-2.1c-1.5,0-2.7-1.2-2.7-2.7v-2.8c0-1.5,1.2-2.7,2.7-2.7h2.1c1.5,0,2.7,1.2,2.7,2.7v2.8
					C104.6,244.6,103.3,245.8,101.8,245.8z M99.8,240c-0.2,0-0.3,0.1-0.3,0.3v2.8c0,0.2,0.1,0.3,0.3,0.3h2.1c0.2,0,0.3-0.1,0.3-0.3
					v-2.8c0-0.2-0.1-0.3-0.3-0.3H99.8z"/>
			</g>
		</g>
		<g>
			<path style="fill:#D8D8D8;" d="M115.7,230.4c0,9-10.1,10.8-22.7,10.8s-22.7-1.8-22.7-10.8c0-9,10.1-16.4,22.7-16.4
				S115.7,221.4,115.7,230.4z"/>
			<path d="M93.1,242.5c-7.5,0-12.7-0.7-16.5-2.1c-4.9-1.9-7.4-5.2-7.4-9.9c0-9.7,10.7-17.6,23.9-17.6s23.9,7.9,23.9,17.6
				C117,241.1,104.2,242.5,93.1,242.5z M93.1,215.3c-11.8,0-21.5,6.8-21.5,15.1c0,6.7,6.4,9.6,21.5,9.6s21.5-2.9,21.5-9.6
				C114.5,222.1,104.9,215.3,93.1,215.3z"/>
		</g>
		<circle cx="82.8" cy="219.3" r="1.4"/>
		<circle cx="103.3" cy="219.3" r="1.4"/>
		<ellipse transform="matrix(0.5 -0.866 0.866 0.5 -140.2979 179.7721)" cx="85.5" cy="211.4" rx="3.6" ry="4.3"/>
		<ellipse transform="matrix(0.866 -0.5 0.5 0.866 -92.214 78.628)" cx="100.6" cy="211.4" rx="4.3" ry="3.6"/>
	</g>
</g>
<g>
	<g>
		<g>
			<path style="fill:#DAACD6;" d="M345.9,257.8c-0.1,0,6,66.6,7.7,78.5c0.2,1.6,0.4,3.4-0.2,4.9c-1.8,4.6-15.1,5.9-19.2,5.9
				c-5.2,0-15.3,0.1-21.4-2.2c-1.7-0.6-2.9-2.1-3.3-3.9c-0.4-1.9-0.8-4.3-0.8-6c0-3,0.1-71.5,0.1-71.5L345.9,257.8z"/>
			<path d="M333.4,348.4c-5.5,0-15-0.1-21-2.3c-2.1-0.8-3.6-2.6-4-4.8c-0.4-1.9-0.8-4.5-0.8-6.2c0-2.9,0.1-70.8,0.1-71.5l0-1l38.1-6
				l0.2,1.2l1.2,0c0,0.4,5.9,66,7.7,78.4c0.3,1.9,0.5,3.7-0.2,5.5c-2.5,6.3-20.2,6.7-20.3,6.7l-0.3,0
				C333.8,348.4,333.6,348.4,333.4,348.4z M310.1,264.7c0,8.6-0.1,67.7-0.1,70.4c0,1.2,0.3,3.2,0.8,5.8c0.3,1.4,1.2,2.5,2.5,3
				c5.8,2.1,15.5,2.1,20.7,2.1h0.3c5.6,0,16.7-1.8,18.1-5.2c0.5-1.2,0.3-2.7,0.1-4.3c-0.9-6.3-3-27.3-4.5-43.8
				c-1-10.8-1.8-19.8-2.2-24.2c-0.3-3.2-0.5-5.9-0.7-7.7c-0.1-0.6-0.1-1.2-0.1-1.6L310.1,264.7z"/>
		</g>
		<g>
			<path style="fill:#E2E2E2;" d="M341,346.1c0-1.6,0-3.2,0.2-4.9c0.2-1.3,0.5-2.5,1.1-3.7c1.1-2.1,3.3-3.6,5.4-2.9
				c1.4,0.5,2.4,2,2.8,3.6c0.4,1.6,0.4,3.3,0.2,5c0,0-1,1.1-4.5,2.1C342.7,346.3,341,346.1,341,346.1z"/>
			<path d="M341.6,347.3c-0.5,0-0.8,0-0.8,0c-0.6-0.1-1-0.6-1-1.2l0-0.5c0-1.5,0-3,0.2-4.6c0.2-1.6,0.6-2.9,1.2-4
				c1.3-2.5,4.1-4.5,6.9-3.4c1.6,0.6,3,2.3,3.5,4.4c0.5,1.8,0.4,3.7,0.3,5.4c0,0.3-0.1,0.5-0.3,0.7c-0.2,0.2-1.4,1.4-5,2.4
				C344.1,347.2,342.5,347.3,341.6,347.3z M342.2,346.1L342.2,346.1L342.2,346.1z M341,346.1L341,346.1L341,346.1z M346.5,335.7
				c-1.2,0-2.5,1.1-3.2,2.4c-0.4,0.9-0.8,2-1,3.3c-0.2,1.2-0.2,2.3-0.2,3.5c0.8-0.1,2-0.2,3.6-0.7c2.1-0.6,3.2-1.2,3.6-1.5
				c0.1-1.4,0.1-2.8-0.2-4c-0.4-1.4-1.1-2.4-2-2.8C347,335.7,346.7,335.7,346.5,335.7z"/>
		</g>
		<g>
			<path style="fill:#E2E2E2;" d="M326.7,347.1c0-1.6,0-3.2-0.2-4.9c-0.2-1.3-0.5-2.5-1.1-3.7c-1.1-2.1-3.3-3.6-5.4-2.9
				c-1.4,0.5-2.4,2-2.8,3.6c-0.4,1.6-0.5,5.1-0.3,6.8c0,0,0.8,0.7,4.7,0.8C325.1,347,326.7,347.1,326.7,347.1z"/>
			<path d="M326.7,348.3C326.7,348.3,326.6,348.3,326.7,348.3c-0.1,0-1.7-0.1-5.2-0.2c-3.8-0.1-5.1-0.8-5.4-1.1
				c-0.2-0.2-0.4-0.5-0.4-0.8c-0.1-1.6-0.1-5.3,0.4-7.2c0.6-2.2,1.9-3.8,3.5-4.4c2.8-1.1,5.6,1,6.9,3.4c0.6,1.1,1,2.4,1.2,4
				c0.2,1.6,0.2,3.1,0.2,4.6l0,0.5c0,0.3-0.1,0.7-0.4,0.9C327.3,348.2,327,348.3,326.7,348.3z M318.1,345.3c0.5,0.2,1.6,0.4,3.5,0.4
				c1.7,0.1,3,0.1,3.9,0.1c0-1.2,0-2.3-0.2-3.4c-0.2-1.3-0.5-2.4-1-3.3c-0.8-1.5-2.4-2.8-3.8-2.3c-0.9,0.3-1.7,1.4-2,2.8
				C318.1,340.9,318,343.6,318.1,345.3z"/>
		</g>
		<g>
			<path style="fill:#E2E2E2;" d="M329.3,347.1c0-1.6,0-3.2,0.2-4.9c0.2-1.3,0.5-2.5,1.1-3.7c1.1-2.1,3.3-3.6,5.4-2.9
				c1.4,0.5,2.4,2,2.8,3.6c0.4,1.6,0.5,5.6,0.4,7.3c0,0-0.5,0.3-3.9,0.6C331.4,347.4,329.3,347.1,329.3,347.1z"/>
			<path d="M332.1,348.4c-1.9,0-3-0.2-3.1-0.2c-0.6-0.1-1-0.6-1-1.2l0-0.5c0-1.5,0-3,0.2-4.6c0.2-1.6,0.6-2.9,1.2-4
				c1.3-2.5,4.1-4.5,6.9-3.4c1.6,0.6,3,2.3,3.5,4.4c0.5,1.7,0.6,5.9,0.4,7.7c0,0.4-0.2,0.7-0.6,0.9c-0.2,0.1-0.7,0.5-4.5,0.7
				C334.1,348.4,333,348.4,332.1,348.4z M330.5,347.1L330.5,347.1L330.5,347.1z M329.3,347.1L329.3,347.1L329.3,347.1z M330.5,346
				c0.9,0.1,2.5,0.1,4.6-0.1c1.5-0.1,2.3-0.2,2.9-0.3c0-1.8-0.1-4.8-0.4-6c-0.4-1.4-1.1-2.4-2-2.8c-1.4-0.5-3.1,0.7-3.8,2.3
				c-0.4,0.9-0.8,2-1,3.3C330.5,343.6,330.5,344.7,330.5,346z"/>
		</g>
	</g>
	<g>
		<g>
			<path style="fill:#DAACD6;" d="M255.8,257.8c0.1,0-6,66.6-7.7,78.5c-0.2,1.6-0.4,3.4,0.2,4.9c1.8,4.6,15.1,5.9,19.2,5.9
				c5.2,0,15.3,0.1,21.4-2.2c1.7-0.6,2.9-2.1,3.3-3.9c0.4-1.9,0.8-4.3,0.8-6c0-3-0.1-71.5-0.1-71.5L255.8,257.8z"/>
			<path d="M268.3,348.4c-0.2,0-0.4,0-0.6,0l-0.3,0c-0.2,0-17.9-0.4-20.3-6.7c-0.7-1.8-0.5-3.6-0.2-5.5c1.8-12.4,7.7-78,7.7-78.4
				l1.2,0.1l0.2-1.2l38.1,6l0,1c0,0.7,0.1,68.6,0.1,71.5c0,1.8-0.4,4.4-0.8,6.2c-0.4,2.2-2,4-4,4.8
				C283.3,348.4,273.8,348.4,268.3,348.4z M256.9,259.2c0,0.4-0.1,1-0.1,1.6c-0.2,1.8-0.4,4.5-0.7,7.7c-0.4,4.4-1.2,13.4-2.2,24.2
				c-1.6,16.5-3.6,37.5-4.5,43.8c-0.2,1.6-0.4,3.1,0.1,4.3c1.3,3.4,12.5,5.2,18.1,5.2h0.3c5.2,0,14.9,0,20.7-2.1
				c1.3-0.5,2.2-1.6,2.5-3c0.5-2.5,0.8-4.5,0.8-5.8c0-2.7-0.1-61.8-0.1-70.4L256.9,259.2z"/>
		</g>
		<g>
			<path style="fill:#E2E2E2;" d="M260.7,346.1c0-1.6,0-3.2-0.2-4.9c-0.2-1.3-0.5-2.5-1.1-3.7c-1.1-2.1-3.3-3.6-5.4-2.9
				c-1.4,0.5-2.4,2-2.8,3.6c-0.4,1.6-0.4,3.3-0.2,5c0,0,1,1.1,4.5,2.1C259,346.3,260.7,346.1,260.7,346.1z"/>
			<path d="M260.1,347.3c-0.9,0-2.5-0.1-4.9-0.8c-3.6-1-4.8-2.2-5-2.4c-0.2-0.2-0.3-0.4-0.3-0.7c-0.1-1.7-0.2-3.6,0.3-5.4
				c0.6-2.2,1.9-3.8,3.5-4.4c2.8-1.1,5.6,1,6.9,3.4c0.6,1.1,1,2.4,1.2,4c0.2,1.6,0.2,3.1,0.2,4.6l0,0.5c0,0.6-0.4,1.1-1,1.2
				C260.9,347.3,260.6,347.3,260.1,347.3z M260.7,346.1L260.7,346.1L260.7,346.1z M252.3,342.6c0.5,0.3,1.5,0.9,3.6,1.5
				c1.6,0.5,2.9,0.6,3.6,0.7c0-1.2,0-2.3-0.2-3.5c-0.2-1.3-0.5-2.4-1-3.3c-0.8-1.5-2.4-2.8-3.8-2.3c-0.9,0.3-1.7,1.4-2,2.8
				C252.1,339.9,252.2,341.3,252.3,342.6z"/>
		</g>
		<g>
			<path style="fill:#E2E2E2;" d="M275,347.1c0-1.6,0-3.2,0.2-4.9c0.2-1.3,0.5-2.5,1.1-3.7c1.1-2.1,3.3-3.6,5.4-2.9
				c1.4,0.5,2.4,2,2.8,3.6c0.4,1.6,0.5,5.1,0.3,6.8c0,0-0.8,0.7-4.7,0.8C276.6,347,275,347.1,275,347.1z"/>
			<path d="M275,348.3c-0.3,0-0.6-0.1-0.8-0.3c-0.2-0.2-0.4-0.6-0.4-0.9l0-0.5c0-1.5,0-3,0.2-4.6c0.2-1.6,0.6-2.9,1.2-4
				c1.3-2.5,4.1-4.5,6.9-3.4c1.6,0.6,3,2.3,3.5,4.4c0.5,1.9,0.5,5.6,0.4,7.2c0,0.3-0.2,0.6-0.4,0.8c-0.4,0.3-1.6,1-5.4,1.1
				C276.7,348.3,275.1,348.3,275,348.3C275.1,348.3,275,348.3,275,348.3z M276.2,347.1L276.2,347.1L276.2,347.1z M280.5,336.7
				c-1.2,0-2.5,1.1-3.2,2.4c-0.4,0.9-0.8,2-1,3.3c-0.2,1.1-0.2,2.3-0.2,3.4c0.8,0,2.1-0.1,3.9-0.1c1.9-0.1,3-0.3,3.5-0.4
				c0.1-1.7,0-4.4-0.3-5.6c-0.4-1.4-1.1-2.4-2-2.8C281,336.8,280.8,336.7,280.5,336.7z"/>
		</g>
		<g>
			<path style="fill:#E2E2E2;" d="M272.4,347.1c0-1.6,0-3.2-0.2-4.9c-0.2-1.3-0.5-2.5-1.1-3.7c-1.1-2.1-3.3-3.6-5.4-2.9
				c-1.4,0.5-2.4,2-2.8,3.6s-0.5,5.6-0.4,7.3c0,0,0.5,0.3,3.9,0.6C270.3,347.4,272.4,347.1,272.4,347.1z"/>
			<path d="M269.6,348.4c-0.9,0-1.9,0-3.1-0.1c-3.8-0.3-4.3-0.6-4.5-0.7c-0.3-0.2-0.5-0.5-0.6-0.9c-0.2-1.8,0-5.9,0.4-7.7
				c0.6-2.2,1.9-3.8,3.5-4.4c2.8-1.1,5.6,1,6.9,3.4c0.6,1.1,1,2.4,1.2,4c0.2,1.6,0.2,3.1,0.2,4.6l0,0.5c0,0.6-0.4,1.1-1,1.2
				C272.6,348.3,271.5,348.4,269.6,348.4z M272.4,347.1L272.4,347.1L272.4,347.1z M263.8,345.6c0.5,0.1,1.4,0.2,2.9,0.3
				c2.1,0.2,3.6,0.1,4.6,0.1c0-1.2,0-2.4-0.2-3.6c-0.2-1.3-0.5-2.4-1-3.3c-0.8-1.5-2.4-2.8-3.8-2.3c-0.9,0.3-1.7,1.4-2,2.8
				C263.9,340.8,263.7,343.8,263.8,345.6z"/>
		</g>
	</g>
	<g>
		<g>
			<path style="fill:#DAACD6;" d="M331.2,167.7c1-0.4,2-0.8,3.1-1.1c9.3-2.6,19,6.3,26.2,12.3c9.1,7.7,15.9,18.1,19.8,30.3
				c2.4,7.3,3.5,14.9,4.8,22.6c0.8,4.7,1.7,11.4-3.3,13.2c-7.7,2.9-16,2.6-24.1,2.2c-1.5-0.1-3.7,0.3-4.4-1.6
				c-0.3-0.9-0.2-1.9-0.2-2.8c0.3-5.5,0.8-11.6,0.2-17c-0.6-5.5-2.7-10.7-4.9-15.6c-2.6-5.8-5.8-11.7-10.3-15.9
				c-4.8-4.5-10-7.9-12.3-14.7C323.7,173.4,326.5,169.8,331.2,167.7z"/>
			<path d="M365.5,248.6c-2.7,0-5.3-0.1-7.9-0.2c-0.2,0-0.4,0-0.7,0c0,0,0,0,0,0c-1.5,0-3.9,0-4.8-2.4c-0.4-1.1-0.3-2.2-0.3-3.3
				c0-0.7,0.1-1.4,0.1-2.1c0.3-5,0.6-10.1,0.1-14.8c-0.6-5-2.3-9.7-4.8-15.2c-2.2-4.9-5.3-11.2-10-15.5c-0.9-0.9-1.9-1.7-2.8-2.5
				c-3.9-3.4-7.9-6.9-9.9-12.7c-2.1-6.1,0-10.7,6-13.4c1-0.4,2.1-0.8,3.2-1.2c9.3-2.6,18.9,5.5,26,11.4c0.5,0.4,0.9,0.8,1.4,1.2
				c9.2,7.7,16.2,18.4,20.2,30.8c2.1,6.5,3.2,13.3,4.3,19.9c0.2,0.9,0.3,1.9,0.5,2.8c0.7,4.3,2.1,12.3-4.1,14.6
				C376.8,248.2,371,248.6,365.5,248.6z M357,246c0.3,0,0.5,0,0.7,0c7.9,0.3,16,0.7,23.6-2.1c4-1.5,3.4-6.9,2.5-11.9
				c-0.2-0.9-0.3-1.9-0.5-2.8c-1.1-6.8-2.2-13.2-4.2-19.6c-3.9-12-10.6-22.3-19.5-29.7c-0.5-0.4-0.9-0.8-1.4-1.2
				c-7-5.9-15.7-13.2-23.7-10.9c-1.1,0.3-2,0.7-2.9,1l0,0c-4.8,2.2-6.4,5.6-4.7,10.4c1.8,5.1,5.4,8.3,9.2,11.6
				c0.9,0.8,1.9,1.7,2.8,2.5c5,4.6,8.3,11.2,10.6,16.3c2.2,4.9,4.3,10.3,5,15.9c0.6,4.9,0.3,10.1,0,15.2c0,0.7-0.1,1.4-0.1,2
				c0,0.9-0.1,1.7,0.1,2.3C354.7,245.9,355.4,246,357,246C357,246,357,246,357,246z"/>
		</g>
		<g>
			<path style="fill:#E2E2E2;" d="M375.3,246.3c0-1.4,0-2.8,0.2-4.3c0.2-1.1,0.4-2.2,0.9-3.2c0.9-1.8,2.9-3.2,4.7-2.5
				c1.2,0.5,2.1,1.8,2.4,3.2s0.3,2.9,0.2,4.3c0,0-0.9,1-3.9,1.8C376.8,246.5,375.3,246.3,375.3,246.3z"/>
			<path d="M375.9,247.5c-0.4,0-0.7,0-0.8,0c-0.6-0.1-1-0.6-1-1.2l0-0.4c0-1.3,0-2.6,0.2-4c0.2-1.4,0.6-2.6,1.1-3.6
				c1.1-2.2,3.7-4.1,6.2-3.1c1.5,0.6,2.7,2.1,3.2,4c0.4,1.6,0.4,3.2,0.2,4.8c0,0.3-0.1,0.5-0.3,0.7c-0.2,0.2-1.3,1.3-4.5,2.2
				C378.1,247.4,376.7,247.5,375.9,247.5z M376.6,246.3L376.6,246.3L376.6,246.3z M375.3,246.3L375.3,246.3L375.3,246.3z
				 M380.2,237.3c-1,0-2.1,0.9-2.6,2c-0.4,0.8-0.7,1.7-0.8,2.8c-0.1,1-0.2,1.9-0.2,2.9c0.7-0.1,1.7-0.2,3-0.6c1.7-0.5,2.6-1,3.1-1.3
				c0.1-1.2,0.1-2.3-0.2-3.4c-0.3-1.1-1-2.1-1.7-2.3C380.6,237.3,380.4,237.3,380.2,237.3z"/>
		</g>
		<g>
			<path style="fill:#E2E2E2;" d="M365.2,247.4c0-1.4,0-2.8,0.2-4.3c0.2-1.1,0.4-2.2,0.9-3.2c0.9-1.8,2.9-3.2,4.7-2.5
				c1.2,0.5,2.1,1.8,2.4,3.2c0.4,1.4,0.5,4.9,0.3,6.3c0,0-0.4,0.3-3.4,0.5C367.1,247.7,365.2,247.4,365.2,247.4z"/>
			<path d="M367.8,248.7c-1.7,0-2.7-0.1-2.7-0.1c-0.6-0.1-1-0.6-1-1.2l0-0.4c0-1.3,0-2.6,0.2-4c0.2-1.4,0.6-2.6,1.1-3.6
				c1.1-2.2,3.7-4.1,6.2-3.1c1.5,0.6,2.7,2.1,3.2,4c0.4,1.6,0.5,5.2,0.4,6.8c0,0.4-0.2,0.7-0.6,0.9c-0.2,0.1-0.7,0.4-4,0.7
				C369.4,248.7,368.5,248.7,367.8,248.7z M366.5,247.4L366.5,247.4L366.5,247.4z M365.2,247.4L365.2,247.4L365.2,247.4z
				 M366.5,246.3c0.8,0,2.1,0.1,3.9-0.1c1.2-0.1,1.9-0.2,2.4-0.3c0-1.6-0.1-4.1-0.4-5.1c-0.3-1.1-1-2.1-1.7-2.3
				c-1.1-0.4-2.5,0.7-3.2,1.9c-0.4,0.8-0.7,1.7-0.8,2.8C366.5,244.3,366.5,245.3,366.5,246.3z M373.4,245.8L373.4,245.8L373.4,245.8
				z"/>
		</g>
	</g>
	<g>
		<g>
			<path style="fill:#DAACD6;" d="M265.6,167.7c-1-0.4-2-0.8-3.1-1.1c-9.3-2.6-19,6.3-26.2,12.3c-9.1,7.7-15.9,18.1-19.8,30.3
				c-2.4,7.3-3.5,14.9-4.8,22.6c-0.8,4.7-1.7,11.4,3.3,13.2c7.7,2.9,16,2.6,24.1,2.2c1.5-0.1,3.7,0.3,4.4-1.6
				c0.3-0.9,0.2-1.9,0.2-2.8c-0.3-5.5-0.8-11.6-0.2-17c0.6-5.5,2.7-10.7,4.9-15.6c2.6-5.8,5.8-11.7,10.3-15.9
				c4.8-4.5,10-7.9,12.3-14.7C273.1,173.4,270.2,169.8,265.6,167.7z"/>
			<path d="M231.3,248.6c-5.5,0-11.3-0.5-16.7-2.5c-6.2-2.3-4.8-10.3-4.1-14.6c0.2-0.9,0.3-1.9,0.5-2.8c1.1-6.6,2.2-13.4,4.3-19.9
				c4-12.4,11-23.1,20.2-30.8c0.5-0.4,0.9-0.8,1.4-1.2c7-5.9,16.7-14.1,26-11.4c1.2,0.3,2.3,0.7,3.2,1.2l0,0c6,2.7,8.1,7.4,6,13.4
				c-2,5.8-6,9.3-9.9,12.7c-0.9,0.8-1.9,1.6-2.8,2.5c-4.7,4.3-7.8,10.6-10,15.5c-2.1,4.7-4.2,9.9-4.8,15.2
				c-0.5,4.7-0.2,9.8,0.1,14.7c0,0.7,0.1,1.4,0.1,2c0.1,1,0.1,2.2-0.3,3.3c-0.8,2.4-3.3,2.4-4.8,2.4c0,0-0.1,0-0.1,0
				c-0.2,0-0.4,0-0.6,0C236.6,248.5,234,248.6,231.3,248.6z M259,167.3c-7.1,0-14.5,6.2-20.6,11.4c-0.5,0.4-0.9,0.8-1.4,1.2
				c-8.9,7.4-15.6,17.7-19.5,29.7c-2,6.3-3.1,12.8-4.2,19.6c-0.2,0.9-0.3,1.9-0.5,2.8c-0.8,5-1.4,10.4,2.5,11.9
				c7.6,2.8,15.7,2.5,23.6,2.1c0.2,0,0.5,0,0.8,0c0,0,0,0,0,0c1.6,0,2.3-0.1,2.5-0.8c0.2-0.6,0.2-1.5,0.1-2.3c0-0.7-0.1-1.4-0.1-2.1
				c-0.3-5.1-0.6-10.3,0-15.2c0.7-5.7,2.8-11,5-15.9c2.3-5.2,5.6-11.7,10.6-16.3c0.9-0.9,1.9-1.7,2.8-2.5c3.8-3.3,7.4-6.5,9.2-11.6
				c1.7-4.8,0.1-8.2-4.7-10.4l0,0c-0.9-0.4-1.8-0.7-2.9-1C261.2,167.5,260.1,167.3,259,167.3z"/>
		</g>
		<g>
			<path style="fill:#E2E2E2;" d="M221.4,246.3c0-1.4,0-2.8-0.2-4.3c-0.2-1.1-0.4-2.2-0.9-3.2c-0.9-1.8-2.9-3.2-4.7-2.5
				c-1.2,0.5-2.1,1.8-2.4,3.2s-0.3,2.9-0.2,4.3c0,0,0.9,1,3.9,1.8C219.9,246.5,221.4,246.3,221.4,246.3z"/>
			<path d="M220.9,247.5c-0.8,0-2.2-0.1-4.3-0.7c-3.2-0.9-4.3-2-4.5-2.2c-0.2-0.2-0.3-0.4-0.3-0.7c-0.1-1.5-0.2-3.2,0.2-4.8
				c0.5-1.9,1.7-3.4,3.2-4c2.5-1,5.1,0.9,6.2,3.1c0.5,1,0.9,2.2,1.1,3.6c0.2,1.4,0.2,2.7,0.2,4l0,0.4c0,0.6-0.4,1.1-1,1.2
				C221.5,247.5,221.3,247.5,220.9,247.5z M221.4,246.3L221.4,246.3L221.4,246.3z M214.1,243.2c0.4,0.3,1.3,0.8,3.1,1.3
				c1.3,0.4,2.3,0.5,3,0.6c0-1,0-1.9-0.2-2.9c-0.2-1.2-0.4-2.1-0.8-2.8c-0.6-1.3-2-2.4-3.2-1.9c-0.7,0.3-1.4,1.2-1.7,2.3
				C214.1,240.8,214.1,242,214.1,243.2z"/>
		</g>
		<g>
			<path style="fill:#E2E2E2;" d="M231.5,247.4c0-1.4,0-2.8-0.2-4.3c-0.2-1.1-0.4-2.2-0.9-3.2c-0.9-1.8-2.9-3.2-4.7-2.5
				c-1.2,0.5-2.1,1.8-2.4,3.2c-0.4,1.4-0.5,4.9-0.3,6.3c0,0,0.4,0.3,3.4,0.5C229.7,247.7,231.5,247.4,231.5,247.4z"/>
			<path d="M229,248.7c-0.8,0-1.7,0-2.7-0.1c-3.3-0.3-3.8-0.6-4-0.7c-0.3-0.2-0.5-0.5-0.6-0.9c-0.1-1.6,0-5.2,0.4-6.8
				c0.5-1.9,1.7-3.4,3.2-4c2.5-1,5.1,0.9,6.2,3.1c0.5,1,0.9,2.2,1.1,3.6c0.2,1.4,0.2,2.7,0.2,4l0,0.4c0,0.6-0.4,1.1-1,1.2
				C231.7,248.6,230.7,248.7,229,248.7z M231.5,247.4L231.5,247.4L231.5,247.4z M224.1,246c0.5,0.1,1.2,0.2,2.4,0.3
				c1.7,0.1,3,0.1,3.9,0.1c0-1,0-2-0.2-3c-0.2-1.2-0.4-2.1-0.8-2.8c-0.6-1.3-2-2.3-3.2-1.9c-0.7,0.3-1.4,1.2-1.7,2.3
				C224.2,241.9,224.1,244.4,224.1,246z"/>
		</g>
	</g>
	<g>
		<g>
			<path style="fill:#242424;" d="M360,212.8c-4.5-18.4-7.1-20.7-11.8-46.9c-3.9-22.1-26.2-29.1-26.2-29.1c-17.3-3.8-44.5,0-44.5,0
				s-22.9,6.9-26.2,29.1c-3.3,22.3-7.3,28.5-11.8,46.9c-4.5,18.4,2.1,70.4,60.2,70.4S364.5,231.2,360,212.8z"/>
			<path d="M299.8,284.4c-21.8,0-38.5-7.1-49.5-21.2c-13.5-17.2-14.5-39.7-11.8-50.7c1.7-6.8,3.2-11.9,4.7-16.8
				c2.5-8.2,4.9-15.9,7-30c3.4-22.7,26.8-30,27-30l0.2,0c0.1,0,7-1,15.9-1.4c12-0.6,21.8-0.1,29.1,1.4l0.1,0c0.2,0.1,23,7.5,27,30
				c2.9,16.4,5.1,23.5,7.3,30.9c1.4,4.4,2.8,9,4.4,15.9l0,0c2.7,10.9,1.7,33.5-11.8,50.7C338.3,277.2,321.7,284.4,299.8,284.4z
				 M277.8,138.1c-1.5,0.5-22.2,7.6-25.2,28c-2.1,14.2-4.5,22-7.1,30.3c-1.5,4.9-3.1,9.9-4.7,16.7c-2.4,10.1-1.5,32.2,11.4,48.6
				c10.6,13.4,26.6,20.2,47.6,20.2c21,0,37.1-6.8,47.6-20.2c12.9-16.4,13.8-38.5,11.4-48.6l0,0c-1.6-6.7-3-11.3-4.4-15.7
				c-2.3-7.5-4.5-14.6-7.4-31.2c-3.7-20.6-24.2-27.7-25.3-28.1C305.4,134.5,279.7,137.8,277.8,138.1z"/>
		</g>
		<g>
			<g>
				<path style="fill:#D8D8D8;" d="M272.5,198.1c-1.5,1.6-1.6,3.9-0.4,5.6c-1.8-1.1-4.1-0.8-5.6,0.8c-1.7,1.8-1.6,4.6,0.2,6.3
					c1.8,1.7,4.6,1.6,6.3-0.2c0.1-0.1,0.2-0.3,0.3-0.4l14.9,14l4.9-5.2l-15-14c0.3-0.2,0.6-0.4,0.8-0.7c1.7-1.8,1.6-4.6-0.2-6.3
					C277.1,196.2,274.2,196.3,272.5,198.1z"/>
				<path d="M288.3,225.4c-0.3,0-0.6-0.1-0.8-0.3l-14-13.1c-2.2,1.8-5.4,1.7-7.5-0.2c-2.3-2.1-2.4-5.8-0.3-8
					c1.2-1.3,2.8-1.9,4.5-1.8c-0.2-1.6,0.3-3.3,1.5-4.6l0,0c1-1.1,2.4-1.7,4-1.8c1.5-0.1,3,0.5,4.1,1.5c2.3,2.1,2.4,5.6,0.4,7.9
					l14,13.1c0.2,0.2,0.4,0.5,0.4,0.9c0,0.3-0.1,0.6-0.3,0.9l-4.9,5.2C288.9,225.3,288.6,225.4,288.3,225.4z M273.4,209
					c0.3,0,0.6,0.1,0.8,0.3l14,13.1l3.2-3.5l-14.1-13.2c-0.3-0.3-0.4-0.6-0.4-1s0.2-0.7,0.6-0.9c0.3-0.2,0.5-0.3,0.6-0.5
					c1.2-1.3,1.2-3.4-0.1-4.6c-0.6-0.6-1.5-0.9-2.3-0.9c-0.9,0-1.7,0.4-2.3,1c-1,1.1-1.2,2.8-0.3,4.1c0.3,0.5,0.3,1.1-0.1,1.5
					c-0.4,0.4-1,0.5-1.5,0.2c-1.3-0.8-3-0.6-4.1,0.6c-1.2,1.3-1.2,3.4,0.1,4.6c1.3,1.2,3.4,1.2,4.6-0.1c0,0,0.1-0.1,0.1-0.2l0.1-0.1
					c0.2-0.3,0.5-0.5,0.9-0.5C273.3,209,273.3,209,273.4,209z"/>
			</g>
			<g>
				<path style="fill:#D8D8D8;" d="M324.2,198.1c1.5,1.6,1.6,3.9,0.4,5.6c1.8-1.1,4.1-0.8,5.6,0.8c1.7,1.8,1.6,4.6-0.2,6.3
					c-1.8,1.7-4.6,1.6-6.3-0.2c-0.1-0.1-0.2-0.3-0.3-0.4l-14.9,14l-4.9-5.2l15-14c-0.3-0.2-0.6-0.4-0.8-0.7
					c-1.7-1.8-1.6-4.6,0.2-6.3C319.7,196.2,322.5,196.3,324.2,198.1z"/>
				<path d="M308.5,225.4c-0.3,0-0.6-0.1-0.9-0.4l-4.9-5.2c-0.2-0.2-0.3-0.5-0.3-0.9c0-0.3,0.1-0.6,0.4-0.9l14-13.1
					c-1-1.1-1.5-2.5-1.4-4c0-1.5,0.7-2.9,1.8-4c2.3-2.1,5.9-2,8,0.3c0,0,0,0,0,0c1.2,1.3,1.7,3,1.5,4.6c1.6-0.1,3.3,0.5,4.5,1.8
					c2.1,2.3,2,5.9-0.3,8c-1.1,1-2.6,1.6-4.1,1.5c-1.3,0-2.5-0.5-3.4-1.3l-14,13.1C309.1,225.3,308.8,225.4,308.5,225.4z M305.3,219
					l3.2,3.5l14-13.1c0.3-0.2,0.6-0.4,0.9-0.3c0.3,0,0.7,0.2,0.9,0.5l0.1,0.1c0,0.1,0.1,0.1,0.1,0.2c0.6,0.6,1.4,1,2.3,1
					c0.9,0,1.7-0.3,2.3-0.9c1.3-1.2,1.4-3.3,0.1-4.6c-1-1.1-2.8-1.3-4.1-0.6c-0.5,0.3-1.1,0.2-1.5-0.2c-0.4-0.4-0.4-1.1-0.1-1.5
					c0.9-1.3,0.8-3-0.3-4.1l0,0c-0.6-0.6-1.4-1-2.3-1c-0.9,0-1.7,0.3-2.3,0.9c-0.6,0.6-1,1.4-1,2.3c0,0.9,0.3,1.7,0.9,2.3
					c0.2,0.2,0.4,0.3,0.6,0.5c0.3,0.2,0.5,0.5,0.6,0.9c0,0.4-0.1,0.7-0.4,1L305.3,219z"/>
			</g>
			<g>
				<path style="fill:#D8D8D8;" d="M272.5,255.8c-1.5-1.6-1.6-3.9-0.4-5.6c-1.8,1.1-4.1,0.8-5.6-0.8c-1.7-1.8-1.6-4.6,0.2-6.3
					c1.8-1.7,4.6-1.6,6.3,0.2c0.1,0.1,0.2,0.3,0.3,0.4l14.9-14l4.9,5.2l-15,14c0.3,0.2,0.6,0.4,0.8,0.7c1.7,1.8,1.6,4.6-0.2,6.3
					C277.1,257.7,274.2,257.6,272.5,255.8z"/>
				<path d="M275.8,258.5c-0.1,0-0.1,0-0.2,0c-1.5,0-2.9-0.7-4-1.8l0,0c-1.2-1.3-1.7-3-1.5-4.6c-1.6,0.1-3.3-0.5-4.5-1.8
					c-1-1.1-1.6-2.6-1.5-4.1c0-1.5,0.7-2.9,1.8-4c2.1-2,5.3-2,7.5-0.2l14-13.1c0.2-0.2,0.5-0.3,0.9-0.3c0.3,0,0.6,0.1,0.9,0.4
					l4.9,5.2c0.5,0.5,0.4,1.3-0.1,1.7L280,249c2,2.3,1.9,5.8-0.4,7.9C278.6,257.9,277.3,258.5,275.8,258.5z M272.1,249
					c0.3,0,0.7,0.1,0.9,0.4c0.4,0.4,0.4,1.1,0.1,1.5c-0.9,1.3-0.8,3,0.3,4.1c0,0,0,0,0,0c0.6,0.6,1.4,1,2.3,1c0.9,0,1.7-0.3,2.3-0.9
					c1.3-1.2,1.4-3.3,0.1-4.6c-0.2-0.2-0.4-0.3-0.6-0.5c-0.3-0.2-0.5-0.5-0.6-0.9s0.1-0.7,0.4-1l14.1-13.2l-3.2-3.5l-14,13.1
					c-0.3,0.2-0.6,0.4-0.9,0.3c-0.3,0-0.7-0.2-0.9-0.5l-0.1-0.1c0-0.1-0.1-0.1-0.1-0.1c-1.2-1.3-3.3-1.4-4.6-0.2
					c-1.3,1.2-1.4,3.3-0.1,4.6c1,1.1,2.8,1.3,4.1,0.6C271.7,249.1,271.9,249,272.1,249z"/>
			</g>
			<g>
				<path style="fill:#D8D8D8;" d="M324.2,255.8c1.5-1.6,1.6-3.9,0.4-5.6c1.8,1.1,4.1,0.8,5.6-0.8c1.7-1.8,1.6-4.6-0.2-6.3
					c-1.8-1.7-4.6-1.6-6.3,0.2c-0.1,0.1-0.2,0.3-0.3,0.4l-14.9-14l-4.9,5.2l15,14c-0.3,0.2-0.6,0.4-0.8,0.7
					c-1.7,1.8-1.6,4.6,0.2,6.3C319.7,257.7,322.5,257.6,324.2,255.8z"/>
				<path d="M321,258.5c-1.4,0-2.8-0.5-3.9-1.5c-1.1-1-1.7-2.4-1.8-4c0-1.5,0.5-2.9,1.4-4l-14-13.1c-0.5-0.5-0.5-1.2-0.1-1.7
					l4.9-5.2c0.2-0.2,0.5-0.4,0.9-0.4c0.3,0,0.6,0.1,0.9,0.3l14,13.1c1-0.8,2.2-1.3,3.4-1.3c1.5,0,3,0.5,4.1,1.5
					c1.1,1,1.7,2.4,1.8,4c0,1.5-0.5,3-1.5,4.1c-1.2,1.3-2.8,1.9-4.5,1.8c0.2,1.6-0.3,3.3-1.5,4.6l0,0
					C324,257.9,322.5,258.5,321,258.5z M305.3,234.9l14.1,13.2c0.3,0.3,0.4,0.6,0.4,1c0,0.4-0.2,0.7-0.6,0.9
					c-0.3,0.2-0.5,0.3-0.6,0.5c-0.6,0.6-0.9,1.5-0.9,2.3c0,0.9,0.4,1.7,1,2.3c1.3,1.2,3.4,1.2,4.6-0.1l0,0c1-1.1,1.2-2.8,0.3-4.1
					c-0.3-0.5-0.3-1.1,0.1-1.5c0.4-0.4,1-0.5,1.5-0.2c1.3,0.8,3,0.6,4.1-0.6c1.2-1.3,1.2-3.4-0.1-4.6c-0.6-0.6-1.5-0.9-2.3-0.9
					c-0.9,0-1.7,0.4-2.3,1c0,0-0.1,0.1-0.1,0.1l-0.1,0.1c-0.2,0.3-0.5,0.5-0.9,0.5c-0.3,0-0.7-0.1-0.9-0.3l-14-13.1L305.3,234.9z"/>
			</g>
			<g>
				<path style="fill:#D8D8D8;" d="M313.9,237.9c0,8.5-6.9,15.3-15.5,15.3s-15.5-6.9-15.5-15.3v-8h31V237.9z"/>
				<path d="M298.4,254.5c-9.2,0-16.7-7.4-16.7-16.5v-8c0-0.7,0.5-1.2,1.2-1.2h31c0.7,0,1.2,0.5,1.2,1.2v8
					C315.1,247.1,307.6,254.5,298.4,254.5z M284.1,231.1v6.8c0,7.8,6.4,14.1,14.3,14.1s14.3-6.3,14.3-14.1v-6.8H284.1z"/>
			</g>
			<g>
				<path style="fill:#D8D8D8;" d="M281.3,220.9c0-9.3,7.7-16.9,17.1-16.9s17.1,7.6,17.1,16.9v8.9h-34.2V220.9z"/>
				<path d="M315.5,231h-34.2c-0.7,0-1.2-0.5-1.2-1.2v-8.9c0-10,8.2-18.1,18.3-18.1s18.3,8.1,18.3,18.1v8.9
					C316.7,230.4,316.2,231,315.5,231z M282.5,228.5h31.8v-7.6c0-8.6-7.1-15.7-15.9-15.7s-15.9,7-15.9,15.7V228.5z"/>
			</g>
			<g>
				<g>
					<path style="fill:#E2E2E2;" d="M290.7,247.4L290.7,247.4c-1.4,0-2.5-1.1-2.5-2.5v-0.7c0-1.4,1.1-2.5,2.5-2.5l0,0
						c1.4,0,2.5,1.1,2.5,2.5v0.7C293.2,246.3,292.1,247.4,290.7,247.4z"/>
					<path d="M291.7,248.6h-2.1c-1.5,0-2.7-1.2-2.7-2.7v-2.8c0-1.5,1.2-2.7,2.7-2.7h2.1c1.5,0,2.7,1.2,2.7,2.7v2.8
						C294.4,247.4,293.2,248.6,291.7,248.6z M289.6,242.8c-0.2,0-0.3,0.1-0.3,0.3v2.8c0,0.2,0.1,0.3,0.3,0.3h2.1
						c0.2,0,0.3-0.1,0.3-0.3v-2.8c0-0.2-0.1-0.3-0.3-0.3H289.6z"/>
				</g>
				<g>
					<path style="fill:#E2E2E2;" d="M306.1,247.4L306.1,247.4c-1.4,0-2.5-1.1-2.5-2.5v-0.7c0-1.4,1.1-2.5,2.5-2.5l0,0
						c1.4,0,2.5,1.1,2.5,2.5v0.7C308.6,246.3,307.5,247.4,306.1,247.4z"/>
					<path d="M307.1,248.6h-2.1c-1.5,0-2.7-1.2-2.7-2.7v-2.8c0-1.5,1.2-2.7,2.7-2.7h2.1c1.5,0,2.7,1.2,2.7,2.7v2.8
						C309.9,247.4,308.6,248.6,307.1,248.6z M305.1,242.8c-0.2,0-0.3,0.1-0.3,0.3v2.8c0,0.2,0.1,0.3,0.3,0.3h2.1
						c0.2,0,0.3-0.1,0.3-0.3v-2.8c0-0.2-0.1-0.3-0.3-0.3H305.1z"/>
				</g>
			</g>
			<g>
				<path style="fill:#D8D8D8;" d="M321,233.2c0,9-10.1,10.8-22.7,10.8s-22.7-1.8-22.7-10.8c0-9,10.1-16.4,22.7-16.4
					S321,224.2,321,233.2z"/>
				<path d="M298.4,245.3c-7.5,0-12.7-0.7-16.5-2.1c-4.9-1.9-7.4-5.2-7.4-9.9c0-9.7,10.7-17.6,23.9-17.6s23.9,7.9,23.9,17.6
					C322.3,243.9,309.5,245.3,298.4,245.3z M298.4,218.1c-11.8,0-21.5,6.8-21.5,15.1c0,6.7,6.4,9.6,21.5,9.6s21.5-2.9,21.5-9.6
					C319.8,224.9,310.2,218.1,298.4,218.1z"/>
			</g>
			<circle cx="288.1" cy="222.1" r="1.4"/>
			<circle cx="308.6" cy="222.1" r="1.4"/>
			<ellipse transform="matrix(0.5 -0.866 0.866 0.5 -40.0698 358.9693)" cx="290.8" cy="214.2" rx="3.6" ry="4.3"/>
			<ellipse transform="matrix(0.866 -0.5 0.5 0.866 -66.1078 181.6546)" cx="305.9" cy="214.2" rx="4.3" ry="3.6"/>
		</g>
	</g>
	<g>
		<g>
			<g>
				<path style="fill:#DAACD6;" d="M351.2,98.4c0-25.9-23.7-48.9-52.8-48.9c-29.2,0-52.8,23-52.8,48.9v24.8h105.7V98.4z"/>
				<path d="M352.4,124.3H244.3v-26c0-27.2,24.8-50.1,54.1-50.1s54.1,23,54.1,50.1V124.3z M246.8,121.9H350V98.4
					c0-12.1-5.5-24.3-15.1-33.3c-9.9-9.3-22.9-14.4-36.5-14.4s-26.6,5.1-36.5,14.4c-9.6,9-15.1,21.2-15.1,33.3V121.9z"/>
			</g>
			<g>
				<path style="fill:#DAACD6;" d="M272.4,60.3c0,0-2.8-14.5-21.5-14.1c-18.7,0.4-4.8,20.5,7.6,23.3"/>
				<path d="M258.5,70.7c-0.1,0-0.2,0-0.3,0c-8.9-2-18.3-12.3-17.6-19.2c0.2-2.4,1.9-6.4,10.3-6.5c0.2,0,0.5,0,0.7,0
					c18.9,0,22,15,22.1,15.1c0.1,0.7-0.3,1.3-1,1.4c-0.7,0.1-1.3-0.3-1.4-1c-0.1-0.5-2.8-13.2-19.7-13.2c-0.2,0-0.4,0-0.6,0
					c-3.4,0.1-7.5,0.9-7.9,4.3c-0.6,5.7,8.1,14.8,15.7,16.6c0.7,0.2,1.1,0.8,0.9,1.5C259.5,70.4,259,70.7,258.5,70.7z"/>
			</g>
			<g>
				<path style="fill:#7B3B76;" d="M262.4,63.9c0,0-5.5-9.6-15-12.4C247.4,51.5,247.8,61.8,262.4,63.9z"/>
				<path d="M262.4,65.1c-0.1,0-0.1,0-0.2,0c-15.4-2.2-16-13.4-16-13.5c0-0.4,0.2-0.8,0.5-1c0.3-0.2,0.7-0.3,1.1-0.2
					c9.8,2.8,15.5,12.5,15.7,12.9c0.2,0.4,0.2,0.9,0,1.3C263.1,64.9,262.8,65.1,262.4,65.1z M249,53.4c0.8,2.5,3.3,6.9,10.7,8.7
					C257.7,59.5,254,55.5,249,53.4z"/>
			</g>
			<g>
				<path style="fill:#DAACD6;" d="M324.3,60.3c0,0,2.8-14.5,21.5-14.1c18.7,0.4,4.8,20.5-7.6,23.3"/>
				<path d="M338.3,70.7c-0.6,0-1.1-0.4-1.2-0.9c-0.1-0.7,0.3-1.3,0.9-1.5c7.6-1.7,16.3-10.9,15.7-16.6c-0.4-3.5-4.5-4.3-7.9-4.3
					c-7.4-0.1-13,2-16.8,6.5c-2.8,3.3-3.5,6.6-3.5,6.6c-0.1,0.7-0.8,1.1-1.4,1c-0.7-0.1-1.1-0.8-1-1.4c0-0.2,3.2-15.1,22.1-15.1
					c0.2,0,0.5,0,0.7,0c8.4,0.2,10,4.2,10.3,6.5c0.7,6.9-8.7,17.1-17.6,19.2C338.5,70.7,338.4,70.7,338.3,70.7z"/>
			</g>
			<g>
				<path style="fill:#7B3B76;" d="M334.4,63.9c0,0,5.5-9.6,15-12.4C349.4,51.5,349,61.8,334.4,63.9z"/>
				<path d="M334.4,65.1c-0.4,0-0.8-0.2-1-0.5c-0.3-0.4-0.3-0.9,0-1.3c0.2-0.4,5.9-10.1,15.7-12.9c0.4-0.1,0.8,0,1.1,0.2
					c0.3,0.2,0.5,0.6,0.5,1c0,0.1-0.7,11.3-16,13.5C334.5,65.1,334.5,65.1,334.4,65.1z M347.8,53.4c-5,2.1-8.7,6.1-10.7,8.7
					C344.4,60.2,346.9,55.9,347.8,53.4z"/>
			</g>
			<g>
				<circle cx="274.6" cy="79.9" r="4.1"/>
				<circle cx="322.1" cy="79.9" r="4.1"/>
			</g>
			<g>
				<path style="fill:#DAACD6;" d="M290.5,57.4c-2.4-2.6-3.1-6.3-3-9.9c0-1.6,0.2-3.2,0.9-4.6c0.7-1.4,1.9-2.6,3.4-2.9
					c1.6-0.3,3.4,0.5,4.6,1.6c1.2,1.2,2,2.7,2.7,4.2c0.1-1.7,1.3-3.2,2.8-4c1.5-0.8,3.2-1,4.9-0.8c0.6,0.1,1.2,0.2,1.6,0.5
					c1.7,1.1,1.2,3.7,1.6,5.7c2.2-1.7,5.4-2.6,7.6-1c1.8,1.2,2.3,3.7,1.9,5.8s-1.8,3.9-3.3,5.5"/>
				<path d="M316.1,59c-0.3,0-0.6-0.1-0.8-0.3c-0.5-0.5-0.5-1.2-0.1-1.7c1.2-1.3,2.5-3,3-5c0.3-1.5,0.1-3.5-1.4-4.6
					c-1.8-1.3-4.4-0.4-6.2,1c-0.3,0.3-0.8,0.3-1.2,0.2c-0.4-0.2-0.7-0.5-0.8-0.9c-0.1-0.7-0.2-1.4-0.2-2c-0.1-1.5-0.2-2.5-0.8-2.9
					c-0.3-0.2-0.7-0.3-1.1-0.3c-1.1-0.1-2.8-0.1-4.2,0.6c-1.2,0.6-2,1.8-2.1,3c0,0.6-0.4,1-1,1.1c-0.5,0.1-1.1-0.2-1.3-0.7
					c-0.7-1.5-1.4-2.9-2.4-3.9c-0.8-0.8-2.1-1.6-3.5-1.3c-1,0.2-2,1.1-2.6,2.2c-0.6,1.3-0.7,2.9-0.8,4.1c-0.1,2.7,0.3,6.5,2.7,9
					c0.5,0.5,0.4,1.3,0,1.7c-0.5,0.5-1.3,0.4-1.7,0c-2.3-2.5-3.4-6.1-3.3-10.7c0-1.4,0.2-3.3,1-5.1c0.9-1.9,2.5-3.2,4.3-3.6
					c1.9-0.4,4,0.4,5.6,2c0.7,0.7,1.2,1.4,1.6,2.1c0.6-0.8,1.4-1.6,2.4-2.1c1.6-0.8,3.5-1.1,5.6-0.9c0.7,0.1,1.5,0.2,2.2,0.7
					c1.7,1.1,1.9,3.1,1.9,4.7c2.3-1.1,5.1-1.5,7.3,0.1c2,1.4,3,4.3,2.3,7.1c-0.6,2.5-2.2,4.6-3.6,6.1C316.8,58.9,316.4,59,316.1,59z
					"/>
			</g>
		</g>
		<g>
			<path style="fill:#DAACD6;" d="M245,138.5c0,27,24.7,48.9,55.1,48.9c30.4,0,55.1-21.9,55.1-48.9H245z"/>
			<path d="M300,188.6c-31,0-56.3-22.5-56.3-50.1v-1.2h112.6v1.2C356.3,166.1,331.1,188.6,300,188.6z M246.2,139.8
				c0.7,25.7,24.6,46.4,53.8,46.4c29.2,0,53.1-20.7,53.8-46.4H246.2z"/>
		</g>
		<g>
			<g>
				<g>
					<path style="fill:#E2E2E2;" d="M272.8,166.8L272.8,166.8c-3.6,0-6.6-3-6.6-6.6V160c0-3.6,3-6.6,6.6-6.6l0,0
						c3.6,0,6.6,3,6.6,6.6v0.2C279.4,163.9,276.4,166.8,272.8,166.8z"/>
					<path d="M275.7,168h-5.8c-2.7,0-4.9-2.2-4.9-4.9v-6c0-2.7,2.2-4.9,4.9-4.9h5.8c2.7,0,4.9,2.2,4.9,4.9v6
						C280.6,165.8,278.4,168,275.7,168z M269.9,154.6c-1.4,0-2.5,1.1-2.5,2.5v6c0,1.4,1.1,2.5,2.5,2.5h5.8c1.4,0,2.5-1.1,2.5-2.5v-6
						c0-1.4-1.1-2.5-2.5-2.5H269.9z"/>
				</g>
				<g>
					<path style="fill:#E2E2E2;" d="M324,166.8L324,166.8c-3.6,0-6.6-3-6.6-6.6V160c0-3.6,3-6.6,6.6-6.6l0,0c3.6,0,6.6,3,6.6,6.6
						v0.2C330.6,163.9,327.6,166.8,324,166.8z"/>
					<path d="M326.9,168h-5.8c-2.7,0-4.9-2.2-4.9-4.9v-6c0-2.7,2.2-4.9,4.9-4.9h5.8c2.7,0,4.9,2.2,4.9,4.9v6
						C331.8,165.8,329.6,168,326.9,168z M321.1,154.6c-1.4,0-2.5,1.1-2.5,2.5v6c0,1.4,1.1,2.5,2.5,2.5h5.8c1.4,0,2.5-1.1,2.5-2.5v-6
						c0-1.4-1.1-2.5-2.5-2.5H321.1z"/>
				</g>
			</g>
			<g>
				<path style="fill:#DAACD6;" d="M341.6,101.9c-0.5-0.3-1.7-1.2-3.4-2.2c0.1-0.6,0.2-1.3,0.2-2c0-5.5-4.5-10-10-10
					c-3.2,0-6,1.5-7.9,3.9c-8.6-2.2-17.9-1.9-22.2-1.9c-4.3,0-13.6-0.3-22.2,1.9c-1.8-2.3-4.6-3.9-7.9-3.9c-5.5,0-10,4.5-10,10
					c0,0.7,0.1,1.3,0.2,2c-1.7,1.1-2.9,1.9-3.4,2.2c-14.9,9.9-22.3,24.5-22.3,39.3v6.3c0,6.9,6.3,12.5,14.1,12.5
					c0,0,32.4-5.8,51.4-5.8c19,0,51.4,5.8,51.4,5.8c7.8,0,14.1-5.6,14.1-12.5v-6.3C363.9,126.4,356.5,111.8,341.6,101.9z"/>
				<path d="M349.8,161.2l-0.2,0c-0.3-0.1-32.5-5.8-51.2-5.8c-18.7,0-50.9,5.7-51.2,5.8l-0.2,0c-8.4,0-15.3-6.1-15.3-13.7v-6.3
					c0-16,8.3-30.7,22.8-40.3c0.2-0.1,0.5-0.3,0.9-0.6c0.5-0.3,1.1-0.8,1.9-1.2c-0.1-0.5-0.1-0.9-0.1-1.4c0-6.2,5-11.2,11.2-11.2
					c3.2,0,6.2,1.4,8.3,3.7c7.7-1.8,15.9-1.8,20.4-1.7c1,0,1.7,0,2.7,0c4.5,0,12.6-0.1,20.4,1.7c2.1-2.4,5.1-3.7,8.3-3.7
					c6.2,0,11.2,5,11.2,11.2c0,0.5,0,0.9-0.1,1.4c0.8,0.5,1.4,0.9,1.9,1.2c0.4,0.2,0.6,0.4,0.8,0.6l0,0
					c14.5,9.6,22.8,24.3,22.8,40.3v6.3C365.1,155.1,358.2,161.2,349.8,161.2z M298.4,153c18.3,0,49.4,5.4,51.5,5.8
					c7,0,12.8-5.1,12.8-11.3v-6.3c0-15.1-7.9-29.1-21.7-38.2c-0.2-0.1-0.5-0.3-0.9-0.6c-0.6-0.4-1.5-1-2.5-1.6l-0.7-0.4l0.2-0.8
					c0.1-0.6,0.2-1.2,0.2-1.7c0-4.8-3.9-8.8-8.8-8.8c-2.7,0-5.2,1.2-6.9,3.4L321,93l-0.8-0.2c-7.7-1.9-16-1.9-20.5-1.9
					c-1,0-1.8,0-2.8,0c-4.5,0-12.9-0.1-20.5,1.9l-0.8,0.2l-0.5-0.6c-1.7-2.2-4.2-3.4-6.9-3.4c-4.8,0-8.8,3.9-8.8,8.8
					c0,0.6,0.1,1.2,0.2,1.7l0.2,0.8l-0.7,0.4c-1,0.7-1.9,1.2-2.5,1.6c-0.4,0.3-0.7,0.5-0.9,0.6c-13.8,9.1-21.7,23.1-21.7,38.2v6.3
					c0,6.2,5.7,11.2,12.8,11.3C249,158.4,280.1,153,298.4,153z"/>
			</g>
			<g>
				<circle style="fill:#7B3B76;" cx="268.3" cy="97.7" r="3.4"/>
				<path d="M268.3,102.3c-2.6,0-4.6-2.1-4.6-4.6s2.1-4.6,4.6-4.6s4.6,2.1,4.6,4.6S270.9,102.3,268.3,102.3z M268.3,95.5
					c-1.2,0-2.2,1-2.2,2.2s1,2.2,2.2,2.2c1.2,0,2.2-1,2.2-2.2S269.5,95.5,268.3,95.5z"/>
			</g>
			<g>
				<circle style="fill:#7B3B76;" cx="328.4" cy="97.7" r="3.4"/>
				<path d="M328.4,102.3c-2.6,0-4.6-2.1-4.6-4.6s2.1-4.6,4.6-4.6s4.6,2.1,4.6,4.6S331,102.3,328.4,102.3z M328.4,95.5
					c-1.2,0-2.2,1-2.2,2.2s1,2.2,2.2,2.2c1.2,0,2.2-1,2.2-2.2S329.6,95.5,328.4,95.5z"/>
			</g>
		</g>
	</g>
</g>
<g>
	<g>
		<g>
			<path style="fill:#61CDF9;" d="M138.5,96.3c0-25.9-21-46.9-46.9-46.9s-46.9,21-46.9,46.9v26.8h93.8V96.3z"/>
			<path d="M139.7,124.3H43.5v-28c0-26.5,21.6-48.1,48.1-48.1c26.5,0,48.1,21.6,48.1,48.1V124.3z M46,121.9h91.3V96.3
				c0-25.2-20.5-45.7-45.7-45.7S46,71.1,46,96.3V121.9z"/>
		</g>
		<g>
			<path style="fill:#61CDF9;" d="M68.6,58.3c0,0-2.5-14.5-19.1-14.1s-4.2,20.5,6.7,23.3"/>
			<path d="M56.2,68.7c-0.1,0-0.2,0-0.3,0c-8-2.1-16.4-12.5-15.7-19.4c0.3-2.3,1.8-6.2,9.2-6.3c0.2,0,0.4,0,0.6,0
				C67,43,69.8,58,69.8,58.1c0.1,0.7-0.3,1.3-1,1.4c-0.7,0.1-1.3-0.3-1.4-1l0,0c-0.1-0.5-2.6-13.5-17.9-13.1
				c-4.2,0.1-6.5,1.5-6.9,4.2c-0.7,5.7,7,14.9,13.8,16.7c0.7,0.2,1,0.8,0.9,1.5C57.2,68.4,56.7,68.7,56.2,68.7z"/>
		</g>
		<g>
			<path style="fill:#005E8F;" d="M59.7,63.9c0,0-4.9-9.6-13.3-12.4C46.4,51.5,46.7,61.8,59.7,63.9z"/>
			<path d="M59.7,65.1c-0.1,0-0.1,0-0.2,0c-7.1-1.2-10.6-4.7-12.3-7.5c-1.9-3.1-2-5.9-2-6c0-0.4,0.2-0.8,0.5-1
				c0.3-0.2,0.7-0.3,1.1-0.2c8.8,2.9,13.8,12.6,14,13c0.2,0.4,0.2,0.9-0.1,1.3C60.4,64.9,60.1,65.1,59.7,65.1z M48,53.5
				c0.7,2.5,2.9,6.7,9.2,8.6C55.4,59.5,52.2,55.6,48,53.5z"/>
		</g>
		<g>
			<path style="fill:#61CDF9;" d="M114.6,58.3c0,0,2.5-14.5,19.1-14.1s4.2,20.5-6.7,23.3"/>
			<path d="M127,68.7c-0.5,0-1-0.4-1.2-0.9c-0.2-0.7,0.2-1.3,0.9-1.5c6.9-1.8,14.5-11,13.8-16.7c-0.3-2.7-2.6-4.1-6.9-4.2
				c-15.3-0.3-17.8,12.6-17.9,13.1c-0.1,0.7-0.7,1.1-1.4,1c-0.7-0.1-1.1-0.7-1-1.4c0-0.2,2.8-15.1,19.7-15.1c0.2,0,0.4,0,0.6,0
				c7.4,0.2,9,4,9.2,6.3c0.8,6.8-7.7,17.3-15.7,19.4C127.2,68.7,127.1,68.7,127,68.7z"/>
		</g>
		<g>
			<path style="fill:#005E8F;" d="M123.6,63.9c0,0,4.9-9.6,13.3-12.4C136.9,51.5,136.5,61.8,123.6,63.9z"/>
			<path d="M123.6,65.1c-0.4,0-0.8-0.2-1-0.5c-0.3-0.4-0.3-0.9-0.1-1.3c0.2-0.4,5.2-10.1,14-13c0.4-0.1,0.8-0.1,1.1,0.2
				c0.3,0.2,0.5,0.6,0.5,1c0,0.1-0.6,11.3-14.3,13.5C123.7,65.1,123.6,65.1,123.6,65.1z M135.3,53.5c-4.3,2.1-7.5,6-9.2,8.6
				C132.4,60.2,134.5,56,135.3,53.5z"/>
		</g>
		<g>
			<circle cx="77.4" cy="79.9" r="4.1"/>
			<circle cx="105.9" cy="79.9" r="4.1"/>
		</g>
		<path d="M83.7,69.2c-1.7,0-4.3-0.3-5.4-2.5c-0.4-0.8-0.5-1.6-0.5-2.4c-0.1-1.8-0.1-3.7,0-5.6c0-0.7,0.6-1.2,1.3-1.2
			c0.7,0,1.2,0.6,1.2,1.3c-0.1,1.8-0.1,3.6,0,5.3c0,0.6,0.1,1.1,0.3,1.5c0.4,0.9,1.8,1.3,4.2,1.1l1-3.3c0.1-0.5,0.5-0.8,1-0.8
			c0.5-0.1,0.9,0.2,1.2,0.6l1.9,3.2c0,0.1,0.2,0.3,0.2,0.3c0.1,0,0.2,0,0.3,0l3.4,0c0.1,0,0.2,0,0.3,0c0-0.1,0.1-0.2,0.1-0.3
			c0.3-0.9,0.6-1.9,0.8-2.8c0.1-0.5,0.5-0.8,1-0.9c0.5-0.1,1,0.1,1.2,0.5c0.7,1,1.3,1.8,2.1,2.4c0.8,0.6,1.6,0.8,2.3,0.6
			c1.4-0.3,2-2.2,2.2-3.9c0.1-1.2,0.1-2.5-0.1-3.7c-0.1-0.7,0.4-1.3,1-1.4c0.7-0.1,1.3,0.4,1.4,1c0.2,1.4,0.2,2.8,0.1,4.2
			c-0.3,3.2-1.8,5.4-4,6c-1.4,0.4-3,0-4.4-1.1c-0.4-0.3-0.7-0.6-1-1c-0.1,0.2-0.2,0.5-0.2,0.7c-0.1,0.4-0.4,1.1-1,1.5
			c-0.6,0.4-1.3,0.4-1.7,0.4l-3.4,0c-0.4,0-0.9,0-1.4-0.3c-0.7-0.3-1-0.9-1.3-1.3l-0.5-0.9L87,67.4c-0.1,0.3-0.3,0.9-0.8,1.3
			c-0.5,0.4-1.1,0.4-1.4,0.4C84.5,69.2,84.2,69.2,83.7,69.2z M94.1,66.8L94.1,66.8L94.1,66.8z M84.8,66.7L84.8,66.7L84.8,66.7z
			 M94.1,66.7L94.1,66.7L94.1,66.7z"/>
	</g>
	<g>
		<path style="fill:#61CDF9;" d="M44.2,138.5c0,27,21.9,48.9,48.9,48.9s48.9-21.9,48.9-48.9H44.2z"/>
		<path d="M93.1,188.6c-27.6,0-50.1-22.5-50.1-50.1v-1.2h100.1v1.2C143.2,166.1,120.7,188.6,93.1,188.6z M45.5,139.8
			c0.6,25.7,21.8,46.4,47.6,46.4s47-20.7,47.6-46.4H45.5z"/>
	</g>
	<g>
		<g>
			<g>
				<path style="fill:#E2E2E2;" d="M68.9,162.8L68.9,162.8c-3.2,0-5.9-2.6-5.9-5.9v-1.7c0-3.2,2.6-5.9,5.9-5.9h0
					c3.2,0,5.9,2.6,5.9,5.9v1.7C74.8,160.1,72.2,162.8,68.9,162.8z"/>
				<path d="M71.3,164h-4.7c-2.6,0-4.7-2.1-4.7-4.7v-6.5c0-2.6,2.1-4.7,4.7-4.7h4.7c2.6,0,4.7,2.1,4.7,4.7v6.5
					C76,161.9,73.9,164,71.3,164z M66.5,150.5c-1.3,0-2.3,1-2.3,2.3v6.5c0,1.3,1,2.3,2.3,2.3h4.7c1.3,0,2.3-1,2.3-2.3v-6.5
					c0-1.3-1-2.3-2.3-2.3H66.5z"/>
			</g>
			<g>
				<path style="fill:#E2E2E2;" d="M114.3,162.8L114.3,162.8c-3.2,0-5.9-2.6-5.9-5.9v-1.7c0-3.2,2.6-5.9,5.9-5.9h0
					c3.2,0,5.9,2.6,5.9,5.9v1.7C120.2,160.1,117.6,162.8,114.3,162.8z"/>
				<path d="M116.7,164H112c-2.6,0-4.7-2.1-4.7-4.7v-6.5c0-2.6,2.1-4.7,4.7-4.7h4.7c2.6,0,4.7,2.1,4.7,4.7v6.5
					C121.4,161.9,119.3,164,116.7,164z M112,150.5c-1.3,0-2.3,1-2.3,2.3v6.5c0,1.3,1,2.3,2.3,2.3h4.7c1.3,0,2.3-1,2.3-2.3v-6.5
					c0-1.3-1-2.3-2.3-2.3H112z"/>
			</g>
		</g>
		<g>
			<path style="fill:#61CDF9;" d="M130,101.9c0.8-1.2,1.6-9.7-4.9-12.2c-6.1-2.3-11,1.1-12.2,3.7c-7.1-2.9-13-3.7-21.3-3.7
				s-14.2,0.7-21.3,3.7c-1.2-2.5-6.1-6-12.2-3.7c-6.5,2.5-5.7,11-4.9,12.2c-13.2,9.9-19.7,24.5-19.7,39.3v6.3
				c0,6.9,5.6,12.5,12.5,12.5c0,0,25.3-6.6,45.6-6.6s45.6,6.6,45.6,6.6c6.9,0,12.5-5.6,12.5-12.5v-6.3
				C149.7,126.4,143.2,111.8,130,101.9z"/>
			<path d="M137.2,161.2h-0.2l-0.2,0c-0.3-0.1-25.4-6.6-45.3-6.6c-19.9,0-45,6.5-45.3,6.6l-0.2,0H46c-7.6,0-13.7-6.1-13.7-13.7v-6.3
				c0-15.7,7.1-30.1,19.5-39.7c-0.4-1.6-0.5-4.4,0.3-6.9c0.9-2.9,2.9-5,5.6-6c5.8-2.2,11,0.3,13.1,3.3c7.2-2.8,13.3-3.4,20.8-3.4
				c7.5,0,13.6,0.6,20.8,3.4c2.2-3,7.4-5.5,13.1-3.3c2.7,1,4.6,3.1,5.6,6c0.8,2.5,0.8,5.3,0.3,6.9c12.4,9.6,19.5,24,19.5,39.7v6.3
				C150.9,155.1,144.8,161.2,137.2,161.2z M91.6,152.2c19.4,0,43.6,6.1,45.8,6.6c6.1-0.1,11.1-5.1,11.1-11.3v-6.3
				c0-15.2-7-29.1-19.3-38.3l-0.9-0.7l0.6-0.9c0.3-0.5,0.7-3.5-0.3-6.3c-0.8-2-2.1-3.4-4-4.1c-5.4-2.1-9.7,1-10.7,3.1l-0.5,1
				l-1.1-0.4c-7.2-3-13.1-3.6-20.8-3.6c-7.7,0-13.5,0.6-20.8,3.6L69.8,95l-0.5-1c-1-2-5.3-5.1-10.7-3.1c-1.9,0.7-3.2,2.1-4,4.1
				c-1,2.8-0.6,5.8-0.3,6.3l0.6,1l-0.9,0.7C41.8,112,34.7,126,34.7,141.2v6.3c0,6.2,5,11.2,11.1,11.3
				C48,158.2,72.2,152.2,91.6,152.2z"/>
		</g>
		<g>
			<circle style="fill:#005E8F;" cx="61.6" cy="97.7" r="3.4"/>
			<path d="M61.6,102.3c-2.6,0-4.6-2.1-4.6-4.6s2.1-4.6,4.6-4.6s4.6,2.1,4.6,4.6S64.1,102.3,61.6,102.3z M61.6,95.5
				c-1.2,0-2.2,1-2.2,2.2s1,2.2,2.2,2.2c1.2,0,2.2-1,2.2-2.2S62.8,95.5,61.6,95.5z"/>
		</g>
		<g>
			<circle style="fill:#005E8F;" cx="121.7" cy="97.7" r="3.4"/>
			<path d="M121.7,102.3c-2.6,0-4.6-2.1-4.6-4.6s2.1-4.6,4.6-4.6s4.6,2.1,4.6,4.6S124.2,102.3,121.7,102.3z M121.7,95.5
				c-1.2,0-2.2,1-2.2,2.2s1,2.2,2.2,2.2c1.2,0,2.2-1,2.2-2.2S122.9,95.5,121.7,95.5z"/>
		</g>
	</g>
</g>
<g>
	<g>
		<g>
			<path style="fill:#AAAAAA;" d="M228.1,272c-0.1,0,12.1,58.1,13.8,68.5c0.2,1.4,0.4,2.9-0.2,4.3c-1.8,4-15.1,5.2-19.2,5.2
				c-5.2,0-15.3,0-21.4-1.9c-1.7-0.6-2.9-1.9-3.3-3.4c-0.4-1.6-0.8-3.8-0.8-5.2c0-2.6,0.1-62.4,0.1-62.4L228.1,272z"/>
			<path d="M221.7,351.2c-5.5,0-15-0.1-21-2c-2.1-0.7-3.6-2.3-4.1-4.3c-0.5-2.4-0.8-4.2-0.8-5.5c0-2.6,0.1-61.8,0.1-62.4l0-1l32-5.2
				l0.2,1.2l1.2-0.2c0.1,0.4,1,5.1,2.3,11.2c3.6,17.4,10.3,49.8,11.5,57.3c0.3,1.6,0.5,3.4-0.3,5c-2.5,5.6-20.1,5.9-20.3,5.9l-0.3,0
				C222,351.2,221.9,351.2,221.7,351.2z M198.3,278.1c0,8-0.1,59-0.1,61.3c0,1.1,0.3,2.8,0.7,5c0.3,1.2,1.2,2.1,2.5,2.5
				c5.8,1.9,15.5,1.9,20.7,1.9h0.3c5.5,0,16.8-1.6,18.1-4.5c0.5-1,0.3-2.2,0.1-3.6c-1.2-7.5-7.9-39.8-11.5-57.2
				c-0.7-3.4-1.3-6.2-1.7-8.2c-0.2-0.8-0.3-1.5-0.4-2L198.3,278.1z"/>
		</g>
		<g>
			<path style="fill:#E2E2E2;" d="M229.2,349c0-1.4,0-2.8,0.2-4.3c0.2-1.1,0.5-2.2,1.1-3.2c1.1-1.8,3.3-3.2,5.4-2.5
				c1.4,0.5,2.4,1.8,2.8,3.2c0.4,1.4,0.4,2.9,0.2,4.3c0,0-1,1-4.5,1.8C230.9,349.2,229.2,349,229.2,349z"/>
			<path d="M229.9,350.2c-0.5,0-0.7,0-0.8,0c-0.6-0.1-1.1-0.6-1.1-1.2l0-0.4c0-1.3,0-2.7,0.2-4.1c0.2-1.4,0.6-2.6,1.2-3.6
				c1.3-2.2,4.1-4,6.8-3c1.6,0.6,3,2,3.6,4c0.5,1.6,0.4,3.3,0.3,4.8c0,0.3-0.2,0.6-0.4,0.8c-0.2,0.2-1.4,1.2-5,2.1
				C232.3,350.1,230.7,350.2,229.9,350.2z M230.4,349L230.4,349L230.4,349z M229.2,349L229.2,349L229.2,349z M234.7,340.1
				c-1.3,0-2.5,0.9-3.2,2.1c-0.4,0.7-0.7,1.7-0.9,2.8c-0.2,0.9-0.2,1.9-0.2,2.9c0.8,0,2-0.2,3.7-0.6c2-0.5,3.1-1,3.6-1.3
				c0.1-1.1,0.1-2.3-0.2-3.3c-0.3-1.2-1.1-2.1-2-2.4C235.2,340.1,235,340.1,234.7,340.1z"/>
		</g>
		<g>
			<path style="fill:#E2E2E2;" d="M214.9,349.9c0-1.4,0-2.8-0.2-4.3c-0.2-1.1-0.5-2.2-1.1-3.2c-1.1-1.8-3.3-3.2-5.4-2.5
				c-1.4,0.5-2.4,1.8-2.8,3.2c-0.4,1.4-0.5,4.4-0.3,5.9c0,0,0.8,0.6,4.7,0.7C213.3,349.8,214.9,349.9,214.9,349.9z"/>
			<path d="M214.9,351.1C214.9,351.1,214.9,351.1,214.9,351.1c-0.1,0-1.7-0.1-5.2-0.2c-3.8-0.1-5-0.7-5.3-1
				c-0.3-0.2-0.5-0.5-0.5-0.9c-0.1-1.4-0.1-4.7,0.4-6.4c0.6-1.9,1.9-3.4,3.6-4c2.7-0.9,5.6,0.9,6.8,3c0.6,1,1,2.2,1.2,3.6
				c0.2,1.4,0.2,2.8,0.2,4.1l0,0.4c0,0.3-0.1,0.7-0.4,0.9C215.5,351,215.2,351.1,214.9,351.1z M206.3,348.1c0.6,0.1,1.6,0.3,3.5,0.4
				c1.8,0,3,0.1,3.9,0.1c0-0.9,0-1.9-0.2-2.8c-0.2-1.1-0.5-2-0.9-2.8c-0.8-1.3-2.5-2.4-3.9-1.9c-0.9,0.3-1.7,1.2-2,2.4
				C206.4,344.5,206.3,346.7,206.3,348.1z"/>
		</g>
		<g>
			<path style="fill:#E2E2E2;" d="M217.5,349.9c0-1.4,0-2.8,0.2-4.3c0.2-1.1,0.5-2.2,1.1-3.2c1.1-1.8,3.3-3.2,5.4-2.5
				c1.4,0.5,2.4,1.8,2.8,3.2c0.4,1.4,0.5,4.9,0.4,6.3c0,0-0.5,0.3-3.9,0.5C219.6,350.1,217.5,349.9,217.5,349.9z"/>
			<path d="M220.4,351.2c-1.9,0-3-0.1-3-0.1c-0.6-0.1-1.1-0.6-1.1-1.2l0-0.4c0-1.3,0-2.7,0.2-4.1c0.2-1.4,0.6-2.6,1.2-3.6
				c1.3-2.2,4.1-4,6.8-3c1.6,0.6,3,2,3.6,4c0.5,1.6,0.6,5.2,0.4,6.8c0,0.4-0.3,0.8-0.6,0.9c-0.2,0.1-0.7,0.4-4.4,0.6
				C222.3,351.2,221.3,351.2,220.4,351.2z M218.7,349.9L218.7,349.9L218.7,349.9z M217.5,349.9L217.5,349.9L217.5,349.9z
				 M218.7,348.7c1,0,2.5,0.1,4.6-0.1c1.4-0.1,2.3-0.2,2.9-0.3c0-1.6-0.1-4-0.4-5c-0.3-1.2-1.1-2.1-2-2.4c-1.5-0.5-3.1,0.6-3.9,1.9
				c-0.4,0.7-0.7,1.7-0.9,2.8C218.7,346.8,218.7,347.7,218.7,348.7z"/>
		</g>
	</g>
	<g>
		<g>
			<path style="fill:#AAAAAA;" d="M160.3,272c0.1,0-12.1,58.1-13.8,68.5c-0.2,1.4-0.4,2.9,0.2,4.3c1.8,4,15.1,5.2,19.2,5.2
				c5.2,0,15.3,0,21.4-1.9c1.7-0.6,2.9-1.9,3.3-3.4c0.4-1.6,0.8-3.8,0.8-5.2c0-2.6-0.1-62.4-0.1-62.4L160.3,272z"/>
			<path d="M166.7,351.2c-0.2,0-0.3,0-0.5,0l-0.3,0c-0.2,0-17.8-0.3-20.3-5.9c-0.7-1.6-0.5-3.4-0.3-5c1.2-7.5,7.9-39.9,11.5-57.3
				c1.2-6.1,2.2-10.8,2.3-11.2l1.2,0.2l0.2-1.2l32,5.2l0,1c0,0.6,0.1,59.8,0.1,62.4c0,1.3-0.3,3.1-0.8,5.5c-0.5,2-2,3.6-4.1,4.3
				C181.7,351.2,172.1,351.2,166.7,351.2z M161.2,273.4c-0.1,0.5-0.2,1.1-0.4,2c-0.4,2-1,4.8-1.7,8.2c-3.6,17.4-10.2,49.7-11.5,57.2
				c-0.2,1.4-0.4,2.6,0.1,3.6c1.3,2.9,12.6,4.5,18.1,4.5h0.3c5.2,0,15,0,20.7-1.9c1.3-0.4,2.2-1.4,2.5-2.5c0.5-2.2,0.7-3.9,0.7-5
				c0-2.4-0.1-53.4-0.1-61.3L161.2,273.4z"/>
		</g>
		<g>
			<path style="fill:#E2E2E2;" d="M159.1,349c0-1.4,0-2.8-0.2-4.3c-0.2-1.1-0.5-2.2-1.1-3.2c-1.1-1.8-3.3-3.2-5.4-2.5
				c-1.4,0.5-2.4,1.8-2.8,3.2c-0.4,1.4-0.4,2.9-0.2,4.3c0,0,1,1,4.5,1.8C157.4,349.2,159.1,349,159.1,349z"/>
			<path d="M158.5,350.2c-0.9,0-2.5-0.1-4.8-0.7c-3.6-0.9-4.8-1.9-5-2.1c-0.2-0.2-0.3-0.5-0.4-0.8c-0.2-1.5-0.2-3.2,0.3-4.8
				c0.6-1.9,1.9-3.4,3.6-4c2.7-0.9,5.6,0.9,6.8,3c0.6,1,1,2.2,1.2,3.6c0.2,1.4,0.2,2.8,0.2,4.1l0,0.4c0,0.6-0.5,1.1-1.1,1.2
				C159.2,350.2,159,350.2,158.5,350.2z M159.1,349L159.1,349L159.1,349z M150.6,345.8c0.5,0.3,1.6,0.8,3.6,1.3
				c1.7,0.4,2.9,0.6,3.7,0.6c0-1,0-1.9-0.2-2.9c-0.2-1.1-0.5-2-0.9-2.8c-0.8-1.3-2.5-2.4-3.9-1.9c-0.9,0.3-1.7,1.2-2,2.4
				C150.5,343.6,150.5,344.7,150.6,345.8z"/>
		</g>
		<g>
			<path style="fill:#E2E2E2;" d="M173.4,349.9c0-1.4,0-2.8,0.2-4.3c0.2-1.1,0.5-2.2,1.1-3.2c1.1-1.8,3.3-3.2,5.4-2.5
				c1.4,0.5,2.4,1.8,2.8,3.2c0.4,1.4,0.5,4.4,0.3,5.9c0,0-0.8,0.6-4.7,0.7C175,349.8,173.4,349.9,173.4,349.9z"/>
			<path d="M173.4,351.1c-0.3,0-0.6-0.1-0.8-0.3c-0.2-0.2-0.4-0.5-0.4-0.9l0-0.4c0-1.3,0-2.7,0.2-4.1c0.2-1.4,0.6-2.6,1.2-3.6
				c1.3-2.2,4.1-4,6.8-3c1.6,0.6,3,2,3.6,4c0.5,1.7,0.5,5,0.4,6.4c0,0.3-0.2,0.7-0.5,0.9c-0.3,0.3-1.6,0.9-5.3,1
				C175.1,351,173.5,351.1,173.4,351.1C173.4,351.1,173.4,351.1,173.4,351.1z M174.6,349.9L174.6,349.9L174.6,349.9z M178.9,341
				c-1.3,0-2.5,0.9-3.2,2.1c-0.4,0.7-0.7,1.7-0.9,2.8c-0.2,0.9-0.2,1.8-0.2,2.8c0.8,0,2.1-0.1,3.9-0.1c1.9-0.1,3-0.2,3.5-0.4
				c0.1-1.5,0-3.7-0.3-4.7c-0.3-1.2-1.1-2.1-2-2.4C179.4,341,179.2,341,178.9,341z"/>
		</g>
		<g>
			<path style="fill:#E2E2E2;" d="M170.8,349.9c0-1.4,0-2.8-0.2-4.3c-0.2-1.1-0.5-2.2-1.1-3.2c-1.1-1.8-3.3-3.2-5.4-2.5
				c-1.4,0.5-2.4,1.8-2.8,3.2c-0.4,1.4-0.5,4.9-0.4,6.3c0,0,0.5,0.3,3.9,0.5C168.7,350.1,170.8,349.9,170.8,349.9z"/>
			<path d="M168,351.2c-0.9,0-1.9,0-3.1-0.1c-3.7-0.3-4.3-0.5-4.4-0.6c-0.4-0.2-0.6-0.5-0.6-0.9c-0.2-1.6,0-5.2,0.4-6.8
				c0.6-1.9,1.9-3.4,3.6-4c2.7-0.9,5.6,0.9,6.8,3c0.6,1,1,2.2,1.2,3.6c0.2,1.4,0.2,2.8,0.2,4.1l0,0.4c0,0.6-0.5,1.1-1.1,1.2
				C170.9,351.1,169.9,351.2,168,351.2z M170.8,349.9L170.8,349.9L170.8,349.9z M162.2,348.4c0.5,0.1,1.4,0.2,2.9,0.3
				c2.1,0.1,3.6,0.1,4.6,0.1c0-1,0-2-0.2-2.9c-0.2-1.1-0.5-2-0.9-2.8c-0.8-1.3-2.5-2.4-3.9-1.9c-0.9,0.3-1.7,1.2-2,2.4
				C162.3,344.4,162.1,346.8,162.2,348.4z"/>
		</g>
	</g>
	<g>
		<g>
			<path style="fill:#AAAAAA;" d="M225.5,193.3c1-0.4,2-0.7,3.1-1c9.3-2.3,19,5.5,26.2,10.8c9.1,6.7,15.9,15.8,19.8,26.4
				c2.4,6.4,3.5,13,4.8,19.7c0.8,4.1,1.7,9.9-3.3,11.6c-7.7,2.5-16,2.2-24.1,1.9c-1.5-0.1-3.7,0.2-4.4-1.4c-0.3-0.8-0.2-1.6-0.2-2.4
				c0.3-4.8,0.8-10.1,0.2-14.8c-0.6-4.8-2.7-9.3-4.9-13.6c-2.6-5.1-5.8-10.2-10.3-13.9c-4.8-3.9-10-6.9-12.3-12.8
				C218,198.3,220.9,195.2,225.5,193.3z"/>
			<path d="M259.8,264.1c-2.7,0-5.3-0.1-7.8-0.2c-0.2,0-0.4,0-0.7,0c0,0,0,0,0,0c-1.5,0-3.9,0-4.8-2.2c-0.4-1-0.3-2-0.3-3
				c0-0.6,0.1-1.2,0.1-1.8c0.3-4.3,0.6-8.8,0.1-12.8c-0.6-4.6-2.6-9.1-4.8-13.2c-2.2-4.3-5.3-9.7-10-13.5c-0.9-0.7-1.9-1.5-2.8-2.2
				c-3.9-3-7.9-6-9.9-11.1c-2.1-5.4,0.1-9.6,6.1-12h0c1-0.4,2.1-0.7,3.2-1c9.2-2.3,18.9,4.8,25.9,9.9c0.5,0.3,0.9,0.7,1.4,1
				c9.2,6.8,16.3,16.1,20.3,27c2.1,5.7,3.2,11.7,4.3,17.4c0.2,0.8,0.3,1.7,0.5,2.5c0.7,3.5,2.1,10.9-4.1,13
				C271.1,263.7,265.3,264.1,259.8,264.1z M225.9,194.5c-3,1.2-6.8,3.4-4.7,8.8c1.7,4.4,5.3,7.2,9.1,10.1c0.9,0.7,1.9,1.5,2.9,2.2
				c5,4.1,8.3,9.8,10.6,14.3c2.2,4.3,4.3,9,5,14c0.6,4.3,0.3,8.9,0,13.3c0,0.6-0.1,1.2-0.1,1.8c0,0.7-0.1,1.4,0.1,1.9
				c0.2,0.6,1.2,0.6,2.5,0.6c0.3,0,0.5,0,0.8,0c7.9,0.3,16.1,0.6,23.7-1.9c3.5-1.1,3.6-4.7,2.5-10.2c-0.2-0.8-0.3-1.7-0.5-2.5
				c-1.1-5.9-2.2-11.5-4.2-17c-3.8-10.4-10.6-19.4-19.4-25.8c-0.5-0.3-0.9-0.7-1.4-1c-7-5.2-15.7-11.6-23.8-9.5
				C227.8,193.8,226.8,194.1,225.9,194.5L225.9,194.5z"/>
		</g>
		<g>
			<path style="fill:#E2E2E2;" d="M269.7,261.9c0-1.3,0-2.5,0.2-3.7c0.2-1,0.4-1.9,0.9-2.8c0.9-1.6,2.9-2.8,4.7-2.2
				c1.2,0.4,2.1,1.5,2.4,2.8s0.3,2.5,0.2,3.8c0,0-0.9,0.8-3.9,1.6S269.7,261.9,269.7,261.9z"/>
			<path d="M270.2,263.1c-0.4,0-0.7,0-0.7,0c-0.6-0.1-1.1-0.6-1.1-1.2l0-0.4c0-1.1,0-2.3,0.2-3.6c0.2-1.3,0.6-2.3,1.1-3.2
				c1.1-1.9,3.7-3.6,6.1-2.7c1.5,0.5,2.7,1.8,3.2,3.6c0.4,1.4,0.4,2.9,0.2,4.3c0,0.3-0.2,0.6-0.4,0.8c-0.2,0.2-1.3,1.1-4.5,1.9
				C272.5,263,271,263.1,270.2,263.1z M270.9,261.9L270.9,261.9L270.9,261.9z M269.7,261.9L269.7,261.9L269.7,261.9z M274.5,254.2
				c-1,0-2.1,0.8-2.7,1.7c-0.4,0.6-0.6,1.4-0.8,2.4c-0.1,0.8-0.2,1.5-0.2,2.3c0.7,0,1.7-0.2,3-0.5c1.7-0.4,2.6-0.8,3-1.1
				c0.1-0.9,0.1-1.9-0.2-2.8c-0.3-1-0.9-1.7-1.7-2C274.9,254.3,274.7,254.2,274.5,254.2z"/>
		</g>
		<g>
			<path style="fill:#E2E2E2;" d="M259.6,262.9c0-1.3,0-2.5,0.2-3.7c0.2-1,0.4-1.9,0.9-2.8c0.9-1.6,2.9-2.8,4.7-2.2
				c1.2,0.4,2.1,1.5,2.4,2.8c0.4,1.2,0.5,4.3,0.3,5.5c0,0-0.4,0.2-3.4,0.4C261.4,263.1,259.6,262.9,259.6,262.9z"/>
			<path d="M262.1,264.2c-1.7,0-2.6-0.1-2.7-0.1c-0.6-0.1-1.1-0.6-1.1-1.2l0-0.4c0-1.1,0-2.3,0.2-3.6c0.2-1.3,0.6-2.3,1.1-3.2
				c1.1-1.9,3.7-3.5,6.1-2.7c1.5,0.5,2.7,1.8,3.2,3.6c0.4,1.4,0.5,4.6,0.4,6c0,0.4-0.3,0.8-0.6,0.9c-0.2,0.1-0.6,0.4-3.9,0.6
				C263.8,264.2,262.9,264.2,262.1,264.2z M260.8,262.9L260.8,262.9L260.8,262.9z M259.6,262.9L259.6,262.9L259.6,262.9z
				 M260.8,261.7c0.8,0,2.2,0.1,3.9-0.1c1.1-0.1,1.9-0.2,2.4-0.2c0-1.4-0.1-3.4-0.3-4.2c-0.3-1-0.9-1.7-1.7-2
				c-1.2-0.4-2.6,0.5-3.3,1.6c-0.4,0.6-0.6,1.4-0.8,2.4C260.8,260.1,260.8,260.9,260.8,261.7z"/>
		</g>
	</g>
	<g>
		<g>
			<path style="fill:#AAAAAA;" d="M159.9,193.3c-1-0.4-2-0.7-3.1-1c-9.3-2.3-19,5.5-26.2,10.8c-9.1,6.7-15.9,15.8-19.8,26.4
				c-2.4,6.4-3.5,13-4.8,19.7c-0.8,4.1-1.7,9.9,3.3,11.6c7.7,2.5,16,2.2,24.1,1.9c1.5-0.1,3.7,0.2,4.4-1.4c0.3-0.8,0.2-1.6,0.2-2.4
				c-0.3-4.8-0.8-10.1-0.2-14.8c0.6-4.8,2.7-9.3,4.9-13.6c2.6-5.1,5.8-10.2,10.3-13.9c4.8-3.9,10-6.9,12.3-12.8
				C167.4,198.3,164.6,195.2,159.9,193.3z"/>
			<path d="M125.6,264.1c-5.5,0-11.3-0.4-16.7-2.2c-6.3-2-4.8-9.4-4.1-13c0.2-0.8,0.3-1.6,0.5-2.5c1.1-5.8,2.2-11.7,4.3-17.4
				c4-10.9,11-20.2,20.3-27c0.4-0.3,0.9-0.7,1.4-1c7-5.2,16.6-12.2,25.9-9.9c1.2,0.3,2.3,0.6,3.2,1l0,0c6,2.4,8.2,6.6,6.1,12
				c-2,5.1-6,8.1-9.9,11.1c-0.9,0.7-1.9,1.4-2.8,2.2c-4.7,3.8-7.8,9.2-10,13.5c-2.1,4.1-4.1,8.6-4.8,13.2c-0.5,4-0.2,8.5,0.1,12.8
				c0,0.6,0.1,1.2,0.1,1.8c0.1,0.9,0.1,2-0.3,3c-0.9,2.2-3.3,2.2-4.8,2.2c0,0-0.1,0-0.1,0c-0.2,0-0.4,0-0.6,0
				C130.9,264,128.3,264.1,125.6,264.1z M153.4,193.2c-7.2,0-14.6,5.4-20.7,9.9c-0.5,0.3-0.9,0.7-1.4,1
				c-8.9,6.5-15.6,15.4-19.4,25.8c-2,5.5-3.1,11.1-4.2,17c-0.2,0.8-0.3,1.7-0.5,2.5c-1.1,5.4-1,9,2.5,10.2
				c7.6,2.5,15.8,2.2,23.7,1.9c0.2,0,0.5,0,0.8,0c0,0,0,0,0,0c1.3,0,2.3,0,2.5-0.6c0.2-0.5,0.2-1.2,0.1-1.9c0-0.6-0.1-1.2-0.1-1.8
				c-0.3-4.4-0.6-9,0-13.3c0.7-5,2.8-9.7,5-14c2.3-4.5,5.6-10.2,10.6-14.3c0.9-0.8,1.9-1.5,2.9-2.2c3.8-2.9,7.4-5.6,9.1-10.1
				c2.1-5.4-1.7-7.6-4.7-8.8l0,0c-0.9-0.3-1.8-0.6-2.9-0.9C155.5,193.3,154.4,193.2,153.4,193.2z"/>
		</g>
		<g>
			<path style="fill:#E2E2E2;" d="M115.8,261.9c0-1.3,0-2.5-0.2-3.7c-0.2-1-0.4-1.9-0.9-2.8c-0.9-1.6-2.9-2.8-4.7-2.2
				c-1.2,0.4-2.1,1.5-2.4,2.8s-0.3,2.5-0.2,3.8c0,0,0.9,0.8,3.9,1.6C114.2,262.1,115.8,261.9,115.8,261.9z"/>
			<path d="M115.2,263.1c-0.8,0-2.2-0.1-4.3-0.6c-3.2-0.8-4.3-1.7-4.5-1.9c-0.2-0.2-0.3-0.5-0.4-0.8c-0.1-1.4-0.2-2.8,0.2-4.3
				c0.5-1.7,1.7-3.1,3.2-3.6c2.5-0.8,5,0.8,6.1,2.7c0.5,0.9,0.9,1.9,1.1,3.2c0.2,1.2,0.2,2.4,0.2,3.6l0,0.4c0,0.6-0.4,1.1-1.1,1.2
				C115.9,263.1,115.6,263.1,115.2,263.1z M115.8,261.9L115.8,261.9L115.8,261.9z M108.5,259.1c0.4,0.2,1.4,0.7,3,1.1
				c1.3,0.3,2.3,0.5,3,0.5c0-0.8,0-1.5-0.2-2.3c-0.2-1-0.4-1.8-0.8-2.4c-0.6-1.1-2.1-2-3.3-1.6c-0.7,0.2-1.4,1-1.7,2
				C108.4,257.2,108.4,258.1,108.5,259.1z"/>
		</g>
		<g>
			<path style="fill:#E2E2E2;" d="M125.9,262.9c0-1.3,0-2.5-0.2-3.7c-0.2-1-0.4-1.9-0.9-2.8c-0.9-1.6-2.9-2.8-4.7-2.2
				c-1.2,0.4-2.1,1.5-2.4,2.8c-0.4,1.2-0.5,4.3-0.3,5.5c0,0,0.4,0.2,3.4,0.4C124,263.1,125.9,262.9,125.9,262.9z"/>
			<path d="M123.3,264.2c-0.8,0-1.7,0-2.7-0.1c-3.3-0.2-3.8-0.5-3.9-0.6c-0.4-0.2-0.6-0.5-0.6-0.9c-0.1-1.4,0-4.6,0.4-6
				c0.5-1.7,1.7-3.1,3.2-3.6c2.5-0.8,5,0.8,6.1,2.7c0.5,0.9,0.9,1.9,1.1,3.2c0.2,1.2,0.2,2.4,0.2,3.6l0,0.4c0,0.6-0.5,1.1-1.1,1.2
				C126,264.1,125,264.2,123.3,264.2z M125.9,262.9L125.9,262.9L125.9,262.9z M118.4,261.5c0.5,0.1,1.2,0.1,2.4,0.2
				c1.7,0.1,3,0.1,3.9,0.1c0-0.8,0-1.6-0.2-2.4c-0.2-1-0.4-1.8-0.8-2.4c-0.6-1.1-2.1-2-3.3-1.6c-0.7,0.2-1.4,1-1.7,2
				C118.5,258.1,118.4,260.1,118.4,261.5z"/>
		</g>
	</g>
	<g>
		<g>
			<path style="fill:#242424;" d="M252.4,232.7c-4.3-16-6.9-18.1-11.4-40.9c-3.8-19.3-25.3-25.4-25.3-25.4c-16.7-3.3-43,0-43,0
				s-22.1,6-25.3,25.4c-3.2,19.5-7.1,24.9-11.4,40.9c-4.3,16,2,61.4,58.2,61.4S256.7,248.7,252.4,232.7z"/>
			<path d="M194.2,295.3c-22.1,0-39.4-7.2-49.8-20.8c-11.4-14.8-11.9-33.3-9.6-42.1c1.6-5.9,3.1-10.4,4.6-14.7
				c2.4-7.1,4.8-13.9,6.8-26.1c3.3-19.9,25.2-26.1,26.2-26.3l0.2,0c0.1,0,6.7-0.8,15.3-1.2c11.6-0.6,21.1-0.1,28.1,1.3l0.1,0
				c0.9,0.3,22.3,6.5,26.2,26.3c2.8,14.3,4.9,20.5,7.1,27c1.3,3.9,2.7,7.9,4.3,13.8c2.4,8.8,1.8,27.3-9.6,42.1
				C233.5,288.1,216.3,295.3,194.2,295.3z M172.9,167.6c-1.4,0.4-21.4,6.6-24.3,24.4c-2,12.4-4.4,19.3-6.9,26.5
				c-1.5,4.3-3,8.7-4.5,14.5c-2.2,8.3-1.7,25.9,9.2,40c10.1,13.2,26.2,19.9,47.9,19.9s37.8-6.7,47.9-19.9
				c10.8-14.1,11.4-31.6,9.2-40c-1.6-5.9-2.9-9.9-4.2-13.7c-2.2-6.6-4.3-12.8-7.2-27.3c-3.5-17.9-23.3-24.1-24.4-24.4
				C199.6,164.5,174.6,167.4,172.9,167.6z"/>
		</g>
		<g>
			<g>
				<path style="fill:#D8D8D8;" d="M166.9,211.8c-1.5,1.6-1.6,3.9-0.4,5.6c-1.8-1.1-4.1-0.8-5.6,0.8c-1.7,1.8-1.6,4.6,0.2,6.3
					c1.8,1.7,4.6,1.6,6.3-0.2c0.1-0.1,0.2-0.3,0.3-0.4l14.9,14l4.9-5.2l-15-14c0.3-0.2,0.6-0.4,0.8-0.7c1.7-1.8,1.6-4.6-0.2-6.3
					C171.4,209.9,168.6,210,166.9,211.8z"/>
				<path d="M182.6,239.1c-0.3,0-0.6-0.1-0.8-0.3l-14-13.1c-1,0.8-2.2,1.3-3.4,1.3c-1.5,0.1-3-0.5-4.1-1.5c-1.1-1-1.7-2.4-1.8-4
					c0-1.5,0.5-3,1.5-4.1c1.2-1.3,2.8-1.9,4.5-1.8c-0.2-1.6,0.3-3.3,1.5-4.6c2.1-2.3,5.8-2.4,8-0.3c1.1,1,1.7,2.4,1.8,4
					c0,1.5-0.5,2.9-1.4,4l14,13.1c0.2,0.2,0.4,0.5,0.4,0.9s-0.1,0.6-0.3,0.9l-4.9,5.2C183.3,239,183,239.1,182.6,239.1z
					 M167.7,222.7c0.3,0,0.6,0.1,0.8,0.3l14,13.1l3.2-3.5l-14.1-13.2c-0.3-0.3-0.4-0.6-0.4-1c0-0.4,0.2-0.7,0.6-0.9
					c0.3-0.2,0.5-0.3,0.6-0.5c0.6-0.6,0.9-1.5,0.9-2.3c0-0.9-0.4-1.7-1-2.3c-0.6-0.6-1.5-0.9-2.3-0.9c-0.9,0-1.7,0.4-2.3,1l0,0
					c-1,1.1-1.2,2.8-0.3,4.1c0.3,0.5,0.3,1.1-0.1,1.5c-0.4,0.4-1,0.5-1.5,0.2c-1.3-0.8-3-0.6-4.1,0.6c-0.6,0.6-0.9,1.5-0.9,2.3
					s0.4,1.7,1,2.3c1.3,1.2,3.4,1.2,4.6-0.1c0,0,0.1-0.1,0.1-0.2l0.1-0.1c0.2-0.3,0.5-0.5,0.9-0.5
					C167.6,222.7,167.7,222.7,167.7,222.7z M166.9,211.8L166.9,211.8L166.9,211.8z"/>
			</g>
			<g>
				<path style="fill:#D8D8D8;" d="M218.6,211.8c1.5,1.6,1.6,3.9,0.4,5.6c1.8-1.1,4.1-0.8,5.6,0.8c1.7,1.8,1.6,4.6-0.2,6.3
					c-1.8,1.7-4.6,1.6-6.3-0.2c-0.1-0.1-0.2-0.3-0.3-0.4l-14.9,14l-4.9-5.2l15-14c-0.3-0.2-0.6-0.4-0.8-0.7
					c-1.7-1.8-1.6-4.6,0.2-6.3C214,209.9,216.9,210,218.6,211.8z"/>
				<path d="M202.8,239.1c-0.3,0-0.6-0.1-0.9-0.4l-4.9-5.2c-0.2-0.2-0.3-0.5-0.3-0.9c0-0.3,0.1-0.6,0.4-0.9l14-13.1
					c-1-1.1-1.5-2.5-1.4-4c0-1.5,0.7-2.9,1.8-4c2.3-2.1,5.9-2,8,0.3l0,0c1.2,1.3,1.7,3,1.5,4.6c1.6-0.1,3.3,0.5,4.5,1.8
					c1,1.1,1.6,2.6,1.5,4.1s-0.7,2.9-1.8,4c-1.1,1-2.5,1.6-4.1,1.5c-1.3,0-2.5-0.5-3.4-1.3l-14,13.1
					C203.4,239,203.1,239.1,202.8,239.1z M199.6,232.7l3.2,3.5l14-13.1c0.3-0.2,0.6-0.4,0.9-0.3c0.3,0,0.7,0.2,0.9,0.5l0.1,0.1
					c0,0.1,0.1,0.1,0.1,0.2c1.2,1.3,3.3,1.4,4.6,0.1c0.6-0.6,1-1.4,1-2.3c0-0.9-0.3-1.7-0.9-2.3c-1-1.1-2.8-1.3-4.1-0.6
					c-0.5,0.3-1.1,0.2-1.5-0.2c-0.4-0.4-0.4-1.1-0.1-1.5c0.9-1.3,0.8-3-0.3-4.1l0,0c-0.6-0.6-1.4-1-2.3-1c-0.9,0-1.7,0.3-2.3,0.9
					c-1.3,1.2-1.4,3.3-0.1,4.6c0.2,0.2,0.4,0.3,0.6,0.5c0.3,0.2,0.5,0.5,0.6,0.9c0,0.4-0.1,0.7-0.4,1L199.6,232.7z"/>
			</g>
			<g>
				<path style="fill:#D8D8D8;" d="M166.9,269.6c-1.5-1.6-1.6-3.9-0.4-5.6c-1.8,1.1-4.1,0.8-5.6-0.8c-1.7-1.8-1.6-4.6,0.2-6.3
					c1.8-1.7,4.6-1.6,6.3,0.2c0.1,0.1,0.2,0.3,0.3,0.4l14.9-14l4.9,5.2l-15,14c0.3,0.2,0.6,0.4,0.8,0.7c1.7,1.8,1.6,4.6-0.2,6.3
					C171.4,271.5,168.6,271.4,166.9,269.6z"/>
				<path d="M170.1,272.2c-1.5,0-3-0.6-4.2-1.8l0,0c-1.2-1.3-1.7-3-1.5-4.6c-1.6,0.1-3.3-0.5-4.5-1.8c-1-1.1-1.6-2.6-1.5-4.1
					c0-1.5,0.7-2.9,1.8-4c1.1-1,2.5-1.6,4.1-1.5c1.3,0,2.5,0.5,3.4,1.3l14-13.1c0.5-0.5,1.3-0.4,1.7,0.1l4.9,5.2
					c0.2,0.2,0.3,0.5,0.3,0.9s-0.1,0.6-0.4,0.9l-14,13.1c1,1.1,1.5,2.5,1.4,4c0,1.5-0.7,2.9-1.8,4
					C172.9,271.7,171.5,272.2,170.1,272.2z M166.5,262.7c0.3,0,0.7,0.1,0.9,0.4c0.4,0.4,0.4,1.1,0.1,1.5c-0.9,1.3-0.8,3,0.3,4.1l0,0
					c1.2,1.3,3.3,1.4,4.6,0.1c0.6-0.6,1-1.4,1-2.3c0-0.9-0.3-1.7-0.9-2.3c-0.2-0.2-0.4-0.3-0.6-0.5c-0.3-0.2-0.5-0.5-0.6-0.9
					c0-0.4,0.1-0.7,0.4-1l14.1-13.2l-3.2-3.5l-14,13.1c-0.3,0.2-0.6,0.4-0.9,0.3c-0.3,0-0.7-0.2-0.9-0.5l-0.1-0.1
					c0-0.1-0.1-0.1-0.1-0.1c-1.2-1.3-3.3-1.4-4.6-0.1c-0.6,0.6-1,1.4-1,2.3s0.3,1.7,0.9,2.3c1,1.1,2.7,1.3,4.1,0.6
					C166,262.8,166.2,262.7,166.5,262.7z"/>
			</g>
			<g>
				<path style="fill:#D8D8D8;" d="M218.6,269.6c1.5-1.6,1.6-3.9,0.4-5.6c1.8,1.1,4.1,0.8,5.6-0.8c1.7-1.8,1.6-4.6-0.2-6.3
					c-1.8-1.7-4.6-1.6-6.3,0.2c-0.1,0.1-0.2,0.3-0.3,0.4l-14.9-14l-4.9,5.2l15,14c-0.3,0.2-0.6,0.4-0.8,0.7
					c-1.7,1.8-1.6,4.6,0.2,6.3C214,271.5,216.9,271.4,218.6,269.6z"/>
				<path d="M215.3,272.2c-1.4,0-2.8-0.5-3.9-1.5c-2.3-2.1-2.4-5.6-0.4-7.9l-14-13.1c-0.2-0.2-0.4-0.5-0.4-0.9
					c0-0.3,0.1-0.6,0.3-0.9l4.9-5.2c0.5-0.5,1.2-0.5,1.7-0.1l14,13.1c1-0.8,2.2-1.3,3.4-1.3c1.5-0.1,3,0.5,4.1,1.5
					c1.1,1,1.7,2.4,1.8,4c0,1.5-0.5,3-1.5,4.1c-1.2,1.3-2.8,1.9-4.5,1.8c0.2,1.6-0.3,3.3-1.5,4.6
					C218.3,271.6,216.8,272.2,215.3,272.2z M199.6,248.7l14.1,13.2c0.3,0.3,0.4,0.6,0.4,1c0,0.4-0.2,0.7-0.6,0.9
					c-0.3,0.2-0.5,0.3-0.6,0.5c-1.2,1.3-1.2,3.4,0.1,4.6c1.3,1.2,3.4,1.2,4.6-0.1l0,0c1-1.1,1.2-2.8,0.3-4.1
					c-0.3-0.5-0.3-1.1,0.1-1.5c0.4-0.4,1-0.5,1.5-0.2c1.3,0.8,3,0.6,4.1-0.6c0.6-0.6,0.9-1.5,0.9-2.3c0-0.9-0.4-1.7-1-2.3
					c-1.3-1.2-3.4-1.2-4.6,0.1c0,0-0.1,0.1-0.1,0.2l-0.1,0.1c-0.2,0.3-0.5,0.5-0.9,0.5c-0.4,0-0.7-0.1-0.9-0.3l-14-13.1L199.6,248.7
					z"/>
			</g>
			<g>
				<path style="fill:#D8D8D8;" d="M208.2,251.7c0,8.5-6.9,15.3-15.5,15.3c-8.6,0-15.5-6.9-15.5-15.3v-8h31V251.7z"/>
				<path d="M192.7,268.2c-9.2,0-16.7-7.4-16.7-16.5v-8c0-0.7,0.5-1.2,1.2-1.2h31c0.7,0,1.2,0.5,1.2,1.2v8
					C209.4,260.8,201.9,268.2,192.7,268.2z M178.4,244.9v6.8c0,7.8,6.4,14.1,14.3,14.1c7.9,0,14.3-6.3,14.3-14.1v-6.8H178.4z"/>
			</g>
			<g>
				<path style="fill:#D8D8D8;" d="M175.6,234.6c0-9.3,7.7-16.9,17.1-16.9c9.5,0,17.1,7.6,17.1,16.9v8.9h-34.2V234.6z"/>
				<path d="M209.8,244.7h-34.2c-0.7,0-1.2-0.5-1.2-1.2v-8.9c0-10,8.2-18.1,18.3-18.1s18.3,8.1,18.3,18.1v8.9
					C211.1,244.2,210.5,244.7,209.8,244.7z M176.8,242.3h31.8v-7.6c0-8.6-7.1-15.7-15.9-15.7c-8.8,0-15.9,7-15.9,15.7V242.3z"/>
			</g>
			<g>
				<g>
					<path style="fill:#E2E2E2;" d="M185,261.2L185,261.2c-1.4,0-2.5-1.1-2.5-2.5v-0.7c0-1.4,1.1-2.5,2.5-2.5l0,0
						c1.4,0,2.5,1.1,2.5,2.5v0.7C187.5,260,186.4,261.2,185,261.2z"/>
					<path d="M186,262.4H184c-1.5,0-2.7-1.2-2.7-2.7v-2.8c0-1.5,1.2-2.7,2.7-2.7h2.1c1.5,0,2.7,1.2,2.7,2.7v2.8
						C188.7,261.1,187.5,262.4,186,262.4z M184,256.5c-0.2,0-0.3,0.1-0.3,0.3v2.8c0,0.2,0.1,0.3,0.3,0.3h2.1c0.2,0,0.3-0.1,0.3-0.3
						v-2.8c0-0.2-0.1-0.3-0.3-0.3H184z"/>
				</g>
				<g>
					<path style="fill:#E2E2E2;" d="M200.4,261.2L200.4,261.2c-1.4,0-2.5-1.1-2.5-2.5v-0.7c0-1.4,1.1-2.5,2.5-2.5l0,0
						c1.4,0,2.5,1.1,2.5,2.5v0.7C203,260,201.8,261.2,200.4,261.2z"/>
					<path d="M201.5,262.4h-2.1c-1.5,0-2.7-1.2-2.7-2.7v-2.8c0-1.5,1.2-2.7,2.7-2.7h2.1c1.5,0,2.7,1.2,2.7,2.7v2.8
						C204.2,261.1,203,262.4,201.5,262.4z M199.4,256.5c-0.2,0-0.3,0.1-0.3,0.3v2.8c0,0.2,0.1,0.3,0.3,0.3h2.1
						c0.2,0,0.3-0.1,0.3-0.3v-2.8c0-0.2-0.1-0.3-0.3-0.3H199.4z"/>
				</g>
			</g>
			<g>
				<path style="fill:#D8D8D8;" d="M215.4,247c0,9-10.1,10.8-22.7,10.8c-12.5,0-22.7-1.8-22.7-10.8c0-9,10.1-16.4,22.7-16.4
					C205.2,230.6,215.4,238,215.4,247z"/>
				<path d="M192.7,259.1c-7.5,0-12.7-0.7-16.5-2.1c-4.9-1.9-7.4-5.2-7.4-9.9c0-9.7,10.7-17.6,23.9-17.6s23.9,7.9,23.9,17.6
					C216.6,257.7,203.8,259.1,192.7,259.1z M192.7,231.9c-11.8,0-21.5,6.8-21.5,15.1c0,6.7,6.4,9.6,21.5,9.6s21.5-2.9,21.5-9.6
					C214.2,238.6,204.5,231.9,192.7,231.9z"/>
			</g>
			<circle cx="182.5" cy="235.9" r="1.4"/>
			<circle cx="203" cy="235.9" r="1.4"/>
			<ellipse transform="matrix(0.5 -0.866 0.866 0.5 -104.8057 274.3294)" cx="185.2" cy="227.9" rx="3.6" ry="4.3"/>
			<ellipse transform="matrix(0.866 -0.5 0.5 0.866 -87.1362 130.6617)" cx="200.2" cy="227.9" rx="4.3" ry="3.6"/>
		</g>
	</g>
	<g>
		<g>
			<g>
				<path style="fill:#AAAAAA;" d="M239.6,130.8c0-25.9-21-46.9-46.9-46.9s-46.9,21-46.9,46.9v26.8h93.8V130.8z"/>
				<path d="M240.8,158.8h-96.2v-28c0-26.5,21.6-48.1,48.1-48.1c26.5,0,48.1,21.6,48.1,48.1V158.8z M147,156.3h91.3v-25.6
					c0-25.2-20.5-45.7-45.7-45.7S147,105.6,147,130.8V156.3z"/>
			</g>
			<g>
				<path style="fill:#AAAAAA;" d="M169.7,92.7c0,0-2.5-14.5-19.1-14.1c-16.6,0.4-4.2,20.5,6.7,23.3"/>
				<path d="M157.3,103.1c-0.1,0-0.2,0-0.3,0c-8-2.1-16.4-12.5-15.7-19.4c0.3-2.3,1.8-6.2,9.2-6.3c17.5-0.4,20.3,15,20.3,15.1
					c0.1,0.7-0.3,1.3-1,1.4c-0.7,0.1-1.3-0.3-1.4-1c-0.1-0.6-2.6-13.4-17.9-13.1c-4.2,0.1-6.5,1.5-6.9,4.2
					c-0.7,5.7,7,14.9,13.8,16.7c0.7,0.2,1,0.8,0.9,1.5C158.3,102.8,157.8,103.1,157.3,103.1z"/>
			</g>
			<g>
				<path style="fill:#454545;" d="M160.8,98.3c0,0-4.9-9.6-13.3-12.4C147.5,85.9,147.8,96.2,160.8,98.3z"/>
				<path d="M162.9,99.9l-2.4-0.4c-7.1-1.2-10.6-4.7-12.3-7.5c-1.9-3.1-2-5.9-2-6l-0.1-1.7l1.7,0.5c8.8,2.9,13.8,12.6,14,13
					L162.9,99.9z M149.1,87.9c0.7,2.5,2.9,6.7,9.2,8.6C156.5,93.9,153.3,90,149.1,87.9z"/>
			</g>
			<g>
				<path style="fill:#AAAAAA;" d="M215.7,92.7c0,0,2.5-14.5,19.1-14.1c16.6,0.4,4.2,20.5-6.7,23.3"/>
				<path d="M228.1,103.1c-0.5,0-1-0.4-1.2-0.9c-0.2-0.7,0.2-1.3,0.9-1.5c6.9-1.8,14.5-11,13.8-16.7c-0.3-2.7-2.6-4.1-6.9-4.2
					c-0.2,0-0.4,0-0.6,0c-14.9,0-17.2,12.6-17.3,13.1c-0.1,0.7-0.7,1.1-1.4,1c-0.7-0.1-1.1-0.7-1-1.4c0-0.2,2.9-15.5,20.3-15.1
					c7.4,0.2,9,4,9.2,6.3c0.8,6.8-7.7,17.3-15.7,19.4C228.3,103.1,228.2,103.1,228.1,103.1z"/>
			</g>
			<g>
				<path style="fill:#454545;" d="M224.7,98.3c0,0,4.9-9.6,13.3-12.4C238,85.9,237.6,96.2,224.7,98.3z"/>
				<path d="M222.5,99.9l1.1-2.1c0.2-0.4,5.2-10.1,14-13l1.7-0.5l-0.1,1.7c0,0.1-0.6,11.3-14.3,13.5L222.5,99.9z M236.4,87.9
					c-4.3,2.1-7.5,6.1-9.2,8.6C233.5,94.6,235.6,90.4,236.4,87.9z"/>
			</g>
			<g>
				<path d="M182.8,110.7c-0.7,2.4-3.2,3.7-5.6,3s-3.7-3.2-3-5.6c0.7-2.4,2.6-1.8,5-1.1C181.5,107.7,183.5,108.3,182.8,110.7z"/>
				<path d="M202.7,110.7c0.7,2.4,3.2,3.7,5.6,3s3.7-3.2,3-5.6c-0.7-2.4-2.6-1.8-5-1.1C203.9,107.7,201.9,108.3,202.7,110.7z"/>
			</g>
			<path d="M197.9,103c-0.2,0-0.3,0-0.5,0c-6.1-0.5-11.8-3.4-15.8-8c-0.9-1-2-2.5-1.8-4.3c0.1-0.7,0.7-1.2,1.3-1.1
				c0.7,0.1,1.2,0.7,1.1,1.3c-0.1,0.7,0.3,1.4,1.2,2.5c3.6,4.1,8.8,6.7,14.2,7.2c0.2,0,0.2,0,0.3,0c0,0,0-0.1,0.1-0.2
				c0.4-1,0.3-2.2-0.1-3.2c-0.2-0.5-0.1-1,0.3-1.4c0.4-0.4,0.9-0.4,1.4-0.2c0.9,0.5,1.9,0.9,3,1.1c1,0.2,1.7,0.2,2.1,0
				c0.2-0.1,0.4-0.5,0.3-0.6c-0.5-0.4-0.6-1.2-0.1-1.7c0.4-0.5,1.2-0.6,1.7-0.1c0.6,0.5,0.9,1.3,0.8,2.2c-0.1,1-0.7,1.9-1.5,2.4
				c-1.3,0.8-2.9,0.6-3.9,0.3c-0.4-0.1-0.8-0.2-1.3-0.4c0,0.8-0.1,1.7-0.4,2.5c-0.1,0.4-0.4,1-1,1.4
				C198.8,102.9,198.3,103,197.9,103z M197.9,100.6L197.9,100.6L197.9,100.6z"/>
		</g>
		<g>
			<path style="fill:#AAAAAA;" d="M145.3,165.6c0,27,21.9,44.8,48.9,44.8s48.9-17.8,48.9-44.8H145.3z"/>
			<path d="M194.2,211.6c-13.6,0-26.2-4.5-35.4-12.6c-9.5-8.4-14.7-20.3-14.7-33.4v-1.2h100.1v1.2c0,13.2-5.2,25-14.7,33.4
				C220.4,207.2,207.8,211.6,194.2,211.6z M146.5,166.8c0.3,12,5.2,22.7,13.9,30.4c8.7,7.7,20.7,12,33.7,12s25-4.3,33.7-12
				c8.7-7.7,13.6-18.4,13.9-30.4H146.5z"/>
		</g>
		<g>
			<g>
				<g>
					<path style="fill:#E2E2E2;" d="M164,187.8L164,187.8c-3.2,0-5.9-2.6-5.9-5.9v-1.7c0-3.2,2.6-5.9,5.9-5.9h0
						c3.2,0,5.9,2.6,5.9,5.9v1.7C169.8,185.2,167.2,187.8,164,187.8z"/>
					<path d="M166.4,189h-4.7c-2.6,0-4.7-2.1-4.7-4.7v-6.5c0-2.6,2.1-4.7,4.7-4.7h4.7c2.6,0,4.7,2.1,4.7,4.7v6.5
						C171.1,186.9,169,189,166.4,189z M161.6,175.6c-1.3,0-2.3,1-2.3,2.3v6.5c0,1.3,1,2.3,2.3,2.3h4.7c1.3,0,2.3-1,2.3-2.3v-6.5
						c0-1.3-1-2.3-2.3-2.3H161.6z"/>
				</g>
				<g>
					<path style="fill:#E2E2E2;" d="M224.7,187.8L224.7,187.8c-3.2,0-5.9-2.6-5.9-5.9v-1.7c0-3.2,2.6-5.9,5.9-5.9h0
						c3.2,0,5.9,2.6,5.9,5.9v1.7C230.5,185.2,227.9,187.8,224.7,187.8z"/>
					<path d="M227,189h-4.7c-2.6,0-4.7-2.1-4.7-4.7v-6.5c0-2.6,2.1-4.7,4.7-4.7h4.7c2.6,0,4.7,2.1,4.7,4.7v6.5
						C231.7,186.9,229.6,189,227,189z M222.3,175.6c-1.3,0-2.3,1-2.3,2.3v6.5c0,1.3,1,2.3,2.3,2.3h4.7c1.3,0,2.3-1,2.3-2.3v-6.5
						c0-1.3-1-2.3-2.3-2.3H222.3z"/>
				</g>
			</g>
			<g>
				<path style="fill:#AAAAAA;" d="M230,129.6c0.2-0.9,0.4-1.8,0.4-2.7c0-5.4-4.4-9.8-9.8-9.8c-2.9,0-5.5,1.3-7.3,3.3
					c-6.4-2.3-13.3-3.6-20.6-3.6s-14.2,1.3-20.6,3.6c-1.8-2-4.4-3.3-7.3-3.3c-5.4,0-9.8,4.4-9.8,9.8c0,0.9,0.2,1.8,0.4,2.7
					c-12.7,9.9-20.8,24.2-20.8,38.6v2.3c0,6.9,5.6,12.5,12.5,12.5c0,0,24.1-6.6,44.2-6.6s47,6.6,47,6.6c6.9,0,12.5-5.6,12.5-12.5
					v-2.3C250.8,153.8,242.7,139.5,230,129.6z"/>
				<path d="M238.3,184.3h-0.1l-0.1,0c-0.3-0.1-26.9-6.6-46.7-6.6c-19.8,0-43.7,6.5-43.9,6.6l-0.2,0h-0.2c-7.6,0-13.7-6.1-13.7-13.7
					v-2.3c0-14.2,7.7-28.8,20.6-39.1c-0.2-0.8-0.3-1.5-0.3-2.2c0-6.1,5-11,11-11c2.8,0,5.6,1.1,7.6,3.1c6.6-2.3,13.4-3.4,20.3-3.4
					c6.9,0,13.7,1.2,20.3,3.4c2.1-2,4.8-3.1,7.6-3.1c6.1,0,11,5,11,11c0,0.7-0.1,1.4-0.3,2.2c12.9,10.3,20.6,24.9,20.6,39.1v2.3
					C252,178.1,245.9,184.3,238.3,184.3z M191.3,175.2c19.3,0,44.9,6.1,47.1,6.6c6.1-0.1,11.1-5.1,11.1-11.3v-2.3
					c0-13.7-7.6-27.8-20.3-37.7l-0.7-0.5l0.2-0.8c0.3-0.9,0.4-1.6,0.4-2.4c0-4.7-3.9-8.6-8.6-8.6c-2.5,0-4.7,1-6.4,2.9l-0.5,0.6
					l-0.8-0.3c-6.5-2.4-13.3-3.6-20.2-3.6c-6.9,0-13.7,1.2-20.2,3.6l-0.8,0.3l-0.5-0.6c-1.7-1.9-3.9-2.9-6.4-2.9
					c-4.7,0-8.6,3.9-8.6,8.6c0,0.7,0.1,1.5,0.4,2.4l0.2,0.8l-0.7,0.5c-12.7,9.9-20.3,24-20.3,37.7v2.3c0,6.2,5,11.2,11.1,11.3
					C149.1,181.2,172.1,175.2,191.3,175.2z"/>
			</g>
			<g>
				<g>
					<circle style="fill:#454545;" cx="164.5" cy="126.8" r="3.4"/>
					<path d="M164.5,131.5c-2.6,0-4.6-2.1-4.6-4.6c0-2.6,2.1-4.6,4.6-4.6c2.6,0,4.6,2.1,4.6,4.6C169.1,129.4,167,131.5,164.5,131.5z
						 M164.5,124.6c-1.2,0-2.2,1-2.2,2.2c0,1.2,1,2.2,2.2,2.2c1.2,0,2.2-1,2.2-2.2C166.7,125.6,165.7,124.6,164.5,124.6z"/>
				</g>
				<g>
					<circle style="fill:#454545;" cx="220.9" cy="126.8" r="3.4"/>
					<path d="M220.9,131.5c-2.6,0-4.6-2.1-4.6-4.6c0-2.6,2.1-4.6,4.6-4.6c2.6,0,4.6,2.1,4.6,4.6
						C225.6,129.4,223.5,131.5,220.9,131.5z M220.9,124.6c-1.2,0-2.2,1-2.2,2.2c0,1.2,1,2.2,2.2,2.2c1.2,0,2.2-1,2.2-2.2
						C223.1,125.6,222.2,124.6,220.9,124.6z"/>
				</g>
			</g>
		</g>
	</g>
</g>
</svg>
