<?xml version="1.0" encoding="utf-8"?>
<!-- Generator: Adobe Illustrator 26.5.0, SVG Export Plug-In . SVG Version: 6.00 Build 0)  -->
<svg version="1.1" id="레이어_1" xmlns="http://www.w3.org/2000/svg" xmlns:xlink="http://www.w3.org/1999/xlink" x="0px"
	 y="0px" viewBox="0 0 390 390" style="enable-background:new 0 0 390 390;" xml:space="preserve">
<g>
	<g>
		<g>
			<path style="fill:#DAACD6;" d="M252.8,258.5c0.1,0-5.9,65.8-7.6,77.6c-0.2,1.6-0.4,3.3,0.2,4.9c1.8,4.5,14.9,5.9,19,5.9
				c5.1,0,15.2,0,21.2-2.2c1.7-0.6,2.9-2.1,3.2-3.9c0.4-1.8,0.8-4.3,0.8-5.9c0-2.9-0.1-70.7-0.1-70.7L252.8,258.5z"/>
			<path d="M265.1,348c-0.2,0-0.3,0-0.5,0l-0.3,0c-0.2,0-17.7-0.4-20.1-6.6c-0.7-1.8-0.5-3.6-0.2-5.5c1.8-12.3,7.6-77.1,7.6-77.5
				l1.2,0.1l0.2-1.2l37.7,5.9l0,1c0,0.7,0.1,67.8,0.1,70.7c0,1.4-0.3,3.5-0.8,6.2c-0.4,2.2-1.9,4-4,4.8C280,348,270.5,348,265.1,348
				z M253.9,259.8c0,0.4-0.1,1-0.1,1.6c-0.2,1.8-0.4,4.4-0.7,7.6c-0.4,4.4-1.2,13.3-2.2,23.9c-1.5,16.3-3.6,37-4.5,43.3
				c-0.2,1.5-0.4,3,0.1,4.3c1.3,3.4,12.3,5.1,17.9,5.1h0.3c5.2,0,14.8,0,20.5-2.1c1.3-0.5,2.2-1.6,2.5-3c0.5-2.5,0.7-4.5,0.7-5.7
				c0-2.7-0.1-61.1-0.1-69.6L253.9,259.8z"/>
		</g>
		<g>
			<path style="fill:#E2E2E2;" d="M257.7,345.7c0-1.6,0-3.2-0.2-4.8c-0.2-1.3-0.5-2.5-1.1-3.6c-1.1-2.1-3.3-3.6-5.3-2.8
				c-1.4,0.5-2.3,2-2.7,3.6s-0.4,3.3-0.2,4.9c0,0,1,1.1,4.4,2.1C256,345.9,257.7,345.7,257.7,345.7z"/>
			<path d="M257,346.9c-0.9,0-2.5-0.1-4.8-0.8c-3.6-1-4.8-2.2-5-2.4c-0.2-0.2-0.3-0.4-0.3-0.7c-0.1-1.7-0.2-3.5,0.3-5.3
				c0.6-2.1,1.9-3.8,3.5-4.4c2.8-1.1,5.6,1,6.8,3.4c0.6,1.1,1,2.4,1.2,4c0.2,1.6,0.2,3.1,0.2,4.5l0,0.5c0,0.6-0.4,1.1-1,1.2
				C257.8,346.9,257.5,346.9,257,346.9z M257.7,345.7L257.7,345.7L257.7,345.7z M249.3,342.3c0.5,0.3,1.5,0.9,3.6,1.5
				c1.6,0.5,2.8,0.6,3.6,0.7c0-1.2,0-2.3-0.2-3.5c-0.2-1.3-0.5-2.4-0.9-3.3c-0.8-1.5-2.4-2.8-3.8-2.2c-0.9,0.3-1.7,1.4-2,2.8
				C249.2,339.6,249.2,340.9,249.3,342.3z"/>
		</g>
		<g>
			<path style="fill:#E2E2E2;" d="M271.8,346.7c0-1.6,0-3.2,0.2-4.8c0.2-1.3,0.5-2.5,1.1-3.6c1.1-2.1,3.3-3.6,5.3-2.8
				c1.4,0.5,2.3,2,2.7,3.6c0.4,1.6,0.5,5,0.3,6.7c0,0-0.8,0.7-4.6,0.8C273.4,346.6,271.8,346.7,271.8,346.7z"/>
			<path d="M271.8,347.9c-0.3,0-0.6-0.1-0.8-0.3c-0.2-0.2-0.4-0.5-0.4-0.9l0-0.5c0-1.5,0-3,0.2-4.5c0.2-1.6,0.6-2.9,1.2-4
				c1.2-2.4,4.1-4.5,6.8-3.4c1.6,0.6,2.9,2.3,3.5,4.4c0.5,1.8,0.5,5.5,0.4,7.1c0,0.3-0.2,0.6-0.4,0.8c-0.3,0.3-1.6,1-5.3,1.1
				C273.5,347.8,271.9,347.9,271.8,347.9C271.8,347.9,271.8,347.9,271.8,347.9z M273,346.7L273,346.7L273,346.7z M277.2,336.5
				c-1.2,0-2.5,1.1-3.1,2.4c-0.4,0.9-0.8,1.9-0.9,3.3c-0.2,1.1-0.2,2.2-0.2,3.4c0.8,0,2.1-0.1,3.8-0.1c1.9-0.1,2.9-0.3,3.5-0.4
				c0.1-1.7,0-4.3-0.3-5.6c-0.4-1.4-1.1-2.4-2-2.8C277.7,336.5,277.5,336.5,277.2,336.5z"/>
		</g>
		<g>
			<path style="fill:#E2E2E2;" d="M269.2,346.7c0-1.6,0-3.2-0.2-4.8c-0.2-1.3-0.5-2.5-1.1-3.6c-1.1-2.1-3.3-3.6-5.3-2.8
				c-1.4,0.5-2.3,2-2.7,3.6s-0.5,5.5-0.4,7.2c0,0,0.5,0.3,3.9,0.6C267.1,347,269.2,346.7,269.2,346.7z"/>
			<path d="M266.4,348c-0.9,0-1.9,0-3.1-0.1c-3.7-0.3-4.3-0.6-4.4-0.7c-0.3-0.2-0.5-0.5-0.6-0.9c-0.2-1.8,0-5.9,0.4-7.6
				c0.6-2.1,1.9-3.8,3.5-4.4c2.8-1.1,5.6,1,6.8,3.4c0.6,1.1,1,2.4,1.2,4c0.2,1.6,0.2,3.1,0.2,4.5l0,0.5c0,0.6-0.4,1.1-1,1.2
				C269.4,347.9,268.3,348,266.4,348z M269.2,346.7L269.2,346.7L269.2,346.7z M260.7,345.2c0.5,0.1,1.4,0.2,2.8,0.3
				c2.1,0.2,3.6,0.1,4.5,0.1c0-1.2,0-2.4-0.2-3.6c-0.2-1.3-0.5-2.4-0.9-3.3c-0.8-1.5-2.4-2.8-3.8-2.2c-0.9,0.3-1.7,1.4-2,2.8
				C260.8,340.5,260.6,343.4,260.7,345.2z"/>
		</g>
	</g>
	<g>
		<g>
			<path style="fill:#DAACD6;" d="M341.9,258.5c-0.1,0,5.9,65.8,7.6,77.6c0.2,1.6,0.4,3.3-0.2,4.9c-1.8,4.5-14.9,5.9-19,5.9
				c-5.1,0-15.2,0-21.2-2.2c-1.7-0.6-2.9-2.1-3.2-3.9c-0.4-1.8-0.8-4.3-0.8-5.9c0-2.9,0.1-70.7,0.1-70.7L341.9,258.5z"/>
			<path d="M329.5,348c-5.4,0-14.9-0.1-20.8-2.3c-2.1-0.8-3.6-2.6-4-4.8c-0.5-2.7-0.8-4.7-0.8-6.2c0-2.9,0.1-70,0.1-70.7l0-1
				l37.7-5.9l0.2,1.2l1.2,0c0,0.4,5.8,65.2,7.6,77.5c0.3,1.9,0.5,3.7-0.2,5.5c-2.4,6.2-19.9,6.6-20.1,6.6l-0.3,0
				C329.9,348,329.7,348,329.5,348z M306.4,265.2c0,8.5-0.1,66.9-0.1,69.6c0,1.2,0.3,3.2,0.7,5.7c0.3,1.4,1.2,2.5,2.5,3
				c5.7,2.1,15.3,2.1,20.5,2.1h0.3c5.5,0,16.6-1.8,17.9-5.1c0.5-1.2,0.3-2.7,0.1-4.3c-0.9-6.2-2.9-27-4.5-43.3
				c-1-10.6-1.8-19.6-2.2-23.9c-0.3-3.2-0.5-5.8-0.7-7.6c-0.1-0.6-0.1-1.1-0.1-1.6L306.4,265.2z"/>
		</g>
		<g>
			<path style="fill:#E2E2E2;" d="M337,345.7c0-1.6,0-3.2,0.2-4.8c0.2-1.3,0.5-2.5,1.1-3.6c1.1-2.1,3.3-3.6,5.3-2.8
				c1.4,0.5,2.3,2,2.7,3.6c0.4,1.6,0.4,3.3,0.2,4.9c0,0-1,1.1-4.4,2.1C338.7,345.9,337,345.7,337,345.7z"/>
			<path d="M337.6,346.9c-0.5,0-0.8,0-0.8,0c-0.6-0.1-1-0.6-1-1.2l0-0.5c0-1.5,0-3,0.2-4.5c0.2-1.6,0.6-2.9,1.2-4
				c1.2-2.4,4.1-4.5,6.8-3.4c1.6,0.6,2.9,2.3,3.5,4.4c0.5,1.8,0.4,3.6,0.3,5.3c0,0.3-0.1,0.5-0.3,0.7c-0.2,0.2-1.4,1.4-5,2.4
				C340.1,346.8,338.5,346.9,337.6,346.9z M338.2,345.7L338.2,345.7L338.2,345.7z M337,345.7L337,345.7L337,345.7z M342.4,335.4
				c-1.2,0-2.5,1.1-3.1,2.4c-0.4,0.9-0.8,1.9-0.9,3.3c-0.2,1.2-0.2,2.3-0.2,3.5c0.8-0.1,2-0.2,3.6-0.7c2.1-0.6,3.1-1.2,3.6-1.5
				c0.1-1.3,0.1-2.7-0.2-4c-0.4-1.4-1.1-2.4-2-2.8C342.9,335.4,342.7,335.4,342.4,335.4z"/>
		</g>
		<g>
			<path style="fill:#E2E2E2;" d="M322.9,346.7c0-1.6,0-3.2-0.2-4.8c-0.2-1.3-0.5-2.5-1.1-3.6c-1.1-2.1-3.3-3.6-5.3-2.8
				c-1.4,0.5-2.3,2-2.7,3.6c-0.4,1.6-0.5,5-0.3,6.7c0,0,0.8,0.7,4.6,0.8C321.3,346.6,322.9,346.7,322.9,346.7z"/>
			<path d="M322.9,347.9C322.8,347.9,322.8,347.9,322.9,347.9c-0.1,0-1.7-0.1-5.1-0.2c-3.8-0.1-5-0.8-5.3-1.1
				c-0.2-0.2-0.4-0.5-0.4-0.8c-0.1-1.5-0.1-5.2,0.4-7.1c0.6-2.1,1.9-3.8,3.5-4.4c2.8-1.1,5.6,1,6.8,3.4c0.6,1.1,1,2.4,1.2,4
				c0.2,1.6,0.2,3.1,0.2,4.5l0,0.5c0,0.3-0.1,0.6-0.4,0.9C323.5,347.8,323.2,347.9,322.9,347.9z M314.4,344.9
				c0.5,0.2,1.6,0.4,3.5,0.4c1.7,0.1,3,0.1,3.8,0.1c0-1.2,0-2.3-0.2-3.4c-0.2-1.3-0.5-2.4-0.9-3.3c-0.8-1.5-2.4-2.8-3.8-2.2
				c-0.9,0.3-1.7,1.4-2,2.8C314.4,340.6,314.3,343.2,314.4,344.9z"/>
		</g>
		<g>
			<path style="fill:#E2E2E2;" d="M325.4,346.7c0-1.6,0-3.2,0.2-4.8c0.2-1.3,0.5-2.5,1.1-3.6c1.1-2.1,3.3-3.6,5.3-2.8
				c1.4,0.5,2.3,2,2.7,3.6s0.5,5.5,0.4,7.2c0,0-0.5,0.3-3.9,0.6C327.5,347,325.4,346.7,325.4,346.7z"/>
			<path d="M328.2,348c-1.9,0-3-0.2-3-0.2c-0.6-0.1-1-0.6-1-1.2l0-0.5c0-1.5,0-3,0.2-4.5c0.2-1.6,0.6-2.9,1.2-4
				c1.2-2.4,4.1-4.5,6.8-3.4c1.6,0.6,2.9,2.3,3.5,4.4c0.4,1.7,0.6,5.8,0.4,7.6c0,0.4-0.2,0.7-0.6,0.9c-0.2,0.1-0.7,0.5-4.4,0.7
				C330.1,348,329.1,348,328.2,348z M326.6,346.7L326.6,346.7L326.6,346.7z M325.4,346.7L325.4,346.7L325.4,346.7z M326.6,345.6
				c0.9,0.1,2.5,0.1,4.5-0.1c1.4-0.1,2.3-0.2,2.8-0.3c0-1.8-0.1-4.7-0.4-5.9c-0.4-1.4-1.1-2.4-2-2.8c-1.4-0.5-3,0.7-3.8,2.2
				c-0.4,0.9-0.8,1.9-0.9,3.3C326.6,343.2,326.6,344.4,326.6,345.6z M334.6,345.1L334.6,345.1L334.6,345.1z"/>
		</g>
	</g>
	<g>
		<g>
			<path style="fill:#DAACD6;" d="M262.5,169.4c-0.9-0.4-2-0.8-3-1.1c-9.2-2.6-18.8,6.2-25.9,12.2c-9,7.6-15.7,17.9-19.6,29.9
				c-2.3,7.3-3.4,14.8-4.7,22.3c-0.8,4.6-1.7,11.2,3.3,13.1c7.6,2.8,15.8,2.5,23.8,2.2c1.4-0.1,3.7,0.3,4.3-1.6
				c0.3-0.9,0.2-1.8,0.2-2.8c-0.3-5.4-0.8-11.4-0.2-16.8c0.6-5.4,2.7-10.5,4.8-15.4c2.6-5.8,5.7-11.6,10.2-15.7
				c4.8-4.4,9.9-7.8,12.2-14.5C269.9,175.1,267.1,171.4,262.5,169.4z"/>
			<path d="M228.6,249.4c-5.5,0-11.2-0.5-16.5-2.5c-6.1-2.3-4.8-10.2-4.1-14.4c0.2-0.9,0.3-1.9,0.5-2.8c1.1-6.5,2.2-13.2,4.3-19.7
				c4-12.3,10.9-22.8,20-30.5c0.4-0.4,0.9-0.8,1.4-1.1c7-5.9,16.5-13.9,25.7-11.3c1.2,0.3,2.2,0.7,3.2,1.2v0c6,2.7,8,7.3,6,13.3
				c-1.9,5.7-5.9,9.2-9.8,12.5c-0.9,0.8-1.9,1.6-2.8,2.5c-4.6,4.3-7.7,10.5-9.9,15.4c-2.1,4.7-4.1,9.8-4.7,15
				c-0.5,4.6-0.2,9.7,0.1,14.6c0,0.7,0.1,1.4,0.1,2c0.1,1,0.1,2.1-0.3,3.2c-0.8,2.4-3.3,2.4-4.7,2.4c0,0,0,0,0,0c-0.2,0-0.4,0-0.6,0
				C233.8,249.3,231.2,249.4,228.6,249.4z M256,169c-7.1,0-14.3,6.2-20.4,11.2c-0.5,0.4-0.9,0.8-1.4,1.2
				c-8.8,7.3-15.4,17.5-19.2,29.3c-2,6.3-3.1,12.6-4.2,19.3c-0.2,0.9-0.3,1.9-0.5,2.8c-0.8,4.9-1.4,10.3,2.5,11.8
				c7.5,2.8,15.5,2.4,23.3,2.1c0.2,0,0.5,0,0.8,0c1.6,0,2.2-0.1,2.5-0.8c0.2-0.6,0.2-1.4,0.1-2.3c0-0.7-0.1-1.4-0.1-2
				c-0.3-5-0.6-10.2,0-15c0.6-5.6,2.7-10.9,4.9-15.7c2.3-5.1,5.5-11.5,10.4-16.1c0.9-0.9,1.9-1.7,2.8-2.5c3.8-3.3,7.3-6.4,9.1-11.5
				c1.6-4.8,0.1-8.1-4.7-10.3c-0.9-0.4-1.8-0.7-2.9-1C258.1,169.1,257,169,256,169z"/>
		</g>
		<g>
			<path style="fill:#E2E2E2;" d="M218.8,247c0-1.4,0-2.8-0.2-4.2c-0.2-1.1-0.4-2.2-0.9-3.2c-0.9-1.8-2.9-3.1-4.6-2.5
				c-1.2,0.5-2,1.7-2.4,3.1c-0.4,1.4-0.3,2.9-0.2,4.3c0,0,0.9,1,3.9,1.8C217.3,247.3,218.8,247,218.8,247z"/>
			<path d="M218.2,248.3c-0.8,0-2.2-0.1-4.3-0.7c-3.2-0.9-4.2-2-4.4-2.2c-0.2-0.2-0.3-0.4-0.3-0.7c-0.1-1.5-0.2-3.1,0.2-4.7
				c0.5-1.9,1.7-3.4,3.1-3.9c2.5-1,5,0.8,6.2,3c0.5,1,0.8,2.1,1.1,3.5c0.2,1.4,0.2,2.7,0.2,4l0,0.4c0,0.6-0.4,1.1-1,1.2
				C218.9,248.2,218.7,248.3,218.2,248.3z M218.8,247L218.8,247L218.8,247z M211.6,244c0.4,0.3,1.3,0.8,3,1.3c1.3,0.4,2.3,0.5,3,0.6
				c0-1,0-1.9-0.2-2.8c-0.2-1.1-0.4-2.1-0.8-2.8c-0.6-1.2-2-2.3-3.1-1.9c-0.7,0.3-1.4,1.2-1.7,2.3
				C211.5,241.7,211.5,242.8,211.6,244z"/>
		</g>
		<g>
			<path style="fill:#E2E2E2;" d="M228.8,248.2c0-1.4,0-2.8-0.2-4.2c-0.2-1.1-0.4-2.2-0.9-3.2c-0.9-1.8-2.9-3.1-4.6-2.5
				c-1.2,0.5-2,1.7-2.4,3.1s-0.5,4.8-0.3,6.3c0,0,0.4,0.3,3.4,0.5C226.9,248.4,228.8,248.2,228.8,248.2z"/>
			<path d="M226.3,249.5c-0.8,0-1.7,0-2.7-0.1c-3.3-0.3-3.8-0.6-4-0.7c-0.3-0.2-0.5-0.5-0.6-0.9c-0.1-1.6,0-5.1,0.4-6.7
				c0.5-1.9,1.7-3.4,3.1-3.9c2.5-1,5,0.8,6.2,3c0.5,1,0.8,2.1,1.1,3.5c0.2,1.4,0.2,2.7,0.2,4l0,0.4c0,0.6-0.4,1.1-1,1.2
				C228.9,249.4,228,249.5,226.3,249.5z M228.8,248.2L228.8,248.2L228.8,248.2z M221.4,246.7c0.5,0.1,1.2,0.2,2.3,0.3
				c1.7,0.1,3,0.1,3.8,0.1c0-1,0-2-0.2-2.9c-0.2-1.1-0.4-2.1-0.8-2.8c-0.6-1.2-2-2.3-3.1-1.9c-0.7,0.3-1.4,1.2-1.7,2.3
				C221.5,242.7,221.4,245.2,221.4,246.7z"/>
		</g>
	</g>
	<g>
		<g>
			<path style="fill:#DAACD6;" d="M327.3,169.4c0.9-0.4,2-0.8,3-1.1c9.2-2.6,18.8,6.2,25.9,12.2c9,7.6,15.7,17.9,19.6,29.9
				c2.3,7.3,3.4,14.8,4.7,22.3c0.8,4.6,1.7,11.2-3.3,13.1c-7.6,2.8-15.8,2.5-23.8,2.2c-1.4-0.1-3.7,0.3-4.3-1.6
				c-0.3-0.9-0.2-1.8-0.2-2.8c0.3-5.4,0.8-11.4,0.2-16.8c-0.6-5.4-2.7-10.5-4.8-15.4c-2.6-5.8-5.7-11.6-10.2-15.7
				c-4.8-4.4-9.9-7.8-12.2-14.5C319.9,175.1,322.7,171.4,327.3,169.4z"/>
			<path d="M361.2,249.4c-2.7,0-5.3-0.1-7.8-0.2c-0.2,0-0.4,0-0.7,0c0,0,0,0,0,0c-1.5,0-3.9,0-4.7-2.4c-0.4-1.1-0.3-2.2-0.3-3.2
				c0-0.7,0.1-1.4,0.1-2c0.3-4.9,0.6-10,0.1-14.6c-0.6-5.3-2.6-10.3-4.7-15c-2.2-4.9-5.3-11.1-9.9-15.4c-0.9-0.8-1.9-1.7-2.8-2.5
				c-3.8-3.4-7.8-6.8-9.8-12.5c-2.1-6,0-10.6,6-13.3v0c1-0.4,2-0.8,3.2-1.2c9.2-2.6,18.7,5.4,25.7,11.3c0.5,0.4,0.9,0.8,1.4,1.1
				c9.1,7.6,16,18.2,20,30.5c2.1,6.4,3.2,13.2,4.3,19.7c0.2,0.9,0.3,1.9,0.5,2.8c0.7,4.2,2.1,12.1-4.1,14.4
				C372.4,248.9,366.7,249.4,361.2,249.4z M327.8,170.5L327.8,170.5c-4.8,2.2-6.3,5.5-4.7,10.3c1.7,5.1,5.3,8.2,9.1,11.5
				c0.9,0.8,1.9,1.6,2.8,2.5c4.9,4.6,8.2,11,10.4,16.1c2.2,4.9,4.3,10.1,4.9,15.7c0.6,4.8,0.3,10,0,15c0,0.7-0.1,1.4-0.1,2
				c0,0.9-0.1,1.7,0.1,2.3c0.2,0.7,0.9,0.8,2.5,0.8c0.3,0,0.5,0,0.8,0c7.8,0.3,15.9,0.7,23.3-2.1c3.9-1.5,3.4-6.8,2.5-11.8
				c-0.2-0.9-0.3-1.9-0.5-2.8c-1.1-6.7-2.2-13.1-4.2-19.3c-3.8-11.9-10.5-22-19.2-29.3c-0.4-0.4-0.9-0.8-1.4-1.2
				c-6.9-5.8-15.5-13.1-23.5-10.8C329.6,169.7,328.6,170.1,327.8,170.5z"/>
		</g>
		<g>
			<path style="fill:#E2E2E2;" d="M370.9,247c0-1.4,0-2.8,0.2-4.2c0.2-1.1,0.4-2.2,0.9-3.2c0.9-1.8,2.9-3.1,4.6-2.5
				c1.2,0.5,2,1.7,2.4,3.1c0.4,1.4,0.3,2.9,0.2,4.3c0,0-0.9,1-3.9,1.8C372.4,247.3,370.9,247,370.9,247z"/>
			<path d="M371.5,248.3c-0.4,0-0.7,0-0.7,0c-0.6-0.1-1-0.6-1-1.2l0-0.4c0-1.3,0-2.6,0.2-4c0.2-1.4,0.5-2.6,1.1-3.5
				c1.1-2.2,3.7-4,6.2-3c1.5,0.6,2.6,2,3.1,3.9c0.4,1.6,0.4,3.2,0.2,4.7c0,0.3-0.1,0.5-0.3,0.7c-0.2,0.2-1.3,1.3-4.4,2.2
				C373.7,248.2,372.3,248.3,371.5,248.3z M372.1,247L372.1,247L372.1,247z M370.9,247L370.9,247L370.9,247z M375.7,238.2
				c-1,0-2.1,0.9-2.6,2c-0.4,0.7-0.6,1.7-0.8,2.8c-0.1,0.9-0.2,1.9-0.2,2.8c0.7-0.1,1.7-0.2,3-0.6c1.7-0.5,2.6-1,3-1.3
				c0.1-1.1,0.1-2.3-0.2-3.4c-0.3-1.1-1-2-1.7-2.3C376.1,238.2,375.9,238.2,375.7,238.2z"/>
		</g>
		<g>
			<path style="fill:#E2E2E2;" d="M361,248.2c0-1.4,0-2.8,0.2-4.2c0.2-1.1,0.4-2.2,0.9-3.2c0.9-1.8,2.9-3.1,4.6-2.5
				c1.2,0.5,2,1.7,2.4,3.1c0.4,1.4,0.5,4.8,0.3,6.3c0,0-0.4,0.3-3.4,0.5C362.8,248.4,361,248.2,361,248.2z"/>
			<path d="M363.5,249.5c-1.7,0-2.6-0.1-2.7-0.1c-0.6-0.1-1-0.6-1-1.2l0-0.4c0-1.3,0-2.6,0.2-4c0.2-1.4,0.5-2.6,1.1-3.5
				c1.1-2.2,3.7-4,6.2-3c1.5,0.6,2.6,2,3.1,3.9c0.4,1.6,0.5,5.1,0.4,6.7c0,0.4-0.2,0.7-0.6,0.9c-0.2,0.1-0.7,0.4-4,0.7
				C365.1,249.5,364.2,249.5,363.5,249.5z M362.2,248.2L362.2,248.2L362.2,248.2z M361,248.2L361,248.2L361,248.2z M362.2,247
				c0.8,0,2.1,0.1,3.8-0.1c1.1-0.1,1.9-0.2,2.3-0.3c0-1.6-0.1-4-0.3-5c-0.3-1.1-1-2-1.7-2.3c-1.1-0.4-2.5,0.6-3.1,1.9
				c-0.4,0.7-0.6,1.7-0.8,2.8C362.2,245.1,362.2,246,362.2,247z M369,246.6L369,246.6L369,246.6z"/>
		</g>
	</g>
	<g>
		<g>
			<path style="fill:#242424;" d="M355.8,214c-4.4-18.2-7-20.4-11.6-46.3c-3.9-21.8-25.9-28.7-25.9-28.7c-17.1-3.7-44,0-44,0
				s-22.6,6.8-25.9,28.7c-3.3,22.1-7.2,28.2-11.6,46.3c-4.4,18.2,2.1,69.5,59.5,69.5S360.2,232.1,355.8,214z"/>
			<path d="M296.3,284.7c-21.6,0-38-7-49-20.9c-13.4-17-14.3-39.3-11.7-50.1c1.6-6.7,3.2-11.7,4.7-16.6c2.5-8.1,4.9-15.7,6.9-29.6
				c3.3-22.4,26.5-29.6,26.7-29.7l0.2,0c0.1,0,6.9-0.9,15.7-1.4c11.9-0.6,21.5-0.1,28.7,1.4l0.1,0c0.2,0.1,22.7,7.4,26.7,29.7
				c2.9,16.3,5,23.2,7.3,30.6c1.3,4.4,2.7,8.9,4.4,15.7c2.6,10.8,1.7,33.1-11.7,50.1C334.4,277.7,317.9,284.7,296.3,284.7z
				 M274.6,140.1c-1.5,0.5-21.9,7.5-24.9,27.7c-2.1,14-4.5,21.8-7,30c-1.5,4.8-3,9.8-4.6,16.5c-2.4,10-1.5,31.8,11.2,48
				c10.4,13.3,26.3,20,47.1,20c20.8,0,36.6-6.7,47.1-20c12.8-16.2,13.7-38.1,11.2-48c-1.6-6.7-3-11.2-4.3-15.5
				c-2.3-7.4-4.4-14.5-7.3-30.9c-3.6-20.4-23.9-27.4-25-27.8C301.8,136.6,276.4,139.8,274.6,140.1z"/>
		</g>
		<g>
			<g>
				<path style="fill:#D8D8D8;" d="M269.3,199.4c-1.5,1.6-1.6,3.9-0.4,5.5c-1.7-1.1-4.1-0.8-5.5,0.8c-1.7,1.8-1.6,4.6,0.2,6.2
					c1.8,1.7,4.6,1.6,6.2-0.2c0.1-0.1,0.2-0.3,0.3-0.4l14.7,13.8l4.8-5.2l-14.8-13.9c0.3-0.2,0.6-0.4,0.8-0.7
					c1.7-1.8,1.6-4.6-0.2-6.2C273.8,197.6,271,197.6,269.3,199.4z"/>
				<path d="M284.9,226.4c-0.3,0-0.6-0.1-0.8-0.3l-13.9-13c-1,0.8-2.1,1.2-3.4,1.3c-1.5,0-2.9-0.5-4-1.5c-2.3-2.1-2.4-5.7-0.3-7.9
					c1.2-1.2,2.8-1.9,4.4-1.8c-0.2-1.6,0.3-3.3,1.5-4.5c2.1-2.3,5.7-2.4,7.9-0.3c2.2,2.1,2.4,5.6,0.4,7.8l13.8,13
					c0.5,0.5,0.5,1.2,0.1,1.7l-4.8,5.2C285.6,226.2,285.3,226.4,284.9,226.4C284.9,226.4,284.9,226.4,284.9,226.4z M270.2,210.2
					c0.3,0,0.6,0.1,0.8,0.3l13.9,13l3.2-3.4L274.1,207c-0.3-0.3-0.4-0.6-0.4-1c0-0.4,0.2-0.7,0.5-0.9c0.3-0.2,0.5-0.3,0.6-0.5
					c1.2-1.3,1.1-3.3-0.1-4.5c-1.3-1.2-3.3-1.1-4.5,0.1l0,0c-1,1.1-1.2,2.8-0.3,4c0.3,0.5,0.3,1.1-0.1,1.5c-0.4,0.4-1,0.5-1.5,0.2
					c-1.3-0.8-3-0.6-4,0.5c-1.2,1.3-1.1,3.3,0.1,4.5c0.6,0.6,1.4,0.9,2.3,0.9c0.9,0,1.7-0.4,2.2-1c0,0,0.1-0.1,0.1-0.2l0.1-0.1
					c0.2-0.3,0.5-0.4,0.9-0.5C270.1,210.2,270.1,210.2,270.2,210.2z M269.3,199.4L269.3,199.4L269.3,199.4z"/>
			</g>
			<g>
				<path style="fill:#D8D8D8;" d="M320.4,199.4c1.5,1.6,1.6,3.9,0.4,5.5c1.7-1.1,4.1-0.8,5.5,0.8c1.7,1.8,1.6,4.6-0.2,6.2
					c-1.8,1.7-4.6,1.6-6.2-0.2c-0.1-0.1-0.2-0.3-0.3-0.4l-14.7,13.8L300,220l14.8-13.9c-0.3-0.2-0.6-0.4-0.8-0.7
					c-1.7-1.8-1.6-4.6,0.2-6.2C316,197.6,318.7,197.6,320.4,199.4z"/>
				<path d="M304.8,226.4C304.8,226.4,304.8,226.4,304.8,226.4c-0.4,0-0.7-0.1-0.9-0.4l-4.8-5.2c-0.5-0.5-0.4-1.2,0.1-1.7l13.8-13
					c-2-2.3-1.9-5.8,0.4-7.8c2.3-2.1,5.8-2,7.9,0.3l0,0c1.2,1.2,1.7,2.9,1.5,4.5c1.6-0.1,3.3,0.5,4.4,1.8c2.1,2.3,2,5.8-0.3,7.9
					c-1.1,1-2.5,1.6-4,1.5c-1.3,0-2.4-0.5-3.4-1.3l-13.9,13C305.4,226.3,305.1,226.4,304.8,226.4z M301.7,220.1l3.2,3.4l13.9-13
					c0.2-0.2,0.6-0.4,0.9-0.3c0.3,0,0.7,0.2,0.9,0.5l0.1,0.1c0,0,0.1,0.1,0.1,0.1c0.6,0.6,1.4,1,2.2,1c0.9,0,1.7-0.3,2.3-0.9
					c1.3-1.2,1.4-3.2,0.1-4.5c-1-1.1-2.7-1.3-4-0.6c-0.5,0.3-1.1,0.2-1.5-0.2c-0.4-0.4-0.4-1-0.1-1.5c0.9-1.2,0.7-2.9-0.3-4l0,0
					c-1.2-1.3-3.2-1.4-4.5-0.1c-1.3,1.2-1.4,3.2-0.1,4.5c0.2,0.2,0.4,0.3,0.6,0.5c0.3,0.2,0.5,0.5,0.5,0.9c0,0.4-0.1,0.7-0.4,1
					L301.7,220.1z"/>
			</g>
			<g>
				<path style="fill:#D8D8D8;" d="M269.3,256.5c-1.5-1.6-1.6-3.9-0.4-5.5c-1.7,1.1-4.1,0.8-5.5-0.8c-1.7-1.8-1.6-4.6,0.2-6.2
					c1.8-1.7,4.6-1.6,6.2,0.2c0.1,0.1,0.2,0.3,0.3,0.4l14.7-13.8l4.8,5.2l-14.8,13.9c0.3,0.2,0.6,0.4,0.8,0.7
					c1.7,1.8,1.6,4.6-0.2,6.2C273.8,258.4,271,258.3,269.3,256.5z"/>
				<path d="M272.6,259.1c-1.5,0-3-0.6-4.1-1.8c0,0,0,0,0,0c-1.2-1.2-1.7-2.9-1.5-4.5c-1.6,0.1-3.3-0.5-4.4-1.8
					c-2.1-2.3-2-5.8,0.3-7.9c2.1-2,5.3-2,7.4-0.2l13.9-13c0.5-0.5,1.2-0.4,1.7,0.1l4.8,5.2c0.2,0.2,0.3,0.5,0.3,0.9
					c0,0.3-0.1,0.6-0.4,0.8l-13.8,13c2,2.3,1.9,5.8-0.4,7.8C275.3,258.6,273.9,259.1,272.6,259.1z M270.2,255.7c0.6,0.6,1.4,1,2.2,1
					c0.9,0,1.7-0.3,2.3-0.9c1.3-1.2,1.4-3.2,0.1-4.5c-0.2-0.2-0.4-0.3-0.6-0.5c-0.3-0.2-0.5-0.5-0.5-0.9c0-0.4,0.1-0.7,0.4-1
					l13.9-13.1l-3.2-3.4l-13.9,13c-0.3,0.2-0.6,0.4-0.9,0.3c-0.3,0-0.7-0.2-0.9-0.5l-0.1-0.1c0-0.1-0.1-0.1-0.1-0.2
					c-0.6-0.6-1.4-1-2.2-1c-0.9,0-1.7,0.3-2.3,0.9c-1.3,1.2-1.4,3.2-0.1,4.5c1,1.1,2.7,1.3,4,0.5c0.5-0.3,1.1-0.2,1.5,0.2
					c0.4,0.4,0.4,1,0.1,1.5C269.1,252.9,269.2,254.6,270.2,255.7L270.2,255.7z"/>
			</g>
			<g>
				<path style="fill:#D8D8D8;" d="M320.4,256.5c1.5-1.6,1.6-3.9,0.4-5.5c1.7,1.1,4.1,0.8,5.5-0.8c1.7-1.8,1.6-4.6-0.2-6.2
					c-1.8-1.7-4.6-1.6-6.2,0.2c-0.1,0.1-0.2,0.3-0.3,0.4l-14.7-13.8l-4.8,5.2l14.8,13.9c-0.3,0.2-0.6,0.4-0.8,0.7
					c-1.7,1.8-1.6,4.6,0.2,6.2C316,258.4,318.7,258.3,320.4,256.5z"/>
				<path d="M317.2,259.1c-1.4,0-2.8-0.5-3.8-1.5c-2.2-2.1-2.4-5.6-0.4-7.8l-13.8-13c-0.2-0.2-0.4-0.5-0.4-0.8
					c0-0.3,0.1-0.6,0.3-0.9l4.8-5.2c0.5-0.5,1.2-0.5,1.7-0.1l13.9,13c2.1-1.8,5.3-1.7,7.4,0.2c2.3,2.1,2.4,5.7,0.3,7.9
					c-1.2,1.2-2.8,1.9-4.4,1.8c0.2,1.6-0.3,3.3-1.5,4.5c0,0,0,0,0,0C320.2,258.5,318.7,259.1,317.2,259.1z M301.7,235.8l13.9,13.1
					c0.3,0.3,0.4,0.6,0.4,1c0,0.4-0.2,0.7-0.5,0.9c-0.3,0.2-0.5,0.3-0.6,0.5c-1.2,1.3-1.1,3.3,0.1,4.5c0.6,0.6,1.4,0.9,2.3,0.9
					c0.9,0,1.7-0.4,2.2-1c1-1.1,1.2-2.8,0.3-4c-0.3-0.5-0.3-1.1,0.1-1.5c0.4-0.4,1-0.5,1.5-0.2c1.3,0.8,3,0.6,4-0.6
					c1.2-1.3,1.1-3.3-0.1-4.5c-0.6-0.6-1.5-0.9-2.3-0.9c-0.9,0-1.7,0.4-2.2,1c0,0-0.1,0.1-0.1,0.2l-0.1,0.1
					c-0.2,0.3-0.5,0.4-0.9,0.5c-0.3,0-0.7-0.1-0.9-0.3l-13.9-13L301.7,235.8z M320.4,256.5L320.4,256.5L320.4,256.5z"/>
			</g>
			<g>
				<path style="fill:#D8D8D8;" d="M310.2,238.8c0,8.4-6.9,15.1-15.3,15.1c-8.5,0-15.3-6.8-15.3-15.1v-7.9h30.7V238.8z"/>
				<path d="M294.9,255.1c-9.1,0-16.5-7.3-16.5-16.3v-7.9c0-0.7,0.5-1.2,1.2-1.2h30.7c0.7,0,1.2,0.5,1.2,1.2v7.9
					C311.4,247.8,304,255.1,294.9,255.1z M280.7,232.1v6.7c0,7.7,6.3,13.9,14.1,13.9s14.1-6.2,14.1-13.9v-6.7H280.7z"/>
			</g>
			<g>
				<path style="fill:#D8D8D8;" d="M278,222c0-9.2,7.6-16.7,16.9-16.7s16.9,7.5,16.9,16.7v8.8H278V222z"/>
				<path d="M311.8,231.9H278c-0.7,0-1.2-0.5-1.2-1.2V222c0-9.9,8.1-17.9,18.1-17.9s18.1,8,18.1,17.9v8.8
					C313,231.4,312.5,231.9,311.8,231.9z M279.2,229.5h31.4V222c0-8.5-7.1-15.5-15.7-15.5c-8.7,0-15.7,6.9-15.7,15.5V229.5z"/>
			</g>
			<g>
				<g>
					<path style="fill:#E2E2E2;" d="M287.3,248.2h-0.2c-1.3,0-2.4-1.1-2.4-2.4v-0.9c0-1.3,1.1-2.4,2.4-2.4h0.2
						c1.3,0,2.4,1.1,2.4,2.4v0.9C289.8,247.1,288.7,248.2,287.3,248.2z"/>
					<path d="M288.3,249.4h-2c-1.5,0-2.7-1.2-2.7-2.7v-2.8c0-1.5,1.2-2.7,2.7-2.7h2c1.5,0,2.7,1.2,2.7,2.7v2.8
						C291,248.2,289.7,249.4,288.3,249.4z M286.2,243.6c-0.2,0-0.3,0.1-0.3,0.3v2.8c0,0.2,0.1,0.3,0.3,0.3h2c0.2,0,0.3-0.1,0.3-0.3
						v-2.8c0-0.2-0.1-0.3-0.3-0.3H286.2z"/>
				</g>
				<g>
					<path style="fill:#E2E2E2;" d="M302.6,248.2h-0.2c-1.3,0-2.4-1.1-2.4-2.4v-0.9c0-1.3,1.1-2.4,2.4-2.4h0.2
						c1.3,0,2.4,1.1,2.4,2.4v0.9C305,247.1,303.9,248.2,302.6,248.2z"/>
					<path d="M303.5,249.4h-2c-1.5,0-2.7-1.2-2.7-2.7v-2.8c0-1.5,1.2-2.7,2.7-2.7h2c1.5,0,2.7,1.2,2.7,2.7v2.8
						C306.2,248.2,305,249.4,303.5,249.4z M301.5,243.6c-0.2,0-0.3,0.1-0.3,0.3v2.8c0,0.2,0.1,0.3,0.3,0.3h2c0.2,0,0.3-0.1,0.3-0.3
						v-2.8c0-0.2-0.1-0.3-0.3-0.3H301.5z"/>
				</g>
			</g>
			<g>
				<path style="fill:#D8D8D8;" d="M317.3,234.2c0,8.9-10,10.7-22.4,10.7c-12.4,0-22.4-1.8-22.4-10.7c0-8.9,10-16.2,22.4-16.2
					C307.2,218,317.3,225.2,317.3,234.2z"/>
				<path d="M294.9,246.1c-7.4,0-12.6-0.7-16.3-2.1c-4.9-1.9-7.3-5.2-7.3-9.8c0-9.6,10.6-17.4,23.6-17.4s23.6,7.8,23.6,17.4
					C318.5,244.7,305.9,246.1,294.9,246.1z M294.9,219.2c-11.7,0-21.2,6.7-21.2,15c0,6.7,6.3,9.5,21.2,9.5s21.2-2.8,21.2-9.5
					C316.1,225.9,306.6,219.2,294.9,219.2z"/>
			</g>
			<circle cx="284.7" cy="223.2" r="1.4"/>
			<circle cx="305" cy="223.2" r="1.4"/>
			<ellipse transform="matrix(0.5 -0.866 0.866 0.5 -42.7696 356.581)" cx="287.4" cy="215.3" rx="3.6" ry="4.3"/>
			<ellipse transform="matrix(0.866 -0.5 0.5 0.866 -67.1611 180.0115)" cx="302.3" cy="215.3" rx="4.3" ry="3.6"/>
		</g>
	</g>
	<g>
		<g>
			<g>
				<path style="fill:#DAACD6;" d="M347.1,100.8c0-25.6-23.4-48.4-52.2-48.4c-28.8,0-52.2,22.8-52.2,48.4v24.5h104.5V100.8z"/>
				<path d="M348.3,126.5H241.4v-25.7c0-26.9,24.5-49.6,53.4-49.6c29,0,53.4,22.7,53.4,49.6V126.5z M243.8,124.1h102.1v-23.3
					c0-12-5.4-24-14.9-32.9c-9.8-9.2-22.6-14.3-36.1-14.3s-26.3,5.1-36.1,14.3c-9.5,8.9-14.9,20.9-14.9,32.9V124.1z"/>
			</g>
			<g>
				<path style="fill:#DAACD6;" d="M269.2,63.3c0,0-2.8-14.3-21.3-14c-18.5,0.3-4.7,20.2,7.5,23"/>
				<path d="M255.4,73.6c-0.1,0-0.2,0-0.3,0c-8.8-2-18.1-12.1-17.4-19c0.2-2.3,1.9-6.3,10.2-6.4c19.3-0.4,22.5,14.8,22.5,14.9
					c0.1,0.7-0.3,1.3-1,1.4c-0.7,0.1-1.3-0.3-1.4-0.9l0,0c-0.1-0.5-2.9-13.3-20.1-13c-3.4,0.1-7.4,0.9-7.8,4.3
					c-0.6,5.6,8,14.6,15.5,16.4c0.6,0.1,1.1,0.8,0.9,1.4C256.5,73.2,256,73.6,255.4,73.6z"/>
			</g>
			<g>
				<path style="fill:#7B3B76;" d="M259.3,66.8c0,0-5.5-9.5-14.8-12.2C244.5,54.5,244.9,64.7,259.3,66.8z"/>
				<path d="M259.3,68c-0.1,0-0.1,0-0.2,0c-15.2-2.2-15.8-13.3-15.9-13.4c0-0.4,0.2-0.8,0.5-1c0.3-0.2,0.7-0.3,1.1-0.2
					c9.7,2.8,15.3,12.4,15.5,12.8c0.2,0.4,0.2,0.9,0,1.3C260,67.8,259.7,68,259.3,68z M246.1,56.4c0.8,2.5,3.2,6.8,10.6,8.6
					C254.7,62.5,251,58.4,246.1,56.4z"/>
			</g>
			<g>
				<path style="fill:#DAACD6;" d="M320.5,63.3c0,0,2.8-14.3,21.3-14c18.5,0.3,4.7,20.2-7.5,23"/>
				<path d="M334.3,73.6c-0.5,0-1-0.4-1.2-0.9c-0.1-0.6,0.3-1.3,0.9-1.4c7.5-1.7,16.1-10.8,15.5-16.4c-0.4-3.4-4.4-4.2-7.8-4.3
					c-17.2-0.3-20,12.4-20.1,13c-0.1,0.7-0.8,1.1-1.4,0.9c-0.7-0.1-1.1-0.8-0.9-1.4c0-0.2,3.1-14.9,21.8-14.9c0.2,0,0.5,0,0.7,0
					c8.3,0.2,9.9,4.1,10.2,6.4c0.7,6.8-8.6,16.9-17.4,19C334.5,73.5,334.4,73.6,334.3,73.6z"/>
			</g>
			<g>
				<path style="fill:#7B3B76;" d="M330.5,66.8c0,0,5.5-9.5,14.8-12.2C345.3,54.5,344.9,64.7,330.5,66.8z"/>
				<path d="M330.5,68c-0.4,0-0.8-0.2-1-0.5c-0.3-0.4-0.3-0.9,0-1.3c0.2-0.4,5.8-10,15.5-12.8c0.4-0.1,0.8,0,1.1,0.2
					c0.3,0.2,0.5,0.6,0.5,1c0,0.1-0.6,11.2-15.9,13.4C330.6,68,330.5,68,330.5,68z M343.7,56.4c-5,2.1-8.6,6.1-10.6,8.6
					C340.5,63.2,342.9,58.9,343.7,56.4z"/>
			</g>
			<g>
				<circle cx="271.4" cy="82.6" r="4"/>
				<circle cx="318.4" cy="82.6" r="4"/>
			</g>
			<g>
				<path style="fill:#DAACD6;" d="M287.1,60.4c-2.4-2.5-3.1-6.3-3-9.8c0-1.5,0.2-3.1,0.9-4.5c0.7-1.4,1.9-2.6,3.4-2.9
					c1.6-0.3,3.3,0.5,4.5,1.6c1.2,1.2,1.9,2.7,2.6,4.2c0.1-1.7,1.3-3.1,2.7-3.9c1.5-0.8,3.2-0.9,4.8-0.8c0.6,0.1,1.1,0.2,1.6,0.5
					c1.7,1.1,1.2,3.7,1.5,5.7c2.1-1.7,5.3-2.6,7.5-1c1.7,1.2,2.3,3.7,1.8,5.8c-0.5,2.1-1.8,3.9-3.2,5.4"/>
				<path d="M312.4,62c-0.3,0-0.6-0.1-0.8-0.3c-0.5-0.4-0.5-1.2-0.1-1.7c1.1-1.3,2.5-2.9,2.9-4.9c0.3-1.5,0.1-3.5-1.4-4.5
					c-1.7-1.2-4.4-0.4-6.1,1c-0.3,0.3-0.8,0.3-1.2,0.2c-0.4-0.1-0.7-0.5-0.8-0.9c-0.1-0.7-0.2-1.3-0.2-2c-0.1-1.5-0.2-2.5-0.8-2.9
					c-0.3-0.2-0.7-0.3-1.1-0.3c-1.1-0.1-2.7-0.1-4.1,0.6c-1.2,0.6-2,1.8-2.1,2.9c0,0.5-0.4,1-1,1.1c-0.5,0.1-1.1-0.2-1.3-0.7
					c-0.7-1.4-1.4-2.8-2.4-3.8c-0.8-0.8-2.1-1.6-3.4-1.3c-1,0.2-2,1.1-2.5,2.2c-0.6,1.3-0.7,2.8-0.7,4c-0.1,2.7,0.3,6.5,2.6,8.9
					c0.5,0.5,0.4,1.2,0,1.7c-0.5,0.5-1.2,0.4-1.7,0c-2.3-2.4-3.4-6-3.3-10.6c0-1.4,0.2-3.3,1-5c0.9-1.9,2.5-3.2,4.2-3.6
					c1.9-0.4,4,0.4,5.6,1.9c0.6,0.6,1.2,1.4,1.6,2.1c0.6-0.8,1.4-1.5,2.3-2c1.5-0.8,3.5-1.1,5.6-0.9c0.7,0.1,1.4,0.2,2.1,0.7
					c1.7,1.1,1.8,3,1.9,4.6c2.3-1.1,5-1.5,7.2,0.1c2,1.4,2.9,4.2,2.3,7c-0.6,2.5-2.2,4.5-3.5,6C313.1,61.8,312.7,62,312.4,62z"/>
			</g>
		</g>
		<g>
			<path style="fill:#DAACD6;" d="M242.1,140.6c0,26.7,24.4,48.3,54.4,48.3c30.1,0,54.4-21.6,54.4-48.3H242.1z"/>
			<path d="M296.5,190c-30.7,0-55.6-22.2-55.6-49.5v-1.2h111.3v1.2C352.1,167.8,327.2,190,296.5,190z M243.3,141.8
				c0.7,25.4,24.3,45.9,53.2,45.9s52.5-20.5,53.2-45.9H243.3z"/>
		</g>
		<g>
			<g>
				<g>
					<path style="fill:#E2E2E2;" d="M269.8,168.5h-0.5c-3.5,0-6.3-2.8-6.3-6.3v-0.7c0-3.5,2.8-6.3,6.3-6.3h0.5
						c3.5,0,6.3,2.8,6.3,6.3v0.7C276.1,165.7,273.3,168.5,269.8,168.5z"/>
					<path d="M272.4,169.7h-5.7c-2.7,0-4.9-2.2-4.9-4.9v-6c0-2.7,2.2-4.9,4.9-4.9h5.7c2.7,0,4.9,2.2,4.9,4.9v6
						C277.3,167.5,275.1,169.7,272.4,169.7z M266.7,156.4c-1.4,0-2.5,1.1-2.5,2.5v6c0,1.4,1.1,2.5,2.5,2.5h5.7
						c1.4,0,2.5-1.1,2.5-2.5v-6c0-1.4-1.1-2.5-2.5-2.5H266.7z"/>
				</g>
				<g>
					<path style="fill:#E2E2E2;" d="M320.4,168.5h-0.5c-3.5,0-6.3-2.8-6.3-6.3v-0.7c0-3.5,2.8-6.3,6.3-6.3h0.5
						c3.5,0,6.3,2.8,6.3,6.3v0.7C326.7,165.7,323.9,168.5,320.4,168.5z"/>
					<path d="M323,169.7h-5.7c-2.7,0-4.9-2.2-4.9-4.9v-6c0-2.7,2.2-4.9,4.9-4.9h5.7c2.7,0,4.9,2.2,4.9,4.9v6
						C327.9,167.5,325.7,169.7,323,169.7z M317.3,156.4c-1.4,0-2.5,1.1-2.5,2.5v6c0,1.4,1.1,2.5,2.5,2.5h5.7c1.4,0,2.5-1.1,2.5-2.5
						v-6c0-1.4-1.1-2.5-2.5-2.5H317.3z"/>
				</g>
			</g>
			<g>
				<path style="fill:#DAACD6;" d="M337.6,104.4c-0.5-0.3-1.7-1.1-3.3-2.2c0.1-0.6,0.2-1.3,0.2-1.9c0-5.5-4.4-9.9-9.9-9.9
					c-3.2,0-6,1.5-7.8,3.8c-8.5-2.2-17.7-1.9-21.9-1.9c-4.2,0-13.4-0.3-21.9,1.9c-1.8-2.3-4.6-3.8-7.8-3.8c-5.5,0-9.9,4.4-9.9,9.9
					c0,0.7,0.1,1.3,0.2,1.9c-1.7,1.1-2.9,1.9-3.3,2.2c-14.7,9.8-22,24.2-22,38.8v6.3c0,6.8,6.2,12.3,13.9,12.3h50.8h50.8
					c7.7,0,13.9-5.5,13.9-12.3v-6.3C359.6,128.6,352.3,114.1,337.6,104.4z"/>
				<path d="M345.7,163H244.1c-8.3,0-15.1-6.1-15.1-13.5v-6.3c0-15.8,8.2-30.3,22.5-39.8c0.2-0.1,0.5-0.3,0.8-0.6
					c0.5-0.3,1.1-0.7,1.9-1.2c-0.1-0.5-0.1-0.9-0.1-1.4c0-6.1,5-11.1,11.1-11.1c3.1,0,6.1,1.3,8.2,3.7c7.6-1.8,15.7-1.8,20.1-1.7
					c1,0,1.7,0,2.7,0c4.4,0,12.5-0.1,20.1,1.7c2.1-2.4,5.1-3.7,8.2-3.7c6.1,0,11.1,5,11.1,11.1c0,0.5,0,0.9-0.1,1.4
					c0.8,0.5,1.4,0.9,1.9,1.2c0.4,0.2,0.6,0.4,0.8,0.5l0,0c14.3,9.5,22.5,24,22.5,39.8v6.3C360.8,156.9,354,163,345.7,163z
					 M265.2,91.5c-4.8,0-8.7,3.9-8.7,8.7c0,0.6,0.1,1.1,0.2,1.7l0.2,0.8l-0.7,0.4c-1,0.7-1.9,1.2-2.5,1.6c-0.4,0.3-0.7,0.5-0.9,0.6
					c-13.6,9-21.4,22.8-21.4,37.8v6.3c0,6.1,5.7,11.1,12.7,11.1h101.6c7,0,12.7-5,12.7-11.1v-6.3c0-15-7.8-28.8-21.4-37.8
					c-0.2-0.1-0.5-0.3-0.9-0.6c-0.6-0.4-1.4-1-2.5-1.6l-0.7-0.4l0.2-0.8c0.1-0.6,0.2-1.1,0.2-1.7c0-4.8-3.9-8.7-8.7-8.7
					c-2.7,0-5.1,1.2-6.8,3.4l-0.5,0.6l-0.8-0.2c-7.6-1.9-15.8-1.9-20.3-1.8c-1,0-1.7,0-2.7,0c-4.4,0-12.7-0.1-20.3,1.8l-0.8,0.2
					l-0.5-0.6C270.3,92.7,267.8,91.5,265.2,91.5z"/>
			</g>
			<g>
				<circle style="fill:#7B3B76;" cx="265.2" cy="100.2" r="3.4"/>
				<path d="M265.2,104.8c-2.5,0-4.6-2.1-4.6-4.6c0-2.5,2.1-4.6,4.6-4.6s4.6,2.1,4.6,4.6C269.8,102.7,267.7,104.8,265.2,104.8z
					 M265.2,98c-1.2,0-2.2,1-2.2,2.2c0,1.2,1,2.2,2.2,2.2c1.2,0,2.2-1,2.2-2.2C267.3,99,266.4,98,265.2,98z"/>
			</g>
			<g>
				<circle style="fill:#7B3B76;" cx="324.6" cy="100.2" r="3.4"/>
				<path d="M324.6,104.8c-2.5,0-4.6-2.1-4.6-4.6c0-2.5,2.1-4.6,4.6-4.6c2.5,0,4.6,2.1,4.6,4.6C329.2,102.7,327.1,104.8,324.6,104.8
					z M324.6,98c-1.2,0-2.2,1-2.2,2.2c0,1.2,1,2.2,2.2,2.2c1.2,0,2.2-1,2.2-2.2C326.7,99,325.8,98,324.6,98z"/>
			</g>
		</g>
	</g>
</g>
<g>
	<g>
		<g>
			<path style="fill:#61CDF9;" d="M62.7,169.4c-0.9-0.4-2-0.8-3-1.1c-9.2-2.6-18.8,6.2-25.9,12.2c-9,7.6-15.7,17.9-19.6,29.9
				c-2.3,7.3-3.4,14.8-4.7,22.3c-0.8,4.6-1.7,11.2,3.3,13.1c7.6,2.8,15.8,2.5,23.8,2.2c1.4-0.1,3.7,0.3,4.3-1.6
				c0.3-0.9,0.2-1.8,0.2-2.8c-0.3-5.4-0.8-11.4-0.2-16.8c0.6-5.4,2.7-10.5,4.8-15.4c2.6-5.8,5.7-11.6,10.2-15.7
				c4.8-4.4,9.9-7.8,12.2-14.5C70.1,175.1,67.3,171.4,62.7,169.4z"/>
			<path d="M28.8,249.4c-5.5,0-11.2-0.5-16.5-2.5c-6.1-2.3-4.8-10.2-4.1-14.4c0.2-0.9,0.3-1.9,0.5-2.8c1.1-6.5,2.2-13.2,4.3-19.7
				c4-12.3,10.9-22.8,20-30.5c0.4-0.4,0.9-0.8,1.4-1.1c7-5.9,16.5-13.9,25.7-11.3c1.2,0.3,2.2,0.7,3.2,1.2l0,0c6,2.7,8,7.3,6,13.3
				c-1.9,5.7-5.9,9.2-9.8,12.5c-0.9,0.8-1.9,1.6-2.8,2.5c-4.6,4.3-7.7,10.5-9.9,15.4c-2.1,4.7-4.1,9.8-4.7,15
				c-0.5,4.6-0.2,9.7,0.1,14.6c0,0.7,0.1,1.4,0.1,2c0.1,1,0.1,2.1-0.3,3.2c-0.8,2.4-3.3,2.4-4.7,2.4c0,0,0,0,0,0c-0.2,0-0.4,0-0.6,0
				C34.1,249.3,31.5,249.4,28.8,249.4z M56.2,169c-7.1,0-14.3,6.2-20.4,11.2c-0.5,0.4-0.9,0.8-1.4,1.2c-8.8,7.3-15.4,17.5-19.2,29.3
				c-2,6.3-3.1,12.6-4.2,19.3c-0.2,0.9-0.3,1.9-0.5,2.8c-0.8,4.9-1.4,10.3,2.5,11.8c7.5,2.8,15.5,2.4,23.3,2.1c0.2,0,0.5,0,0.8,0
				c1.6,0,2.2-0.1,2.5-0.8c0.2-0.6,0.2-1.4,0.1-2.3c0-0.7-0.1-1.3-0.1-2c-0.3-5-0.6-10.2,0-15c0.6-5.6,2.7-10.9,4.9-15.7
				c2.3-5.1,5.5-11.5,10.4-16.1c0.9-0.9,1.9-1.7,2.8-2.5c3.8-3.3,7.3-6.4,9.1-11.5c1.6-4.8,0.1-8.1-4.7-10.3l0,0
				c-0.9-0.4-1.8-0.7-2.9-1C58.3,169.1,57.3,169,56.2,169z"/>
		</g>
		<g>
			<path style="fill:#E2E2E2;" d="M19.1,247c0-1.4,0-2.8-0.2-4.2c-0.2-1.1-0.4-2.2-0.9-3.2c-0.9-1.8-2.9-3.1-4.6-2.5
				c-1.2,0.5-2,1.7-2.4,3.1s-0.3,2.9-0.2,4.3c0,0,0.9,1,3.9,1.8C17.6,247.3,19.1,247,19.1,247z"/>
			<path d="M18.5,248.3c-0.8,0-2.2-0.1-4.3-0.7c-3.2-0.9-4.2-2-4.4-2.2c-0.2-0.2-0.3-0.4-0.3-0.7c-0.1-1.5-0.2-3.1,0.2-4.7
				c0.5-1.9,1.7-3.4,3.1-3.9c2.5-1,5,0.8,6.2,3c0.5,1,0.8,2.1,1.1,3.5c0.2,1.4,0.2,2.7,0.2,4l0,0.4c0,0.6-0.4,1.1-1,1.2
				C19.2,248.2,18.9,248.3,18.5,248.3z M19.1,247L19.1,247L19.1,247z M11.9,244c0.4,0.3,1.3,0.8,3,1.3c1.3,0.4,2.3,0.5,3,0.6
				c0-1,0-1.9-0.2-2.8c-0.2-1.1-0.4-2.1-0.8-2.8c-0.6-1.2-2-2.3-3.1-1.9c-0.7,0.3-1.4,1.2-1.7,2.3C11.8,241.7,11.8,242.8,11.9,244z"
				/>
		</g>
		<g>
			<path style="fill:#E2E2E2;" d="M29,248.2c0-1.4,0-2.8-0.2-4.2c-0.2-1.1-0.4-2.2-0.9-3.2c-0.9-1.8-2.9-3.1-4.6-2.5
				c-1.2,0.5-2,1.7-2.4,3.1c-0.4,1.4-0.5,4.8-0.3,6.3c0,0,0.4,0.3,3.4,0.5C27.2,248.4,29,248.2,29,248.2z"/>
			<path d="M26.5,249.5c-0.8,0-1.7,0-2.7-0.1c-3.3-0.3-3.8-0.6-4-0.7c-0.3-0.2-0.5-0.5-0.6-0.9c-0.1-1.6,0-5.1,0.4-6.7
				c0.5-1.9,1.7-3.4,3.1-3.9c2.5-1,5,0.8,6.2,3c0.5,1,0.8,2.1,1.1,3.5c0.2,1.4,0.2,2.7,0.2,4l0,0.4c0,0.6-0.4,1.1-1,1.2
				C29.2,249.4,28.2,249.5,26.5,249.5z M29,248.2L29,248.2L29,248.2z M21.7,246.7c0.5,0.1,1.2,0.2,2.3,0.3c1.7,0.1,3,0.1,3.8,0.1
				c0-1,0-2-0.2-2.9c-0.2-1.1-0.4-2.1-0.8-2.8c-0.6-1.2-2-2.3-3.1-1.9c-0.7,0.3-1.4,1.2-1.7,2.3C21.8,242.7,21.7,245.2,21.7,246.7z
				 M21,246.6L21,246.6L21,246.6z"/>
		</g>
	</g>
	<g>
		<g>
			<path style="fill:#61CDF9;" d="M127.5,169.4c0.9-0.4,2-0.8,3-1.1c9.2-2.6,18.8,6.2,25.9,12.2c9,7.6,15.7,17.9,19.6,29.9
				c2.3,7.3,3.4,14.8,4.7,22.3c0.8,4.6,1.7,11.2-3.3,13.1c-7.6,2.8-15.8,2.5-23.8,2.2c-1.4-0.1-3.7,0.3-4.3-1.6
				c-0.3-0.9-0.2-1.8-0.2-2.8c0.3-5.4,0.8-11.4,0.2-16.8c-0.6-5.4-2.7-10.5-4.8-15.4c-2.6-5.8-5.7-11.6-10.2-15.7
				c-4.8-4.4-9.9-7.8-12.2-14.5C120.1,175.1,122.9,171.4,127.5,169.4z"/>
			<path d="M161.4,249.4c-2.7,0-5.3-0.1-7.8-0.2c-0.2,0-0.4,0-0.7,0c0,0,0,0,0,0c-1.5,0-3.9,0-4.7-2.4c-0.4-1.1-0.3-2.2-0.3-3.2
				c0-0.7,0.1-1.4,0.1-2c0.3-4.9,0.6-10,0.1-14.6c-0.6-5.3-2.6-10.3-4.7-15c-2.2-4.9-5.3-11.1-9.9-15.4c-0.9-0.8-1.8-1.7-2.8-2.5
				c-3.8-3.4-7.8-6.8-9.8-12.5c-2.1-6,0-10.6,6-13.3v0c1-0.4,2-0.8,3.2-1.2c9.2-2.6,18.7,5.4,25.7,11.3c0.5,0.4,0.9,0.8,1.4,1.1
				c9.1,7.6,16,18.2,20,30.5c2.1,6.4,3.2,13.2,4.3,19.7c0.2,0.9,0.3,1.9,0.5,2.8c0.7,4.2,2.1,12.1-4.1,14.4
				C172.6,248.9,166.9,249.4,161.4,249.4z M128,170.5L128,170.5c-4.8,2.2-6.3,5.5-4.7,10.3c1.7,5.1,5.3,8.2,9.1,11.5
				c0.9,0.8,1.9,1.6,2.8,2.5c4.9,4.6,8.2,11,10.4,16.1c2.2,4.9,4.3,10.1,4.9,15.7c0.6,4.8,0.3,10,0,15c0,0.7-0.1,1.4-0.1,2
				c0,0.9-0.1,1.7,0.1,2.3c0.2,0.7,0.9,0.8,2.5,0.8c0.3,0,0.5,0,0.8,0c7.8,0.3,15.9,0.7,23.3-2.1c3.9-1.5,3.4-6.8,2.5-11.8
				c-0.2-0.9-0.3-1.9-0.5-2.8c-1.1-6.7-2.2-13.1-4.2-19.3c-3.8-11.9-10.5-22-19.2-29.3c-0.4-0.4-0.9-0.8-1.4-1.2
				c-6.9-5.8-15.5-13.1-23.5-10.8C129.8,169.7,128.9,170.1,128,170.5z"/>
		</g>
		<g>
			<path style="fill:#E2E2E2;" d="M171.2,247c0-1.4,0-2.8,0.2-4.2c0.2-1.1,0.4-2.2,0.9-3.2c0.9-1.8,2.9-3.1,4.6-2.5
				c1.2,0.5,2,1.7,2.4,3.1c0.4,1.4,0.3,2.9,0.2,4.3c0,0-0.9,1-3.9,1.8C172.7,247.3,171.2,247,171.2,247z"/>
			<path d="M171.8,248.3c-0.4,0-0.7,0-0.7,0c-0.6-0.1-1-0.6-1-1.2l0-0.4c0-1.3,0-2.6,0.2-4c0.2-1.4,0.5-2.6,1.1-3.5
				c1.1-2.2,3.7-4,6.2-3c1.5,0.6,2.6,2,3.1,3.9c0.4,1.6,0.4,3.2,0.2,4.7c0,0.3-0.1,0.5-0.3,0.7c-0.2,0.2-1.3,1.3-4.4,2.2
				C174,248.2,172.5,248.3,171.8,248.3z M172.4,247L172.4,247L172.4,247z M171.2,247L171.2,247L171.2,247z M176,238.2
				c-1,0-2.1,0.9-2.6,2c-0.4,0.7-0.6,1.7-0.8,2.8c-0.1,0.9-0.2,1.9-0.2,2.8c0.7-0.1,1.7-0.2,3-0.6c1.7-0.5,2.6-1,3-1.3
				c0.1-1.1,0.1-2.3-0.2-3.4c-0.3-1.1-1-2-1.7-2.3C176.4,238.2,176.2,238.2,176,238.2z"/>
		</g>
		<g>
			<path style="fill:#E2E2E2;" d="M161.2,248.2c0-1.4,0-2.8,0.2-4.2c0.2-1.1,0.4-2.2,0.9-3.2c0.9-1.8,2.9-3.1,4.6-2.5
				c1.2,0.5,2,1.7,2.4,3.1s0.5,4.8,0.3,6.3c0,0-0.4,0.3-3.4,0.5C163.1,248.4,161.2,248.2,161.2,248.2z"/>
			<path d="M163.7,249.5c-1.7,0-2.6-0.1-2.7-0.1c-0.6-0.1-1-0.6-1-1.2l0-0.4c0-1.3,0-2.6,0.2-4c0.2-1.4,0.5-2.6,1.1-3.5
				c1.1-2.2,3.7-4,6.2-3c1.5,0.6,2.6,2,3.1,3.9c0.4,1.6,0.5,5.1,0.4,6.7c0,0.4-0.2,0.7-0.6,0.9c-0.2,0.1-0.7,0.4-4,0.7
				C165.4,249.5,164.5,249.5,163.7,249.5z M162.4,248.2L162.4,248.2L162.4,248.2z M161.2,248.2L161.2,248.2L161.2,248.2z M162.4,247
				c0.8,0,2.1,0.1,3.8-0.1c1.1-0.1,1.9-0.2,2.3-0.3c0-1.6-0.1-4-0.3-5c-0.3-1.1-1-2-1.7-2.3c-1.1-0.4-2.5,0.6-3.1,1.9
				c-0.4,0.7-0.6,1.7-0.8,2.8C162.4,245.1,162.4,246,162.4,247z"/>
		</g>
	</g>
	<g>
		<g>
			<path style="fill:#61CDF9;" d="M63.1,258.5c0.1,0-11.9,65.8-13.6,77.6c-0.2,1.6-0.4,3.3,0.2,4.9c1.8,4.5,14.9,5.9,19,5.9
				c5.1,0,15.2,0,21.2-2.2c1.7-0.6,2.9-2.1,3.2-3.9c0.4-1.8,0.8-4.3,0.8-5.9c0-2.9-0.1-70.7-0.1-70.7L63.1,258.5z"/>
			<path d="M69.4,348c-0.2,0-0.3,0-0.5,0l-0.3,0c-0.2,0-17.7-0.4-20.1-6.6c-0.7-1.8-0.5-3.6-0.2-5.5c1.2-8.5,7.8-45.2,11.4-64.9
				c1.2-6.9,2.2-12.3,2.3-12.7l1.2,0.2l0.2-1.2l31.6,5.9l0,1c0,0.7,0.1,67.8,0.1,70.7c0,1.4-0.3,3.5-0.8,6.2c-0.4,2.2-1.9,4-4,4.8
				C84.2,348,74.8,348,69.4,348z M64,259.9c-0.1,0.6-0.2,1.4-0.4,2.3c-0.4,2.2-1,5.4-1.7,9.2c-3.5,19.7-10.1,56.3-11.4,64.8
				c-0.2,1.5-0.4,3,0.1,4.3c1.3,3.4,12.3,5.1,17.9,5.1h0.3c5.2,0,14.8,0,20.5-2.1c1.3-0.5,2.2-1.6,2.5-3c0.5-2.5,0.7-4.5,0.7-5.7
				c0-2.7-0.1-61.2-0.1-69.7L64,259.9z"/>
		</g>
		<g>
			<path style="fill:#E2E2E2;" d="M61.9,345.7c0-1.6,0-3.2-0.2-4.8c-0.2-1.3-0.5-2.5-1.1-3.6c-1.1-2.1-3.3-3.6-5.3-2.8
				c-1.4,0.5-2.3,2-2.7,3.6s-0.4,3.3-0.2,4.9c0,0,1,1.1,4.4,2.1C60.2,345.9,61.9,345.7,61.9,345.7z"/>
			<path d="M61.3,346.9c-0.9,0-2.5-0.1-4.8-0.8c-3.6-1-4.8-2.2-5-2.4c-0.2-0.2-0.3-0.4-0.3-0.7c-0.1-1.7-0.2-3.5,0.3-5.3
				c0.6-2.1,1.9-3.8,3.5-4.4c2.8-1.1,5.6,1,6.8,3.4c0.6,1.1,1,2.4,1.2,4c0.2,1.6,0.2,3.1,0.2,4.5l0,0.5c0,0.6-0.4,1.1-1,1.2
				C62.1,346.9,61.8,346.9,61.3,346.9z M61.9,345.7L61.9,345.7L61.9,345.7z M53.5,342.3c0.5,0.3,1.5,0.9,3.6,1.5
				c1.6,0.5,2.8,0.6,3.6,0.7c0-1.2,0-2.3-0.2-3.5c-0.2-1.3-0.5-2.4-0.9-3.3c-0.8-1.5-2.4-2.8-3.8-2.2c-0.9,0.3-1.7,1.4-2,2.8
				C53.4,339.6,53.4,340.9,53.5,342.3z"/>
		</g>
		<g>
			<path style="fill:#E2E2E2;" d="M76,346.7c0-1.6,0-3.2,0.2-4.8c0.2-1.3,0.5-2.5,1.1-3.6c1.1-2.1,3.3-3.6,5.3-2.8
				c1.4,0.5,2.3,2,2.7,3.6c0.4,1.6,0.5,5,0.3,6.7c0,0-0.8,0.7-4.6,0.8C77.6,346.6,76,346.7,76,346.7z"/>
			<path d="M76,347.9c-0.3,0-0.6-0.1-0.8-0.3c-0.2-0.2-0.4-0.5-0.4-0.9l0-0.5c0-1.5,0-3,0.2-4.5c0.2-1.6,0.6-2.9,1.2-4
				c1.2-2.4,4.1-4.5,6.8-3.4c1.6,0.6,2.9,2.3,3.5,4.4c0.5,1.8,0.5,5.5,0.4,7.1c0,0.3-0.2,0.6-0.4,0.8c-0.3,0.3-1.6,1-5.3,1.1
				C77.7,347.8,76.1,347.9,76,347.9C76.1,347.9,76.1,347.9,76,347.9z M77.2,346.7L77.2,346.7L77.2,346.7z M81.5,336.5
				c-1.2,0-2.5,1.1-3.1,2.4c-0.4,0.9-0.8,1.9-0.9,3.3c-0.2,1.1-0.2,2.2-0.2,3.4c0.8,0,2.1-0.1,3.8-0.1c1.9-0.1,2.9-0.3,3.5-0.4
				c0.1-1.7,0-4.3-0.3-5.6c-0.4-1.4-1.1-2.4-2-2.8C82,336.5,81.7,336.5,81.5,336.5z"/>
		</g>
		<g>
			<path style="fill:#E2E2E2;" d="M73.5,346.7c0-1.6,0-3.2-0.2-4.8c-0.2-1.3-0.5-2.5-1.1-3.6c-1.1-2.1-3.3-3.6-5.3-2.8
				c-1.4,0.5-2.3,2-2.7,3.6c-0.4,1.6-0.5,5.5-0.4,7.2c0,0,0.5,0.3,3.9,0.6C71.4,347,73.5,346.7,73.5,346.7z"/>
			<path d="M70.7,348c-0.9,0-1.9,0-3.1-0.1c-3.7-0.3-4.3-0.6-4.4-0.7c-0.3-0.2-0.5-0.5-0.6-0.9c-0.2-1.8,0-5.9,0.4-7.6
				c0.6-2.1,1.9-3.8,3.5-4.4c2.8-1.1,5.6,1,6.8,3.4c0.6,1.1,1,2.4,1.2,4c0.2,1.6,0.2,3.1,0.2,4.5l0,0.5c0,0.6-0.4,1.1-1,1.2
				C73.6,347.9,72.6,348,70.7,348z M73.5,346.7L73.5,346.7L73.5,346.7z M64.9,345.2c0.5,0.1,1.4,0.2,2.8,0.3
				c2.1,0.2,3.6,0.1,4.5,0.1c0-1.2,0-2.4-0.2-3.6c-0.2-1.3-0.5-2.4-0.9-3.3c-0.8-1.5-2.4-2.8-3.8-2.2c-0.9,0.3-1.7,1.4-2,2.8
				C65,340.5,64.9,343.4,64.9,345.2z M64.3,345.1L64.3,345.1L64.3,345.1z"/>
		</g>
	</g>
	<g>
		<g>
			<path style="fill:#61CDF9;" d="M130.1,258.5c-0.1,0,11.9,65.8,13.6,77.6c0.2,1.6,0.4,3.3-0.2,4.9c-1.8,4.5-14.9,5.9-19,5.9
				c-5.1,0-15.2,0-21.2-2.2c-1.7-0.6-2.9-2.1-3.2-3.9c-0.4-1.8-0.8-4.3-0.8-5.9c0-2.9,0.1-70.7,0.1-70.7L130.1,258.5z"/>
			<path d="M123.8,348c-5.4,0-14.9-0.1-20.8-2.3c-2.1-0.8-3.6-2.6-4-4.8c-0.4-1.8-0.8-4.4-0.8-6.2c0-2.9,0.1-70,0.1-70.7l0-1
				l31.6-5.9l0.2,1.2l1.2-0.1c0.1,0.4,1,5.8,2.3,12.7c3.5,19.7,10.1,56.4,11.4,64.9c0.3,1.9,0.5,3.7-0.2,5.5
				c-2.4,6.2-19.9,6.6-20.1,6.6l-0.3,0C124.1,348,123.9,348,123.8,348z M100.7,265.2c0,8.4-0.1,67-0.1,69.7c0,1.2,0.3,3.2,0.7,5.7
				c0.3,1.4,1.2,2.5,2.5,3c5.7,2.1,15.3,2.1,20.5,2.1h0.3c5.5,0,16.6-1.8,17.9-5.1c0.5-1.2,0.3-2.7,0.1-4.3
				c-1.2-8.5-7.8-45.1-11.4-64.8c-0.7-3.8-1.3-7-1.7-9.2c-0.2-1-0.3-1.7-0.4-2.3L100.7,265.2z"/>
		</g>
		<g>
			<path style="fill:#E2E2E2;" d="M131.2,345.7c0-1.6,0-3.2,0.2-4.8c0.2-1.3,0.5-2.5,1.1-3.6c1.1-2.1,3.3-3.6,5.3-2.8
				c1.4,0.5,2.3,2,2.7,3.6s0.4,3.3,0.2,4.9c0,0-1,1.1-4.4,2.1C132.9,345.9,131.2,345.7,131.2,345.7z"/>
			<path d="M131.8,346.9c-0.5,0-0.8,0-0.8,0c-0.6-0.1-1-0.6-1-1.2l0-0.5c0-1.5,0-3,0.2-4.5c0.2-1.6,0.6-2.9,1.2-4
				c1.2-2.4,4.1-4.5,6.8-3.4c1.6,0.6,2.9,2.3,3.5,4.4c0.5,1.8,0.4,3.6,0.3,5.3c0,0.3-0.1,0.5-0.3,0.7c-0.2,0.2-1.4,1.4-5,2.4
				C134.3,346.8,132.7,346.9,131.8,346.9z M132.4,345.7L132.4,345.7L132.4,345.7z M131.2,345.7L131.2,345.7L131.2,345.7z
				 M136.7,335.4c-1.2,0-2.5,1.1-3.1,2.4c-0.4,0.9-0.8,1.9-0.9,3.3c-0.2,1.2-0.2,2.3-0.2,3.5c0.8-0.1,2-0.2,3.6-0.7
				c2.1-0.6,3.1-1.2,3.6-1.5c0.1-1.3,0.1-2.7-0.2-4c-0.4-1.4-1.1-2.4-2-2.8C137.1,335.4,136.9,335.4,136.7,335.4z"/>
		</g>
		<g>
			<path style="fill:#E2E2E2;" d="M117.1,346.7c0-1.6,0-3.2-0.2-4.8c-0.2-1.3-0.5-2.5-1.1-3.6c-1.1-2.1-3.3-3.6-5.3-2.8
				c-1.4,0.5-2.3,2-2.7,3.6c-0.4,1.6-0.5,5-0.3,6.7c0,0,0.8,0.7,4.6,0.8C115.5,346.6,117.1,346.7,117.1,346.7z"/>
			<path d="M117.1,347.9C117.1,347.9,117,347.9,117.1,347.9c-0.1,0-1.7-0.1-5.1-0.2c-3.8-0.1-5-0.8-5.3-1.1
				c-0.2-0.2-0.4-0.5-0.4-0.8c-0.1-1.6-0.1-5.2,0.4-7.1c0.6-2.1,1.9-3.8,3.5-4.4c2.8-1.1,5.6,1,6.8,3.4c0.6,1.1,1,2.4,1.2,4
				c0.2,1.6,0.2,3.1,0.2,4.5l0,0.5c0,0.3-0.1,0.6-0.4,0.9C117.7,347.8,117.4,347.9,117.1,347.9z M108.6,344.9
				c0.5,0.2,1.6,0.4,3.5,0.4c1.7,0.1,3,0.1,3.8,0.1c0-1.2,0-2.3-0.2-3.4c-0.2-1.3-0.5-2.4-0.9-3.3c-0.8-1.5-2.4-2.8-3.8-2.2
				c-0.9,0.3-1.7,1.4-2,2.8C108.6,340.6,108.5,343.2,108.6,344.9z"/>
		</g>
		<g>
			<path style="fill:#E2E2E2;" d="M119.6,346.7c0-1.6,0-3.2,0.2-4.8c0.2-1.3,0.5-2.5,1.1-3.6c1.1-2.1,3.3-3.6,5.3-2.8
				c1.4,0.5,2.3,2,2.7,3.6c0.4,1.6,0.5,5.5,0.4,7.2c0,0-0.5,0.3-3.9,0.6C121.7,347,119.6,346.7,119.6,346.7z"/>
			<path d="M122.5,348c-1.9,0-3-0.2-3-0.2c-0.6-0.1-1-0.6-1-1.2l0-0.5c0-1.5,0-3,0.2-4.5c0.2-1.6,0.6-2.9,1.2-4
				c1.2-2.4,4.1-4.5,6.8-3.4c1.6,0.6,2.9,2.3,3.5,4.4c0.4,1.7,0.6,5.8,0.4,7.6c0,0.4-0.2,0.7-0.6,0.9c-0.2,0.1-0.7,0.5-4.4,0.7
				C124.4,348,123.3,348,122.5,348z M120.8,346.7L120.8,346.7L120.8,346.7z M119.6,346.7L119.6,346.7L119.6,346.7z M120.8,345.6
				c0.9,0.1,2.5,0.1,4.5-0.1c1.4-0.1,2.3-0.2,2.8-0.3c0-1.8-0.1-4.7-0.4-5.9c-0.4-1.4-1.1-2.4-2-2.8c-1.4-0.5-3,0.7-3.8,2.2
				c-0.4,0.9-0.8,1.9-0.9,3.3C120.9,343.2,120.8,344.4,120.8,345.6z M128.9,345.1L128.9,345.1L128.9,345.1z"/>
		</g>
	</g>
	<g>
		<g>
			<path style="fill:#242424;" d="M154.1,214c-4.3-18.2-6.8-20.4-11.2-46.3c-3.8-21.8-25-28.7-25-28.7c-16.5-3.7-42.5,0-42.5,0
				s-21.9,6.8-25,28.7c-3.2,22.1-7,28.2-11.2,46.3c-4.3,18.2,2,69.5,57.5,69.5S158.4,232.1,154.1,214z"/>
			<path d="M96.6,284.7c-20.4,0-36.2-6.8-46.7-20.1c-13.4-17-14.5-40.2-12-50.9c1.6-6.7,3.1-11.7,4.5-16.6
				c2.4-8.1,4.7-15.7,6.7-29.6c3.2-22.4,25.6-29.6,25.8-29.7l0.2,0c0.1,0,6.7-0.9,15.2-1.4c11.5-0.6,20.8-0.1,27.8,1.4l0.1,0
				c0.2,0.1,22,7.4,25.8,29.7c2.8,16.3,4.9,23.2,7,30.6c1.3,4.4,2.6,8.9,4.2,15.7c2.5,10.7,1.5,33.9-12,50.9
				C132.7,277.9,117,284.7,96.6,284.7z M75.6,140.1c-1.5,0.5-21.2,7.5-24.1,27.7c-2,14-4.3,21.8-6.8,30c-1.4,4.8-2.9,9.8-4.5,16.5
				c-2.4,10.2-1.4,32.6,11.5,48.9c10.1,12.7,25.2,19.2,44.9,19.2s34.8-6.5,44.9-19.2c12.9-16.3,13.9-38.6,11.5-48.9
				c-1.6-6.7-2.9-11.2-4.2-15.5c-2.2-7.4-4.3-14.5-7.1-30.9c-3.5-20.4-23-27.4-24.1-27.8C101.9,136.6,77.4,139.8,75.6,140.1z"/>
		</g>
		<g>
			<g>
				<path style="fill:#D8D8D8;" d="M71,196.7c-1.5,1.6-1.6,3.9-0.4,5.5c-1.7-1.1-4.1-0.8-5.5,0.8c-1.7,1.8-1.6,4.6,0.2,6.2
					c1.8,1.7,4.6,1.6,6.2-0.2c0.1-0.1,0.2-0.3,0.3-0.4l14.7,13.8l4.8-5.2l-14.8-13.9c0.3-0.2,0.6-0.4,0.8-0.7
					c1.7-1.8,1.6-4.6-0.2-6.2C75.5,194.8,72.7,194.9,71,196.7z"/>
				<path d="M86.6,223.6c-0.3,0-0.6-0.1-0.8-0.3l-13.9-13c-1,0.8-2.1,1.2-3.4,1.3c-1.5,0-2.9-0.5-4-1.5c-2.3-2.1-2.4-5.7-0.3-7.9
					c1.2-1.2,2.8-1.9,4.4-1.8c-0.2-1.6,0.3-3.3,1.5-4.5c2.1-2.3,5.7-2.4,7.9-0.3c2.2,2.1,2.4,5.6,0.4,7.8l13.8,13
					c0.5,0.5,0.5,1.2,0.1,1.7l-4.8,5.2C87.3,223.5,87,223.6,86.6,223.6C86.6,223.6,86.6,223.6,86.6,223.6z M71.9,207.4
					c0.3,0,0.6,0.1,0.8,0.3l13.9,13l3.2-3.4l-13.9-13.1c-0.3-0.3-0.4-0.6-0.4-1c0-0.4,0.2-0.7,0.5-0.9c0.3-0.2,0.5-0.3,0.6-0.5
					c0.6-0.6,0.9-1.4,0.9-2.3c0-0.9-0.4-1.7-1-2.2c-1.3-1.2-3.3-1.1-4.5,0.1c0,0,0,0,0,0c-1,1.1-1.2,2.8-0.3,4
					c0.3,0.5,0.3,1.1-0.1,1.5c-0.4,0.4-1,0.5-1.5,0.2c-1.3-0.8-3-0.6-4,0.5c-1.2,1.3-1.1,3.3,0.1,4.5c1.3,1.2,3.3,1.1,4.5-0.1
					c0,0,0.1-0.1,0.1-0.2l0.1-0.1c0.2-0.3,0.5-0.4,0.9-0.5C71.8,207.4,71.8,207.4,71.9,207.4z M71,196.7L71,196.7L71,196.7z"/>
			</g>
			<g>
				<path style="fill:#D8D8D8;" d="M122.1,196.7c1.5,1.6,1.6,3.9,0.4,5.5c1.7-1.1,4.1-0.8,5.5,0.8c1.7,1.8,1.6,4.6-0.2,6.2
					c-1.8,1.7-4.6,1.6-6.2-0.2c-0.1-0.1-0.2-0.3-0.3-0.4l-14.7,13.8l-4.8-5.2l14.8-13.9c-0.3-0.2-0.6-0.4-0.8-0.7
					c-1.7-1.8-1.6-4.6,0.2-6.2C117.6,194.8,120.4,194.9,122.1,196.7z"/>
				<path d="M106.5,223.6C106.5,223.6,106.5,223.6,106.5,223.6c-0.4,0-0.7-0.1-0.9-0.4l-4.8-5.2c-0.5-0.5-0.4-1.2,0.1-1.7l13.8-13
					c-1-1.1-1.5-2.5-1.4-3.9c0-1.5,0.7-2.9,1.8-3.9c2.3-2.1,5.8-2,7.9,0.3c0,0,0,0,0,0c1.2,1.2,1.7,2.9,1.5,4.5
					c1.6-0.1,3.3,0.5,4.4,1.8c2.1,2.3,2,5.8-0.3,7.9c-1.1,1-2.5,1.6-4,1.5c-1.3,0-2.4-0.5-3.4-1.3l-13.9,13
					C107.1,223.5,106.8,223.6,106.5,223.6z M103.4,217.3l3.2,3.4l13.9-13c0.2-0.2,0.6-0.3,0.9-0.3c0.3,0,0.7,0.2,0.9,0.5l0.1,0.1
					c0,0.1,0.1,0.1,0.1,0.1c0.6,0.6,1.4,1,2.2,1c0.9,0,1.7-0.3,2.3-0.9c1.3-1.2,1.4-3.2,0.1-4.5c-1-1.1-2.7-1.3-4-0.6
					c-0.5,0.3-1.1,0.2-1.5-0.2c-0.4-0.4-0.4-1-0.1-1.5c0.9-1.2,0.7-2.9-0.3-4c-1.2-1.3-3.2-1.4-4.5-0.1c-0.6,0.6-1,1.4-1,2.2
					c0,0.9,0.3,1.7,0.9,2.3c0.2,0.2,0.4,0.3,0.6,0.5c0.3,0.2,0.5,0.5,0.5,0.9c0,0.4-0.1,0.7-0.4,1L103.4,217.3z"/>
			</g>
			<g>
				<path style="fill:#D8D8D8;" d="M71,253.7c-1.5-1.6-1.6-3.9-0.4-5.5c-1.7,1.1-4.1,0.8-5.5-0.8c-1.7-1.8-1.6-4.6,0.2-6.2
					c1.8-1.7,4.6-1.6,6.2,0.2c0.1,0.1,0.2,0.3,0.3,0.4L86.6,228l4.8,5.2L76.6,247c0.3,0.2,0.6,0.4,0.8,0.7c1.7,1.8,1.6,4.6-0.2,6.2
					C75.5,255.6,72.7,255.5,71,253.7z"/>
				<path d="M74.3,256.3c-0.1,0-0.1,0-0.2,0c-1.5,0-2.9-0.7-3.9-1.8l0,0c-1.2-1.2-1.7-2.9-1.5-4.5c-1.6,0.1-3.3-0.5-4.4-1.8
					c-2.1-2.3-2-5.8,0.3-7.9c2.1-2,5.3-2,7.4-0.2l13.9-13c0.5-0.5,1.2-0.4,1.7,0.1l4.8,5.2c0.2,0.2,0.3,0.5,0.3,0.9
					c0,0.3-0.1,0.6-0.4,0.8l-13.8,13c1,1.1,1.5,2.5,1.4,3.9c0,1.5-0.7,2.9-1.8,3.9C77,255.8,75.7,256.3,74.3,256.3z M70.6,247
					c0.3,0,0.6,0.1,0.9,0.4c0.4,0.4,0.4,1,0.1,1.5c-0.9,1.2-0.7,2.9,0.3,4c0,0,0,0,0,0c0.6,0.6,1.4,1,2.2,1c0.9,0,1.7-0.3,2.3-0.9
					c1.3-1.2,1.4-3.2,0.1-4.5c-0.2-0.2-0.4-0.3-0.6-0.5c-0.3-0.2-0.5-0.5-0.5-0.9c0-0.4,0.1-0.7,0.4-1l13.9-13.1l-3.2-3.4l-13.9,13
					c-0.3,0.2-0.6,0.4-0.9,0.3c-0.3,0-0.7-0.2-0.9-0.5l-0.1-0.1c0-0.1-0.1-0.1-0.1-0.2c-1.2-1.3-3.3-1.4-4.5-0.1
					c-1.3,1.2-1.4,3.2-0.1,4.5c1,1.1,2.7,1.3,4,0.5C70.2,247,70.4,247,70.6,247z"/>
			</g>
			<g>
				<path style="fill:#D8D8D8;" d="M122.1,253.7c1.5-1.6,1.6-3.9,0.4-5.5c1.7,1.1,4.1,0.8,5.5-0.8c1.7-1.8,1.6-4.6-0.2-6.2
					c-1.8-1.7-4.6-1.6-6.2,0.2c-0.1,0.1-0.2,0.3-0.3,0.4L106.5,228l-4.8,5.2l14.8,13.9c-0.3,0.2-0.6,0.4-0.8,0.7
					c-1.7,1.8-1.6,4.6,0.2,6.2C117.6,255.6,120.4,255.5,122.1,253.7z"/>
				<path d="M118.9,256.3c-1.4,0-2.8-0.5-3.8-1.5c-1.1-1-1.7-2.4-1.8-3.9c0-1.5,0.5-2.8,1.4-3.9l-13.8-13c-0.2-0.2-0.4-0.5-0.4-0.8
					c0-0.3,0.1-0.6,0.3-0.9l4.8-5.2c0.5-0.5,1.2-0.5,1.7-0.1l13.9,13c2.1-1.8,5.3-1.7,7.4,0.2c2.3,2.1,2.4,5.7,0.3,7.9
					c-1.2,1.2-2.8,1.9-4.4,1.8c0.2,1.6-0.3,3.3-1.5,4.5c0,0,0,0,0,0C121.9,255.7,120.4,256.3,118.9,256.3z M103.4,233.1l13.9,13.1
					c0.3,0.3,0.4,0.6,0.4,1c0,0.4-0.2,0.7-0.5,0.9c-0.3,0.2-0.5,0.3-0.6,0.5c-0.6,0.6-0.9,1.4-0.9,2.3s0.4,1.7,1,2.2
					c0.6,0.6,1.4,0.9,2.3,0.9c0.9,0,1.7-0.4,2.2-1l0,0c1-1.1,1.2-2.8,0.3-4c-0.3-0.5-0.3-1.1,0.1-1.5c0.4-0.4,1-0.5,1.5-0.2
					c1.3,0.8,3,0.6,4-0.6c1.2-1.3,1.1-3.3-0.1-4.5c-1.3-1.2-3.3-1.1-4.5,0.1c0,0-0.1,0.1-0.1,0.1l-0.1,0.1c-0.2,0.3-0.5,0.4-0.9,0.5
					c-0.3,0-0.7-0.1-0.9-0.3l-13.9-13L103.4,233.1z M122.1,253.7L122.1,253.7L122.1,253.7z"/>
			</g>
			<g>
				<path style="fill:#D8D8D8;" d="M111.9,236.1c0,8.4-6.9,15.1-15.3,15.1s-15.3-6.8-15.3-15.1v-7.9h30.7V236.1z"/>
				<path d="M96.6,252.4c-9.1,0-16.5-7.3-16.5-16.3v-7.9c0-0.7,0.5-1.2,1.2-1.2h30.7c0.7,0,1.2,0.5,1.2,1.2v7.9
					C113.1,245.1,105.7,252.4,96.6,252.4z M82.4,229.3v6.7c0,7.7,6.3,13.9,14.1,13.9s14.1-6.2,14.1-13.9v-6.7H82.4z"/>
			</g>
			<g>
				<path style="fill:#D8D8D8;" d="M79.6,219.2c0-9.2,7.6-16.7,16.9-16.7s16.9,7.5,16.9,16.7v8.8H79.6V219.2z"/>
				<path d="M113.5,229.2H79.6c-0.7,0-1.2-0.5-1.2-1.2v-8.8c0-9.9,8.1-17.9,18.1-17.9s18.1,8,18.1,17.9v8.8
					C114.7,228.6,114.2,229.2,113.5,229.2z M80.8,226.8h31.4v-7.6c0-8.5-7.1-15.5-15.7-15.5s-15.7,6.9-15.7,15.5V226.8z"/>
			</g>
			<g>
				<g>
					<path style="fill:#E2E2E2;" d="M89,245.4h-0.2c-1.3,0-2.4-1.1-2.4-2.4v-0.9c0-1.3,1.1-2.4,2.4-2.4H89c1.3,0,2.4,1.1,2.4,2.4
						v0.9C91.4,244.3,90.4,245.4,89,245.4z"/>
					<path d="M89.9,246.6h-2c-1.5,0-2.7-1.2-2.7-2.7v-2.8c0-1.5,1.2-2.7,2.7-2.7h2c1.5,0,2.7,1.2,2.7,2.7v2.8
						C92.6,245.4,91.4,246.6,89.9,246.6z M87.9,240.9c-0.2,0-0.3,0.1-0.3,0.3v2.8c0,0.2,0.1,0.3,0.3,0.3h2c0.2,0,0.3-0.1,0.3-0.3
						v-2.8c0-0.2-0.1-0.3-0.3-0.3H87.9z"/>
				</g>
				<g>
					<path style="fill:#E2E2E2;" d="M104.3,245.4h-0.2c-1.3,0-2.4-1.1-2.4-2.4v-0.9c0-1.3,1.1-2.4,2.4-2.4h0.2
						c1.3,0,2.4,1.1,2.4,2.4v0.9C106.7,244.3,105.6,245.4,104.3,245.4z"/>
					<path d="M105.2,246.6h-2c-1.5,0-2.7-1.2-2.7-2.7v-2.8c0-1.5,1.2-2.7,2.7-2.7h2c1.5,0,2.7,1.2,2.7,2.7v2.8
						C107.9,245.4,106.7,246.6,105.2,246.6z M103.2,240.9c-0.2,0-0.3,0.1-0.3,0.3v2.8c0,0.2,0.1,0.3,0.3,0.3h2
						c0.2,0,0.3-0.1,0.3-0.3v-2.8c0-0.2-0.1-0.3-0.3-0.3H103.2z"/>
				</g>
			</g>
			<g>
				<path style="fill:#D8D8D8;" d="M119,231.4c0,8.9-10,10.7-22.4,10.7s-22.4-1.8-22.4-10.7c0-8.9,10-16.2,22.4-16.2
					S119,222.5,119,231.4z"/>
				<path d="M96.6,243.3c-7.4,0-12.6-0.7-16.3-2.1c-4.9-1.9-7.3-5.2-7.3-9.8c0-9.6,10.6-17.4,23.6-17.4s23.6,7.8,23.6,17.4
					C120.2,242,107.6,243.3,96.6,243.3z M96.6,216.4c-11.7,0-21.2,6.7-21.2,15c0,6.7,6.3,9.5,21.2,9.5s21.2-2.8,21.2-9.5
					C117.8,223.2,108.3,216.4,96.6,216.4z"/>
			</g>
			<circle cx="86.4" cy="220.4" r="1.4"/>
			<circle cx="106.7" cy="220.4" r="1.4"/>
			<ellipse transform="matrix(0.5 -0.866 0.866 0.5 -139.5286 183.4572)" cx="89.1" cy="212.6" rx="3.6" ry="4.3"/>
			<ellipse transform="matrix(0.866 -0.5 0.5 0.866 -92.3464 80.4864)" cx="104" cy="212.6" rx="4.3" ry="3.6"/>
		</g>
	</g>
	<g>
		<g>
			<g>
				<path style="fill:#61CDF9;" d="M141.5,98.8c0-25.6-20.7-46.3-46.3-46.3S48.8,73.2,48.8,98.8v26.5h92.7V98.8z"/>
				<path d="M142.7,126.5H47.6V98.8c0-26.2,21.3-47.5,47.5-47.5s47.5,21.3,47.5,47.5V126.5z M50,124.1h90.3V98.8
					c0-24.9-20.2-45.1-45.1-45.1S50,73.9,50,98.8V124.1z"/>
			</g>
			<g>
				<path style="fill:#61CDF9;" d="M72.4,61.3c0,0-2.5-14.3-18.9-14s-4.2,20.2,6.6,23"/>
				<path d="M60.1,71.5c-0.1,0-0.2,0-0.3,0c-7.9-2-16.3-12.4-15.5-19.1c0.3-2.3,1.8-6.1,9.1-6.3c0.2,0,0.4,0,0.6,0
					c16.7,0,19.5,14.8,19.5,15c0.1,0.7-0.3,1.3-1,1.4c-0.7,0.1-1.3-0.3-1.4-1c-0.1-0.6-2.5-13-17.1-13c-0.2,0-0.4,0-0.6,0
					c-4.2,0.1-6.5,1.5-6.8,4.1c-0.7,5.7,6.9,14.8,13.7,16.5c0.6,0.2,1,0.8,0.9,1.5C61.1,71.2,60.7,71.5,60.1,71.5z"/>
			</g>
			<g>
				<path style="fill:#005E8F;" d="M63.5,66.8c0,0-4.9-9.5-13.1-12.2C50.4,54.5,50.8,64.7,63.5,66.8z"/>
				<path d="M63.5,68c-0.1,0-0.1,0-0.2,0c-7.1-1.1-10.5-4.7-12.2-7.5c-1.8-3-2-5.8-2-5.9c0-0.4,0.2-0.8,0.5-1
					c0.3-0.2,0.7-0.3,1.1-0.2c8.7,2.8,13.6,12.4,13.9,12.8c0.2,0.4,0.2,0.9-0.1,1.3C64.3,67.8,63.9,68,63.5,68z M52,56.5
					c0.7,2.5,2.9,6.6,9.1,8.5C59.3,62.5,56.2,58.6,52,56.5z"/>
			</g>
			<g>
				<path style="fill:#61CDF9;" d="M117.9,61.3c0,0,2.5-14.3,18.9-14s4.2,20.2-6.6,23"/>
				<path d="M130.1,71.5c-0.5,0-1-0.4-1.2-0.9c-0.2-0.6,0.2-1.3,0.9-1.5c6.8-1.8,14.3-10.9,13.7-16.5c-0.3-2.7-2.6-4.1-6.8-4.1
					c-0.2,0-0.4,0-0.6,0c-14.7,0-17,12.4-17.1,13c-0.1,0.7-0.7,1.1-1.4,1c-0.7-0.1-1.1-0.7-1-1.4c0-0.2,2.8-15.3,20.1-15
					c7.3,0.2,8.9,4,9.1,6.3c0.8,6.7-7.6,17.1-15.5,19.1C130.3,71.5,130.2,71.5,130.1,71.5z"/>
			</g>
			<g>
				<path style="fill:#005E8F;" d="M126.7,66.8c0,0,4.9-9.5,13.1-12.2C139.9,54.5,139.5,64.7,126.7,66.8z"/>
				<path d="M126.7,68c-0.4,0-0.7-0.2-1-0.5c-0.3-0.4-0.3-0.9-0.1-1.3c0.2-0.4,5.2-10,13.9-12.8c0.4-0.1,0.8-0.1,1.1,0.2
					c0.3,0.2,0.5,0.6,0.5,1c0,0.1-0.6,11.2-14.2,13.4C126.8,68,126.8,68,126.7,68z M138.3,56.5c-4.2,2.1-7.4,6-9.1,8.5
					C135.4,63.1,137.6,59,138.3,56.5z"/>
			</g>
			<g>
				<circle cx="81" cy="82.6" r="4"/>
				<circle cx="109.2" cy="82.6" r="4"/>
			</g>
			<path d="M87.3,72c-1.7,0-4.3-0.3-5.4-2.5c-0.4-0.8-0.5-1.6-0.5-2.4c-0.1-1.8-0.1-3.7,0-5.5c0-0.7,0.6-1.2,1.2-1.2
				c0.7,0,1.2,0.6,1.2,1.2c-0.1,1.8,0,3.5,0,5.3c0,0.6,0.1,1.1,0.3,1.5c0.4,0.9,1.8,1.3,4.1,1.1l1-3.3c0.1-0.5,0.5-0.8,1-0.8
				c0.5-0.1,0.9,0.2,1.2,0.6l1.9,3.2c0,0.1,0.2,0.3,0.2,0.3c0.1,0,0.2,0,0.3,0l3.4,0c0.1,0,0.2,0,0.3,0c0-0.1,0.1-0.2,0.1-0.3
				c0.3-0.9,0.6-1.9,0.8-2.8c0.1-0.5,0.5-0.8,0.9-0.9c0.5-0.1,0.9,0.1,1.2,0.5c0.7,1,1.3,1.8,2,2.4c0.7,0.6,1.6,0.8,2.3,0.6
				c1.4-0.3,2-2.2,2.2-3.8c0.1-1.2,0.1-2.4-0.1-3.6c-0.1-0.7,0.4-1.3,1-1.4c0.7-0.1,1.3,0.4,1.4,1c0.2,1.4,0.2,2.8,0.1,4.2
				c-0.3,3.2-1.8,5.4-4,5.9c-1.4,0.4-3,0-4.3-1c-0.4-0.3-0.7-0.6-1-0.9c-0.1,0.2-0.2,0.5-0.2,0.7c-0.1,0.4-0.4,1.1-1,1.5
				C98.3,72,97.7,72,97.2,72l-3.4,0c-0.4,0-0.9,0-1.4-0.2c-0.7-0.3-1-0.9-1.2-1.3l-0.5-0.8l-0.2,0.7c-0.1,0.3-0.3,0.9-0.8,1.3
				c-0.5,0.4-1.1,0.4-1.4,0.4C88.1,72,87.7,72,87.3,72z M97.5,69.6L97.5,69.6L97.5,69.6z M88.4,69.5L88.4,69.5L88.4,69.5z
				 M97.6,69.5L97.6,69.5L97.6,69.5z"/>
		</g>
		<g>
			<path style="fill:#61CDF9;" d="M48.3,140.6c0,26.7,21.6,48.3,48.3,48.3s48.3-21.6,48.3-48.3H48.3z"/>
			<path d="M96.6,190c-27.3,0-49.5-22.2-49.5-49.5v-1.2h99v1.2C146.1,167.8,123.9,190,96.6,190z M49.5,141.8
				c0.6,25.4,21.5,45.9,47.1,45.9c25.6,0,46.4-20.5,47.1-45.9H49.5z"/>
		</g>
		<g>
			<g>
				<g>
					<path style="fill:#E2E2E2;" d="M72.9,168.5h-0.4c-3.1,0-5.6-2.5-5.6-5.6v-2.1c0-3.1,2.5-5.6,5.6-5.6h0.4c3.1,0,5.6,2.5,5.6,5.6
						v2.1C78.5,166,76,168.5,72.9,168.5z"/>
					<path d="M75,169.7h-4.7c-2.6,0-4.7-2.1-4.7-4.7v-6.4c0-2.6,2.1-4.7,4.7-4.7H75c2.6,0,4.7,2.1,4.7,4.7v6.4
						C79.7,167.6,77.6,169.7,75,169.7z M70.3,156.4c-1.2,0-2.3,1-2.3,2.2v6.4c0,1.2,1,2.2,2.3,2.2H75c1.2,0,2.3-1,2.3-2.2v-6.4
						c0-1.2-1-2.2-2.3-2.2H70.3z"/>
				</g>
				<g>
					<path style="fill:#E2E2E2;" d="M117.8,168.5h-0.4c-3.1,0-5.6-2.5-5.6-5.6v-2.1c0-3.1,2.5-5.6,5.6-5.6h0.4
						c3.1,0,5.6,2.5,5.6,5.6v2.1C123.4,166,120.9,168.5,117.8,168.5z"/>
					<path d="M119.9,169.7h-4.7c-2.6,0-4.7-2.1-4.7-4.7v-6.4c0-2.6,2.1-4.7,4.7-4.7h4.7c2.6,0,4.7,2.1,4.7,4.7v6.4
						C124.6,167.6,122.5,169.7,119.9,169.7z M115.2,156.4c-1.2,0-2.2,1-2.2,2.2v6.4c0,1.2,1,2.2,2.2,2.2h4.7c1.2,0,2.2-1,2.2-2.2
						v-6.4c0-1.2-1-2.2-2.2-2.2H115.2z"/>
				</g>
			</g>
			<g>
				<path style="fill:#61CDF9;" d="M133,104.4c0.8-1.2,1.6-9.6-4.8-12.1c-6-2.3-10.8,1.1-12.1,3.6c-7-2.9-12.9-3.6-21-3.6
					s-14,0.7-21,3.6c-1.2-2.5-6.1-5.9-12.1-3.6c-6.4,2.4-5.6,10.9-4.8,12.1c-13,9.8-19.5,24.2-19.5,38.8v6.3
					c0,6.8,5.5,12.3,12.3,12.3h45.1h45.1c6.8,0,12.3-5.5,12.3-12.3v-6.3C152.6,128.6,146.1,114.1,133,104.4z"/>
				<path d="M140.2,163H50c-7.5,0-13.5-6.1-13.5-13.5v-6.3c0-15.5,7-29.7,19.3-39.2c-0.4-1.6-0.5-4.3,0.3-6.8c0.9-2.9,2.8-5,5.5-6
					c5.7-2.2,10.8,0.3,13,3.3c7.1-2.8,13.2-3.4,20.5-3.4s13.4,0.6,20.5,3.4c2.1-2.9,7.3-5.4,13-3.3c2.7,1,4.6,3.1,5.5,6
					c0.8,2.5,0.7,5.2,0.3,6.8c12.3,9.5,19.3,23.8,19.3,39.2v6.3C153.8,156.9,147.7,163,140.2,163z M66,92.7c-1.1,0-2.3,0.2-3.5,0.7
					c-1.9,0.7-3.2,2.1-3.9,4.1c-1,2.8-0.6,5.7-0.3,6.2l0.6,0.9l-0.9,0.7c-12.1,9-19,22.8-19,37.8v6.3c0,6.1,5,11.1,11.1,11.1h90.2
					c6.1,0,11.1-5,11.1-11.1v-6.3c0-15-6.9-28.8-19-37.8l-0.9-0.7l0.6-0.9c0.3-0.5,0.7-3.5-0.3-6.2c-0.7-2-2.1-3.4-3.9-4.1
					c-5.3-2-9.6,1-10.5,3l-0.5,1l-1-0.4c-7.2-3-13-3.6-20.6-3.6S81.7,94.1,74.6,97l-1,0.4l-0.5-1C72.3,94.9,69.6,92.7,66,92.7z"/>
			</g>
			<g>
				<circle style="fill:#005E8F;" cx="65.4" cy="100.2" r="3.4"/>
				<path d="M65.4,104.8c-2.5,0-4.6-2.1-4.6-4.6c0-2.5,2.1-4.6,4.6-4.6s4.6,2.1,4.6,4.6C70,102.7,67.9,104.8,65.4,104.8z M65.4,98
					c-1.2,0-2.2,1-2.2,2.2c0,1.2,1,2.2,2.2,2.2c1.2,0,2.2-1,2.2-2.2C67.6,99,66.6,98,65.4,98z"/>
			</g>
			<g>
				<circle style="fill:#005E8F;" cx="124.8" cy="100.2" r="3.4"/>
				<path d="M124.8,104.8c-2.5,0-4.6-2.1-4.6-4.6c0-2.5,2.1-4.6,4.6-4.6s4.6,2.1,4.6,4.6C129.4,102.7,127.4,104.8,124.8,104.8z
					 M124.8,98c-1.2,0-2.2,1-2.2,2.2c0,1.2,1,2.2,2.2,2.2c1.2,0,2.2-1,2.2-2.2C127,99,126,98,124.8,98z"/>
			</g>
		</g>
	</g>
</g>
<g>
	<g>
		<g>
			<path style="fill:#AAAAAA;" d="M161.8,191.5c-0.9-0.4-2-0.7-3-1c-9.2-2.3-18.8,5.4-25.9,10.6c-9,6.6-15.7,15.6-19.6,26.1
				c-2.3,6.3-3.4,12.9-4.7,19.5c-0.8,4-1.7,9.8,3.3,11.4c7.6,2.5,15.8,2.2,23.8,1.9c1.4-0.1,3.7,0.2,4.3-1.4
				c0.3-0.8,0.2-1.6,0.2-2.4c-0.3-4.7-0.8-10-0.2-14.7c0.6-4.8,2.7-9.2,4.8-13.4c2.6-5,5.7-10.1,10.2-13.7
				c4.8-3.9,9.9-6.8,12.2-12.6C169.2,196.5,166.3,193.3,161.8,191.5z"/>
			<path d="M127.8,261.5c-5.5,0-11.1-0.4-16.5-2.2c-6.2-2-4.8-9.3-4.1-12.8c0.2-0.8,0.3-1.6,0.5-2.5c1.1-5.7,2.2-11.6,4.3-17.2
				c4-10.8,10.9-20,20-26.6c0.4-0.3,0.9-0.7,1.4-1c6.9-5.1,16.4-12.1,25.6-9.8c1.2,0.3,2.2,0.6,3.2,1c5.9,2.3,8.1,6.5,6,11.8
				c-2,5-5.9,8.1-9.8,11c-0.9,0.7-1.8,1.4-2.8,2.2c-4.6,3.7-7.7,9.1-9.9,13.3c-2.4,4.7-4.1,8.7-4.7,13c-0.5,4-0.2,8.4,0.1,12.7
				c0,0.6,0.1,1.2,0.1,1.8c0.1,0.9,0.1,1.9-0.3,2.9c-0.8,2.1-3.3,2.1-4.7,2.1c0,0-0.1,0-0.1,0c-0.2,0-0.4,0-0.6,0
				C133.1,261.4,130.5,261.5,127.8,261.5z M155.3,191.4c-7.1,0-14.4,5.4-20.4,9.8c-0.5,0.3-0.9,0.7-1.4,1
				c-8.8,6.4-15.4,15.2-19.2,25.5c-2,5.5-3.1,11-4.2,16.8c-0.2,0.8-0.3,1.6-0.5,2.5c-1,5.4-1,8.9,2.5,10.1
				c7.5,2.4,15.6,2.1,23.4,1.8c0.2,0,0.5,0,0.8,0c0,0,0,0,0,0c1.3,0,2.3,0,2.5-0.6c0.2-0.5,0.2-1.2,0.1-1.9c0-0.6-0.1-1.2-0.1-1.8
				c-0.3-4.4-0.6-8.9,0-13.2c0.7-4.9,2.8-9.5,4.9-13.8c2.3-4.5,5.5-10.1,10.5-14.1c0.9-0.8,1.9-1.5,2.8-2.2c3.8-2.9,7.3-5.6,9-10
				c2.1-5.4-1.6-7.5-4.6-8.7h0c-0.9-0.3-1.8-0.6-2.9-0.9C157.4,191.5,156.3,191.4,155.3,191.4z"/>
		</g>
		<g>
			<path style="fill:#E2E2E2;" d="M118.1,259.3c0-1.2,0-2.4-0.2-3.7c-0.2-1-0.4-1.9-0.9-2.8c-0.9-1.6-2.9-2.7-4.6-2.2
				c-1.2,0.4-2,1.5-2.4,2.7c-0.4,1.2-0.3,2.5-0.2,3.8c0,0,0.9,0.8,3.9,1.6C116.6,259.5,118.1,259.3,118.1,259.3z"/>
			<path d="M117.5,260.5c-0.8,0-2.2-0.1-4.2-0.6c-3.1-0.8-4.2-1.7-4.4-1.9c-0.2-0.2-0.3-0.5-0.4-0.8c-0.1-1.3-0.2-2.8,0.2-4.2
				c0.5-1.7,1.7-3,3.2-3.5c2.4-0.8,4.9,0.8,6.1,2.7c0.5,0.9,0.9,1.9,1.1,3.2c0.2,1.2,0.2,2.4,0.2,3.5l0,0.4c0,0.6-0.4,1.1-1,1.2
				C118.2,260.5,118,260.5,117.5,260.5z M118.1,259.3L118.1,259.3L118.1,259.3z M110.9,256.5c0.4,0.2,1.4,0.7,3,1.1
				c1.3,0.3,2.3,0.5,3,0.5c0-0.8,0-1.5-0.2-2.3c-0.2-1-0.4-1.7-0.8-2.4c-0.6-1.1-2-2-3.2-1.6c-0.7,0.2-1.3,1-1.6,1.9
				C110.8,254.6,110.8,255.6,110.9,256.5z"/>
		</g>
		<g>
			<path style="fill:#E2E2E2;" d="M128.1,260.3c0-1.2,0-2.4-0.2-3.7c-0.2-1-0.4-1.9-0.9-2.8c-0.9-1.6-2.9-2.7-4.6-2.2
				c-1.2,0.4-2,1.5-2.4,2.7c-0.4,1.2-0.5,4.2-0.3,5.5c0,0,0.4,0.2,3.4,0.4C126.2,260.5,128.1,260.3,128.1,260.3z"/>
			<path d="M125.6,261.6c-0.8,0-1.7,0-2.7-0.1c-3.3-0.2-3.7-0.5-3.9-0.6c-0.3-0.2-0.6-0.5-0.6-0.9c-0.1-1.4,0-4.6,0.4-5.9
				c0.5-1.7,1.7-3,3.2-3.5c2.4-0.8,4.9,0.8,6.1,2.7c0.5,0.9,0.9,1.9,1.1,3.2c0.2,1.2,0.2,2.4,0.2,3.5l0,0.3c0,0.6-0.4,1.1-1,1.2
				C128.2,261.5,127.2,261.6,125.6,261.6z M128.1,260.3L128.1,260.3L128.1,260.3z M120.7,258.9c0.5,0.1,1.2,0.1,2.3,0.2
				c1.7,0.1,3,0.1,3.8,0.1c0-0.8,0-1.6-0.2-2.4c-0.2-1-0.4-1.7-0.8-2.4c-0.6-1.1-2-2-3.2-1.6c-0.7,0.2-1.3,1-1.6,1.9
				C120.8,255.5,120.7,257.5,120.7,258.9z"/>
		</g>
	</g>
	<g>
		<g>
			<path style="fill:#AAAAAA;" d="M226.6,191.5c0.9-0.4,2-0.7,3-1c9.2-2.3,18.8,5.4,25.9,10.6c9,6.6,15.7,15.6,19.6,26.1
				c2.3,6.3,3.4,12.9,4.7,19.5c0.8,4,1.7,9.8-3.3,11.4c-7.6,2.5-15.8,2.2-23.8,1.9c-1.4-0.1-3.7,0.2-4.3-1.4
				c-0.3-0.8-0.2-1.6-0.2-2.4c0.3-4.7,0.8-10,0.2-14.7c-0.6-4.8-2.7-9.2-4.8-13.4c-2.6-5-5.7-10.1-10.2-13.7
				c-4.8-3.9-9.9-6.8-12.2-12.6C219.2,196.5,222,193.3,226.6,191.5z"/>
			<path d="M260.5,261.5c-2.7,0-5.3-0.1-7.8-0.2c-0.2,0-0.4,0-0.7,0c0,0,0,0,0,0c-1.5,0-3.9,0-4.7-2.1c-0.4-1-0.3-2-0.3-2.9
				c0-0.6,0.1-1.2,0.1-1.8c0.3-4.3,0.6-8.7,0.1-12.7c-0.6-4.6-2.6-9-4.7-13c-2.2-4.3-5.3-9.6-9.9-13.3c-0.9-0.7-1.8-1.5-2.8-2.1
				c-3.8-2.9-7.8-6-9.8-11c-2.1-5.3,0.1-9.5,6-11.8l0,0c1-0.4,2-0.7,3.2-1c9.1-2.3,18.6,4.7,25.6,9.8c0.5,0.3,0.9,0.7,1.4,1
				c9.1,6.7,16.1,15.9,20,26.6c2.1,5.6,3.2,11.5,4.3,17.2c0.2,0.8,0.3,1.6,0.5,2.4c0.7,3.5,2.1,10.8-4.1,12.8
				C271.6,261.1,265.9,261.5,260.5,261.5z M233,191.4c-1.1,0-2.1,0.1-3.1,0.4c-1.1,0.3-2,0.6-2.9,0.9h0c-3,1.2-6.7,3.4-4.6,8.7
				c1.7,4.4,5.3,7.1,9,10c0.9,0.7,1.9,1.4,2.8,2.2c4.9,4,8.2,9.7,10.5,14.1c2.2,4.3,4.3,8.9,4.9,13.8c0.6,4.2,0.3,8.8,0,13.2
				c0,0.6-0.1,1.2-0.1,1.7c0,0.7-0.1,1.4,0.1,1.9c0.2,0.6,1.2,0.6,2.5,0.6c0.3,0,0.5,0,0.8,0c7.8,0.3,15.9,0.6,23.4-1.8
				c3.5-1.1,3.5-4.7,2.5-10.1c-0.2-0.8-0.3-1.6-0.5-2.5c-1.1-5.8-2.2-11.4-4.2-16.8c-3.8-10.3-10.4-19.1-19.2-25.5
				c-0.4-0.3-0.9-0.7-1.4-1C247.4,196.7,240.1,191.4,233,191.4z"/>
		</g>
		<g>
			<path style="fill:#E2E2E2;" d="M270.2,259.3c0-1.2,0-2.4,0.2-3.7c0.2-1,0.4-1.9,0.9-2.8c0.9-1.6,2.9-2.7,4.6-2.2
				c1.2,0.4,2,1.5,2.4,2.7c0.4,1.2,0.3,2.5,0.2,3.8c0,0-0.9,0.8-3.9,1.6C271.7,259.5,270.2,259.3,270.2,259.3z"/>
			<path d="M270.8,260.5c-0.4,0-0.7,0-0.7,0c-0.6-0.1-1-0.6-1-1.2l0-0.4c0-1.1,0-2.3,0.2-3.5c0.2-1.3,0.6-2.3,1.1-3.2
				c1.1-1.9,3.6-3.5,6.1-2.7c1.5,0.5,2.7,1.8,3.2,3.5c0.4,1.4,0.4,2.9,0.2,4.2c0,0.3-0.2,0.6-0.4,0.8c-0.2,0.2-1.3,1.1-4.4,1.9
				C273,260.4,271.6,260.5,270.8,260.5z M271.4,259.3L271.4,259.3L271.4,259.3z M270.2,259.3L270.2,259.3L270.2,259.3z M275,251.7
				c-1,0-2.1,0.8-2.6,1.7c-0.4,0.6-0.6,1.4-0.8,2.4c-0.1,0.8-0.2,1.5-0.2,2.3c0.7,0,1.7-0.2,3-0.5c1.6-0.4,2.6-0.8,3-1.1
				c0.1-0.9,0.1-1.9-0.2-2.7c-0.3-1-0.9-1.7-1.6-1.9C275.4,251.8,275.2,251.7,275,251.7z"/>
		</g>
		<g>
			<path style="fill:#E2E2E2;" d="M260.2,260.3c0-1.2,0-2.4,0.2-3.7c0.2-1,0.4-1.9,0.9-2.8c0.9-1.6,2.9-2.7,4.6-2.2
				c1.2,0.4,2,1.5,2.4,2.7c0.4,1.2,0.5,4.2,0.3,5.5c0,0-0.4,0.2-3.4,0.4C262.1,260.5,260.2,260.3,260.2,260.3z"/>
			<path d="M262.7,261.6c-1.7,0-2.6-0.1-2.7-0.1c-0.6-0.1-1-0.6-1-1.2l0-0.4c0-1.1,0-2.3,0.2-3.5c0.2-1.3,0.6-2.3,1.1-3.2
				c1.1-1.9,3.6-3.5,6.1-2.7c1.5,0.5,2.7,1.8,3.2,3.5c0.4,1.4,0.5,4.6,0.4,5.9c0,0.4-0.3,0.7-0.6,0.9c-0.2,0.1-0.6,0.4-3.9,0.6
				C264.4,261.6,263.5,261.6,262.7,261.6z M261.4,260.3L261.4,260.3L261.4,260.3z M260.2,260.3L260.2,260.3L260.2,260.3z
				 M261.4,259.1c0.8,0,2.1,0.1,3.8-0.1c1.1-0.1,1.9-0.2,2.3-0.2c0-1.4-0.1-3.4-0.3-4.1c-0.3-1-0.9-1.7-1.6-1.9
				c-1.2-0.4-2.6,0.5-3.2,1.6c-0.4,0.6-0.6,1.4-0.8,2.4C261.5,257.6,261.5,258.3,261.4,259.1z"/>
		</g>
	</g>
	<g>
		<g>
			<path style="fill:#AAAAAA;" d="M229.1,269.3c-0.1,0,11.9,57.4,13.6,67.7c0.2,1.4,0.4,2.9-0.2,4.2c-1.8,4-14.9,5.1-19,5.1
				c-5.1,0-15.2,0-21.2-1.9c-1.7-0.5-2.9-1.8-3.2-3.4c-0.4-1.6-0.8-3.7-0.8-5.2c0-2.6,0.1-61.7,0.1-61.7L229.1,269.3z"/>
			<path d="M222.8,347.6c-5.4,0-14.9-0.1-20.8-2c-2.1-0.7-3.6-2.3-4-4.3c-0.5-2.4-0.8-4.2-0.8-5.4c0-2.5,0.1-61.1,0.1-61.7l0-1
				l31.6-5.2l0.2,1.2l1.2-0.2c0.1,0.3,1,5.1,2.3,11.1c3.5,17.2,10.1,49.2,11.4,56.6c0.3,1.6,0.5,3.3-0.3,4.9
				c-2.5,5.5-19.9,5.8-20.1,5.8l-0.3,0C223.1,347.6,223,347.6,222.8,347.6z M199.7,275.3c0,7.9-0.1,58.3-0.1,60.6
				c0,1,0.3,2.8,0.7,4.9c0.3,1.2,1.2,2.1,2.4,2.5c5.7,1.9,15.3,1.9,20.5,1.9h0.3c5.4,0,16.6-1.6,17.9-4.4c0.4-1,0.3-2.2,0.1-3.6
				c-1.2-7.4-7.8-39.4-11.4-56.5c-0.7-3.3-1.3-6.1-1.7-8.1c-0.2-0.8-0.3-1.5-0.4-1.9L199.7,275.3z"/>
		</g>
		<g>
			<path style="fill:#E2E2E2;" d="M230.2,345.4c0-1.4,0-2.8,0.2-4.2c0.2-1.1,0.5-2.2,1.1-3.2c1.1-1.8,3.3-3.1,5.3-2.5
				c1.4,0.5,2.3,1.7,2.7,3.1s0.4,2.9,0.2,4.3c0,0-1,1-4.4,1.8C231.9,345.6,230.2,345.4,230.2,345.4z"/>
			<path d="M230.9,346.6c-0.5,0-0.7,0-0.8,0c-0.6-0.1-1-0.6-1-1.2l0-0.4c0-1.3,0-2.6,0.2-4c0.2-1.4,0.6-2.6,1.2-3.6
				c1.2-2.1,4-3.9,6.7-3c1.6,0.6,2.9,2,3.5,3.9c0.5,1.6,0.4,3.2,0.3,4.8c0,0.3-0.2,0.6-0.4,0.8c-0.2,0.2-1.4,1.2-5,2.1
				C233.3,346.5,231.8,346.6,230.9,346.6z M231.4,345.4L231.4,345.4L231.4,345.4z M230.2,345.4L230.2,345.4L230.2,345.4z
				 M235.7,336.5c-1.2,0-2.5,0.9-3.2,2c-0.4,0.7-0.7,1.6-0.9,2.8c-0.2,0.9-0.2,1.9-0.2,2.8c0.8,0,2-0.2,3.6-0.6c2-0.5,3.1-1,3.6-1.3
				c0.1-1.1,0.1-2.2-0.2-3.3c-0.3-1.1-1.1-2-2-2.3C236.2,336.6,235.9,336.5,235.7,336.5z"/>
		</g>
		<g>
			<path style="fill:#E2E2E2;" d="M216.1,346.3c0-1.4,0-2.8-0.2-4.2c-0.2-1.1-0.5-2.2-1.1-3.2c-1.1-1.8-3.3-3.1-5.3-2.5
				c-1.4,0.5-2.3,1.7-2.7,3.1s-0.5,4.4-0.3,5.8c0,0,0.8,0.6,4.6,0.7C214.5,346.2,216.1,346.3,216.1,346.3z"/>
			<path d="M216.1,347.5C216.1,347.5,216.1,347.5,216.1,347.5c-0.1,0-1.7-0.1-5.1-0.2c-3.7-0.1-4.9-0.7-5.3-1
				c-0.3-0.2-0.4-0.5-0.5-0.8c-0.2-1.6-0.1-4.7,0.4-6.3c0.6-1.9,1.9-3.4,3.5-3.9c2.7-0.9,5.5,0.9,6.7,3c0.6,1,1,2.2,1.2,3.6
				c0.2,1.4,0.2,2.7,0.2,4l0,0.4c0,0.3-0.1,0.6-0.4,0.9C216.7,347.4,216.4,347.5,216.1,347.5z M207.6,344.5c0.6,0.1,1.6,0.3,3.5,0.4
				c1.7,0,3,0.1,3.8,0.1c0-0.9,0-1.8-0.2-2.8c-0.2-1.1-0.5-2-0.9-2.8c-0.8-1.3-2.4-2.4-3.9-1.9c-0.9,0.3-1.6,1.2-2,2.3
				C207.6,340.9,207.6,343.1,207.6,344.5z"/>
		</g>
		<g>
			<path style="fill:#E2E2E2;" d="M218.7,346.2c0-1.4,0-2.8,0.2-4.2c0.2-1.1,0.5-2.2,1.1-3.2c1.1-1.8,3.3-3.1,5.3-2.5
				c1.4,0.5,2.3,1.7,2.7,3.1c0.4,1.4,0.5,4.8,0.4,6.3c0,0-0.5,0.3-3.9,0.5C220.8,346.5,218.7,346.2,218.7,346.2z"/>
			<path d="M221.5,347.6c-1.9,0-3-0.1-3-0.1c-0.6-0.1-1-0.6-1-1.2l0-0.4c0-1.3,0-2.6,0.2-4c0.2-1.4,0.6-2.6,1.2-3.6
				c1.2-2.1,4-3.9,6.7-3c1.6,0.6,2.9,2,3.5,3.9c0.5,1.6,0.6,5.2,0.4,6.7c0,0.4-0.3,0.7-0.6,0.9c-0.2,0.1-0.7,0.4-4.4,0.6
				C223.4,347.5,222.4,347.6,221.5,347.6z M219.9,346.2L219.9,346.2L219.9,346.2z M218.7,346.2L218.7,346.2L218.7,346.2z
				 M219.9,345.1c0.9,0,2.5,0.1,4.6-0.1c1.4-0.1,2.3-0.2,2.8-0.3c0-1.6-0.1-4-0.4-4.9c-0.3-1.1-1.1-2-2-2.3
				c-1.4-0.5-3.1,0.6-3.9,1.9c-0.4,0.7-0.7,1.6-0.9,2.8C219.9,343.2,219.9,344.1,219.9,345.1z"/>
		</g>
	</g>
	<g>
		<g>
			<path style="fill:#AAAAAA;" d="M162.1,269.3c0.1,0-11.9,57.4-13.6,67.7c-0.2,1.4-0.4,2.9,0.2,4.2c1.8,4,14.9,5.1,19,5.1
				c5.1,0,15.2,0,21.2-1.9c1.7-0.5,2.9-1.8,3.2-3.4c0.4-1.6,0.8-3.7,0.8-5.2c0-2.6-0.1-61.7-0.1-61.7L162.1,269.3z"/>
			<path d="M168.4,347.6c-0.2,0-0.3,0-0.5,0l-0.3,0c-0.2,0-17.6-0.3-20.1-5.8c-0.7-1.6-0.5-3.3-0.3-4.9c1.2-7.4,7.8-39.5,11.4-56.7
				c1.2-6,2.2-10.7,2.3-11.1l1.2,0.2l0.2-1.2l31.6,5.2l0,1c0,0.6,0.1,59.1,0.1,61.7c0,1.2-0.3,3.1-0.8,5.4c-0.4,2-2,3.6-4,4.3
				C183.3,347.5,173.8,347.6,168.4,347.6z M163,270.6c-0.1,0.5-0.2,1.1-0.4,1.9c-0.4,1.9-1,4.7-1.7,8.1
				c-3.5,17.2-10.1,49.2-11.4,56.6c-0.2,1.4-0.4,2.6,0.1,3.6c1.3,2.9,12.5,4.4,17.9,4.4h0.3c5.2,0,14.8,0,20.5-1.9
				c1.3-0.4,2.2-1.3,2.4-2.5c0.5-2.1,0.7-3.9,0.7-4.9c0-2.3-0.1-52.8-0.1-60.6L163,270.6z"/>
		</g>
		<g>
			<path style="fill:#E2E2E2;" d="M161,345.4c0-1.4,0-2.8-0.2-4.2c-0.2-1.1-0.5-2.2-1.1-3.2c-1.1-1.8-3.3-3.1-5.3-2.5
				c-1.4,0.5-2.3,1.7-2.7,3.1c-0.4,1.4-0.4,2.9-0.2,4.3c0,0,1,1,4.4,1.8S161,345.4,161,345.4z"/>
			<path d="M160.3,346.6c-0.9,0-2.5-0.1-4.8-0.7c-3.6-0.9-4.8-1.9-5-2.1c-0.2-0.2-0.3-0.5-0.4-0.8c-0.1-1.5-0.2-3.2,0.3-4.8
				c0.6-1.9,1.9-3.4,3.5-3.9c2.7-0.9,5.5,0.9,6.7,3c0.6,1,1,2.2,1.2,3.6c0.2,1.4,0.2,2.7,0.2,4l0,0.4c0,0.6-0.4,1.1-1,1.2
				C161.1,346.6,160.8,346.6,160.3,346.6z M161,345.4L161,345.4L161,345.4z M152.6,342.3c0.5,0.3,1.6,0.8,3.6,1.3
				c1.6,0.4,2.9,0.6,3.6,0.6c0-1,0-1.9-0.2-2.8c-0.2-1.1-0.5-2-0.9-2.8c-0.8-1.3-2.4-2.4-3.9-1.9c-0.9,0.3-1.6,1.2-2,2.3
				C152.5,340,152.5,341.2,152.6,342.3z"/>
		</g>
		<g>
			<path style="fill:#E2E2E2;" d="M175.1,346.3c0-1.4,0-2.8,0.2-4.2c0.2-1.1,0.5-2.2,1.1-3.2c1.1-1.8,3.3-3.1,5.3-2.5
				c1.4,0.5,2.3,1.7,2.7,3.1c0.4,1.4,0.5,4.4,0.3,5.8c0,0-0.8,0.6-4.6,0.7C176.7,346.2,175.1,346.3,175.1,346.3z"/>
			<path d="M175.1,347.5c-0.3,0-0.6-0.1-0.8-0.3c-0.2-0.2-0.4-0.5-0.4-0.9l0-0.4c0-1.3,0-2.6,0.2-4c0.2-1.4,0.6-2.6,1.2-3.6
				c1.2-2.1,4-3.9,6.7-3c1.6,0.6,2.9,2,3.5,3.9c0.5,1.6,0.5,4.7,0.4,6.3c0,0.3-0.2,0.6-0.5,0.8c-0.3,0.3-1.5,0.9-5.3,1
				C176.8,347.4,175.2,347.5,175.1,347.5C175.1,347.5,175.1,347.5,175.1,347.5z M176.3,346.3L176.3,346.3L176.3,346.3z M180.5,337.5
				c-1.2,0-2.5,0.9-3.2,2c-0.4,0.7-0.7,1.6-0.9,2.8c-0.2,0.9-0.2,1.8-0.2,2.8c0.8,0,2.1-0.1,3.8-0.1c1.9-0.1,2.9-0.2,3.5-0.4
				c0.1-1.5,0-3.6-0.3-4.6c-0.3-1.1-1.1-2-2-2.3C181,337.5,180.8,337.5,180.5,337.5z"/>
		</g>
		<g>
			<path style="fill:#E2E2E2;" d="M172.5,346.2c0-1.4,0-2.8-0.2-4.2c-0.2-1.1-0.5-2.2-1.1-3.2c-1.1-1.8-3.3-3.1-5.3-2.5
				c-1.4,0.5-2.3,1.7-2.7,3.1s-0.5,4.8-0.4,6.3c0,0,0.5,0.3,3.9,0.5C170.4,346.5,172.5,346.2,172.5,346.2z"/>
			<path d="M169.7,347.6c-0.9,0-1.9,0-3.1-0.1c-3.7-0.2-4.2-0.5-4.4-0.6c-0.3-0.2-0.6-0.5-0.6-0.9c-0.2-1.6,0-5.2,0.4-6.7
				c0.6-1.9,1.9-3.4,3.5-3.9c2.7-0.9,5.5,0.9,6.7,3c0.6,1,1,2.2,1.2,3.6c0.2,1.4,0.2,2.7,0.2,4l0,0.4c0,0.6-0.4,1.1-1,1.2
				C172.6,347.4,171.6,347.6,169.7,347.6z M172.5,346.2L172.5,346.2L172.5,346.2z M164,344.8c0.5,0.1,1.4,0.2,2.8,0.3
				c2.1,0.1,3.6,0.1,4.6,0.1c0-1,0-1.9-0.2-2.9c-0.2-1.1-0.5-2-0.9-2.8c-0.8-1.3-2.4-2.4-3.9-1.9c-0.9,0.3-1.6,1.2-2,2.3
				C164.1,340.8,163.9,343.2,164,344.8z"/>
		</g>
	</g>
	<g>
		<g>
			<path style="fill:#242424;" d="M253.1,230.4c-4.3-15.9-6.8-17.8-11.2-40.4c-3.8-19-25-25.1-25-25.1c-16.5-3.3-42.5,0-42.5,0
				s-21.9,5.9-25,25.1c-3.2,19.3-7,24.6-11.2,40.4c-4.3,15.9,2,60.7,57.5,60.7S257.4,246.3,253.1,230.4z"/>
			<path d="M195.6,292.3c-21.9,0-38.9-7.1-49.2-20.6c-11.2-14.6-11.8-32.9-9.5-41.6c1.6-5.9,3.1-10.3,4.5-14.5
				c2.4-7.1,4.7-13.7,6.7-25.8c3.2-19.7,25-25.8,25.9-26l0.2,0c0.1,0,6.7-0.8,15.2-1.2c11.5-0.5,20.8-0.1,27.8,1.2l0.1,0
				c0.9,0.3,22,6.4,25.9,26c2.8,14.2,4.8,20.2,7,26.7c1.3,3.8,2.6,7.8,4.2,13.7l0,0c2.3,8.7,1.8,27-9.5,41.6
				C234.5,285.2,217.5,292.3,195.6,292.3z M174.6,166.1c-1.4,0.4-21.2,6.5-24.1,24.1c-2,12.3-4.3,19-6.8,26.2
				c-1.4,4.2-2.9,8.6-4.5,14.3c-2.2,8.2-1.6,25.6,9.1,39.5c10,13,25.9,19.6,47.3,19.6c21.4,0,37.3-6.6,47.3-19.6
				c10.7-14,11.3-31.3,9.1-39.5l0,0c-1.6-5.8-2.9-9.7-4.2-13.5c-2.2-6.5-4.3-12.6-7.1-27c-3.5-17.7-23.1-23.8-24.1-24.1
				C200.9,163,176.3,165.9,174.6,166.1z"/>
		</g>
		<g>
			<g>
				<path style="fill:#D8D8D8;" d="M168.6,209.8c-1.5,1.6-1.6,3.9-0.4,5.5c-1.7-1.1-4.1-0.8-5.5,0.8c-1.7,1.8-1.6,4.6,0.2,6.2
					c1.8,1.7,4.6,1.6,6.2-0.2c0.1-0.1,0.2-0.3,0.3-0.4l14.7,13.8l4.8-5.2l-14.8-13.9c0.3-0.2,0.6-0.4,0.8-0.7
					c1.7-1.8,1.6-4.6-0.2-6.2C173.1,207.9,170.3,208,168.6,209.8z"/>
				<path d="M184.2,236.8c-0.3,0-0.6-0.1-0.8-0.3l-13.9-13c-1,0.8-2.1,1.2-3.4,1.3c-1.5,0-2.9-0.5-4-1.5c-2.3-2.1-2.4-5.7-0.3-7.9
					c1.2-1.2,2.8-1.9,4.4-1.8c-0.2-1.6,0.3-3.3,1.5-4.5v0c2.1-2.3,5.7-2.4,7.9-0.3c1.1,1,1.7,2.4,1.8,3.9c0,1.5-0.5,2.8-1.4,3.9
					l13.8,13c0.2,0.2,0.4,0.5,0.4,0.8c0,0.3-0.1,0.6-0.3,0.9l-4.8,5.2C184.8,236.7,184.5,236.8,184.2,236.8z M169.5,220.6
					c0.3,0,0.6,0.1,0.8,0.3l13.9,13l3.2-3.4l-13.9-13.1c-0.3-0.3-0.4-0.6-0.4-1c0-0.4,0.2-0.7,0.5-0.9c0.3-0.2,0.5-0.3,0.6-0.5
					c0.6-0.6,0.9-1.4,0.9-2.3c0-0.9-0.4-1.7-1-2.2c-1.3-1.2-3.3-1.1-4.5,0.1c-1,1.1-1.2,2.8-0.3,4c0.3,0.5,0.3,1.1-0.1,1.5
					c-0.4,0.4-1,0.5-1.5,0.2c-1.3-0.8-3-0.6-4,0.6c-1.2,1.3-1.1,3.3,0.1,4.5c1.3,1.2,3.3,1.1,4.5-0.1c0,0,0.1-0.1,0.1-0.1l0.1-0.1
					c0.2-0.3,0.5-0.4,0.9-0.5C169.4,220.6,169.4,220.6,169.5,220.6z"/>
			</g>
			<g>
				<path style="fill:#D8D8D8;" d="M219.7,209.8c1.5,1.6,1.6,3.9,0.4,5.5c1.7-1.1,4.1-0.8,5.5,0.8c1.7,1.8,1.6,4.6-0.2,6.2
					c-1.8,1.7-4.6,1.6-6.2-0.2c-0.1-0.1-0.2-0.3-0.3-0.4l-14.7,13.8l-4.8-5.2l14.8-13.9c-0.3-0.2-0.6-0.4-0.8-0.7
					c-1.7-1.8-1.6-4.6,0.2-6.2C215.2,207.9,218,208,219.7,209.8z"/>
				<path d="M204.1,236.8c-0.3,0-0.6-0.1-0.9-0.4l-4.8-5.2c-0.2-0.2-0.3-0.5-0.3-0.9c0-0.3,0.1-0.6,0.4-0.8l13.8-13
					c-1-1.1-1.5-2.5-1.4-3.9c0-1.5,0.7-2.9,1.8-3.9c1.1-1,2.5-1.6,4-1.5c1.5,0,2.9,0.7,3.9,1.8l0,0c1.2,1.2,1.7,2.9,1.5,4.5
					c1.6-0.1,3.3,0.5,4.4,1.8c2.1,2.3,2,5.8-0.3,7.9c-2.1,2-5.3,2-7.4,0.2l-13.9,13C204.7,236.7,204.4,236.8,204.1,236.8z
					 M201,230.5l3.2,3.4l13.9-13c0.3-0.2,0.6-0.3,0.9-0.3c0.3,0,0.7,0.2,0.9,0.5l0.1,0.1c0,0.1,0.1,0.1,0.1,0.2
					c1.2,1.3,3.2,1.4,4.5,0.1c1.3-1.2,1.4-3.2,0.1-4.5c-1-1.1-2.7-1.3-4-0.5c-0.5,0.3-1.1,0.2-1.5-0.2c-0.4-0.4-0.4-1-0.1-1.5
					c0.9-1.2,0.7-2.9-0.3-4c-0.6-0.6-1.4-1-2.2-1c-0.9,0-1.7,0.3-2.3,0.9c-0.6,0.6-1,1.4-1,2.2c0,0.9,0.3,1.7,0.9,2.3
					c0.2,0.2,0.4,0.3,0.6,0.5c0.3,0.2,0.5,0.5,0.5,0.9c0,0.4-0.1,0.7-0.4,1L201,230.5z"/>
			</g>
			<g>
				<path style="fill:#D8D8D8;" d="M168.6,266.9c-1.5-1.6-1.6-3.9-0.4-5.5c-1.7,1.1-4.1,0.8-5.5-0.8c-1.7-1.8-1.6-4.6,0.2-6.2
					c1.8-1.7,4.6-1.6,6.2,0.2c0.1,0.1,0.2,0.3,0.3,0.4l14.7-13.8l4.8,5.2l-14.8,13.9c0.3,0.2,0.6,0.4,0.8,0.7
					c1.7,1.8,1.6,4.6-0.2,6.2C173.1,268.8,170.3,268.7,168.6,266.9z"/>
				<path d="M171.8,269.5c-1.5,0-3-0.6-4.1-1.8c0,0,0,0,0,0c-1.2-1.2-1.7-2.9-1.5-4.5c-1.6,0.1-3.3-0.5-4.4-1.8
					c-1-1.1-1.6-2.5-1.5-4c0-1.5,0.7-2.9,1.8-3.9c1.1-1,2.5-1.6,4-1.5c1.3,0,2.4,0.5,3.4,1.3l13.9-13c0.2-0.2,0.5-0.3,0.9-0.3
					c0.3,0,0.6,0.1,0.8,0.4l4.8,5.2c0.5,0.5,0.4,1.2-0.1,1.7l-13.8,13c1,1.1,1.5,2.5,1.4,3.9c0,1.5-0.7,2.9-1.8,3.9
					C174.6,269,173.2,269.5,171.8,269.5z M169.5,266.1c1.2,1.3,3.2,1.4,4.5,0.1c0.6-0.6,1-1.4,1-2.2c0-0.9-0.3-1.7-0.9-2.3
					c-0.2-0.2-0.4-0.3-0.6-0.5c-0.3-0.2-0.5-0.5-0.5-0.9c0-0.4,0.1-0.7,0.4-1l13.9-13.1l-3.2-3.4l-13.9,13c-0.2,0.2-0.6,0.3-0.9,0.3
					c-0.3,0-0.7-0.2-0.9-0.5l-0.1-0.1c0-0.1-0.1-0.1-0.1-0.1c-0.6-0.6-1.4-1-2.2-1c-0.9,0-1.7,0.3-2.3,0.9c-0.6,0.6-1,1.4-1,2.2
					c0,0.9,0.3,1.7,0.9,2.3c1,1.1,2.7,1.3,4,0.6c0.5-0.3,1.1-0.2,1.5,0.2c0.4,0.4,0.4,1,0.1,1.5C168.3,263.3,168.5,265,169.5,266.1
					L169.5,266.1z"/>
			</g>
			<g>
				<path style="fill:#D8D8D8;" d="M219.7,266.9c1.5-1.6,1.6-3.9,0.4-5.5c1.7,1.1,4.1,0.8,5.5-0.8c1.7-1.8,1.6-4.6-0.2-6.2
					c-1.8-1.7-4.6-1.6-6.2,0.2c-0.1,0.1-0.2,0.3-0.3,0.4l-14.7-13.8l-4.8,5.2l14.8,13.9c-0.3,0.2-0.6,0.4-0.8,0.7
					c-1.7,1.8-1.6,4.6,0.2,6.2C215.2,268.8,218,268.7,219.7,266.9z"/>
				<path d="M216.5,269.5c-1.4,0-2.8-0.5-3.8-1.5c-2.2-2.1-2.4-5.6-0.4-7.8l-13.8-13c-0.5-0.5-0.5-1.2-0.1-1.7l4.8-5.2
					c0.2-0.2,0.5-0.4,0.8-0.4c0.3,0,0.6,0.1,0.9,0.3l13.9,13c2.1-1.8,5.3-1.7,7.4,0.2c1.1,1,1.7,2.4,1.8,3.9c0,1.5-0.5,2.9-1.5,4
					c-1.2,1.2-2.8,1.9-4.4,1.8c0.2,1.6-0.3,3.3-1.5,4.5l0,0C219.5,268.9,218,269.5,216.5,269.5z M201,246.2l13.9,13.1
					c0.3,0.3,0.4,0.6,0.4,1c0,0.4-0.2,0.7-0.5,0.9c-0.3,0.2-0.4,0.3-0.6,0.5c-1.2,1.3-1.1,3.3,0.1,4.5c1.3,1.2,3.3,1.1,4.5-0.1
					c0,0,0,0,0,0c1-1.1,1.2-2.8,0.3-4c-0.3-0.5-0.3-1.1,0.1-1.5c0.4-0.4,1-0.5,1.5-0.2c1.3,0.8,3,0.6,4-0.5c0.6-0.6,0.9-1.4,0.9-2.3
					c0-0.9-0.4-1.7-1-2.2c-1.3-1.2-3.3-1.1-4.5,0.1c0,0-0.1,0.1-0.1,0.1l-0.1,0.1c-0.2,0.3-0.5,0.4-0.9,0.5c-0.3,0-0.7-0.1-0.9-0.3
					l-13.9-13L201,246.2z"/>
			</g>
			<g>
				<path style="fill:#D8D8D8;" d="M209.5,249.2c0,8.4-6.9,15.1-15.3,15.1c-8.5,0-15.3-6.8-15.3-15.1v-7.9h30.7V249.2z"/>
				<path d="M194.2,265.5c-9.1,0-16.5-7.3-16.5-16.3v-7.9c0-0.7,0.5-1.2,1.2-1.2h30.7c0.7,0,1.2,0.5,1.2,1.2v7.9
					C210.7,258.2,203.3,265.5,194.2,265.5z M180,242.5v6.7c0,7.7,6.3,13.9,14.1,13.9c7.8,0,14.1-6.2,14.1-13.9v-6.7H180z"/>
			</g>
			<g>
				<path style="fill:#D8D8D8;" d="M177.2,232.4c0-9.2,7.6-16.7,16.9-16.7c9.3,0,16.9,7.5,16.9,16.7v8.8h-33.8V232.4z"/>
				<path d="M211.1,242.3h-33.8c-0.7,0-1.2-0.5-1.2-1.2v-8.8c0-9.9,8.1-17.9,18.1-17.9c10,0,18.1,8,18.1,17.9v8.8
					C212.3,241.8,211.7,242.3,211.1,242.3z M178.4,239.9h31.4v-7.6c0-8.5-7.1-15.5-15.7-15.5c-8.7,0-15.7,6.9-15.7,15.5V239.9z"/>
			</g>
			<g>
				<g>
					<path style="fill:#E2E2E2;" d="M186.6,258.6h-0.2c-1.3,0-2.4-1.1-2.4-2.4v-0.9c0-1.3,1.1-2.4,2.4-2.4h0.2
						c1.3,0,2.4,1.1,2.4,2.4v0.9C189,257.5,188,258.6,186.6,258.6z"/>
					<path d="M187.5,259.8h-2c-1.5,0-2.7-1.2-2.7-2.7v-2.8c0-1.5,1.2-2.7,2.7-2.7h2c1.5,0,2.7,1.2,2.7,2.7v2.8
						C190.2,258.6,189,259.8,187.5,259.8z M185.5,254c-0.2,0-0.3,0.1-0.3,0.3v2.8c0,0.2,0.1,0.3,0.3,0.3h2c0.2,0,0.3-0.1,0.3-0.3
						v-2.8c0-0.2-0.1-0.3-0.3-0.3H185.5z"/>
				</g>
				<g>
					<path style="fill:#E2E2E2;" d="M201.9,258.6h-0.2c-1.3,0-2.4-1.1-2.4-2.4v-0.9c0-1.3,1.1-2.4,2.4-2.4h0.2
						c1.3,0,2.4,1.1,2.4,2.4v0.9C204.3,257.5,203.2,258.6,201.9,258.6z"/>
					<path d="M202.8,259.8h-2c-1.5,0-2.7-1.2-2.7-2.7v-2.8c0-1.5,1.2-2.7,2.7-2.7h2c1.5,0,2.7,1.2,2.7,2.7v2.8
						C205.5,258.6,204.3,259.8,202.8,259.8z M200.8,254c-0.2,0-0.3,0.1-0.3,0.3v2.8c0,0.2,0.1,0.3,0.3,0.3h2c0.2,0,0.3-0.1,0.3-0.3
						v-2.8c0-0.2-0.1-0.3-0.3-0.3H200.8z"/>
				</g>
			</g>
			<g>
				<path style="fill:#D8D8D8;" d="M216.6,244.6c0,8.9-10,10.7-22.4,10.7c-12.4,0-22.4-1.8-22.4-10.7c0-8.9,10-16.2,22.4-16.2
					C206.5,228.4,216.6,235.6,216.6,244.6z"/>
				<path d="M194.2,256.5c-7.4,0-12.6-0.7-16.3-2.1c-4.9-1.9-7.3-5.2-7.3-9.8c0-9.6,10.6-17.4,23.6-17.4c13,0,23.6,7.8,23.6,17.4
					C217.8,255.1,205.2,256.5,194.2,256.5z M194.2,229.6c-11.7,0-21.2,6.7-21.2,15c0,6.7,6.3,9.5,21.2,9.5c14.9,0,21.2-2.8,21.2-9.5
					C215.4,236.3,205.9,229.6,194.2,229.6z"/>
			</g>
			<circle cx="184" cy="233.6" r="1.4"/>
			<circle cx="204.3" cy="233.6" r="1.4"/>
			<ellipse transform="matrix(0.5 -0.866 0.866 0.5 -102.127 274.5565)" cx="186.7" cy="225.7" rx="3.6" ry="4.3"/>
			<ellipse transform="matrix(0.866 -0.5 0.5 0.866 -85.8506 131.0469)" cx="201.6" cy="225.7" rx="4.3" ry="3.6"/>
		</g>
	</g>
	<g>
		<g>
			<g>
				<path style="fill:#AAAAAA;" d="M240.5,129.7c0-25.6-20.7-46.3-46.3-46.3s-46.3,20.7-46.3,46.3v26.5h92.7V129.7z"/>
				<path d="M241.7,157.4h-95.1v-27.7c0-26.2,21.3-47.5,47.5-47.5s47.5,21.3,47.5,47.5V157.4z M149,154.9h90.3v-25.3
					c0-24.9-20.2-45.1-45.1-45.1S149,104.8,149,129.7V154.9z"/>
			</g>
			<g>
				<path style="fill:#AAAAAA;" d="M171.4,92.1c0,0-2.5-14.3-18.9-14c-16.4,0.3-4.2,20.2,6.6,23"/>
				<path d="M159.2,102.4c-0.1,0-0.2,0-0.3,0c-7.9-2-16.3-12.4-15.5-19.1c0.3-2.3,1.8-6.1,9.1-6.3c0.2,0,0.4,0,0.6,0
					c16.7,0,19.5,14.8,19.5,15c0.1,0.7-0.3,1.3-1,1.4c-0.7,0.1-1.3-0.3-1.4-1c-0.1-0.6-2.6-13.3-17.7-13c-4.2,0.1-6.5,1.5-6.8,4.1
					c-0.7,5.7,6.9,14.8,13.7,16.5c0.6,0.2,1,0.8,0.9,1.5C160.2,102,159.7,102.4,159.2,102.4z"/>
			</g>
			<g>
				<path style="fill:#454545;" d="M162.6,97.6c0,0-4.9-9.5-13.1-12.2C149.4,85.4,149.8,95.5,162.6,97.6z"/>
				<path d="M164.7,99.2l-2.3-0.4c-7.1-1.1-10.5-4.7-12.2-7.5c-1.8-3-2-5.8-2-5.9l-0.1-1.7l1.6,0.5c8.7,2.8,13.6,12.4,13.9,12.8
					L164.7,99.2z M151,87.3c0.7,2.5,2.9,6.6,9.1,8.5C158.4,93.3,155.2,89.4,151,87.3z"/>
			</g>
			<g>
				<path style="fill:#AAAAAA;" d="M216.9,92.1c0,0,2.5-14.3,18.9-14c16.4,0.3,4.2,20.2-6.6,23"/>
				<path d="M229.2,102.4c-0.5,0-1-0.4-1.2-0.9c-0.2-0.6,0.2-1.3,0.9-1.5c6.8-1.8,14.3-10.9,13.7-16.5c-0.3-2.7-2.6-4.1-6.8-4.1
					c-15.1-0.3-17.6,12.4-17.7,13c-0.1,0.7-0.7,1.1-1.4,1c-0.7-0.1-1.1-0.7-1-1.4c0-0.2,2.8-15,19.5-15c0.2,0,0.4,0,0.6,0
					c7.3,0.2,8.9,4,9.1,6.3c0.8,6.7-7.6,17.1-15.5,19.1C229.4,102.4,229.3,102.4,229.2,102.4z"/>
			</g>
			<g>
				<path style="fill:#454545;" d="M225.7,97.6c0,0,4.9-9.5,13.1-12.2C238.9,85.4,238.5,95.5,225.7,97.6z"/>
				<path d="M223.6,99.2l1.1-2.1c0.2-0.4,5.2-10,13.9-12.8l1.6-0.5l-0.1,1.7c0,0.1-0.6,11.2-14.2,13.4L223.6,99.2z M237.3,87.3
					c-4.2,2.1-7.4,6-9.1,8.5C234.5,93.9,236.6,89.8,237.3,87.3z"/>
			</g>
			<g>
				<path d="M184.3,109.8c-0.7,2.4-3.2,3.7-5.5,3c-2.4-0.7-3.7-3.2-3-5.5c0.7-2.4,2.6-1.8,5-1.1C183.1,106.9,185,107.4,184.3,109.8z
					"/>
				<path d="M204,109.8c0.7,2.4,3.2,3.7,5.5,3s3.7-3.2,3-5.5c-0.7-2.4-2.6-1.8-5-1.1S203.3,107.4,204,109.8z"/>
			</g>
			<path d="M199.3,102.2c-0.2,0-0.3,0-0.4,0c-6-0.5-11.7-3.4-15.6-7.9c-0.9-1-2-2.5-1.8-4.3c0.1-0.7,0.7-1.1,1.3-1.1
				c0.7,0.1,1.1,0.7,1.1,1.3c-0.1,0.7,0.3,1.4,1.2,2.4c3.6,4,8.7,6.6,14,7.1c0.2,0,0.2,0,0.3,0c0,0,0-0.1,0.1-0.2
				c0.4-1,0.3-2.2-0.1-3.2c-0.2-0.5-0.1-1,0.3-1.4c0.4-0.4,0.9-0.4,1.4-0.2c0.9,0.5,1.9,0.8,2.9,1.1c1,0.2,1.6,0.2,2.1,0
				c0.2-0.1,0.4-0.5,0.3-0.6c-0.5-0.4-0.5-1.2-0.1-1.7c0.4-0.5,1.2-0.5,1.7-0.1c0.6,0.5,0.9,1.3,0.8,2.1c-0.1,1-0.7,1.9-1.5,2.4
				c-1.3,0.8-2.8,0.6-3.9,0.3c-0.4-0.1-0.8-0.2-1.3-0.4c0,0.8-0.1,1.7-0.4,2.5c-0.1,0.4-0.4,1-1,1.4
				C200.2,102.1,199.7,102.2,199.3,102.2z M199.3,99.9L199.3,99.9L199.3,99.9z M199.4,99.8L199.4,99.8L199.4,99.8z"/>
		</g>
		<g>
			<path style="fill:#AAAAAA;" d="M147.3,164.1c0,26.7,21.6,44.3,48.3,44.3s48.3-17.6,48.3-44.3H147.3z"/>
			<path d="M195.6,209.6c-13.5,0-25.9-4.4-34.9-12.4c-9.4-8.3-14.5-20-14.5-33v-1.2h99v1.2c0,13-5.2,24.7-14.5,33
				C221.5,205.2,209.1,209.6,195.6,209.6z M148.5,165.3c0.3,11.8,5.2,22.4,13.7,30c8.6,7.6,20.5,11.8,33.3,11.8
				c12.9,0,24.7-4.2,33.3-11.8c8.6-7.6,13.4-18.2,13.7-30H148.5z"/>
		</g>
		<g>
			<g>
				<g>
					<path style="fill:#E2E2E2;" d="M166,188.1h-0.4c-3.1,0-5.6-2.5-5.6-5.6v-2.1c0-3.1,2.5-5.6,5.6-5.6h0.4c3.1,0,5.6,2.5,5.6,5.6
						v2.1C171.6,185.6,169.1,188.1,166,188.1z"/>
					<path d="M168.1,189.3h-4.7c-2.6,0-4.7-2.1-4.7-4.7v-6.4c0-2.6,2.1-4.7,4.7-4.7h4.7c2.6,0,4.7,2.1,4.7,4.7v6.4
						C172.8,187.2,170.7,189.3,168.1,189.3z M163.4,176c-1.2,0-2.2,1-2.2,2.3v6.4c0,1.2,1,2.3,2.2,2.3h4.7c1.2,0,2.3-1,2.3-2.3v-6.4
						c0-1.2-1-2.3-2.3-2.3H163.4z"/>
				</g>
				<g>
					<path style="fill:#E2E2E2;" d="M225.9,188.1h-0.4c-3.1,0-5.6-2.5-5.6-5.6v-2.1c0-3.1,2.5-5.6,5.6-5.6h0.4
						c3.1,0,5.6,2.5,5.6,5.6v2.1C231.5,185.6,229,188.1,225.9,188.1z"/>
					<path d="M228.1,189.3h-4.7c-2.6,0-4.7-2.1-4.7-4.7v-6.4c0-2.6,2.1-4.7,4.7-4.7h4.7c2.6,0,4.7,2.1,4.7,4.7v6.4
						C232.7,187.2,230.7,189.3,228.1,189.3z M223.4,176c-1.2,0-2.3,1-2.3,2.3v6.4c0,1.2,1,2.3,2.3,2.3h4.7c1.2,0,2.2-1,2.2-2.3v-6.4
						c0-1.2-1-2.3-2.2-2.3H223.4z"/>
				</g>
			</g>
			<g>
				<g>
					<path style="fill:#AAAAAA;" d="M231,128.6c0.2-0.9,0.4-1.7,0.4-2.7c0-5.4-4.3-9.7-9.7-9.7c-2.9,0-5.4,1.3-7.2,3.3
						c-6.3-2.3-13.2-3.6-20.4-3.6s-14,1.3-20.4,3.6c-1.8-2-4.3-3.3-7.2-3.3c-5.4,0-9.7,4.3-9.7,9.7c0,0.9,0.2,1.8,0.4,2.7
						c-12.6,9.7-20.6,23.9-20.6,38.2v2.3c0,6.8,5.5,12.3,12.3,12.3h90.2c6.8,0,12.3-5.5,12.3-12.3v-2.3
						C251.6,152.5,243.6,138.3,231,128.6z"/>
					<path d="M239.2,182.6h-90.2c-7.5,0-13.5-6.1-13.5-13.5v-2.3c0-14.1,7.6-28.5,20.4-38.6c-0.2-0.8-0.3-1.5-0.3-2.2
						c0-6,4.9-10.9,10.9-10.9c2.8,0,5.5,1.1,7.5,3.1c6.5-2.3,13.2-3.4,20-3.4c6.8,0,13.5,1.1,20,3.4c2-2,4.7-3.1,7.5-3.1
						c6,0,10.9,4.9,10.9,10.9c0,0.7-0.1,1.4-0.3,2.2c12.8,10.2,20.4,24.6,20.4,38.6v2.3C252.8,176.5,246.7,182.6,239.2,182.6z
						 M166.6,117.4c-4.7,0-8.5,3.8-8.5,8.5c0,0.7,0.1,1.4,0.4,2.3l0.2,0.8l-0.6,0.5c-12.6,9.8-20.1,23.7-20.1,37.2v2.3
						c0,6.1,5,11.1,11.1,11.1h90.2c6.1,0,11.1-5,11.1-11.1v-2.3c0-13.6-7.5-27.5-20.1-37.2l-0.6-0.5l0.2-0.8
						c0.3-0.9,0.4-1.6,0.4-2.3c0-4.7-3.8-8.5-8.5-8.5c-2.4,0-4.7,1-6.3,2.9l-0.5,0.6l-0.8-0.3c-6.5-2.3-13.2-3.5-19.9-3.5
						c-6.8,0-13.5,1.2-19.9,3.5l-0.8,0.3l-0.5-0.6C171.3,118.4,169,117.4,166.6,117.4z"/>
				</g>
				<g>
					<g>
						<circle style="fill:#454545;" cx="166.3" cy="125.8" r="3.4"/>
						<path d="M166.3,130.4c-2.5,0-4.6-2.1-4.6-4.6c0-2.5,2.1-4.6,4.6-4.6s4.6,2.1,4.6,4.6C170.8,128.3,168.8,130.4,166.3,130.4z
							 M166.3,123.6c-1.2,0-2.2,1-2.2,2.2s1,2.2,2.2,2.2c1.2,0,2.2-1,2.2-2.2S167.5,123.6,166.3,123.6z"/>
					</g>
					<g>
						<circle style="fill:#454545;" cx="222.1" cy="125.8" r="3.4"/>
						<path d="M222.1,130.4c-2.5,0-4.6-2.1-4.6-4.6c0-2.5,2.1-4.6,4.6-4.6s4.6,2.1,4.6,4.6C226.6,128.3,224.6,130.4,222.1,130.4z
							 M222.1,123.6c-1.2,0-2.2,1-2.2,2.2s1,2.2,2.2,2.2c1.2,0,2.2-1,2.2-2.2S223.3,123.6,222.1,123.6z"/>
					</g>
				</g>
			</g>
		</g>
	</g>
</g>
</svg>
