<?xml version="1.0" encoding="utf-8"?>
<!-- Generator: Adobe Illustrator 24.1.1, SVG Export Plug-In . SVG Version: 6.00 Build 0)  -->
<svg version="1.1" id="Layer_1" xmlns="http://www.w3.org/2000/svg" xmlns:xlink="http://www.w3.org/1999/xlink" x="0px" y="0px"
	 viewBox="0 0 240 240" style="enable-background:new 0 0 240 240;" xml:space="preserve">
<g>
	<g>
		<path style="fill:#FFFFFF;" d="M98.48,205.11c-0.69,1.34-2.79,1.69-4.13,2.16c-1.49,0.52-2.99,1.03-4.48,1.54
			c-4.26,1.42-8.52,2.81-12.78,4.26c0,0,1.47-2.2,0-6.49c-1.47-4.28-4.35-5.44-4.35-5.44c10.23-3.64,4.65-1.49,14.88-5.11
			c0.19-0.07,0.37-0.12,0.56-0.19c0.73-0.25,1.5-0.46,2.28-0.57c0.57-0.1,1.17-0.15,1.76-0.15c0.47,0,0.96,0.03,1.44,0.12
			c2.2,0.39,3.91,1.91,4.8,3.82C99.36,200.93,99.47,203.18,98.48,205.11z"/>
	</g>
	<path d="M88.19,195.84c0.73-0.24,1.5-0.44,2.28-0.57C89.69,195.38,88.91,195.59,88.19,195.84z M75.98,213.49
		c-4.9,1.69-9.77,3.58-14.61,5.46L75.98,213.49z"/>
	<path d="M100.77,197.95c-1.32-2.76-3.8-4.72-6.66-5.21c-0.61-0.12-1.23-0.17-1.88-0.17c-1.66,0-3.43,0.36-5.44,1.07
		c-5.07,1.79-6.24,2.16-7.36,2.52c-1.17,0.37-2.37,0.74-7.52,2.57l-13.88,5.22c-0.36-2.71-1.56-6.37-4.99-10.11
		c-4.14-4.33-9.91-6.78-15.84-6.78c-0.56,0-1.12,0.02-1.66,0.07c-3.69,0.29-9.5,2.76-10.92,7.34c-2.3,7.36,2.25,14.34,4.7,18.09
		c2.22,3.43,4.21,5.7,6.71,8.57l1.01,1.17c2.38,2.72,5.43,4.11,9.08,4.11c4.24,0,8.47-1.84,12.21-3.47
		c1.07-0.47,2.08-0.91,2.99-1.25l2.43-0.95c4.41-1.71,8.96-3.47,13.48-5.02c2.72-0.93,5.46-1.84,8.18-2.76
		c3.21-1.07,6.53-2.16,9.79-3.31c0.22-0.07,0.47-0.15,0.73-0.22c1.5-0.46,3.77-1.13,4.8-3.16
		C102.02,203.75,102.04,200.64,100.77,197.95z M98.48,205.11c-0.69,1.34-2.79,1.69-4.13,2.16c-1.49,0.52-2.99,1.03-4.48,1.54
		c-4.5,1.5-9,2.99-13.48,4.53c-0.14,0.05-0.29,0.1-0.42,0.15l-14.61,5.46c-0.32,0.12-0.64,0.25-0.96,0.37
		c-1.86,0.71-3.99,1.72-6.24,2.62c-2.62,1.05-5.41,1.93-8.05,1.93c-2.6,0-5.09-0.85-7.15-3.23c-2.94-3.36-5.12-5.73-7.54-9.45
		c-3.01-4.65-6.19-10.23-4.4-15.98c1-3.2,5.63-5.31,8.71-5.56c0.49-0.03,0.96-0.05,1.45-0.05c0.64,0,1.3,0.03,1.94,0.1
		c0.64,0.07,1.28,0.17,1.93,0.3s1.27,0.3,1.89,0.49c0.61,0.19,1.22,0.42,1.83,0.68c2.38,1.01,4.58,2.5,6.37,4.38
		c5.77,6.27,4.29,12.07,4.29,12.07l17.3-6.49c10.23-3.64,4.65-1.49,14.88-5.11c0.19-0.07,0.37-0.12,0.56-0.19
		c0.73-0.25,1.5-0.46,2.28-0.57c0.57-0.1,1.17-0.15,1.76-0.15c0.47,0,0.96,0.03,1.44,0.12c2.2,0.39,3.91,1.91,4.8,3.82
		C99.36,200.93,99.47,203.18,98.48,205.11z"/>
	<path style="fill:#00A2F6;" d="M77.09,213.07l-0.22,0.08l-0.47,0.19c-0.14,0.05-0.29,0.1-0.42,0.15l-14.61,5.46
		c-0.32,0.12-0.64,0.25-0.96,0.37c-1.86,0.71-3.99,1.72-6.24,2.62c-2.62,1.05-5.41,1.93-8.05,1.93c-2.6,0-5.09-0.85-7.15-3.23
		c-2.94-3.36-5.12-5.73-7.54-9.45c-3.01-4.65-6.19-10.23-4.4-15.98c1-3.2,5.63-5.31,8.71-5.56c0.49-0.03,0.96-0.05,1.45-0.05
		c0.64,0,1.3,0.03,1.94,0.1c0.64,0.07,1.28,0.17,1.93,0.3s1.27,0.3,1.89,0.49c0.61,0.19,1.22,0.42,1.83,0.68
		c2.38,1.01,4.58,2.5,6.37,4.38c5.77,6.27,4.29,12.07,4.29,12.07l17.3-6.49c0,0,2.87,1.17,4.35,5.44
		C78.57,210.87,77.09,213.07,77.09,213.07z"/>
</g>
<g>
	<path style="fill:#FFFFFF;" d="M101.89,43.69c1.67,0.15,1.91,0.23,3.6,0.83c1.43,0.52,2.82,1.26,4.14,2.04
		c4.23,2.51,10.07,12.64,6.33,16.4c-3.32,3.33-7.8-3.08-10.22-4.79c-5.42-3.85-6.77,1.57-9.66,6c-2.33,3.58-7.06,4.51-10.58,2.06
		c-3.52-2.45-4.52-7.31-2.22-10.91C87.45,48.77,93.59,42.93,101.89,43.69z"/>
	<path d="M119.59,58.24c-0.68-5.38-5.14-11.75-8.67-13.85c-1.72-1.03-3.18-1.74-4.57-2.25c-1.88-0.68-2.32-0.79-4.23-0.96
		c-0.56-0.07-1.13-0.08-1.67-0.08c-5.09,0-9.82,2.13-14.08,6.32c-0.47,0.42-1.15,1.18-2.3,2.52c-0.66,0.76-1.17,1.4-1.57,1.93
		c-1.1,1.45-1.42,2.15-1.54,2.42c-0.78,1.74-1.49,3.47-1.45,5.48c0.05,3.42,1.76,6.61,4.55,8.56c1.71,1.18,3.7,1.83,5.77,1.83
		c3.38,0,6.53-1.72,8.39-4.58c0.57-0.9,1.08-1.78,1.57-2.64V62.9c0.1-0.15,0.19-0.29,0.29-0.42c0.29-0.47,0.52-0.88,0.69-1.25
		c0.95-1.52,1.45-1.84,1.72-1.84c0.17,0,0.73,0.08,1.79,0.85c0.41,0.3,1.08,0.95,1.72,1.57c2.11,2.06,4.75,4.63,7.85,4.63
		c1.45,0,2.81-0.57,3.91-1.69C118.83,63.66,120.03,61.65,119.59,58.24z M115.95,62.95c-0.68,0.68-1.39,0.95-2.11,0.95
		c-2.93,0-6.17-4.36-8.1-5.73c-1.3-0.93-2.37-1.32-3.26-1.32c-1.71,0-2.86,1.35-3.94,3.16c-0.02,0-0.02,0.02-0.02,0.02
		c0,0.1-0.61,1.08-0.91,1.57c-0.49,0.85-0.98,1.72-1.54,2.57c-1.44,2.23-3.82,3.43-6.26,3.43c-1.49,0-2.99-0.46-4.33-1.37
		c-2.2-1.54-3.42-4.01-3.45-6.53c-0.02-1.5,0.57-2.93,1.23-4.38c0.85-1.89,4.8-6.07,4.84-6.07c0.02-0.02,0.05-0.05,0.07-0.07
		c3.33-3.28,7.41-5.56,12.28-5.56c0.47,0,0.95,0.02,1.44,0.07c1.67,0.15,1.91,0.22,3.6,0.83c1.44,0.52,2.82,1.27,4.14,2.05
		C113.85,49.07,119.69,59.2,115.95,62.95z"/>
	<path style="fill:#653109;" d="M98.54,60.01c-0.02,0-0.02,0.02-0.02,0.02c0,0.1-0.61,1.08-0.91,1.57
		c-0.49,0.85-0.98,1.72-1.54,2.57c-1.44,2.23-3.82,3.43-6.26,3.43c-1.49,0-2.99-0.46-4.33-1.37c-2.2-1.54-3.42-4.01-3.45-6.53
		c-0.02-1.5,0.57-2.93,1.23-4.38c0.85-1.89,4.8-6.07,4.84-6.07c0.02-0.02,0.05-0.05,0.07-0.07h0.1c1.17,0,1.83,0.59,1.83,0.59
		c0.95,0.57,1.61,1.5,1.52,2.64c-0.05,0.78-0.41,1.42-0.9,1.93c0.59-0.44,1.3-0.71,2.1-0.63c1.67,0.17,2.94,1.69,2.81,3.42
		c-0.05,0.86-0.46,1.61-1.05,2.13c0.51-0.29,1.08-0.47,1.69-0.41C97.37,58.96,98.08,59.15,98.54,60.01z"/>
</g>
<g>
	<path style="fill:#FFFFFF;" d="M152.68,37.78c-5.9,1.62-8.29,5.73-10.44,11.38c-1.18,3.1-3.33,10.45,1.04,12.2
		c4.76,1.92,6.46-5.4,8.63-7.7c2.86-3.03,7.06,0.49,11.2,4.35c3.34,3.13,8.56,2.95,11.66-0.4c3.11-3.35,2.96-8.58-0.34-11.73
		C168.04,39.8,160.96,35.51,152.68,37.78z"/>
	<path style="fill:#653109;" d="M168,40.72c0,0-0.02,0-0.02-0.02H168V40.72z"/>
	<path d="M179.27,49.54c-0.47-2.16-1.74-3.89-2.91-5.29c-0.24-0.27-1.96-1.94-3.86-3.45c-1.08-0.88-2.22-1.71-3.16-2.2l0.02-0.03
		c-4.14-2.65-8.13-3.94-12.21-3.94c-1.71,0-3.45,0.24-5.16,0.71c-7.42,2.03-10.16,7.73-12.14,12.92
		c-2.99,7.85-2.06,13.63,2.47,15.45c0.83,0.32,1.64,0.49,2.45,0.49c3.99,0,6.04-3.75,7.54-6.49c0.51-0.93,1.03-1.89,1.42-2.32
		c0.3-0.32,0.51-0.34,0.68-0.34c0.42,0,1.44,0.22,3.42,1.74c0.2,0.19,0.39,0.32,0.51,0.41c0.29,0.22,0.76,0.57,1.39,1.12
		c0.44,0.37,0.96,0.85,1.54,1.44c0.03,0.03,0.08,0.08,0.1,0.1c2.01,1.89,4.63,2.93,7.37,2.93c2.98,0,5.85-1.25,7.9-3.45
		C179.07,56.71,180.07,53.05,179.27,49.54z M174.78,57.61c-1.62,1.76-3.82,2.64-6.04,2.64c-2.01,0-4.04-0.74-5.63-2.23
		c-0.02-0.02-0.02-0.02-0.03-0.03c-2.18-2.23-3.58-2.99-3.58-3.11c-0.02-0.02-0.02-0.02-0.03-0.02c-1.79-1.39-3.52-2.33-5.04-2.33
		c-0.91,0-1.76,0.34-2.52,1.13c-1.91,2.05-3.47,8.01-7.12,8.01c-0.46,0-0.96-0.08-1.5-0.3c-4.36-1.76-2.22-9.11-1.03-12.21
		c2.15-5.65,4.53-9.76,10.43-11.38c1.54-0.42,3.03-0.61,4.48-0.61c3.86,0,7.44,1.37,10.82,3.53c0,0.02,0.02,0.02,0.02,0.02V40.7
		c0-0.02,0-0.02,0-0.02s0.02,0,0.03,0.02h0.02c0.57,0.27,4.97,3.48,6.37,5.17c1.1,1.32,2.05,2.65,2.38,4.21
		C177.38,52.69,176.72,55.51,174.78,57.61z"/>
	<path style="fill:#653109;" d="M174.78,57.61c-1.62,1.76-3.82,2.64-6.04,2.64c-2.01,0-4.04-0.74-5.63-2.23
		c-0.02-0.02-0.02-0.02-0.03-0.03c-2.18-2.23-3.58-2.99-3.58-3.11c-0.02-0.02-0.02-0.02-0.03-0.02c0.29-1.03,1.03-1.89,2.13-2.25
		c0.63-0.2,1.27-0.15,1.88,0.02c-0.74-0.39-1.35-1.07-1.62-1.93c-0.56-1.76,0.41-3.62,2.13-4.19c0.79-0.27,1.62-0.17,2.35,0.15
		c-0.64-0.41-1.17-1-1.42-1.76c-0.08-0.25-0.12-0.51-0.12-0.76c0-0.83,0.39-1.61,0.98-2.23c0,0,0.02-0.02,0.03-0.03v-0.02
		c0.08-0.07,0.24-0.22,0.46-0.39c0.03-0.03,0.08-0.07,0.12-0.1c0.15-0.1,0.34-0.22,0.52-0.32c0.02,0,0.02,0,0.03-0.02
		c0.15-0.07,0.3-0.14,0.46-0.19c0.05-0.02,0.1-0.05,0.15-0.07c0.15-0.05,0.29-0.03,0.44-0.07c0,0.02,0.02,0.02,0.02,0.02V40.7
		c0.02,0,0.02,0,0.03,0h0.02c0.57,0.27,4.97,3.48,6.37,5.17c1.1,1.32,2.05,2.65,2.38,4.21C177.38,52.69,176.72,55.51,174.78,57.61z"
		/>
</g>
<g>
	<path d="M93.79,136.59c0.91,0,1.82,0.32,2.69,1.08c1.68,1.48,0.68,4.64,0.41,6.62c-0.64,4.29-1.74,8.68-3.14,13
		c-1.58,4.84-3.54,9.55-5.68,14.03c-1.03,2.17-2.1,4.28-3.21,6.33c-2.76,5.06-5.28,10.52-9.64,14.45C73.05,194.03,70,195,67.06,195
		c-5.41,0-10.43-3.29-8.83-9.87c0.54-2.2,1.84-4.08,3.48-5.81c3.07-3.25,7.3-5.98,9.76-9.29c0.81-1.08,1.6-2.24,2.41-3.49
		c3.17-5.69,7.35-15.08,10.54-21.11C85.39,143.15,89.64,136.59,93.79,136.59 M93.79,134.05c-5.87,0-10.66,8.05-11.66,10.28
		c-1.44,2.73-3.1,6.17-4.7,9.5c-1.97,4.1-4.01,8.33-5.72,11.4c-0.82,1.26-1.57,2.33-2.28,3.29c-1.26,1.69-3.13,3.29-5.11,4.98
		c-1.51,1.29-3.08,2.62-4.46,4.09c-2.21,2.34-3.51,4.55-4.1,6.95c-1.05,4.3,0.28,7.18,1.58,8.83c2.08,2.65,5.62,4.17,9.71,4.17
		c3.74,0,7.33-1.3,9.85-3.57c4.05-3.65,6.55-8.35,8.97-12.9c0.4-0.74,0.79-1.49,1.19-2.22c1.07-1.96,2.14-4.07,3.28-6.45
		c2.35-4.91,4.3-9.74,5.8-14.33c1.52-4.66,2.61-9.17,3.24-13.41c0.05-0.35,0.11-0.7,0.18-1.07c0.41-2.25,1.04-5.66-1.42-7.83
		C96.87,134.64,95.36,134.05,93.79,134.05L93.79,134.05z"/>
	<path style="fill:#FFFFFF;" d="M96.88,144.28c-0.64,4.29-1.72,8.67-3.15,13c-1.57,4.84-3.53,9.54-5.68,14.02
		c-2.94-2.65-3.96-4.02-9.03-6.37c-1.47,0.2-4.41,0.51-5.14,1.61c3.18-5.68,7.34-15.07,10.53-21.1c1.18-2.79,7.27-11.95,12.06-7.76
		C98.16,139.14,97.15,142.31,96.88,144.28z"/>
	<path style="fill:#0085C9;" d="M88.05,171.3c-1.03,2.16-2.1,4.28-3.21,6.32c-2.76,5.07-5.28,10.53-9.64,14.46
		c-6.12,5.51-19.45,3.21-16.98-6.95c0.54-2.2,1.84-4.09,3.48-5.82c3.08-3.26,7.3-5.99,9.76-9.3c0.81-1.08,1.61-2.23,2.42-3.48
		c0.73-1.1,3.67-1.4,5.14-1.61C84.1,167.28,85.11,168.65,88.05,171.3z"/>
</g>
<path style="fill:#00A2F6;" d="M121.3,53.26l0.23-0.03C121.4,53.25,121.3,53.26,121.3,53.26z"/>
<g>
	<path d="M130.25,52.53c11.18,0,22.78,4.24,32.18,10.19c8.35,5.28,14.22,15.09,17.4,24.29c3.85,11.13,4.49,22.72,1.9,34.07
		c-0.63,2.75-2.04,5.2-2.38,7.96c-1.03,8.19,2.18,17.77,3.42,25.86c0.95,6.18,1.15,12.57,0.69,18.8
		c-0.73,9.92-4.87,22.81-11.99,29.93c-9.07,9.07-22.79,12.4-35.41,12.4c-1.07,0-2.14-0.02-3.2-0.07c-1.96-0.09-3.98-0.27-5.93-0.51
		l-3.95-0.5c-0.08-0.01-0.15-0.02-0.23-0.02c-1.94-0.25-3.88-0.57-5.79-0.97c-8.58-1.81-17.18-4.89-24.15-10.36
		c-14.1-11.05-16.46-30.47-9.8-46.53c2.45-5.92,9.13-13.21,7.37-19.6c-4.63-2.26-8.6-5.46-11.27-9.93
		c-3.63-6.09-5.39-12.86-3.52-20.37c-0.18-2.99-0.1-5.92,0.21-8.67c1.1-9.68,4.68-20.53,11.68-27.51
		c8.99-8.96,21.24-16.38,33.81-17.74l4.03-0.45c0.14-0.01,0.23-0.02,0.23-0.02C127.11,52.62,128.67,52.53,130.25,52.53 M130.25,50
		c-1.68,0-3.35,0.09-4.96,0.27l-0.19,0.02l-4.07,0.45c-11.97,1.29-24.84,8.02-35.32,18.46c-6.54,6.51-11.06,17.09-12.41,29.02
		c-0.32,2.81-0.4,5.74-0.24,8.72c-1.72,7.32-0.41,14.69,3.89,21.9c2.54,4.25,6.29,7.72,11.18,10.32c0.27,3.25-2.03,7.16-4.26,10.95
		c-1.22,2.08-2.38,4.04-3.18,5.99c-7.71,18.6-3.46,38.49,10.58,49.5c6.5,5.1,14.74,8.64,25.19,10.84c1.96,0.41,3.98,0.75,5.99,1.01
		l0.18,0.02l3.99,0.51c2.05,0.26,4.17,0.44,6.13,0.53c1.1,0.05,2.21,0.07,3.31,0.07c8.99,0,25.77-1.71,37.2-13.15
		c7.76-7.76,11.98-21.43,12.72-31.53c0.49-6.61,0.25-13.12-0.71-19.37c-0.38-2.46-0.91-4.96-1.48-7.62
		c-1.28-5.99-2.6-12.19-1.93-17.54c0.16-1.28,0.64-2.58,1.15-3.96c0.44-1.18,0.89-2.41,1.19-3.75c2.71-11.89,2.05-23.83-1.97-35.46
		c-3.92-11.34-10.64-20.68-18.44-25.61C152.99,53.76,141.08,50,130.25,50L130.25,50z"/>
	<path style="fill:#00A2F6;" d="M182.76,154.91c-1.24-8.09-4.45-17.66-3.42-25.86c0.35-2.76,1.76-5.21,2.38-7.96
		c2.59-11.35,1.95-22.94-1.9-34.07c-3.18-9.2-9.05-19.02-17.4-24.29c-10.73-6.78-24.31-11.35-36.86-9.93c0,0-0.09,0.01-0.23,0.02
		l-4.03,0.45C108.74,54.62,96.48,62.04,87.49,71c-7,6.97-10.58,17.83-11.68,27.51c-1.16,10.25,0.85,23.18,7.81,31.25
		c2.15,2.49,5.66,4.12,6.71,7.44c2.04,6.45-4.82,13.87-7.31,19.88c-6.66,16.06-4.3,35.48,9.8,46.53
		c6.97,5.46,15.56,8.55,24.15,10.36c1.92,0.4,3.85,0.73,5.79,0.97c0.08,0.01,0.15,0.02,0.23,0.02l3.95,0.5
		c1.94,0.25,3.97,0.43,5.93,0.51c13.44,0.6,28.76-2.49,38.6-12.33c7.12-7.12,11.26-20,11.99-29.93
		C183.91,167.47,183.71,161.09,182.76,154.91z"/>
	<path d="M130.25,52.53c11.18,0,22.78,4.24,32.18,10.19c8.35,5.28,14.22,15.09,17.4,24.29c3.85,11.13,4.49,22.72,1.9,34.07
		c-0.63,2.75-2.04,5.2-2.38,7.96c-1.03,8.19,2.18,17.77,3.42,25.86c0.95,6.18,1.15,12.57,0.69,18.8
		c-0.73,9.92-4.87,22.81-11.99,29.93c-9.07,9.07-22.79,12.4-35.41,12.4c-1.07,0-2.14-0.02-3.2-0.07c-1.96-0.09-3.98-0.27-5.93-0.51
		l-3.95-0.5c-0.08-0.01-0.15-0.02-0.23-0.02c-1.94-0.25-3.88-0.57-5.79-0.97c-8.58-1.81-17.18-4.89-24.15-10.36
		c-14.1-11.05-16.46-30.47-9.8-46.53c2.49-6,9.35-13.42,7.31-19.88c-1.05-3.32-4.56-4.95-6.71-7.44
		c-6.96-8.07-8.97-20.99-7.81-31.25c1.1-9.68,4.68-20.53,11.68-27.51c8.99-8.96,21.24-16.38,33.81-17.74l4.03-0.45
		c0.14-0.01,0.23-0.02,0.23-0.02C127.11,52.62,128.67,52.53,130.25,52.53 M130.25,50c-1.68,0-3.35,0.09-4.96,0.27l-0.19,0.02
		l-4.07,0.45c-11.97,1.29-24.84,8.02-35.32,18.46c-6.54,6.51-11.06,17.09-12.41,29.02c-1.13,10.02,0.48,24,8.41,33.19
		c0.88,1.02,1.89,1.87,2.87,2.68c1.55,1.29,2.88,2.41,3.34,3.87c1.09,3.45-1.52,7.87-4.04,12.14c-1.23,2.08-2.39,4.04-3.2,6
		c-7.71,18.6-3.46,38.49,10.58,49.5c6.5,5.1,14.74,8.64,25.19,10.84c1.96,0.41,3.98,0.75,5.99,1.01l0.18,0.02l3.99,0.51
		c2.05,0.26,4.17,0.44,6.13,0.53c1.1,0.05,2.21,0.07,3.31,0.07c8.99,0,25.77-1.71,37.2-13.15c7.76-7.76,11.98-21.43,12.72-31.53
		c0.49-6.61,0.25-13.12-0.71-19.37c-0.38-2.46-0.91-4.97-1.48-7.62c-1.28-5.99-2.6-12.19-1.93-17.54c0.16-1.28,0.64-2.58,1.15-3.96
		c0.44-1.18,0.89-2.41,1.19-3.75c2.71-11.89,2.05-23.83-1.97-35.46c-3.92-11.34-10.64-20.68-18.44-25.61
		C152.99,53.76,141.08,50,130.25,50L130.25,50z"/>
	<path style="fill-rule:evenodd;clip-rule:evenodd;fill:#FFFFFF;" d="M173.12,100.03c-2.77-17.96-9.62-35.29-28.39-40.93
		c-13.93-4.18-29.98-2.41-42.66,4.71c-6.72,3.78-14.42,9.5-17.47,16.68c-1.77,4.17-3.03,9.8-2.83,14.38
		c0.07,1.49-2.26,3.21-2.93,4.38c-6.1,10.73-4.59,20.12,0.28,28.28c8.26,13.84,28.87,15.63,43.5,14.44
		c15.19-1.23,30.24-3.05,42-13.65c3.35-3.02,6.07-6.75,7.49-11.06C173.99,111.58,174.01,105.78,173.12,100.03z"/>
	<path style="fill-rule:evenodd;clip-rule:evenodd;fill:#FCBFBB;" d="M134.5,108.62c0.81,7.38,7.41,12.7,14.73,11.89
		c7.32-0.81,12.59-7.44,11.78-14.82c-0.81-7.37-7.41-12.69-14.73-11.89C138.96,94.62,133.69,101.25,134.5,108.62"/>
	<path style="fill-rule:evenodd;clip-rule:evenodd;fill:#FCBFBB;" d="M77,115.46c1.13,7.33,5.86,12.81,11.77,11.78
		c7.25-1.27,11.2-8.88,10.55-14.59c-0.83-7.37-5.09-13.74-12.36-12.62C79.68,101.16,75.83,109.51,77,115.46z"/>
</g>
<g>
	<path style="fill-rule:evenodd;clip-rule:evenodd;" d="M111.92,104.85c0.11,0.96,1.21,1.63,2.48,1.49s2.2-1.03,2.1-1.99
		c-0.11-0.95-1.21-1.63-2.48-1.49C112.74,103,111.81,103.89,111.92,104.85"/>
	<g>
		<path style="fill-rule:evenodd;clip-rule:evenodd;fill:#E7EAFD;" d="M127.3,114.36c-0.03,0.03-0.15,0.1-0.25,0.15
			c-0.32,0.15-0.81,0.39-1.12,0.93c-0.36,0.61-0.3,1.22-0.27,1.62c0.02,0.14,0.03,0.3,0.02,0.36c-0.1,0.39-0.3,0.68-0.56,0.79
			c-0.2,0.08-0.46,0.07-0.73-0.07c-0.49-0.24-0.86-0.49-1.22-0.71c-0.88-0.57-1.79-1.17-3.43-1.17h-0.05
			c-2.32,0.02-4.28,0.1-6.36,1.01c-0.29,0.12-0.57,0.25-0.86,0.39c-1.15,0.54-2.22,1.05-3.28,0.95c-0.49-0.05-1.61-0.3-1.49-1.45
			c0.1-1.23,0.29-1.4,1.59-1.5c2.11-0.17,4.33-1.32,5.88-2.99c1.79,0.83,4.84,1.45,5.17,1.45c0,0,0,0,0.02,0
			c0.73-0.02,1.49-0.15,2.3-0.29c1.52-0.25,3.23-0.54,4.29-0.02c0.22,0.12,0.34,0.25,0.36,0.36
			C127.33,114.19,127.35,114.27,127.3,114.36z"/>
		<path style="fill:#231815;" d="M129.53,113.54c-0.2-0.76-0.76-1.39-1.56-1.79c-1.71-0.85-3.82-0.49-5.68-0.19
			c-0.74,0.12-1.44,0.24-1.94,0.27c-0.59-0.07-3.6-0.93-4.48-1.37c-0.07-0.1-0.17-0.19-0.27-0.27c-0.2-0.15-0.44-0.22-0.66-0.22
			c-0.36,0-0.73,0.19-0.95,0.49c-1.12,1.57-3.13,2.77-4.89,2.91c-2.42,0.19-3.48,1.22-3.7,3.57c-0.19,2.1,1.27,3.72,3.55,3.96
			c0.17,0.02,0.36,0.03,0.52,0.03c1.47,0,2.79-0.63,3.97-1.18c0.27-0.14,0.54-0.25,0.79-0.37c1.69-0.74,3.33-0.81,5.46-0.81
			c0.9-0.02,1.42,0.27,2.22,0.78c0.42,0.29,0.88,0.57,1.45,0.86c0.91,0.44,1.88,0.47,2.72,0.08c0.88-0.42,1.54-1.27,1.81-2.32
			c0.1-0.42,0.07-0.79,0.05-1.1c-0.02-0.1-0.05-0.22-0.08-0.22c0.07-0.03,0.14-0.07,0.2-0.1c0.32-0.15,0.79-0.39,1.12-0.91
			C129.61,115,129.73,114.24,129.53,113.54z M125.66,117.06c0.02,0.14,0.03,0.3,0.02,0.36c-0.1,0.39-0.3,0.68-0.56,0.79
			c-0.2,0.08-0.46,0.07-0.73-0.07c-0.49-0.24-0.86-0.49-1.22-0.71c-0.88-0.57-1.79-1.17-3.43-1.17h-0.05
			c-2.32,0.02-4.28,0.1-6.36,1.01c-0.29,0.12-0.57,0.25-0.86,0.39c-1.15,0.54-2.22,1.05-3.28,0.95c-0.49-0.05-1.61-0.3-1.49-1.45
			c0.1-1.23,0.29-1.4,1.59-1.5c2.11-0.17,4.33-1.32,5.88-2.99c1.79,0.83,4.84,1.45,5.17,1.45c0,0,0,0,0.02,0
			c0.73-0.02,1.49-0.15,2.3-0.29c1.52-0.25,3.23-0.54,4.29-0.02c0.22,0.12,0.34,0.25,0.36,0.36c0.02,0.02,0.03,0.1-0.02,0.19
			c-0.03,0.03-0.15,0.1-0.25,0.15c-0.32,0.15-0.81,0.39-1.12,0.93C125.57,116.05,125.62,116.66,125.66,117.06z"/>
	</g>
	<g>
		<path style="fill:#B7C0CA;" d="M129.26,104.77c-0.96,0.15-2.1-0.17-2.72-0.93c-0.56-0.69-0.44-1.5-0.73-2.27
			c-0.2-0.52-1-1.52-1.12-2.33c0.76,0.03,3.25,0.2,5.78,1c0.1,0.03,0.2,0.05,0.29,0.05c0.08,0,0.15-0.02,0.24-0.03
			C131.25,102.2,131.37,104.43,129.26,104.77z"/>
		<path d="M131.68,99.61c-0.1,0.32-0.37,0.56-0.68,0.64c-0.08,0.02-0.15,0.03-0.24,0.03c-0.08,0-0.19-0.02-0.29-0.05
			c-2.54-0.79-5.02-0.96-5.78-1c-0.15-0.02-0.24-0.02-0.24-0.02c-0.52,0-0.95-0.44-0.95-0.96c0.02-0.54,0.46-0.95,0.98-0.95
			c0.14,0,3.25,0.07,6.56,1.1C131.56,98.56,131.85,99.1,131.68,99.61z"/>
	</g>
	<g>
		<path style="fill:#B7C0CA;" d="M106.85,104.45c-0.02,1.74-0.54,4.31-2.86,3.74c-1.59-0.39-1.74-1.69-2.1-3.08
			c-0.14-0.52-0.49-1.03-0.59-1.59c0.08-0.03,0.17-0.07,0.24-0.1c0.02,0,2.08-1.13,4.65-1.5c0.19-0.02,0.34-0.1,0.46-0.22
			C106.92,102.47,106.85,103.79,106.85,104.45z"/>
		<path d="M107.01,100.83c0.05,0.34-0.1,0.68-0.36,0.86c-0.12,0.12-0.27,0.2-0.46,0.22c-2.57,0.37-4.63,1.5-4.65,1.5
			c-0.07,0.03-0.15,0.07-0.24,0.1c0,0,0,0-0.02,0c-0.07,0.02-0.14,0.03-0.22,0.03c-0.34,0-0.66-0.19-0.83-0.51
			c-0.27-0.46-0.1-1.03,0.37-1.29c0.08-0.07,2.38-1.32,5.31-1.74C106.43,99.93,106.92,100.31,107.01,100.83z"/>
	</g>
</g>
<g>
	<path d="M178.11,133.73c4.52,0,8.83,8.6,9.72,11.39c2.88,7.13,4.7,14.04,7.58,20.8c0.57,1.35,1.16,2.7,1.83,4.03
		c0.75,1.5,1.49,2.9,2.25,4.23c1.93,3.39,4.39,6.4,6.87,9.39c0.79,0.95,1.74,1.68,2.69,2.39c1.21,0.91,2.42,1.79,3.28,3.07
		c4.09,6.1-0.84,10.7-6.72,11.98c-1.21,0.26-2.33,0.39-3.37,0.39c-10.65,0-13.38-12.82-17.05-21.48c-1.01-2.42-1.96-4.92-2.88-7.45
		c1.08-0.78,2.31-1.59,3.67-2.39c0.01,0,0.01-0.01,0.02-0.01c-0.01,0-0.01,0.01-0.02,0.01c-1.35,0.8-2.59,1.61-3.67,2.39
		c-1.9-5.25-3.59-10.72-4.89-16.26c-1.16-4.94-1.99-9.9-2.35-14.67c-0.15-2.2-0.96-5.8,0.87-7.09
		C176.66,133.95,177.39,133.73,178.11,133.73 M178.11,131.19c-1.28,0-2.5,0.4-3.63,1.18c-2.74,1.93-2.34,5.68-2.07,8.17
		c0.05,0.42,0.09,0.82,0.11,1.18c0.36,4.71,1.17,9.78,2.41,15.08c1.23,5.24,2.9,10.8,4.98,16.54c0,0,0,0,0,0
		c1,2.77,1.95,5.24,2.92,7.56c0.59,1.39,1.15,2.88,1.75,4.46c3.12,8.28,7,18.58,17.65,18.58c1.24,0,2.56-0.15,3.91-0.44
		c4.67-1.02,8.26-3.64,9.62-7.01c0.79-1.96,1.2-5.09-1.33-8.87c-1.07-1.59-2.48-2.65-3.73-3.59l-0.13-0.1
		c-0.92-0.69-1.68-1.28-2.26-1.98c-2.68-3.23-4.87-5.95-6.62-9.03c-0.69-1.2-1.4-2.55-2.18-4.11c-0.61-1.21-1.15-2.43-1.77-3.89
		c-1.49-3.51-2.69-7.02-3.95-10.74c-1.09-3.22-2.22-6.56-3.58-9.94C189.3,141.49,184.56,131.19,178.11,131.19L178.11,131.19z"/>
	<path style="fill:#FFFFFF;" d="M195.42,165.93c-2.88-6.76-4.71-13.67-7.58-20.8c-1.04-3.24-6.67-14.3-11.9-10.67
		c-1.84,1.29-1.02,4.9-0.87,7.09c0.36,4.77,1.19,9.72,2.35,14.67c1.3,5.54,3,11.01,4.89,16.26
		C185.52,170.14,190.03,167.52,195.42,165.93z"/>
	<path style="fill:#0085C9;" d="M209.06,185.97c-0.95-0.71-1.9-1.44-2.69-2.39c-2.48-2.99-4.95-6.01-6.87-9.39
		c-0.76-1.33-1.5-2.73-2.25-4.23c-0.67-1.34-1.26-2.68-1.83-4.03c-5.39,1.59-9.89,4.22-13.11,6.55c0.92,2.54,1.87,5.03,2.88,7.45
		c4.04,9.51,6.93,24.04,20.42,21.09c5.88-1.28,10.81-5.88,6.72-11.98C211.48,187.76,210.27,186.88,209.06,185.97z"/>
</g>
<g>
	<g>
		<path d="M126.74,32.21c0.02,0.03,0.03,0.07,0.05,0.1c0.05,0.07,0.1,0.15,0.17,0.22C126.87,32.43,126.81,32.33,126.74,32.21z
			 M127.31,29.93c-0.03,0.02-0.07,0.03-0.08,0.07c0.12-0.08,0.25-0.17,0.39-0.24C127.52,29.81,127.42,29.88,127.31,29.93z
			 M127.31,29.93c-0.03,0.02-0.07,0.03-0.08,0.07c0.12-0.08,0.25-0.17,0.39-0.24C127.52,29.81,127.42,29.88,127.31,29.93z
			 M126.79,32.31c0.05,0.07,0.1,0.15,0.17,0.22c-0.08-0.1-0.15-0.2-0.22-0.32C126.76,32.25,126.77,32.28,126.79,32.31z
			 M133.06,28.81c0.17-0.71,0.03-1.45-0.37-2.05c-0.42-0.59-1.08-0.98-1.81-1.07c-1.05-0.12-2.03,0-2.89,0.12
			c-0.44,0.05-0.85,0.1-1.22,0.12c-1.39-2.11-3.01-3.87-5.16-3.72c-1.03,0.07-1.91,0.76-2.23,1.74c-0.34,1.07-0.32,2.11-0.32,3.03
			v1.42c-0.14,0.08-0.57,0.22-0.88,0.32c-1.07,0.36-2.54,0.85-3.43,2.3c-0.46,0.71-0.52,1.61-0.17,2.38
			c0.34,0.78,1.05,1.32,1.89,1.47l0.46,0.07c1.34,0.22,2.05,0.39,2.42,0.52c-0.02,0.54-0.08,1.39-0.12,1.72
			c-0.08,0.74-0.14,1.37-0.12,1.93c0.05,0.79,0.46,1.54,1.12,1.98c0.42,0.29,0.91,0.44,1.42,0.44c0.29,0,0.56-0.03,0.83-0.14
			c2.13-0.73,2.99-2.59,3.62-3.92c0.07-0.14,0.14-0.29,0.2-0.44c0.3,0.2,0.69,0.46,1.17,0.78c0.73,0.51,1.42,0.98,2.08,1.29
			c0.85,0.37,1.81,0.27,2.55-0.29c0.74-0.54,1.12-1.45,1-2.37c-0.27-1.98-1.39-3.42-2.37-4.6
			C131.69,31.22,132.72,30.29,133.06,28.81z M131.42,36.68c0.03,0.3-0.08,0.61-0.34,0.79c-0.24,0.19-0.56,0.22-0.85,0.08
			c-0.52-0.22-1.15-0.66-1.83-1.13c-0.71-0.49-2.2-1.54-2.64-1.42c-0.47,0.2-0.83,0.96-1.2,1.76c-0.56,1.2-1.18,2.55-2.65,3.06
			c-0.08,0.02-0.17,0.03-0.27,0.03c-0.17,0-0.32-0.05-0.47-0.14c-0.22-0.15-0.36-0.41-0.37-0.66c-0.02-0.46,0.03-1.03,0.1-1.71
			c0.08-0.86,0.24-2.45,0-2.87c-0.39-0.66-2.72-1.03-3.7-1.2l-0.46-0.07c-0.27-0.05-0.51-0.24-0.63-0.49
			c-0.12-0.25-0.1-0.56,0.05-0.79c0.59-0.93,1.64-1.29,2.55-1.59c0.59-0.19,1.15-0.39,1.45-0.68c0.57-0.56,0.57-1.59,0.57-2.67
			c0-0.85-0.02-1.71,0.24-2.5c0.12-0.32,0.41-0.56,0.74-0.57c1.22-0.1,2.45,1.05,4.09,3.69c0.78,0.1,1.57,0,2.38-0.1
			c0.81-0.1,1.64-0.2,2.49-0.12c0.24,0.03,0.46,0.15,0.59,0.36c0.15,0.2,0.2,0.46,0.14,0.68c-0.32,1.34-1.52,2.01-2.59,2.6
			c-0.22,0.12-0.44,0.24-0.64,0.37c0.3,0.46,0.69,0.9,1.08,1.37C130.22,33.89,131.2,35.05,131.42,36.68z M127.23,30
			c0.12-0.08,0.25-0.17,0.39-0.24c-0.1,0.05-0.2,0.12-0.3,0.17C127.28,29.95,127.25,29.96,127.23,30z M126.79,32.31
			c0.05,0.07,0.1,0.15,0.17,0.22c-0.08-0.1-0.15-0.2-0.22-0.32C126.76,32.25,126.77,32.28,126.79,32.31z"/>
		<path style="fill:#FFE89A;" d="M127.97,33.84c0.17,0.19,0.32,0.39,0.47,0.57c-0.24-0.15-0.46-0.3-0.69-0.42
			c-0.34-0.2-0.68-0.37-1.01-0.51c-0.1-0.03-0.22-0.07-0.32-0.1c-0.22-0.05-0.42-0.08-0.63-0.08c-0.12,0-0.27,0.02-0.41,0.05
			c-0.1,0.02-0.19,0.05-0.29,0.1c-1.07,0.47-1.57,1.56-2.06,2.6c-0.14,0.29-0.25,0.56-0.39,0.79c0.07-0.83,0.1-1.52,0.03-2.11
			c-0.02-0.12-0.03-0.22-0.05-0.34c-0.05-0.29-0.14-0.54-0.27-0.76s-0.3-0.42-0.51-0.59c-0.1-0.1-0.22-0.17-0.34-0.25
			c-0.12-0.07-0.24-0.15-0.37-0.22c-0.52-0.27-1.17-0.46-1.88-0.63c0.76-0.25,1.52-0.51,2.1-1.07c1.1-1.07,1.08-2.57,1.08-3.91
			c0-0.36,0-0.69,0.02-1.01c0.05,0.05,0.12,0.1,0.17,0.17c0.41,0.41,0.98,1.1,1.76,2.37c0.05,0.1,0.12,0.2,0.19,0.32
			c0.12,0.2,0.32,0.34,0.56,0.39c0.12,0.02,0.24,0.05,0.34,0.05c0.1,0.03,0.2,0.03,0.3,0.05c0.95,0.08,1.84-0.02,2.65-0.14
			c0.08-0.02,0.15-0.02,0.25-0.03c-0.22,0.14-0.44,0.27-0.68,0.41c-0.14,0.07-0.27,0.15-0.39,0.22c-0.14,0.07-0.27,0.15-0.39,0.24
			c-0.02,0-0.03,0-0.03,0.02c-0.25,0.15-0.47,0.32-0.68,0.49c-0.29,0.25-0.37,0.68-0.19,1.01c0.1,0.2,0.2,0.39,0.34,0.57
			c0,0.03,0.03,0.08,0.07,0.12c0.07,0.12,0.14,0.22,0.22,0.32C127.26,32.99,127.62,33.41,127.97,33.84z"/>
		<path style="fill:#FDCD3A;" d="M131.42,28.41c0.07-0.22,0.02-0.47-0.14-0.68c-0.14-0.2-0.36-0.32-0.59-0.36
			c-0.85-0.08-1.67,0.02-2.49,0.12c-0.81,0.1-1.61,0.2-2.38,0.1c-1.64-2.64-2.87-3.79-4.09-3.69c-0.34,0.02-0.63,0.25-0.74,0.57
			c-0.25,0.79-0.24,1.66-0.24,2.5c0,1.08,0,2.11-0.57,2.67c-0.3,0.29-0.86,0.49-1.45,0.68c-0.91,0.3-1.96,0.66-2.55,1.59
			c-0.15,0.24-0.17,0.54-0.05,0.79c0.12,0.25,0.36,0.44,0.63,0.49l0.46,0.07c0.98,0.17,3.31,0.54,3.7,1.2
			c0.24,0.42,0.08,2.01,0,2.87c-0.07,0.68-0.12,1.25-0.1,1.71c0.02,0.25,0.15,0.51,0.37,0.66c0.15,0.08,0.3,0.14,0.47,0.14
			c0.1,0,0.19-0.02,0.27-0.03c1.47-0.51,2.1-1.86,2.65-3.06c0.37-0.79,0.73-1.56,1.2-1.76c0.44-0.12,1.93,0.93,2.64,1.42
			c0.68,0.47,1.3,0.91,1.83,1.13c0.29,0.14,0.61,0.1,0.85-0.08c0.25-0.19,0.37-0.49,0.34-0.79c-0.22-1.62-1.2-2.79-2.15-3.92
			c-0.39-0.47-0.78-0.91-1.08-1.37c0.2-0.14,0.42-0.25,0.64-0.37C129.9,30.42,131.1,29.74,131.42,28.41z M127.75,33.99
			c-0.34-0.2-0.68-0.37-1.01-0.51c-0.1-0.03-0.22-0.07-0.32-0.1c-0.22-0.05-0.42-0.08-0.63-0.08c-0.12,0-0.27,0.02-0.41,0.05
			c-0.1,0.02-0.19,0.05-0.29,0.1c-1.07,0.47-1.57,1.56-2.06,2.6c-0.14,0.29-0.25,0.56-0.39,0.79c0.07-0.83,0.1-1.52,0.03-2.11
			c-0.02-0.12-0.03-0.22-0.05-0.34c-0.05-0.29-0.14-0.54-0.27-0.76s-0.3-0.42-0.51-0.59c-0.1-0.1-0.22-0.17-0.34-0.25
			c-0.12-0.07-0.24-0.15-0.37-0.22c-0.52-0.27-1.17-0.46-1.88-0.63c0.76-0.25,1.52-0.51,2.1-1.07c1.1-1.07,1.08-2.57,1.08-3.91
			c0-0.36,0-0.69,0.02-1.01c0.05,0.05,0.12,0.1,0.17,0.17c0.41,0.41,0.98,1.1,1.76,2.37c0.05,0.1,0.12,0.2,0.19,0.32
			c0.12,0.2,0.32,0.34,0.56,0.39c0.12,0.02,0.24,0.05,0.34,0.05c0.1,0.03,0.2,0.03,0.3,0.05c0.95,0.08,1.84-0.02,2.65-0.14
			c0.08-0.02,0.15-0.02,0.25-0.03c-0.22,0.14-0.44,0.27-0.68,0.41c-0.14,0.07-0.27,0.15-0.39,0.22c-0.14,0.07-0.27,0.15-0.39,0.24
			c-0.02,0-0.03,0-0.03,0.02c-0.25,0.15-0.47,0.32-0.68,0.49c-0.29,0.25-0.37,0.68-0.19,1.01c0.1,0.2,0.2,0.39,0.34,0.57
			c0,0.03,0.03,0.08,0.07,0.12c0.07,0.12,0.14,0.22,0.22,0.32c0.3,0.46,0.66,0.88,1.01,1.3c0.17,0.19,0.32,0.39,0.47,0.57
			C128.21,34.26,127.99,34.11,127.75,33.99z"/>
	</g>
	<g>
		<path d="M141.35,4.86c-0.49-0.73-1.12-1.25-1.88-1.59c-1.13-0.49-2.42-0.46-3.6,0.12c-1.29,0.63-2.27,1.81-2.62,3.18
			c-0.41,1.59-0.14,3.15,0.76,4.28c0.81,1.05,2.05,1.62,3.48,1.62c0.02,0,0.07,0,0.07,0c1.57-0.03,2.99-1,3.84-2.62
			C142.3,8.12,142.28,6.21,141.35,4.86z M139.89,9.07c-0.54,1.05-1.42,1.69-2.35,1.71h-0.05c-0.9,0-1.67-0.34-2.16-0.96
			c-0.56-0.73-0.73-1.74-0.44-2.82c0.22-0.88,0.88-1.67,1.72-2.08c0.73-0.36,1.5-0.39,2.18-0.08c0.46,0.2,0.85,0.52,1.15,0.98
			C140.52,6.63,140.49,7.92,139.89,9.07z"/>
		<path style="fill:#FFE89A;" d="M138.39,8.29c-0.24,0.47-0.59,0.79-0.86,0.79c-0.02,0-0.03,0-0.03,0c-0.08,0-0.15,0-0.22-0.02
			c-0.07,0-0.14-0.02-0.2-0.05c-0.17-0.05-0.3-0.14-0.41-0.25c-0.24-0.3-0.29-0.79-0.15-1.35c0.12-0.41,0.44-0.79,0.85-0.98
			c0.07-0.03,0.15-0.07,0.24-0.08c0.07-0.02,0.15-0.03,0.22-0.03c0.1,0,0.2,0.02,0.3,0.05c0.15,0.07,0.3,0.2,0.42,0.39
			C138.73,7.02,138.71,7.66,138.39,8.29z"/>
		<path style="fill:#FDCD3A;" d="M139.94,5.8c-0.3-0.46-0.69-0.78-1.15-0.98c-0.68-0.3-1.45-0.27-2.18,0.08
			c-0.85,0.41-1.5,1.2-1.72,2.08c-0.29,1.08-0.12,2.1,0.44,2.82c0.49,0.63,1.27,0.96,2.16,0.96h0.05c0.93-0.02,1.81-0.66,2.35-1.71
			C140.49,7.92,140.52,6.63,139.94,5.8z M137.53,9.08c-0.02,0-0.03,0-0.03,0c-0.08,0-0.15,0-0.22-0.02c-0.07,0-0.14-0.02-0.2-0.05
			c-0.17-0.05-0.3-0.14-0.41-0.25c-0.24-0.3-0.29-0.79-0.15-1.35c0.12-0.41,0.44-0.79,0.85-0.98c0.07-0.03,0.15-0.07,0.24-0.08
			c0.07-0.02,0.15-0.03,0.22-0.03c0.1,0,0.2,0.02,0.3,0.05c0.15,0.07,0.3,0.2,0.42,0.39c0.19,0.27,0.17,0.91-0.15,1.54
			C138.15,8.76,137.8,9.08,137.53,9.08z"/>
	</g>
	<path style="fill:#FDCD3A;" d="M92.16,23.22c-0.08-0.51-0.02-1.01,0.12-1.45C92.11,22.27,92.08,22.76,92.16,23.22z"/>
	<g>
		<path d="M97.83,17.94c-0.88-0.71-1.84-1.15-2.86-1.29c-2.3-0.3-4.53,1.01-5.61,3.36c-1.17,2.5-0.66,5.26,1.29,7.02
			c1.08,1,2.37,1.52,3.69,1.52c0.54,0,1.08-0.1,1.62-0.29c1.98-0.66,3.5-2.54,3.91-4.75C100.24,21.39,99.48,19.3,97.83,17.94z
			 M98.2,23.22c-0.29,1.61-1.42,2.99-2.81,3.47c-0.36,0.12-0.71,0.19-1.07,0.19c-0.9,0-1.78-0.37-2.55-1.08
			c-1.39-1.25-1.74-3.23-0.9-5.06c0.78-1.67,2.28-2.6,3.89-2.4c0.68,0.1,1.35,0.41,1.98,0.91C97.94,20.23,98.47,21.68,98.2,23.22z"
			/>
		<path style="fill:#FFE89A;" d="M96.57,22.42c0,0.19-0.02,0.37-0.05,0.51c-0.07,0.37-0.2,0.73-0.39,1.03
			c-0.14,0.22-0.29,0.42-0.46,0.57c-0.25,0.25-0.52,0.44-0.83,0.54c-0.17,0.07-0.36,0.08-0.52,0.08c-0.14,0-0.25-0.02-0.39-0.05
			c-0.14-0.03-0.27-0.08-0.41-0.15c-0.22-0.1-0.42-0.24-0.63-0.42c-0.22-0.2-0.37-0.41-0.49-0.63c-0.12-0.24-0.2-0.47-0.25-0.69
			c-0.08-0.46-0.05-0.95,0.12-1.45c0.05-0.12,0.08-0.22,0.14-0.32c0.12-0.25,0.29-0.52,0.51-0.76c0.05-0.08,0.14-0.15,0.2-0.2
			c0.05-0.05,0.1-0.08,0.15-0.12c0.07-0.05,0.14-0.1,0.2-0.14c0.15-0.1,0.32-0.17,0.51-0.2c0.1-0.02,0.2-0.03,0.3-0.03h0.02
			c0.07,0,0.15,0.02,0.22,0.02c0.37,0.05,0.76,0.24,1.15,0.56c0.14,0.12,0.25,0.22,0.34,0.34c0.05,0.05,0.07,0.08,0.1,0.12
			c0.08,0.12,0.15,0.24,0.2,0.34c0.03,0.05,0.05,0.1,0.07,0.15c0.05,0.12,0.1,0.25,0.12,0.37C96.56,22.07,96.57,22.25,96.57,22.42z"
			/>
		<path style="fill:#FDCD3A;" d="M96.74,19.24c-0.63-0.51-1.3-0.81-1.98-0.91c-1.61-0.2-3.11,0.73-3.89,2.4
			c-0.85,1.83-0.49,3.8,0.9,5.06c0.78,0.71,1.66,1.08,2.55,1.08c0.36,0,0.71-0.07,1.07-0.19c1.39-0.47,2.52-1.86,2.81-3.47
			C98.47,21.68,97.94,20.23,96.74,19.24z M96.52,22.93c-0.07,0.37-0.2,0.73-0.39,1.03c-0.14,0.22-0.29,0.42-0.46,0.57
			c-0.25,0.25-0.52,0.44-0.83,0.54c-0.17,0.07-0.36,0.08-0.52,0.08c-0.14,0-0.25-0.02-0.39-0.05c-0.14-0.03-0.27-0.08-0.41-0.15
			c-0.22-0.1-0.42-0.24-0.63-0.42c-0.22-0.2-0.37-0.41-0.49-0.63c-0.12-0.24-0.2-0.47-0.25-0.69c-0.08-0.46-0.05-0.95,0.12-1.45
			c0.05-0.12,0.08-0.22,0.14-0.32c0.12-0.25,0.29-0.52,0.51-0.76c0.05-0.08,0.14-0.15,0.2-0.2c0.05-0.05,0.1-0.08,0.15-0.12
			c0.07-0.05,0.14-0.1,0.2-0.14c0.15-0.1,0.32-0.17,0.51-0.2c0.1-0.02,0.2-0.03,0.3-0.03h0.02c0.07,0,0.15,0.02,0.22,0.02
			c0.37,0.05,0.76,0.24,1.15,0.56c0.14,0.12,0.25,0.22,0.34,0.34c0.05,0.05,0.07,0.08,0.1,0.12c0.08,0.12,0.15,0.24,0.2,0.34
			c0.03,0.05,0.05,0.1,0.07,0.15c0.05,0.12,0.1,0.25,0.12,0.37c0.05,0.19,0.07,0.37,0.07,0.54C96.57,22.61,96.56,22.8,96.52,22.93z"
			/>
	</g>
	<g>
		<path style="fill:#0070A8;" d="M101.45,19.68c-0.31,0-0.6-0.17-0.75-0.46c-0.21-0.41-0.05-0.92,0.36-1.14
			c9.95-5.15,18-7.42,29.37-9.8c0.45-0.09,0.91,0.2,1,0.65c0.1,0.46-0.2,0.9-0.65,1c-11.23,2.35-19.17,4.58-28.94,9.64
			C101.71,19.65,101.58,19.68,101.45,19.68z"/>
		<path style="fill:#0070A8;" d="M95.89,37.96c-4.37,0-8.29-0.71-9.84-2.88c-1.38-1.93-0.8-4.59,1.71-7.92
			c0.28-0.37,0.81-0.45,1.18-0.17c0.37,0.28,0.45,0.81,0.17,1.18c-2.02,2.67-2.59,4.67-1.69,5.92c2.92,4.07,19.44,1.52,24.15-0.04
			c0.45-0.15,0.92,0.09,1.07,0.54c0.15,0.44-0.09,0.92-0.54,1.07C110,36.36,102.44,37.96,95.89,37.96z"/>
		<path style="fill:#0070A8;" d="M135.6,27.89c-0.34,0-0.66-0.21-0.79-0.54c-0.17-0.44,0.05-0.92,0.48-1.09
			c1.27-0.49,2.46-0.8,3.6-1.09c2-0.52,3.72-0.96,5.49-2.24c0.38-0.27,0.9-0.19,1.18,0.19c0.27,0.38,0.19,0.91-0.19,1.18
			c-2.03,1.47-3.99,1.98-6.06,2.51c-1.1,0.28-2.24,0.58-3.41,1.03C135.8,27.87,135.7,27.89,135.6,27.89z"/>
		<path style="fill:#0070A8;" d="M152.95,20.66c-0.24,0-0.48-0.1-0.65-0.3c-0.3-0.36-0.25-0.89,0.1-1.19
			c3.19-2.67,4.55-4.95,4.15-6.97c-0.55-2.8-1.3-3.87-3.11-4.42c-3.62-1.09-5.64-0.79-9.3-0.25l-0.24,0.04
			c-0.47,0.07-0.89-0.25-0.96-0.71c-0.07-0.46,0.25-0.89,0.71-0.96l0.24-0.04c3.77-0.56,6.05-0.89,10.03,0.31
			c2.8,0.85,3.72,2.81,4.29,5.71c0.7,3.56-2.37,6.61-4.73,8.59C153.33,20.59,153.14,20.66,152.95,20.66z"/>
		<path style="fill:#0070A8;" d="M104.2,23.53c-0.29,0-0.57-0.15-0.72-0.41c-0.24-0.4-0.11-0.92,0.29-1.16
			c2.81-1.69,5.74-2.82,8.57-3.92c0.43-0.17,0.93,0.05,1.09,0.48c0.17,0.44-0.05,0.92-0.48,1.09c-2.77,1.07-5.63,2.18-8.31,3.79
			C104.49,23.49,104.34,23.53,104.2,23.53z"/>
		<path style="fill:#0070A8;" d="M134.48,23.9c-0.39,0-0.73-0.27-0.82-0.66c-0.1-0.45,0.18-0.91,0.64-1.01
			c4.09-0.94,9.1-3.03,12.46-5.2c2.03-1.31,3.31-2.79,3.41-3.97c0.05-0.55-0.05-0.96-0.31-1.24c-0.35-0.38-1.08-0.6-1.98-0.58
			c0,0,0,0-0.01,0c-0.46,0-0.84-0.37-0.85-0.84c0-0.47,0.37-0.85,0.84-0.85c1.4,0.04,2.55,0.38,3.24,1.13
			c0.41,0.44,0.87,1.24,0.75,2.54c-0.22,2.35-2.71,4.29-4.18,5.24c-3.51,2.27-8.74,4.45-13.01,5.43
			C134.6,23.89,134.54,23.9,134.48,23.9z"/>
	</g>
</g>
<g>
	<path d="M145.34,205.56c-1.18-3.96-4.09-6.75-6.66-9.22c-0.36-0.34-0.73-0.69-1.08-1.05c-3.11-3.06-4.53-4.46-8.01-7.34
		c-3.86-3.21-9.77-7.03-16.01-7.03c-3.91,0-9.4,1.59-13.32,9.13c-1.18,2.27-2.33,4.48-3.5,6.76c-1.64,3.21-3.35,6.53-5.28,10.18
		c-0.17-0.05-0.34-0.08-0.52-0.12c-0.17-0.05-0.27-0.07-0.39-0.08c-0.37-0.08-0.78-0.14-1.25-0.19c-0.42-0.05-0.88-0.08-1.4-0.08
		h-0.46c-0.34,0-0.71,0.02-1.08,0.03c-0.19,0.02-0.37,0.03-0.56,0.05c-0.39,0.03-0.79,0.08-1.2,0.15l-0.14,0.02
		c-0.14,0.02-0.27,0.03-0.41,0.07c-0.68,0.1-1.29,0.24-1.86,0.37c-0.03,0.02-0.05,0.02-0.08,0.03l-0.3,0.08
		c-6.1,1.66-11.33,6.14-13.92,11.97c-1.47,3.33-2.08,9.55,1.22,12.95c4.6,4.75,11.06,5.29,15.52,5.29c0.91,0,1.88-0.02,2.94-0.07
		c0.85-0.05,1.81-0.07,2.84-0.08c5.46-0.1,12.26-0.22,16.13-3.6c3.28-2.86,3.23-6.88,3.18-10.11c-0.02-0.79-0.02-1.54,0.02-2.23
		c0.17-3.55,4.94-11.68,8.59-17.09c2.08,1.37,5.38,4.19,10.64,9.89l0.2,0.22c1.72,1.88,4.11,2.91,6.7,2.91
		c3.28,0,6.46-1.64,8.3-4.26C145.73,210.91,146.13,208.22,145.34,205.56z M142.09,211.67c-0.12,0.15-0.22,0.3-0.37,0.46
		c-0.05,0.08-0.14,0.19-0.22,0.27c-0.59,0.68-1.32,1.23-2.13,1.59c-0.08,0.05-0.17,0.1-0.25,0.12c-0.02,0.02-0.03,0.03-0.05,0.03
		c-0.07,0.03-0.14,0.05-0.2,0.07c-0.24,0.12-0.47,0.2-0.73,0.27c-0.15,0.07-0.32,0.12-0.49,0.15c-2.79,0.86-4.53,0.39-6.61-1.88
		c-0.17-0.17-0.37-0.41-0.63-0.68c-2.43-2.64-8.79-9.37-12.85-11.01c0,0-7.69,10.74-9.82,17.62c0,0.02,0,0.05-0.02,0.07
		c-0.29,0.93-0.46,1.79-0.51,2.54v0.05c-0.19,3.58,0.73,7.9-2.33,10.55c-3.87,3.38-12.55,2.81-17.42,3.06
		c-0.93,0.03-1.88,0.07-2.82,0.07c-2.79,0-5.65-0.25-8.25-1.13c-0.24-0.08-0.47-0.17-0.69-0.27c-0.22-0.08-0.42-0.17-0.64-0.27
		c-0.3-0.12-0.59-0.27-0.88-0.44c-0.3-0.14-0.59-0.3-0.88-0.51c-0.52-0.32-1.03-0.68-1.5-1.12c-0.29-0.24-0.57-0.49-0.85-0.78
		c-2.3-2.38-1.96-7.39-0.73-10.16c2.28-5.14,6.86-9.1,12.29-10.57c0,0,0.25-0.07,0.3-0.08c0.46-0.12,0.91-0.22,1.34-0.29
		c0.12-0.03,0.22-0.05,0.34-0.07c0.15-0.02,0.3-0.05,0.46-0.07c0.02,0,0.02,0,0.03,0c0.34-0.07,0.68-0.1,1-0.14h0.1
		c0.19-0.02,0.36-0.03,0.52-0.03c0.07-0.02,0.14-0.02,0.2-0.02c0.07,0,0.14-0.02,0.2,0c0.15-0.02,0.29-0.02,0.42-0.02
		c0.57-0.02,1.12,0.02,1.61,0.07c0.2,0,0.39,0.03,0.56,0.07c0.19,0.02,0.36,0.05,0.51,0.08c0.1,0.02,0.2,0.05,0.3,0.07
		c0.22,0.05,0.42,0.1,0.63,0.15c0.1,0.02,0.19,0.05,0.29,0.08c0.19,0.05,0.36,0.12,0.52,0.19c0.08,0.03,0.15,0.07,0.24,0.1
		c0.12,0.03,0.22,0.08,0.3,0.14c0.1,0.03,0.2,0.08,0.29,0.14c0.14-0.25,0.27-0.49,0.41-0.74c3.64-6.83,6.37-12.38,9.42-18.18
		c2.94-5.65,6.9-7.76,11.08-7.76c0.98,0,1.98,0.12,2.99,0.34c3.99,0.86,8,3.3,11.4,6.1c3.4,2.81,4.73,4.13,7.86,7.2
		c0.12,0.12,0.24,0.24,0.37,0.36c0.03,0.03,0.07,0.07,0.1,0.1c2.13,2.08,4.48,4.18,5.83,6.83c0.17,0.29,0.3,0.57,0.42,0.88
		c0.15,0.34,0.27,0.68,0.37,1.01C143.53,208.35,143.11,210.21,142.09,211.67z"/>
	<path style="fill:#00A2F6;" d="M117.56,201.06c0,0-7.69,10.74-9.82,17.62c0,0.02,0,0.05-0.02,0.07c-0.29,0.93-0.46,1.79-0.51,2.54
		v0.05c-0.19,3.58,0.73,7.9-2.33,10.55c-3.87,3.38-12.55,2.81-17.42,3.06c-0.93,0.03-1.88,0.07-2.82,0.07
		c-2.79,0-5.65-0.25-8.25-1.13c-0.24-0.08-0.47-0.17-0.69-0.27c-0.22-0.08-0.42-0.17-0.64-0.27c-0.3-0.14-0.59-0.29-0.88-0.44
		c-0.3-0.15-0.59-0.32-0.88-0.51c-0.52-0.34-1.03-0.69-1.5-1.12c-0.29-0.24-0.57-0.49-0.85-0.78c-2.3-2.38-1.96-7.39-0.73-10.16
		c2.28-5.14,6.86-9.1,12.29-10.57c0,0,0.25-0.07,0.3-0.08c0.47-0.12,0.91-0.2,1.34-0.29c0.27-0.05,0.54-0.1,0.79-0.14
		c0.02,0,0.02,0,0.03,0c0.34-0.05,0.68-0.1,1-0.14h0.1c0.19-0.02,0.36-0.03,0.52-0.03c0.07-0.02,0.14-0.02,0.2-0.02
		c0.07,0,0.14-0.02,0.2,0c0.15-0.02,0.29-0.02,0.42-0.02c0.57-0.02,1.12,0.02,1.61,0.07c0.2,0.02,0.37,0.03,0.56,0.07
		c0.19,0.02,0.36,0.05,0.51,0.08c0.1,0.02,0.2,0.05,0.3,0.07c0.22,0.05,0.42,0.1,0.63,0.15c0.1,0.02,0.19,0.05,0.29,0.08
		c0.19,0.05,0.36,0.12,0.52,0.19c0.08,0.03,0.15,0.07,0.24,0.1c0.12,0.03,0.22,0.08,0.3,0.14c0.1,0.03,0.2,0.08,0.29,0.14h0.02
		c0.14-0.25,0.27-0.49,0.39-0.74c3.64-6.83,6.37-12.38,9.42-18.18c2.94-5.65,6.9-7.76,11.08-7.76c0.98,0,1.98,0.12,2.99,0.34
		c0.57,0.52,1.07,1.25,1.45,2.2C119.72,190.24,119.2,196.94,117.56,201.06z"/>
	<path style="fill:#FFFFFF;" d="M142.09,211.67c-0.12,0.15-0.22,0.3-0.37,0.46c-0.05,0.08-0.14,0.19-0.22,0.27
		c-0.59,0.68-1.32,1.23-2.13,1.59c-0.08,0.05-0.17,0.1-0.25,0.12c-0.02,0.02-0.03,0.03-0.05,0.03c-0.07,0.03-0.14,0.05-0.2,0.07
		c-0.24,0.12-0.47,0.2-0.73,0.27c-0.15,0.07-0.32,0.12-0.49,0.15c-2.79,0.86-4.53,0.39-6.61-1.88c-0.17-0.17-0.37-0.41-0.63-0.68
		c-2.43-2.64-8.79-9.37-12.85-11.01c1.64-4.13,2.16-10.82,0.46-15.07c-0.39-0.95-0.88-1.67-1.45-2.2c3.99,0.86,8,3.3,11.4,6.1
		c3.4,2.81,4.73,4.13,7.86,7.2c0.12,0.12,0.24,0.24,0.37,0.36c0.03,0.03,0.07,0.07,0.1,0.1c2.13,2.08,4.48,4.18,5.83,6.83
		c0.17,0.29,0.3,0.57,0.42,0.88c0.15,0.34,0.27,0.68,0.37,1.01C143.53,208.35,143.11,210.21,142.09,211.67z"/>
</g>
</svg>
