<?xml version="1.0" encoding="utf-8"?>
<!-- Generator: Adobe Illustrator 24.1.1, SVG Export Plug-In . SVG Version: 6.00 Build 0)  -->
<svg version="1.1" id="Layer_1" xmlns="http://www.w3.org/2000/svg" xmlns:xlink="http://www.w3.org/1999/xlink" x="0px" y="0px"
	 viewBox="0 0 226.71 330" style="enable-background:new 0 0 226.71 330;" xml:space="preserve">
<g>
	<path style="fill:#FFFFFF;" d="M77.01,107.46c-0.77,0.63-1.5,1.23-2.17,1.9c-0.23,0.2-0.47,0.43-0.7,0.63
		c-0.3,0.27-0.57,0.53-0.8,0.8c0,0,0,0-0.03,0c-1.7,1.8-3.97,2.7-6.23,2.7c-2.17,0-4.3-0.8-5.97-2.43c-1.8-1.73-2.7-4.03-2.7-6.33
		c0-0.4,0.03-0.83,0.1-1.23v-0.17c0.07-0.43,0.17-0.87,0.33-1.27c0.1-0.37,0.23-0.77,0.43-1.13c0-0.03,0.03-0.07,0.03-0.1
		c0.17-0.37,0.37-0.7,0.6-1.03c0.23-0.37,0.53-0.7,0.83-1.03c0.07-0.07,0.17-0.17,0.3-0.3c0.57-0.6,1.2-1.17,1.8-1.77
		c0.03,0,0.07-0.03,0.1-0.07c1.47-1.33,3-2.6,4.63-3.7c1.43,0.2,2.03,0.8,2.03,0.8c0.9,0.83,1.37,2.13,1.03,3.43
		c-0.2,0.83-0.73,1.47-1.37,1.93c0.73-0.37,1.6-0.53,2.47-0.3c1.83,0.5,2.97,2.4,2.47,4.27c-0.23,0.93-0.83,1.67-1.57,2.1
		c0.6-0.2,1.27-0.3,1.97-0.13C75.85,105.35,76.68,106.32,77.01,107.46z"/>
	<path style="fill:#FFFFFF;" d="M83.08,104.22c-0.73,0.2-1.43,0.47-2.17,0.8C81.65,104.69,82.35,104.39,83.08,104.22z"/>
	<path style="fill:#FFFFFF;" d="M85.71,103.92c-0.17,0-0.33-0.03-0.5,0h-0.27c0.17-0.03,0.3-0.03,0.43-0.03
		C85.48,103.89,85.61,103.89,85.71,103.92z"/>
	<path style="fill:#673101;" d="M77.05,107.59c-0.77,0.57-1.53,1.17-2.2,1.77c-0.23,0.2-0.47,0.43-0.7,0.63
		c-0.3,0.27-0.57,0.53-0.8,0.8c0,0,0,0-0.03,0c-1.7,1.8-3.97,2.7-6.23,2.7c-2.17,0-4.3-0.8-5.97-2.43c-1.8-1.73-2.7-4.03-2.7-6.33
		c0-0.4,0.03-0.83,0.1-1.23v-0.17c0.07-0.43,0.17-0.87,0.33-1.27c0.1-0.37,0.23-0.77,0.43-1.13c0-0.03,0.03-0.07,0.03-0.1
		c0.17-0.37,0.37-0.7,0.6-1.03c0.23-0.37,0.53-0.7,0.83-1.03c0.07-0.07,0.17-0.17,0.3-0.3c0.57-0.6,1.2-1.17,1.8-1.77
		c0.03,0,0.07-0.03,0.1-0.07c1.47-1.33,3-2.6,4.63-3.7c1.43,0.2,2.03,0.8,2.03,0.8c0.9,0.83,1.37,2.13,1.03,3.43
		c-0.2,0.83-0.73,1.47-1.37,1.93c0.73-0.37,1.6-0.53,2.47-0.3c1.83,0.5,2.97,2.4,2.47,4.27c-0.23,0.93-0.83,1.67-1.57,2.1
		c0.6-0.2,1.27-0.3,1.97-0.13c1.23,0.33,2.07,1.3,2.4,2.43C77.01,107.49,77.05,107.56,77.05,107.59z"/>
	<path d="M73.34,110.76v0.03c0.23-0.27,0.5-0.53,0.8-0.8C73.84,110.26,73.58,110.52,73.34,110.76z"/>
	<path d="M85.38,103.89c-0.13,0-0.27,0-0.43,0.03h0.27c0.17-0.03,0.33,0,0.5,0C85.61,103.89,85.48,103.89,85.38,103.89z
		 M80.91,105.02c0.73-0.33,1.43-0.6,2.17-0.8C82.35,104.39,81.65,104.69,80.91,105.02z"/>
	<path d="M99.48,90.99c-1.8-1.5-3.33-2.6-4.83-3.43c-2.13-1.17-4.17-2.03-6.2-2.63c-2.17-0.63-4.3-0.93-6.5-0.93
		c-2.47,0-4.93,0.37-7.57,1.17c-4.17,1.27-8.24,3.53-12.14,6.8c-0.7,0.53-1.37,1.13-2.03,1.77c-1.13,1-1.97,1.87-2.37,2.3
		c-1.73,1.87-2.87,4.17-3.27,6.67c-0.63,3.8,0.5,7.67,3.03,10.54c0.2,0.27,0.47,0.5,0.7,0.73c2.37,2.27,5.47,3.53,8.77,3.53
		c3.43,0,6.77-1.43,9.14-3.93c0.87-0.9,1.97-1.87,3.2-2.77c0.27-0.2,0.5-0.4,0.7-0.67c2.03-1.43,3.87-2.23,5.27-2.23
		c0.83,0,1.47,0.3,2.13,0.93c0.33,0.33,0.97,1.2,1.53,1.93c2.2,3,5.27,7.1,9.7,7.1c1.57,0,3.13-0.57,4.47-1.57
		c2.6-2,4.03-4.97,4.1-8.57C107.45,101.52,103.38,94.19,99.48,90.99z M100.78,113.09c-0.33,0.27-0.67,0.47-1.03,0.57
		c-0.17,0.07-0.33,0.13-0.5,0.13c-0.07,0-0.17,0.03-0.23,0.03c-0.1,0.03-0.2,0.03-0.27,0.03c-0.47,0-0.93-0.1-1.4-0.33
		c-0.17-0.07-0.33-0.13-0.47-0.23c-0.4-0.23-0.8-0.53-1.2-0.87c-0.2-0.17-0.37-0.33-0.57-0.53c-0.4-0.4-0.77-0.8-1.13-1.23
		c-0.7-0.87-1.37-1.8-2-2.63c-0.47-0.6-0.9-1.17-1.3-1.63c-0.13-0.13-0.23-0.27-0.37-0.4c-0.77-0.73-1.57-1.27-2.37-1.6
		c-0.2-0.07-0.4-0.17-0.63-0.2c-0.13-0.07-0.27-0.1-0.43-0.1c-0.27-0.1-0.53-0.13-0.83-0.13c-0.1-0.03-0.23-0.03-0.33-0.03
		c-0.17,0-0.33-0.03-0.5,0h-0.27c-0.13,0-0.27,0-0.4,0.03c-0.47,0.03-0.97,0.13-1.47,0.27c-0.73,0.2-1.43,0.47-2.17,0.8
		c-0.7,0.33-1.43,0.73-2.1,1.17c-0.53,0.33-1.03,0.7-1.53,1.07c-0.1,0.07-0.17,0.13-0.27,0.2c0,0.03,0.03,0.1,0.03,0.13
		c-0.77,0.57-1.53,1.17-2.2,1.77c-0.23,0.2-0.47,0.43-0.7,0.63c-0.3,0.27-0.57,0.53-0.8,0.8c0,0,0,0-0.03,0
		c-1.7,1.8-3.97,2.7-6.23,2.7c-2.17,0-4.3-0.8-5.97-2.43c-1.8-1.73-2.7-4.03-2.7-6.33c0-0.4,0.03-0.83,0.1-1.23v-0.17
		c0.07-0.43,0.17-0.87,0.33-1.27c0.1-0.37,0.23-0.77,0.43-1.13c0-0.03,0.03-0.07,0.03-0.1c0.17-0.37,0.37-0.7,0.6-1.03
		c0.23-0.37,0.53-0.7,0.83-1.03c0.07-0.07,0.17-0.17,0.3-0.3c0.57-0.6,1.2-1.17,1.8-1.77c0.03,0,0.07-0.03,0.1-0.07
		c1.47-1.33,3-2.6,4.63-3.7c1.83-1.27,3.77-2.37,5.83-3.2c0.7-0.27,1.4-0.53,2.1-0.73c0.47-0.13,0.93-0.27,1.4-0.37
		c0.3-0.1,0.6-0.17,0.9-0.2c0.27-0.1,0.53-0.13,0.8-0.17c0.1-0.03,0.23-0.07,0.33-0.07c1.53-0.23,3.07-0.3,4.53-0.13
		c0.43,0.03,0.87,0.1,1.3,0.13c0.43,0.07,0.87,0.13,1.3,0.23c0.43,0.1,0.83,0.2,1.27,0.33c1.77,0.53,3.53,1.3,5.37,2.3
		c1.5,0.83,2.9,1.9,4.23,3C101.18,97.59,106.62,108.66,100.78,113.09z"/>
	<path style="fill:#FFFFFF;" d="M96.95,94.05c-1.33-1.1-2.73-2.17-4.23-3c-1.83-1-3.6-1.77-5.37-2.3c-0.43-0.13-0.83-0.23-1.27-0.33
		c-0.43-0.1-0.87-0.17-1.3-0.23c-0.43-0.03-0.87-0.1-1.3-0.13c-1.47-0.17-3-0.1-4.53,0.13c-0.1,0-0.23,0.03-0.33,0.07
		c-0.27,0.03-0.53,0.07-0.8,0.17c-0.3,0.03-0.6,0.1-0.9,0.2c-0.47,0.1-0.93,0.23-1.4,0.37c-0.7,0.2-1.4,0.47-2.1,0.73
		c-2.07,0.83-4,1.93-5.83,3.2c1.43,0.2,2.03,0.8,2.03,0.8c0.9,0.83,1.37,2.13,1.03,3.43c-0.2,0.83-0.73,1.47-1.37,1.93
		c0.73-0.37,1.6-0.53,2.47-0.3c1.83,0.5,2.97,2.4,2.47,4.27c-0.23,0.93-0.83,1.67-1.57,2.1c0.6-0.2,1.27-0.3,1.97-0.13
		c1.23,0.33,2.07,1.3,2.4,2.43c0.1-0.07,0.17-0.13,0.27-0.2c0.5-0.37,1-0.73,1.53-1.07c0.67-0.43,1.4-0.83,2.1-1.17
		c0.73-0.33,1.43-0.63,2.17-0.8c0.5-0.13,1-0.23,1.47-0.27c0.13-0.03,0.27-0.03,0.4-0.03c0.17-0.03,0.3-0.03,0.43-0.03
		c0.1,0,0.23,0,0.33,0.03c0.1,0,0.23,0,0.33,0.03c0.3,0,0.57,0.03,0.83,0.13c0.1,0,0.2,0.03,0.3,0.03c0.03,0.03,0.1,0.03,0.13,0.07
		c0.23,0.03,0.43,0.13,0.63,0.2c0.8,0.33,1.6,0.87,2.37,1.6c0.13,0.13,0.23,0.27,0.37,0.4c0.4,0.47,0.83,1.03,1.3,1.63
		c0.63,0.83,1.3,1.77,2,2.63c0.37,0.43,0.73,0.83,1.13,1.23c0.2,0.2,0.37,0.37,0.57,0.53c0.4,0.33,0.8,0.63,1.2,0.87
		c0.13,0.1,0.3,0.17,0.47,0.23c0.53,0.23,1.1,0.33,1.67,0.3c0.07,0,0.17-0.03,0.23-0.03c0.17,0,0.33-0.07,0.5-0.13
		c0.37-0.1,0.7-0.3,1.03-0.57C106.62,108.66,101.18,97.59,96.95,94.05z"/>
</g>
<g>
	<path style="fill:#FFFFFF;" d="M138.68,88.76c-1.78,0.52-3.55,1.29-5.38,2.3c-1.5,0.83-2.91,1.89-4.23,2.99
		c-4.24,3.52-9.69,14.61-3.86,19.05c4.22,3.21,8.12-4.8,10.48-7.12c5.3-5.2,12.88,0.52,16.99,4.81c3.3,3.47,8.78,3.61,12.23,0.28
		c3.46-3.32,3.62-8.81,0.35-12.3c-4.06-4.34-9.04-8.03-14.78-9.77C146.22,87.7,142.45,87.67,138.68,88.76z"/>
	<path d="M171.46,102.69c-0.43-2.5-1.53-4.8-3.27-6.67c-0.43-0.43-1.27-1.3-2.47-2.37c-0.4-0.37-0.8-0.73-1.2-1.07
		c-4.1-3.57-8.4-6.07-12.87-7.43c-2.63-0.8-5.13-1.17-7.6-1.17c-2.2,0-4.33,0.3-6.5,0.93c-2.03,0.6-4.03,1.47-6.2,2.63
		c-1.5,0.83-3.03,1.93-4.83,3.43c-3.87,3.2-7.97,10.54-7.83,16.74c0.07,3.6,1.5,6.57,4.1,8.57c1.37,1,2.9,1.57,4.47,1.57
		c4.47,0,7.5-4.1,9.74-7.1c0.53-0.73,1.17-1.6,1.5-1.93c0.67-0.63,1.33-0.93,2.13-0.93c1.4,0,3.23,0.8,5.27,2.23
		c0.81,0.6,3.33,2.8,3.9,3.4c2.37,2.53,5.7,3.97,9.17,3.97c3.27,0,6.37-1.27,8.73-3.53C170.73,111.06,172.13,106.82,171.46,102.69z
		 M164.93,111.06c-1.7,1.63-3.83,2.43-5.97,2.43c-2.3,0-4.57-0.9-6.27-2.7l-0.03-0.03c-0.97-1-3.63-3.23-3.63-3.3
		c-2.57-1.97-5.57-3.57-8.4-3.57c-1.73,0-3.43,0.6-4.93,2.1c-1.97,1.93-5.03,7.87-8.44,7.87c-0.67,0-1.33-0.23-2.03-0.77
		c-5.83-4.43-0.37-15.5,3.87-19.04c1.3-1.1,2.7-2.17,4.2-3c1.83-1,3.6-1.77,5.4-2.3c1.77-0.5,3.53-0.77,5.37-0.77
		c2.07,0,4.17,0.33,6.43,1c2.77,0.87,5.37,2.17,7.77,3.83c1.7,1.1,3.3,2.4,4.8,3.8c1.13,1.07,1.93,1.83,2.2,2.13
		c1.23,1.33,1.97,2.9,2.23,4.57C167.96,106.09,167.1,108.99,164.93,111.06z"/>
	<path style="fill:#673101;" d="M164.93,111.06c-1.7,1.63-3.83,2.43-5.97,2.43c-2.3,0-4.57-0.9-6.27-2.7l-0.03-0.03
		c-0.97-1-3.63-3.23-3.63-3.3c0.3-1.13,1.17-2.1,2.4-2.43c0.67-0.17,1.33-0.07,1.97,0.13c-0.77-0.43-1.37-1.17-1.6-2.1
		c-0.47-1.87,0.63-3.77,2.5-4.27c0.83-0.23,1.7-0.07,2.43,0.3c-0.63-0.47-1.17-1.1-1.37-1.93c-0.5-1.87,0.63-3.77,2.47-4.27
		c0,0,0.13-0.03,0.43-0.07c1.7,1.1,3.3,2.4,4.8,3.8c1.13,1.07,1.93,1.83,2.2,2.13c1.23,1.33,1.97,2.9,2.23,4.57
		C167.96,106.09,167.1,108.99,164.93,111.06z"/>
</g>
<g>
	<path style="fill:#FFFFFF;" d="M104.33,272.05v7.03c0,0-2.87-2.3-6.73-2.3c-3.9,0-6.93,2.3-6.93,2.3v-7.03
		c0-2.6,5.43-4.73,8.07-4.73C101.33,267.32,104.33,269.45,104.33,272.05z"/>
	<path style="fill-rule:evenodd;clip-rule:evenodd;fill:#009FF9;" d="M104.33,279.09v38.07c0,2.37-3.23,4.33-5.9,4.83v0.1H85.89
		c-4.7,0-10.34,0.67-13.8-3.3c-2.37-2.73-1.7-8.17-0.2-11.1c2.77-5.47,8-9.5,14-10.8c0,0,0.27-0.07,0.3-0.1
		c1.73-0.3,3.17-0.4,4.47-0.37v-17.34c0,0,3.03-2.3,6.93-2.3C101.46,276.79,104.33,279.09,104.33,279.09z"/>
	<path d="M98.72,267.33c2.61,0,5.62,2.11,5.62,4.72v4.77h0v40.32c0,2.37-3.26,4.35-5.91,4.84v0.12h-1.16h-3.41h-3.2h-4.78
		c-1.15,0-2.37,0.04-3.6,0.04c-3.74,0-7.58-0.37-10.19-3.36c-2.37-2.71-1.71-8.14-0.2-11.11c2.78-5.47,8-9.5,13.99-10.8
		c0,0,0.28-0.06,0.33-0.08c1.58-0.31,2.93-0.4,4.16-0.4c0.1,0,0.19,0,0.29,0v-15.06v-4.53v-4.77
		C90.66,269.44,96.11,267.33,98.72,267.33 M98.72,263.33c-3.43,0-12.06,2.59-12.06,8.72v4.77v4.53v11.32
		c-0.4,0.06-0.81,0.13-1.22,0.21l-0.47,0.11c-7.09,1.54-13.34,6.36-16.66,12.88c-1.96,3.85-3.02,11.22,0.76,15.55
		c3.64,4.17,8.72,4.73,13.21,4.73c0.64,0,1.29-0.01,1.92-0.02c0.57-0.01,1.13-0.02,1.68-0.02h4.78h3.2h3.41h1.16
		c0.65,0,1.27-0.16,1.81-0.43c4.1-1.12,8.1-4.29,8.1-8.52v-40.32l0-4.77C108.34,266.91,103.27,263.33,98.72,263.33L98.72,263.33z"/>
</g>
<g>
	<path style="fill:#FFFFFF;" d="M135.37,272.05v7.03c0,0-3-2.3-6.9-2.3c-3.9,0-6.77,2.3-6.77,2.3v-7.03c0-2.6,3-4.73,5.63-4.73
		C129.93,267.32,135.37,269.45,135.37,272.05z"/>
	<path style="fill-rule:evenodd;clip-rule:evenodd;fill:#009FF9;" d="M153.94,318.79c-3.47,3.97-9.1,3.3-13.77,3.3H127.6V322
		c-2.63-0.5-5.9-2.47-5.9-4.83v-38.07c0,0,2.87-2.3,6.77-2.3c3.9,0,6.9,2.3,6.9,2.3v17.34c1.33-0.03,2.77,0.07,4.47,0.37
		c0.03,0.03,0.33,0.1,0.33,0.1c6,1.3,11.2,5.33,13.97,10.8C155.67,310.63,156.31,316.06,153.94,318.79z"/>
	<path d="M127.32,267.33c2.61,0,8.06,2.11,8.06,4.72v4.77v4.53v15.06c0.1,0,0.19,0,0.29,0c1.23,0,2.58,0.09,4.16,0.4
		c0.06,0.01,0.33,0.08,0.33,0.08c6,1.3,11.21,5.33,13.99,10.8c1.51,2.96,2.16,8.39-0.2,11.11c-2.61,2.99-6.46,3.36-10.19,3.36
		c-1.23,0-2.44-0.04-3.6-0.04h-4.78h-3.2h-3.41h-1.16v-0.12c-2.65-0.49-5.91-2.46-5.91-4.84v-40.32h0v-4.77
		C121.7,269.44,124.71,267.33,127.32,267.33 M127.32,263.33c-4.55,0-9.62,3.58-9.62,8.72v4.77l0,40.32c0,4.27,4.06,7.46,8.2,8.55
		c0.52,0.26,1.1,0.41,1.71,0.41h1.16h3.41h3.2h4.78c0.55,0,1.11,0.01,1.68,0.02c0.63,0.01,1.27,0.02,1.92,0.02
		c4.49,0,9.57-0.56,13.21-4.73c3.77-4.32,2.71-11.7,0.76-15.55c-3.32-6.53-9.57-11.35-16.71-12.89l-0.26-0.06
		c-0.47-0.09-0.92-0.17-1.37-0.24v-11.32v-4.53v-4.77C139.38,265.93,130.75,263.33,127.32,263.33L127.32,263.33z"/>
</g>
<g>
	<path style="fill:#FFFFFF;" d="M51.09,223.68c-2.37,2.37-4.5,4.97-6.33,7.73c-4.87-0.97-9.2-5.33-11.17-8.64
		c5.57-7.33,12.9-13.24,22.44-16.94c2.13-0.8,5.47-2.47,7.77-1.37C72.39,208.61,53.55,221.18,51.09,223.68z"/>
	<path style="fill:#0088C5;" d="M44.75,231.41c-0.5,0.73-0.97,1.5-1.43,2.27c-0.77,1.53-1.5,3.17-1.8,3.77
		c-0.03,0.1-0.07,0.17-0.1,0.2c-3.07,5.83-3.57,11.44-4.73,17.8c-0.7,3.93-2.23,8.43-6.4,8.43c-0.87,0-1.8-0.2-2.9-0.6
		c-0.67-0.27-1.4-0.63-2.1-1.1c-1.53-0.97-2.97-2.33-3.53-3.77c-2.7-6.6,0.5-14,2.87-19.9c1.23-3.07,2.67-6.03,4.3-8.87
		c0.03-0.07,0.13-0.23,0.27-0.47c0.83-1.4,3.1-5.13,4.03-6.2c0.07-0.07,0.13-0.13,0.2-0.2c0.07-0.07,0.1-0.07,0.13-0.07
		c0,0,0.03,0,0.03,0.03v0.03C35.55,226.08,39.88,230.44,44.75,231.41z"/>
	<path d="M65.52,200.87c-1.03-0.5-2.23-0.77-3.5-0.77c-2.47,0-4.87,0.97-6.63,1.7l-0.8,0.3c-9.37,3.63-17.3,9.5-23.57,17.47
		c-1.33,1.07-2.8,3.33-5.53,8.03c-1.73,2.97-3.27,6.1-4.57,9.4l-0.3,0.7c-2.43,6.03-5.77,14.37-2.57,22.24
		c1.13,2.8,3.67,4.73,5.1,5.63c0.9,0.57,1.87,1.07,2.83,1.43c1.47,0.57,2.93,0.87,4.3,0.87c3.77,0,8.6-2.03,10.37-11.74
		c0.17-1.1,0.37-2.13,0.53-3.2c0.8-4.9,1.5-9.17,3.77-13.4c0.1-0.17,0.3-0.6,0.57-1.2c0.33-0.73,0.8-1.73,1.3-2.73
		c2.1-3.43,4.47-6.5,7.1-9.1c0.27-0.27,1.33-1.13,2.3-1.9c7.63-6.07,14.44-12,13.77-17.9C69.82,205.24,69.02,202.57,65.52,200.87z
		 M51.09,223.68c-2.4,2.4-4.5,5-6.33,7.73c-0.5,0.73-0.97,1.5-1.43,2.27c-0.77,1.53-1.5,3.17-1.8,3.77c-0.03,0.1-0.07,0.17-0.1,0.2
		c-3.07,5.83-3.57,11.44-4.73,17.8c-0.7,3.93-2.23,8.43-6.4,8.43c-0.87,0-1.8-0.2-2.9-0.6c-0.67-0.27-1.4-0.63-2.1-1.1
		c-1.53-0.97-2.97-2.33-3.53-3.77c-2.7-6.6,0.5-14,2.87-19.9c1.23-3.07,2.67-6.03,4.3-8.87c0.03-0.07,0.13-0.23,0.27-0.47
		c0.83-1.43,3.1-5.27,4.03-6.2c0.07-0.13,0.17-0.17,0.2-0.2c0.07-0.07,0.1-0.07,0.13-0.07c0,0,0.03,0,0.03,0.03c0,0,0,0,0.03,0
		c5.57-7.3,12.9-13.24,22.4-16.9c1.63-0.6,3.97-1.73,6-1.73c0.63,0,1.23,0.1,1.77,0.37C72.39,208.61,53.55,221.18,51.09,223.68z"/>
</g>
<g>
	<path d="M164.2,203.54c2.26,0,4.76,1.89,6.45,2.96c8.62,5.44,14.64,12.69,18.66,20.94c0.03-0.01,0.06-0.02,0.09-0.02
		c0,0,0.01,0,0.01,0c0.59,0,2.98,6.99,3.22,7.69c1.07,3.11,1.89,6.3,2.5,9.54c1.18,6.23,2.87,14.12-1.04,20.09
		c-0.85,1.29-2.51,2.34-4.2,3.01c-0.78,0.3-1.57,0.53-2.29,0.65c-0.67,0.12-1.28,0.17-1.84,0.17c-5.52,0-5.83-5.29-5.35-9.96
		c0.69-6.67,0.16-12.89-1.59-18.98c-0.19-0.62-0.37-1.25-0.58-1.86c-0.15-0.44-0.29-0.89-0.45-1.33c-0.4-1.1-0.83-2.19-1.29-3.26
		c-0.07-0.16-0.13-0.32-0.2-0.48c-1.19-2.67-2.59-5.26-4.24-7.72c-1.96-2.93-17.99-18.92-8.76-21.31
		C163.59,203.57,163.9,203.54,164.2,203.54 M164.2,199.54C164.2,199.54,164.2,199.54,164.2,199.54c-0.65,0-1.29,0.08-1.91,0.24
		c-3.75,0.97-5.05,3.45-5.49,4.84c-1.8,5.68,3.72,12.83,10.04,20.26c0.78,0.92,1.67,1.96,1.89,2.3c1.47,2.2,2.79,4.6,3.91,7.12
		l0.19,0.45c0.43,0.99,0.83,2.01,1.2,3.03c0.14,0.4,0.28,0.81,0.42,1.22c0.2,0.59,0.37,1.17,0.54,1.75
		c1.6,5.58,2.08,11.3,1.45,17.43c-0.35,3.4-0.48,8.3,2.44,11.54c1.17,1.29,3.31,2.83,6.89,2.83c0.79,0,1.64-0.08,2.52-0.23
		c0.99-0.17,2.05-0.47,3.07-0.87c1.56-0.61,4.43-2.01,6.09-4.54c4.65-7.1,2.98-15.9,1.76-22.32l-0.13-0.71
		c-0.66-3.5-1.55-6.9-2.65-10.1c-1.68-4.9-2.71-7.73-4.03-9.16c-4.59-8.96-11.18-16.2-19.6-21.52l-0.72-0.47
		C170.07,201.34,167.33,199.54,164.2,199.54L164.2,199.54z"/>
	<path style="fill:#FFFFFF;" d="M176.28,232.58c0.03,0.07,0.07,0.13,0.07,0.2c-1.2-2.7-2.63-5.33-4.27-7.83
		c-1.97-2.93-18-18.9-8.77-21.3c2.47-0.63,5.43,1.63,7.33,2.87c8.63,5.43,14.67,12.67,18.67,20.94
		C185.68,228.14,180.88,229.68,176.28,232.58z"/>
	<path style="fill:#0088C5;" d="M194.11,264.72c-0.87,1.3-2.53,2.37-4.2,3.03c-0.8,0.3-1.57,0.5-2.3,0.63
		c-7.3,1.27-7.73-4.63-7.2-9.8c0.77-7.4,0.07-14.27-2.2-21c-0.53-1.6-1.13-3.2-1.87-4.8c0-0.07-0.03-0.13-0.07-0.2
		c4.6-2.9,9.4-4.43,13.04-5.13c0.03-0.03,0.07-0.03,0.1-0.03c0.6,0,3,7,3.23,7.7c1.07,3.1,1.9,6.3,2.5,9.54
		C196.31,250.88,198.01,258.75,194.11,264.72z"/>
</g>
<g>
	<path style="fill-rule:evenodd;clip-rule:evenodd;fill:#009FF9;" d="M169.48,234.95c0.5,9.97-1.97,24.6-8.6,33.17
		c-7.83,10.1-22.1,16.7-39.21,18.1c-2.03,0.17-4.23,0.27-6.4,0.27h-4.5c-2.17,0-4.37-0.1-6.4-0.27c-17.1-1.4-31.37-8-39.21-18.1
		c-6.63-8.57-9.1-23.2-8.6-33.17c0.3-5.57,1.53-11.2,2.73-16.64c0.6-2.8,1.2-5.6,1.7-8.4c0.57-3.13,0.2-8.94,0.2-9.24
		c-0.4-4.33-1.7-8.4-2.93-11.8c-4.77-13.4-5.6-25.94-2.53-39.44c2.77-12.2,8.53-22.54,15.87-28.41
		c12.2-9.74,26.37-15.34,38.91-15.34c0.07,0,0.07,0,0.1,0h4.93c12.54,0,26.71,5.6,38.91,15.34c7.33,5.87,13.1,16.2,15.87,28.41
		c3.07,13.5,2.23,26.04-2.57,39.44c-1.2,3.4-2.5,7.47-2.9,11.87c0,0.13-0.13,2.03-0.13,4.23c0,1.7,0.1,3.57,0.33,4.93
		c0.5,2.8,1.1,5.57,1.7,8.37C167.94,223.74,169.18,229.38,169.48,234.95z"/>
	<path d="M170.64,217.41c-0.57-2.73-1.17-5.47-1.67-8.2c-0.4-2.2-0.23-6.67-0.13-8.17c0.37-3.9,1.57-7.67,2.67-10.8
		c5-13.97,5.9-27.61,2.7-41.67c-2.97-13.07-9.24-24.24-17.27-30.64c-12.9-10.34-28.01-16.24-41.41-16.24h-5.03
		c-13.4,0-28.51,5.9-41.41,16.24c-8.03,6.4-14.3,17.57-17.27,30.64c-3.2,14.07-2.3,27.71,2.67,41.67c1.13,3.13,2.33,6.9,2.7,10.74
		c0.1,1.57,0.27,6.03-0.13,8.23c-0.5,2.73-1.1,5.5-1.7,8.24c-1.2,5.6-2.47,11.4-2.77,17.3c-0.6,11.04,2.1,26.4,9.4,35.81
		c8.53,11,23.84,18.17,42.04,19.67c2.13,0.17,4.47,0.27,6.73,0.27h4.5c2.27,0,4.6-0.1,6.73-0.27c18.2-1.5,33.51-8.67,42.04-19.67
		c7.3-9.4,10-24.77,9.4-35.81C173.14,228.84,171.88,223.04,170.64,217.41z M115.27,286.49h-4.5c-2.17,0-4.37-0.1-6.4-0.27
		c-17.1-1.4-31.37-8-39.21-18.1c-6.63-8.57-9.1-23.2-8.6-33.17c0.3-5.57,1.53-11.2,2.73-16.64c0.6-2.8,1.2-5.6,1.7-8.4
		c0.57-3.13,0.2-8.94,0.2-9.24c-0.4-4.33-1.7-8.4-2.93-11.8c-4.77-13.4-5.6-25.94-2.53-39.44c2.77-12.2,8.53-22.54,15.87-28.41
		c12.2-9.74,26.37-15.34,38.91-15.34c0.07,0,0.07,0,0.1,0h4.93c12.54,0,26.71,5.6,38.91,15.34c7.33,5.87,13.1,16.2,15.87,28.41
		c3.07,13.5,2.23,26.04-2.57,39.44c-1.2,3.4-2.5,7.47-2.9,11.87c0,0.13-0.13,2.03-0.13,4.23c0,1.7,0.1,3.57,0.33,4.93
		c0.5,2.8,1.1,5.57,1.7,8.37c1.2,5.47,2.43,11.1,2.73,16.67c0.5,9.97-1.97,24.6-8.6,33.17c-7.83,10.1-22.1,16.7-39.21,18.1
		C119.63,286.39,117.43,286.49,115.27,286.49z"/>
</g>
</svg>
