<?xml version="1.0" encoding="utf-8"?>
<!-- Generator: Adobe Illustrator 24.3.0, SVG Export Plug-In . SVG Version: 6.00 Build 0)  -->
<svg version="1.1" id="레이어_1" xmlns="http://www.w3.org/2000/svg" xmlns:xlink="http://www.w3.org/1999/xlink" x="0px"
	 y="0px" viewBox="0 0 240 240" style="enable-background:new 0 0 240 240;" xml:space="preserve">
<style type="text/css">
	.st0{fill:#FFFFFF;}
	.st1{fill:#00A2F6;}
	.st2{fill:#653109;}
	.st3{fill:#231815;}
	.st4{fill-rule:evenodd;clip-rule:evenodd;fill:#00A2F6;}
	.st5{fill-rule:evenodd;clip-rule:evenodd;fill:#FFFFFF;}
	.st6{fill-rule:evenodd;clip-rule:evenodd;fill:#FCBFBB;}
	.st7{fill-rule:evenodd;clip-rule:evenodd;}
	.st8{fill:#D34A4C;}
	.st9{fill:#0183C6;}
	.st10{fill:#F9503A;}
	.st11{fill:#F2C300;}
	.st12{fill:#FFE98D;}
	.st13{fill:none;}
	.st14{fill:#FFE7D7;}
	.st15{fill:#FFEB96;}
	.st16{fill:#EDC4A2;}
	.st17{fill:#CC9E7D;}
	.st18{fill:#0085C9;}
</style>
<g id="레이어_4">
	<path class="st0" d="M131.5,193.6c-0.2-2.4,0.3-4.8,0.2-7.3C131.7,188.9,131.3,191.2,131.5,193.6z"/>
	<path class="st0" d="M120,185.6c0,1,0,2,0.1,2.9c3,1.3,6.5,1.6,9.6,0.6c0.8-0.3,1.5-0.7,2.2-1.1c-0.3-7.2,1.1-18,1.9-24.1
		c0.6-4.5-6.3-6.6-9.8-5.3C119.4,160.4,120,181,120,185.6z"/>
	<path class="st1" d="M101.6,219.8c1.4,3.5,11.5,5,15.5,4.7c3.4-0.3,6.4,0.4,9.8,0.5c2.1,0.1,7-0.2,8.6-2.1
		c3.1-3.6,2.4-10.4,0.1-13.8c-0.6-0.9-1.3-1.6-2.2-2.3c-0.1-4.2-0.1-7.3-0.5-11.8c0,0-0.2,1.3-0.2,1.3c-0.2-2.4-0.6-4.7-0.7-7.2
		c0-0.4,0-0.7-0.1-1.1c-0.7,0.5-1.4,0.8-2.2,1.1c-3.2,0.9-6.6,0.7-9.7-0.6c0,0-0.1,0-0.1,0c0.1,6-0.9,7.6-0.2,13
		c-2.7,0.1-5.5,0.6-8.1,1.4C105.1,204.9,99.7,215.2,101.6,219.8z"/>
	<path class="st1" d="M131.6,185.2c0,0.4,0,0.8,0,1.1C131.6,185.9,131.6,185.6,131.6,185.2L131.6,185.2z"/>
	<path d="M128.4,158.9c2.9,0.4,5,3.1,4.6,6.1c-1.3,10-1.7,20-1.3,30.1c0.1,1.7-0.3,10,0.7,11.4c0.6,0.8,1.1,2.3,1.7,3.2
		c2.4,3.4,2.7,6.8-0.3,10.4s-10.6,3.8-14.8,3.6s-14.8,0.1-16.1-5.3c-1.2-4.9,3.9-12.2,7.5-13.8c2.3-1,7.7-2.8,10.2-2.8
		c-0.1-8.8-0.6-17.7,0-26.6c0.3-3.9,0.4-14.1,4.8-15.9C126.4,158.8,127.4,158.7,128.4,158.9 M120.4,185.4L120.4,185.4 M134.4,195.3
		c-0.1-3.6-0.1-7.1-0.2-10.6c-0.1-6.5,0.3-13,1.3-19.4c0.6-4.4-2.6-8.5-7-9c-1.3-0.2-2.6,0-3.9,0.4c-4.9,1.9-6.7,11-6.8,24.5
		c0,0.5,0,0.9,0,1.3c0,0.8,0,1.6,0.1,2.4l0,0c0,0.2,0,0.4,0,0.7v0.7c0.1,4.7-0.3,8.9,0,12.9c-2.1,0.2-6.6,2.3-8.2,3
		c-3.3,1.5-7.2,5.5-8.8,9.8c-1,2.3-1.1,4.9-0.3,7.3c2.6,8,19.3,7.3,26.5,6.7c4.1-0.4,6.1-1.5,8.6-4.5c4.2-5,3.5-9.3,0.8-13.2
		c-0.5-0.7-0.9-2.4-1.6-3.1s-0.5-3.2-0.5-4.2c0-0.2,0-0.5,0-0.7C134.4,198.6,134.3,197,134.4,195.3L134.4,195.3z"/>
	<path class="st0" d="M155,197.5c-0.3-2.4,0-4.8-0.3-7.3C154.9,192.8,154.6,195.2,155,197.5z"/>
	<path class="st0" d="M142.8,187.8c0.1,1,0.1,2,0.3,2.9c3.1,1.1,6.5,1.1,9.7,0c0.8-0.3,1.5-0.8,2.1-1.3c-0.7-7.2,0.2-15.5,0.6-21.6
		c0.3-4.6-6.6-6.2-10.1-4.6C141,165.2,142.6,183.2,142.8,187.8z"/>
	<path class="st1" d="M129.1,224.5c1.6,3.4,10.3,4.1,13.4,4.6c3.3,0.6,6.9-0.1,10.3-0.2c2.1-0.1,7-0.7,8.4-2.6
		c2.8-3.8,2.7-10.6,0.2-13.9c-0.6-0.8-0.9-1.9-1.8-2.5c-0.3-4.2-3.8-7.3-4.4-11.7l0,0c-0.3-2.3,0.1-5.1-0.2-7.7l-0.1-1.1
		c-0.7,0.5-1.4,0.9-2.1,1.3c-3.1,1.1-6.5,1.1-9.7,0H143c0.5,6,0.3,10,1.3,15.3c-2.8,0.2-5.5,0.8-8,2
		C132.8,209.8,127,220,129.1,224.5z"/>
	<path class="st1" d="M154.6,189.1c0,0.4,0.1,0.7,0.1,1.1L154.6,189.1L154.6,189.1z"/>
	<path d="M149.8,163.1c2.9,0.2,5.1,2.8,4.9,5.8c-0.7,10-0.5,20.1,0.6,30.1c0.2,1.7-0.3,7.8,1.1,8.8c0.9,0.6,1.7,1.3,2.3,2.1
		c2.6,3.3,4.8,11.5,2.4,15s-12.6,3.7-16.8,3.7s-12.5-0.3-14.2-5.6c-1.5-4.8,3.2-12.3,6.7-14.2c2.4-1.3,5-2.2,7.7-2.6
		c-0.7-8.8-1.7-17.7-1.6-26.6c0-3.9-0.5-14.1,3.8-16.1C147.8,163.2,148.8,163,149.8,163.1 M143.4,190L143.4,190 M158.4,205.8
		c-0.3-0.4-0.5-0.8-0.5-1.3l-0.9-15.9c-0.5-6.5-0.4-13.1,0.2-19.6c0.3-4.4-3.1-8.3-7.5-8.6c-1.3-0.1-2.6,0.2-3.9,0.7
		c-4.8,2.2-6.1,11.4-5.3,24.9c0,0.5,0,0.9,0.1,1.3c0,0.8,0.1,1.5,0.2,2.4l0,0c0,0.2,0,0.4,0,0.7l0.1,0.6c0.4,4.7,0.2,9.1,0.8,13.1
		c-2,0.3-3.9,0.9-5.7,1.8c-5.3,3.1-6.8,7-8.2,11.5c-0.8,2.4-0.8,4.9,0.1,7.3c3.1,7.8,17.3,6.2,24.6,5.7c3.5-0.3,8.3-0.8,10.5-4
		c3.7-5.3,0.6-14.6-2.4-18.3c-0.6-0.7-1.2-1.3-1.9-1.9L158.4,205.8z"/>
	<path class="st1" d="M133.8,115.5c-15.5,2.2-25.7,0.9-33.2-2.3l0,0c0,0,0-0.1,0-0.1c-1.5-0.5-3-1.1-4.5-1.4c-3.5-0.9-3.4-0.8-4,3
		c-2.2,14.2-3,29.1,3.5,42.3c4.2,8.6,11.8,15,21,17.6c7.9,2.5,16.2,3.5,24.4,3.2c17.6-0.7,32.1-7.8,39.6-19.5
		c4.5-7,6.2-15.6,6.4-24.1c0.1-2.5,0-4.9-0.1-7.4c-0.4-5.4-1.2-10.7-2.3-16c0,0-2.8-16.1-6.5-21.4C178,89.4,147.8,113.5,133.8,115.5
		z"/>
	<path class="st0" d="M102.7,20c3,1.2,5.6,3.4,7.3,6.2c3.6,5.5,3.9,8.8,1,10.2c-4.3,2.1-6,1.8-8.2-0.3c-4.8-4.6-7.2-1.3-10.8,2.6
		c-2.9,3.1-7.8,3.3-11,0.4c0,0,0,0,0,0c-3.1-3-3.3-7.9-0.4-11.1c2.5-2.8,5.5-5.2,8.7-7C93.9,18.5,97.8,18.2,102.7,20z"/>
	<path class="st2" d="M95.2,35.3L95.2,35.3c-1,0.9-2.3,2.3-3.2,3.2l0,0c-2.9,3.1-7.8,3.3-11,0.4c0,0,0,0,0,0c-0.3-0.3-0.6-0.7-0.9-1
		c-0.8-1.1-1.3-2.4-1.5-3.7c0-0.2,0-0.5,0-0.7c0-0.1,0-0.2,0-0.3c0-0.4,0-0.8,0-1.2c0,0,0,0,0-0.1c0-0.1,0-0.3,0.1-0.4
		c0-0.2,0.1-0.4,0.2-0.6s0.2-0.5,0.3-0.7c0.1-0.3,0.2-0.6,0.4-0.9c0.1-0.2,0.3-0.5,0.4-0.7c0.2-0.3,0.4-0.5,0.6-0.7l0.1-0.1
		c0.2-0.2,0.5-0.5,0.9-0.9c1.6-1.6,3.3-3.1,5.2-4.4l0.4,0.1c1.7,0.4,2.7,2.1,2.3,3.8c-0.2,0.7-0.6,1.3-1.2,1.7
		c0.7-0.4,1.5-0.5,2.2-0.3c1.7,0.4,2.7,2.1,2.3,3.8c0,0,0,0,0,0c-0.2,0.8-0.7,1.5-1.4,1.9c0.6-0.2,1.2-0.3,1.8-0.1
		C94,33.7,94.8,34.4,95.2,35.3z"/>
	<path class="st3" d="M111.8,25c-2-3.2-5-5.6-8.4-7c-2.7-1-5.6-1.4-8.4-1.1c-2.3,0.3-4.6,1.1-6.6,2.2c-3,1.7-5.8,3.8-8.2,6.3
		c-0.5,0.5-0.9,0.9-1.1,1.1c-1.4,1.4-2.2,3.3-2.5,5.2c-0.5,3.2,0.6,6.5,3,8.8c2.1,2,5.1,3,8,2.6c2.3-0.3,4.4-1.3,6-3l0.4-0.4
		c0.8-0.8,1.9-2,2.7-2.7c0.5-0.5,1.1-0.8,1.8-1c0.8-0.1,1.8,0.5,3,1.7c1.5,1.7,3.7,2.5,5.9,2.3c1.6-0.3,3.2-0.8,4.6-1.5
		c1.5-0.6,2.6-1.9,3-3.4C115.6,32.5,114.6,29.3,111.8,25z M111,36.3c-1.2,0.7-2.6,1.1-4,1.4c-1.6,0.2-3.2-0.5-4.2-1.7
		c-1.8-1.8-3.3-2.4-4.7-2.2C97,34,96,34.5,95.2,35.3l0,0c-1,0.9-2.3,2.3-3.2,3.2l0,0c-2.9,3.2-7.8,3.4-11,0.5c0,0,0,0,0,0
		c-0.3-0.3-0.6-0.7-0.9-1c-0.8-1.1-1.3-2.4-1.5-3.7c0-0.2,0-0.5,0-0.7c0-0.1,0-0.2,0-0.3c0-0.4,0-0.8,0-1.2c0,0,0,0,0-0.1
		c0-0.1,0-0.3,0.1-0.4c0-0.2,0.1-0.4,0.2-0.6c0.1-0.2,0.2-0.5,0.3-0.7c0.1-0.3,0.2-0.6,0.4-0.9c0.1-0.2,0.3-0.5,0.4-0.7
		c0.2-0.3,0.4-0.5,0.6-0.7l0.1-0.1c0.2-0.2,0.5-0.5,0.9-0.9c1.6-1.6,3.3-3.1,5.2-4.4c0.8-0.6,1.7-1.1,2.5-1.5c1.8-1,3.8-1.7,5.8-2
		c2.5-0.3,5.1,0.1,7.5,1c3.1,1.3,5.6,3.4,7.3,6.3C113.6,31.7,113.9,34.9,111,36.3z"/>
	<path class="st4" d="M181,77.8c1.7-7.3-0.4-15.7-3.2-22.6c-3.5-8.7-9.9-15.9-18-20.6c-0.3-0.2-0.6-0.3-0.9-0.5
		c-0.6-0.3-1.3-0.7-1.9-1l-1-0.5c-2-0.9-4-1.8-6-2.5c-0.7-0.2-1.4-0.5-2.1-0.7s-1.4-0.5-2.1-0.6c-6.3-1.8-12.5-3.7-18.8-2.9
		c-0.6,0.1-1.2,0.2-1.8,0.3c0,0-1.6,0.4-1.7,0.5l-2.3,0.2c-11.7,2-24.6,8-32.1,19.3c-7.1,10.7-8.7,23-8.4,35.5
		c-0.6,0.9-1,1.9-1.4,2.9c-2.2,5.9-1.5,14.5,2,19.9c5.5,8.5,14,10.4,23.6,11.9c1.7,0.3,3.3,0.4,5,0.6c7.9,1,15.9,0.7,23.7-1
		c14.5-3,28.2-6.9,39-17.9C177.5,92.8,179.3,84.8,181,77.8z"/>
	<path class="st4" d="M120.7,28h0.2H120.7z"/>
	<path class="st1" d="M120.7,28h0.2H120.7z"/>
	<path d="M155.9,32.6c-2-0.9-4-1.8-6-2.5C152,30.9,154,31.7,155.9,32.6z"/>
	<path class="st5" d="M163.3,67.6c-2.6-7.9-7.4-15-13.8-20.3c-8.3-6.9-19.3-9-29.9-8.1c-1.3,0.1-2.5,0.3-3.8,0.5
		c-9,1.4-17,4.3-23.7,10.8c-3.7,3.5-6.4,7.8-7.8,12.7c-0.5,1.8-0.9,4.2-1.3,6.4c-0.4,2.7-0.4,5.3-0.8,7.6c-0.6,3.5-1.9,3.3-2.9,5.9
		c-0.6,1.8-1,3.8-1,5.7c-0.3,4.4,0.6,10.4,3,14.2c5.5,8.5,14,10.4,23.6,11.9c12.7,2,22.8,0.2,35.1-2.6c5.6-1.2,10.8-3.5,15.5-6.8
		c9.7-6.9,11.1-18.3,9.3-31C164.6,72,164.1,69.8,163.3,67.6z"/>
	<path class="st6" d="M125.7,92.6c0.1,6.9,5.8,12.4,12.7,12.2c6.9-0.1,12.4-5.8,12.2-12.7c-0.1-6.8-5.6-12.2-12.4-12.2
		C131.3,79.9,125.6,85.6,125.7,92.6C125.7,92.6,125.7,92.6,125.7,92.6"/>
	<path class="st6" d="M78.5,91.2c0.3,6.6,3.9,12.2,7.5,12s6.2-5.6,5.8-12.2s-3.5-11.7-7-11.6s-6.6,4.6-6.2,11.2"/>
	<path class="st7" d="M103.9,89.7c0.2,1.1,1.3,1.8,2.4,1.6c1.3-0.1,2.3-0.9,2.2-1.8c-0.4-1.3-1.7-1.9-3-1.5
		C104.7,88.2,104.1,88.9,103.9,89.7"/>
	<path class="st7" d="M104,89.4c-0.1,0.9,0.9,1.7,2.1,1.8c1.1,0.2,2.1-0.5,2.3-1.6c0-0.9-0.9-1.7-2.1-1.8
		C105.2,87.7,104.2,88.4,104,89.4"/>
	<path class="st7" d="M95.8,87L95.8,87c1.5,0.1,2.8-1.1,2.9-2.7c0,0,0,0,0,0v-0.4c0.1-1.5-1-2.9-2.5-3s-2.9,1-3,2.5
		c0,0.1,0,0.1,0,0.2V84C93.1,85.6,94.3,86.9,95.8,87"/>
	<path class="st7" d="M119.1,88.2L119.1,88.2c1.6,0.1,3-1,3.2-2.6v-0.4c0.1-1.7-1.2-3.1-2.8-3.2c-1.7-0.1-3.1,1.2-3.2,2.8l0,0v0.4
		C116.2,86.9,117.5,88.2,119.1,88.2C119.1,88.2,119.1,88.2,119.1,88.2"/>
	<path class="st8" d="M101,100c0,2.3,1.2,4.5,3.2,5.7c1.7,1.1,3.8,1.4,5.8,0.7c2.7-1.3,3.2-3.7,3.1-6.1c0,0-6.3-0.8-7.1-2.3h-0.9
		c-1,0.7-2.1,1.3-3.2,1.8L101,100z"/>
	<path d="M107.7,107.7c-1.4,0-2.8-0.4-4.1-1.2c-2.2-1.4-3.6-3.9-3.6-6.5c0-0.6,0.4-1,1-1c0,0,0,0,0,0c0.5,0,1,0.4,1,1
		c0,2,1,3.8,2.7,4.9c1.5,1,3.3,1.2,4.9,0.6c1.8-0.9,2.5-2.4,2.5-5.1c0-0.6,0.4-1,1-1c0.5,0,1,0.4,1,1c0.1,2.2-0.3,5.3-3.7,7
		C109.5,107.6,108.6,107.7,107.7,107.7z"/>
	<g>
		<path class="st8" d="M101,100c0,2.3,1.2,4.5,3.2,5.7c1.7,1.1,3.8,1.4,5.8,0.7c2.7-1.3,3.2-3.7,3.1-6.1"/>
		<path d="M107.7,107.7c-1.4,0-2.8-0.4-4.1-1.2c-2.2-1.4-3.6-3.9-3.6-6.5c0-0.6,0.4-1,1-1c0,0,0,0,0,0c0.5,0,1,0.4,1,1
			c0,2,1,3.8,2.7,4.9c1.5,1,3.3,1.2,4.9,0.6c1.8-0.9,2.5-2.4,2.5-5.1c0-0.6,0.4-1,1-1c0.5,0,1,0.4,1,1c0.1,2.2-0.3,5.3-3.7,7
			C109.5,107.6,108.6,107.7,107.7,107.7z"/>
	</g>
	<path d="M137.9,179.2c-7.3,0-14.6-1.1-21.6-3.3c-10.7-3.3-20.6-11.6-24.3-20.1c-3.7-8.7-3.4-28.9-1.5-39c0.2-0.9-0.2-1.7-1-2.1
		l-2-1.2c-3.8-2.5-6.7-5.9-8.5-10c-2.4-4.2-3.5-9.1-3.2-13.9c0.2-2.4,0.8-4.6,1.6-6.8c0.2-0.9,0.5-1.7,0.9-2.5
		c-0.1-7.7,0.1-14.8,2.8-23.4c2.4-8.5,7.4-15.9,14.3-21.4c10.9-8.1,24.4-12,37.9-11.2c18.3,1.5,31.4,7.4,40,18.1
		c7,8.8,10.8,23.3,9.4,36c-0.5,3.5-1.4,7-2.6,10.3c0,0,0,0,0,0c-0.5,1.4-0.4,1.9-0.4,1.9c0,0,0,0.1,0.1,0.1l0,0
		c2.4,5.5,6.1,20.8,6.3,21.8c1.4,7.1,2.1,14.4,2,21.6c-0.2,10-2.5,18.4-6.6,24.8c-7.8,12-22.6,19.3-40.6,20.1
		C140,179.2,138.9,179.2,137.9,179.2z M129.7,26.7c-11.7,0-23.3,3.8-32.8,10.8c-6.5,5.1-11.1,12.1-13.4,20.1
		c-2.6,8.4-2.7,15.1-2.7,22.9c0,0.2,0,0.4-0.1,0.6c-0.4,0.7-0.7,1.5-0.9,2.3c0,0,0,0.1,0,0.1c-0.8,1.9-1.3,4-1.5,6.1
		c-0.2,4.4,0.8,8.7,3,12.6c0,0,0,0.1,0.1,0.1c1.6,3.7,4.2,6.8,7.5,8.9l1.9,1.1c1.7,0.9,2.6,2.9,2.2,4.7c-1.7,9.6-2.1,29.4,1.4,37.6
		c3.4,7.9,12.7,15.6,22.7,18.7c7.8,2.4,15.8,3.4,23.9,3.1c17.2-0.7,31.2-7.6,38.6-18.9c3.8-6,5.9-13.9,6.2-23.5
		c0.1-7.1-0.6-14.2-2-21.1c-0.2-1-3.9-16-6.2-21.3c-0.5-0.9-0.4-2.3,0.2-4l0,0c1.2-3.1,2-6.4,2.5-9.7c1.3-12.1-2.3-25.8-8.9-34.1
		c-8.1-10.1-20.6-15.7-38.2-17.1C131.9,26.8,130.8,26.7,129.7,26.7z M178.9,88.3L178.9,88.3L178.9,88.3z"/>
	<path class="st0" d="M176.3,27.9v0.4c0.1,1,0,2-0.2,3c-0.1,0.4-0.2,0.7-0.3,1c-0.3,0.8-0.7,1.6-1.1,2.3c-0.2,0.3-0.4,0.6-0.6,0.8
		c-0.1,0.2-0.2,0.3-0.3,0.4c-2.5,2.7-6.4,3.5-9.7,2c-0.6-0.2-1.1-0.6-1.6-0.9c-0.3-0.2-0.5-0.4-0.7-0.6l0,0l-0.2-0.2l-0.2-0.2
		c-1-1.1-2.1-2-3.3-2.9l0,0c-1.3-1.1-2.9-1.7-4.5-1.6c-1.4,0.1-2.8,0.9-4.4,2.7c-0.7,1-1.7,1.7-2.9,1.9c-1.2,0.1-2.7-0.5-5.1-1.8
		c-3.3-1.9-3.5-3.7,0-10c1.7-3.2,4.3-5.7,7.5-7.3c2-0.9,4.2-1.5,6.4-1.7c3.3-0.4,6.6,0.2,9.6,1.5c0.9,0.4,1.7,0.8,2.6,1.3
		c2.4,1.6,4.7,3.4,6.8,5.4c0.9,0.8,1.5,1.8,1.9,2.9c0.1,0.1,0.1,0.3,0.1,0.5c0.1,0.3,0.1,0.5,0.2,0.8
		C176.3,27.7,176.3,27.8,176.3,27.9z"/>
	<path d="M175.5,21.9c-2.3-2.1-4.7-3.9-7.2-5.7c-0.9-0.5-1.8-1-2.7-1.4c-3.3-1.5-7-2.1-10.7-1.7c-2.4,0.3-4.8,0.9-7,1.9
		c-3.7,1.8-6.7,4.7-8.5,8.3c-2.9,5.3-4.7,9.7,0.8,12.9c2.5,1.4,4.5,2.3,6.3,2.1c1.7-0.3,3.2-1.2,4.2-2.6c0.7-1,1.8-1.7,3-2
		c1.1,0,2.2,0.5,3.1,1.2c1.2,0.9,2.4,1.9,3.5,3l0,0l0.1,0.1c4.3,3.9,10.9,3.7,14.9-0.6c0,0,0-0.1,0.1-0.1c2.4-2.7,3.5-6.2,3-9.7
		C178,25.5,177,23.5,175.5,21.9z M174.2,35.5c-0.1,0.2-0.2,0.3-0.3,0.4c-2.5,2.7-6.4,3.5-9.7,2c-0.6-0.2-1.1-0.6-1.6-0.9
		c-0.3-0.2-0.5-0.4-0.7-0.6l0,0l-0.2-0.2l-0.2-0.2c-1-1.1-2.1-2-3.3-2.9l0,0c-1.3-1.1-2.9-1.7-4.5-1.6c-1.4,0.1-2.8,0.9-4.4,2.7
		c-0.7,1-1.7,1.7-2.9,1.9c-1.2,0.1-2.7-0.5-5.1-1.8c-3.3-1.9-3.5-3.7,0-10c1.6-3.2,4.2-5.8,7.4-7.4c2-0.9,4.2-1.5,6.4-1.7
		c3.3-0.4,6.6,0.2,9.6,1.5c0.9,0.4,1.7,0.8,2.6,1.3c2.4,1.6,4.7,3.4,6.8,5.4c0.9,0.8,1.5,1.8,1.9,2.9c0.1,0.1,0.1,0.3,0.1,0.5
		c0.1,0.3,0.1,0.5,0.2,0.8c0,0.1,0.1,0.2,0.1,0.3v0.4c0.1,1,0,2-0.2,3c-0.1,0.4-0.2,0.7-0.3,1c-0.3,0.8-0.7,1.6-1.1,2.3
		C174.6,35,174.4,35.2,174.2,35.5z"/>
	<path class="st2" d="M176.4,28.3c0.1,1,0,2-0.2,3c-0.1,0.4-0.2,0.7-0.3,1c-0.3,0.8-0.7,1.6-1.1,2.3c-0.2,0.3-0.4,0.6-0.6,0.8
		s-0.2,0.3-0.3,0.4c-2.9,3.2-7.8,3.7-11.2,1.1c-0.3-0.2-0.5-0.4-0.7-0.6l0,0c-0.1-0.1-0.1-0.1-0.2-0.2l-0.2-0.2
		c-1-1.1-2.1-2-3.3-2.9l0,0c0.4-1.7,2.2-2.8,3.9-2.4c0.1,0,0.1,0,0.2,0.1c-0.8-0.4-1.4-1.1-1.7-2c-0.6-1.8,0.4-3.7,2.1-4.3
		c0.8-0.3,1.7-0.2,2.4,0.1c-0.7-0.4-1.2-1-1.5-1.8c-0.6-1.8,0.4-3.7,2.1-4.3c0.1-0.1,1.2-0.4,1.5-0.5c2.4,1.6,4.7,3.4,6.8,5.4
		c0.9,0.8,1.5,1.8,1.9,2.9c0.1,0.1,0.1,0.3,0.1,0.5c0.1,0.3,0.1,0.5,0.2,0.8C176.3,27.8,176.4,28,176.4,28.3z"/>
	<path class="st9" d="M151.5,136.1c-2.2-1.6-5-1-8-0.4c-3.2,4.1-7.2,7.6-11.7,10.2c-2.3,1.4-6,2.6-9,4.2c-3.4,1.9-5.3,7.9-3.2,11.5
		c6.3,10.9,22.9,0.4,28.9-5.2c3.4-3.3,6.4-7,8.8-11.1C156.9,141.2,155.4,137.8,151.5,136.1z"/>
	<path class="st0" d="M156.2,111.7c-4.2,1.7-5.1,7-6.2,10.8c-1.2,4.1-3,8-5.4,11.6c-0.4,0.6-0.8,1.1-1.1,1.6c3-0.6,5.8-1.2,8,0.4
		c3.9,1.7,5.4,5.2,5.7,9.2c4.2-6.9,7.1-14.6,8.6-22.5C166.9,117,163.8,108.6,156.2,111.7z"/>
	<path d="M127.9,167.6c-0.6,0-1.2,0-1.8-0.1c-3.3-0.5-5.9-2.2-7.6-5.2c-1.1-2-1.4-4.6-0.6-7.2c0.7-2.7,2.4-4.9,4.3-6
		c1.5-0.8,3.1-1.5,4.7-2.2c1.6-0.7,3.1-1.3,4.2-2c4.4-2.6,8.2-5.9,11.4-9.9c0.4-0.5,0.7-1,1.1-1.5c2.3-3.4,4-7.2,5.2-11.2
		c0.2-0.5,0.3-1.1,0.5-1.6c1-3.7,2.3-8.3,6.5-10l0,0c3.8-1.6,6.4-0.4,7.9,0.8c3.2,2.6,4.1,7.8,3.4,11.6c-1.5,8.1-4.5,15.8-8.7,22.9
		c-2.5,4.2-5.5,8-9,11.4C144.9,161.5,135.5,167.6,127.9,167.6z M156.7,112.8c-3.1,1.3-4.1,5-5,8.4c-0.2,0.6-0.3,1.1-0.5,1.7
		c-1.2,4.2-3.1,8.2-5.5,11.9c-0.4,0.6-0.8,1.1-1.2,1.6c-3.3,4.3-7.4,7.8-12.1,10.6c-1.3,0.8-2.8,1.4-4.5,2.2
		c-1.5,0.7-3.1,1.3-4.5,2.1c-1.4,0.7-2.5,2.4-3.1,4.4c-0.6,2-0.4,3.9,0.4,5.3c1.3,2.3,3.2,3.6,5.8,4c6.6,1,16.3-5,21.1-9.5
		c3.3-3.2,6.2-6.9,8.6-10.8c4.1-6.8,6.9-14.3,8.4-22.1c0.6-3-0.1-7.3-2.5-9.2C160.7,112.1,158.9,112,156.7,112.8L156.7,112.8z"/>
	<path d="M120.6,94.3c-0.3-0.4-0.9-0.4-1.3-0.1c0,0,0,0-0.1,0.1c-0.4,0.4-0.4,1.1,0,1.5c0.1,0.1,0.1,0.1,0.1,0.2c0,0,0,0.2-0.6,0.6
		c-2.7,2.1-6.6,2.8-9.3,1.8c-0.6-0.2-1.1-0.5-1.6-0.9c-0.3-0.2-0.5-0.5-0.7-0.8c-0.1-0.3-0.3-0.5-0.5-0.8c-0.3-0.2-0.7-0.3-1.1-0.2
		c-0.2,0-0.4,0.1-0.5,0.2c-0.2,0.2-0.2,0.4-0.3,0.6c0,0.1-0.1,0.3-0.2,0.4c-0.1,0.3-0.3,0.5-0.5,0.7c-0.5,0.4-1,0.7-1.6,0.8
		c-0.8,0.2-1.7,0.3-2.6,0.1c-1-0.2-1.8-0.8-2.4-1.5c-0.3-0.3-0.5-0.6-0.7-1c0.3-0.4,0.3-1,0-1.4c-0.3-0.4-0.9-0.5-1.4-0.2
		c-0.4,0.3-0.6,0.8-0.7,1.3c0.1,1,0.5,2,1.3,2.7c0.9,1.1,2.1,1.9,3.5,2.1c0.7,0.1,1.4,0.1,2.1,0.1c1.6-0.1,3.2-0.9,4.2-2.2
		c0.7,0.9,1.7,1.5,2.7,1.9c1.5,0.5,3.1,0.7,4.7,0.5c2.3-0.3,4.6-1.1,6.4-2.6c0.7-0.5,1.2-1.3,1.3-2.1
		C121.3,95.5,121.1,94.8,120.6,94.3z"/>
	<g>
		<polygon class="st10" points="91.8,169.4 92.3,185.9 97.3,181.7 102.5,185.9 102.7,165.3 92,166.1 		"/>
		<path d="M92.3,187.2c-0.2,0-0.3,0-0.5-0.1c-0.4-0.2-0.7-0.6-0.7-1.1l-0.5-16.6c0,0,0-0.1,0-0.1l0.3-3.3c0-0.6,0.5-1.1,1.2-1.2
			l10.7-0.8c0.3,0,0.7,0.1,0.9,0.3c0.3,0.2,0.4,0.6,0.4,0.9l-0.3,20.6c0,0.5-0.3,0.9-0.7,1.1c-0.4,0.2-0.9,0.1-1.3-0.2l-4.4-3.6
			l-4.2,3.6C92.8,187.1,92.6,187.2,92.3,187.2z M97.3,180.4c0.3,0,0.6,0.1,0.8,0.3l3.2,2.6l0.2-16.7l-8.3,0.6l-0.2,2.1l0.4,13.9
			l3-2.6C96.7,180.5,97,180.4,97.3,180.4z"/>
	</g>
</g>
<g id="레이어_5">
	<path class="st11" d="M132,57.2c-4.3,1.8-8.9,2.6-13.6,2.5c1,0.5,6,3.2,9.2,2.7C131.8,61.6,132.1,57.3,132,57.2L132,57.2z"/>
	<path class="st12" d="M132,57.2c-0.5-0.6-3.3-3.6-6.9-3c-4,0.7-6.9,5.4-6.9,5.4l0.2,0.1C123.1,59.8,127.7,59,132,57.2z"/>
	<path class="st11" d="M140.6,55c-4.3-1-8.4-2.7-12.1-5.1c0.5,0.8,3.1,5.2,6,6.4C136.6,57.3,139.1,56.8,140.6,55
		C140.7,55.1,140.6,55.1,140.6,55z"/>
	<path class="st12" d="M140.6,55c-0.1-0.7-0.8-4.1-4-5.5c-3.5-1.5-8.2,0.2-8.2,0.2l0.1,0.2C132.2,52.3,136.3,54,140.6,55z"/>
	<path class="st11" d="M150.5,53.3c-4.3-1.1-8.3-2.9-11.9-5.5c0.5,0.8,3,5.3,5.8,6.6c2,1,4.5,0.6,6.1-1
		C150.5,53.4,150.5,53.3,150.5,53.3z"/>
	<path class="st12" d="M150.5,53.3c-0.1-0.7-0.7-4.1-3.8-5.6c-3.5-1.6-8.2,0-8.2,0l0.1,0.2C142.2,50.3,146.2,52.2,150.5,53.3z"/>
	<path class="st12" d="M151,54c-3.6,2.6-6.6,5.8-9,9.5c0.1-1,0.8-6,3-8.3C146.5,53.5,148.9,53,151,54C151,53.9,151,54,151,54z"/>
	<path class="st11" d="M151,54c0.2,0.6,0.9,4.1-1.5,6.6c-2.6,2.8-7.6,3-7.6,3v-0.2C144.4,59.8,147.4,56.6,151,54z"/>
	<path class="st11" d="M160.5,49.1c-4.4,0.1-8.7-0.6-12.9-2c0.6,0.7,4.2,4,7.2,4.5C157,52.1,159.3,51.1,160.5,49.1
		C160.5,49.2,160.5,49.1,160.5,49.1z"/>
	<path class="st12" d="M160.5,49.1c-0.9-2.1-2.8-3.7-5.1-4.1c-3.8-0.6-7.9,2-7.9,2l0.1,0.1C151.8,48.5,156.1,49.2,160.5,49.1z"/>
	<path class="st12" d="M161,50.1c-3,3.1-5.4,6.7-7.1,10.6c-0.1-0.9-0.3-5.7,1.4-8.3C156.5,50.5,158.8,49.6,161,50.1L161,50.1z"/>
	<path class="st11" d="M161,50.1c1,2,0.9,4.5-0.3,6.4c-2.1,3.1-6.9,4.3-6.9,4.3v-0.2C155.6,56.8,158,53.2,161,50.1z"/>
	<path class="st11" d="M169.6,43.5c-4.3,0.7-8.7,0.7-13-0.1c0.7,0.5,4.7,3.4,7.8,3.4C166.7,47,168.7,45.7,169.6,43.5
		C169.6,43.6,169.6,43.6,169.6,43.5z"/>
	<path class="st12" d="M169.6,43.5c-1.2-2-3.3-3.2-5.6-3.4c-3.8,0-7.5,3.2-7.5,3.2l0.1,0.1C160.9,44.2,165.3,44.2,169.6,43.5z"/>
	<path class="st12" d="M170.7,45c-2.9,3.2-5.1,6.8-6.7,10.8c-0.1-0.9-0.5-5.7,1.1-8.3c1.2-1.9,3.4-3,5.6-2.6
		C170.7,44.9,170.7,45,170.7,45z"/>
	<path class="st11" d="M170.7,45c1.1,2,1.1,4.4-0.1,6.4c-2,3.2-6.7,4.6-6.7,4.6v-0.2C165.6,51.9,167.9,48.2,170.7,45z"/>
	<path class="st11" d="M130,57.8c6.4-2.2,28.8-4.4,42.3-17.3c0.6-0.6,1.6-0.6,2.2,0c0,0,0,0,0,0l0.3,0.4c0.6,0.6,0.5,1.6-0.1,2.2
		c0,0-0.1,0.1-0.1,0.1c-2.8,1.9-8.6,5.4-19.6,9.4c-7.1,2.6-15.8,4.4-26.2,6.5l0,0C128.7,58.4,129.2,58.1,130,57.8z"/>
	<path class="st11" d="M85.8,51.8c3.7-0.6,7.3-2,10.5-4c-0.5,0.8-3.1,4.8-5.6,5.8C88.8,54.4,86.7,53.6,85.8,51.8
		C85.8,51.9,85.8,51.8,85.8,51.8z"/>
	<path class="st12" d="M85.6,51.8c0.2-0.6,1.3-4,4-5.1c3.1-1.2,6.7,1,6.7,1l-0.1,0.1C92.9,49.9,89.8,51.5,85.6,51.8z"/>
	<path class="st11" d="M92.7,62.5c0-0.2,0-0.3,0-0.5c-2.9-2.7-4.7-6.5-7.1-9.2l0,0v0.1l-0.1,0.4c-0.2,0.8-0.8,4.1,1.1,6.5
		c2.1,2.8,6.2,3,6.2,3v-0.2C92.8,62.6,92.8,62.6,92.7,62.5z"/>
	<path class="st12" d="M92.7,62c-0.2-1.7-0.6-5.6-2.2-7.3c-1.1-1.5-3-2.2-4.8-1.9C88,55.5,89.8,59.3,92.7,62z"/>
	<path class="st12" d="M77.8,49c3.7-0.4,7.4-1.5,10.6-3.3c-0.5,0.8-3.3,4.7-5.8,5.5c-1.9,0.6-3.9-0.2-4.8-2
		C77.8,49.1,77.8,49,77.8,49z"/>
	<path class="st11" d="M77.8,49c0.2-0.6,1.3-3.9,4.1-4.9c3.1-1,6.6,1.4,6.6,1.4l-0.1,0.1C85.1,47.5,81.5,48.6,77.8,49z"/>
	<path class="st11" d="M77.3,50.2c2.7,3,4.9,6.5,6.4,10.3c0-1,0-6-1.5-8.5C81.3,50.1,79.2,49.3,77.3,50.2L77.3,50.2z"/>
	<path class="st12" d="M77.3,50.2c-0.2,0.6-1.2,4,0.5,6.7c1.9,3,5.9,3.7,5.9,3.7v-0.2C82.2,56.7,80,53.2,77.3,50.2z"/>
	<path class="st11" d="M79.3,49.4c-0.6-0.2-0.2-0.1-0.7-0.3s0,0-0.4-0.2s-0.5-0.1-0.7,0.2s-0.4,1,0,1.2c0.6,0.2,1,0.4,1.4,0.5
		c0.2-0.4,0.4-0.8,0.6-1.3L79.3,49.4z"/>
	<path class="st11" d="M95.4,54.3c-1.3-0.5-2.6-0.8-3.9-1.2c-1.9-0.5-3.8-1.1-5.7-1.6c-2.2-0.7-4.4-1.4-6.5-2.1
		c-0.2,0.4-0.4,0.8-0.6,1.3l2.8,0.9c2.2,0.7,4.3,1.4,6.5,2c2.4,0.7,4.9,1.5,7.3,2.2c0.1,0,1.5,0.4,1.5,0.4
		C96.8,55.4,96.2,54.6,95.4,54.3z"/>
	<path class="st11" d="M92.8,54.2c3.5,2.2,7.5,3.5,11.6,3.8c-1.1,0.7-2.2,1.2-3.4,1.6c-1.6,0.5-3.3,0.6-4.9,0.2
		C92.5,58.6,92.7,54.3,92.8,54.2C92.7,54.2,92.7,54.2,92.8,54.2z"/>
	<path class="st12" d="M92.7,54.1c0.5-0.5,3.4-3.2,6.4-2.2c3.4,1.1,5.4,6.1,5.4,6.1l-0.2,0.1C100.2,57.6,96.2,56.3,92.7,54.1z"/>
	<path class="st12" d="M141,56.8c-3.8,2.2-7.2,5.1-9.9,8.6c0.2-1,1.4-5.9,3.8-8c1.7-1.5,4.2-1.8,6.1-0.7C141,56.8,141,56.8,141,56.8
		z"/>
	<path class="st11" d="M141,56.9c0.1,0.7,0.5,4.2-2.1,6.4c-2.9,2.5-7.9,2.3-7.9,2.3v-0.2C133.8,62,137.2,59.1,141,56.9z"/>
	<path class="st13" d="M56.6,118.3L56.6,118.3z"/>
	<path class="st14" d="M56.6,118.3L56.6,118.3c3.8-0.2,7.6,0,11.3,0l35.5,0.3c-2.3-3.1-1.9-7.5,1-10.1c0.6-0.6,1.4-0.9,2.2-0.9
		c0.7,0.1,1.3,0.4,1.8,0.8c0.5,0.4,1,0.8,1.5,1.2c-0.2-0.4-0.5-0.8-0.7-1.2c-0.6-1.2-1.9-2.1-3.3-2.1c-0.8-0.4-1.7-0.5-2.6-0.4
		c-17.3-0.5-33.3-1.1-50.6-1.5c-1,0-2-0.3-2.9,0.3c-2,0.5-3.4,2.2-3.6,4.2c-0.5,2.7-0.2,6.4,2.3,8.1c1.3,0.8,2.8,1.1,4.3,1.1
		C53,118.1,56.2,118.3,56.6,118.3L56.6,118.3L56.6,118.3z"/>
	<path class="st15" d="M56.6,118.3"/>
	<path class="st16" d="M118.9,168.7c-1.6-3-2.9-6.2-3.8-9.6c-0.3-0.9-0.5-1.9-0.7-2.8c-0.4-1.2-0.8-2.4-1-3.7
		c-0.4-2.7-1.3-5.2-1.7-7.8c-0.3-2.4-1.2-4.7-1.2-7.1s0-5-0.1-7.4c0-3.2,0.2-6.4,0.5-9.6c0.2-2.2,0.8-4.3,0.7-6.5
		c-0.2-1.6-0.8-3.2-1.8-4.5c-0.5-0.4-1-0.8-1.5-1.2c-0.5-0.4-1.1-0.7-1.8-0.8c-0.8,0-1.6,0.3-2.2,0.9c-2.9,2.6-3.3,7-1,10.1
		l-35.5-0.3c-3.7,0-7.6-0.2-11.3,0c1,1.8,0.2,3.7,0.4,5.6c-0.3,3.1,0.8,4.9,0.6,8.1c-0.3,6.3,0.8,12.4,1,18.6c0,0.2,0.3,0.4,0.4,0.6
		c0.5,0.7,0.2,2.1,0.4,2.9c1,4,2.3,8.6,4.8,11.9c1.5,2.1,3.4,4.1,5.8,5.1c2.6,1,6.2,0.4,9,0.5l10.2,0.3l30.9,0.8
		c0.9,0,1.8-0.1,2.7-0.4c-0.2,0-0.3,0-0.5-0.1C120.7,171.7,119.7,170.1,118.9,168.7z"/>
	<path class="st15" d="M126.3,168.8c0.8-2.4,0.8-6.2-0.8-8.2c-1.4-1.6-3.3-2.4-6.1-2.4l-4.2-0.1c0,0-0.3-0.7-0.7-1.8
		c0.2,0.9,0.4,1.9,0.7,2.8c0.9,3.3,2.2,6.5,3.8,9.6c0.8,1.5,1.8,3,3.4,3.4c0.2,0,0.3,0.1,0.5,0.1
		C124.4,171.6,125.7,170.4,126.3,168.8z"/>
	<path class="st17" d="M124,160c-1.6-1-3.7-0.4-4.7,1.2c-0.4,0.7-0.5,1.4-0.4,2.2c-0.8-0.2-1.6-0.3-2.4-0.3c0.7,1.9,1.5,3.8,2.5,5.6
		c0.8,1.5,1.8,3,3.4,3.4c0.2,0,0.3,0.1,0.5,0.1c1.6-0.5,2.9-1.8,3.4-3.4c0.7-2.1,0.7-4.4,0-6.6l-0.7-0.8
		C125.2,160.9,124.6,160.4,124,160z"/>
	<path class="st14" d="M119.3,158.2l-4.2-0.1c0,0-0.3-0.7-0.7-1.8c0.2,0.9,0.4,1.9,0.7,2.8c0.4,1.3,0.8,2.6,1.3,4
		c0.8,0,1.6,0.1,2.4,0.3c-0.3-1.9,1.1-3.6,3-3.9c0.8-0.1,1.5,0.1,2.2,0.5c0.6,0.4,1.2,0.9,1.7,1.5l0.7,0.8c-0.2-0.6-0.5-1.1-0.9-1.6
		C124,159,122.1,158.2,119.3,158.2z"/>
	<path d="M120.2,173.9c-0.1,0-0.2,0-0.2,0l-41.1-1c-0.8,0-1.6,0-2.6,0c-2.3,0.1-4.8,0.2-6.9-0.6c-2.9-1.1-4.9-3.5-6.4-5.5
		c-2.5-3.4-3.9-8-5-12.4c-0.1-0.4-0.1-0.9-0.1-1.4c0-0.3,0-0.9-0.1-1.1l-0.1-0.1c-0.2-0.2-0.6-0.7-0.6-1.3c-0.1-2.3-0.3-4.7-0.5-7
		c-0.3-3.8-0.7-7.7-0.5-11.6c0.1-1.4-0.1-2.5-0.3-3.7c-0.2-1.3-0.5-2.6-0.3-4.4c-0.1-0.7,0-1.4,0-2.1c0.1-0.8,0.1-1.6,0-2.3
		c-0.4,0-1-0.1-1.8-0.1c-0.6,0-1-0.1-1.1-0.1c-1.7,0-3.4-0.4-4.9-1.3c-3-2.1-3.4-6.2-2.9-9.4c0.2-2.5,2-4.6,4.4-5.2
		c0.9-0.5,1.9-0.4,2.7-0.4c0.2,0,0.4,0,0.7,0c9.3,0.2,18.1,0.5,27,0.8c7.7,0.2,15.5,0.5,23.5,0.7c1-0.1,2.1,0,3,0.4
		c1.7,0.2,3.3,1.2,4.1,2.8c0.2,0.3,0.4,0.6,0.6,1l0.1,0.1c1.1,1.5,1.8,3.2,2,5.1c0.1,1.6-0.1,3.1-0.4,4.6c-0.1,0.8-0.2,1.5-0.3,2.2
		c-0.4,3.2-0.5,6.4-0.5,9.5c0.1,2.6,0.1,5.2,0.1,7.5c0,1.4,0.3,2.8,0.6,4.2c0.2,0.9,0.4,1.8,0.5,2.7c0.2,1.4,0.5,2.7,0.8,4.1
		c0.3,1.2,0.6,2.4,0.8,3.7c0.2,1.2,0.5,2.3,0.9,3.5c0.1,0.4,0.2,0.7,0.3,1l3.4,0.1c3.1,0,5.4,0.9,7,2.8c0.3,0.3,0.5,0.6,0.7,1
		c0.3,0.6,0.5,1.2,0.7,1.8l0.1,0.4c0.1,0.2,0.1,0.5,0.1,0.8c0,0,0,0.1,0,0.2c0.1,0.7,0.1,1.4,0.1,2.1l0,0.5c0,0.1,0,0.1,0,0.2
		l-0.1,0.4c0,0.1,0,0.2-0.1,0.3c0,0,0,0.1,0,0.1c0,0.1,0,0.1,0,0.2c0,0.2-0.1,0.4-0.2,0.6c-0.1,0.3-0.1,0.5-0.2,0.8
		c-0.7,2-2.3,3.5-4.2,4.2C122.2,173.7,121.2,173.9,120.2,173.9z M78.4,170.4c0.2,0,0.4,0,0.6,0l10.2,0.3l30.9,0.8
		c0.8,0,1.5-0.1,2.2-0.3c1.3-0.4,2.2-1.4,2.7-2.6c0.1-0.2,0.1-0.5,0.2-0.7c0-0.1,0.1-0.2,0.1-0.3c0-0.1,0-0.3,0.1-0.4
		c0,0,0-0.1,0-0.1l0-0.3v-0.4c0-0.7,0-1.3-0.1-1.9c0-0.1,0-0.1,0-0.2c0,0,0-0.1,0-0.1c0-0.1,0-0.2-0.1-0.3l-0.1-0.4
		c-0.1-0.5-0.3-0.9-0.5-1.3c-0.1-0.2-0.2-0.4-0.4-0.5c-1.1-1.3-2.8-1.9-5.1-1.9l-4.3-0.1c-0.5,0-0.9-0.3-1.1-0.8
		c0,0-0.3-0.8-0.7-1.8c-0.4-1.2-0.8-2.5-1-3.8c-0.2-1.2-0.5-2.4-0.8-3.6c-0.3-1.4-0.7-2.8-0.9-4.3c-0.1-0.8-0.3-1.7-0.5-2.5
		c-0.3-1.5-0.7-3.1-0.7-4.8c0-2.3,0-4.8-0.1-7.4c0-3.3,0.2-6.6,0.5-9.8c0.1-0.8,0.2-1.5,0.3-2.3c0.2-1.4,0.4-2.7,0.3-4
		c-0.2-1.4-0.7-2.7-1.6-3.9c0,0,0-0.1-0.1-0.1l-0.1-0.2c-0.2-0.3-0.4-0.7-0.6-1.1c-0.5-0.9-1.3-1.5-2.3-1.5c-0.2,0-0.3,0-0.5-0.1
		c-0.6-0.3-1.3-0.4-1.9-0.3c-0.1,0-0.1,0-0.2,0c-8.1-0.2-15.8-0.5-23.6-0.7c-8.9-0.3-17.8-0.6-27-0.8c-0.2,0-0.5,0-0.8,0
		c-0.7,0-1.1-0.1-1.4,0.1c-0.1,0.1-0.2,0.1-0.4,0.2c-1.5,0.4-2.5,1.6-2.6,3.1c0,0,0,0.1,0,0.1c-0.4,2.3-0.1,5.6,1.8,6.9
		c1,0.6,2.3,0.9,3.5,0.9c0,0,0,0,0,0c0.1,0,0.7,0,1.3,0.1c0.8,0,2.2,0.1,2.5,0.1c0.5,0,0.9,0.3,1.2,0.7c0.8,1.5,0.6,3,0.5,4.2
		c-0.1,0.6-0.1,1.2,0,1.8c0,0.1,0,0.2,0,0.3c-0.1,1.4,0,2.5,0.3,3.8c0.2,1.2,0.4,2.5,0.4,4.2c-0.2,3.8,0.2,7.6,0.5,11.3
		c0.2,2.3,0.4,4.6,0.5,6.9c0.1,0.1,0.1,0.2,0.2,0.2c0.5,0.7,0.5,1.6,0.5,2.4c0,0.3,0,0.7,0.1,0.8c1,3.9,2.3,8.4,4.6,11.5
		c1.3,1.7,3,3.8,5.3,4.6c1.6,0.6,3.8,0.5,5.9,0.4C77,170.4,77.7,170.4,78.4,170.4z M126.5,167.6L126.5,167.6L126.5,167.6z
		 M59.8,150.5C59.8,150.6,59.8,150.6,59.8,150.5C59.8,150.6,59.8,150.6,59.8,150.5z"/>
	<path class="st18" d="M58.3,108.4c-2.9-1.6-5.2-6.2-3.5-8.8l0.1-0.1c1.4-1.8,3.4-3.1,5.7-3.6c2.5-0.8,5.3-0.5,7.7,0.6
		c1.3,0.7,2.1,2,2.3,3.4c0.1,1.8-0.4,3.7-1.4,5.2c-0.5,0.8-1.2,1.5-2,2C64.8,108.9,60.9,109.8,58.3,108.4z"/>
	<path d="M68.3,108.6c-2.9,2-7.6,3.1-10.9,1.3s-6.6-7.4-4.2-11.1l0.1-0.1c0.6-0.8,1.3-1.5,2.1-2.1c1.4-1,3-1.8,4.7-2.3
		c3-0.9,6.2-0.6,9.1,0.7l0.2,0.1c1.8,1,2.9,2.7,3.2,4.7c0.2,3.3-1.2,6.5-3.9,8.6L68.3,108.6z M56.9,98.2c-0.6,0.4-1.1,1-1.5,1.6
		l-0.1,0.1c-1.5,2.3,0.7,6.7,3.4,8.1c2.4,1.3,6,0.4,8.2-1.2l0.2-0.1c0.7-0.5,1.2-1.1,1.7-1.8c1-1.4,1.5-3.2,1.3-4.9
		c-0.1-1.3-0.9-2.4-2-3.1c-2.2-1.1-4.8-1.3-7.2-0.6C59.4,96.8,58.1,97.4,56.9,98.2z"/>
	<path d="M68,108.2c2.7-1.9,4.2-5.1,3.9-8.3c-0.2-1.8-1.3-3.5-2.9-4.3l-0.2-0.1c-2.7-1.3-5.8-1.5-8.6-0.7c-2.6,0.6-4.8,2.1-6.5,4.2
		c0,0,0,0.1-0.1,0.1c-2.2,3.4,0.9,8.7,4,10.4S65.2,110.1,68,108.2z M54.9,99.6c1.4-1.8,3.4-3.1,5.7-3.6c2.5-0.8,5.3-0.5,7.7,0.6
		c1.3,0.7,2.1,2,2.3,3.4c0.1,1.8-0.4,3.7-1.4,5.2c-0.5,0.8-1.2,1.5-2,2c-2.3,1.6-6.2,2.6-8.8,1.2C55.4,106.8,53.1,102.2,54.9,99.6
		L54.9,99.6z"/>
</g>
<g id="레이어_10">
	<path d="M173.2,40.1c0.4,0,0.9,0.2,1.1,0.5l0.3,0.4c0.6,0.7,0.5,1.6-0.2,2.2c0,0-0.1,0.1-0.1,0.1c-0.9,0.6-2,1.3-3.6,2.2
		c0.9,1.9,0.7,4.1-0.3,5.9c-1.3,2.2-3.9,3.5-5.5,4.1c-0.4,0.1-0.7,0.1-1.1,0.1c-0.3-2.3-0.1-4.7,0.5-6.9c-1.1,0.5-2.3,1-3.5,1.5
		c0.9,2,0.8,4.4-0.4,6.3c-1.4,2.2-4.2,3.4-5.8,4l-1.1,0.2c-0.1-0.9-0.3-5.6,1.3-8.1l-0.3,0.1c-1.3,0.5-2.6,0.9-4,1.3
		c0.2,0.7,0.8,4.1-1.5,6.6c-2,2.1-5.3,2.8-6.8,3c-0.1,0-0.1,0-0.2,0c-0.1,0-0.3,0-0.4-0.2c0.1-0.9,0.7-5.2,2.4-7.7l-3.4,0.9
		c0.1,0.7,0.4,4.4-2.2,6.7c-1.8,1.4-4,2.1-6.2,2.2c-0.5,0-1,0-1.4-0.1c0.2-0.9,1.1-5,3-7.3l-2.5,0.5c-0.5,2-2.2,3.4-4.2,3.8
		c-0.3,0-0.6,0.1-0.9,0.1c-2.3,0-5.2-1.3-6.9-2.1l-1.4-0.7c0,0,2.7-4.7,6.7-5.4c0.3-0.1,0.7-0.1,1-0.1c3.1,0,5.5,2.6,5.9,3.1
		l3.3-0.7c-3.2-0.7-6.6-6.8-6.6-6.8c1.5-0.5,3.1-0.8,4.6-0.8c1.2,0,2.3,0.2,3.4,0.6c3.2,1.4,4,5,4.1,5.7l3.8-0.8
		c-2.8-1.3-5.4-5.7-5.8-6.6c1-0.6,2.2-0.9,3.3-0.8c1.5,0,3,0.3,4.5,0.8c2.7,0.9,3.6,3.5,3.9,4.8c1.1-0.4,2.4-0.9,3.6-1.3
		c-2.4-1-4.5-2.4-6.4-4.2c0,0,3.4-2.3,6.6-2.3c0.4,0,0.8,0,1.2,0.1c2.1,0.4,3.9,1.8,4.9,3.7c1.2-0.6,2.3-1.2,3.5-1.8
		c-3-0.4-6.3-3-7-3.5c0.3-0.3,0.6-0.6,1-0.9c1.4-0.9,3.8-2.2,6.2-2.2h0.1c2.1,0.1,4.1,1.2,5.3,2.9c1-0.8,2-1.7,2.9-2.5
		C172.4,40.3,172.8,40.1,173.2,40.1 M173.2,38.6c-0.8,0-1.6,0.3-2.1,0.9c-0.6,0.5-1.1,1-1.7,1.6c-1.5-1.5-3.4-2.3-5.5-2.3h-0.1
		c-2.5,0.2-4.9,1-7,2.5c-0.5,0.3-0.9,0.7-1.3,1.2c-0.3,0.3-0.4,0.7-0.4,1.1c-0.3,0-0.7-0.1-1-0.1c-3.7,0-7.3,2.4-7.5,2.5
		c-0.1,0.1-0.2,0.2-0.4,0.3c-1.4-0.5-2.9-0.7-4.4-0.7c-1.5-0.1-3,0.3-4.2,1.1c-0.5,0.4-0.7,1-0.6,1.6l0,0c-1.3-0.5-2.6-0.8-4-0.8
		c-1.8,0-3.5,0.3-5.2,0.9c-0.4,0.2-0.7,0.5-0.9,0.9c-0.1,0.4-0.1,0.9,0.1,1.2c0.6,1,1.2,1.9,1.9,2.8c-1-0.5-2.1-0.7-3.2-0.7
		c-0.4,0-0.8,0-1.3,0.1c-4.6,0.8-7.6,5.9-7.8,6.1c-0.4,0.7-0.2,1.6,0.6,2.1c0,0,0,0,0,0l1.4,0.8c2,1,5,2.3,7.6,2.3
		c0.4,0,0.8,0,1.2-0.1c0.9-0.2,1.7-0.5,2.5-0.9c-0.2,0.6-0.4,1.3-0.5,2v0.1c-0.1,0.4,0,0.8,0.2,1.2c0.2,0.3,0.6,0.6,1,0.6
		c0.6,0.1,1.1,0.1,1.7,0.1c2.6-0.1,5.1-0.9,7.2-2.5c0.3-0.3,0.5-0.5,0.8-0.8c0,0.2,0.1,0.3,0.2,0.5c0.4,0.6,1,0.9,1.7,0.8
		c0.1,0,0.3,0,0.4,0c1.9-0.3,5.4-1,7.7-3.4c0.8-0.9,1.4-1.9,1.8-3.1c0,1,0,1.9,0,2.3c0,0.4,0.2,0.8,0.6,1.1c0.3,0.2,0.6,0.3,0.9,0.3
		c0.1,0,0.2,0,0.3,0l1.1-0.2l0.3-0.1c1.7-0.6,4.8-2,6.5-4.6c0.3-0.4,0.5-0.8,0.7-1.3c0.2,0.6,0.8,1.1,1.5,1l0,0
		c0.5,0,0.9-0.1,1.3-0.2c0.1,0,0.2-0.1,0.3-0.1c2.5-0.9,4.7-2.6,6.2-4.7c1.1-1.8,1.4-4,0.8-6c0.9-0.6,1.8-1.1,2.6-1.7
		c0.7-0.5,1.2-1.3,1.3-2.2c0.1-0.9-0.2-1.7-0.8-2.4l-0.3-0.4C174.9,39,174.1,38.6,173.2,38.6L173.2,38.6z M152.5,55.1L152.5,55.1
		c0,0.1,0,0.2,0,0.3C152.5,55.3,152.5,55.2,152.5,55.1L152.5,55.1z"/>
	<path d="M83.4,43.9c1.8,0.1,3.5,0.7,5,1.7l-0.1,0.1c-0.5,0.7-2.8,3.9-5.1,5.2l2.4,0.8h0.1c0.3-1,1.4-3.7,3.9-4.7
		c0.7-0.3,1.5-0.4,2.2-0.4c1.2,0,2.3,0.3,3.3,0.7l1,0.5c-0.4,0.7-2.6,4-4.8,5.5l1.7,0.5c1.2-1.2,2.8-1.9,4.5-2
		c0.5,0,0.9,0.1,1.3,0.2c3.4,1.1,5.2,6.1,5.2,6.1H104c-1.4,0.9-3,1.5-4.6,1.7c-0.5,0.1-0.9,0.1-1.4,0.1c-0.7,0-1.3-0.1-2-0.2
		c-1.9-0.7-3.3-2.6-3.3-4.6c-0.9-0.3-2-0.5-2.9-0.7c0.2,0.1,0.3,0.3,0.4,0.5c1.6,1.8,2.1,5.6,2.2,7.3l0.1,0.7c-4.3-0.5-6-2.9-6-2.9
		c-1.8-2.4-1.3-5.7-1.1-6.5c0,0,0.1-0.4,0.1-0.4c-1.1-0.3-2.4-0.7-3.6-1.1l0.1,0.1c1.5,2.5,1.6,7.7,1.6,8.6
		c-2.4-0.3-4.5-1.6-5.8-3.6c-1.6-2.3-0.8-6.1-0.6-6.7l0.5-1.3c0.2-0.6,1.3-4,3.9-4.8C82.3,44,82.8,43.9,83.4,43.9 M83.4,42.4
		L83.4,42.4c-0.7,0-1.4,0.1-2.1,0.3c-3.3,1.1-4.6,4.9-4.9,5.7l-0.5,1.2l-0.1,0.2c0,0-1.4,4.9,0.8,8c1.6,2.4,4.1,3.9,6.9,4.2h0.1
		c0.8,0,1.5-0.7,1.5-1.5v-0.2c0.1,0.1,0.2,0.3,0.3,0.4s2.2,3,7.1,3.5h0.2c0.8,0,1.5-0.6,1.5-1.5c0-0.1,0-0.1,0-0.2L94,61.9
		c-0.1-0.6-0.1-1.2-0.2-1.7c0.6,0.4,1.2,0.7,1.8,0.9h0.1c0.8,0.1,1.5,0.2,2.3,0.2c0.5,0,1,0,1.6-0.1c1.8-0.3,3.6-0.9,5.1-1.9l0.1,0
		c0.7-0.3,1-1.1,0.8-1.8c-0.1-0.2-2.1-5.7-6.2-7c-0.6-0.2-1.2-0.3-1.8-0.3c-0.5,0-0.9,0.1-1.4,0.2c0.5-0.7,0.9-1.3,1.2-1.8
		c0.4-0.7,0.2-1.6-0.5-2.1c0,0,0,0-0.1,0l-1-0.5l-0.1-0.1c-1.2-0.5-2.6-0.8-3.9-0.8c-0.7,0-1.3,0.1-2,0.2l0,0
		c-0.1-0.4-0.3-0.8-0.6-1C87.5,43.1,85.4,42.4,83.4,42.4L83.4,42.4z"/>
</g>
</svg>
