<?xml version="1.0" encoding="utf-8"?>
<!-- Generator: Adobe Illustrator 26.5.0, SVG Export Plug-In . SVG Version: 6.00 Build 0)  -->
<svg version="1.1" id="레이어_1" xmlns="http://www.w3.org/2000/svg" xmlns:xlink="http://www.w3.org/1999/xlink" x="0px"
	 y="0px" viewBox="0 0 135 255" style="enable-background:new 0 0 135 255;" xml:space="preserve">
<g>
	<g>
		<g>
			<g>
				<g>
					<g>
						<path style="fill:#FFFFFF;" d="M115.3,235.4c-6.8-10.9-6.2-13.1-8.5-21.4c-2-7.4-2.5-16.5-2.9-25.6c-0.2-5-8.3-6-12.1-4.1
							c-5,2.5-2.8,9.2-1.7,15.4c0.7,4,2.2,10.7,3.9,15.8c2.3,6.7,5.9,11.8,6.9,15.5c-3.8-0.3-7.6,1.4-10.8,3.7
							c-3.7,2.6-6.8,9.9-3.7,14.5c2.4,3.4,8.5,2.8,12,2.8c3.8,0.1,7.8,0.4,11.6-0.3c2.4-0.4,7-1.2,8.3-3.5c1.3-2.3-0.3-6.4-1.5-9.7
							C116.5,237,115.9,236.2,115.3,235.4z"/>
					</g>
					<g>
						<path d="M104.5,253.2c-1.2,0-2.4,0-3.5-0.1c-0.8,0-1.6,0-2.4-0.1c-0.5,0-1.1,0-1.6,0c-3.8,0-8.9,0.1-11.3-3.3
							c-1.4-2-1.8-4.5-1.4-7.2c0.6-3.5,2.7-7.1,5.3-8.9c3.4-2.4,6.6-3.7,9.7-3.9c-0.5-1.2-1.2-2.6-2-4.1c-1.5-2.8-3.1-6-4.4-9.7
							c-1.7-5-3.2-11.8-4-16c-0.1-0.9-0.3-1.7-0.5-2.6c-1.1-5.4-2.3-11.6,2.9-14.2c3.1-1.5,8-1.3,10.9,0.4c1.8,1.1,2.8,2.7,2.9,4.7
							c0.4,8.8,0.9,18.1,2.8,25.4c0.5,1.8,0.8,3.2,1.1,4.6c1.2,5,1.9,8,7.2,16.5c0,0,0,0,0,0c0.1,0.2,0.2,0.4,0.4,0.6
							c0.5,0.7,1,1.5,1.4,2.7c1.6,4.2,2.9,8.1,1.5,10.7c-1.6,2.8-6.5,3.7-9.1,4.1C108.5,253.1,106.5,253.2,104.5,253.2z M98.1,250.6
							c0.2,0,0.3,0,0.5,0c0.8,0,1.6,0,2.4,0.1c3,0.1,6.1,0.2,9-0.3c2-0.3,6.5-1.1,7.5-2.9c1-1.8-0.6-6.1-1.6-8.6
							c-0.4-0.9-0.8-1.6-1.2-2.2c-0.1-0.2-0.3-0.4-0.4-0.6l0,0c-5.5-8.8-6.3-12.1-7.5-17.2c-0.3-1.3-0.6-2.8-1.1-4.5
							c-2-7.6-2.6-16.9-2.9-25.9c0-1.1-0.6-2-1.7-2.7c-2.5-1.5-6.5-1.4-8.6-0.3c-3.3,1.6-2.8,5.4-1.6,11.5c0.2,0.9,0.3,1.8,0.5,2.6
							c0.7,4.1,2.2,10.7,3.9,15.6c1.2,3.6,2.8,6.6,4.2,9.4c1.2,2.4,2.3,4.4,2.8,6.2c0.1,0.4,0,0.8-0.2,1.1c-0.2,0.3-0.6,0.5-1,0.4
							c-3.1-0.2-6.4,0.9-10,3.4c-2,1.4-3.8,4.5-4.3,7.4c-0.3,1.5-0.3,3.6,0.9,5.4c1.7,2.4,6.1,2.3,9.3,2.3
							C97.4,250.6,97.8,250.6,98.1,250.6z"/>
					</g>
				</g>
			</g>
		</g>
		<g>
			<g>
				<g>
					<g>
						<path style="fill:#212121;" d="M106.9,214c-0.5,0.4-1,0.8-1.7,1.1c-2.9,1.3-7.6,1.7-11.1,0.4c2.6,8.4,4.2,8.6,6.7,14.5
							c-4.3-1.7-9.8,1.2-13,3.4c-3.7,2.6-6.4,12-3.2,16.6c2.4,3.4,11.8,3.7,15.4,3.8c3.8,0.1,7.5,0.3,11.3-0.4
							c2.4-0.4,7.2-1.9,8.5-4.3c1.8-3.2-0.6-6.6-3.6-14.2C113.2,227.7,109.7,223.9,106.9,214z"/>
					</g>
					<g>
						<path d="M105.2,255c-1.1,0-2.2,0-3.3-0.1c-0.7,0-1.3,0-2,0c-9.1-0.1-14.4-1.5-16.3-4.3c-1.5-2.2-2-5.3-1.4-8.9
							c0.7-4.1,2.6-7.7,4.9-9.3c2.1-1.5,6.9-4.5,11.6-4.1c-0.6-1.1-1.1-2-1.6-2.9c-1.2-2.2-2.5-4.4-4.2-9.6c-0.1-0.4,0-0.9,0.3-1.2
							c0.3-0.3,0.8-0.4,1.2-0.3c3.3,1.2,7.8,0.7,10.2-0.4c0.4-0.2,0.9-0.5,1.3-0.9c0.3-0.3,0.7-0.4,1.1-0.3c0.4,0.1,0.7,0.4,0.8,0.8
							c1.7,6,3.7,9.8,5.6,13.4c1.2,2.3,2.4,4.6,3.6,7.4c0.7,1.7,1.3,3.2,1.9,4.6c2.1,4.8,3.3,7.7,1.7,10.7c-2,3.6-9.3,4.8-9.3,4.9
							C109.3,254.9,107.2,255,105.2,255z M97.9,230.7c-3.9,0-8,2.7-9.4,3.7c-1.7,1.2-3.3,4.4-3.9,7.8c-0.5,2.9-0.2,5.5,1,7.1
							c0.8,1.1,3.7,3.1,14.4,3.2c0.7,0,1.3,0,2,0c3.1,0.1,6,0.1,9.1-0.4c2.5-0.4,6.7-1.9,7.7-3.7c1-1.9,0.2-4-1.8-8.5
							c-0.6-1.3-1.2-2.9-1.9-4.6c-1.1-2.7-2.2-4.9-3.4-7.2c-1.8-3.4-3.7-6.9-5.3-12.2c-0.2,0.1-0.3,0.2-0.5,0.2
							c-2.4,1-6.2,1.7-9.7,1c1.2,3.4,2.2,5.1,3.2,6.9c0.8,1.4,1.7,2.9,2.7,5.3c0.2,0.5,0.1,1-0.2,1.3c-0.3,0.4-0.9,0.5-1.3,0.3
							C99.6,230.8,98.8,230.7,97.9,230.7z"/>
					</g>
				</g>
			</g>
		</g>
	</g>
	<g>
		<g>
			<path style="fill:#152D66;" d="M88.2,198.7c0,0-2.1,20.8,6.7,30.5c0,0,10.6,3.6,20,0.5c0,0-10.8-22.5-7.9-35.9"/>
		</g>
		<g>
			<path d="M106.4,232.2c-6.4,0-11.5-1.7-11.9-1.8c-0.2-0.1-0.4-0.2-0.5-0.3c-9.1-9.9-7.1-30.6-7-31.4c0.1-0.7,0.7-1.2,1.3-1.1
				c0.7,0.1,1.1,0.7,1.1,1.3c0,0.2-1.9,20.1,6.2,29.3c1.6,0.5,9.9,2.8,17.7,0.8c-2.3-5.1-10-23.5-7.4-35.3c0.1-0.7,0.8-1.1,1.4-0.9
				c0.7,0.1,1.1,0.8,0.9,1.5c-2.8,12.8,7.7,34.8,7.8,35.1c0.2,0.3,0.2,0.7,0,1c-0.1,0.3-0.4,0.6-0.7,0.7
				C112.3,231.8,109.2,232.2,106.4,232.2z"/>
		</g>
	</g>
</g>
<g>
	<g>
		<g>
			<g>
				<g>
					<g>
						<path style="fill:#FFFFFF;" d="M61.2,167.7c2.2,0.5,7.3,5.6,6.8,7.8l-6.9,34.3l-6.2,1.5l-5.5-3.9l6.9-34.3
							C56.8,170.9,59,167.3,61.2,167.7"/>
					</g>
					<g>
						<path d="M54.9,212.6c-0.2,0-0.5-0.1-0.7-0.2l-5.5-3.9c-0.4-0.3-0.6-0.8-0.5-1.2l6.9-34.3c0.5-2.6,3.1-7,6.3-6.4l0,0
							c1.6,0.3,3.7,2.1,5.1,3.6c1.2,1.3,3.1,3.7,2.7,5.7l-6.9,34.3c-0.1,0.5-0.4,0.8-0.9,0.9l-6.2,1.5
							C55.1,212.6,55,212.6,54.9,212.6z M50.7,206.9l4.5,3.1l4.9-1.2l6.8-33.6c0.1-0.3-0.4-1.6-2.1-3.5c-1.5-1.6-3.1-2.7-3.8-2.9
							l0,0c-1.2-0.2-3,2.4-3.5,4.5L50.7,206.9z"/>
					</g>
				</g>
			</g>
		</g>
		<g>
			<g>
				<g>
					<g>
						<path style="fill-rule:evenodd;clip-rule:evenodd;fill:#212121;" d="M56.8,229.1l-0.8,9.7c0,2.4-3.8,4.4-6.2,4.4h-3H33.8
							c-4.1,0-9,0.6-12.1-2.9c-2.1-2.4-1.5-7.2-0.2-9.8c2.4-4.8,7.1-8.4,12.3-9.6c0,0,0,0,0,0c7.9-1.6,11.8,2.5,11.8,2.5l3.7-15.9
							c0,0,3.1,1.4,5.4,1.9c2.3,0.5,6.4,0.5,6.4,0.5L56.8,229.1z"/>
					</g>
					<g>
						<path d="M30.7,244.4c-3.5,0-7.2-0.4-9.8-3.4c-2.6-3-1.7-8.5-0.3-11.2c2.6-5.2,7.5-9,13.2-10.2c0,0,0.1,0,0.1,0
							c5.5-1.1,9.3,0.4,11.2,1.7l3.3-14c0.1-0.4,0.3-0.7,0.6-0.8c0.3-0.2,0.7-0.2,1,0c0,0,3,1.4,5.1,1.8c2.1,0.5,6.1,0.5,6.1,0.5
							c0.4,0,0.7,0.2,0.9,0.5c0.2,0.3,0.3,0.7,0.2,1L58,229.3l-0.8,9.6c-0.1,3.2-4.4,5.6-7.4,5.6H33.8c-0.5,0-1,0-1.5,0
							C31.8,244.4,31.2,244.4,30.7,244.4z M34.2,222c-4.9,1.1-9.2,4.4-11.5,9c-1.1,2.2-1.7,6.5,0,8.5c2.3,2.7,6,2.6,9.6,2.5
							c0.5,0,1,0,1.5,0h15.9c2,0,5-1.7,5-3.2c0,0,0-0.1,0-0.1l0.8-9.7c0-0.1,0-0.1,0-0.2l4-17.7c-1.4,0-3.6-0.2-5.1-0.5
							c-1.4-0.3-3.1-1-4.3-1.4l-3.3,14.4c-0.1,0.4-0.4,0.8-0.9,0.9c-0.4,0.1-0.9,0-1.2-0.3C44.7,224,41.2,220.6,34.2,222z"/>
					</g>
				</g>
			</g>
		</g>
	</g>
	<g>
		<g>
			<path style="fill:#152D66;" d="M49.4,192.3L41.3,221c0,0,8.5,9.4,15.3,10l9.3-32.6"/>
		</g>
		<g>
			<path d="M56.6,232.2c0,0-0.1,0-0.1,0c-7.2-0.7-15.7-10-16.1-10.4c-0.3-0.3-0.4-0.8-0.3-1.2l8.1-28.7c0.2-0.6,0.9-1,1.5-0.8
				c0.6,0.2,1,0.9,0.8,1.5l-7.9,28c1.7,1.8,7.9,7.8,13.1,9l9-31.6c0.2-0.6,0.9-1,1.5-0.8c0.6,0.2,1,0.9,0.8,1.5l-9.3,32.6
				C57.7,231.9,57.2,232.2,56.6,232.2z"/>
		</g>
	</g>
</g>
<g>
	<path style="fill:#152D66;" d="M133.5,148.7L133.5,148.7c-8.1,9.9-35.8,19.4-68.8,19c-32-0.4-40.1-10.9-40.6-11.5c0,0,0,0,0,0
		c-0.6-6.8-0.3-13.6,0.7-19.9c0.7-4.1,2.2-8.8,3.1-13.4c0,0,9.1,9.3,36.7,10c27.6,0.8,58.1-21.3,58.1-21.3
		c-0.2,5.2,2.1,10.2,3.9,14.9C129.4,134,132.5,141.1,133.5,148.7z"/>
</g>
<g>
	<path style="fill:#0099ED;" d="M132.2,60.1c2.1,13.1,0.7,26-4.3,38.1c-1.9,4.5-5,8.4-5.2,13.4c0,0-30.5,22.1-58.1,21.3
		c-27.6-0.8-36.7-10-36.7-10c0.4-2.3,0.7-4.6,0.6-6.8c9.7,3.9,20.6,6.3,30.4,6.4c1,0,3.1,0,3.1,0c20.2,0,33-2.7,42.9-17.2
		c5.4-7.8,6.4-19.5,5.6-27.9c-0.5-4.8-1.5-9.6-2.3-13.7C105,48.7,94.2,36.8,79.4,32C71.2,29.3,63.9,28,57.1,28
		c-8.7,0-16.7,2.1-24.4,6.4c-6.9,3.9-13,10.8-15.4,17.2c-2.1,5.9-3.6,16.6-3.9,18.9l0,0c0.2-5.8,1.1-11.5,2.8-17.4
		c3-10.5,9-21.9,17.9-28.3c11.5-8.2,26.3-14.1,40.3-13.3c0,0,0.1,0,0.3,0l4.2,0.2c0.2,0,0.3,0,0.3,0c14,0.8,28,8.4,38.5,18
		C125.8,37.3,130.4,49.3,132.2,60.1z"/>
</g>
<g>
	<path style="fill:#152D66;" d="M133,161.2c-3.2,16.8-15.5,31.6-31.8,36.7c-9.5,2.9-19.6,3.2-29.4,2.4c-16.8-1.4-31.9-5.8-41.9-23.7
		c-1.1-2.1-2.1-4.2-2.9-6.5c0.4,0.4,7.2,6.7,22.3,9.1C65,181.7,111.6,182.7,133,161.2z"/>
</g>
<path style="fill:#FFFFFF;" d="M110.5,77.5c-0.5-4.8-1.5-9.6-2.3-13.7C105,48.7,94.2,36.8,79.4,32C71.2,29.3,63.9,28,57.1,28
	c-8.7,0-16.7,2.1-24.4,6.4c-6.9,3.9-13,10.8-15.4,17.2c-2.1,5.9-3.6,16.6-3.9,18.9l0,0c-1.4,1.2-4.7,4.2-5.2,5.1
	c-3.4,5.8-4.1,12.3-2.3,18.8c2.2,7.8,8.1,14.6,16,18.7c2.1,1.1,4.3,2.1,6.6,3c9.7,3.9,20.6,6.3,30.4,6.4c1,0,3.1,0,3.1,0
	c20.2,0,33-2.7,42.9-17.2C110.3,97.5,111.3,85.8,110.5,77.5z M10.3,100.9c-0.6-0.1-4.7-6.8-4.2-14.9c0.7-6.3,2.7-9.8,4.7-11.6
	c0.8-0.7,1.7-0.2,2.6,1c1.8,2.3,3.4,7.4,3.2,12.4c-0.1,1.6-0.2,3.1-0.5,4.5C15.1,97.7,12.9,101.4,10.3,100.9z M30,81.8
	c-0.1,1.6-1.5,2.8-3.1,2.6c-1.6-0.2-2.8-1.6-2.7-3.1l0-0.4c0.1-1.6,1.5-2.7,3.1-2.6s2.8,1.6,2.7,3.1L30,81.8z M34.4,92.1
	c-1.5-0.1-2.6-1.1-2.5-2.2c0.1-1.1,1.4-1.8,2.9-1.7c1.5,0.1,2.6,1.1,2.5,2.2C37.2,91.5,35.9,92.3,34.4,92.1z M53,89.5
	c-1.8,0.3-3.5-0.8-3.8-2.5l-0.1-0.4c-0.3-1.6,1-3.2,2.8-3.5c1.8-0.3,3.5,0.8,3.8,2.5l0.1,0.4C56.1,87.7,54.8,89.3,53,89.5z
	 M85.9,103.2c-1.4,7.8-9,13-17,11.5c-8-1.4-13.4-9-12-16.8c1.4-7.8,9.1-13,17.1-11.5C81.9,87.9,87.3,95.4,85.9,103.2z"/>
<g>
	<g>
		<path d="M80.9,201.9c-2.9,0-6-0.1-9.2-0.4c-16-1.3-32.2-5.2-42.8-24.3c-1.2-2.1-2.2-4.3-3-6.7l2.3-0.8c0.8,2.2,1.7,4.4,2.8,6.3
			c10.1,18.1,25.6,21.8,40.9,23c11.4,0.9,20.8,0.2,28.9-2.3c15.5-4.8,27.7-18.8,31-35.7c0.2-1.1,0.4-2.2,0.5-3.4
			c0.3-2.8,0.3-5.7-0.1-8.8c-0.8-6.4-3.2-12.4-5.6-18.8c-0.4-1-0.8-2-1.2-3c-0.3-0.7-0.5-1.4-0.8-2.1c-1.7-4.2-3.4-8.6-3.2-13.3
			l2.4,0.1c-0.2,4.1,1.4,8.3,3,12.3c0.3,0.7,0.6,1.4,0.8,2.1c0.4,1,0.8,2,1.1,3c2.4,6.2,4.9,12.7,5.8,19.4c0.4,3.3,0.4,6.4,0.1,9.4
			c-0.1,1.2-0.3,2.3-0.6,3.5c-3.4,17.8-16.3,32.5-32.6,37.6C95.5,200.9,88.7,201.9,80.9,201.9z"/>
	</g>
	<g>
		<path d="M25.9,170.4c-1.5-4.3-2.5-9-3-14.1l2.4-0.2c0.5,4.9,1.4,9.4,2.9,13.5L25.9,170.4z"/>
	</g>
	<g>
		<path d="M22.9,156.3c-0.6-6.4-0.4-13.4,0.7-20.2c0.4-2.3,1-4.7,1.6-7.2c0.5-2,1.1-4.2,1.5-6.2c0.5-2.6,0.7-4.7,0.6-6.5l2.4-0.1
			c0.1,2-0.1,4.3-0.6,7.1c-0.4,2.1-1,4.3-1.5,6.4c-0.6,2.5-1.2,4.8-1.6,6.9c-1,6.6-1.3,13.4-0.7,19.6L22.9,156.3z"/>
	</g>
	<g>
		<path d="M123.9,111.7l-2.4-0.1c0.2-3.8,1.8-6.9,3.4-9.9c0.7-1.3,1.4-2.6,1.9-4c4.9-12,6.3-24.6,4.2-37.5
			c-2-12.4-7.2-23.2-14.1-29.5c-11.6-10.5-25.3-17-37.7-17.7l-4.5-0.3c-0.1,0-0.2,0-0.2,0c-12.5-0.8-26.9,4-39.6,13
			c-7.6,5.5-14,15.5-17.5,27.6c-1.7,5.9-2.6,11.5-2.8,17.1l-2.4-0.1c0.2-5.8,1.1-11.6,2.8-17.7c3.6-12.6,10.3-23.2,18.4-28.9
			c13.1-9.4,28.1-14.3,41.1-13.5c0,0,0.1,0,0.4,0l4.1,0.2c0.1,0,0.3,0,0.3,0c13,0.8,27.2,7.4,39.2,18.3c7.3,6.7,12.8,18,14.9,30.9
			c2.2,13.4,0.7,26.4-4.4,38.8c-0.6,1.4-1.3,2.8-2,4.2C125.5,105.8,124,108.5,123.9,111.7z"/>
	</g>
	<g>
		<path d="M62,123.7c0,0-2,0-3.1,0c-9.8-0.1-20.7-2.4-30.8-6.5c-2.2-0.9-4.5-1.9-6.7-3c-8.2-4.3-14.3-11.3-16.6-19.4
			c-2-6.8-1.1-13.7,2.4-19.7c0.2-0.3,0.7-1.1,5.1-5.1c0.6-4.1,2-13.3,3.9-18.7c2.4-6.7,8.8-13.9,15.9-17.9c7.9-4.4,16.1-6.5,25-6.5
			c6.9,0,14.3,1.3,22.6,4C95,35.7,106.1,48,109.3,63.5c0.9,4.3,1.8,9,2.3,13.8c0.9,8.6-0.2,20.6-5.8,28.7
			C95.6,120.9,82.5,123.7,62,123.7z M57.1,29.3c-8.5,0-16.3,2-23.8,6.2c-6.6,3.7-12.6,10.4-14.8,16.6c-1.9,5.4-3.3,14.8-3.9,18.6
			l-0.1,0.4l-0.4,0.4c-4.3,3.9-4.9,4.7-5,4.8c-3.2,5.5-3.9,11.6-2.1,17.8c2.2,7.5,7.8,14,15.4,18c2.1,1.1,4.3,2.1,6.5,3
			c9.6,3.9,20.5,6.2,29.9,6.3c1,0,3.1,0,3.1,0c19.8,0,32.3-2.7,41.9-16.6c5.2-7.6,6.2-18.9,5.4-27.1c-0.5-4.7-1.4-9.3-2.3-13.6
			c-3.1-14.7-13.5-26.2-28-30.9C71,30.5,63.8,29.3,57.1,29.3z"/>
	</g>
</g>
<g>
	<g>
		<path d="M66,134.2c-0.5,0-1,0-1.4,0c-27.8-0.8-37.1-10-37.5-10.4c-0.5-0.5-0.5-1.3,0-1.7c0.5-0.5,1.2-0.5,1.7,0
			c0.1,0.1,9.3,8.9,35.9,9.7c26.8,0.7,57-20.8,57.4-21.1c0.5-0.4,1.3-0.3,1.7,0.3c0.4,0.5,0.3,1.3-0.3,1.7c-0.1,0.1-7.8,5.6-18.9,11
			C94.7,128.5,80.1,134.2,66,134.2z"/>
	</g>
</g>
<g>
	<g>
		<g>
			<path style="fill:#0087C6;" d="M8.5,121.6c4.2,7.7,11.9,13.7,19.5,9.4c1.8-1,3.2-2.5,4.1-4.4c0.5-1.2,0.6-2.3,0.9-3.4
				c0.4-1.2,1-2.2,1-3.5c0-2-1-5.5-2.8-6.7c0.5-1.1,1.7-2,2.3-3.1c0.8-1.3,1.1-2.8,0.4-4.1c-0.9-1.9-3.9-2.6-5.8-2.4
				c-1.7,0.1-3.5,0.5-5,1.3c-2.2,1.1-6,6.3-8.2,2.9c-1.2-1.7-2.5-5.7-5.2-5.4c-2.9,0.3-4.2,3.6-4.5,6.1C4.7,112.1,6,117.2,8.5,121.6
				z"/>
		</g>
		<g>
			<path d="M22.7,133.7c-6.2,0-11.8-5.1-15.3-11.4l0,0c-2.7-4.8-3.9-10.1-3.4-14.1c0.5-4.1,2.6-6.8,5.5-7.2c2.9-0.3,4.5,2.6,5.5,4.6
				c0.3,0.5,0.5,1,0.7,1.3c0.4,0.5,0.6,0.6,0.7,0.6c0.9,0.1,2.5-1.2,3.6-2.2c0.8-0.7,1.6-1.4,2.3-1.7c1.6-0.8,3.5-1.3,5.5-1.4
				c1.8-0.1,5.7,0.4,7,3.1c0.8,1.6,0.6,3.5-0.5,5.3c-0.3,0.6-0.8,1-1.2,1.5c-0.2,0.2-0.4,0.5-0.6,0.7c1.7,1.8,2.4,5,2.4,6.9
				c0,1.2-0.3,2.1-0.7,2.9c-0.1,0.3-0.3,0.7-0.4,1c-0.1,0.4-0.2,0.8-0.3,1.2c-0.2,0.8-0.3,1.6-0.7,2.4c-1,2.1-2.6,3.8-4.6,4.9
				C26.6,133.2,24.6,133.7,22.7,133.7z M9.9,103.4c0,0-0.1,0-0.1,0c-2.6,0.3-3.3,3.9-3.4,5.1c-0.5,3.5,0.7,8.2,3.1,12.5l0,0
				c5.9,10.7,13.3,11.5,17.9,8.9c1.5-0.9,2.8-2.2,3.6-3.8c0.3-0.6,0.4-1.2,0.5-1.9c0.1-0.5,0.2-0.9,0.3-1.4c0.1-0.4,0.3-0.8,0.4-1.2
				c0.3-0.7,0.5-1.3,0.5-2c0-2-1-4.9-2.2-5.7l-0.9-0.5l0.4-0.9c0.3-0.9,1-1.5,1.5-2.1c0.3-0.4,0.7-0.7,0.9-1.1
				c0.5-0.8,0.9-1.9,0.4-3c-0.6-1.2-2.9-1.9-4.7-1.7c-1.6,0.1-3.2,0.5-4.6,1.2c-0.5,0.2-1.1,0.8-1.9,1.4c-1.7,1.4-3.6,3-5.5,2.7
				c-1-0.1-1.8-0.7-2.4-1.6c-0.3-0.4-0.6-0.9-0.9-1.5C12.1,105.3,11.1,103.4,9.9,103.4z"/>
		</g>
	</g>
</g>
<g>
	<g>
		<path style="fill:#152D66;" d="M44.4,130.4c0,0-4.6,5.5,0,36.1"/>
	</g>
	<g>
		<path d="M43.2,166.7c-4.5-30.3-0.2-36.5,0.3-37.1l1.9,1.5c0,0.1-4.1,6.1,0.2,35.2L43.2,166.7z"/>
	</g>
</g>
<g>
	<g>
		<path style="fill:#152D66;" d="M56.6,132.5c0,0-4.1,10.5,0,35.2"/>
	</g>
	<g>
		<path d="M55.5,167.9c-4.1-24.8-0.1-35.5,0.1-35.9l2.2,0.9c0,0.1-3.9,10.6,0.1,34.6L55.5,167.9z"/>
	</g>
</g>
<g>
	<g>
		<path style="fill:#687DB0;" d="M133.5,148.7c0.4,2.9,0.4,6,0.1,9.1c-0.1,1.2-0.3,2.3-0.6,3.4c-21.4,21.5-68,20.5-83.6,18
			c-15.1-2.4-21.9-8.7-22.3-9.1c0,0,0,0,0,0c-1.5-4.4-2.5-9.1-2.9-13.8c0.4,0.6,8.5,11.1,40.6,11.5
			C97.7,168.1,125.3,158.6,133.5,148.7L133.5,148.7z"/>
	</g>
	<g>
		<g>
			<path d="M66.6,168.9c-0.6,0-1.3,0-1.9,0c-33.2-0.4-41.2-11.6-41.6-12c-0.4-0.6-0.2-1.3,0.3-1.7c0.5-0.4,1.3-0.2,1.7,0.3
				c0,0,2,2.7,7.7,5.3c5.4,2.5,15.3,5.5,31.9,5.7c25.6,0.3,58-6.6,67.8-18.6c0.4-0.5,1.2-0.6,1.7-0.2c0.5,0.4,0.6,1.2,0.2,1.7
				C126.6,159,100.3,168.9,66.6,168.9z"/>
		</g>
	</g>
	<g>
		<g>
			<path d="M68.4,181.7c-7.6,0-14.3-0.5-19.2-1.3c-15.8-2.5-22.7-9.2-23-9.5c-0.5-0.5-0.5-1.2,0-1.7c0.5-0.5,1.2-0.5,1.7,0l0,0
				c0.1,0.1,6.7,6.4,21.7,8.8c18.3,2.9,62.5,2.5,82.6-17.6c0.5-0.5,1.2-0.5,1.7,0c0.5,0.5,0.5,1.3,0,1.7
				C118.5,177.4,89.8,181.7,68.4,181.7z"/>
		</g>
	</g>
</g>
<g>
	<g>
		<path style="fill:#FFB9B5;" d="M73.9,86.4c8,1.5,13.4,9,12,16.8c-1.4,7.8-9,13-17,11.5c-8-1.4-13.4-9-12-16.8
			C58.3,90.1,65.9,85,73.9,86.4z"/>
	</g>
	<g>
		<path d="M55.8,86.1c0.3,1.6-1,3.2-2.8,3.5c-1.8,0.3-3.5-0.8-3.8-2.5l-0.1-0.4c-0.3-1.6,1-3.2,2.8-3.5c1.8-0.3,3.5,0.8,3.8,2.5
			L55.8,86.1z"/>
	</g>
	<g>
		<path d="M34.8,88.2c1.5,0.1,2.6,1.1,2.5,2.2c-0.1,1.1-1.4,1.8-2.9,1.7c-1.5-0.1-2.6-1.1-2.5-2.2C32,88.8,33.3,88.1,34.8,88.2z"/>
	</g>
	<g>
		<path d="M27.3,78.3c1.6,0.1,2.8,1.6,2.7,3.1l0,0.4c-0.1,1.6-1.5,2.8-3.1,2.6c-1.6-0.2-2.8-1.6-2.7-3.1l0-0.4
			C24.2,79.3,25.6,78.1,27.3,78.3z"/>
	</g>
	<g>
		<path style="fill:#FFB9B5;" d="M13.4,75.4c1.8,2.3,3.4,7.4,3.2,12.4c-0.1,1.6-0.2,3.1-0.5,4.5C14.5,86.7,13.6,81,13.4,75.4z"/>
	</g>
	<g>
		<path style="fill:#FFB9B5;" d="M13.4,75.4c0.2,5.6,1.1,11.2,2.7,16.9c-1,5.3-3.2,9-5.8,8.6c-0.6-0.1-4.7-6.8-4.2-14.9
			c0.7-6.3,2.7-9.8,4.7-11.6C11.5,73.8,12.5,74.2,13.4,75.4z"/>
	</g>
	<g>
		<path d="M40.1,103.5c-3.7,0-5.8-2-6.9-3.8c-2.1,2-5.1,1.5-6.6,0.8c-0.5-0.2-0.7-0.8-0.5-1.3c0.2-0.5,0.8-0.7,1.3-0.5
			c0.4,0.2,3.6,1.5,5.2-1.5c0.2-0.4,0.6-0.6,1-0.5c0.4,0.1,0.7,0.4,0.8,0.8c0,0.2,1,4,5.6,4c0.6,0,1,0.5,1,1
			C41.1,103,40.7,103.5,40.1,103.5z"/>
	</g>
</g>
<g>
	<g>
		<g>
			<polygon style="fill:#EDAA00;" points="22.8,119 41.5,171.9 82.1,174.1 69.2,119.6 			"/>
		</g>
		<g>
			<path d="M82.1,175.4C82.1,175.4,82.1,175.4,82.1,175.4l-40.7-2.3c-0.5,0-0.9-0.3-1.1-0.8l-18.7-52.8c-0.1-0.4-0.1-0.8,0.2-1.1
				c0.2-0.3,0.6-0.5,1-0.5l46.4,0.6c0.6,0,1,0.4,1.2,0.9l12.9,54.5c0.1,0.4,0,0.8-0.2,1.1C82.8,175.2,82.5,175.4,82.1,175.4z
				 M42.4,170.7l38.2,2.1l-12.3-52l-43.7-0.6L42.4,170.7z"/>
		</g>
	</g>
	<g>
		<g>
			<polygon style="fill:#C4C4C4;" points="37.3,119.2 39.4,125.9 55.6,126.6 54.5,119.4 			"/>
		</g>
		<g>
			<path d="M55.6,127.8C55.6,127.8,55.6,127.8,55.6,127.8l-16.3-0.7c-0.5,0-0.9-0.4-1.1-0.8l-2.1-6.7c-0.1-0.4-0.1-0.8,0.2-1.1
				c0.2-0.3,0.6-0.5,1-0.5c0,0,0,0,0,0l17.3,0.2c0.6,0,1.1,0.4,1.2,1l1.1,7.2c0.1,0.4-0.1,0.7-0.3,1
				C56.3,127.7,55.9,127.8,55.6,127.8z M40.3,124.7l13.9,0.6l-0.7-4.7l-14.6-0.2L40.3,124.7z"/>
		</g>
	</g>
</g>
<g>
	<g>
		<g>
			<g>
				<g>
					<g>
						<path style="fill:#D5E4EA;" d="M77.3,166l-29.5-21.8c-0.8-0.7-1.2-1.7-1-2.8c0.7-3.8-0.6-7.9-3.8-10.5c-3-2.4-6.8-3-10.2-1.8
							c-0.8,0.3-0.9,1.3-0.3,1.8l7.6,6.2c0.6,0.5,0.8,1.5,0.2,2.1l-3.3,4.2c-0.5,0.7-1.5,0.8-2.1,0.2l-7.6-6.2
							c-0.6-0.5-1.6-0.1-1.7,0.7c-0.4,3.6,1,7.2,4,9.7c3.2,2.6,7.4,3,11,1.5c1-0.4,2.1-0.3,2.9,0.4l27.5,24.4"/>
					</g>
				</g>
			</g>
		</g>
		<g>
			<g>
				<g>
					<g>
						<path style="fill:#A4B6C1;" d="M73.5,170.7L45,147.6c-0.8-0.7-1.9-0.8-2.9-0.4c-3.5,1.5-7.7,1.1-10.9-1.5
							c-2.6-2.1-4-5.2-4-8.3c-0.6-0.4-1.5,0-1.6,0.8c-0.4,3.6,1,7.2,4,9.6c3.2,2.6,7.4,3,11,1.5c1-0.4,2.1-0.3,2.9,0.4l27.5,24.4"/>
					</g>
				</g>
			</g>
		</g>
	</g>
	<g>
		<g>
			<g>
				<path d="M36.3,128.5c2.3,0,4.7,0.8,6.7,2.4c3.2,2.6,4.5,6.7,3.8,10.5c-0.2,1,0.2,2.1,1,2.8l27.7,20.6c0.9,0.7,1.1,2.1,0.4,3
					l-3.7,4.7c-0.4,0.5-1,0.8-1.6,0.8c-0.5,0-1-0.2-1.4-0.5l-25.9-22.9c-0.4-0.3-0.9-0.5-1.4-0.6c-0.1,0-0.2,0-0.4,0c0,0,0,0,0,0
					c-0.3,0-0.5,0-0.8,0.1c-0.1,0-0.2,0.1-0.4,0.1c-1.4,0.6-2.8,0.9-4.3,0.9c-2.3,0-4.7-0.8-6.7-2.4c-3-2.4-4.3-6.1-4-9.6
					c0-0.1,0-0.2,0.1-0.3c0,0,0-0.1,0-0.1c0-0.1,0.1-0.1,0.1-0.2c0,0,0.1-0.1,0.1-0.1c0,0,0.1-0.1,0.1-0.1c0,0,0.1,0,0.1-0.1
					c0,0,0.1-0.1,0.1-0.1c0,0,0.1,0,0.1,0c0,0,0.1,0,0.1,0c0,0,0.1,0,0.1,0c0,0,0.1,0,0.1,0c0,0,0,0,0.1,0c0,0,0.1,0,0.1,0
					c0,0,0.1,0,0.1,0c0,0,0.1,0,0.1,0.1c0,0,0,0,0.1,0c0,0,0,0,0,0c0,0,0.1,0,0.1,0.1l7.6,6.2c0.3,0.2,0.6,0.3,0.9,0.3
					c0.4,0,0.9-0.2,1.2-0.6l3.3-4.2c0.5-0.7,0.4-1.6-0.2-2.1l-7.6-6.2c-0.6-0.5-0.5-1.6,0.3-1.8C33.9,128.7,35.1,128.5,36.3,128.5
					 M36.3,126.1L36.3,126.1c-1.4,0-2.9,0.2-4.2,0.7c-1.2,0.4-2.1,1.4-2.3,2.7c-0.2,1.3,0.3,2.6,1.2,3.4l6.9,5.6l-2.2,2.8l-6.9-5.6
					c-0.1-0.1-0.1-0.1-0.2-0.2c0,0-0.1-0.1-0.2-0.1c-0.1-0.1-0.2-0.1-0.3-0.2c-0.1-0.1-0.2-0.1-0.3-0.1c-0.1-0.1-0.3-0.1-0.4-0.1
					c-0.1,0-0.3-0.1-0.4-0.1c-0.1,0-0.2,0-0.2,0c-0.1,0-0.1,0-0.2,0c-0.1,0-0.3,0-0.4,0c-0.1,0-0.3,0.1-0.4,0.1
					c-0.2,0-0.3,0.1-0.4,0.1c-0.1,0.1-0.3,0.1-0.4,0.2c-0.1,0.1-0.2,0.1-0.3,0.2c-0.2,0.1-0.3,0.3-0.4,0.3c-0.1,0.1-0.2,0.2-0.3,0.3
					c-0.1,0.2-0.2,0.4-0.3,0.5c0,0.1-0.1,0.2-0.2,0.3c-0.1,0.3-0.2,0.6-0.2,0.9c-0.5,4.5,1.3,8.9,4.9,11.8c2.3,1.9,5.2,2.9,8.2,2.9
					c1.8,0,3.6-0.4,5.2-1.1c0,0,0,0,0.1,0c0,0,0.1,0,0.1,0c0,0,0,0,0.1,0c0.1,0,0.1,0,0.2,0.1l25.8,22.9c0.8,0.7,1.9,1.1,2.9,1.1
					c1.4,0,2.6-0.6,3.5-1.7l3.7-4.7c0.8-1,1.1-2.2,0.9-3.4c-0.2-1.2-0.8-2.3-1.8-3.1l-27.7-20.5c-0.1-0.1-0.1-0.2-0.1-0.4
					c0.9-4.9-0.9-9.8-4.7-12.9C42.1,127.1,39.2,126.1,36.3,126.1L36.3,126.1z"/>
			</g>
		</g>
	</g>
</g>
<g>
	<g>
		<g>
			<path style="fill:#152D66;" d="M17.9,49c0,0,3.7-32.8,13.2-37C40.8,7.7,61.4-1.5,77.5,2c11.7,2.5,24,5.1,34.1,11.8
				c6.6,4.4,13.1,10.7,15.8,18.2c1.7,4.9,5.6,22.4,5.6,22.4s-10.8,5.1-15.5,6.7c-3.9,1.3-9.2,3.4-13.3,2.4
				C104.1,63.3,17.9,49,17.9,49z"/>
		</g>
		<g>
			<path d="M106.6,64.9c-0.9,0-1.8-0.1-2.7-0.3c-0.8-0.1-85.3-14.2-86.1-14.4L16.6,50l0.1-1.2c0.4-3.4,4-33.7,14-38l0.4-0.2
				c9.9-4.3,30.4-13.4,46.7-9.9l0.5,0.1c11.7,2.5,23.8,5.1,34,11.9c4.7,3.1,13.1,9.7,16.3,18.8c1.7,4.9,5.5,21.8,5.7,22.5l0.2,1
				l-0.9,0.4c-0.4,0.2-10.9,5.1-15.6,6.7c-0.4,0.1-0.9,0.3-1.3,0.4C113.6,63.6,110,64.9,106.6,64.9z M19.3,48
				c85,14.2,85.1,14.2,85.2,14.2c3.4,0.8,7.8-0.7,11.4-1.9c0.5-0.2,0.9-0.3,1.3-0.4c3.8-1.3,11.8-5,14.5-6.2
				c-0.8-3.7-3.9-17.2-5.4-21.3c-3-8.4-10.9-14.6-15.3-17.6c-9.8-6.5-21.7-9.1-33.2-11.5l-0.5-0.1C61.8-0.1,41.7,8.7,32,12.9
				l-0.4,0.2C24.6,16.1,20.5,38.3,19.3,48z"/>
		</g>
	</g>
	<g>
		<g>
			<path style="fill:#152D66;" d="M20.9,43.9L2.2,63.3c0,0-2.8,5.3,1.3,3.9c11.6-3.8,18.6-5.7,38.9-1.1c17,3.9,24.3,15.8,32.5,15.3
				c8.2-0.5,29.3-18.1,29.3-18.1s-3.8-18.8-46.8-27.1C57.3,36.2,35.8,33.8,20.9,43.9z"/>
		</g>
		<g>
			<path d="M74.4,82.7c-4,0-7.6-2.5-12.2-5.6c-5-3.4-11.3-7.7-20.1-9.8c-19.8-4.5-26.4-2.8-38.3,1.1c-1.5,0.5-2.7,0.3-3.3-0.5
				c-1.2-1.5,0-4.1,0.6-5.2l0.2-0.3l19-19.6c15-10.2,36.3-8,37.2-7.9c43.4,8.4,47.7,27.3,47.9,28.1l0.1,0.7l-0.6,0.5
				c-0.9,0.7-21.6,17.9-30,18.4C74.7,82.7,74.6,82.7,74.4,82.7z M22.7,62.2c5.2,0,11.4,0.8,19.9,2.8c9.3,2.1,15.7,6.6,20.9,10.1
				c4.4,3,7.8,5.4,11.2,5.2c6.1-0.3,21.7-12.2,28-17.3c-1.2-3.3-8.7-18.4-45.7-25.5c-0.1,0-21.1-2.2-35.4,7.4L3.1,64.1
				c-0.4,0.8-0.7,1.7-0.7,2.2c0.1,0,0.4-0.1,0.7-0.2C10.1,63.8,15.4,62.2,22.7,62.2z"/>
		</g>
	</g>
	<g>
		<g>
			<path style="fill-rule:evenodd;clip-rule:evenodd;fill:#CFCFCF;" d="M55.6,15.3c-0.1,0-0.2,0-0.3,0c-1.8-0.1-2.3,0.7-2.7,1.8
				c-0.5,1.3-0.8,2.6-1,3.9c-0.4,2-0.7,4.1-0.2,6.2c0.2,0.8,0.4,2.2,1.2,2.9c0.9,0.7,2.5,0.8,3.7,0.9c1.3,0.2,2.6,0.6,3.9,0.8
				c1.3,0.2,2.7,0.2,3.8-0.3c1.1-0.5,1.6-1.7,0.8-2.6c-0.3-0.3-0.3-0.7-0.8-1c-0.3-0.2-0.7-0.2-1.1-0.3c-1.4-0.2-2.9-0.4-4.3-0.6
				c-0.2,0-0.4-0.1-0.5-0.2c-0.1-0.1-0.1-0.3-0.1-0.5c0-0.3,0.1-0.6,0.1-0.9c0-0.1,0-0.2,0.1-0.2c0.1,0,0.2,0,0.3,0
				c1.5,0.2,3.1,0.4,4.7,0.4c0.3,0,0.6,0,0.8-0.1c0.3-0.1,0.4-0.4,0.5-0.6c0.2-0.6,0.2-1.2,0.1-1.8c0-0.2-0.1-0.3-0.2-0.5
				c-0.2-0.1-0.4-0.2-0.6-0.2c-1.3-0.3-2.6-0.6-3.9-0.8c0-0.6-0.2-1.5,0.7-1.7c1-0.2,2.8,0.3,3.8,0.4c0.4,0,0.7,0.1,1,0
				c0.3-0.1,0.5-2.1,0.4-2.4c-0.2-0.6-1-1.2-1.7-1.5c-0.8-0.3-1.6-0.5-2.5-0.7C59.4,15.6,57.5,15.4,55.6,15.3z"/>
		</g>
		<g>
			<path d="M61.7,33.2c-0.6,0-1.2-0.1-1.8-0.2c-0.6-0.1-1.2-0.2-1.8-0.4c-0.7-0.2-1.4-0.3-2.1-0.4c-0.2,0-0.4,0-0.7-0.1
				c-1.2-0.1-2.6-0.3-3.6-1.1c-1-0.9-1.3-2.4-1.5-3.4l0-0.2c-0.5-2.3-0.2-4.5,0.2-6.6c0.2-1.3,0.6-2.7,1.1-4.1
				c0.5-1.4,1.4-2.7,3.9-2.6l0.3,0c2,0.1,3.9,0.3,5.9,0.6c0.9,0.1,1.8,0.3,2.8,0.7c0.5,0.2,2,1,2.4,2.3c0.2,0.6,0,2.5-0.4,3.2
				c-0.3,0.4-0.6,0.6-0.9,0.7c-0.2,0.1-0.4,0.1-0.6,0.1c0,0,0.1,0.1,0.1,0.1c0.5,0.4,0.6,1,0.6,1.2c0.2,0.8,0.1,1.6-0.1,2.4
				c-0.2,0.7-0.6,1.1-1.1,1.4c0,0,0,0-0.1,0c0.1,0,0.1,0,0.1,0.1c0.6,0.3,0.9,0.8,1.1,1.1c0,0.1,0.1,0.1,0.1,0.2
				c0.6,0.6,0.8,1.4,0.7,2.2c-0.2,1-0.9,1.8-1.8,2.3C63.7,33,62.7,33.2,61.7,33.2z M55.1,16.5c-0.9,0-1,0.3-1.3,1
				c-0.5,1.2-0.7,2.5-1,3.7c-0.3,1.9-0.6,3.8-0.2,5.7l0,0.2c0.1,0.6,0.3,1.7,0.7,2c0.4,0.4,1.5,0.5,2.3,0.5c0.3,0,0.5,0,0.7,0.1
				c0.8,0.1,1.5,0.3,2.3,0.4c0.6,0.1,1.1,0.3,1.7,0.3c1.3,0.2,2.4,0.2,3.1-0.2c0.3-0.1,0.5-0.4,0.5-0.5c0,0,0-0.1,0-0.1
				c-0.2-0.2-0.3-0.4-0.4-0.6c0,0-0.1-0.1-0.1-0.1c-0.1,0-0.4-0.1-0.7-0.1l-4.3-0.6c-0.3,0-0.7-0.1-1.2-0.5
				c-0.4-0.4-0.6-0.9-0.5-1.5l0.1-0.9c0.1-0.7,0.5-1,0.7-1.2c0.4-0.2,0.9-0.2,1.1-0.1c1.5,0.2,3,0.4,4.5,0.4c0,0,0.1,0,0.1,0
				c0.1-0.3,0.1-0.5,0.1-0.8c-1.3-0.3-2.6-0.6-3.8-0.8c-0.6-0.1-1-0.6-1-1.1l0-0.2c-0.1-1.6,0.4-2.5,1.7-2.7c0.9-0.2,2.1,0,3.1,0.2
				c0.4,0.1,0.7,0.1,1,0.2c0,0,0,0,0.1,0c0-0.3,0.1-0.7,0.1-0.9c-0.1-0.1-0.5-0.5-1-0.7c-0.7-0.3-1.5-0.4-2.2-0.6
				c-1.8-0.3-3.7-0.5-5.6-0.6c0,0,0,0,0,0l-0.3,0C55.2,16.6,55.1,16.5,55.1,16.5z"/>
		</g>
	</g>
</g>
<g>
	<g>
		<g>
			<g>
				<g>
					<g>
						<g>
							<path style="fill:#FFFFFF;" d="M93.7,163c-1.3-3.7-3.8-9.2-8.1-14.5l-0.8-0.9l1-0.7c4.2-2.8,7.2-6.8,10.4-11.1
								c1.9-2.6,3.9-5.2,6.1-7.6c1.6-1.7,4.6-4.7,7.8-6.6c2.6-1.5,4.9-2,6.7-1.4c1.4,0.5,2.5,1.6,3.2,3.2c1.3,3,0.1,6.7-1.3,9.9
								c-2.5,5.8-6.8,12.9-10.4,17.3c-4.1,4.9-7.6,9.2-13.1,13l-1.1,0.8L93.7,163z"/>
						</g>
					</g>
				</g>
			</g>
			<g>
				<g>
					<g>
						<g>
							<path style="fill:#0087C6;" d="M90.8,166.4c-1.2,0.7-2.3,1.3-3.5,2c-7.4,3.9-17,8.3-26.5,8.8c-5.1,0.3-9.8-2.2-12.3-6.5
								c-0.5-0.9-1-1.9-1.3-2.8c-1.3-3.7-0.7-7.5,1.6-9.7c0.4-0.4,0.8-0.7,1.3-1l0.3-0.2c2-1.1,4.3-1.1,6.5-1.2c0.6,0,1.2,0,1.8-0.1
								l0.3,0c2.6-0.1,5.1-0.4,7.6-0.9c3.4-0.6,6.7-1.6,10-3c1.6-0.7,3.2-1.4,4.9-2.3c0.6-0.3,1.2-0.6,1.7-1l0,0
								c0.9-0.5,1.7-1,2.5-1.6l0.8-0.5l0.6,0.7c4.5,5.5,7.1,11.3,8.5,15.1L96,163l-0.7,0.5C93.8,164.5,92.3,165.5,90.8,166.4z"/>
						</g>
					</g>
				</g>
			</g>
		</g>
		<g>
			<g>
				<path d="M60,178.4c-5.2,0-10-2.7-12.6-7.1c-0.6-1-1.1-2-1.4-3c-1.4-4.2-0.7-8.4,1.8-11c0.5-0.5,1-0.9,1.6-1.2l0.3-0.2
					c2.3-1.2,4.8-1.3,7.1-1.3c0.6,0,1.2,0,1.8-0.1l0.3,0c2.6-0.1,5-0.4,7.5-0.9c3.4-0.6,6.5-1.6,9.7-2.9c1.6-0.7,3.2-1.4,4.8-2.3
					c0.6-0.3,1.1-0.6,1.7-0.9c0.8-0.5,1.6-1,2.5-1.6c4-2.7,7-6.6,10.1-10.8c1.9-2.6,3.9-5.3,6.2-7.7c1.6-1.7,4.8-4.9,8.1-6.8
					c2.9-1.7,5.5-2.3,7.6-1.6c1.8,0.6,3.1,1.9,4,3.9l0,0c1.5,3.4,0.2,7.4-1.3,10.8c-2.5,5.9-6.9,13.2-10.6,17.6
					c-3.6,4.4-7.1,8.5-11.9,12.1l0,0l-3.9,2.7l0-0.1c-0.7,0.5-1.4,0.9-2.2,1.4c-1.2,0.7-2.4,1.4-3.6,2c-7.5,3.9-17.3,8.5-27,9
					C60.5,178.4,60.3,178.4,60,178.4z M115.3,121.1c-1.3,0-2.8,0.5-4.5,1.5c-3.1,1.8-6.1,4.8-7.6,6.4c-2.2,2.4-4.2,5-6,7.5
					c-3.2,4.4-6.3,8.5-10.7,11.4c-0.9,0.6-1.8,1.1-2.6,1.6c-0.6,0.3-1.2,0.7-1.8,1c-1.7,0.9-3.4,1.7-5,2.4
					c-3.4,1.4-6.7,2.4-10.2,3.1c-2.6,0.5-5.1,0.8-7.8,0.9l-0.3,0c-0.6,0-1.2,0.1-1.9,0.1c-2.2,0-4.2,0.1-6,1l-0.3,0.2
					c-0.4,0.2-0.8,0.5-1.1,0.8c-1.9,1.9-2.4,5.2-1.3,8.5c0.3,0.8,0.7,1.7,1.2,2.5c2.3,3.9,6.6,6.2,11.2,5.9c9.3-0.5,18.8-4.9,26-8.7
					c1.2-0.6,2.3-1.3,3.5-1.9c1.1-0.7,2.3-1.4,3.4-2.1l1.3-0.8l0,0l0.5-0.4c5-3.6,8.4-7.6,12.2-12.3c3.6-4.3,7.7-11.3,10.2-17
					c1.3-3,2.4-6.3,1.3-8.9l0,0c-0.6-1.4-1.4-2.2-2.5-2.6C116.1,121.1,115.7,121.1,115.3,121.1z"/>
			</g>
		</g>
	</g>
	<g>
		<g>
			<path style="fill:#152D66;" d="M76.7,151.8c0,0,3.9,12.4,10.6,16.6c2,1.2,5.4-2.2,6.9-3.2c9.7-6.4,17.3-15.6,22.2-26.2
				c2.1-4.4,7.8-14.3,2.7-18.4c-4.4-3.7-11.6,0.5-15.1,3.7c-5,4.4-9.3,13.2-13.9,17.9C82.8,149.6,76.7,151.8,76.7,151.8z"/>
		</g>
		<g>
			<path d="M88.2,169.8c-0.5,0-1.1-0.1-1.6-0.4c-7-4.3-11-16.7-11.1-17.2l-0.4-1.1l1.1-0.4c0.1,0,6-2.2,13-9.4c2-2.1,4-5,6.1-8
				c2.5-3.7,5.1-7.5,7.9-10c3.8-3.4,11.5-7.9,16.7-3.7c5.3,4.3,1,13.1-1.6,18.4c-0.3,0.6-0.5,1.1-0.8,1.6
				c-5.2,11.2-13.1,20.4-22.7,26.7c-0.3,0.2-0.7,0.5-1.1,0.8C92.3,168.2,90.2,169.8,88.2,169.8z M78.2,152.5
				c1.1,3,4.5,11.7,9.7,14.8c0.9,0.5,3.4-1.4,4.4-2.2c0.5-0.4,0.9-0.7,1.2-0.9c9.2-6.1,16.7-14.9,21.8-25.7c0.2-0.5,0.5-1,0.8-1.6
				c2.3-4.6,6-12.3,2.3-15.4c-3.9-3.2-10.6,1-13.5,3.6c-2.6,2.3-5.1,6-7.5,9.5c-2.1,3-4.2,6.1-6.3,8.3
				C85.3,148.8,80.3,151.5,78.2,152.5z"/>
		</g>
	</g>
	<g>
		<g>
			<path style="fill:#687DB0;" d="M81.8,146.4c-2.4-0.3-5.4,2-7.6,2.8c-1.3,2.5-0.3,4.6,0.5,7.4c1.6,5.4,4.3,10.5,9.6,12.7
				c1.8,0.7,2.8,0.9,4.7,0.1c1.3-0.5,4-1.1,5-2c1.3-1.3,0.9-3-0.1-4.4c-0.5-0.7-1.3-1.1-1.9-1.8c-1-1.3-1.4-3.2-2.2-4.7
				c-1.2-2.4-2.3-6.1-4-8.3C85,147.1,83.8,146.9,81.8,146.4z"/>
		</g>
		<g>
			<path d="M86.8,171.2c-0.9,0-1.8-0.3-2.9-0.7c-6.4-2.6-9-8.9-10.3-13.5c-0.1-0.4-0.2-0.8-0.4-1.2c-0.8-2.4-1.5-4.6-0.1-7.2
				l0.2-0.4l0.4-0.2c0.6-0.2,1.3-0.6,2.1-1c1.9-1,4-2.1,6.1-1.9l0.2,0c2,0.4,3.5,0.7,4.7,2.2c1.2,1.5,2.1,3.7,2.9,5.7
				c0.4,1,0.8,2,1.2,2.8c0.3,0.6,0.6,1.3,0.8,1.9c0.4,1,0.8,1.9,1.3,2.6c0.2,0.2,0.4,0.4,0.7,0.7c0.4,0.3,0.8,0.7,1.2,1.2
				c1.5,2.2,1.5,4.4-0.1,6c-0.9,0.9-2.5,1.4-4,1.9c-0.5,0.2-1,0.3-1.4,0.5C88.4,171.1,87.6,171.2,86.8,171.2z M75,150.2
				c-0.6,1.5-0.2,2.9,0.4,4.9c0.1,0.4,0.3,0.8,0.4,1.2c1.9,6.5,4.7,10.2,8.9,11.9c1.6,0.7,2.2,0.7,3.8,0.1c0.4-0.2,1-0.3,1.6-0.5
				c1-0.3,2.5-0.8,3-1.3c0.8-0.8,0.3-2-0.2-2.8c-0.2-0.2-0.4-0.4-0.7-0.7c-0.4-0.3-0.8-0.6-1.2-1.1c-0.7-1-1.1-2.1-1.6-3.2
				c-0.2-0.6-0.5-1.2-0.7-1.7c-0.4-0.9-0.9-1.9-1.3-3c-0.8-1.9-1.6-3.9-2.6-5.1c-0.6-0.7-1.3-0.9-3.3-1.3l-0.1,0
				c-1.3-0.1-3.1,0.8-4.6,1.6C76.3,149.6,75.6,150,75,150.2z"/>
		</g>
	</g>
</g>
</svg>
