<?xml version="1.0" encoding="utf-8"?>
<!-- Generator: Adobe Illustrator 26.0.3, SVG Export Plug-In . SVG Version: 6.00 Build 0)  -->
<svg version="1.1" id="레이어_1" xmlns="http://www.w3.org/2000/svg" xmlns:xlink="http://www.w3.org/1999/xlink" x="0px"
	 y="0px" viewBox="0 0 390 390" style="enable-background:new 0 0 390 390;" xml:space="preserve">
<style type="text/css">
	.st0{fill:#FFFFFF;}
	.st1{fill:#0053DD;}
	.st2{fill:#FF7C00;}
	.st3{fill:#AA5D00;}
	.st4{fill:#E3BD77;}
	.st5{fill:#3F74C4;}
	.st6{fill:#009B38;}
	.st7{fill-rule:evenodd;clip-rule:evenodd;}
	.st8{fill:#A90718;}
	.st9{fill:#FF0000;}
	.st10{fill:#FFF6C9;}
</style>
<g id="XMLID_194_">
	<g>
		<g>
			<path class="st0" d="M291.7,61c5.8,0.1,7,9,7.5,13.4c0.7,6.3,0.1,13.1-1.8,19.2c-2.1,6.9-5.3,10.7-12.7,9
				c3.5-13.7,3.7-30.7,3.4-41.5C289.4,61,290.6,61,291.7,61z"/>
		</g>
		<g>
			<path class="st1" d="M288.2,61c0.3,10.8,0.1,27.8-3.4,41.5c-0.2,0-0.4-0.1-0.6-0.1c-8.4-2.1-16.4-5.5-23.9-10
				c-3.3-2-6.5-4.2-8.9-7.2c-7.9-9.8-0.1-13.9,8.5-17.8C268.8,63.5,278.5,61.3,288.2,61z"/>
		</g>
	</g>
	<g>
		<g>
			<path d="M288,104.7c-1.1,0-2.3-0.1-3.6-0.4l-0.6-0.1c-8.6-2.2-16.8-5.6-24.4-10.2c-3.1-1.9-6.7-4.3-9.4-7.6
				c-3.1-3.8-4.2-7.2-3.5-10.3c1.2-4.9,6.7-7.6,12.7-10.3c9-4,19-6.3,29-6.6c1.2-0.1,2.4-0.1,3.6,0c7.7,0.1,8.9,11.3,9.3,15
				c0.7,6.6,0.1,13.6-1.8,19.9C297.6,99.2,294.9,104.7,288,104.7z M290.6,62.8c-0.8,0-1.5,0-2.3,0h0c-9.5,0.3-19,2.5-27.6,6.3
				c-5,2.2-9.9,4.6-10.6,7.8c-0.5,1.9,0.5,4.3,2.8,7.1c2.3,2.9,5.6,5,8.5,6.8c7.3,4.4,15.2,7.6,23.4,9.8l0.6,0.1
				c5.6,1.3,8.4-0.8,10.5-7.8c1.8-5.8,2.4-12.3,1.7-18.4c-0.8-7.8-2.7-11.7-5.7-11.7C291.3,62.8,291,62.8,290.6,62.8z"/>
		</g>
	</g>
</g>
<g id="XMLID_193_">
	<g>
		<g>
			<path class="st0" d="M313.8,83.5c6.3,3.4,2.7,14,0.7,19c-2.9,7.4-7.4,14.5-12.9,20.1c-6.2,6.4-11.9,8.8-19.1,2.7
				c11.7-13.1,21.6-31.8,27.4-43.8C311.3,82.1,312.6,82.8,313.8,83.5z"/>
		</g>
		<g>
			<path class="st1" d="M310,81.5c-5.8,12.1-15.7,30.7-27.4,43.8c-0.2-0.2-0.4-0.3-0.6-0.5c-8-7.2-15-15.5-20.7-24.6
				c-2.5-4-4.8-8.3-5.8-13c-3.1-15.3,7.8-15.4,19.6-14.7C287.1,73.3,299.1,76.3,310,81.5z"/>
		</g>
	</g>
	<g>
		<g>
			<path d="M290.6,130.6c-2.8,0-5.9-1.1-9.2-3.9c-0.3-0.2-0.5-0.4-0.7-0.6c-8.1-7.3-15.2-15.7-20.9-24.9c-2.4-3.8-4.9-8.4-6-13.6
				c-1.2-5.8-0.6-10,1.9-12.9c3.9-4.5,11.5-4.5,19.5-4c12.2,0.7,24.5,3.9,35.5,9.1l0,0c1.4,0.6,2.7,1.3,4,2
				c8.1,4.3,3.1,17.1,1.5,21.2c-3,7.6-7.7,15-13.3,20.7C299.6,127.3,295.5,130.6,290.6,130.6z M269.2,74.2c-4.7,0-8.7,0.6-10.8,3
				c-1.7,1.9-2,5.2-1.1,9.8c1,4.6,3.3,8.9,5.5,12.4c5.6,8.9,12.4,17.1,20.3,24.2c0.2,0.1,0.2,0.2,0.3,0.3c5.8,4.9,10.4,4.2,16.8-2.5
				c5.3-5.4,9.7-12.3,12.5-19.5c3.6-9.2,3.6-14.9,0.1-16.7c-1.2-0.7-2.5-1.3-3.8-1.9c-10.6-5-22.4-8.1-34.2-8.8
				C273,74.2,271.1,74.2,269.2,74.2z"/>
		</g>
	</g>
</g>
<g>
	<g>
		<g>
			<rect x="164.1" y="267" class="st2" width="20.5" height="87.7"/>
		</g>
		<g>
			<path d="M186.4,356.5h-24.1v-91.3h24.1V356.5z M165.9,352.9h16.9v-84h-16.9V352.9z"/>
		</g>
	</g>
	<g>
		<g>
			<path class="st2" d="M193.2,349.5c0-14.3-12.1-25.9-26.6-24.9c-13.3,0.9-23.3,12.5-23.3,25.8v0c0,7.1,5.8,12.9,12.9,12.9h24.1
				c7.1,0,12.9-5.8,12.9-12.9V349.5z"/>
		</g>
		<g>
			<path d="M180.2,365.1h-24.1c-8.1,0-14.7-6.6-14.7-14.7c0-14.6,11-26.7,25-27.6c7.5-0.5,14.6,2.1,20.1,7.2
				c5.4,5,8.5,12.2,8.5,19.5v0.9C195,358.5,188.4,365.1,180.2,365.1z M168.2,326.4c-0.5,0-1,0-1.6,0.1c-12.1,0.8-21.6,11.3-21.6,24
				c0,6.1,5,11.1,11.1,11.1h24.1c6.1,0,11.1-5,11.1-11.1v-0.9c0-6.5-2.6-12.5-7.3-16.9C179.7,328.6,174.1,326.4,168.2,326.4z"/>
		</g>
	</g>
</g>
<g>
	<g>
		<g>
			<rect x="211.2" y="265.4" class="st2" width="20.5" height="87.9"/>
		</g>
		<g>
			<path d="M233.5,355.1h-24.1v-91.5h24.1V355.1z M213,351.5h16.9v-84.3H213V351.5z"/>
		</g>
	</g>
	<g>
		<g>
			<path class="st2" d="M252.3,349.5c0-14.3-12.1-25.9-26.6-24.9c-13.3,0.9-23.3,12.5-23.3,25.8v0c0,7.1,5.8,12.9,12.9,12.9h24.1
				c7.1,0,12.9-5.8,12.9-12.9V349.5z"/>
		</g>
		<g>
			<path d="M239.4,365.1h-24.1c-8.1,0-14.7-6.6-14.7-14.7c0-14.6,11-26.7,25-27.6c7.5-0.5,14.6,2.1,20.1,7.2
				c5.4,5,8.5,12.2,8.5,19.5v0.9C254.1,358.5,247.5,365.1,239.4,365.1z M227.4,326.4c-0.5,0-1,0-1.6,0.1
				c-12.1,0.8-21.6,11.3-21.6,24c0,6.1,5,11.1,11.1,11.1h24.1c6.1,0,11.1-5,11.1-11.1v-0.9c0-6.5-2.6-12.5-7.3-16.9
				C238.8,328.6,233.3,326.4,227.4,326.4z"/>
		</g>
	</g>
</g>
<g>
	<g>
		<path id="XMLID_00000001641954881107050600000010680707732271786152_" class="st3" d="M273,179.2c5.7-0.2,10.8,3.4,15.2,7.1
			c11.2,9.4,20.9,20.5,28.6,32.9c3.5,5.6,6.6,12.4,4.1,18.5c-2.1,5.1-7.6,7.9-12.9,9.3c-16.5,4.4-35.2-1.1-46.7-13.8"/>
		<path class="st4" d="M307,205.3c-3.9,18.3-15.6,32.9-23.6,41.2c4.7,1.3,9.5,1.9,14.4,1.8c11.3-10.3,16-22,17.9-31
			C313,213.2,310.1,209.2,307,205.3z"/>
		<path class="st4" d="M300.1,197.4c-3.6,20.9-17.7,37.4-26,45.5c3.5,1.8,7.2,3.2,11.1,4.1c17.1-12.6,22.3-28.7,23.8-39.2
			C306.2,204.2,303.2,200.7,300.1,197.4z"/>
		<path class="st5" d="M279.1,245.1c4.1,1.6,8.4,2.6,12.8,3c14.1-11.7,19-25.8,20.5-35.6c-2.7-3.9-5.7-7.6-8.8-11.2
			C300.1,221,287.4,236.7,279.1,245.1z"/>
		<path d="M296.5,250.2c-13.7,0-27.4-5.7-36.5-15.9l2.7-2.4c11,12.1,29.1,17.5,44.9,13.3c4.3-1.1,9.7-3.5,11.7-8.2
			c2.3-5.6-1.1-12.3-4-16.8c-7.6-12.3-17.1-23.2-28.2-32.5c-4-3.4-8.8-6.8-14-6.6l-0.1-3.6c6.4-0.2,11.9,3.7,16.4,7.5
			c11.4,9.5,21.1,20.8,28.9,33.4c3.3,5.2,7.2,13,4.2,20.1c-2.6,6.1-9.1,9-14.1,10.3C304.5,249.7,300.5,250.2,296.5,250.2z"/>
	</g>
	<g>
		<path id="XMLID_00000044169676241677849380000013516624743591877505_" class="st3" d="M125.4,179.2c-5.7-0.2-10.8,3.4-15.2,7.1
			c-11.2,9.4-20.9,20.5-28.6,32.9c-3.5,5.6-6.6,12.4-4.1,18.5c2.1,5.1,7.6,7.9,12.9,9.3c16.5,4.4,35.2-1.1,46.7-13.8"/>
		<path class="st4" d="M91.5,205.3c3.9,18.3,15.6,32.9,23.6,41.2c-4.7,1.3-9.5,1.9-14.4,1.8c-11.3-10.3-16-22-17.9-31
			C85.5,213.2,88.4,209.2,91.5,205.3z"/>
		<path class="st4" d="M98.4,197.4c3.6,20.9,17.7,37.4,26,45.5c-3.5,1.8-7.2,3.2-11.1,4.1c-17.1-12.6-22.3-28.7-23.8-39.2
			C92.3,204.2,95.3,200.7,98.4,197.4z"/>
		<path class="st5" d="M119.4,245.1c-4.1,1.6-8.4,2.6-12.8,3c-14.1-11.7-19-25.8-20.5-35.6c2.7-3.9,5.7-7.6,8.8-11.2
			C98.4,221,111.1,236.7,119.4,245.1z"/>
		<path d="M102,250.2c13.7,0,27.4-5.7,36.5-15.9l-2.7-2.4c-11,12.1-29.1,17.5-44.9,13.3c-4.3-1.1-9.7-3.5-11.7-8.2
			c-2.3-5.6,1.1-12.3,4-16.8c7.6-12.3,17.1-23.2,28.2-32.5c4-3.4,8.8-6.8,14-6.6l0.1-3.6c-6.4-0.2-11.9,3.7-16.4,7.5
			c-11.4,9.5-21.1,20.8-28.9,33.4c-3.3,5.2-7.2,13-4.2,20.1c2.6,6.1,9.1,9,14.1,10.3C93.9,249.7,98,250.2,102,250.2z"/>
	</g>
</g>
<g>
	<g id="XMLID_218_">
		<g>
			<g>
				<path class="st3" d="M278.8,215.3c3.7,22.1,0.8,47.3-15.4,62.8c-14,13.4-34.8,16.6-54.2,17.3c-13.3,0.5-26.8,0.1-39.7-3.1
					c-12.9-3.2-25.3-9.5-34.4-19.3c-15.9-17.2-19-43.2-14.5-66.1c0.6-3.1,1.4-6.2,2-9.3c11.8,4.3,38.9,12.5,75,12.5
					c38.8,0,67.2-9.5,77.4-13.4C276.3,202.9,277.7,209.1,278.8,215.3z"/>
			</g>
			<g>
				<path class="st4" d="M273.8,189.6c0.4,2.4,0.8,4.8,1.3,7.2c-10.1,3.9-38.5,13.4-77.4,13.4c-36.1,0-63.2-8.2-75-12.5
					c1.3-5.8,2.4-11.7,2.3-17.6c0,0,28.9,15.1,72.7,15.1s72.7-15.1,72.7-15.1l2.4-0.1C273,183.1,273.3,186.4,273.8,189.6z"/>
			</g>
			<g>
				<path class="st6" d="M273,172.6c-0.2,2.4-0.2,4.9-0.2,7.3l-2.4,0.1c0,0-28.9,15.1-72.7,15.1S125,180,125,180
					c-0.3-11.1-5.1-21.5-8-32.2c-5.8-21.9-3.3-46.1,8-65.8c26.9-46.8,99.3-52,135.8-13.2c18.4,19.5,24.5,48.8,18.8,74.9
					C277.4,153.4,273.9,162.8,273,172.6z"/>
			</g>
		</g>
	</g>
</g>
<g>
	<g>
		<path d="M197.7,42.9c23.3,0,46.8,8.6,63,25.9c18.3,19.5,24.5,48.8,18.8,74.9c-2.1,9.6-5.7,19-6.5,28.9c-0.5,5.7-0.1,11.3,0.8,17
			c1.3,8.6,3.6,17.1,5,25.7c3.7,22.1,0.9,47.3-15.4,62.8c-14.1,13.4-34.8,16.6-54.2,17.3c-2.9,0.1-5.9,0.2-8.8,0.2
			c-10.4,0-20.8-0.8-30.9-3.3c-12.9-3.2-25.3-9.4-34.4-19.2c-15.9-17.2-19-43.2-14.5-66.2c1.8-8.9,4.5-17.8,4.3-26.9
			c-0.3-11.1-5.1-21.5-8-32.2c-5.9-21.9-3.3-46.1,8-65.8C139.9,56.1,168.7,42.9,197.7,42.9 M197.7,39.3c-32.3,0-61.4,15.7-75.9,40.9
			c-11.6,20.1-14.6,45.1-8.3,68.5c0.9,3.3,2,6.6,3,9.8c2.4,7.4,4.6,14.3,4.9,21.5c0.2,6.3-1.2,12.6-2.7,19.2c-0.5,2.3-1,4.6-1.5,6.8
			c-5.4,27.2,0.4,53.1,15.3,69.3c8.8,9.6,21.3,16.6,36.1,20.3c9.2,2.3,19.6,3.4,31.7,3.4c2.8,0,5.7-0.1,8.9-0.2
			c18.1-0.7,40.9-3.3,56.6-18.3c15.1-14.4,21.1-38.4,16.5-66c-0.7-4-1.5-8.1-2.4-12c-1-4.5-1.9-9.1-2.6-13.7
			c-0.9-6.2-1.2-11.3-0.8-16.1c0.5-6,2.1-11.9,3.8-18.1c0.9-3.3,1.9-6.8,2.6-10.3c6.2-28.7-1.3-58.6-19.7-78.2
			C247.2,49.2,223.3,39.3,197.7,39.3L197.7,39.3z"/>
	</g>
</g>
<g>
	<g>
		<g>
			<path class="st1" d="M122.7,88c-0.6,0-1.1-0.3-1.4-0.7c-0.4-0.5-0.5-1.3-0.2-1.9c0.7-1.5,1.5-2.9,2.3-4.3
				c12.2-21.3,25.8-33.8,40.3-37.1c14.4-3.3,25.9-4.7,37.4-4.7c11.5,0,23,1.5,37.4,4.7c7.2,1.6,12.4,8.1,16.6,13.3l1.4,1.7
				c6.4,7.8,11.4,15,15.5,22.1c0.8,1.4,1.6,2.9,2.3,4.3c0.3,0.6,0.2,1.4-0.2,1.9c-0.3,0.4-0.9,0.7-1.4,0.7c-0.1,0-0.3,0-0.4,0
				c-13.7-2.9-41.6-7.8-74.6-7.8c-33.1,0-60.9,4.9-74.6,7.8C123,88,122.8,88,122.7,88z"/>
		</g>
	</g>
	<g>
		<g>
			<path d="M201.1,41.1c11.6,0,23.3,1.6,37,4.7c7.3,1.7,12.5,8.9,16.9,14.4c5.7,6.9,10.9,14.1,15.4,21.8c0.8,1.4,1.5,2.8,2.2,4.2
				c-13-2.8-41.4-7.8-75-7.8s-62,5-75,7.8c0.7-1.4,1.4-2.8,2.2-4.2c8.4-14.6,21.6-32.2,39.2-36.2C177.9,42.7,189.5,41.1,201.1,41.1
				 M201.1,37.5c-11.6,0-23.3,1.5-37.8,4.8c-15,3.4-29,16.2-41.5,37.9c-0.8,1.3-1.5,2.8-2.3,4.4c-0.6,1.2-0.5,2.7,0.4,3.8
				c0.7,0.9,1.8,1.4,2.9,1.4c0.2,0,0.5,0,0.7-0.1c13.6-2.9,41.3-7.7,74.2-7.7s60.6,4.8,74.2,7.7c0.2,0.1,0.5,0.1,0.7,0.1
				c1.1,0,2.2-0.5,2.9-1.4c0.8-1.1,1-2.6,0.4-3.8c-0.8-1.6-1.6-3.1-2.3-4.4c-4.1-7.2-9.3-14.5-15.7-22.3c-0.4-0.5-0.9-1.1-1.4-1.7
				c-4.4-5.4-9.8-12.1-17.6-13.9C224.4,39,212.7,37.5,201.1,37.5L201.1,37.5z"/>
		</g>
	</g>
</g>
<g>
	<g>
		<g>
			<g>
				<g>
					<g>
						<g>
							<path class="st7" d="M218,109.4L218,109.4c-4,0-7.2-3-7.2-6.7v-0.9c0-3.7,3.2-6.7,7.2-6.7c4,0,7.2,3,7.2,6.7v0.9
								C225.2,106.4,222,109.4,218,109.4"/>
						</g>
					</g>
				</g>
				<g>
					<g>
						<g>
							<path class="st7" d="M178.6,109.4L178.6,109.4c-4,0-7.2-3-7.2-6.7v-0.9c0-3.7,3.2-6.7,7.2-6.7s7.2,3,7.2,6.7v0.9
								C185.8,106.4,182.6,109.4,178.6,109.4"/>
						</g>
					</g>
				</g>
			</g>
		</g>
	</g>
	<g>
		<g>
			<line class="st6" x1="174.8" y1="94.2" x2="185.8" y2="99.7"/>
		</g>
		<g>
			<path d="M185.8,101.5c-0.3,0-0.6-0.1-0.8-0.2l-11-5.5c-0.9-0.4-1.3-1.5-0.8-2.4c0.4-0.9,1.5-1.3,2.4-0.8l11,5.5
				c0.9,0.4,1.3,1.5,0.8,2.4C187.1,101.2,186.5,101.5,185.8,101.5z"/>
		</g>
	</g>
	<g>
		<g>
			<line class="st6" x1="221.4" y1="94.2" x2="210.4" y2="99.7"/>
		</g>
		<g>
			<path d="M210.4,101.5c-0.7,0-1.3-0.4-1.6-1c-0.4-0.9-0.1-2,0.8-2.4l11-5.5c0.9-0.4,2-0.1,2.4,0.8c0.4,0.9,0.1,2-0.8,2.4l-11,5.5
				C211,101.5,210.7,101.5,210.4,101.5z"/>
		</g>
	</g>
	<g>
		<g>
			<path d="M195,101.8c-0.2,0-0.4,0-0.6-0.1c-0.9-0.3-1.4-1.4-1.1-2.3c0.6-1.8,0.8-3.7,0.5-5.6c-0.2-1,0.5-1.9,1.5-2.1
				c1-0.2,1.9,0.5,2.1,1.5c0.4,2.5,0.2,5-0.6,7.4C196.5,101.3,195.8,101.8,195,101.8z"/>
		</g>
	</g>
	<g>
		<g>
			<path d="M204.6,101.6c-0.7,0-1.3-0.4-1.6-1c-1.1-2.1-1.5-4.5-1.2-6.8c0.1-1,1.1-1.7,2-1.6c1,0.1,1.7,1,1.6,2
				c-0.2,1.6,0.1,3.3,0.8,4.7c0.5,0.9,0.1,2-0.8,2.4C205.2,101.5,204.9,101.6,204.6,101.6z"/>
		</g>
	</g>
</g>
<g>
	<g>
		<g>
			<path class="st2" d="M206.8,137.1c1.9,0,3.1,2.1,2.1,3.7c-1.7,2.7-4.8,5.9-10.2,5.9c-5.3,0-8.8-3.1-10.8-5.8
				c-1.2-1.6,0-3.9,2-3.9H206.8z"/>
		</g>
		<g>
			<path d="M198.7,148.5c-6.1,0-10-3.5-12.2-6.5c-1-1.3-1.1-3-0.4-4.4c0.7-1.5,2.2-2.4,3.8-2.4h16.9c1.5,0,3,0.8,3.7,2.2
				c0.8,1.4,0.7,3-0.1,4.3C208.5,144.8,204.9,148.5,198.7,148.5z M189.9,138.9c-0.3,0-0.5,0.2-0.6,0.4c-0.1,0.2-0.1,0.4,0.1,0.6
				c1.7,2.3,4.8,5,9.3,5c3.7,0,6.6-1.7,8.6-5.1c0.2-0.3,0.1-0.5,0-0.6c-0.1-0.1-0.2-0.3-0.5-0.3H189.9z"/>
		</g>
	</g>
	<g>
		<g>
			<polygon class="st8" points="186.2,121.5 189.9,137.1 206.8,137.1 210.5,121.5 200,114.6 			"/>
		</g>
		<g>
			<path d="M208.2,138.9h-19.8l-4.4-18.3l16-8l12.4,8.2L208.2,138.9z M191.3,135.3h14.1l3.1-12.9l-8.6-5.6l-11.6,5.8L191.3,135.3z"
				/>
		</g>
	</g>
	<g>
		<g>
			<path class="st2" d="M186.2,121.5c-2.7,0-4.4-3-3-5.3c2.4-3.9,6.9-8.5,14.6-8.5c7.6,0,12.6,4.4,15.5,8.3c1.7,2.3,0.1,5.6-2.8,5.6
				c0,0-5.7-3-12.2-2.8C191.9,118.9,186.2,121.5,186.2,121.5z"/>
		</g>
		<g>
			<path d="M210.5,123.3H210l-0.4-0.2c-0.1,0-5.4-2.8-11.2-2.6c-6,0.2-11.4,2.6-11.5,2.7l-0.4,0.2l-0.4,0c-2,0-3.7-1-4.6-2.7
				c-1-1.7-0.9-3.7,0.1-5.4c2.6-4.3,7.6-9.4,16.2-9.4c8.4,0,13.8,4.9,16.9,9c1.2,1.6,1.4,3.7,0.5,5.5
				C214.3,122.2,212.5,123.3,210.5,123.3z M197.8,109.5c-6.9,0-10.9,4.2-13.1,7.6c-0.5,0.8-0.2,1.4,0,1.7c0.1,0.2,0.5,0.7,1.2,0.8
				c1.5-0.6,6.7-2.6,12.4-2.8c5.8-0.2,11,2,12.6,2.8c0.7-0.1,1.1-0.7,1.2-0.9c0.1-0.3,0.4-1-0.2-1.7
				C209.3,113.6,204.7,109.5,197.8,109.5z"/>
		</g>
	</g>
</g>
<g>
	<g>
		<g>
			<path class="st9" d="M232.1,59.6c-1.9,0.1-4,0-5.7-0.9c-0.1,2.2,0.1,6,0.5,8.1c0.1,0.4,0.2,0.8,0.4,1.2c0.3,0.3,0.7,0.5,1.2,0.6
				c5.6,1.6,11.7,1,16.8-1.6c4.8-2.4,9.8-7.3,11.1-12.6c-2.3-1.6-4.2-3.5-6.2-5.4c-1.3,2.8-2.3,5.8-5,7.7
				C241.5,59.3,236.9,59.3,232.1,59.6z"/>
		</g>
		<g>
			<path d="M234.9,71.3c-2.3,0-4.6-0.3-6.8-0.9c-0.4-0.1-1.4-0.4-2-1.2c-0.6-0.7-0.8-1.6-0.9-2c-0.4-2.2-0.6-6.1-0.5-8.5
				c0-0.6,0.4-1.2,0.9-1.5c0.6-0.3,1.2-0.3,1.8,0c1.1,0.6,2.6,0.8,4.6,0.7l1.4-0.1c4-0.2,7.8-0.5,10.9-2.6c1.8-1.3,2.7-3.4,3.7-5.6
				l0.6-1.4c0.2-0.5,0.7-0.9,1.3-1s1.2,0.1,1.6,0.5l0.9,0.9c1.7,1.6,3.3,3.1,5.1,4.4c0.6,0.4,0.9,1.2,0.7,1.9
				c-1.6,6.5-7.5,11.5-12.1,13.8C242.8,70.4,238.8,71.3,234.9,71.3z M228.8,66.8c0,0,0.1,0,0.3,0.1c5.1,1.5,10.8,0.9,15.5-1.5
				c3.9-2,8.2-5.8,9.8-10.3c-1.3-1-2.4-2-3.5-3.1c-1,2.2-2.2,4.5-4.5,6.1c-3.9,2.8-8.4,3-12.7,3.3l-1.4,0.1c0,0,0,0,0,0
				c-1.1,0.1-2.5,0.1-3.9-0.2c0.1,1.9,0.2,3.9,0.5,5.2C228.8,66.6,228.8,66.7,228.8,66.8C228.8,66.8,228.8,66.8,228.8,66.8z
				 M232.1,59.6L232.1,59.6L232.1,59.6z"/>
		</g>
	</g>
	<g>
		<g>
			<path class="st9" d="M257.6,76.6c0.4,6.6,4.6,13.1,10.8,15.4c2.1-1.8,5.7-6.1,5.7-6.1s-3.6-1.6-4.4-3.4c-0.8-1.8-0.9-3.8-0.9-5.8
				c-0.1-4.4,3.1-12.5,3.1-12.5s-3.9-4-5.9-4.8c-2.4-1-3.5,1.5-4.8,3.7C258.7,67.1,257.3,71.8,257.6,76.6z"/>
		</g>
		<g>
			<path d="M268.3,93.8c-0.2,0-0.4,0-0.6-0.1c-6.6-2.5-11.4-9.3-11.9-17l0,0c-0.3-4.9,1-9.9,3.8-14.5l0.4-0.7c1.1-2,3-5.2,6.6-3.7
				c2.2,0.9,5.8,4.5,6.5,5.2c0.5,0.5,0.7,1.3,0.4,1.9c-0.9,2.2-3,8.5-2.9,11.8c0.1,1.8,0.1,3.6,0.8,5.1c0.3,0.7,2.1,1.8,3.5,2.4
				c0.5,0.2,0.9,0.7,1,1.2c0.1,0.6,0,1.1-0.4,1.6c-0.1,0.2-3.7,4.5-5.9,6.4C269.2,93.6,268.8,93.8,268.3,93.8z M259.4,76.4
				c0.4,5.8,3.9,11.1,8.6,13.4c1-1,2.3-2.4,3.2-3.4c-1.3-0.8-2.7-1.9-3.2-3.2c-0.9-2.2-1-4.4-1.1-6.4c-0.1-3.7,1.9-9.6,2.8-12.1
				c-1.5-1.5-3.6-3.2-4.5-3.6c-0.4-0.2-0.7-0.2-2.1,2.2l-0.4,0.7C260.2,68,259.1,72.3,259.4,76.4L259.4,76.4z"/>
		</g>
	</g>
	<g>
		<g>
			<path class="st9" d="M244.4,78.5c-6.1-3.5-14.4-2.9-19.7,1.8c1.4,2.1,2.8,4.2,4.3,6.3c0.2,0.3,0.5,0.7,0.9,0.8
				c0.3,0.1,0.7-0.1,0.9-0.2c2.8-1.4,6.5-2.7,8.9-0.7c1.2,1,1.8,2.7,2,4.3c0.3,2.6-1.2,7.7-1.2,7.7s6.8,2.4,7.5,2.6
				c1.9,0.3,3.2,0.6,3.9-1.1c1.4-3.5,1.7-8.8,0.4-12.3C251,83.8,247.8,80.4,244.4,78.5z"/>
		</g>
		<g>
			<path d="M250,103c-0.7,0-1.4-0.1-1.9-0.2c-1-0.2-4.9-1.5-8.1-2.7c-0.9-0.3-1.4-1.3-1.1-2.2c0.5-1.8,1.3-5.3,1.1-7
				c-0.1-1-0.5-2.4-1.3-3.2c-1.3-1.1-3.6-0.8-7,0.9c-0.4,0.2-1.2,0.6-2.1,0.4c-1.2-0.2-1.8-1.1-2-1.5l-4.3-6.3
				c-0.5-0.8-0.4-1.8,0.3-2.4c5.8-5.1,14.9-5.9,21.8-2l0,0c4,2.2,7.3,6.1,8.7,10c1.4,3.8,1.2,9.6-0.4,13.6
				C252.8,102.5,251.4,103,250,103z M242.7,97.2c2.7,0.9,5.2,1.8,5.7,1.9c0.8,0.1,1.6,0.3,1.8,0.2c1.4-3.5,1.6-8.2,0.5-11.2
				c-1.1-3.1-3.9-6.2-7.1-8.1l0,0c-5.1-2.9-11.7-2.6-16.4,0.6l3.2,4.6c2.3-1.1,7.2-3.2,10.6-0.3c1.4,1.2,2.3,3.1,2.6,5.5
				C243.7,92.5,243.2,95.4,242.7,97.2z"/>
		</g>
	</g>
</g>
<g>
	<g>
		<path class="st10" d="M93.2,145.6l7.7-3.2l5.2,12.6l-12.2,1.3c0,0,10.7,10.6-2.6,13c-8.2,1.5-8.4-6.2-8.4-6.2s-11.2,6.8-14.5-6.7
			c-2-8.1,8.3-9.5,8.3-9.5s-2.6-6.3,6-10.1C87.8,134.6,96.5,141.4,93.2,145.6z"/>
	</g>
	<g>
		<path d="M89.3,171.3c-2,0-3.7-0.6-5.1-1.7c-1.4-1.1-2.1-2.6-2.5-3.9c-2.1,0.8-5.3,1.5-8.3,0.2c-3.2-1.3-5.4-4.4-6.6-9.1
			c-0.7-2.6-0.3-4.9,1-6.9c1.8-2.6,4.9-3.9,7-4.5c-0.3-2.7,0.4-7.3,7.4-10.4c4-1.8,9.5,0.7,12.2,4.1c0.8,1.1,1.3,2.2,1.5,3.3
			l4.6-1.9c0.4-0.2,0.9-0.2,1.4,0c0.4,0.2,0.8,0.5,1,1l5.2,12.6c0.2,0.5,0.2,1.1-0.1,1.6c-0.3,0.5-0.8,0.8-1.4,0.9l-8.9,0.9
			c1.5,2.1,2.9,5.2,2.1,8c-0.8,2.7-3.5,4.5-7.9,5.3C90.8,171.3,90,171.3,89.3,171.3z M83,161.4c0.3,0,0.6,0.1,0.9,0.2
			c0.6,0.3,0.9,0.9,0.9,1.5c0,0,0.1,2.4,1.7,3.7c1,0.8,2.6,1.1,4.5,0.7c2-0.4,4.6-1.2,5.1-2.8c0.7-2.3-2.3-6-3.4-7.1
			c-0.5-0.5-0.7-1.2-0.4-1.9c0.2-0.7,0.8-1.1,1.5-1.2l9.8-1l-3.6-8.7l-6,2.5c-0.8,0.3-1.6,0.1-2.1-0.6c-0.5-0.7-0.5-1.6,0-2.2
			c0.7-0.9,0.1-2.1-0.5-2.9c-1.7-2.2-5.5-4.1-7.9-3c-6.7,2.9-5.2,7.3-5,7.7c0.2,0.5,0.2,1.1-0.1,1.6c-0.3,0.5-0.8,0.8-1.3,0.9
			c-1.3,0.2-4.9,1.1-6.3,3.3c-0.7,1.1-0.9,2.4-0.5,4c0.9,3.5,2.4,5.8,4.5,6.6c3.3,1.4,7.3-1,7.4-1C82.3,161.5,82.6,161.4,83,161.4z"
			/>
	</g>
</g>
<g>
	<g>
		<path class="st10" d="M278,34.9l-6.5,5.2l8.6,10.6l7-10.1c0,0,4.2,14.4,12.7,3.9c5.3-6.5-1.4-10.3-1.4-10.3s11.3-6.6,1.1-16
			c-6.2-5.7-12.4,2.8-12.4,2.8s-4.3-5.3-11.7,0.4C271,24.9,272.7,35.8,278,34.9z"/>
	</g>
	<g>
		<path d="M280.1,52.6c-0.5,0-1.1-0.2-1.4-0.7l-8.6-10.6c-0.3-0.4-0.4-0.8-0.4-1.3c0.1-0.5,0.3-0.9,0.7-1.2l3.8-3.1
			c-0.9-0.7-1.6-1.7-2.1-2.9c-1.7-4-1.3-10,2.2-12.7c6-4.6,10.4-3,12.6-1.5c1.5-1.5,4.1-3.7,7.2-4c2.4-0.2,4.6,0.6,6.5,2.4
			c3.6,3.3,5.2,6.7,4.8,10.2c-0.4,3.3-2.5,5.8-4.2,7.2c0.9,1,1.9,2.3,2.2,4.1c0.5,2.4-0.3,4.8-2.3,7.3c-2.8,3.5-5.6,5-8.4,4.4
			c-2.9-0.6-4.9-3.3-6.1-5.6l-5.1,7.3C281.3,52.3,280.7,52.6,280.1,52.6C280.1,52.6,280.1,52.6,280.1,52.6z M274,40.4l5.9,7.3
			l5.6-8.1c0.4-0.6,1.1-0.9,1.8-0.8c0.7,0.1,1.3,0.6,1.5,1.3c0.4,1.5,2.2,5.9,4.6,6.4c1.7,0.3,3.6-1.5,4.9-3.1
			c1.3-1.6,1.8-3,1.6-4.3c-0.4-2-2.5-3.2-2.5-3.3c-0.6-0.3-0.9-0.9-0.9-1.6c0-0.6,0.3-1.2,0.9-1.6c0,0,4-2.4,4.4-6
			c0.2-2.2-1-4.6-3.7-7.1c-1.2-1.1-2.4-1.6-3.7-1.5c-2.6,0.3-5.2,3-6,4c-0.3,0.5-0.9,0.7-1.4,0.7c-0.5,0.1-1.1-0.2-1.4-0.7
			c-0.3-0.4-3.4-3.8-9.2,0.7c-2,1.6-2.2,5.8-1.1,8.4c0.4,1,1.2,2,2.3,1.8c0.8-0.1,1.6,0.3,2,1c0.3,0.7,0.1,1.6-0.5,2.1L274,40.4z"/>
	</g>
</g>
</svg>
