<svg xml:space="preserve" style="enable-background:new 0 0 302.5 250;" viewBox="0 0 302.5 250" y="0px" x="0px" xmlns:xlink="http://www.w3.org/1999/xlink" xmlns="http://www.w3.org/2000/svg" version="1.1">
<g id="레이어_6">
</g>
<g id="레이어_5">
</g>
<g id="레이어_2">
	<g>
		<g>
			<path d="M91.1,195.8L91.1,195.8c-8,0-14.4-3.5-14.4-11.5v-35.8c0-7.9,6.4-14.4,14.4-14.4h0
				c8,0,14.4,6.4,14.4,14.4v35.8C105.5,192.3,99,195.8,91.1,195.8z" style="fill:#ABABAB;"></path>
		</g>
		<g>
			<path d="M85.3,206.4L85.3,206.4c-4.8-1.4-7.6-6.5-6.2-11.4l1.1-3.6c1.4-4.8,6.5-7.6,11.4-6.2h0
				c4.8,1.4,7.6,6.5,6.2,11.4l-1.1,3.6C95.2,205.1,90.1,207.8,85.3,206.4z" style="fill:#143640;"></path>
		</g>
		<g>
			<path d="M56.6,204.6v-1c0-6.8,5.5-12.4,12.4-12.4h14.8c6.8,0,12.4,5.5,12.4,12.4v1
				c0,6.8-5.5,12.4-12.4,12.4H69C62.2,217,56.6,211.4,56.6,204.6z" style="fill:#ABABAB;"></path>
		</g>
		<g>
			<path d="M59,195.8h1.8c4.5,0,8.2,3.7,8.2,8.2v0c0,4.5-3.7,8.2-8.2,8.2H59c-4.5,0-8.2-3.7-8.2-8.2v0
				C50.8,199.5,54.5,195.8,59,195.8z" style="fill:#143640;"></path>
		</g>
		<g>
			<path d="M50.1,195.6H35.7c-5.4,0-9.9,4.4-9.9,9.9v6c0,2.8,2.2,5,5,5h24.1c2.8,0,5-2.2,5-5v-6
				C59.9,200,55.5,195.6,50.1,195.6z" style="fill:#757575;"></path>
		</g>
	</g>
	<g>
		<g>
			<path d="M149.4,167.5L149.4,167.5c-0.7-8.7,1.9-16.1,9.1-16.7l32.7-2.8c7.2-0.6,13.7,5.9,14.5,14.7v0
				c0.7,8.7-4.5,16.3-11.7,16.9l-32.7,2.8C154,183,150.1,176.2,149.4,167.5z" style="fill:#2D3C40;"></path>
		</g>
		<g>
			<path d="M205.9,200.2L205.9,200.2c-3.9,3.2-9.6,2.7-12.8-1.1l-1.6-1.9c-3.2-3.9-2.7-9.6,1.1-12.8l0,0
				c3.9-3.2,9.6-2.7,12.8,1.1l1.6,1.9C210.2,191.2,209.7,196.9,205.9,200.2z" style="fill:#2D3C40;"></path>
		</g>
		<g>
			<path d="M197.9,179.4l-1.1,13c-0.3,3.5-3.3,6.1-6.8,5.8l-20.2-1.7c-7.1-0.6-12.3-6.8-11.7-13.9v0
				c0.6-7.1,6.8-12.3,13.9-11.7l20.2,1.7C195.6,172.9,198.2,175.9,197.9,179.4z" style="fill:#2D3C40;"></path>
		</g>
		<g>
			<path d="M156.9,187.8L156.9,187.8c-5,0-9.1-4.2-9-9.2l0-3.7c0-5,4.2-9.1,9.2-9h0c5,0,9.1,4.2,9,9.2l0,3.7
				C166.1,183.8,162,187.8,156.9,187.8z" style="fill:#2D3C40;"></path>
		</g>
		<g>
			<path d="M205.6,195.6h-17.1c-6.5,0-11.7,4.4-11.7,9.8v6c0,2.7,2.7,5,5.9,5h28.7c3.3,0,5.9-2.2,5.9-5v-6
				C217.4,200,212.1,195.6,205.6,195.6z" style="fill:#2D3C40;"></path>
		</g>
	</g>
	<g>
		<path d="M234.6,145.2c0,0-7.2-18.8,2.7-29c6.8-7.1,11.4-4.9,18.8-11.4c4.1-3.6,6.2-7.5,7-12.9
			c0.9-5.6,1.1-10.7,7.6-12.4c7.4-1.9,6,13.7,5.5,17.1c-1,7.7-4.2,14.7-10.6,19.4c-6.4,4.7-16.9,5.3-20.8,12.8
			c-2.5,4.6,2.4,18.2-5.5,17.7C231.8,146,234.6,145.2,234.6,145.2z" style="fill:#143640;"></path>
	</g>
	<g>
		<g>
			<path d="M146.2,120.9l-28.5,9.5c-5.8,1.9-12-1.2-13.9-7l0,0c-1.9-5.8,1.2-12,7-13.9l28.5-9.5
				c5.8-1.9,12,1.2,13.9,7v0C155.1,112.7,152,119,146.2,120.9z" style="fill:#143640;"></path>
		</g>
		<g>
			<circle r="39.1" cy="158.2" cx="207.6" style="fill:#6B6B6B;"></circle>
		</g>
		<g>
			<path d="M171.9,189.4h-12c-17.8,0-32.2-14.4-32.2-32.2v0c0-17.8,14.4-32.2,32.2-32.2h12
				c17.8,0,32.2,14.4,32.2,32.2v0C204.1,175,189.7,189.4,171.9,189.4z" style="fill:#919191;"></path>
		</g>
		<g>
			<path d="M153.7,196.3H107c-12.1,0-22-9.8-22-22V139c0-12.1,9.8-22,22-22h46.7c12.1,0,22,9.8,22,22v35.3
				C175.7,186.4,165.8,196.3,153.7,196.3z" style="fill:#6B6B6B;"></path>
		</g>
		<g>
			<path d="M133.2,173.9c0,0,0-5.1,0-27.3c0-18.7,16.5-26.8,21.8-29c-1.8-0.4-3.6-0.6-5.4-0.6H124
				c0,0-23.5,7.3-23.5,29.6s0,27.3,0,27.3s1.3,20.9,8.7,22.3c0.6,0,1.2,0.1,1.8,0.1h31.7C134.6,196.3,133.2,173.9,133.2,173.9z" style="fill:#143640;"></path>
		</g>
	</g>
	<g>
		<g>
			<g>
				<path d="M97.7,41c0,0-4.8-11.9-15.1-6.6C64.9,43.3,47.5,56,42.4,79.1c-2.7,12.1,12.7,23,28.1-1.9
					C81.3,59.9,99.9,51.4,97.7,41z" style="fill:#143640;"></path>
			</g>
		</g>
		<g>
			<g>
				<path d="M116.9,41c0,0,4.8-11.9,15.1-6.6c17.7,8.9,35.1,21.7,40.2,44.7c2.7,12.1-12.7,23-28.1-1.9
					C133.3,59.9,114.7,51.4,116.9,41z" style="fill:#143640;"></path>
			</g>
		</g>
	</g>
	<g>
		<g>
			<path d="M155.3,89.2c0,25.7-23.6,45.4-46.5,45.4c-22.2,0-46.5-19.7-46.5-45.4s20.8-46.5,46.5-46.5
				S155.3,63.6,155.3,89.2z" style="fill:#ABABAB;"></path>
		</g>
		<g>
			<path d="M141.7,56.4c-8.4-8.5-14-16.5-32.9-16.5c-17.8,0-24.5,8-32.9,16.5c-2.8,7-4.5,15.3-1.3,22.1
				c6.8,14.6,15.7,14.8,15.3,23.3c-0.3,7.6,9.8,11.6,16.8,12.1c7.3,0.6,21.4-4,21-12.2c-0.4-8.5,8.5-8.7,15.3-23.3
				C146.2,71.7,144.5,63.4,141.7,56.4z" style="fill:#143640;"></path>
		</g>
		<g>
			<circle r="24.8" cy="104.9" cx="108.8" style="fill:#FFFBE3;"></circle>
		</g>
	</g>
	<g>
		<g>
			<path d="M111.7,84.9h-8.8c-2.5,0-3.8,2.9-2.1,4.8l4.4,4.9c1.1,1.3,3.1,1.3,4.2,0l4.4-4.9
				C115.5,87.8,114.2,84.9,111.7,84.9z" style="fill:#1C4059;"></path>
		</g>
		<g>
			<rect height="9.4" width="0.8" y="95.5" x="106.9"></rect>
		</g>
	</g>
	<g>
		<g>
			<path d="M154.2,195.8L154.2,195.8c-8,0-14.4-3.5-14.4-11.5v-35.8c0-7.9,6.4-14.4,14.4-14.4h0
				c8,0,14.4,6.4,14.4,14.4v35.8C168.6,192.3,162.1,195.8,154.2,195.8z" style="fill:#ABABAB;"></path>
		</g>
		<g>
			<path d="M143.5,204.5L143.5,204.5c-4.2-2.7-5.5-8.4-2.7-12.7l2-3.1c2.7-4.2,8.4-5.5,12.7-2.7l0,0
				c4.2,2.7,5.5,8.4,2.7,12.7l-2,3.1C153.4,206,147.8,207.2,143.5,204.5z" style="fill:#143640;"></path>
		</g>
		<g>
			<path d="M110.4,204.6v-1c0-6.8,5.5-12.4,12.4-12.4h14.8c6.8,0,12.4,5.5,12.4,12.4v1
				c0,6.8-5.5,12.4-12.4,12.4h-14.8C115.9,217,110.4,211.4,110.4,204.6z" style="fill:#ABABAB;"></path>
		</g>
		<g>
			<path d="M109.6,195.8h1.8c4.5,0,8.2,3.7,8.2,8.2v0c0,4.5-3.7,8.2-8.2,8.2h-1.8c-4.5,0-8.2-3.7-8.2-8.2v0
				C101.4,199.5,105,195.8,109.6,195.8z" style="fill:#143640;"></path>
		</g>
		<g>
			<path d="M100.7,195.6H86.3c-5.4,0-9.9,4.4-9.9,9.9v6c0,2.8,2.2,5,5,5h24.1c2.8,0,5-2.2,5-5v-6
				C110.5,200,106.1,195.6,100.7,195.6z" style="fill:#757575;"></path>
		</g>
	</g>
	<g>
		<g>
			<path d="M178.8,167.5L178.8,167.5c-0.7-8.7,1.9-16.1,9.1-16.7l32.7-2.8c7.2-0.6,13.7,5.9,14.5,14.7v0
				c0.7,8.7-4.5,16.3-11.7,16.9l-32.7,2.8C183.4,183,179.6,176.2,178.8,167.5z" style="fill:#9E9E9E;"></path>
		</g>
		<g>
			<path d="M235.3,200.2L235.3,200.2c-3.9,3.2-9.6,2.7-12.8-1.1l-1.6-1.9c-3.2-3.9-2.7-9.6,1.1-12.8l0,0
				c3.9-3.2,9.6-2.7,12.8,1.1l1.6,1.9C239.7,191.2,239.2,196.9,235.3,200.2z" style="fill:#143640;"></path>
		</g>
		<g>
			<path d="M227.4,179.4l-1.1,13c-0.3,3.5-3.3,6.1-6.8,5.8l-20.2-1.7c-7.1-0.6-12.3-6.8-11.7-13.9l0,0
				c0.6-7.1,6.8-12.3,13.9-11.7l20.2,1.7C225.1,172.9,227.7,175.9,227.4,179.4z" style="fill:#ABABAB;"></path>
		</g>
		<g>
			<path d="M186.4,187.8L186.4,187.8c-5,0-9.1-4.2-9-9.2l0-3.7c0-5,4.2-9.1,9.2-9h0c5,0,9.1,4.2,9,9.2l0,3.7
				C195.5,183.8,191.4,187.8,186.4,187.8z" style="fill:#143640;"></path>
		</g>
		<g>
			<path d="M235.1,195.6h-17.1c-6.5,0-11.7,4.4-11.7,9.8v6c0,2.7,2.7,5,5.9,5h28.7c3.3,0,5.9-2.2,5.9-5v-6
				C246.8,200,241.5,195.6,235.1,195.6z" style="fill:#757575;"></path>
		</g>
	</g>
	<g>
		<g>
			<path d="M90.8,82c-2.9,0-5.3-2.4-5.3-5.3s2.4-5.3,5.3-5.3c2.9,0,5.3,2.4,5.3,5.3S93.8,82,90.8,82z
				 M90.8,73c-2,0-3.7,1.7-3.7,3.7c0,2,1.7,3.7,3.7,3.7c2,0,3.7-1.7,3.7-3.7C94.5,74.6,92.9,73,90.8,73z" style="fill:#74DEFF;"></path>
		</g>
		<g>
			<path d="M126.7,82c-2.9,0-5.3-2.4-5.3-5.3s2.4-5.3,5.3-5.3c2.9,0,5.3,2.4,5.3,5.3S129.6,82,126.7,82z
				 M126.7,73c-2,0-3.7,1.7-3.7,3.7c0,2,1.7,3.7,3.7,3.7c2,0,3.7-1.7,3.7-3.7C130.4,74.6,128.7,73,126.7,73z" style="fill:#74DEFF;"></path>
		</g>
	</g>
</g>
<g id="레이어_1">
</g>
</svg>
