<?xml version="1.0" encoding="utf-8"?>
<!-- Generator: Adobe Illustrator 22.0.1, SVG Export Plug-In . SVG Version: 6.00 Build 0)  -->
<svg version="1.1" id="레이어_1" xmlns="http://www.w3.org/2000/svg" xmlns:xlink="http://www.w3.org/1999/xlink" x="0px"
	 y="0px" viewBox="0 0 317 319" style="enable-background:new 0 0 317 319;" xml:space="preserve">
<style type="text/css">
	.st0{fill:#FFFFFF;}
	.st1{fill:#673101;}
	.st2{fill:#00A2E7;}
	.st3{fill:#FFC0BB;}
	.st4{fill:#4D5B77;}
	.st5{fill:#C64224;}
	.st6{opacity:0.4;fill:#FFFFFF;enable-background:new    ;}
	.st7{fill:#D34A20;}
	.st8{fill:#7888A3;}
	.st9{fill:#8393AA;}
	.st10{fill:#B73A1D;}
	.st11{fill:#9B2C16;}
	.st12{fill:#EDC932;}
	.st13{fill:#EFE630;}
</style>
<title>자산 1</title>
<g>
	<path class="st0" d="M189.1,76.4l0.3-0.1c4.5-2.4,6.2-8.1,3.8-12.6c-1.9-3.6-1.5-8.9-1.3-10.5c0.4-1.5,1.3-3.8,2.6-4.3
		c3.1-1.2,10,1.9,13.7,4.4c4.2,2.9,9.9,1.9,12.8-2.3c0,0,0,0,0,0c2.9-4.2,1.9-10-2.3-12.9c-1.7-1.2-17.1-11.6-30.6-6.6
		c-4.9,1.8-11.3,6.3-14.2,17.3l-0.1,0.6c-0.3,1.3-2.3,13,3.1,23.2C179.3,76.9,184.7,78.6,189.1,76.4z"/>
	<path class="st1" d="M205.7,47.6c0.6-0.3,1.4-0.4,2.1-0.3c-0.9-0.3-1.7-1-2.1-1.9c-0.9-1.8-0.2-4.1,1.7-5c0.8-0.4,1.8-0.5,2.6-0.2
		c-0.8-0.3-1.5-0.9-1.9-1.7c-0.9-1.8-0.2-4.1,1.6-5c0,0,0,0,0,0c0.2-0.1,0.3-0.1,0.5-0.2c3,1.3,5.8,2.8,8.5,4.7
		c4.2,2.9,5.3,8.8,2.3,13c0,0,0,0,0,0c-2.9,4.2-8.6,5.3-12.8,2.4c0,0,0,0,0,0c-1.4-1-3-1.8-4.6-2.5
		C203.7,49.4,204.5,48.2,205.7,47.6z"/>
</g>
<g>
	<path class="st0" d="M136,75.7l-0.3-0.1c-4.7-1.9-7-7.3-5.1-12.1c1.5-3.8,0.5-9,0.1-10.6c-0.6-1.4-1.7-3.6-3.1-4
		c-3.2-0.8-9.8,3-13.1,5.9c-3.8,3.3-9.6,3-13-0.8c0,0,0,0,0-0.1c-3.3-3.9-3-9.7,0.8-13.1c1.6-1.4,15.7-13.4,29.7-10
		c5.1,1.2,11.9,5,16.1,15.6l0.2,0.6c0.4,1.3,3.8,12.7-0.5,23.4C145.9,75,140.7,77.4,136,75.7z"/>
	<path class="st1" d="M116.4,48.9c-0.7-0.2-1.4-0.3-2.1-0.1c0.9-0.4,1.6-1.2,1.9-2.1c0.7-1.9-0.3-4-2.2-4.8
		c-0.9-0.3-1.8-0.3-2.6,0.1c0.8-0.4,1.4-1.1,1.7-1.9c0.7-1.9-0.3-4.1-2.2-4.8c-0.2,0-0.4-0.1-0.5-0.1c-2.8,1.6-5.5,3.5-7.9,5.6
		c-3.8,3.4-4.2,9.2-0.8,13.1c3.3,3.8,9.1,4.3,12.9,0.9c0,0,0,0,0.1,0c1.3-1.1,2.8-2.1,4.3-3C118.6,50.5,117.7,49.3,116.4,48.9z"/>
</g>
<path class="st2" d="M160.9,48.6C106.6,48.5,104.4,92,104.4,92v115.6c0,20.9,25.3,37.8,56.5,37.8s56.5-16.9,56.5-37.8V92.4
	C218.7,46.9,160.9,48.6,160.9,48.6z"/>
<g>
	<path class="st0" d="M216.2,93.6c-0.9-25.6-19.9-35.8-35.8-39.4c-2-0.5-8.4-1.6-9.9-1.7c-3.8-0.4-7.6-0.6-11.4-0.5
		c-29.1,0.3-52.7,21.5-53.4,47.9l0,0c0,0-5.1,41.9,42.5,49.5c3.8,0.6,7.6,0.8,11.5,0.8h34.1c16.9,0,31.6-16.1,31.6-33l0,0
		C225.4,107.4,223.4,99.2,216.2,93.6z"/>
	<g>
		<g>
			<path class="st3" d="M144.1,112.5c-0.1,8.7-7.1,15.7-15.8,15.6s-15.7-7.1-15.6-15.8c0.1-8.6,7.1-15.6,15.7-15.6
				C137.1,96.7,144.1,103.8,144.1,112.5z"/>
			<path class="st3" d="M220.9,112.5c-0.1,8.7-7.1,15.7-15.8,15.6c-8.7-0.1-15.7-7.1-15.6-15.8c0.1-8.6,7.1-15.6,15.7-15.6
				C213.9,96.7,220.9,103.8,220.9,112.5z"/>
		</g>
		<g>
			<path d="M168.2,107.8c-0.1,1.2-1.2,2.1-2.4,2c-1.2-0.1-2.1-1.2-2-2.4c0.1-1.1,1.1-2,2.2-2C167.3,105.4,168.3,106.5,168.2,107.8
				C168.3,107.7,168.3,107.7,168.2,107.8z"/>
			<path d="M186.2,114c-1.1-0.5-2.1,0.5-2.7,1.2c-3.9,4.3-9.2,5.1-13.7,1.7c-0.9-0.8-1.6-1.7-2.1-2.8c-0.4-0.8-0.5-1.4-1.7-1.6
				c-1.1,0.2-1.2,0.8-1.7,1.6c-0.5,1.1-1.2,2-2.1,2.8c-4.6,3.4-9.8,2.6-13.7-1.7c-0.6-0.7-1.5-1.7-2.6-1.2c-0.7,0.7-0.8,1.9,0.2,3.2
				c1.8,2.8,4.7,4.6,8,4.9c4.4,0.6,8.8-0.8,12-3.9c3.2,3.1,7.6,4.6,12,3.9c3.3-0.3,6.2-2.1,8-4.9C187,116,186.9,114.7,186.2,114z"/>
			<path d="M151,97.9L151,97.9c2,0,3.6,1.6,3.6,3.6v0.5c0,2-1.6,3.6-3.6,3.6h0c-2,0-3.6-1.6-3.6-3.6v-0.5
				C147.4,99.5,149,97.9,151,97.9z"/>
			<path d="M179.3,97.9L179.3,97.9c2,0,3.6,1.6,3.6,3.6v0.5c0,2-1.6,3.6-3.6,3.6h0c-2,0-3.6-1.6-3.6-3.6v-0.5
				C175.7,99.5,177.3,97.9,179.3,97.9z"/>
		</g>
	</g>
</g>
<g>
	<g>
		<path class="st4" d="M284.5,285.9c-0.2,1.9-1.8,3.3-3.7,3.1h-26.3c-1.9,0.1-3.5-1.3-3.7-3.1v-41.1c0.2-1.9,1.8-3.3,3.7-3.1h26.3
			c1.9-0.1,3.5,1.3,3.7,3.1V285.9z"/>
		<path class="st5" d="M267.7,226.4c-10.5,0-19.1,4.5-19.1,10.1v34.1h38.1v-34.1C286.7,230.9,278.2,226.4,267.7,226.4z"/>
	</g>
	<g>
		<path class="st4" d="M66.2,285.7c-0.2,1.9-1.8,3.3-3.7,3.1H36.2c-1.9,0.1-3.5-1.3-3.7-3.1v-41.1c0.2-1.9,1.8-3.3,3.7-3.1h26.3
			c1.9-0.1,3.5,1.3,3.7,3.1V285.7z"/>
		<path class="st5" d="M49.3,226.2c-10.5,0-19.1,4.5-19.1,10.1v34.1h38.1v-34.1C68.4,230.7,59.9,226.2,49.3,226.2z"/>
	</g>
	<g>
		<ellipse class="st6" cx="162.2" cy="181.3" rx="90.4" ry="47.9"/>
		<path class="st7" d="M226.5,152.8c-8,0-15.8,2.1-22.8,6c-11.4-8.9-26.9-14.4-44.1-14.4c-16.6,0-31.7,5.2-43,13.6
			c-6-3.3-11.6-5.1-18.9-5.1c-23.3,0-42.1,18.9-42.1,42.1v50.6h213V195C268.7,171.7,249.8,152.8,226.5,152.8
			C226.6,152.8,226.5,152.8,226.5,152.8z"/>
		<g>
			<path class="st8" d="M271.4,248.2c1.9,0,3.5-1.6,3.5-3.5s-1.6-3.5-3.5-3.5l0,0H52.9c-1.9,0-3.5,1.6-3.5,3.5s1.6,3.5,3.5,3.5l0,0
				H271.4z"/>
			<rect x="55.7" y="248.2" class="st9" width="213" height="10.6"/>
			<path class="st8" d="M271.4,258.8H52.9c-1.9,0-3.5,1.6-3.5,3.5s1.6,3.5,3.5,3.5l0,0h218.6c1.9,0,3.5-1.6,3.5-3.5
				S273.4,258.8,271.4,258.8L271.4,258.8z"/>
		</g>
		<g>
			<path class="st10" d="M185.6,163.2h-46.8c-2.6,0-4.7,2.1-4.7,4.7l0,0v73.5h56.2v-73.5C190.3,165.3,188.2,163.2,185.6,163.2z"/>
			<rect x="139.6" y="163.2" class="st11" width="3.1" height="77.9"/>
			<rect x="148" y="163.2" class="st11" width="3.1" height="77.9"/>
			<rect x="157.1" y="163.2" class="st11" width="3.1" height="77.9"/>
			<rect x="165.5" y="163.2" class="st11" width="3.1" height="77.9"/>
			<rect x="173.5" y="163.2" class="st11" width="3.1" height="77.9"/>
			<rect x="182" y="163.2" class="st11" width="3.1" height="77.9"/>
		</g>
		<g>
			<circle class="st12" cx="89.4" cy="199.9" r="21.5"/>
			<path class="st13" d="M89.4,178.4c-11.9,0-21.5,9.6-21.5,21.5s9.6,21.5,21.5,21.5V178.4z"/>
		</g>
		<g>
			<circle class="st12" cx="231.4" cy="199.9" r="21.5"/>
			<path class="st13" d="M231.4,178.4c-11.9,0-21.5,9.6-21.5,21.5s9.6,21.5,21.5,21.5V178.4z"/>
		</g>
	</g>
</g>
</svg>
