<?xml version="1.0" encoding="UTF-8"?>
<svg xmlns="http://www.w3.org/2000/svg" version="1.1" viewBox="0 0 390 390">
  <defs>
    <style>
      .cls-1 {
        fill: #582200;
      }

      .cls-2 {
        fill: #48649c;
      }

      .cls-3 {
        fill: #c84600;
      }

      .cls-4 {
        fill: #fa7920;
      }

      .cls-5 {
        fill: #fff;
      }

      .cls-6 {
        fill: #ffbc00;
      }

      .cls-7 {
        fill: #a74200;
      }

      .cls-8 {
        fill: #c97700;
      }
    </style>
  </defs>
  <!-- Generator: Adobe Illustrator 28.7.1, SVG Export Plug-In . SVG Version: 1.2.0 Build 142)  -->
  <g>
    <g id="_레이어_1" data-name="레이어_1">
      <g>
        <g>
          <path class="cls-4" d="M293.162,196.844c.08,2.65,1.651,5.248,3.986,6.503,2.371,1.248,5.354,1.144,7.61-.25-.366,1.869-.705,3.884-.1,5.723,1.182,3.534,5.425,4.959,9.14,5.358,1.265.14,2.618.152,3.931-.055-3.385,11.475-8.795,22.352-15.983,31.944-17.603,23.425-50.919,43.69-81.283,40.249-31.665-3.574-20.237-41.653-8.737-60.153,8.555-13.75,21.323-25.017,36.516-30.917,10.681-4.124,22.081-5.792,33.246-8.317-.099.882-.053,1.736.247,2.544,1.183,2.933,5.135,3.399,8.26,3.044.66-.085,1.356-.177,1.974.121,1.372.721,1.172,2.672,1.194,4.207Z"/>
          <path class="cls-5" d="M286.911,185.62c12.878-3.406,25.899-9.278,33.395-20.242,3.108,16.124,2.147,32.966-2.578,48.744-1.313.206-2.666.195-3.931.055-3.715-.398-7.958-1.824-9.14-5.358-.604-1.839-.266-3.854.1-5.723-2.255,1.395-5.239,1.499-7.61.25-2.335-1.255-3.906-3.853-3.986-6.503-.022-1.535.178-3.486-1.194-4.207-.618-.298-1.314-.206-1.974-.121-3.124.355-7.077-.111-8.26-3.044-.3-.807-.346-1.662-.247-2.544,1.8-.41,3.637-.826,5.424-1.308Z"/>
        </g>
        <path d="M227.284,288.911c-2.367,0-4.724-.13-7.07-.396-9.693-1.092-16.378-5.304-19.873-12.515-7.69-15.877,2.854-40.305,9.502-51.004,9.106-14.637,22.457-25.938,37.599-31.813,8.104-3.131,16.663-4.886,24.94-6.585,2.879-.591,5.755-1.18,8.62-1.829,1.849-.42,3.614-.822,5.333-1.285,15.535-4.108,26.046-10.438,32.143-19.354.504-.737,1.391-1.099,2.277-.917.876.182,1.553.87,1.722,1.748,3.149,16.318,2.238,33.536-2.627,49.795-3.499,11.859-8.994,22.843-16.331,32.637-16.115,21.444-46.636,41.52-76.236,41.52ZM318.942,170.691c-6.901,7.706-17.254,13.313-31.466,17.07-1.762.476-3.589.892-5.376,1.299-3.016.681-5.921,1.277-8.829,1.874-8.097,1.663-16.475,3.382-24.234,6.376-14.245,5.531-26.832,16.194-35.433,30.024-7.211,11.6-15.632,33.621-9.279,46.734,2.789,5.755,8.302,9.135,16.385,10.047,30.042,3.441,62.625-17.228,79.266-39.379,7.02-9.373,12.277-19.884,15.628-31.239v-.007c4.18-13.96,5.315-28.655,3.337-42.799Z"/>
      </g>
      <g>
        <g>
          <path class="cls-7" d="M220.256,366.906c3.247-2.767,8.561-4.207,12.583-2.288.184.074.369.184.553.295,5.277,11.181-4.871,19.705-15.904,19.963-8.671.148-33.431,4.28-37.084-6.457-.849-2.546-.812-5.277-.738-7.97,0-.886.037-1.734.074-2.62,1.144-.812,2.362-1.439,3.727-1.734,2.288-.517,5.018-.184,7.085.886.996.517,2.066,1.218,3.136.849.48-.148.886-.553,1.291-.886,2.767-2.214,7.306-1.697,9.483,1.07,3.321-3.136,8.893-3.542,12.657-.959.443.332.922.701,1.513.701.627,0,1.144-.443,1.624-.849Z"/>
          <path class="cls-4" d="M232.322,362.884c.406.664.775,1.365,1.07,2.029-.184-.111-.369-.221-.553-.295-4.022-1.919-9.336-.48-12.583,2.288-.48.406-.996.849-1.624.849-.59,0-1.07-.369-1.513-.701-3.764-2.583-9.336-2.177-12.657.959-2.177-2.767-6.716-3.284-9.483-1.07-.406.332-.812.738-1.291.886-1.07.369-2.14-.332-3.136-.849-2.066-1.07-4.797-1.402-7.085-.886-1.365.295-2.583.922-3.727,1.734.369-18.229,1.624-36.42,1.624-54.575,0-5.092-1.291-13.837,2.472-17.823,3.173-3.432,11.402-1.734,15.756-.037,3.616,16.31,7.232,32.583,10.885,48.892.332,1.476.701,3.063,1.697,4.243.959,1.144,2.398,1.734,3.764,2.325,6.347,2.731,12.767,6.162,16.384,12.029Z"/>
        </g>
        <path d="M199.767,388c-9.54,0-18.983-1.589-21.459-8.868-.935-2.804-.941-5.618-.854-8.746-.002-.847.034-1.719.074-2.627.153-7.571.458-15.135.764-22.695.422-10.439.858-21.235.858-31.812,0-.937-.045-2.004-.094-3.142-.232-5.477-.521-12.292,3.171-16.201,4.103-4.436,13.351-2.454,18.171-.577l1.099.429.256,1.153c3.618,16.309,7.232,32.579,10.886,48.889.263,1.175.562,2.508,1.229,3.301.587.699,1.658,1.16,2.789,1.647,6.512,2.807,13.549,6.479,17.549,12.973.461.757.876,1.542,1.207,2.288,2.306,4.883,2.155,9.92-.454,14.14-3.247,5.261-10.083,8.767-17.419,8.937-1.488.025-3.441.169-5.679.335-3.658.267-7.884.577-12.093.577ZM189.926,295.65c-1.989,0-3.632.386-4.465,1.283-2.423,2.566-2.168,8.591-1.982,12.991.052,1.207.099,2.335.099,3.33,0,10.666-.438,21.509-.863,31.992-.304,7.539-.609,15.081-.76,22.626l-.002.05c-.038.854-.072,1.676-.072,2.526-.077,2.858-.081,5.16.623,7.272,2.461,7.236,19.745,5.967,29.032,5.29,2.335-.173,4.375-.321,5.917-.346,5.859-.137,11.257-2.822,13.74-6.836,1.816-2.944,1.885-6.393.195-9.971-.277-.623-.598-1.236-.955-1.82-3.351-5.434-9.65-8.688-15.369-11.149-1.643-.71-3.322-1.434-4.584-2.93-1.362-1.622-1.827-3.683-2.162-5.185-3.567-15.917-7.095-31.801-10.625-47.714-2.557-.868-5.405-1.409-7.767-1.409Z"/>
      </g>
      <g>
        <g>
          <path class="cls-4" d="M234.422,281.102c-1.734-2.419-4.382-4.169-7.289-4.707-2.275-.413-4.945.068-6.251,1.946.34-2.235-.617-4.608-2.381-6.014-1.785-1.376-4.316-1.742-6.412-.862-.371.146-.764.323-1.139.152-.345-.15-.48-.603-.596-.953-.777-2.697-2.831-4.979-5.41-6.052-.315-.129-.599-.237-.956-.305.707-1.082,1.414-2.163,2.06-3.287,8.16-13.742,9.16-30.438,14.48-45.525,2.081-5.968,6.824-7.166,12.218-4,4.089,2.393,4.854,6.205,5.802,10.595,2.665,12.458,3.314,25.358,1.911,38.044-.767,6.792-2.138,13.613-5.317,19.673-.213.436-.478.881-.721,1.296Z"/>
          <path class="cls-7" d="M227.133,276.395c2.907.538,5.555,2.288,7.289,4.707-3.198,5.506-8.141,10.16-14.187,12.069-6.49,2.095-14.33.509-18.743-4.715-2.561-3.039-3.832-7.158-3.407-11.132.513-4.811,3.224-8.904,5.904-13.018.357.068.641.176.956.305,2.579,1.074,4.633,3.355,5.41,6.052.116.35.251.803.596.953.375.171.768-.006,1.139-.152,2.095-.88,4.626-.514,6.412.862,1.764,1.406,2.721,3.779,2.381,6.014,1.306-1.878,3.977-2.359,6.251-1.946Z"/>
        </g>
        <path d="M214.498,296.28c-5.701,0-11.232-2.292-14.697-6.396-2.982-3.539-4.409-8.202-3.917-12.796.562-5.268,3.393-9.607,6.131-13.805l.123-.187c.681-1.045,1.366-2.09,1.989-3.178,4.951-8.335,7.153-17.668,9.484-27.552,1.377-5.823,2.8-11.848,4.832-17.607,1.485-4.267,4.011-5.978,5.87-6.659,2.829-1.038,6.126-.526,9.553,1.485,4.861,2.847,5.848,7.409,6.8,11.827,2.771,12.955,3.427,25.992,1.996,38.965-.984,8.695-2.699,15.005-5.56,20.457-.209.432-.501.933-.775,1.398-3.751,6.454-9.232,11.095-15.427,13.052-2.09.674-4.259.998-6.403.998ZM205.843,265.517l-.119.184c-2.566,3.931-4.987,7.647-5.438,11.856-.357,3.351.728,6.893,2.901,9.474,3.64,4.306,10.36,5.964,16.367,4.032,5.153-1.625,9.747-5.557,12.955-11.074.223-.378.458-.771.645-1.153,2.623-5.005,4.191-10.832,5.106-18.951,1.384-12.493.75-25.059-1.877-37.332-.93-4.317-1.571-7.286-4.753-9.149-1.564-.915-3.831-1.87-5.787-1.15-1.398.515-2.483,1.849-3.222,3.967-1.957,5.546-3.348,11.452-4.699,17.163-2.306,9.773-4.692,19.877-9.971,28.767-.649,1.131-1.377,2.249-2.108,3.366h0Z"/>
        <g>
          <path class="cls-5" d="M230.784,200.371c3.843,4.634,6.252,10.137,8.982,16.653-9.911,7.214-20.478,13.525-31.528,18.83-3.365-4.613-2.243-3.587-4.473-8.844-3.873-9.131-7.288-19.36-4.2-28.785,3.509-10.71,13.743-10.26,22.066-5.466,3.87,2.229,6.784,4.755,9.153,7.612Z"/>
          <path d="M208.236,238.066c-.688,0-1.362-.321-1.791-.908-2.414-3.315-2.706-3.978-3.431-5.989-.27-.75-.627-1.737-1.29-3.294-4.16-9.816-7.558-20.288-4.265-30.338,1.512-4.616,4.344-7.836,8.196-9.31,4.778-1.838,11.009-.885,17.081,2.613,3.888,2.241,7.077,4.895,9.751,8.117h0c3.953,4.764,6.357,10.14,9.322,17.214.396.944.09,2.04-.739,2.645-9.996,7.275-20.72,13.679-31.877,19.034-.306.148-.634.216-.959.216ZM210.852,191.746c-1.315,0-2.537.204-3.614.616-2.598.995-4.472,3.2-5.571,6.551-2.84,8.666.31,18.208,4.137,27.232.706,1.665,1.085,2.721,1.377,3.521.461,1.279.631,1.751,1.769,3.38,9.791-4.814,19.225-10.45,28.093-16.785-2.512-5.924-4.692-10.533-7.964-14.479h0c-2.328-2.807-5.128-5.131-8.555-7.104-3.337-1.922-6.739-2.931-9.672-2.931Z"/>
        </g>
      </g>
      <g>
        <g>
          <path class="cls-7" d="M120.045,366.906c-3.247-2.767-8.561-4.207-12.583-2.288-.184.074-.369.184-.553.295-5.277,11.181,4.871,19.705,15.904,19.963,8.671.148,33.431,4.28,37.084-6.457.849-2.546.812-5.277.738-7.97,0-.886-.037-1.734-.074-2.62-1.144-.812-2.362-1.439-3.727-1.734-2.288-.517-5.018-.184-7.085.886-.996.517-2.066,1.218-3.136.849-.48-.148-.886-.553-1.291-.886-2.767-2.214-7.306-1.697-9.483,1.07-3.321-3.136-8.893-3.542-12.657-.959-.443.332-.922.701-1.513.701-.627,0-1.144-.443-1.624-.849Z"/>
          <path class="cls-4" d="M107.979,362.884c-.406.664-.775,1.365-1.07,2.029.184-.111.369-.221.553-.295,4.022-1.919,9.336-.48,12.583,2.288.48.406.996.849,1.624.849.59,0,1.07-.369,1.513-.701,3.764-2.583,9.336-2.177,12.657.959,2.177-2.767,6.716-3.284,9.483-1.07.406.332.812.738,1.291.886,1.07.369,2.14-.332,3.136-.849,2.066-1.07,4.797-1.402,7.085-.886,1.365.295,2.583.922,3.727,1.734-.369-18.229-1.624-36.42-1.624-54.575,0-5.092,1.291-13.837-2.472-17.823-3.173-3.432-11.402-1.734-15.756-.037-3.616,16.31-7.232,32.583-10.885,48.892-.332,1.476-.701,3.063-1.697,4.243-.959,1.144-2.398,1.734-3.764,2.325-6.347,2.731-12.767,6.162-16.384,12.029Z"/>
        </g>
        <path d="M140.528,388c-4.207,0-8.432-.31-12.086-.577-2.238-.166-4.191-.31-5.667-.335-7.348-.169-14.185-3.676-17.434-8.937-2.605-4.22-2.76-9.257-.434-14.183.312-.703.724-1.488,1.18-2.234,4.011-6.508,11.047-10.18,17.399-12.911,1.294-.559,2.36-1.02,2.944-1.715.668-.793.968-2.13,1.232-3.308,3.654-16.306,7.27-32.576,10.884-48.885l.256-1.153,1.103-.429c4.812-1.881,14.061-3.863,18.185.595,3.676,3.892,3.387,10.706,3.155,16.183-.049,1.139-.094,2.205-.094,3.142,0,10.587.436,21.398.859,31.848.304,7.557.609,15.117.764,22.684l-2.214.043,2.22.115c.036.843.068,1.658.068,2.504.085,3.063.079,5.877-.852,8.67-2.479,7.29-11.928,8.883-21.47,8.883ZM142.609,297.059c-3.53,15.913-7.059,31.797-10.625,47.71-.357,1.593-.802,3.571-2.164,5.189-1.254,1.495-2.933,2.22-4.414,2.858-5.886,2.533-12.185,5.784-15.542,11.228-.35.577-.674,1.189-.933,1.769-1.708,3.622-1.64,7.07.178,10.014,2.481,4.014,7.881,6.699,13.755,6.836,1.528.025,3.566.173,5.903.342,9.284.688,26.569,1.949,29.035-5.301.701-2.101.697-4.403.622-7.196-.002-.847-.032-1.604-.065-2.386l-.011-.252c-.151-7.535-.456-15.066-.76-22.59-.423-10.497-.863-21.351-.863-32.028,0-.995.047-2.122.099-3.33.186-4.4.441-10.425-1.966-12.973-1.834-1.982-7.54-1.488-12.248.108Z"/>
      </g>
      <g>
        <g>
          <path class="cls-4" d="M127.912,270.648c.777-2.697,2.831-4.979,5.379-6.031.315-.129.651-.228.987-.326-.707-1.082-1.383-2.184-2.039-3.256-8.16-13.742-9.181-30.468-14.48-45.525-2.103-5.998-6.854-7.144-12.239-4.03-4.119,2.414-4.854,6.205-5.781,10.625-2.665,12.458-3.314,25.358-1.932,38.014.767,6.792,2.159,13.644,5.338,19.703.213.436.478.881.721,1.296,1.734-2.419,4.361-4.2,7.289-4.707,2.275-.413,4.924.037,6.251,1.946-.34-2.235.596-4.638,2.381-6.014,1.764-1.406,4.316-1.742,6.412-.862.35.116.764.323,1.139.152.324-.18.48-.603.575-.984Z"/>
          <path class="cls-7" d="M111.155,276.409c-2.928.507-5.555,2.288-7.289,4.707,3.198,5.506,8.12,10.129,14.166,12.038,6.49,2.095,14.351.54,18.743-4.715,2.561-3.039,3.832-7.158,3.407-11.132-.492-4.781-3.224-8.904-5.904-13.018-.336.099-.672.197-.987.326-2.549,1.053-4.603,3.334-5.379,6.031-.095.381-.251.803-.575.984-.375.171-.789-.036-1.139-.152-2.095-.88-4.648-.544-6.412.862-1.785,1.376-2.721,3.779-2.381,6.014-1.327-1.909-3.977-2.359-6.251-1.946Z"/>
        </g>
        <path d="M123.802,296.269c-2.157,0-4.34-.324-6.45-1.005-6.18-1.953-11.654-6.584-15.401-13.034-.294-.501-.569-.977-.795-1.441-3.699-7.045-4.94-15.03-5.549-20.421-1.416-12.973-.755-25.999,1.966-38.727.971-4.63,1.931-9.2,6.829-12.072,3.449-1.996,6.755-2.504,9.578-1.452,1.852.685,4.375,2.396,5.87,6.659,2.016,5.73,3.434,11.737,4.805,17.542,2.339,9.906,4.548,19.264,9.488,27.585.629,1.027,1.294,2.112,1.989,3.175l.002.004-1.856,1.207,1.991-1.002c2.742,4.209,5.578,8.562,6.115,13.794.492,4.587-.935,9.25-3.915,12.785-3.434,4.108-8.953,6.403-14.666,6.403ZM110.941,212.012c-1.542,0-3.128.699-4.313,1.384-3.195,1.87-3.816,4.839-4.677,8.944-2.668,12.493-3.306,25.048-1.942,37.538.903,7.996,2.522,14.007,5.097,18.915.207.418.427.789.631,1.135,3.236,5.575,7.825,9.495,12.962,11.117,6.043,1.949,12.767.292,16.378-4.025,2.18-2.587,3.263-6.126,2.904-9.477-.429-4.176-2.854-7.895-5.421-11.837l1.719-1.416-1.854,1.211c-.717-1.099-1.407-2.22-2.074-3.308-5.301-8.929-7.693-19.059-10.005-28.857-1.344-5.694-2.735-11.582-4.674-17.091-.744-2.119-1.831-3.456-3.229-3.975-.485-.18-.991-.256-1.501-.256Z"/>
        <g>
          <path class="cls-5" d="M107.492,200.371c-3.843,4.634-6.252,10.137-8.982,16.653,9.911,7.214,20.478,13.525,31.528,18.83,3.365-4.613,2.243-3.587,4.473-8.844,3.873-9.131,7.288-19.36,4.2-28.785-3.509-10.71-13.743-10.26-22.066-5.466-3.87,2.229-6.784,4.755-9.153,7.612Z"/>
          <path d="M130.036,238.066c-.323,0-.649-.068-.957-.216-11.153-5.355-21.877-11.758-31.873-19.034-.831-.605-1.135-1.701-.739-2.645,2.958-7.07,5.36-12.439,9.319-17.214h.002c2.674-3.223,5.863-5.877,9.753-8.117,6.066-3.494,12.292-4.445,17.077-2.613,3.85,1.474,6.684,4.694,8.198,9.31,3.294,10.05-.105,20.522-4.267,30.338-.661,1.557-1.018,2.544-1.286,3.294-.726,2.011-1.016,2.674-3.436,5.989-.429.587-1.101.908-1.791.908ZM101.233,216.261c8.87,6.335,18.306,11.974,28.093,16.785,1.139-1.629,1.308-2.101,1.771-3.38.288-.8.67-1.856,1.377-3.521,3.825-9.023,6.975-18.565,4.133-27.232-1.099-3.351-2.973-5.557-5.571-6.551-3.485-1.333-8.45-.47-13.286,2.315-3.425,1.973-6.223,4.297-8.555,7.104h0c-3.276,3.949-5.454,8.558-7.962,14.479Z"/>
        </g>
      </g>
      <g>
        <path class="cls-2" d="M224.234,262.138c5.076,13.148,11.037,25.954,17.83,38.303-21.725,11.636-47.293,12.989-71.913,14.093-24.62-1.104-50.188-2.457-71.913-14.093,6.792-12.349,12.754-25.155,17.83-38.303h108.166Z"/>
        <path d="M170.249,316.744c-23.761-1.056-50.469-2.252-73.056-14.349-.523-.281-.91-.757-1.077-1.322-.168-.569-.103-1.178.182-1.697,6.726-12.23,12.683-25.03,17.704-38.035.33-.854,1.15-1.416,2.065-1.416h108.168c.915,0,1.737.562,2.065,1.416,5.016,12.998,10.973,25.797,17.704,38.035.285.519.353,1.128.184,1.697-.169.566-.555,1.041-1.077,1.322-22.59,12.097-49.298,13.293-72.861,14.349ZM101.266,299.516c21.298,10.67,46.59,11.801,68.984,12.803,22.201-1.002,47.489-2.137,68.789-12.803-6.14-11.358-11.621-23.17-16.317-35.167h-105.139c-4.701,12.003-10.182,23.816-16.317,35.167Z"/>
      </g>
      <g>
        <g>
          <path class="cls-5" d="M219.594,230.211c-2.449-10.203-4.14-20.769-9.014-30.061-4.874-9.292-13.832-17.309-24.321-17.572-4.376-.11-11.738,2.085-16.128,1.832-4.389.253-11.754-1.942-16.128-1.832-10.49.263-19.448,8.279-24.321,17.572-4.874,9.292-6.565,19.858-9.014,30.061-2.345,9.761-5.436,26.066-9.242,35.359-1.939,6.605,120.649,7.908,117.408-.005-3.805-9.288-6.896-25.593-9.24-35.354Z"/>
          <path d="M171.375,273.239c-27.671,0-55.685-1.647-60.643-4.926-1.879-1.243-1.571-2.89-1.431-3.366,2.906-7.124,5.402-18.327,7.409-27.329.643-2.894,1.245-5.596,1.805-7.924.474-1.978.921-3.967,1.366-5.957,1.859-8.295,3.78-16.875,7.841-24.615,4.65-8.868,13.983-18.452,26.226-18.758,2.297-.072,5.144.427,8.142.941,2.892.497,5.892,1.034,7.913.894,2.301.13,5.276-.396,8.167-.892,2.996-.515,5.839-1.009,8.144-.942,12.241.306,21.574,9.89,26.226,18.758,4.061,7.748,5.985,16.331,7.845,24.63.443,1.986.886,3.971,1.359,5.939h0c.562,2.342,1.168,5.056,1.816,7.957,2.004,8.991,4.497,20.18,7.322,27.077.411,1.009.353,2.497-1.052,3.654-3.949,3.243-31.033,4.861-58.456,4.861ZM114.004,265.063c11.805,4.915,101.957,5.175,112.364.288-2.789-7.261-5.185-18.017-7.131-26.738-.638-2.879-1.24-5.567-1.795-7.884v-.004c-.479-1.989-.93-3.996-1.377-6.003-1.798-8.021-3.654-16.313-7.445-23.545-4.068-7.751-12.093-16.127-22.417-16.387-1.897-.027-4.629.425-7.283.881-3.14.539-6.4,1.094-8.917.95-2.279.142-5.522-.411-8.663-.95-2.652-.458-5.398-.921-7.281-.881-10.326.259-18.351,8.636-22.417,16.387-3.789,7.225-5.645,15.513-7.441,23.527-.45,2.014-.901,4.025-1.38,6.021-.555,2.313-1.151,4.991-1.791,7.856-1.919,8.616-4.281,19.214-7.027,26.482ZM226.783,266.404h.04-.04Z"/>
        </g>
        <g>
          <path class="cls-2" d="M166.689,220.387c.316.301.652.615.778,1.033.134.446.002.923-.131,1.369-2.144,7.189-4.544,14.302-7.193,21.321-.203.538-.411,1.094-.379,1.668.034.612.336,1.172.635,1.707,2.434,4.339,5.193,8.495,8.247,12.422.324.417.667.844,1.137,1.083,3.68,1.871,7.798-6.815,9.146-9.066,1.686-2.816,2.939-5.241,2.216-8.617-.681-3.177-2.513-5.999-3.642-9.019-1.361-3.641-3.22-8.07-3.343-11.965-.02-.637.399-1.196.805-1.688,1.378-1.67,2.857-3.287,3.864-5.204,1.007-1.916,1.5-4.224.77-6.262-1.816-5.069-8.892-5.045-12.306-1.741-1.412,1.367-2.727,3.38-3.857,4.975-2.149,3.035.904,5.741,3.253,7.983Z"/>
          <path d="M170.914,263.503c-.69,0-1.402-.166-2.135-.537-.935-.483-1.506-1.214-1.883-1.701-3.112-4.003-5.948-8.274-8.429-12.695-.339-.605-.85-1.521-.915-2.67-.056-1.045.276-1.928.517-2.569,2.625-6.955,5.029-14.079,7.144-21.178.009-.029.02-.058.029-.086-.023-.022-.047-.043-.068-.065-.002-.004-.011-.011-.013-.011l.142-.151c.002-.018.005-.032.007-.05,0,0,.004.011.009.032l1.369-1.434-1.789,1.351c-2.413-2.292-6.447-6.126-3.27-10.612l.542-.775c1.049-1.506,2.238-3.214,3.582-4.515,2.474-2.393,6.452-3.456,9.899-2.659,2.921.681,5.063,2.544,6.03,5.247.87,2.432.551,5.286-.894,8.039-.951,1.813-2.218,3.315-3.441,4.771l-.677.811c-.236.288-.312.407-.335.458.135,2.832,1.526,6.494,2.755,9.726l.486,1.286c.404,1.081.904,2.133,1.405,3.189.908,1.921,1.849,3.91,2.326,6.137.886,4.14-.598,7.077-2.481,10.223-.162.27-.368.645-.611,1.081-1.894,3.42-5.185,9.358-9.302,9.358ZM168.221,218.787c.425.404,1.07,1.016,1.366,1.986.332,1.117.031,2.115-.13,2.652-2.144,7.193-4.582,14.418-7.243,21.466-.088.234-.24.634-.24.771.016.133.256.559.357.742,2.373,4.227,5.085,8.313,8.063,12.144.099.126.324.418.422.486.114.061,1.396.429,5.528-7.034.272-.494.504-.908.686-1.214,1.535-2.566,2.501-4.44,1.949-7.016-.369-1.726-1.162-3.402-2-5.171-.553-1.171-1.103-2.339-1.55-3.535l-.477-1.261c-1.351-3.557-2.883-7.589-3.005-11.409-.047-1.524.87-2.638,1.312-3.171l.701-.836c1.121-1.337,2.18-2.595,2.91-3.985.85-1.618,1.086-3.254.645-4.486-.568-1.586-1.872-2.195-2.865-2.425-2.014-.472-4.403.162-5.816,1.528-1.034,1.002-2.094,2.522-3.029,3.863l-.559.804c-.757,1.067-.175,2.108,2.704,4.847l-1.261,1.856,1.524-1.607-1.524,1.607,1.531-1.6ZM165.448,222.275h.038-.038Z"/>
        </g>
        <g>
          <path class="cls-5" d="M140.855,194.369c-.091,8.609,7.426,17.588,14.293,21.742,2.799,1.693,3.315,2.071,6.132.737,3.533-1.672,6.997-5.25,9.631-7.755,2.864,2.286,5.607,8.237,9.244,9.278,4.772,1.366,11.881-6.679,14.638-9.818,4.036-4.597,6.822-10.367,4.743-16.515-4.252-12.57-18.331-17.489-30.56-16.917-8.712.407-20.178,4.031-25.511,11.38-1.798,2.477-2.582,5.153-2.61,7.866Z"/>
          <path d="M181.292,220.74c-.591.004-1.173-.076-1.746-.238-2.94-.843-5.137-3.73-7.075-6.274-.55-.724-1.083-1.423-1.595-2.032-2.476,2.378-5.468,5.149-8.648,6.652-3.692,1.744-5.052,1.074-8.05-.739-7.883-4.764-15.634-14.385-15.536-23.765h0c.036-3.344,1.056-6.42,3.031-9.142,5.719-7.879,17.781-11.85,27.201-12.29,13-.602,28.17,4.85,32.761,18.417,2.043,6.041.252,12.502-5.178,18.686-4.479,5.103-10.113,10.724-15.164,10.724ZM170.911,206.881c.486,0,.975.159,1.38.483,1.321,1.052,2.479,2.573,3.704,4.184,1.521,1.996,3.243,4.259,4.769,4.695,1.304.386,4.625-.328,12.364-9.149,4.391-4.998,5.841-9.823,4.312-14.344-3.85-11.385-17.018-15.958-28.361-15.416-8.088.378-18.994,3.816-23.821,10.47-1.427,1.964-2.162,4.18-2.187,6.587h0c-.081,7.636,6.753,15.913,13.225,19.823q2.355,1.427,4.038.634c2.778-1.315,5.703-4.133,8.05-6.396l1.002-.962c.425-.404.975-.609,1.526-.609Z"/>
        </g>
        <g>
          <path class="cls-6" d="M198.55,243.3c13.835-.446,15.62-23.207,15.62-23.207l-15.62-8.946-15.62,8.946s1.785,22.76,15.62,23.207Z"/>
          <path class="cls-3" d="M198.55,238.369c9.591-.309,10.829-16.088,10.829-16.088l-10.829-6.202-10.829,6.202s1.238,15.779,10.829,16.088Z"/>
          <path class="cls-5" d="M204.008,232.322c-.263.263-.526.423-.76.454-.249.058-.541.072-.894.043-.378-.029-.613-.16-.732-.366-.13-.191-.191-.454-.191-.805v-5.533c-.144.423-.306.863-.483,1.303-.173.454-.35.908-.526,1.346-.191.468-.368.922-.541,1.362-.177.454-.339.879-.483,1.288-.061.117-.105.234-.133.351-.058.117-.115.234-.177.323-.086.088-.173.16-.277.22-.115.058-.249.086-.411.086-.202,0-.35-.029-.407-.103-.076-.058-.133-.16-.191-.292l-2.313-6.193v5.901c0,.16-.029.292-.058.409-.061.117-.177.249-.353.366-.159.088-.306.177-.454.263-.159.103-.364.177-.598.22l-.587-.395c.014-.045.029-.103.058-.177.018-.043.032-.103.061-.189,0-.074.014-.162.014-.249v-9.326c0-.043-.029-.103-.076-.191-.058-.072-.101-.146-.144-.204l.512-.308c.205.029.44.074.674.117.22.059.44.117.659.191.205.086.378.204.555.321.148.132.263.294.353.499l2.458,6.793,2.548-7.057v.016c.014-.074.029-.148.029-.234,0-.059-.058-.148-.177-.25l.53-.395c.613.074,1.067.191,1.373.337.295.16.454.277.454.351v8.841c0,.117.032.22.09.308.058.103.162.132.321.074l.277.483Z"/>
        </g>
      </g>
      <g>
        <g>
          <g>
            <path class="cls-7" d="M250.993,39.753c.111,1.255.221,2.546.258,3.838l-1.07.074c0,.48-.037.922-.148,1.402-.369,1.808-1.771,3.505-3.579,3.616-1.291.074-2.509-.664-3.432-1.55-1.734-1.587-2.915-3.764-3.284-6.088-1.291,1.255-2.694,2.546-4.428,3.1-1.697.553-3.874.184-4.834-1.365-1.107-1.808-.184-4.17-.701-6.199-1.587,1.181-3.21,2.435-5.129,2.841s-4.243-.258-5.092-2.029c-.48-1.033-.406-2.251-.332-3.395l.553-7.195-1.402-1.181c4.797-5.683,9.778-11.291,14.243-17.232,7.601-10.111,12.066.332,14.243,8.487,1.956,7.528,3.395,15.166,4.133,22.878Z"/>
            <path class="cls-5" d="M242.211,181.3c-.664.59-1.328,1.07-2.029,1.587-6.9,5.055-14.354,9.373-22.14,12.952-15.682,7.159-32.878,11.328-50.147,11.439-17.232-.111-34.428-4.28-50.11-11.439-7.786-3.579-15.24-7.897-22.14-12.952-.664-.517-1.365-.996-2.029-1.587,1.513-.517,3.026-.959,4.576-1.365,5.904-1.513,11.956-2.214,18.044-2.731,17.97-1.439,30.442-10.885,51.66-10.885s33.726,9.446,51.697,10.885c6.052.517,12.14,1.218,18.044,2.731,1.55.406,3.063.849,4.576,1.365Z"/>
            <path class="cls-7" d="M116.235,37.391c-.849,1.771-3.136,2.435-5.055,2.029-1.956-.406-3.579-1.66-5.129-2.841-.517,2.029.406,4.391-.701,6.199-.959,1.55-3.136,1.919-4.871,1.365s-3.1-1.845-4.391-3.1c-.369,2.325-1.55,4.502-3.284,6.088-.959.886-2.14,1.624-3.432,1.55-1.808-.111-3.21-1.808-3.579-3.616-.148-.775-.184-1.587-.074-2.398l-1.107-.074c.037-.959.148-1.882.221-2.841.738-7.712,2.177-15.35,4.133-22.878,2.14-8.155,6.642-18.598,14.243-8.487,4.465,5.941,9.446,11.55,14.243,17.232l-1.402,1.181c.184,2.398.369,4.797.553,7.195.074,1.144.148,2.362-.369,3.395Z"/>
            <path class="cls-4" d="M69.298,147.943c1.365-1.144,3.358-1.365,4.981-2.066-2.546-.295-4.76-2.657-4.723-5.314,0-.517.074-1.033.332-1.476.48-.886,1.476-1.328,2.435-1.66,5.24-1.845,5.978-.996,7.564-6.605,1.291-4.649,2.694-9.225,4.207-13.801,2.952-8.93,6.421-17.712,10.922-25.977-9.336-14.243-11.623-31.734-10.406-48.449l1.107.074c-.111.812-.074,1.624.074,2.398.369,1.808,1.771,3.505,3.579,3.616,1.291.074,2.472-.664,3.432-1.55,1.734-1.587,2.915-3.764,3.284-6.088,1.291,1.255,2.657,2.546,4.391,3.1s3.911.184,4.871-1.365c1.107-1.808.184-4.17.701-6.199,1.55,1.181,3.173,2.435,5.129,2.841,1.919.406,4.207-.258,5.055-2.029.517-1.033.443-2.251.369-3.395-.184-2.398-.369-4.797-.553-7.195l1.402-1.181c.996,1.144,1.956,2.288,2.915,3.432,8.302,9.963,16.605,19.926,24.907,29.889,8.339-1.291,14.206-2.066,22.62-2.103,8.45.037,14.317.812,22.656,2.103,8.302-9.963,16.605-19.926,24.907-29.889.959-1.144,1.919-2.288,2.915-3.432l1.402,1.181-.553,7.195c-.074,1.144-.148,2.362.332,3.395.849,1.771,3.173,2.435,5.092,2.029s3.542-1.66,5.129-2.841c.517,2.029-.406,4.391.701,6.199.959,1.55,3.136,1.919,4.834,1.365,1.734-.553,3.136-1.845,4.428-3.1.369,2.325,1.55,4.502,3.284,6.088.922.886,2.14,1.624,3.432,1.55,1.808-.111,3.21-1.808,3.579-3.616.111-.48.148-.922.148-1.402l1.07-.074c1.07,16.42-1.291,33.505-10.443,47.453,4.502,8.266,7.97,17.048,10.922,25.977,1.513,4.576,2.915,9.151,4.207,13.801,1.587,5.609,2.325,4.76,7.564,6.605.959.332,1.956.775,2.435,1.66.258.443.332.959.332,1.476.037,2.657-2.177,5.018-4.723,5.314,1.624.701,3.616.922,4.981,2.066s1.808,3.284.996,4.908c-1.365,2.731-4.649,1.808-7.159,1.808.664.48,1.365.959,1.919,1.55,1.734,1.808,2.14,4.723.996,6.937-1.181,2.251-3.838,3.579-6.31,3.173.775.111-6.457,8.007-6.974,8.524-2.509,2.288-5.092,4.465-7.786,6.457-1.513-.517-3.026-.959-4.576-1.365-5.904-1.513-11.992-2.214-18.044-2.731-17.97-1.439-30.442-10.885-51.697-10.885s-33.69,9.446-51.66,10.885c-6.088.517-12.14,1.218-18.044,2.731-1.55.406-3.063.849-4.576,1.365-2.694-1.993-5.314-4.17-7.786-6.457-.553-.517-7.786-8.413-6.974-8.524-2.472.406-5.129-.922-6.31-3.173-1.144-2.214-.738-5.129.996-6.937.553-.59,1.255-1.07,1.919-1.55-2.509,0-5.793.922-7.159-1.808-.812-1.624-.369-3.764.996-4.908Z"/>
          </g>
          <path d="M167.909,209.49c-16.962-.108-34.603-4.133-51.044-11.639-8.086-3.715-15.664-8.148-22.529-13.178l-.668-.506c-.512-.382-1.027-.769-1.526-1.214-2.578-1.897-5.261-4.121-7.816-6.484-.068-.063-4.735-4.497-6.769-7.875-2.858-.153-5.623-1.849-6.971-4.418-1.184-2.292-1.186-5.021-.135-7.299-1.596-.286-3.149-1.076-4.13-3.034-1.263-2.528-.595-5.793,1.553-7.594.405-.339.832-.614,1.268-.845-1.139-1.348-1.825-3.068-1.8-4.87,0-.98.207-1.827.632-2.558.814-1.504,2.367-2.204,3.627-2.64.93-.326,1.731-.575,2.422-.787q2.751-.85,3.735-4.326c1.268-4.567,2.654-9.115,4.234-13.895,3.267-9.881,6.605-17.926,10.459-25.185-8.081-12.944-11.461-29.322-10.048-48.707.022-.595.081-1.25.141-1.91l.083-.941c.713-7.475,2.124-15.29,4.196-23.266,2.303-8.776,5.357-13.421,9.333-14.201,2.955-.591,5.922,1.083,8.823,4.942,3.375,4.49,7.128,8.881,10.755,13.128l3.411,4.005c.937,1.077,1.863,2.18,2.789,3.281l24.241,29.091c7.322-1.122,13.383-1.903,21.709-1.94,8.378.038,14.445.818,21.769,1.94l24.374-29.248c.879-1.049,1.762-2.099,2.674-3.148l3.373-3.96c3.636-4.254,7.394-8.652,10.774-13.149,2.897-3.856,5.856-5.508,8.8-4.946,3.946.766,7.005,5.407,9.355,14.191,2.076,8.007,3.485,15.821,4.194,23.239.115,1.312.231,2.65.267,3.987,1.232,18.886-2.158,34.921-10.09,47.611,3.852,7.252,7.189,15.297,10.457,25.185,1.578,4.769,2.966,9.317,4.241,13.904q.98,3.467,3.733,4.317c.688.213,1.492.461,2.432.793,1.247.431,2.8,1.131,3.647,2.694.393.679.598,1.524.598,2.53.025,1.786-.659,3.497-1.798,4.839.436.231.865.506,1.268.843,2.148,1.804,2.814,5.068,1.553,7.594-.98,1.959-2.533,2.748-4.126,3.034,1.045,2.274,1.049,5.005-.133,7.29-1.351,2.58-4.122,4.277-6.984,4.429-1.694,2.807-5.247,6.36-6.703,7.816-2.822,2.58-5.402,4.722-7.957,6.614-.641.564-1.283,1.04-1.96,1.537-7.023,5.146-14.601,9.578-22.677,13.292-16.446,7.506-34.102,11.531-51.058,11.639ZM81.039,165.952c1.081,1.575,5.501,6.497,6.308,7.279,2.422,2.24,4.978,4.36,7.585,6.288.557.485.975.793,1.384,1.099l.69.523c6.571,4.814,13.891,9.095,21.702,12.684,15.872,7.247,32.887,11.131,49.2,11.239,16.308-.108,33.336-3.993,49.213-11.241,7.802-3.585,15.124-7.866,21.751-12.722.739-.544,1.301-.955,1.863-1.454.05-.045.105-.088.159-.128,2.454-1.814,4.944-3.879,7.611-6.313.616-.625,5.185-5.681,6.288-7.288.209-1.164,1.297-1.969,2.494-1.791.014.002.029.004.043.007h0c1.542.243,3.254-.611,3.989-2.016.71-1.373.44-3.259-.631-4.376-.422-.447-.93-.793-1.416-1.142-.782-.56-1.211-1.631-.919-2.548.295-.915,1.049-1.607,2.011-1.607.544,0,1.124.038,1.712.079,2.447.164,3.121.036,3.467-.665.35-.695.144-1.733-.436-2.222-.544-.456-1.456-.733-2.418-1.027-.692-.211-1.38-.427-2.022-.703-.919-.398-1.456-1.364-1.312-2.357.148-.991.941-1.76,1.939-1.876,1.492-.171,2.782-1.613,2.764-3.083,0-.312-.04-.405-.043-.411-.054-.099-.234-.317-1.236-.663-.89-.314-1.636-.544-2.281-.742-4.029-1.245-5.214-2.13-6.688-7.353-1.261-4.526-2.627-9.007-4.18-13.708-3.358-10.16-6.778-18.299-10.767-25.614-.389-.717-.353-1.591.094-2.274,7.902-12.039,11.293-27.547,10.086-46.094-.04-1.33-.148-2.575-.256-3.785-.685-7.173-2.054-14.755-4.068-22.518-2.04-7.636-4.393-10.677-5.913-10.971-1.07-.216-2.703.973-4.418,3.258-3.463,4.609-7.268,9.061-10.947,13.367l-3.376,3.964c-.915,1.054-1.78,2.085-2.649,3.117l-25.161,30.194c-.495.595-1.267.892-2.04.769-7.946-1.231-13.792-2.04-22.329-2.077-8.483.038-14.326.847-22.27,2.077-.777.119-1.546-.175-2.04-.769l-24.907-29.889c-1.034-1.232-1.942-2.315-2.885-3.396l-3.414-4.012c-3.672-4.297-7.47-8.742-10.928-13.344-1.717-2.283-3.337-3.474-4.431-3.258-1.54.303-3.901,3.346-5.903,10.976-2.013,7.746-3.382,15.326-4.07,22.527l-.083.966c-.054.58-.108,1.157-.13,1.748-1.386,19.034,1.995,34.871,10.045,47.152.447.683.483,1.557.092,2.274-3.989,7.322-7.409,15.461-10.764,25.614-1.559,4.71-2.924,9.191-4.176,13.699-1.479,5.232-2.663,6.117-6.692,7.362-.643.198-1.391.429-2.27.739-1.011.35-1.193.568-1.225.625-.027.049-.063.142-.063.422-.022,1.501,1.268,2.942,2.762,3.113.995.115,1.789.885,1.937,1.876.146.991-.391,1.959-1.312,2.357-.64.276-1.328.492-2.02.703-.964.294-1.874.571-2.42,1.029-.58.486-.786,1.526-.438,2.222.35.697,1.025.823,3.468.663.587-.041,1.168-.079,1.712-.079.96,0,1.813.62,2.106,1.533.295.915-.032,1.915-.811,2.477-.699.501-1.2.841-1.598,1.267-1.092,1.137-1.36,3.023-.645,4.407.73,1.395,2.47,2.247,3.982,2.005h0c.02-.004.04-.007.059-.009,1.186-.164,2.288.649,2.485,1.827Z"/>
        </g>
        <path d="M179.581,158.741c0,6.445-5.225,10.542-11.67,10.542s-11.67-4.097-11.67-10.542,5.225-7.98,11.67-7.98,11.67,1.535,11.67,7.98Z"/>
        <g>
          <g>
            <g>
              <path class="cls-8" d="M147.71,142.297c.295,3.247-.738,6.642-2.62,9.188-3.358,4.465-9.373,5.055-14.317,3.764-4.797-1.255-9.594-4.391-11.218-9.262-.59-1.808-.812-3.469-.701-4.981l.406.037c3.21,0,6.457,0,9.705.037-.258,3.284,2.14,6.716,5.424,7.159,3.247.443,6.679-2.657,6.088-5.941,2.398.111,4.834.111,7.232,0Z"/>
              <path class="cls-1" d="M146.64,138.349c.627,1.218.996,2.583,1.07,3.948-2.398.111-4.834.111-7.232,0,.59,3.284-2.841,6.384-6.088,5.941-3.284-.443-5.683-3.874-5.424-7.159-3.247-.037-6.494-.037-9.705-.037l-.406-.037c.517-8.302,10.443-12.325,18.413-10.406,4.059.996,7.491,4.059,9.373,7.749Z"/>
            </g>
            <path d="M135.349,158.055c-1.791,0-3.544-.249-5.137-.665-6.304-1.649-11.074-5.65-12.758-10.702-.67-2.059-.941-4.02-.809-5.843.236-3.767,2.074-7.038,5.319-9.434,4.198-3.103,10.411-4.261,15.823-2.964,4.504,1.106,8.547,4.431,10.827,8.897.755,1.467,1.207,3.126,1.304,4.793.328,3.715-.782,7.6-3.049,10.665-2.908,3.868-7.31,5.254-11.52,5.254ZM133.189,132.337c-3.144,0-6.283.928-8.594,2.636-1.504,1.112-3.339,3.083-3.531,6.169-.092,1.272.11,2.663.596,4.158,1.42,4.258,5.928,6.827,9.674,7.805,3.948,1.034,9.169.796,11.987-2.951,1.602-2.168,2.423-5.036,2.184-7.657l-.005-.081c-.058-1.059-.342-2.115-.825-3.052-1.706-3.342-4.67-5.812-7.933-6.614-1.153-.277-2.353-.413-3.551-.413Z"/>
          </g>
          <circle class="cls-5" cx="135.576" cy="137.618" r="2.352"/>
          <path d="M115.588,140.748c-.544,0-1.104-.065-1.668-.216-1.396-.377-3.321-1.447-4.564-4.409-.474-1.128.058-2.425,1.184-2.899,1.139-.476,2.427.058,2.899,1.184.44,1.05.987,1.67,1.625,1.847,1.184.31,2.876-.641,3.373-1.007.978-.726,2.364-.519,3.094.454.728.977.537,2.353-.436,3.088-.306.232-2.69,1.959-5.506,1.959Z"/>
        </g>
        <g>
          <g>
            <g>
              <path class="cls-8" d="M216.265,145.987c.59-1.808.812-3.469.701-4.981l-.406.037c-3.21,0-6.457,0-9.705.037.258,3.284-2.14,6.716-5.424,7.159-3.247.443-6.679-2.657-6.088-5.941-2.398.111-4.834.111-7.232,0-.295,3.247.738,6.642,2.62,9.188,3.358,4.465,9.373,5.055,14.317,3.764,4.797-1.255,9.594-4.391,11.218-9.262Z"/>
              <path class="cls-1" d="M216.966,141.006c-.517-8.302-10.443-12.325-18.413-10.406-4.059.996-7.491,4.059-9.373,7.749-.627,1.218-.996,2.583-1.07,3.948,2.398.111,4.834.111,7.232,0-.59,3.284,2.841,6.384,6.088,5.941,3.284-.443,5.683-3.874,5.424-7.159,3.247-.037,6.494-.037,9.705-.037l.406-.037Z"/>
            </g>
            <path d="M200.47,158.057c-4.211,0-8.609-1.384-11.51-5.243-2.276-3.077-3.384-6.962-3.059-10.675.095-1.665.55-3.324,1.312-4.803,2.274-4.458,6.317-7.782,10.812-8.884,5.425-1.313,11.63-.141,15.832,2.96,3.243,2.395,5.081,5.665,5.319,9.456.133,1.796-.137,3.758-.807,5.809-1.686,5.067-6.457,9.068-12.764,10.715-1.589.416-3.348.667-5.135.667ZM202.632,132.339c-1.2,0-2.404.135-3.56.414-3.254.798-6.218,3.267-7.919,6.603-.488.946-.775,2.002-.832,3.059l-.005.081c-.238,2.622.584,5.49,2.195,7.672,2.811,3.737,8.029,3.973,11.978,2.937,3.744-.978,8.252-3.546,9.675-7.818.486-1.486.688-2.876.595-4.121-.195-3.112-2.029-5.085-3.531-6.194-2.31-1.706-5.448-2.634-8.594-2.634ZM188.11,142.297h.036-.036Z"/>
          </g>
          <circle class="cls-5" cx="200.245" cy="137.618" r="2.352"/>
          <path d="M220.235,140.748c-2.818,0-5.2-1.726-5.506-1.959-.977-.737-1.171-2.126-.432-3.101.732-.971,2.112-1.166,3.092-.441h0c.494.368,2.198,1.322,3.369,1.007.638-.177,1.182-.796,1.622-1.845.472-1.13,1.762-1.658,2.901-1.186,1.124.472,1.658,1.769,1.186,2.897-1.243,2.964-3.167,4.034-4.562,4.411-.566.151-1.124.216-1.668.216Z"/>
        </g>
        <path class="cls-5" d="M200.427,110.58c-3.749-1.191-8.015-.924-11.409,1.065-.68.399-1.338.878-1.765,1.54-1.262,1.956.003,4.66,1.861,6.063,3.836,2.897,18.219,11.83,21.672,5.181,3.179-6.121-5.675-12.327-10.36-13.849Z"/>
        <path class="cls-5" d="M135.394,110.58c3.749-1.191,8.015-.924,11.409,1.065.68.399,1.338.878,1.765,1.54,1.262,1.956-.003,4.66-1.861,6.063-3.836,2.897-18.219,11.83-21.672,5.181-3.179-6.121,5.675-12.327,10.36-13.849Z"/>
        <g>
          <path class="cls-5" d="M208.288,63.5s6.59-5.117,8.73-2.132-.958,8.102-.958,8.102c0,0,11.069-1.706,8.363,2.132l-2.706,3.838s6.396,3.838,8.528,5.97c2.132,2.132,13.645-34.539,7.249-46.905,0,0-2.132-2.132-4.691,0s-24.515,28.996-24.515,28.996Z"/>
          <path d="M230.44,83.71c-.645,0-1.272-.247-1.762-.735-1.589-1.589-6.385-4.607-8.101-5.636-.53-.317-.901-.84-1.027-1.441s0-1.231.357-1.733l1.993-2.827c-1.38-.092-3.542.018-5.506.319-.836.142-1.69-.241-2.169-.955-.479-.712-.504-1.638-.061-2.375.728-1.22,2.007-4.34,1.056-5.668-.613-.254-3.34.865-5.578,2.591-.883.688-2.151.602-2.94-.205-.786-.807-.84-2.074-.13-2.946,2.263-2.766,22.172-27.091,24.817-29.295,3.009-2.515,6.234-1.301,7.672.137.159.16.295.344.4.546,6.367,12.315-3.139,46.552-7.427,49.687-.494.36-1.049.537-1.593.537ZM224.88,74.793c1.517.96,3.578,2.315,5.196,3.567,2.998-6.477,10.227-32.527,5.639-42.449-.656-.398-1.254.094-1.495.294-1.402,1.169-10.753,12.335-18.749,22.034.112.007.223.02.335.036,1.254.182,2.295.805,3.009,1.804,1.513,2.11,1.326,4.703.739,6.796,3.766-.178,6.101.501,7.045,2.029.342.551.995,2.047-.368,3.975l-1.351,1.915Z"/>
        </g>
        <g>
          <path class="cls-5" d="M127.531,63.5s-6.59-5.117-8.73-2.132.958,8.102.958,8.102c0,0-11.069-1.706-8.363,2.132l2.706,3.838s-6.396,3.838-8.528,5.97c-2.132,2.132-13.645-34.539-7.249-46.905,0,0,2.132-2.132,4.691,0,2.558,2.132,24.515,28.996,24.515,28.996Z"/>
          <path d="M105.381,83.71c-.546,0-1.103-.177-1.595-.537-4.288-3.139-13.794-37.377-7.427-49.687.105-.202.24-.386.4-.548,1.431-1.434,4.658-2.65,7.675-.135,2.645,2.204,22.551,26.529,24.81,29.295.713.872.658,2.139-.128,2.946-.782.805-2.054.897-2.94.205-2.232-1.724-4.948-2.859-5.602-2.575-.939,1.328.346,4.436,1.079,5.647.445.737.425,1.663-.054,2.378-.479.712-1.324,1.068-2.177.959-1.957-.299-4.115-.409-5.497-.321l1.986,2.827c.355.503.485,1.131.357,1.733-.126.602-.499,1.124-1.027,1.441-1.713,1.029-6.513,4.047-8.101,5.636-.488.488-1.117.735-1.76.735ZM100.095,35.926c-4.575,9.937,2.65,35.965,5.648,42.435,1.62-1.252,3.679-2.607,5.196-3.567l-1.351-1.915c-1.36-1.928-.71-3.423-.368-3.975.946-1.528,3.322-2.207,7.043-2.029-.586-2.094-.775-4.686.741-6.796.713-.996,1.753-1.622,3.007-1.804.11-.016.223-.029.335-.036-7.994-9.699-17.344-20.864-18.747-22.034-.232-.198-.827-.69-1.504-.279Z"/>
        </g>
        <path d="M181.472,183.188h-27.965c-1.223,0-2.214-.991-2.214-2.214s.991-2.214,2.214-2.214h27.965c1.223,0,2.214.991,2.214,2.214s-.991,2.214-2.214,2.214Z"/>
      </g>
    </g>
  </g>
</svg>