<?xml version="1.0" encoding="utf-8"?>
<!-- Generator: Adobe Illustrator 23.0.3, SVG Export Plug-In . SVG Version: 6.00 Build 0)  -->
<svg version="1.1" id="Layer_1" xmlns="http://www.w3.org/2000/svg" xmlns:xlink="http://www.w3.org/1999/xlink" x="0px" y="0px"
	 viewBox="0 0 119 119" style="enable-background:new 0 0 119 119;" xml:space="preserve">
<style type="text/css">
	.st0{fill:#FFFFFF;}
	.st1{fill:#4F80FF;}
</style>
<title>toolbar / btn / redo copy</title>
<desc>Created with Sketch.</desc>
<g>
	<g>
		<path id="Rectangle-11-Copy" class="st0" d="M59.5,0L59.5,0C92.4,0,119,26.6,119,59.5l0,0c0,32.9-26.6,59.5-59.5,59.5l0,0
			C26.6,119,0,92.4,0,59.5l0,0C0,26.6,26.6,0,59.5,0z"/>
		<path id="Combined-Shape-Copy" class="st1" d="M58.1,33.9c0-1.7-2-2.5-3.2-1.3l-26.4,26c-0.8,0.8-0.7,2,0.1,2.7L55,83.5
			c1.2,1,3.1,0.2,3.1-1.4V68.9C69,66.2,79,70.9,88.6,83.3c1.2,1.5,3.7,0.5,3.4-1.4c-3.3-18.9-13.5-32.5-33.9-34.7V33.9z"/>
	</g>
</g>
</svg>
