<?xml version="1.0" encoding="utf-8"?>
<!-- Generator: Adobe Illustrator 22.0.1, SVG Export Plug-In . SVG Version: 6.00 Build 0)  -->
<svg version="1.1" id="레이어_1" xmlns="http://www.w3.org/2000/svg" xmlns:xlink="http://www.w3.org/1999/xlink" x="0px"
	 y="0px" viewBox="0 0 252 386" style="enable-background:new 0 0 252 386;" xml:space="preserve">
<style type="text/css">
	.st0{fill:#008AC4;}
	.st1{fill:#0078AB;}
	.st2{fill:#FFFFFF;}
	.st3{fill:#00A2E7;}
	.st4{fill:#008BC7;}
	.st5{fill:#673101;}
	.st6{fill:#FFB400;}
	.st7{fill:#DD9900;}
	.st8{fill:#FFE4A9;}
	.st9{fill:#FFC0BB;}
</style>
<title>자산 7</title>
<g>
	<path class="st0" d="M59.3,329.3c-0.5,0.1-0.9,0.2-1.4,0.3c-11.5,3.2-18.3,15.1-15.1,26.6h49V290H81.7v41.6c0,0-12.4-4.3-22-2.4
		L59.3,329.3L59.3,329.3z"/>
	<g>
		<path class="st1" d="M46.8,337.2c1.4-1.8,3.1-3.3,5-4.6c6.5-0.7,10.2,1.3,10.6,1.6l-2.1,3.1C56,335.3,51.1,335.3,46.8,337.2z"/>
		<path class="st1" d="M42.1,348.4c0.1-1.7,0.5-3.4,1.1-5c9.7-2.5,14.4,0.4,14.9,0.8l-2.5,3.7C55.6,347.8,51.4,345.4,42.1,348.4z"/>
	</g>
	<path class="st2" d="M86.7,240.6c-2.8,0.1-5,2.3-5,5.1V290h10v-44.4C91.7,242.8,89.5,240.6,86.7,240.6L86.7,240.6z"/>
</g>
<g>
	<path class="st2" d="M123.2,240.7c-2.8,0-5,2.2-5,5V290h10.1v-44.4c0-2.8-2.2-5-5-5C123.3,240.6,123.2,240.6,123.2,240.7z"/>
	<path class="st3" d="M78.6,350.7c0,1.9,0.3,3.7,0.8,5.5h49V290h-10.1v41.6c0,0-12.4-4.3-22-2.4l-0.4,0.1
		C85.8,331.5,78.6,340.4,78.6,350.7z"/>
	<g>
		<path class="st4" d="M83.3,337.2c1.4-1.8,3.1-3.3,5-4.6c6.6-0.7,10.3,1.3,10.7,1.6l-2.2,3.1C92.6,335.3,87.7,335.3,83.3,337.2z"/>
		<path class="st4" d="M78.7,348.4c0.2-1.7,0.5-3.4,1.1-5c9.7-2.5,14.3,0.4,14.9,0.8l-2.5,3.7C92.2,347.8,88,345.4,78.7,348.4z"/>
	</g>
</g>
<g>
	<path class="st2" d="M132.1,78.1c-2.5-11,2.6-21.5,3.2-22.7l0.3-0.5c5.7-9.6,13-12.1,18.1-12.5c14.1-1.1,26,12.8,27.3,14.4
		c3,3.8,2.5,9.3-1.2,12.5c-3.8,3.3-9.6,2.9-12.9-0.9c-2.8-3.3-8.7-8.1-11.9-7.8c-1.4,0.1-2.8,2-3.6,3.3c-0.7,1.5-2.5,6.4-1.6,10.3
		l0,0c1.1,4.9-2,9.8-6.9,10.9l-0.3,0.1C137.7,86.1,133,83.1,132.1,78.1z"/>
	<path class="st5" d="M163.2,64.9c1.3,1.1,2.6,2.3,3.7,3.6c3.2,3.7,8.7,4.2,12.5,1.2c4-3.1,4.7-8.8,1.6-12.8
		c-2.1-2.4-4.4-4.7-6.9-6.7c-0.2,0-0.3,0-0.5,0c-2,0.4-3.3,2.3-2.9,4.3c0.2,0.8,0.6,1.6,1.3,2.1c-0.8-0.5-1.7-0.7-2.6-0.5
		c-0.9,0.2-1.8,0.7-2.3,1.5c-1.2,1.7-0.8,4,0.9,5.1c-0.7-0.3-1.4-0.4-2.1-0.3C164.6,62.6,163.6,63.6,163.2,64.9z"/>
</g>
<g>
	<path class="st2" d="M124,73.2c5.4-10,3.4-21.6,3.2-22.9l-0.1-0.6c-2.8-10.9-9.1-15.4-14-17.2c-13.3-5-28.7,5.1-30.4,6.3
		c-3.9,2.9-4.9,8.3-2.3,12.4c2.8,4.3,8.4,5.5,12.7,2.8c3.6-2.4,10.6-5.4,13.6-4.2c1.4,0.4,2.2,2.7,2.6,4.2c0.3,1.6,0.6,6.9-1.3,10.4
		c-2.4,4.4-0.7,10,3.7,12.4l0.3,0.1C116.4,79.1,121.8,77.5,124,73.2z"/>
	<path class="st5" d="M97.9,51.7c-1.6,0.7-3.1,1.5-4.6,2.5c-4.2,2.9-9.9,1.8-12.8-2.4c-2.9-4.2-1.8-9.9,2.4-12.8
		c2.7-1.8,5.6-3.3,8.6-4.6c0.2,0,0.3,0,0.4,0.1c0.8,0.4,1.5,1.1,1.8,1.9c0.8,1.8-0.1,4-2,4.7c0.8-0.3,1.8-0.2,2.6,0.2
		c0.8,0.4,1.5,1.2,1.8,2.1c0.7,1.9-0.4,4-2.3,4.7c0.7-0.1,1.4,0,2.1,0.3C97,49,97.8,50.2,97.9,51.7z"/>
</g>
<g>
	<path class="st3" d="M160.4,99v115.1c0,20.7-25.4,37.6-56.7,37.6S47,234.9,47,214.1v-62.4l21.1-87.2c23.1-10.5,37.8-8.7,37.8-8.7
		C160.4,55.7,160.4,99,160.4,99z"/>
	<path class="st0" d="M50.3,226.9c-2.1-3.9-3.3-8.3-3.3-12.7V163c9.9,0,18,8.1,18,18v28.1l0,0C65,217.8,58.9,225.3,50.3,226.9z"/>
</g>
<g>
	<path class="st6" d="M160.6,166.2v3.2h10.6c3.6,2.1,2.7,6,2.2,8.4c-3.8,7.2-4,15.8-0.5,23.1c6.1,12.8,21.4,18.2,34.2,12.1
		c12.8-6.1,18.2-21.4,12.1-34.2l0,0c-0.2-0.3-0.3-0.5-0.4-0.7c-0.1-0.2-0.2-0.4-0.3-0.6c-4.4-8.4-8.8-11.2-8.8-11.2
		c6.2-4.9,9.7-13.6,10-14.4l0,0v-0.1l0,0c2.8-6.9,2.6-14.6-0.7-21.2c-6.2-12.7-21.6-17.9-34.3-11.7s-18,21.6-11.7,34.3l0,0
		c0,0,2.5,6.8-1.9,9.7h-10.6L160.6,166.2L160.6,166.2z M196.6,136.2c6.5,0,8.9,3.3,8.9,9.8s-2.4,10.5-8.9,10.5s-9.1-4-9.1-10.5
		S190.1,136.2,196.6,136.2L196.6,136.2z M196.6,195.4c-6.5,0-9.1-3.3-9.1-9.8s2.6-10.5,9.1-10.5s8.9,4,8.9,10.5
		S203.1,195.4,196.6,195.4L196.6,195.4z"/>
	<path class="st7" d="M158.9,158.2c0-0.9,0.7-1.6,1.6-1.6l0,0l0,0c0.9,0,1.6,0.7,1.6,1.6v15.2l0,0c0,0.9-0.7,1.6-1.6,1.6l0,0
		c-0.9,0-1.6-0.7-1.6-1.6V158.2z"/>
	<path class="st8" d="M178.5,143.6c-0.1-7.7,4.4-14.7,11.3-18l0,0c1.2-0.5,1.8-1.9,1.3-3.1c-0.5-1.2-1.9-1.8-3.1-1.3
		c-8.7,4-14.2,12.7-14.2,22.3c0,1.3,1,2.4,2.3,2.4l0,0C177.4,145.9,178.5,144.8,178.5,143.6z"/>
</g>
<g>
	<path class="st2" d="M120.4,106.2c0,27.1-17.2,49.1-47,49.1H61.7c-16.9,0-30.6-13.7-30.6-30.6v-2.4c0-11.3,6.2-21,16.5-23.2
		C48,93.8,50.7,63,85.1,57.9C105.9,55.2,120.4,79.1,120.4,106.2z"/>
	<path class="st9" d="M75.2,103.9L75.2,103.9c9.7,0,17.6,8,17.6,17.6S84.9,139,75.2,139c-9.6,0-17.5-7.9-17.5-17.6
		S65.6,103.9,75.2,103.9z"/>
	<g>
		<path d="M34.5,108.7c1.2,0.3,1.5,1.9,1,3.2s-2.2,2.3-3.1,1.6c-0.9-0.7-0.9-1.7-0.5-2.9C32.3,109.6,33.3,108.4,34.5,108.7z"/>
		<path d="M56.1,103.9v0.5c0,2-1.6,3.6-3.6,3.6l0,0c-2,0-3.6-1.6-3.6-3.6v-0.5c0-2,1.6-3.6,3.6-3.6l0,0
			C54.5,100.3,56.1,101.9,56.1,103.9z"/>
		<path d="M42.1,126.3c3.8-0.1,7.3-2,10.4-5.7l0,0c0.6-0.7,0.5-1.8-0.2-2.4s-1.8-0.5-2.4,0.2c-2.4,2.9-5,4.4-7.9,4.5
			c-5.2,0.1-9.7-4.6-9.7-4.6c-0.2-0.2-0.5-0.4-0.9-0.5c-0.2,0-0.3,0.1-0.4,0.2c-0.4,0.7-0.6,1.4-0.7,2.1c0,0.9,0.2,2.9,1,1.9
			c2,1.7,5.9,4.3,10.5,4.3H42.1z"/>
	</g>
</g>
<g>
	<path class="st2" d="M107.7,250.7c-4.2-2.9-5.2-9.4-2.4-14.6c23-42.1,10.6-71.1,9.9-72.3c-2.6-4.7-3.8-13.1,0.9-16.1
		c3-1.9,7.1,2.1,9.8,6.7c0.8,1.5,24.6,36.9-5.7,92.3c-2.3,4.2-6.4,6.2-10,5.3C109.3,251.8,108.4,251.4,107.7,250.7z"/>
	<path class="st0" d="M105.3,236.1c6.3-11.1,10.6-23.3,12.8-35.9c5.7-0.2,11.5,0.8,16.8,3c-1.5,12.5-5.7,27.1-14.7,43.5
		c-2.3,4.2-6.4,6.2-10,5.3c-0.9-0.2-1.8-0.6-2.6-1.2C103.5,247.9,102.5,241.3,105.3,236.1z"/>
</g>
</svg>
