<?xml version="1.0" encoding="utf-8"?>
<!-- Generator: Adobe Illustrator 26.5.0, SVG Export Plug-In . SVG Version: 6.00 Build 0)  -->
<svg version="1.1" id="레이어_5" xmlns="http://www.w3.org/2000/svg" xmlns:xlink="http://www.w3.org/1999/xlink" x="0px"
	 y="0px" viewBox="0 0 390 390" style="enable-background:new 0 0 390 390;" xml:space="preserve">
<path d="M211.9,232.8c-5.7-3-12.9-4.4-19.9-4.4c-7,0-14.2,1.4-19.9,4.4c-6.7,3.5-16.9,15.8-14.2,23.4c1,2.9,3.6,4.9,6.1,6.8
	c7.8,5.9,15.6,11.6,23.6,17.2c1.3,0.9,7.4,0.9,8.7,0c8-5.6,15.9-11.3,23.6-17.2c2.5-1.9,5.1-3.9,6.1-6.8
	C228.8,248.6,218.7,236.4,211.9,232.8z"/>
<g>
	<path style="fill:#76490D;" d="M219.9,231.8c0,3.6-0.3,6.9-0.3,10.5c-4.7,6.4-13.1,7.9-20.6,8.5c-9.3,0.7-19.1,0.4-27.5-4.1
		c-1.6-0.8-3.2-1.9-4.2-3.4c-2.3-3.3-1.7-7.9-1.1-12c14.3-0.6,29.3-1.6,43.6-2.2C213.1,229.1,216.9,230.6,219.9,231.8z"/>
	<path d="M192,252.4c-6.8,0-14.4-0.9-21.1-4.5c-1.5-0.8-3.4-1.9-4.7-3.8c-2.6-3.7-2-8.6-1.3-12.9l0.2-1l1,0
		c7.2-0.3,14.5-0.7,21.8-1.1c7.3-0.4,14.7-0.8,21.8-1.1c3.4-0.1,7.3,1.3,10.6,2.7l0.8,0.3v0.9c0,1.8-0.1,3.6-0.2,5.3
		c-0.1,1.7-0.2,3.4-0.2,5.2v0.4l-0.3,0.3c-5.2,6.9-14.2,8.4-21.6,9C196.9,252.3,194.5,252.4,192,252.4z M167.3,232.7
		c-0.6,3.7-0.8,7.4,1,10c1,1.4,2.5,2.3,3.8,3c8.6,4.6,18.8,4.5,26.8,3.9c6.6-0.5,14.8-1.8,19.4-7.6c0-1.7,0.1-3.3,0.2-4.9
		c0.1-1.4,0.1-2.9,0.2-4.4c-2.9-1.2-6-2.3-8.7-2.1c-7.2,0.3-14.5,0.7-21.8,1.1C181.1,232,174.2,232.4,167.3,232.7z"/>
</g>
<g>
	<g>
		<path style="fill:#878787;" d="M198.2,237.5h-12.3c-1.5,0-2.7,1.3-2.7,2.9v8c0,1.6,1.2,2.9,2.7,2.9h12.3c1.5,0,2.7-1.3,2.7-2.9v-8
			C200.9,238.8,199.7,237.5,198.2,237.5z M197,246.3c0,0.8-0.7,1.4-1.5,1.4h-6.9c-0.8,0-1.5-0.6-1.5-1.4v-3.6c0-0.8,0.7-1.4,1.5-1.4
			h6.9c0.8,0,1.5,0.6,1.5,1.4V246.3z"/>
		<path d="M198.2,252.7h-12.3c-2.2,0-4-1.9-4-4.2v-8c0-2.3,1.8-4.2,4-4.2h12.3c2.2,0,4,1.9,4,4.2v8
			C202.2,250.8,200.4,252.7,198.2,252.7z M185.9,238.8c-0.8,0-1.4,0.7-1.4,1.6v8c0,0.9,0.6,1.6,1.4,1.6h12.3c0.8,0,1.4-0.7,1.4-1.6
			v-8c0-0.9-0.6-1.6-1.4-1.6H185.9z M195.5,248.9h-6.9c-1.5,0-2.8-1.2-2.8-2.7v-3.6c0-1.5,1.2-2.7,2.8-2.7h6.9
			c1.5,0,2.8,1.2,2.8,2.7v3.6C198.3,247.7,197,248.9,195.5,248.9z M188.6,242.5l-0.2,3.7l7.1,0.1l0.2-0.1v-3.6L188.6,242.5z"/>
	</g>
	<g>
		<path style="fill:#878787;" d="M203,246h-7.6c-0.4,0-0.7-0.3-0.7-0.7v-1.7c0-0.4,0.3-0.7,0.7-0.7h7.6c0.4,0,0.7,0.3,0.7,0.7v1.7
			C203.7,245.7,203.4,246,203,246z"/>
		<path d="M202.2,247.3h-6c-1.5,0-2.8-1.3-2.8-2.8c0-1.7,1.3-2.9,2.8-2.9h6c1.5,0,2.8,1.3,2.8,2.8C205,246,203.7,247.3,202.2,247.3z
			 M196.2,244.2c-0.1,0-0.2,0.1-0.2,0.2c0,0.2,0.1,0.3,0.2,0.3h6c0.1,0,0.2-0.1,0.2-0.2c0-0.2-0.1-0.3-0.2-0.3H196.2z"/>
	</g>
</g>
<g>
	<path d="M159.3,303.3c1.3,5.6,3,11.1,3.9,16.8c1.7,10.8,0.6,21.9-0.5,32.8c6.7,2,13.8,2.5,20.6,1.5c1.6-21.4,3.3-42.7,4.9-64.1
		c0.6-8.1,1.2-16.3-0.4-24.2c-1.6-7.9-5.9-15.6-12.7-19.1C145.5,231.7,156.3,290.5,159.3,303.3z"/>
	<g>
		<path style="fill:#76490D;" d="M158.3,372.4c-3.8,0-6.5-3.8-5.7-7.7c1.8-8.2,6.5-19.9,19.1-19.9c12.3,0,18.3,11.2,21.1,19.3
			c1.4,4.1-1.5,8.3-5.5,8.3H158.3z"/>
		<path d="M187.3,373.7h-29c-2.1,0-4-1-5.4-2.6c-1.5-1.8-2-4.3-1.5-6.6c2.9-13.5,10.1-21,20.4-21c10,0,17.9,7.2,22.3,20.2
			c0.8,2.4,0.4,5-1,7.1C191.6,372.6,189.6,373.7,187.3,373.7z M171.7,346.1c-11.4,0-16,10.3-17.9,18.9c-0.3,1.6,0,3.2,1,4.5
			c0.9,1.1,2.1,1.7,3.4,1.7h29c1.4,0,2.7-0.7,3.6-1.9c1-1.4,1.2-3.1,0.7-4.7C188.8,356.1,183,346.1,171.7,346.1z"/>
	</g>
</g>
<g>
	<path d="M225.1,303.3c-1.3,5.6-3,11.1-3.9,16.8c-1.7,10.8-0.6,21.9,0.5,32.8c-6.7,2-13.8,2.5-20.6,1.5c-1.6-21.4-3.3-42.7-4.9-64.1
		c-0.6-8.1-1.2-16.3,0.4-24.2c1.6-7.9,5.9-15.6,12.7-19.1C238.9,231.7,228.1,290.5,225.1,303.3z"/>
	<g>
		<path style="fill:#76490D;" d="M228.5,372.4c3.8,0,6.5-3.8,5.7-7.7c-1.8-8.2-6.5-19.9-19.1-19.9c-12.3,0-18.3,11.2-21.1,19.3
			c-1.4,4.1,1.5,8.3,5.5,8.3H228.5z"/>
		<path d="M228.5,373.7h-29c-2.3,0-4.3-1.1-5.7-3c-1.5-2-1.8-4.7-1-7.1c4.4-13,12.3-20.2,22.3-20.2c10.2,0,17.5,7.4,20.4,21
			c0.5,2.4-0.1,4.8-1.5,6.6C232.6,372.7,230.6,373.7,228.5,373.7z M215.1,346.1c-11.3,0-17,10-19.9,18.4c-0.5,1.6-0.3,3.4,0.7,4.7
			c0.9,1.2,2.2,1.9,3.6,1.9h29c1.3,0,2.5-0.6,3.4-1.7c1-1.2,1.4-2.9,1-4.5C231.1,356.4,226.5,346.1,215.1,346.1z"/>
	</g>
</g>
<g>
	<g>
		<path style="fill:#264DA0;" d="M233.9,170c-2.1-5.7-4.2-11.5-6.3-17.2h-34.5h-34.5c-2.1,5.7-4.2,11.5-6.3,17.2
			c-2.5,6.9-5.1,14.3-4.3,21.9c0.6,5.3,2.9,15.3,5.1,19.8c6,12.5,8,9,14.1,21.5c0,0,10,5.7,25.9,6.8c15.9-1.1,25.9-6.8,25.9-6.8
			c6-12.5,8-9,14.1-21.5c2.2-4.6,4.5-14.5,5.1-19.8C239.1,184.3,236.5,176.9,233.9,170z"/>
		<path d="M193.2,241.2c-16.2-1.1-26.2-6.7-26.6-6.9l-0.3-0.2l-0.2-0.4c-2.9-6.1-4.8-8.2-6.8-10.4c-2-2.3-4.1-4.6-7.2-11
			c-2.3-4.9-4.6-15.1-5.2-20.2c-0.9-8.1,2-16.1,4.3-22.5l6.6-18h70.8l6.6,18c2.3,6.4,5.2,14.4,4.3,22.5c-0.6,5.2-2.8,15.4-5.2,20.2
			c-3.1,6.4-5.2,8.7-7.2,11c-2,2.2-3.9,4.4-6.8,10.4l-0.2,0.4l-0.3,0.2C219.3,234.5,209.3,240.2,193.2,241.2z M168.2,232.2
			c1.9,1,11.2,5.5,25,6.4c13.6-0.9,23-5.5,24.9-6.4c3-6.1,5-8.4,7-10.6c2-2.2,3.9-4.4,6.8-10.4c2-4.2,4.3-13.9,4.9-19.4
			c0.9-7.5-1.9-15.2-4.2-21.3l-6-16.3h-67.2l-6,16.3c-2.2,6.2-5,13.8-4.2,21.3c0.6,5.5,2.9,15.2,4.9,19.4c2.9,6.1,4.8,8.2,6.8,10.4
			C163.2,223.8,165.2,226.1,168.2,232.2z"/>
	</g>
	<path d="M188.5,182.4c0.2,0.2,0.5,0.5,0.6,0.8c0.1,0.4,0,0.7-0.1,1.1c-1.6,5.7-3.4,11.4-5.3,16.9c-0.2,0.4-0.3,0.9-0.3,1.3
		c0,0.5,0.2,0.9,0.5,1.4c1.8,3.4,3.8,6.7,6.1,9.9c0.2,0.3,0.5,0.7,0.8,0.9c2.7,1.5,5.8-5.4,6.8-7.2c1.2-2.2,2.2-4.2,1.6-6.8
		c-0.5-2.5-1.9-4.8-2.7-7.2c-1-2.9-2.4-6.4-2.5-9.5c0-0.5,0.3-0.9,0.6-1.3c1-1.3,2.1-2.6,2.9-4.1c0.7-1.5,1.1-3.4,0.6-5
		c-1.3-4-6.6-4-9.1-1.4c-1,1.1-2,2.7-2.9,4C184.5,178.5,186.8,180.6,188.5,182.4z"/>
	<g>
		<path style="fill:#264DA0;" d="M169.4,159.6c-0.1,6.8,5.5,14,10.6,17.3c2.1,1.3,2.5,1.6,4.5,0.6c2.6-1.3,5.2-4.2,7.1-6.2
			c2.1,1.8,4.1,6.5,6.8,7.4c3.5,1.1,8.8-5.3,10.8-7.8c3-3.7,5-8.2,3.5-13.1c-3.1-10-13.6-13.9-22.6-13.4c-6.4,0.3-14.9,3.2-18.9,9
			C170,155.3,169.5,157.4,169.4,159.6z"/>
		<path d="M199.3,180.1c-0.4,0-0.8-0.1-1.2-0.2c-2.1-0.6-3.6-2.8-5.1-4.8c-0.5-0.7-1-1.3-1.4-1.9c-1.9,1.9-4.1,4.2-6.5,5.5
			c-2.6,1.3-3.5,0.9-5.7-0.6c-5.7-3.7-11.4-11.2-11.3-18.4c0-2.5,0.7-4.9,2.2-7c4.2-6.2,13-9.3,19.9-9.6c9.5-0.5,20.6,3.8,23.9,14.3
			c1.4,4.6,0.2,9.6-3.7,14.3C207.1,175.7,203,180.1,199.3,180.1z M191.6,169.5l0.9,0.8c0.9,0.8,1.8,2,2.7,3.2
			c1.2,1.6,2.5,3.5,3.7,3.9c1.3,0.4,3.9-0.6,9.4-7.4c3.4-4.1,4.5-8.1,3.3-11.9c-2.9-9.3-12.8-13-21.3-12.5
			c-6.3,0.3-14.2,3.1-17.9,8.5c-1.1,1.7-1.7,3.5-1.7,5.5l0,0c-0.1,6.3,5.1,13,10,16.2c1.9,1.2,1.9,1.2,3.2,0.5
			c2.1-1.1,4.3-3.3,6-5.2L191.6,169.5z"/>
	</g>
	<path d="M164.7,193.5c-0.1,0-0.3,0-0.4-0.1l-9.8-3.6c-0.6-0.2-1-0.9-0.8-1.5l1.6-7.5c0.1-0.6,0.7-1.1,1.4-1l19.8,2
		c0.7,0.1,1.2,0.6,1.2,1.3v7.4c0,0.6-0.5,1.2-1.1,1.3l-11.6,1.7C164.9,193.5,164.8,193.5,164.7,193.5z M156.4,187.8l8.5,3.1
		l10.2-1.5v-5.1l-17.5-1.8L156.4,187.8z"/>
	<g>
		<g>
			<path style="fill:#FFCA00;" d="M232.8,179.2c-10.4,0.4-13.6-3.7-13.6-3.7s-2.8,4.4-13.3,4.8c0,0,0.8,25.2,14.4,24.7
				C234,204.4,232.8,179.2,232.8,179.2z"/>
			<path d="M219.9,206.2c-2.9,0-5.4-1-7.5-3c-7.2-6.7-7.7-22.2-7.7-22.9c0-0.7,0.5-1.3,1.2-1.3c9.5-0.4,12.2-4.2,12.2-4.2
				c0.2-0.3,0.6-0.6,1-0.6c0.4,0,0.8,0.2,1.1,0.5c0,0,3,3.6,12.5,3.2c0.8,0,1.3,0.5,1.3,1.2c0,0.7,0.7,16.2-6,23.4
				c-2.1,2.3-4.7,3.5-7.8,3.6C220.2,206.2,220.1,206.2,219.9,206.2z M207.3,181.4c0.3,3.7,1.5,14.9,6.8,19.8
				c1.8,1.7,3.8,2.4,6.2,2.3c2.4-0.1,4.3-1,6-2.8c4.9-5.3,5.3-16.5,5.3-20.3c0,0-0.1,0-0.1,0c-6.9,0-10.5-2-12.2-3.3
				C217.8,178.6,214.2,180.9,207.3,181.4z"/>
		</g>
		<g>
			<path style="fill:#BF7100;" d="M225,193.6c0.1,2.5-2.1,3.2-4.9,3.3s-5.1-0.4-5.2-2.9s2.1-4.7,4.9-4.8S224.9,191.1,225,193.6z"/>
			<g>
				
					<ellipse transform="matrix(0.9993 -3.796101e-02 3.796101e-02 0.9993 -7.0241 8.2412)" style="fill:#BF7100;" cx="213.5" cy="189.1" rx="1.6" ry="1.9"/>
				
					<ellipse transform="matrix(0.9993 -3.796101e-02 3.796101e-02 0.9993 -6.9971 8.7146)" style="fill:#BF7100;" cx="226" cy="188.6" rx="1.6" ry="1.9"/>
			</g>
			<g>
				
					<ellipse transform="matrix(0.9993 -3.796101e-02 3.796101e-02 0.9993 -6.9133 8.3822)" style="fill:#BF7100;" cx="217.3" cy="186.2" rx="1.6" ry="1.9"/>
				
					<ellipse transform="matrix(0.9993 -3.796101e-02 3.796101e-02 0.9993 -6.9031 8.5619)" style="fill:#BF7100;" cx="222" cy="186.1" rx="1.6" ry="1.9"/>
			</g>
		</g>
	</g>
</g>
<g>
	<g>
		<path style="fill:#F0B109;" d="M230.6,150.5c0.8-0.1,1.7-0.2,2.6-0.2c7.8,0,13.7,10.2,18.1,17.3c11.4,18.2,14.4,42,0.7,63.1
			c-4.1,6.3-9.7,13.4-15.6,16c-2.5,1.1-5.2,0.9-7.8,0.2c-4.7-1.2-9.5-4.8-10.2-10.3c-0.6-4.3,1.4-8.6,3.9-11.9
			c3.3-4.5,7.4-7.9,10.9-12.1c4.4-5.3,7.3-13.2,5.6-20.2c-1.7-6.9-4.8-11-8.2-17c-2.9-5.1-6.3-9.4-6.7-15.9
			C223.6,153.6,226.6,151.1,230.6,150.5z"/>
		<path d="M232.5,248.8c-1.3,0-2.7-0.2-4.2-0.6c-4.6-1.2-10.3-4.9-11.2-11.4c-0.7-5.1,1.9-9.8,4.1-12.9c1.9-2.6,4.2-4.9,6.3-7.2
			c1.6-1.6,3.2-3.3,4.7-5c4.7-5.6,6.8-13.1,5.3-19.1c-1.3-5.2-3.4-8.7-5.8-12.7c-0.7-1.2-1.5-2.5-2.3-3.9c-0.5-1-1.1-1.9-1.7-2.9
			c-2.4-3.9-4.8-8-5.2-13.6c-0.4-5.8,2.4-9.5,7.8-10.4l0,0c0.9-0.1,1.9-0.1,2.9-0.2c8.1,0,13.8,9.2,18.3,16.6l0.8,1.4
			c13.1,20.9,13.3,45,0.7,64.5c-5.6,8.6-11,14.2-16.2,16.5C235.6,248.5,234.2,248.8,232.5,248.8z M233.3,151.5
			c-0.9,0-1.7,0.1-2.4,0.2l0,0c-4.1,0.7-5.9,3.1-5.6,7.7c0.3,4.9,2.5,8.6,4.8,12.4c0.6,1,1.2,1.9,1.7,2.9c0.8,1.4,1.5,2.6,2.2,3.8
			c2.5,4.2,4.7,7.9,6.1,13.4c1.7,6.7-0.6,15.1-5.8,21.3c-1.5,1.8-3.2,3.5-4.8,5.2c-2.1,2.2-4.3,4.4-6.1,6.9c-2,2.7-4.2,6.8-3.6,11
			c0.7,5.2,5.4,8.2,9.3,9.2c2.8,0.7,5,0.7,6.9-0.2c4.6-2.1,9.8-7.4,15.1-15.5c12.1-18.7,11.8-41.7-0.7-61.8l-0.9-1.4
			C245.2,160.1,239.9,151.5,233.3,151.5C233.3,151.5,233.3,151.5,233.3,151.5z M230.6,150.5L230.6,150.5L230.6,150.5z"/>
	</g>
	<g>
		<path style="fill:#264DA0;" d="M246.7,238.1c1-1.3,4.5-6,5.3-7.3c13.7-21.2,10.7-44.9-0.7-63.1c-4.4-7.1-10.3-17.3-18.1-17.3
			c-0.9,0-1.8,0.1-2.6,0.2c-4.1,0.7-7.1,3.2-6.7,9.1c0.4,6.5,3.8,10.8,6.7,15.9c3.4,6,6.5,10,8.2,17c1.7,7-1.1,14.9-5.6,20.2
			c-1.8,2.1-3.7,4-5.6,6L246.7,238.1z"/>
		<path d="M246.7,239.3c-0.3,0-0.7-0.1-0.9-0.4l-19-19.5c-0.5-0.5-0.5-1.3,0-1.8l0.8-0.8c1.6-1.6,3.2-3.3,4.7-5.1
			c4.7-5.6,6.8-13.1,5.3-19.1c-1.3-5.2-3.4-8.7-5.8-12.7c-0.7-1.2-1.5-2.5-2.3-3.9c-0.5-1-1.1-1.9-1.7-2.9c-2.4-3.9-4.8-8-5.2-13.6
			c-0.4-5.8,2.4-9.5,7.8-10.4c0.9-0.1,1.9-0.1,2.9-0.2c8.1,0,13.8,9.2,18.3,16.6l0.8,1.4c13.1,20.9,13.3,45,0.7,64.5
			c-0.6,1-2.7,3.7-4.2,5.7l-1.2,1.7C247.5,239.1,247.2,239.3,246.7,239.3C246.8,239.3,246.7,239.3,246.7,239.3z M229.5,218.5
			l17.1,17.5l0.3-0.4c1.4-1.9,3.5-4.7,4.1-5.6c12.1-18.7,11.8-41.7-0.7-61.8l-0.9-1.4c-4.2-6.8-9.5-15.3-16.2-15.3c0,0,0,0,0,0
			c-0.9,0-1.7,0.1-2.4,0.2c-4.1,0.7-5.9,3.1-5.6,7.7c0.3,4.9,2.5,8.6,4.8,12.4c0.6,1,1.2,1.9,1.7,2.9c0.8,1.4,1.5,2.6,2.2,3.8
			c2.5,4.2,4.7,7.9,6.1,13.4c1.7,6.7-0.6,15.1-5.8,21.3C232.7,215.2,231.1,216.9,229.5,218.5z"/>
	</g>
	<g>
		<line style="fill:#D5B898;" x1="259.1" y1="215.4" x2="238.6" y2="202.2"/>
		<path d="M259.1,216.7c-0.2,0-0.5-0.1-0.7-0.2l-20.5-13.2c-0.6-0.4-0.8-1.2-0.4-1.8c0.4-0.6,1.2-0.8,1.8-0.4l20.5,13.2
			c0.6,0.4,0.8,1.2,0.4,1.8C259.9,216.5,259.5,216.7,259.1,216.7z"/>
	</g>
	<g>
		<g>
			<path style="fill:#FFC600;" d="M249.4,161.2c0,0,3.5,4.6,4.8,7l-9.6,6.2l-4.5-6.5L249.4,161.2z"/>
			<path d="M244.7,175.8c-0.4,0-0.8-0.2-1.1-0.6l-4.5-6.5c-0.4-0.6-0.3-1.4,0.3-1.8l9.2-6.7c0.6-0.4,1.4-0.3,1.8,0.3
				c0.1,0.2,3.6,4.7,5,7.2c0.3,0.6,0.1,1.3-0.4,1.7l-9.6,6.2C245.2,175.7,244.9,175.8,244.7,175.8z M241.9,168.3l3.1,4.4l7.5-4.9
				c-1-1.6-2.5-3.6-3.4-4.8L241.9,168.3z"/>
		</g>
		<g>
			<line style="fill:#FFC600;" x1="249" y1="166.1" x2="245.8" y2="168.3"/>
			<path d="M245.8,169.6c-0.4,0-0.8-0.2-1.1-0.6c-0.4-0.6-0.2-1.4,0.3-1.8l3.2-2.2c0.6-0.4,1.4-0.2,1.8,0.3c0.4,0.6,0.2,1.4-0.3,1.8
				l-3.2,2.2C246.3,169.5,246,169.6,245.8,169.6z"/>
		</g>
		<g>
			<path d="M249.4,161.2c0,0-5.3-9.3-10.1-11l-9,6.8c0,0,7.9,8.2,9.8,10.9L249.4,161.2z"/>
			<path d="M240.2,169.2c-0.1,0-0.1,0-0.2,0c-0.3-0.1-0.6-0.3-0.8-0.5c-1.8-2.6-9.6-10.7-9.7-10.8c-0.3-0.3-0.4-0.6-0.4-1
				c0-0.4,0.2-0.7,0.5-0.9l9-6.8c0.4-0.3,0.8-0.3,1.2-0.2c5.2,1.9,10.5,11.2,10.7,11.6c0.3,0.6,0.2,1.3-0.4,1.7l-9.2,6.7
				C240.7,169.2,240.4,169.2,240.2,169.2z M232.3,157.2c1.9,2,6.1,6.4,8.1,9l7.3-5.3c-1.7-2.7-5.2-7.6-8.2-9.2L232.3,157.2z"/>
		</g>
	</g>
	<g>
		<polygon style="fill:#FFC600;" points="256.4,222.7 236.9,207 233.3,212.6 253.3,228.8 		"/>
		<path d="M253.3,230.1c-0.3,0-0.6-0.1-0.8-0.3l-20-16.2c-0.5-0.4-0.6-1.1-0.3-1.7l3.6-5.6c0.2-0.3,0.5-0.5,0.9-0.6
			c0.4-0.1,0.7,0,1,0.3l19.6,15.7c0.5,0.4,0.6,1.1,0.3,1.6l-3.2,6.1c-0.2,0.3-0.5,0.6-0.9,0.7C253.4,230,253.4,230.1,253.3,230.1z
			 M235,212.3l17.9,14.5l1.9-3.7l-17.6-14.1L235,212.3z"/>
	</g>
</g>
<g>
	<g>
		<path style="fill:#F0B109;" d="M247.8,74.1c-2.1-5.6-4.3-11.3-8-15.8c-8.9-10.8-23.5-12.4-36-12.4c-3.4,0-6.8-0.1-10.3-0.1
			c-3.4,0-6.9,0.1-10.3,0.1c-12.6,0-27.2,1.6-36,12.4c-3.7,4.5-5.9,10.2-8,15.8c-5.9,15.5-15.7,38.3-6.5,54.3
			c11.3,19.6,27.8,31.6,45.9,35.9c4.9,1.2,9.9,1.7,15,1.7c5.1,0,10.1-0.6,15-1.7c18.1-4.3,34.6-16.3,45.9-35.9
			C263.5,112.4,253.7,89.6,247.8,74.1z"/>
		<path d="M193.5,167.3c-5.2,0-10.4-0.6-15.3-1.8C159,161,142.4,148,131.5,129c-8.9-15.6-0.7-37,5.4-52.7l1-2.7
			c2-5.3,4.4-11.4,8.3-16.1c9.4-11.4,24.7-12.9,37-12.9c2.4,0,4.8,0,7.3-0.1l3,0l3,0c2.4,0,4.9,0.1,7.3,0.1c12.3,0,27.7,1.5,37,12.9
			c3.9,4.7,6.2,10.8,8.3,16.1l1,2.6c6.1,15.7,14.4,37.1,5.4,52.7c-10.9,19-27.5,32-46.7,36.5C203.8,166.7,198.7,167.3,193.5,167.3z
			 M193.4,47.1l-2.9,0c-2.4,0-4.9,0.1-7.3,0.1c-11.8,0-26.4,1.4-35.1,11.9c-3.6,4.4-5.8,10-7.8,15.4l-1,2.7
			c-5.9,15.2-13.9,36-5.6,50.5c10.6,18.4,26.6,30.9,45,35.3c4.7,1.1,9.7,1.7,14.7,1.7c5,0,10-0.6,14.7-1.7
			c18.5-4.4,34.5-16.9,45-35.3c8.3-14.5,0.3-35.3-5.6-50.5l-1-2.6c0,0,0,0,0,0c-2.1-5.4-4.2-11-7.8-15.4
			c-8.7-10.6-23.3-11.9-35-11.9c-2.4,0-4.9,0-7.3-0.1L193.4,47.1z"/>
	</g>
	<g>
		
			<ellipse transform="matrix(7.726332e-03 -1 1 7.726332e-03 61.263 322.9211)" style="fill:#FFFFFF;" cx="193.3" cy="130.6" rx="25.6" ry="35.6"/>
		<g>
			<path style="fill:#850404;" d="M194,126.8c0,0-4.9,11-17.5,4.6c0,0-0.6,14.7,19.3,15.8c0,0,15.2-1.4,15.3-14.7
				c0,0-10.3,3.2-15.9-3.4L194,126.8z"/>
			<path style="fill:#DB6565;" d="M179.9,138c0,0,15.3-6.9,29.7,0.7c0,0-5.8,7.8-16.3,7.6C193.2,146.3,182.9,145.6,179.9,138z"/>
			<path d="M194.5,147.2c-2.6,0-5.1-0.4-7.6-1.4c-4.5-1.6-8.3-4.8-10.8-8.8c-1.4-2.1-1.9-4.1-1.7-5.9c0.1-0.7,0.7-1.2,1.4-1.2
				c0.7,0.1,1.2,0.7,1.2,1.4c-0.1,1.2,0.3,2.6,1.4,4.3c2.2,3.5,5.7,6.3,9.5,7.8c4,1.5,8.3,1.6,12.3,0.3c2.1-0.6,4.1-1.7,5.6-3
				c3-2.6,4.4-5.1,4.6-8.4c0-0.7,0.6-1.3,1.4-1.2c0.7,0,1.3,0.6,1.2,1.4c-0.2,4-1.9,7.3-5.4,10.3c-1.8,1.5-4,2.7-6.5,3.4
				C198.9,146.9,196.7,147.2,194.5,147.2z"/>
			<g>
				<path d="M182.5,134.2c-2.1,0-4.3-0.4-6.2-1.3c-2.2-1-5.9-2.6-7.1-5.8c-0.6-1.8-0.2-4.4,1.6-5.4c0.6-0.3,1.4-0.1,1.7,0.5
					s0.1,1.4-0.4,1.7c-0.6,0.3-0.9,1.5-0.5,2.4c0.7,2.2,3.8,3.5,5.7,4.3c2,0.9,4.3,1.3,6.5,1c3.4-0.3,7.7-2.4,8.7-6.8
					c0.1-0.6,0.9-1.2,1.5-1c0.7,0.1,1.2,0.9,1,1.5c-1.2,5.9-6.6,8.4-10.9,8.9C183.5,134.2,183,134.2,182.5,134.2z"/>
			</g>
			<g>
				<path d="M205.8,134.2c-0.5,0-1.2,0-1.7-0.1c-4.6-0.4-10.3-3-11.6-8.9c-0.1-0.6,0.3-1.4,1-1.5c0.6-0.1,1.4,0.3,1.5,1
					c1,4.3,5.3,6.5,9.4,6.9c2.5,0.2,4.9-0.1,7.1-1.1c1.9-0.7,5.2-2.1,6.1-4.4c0.3-0.9,0.1-2-0.5-2.4s-0.9-1.1-0.5-1.7
					c0.3-0.6,1.1-0.9,1.7-0.5c2,1.1,2.5,3.6,1.7,5.6c-1.3,3.2-5.2,4.8-7.6,5.8C210.3,133.7,208,134.2,205.8,134.2z"/>
			</g>
		</g>
		<g>
			<g>
				<path style="fill-rule:evenodd;clip-rule:evenodd;" d="M177.1,106.6L177.1,106.6c2.8,0,5-2.2,4.9-4.9l0-0.7c0-2.7-2.3-4.9-5-4.8
					c-2.8,0-5,2.2-4.9,4.9l0,0.7C172.1,104.5,174.4,106.6,177.1,106.6"/>
			</g>
		</g>
		<g>
			<path style="fill-rule:evenodd;clip-rule:evenodd;fill:#FF7D6E;" d="M193.4,111.1c1.6,0,3.2-0.4,4.7,0c1,0.2,1.9,0.8,2.4,1.7
				c1.9,3.3-3.4,5.5-5.8,5.9c-3.4,0.6-6.5-0.9-8.3-3.9c-0.2-0.4-0.4-0.8-0.5-1.2c-0.1-0.9,0.6-1.7,1.4-2.1c0.8-0.4,1.7-0.4,2.6-0.4
				C191.2,111.1,192.3,111.1,193.4,111.1z"/>
			<path d="M196.5,110.9c0.5,0,1.1,0,1.6,0.2c1,0.2,1.9,0.8,2.4,1.7c1.9,3.3-3.4,5.5-5.8,5.9c-0.5,0.1-0.9,0.1-1.4,0.1
				c-2.8,0-5.4-1.5-6.9-4c-0.2-0.4-0.4-0.8-0.5-1.2c-0.1-0.9,0.6-1.7,1.4-2.1c0.8-0.4,1.7-0.4,2.6-0.4c1.1,0,2.2,0,3.3,0
				C194.4,111.1,195.5,110.9,196.5,110.9 M196.5,108.4c-0.6,0-1.2,0-1.8,0.1c-0.4,0-0.9,0.1-1.3,0.1l-1.4,0l-1.9,0
				c-1,0-2.3,0-3.6,0.6c-1.9,0.8-3.1,2.7-3,4.6c0.1,1,0.5,1.8,0.8,2.4c2,3.3,5.4,5.3,9.1,5.3c0.6,0,1.2-0.1,1.8-0.2
				c2.1-0.4,6.4-1.8,7.8-4.9c0.7-1.5,0.6-3.2-0.3-4.8c-0.8-1.4-2.3-2.4-4.1-2.9C198,108.4,197.3,108.4,196.5,108.4L196.5,108.4z"/>
		</g>
		<g>
			<g>
				<path style="fill-rule:evenodd;clip-rule:evenodd;" d="M209.8,106.6L209.8,106.6c-2.8,0-5-2.2-4.9-4.9l0-0.7
					c0-2.7,2.3-4.9,5-4.8c2.8,0,5,2.2,4.9,4.9l0,0.7C214.8,104.5,212.5,106.6,209.8,106.6"/>
			</g>
		</g>
	</g>
	<g>
		<path style="fill:#F0B109;" d="M181.4,48.6c0,0-7.4-10-12.6-14.2s-19.2-14.6-21.9-13.6c-2.8,1-16.2,29.1-3.4,43.7"/>
		<path d="M143.5,65.7c-0.4,0-0.7-0.1-1-0.4c-7.9-8.9-6-22.2-4.1-29.3c2-7.8,5.9-15.6,8.1-16.4c4.2-1.5,22.4,13.2,23.2,13.8
			c5.2,4.3,12.5,14.1,12.8,14.5c0.4,0.6,0.3,1.4-0.3,1.8c-0.6,0.4-1.4,0.3-1.8-0.3c-0.1-0.1-7.4-10-12.3-14
			c-7.8-6.3-18.6-13.6-20.7-13.4c-1,0.7-6.1,9.6-7.6,20.4c-0.9,6.2-0.7,14.9,4.7,21.1c0.5,0.5,0.4,1.3-0.1,1.8
			C144.1,65.6,143.8,65.7,143.5,65.7z"/>
	</g>
	<g>
		<g>
			<path style="fill:#FACF75;" d="M167.5,49.2c0,0-18.7-17.5-19.2-21c-0.5-3.4-8.1,21.9,1.4,27.8c0,0,2.6-1.7,4.2-2.2
				c0,0-2.3-6.1,3.7-2.4C161.4,53.9,167.5,49.2,167.5,49.2z"/>
			<path d="M149.7,57.4c-0.2,0-0.5-0.1-0.7-0.2c-8.5-5.3-4.6-23.1-3.1-27.6c0.6-1.7,1.1-3,2.4-2.9c0.2,0,1.1,0.2,1.3,1.4
				c0.4,1.9,9.8,11.8,18.8,20.2c0.3,0.3,0.4,0.6,0.4,1c0,0.4-0.2,0.7-0.5,1c-0.3,0.2-6.9,5.2-11.4,2.4c-1.2-0.8-1.9-1-2.1-1
				c0,0.4,0.1,1.2,0.3,1.8c0.1,0.3,0.1,0.7-0.1,1c-0.2,0.3-0.4,0.6-0.8,0.7c-1.1,0.4-3.2,1.6-3.9,2
				C150.2,57.3,149.9,57.4,149.7,57.4z M148.2,30.8c-1.1,3.6-2.7,11.5-1.5,17.6c0.5,2.8,1.6,4.9,3.1,6.1c0.7-0.4,1.6-1,2.6-1.4
				c-0.2-1.2-0.3-2.7,0.8-3.6c1.5-1.2,3.7-0.1,5.2,0.9c2,1.2,5.2-0.2,7.2-1.4C160.9,44.8,151.5,35.7,148.2,30.8z"/>
		</g>
		<g>
			<path style="fill:#FF7D6E;" d="M155.3,50.4c0,0-5.4-5.3-5.3-10.3"/>
			<path d="M155.3,51.7c-0.3,0-0.7-0.1-0.9-0.4c-0.2-0.2-5.8-5.7-5.7-11.2c0-0.7,0.6-1.3,1.3-1.3c0.7,0,1.3,0.6,1.3,1.3
				c0,4.4,4.9,9.3,5,9.4c0.5,0.5,0.5,1.3,0,1.8C155.9,51.6,155.6,51.7,155.3,51.7z"/>
		</g>
	</g>
	<g>
		<path style="fill:#F0B109;" d="M205.5,48.6c0,0,7.4-10,12.6-14.2s19.2-14.6,21.9-13.6c2.8,1,16.2,29.1,3.4,43.7"/>
		<path d="M243.4,65.7c-0.3,0-0.6-0.1-0.9-0.3c-0.5-0.5-0.6-1.3-0.1-1.8c5.5-6.2,5.6-14.9,4.7-21.1c-1.5-10.8-6.5-19.8-7.7-20.5
			c-1.9-0.3-12.8,7.1-20.6,13.4c-5,4-12.3,13.9-12.3,14c-0.4,0.6-1.2,0.7-1.8,0.3c-0.6-0.4-0.7-1.2-0.3-1.8
			c0.3-0.4,7.5-10.2,12.8-14.5c0.8-0.6,18.9-15.3,23.2-13.8c2.2,0.8,6.1,8.6,8.1,16.4c1.8,7.1,3.7,20.4-4.1,29.3
			C244.1,65.6,243.7,65.7,243.4,65.7z"/>
	</g>
	<g>
		<g>
			<path style="fill:#FACF75;" d="M219.4,49.2c0,0,18.7-17.5,19.2-21c0.5-3.4,8.1,21.9-1.4,27.8c0,0-2.6-1.7-4.2-2.2
				c0,0,2.3-6.1-3.7-2.4C225.5,53.9,219.4,49.2,219.4,49.2z"/>
			<path d="M237.2,57.4c-0.2,0-0.5-0.1-0.7-0.2c-0.7-0.4-2.7-1.7-3.9-2c-0.3-0.1-0.6-0.3-0.8-0.7c-0.2-0.3-0.2-0.7-0.1-1
				c0.2-0.6,0.4-1.4,0.3-1.8c-0.3,0-0.9,0.2-2.1,1c-4.5,2.8-11.1-2.1-11.4-2.4c-0.3-0.2-0.5-0.6-0.5-1c0-0.4,0.1-0.7,0.4-1
				c9-8.4,18.4-18.3,18.8-20.2c0.2-1.2,1.1-1.4,1.3-1.4c1.3-0.1,1.8,1.3,2.4,2.9c1.5,4.5,5.4,22.3-3.1,27.6
				C237.7,57.3,237.5,57.4,237.2,57.4z M234.6,53.2c0.9,0.4,1.9,1,2.6,1.4c1.5-1.2,2.5-3.3,3.1-6.1c1.2-6.2-0.4-14-1.5-17.6
				c-3.3,4.9-12.7,14-17.2,18.3c2,1.2,5.2,2.6,7.2,1.4c1.5-1,3.7-2.1,5.2-0.9C234.9,50.4,234.8,52,234.6,53.2z"/>
		</g>
		<g>
			<path style="fill:#FF7D6E;" d="M231.6,50.4c0,0,5.4-5.3,5.3-10.3"/>
			<path d="M231.6,51.7c-0.3,0-0.7-0.1-0.9-0.4c-0.5-0.5-0.5-1.3,0-1.8c0.1,0,5-5,5-9.4c0-0.7,0.6-1.3,1.3-1.3c0,0,0,0,0,0
				c0.7,0,1.3,0.6,1.3,1.3c0.1,5.5-5.5,11-5.7,11.2C232.3,51.6,232,51.7,231.6,51.7z"/>
		</g>
	</g>
	<path style="fill-rule:evenodd;clip-rule:evenodd;fill:#583820;" d="M190.8,73.1c-0.1,2.6-0.3,5.6,1.4,7.4c0.3,0.3,0.6,0.5,0.9,0.5
		c0.9,0.1,1.4-1,1.6-1.9c1.4-5.9-0.8-12.7,2.2-17.9c0.5-0.9,1.2-1.8,1.6-2.8c1.7-4.7-8.4-6.6-9.2-1.8c-0.3,1.8,0.9,4.2,1.2,6
		C191.1,66.2,191,69.7,190.8,73.1z"/>
	<path style="fill-rule:evenodd;clip-rule:evenodd;fill:#583820;" d="M145.1,101c1.7,0.1,3.1,0.9,3.7,2.9c0.5,1.6-0.4,3.6-1.9,4.1
		c-0.8,0.3-1.6,0.2-2.4,0.2c-1.4,0-2.8,0.5-4.1,1.3c-1.6,1-3.3,2.7-5,2c-1.3-0.6-1.7-2.4-1.3-3.8c0.4-1.4,1.5-2.5,2.6-3.5
		C138.4,102.7,142.1,100.8,145.1,101z"/>
	<path style="fill-rule:evenodd;clip-rule:evenodd;fill:#583820;" d="M139.2,115.3c-0.4,0.2-0.7,0.5-1,0.8c-1.1,1-2.6,3.4-2,5
		c0.1,0.4,0.4,0.6,0.8,0.8c0.8,0.4,1.8,0.7,2.6,0.3c0.6-0.3,1.1-0.8,1.7-1.2c0.6-0.3,1.2-0.5,1.9-0.8c1.3-0.5,2.7-1,3.5-2.2
		c0.2-0.3,0.4-0.7,0.5-1.1c0.3-2.5-2.1-3-3.9-2.9C141.8,114.2,140.4,114.6,139.2,115.3z"/>
	<path style="fill-rule:evenodd;clip-rule:evenodd;fill:#583820;" d="M180.8,58.9c-0.4,0-0.8,0.1-1.3,0.2c-1.4,0.4-3.8,1.7-3.9,3.5
		c0,0.4,0.1,0.8,0.3,1.1c0.5,0.8,1.3,1.5,2.2,1.6c0.7,0.1,1.3-0.2,2-0.2c0.7,0,1.3,0.1,2,0.2c1.3,0.2,2.8,0.4,4.1-0.2
		c0.3-0.2,0.7-0.4,0.9-0.8c1.3-2.1-0.6-3.7-2.2-4.5C183.6,59.2,182.2,58.8,180.8,58.9z"/>
	<path style="fill-rule:evenodd;clip-rule:evenodd;fill:#583820;" d="M141.6,126.5c-0.5,0.7-0.9,1.6-0.6,2.5c0.3,0.8,1,1.3,1.8,1.4
		c0.8,0.1,1.6-0.1,2.3-0.4c0.7-0.2,1.3-0.5,1.9-1c0.6-0.5,1-1.1,1.1-1.9c0.2-1.4-1.1-2.7-2.3-2.8
		C144.2,124.4,142.6,125.1,141.6,126.5z"/>
	<path style="fill-rule:evenodd;clip-rule:evenodd;fill:#583820;" d="M150.2,110c-0.5,0.7-0.9,1.6-0.6,2.5c0.3,0.8,1,1.3,1.8,1.4
		c0.8,0.1,1.6-0.1,2.3-0.4c0.7-0.2,1.3-0.5,1.9-1c0.6-0.5,1-1.1,1.1-1.9c0.2-1.4-1.1-2.7-2.3-2.8C152.8,107.9,151.2,108.7,150.2,110
		z"/>
	<path style="fill-rule:evenodd;clip-rule:evenodd;fill:#583820;" d="M242,101c-1.7,0.1-3.1,0.9-3.7,2.9c-0.5,1.6,0.4,3.6,1.9,4.1
		c0.8,0.3,1.6,0.2,2.4,0.2c1.4,0,2.8,0.5,4.1,1.3c1.6,1,3.3,2.7,5,2c1.3-0.6,1.7-2.4,1.3-3.8c-0.4-1.4-1.5-2.5-2.6-3.5
		C248.7,102.7,244.9,100.8,242,101z"/>
	<path style="fill-rule:evenodd;clip-rule:evenodd;fill:#583820;" d="M247.9,115.3c0.4,0.2,0.7,0.5,1,0.8c1.1,1,2.6,3.4,2,5
		c-0.1,0.4-0.4,0.6-0.8,0.8c-0.8,0.4-1.8,0.7-2.6,0.3c-0.6-0.3-1.1-0.8-1.7-1.2c-0.6-0.3-1.2-0.5-1.9-0.8c-1.3-0.5-2.7-1-3.5-2.2
		c-0.2-0.3-0.4-0.7-0.5-1.1c-0.3-2.5,2.1-3,3.9-2.9C245.2,114.2,246.7,114.6,247.9,115.3z"/>
	<path style="fill-rule:evenodd;clip-rule:evenodd;fill:#583820;" d="M245.5,126.5c0.5,0.7,0.9,1.6,0.6,2.5c-0.3,0.8-1,1.3-1.8,1.4
		c-0.8,0.1-1.6-0.1-2.3-0.4c-0.7-0.2-1.3-0.5-1.9-1c-0.6-0.5-1-1.1-1.1-1.9c-0.2-1.4,1.1-2.7,2.3-2.8
		C242.9,124.4,244.5,125.1,245.5,126.5z"/>
	<path style="fill-rule:evenodd;clip-rule:evenodd;fill:#583820;" d="M236.9,110c0.5,0.7,0.9,1.6,0.6,2.5c-0.3,0.8-1,1.3-1.8,1.4
		c-0.8,0.1-1.6-0.1-2.3-0.4c-0.7-0.2-1.3-0.5-1.9-1c-0.6-0.5-1-1.1-1.1-1.9c-0.2-1.4,1.1-2.7,2.3-2.8
		C234.3,107.9,235.9,108.7,236.9,110z"/>
	<path style="fill-rule:evenodd;clip-rule:evenodd;fill:#583820;" d="M207.8,56.4c0.5-0.1,1.1-0.1,1.6-0.3c0.2-0.1,0.5-0.2,0.7-0.3
		c0.3-0.3,0.3-0.8,0.2-1.2c-0.3-1.4-1.5-2.4-2.7-3c-1.4-0.6-2.8-0.8-4.3-0.8c-1,0-2.3-0.1-3.1,0.8c-0.7,0.8-0.5,2.3,0.2,3.1
		c0.7,0.8,1.8,1.2,2.8,1.4C204.7,56.4,206.3,56.5,207.8,56.4z"/>
	<path style="fill-rule:evenodd;clip-rule:evenodd;fill:#583820;" d="M207.3,65.5c-0.5-4.2-7.4-4.4-8.1-0.3c0,0.3-0.1,0.6,0.1,0.9
		c0.1,0.2,0.3,0.4,0.5,0.6c0.9,0.8,1.9,1.4,3,1.6c1,0.3,2.1,0.3,3-0.2S207.4,66.5,207.3,65.5z"/>
	<path style="fill-rule:evenodd;clip-rule:evenodd;fill:#583820;" d="M187,56.5c1.2-0.4,2.5-2.1,1.8-3.6c-0.7-1.4-3.3-1.6-4.6-1.6
		c-1,0-2.1,0.3-2.8,1.1s-0.9,2.2-0.1,3c0.3,0.3,0.7,0.4,1,0.6c0.6,0.2,1.2,0.4,1.8,0.5C185.1,56.7,186.1,56.8,187,56.5z"/>
	<path style="fill-rule:evenodd;clip-rule:evenodd;fill:#583820;" d="M186.8,74.6c1-0.4,2-1.7,1.5-2.9c-0.6-1.2-2.7-1.3-3.8-1.3
		c-0.8,0-1.7,0.3-2.3,0.9s-0.7,1.8-0.1,2.4c0.2,0.2,0.5,0.4,0.8,0.5c0.5,0.2,1,0.3,1.5,0.4C185.2,74.8,186,74.8,186.8,74.6z"/>
</g>
<g>
	<g>
		<path style="fill:#0F0F0F;" d="M203.4,147.2l2.5,1c0.6,0.2,1.3-0.1,1.5-0.7l7.4-19.7c0.2-0.6-0.1-1.3-0.7-1.5l-2.5-1
			c-0.6-0.2-1.3,0.1-1.5,0.7l-7.4,19.7C202.5,146.3,202.8,147,203.4,147.2z"/>
		<path d="M212,125.7c0.3,0,0.6,0.1,0.9,0.2c1.3,0.5,2,1.9,1.5,3.2l-6.5,17.1c-0.4,1-1.3,1.6-2.4,1.6c-0.3,0-0.6-0.1-0.9-0.2
			c-1.3-0.5-2-1.9-1.5-3.2l6.5-17.1C210,126.3,211,125.7,212,125.7 M212,123.1c-2.1,0-4,1.3-4.8,3.3l-6.5,17.1
			c-0.5,1.3-0.4,2.7,0.1,3.9c0.6,1.2,1.6,2.2,2.8,2.7c0.6,0.2,1.2,0.3,1.8,0.3c2.1,0,4-1.3,4.8-3.3l6.5-17.1
			c0.5-1.3,0.4-2.7-0.1-3.9c-0.6-1.2-1.6-2.2-2.8-2.7C213.2,123.2,212.6,123.1,212,123.1L212,123.1z"/>
	</g>
	<g>
		<path style="fill:#2E2E2E;" d="M183.2,167.6l15.3,5.8c1.1,0.4,2.3-0.1,2.8-1.3l9.4-25c0.4-1.1-0.1-2.3-1.3-2.8l-15.3-5.8
			c-1.1-0.4-2.3,0.1-2.8,1.3l-9.4,25C181.6,165.9,182.1,167.2,183.2,167.6z"/>
		<path d="M194.8,139.2c0.5,0,1.1,0.1,1.6,0.3l10.7,4c2.4,0.9,3.6,3.6,2.7,5.9l-7.7,20.4c-0.7,1.8-2.5,3-4.3,3
			c-0.5,0-1.1-0.1-1.6-0.3l-10.7-4c-2.4-0.9-3.6-3.6-2.7-5.9l7.7-20.4C191.2,140.3,193,139.2,194.8,139.2 M194.8,136.6
			c-3,0-5.7,1.9-6.7,4.7l-7.7,20.4c-0.7,1.8-0.6,3.8,0.2,5.5c0.8,1.8,2.2,3.1,4,3.8l10.7,4c0.8,0.3,1.7,0.5,2.5,0.5
			c3,0,5.7-1.9,6.7-4.7l7.7-20.4c1.4-3.7-0.5-7.9-4.2-9.3l-10.7-4C196.6,136.7,195.7,136.6,194.8,136.6L194.8,136.6z"/>
	</g>
</g>
<g>
	<g>
		<path style="fill:#264DA0;" d="M165.9,44.5c-1.3,0,1.1,11,1.4,11.9c1.7,5.7,8.6,7.7,13.9,7.5c3.9-0.1,7.7-1,11.5-1.3
			c4.2-0.4,8.8,0.3,12.9,1c5.9,1,12.3,2.3,15.4-4.2c1.9-4.2,3.1-9.7,1.5-14.1C222.5,45.2,166.2,44.5,165.9,44.5z"/>
		<path d="M212.5,65.7c-2.2,0-4.4-0.4-6.5-0.7l-0.6-0.1c-4.2-0.7-8.6-1.3-12.6-0.9c-1.4,0.1-2.9,0.4-4.3,0.6
			c-2.3,0.3-4.8,0.7-7.2,0.8c-6.3,0.2-13.4-2.4-15.2-8.5c0-0.1-2.8-11.1-1.4-13c0.2-0.3,0.8-0.6,1.2-0.6c0,0,0,0,0,0
			c0.3,0,56.5,0.7,56.5,0.7c0.5,0,1,0.3,1.2,0.8c1.6,4.1,1,9.7-1.5,15.1C220.1,64.5,216.4,65.7,212.5,65.7z M195.4,61.2
			c3.4,0,7,0.5,10.5,1.1l0.6,0.1c5.6,0.9,10.8,1.8,13.3-3.6c2-4.4,2.6-8.9,1.7-12.3c-6.7-0.1-48-0.6-54.7-0.7c0,2.3,1.4,9,1.7,10.3
			c1.6,5.5,8.7,6.7,12.6,6.6c2.3-0.1,4.7-0.4,6.9-0.7c1.5-0.2,3-0.4,4.5-0.6C193.5,61.3,194.5,61.2,195.4,61.2z"/>
	</g>
	<g>
		<path style="fill:#7FA8FF;" d="M165.9,44.5c0,0,1.1,10.7,26.7,10.4s29.4-6.8,29.8-9.7L165.9,44.5z"/>
		<path d="M191.7,56.2c-25.6,0-27-11.1-27-11.5c0-0.4,0.1-0.7,0.3-1c0.2-0.3,0.6-0.4,1-0.4l56.5,0.7c0.4,0,0.7,0.2,1,0.5
			c0.2,0.3,0.4,0.7,0.3,1c-0.5,3.9-5.3,10.5-31.1,10.8C192.3,56.2,192,56.2,191.7,56.2z M167.8,45.8c1.5,2.7,6.8,8,24.8,7.8
			c20.8-0.2,26.5-4.5,28-7.1L167.8,45.8z"/>
	</g>
	<g>
		<g>
			<path style="fill:#264DA0;" d="M163.6,30.8c4.9-10.9,18.7-13.1,29.3-13.2c13.7-0.2,24.2,3.1,32.1,15c4.9,7.3-2,13.8-8.9,15.7
				c-9.5,2.6-19.6,3.2-29.4,2c-10.4-1.3-29.6-3.6-23.4-19.1C163.4,31,163.5,30.9,163.6,30.8z"/>
			<path d="M196.3,52.2c-3.2,0-6.5-0.2-9.7-0.6c-8.1-1-20.2-2.5-24.3-9.5c-1.8-3.1-1.9-6.9-0.1-11.3l0.2-0.5c0,0,0,0,0,0
				c4.1-9.1,14.3-13.8,30.5-13.9c15.9-0.1,25.8,4.5,33.2,15.6c1.9,2.9,2.4,5.9,1.3,8.9c-1.5,3.9-5.8,7.4-10.9,8.8
				C209.9,51.3,203.1,52.2,196.3,52.2z M164.7,31.3l-0.2,0.4c-1.5,3.7-1.5,6.6-0.1,9c3.5,5.9,15.2,7.4,22.3,8.3
				c9.8,1.2,19.8,0.5,29-2c4.3-1.2,8-4.1,9.2-7.2c0.8-2.1,0.5-4.3-1-6.5c-6.9-10.4-15.9-14.6-31-14.4
				C177.8,19.1,168.4,23.2,164.7,31.3z"/>
		</g>
	</g>
	<g>
		<g>
			<path style="fill:#FFCA00;" d="M198.1,37.8c-4,0.2-5.2-1.4-5.2-1.4s-1.1,1.7-5.1,1.8c0,0,0.3,9.6,5.5,9.4
				C198.5,47.4,198.1,37.8,198.1,37.8z"/>
			<path d="M193.1,48.9c-1.3,0-2.4-0.5-3.4-1.4c-2.9-2.7-3.2-8.6-3.2-9.3c0-0.7,0.5-1.3,1.2-1.3c3.1-0.1,4-1.3,4.1-1.3
				c0.2-0.3,0.6-0.5,1-0.5c0,0,0,0,0,0c0.4,0,0.8,0.2,1,0.5c0,0,0,0,0,0c0,0,1,1,4.1,0.9c0.8-0.1,1.3,0.5,1.3,1.2
				c0,0.7,0.2,6.6-2.5,9.5c-1,1-2.1,1.6-3.5,1.6C193.3,48.9,193.2,48.9,193.1,48.9z M189.2,39.3c0.2,1.9,0.8,4.9,2.3,6.3
				c0.5,0.5,1.1,0.7,1.8,0.7c0.7,0,1.2-0.3,1.7-0.8c1.3-1.5,1.7-4.5,1.8-6.4c-1.8-0.1-3.1-0.6-3.8-1C192.2,38.5,191,39.1,189.2,39.3
				z"/>
		</g>
		<g>
			<path style="fill:#BF7100;" d="M195.1,43.3c0,1-0.8,1.2-1.9,1.3c-1.1,0-1.9-0.2-2-1.1c0-1,0.8-1.8,1.9-1.8
				C194.1,41.6,195,42.3,195.1,43.3z"/>
			<g>
				
					<ellipse transform="matrix(0.9993 -3.796101e-02 3.796101e-02 0.9993 -1.4398 7.269)" style="fill:#BF7100;" cx="190.7" cy="41.5" rx="0.6" ry="0.7"/>
				
					<ellipse transform="matrix(0.9993 -3.796101e-02 3.796101e-02 0.9993 -1.4295 7.4493)" style="fill:#BF7100;" cx="195.5" cy="41.4" rx="0.6" ry="0.7"/>
			</g>
			<g>
				
					<ellipse transform="matrix(0.9993 -3.796101e-02 3.796101e-02 0.9993 -1.3976 7.3227)" style="fill:#BF7100;" cx="192.1" cy="40.5" rx="0.6" ry="0.7"/>
				
					<ellipse transform="matrix(0.9993 -3.796101e-02 3.796101e-02 0.9993 -1.3937 7.3911)" style="fill:#BF7100;" cx="193.9" cy="40.4" rx="0.6" ry="0.7"/>
			</g>
		</g>
	</g>
</g>
<g>
	<g>
		<g>
			<g>
				<path style="fill:#F0B109;" d="M153,154.7c-0.4,0-0.9,0-1.3,0.1c-5.2,1-9.4,7.8-11.4,11.7c-2.3,4.5-3.9,9.7-4.9,15.3
					c-1,5.7-1.3,11-1.1,15.8l0,0c0.9,18.7,11.6,24,16.2,25.4c6.5,2,14.8-1,19.9-4.2c6-3.8,11.4-9.4,16.9-17.7
					c2.6-3.9,4.9-7.9,6.6-11c1.1-2,2.7-3.7,4.2-5.3c2.7-2.9,5.2-5.6,5.2-10.1c-0.1-3.8-2.5-7.7-6.2-9.6c-3.4-1.8-7.7-2.1-11.8-0.9
					c-8.5,2.6-11.8,8.1-15.6,14.5c-1.3,2.2-2.6,4.4-4.2,6.6c-2.4,3.3-5.2,5.4-8.7,7.8c-0.2,0.1-0.4,0.1-0.6,0
					c-0.2-0.1-0.3-0.3-0.3-0.5c0.7-6.8,2.2-12.7,5.1-20.4c2.6-6.9,2-11.6-1.8-15C157.1,155.6,155,154.7,153,154.7z"/>
				<path d="M155,225.1c-1.7,0-3.4-0.2-5-0.7c-4.8-1.5-16.1-7.1-17.1-26.6c-0.2-4.9,0.1-10.3,1.1-16.1c1-5.8,2.7-11.1,5-15.7
					c2.1-4.2,6.5-11.3,12.3-12.4c2.9-0.6,5.8,0.4,8.7,2.9c4.2,3.7,5,9.1,2.2,16.5c-2.6,6.9-4,12.3-4.8,18.2c2.7-1.9,5-3.8,6.8-6.4
					c1.6-2.2,2.9-4.4,4.2-6.6c3.8-6.3,7.4-12.3,16.3-15.1c4.5-1.4,9.2-1,12.9,1c4.1,2.2,6.9,6.5,6.9,10.8c0.1,5.1-2.8,8.1-5.6,11.1
					c-1.4,1.5-2.9,3.1-4,5c-1.7,3.1-4,7.2-6.7,11.1c-5.6,8.5-11.1,14.2-17.3,18.1C166.9,222.6,160.8,225.1,155,225.1z M153,156
					c-0.4,0-0.7,0-1.1,0.1c-4.8,0.9-8.9,8-10.4,11c-2.2,4.4-3.8,9.4-4.8,15c-0.9,5.6-1.3,10.8-1.1,15.5
					c0.9,17.8,10.9,22.8,15.2,24.1c6.1,1.9,13.9-1,18.8-4.1c5.8-3.7,11.1-9.2,16.5-17.3c2.6-3.9,4.8-7.9,6.5-10.9
					c1.2-2.2,2.8-3.9,4.4-5.5c2.6-2.8,4.9-5.2,4.8-9.2c0-3.3-2.2-6.7-5.5-8.4c-3.1-1.6-7-1.9-10.8-0.8c-8,2.4-11,7.5-14.8,13.9
					c-1.3,2.2-2.7,4.4-4.3,6.7c-2.5,3.5-5.4,5.6-9,8.1c-0.6,0.4-1.4,0.5-2,0.1c-0.6-0.4-1-1.1-0.9-1.8c0.8-6.9,2.3-12.9,5.2-20.7
					c2.4-6.4,1.9-10.5-1.4-13.5C156.5,156.8,154.7,156,153,156z M155.9,192.1C155.9,192.1,155.9,192.1,155.9,192.1
					C155.9,192.1,155.9,192.1,155.9,192.1z"/>
			</g>
			<g>
				<path style="fill:#264DA0;" d="M172.5,174.1c0,0,2.3,12.3,21.3,16.1c0,0-9.9,24.1-30.1,31.9c0,0-23.8,9.9-29.5-21.7
					c0,0-2.7-34.5,17.4-45.6c0,0,15.8,0.3,9.3,17.5c0,0-6.4,16.9-4.9,20.9c0,0,8-5.3,11.5-11.1L172.5,174.1z"/>
				<path d="M155.5,224.9c-3,0-6.4-0.6-9.8-2.4c-6.6-3.6-10.9-10.9-12.9-21.9c0,0,0-0.1,0-0.1c0-0.4-0.7-8.9,1.2-19
					c2.5-13.5,8.3-23.2,16.9-27.9c0.2-0.1,0.5-0.2,0.7-0.2c0.3,0,7,0.2,10.4,5.1c2.4,3.5,2.4,8.3,0.1,14.3c-2.1,5.6-4.7,13.9-5,17.9
					c2.5-1.9,6.9-5.6,9.2-9.3l5-8.1c0.3-0.5,0.9-0.7,1.4-0.6c0.6,0.1,1,0.5,1.1,1.1c0.1,0.5,2.5,11.4,20.2,15
					c0.4,0.1,0.7,0.3,0.9,0.7c0.2,0.4,0.2,0.8,0.1,1.2c-0.4,1-10.4,24.7-30.8,32.7C164,223.4,160.4,224.9,155.5,224.9z M135.6,200.2
					c1.8,10,5.7,16.7,11.5,19.9c7.6,4.2,16.1,0.7,16.2,0.7c16.5-6.4,26.1-24.4,28.7-29.7c-12.9-3.1-17.8-10-19.7-13.9l-3.5,5.7
					c-3.6,6-11.5,11.3-11.9,11.5c-0.3,0.2-0.8,0.3-1.2,0.2c-0.4-0.1-0.7-0.4-0.9-0.8c-1.7-4.3,3.7-19,4.9-21.9
					c1.9-5.1,2-9.1,0.2-11.7c-2.2-3.2-6.6-3.8-7.9-3.9C133.6,166.8,135.5,198.6,135.6,200.2z"/>
			</g>
			<g>
				<path style="fill:#264DA0;" d="M161.7,189c0,0,3.9,15.2,22,17.4"/>
				<path d="M183.7,207.8c-0.1,0-0.1,0-0.2,0c-9.8-1.2-15.6-6.1-18.7-10.1c-3.4-4.3-4.4-8.2-4.5-8.4c-0.2-0.7,0.3-1.5,1-1.7
					c0.7-0.2,1.5,0.3,1.7,1c0.2,0.6,3.9,14.4,20.8,16.4c0.7,0.1,1.3,0.8,1.2,1.5C185,207.3,184.4,207.8,183.7,207.8z"/>
			</g>
			<g>
				<path style="fill:#FFC600;" d="M168.5,180.2c0,0,3.9,8.8,22.3,16.7l-3.2,4.6c0,0-9.7-0.3-22.7-15.4L168.5,180.2z"/>
				<path d="M187.6,202.7C187.6,202.7,187.6,202.7,187.6,202.7c-0.5,0-10.5-0.5-23.7-15.9c-0.4-0.4-0.4-1-0.1-1.5l3.7-5.8
					c0.3-0.4,0.7-0.6,1.2-0.6c0.5,0,0.9,0.3,1.1,0.8l0,0c0,0.1,4,8.5,21.6,16c0.4,0.2,0.6,0.5,0.7,0.8c0.1,0.4,0,0.8-0.2,1.1
					l-3.2,4.6C188.4,202.5,188,202.7,187.6,202.7z M166.5,185.9c10.2,11.6,18.2,13.8,20.5,14.2l1.9-2.6
					c-12.7-5.7-18.2-11.8-20.3-14.8L166.5,185.9z"/>
			</g>
		</g>
		<g>
			<path style="fill:#FFC600;" d="M154.9,193.5c0,0-5.9,2.3-7.3,7.7"/>
			<path d="M147.6,202.4c-0.1,0-0.2,0-0.3,0c-0.7-0.2-1.1-0.9-0.9-1.6c1.6-6,7.8-8.5,8.1-8.6c0.7-0.3,1.4,0.1,1.7,0.7
				c0.3,0.7-0.1,1.4-0.7,1.7c-0.1,0-5.3,2.2-6.5,6.8C148.7,202.1,148.2,202.4,147.6,202.4z"/>
		</g>
	</g>
	<g>
		<g>
			<path style="fill:#FFC600;" d="M140.3,159.6c0,0-4.7,3.4-6.6,5.4l7.4,8.6l6.2-5L140.3,159.6z"/>
			<path d="M141.2,174.9c-0.4,0-0.7-0.2-1-0.4l-7.4-8.6c-0.4-0.5-0.4-1.3,0.1-1.7c2-2,6.6-5.4,6.8-5.5c0.6-0.4,1.4-0.3,1.8,0.3
				l7,9.1c0.4,0.6,0.3,1.3-0.2,1.8l-6.2,5C141.7,174.8,141.4,174.9,141.2,174.9z M135.5,165.1l5.8,6.8l4.2-3.4l-5.4-7.1
				C138.9,162.3,136.9,163.8,135.5,165.1z"/>
		</g>
		<g>
			<line style="fill:#FFC600;" x1="139.4" y1="164.4" x2="141.8" y2="167.4"/>
			<path d="M141.8,168.7c-0.4,0-0.7-0.2-1-0.5l-2.5-3c-0.5-0.6-0.4-1.4,0.2-1.8c0.5-0.4,1.4-0.4,1.8,0.2l2.5,3
				c0.5,0.6,0.4,1.4-0.2,1.8C142.4,168.6,142.1,168.7,141.8,168.7z"/>
		</g>
		<g>
			<path d="M140.3,159.6c0,0,6.7-5.8,11.7-6.2l7.7,7.5c0,0-9.9,5.7-12.5,7.7L140.3,159.6z"/>
			<path d="M147.3,170c-0.1,0-0.1,0-0.2,0c-0.3,0-0.7-0.2-0.9-0.5l-7-9.1c-0.4-0.5-0.3-1.3,0.2-1.8c0.3-0.3,7.1-6.1,12.5-6.5
				c0.4,0,0.7,0.1,1,0.4l7.7,7.5c0.3,0.3,0.4,0.7,0.4,1.1c-0.1,0.4-0.3,0.8-0.6,1c-0.1,0.1-9.9,5.6-12.3,7.6
				C147.9,169.9,147.6,170,147.3,170z M142.1,159.8l5.4,7.1c2.6-1.8,7.6-4.8,10.1-6.2l-6.1-5.9C148.4,155.3,144.3,158.1,142.1,159.8
				z"/>
		</g>
	</g>
</g>
</svg>
