<?xml version="1.0" encoding="utf-8"?>
<!-- Generator: Adobe Illustrator 24.1.1, SVG Export Plug-In . SVG Version: 6.00 Build 0)  -->
<svg version="1.1" id="Layer_1" xmlns="http://www.w3.org/2000/svg" xmlns:xlink="http://www.w3.org/1999/xlink" x="0px" y="0px"
	 viewBox="0 0 240 240" style="enable-background:new 0 0 240 240;" xml:space="preserve">
<g>
	<rect style="fill:#5D0085;" width="240" height="240"/>
	<polygon style="fill:#74059C;" points="240,0 235.77,4.24 4.25,4.24 4.25,235.76 0,240 0,0 	"/>
	<polygon style="fill:#4B0072;" points="240,0 240,240 0,240 4.25,235.76 235.77,235.76 235.77,4.24 	"/>
</g>
<g>
	<polygon style="fill:#74059C;" points="45.29,76.47 49.71,68.53 55,78.23 	"/>
	<polygon style="fill:#74059C;" points="27.65,88.82 32.94,86.18 32.94,93.23 	"/>
	<polygon style="fill:#74059C;" points="60.29,144.41 69.12,136.47 69.12,155.88 	"/>
	<polygon style="fill:#74059C;" points="115.88,123.23 123.82,117.94 122.06,126.76 	"/>
	<polygon style="fill:#74059C;" points="98.24,38.53 89.41,27.94 100,27.94 	"/>
	<polygon style="fill:#74059C;" points="30.29,199.12 36.47,192.06 40.88,195.59 	"/>
	<polygon style="fill:#74059C;" points="60.29,199.12 57.65,190.29 62.94,189.41 65.59,193.82 	"/>
	<polygon style="fill:#74059C;" points="163.53,213.24 159.12,202.65 169.71,199.12 	"/>
	<polygon style="fill:#74059C;" points="160.88,185 158.24,174.41 168.82,177.94 	"/>
	<polygon style="fill:#74059C;" points="158.24,47.35 159.12,57.06 162.65,50 	"/>
	<polygon style="fill:#74059C;" points="202.35,212.35 205.88,204.41 210.3,210.59 	"/>
	<polygon style="fill:#74059C;" points="190,116.18 189.12,102.94 197.94,110 	"/>
</g>
</svg>
