<?xml version="1.0" encoding="utf-8"?>
<!-- Generator: Adobe Illustrator 23.1.1, SVG Export Plug-In . SVG Version: 6.00 Build 0)  -->
<!DOCTYPE svg PUBLIC "-//W3C//DTD SVG 1.1//EN" "http://www.w3.org/Graphics/SVG/1.1/DTD/svg11.dtd" [
	<!ENTITY ns_flows "http://ns.adobe.com/Flows/1.0/">
	<!ENTITY ns_extend "http://ns.adobe.com/Extensibility/1.0/">
	<!ENTITY ns_ai "http://ns.adobe.com/AdobeIllustrator/10.0/">
	<!ENTITY ns_graphs "http://ns.adobe.com/Graphs/1.0/">
	<!ENTITY ns_vars "http://ns.adobe.com/Variables/1.0/">
	<!ENTITY ns_imrep "http://ns.adobe.com/ImageReplacement/1.0/">
	<!ENTITY ns_sfw "http://ns.adobe.com/SaveForWeb/1.0/">
	<!ENTITY ns_custom "http://ns.adobe.com/GenericCustomNamespace/1.0/">
	<!ENTITY ns_adobe_xpath "http://ns.adobe.com/XPath/1.0/">
]>
<svg version="1.1" id="레이어_1" xmlns:x="&ns_extend;" xmlns:i="&ns_ai;" xmlns:graph="&ns_graphs;"
	 xmlns="http://www.w3.org/2000/svg" xmlns:xlink="http://www.w3.org/1999/xlink" xmlns:a="http://ns.adobe.com/AdobeSVGViewerExtensions/3.0/"
	 x="0px" y="0px" viewBox="0 0 500 600" style="enable-background:new 0 0 500 600;" xml:space="preserve">
<metadata>
	<sfw  xmlns="&ns_sfw;">
		<slices></slices>
		<sliceSourceBounds  bottomLeftOrigin="true" height="22.4" width="20.2" x="349.3" y="198.8"></sliceSourceBounds>
	</sfw>
</metadata>
<path style="fill:#47B73B;" d="M369.5,389.3l-0.4,0.8h-1.2H367l-1.1,0.2h-0.8l-0.9,0.4l-1,0.1l-0.1,1.4l0.6,1l0.1,1.1l-0.4,1.3
	l-1.8,0.8l-1.5-1.3l-0.9-0.7l-0.7-0.8l-2.1,2.3l-1,1.8l-0.3,1.9l-0.7,0.5l-0.4-1l-1-1l0.1,0.9l0.2,2h-0.6l-0.3-0.7l-0.3-0.2
	l-0.8,0.6l-0.8,0.5l-0.5-0.7l-0.7-2.2l0.3-2l0.6-2.5l0.1-1.4l0.7-1.2l1.2-1.5l1.2-1.8l0.8-5.8l1.2-1.4l1.5-1.1l1.9-0.8l2,0.1l1.6,1
	l0.5,2.2l1.4,2l1.8,1.5l1.5,1.9l1.6,1.7L369.5,389.3z"/>
</svg>
