<?xml version="1.0" encoding="UTF-8"?>
<svg xmlns="http://www.w3.org/2000/svg" xmlns:xlink="http://www.w3.org/1999/xlink" version="1.1" viewBox="0 0 390 390">
  <defs>
    <linearGradient id="_무제_그라디언트_3" data-name="무제 그라디언트 3" x1="209" y1="322.8" x2="185.7" y2="68.2" gradientUnits="userSpaceOnUse">
      <stop offset="0" stop-color="#000" stop-opacity="0"/>
      <stop offset="1" stop-color="#000"/>
    </linearGradient>
  </defs>
  <!-- Generator: Adobe Illustrator 28.7.1, SVG Export Plug-In . SVG Version: 1.2.0 Build 142)  -->
  <g>
    <g id="_레이어_1" data-name="레이어_1">
      <g>
        <g>
          <g>
            <path d="M216,234.7c-6.2-3.3-14.1-4.8-21.8-4.8-7.7,0-15.5,1.6-21.8,4.8-7.4,3.9-18.5,17.3-15.6,25.6,1.1,3.1,3.9,5.4,6.7,7.4,8.5,6.4,17.1,12.7,25.9,18.8,1.4,1,8.1,1,9.6,0,8.8-6.1,17.4-12.4,25.9-18.8,2.7-2.1,5.6-4.3,6.7-7.4,2.9-8.3-8.2-21.7-15.6-25.6Z"/>
            <path d="M224.8,233.6c0,3.9-.3,7.6-.3,11.6-5.2,7-14.3,8.7-22.6,9.3-10.2.7-20.9.4-30.1-4.4-1.7-.9-3.5-2-4.6-3.7-2.5-3.6-1.9-8.6-1.2-13.1,15.7-.7,32.1-1.7,47.8-2.4,3.6-.2,7.7,1.4,11,2.8Z"/>
            <g>
              <g>
                <path d="M236.3,146.1c.9-.2,1.9-.2,2.9-.2,8.6,0,15,11.2,19.8,19,12.5,20,15.8,46,.7,69.2-4.5,6.9-10.6,14.6-17.1,17.5-2.7,1.2-5.7,1-8.5.3-5.1-1.4-10.4-5.2-11.2-11.3-.6-4.7,1.6-9.4,4.3-13.1,3.6-4.9,8.1-8.7,12-13.3,4.8-5.8,8-14.5,6.1-22.1-1.9-7.6-5.3-12-9-18.6-3.1-5.6-6.9-10.3-7.3-17.4-.4-6.5,2.8-9.2,7.3-9.9Z" style="fill: #363636;"/>
                <path d="M238.4,253.8c-1.4,0-3-.2-4.6-.7-5-1.3-11.3-5.4-12.2-12.5-.7-5.6,2-10.7,4.5-14.1,2.1-2.9,4.6-5.4,6.9-7.8,1.7-1.8,3.5-3.6,5.1-5.5,5.1-6.2,7.4-14.4,5.8-20.9-1.4-5.7-3.7-9.5-6.3-14-.8-1.4-1.6-2.8-2.5-4.3-.6-1.1-1.2-2.1-1.8-3.1-2.6-4.3-5.3-8.8-5.7-14.8-.4-6.4,2.6-10.5,8.5-11.4h0c1-.2,2-.2,3.1-.2,8.8,0,15.1,10.1,20.1,18.1l.9,1.5c14.3,22.9,14.6,49.3.7,70.7-6.1,9.5-12.1,15.6-17.7,18.1-1.5.7-3.1,1-4.9,1ZM239.2,147.3c-1,0-1.9,0-2.7.2h0c-4.5.7-6.5,3.4-6.1,8.5.4,5.4,2.7,9.4,5.3,13.6.6,1.1,1.3,2.1,1.9,3.2.8,1.5,1.7,2.9,2.5,4.2,2.8,4.7,5.2,8.7,6.7,14.7,1.8,7.4-.7,16.5-6.4,23.4-1.7,2-3.5,3.9-5.2,5.7-2.3,2.4-4.7,4.8-6.7,7.5-2.2,2.9-4.6,7.4-4,12.1.8,5.7,5.9,9,10.1,10.1,3,.8,5.5.8,7.6-.2,5-2.3,10.7-8.1,16.5-17,13.3-20.4,13-45.7-.8-67.6l-.9-1.5c-4.6-7.5-10.4-16.8-17.7-16.8ZM236.3,146.1h0,0Z"/>
              </g>
              <g>
                <path d="M253.9,242c1.1-1.5,4.9-6.6,5.9-8,15-23.2,11.8-49.2-.7-69.2-4.9-7.8-11.2-19-19.8-19-1,0-2,0-2.9.2-4.5.7-7.7,3.5-7.3,9.9.5,7.1,4.2,11.8,7.3,17.4,3.7,6.6,7.1,11,9,18.6,1.9,7.6-1.2,16.3-6.1,22.1-1.9,2.3-4,4.4-6.1,6.5l20.8,21.4Z" style="fill: #c6c6c6;"/>
                <path d="M254.1,244.2l-22.9-23.6,1.9-1.9c1.7-1.8,3.5-3.6,5.1-5.5,5.1-6.2,7.4-14.4,5.8-20.9-1.4-5.7-3.7-9.5-6.3-14-.8-1.4-1.6-2.8-2.5-4.3-.6-1.1-1.2-2.1-1.8-3.1-2.6-4.3-5.3-8.8-5.7-14.8-.4-6.4,2.6-10.5,8.5-11.4,1-.2,2-.2,3.1-.2,8.8,0,15.1,10.1,20.1,18.1l.9,1.5c14.3,22.9,14.6,49.3.7,70.7-.7,1.1-2.9,4.1-4.5,6.2l-2.4,3.2ZM235.1,220.7l18.7,19.2.4-.5c1.5-2,3.8-5.1,4.4-6.1,13.3-20.4,13-45.7-.8-67.6l-.9-1.5c-4.6-7.5-10.4-16.8-17.7-16.8-1,0-1.9,0-2.7.2-4.5.7-6.5,3.4-6.1,8.5.4,5.4,2.7,9.4,5.3,13.6.6,1.1,1.3,2.1,1.9,3.2.8,1.5,1.7,2.9,2.5,4.2,2.8,4.7,5.2,8.7,6.7,14.7,1.8,7.4-.7,16.5-6.4,23.4-1.7,2-3.5,3.8-5.2,5.6Z"/>
              </g>
            </g>
            <g>
              <line x1="242.1" y1="210" x2="262.9" y2="228.6" style="fill: #c6c6c6;"/>
              <rect x="251.1" y="205.3" width="2.8" height="28" transform="translate(-79.3 261.1) rotate(-48.1)"/>
            </g>
            <g>
              <g>
                <path d="M153.7,146.1c-.9-.2-1.9-.2-2.9-.2-8.6,0-15,11.2-19.8,19-12.5,20-15.8,46-.7,69.2,4.5,6.9,10.6,14.6,17.1,17.5,2.7,1.2,5.7,1,8.5.3,5.1-1.4,10.4-5.2,11.2-11.3.6-4.7-1.6-9.4-4.3-13.1-3.6-4.9-8.1-8.7-12-13.3-4.8-5.8-8-14.5-6.1-22.1,1.9-7.6,5.3-12,9-18.6,3.1-5.6,6.9-10.3,7.3-17.4.4-6.5-2.8-9.2-7.3-9.9Z" style="fill: #363636;"/>
                <path d="M151.6,253.8c-1.8,0-3.4-.3-4.9-1-5.6-2.5-11.5-8.6-17.7-18.1-13.9-21.4-13.6-47.8.7-70.7l.9-1.5c5-8.1,11.3-18.1,20.1-18.2,1.1,0,2.2,0,3.1.2h0c5.9,1,8.9,5,8.5,11.4-.4,6.1-3.1,10.5-5.7,14.8-.6,1-1.2,2.1-1.8,3.1-.9,1.5-1.7,2.9-2.5,4.3-2.6,4.5-4.9,8.3-6.3,13.9-1.6,6.5.7,14.7,5.8,20.9,1.6,1.9,3.4,3.7,5.1,5.5,2.4,2.4,4.8,5,6.9,7.8,2.5,3.4,5.3,8.5,4.5,14.1-1,7.1-7.2,11.1-12.2,12.5-1.6.4-3.2.7-4.6.7ZM150.8,147.3c-7.3,0-13,9.3-17.7,16.8l-.9,1.5c-13.7,21.9-14,47.2-.8,67.6,5.8,8.9,11.5,14.8,16.5,17,2.1.9,4.6,1,7.6.2,4.2-1.1,9.4-4.4,10.1-10.1.6-4.6-1.8-9.1-4-12.1-2-2.7-4.4-5.2-6.7-7.5-1.8-1.8-3.6-3.7-5.2-5.7-5.7-6.8-8.2-16-6.4-23.4,1.5-6.1,3.9-10.1,6.6-14.7.8-1.3,1.6-2.7,2.5-4.2.6-1.1,1.3-2.2,1.9-3.2,2.5-4.2,4.9-8.2,5.3-13.6.3-5-1.6-7.7-6.1-8.5h0c-.8-.1-1.7-.2-2.7-.2Z"/>
              </g>
              <g>
                <path d="M136.1,242c-1.1-1.5-4.9-6.6-5.9-8-15-23.2-11.8-49.2.7-69.2,4.9-7.8,11.2-19,19.8-19,1,0,2,0,2.9.2,4.5.7,7.7,3.5,7.3,9.9-.5,7.1-4.2,11.8-7.3,17.4-3.7,6.6-7.1,11-9,18.6-1.9,7.6,1.2,16.3,6.1,22.1,1.9,2.3,4,4.4,6.1,6.5l-20.8,21.4Z" style="fill: #c6c6c6;"/>
                <path d="M135.9,244.2l-2.4-3.2c-1.6-2.2-3.8-5.2-4.5-6.2-13.9-21.4-13.6-47.8.7-70.7l.9-1.5c5-8.1,11.3-18.1,20.1-18.2,1.1,0,2.2,0,3.1.2,5.9,1,8.9,5,8.5,11.4-.4,6.1-3.1,10.5-5.7,14.8-.6,1-1.2,2.1-1.8,3.1-.9,1.5-1.7,2.9-2.5,4.3-2.6,4.5-4.9,8.3-6.3,13.9-1.6,6.5.7,14.7,5.8,20.9,1.6,1.9,3.4,3.7,5.1,5.5l1.9,1.9-22.9,23.6ZM150.8,147.3c-7.3,0-13,9.3-17.7,16.8l-.9,1.5c-13.7,21.9-14,47.2-.8,67.6.7,1,2.9,4.1,4.4,6.1l.4.5,18.7-19.2c-1.7-1.8-3.5-3.6-5.2-5.6-5.7-6.8-8.2-16-6.4-23.4,1.5-6.1,3.9-10.1,6.6-14.7.8-1.3,1.6-2.7,2.5-4.2.6-1.1,1.3-2.2,1.9-3.2,2.5-4.2,4.9-8.2,5.3-13.6.3-5-1.6-7.7-6.1-8.5-.8-.1-1.7-.2-2.7-.2Z"/>
              </g>
            </g>
            <g>
              <path d="M240.1,165.9c-2.3-6.3-4.6-12.6-6.9-18.8h-75.6c-2.3,6.3-4.6,12.6-6.9,18.8-2.8,7.6-5.6,15.7-4.7,24,.7,5.8,3.1,16.7,5.5,21.7,2.7,5.7,6.4,9.8,10.2,14.7,2.2,2.9,3.4,6.4,5.5,9.3s7.3,6.4,10.7,9.2c1.6,1.4,3.3,2.7,5.3,3.5,2,.8,4.3.9,6.2-.2,2.2-1.3,3.2-4.2,5.6-5.1,1.8,1.6,3.5,3.2,5.3,4.8,1,.9,2.1,1.9,3.5,2,1.3.1,2.5-.5,3.6-1.1,8.7-5,14.6-11.7,19.8-19.8,3.9-6,8.8-10.7,12-17.3,2.4-5,4.9-15.9,5.6-21.7.9-8.3-1.9-16.4-4.7-24Z" style="fill: #5c5c5c;"/>
              <path d="M204.2,251.2c-.2,0-.4,0-.5,0-1.9-.2-3.2-1.5-4.3-2.4l-4.5-4.1c-.6.5-1.2,1.2-1.8,1.9-.8,1-1.7,2-2.8,2.7-2,1.2-4.8,1.4-7.4.3-2.2-.9-4-2.4-5.7-3.8-1-.8-2.1-1.6-3.2-2.5-2.8-2.1-5.7-4.3-7.8-7-1.1-1.5-2-3.1-2.8-4.7-.8-1.6-1.6-3.2-2.7-4.5-.8-1-1.5-2-2.3-2.9-3-3.8-5.8-7.4-8-12-2.6-5.3-5-16.5-5.7-22.2-1-8.9,2.2-17.6,4.7-24.6l7.2-19.8h77.6l7.2,19.8c2.6,7,5.7,15.7,4.7,24.6-.6,5.7-3.1,16.9-5.7,22.2-2,4.1-4.7,7.6-7.3,10.9-1.6,2.1-3.3,4.3-4.8,6.6-6,9.4-12.3,15.6-20.3,20.2-1.1.7-2.5,1.3-4,1.3ZM195.4,241.3l5.9,5.4c.9.9,1.8,1.6,2.7,1.7.9.1,1.9-.4,2.8-1,7.6-4.4,13.5-10.3,19.3-19.3,1.6-2.4,3.3-4.7,5-6.8,2.6-3.3,5.1-6.5,6.9-10.4,2.2-4.6,4.7-15.2,5.4-21.3.9-8.2-2.1-16.6-4.6-23.4h0s-6.5-17.9-6.5-17.9h-73.6l-6.5,17.9c-2.5,6.7-5.5,15.1-4.6,23.4.7,6.1,3.2,16.7,5.4,21.3,2.1,4.4,4.8,7.8,7.7,11.5.8,1,1.5,1.9,2.3,3,1.2,1.6,2.1,3.3,3,5,.8,1.6,1.6,3,2.5,4.3,1.8,2.4,4.5,4.4,7.2,6.4,1.2.9,2.3,1.7,3.3,2.6,1.5,1.3,3.1,2.6,4.9,3.3s3.6.7,4.9,0c.8-.5,1.4-1.3,2.1-2.1.9-1.1,2-2.4,3.6-3.1l.8-.3Z"/>
            </g>
            <g>
              <path d="M173.7,166.2c1.1,4.2,2.2,8.3,3.3,12.5,2.6,9.2,8.8,16.8,15.5,23.4,2.3,2.2,3.9-.3,5.6-2.1s3.9-4.6,5.7-6.9c5.8-7.7,7.2-17,9.3-26.2" style="fill: #c6c6c6;"/>
              <path d="M194.3,204.4c-1,0-1.9-.4-2.7-1.3-5.4-5.3-13-13.5-15.9-24-1.2-4.5-2.3-8.6-3.3-12.5l2.7-.7c1,4,2.1,8,3.3,12.5,2.7,9.8,10,17.7,15.1,22.7.2.2.5.5.8.5.5,0,1.5-1,2.1-1.8.2-.3.5-.5.7-.8,2-2.1,3.8-4.4,5.5-6.7,4.9-6.5,6.6-14,8.3-22,.3-1.2.5-2.5.8-3.7l2.8.6c-.3,1.2-.5,2.5-.8,3.7-1.7,7.9-3.5,16.1-8.7,23-1.8,2.4-3.7,4.9-5.8,7.1-.2.2-.4.5-.7.7-1.1,1.2-2.4,2.7-4.1,2.7,0,0,0,0-.1,0Z"/>
            </g>
            <path d="M190.4,179.5c.3.3.5.5.6.9.1.4,0,.8-.1,1.2-1.3,4.6-3.3,9.2-4.2,13.9-.7,3.6,3.3,6.7,6.2,8.3.7.4,1.5.8,2.2.5.4-.1.7-.4,1-.6,1.7-1.4,3.7-3.6,4.5-5.7s-.7-4.3-1.4-6.5c-1.1-3.2-2.6-7-2.7-10.4,0-.6.3-1,.7-1.5,1.1-1.5,2.3-2.9,3.1-4.5.8-1.7,1.2-3.7.6-5.4-1.5-4.4-7.2-4.4-10-1.5-1.1,1.2-2.2,2.9-3.1,4.3-1.7,2.6.7,5,2.6,6.9Z"/>
            <g>
              <path d="M169.5,154.5c0,7.5,6,15.3,11.6,18.9,2.3,1.5,2.7,1.8,5,.6,2.9-1.5,5.7-4.6,7.8-6.7,2.3,2,4.5,7.2,7.5,8.1,3.9,1.2,9.6-5.8,11.9-8.5,3.3-4,5.5-9,3.8-14.4-3.4-10.9-14.8-15.2-24.8-14.7-7.1.4-16.3,3.5-20.7,9.9-1.5,2.2-2.1,4.5-2.1,6.8Z" style="fill: #c6c6c6;"/>
              <path d="M202.2,176.9c-.5,0-.9,0-1.3-.2-2.3-.7-3.9-3-5.5-5.3-.5-.8-1-1.5-1.5-2.1-2,2.1-4.5,4.6-7.2,6-2.8,1.4-3.8,1-6.2-.6-6.3-4.1-12.4-12.3-12.4-20.2,0-2.8.8-5.3,2.4-7.6,4.6-6.7,14.2-10.1,21.8-10.5,10.4-.5,22.5,4.1,26.2,15.7,1.6,5,.2,10.5-4.1,15.7-3.6,4.4-8.1,9.2-12,9.2ZM193.7,165.4l1,.9c1,.9,1.9,2.2,2.9,3.6,1.3,1.8,2.7,3.8,4.1,4.2,1.4.4,4.3-.6,10.3-8.1,3.7-4.5,4.9-8.9,3.6-13-3.2-10.1-14-14.2-23.3-13.7-6.8.3-15.6,3.3-19.6,9.3-1.2,1.8-1.9,3.8-1.9,6.1h0c0,6.8,5.6,14.2,10.9,17.7q2,1.3,3.6.6c2.3-1.2,4.7-3.7,6.6-5.6l1.7-1.8Z"/>
            </g>
            <path d="M162,191.6c-.2,0-.3,0-.5,0l-10.8-3.9c-.7-.2-1-.9-.9-1.6l1.8-8.2c.1-.7.8-1.2,1.5-1.1l21.7,2.2c.7,0,1.3.7,1.3,1.4v8.1c0,.7-.5,1.3-1.2,1.4l-12.7,1.8c0,0-.1,0-.2,0ZM152.9,185.3l9.3,3.4,11.2-1.6v-5.6l-19.2-1.9-1.2,5.8Z"/>
            <path d="M225.7,191.6c0,0-.1,0-.2,0l-12.7-1.8c-.7,0-1.2-.7-1.2-1.4v-8.1c0-.7.5-1.3,1.3-1.4l21.7-2.2c.7,0,1.4.4,1.5,1.1l1.8,8.2c.1.7-.2,1.4-.9,1.6l-10.8,3.9c-.2,0-.3,0-.5,0ZM214.4,187.1l11.2,1.6,9.3-3.4-1.2-5.8-19.2,1.9v5.6Z"/>
            <g>
              <path d="M255.3,60.9c-2.3-6.1-4.7-12.3-8.8-17.3-9.7-11.8-25.7-13.6-39.5-13.6-3.7,0-7.5,0-11.2,0-3.8,0-7.5,0-11.2,0-13.8,0-29.8,1.8-39.5,13.6-4.1,4.9-6.5,11.2-8.8,17.3-6.5,16.9-17.2,42-7.1,59.4,12.3,21.5,30.4,34.6,50.2,39.3,5.4,1.3,10.9,1.9,16.4,1.9,5.5,0,11-.6,16.4-1.9,19.8-4.7,37.9-17.8,50.2-39.3,10-17.4-.6-42.5-7.1-59.4Z" style="fill: #363636;"/>
              <path d="M195.8,162.9c-5.7,0-11.4-.7-16.7-1.9-21-5-39.2-19.1-51.1-40-9.8-17.1-.7-40.6,5.9-57.7l1.1-2.9c2.2-5.9,4.8-12.5,9-17.7,10.3-12.5,27.1-14.1,40.6-14.1,2.5,0,5.1,0,7.7,0h3.6s3.6,0,3.6,0c2.6,0,5.1,0,7.7,0,13.5,0,30.3,1.6,40.6,14.1,4.3,5.2,6.8,11.8,9,17.7h0l1.1,2.9c6.6,17.2,15.7,40.7,5.9,57.7-12,20.8-30.1,35-51.1,40-5.4,1.3-11,1.9-16.7,1.9ZM195.8,31.3h-3.5c-2.6,0-5.1,0-7.7,0-12.9,0-28.9,1.5-38.4,13.1-4,4.8-6.3,11-8.6,16.9l-1.1,2.9c-6.4,16.6-15.2,39.4-6.1,55.3,11.6,20.1,29.1,33.9,49.3,38.6,5.2,1.2,10.6,1.8,16.1,1.9,5.5,0,10.9-.6,16.1-1.9,20.2-4.8,37.8-18.5,49.3-38.6,9.1-15.9.3-38.7-6.1-55.3l-1.1-2.9c-2.3-5.9-4.6-12.1-8.6-16.9-9.5-11.6-25.5-13.1-38.4-13.1-2.5,0-5.1,0-7.7,0h-3.6Z"/>
            </g>
            <path d="M177.9,96.5h0c3,0,5.4-2.4,5.4-5.4v-.7c0-3-2.5-5.3-5.5-5.3-3,0-5.4,2.4-5.4,5.4v.7c0,3,2.5,5.3,5.5,5.3" style="fill-rule: evenodd;"/>
            <ellipse cx="195.7" cy="122.7" rx="28.1" ry="39" transform="translate(71.4 317.4) rotate(-89.6)" style="fill: #707070;"/>
            <g>
              <path d="M195.7,111.2c-3.6,0-6.9-1.9-8.8-5.1-.3-.5-.6-1.2-.7-2-.1-1.5.9-3,2.4-3.6,1.2-.5,2.4-.5,3.4-.5h3.6c.5,0,1,0,1.6-.1.6,0,1.2,0,1.8,0s1.5,0,2.1.2c1.6.4,2.9,1.3,3.6,2.5.8,1.3.8,2.7.2,3.9-1.2,2.6-5.3,4.2-7.5,4.6-.6.1-1.2.2-1.8.2Z" style="fill: #424242; fill-rule: evenodd;"/>
              <path d="M199.1,101.2c.6,0,1.2,0,1.8.2,1.1.3,2.1.9,2.7,1.8,2.1,3.6-3.7,6-6.3,6.5-.5,0-1,.1-1.5.1-3.1,0-5.9-1.6-7.6-4.4-.2-.4-.5-.9-.5-1.3,0-1,.7-1.9,1.6-2.2s1.9-.4,2.9-.4c1.2,0,2.4,0,3.6,0,1.1,0,2.3-.2,3.4-.2M199.1,98.4h0c-.7,0-1.3,0-2,0-.5,0-1,0-1.5,0h-1.9s-1.7,0-1.7,0c-1.1,0-2.6,0-4,.7-2.1.9-3.4,2.9-3.3,5,0,1.1.5,2,.9,2.6,2.2,3.6,5.9,5.8,10,5.8s1.3,0,2-.2c2.3-.4,7-2,8.6-5.4.8-1.7.7-3.6-.3-5.3-.9-1.6-2.5-2.7-4.5-3.1-.8-.2-1.6-.3-2.5-.3h0Z"/>
            </g>
            <g>
              <path d="M182.6,32.9s-8.1-11-13.7-15.6c-5.7-4.6-21-16-24-14.9s-17.8,31.8-3.7,47.8" style="fill: #363636;"/>
              <path d="M141.1,51.7c-.4,0-.8-.2-1.1-.5-8.6-9.8-6.5-24.3-4.5-32.1,2.2-8.6,6.4-17.1,8.8-18,4.6-1.7,24.5,14.4,25.4,15.1,5.7,4.7,13.7,15.4,14,15.9.5.6.3,1.5-.3,2-.6.5-1.5.3-2-.3,0-.1-8.1-10.9-13.5-15.3-8.5-6.9-20.6-14.9-22.7-14.6-1.1.8-6.6,10.5-8.3,22.4-.9,6.8-.8,16.3,5.2,23.2.5.6.5,1.5-.1,2-.3.2-.6.4-.9.4Z"/>
            </g>
            <g>
              <path d="M167.4,33.6s-20.5-19.2-21-23c-.5-3.8-8.9,24,1.5,30.5,0,0,2.9-1.9,4.6-2.4,0,0-2.5-6.7,4-2.6,4.2,2.6,10.9-2.5,10.9-2.5Z" style="fill: #5c5c5c;"/>
              <path d="M147.8,42.5c-.3,0-.5,0-.7-.2-9.3-5.8-5.1-25.3-3.4-30.2.6-1.8,1.2-3.3,2.6-3.2.2,0,1.3.2,1.5,1.5.4,2.1,10.8,12.9,20.6,22.1.3.3.5.7.4,1.1,0,.4-.2.8-.6,1.1-.3.2-7.6,5.7-12.5,2.6-1.3-.8-2-1-2.3-1.1,0,.4.1,1.3.4,2,.1.4.1.8,0,1.1-.2.3-.5.6-.8.7-1.3.4-3.5,1.8-4.3,2.2-.2.2-.5.2-.8.2ZM146.2,13.4c-1.2,4-3,12.6-1.7,19.3.6,3.1,1.7,5.3,3.4,6.7.7-.4,1.8-1.1,2.8-1.5-.3-1.3-.3-3,.8-4,1.6-1.3,4,0,5.7,1,2.2,1.4,5.7-.2,7.9-1.5-4.9-4.7-15.3-14.7-18.9-20Z"/>
            </g>
            <g>
              <path d="M154,34.9s-5.9-5.8-5.9-11.3" style="fill: #ff7d6e;"/>
              <path d="M154,36.3c-.4,0-.7-.1-1-.4-.3-.3-6.4-6.3-6.3-12.3,0-.8.6-1.4,1.4-1.4h0c.8,0,1.4.6,1.4,1.4,0,4.8,5.4,10.2,5.4,10.3.6.5.6,1.4,0,2-.3.3-.6.4-1,.4Z"/>
            </g>
            <g>
              <path d="M209,32.9s8.1-11,13.7-15.6c5.7-4.6,21-16,24-14.9,3,1.1,17.8,31.8,3.7,47.8" style="fill: #363636;"/>
              <path d="M250.5,51.7c-.3,0-.7-.1-.9-.4-.6-.5-.6-1.4-.1-2,6-6.8,6.1-16.3,5.2-23.1-1.6-11.9-7.2-21.6-8.4-22.5-2-.3-14.1,7.8-22.6,14.7-5.5,4.4-13.4,15.2-13.5,15.3-.5.6-1.3.8-2,.3-.6-.5-.8-1.3-.3-2,.3-.5,8.3-11.2,14-15.9.8-.7,20.7-16.8,25.4-15.1,2.4.9,6.6,9.4,8.8,18,2,7.8,4.1,22.3-4.5,32.1-.3.3-.7.5-1.1.5Z"/>
            </g>
            <g>
              <path d="M224.2,33.6s20.5-19.2,21-23c.5-3.8,8.9,24-1.5,30.5,0,0-2.9-1.9-4.6-2.4,0,0,2.5-6.7-4-2.6-4.2,2.6-10.9-2.5-10.9-2.5Z" style="fill: #5c5c5c;"/>
              <path d="M243.7,42.5c-.3,0-.5,0-.8-.2-.8-.5-3-1.8-4.3-2.2-.4-.1-.7-.4-.8-.7s-.2-.7,0-1.1c.3-.7.4-1.6.4-2-.3,0-1,.3-2.3,1.1-4.9,3.1-12.2-2.3-12.5-2.6-.3-.3-.5-.6-.6-1.1,0-.4.1-.8.4-1.1,9.8-9.2,20.2-20,20.6-22.1.2-1.4,1.2-1.5,1.5-1.5,1.4-.1,2,1.4,2.6,3.2,1.7,4.9,5.9,24.4-3.4,30.2-.2.1-.5.2-.7.2ZM240.8,37.9c1,.5,2.1,1.1,2.8,1.5,1.7-1.4,2.8-3.6,3.4-6.7,1.3-6.8-.5-15.4-1.7-19.3-3.6,5.3-13.9,15.3-18.9,20,2.2,1.3,5.7,2.8,7.9,1.5,1.7-1,4.1-2.3,5.7-1,1.2,1,1.1,2.7.8,4Z"/>
            </g>
            <g>
              <path d="M237.6,34.9s5.9-5.8,5.9-11.3" style="fill: #ff7d6e;"/>
              <path d="M237.6,36.3c-.4,0-.7-.1-1-.4-.5-.6-.5-1.5,0-2,0,0,5.5-5.4,5.4-10.3,0-.8.6-1.4,1.4-1.4h0c.8,0,1.4.6,1.4,1.4,0,6-6,12.1-6.3,12.3-.3.3-.6.4-1,.4Z"/>
            </g>
            <path d="M213.7,96.5h0c-3,0-5.4-2.4-5.4-5.4v-.7c0-3,2.5-5.3,5.5-5.3,3,0,5.4,2.4,5.4,5.4v.7c0,3-2.5,5.3-5.5,5.3" style="fill-rule: evenodd;"/>
            <path d="M192.9,59.8c-.2,2.9-.3,6.1,1.6,8.1.3.3.6.6,1,.6.9.1,1.6-1.1,1.8-2,1.6-6.4-.8-13.9,2.4-19.6.6-1,1.3-1.9,1.7-3,1.8-5.1-9.2-7.3-10.1-2-.3,2,1,4.6,1.3,6.5.6,3.7.6,7.6.3,11.3Z" style="fill: #575757; fill-rule: evenodd;"/>
            <path d="M142.8,90.3c1.8.1,3.4,1,4.1,3.2.5,1.8-.4,3.9-2,4.5-.8.3-1.7.2-2.6.2-1.6,0-3.1.5-4.5,1.4-1.7,1.1-3.6,3-5.5,2.2-1.4-.6-1.9-2.6-1.5-4.2.5-1.6,1.6-2.8,2.8-3.8,1.9-1.6,6-3.7,9.2-3.5Z" style="fill: #575757; fill-rule: evenodd;"/>
            <path d="M136.3,106c-.4.3-.8.5-1.1.9-1.2,1.1-2.9,3.7-2.2,5.5.2.4.5.7.8.9.8.5,2,.7,2.9.3.7-.3,1.2-.9,1.9-1.3s1.4-.6,2-.8c1.4-.5,2.9-1.1,3.9-2.4.2-.4.4-.8.5-1.2.3-2.7-2.3-3.3-4.3-3.2-1.5,0-3.1.5-4.4,1.3Z" style="fill: #575757; fill-rule: evenodd;"/>
            <path d="M181.9,44.2c-.5,0-.9,0-1.4.2-1.5.4-4.2,1.9-4.3,3.8,0,.4.1.9.4,1.2.6.8,1.5,1.6,2.4,1.7.8,0,1.5-.2,2.2-.2s1.5.1,2.2.2c1.5.2,3.1.5,4.5-.3.4-.2.7-.5,1-.8,1.5-2.3-.6-4.1-2.5-4.9-1.4-.7-2.9-1.1-4.5-1Z" style="fill: #575757; fill-rule: evenodd;"/>
            <path d="M139,118.2c-.6.8-.9,1.8-.6,2.7.3.9,1.1,1.4,2,1.5s1.7-.1,2.5-.4c.7-.3,1.5-.6,2.1-1.1.6-.5,1.1-1.2,1.2-2,.2-1.5-1.2-3-2.5-3-1.8,0-3.5.8-4.6,2.3Z" style="fill: #575757; fill-rule: evenodd;"/>
            <path d="M148.4,100.2c-.6.8-.9,1.8-.6,2.7.3.9,1.1,1.4,2,1.5.9.1,1.7-.1,2.5-.4.7-.3,1.5-.6,2.1-1.1.6-.5,1.1-1.2,1.2-2,.2-1.5-1.2-3-2.5-3s-3.5.8-4.6,2.3Z" style="fill: #575757; fill-rule: evenodd;"/>
            <path d="M249,90.3c-1.8.1-3.4,1-4.1,3.2-.5,1.8.4,3.9,2,4.5.8.3,1.7.2,2.6.2,1.6,0,3.1.5,4.5,1.4,1.7,1.1,3.6,3,5.5,2.2,1.4-.6,1.9-2.6,1.5-4.2-.5-1.6-1.6-2.8-2.8-3.8-1.9-1.6-6-3.7-9.2-3.5Z" style="fill: #575757; fill-rule: evenodd;"/>
            <path d="M255.4,106c.4.3.8.5,1.1.9,1.2,1.1,2.9,3.7,2.2,5.5-.2.4-.5.7-.8.9-.8.5-2,.7-2.9.3-.7-.3-1.2-.9-1.9-1.3-.6-.4-1.4-.6-2-.8-1.4-.5-2.9-1.1-3.9-2.4-.2-.4-.4-.8-.5-1.2-.3-2.7,2.3-3.3,4.3-3.2,1.5,0,3.1.5,4.4,1.3Z" style="fill: #575757; fill-rule: evenodd;"/>
            <path d="M252.7,118.2c.6.8.9,1.8.6,2.7-.3.9-1.1,1.4-2,1.5s-1.7-.1-2.5-.4c-.7-.3-1.5-.6-2.1-1.1-.6-.5-1.1-1.2-1.2-2-.2-1.5,1.2-3,2.5-3s3.5.8,4.6,2.3Z" style="fill: #575757; fill-rule: evenodd;"/>
            <path d="M243.4,100.2c.6.8.9,1.8.6,2.7-.3.9-1.1,1.4-2,1.5s-1.7-.1-2.5-.4c-.7-.3-1.5-.6-2.1-1.1-.6-.5-1.1-1.2-1.2-2-.2-1.5,1.2-3,2.5-3s3.5.8,4.6,2.3Z" style="fill: #575757; fill-rule: evenodd;"/>
            <path d="M211.5,41.4c.6,0,1.2-.2,1.7-.3.3,0,.6-.2.8-.4.3-.3.3-.9.2-1.3-.3-1.6-1.6-2.7-2.9-3.3-1.5-.7-3.1-.9-4.7-.8-1.1,0-2.6-.1-3.4.9-.8.9-.6,2.5.2,3.4.8.9,2,1.3,3.1,1.5,1.6.3,3.3.5,5,.4Z" style="fill: #575757; fill-rule: evenodd;"/>
            <path d="M210.9,51.4c-.5-4.5-8.1-4.8-8.9-.3,0,.3,0,.7,0,1,.1.3.3.5.5.7,1,.9,2.1,1.5,3.3,1.8,1.1.3,2.3.3,3.3-.2,1-.5,1.8-1.7,1.6-2.9Z" style="fill: #575757; fill-rule: evenodd;"/>
            <path d="M188.7,41.5c1.3-.5,2.7-2.3,2-3.9s-3.7-1.8-5.1-1.7c-1.1,0-2.3.4-3.1,1.2-.8.9-.9,2.4-.1,3.2.3.3.7.5,1.1.6.7.2,1.3.4,2,.6,1,.2,2.1.3,3.1,0Z" style="fill: #575757; fill-rule: evenodd;"/>
            <path d="M188.5,61.4c1.1-.4,2.2-1.9,1.6-3.2-.6-1.3-3-1.4-4.1-1.4-.9,0-1.9.3-2.5,1-.6.7-.8,2-.1,2.6.3.3.6.4.9.5.5.2,1.1.4,1.6.5.8.2,1.7.2,2.5,0Z" style="fill: #575757; fill-rule: evenodd;"/>
            <path d="M158.4,311.9c1.5,6.1,3.3,12.2,4.2,18.4,1.8,11.8.7,24-.5,35.9,7.3,2.2,15.1,2.8,22.6,1.7,1.8-23.4,3.6-46.8,5.4-70.2.7-8.9,1.3-17.9-.5-26.5-1.8-8.7-6.5-17.1-13.9-20.9-32.4-16.7-20.5,47.7-17.2,61.7Z"/>
            <path d="M230.4,311.9c-1.5,6.1-3.3,12.2-4.2,18.4-1.8,11.8-.7,24,.5,35.9-7.3,2.2-15.1,2.8-22.6,1.7-1.8-23.4-3.6-46.8-5.4-70.2-.7-8.9-1.3-17.9.5-26.5,1.8-8.7,6.5-17.1,13.9-20.9,32.4-16.7,20.5,47.7,17.2,61.7Z"/>
            <g>
              <path d="M157.2,387.6c-4.1,0-7.1-4.1-6.2-8.4,1.9-9,7.1-21.8,21-21.8s20.1,12.2,23.1,21.1c1.5,4.4-1.6,9.1-6,9.1h-31.8Z" style="fill: #3b3b3b;"/>
              <path d="M189.1,389h-31.8c-2.3,0-4.4-1-5.9-2.9-1.6-2-2.2-4.7-1.7-7.3,3.2-14.8,11.1-23,22.3-23s19.6,7.8,24.4,22.1c.9,2.6.5,5.5-1.1,7.7-1.5,2.1-3.8,3.3-6.2,3.3ZM172,358.7c-12.5,0-17.5,11.3-19.6,20.7-.4,1.8,0,3.5,1.1,4.9,1,1.2,2.3,1.8,3.7,1.8h31.8c1.5,0,3-.8,3.9-2.1,1.1-1.5,1.3-3.4.8-5.2-3.1-9.2-9.4-20.2-21.8-20.2Z"/>
            </g>
            <g>
              <path d="M234.2,387.6c4.1,0,7.1-4.1,6.2-8.4-1.9-9-7.1-21.8-21-21.8-13.5,0-20.1,12.2-23.1,21.1-1.5,4.4,1.6,9.1,6,9.1h31.8Z" style="fill: #3b3b3b;"/>
              <path d="M234.2,389h-31.8c-2.5,0-4.7-1.2-6.2-3.3-1.6-2.2-2-5.1-1.1-7.7,4.8-14.2,13.5-22.1,24.4-22.1s19.2,8.2,22.3,23c.6,2.6,0,5.2-1.7,7.3-1.5,1.8-3.6,2.9-5.9,2.9ZM219.5,358.7c-12.3,0-18.7,11-21.8,20.2-.6,1.8-.3,3.7.8,5.2,1,1.3,2.4,2.1,3.9,2.1h31.8c1.4,0,2.8-.7,3.7-1.8,1.1-1.3,1.5-3.1,1.1-4.9-2-9.5-7.1-20.7-19.6-20.7Z"/>
            </g>
            <path d="M181.3,126.8c-.8,0-1.7,0-2.5-.4-.7-.3-1.1-1.1-.8-1.8.3-.7,1.1-1.1,1.8-.8.5.2,1.2.2,1.9.2,5.3-.1,11.5-2.7,12.6-8,.2-.8.9-1.2,1.7-1.1.8.2,1.3.9,1.1,1.7-1.4,6.8-8.9,10.1-15.3,10.3-.1,0-.3,0-.4,0Z"/>
            <path d="M210.1,126.8c-.1,0-.3,0-.4,0-6.4-.2-13.9-3.5-15.3-10.3-.2-.8.3-1.5,1.1-1.7.8-.1,1.5.3,1.7,1.1,1.1,5.3,7.3,7.9,12.6,8,.7,0,1.3,0,1.9-.2.7-.3,1.5,0,1.8.8s0,1.5-.8,1.8c-.8.3-1.7.4-2.5.4Z"/>
            <g>
              <line x1="147.9" y1="210" x2="127.1" y2="228.6" style="fill: #c6c6c6;"/>
              <rect x="123.5" y="217.9" width="28" height="2.8" transform="translate(-111.2 147.6) rotate(-41.8)"/>
            </g>
          </g>
          <path d="M195.5,203.1c-2.8,2.1-5.7,4.1-8.5,6.2-.3.2-.6.4-.8.8-.2.3-.2.7-.2,1-.2,6.4,0,12.8.6,19.2,0,.6.1,1.2.3,1.8.3.9,1,1.7,1.6,2.4,2.1,2.5,4.3,5,6.4,7.5" style="fill: none; stroke: #000; stroke-linecap: round; stroke-linejoin: round; stroke-width: 2.8px;"/>
          <circle cx="196" cy="214.1" r="3.5" style="fill: #474747; stroke: #000; stroke-linecap: round; stroke-linejoin: round; stroke-width: 2.8px;"/>
          <circle cx="196" cy="226" r="3.5" style="fill: #474747; stroke: #000; stroke-linecap: round; stroke-linejoin: round; stroke-width: 2.8px;"/>
          <g>
            <g>
              <path d="M157.1,85.2c3.9-4,12.7-3.9,17.2-3.3,4.3.6,13.6,1.5,13.6,7.4,0,10.1-7.8,15-17,14.7-2.7,0-5.5-.2-8.1-1.2-5-1.9-8.2-8.6-7.6-13.8.2-1.6.9-2.9,1.8-3.9Z" style="fill: none; stroke: #8e8e8e; stroke-linecap: round; stroke-linejoin: round; stroke-width: 1.2px;"/>
              <path d="M187.9,89.4s1.9-1.9,8.5-1.9" style="fill: none; stroke: #8e8e8e; stroke-linecap: round; stroke-linejoin: round; stroke-width: 1.2px;"/>
            </g>
            <g>
              <path d="M235.7,85.2c-3.9-4-12.7-3.9-17.2-3.3-4.3.6-13.6,1.5-13.6,7.4,0,10.1,7.8,15,17,14.7,2.7,0,5.5-.2,8.1-1.2,5-1.9,8.2-8.6,7.6-13.8-.2-1.6-.9-2.9-1.8-3.9Z" style="fill: none; stroke: #8e8e8e; stroke-linecap: round; stroke-linejoin: round; stroke-width: 1.2px;"/>
              <path d="M204.9,89.4s-1.9-1.9-8.5-1.9" style="fill: none; stroke: #8e8e8e; stroke-linecap: round; stroke-linejoin: round; stroke-width: 1.2px;"/>
            </g>
          </g>
        </g>
        <path d="M259.1,164.8c-4.6-7.4-10.6-17.9-18.6-18.9,8.4-6.5,15.9-15.1,22-25.7,10-17.4-.6-42.5-7.1-59.4-1.4-3.7-2.8-7.4-4.6-10.8,13.7-16.1-.9-46.5-3.9-47.6-3-1.1-18.4,10.3-24,14.9-3.8,3.1-8.8,9.2-11.6,12.7-1.4,0-2.8,0-4.1,0-3.7,0-7.5,0-11.2,0-3.8,0-7.5,0-11.2,0-1.4,0-2.7,0-4.1,0-2.8-3.6-7.7-9.6-11.6-12.7-5.7-4.6-21-16-24-14.9-3,1.1-17.6,31.5-3.9,47.6-1.8,3.5-3.2,7.2-4.6,10.8-6.5,16.9-17.2,42-7.1,59.4,6.1,10.5,13.5,19.1,21.9,25.6,0,0-.2,0-.2,0-8.6,0-15,11.2-19.8,19-12.5,20-15.8,46-.7,69.2,1.7,2.6,3.7,5.4,5.8,8,0,0,0,0,0,0h0c3.4,4.1,7.3,7.7,11.2,9.5,2.7,1.2,5.7,1,8.5.3.7-.2,1.4-.4,2.1-.7-.4.9-.7,1.7-.9,2.5-7.3,14.1-.9,48.5,1.4,58.2,1.5,6.1,3.3,12.2,4.2,18.4,1.5,9.7,1,19.6,0,29.4-7.1,4.1-10.3,12.8-11.7,19.4-.9,4.3,2.1,8.4,6.2,8.4h31.8c4.4,0,7.5-4.7,6-9.1-1.8-5.3-4.9-11.8-10-16.2,1.6-21.5,3.3-43.1,4.9-64.6.3-3.6.5-7.1.6-10.7,2,.4,5.6.4,7.4,0,.1,3.6.4,7.2.6,10.8,1.7,22.3,3.4,44.7,5.1,67-3.7,4.2-6,9.4-7.5,13.8-1.5,4.4,1.6,9.1,6,9.1h31.8c4.1,0,7.1-4.1,6.2-8.4-1.6-7.4-5.4-17.4-14.4-20.7-.8-9.4-1.3-18.9.2-28.2,1-6.2,2.8-12.3,4.2-18.4,2.4-10.1,9.2-46.4.6-59.6-.3-.7-.5-1.4-.9-2.1,1.3.7,2.6,1.2,4,1.6,2.8.7,5.8,1,8.5-.3,4-1.8,7.8-5.4,11.2-9.5h0s0,0,0,0c2.1-2.6,4.1-5.3,5.8-8,15-23.2,11.8-49.2-.7-69.2ZM239.2,214.1c-1.6,1.9-3.4,3.7-5.1,5.5,1.9-2.5,3.7-5.1,5.1-8.1,2.4-5,4.8-15.6,5.5-21.5.2.6.4,1.2.5,1.9,1.9,7.6-1.2,16.3-6.1,22.1ZM150.8,214.1c-4.8-5.8-8-14.5-6.1-22.1.4-1.5.8-2.9,1.3-4.2,0,.7,0,1.4.1,2.1.7,5.8,3.1,16.7,5.5,21.7,2.7,5.6,6.4,9.8,10.2,14.7,0,0,0,.1,0,.1-1.6-2-3.3-3.9-5.1-5.7-2.1-2.1-4.2-4.2-6.1-6.5Z" style="fill: url(#_무제_그라디언트_3);"/>
      </g>
    </g>
  </g>
</svg>