<?xml version="1.0" encoding="utf-8"?>
<!-- Generator: Adobe Illustrator 26.5.0, SVG Export Plug-In . SVG Version: 6.00 Build 0)  -->
<svg version="1.1" id="레이어_1" xmlns="http://www.w3.org/2000/svg" xmlns:xlink="http://www.w3.org/1999/xlink" x="0px"
	 y="0px" viewBox="0 0 390 390" style="enable-background:new 0 0 390 390;" xml:space="preserve">
<style type="text/css">
	.st0{fill:#4A4EFA;}
	.st1{fill:#3F2FC9;}
	.st2{fill:#4D5EFF;}
	.st3{fill:#4D4D4D;}
	.st4{fill:#731B6C;}
	.st5{fill:#521F6E;}
	.st6{fill:#111E38;}
	.st7{fill:#462A8B;}
	.st8{fill:#7143E2;}
	.st9{fill:#252D6E;}
	.st10{fill:#4F5DE2;}
	.st11{fill:#152847;}
	.st12{fill:#1F3F6D;}
	.st13{fill:#CABFFF;}
	.st14{fill:#4080DF;}
	.st15{fill:#6B6415;}
	.st16{fill:#FFEE29;}
	.st17{fill:#A28FFF;}
	.st18{fill:#FFFFFF;}
	.st19{fill:#FFF8CB;}
	.st20{fill:#FFE937;}
</style>
<g>
	<g>
		<path class="st0" d="M298.8,242.7c0,0-72.6,4.2-122.3,63.7c-51.5,61.7-41.2,61.4-11.7,63.5c28.6,2,98.9,24.3,170.2,0.2
			c7.4-2.5,11.7-10.5,9.4-18.1c-0.7-2.4-1.9-5.1-3.9-7.9C340.6,344,306.8,283.1,298.8,242.7"/>
		<path d="M263.2,383.2c-28.5,0-54.2-4.4-74.2-7.8c-9.7-1.7-18.1-3.1-24.3-3.5l-1.4-0.1c-12.7-0.9-21.8-1.5-24.4-7.6
			c-3.4-7.9,5.7-22.8,36.1-59.1c49.7-59.5,123-64.4,123.7-64.4l1.8-0.1l0.3,1.7c7.7,39,40.1,98.1,41.6,100.7
			c1.9,2.8,3.3,5.6,4.1,8.4c2.5,8.6-2.2,17.6-10.7,20.5C310.8,380.4,286.1,383.2,263.2,383.2z M297.2,244.8
			c-11.3,1.1-74.8,9.8-119.1,62.8c-20.2,24.2-38.5,47.6-35.4,54.9c1.6,3.8,10.2,4.4,21,5.2l1.4,0.1c6.4,0.4,14.9,1.9,24.7,3.6
			c35.7,6.1,89.6,15.4,144.7-3.3c6.4-2.2,10-9.1,8.1-15.6c-0.7-2.4-1.9-4.9-3.6-7.3l-0.1-0.2C338.5,344.4,305.8,285.1,297.2,244.8z"
			/>
	</g>
	<path class="st1" d="M217.1,357.7c25.6,2.8,51.3,4.5,77,5c1.8,0,2.5,2.4,1,3.4c-4.6,2.9-10.9,3.3-16.6,3.4
		c-35,0.5-70.5,0.8-104.2-8.4c-5.7-1.6-20.1-7.9-15.7-16.3c0.5-0.9,1.1-1.7,1.9-2.4c1.5-1.4,3.1-2.7,4.8-3.9
		c2.2-1.6,5.4-1.1,6.9,1.2C181.3,354.2,201.6,356,217.1,357.7z"/>
	<path class="st2" d="M222.4,280.5c-8.8,7.2-16.9,15.2-23.7,20.6c-6,4.8-12.5,10.9-11.8,18.5c17.5-1.2,30.4-18.5,47.8-20.5
		c4.6-0.5,10-0.4,12.7-4.1c2.5-3.4,1.2-8.1,1.8-12.2c0.8-6.1,7-12.6,5.9-19C244.1,264.5,232.8,271.9,222.4,280.5z"/>
</g>
<g>
	<g>
		<path d="M66.6,61.2c-1.6-4.3-3.1-9.4-0.7-13.3c0.9-1.5,2.4-2.7,4.1-3c3-0.6,5.8,1.4,8.2,3.3c2.7,2.1,5.4,4.2,8.1,6.4
			c2.6,2,5.3,4.4,5.6,7.6c0.2,2.5-1.1,4.8-2.6,6.7c-2.4,3.1-10.5,11.2-15.2,9.6C70.1,77.1,67.9,64.9,66.6,61.2z"/>
		<path class="st3" d="M75.4,80c-0.6,0-1.2-0.1-1.7-0.3c-3.4-1.2-5.3-7.2-7.3-14.4c-0.4-1.5-0.8-2.8-1.1-3.7l0,0
			c-1.7-4.7-3.3-10-0.6-14.5c1.2-1.9,3-3.3,5-3.7c3.5-0.7,6.6,1.4,9.3,3.5l8.1,6.4c2.8,2.2,5.8,4.8,6.1,8.6c0.2,2.4-0.7,5-2.9,7.7
			C90.2,69.8,81.8,80,75.4,80z M67.8,60.7c0.3,0.9,0.7,2.3,1.1,3.9c1.1,4.1,3.2,11.8,5.5,12.6c3.4,1.2,10.6-5.3,13.7-9.2
			c1.7-2.2,2.5-4.1,2.3-5.8c-0.2-2.7-2.7-4.8-5.1-6.7l-8.1-6.4c-2.2-1.7-4.7-3.5-7.1-3c-1.2,0.2-2.4,1.2-3.2,2.4
			C64.9,52,66.4,56.7,67.8,60.7L67.8,60.7z"/>
	</g>
	<g>
		<g>
			<path d="M71.2,76.6c3.1-4.2,9.1-5.7,11.7-10.2c1.9-3.1,1.9-7.4,4.5-9.9c1.8-1.7,4.6-2.2,7.1-1.8c2.5,0.4,4.7,1.7,6.8,3.1
				c2.1,1.4,4.2,3,5.6,5.1c3.1,4.6,2.3,11-0.6,15.8c-2.8,4.8-7.4,8.3-11.9,11.5C89.2,94,79,100.4,72.6,95
				C67.9,91.2,67.9,81.1,71.2,76.6z"/>
			<path class="st3" d="M78.5,98.5c-2.6,0-4.9-0.8-6.8-2.4c-5.2-4.4-5.4-15.1-1.6-20.3l0,0c1.6-2.2,3.8-3.7,6-5.1
				c2.3-1.5,4.4-2.9,5.7-5c0.7-1.2,1.1-2.5,1.5-3.9c0.7-2.2,1.4-4.5,3.2-6.3c2-1.9,5.1-2.7,8.2-2.1c2.8,0.5,5.3,1.9,7.3,3.3
				c2.1,1.4,4.4,3.1,6,5.5c3.1,4.7,2.9,11.5-0.5,17.3c-3,5.1-7.7,8.7-12.3,12C88.6,96.1,83,98.5,78.5,98.5z M92.8,55.9
				c-1.7,0-3.3,0.6-4.4,1.6c-1.3,1.2-1.9,3.1-2.5,5.1c-0.5,1.5-1,3.1-1.8,4.5c-1.6,2.6-4.1,4.3-6.5,5.9c-2.1,1.4-4,2.6-5.3,4.5l0,0
				c-2.9,4-2.8,13.3,1.2,16.6c4.1,3.4,10.9,1.8,20.3-4.9c4.3-3.1,8.8-6.5,11.5-11.1c2.4-4,3.5-10,0.6-14.4c-1.3-2-3.4-3.5-5.2-4.7
				c-1.8-1.2-4-2.4-6.3-2.9C93.7,55.9,93.2,55.9,92.8,55.9z"/>
		</g>
		<path class="st4" d="M74.4,82.3c0,0.4,0,0.8,0.2,1.1c0.4,0.8,1.5,1,2.3,0.6c0.8-0.4,1.3-1.1,1.8-1.9c0.4-0.8,0.8-1.6,1.4-2.3
			c0.6-0.7,1.5-1.2,1.6-2.1c0.4-2.4-3.3-2.5-4.7-1.7C75.1,77.1,74.4,80.2,74.4,82.3z"/>
	</g>
	<g>
		<g>
			<path d="M67.4,107.2c0.1-2.8,0.7-5.7,1.8-8.4c5.4-13.8,18.2-13,27.5-22c6.4-6.1,12.7-15.4,23-11.6C130,68.9,135,81,133.8,91.3
				c-1.1,8.9-6.1,17-12.8,23.1c-6.6,6.1-14.7,10.3-22.9,13.9c-7.5,3.3-16.6,4.8-23-1.4C69.8,121.7,67.1,114.5,67.4,107.2z"/>
			<path class="st3" d="M86.1,132.5c-4.7,0-8.7-1.6-11.9-4.6c-5.5-5.4-8.5-12.9-8.2-20.7l0,0c0.1-3.1,0.8-6,1.9-8.9
				C71.5,89.3,78,86.1,84.4,83c3.9-1.9,7.9-3.9,11.4-7.2c1-1,2-2,3-3.1c5.6-5.8,11.9-12.3,21.3-8.8c11.4,4.2,16.2,17.3,15,27.6
				c-1,8.5-5.7,17-13.2,23.9c-7.4,6.8-16.3,11.1-23.3,14.2C94.1,131.5,89.9,132.5,86.1,132.5z M68.7,107.2
				c-0.3,7.1,2.4,13.9,7.3,18.7c6.2,6,15.1,3.9,21.5,1.1c6.8-3,15.5-7.2,22.5-13.7c7-6.4,11.4-14.3,12.3-22.3
				c1.1-9.2-3.2-21-13.2-24.7c-7.8-2.9-13,2.5-18.5,8.2c-1,1.1-2.1,2.2-3.1,3.2c-3.8,3.6-8,5.7-12.1,7.7c-6.2,3-12,5.9-15.2,13.8
				C69.4,101.8,68.9,104.5,68.7,107.2L68.7,107.2z"/>
		</g>
		<path class="st5" d="M87.4,92.4c1.9,0.3,3.4,1.3,3.2,3.5c-0.2,1.8-1.5,3.2-3.1,4.2s-3.2,1.6-4.7,2.7c-1.8,1.3-3.1,3.3-4.4,5.1
			c-1.3,1.3-3.8,0.1-4.2-1.7c-0.4-1.8,0.5-3.6,1.4-5.2c1.7-2.9,3.8-6,6.7-7.7C83.6,92.5,85.6,92.1,87.4,92.4z"/>
	</g>
	<g>
		<g>
			<path class="st6" d="M73.1,130.6c2-10.9,9-19.5,23-22.4c3.9-0.8,8-0.9,11.6-2.4c8.9-3.6,13-13.8,20.3-20
				c11.8-10.1,31.9-7.1,41.3,5.3c19.5,25.6-9.2,57.4-31.4,68.3c-10.7,5.3-22.1,9.9-34,10.2C80.1,170.2,69.1,153.1,73.1,130.6z"/>
			<path class="st3" d="M102.9,171c-10.6,0-19.2-3.5-24.8-10c-6.3-7.4-8.5-18.2-6.3-30.6l0,0c1.6-8.8,7-20,24.1-23.5
				c1.3-0.3,2.7-0.5,4-0.7c2.6-0.4,5.1-0.7,7.4-1.7c5.1-2.1,8.6-6.5,12.2-11.2c2.3-3,4.8-6.1,7.7-8.6c5.7-4.8,13.6-7.1,21.8-6.2
				c8.7,0.9,16.6,5.2,21.5,11.7c6.2,8.2,8.1,17.4,5.8,27.5c-4.3,18.1-22.2,35.2-37.6,42.8c-10.6,5.2-22.1,10.1-34.6,10.4
				C103.7,171,103.3,171,102.9,171z M145.5,81.1c-6.3,0-12.2,2-16.5,5.7c-2.7,2.3-5.1,5.3-7.3,8.2c-3.7,4.8-7.6,9.7-13.4,12
				c-2.6,1.1-5.4,1.5-8.1,1.8c-1.3,0.2-2.6,0.4-3.8,0.6c-12.3,2.5-19.9,9.9-21.9,21.3l0,0c-2.1,11.6-0.1,21.7,5.7,28.4
				c5.3,6.2,13.6,9.3,23.9,9.1c11.9-0.3,23.1-5,33.4-10.1c14.9-7.3,32.1-23.7,36.2-41c2.2-9.3,0.4-17.8-5.3-25.2
				c-4.5-5.9-11.7-9.8-19.7-10.7C147.6,81.1,146.6,81.1,145.5,81.1z"/>
		</g>
		<path class="st7" d="M80.6,135.6c-0.5,2.5-0.3,5.5,1.9,6.8c2.5,1.5,5.8-0.4,7.4-2.9c1.6-2.5,2.3-5.5,4.2-7.7
			c2.9-3.3,8.4-4.7,9.2-9c1.6-8.6-8.7-5.2-12.1-2.8C85.8,123.8,81.7,129,80.6,135.6z"/>
		<path class="st8" d="M139.2,91.7c-6.7,1.3-12.9,5.6-15.7,11.8c-0.3,0.7-0.6,1.5-0.5,2.3c0.3,1.7,2.5,2.2,4.2,2.1
			c6.3-0.5,12.5-4.8,18.5-3c2.8,0.8,5,2.9,7.7,4.1c2.7,1.2,6.4,1.1,7.9-1.4c0.5-0.8,0.6-1.6,0.7-2.5C163.1,93.3,148.2,90,139.2,91.7
			z"/>
	</g>
	<g>
		<g>
			<path class="st6" d="M116.9,241.6c-17.3,1-32.8-11-36.2-28c-4.2-20.8-7.2-52.7,9.8-63.8c26-17.1,39.8-1.4,68.7-30.9
				c25.1-25.7,54-0.7,66.8,13.9c12.8,14.7,24.7,32.5,6.7,52.9C218.7,201.4,159,239.1,116.9,241.6z"/>
			<path class="st3" d="M114.9,243c-17.1,0-32.1-12.2-35.5-29.1c-8.5-42.7,0.9-59,10.3-65.2c11.1-7.3,20.1-8.8,28.8-10.2
				c12-1.9,23.2-3.7,39.7-20.6c7.7-7.9,16.4-11.8,25.9-11.5c19.1,0.5,36.3,18,42.8,25.5c14.2,16.3,24.8,34.1,6.7,54.7
				C220,202,160.2,240.4,117,242.9l-0.1-1.3l0.1,1.3C116.3,243,115.6,243,114.9,243z M183.2,109c-8.4,0-16.1,3.6-23.1,10.7
				c-17.1,17.5-29.4,19.5-41.2,21.4c-8.4,1.4-17.1,2.7-27.7,9.7c-16.6,10.9-12.9,43.8-9.2,62.4c3.3,16.3,18.2,27.9,34.8,26.9
				c41.8-2.4,101.7-40.6,114.8-55.5c17.6-19.9,5.8-36.9-6.7-51.1c-6.3-7.2-22.9-24.1-40.9-24.6C183.8,109,183.5,109,183.2,109z"/>
		</g>
		<path class="st9" d="M92.8,210.3c0.5,0.8,1.1,1.6,2.1,1.7c0.9,0.1,1.8-0.5,2.5-1.2c3.3-3.2,6.2-7.4,10.7-8.6
			c1.8-0.5,3.7-0.4,5.5-0.8c1.8-0.4,3.7-1.4,4.3-3.2c0.9-2.6-1.4-5.2-3.1-7.4c-5.9-7.8-4.8-16.6-4.9-25.7c-0.2-10.4-6.1-12-13.4-4.7
			C83.9,173.1,83.6,196,92.8,210.3z"/>
		<path class="st10" d="M168.5,141.5c4.7,1.9,10.5,3.2,12.8,5.1c3.3,2.6,5.8,6.1,8.2,9.6c1,1.4,2,2.9,3.4,3.9
			c4.2,3,10.2,1.2,14.3-1.9c3.1-2.3,5.8-5.5,6.2-9.3c0.5-4.9-4.7-18.4-8.4-21.8c-4.8-4.4-16.2-4.2-22.3-3.8
			c-5.3,0.3-13.2,1-17.2,4.9C158.1,135.4,162.4,139,168.5,141.5z"/>
	</g>
	<g>
		<g>
			<path class="st11" d="M159,346.7c0,0-76-20.8-71.7-86.3s64-60.4,82.8-67.4c18.8-7,34.2-29.4,57-36.5
				c28.2-8.8,74.4,27.5,73.7,86.1C300.1,301.2,225.2,358.6,159,346.7z"/>
			<path class="st3" d="M177.1,349.6c-6.2,0-12.3-0.5-18.3-1.6l-0.1,0c-0.2-0.1-19.5-5.4-37.9-18.8c-24.5-17.8-36.6-41.6-34.7-68.8
				c3.6-53.8,44.6-61,69.1-65.3c5.9-1,11.1-1.9,14.6-3.3c8.4-3.2,16.2-9.5,24.4-16.2c9.9-8.1,20.1-16.4,32.6-20.3
				c11.6-3.6,26.6,0.2,40,10.2c22.6,16.8,35.9,45.7,35.5,77.2c-0.3,26.4-15.4,53.8-41.3,75.2C236,338.3,205.7,349.6,177.1,349.6z
				 M159.3,345.4c32.9,5.9,70.2-5.2,99.9-29.7c25.3-20.9,40-47.6,40.3-73.2c0.4-30.7-12.5-58.7-34.4-75
				c-12.7-9.5-26.8-13.1-37.6-9.8c-12.1,3.8-22.1,11.9-31.7,19.8c-8.4,6.9-16.3,13.4-25.2,16.7c-3.8,1.4-9,2.3-15.1,3.4
				c-25.3,4.4-63.4,11.2-66.8,62.9C84.5,323.4,156.9,344.7,159.3,345.4z"/>
		</g>
		<path class="st12" d="M100.9,285.9c5.7,19.6,21.8,36,41.3,42c1.5,0.5,3.1,0.9,4.7,0.7c4.4-0.5,6.9-5.2,9-9.1
			c5.2-9.9,5.2-9.8,14.2-16.5c1.2-0.9,2.6-1.9,2.7-3.4c0.3-2.7-3.1-4-5.8-4.5c-12.8-2.7-24-10-32.9-19.4
			c-9.7-10.4-12.2-23-19.7-34.2c-7.5-11.2-14-0.5-15.6,11.7C96.9,268.8,96.8,271.7,100.9,285.9z"/>
		<path class="st13" d="M117.2,227.4c-0.8,0-1.7-0.3-2.3-1c-1.3-1.3-1.4-3.4-0.1-4.8c0.6-0.6,13.9-14.1,34.3-14.5
			c17.3-0.3,23.5-5.9,23.5-6c1.3-1.3,3.5-1.2,4.7,0.1c1.3,1.3,1.3,3.4,0,4.7c-0.8,0.8-8.1,7.5-28.1,7.9
			c-17.7,0.3-29.5,12.3-29.6,12.4C119,227,118.1,227.4,117.2,227.4z"/>
		<path class="st13" d="M197.3,194.3c-0.9,0-1.8-0.3-2.4-1c-1.3-1.3-1.3-3.5,0.1-4.8c1.6-1.5,15.9-15.2,23.6-17.2
			c1.8-0.5,3.6,0.6,4.1,2.4c0.5,1.8-0.6,3.6-2.4,4.1c-4.5,1.1-15,10.1-20.6,15.5C198.9,194,198.1,194.3,197.3,194.3z"/>
		<path class="st13" d="M232.1,171.9c-1.2,0-2.4-0.7-3-1.9c-0.8-1.7-0.2-3.7,1.5-4.5c0.6-0.3,5.8-2.8,11.1-1.9
			c1.8,0.3,3,2.1,2.7,3.9c-0.3,1.8-2.1,3-3.9,2.7c-2.6-0.5-5.9,0.8-6.9,1.3C233.2,171.8,232.6,171.9,232.1,171.9z"/>
		<path class="st14" d="M219.4,190.8c-1.5,1.8-2.7,3.9-3.6,6.3c-0.9,2.3-1.1,5.4,0.9,6.9c1.4,1.1,3.3,1,5,0.8
			c5.7-0.3,11.6,0.1,16.4,3.1c4.8,3,7.8,9.4,5.6,14.6c-0.8,2-2.4,4.1-1.6,6.1c0.3,0.9,1,1.5,1.6,2.3c2.3,3.6-0.3,8.3-3.2,11.4
			c-2.9,3.1-6.4,6.7-5.7,10.9c4.5,1.7,9.6-0.4,14-2.5c7-3.4,14.2-6.8,19.8-12.2c12.2-11.6,8.6-29.4,1.1-43
			C260.7,179.4,231.4,176.1,219.4,190.8z"/>
	</g>
	<path class="st15" d="M79.2,54.6c-1.4-2.8-5.3-8.7-9-7.6c-3.2,0.9-2.8,5-1.4,7.2c1,1.5,2.3,2.6,3.7,3.7c0.6,0.5,1.2,1,1.9,1.2
		c1.2,0.3,2.5-0.4,3.5-1c0.7-0.4,1.5-0.9,1.7-1.7C79.7,55.8,79.4,55.2,79.2,54.6z"/>
	<path class="st16" d="M73.4,49.5c-0.6-0.5-1.6-0.9-2.3-0.4c-0.7,0.4-0.9,1.5-0.6,2.3s1,1.4,1.6,1.9c0.6,0.5,1.2,1,2,1.1
		c0.7,0.1,1.4-0.3,1.8-0.8c0.1-0.2,0.2-0.4,0.2-0.6C76.3,51.4,74.3,50.3,73.4,49.5z"/>
</g>
<g>
	<g>
		
			<ellipse transform="matrix(0.9864 -0.1642 0.1642 0.9864 -44.7148 54.6135)" class="st17" cx="308" cy="297.8" rx="47.5" ry="55.8"/>
		<path d="M310.4,355.4c-10.7,0-21.3-4-30.3-11.7c-10.9-9.2-18.4-22.7-20.9-37.9c-2.5-15.2,0.1-30.3,7.5-42.6
			c7.4-12.4,18.7-20.4,31.8-22.6c26.9-4.5,53.1,17.5,58.3,48.9l0,0c2.5,15.2-0.1,30.3-7.5,42.6c-7.4,12.4-18.7,20.4-31.8,22.6
			C315.1,355.2,312.7,355.4,310.4,355.4z M305.5,244.1c-2.1,0-4.2,0.2-6.4,0.5c-11.9,2-22.2,9.3-29,20.7c-6.9,11.5-9.3,25.6-7,39.9
			c2.4,14.2,9.3,26.8,19.5,35.5c10.1,8.5,22.2,12.2,34.2,10.2c11.9-2,22.2-9.3,29-20.7c6.9-11.5,9.3-25.6,7-39.9l0,0
			C348.3,263.5,327.8,244.1,305.5,244.1z"/>
	</g>
	<g>
		<path d="M302.9,282.7c0.4,6.2-0.8,11.3-5.1,11.6c-4.3,0.3-6.8-4.6-7.2-10.8c-0.4-6.2,1.5-11.4,5.8-11.7
			C300.7,271.6,302.5,276.5,302.9,282.7z"/>
		<path class="st18" d="M293.8,281.5L293.8,281.5c-1-0.4-1.4-1.5-1-2.4l1.3-3.1c0.4-1,1.5-1.4,2.4-1l0,0c1,0.4,1.4,1.5,1,2.4
			l-1.3,3.1C295.8,281.5,294.7,281.9,293.8,281.5z"/>
	</g>
	<g>
		<path d="M334.3,279c0.4,6.2-0.8,11.3-5.1,11.6c-4.3,0.3-6.8-4.6-7.2-10.8c-0.4-6.2,1.5-11.4,5.8-11.7
			C332.2,267.8,334,272.8,334.3,279z"/>
		<path class="st18" d="M325.2,277.8L325.2,277.8c-1-0.4-1.4-1.5-1-2.4l1.3-3.1c0.4-1,1.5-1.4,2.4-1l0,0c1,0.4,1.4,1.5,1,2.4
			l-1.3,3.1C327.3,277.7,326.2,278.2,325.2,277.8z"/>
	</g>
	<path d="M321,296.2c-0.9,1.6-5.9,2-5.9,2s-5,0.2-6.1-1.2c-1.1-1.5-4.6-1.4-4.4,1c0,0.5,0.2,1.2,0.4,2c3.2,10.2,18.4,9.3,20.3-1.3
		c0.1-0.8,0.2-1.5,0.2-2C325.3,294.2,321.9,294.6,321,296.2z"/>
</g>
<g>
	<g>
		<polygon class="st19" points="286.2,171.5 281.5,156 276.8,171.5 264,175.5 276.8,181.5 281.5,193.3 286.2,182.4 299,176.4 		"/>
		<path d="M281.5,156l4.7,15.5l12.8,4.9l-12.8,5.9l-4.7,10.9l-4.7-11.8l-12.8-5.9l12.8-4L281.5,156 M281.5,152
			c-1.8,0-3.3,1.2-3.9,2.9l-4.1,13.4l-10.7,3.4c-1.6,0.5-2.7,1.9-2.8,3.6c-0.1,1.7,0.8,3.2,2.3,3.9l11.3,5.2l4.1,10.4
			c0.6,1.5,2.1,2.5,3.7,2.5c0,0,0,0,0.1,0c1.6,0,3.1-1,3.7-2.5l4.1-9.5l11.4-5.3c1.5-0.7,2.4-2.2,2.3-3.8c-0.1-1.6-1.1-3.1-2.6-3.6
			l-10.9-4.2l-4.1-13.6C284.9,153.1,283.3,152,281.5,152C281.5,152,281.5,152,281.5,152L281.5,152z"/>
	</g>
	<g>
		<polygon class="st19" points="191.5,104.5 186.8,89 182.1,104.5 169.4,108.6 182.1,114.5 186.8,126.3 191.5,115.4 204.3,109.5 		
			"/>
		<path d="M186.8,89l4.7,15.5l12.8,4.9l-12.8,5.9l-4.7,10.9l-4.7-11.8l-12.8-5.9l12.8-4L186.8,89 M186.8,85c-1.8,0-3.3,1.2-3.9,2.9
			l-4.1,13.4l-10.7,3.4c-1.6,0.5-2.7,1.9-2.8,3.6s0.8,3.2,2.3,3.9l11.3,5.2l4.1,10.4c0.6,1.5,2.1,2.5,3.7,2.5c0,0,0,0,0.1,0
			c1.6,0,3.1-1,3.7-2.5l4.1-9.5l11.4-5.3c1.5-0.7,2.4-2.2,2.3-3.8c-0.1-1.6-1.1-3.1-2.6-3.6l-10.9-4.2l-4.1-13.6
			C190.2,86.2,188.6,85,186.8,85C186.8,85,186.8,85,186.8,85L186.8,85z"/>
	</g>
	<g>
		<polygon class="st19" points="170.2,180.4 166.6,168.5 163,180.4 153.2,183.5 163,188 166.6,197.1 170.2,188.7 180,184.2 		"/>
		<path d="M166.6,168.5l3.6,11.9l9.8,3.8l-9.8,4.6l-3.6,8.4L163,188l-9.8-4.5l9.8-3.1L166.6,168.5 M166.6,164.5
			c-1.8,0-3.3,1.2-3.9,2.9l-3,9.9l-7.8,2.5c-1.6,0.5-2.7,1.9-2.8,3.6c-0.1,1.7,0.8,3.2,2.3,3.9l8.3,3.9l3,7.6
			c0.6,1.5,2.1,2.5,3.7,2.5c0,0,0,0,0.1,0c1.6,0,3.1-1,3.7-2.5l3-7l8.4-3.9c1.5-0.7,2.4-2.2,2.3-3.8c-0.1-1.6-1.1-3.1-2.6-3.6
			l-8-3.1l-3-10C170,165.6,168.4,164.5,166.6,164.5C166.6,164.5,166.6,164.5,166.6,164.5L166.6,164.5z"/>
	</g>
	<g>
		<polygon class="st20" points="83.1,33 76.1,9.9 69.1,33 50,39.1 69.1,47.9 76.1,65.6 83.1,49.3 102.2,40.4 		"/>
		<path d="M76.1,9.9l7,23.1l19.1,7.4l-19.1,8.9l-7,16.3l-7-17.7L50,39.1l19.1-6L76.1,9.9 M76.1,5.8c-1.8,0-3.3,1.2-3.9,2.9
			l-6.4,21.1l-17,5.4c-1.6,0.5-2.7,1.9-2.8,3.6c-0.1,1.7,0.8,3.2,2.3,3.9l17.6,8.2l6.4,16.2c0.6,1.5,2.1,2.5,3.7,2.5c0,0,0,0,0.1,0
			c1.6,0,3.1-1,3.7-2.5l6.4-14.9l17.7-8.2c1.5-0.7,2.4-2.2,2.3-3.8c-0.1-1.6-1.1-3.1-2.6-3.6L86.4,30L80,8.7
			C79.5,7,77.9,5.8,76.1,5.8C76.1,5.8,76.1,5.8,76.1,5.8L76.1,5.8z"/>
	</g>
	<g>
		<polygon class="st19" points="111.8,307.8 105.7,288 99.7,307.8 83.3,313 99.7,320.6 105.7,335.8 111.8,321.8 128.1,314.2 		"/>
		<path d="M105.7,288l6,19.9l16.4,6.4l-16.4,7.6l-6,14l-6-15.2L83.3,313l16.4-5.2L105.7,288 M105.7,283.9c-1.8,0-3.3,1.2-3.9,2.9
			l-5.4,17.8l-14.3,4.6c-1.6,0.5-2.7,1.9-2.8,3.6c-0.1,1.7,0.8,3.2,2.3,3.9l14.9,6.9l5.4,13.7c0.6,1.5,2.1,2.5,3.7,2.5
			c0,0,0,0,0.1,0c1.6,0,3.1-1,3.7-2.5l5.4-12.6l15-7c1.5-0.7,2.4-2.2,2.3-3.8s-1.1-3.1-2.6-3.6l-14.6-5.6l-5.4-18
			C109.1,285.1,107.5,283.9,105.7,283.9C105.7,283.9,105.7,283.9,105.7,283.9L105.7,283.9z"/>
	</g>
	<g>
		<polygon class="st19" points="77.1,151.9 71.1,132.1 65,151.9 48.7,157.1 65,164.7 71.1,179.9 77.1,165.9 93.5,158.3 		"/>
		<path d="M71.1,132.1l6,19.9l16.4,6.4l-16.4,7.6l-6,14l-6-15.2l-16.4-7.6l16.4-5.2L71.1,132.1 M71.1,128c-1.8,0-3.3,1.2-3.9,2.9
			l-5.4,17.8l-14.3,4.6c-1.6,0.5-2.7,1.9-2.8,3.6c-0.1,1.7,0.8,3.2,2.3,3.9l14.9,6.9l5.4,13.7c0.6,1.5,2.1,2.5,3.7,2.5
			c0,0,0,0,0.1,0c1.6,0,3.1-1,3.7-2.5l5.4-12.6l15-7c1.5-0.7,2.4-2.2,2.3-3.8c-0.1-1.6-1.1-3.1-2.6-3.6l-14.6-5.6l-5.4-18
			C74.4,129.2,72.9,128,71.1,128C71.1,128,71.1,128,71.1,128L71.1,128z"/>
	</g>
	<g>
		<polygon class="st19" points="121.6,89.9 118,78 114.4,89.9 104.6,93 114.4,97.5 118,106.6 121.6,98.2 131.4,93.7 		"/>
		<path d="M118,78l3.6,11.9l9.8,3.8l-9.8,4.6l-3.6,8.4l-3.6-9.1l-9.8-4.5l9.8-3.1L118,78 M118,74c-1.8,0-3.3,1.2-3.9,2.9l-3,9.9
			l-7.8,2.5c-1.6,0.5-2.7,1.9-2.8,3.6c-0.1,1.7,0.8,3.2,2.3,3.9l8.3,3.9l3,7.6c0.6,1.5,2.1,2.5,3.7,2.5c0,0,0,0,0.1,0
			c1.6,0,3.1-1,3.7-2.5l3-7l8.4-3.9c1.5-0.7,2.4-2.2,2.3-3.8c-0.1-1.6-1.1-3.1-2.6-3.6l-8-3.1l-3-10C121.4,75.1,119.8,74,118,74
			C118,74,118,74,118,74L118,74z"/>
	</g>
</g>
</svg>
