<svg id="레이어_2" data-name="레이어 2" xmlns="http://www.w3.org/2000/svg" viewBox="0 0 200 280"><defs><style>.cls-1,.cls-15{fill:#815540;}.cls-2,.cls-5{fill:#fff4e4;}.cls-3,.cls-6{fill:#221e1f;}.cls-4{fill:#ffbbae;}.cls-14,.cls-15,.cls-16,.cls-18,.cls-5,.cls-6,.cls-8{fill-rule:evenodd;}.cls-7{fill:#ff8679;}.cls-8{fill:#fff;}.cls-9{fill:#231815;}.cls-10{fill:#aa7831;}.cls-11{fill:none;}.cls-12{fill:#d88d3d;}.cls-13{fill:#586fa0;}.cls-14{fill:#ffeba8;}.cls-16{fill:#ffeba9;}.cls-17,.cls-18{fill:#ff5d17;}.cls-19{fill:#fab543;}.cls-20{fill:#f9b543;}.cls-21{fill:#cf7d26;}.cls-22{fill:#914c13;}.cls-23{fill:#e54a30;}.cls-24{fill:#ffdb92;opacity:0.51;}</style></defs><path class="cls-1" d="M83.74,221.81c.06-2.86-3.1-4.15-5.26-4.59-2.74-.57-8.06.69-8.32,4.48-.13,1.84-.43,5.61-.84,10l14.23.31Z"/><path class="cls-2" d="M69.67,253.7c13.37.51,26.78.87,40.11,1.76,2.81.19,5.82-.35,6.17-3.61.43-3.83-2.73-6.33-5.52-7.39-7.57-2.91-15.88-5.35-24-5a2.88,2.88,0,0,1-2.93-3l.08-4.42-14.23-.31c-.58,6.08-1.38,13.37-2.27,18.45A2.93,2.93,0,0,0,69.67,253.7Z"/><path d="M110.7,257.1c-.32,0-.66,0-1,0-10.35-.69-20.93-1.07-31.17-1.43l-8.91-.33a4.17,4.17,0,0,1-3.17-1.71,4.84,4.84,0,0,1-.87-3.72c1.56-8.9,2.84-24.57,3.09-28.29h0a5.67,5.67,0,0,1,2.16-4.05,10.47,10.47,0,0,1,8-1.89c4.11.85,6.53,3.17,6.47,6.2h0s0,.37-.27,14.64a1.35,1.35,0,0,0,.37,1,1.2,1.2,0,0,0,1,.4c9-.4,17.89,2.51,24.6,5.09,3.48,1.33,7,4.42,6.51,9.09C117.23,254,116.06,257.1,110.7,257.1ZM77.11,218.69a7.57,7.57,0,0,0-4.47,1.39,2.38,2.38,0,0,0-1,1.74h0c-.26,3.75-1.55,19.6-3.14,28.64a1.45,1.45,0,0,0,.26,1.13,1.24,1.24,0,0,0,.94.5l8.9.33c10.26.36,20.86.74,31.25,1.44,4.33.28,4.52-1.52,4.6-2.2.39-3.61-3.71-5.37-4.54-5.69-6.46-2.48-15-5.29-23.47-4.9a4.22,4.22,0,0,1-3.22-1.32A4.64,4.64,0,0,1,82,236.42s.27-14.43.27-14.64c0-2-3.36-2.84-4-3A6,6,0,0,0,77.11,218.69Zm-7,3h0Z"/><path class="cls-2" d="M100.48,43.16c5.2-3.49,15-5,20.06,1.56,2.35,3,2.81,7.58.62,10.73-2.58,3.71-6.58,5-10.89,4.83-1.41-.06-2.91-.63-4.31-.38-1.74.32-2.85,2-3.64,3.6a38.29,38.29,0,0,0-3.91,15.31c0,1.1-14.2.65-15.35-1-1.88-2.69.17-10.47,1-13.33C86.46,55.63,92.79,48.31,100.48,43.16Z"/><path class="cls-3" d="M93.63,80.89c-4.55,0-10.65-.57-11.8-2.2-1.59-2.27-1.35-7,.74-14.59C84.91,55.61,91,47.73,99.65,41.91h0c5.46-3.67,16.26-5.6,22.08,1.89a10.82,10.82,0,0,1,.67,12.5c-2.67,3.83-6.88,5.72-12.2,5.48a13,13,0,0,1-1.81-.24,6.66,6.66,0,0,0-2.16-.16c-.89.16-1.7,1-2.56,2.78a36.89,36.89,0,0,0-3.76,14.71,1.8,1.8,0,0,1-1.51,1.67A22.74,22.74,0,0,1,93.63,80.89Zm-9.41-4c1.58.86,10,1.32,12.75.94a40,40,0,0,1,4-15c.83-1.67,2.22-3.95,4.72-4.4a9,9,0,0,1,3.21.16,11.52,11.52,0,0,0,1.43.19c4.31.2,7.52-1.21,9.59-4.19a7.86,7.86,0,0,0-.57-9c-4.45-5.72-13.33-4.4-18-1.24h0c-8.07,5.42-13.71,12.7-15.86,20.5C83.09,73.48,83.82,76.13,84.22,76.85Zm.07.12h0Zm16.19-33.81h0Z"/><path class="cls-4" d="M94.21,57.16c1.09-1.37,2.45-3.58,5.32-2.57,5.22,1.84,1.64,3.82.25,6a29.77,29.77,0,0,0-2.71,5.34,36.11,36.11,0,0,0-2.44,12.19c0,.28.07.6-.13.79a.9.9,0,0,1-.56.19c-2.29.18-5.65.57-6-1.79C87.23,71.3,90.41,61.92,94.21,57.16Z"/><path class="cls-2" d="M58.58,54.91c1.26-13.93,4.8-27.22,17.54-30.6,3.54-.94,7.78.1,9.77,3.17,2.48,3.84.71,8.87-.76,13.19a79.92,79.92,0,0,0-3.95,35.64c.22,1.94.47,4-.48,5.75a8.52,8.52,0,0,1-4.07,3.16c-1.91.91-3.87,1.74-5.85,2.49-2.41.91-5,1.71-7.53,1.07-5.14-1.32-5.11-8.53-5.5-12.69C57.22,70.45,57.87,62.75,58.58,54.91Z"/><path class="cls-3" d="M65.15,90.51a9.34,9.34,0,0,1-2.27-.28c-5.64-1.44-6.17-8.18-6.51-12.63,0-.49-.08-.94-.12-1.37-.52-5.55,0-12.69.84-21.45h0c1.16-12.87,4.34-28.13,18.65-31.92,4.49-1.19,9.19.37,11.41,3.81,2.84,4.4,1,9.9-.55,14.32l0,.17a78.61,78.61,0,0,0-3.88,35v.11c.23,2.08.5,4.44-.67,6.54a9.86,9.86,0,0,1-4.73,3.79c-2,.92-4,1.78-6,2.54A17.9,17.9,0,0,1,65.15,90.51ZM60.08,55.05c-.78,8.6-1.34,15.61-.84,20.9q.06.66.12,1.41c.29,3.82.7,9,4.27,10,2.06.52,4.39-.18,6.62-1,1.93-.73,3.86-1.55,5.74-2.44a7.35,7.35,0,0,0,3.4-2.54c.7-1.26.5-3,.31-4.74v-.11a81.64,81.64,0,0,1,4-36.29l.06-.17c1.36-4,2.91-8.54.86-11.72-1.7-2.63-5.37-3.26-8.12-2.54C64,29.08,61.15,43.15,60.08,55.05Z"/><path class="cls-4" d="M65.93,59.89c.7-9.47,2.26-18.53,7.23-21,1.37-.68,3,0,3.71,2,.9,2.58.15,6-.49,9-1.72,8-1.36,18.89-1,27.23.12,3-2.49,6.22-4.9,7.65a1.19,1.19,0,0,1-.53.2,1.13,1.13,0,0,1-.63-.23c-1.44-.91-1.72-2.22-2.25-3.84C64.92,74.29,65.48,66,65.93,59.89Z"/><path class="cls-5" d="M137.31,146.21c-6.65,8.5-19.76,14.26-35.07,15.45-37.95,2.87-57.64-8.73-60.2-35.51-.38-3.79-1.63-23.32,9.5-36.86,6.68-8.14,16.62-12.72,29.6-13.61,44.59-3.09,48,30.84,48.14,32.29a2,2,0,0,0,1.41,1.74c.41.1,10,2.93,11.76,15.62C143.54,133.4,141.81,140.45,137.31,146.21Z"/><ellipse class="cls-4" cx="105.73" cy="124.63" rx="9.8" ry="9.15"/><path class="cls-6" d="M117.64,112.81c0,2.21-1.11,3.55-2.49,3.55s-2.5-1.34-2.5-3.55,1.12-4,2.5-4S117.64,110.6,117.64,112.81Z"/><path class="cls-6" d="M127.29,112.41c0,2.21-1.12,3.55-2.5,3.55s-2.49-1.34-2.49-3.55,1.12-4,2.49-4S127.29,110.2,127.29,112.41Z"/><ellipse class="cls-7" cx="125.06" cy="118.11" rx="4.77" ry="3.32"/><path class="cls-4" d="M134,111.67s-3,1.83-.54,7.33c0,0,3.45,6.42,7.88,3.82C141.32,122.82,140.4,113.81,134,111.67Z"/><path d="M91.46,163.59c-31.84,0-48.52-12.26-50.91-37.3-.39-3.86-1.76-23.85,9.83-37.95C57.33,79.86,67.65,75.1,81,74.19c45.94-3.19,49.6,32.14,49.74,33.64a.47.47,0,0,0,.34.44s10.93,3,12.82,16.85c1.14,8.52-.69,15.92-5.45,22h0c-6.9,8.82-20.41,14.81-36.14,16C98.55,163.44,94.91,163.59,91.46,163.59ZM86.69,77c-1.75,0-3.56.06-5.45.19C68.71,78,59.11,82.43,52.7,90.24,41.63,103.7,43.31,123.76,43.54,126c2.46,25.78,21.63,37,58.58,34.16,14.91-1.15,27.62-6.71,34-14.87h0c4.25-5.44,5.88-12.08,4.85-19.76-1.62-11.86-10.55-14.34-10.64-14.36a3.53,3.53,0,0,1-2.54-3.09C127.67,106.77,124.58,77,86.69,77Z"/><path class="cls-8" d="M122.87,127.82l1.93,5a1.67,1.67,0,0,0,1.65,1l3-.14a1.54,1.54,0,0,0,1.5-1.26l.88-5.63a15.61,15.61,0,0,1-3.64-1.42S124.82,127.64,122.87,127.82Z"/><path class="cls-3" d="M126.37,134.85a2.65,2.65,0,0,1-2.5-1.67l-1.93-5a1,1,0,0,1,.84-1.35c1.24-.12,3.62-1.46,4.83-2.27a1,1,0,0,1,1.21.06,13.43,13.43,0,0,0,3.25,1.22,1,1,0,0,1,.73,1.12l-.88,5.64a2.56,2.56,0,0,1-2.44,2.1l-3,.14Zm-2.15-6.31,1.51,3.92a.68.68,0,0,0,.68.39l3-.14a.56.56,0,0,0,.55-.42l.75-4.76a16.93,16.93,0,0,1-2.5-1A19.77,19.77,0,0,1,124.22,128.54Z"/><path class="cls-9" d="M136.35,122.17a1.11,1.11,0,0,0-1.66-.46,1.56,1.56,0,0,0-.4,2c.05.09.14.27-.27.85a2.94,2.94,0,0,1-2.59,1.3,3.57,3.57,0,0,1-2.85-1.68,1.22,1.22,0,0,0-.15-.17.79.79,0,0,0-.14-.17l0,0a1.34,1.34,0,0,0-.27-.13,1.22,1.22,0,0,0-.17-.07h-.27a.62.62,0,0,0-.19,0c-.07,0-.14.07-.22.1a2.25,2.25,0,0,0-.21.12h0a2.31,2.31,0,0,0-.14.19.75.75,0,0,0-.14.17c-1.73,3-6.48,3.68-9.43,1.39a5.72,5.72,0,0,1-1.24-1.24,1.59,1.59,0,0,0-.28-1.66,1.08,1.08,0,0,0-1.7.09,2.5,2.5,0,0,0-.5,1.81c.12,1.1.93,2.24,2.4,3.38a8.85,8.85,0,0,0,5.43,1.83,8.55,8.55,0,0,0,6.32-2.76,5.78,5.78,0,0,0,3.74,1.65h.21a5.27,5.27,0,0,0,4.32-2.33A3.84,3.84,0,0,0,136.35,122.17Z"/><circle class="cls-10" cx="95.45" cy="118.61" r="2.04"/><circle class="cls-10" cx="95.53" cy="124.48" r="2.04"/><path class="cls-11" d="M104.1,108.38l-2.39-3.81a10.63,10.63,0,0,0-2.27,6.61c0,5.62,4.25,10.18,9.5,10.18s9.5-4.56,9.5-10.18S114.18,101,108.94,101a8.85,8.85,0,0,0-2.53.37l1,4.8Z"/><path class="cls-10" d="M108.94,98.5a10.9,10.9,0,0,0-3,.44l.51,2.43a8.85,8.85,0,0,1,2.53-.37c5.24,0,9.5,4.55,9.5,10.18s-4.26,10.18-9.5,10.18-9.5-4.56-9.5-10.18a10.63,10.63,0,0,1,2.27-6.61l-1.34-2.12a13,13,0,0,0-3.21,7.5,2.45,2.45,0,0,0-1.49-.62,2.48,2.48,0,1,0,1.65,4.19c1,5.88,5.83,10.33,11.62,10.33,6.53,0,11.82-5.67,11.82-12.67S115.47,98.5,108.94,98.5Z"/><path class="cls-12" d="M106.41,101.37l-.51-2.43a11.66,11.66,0,0,0-5.53,3.51l1.34,2.12A9.54,9.54,0,0,1,106.41,101.37Z"/><path class="cls-13" d="M136.71,163.48a18.23,18.23,0,0,1-8.36-.77c-2.62-.89-5.16-2.39-7.93-2.26-4,.18-7.42,4.56-6.56,8.5,1,4.37,6.17,7.93,10,9.5,4.6,1.89,9.68,2.29,14.66,2.28a33,33,0,0,0,9.66-1.13l-5-17.74A49.59,49.59,0,0,1,136.71,163.48Z"/><path class="cls-2" d="M156.92,172.48c1.41-3.28.8-7.53-2-9.79-2.45-2-6-2.14-9.05-1.52-.93.18-1.85.42-2.77.69l5,17.74c.3-.09.6-.18.9-.29A13.25,13.25,0,0,0,156.92,172.48Z"/><path class="cls-14" d="M150,179.46,144.91,161c-.19-.7-2.11-1.28-2.69-1.32a3.31,3.31,0,0,0-3.43,3.28,3.8,3.8,0,0,0,1.31,3.34,1.14,1.14,0,0,1-.12,1.76,3.38,3.38,0,0,0-1.25,4.21,3.89,3.89,0,0,0,3,2.65,1,1,0,0,1,.86,1.22,10.26,10.26,0,0,0-.23,2.07,4.45,4.45,0,0,0,4.52,3.74C147.54,181.89,150.25,180.48,150,179.46Z"/><path d="M146.48,183a5.48,5.48,0,0,1-5.15-4.67,10.72,10.72,0,0,1,.24-2.36,4.94,4.94,0,0,1-3.8-3.39,4.32,4.32,0,0,1,1.61-5.29.19.19,0,0,0,.08-.15,4.92,4.92,0,0,1-1.67-4.25c.22-2.23,1.86-4.38,4.5-4.18.41,0,3.18.57,3.59,2.06l5.05,18.43a1.73,1.73,0,0,1-.3,1.49A7,7,0,0,1,147,183,3.87,3.87,0,0,1,146.48,183ZM142,160.7a2.38,2.38,0,0,0-2.19,2.39,2.8,2.8,0,0,0,1,2.49,2.1,2.1,0,0,1,.69,1.64,2.21,2.21,0,0,1-.88,1.67,2.37,2.37,0,0,0-.92,3.05,2.92,2.92,0,0,0,2.16,2,2,2,0,0,1,1.37.82,2,2,0,0,1,.33,1.6,10.56,10.56,0,0,0-.2,1.78,3.23,3.23,0,0,0,1.25,2.08,3,3,0,0,0,2.14.74,5.56,5.56,0,0,0,2.26-1.39l-5-18.2a4.83,4.83,0,0,0-1.83-.69Zm2,.6Z"/><path d="M146.63,183.17a5.25,5.25,0,0,1-3.46-1.47c-1.38.13-2.86.18-4.67.18-4.31,0-9.88-.27-15-2.36-3.41-1.4-9.47-5.13-10.58-10.2a8.44,8.44,0,0,1,7.5-9.72,14.68,14.68,0,0,1,6.2,1.51c.72.29,1.4.57,2.09.8a17.09,17.09,0,0,0,7.9.73c.44-.06.89-.14,1.39-.25a4.19,4.19,0,0,1,4.39-3.51,5.9,5.9,0,0,1,3.27,1.47l.09,0c4-.79,7.55-.18,9.89,1.74,3,2.44,3.92,7.05,2.24,11a13.59,13.59,0,0,1-6.79,6.68,1.94,1.94,0,0,1-.36,1.16,7,7,0,0,1-3.68,2.28A3.44,3.44,0,0,1,146.63,183.17Zm-3.09-3.51a1,1,0,0,1,.74.33,3.19,3.19,0,0,0,2.57,1.16,5.56,5.56,0,0,0,2.26-1.39l-.11-.37a1,1,0,0,1,.58-1.19,11.85,11.85,0,0,0,6.5-6c1.32-3,.6-6.75-1.67-8.62-2.52-2.06-6.24-1.71-8.23-1.31l-.75.16a1.06,1.06,0,0,1-1.26-.69l-.06-.21a4.83,4.83,0,0,0-1.83-.69,2.35,2.35,0,0,0-2.36,2.39,1.06,1.06,0,0,1-.76.92,19.8,19.8,0,0,1-2.23.44,19.26,19.26,0,0,1-8.82-.81c-.75-.26-1.49-.56-2.21-.85a12.73,12.73,0,0,0-5.35-1.36,6,6,0,0,0-4.37,2.48,5.94,5.94,0,0,0-1.26,4.81c.81,3.72,5.43,7.16,9.38,8.78,4.76,2,10.08,2.21,14.2,2.21h.08c1.89,0,3.43-.07,4.86-.21Zm1.37-19.13.22,1Zm-.82.95Z"/><path class="cls-15" d="M133.19,199.46c0,11.07-20.73,21-45.07,21s-43.57-9-44.07-20c-.82-18.37,16-45.17,46.07-41C114.23,162.76,133.19,188.4,133.19,199.46Z"/><path class="cls-3" d="M88.12,222c-25,0-45-9.43-45.56-21.47C42,189.19,47.7,176.4,57,168c6.34-5.78,17.28-12.22,33.36-10,25.18,3.47,44.36,29.71,44.36,41.51C134.69,211.68,113.37,222,88.12,222ZM84,160.5a36.4,36.4,0,0,0-25,9.67c-8.5,7.75-13.9,19.9-13.44,30.23S65.11,219,88.12,219c24.94,0,43.57-10.32,43.57-19.54,0-9.77-17.64-35.21-41.77-38.54A42.76,42.76,0,0,0,84,160.5Z"/><path class="cls-16" d="M50.17,159.2c.2.49.55,1.91,1,2.12,3.49,1.49,16.86,5.82,42.33,5.12,0,0,28.86.55,36.9-1.89a1.84,1.84,0,0,0,1-.76c1-1.56,4.17-7.19,6.74-9.93a2.58,2.58,0,0,0-1.07-4.23,5.45,5.45,0,0,0-6.5,2s-4.06,8.19-9.11-.17a4.19,4.19,0,0,0-.67-.84c-1.21-1.13-4.73-3.67-9.06,0a3.74,3.74,0,0,0-.72.86c-1.29,2-6.76,9.62-11.71,1.11a4.3,4.3,0,0,0-.47-.65c-1.21-1.33-6-6-11-1.15a3.89,3.89,0,0,0-.42.49c-1,1.33-6.4,7.95-11.27-1.41a3.63,3.63,0,0,0-.5-.73c-1.12-1.29-5-4.78-10.39.27a4.3,4.3,0,0,0-.53.6c-1,1.38-5.42,6.9-9.76,1,0,0-5.81-7.09-11.69-.44a1.88,1.88,0,0,0,.48,2.84C45.66,154.49,49.43,157.38,50.17,159.2Z"/><path class="cls-3" d="M88,168c-23.64,0-35.17-4.39-37.36-5.32-1-.43-1.39-1.61-1.7-2.57l-.12-.36c-.5-1.21-3.6-3.82-5.79-5.11a3.41,3.41,0,0,1-1.63-2.4,3.29,3.29,0,0,1,.79-2.72c2-2.27,4.24-3.42,6.68-3.35,4.16.07,7.17,3.67,7.29,3.83,1,1.42,2.08,2.12,3.1,2.12h0c1.56,0,3.23-1.58,4.27-3a5.27,5.27,0,0,1,.73-.82c2.3-2.15,4.66-3.18,7-3.05a8,8,0,0,1,5.54,2.88,5.33,5.33,0,0,1,.7,1c.93,1.8,2.43,4,4.24,4.11,2.12.16,4.11-2.39,4.49-2.9a4.88,4.88,0,0,1,.59-.68,8.11,8.11,0,0,1,6-2.54c3.49.11,6.18,2.67,7.18,3.76a4.92,4.92,0,0,1,.65.91c1.23,2.1,2.49,3.17,3.76,3.2h0c1.9,0,4-2.25,5.35-4.37a5.11,5.11,0,0,1,1-1.2c5.34-4.5,9.8-1.07,11,.08a5.64,5.64,0,0,1,.93,1.16c1.19,2,2.39,3,3.38,3h.06c1.38-.05,2.69-2.06,3-2.76a2.13,2.13,0,0,1,.16-.25,7,7,0,0,1,8.17-2.49,4.08,4.08,0,0,1,1.69,6.68,56.2,56.2,0,0,0-5.52,8c-.45.74-.82,1.35-1.07,1.72a3.41,3.41,0,0,1-1.84,1.37c-8.17,2.47-36.17,2-37.36,1.95C91.59,168,89.75,168,88,168Zm-35.89-8c2.38,1,15.34,5.6,41.41,4.89.35,0,28.78.51,36.5-1.82a.41.41,0,0,0,.21-.15c.23-.36.58-.93,1-1.63a56.75,56.75,0,0,1,5.9-8.51,1.07,1.07,0,0,0,.27-1,1.1,1.1,0,0,0-.73-.78,3.94,3.94,0,0,0-4.76,1.39c-.44.84-2.39,4.14-5.52,4.27-2.21.11-4.28-1.42-6.14-4.49a2.13,2.13,0,0,0-.41-.51c-1.52-1.43-4-2.58-7.06,0a2.42,2.42,0,0,0-.43.52c-1.11,1.76-4.13,5.83-8,5.76-2.39-.05-4.5-1.63-6.29-4.69a1.64,1.64,0,0,0-.28-.4c-.58-.63-2.65-2.71-5.06-2.79a5.23,5.23,0,0,0-3.83,1.71,2.26,2.26,0,0,0-.25.29c-.76,1-3.54,4.39-7.14,4.12-2.56-.2-4.8-2.12-6.67-5.71a2.52,2.52,0,0,0-.3-.45,5.18,5.18,0,0,0-3.44-1.85c-1.52-.08-3.11.68-4.8,2.24a2.47,2.47,0,0,0-.32.38c-.92,1.28-3.41,4.27-6.7,4.29h0c-2,0-3.87-1.11-5.47-3.28h0s-2.24-2.63-5-2.67h-.06a5.86,5.86,0,0,0-4.3,2.34.34.34,0,0,0-.08.27.42.42,0,0,0,.2.29c1.79,1,6.06,4.17,7,6.55h0a4.8,4.8,0,0,1,.2.56A6.92,6.92,0,0,0,52.08,160.05Zm.07.15Z"/><path class="cls-13" d="M132.37,187.39c-1.64-2.6-2.93-5.72-2.15-8.68a6.8,6.8,0,0,1,2.34-3.53,65.29,65.29,0,0,1-.91-8.2,3.92,3.92,0,0,0-4.08-3.79c-13.88.6-58.71,2.05-72.45-3.57a3.94,3.94,0,0,0-5.21,2.5c-2.71,8.53-8.15,25.54-10.42,32a3.93,3.93,0,0,0,1.33,4.41c4.67,3.6,17.83,10.75,49.36,11.57,0,0,26.63,1.55,27.63-8.94,0,0,2.84-15.35,2.84-15.37a3.19,3.19,0,0,1,1.29-2,1.39,1.39,0,0,1,1.69.5,5.29,5.29,0,0,1,.86,1.71c.66,2.47,3.2,12,3.37,12.5,1.35,3.93,5,5.92,8.84,3.13,2.44-1.76.23-6.43-.34-8.82l-.24-1A23.15,23.15,0,0,1,132.37,187.39Z"/><path class="cls-17" d="M132.56,175.18a6.8,6.8,0,0,0-2.34,3.53c-.78,3,.51,6.08,2.15,8.68a23.15,23.15,0,0,0,3.75,4.44q-1.23-5.22-2.36-10.46C133.34,179.41,132.92,177.32,132.56,175.18Z"/><path class="cls-18" d="M91.37,178.66a7,7,0,0,0-5.9,5c-.79,3,.51,6.08,2.14,8.68,2.29,3.65,6.3,6.84,9.82,9.32a2.87,2.87,0,0,0,1.51.65,2.93,2.93,0,0,0,1.65-.7,29,29,0,0,0,7.13-7.48,14.25,14.25,0,0,0,2.83-10.43A6.32,6.32,0,0,0,108.7,180a5.72,5.72,0,0,0-5.62-.84,14.41,14.41,0,0,0-3.22,2c-1.72,1.16-1,1.08-2.62,0C95.33,179.72,94,178.41,91.37,178.66Z"/><ellipse class="cls-19" cx="122.05" cy="172.75" rx="3.26" ry="3.34"/><path class="cls-20" d="M96.4,210.12c-3.59,0-6.35-.27-6.92-.33-32.88-.9-47.45-10.47-51.13-13.38a2,2,0,1,1,2.48-3.14C44.27,196,58,204.94,89.66,205.79h.17c4.52.5,17.28.93,22-3a4.26,4.26,0,0,0,1.69-3l0-.22s3.18-15.26,3.26-15.62a6.28,6.28,0,0,1,3.27-4.42,4.8,4.8,0,0,1,4.45,0c2.58,1.32,3.38,5,4,7.71.13.57.24,1.09.36,1.5.19.68.37,1.36.55,2,.42,1.53.85,3.12,1.35,4.62.66,1.94,1.55,3.25,2.39,3.5s1.64-.37,2.3-.9a2,2,0,0,1,2.5,3.12c-2.53,2-4.62,2-5.93,1.62-2.18-.65-3.93-2.74-5-6.06-.54-1.61-1-3.26-1.42-4.86l-.54-2c-.14-.48-.27-1.08-.41-1.74-.3-1.36-1-4.54-1.89-5a.84.84,0,0,0-.84,0,2.3,2.3,0,0,0-1.12,1.58s0,.13-3.25,15.6A8.15,8.15,0,0,1,114.4,206C110.16,209.41,102.2,210.12,96.4,210.12Z"/><path class="cls-3" d="M94,211.62c-2,0-3.49-.08-4.07-.11-31.32-.82-44.9-7.8-50.2-11.88a5.45,5.45,0,0,1-1.83-6.1c2.21-6.3,8.69-25.43,11.41-34a1.5,1.5,0,0,1,1.79-1,183.75,183.75,0,0,0,41.93,4.53c.35,0,27.7.74,37.19-1.67a1.5,1.5,0,0,1,1.49.46l.89,1a1.49,1.49,0,0,1,.38.94,124.15,124.15,0,0,0,2.08,17.14c.83,3.84,1.7,7.7,2.59,11.45.11.45.27,1,.46,1.55.84,2.7,2.13,6.79-.7,8.84a7,7,0,0,1-6.31,1.3,7.88,7.88,0,0,1-4.83-5.16c-.09-.26-.55-1.93-3.35-12.44l0-.17a4.7,4.7,0,0,0-.52-1.08l0,0a2.32,2.32,0,0,0-.36.78h0l-2.83,15.31C118.19,210.48,102,211.62,94,211.62ZM51.77,161.76c-2.93,9.1-8.91,26.75-11,32.76a2.43,2.43,0,0,0,.82,2.73c4,3.11,16.84,10.44,48.49,11.26,7.05.41,25.39-.17,26.1-7.59a.69.69,0,0,1,0-.13S119,185.61,119,185.43a4.64,4.64,0,0,1,2-3,2.81,2.81,0,0,1,3.5.79,6.71,6.71,0,0,1,1.22,2.35l0,.17c2.55,9.61,3.2,12,3.29,12.24a4.92,4.92,0,0,0,2.89,3.27,4.11,4.11,0,0,0,3.65-.87c1.08-.78.18-3.63-.41-5.51-.2-.65-.39-1.25-.51-1.75-.9-3.78-1.77-7.66-2.6-11.53a129,129,0,0,1-2.12-17c-10.55,2.25-35.88,1.57-37,1.54A186.8,186.8,0,0,1,51.77,161.76Z"/><path class="cls-13" d="M72.94,189.17a18.34,18.34,0,0,1,0-8.4c.63-2.7,1.88-5.37,1.48-8.11-.58-3.95-5.27-6.94-9.11-5.7-4.25,1.37-7.28,6.92-8.47,10.86-1.43,4.77-1.33,9.86-.84,14.81A33.08,33.08,0,0,0,58,202.14l17.17-6.73A48.41,48.41,0,0,1,72.94,189.17Z"/><path class="cls-2" d="M66,210.16c3.4,1.09,7.57.06,9.55-2.91,1.76-2.63,1.55-6.13.63-9.16-.27-.9-.6-1.79-1-2.68L58,202.14c.12.29.24.58.38.86A13.23,13.23,0,0,0,66,210.16Z"/><path class="cls-14" d="M58.33,203.92l17.85-6.83c.68-.26,1.07-2.23,1.06-2.81a3.31,3.31,0,0,0-3.61-3.09,3.81,3.81,0,0,0-3.19,1.63,1.14,1.14,0,0,1-1.76.05,3.41,3.41,0,0,0-4.32-.83,3.85,3.85,0,0,0-2.34,3.2,1,1,0,0,1-1.14,1,9.56,9.56,0,0,0-2.08,0,4.44,4.44,0,0,0-3.28,4.85C55.68,201.74,57.34,204.3,58.33,203.92Z"/><path d="M58.12,205a1.86,1.86,0,0,1-.94-.26,6.92,6.92,0,0,1-2.63-3.43,4.93,4.93,0,0,1,.82-3.75,5.16,5.16,0,0,1,3.24-2.31,11.71,11.71,0,0,1,2.38,0,4.94,4.94,0,0,1,3-4.11,4.31,4.31,0,0,1,5.42,1.09.18.18,0,0,0,.16.06,4.93,4.93,0,0,1,4.06-2.07h0c2.25,0,4.55,1.39,4.61,4.07,0,.4-.27,3.21-1.7,3.76l-17.85,6.84h0A1.77,1.77,0,0,1,58.12,205Zm1.5-7.81a6.3,6.3,0,0,0-.64,0A3.13,3.13,0,0,0,57,198.63a3,3,0,0,0-.54,2.2,5.52,5.52,0,0,0,1.61,2.11l17.62-6.75a4.87,4.87,0,0,0,.51-1.89,2.35,2.35,0,0,0-2.61-2.11h0a2.81,2.81,0,0,0-2.38,1.22,2.11,2.11,0,0,1-1.57.85,2.15,2.15,0,0,1-1.74-.71,2.37,2.37,0,0,0-3.13-.62A2.9,2.9,0,0,0,63,195.28a2,2,0,0,1-.69,1.44,2.07,2.07,0,0,1-1.56.49C60.38,197.17,60,197.15,59.62,197.15Zm16.2-1h0Z"/><path d="M68.6,211.69a10.2,10.2,0,0,1-3.08-.48,13.57,13.57,0,0,1-7.31-6.11,1.89,1.89,0,0,1-1.19-.24,7,7,0,0,1-2.63-3.44,5.06,5.06,0,0,1,1-4c-.26-1.34-.46-2.81-.63-4.55-.43-4.3-.71-9.91.88-15.2,1.06-3.53,4.18-9.93,9.12-11.52a7.89,7.89,0,0,1,6.58,1,8.13,8.13,0,0,1,3.83,5.52,14.66,14.66,0,0,1-.9,6.32c-.22.74-.43,1.45-.59,2.16a17.18,17.18,0,0,0,0,7.94c.11.43.23.87.39,1.36a4.16,4.16,0,0,1,3.92,4,5.84,5.84,0,0,1-1.15,3.4l0,.09c1.19,3.94.92,7.49-.76,10A9.08,9.08,0,0,1,68.6,211.69Zm-9.93-8.8a1,1,0,0,1,.88.52,11.92,11.92,0,0,0,6.58,5.9c3.16,1,6.78-.08,8.41-2.52,1.81-2.7,1.09-6.37.5-8.31-.07-.25-.15-.49-.24-.74a1.08,1.08,0,0,1,.57-1.32l.36.94-.31-1,.15-.06a4.71,4.71,0,0,0,.51-1.89,2.34,2.34,0,0,0-2.6-2.12h0a1.07,1.07,0,0,1-1-.67c-.28-.81-.49-1.5-.65-2.17a19.09,19.09,0,0,1,0-8.86c.18-.77.4-1.54.62-2.28a12.84,12.84,0,0,0,.84-5.46,6.09,6.09,0,0,0-2.91-4.11,5.91,5.91,0,0,0-4.9-.78c-3.62,1.17-6.59,6.1-7.82,10.2-1.49,4.95-1.22,10.31-.81,14.42.19,1.88.41,3.42.69,4.82a1,1,0,0,1-.24.87,3.21,3.21,0,0,0-.9,2.67,5.39,5.39,0,0,0,1.6,2.1l.36-.13A.92.92,0,0,1,58.67,202.89Zm17.06-5.53h0Zm-.19-1Z"/><path class="cls-21" d="M182.57,141.06A9.37,9.37,0,1,0,168.9,141a23.43,23.43,0,1,0,13.67.07Zm-6.8-11.15a4.72,4.72,0,1,1-4.71,4.71A4.71,4.71,0,0,1,175.77,129.91Z"/><path d="M175.62,187.88a24.44,24.44,0,0,1-8.39-47.39,10.36,10.36,0,1,1,17,.09,24.44,24.44,0,0,1-8.64,47.3Zm.15-61.63a8.36,8.36,0,0,0-6.13,14.06,1,1,0,0,1-.45,1.64,22.43,22.43,0,1,0,28.86,21.49A22.33,22.33,0,0,0,182.28,142a1,1,0,0,1-.43-1.64,8.37,8.37,0,0,0-6.08-14.12Zm0,14.09a5.72,5.72,0,1,1,5.71-5.72A5.72,5.72,0,0,1,175.77,140.34Zm0-9.43a3.72,3.72,0,1,0,3.71,3.71A3.72,3.72,0,0,0,175.77,130.91Z"/><ellipse class="cls-22" cx="175.62" cy="163.36" rx="17.77" ry="18.41"/><circle class="cls-2" cx="175.62" cy="163.44" r="16.15"/><path d="M175.62,180.59a17.15,17.15,0,1,1,17.15-17.15A17.16,17.16,0,0,1,175.62,180.59Zm0-32.3a15.15,15.15,0,1,0,15.15,15.15A15.17,15.17,0,0,0,175.62,148.29Z"/><path class="cls-23" d="M186.2,155.92a1,1,0,0,0-.83-.4l-4.24.16a1,1,0,0,0,.07,2l1.07,0-4.05,2.94a3.74,3.74,0,0,0-2.43-.91,3.8,3.8,0,0,0-.23,7.59l1.26,5.87c-.95.31-2.19,1-1.81,2.69a2,2,0,0,0,1.05,1.44,2.68,2.68,0,0,0,1.15.23c.16,0,.35,0,.54,0l.53,2.49a.86.86,0,0,0,.83.67l.17,0a.85.85,0,0,0,.65-1l-.53-2.5a2.19,2.19,0,0,0,1.72-2.67,2,2,0,0,0-1.05-1.44,3,3,0,0,0-1.6-.2L177.24,167a3.81,3.81,0,0,0,2.36-3.51,3.71,3.71,0,0,0-.24-1.26l4.06-2.95-.22.66a1,1,0,0,0,.63,1.27.86.86,0,0,0,.32.05,1,1,0,0,0,.94-.68l1.26-3.73A1,1,0,0,0,186.2,155.92ZM178.74,174h.19a1.3,1.3,0,0,1,.59.11c.14.06.28.18.37.58s.15.74-.76,1.11a5.68,5.68,0,0,1-.84.26,5.31,5.31,0,0,1-.81.13,1.67,1.67,0,0,1-.86-.09c-.14-.06-.28-.18-.37-.58s-.16-.77.84-1.15a7.45,7.45,0,0,1,.76-.22A5.46,5.46,0,0,1,178.74,174Zm-3-8.74a1.81,1.81,0,1,1,1.81-1.8A1.81,1.81,0,0,1,175.79,165.28Z"/><path class="cls-24" d="M187,148.55a1.54,1.54,0,0,1-1-.43c-3.76-3.68-10.05-3.74-10.12-3.74h-.19a17.9,17.9,0,0,0-10.85,3.71,1.5,1.5,0,0,1-2-2.26,20.54,20.54,0,0,1,12.81-4.45h.22c.3,0,7.57.07,12.2,4.59a1.51,1.51,0,0,1,0,2.12A1.53,1.53,0,0,1,187,148.55Z"/><path class="cls-15" d="M86.26,220.86A13.74,13.74,0,0,0,84.44,213a7.7,7.7,0,0,0-7.19-3.39c-3.76.14-8.34,2-6.49,6.57a12,12,0,0,1,.9,4.11A74.67,74.67,0,0,1,86.26,220.86Z"/><path class="cls-2" d="M63.68,237.6a2.58,2.58,0,0,0,1.55,3.92c11.71,2.94,22.84,9.13,33.93,13.64,2.6,1.06,5.61,1.55,6.92-1.23,1.54-3.25-1.39-8.07-3.71-9.9a60.38,60.38,0,0,0-18.8-9.91,1.31,1.31,0,0,1-.72-1.87,56,56,0,0,0,2.55-6.07,21,21,0,0,0,.86-5.32,74.67,74.67,0,0,0-14.6-.56C71.91,226.48,67.31,232.11,63.68,237.6Z"/><path d="M102.49,257.38a10.45,10.45,0,0,1-3.9-.83c-4.17-1.7-8.34-3.52-12.37-5.27-6.75-2.95-13.73-6-21.17-8.68a4.52,4.52,0,0,1-2.76-2.76,3.85,3.85,0,0,1,.47-3.4c.52-.79,1.07-1.6,1.62-2.4,3.1-4.53,6.31-9.22,6.11-14a10.66,10.66,0,0,0-.78-3.6,5.42,5.42,0,0,1,.25-5.24c1.91-3,6.27-3.35,7.56-3.4a9.22,9.22,0,0,1,8.5,4.07,15.26,15.26,0,0,1,2.07,8.71,22,22,0,0,1-.93,5.71,54.36,54.36,0,0,1-2.56,6.16,61.64,61.64,0,0,1,19,10.08h0c2.88,2.28,6,7.76,4.14,11.72A5.51,5.51,0,0,1,102.49,257.38ZM78,210.78h-.4c-2.35.08-4.42.9-5.15,2a2.43,2.43,0,0,0,0,2.47,13.39,13.39,0,0,1,1,4.61c.24,5.79-3.25,10.9-6.63,15.83-.54.8-1.08,1.58-1.6,2.37a.89.89,0,0,0-.12.8,1.51,1.51,0,0,0,.93.88c7.53,2.71,14.56,5.78,21.35,8.75,4,1.75,8.17,3.56,12.3,5.24.7.28,4.21,1.57,5.34-.81s-1.2-6.44-3.29-8.08h0a58.53,58.53,0,0,0-18.36-9.67,2.8,2.8,0,0,1-1.55-4,51.65,51.65,0,0,0,2.43-5.8,19.11,19.11,0,0,0,.8-4.93,12.21,12.21,0,0,0-1.57-7A6.07,6.07,0,0,0,78,210.78Z"/></svg>