<svg xmlns="http://www.w3.org/2000/svg" viewBox="0 0 177.91 181.15"><defs><style>.cls-1{fill:#fdaa51;}.cls-1,.cls-2,.cls-3{stroke:#000;stroke-linecap:round;stroke-linejoin:round;}.cls-1,.cls-3{stroke-width:1.5px;}.cls-2,.cls-3{fill:#fffbc5;}.cls-2{stroke-width:1.44px;}</style></defs><g id="레이어_3" data-name="레이어 3"><path class="cls-1" d="M95.38,109.58a4.8,4.8,0,0,1,.85.63,4.67,4.67,0,0,1,.62.84,29.11,29.11,0,0,0,2.48,3.36,1.89,1.89,0,0,0,1,.73c.42.06.92-.32.79-.73a.95.95,0,0,0,1.45-1.19l1-.09a2.41,2.41,0,0,0-1.11-1.7,13.08,13.08,0,0,0-4.71-2.91,5.34,5.34,0,0,1-1-.3,3.75,3.75,0,0,1-.93-.72c-.56-.53-5.13-5.56-6-4.2C89.22,104.38,94.22,109.58,95.38,109.58Z"/><path class="cls-2" d="M75.45,85.33A49.29,49.29,0,0,1,67,80c-6-4.67-7.65-11.73-8.46-18.86-.1-.9,0-2.06.9-2.39a2.07,2.07,0,0,1,1.23,0c3.75,1.1,5.44,5,6.68,8.52-.69-3-1.25-6.54,1-9a13.56,13.56,0,0,1,4.12,9.56c0-1.18,2.58-4.15,3.91-4.33,3.09-.42,3.46,4.32,3.49,6.22-.4-1,.91-2.12,2-2a3.26,3.26,0,0,1,2.39,2.09,6.68,6.68,0,0,1,.27,4.58c.4-.8,1.79-.68,2.28,0a2.93,2.93,0,0,1,0,2.54,6.09,6.09,0,0,0-.56,2.57"/><path class="cls-3" d="M130.42,99.37a2,2,0,0,0-.81-2,6,6,0,0,0-2.09-.93,84.8,84.8,0,0,0-14.22-2.82c-1.46-.17-4.93-.31-5.89-1.49-1.63-2-1.4-4.68-2.17-7-.86-2.58-2.91-4.5-5-6.16A25.28,25.28,0,0,0,85,73.47c-2.47,0-4.94.36-7.4.14-2.81-.25-5.91-2.16-8.47-3.38a14.15,14.15,0,0,0-14.29,1.52c-4.93,3.65-6,9-3.89,14.59a11.77,11.77,0,0,0,7.9,7c1.82.51,4.14.49,5.83,1.32S67.3,97,68.57,98.17c6.1,5.7,13.94,6.6,22,6.5a39.76,39.76,0,0,0,7.78-.66c3.47-.77,4.11-4.1,6.65-5.67,4,1.49,8.26,2.59,11.71,5.06,2.68,1.93,6.31,5.77,9.9,5.77a2.51,2.51,0,0,0,2.26-.49,2.13,2.13,0,0,0,.26-2.36,6.23,6.23,0,0,0-1.62-1.93,2.52,2.52,0,1,0,1.36-4.36C129.53,100,129.75,99.42,130.42,99.37Z"/><path class="cls-3" d="M77,79.78a132.38,132.38,0,0,0,13.65-7c3.36-2,6.72-4.19,10.52-5.11a22.46,22.46,0,0,1,12.3.88,56.34,56.34,0,0,1,11.15,5.56c.74.44,1.55,1,1.72,1.84a2.11,2.11,0,0,1-1.08,2.1,5.41,5.41,0,0,1-2.42.6,23.26,23.26,0,0,1-8.8-1.13,20.22,20.22,0,0,1,3.77,6.09,2.31,2.31,0,0,1,.23,1.38c-.26,1.08-1.72,1.28-2.82,1.09a12.34,12.34,0,0,1-5-2.09,9.23,9.23,0,0,1,1.52,3.82,3.18,3.18,0,0,1-1.91,3.33,4.16,4.16,0,0,1-2.21-.1,20.44,20.44,0,0,1-6.52-2.94c1.21.39,1.25,2.29.29,3.12a4.34,4.34,0,0,1-3.63.63,13.63,13.63,0,0,1-6-2.59"/><path class="cls-1" d="M50.78,83.77c1.95-.58,3.76-.52,3.84,1.45a2.21,2.21,0,0,1-1.2,1.92,5.18,5.18,0,0,1-2.3.57,18.44,18.44,0,0,1-4.63-.24c-.28-.06-.6-.14-.72-.4s.12-.67.36-.91A14.72,14.72,0,0,1,50.78,83.77Z"/><path class="cls-1" d="M103.82,106.1a4.87,4.87,0,0,1,.86.63,4.5,4.5,0,0,1,.61.84,29.19,29.19,0,0,0,2.49,3.36,1.84,1.84,0,0,0,1,.73c.42.06.91-.32.78-.72a1,1,0,0,0,1.25,0,1,1,0,0,0,.21-1.23l.94-.08c0-.7-.57-1.25-1.11-1.71a13,13,0,0,0-4.7-2.91,5.31,5.31,0,0,1-1-.29,3.86,3.86,0,0,1-.93-.72c-.56-.54-5.13-5.57-6-4.21C97.66,100.91,102.67,106.1,103.82,106.1Z"/><circle cx="57.59" cy="80.43" r="0.91"/><circle cx="52.42" cy="80.43" r="0.91"/></g></svg>