<?xml version="1.0" encoding="utf-8"?>
<!-- Generator: Adobe Illustrator 23.0.3, SVG Export Plug-In . SVG Version: 6.00 Build 0)  -->
<svg version="1.1" id="Layer_1" xmlns="http://www.w3.org/2000/svg" xmlns:xlink="http://www.w3.org/1999/xlink" x="0px" y="0px"
	 viewBox="0 0 120 120" style="enable-background:new 0 0 120 120;" xml:space="preserve">
<style type="text/css">
	.st0{fill-rule:evenodd;clip-rule:evenodd;fill:#4F80FF;}
</style>
<title>ic / share / select</title>
<desc>Created with Sketch.</desc>
<g>
	<path id="Path" class="st0" d="M67.6,45.7L51.1,57.8c0.6,1.3,0.9,2.7,0.9,4.2c0,1.8-0.5,3.5-1.3,4.9l16.3,12c1.8-1.8,4.3-2.9,7-2.9
		c5.5,0,10,4.5,10,10s-4.5,10-10,10s-10-4.5-10-10c0-1.3,0.3-2.6,0.7-3.8L48.1,69.9C46.4,71.2,44.3,72,42,72c-5.5,0-10-4.5-10-10
		s4.5-10,10-10c2.6,0,4.9,1,6.7,2.6l16.4-12.1C64.4,41.2,64,39.6,64,38c0-5.5,4.5-10,10-10s10,4.5,10,10s-4.5,10-10,10
		C71.6,48,69.3,47.1,67.6,45.7L67.6,45.7z"/>
</g>
</svg>
