<?xml version="1.0" encoding="utf-8"?>
<!-- Generator: Adobe Illustrator 26.5.0, SVG Export Plug-In . SVG Version: 6.00 Build 0)  -->
<svg version="1.1" id="레이어_1" xmlns="http://www.w3.org/2000/svg" xmlns:xlink="http://www.w3.org/1999/xlink" x="0px"
	 y="0px" viewBox="0 0 225 165" style="enable-background:new 0 0 225 165;" xml:space="preserve">
<g>
	<path d="M187.5,115.1v6.8l-3,8.3l-0.8,8.2l15.4,6.1l-6.2-6.2l-1-5.1l6.2-2.3l6.3,6.1l4.2,6.6l-5.7,5.5l12.1-2.9l-3.8-8.4l-5.6-9.5
		c0,0,4.7,4,6.5,5c1.5,0.8-0.9,4.7-0.9,4.7l3.5,7.1l8.6-10l-12.1-13.7l4.9,1.9l0.6,4.3l4,4.4l3.4-10l-2-1.5l-14.3-11l-10.7-1
		L187.5,115.1z"/>
	<path style="fill:#242424;" d="M200.7,150.4l7.1-6.9l-3.8-6l-6-5.8l-5.3,1.9l0.8,4.3l8.4,8.4l-19-7.5l0.9-8.9l2.9-8.1v-7l10.1-7.3
		l11.2,1.1l16.9,12.9l-3.5,10.4l2.8,3.2l-8.8,10.2l0.7,1.5L200.7,150.4z M198.4,130.1l6.8,6.6l4.5,7l-4.3,4.1l8.8-2.1l-1.5-3.4
		l-2.2-4.5l0.1-0.1L203,125l3.2,2.8c0,0,4.6,4,6.3,4.9c0.4,0.2,0.7,0.6,0.8,1c0.3,1.3-0.6,3.2-1.2,4.1l1.8,4l1,2l7.5-8.8l-13.5-15.4
		l7.9,3l0.6,4.4l3,3.3l2.9-8.4l-15.8-12.1l-10.3-1l-9.1,6.6v6.6l-3,8.3l-0.7,7.6l11.7,4.6l-3.9-3.9l-1.2-5.9L198.4,130.1z
		 M208.4,131.4l2.9,5c0.4-0.9,0.8-1.8,0.6-2.3c0-0.1-0.1-0.1-0.1-0.2C211,133.4,209.6,132.4,208.4,131.4z M213.7,123l2.1,2.4
		l-0.2-1.7L213.7,123z"/>
</g>
<g>
	<g>
		<path style="fill:#4030E8;" d="M152.8,27.7c0-13.5,10.3-24.5,23-24.5s23,11,23,24.5s-10.3,24.5-23,24.5S152.8,41.2,152.8,27.7z"/>
		<path style="fill:#242424;" d="M175.8,52.8c-13.1,0-23.7-11.3-23.7-25.2s10.6-25.2,23.7-25.2s23.7,11.3,23.7,25.2
			S188.8,52.8,175.8,52.8z M175.8,3.9c-12.3,0-22.3,10.7-22.3,23.8s10,23.8,22.3,23.8s22.3-10.7,22.3-23.8S188.1,3.9,175.8,3.9z"/>
	</g>
	<g>
		<path style="fill:#2516C7;" d="M155.6,30.8c2.1-12.8,8.1-20.6,19.8-20.6s20.2,6.5,21.2,17.8c0.7,7.9-4.6,19.9-19.1,22.7
			C166,52.9,153.7,42,155.6,30.8z"/>
		<path style="fill:#2516C7;" d="M174.5,51.7c-4.9,0-10.1-2.1-14-5.8c-4.4-4.2-6.5-9.9-5.7-15.2c2.3-14.1,9.2-21.2,20.5-21.2
			c12.5,0,20.9,7.1,21.9,18.5c0.7,7.5-4.1,20.5-19.7,23.5C176.6,51.6,175.6,51.7,174.5,51.7z M156.3,30.9c-0.8,4.8,1.2,10,5.3,13.9
			C166,49,172.1,51,177.4,50c14.7-2.8,19.2-15,18.5-22c-1-10.6-8.8-17.2-20.5-17.2C164.8,10.9,158.5,17.4,156.3,30.9L156.3,30.9z"/>
	</g>
	<g>
		<path style="fill:#E4E4E4;" d="M183.2,32.8c0.3-4.2,3.5-7.4,7-7.2c3.5,0.3,5.4,3.9,5,8.1c-0.3,4.2-2.7,7.5-6.3,7.2
			C185.5,40.7,182.9,37,183.2,32.8L183.2,32.8z"/>
		<path d="M189.4,41.7c-0.1,0-0.3,0-0.4,0c-3.9-0.3-6.8-4.3-6.4-8.9c0.2-2.2,1.1-4.2,2.5-5.7c1.5-1.5,3.3-2.3,5.2-2.1
			c3.7,0.3,6.1,3.9,5.7,8.9c-0.2,2.2-0.9,4.3-2.1,5.7C192.6,40.9,191.1,41.7,189.4,41.7z M189.8,26.3c-1.4,0-2.7,0.6-3.7,1.7
			c-1.2,1.2-1.9,3-2.1,4.8c-0.3,3.8,2,7.2,5.1,7.4c1.8,0.1,3-0.8,3.7-1.7c1-1.2,1.6-2.9,1.8-4.9c0.3-4.1-1.5-7.1-4.4-7.3
			C190,26.3,189.9,26.3,189.8,26.3z"/>
	</g>
	<g>
		<path d="M171.1,14.3l8.2,26.6l-5.1,3.1l-7.5-24.3L171.1,14.3z"/>
		<path d="M173.8,45.1l-7.9-25.6l5.4-6.7l8.8,28.4L173.8,45.1z M167.5,19.8l7.2,23.1l3.8-2.4l-7.7-24.8L167.5,19.8z"/>
	</g>
	<g>
		<path d="M182.8,23.5L165.2,40l-3.2-4.5l19.3-17.6L182.8,23.5z"/>
		<path d="M165.1,41l-4-5.7l20.6-18.8l1.9,7.2L165.1,41z M163,35.5l2.3,3.4L182,23.3l-1.1-4.1L163,35.5z"/>
	</g>
	<polygon points="176.9,46.3 170.7,32.9 172,32.3 178.2,45.7 	"/>
	<polygon points="180.8,48.9 176.4,37.9 177.7,37.4 182.1,48.4 	"/>
	<polygon points="178.2,39.6 176,33.6 177.3,33.1 179.6,39.1 	"/>
	<polygon points="178.2,53.8 172.6,37.6 174,37.1 179.5,53.4 	"/>
	<polygon points="178.7,48.6 174.4,35.5 175.7,35.1 180,48.1 	"/>
	<polygon points="161.8,42.4 160.8,41.4 169.2,33.2 170.2,34.2 	"/>
	<polygon points="158.9,42.8 157.9,41.8 170.5,29 171.5,30 	"/>
	<polygon points="160.3,37.9 159.7,36.6 166.6,33.2 167.2,34.5 	"/>
	<polygon points="191,52.5 189.5,52.5 189.5,41 184.3,38.4 184.9,37.2 191,40.2 	"/>
	<polygon points="188.8,48.3 187.4,48.2 188.1,40.5 189.5,40.6 	"/>
	<rect x="152.7" y="137" width="1.4" height="11.9"/>
	<polygon points="146.4,144.8 145,144.7 145.7,130.7 147.1,130.8 	"/>
	<polygon points="132.2,149 130.8,148.9 132.9,124.4 134.3,124.5 	"/>
	<rect x="139.3" y="126.6" width="1.4" height="9.1"/>
	<polygon points="121.6,143.4 120.2,143.3 121.6,125.1 123,125.2 	"/>
	<polygon points="105.3,158.1 103.9,157.9 106.7,128.6 108.1,128.7 	"/>
	<polygon points="93.3,138.5 91.9,138.4 92.6,132.8 94,132.9 	"/>
	<polygon points="115.9,134.3 114.5,134.2 115.2,125.8 116.6,125.9 	"/>
	<g>
		<g>
			<path style="fill:#4030E8;" d="M72.4,139.8L143.9,63l1.4-38.4l1.8,3c0,0,7.7,13.8,16.7,19.4c8.3,5.3,33.3,10.4,33.3,10.4
				l-22.7,13.5l-19.7,68.2c0,0-9.9-12.5-21.8-13.4c-11.2-0.9-33.7,6.5-33.7,6.5L72.4,139.8z"/>
			<path d="M70.2,141.2l73-78.5l1.5-40.5l3.1,5c0.1,0.2,7.8,13.7,16.4,19.2c8.1,5.1,32.8,10.2,33,10.3l1.8,0.4l-24,14.3l-20.1,69.3
				l-0.9-1.1c-0.1-0.1-9.9-12.2-21.3-13.1c-11-0.9-33.2,6.4-33.4,6.5L70.2,141.2z M145.9,26.9l-1.3,36.3l-0.2,0.2l-69.8,75l24.3-6.9
				c0.9-0.3,22.7-7.5,33.9-6.6c6.3,0.5,12.1,4.2,15.7,7.2c2.6,2.2,4.6,4.2,5.7,5.4l19.5-67.2l21.4-12.7c-5.9-1.3-24.6-5.6-31.7-10.1
				c-9-5.7-16.6-19.1-16.9-19.7L145.9,26.9z"/>
		</g>
		<g>
			<path style="fill:#1B1091;" d="M85.5,134.9l65.9-62.4l-0.1-24.9l1.4-4.9c0,0,4.9,5.9,13.3,10.7c7.9,4.5,28.8,4.6,28.8,4.6
				l-20.2,11.4L155.9,135c0,0-9.4-10.6-20.7-11.4C124.5,122.9,85.5,134.9,85.5,134.9L85.5,134.9z"/>
			<path style="fill:#1B1091;" d="M82.9,136.5l67.8-64.3l-0.1-24.7l1.8-6.3l0.9,1c0,0.1,4.9,5.8,13.1,10.5
				c7.6,4.3,28.3,4.5,28.5,4.5h2.6l-22.2,12.6l-19.1,66.6l-0.9-1c-0.1-0.1-9.4-10.4-20.3-11.2c-10.4-0.8-49,11.2-49.4,11.3
				L82.9,136.5z M134.1,122.9c0.4,0,0.8,0,1.1,0c9.6,0.7,17.7,8.1,20.3,10.7L174,68.9l18.2-10.3c-5.9-0.2-20.2-1-26.6-4.6
				c-6.5-3.7-10.9-8-12.7-9.8l-1,3.6l0.1,25.1l-64,60.6C97.1,130.7,124,122.9,134.1,122.9z"/>
		</g>
	</g>
</g>
<g>
	<g>
		<g>
			<path style="fill:#242424;" d="M17.6,2.5l11.3,33.8L41.4,46L32,57.6l27.6,85.7l-14.2,20.3l-19.9-13.7l-9.7-89.3L2.3,52.8L11.4,39
				L6.2,1.2L17.6,2.5z"/>
			<path d="M45.7,165l-21.1-14.6l-0.1-0.5l-9.7-88.8l-14-8l9.5-14.4L5,0l13.4,1.5l11.4,34.2l13.1,10.2l-9.7,11.9l27.6,85.6L45.7,165
				z M26.6,149.3l18.6,12.8l13.3-19L30.8,57.4l9.1-11.1L28,37l-0.1-0.3L16.8,3.5L7.5,2.4l5.1,36.8L3.8,52.4l13.1,7.5L26.6,149.3z"/>
		</g>
		<g>
			<path style="fill:#2516C7;" d="M30.2,65.9L54.5,143l-9.1,14.5l-13.3-10.1L20.5,67.6l9.3,21L30.2,65.9z"/>
			<path style="fill:#1B1091;" d="M45.7,159l-14.6-11.1L18.3,60.2l10.5,23.6l0.4-24.5l26.4,83.8L45.7,159z M33.1,146.7l12,9.2
				l8.2-13.1L31.2,72.4l-0.4,21l-8.1-18.3L33.1,146.7z"/>
		</g>
		<g>
			<path style="fill:#2516C7;" d="M32.3,46.8l-8.6,11.4l-12.6-7l4.6-11.6L15.1,11l8.2,26.4L32.3,46.8z"/>
			<path style="fill:#1B1091;" d="M24.1,59.5L9.9,51.7l4.9-12.2l-1-36.1l10.4,33.5l9.5,9.9L24.1,59.5z M12.5,50.7l10.9,6.1l7.5-9.9
				l-8.6-9l-0.1-0.2l-5.9-19.1l0.6,21.2L12.5,50.7z"/>
		</g>
	</g>
	<g>
		<path d="M42.4,17.1l-3,6.2l-0.8,8.9L34.4,40l-4.7-3.3l0.3-6.5l-4.3-3.5l-8.5,2.7l-6.7,4.1L10.1,39l-6.6-6.1l7.2-5.9l9.3-6.1
			l-6.1,1.4c0,0,0.1,0.2-2,0.2c-1.8,0.1-1.1,4.7-1.1,4.7L4.4,32L0.8,19l17-7l-5.3-0.5L10.2,15l-5.6,2.2L5.8,6.5L8.3,6l17.9-3.5
			l10.3,3.9L42.4,17.1z"/>
		<path style="fill:#242424;" d="M34.7,40.9L29,37l0.3-6.6l-3.7-3.1l-8,2.6l-6.3,3.8l-0.6,6.7l-8.2-7.7l1.2-1L0,18.5l4-1.6l1.2-11
			l21.2-4.1l10.8,4.1l6,11.1l-3.1,6.4l-0.8,8.9L34.7,40.9z M30.5,36.3l3.7,2.6l3.8-7l0.8-8.8l2.9-6L36.1,6.9l-9.9-3.8L6.5,7l-1,9
			l4.3-1.7l2.5-3.8l8.5,0.8l-19,7.9l3.1,11.4l1.8-1.4l3.4-2.8c-0.1-1.1-0.2-3.3,0.7-4.3c0.3-0.4,0.7-0.6,1.2-0.6s0.8,0,1-0.1
			l10.6-2.3L11.5,27v0.1l-4,3.1l-2.9,2.4l4.9,4.6L9.9,33l7.1-4.3l8.9-2.8l4.9,4L30.5,36.3z M14.2,22.8c-0.3,0.2-0.9,0.3-2.3,0.3
			c0,0-0.1,0-0.2,0.1c-0.3,0.4-0.4,1.5-0.4,2.5l5.1-3.4L14.2,22.8z M12.9,12.1l-1,1.5l3-1.3L12.9,12.1z"/>
	</g>
	<g>
		<path d="M39.4,44.4l-10.3-8.2l0.1-0.1L39.4,44.4L39.4,44.4z"/>
		<polygon points="39.3,45.7 27.3,36.2 29.2,34.8 41.2,44.3 		"/>
	</g>
	<g>
		<path d="M3.1,50l7.6-10.6h-0.1L3.1,50L3.1,50z"/>
		<polygon points="3.5,51.3 1.4,50.5 10.3,38 12.4,38.9 		"/>
	</g>
</g>
</svg>
