<?xml version="1.0" encoding="utf-8"?>
<!-- Generator: Adobe Illustrator 26.5.0, SVG Export Plug-In . SVG Version: 6.00 Build 0)  -->
<svg version="1.1" id="레이어_1" xmlns="http://www.w3.org/2000/svg" xmlns:xlink="http://www.w3.org/1999/xlink" x="0px"
	 y="0px" viewBox="0 0 390 390" style="enable-background:new 0 0 390 390;" xml:space="preserve">
<style type="text/css">
	.st0{fill:#09B6FF;}
	.st1{fill:#FFFFFF;}
	.st2{fill:#C3C3C3;}
	.st3{fill:none;}
	.st4{fill:#4794DD;}
	.st5{fill:#E5E5E5;}
	.st6{fill:#D8D8D8;}
	.st7{fill:#E2E2E2;}
	.st8{fill:#066BBA;}
	.st9{fill:#084E88;}
	.st10{fill:#7D7D7D;}
	.st11{fill:#A7A7A7;}
</style>
<g>
	<g>
		<path class="st0" d="M299.3,264.5l40,19.4l-14.8-34.1C324.5,249.8,306.4,237.5,299.3,264.5z"/>
		<path d="M339.3,285.2c-0.2,0-0.4,0-0.6-0.1l-40-19.4c-0.6-0.3-0.9-0.9-0.7-1.5c2.5-9.5,6.7-15.4,12.4-17.6
			c7.4-2.8,14.6,1.9,14.9,2.1c0.2,0.1,0.4,0.3,0.5,0.6l14.8,34.1c0.2,0.5,0.1,1.1-0.3,1.5C340,285.1,339.7,285.2,339.3,285.2z
			 M300.9,263.8l35.9,17.4l-13.3-30.5c-1.3-0.8-6.8-3.7-12.2-1.7C306.7,250.8,303.1,255.8,300.9,263.8z"/>
	</g>
	<g>
		<path class="st0" d="M332.2,236.9l43.9,7.3l-23.9-28.5C352.2,215.7,331.3,209.1,332.2,236.9z"/>
		<path d="M376.1,245.6c-0.1,0-0.1,0-0.2,0l-43.9-7.3c-0.6-0.1-1.1-0.6-1.1-1.3c-0.3-9.8,2-16.7,6.9-20.4c6.3-4.8,14.5-2.3,14.9-2.2
			c0.2,0.1,0.5,0.2,0.6,0.4l23.9,28.5c0.4,0.4,0.4,1,0.1,1.5S376.5,245.6,376.1,245.6z M333.5,235.8l39.3,6.5l-21.3-25.5
			c-1.5-0.4-7.6-1.6-12.1,1.9C335.3,221.7,333.4,227.5,333.5,235.8z"/>
	</g>
	<g>
		<path class="st0" d="M345.5,198.5l39.3-20.9l-36.3-8.1C348.4,169.4,327.8,176.9,345.5,198.5z"/>
		<path d="M345.5,199.8c-0.4,0-0.8-0.2-1-0.5c-6.2-7.6-8.6-14.5-6.9-20.3c2.1-7.7,10.1-10.6,10.5-10.8c0.2-0.1,0.5-0.1,0.7,0
			l36.3,8.1c0.5,0.1,0.9,0.6,1,1.1s-0.2,1.1-0.7,1.3l-39.3,20.9C345.9,199.7,345.7,199.8,345.5,199.8z M348.5,170.8
			c-1.4,0.6-7,3.3-8.5,8.9c-1.3,4.8,0.6,10.6,5.8,17.1l35.2-18.7L348.5,170.8z"/>
	</g>
	<g>
		<polygon class="st1" points="236.2,277.7 305.5,263.2 296.4,219.7 231.9,225.1 		"/>
		<path d="M236.2,279c-0.3,0-0.6-0.1-0.8-0.3c-0.3-0.2-0.5-0.6-0.5-0.9l-4.3-52.6c-0.1-0.7,0.5-1.4,1.2-1.4l64.5-5.4
			c0.7,0,1.3,0.4,1.4,1l9.1,43.5c0.1,0.3,0,0.7-0.2,1s-0.5,0.5-0.8,0.6L236.5,279C236.4,279,236.3,279,236.2,279z M233.3,226.3
			l4.1,49.8l66.5-13.9l-8.6-41.1L233.3,226.3z"/>
	</g>
	<g>
		<polygon class="st1" points="305,259.4 357.5,233.6 327.6,202.5 296.4,219.7 		"/>
		<path d="M305,260.7c-0.2,0-0.4,0-0.6-0.1c-0.4-0.2-0.6-0.5-0.7-0.9l-8.6-39.7c-0.1-0.6,0.1-1.2,0.7-1.4l31.2-17.2
			c0.5-0.3,1.2-0.2,1.6,0.2l29.9,31.1c0.3,0.3,0.4,0.7,0.3,1.1s-0.3,0.8-0.7,1l-52.5,25.8C305.4,260.6,305.2,260.7,305,260.7z
			 M297.9,220.4l8.1,37.1l49.3-24.2l-28-29.1L297.9,220.4z"/>
	</g>
	<g>
		<polygon class="st1" points="354.9,230.9 363.9,180.3 339.3,177.4 327.6,202.5 		"/>
		<path d="M354.9,232.2c-0.4,0-0.7-0.1-1-0.4l-27.4-28.4c-0.4-0.4-0.5-1-0.2-1.5l11.8-25.1c0.2-0.5,0.8-0.8,1.4-0.8l24.6,2.9
			c0.4,0,0.7,0.2,0.9,0.5c0.2,0.3,0.3,0.7,0.2,1l-9,50.7c-0.1,0.5-0.4,0.9-0.9,1C355.2,232.2,355.1,232.2,354.9,232.2z M329.2,202.2
			l24.9,25.9l8.3-46.7l-22.3-2.6L329.2,202.2z"/>
	</g>
	<g>
		<polygon class="st1" points="339.3,177.4 339.3,135.2 363.9,180.3 		"/>
		<path d="M363.9,181.6c-0.1,0-0.1,0-0.2,0l-24.6-2.9c-0.7-0.1-1.2-0.6-1.2-1.3v-42.1c0-0.6,0.4-1.1,1-1.3c0.6-0.1,1.2,0.1,1.5,0.6
			l24.6,45c0.2,0.4,0.2,1-0.1,1.4C364.8,181.4,364.4,181.6,363.9,181.6z M340.7,176.2l20.9,2.5l-20.9-38.2V176.2z"/>
	</g>
	<g>
		<polygon class="st1" points="296.4,219.7 231.9,225.1 216.3,207.8 273.8,210.5 		"/>
		<path d="M231.9,226.4c-0.4,0-0.7-0.2-1-0.4l-15.6-17.3c-0.4-0.4-0.4-1-0.2-1.4c0.2-0.5,0.7-0.8,1.3-0.8l57.5,2.7
			c0.2,0,0.3,0,0.4,0.1l22.6,9.2c0.6,0.2,0.9,0.8,0.8,1.4c-0.1,0.6-0.6,1.1-1.2,1.1L231.9,226.4C232,226.4,231.9,226.4,231.9,226.4z
			 M219.4,209.2l13,14.5l58.4-4.9l-17.3-7.1L219.4,209.2z"/>
	</g>
	<g>
		<polygon class="st1" points="327.6,202.5 301,197.4 273.8,210.5 296.4,219.7 		"/>
		<path d="M296.4,221c-0.2,0-0.3,0-0.5-0.1l-22.6-9.2c-0.5-0.2-0.8-0.7-0.8-1.2s0.3-1,0.7-1.2l27.2-13c0.3-0.1,0.5-0.2,0.8-0.1
			l26.6,5.1c0.5,0.1,1,0.5,1.1,1.1c0.1,0.5-0.2,1.1-0.7,1.4L297,221C296.9,221,296.6,221,296.4,221z M277.1,210.4l19.3,7.9
			l27.4-15.1l-22.6-4.3L277.1,210.4z"/>
	</g>
	<g>
		<polygon class="st1" points="309.7,199.1 325.2,175.2 339.3,177.4 327.6,202.5 		"/>
		<path d="M327.6,203.8c-0.1,0-0.2,0-0.2,0l-17.9-3.4c-0.4-0.1-0.8-0.4-1-0.8c-0.2-0.4-0.1-0.9,0.1-1.2l15.5-23.9
			c0.3-0.4,0.8-0.7,1.3-0.6l14.2,2.2c0.4,0.1,0.8,0.3,1,0.7s0.2,0.8,0,1.2l-11.8,25C328.6,203.5,328.1,203.8,327.6,203.8z
			 M311.9,198.1l15,2.9l10.6-22.6l-11.6-1.8L311.9,198.1z"/>
	</g>
	<g>
		<polygon class="st1" points="325.2,175.2 339.3,135.2 339.3,177.4 		"/>
		<path d="M339.3,178.7c-0.1,0-0.1,0-0.2,0l-14.2-2.2c-0.4-0.1-0.7-0.3-0.9-0.6s-0.2-0.7-0.1-1.1l14.2-39.9c0.2-0.6,0.8-1,1.5-0.9
			c0.6,0.1,1.1,0.7,1.1,1.3v42.1c0,0.4-0.2,0.8-0.5,1C340,178.6,339.7,178.7,339.3,178.7z M327,174.1l11.1,1.7v-32.9L327,174.1z"/>
	</g>
	<g>
		<polygon class="st0" points="344.4,188.1 338.5,201.4 349.9,212 354.8,188.8 		"/>
		<path d="M349.9,213.3c-0.3,0-0.7-0.1-0.9-0.4l-11.4-10.6c-0.4-0.4-0.5-1-0.3-1.5l5.9-13.3c0.2-0.5,0.8-0.8,1.3-0.8l10.4,0.7
			c0.4,0,0.7,0.2,1,0.5c0.2,0.3,0.3,0.7,0.2,1.1l-4.9,23.2c-0.1,0.5-0.4,0.8-0.9,1C350.2,213.3,350,213.3,349.9,213.3z M340.1,201.1
			l9,8.4l4.1-19.4l-8-0.5L340.1,201.1z"/>
	</g>
	<g>
		<polygon class="st0" points="327,216.4 307.7,225.1 311.2,243.4 338.5,230.9 		"/>
		<path d="M311.2,244.7c-0.2,0-0.4,0-0.6-0.1c-0.4-0.2-0.6-0.5-0.7-0.9l-3.4-18.3c-0.1-0.6,0.2-1.2,0.8-1.4l19.2-8.7
			c0.6-0.2,1.2-0.1,1.6,0.4l11.6,14.5c0.3,0.3,0.3,0.7,0.3,1.1c-0.1,0.4-0.4,0.7-0.7,0.9L312,244.6
			C311.5,244.6,311.4,244.7,311.2,244.7z M309.2,225.8l2.9,15.6l24.3-11l-9.9-12.4L309.2,225.8z"/>
	</g>
	<g>
		<polygon class="st0" points="260.5,234.1 283.9,232.2 287.9,255.8 258,260.9 		"/>
		<path d="M258,262.2c-0.3,0-0.7-0.1-0.9-0.4c-0.3-0.3-0.5-0.7-0.4-1.1l2.5-26.8c0.1-0.6,0.6-1.1,1.2-1.2l23.5-1.9
			c0.7-0.1,1.3,0.4,1.4,1.1l3.9,23.6c0.1,0.7-0.4,1.4-1.1,1.5l-29.9,5C258.1,262.2,258.1,262.2,258,262.2z M261.7,235.3l-2.2,23.9
			l26.9-4.5l-3.5-21.1L261.7,235.3z"/>
	</g>
</g>
<g>
	<g>
		<polygon class="st2" points="139.6,218.5 149.2,230.2 162.4,195.7 157.1,183.1 		"/>
		<path d="M149.2,231.5c-0.4,0-0.8-0.2-1-0.5l-9.6-11.7c-0.3-0.4-0.4-1-0.2-1.4l17.5-35.4c0.2-0.5,0.7-0.8,1.2-0.7
			c0.5,0,1,0.3,1.2,0.8l5.3,12.7c0.1,0.3,0.1,0.7,0,1l-13.2,34.5c-0.2,0.4-0.6,0.8-1,0.8C149.3,231.5,149.2,231.5,149.2,231.5z
			 M141.2,218.3l7.6,9.3l12.2-31.8l-4-9.5L141.2,218.3z"/>
	</g>
	<g>
		<path class="st2" d="M138,221.1c0,0-4,9.4-12.8,13"/>
		<path d="M125.3,235.4c-0.5,0-1-0.3-1.2-0.8c-0.3-0.7,0-1.4,0.7-1.7c8.1-3.3,12-12.2,12.1-12.3c0.3-0.7,1.1-1,1.7-0.7
			c0.7,0.3,1,1.1,0.7,1.7c-0.2,0.4-4.4,10-13.5,13.7C125.6,235.4,125.4,235.4,125.3,235.4z"/>
	</g>
	<g>
		<g>
			<polygon class="st0" points="82.1,277.6 102.1,295.9 99.8,270.6 			"/>
			<path d="M102.1,297.2c-0.3,0-0.6-0.1-0.9-0.3l-19.9-18.2c-0.3-0.3-0.5-0.8-0.4-1.2c0.1-0.4,0.4-0.8,0.8-1l17.7-7
				c0.4-0.2,0.8-0.1,1.2,0.1c0.4,0.2,0.6,0.6,0.6,1l2.3,25.3c0,0.5-0.2,1.1-0.7,1.3C102.5,297.1,102.3,297.2,102.1,297.2z
				 M84.6,278.1l15.9,14.5l-1.8-20.1L84.6,278.1z"/>
		</g>
		<g>
			<polygon class="st2" points="117.5,159 98.6,204.5 139.6,218.5 157.1,183.1 			"/>
			<path d="M139.6,219.8c-0.1,0-0.3,0-0.4-0.1l-41-14c-0.3-0.1-0.6-0.4-0.8-0.7c-0.1-0.3-0.2-0.7,0-1l18.9-45.5
				c0.1-0.4,0.4-0.6,0.8-0.7c0.4-0.1,0.8-0.1,1.1,0.1l39.6,24.1c0.6,0.4,0.8,1.1,0.5,1.7l-17.5,35.4
				C140.6,219.6,140.1,219.8,139.6,219.8z M100.3,203.7l38.6,13.2l16.4-33.3L118.1,161L100.3,203.7z"/>
		</g>
		<g>
			<polygon class="st2" points="98.6,204.5 139.6,218.5 149.2,230.2 109.7,215.7 			"/>
			<path d="M149.2,231.5c-0.2,0-0.3,0-0.5-0.1l-39.5-14.5c-0.2-0.1-0.3-0.2-0.5-0.3l-11.1-11.2c-0.4-0.4-0.5-1.1-0.2-1.6
				s1-0.7,1.5-0.5l41,14c0.2,0.1,0.4,0.2,0.6,0.4l9.6,11.7c0.4,0.5,0.4,1.1,0.1,1.6C150,231.3,149.6,231.5,149.2,231.5z
				 M110.4,214.5l34.7,12.7l-6.3-7.6l-35.3-12.1L110.4,214.5z"/>
		</g>
		<g>
			<path class="st2" d="M104,210l34.1,11.2l6.8,7.5c0,0-4.7,10.8-12.4,11.6L101,213.6L104,210z"/>
			<path d="M132.4,241.5c-0.3,0-0.6-0.1-0.9-0.3l-31.4-26.6c-0.5-0.5-0.6-1.3-0.2-1.8l2.9-3.7c0.3-0.4,0.9-0.6,1.4-0.4l34.1,11.2
				c0.2,0.1,0.4,0.2,0.6,0.4l6.8,7.5c0.4,0.4,0.4,0.9,0.2,1.4S140.7,240.7,132.4,241.5C132.5,241.5,132.5,241.5,132.4,241.5z
				 M102.9,213.4l29.9,25.4c5.4-1,9.3-7.7,10.5-10l-6-6.6l-32.9-10.8L102.9,213.4z"/>
		</g>
		<g>
			<polygon class="st2" points="95.8,209.2 127,235.6 92.2,265.8 65.6,236.6 			"/>
			<path d="M92.2,267.1c-0.4,0-0.7-0.1-1-0.4l-26.6-29.2c-0.2-0.3-0.4-0.6-0.3-1c0-0.3,0.2-0.7,0.4-0.9l30.2-27.4
				c0.5-0.4,1.2-0.5,1.7,0l31.2,26.4c0.3,0.2,0.5,0.6,0.5,1s-0.2,0.8-0.5,1L93,266.8C92.8,267,92.5,267.1,92.2,267.1z M67.4,236.7
				L92.2,264l32.6-28.4l-29.1-24.7L67.4,236.7z"/>
		</g>
		<g>
			<polygon class="st2" points="92.2,265.8 105.5,271.1 136.1,243.4 125.3,234.1 			"/>
			<path d="M105.5,272.4c-0.2,0-0.3,0-0.5-0.1L91.7,267c-0.4-0.2-0.7-0.5-0.8-1c-0.1-0.4,0.1-0.9,0.4-1.2l33.1-31.7
				c0.5-0.5,1.3-0.5,1.8,0l10.9,9.3c0.3,0.2,0.5,0.6,0.5,1s-0.2,0.7-0.4,1l-30.6,27.7C106.1,272.3,105.8,272.4,105.5,272.4z
				 M94.6,265.3l10.7,4.3l28.9-26.2l-8.8-7.5L94.6,265.3z"/>
		</g>
		<g>
			<path class="st2" d="M69.5,240.9c0,0-13.5,5.4-8.9,14.8L79.4,277c5.2,5.9,14.6,5.5,19-1c1.2-1.7,2.1-3.8,2.9-6.6l-9.1-3.6
				L69.5,240.9z"/>
			<path d="M88.6,282.5c-3.9,0-7.6-1.6-10.2-4.6l-18.8-21.3c-0.1-0.1-0.1-0.2-0.2-0.3c-1.3-2.6-1.4-5.2-0.5-7.6
				c2.2-5.8,9.8-8.8,10.1-9c0.5-0.2,1.1-0.1,1.5,0.3L93,264.7l8.8,3.5c0.6,0.2,1,0.9,0.8,1.6c-0.7,2.7-1.8,5.1-3.1,7
				c-2.3,3.3-5.9,5.4-10,5.7C89.2,282.5,88.9,282.5,88.6,282.5z M61.7,254.9l18.7,21.2c2.3,2.6,5.5,3.9,8.9,3.7
				c3.3-0.2,6.2-1.8,8-4.5c1-1.4,1.8-3.1,2.4-5.1l-8-3.2c-0.2-0.1-0.4-0.2-0.5-0.3l-22-24.2c-1.9,0.9-6.4,3.4-7.8,7.1
				C60.7,251.3,60.8,253.1,61.7,254.9z"/>
		</g>
		<g>
			<polygon class="st2" points="65.5,243.1 86.7,267.5 79.4,277 41.2,282.4 20.6,252.2 29.4,239.3 			"/>
			<path d="M41.2,283.7c-0.4,0-0.8-0.2-1.1-0.6L19.5,253c-0.3-0.4-0.3-1,0-1.5l8.8-12.9c0.3-0.4,0.7-0.6,1.2-0.6l36.1,3.8
				c0.3,0,0.6,0.2,0.9,0.4l21.3,24.4c0.4,0.5,0.4,1.2,0.1,1.7l-7.3,9.5c-0.2,0.3-0.5,0.5-0.9,0.5l-38.2,5.4
				C41.3,283.7,41.3,283.7,41.2,283.7z M22.2,252.2l19.7,28.7l36.9-5.2l6.3-8.3l-20.2-23.2L30,240.7L22.2,252.2z"/>
		</g>
		<g>
			<polyline class="st2" points="29.4,239.3 50.5,268.7 86.7,267.5 			"/>
			<path d="M50.5,270c-0.4,0-0.8-0.2-1.1-0.6L28.3,240c-0.4-0.6-0.3-1.4,0.3-1.8c0.6-0.4,1.4-0.3,1.8,0.3l20.7,28.8l35.5-1.2
				c0.7,0,1.3,0.5,1.4,1.3c0,0.7-0.5,1.3-1.3,1.4L50.5,270L50.5,270z"/>
		</g>
		<g>
			<line class="st3" x1="50.5" y1="268.7" x2="41.2" y2="282.4"/>
			<path d="M41.2,283.7c-0.3,0-0.5-0.1-0.7-0.2c-0.6-0.4-0.8-1.2-0.3-1.8l9.3-13.7c0.4-0.6,1.2-0.8,1.8-0.4s0.8,1.2,0.3,1.8
				l-9.3,13.7C42,283.5,41.6,283.7,41.2,283.7z"/>
		</g>
		<g>
			<g>
				<path class="st4" d="M22.8,248.2c-3.6,0.9-13.1,4.6-16.4,13.2l18.1,0.1c2.6,0.2,5-1.4,5.8-3.8c0.8-2.3,0.8-5.4-2.3-8.1
					C26.6,248.2,24.7,247.8,22.8,248.2z"/>
				<path d="M24.9,262.8c-0.1,0-0.3,0-0.4,0l-18-0.1c-0.4,0-0.8-0.2-1.1-0.6c-0.2-0.4-0.3-0.8-0.1-1.2c3.9-10.2,15.9-13.6,17.3-14
					l0,0c2.3-0.6,4.8,0,6.5,1.6c3.7,3.4,3.5,7,2.6,9.5C30.6,260.9,27.9,262.8,24.9,262.8z M8.5,260.1l16.1,0.1
					c2.1,0.1,3.9-1.1,4.5-2.9c0.9-2.6,0.2-4.8-1.9-6.8c-1.1-1-2.6-1.3-4-1l0,0C22,249.8,12.6,252.5,8.5,260.1z M22.8,248.2
					L22.8,248.2L22.8,248.2z"/>
			</g>
			<g>
				<path class="st4" d="M28.8,256.7c-3.6,0.9-13.1,4.6-16.4,13.2l18.1,0.1c2.6,0.2,5-1.4,5.8-3.8c0.8-2.3,0.8-5.4-2.3-8.1
					C32.6,256.6,30.6,256.2,28.8,256.7z"/>
				<path d="M30.9,271.2c-0.1,0-0.3,0-0.4,0l-18-0.1c-0.4,0-0.8-0.2-1.1-0.6c-0.2-0.4-0.3-0.8-0.1-1.2c3.9-10.2,15.9-13.6,17.3-14
					l0,0c2.3-0.6,4.8,0,6.5,1.6c3.7,3.4,3.5,7,2.6,9.5C36.6,269.3,33.9,271.2,30.9,271.2z M14.4,268.5l16.1,0.1
					c2.1,0.1,3.9-1.1,4.5-2.9c0.9-2.6,0.2-4.8-1.9-6.8c-1.1-1-2.6-1.3-4-1l0,0C28,258.2,18.5,260.9,14.4,268.5z"/>
			</g>
			<g>
				<path class="st4" d="M34.7,265.1c-3.6,0.9-13.1,4.6-16.4,13.2l18.1,0.1c2.6,0.2,5-1.4,5.8-3.8c0.8-2.3,0.8-5.4-2.3-8.1
					C38.6,265.1,36.6,264.6,34.7,265.1z"/>
				<path d="M36.8,279.7c-0.1,0-0.3,0-0.4,0l-18-0.1c-0.4,0-0.8-0.2-1.1-0.6c-0.2-0.4-0.3-0.8-0.1-1.2c3.9-10.2,15.9-13.6,17.3-14
					l0,0c2.3-0.6,4.8,0,6.5,1.6c3.7,3.4,3.5,7,2.6,9.5C42.6,277.8,39.8,279.7,36.8,279.7z M20.4,277l16.1,0.1
					c2.1,0.1,3.9-1.1,4.5-2.9c0.9-2.6,0.2-4.8-1.9-6.8c-1.1-1-2.6-1.3-4.1-1C33.9,266.7,24.5,269.3,20.4,277z"/>
			</g>
		</g>
	</g>
</g>
<g>
	<g>
		<rect x="252.1" y="150.7" class="st0" width="20.7" height="31.5"/>
		<path d="M272.8,183.5h-20.7c-0.7,0-1.3-0.6-1.3-1.3v-31.5c0-0.7,0.6-1.3,1.3-1.3h20.7c0.7,0,1.3,0.6,1.3,1.3v31.5
			C274.1,183,273.5,183.5,272.8,183.5z M253.4,180.9h18V152h-18V180.9z"/>
	</g>
	<g>
		<rect x="252.1" y="186.7" class="st0" width="20.7" height="31.5"/>
		<path d="M272.8,219.6h-20.7c-0.7,0-1.3-0.6-1.3-1.3v-31.5c0-0.7,0.6-1.3,1.3-1.3h20.7c0.7,0,1.3,0.6,1.3,1.3v31.5
			C274.1,219,273.5,219.6,272.8,219.6z M253.4,216.9h18V188h-18V216.9z"/>
	</g>
	<g>
		<polygon class="st0" points="240.4,227.6 272.8,227.6 272.8,259.1 264.3,259.1 240.4,259.1 		"/>
		<path d="M272.8,260.4h-32.4c-0.7,0-1.3-0.6-1.3-1.3v-31.5c0-0.7,0.6-1.3,1.3-1.3h32.4c0.7,0,1.3,0.6,1.3,1.3v31.5
			C274.1,259.8,273.5,260.4,272.8,260.4z M241.7,257.8h29.8v-28.9h-29.8V257.8z"/>
	</g>
	<g>
		<rect x="111.1" y="146.2" class="st1" width="140.8" height="131.5"/>
		<path d="M251.9,279H111.1c-0.8,0-1.5-0.6-1.5-1.3V146.2c0-0.7,0.7-1.3,1.5-1.3h140.8c0.8,0,1.5,0.6,1.5,1.3v131.5
			C253.4,278.4,252.7,279,251.9,279z M112.6,276.4h137.8V147.5H112.6V276.4z"/>
	</g>
	<rect x="114.2" y="160.9" class="st2" width="48.2" height="95.8"/>
</g>
<g>
	<polygon class="st1" points="78.6,57.3 57.2,65.8 164.5,65.8 164.5,57.3 	"/>
	<rect x="57.4" y="64.6" class="st1" width="106" height="24.7"/>
	<rect x="56.5" y="116.4" class="st1" width="106.9" height="29.3"/>
	<path d="M164.7,91.5H57c-0.7,0-1.3-0.6-1.3-1.3V65.8c0-0.5,0.3-1,0.8-1.2l21.6-8.7c0.2-0.1,0.3-0.1,0.5-0.1h86
		c0.7,0,1.3,0.6,1.3,1.3v33.1C166,90.9,165.4,91.5,164.7,91.5z M58.4,88.9h105V58.4H78.9l-20.6,8.2L58.4,88.9L58.4,88.9z"/>
	<rect x="164.5" y="13.6" class="st1" width="63.8" height="132.1"/>
	<path d="M228.1,147h-63.4c-0.7,0-1.3-0.6-1.3-1.3V12.9c0-0.7,0.6-1.3,1.3-1.3h63.4c0.7,0,1.3,0.6,1.3,1.3v132.7
		C229.4,146.4,228.8,147,228.1,147z M166,144.4h60.8V14.3H166V144.4z"/>
	<g>
		<polygon class="st2" points="228.1,12.9 238.4,24.2 238.4,137.4 228.1,145.7 		"/>
		<path d="M228.1,147c-0.2,0-0.4,0-0.6-0.1c-0.5-0.2-0.7-0.7-0.7-1.2V12.9c0-0.5,0.3-1,0.8-1.2s1.1-0.1,1.5,0.3l10.3,11.2
			c0.2,0.2,0.3,0.6,0.3,0.9v113.2c0,0.4-0.2,0.8-0.5,1l-10.3,8.3C228.7,146.9,228.4,147,228.1,147z M229.4,16.3v126.6l7.6-6.2v-112
			L229.4,16.3z"/>
	</g>
	<path d="M164.7,147h-107c-0.7,0-1.3-0.6-1.3-1.3V116c0-0.7,0.6-1.3,1.3-1.3h107c0.7,0,1.3,0.6,1.3,1.3v29.7
		C166,146.4,165.4,147,164.7,147z M59,144.4h104.3v-27.1H59V144.4z"/>
	<g>
		<rect x="59.7" y="90.2" class="st5" width="104.9" height="25.8"/>
		<path d="M164.7,117.3h-105c-0.7,0-1.3-0.6-1.3-1.3V90.2c0-0.7,0.6-1.3,1.3-1.3h104.9c0.7,0,1.3,0.6,1.3,1.3V116
			C166,116.7,165.4,117.3,164.7,117.3z M61.1,114.7h102.3V91.5H61.1V114.7z"/>
	</g>
	<path d="M164.7,117.3c-0.5,0-0.9-0.3-1.2-0.7l-12.6-23.2l-8.9,23.1c-0.2,0.5-0.7,0.8-1.2,0.8l0,0c-0.6,0-1-0.4-1.2-0.9l-8.1-22.2
		l-7.5,22.2c-0.2,0.5-0.7,0.9-1.2,0.9c-0.6,0-1.1-0.4-1.2-0.9l-7.4-21.7l-6.1,21.7c-0.2,0.5-0.6,0.9-1.2,1c-0.6,0-1.1-0.3-1.3-0.9
		l-8.3-22.2L90,116.5c-0.2,0.5-0.7,0.9-1.2,0.9s-1.1-0.3-1.3-0.9l-8.3-22.2l-7.3,22.2c-0.2,0.5-0.7,0.9-1.2,0.9s-1.1-0.3-1.3-0.8
		L58.5,90.7c-0.3-0.7,0-1.4,0.7-1.7c0.7-0.3,1.4,0,1.7,0.7l9.4,22.5l7.4-22.4c0.2-0.5,0.7-0.9,1.2-0.9c0.6,0,1.1,0.3,1.3,0.9
		l8.3,22.2l7.3-22.2c0.2-0.5,0.7-0.9,1.2-0.9c0.6,0,1.1,0.3,1.3,0.9l8.2,22l6.2-21.9c0.2-0.6,0.7-0.9,1.2-1c0.5,0,1.1,0.3,1.3,0.9
		l7.5,22.1l7.5-22.1c0.2-0.5,0.7-0.9,1.2-0.9s1.1,0.3,1.3,0.9l8.1,22.4l8.6-22.5c0.2-0.5,0.6-0.8,1.1-0.8s1,0.2,1.2,0.7l13.9,25.8
		c0.3,0.6,0.1,1.4-0.5,1.8C165.1,117.2,164.9,117.3,164.7,117.3z"/>
	<g>
		<rect x="172.7" y="20.7" class="st6" width="39.2" height="36.6"/>
		<polygon class="st0" points="175.3,39.7 180.3,51.7 209.6,40.7 204.5,27.9 		"/>
		<polygon class="st4" points="180.9,61.7 206.2,61.7 192.5,101.5 		"/>
	</g>
</g>
<g>
	<g>
		<rect x="123" y="277.7" class="st1" width="42.4" height="58.1"/>
		<path d="M165.4,337.1H123c-0.7,0-1.3-0.6-1.3-1.3v-58.1c0-0.7,0.6-1.3,1.3-1.3h42.4c0.7,0,1.3,0.6,1.3,1.3v58.1
			C166.7,336.5,166.1,337.1,165.4,337.1z M124.3,334.5h39.8V279h-39.8V334.5z"/>
	</g>
	<g>
		<rect x="165.4" y="277.7" class="st2" width="13.6" height="58.1"/>
		<path d="M179,337.1h-13.6c-0.7,0-1.3-0.6-1.3-1.3v-58.1c0-0.7,0.6-1.3,1.3-1.3H179c0.7,0,1.3,0.6,1.3,1.3v58.1
			C180.3,336.5,179.7,337.1,179,337.1z M166.7,334.5h11V279h-11V334.5z"/>
	</g>
	<g>
		<rect x="110.9" y="335.8" class="st7" width="51.5" height="35.6"/>
		<path d="M162.4,372.7h-51.5c-0.7,0-1.3-0.6-1.3-1.3v-35.6c0-0.7,0.6-1.3,1.3-1.3h51.5c0.7,0,1.3,0.6,1.3,1.3v35.6
			C163.7,372.1,163.1,372.7,162.4,372.7z M112.2,370.1h48.9v-33h-48.9C112.2,337.1,112.2,370.1,112.2,370.1z"/>
	</g>
	<g>
		<rect x="162.4" y="335.8" class="st2" width="16.6" height="35.6"/>
		<path d="M179,372.7h-16.6c-0.7,0-1.3-0.6-1.3-1.3v-35.6c0-0.7,0.6-1.3,1.3-1.3H179c0.7,0,1.3,0.6,1.3,1.3v35.6
			C180.3,372.1,179.7,372.7,179,372.7z M163.7,370.1h14v-33h-14V370.1z"/>
	</g>
	<g>
		<g>
			<path class="st0" d="M105.9,355.9c-5.2,3.9-12.7,10.8-13.9,18.6l20.7-0.4c5.2-0.1,9.3-4.8,8.5-10c-0.4-2.5-1.6-5.1-4.1-7.6
				C114.2,353.7,109.4,353.4,105.9,355.9z"/>
			<path d="M92.1,375.9c-0.4,0-0.7-0.2-1-0.4c-0.3-0.3-0.4-0.7-0.3-1.1c1.2-8.1,8.5-15.1,14.4-19.5c3.9-2.9,9.5-2.6,13,0.8
				c2.4,2.4,3.9,5.2,4.5,8.3c0.5,2.8-0.3,5.6-2.1,7.8c-1.9,2.3-4.7,3.6-7.6,3.7L92.1,375.9L92.1,375.9z M111.1,355.5
				c-1.6,0-3.1,0.5-4.4,1.5l0,0c-4.2,3.1-11.2,9.3-13,16.2l19.1-0.4c2.2,0,4.2-1,5.6-2.7c1.4-1.6,1.9-3.7,1.6-5.7
				c-0.4-2.5-1.7-4.8-3.7-6.8C114.9,356.2,113,355.5,111.1,355.5z M105.9,355.9L105.9,355.9L105.9,355.9z"/>
		</g>
		<g>
			<path class="st0" d="M119.5,355.9c-5.2,3.9-12.7,10.8-13.9,18.6l20.7-0.4c5.2-0.1,9.3-4.8,8.5-10c-0.4-2.5-1.6-5.1-4.1-7.6
				C127.7,353.7,122.9,353.4,119.5,355.9z"/>
			<path d="M105.7,375.9c-0.4,0-0.7-0.2-1-0.4c-0.3-0.3-0.4-0.7-0.3-1.1c1.2-8.1,8.5-15.1,14.4-19.5c3.9-2.9,9.5-2.6,13,0.8
				c2.4,2.4,3.9,5.2,4.5,8.3c0.5,2.8-0.3,5.6-2.1,7.8c-1.9,2.3-4.7,3.6-7.6,3.7L105.7,375.9L105.7,375.9z M124.7,355.5
				c-1.6,0-3.1,0.5-4.4,1.5l0,0c-4.2,3.1-11.2,9.3-13,16.2l19.1-0.4c2.2,0,4.2-1,5.6-2.7c1.4-1.6,1.9-3.7,1.6-5.7
				c-0.4-2.5-1.7-4.8-3.7-6.8C128.5,356.2,126.6,355.5,124.7,355.5z M119.5,355.9L119.5,355.9L119.5,355.9z"/>
		</g>
		<g>
			<path class="st0" d="M136.3,355.9c-5.2,3.9-12.7,10.8-13.9,18.6l20.7-0.4c5.2-0.1,9.3-4.8,8.5-10c-0.4-2.5-1.6-5.1-4.1-7.6
				C144.5,353.7,139.7,353.4,136.3,355.9z"/>
			<path d="M122.4,375.9c-0.4,0-0.7-0.2-1-0.4c-0.3-0.3-0.4-0.7-0.3-1.1c1.2-8.1,8.5-15.1,14.4-19.5c3.9-2.9,9.5-2.6,13,0.8
				c2.4,2.4,3.9,5.2,4.5,8.3c0.5,2.8-0.3,5.6-2.1,7.8c-1.9,2.3-4.7,3.6-7.6,3.7L122.4,375.9L122.4,375.9z M141.5,355.5
				c-1.6,0-3.1,0.5-4.4,1.5l0,0c-4.2,3.1-11.2,9.3-13,16.2l19.1-0.4c2.2,0,4.2-1,5.6-2.7c1.4-1.6,1.9-3.7,1.6-5.7
				c-0.4-2.5-1.7-4.8-3.7-6.8C145.2,356.2,143.4,355.5,141.5,355.5z M136.3,355.9L136.3,355.9L136.3,355.9z"/>
		</g>
	</g>
</g>
<g>
	<g>
		<rect x="180.2" y="277.7" class="st1" width="42.4" height="58.1"/>
		<path d="M222.6,337.1h-42.4c-0.7,0-1.3-0.6-1.3-1.3v-58.1c0-0.7,0.6-1.3,1.3-1.3h42.4c0.7,0,1.3,0.6,1.3,1.3v58.1
			C224,336.5,223.4,337.1,222.6,337.1z M181.5,334.5h39.8V279h-39.8V334.5z"/>
	</g>
	<g>
		<rect x="222.6" y="277.7" class="st2" width="13.6" height="58.1"/>
		<path d="M236.2,337.1h-13.6c-0.7,0-1.3-0.6-1.3-1.3v-58.1c0-0.7,0.6-1.3,1.3-1.3h13.6c0.7,0,1.3,0.6,1.3,1.3v58.1
			C237.6,336.5,237,337.1,236.2,337.1z M224,334.5h11V279h-11V334.5z"/>
	</g>
	<g>
		<rect x="168.1" y="335.8" class="st7" width="51.5" height="35.6"/>
		<path d="M219.6,372.7h-51.5c-0.7,0-1.3-0.6-1.3-1.3v-35.6c0-0.7,0.6-1.3,1.3-1.3h51.5c0.7,0,1.3,0.6,1.3,1.3v35.6
			C220.9,372.1,220.4,372.7,219.6,372.7z M169.4,370.1h48.9v-33h-48.9V370.1z"/>
	</g>
	<g>
		<rect x="219.6" y="335.8" class="st2" width="16.6" height="35.6"/>
		<path d="M236.2,372.7h-16.6c-0.7,0-1.3-0.6-1.3-1.3v-35.6c0-0.7,0.6-1.3,1.3-1.3h16.6c0.7,0,1.3,0.6,1.3,1.3v35.6
			C237.6,372.1,237,372.7,236.2,372.7z M220.9,370.1h14v-33h-14V370.1z"/>
	</g>
	<g>
		<g>
			<path class="st0" d="M163.2,355.9c-5.2,3.9-12.7,10.8-13.9,18.6l20.7-0.4c5.2-0.1,9.3-4.8,8.5-10c-0.4-2.5-1.6-5.1-4.1-7.6
				C171.4,353.7,166.6,353.4,163.2,355.9z"/>
			<path d="M149.3,375.9c-0.4,0-0.7-0.2-1-0.4c-0.3-0.3-0.4-0.7-0.3-1.1c1.2-8.1,8.5-15.1,14.4-19.5c3.9-2.9,9.5-2.6,13,0.8
				c2.4,2.4,3.9,5.2,4.5,8.3c0.5,2.8-0.3,5.6-2.1,7.8c-1.9,2.3-4.7,3.6-7.6,3.7L149.3,375.9L149.3,375.9z M168.4,355.5
				c-1.6,0-3.1,0.5-4.4,1.5l0,0c-4.2,3.1-11.2,9.3-13,16.2l19.1-0.4c2.2,0,4.2-1,5.6-2.7c1.4-1.6,1.9-3.7,1.6-5.7
				c-0.4-2.5-1.7-4.8-3.7-6.8C172.1,356.2,170.3,355.5,168.4,355.5z M163.2,355.9L163.2,355.9L163.2,355.9z"/>
		</g>
		<g>
			<path class="st0" d="M176.8,355.9c-5.2,3.9-12.7,10.8-13.9,18.6l20.7-0.4c5.2-0.1,9.3-4.8,8.5-10c-0.4-2.5-1.6-5.1-4.1-7.6
				C185,353.7,180.2,353.4,176.8,355.9z"/>
			<path d="M162.9,375.9c-0.4,0-0.7-0.2-1-0.4c-0.3-0.3-0.4-0.7-0.3-1.1c1.2-8.1,8.5-15.1,14.4-19.5l0,0c3.9-2.9,9.5-2.6,13,0.8
				c2.4,2.4,3.9,5.2,4.5,8.3c0.5,2.8-0.3,5.6-2.1,7.8c-1.9,2.3-4.7,3.6-7.6,3.7L162.9,375.9L162.9,375.9z M182,355.5
				c-1.6,0-3.1,0.5-4.4,1.5l0,0c-4.2,3.1-11.2,9.3-13,16.2l19.1-0.4c2.2,0,4.2-1,5.6-2.7c1.4-1.6,1.9-3.7,1.6-5.7
				c-0.4-2.5-1.7-4.8-3.7-6.8C185.7,356.2,183.8,355.5,182,355.5z M176.8,355.9L176.8,355.9L176.8,355.9z"/>
		</g>
		<g>
			<path class="st0" d="M193.5,355.9c-5.2,3.9-12.7,10.8-13.9,18.6l20.7-0.4c5.2-0.1,9.3-4.8,8.5-10c-0.4-2.5-1.6-5.1-4.1-7.6
				C201.7,353.7,196.9,353.4,193.5,355.9z"/>
			<path d="M179.7,375.9c-0.4,0-0.7-0.2-1-0.4c-0.3-0.3-0.4-0.7-0.3-1.1c1.2-8.1,8.5-15.1,14.4-19.5c3.9-2.9,9.5-2.6,13,0.8
				c2.4,2.4,3.9,5.2,4.5,8.3c0.5,2.8-0.3,5.6-2.1,7.8c-1.9,2.3-4.7,3.6-7.6,3.7L179.7,375.9L179.7,375.9z M198.7,355.5
				c-1.6,0-3.1,0.5-4.4,1.5l0,0c-4.2,3.1-11.2,9.3-13,16.2l19.1-0.4c2.2,0,4.2-1,5.6-2.7c1.4-1.6,1.9-3.7,1.6-5.7
				c-0.4-2.5-1.7-4.8-3.7-6.8C202.5,356.2,200.6,355.5,198.7,355.5z M193.5,355.9L193.5,355.9L193.5,355.9z"/>
		</g>
	</g>
</g>
<g>
	<g>
		<polygon class="st0" points="220.7,297.4 244.1,311 236.5,286.8 		"/>
		<path d="M244.1,312.3c-0.2,0-0.5-0.1-0.7-0.2L220,298.5c-0.4-0.2-0.6-0.6-0.7-1.1c0-0.5,0.2-0.9,0.6-1.1l15.8-10.6
			c0.3-0.2,0.8-0.3,1.2-0.2c0.4,0.1,0.7,0.5,0.8,0.9l7.6,24.2c0.2,0.5,0,1.1-0.4,1.4C244.7,312.2,244.4,312.3,244.1,312.3z
			 M223.2,297.3l18.6,10.8l-6-19.3L223.2,297.3z"/>
	</g>
	<g>
		<polygon class="st1" points="192.5,176.7 199.7,225.4 242.1,216.2 238.8,176.9 		"/>
		<path d="M199.7,226.7c-0.3,0-0.5-0.1-0.7-0.2c-0.3-0.2-0.5-0.5-0.6-0.9l-7.3-48.7c-0.1-0.4,0.1-0.8,0.3-1.1c0.3-0.3,0.6-0.5,1-0.5
			l46.3,0.2c0.7,0,1.3,0.5,1.3,1.2l3.3,39.4c0.1,0.7-0.4,1.3-1,1.4l-42.4,9.2C199.9,226.7,199.8,226.7,199.7,226.7z M194,178
			l6.9,45.8l39.9-8.6l-3.1-37L194,178z"/>
	</g>
	<g>
		<polygon class="st4" points="177.6,156 204.9,194 236.8,169.6 210.3,132.1 		"/>
		<path d="M204.9,195.3c-0.1,0-0.1,0-0.2,0c-0.4-0.1-0.7-0.2-0.9-0.5l-27.3-38c-0.4-0.6-0.3-1.4,0.3-1.8l32.7-23.9
			c0.3-0.2,0.6-0.3,1-0.2c0.3,0.1,0.7,0.3,0.9,0.5l26.4,37.5c0.4,0.6,0.3,1.4-0.3,1.8l-31.9,24.5
			C205.5,195.2,205.2,195.3,204.9,195.3z M179.4,156.3l25.7,35.9l29.8-22.9L210,134L179.4,156.3z"/>
	</g>
	<g>
		<polygon class="st8" points="210.3,132.1 236.8,169.6 260.8,186.5 225.7,139.4 		"/>
		<path d="M260.8,187.8c-0.3,0-0.5-0.1-0.8-0.2l-24-16.9c-0.1-0.1-0.2-0.2-0.3-0.3l-26.4-37.5c-0.3-0.5-0.3-1.2,0.1-1.6
			c0.4-0.5,1-0.6,1.6-0.3l15.4,7.3c0.2,0.1,0.4,0.2,0.5,0.4l35.1,47.1c0.4,0.5,0.3,1.2-0.1,1.7C261.5,187.6,261.2,187.8,260.8,187.8
			z M237.7,168.6l17.1,12l-30-40.2l-10.5-5L237.7,168.6z"/>
	</g>
	<g>
		<polygon class="st9" points="236.8,169.6 204.9,194 211.5,196.2 238.8,176.9 249.9,185 251.3,191.2 255.4,189 260.8,186.5 		"/>
		<path d="M211.5,197.5c-0.1,0-0.3,0-0.4-0.1l-6.6-2.2c-0.5-0.2-0.8-0.5-0.9-1c-0.1-0.5,0.1-1,0.5-1.3l31.9-24.5
			c0.5-0.4,1.1-0.4,1.6,0l24,16.9c0.4,0.3,0.6,0.7,0.6,1.2s-0.3,0.9-0.7,1.1l-5.4,2.6l-4.1,2.2c-0.4,0.2-0.8,0.2-1.2,0
			s-0.6-0.5-0.7-0.9l-1.3-5.8l-9.9-7.2l-26.5,18.7C212.1,197.4,211.8,197.5,211.5,197.5z M207.7,193.5l3.6,1.2l26.7-18.9
			c0.5-0.3,1.1-0.3,1.5,0l11.1,8.1c0.3,0.2,0.4,0.5,0.5,0.8l1,4.6l2.6-1.4l3.4-1.6l-21.4-15L207.7,193.5z"/>
	</g>
	<g>
		<polygon class="st2" points="242.1,216.2 256.3,221.3 249.9,185 238.8,176.9 		"/>
		<path d="M256.3,222.6c-0.1,0-0.3,0-0.4-0.1l-14.2-5.1c-0.5-0.2-0.8-0.6-0.9-1.1l-3.3-39.4c0-0.5,0.2-1,0.7-1.3s1-0.2,1.4,0.1
			l11.1,8.1c0.3,0.2,0.5,0.5,0.5,0.8l6.4,36.3c0.1,0.5-0.1,0.9-0.4,1.2C256.9,222.5,256.6,222.6,256.3,222.6z M243.4,215.3l11.3,4
			l-6-33.6l-8.3-6.1L243.4,215.3z"/>
	</g>
	<g>
		<polygon class="st10" points="199.7,225.4 242.1,216.2 256.3,221.3 215,229.3 		"/>
		<path d="M215,230.6c-0.1,0-0.2,0-0.3,0l-15.3-3.9c-0.6-0.2-1-0.7-1-1.3s0.4-1.1,1-1.3l42.4-9.2c0.2-0.1,0.5,0,0.7,0l14.2,5.1
			c0.6,0.2,0.9,0.7,0.9,1.3s-0.5,1.1-1.1,1.2l-41.3,8C215.2,230.6,215.1,230.6,215,230.6z M205.5,225.5l9.5,2.4l36.3-7l-9.3-3.3
			L205.5,225.5z"/>
	</g>
	<g>
		<path class="st11" d="M207.2,227.3l34.9-8l9.7,2.9c0,0,1.5,11.7-4.7,16.3l-40.6-6.6L207.2,227.3z"/>
		<path d="M247.2,239.8c-0.1,0-0.1,0-0.2,0l-40.6-6.6c-0.7-0.1-1.2-0.8-1.1-1.5l0.6-4.7c0.1-0.5,0.5-1,1-1.1l34.9-8
			c0.2-0.1,0.5,0,0.7,0l9.7,2.9c0.5,0.1,0.9,0.6,0.9,1.1c0.1,0.5,1.5,12.5-5.2,17.6C247.7,239.7,247.4,239.8,247.2,239.8z
			 M208,230.8l38.7,6.3c4.2-3.6,4-11.4,3.8-13.9l-8.5-2.5l-33.7,7.7L208,230.8z"/>
	</g>
	<path d="M237.9,238.3c-0.3,0-0.6-0.1-0.8-0.3c-0.6-0.4-0.7-1.3-0.3-1.8c5.2-7,4-16.7,4-16.8c-0.1-0.7,0.4-1.4,1.1-1.5
		c0.7-0.1,1.4,0.4,1.5,1.1c0.1,0.4,1.4,10.8-4.5,18.7C238.7,238.1,238.3,238.3,237.9,238.3z"/>
	<g>
		<polygon class="st1" points="199.6,230.9 240,237.4 225.8,281.2 187.9,270 		"/>
		<path d="M225.8,282.6c-0.1,0-0.3,0-0.4-0.1l-37.9-11.3c-0.3-0.1-0.6-0.3-0.8-0.6c-0.2-0.3-0.2-0.7-0.1-1l11.7-39.1
			c0.2-0.6,0.8-1,1.5-0.9l40.3,6.5c0.4,0.1,0.7,0.3,0.9,0.6s0.2,0.7,0.1,1.1L227,281.7C226.9,282.2,226.3,282.6,225.8,282.6z
			 M189.6,269.1l35.4,10.5l13.3-41.2l-37.7-6.1L189.6,269.1z"/>
	</g>
	<g>
		<polygon class="st2" points="225.9,281.2 240.1,278.9 252,239.4 237.9,237 		"/>
		<path d="M225.9,282.5c-0.4,0-0.7-0.2-1-0.4c-0.3-0.3-0.4-0.8-0.3-1.2l12-44.2c0.2-0.7,0.8-1.1,1.5-1l14.1,2.3
			c0.4,0.1,0.7,0.3,0.9,0.6s0.3,0.7,0.1,1.1l-11.9,39.5c-0.1,0.5-0.6,0.8-1.1,0.9l-14.2,2.3C226,282.5,226,282.5,225.9,282.5z
			 M238.8,238.5l-11.1,41.1l11.3-1.8l11.3-37.3L238.8,238.5z"/>
	</g>
	<g>
		<path class="st2" d="M193.6,271.6c0,0-8.7,11.6,0,17.3l27.2,8.5c7.5,2.3,15.3-2.8,15.8-10.6c0.1-2-0.1-4.4-0.9-7.1l-9.7,1.6
			L193.6,271.6z"/>
		<path d="M224.5,299.3c-1.4,0-2.8-0.2-4.1-0.6l-27.2-8.5c-0.1,0-0.2-0.1-0.3-0.2c-2.4-1.6-3.9-3.7-4.3-6.3
			c-1.1-6.1,3.8-12.6,4-12.9c0.3-0.4,0.9-0.6,1.4-0.5l32,9.5l9.4-1.5c0.7-0.1,1.3,0.3,1.5,0.9c0.8,2.7,1.1,5.3,1,7.6
			c-0.2,4-2.3,7.7-5.7,10C229.9,298.5,227.2,299.3,224.5,299.3z M194.2,287.7l27,8.5c3.2,1,6.7,0.5,9.5-1.4c2.7-1.9,4.3-4.8,4.5-8
			c0.1-1.7-0.1-3.6-0.6-5.6l-8.5,1.4c-0.2,0-0.4,0-0.6,0l-31.4-9.4c-1.1,1.7-3.7,6.2-3,10.1C191.5,285,192.5,286.5,194.2,287.7z"/>
	</g>
	<g>
		<g>
			<polygon class="st2" points="156.3,305.8 189.2,320.8 219,296.6 220.3,284.9 189.8,275.1 157.1,290.4 			"/>
			<path d="M189.2,322.3c-0.2,0-0.4,0-0.6-0.1l-33-15c-0.6-0.3-0.9-0.8-0.9-1.4l0.9-15.4c0-0.6,0.4-1,0.9-1.3l32.6-15.3
				c0.3-0.2,0.7-0.2,1.1-0.1l30.5,9.8c0.7,0.2,1.1,0.9,1,1.6l-1.3,11.7c0,0.4-0.2,0.7-0.5,1L190.2,322
				C189.9,322.2,189.6,322.3,189.2,322.3z M157.8,304.8L189,319l28.6-23.2l1.1-9.9l-28.8-9.3l-31.3,14.7L157.8,304.8z"/>
		</g>
		<g>
			<polygon class="st1" points="220.3,284.9 189.9,307 157.1,290.4 189.8,275.1 			"/>
			<path d="M189.9,308.5c-0.2,0-0.5-0.1-0.7-0.2l-32.8-16.5c-0.5-0.3-0.8-0.8-0.8-1.4s0.3-1.1,0.9-1.3l32.6-15.3
				c0.3-0.2,0.7-0.2,1.1-0.1l30.5,9.8c0.5,0.2,0.9,0.6,1,1.2s-0.1,1.1-0.6,1.5l-30.4,22C190.5,308.4,190.2,308.5,189.9,308.5z
				 M160.6,290.5l29.2,14.7l27.3-19.7l-27.2-8.7L160.6,290.5z"/>
		</g>
		<g>
			<line class="st3" x1="189.9" y1="307" x2="189" y2="320.8"/>
			<path d="M189,322.3h-0.1c-0.8-0.1-1.5-0.8-1.4-1.6l0.9-13.8c0.1-0.8,0.8-1.5,1.6-1.4s1.5,0.8,1.4,1.6l-0.9,13.8
				C190.4,321.7,189.8,322.3,189,322.3z"/>
		</g>
	</g>
	<g>
		<path class="st0" d="M157.4,302c-2.6,2.7-8.8,10.7-7.2,19.7l15.5-9.3c2.3-1.2,3.5-3.8,3-6.3c-0.5-2.4-2.1-5-6.1-5.8
			C160.7,300,158.8,300.6,157.4,302z"/>
		<path d="M150.2,323c-0.2,0-0.4,0-0.5-0.1c-0.4-0.2-0.7-0.5-0.8-1c-1.9-10.8,6.6-19.9,7.6-20.9l0,0c1.7-1.7,4.1-2.5,6.4-2
			c4.9,1,6.6,4.2,7.2,6.8c0.7,3.1-0.8,6.2-3.7,7.7l-15.5,9.2C150.7,323,150.4,323,150.2,323z M161.5,301.6c-1.2,0-2.3,0.5-3.1,1.4
			l0,0c-0.8,0.8-7.5,8-7.1,16.6l13.8-8.2c1.8-1,2.8-2.9,2.4-4.9c-0.6-2.7-2.3-4.2-5.1-4.8C162,301.6,161.8,301.6,161.5,301.6z
			 M157.4,302L157.4,302L157.4,302z"/>
	</g>
	<g>
		<path class="st0" d="M166.9,306.1c-2.6,2.7-8.8,10.7-7.2,19.7l15.5-9.3c2.3-1.2,3.5-3.8,3-6.3c-0.5-2.4-2.1-5-6.1-5.8
			C170.2,304.1,168.2,304.8,166.9,306.1z"/>
		<path d="M159.7,327.2c-0.2,0-0.4,0-0.5-0.1c-0.4-0.2-0.7-0.5-0.8-1c-1.9-10.8,6.6-19.9,7.6-20.9l0,0c1.7-1.7,4.1-2.5,6.4-2
			c4.9,1,6.6,4.2,7.2,6.8c0.7,3.1-0.8,6.2-3.7,7.7l-15.5,9.2C160.1,327.1,159.9,327.2,159.7,327.2z M167.8,307.1L167.8,307.1
			c-0.8,0.8-7.5,8-7.1,16.6l13.8-8.2c1.8-1,2.8-2.9,2.4-4.9c-0.6-2.7-2.3-4.2-5.1-4.8C170.4,305.5,168.9,306,167.8,307.1z"/>
	</g>
	<g>
		<path class="st0" d="M176.3,310.3c-2.6,2.7-8.8,10.7-7.2,19.7l15.5-9.3c2.3-1.2,3.5-3.8,3-6.3c-0.5-2.4-2.1-5-6.1-5.8
			C179.6,308.3,177.7,308.9,176.3,310.3z"/>
		<path d="M169.1,331.3c-0.2,0-0.4,0-0.5-0.1c-0.4-0.2-0.7-0.5-0.8-1c-1.9-10.8,6.6-19.9,7.6-20.9l0,0c1.7-1.7,4.1-2.5,6.4-2
			c4.9,1,6.6,4.2,7.2,6.8c0.7,3.1-0.8,6.2-3.7,7.7l-15.5,9.2C169.6,331.3,169.4,331.3,169.1,331.3z M180.4,309.9
			c-1.2,0-2.3,0.5-3.1,1.4l0,0c-0.8,0.8-7.5,8-7.1,16.6l13.8-8.2c1.8-1,2.8-2.9,2.4-4.9c-0.6-2.7-2.3-4.2-5.1-4.8
			C181,309.9,180.7,309.9,180.4,309.9z M176.3,310.3L176.3,310.3L176.3,310.3z"/>
	</g>
</g>
</svg>
