<?xml version="1.0" encoding="utf-8"?>
<!-- Generator: Adobe Illustrator 23.0.2, SVG Export Plug-In . SVG Version: 6.00 Build 0)  -->
<svg version="1.1" id="레이어_1" xmlns="http://www.w3.org/2000/svg" xmlns:xlink="http://www.w3.org/1999/xlink" x="0px"
	 y="0px" viewBox="0 0 322 339" style="enable-background:new 0 0 322 339;" xml:space="preserve">
<style type="text/css">
	.st0{fill:#FFFFFF;}
	.st1{fill:#673101;}
	.st2{fill:#00A2E7;}
	.st3{fill:#FFC0BB;}
	.st4{fill:#4D5B77;}
	.st5{fill:#586689;}
	.st6{fill:#647293;}
	.st7{fill:#A58111;}
	.st8{fill:#C49A3F;}
	.st9{fill:#B28C2B;}
	.st10{fill:#CEA759;}
	.st11{fill:#7888A3;}
	.st12{fill:#CE4D05;}
	.st13{fill:#445166;}
	.st14{fill:#495772;}
	.st15{fill:#404E66;}
</style>
<title>자산 3</title>
<g>
	<path class="st0" d="M152.2,76.8c-0.1,0-0.2-0.1-0.3-0.2c-4.4-2.4-6.1-8-3.7-12.4l0,0c1.9-3.5,1.6-8.8,1.3-10.4
		c-0.4-1.5-1.2-3.7-2.6-4.2c-3-1.2-10,1.8-13.7,4.2c-4.3,2.7-10,1.4-12.7-2.9c-2.6-4.1-1.6-9.4,2.3-12.3c1.7-1.2,17-11.3,30.4-6.3
		c4.9,1.8,11.2,6.3,14,17.2l0.1,0.6c0.2,1.3,2.2,12.9-3.2,22.9C162,77.3,156.6,79,152.2,76.8z"/>
	<path class="st1" d="M136,48.2c-0.7-0.3-1.4-0.4-2.1-0.3c1.9-0.7,2.9-2.8,2.2-4.7c-0.6-1.8-2.6-2.8-4.4-2.3
		c0.8-0.3,1.5-0.9,1.9-1.7c0.9-1.8,0.2-4.1-1.6-5l0,0c-0.1,0-0.2-0.1-0.4-0.1c-3,1.3-5.9,2.8-8.6,4.6c-4.1,3-5,8.7-2.1,12.8
		c2.9,4,8.3,5,12.4,2.3c1.5-1,3-1.8,4.6-2.5C137.9,50,137.2,48.8,136,48.2z"/>
</g>
<g>
	<path class="st0" d="M205.6,77.3l0.3-0.1c4.7-1.8,7-7.1,5.2-11.8c-1.4-3.7-0.4-8.8,0-10.4c0.6-1.4,1.7-3.5,3.1-3.8
		c3.1-0.8,9.6,3,12.9,5.9c3.8,3.4,9.5,3,12.9-0.7c3.4-3.8,3-9.5-0.7-12.9l0,0c-1.5-1.4-15.4-13.3-29.2-10.1c-5,1.2-11.9,4.7-16,15.1
		l-0.2,0.5c-0.4,1.2-3.8,12.4,0.3,22.9C195.9,76.5,201,78.9,205.6,77.3z"/>
	<path class="st1" d="M225.2,51.2c0.7-0.2,1.4-0.2,2.1,0c-1.8-0.9-2.5-3.1-1.7-4.9c0.8-1.7,2.9-2.5,4.7-1.8c-1.7-1-2.4-3.2-1.4-4.9
		c0.4-0.8,1.2-1.4,2-1.7c0.2,0,0.3-0.1,0.5-0.1c2.8,1.6,5.4,3.5,7.8,5.6c3.5,3.6,3.4,9.4-0.2,12.9c-3.3,3.2-8.4,3.5-12,0.7
		c-1.3-1.1-2.7-2.1-4.2-3C223.1,52.7,224,51.6,225.2,51.2z"/>
</g>
<path class="st2" d="M170.8,50.5c0,0-14.7-1.8-37.8,8.7l-21.2,87.2v62.4c0,20.8,25.4,37.6,56.7,37.6s56.7-16.9,56.7-37.6V93.7
	C225.2,93.7,225.3,50.4,170.8,50.5z"/>
<path class="st0" d="M161.6,52c0,0-11.6,0.3-14.5,0.8c-34.3,5.1-38.3,32.6-38.7,37.9c-9.4,5.5-15.3,15.6-15.2,26.5v2.4
	c0,16.9,13.7,30.7,30.7,30.7l0,0h37.6c29.8,0,54-22,54-49.1S191.4,52.1,161.6,52z"/>
<g>
	<path d="M127,108.5c0.1,1.2,1.2,2.2,2.5,2.1c1.2-0.1,2.2-1.2,2.1-2.5c-0.1-1.2-1.1-2.1-2.3-2.1C128,106.1,126.9,107.2,127,108.5
		L127,108.5z"/>
	<path d="M121.9,98.6L121.9,98.6c2,0,3.6,1.6,3.6,3.6v0.3c0,2-1.6,3.6-3.6,3.6l0,0c-2,0-3.6-1.6-3.6-3.6v-0.3
		C118.4,100.2,120,98.6,121.9,98.6z"/>
	<path d="M146.9,98.6L146.9,98.6c2,0,3.6,1.6,3.6,3.6v0.3c0,2-1.6,3.6-3.6,3.6l0,0c-2,0-3.6-1.6-3.6-3.6v-0.3
		C143.4,100.2,145,98.6,146.9,98.6z"/>
	<path d="M139.9,122.8c-4.6,0-8.5-2.7-10.5-4.3c-1.6,2-4,3.4-6.6,3.7c-4.5,0.4-8-2.8-8.1-3c-0.7-0.6-0.7-1.7-0.1-2.4
		s1.7-0.7,2.4-0.1l0,0c0,0,2.6,2.3,5.5,2c1.9-0.2,3.7-1.5,5.4-3.8c0.3-0.4,0.8-0.7,1.3-0.7s1,0.2,1.4,0.5c0,0.1,4.5,4.7,9.8,4.6
		c2.8-0.1,5.5-1.6,7.9-4.5c0.6-0.7,1.7-0.8,2.4-0.2s0.8,1.7,0.2,2.4c-3,3.7-6.6,5.6-10.4,5.7L139.9,122.8z"/>
</g>
<g>
	<path class="st3" d="M187,113.8c-0.1,8.7-7.1,15.7-15.8,15.6c-8.7-0.1-15.7-7.1-15.6-15.8c0.1-8.6,7.1-15.6,15.7-15.6
		C180,98,187,105,187,113.8C187,113.7,187,113.7,187,113.8z"/>
	<path class="st3" d="M110.9,113.8c0-7.1-4.7-13.3-11.4-15.2c-4.1,5.3-6.4,11.9-6.4,18.7v2.4c0,3.4,0.6,6.8,1.7,10h0.4
		C103.9,129.6,111,122.5,110.9,113.8L110.9,113.8z"/>
</g>
<g>
	<path class="st4" d="M30.3,243.6c0,36.2,18.2,65.5,40.7,65.5s40.7-29.3,40.7-65.5S93.5,178.1,71,178.1S30.3,207.4,30.3,243.6z"/>
	<path class="st5" d="M38.3,243.6c0,36.2,18.2,65.5,40.7,65.5s40.7-29.3,40.7-65.5s-18.2-65.5-40.7-65.5S38.3,207.4,38.3,243.6z"/>
	<polygon class="st6" points="71,302.9 87,302.9 79,248.7 	"/>
	<polygon class="st6" points="47.3,276.5 58.6,294.6 76.8,247.2 	"/>
	<polygon class="st6" points="42.1,230.8 42.1,256.5 75.8,243.6 	"/>
	<polygon class="st6" points="58.6,192.6 47.3,210.8 76.8,240 	"/>
	<polygon class="st6" points="87,184.3 71,184.3 79,238.5 	"/>
	<polygon class="st6" points="110.7,210.8 99.4,192.6 81.2,240 	"/>
	<polygon class="st6" points="115.8,256.5 115.8,230.8 82.2,243.6 	"/>
	<polygon class="st6" points="99.4,294.6 110.7,276.5 81.2,247.2 	"/>
</g>
<g>
	<rect x="185" y="157.4" class="st7" width="94.2" height="98.8"/>
	<rect x="185" y="157.4" class="st8" width="94.2" height="32.9"/>
	<rect x="185" y="190.3" class="st9" width="94.2" height="32.9"/>
	<rect x="54.4" y="157.4" class="st9" width="130.7" height="98.8"/>
	<rect x="54.4" y="157.4" class="st10" width="130.7" height="32.9"/>
	<rect x="54.4" y="190.3" class="st8" width="130.7" height="32.9"/>
</g>
<g>
	<path class="st11" d="M164.6,168.4H143c0.2,0.5,0.3,1.1,0.3,1.6v7.7c0,0.6-0.1,1.1-0.3,1.6h21.6V168.4z"/>
	<path class="st12" d="M143,168.4c-0.4-1.2-1.5-2-2.7-2.1H39.8c-1.7,0-3,1.6-3,3.7v7.7c0,2,1.4,3.7,3,3.7h100.5c1.2,0,2.3-0.8,2.7-2
		c0.2-0.5,0.3-1.1,0.3-1.6V170C143.3,169.5,143.2,168.9,143,168.4z"/>
</g>
<g>
	<rect x="250.5" y="228.5" class="st13" width="5.8" height="30.2"/>
	<path class="st4" d="M202.3,243.7c0,36.2,18.2,65.5,40.7,65.5s40.7-29.3,40.7-65.5s-18.2-65.5-40.7-65.5S202.3,207.5,202.3,243.7z"
		/>
	<path class="st5" d="M210.3,243.7c0,36.2,18.2,65.5,40.7,65.5s40.7-29.3,40.7-65.5s-18.2-65.5-40.7-65.5S210.3,207.5,210.3,243.7z"
		/>
	<polygon class="st6" points="243,303 259,303 251,248.8 	"/>
	<polygon class="st6" points="219.3,276.5 230.6,294.7 248.8,247.3 	"/>
	<polygon class="st6" points="214.1,230.8 214.1,256.5 247.8,243.7 	"/>
	<polygon class="st6" points="230.6,192.6 219.3,210.8 248.8,240.1 	"/>
	<polygon class="st6" points="259,184.4 243,184.4 251,238.6 	"/>
	<polygon class="st6" points="282.7,210.8 271.4,192.6 253.2,240.1 	"/>
	<polygon class="st6" points="287.9,256.5 287.9,230.8 254.2,243.7 	"/>
	<polygon class="st6" points="271.4,294.7 282.7,276.5 253.2,247.3 	"/>
	<path class="st13" d="M241.1,243.6c0,8.3,4.2,15.1,9.4,15.1s9.4-6.8,9.4-15.1s-4.2-15.1-9.4-15.1S241.1,235.3,241.1,243.6z"/>
	<path class="st14" d="M247,243.6c0,8.3,4.2,15.1,9.4,15.1c5.2,0,9.4-6.8,9.4-15.1s-4.2-15.1-9.4-15.1S247,235.3,247,243.6z"/>
	<path class="st15" d="M256.3,249.3c2,0,3.5-2.6,3.5-5.7s-1.6-5.7-3.5-5.7s-3.5,2.6-3.5,5.7S254.4,249.3,256.3,249.3z"/>
</g>
</svg>
