<?xml version="1.0" encoding="utf-8"?>
<!-- Generator: Adobe Illustrator 24.1.1, SVG Export Plug-In . SVG Version: 6.00 Build 0)  -->
<svg version="1.1" id="Layer_1" xmlns="http://www.w3.org/2000/svg" xmlns:xlink="http://www.w3.org/1999/xlink" x="0px" y="0px"
	 viewBox="0 0 960 540" style="enable-background:new 0 0 960 540;" xml:space="preserve">
<rect x="0" y="0.01" style="fill:#FFAB92;" width="960" height="540"/>
<rect x="311.93" y="43.18" style="fill:#FFF7DC;" width="599.53" height="453.63"/>
<path style="fill:#FFF7DC;" d="M937.09,519.46H22.91V20.54h914.18V519.46z M23.91,518.46h912.18V21.54H23.91V518.46z"/>
<g>
	<rect x="45.68" y="111.23" style="fill:#FFF7DC;" width="234.05" height="4.07"/>
	<rect x="45.68" y="47.26" style="fill:#FFF7DC;" width="234.05" height="4.08"/>
	<g>
		<path style="fill:#FFF7DC;" d="M58.32,66.62V64.9h26.45l0.68,11.26h-1.54c-0.6-3.35-1.52-5.77-2.76-7.28
			c-1.24-1.51-2.97-2.26-5.2-2.26h-6.56c-1.09,0-1.63,0.56-1.63,1.67v11.89h2.89c1.66,0,2.95-0.56,3.89-1.67
			c0.93-1.11,1.4-2.79,1.4-5.02h1.58V89h-1.58c0-4.76-1.84-7.14-5.52-7.14h-2.67V95.1c0,0.99,0.71,1.49,2.13,1.49h5.2
			c5.64,0,8.86-3.57,9.68-10.72h1.63l-0.54,12.43H58.32V96.6h2.26c1.63,0,2.44-0.6,2.44-1.81V68.29c0-1.11-0.66-1.67-1.99-1.67
			H58.32z"/>
		<path style="fill:#FFF7DC;" d="M97.79,66.62V64.9h8.05l20.12,26.22V72.14c0-3.71-1.64-5.56-4.93-5.56V64.9h11.75v1.72h-0.45
			c-1.39,0-2.47,0.45-3.26,1.36c-0.78,0.9-1.18,2.16-1.18,3.75v26.58h-2.13l-20.89-27.31v20.12c0,3.65,1.88,5.47,5.65,5.47v1.72
			H97.79V96.6c1.54,0,2.79-0.48,3.75-1.45c0.96-0.96,1.45-2.22,1.45-3.75V68.75c-0.93-0.96-1.42-1.46-1.45-1.49
			c-0.54-0.42-1.28-0.63-2.22-0.63H97.79z"/>
		<path style="fill:#FFF7DC;" d="M143.58,77.52l0.77-12.61h27.13l0.63,12.61h-1.58c-0.99-7.47-3.68-11.21-8.05-11.21
			c-0.78,0-1.35,0.14-1.7,0.43c-0.35,0.29-0.52,0.81-0.52,1.56v26.72c0,1.06,0.66,1.58,1.99,1.58h3.39v1.72h-15.55V96.6h3.84
			c1.02,0,1.54-0.47,1.54-1.4V68.07c0-1.15-0.72-1.72-2.17-1.72c-4.28,0-6.96,3.72-8.05,11.17H143.58z"/>
		<path style="fill:#FFF7DC;" d="M192.82,81.95v13.07c0,1.06,0.59,1.58,1.76,1.58h3.57v1.72H182.6V96.6h3.3
			c1.42,0,2.12-0.53,2.12-1.58V68.29c0-0.63-0.16-1.07-0.47-1.31c-0.32-0.24-0.87-0.36-1.65-0.36h-3.3V64.9h17.27
			c3.32,0,5.91,0.74,7.78,2.22c1.87,1.48,2.8,3.48,2.8,6.01c0,2.05-0.69,3.77-2.08,5.15c-0.99,0.99-2.23,1.72-3.71,2.17
			c-1.06,0.33-2.71,0.62-4.97,0.86c2.08,0.57,3.57,1.18,4.48,1.81c1.36,0.93,2.25,2.25,2.67,3.93c1.42,5.73,2.65,8.59,3.71,8.59
			c0.57,0,1.05-0.42,1.42-1.27c0.38-0.84,0.56-1.99,0.56-3.44h1.54c0,5.15-1.9,7.73-5.7,7.73c-1.63,0-2.93-0.59-3.91-1.76
			c-0.98-1.18-1.47-2.85-1.47-5.02c0-3.47-0.48-5.94-1.45-7.41c-1.12-1.69-3.12-2.53-6.01-2.53H192.82z M192.82,68.25v11.98h3.98
			c2.95,0,5.1-0.53,6.44-1.6c1.34-1.07,2.01-2.81,2.01-5.22c0-2.92-0.78-4.85-2.35-5.79c-1.12-0.66-3.18-0.99-6.19-0.99
			c-1.36,0-2.14,0.02-2.35,0.05C193.33,66.82,192.82,67.34,192.82,68.25z"/>
		<path style="fill:#FFF7DC;" d="M224.78,66.58V64.9h14.65v1.72h-2.4c-1.66,0-2.49,0.39-2.49,1.18c0,0.39,0.12,0.74,0.36,1.04
			l8.5,13.2l6.06-11.26c0.27-0.6,0.41-1.15,0.41-1.63c0-1.69-0.98-2.53-2.94-2.53h-1.54V64.9h12.75v1.67
			c-1.51,0-2.68,0.26-3.53,0.79c-0.84,0.53-1.64,1.48-2.4,2.87l-7.64,14.15v10.53c0,1.12,0.78,1.67,2.35,1.67h2.85v1.72h-15.33V96.6
			h3.03c1.54,0,2.31-0.56,2.31-1.67V84.66l-10.35-16.14c-0.51-0.75-1.12-1.27-1.81-1.54C226.94,66.71,225.99,66.58,224.78,66.58z"/>
	</g>
</g>
</svg>
