<?xml version="1.0" encoding="utf-8"?>
<!-- Generator: Adobe Illustrator 24.1.1, SVG Export Plug-In . SVG Version: 6.00 Build 0)  -->
<svg version="1.1" id="Layer_1" xmlns="http://www.w3.org/2000/svg" xmlns:xlink="http://www.w3.org/1999/xlink" x="0px" y="0px"
	 viewBox="0 0 180 240" style="enable-background:new 0 0 180 240;" xml:space="preserve">
<g>
	<path style="fill:#FFFFFF;" d="M79.37,51.27c-0.57,0.43-1.1,0.59-1.64,0.59c-2.77,0-5.22-4.77-6.84-6.35
		c-1.21-1.18-2.56-1.67-3.96-1.67c-2.32,0-4.74,1.29-6.79,2.88c0,0.03-2.15,1.86-2.96,2.67v0.03c-1.37,1.43-3.23,2.15-5.06,2.15
		c-1.72,0-3.47-0.62-4.82-1.94c-1.75-1.67-2.45-4.04-2.1-6.25c0.22-1.35,0.83-2.61,1.83-3.69c0.22-0.24,0.83-0.86,1.78-1.72
		c2.91-2.72,6.3-5.01,10.15-6.17c1.8-0.54,3.53-0.81,5.17-0.81c1.48,0,2.93,0.22,4.36,0.62c1.43,0.43,2.85,1.05,4.34,1.86
		c1.21,0.67,2.34,1.53,3.42,2.42C79.66,38.72,84.05,47.69,79.37,51.27z"/>
	<path d="M78.32,33.39c-1.45-1.18-2.69-2.07-3.93-2.75c-1.72-0.94-3.37-1.64-5.01-2.13c-1.75-0.51-3.47-0.75-5.25-0.75
		c-1.99,0-3.99,0.3-6.11,0.94c-3.96,1.21-7.81,3.53-11.42,6.92c-0.92,0.81-1.59,1.51-1.91,1.83c-1.16,1.24-1.99,2.72-2.42,4.31
		c-0.11,0.35-0.19,0.73-0.24,1.1c-0.54,3.34,0.59,6.73,3.04,9.1c1.91,1.83,4.42,2.83,7.05,2.83c2.77,0,5.47-1.16,7.4-3.18
		c0.27-0.27,0.78-0.73,1.32-1.21c0.83-0.67,1.72-1.4,1.83-1.53c1.62-1.16,3.12-1.8,4.25-1.8c0.65,0,1.18,0.24,1.7,0.75
		c0.27,0.27,0.78,0.94,1.24,1.56c1.8,2.4,4.25,5.71,7.86,5.71c1.27,0,2.5-0.43,3.58-1.24c2.13-1.62,3.26-4.01,3.34-6.92
		C84.75,41.93,81.44,36,78.32,33.39z M79.37,51.27c-0.57,0.43-1.1,0.59-1.64,0.59c-2.77,0-5.22-4.77-6.84-6.35
		c-1.21-1.18-2.56-1.67-3.96-1.67c-2.32,0-4.74,1.29-6.79,2.88c0,0.03-2.15,1.86-2.96,2.67v0.03c-1.37,1.43-3.23,2.15-5.06,2.15
		c-1.72,0-3.47-0.62-4.82-1.94c-1.75-1.67-2.45-4.04-2.1-6.25c0.22-1.35,0.83-2.61,1.83-3.69c0.22-0.24,0.83-0.86,1.78-1.72
		c1.18-1.1,2.45-2.15,3.8-3.07c1.97-1.32,4.07-2.42,6.35-3.1c1.8-0.54,3.53-0.81,5.17-0.81c1.48,0,2.93,0.22,4.36,0.62
		c1.43,0.43,2.85,1.05,4.34,1.86c1.21,0.67,2.34,1.53,3.42,2.42C79.66,38.72,84.05,47.69,79.37,51.27z"/>
	<path style="fill:#673101;" d="M60.14,46.72c0,0.03-2.15,1.86-2.96,2.67v0.03c-1.37,1.43-3.23,2.15-5.06,2.15
		c-1.72,0-3.47-0.62-4.82-1.94c-1.75-1.67-2.45-4.04-2.1-6.25c0.22-1.35,0.83-2.61,1.83-3.69c0.22-0.24,0.83-0.86,1.78-1.72
		c1.18-1.1,2.45-2.15,3.8-3.07c0.13,0,0.24,0.03,0.35,0.05c0.03,0,0.03,0,0.05,0c0.03,0,0.03,0.03,0.05,0.03
		c1.08,0.3,1.56,1.13,1.56,1.13v0.03c0.43,0.65,0.59,1.45,0.4,2.26c-0.19,0.67-0.59,1.18-1.13,1.56c0.59-0.3,1.29-0.43,1.99-0.24
		c1.48,0.4,2.4,1.94,1.99,3.45c-0.19,0.73-0.65,1.32-1.27,1.7c0.48-0.16,1.05-0.24,1.59-0.11C59.2,45.02,59.87,45.8,60.14,46.72z"/>
</g>
<g>
	<path style="fill:#FFFFFF;" d="M131.16,49.63c-1.35,1.32-3.1,1.94-4.82,1.94c-1.86,0-3.69-0.73-5.06-2.15c0,0,0-0.03-0.03-0.03
		c-0.78-0.81-2.93-2.64-2.93-2.67c-2.07-1.59-4.47-2.88-6.79-2.88c-1.4,0-2.75,0.48-3.96,1.67c-1.62,1.59-4.07,6.35-6.84,6.35
		c-0.54,0-1.08-0.16-1.64-0.59c-4.71-3.58-0.3-12.55,3.12-15.38c1.08-0.89,2.21-1.75,3.42-2.42c1.48-0.81,2.91-1.43,4.34-1.86
		c1.43-0.4,2.88-0.62,4.36-0.62c1.64,0,3.37,0.27,5.17,0.81c3.85,1.16,7.24,3.45,10.15,6.17c0.94,0.86,1.56,1.48,1.78,1.72
		c1,1.08,1.59,2.34,1.83,3.69C133.61,45.59,132.91,47.96,131.16,49.63z"/>
	<path d="M136.43,42.84c-0.32-1.99-1.24-3.85-2.64-5.36c-0.35-0.35-1.02-1.05-1.97-1.91c-0.35-0.32-0.7-0.65-1.05-0.94
		c-3.29-2.83-6.76-4.82-10.34-5.92c-2.13-0.65-4.12-0.94-6.11-0.94c-1.78,0-3.5,0.24-5.28,0.75c-1.62,0.48-3.26,1.18-4.98,2.13
		c-1.24,0.67-2.48,1.56-3.93,2.75c-3.12,2.61-6.44,8.54-6.33,13.54c0.05,2.91,1.21,5.3,3.34,6.92c1.08,0.81,2.32,1.24,3.58,1.24
		c3.61,0,6.06-3.31,7.86-5.71c0.46-0.62,0.94-1.29,1.24-1.56c0.51-0.51,1.05-0.75,1.7-0.75c1.13,0,2.64,0.65,4.25,1.8
		c0.16,0.22,2.37,1.97,3.1,2.69c0.03,0.03,0.03,0.03,0.05,0.05c1.91,2.02,4.63,3.18,7.4,3.18c2.64,0,5.14-1,7.05-2.83
		C135.84,49.6,136.97,46.21,136.43,42.84z M131.16,49.63c-1.35,1.32-3.1,1.94-4.82,1.94c-1.86,0-3.69-0.73-5.06-2.15
		c0,0,0-0.03-0.03-0.03c-0.78-0.81-2.93-2.64-2.93-2.67c-2.07-1.59-4.47-2.88-6.79-2.88c-1.4,0-2.75,0.48-3.96,1.67
		c-1.62,1.59-4.07,6.35-6.84,6.35c-0.54,0-1.08-0.16-1.64-0.59c-4.71-3.58-0.3-12.55,3.12-15.38c1.08-0.89,2.21-1.75,3.42-2.42
		c1.48-0.81,2.91-1.43,4.34-1.86c1.43-0.4,2.88-0.62,4.36-0.62c1.64,0,3.37,0.27,5.17,0.81c2.29,0.67,4.39,1.78,6.35,3.12h0.03
		c1.35,0.92,2.58,1.94,3.77,3.04c0.94,0.86,1.56,1.48,1.78,1.72c1,1.08,1.59,2.34,1.83,3.69C133.61,45.59,132.91,47.96,131.16,49.63
		z"/>
	<path style="fill:#673101;" d="M131.16,49.63c-1.35,1.32-3.1,1.94-4.82,1.94c-1.86,0-3.69-0.73-5.06-2.15c0,0,0-0.03-0.03-0.03
		c-0.78-0.81-2.93-2.64-2.93-2.67c0.27-0.92,0.94-1.7,1.94-1.97c0.54-0.13,1.08-0.05,1.59,0.11c-0.62-0.38-1.08-0.97-1.27-1.7
		c-0.4-1.51,0.51-3.04,1.99-3.45c0.7-0.19,1.37-0.05,1.99,0.24c-0.54-0.38-0.94-0.89-1.13-1.56c-0.24-0.97,0.05-1.97,0.7-2.64
		c0.78-0.78,1.59-0.83,1.72-0.83h0.03c1.35,0.92,2.58,1.94,3.77,3.04c0.94,0.86,1.56,1.48,1.78,1.72c1,1.08,1.59,2.34,1.83,3.69
		C133.61,45.59,132.91,47.96,131.16,49.63z"/>
</g>
<g>
	<path style="fill:#FFFFFF;" d="M107.27,171.41v31.91c0,0-2.37,0.59-5.52,0.59s-5.52-0.59-5.52-0.59v-31.91
		c0-2.13,5.14-3.82,7.24-3.82C105.58,167.59,107.27,169.28,107.27,171.41z"/>
	<path style="fill-rule:evenodd;clip-rule:evenodd;fill:#009FF9;" d="M122.3,233.53c-2.13,2.42-5.22,2.72-8.24,2.72
		c-1,0-1.97-0.03-2.91-0.03h-9.21l-0.94-0.11c-2.13-0.38-4.77-1.99-4.77-3.9v-28.89c0,0,2.37,0.59,5.52,0.59s5.52-0.59,5.52-0.59
		v12.14h0.24c0.3,0,0.62,0,0.94,0.03c0.22,0,0.43,0.03,0.65,0.05c0.54,0.05,1.13,0.11,1.78,0.24c0.05,0.03,0.27,0.05,0.27,0.05
		c4.85,1.05,9.05,4.31,11.31,8.72C123.67,226.96,124.21,231.35,122.3,233.53z"/>
	<path d="M125.34,223.11c-2.69-5.28-7.73-9.15-13.52-10.42l-0.19-0.05c-0.4-0.05-0.75-0.13-1.13-0.19v-41.04
		c0-3.9-3.15-7.05-7.03-7.05c-2.21,0-10.47,1.75-10.47,7.05v60.8c0,3.72,3.82,6.44,7.43,7.08c0.08,0.03,0.16,0.03,0.24,0.05
		l0.94,0.08c0.11,0.03,0.22,0.03,0.32,0.03h9.21c0.43,0,0.89,0,1.35,0.03h1.56c3.61,0,7.73-0.46,10.66-3.82
		C127.76,232.18,126.9,226.21,125.34,223.11z M122.3,233.53c-2.13,2.42-5.22,2.72-8.24,2.72c-1,0-1.97-0.03-2.91-0.03h-9.21
		l-0.94-0.11c-2.13-0.38-4.77-1.99-4.77-3.9v-60.8c0-2.13,5.14-3.82,7.24-3.82c2.1,0,3.8,1.7,3.8,3.82v44.05h0.24
		c0.3,0,0.62,0,0.94,0.03c0.19,0,0.43,0.03,0.65,0.05c0.54,0.05,1.13,0.11,1.78,0.24c0.05,0.03,0.27,0.05,0.27,0.05
		c4.85,1.05,9.05,4.31,11.31,8.72C123.67,226.96,124.21,231.35,122.3,233.53z"/>
</g>
<g>
	<path style="fill:#FFFFFF;" d="M80.08,200.33c0,0-0.03,0.03-0.11,0.03c-0.46,0.19-2.56,0.94-5.28,1.32
		c-3.12,0.4-5.55,0.13-5.55,0.13l-4.31-31.61c-0.3-2.1,1.18-4.01,3.26-4.28c2.1-0.3,7.4,0.7,7.67,2.8L80.08,200.33z"/>
	<path style="fill-rule:evenodd;clip-rule:evenodd;fill:#009FF9;" d="M83.98,228.98c0.27,1.88-2.13,3.82-4.2,4.5l-0.86,0.24h-0.05
		l-0.73,0.08l-8.37,1.16c-0.48,0.05-0.94,0.13-1.43,0.22c-0.97,0.13-1.97,0.27-2.96,0.38c-0.51,0.03-1,0.05-1.51,0.05
		c-0.01,0-0.01,0-0.02,0c-0.74,0-1.47-0.04-2.19-0.19c-0.46-0.11-0.94-0.24-1.37-0.43c-0.46-0.19-0.89-0.4-1.32-0.7
		c-0.22-0.16-0.4-0.32-0.62-0.48c-2.18-1.91-2.23-6.33-1.37-8.86c1.64-4.69,5.39-8.48,10.02-10.18c0,0,0.22-0.08,0.27-0.11
		c1.32-0.43,2.48-0.67,3.53-0.78l-1.64-12.06c0,0,2.42,0.27,5.55-0.13c2.72-0.38,4.82-1.13,5.28-1.32c0.08,0,0.11-0.03,0.11-0.03
		L83.98,228.98z"/>
	<path d="M76.14,234.07l-2.56,0.35l-3.82,0.54l8.37-1.16L76.14,234.07z M63.85,235.6c-0.75,0-1.47-0.05-2.19-0.19
		C62.38,235.56,63.11,235.6,63.85,235.6z M63.87,235.61c0.51,0,1-0.03,1.51-0.05c-0.51,0.04-1.02,0.05-1.53,0.05
		C63.85,235.6,63.86,235.61,63.87,235.61z"/>
	<path d="M87.18,228.53l-4.39-32.26l-3.82-28c-0.62-4.63-7.49-5.63-10.07-5.63c-0.46,0-0.89,0.03-1.24,0.08
		c-1.86,0.24-3.53,1.21-4.66,2.69c-1.13,1.51-1.64,3.37-1.37,5.22l3.82,28l0.48,3.61l1.24,9.07c-0.32,0.08-0.65,0.19-0.97,0.3
		l-0.35,0.13c-5.52,1.99-9.99,6.54-11.93,12.12c-1.16,3.31-1.18,9.32,2.29,12.36c2.02,1.78,4.52,2.61,7.65,2.61
		c1.75,0,3.47-0.24,4.98-0.48c0.46-0.08,0.92-0.13,1.35-0.19l3.82-0.54l2.56-0.35l2.72-0.38c0.11,0,0.22-0.03,0.32-0.05l0.92-0.22
		c0.08-0.03,0.16-0.05,0.24-0.08C84.28,235.42,87.7,232.21,87.18,228.53z M79.78,233.48l-0.86,0.24h-0.05l-0.73,0.08l-8.37,1.16
		c-0.48,0.05-0.94,0.13-1.43,0.22c-0.97,0.13-1.97,0.3-2.96,0.38c-1.27,0.11-2.5,0.11-3.72-0.13c-0.46-0.11-0.94-0.24-1.37-0.43
		c-0.46-0.19-0.89-0.4-1.32-0.7c-0.22-0.16-0.4-0.32-0.62-0.48c-2.18-1.91-2.23-6.33-1.37-8.86c1.64-4.69,5.39-8.48,10.02-10.18
		c0,0,0.22-0.08,0.27-0.11c1.32-0.43,2.48-0.67,3.53-0.78l-1.64-12.06l-0.51-3.61l-3.8-28c-0.3-2.1,1.18-4.01,3.26-4.28
		c0.24-0.05,0.51-0.05,0.81-0.05c2.4,0,6.62,1,6.87,2.85l3.82,27.98l0.48,3.64l3.9,28.65C84.25,230.87,81.85,232.81,79.78,233.48z"
		/>
</g>
<g>
	<path style="fill:#FFFFFF;" d="M45.18,139.63c-0.92,2.23-1.59,4.5-1.99,6.79c-3.88,1.05-8.54-0.16-11.07-1.56
		c1.59-6.27,4.98-12.31,10.66-17.69c1.27-1.21,3.15-3.31,5.2-3.42C55.63,123.4,46.15,137.29,45.18,139.63z"/>
	<path style="fill:#0088C5;" d="M41.3,171.51c-0.59,0.08-1.24,0.11-1.91,0.05c-1.45-0.08-2.96-0.43-3.85-1.1
		c-4.2-3.12-4.36-8.67-4.63-13.03c-0.13-2.26-0.08-4.55,0.16-6.81c0.05-0.51,0.67-5.95,1.05-5.76c2.53,1.4,7.19,2.61,11.07,1.56
		c0.4-0.11,0.81-0.24,1.18-0.4c-0.59,0.24-1.45,4.74-1.51,5.3c-0.27,4.55,1.24,8.13,2.56,12.36
		C46.42,166.86,46.77,170.87,41.3,171.51z"/>
	<path d="M48.25,123.74c7.13,0-2.11,13.58-3.07,15.89c-1.18,2.84-1.9,5.73-2.28,8.65c-0.04,1.36-0.01,2.76-0.03,3.03
		c-0.29,4.56,1.24,8.13,2.55,12.36c0.98,3.17,1.33,7.2-4.13,7.85c-0.38,0.04-0.8,0.07-1.22,0.07c-0.22,0-0.45-0.01-0.68-0.02
		c-1.45-0.08-2.94-0.43-3.85-1.11c-4.19-3.12-4.36-8.68-4.62-13.04c-0.14-2.26-0.1-4.54,0.14-6.82c0.05-0.51,0.61-5.7,1.06-5.74
		c0.01,0,0.01,0,0.02,0c1.6-6.28,4.95-12.32,10.64-17.71c1.27-1.2,3.15-3.32,5.2-3.41C48.07,123.74,48.16,123.74,48.25,123.74
		 M48.25,120.51c-0.14,0-0.28,0-0.43,0.01c-3.02,0.14-5.29,2.37-6.8,3.84l-0.47,0.46c-5.62,5.32-9.44,11.55-11.36,18.53
		c-0.77,1.43-1.02,3.75-1.36,6.91c-0.26,2.41-0.31,4.88-0.16,7.37l0.03,0.5c0.28,4.66,0.66,11.03,5.89,14.94
		c1.71,1.27,3.98,1.65,5.6,1.74c0.29,0.02,0.58,0.02,0.86,0.02c0.55,0,1.09-0.03,1.6-0.09c2.95-0.35,5.1-1.52,6.38-3.5
		c1.41-2.17,1.56-4.96,0.46-8.52c-0.23-0.73-0.46-1.43-0.68-2.13c-1.04-3.17-1.93-5.9-1.73-9.07c0.01-0.14,0.01-0.49,0.01-0.97
		c0-0.53,0-1.27,0.02-2.01c0.36-2.7,1.05-5.28,2.04-7.66c0.11-0.26,0.61-1.14,1.02-1.86c3.49-6.17,6.43-12.02,4.2-15.84
		C52.81,122.18,51.37,120.51,48.25,120.51L48.25,120.51z"/>
</g>
<g>
	<path style="fill-rule:evenodd;clip-rule:evenodd;fill:#009FF9;" d="M134.82,149.68c0.43,8.05-1.56,19.87-6.92,26.79
		c-6.33,8.16-17.88,13.49-31.67,14.62c-1.64,0.13-3.45,0.22-5.17,0.22l-1.83-0.03l-1.83,0.03c-1.72,0-3.53-0.08-5.17-0.22
		c-13.79-1.13-25.34-6.46-31.67-14.62c-5.36-6.92-7.35-18.74-6.92-26.79c0.24-4.5,1.21-9.07,2.18-13.46c0.48-2.26,1-4.52,1.37-6.79
		c0.46-2.5,0.19-7.19,0.16-7.43c-0.32-3.53-1.37-6.79-2.34-9.53c-3.88-10.82-4.52-20.95-2.07-31.85
		c2.23-9.86,6.92-18.23,12.82-22.94c9.88-7.86,21.33-12.39,31.45-12.39h4.04c10.12,0,21.57,4.52,31.42,12.39
		c5.92,4.71,10.61,13.09,12.82,22.94c2.48,10.91,1.83,21.03-2.05,31.85c-1,2.75-2.02,6-2.34,9.59c-0.03,0.19-0.3,4.87,0.13,7.38
		c0.4,2.29,0.92,4.52,1.4,6.79C133.58,140.63,134.57,145.18,134.82,149.68z"/>
	<path style="fill-rule:evenodd;clip-rule:evenodd;fill:#FFFFFF;" d="M95.04,50.84c4.35,0.57,8.61,1.73,12.49,3.38
		c6.34,2.69,13.73,7.02,17.14,13.09c1.51,2.68,2.53,5.63,3.12,8.64c0.45,2.28-0.11,5.48,1.26,7.44c2.78,3.97,3.41,6.21,4.18,11.16
		c0.72,4.66,0.32,9.64-1.66,13.96c-5.14,11.25-17.56,15.99-28.94,16.35c-1.57,0.05-3.18,0.09-4.77,0.14
		c-7.39,0.23-14.67,0.09-22.06-0.14c-11.37-0.36-23.8-5.1-28.94-16.35c-1.97-4.32-2.38-9.3-1.66-13.96
		c0.76-4.95,1.4-7.19,4.18-11.16c1.37-1.96,0.81-5.16,1.26-7.44c0.59-3.02,1.62-5.96,3.12-8.64c3.41-6.07,9.09-10.4,15.43-13.09
		c2.57-1.09,5.24-1.93,7.96-2.56C82.49,50.44,89.62,50.13,95.04,50.84z"/>
	<path style="fill-rule:evenodd;clip-rule:evenodd;fill:#FDBDB8;" d="M72.04,96.31c0,6.63-5.33,12-11.91,12s-11.9-5.37-11.9-12
		c0-6.62,5.33-11.99,11.9-11.99S72.04,89.69,72.04,96.31"/>
	<path style="fill-rule:evenodd;clip-rule:evenodd;fill:#FDBDB8;" d="M130.23,96.31c0,6.63-5.33,12-11.91,12
		c-6.57,0-11.9-5.37-11.9-12c0-6.62,5.33-11.99,11.9-11.99C124.89,84.32,130.23,89.69,130.23,96.31"/>
	<path d="M135.79,135.54c-0.48-2.23-0.97-4.44-1.35-6.68c-0.32-1.75-0.19-5.39-0.13-6.57c0.3-3.18,1.27-6.19,2.18-8.75
		c4.04-11.28,4.74-22.27,2.15-33.66c-2.37-10.56-7.46-19.58-13.95-24.75c-10.42-8.32-22.59-13.09-33.44-13.09h-4.04
		c-10.85,0-23.02,4.77-33.47,13.09c-6.46,5.17-11.55,14.19-13.95,24.75c-2.56,11.39-1.86,22.38,2.18,33.66
		c0.92,2.56,1.88,5.57,2.15,8.7c0.08,1.24,0.22,4.87-0.11,6.62c-0.38,2.23-0.86,4.44-1.35,6.65c-1,4.52-2.02,9.21-2.26,14
		c-0.46,8.91,1.7,21.3,7.59,28.92c6.89,8.89,19.25,14.68,33.95,15.89c1.75,0.13,3.61,0.22,5.44,0.22l1.83-0.03l1.83,0.03
		c1.8,0,3.69-0.08,5.44-0.22c14.67-1.21,27.06-7,33.95-15.89c5.9-7.62,8.05-20.01,7.59-28.92
		C137.81,144.75,136.78,140.06,135.79,135.54z M91.06,191.3l-1.83-0.03l-1.83,0.03c-1.72,0-3.53-0.08-5.17-0.22
		c-13.79-1.13-25.34-6.46-31.67-14.62c-5.36-6.92-7.35-18.74-6.92-26.79c0.24-4.5,1.21-9.07,2.18-13.46c0.48-2.26,1-4.52,1.37-6.79
		c0.46-2.5,0.19-7.19,0.16-7.43c-0.32-3.53-1.37-6.79-2.34-9.53c-3.88-10.82-4.52-20.95-2.07-31.85
		c2.23-9.86,6.92-18.23,12.82-22.94c9.88-7.86,21.33-12.39,31.45-12.39h4.04c10.12,0,21.57,4.52,31.42,12.39
		c5.92,4.71,10.61,13.09,12.82,22.94c2.48,10.91,1.83,21.03-2.05,31.85c-1,2.75-2.02,6-2.34,9.59c-0.03,0.19-0.3,4.87,0.13,7.38
		c0.4,2.29,0.92,4.52,1.4,6.79c0.94,4.42,1.94,8.97,2.18,13.46c0.43,8.05-1.56,19.87-6.92,26.79c-6.33,8.16-17.88,13.49-31.67,14.62
		C94.59,191.22,92.78,191.3,91.06,191.3z"/>
</g>
<g>
	<path style="fill-rule:evenodd;clip-rule:evenodd;" d="M91.28,92.46c0,0.86-0.91,1.56-2.05,1.56s-2.06-0.7-2.06-1.56
		c0-0.86,0.92-1.56,2.06-1.56S91.28,91.6,91.28,92.46"/>
	<path style="fill-rule:evenodd;clip-rule:evenodd;" d="M101.03,90.59L101.03,90.59c-1.54,0-2.79-1.16-2.79-2.59v-0.36
		c0-1.43,1.25-2.59,2.79-2.59s2.79,1.16,2.79,2.59V88C103.82,89.43,102.57,90.59,101.03,90.59"/>
	<path style="fill-rule:evenodd;clip-rule:evenodd;" d="M77.42,90.59L77.42,90.59c-1.54,0-2.79-1.16-2.79-2.59v-0.36
		c0-1.43,1.25-2.59,2.79-2.59s2.79,1.16,2.79,2.59V88C80.21,89.43,78.96,90.59,77.42,90.59"/>
	<path style="fill:#231815;" d="M96.35,102.4c-2.6,0-5.19-0.77-7.12-2.04c-3.59,2.35-9.37,3-13.38,0.21
		c-1.17-0.81-2.6-2.09-2.75-3.56c-0.07-0.71,0.16-1.39,0.65-1.91c0.62-0.64,1.64-0.67,2.29-0.06c0.49,0.46,0.62,1.16,0.39,1.75
		c0.22,0.28,0.67,0.71,1.26,1.12c3.06,2.13,8.06,1.33,10.48-0.79c0.61-0.54,1.52-0.53,2.13,0c2.42,2.13,7.42,2.92,10.47,0.79
		c0.59-0.41,1.04-0.84,1.26-1.12c-0.23-0.59-0.09-1.29,0.39-1.75c0.64-0.62,1.67-0.6,2.28,0.05c0.5,0.52,0.73,1.2,0.66,1.91
		c-0.15,1.47-1.58,2.75-2.75,3.56C100.77,101.84,98.55,102.4,96.35,102.4z M102.37,97.32h0.03H102.37z"/>
</g>
<g>
	<path d="M134.8,122.18c0.38,0,0.81,0.06,1.3,0.2c2.12,0.59,3.69,3.25,4.78,4.8c4.93,6.97,7.28,14.04,7.75,20.94
		c0.02,0.01,0.05,0.02,0.08,0.02c0.47,0.16,0.08,5.68,0.04,6.22c-0.17,2.42-0.55,4.8-1.12,7.11c-1.09,4.46-2.3,10.19-7.25,12.42
		c-0.61,0.28-1.41,0.4-2.27,0.4c-0.63,0-1.3-0.06-1.95-0.18c-0.7-0.12-1.38-0.3-1.98-0.51c-6.05-2.16-4.49-6.1-2.43-9.17
		c2.67-3.98,4.25-8.18,4.85-12.78c0.06-0.47,0.11-0.95,0.15-1.42c0.03-0.34,0.06-0.69,0.08-1.03c0.04-0.86,0.06-1.74,0.04-2.61
		c0-0.13,0-0.26,0-0.39c-0.07-2.19-0.33-4.41-0.81-6.65C135.52,137.05,129.07,122.18,134.8,122.18 M134.8,118.95
		c-1.83,0-3.39,0.77-4.39,2.18c-2.52,3.53-0.69,9.74,1.77,16.89c0.29,0.86,0.66,1.92,0.72,2.22c0.43,1.98,0.68,4.02,0.74,6.06
		l0,0.36c0.01,0.78,0,1.58-0.04,2.38c-0.02,0.31-0.04,0.62-0.07,0.93c-0.04,0.46-0.09,0.89-0.14,1.32
		c-0.53,4.08-1.95,7.81-4.32,11.36c-0.81,1.21-3.27,4.89-2.03,8.66c0.79,2.4,2.83,4.21,6.06,5.36c0.78,0.28,1.64,0.5,2.51,0.65
		c0.86,0.15,1.7,0.22,2.5,0.22c1.39,0,2.6-0.23,3.6-0.68c6.2-2.8,7.78-9.33,8.94-14.1l0.12-0.5c0.62-2.55,1.02-5.12,1.2-7.65
		c0.25-3.47,0.42-5.96-0.19-7.57c-0.68-7.62-3.46-14.92-8.26-21.71l-0.41-0.59c-1.26-1.84-3.16-4.62-6.14-5.45
		C136.21,119.06,135.48,118.95,134.8,118.95L134.8,118.95z"/>
	<path style="fill:#FFFFFF;" d="M148.66,148.11c-3.04-0.97-7.27-1.99-11.79-1.99c-0.05-2.15-0.32-4.36-0.81-6.57
		c-0.57-2.67-7.86-19.39,0.05-17.18c2.1,0.59,3.69,3.26,4.77,4.82C145.8,134.17,148.17,141.22,148.66,148.11z"/>
	<path style="fill:#0088C5;" d="M148.74,154.39c-0.16,2.4-0.54,4.79-1.1,7.11c-1.08,4.44-2.29,10.18-7.24,12.41
		c-1.08,0.48-2.69,0.48-4.23,0.22c-0.7-0.11-1.37-0.3-1.97-0.51c-6.06-2.15-4.5-6.09-2.45-9.16c2.61-3.9,4.2-7.97,4.82-12.41
		c0.08-0.46,0.13-0.92,0.13-1.37c0.16-1.48,0.22-2.99,0.16-4.55c4.52,0,8.75,1.02,11.79,1.99c0.03,0.03,0.03,0.03,0.05,0.03
		C149.17,148.3,148.79,153.82,148.74,154.39z"/>
</g>
</svg>
