<?xml version="1.0" encoding="utf-8"?>
<!-- Generator: Adobe Illustrator 26.5.0, SVG Export Plug-In . SVG Version: 6.00 Build 0)  -->
<svg version="1.1" id="레이어_1" xmlns="http://www.w3.org/2000/svg" xmlns:xlink="http://www.w3.org/1999/xlink" x="0px"
	 y="0px" viewBox="0 0 224.3 254" style="enable-background:new 0 0 224.3 254;" xml:space="preserve">
<g>
	<path style="fill:#FFFFFF;" d="M144.5,186.2l53.6,31.7c6.1,3,10.9,3.5,14.5,1.5c5.9-3,7.9-12,9.4-20.3c1-5.3,1.3-10.1,1-14.2
		c-0.3-4.8-1.6-8.6-3.8-11.4c-2.5-3.3-6.1-5.1-10.9-5.6c-0.5,0-1,0-1.3,0c-13.9,0-17.8,21.8-17.8,21.9c0,0,0,0.2-0.2,0.2h-0.2
		L156,175.3L144.5,186.2z"/>
	<path style="fill:#00A2F6;" d="M173.5,203.4c-3.3-3-3.1-8.1-1.2-11.9c1.2-2.3,2.6-3.8,7.4-5.6l9.1,4.1c0,0,1-9.2,8.1-17.3
		c0,0,6.1-8.7,17.6-3c0,0,7.9,3,8.4,15.3c0,0,0,12.4-2.6,21.9c0,0-2.5,12.2-11.7,13.7c0,0-6.4,0.5-11.7-3.3L173.5,203.4z"/>
	<path d="M207.8,221.7c-3,0-6.3-1-10.2-2.8h-0.2l-54.8-32.5L156,174l32.3,14.5c1-4.6,5.9-21.8,18.6-21.8c0.5,0,1,0,1.5,0
		c5.1,0.5,9.1,2.5,11.7,6.1c2.3,3,3.6,6.9,4,12c0.3,4.1,0,9.1-1,14.5c-1.5,8.6-3.8,17.8-10.1,21.1
		C211.6,221.2,209.8,221.7,207.8,221.7z M198.8,216.9c5.8,2.6,10.1,3.3,13.4,1.5c5.4-2.8,7.4-11.5,8.9-19.6c1-5.3,1.3-9.9,1-13.9
		c-0.3-4.6-1.5-8.2-3.5-10.9c-2.3-3-5.6-4.8-10.2-5.3c-0.5,0-0.8,0-1.3,0c-12.9,0-16.7,20.9-16.7,21.1c0,0.3-0.3,0.7-0.7,1
		c-0.3,0.2-0.8,0.2-1.2,0l-32.2-14.3l-10.1,9.4L198.8,216.9z M188.2,189.5L188.2,189.5L188.2,189.5z M189.4,188.9L189.4,188.9
		C189.5,188.9,189.4,188.9,189.4,188.9z"/>
	<g>
		<path style="fill:#00A2F6;" d="M210,172.5c0,0-11.1,8.2-9.6,27.4"/>
		<path d="M200.4,201.1c-0.5,0-1-0.5-1.2-1c-1.6-19.5,9.6-28,9.9-28.4c0.5-0.3,1.2-0.3,1.5,0.2c0.3,0.5,0.3,1.2-0.2,1.5
			c-0.2,0.2-10.6,8.2-9.1,26.4C201.6,200.6,201.1,201.1,200.4,201.1L200.4,201.1z"/>
	</g>
</g>
<g>
	<path style="fill:#FFFFFF;" d="M109.2,182.6l6.9,18.5c1.5,4.1,3,8.2,4.3,12.4c1,3,2,5.9,3.1,8.9c0.3,0.8,0.7,2,1.2,3.8
		c2,6.6,5.8,19,9.1,21.6c3.5,2.8,10.6-0.7,13.2-2.8c5.4-4.3,4.9-12,2.1-17.6c0-0.2-26.2-51.8-28.2-55.6L109.2,182.6z"/>
	<path style="fill:#00A2F6;" d="M123.4,222.2c0,0,3.6-11.7,18.1-9.7l7.4,14.5c0,0,5.9,11.9-2.1,17.6c0,0-10.2,7.9-14.5,1.2
		L123.4,222.2z"/>
	<path d="M136.9,249.7c-1.5,0-3-0.3-4.1-1.3c-3.3-2.6-6.6-12.7-9.4-22.1c-0.5-1.6-0.8-3-1.2-3.6c-1-3-2.1-5.9-3.1-8.9
		c-1.3-4.1-2.8-8.2-4.3-12.4l-7.1-19.1l13.2-12.5l4.9,9.6c8.4,16.5,23.9,47.2,23.9,47.3c3,5.9,3.5,14.3-2.5,19
		C145.3,247.2,140.9,249.7,136.9,249.7z M110.3,182.7l6.6,17.8c1.5,4.1,3,8.2,4.3,12.4c1,3,2,5.9,3.1,8.9c0.3,0.8,0.7,2.1,1.2,3.8
		c1.8,6.1,5.6,18.6,8.6,20.9c2.8,2.3,9.2-0.8,11.9-2.8c4.9-3.8,4.5-11.1,2-16.2c-0.2-0.2-16-31.7-23.9-47.3l-3.5-6.9L110.3,182.7z"
		/>
	<g>
		<g>
			<path style="fill:#00A2F6;" d="M133.6,246.9c0,0,3.6,7.1,17.6,5.8c21.3-2,24.9-44.2,6.6-48.8c-9.6-2.5-19.5-0.2-22.8,13"/>
			<path d="M147.8,254c-11.7,0-15-6.3-15.2-6.6c-0.3-0.5,0-1.2,0.5-1.5c0.5-0.3,1.2,0,1.5,0.5c0.2,0.3,3.6,6.4,16.5,5.3
				c10.7-1,16.5-13,17.3-23.9c0.8-9.7-2.3-20.6-10.7-22.8c-6.4-1.6-17.6-2.1-21.4,12.2c-0.2,0.7-0.8,1-1.3,0.8
				c-0.7-0.2-1-0.8-0.8-1.3c3.1-11.9,11.9-17,24.1-13.9c9.7,2.5,13.2,14.3,12.4,25.2c-0.5,6.4-2.5,12.4-5.4,17
				c-3.5,5.3-8.2,8.4-13.7,8.9C150.1,254,148.9,254,147.8,254z"/>
		</g>
		<g>
			<path style="fill:#00A2F6;" d="M152.4,208.8c0,0-14,2.6-12.4,30.8"/>
			<path d="M140,240.6c-0.7,0-1-0.5-1.2-1c-1.8-28.7,12.7-31.8,13.2-32c0.7-0.2,1.2,0.3,1.3,0.8c0.2,0.7-0.3,1.2-0.8,1.3
				c-0.2,0-13,3-11.4,29.7C141.2,240.1,140.7,240.6,140,240.6L140,240.6z"/>
		</g>
	</g>
</g>
<g>
	<path style="fill:#E4ADD1;" d="M20.1,118.3C9.6,129.8,1,145.3,1,164.6h60.4h7.4H205c-21.3-61.4-75.9-74.6-111.3-76.4
		C66,86.9,38.8,97.6,20.1,118.3z"/>
	<path d="M206.5,165.6H0v-1c0-17.2,6.4-33,19.3-47.2c18.8-20.6,46-31.7,74.6-30.2c23.3,1.2,43.9,6.6,61.4,16
		c24.2,13,41.2,33.6,50.8,61L206.5,165.6z M2.2,163.6h201.6c-9.4-26.2-26.1-45.9-49.3-58.6c-17.2-9.2-37.4-14.5-60.5-15.7
		C66,87.9,39.4,98.8,21,118.9C8.7,132.3,2.3,147.3,2.2,163.6z"/>
</g>
<g>
	<path style="fill:#FFAB5C;" d="M157.5,72.9c0,0,18.5,4.8,27.4-10.6c0,0,2.8,13,15.3,12.5c0,0-5.6,16.8,6.8,21.6
		c0,0-13.9,7.9-12,19.1c0,0-14.7-4.6-22.4,2.8c0,0-7.9-19.6-16.8-18.5C155.9,100,177,82.1,157.5,72.9z"/>
	<path style="fill:#FFFF4D;" d="M172.7,119.6c-0.2,0-0.2,0-0.3,0c-0.3-0.2-0.7-0.3-0.8-0.7c-2.1-5.3-8.9-18.6-15.5-17.6
		c-0.5,0-1-0.2-1.3-0.7c-0.2-0.5-0.2-1.2,0.3-1.5c0.2-0.2,10.4-8.9,9.4-16.8c-0.5-3.3-3-6.1-7.4-8.2c-0.5-0.3-0.8-1-0.7-1.5
		c0.2-0.7,0.8-1,1.5-0.8c0.7,0.2,17.6,4.3,26.1-9.9c0.3-0.5,0.8-0.7,1.3-0.7s0.8,0.5,1,1c0,0,0.7,3.1,2.8,6.1
		c2.8,3.8,6.6,5.6,11.2,5.4c0.3,0,0.8,0.2,1,0.5c0.2,0.3,0.3,0.8,0.2,1.2c0,0-1.3,4.1-1.2,8.6c0.2,5.8,2.6,9.6,7.3,11.4
		c0.5,0.2,0.8,0.7,0.8,1c0,0.5-0.2,1-0.7,1.2c-0.2,0-13,7.6-11.4,17.8c0,0.5-0.2,0.8-0.3,1.2c-0.3,0.3-0.8,0.3-1.2,0.2
		c-0.2,0-14-4.3-21.3,2.5C173.2,119.6,172.9,119.6,172.7,119.6z M158.7,99c6.9,2,12.5,13.2,14.3,17.5c6.8-4.9,16.7-3.5,20.6-2.5
		c-0.2-4.5,1.8-8.7,5.8-12.9c1.8-2,3.8-3.5,5.1-4.3c-7.8-4.5-7.4-14.5-5.9-20.5c-8.6-0.5-12.5-7.3-14.2-10.9
		c-6.3,8.6-15.8,9.7-21.8,9.6c2.3,2,3.8,4.5,4.1,7.1C167.7,88.7,162,95.7,158.7,99z"/>
</g>
<g>
	<g>
		<g>
			<path style="fill:#FFFFFF;" d="M181.8,130.1c-5.1-6.1-11.2-10.7-17.8-15.8c-3-2.1-13.5-10.1-6.8-14c2.5-1.5,6.4,0.2,8.9,1
				c5.4,1.6,10.4,4.1,15,7.3c5.1,3.5,9.7,7.6,13.5,12.4C191,122.5,186.1,125.7,181.8,130.1z"/>
		</g>
		<g>
			<g>
				<path style="fill:#00709E;" d="M193,155.4c0-0.2,0-0.2,0-0.3c-0.5-2.6-1-4.9-1.6-7.3c-1-3.3-2.3-6.3-4-9.4
					c-0.8-1.5-1.6-3-2.8-4.6c-1-1.3-1.8-2.6-3-3.8c4.3-4.5,9.2-7.4,13-9.4c2,2.3,3.6,4.6,5.3,7.1c4.6,7.1,9.4,15.3,10.9,23.9
					c0.7,4.1-0.8,8.6-4.5,11.4c-0.8,0.5-1.5,1-2.3,1.3c-2.6,1.3-5.9,1.5-8.2-0.3c-0.5-0.3-0.8-0.8-1.2-1.2
					C193.5,160.8,193.5,157.8,193,155.4z"/>
			</g>
		</g>
	</g>
	<path d="M200.1,166.4c-1.8,0-3.5-0.5-4.8-1.6c-0.5-0.3-0.8-0.8-1.3-1.5c-1.2-1.8-1.5-4-1.8-6.1c0-0.7-0.2-1.2-0.2-1.6v-0.3
		c-0.3-2.5-1-4.8-1.6-7.3c-1-3.1-2.1-6.3-3.8-9.2c-0.8-1.5-1.6-3-2.6-4.5c-0.8-1.2-1.6-2.3-2.8-3.8c-4.6-5.8-10.4-10.1-16.5-14.8
		l-1.3-1c-4.3-3.3-9.4-7.8-9.1-11.7c0.2-1.6,1-3,2.8-4c2.6-1.5,6.1-0.3,8.7,0.5c0.3,0.2,0.7,0.2,1,0.3c5.4,1.6,10.6,4.1,15.3,7.3
		c4.9,3.3,9.6,7.6,13.9,12.5c2,2.3,3.8,4.8,5.4,7.3c4.3,6.6,9.6,15.3,11.1,24.2l0,0c0.8,4.8-1.2,9.6-4.8,12.4
		c-0.8,0.7-1.6,1.2-2.5,1.5C203,166.1,201.6,166.4,200.1,166.4z M159.7,100.8c-0.7,0-1.3,0.2-2,0.5c-1.2,0.7-1.6,1.3-1.8,2.3
		c-0.2,3.3,6.1,8.2,8.2,9.9l1.3,1c6.1,4.8,12,9.2,16.8,15.2c1.2,1.5,2.1,2.6,3,4c1,1.6,2,3.1,2.8,4.6c1.6,3.1,3,6.3,4,9.6
		c0.7,2.5,1.3,4.8,1.6,7.4v0.3c0.2,0.7,0.2,1.2,0.3,1.8c0.2,1.8,0.5,3.8,1.5,5.1c0.3,0.5,0.5,0.8,0.8,1c2.1,1.6,5.1,1.2,7.1,0.2
		c0.7-0.3,1.5-0.8,2.1-1.3c3.1-2.3,4.6-6.4,4.1-10.4l0,0c-1.3-8.6-6.4-17-10.7-23.4c-1.6-2.3-3.3-4.8-5.3-6.9
		c-4.1-4.8-8.6-8.9-13.4-12.2c-4.6-3.1-9.6-5.4-14.7-7.1c-0.3-0.2-0.7-0.2-1-0.3C163.3,101.3,161.3,100.8,159.7,100.8z"/>
</g>
<g>
	<g>
		<g>
			<g>
				<path style="fill:#FFFFFF;" d="M134.4,4.3c-3.1,1.6-5.4,4.8-6.8,7.8c-3,6.4-1,11.1,2.1,12.5c2.8,1.3,4.9-0.7,6.9-3.1
					c4.3-5.8,7.3-2.5,11.7,1.2c3.6,3,8.7,2.3,11.5-1.3s2.3-8.9-1.3-11.9c-3.1-2.5-6.4-4.8-10.2-6.1C143.5,1.3,139.4,1.6,134.4,4.3z"
					/>
				<path d="M142.5,2.1c2,0,4,0.3,6.1,1.3c3.8,1.3,7.1,3.6,10.2,6.1c3.5,3,4.1,8.2,1.3,11.9c-1.6,2.1-4,3.1-6.4,3.1
					c-1.8,0-3.6-0.7-5.1-1.8c-2.6-2.1-4.8-4.1-7.1-4.1c-1.5,0-3,0.8-4.6,3.1c-1.5,2-3.1,3.6-5.1,3.6c-0.5,0-1.2-0.2-1.8-0.5
					c-3.1-1.5-5.1-6.1-2.1-12.5c1.3-3,3.6-6.1,6.8-7.8C137.2,2.8,139.9,2.1,142.5,2.1 M142.5,0c-3,0-5.8,0.8-8.9,2.5
					c-3.1,1.6-5.9,4.8-7.8,8.7c-3.5,7.8-0.8,13.4,3.1,15.3c0.8,0.5,1.8,0.7,2.6,0.7c3.1,0,5.4-2.5,6.8-4.5c1.2-1.5,2.1-2.3,3-2.3
					c1.2,0,3,1.5,4.8,3c0.3,0.3,0.7,0.5,1,0.8c1.8,1.5,4.1,2.3,6.4,2.3c3.1,0,6.1-1.5,8.1-4c3.5-4.5,2.8-11.1-1.6-14.7
					c-3.3-3-6.9-5.1-10.7-6.6C147,0.5,144.7,0,142.5,0L142.5,0z"/>
			</g>
			<path style="fill:#673101;" d="M146.6,17.3c0.7-0.3,1.3-0.3,1.8-0.2c-0.8-0.3-1.5-1-1.8-1.8c-0.7-1.8,0.2-3.8,1.8-4.5
				c0.8-0.3,1.6-0.3,2.3,0c-0.7-0.3-1.3-1-1.5-1.6c-0.7-1.8,0.2-3.8,1.8-4.5c0.2,0,0.3,0,0.5-0.2c4,2.1,6.6,4.3,7.3,4.8
				c3.5,3,4.1,8.2,1.3,11.9s-7.9,4.3-11.5,1.3c-1-0.8-2.5-1.8-4-2.6C144.8,18.8,145.5,17.8,146.6,17.3"/>
		</g>
	</g>
</g>
<path style="fill-rule:evenodd;clip-rule:evenodd;fill:#FFFFFF;stroke:#231815;stroke-width:2.5726;stroke-linecap:round;stroke-linejoin:round;stroke-miterlimit:10;" d="
	M119.3,19.5"/>
<g>
	<path style="fill:#00A2F6;" d="M125.2,19.5H125H125.2z"/>
	<g>
		<path style="fill:#00A2F6;" d="M170.2,105.4L170.2,105.4v-1c0.3-3.5,1.3-6.8,2.5-9.9c4.3-11.9,5.1-23.3,2.3-35.5
			c-2.1-9.4-6.9-19.8-14.5-25.9c-9.9-7.9-22.8-13.9-35.3-13.9h-4c-0.2,0-0.2,0-0.2,0c-12.5,0-25.4,5.9-35.3,13.9
			C78.2,39.3,73.4,49.6,71.3,59c-2.6,11.4-2,22.9,1.8,33.8c3.6,10.2,4.9,18.8,4.5,29.5c-0.8,15.2-3,29,6.4,42.2
			c16.8,23.4,44.9,30.2,71.6,20.1c16.3-6.1,23.4-20.9,24.7-37.3C181.6,132.9,176.3,118.8,170.2,105.4z"/>
		<path d="M121.1,19.5h4c0,0,0,0,0.2,0c12.5,0,25.4,5.9,35.1,13.9c7.6,6.1,12.4,16.5,14.5,25.9c2.8,12.2,2,23.8-2.3,35.5
			c-1.2,3.1-2.1,6.4-2.5,9.9l0,0v1c6.3,13.4,11.5,27.4,10.2,42.1c-1.5,16.3-8.4,31-24.7,37.3c-8.1,3-16.2,4.5-24.1,4.5
			c-18.5,0-36-8.2-47.7-24.7c-9.4-13.2-7.3-26.9-6.4-42.2c0.5-10.7-0.8-19.3-4.5-29.5C69.1,82,68.5,70.4,71.1,59
			c2.1-9.4,6.9-19.8,14.5-25.9c9.9-7.9,22.6-13.9,35.1-13.9c0,0,0,0,0.2,0C120.9,19.5,120.9,19.5,121.1,19.5 M121.1,17.3L121.1,17.3
			h-0.2l0,0c-11.9,0-25.1,5.3-36.5,14.3c-7.1,5.6-12.7,15.5-15.2,27c-2.6,11.9-2,23.6,2,35c3.6,10.4,4.8,18.6,4.3,28.7
			c-0.2,1.8-0.2,3.6-0.3,5.3c-0.8,13.4-1.6,25.9,7.1,38.1c11.9,16.5,29.4,25.6,49.5,25.6c8.2,0,16.7-1.5,24.7-4.6
			c8.1-3.1,14.5-8.4,19-15.7c4-6.4,6.3-14.2,7.1-23.3c1.3-15.3-4.5-30.2-10.2-42.7v-0.3c0.3-3.5,1.3-6.6,2.3-9.4
			c4.5-12.4,5.1-24.2,2.3-36.6c-2.6-11.5-8.2-21.4-15.2-27c-11.4-9.1-24.6-14.3-36.5-14.3h-0.2L121.1,17.3L121.1,17.3L121.1,17.3z"
			/>
	</g>
</g>
<g>
	<g>
		<g>
			<g>
				<path style="fill:#FFFFFF;" d="M89.6,9.7c3.8,1.2,7.3,4.3,9.4,7.4c4.9,6.8,4.9,8.9,1.6,11.7c-4.5,3.8-5.9,3.6-8.7,1.2
					c-6.3-5.6-9.4-0.8-13.5,4.5c-3.3,4.3-9.1,4.8-13.2,1.3c-4.1-3.5-4.8-9.9-1.6-14.2c2.8-3.8,5.9-7.1,9.7-9.6
					C78.8,8.4,83.5,7.8,89.6,9.7z"/>
				<path d="M83.5,8.6c2,0,4,0.3,6.1,1c3.8,1.2,7.3,4.3,9.4,7.4c4.9,6.8,4.9,8.9,1.6,11.7c-2.5,2-4,3-5.3,3c-1.2,0-2.1-0.7-3.5-1.8
					c-2-1.8-3.6-2.5-5.1-2.5c-3.3,0-5.6,3.3-8.4,6.9c-1.8,2.3-4.5,3.6-7.1,3.6c-2.1,0-4.3-0.8-6.1-2.3c-4.1-3.5-4.8-9.9-1.6-14.2
					c2.8-3.8,5.9-7.1,9.7-9.6C77,9.7,80,8.6,83.5,8.6 M83.5,6.6L83.5,6.6c-3.8,0-7.3,1.2-11.1,3.6c-3.6,2.5-7.1,5.9-10.2,10.1
					c-3.8,5.1-3,12.7,1.8,17c2.1,1.8,4.8,2.8,7.4,2.8c3.5,0,6.6-1.6,8.7-4.5l0.5-0.7c2.1-2.8,4.3-5.6,6.3-5.6c1,0,2.3,0.7,3.8,2
					c1.3,1.2,2.8,2.3,4.8,2.3c2.1,0,4.1-1.3,6.6-3.5c4.8-4,3.5-7.9-1.3-14.5c-1.3-2-5.1-6.6-10.6-8.2C87.8,6.9,85.6,6.6,83.5,6.6
					L83.5,6.6z"/>
			</g>
			<path style="fill:#673101;" d="M79.3,27.7c-0.8-0.2-1.5,0-2.1,0.3c0.8-0.7,1.3-1.5,1.5-2.5c0.3-2.1-1-4.3-3.1-4.8
				c-1-0.2-1.8,0-2.6,0.5c0.7-0.7,1.2-1.3,1.3-2.3c0.3-2.1-1-4.3-3.1-4.8c-0.2,0-0.3,0-0.5,0c-3.8,3.3-6.3,6.6-6.9,7.3
				c-3.1,4.3-2.5,10.6,1.6,14.2c4.1,3.5,9.9,3,13.2-1.3c1-1.3,2.3-2.6,3.6-4C81.8,29,80.8,28,79.3,27.7"/>
		</g>
	</g>
</g>
<g>
	<g>
		<path style="fill-rule:evenodd;clip-rule:evenodd;fill:#FFFFFF;" d="M88.7,73.9c0.3-4.1,1.2-8.1,2-12c2.6-13,12-23.3,24.9-27.5
			c14.2-4.6,27.5-5.4,40.9,1.8c5.6,3,11.2,8.7,13.4,14.5c2.1,5.6,3.6,16.8,3.6,16.8s4.3,3.6,4.8,4.5c5.6,9.2,1.8,20.5-4.8,28.2
			c-7.9,9.4-17.8,12.5-29.7,13.7c-17.5,1.8-39.1-0.3-50.1-16.2C89.1,91.4,87.9,81.5,88.7,73.9z"/>
		<path d="M135.4,30.7c7.1,0,14,1.6,20.9,5.3c5.6,3,11.2,8.7,13.4,14.5c2.1,5.6,3.6,16.8,3.6,16.8s4.3,3.6,4.8,4.5
			c5.6,9.2,1.8,20.5-4.8,28.2c-7.9,9.4-17.8,12.5-29.7,13.7c-3.3,0.3-6.6,0.5-10.1,0.5c-15.2,0-31-3.8-40.1-16.7
			c-4.6-6.4-5.8-16.3-4.9-23.9c0.3-4.1,1.2-8.1,2-12c2.6-13,12-23.3,24.9-27.5C122.2,32,128.8,30.7,135.4,30.7 M135.4,28.7v2.1V28.7
			L135.4,28.7c-6.3,0-13,1.2-20.6,3.6c-13.7,4.5-23.4,15.3-26.2,29.2c-0.8,3.6-1.6,7.9-2,12.2c-0.7,7.6,0.3,18.1,5.4,25.4
			c10.2,14.3,28.4,17.3,41.7,17.3c3.3,0,6.8-0.2,10.2-0.5c10.2-1,21.9-3.6,31-14.5c3.6-4.5,6.3-9.4,7.3-14.3
			c1.3-5.8,0.5-11.4-2.5-16.2c-0.3-0.7-2-2.1-4.6-4.5c-0.3-2.6-1.8-11.4-3.6-16.5c-2.3-5.9-7.9-12.2-14.3-15.7
			C150.4,30.5,143.3,28.7,135.4,28.7L135.4,28.7z"/>
	</g>
	<g>
		<path style="fill-rule:evenodd;clip-rule:evenodd;fill:#FFBFBA;" d="M135.7,91.4c1.3,6.9-3.5,13.5-10.6,15
			c-7.1,1.3-14-3.1-15.3-10.1c-1.3-6.9,3.5-13.5,10.6-15C127.5,80,134.4,84.6,135.7,91.4"/>
		<path style="fill-rule:evenodd;clip-rule:evenodd;fill:#FFBFBA;" d="M180.4,80.5c0.5,7.1-3.1,13-3.6,13.2
			c-2.8,0.5-5.3-4.8-5.6-11.5c-0.3-6.8,3-13.7,5.1-11.9C178,71.9,179.8,74.9,180.4,80.5"/>
		<path style="fill:#231815;" d="M149.6,112.5c-4.5,0-9.2-1.3-11.7-4.6c-0.3-0.5-0.3-1.2,0.2-1.6c0.5-0.3,1.2-0.3,1.6,0.2
			c3.1,4.5,12.5,4.3,16,2.5c0.5-0.3,1.3,0,1.5,0.5c0.3,0.5,0,1.3-0.5,1.5C155.2,112,152.6,112.5,149.6,112.5z"/>
		<g>
			<path style="fill-rule:evenodd;clip-rule:evenodd;" d="M158,78.2c0.2,1-0.8,1.8-2.3,2c-1.3,0.2-2.5-0.5-2.6-1.5
				c-0.2-1,1-1.8,2.3-2C156.7,76.5,157.9,77.2,158,78.2"/>
			<path style="fill:#231815;" d="M134.9,79c-0.5,0-1-0.3-1.2-0.8c-0.2-0.7,0.2-1.3,0.8-1.5c1.3-0.3,2.8-0.7,4.3-0.8
				c-0.7,0-1.2,0-2-0.2c-1-0.2-2.1-0.3-3.5-0.5c-0.7-0.2-1-0.7-1-1.3s0.7-1,1.3-1c1.2,0.2,2.3,0.3,3.3,0.5c2.5,0.3,4.6,0.5,6.8,1.8
				c0.3,0.2,0.7,0.7,0.5,1.2c0,0.5-0.3,0.8-0.8,1c-1.3,0.5-3,0.7-4.5,0.8C137.6,78.3,136.1,78.7,134.9,79
				C135.1,79,135.1,79,134.9,79z"/>
			<path style="fill-rule:evenodd;clip-rule:evenodd;fill:#D74848;" d="M161.5,97.6c1.6-1.2,1.5-7.3,0.8-9.2c-1.2-3.1-3-1-5.4-2.1
				c-0.7-0.3-1.3-0.7-1.8-0.3c-0.2,0.2-0.3,0.3-0.3,0.7c-0.5,0.8-1.5,1.5-2.3,1.8c-1.6,0.8-3.5,1.3-5.3,1.2c-1-0.2-2-0.8-3-0.7
				c0.3,2,4.5,7.8,6.1,8.4c2.5,1.2,5.3,1.6,7.9,1.3C159.3,98.6,160.5,98.3,161.5,97.6z"/>
			<path style="fill-rule:evenodd;clip-rule:evenodd;fill:#FFFFFF;" d="M150.4,95.8c2.8-0.5,6.3-0.5,9.1-1c0.5-0.2,2-2,2.3-1.6
				c0.5,0.3,0.3,3.1,0.5,3.6c0.2,0.3,0.2,0.8,0,1.2c-0.2,0.2-0.3,0.3-0.5,0.5c-1.6,1.2-4,1.6-5.9,1.3
				C154.2,99.5,150.4,97.8,150.4,95.8z"/>
			<path style="fill:#231815;" d="M156.7,100.9c-5.1,0-9.6-5.6-12.9-10.6c-0.3-0.5-0.2-1.2,0.3-1.5c0.5-0.3,1.2-0.2,1.5,0.3
				c1.8,2.8,6.9,10.2,11.9,9.6c1.3-0.2,2.1-0.5,2.8-1c0.8-0.5,1.5-3,1.3-6.1c-0.2-2.6-0.8-4.5-1.5-4.8c-0.5-0.3-0.7-0.8-0.3-1.3
				c0.3-0.5,0.8-0.7,1.3-0.3c2,1.2,2.5,4.9,2.5,6.4c0.2,2.8-0.3,6.6-2.1,7.9c-1,0.7-2.1,1.2-3.8,1.3
				C157.2,100.9,157,100.9,156.7,100.9z"/>
			<path style="fill-rule:evenodd;clip-rule:evenodd;fill:#FFFFFF;" d="M148.4,90.5c0.8,0.3,1.6,0.3,2.5,0.2
				c2.1-0.3,4.3-0.7,6.4-1.5c0.3-0.2,0.8-0.3,1-0.5c0.3-0.5,0.3-1,0.3-1.6c0-0.3,0-0.7-0.2-1c-0.2-0.2-0.3-0.2-0.5-0.3
				c-0.8-0.2-1.5-0.5-2.3-0.7c-0.2,0-0.3-0.2-0.5,0c-0.3,0-0.5,0.2-0.8,0.5c-1,1.3-2.6,2.3-4.3,2.8
				C148.9,88.9,145.6,89.4,148.4,90.5z"/>
			<path style="fill:#231815;" d="M140,91c-0.5,0-0.8-0.3-1.2-0.7c-0.7-1.6,0.8-5.6,3.1-8.1c0.5-0.5,1.2-0.5,1.6,0
				c0.5,0.5,0.5,1.2,0,1.6c-2,2-2.8,4.9-2.6,5.6s0,1.2-0.7,1.5C140.4,91,140.2,91,140,91z"/>
			<path style="fill:#231815;" d="M161.3,73.1c-0.5,0-0.8-0.3-1-0.7c-0.2-0.5,0-1,0.3-1.3c1.5-1.3,3.1-2.3,4.9-3.3
				c0.5-0.3,1.3,0,1.5,0.5c0.3,0.5,0,1.3-0.5,1.5c-0.5,0.3-1,0.5-1.6,0.8h2l0,0c0.7,0,1.2,0.5,1.2,1.2c0,0.7-0.5,1.2-1.2,1.2
				L161.3,73.1L161.3,73.1z"/>
			<g>
				<path style="fill:#231815;" d="M146.8,90.9c-2.5,0-4.9-0.7-6.3-2c-0.5-0.5-0.5-1.2,0-1.6s1.2-0.5,1.6,0c1,1,3.8,1.6,6.8,1.2
					c1.8-0.3,4.3-1.3,5.4-4.1c0.3-0.7,1-0.8,1.5-0.7c0.7,0.3,0.8,1,0.7,1.5c-1.2,2.8-3.8,4.8-7.1,5.4
					C148.4,90.9,147.6,90.9,146.8,90.9z"/>
				<path style="fill:#231815;" d="M159.3,87.4c-0.5,0-0.8,0-1.3,0c-1.6-0.2-3-1-3.6-2c0-0.2-0.2-0.2-0.2-0.3
					c-0.2-0.5,0-1.3,0.5-1.5c0.5-0.2,1.2,0,1.5,0.3c0,0,0,0.2,0.2,0.2c0.2,0.5,1,0.8,2,1c2,0.3,4.1-0.3,5.1-1.3c0.5-0.5,0.8-1,1-1.3
					c-0.3-0.3-0.5-0.8-0.2-1.3c0.3-0.5,1-0.8,1.5-0.5c0.5,0.3,0.8,0.7,1,1.3c0.2,1.3-0.8,2.6-1.5,3.3
					C163.8,86.9,161.3,87.4,159.3,87.4z M164.6,82.8L164.6,82.8L164.6,82.8z"/>
			</g>
			<path style="fill:#231815;" d="M148.4,91.5c-0.5,0-0.8-0.3-0.8-0.8s0.3-1,0.8-1c3.1-0.2,7.9-0.7,8.7-1c1.5-0.7,1.6-1.6,1.6-2.3
				c0-0.5,0.3-0.8,0.8-1c0.5,0,0.8,0.3,1,0.8c0,1.8-0.8,3.3-2.6,4.1C156.5,90.9,149.9,91.4,148.4,91.5
				C148.6,91.5,148.4,91.5,148.4,91.5z"/>
			<path style="fill:#231815;" d="M156.9,96.3c-1,0-2-0.2-3-0.3c-2.6-0.5-4,0.2-4,0.2c-0.3,0.3-1,0.2-1.2-0.3
				c-0.3-0.3-0.2-1,0.2-1.2c0.2-0.2,1.8-1.2,5.3-0.5c3.6,0.7,4.6,0.2,5.1-1c0.5-1,1.2-1.6,1.8-1.6c1-0.2,1.8,0.5,1.8,0.7
				c0.3,0.3,0.3,1,0,1.3s-1,0.3-1.3,0l-0.2-0.2c0,0-0.3,0.2-0.5,0.7C160.2,95.8,158.7,96.3,156.9,96.3z"/>
			<path style="fill:#231815;" d="M155.7,90.2C155.7,90.2,155.5,90.2,155.7,90.2c-0.5,0-1-0.5-0.8-1c0-0.3-0.3-1.8-0.7-3
				c-0.2-0.5,0.2-1,0.7-1.2c0.5-0.2,1,0.2,1.2,0.7c0.2,0.7,0.7,2.8,0.7,3.5C156.5,89.7,156,90.2,155.7,90.2z"/>
			<path style="fill:#231815;" d="M154.6,100c-0.5,0-0.8-0.3-0.8-0.8l-0.5-4c0-0.5,0.3-1,0.8-1s1,0.3,1,0.8l0.5,4
				C155.5,99.5,155.2,99.8,154.6,100C154.7,100,154.7,100,154.6,100z"/>
			<path style="fill:#231815;" d="M158.2,99.6c-0.5,0-0.8-0.3-0.8-0.8v-3.5c0-0.5,0.3-0.8,0.8-0.8s0.8,0.3,0.8,0.8v3.5
				C159,99.3,158.7,99.6,158.2,99.6z"/>
			<path style="fill:#231815;" d="M161.5,98.5c-0.3,0-0.7-0.3-0.8-0.7l-1.2-4.1c-0.2-0.5,0.2-1,0.7-1.2s1,0.2,1.2,0.7l1.2,4.1
				c0.2,0.5-0.2,1-0.7,1.2C161.6,98.5,161.5,98.5,161.5,98.5z"/>
		</g>
	</g>
</g>
<g>
	<path style="fill:#FFFFFF;" d="M82.6,112.8c-1.2,0-2.3,0.3-3.8,1.2c-7.8,4.3-16.2,19-16,27.9c0.2,6.3,3.5,12.2,9.4,16.5
		c7.1,5.3,16.8,7.3,24.2,5.1c7.4-2.3,9.2-7.1,8.4-10.9c-1-4.3-5.4-8.4-12-7.4c-5.3,0.7-12.2-1.6-13.9-4.9c-2-4,0.3-10.6,3.8-15.2
		c3.6-4.9,4.1-7.8,4-9.2c-0.2-1-0.7-1.8-1.6-2.5l0,0C84.3,113,83.5,112.8,82.6,112.8z"/>
	<path style="fill:#00709E;" d="M80,141.7c-0.7-0.5-2.8-2.1-5.9-2.1c-1.2,0-2.5,0.3-4,1c-6.1,3-6.3,7.6-6.1,8.6
		c0,0,4.5,8.9,11.4,11.2c0,0,11.2,7.1,24.4,1.8c0,0,7.1-4,4.9-10.4c0,0-3.5-8.6-11.9-6.8c0,0-6.4,0.7-10.7-2.1L80,141.7z"/>
	<path d="M90.2,165.4c-6.3,0-13.2-2.1-18.6-6.1c-6.3-4.6-9.7-10.7-9.9-17.5c-0.2-9.4,8.4-24.2,16.8-28.9c2.8-1.5,5.3-1.6,7.1-0.5
		c1.2,0.8,2,1.8,2.1,3.1c0.5,2.5-1,5.9-4.1,10.1c-3.1,4.1-5.4,10.4-3.6,13.9c1.3,2.5,7.4,5.1,12.7,4.3c7.3-1,12.2,3.6,13.2,8.4
		c1,4.3-1,9.7-9.2,12.2C94.7,165.3,92.5,165.4,90.2,165.4z M82.6,114c-1,0-2,0.3-3.1,1c-7.4,4.1-15.8,18.5-15.7,26.9
		c0.2,5.9,3.3,11.5,9.1,15.7c6.9,5.1,16.2,7.1,23.3,4.9c6.8-2,8.4-6.3,7.6-9.6c-0.8-3.8-4.9-7.4-10.7-6.6s-13-1.8-15-5.4
		c-2.3-4.6,0.3-11.5,3.8-16.3c3.6-4.8,3.8-7.3,3.6-8.4c-0.2-0.7-0.5-1.2-1.2-1.6C84,114.1,83.3,114,82.6,114z"/>
</g>
</svg>
