<?xml version="1.0" encoding="utf-8"?>
<!-- Generator: Adobe Illustrator 24.1.1, SVG Export Plug-In . SVG Version: 6.00 Build 0)  -->
<svg version="1.1" id="Layer_1" xmlns="http://www.w3.org/2000/svg" xmlns:xlink="http://www.w3.org/1999/xlink" x="0px" y="0px"
	 viewBox="0 0 240 240" style="enable-background:new 0 0 240 240;" xml:space="preserve">
<rect style="fill:#E45249;" width="240" height="240"/>
<g>
	<g>
		<g>
			<path style="fill:#FFFFFF;" d="M207.68,196.59c-5.8-2.64-11.84-3.83-18.94-2.07c0.15-0.68,0.24-1.4,0.24-2.17
				c0-0.54-0.04-1.11-0.14-1.7c-0.03-0.2-0.07-0.4-0.11-0.61c-0.04-0.21-0.09-0.42-0.14-0.62c-0.04-0.14-0.07-0.27-0.11-0.41
				c-0.03-0.13-0.08-0.25-0.12-0.38c-0.03-0.09-0.06-0.18-0.09-0.28c-0.03-0.09-0.06-0.19-0.1-0.28c-0.07-0.21-0.15-0.42-0.24-0.63
				c-0.08-0.21-0.18-0.42-0.27-0.62c-0.09-0.21-0.19-0.42-0.3-0.62c-0.2-0.41-0.42-0.8-0.66-1.19V185c-0.49-2.93-1.12-5.92-1.8-9.08
				c-1.18-5.53-2.38-11.2-2.76-16.57c0.39,0.01,0.77,0.04,1.16,0.08l0.06,0.01c0.24,0.03,0.47,0.06,0.69,0.1
				c0.78,0.14,1.53,0.35,2.22,0.62c11.89,4.67,19.24,20.27,21.27,32.16C207.79,193.76,207.81,195.18,207.68,196.59z"/>
		</g>
	</g>
	<g>
		<path style="fill:#0087C6;" d="M207.69,196.59c-0.76,8.49-7.67,16.24-13.94,21.16c-0.71,0.56-1.43,1.15-2.15,1.74
			c0.11,1.83,0.16,3.66,0.05,5.44c-0.3,4.92-3.05,9.58-7.63,11.56c-0.76,0.33-1.53,0.58-2.26,0.76c3.5-8.35,5.52-17.45,6.09-25.05
			c0.39-5.27,0.43-10.49,0.13-15.63v-0.01c0.17-0.32,0.32-0.64,0.43-0.99c0.01-0.01,0.01-0.02,0.01-0.03
			c0.04-0.07,0.07-0.15,0.09-0.23c0-0.01,0.01-0.02,0.01-0.03c0.09-0.25,0.16-0.5,0.22-0.76
			C195.84,192.76,201.88,193.95,207.69,196.59z"/>
	</g>
	<g>
		<g>
			<path style="fill:#0087C6;" d="M47.21,239.09c-0.56-0.06-1.16-0.16-1.74-0.3c-4.34-1.02-7.76-4.41-8.92-8.86
				c-2.4-9.11-1.1-19.66,0.3-27.83c0.31-1.8,1.48-6.73,1.48-6.73l0.17-0.78l0.14-0.49l0.34-1.16l0.03-0.11l0.16-0.56l0.25-0.7
				c1.56,0.08,3.39,0.26,5.39,0.58c-0.07,0.14-0.12,0.27-0.18,0.42c-0.11,0.27-0.22,0.53-0.33,0.8c-0.17,0.41-0.32,0.81-0.47,1.23
				c-0.16,0.41-0.3,0.81-0.44,1.23C38,211.14,39.47,226.29,47.21,239.09z"/>
			<path style="fill:#FFFFFF;" d="M55.25,166.54c-0.03,0.18-0.1,0.43-0.18,0.74c-0.36,1.23-0.72,2.68-1.08,4.22
				c-0.6,2.47-1.27,5.28-2,6.76c-1.34,2.71-2.53,4.85-3.58,6.74c-1.13,2.05-2.14,3.89-3.07,5.93c-0.18,0.39-0.36,0.81-0.53,1.22
				c-2-0.32-3.83-0.5-5.39-0.58l0.15-0.43c0.1-0.28,0.2-0.56,0.29-0.84c1.85-5.02,4.4-9.04,7.34-13.68c1.84-2.9,4.69-6.47,7.8-9.81
				C55.08,166.72,55.17,166.63,55.25,166.54z"/>
		</g>
	</g>
	<g>
		<path style="fill:#0099ED;" d="M179.46,156.12c0,0-0.04,1.57,0.1,2.86c0,0.17,0.01,0.34,0.03,0.52v0.01
			c0.45,6.74,2.16,13.8,3.53,20.44c0.48,2.26,0.9,4.49,1.24,6.63c0.04,0.23,0.07,0.47,0.1,0.7c0.38,2.56,0.65,5.13,0.85,7.73
			c0.12,1.59,0.2,3.17,0.24,4.77v0.01c0.13,4.09,0.04,8.18-0.27,12.23c-0.58,7.96-2.79,17.33-6.5,25.65v0.01
			c-0.01,0.03-0.03,0.05-0.04,0.08c0,0,0,0.01-0.01,0.03c-0.33,0.75-0.68,1.48-1.04,2.21H50.89c-0.13-0.18-0.25-0.37-0.39-0.57
			c-0.08-0.12-0.15-0.24-0.23-0.36c-8.15-12.63-9.71-27.75-4.32-42.8c0.14-0.4,0.29-0.82,0.44-1.22c0.17-0.4,0.33-0.81,0.49-1.21
			c0.04-0.1,0.08-0.19,0.12-0.29c0.13-0.32,0.26-0.62,0.39-0.92c0.19-0.41,0.37-0.8,0.55-1.2c1.7-3.55,3.68-6.63,6.35-12.03
			c1.41-2.83,3.46-14.71,3.32-15.31l-0.02-0.04l-0.16-0.41l-0.51-1.28l-0.03-0.09c-0.16-0.4-0.33-0.8-0.5-1.18v-0.01
			c-1.14-2.63-2.48-4.91-3.97-7.37c-1.51-2.53-3.08-5.13-4.42-8.28c-2.54-5.97-4.09-10.93-4.72-15.14
			c-1.23-8.29-1.15-16.79,0.26-25.25C45.13,95.43,48.4,86.53,53,79.3l0.79-1.25l0.66-1.06c0.39-0.13,0.77-0.27,1.14-0.43
			c2.44-1.02,4.58-2.71,6.16-4.93l0.31-0.43l0.23-0.33c1.17-1.66,2.29-3.23,3.39-4.47c1.46-1.66,2.91-2.76,4.48-2.76
			c1.28,0,2.84,0.67,4.62,1.98c1.62,1.18,3.42,2.28,5.59,2.28c2.78,0,5.32-1.77,8.51-4.63c4.38-3.94,4.17-7.53,1.81-11.47
			c4.9-1.59,9.91-2.6,14.92-2.88c0,0,0.13-0.01,0.3-0.02l5.3-0.3c1.07-0.07,2.15-0.1,3.22-0.1c1.23,0,2.47,0.04,3.72,0.13
			c0.1,0.01,0.21,0.01,0.31,0.02c0.9,0.06,1.8,0.14,2.71,0.25c4.72,0.54,9.44,1.65,14.05,3.18c0.3,0.1,0.6,0.2,0.9,0.31
			c2.2,0.75,4.38,1.61,6.52,2.55l8.41,4.83c0.09,0.06,0.18,0.11,0.27,0.16c0,0.01,0.01,0.01,0.01,0.01c0.01,0,0.01,0.01,0.02,0.01
			c2.77,1.59,5.03,3.03,7.11,4.49c0.6,0.42,1.17,0.85,1.75,1.32l0.01,0.01c2.83,2.28,5.53,5.12,8.02,8.45
			c0.02,0.01,0.03,0.02,0.04,0.04c0.01,0.01,0.01,0.02,0.02,0.03c0.95,1.26,1.88,2.6,2.76,4l0.14,0.22c1.09,1.43,2,2.74,2.77,3.99
			c0.11,0.17,0.23,0.35,0.34,0.55c0,0,0.02,0.01,0.02,0.02c1.84,3.03,4.78,8.61,6.25,15.19c0.45,2.06,0.78,3.69,0.97,4.71l0.25,1.39
			l1.23,0.69c0.51,0.28,1,0.57,1.47,0.89c4.7,3.01,7.36,6.74,8.97,12.52c2.57,9.13,1.01,19.62-4.05,27.39
			c-1.82,2.82-4.29,5.5-7.32,8.01c0,0-0.66,0.58-1.34,1.16C180.23,155.47,179.7,155.92,179.46,156.12z"/>
	</g>
	<path style="fill:#FFFFFF;" d="M87.16,61.36c-3.1,2.78-5.02,3.97-6.79,3.97c-1.3,0-2.52-0.65-4.07-1.78
		c-2.37-1.74-4.37-2.48-6.14-2.48c-2.46,0-4.45,1.43-6.32,3.54c-1.41,1.57-2.76,3.52-4.19,5.53c-1.53,2.16-3.64,3.65-5.97,4.41
		h-0.02c-1.17,0.39-2.41,0.58-3.64,0.58c-2.38,0-4.78-0.72-6.86-2.21c-5.33-3.82-6.62-11.21-2.88-16.58
		c2.39-3.42,5.11-6.63,8.2-9.43c1.13-1.02,2.3-1.98,3.53-2.88c4.6-3.37,8.89-4.91,13.84-4.91c1.91,0,3.91,0.23,6.07,0.67
		c4.89,0.99,9.38,4.37,12.39,7.87c1.7,1.98,2.98,3.61,3.87,5.01C90.72,56.65,90.11,58.71,87.16,61.36z"/>
	<g>
		<path style="fill-rule:evenodd;clip-rule:evenodd;fill:#FFFFFF;" d="M189.42,145.85c-1.82,2.82-4.29,5.5-7.32,8.01
			c0,0-0.66,0.58-1.34,1.16c-0.53,0.45-1.06,0.9-1.3,1.1c0,0-0.02,0.9,0.03,1.9c-4.23,2.88-9.26,5.41-15.08,7.59
			c-15.07,5.65-28.21,6.79-44.52,6.79c-1.88,0-3.79-0.02-5.74-0.04c-8.48-0.09-16.83-1.83-24.13-5.02
			c-14.74-6.44-23.23-20.85-24.54-41.68c-0.2-3.17-0.14-6.42,0.17-9.93c0.4-4.59,1.25-9.61,2.68-15.79
			c4.83-20.98,27.64-42.23,61.86-42.23c7.54,0,14.62,1.2,21.06,3.55c3.14,1.15,6.14,2.66,8.96,4.5l0.01,0.01l0.01,0.01
			c2.83,2.28,5.52,5.11,8.01,8.44c0.02,0.01,0.03,0.02,0.04,0.04c0.01,0.01,0.01,0.02,0.02,0.03c0.95,1.26,1.88,2.6,2.76,4
			l0.14,0.22c1.09,1.43,2,2.74,2.77,3.99c0.11,0.17,0.23,0.35,0.34,0.55c0,0,0.02,0.01,0.02,0.02c1.84,3.03,4.78,8.61,6.25,15.19
			c0.45,2.06,0.78,3.69,0.97,4.71l0.25,1.39l1.23,0.69c0.51,0.28,1,0.57,1.47,0.89c4.7,3.01,7.36,6.74,8.97,12.52
			C196.04,127.59,194.48,138.08,189.42,145.85z"/>
	</g>
	<g>
		<g>
			<path style="fill-rule:evenodd;clip-rule:evenodd;fill:#FFB9B5;" d="M127.34,138.09c1.35,9.97-5.45,19.11-15.18,20.41
				s-18.71-5.72-20.06-15.69c-1.35-9.96,5.44-19.1,15.17-20.4C117,121.11,125.99,128.13,127.34,138.09L127.34,138.09z"/>
		</g>
		<g>
			<path style="fill-rule:evenodd;clip-rule:evenodd;fill:#FFB9B5;" d="M194.1,122.85c0.72,9.36-2.69,19.08-7.76,19.47
				c-5.06,0.4-12.13-6.1-12.85-15.45c-0.72-9.35,4.38-18.01,9.44-18.41C187.99,108.07,193.38,113.51,194.1,122.85z"/>
		</g>
	</g>
	<path style="fill:#FFFFFF;" d="M160.97,50.42c-0.59,0.89-1.34,1.64-2.24,2.22l-0.07,0.05l-0.06,0.05
		c-1.33,0.98-2.92,1.49-4.57,1.49c-0.36,0-0.72-0.03-1.07-0.07l-8.05-1.11h-0.01l-0.31-0.04c-0.26-0.11-0.51-0.22-0.77-0.33h-0.01
		c-0.01,0-0.01-0.01-0.02-0.01c-0.32-0.14-0.63-0.28-0.95-0.42c-1.15-0.5-2.3-0.97-3.47-1.4l-0.01-0.01h-0.01
		c-5.83-2.2-11.71-3.71-17.4-4.41c0.13-0.39,0.25-0.79,0.41-1.22c1.46-4.02,4.02-7.48,6.85-9.26c3.67-2.32,6.82-3.35,10.21-3.35
		c1.78,0,3.69,0.28,5.82,0.88c0.82,0.22,1.66,0.49,2.51,0.79c0.01,0,0.02,0.01,0.03,0.01c0.32,0.12,0.63,0.23,0.96,0.36l1.26,0.49
		c0,0,7.96,3.71,8.86,4.32C162.43,41.88,163.38,46.81,160.97,50.42z"/>
	<path style="fill:#673101;" d="M160.97,50.42c-0.59,0.89-1.34,1.64-2.24,2.22l-0.07,0.05l-0.06,0.05
		c-1.33,0.98-2.92,1.49-4.57,1.49c-0.36,0-0.72-0.03-1.07-0.07l-8.05-1.11h-0.01l-0.31-0.04c-0.26-0.11-0.51-0.22-0.77-0.33h-0.01
		c-0.01,0-0.01-0.01-0.02-0.01c-0.32-0.14-0.63-0.28-0.95-0.42c0.19-1.35,0.96-2.6,2.26-3.27c0.78-0.4,1.63-0.46,2.44-0.38
		c-1.04-0.35-1.96-1.08-2.51-2.15c-1.1-2.16-0.25-4.79,1.87-5.9c1-0.51,2.09-0.55,3.09-0.29c-0.91-0.38-1.73-1.04-2.21-1.99
		c-0.67-1.3-0.62-2.78,0-3.99c0.32,0.12,0.63,0.23,0.96,0.36l1.26,0.49c0,0,7.96,3.71,8.86,4.32
		C162.43,41.88,163.38,46.81,160.97,50.42z"/>
	<path d="M63.84,64.61c-0.4,0.44-0.79,0.91-1.18,1.41c0.45-0.37,0.88-0.72,1.34-1.06c1.67-1.34,3.38-2.6,5.11-3.79
		C67.12,61.5,65.44,62.81,63.84,64.61z"/>
	<path d="M188.74,190.04c-0.03-0.13-0.06-0.27-0.09-0.4c-0.01-0.07-0.03-0.14-0.06-0.22c0.05,0.2,0.1,0.41,0.14,0.62
		c0.04,0.21,0.08,0.41,0.11,0.61C188.82,190.45,188.78,190.25,188.74,190.04z M188.48,189.01c0.04,0.14,0.07,0.27,0.11,0.41
		c0-0.03-0.01-0.07-0.02-0.1C188.54,189.22,188.51,189.11,188.48,189.01z"/>
	<path d="M188.52,195.28c0.03-0.08,0.05-0.16,0.08-0.23c0.05-0.17,0.1-0.35,0.14-0.53C188.68,194.78,188.61,195.03,188.52,195.28z"
		/>
	<path d="M210.58,191.8c-0.9-5.29-2.4-10.05-4.3-14.24c-0.41-0.93-0.86-1.83-1.31-2.71c-0.46-0.87-0.93-1.71-1.43-2.52
		c-0.24-0.42-0.49-0.81-0.74-1.2c-1.77-2.77-3.71-5.16-5.72-7.17c-3.16-3.19-6.5-5.43-9.67-6.67c-0.07-0.02-0.13-0.05-0.19-0.06
		c-0.22-0.09-0.44-0.16-0.67-0.24c-0.01,0.01-0.02,0-0.02,0c-0.88-0.26-1.81-0.43-2.76-0.54c-0.01-0.01-0.03-0.01-0.04-0.01
		c0.02-0.01,0.03-0.03,0.05-0.04c2.49-2.03,4.67-4.21,6.47-6.52c0.24-0.29,0.46-0.6,0.68-0.9c0.01,0,0.01-0.01,0.01-0.02
		c0.15-0.19,0.29-0.39,0.43-0.6c0.21-0.28,0.4-0.57,0.59-0.87c5.51-8.47,7.21-19.91,4.42-29.85c-2-7.14-5.47-11.62-11.86-15.23
		c-0.21-1.04-0.53-2.69-0.99-4.8c-1.67-7.47-5.09-13.68-6.99-16.71c-0.23-0.37-0.47-0.73-0.72-1.1c-0.67-1.04-1.4-2.04-2.14-3.02
		c-0.02-0.03-0.05-0.07-0.07-0.1c-0.03-0.04-0.05-0.08-0.08-0.12c0-0.01-0.01-0.01-0.02-0.02c-0.01-0.02-0.03-0.04-0.04-0.06
		c0,0,0-0.01-0.01-0.01c-0.31-0.51-0.63-1.01-0.96-1.5c-0.32-0.49-0.66-0.97-1-1.45c-0.23-0.32-0.47-0.65-0.7-0.96
		c-0.33-0.43-0.65-0.86-0.99-1.28c-0.27-0.33-0.53-0.67-0.81-1c-0.27-0.32-0.54-0.65-0.81-0.97c-0.29-0.31-0.56-0.63-0.84-0.94
		c-0.28-0.3-0.57-0.62-0.85-0.91c-0.58-0.59-1.15-1.17-1.74-1.73c-0.29-0.28-0.59-0.55-0.89-0.81c-0.3-0.28-0.6-0.54-0.9-0.79
		c-0.28-0.24-0.57-0.48-0.85-0.71c-0.05-0.04-0.11-0.09-0.17-0.14c-0.58-0.45-1.17-0.89-1.75-1.3c-0.63-0.44-1.25-0.87-1.88-1.28
		c-1.35-0.9-2.72-1.75-4.09-2.56c-0.39-0.24-0.79-0.47-1.18-0.69c-0.14-0.09-0.28-0.17-0.42-0.25c-0.03-0.02-0.05-0.03-0.08-0.05
		c0.04,0.01,0.07,0.01,0.12,0.01c0.44,0.06,0.9,0.09,1.36,0.09c0.12,0,0.24,0,0.36-0.01c2.14-0.07,4.23-0.78,6-2.07
		c0.09-0.06,0.17-0.12,0.26-0.18c0.01-0.01,0.03-0.02,0.04-0.03s0.02-0.01,0.03-0.02c0,0,0.01,0,0.01-0.01
		c0.04-0.02,0.06-0.04,0.1-0.06c0.04-0.03,0.07-0.05,0.1-0.07l0.01-0.01c0.01-0.01,0.01-0.01,0.02-0.02
		c0.01-0.01,0.02-0.02,0.03-0.02c0.13-0.1,0.26-0.21,0.38-0.31h0.01c0.16-0.14,0.32-0.27,0.47-0.42c0.24-0.21,0.46-0.43,0.68-0.69
		c0.08-0.09,0.16-0.18,0.24-0.28c0.1-0.12,0.21-0.25,0.31-0.38c0.14-0.19,0.27-0.38,0.4-0.57c0.4-0.6,0.73-1.23,1-1.87
		c0.01-0.01,0.02-0.03,0.01-0.04c0.09-0.2,0.16-0.41,0.23-0.61c1.58-4.56,0-9.78-4.16-12.63c-0.49-0.33-3.86-1.93-6.69-3.26
		c-2.16-1.01-4.02-1.87-4.04-1.87h-0.01c-1.25-0.47-2.49-0.9-3.77-1.25c-0.32-0.09-0.65-0.18-0.96-0.25
		c-0.24-0.06-0.48-0.11-0.72-0.16c-0.05-0.01-0.11-0.03-0.16-0.04l-0.76-0.16c-0.55-0.1-1.1-0.18-1.64-0.24h-0.06
		c-0.19-0.03-0.39-0.05-0.58-0.06c-0.13-0.02-0.27-0.03-0.41-0.03c-0.04-0.01-0.07-0.01-0.11-0.01h-0.07
		c-0.13-0.01-0.26-0.02-0.39-0.02c-0.25-0.01-0.49-0.02-0.74-0.02h-0.03c-4.06,0-7.77,1.25-11.83,3.82
		c-3.87,2.44-6.63,6.79-8.07,10.77c-0.07,0.2-0.13,0.39-0.2,0.57c-0.01,0.04-0.03,0.08-0.04,0.12c0,0.01-0.01,0.03-0.01,0.04
		c-0.13,0.41-0.25,0.8-0.39,1.2c0,0.01-0.01,0.03-0.01,0.04c-0.01,0-0.01,0-0.02,0c-1.11-0.08-2.22-0.16-3.32-0.19
		c-0.36-0.01-0.74-0.02-1.1-0.02c-1.13,0-2.26,0.03-3.37,0.1l-5.29,0.3l-0.36,0.02c-0.64,0.05-1.29,0.09-1.95,0.16
		c-0.03,0-0.06,0-0.09,0.01c-0.64,0.05-1.29,0.13-1.95,0.21c-1.01,0.13-2.02,0.29-3.03,0.47c-0.38,0.07-0.76,0.15-1.14,0.22
		c-2.67,0.56-5.35,1.29-8.04,2.19H89.2c0-0.01-0.01-0.01-0.01-0.02c-0.22-0.29-0.43-0.57-0.66-0.86c-0.12-0.14-0.24-0.3-0.36-0.45
		c-0.11-0.15-0.23-0.3-0.36-0.45c-0.48-0.61-1.01-1.21-1.56-1.85c-0.49-0.56-0.99-1.11-1.51-1.63c-0.14-0.14-0.27-0.27-0.41-0.39
		c-0.92-0.91-1.89-1.73-2.89-2.47c-0.85-0.63-1.74-1.21-2.63-1.73c-0.6-0.34-1.2-0.66-1.81-0.94c-0.6-0.29-1.21-0.54-1.82-0.76
		c-0.92-0.34-1.84-0.6-2.75-0.78c-0.3-0.06-0.59-0.13-0.88-0.18c-0.03-0.01-0.07-0.01-0.1-0.02c-0.13-0.02-0.26-0.04-0.39-0.06
		c-0.12-0.02-0.25-0.04-0.37-0.06c-0.28-0.05-0.55-0.09-0.84-0.13h-0.01c-0.27-0.04-0.54-0.07-0.81-0.09
		c-0.29-0.03-0.55-0.06-0.82-0.08c-0.13-0.01-0.27-0.03-0.4-0.04c-0.13-0.01-0.27-0.01-0.4-0.02c-0.25-0.02-0.5-0.03-0.75-0.04
		c-0.27-0.01-0.54-0.01-0.8-0.01c-0.31,0-0.62,0.01-0.92,0.02c-0.3,0.02-0.6,0.04-0.9,0.06c-0.06,0-0.11,0-0.17,0.01
		c-0.04,0-0.1,0.01-0.14,0.01c-0.3,0.02-0.59,0.05-0.88,0.09c-0.17,0.02-0.33,0.04-0.5,0.07c-0.16,0.02-0.33,0.04-0.49,0.07
		c-0.33,0.05-0.65,0.11-0.97,0.18c-0.17,0.03-0.34,0.07-0.5,0.12c-0.17,0.04-0.33,0.09-0.5,0.13c-0.02,0.01-0.04,0.01-0.06,0.02
		c-0.29,0.07-0.58,0.15-0.87,0.24c-0.08,0.02-0.15,0.04-0.23,0.07c-0.28,0.09-0.56,0.18-0.84,0.28c-0.28,0.1-0.55,0.21-0.83,0.32
		c-0.31,0.13-0.63,0.26-0.94,0.4c-0.16,0.07-0.31,0.13-0.47,0.21c-0.16,0.07-0.31,0.14-0.47,0.22c-0.38,0.2-0.77,0.4-1.15,0.61
		c-0.03,0.01-0.06,0.03-0.09,0.05c-0.02,0.01-0.03,0.02-0.05,0.03c-0.33,0.18-0.66,0.37-0.98,0.58c-0.04,0.02-0.09,0.05-0.13,0.08
		c-0.14,0.08-0.28,0.16-0.41,0.25c-0.23,0.14-0.47,0.3-0.7,0.46c-0.4,0.27-0.79,0.54-1.19,0.83c-0.28,0.21-0.56,0.42-0.84,0.63
		c-1.94,1.5-3.82,3.19-5.61,5.08v0.01c-0.51,0.54-1.02,1.09-1.52,1.66c-0.26,0.28-0.5,0.57-0.75,0.86
		c-0.12,0.15-0.24,0.29-0.36,0.44c-0.37,0.45-0.74,0.9-1.1,1.36c-0.73,0.93-1.44,1.89-2.13,2.88c-0.11,0.16-0.21,0.31-0.32,0.47
		c-0.2,0.32-0.38,0.64-0.56,0.97s-0.34,0.66-0.49,1c-2.7,6.15-0.8,13.63,4.86,17.69c2.45,1.76,5.35,2.69,8.36,2.69
		c0.07,0,0.14,0,0.21-0.01c0.05-0.01,0.11-0.01,0.16-0.02h0.05c0,0.01-0.01,0.01-0.01,0.02c-0.53,0.84-1.05,1.7-1.54,2.59
		c-2.41,4.26-4.43,9.02-5.99,14.14c-0.27,0.88-0.52,1.78-0.76,2.68c-0.12,0.49-0.25,0.97-0.36,1.47l-0.18,0.75
		c-0.11,0.49-0.22,0.96-0.33,1.46c-0.08,0.38-0.16,0.78-0.24,1.17c-0.08,0.38-0.15,0.78-0.22,1.16c-0.09,0.47-0.17,0.95-0.25,1.43
		c-1.46,8.78-1.55,17.59-0.27,26.19c0.67,4.46,2.28,9.67,4.93,15.89c1.42,3.33,3.04,6.04,4.62,8.64c0.58,0.99,1.17,1.96,1.73,2.94
		c0.91,1.65,1.77,3.32,2.51,5.18c-0.91,0.94-1.81,1.91-2.69,2.9c-0.44,0.49-0.86,0.99-1.3,1.48c-0.04,0.06-0.09,0.11-0.15,0.17
		c-0.36,0.45-0.74,0.89-1.09,1.33c-0.3,0.37-0.61,0.76-0.9,1.12c-0.02,0.03-0.04,0.05-0.06,0.08c-0.65,0.84-1.26,1.67-1.84,2.46
		c-0.17,0.24-0.33,0.48-0.49,0.71c-0.32,0.47-0.62,0.92-0.9,1.36c-0.82,1.29-1.61,2.53-2.37,3.77c-0.17,0.29-0.35,0.59-0.52,0.88
		c-0.17,0.28-0.35,0.58-0.52,0.87c-0.33,0.55-0.65,1.13-0.97,1.69c-0.02,0.05-0.04,0.08-0.06,0.12c0,0.01-0.01,0.02-0.02,0.03
		c-0.03,0.06-0.06,0.11-0.09,0.17c-0.23,0.43-0.46,0.86-0.68,1.29c-0.23,0.43-0.45,0.88-0.66,1.32c-0.18,0.39-0.36,0.77-0.55,1.16
		c0,0.02-0.01,0.03-0.02,0.06c-0.18,0.4-0.35,0.81-0.52,1.23s-0.34,0.85-0.51,1.27c-0.16,0.43-0.31,0.87-0.46,1.31l-0.63,1.92
		c0,0.01,0,0.01,0,0.01l-0.04,0.14l-0.78,3.02c-0.4,1.55-0.75,3.09-1.06,4.62c-0.12,0.57-0.23,1.15-0.33,1.71
		c-1.01,5.92-1.97,13.04-1.58,20.08c0.04,0.95,0.12,1.9,0.22,2.85c0.01,0.1,0.02,0.21,0.03,0.32c0.1,0.89,0.23,1.78,0.39,2.66
		c0.02,0.17,0.05,0.34,0.09,0.51c0.17,0.91,0.37,1.81,0.6,2.7c1.05,3.98,3.55,7.28,6.91,9.3h10.36c-0.13-0.18-0.25-0.37-0.39-0.57
		c-0.08-0.12-0.15-0.24-0.23-0.36c-8.15-12.63-9.71-27.75-4.32-42.8c0.14-0.4,0.29-0.82,0.44-1.22c0.17-0.4,0.33-0.81,0.49-1.21
		c0.04-0.1,0.08-0.19,0.12-0.29c0.13-0.32,0.26-0.62,0.39-0.92c0.19-0.41,0.37-0.8,0.55-1.2c1.7-3.55,3.68-6.63,6.35-12.03
		c1.41-2.83,3.46-14.71,3.32-15.31l-0.02-0.04l-0.16-0.41l-0.51-1.28l-0.03-0.09c-0.16-0.4-0.33-0.8-0.5-1.18v-0.01
		c-1.14-2.63-2.48-4.91-3.97-7.37c-1.51-2.53-3.08-5.13-4.42-8.28c-2.54-5.97-4.09-10.93-4.72-15.14
		c-1.23-8.29-1.15-16.79,0.26-25.25C45.13,95.43,48.4,86.53,53,79.3l0.79-1.25l0.66-1.06c0.39-0.13,0.77-0.27,1.14-0.43
		c2.44-1.02,4.58-2.71,6.16-4.93l0.31-0.43l0.23-0.33c1.17-1.66,2.29-3.23,3.39-4.47c1.46-1.66,2.91-2.76,4.48-2.76
		c1.28,0,2.84,0.67,4.62,1.98c1.62,1.18,3.42,2.28,5.59,2.28c2.78,0,5.32-1.77,8.51-4.63c4.38-3.94,4.17-7.53,1.81-11.47
		c4.9-1.59,9.91-2.6,14.92-2.88c0,0,0.13-0.01,0.3-0.02l5.3-0.3c1.07-0.07,2.15-0.1,3.22-0.1c1.23,0,2.47,0.04,3.72,0.13
		c0.1,0.01,0.21,0.01,0.31,0.02c0.9,0.06,1.8,0.14,2.71,0.25c4.72,0.54,9.44,1.65,14.05,3.18c0.3,0.1,0.6,0.2,0.9,0.31
		c2.2,0.75,4.38,1.61,6.52,2.55l8.41,4.83c0.09,0.06,0.18,0.11,0.27,0.16c0,0.01,0.01,0.01,0.01,0.01c0.01,0,0.01,0.01,0.02,0.01
		c2.77,1.59,5.03,3.03,7.11,4.49c0.6,0.42,1.17,0.85,1.75,1.32l0.01,0.01l0.01,0.01c2.83,2.28,5.52,5.11,8.01,8.44
		c0.02,0.01,0.03,0.02,0.04,0.04c0.01,0.01,0.01,0.02,0.02,0.03c0.95,1.26,1.88,2.6,2.76,4l0.14,0.22c1.09,1.43,2,2.74,2.77,3.99
		c0.11,0.17,0.23,0.35,0.34,0.55c0,0,0.02,0.01,0.02,0.02c1.84,3.03,4.78,8.61,6.25,15.19c0.45,2.06,0.78,3.69,0.97,4.71l0.25,1.39
		l1.23,0.69c0.51,0.28,1,0.57,1.47,0.89c4.7,3.01,7.36,6.74,8.97,12.52c2.57,9.13,1.01,19.62-4.05,27.39
		c-1.82,2.82-4.29,5.5-7.32,8.01c0,0-0.66,0.58-1.34,1.16c-0.53,0.45-1.06,0.9-1.3,1.1c0,0-0.02,0.9,0.03,1.9
		c0.01,0.32,0.04,0.65,0.07,0.96c0,0.17,0.01,0.34,0.03,0.52v0.01c0.45,6.74,2.16,13.8,3.53,20.44c0.48,2.26,0.9,4.49,1.24,6.63
		c0.04,0.23,0.07,0.47,0.1,0.7c0.38,2.56,0.65,5.13,0.85,7.73c0.12,1.59,0.2,3.17,0.24,4.77v0.01c0.13,4.09,0.04,8.18-0.27,12.23
		c-0.58,7.96-2.79,17.33-6.5,25.65v0.01c-0.01,0.03-0.03,0.05-0.04,0.08c0,0,0,0.01-0.01,0.03c-0.33,0.75-0.68,1.48-1.04,2.21h5.7
		c0.32-0.09,0.65-0.21,0.99-0.33c0.29-0.1,0.58-0.22,0.86-0.35c0.69-0.29,1.34-0.63,1.96-1.03c0.24-0.14,0.47-0.29,0.69-0.45
		c0.45-0.31,0.88-0.66,1.29-1.02c0.2-0.18,0.41-0.36,0.6-0.56c2.88-2.8,4.67-6.74,4.95-11.14c0.07-1.29,0.08-2.65,0.03-4.23
		c0.29-0.24,0.59-0.48,0.89-0.71c4.21-3.31,14.11-12.2,15.1-23.31C210.92,195.08,210.85,193.42,210.58,191.8z M55.25,166.54
		c-0.03,0.18-0.1,0.43-0.18,0.74c-0.36,1.23-0.72,2.68-1.08,4.22c-0.6,2.47-1.27,5.28-2,6.76c-1.34,2.71-2.53,4.85-3.58,6.74
		c-1.13,2.05-2.14,3.89-3.07,5.93c-0.18,0.39-0.36,0.81-0.53,1.22c-0.07,0.14-0.12,0.27-0.18,0.42c-0.11,0.27-0.22,0.53-0.33,0.8
		c-0.17,0.41-0.32,0.81-0.47,1.23c-0.16,0.41-0.3,0.81-0.44,1.23c-5.39,15.31-3.92,30.46,3.82,43.26c-0.56-0.06-1.16-0.16-1.74-0.3
		c-4.34-1.02-7.76-4.41-8.92-8.86c-2.4-9.11-1.1-19.66,0.3-27.83c0.31-1.8,1.48-6.73,1.48-6.73l0.17-0.78l0.14-0.49l0.34-1.16
		l0.03-0.11l0.16-0.56l0.25-0.7l0.15-0.43c0.1-0.28,0.2-0.56,0.29-0.84c1.85-5.02,4.4-9.04,7.34-13.68c1.84-2.9,4.69-6.47,7.8-9.81
		C55.08,166.72,55.17,166.63,55.25,166.54z M87.16,61.36c-3.1,2.78-5.02,3.97-6.79,3.97c-1.3,0-2.52-0.65-4.07-1.78
		c-2.37-1.74-4.37-2.48-6.14-2.48c-0.36,0-0.7,0.03-1.04,0.1h-0.01c-1.73,1.19-3.44,2.45-5.11,3.79c-0.46,0.34-0.89,0.69-1.34,1.06
		l-0.01,0.01c-0.99,1.26-1.98,2.67-3,4.11c-1.39,1.96-3.25,3.37-5.33,4.17c-0.21,0.09-0.42,0.17-0.64,0.24h-0.02
		c-1.17,0.39-2.41,0.58-3.64,0.58c-2.38,0-4.78-0.72-6.86-2.21c-5.33-3.82-6.62-11.21-2.88-16.58c2.39-3.42,5.11-6.63,8.2-9.43
		c1.13-1.02,2.3-1.98,3.53-2.88c4.6-3.37,8.89-4.91,13.84-4.91c1.91,0,3.91,0.23,6.07,0.67c4.89,0.99,9.38,4.37,12.39,7.87
		c1.28,1.49,2.32,2.78,3.13,3.92h0.01c0.26,0.38,0.51,0.74,0.73,1.09C90.72,56.65,90.11,58.71,87.16,61.36z M144.91,53.05
		L144.91,53.05l-0.32-0.04c-0.26-0.11-0.51-0.22-0.77-0.33h-0.01c-0.01,0-0.01-0.01-0.02-0.01c-0.32-0.14-0.63-0.28-0.95-0.42
		c-1.15-0.5-2.3-0.97-3.47-1.4l-0.01-0.01h-0.01c-5.83-2.2-11.71-3.71-17.4-4.41c0.13-0.39,0.25-0.79,0.41-1.22
		c1.46-4.02,4.02-7.48,6.85-9.26c3.67-2.32,6.82-3.35,10.21-3.35c1.78,0,3.69,0.28,5.82,0.88c0.82,0.22,1.66,0.49,2.51,0.79
		c0.01,0,0.02,0.01,0.03,0.01c0.32,0.12,0.63,0.23,0.96,0.36l1.26,0.49c0,0,7.96,3.71,8.86,4.32c3.57,2.43,4.52,7.36,2.11,10.97
		c-0.59,0.89-1.34,1.64-2.24,2.22l-0.07,0.05l-0.06,0.05c-1.33,0.98-2.92,1.49-4.57,1.49c-0.36,0-0.72-0.03-1.07-0.07L144.91,53.05z
		 M207.74,196.6c-0.88,9.93-10.05,18.13-13.95,21.2c-0.32,0.25-0.63,0.5-0.94,0.75l-1.17,0.95l0.06,1.5
		c0.05,1.46,0.04,2.75-0.03,3.93c-0.33,5.26-3.26,9.71-7.67,11.62c-0.77,0.33-1.55,0.59-2.31,0.77c0.01-0.02,0.02-0.04,0.03-0.07
		c3.5-8.35,5.52-17.45,6.09-25.05c0.39-5.27,0.43-10.49,0.13-15.63v-0.01c0.17-0.32,0.31-0.65,0.43-0.99
		c0.01-0.01,0.01-0.02,0.01-0.03c0.04-0.07,0.07-0.15,0.09-0.23c0-0.01,0.01-0.02,0.01-0.03c0.09-0.25,0.16-0.5,0.22-0.76
		c0.15-0.68,0.24-1.4,0.24-2.17c0-0.54-0.04-1.11-0.14-1.7c-0.03-0.2-0.07-0.4-0.11-0.61c-0.04-0.21-0.09-0.42-0.14-0.62
		c-0.04-0.14-0.07-0.27-0.11-0.41c-0.03-0.13-0.08-0.25-0.12-0.38c-0.03-0.09-0.06-0.18-0.09-0.28c-0.03-0.1-0.07-0.19-0.1-0.28
		c-0.07-0.21-0.15-0.42-0.24-0.63c-0.08-0.21-0.18-0.42-0.27-0.62c-0.09-0.21-0.19-0.41-0.3-0.62c-0.11-0.2-0.21-0.4-0.32-0.59
		c-0.11-0.2-0.22-0.4-0.34-0.59c0-0.01,0-0.01,0-0.01V185c-0.49-2.93-1.12-5.92-1.8-9.08c-1.18-5.53-2.38-11.2-2.76-16.57v-0.06
		l1.16,0.14l0.06,0.01c0.24,0.03,0.47,0.06,0.69,0.1c0.9,0.13,1.64,0.33,2.24,0.56c8.45,3.31,18.3,14.56,21.31,32.2
		C207.84,193.68,207.89,195.07,207.74,196.6z"/>
	<path style="fill:#673101;" d="M63.84,64.61c-1.41,1.57-2.76,3.52-4.19,5.53c-1.53,2.16-3.64,3.65-5.97,4.41h-0.02
		c-1.17,0.39-2.41,0.58-3.64,0.58c-2.38,0-4.78-0.72-6.86-2.21c-5.33-3.82-6.62-11.21-2.88-16.58c2.39-3.42,5.11-6.63,8.2-9.43
		c0.43,0.01,0.7,0.04,0.7,0.04c2.61,0.3,4.48,2.66,4.19,5.28c-0.12,1.16-0.7,2.14-1.48,2.89c0.92-0.66,2.05-1.04,3.26-0.9
		c2.59,0.31,4.48,2.66,4.19,5.28c-0.14,1.31-0.8,2.41-1.73,3.17c0.8-0.4,1.69-0.67,2.63-0.55c1.6,0.17,2.87,1.16,3.58,2.49H63.84z"
		/>
</g>
<g>
	<path style="fill-rule:evenodd;clip-rule:evenodd;" d="M158.81,126.6c0.22,1.36-1.04,2.69-2.83,2.98
		c-1.79,0.29-3.41-0.57-3.64-1.94c-0.22-1.35,1.05-2.69,2.84-2.98C156.98,124.38,158.6,125.25,158.81,126.6L158.81,126.6z"/>
	<g>
		<path style="fill-rule:evenodd;clip-rule:evenodd;" d="M163.9,119.08L163.9,119.08c-2.01-0.01-3.63-1.69-3.62-3.77l0-0.53
			c0.01-2.08,1.64-3.76,3.64-3.75c2.01,0.01,3.63,1.7,3.63,3.77l0,0.53C167.54,117.41,165.91,119.09,163.9,119.08L163.9,119.08z"/>
	</g>
	<g>
		<path style="fill-rule:evenodd;clip-rule:evenodd;" d="M131.2,127.12L131.2,127.12c-2.31,0.08-4.25-1.63-4.34-3.84l-0.02-0.56
			c-0.09-2.2,1.7-4.06,4.01-4.14c2.31-0.08,4.25,1.64,4.34,3.84l0.02,0.56C135.3,125.18,133.5,127.04,131.2,127.12L131.2,127.12z"/>
	</g>
	<path style="fill:#231815;" d="M172.77,132.45c-0.2-0.85-0.76-1.53-1.55-1.89c-0.77-0.36-1.77-0.12-2.12,0.65
		c-0.36,0.77-0.1,1.6,0.67,1.95c0.06,0.27-0.25,1.15-0.64,1.65c-1.03,1.29-2.91,2.24-4.92,2.47c-1.68,0.19-4.21-0.01-6.74-2.02
		c-0.25-0.2-0.53-0.31-0.83-0.33c0,0,0,0,0,0c-0.09-0.01-0.18-0.01-0.28,0c-0.01,0-0.01,0-0.02,0c-0.26,0.03-0.51,0.13-0.73,0.29
		c-0.03,0.02-0.06,0.03-0.08,0.06c-0.03,0.03-0.06,0.06-0.09,0.09c-0.04,0.04-0.09,0.08-0.12,0.13c0,0,0,0-0.01,0.01
		c-0.04,0.04-0.06,0.09-0.09,0.14c-0.02,0.04-0.05,0.07-0.07,0.1c-1.71,3.25-4.87,5.69-8.66,6.69c-3.26,0.86-6.64,0.52-8.84-0.89
		c-0.46-0.29-1.16-0.74-1.25-0.81c0,0,0.02-0.08,0.12-0.25c0.44-0.73,0.21-1.67-0.52-2.11c-0.73-0.45-1.68-0.21-2.11,0.52
		c-1.7,2.81,0.77,4.4,2.13,5.27c1.88,1.21,4.3,1.83,6.89,1.83c1.43,0,2.91-0.19,4.38-0.58c4.04-1.07,7.5-3.49,9.72-6.77
		c1.92,1.15,4.05,1.76,6.23,1.76c0.45,0,0.89-0.03,1.34-0.08c2.83-0.32,5.45-1.68,6.99-3.62
		C172.14,135.96,173.16,134.1,172.77,132.45z"/>
</g>
</svg>
