<?xml version="1.0" encoding="utf-8"?>
<!-- Generator: Adobe Illustrator 23.0.2, SVG Export Plug-In . SVG Version: 6.00 Build 0)  -->
<svg version="1.1" id="레이어_1" xmlns="http://www.w3.org/2000/svg" xmlns:xlink="http://www.w3.org/1999/xlink" x="0px"
	 y="0px" viewBox="0 0 252 385" style="enable-background:new 0 0 252 385;" xml:space="preserve">
<style type="text/css">
	.st0{fill:#008AC4;}
	.st1{fill:#0078AB;}
	.st2{fill:#FFFFFF;}
	.st3{fill:#00A2E7;}
	.st4{fill:#008BC7;}
	.st5{fill:#673101;}
	.st6{fill:#FFB400;}
	.st7{fill:#DD9900;}
	.st8{fill:#FFE4A9;}
	.st9{fill:#FFC0BB;}
</style>
<title>자산 18</title>
<g>
	<path class="st0" d="M192.7,328.4l-0.4-0.1c-9.6-1.9-22,2.4-22,2.4v-41.6h-10.1v66.2h49c3.2-11.5-3.6-23.4-15.1-26.5
		C193.7,328.6,193.2,328.5,192.7,328.4L192.7,328.4z"/>
	<g>
		<path class="st1" d="M191.7,336.3l-2.1-3.1c0.4-0.3,4.1-2.3,10.6-1.6c1.9,1.3,3.6,2.8,5,4.6C200.9,334.3,196,334.4,191.7,336.3z"
			/>
		<path class="st1" d="M196.4,346.9l-2.5-3.7c0.5-0.4,5.2-3.3,14.9-0.8c0.6,1.6,1,3.3,1.1,5C200.6,344.5,196.4,346.9,196.4,346.9z"
			/>
	</g>
	<path class="st2" d="M165.3,239.7c-2.8,0-5,2.2-5,5V289h10v-44.3C170.3,242,168.1,239.7,165.3,239.7L165.3,239.7z"/>
</g>
<g>
	<path class="st2" d="M128.7,239.7c-2.8,0-5,2.2-5,5V289h10.1v-44.3c0-2.8-2.2-5-5-5H128.7z"/>
	<path class="st3" d="M156.1,328.4l-0.4-0.1c-9.6-1.9-22,2.4-22,2.4v-41.6h-10.1v66.2h49c0.5-1.8,0.8-3.6,0.8-5.5
		C173.4,339.5,166.2,330.5,156.1,328.4z"/>
	<g>
		<path class="st4" d="M155.2,336.3l-2.2-3.1c0.4-0.3,4.1-2.3,10.7-1.6c1.9,1.3,3.6,2.8,5,4.6C164.3,334.3,159.4,334.4,155.2,336.3z
			"/>
		<path class="st4" d="M159.8,346.9l-2.5-3.7c0.6-0.4,5.2-3.3,14.9-0.8c0.6,1.6,0.9,3.3,1.1,5C164,344.5,159.8,346.9,159.8,346.9z"
			/>
	</g>
</g>
<g>
	<path class="st2" d="M109.4,84.3c-0.1,0-0.2,0-0.3-0.1c-4.9-1.1-8-6-6.9-10.9l0,0c0.9-3.9-0.9-8.8-1.6-10.3
		c-0.8-1.3-2.2-3.2-3.6-3.3c-3.2-0.3-9.1,4.4-11.9,7.8c-3.3,3.8-9.1,4.2-12.9,0.9c-3.7-3.2-4.2-8.7-1.2-12.5
		c1.3-1.6,13.2-15.5,27.3-14.4c5.1,0.4,12.4,2.9,18.1,12.5l0.3,0.5c0.6,1.2,5.7,11.7,3.2,22.7C119,82.1,114.3,85.2,109.4,84.3z"/>
	<path class="st5" d="M86.1,61.4c-0.7-0.1-1.4,0-2.1,0.3c1.7-1.1,2.2-3.4,1.1-5.1c-1.1-1.6-3.4-2.1-5.1-1l0,0
		c0.7-0.5,1.2-1.3,1.3-2.1c0.4-2-0.9-3.9-2.9-4.3l0,0c-0.2,0-0.3,0-0.5,0c-2.5,2-4.8,4.3-6.9,6.7c-3.2,3.9-2.6,9.6,1.2,12.8
		s9.6,2.6,12.8-1.2c1.1-1.3,2.4-2.5,3.7-3.6C88.4,62.6,87.4,61.7,86.1,61.4z"/>
</g>
<g>
	<path class="st2" d="M140,76l0.3-0.1c4.4-2.4,6.1-8,3.7-12.5c-1.9-3.5-1.6-8.8-1.3-10.4c0.4-1.5,1.2-3.8,2.6-4.2
		c3-1.2,10,1.8,13.6,4.3c4.2,2.8,9.9,1.7,12.7-2.5s1.7-9.8-2.4-12.6c-1.7-1.2-17.1-11.3-30.4-6.3c-4.9,1.8-11.2,6.3-14,17.2
		l-0.1,0.6c-0.2,1.3-2.2,12.9,3.2,22.9C130.2,76.5,135.6,78.2,140,76z"/>
	<path class="st5" d="M156.1,47.4c0.7-0.3,1.4-0.4,2.1-0.3c-0.9-0.3-1.7-1-2.1-1.8c-1-1.8-0.3-4,1.5-5c0.9-0.5,1.8-0.6,2.8-0.3
		c-0.8-0.3-1.5-0.9-1.9-1.7c-0.9-1.8-0.2-4,1.6-5c0,0,0,0,0.1,0c0.1-0.1,0.2-0.1,0.4-0.1c3,1.3,5.9,2.8,8.6,4.6
		c4.2,2.9,5.3,8.6,2.4,12.8c-2.9,4.2-8.6,5.3-12.8,2.4c-1.5-1-3-1.8-4.6-2.5C154.2,49.2,155,48,156.1,47.4z"/>
</g>
<g>
	<path class="st3" d="M146.1,54.9c0,0,14.7-1.8,37.8,8.6l21.1,87.2v62.4c0,20.8-25.4,37.6-56.7,37.6S91.6,234,91.6,213.2V98.1
		C91.6,98.1,91.6,54.8,146.1,54.9z"/>
	<path class="st0" d="M187,208.2L187,208.2V180c0-9.9,8.1-18,18-18v51.2c0,4.4-1.2,8.8-3.3,12.7C193.2,224.3,187,216.8,187,208.2z"
		/>
</g>
<g>
	<path class="st6" d="M91.5,165.2v-3.3H80.9c-4.4-2.9-1.9-9.7-1.9-9.7l0,0c6.2-12.7,1-28.1-11.7-34.3c-12.7-6.2-28.1-1-34.3,11.7
		c-3.2,6.6-3.5,14.3-0.7,21.1l0,0v0.1l0,0c0.3,0.8,3.8,9.5,10,14.4c0,0-4.4,2.8-8.8,11.2c-0.1,0.2-0.2,0.4-0.3,0.6s-0.2,0.4-0.4,0.7
		l0,0c-6.1,12.8-0.7,28.1,12.1,34.2c12.8,6.1,28.1,0.7,34.2-12.1c3.5-7.3,3.3-15.9-0.5-23.1c-0.5-2.4-1.4-6.3,2.2-8.4h10.6
		L91.5,165.2L91.5,165.2z M55.4,135.2c6.5,0,9.1,3.3,9.1,9.8s-2.6,10.5-9.1,10.5s-8.9-4-8.9-10.5S48.9,135.2,55.4,135.2L55.4,135.2z
		 M55.4,194.4c-6.5,0-8.9-3.3-8.9-9.8s2.4-10.5,8.9-10.5s9.1,4,9.1,10.5S61.9,194.4,55.4,194.4L55.4,194.4z"/>
	<path class="st7" d="M93.1,172.5c0,0.9-0.7,1.6-1.6,1.6l0,0c-0.9,0-1.6-0.7-1.6-1.6l0,0v-15.2c0-0.9,0.7-1.6,1.6-1.6l0,0
		c0.9,0,1.6,0.7,1.6,1.6V172.5z"/>
	<path class="st8" d="M75.9,144.9L75.9,144.9c1.3,0,2.3-1.1,2.3-2.4c0-9.6-5.5-18.2-14.2-22.3c-1.2-0.5-2.6,0.1-3.1,1.3
		c-0.5,1.2,0.1,2.6,1.3,3.1l0,0c6.9,3.3,11.4,10.3,11.3,18C73.5,143.9,74.6,144.9,75.9,144.9z"/>
</g>
<path class="st2" d="M166.9,56.9c34.4,5.1,37.1,35.9,37.5,41.2c10.3,2.2,16.5,11.9,16.5,23.2v2.4c0,16.9-13.7,30.7-30.6,30.7h-11.7
	c-29.8,0-47-22-47-49.1S146.1,54.2,166.9,56.9z"/>
<path class="st9" d="M194.3,120.5c0,9.7-7.9,17.6-17.6,17.6s-17.6-7.9-17.6-17.6s7.9-17.6,17.6-17.6l0,0
	C186.4,102.9,194.3,110.8,194.3,120.5z"/>
<g>
	<path d="M220.1,109.6c0.4,1.2,0.4,2.2-0.5,2.9s-2.6-0.3-3.1-1.6s-0.2-2.9,1-3.2S219.7,108.6,220.1,109.6z"/>
	<path d="M199.5,99.4L199.5,99.4c2,0,3.6,1.6,3.6,3.6v0.5c0,2-1.6,3.6-3.6,3.6l0,0c-2,0-3.6-1.6-3.6-3.6V103
		C195.9,101,197.5,99.4,199.5,99.4z"/>
	<path d="M210.2,125.3c4.6,0,8.5-2.6,10.5-4.3c0.8,1,1-0.9,1-1.9c-0.1-0.7-0.3-1.5-0.7-2.1c-0.1-0.1-0.2-0.2-0.4-0.2
		c-0.4,0.1-0.7,0.3-0.9,0.5c0,0.1-4.5,4.7-9.7,4.6c-2.9-0.1-5.5-1.6-7.9-4.5c-0.6-0.7-1.7-0.8-2.4-0.2s-0.8,1.7-0.2,2.4
		c3.1,3.7,6.6,5.6,10.4,5.7H210.2z"/>
</g>
<g>
	<path class="st2" d="M141.8,251c-3.6,0.9-7.7-1.1-10-5.3c-30.3-55.4-6.5-90.8-5.7-92.3c2.7-4.6,6.8-8.6,9.8-6.7
		c4.7,3,3.5,11.5,0.9,16.1c-0.7,1.2-13.1,30.2,9.9,72.3c2.8,5.1,1.8,11.7-2.4,14.6C143.6,250.4,142.7,250.8,141.8,251z"/>
	<path class="st0" d="M144.4,249.8c-0.8,0.6-1.7,1-2.6,1.2c-3.6,0.9-7.7-1.1-10-5.3c-9-16.4-13.2-31-14.7-43.5
		c5.3-2.2,11.1-3.2,16.8-3c2.2,12.6,6.5,24.8,12.8,35.9C149.5,240.4,148.5,246.9,144.4,249.8z"/>
</g>
</svg>
