<?xml version="1.0" encoding="utf-8"?>
<!-- Generator: Adobe Illustrator 23.0.2, SVG Export Plug-In . SVG Version: 6.00 Build 0)  -->
<svg version="1.1" id="Layer_1" xmlns="http://www.w3.org/2000/svg" xmlns:xlink="http://www.w3.org/1999/xlink" x="0px" y="0px"
	 viewBox="0 0 200 200" style="enable-background:new 0 0 200 200;" xml:space="preserve">
<g>
	<path style="fill:#63251C;" d="M171.3,28.7c-18.5-18.5-43-28.7-69-28.7h-4.7c-26,0-50.5,10.2-69,28.7C10.2,47.2,0,71.7,0,97.7v4.7
		c0,26,10.2,50.5,28.7,69s43,28.7,69,28.7h4.7c26,0,50.5-10.2,69-28.7s28.7-43,28.7-69v-4.7C200,71.7,189.8,47.2,171.3,28.7z"/>
	<path style="fill:#EE7706;" d="M169.8,30.2c-18.1-18.1-42.1-28.1-67.5-28.1h-4.6c-25.4,0-49.4,10-67.5,28.1s-28,42.1-28,67.5v4.6
		c0,25.4,10,49.4,28.1,67.5s42.1,28.1,67.5,28.1h4.6c25.4,0,49.4-10,67.5-28.1s28.1-42.1,28.1-67.5v-4.6
		C197.8,72.3,187.9,48.3,169.8,30.2z"/>
	<path style="fill:#BD4218;" d="M197.4,101.2c0,51.6-42.7,93.9-95,93.9h-4.7c-52.3,0-95-42.2-95-93.9v-4.7c0-51.6,42.7-93.9,95-93.9
		h4.7c52.2,0,95,42.2,95,93.9V101.2z"/>
	<path style="fill:#FFFF77;" d="M105.6,184.5c0.5,0,1.1,0,1.6-0.1c0.3,0,0.6,0,0.9-0.1c0.5,0,1-0.1,1.4-0.1c0.3,0,0.7-0.1,1-0.1
		c0.5,0,0.9-0.1,1.4-0.1c0.4,0,0.7-0.1,1.1-0.1s0.9-0.1,1.3-0.1s0.7-0.1,1.1-0.1c0.4-0.1,0.8-0.1,1.3-0.2c0.4-0.1,0.7-0.1,1.1-0.2
		c0.4-0.1,0.8-0.1,1.2-0.2c0.4-0.1,0.7-0.1,1.1-0.2c0.4-0.1,0.8-0.1,1.2-0.2c0.4-0.1,0.7-0.1,1.1-0.2c0.4-0.1,0.8-0.2,1.2-0.2
		c0.4-0.1,0.7-0.2,1.1-0.3s0.8-0.2,1.2-0.3c0.4-0.1,0.7-0.2,1.1-0.3s0.8-0.2,1.1-0.3c0.4-0.1,0.7-0.2,1.1-0.3
		c0.4-0.1,0.7-0.2,1.1-0.3c0.4-0.1,0.7-0.2,1.1-0.3c0.4-0.1,0.7-0.2,1.1-0.3c0.4-0.1,0.7-0.2,1.1-0.4c0.4-0.1,0.7-0.2,1.1-0.4
		c0.4-0.1,0.7-0.3,1.1-0.4c0.3-0.1,0.7-0.2,1-0.4c0.4-0.1,0.7-0.3,1.1-0.4c0.3-0.1,0.7-0.3,1-0.4c0.4-0.1,0.7-0.3,1.1-0.4
		c0.3-0.1,0.7-0.3,1-0.4c0.4-0.2,0.7-0.3,1.1-0.5c0.3-0.1,0.6-0.3,1-0.4c0.4-0.2,0.7-0.3,1.1-0.5c0.3-0.1,0.6-0.3,0.9-0.4
		c0.4-0.2,0.7-0.4,1.1-0.5c0.3-0.2,0.6-0.3,0.9-0.5c0.4-0.2,0.7-0.4,1.1-0.6c0.3-0.2,0.6-0.3,0.9-0.5c0.4-0.2,0.7-0.4,1.1-0.6
		c0.3-0.2,0.6-0.3,0.9-0.5c0.4-0.2,0.7-0.4,1.1-0.6c0.3-0.2,0.6-0.3,0.9-0.5c0.4-0.2,0.7-0.4,1.1-0.7c0.3-0.2,0.6-0.3,0.8-0.5
		c0.4-0.2,0.7-0.5,1.1-0.7c0.3-0.2,0.5-0.3,0.8-0.5c0.4-0.2,0.7-0.5,1.1-0.7c0.3-0.2,0.5-0.4,0.8-0.5c0.4-0.2,0.7-0.5,1.1-0.7
		c0.2-0.2,0.5-0.4,0.7-0.5c0.4-0.3,0.7-0.5,1.1-0.8c0.2-0.2,0.5-0.4,0.7-0.5c0.4-0.3,0.7-0.5,1-0.8c0.2-0.2,0.5-0.4,0.7-0.5
		c0.3-0.3,0.7-0.6,1-0.8c0.2-0.2,0.4-0.4,0.7-0.5c0.3-0.3,0.7-0.6,1-0.9c0.2-0.2,0.4-0.4,0.6-0.5c0.3-0.3,0.7-0.6,1-0.9
		c0.2-0.2,0.4-0.4,0.6-0.5c0.3-0.3,0.7-0.6,1-1c0.2-0.2,0.4-0.4,0.6-0.5c0.3-0.3,0.7-0.7,1-1c0.2-0.2,0.4-0.4,0.5-0.5
		c0.3-0.3,0.7-0.7,1-1c0.2-0.2,0.3-0.4,0.5-0.5c0.3-0.4,0.7-0.7,1-1.1c0.2-0.2,0.3-0.3,0.5-0.5c0.3-0.4,0.7-0.7,1-1.1
		c0.1-0.2,0.3-0.3,0.4-0.5c0.3-0.4,0.7-0.8,1-1.2c0.1-0.2,0.3-0.3,0.4-0.5c0.3-0.4,0.7-0.8,1-1.2c0.1-0.2,0.2-0.3,0.4-0.5
		c0.3-0.4,0.7-0.8,1-1.3c0.1-0.1,0.2-0.3,0.3-0.4c0.3-0.4,0.6-0.9,1-1.3c0.1-0.1,0.2-0.3,0.3-0.4c0.3-0.5,0.6-0.9,1-1.4
		c0.1-0.1,0.2-0.2,0.2-0.4c0.3-0.5,0.6-1,1-1.5c0.1-0.1,0.1-0.2,0.2-0.3c0.3-0.5,0.6-1,1-1.5c0.1-0.1,0.1-0.2,0.2-0.3
		c0.3-0.5,0.6-1.1,1-1.6c0-0.1,0.1-0.1,0.1-0.2c0.3-0.6,0.6-1.1,1-1.7v-0.1c6.1-11.4,9.8-24.1,10.2-37.5l0,0
		C196.3,47.2,154.1,6,102.8,6h-4.7C46.8,6,4.7,47.2,3.1,98.1l0,0c0.4,13.4,4,26.2,10.2,37.5c0,0,0,0.1,0.1,0.1
		c0.3,0.6,0.6,1.1,0.9,1.7c0,0.1,0.1,0.1,0.1,0.2c0.3,0.5,0.6,1.1,0.9,1.6c0.1,0.1,0.1,0.2,0.2,0.3c0.3,0.5,0.6,1,0.9,1.5
		c0.1,0.1,0.1,0.2,0.2,0.3c0.3,0.5,0.6,1,0.9,1.4c0.1,0.1,0.2,0.3,0.3,0.4c0.3,0.5,0.6,0.9,0.9,1.4c0.1,0.1,0.2,0.3,0.3,0.4
		c0.3,0.4,0.6,0.9,1,1.3c0.1,0.1,0.2,0.3,0.3,0.4c0.3,0.4,0.6,0.8,1,1.3c0.1,0.2,0.2,0.3,0.4,0.5c0.3,0.4,0.6,0.8,1,1.2
		c0.1,0.2,0.3,0.3,0.4,0.5c0.3,0.4,0.6,0.8,1,1.1c0.1,0.2,0.3,0.3,0.4,0.5c0.3,0.4,0.6,0.7,1,1.1c0.2,0.2,0.3,0.4,0.5,0.5
		c0.3,0.4,0.7,0.7,1,1.1c0.2,0.2,0.3,0.4,0.5,0.5c0.3,0.3,0.7,0.7,1,1c0.2,0.2,0.4,0.4,0.5,0.6c0.3,0.3,0.7,0.7,1,1
		c0.2,0.2,0.4,0.4,0.6,0.6c0.3,0.3,0.7,0.6,1,0.9c0.2,0.2,0.4,0.4,0.6,0.6c0.3,0.3,0.7,0.6,1,0.9c0.2,0.2,0.4,0.4,0.6,0.6
		c0.3,0.3,0.7,0.6,1,0.9c0.2,0.2,0.4,0.4,0.7,0.6c0.3,0.3,0.7,0.6,1,0.8c0.2,0.2,0.5,0.4,0.7,0.6c0.3,0.3,0.7,0.5,1,0.8
		c0.2,0.2,0.5,0.4,0.7,0.6c0.3,0.3,0.7,0.5,1,0.8c0.3,0.2,0.5,0.4,0.8,0.5c0.3,0.2,0.7,0.5,1,0.7s0.5,0.4,0.8,0.5
		c0.3,0.2,0.7,0.5,1,0.7s0.5,0.4,0.8,0.5c0.3,0.2,0.7,0.4,1,0.7c0.3,0.2,0.6,0.4,0.8,0.5c0.3,0.2,0.7,0.4,1.1,0.6
		c0.3,0.2,0.6,0.3,0.9,0.5c0.4,0.2,0.7,0.4,1.1,0.6c0.3,0.2,0.6,0.3,0.9,0.5c0.4,0.2,0.7,0.4,1.1,0.6c0.3,0.2,0.6,0.3,0.9,0.5
		c0.4,0.2,0.7,0.4,1.1,0.6c0.3,0.2,0.6,0.3,0.9,0.5c0.4,0.2,0.7,0.4,1.1,0.5c0.3,0.2,0.6,0.3,1,0.5s0.7,0.3,1.1,0.5
		c0.3,0.1,0.7,0.3,1,0.4c0.4,0.2,0.7,0.3,1.1,0.5c0.3,0.1,0.7,0.3,1,0.4c0.4,0.1,0.7,0.3,1.1,0.4c0.3,0.1,0.7,0.3,1,0.4
		c0.4,0.1,0.7,0.3,1.1,0.4c0.4,0.1,0.7,0.3,1.1,0.4c0.4,0.1,0.7,0.3,1.1,0.4c0.4,0.1,0.7,0.2,1.1,0.4c0.4,0.1,0.7,0.2,1.1,0.4
		c0.4,0.1,0.7,0.2,1.1,0.3s0.7,0.2,1.1,0.3s0.7,0.2,1.1,0.3s0.7,0.2,1.1,0.3s0.8,0.2,1.1,0.3c0.4,0.1,0.7,0.2,1.1,0.3
		s0.8,0.2,1.2,0.3c0.4,0.1,0.7,0.2,1.1,0.2c0.4,0.1,0.8,0.2,1.2,0.2c0.4,0.1,0.7,0.2,1.1,0.2c0.4,0.1,0.8,0.1,1.2,0.2
		c0.4,0.1,0.7,0.1,1.1,0.2c0.4,0.1,0.8,0.1,1.2,0.2c0.4,0.1,0.7,0.1,1.1,0.2c0.4,0.1,0.8,0.1,1.3,0.2c0.4,0,0.7,0.1,1.1,0.1
		c0.4,0.1,0.9,0.1,1.3,0.1c0.3,0,0.7,0.1,1,0.1c0.5,0,0.9,0.1,1.4,0.1c0.3,0,0.7,0.1,1,0.1c0.5,0,1,0.1,1.4,0.1c0.3,0,0.6,0,0.9,0.1
		c0.5,0,1.1,0,1.6,0.1c0.3,0,0.5,0,0.8,0c0.8,0,1.6,0,2.4,0h4.7c0.8,0,1.6,0,2.4,0C105.1,184.5,105.3,184.5,105.6,184.5z"/>
	<path style="fill:#FA8106;" d="M105.6,181.5c0.5,0,1.1,0,1.6-0.1c0.3,0,0.6,0,0.9-0.1c0.5,0,1-0.1,1.4-0.1c0.3,0,0.7-0.1,1-0.1
		c0.5,0,0.9-0.1,1.4-0.1c0.4,0,0.7-0.1,1.1-0.1s0.9-0.1,1.3-0.1s0.7-0.1,1.1-0.1c0.4-0.1,0.8-0.1,1.3-0.2c0.4-0.1,0.7-0.1,1.1-0.2
		c0.4-0.1,0.8-0.1,1.2-0.2c0.4-0.1,0.7-0.1,1.1-0.2c0.4-0.1,0.8-0.1,1.2-0.2c0.4-0.1,0.7-0.1,1.1-0.2c0.4-0.1,0.8-0.2,1.2-0.2
		c0.4-0.1,0.7-0.2,1.1-0.3s0.8-0.2,1.2-0.3c0.4-0.1,0.7-0.2,1.1-0.3s0.8-0.2,1.1-0.3c0.4-0.1,0.7-0.2,1.1-0.3
		c0.4-0.1,0.7-0.2,1.1-0.3c0.4-0.1,0.7-0.2,1.1-0.3c0.4-0.1,0.7-0.2,1.1-0.3c0.4-0.1,0.7-0.2,1.1-0.4c0.4-0.1,0.7-0.2,1.1-0.4
		c0.4-0.1,0.7-0.3,1.1-0.4c0.3-0.1,0.7-0.2,1-0.4c0.4-0.1,0.7-0.3,1.1-0.4c0.3-0.1,0.7-0.3,1-0.4c0.4-0.1,0.7-0.3,1.1-0.4
		c0.3-0.1,0.7-0.3,1-0.4c0.4-0.2,0.7-0.3,1.1-0.5c0.3-0.1,0.6-0.3,1-0.4c0.4-0.2,0.7-0.3,1.1-0.5c0.3-0.1,0.6-0.3,0.9-0.4
		c0.4-0.2,0.7-0.4,1.1-0.5c0.3-0.2,0.6-0.3,0.9-0.5c0.4-0.2,0.7-0.4,1.1-0.6c0.3-0.2,0.6-0.3,0.9-0.5c0.4-0.2,0.7-0.4,1.1-0.6
		c0.3-0.2,0.6-0.3,0.9-0.5c0.4-0.2,0.7-0.4,1.1-0.6c0.3-0.2,0.6-0.3,0.9-0.5c0.4-0.2,0.7-0.4,1.1-0.6c0.3-0.2,0.6-0.3,0.8-0.5
		c0.4-0.2,0.7-0.5,1.1-0.7c0.3-0.2,0.5-0.3,0.8-0.5c0.4-0.2,0.7-0.5,1.1-0.7c0.3-0.2,0.5-0.4,0.8-0.5c0.4-0.2,0.7-0.5,1.1-0.7
		c0.2-0.2,0.5-0.4,0.7-0.5c0.4-0.3,0.7-0.5,1.1-0.8c0.2-0.2,0.5-0.4,0.7-0.5c0.4-0.3,0.7-0.5,1-0.8c0.2-0.2,0.5-0.4,0.7-0.5
		c0.3-0.3,0.7-0.6,1-0.8c0.2-0.2,0.4-0.4,0.7-0.5c0.3-0.3,0.7-0.6,1-0.9c0.2-0.2,0.4-0.4,0.6-0.5c0.3-0.3,0.7-0.6,1-0.9
		c0.2-0.2,0.4-0.4,0.6-0.5c0.3-0.3,0.7-0.6,1-1c0.2-0.2,0.4-0.4,0.6-0.5c0.3-0.3,0.7-0.7,1-1c0.2-0.2,0.4-0.4,0.5-0.5
		c0.3-0.3,0.7-0.7,1-1c0.2-0.2,0.3-0.4,0.5-0.5c0.3-0.4,0.7-0.7,1-1.1c0.2-0.2,0.3-0.3,0.5-0.5c0.3-0.4,0.7-0.7,1-1.1
		c0.1-0.2,0.3-0.3,0.4-0.5c0.3-0.4,0.7-0.8,1-1.2c0.1-0.2,0.3-0.3,0.4-0.5c0.3-0.4,0.7-0.8,1-1.2c0.1-0.2,0.2-0.3,0.4-0.5
		c0.3-0.4,0.7-0.8,1-1.3c0.1-0.1,0.2-0.3,0.3-0.4c0.3-0.4,0.6-0.9,1-1.3c0.1-0.1,0.2-0.3,0.3-0.4c0.3-0.5,0.6-0.9,1-1.4
		c0.1-0.1,0.2-0.2,0.2-0.4c0.3-0.5,0.6-1,1-1.5c0.1-0.1,0.1-0.2,0.2-0.3c0.3-0.5,0.6-1,1-1.5c0.1-0.1,0.1-0.2,0.2-0.3
		c0.3-0.5,0.6-1.1,1-1.6c0-0.1,0.1-0.1,0.1-0.2c0.3-0.6,0.6-1.1,1-1.7v-0.1c6.1-11.4,9.8-24.1,10.2-37.5l0,0
		c-1.5-50.9-43.7-92.1-95-92.1h-4.7c-51.3,0-93.4,41.2-95,92.1l0,0c0.4,13.4,4,26.2,10.2,37.5c0,0,0,0.1,0.1,0.1
		c0.3,0.6,0.6,1.1,0.9,1.7c0,0.1,0.1,0.1,0.1,0.2c0.3,0.5,0.6,1.1,0.9,1.6c0.1,0.1,0.1,0.2,0.2,0.3c0.3,0.5,0.6,1,0.9,1.5
		c0.1,0.1,0.1,0.2,0.2,0.3c0.3,0.5,0.6,1,0.9,1.4c0.1,0.1,0.2,0.3,0.3,0.4c0.3,0.5,0.6,0.9,0.9,1.4c0.1,0.1,0.2,0.3,0.3,0.4
		c0.3,0.4,0.6,0.9,1,1.3c0.1,0.1,0.2,0.3,0.3,0.4c0.3,0.4,0.6,0.8,1,1.3c0.1,0.2,0.2,0.3,0.4,0.5c0.3,0.4,0.6,0.8,1,1.2
		c0.1,0.2,0.3,0.3,0.4,0.5c0.3,0.4,0.6,0.8,1,1.1c0.1,0.2,0.3,0.4,0.4,0.5c0.3,0.4,0.6,0.7,1,1.1c0.2,0.2,0.3,0.4,0.5,0.5
		c0.3,0.4,0.7,0.7,1,1.1c0.2,0.2,0.3,0.4,0.5,0.5c0.3,0.3,0.7,0.7,1,1c0.2,0.2,0.4,0.4,0.5,0.6c0.3,0.3,0.7,0.7,1,1
		c0.2,0.2,0.4,0.4,0.6,0.6c0.3,0.3,0.7,0.6,1,0.9c0.2,0.2,0.4,0.4,0.6,0.6c0.3,0.3,0.7,0.6,1,0.9c0.2,0.2,0.4,0.4,0.6,0.6
		c0.3,0.3,0.7,0.6,1,0.9c0.2,0.2,0.4,0.4,0.7,0.6c0.3,0.3,0.7,0.6,1,0.8c0.2,0.2,0.5,0.4,0.7,0.6c0.3,0.3,0.7,0.5,1,0.8
		c0.2,0.2,0.5,0.4,0.7,0.6c0.3,0.3,0.7,0.5,1,0.8c0.3,0.2,0.5,0.4,0.8,0.5c0.3,0.2,0.7,0.5,1,0.7s0.5,0.4,0.8,0.5
		c0.3,0.2,0.7,0.5,1,0.7s0.5,0.4,0.8,0.5c0.3,0.2,0.7,0.4,1,0.7c0.3,0.2,0.6,0.4,0.8,0.5c0.3,0.2,0.7,0.4,1.1,0.6
		c0.3,0.2,0.6,0.3,0.9,0.5c0.4,0.2,0.7,0.4,1.1,0.6c0.3,0.2,0.6,0.3,0.9,0.5c0.4,0.2,0.7,0.4,1.1,0.6c0.3,0.2,0.6,0.3,0.9,0.5
		c0.4,0.2,0.7,0.4,1.1,0.6c0.3,0.2,0.6,0.3,0.9,0.5c0.4,0.2,0.7,0.4,1.1,0.5c0.3,0.2,0.6,0.3,1,0.5s0.7,0.3,1.1,0.5
		c0.3,0.1,0.7,0.3,1,0.4c0.4,0.2,0.7,0.3,1.1,0.5c0.3,0.1,0.7,0.3,1,0.4c0.4,0.1,0.7,0.3,1.1,0.4c0.3,0.1,0.7,0.3,1,0.4
		c0.4,0.1,0.7,0.3,1.1,0.4c0.4,0.1,0.7,0.3,1.1,0.4c0.4,0.1,0.7,0.3,1.1,0.4c0.4,0.1,0.7,0.2,1.1,0.4c0.4,0.1,0.7,0.2,1.1,0.4
		c0.4,0.1,0.7,0.2,1.1,0.3s0.7,0.2,1.1,0.3s0.7,0.2,1.1,0.3s0.7,0.2,1.1,0.3s0.8,0.2,1.1,0.3c0.4,0.1,0.7,0.2,1.1,0.3
		s0.8,0.2,1.2,0.3c0.4,0.1,0.7,0.2,1.1,0.2c0.4,0.1,0.8,0.2,1.2,0.2c0.4,0.1,0.7,0.2,1.1,0.2c0.4,0.1,0.8,0.1,1.2,0.2
		c0.4,0.1,0.7,0.1,1.1,0.2c0.4,0.1,0.8,0.1,1.2,0.2c0.4,0.1,0.7,0.1,1.1,0.2c0.4,0.1,0.8,0.1,1.3,0.2c0.4,0,0.7,0.1,1.1,0.1
		c0.4,0.1,0.9,0.1,1.3,0.1c0.3,0,0.7,0.1,1,0.1c0.5,0,0.9,0.1,1.4,0.1c0.3,0,0.7,0.1,1,0.1c0.5,0,1,0.1,1.4,0.1c0.3,0,0.6,0,0.9,0.1
		c0.5,0,1.1,0,1.6,0.1c0.3,0,0.5,0,0.8,0c0.8,0,1.6,0,2.4,0h4.7c0.8,0,1.6,0,2.4,0C105.1,181.5,105.3,181.5,105.6,181.5z"/>
	<path style="fill:#F8C82C;" d="M105.6,181.5c0.5,0,1.1,0,1.6-0.1c0.3,0,0.6,0,0.9-0.1c0.5,0,1-0.1,1.4-0.1c0.3,0,0.7-0.1,1-0.1
		c0.5,0,0.9-0.1,1.4-0.1c0.4,0,0.7-0.1,1.1-0.1s0.9-0.1,1.3-0.1s0.7-0.1,1.1-0.1c0.4-0.1,0.8-0.1,1.3-0.2c0.4-0.1,0.7-0.1,1.1-0.2
		c0.4-0.1,0.8-0.1,1.2-0.2c0.4-0.1,0.7-0.1,1.1-0.2c0.4-0.1,0.8-0.1,1.2-0.2c0.4-0.1,0.7-0.1,1.1-0.2c0.4-0.1,0.8-0.2,1.2-0.2
		c0.4-0.1,0.7-0.2,1.1-0.3s0.8-0.2,1.2-0.3c0.4-0.1,0.7-0.2,1.1-0.3s0.8-0.2,1.1-0.3c0.4-0.1,0.7-0.2,1.1-0.3
		c0.4-0.1,0.7-0.2,1.1-0.3c0.4-0.1,0.7-0.2,1.1-0.3c0.4-0.1,0.7-0.2,1.1-0.3c0.4-0.1,0.7-0.2,1.1-0.4c0.4-0.1,0.7-0.2,1.1-0.4
		c0.4-0.1,0.7-0.3,1.1-0.4c0.3-0.1,0.7-0.2,1-0.4c0.4-0.1,0.7-0.3,1.1-0.4c0.3-0.1,0.7-0.3,1-0.4c0.4-0.1,0.7-0.3,1.1-0.4
		c0.3-0.1,0.7-0.3,1-0.4c0.4-0.2,0.7-0.3,1.1-0.5c0.3-0.1,0.6-0.3,1-0.4c0.4-0.2,0.7-0.3,1.1-0.5c0.3-0.1,0.6-0.3,0.9-0.4
		c0.4-0.2,0.7-0.4,1.1-0.5c0.3-0.2,0.6-0.3,0.9-0.5c0.4-0.2,0.7-0.4,1.1-0.6c0.3-0.2,0.6-0.3,0.9-0.5c0.4-0.2,0.7-0.4,1.1-0.6
		c0.3-0.2,0.6-0.3,0.9-0.5c0.4-0.2,0.7-0.4,1.1-0.6c0.3-0.2,0.6-0.3,0.9-0.5c0.4-0.2,0.7-0.4,1.1-0.6c0.3-0.2,0.6-0.3,0.8-0.5
		c0.4-0.2,0.7-0.5,1.1-0.7c0.3-0.2,0.5-0.3,0.8-0.5c0.4-0.2,0.7-0.5,1.1-0.7c0.3-0.2,0.5-0.4,0.8-0.5c0.4-0.2,0.7-0.5,1.1-0.7
		c0.2-0.2,0.5-0.4,0.7-0.5c0.4-0.3,0.7-0.5,1.1-0.8c0.2-0.2,0.5-0.4,0.7-0.5c0.4-0.3,0.7-0.5,1-0.8c0.2-0.2,0.5-0.4,0.7-0.5
		c0.3-0.3,0.7-0.6,1-0.8c0.2-0.2,0.4-0.4,0.7-0.5c0.3-0.3,0.7-0.6,1-0.9c0.2-0.2,0.4-0.4,0.6-0.5c0.3-0.3,0.7-0.6,1-0.9
		c0.2-0.2,0.4-0.4,0.6-0.5c0.3-0.3,0.7-0.6,1-1c0.2-0.2,0.4-0.4,0.6-0.5c0.3-0.3,0.7-0.7,1-1c0.2-0.2,0.4-0.4,0.5-0.5
		c0.3-0.3,0.7-0.7,1-1c0.2-0.2,0.3-0.4,0.5-0.5c0.3-0.4,0.7-0.7,1-1.1c0.2-0.2,0.3-0.3,0.5-0.5c0.3-0.4,0.7-0.7,1-1.1
		c0.1-0.2,0.3-0.3,0.4-0.5c0.3-0.4,0.7-0.8,1-1.2c0.1-0.2,0.3-0.3,0.4-0.5c0.3-0.4,0.7-0.8,1-1.2c0.1-0.2,0.2-0.3,0.4-0.5
		c0.3-0.4,0.7-0.8,1-1.3c0.1-0.1,0.2-0.3,0.3-0.4c0.3-0.4,0.6-0.9,1-1.3c0.1-0.1,0.2-0.3,0.3-0.4c0.3-0.5,0.6-0.9,1-1.4
		c0.1-0.1,0.2-0.2,0.2-0.4c0.3-0.5,0.6-1,1-1.5c0.1-0.1,0.1-0.2,0.2-0.3c0.3-0.5,0.6-1,1-1.5c0.1-0.1,0.1-0.2,0.2-0.3
		c0.3-0.5,0.6-1.1,1-1.6c0-0.1,0.1-0.1,0.1-0.2c0.3-0.6,0.6-1.1,1-1.7v-0.1c6.1-11.4,9.8-24.1,10.2-37.5l0,0
		c-1.5-50.9-43.7-92.1-95-92.1h-4.7c-51.3,0-93.4,41.2-95,92.1l0,0c0.4,13.4,4,26.2,10.2,37.5c0,0,0,0.1,0.1,0.1
		c0.3,0.6,0.6,1.1,0.9,1.7c0,0.1,0.1,0.1,0.1,0.2c0.3,0.5,0.6,1.1,0.9,1.6c0.1,0.1,0.1,0.2,0.2,0.3c0.3,0.5,0.6,1,0.9,1.5
		c0.1,0.1,0.1,0.2,0.2,0.3c0.3,0.5,0.6,1,0.9,1.4c0.1,0.1,0.2,0.3,0.3,0.4c0.3,0.5,0.6,0.9,0.9,1.4c0.1,0.1,0.2,0.3,0.3,0.4
		c0.3,0.4,0.6,0.9,1,1.3c0.1,0.1,0.2,0.3,0.3,0.4c0.3,0.4,0.6,0.8,1,1.3c0.1,0.2,0.2,0.3,0.4,0.5c0.3,0.4,0.6,0.8,1,1.2
		c0.1,0.2,0.3,0.3,0.4,0.5c0.3,0.4,0.6,0.8,1,1.1c0.1,0.2,0.3,0.4,0.4,0.5c0.3,0.4,0.6,0.7,1,1.1c0.2,0.2,0.3,0.4,0.5,0.5
		c0.3,0.4,0.7,0.7,1,1.1c0.2,0.2,0.3,0.4,0.5,0.5c0.3,0.3,0.7,0.7,1,1c0.2,0.2,0.4,0.4,0.5,0.6c0.3,0.3,0.7,0.7,1,1
		c0.2,0.2,0.4,0.4,0.6,0.6c0.3,0.3,0.7,0.6,1,0.9c0.2,0.2,0.4,0.4,0.6,0.6c0.3,0.3,0.7,0.6,1,0.9c0.2,0.2,0.4,0.4,0.6,0.6
		c0.3,0.3,0.7,0.6,1,0.9c0.2,0.2,0.4,0.4,0.7,0.6c0.3,0.3,0.7,0.6,1,0.8c0.2,0.2,0.5,0.4,0.7,0.6c0.3,0.3,0.7,0.5,1,0.8
		c0.2,0.2,0.5,0.4,0.7,0.6c0.3,0.3,0.7,0.5,1,0.8c0.3,0.2,0.5,0.4,0.8,0.5c0.3,0.2,0.7,0.5,1,0.7s0.5,0.4,0.8,0.5
		c0.3,0.2,0.7,0.5,1,0.7s0.5,0.4,0.8,0.5c0.3,0.2,0.7,0.4,1,0.7c0.3,0.2,0.6,0.4,0.8,0.5c0.3,0.2,0.7,0.4,1.1,0.6
		c0.3,0.2,0.6,0.3,0.9,0.5c0.4,0.2,0.7,0.4,1.1,0.6c0.3,0.2,0.6,0.3,0.9,0.5c0.4,0.2,0.7,0.4,1.1,0.6c0.3,0.2,0.6,0.3,0.9,0.5
		c0.4,0.2,0.7,0.4,1.1,0.6c0.3,0.2,0.6,0.3,0.9,0.5c0.4,0.2,0.7,0.4,1.1,0.5c0.3,0.2,0.6,0.3,1,0.5s0.7,0.3,1.1,0.5
		c0.3,0.1,0.7,0.3,1,0.4c0.4,0.2,0.7,0.3,1.1,0.5c0.3,0.1,0.7,0.3,1,0.4c0.4,0.1,0.7,0.3,1.1,0.4c0.3,0.1,0.7,0.3,1,0.4
		c0.4,0.1,0.7,0.3,1.1,0.4c0.4,0.1,0.7,0.3,1.1,0.4c0.4,0.1,0.7,0.3,1.1,0.4c0.4,0.1,0.7,0.2,1.1,0.4c0.4,0.1,0.7,0.2,1.1,0.4
		c0.4,0.1,0.7,0.2,1.1,0.3s0.7,0.2,1.1,0.3s0.7,0.2,1.1,0.3s0.7,0.2,1.1,0.3s0.8,0.2,1.1,0.3c0.4,0.1,0.7,0.2,1.1,0.3
		s0.8,0.2,1.2,0.3c0.4,0.1,0.7,0.2,1.1,0.2c0.4,0.1,0.8,0.2,1.2,0.2c0.4,0.1,0.7,0.2,1.1,0.2c0.4,0.1,0.8,0.1,1.2,0.2
		c0.4,0.1,0.7,0.1,1.1,0.2c0.4,0.1,0.8,0.1,1.2,0.2c0.4,0.1,0.7,0.1,1.1,0.2c0.4,0.1,0.8,0.1,1.3,0.2c0.4,0,0.7,0.1,1.1,0.1
		c0.4,0.1,0.9,0.1,1.3,0.1c0.3,0,0.7,0.1,1,0.1c0.5,0,0.9,0.1,1.4,0.1c0.3,0,0.7,0.1,1,0.1c0.5,0,1,0.1,1.4,0.1c0.3,0,0.6,0,0.9,0.1
		c0.5,0,1.1,0,1.6,0.1c0.3,0,0.5,0,0.8,0c0.8,0,1.6,0,2.4,0h4.7c0.8,0,1.6,0,2.4,0C105.1,181.5,105.3,181.5,105.6,181.5z M7.9,90.5
		C7.9,44,49.3,5.9,100,5.9s92.1,38.1,92.1,84.6s-41.4,84.6-92.1,84.6S7.9,137,7.9,90.5z"/>
	<path style="fill:#FDBE0B;" d="M8,87.2c18.5-25,52.8-41.8,92-41.8s73.5,16.8,92,41.8c-1.1-26.7-15.9-50.3-38.1-65.1l0,0
		c-1.1-0.8-2.3-1.5-3.5-2.2l-0.1-0.1c-1.2-0.7-2.3-1.4-3.5-2c-0.1,0-0.1-0.1-0.2-0.1c-1.2-0.6-2.4-1.2-3.6-1.8
		c-0.1,0-0.2-0.1-0.3-0.1c-1.2-0.6-2.4-1.1-3.6-1.7c-0.1,0-0.2-0.1-0.3-0.1c-1.2-0.5-2.4-1-3.7-1.5c-0.1,0-0.2-0.1-0.4-0.1
		c-1.2-0.5-2.5-0.9-3.7-1.3c-0.1,0-0.3-0.1-0.4-0.1c-1.3-0.4-2.5-0.8-3.8-1.2c-0.1,0-0.3-0.1-0.4-0.1c-1.3-0.4-2.6-0.7-3.9-1
		c-0.1,0-0.3-0.1-0.4-0.1c-1.3-0.3-2.6-0.6-4-0.8c-0.1,0-0.2,0-0.4-0.1c-1.3-0.2-2.7-0.5-4.1-0.7c-0.1,0-0.2,0-0.3,0
		c-1.4-0.2-2.8-0.4-4.2-0.5c-0.1,0-0.2,0-0.2,0c-1.4-0.1-2.9-0.2-4.3-0.3h-0.1c-1.5-0.1-3-0.1-4.5-0.1s-3,0-4.5,0.1h-0.1
		c-1.5,0.1-2.9,0.2-4.3,0.3c-0.1,0-0.2,0-0.2,0c-1.4,0.1-2.8,0.3-4.2,0.5c-0.1,0-0.2,0-0.3,0c-1.4,0.2-2.7,0.4-4.1,0.7
		c-0.1,0-0.2,0-0.4,0.1c-1.3,0.2-2.7,0.5-4,0.8c-0.1,0-0.3,0.1-0.4,0.1c-1.3,0.3-2.6,0.6-3.9,1c-0.1,0-0.3,0.1-0.4,0.1
		c-1.3,0.4-2.6,0.8-3.8,1.2c-0.1,0-0.2,0.1-0.4,0.1c-1.3,0.4-2.5,0.9-3.8,1.3c-0.1,0-0.2,0.1-0.3,0.1c-1.2,0.5-2.5,1-3.7,1.5
		c-0.1,0-0.2,0.1-0.3,0.1c-1.2,0.5-2.4,1.1-3.6,1.7c-0.1,0-0.2,0.1-0.2,0.1c-1.2,0.6-2.4,1.2-3.6,1.9c-0.1,0-0.1,0.1-0.2,0.1
		c-1.2,0.7-2.4,1.3-3.6,2c0,0,0,0-0.1,0C25.5,34.3,9.2,59,8,87.2z"/>
	<path style="fill:#FED70E;" d="M98.1,11.6c-36.8,0-67.7,25.2-75.1,59.9c19.3-16.1,46.7-26.2,77-26.2s57.7,10,77.1,26.1
		c-7.4-34.7-38.4-59.9-75.1-59.9h-3.9V11.6z"/>
	<path style="fill:#FBA708;" d="M100,45.3c-30.3,0-57.7,10-77.1,26.1c-0.9,4.4-1.5,9-1.7,13.7l0,0c0.3,10.9,3.3,21.2,8.2,30.4
		c0,0,0,0.1,0.1,0.1c0.2,0.5,0.5,0.9,0.8,1.4c0,0.1,0.1,0.1,0.1,0.2c0.2,0.4,0.5,0.9,0.8,1.3c0,0.1,0.1,0.2,0.1,0.2
		c0.2,0.4,0.5,0.8,0.8,1.2c0.1,0.1,0.1,0.2,0.2,0.3c0.2,0.4,0.5,0.8,0.8,1.2c0.1,0.1,0.1,0.2,0.2,0.3c0.3,0.4,0.5,0.7,0.8,1.1
		c0.1,0.1,0.2,0.2,0.2,0.3c0.3,0.4,0.5,0.7,0.8,1.1c0.1,0.1,0.2,0.2,0.3,0.4c0.3,0.3,0.5,0.7,0.8,1c0.1,0.1,0.2,0.3,0.3,0.4
		c0.3,0.3,0.5,0.6,0.8,1c0.1,0.1,0.2,0.3,0.3,0.4c0.3,0.3,0.5,0.6,0.8,0.9c0.1,0.1,0.2,0.3,0.4,0.4c0.3,0.3,0.5,0.6,0.8,0.9
		c0.1,0.1,0.3,0.3,0.4,0.4c0.3,0.3,0.5,0.6,0.8,0.9c0.1,0.1,0.3,0.3,0.4,0.4c0.3,0.3,0.5,0.6,0.8,0.8c0.1,0.1,0.3,0.3,0.4,0.4
		c0.3,0.3,0.5,0.5,0.8,0.8c0.2,0.2,0.3,0.3,0.5,0.5c0.3,0.3,0.5,0.5,0.8,0.8c0.2,0.2,0.3,0.3,0.5,0.5c0.3,0.2,0.5,0.5,0.8,0.7
		c0.2,0.2,0.3,0.3,0.5,0.5c0.3,0.2,0.5,0.5,0.8,0.7c0.2,0.2,0.4,0.3,0.5,0.5c0.3,0.2,0.5,0.5,0.8,0.7c0.2,0.2,0.4,0.3,0.6,0.5
		c0.3,0.2,0.6,0.4,0.8,0.6c0.2,0.1,0.4,0.3,0.6,0.4c0.3,0.2,0.6,0.4,0.8,0.6c0.2,0.1,0.4,0.3,0.6,0.4c0.3,0.2,0.6,0.4,0.8,0.6
		c0.2,0.1,0.4,0.3,0.6,0.4c0.3,0.2,0.6,0.4,0.8,0.6c0.2,0.1,0.4,0.3,0.7,0.4c0.3,0.2,0.6,0.4,0.8,0.5s0.5,0.3,0.7,0.4
		c0.3,0.2,0.6,0.3,0.8,0.5c0.2,0.1,0.5,0.3,0.7,0.4c0.3,0.2,0.6,0.3,0.9,0.5c0.2,0.1,0.5,0.3,0.7,0.4c0.3,0.2,0.6,0.3,0.9,0.5
		c0.2,0.1,0.5,0.3,0.7,0.4c0.3,0.2,0.6,0.3,0.9,0.4c0.3,0.1,0.5,0.3,0.8,0.4c0.3,0.1,0.6,0.3,0.9,0.4c0.3,0.1,0.5,0.2,0.8,0.4
		c0.3,0.1,0.6,0.3,0.9,0.4c0.3,0.1,0.5,0.2,0.8,0.4c0.3,0.1,0.6,0.3,0.9,0.4c0.3,0.1,0.5,0.2,0.8,0.3s0.6,0.2,0.9,0.4
		c0.3,0.1,0.6,0.2,0.8,0.3c0.3,0.1,0.6,0.2,0.9,0.3s0.6,0.2,0.9,0.3s0.6,0.2,0.9,0.3s0.6,0.2,0.9,0.3s0.6,0.2,0.9,0.3
		s0.6,0.2,0.9,0.3s0.6,0.2,0.9,0.3s0.6,0.2,0.9,0.3s0.6,0.2,0.9,0.2c0.3,0.1,0.6,0.2,0.9,0.2c0.3,0.1,0.6,0.2,0.9,0.2
		c0.3,0.1,0.6,0.1,0.9,0.2c0.3,0.1,0.6,0.1,0.9,0.2c0.3,0.1,0.6,0.1,1,0.2c0.3,0.1,0.6,0.1,0.9,0.2c0.3,0.1,0.7,0.1,1,0.2
		c0.3,0.1,0.6,0.1,0.9,0.2c0.3,0.1,0.7,0.1,1,0.2c0.3,0,0.6,0.1,0.9,0.1s0.7,0.1,1,0.1s0.6,0.1,0.9,0.1c0.4,0,0.7,0.1,1.1,0.1
		c0.3,0,0.6,0.1,0.8,0.1c0.4,0,0.7,0.1,1.1,0.1c0.3,0,0.5,0,0.8,0.1c0.4,0,0.8,0,1.2,0.1c0.3,0,0.5,0,0.8,0c0.4,0,0.9,0,1.3,0
		c0.2,0,0.4,0,0.6,0c0.7,0,1.3,0,2,0h3.8c0.7,0,1.3,0,2,0c0.2,0,0.4,0,0.7,0c0.4,0,0.9,0,1.3,0c0.3,0,0.5,0,0.8,0
		c0.4,0,0.8,0,1.2-0.1c0.3,0,0.5,0,0.8-0.1c0.4,0,0.7-0.1,1.1-0.1c0.3,0,0.6-0.1,0.9-0.1c0.4,0,0.7-0.1,1.1-0.1
		c0.3,0,0.6-0.1,0.9-0.1s0.7-0.1,1-0.1s0.6-0.1,0.9-0.1c0.3-0.1,0.7-0.1,1-0.2c0.3-0.1,0.6-0.1,0.9-0.2c0.3-0.1,0.7-0.1,1-0.2
		c0.3-0.1,0.6-0.1,0.9-0.2c0.3-0.1,0.6-0.1,1-0.2c0.3-0.1,0.6-0.1,0.9-0.2c0.3-0.1,0.6-0.1,0.9-0.2c0.3-0.1,0.6-0.2,0.9-0.2
		c0.3-0.1,0.6-0.2,0.9-0.2c0.3-0.1,0.6-0.2,0.9-0.2c0.3-0.1,0.6-0.2,0.9-0.3s0.6-0.2,0.9-0.3s0.6-0.2,0.9-0.3s0.6-0.2,0.9-0.3
		s0.6-0.2,0.9-0.3c0.3-0.1,0.6-0.2,0.9-0.3c0.3-0.1,0.6-0.2,0.8-0.3c0.3-0.1,0.6-0.2,0.9-0.3c0.3-0.1,0.6-0.2,0.8-0.3
		c0.3-0.1,0.6-0.2,0.9-0.4c0.3-0.1,0.5-0.2,0.8-0.3s0.6-0.3,0.9-0.4c0.3-0.1,0.5-0.2,0.8-0.3s0.6-0.3,0.9-0.4
		c0.3-0.1,0.5-0.2,0.8-0.4c0.3-0.1,0.6-0.3,0.9-0.4c0.3-0.1,0.5-0.2,0.7-0.4c0.3-0.1,0.6-0.3,0.9-0.5c0.2-0.1,0.5-0.3,0.7-0.4
		c0.3-0.2,0.6-0.3,0.9-0.5c0.2-0.1,0.5-0.3,0.7-0.4c0.3-0.2,0.6-0.3,0.9-0.5c0.2-0.1,0.5-0.3,0.7-0.4c0.3-0.2,0.6-0.4,0.9-0.5
		c0.2-0.1,0.4-0.3,0.7-0.4c0.3-0.2,0.6-0.4,0.9-0.5c0.2-0.1,0.4-0.3,0.6-0.4c0.3-0.2,0.6-0.4,0.9-0.6c0.2-0.1,0.4-0.3,0.6-0.4
		c0.3-0.2,0.6-0.4,0.9-0.6c0.2-0.1,0.4-0.3,0.6-0.4c0.3-0.2,0.6-0.4,0.9-0.6c0.2-0.1,0.4-0.3,0.6-0.4c0.3-0.2,0.6-0.4,0.8-0.7
		c0.2-0.1,0.4-0.3,0.6-0.4c0.3-0.2,0.6-0.5,0.8-0.7c0.2-0.1,0.4-0.3,0.5-0.4c0.3-0.2,0.6-0.5,0.8-0.7c0.2-0.1,0.3-0.3,0.5-0.4
		c0.3-0.2,0.6-0.5,0.8-0.7c0.2-0.1,0.3-0.3,0.5-0.4c0.3-0.3,0.6-0.5,0.8-0.8c0.2-0.1,0.3-0.3,0.5-0.4c0.3-0.3,0.5-0.5,0.8-0.8
		c0.1-0.1,0.3-0.3,0.4-0.4c0.3-0.3,0.5-0.6,0.8-0.8c0.1-0.1,0.3-0.3,0.4-0.4c0.3-0.3,0.5-0.6,0.8-0.9c0.1-0.1,0.2-0.3,0.4-0.4
		c0.3-0.3,0.5-0.6,0.8-0.9c0.1-0.1,0.2-0.3,0.3-0.4c0.3-0.3,0.5-0.6,0.8-0.9c0.1-0.1,0.2-0.3,0.3-0.4c0.3-0.3,0.5-0.7,0.8-1
		c0.1-0.1,0.2-0.3,0.3-0.4c0.3-0.3,0.5-0.7,0.8-1c0.1-0.1,0.2-0.2,0.3-0.4c0.3-0.4,0.5-0.7,0.8-1.1c0.1-0.1,0.2-0.2,0.2-0.3
		c0.3-0.4,0.5-0.7,0.8-1.1c0.1-0.1,0.1-0.2,0.2-0.3c0.3-0.4,0.5-0.8,0.8-1.2c0.1-0.1,0.1-0.2,0.2-0.3c0.3-0.4,0.5-0.8,0.8-1.2
		c0-0.1,0.1-0.1,0.1-0.2c0.3-0.4,0.5-0.9,0.8-1.3c0,0,0.1-0.1,0.1-0.2c0.3-0.5,0.5-0.9,0.8-1.4v-0.1c5-9.2,7.9-19.5,8.2-30.4l0,0
		c-0.1-4.7-0.7-9.2-1.7-13.7C157.7,55.4,130.3,45.3,100,45.3z"/>
	<path style="fill:#FFFF77;" d="M101,9.9c40.5,0,75.1,23.3,87.4,56.9c-5.8-18.2-18.1-33.9-34.5-44.8l0,0c-1.1-0.8-2.3-1.5-3.5-2.2
		l-0.1-0.1c-1.2-0.7-2.3-1.4-3.5-2c-0.1,0-0.1-0.1-0.2-0.1c-1.2-0.6-2.4-1.2-3.6-1.8c-0.1,0-0.2-0.1-0.3-0.1
		c-1.2-0.6-2.4-1.1-3.6-1.7c-0.1,0-0.2-0.1-0.3-0.1c-1.2-0.5-2.4-1-3.7-1.5c-0.1,0-0.2-0.1-0.4-0.1c-1.2-0.5-2.5-0.9-3.7-1.3
		c-0.1,0-0.3-0.1-0.4-0.1c-1.3-0.4-2.5-0.8-3.8-1.2c-0.1,0-0.3-0.1-0.4-0.1c-1.3-0.4-2.6-0.7-3.9-1c-0.1,0-0.3-0.1-0.4-0.1
		c-1.3-0.3-2.6-0.6-4-0.8c-0.1,0-0.2,0-0.4-0.1c-1.3-0.2-2.7-0.5-4.1-0.7c-0.1,0-0.2,0-0.3,0c-1.4-0.2-2.8-0.4-4.2-0.5
		c-0.1,0-0.2,0-0.2,0c-1.4-0.1-2.9-0.2-4.3-0.3h-0.1C103,6,101.5,6,100,6s-3,0-4.5,0.1h-0.1c-1.5,0.1-2.9,0.2-4.3,0.3
		c-0.1,0-0.2,0-0.2,0c-1.4,0.1-2.8,0.3-4.2,0.5c-0.1,0-0.2,0-0.3,0c-1.4,0.2-2.7,0.4-4.1,0.7c-0.1,0-0.2,0-0.4,0.1
		c-1.3,0.2-2.7,0.5-4,0.8c-0.1,0-0.3,0.1-0.4,0.1c-1.3,0.3-2.6,0.6-3.9,1c-0.1,0-0.3,0.1-0.4,0.1c-1.3,0.4-2.6,0.8-3.8,1.2
		c-0.1,0-0.2,0.1-0.4,0.1c-1.3,0.4-2.5,0.9-3.8,1.3c-0.1,0-0.2,0.1-0.3,0.1c-1.2,0.5-2.5,1-3.7,1.5c-0.1,0-0.2,0.1-0.3,0.1
		c-1.2,0.5-2.4,1.1-3.6,1.7c-0.1,0-0.2,0.1-0.2,0.1c-1.2,0.6-2.4,1.2-3.6,1.9c-0.1,0-0.1,0.1-0.2,0.1c-1.2,0.7-2.4,1.3-3.6,2
		c0,0,0,0-0.1,0C25.5,34.3,9.2,59,8,87.2c0.4-0.6-0.1-0.2,0.3-0.7C12.8,43.7,53.3,9.9,101,9.9z"/>
	<path style="fill:#FFFF9F;" d="M66.9,32.9c-4.7,2.4-9.9,1.8-11.5-1.3s0.9-7.7,5.7-10.1c4.7-2.4,9.9-1.8,11.5,1.3
		C74.1,26,71.6,30.5,66.9,32.9z"/>
	<path style="fill:#E96606;" d="M187.6,64.5c2.3,7.3,3.5,15,3.5,23c0,46.5-41.4,84.6-92.1,84.6c-40.8,0-75.6-24.7-87.6-58.6
		c11,35.5,46.6,61.6,88.6,61.6c50.7,0,92.1-38.1,92.1-84.6C192.1,81.4,190.5,72.7,187.6,64.5z"/>
	<path style="fill:#FFFF77;" d="M50.5,38.2c-1.7,1.3-3.9,1.4-4.8,0.3c-0.9-1.2-0.2-3.2,1.6-4.5c1.7-1.3,3.9-1.4,4.8-0.3
		C52.9,34.8,52.2,36.9,50.5,38.2z"/>
	<g>
		<path style="fill:#FDAC0B;" d="M160.2,143.5c1.2,1.8-1.6,5.7-6.1,8.7s-9.3,3.9-10.5,2.1s1.6-5.7,6.1-8.7S159,141.7,160.2,143.5z"
			/>
	</g>
	<g>
		<path style="fill:#FD9D0B;" d="M139.3,156.9c0.7,1.9-1.1,4.4-4.1,5.5s-6,0.5-6.7-1.4s1.1-4.4,4.1-5.5
			C135.5,154.4,138.5,155,139.3,156.9z"/>
	</g>
</g>
<g>
	<path style="fill:#BD4218;" d="M158.1,92.1c0-5.8-3.9-11.9-10-13.7c5.8-1.6,10-7.1,10-13.8c0-6.9-5.5-14.2-13.6-14.2H87.7
		c-6.8,0-11.8,4.5-13.8,9.7c-1.8-5.2-6.5-9.7-12.8-9.7h-4.6c-8.7,0-14.6,7.4-14.6,14.2c0,6.7,4.5,12.2,10.8,13.8
		c-6.6,1.8-10.8,7.9-10.8,13.7c0,6.7,4.5,12.2,10.8,13.8c-6.6,1.8-10.8,7.9-10.8,13.7c0,8,6.4,14.3,14.6,14.3h4.6
		c6,0,10.9-3.9,12.8-9.4c2,5.5,7.3,9.4,13.8,9.4h56.9c7.6,0,13.6-6.3,13.6-14.3c0-5.8-3.9-11.9-10-13.7
		C154,104.2,158.1,98.8,158.1,92.1z M83.8,78.3c-4.8,1.3-8.4,5-9.9,9.1c-1.4-4.2-4.7-7.8-9.2-9.1c4.3-1.2,7.7-4.5,9.2-8.9
		C75.5,73.8,79.1,77.1,83.8,78.3z M64.7,105.9c4.3-1.2,7.7-4.5,9.2-8.9c1.6,4.4,5.2,7.7,9.9,8.9c-4.8,1.3-8.4,5-9.9,9.1
		C72.5,110.8,69.2,107.2,64.7,105.9z"/>
	<g>
		<path style="fill:#A6A6A6;" d="M87.7,76.8h56.9c6.5,0,11.6-5.4,11.6-12.3c0-5.9-4.6-12.2-11.6-12.2H87.7
			c-7.5,0-12.6,6.3-12.6,12.2C75,71.5,80.6,76.8,87.7,76.8z"/>
		<path style="fill:#A6A6A6;" d="M144.6,79.8H87.7c-7.5,0-12.6,6.3-12.6,12.2c0,6.9,5.5,12.3,12.6,12.3h56.9
			c6.5,0,11.6-5.4,11.6-12.3C156.1,86.2,151.5,79.8,144.6,79.8z"/>
		<path style="fill:#A6A6A6;" d="M144.6,107.3H87.7c-7.5,0-12.6,6.3-12.6,12.2c0,6.9,5.5,12.3,12.6,12.3h56.9
			c6.5,0,11.6-5.4,11.6-12.3C156.1,113.7,151.5,107.3,144.6,107.3z"/>
		<path style="fill:#A6A6A6;" d="M61.1,52.3h-4.6c-7.5,0-12.6,6.3-12.6,12.2c0,6.9,5.5,12.3,12.6,12.3h4.6c6.5,0,11.6-5.4,11.6-12.3
			C72.7,58.7,68,52.3,61.1,52.3z"/>
		<path style="fill:#A6A6A6;" d="M61.1,79.8h-4.6c-7.5,0-12.6,6.3-12.6,12.2c0,6.9,5.5,12.3,12.6,12.3h4.6c6.5,0,11.6-5.4,11.6-12.3
			C72.7,86.2,68,79.8,61.1,79.8z"/>
		<path style="fill:#A6A6A6;" d="M61.1,107.3h-4.6c-7.5,0-12.6,6.3-12.6,12.2c0,6.9,5.5,12.3,12.6,12.3h4.6
			c6.5,0,11.6-5.4,11.6-12.3C72.7,113.7,68,107.3,61.1,107.3z"/>
	</g>
	<g>
		<g>
			<path style="fill:#FFFFFF;" d="M87.7,68.8h56.9c4.2,0,7.5-3.6,7.5-8.2c0-4-3-8.2-7.5-8.2H87.7c-5.1,0-8.6,4.2-8.6,8.2
				C79.1,65.3,82.8,68.8,87.7,68.8z"/>
			<path style="fill:#FFFFFF;" d="M144.6,79.8H87.7c-5.1,0-8.6,4.2-8.6,8.2c0,4.7,3.7,8.2,8.6,8.2h56.9c4.2,0,7.5-3.6,7.5-8.2
				C152.1,84.1,149.1,79.8,144.6,79.8z"/>
			<path style="fill:#FFFFFF;" d="M144.6,107.3H87.7c-5.1,0-8.6,4.2-8.6,8.2c0,4.7,3.7,8.2,8.6,8.2h56.9c4.2,0,7.5-3.6,7.5-8.2
				C152.1,111.6,149.1,107.3,144.6,107.3z"/>
		</g>
		<g>
			<path style="fill:#FFFFFF;" d="M56.5,68.8h4.6c4.2,0,7.5-3.6,7.5-8.2c0-4-3-8.2-7.5-8.2h-4.6c-5.1,0-8.6,4.2-8.6,8.2
				C47.9,65.3,51.6,68.8,56.5,68.8z"/>
			<path style="fill:#FFFFFF;" d="M61.1,79.8h-4.6c-5.1,0-8.6,4.2-8.6,8.2c0,4.7,3.7,8.2,8.6,8.2h4.6c4.2,0,7.5-3.6,7.5-8.2
				C68.7,84.1,65.6,79.8,61.1,79.8z"/>
			<path style="fill:#FFFFFF;" d="M61.1,107.3h-4.6c-5.1,0-8.6,4.2-8.6,8.2c0,4.7,3.7,8.2,8.6,8.2h4.6c4.2,0,7.5-3.6,7.5-8.2
				C68.7,111.6,65.6,107.3,61.1,107.3z"/>
		</g>
	</g>
</g>
</svg>
