<svg xml:space="preserve" style="enable-background:new 0 0 250 250;" viewBox="0 0 250 250" y="0px" x="0px" xmlns:xlink="http://www.w3.org/1999/xlink" xmlns="http://www.w3.org/2000/svg" id="레이어_1" version="1.1">
<g>
	<path d="M2.7,206.2c0,22.7,18.4,41.1,41.1,41.1h162.4c22.7,0,41.1-18.4,41.1-41.1V52.6H2.7V206.2z" style="fill:#4D4D4D;"></path>
	<path d="M206.2,250H43.8C19.6,250,0,230.4,0,206.2V49.9h250v156.4C250,230.4,230.4,250,206.2,250z M5.4,55.3v150.9
		c0,21.2,17.2,38.4,38.4,38.4h162.4c21.2,0,38.4-17.2,38.4-38.4V55.3H5.4z"></path>
</g>
<g>
	<path d="M206.2,2.7H43.8C21.1,2.7,2.7,21.1,2.7,43.8v8.8h244.6v-8.8C247.3,21.1,228.9,2.7,206.2,2.7z" style="fill:#FF9900;"></path>
	<path d="M250,55.3H0V43.8C0,19.6,19.6,0,43.8,0h162.4C230.4,0,250,19.6,250,43.8V55.3z M5.4,49.9h239.2v-6.1
		c0-21.2-17.2-38.4-38.4-38.4H43.8C22.6,5.4,5.4,22.6,5.4,43.8V49.9z"></path>
</g>
<g>
	<rect height="32.7" width="32.7" style="fill:#FF9900;" y="79.4" x="85.5"></rect>
	<path d="M118.2,79.4v32.7H85.5V79.4H118.2 M123.6,74h-5.4H85.5h-5.4v5.4v32.7v5.4h5.4h32.7h5.4v-5.4V79.4V74L123.6,74z"></path>
</g>
<g>
	<g>
		<rect height="32.7" width="32.7" style="fill:#FFFFFF;" y="79.4" x="131.8"></rect>
		<path d="M164.5,79.4v32.7h-32.7V79.4H164.5 M164.5,74h-32.7c-3,0-5.4,2.4-5.4,5.4v32.7c0,3,2.4,5.4,5.4,5.4h32.7
			c3,0,5.4-2.4,5.4-5.4V79.4C169.9,76.4,167.5,74,164.5,74L164.5,74z"></path>
	</g>
	<g>
		<rect height="32.7" width="32.7" style="fill:#FFFFFF;" y="79.4" x="178"></rect>
		<path d="M210.7,79.4v32.7H178V79.4H210.7 M210.7,74H178c-3,0-5.4,2.4-5.4,5.4v32.7c0,3,2.4,5.4,5.4,5.4h32.7c3,0,5.4-2.4,5.4-5.4
			V79.4C216.1,76.4,213.7,74,210.7,74L210.7,74z"></path>
	</g>
	<g>
		<rect height="32.7" width="32.7" style="fill:#FFFFFF;" y="125.8" x="39.3"></rect>
		<path d="M72,125.8v32.7H39.3v-32.7H72 M72,120.3H39.3c-3,0-5.4,2.4-5.4,5.4v32.7c0,3,2.4,5.4,5.4,5.4H72c3,0,5.4-2.4,5.4-5.4
			v-32.7C77.4,122.8,75,120.3,72,120.3L72,120.3z"></path>
	</g>
	<g>
		<rect height="32.7" width="32.7" style="fill:#FFFFFF;" y="125.8" x="85.5"></rect>
		<path d="M118.2,125.8v32.7H85.5v-32.7H118.2 M118.2,120.3H85.5c-3,0-5.4,2.4-5.4,5.4v32.7c0,3,2.4,5.4,5.4,5.4h32.7
			c3,0,5.4-2.4,5.4-5.4v-32.7C123.6,122.8,121.2,120.3,118.2,120.3L118.2,120.3z"></path>
	</g>
	<g>
		<rect height="32.7" width="32.7" style="fill:#FFFFFF;" y="125.8" x="131.8"></rect>
		<path d="M164.5,125.8v32.7h-32.7v-32.7H164.5 M164.5,120.3h-32.7c-3,0-5.4,2.4-5.4,5.4v32.7c0,3,2.4,5.4,5.4,5.4h32.7
			c3,0,5.4-2.4,5.4-5.4v-32.7C169.9,122.8,167.5,120.3,164.5,120.3L164.5,120.3z"></path>
	</g>
	<g>
		<rect height="32.7" width="32.7" style="fill:#FFFFFF;" y="125.8" x="178"></rect>
		<path d="M210.7,125.8v32.7H178v-32.7H210.7 M210.7,120.3H178c-3,0-5.4,2.4-5.4,5.4v32.7c0,3,2.4,5.4,5.4,5.4h32.7
			c3,0,5.4-2.4,5.4-5.4v-32.7C216.1,122.8,213.7,120.3,210.7,120.3L210.7,120.3z"></path>
	</g>
	<g>
		<rect height="32.7" width="32.7" style="fill:#FFFFFF;" y="172.1" x="39.3"></rect>
		<path d="M72,172.1v32.7H39.3v-32.7H72 M72,166.7H39.3c-3,0-5.4,2.4-5.4,5.4v32.7c0,3,2.4,5.4,5.4,5.4H72c3,0,5.4-2.4,5.4-5.4
			v-32.7C77.4,169.1,75,166.7,72,166.7L72,166.7z"></path>
	</g>
	<g>
		<rect height="32.7" width="32.7" style="fill:#FFFFFF;" y="172.1" x="85.5"></rect>
		<path d="M118.2,172.1v32.7H85.5v-32.7H118.2 M118.2,166.7H85.5c-3,0-5.4,2.4-5.4,5.4v32.7c0,3,2.4,5.4,5.4,5.4h32.7
			c3,0,5.4-2.4,5.4-5.4v-32.7C123.6,169.1,121.2,166.7,118.2,166.7L118.2,166.7z"></path>
	</g>
	<g>
		<rect height="32.7" width="32.7" style="fill:#FFFFFF;" y="172.1" x="131.8"></rect>
		<path d="M164.5,172.1v32.7h-32.7v-32.7H164.5 M164.5,166.7h-32.7c-3,0-5.4,2.4-5.4,5.4v32.7c0,3,2.4,5.4,5.4,5.4h32.7
			c3,0,5.4-2.4,5.4-5.4v-32.7C169.9,169.1,167.5,166.7,164.5,166.7L164.5,166.7z"></path>
	</g>
</g>
</svg>
