<svg xml:space="preserve" style="enable-background:new 0 0 250 250;" viewBox="0 0 250 250" y="0px" x="0px" xmlns:xlink="http://www.w3.org/1999/xlink" xmlns="http://www.w3.org/2000/svg" id="레이어_1" version="1.1">
<g>
	<circle r="109.2" cy="125" cx="125" style="fill:#14FFC0;"></circle>
	<path d="M125.1,15.7c51.8,0,97.8,37,107.4,89.8c10.8,59.4-28.7,116.2-88,127c-6.6,1.2-13.1,1.8-19.6,1.8
		c-51.8,0-97.8-37-107.4-89.8c-10.8-59.4,28.7-116.2,88-127C112.1,16.3,118.7,15.7,125.1,15.7 M125.1,7.7v8V7.7
		c-7,0-14.1,0.6-21,1.9c-30.8,5.6-57.6,22.8-75.5,48.6C10.8,83.9,4,115.1,9.6,145.9c4.9,27.2,19.4,51.8,40.6,69.4
		c21,17.4,47.5,26.9,74.6,26.9c7,0,14.1-0.6,21-1.9c30.8-5.6,57.6-22.8,75.5-48.6c17.8-25.7,24.6-56.9,19-87.7
		c-4.9-27.2-19.4-51.8-40.6-69.4C178.7,17.3,152.2,7.7,125.1,7.7L125.1,7.7z"></path>
</g>
<g>
	<path d="M132.3,101.7c-4,2.4-3.6,7.9-3.2,11.9c0.1,1.2-1.2,2-2.2,1.3c-3.2-2.2-7.5-5.2-11.4-2.8
		c-4.4,2.7-5.8,8.7-4.8,13.4c2.7,12.7,20.6,14.4,30.8,14.5c1.5,0,2.8-0.8,3.5-2.1c4.7-9.1,9.4-23.6,2.2-32.8
		C143.9,101,137,98.8,132.3,101.7z" style="fill:#FF5EFA;"></path>
	<path d="M137.2,100.4c3.8,0,7.7,1.9,10,4.8c7.3,9.2,2.5,23.7-2.2,32.8c-0.7,1.3-2,2.1-3.4,2.1c0,0,0,0,0,0
		c-10.2-0.1-28.1-1.8-30.8-14.5c-1-4.7,0.4-10.8,4.8-13.4c1-0.6,2.1-0.9,3.2-0.9c2.9,0,5.8,2,8.2,3.7c0.3,0.2,0.5,0.3,0.8,0.3
		c0.8,0,1.5-0.7,1.4-1.5c-0.4-4-0.7-9.4,3.2-11.9C133.8,100.8,135.5,100.4,137.2,100.4 M137.2,92.4c-3.3,0-6.4,0.9-9.1,2.5
		c-3.6,2.2-5.5,5.4-6.4,8.6c-1-0.2-2-0.3-3-0.3c-2.6,0-5.1,0.7-7.4,2.1c-7.9,4.9-9.9,14.8-8.4,21.9c1.2,5.9,5.3,13.8,17.9,17.9
		c5.7,1.9,12.6,2.9,20.7,2.9l0,0l0.1,0c4.5,0,8.5-2.5,10.6-6.4c8.5-16.6,9-31.7,1.3-41.4C149.6,95.3,143.4,92.4,137.2,92.4
		L137.2,92.4z"></path>
</g>
<g>
	<path d="M185.9,62.2c-4,2.4-3.6,7.9-3.2,11.9c0.1,1.2-1.2,2-2.2,1.3c-3.2-2.2-7.5-5.2-11.4-2.8
		c-4.4,2.7-5.8,8.7-4.8,13.4c2.7,12.7,20.6,14.4,30.8,14.5c1.5,0,2.8-0.8,3.5-2.1c4.7-9.1,9.4-23.6,2.2-32.8
		C197.5,61.5,190.6,59.3,185.9,62.2z" style="fill:#FF5EFA;"></path>
	<path d="M190.8,60.9c3.8,0,7.7,1.9,10,4.8c7.3,9.2,2.5,23.7-2.2,32.8c-0.7,1.3-2,2.1-3.4,2.1c0,0,0,0,0,0
		c-10.2-0.1-28.1-1.8-30.8-14.5c-1-4.7,0.4-10.8,4.8-13.4c1-0.6,2.1-0.9,3.2-0.9c2.9,0,5.8,2,8.2,3.7c0.3,0.2,0.5,0.3,0.8,0.3
		c0.8,0,1.5-0.7,1.4-1.5c-0.4-4-0.7-9.4,3.2-11.9C187.4,61.3,189,60.9,190.8,60.9 M190.8,52.9c-3.3,0-6.4,0.9-9.1,2.5
		c-3.6,2.2-5.5,5.4-6.4,8.6c-1-0.2-2-0.3-3-0.3c-2.6,0-5.1,0.7-7.4,2.1c-7.9,4.9-9.9,14.8-8.4,21.9c1.2,5.9,5.3,13.8,17.9,17.9
		c5.7,1.9,12.6,2.9,20.7,2.9l0,0l0.1,0c4.5,0,8.5-2.5,10.6-6.4c8.5-16.6,9-31.7,1.3-41.4C203.2,55.8,197,52.9,190.8,52.9L190.8,52.9
		z"></path>
</g>
<path d="M183,161.7c-0.1,0-0.2,0-0.3,0c-11.9-0.2-21.6-10.4-22-10.8c-1.5-1.6-1.4-4.1,0.2-5.7c1.6-1.5,4.1-1.4,5.6,0.2
	c0.1,0.1,7.9,8.2,16.3,8.3c0.1,0,0.1,0,0.2,0c3.5,0,6.7-1.4,9.6-4.4c11.1-11.2,1.4-27.1,1.3-27.3c-1.2-1.9-0.6-4.3,1.3-5.5
	c1.9-1.2,4.3-0.6,5.5,1.3c4.6,7.4,10,24.7-2.4,37.2C193.9,159.4,188.7,161.7,183,161.7z"></path>
</svg>
