<svg id="레이어_2" data-name="레이어 2" xmlns="http://www.w3.org/2000/svg" viewBox="0 0 220 280"><defs><style>.cls-1,.cls-6{fill:#fff;}.cls-2{fill:#0088c5;}.cls-3{fill:#683100;}.cls-4{fill:#009ff9;}.cls-5{fill:#009ff8;}.cls-6,.cls-7,.cls-8,.cls-9{fill-rule:evenodd;}.cls-7{fill:#ffbeb8;}.cls-9{fill:#00a0f4;}</style></defs><path class="cls-1" d="M150.47,169c-4-4.75-8.79-8.31-13.9-12.18-2.25-1.71-10.56-7.8-5.35-10.88,1.89-1.11,4.95.15,6.86.74a45,45,0,0,1,11.65,5.54,52.43,52.43,0,0,1,10.63,9.52A35.66,35.66,0,0,0,150.47,169Z"/><path class="cls-2" d="M159.48,188.66a1.57,1.57,0,0,0,0-.23,45.07,45.07,0,0,0-1.38-5.66,37.94,37.94,0,0,0-3.14-7.24c-.65-1.16-1.37-2.33-2.17-3.51s-1.49-2-2.28-3a35.66,35.66,0,0,1,9.89-7.26,63.39,63.39,0,0,1,4.18,5.48c3.67,5.42,7.51,11.9,8.66,18.48a9.07,9.07,0,0,1-3.27,8.79,10,10,0,0,1-1.73,1.08c-2.06,1-4.56,1.14-6.33-.27a4.56,4.56,0,0,1-.86-1C159.89,192.76,159.84,190.57,159.48,188.66Z"/><path d="M130.43,146.55a5.22,5.22,0,0,1,.79-.58c1.89-1.11,4.95.15,6.86.74a45,45,0,0,1,11.65,5.54,52.43,52.43,0,0,1,10.63,9.52,63.39,63.39,0,0,1,4.18,5.48c3.67,5.42,7.51,11.9,8.66,18.48a9.13,9.13,0,0,1-2.68,8.29,7.08,7.08,0,0,1-.59.5,10,10,0,0,1-1.73,1.08c-2.06,1-4.56,1.14-6.33-.27a4.56,4.56,0,0,1-.86-1c-1.12-1.61-1.17-3.8-1.53-5.71a1.57,1.57,0,0,0,0-.23,45.07,45.07,0,0,0-1.38-5.66,37.94,37.94,0,0,0-3.14-7.24c-.65-1.16-1.37-2.33-2.17-3.51s-1.49-2-2.28-3c-4-4.75-8.79-8.31-13.9-12.18-2.12-1.61-9.6-7.09-6.14-10.3m-2.27-2.47a5.88,5.88,0,0,0-1.94,4.74c.24,4,4.27,7.57,8.18,10.53l.2.15.84.64c4.63,3.5,9,6.82,12.5,11a33.51,33.51,0,0,1,2.07,2.72c.76,1.12,1.42,2.19,2,3.26a34.31,34.31,0,0,1,2.86,6.6,39.7,39.7,0,0,1,1.28,5.24l.05.25c.08.4.14.82.2,1.23a13,13,0,0,0,1.87,5.8,8.06,8.06,0,0,0,1.54,1.68,9.25,9.25,0,0,0,9.84.69,13.34,13.34,0,0,0,2.31-1.44c.28-.22.55-.45.81-.68a12.53,12.53,0,0,0,3.68-11.3c-1.3-7.43-5.6-14.48-9.19-19.79a62.91,62.91,0,0,0-4.42-5.79,55.46,55.46,0,0,0-11.33-10.14,48.44,48.44,0,0,0-12.52-6l-.73-.24c-2.33-.76-5.85-1.92-8.78-.19a7.62,7.62,0,0,0-1.34,1Z"/><path class="cls-1" d="M130.57,60.45a10.79,10.79,0,0,0-5.83,3.19c-2.56,2.86-4.47,8.39-3.14,12.08.46,1.28,2.06.6,3.85.5,2.11-.1,1.72-2,3.43-3.58,2.45-2.26,4.43.56,7.92,3.59a7.53,7.53,0,0,0,9.91-.08,6,6,0,0,0-.2-9C141.14,62.41,137.63,58.87,130.57,60.45Z"/><path d="M135.08,60.14c4.33.48,7.34,3.41,11.43,7a6,6,0,0,1,.2,9,7.54,7.54,0,0,1-9.91.08c-2.48-2.15-4.2-4.2-5.87-4.39a2.51,2.51,0,0,0-2.05.8c-1.71,1.58-1.32,3.48-3.43,3.58a22.77,22.77,0,0,1-2.85.25,1.08,1.08,0,0,1-1-.75c-1.33-3.69.58-9.22,3.14-12.08a10.79,10.79,0,0,1,5.83-3.19,13.51,13.51,0,0,1,4.51-.31m.37-3.25a17.07,17.07,0,0,0-5.67.37,14,14,0,0,0-7.62,4.23c-3.24,3.63-5.54,10.34-3.77,15.28a4.5,4.5,0,0,0,3.85,3,9.33,9.33,0,0,0,2.4-.11c.32,0,.66-.1,1-.12A5.53,5.53,0,0,0,130.59,76a6,6,0,0,1,.33-.6c.53.41,1.25,1.08,1.82,1.61s1.15,1.07,1.8,1.64a10.86,10.86,0,0,0,6,2.59,10.73,10.73,0,0,0,8.57-2.74,9.15,9.15,0,0,0,3-6.87,9.39,9.39,0,0,0-3.25-6.86l-.79-.7c-4-3.55-7.42-6.61-12.56-7.19Z"/><path class="cls-3" d="M135.55,72.07a3,3,0,0,1,1.6.05,2.64,2.64,0,0,1-1.36-1.5,2.47,2.47,0,0,1,1.84-3.17,3.08,3.08,0,0,1,2,.17,2.58,2.58,0,0,1-1.18-1.38c-.47-1.35.79-2.7,2.27-3.1.14,0,.75,0,.89,0a19.86,19.86,0,0,1,4.91,4,5.94,5.94,0,0,1,.19,9,7.53,7.53,0,0,1-9.9.08c-.83-.72-2.43-2.13-2.93-2.59-.71-.64.67-1.3,1.68-1.57"/><path class="cls-1" d="M90.62,59.37a12.65,12.65,0,0,1,6.86,4c3,3.54,5.17,7.69,3.76,12.27-.49,1.59-3.43,2.72-5.5,2.61-2.45-.13-2.1-1.83-4.13-3.78-2.92-2.8-5.12.71-9.06,4.47a8.27,8.27,0,0,1-11.47-.08A7.73,7.73,0,0,1,71,67.68C77.08,61.75,82.4,57.42,90.62,59.37Z"/><path d="M88.51,59a16.79,16.79,0,0,1,2.11.38,12.65,12.65,0,0,1,6.86,4c3,3.54,5.17,7.69,3.76,12.27-.49,1.59-3.43,2.72-5.5,2.61l-.28,0c-2.15-.24-1.9-1.88-3.85-3.76a3.2,3.2,0,0,0-1.86-1c-2.12-.24-4.13,2.53-7.2,5.46a8.27,8.27,0,0,1-11.47-.08A7.73,7.73,0,0,1,71,67.68c5.52-5.4,10.44-9.48,17.49-8.69m.37-3.25h0c-8.64-1-14.52,4-20.28,9.63a11,11,0,0,0,.09,15.73A11.76,11.76,0,0,0,85,81.22c.72-.69,1.39-1.37,2-2a27.72,27.72,0,0,1,2.42-2.31,7.51,7.51,0,0,1,.85,1.18,6.13,6.13,0,0,0,4.86,3.35l.49,0c2.93.16,7.79-1.3,8.9-4.92,1.54-5,.05-10.13-4.4-15.31a16,16,0,0,0-8.68-5.05,24.08,24.08,0,0,0-2.53-.45Z"/><path class="cls-3" d="M83.86,73.73a3.28,3.28,0,0,0-1.84.06,3.11,3.11,0,0,0,1.52-1.87A3.17,3.17,0,0,0,81.31,68a3.27,3.27,0,0,0-2.31.21,3.1,3.1,0,0,0,1.34-1.71c.49-1.68-1-3.35-2.74-3.84-.16,0-.86,0-1,0a22.52,22.52,0,0,0-5.56,5,7.72,7.72,0,0,0,.07,11.13,8.27,8.27,0,0,0,11.46.08c.94-.89,2.74-2.65,3.31-3.21.8-.8-.82-1.62-2-2"/><path d="M118.29,73.7c10.55,1.19,21,6.56,29.1,13.23,6.9,5.69,11,15,12.69,23.47.1.51.16,1,.25,1.52.21.87.39,1.74.55,2.59,1.88,10.26-.88,18.69-4.85,28.2-.86,2.07-6.48,12-6.61,12.5-1.93,5.58.37,12.93.58,18.67.4,10.69-.51,21.57-6.18,31-7.72,12.82-22.7,16-37.15,15.31-1.42-.07-2.84-.18-4.26-.34l-.92-.11-.21,0-3.5-.44c-1.72-.22-3.5-.51-5.2-.87-11.67-2.42-24.16-8.3-30.47-18.58-4.56-7.43-5.31-19-3.77-27.35,1.19-6.53,4-12.65,6-19,.78-2.47,2-4.82,2.13-7.41,0-.55,0-1.09,0-1.63-.29-1.21-2.52-10.28-2.95-13.7A52.44,52.44,0,0,1,64.34,107c2.22-8.31,6.85-17.33,14.07-22.52,9.29-6.66,21.34-11.56,32.9-11.12h.21l3.71.13c1,0,2,.11,3.06.23m.36-3.25c-1.11-.13-2.23-.21-3.33-.25l-3.7-.13h-.28c-11.18-.43-24,3.86-35,11.76-6.95,5-12.53,13.84-15.33,24.31a55.76,55.76,0,0,0-.9,25.1c.38,2.86,1.8,9,2.94,13.63,0,.38,0,.73,0,1.09a14.08,14.08,0,0,1-1.17,4.27c-.28.76-.57,1.52-.82,2.29-.64,2-1.39,4.08-2.12,6.08a81.62,81.62,0,0,0-4,13.27c-1.6,8.71-.92,21.25,4.2,29.6,6,9.71,17.87,17,32.69,20.12,1.74.36,3.63.68,5.48.91l3.5.44.19,0,1,.12c1.49.17,3,.29,4.48.36,19.1.91,33-4.94,40.23-16.92,6.55-10.89,7-23.21,6.63-32.73a61.58,61.58,0,0,0-.66-6.18c-.56-4-1.15-8.17-.12-11.25.25-.52,1.25-2.34,2.13-4,2.27-4.16,3.92-7.19,4.44-8.45,3.86-9.25,7.15-18.51,5-30-.16-.88-.35-1.76-.56-2.64l-.07-.48c-.06-.34-.11-.69-.18-1-2.17-10.64-7.2-19.89-13.83-25.35-9.52-7.86-20.5-12.83-30.93-14Z"/><path class="cls-4" d="M156,142.71c4-9.51,6.73-17.94,4.85-28.2-.16-.85-.34-1.72-.55-2.59-.09-.51-.15-1-.25-1.52-1.72-8.45-5.79-17.78-12.69-23.47-8.87-7.32-20.6-13.07-32.16-13.46l-3.71-.13h-.21c-11.56-.44-23.61,4.46-32.9,11.12C71.19,89.64,66.56,98.66,64.34,107a52.44,52.44,0,0,0-.83,23.78c.43,3.42,2.66,12.49,2.95,13.7,0,.54.05,1.08,0,1.63-.09,2.59-1.35,4.94-2.13,7.41-2,6.31-4.83,12.43-6,19-1.54,8.37-.79,19.92,3.77,27.36,6.31,10.27,18.8,16.15,30.47,18.57,1.7.36,3.48.65,5.2.87l3.5.44.21,0c1.72.21,3.45.37,5.18.45,14.45.69,29.43-2.49,37.15-15.31,5.67-9.41,6.58-20.29,6.18-31-.21-5.74-2.51-13.09-.58-18.67C149.55,154.71,155.17,144.78,156,142.71Z"/><path class="cls-5" d="M115.23,73.47h0Z"/><path class="cls-6" d="M162.81,145.69c-6.63,6.36-18.69,9.8-32.25,9.24-33.63-1.38-49.83-12.86-49.63-35.14,0-3.15.73-19.34,11.76-29.4a30.75,30.75,0,0,1,11.81-6.57A45.4,45.4,0,0,1,120,82.16c1.72.08,3.36.21,4.93.39,34.51,3.88,34.44,29.77,34.4,30.92a1.64,1.64,0,0,0,1.1,1.55c.33.15,8.53,3.4,8.87,14C169.48,135.8,167.31,141.4,162.81,145.69Z"/><path d="M172.66,129c-.35-10.55-7.26-15.11-10-16.49-.26-5.49-3.49-29.36-37.33-33.17-1.65-.19-3.4-.33-5.24-.43-12.42-.6-22.45,2.5-29.74,9.14-11.73,10.66-12.8,27-12.85,31.72-.2,22,13.91,34.46,43,37.73,3.12.36,6.42.59,9.9.74,14.7.61,27.36-3.1,34.76-10.17C170.39,143.09,172.91,136.68,172.66,129Zm-91.73-9.18c0-3.15.73-19.34,11.76-29.4a30.75,30.75,0,0,1,11.81-6.57A45.4,45.4,0,0,1,120,82.16c1.72.08,3.36.21,4.93.39,34.51,3.88,34.44,29.77,34.4,30.92a1.64,1.64,0,0,0,1.1,1.55c.33.15,8.53,3.4,8.87,14,.21,6.75-2,12.35-6.46,16.64-6.63,6.36-18.69,9.8-32.25,9.24C96.93,153.55,80.73,142.07,80.93,119.79Z"/><path class="cls-7" d="M129.79,128.31A11.91,11.91,0,1,1,119,115.2a12,12,0,0,1,10.81,13.11"/><path class="cls-7" d="M168.81,127.39c-.33-2.33-2.26-10.19-6.38-7.91-5.55,3.08-4.22,12.66-2.19,17.57.8,1.93,2.37,4.27,5,4.09,1.46-.09,2.28-2.64,2.57-3.52A22.51,22.51,0,0,0,168.81,127.39Z"/><path class="cls-1" d="M55.57,164.27c5.74-2.27,11.68-3.09,18-4.05,2.8-.43,13-1.8,9.81-7-1.17-1.87-4.47-2.23-6.44-2.62A45.84,45.84,0,0,0,64,149.93a52,52,0,0,0-13.87,3.27A36.13,36.13,0,0,1,55.57,164.27Z"/><path class="cls-2" d="M38.44,177.16l.15-.18a44,44,0,0,1,3.85-4.29,36.88,36.88,0,0,1,6.16-4.85c1.11-.71,2.3-1.38,3.56-2s2.27-1.07,3.41-1.53a36.13,36.13,0,0,0-5.42-11.07A59.66,59.66,0,0,0,43.88,156c-5.78,3-12.2,6.84-16.28,12.05a9,9,0,0,0-1.17,9.26,9.38,9.38,0,0,0,1,1.77c1.37,1.85,3.52,3.17,5.75,2.78a4.24,4.24,0,0,0,1.21-.43C36.17,180.56,37.24,178.67,38.44,177.16Z"/><path d="M83.83,154.13c1.59,4.45-7.61,5.69-10.24,6.09-6.34,1-12.28,1.77-18,4.05-1.14.46-2.28.95-3.41,1.53s-2.45,1.33-3.56,2a36.88,36.88,0,0,0-6.16,4.85A44,44,0,0,0,38.59,177l-.15.18c-1.2,1.51-2.27,3.4-4,4.28a4.24,4.24,0,0,1-1.21.43c-2.23.39-4.38-.93-5.75-2.78a9.38,9.38,0,0,1-1-1.77,6.37,6.37,0,0,1-.29-.72,9,9,0,0,1,1.46-8.54C31.68,162.85,38.1,159,43.88,156a59.66,59.66,0,0,1,6.27-2.81A52,52,0,0,1,64,149.93a45.84,45.84,0,0,1,12.94.69c2,.39,5.27.75,6.44,2.62a4.51,4.51,0,0,1,.43.89M87,153a8.69,8.69,0,0,0-.73-1.51c-1.81-2.9-5.48-3.57-7.91-4l-.75-.14a49.38,49.38,0,0,0-13.9-.74,55.53,55.53,0,0,0-14.79,3.49,62.84,62.84,0,0,0-6.61,3C36.64,156,29.55,160.16,24.94,166a12.31,12.31,0,0,0-2,11.65,10.25,10.25,0,0,0,.4,1A12.88,12.88,0,0,0,24.76,181c2.31,3.1,5.78,4.67,9.07,4.08a7.71,7.71,0,0,0,2.15-.73,12.82,12.82,0,0,0,4.36-4.18c.25-.34.49-.68.74-1l.16-.2a40.24,40.24,0,0,1,3.57-4,34.62,34.62,0,0,1,5.61-4.43c1-.65,2.11-1.27,3.31-1.89.89-.46,1.88-.9,3.11-1.39,5.06-2,10.48-2.82,16.23-3.69l1-.16.25,0c4.85-.73,10.09-1.93,12.16-5.32A5.81,5.81,0,0,0,87,153Z"/><path class="cls-8" d="M150.88,123.55c-.07.87-1.08,1.49-2.27,1.38s-2.08-.89-2-1.76,1.1-1.48,2.28-1.38,2.08.9,2,1.76"/><path d="M138.59,133.66a6.38,6.38,0,0,1-2.13-.61,1.55,1.55,0,0,1-.63-2,1.3,1.3,0,0,1,1.78-.76,6.33,6.33,0,0,0,4.46,0,17.93,17.93,0,0,0,4.9-3.1l.83-.66a1.22,1.22,0,0,1,1.53,0c.42.34.84.7,1.25,1,1.87,1.62,3.49,3,5.69,2.69a1.35,1.35,0,0,1,1.46,1.3,1.53,1.53,0,0,1-1.2,1.68c-3.27.47-5.57-1.52-7.6-3.27l-.44-.38,0,0a20.5,20.5,0,0,1-5.62,3.51A9.79,9.79,0,0,1,138.59,133.66Z"/><path d="M130.11,120.34a1,1,0,0,1-.78-.68,1,1,0,0,1,.65-1.26c1.07-.34,2.39-.63,3.67-.91l1.16-.27c-.82-.32-1.73-.59-2.63-.85s-1.57-.47-2.27-.73a1,1,0,0,1,.71-1.87c.63.24,1.36.45,2.13.68a14.7,14.7,0,0,1,5.34,2.35,1,1,0,0,1-.34,1.72c-1.07.34-2.39.63-3.67.92s-2.51.56-3.49.87A1,1,0,0,1,130.11,120.34Z"/><path d="M155.36,119.9a1,1,0,0,1-.25-.06,5.86,5.86,0,0,0-1.8-.36,7.5,7.5,0,0,1-2.37-.48,1,1,0,0,1-.61-.71,1,1,0,0,1,.24-.9,11.46,11.46,0,0,1,4.25-3,1,1,0,1,1,.87,1.8,11.31,11.31,0,0,0-2.32,1.33h.09a7.79,7.79,0,0,1,2.37.48,1,1,0,0,1-.47,1.93Z"/><path class="cls-1" d="M107.59,221.51c-3.66-1.11-7.1-4.37-4.24-9.42,4.39-5.53,8.11-3.93,16.07-2.9,6,.78,13.54,1.92,12.38,7.95l-8.56,5.28S112.2,222.89,107.59,221.51Z"/><path class="cls-9" d="M144,238.4a14.13,14.13,0,0,0-8.61-7.59,11.4,11.4,0,0,0-5.62-.07c2.4-6.2,5.19-11.72,4.12-15.62,0,0-3.92-6.58-10.29-1.79-2.86,2.14-10.94,16.39-12.86,24.66a1,1,0,0,0,.18.78l-1.44,3.65c-1,6.44,9,6.89,13.22,7.64,6,1.07,14.79,1.12,19.87-3.14C144.81,245.08,144.9,240.84,144,238.4Z"/><path d="M126.32,211.52m-20,8.44h0a5.48,5.48,0,0,1-2.73-2.8,5.42,5.42,0,0,1,2.11-6.4c2.17-1.39,5-1.15,7.59-.85l11.44,1.33c2.37.27,4.92.62,6.63,2.22a6.89,6.89,0,0,1,1.84,6,17.11,17.11,0,0,1-2.47,6.07,40.91,40.91,0,0,0-2.9,5.26.27.27,0,0,0,.36.35,13,13,0,0,1,10.12.82,12.06,12.06,0,0,1,6.16,8.45,7.64,7.64,0,0,1-.4,4.41c-1.28,2.87-4.69,4.28-7.89,4.79-4.4.7-8.89.21-13.3-.38a38.89,38.89,0,0,1-9-2c-1.54-.6-3.15-1.57-3.53-3.13a5.76,5.76,0,0,1,.34-2.89,180.47,180.47,0,0,1,7.17-19.44.28.28,0,0,0-.2-.38,48.09,48.09,0,0,0-7.4-.76A11.78,11.78,0,0,1,106.28,220Zm.85,21.55a7.53,7.53,0,0,0,1.43,6.07c2.64,3.36,7.75,4,11.48,4.49.75.1,1.45.19,2,.3a52,52,0,0,0,10.23.93c5.29-.13,9.48-1.46,12.47-4,3.73-3.13,3.46-9,2.4-12a17.13,17.13,0,0,0-10.8-9.61,13.12,13.12,0,0,0-2.5-.46.27.27,0,0,1-.22-.39c2.11-3.86,3.75-7.56,2.75-11.23a10.74,10.74,0,0,0-2.25-3.78c-1.38-1.61-2.81-3.18-7.9-3.57-1.06-.08-13.94-2.19-13.94-2.19-7.64-1.26-10.19,3.13-10.19,3.13a10.62,10.62,0,0,0-1.76,9.51,7,7,0,0,0,4.52,4.33c.74.23,6.67.72,8.26.88a.26.26,0,0,1,.23.36c-.56,1.37-2.36,6.26-2.52,6.69C110.86,231,107.29,240.6,107.13,241.51Z"/><path class="cls-1" d="M87.49,218.6c-3.53-1.53-6.61-5.26-3.23-10.16,4.95-5.23,8.48-3.18,16.29-1.27,5.92,1.46,13.26,3.44,11.47,9.53L103,221.23S91.92,220.52,87.49,218.6Z"/><path class="cls-9" d="M122,239.93a14.43,14.43,0,0,0-7.76-8.75,11,11,0,0,0-5.59-.67c3.05-6.14,6.4-11.54,5.75-15.67,0,0-3.2-7.2-10-3-3.07,1.91-12.61,15.72-15.39,24a1.06,1.06,0,0,0,.1.82l-1.82,3.62c-1.63,6.53,8.25,8.07,12.33,9.29,5.83,1.74,14.6,2.74,20.1-1.11C122,246.9,122.55,242.53,122,239.93Z"/><path d="M107.17,210.31m-20.83,6.56h0a5.59,5.59,0,0,1-2.42-3.17,5.69,5.69,0,0,1,2.77-6.37c2.31-1.21,5.1-.65,7.64-.06l11.24,2.59c2.32.54,4.82,1.17,6.36,3a7.33,7.33,0,0,1,1.19,6.43,17.85,17.85,0,0,1-3.11,6,46.24,46.24,0,0,0-3.44,5.12.28.28,0,0,0,.33.39,12.42,12.42,0,0,1,15.22,11.31,8.26,8.26,0,0,1-.87,4.49c-1.58,2.83-5.12,3.92-8.35,4.1-4.45.25-8.86-.74-13.18-1.82a37.73,37.73,0,0,1-8.71-3c-1.47-.79-3-2-3.17-3.61a5.83,5.83,0,0,1,.64-2.93A188.9,188.9,0,0,1,97.65,220a.29.29,0,0,0-.16-.41A47.45,47.45,0,0,0,90.21,218,11.85,11.85,0,0,1,86.34,216.87Zm-1.42,22.3a8.07,8.07,0,0,0,.78,6.41c2.27,3.75,7.28,5,10.94,5.86.74.18,1.42.35,2,.52A49.65,49.65,0,0,0,108.71,254c5.28.44,9.59-.48,12.82-2.74,4-2.82,4.39-8.92,3.66-12.1a17.56,17.56,0,0,0-9.74-11.07,13.39,13.39,0,0,0-2.43-.74.28.28,0,0,1-.18-.43c2.5-3.75,4.53-7.38,3.92-11.27a11.25,11.25,0,0,0-1.84-4.14c-1.2-1.8-2.46-3.58-7.48-4.53-1-.19-13.63-3.75-13.63-3.75-7.46-2.12-10.47,2.13-10.47,2.13A11.29,11.29,0,0,0,80.6,215a7.1,7.1,0,0,0,4,4.95c.71.32,6.56,1.46,8.13,1.8a.28.28,0,0,1,.19.4c-.7,1.34-3,6.2-3.22,6.62C89.73,228.76,85.17,238.25,84.92,239.17Z"/></svg>