<svg xml:space="preserve" style="enable-background:new 0 0 250 250;" viewBox="0 0 250 250" y="0px" x="0px" xmlns:xlink="http://www.w3.org/1999/xlink" xmlns="http://www.w3.org/2000/svg" id="레이어_1" version="1.1">
<g>
	<g>
		
			<ellipse ry="124.3" rx="99.3" cy="126.5" cx="124.2" style="fill:#FFD042;" transform="matrix(0.7969 -0.6041 0.6041 0.7969 -51.201 100.714)"></ellipse>
		<path d="M100.9,10.7c36,0,75.2,19.9,102.4,55.8c41.5,54.7,39.6,125.9-4.1,159c-15,11.4-32.9,16.8-51.7,16.8
			c-36,0-75.2-19.9-102.4-55.8C3.6,131.8,5.4,60.6,49.1,27.5C64.1,16.1,82.1,10.7,100.9,10.7 M100.9,4.7v6V4.7
			c-20.7,0-39.9,6.2-55.4,18C22.9,39.8,10,66.8,9.2,98.7c-0.8,31.4,10.3,63.8,31.1,91.4c13.7,18,30.9,32.9,49.9,43.1
			c18.5,9.9,38.4,15.1,57.4,15.1c20.7,0,39.8-6.2,55.4-18c22.6-17.1,35.5-44.2,36.3-76c0.8-31.4-10.3-63.8-31.1-91.4
			c-13.7-18-30.9-32.9-49.9-43.1C139.7,9.9,119.9,4.7,100.9,4.7L100.9,4.7z"></path>
	</g>
	<g>
		<g>
			<g>
				
					<ellipse ry="26.7" rx="18.2" cy="120.1" cx="88.5" style="fill:#FFFFFF;" transform="matrix(0.7969 -0.6041 0.6041 0.7969 -54.5657 77.8523)"></ellipse>
				<path d="M95,147.8c-1.7,0-3.4-0.2-5.1-0.7c-6.3-1.7-12.4-6.5-18.2-14.2c-5.8-7.7-8.8-14.9-8.7-21.3c0-6.1,2.7-11.3,7.7-15.1
					c10.6-8,23.6-4,34.8,10.8l0,0c5.8,7.7,8.8,14.9,8.7,21.3c0,6.1-2.7,11.3-7.7,15.1C102.9,146.4,99,147.8,95,147.8z M82.1,98.4
					c-2.8,0-5.4,0.9-7.9,2.8c-3.5,2.7-5.3,6.1-5.3,10.3c0,5.1,2.6,11.2,7.5,17.7c4.9,6.5,10.1,10.7,15,12c4.1,1.1,7.9,0.3,11.4-2.3
					c3.5-2.7,5.3-6.1,5.3-10.3c0-5.1-2.6-11.2-7.5-17.7C94.3,102.6,88,98.4,82.1,98.4z"></path>
			</g>
			<ellipse ry="17.3" rx="11.8" cy="116.2" cx="93.6" transform="matrix(0.7969 -0.6041 0.6041 0.7969 -51.2134 80.1352)"></ellipse>
		</g>
		<g>
			<g>
				
					<ellipse ry="26.7" rx="18.2" cy="90.1" cx="128" style="fill:#FFFFFF;" transform="matrix(0.7969 -0.6041 0.6041 0.7969 -28.4652 95.6266)"></ellipse>
				<path d="M134.5,117.8c-7.8,0-16-5.1-23.4-14.9c-5.8-7.7-8.8-14.9-8.7-21.3c0-6.1,2.7-11.3,7.7-15.1c10.6-8,23.6-4,34.8,10.8v0
					c11.2,14.8,11.6,28.4,1,36.4C142.3,116.5,138.5,117.8,134.5,117.8z M121.6,68.5c-2.8,0-5.4,0.9-7.9,2.8
					c-3.5,2.7-5.3,6.1-5.3,10.3c0,5.1,2.6,11.2,7.5,17.7c9.2,12.2,18.6,15.6,26.4,9.7c7.8-5.9,7-15.9-2.2-28l0,0
					C133.8,72.7,127.5,68.5,121.6,68.5z"></path>
			</g>
			<ellipse ry="17.3" rx="11.8" cy="86.3" cx="133.1" transform="matrix(0.7969 -0.6041 0.6041 0.7969 -25.1129 97.9096)"></ellipse>
		</g>
	</g>
	<path d="M140.2,194.3c-4.4,0-9-0.6-13.7-1.8c-15-3.8-28.8-13.3-39.1-26.8c-1-1.3-0.7-3.2,0.6-4.2c1.3-1,3.2-0.7,4.2,0.6
		c9.4,12.4,22.1,21.2,35.8,24.7c13.4,3.4,26.1,1.2,35.7-6.1c20.1-15.2,20.7-48.4,1.4-73.8c-1-1.3-0.7-3.2,0.6-4.2
		c1.3-1,3.2-0.7,4.2,0.6c21.3,28.1,20.2,65-2.6,82.3C159.7,191.3,150.3,194.3,140.2,194.3z"></path>
</g>
</svg>
