<?xml version="1.0" encoding="utf-8"?>
<!-- Generator: Adobe Illustrator 24.1.1, SVG Export Plug-In . SVG Version: 6.00 Build 0)  -->
<svg version="1.1" id="Layer_1" xmlns="http://www.w3.org/2000/svg" xmlns:xlink="http://www.w3.org/1999/xlink" x="0px" y="0px"
	 viewBox="0 0 220 240" style="enable-background:new 0 0 220 240;" xml:space="preserve">
<g>
	<g>
		<path style="fill:#BA8535;" d="M184.96,220.33c-3.33,11.7-84.28,8.82-115.5,5.69c-31.23-3.12-28.28-10.64-28.28-10.64
			s-0.01-0.24,0.12-0.66c0.6-0.06,1.05-0.6,0.99-1.21c0-0.06,1.47-6.91,34.56-14.41c36.11-8.19,50.24-5.25,78.61,4.58
			c5.07,1.76,9.24,3.37,12.66,4.83c14.25,6.09,15.66,9.59,15.74,9.82c0.01,0.03,0.01,0.06,0.02,0.1c0.08,0.31,0.28,0.57,0.55,0.72
			C184.94,219.93,184.96,220.33,184.96,220.33z"/>
		<path d="M186.07,218.13c0.03,0.61-0.44,1.13-1.06,1.16h-0.05c-0.19,0-0.38-0.05-0.53-0.14c-0.27-0.15-0.47-0.41-0.55-0.72
			c-0.01-0.04-0.01-0.07-0.02-0.1c-0.08-0.23-1.49-3.73-15.74-9.82c-3.42-1.46-7.59-3.07-12.66-4.83
			c-28.37-9.83-42.5-12.77-78.61-4.58c-33.09,7.5-34.56,14.35-34.56,14.41c0.06,0.61-0.39,1.15-0.99,1.21h-0.01
			c-0.61,0.06-1.16-0.39-1.21-1c-0.13-1.4,1.01-8.79,36.28-16.79c36.67-8.31,51.02-5.33,79.83,4.65
			C184.36,211.34,186.02,217.07,186.07,218.13z"/>
	</g>
	<g>
		<g>
			<path d="M87.83,214.77c-0.22,0-0.45-0.08-0.62-0.25c-0.35-0.34-0.36-0.91-0.02-1.26c8.11-8.31,17.66-3.73,17.76-3.69
				c0.44,0.22,0.62,0.75,0.4,1.19c-0.22,0.44-0.75,0.62-1.19,0.4c-0.36-0.17-8.52-4.03-15.7,3.33
				C88.29,214.68,88.06,214.77,87.83,214.77z"/>
		</g>
		<g>
			<path d="M104.56,207.27c-0.24,0-0.49-0.1-0.66-0.29c-5.94-6.6-13.44-3.9-13.51-3.87c-0.46,0.17-0.97-0.06-1.14-0.52
				c-0.17-0.46,0.06-0.97,0.52-1.14c0.09-0.03,8.71-3.13,15.46,4.35c0.33,0.36,0.3,0.93-0.07,1.26
				C104.98,207.2,104.77,207.27,104.56,207.27z"/>
		</g>
		<path d="M116.96,207.21c-0.38,0-0.74-0.25-0.85-0.64c-0.14-0.47,0.13-0.96,0.6-1.1c0.33-0.1,8.04-2.31,11.74,0.11
			c0.41,0.27,0.53,0.82,0.26,1.23c-0.27,0.41-0.82,0.53-1.23,0.26c-2.51-1.64-8.27-0.48-10.27,0.11
			C117.13,207.2,117.04,207.21,116.96,207.21z"/>
	</g>
</g>
<g>
	<path d="M133.17,168.29c-0.53-0.75-1.47-1.02-2.78-0.81c-3.48,0.55-8.32,3.86-9.94,5.48c-1.14,1.13-3.97,3.22-5.78,3.22h-0.06
		c-0.34-0.01-0.56-0.1-0.7-0.2c-0.5-1.85-3.2-12.9,0.07-23.51c1.99-6.46,4.07-10.29,5.59-13.09c1.32-2.42,2.19-4.02,2-5.72
		l-0.06-0.52c-0.23-2.09-0.34-3.14-1.24-3.63c-0.78-0.42-1.6-0.01-1.9,0.14c-1.54,0.77-2.7,4.53-3.17,6.33
		c-0.57,0.77-2.92,4-4.12,6.12c-1.33,2.34-6.03,14.5-4.98,21.4c0.84,5.47,1.21,10.39,1.31,11.74c-0.6,0.83-1.42,1.58-1.72,1.58
		c0,0,0,0,0,0c-0.02,0-0.07-0.06-0.14-0.17c-0.89-1.45-3.7-6.59-2.7-12.29c1.08-6.09-5.86-11.06-6.58-11.56
		c-0.35-0.28-1.59-1.2-2.75-0.61c-1.35,0.69-1.18,2.72-1.13,3.38c0.03,0.3,0.17,0.57,0.41,0.75c0.04,0.03,4.02,3.15,4.61,7.01
		c0.13,0.83,0.11,1.92,0.1,3.18c-0.07,4.9-0.17,12.29,7.98,18.25c0.39,0.75,1.68,3.34,2.5,5.66c0.87,2.46,0.79,6.41,0.78,6.91
		c-0.13,0.93-0.93,6.75-0.69,9.03c-0.19-0.02-0.41-0.05-0.6-0.07c-0.94-0.12-2.13-0.27-3.24,0.19c-1.58,0.65-1.61,1.67-1.54,2.08
		c0.29,1.83,3.39,2.26,4.7,2.36c1.93,0.15,2.93-0.38,3.59-0.72c0.48-0.25,0.48-0.25,0.9,0.03c1.78,1.22,6.15,2.9,7.91,2.9
		c0.08,0,0.15,0,0.22-0.01c0.87-0.09,1.14-0.67,1.21-0.91c0.32-1.07-0.61-1.83-3.37-4.09c-0.44-0.36-0.9-0.73-1.39-1.14
		c-0.89-0.75-0.97-1.01-0.98-1.03c0-0.07,0.09-0.28,0.16-0.44c0.32-0.75,0.81-1.87,0.37-3.97c-0.82-3.96-0.62-9.52,0-12.96
		c0.5-2.77,1.61-5.68,2.07-6.81c1.4-0.36,4.86-1.45,6.01-3.57c1.1-2.06,6.03-5.96,7.92-5.96c0.39,0,0.75-0.22,0.94-0.56
		C133.19,171.34,134.06,169.53,133.17,168.29z M131.33,170.21c-3.2,0.63-7.92,4.9-9.05,7c-0.68,1.27-3.51,2.29-5.14,2.64
		c-0.33,0.07-0.61,0.3-0.75,0.61c-0.07,0.17-1.72,4-2.41,7.75c-0.67,3.64-0.88,9.55,0,13.77c0.3,1.44,0.01,2.11-0.24,2.7
		c-0.59,1.38-0.54,2.32,1.41,3.94c0.49,0.41,0.96,0.79,1.4,1.15c0.26,0.21,0.52,0.43,0.78,0.64c-1.47-0.49-3.2-1.22-4.22-1.92
		c-0.65-0.44-1.17-0.61-1.65-0.61c-0.52,0-0.97,0.2-1.43,0.44c-0.56,0.29-1.13,0.59-2.45,0.49c-1.09-0.08-1.82-0.27-2.27-0.45
		c0.56-0.14,1.28-0.05,1.92,0.03c0.94,0.12,1.92,0.24,2.57-0.44c0.39-0.41,0.53-0.98,0.41-1.69c-0.22-1.35,0.28-5.94,0.67-8.7
		c0-0.04,0.01-0.08,0.01-0.11c0.01-0.19,0.16-4.75-0.89-7.75c-1.02-2.88-2.67-6.02-2.73-6.15c-0.08-0.15-0.19-0.27-0.32-0.37
		c-7.46-5.34-7.37-11.88-7.3-16.65c0.02-1.36,0.03-2.53-0.12-3.53c-0.61-3.96-3.89-7.07-5.03-8.05c-0.01-0.38,0.02-0.63,0.05-0.78
		c0.13,0.06,0.29,0.17,0.4,0.26c0.03,0.03,0.07,0.06,0.1,0.08c0.07,0.04,6.6,4.53,5.73,9.46c-1.14,6.44,1.99,12.17,2.98,13.77
		c0.62,1,1.45,1.16,1.89,1.17c1.75,0.02,3.31-2.15,3.74-2.82c0.13-0.19,0.19-0.42,0.17-0.64c0-0.06-0.35-5.81-1.34-12.3
		c-0.97-6.29,3.5-17.9,4.72-20.03c1.29-2.25,4.08-6.04,4.11-6.08c0.08-0.11,0.14-0.23,0.17-0.36c0.58-2.23,1.47-4.45,1.99-5.05
		c0.08,0.43,0.14,1.07,0.22,1.7l0.06,0.53c0.11,1.04-0.63,2.4-1.75,4.47c-1.47,2.71-3.7,6.81-5.76,13.48
		c-3.76,12.2-0.16,24.49,0,25.01c0.04,0.15,0.12,0.29,0.23,0.41c0.6,0.66,1.42,1.01,2.37,1.04c2.82,0.06,6.36-2.82,7.38-3.84
		c1.47-1.47,5.91-4.43,8.77-4.89c0.42-0.06,0.64-0.03,0.72-0.01C131.46,169.69,131.41,169.95,131.33,170.21z"/>
	<path style="fill:#A19407;" d="M131.33,170.21c-3.2,0.63-7.92,4.9-9.05,7c-0.68,1.27-3.51,2.29-5.14,2.64
		c-0.33,0.07-0.61,0.3-0.75,0.61c-0.07,0.17-1.72,4-2.41,7.75c-0.67,3.64-0.88,9.55,0,13.77c0.3,1.44,0.01,2.11-0.24,2.7
		c-0.59,1.38-0.54,2.32,1.41,3.94c0.49,0.41,0.96,0.79,1.4,1.15c0.26,0.21,0.52,0.43,0.78,0.64c-1.47-0.49-3.2-1.22-4.22-1.92
		c-0.65-0.44-1.17-0.61-1.65-0.61c-0.52,0-0.97,0.2-1.43,0.44c-0.56,0.29-1.13,0.59-2.45,0.49c-1.09-0.08-1.82-0.27-2.27-0.45
		c0.56-0.14,1.28-0.05,1.92,0.03c0.94,0.12,1.92,0.24,2.57-0.44c0.39-0.41,0.53-0.98,0.41-1.69c-0.22-1.35,0.28-5.94,0.67-8.7
		c0-0.04,0.01-0.08,0.01-0.11c0.01-0.19,0.16-4.75-0.89-7.75c-1.02-2.88-2.67-6.02-2.73-6.15c-0.08-0.15-0.19-0.27-0.32-0.37
		c-7.46-5.34-7.37-11.88-7.3-16.65c0.02-1.36,0.03-2.53-0.12-3.53c-0.61-3.96-3.89-7.07-5.03-8.05c-0.01-0.38,0.02-0.63,0.05-0.78
		c0.13,0.06,0.29,0.17,0.4,0.26c0.03,0.03,0.07,0.06,0.1,0.08c0.07,0.04,6.6,4.53,5.73,9.46c-1.14,6.44,1.99,12.17,2.98,13.77
		c0.62,1,1.45,1.16,1.89,1.17c1.75,0.02,3.31-2.15,3.74-2.82c0.13-0.19,0.19-0.42,0.17-0.64c0-0.06-0.35-5.81-1.34-12.3
		c-0.97-6.29,3.5-17.9,4.72-20.03c1.29-2.25,4.08-6.04,4.11-6.08c0.08-0.11,0.14-0.23,0.17-0.36c0.58-2.23,1.47-4.45,1.99-5.05
		c0.08,0.43,0.14,1.07,0.22,1.7l0.06,0.53c0.11,1.04-0.63,2.4-1.75,4.47c-1.47,2.71-3.7,6.81-5.76,13.48
		c-3.76,12.2-0.16,24.49,0,25.01c0.04,0.15,0.12,0.29,0.23,0.41c0.6,0.66,1.42,1.01,2.37,1.04c2.82,0.06,6.36-2.82,7.38-3.84
		c1.47-1.47,5.91-4.43,8.77-4.89c0.42-0.06,0.64-0.03,0.72-0.01C131.46,169.69,131.41,169.95,131.33,170.21z"/>
</g>
<g>
	<g>
		<path style="fill:#8CCD00;" d="M136.55,165.04c-0.05,0.91-0.42,2.22-1.89,3.44c-1.44,1.18-2.22,1.12-2.75,1.07
			c0.17-0.82,0.64-1.85,1.88-2.69C135.04,166.02,135.93,165.44,136.55,165.04z"/>
		<path d="M138.02,163.33c-0.08-0.24-0.27-0.43-0.51-0.51c-0.24-0.09-0.5-0.06-0.72,0.06c-0.04,0.03-1.03,0.61-3.95,2.56
			c-3.39,2.27-2.65,5.69-2.62,5.83c0.09,0.39,0.43,0.66,0.83,0.66c0.02,0,0.04,0,0.06,0c0.39-0.03,0.7-0.31,0.77-0.69
			c0.73,0.06,2,0.06,3.84-1.46C139.22,166.91,138.07,163.48,138.02,163.33z M134.65,168.48c-1.44,1.18-2.22,1.12-2.75,1.07
			c0.17-0.82,0.64-1.85,1.88-2.69c1.25-0.84,2.15-1.42,2.76-1.82C136.5,165.95,136.13,167.26,134.65,168.48z"/>
	</g>
	<g>
		<path style="fill:#8CCD00;" d="M116.93,131.5c-0.54-0.17-1.15-0.46-1.4-0.83c-0.11-0.17-0.14-0.35-0.07-0.58
			c0.36-1.39,0.16-3.48-0.08-5C117.62,126.98,117.25,130.08,116.93,131.5z"/>
		<path d="M114.51,122.63c-0.3-0.12-0.63-0.07-0.87,0.14c-0.24,0.2-0.35,0.53-0.28,0.83c0.26,1.15,0.86,4.49,0.45,6.06
			c-0.18,0.7-0.08,1.36,0.3,1.94c0.89,1.36,3.05,1.72,3.29,1.76c0.04,0,0.08,0.01,0.13,0.01c0.36,0,0.68-0.22,0.8-0.57
			C119.23,130.19,119.59,124.72,114.51,122.63z M116.93,131.5c-0.54-0.17-1.15-0.46-1.4-0.83c-0.11-0.17-0.14-0.35-0.07-0.58
			c0.36-1.39,0.16-3.48-0.08-5C117.62,126.98,117.25,130.08,116.93,131.5z"/>
	</g>
	<g>
		<path style="fill:#8CCD00;" d="M97.79,154.06c-0.72-1.07-0.52-1.69-0.28-2.44c0.04-0.11,0.07-0.23,0.11-0.34
			c0.15-0.5,0.19-1.11,0.19-1.68c0.49,0.46,0.78,0.97,0.88,1.52C98.87,152.21,98.28,153.34,97.79,154.06z"/>
		<path d="M100.36,150.84c-0.26-1.52-1.32-2.75-3.17-3.68c-0.28-0.14-0.62-0.11-0.88,0.08c-0.25,0.19-0.39,0.5-0.33,0.82
			c0.11,0.7,0.22,2.06,0.02,2.73c-0.03,0.1-0.06,0.2-0.09,0.3c-0.36,1.09-0.85,2.58,1.26,4.89c0.16,0.17,0.38,0.27,0.61,0.28h0.01
			c0.23,0,0.45-0.09,0.61-0.25C98.5,155.91,100.81,153.5,100.36,150.84z M97.79,154.06c-0.72-1.07-0.52-1.69-0.28-2.44
			c0.04-0.11,0.07-0.23,0.11-0.34c0.15-0.5,0.19-1.11,0.19-1.68c0.49,0.46,0.78,0.97,0.88,1.52
			C98.87,152.21,98.28,153.34,97.79,154.06z"/>
	</g>
	<g>
		<path style="fill:#8CCD00;" d="M93.1,155.84c-1.36,0.32-3.79,0.48-5-1.85c-0.42-0.81-1.07-1.81-1.66-2.65
			C90.15,152.44,92.2,154.62,93.1,155.84z"/>
		<path d="M95.17,155.93c-0.11-0.22-2.9-5.57-10.59-6.74c-0.34-0.05-0.68,0.11-0.86,0.41c-0.17,0.3-0.15,0.67,0.06,0.94
			c0.02,0.03,1.97,2.6,2.82,4.23c1.18,2.26,3.2,2.94,5.06,2.94c1.2,0,2.32-0.28,3.09-0.61c0.22-0.09,0.39-0.27,0.47-0.49
			C95.29,156.39,95.28,156.15,95.17,155.93z M88.09,153.99c-0.42-0.81-1.07-1.81-1.66-2.65c3.72,1.1,5.77,3.28,6.66,4.5
			C91.73,156.15,89.31,156.32,88.09,153.99z"/>
	</g>
</g>
</svg>
