<svg xml:space="preserve" style="enable-background:new 0 0 292.2 280;" viewBox="0 0 292.2 280" y="0px" x="0px" xmlns:xlink="http://www.w3.org/1999/xlink" xmlns="http://www.w3.org/2000/svg" version="1.1">
<g id="레이어_6">
</g>
<g id="레이어_5">
</g>
<g id="레이어_2">
	<g>
		<g>
			<path d="M173.4,131L162,143.9c-4.3,4.8-4.5,11.7-0.4,15.3l4.5,4c2.1,1.8,5.5,1.3,7.7-1.1l19-21.5
				c2.2-2.5,2.3-5.9,0.2-7.7l-4.5-4C184.4,125.2,177.7,126.2,173.4,131z" style="fill:#9E9E9E;"></path>
		</g>
		<g>
			<path d="M178.8,138.2L178.8,138.2c-3.3,3.8-9,4.3-12.9,1l-1.9-1.6c-3.8-3.3-4.3-9-1-12.9l0,0
				c3.3-3.8,9-4.3,12.9-1l1.9,1.6C181.6,128.6,182.1,134.4,178.8,138.2z" style="fill:#9E9E9E;"></path>
		</g>
		<g>
			<path d="M171.3,118.4l1.1,13c0.3,3.5-2.3,6.6-5.8,6.8l-20.2,1.7c-7.1,0.6-13.3-4.6-13.9-11.7v0
				c-0.6-7.1,4.6-13.3,11.7-13.9l20.2-1.7C168,112.3,171,114.9,171.3,118.4z" style="fill:#9E9E9E;"></path>
		</g>
		<g>
			<path d="M134.1,128.9L134.1,128.9c-5-0.5-8.7-4.9-8.2-10l0.4-3.7c0.5-5,4.9-8.7,10-8.2h0
				c5,0.5,8.7,4.9,8.2,10l-0.4,3.7C143.5,125.7,139.1,129.4,134.1,128.9z" style="fill:#9E9E9E;"></path>
		</g>
		<g>
			<path d="M134.7,114.2L134.7,114.2c-3.9-7.9-4.1-15.7,2.5-18.9l29.5-14.4c6.5-3.2,14.9,0.6,18.8,8.5l0,0
				c3.9,7.9,1.7,16.8-4.8,20l-29.5,14.4C144.6,127,138.5,122,134.7,114.2z" style="fill:#9E9E9E;"></path>
		</g>
	</g>
	<g>
		<path d="M170.6,81.2c0,0-9.5-17.7-1.1-29.1c5.8-7.9,10.7-6.4,17.2-13.7c3.6-4.1,5.2-8.3,5.3-13.7
			c0.1-5.7-0.3-10.8,5.9-13.3c7-2.9,7.7,12.8,7.7,16.3c0,7.8-2.3,15.1-8,20.6c-5.7,5.5-16.1,7.4-19,15.4c-1.8,4.9,4.8,17.7-3.2,18.2
			C167.9,82.4,170.6,81.2,170.6,81.2z" style="fill:#143640;"></path>
	</g>
	<g>
		<g>
			<path d="M91.7,246.4h-1c-6.8,0-12.4-5.5-12.4-12.4v-14.8c0-6.8,5.5-12.4,12.4-12.4h1
				c6.8,0,12.4,5.5,12.4,12.4V234C104.1,240.8,98.6,246.4,91.7,246.4z" style="fill:#ABABAB;"></path>
		</g>
		<g>
			<path d="M92.1,207.4L92.1,207.4c-8,0-14.4-3.5-14.4-11.5v-35.8c0-7.9,6.4-14.4,14.4-14.4h0
				c8,0,14.4,6.4,14.4,14.4V196C106.5,203.9,100.1,207.4,92.1,207.4z" style="fill:#ABABAB;"></path>
		</g>
		<g>
			<path d="M91.2,218.9L91.2,218.9c-5.1,0-9.1-4.1-9.1-9.1V206c0-5.1,4.1-9.1,9.1-9.1h0
				c5.1,0,9.1,4.1,9.1,9.1v3.7C100.4,214.8,96.3,218.9,91.2,218.9z" style="fill:#143640;"></path>
		</g>
		<g>
			<path d="M92.1,254.8h-1.8c-4.5,0-8.2-3.7-8.2-8.2v0c0-4.5,3.7-8.2,8.2-8.2h1.8c4.5,0,8.2,3.7,8.2,8.2v0
				C100.4,251.1,96.7,254.8,92.1,254.8z" style="fill:#143640;"></path>
		</g>
		<g>
			<path d="M97.2,248.2H82.8c-5.4,0-9.9,4.4-9.9,9.9v6c0,2.8,2.2,5,5,5h24.1c2.8,0,5-2.2,5-5v-6
				C107,252.6,102.6,248.2,97.2,248.2z" style="fill:#757575;"></path>
		</g>
	</g>
	<g>
		<g>
			<circle r="39.1" cy="114" cx="182.7" style="fill:#6B6B6B;"></circle>
		</g>
		<g>
			<path d="M189.2,158.9l-7.2,9.6c-10.7,14.2-30.9,17-45.1,6.3l0,0c-14.2-10.7-17-30.9-6.3-45.1l7.2-9.6
				c10.7-14.2,30.9-17,45.1-6.3l0,0C197.1,124.5,199.9,144.7,189.2,158.9z" style="fill:#919191;"></path>
		</g>
		<g>
			<path d="M134.6,209.8H99.9c-15.5,0-28-12.5-28-28v-23.3c0-15.5,12.5-28,28-28h34.7c15.5,0,28,12.5,28,28
				v23.3C162.6,197.2,150,209.8,134.6,209.8z" style="fill:#6B6B6B;"></path>
		</g>
		<g>
			<path d="M120.1,187.4c0,0,0-5.1,0-27.3c0-18.7,16.5-26.8,21.8-29c-1.8-0.4-3.6-0.6-5.4-0.6h-25.7
				c0,0-23.5,7.3-23.5,29.6s0,27.3,0,27.3s1.3,20.9,8.7,22.3c0.6,0,1.2,0.1,1.8,0.1h31.7C121.5,209.8,120.1,187.4,120.1,187.4z" style="fill:#143640;"></path>
		</g>
	</g>
	<g>
		<g>
			<g>
				<path d="M75.3,100.4c0,0-4.8-11.9-15.1-6.6C42.5,102.7,25,115.4,20,138.4c-2.7,12.1,12.7,23,28.1-1.9
					C58.9,119.3,77.5,110.8,75.3,100.4z" style="fill:#143640;"></path>
			</g>
		</g>
		<g>
			<g>
				<path d="M94.5,100.4c0,0,4.8-11.9,15.1-6.6c17.7,8.9,35.1,21.7,40.2,44.7c2.7,12.1-12.7,23-28.1-1.9
					C110.9,119.3,92.3,110.8,94.5,100.4z" style="fill:#143640;"></path>
			</g>
		</g>
	</g>
	<g>
		<g>
			<path d="M132.8,148.6c0,25.7-23.6,45.4-46.5,45.4c-22.2,0-46.5-19.7-46.5-45.4s20.8-46.5,46.5-46.5
				S132.8,122.9,132.8,148.6z" style="fill:#ABABAB;"></path>
		</g>
		<g>
			<path d="M119.3,115.8c-8.4-8.5-14-16.5-32.9-16.5c-17.8,0-24.5,8-32.9,16.5c-2.8,7-4.5,15.3-1.3,22.1
				c6.8,14.6,15.7,14.8,15.3,23.3c-0.3,7.6,9.8,11.6,16.8,12.1c7.3,0.6,21.4-4,21-12.2c-0.4-8.5,8.5-8.7,15.3-23.3
				C123.8,131.1,122.1,122.8,119.3,115.8z" style="fill:#143640;"></path>
		</g>
		<g>
			<circle r="24.8" cy="164.3" cx="86.3" style="fill:#FFFBE3;"></circle>
		</g>
	</g>
	<g>
		<g>
			<path d="M68.4,141.3c-2.9,0-5.3-2.4-5.3-5.3s2.4-5.3,5.3-5.3c2.9,0,5.3,2.4,5.3,5.3S71.3,141.3,68.4,141.3
				z M68.4,132.3c-2,0-3.7,1.7-3.7,3.7c0,2,1.7,3.7,3.7,3.7c2,0,3.7-1.7,3.7-3.7C72.1,134,70.4,132.3,68.4,132.3z" style="fill:#74DEFF;"></path>
		</g>
		<g>
			<path d="M104.3,141.3c-2.9,0-5.3-2.4-5.3-5.3s2.4-5.3,5.3-5.3c2.9,0,5.3,2.4,5.3,5.3
				S107.2,141.3,104.3,141.3z M104.3,132.3c-2,0-3.7,1.7-3.7,3.7c0,2,1.7,3.7,3.7,3.7c2,0,3.7-1.7,3.7-3.7
				C108,134,106.3,132.3,104.3,132.3z" style="fill:#74DEFF;"></path>
		</g>
	</g>
	<g>
		<g>
			<path d="M89.3,144.3h-8.8c-2.5,0-3.8,2.9-2.1,4.8l4.4,4.9c1.1,1.3,3.1,1.3,4.2,0l4.4-4.9
				C93,147.2,91.7,144.3,89.3,144.3z" style="fill:#1C4059;"></path>
		</g>
		<g>
			<rect height="9.4" width="0.8" y="155.1" x="84.5"></rect>
		</g>
	</g>
	<g>
		<g>
			<path d="M149.2,244.9l-0.9-0.4c-6.3-2.7-9.2-10-6.4-16.3l5.9-13.5c2.7-6.3,10-9.2,16.3-6.4l0.9,0.4
				c6.3,2.7,9.2,10,6.4,16.3l-5.9,13.5C162.7,244.8,155.4,247.7,149.2,244.9z" style="fill:#ABABAB;"></path>
		</g>
		<g>
			<path d="M161.5,204.5L161.5,204.5c-7.8,1.6-14.7-0.2-16.1-7l-6.2-30.7c-1.4-6.8,3.8-13.6,11.6-15.2h0
				c7.8-1.6,15.2,2.6,16.6,9.4l6.2,30.7C175,198.6,169.3,202.9,161.5,204.5z" style="fill:#ABABAB;"></path>
		</g>
		<g>
			<path d="M159.9,215.2L159.9,215.2c-5-0.8-8.4-5.4-7.7-10.4l0.6-3.7c0.8-5,5.4-8.4,10.4-7.7h0
				c5,0.8,8.4,5.4,7.7,10.4l-0.6,3.7C169.6,212.5,164.9,215.9,159.9,215.2z" style="fill:#143640;"></path>
		</g>
		<g>
			<path d="M144.2,253.7l-1.6-0.9c-3.9-2.3-5.3-7.3-3-11.2l0,0c2.3-3.9,7.3-5.3,11.2-3l1.6,0.9
				c3.9,2.3,5.3,7.3,3,11.2l0,0C153.1,254.7,148.1,256,144.2,253.7z" style="fill:#143640;"></path>
		</g>
		<g>
			<path d="M150.1,248.2h-14.4c-5.4,0-9.9,4.4-9.9,9.9v6c0,2.8,2.2,5,5,5H155c2.8,0,5-2.2,5-5v-6
				C160,252.6,155.5,248.2,150.1,248.2z" style="fill:#757575;"></path>
		</g>
	</g>
	<g>
		<g>
			<path d="M244.9,124.7l5.7,16.2c2.1,6.1,8,9.6,13.1,7.8l5.6-2c2.6-0.9,3.8-4.1,2.7-7.2l-9.5-27.1
				c-1.1-3.1-4.1-4.9-6.7-4l-5.6,2C245.2,112.2,242.8,118.6,244.9,124.7z" style="fill:#757575;"></path>
		</g>
		<g>
			<path d="M253.9,123.4L253.9,123.4c1.8,4.7-0.6,10-5.4,11.7l-2.3,0.9c-4.7,1.8-10-0.6-11.7-5.4v0
				c-1.8-4.7,0.6-10,5.4-11.7l2.3-0.9C246.8,116.3,252.1,118.7,253.9,123.4z" style="fill:#143640;"></path>
		</g>
		<g>
			<path d="M232.9,120.3l11.8,5.4c3.2,1.4,4.6,5.2,3.2,8.4l-8.3,18.4c-2.9,6.5-10.5,9.3-17,6.4h0
				c-6.5-2.9-9.3-10.5-6.4-17l8.3-18.4C225.9,120.3,229.7,118.8,232.9,120.3z" style="fill:#ABABAB;"></path>
		</g>
		<g>
			<path d="M223.9,158L223.9,158c-2.9,4.1-8.5,5.2-12.7,2.3l-3.1-2.1c-4.1-2.9-5.2-8.5-2.3-12.7l0,0
				c2.9-4.1,8.5-5.2,12.7-2.3l3.1,2.1C225.7,148.2,226.8,153.9,223.9,158z" style="fill:#143640;"></path>
		</g>
		<g>
			<path d="M211.3,150.3L211.3,150.3c-8.7-0.5-15.7-4.1-15.3-11.3l1.8-32.7c0.4-7.3,7.8-12.7,16.5-12.3h0
				c8.7,0.5,15.5,6.7,15.1,14l-1.8,32.7C227.3,147.9,220.1,150.7,211.3,150.3z" style="fill:#9E9E9E;"></path>
		</g>
	</g>
</g>
<g id="레이어_1">
</g>
</svg>
