<?xml version="1.0" encoding="utf-8"?>
<!-- Generator: Adobe Illustrator 26.5.0, SVG Export Plug-In . SVG Version: 6.00 Build 0)  -->
<svg version="1.1" id="레이어_5" xmlns="http://www.w3.org/2000/svg" xmlns:xlink="http://www.w3.org/1999/xlink" x="0px"
	 y="0px" viewBox="0 0 240 240" style="enable-background:new 0 0 240 240;" xml:space="preserve">
<g>
	<path style="fill:#2D97C6;" d="M77,96.3c-3.1-23.7,11.8-42,38.6-45.5l30.5-4c26.8-3.5,46,10.3,49.1,34"/>
	<path d="M75.7,96.5C72.5,71.9,88.4,53,115.5,49.4l30.5-4c13.4-1.8,25.3,0.7,34.4,7c9,6.3,14.6,16.1,16.2,28.1l-2.7,0.4
		c-1.5-11.3-6.7-20.4-15.1-26.3c-8.5-6-19.7-8.2-32.5-6.6l-30.5,4c-25.8,3.4-40.5,20.7-37.4,44L75.7,96.5z"/>
</g>
<g>
	<path style="fill:#4A4A4A;" d="M179.9,75.1l5.3,40l11.2-5.4c3.7-1.8,5.8-5.7,5.3-9.8l-1.9-14.2c-0.5-4.1-3.6-7.3-7.7-8.1
		L179.9,75.1z"/>
	<polygon style="fill:#737373;" points="182.6,88.2 183.9,98.3 201.2,94.9 200.6,90.2 	"/>
	<path d="M185.2,116.4c-0.2,0-0.4-0.1-0.6-0.2c-0.4-0.2-0.6-0.6-0.7-1l-5.3-40c-0.1-0.4,0.1-0.9,0.4-1.2c0.3-0.3,0.8-0.4,1.2-0.3
		l12.2,2.3c4.6,0.9,8.1,4.6,8.7,9.3l1.9,14.2c0.6,4.7-1.8,9.2-6,11.2l-11.2,5.4C185.6,116.4,185.4,116.4,185.2,116.4z M181.5,76.8
		l4.8,36.2l9.5-4.6c3.2-1.5,5-4.9,4.5-8.4l-1.9-14.2c-0.5-3.5-3.1-6.3-6.6-7L181.5,76.8z"/>
</g>
<g>
	<g>
		<path style="fill:#EAEAEA;" d="M67,113.4L67,113.4L67,113.4c5.3-5.8,20.9,3.4,29.6,9.3c6.4,4.3,12,10,15.9,16.5
			c3.8,6.4,6.1,13.6,2.2,17.9"/>
		<path d="M115.6,158l-2-1.8c3.8-4.2,0.2-12-2.4-16.3c-3.6-6.1-9-11.7-15.5-16.1c-14.1-9.5-24.5-13.1-27.8-9.5l-2-1.8
			c5.7-6.2,20.2,1.5,31.3,9.1c6.8,4.6,12.4,10.5,16.3,16.9C118.7,147.2,119.4,153.9,115.6,158z"/>
	</g>
	<g>
		<path style="fill:#2D97C6;" d="M96.6,156.4c6.7,3.2,14.1,4.9,18,0.6L67,113.4l0,0c-5.3,5.8,5.2,20.5,11.8,28.7
			C83.7,148.1,89.8,153.2,96.6,156.4z"/>
		<path style="fill:#1E6784;" d="M108.1,161c-3.3,0-7.4-1.1-12-3.3c-6.8-3.2-13.1-8.3-18.3-14.7c-8.5-10.5-17.4-24.2-11.8-30.4
			l0.9-1l49.6,45.5l-0.9,1C113.8,160,111.2,161,108.1,161z M67.3,115.5c-1.7,4.3,2.9,13.7,12.6,25.7c4.9,6.1,10.9,10.9,17.4,14l0,0
			c4.1,2,11.3,4.6,15.4,1.8L67.3,115.5z"/>
	</g>
	<path d="M108.1,161c-3.3,0-7.4-1.1-12-3.3l0,0c-6.8-3.2-13.1-8.3-18.3-14.7c-8.5-10.5-17.4-24.2-11.8-30.4
		c5.7-6.2,20.2,1.5,31.3,9.1c6.8,4.6,12.4,10.5,16.3,16.9c5.1,8.6,5.8,15.4,2,19.5C113.8,160,111.2,161,108.1,161z M71.9,113
		c-1.7,0-3.1,0.5-3.9,1.4c-3.3,3.6,1.1,13.6,11.9,26.9c4.9,6.1,10.9,10.9,17.4,14l0,0c4.5,2.1,12.6,5.1,16.4,0.9
		c3.8-4.2,0.2-12-2.4-16.3c-3.6-6.1-9-11.7-15.5-16.1C85.3,116.8,76.9,113,71.9,113z"/>
</g>
<g>
	<path style="fill:#4A4A4A;" d="M90.4,83l4.8,40L83,120.5c-4-0.8-7.1-4.1-7.6-8.2l-1.7-14.3c-0.5-4.1,1.7-8,5.4-9.8L90.4,83z"/>
	<polygon style="fill:#737373;" points="91,96.4 92.2,106.5 74.6,107.4 74,102.8 	"/>
	<path d="M95.2,124.4c-0.1,0-0.2,0-0.3,0l-12.2-2.5c-4.6-0.9-8.1-4.7-8.6-9.4l-1.7-14.3c-0.6-4.7,1.9-9.1,6.2-11.2l11.3-5.3
		c0.4-0.2,0.9-0.2,1.2,0c0.4,0.2,0.6,0.6,0.7,1l4.8,40c0.1,0.4-0.1,0.9-0.4,1.2C95.8,124.3,95.5,124.4,95.2,124.4z M89.2,85
		l-9.6,4.5c-3.2,1.5-5.1,4.9-4.6,8.4l1.7,14.3c0.4,3.5,3,6.3,6.5,7l10.3,2.1L89.2,85z"/>
</g>
<g>
	<g>
		<path style="fill:#35FFFF;" d="M186.7,18.9l4.8,3.6c0.5,0.4,1.2,0.5,1.8,0.4l5.8-1.5c1.7-0.4,3.1,1.2,2.6,2.8l-2,5.7
			c-0.2,0.6-0.1,1.3,0.2,1.9l3.3,5.1c0.9,1.4-0.1,3.3-1.8,3.3l-6-0.1c-0.7,0-1.3,0.3-1.7,0.8l-3.8,4.7c-1.1,1.3-3.2,0.9-3.7-0.7
			l-1.8-5.8c-0.2-0.6-0.7-1.1-1.3-1.4l-5.6-2.2c-1.6-0.6-1.8-2.8-0.4-3.7l4.9-3.4c0.5-0.4,0.9-1,0.9-1.6l0.3-6
			C183.3,18.7,185.3,17.8,186.7,18.9z"/>
		<path style="fill:#2991BE;" d="M188.2,47.5c-0.2,0-0.5,0-0.7-0.1c-1.3-0.3-2.3-1.2-2.7-2.4l-1.8-5.8c-0.1-0.2-0.2-0.4-0.5-0.5
			l-5.6-2.2c-1.2-0.5-2-1.6-2.2-2.8c-0.2-1.3,0.4-2.5,1.5-3.3l4.9-3.4c0.2-0.1,0.3-0.4,0.3-0.6l0.3-6c0.1-1.3,0.9-2.4,2-3
			c1.2-0.5,2.5-0.4,3.6,0.4l4.8,3.6c0.2,0.1,0.4,0.2,0.7,0.1l5.8-1.5c1.2-0.3,2.6,0.1,3.4,1c0.9,0.9,1.2,2.3,0.7,3.5l-2,5.7
			c-0.1,0.2,0,0.5,0.1,0.7l3.3,5.1c0.7,1.1,0.7,2.5,0.1,3.6c-0.6,1.1-1.8,1.8-3.1,1.8l-6-0.1c-0.3,0-0.5,0.1-0.6,0.3l-3.8,4.7
			C190.2,47,189.2,47.5,188.2,47.5z M185.4,19.8c-0.2,0-0.3,0-0.3,0.1c-0.1,0.1-0.4,0.2-0.5,0.7l-0.3,6c-0.1,1.1-0.6,2-1.5,2.7
			l-4.9,3.4c-0.3,0.2-0.3,0.6-0.3,0.7c0,0.1,0.1,0.5,0.5,0.6l5.6,2.2c1,0.4,1.8,1.2,2.1,2.2l1.8,5.8c0.1,0.4,0.5,0.5,0.6,0.5
			c0.1,0,0.5,0.1,0.8-0.3l3.8-4.7c0.7-0.8,1.7-1.3,2.7-1.3c0,0,0,0,0.1,0l6,0.1c0,0,0,0,0,0c0.4,0,0.6-0.3,0.7-0.4
			c0.1-0.1,0.2-0.4,0-0.8l-3.3-5.1c-0.6-0.9-0.7-2-0.4-3l2-5.7c0.1-0.4-0.1-0.7-0.2-0.8c-0.1-0.1-0.4-0.3-0.8-0.2l-5.8,1.5
			c-1,0.3-2.1,0.1-3-0.6l-4.8-3.6C185.7,19.8,185.5,19.8,185.4,19.8z"/>
	</g>
	<g>
		<path style="fill:#35FFFF;" d="M31.6,109.5l4.8,3.6c0.5,0.4,1.2,0.5,1.8,0.4l5.8-1.5c1.7-0.4,3.1,1.2,2.6,2.8l-2,5.7
			c-0.2,0.6-0.1,1.3,0.2,1.9l3.3,5.1c0.9,1.4-0.1,3.3-1.8,3.3l-6-0.1c-0.7,0-1.3,0.3-1.7,0.8l-3.8,4.7c-1.1,1.3-3.2,0.9-3.7-0.7
			l-1.8-5.8c-0.2-0.6-0.7-1.1-1.3-1.4l-5.6-2.2c-1.6-0.6-1.8-2.8-0.4-3.7l4.9-3.4c0.5-0.4,0.9-1,0.9-1.6l0.3-6
			C28.3,109.3,30.3,108.4,31.6,109.5z"/>
		<path style="fill:#2991BE;" d="M33.1,138.1c-0.2,0-0.5,0-0.7-0.1c-1.3-0.3-2.3-1.2-2.7-2.4l-1.8-5.8c-0.1-0.2-0.2-0.4-0.5-0.5
			l-5.6-2.2c-1.2-0.5-2-1.6-2.2-2.8c-0.2-1.3,0.4-2.5,1.5-3.3l4.9-3.4c0.2-0.1,0.3-0.4,0.3-0.6l0.3-6c0.1-1.3,0.9-2.4,2-3
			c1.2-0.5,2.5-0.4,3.6,0.4v0l4.8,3.6c0.2,0.1,0.4,0.2,0.7,0.1l5.8-1.5c1.3-0.3,2.6,0.1,3.5,1c0.9,0.9,1.2,2.3,0.7,3.5l-2,5.7
			c-0.1,0.2,0,0.5,0.1,0.7l3.3,5.1c0.7,1.1,0.7,2.5,0.1,3.6c-0.6,1.1-1.8,1.8-3.1,1.8l-6-0.1c-0.2,0-0.5,0.1-0.6,0.3l-3.8,4.7
			C35.2,137.6,34.2,138.1,33.1,138.1z M30.3,110.4c-0.1,0-0.3,0-0.3,0.1c-0.1,0.1-0.4,0.2-0.5,0.7l-0.3,6c-0.1,1.1-0.6,2.1-1.5,2.7
			l-4.9,3.4c-0.3,0.2-0.3,0.6-0.3,0.7c0,0.1,0.1,0.5,0.5,0.6l5.6,2.2c1,0.4,1.8,1.2,2.1,2.2l1.8,5.8c0.1,0.4,0.5,0.5,0.6,0.5
			c0.1,0,0.5,0.1,0.8-0.3l3.8-4.7c0.7-0.8,1.7-1.3,2.8-1.3l6,0.1c0.4,0,0.6-0.3,0.7-0.4c0.1-0.1,0.2-0.5,0-0.8l-3.3-5.1
			c-0.6-0.9-0.7-2-0.4-3l2-5.7c0.1-0.4-0.1-0.7-0.2-0.8c-0.1-0.1-0.4-0.3-0.8-0.2l-5.8,1.5c-1,0.3-2.1,0.1-3-0.6l-4.8-3.6
			C30.6,110.4,30.5,110.4,30.3,110.4z"/>
	</g>
	<g>
		<path style="fill:#35FFFF;" d="M148.1,3.9l-0.7,5.2c-0.1,0.6,0.1,1.1,0.5,1.6l3.7,3.8c1,1.1,0.5,2.9-1,3.2l-5.2,1
			c-0.6,0.1-1.1,0.5-1.3,1l-2.5,4.7c-0.7,1.3-2.6,1.3-3.3,0l-2.5-4.6c-0.3-0.5-0.8-0.9-1.3-1l-5.2-0.9c-1.5-0.3-2.1-2.1-1-3.1
			l3.6-3.8c0.4-0.4,0.6-1,0.5-1.6L131.6,4c-0.2-1.5,1.3-2.6,2.7-2l4.8,2.3c0.5,0.2,1.1,0.2,1.6,0l4.7-2.3
			C146.7,1.3,148.3,2.4,148.1,3.9z"/>
		<path style="fill:#2991BE;" d="M140,26.6c-1.2,0-2.3-0.6-2.8-1.7l-2.5-4.6c-0.1-0.1-0.2-0.2-0.4-0.3l-5.2-0.9
			c-1.2-0.2-2.1-1-2.5-2.2c-0.4-1.1-0.1-2.4,0.7-3.2l3.6-3.8c0.1-0.1,0.2-0.3,0.1-0.4l-0.8-5.2c-0.2-1.2,0.3-2.4,1.3-3.1
			c1-0.7,2.2-0.8,3.3-0.3l4.8,2.3c0.1,0.1,0.3,0.1,0.5,0l4.7-2.3c1.1-0.5,2.3-0.4,3.3,0.3c1,0.7,1.5,1.9,1.3,3.1l-0.7,5.2
			c0,0.2,0,0.3,0.1,0.4l3.7,3.8c0.8,0.9,1.1,2.1,0.8,3.2c-0.4,1.1-1.3,2-2.5,2.2l-5.2,1c-0.2,0-0.3,0.1-0.4,0.3l-2.5,4.7
			C142.3,26,141.2,26.6,140,26.6C140,26.6,140,26.6,140,26.6z M133.4,3.2c-0.1,0-0.2,0.1-0.3,0.1c-0.1,0.1-0.2,0.2-0.2,0.5l0.8,5.2
			c0.1,1-0.2,2-0.9,2.7l-3.6,3.8c-0.2,0.2-0.2,0.4-0.1,0.5c0,0.1,0.1,0.3,0.4,0.4l5.2,0.9c1,0.2,1.8,0.8,2.3,1.6l2.5,4.6
			c0.1,0.2,0.4,0.3,0.5,0.3c0.1,0,0.3,0,0.5-0.3l2.5-4.7c0.5-0.9,1.3-1.5,2.3-1.7l5.2-1c0.3,0,0.4-0.2,0.4-0.4
			c0-0.1,0.1-0.3-0.1-0.5l-3.7-3.8c-0.7-0.7-1-1.7-0.9-2.7l0.7-5.2c0-0.3-0.1-0.4-0.2-0.5c-0.1-0.1-0.3-0.2-0.5,0l-4.7,2.3
			c-0.9,0.4-1.9,0.4-2.8,0l-4.8-2.3C133.6,3.3,133.5,3.2,133.4,3.2z"/>
	</g>
	<g>
		<path style="fill:#35FFFF;" d="M52,77.2l-0.7,5.2c-0.1,0.6,0.1,1.1,0.5,1.6l3.7,3.8c1,1.1,0.5,2.9-1,3.2l-5.2,1
			c-0.6,0.1-1.1,0.5-1.3,1l-2.5,4.7c-0.7,1.3-2.6,1.3-3.3,0l-2.5-4.6c-0.3-0.5-0.8-0.9-1.3-1l-5.2-0.9c-1.5-0.3-2.1-2.1-1-3.1
			l3.6-3.8c0.4-0.4,0.6-1,0.5-1.6l-0.8-5.2c-0.2-1.5,1.3-2.6,2.7-2l4.8,2.3c0.5,0.2,1.1,0.2,1.6,0l4.7-2.3
			C50.6,74.6,52.2,75.7,52,77.2z"/>
		<path style="fill:#2991BE;" d="M43.8,99.9c-1.2,0-2.3-0.6-2.8-1.7l-2.5-4.6c-0.1-0.1-0.2-0.2-0.4-0.3l-5.2-0.9
			c-1.2-0.2-2.1-1-2.5-2.2c-0.4-1.1-0.1-2.4,0.7-3.2l3.6-3.8c0.1-0.1,0.2-0.3,0.1-0.4l-0.8-5.2c-0.2-1.2,0.3-2.4,1.3-3.1
			c1-0.7,2.2-0.8,3.3-0.3l4.8,2.3c0.1,0.1,0.3,0.1,0.5,0l4.7-2.3c1.1-0.5,2.3-0.4,3.3,0.3c1,0.7,1.5,1.9,1.3,3.1v0l-0.7,5.2
			c0,0.2,0,0.3,0.1,0.4l3.7,3.8c0.8,0.9,1.1,2.1,0.8,3.2c-0.4,1.1-1.3,2-2.5,2.2l-5.2,1c-0.2,0-0.3,0.1-0.4,0.3l-2.5,4.7
			C46.1,99.3,45.1,99.9,43.8,99.9C43.9,99.9,43.8,99.9,43.8,99.9z M37.3,76.5c-0.1,0-0.2,0.1-0.3,0.1c-0.1,0.1-0.2,0.2-0.2,0.5
			l0.8,5.2c0.1,1-0.2,2-0.9,2.7l-3.6,3.8c-0.2,0.2-0.2,0.4-0.1,0.5c0,0.1,0.1,0.3,0.4,0.3l5.2,0.9c1,0.2,1.8,0.8,2.3,1.6l2.5,4.6
			c0.1,0.2,0.4,0.2,0.5,0.3c0.1,0,0.3,0,0.5-0.3l2.5-4.7c0.5-0.9,1.3-1.5,2.3-1.7l5.2-1c0.3,0,0.4-0.2,0.4-0.4
			c0-0.1,0.1-0.3-0.1-0.5L50.8,85c-0.7-0.7-1-1.7-0.9-2.7l0.7-5.2c0-0.3-0.1-0.4-0.2-0.5c-0.1-0.1-0.3-0.2-0.5,0l-4.7,2.3
			c-0.9,0.4-1.9,0.4-2.8,0l-4.8-2.3C37.5,76.5,37.4,76.5,37.3,76.5z"/>
	</g>
	<g>
		<circle style="fill:#35FFFF;" cx="211.9" cy="67.7" r="4.6"/>
		<path style="fill:#2991BE;" d="M211.9,63c2.6,0,4.6,2.1,4.6,4.6c0,2.6-2.1,4.6-4.6,4.6c-2.6,0-4.6-2.1-4.6-4.6
			C207.3,65.1,209.4,63,211.9,63 M211.9,60.3c-4,0-7.3,3.3-7.3,7.3c0,4,3.3,7.3,7.3,7.3c4,0,7.3-3.3,7.3-7.3
			C219.3,63.6,216,60.3,211.9,60.3L211.9,60.3z"/>
	</g>
	<g>
		<circle style="fill:#35FFFF;" cx="201.3" cy="54" r="2.1"/>
		<path style="fill:#2991BE;" d="M201.3,52c1.1,0,2.1,0.9,2.1,2.1c0,1.1-0.9,2.1-2.1,2.1c-1.1,0-2.1-0.9-2.1-2.1
			C199.2,52.9,200.1,52,201.3,52 M201.3,49.3c-2.6,0-4.8,2.1-4.8,4.8s2.1,4.8,4.8,4.8c2.6,0,4.8-2.1,4.8-4.8S203.9,49.3,201.3,49.3
			L201.3,49.3z"/>
	</g>
	<g>
		<circle style="fill:#35FFFF;" cx="211.9" cy="86.2" r="2.1"/>
		<path style="fill:#2991BE;" d="M211.9,84.2c1.1,0,2.1,0.9,2.1,2.1c0,1.1-0.9,2.1-2.1,2.1c-1.1,0-2.1-0.9-2.1-2.1
			C209.9,85.1,210.8,84.2,211.9,84.2 M211.9,81.5c-2.6,0-4.8,2.1-4.8,4.8c0,2.6,2.1,4.8,4.8,4.8c2.6,0,4.8-2.1,4.8-4.8
			C216.7,83.6,214.6,81.5,211.9,81.5L211.9,81.5z"/>
	</g>
</g>
<g>
	<g>
		<path style="fill:#E5E5E5;" d="M147.3,118.2c-7.4,0-14.9,2.2-21.1,6.3c-7.9,5.2-11.5,12.6-15.1,21c-3.2,7.3-7.4,14-12.5,20
			c-1.6,1.9-3.5,3.6-5.2,5.3c-5.9,5.6-11.5,10.9-7.6,19.9c4.5,10.4,14.3,18.1,21.3,23.1c22.9,16.2,37.3,13.8,41.1,8.5
			c0.1-0.1,0.1-0.2,0.2-0.3c17.2-14.4,28.6-34.3,30.7-53.2c1.9-17-0.3-37.1-9.4-43.5C162.7,120.5,155,118.2,147.3,118.2z"/>
		<path d="M137.6,227.6c-7.5,0-18-3.3-31.4-12.8c-7.1-5-17.1-13-21.7-23.6c-4.2-9.8,1.9-15.7,7.9-21.4c1.8-1.7,3.6-3.4,5.2-5.2
			c5.1-5.9,9.2-12.5,12.3-19.6c3.8-8.7,7.6-16.3,15.7-21.6c6.4-4.2,14.2-6.5,21.8-6.5c8.3,0,16.2,2.5,22.9,7.3
			c9.6,6.8,11.9,27.4,10,44.8c-2.1,19.2-13.7,39.4-31.1,54C147.3,225.6,143.4,227.6,137.6,227.6z M147.3,119.5
			c-7.2,0-14.4,2.1-20.4,6c-7.5,4.9-10.9,11.8-14.6,20.4c-3.2,7.4-7.5,14.2-12.7,20.3c-1.7,1.9-3.5,3.7-5.3,5.4
			c-5.8,5.5-10.8,10.3-7.3,18.4c4.3,10,13.9,17.6,20.8,22.5c22.9,16.2,36.3,13,39.2,8.9c0.1-0.1,0.2-0.3,0.3-0.4
			c17-14.3,28.3-33.8,30.3-52.4c1.8-16.1-0.3-36.2-8.9-42.3C162.4,121.9,155,119.5,147.3,119.5z"/>
	</g>
	<path style="fill:#2D97C6;" d="M177.2,175.3c4.9-17.2,5.3-45.4-13.9-53.9c-4.1-1.8-8.6-2.7-13.1-3.1c-10.1-0.9-19.7,2.7-27.1,9.4
		c-3.8,3.4-6.9,7.5-9.6,11.8c-0.7,1.2-6.6,11.2-5.1,11.8c2.2,0.8,2.9,1,3.1,1.1c2.7,1,4.7,2.7,6.3,5.3c1.3,2.1,1.4,4.5,1.5,6.9
		c0,0.8,0.1,1.7,0.1,2.5c0.4,4.1,2.7,7.7,6.3,9.7c1.7,1,3.6,1.7,5.6,2c0.7,0.1,1.5,0.2,2.2,0.2c3.3,0,6.4-1.3,8.8-3.6
		c3.7-3.7,8.6-6.1,13.8-6.9c3.4-0.5,7-0.1,11.5,1.1c4.4,1.2,6.4,2.6,9.5,5.4"/>
	<path style="fill:#1E6784;" d="M133.4,180.2c-0.8,0-1.6-0.1-2.4-0.2c-2.1-0.4-4.1-1.1-6-2.1c-3.9-2.2-6.5-6.1-6.9-10.5
		c-0.1-0.8-0.1-1.6-0.1-2.5c-0.1-2.6-0.2-4.7-1.3-6.6c-1.5-2.4-3.3-4-5.8-4.9l-3.1-1.1l0.7-2l3.1,1.1c3,1.1,5.2,2.9,6.9,5.8
		c1.5,2.4,1.6,5,1.6,7.5c0,0.9,0.1,1.7,0.1,2.5c0.4,3.7,2.5,7,5.8,8.8c1.6,0.9,3.4,1.6,5.3,1.9c3.7,0.7,7.6-0.6,10.2-3.1
		c3.9-3.8,9.1-6.4,14.5-7.2c3.5-0.5,7.4-0.1,12.1,1.2c4.6,1.3,6.8,2.8,10.1,5.6l-1.4,1.6c-3.2-2.8-5-4-9.2-5.2
		c-4.4-1.2-8-1.6-11.2-1.1c-5,0.7-9.7,3.1-13.3,6.6C140.6,178.8,137,180.2,133.4,180.2z"/>
	<path d="M137.6,227.6c-7.5,0-18-3.3-31.4-12.8c-7.1-5-17.1-13-21.7-23.6c-4.2-9.8,1.9-15.7,7.9-21.4c1.8-1.7,3.6-3.4,5.2-5.2
		c5.4-6.2,9.8-13.6,13.5-22.5c3.6-8.5,8-14.4,13.9-18.4c6.5-4.4,14.5-6.9,22.4-6.9c8.3,0,16.2,2.5,22.9,7.3
		c9.6,6.8,11.9,27.4,10,44.8c-2.1,19.2-13.7,39.4-31.1,54C147.3,225.6,143.4,227.6,137.6,227.6z M147.3,119.5
		c-7.4,0-14.8,2.3-20.9,6.4c-5.5,3.7-9.6,9.2-12.9,17.2c-3.8,9.1-8.4,16.7-13.9,23.2c-1.7,1.9-3.5,3.7-5.3,5.4
		c-5.8,5.5-10.8,10.3-7.3,18.4c4.3,10,13.9,17.6,20.8,22.5c22.9,16.2,36.3,13,39.2,8.9c0.1-0.1,0.2-0.3,0.3-0.4
		c17-14.3,28.3-33.8,30.3-52.4c1.8-16.1-0.3-36.2-8.9-42.3C162.4,121.9,155,119.5,147.3,119.5z"/>
</g>
<g>
	<path style="fill:#EAEAEA;" d="M177.4,57.5c-11.8-16.5-32.5-22.8-48.1-20.7s-34,13.4-41.1,32.5c-3.6,9.5-3.9,27.9-2.6,39.2
		c2.9,23.9,25.4,40.9,49.3,37.7l8.7-1.1l0,0l8.7-1.1c23.9-3.1,41.3-25.3,37.8-49.2C188.4,83.4,183.3,65.8,177.4,57.5z"/>
	<path d="M135.2,36.4c14.6,0,31.9,6.6,42.2,21.1c5.9,8.3,11,25.9,12.6,37.2c3.4,23.9-13.9,46-37.8,49.2l-8.7,1.1l-8.7,1.1
		c-1.9,0.3-3.8,0.4-5.7,0.4c-21.7,0-40.9-16.1-43.5-38.1c-1.4-11.3-1-29.6,2.6-39.2c7.1-19,25.5-30.4,41.1-32.5
		C131.2,36.5,133.2,36.4,135.2,36.4 M135.2,33.7c-2.1,0-4.2,0.1-6.3,0.4c-15.5,2-35.6,13.6-43.3,34.2c-4,10.6-4,30-2.7,40.4
		c2.8,23.1,22.6,40.5,46.2,40.5c2,0,4.1-0.1,6.1-0.4l8.7-1.1l8.7-1.1c12.5-1.6,23.6-8.1,31.2-18.2c7.5-9.9,10.7-22,8.9-34.1
		c-1.5-10.4-6.5-29.1-13.1-38.3C168,39.5,149,33.7,135.2,33.7L135.2,33.7z"/>
</g>
<g>
	<path style="fill:#C9C9C9;" d="M134.3,146.2c-23.7,3.1-45.5-13.6-48.6-37.3C82.6,85.3,99.3,63.5,123,60.3l18.5-2.4
		c23.7-3.1,45.5,13.6,48.6,37.3s-13.6,45.5-37.3,48.6L134.3,146.2z"/>
	<g>
		<path style="fill:#2B2C47;" d="M152.1,134.8l-19.3,2.5c-18.8,2.5-36-10.7-38.5-29.5l0,0c-2.5-18.8,10.7-36,29.5-38.5l19.3-2.5
			c18.8-2.5,36,10.7,38.5,29.5l0,0C184.1,115.1,170.8,132.3,152.1,134.8z"/>
		<path d="M147.6,66.5c17,0,31.7,12.6,34,29.8v0c2.5,18.8-10.7,36-29.5,38.5l-19.3,2.5c-1.5,0.2-3,0.3-4.5,0.3
			c-17,0-31.7-12.6-34-29.8v0c-2.5-18.8,10.7-36,29.5-38.5l19.3-2.5C144.6,66.6,146.1,66.5,147.6,66.5 M147.6,63.8L147.6,63.8
			c-1.6,0-3.3,0.1-4.9,0.3l-19.3,2.5c-20.2,2.7-34.5,21.3-31.9,41.5c2.4,18.3,18.2,32.2,36.7,32.2c1.6,0,3.3-0.1,4.9-0.3l19.3-2.5
			c9.8-1.3,18.5-6.3,24.5-14.2s8.6-17.6,7.3-27.4C181.9,77.6,166.1,63.8,147.6,63.8L147.6,63.8z"/>
	</g>
	
		<rect x="116" y="96.7" transform="matrix(0.646 -0.7633 0.7633 0.646 -41.8432 128.2196)" style="fill:#35FFFF;" width="2.7" height="25.1"/>
	
		<rect x="104.3" y="107.8" transform="matrix(0.5226 -0.8526 0.8526 0.5226 -37.0586 152.154)" style="fill:#35FFFF;" width="26.1" height="2.7"/>
	
		<rect x="152.7" y="91.7" transform="matrix(0.646 -0.7633 0.7633 0.646 -25.0055 154.5008)" style="fill:#35FFFF;" width="2.7" height="25.1"/>
	
		<rect x="141" y="102.8" transform="matrix(0.5226 -0.8526 0.8526 0.5226 -15.2358 181.1054)" style="fill:#35FFFF;" width="26.1" height="2.7"/>
</g>
<g>
	<path style="fill:#4A4A4A;" d="M85.9,184.9L78,197.3c-2.5,3.1,5.2,17,19.4,28.2c7.9,6.2,18.4,14.5,29.1,12.3
		c6.7-1.3,8.6-5.4,13.1-10.3c0,0-0.1-10.1-23.9-28.3S85.9,184.9,85.9,184.9z"/>
	<path d="M122.9,239.5c-10,0-19.3-7.4-26.4-13c-13.5-10.7-23.2-25.6-19.6-30.1l8-12.5l0.2-0.2c1.1-0.7,8-3.5,31.4,14.4
		c24.1,18.4,24.4,29,24.4,29.4l0,0.5l-0.4,0.4c-1,1-1.8,2-2.6,3c-3,3.5-5.5,6.5-11.2,7.7C125.5,239.4,124.2,239.5,122.9,239.5z
		 M86.8,186l-7.6,12c-1.5,1.9,4.1,14.6,19.1,26.4c7.5,6,17.8,14.1,28,12.1c4.8-1,6.8-3.4,9.7-6.8c0.7-0.8,1.5-1.7,2.3-2.6
		c-0.4-2.1-3.4-11.6-23.3-26.8C95.2,185.2,88.2,185.7,86.8,186z"/>
</g>
<g>
	<path style="fill:#4A4A4A;" d="M82,198.1c0,0,9.6-2,26.6,13.3s19,20.7,19,20.7"/>
	<path d="M127.6,233.4c-0.6,0-1.1-0.3-1.3-0.9c0,0-2.3-5.5-18.6-20.1c-16.2-14.5-25.4-13-25.5-13c-0.7,0.1-1.4-0.3-1.6-1.1
		c-0.1-0.7,0.3-1.4,1.1-1.6c0.4-0.1,10.4-1.9,27.8,13.6c17.1,15.3,19.3,21,19.4,21.2c0.3,0.7-0.1,1.5-0.8,1.7
		C128,233.4,127.8,233.4,127.6,233.4z"/>
</g>
<g>
	<g>
		<path style="fill:#FFFFFF;" d="M70,8.4H46.9c-12.5,0-22.6,10.1-22.6,22.6s10.1,22.6,22.6,22.6h7.6c0,0-2.2,12.5,12.5,14.8
			c0,0-5.7-4.2-4.9-14.8h8c12.5,0,22.6-10.1,22.6-22.6S82.5,8.4,70,8.4z"/>
		<path d="M67,69.9c-0.1,0-0.1,0-0.2,0c-5.1-0.8-8.9-2.9-11.2-6.1c-2.3-3.2-2.6-6.7-2.5-8.7h-6.1c-13.2,0-24-10.8-24-24
			s10.8-24,24-24H70c13.2,0,24,10.8,24,24s-10.8,24-24,24h-6.7c-0.2,8.9,4.4,12.4,4.4,12.4c0.5,0.4,0.7,1,0.4,1.6
			C68,69.6,67.5,69.9,67,69.9z M46.9,9.8c-11.7,0-21.3,9.6-21.3,21.3s9.6,21.3,21.3,21.3h7.6c0.4,0,0.8,0.2,1,0.5
			c0.3,0.3,0.4,0.7,0.3,1.1c0,0-0.7,4.5,2,8.3c1.3,1.8,3.1,3.1,5.5,4c-1.5-2.6-3-6.6-2.6-12.6c0-0.7,0.6-1.3,1.4-1.3h8
			c11.7,0,21.3-9.6,21.3-21.3S81.8,9.8,70,9.8H46.9z"/>
	</g>
	<path d="M53.8,49.6c-0.6,0-1.2,0-1.7-0.1c-3.3-0.4-6.2-2.2-7.8-4.7c-1.8-2.9-1.6-6.8,0.5-9.2c0.4-0.5,0.9-0.9,1.4-1.2
		c-0.4-0.9-0.5-1.9-0.5-2.9c0-0.8,0.2-1.5,0.4-2.3c-1-1.2-1.6-2.8-1.4-4.4c0.2-1.3,0.7-2.6,1.7-3.8c2.1-2.5,5.3-4,8.5-3.8
		c0.7,0,1.3,0.6,1.3,1.4c0,0.7-0.6,1.3-1.4,1.3c-0.1,0-0.2,0-0.2,0c-2.3,0-4.7,1.1-6.1,2.9c-0.7,0.8-1.1,1.6-1.1,2.3
		c-0.1,0.5,0,0.9,0.2,1.4c0.3-0.3,0.5-0.6,0.8-0.8c2.6-2.3,6.6-3,10.6-1.9c0.4,0.1,0.8,0.2,1.1,0.4c0.9-0.5,1.8-0.9,2.7-1.2
		c-1.5-0.6-3.3-0.6-4.7,0.2c-0.6,0.4-1.5,0.2-1.9-0.4c-0.4-0.6-0.2-1.5,0.4-1.9c3-1.8,7.1-1.3,9.7,1.2c0.6-0.1,1.3-0.1,1.9-0.1
		c3.2,0,6.9,1.6,7.4,4.9c0.1,0.7,0,1.4-0.2,2.2c1.7,2.8,1.5,6.2,1.1,8.9c-0.2,1.4-0.5,3-1.4,4.4c-1.4,2.1-4.1,3.2-7.7,3.2
		c-0.8,0-1.5-0.1-2.2-0.2c-1.2,1-2.8,1.9-4.7,2.7C58.2,49.2,55.9,49.6,53.8,49.6z M47.8,36.7c-0.3,0.2-0.7,0.5-0.9,0.8
		c-1.3,1.5-1.4,4.1-0.2,6c1.1,1.8,3.3,3.1,5.8,3.4c2.2,0.3,4.6-0.1,7.3-1.2c0.9-0.3,1.7-0.7,2.4-1.1c-1.1-0.6-2.1-1.3-2.8-2.2
		c-0.8-1-1.2-2.3-1.3-3.6c-0.4-0.1-0.8-0.1-1.1-0.2c-0.8,0.3-1.6,0.3-2.3,0.3C52.4,38.7,49.7,38.4,47.8,36.7z M67.5,43
		c0,0,0.1,0,0.1,0c1.2,0,4.1-0.2,5.3-2.1c0.6-0.9,0.8-2.1,1-3.2c0.3-1.8,0.4-3.9-0.2-5.8c-1.7,1.7-3.9,2.6-5.9,2.3
		c-0.2,0-0.4-0.1-0.6-0.1c-0.1,0.2-0.3,0.4-0.4,0.6c0.6,0.5,1,1.2,1.3,1.9C69,38.5,68.7,40.9,67.5,43z M60.7,38.6
		c0,0.8,0.3,1.5,0.7,2.1c0.8,1,2,1.6,3.1,2c0,0,0.1-0.1,0.1-0.2c1.2-1.5,1.6-3.4,1-4.9c-0.2-0.4-0.4-0.7-0.7-1
		c-1.2,0.9-2.6,1.6-4.1,2C60.8,38.5,60.7,38.5,60.7,38.6z M51.5,35.7c0.7,0.2,1.5,0.3,2.3,0.3c0,0,0-0.1-0.1-0.1
		C53,35.7,52.3,35.7,51.5,35.7C51.6,35.7,51.6,35.7,51.5,35.7z M56.2,33.6c0.5,0.1,0.9,0.2,1.3,0.3c0.4,0.1,0.7,0.3,0.8,0.6
		c0.2,0.3,0.2,0.5,0.3,0.8c0.5-0.9,1.3-1.6,2.2-2.1c1.1-0.5,2.4-0.5,3.6-0.1c0.2-0.2,0.3-0.4,0.5-0.6c-0.2-0.2-0.3-0.4-0.4-0.6
		c-0.7-1-0.9-2.2-0.6-3.3c0.3-1.1,1-1.9,1.9-2.5c-0.1-0.4-0.3-0.8-0.6-1.1c-1.1,0.2-2.2,0.6-3.2,1.1c0.3,0.6,0.3,1.4,0,2
		c-0.4,1.1-1.5,1.6-2,1.9c-1.1,0.5-2.2,1-3.4,1.4c-0.2,0.5-0.4,1.1-0.5,1.7C56.3,33.4,56.2,33.5,56.2,33.6z M48.4,31.3
		c0,0.1,0,0.2,0,0.4c0,0.6,0.1,1.2,0.3,1.7c0.8-0.2,1.7-0.4,2.6-0.4c0.8,0,1.6,0,2.3,0.1c0-0.1,0-0.2,0-0.3c0-0.2,0.1-0.4,0.1-0.5
		c-0.9,0.1-1.8,0.1-2.7-0.1C50.1,32.1,49.2,31.8,48.4,31.3z M68.6,31.6c1.3,0.1,2.5-0.7,3.3-1.5c0.1-0.1,0.3-0.3,0.5-0.5
		c-0.8-0.7-1.7-1.2-2.7-1.4c-0.2,0-0.4-0.1-0.6,0C69.1,29.3,68.9,30.4,68.6,31.6z M49.3,28.7c0.6,0.4,1.4,0.7,2.1,0.9
		c1.1,0.2,2.3,0.1,3.4-0.2c0.7-1.1,1.5-2.2,2.5-3c-2.3-0.4-5.2-0.2-7.2,1.5C49.9,28,49.6,28.3,49.3,28.7z M69.1,25.4
		c0.3,0,0.6,0,0.9,0.1c0.9,0.1,1.8,0.4,2.6,0.9c-0.8-1-2.6-1.5-4.3-1.5c0,0-0.1,0-0.1,0c0.1,0.2,0.2,0.4,0.2,0.6
		C68.7,25.4,68.9,25.4,69.1,25.4z"/>
</g>
<g>
	<g>
		<path style="fill:#EAEAEA;" d="M217.1,181.1L217.1,181.1L217.1,181.1c5.8-5.3-3.4-20.9-9.2-29.6c-4.3-6.4-9.9-12-16.5-15.9
			c-6.4-3.8-13.6-6.1-17.9-2.2"/>
		<path d="M218,182.1l-1.8-2c3.6-3.3,0.1-13.7-9.4-27.8c-4.4-6.5-9.9-11.8-16.1-15.5c-4.3-2.5-12.1-6.2-16.3-2.4l-1.8-2
			c4.1-3.8,10.8-3.1,19.5,2c6.5,3.8,12.3,9.5,16.9,16.3C216.5,162,224.2,176.5,218,182.1z"/>
	</g>
	<g>
		<path style="fill:#2D97C6;" d="M174.1,151.4c-3.2-6.7-4.9-14.1-0.6-18l43.6,47.7l0,0c-5.8,5.3-20.5-5.2-28.6-11.9
			C182.5,164.4,177.4,158.3,174.1,151.4z"/>
		<path style="fill:#1E6784;" d="M213,183.9c-7,0-17.2-6.9-25.4-13.6c-6.4-5.2-11.5-11.5-14.7-18.3l0,0c-4.3-9-4.4-15.8-0.3-19.6
			l1-0.9l45.4,49.7l-1,0.9C216.7,183.4,214.9,183.9,213,183.9z M173.5,135.5c-2.8,4.1-0.2,11.3,1.8,15.4l0,0
			c3.1,6.4,7.9,12.4,14,17.4c12,9.7,21.4,14.3,25.7,12.6L173.5,135.5z"/>
	</g>
	<path d="M213,183.9c-7,0-17.2-6.9-25.4-13.6c-6.4-5.2-11.5-11.5-14.7-18.3c-4.3-9-4.4-15.8-0.3-19.6c4.1-3.8,10.8-3.1,19.5,2
		c6.5,3.8,12.3,9.5,16.9,16.3c7.5,11.2,15.2,25.7,9,31.3C216.7,183.4,214.9,183.9,213,183.9z M179.2,132.8c-1.8,0-3.4,0.5-4.7,1.7
		c-4.2,3.8-1.2,11.9,0.9,16.4l0,0c3.1,6.4,7.9,12.4,14,17.4c13.2,10.7,23.3,15.2,26.9,11.9c3.6-3.3,0.1-13.7-9.4-27.8
		c-4.4-6.5-9.9-11.8-16.1-15.5C187.7,135.1,183.1,132.8,179.2,132.8z"/>
</g>
</svg>
