<?xml version="1.0" encoding="utf-8"?>
<!-- Generator: Adobe Illustrator 24.1.1, SVG Export Plug-In . SVG Version: 6.00 Build 0)  -->
<svg version="1.1" id="Layer_1" xmlns="http://www.w3.org/2000/svg" xmlns:xlink="http://www.w3.org/1999/xlink" x="0px" y="0px"
	 viewBox="0 0 160 240" style="enable-background:new 0 0 160 240;" xml:space="preserve">
<g>
	<path d="M73.95,183.34c3.25,0.71,6.63,1.16,10.1,1.44l-2.77,13.52l0,0c0,0,0.01,0,0.01,0l-3.69,16.08l-0.72,8.16
		c0,2.04-3.23,3.69-5.27,3.69h-2.54h-11c-0.86,0-1.76,0.03-2.68,0.03c-2.78,0-5.65-0.28-7.59-2.5c-1.76-2.02-1.27-6.06-0.15-8.27
		c2.07-4.07,6.04-7.09,10.5-8.06c1.07-0.21,2.05-0.29,2.94-0.29c4.73,0,7.09,2.42,7.09,2.42l3.13-13.31c0,0,0,0,0,0l0,0
		L73.95,183.34 M72.45,181.04l-0.39,1.91l-2.65,12.9l-2.49,10.63c-1.4-0.66-3.35-1.26-5.84-1.26c-1.07,0-2.19,0.11-3.31,0.33
		l-0.02,0l-0.02,0c-5.07,1.1-9.48,4.49-11.81,9.07c-1.32,2.61-2.07,7.56,0.42,10.41c2.42,2.78,5.78,3.16,9.04,3.16
		c0.47,0,0.95-0.01,1.41-0.02c0.43-0.01,0.85-0.01,1.27-0.01h11h2.54c2.84,0,7.11-2.2,7.19-5.52l0.7-7.96l3.39-14.79l0.02-0.01
		l0.23-1.1l0.01-0.06l0.54-2.36h-0.06l2.3-11.21l0.44-2.13l-2.16-0.18c-3.74-0.31-6.96-0.77-9.84-1.41L72.45,181.04L72.45,181.04z"
		/>
	<path style="fill-rule:evenodd;clip-rule:evenodd;fill:#0097EB;" d="M77.59,214.39l-0.72,8.16c0,2.04-3.23,3.69-5.27,3.69h-2.54
		H58.06c-3.48,0-7.69,0.49-10.27-2.47c-1.76-2.02-1.27-6.06-0.15-8.27c2.07-4.07,6.04-7.09,10.5-8.06c0,0-0.04,0.01,0,0
		c6.69-1.3,10.03,2.13,10.03,2.13l3.13-13.32c0,0,2.62,1.2,4.57,1.62s5.41,0.43,5.41,0.43L77.59,214.39z"/>
	<path style="fill:#FFFFFF;" d="M73.95,183.34l-2.65,12.92l0,0c0.05,0.02,2.63,1.2,4.57,1.62c1.93,0.42,5.33,0.43,5.4,0.43l0,0
		l2.77-13.52C80.58,184.5,77.2,184.06,73.95,183.34z"/>
</g>
<g>
	<path style="fill:#FFFFFF;" d="M107.88,182.9v17.65H96.93v-15.69C100.64,184.55,104.32,183.92,107.88,182.9z"/>
	<path style="fill-rule:evenodd;clip-rule:evenodd;fill:#019DF7;" d="M107.88,200.55v28.66c0,2.19-3.47,3.97-5.66,3.97H86.88
		c-0.93,0-1.9,0.03-2.88,0.03c-1.12,0-2.26-0.04-3.35-0.22c-0.36-0.05-0.72-0.13-1.07-0.22c-1.4-0.38-2.7-1.05-3.74-2.25
		c-1.9-2.17-1.37-6.52-0.16-8.89c2.22-4.38,6.4-7.6,11.2-8.64c0,0,0.22-0.05,0.26-0.07c1.3-0.25,2.44-0.35,3.45-0.35
		c0.86,0,1.62,0.08,2.29,0.2c0.44,0.08,0.85,0.18,1.22,0.3c1.09,0.34,1.84,0.8,2.29,1.14c0.15,0.12,0.26,0.22,0.35,0.3
		c0.13,0.12,0.19,0.2,0.19,0.2v-14.16H107.88z"/>
	<path d="M109.04,181.37c-0.34-0.26-0.75-0.39-1.16-0.39c-0.18,0-0.35,0.02-0.53,0.07c-3.3,0.93-6.86,1.57-10.58,1.88
		c-1,0.08-1.77,0.91-1.77,1.91v26.5c-1.14-0.4-2.6-0.7-4.41-0.7c-1.2,0-2.48,0.14-3.81,0.39c-0.03,0.01-0.06,0.02-0.08,0.02
		l-0.25,0.06c-5.33,1.15-10.01,4.76-12.49,9.65c-1.41,2.76-2.2,8.01,0.43,11.03c2.57,2.94,6.14,3.35,9.61,3.35
		c0.51,0,1.02-0.01,1.51-0.02c0.47-0.01,0.92-0.01,1.37-0.01h15.34c3.02,0,7.59-2.35,7.59-5.9V182.9
		C109.81,182.3,109.52,181.73,109.04,181.37z M107.88,229.21c0,2.19-3.47,3.97-5.66,3.97H86.88c-0.93,0-1.9,0.03-2.88,0.03
		c-1.12,0-2.26-0.04-3.35-0.22c-0.36-0.05-0.72-0.13-1.07-0.22c-1.4-0.38-2.7-1.05-3.74-2.25c-1.9-2.17-1.37-6.52-0.16-8.89
		c2.22-4.38,6.4-7.6,11.2-8.64c0,0,0.22-0.05,0.26-0.07c1.3-0.25,2.44-0.35,3.45-0.35c0.86,0,1.62,0.08,2.29,0.2
		c0.44,0.08,0.85,0.18,1.22,0.3c1.09,0.34,1.84,0.8,2.29,1.14c0.15,0.12,0.26,0.22,0.35,0.3c0.13,0.12,0.19,0.2,0.19,0.2v-29.87
		c3.71-0.3,7.39-0.93,10.95-1.94V229.21z"/>
</g>
<g>
	<path style="fill:#FFFFFF;" d="M56.34,35.13c-0.75,0.65-1.55,0.92-2.36,0.92c-1.58,0-3.22-1.01-4.78-2.26
		c-1.66-1.35-3-1.91-4.16-1.91c-1.37,0-2.48,0.77-3.56,1.96c-0.92,1-1.83,2.29-2.85,3.66c-1.53,2.04-3.83,3.11-6.16,3.11
		c-1.68,0-3.37-0.55-4.81-1.69c-3.44-2.72-4.14-7.74-1.55-11.25c1.65-2.24,3.52-4.34,5.62-6.14c0.76-0.66,1.56-1.28,2.39-1.85
		c2.91-2.01,5.62-2.95,8.64-2.95c1.45,0,2.97,0.21,4.62,0.63c3.21,0.8,6.1,3.2,8.03,5.64C59.58,28.31,58.82,32.99,56.34,35.13z"/>
	<path style="fill:#673101;" d="M26.11,27.67c1.65-2.24,3.52-4.34,5.62-6.14c1.36,0,2.05,0.79,2.09,0.84
		c0.77,0.7,1.19,1.76,1.03,2.88c-0.1,0.77-0.51,1.42-1.04,1.9c0.62-0.42,1.38-0.64,2.17-0.52c1.71,0.28,2.91,1.92,2.66,3.68
		c-0.12,0.88-0.57,1.6-1.21,2.09c0.54-0.25,1.13-0.41,1.76-0.3c1.03,0.16,1.85,0.84,2.29,1.74c-0.92,1-1.83,2.29-2.85,3.66
		c-1.53,2.04-3.83,3.11-6.16,3.11c-1.68,0-3.37-0.55-4.81-1.69C24.22,36.2,23.52,31.18,26.11,27.67z"/>
	<path d="M56.92,21.81c-2.52-3.21-5.83-5.51-9.08-6.32c-1.84-0.46-3.5-0.69-5.08-0.69c-3.39,0-6.49,1.05-9.74,3.3
		c-2.22,1.53-4.33,3.45-6.3,5.72c-0.74,0.85-1.46,1.75-2.16,2.7c-3.18,4.33-2.33,10.57,1.91,13.91c1.74,1.37,3.81,2.1,6,2.1
		c3.05,0,5.86-1.41,7.7-3.88c0.24-0.32,0.47-0.63,0.7-0.94c0.43-0.58,0.84-1.14,1.25-1.65c1.04-1.31,1.99-2.25,2.92-2.25
		c0.74,0,1.76,0.51,2.96,1.48c1.43,1.15,3.6,2.68,5.98,2.68c1.33,0,2.55-0.46,3.61-1.38C60.74,33.88,61.87,28.1,56.92,21.81z
		 M56.34,35.13c-0.75,0.65-1.55,0.92-2.36,0.92c-1.58,0-3.22-1.01-4.78-2.26c-1.66-1.35-3-1.91-4.16-1.91
		c-1.37,0-2.48,0.77-3.56,1.96c-0.92,1-1.83,2.29-2.85,3.66c-1.53,2.04-3.83,3.11-6.16,3.11c-1.68,0-3.37-0.55-4.81-1.69
		c-3.44-2.72-4.14-7.74-1.55-11.25c1.65-2.24,3.52-4.34,5.62-6.14c0.76-0.66,1.56-1.28,2.39-1.85c2.91-2.01,5.62-2.95,8.64-2.95
		c1.45,0,2.97,0.21,4.62,0.63c3.21,0.8,6.1,3.2,8.03,5.64C59.58,28.31,58.82,32.99,56.34,35.13z"/>
</g>
<g>
	<path style="fill:#0185C4;" d="M55.65,161.92c0.02,0.55-0.03,1.01-0.17,1.46c-0.64,2.18-2.8,3.8-5.76,4.34
		c-0.68,0.13-1.43,0.19-2.17,0.19h-0.09c-2.95-0.02-5.75-1.27-7.67-3.43c-0.45-0.51-0.85-1.07-1.17-1.65
		c-3.25-5.82-3.97-13.11-4.23-18.8c-0.06-1.29-0.06-2.61-0.02-3.95c0.02-0.47,0.04-0.94,0.07-1.41l0.08-1.11l0.07-0.68l0.65-0.11
		c3-0.51,7.67-0.96,12.91-0.19l0.8,0.12h0.02c-0.04,0.27-0.06,0.53-0.08,0.8c-0.05,0.86-0.08,1.62-0.08,2.33
		c0,0.36,0.01,0.7,0.02,1.04c0.06,1.31,0.17,2.52,0.34,3.71c0.33,2.39,0.92,4.65,1.78,6.89c0.63,1.63,1.37,3.21,2.26,4.82l0.1,0.19
		c0.2,0.37,0.42,0.73,0.64,1.1C54.76,158.92,55.6,160.31,55.65,161.92z"/>
	<path d="M55.58,156.55c-0.21-0.35-0.4-0.67-0.57-0.98l-0.11-0.21c-0.86-1.54-1.56-3.04-2.16-4.58c-0.8-2.11-1.35-4.22-1.67-6.47
		c-0.16-1.13-0.26-2.28-0.31-3.52c-0.05-0.94-0.03-1.94,0.06-3.15c0.2-3.06,1.61-6.04,3.1-9.2c0.97-2.05,1.98-4.18,2.73-6.48
		c1.39-4.25,2.47-9.96-0.25-13.02c-1.1-1.24-2.65-1.9-4.48-1.9c-0.29,0-0.59,0.02-0.89,0.05c-3.12,0.33-5.39,2.64-7.2,4.86
		c-2.95,3.62-6.08,8.8-7.61,12.62c-1.4,3.45-2.73,6.74-3.35,10.63l-0.22,1.52l-0.05,0.68l-0.09,1.11l-0.08,2.41
		c-0.02,1.09-0.01,2.16,0.04,3.2c0.27,5.9,1.02,13.48,4.47,19.65c0.39,0.7,0.87,1.37,1.41,1.99c2.28,2.57,5.6,4.05,9.1,4.08h0.1
		c0.86,0,1.73-0.08,2.52-0.22c3.69-0.68,6.4-2.8,7.26-5.69c0.19-0.65,0.27-1.33,0.24-2.07c-0.07-2.12-1.08-3.8-1.97-5.28
		L55.58,156.55z M55.48,163.38c-0.64,2.18-2.8,3.8-5.76,4.34c-0.68,0.13-1.43,0.19-2.17,0.19h-0.09c-2.95-0.02-5.75-1.27-7.67-3.43
		c-0.45-0.51-0.85-1.07-1.17-1.65c-3.25-5.82-3.97-13.11-4.23-18.8c-0.06-1.29-0.06-2.61-0.02-3.95c0.02-0.47,0.04-0.94,0.07-1.41
		l0.08-1.11l0.07-0.68c0.04-0.39,0.09-0.77,0.15-1.15c0.56-3.72,1.82-6.87,3.26-10.44c1.48-3.66,4.49-8.64,7.32-12.12
		c1.56-1.92,3.49-3.91,5.91-4.16c0.24-0.03,0.47-0.04,0.69-0.04c0.32,0,0.63,0.03,0.92,0.08c0.29,0.05,0.56,0.13,0.81,0.23
		s0.49,0.23,0.71,0.39c0.22,0.16,0.42,0.34,0.6,0.54c2.23,2.51,0.87,8.07-0.14,11.15c-0.72,2.19-1.69,4.26-2.64,6.26
		c-0.2,0.43-0.41,0.86-0.6,1.28c-0.88,1.89-1.69,3.74-2.18,5.63c-0.1,0.37-0.19,0.74-0.26,1.12c-0.07,0.35-0.13,0.7-0.17,1.05
		c-0.04,0.27-0.06,0.53-0.08,0.8c-0.05,0.86-0.08,1.62-0.08,2.33c0,0.36,0.01,0.7,0.02,1.04c0.06,1.31,0.17,2.52,0.34,3.71
		c0.33,2.39,0.92,4.65,1.78,6.89c0.63,1.63,1.37,3.21,2.26,4.82l0.1,0.19c0.2,0.37,0.42,0.73,0.64,1.1c0.81,1.34,1.65,2.73,1.7,4.34
		C55.67,162.47,55.62,162.93,55.48,163.38z"/>
	<path style="fill:#FFFFFF;" d="M54.82,121.36c-0.72,2.19-1.69,4.26-2.64,6.26c-0.2,0.43-0.41,0.86-0.6,1.28
		c-0.88,1.89-1.69,3.74-2.18,5.63c-0.1,0.37-0.19,0.74-0.26,1.12c-0.07,0.35-0.13,0.7-0.17,1.05h-0.02l-0.8-0.12
		c-5.24-0.77-9.91-0.32-12.91,0.19l-0.65,0.11c0.04-0.39,0.09-0.78,0.15-1.15c0.56-3.72,1.82-6.87,3.26-10.44
		c1.48-3.66,4.49-8.64,7.32-12.12c1.56-1.92,3.49-3.91,5.91-4.16c0.24-0.03,0.47-0.04,0.69-0.04c0.32,0,0.63,0.03,0.92,0.08
		c0.29,0.05,0.56,0.13,0.81,0.23s0.49,0.23,0.71,0.39c0.22,0.16,0.42,0.34,0.6,0.54C57.19,112.72,55.83,118.28,54.82,121.36z"/>
</g>
<g>
	<path style="fill:#0097EB;" d="M134.43,155.05c-2.94,10.2-9.34,18.65-17.58,23.18c-8.68,4.78-19.63,6.67-32.55,5.61
		c-13.03-1.06-26.28-4.14-34.85-19.37c-6.73-11.96-5.22-27.21-4.26-33.21c0.25-1.53,0.57-2.89,0.88-4.21
		c1.04-4.39,1.93-8.19-1.64-13.44c-1.46-2.15-3.44-3.83-5.36-5.45c-2.3-1.95-4.48-3.79-5.77-6.36c-5.4-10.73-7.37-21.14-6.2-32.76
		c1.06-10.53,4.87-19.84,10.44-25.53c9.24-9.44,20.6-15.59,31.14-16.86l3.8-0.47l0.22-0.02c1.56-0.2,3.16-0.29,4.8-0.29
		c9.41,0,19.91,3.2,29.5,9.1c6.79,4.17,12.74,12.28,16.31,22.24c3.72,10.34,4.45,20.98,2.16,31.62c-0.63,2.96-1.19,10.35-1.48,14.32
		l-0.03,0.38c-0.2,2.68,1.09,6.1,2.23,9.11c0.34,0.89,0.65,1.72,0.89,2.44c0.8,2.43,1.72,4.85,2.61,7.18l0.38,0.99
		c0.55,1.46,1.19,3.16,1.78,4.86C134.64,136.17,137.13,145.68,134.43,155.05z"/>
	<path d="M133.67,127.48c-0.6-1.73-1.25-3.44-1.8-4.92l-0.38-0.98c-0.88-2.32-1.79-4.72-2.58-7.1c-0.25-0.76-0.58-1.62-0.92-2.52
		c-1.01-2.69-2.28-6.03-2.11-8.29l0.03-0.38c0.27-3.64,0.84-11.23,1.44-14.06c2.37-10.99,1.62-21.99-2.22-32.67
		c-3.73-10.36-9.97-18.83-17.12-23.23c-11.62-7.15-24.58-10.46-35.52-9.09l-4.04,0.5c-10.97,1.32-22.74,7.67-32.29,17.42
		c-5.87,6-9.87,15.73-10.97,26.69c-1.19,11.83,0.9,22.89,6.39,33.81c1.47,2.93,3.9,4.98,6.25,6.97c1.9,1.61,3.69,3.13,5.01,5.06
		c3.09,4.55,2.36,7.64,1.35,11.92c-0.31,1.35-0.64,2.75-0.9,4.34c-0.99,6.21-2.54,21.98,4.48,34.46
		c9.02,16.01,22.81,19.25,36.38,20.35c2.37,0.2,4.67,0.29,6.92,0.29c10.34,0,19.3-2.05,26.71-6.13c8.68-4.78,15.42-13.65,18.5-24.33
		C139.13,145.7,136.56,135.83,133.67,127.48z M84.3,183.84c-13.03-1.06-26.28-4.14-34.85-19.37c-6.73-11.96-5.22-27.21-4.26-33.21
		c0.25-1.53,0.57-2.89,0.88-4.21c1.04-4.39,1.93-8.19-1.64-13.44c-1.46-2.15-3.44-3.83-5.36-5.45c-2.3-1.95-4.48-3.79-5.77-6.36
		c-5.4-10.73-7.37-21.14-6.2-32.76c1.06-10.53,4.87-19.84,10.44-25.53c9.24-9.44,20.6-15.59,31.14-16.86l3.8-0.47l0.22-0.02
		c1.56-0.2,3.16-0.29,4.8-0.29c9.41,0,19.91,3.2,29.5,9.1c6.79,4.17,12.74,12.28,16.31,22.24c3.72,10.34,4.45,20.98,2.16,31.62
		c-0.63,2.96-1.19,10.35-1.48,14.32l-0.03,0.38c-0.2,2.68,1.09,6.1,2.23,9.11c0.34,0.89,0.65,1.72,0.89,2.44
		c0.8,2.43,1.72,4.85,2.61,7.18l0.38,0.99c0.55,1.46,1.19,3.16,1.78,4.86c2.79,8.06,5.28,17.57,2.58,26.94
		c-2.94,10.2-9.34,18.65-17.58,23.18C108.17,183.01,97.22,184.9,84.3,183.84z"/>
</g>
<g>
	<path style="fill-rule:evenodd;clip-rule:evenodd;fill:#FFFFFF;" d="M109.07,91.39c-4.81,14.6-15.39,19.43-32.73,24.41
		c-9.03,2.58-20.04,3.19-29.7,1.78c-0.75-0.11-1.51-0.23-2.24-0.37c-13.21-2.42-22.51-13.45-19.5-25.67
		c0.21-0.87,3.08-5.43,3.08-5.43s-1.72-10.53-1.38-16.29c0.34-5.92,3.86-12.67,8.13-17.01C44.92,42.47,57.37,39.49,71.5,39.76
		c1.59,0.03,3.16,0.16,4.69,0.38c10.94,1.6,20.33,8.01,25.63,17.72c1.8,3.28,3.64,6.76,5.13,10.37
		C109.74,74.98,111.43,84.25,109.07,91.39z"/>
	<path d="M108.62,67.54c-1.57-3.8-3.51-7.44-5.21-10.55c-5.54-10.15-15.37-16.95-26.96-18.64c-1.61-0.23-3.27-0.37-4.92-0.4
		c-16.54-0.31-28.64,4.01-38.08,13.6c-4.91,4.97-8.3,12.11-8.66,18.17c-0.29,5.09,0.92,13.54,1.3,16c-1.3,2.09-2.73,4.51-2.95,5.39
		c-1.38,5.63-0.4,11.43,2.78,16.35c3.83,5.92,10.45,10.12,18.15,11.53c0.76,0.14,1.53,0.27,2.31,0.38
		c9.98,1.46,21.37,0.77,30.46-1.84c15.97-4.57,28.6-9.36,33.95-25.57C113.38,84.1,111.37,74.19,108.62,67.54z M46.64,117.58
		c-0.75-0.11-1.51-0.23-2.24-0.37c-13.21-2.42-22.51-13.45-19.5-25.67c0.21-0.87,3.08-5.43,3.08-5.43s-1.72-10.53-1.38-16.29
		c0.34-5.92,3.86-12.67,8.13-17.01C44.92,42.47,57.37,39.49,71.5,39.76c1.59,0.03,3.16,0.16,4.69,0.38
		c10.94,1.6,20.33,8.01,25.63,17.72c1.8,3.28,3.64,6.76,5.13,10.37c2.79,6.75,4.48,16.02,2.12,23.16
		c-4.81,14.6-15.39,19.43-32.73,24.41C67.31,118.38,56.3,118.99,46.64,117.58z"/>
	<path style="fill-rule:evenodd;clip-rule:evenodd;fill:#FFB7B3;" d="M69.03,97.39c0.73,6.64,6.92,11.39,13.8,10.62
		c6.88-0.77,11.87-6.78,11.13-13.42c-0.73-6.63-6.91-11.39-13.79-10.62C73.29,84.75,68.3,90.76,69.03,97.39"/>
	<path style="fill-rule:evenodd;clip-rule:evenodd;fill:#FFB7B3;" d="M25.27,100c1.56,6.62,6.54,11.02,7.04,10.97
		c2.74-0.3,3.53-5.84,1.94-12.01c-1.59-6.17-6.58-11.55-7.95-9.39C25.11,91.44,24.35,94.74,25.27,100"/>
</g>
<g>
	<path style="fill:#FFFFFF;" d="M115.24,27.85c-1.72,2.48-4.37,3.79-7.06,3.79c-0.4,0-0.81-0.03-1.21-0.09
		c-1.47-0.22-2.91-0.83-4.19-1.86c-1.49-1.19-2.9-2.35-4.27-3.22c-1.11-0.71-2.2-1.22-3.28-1.38c-0.23-0.03-0.46-0.05-0.69-0.05
		c-1.73,0-3.45,0.99-5.22,3.6c-1.13,1.65-2.03,2.5-3.5,2.5c-0.2,0-0.42-0.01-0.65-0.05c-1.04-0.15-2.36-0.65-4.14-1.51
		c-3.69-1.78-4.08-3.77-1.14-11.19c1.34-3.4,3.77-7.07,7.05-9.01c3.11-1.84,5.94-2.77,8.93-2.77c0.73,0,1.48,0.06,2.23,0.17
		c1.31,0.19,2.66,0.54,4.09,1.06c1,0.36,1.99,0.78,2.95,1.25c2.96,1.41,5.74,3.27,8.31,5.37C117.38,17.67,118.17,23.65,115.24,27.85
		z"/>
	<path d="M114.67,12.97c-2.29-1.87-4.62-3.46-6.97-4.73c-1.61-0.89-3.23-1.62-4.85-2.21c-1.58-0.57-3.04-0.95-4.47-1.16
		c-0.84-0.12-1.69-0.18-2.51-0.18c-3.27,0-6.42,0.96-9.92,3.03c-4.61,2.74-7.03,7.88-7.86,9.97c-2.89,7.32-3.28,11.02,2.1,13.62
		c2.08,1.01,3.49,1.51,4.71,1.69c0.31,0.05,0.63,0.07,0.92,0.07c2.59,0,3.99-1.73,5.09-3.34c1.87-2.76,3.19-2.76,3.63-2.76
		c0.13,0,0.27,0.01,0.41,0.03c0.9,0.13,1.92,0.67,3.01,1.42c0.96,0.65,1.98,1.47,3.04,2.32l0.58,0.46c1.49,1.2,3.26,1.98,5.12,2.25
		c0.45,0.06,0.91,0.1,1.36,0.11h0.12c1.04,0,2.05-0.15,3.01-0.45c2.24-0.67,4.21-2.11,5.63-4.16
		C120.3,23.96,119.34,16.78,114.67,12.97z M108.18,31.64c-0.4,0-0.81-0.03-1.21-0.09c-1.47-0.22-2.91-0.83-4.19-1.86
		c-1.49-1.19-2.9-2.35-4.27-3.22c-1.11-0.71-2.2-1.22-3.28-1.38c-0.23-0.03-0.46-0.05-0.69-0.05c-1.73,0-3.45,0.99-5.22,3.6
		c-1.13,1.65-2.03,2.5-3.5,2.5c-0.2,0-0.42-0.01-0.65-0.05c-1.04-0.15-2.36-0.65-4.14-1.51c-3.69-1.78-4.08-3.77-1.14-11.19
		c1.34-3.4,3.77-7.07,7.05-9.01c3.11-1.84,5.94-2.77,8.93-2.77c0.73,0,1.48,0.06,2.23,0.17c1.31,0.19,2.66,0.54,4.09,1.06
		c1,0.36,1.99,0.78,2.95,1.25c2.96,1.41,5.74,3.27,8.31,5.37c3.93,3.21,4.72,9.19,1.79,13.39
		C113.52,30.33,110.87,31.64,108.18,31.64z"/>
	<path style="fill:#673101;" d="M115.24,27.85c-1.72,2.48-4.37,3.79-7.06,3.79c-0.4,0-0.81-0.03-1.21-0.09
		c-1.47-0.22-2.91-0.83-4.19-1.86c-1.49-1.19-2.9-2.35-4.27-3.22c0.19-1.2,0.87-2.27,1.98-2.78c0.65-0.32,1.35-0.33,2.02-0.22
		c-0.85-0.35-1.57-1.04-1.98-2.01c-0.81-1.94-0.01-4.19,1.78-5.06c0.83-0.39,1.73-0.38,2.54-0.09c-0.74-0.38-1.38-1-1.73-1.85
		c-0.46-1.09-0.4-2.27,0.05-3.26c0,0,0.47-1.22,1.97-2.11c2.96,1.41,5.74,3.27,8.31,5.37C117.38,17.67,118.17,23.65,115.24,27.85z"
		/>
</g>
<g>
	<g>
		<g>
			<g>
				<path style="fill-rule:evenodd;clip-rule:evenodd;" d="M61.15,88.55L61.15,88.55c1.52,0.04,2.77-1.05,2.81-2.45l0.01-0.35
					c0.04-1.4-1.16-2.57-2.68-2.61c-1.52-0.04-2.78,1.06-2.81,2.45l-0.01,0.35C58.43,87.34,59.63,88.5,61.15,88.55"/>
			</g>
		</g>
	</g>
	<g>
		<g>
			<g>
				<path style="fill-rule:evenodd;clip-rule:evenodd;" d="M40.27,89.76L40.27,89.76c1.52-0.08,2.68-1.28,2.6-2.67l-0.02-0.35
					c-0.08-1.4-1.37-2.46-2.89-2.38s-2.68,1.28-2.6,2.68l0.02,0.35C37.46,88.78,38.75,89.84,40.27,89.76"/>
			</g>
		</g>
	</g>
	<g>
		<g>
			<path style="fill-rule:evenodd;clip-rule:evenodd;" d="M46.57,93.59c0.18,0.86,1.29,1.35,2.51,1.1c1.21-0.25,2.05-1.14,1.87-1.99
				c-0.18-0.85-1.3-1.35-2.51-1.1C47.22,91.85,46.4,92.74,46.57,93.59"/>
		</g>
	</g>
	<g>
		<path d="M44.74,105.54c-0.53,0-0.96-0.43-0.96-0.96c0-0.53,0.43-0.96,0.96-0.96c0.15,0,3.31-0.1,4.31-3.83
			c0.1-0.36,0.4-0.64,0.77-0.7c0.37-0.06,0.75,0.1,0.96,0.41c0.11,0.15,2.71,3.81,8.21,3.69c0.01,0,0.02,0,0.03,0
			c0.52,0,0.95,0.41,0.96,0.94c0.02,0.53-0.4,0.97-0.93,0.99c-4.41,0.15-7.27-1.86-8.73-3.24
			C48.87,104.72,46.15,105.54,44.74,105.54z"/>
	</g>
</g>
<g>
	<path style="fill:#9ED3FF;" d="M64.69,88.75c-0.02,0.28-0.56,0.68-1.54,0.68c-1.08,0-3.59,0-4.19-0.73
		c-0.1-0.13-0.13-0.28-0.09-0.49c0.01-0.07,0.05-0.18,0.22-0.29c0.31-0.19,0.83-0.26,1.41-0.26c0.95,0,2.05,0.19,2.56,0.31h0.05
		C64.29,88.1,64.7,88.51,64.69,88.75z"/>
	<path style="fill:#76A4FF;" d="M63.21,87.21c-0.42-0.1-3.32-0.71-4.54,0.07c-0.3,0.19-0.49,0.46-0.56,0.78
		c-0.09,0.42,0,0.81,0.26,1.13c0.68,0.83,2.4,1.01,4.76,1.01c0.01,0,0.02,0,0.02,0c1.47,0,2.27-0.71,2.31-1.41
		C65.49,88.15,64.92,87.4,63.21,87.21z M63.15,89.43c-1.08,0-3.59,0-4.19-0.73c-0.1-0.13-0.13-0.28-0.09-0.49
		c0.01-0.07,0.05-0.18,0.22-0.29c0.31-0.19,0.83-0.26,1.41-0.26c0.95,0,2.05,0.19,2.56,0.31h0.05c1.18,0.13,1.59,0.54,1.58,0.78
		C64.67,89.03,64.13,89.43,63.15,89.43z"/>
</g>
<g>
	<path style="fill:#9ED3FF;" d="M42.61,115.94c-0.11,0.04-0.55-0.18-0.89-0.49c-1.96-1.86-2.43-17.42-2.46-24.23v-0.78
		c-0.31,0.02-0.56,0.01-0.77-0.02c-0.52-0.06-0.72-0.24-0.75-0.64c-0.01-0.05,0-0.13,0.08-0.22c0.37-0.41,1.6-0.61,2.3-0.63
		c1.99-0.04,1.98-0.04,2.35,0.81l0.04,0.1c0.04,0.1,0.06,0.18,0.04,0.21c-0.11,0.17-0.63,0.24-1.17,0.29
		c-0.26,0.01-0.53,0.03-0.75,0.04c-0.01,0.01-0.01,0.02-0.01,0.03c0,0.25,0.01,0.5,0.01,0.74c0.02,1.02,0.06,1.99,0.1,2.94
		c0.05,1.34,0.1,2.72,0.1,4.2c0.01,0.9-0.01,1.79-0.02,2.69c-0.04,2.72-0.08,5.53,0.28,8.28c0.2,1.51,0.61,2.76,1.03,3.88l0.13,0.34
		C42.56,114.26,42.98,115.32,42.61,115.94z"/>
	<path style="fill:#76A4FF;" d="M42.97,113.2l-0.13-0.33c-0.46-1.25-0.81-2.36-0.99-3.71c-0.35-2.7-0.31-5.48-0.27-8.17
		c0.01-0.9,0.03-1.8,0.02-2.7c0-1.49-0.05-2.89-0.1-4.23c-0.04-0.95-0.08-1.93-0.1-2.95c0.84-0.07,1.51-0.19,1.8-0.66
		c0.11-0.18,0.21-0.48,0.02-0.91l-0.04-0.1c-0.52-1.2-0.81-1.32-3.08-1.28h-0.01c-0.21,0.01-2.14,0.1-2.84,0.89
		c-0.21,0.23-0.3,0.5-0.28,0.79c0.07,0.95,0.69,1.27,1.52,1.35c0.01,4.49,0.24,22.48,2.71,24.83c0.13,0.12,0.79,0.69,1.39,0.69
		c0.04,0,0.08,0,0.12-0.01c0.24-0.03,0.43-0.16,0.56-0.38C43.83,115.39,43.33,114.12,42.97,113.2z M42.61,115.94
		c-0.11,0.04-0.55-0.18-0.89-0.49c-1.96-1.86-2.43-17.42-2.46-24.23v-0.78c-0.31,0.02-0.56,0.01-0.77-0.02
		c-0.52-0.06-0.72-0.24-0.75-0.64c-0.01-0.05,0-0.13,0.08-0.22c0.37-0.41,1.6-0.61,2.3-0.63c1.99-0.04,1.98-0.04,2.35,0.81l0.04,0.1
		c0.04,0.1,0.06,0.18,0.04,0.21c-0.11,0.17-0.63,0.24-1.17,0.29c-0.26,0.01-0.53,0.03-0.75,0.04c-0.01,0.01-0.01,0.02-0.01,0.03
		c0,0.25,0.01,0.5,0.01,0.74c0.02,1.02,0.06,1.99,0.1,2.94c0.05,1.34,0.1,2.72,0.1,4.2c0.01,0.9-0.01,1.79-0.02,2.69
		c-0.04,2.72-0.08,5.53,0.28,8.28c0.2,1.51,0.61,2.76,1.03,3.88l0.13,0.34C42.56,114.26,42.98,115.32,42.61,115.94z"/>
</g>
<g>
	<g>
		<g>
			<g>
				<g>
					<path style="fill:#0185C4;" d="M58.06,103.63c-1.09-2.77-0.97-5.87,0.33-8.51c0.36-0.72,0.78-1.42,1.23-2
						c1.87-2.42,4.49-3.63,6.85-3.15c0.48,0.1,0.94,0.27,1.46,0.56c1.52,0.84,2.47,2.29,3.4,3.7c0.25,0.39,0.51,0.77,0.77,1.14
						l0.15,0.2c1.16,1.63,2.35,3.1,3.65,4.49c1.79,1.92,3.72,3.59,5.9,5.09c1.07,0.75,2.2,1.45,3.46,2.17
						c0.96,0.54,2.02,1.06,3.32,1.63l0.72,0.32l-0.24,0.75c-1.68,5.22-4.27,9.32-6.15,11.83l-0.41,0.54l-0.63-0.26
						c-2.21-0.93-4.35-1.98-6.34-3.11c-5.41-3.07-12.15-7.35-16.3-13.24C58.76,105.12,58.37,104.4,58.06,103.63z"/>
				</g>
			</g>
		</g>
		<g>
			<g>
				<path style="fill:#FFFFFF;" d="M80.84,121.69l-0.01,0.01l0.95,0.4C81.47,121.97,81.16,121.83,80.84,121.69z"/>
			</g>
			<g>
				<path style="fill:#FFFFFF;" d="M117.91,117.01c-1.31-3.33-7.37-4.85-10.86-5.46c-2.45-0.43-4.91-0.56-7.3-0.68
					c-3.97-0.21-7.73-0.41-11.17-1.9c0,0,0,0,0,0l0.72,0.32l-0.24,0.75c-1.68,5.22-4.27,9.32-6.15,11.83l-0.4,0.53
					c4.33,1.7,8.31,2.15,12.88,2.65c4.23,0.46,10.46,0.17,15.15-0.71c2.58-0.48,5.41-1.27,6.78-3.38
					C118.2,119.57,118.4,118.25,117.91,117.01z"/>
			</g>
		</g>
	</g>
	<g>
		<path d="M65.43,89.87c0.35,0,0.7,0.03,1.04,0.1c0.48,0.1,0.94,0.27,1.46,0.56c1.52,0.84,2.47,2.29,3.4,3.7
			c0.25,0.39,0.51,0.77,0.77,1.14l0.15,0.2c1.16,1.63,2.35,3.1,3.65,4.49c1.79,1.92,3.72,3.59,5.9,5.09
			c1.07,0.75,2.2,1.45,3.46,2.17c0.96,0.54,2.02,1.06,3.32,1.63c3.44,1.5,7.2,1.7,11.17,1.9c2.38,0.13,4.85,0.26,7.3,0.68
			c3.49,0.61,9.55,2.13,10.86,5.46c0.49,1.24,0.29,2.56-0.6,3.93c-1.37,2.11-4.19,2.89-6.78,3.38c-3.2,0.6-7.12,0.93-10.64,0.93
			c-1.63,0-3.17-0.07-4.51-0.22c-4.57-0.5-8.55-0.94-12.88-2.65l-0.01,0.02l-0.63-0.26c-0.03-0.01-0.05-0.02-0.08-0.03l-0.95-0.4
			l0.01-0.01c-1.85-0.82-3.64-1.71-5.32-2.66c-5.41-3.07-12.15-7.35-16.3-13.24c-0.47-0.67-0.86-1.4-1.16-2.17
			c-1.09-2.77-0.97-5.87,0.33-8.51c0.36-0.72,0.78-1.42,1.23-1.99C61.22,91.05,63.37,89.87,65.43,89.87 M65.43,87.95
			c-2.7,0-5.37,1.46-7.33,4c-0.52,0.67-1.02,1.48-1.43,2.32c-1.54,3.12-1.68,6.79-0.39,10.07c0.36,0.91,0.82,1.77,1.38,2.56
			c4.37,6.2,11.34,10.63,16.92,13.8c1.05,0.6,2.15,1.18,3.3,1.74l-0.05,0.07l2.27,0.97l0.95,0.4l0.1,0.04l0.61,0.26l1.38,0.58
			l0.05-0.07c4.09,1.4,7.94,1.82,11.99,2.26c1.39,0.15,2.98,0.23,4.72,0.23c3.73,0,7.74-0.35,10.99-0.96
			c2.98-0.56,6.27-1.5,8.04-4.22c1.55-2.39,1.27-4.41,0.77-5.69c-0.87-2.2-3.71-5.14-12.32-6.65c-2.56-0.45-5.09-0.58-7.53-0.71
			c-3.79-0.2-7.38-0.39-10.5-1.75c-1.24-0.54-2.24-1.03-3.14-1.54c-1.21-0.69-2.29-1.36-3.31-2.07c-2.07-1.43-3.89-3.01-5.59-4.83
			c-1.24-1.33-2.38-2.74-3.49-4.3l-0.15-0.21c-0.24-0.34-0.49-0.71-0.72-1.06c-1.01-1.54-2.15-3.26-4.08-4.33
			c-0.7-0.38-1.33-0.62-2.01-0.76C66.39,87.99,65.91,87.95,65.43,87.95L65.43,87.95z"/>
	</g>
</g>
</svg>
