<svg id="레이어_5" data-name="레이어 5" xmlns="http://www.w3.org/2000/svg" viewBox="0 0 240 240"><defs><style>.cls-1{fill:#cbcbcb;}.cls-2{fill:#8f4020;}.cls-3{fill:#231f20;}.cls-4{fill:#009485;}.cls-14,.cls-5{fill:#fff;}.cls-6{fill:#f3dd1c;}.cls-7{fill:#fffdfd;}.cls-8{fill:#ff363b;}.cls-12,.cls-9{fill:#02a0f4;}.cls-14,.cls-16,.cls-17,.cls-9{fill-rule:evenodd;}.cls-10{fill:#093956;}.cls-11{fill:#673101;}.cls-13{fill:#070707;}.cls-15{fill:#004e71;}.cls-16{fill:#fdbdb8;}.cls-18{fill:#231816;}.cls-19{fill:#fc6b6b;}.cls-20{fill:#ff494b;}.cls-21{fill:#a00;}.cls-22{fill:#ce3a3a;}.cls-23{fill:#0a6b3c;}.cls-24{fill:#2e5130;}.cls-25{fill:#e03628;}.cls-26{fill:#0084cd;}.cls-27{fill:#e73535;}</style></defs><path class="cls-1" d="M205.26,215.45c0,4.9-37.91,8.87-84.68,8.87s-84.69-4-84.69-8.87,37.92-8.87,84.69-8.87,84.68,4,84.68,8.87"/><path class="cls-2" d="M78.26,181l-1.6,27a1.6,1.6,0,0,0,.06.54C77,209.64,78.4,214,81,214.35c2.09.31,12.84-.46,19.31-1a8.09,8.09,0,0,0,6.82-5.67h0a1.72,1.72,0,0,0,.07-.87L101.93,179a1.31,1.31,0,0,0-1.32-1.14l-21.18,1.73A1.37,1.37,0,0,0,78.26,181Z"/><path class="cls-3" d="M82.64,215.67a14.76,14.76,0,0,1-1.79-.08c-3.26-.47-4.82-4.89-5.34-6.76a3,3,0,0,1-.09-1l1.59-27a2.59,2.59,0,0,1,2.32-2.52l21.17-1.73a2.56,2.56,0,0,1,2.66,2.15l5.3,27.85a3,3,0,0,1-.12,1.52,9.41,9.41,0,0,1-7.9,6.5C91.59,215.33,85.63,215.67,82.64,215.67ZM79.51,181l-1.6,27a.57.57,0,0,0,0,.13c.65,2.32,1.91,4.76,3.29,5s8.38-.15,19-1A6.85,6.85,0,0,0,106,207.3a.5.5,0,0,0,0-.21l-5.3-27.85a.33.33,0,0,0-.07-.15l-21.1,1.75h0s0,.06,0,.18Z"/><path class="cls-4" d="M120.33,66.48c2.69,9.21-6,8.64-6,8.64s23.41,20.24,32.77,38.76-10,19.31-10,19.31,17.82,32.47,20.62,39.95-6.39,12.43-6.39,12.43-102.84,7.56-111,5.45-10.08-10.4-10.08-10.4L43.17,141c-2.79.17-8.88-3.63-9.34-9.74S61,83.61,58.54,83.73c-3.56.17-7.86-4.12-6.93-8.11.69-3,11.47-32.84,20.58-42.76,6.36-6.93,13.32-4.11,17-1.59a17.36,17.36,0,0,1,4.33,4.23l27.38,30.31"/><path d="M47.32,192.62a40.38,40.38,0,0,1-7.28-.39c-8.84-2.27-10.91-11-11-11.34l-.07-.33L41.51,142c-3.57-.94-8.5-4.95-8.93-10.69-.27-3.58,6.4-15.19,15.86-31.22,3.53-6,7.46-12.62,8.65-15.27a8.87,8.87,0,0,1-4.88-3.07,7.49,7.49,0,0,1-1.82-6.44c.69-3,11.44-33.05,20.88-43.33,7.38-8,15.51-3.91,18.66-1.77a18.38,18.38,0,0,1,4.61,4.49L121.87,65l-1.72,1.55,1.38-.4c1,3.29.7,5.89-.77,7.72A6.63,6.63,0,0,1,117.27,76c6,5.44,23.16,21.81,31,37.29,3.07,6.09,3.52,11.08,1.32,14.83-2.48,4.23-7.61,5.63-10.43,6.08,3.69,6.75,17.33,31.88,19.8,38.48s-3.45,12.08-7,14l-.23.13-.27,0C147.82,187.09,72.17,192.62,47.32,192.62Zm-15.75-12c.42,1.47,2.53,7.47,9.09,9.16C47,191.44,115.44,187,151,184.35c1.33-.78,7.78-4.93,5.59-10.77-2.74-7.32-20.36-39.46-20.54-39.79l-1-1.76,2-.09c.08,0,7.57-.38,10.31-5.07,1.74-3,1.27-7.15-1.4-12.43-9.14-18.08-32.24-38.18-32.47-38.38l-2.82-2.44,3.72.25s3,.16,4.37-1.59c.92-1.16,1-3,.31-5.45l.83-.24L92.51,36.19a16.21,16.21,0,0,0-4-3.89c-3.25-2.2-9.58-5-15.42,1.41-9,9.82-19.69,39.64-20.28,42.19a5,5,0,0,0,1.3,4.27,6,6,0,0,0,4.35,2.31,1.36,1.36,0,0,1,1.26.66c.71,1.18.14,2.52-9.15,18.26C44.32,112,34.84,128.08,35.07,131.16c.41,5.42,5.91,8.68,8,8.59l1.83-.11Z"/><path class="cls-5" d="M130.22,115.93a5.64,5.64,0,0,1-2-.05c-45.65-9.34-75.52-34.43-76.77-35.49A5.64,5.64,0,1,1,58.8,71.8c.44.37,29.15,24.32,71.72,33a5.64,5.64,0,0,1-.3,11.1Z"/><path class="cls-3" d="M129.4,117a6.69,6.69,0,0,1-1.34-.13c-45.88-9.39-76-34.64-77.22-35.71A6.64,6.64,0,1,1,59.45,71c.28.24,28.91,24.14,71.27,32.81a6.64,6.64,0,0,1,5.18,7.83,6.66,6.66,0,0,1-5.53,5.24l-.15-1,.15,1A6.33,6.33,0,0,1,129.4,117ZM55.15,71.46a4.64,4.64,0,0,0-3,8.17c1.25,1.06,30.95,26,76.33,35.27a4.37,4.37,0,0,0,1.61,0,4.64,4.64,0,0,0,.25-9.13C87.47,97,58.44,72.81,58.15,72.56A4.62,4.62,0,0,0,55.15,71.46Z"/><path class="cls-5" d="M127,173a7.28,7.28,0,0,1-1.14-.08c-53.64-8-89.37-32.22-90.87-33.25a5.11,5.11,0,0,1-1-7.93,7.36,7.36,0,0,1,9.26-.87h0c.34.23,34.73,23.44,84.88,30.93,3.59.54,6,3.46,5.36,6.53C132.93,171,130.15,173,127,173Z"/><path class="cls-3" d="M127,174a9.32,9.32,0,0,1-1.29-.09c-53.87-8.05-89.78-32.38-91.28-33.41a6.44,6.44,0,0,1-2.87-4.6A6,6,0,0,1,33.26,131a8.4,8.4,0,0,1,10.55-1c.34.24,34.47,23.31,84.47,30.78a7.66,7.66,0,0,1,5.19,3.07,5.92,5.92,0,0,1,1,4.64C133.83,171.65,130.69,174,127,174ZM39.13,130.57a6.06,6.06,0,0,0-4.41,1.8,4.07,4.07,0,0,0-1.16,3.26,4.43,4.43,0,0,0,2,3.17c1.49,1,37,25.1,90.44,33.08,3.12.45,6-1.29,6.5-3.8a4,4,0,0,0-.67-3.09,5.72,5.72,0,0,0-3.85-2.25c-50.49-7.54-85-30.86-85.31-31.1A6.3,6.3,0,0,0,39.13,130.57Z"/><path class="cls-6" d="M88.66,41.44l-7.5-3.2a1.74,1.74,0,0,0-1.64.14l-6.88,4.36a1.77,1.77,0,0,1-2.71-1.65L70.65,33A1.77,1.77,0,0,0,70,31.45l-6.28-5.2a1.77,1.77,0,0,1,.73-3.09l8-1.82a1.76,1.76,0,0,0,1.25-1.07l3-7.58a1.77,1.77,0,0,1,3.17-.26l4.19,7a1.77,1.77,0,0,0,1.4.86l8.14.51a1.77,1.77,0,0,1,1.22,2.93l-5.35,6.15a1.73,1.73,0,0,0-.38,1.6l2,7.9A1.77,1.77,0,0,1,88.66,41.44Z"/><path d="M71.69,44.27a3.05,3.05,0,0,1-1.57-.44A3,3,0,0,1,68.68,41l.72-8.12a.51.51,0,0,0-.18-.45l-6.29-5.2a3,3,0,0,1-1-3A3,3,0,0,1,64.18,22l7.95-1.83a.51.51,0,0,0,.37-.31l3-7.58a3,3,0,0,1,5.4-.44l4.19,7a.51.51,0,0,0,.41.25l8.14.52a3,3,0,0,1,2.09,5l-5.36,6.15a.51.51,0,0,0-.11.47l2,7.9a3,3,0,0,1-4.11,3.53l-7.5-3.2a.55.55,0,0,0-.48,0L73.31,43.8A3.07,3.07,0,0,1,71.69,44.27Zm6.62-31.45h0a.5.5,0,0,0-.44.33l-3,7.58a3,3,0,0,1-2.13,1.83l-8,1.82a.52.52,0,0,0-.39.39.51.51,0,0,0,.18.52l6.28,5.2a3,3,0,0,1,1.08,2.59l-.72,8.12a.49.49,0,0,0,.25.49.49.49,0,0,0,.55,0l6.88-4.37a3,3,0,0,1,2.8-.23l7.5,3.2a.54.54,0,0,0,.55-.08.52.52,0,0,0,.16-.53l-2-7.9a3,3,0,0,1,.64-2.73l5.36-6.15a.48.48,0,0,0,.09-.54.52.52,0,0,0-.45-.32l-8.14-.51a3,3,0,0,1-2.4-1.46l-4.18-7A.51.51,0,0,0,78.31,12.82Z"/><circle class="cls-7" cx="89.58" cy="62.44" r="5.51"/><path class="cls-3" d="M89.58,69a6.51,6.51,0,1,1,6.51-6.51A6.52,6.52,0,0,1,89.58,69Zm0-11a4.51,4.51,0,1,0,4.51,4.51A4.52,4.52,0,0,0,89.58,57.93Z"/><circle class="cls-7" cx="93.91" cy="128.74" r="5.51"/><path class="cls-3" d="M93.91,135.25a6.51,6.51,0,1,1,6.51-6.51A6.52,6.52,0,0,1,93.91,135.25Zm0-11a4.51,4.51,0,1,0,4.51,4.51A4.52,4.52,0,0,0,93.91,124.23Z"/><circle class="cls-8" cx="108.22" cy="159.13" r="5.51"/><path class="cls-3" d="M108.22,165.64a6.51,6.51,0,1,1,6.52-6.51A6.52,6.52,0,0,1,108.22,165.64Zm0-11a4.51,4.51,0,1,0,4.52,4.51A4.51,4.51,0,0,0,108.22,154.62Z"/><circle class="cls-7" cx="58.16" cy="165.54" r="5.51"/><path class="cls-3" d="M58.16,172.06a6.52,6.52,0,1,1,6.52-6.52A6.53,6.53,0,0,1,58.16,172.06Zm0-11a4.52,4.52,0,1,0,4.52,4.51A4.52,4.52,0,0,0,58.16,161Z"/><circle class="cls-8" cx="64.24" cy="112.84" r="5.51"/><path class="cls-3" d="M64.24,119.35a6.51,6.51,0,1,1,6.52-6.51A6.52,6.52,0,0,1,64.24,119.35Zm0-11a4.51,4.51,0,1,0,4.52,4.51A4.52,4.52,0,0,0,64.24,108.33Z"/><path class="cls-5" d="M176.89,160.94c-1.65,0-5.66,1.27-5.66,2.82l-2.75,20.11h8.64l2.75-20.11a2.91,2.91,0,0,0-3-2.82"/><polyline class="cls-9" points="175.38 197.92 177.12 183.87 168.48 183.87 165.84 202.65"/><path class="cls-9" d="M180.34,212.39H166.12c-2,0-5.11-1.72-5.11-4,0-.17-.3-5.18,1.66-8.66,1.79-3.17,7.58-5.85,12.65-5.85a13.08,13.08,0,0,1,2.7.27l.23.05a13.82,13.82,0,0,1,9.2,7.58c1,2,1.55,6-.21,8.14s-4.38,2.49-6.9,2.49Z"/><path class="cls-10" d="M175.32,194.55a12.77,12.77,0,0,1,2.56.25l.21,0a13.12,13.12,0,0,1,8.74,7.2c.94,2,1.35,5.6-.13,7.41-1.63,2-4,2.24-6.37,2.24l-2.24,0h-12c-1.71,0-4.42-1.48-4.42-3.31,0,0-.31-5,1.58-8.32,1.6-2.85,7-5.5,12-5.5m0-1.38c-5.38,0-11.32,2.78-13.25,6.2s-1.78,8.51-1.75,9c0,2.7,3.48,4.65,5.8,4.65h14.21c2.7,0,5.47-.33,7.44-2.75s1.37-6.64.31-8.87a14.56,14.56,0,0,0-9.68-8l-.19,0a13.89,13.89,0,0,0-2.89-.29"/><path d="M147,158a3.23,3.23,0,0,1,.61.06c1.64.34,5.36,2.49,5,4.13l-5.1,23.5h0l-3.19,15.44-.62,7c0,1.76-2.78,3.19-4.54,3.19H127.54c-.75,0-1.53,0-2.31,0-2.4,0-4.88-.24-6.56-2.16-1.52-1.75-1.09-5.24-.13-7.14a13.5,13.5,0,0,1,9.07-7,14.05,14.05,0,0,1,2.54-.25,8.82,8.82,0,0,1,6.12,2.09l2.7-13.06,5.1-23.48a3,3,0,0,1,3-2.43m0-1.65a4.71,4.71,0,0,0-4.6,3.75l-5.09,23.46-2.22,10.73a11.55,11.55,0,0,0-5-1.07,14.92,14.92,0,0,0-2.86.29,15.13,15.13,0,0,0-10.22,7.83c-1.14,2.25-1.79,6.52.36,9s5,2.73,7.8,2.73h14c2.44,0,6.13-1.9,6.2-4.76l.6-6.89L149.2,186l0-.11,5.07-23.37c.67-3.23-4.56-5.74-6.31-6.1a5,5,0,0,0-.94-.09"/><path class="cls-11" d="M101,83.86a6.17,6.17,0,0,1-1.9-.29,6.56,6.56,0,0,1-4.33-4.29,6.44,6.44,0,0,1,0-3.79c0-.13.11-.35.21-.64a22.58,22.58,0,0,1,5.76-9.75,13.81,13.81,0,0,1,7.22-3.81A17.1,17.1,0,0,1,111,61l.87,0a19.3,19.3,0,0,1,3.49.52c2.81.65,6.8,3.42,8.27,6.5a5.18,5.18,0,0,1,.12,4.63A2.92,2.92,0,0,1,121,74.42a11.63,11.63,0,0,1-4.71-1.6,14.24,14.24,0,0,0-1.7-.78,4.22,4.22,0,0,0-1.24-.2c-2.25,0-3.88,2.19-4.89,4.18l-.14.43a18.88,18.88,0,0,0-1.16,2.81,6.43,6.43,0,0,1-6.18,4.6"/><path d="M111,61.85l.84,0a17.73,17.73,0,0,1,3.33.5c3.5.81,9.93,5.67,7.83,10a2.08,2.08,0,0,1-2,1.26c-2,0-4.71-1.87-6.16-2.33a4.75,4.75,0,0,0-1.49-.25c-2.66,0-4.58,2.43-5.82,5l0,0A20.32,20.32,0,0,0,106.37,79v0a5.58,5.58,0,0,1-7,3.75,5.7,5.7,0,0,1-3.81-7.06l.2-.61a22.08,22.08,0,0,1,5.55-9.41,13,13,0,0,1,6.8-3.59,15.79,15.79,0,0,1,3-.26m0-1.65h0a17.86,17.86,0,0,0-3.27.28,14.75,14.75,0,0,0-7.64,4,23.52,23.52,0,0,0-6,10.11c-.09.27-.16.5-.2.63a7.36,7.36,0,0,0,4.9,9.13,7.52,7.52,0,0,0,2.15.32,7.25,7.25,0,0,0,7-5.18,17.21,17.21,0,0,1,1.11-2.68l.51-1,0,0c.84-1.45,2.16-3.12,3.83-3.12a3.2,3.2,0,0,1,1,.16,15.64,15.64,0,0,1,1.58.73A12.38,12.38,0,0,0,121,75.25a3.75,3.75,0,0,0,3.52-2.19,6,6,0,0,0-.11-5.36c-1.62-3.4-5.85-6.25-8.83-6.94a20.13,20.13,0,0,0-3.65-.55H111"/><path d="M101,85.19A7.87,7.87,0,0,1,93.45,75.1l.21-.65a23.93,23.93,0,0,1,6.11-10.31,15.21,15.21,0,0,1,7.9-4.15,18.94,18.94,0,0,1,4.28-.28,20.21,20.21,0,0,1,3.74.56c3.1.72,7.48,3.68,9.17,7.22a6.46,6.46,0,0,1,.11,5.79,4.23,4.23,0,0,1-4,2.47A12.72,12.72,0,0,1,115.7,74a14.75,14.75,0,0,0-1.51-.7,2.64,2.64,0,0,0-.84-.14c-1.35,0-2.5,1.38-3.26,2.64l-.08.25-.5,1a17.42,17.42,0,0,0-1.09,2.61A7.73,7.73,0,0,1,101,85.19ZM111,60.7a17.78,17.78,0,0,0-3.18.27,14.29,14.29,0,0,0-7.39,3.89,23.11,23.11,0,0,0-5.85,9.9l-.2.62a6.82,6.82,0,0,0,0,4A6.86,6.86,0,0,0,101,84.19a6.75,6.75,0,0,0,6.49-4.82,17.06,17.06,0,0,1,1.15-2.77l.35-.7h0l.13-.35c1.27-2.21,2.75-3.37,4.26-3.37a3.58,3.58,0,0,1,1.14.19,14.41,14.41,0,0,1,1.66.76A12.08,12.08,0,0,0,121,74.75a3.27,3.27,0,0,0,3.07-1.91,5.51,5.51,0,0,0-.11-4.92,14.09,14.09,0,0,0-8.5-6.67,18.18,18.18,0,0,0-3.55-.54ZM101,83.54a6.23,6.23,0,0,1-6-8c0-.13.11-.35.21-.63a22.38,22.38,0,0,1,5.67-9.61A13.45,13.45,0,0,1,108,61.62a17.52,17.52,0,0,1,3.92-.25,18.87,18.87,0,0,1,3.43.51c2.73.64,6.62,3.33,8.05,6.32a4.87,4.87,0,0,1,.11,4.35A2.58,2.58,0,0,1,121,74.09a11.38,11.38,0,0,1-4.56-1.56,15,15,0,0,0-1.75-.8,4.63,4.63,0,0,0-1.34-.22c-2.44,0-4.16,2.34-5.22,4.43l.05.06-.15.3a20.15,20.15,0,0,0-1.19,2.86A6.08,6.08,0,0,1,101,83.54Zm10-21.19a15.37,15.37,0,0,0-2.88.25,12.46,12.46,0,0,0-6.55,3.46,21.46,21.46,0,0,0-5.41,9.2c-.1.28-.16.49-.2.61a5.15,5.15,0,0,0,0,3,5.24,5.24,0,0,0,3.45,3.43,5.17,5.17,0,0,0,1.51.23,5.1,5.1,0,0,0,4.9-3.65,19.89,19.89,0,0,1,1.1-2.72h0l.12-.35c2-4.23,4.81-6,7.91-5a15.62,15.62,0,0,1,1.9.85A10.91,10.91,0,0,0,121,73.09a1.59,1.59,0,0,0,1.58-1,3.83,3.83,0,0,0-.12-3.48c-1.28-2.69-4.91-5.2-7.37-5.77a17.63,17.63,0,0,0-3.24-.49Z"/><path class="cls-11" d="M137.75,66.05a3.83,3.83,0,0,1-.65-.06,5.2,5.2,0,0,1-3.65-2.86c-1.6-3-1.44-7.86-.29-10.51a19,19,0,0,1,1.66-3.11,17.75,17.75,0,0,1,2.58-3,13.7,13.7,0,0,1,7.37-3.54,18.36,18.36,0,0,1,3.18-.26A24.86,24.86,0,0,1,156,44.11l.62.21a6.51,6.51,0,0,1-2.18,12.62,6.6,6.6,0,0,1-2.19-.38,19.1,19.1,0,0,0-3-.74l-.54-.09,0-.08a12.06,12.06,0,0,0-2-.18c-2.54,0-4.08.9-4.72,2.76a15.47,15.47,0,0,0-.39,1.83c-.44,2.52-1,6-3.91,6"/><path d="M148,43.48a24.27,24.27,0,0,1,7.82,1.41l.61.21a5.69,5.69,0,0,1,3.4,7.26,5.6,5.6,0,0,1-7.21,3.42l0,0a19.39,19.39,0,0,0-3.05-.76s0,0,0-.07a14.45,14.45,0,0,0-2.69-.28c-2.43,0-4.64.8-5.5,3.31-.66,1.94-.62,7.26-3.52,7.26a3,3,0,0,1-.5,0c-4.69-.88-4.76-8.93-3.33-12.23a18.41,18.41,0,0,1,1.59-3A16.71,16.71,0,0,1,138,47.06a12.93,12.93,0,0,1,6.94-3.32,17.25,17.25,0,0,1,3-.26m0-1.65a19.27,19.27,0,0,0-3.33.28,14.7,14.7,0,0,0-7.78,3.74,18.49,18.49,0,0,0-2.7,3.19,20,20,0,0,0-1.74,3.25c-1.22,2.81-1.45,7.9.32,11.23A6,6,0,0,0,137,66.8a4.43,4.43,0,0,0,.8.08c3.56,0,4.29-4.18,4.73-6.68a13.22,13.22,0,0,1,.36-1.71c.32-.94,1.08-2.19,3.93-2.19a12.25,12.25,0,0,1,1.31.08l0,.07,1.09.18a17.87,17.87,0,0,1,2.78.7h0l.06,0a7.15,7.15,0,0,0,2.44.42,7.28,7.28,0,0,0,6.86-4.86A7.38,7.38,0,0,0,157,43.54l-.67-.22A25.65,25.65,0,0,0,148,41.83"/><path d="M137.75,67.38a4.56,4.56,0,0,1-.89-.09,6.44,6.44,0,0,1-4.58-3.53c-1.84-3.46-1.6-8.75-.33-11.67a19.78,19.78,0,0,1,1.78-3.33,19,19,0,0,1,2.77-3.27,15.21,15.21,0,0,1,8-3.88,24.08,24.08,0,0,1,11.91,1.24l.66.22a7.76,7.76,0,0,1,3.65,2.76,7.86,7.86,0,0,1,1.05,7.25,7.78,7.78,0,0,1-9.94,4.74l-.11,0a16.85,16.85,0,0,0-2.65-.65l-1.44-.29c-.32,0-.62,0-.9,0-2.51,0-3.16,1-3.46,1.86a13.94,13.94,0,0,0-.33,1.6C142.54,62.76,141.73,67.38,137.75,67.38Zm10.2-25a19.06,19.06,0,0,0-3.24.27,14.21,14.21,0,0,0-7.53,3.62,18.3,18.3,0,0,0-2.63,3.1,19.78,19.78,0,0,0-1.69,3.17c-1.17,2.7-1.4,7.6.3,10.8a5.5,5.5,0,0,0,3.88,3,3.56,3.56,0,0,0,.71.07c2.9,0,3.68-3.1,4.24-6.27a12,12,0,0,1,.38-1.78c.68-2,2.61-2.81,5.77-2.44l.36,0V56l.76.13a19.74,19.74,0,0,1,2.87.71,6.76,6.76,0,0,0,8.73-4.1A6.87,6.87,0,0,0,156.78,44l-.65-.22A25.31,25.31,0,0,0,148,42.33Zm-10.2,23.39a3.07,3.07,0,0,1-.59,0A4.87,4.87,0,0,1,133.74,63c-1.56-2.93-1.4-7.65-.28-10.23a19.65,19.65,0,0,1,1.63-3.06,18.31,18.31,0,0,1,2.53-3,13.42,13.42,0,0,1,7.2-3.45,22.42,22.42,0,0,1,11.11,1.17l.62.21a6.06,6.06,0,0,1,2.87,2.17,6.24,6.24,0,0,1,.83,5.73,6.09,6.09,0,0,1-7.84,3.72,19.45,19.45,0,0,0-3-.75l-.34-.06v-.08a13.38,13.38,0,0,0-2.26-.21c-2.66,0-4.35,1-5,3a13.41,13.41,0,0,0-.41,1.88C140.92,62.42,140.34,65.72,137.75,65.72ZM148,44a18,18,0,0,0-3,.25,12.44,12.44,0,0,0-6.68,3.2,16.39,16.39,0,0,0-2.39,2.83,17.52,17.52,0,0,0-1.54,2.89c-1,2.32-1.16,6.73.24,9.36a3.83,3.83,0,0,0,2.73,2.17c2.09.41,2.6-2.51,3-4.85a14.19,14.19,0,0,1,.44-2c1-3,4.2-4.24,8.76-3.36l.33.06v.07a20,20,0,0,1,2.78.72,5.37,5.37,0,0,0,1.8.33,5.13,5.13,0,0,0,4.83-3.42,5.23,5.23,0,0,0-.7-4.81,5.07,5.07,0,0,0-2.41-1.82l-.59-.2A23.65,23.65,0,0,0,148,44Z"/><path d="M176.89,160.94a2.91,2.91,0,0,1,3,2.82l-2.69,19.61-1.39,11.19a12.05,12.05,0,0,1,2.09.24l.21,0a13.15,13.15,0,0,1,8.74,7.2c.94,2,1.35,5.6-.13,7.41-1.63,2-4,2.24-6.37,2.24l-2.24,0h-12c-1.71,0-4.42-1.48-4.42-3.31,0,0-.31-5,1.57-8.32a9.21,9.21,0,0,1,3.37-3.09l1.91-13.09,2.68-20.11c0-1.55,4-2.82,5.66-2.82m0-1.65c-1.47,0-7.16,1.14-7.31,4.34l-2.67,20L165.11,196a10,10,0,0,0-3.28,3.28c-2,3.58-1.81,8.6-1.78,9.18,0,3,3.67,4.91,6.07,4.91h12l1.06,0h1.18c2.64,0,5.6-.34,7.66-2.85s1.43-6.87.34-9.17a14.81,14.81,0,0,0-9.87-8.1l-.18-.05-.63-.11,1.17-9.5L181.51,164v-.23a4.56,4.56,0,0,0-4.63-4.47"/><path class="cls-5" d="M124.73,144.33c.14-4.86,1.42-9.38,2.72-14.24.57-2.15,2.79-9.92-2-9.29-1.74.23-3,2.48-3.94,3.77a35.11,35.11,0,0,0-4.58,9.06,38.57,38.57,0,0,0-1.64,7.09c-.21,1.56,0,4.83,1,6.21a4,4,0,0,0,3.89,1.47c1.7-.29,3.44-2.08,4.15-3.57.17-.35-.1-.9.44-.78,1.9.43,0,0,0,.28"/><path d="M119.42,149.28a4.69,4.69,0,0,1-3.84-1.87c-1.21-1.67-1.32-5.25-1.11-6.8a39.37,39.37,0,0,1,1.67-7.24,35.93,35.93,0,0,1,4.69-9.27l.35-.52c1-1.42,2.28-3.35,4.16-3.6a3.14,3.14,0,0,1,3,.94c1.66,1.89.86,5.91,0,9.19l-.27,1a62.24,62.24,0,0,0-2.43,12.3c.6.17.89.39.8,1l-.12.76-.9-.07-.29,0s0,.09,0,.13c-.81,1.7-2.76,3.69-4.77,4a4.88,4.88,0,0,1-.85.07M126,121.59l-.41,0c-1.15.15-2.22,1.73-3,2.89l-.37.54a34.67,34.67,0,0,0-4.47,8.84,37.31,37.31,0,0,0-1.6,6.94c-.2,1.51,0,4.51.81,5.61a3.2,3.2,0,0,0,3.08,1.14,5.88,5.88,0,0,0,3.54-3.11,1.21,1.21,0,0,1,.4-1,63.3,63.3,0,0,1,2.49-12.75l.27-1c1.1-4.11,1.23-6.69.37-7.67a1.3,1.3,0,0,0-1.1-.42M125.11,145s0,0,0,.05l.06,0,0,0m.43-.63-.14.45a.78.78,0,0,0,.15-.45Z"/><path class="cls-5" d="M147.65,158c1.64.34,5.36,2.49,5,4.13l-5.1,23.49-8.6-1.76,5.1-23.49a3,3,0,0,1,3.58-2.37"/><path class="cls-9" d="M144.39,201.08l-.62,7c0,1.76-2.78,3.19-4.54,3.19H127.54c-3,0-6.64.42-8.87-2.13-1.52-1.75-1.09-5.24-.13-7.14a13.5,13.5,0,0,1,9.07-7h0c5.77-1.12,8.66,1.84,8.66,1.84l2.69-13,8.62,1.77Z"/><path class="cls-5" d="M108.06,62.11a17.38,17.38,0,0,1,3.81-.24,18.09,18.09,0,0,1,3.34.5c3.49.81,9.92,5.67,7.82,10-1.51,3.11-6.13-.42-8.19-1.08-4.61-1.47-7.35,4.08-8.48,7.78a5.62,5.62,0,0,1-7,3.75,5.7,5.7,0,0,1-3.8-7.06,22.42,22.42,0,0,1,5.74-10,13,13,0,0,1,6.8-3.59"/><path class="cls-11" d="M105.41,75.32a2.12,2.12,0,0,0-1.1.64,2.28,2.28,0,0,0-2.39-3.45,2.19,2.19,0,0,0-1.34.9,2.23,2.23,0,0,0,.23-1.53,2.27,2.27,0,0,0-2.69-1.75,1.37,1.37,0,0,0-.31.13,31.7,31.7,0,0,0-2.3,5.46,5.71,5.71,0,0,0,3.81,7.06,5.62,5.62,0,0,0,7-3.75,20,20,0,0,1,1.22-3,2.21,2.21,0,0,0-2.17-.76"/><path class="cls-5" d="M138,47.06A16.29,16.29,0,0,0,135.51,50a18.41,18.41,0,0,0-1.59,3c-1.43,3.3-1.36,11.35,3.33,12.22,3.4.64,3.32-5.17,4-7.21,1.57-4.58,7.66-3.47,11.3-2.18a5.61,5.61,0,0,0,7.21-3.42,5.7,5.7,0,0,0-3.4-7.26,22.39,22.39,0,0,0-11.47-1.36A13,13,0,0,0,138,47.06"/><path class="cls-11" d="M150.15,52.81a2.16,2.16,0,0,1,1.18-.51,2.24,2.24,0,0,1-1.54-.76,2.29,2.29,0,0,1,.2-3.21,2.16,2.16,0,0,1,1.52-.54,2.24,2.24,0,0,1-1.37-.73,2.29,2.29,0,0,1,.19-3.21,2.69,2.69,0,0,1,.29-.16,31.06,31.06,0,0,1,5.76,1.41,5.71,5.71,0,0,1,3.4,7.26,5.62,5.62,0,0,1-7.21,3.42,19.43,19.43,0,0,0-3.1-.78,2.23,2.23,0,0,1,.68-2.19"/><path class="cls-12" d="M155.12,176.5h-1.19c-14.57-.34-24.81-5.63-29.61-15.31-4.45-9-4.14-18.87-3.38-26.49.13-1.28.39-2.64.64-3.87l-.78-.63c-.8-.66-1.64-1.34-2.36-2A45,45,0,0,1,106,106.42c-2-8.18-1.65-16.22,1-22,4.36-9.49,11.2-17.09,18.76-20.87l2.76-1.39a38.5,38.5,0,0,1,17.28-3.75,52.25,52.25,0,0,1,10.66,1.12c6.29,1.33,13,5.82,18.32,12.32A45.78,45.78,0,0,1,185.08,96c0,.37.08,1.15.12,2.33a75,75,0,0,0,1,11c.89,4.12,4.06,10.62,5.58,13.75.43.88.74,1.51.84,1.76.13.41,2.83,8.86,3.4,14,.77,7-.36,16.8-4.62,23-5,7.27-14.44,12.37-25.92,14-1.36.19-2.84.33-4.28.42l-2.82.16-.21-.81,0,.82c-1,.06-2,.09-3,.09"/><path class="cls-5" d="M188.47,120.12a22.6,22.6,0,0,1,5.77,16.19c-.35,10.26-4.44,11.71-4.44,11.71l-5-7.2s1.09-6.87-3.21-8.48S188.47,120.12,188.47,120.12Z"/><path d="M145.81,59.19a51.22,51.22,0,0,1,10.49,1.1c7,1.47,13.39,6.62,17.85,12a44.68,44.68,0,0,1,10.11,23.79c.15,1.23.15,9.07,1.08,13.37,1.16,5.36,6,14.49,6.46,15.65,0,0,2.78,8.66,3.34,13.76.78,7-.43,16.56-4.47,22.46-5.59,8.16-15.9,12.31-25.36,13.64-1.38.19-2.82.33-4.2.41l-2.83.16-.16,0c-1,.06-2,.09-3,.09l-1.16,0c-11.59-.26-23.4-3.77-28.89-14.85-4-8.12-4.18-17.2-3.29-26a37.86,37.86,0,0,1,.73-4.27c-1.19-1-2.45-1.95-3.48-2.95a44.24,44.24,0,0,1-12.23-21.34c-1.7-6.81-2-15,1-21.51,3.82-8.31,10.23-16.4,18.38-20.47l.15-.08,2.61-1.31a37.6,37.6,0,0,1,16.91-3.66m0-1.66a39.35,39.35,0,0,0-17.66,3.84l-2.6,1.31-.18.09c-7.7,3.85-14.67,11.6-19.11,21.25-2.76,6-3.16,14.25-1.08,22.6a45.77,45.77,0,0,0,12.68,22.13c.75.72,1.6,1.41,2.43,2.08l.38.32c-.22,1.11-.44,2.32-.55,3.46-.78,7.73-1.09,17.78,3.45,26.94,5,10,15.44,15.42,30.34,15.77h1.2c1,0,2.07,0,3.1-.09h.13l2.86-.17c1.46-.08,3-.23,4.34-.42,11.72-1.65,21.38-6.88,26.49-14.34,4.39-6.4,5.55-16.46,4.76-23.58-.58-5.21-3.3-13.73-3.42-14.09v0l0,0c-.12-.29-.36-.8-.87-1.84-1.51-3.09-4.64-9.53-5.51-13.55A72.65,72.65,0,0,1,186,98.31c-.05-1.3-.08-2-.13-2.39a46.47,46.47,0,0,0-10.47-24.64C170,64.63,163.11,60,156.64,58.67a53.14,53.14,0,0,0-10.83-1.14"/><path class="cls-13" d="M155.11,177.48H153.9c-15-.35-25.49-5.83-30.46-15.86-4.56-9.19-4.25-19.26-3.47-27,.1-1,.27-2,.54-3.39l-.37-.3c-.81-.66-1.64-1.34-2.38-2.06A45.88,45.88,0,0,1,105,106.66C103,98.27,103.35,90,106.12,84c4.45-9.68,11.44-17.45,19.18-21.32l.18-.09,2.61-1.31a39.35,39.35,0,0,1,17.72-3.86,52.81,52.81,0,0,1,10.86,1.15c6.5,1.36,13.38,6,18.88,12.65a46.71,46.71,0,0,1,10.5,24.72c0,.4.08,1.11.12,2.41a74.51,74.51,0,0,0,.93,10.8c.87,4,4,10.43,5.51,13.52.5,1,.75,1.55.87,1.84l0,.11c.3.93,2.87,9.09,3.43,14.12.79,7.16-.38,17.25-4.79,23.68-5.14,7.5-14.83,12.75-26.59,14.41-1.38.19-2.89.34-4.35.42l-3,.18C157.19,177.45,156.14,177.48,155.11,177.48Zm-9.3-119.8a39.17,39.17,0,0,0-17.59,3.82l-2.78,1.4c-7.68,3.85-14.62,11.56-19,21.18-2.75,6-3.14,14.18-1.07,22.51a45.5,45.5,0,0,0,12.64,22c.73.71,1.56,1.38,2.36,2l.51.41,0,.09c-.28,1.37-.45,2.47-.55,3.44-.78,7.72-1.09,17.74,3.44,26.86,4.92,9.92,15.36,15.35,30.2,15.69,1.43,0,2.87,0,4.3-.08h.12l2.86-.17c1.46-.08,3-.23,4.33-.42,11.68-1.64,21.29-6.85,26.39-14.28,4.36-6.36,5.52-16.38,4.73-23.48-.56-5-3.12-13.13-3.41-14l0-.11c-.12-.28-.36-.79-.86-1.82-1.51-3.1-4.65-9.54-5.53-13.59a72.52,72.52,0,0,1-.93-10.82c0-1.32-.08-2-.12-2.41a46.51,46.51,0,0,0-10.44-24.57c-5.46-6.62-12.27-11.2-18.71-12.55A52.23,52.23,0,0,0,145.81,57.68Zm9.3,118.15-1.17,0c-10-.23-23.1-3-29-14.93-4.37-8.82-4.06-18.59-3.3-26.12a39.54,39.54,0,0,1,.71-4.2l-1.09-.89c-.8-.65-1.63-1.32-2.33-2a44.28,44.28,0,0,1-12.27-21.41c-2-8-1.64-15.91,1-21.61,4.29-9.35,11-16.83,18.44-20.55l.15-.07,2.62-1.32a37.8,37.8,0,0,1,17-3.67,51.57,51.57,0,0,1,10.52,1.1c6.14,1.3,12.68,5.71,17.94,12.09a44.49,44.49,0,0,1,10.14,23.88c0,.33.07,1.14.11,2.25a74.69,74.69,0,0,0,1,11.1c.9,4.2,4.09,10.74,5.63,13.89.41.86.72,1.48.82,1.73s2.79,8.75,3.35,13.8c.76,6.85-.33,16.48-4.5,22.57-4.88,7.11-14.16,12.11-25.46,13.7-1.35.19-2.81.33-4.22.41l-2.89.17h-.1C157.12,175.8,156.1,175.83,155.11,175.83Zm-9.3-116.49A37.53,37.53,0,0,0,129,63l-2.76,1.39c-7.37,3.68-14,11.12-18.31,20.4-2.6,5.65-3,13.45-1,21.42a44,44,0,0,0,12.19,21.26c.69.67,1.48,1.31,2.31,2l1.16,1,.07.06,0,.09a40,40,0,0,0-.72,4.25c-.76,7.49-1.07,17.21,3.27,26,3.23,6.5,10.84,14.35,28.76,14.76,1.37,0,2.76,0,4.16-.07h.16l2.83-.17c1.4-.08,2.85-.22,4.19-.41,11.22-1.58,20.42-6.52,25.25-13.57,4.12-6,5.21-15.57,4.45-22.37-.55-5-3.31-13.64-3.34-13.73s-.39-.85-.8-1.7c-1.54-3.16-4.74-9.72-5.66-14a75.46,75.46,0,0,1-1-11.15c0-1.1-.07-1.9-.11-2.23A44.2,44.2,0,0,0,174,72.42c-5.22-6.33-11.7-10.7-17.77-12A51.07,51.07,0,0,0,145.81,59.34Z"/><path class="cls-12" d="M128.9,62.85l-.15.07Z"/><path class="cls-14" d="M132.73,128.58A21.35,21.35,0,0,1,119,124a20.81,20.81,0,0,1-6.49-9.79c-1.31-4.06-1.63-6-1.06-9.88a6.93,6.93,0,0,0-1-3.48,16,16,0,0,1-.81-2.06,24,24,0,0,1-.91-7.58,25.94,25.94,0,0,1,6.54-15.45,38.53,38.53,0,0,1,4.9-4.81A45.33,45.33,0,0,1,133,63.74a39.83,39.83,0,0,1,10.42-2.13c1.09-.07,2.18-.11,3.22-.11,6.11,0,10.92,1.16,14.32,3.44a24.07,24.07,0,0,1,5.54,5.25,15.29,15.29,0,0,1,1.17,1.88,7,7,0,0,0,2.22,2.85c3.49,1.88,4.82,3.26,7.3,6.74a20.76,20.76,0,0,1,4,11c.34,9-5.38,17.53-15.29,22.92l-3.39,1.83c-5.62,3-11.24,5.71-16,7.92a33.11,33.11,0,0,1-13.76,3.21"/><path class="cls-15" d="M146.61,62.19c4.83,0,10.13.77,13.93,3.33a23.48,23.48,0,0,1,5.39,5.09c1.15,1.49,1.91,4,3.61,4.91,3.44,1.86,4.71,3.24,7.06,6.54a20,20,0,0,1,3.87,10.66c.38,10-6.86,17.91-14.93,22.29l-3.39,1.83c-5.24,2.85-10.54,5.39-16,7.9a32.41,32.41,0,0,1-13.46,3.15,20.85,20.85,0,0,1-13.33-4.44,20,20,0,0,1-6.26-9.46c-1.24-3.85-1.6-5.7-1-9.57.28-1.91-1.28-4-1.79-5.82a23.21,23.21,0,0,1-.88-7.37,25.3,25.3,0,0,1,6.38-15,37.72,37.72,0,0,1,4.81-4.73,44.36,44.36,0,0,1,12.58-7.08,38.8,38.8,0,0,1,10.23-2.09c1-.07,2.09-.11,3.18-.11m0-1.38c-1.06,0-2.16,0-3.26.11a40.88,40.88,0,0,0-10.61,2.17,46.52,46.52,0,0,0-13,7.32,40.56,40.56,0,0,0-5,4.9,26.55,26.55,0,0,0-6.7,15.86A24.83,24.83,0,0,0,109,99a16.46,16.46,0,0,0,.86,2.16,6.61,6.61,0,0,1,.9,3.09c-.59,4-.24,6.08,1.09,10.19a21.4,21.4,0,0,0,6.71,10.12,22.09,22.09,0,0,0,14.19,4.74A33.79,33.79,0,0,0,146.78,126c4.76-2.22,10.4-4.89,16-7.94l1.52-.83,1.87-1c10.15-5.51,16-14.32,15.65-23.55a21.51,21.51,0,0,0-4.13-11.42c-2.51-3.51-3.95-5-7.53-6.94a6.7,6.7,0,0,1-1.95-2.57,15.11,15.11,0,0,0-1.22-2,24.86,24.86,0,0,0-5.71-5.4c-3.51-2.36-8.46-3.56-14.7-3.56"/><path class="cls-16" d="M133.42,106.13a9.61,9.61,0,1,1-12.94-4.32,9.65,9.65,0,0,1,12.94,4.32"/><path class="cls-16" d="M175.38,85a9.61,9.61,0,1,1-12.94-4.32A9.65,9.65,0,0,1,175.38,85"/><path class="cls-17" d="M145.28,95.14a1.72,1.72,0,1,1-2.05-.38,1.49,1.49,0,0,1,2.05.38"/><path class="cls-17" d="M151.63,90.26h0a2.17,2.17,0,0,1-2.95-.86l-.13-.26a2.26,2.26,0,0,1,4-2l.13.26a2.18,2.18,0,0,1-1.07,2.88"/><path class="cls-17" d="M134.61,98.83h0a2.18,2.18,0,0,1-3-.86l-.14-.26a2.26,2.26,0,0,1,4-2l.13.26a2.18,2.18,0,0,1-1.07,2.88"/><path class="cls-18" d="M138.13,106.18a8.18,8.18,0,0,1-1-.06c-.85-.12-2.36-.46-2.93-1.36a1.42,1.42,0,0,1-.17-1.22.83.83,0,0,1,1.61.38,4.08,4.08,0,0,0,1.73.56c3.18.44,6.73-2.1,7.77-4.67a.84.84,0,0,1,1-.49c2.68.7,6.84-.63,8.37-3.46a4.09,4.09,0,0,0,.59-1.72.83.83,0,0,1,.65-1.52,1.44,1.44,0,0,1,.88.86c.38,1-.25,2.42-.66,3.17-1.82,3.34-6.3,4.91-9.57,4.41a10.05,10.05,0,0,1-8.27,5.12m17.07-12h0Z"/><line class="cls-19" x1="129.55" y1="133.94" x2="129.17" y2="134.37"/><path d="M134.82,150.51a.83.83,0,0,1-.64-.3c-1.41-1.67-2.42-7.13-2.53-7.75a.83.83,0,0,1,1.63-.29c.39,2.17,1.32,6,2.17,7a.82.82,0,0,1-.1,1.16.85.85,0,0,1-.53.2"/><path class="cls-20" d="M181,127.47c-3.4-5.35-9.36-3.27-10.8,1.74.4-1.41-1.14-7-6-7.43a6.34,6.34,0,0,0-5.05,2.08,5.68,5.68,0,0,0-.88,6.45c1.73,4,4.63,7.65,7.44,11,.53.64,1.06,1.27,1.61,1.89,0,0,17.42-9.82,13.64-15.77"/><path class="cls-8" d="M176.26,110.77c-4.37-6.89-12-4.21-13.9,2.24.53-1.82-1.46-9-7.66-9.56a8.19,8.19,0,0,0-6.5,2.67c-2.23,2.44-2.39,5.38-1.13,8.3,2.23,5.18,6,9.85,9.57,14.21.68.82,1.37,1.63,2.07,2.42,0,0,22.42-12.62,17.55-20.28"/><path class="cls-21" d="M158.5,132.32l-.53-.6c-.72-.8-1.41-1.62-2.1-2.45-3.68-4.43-7.46-9.2-9.72-14.45-1.49-3.48-1-6.8,1.31-9.37a9.12,9.12,0,0,1,7.32-3,8.89,8.89,0,0,1,6.65,4,12.6,12.6,0,0,1,1.51,3.06,8.71,8.71,0,0,1,5.82-3.72c3.23-.46,6.26,1.15,8.35,4.43a5.56,5.56,0,0,1,.64,4.5c-1.95,7.77-17.87,16.81-18.55,17.2Zm-4.36-27.9a7.28,7.28,0,0,0-5.2,2.37c-1.83,2-2.15,4.45-.95,7.24,2.15,5,5.84,9.64,9.42,14,.5.6,1,1.2,1.51,1.79,3.08-1.83,15.36-9.44,16.89-15.54a3.62,3.62,0,0,0-.39-2.94h0c-1.67-2.62-3.93-3.87-6.37-3.52a7.35,7.35,0,0,0-5.72,5.5h0l-1.93-.55h0a8.38,8.38,0,0,0-1.62-5.13,6.93,6.93,0,0,0-5.17-3.16Z"/><path class="cls-19" d="M151.8,116c-5.94-4.88-11.91-.42-11.6,5.79-.12-2.37-6.41-6.38-8.66-6.42-4-.08-6.41,4.06-6.72,7.34-.5,5.44,17.62,16,17.62,16s16-17.3,9.36-22.74"/><path class="cls-22" d="M142.62,140l-.69-.41a109,109,0,0,1-9.09-6c-6.31-4.71-9.26-8.29-9-11,.32-3.48,2.9-8.34,7.73-8.25,1.74,0,5.7,2.11,8,4.42a8,8,0,0,1,4-5.13c2.76-1.38,6-.82,8.91,1.57h0a5.37,5.37,0,0,1,1.95,4c.52,7.45-10.74,19.72-11.22,20.24Zm-11.18-23.64c-3.43,0-5.38,3.82-5.62,6.43-.31,3.39,9.62,10.6,16.42,14.66,2.22-2.52,10.55-12.4,10.16-18.15a3.43,3.43,0,0,0-1.23-2.54c-2.26-1.86-4.72-2.33-6.74-1.32a6.52,6.52,0,0,0-3.23,6.29h0l-2,.1c-.07-1.41-5.34-5.43-7.68-5.47Z"/><path class="cls-19" d="M189.7,120.37c-3.4-5.35-9.36-3.27-10.8,1.74.4-1.41-1.14-7-6-7.43a6.37,6.37,0,0,0-5.05,2.08,5.68,5.68,0,0,0-.88,6.45c1.73,4,4.63,7.66,7.44,11,.53.63,1.06,1.26,1.61,1.88,0,0,17.42-9.81,13.64-15.77"/><path class="cls-22" d="M175.85,137.41l-.54-.6c-.56-.63-1.1-1.27-1.63-1.91-2.87-3.46-5.82-7.18-7.59-11.29a6.69,6.69,0,0,1,1.06-7.52,7.29,7.29,0,0,1,5.88-2.4,7,7,0,0,1,5.32,3.21,9.45,9.45,0,0,1,1.06,2,7,7,0,0,1,4.43-2.65c2.58-.37,5,.92,6.7,3.55h0a4.53,4.53,0,0,1,.53,3.67c-1.54,6.13-14,13.2-14.52,13.5Zm-3.35-21.74a5.41,5.41,0,0,0-3.87,1.77,4.66,4.66,0,0,0-.7,5.38c1.66,3.86,4.51,7.45,7.29,10.8.35.42.69.83,1.05,1.24,3.8-2.24,11.83-7.72,12.86-11.84a2.58,2.58,0,0,0-.28-2.11h0c-1.24-2-2.93-2.9-4.73-2.64a5.5,5.5,0,0,0-4.26,4.12h0l-1.92-.55h0A6.4,6.4,0,0,0,176.7,118a5.06,5.06,0,0,0-3.84-2.35Z"/><path class="cls-5" d="M191.34,103.26c-.39-.46-.83-.92-1.3-1.38-4.14-3.94-9.37-4.46-14-1.39a14.33,14.33,0,0,0-5.66,7.55l-7.85,24.33a4.76,4.76,0,0,0,9.06,2.93L179.43,111a3.69,3.69,0,0,1,1.47-2.31,2.61,2.61,0,0,1,2.94.08,3.65,3.65,0,0,1,1.14,3.56,4.85,4.85,0,0,1-.63,1.52,4.75,4.75,0,1,0,7.36,6A12.92,12.92,0,0,0,191.34,103.26Z"/><path class="cls-23" d="M191.41,103.27a17.07,17.07,0,0,0-1.32-1.4,13.5,13.5,0,0,0-2.61-2L173,103a14.73,14.73,0,0,0-2.91,5.15l-.11.34,21.84-4.62C191.7,103.65,191.57,103.46,191.41,103.27Z"/><polygon class="cls-23" points="179.19 111.44 168.31 113.74 166.63 118.95 177.5 116.65 179.19 111.44"/><path class="cls-23" d="M185,111.13s0,.09,0,.14v0a2.91,2.91,0,0,1,0,.95s0,.07,0,.1,0,.07,0,.1a4.49,4.49,0,0,1-.64,1.54,5,5,0,0,0-.77,1.39L194.6,113a12.71,12.71,0,0,0-.46-4.76l-9.35,2A3.34,3.34,0,0,1,185,111.13Z"/><polygon class="cls-23" points="164.8 124.6 163.12 129.81 174 127.51 175.68 122.3 164.8 124.6"/><path class="cls-23" d="M191.83,119.91a11.11,11.11,0,0,0,.85-1.2l-7.86,1.66c.07.07.13.15.21.22A4.84,4.84,0,0,0,191.83,119.91Z"/><path class="cls-23" d="M165.3,138.72a4.82,4.82,0,0,0,6.08-3.11l.74-2.28-10,2.11A4.81,4.81,0,0,0,165.3,138.72Z"/><path class="cls-24" d="M166.94,139.18a5.76,5.76,0,0,1-5.49-7.53l7.85-24.34a15.41,15.41,0,0,1,6.06-8.07c5-3.35,10.75-2.79,15.25,1.5A18.83,18.83,0,0,1,192,102.2h0a13.85,13.85,0,0,1,.38,17.85A5.76,5.76,0,0,1,182.18,117a5.75,5.75,0,0,1,1.27-4.22h0a3.78,3.78,0,0,0,.43-1.08A2.65,2.65,0,0,0,183,109a1.65,1.65,0,0,0-1.7,0c-.58.38-.76.79-1.08,1.78l-7.85,24.34a5.71,5.71,0,0,1-2.86,3.35A5.59,5.59,0,0,1,166.94,139.18ZM182.11,99.1a10.15,10.15,0,0,0-5.64,1.81,13.32,13.32,0,0,0-5.26,7l-7.86,24.33a3.81,3.81,0,0,0,.23,2.87,3.76,3.76,0,0,0,6.93-.56l7.85-24.33a4.6,4.6,0,0,1,1.87-2.84,3.61,3.61,0,0,1,4.18.18,4.69,4.69,0,0,1,1.43,4.49A5.36,5.36,0,0,1,185,114a3.78,3.78,0,0,0-.84,2.77,3.76,3.76,0,0,0,4.12,3.36,3.7,3.7,0,0,0,2.53-1.36,11.9,11.9,0,0,0-.37-15.29h0a14.81,14.81,0,0,0-1.22-1.3A10.26,10.26,0,0,0,182.11,99.1Z"/><path class="cls-8" d="M172.87,125.7c-4.38-6.88-12-4.21-13.9,2.24.52-1.81-1.46-9-7.66-9.56a8.18,8.18,0,0,0-6.51,2.68c-2.22,2.44-2.38,5.37-1.12,8.3,2.22,5.17,5.95,9.84,9.57,14.21.68.81,1.36,1.63,2.07,2.42,0,0,22.42-12.63,17.55-20.29"/><path class="cls-21" d="M155.11,147.25l-.54-.6c-.71-.8-1.4-1.62-2.09-2.45-3.68-4.43-7.46-9.2-9.72-14.45a8.34,8.34,0,0,1,1.3-9.37,9.19,9.19,0,0,1,7.33-3,8.89,8.89,0,0,1,6.64,4,11.76,11.76,0,0,1,1.51,3.06,8.74,8.74,0,0,1,5.83-3.73c3.23-.46,6.26,1.16,8.34,4.43h0a5.56,5.56,0,0,1,.65,4.5c-2,7.77-17.87,16.82-18.55,17.2Zm-4.37-27.89a7.3,7.3,0,0,0-5.2,2.37c-1.83,2-2.15,4.44-.95,7.23,2.16,5,5.84,9.64,9.43,14,.5.6,1,1.19,1.51,1.78,3.08-1.83,15.36-9.44,16.89-15.53a3.61,3.61,0,0,0-.39-2.94c-1.67-2.63-3.94-3.87-6.38-3.53a7.38,7.38,0,0,0-5.72,5.51h0l-1.92-.56h0a8.4,8.4,0,0,0-1.62-5.13,7,7,0,0,0-5.17-3.15A3.85,3.85,0,0,0,150.74,119.36Z"/><path class="cls-25" d="M132.62,136.1l-2.28,22.28s-14.39,2.73-13.7,16.73c.6,12.11,7,18,36.84,16.38,26.8-1.49,24-10.06,26.8-28.66.64-4.21,2.75-21.51,3-26.05Z"/><path d="M144.47,192.76c-12.27,0-19.84-1.8-24.08-5.61-3-2.71-4.47-6.4-4.75-12-.63-12.81,10.74-16.76,13.78-17.58l2.3-22.49,52.58.71-.05,1c-.22,4.64-2.35,22-3,26.15-.36,2.36-.62,4.53-.88,6.62-1.76,14.34-2.64,21.54-26.84,22.88Q148.62,192.77,144.47,192.76Zm-10.95-55.65-2.26,22.11-.73.14a19.92,19.92,0,0,0-6.78,3,13.81,13.81,0,0,0-6.11,12.71c.25,5,1.51,8.28,4.09,10.6,4.76,4.29,14.54,5.78,31.7,4.83,22.53-1.25,23.24-7.08,25-21.14.25-2.1.52-4.28.89-6.67.59-3.84,2.48-19.19,2.9-24.91Z"/><path class="cls-5" d="M183.17,143.09l-11.26,1.58a107.23,107.23,0,0,1-29.51,0l-11.26-1.58a2.65,2.65,0,0,1-2.65-2.65v-5.21a2.65,2.65,0,0,1,2.65-2.65l21.38,1.28a73.21,73.21,0,0,0,8.51,0l22.14-1.29a2.65,2.65,0,0,1,2.65,2.65v5.21A2.65,2.65,0,0,1,183.17,143.09Z"/><path d="M157.16,146.69a109.4,109.4,0,0,1-14.9-1l-11.19-1.57a3.65,3.65,0,0,1-3.58-3.64v-5.22a3.66,3.66,0,0,1,3.65-3.65l21.44,1.28a71.17,71.17,0,0,0,8.39,0l22.14-1.28h0a3.65,3.65,0,0,1,3.7,3.64v5.22a3.65,3.65,0,0,1-3.57,3.64l-11.2,1.57A109.26,109.26,0,0,1,157.16,146.69Zm-26.08-13.11a1.64,1.64,0,0,0-1.59,1.65v5.22a1.65,1.65,0,0,0,1.65,1.64h.14l11.26,1.57a105.22,105.22,0,0,0,29.23,0l11.4-1.58a1.65,1.65,0,0,0,1.65-1.64v-5.22a1.65,1.65,0,0,0-1.65-1.65l-22.08,1.28a73.08,73.08,0,0,1-8.63,0Z"/><path class="cls-26" d="M127.52,157.45c-4.15,0-8.34-2.9-10.43-7.23-1.67-3.45-1.83-7.17-.44-9.94a7.52,7.52,0,0,1,5.53-4,7.4,7.4,0,0,1,1.41-.13c5.82,0,11.46,6.71,11.84,12,.21,3.09-1.3,7.23-4.11,8.51A9.13,9.13,0,0,1,127.52,157.45Z"/><path d="M123.59,136.94c5.4,0,10.67,6.36,11,11.22.18,2.61-1,6.52-3.62,7.71a8.31,8.31,0,0,1-3.46.75c-4,0-7.85-3-9.68-6.76-2.63-5.44-1.31-11.7,4.5-12.8a6.62,6.62,0,0,1,1.25-.12m0-1.66a8.09,8.09,0,0,0-1.56.15,8.36,8.36,0,0,0-6.11,4.48c-1.51,3-1.35,7,.43,10.67,2.22,4.6,6.71,7.7,11.17,7.7a9.94,9.94,0,0,0,4.14-.91c3.51-1.59,4.8-6.41,4.59-9.32-.48-6.88-7.36-12.77-12.66-12.77"/><path class="cls-26" d="M179.57,142.81c-6.84-1.1-14.85,9.27-11.49,13.59,4.88,6.27,10.58,4.67,15.55-.09,3.62-3.48,15.14-14.16,6.68-18.29-3.23-1.57-6.87,5.41-10.74,4.79"/><path d="M172.24,161.05a13.74,13.74,0,0,1-4.81-4.14c-1.54-2-1.22-5.26.86-8.56,2.67-4.26,8-8,13.87-6.72.41,0,1.62-1.26,2.19-1.87,1.11-1.16,2-2.08,2.93-2.07a.83.83,0,0,1,.82.83.84.84,0,0,1-.81.82,8.61,8.61,0,0,0-1.74,1.56c-1.28,1.35-2.48,2.61-3.74,2.34-5.09-1.1-9.76,2.21-12.12,6-1.67,2.65-2,5.27-.95,6.66,2.61,3.35,5.18,4.69,7.86,4.09,3.72-.82,7.38-3.49,10.89-7.95,2.37-3,5.57-7.55,6-12.24a56.85,56.85,0,0,0,.05-8.56.83.83,0,0,1,1.65-.15,59,59,0,0,1,0,8.73c-.51,5.26-3.88,10.07-6.38,13.25-3.75,4.76-7.73,7.63-11.83,8.54a7.24,7.24,0,0,1-4.72-.55m15-21.71Z"/><path class="cls-13" d="M119.79,70.35a4,4,0,0,1-3.54-2.16l-.34-.66a4,4,0,0,1,.57-4.47L112.3,48.43a6.92,6.92,0,0,1,1.6-13.55,6.92,6.92,0,0,1,7.27,6.55A7,7,0,0,1,120.8,44L132.48,54.8a4,4,0,0,1,4.1,2.12l.34.66a4,4,0,0,1-1.72,5.36l-13.59,7A4,4,0,0,1,119.79,70.35Zm-5.53-31.48h-.16A2.92,2.92,0,0,0,114,44.7l1.39.1,5.74,20-1.7.88.35.63,13.54-7-.33-.64-.12.08-1.25.65-15.9-14.66.94-1.42a2.85,2.85,0,0,0,.48-1.76,2.92,2.92,0,0,0-2.91-2.77Z"/><polygon class="cls-27" points="112.94 43.21 118.96 64.25 132.49 57.52 115.42 41.8 112.94 43.21"/><rect class="cls-5" x="116.87" y="60.27" width="19.24" height="4.7" rx="2.18" transform="translate(-14.64 64.66) rotate(-27.17)"/><circle class="cls-5" cx="114.33" cy="41.86" r="4.92"/><path class="cls-5" d="M147,179.29a9.15,9.15,0,0,1-5.71-1.81,6.45,6.45,0,0,1-5,.46c-3.78-1.23-6.11-5.85-6.69-8.47a1,1,0,0,1,2-.43c.5,2.28,2.55,6.08,5.35,7a4.34,4.34,0,0,0,2.84-.09,9.5,9.5,0,0,1-1-1.67c-1.79-3.77-1.15-8.5,1.37-10.12a4.42,4.42,0,0,1,6.07,1.15c1.8,2.39,1.78,6.7-2.54,10.53l-.58.48c1.67,1,4.19,1.5,8,.26.61-.2,1.18-.42,1.7-.65a8.11,8.11,0,0,1-2.27-3.67c-.86-3,.43-6,3.53-8.29a3.92,3.92,0,0,1,4.37-.34,5.79,5.79,0,0,1,2.36,5.74,9.6,9.6,0,0,1-4.18,6.69,7.83,7.83,0,0,0,2.36.56c3.71.3,7.05-2.16,9.13-6.71a1,1,0,1,1,1.82.83c-2.46,5.36-6.5,8.25-11.11,7.88a10,10,0,0,1-4.2-1.33,20.34,20.34,0,0,1-2.89,1.19A15.26,15.26,0,0,1,147,179.29Zm-4.41-13.88a2.45,2.45,0,0,0-1.36.44c-1.48.94-2.09,4.53-.65,7.57a7,7,0,0,0,1,1.55q.39-.28.78-.63c3.39-3,3.58-6.09,2.27-7.82A2.63,2.63,0,0,0,142.55,165.41Zm14-.29a2.42,2.42,0,0,0-1.35.48c-2.4,1.74-3.39,3.91-2.77,6.12a6.35,6.35,0,0,0,2.24,3.22c3.3-2.06,4-4.6,4.12-5.79a4,4,0,0,0-1.4-3.8A1.62,1.62,0,0,0,156.54,165.12Z"/></svg>