<svg id="레이어_2" data-name="레이어 2" xmlns="http://www.w3.org/2000/svg" viewBox="0 0 220 280"><defs><style>.cls-1,.cls-8{fill:#fff;}.cls-2,.cls-4{fill:#0088c5;}.cls-2,.cls-3,.cls-8,.cls-9{fill-rule:evenodd;}.cls-3,.cls-6{fill:#009ff9;}.cls-5{fill:#683100;}.cls-7{fill:#009ff8;}.cls-9{fill:#ffbeb8;}</style></defs><path d="M116.28,171.28a4.09,4.09,0,0,1,4.09,4.09v49.45s1.88-2.31,6.84-2.31a19.54,19.54,0,0,1,3.72.38l.29.07a18,18,0,0,1,12.1,9.33c1.3,2.56,1.87,7.26-.18,9.61-2.25,2.58-5.58,2.9-8.81,2.9-1.06,0-2.11,0-3.11,0H114.65c-2.36,0-6.11-1.92-6.11-4.29V205.83h0V175.37c0-2.26,5.49-4.09,7.74-4.09m0-3.39c-2.36,0-11.13,1.87-11.13,7.48v65.11c0,4.69,5.64,7.68,9.51,7.68h16.57l1.45,0h1.66c3.86,0,8.24-.48,11.37-4.06s2.33-10.06.64-13.37a21.4,21.4,0,0,0-14.4-11.12l-.29-.06a22.46,22.46,0,0,0-4.44-.47,16.82,16.82,0,0,0-3.45.35V175.37a7.49,7.49,0,0,0-7.48-7.48Z"/><path class="cls-1" d="M120.38,175.36v30.48H108.53V175.36c0-2.24,5.49-4.08,7.75-4.08A4.1,4.1,0,0,1,120.38,175.36Z"/><path class="cls-2" d="M143.14,241.89c-3,3.45-7.89,2.89-11.93,2.89H114.67c-2.38,0-6.14-1.93-6.14-4.3V205.84h11.85v19s2.8-3.42,10.55-1.92a2.57,2.57,0,0,1,.28.06,17.9,17.9,0,0,1,12.1,9.36C144.61,234.85,145.18,239.54,143.14,241.89Z"/><path class="cls-1" d="M98.86,179.94v30.45H87V179.94c0-2.27,5.48-4.08,7.75-4.08A4.08,4.08,0,0,1,98.86,179.94Z"/><path class="cls-3" d="M121.65,246.47c-3,3.42-7.89,2.86-11.93,2.86H93.15c-2.35,0-6.11-1.9-6.11-4.27V210.39H98.86v19s2.8-3.45,10.57-1.92a2.35,2.35,0,0,1,.29.06,18,18,0,0,1,12.1,9.33C123.12,239.43,123.69,244.13,121.65,246.47Z"/><path d="M94.78,175.86a4.09,4.09,0,0,1,4.09,4.08V229.4s1.88-2.32,6.84-2.32a18.91,18.91,0,0,1,3.72.39l.29.06a18,18,0,0,1,12.1,9.34c1.3,2.56,1.87,7.25-.18,9.6-2.25,2.59-5.58,2.91-8.81,2.91-1.06,0-2.11,0-3.11,0H93.15c-2.36,0-6.11-1.92-6.11-4.28V210.4h0V179.94c0-2.25,5.49-4.08,7.74-4.08m0-3.39c-2.36,0-11.13,1.87-11.13,7.47v65.11c0,4.69,5.64,7.68,9.51,7.68h16.57l1.45,0,1.66,0c3.87,0,8.24-.48,11.37-4.07s2.33-10.06.64-13.37a21.39,21.39,0,0,0-14.4-11.11l-.24-.06a23.33,23.33,0,0,0-4.49-.47,16.86,16.86,0,0,0-3.45.34V179.94a7.49,7.49,0,0,0-7.48-7.47Z"/><path class="cls-1" d="M147.92,148.87c-.6-6.22.3-12.21,1.16-18.64.39-2.84,2-13.14-4.06-11.55-2.18.57-3.48,3.67-4.43,5.46a45.29,45.29,0,0,0-4.38,12.33,51.25,51.25,0,0,0-.75,14.4A37.54,37.54,0,0,1,147.92,148.87Z"/><path class="cls-4" d="M155.71,169.26l-.14-.19a45.32,45.32,0,0,1-3.12-5,38.22,38.22,0,0,1-3-7.39c-.38-1.29-.7-2.63-1-4.05a35.4,35.4,0,0,1-.53-3.76,37.54,37.54,0,0,0-12.46,2,59.18,59.18,0,0,0,1,6.89c1.3,6.49,3.25,13.84,7.21,19.32a9.36,9.36,0,0,0,8.79,3.87,10.16,10.16,0,0,0,2-.49c2.21-.79,4.13-2.48,4.38-4.76a4.24,4.24,0,0,0-.07-1.29C158.41,172.46,156.85,170.87,155.71,169.26Z"/><path d="M146.19,118.51c4.63,0,3.25,9.08,2.89,11.72-.87,6.43-1.76,12.42-1.16,18.64a35.4,35.4,0,0,0,.53,3.76c.28,1.42.6,2.76,1,4.05a38.22,38.22,0,0,0,3,7.39,45.32,45.32,0,0,0,3.12,5l.14.19c1.14,1.61,2.7,3.2,3.07,5.15a4.24,4.24,0,0,1,.07,1.29c-.25,2.28-2.17,4-4.38,4.76a10.16,10.16,0,0,1-2,.49,10,10,0,0,1-1.21.08,9.43,9.43,0,0,1-7.58-3.95c-4-5.48-5.91-12.83-7.21-19.32a59.18,59.18,0,0,1-1-6.89,51.25,51.25,0,0,1,.75-14.4,45.29,45.29,0,0,1,4.38-12.33c.95-1.79,2.25-4.89,4.43-5.46a4.29,4.29,0,0,1,1.17-.17m0-3.39a7.69,7.69,0,0,0-2,.28c-3.38.89-5.09,4.25-6.21,6.47l-.36.68a49,49,0,0,0-4.71,13.25,55.26,55.26,0,0,0-.8,15.35,63.16,63.16,0,0,0,1,7.28c1.28,6.36,3.31,14.44,7.79,20.64a12.81,12.81,0,0,0,10.33,5.35,13.38,13.38,0,0,0,1.67-.11,14.61,14.61,0,0,0,2.72-.65c3.71-1.33,6.25-4.23,6.61-7.59a7.47,7.47,0,0,0-.11-2.29,12.91,12.91,0,0,0-2.87-5.46c-.26-.34-.52-.67-.76-1l-.15-.22a41.55,41.55,0,0,1-2.89-4.62,35.44,35.44,0,0,1-2.75-6.74c-.35-1.19-.65-2.42-.92-3.76-.19-1-.35-2.08-.48-3.42-.52-5.5.22-11,1-16.81l.15-1.05,0-.25c.66-4.85,1-10.21-1.67-13.25a6.05,6.05,0,0,0-4.62-2.07Z"/><path class="cls-1" d="M119.52,27.75a10.79,10.79,0,0,0-5.44,4c-2.22,3.24-3.5,9.16-1.77,12.81.6,1.27,2.12.38,3.88.08,2.09-.36,1.49-2.27,3-4.09,2.19-2.62,4.47.06,8.28,2.78a7.33,7.33,0,0,0,9.83-1.24,6.3,6.3,0,0,0-1.19-9.22C130.24,28.55,126.36,25.3,119.52,27.75Z"/><path d="M124,26.91c4.35,0,7.67,2.66,12.15,5.93a6.3,6.3,0,0,1,1.19,9.22,7.33,7.33,0,0,1-9.83,1.24c-2.71-1.94-4.65-3.85-6.33-3.85a2.49,2.49,0,0,0-2,1.07c-1.52,1.82-.92,3.73-3,4.09a24.62,24.62,0,0,1-2.79.58,1.08,1.08,0,0,1-1.09-.66c-1.73-3.65-.45-9.57,1.77-12.81a10.79,10.79,0,0,1,5.44-4,13.2,13.2,0,0,1,4.45-.84m0-3.4a16.41,16.41,0,0,0-5.59,1,14.1,14.1,0,0,0-7.1,5.26c-2.82,4.11-4.35,11.29-2,16.17a4.49,4.49,0,0,0,4.15,2.61,9.38,9.38,0,0,0,2.37-.4c.32-.09.65-.18,1-.24a5.61,5.61,0,0,0,4.52-4.16c.1-.27.18-.48.26-.66.57.36,1.36,1,2,1.45s1.27,1,2,1.48a10.76,10.76,0,0,0,14.44-1.84,9.68,9.68,0,0,0,2.17-7.42,9.78,9.78,0,0,0-4-6.7l-.86-.63c-4.35-3.19-8.11-6-13.29-6Z"/><path class="cls-5" d="M125.77,39.16a2.81,2.81,0,0,1,1.59-.14,2.69,2.69,0,0,1-1.52-1.39,2.61,2.61,0,0,1,1.48-3.48,2.93,2.93,0,0,1,2-.06A2.69,2.69,0,0,1,128,32.81c-.61-1.34.49-2.88,1.92-3.46a8.46,8.46,0,0,1,.88-.1,20.14,20.14,0,0,1,5.34,3.59,6.32,6.32,0,0,1,1.19,9.23,7.34,7.34,0,0,1-9.83,1.23c-.91-.65-2.66-1.92-3.2-2.33-.78-.58.51-1.42,1.49-1.81"/><path class="cls-1" d="M79.7,31.27A12.45,12.45,0,0,1,87,34.55c3.43,3.3,6,7.32,5.11,12.21-.31,1.7-3.1,3.21-5.17,3.33-2.45.15-2.3-1.64-4.54-3.41-3.2-2.55-5,1.32-8.49,5.66a8.08,8.08,0,0,1-11.41,1.24,8.2,8.2,0,0,1-1.31-11.46C66.51,35.3,71.32,30.22,79.7,31.27Z"/><path d="M77.56,31.13a17.72,17.72,0,0,1,2.14.14A12.45,12.45,0,0,1,87,34.55c3.43,3.3,6,7.32,5.11,12.21-.31,1.7-3.1,3.21-5.17,3.33h-.28c-2.16,0-2.11-1.72-4.26-3.42a3.14,3.14,0,0,0-2-.82c-2.13,0-3.82,3.1-6.54,6.48a8.1,8.1,0,0,1-6.33,3,8,8,0,0,1-5.08-1.81,8.2,8.2,0,0,1-1.31-11.46c4.89-6.21,9.31-11,16.41-11m0-3.39h0c-8.69,0-14,5.81-19.08,12.28a11.65,11.65,0,0,0,1.85,16.2,11.47,11.47,0,0,0,16.19-1.76c.64-.8,1.22-1.58,1.78-2.32a27.77,27.77,0,0,1,2.14-2.65,7.49,7.49,0,0,1,1,1.12,6.06,6.06,0,0,0,5.2,2.89l.49,0c2.93-.18,7.59-2.25,8.3-6.11,1-5.31-1.08-10.44-6.09-15.26a15.72,15.72,0,0,0-9.2-4.21,22.41,22.41,0,0,0-2.56-.16Z"/><path class="cls-5" d="M74.59,46.86a3.11,3.11,0,0,0-1.83.28A3.23,3.23,0,0,0,74.07,45a3.28,3.28,0,0,0-2.66-3.79,3.16,3.16,0,0,0-2.26.49,3.29,3.29,0,0,0,1.13-1.92c.3-1.79-1.38-3.34-3.15-3.65-.16,0-.85.13-1,.13a23.48,23.48,0,0,0-5,5.82,8.2,8.2,0,0,0,1.31,11.46,8.07,8.07,0,0,0,11.41-1.25c.83-1,2.43-3,2.92-3.69.71-.92-1-1.58-2.2-1.78"/><path d="M108.8,42.83c10.61,0,21.61,4.32,30.39,10.26,7.5,5.07,12.59,14.21,15.24,22.73.16.51.28,1,.42,1.53.3.88.59,1.75.84,2.61,3,10.35,1.21,19.36-1.66,29.63-.63,2.23-5.1,13.12-5.18,13.64-1.29,6,1.81,13.3,2.67,19.19,1.59,11,1.9,22.29-2.68,32.64-6.24,14.11-20.77,19.13-35.2,20.09-1.42.1-2.85.15-4.27.15h-1.14l-3.53-.05c-1.73,0-3.54-.11-5.26-.28-11.87-1.14-24.94-5.75-32.36-15.61-5.36-7.14-7.4-19-6.81-27.76.46-6.87,2.57-13.51,3.86-20.24.51-2.64,1.5-5.21,1.29-7.89,0-.57-.12-1.12-.21-1.68-.42-1.21-3.66-10.3-4.47-13.78a56.32,56.32,0,0,1-1.83-24.6c1.27-8.83,4.86-18.66,11.47-24.85,8.48-7.94,19.9-14.39,31.44-15.27l.21,0,3.71-.29c1-.09,2-.13,3.06-.13m0-3.39c-1.13,0-2.25.05-3.34.14l-3.7.28-.27,0c-11.16.86-23.38,6.76-33.43,16.18C61.72,62,57.16,71.79,55.55,82.9a59.84,59.84,0,0,0,1.91,26c.7,2.9,2.79,9,4.44,13.71.06.39.11.75.14,1.12a15.43,15.43,0,0,1-.68,4.53c-.2.82-.4,1.64-.56,2.46-.41,2.15-.93,4.37-1.43,6.51a89.06,89.06,0,0,0-2.49,14.14c-.61,9.18,1.47,22,7.49,30,7,9.32,19.67,15.5,34.74,17,1.77.17,3.69.27,5.54.3l3.54.05h1.18c1.5,0,3-.05,4.5-.15,19.08-1.28,32.24-8.92,38.07-22.11,5.3-12,4.36-24.73,2.94-34.5-.3-2-.83-4.2-1.35-6.29-1-4.08-2.05-8.29-1.38-11.59.19-.56,1-2.56,1.68-4.33,1.79-4.54,3.09-7.86,3.47-9.22,2.79-10,5-19.91,1.65-31.49-.26-.88-.55-1.77-.85-2.65l-.13-.48c-.09-.36-.19-.71-.3-1.07-3.34-10.72-9.38-19.66-16.58-24.53-10.33-7-21.8-10.84-32.29-10.84Z"/><path class="cls-6" d="M154,109.59c2.87-10.27,4.68-19.28,1.66-29.63-.25-.86-.54-1.73-.84-2.61-.14-.51-.26-1-.42-1.53-2.65-8.52-7.74-17.66-15.24-22.73C129.56,46.58,117.27,42,105.73,43l-3.7.29-.21,0c-11.54.88-23,7.33-31.44,15.27-6.61,6.19-10.2,16-11.47,24.85A56.32,56.32,0,0,0,60.74,108c.81,3.48,4.05,12.57,4.47,13.78.09.56.17,1.11.21,1.68.21,2.68-.78,5.25-1.29,7.89-1.29,6.73-3.4,13.37-3.86,20.24-.59,8.8,1.45,20.62,6.81,27.76C74.5,189.2,87.57,193.81,99.44,195c1.72.17,3.53.26,5.26.28l3.53.05h.21c1.73,0,3.47,0,5.2-.14,14.43-1,29-6,35.2-20.09,4.58-10.35,4.27-21.68,2.68-32.64-.86-5.89-4-13.2-2.67-19.19C148.93,122.71,153.4,111.82,154,109.59Z"/><path class="cls-7" d="M105.73,43h0Z"/><path class="cls-1" d="M76.69,157.79c-.31-6.25.87-12.19,2-18.57.52-2.82,2.58-13-3.51-11.73-2.21.47-3.65,3.5-4.68,5.25a45.47,45.47,0,0,0-5,12.11,51.51,51.51,0,0,0-1.42,14.35A37.25,37.25,0,0,1,76.69,157.79Z"/><path class="cls-4" d="M83.51,178.52l-.12-.2a44.07,44.07,0,0,1-2.89-5.14,38.4,38.4,0,0,1-2.67-7.52c-.31-1.31-.58-2.67-.79-4.1a37.74,37.74,0,0,1-.35-3.77,37.25,37.25,0,0,0-12.54,1.41,59.49,59.49,0,0,0,.64,6.93c1,6.54,2.6,14,6.3,19.64a9.4,9.4,0,0,0,8.6,4.27,11.41,11.41,0,0,0,2.06-.39c2.25-.69,4.24-2.28,4.6-4.55a4.35,4.35,0,0,0,0-1.3C86.06,181.84,84.57,180.18,83.51,178.52Z"/><path d="M76.21,127.37c4.85,0,3,9.2,2.51,11.85-1.16,6.38-2.34,12.32-2,18.57a37.74,37.74,0,0,0,.35,3.77c.21,1.43.48,2.79.79,4.1a38.4,38.4,0,0,0,2.67,7.52,44.07,44.07,0,0,0,2.89,5.14l.12.2c1.06,1.66,2.55,3.32,2.83,5.28a4.35,4.35,0,0,1,0,1.3c-.36,2.27-2.35,3.86-4.6,4.55a11.41,11.41,0,0,1-2.06.39c-.27,0-.53,0-.8,0a9.41,9.41,0,0,1-7.8-4.3c-3.7-5.67-5.3-13.1-6.3-19.64a59.49,59.49,0,0,1-.64-6.93,51.51,51.51,0,0,1,1.42-14.35,45.47,45.47,0,0,1,5-12.11c1-1.75,2.47-4.78,4.68-5.25a4.61,4.61,0,0,1,1-.12m0-3.39a7.86,7.86,0,0,0-1.71.19c-3.42.73-5.28,4-6.51,6.17l-.38.67a48.78,48.78,0,0,0-5.33,13,55.07,55.07,0,0,0-1.52,15.29,64.61,64.61,0,0,0,.68,7.32c1,6.41,2.63,14.58,6.81,21a12.86,12.86,0,0,0,10.64,5.84c.37,0,.73,0,1.1,0a14.1,14.1,0,0,0,2.75-.53c3.77-1.15,6.44-3.93,7-7.26a8,8,0,0,0,0-2.3,13.14,13.14,0,0,0-2.61-5.59c-.25-.35-.49-.7-.71-1l-.15-.22a43.42,43.42,0,0,1-2.67-4.76,35.38,35.38,0,0,1-2.43-6.86c-.29-1.2-.53-2.45-.74-3.8a33.21,33.21,0,0,1-.31-3.44c-.28-5.51.73-11,1.79-16.74l.19-1,0-.24c.9-4.88,1.47-10.29-1.14-13.43A6.09,6.09,0,0,0,76.21,124Z"/><path class="cls-8" d="M161.1,111.87c-5.88,7.33-17.48,12.27-31,13.26-33.57,2.49-51-7.46-53.25-30.45-.34-3.25-1.44-20,8.4-31.67a30.87,30.87,0,0,1,11-8.15,44.09,44.09,0,0,1,15.18-3.5c1.73-.11,3.37-.17,5-.17,34.73,0,37.55,26.69,37.64,27.88a1.68,1.68,0,0,0,1.27,1.47c.34.11,8.85,2.52,10.38,13.43C166.61,100.9,165.08,106.92,161.1,111.87Z"/><path d="M169,93.49c-1.53-10.83-8.91-14.73-11.77-15.83-.88-5.63-6.76-29.86-40.8-29.86-1.67,0-3.42.05-5.26.17-12.42.82-22,5.17-28.53,12.86C72.19,73.19,73,90.13,73.44,95c2.26,22.73,17.67,33.9,47,33.9,3.13,0,6.44-.14,9.92-.39,14.68-1.08,26.84-6.36,33.4-14.51C168.34,108.31,170.12,101.41,169,93.49ZM76.83,94.68c-.34-3.25-1.44-20,8.4-31.67a30.87,30.87,0,0,1,11-8.15,44.09,44.09,0,0,1,15.18-3.5c1.73-.11,3.37-.17,5-.17,34.73,0,37.55,26.69,37.64,27.88a1.68,1.68,0,0,0,1.27,1.47c.34.11,8.85,2.52,10.38,13.43,1,6.93-.57,13-4.55,17.9-5.88,7.33-17.48,12.27-31,13.26C96.51,127.62,79.12,117.67,76.83,94.68Z"/><path class="cls-9" d="M126.34,97.79c.16,6.93-5,12.67-11.61,12.83s-12-5.33-12.21-12.26,5-12.67,11.6-12.82,12,5.33,12.22,12.25"/><path class="cls-9" d="M165,92.31c-.59-2.35-3.38-10.24-7.22-7.41-5.18,3.82-2.78,13.54-.21,18.36,1,1.9,2.83,4.13,5.38,3.65,1.44-.27,2-3,2.16-3.93A24.31,24.31,0,0,0,165,92.31Z"/><path d="M133,85a36.73,36.73,0,0,1-5.09.47,3,3,0,0,0,0,.43v1.38a2.64,2.64,0,1,0,5.27-.13V85.76A2.83,2.83,0,0,0,133,85Z"/><path d="M144.66,93.16c1.19,0,2.13-.78,2.11-1.68a2.23,2.23,0,0,0-4.3.1A1.94,1.94,0,0,0,144.66,93.16Z"/><path d="M147.49,85.72a6.2,6.2,0,0,0,.59,2.58,1.91,1.91,0,0,0,1.68,1.15,2.51,2.51,0,0,0,2.18-2.76V85.3c-1.51-.17-3.27-.33-4.45-.58A6.58,6.58,0,0,0,147.49,85.72Z"/><path d="M154.26,94.92a1.41,1.41,0,1,0-2.41,1.47c.05.09.16.27-.32.85a3.71,3.71,0,0,1-3,1.29,4.33,4.33,0,0,1-3.34-1.67,1.54,1.54,0,0,0-.19-.17.85.85,0,0,0-.16-.17l0,0a1.92,1.92,0,0,0-.33-.14c-.06,0-.11,0-.17-.06a1.29,1.29,0,0,0-.34,0h-.2a1.39,1.39,0,0,0-.26.1,1.42,1.42,0,0,0-.25.12h0c-.07.06-.11.13-.17.19s-.12.1-.17.16c-2,3-7.58,3.66-11,1.39A6.22,6.22,0,0,1,130.37,97,1.42,1.42,0,0,0,128,95.48a2.22,2.22,0,0,0-.57,1.8c.14,1.1,1.08,2.23,2.79,3.36a11.68,11.68,0,0,0,6.37,1.82,10.86,10.86,0,0,0,7.4-2.74,7.26,7.26,0,0,0,4.38,1.64h.24a6.5,6.5,0,0,0,5-2.31A3.34,3.34,0,0,0,154.26,94.92Z"/></svg>