<?xml version="1.0" encoding="utf-8"?>
<!-- Generator: Adobe Illustrator 24.1.1, SVG Export Plug-In . SVG Version: 6.00 Build 0)  -->
<svg version="1.1" id="Layer_1" xmlns="http://www.w3.org/2000/svg" xmlns:xlink="http://www.w3.org/1999/xlink" x="0px" y="0px"
	 viewBox="0 0 240 240" style="enable-background:new 0 0 240 240;" xml:space="preserve">
<g>
	<path style="fill:#FF2410;" d="M29.81,138.18c0.36,0,0.72-0.02,1.08-0.06c-0.06,0.26-0.14,0.52-0.24,0.78
		c-0.1,0.26-0.2,0.52-0.32,0.78c-0.14,0.3-0.3,0.62-0.46,0.92c-0.12,0.26-0.28,0.52-0.42,0.76c-0.52,0.86-1.06,1.64-1.46,2.2
		c-0.2,0.3-0.38,0.56-0.52,0.76c-0.16,0.24-0.2,0.56-0.12,0.84c0.62,2.02,1.38,5.84-0.38,8.88c-1.2,2.06-3.44,3.46-6.62,4.18
		c-2.38,0.54-4.36-0.26-5.86-2.38c-3.34-4.64-3.28-14.32,0.1-19.92c0.12-0.18,0.24-0.38,0.36-0.56c0.12-0.16,0.22-0.32,0.36-0.48
		c0.54-0.74,1.24-1.44,2.06-2.04c0.34-0.24,0.72-0.48,1.12-0.66c1.54,2.46,4.36,4.56,7.8,5.5
		C27.48,138.02,28.67,138.18,29.81,138.18z"/>
	<path style="fill:#FFFFFF;" d="M35.38,132.06c-0.14,1.1-0.74,2.04-1.74,2.7c-0.24,0.14-0.48,0.28-0.74,0.4
		c-0.56,0.26-1.2,0.44-1.9,0.54c-1.24,0.16-2.66,0.06-4.1-0.32c-2.52-0.7-4.68-2.2-6-3.94c-0.46-0.6-0.8-1.22-1.04-1.84
		c0,0,0,0,0-0.02c-0.28-0.74-0.38-1.5-0.28-2.22c0.14-1.1,0.74-2.02,1.72-2.68c1.02-0.68,2.38-1.02,3.86-1.02
		c0.92,0,1.9,0.14,2.88,0.4C32.43,125.26,35.79,128.94,35.38,132.06z"/>
	<path d="M28.69,121.74c-3.28-0.9-6.44-0.56-8.7,0.94c-1.56,1.04-2.56,2.6-2.78,4.38c-0.14,1.12,0,2.24,0.38,3.32
		c-1.84,0.92-3.44,2.44-4.7,4.52c-3.82,6.28-3.82,16.82-0.02,22.12c1.58,2.2,3.7,3.36,6.12,3.36c0.58,0,1.18-0.08,1.8-0.2
		c3.74-0.84,6.4-2.56,7.9-5.14c2.02-3.46,1.38-7.58,0.7-10c0.08-0.1,0.16-0.2,0.24-0.32c1.06-1.54,2.98-4.26,3.4-7.04
		c0.7-0.22,1.36-0.54,1.96-0.94c1.56-1.04,2.54-2.58,2.78-4.36C38.32,127.98,34.34,123.3,28.69,121.74z M33.65,134.76
		c-0.24,0.14-0.48,0.28-0.74,0.4c-0.56,0.26-1.2,0.44-1.9,0.54c-1.24,0.16-2.66,0.06-4.1-0.32c-2.52-0.7-4.68-2.2-6-3.94
		c-0.46-0.6-0.8-1.22-1.04-1.84c0,0,0,0,0-0.02c-0.28-0.74-0.38-1.5-0.28-2.22c0.14-1.1,0.74-2.02,1.72-2.68
		c1.02-0.68,2.38-1.02,3.86-1.02c0.92,0,1.9,0.14,2.88,0.4c4.38,1.2,7.74,4.88,7.34,8C35.24,133.16,34.65,134.1,33.65,134.76z
		 M30.65,138.9c-0.1,0.26-0.2,0.52-0.32,0.78c-0.14,0.3-0.3,0.62-0.46,0.92c-0.12,0.26-0.28,0.52-0.42,0.76
		c-0.52,0.86-1.06,1.64-1.46,2.2c-0.2,0.3-0.38,0.56-0.52,0.76c-0.16,0.24-0.2,0.56-0.12,0.84c0.62,2.02,1.38,5.84-0.38,8.88
		c-1.2,2.06-3.44,3.46-6.62,4.18c-2.38,0.54-4.36-0.26-5.86-2.38c-3.34-4.64-3.28-14.32,0.1-19.92c0.12-0.18,0.24-0.38,0.36-0.56
		c0.1-0.16,0.22-0.32,0.36-0.48c0.54-0.74,1.24-1.44,2.06-2.04c0.34-0.24,0.72-0.48,1.12-0.66c1.54,2.46,4.36,4.56,7.8,5.5
		c1.2,0.34,2.38,0.5,3.52,0.5c0.36,0,0.72-0.02,1.08-0.06C30.82,138.38,30.74,138.64,30.65,138.9z"/>
	<path d="M30.13,131.29c-0.02,0-0.04,0-0.05,0c-3.01-0.16-5.03-0.92-6.01-2.25c-0.82-1.12-0.58-2.2-0.55-2.32
		c0.13-0.53,0.67-0.87,1.21-0.72c0.53,0.13,0.85,0.66,0.73,1.18c-0.01,0.05-0.04,0.36,0.25,0.72c0.36,0.45,1.42,1.22,4.47,1.39
		c0.55,0.03,0.97,0.5,0.94,1.05C31.1,130.88,30.66,131.29,30.13,131.29z"/>
</g>
<g>
	<g>
		<path style="fill:#FFFFFF;" d="M176.84,100.24l-4.62,3.38c-10.94-2.82-27.02-20.48-35.86-35.54c-4.76-8.1-7.04-14.84-6.06-18.02
			c2.66-8.76-5.38-17.92-9.96-22.26c3.84,0.88,7.5,3.14,10.2,6.38c3.9,4.66,5.42,10.6,4.3,16.72
			C132.46,64.06,169.38,94.28,176.84,100.24z"/>
		<path d="M179.57,99.34c-12.44-9.72-44.3-37.3-42.36-48c1.24-6.74-0.52-13.56-4.82-18.7c-4-4.8-9.88-7.68-15.7-7.68c0,0,0,0-0.02,0
			c-0.5,0.02-0.96,0.34-1.12,0.82c-0.18,0.48-0.02,1.02,0.4,1.34c0.14,0.12,15.16,12,12.06,22.24c-1.62,5.28,3.24,14.76,6.28,19.94
			c9.44,16.08,26.22,34.24,37.94,36.8c0.08,0.02,0.18,0.02,0.26,0.02c0.24,0,0.5-0.08,0.7-0.22l6.36-4.66
			c0.3-0.22,0.48-0.56,0.48-0.94C180.05,99.92,179.86,99.56,179.57,99.34z M136.36,68.08c-4.76-8.1-7.04-14.84-6.06-18.02
			c2.66-8.76-5.38-17.92-9.96-22.26c3.84,0.88,7.5,3.14,10.2,6.38c3.9,4.66,5.42,10.6,4.3,16.72c-2.38,13.16,34.54,43.38,42,49.34
			l-4.62,3.38C161.29,100.8,145.2,83.14,136.36,68.08z"/>
	</g>
	<g>
		<polygon style="fill:#FF2410;" points="115.17,27.88 107.55,55.76 84.72,41.16 		"/>
		<path d="M117.34,25.36c-0.3-0.24-0.7-0.3-1.06-0.16L82.2,40.08c-0.34,0.14-0.56,0.48-0.6,0.84c-0.02,0.36,0.16,0.72,0.46,0.92
			l25.56,16.34c0.16,0.1,0.34,0.16,0.54,0.16c0.12,0,0.24-0.02,0.36-0.08c0.3-0.1,0.52-0.36,0.6-0.66l8.52-31.22
			C117.74,26.02,117.62,25.62,117.34,25.36z M84.72,41.16l30.44-13.28l-7.62,27.88L84.72,41.16z"/>
	</g>
</g>
<g>
	<path style="fill:#FF2410;" d="M48.36,192.26c0.8,0,2.06-0.04,3.26-0.28c-0.34,1.62-0.72,3.44-1.12,5.52
		c-1.62,8.4-1.62,8.38-11.24,7.4l-0.72-0.06c-8.52-0.88-18.1-3.24-19.88-6.06c-0.26-0.42-0.32-0.78-0.18-1.2
		c0.96-2.7,4.52-6.84,11.94-6.84c0.78,0,1.62,0.04,2.5,0.14c1.12,0.14,2.08-0.18,2.86-0.92c0.34-0.32,0.62-0.72,0.84-1.16
		c3.06,2.48,7.88,3.42,11.6,3.46H48.36z"/>
	<path style="fill:#FFFFFF;" d="M54.72,184v0.02c-0.22,1.24-0.66,2.7-1.18,3.92c-0.24,0.58-0.52,1.1-0.8,1.52
		c-0.08,0.1-0.3,0.2-0.62,0.32c-0.82,0.28-2.4,0.54-4.66,0.46c-3.5-0.16-7.78-1.16-10.12-3.46c-0.28-0.3-0.56-0.6-0.78-0.94
		c-0.02-0.02-0.04-0.06-0.04-0.1c-0.24-0.66-0.12-2.9,0.26-5.18c0.04-0.2,0.06-0.38,0.1-0.58c0.72-2.66,3.74-3.12,6.2-3.04
		c5.52,0.2,11.46,3.28,11.78,4.96C54.95,182.36,54.88,183.12,54.72,184z"/>
	<path d="M56.82,181.52c-0.6-3.26-8.16-6.38-13.68-6.58c-4.48-0.18-7.4,1.46-8.2,4.56v0.08c-0.34,1.74-1,5.94-0.04,7.38
		c0.06,0.1,0.14,0.2,0.22,0.28c-0.18,0.54-0.42,0.98-0.74,1.28c-0.34,0.32-0.74,0.44-1.24,0.38c-10.38-1.18-15.28,4.48-16.54,8
		c-0.34,1-0.22,2.02,0.36,2.94c2.4,3.78,13.02,6.12,21.38,6.98l0.7,0.08c2.36,0.24,4.24,0.4,5.78,0.4c5.04,0,6.2-1.88,7.64-9.42
		c0.5-2.62,0.98-4.84,1.4-6.76c0.22-0.16,0.38-0.32,0.52-0.52C55.91,188.42,57.22,183.58,56.82,181.52z M54.72,184v0.02
		c-0.22,1.24-0.66,2.7-1.18,3.92c-0.24,0.58-0.52,1.1-0.8,1.52c-0.08,0.1-0.3,0.2-0.62,0.32c-0.82,0.28-2.4,0.54-4.66,0.46
		c-3.5-0.16-7.78-1.16-10.12-3.46c-0.28-0.3-0.56-0.6-0.78-0.94c-0.02-0.02-0.04-0.06-0.04-0.1c-0.24-0.66-0.12-2.9,0.26-5.18
		c0.04-0.2,0.06-0.38,0.1-0.58c0.72-2.66,3.74-3.12,6.2-3.04c5.52,0.2,11.46,3.28,11.78,4.96C54.95,182.36,54.88,183.12,54.72,184z
		 M50.5,197.5c-1.62,8.4-1.62,8.38-11.24,7.4l-0.72-0.06c-8.52-0.88-18.1-3.24-19.88-6.06c-0.26-0.42-0.32-0.78-0.18-1.2
		c0.96-2.7,4.52-6.84,11.94-6.84c0.78,0,1.62,0.04,2.5,0.14c1.12,0.14,2.08-0.18,2.86-0.92c0.34-0.32,0.62-0.72,0.84-1.16
		c3.06,2.48,7.88,3.42,11.6,3.46h0.14c0.8,0,2.06-0.04,3.26-0.28C51.29,193.6,50.91,195.42,50.5,197.5z"/>
	<g>
		<path d="M49.37,184.5c-2.4,0-5.54-0.74-7.46-1.5c-1.73-0.69-2.65-1.5-2.83-2.48c-0.13-0.73,0.21-1.34,0.54-1.64
			c0.41-0.37,1.04-0.34,1.41,0.06c0.33,0.36,0.35,0.9,0.06,1.28c0.11,0.14,0.48,0.49,1.56,0.92c3.3,1.32,7.65,1.66,8.3,1.12
			c0.2-0.52,0.75-0.72,1.26-0.52c0.51,0.2,0.74,0.83,0.54,1.34c-0.13,0.32-0.42,0.77-1.1,1.06C51.09,184.39,50.28,184.5,49.37,184.5
			z"/>
	</g>
</g>
<g>
	<g>
		<polygon style="fill:#FFFFFF;" points="118.98,81.26 97.03,182.14 25.81,163.88 45.45,73.62 		"/>
		<path d="M43.57,71.02l-20.6,94.62l75.88,19.44l23.06-105.92L43.57,71.02z M25.81,163.88l19.64-90.26l73.54,7.64L97.03,182.14
			L25.81,163.88z"/>
	</g>
	<g>
		<g>
			<polygon style="fill:#FFFFFF;" points="110.88,87.34 91.96,174.28 32.88,159.06 49.82,81.24 			"/>
			<path style="fill:#E0B955;" d="M47.95,78.64l-17.9,82.18l63.74,16.42l20.02-92.02L47.95,78.64z M32.88,159.06l16.94-77.82
				l61.06,6.1l-18.92,86.94L32.88,159.06z"/>
		</g>
		<g>
			<path style="fill:#FF2410;" d="M87.17,118.48c-0.52,7.84-17.48,18.44-21.56,20.86c-1.08-1.94-2.14-3.8-3.16-5.56
				c-7.98-13.94-11.56-20.82-5.74-24.88c0.84-0.58,1.66-0.88,2.48-0.88c0.38,0,0.78,0.06,1.18,0.2c4.04,1.36,7.42,9.36,8.38,12.32
				c0.12,0.38,0.46,0.66,0.88,0.7c0.4,0.02,0.78-0.18,0.96-0.56c4.18-8.22,9.32-10.14,12.46-9.28
				C85.79,112.16,87.41,114.94,87.17,118.48z"/>
			<path style="fill:#D51E0E;" d="M83.57,109.46c-3.74-1.02-9.16,0.72-13.7,8.36c-1.38-3.44-4.52-10.02-8.86-11.5
				c-1.84-0.62-3.66-0.3-5.44,0.94c-7.58,5.28-2.52,14.12,5.14,27.5c1.16,2.04,2.4,4.18,3.66,6.44c0.12,0.24,0.34,0.42,0.6,0.48
				c0.08,0.04,0.18,0.04,0.26,0.04c0.18,0,0.36-0.04,0.5-0.12c0.94-0.54,22.78-13.06,23.44-23
				C89.46,114.14,87.22,110.48,83.57,109.46z M65.6,139.34c-1.08-1.94-2.14-3.8-3.16-5.56c-7.98-13.94-11.56-20.82-5.74-24.88
				c0.84-0.58,1.66-0.88,2.48-0.88c0.38,0,0.78,0.06,1.18,0.2c4.04,1.36,7.42,9.36,8.38,12.32c0.12,0.38,0.46,0.66,0.88,0.7
				c0.4,0.02,0.78-0.18,0.96-0.56c4.18-8.22,9.32-10.14,12.46-9.28c2.74,0.76,4.36,3.54,4.12,7.08
				C86.65,126.32,69.69,136.92,65.6,139.34z"/>
		</g>
		<path style="fill:#E5241C;" d="M41.39,146.26c0,0-0.45,1.94-2.36,1.63c-1.91-0.31-2.53-3.32,3.71-6.82c0,0,5.35,7.03,1.01,7.8
			C41.31,149.3,41.39,146.26,41.39,146.26z"/>
		<path style="fill:#E0B955;" d="M40.77,154.52l-0.87,1.81l-0.63-0.25l-0.18-1.89L40.77,154.52z M44.16,151.21l-2.86-0.38
			l-0.06,0.93l0.72,0.28l-0.81,1.69l-2.11-0.22l-0.17-1.84l1.14,0.15l-0.06-1.23l-2.9-0.28l-0.38,0.64l1.3,0.66l0.73,5.12l1.37,0.55
			l2.95-5.19l0.73,0.17L44.16,151.21z"/>
		<path style="fill:#E5241C;" d="M102.68,98.96c0,0,0.5-1.89,2.36-1.54s2.39,3.33-3.83,6.59c0,0-5.06-7.05-0.78-7.68
			C102.83,95.98,102.68,98.96,102.68,98.96z"/>
		<path style="fill:#E0B955;" d="M103.5,90.88l0.9-1.75l0.61,0.27l0.12,1.86L103.5,90.88z M100.09,94.03l2.8,0.45l0.08-0.91
			l-0.69-0.29l0.84-1.64l2.06,0.27l0.12,1.81l-1.11-0.18l0.02,1.21l2.84,0.35l0.39-0.61l-1.25-0.68l-0.58-5.04l-1.32-0.58
			l-3.03,5.01l-0.71-0.19L100.09,94.03z"/>
	</g>
</g>
<g>
	<path style="fill:#FF2410;" d="M75.05,203.12c0.7-0.02,2.32-0.1,3.8-0.48c-0.32,1.74-0.64,3.68-1,5.9
		c-1.5,9.5-2.28,10.12-12.14,9.56c-10.82-0.6-17.92-2.24-19.5-4.5c-0.28-0.42-0.34-0.82-0.2-1.32c0.32-1.04,3.34-9.86,12.94-9.86
		c0.36,0,0.74,0,1.12,0.04c1.08,0.06,2.04-0.3,2.76-1.04c0.36-0.38,0.66-0.82,0.9-1.34c2.84,2.22,7.1,3.06,10.72,3.06
		C74.65,203.14,74.84,203.14,75.05,203.12z"/>
	<path style="fill:#FFFFFF;" d="M81.7,194.22c-0.2,1.46-0.66,3.22-1.22,4.58c0,0-0.02,0.02-0.02,0.04c-0.18,0.44-0.4,0.86-0.6,1.2
		c-0.08,0.12-0.28,0.26-0.64,0.4c-0.8,0.32-2.28,0.66-4.44,0.7c-3.44-0.02-7.96-0.78-10.42-3.16c-0.3-0.28-0.56-0.58-0.8-0.92
		c-0.32-0.5-0.26-3,0.08-5.58c0.04-0.2,0.06-0.42,0.1-0.64c0.66-2.98,3.82-3.54,6.44-3.56c5.52,0.04,11.26,2.9,11.62,4.62
		C81.91,192.4,81.86,193.24,81.7,194.22z"/>
	<path d="M83.76,191.5c-0.68-3.3-8.02-6.18-13.56-6.22c-4.76,0.02-7.7,1.8-8.42,5.16c0,0.02-0.02,0.04-0.02,0.06
		c-0.28,1.84-0.84,6.28,0.16,7.7c0.08,0.12,0.16,0.22,0.24,0.32c-0.18,0.62-0.42,1.16-0.76,1.5c-0.34,0.32-0.7,0.48-1.2,0.44
		c-11.98-0.78-15.72,10-16.1,11.24c-0.34,1.08-0.18,2.12,0.46,3.04c2,2.9,9.08,4.7,21.02,5.36c1.36,0.08,2.58,0.12,3.68,0.12
		c7.62,0,9.12-2.2,10.56-11.36c0.42-2.8,0.84-5.16,1.22-7.2c0.22-0.18,0.38-0.36,0.52-0.58C83.03,198.72,84.2,193.62,83.76,191.5z
		 M81.7,194.22c-0.2,1.46-0.66,3.22-1.22,4.58c0,0-0.02,0.02-0.02,0.04c-0.18,0.44-0.4,0.86-0.6,1.2c-0.08,0.12-0.28,0.26-0.64,0.4
		c-0.8,0.32-2.28,0.66-4.44,0.7c-3.44-0.02-7.96-0.78-10.42-3.16c-0.3-0.28-0.56-0.58-0.8-0.92c-0.32-0.5-0.26-3,0.08-5.58
		c0.04-0.2,0.06-0.42,0.1-0.64c0.66-2.98,3.82-3.54,6.44-3.56c5.52,0.04,11.26,2.9,11.62,4.62C81.91,192.4,81.86,193.24,81.7,194.22
		z M77.84,208.54c-1.5,9.5-2.28,10.12-12.14,9.56c-10.82-0.6-17.92-2.24-19.5-4.5c-0.28-0.42-0.34-0.82-0.2-1.32
		c0.32-1.04,3.34-9.86,12.94-9.86c0.36,0,0.74,0,1.12,0.04c1.08,0.06,2.04-0.3,2.76-1.04c0.36-0.38,0.66-0.82,0.9-1.34
		c2.84,2.22,7.1,3.06,10.72,3.06c0.2,0,0.4,0,0.6-0.02c0.7-0.02,2.32-0.1,3.8-0.48C78.53,204.38,78.2,206.32,77.84,208.54z"/>
	<path d="M75.77,194.92c-2.32,0-5.14-0.58-6.91-1.22c-1.72-0.63-2.67-1.41-2.9-2.39c-0.17-0.74,0.14-1.39,0.46-1.72
		c0.38-0.4,1.02-0.41,1.41-0.02c0.37,0.36,0.4,0.93,0.1,1.33c0.08,0.12,0.4,0.49,1.61,0.93c3.38,1.23,7.73,1.37,8.34,0.74
		c0.18-0.53,0.72-0.77,1.25-0.59c0.52,0.18,0.78,0.78,0.61,1.3c-0.12,0.34-0.41,0.83-1.12,1.17
		C77.91,194.78,76.9,194.92,75.77,194.92z M67.89,190.95c-0.01,0.01-0.02,0.02-0.03,0.03C67.87,190.97,67.88,190.96,67.89,190.95z"
		/>
</g>
<g>
	<g>
		<path style="fill:#FFFFFF;" d="M104.03,73.22c-2.94,13.42-16.26,21.98-29.68,19.06c-6.52-1.42-12.08-5.28-15.68-10.9
			c-3.6-5.6-4.8-12.26-3.38-18.78c1.42-6.5,5.28-12.08,10.88-15.68c4.08-2.6,8.7-3.96,13.44-3.96c1.78,0,3.56,0.2,5.34,0.58
			C98.38,46.46,106.95,59.78,104.03,73.22z"/>
		<path d="M102.65,53.12C98.7,46.98,92.6,42.74,85.46,41.2c-7.14-1.56-14.46-0.24-20.6,3.7c-6.14,3.96-10.38,10.06-11.92,17.2
			c-1.56,7.12-0.24,14.44,3.7,20.58c3.94,6.14,10.06,10.38,17.18,11.94c1.96,0.42,3.9,0.62,5.82,0.62
			c12.58,0,23.94-8.74,26.72-21.52C107.91,66.58,106.58,59.28,102.65,53.12z M104.03,73.22c-2.94,13.42-16.26,21.98-29.68,19.06
			c-6.52-1.42-12.08-5.28-15.68-10.9c-3.6-5.6-4.8-12.26-3.38-18.78c1.42-6.5,5.28-12.08,10.88-15.68c4.08-2.6,8.7-3.96,13.44-3.96
			c1.78,0,3.56,0.2,5.34,0.58C98.38,46.46,106.95,59.78,104.03,73.22z"/>
	</g>
	<circle style="fill:#FFBFBA;" cx="91.06" cy="70.39" r="8.52"/>
	
		<ellipse transform="matrix(0.2127 -0.9771 0.9771 0.2127 -14.2213 112.9393)" style="fill:#FFBFBA;" cx="62.97" cy="65.29" rx="8.52" ry="6.24"/>
</g>
<g>
	<g>
		<g>
			<path style="fill:#FFFFFF;" d="M129.7,147.58h-0.02c-0.8,2.18-2.4,3.92-4.5,4.88c-2.12,0.98-4.48,1.08-6.66,0.26
				c-2.18-0.8-3.9-2.4-4.88-4.5c-0.98-2.12-1.06-4.48-0.26-6.66c0.8-2.18,2.4-3.92,4.5-4.88c1.16-0.54,2.4-0.8,3.64-0.8
				c1.02,0,2.04,0.18,3.02,0.54c2.18,0.8,3.92,2.4,4.88,4.5C130.41,143.04,130.5,145.4,129.7,147.58z"/>
			<path d="M131.6,139.92c-1.24-2.7-3.46-4.74-6.24-5.76c-5.74-2.12-12.12,0.84-14.24,6.58s0.84,12.12,6.58,14.24
				c1.24,0.46,2.54,0.68,3.84,0.68c1.58,0,3.16-0.34,4.64-1.02c2.7-1.24,4.74-3.46,5.76-6.24
				C132.96,145.62,132.84,142.6,131.6,139.92z M129.7,147.58h-0.02c-0.8,2.18-2.4,3.92-4.5,4.88c-2.12,0.98-4.48,1.08-6.66,0.26
				c-2.18-0.8-3.9-2.4-4.88-4.5c-0.98-2.12-1.06-4.48-0.26-6.66c0.8-2.18,2.4-3.92,4.5-4.88c1.16-0.54,2.4-0.8,3.64-0.8
				c1.02,0,2.04,0.18,3.02,0.54c2.18,0.8,3.92,2.4,4.88,4.5C130.41,143.04,130.5,145.4,129.7,147.58z"/>
		</g>
		<g>
			<path style="fill:#FF2410;" d="M135.43,148.14c-2.32,2.22-6.02,4.36-10.36,2c-3.52-1.88-5.38-4.14-5.52-6.68
				c-0.26-4.22,4.04-8.46,6.3-10.38c0.12,0.54,0.28,0.86,0.3,0.9c0.22,0.5,0.8,0.72,1.3,0.5s0.74-0.8,0.52-1.3
				c-0.04-0.1-0.84-2,0.26-3.96c1.24-2.18,4.5-3.64,9.42-4.26c2.14-0.26,3.56,0.46,4.38,2.2
				C144.36,132.12,140.96,142.9,135.43,148.14z"/>
			<path d="M143.82,126.3c-1.18-2.5-3.46-3.68-6.42-3.32c-5.68,0.7-9.36,2.48-10.94,5.3c-0.46,0.8-0.68,1.62-0.76,2.36
				c-1.64,1.24-8.54,6.82-8.16,12.94c0.2,3.28,2.4,6.08,6.56,8.32c1.58,0.86,3.18,1.26,4.78,1.26c2.72,0,5.42-1.2,7.92-3.56
				C142.96,143.76,146.53,132,143.82,126.3z M125.07,150.14c-3.52-1.88-5.38-4.14-5.52-6.68c-0.26-4.22,4.04-8.46,6.3-10.38
				c0.12,0.54,0.28,0.86,0.3,0.9c0.22,0.5,0.8,0.72,1.3,0.5s0.74-0.8,0.52-1.3c-0.04-0.1-0.84-2,0.26-3.96
				c1.24-2.18,4.5-3.64,9.42-4.26c2.14-0.26,3.56,0.46,4.38,2.2c2.34,4.96-1.06,15.74-6.6,20.98
				C133.1,150.36,129.41,152.5,125.07,150.14z"/>
		</g>
	</g>
	<g>
		<g>
			<path style="fill:#FFFFFF;" d="M150.62,49.96L115.15,211.8c-0.14,0.66-0.82,1.08-1.48,0.96l-0.52-0.12
				c-0.34-0.06-0.62-0.26-0.82-0.54c-0.18-0.28-0.24-0.62-0.16-0.96l36.02-161.72c0.08-0.38,0.32-0.66,0.64-0.84
				c0.34-0.18,0.72-0.18,1.06-0.04C150.45,48.78,150.76,49.38,150.62,49.96z"/>
			<path d="M150.82,46.32c-1-0.42-2.12-0.38-3.1,0.12c-0.96,0.5-1.64,1.4-1.88,2.46l-36.02,161.72c-0.22,0.96-0.04,1.96,0.5,2.78
				c0.54,0.84,1.36,1.4,2.34,1.6l0.54,0.1c0.24,0.06,0.48,0.08,0.7,0.08c1.68,0,3.22-1.18,3.58-2.88l35.5-161.82
				C153.36,48.76,152.45,47,150.82,46.32z M113.67,212.76l-0.52-0.12c-0.34-0.06-0.62-0.26-0.82-0.54
				c-0.18-0.28-0.24-0.62-0.16-0.96l36.02-161.72c0.08-0.38,0.32-0.66,0.64-0.84c0.34-0.18,0.72-0.18,1.06-0.04
				c0.56,0.24,0.88,0.84,0.74,1.42L115.15,211.8C115,212.46,114.32,212.88,113.67,212.76z"/>
		</g>
		<g>
			<path style="fill:#E0B955;" d="M152.5,69.6c-0.34,2.54-5.78,6.2-9.76,8.3c-0.34-0.7-0.68-1.4-1-2.06
				c-3.44-7.04-4.46-9.62-2.22-10.96c0.28-0.18,0.52-0.24,0.7-0.24c0.16,0,0.28,0.04,0.38,0.08c1.34,0.54,2.66,3.58,3.16,5.58
				c0.12,0.46,0.52,0.82,1,0.88c0.46,0.08,0.94-0.16,1.2-0.58c1.86-3.16,4-4.14,5.28-3.68C152.19,67.24,152.69,68.3,152.5,69.6z"/>
			<path d="M152.05,64.64c-1.78-0.6-4.34-0.12-6.74,2.72c-0.72-1.82-1.96-4.12-3.78-4.86c-0.74-0.3-1.9-0.5-3.24,0.32
				c-4.32,2.6-1.96,7.42,1.32,14.08c0.48,0.98,0.98,2.04,1.52,3.14c0.14,0.3,0.38,0.52,0.68,0.62c0.14,0.04,0.26,0.06,0.4,0.06
				c0.18,0,0.36-0.04,0.52-0.12c1.18-0.56,11.5-5.72,12.16-10.68C155.2,67.46,154.07,65.34,152.05,64.64z M142.74,77.9
				c-0.34-0.7-0.68-1.4-1-2.06c-3.44-7.04-4.46-9.62-2.22-10.96c0.28-0.18,0.52-0.24,0.7-0.24c0.16,0,0.28,0.04,0.38,0.08
				c1.34,0.54,2.66,3.58,3.16,5.58c0.12,0.46,0.52,0.82,1,0.88c0.46,0.08,0.94-0.16,1.2-0.58c1.86-3.16,4-4.14,5.28-3.68
				c0.94,0.32,1.44,1.38,1.26,2.68C152.17,72.14,146.72,75.8,142.74,77.9z"/>
		</g>
		<g>
			<path style="fill:#FF2410;" d="M156.93,59.02c-1.08,0.76-1.74,0.62-2.14,0.46c-2.26-0.94-3.96-6.62-4.5-9.98
				c-0.06-0.44-0.4-0.76-0.82-0.84c-0.06,0-0.1-0.02-0.16-0.02c-0.36,0-0.7,0.2-0.88,0.52c-3.54,6.4-7.06,7.86-8.98,7.18
				c-1.68-0.58-2.5-2.84-2.02-5.6c1.04-6.18,15.86-30.16,20.8-38.04c0.16,1.9,0.32,3.76,0.46,5.58
				C160.55,40.72,161.76,55.54,156.93,59.02z"/>
			<path d="M160.69,18.12c-0.22-2.74-0.46-5.6-0.7-8.58c-0.04-0.42-0.34-0.78-0.76-0.88c-0.42-0.12-0.84,0.06-1.08,0.42
				c-0.88,1.36-21.36,33.54-22.7,41.34c-0.64,3.74,0.7,6.9,3.32,7.82c2.52,0.86,6.34-0.32,10.06-5.9c0.76,3.04,2.34,7.8,5.18,8.98
				c0.38,0.16,0.86,0.28,1.4,0.28c0.76,0,1.68-0.24,2.68-0.96C163.84,56.5,162.67,42.06,160.69,18.12z M154.79,59.48
				c-2.26-0.94-3.96-6.62-4.5-9.98c-0.06-0.44-0.4-0.76-0.82-0.84c-0.06,0-0.1-0.02-0.16-0.02c-0.36,0-0.7,0.2-0.88,0.52
				c-3.54,6.4-7.06,7.86-8.98,7.18c-1.68-0.58-2.5-2.84-2.02-5.6c1.04-6.18,15.86-30.16,20.8-38.04c0.16,1.9,0.32,3.76,0.46,5.58
				c1.86,22.44,3.08,37.26-1.76,40.74C155.84,59.78,155.19,59.64,154.79,59.48z"/>
		</g>
		<g>
			<path style="fill:#FFFFFF;" d="M144.22,81.16c-0.18,0.46-0.5,0.82-0.94,1.02c-0.44,0.2-0.94,0.22-1.38,0.06
				c-0.94-0.36-1.42-1.4-1.08-2.32c0.16-0.46,0.5-0.82,0.94-1.02c0.24-0.1,0.5-0.16,0.76-0.16c0.2,0,0.42,0.04,0.62,0.1
				c0.46,0.18,0.82,0.5,1.02,0.94C144.36,80.22,144.38,80.72,144.22,81.16z"/>
			<path d="M146.34,78.78c-0.48-1.02-1.32-1.8-2.38-2.18c-1.04-0.4-2.18-0.34-3.2,0.12c-1.02,0.48-1.8,1.32-2.2,2.36
				c-0.78,2.18,0.32,4.6,2.5,5.4c0.48,0.18,0.96,0.26,1.46,0.26c0.6,0,1.2-0.12,1.76-0.38c1.02-0.48,1.8-1.32,2.18-2.36
				C146.84,80.94,146.81,79.8,146.34,78.78z M141.91,82.24c-0.94-0.36-1.42-1.4-1.08-2.32c0.16-0.46,0.5-0.82,0.94-1.02
				c0.24-0.1,0.5-0.16,0.76-0.16c0.2,0,0.42,0.04,0.62,0.1c0.46,0.18,0.82,0.5,1.02,0.94c0.2,0.44,0.22,0.94,0.06,1.38
				c-0.18,0.46-0.5,0.82-0.94,1.02C142.84,82.38,142.34,82.4,141.91,82.24z"/>
		</g>
		<g>
			<path style="fill:#FFFFFF;" d="M148.07,63.8c0,0.2-0.04,0.42-0.12,0.62c-0.16,0.46-0.5,0.82-0.94,1.02
				c-0.44,0.2-0.92,0.22-1.38,0.04c-0.44-0.16-0.8-0.48-1-0.92c-0.2-0.44-0.22-0.94-0.06-1.38c0.16-0.46,0.5-0.82,0.94-1.02
				c0.24-0.12,0.5-0.16,0.74-0.16c0.22,0,0.44,0.02,0.64,0.1c0.44,0.18,0.8,0.5,1,0.94C148,63.28,148.07,63.54,148.07,63.8z"/>
			<path d="M150.07,62.04c-0.46-1.02-1.3-1.8-2.36-2.18c-1.04-0.4-2.2-0.36-3.22,0.12s-1.78,1.32-2.18,2.36
				c-0.38,1.06-0.34,2.2,0.14,3.22c0.46,1.02,1.3,1.8,2.36,2.18c0.48,0.18,0.96,0.26,1.46,0.26c0.6,0,1.2-0.12,1.76-0.38
				c1.02-0.48,1.78-1.32,2.18-2.38C150.58,64.2,150.55,63.06,150.07,62.04z M145.62,65.48c-0.44-0.16-0.8-0.48-1-0.92
				c-0.2-0.44-0.22-0.94-0.06-1.38c0.16-0.46,0.5-0.82,0.94-1.02c0.24-0.12,0.5-0.16,0.74-0.16c0.22,0,0.44,0.02,0.64,0.1
				c0.44,0.18,0.8,0.5,1,0.94c0.12,0.24,0.18,0.5,0.18,0.76c0,0.2-0.04,0.42-0.12,0.62c-0.16,0.46-0.5,0.82-0.94,1.02
				C146.57,65.64,146.08,65.66,145.62,65.48z"/>
		</g>
	</g>
	<g>
		<path style="fill:#FF2410;" d="M137.38,124.96l-2.8,21.24c-0.04-0.02-0.08-0.02-0.12-0.02c-2.78-0.08-4.82-1.04-6.08-2.9
			c-2.38-3.5-1.76-9.66-0.08-14.2c2.08-5.64,8.72-4.2,9-4.12C137.32,124.96,137.36,124.98,137.38,124.96z"/>
		<path d="M138.5,124.2c-0.12,0.52-0.6,0.84-1.12,0.76c-0.02,0.02-0.06,0-0.08,0c-0.28-0.08-6.92-1.52-9,4.12
			c-1.68,4.54-2.3,10.7,0.08,14.2c1.26,1.86,3.3,2.82,6.08,2.9c0.04,0,0.08,0,0.12,0.02c0.5,0.06,0.88,0.5,0.86,1
			c-0.02,0.54-0.46,0.98-1,0.98h-0.02c-3.46-0.08-6.06-1.36-7.7-3.78c-2.96-4.36-2-11.36-0.28-16.02c2.14-5.84,8.34-6.06,11.32-5.38
			C138.31,123.12,138.62,123.66,138.5,124.2z"/>
	</g>
</g>
<g>
	<path style="fill:#D21E0F;" d="M74.8,71.53c0,0-1.69-5.23-4.02-3.61c-2.33,1.63-0.15,4.58,2.7,9.68c0,0,6.61-3.76,6.8-6.58
		C80.47,68.21,77.05,67.1,74.8,71.53z"/>
	<path d="M71.85,62.71c-0.22,0-0.44-0.02-0.66-0.07c-1.66-0.36-2.72-2.01-2.36-3.67c0.36-1.66,2-2.72,3.67-2.36
		c0.8,0.18,1.49,0.65,1.94,1.35c0.45,0.69,0.59,1.52,0.42,2.32l0,0c-0.17,0.81-0.65,1.49-1.35,1.94
		C73.01,62.54,72.44,62.71,71.85,62.71z M71.84,58.54c-0.5,0-0.95,0.35-1.06,0.86c-0.13,0.58,0.25,1.16,0.83,1.29
		c0.29,0.07,0.58,0.01,0.82-0.15c0.24-0.16,0.41-0.4,0.47-0.68v0c0.06-0.28,0.01-0.57-0.15-0.82c-0.16-0.24-0.4-0.41-0.68-0.47
		C72,58.55,71.92,58.54,71.84,58.54z"/>
	<path d="M83,65.14c-0.22,0-0.44-0.02-0.66-0.07c-1.66-0.36-2.72-2.01-2.36-3.67c0.36-1.66,2-2.72,3.67-2.36
		c0.8,0.18,1.49,0.65,1.94,1.35s0.59,1.52,0.42,2.32l0,0c-0.17,0.81-0.65,1.5-1.35,1.94C84.16,64.97,83.58,65.14,83,65.14z
		 M82.99,60.97c-0.5,0-0.95,0.35-1.06,0.86c-0.13,0.58,0.25,1.16,0.83,1.29c0.28,0.06,0.57,0.01,0.82-0.15
		c0.24-0.16,0.41-0.4,0.47-0.68v0c0.06-0.28,0.01-0.57-0.15-0.82c-0.16-0.24-0.4-0.41-0.68-0.47
		C83.14,60.97,83.07,60.97,82.99,60.97z"/>
	<g>
		<path d="M80.06,74.65c-0.05,0-0.11,0-0.16-0.01l-10.58-1.68c-0.54-0.09-0.92-0.6-0.83-1.14c0.09-0.55,0.61-0.93,1.14-0.83
			l10.58,1.68c0.54,0.09,0.92,0.6,0.83,1.14C80.97,74.3,80.54,74.65,80.06,74.65z"/>
	</g>
</g>
<g>
	<path style="fill:#FFFFFF;" d="M98.54,56.11c-0.58,0.2-1.11,0.47-1.61,0.79c-2.76-6.07-8.95-11.52-12.34-14.2
		c3.48,0,9.44,0.38,13.21,2.84c6.63,4.3,9.47,8.9,10.66,12.31l-3.63-1.26c0.05-0.23,0.03-0.5-0.1-0.74l-3.58-6.36
		c-0.28-0.49-0.87-0.66-1.37-0.39c-0.47,0.26-0.65,0.88-0.38,1.35l3.07,5.49c-0.61-0.18-1.28-0.24-1.94-0.21
		c-1.19-2.84-5.62-8.1-6.14-8.73c-0.36-0.41-1-0.47-1.41-0.11c-0.43,0.35-0.48,0.98-0.13,1.4C94.15,49.81,97.41,53.85,98.54,56.11z"
		/>
	<path d="M115.7,74.93c0.27-2.6-1.34-4.94-3.7-5.53c1.84-0.39,3.41-1.8,3.98-3.74c0.82-2.66-0.53-5.43-3.06-6.3l-2.15-0.74
		c-1.01-3.91-3.9-9.6-11.89-14.77c-6.13-3.98-16.8-3.08-17.26-3.04c-0.42,0.03-0.77,0.34-0.88,0.74s0.06,0.83,0.42,1.07
		c0.14,0.09,10.96,7.65,14.21,15.74c-0.18,0.25-0.36,0.49-0.49,0.75c-0.92,1.57-1.17,3.4-0.7,5.16c0.47,1.76,1.59,3.24,3.17,4.14
		c0.03,0.03,0.05,0.03,0.09,0.04c-0.07,0.05-0.16,0.07-0.23,0.11c-1.65,0.78-2.87,2.16-3.48,3.89c-0.6,1.71-0.49,3.57,0.3,5.2
		c0.8,1.65,2.18,2.88,3.89,3.48c0.26,0.1,0.52,0.16,0.79,0.22c1.34,0.3,2.74,0.18,4.04-0.33l8.51-1.3
		C113.61,79.38,115.44,77.41,115.7,74.93z M110.14,60.51l1.08,0.38l1.07,0.36c1.5,0.52,2.29,2.21,1.78,3.85
		c-0.43,1.48-1.82,2.5-3.27,2.46l-5.21-0.22c0.42-0.4,0.79-0.87,1.09-1.39c0.17-0.29,0.32-0.6,0.45-0.9
		c0.04-0.09,0.06-0.19,0.1-0.28c0.2-0.61,0.32-1.24,0.35-1.86c0.03-0.71-0.04-1.4-0.22-2.12c-0.13-0.5-0.32-0.97-0.55-1.41
		l2.26,0.77L110.14,60.51z M84.59,42.7c3.48,0,9.44,0.38,13.21,2.84c6.63,4.3,9.47,8.9,10.66,12.31l-3.63-1.26
		c0.05-0.23,0.03-0.5-0.1-0.74l-3.58-6.36c-0.28-0.49-0.87-0.66-1.37-0.39c-0.47,0.26-0.65,0.88-0.38,1.35l3.07,5.49
		c-0.61-0.18-1.28-0.24-1.94-0.21c-1.19-2.84-5.62-8.1-6.14-8.73c-0.36-0.41-1-0.47-1.41-0.11c-0.43,0.35-0.48,0.98-0.13,1.4
		c1.28,1.51,4.53,5.55,5.67,7.8c-0.58,0.2-1.11,0.47-1.61,0.79C94.17,50.82,87.98,45.37,84.59,42.7z M97.89,66.37
		c-0.79-0.57-1.37-1.37-1.69-2.32c-0.02-0.09-0.06-0.2-0.08-0.28c-0.23-0.89-0.21-1.81,0.08-2.64c0.08-0.35,0.23-0.68,0.41-1.01
		c0.17-0.29,0.37-0.57,0.59-0.81c0.16-0.17,0.32-0.32,0.49-0.46c0.53-0.45,1.16-0.79,1.85-0.96c0.76-0.2,1.54-0.23,2.28-0.06
		c0.06,0.01,0.14,0.03,0.19,0.06c0.39,0.09,0.78,0.26,1.14,0.48c0.02,0,0.02,0,0.04,0.01c0.22,0.13,0.41,0.26,0.61,0.4
		c0.8,0.65,1.38,1.51,1.65,2.53c0.17,0.69,0.21,1.38,0.08,2.04c0,0.08-0.01,0.14-0.03,0.22c-0.11,0.49-0.29,0.96-0.55,1.39
		c-0.07,0.13-0.13,0.24-0.22,0.34c0,0.02,0,0.02,0,0.02c-0.08,0.1-0.17,0.21-0.25,0.29c-0.66,0.84-1.6,1.38-2.59,1.61
		c-0.46,0.12-0.94,0.16-1.42,0.13c-0.42-0.03-0.85-0.13-1.25-0.28c-0.19-0.06-0.38-0.13-0.56-0.23c-0.11-0.05-0.21-0.09-0.29-0.15
		l-0.02,0C98.17,66.6,98.03,66.5,97.89,66.37z M104.73,76.3c-0.43,1.21-1.31,2.2-2.46,2.77c-0.04,0.01-0.07,0.03-0.11,0.04
		c-0.02,0.02-0.04,0.01-0.07,0.03c-0.18,0.08-0.36,0.14-0.54,0.21c-0.22,0.05-0.45,0.1-0.66,0.14c-0.3,0.06-0.59,0.07-0.87,0.07
		c-0.18-0.02-0.34-0.03-0.52-0.05c-0.3-0.05-0.61-0.11-0.91-0.22c-1.21-0.43-2.18-1.3-2.75-2.45c-0.56-1.17-0.64-2.47-0.22-3.69
		c0.43-1.21,1.31-2.2,2.48-2.76c0.25-0.11,0.5-0.22,0.76-0.28c0.22-0.05,0.43-0.11,0.66-0.14c0.06-0.01,0.13-0.01,0.21-0.02
		c0.13-0.01,0.27-0.02,0.41-0.01c0.13-0.01,0.25-0.01,0.37,0c0.24,0.01,0.48,0.05,0.71,0.1l0.27,0.06c0.1,0.02,0.19,0.04,0.29,0.08
		c0.21,0.07,0.43,0.18,0.63,0.28c0.02,0,0.02,0,0.04,0.01l0.02,0c0.18,0.1,0.36,0.22,0.54,0.34c0.05,0.03,0.1,0.08,0.16,0.12
		c0.15,0.14,0.31,0.27,0.46,0.43c0.03,0.03,0.07,0.06,0.1,0.1c0.15,0.16,0.29,0.33,0.42,0.52c0.14,0.19,0.27,0.43,0.39,0.66
		C105.08,73.78,105.14,75.08,104.73,76.3z M110.94,77.76l-5.14,0.78c0.33-0.48,0.61-1.01,0.8-1.58c0.6-1.71,0.51-3.57-0.3-5.2
		c-0.23-0.46-0.48-0.88-0.78-1.28l5.71,0.82c1.57,0.21,2.67,1.72,2.49,3.44C113.55,76.27,112.38,77.55,110.94,77.76z"/>
	<g>
		<path style="fill:#FFFFFF;" d="M113.72,74.74c-0.18,1.54-1.34,2.81-2.78,3.02l-5.14,0.78c0.33-0.48,0.61-1.01,0.8-1.58
			c0.6-1.71,0.51-3.57-0.3-5.2c-0.23-0.46-0.48-0.88-0.78-1.28l5.71,0.82C112.81,71.51,113.9,73.02,113.72,74.74z"/>
		<path style="fill:#FFFFFF;" d="M104.73,76.3c-0.43,1.21-1.31,2.2-2.46,2.77c-0.04,0.01-0.07,0.03-0.11,0.04
			c-0.02,0.02-0.04,0.01-0.07,0.03c-0.19,0.1-0.36,0.16-0.54,0.21c-0.22,0.05-0.45,0.1-0.66,0.14c-0.13,0.01-0.27,0.02-0.4,0.03
			c-0.17,0.02-0.31,0.03-0.48,0.04c-0.18-0.02-0.34-0.03-0.52-0.05c-0.3-0.05-0.61-0.11-0.91-0.22c-1.21-0.43-2.18-1.3-2.75-2.45
			c-0.56-1.17-0.64-2.47-0.22-3.69c0.43-1.21,1.31-2.2,2.48-2.76c0.25-0.11,0.5-0.22,0.76-0.28c0.22-0.05,0.43-0.11,0.66-0.14
			c0.06-0.01,0.13-0.01,0.21-0.02c0.15-0.03,0.27-0.02,0.41-0.01c0.13-0.01,0.25-0.01,0.37,0c0.24,0.01,0.48,0.05,0.71,0.1
			l0.27,0.06c0.1,0.02,0.19,0.04,0.29,0.08c0.21,0.09,0.43,0.18,0.63,0.28c0.02,0,0.02,0,0.04,0.01l0.02,0
			c0.18,0.1,0.36,0.22,0.54,0.34c0.05,0.03,0.1,0.08,0.16,0.12c0.15,0.14,0.31,0.27,0.46,0.43c0.03,0.03,0.07,0.06,0.1,0.1
			c0.15,0.16,0.29,0.33,0.42,0.52c0.14,0.19,0.27,0.43,0.39,0.66C105.08,73.78,105.14,75.08,104.73,76.3z"/>
		<path d="M100.49,79.51c0.13-0.01,0.27-0.02,0.4-0.03c-0.3,0.06-0.59,0.07-0.87,0.07C100.18,79.54,100.33,79.53,100.49,79.51z"/>
		<path style="fill:#383838;" d="M100.32,73.97c0.03,0.01,0.07,0.02,0.1,0.03c0.21,0.07,0.39,0.23,0.48,0.43
			c0.1,0.2,0.11,0.43,0.04,0.65c-0.14,0.41-0.56,0.64-0.98,0.55c-0.03-0.01-0.07-0.02-0.1-0.03c-0.21-0.07-0.39-0.23-0.48-0.43
			c-0.1-0.2-0.11-0.43-0.04-0.65C99.48,74.12,99.9,73.88,100.32,73.97L100.32,73.97z M100.65,72.51c-1.14-0.25-2.32,0.38-2.72,1.52
			c-0.43,1.22,0.22,2.56,1.44,2.99c0.09,0.03,0.18,0.06,0.27,0.08c1.14,0.25,2.32-0.38,2.72-1.52c0.43-1.22-0.22-2.56-1.44-2.99
			C100.83,72.56,100.74,72.53,100.65,72.51L100.65,72.51z"/>
	</g>
	<path style="fill:#FFFFFF;" d="M114.07,65.1c-0.43,1.48-1.82,2.5-3.27,2.46l-5.21-0.22c0.42-0.4,0.79-0.87,1.09-1.39
		c0.17-0.29,0.32-0.6,0.45-0.9c0.04-0.09,0.06-0.19,0.1-0.28c0.2-0.61,0.32-1.24,0.35-1.86c0.03-0.71-0.04-1.4-0.22-2.12
		c-0.13-0.5-0.32-0.97-0.55-1.41l2.26,0.77l1.07,0.36l1.08,0.38l1.07,0.36C113.79,61.77,114.58,63.46,114.07,65.1z"/>
	<path style="fill:#FFFFFF;" d="M105.49,63.56c-0.11,0.49-0.29,0.96-0.55,1.39c-0.07,0.13-0.13,0.24-0.22,0.34c0,0.02,0,0.02,0,0.02
		c-0.08,0.1-0.17,0.21-0.25,0.29c-0.66,0.84-1.6,1.38-2.59,1.61c-0.46,0.12-0.94,0.16-1.42,0.13c-0.42-0.03-0.85-0.13-1.25-0.28
		c-0.19-0.06-0.38-0.13-0.56-0.23c-0.11-0.05-0.21-0.09-0.29-0.15l-0.02,0c-0.16-0.1-0.31-0.19-0.44-0.32
		c-0.79-0.57-1.37-1.37-1.69-2.32c-0.02-0.09-0.06-0.2-0.08-0.28c-0.23-0.89-0.21-1.81,0.08-2.64c0.08-0.35,0.23-0.68,0.41-1.01
		c0.17-0.29,0.37-0.57,0.59-0.81c0.16-0.17,0.32-0.32,0.49-0.46c0.53-0.45,1.16-0.79,1.85-0.96c0.76-0.2,1.54-0.23,2.28-0.06
		c0.06,0.01,0.14,0.03,0.19,0.06c0.39,0.09,0.78,0.26,1.14,0.48c0.02,0,0.02,0,0.04,0.01c0.22,0.13,0.41,0.26,0.61,0.4
		c0.8,0.65,1.38,1.51,1.65,2.53c0.17,0.69,0.21,1.38,0.08,2.04C105.52,63.43,105.51,63.48,105.49,63.56z"/>
	<g>
		<circle style="fill:#383838;" cx="100.73" cy="62.62" r="2.35"/>
	</g>
</g>
</svg>
