<?xml version="1.0" encoding="utf-8"?>
<!-- Generator: Adobe Illustrator 26.5.0, SVG Export Plug-In . SVG Version: 6.00 Build 0)  -->
<svg version="1.1" id="레이어_1" xmlns="http://www.w3.org/2000/svg" xmlns:xlink="http://www.w3.org/1999/xlink" x="0px"
	 y="0px" viewBox="0 0 172 218" style="enable-background:new 0 0 172 218;" xml:space="preserve">
<g>
	<g>
		<rect x="10.1" y="62.2" style="fill:#616161;" width="151.8" height="126.9"/>
		<path d="M161.9,190.4H10.1c-0.7,0-1.2-0.5-1.2-1.2v-127c0-0.7,0.5-1.2,1.2-1.2h151.8c0.7,0,1.2,0.5,1.2,1.2v127
			C163.1,189.9,162.6,190.4,161.9,190.4z M11.3,188h149.4V63.4H11.3V188z"/>
	</g>
	<g>
		<rect x="10.1" y="69.6" style="fill:#DA0000;" width="151.8" height="112.3"/>
		<path d="M161.9,183.1H10.1c-0.7,0-1.2-0.5-1.2-1.2V69.6c0-0.7,0.5-1.2,1.2-1.2h151.8c0.7,0,1.2,0.5,1.2,1.2v112.3
			C163.1,182.5,162.6,183.1,161.9,183.1z M11.3,180.6h149.4V70.8H11.3V180.6z"/>
	</g>
	<g>
		<path style="fill:#616161;" d="M157.2,216.8H15.3c-7.8,0-14.1-6.3-14.1-14.1v-11.6c0-1.1,0.9-1.9,1.9-1.9h165.8
			c1.1,0,1.9,0.9,1.9,1.9v12.2C170.8,210.7,164.7,216.8,157.2,216.8z"/>
		<path d="M156.1,218H15.9C7.1,218,0,210.9,0,202.1V193c0-2.8,2.3-5.1,5.1-5.1H167c2.8,0,5.1,2.3,5.1,5.1v9.1
			C172,210.9,164.9,218,156.1,218z M5.1,190.4c-1.5,0-2.6,1.2-2.6,2.6v9.1c0,7.4,6,13.4,13.5,13.4h140.2c7.4,0,13.4-6,13.4-13.4V193
			c0-1.5-1.2-2.6-2.6-2.6H5.1z"/>
	</g>
	<g>
		<path style="fill:#616161;" d="M16.4,34.6h140.2c7.9,0,14.2,6.4,14.2,14.2v7.5c0,3.2-2.6,5.8-5.8,5.8H7c-3.2,0-5.8-2.6-5.8-5.8
			v-6.6C1.2,41.4,8,34.6,16.4,34.6z"/>
		<path d="M166.9,63.4H5.1c-2.8,0-5.1-2.3-5.1-5.1v-9.1c0-8.7,7.1-15.9,15.9-15.9h140.2c8.8,0,15.9,7.1,15.9,15.9v9.1
			C172,61.2,169.7,63.4,166.9,63.4z M15.9,35.8c-7.4,0-13.5,6-13.5,13.4v9.1c0,1.5,1.2,2.6,2.6,2.6h161.9c1.5,0,2.6-1.2,2.6-2.6
			v-9.1c0-7.4-6-13.4-13.4-13.4C156.1,35.8,15.9,35.8,15.9,35.8z"/>
	</g>
	<g>
		<rect x="35.6" y="10.4" style="fill:#4A4A4A;" width="100.8" height="24.2"/>
		<path d="M136.4,35.8H35.6c-0.7,0-1.2-0.5-1.2-1.2V10.4c0-0.7,0.5-1.2,1.2-1.2h100.8c0.7,0,1.2,0.5,1.2,1.2v24.2
			C137.6,35.3,137.1,35.8,136.4,35.8z M36.8,33.4h98.4V11.6H36.8V33.4z"/>
	</g>
	<g>
		<path style="fill:#ECECEC;" d="M138.6,1.2H33.4c-1.5,0-2.7,1.2-2.7,2.7v21.5h110.6V3.9C141.3,2.4,140.1,1.2,138.6,1.2z"/>
		<path d="M141.3,26.7H30.7c-0.7,0-1.2-0.5-1.2-1.2V6.7c0-3.7,3-6.7,6.7-6.7h99.7c3.7,0,6.7,3,6.7,6.7v18.8
			C142.5,26.1,142,26.7,141.3,26.7z M31.9,24.2h108.2V6.7c0-2.3-1.9-4.3-4.3-4.3H36.2c-2.4,0-4.3,1.9-4.3,4.3
			C31.9,6.7,31.9,24.2,31.9,24.2z"/>
	</g>
	<rect x="48.5" y="77.6" style="fill:#F00000;" width="46.7" height="97.5"/>
	<g>
		<path style="fill:#FFFFFF;" d="M33.3,84.1c5.2,0,7.5,2.7,7.5,6.2v0.4c0,3.5-2.4,6.5-7.5,6.5H29v6.8c0,1.1-0.9,1.7-1.9,1.7
			s-1.9-0.5-1.9-1.7V86.6c0-1.9,0.6-2.5,2.6-2.5H33.3z M29,94h3.8c2.5,0,4.1-0.8,4.1-3.3v-0.3c0-2.4-1.5-3-3.7-3H29V94z"/>
		<path style="fill:#FFFFFF;" d="M52.5,84.1c4.5,0,7.1,2.4,7.1,6.2v0.5c0,2.8-1.4,4.6-3.7,5.5l3.8,6.7c0.5,1,0.2,2-0.8,2.4
			c-0.9,0.4-2,0.4-2.5-0.6L52.3,97c-0.2,0-0.5,0-0.7,0h-3.5v7.1c0,1.1-0.9,1.7-1.9,1.7s-1.9-0.5-1.9-1.7V86.6c0-1.9,0.6-2.5,2.6-2.5
			H52.5z M48.1,93.8h3.5c2.9,0,4.1-1,4.1-3v-0.4c0-2-1.1-3-3.7-3h-3.9C48.1,87.4,48.1,93.8,48.1,93.8z"/>
		<path style="fill:#FFFFFF;" d="M81.9,94.2v1.2c0,7.3-3.4,10.4-9.2,10.4c-5.9,0-9.2-3.1-9.2-10.4v-1.2c0-7.3,3.4-10.4,9.2-10.4
			C78.5,83.8,81.9,86.9,81.9,94.2z M67.3,94.5v0.6c0,5.5,1.8,7.2,5.3,7.2s5.3-1.7,5.3-7.2v-0.6c0-5.5-1.8-7.2-5.3-7.2
			C69.1,87.3,67.3,89.1,67.3,94.5z"/>
		<path style="fill:#FFFFFF;" d="M99,84.1c0.9,0,1.4,0.8,1.4,1.6c0,0.9-0.4,1.6-1.4,1.6h-5.2V104c0,1.1-0.9,1.7-1.9,1.7
			S90,105.2,90,104V87.4h-5.2c-0.9,0-1.4-0.8-1.4-1.6c0-0.9,0.4-1.6,1.4-1.6H99V84.1z"/>
		<path style="fill:#FFFFFF;" d="M115.8,84.1c0.9,0,1.3,0.7,1.3,1.6c0,0.8-0.4,1.6-1.3,1.6h-9V93h8.4c0.9,0,1.3,0.7,1.3,1.6
			s-0.4,1.6-1.3,1.6h-8.4v6.2h9.2c0.9,0,1.3,0.8,1.3,1.6c0,0.9-0.4,1.6-1.3,1.6h-10.5c-1.9,0-2.6-0.6-2.6-2.5V86.6
			c0-1.9,0.6-2.5,2.6-2.5H115.8z"/>
		<path style="fill:#FFFFFF;" d="M125.2,85.6v18.5c0,1.1-0.9,1.7-1.9,1.7s-1.9-0.5-1.9-1.7V85.6c0-1.1,0.9-1.7,1.9-1.7
			C124.3,83.9,125.2,84.5,125.2,85.6z"/>
		<path style="fill:#FFFFFF;" d="M146.9,85.5v17.6c0,1.9-0.6,2.5-2.6,2.5c-1.5,0-2.1-0.3-3.6-3L135,92.4c-0.6-1.1-1.1-2.1-1.4-3.5
			v15.3c0,1.1-0.9,1.6-1.8,1.6c-0.9,0-1.8-0.5-1.8-1.6V86.6c0-1.9,0.6-2.5,2.6-2.5c1.5,0,2.1,0.3,3.6,3l5.7,10.2
			c0.6,1.1,1.1,2.1,1.4,3.5V85.5c0-1.1,0.9-1.6,1.8-1.6S146.9,84.4,146.9,85.5z"/>
	</g>
	<g>
		<path style="fill:#FFF600;" d="M113.4,146.7c-0.1,0.1-0.1,0.1-0.2,0.2c-1.9,1.7-4.4,2.8-6.6,4.1c-0.7,0.4-1.3,0.8-2,1
			c-1.4,0.5-2.9,0.5-4.4,0.4c-0.9,3.4-2.4,6.4-3.7,9.7c-1,2.6-1.8,4.6-4.5,6c-3,1.5-6.5,0.9-9.7-0.1c-1.2-0.3-2.3-0.7-3.3-1.4
			c-1.1-0.8-1.8-1.9-2.5-3c-1.8-2.9-3-6.9-4-10.2c-4.3-1.7-9.5-1.1-13.3-3.9c-0.9-0.7-1.7-1.6-2.5-2.5s-1.7-2.7-1.5-3.9
			c1.1-7.1,2.4-14.9,7.3-20.1c0.7-0.8,1.5-1.6,2.3-2.3c0.2-0.2,0.5-0.5,0.8-0.6c0.4-0.2,0.9-0.3,1.3-0.3c1.8,0,3.6,0.9,4.5,2.4
			c1,1.5,1.2,3.5,0.4,5.1c-0.1,0.2-0.2,0.4-0.4,0.6c-0.4,0.4-1.1,0.2-1.6-0.1c-1.2-0.5-2.7-1.4-3.8-2.1c1.8,1.3,0.6,5.3,0.6,7.1
			c0,2.9-0.7,5.4-2,7.9c2.6-0.9,4.6,0.9,6.2,2.9c1.1-1.9,3.6-2.9,5.7-2.3c1.5,0.4,2.8,1.6,4.3,2c0.3,0.1,0.5,0.1,0.8,0.1
			c1-0.2,1.4-2.6,1-3.5c-5.3-4.1-4.2-16.1,4.6-12.6c1.6,0.6,2.7,2,3.5,3.5c0.6,1,1,2.2,1,3.4c-0.1,2.1-1.6,3.7-3.1,5.2
			c-0.1,0.1-0.2,0.2-0.4,0.3c-0.2,0-0.3-0.2-0.2-0.3c0,0.6,0.6,1.9,0.6,2.5c0,0.1,0,0.3,0.1,0.4c0.1,0.2,0.5,0.3,0.7,0.2
			c0.3-0.1,0.5-0.3,0.7-0.4c2.7-2.1,6.8-2.4,9.7-0.5c-0.1-0.5,0.5-1,1-1.1c2.4-0.8,5-0.9,7.4-0.2c-0.6-1.5-1.5-2.6-2.2-3.9
			c-1.5-2.9-1.3-6.4-1-9.6c-1.1,0.3-2.4-0.1-3.6,0c-0.9,0.1-2,0-2.5-0.7c-0.4-0.5-0.5-1.2-0.4-1.8c0.1-1.6,0.6-3.1,1.8-4.2
			c1.1-1.1,2.8-1.6,4.3-1.2c0.8,0.2,1.3,1,1.7,1.7c1.4,2.9,3.7,5.4,5.4,8c2.4,3.6,4.7,7.5,5.3,11.9
			C117.2,142.2,114.9,145.4,113.4,146.7z"/>
		<path d="M87.9,170.1c-2.1,0-4.2-0.5-6-1c-1.2-0.4-2.5-0.8-3.7-1.6c-1.2-0.9-2.1-2.1-2.8-3.3c-1.8-2.9-3-6.8-4-9.9
			c-1.5-0.5-3-0.8-4.7-1c-2.9-0.5-5.9-1-8.3-2.8c-1.1-0.8-1.9-1.8-2.7-2.7c-0.9-1-2.1-3.2-1.8-4.9c1.1-7.1,2.4-15.2,7.6-20.7
			c0.8-0.8,1.5-1.6,2.4-2.4c0.3-0.3,0.6-0.6,1.1-0.8c0.5-0.3,1.2-0.4,1.9-0.4c2.2-0.1,4.4,1.1,5.6,2.9s1.4,4.2,0.5,6.3
			c-0.1,0.3-0.3,0.7-0.7,1c-0.7,0.6-1.7,0.6-2.9,0.1c-0.3-0.1-0.7-0.3-1.1-0.5c0,1-0.1,1.9-0.2,2.8c-0.1,0.6-0.2,1.2-0.2,1.6
			c0,2.2-0.4,4.4-1.2,6.5c1.8,0.2,3.2,1.4,4.2,2.4c1.6-1.5,4-2.2,6.1-1.6c0.9,0.3,1.7,0.7,2.5,1.2c0.6,0.4,1.2,0.7,1.9,0.9
			c0,0,0,0,0.1,0c0.2-0.4,0.3-1.1,0.3-1.6c-3.6-3.1-4.2-8.9-2.2-12.2c1.6-2.8,4.8-3.6,8.4-2.1c1.6,0.7,3,2,4.1,4
			c0.8,1.5,1.2,2.8,1.1,4c-0.1,2.4-1.8,4.3-3.4,6l0,0c0.1,0.2,0.1,0.4,0.2,0.5c2.8-2,6.6-2.3,9.6-1c0.3-0.3,0.7-0.5,1.1-0.7
			c1.8-0.6,3.7-0.9,5.5-0.7c0,0,0,0,0-0.1c-0.3-0.5-0.7-1.1-1-1.6c-1.5-2.8-1.4-6.1-1.2-8.9c-0.3,0-0.6,0-0.9-0.1
			c-0.4,0-0.9-0.1-1.3,0c-1.1,0.1-2.6,0-3.6-1.1c-0.5-0.6-0.8-1.5-0.7-2.6c0.1-2,0.9-3.8,2.1-5c1.5-1.4,3.6-2,5.5-1.5
			c1.3,0.4,2,1.5,2.4,2.4c0.8,1.7,2,3.3,3.3,5c0.7,1,1.4,1.9,2.1,2.9c2.3,3.5,4.9,7.7,5.5,12.4c0.4,2.9-2.8,6.6-3.9,7.6l0,0
			l-0.8-0.9l0.8,0.9c-1.7,1.5-3.6,2.5-5.3,3.5c-0.5,0.3-1.1,0.6-1.6,0.9c-0.7,0.4-1.4,0.8-2.3,1.1c-1.1,0.4-2.4,0.5-3.9,0.5
			c-0.6,2.1-1.5,4-2.3,5.9c-0.4,1-0.8,1.9-1.2,2.9c-1.1,2.7-2,5.1-5.1,6.6C91.1,169.9,89.5,170.1,87.9,170.1z M66.9,120.9
			C66.9,120.9,66.8,120.9,66.9,120.9c-0.4,0-0.7,0.1-0.8,0.2c-0.2,0.1-0.4,0.3-0.6,0.5c-0.8,0.7-1.5,1.5-2.2,2.3
			c-4.7,5-5.9,12.7-7,19.5c-0.1,0.6,0.5,2,1.3,2.9c0.7,0.8,1.5,1.7,2.3,2.3c2,1.5,4.5,1.9,7.3,2.4c1.9,0.3,3.9,0.6,5.7,1.4
			c0.3,0.1,0.6,0.4,0.7,0.8l0.1,0.3c1,3.3,2.1,6.9,3.8,9.6c0.6,1,1.3,2,2.2,2.6c0.8,0.6,1.9,0.9,3,1.2c2.7,0.8,6.1,1.5,8.9,0.1
			c2.2-1.1,2.9-2.8,3.8-5.2c0.5-1.2,0.9-2.2,1.3-3.2c0.9-2.2,1.8-4.2,2.4-6.5c0.1-0.6,0.7-0.9,1.3-0.9c1.6,0.1,2.8,0,3.9-0.4
			c0.6-0.2,1.2-0.6,1.8-0.9c0.5-0.3,1.1-0.6,1.6-0.9c1.7-0.9,3.4-1.8,4.8-3l1,0.8l-0.8-0.9c1.6-1.5,3.3-4.3,3.2-5.6
			c-0.6-4.2-2.8-7.9-5.1-11.4c-0.6-0.9-1.3-1.9-2-2.8c-1.3-1.7-2.6-3.5-3.5-5.4c-0.3-0.6-0.6-1-0.9-1.1c-1-0.3-2.3,0.1-3.1,0.9
			c-0.8,0.8-1.3,2-1.4,3.4c0,0.6,0.1,0.9,0.2,1c0.1,0.2,0.5,0.3,1.5,0.3c0.5,0,1.1,0,1.6,0c0.6,0.1,1.3,0.1,1.7,0
			c0.4-0.1,0.8,0,1.1,0.3c0.3,0.3,0.4,0.6,0.4,1c-0.2,2.8-0.6,6.3,0.9,9c0.3,0.5,0.6,1,0.9,1.5c0.5,0.8,1,1.6,1.4,2.6
			c0.2,0.4,0.1,0.9-0.2,1.3c-0.3,0.3-0.8,0.5-1.2,0.3c-2.2-0.6-4.5-0.6-6.6,0.2c-0.1,0-0.2,0.1-0.2,0.1c0,0.4-0.2,0.7-0.5,0.9
			c-0.4,0.3-0.9,0.3-1.3,0c-2.5-1.6-6-1.4-8.3,0.4c-0.3,0.2-0.6,0.5-1.1,0.7c-0.9,0.2-1.8-0.1-2.1-0.9c-0.2-0.4-0.2-0.8-0.2-1
			c0-0.1-0.2-0.6-0.2-0.8c-0.1-0.4-0.2-0.7-0.3-1.1c0-0.1-0.1-0.3-0.1-0.5c0,0,0,0,0-0.1l0,0c0-0.3,0.1-0.5,0.2-0.7
			c0.3-0.4,0.7-0.6,1.2-0.5c1.3-1.3,2.3-2.6,2.3-4c0-0.8-0.2-1.7-0.8-2.7c-0.8-1.5-1.8-2.5-2.9-3c-1.7-0.7-4.1-1.1-5.4,1.1
			c-1.4,2.5-0.8,7.2,2,9.4c0.2,0.1,0.3,0.3,0.4,0.6c0.3,1,0.1,2.8-0.5,3.9c-0.5,0.8-1,1.1-1.4,1.2c-0.6,0.1-1.1,0-1.4-0.1
			c-0.9-0.3-1.6-0.7-2.3-1.1c-0.7-0.4-1.3-0.7-2-0.9c-1.6-0.4-3.5,0.3-4.4,1.7c-0.2,0.3-0.6,0.6-1,0.6s-0.8-0.1-1-0.5
			c-1.8-2.3-3.3-3.1-4.8-2.5c-0.5,0.2-1,0-1.3-0.3c-0.3-0.4-0.4-0.9-0.2-1.3c1.3-2.6,1.9-4.8,1.8-7.4c0-0.5,0.1-1.2,0.2-1.9
			c0.2-1.4,0.5-3.6-0.3-4.2l0,0c-0.5-0.4-0.6-1.2-0.2-1.7s1.2-0.6,1.7-0.2l0,0c1,0.8,2.6,1.6,3.5,2c0.2,0.1,0.3,0.1,0.4,0.1
			c0.6-1.4,0.4-2.8-0.3-4C69.6,121.6,68.2,120.9,66.9,120.9z"/>
	</g>
	<g>
		<path style="fill:#DA0000;" d="M93.4,77.1c0,0.5-0.1,0.9,0.2,1.3c0.3,0.5,0.8,0.7,1.4,1c7.5,2.9,15.7,4.2,23.7,3.7
			c0.6,0,1.3-0.1,1.8-0.4c0.6-0.4,0.9-1.1,1.2-1.7c4.8-11.2,2.7-24.1,4.9-36.1c0.9-5,0.5-12.1-6.4-9.4c-5.1,2-9.9,6.9-13.5,10.9
			C99.1,54.9,94.3,65.8,93.4,77.1z"/>
		<path d="M115.5,84.4c-7.2,0-14.4-1.3-21.1-3.9c-0.5-0.2-1.5-0.6-2-1.5c-0.4-0.7-0.3-1.5-0.3-2l0,0c0.9-11.4,5.7-22.5,13.6-31.4
			c3.3-3.8,8.4-9,14-11.2c2.6-1,4.7-0.9,6.2,0.3c2.9,2.4,2.3,8.1,1.8,10.4c-0.8,4.5-1,9.3-1.3,13.9c-0.4,7.5-0.7,15.4-3.8,22.5
			c-0.4,0.8-0.8,1.7-1.7,2.2c-0.8,0.5-1.8,0.6-2.4,0.6C117.6,84.4,116.6,84.4,115.5,84.4z M94.6,77.2c0,0.2,0,0.6,0,0.7
			s0.3,0.2,0.7,0.4c7.3,2.8,15.4,4.1,23.2,3.7c0.5,0,1-0.1,1.2-0.2c0.3-0.2,0.5-0.7,0.7-1.2c2.9-6.7,3.2-14,3.6-21.6
			c0.2-4.7,0.4-9.5,1.3-14.2c0.7-3.9,0.3-7-1-8.1c-0.8-0.6-2-0.6-3.8,0.1c-3.8,1.5-8.1,5-13,10.6C100.1,55.7,95.4,66.4,94.6,77.2
			L94.6,77.2z"/>
	</g>
	<g>
		<path style="fill:#DA0000;" d="M163.7,77.1c0,0.5,0.1,0.9-0.2,1.3c-0.3,0.5-0.8,0.7-1.4,1c-7.5,2.9-15.7,4.2-23.7,3.7
			c-0.6,0-1.3-0.1-1.8-0.4c-0.6-0.4-0.9-1.1-1.2-1.7c-4.8-11.2-2.7-24.1-4.9-36.1c-0.9-5-0.5-12.1,6.4-9.4c5.1,2,9.9,6.9,13.5,10.9
			C157.9,54.9,162.8,65.8,163.7,77.1z"/>
		<path d="M141.5,84.4c-1.1,0-2.1,0-3.1-0.1c-0.6,0-1.6-0.1-2.4-0.6c-0.8-0.5-1.3-1.4-1.7-2.2c-3-7.1-3.4-14.9-3.8-22.5
			c-0.2-4.6-0.4-9.3-1.3-13.9c-0.4-2.3-1.1-8,1.8-10.4c1.5-1.2,3.6-1.4,6.2-0.3c5.6,2.2,10.6,7.4,14,11.2c7.9,8.9,12.7,20,13.6,31.4
			l0,0c0,0.5,0.1,1.3-0.3,2c-0.5,0.9-1.5,1.3-2,1.5C155.9,83.1,148.7,84.4,141.5,84.4z M134.2,36.1c-0.6,0-1.1,0.2-1.5,0.5
			c-1.3,1.1-1.7,4.3-1,8.1c0.9,4.7,1.1,9.5,1.3,14.2c0.4,7.7,0.7,14.9,3.6,21.6c0.2,0.5,0.4,1,0.7,1.2s0.7,0.2,1.2,0.2
			c7.8,0.4,15.9-0.8,23.2-3.7c0.4-0.2,0.7-0.3,0.7-0.4c0.1-0.1,0-0.5,0-0.7l0,0c-0.9-10.9-5.5-21.5-13-30c-5-5.6-9.2-9.1-13-10.6
			C135.6,36.3,134.8,36.1,134.2,36.1z"/>
	</g>
	<g>
		<path style="fill:#DA0000;" d="M108.1,16c-4.6-1.2-10.2-1.4-13.4,2.1c-2.2,2.4-2.7,5.8-3,9.1c-0.5,5.5-0.6,11.1-0.4,16.6
			c0.1,1.2,0.1,2.4,0.5,3.5c1.3,3.6,5.6,5.1,9.4,5c4.2-0.1,8.3-1.5,12.1-3.3c5.7-2.6,11.7-6.6,12.9-12.7
			C128.4,24.5,117.9,18.6,108.1,16z"/>
		<path d="M101,53.6c-3.8,0-8.7-1.5-10.3-5.8c-0.5-1.3-0.6-2.5-0.6-3.9c-0.3-5.6-0.1-11.2,0.4-16.8c0.3-3.6,1-7.2,3.4-9.8
			c3-3.3,8.4-4.2,14.7-2.5l0,0c14.2,3.8,20.9,11.6,19,21.8c-1,5.4-5.6,10-13.6,13.6c-3.4,1.5-7.9,3.3-12.6,3.4
			C101.1,53.6,101,53.6,101,53.6z M102.4,16.4c-2.5,0-5.1,0.6-6.9,2.5c-2,2.2-2.5,5.4-2.7,8.4c-0.5,5.5-0.6,11-0.4,16.5
			c0.1,1.2,0.1,2.2,0.5,3.1c1.1,3,4.9,4.2,8.2,4.3c4.3-0.1,8.4-1.7,11.6-3.2c7.2-3.3,11.3-7.3,12.2-11.9c2.3-11.9-9.8-17-17.2-19
			C106.6,16.8,104.6,16.4,102.4,16.4z"/>
	</g>
	<g>
		<path style="fill:#DA0000;" d="M151.9,16c4.6-1.2,10.2-1.4,13.4,2.1c2.2,2.4,2.7,5.8,3,9.1c0.5,5.5,0.6,11.1,0.4,16.6
			c-0.1,1.2-0.1,2.4-0.5,3.5c-1.3,3.6-5.6,5.1-9.4,5c-4.2-0.1-8.3-1.5-12.1-3.3c-5.7-2.6-11.7-6.6-12.9-12.7
			C131.6,24.5,142.1,18.6,151.9,16z"/>
		<path d="M159,53.6c-0.1,0-0.1,0-0.2,0c-4.7-0.1-9.2-1.8-12.6-3.4c-8-3.6-12.6-8.2-13.6-13.6c-1.9-10.2,4.8-17.9,19-21.8l0,0
			c6.3-1.7,11.6-0.8,14.7,2.5c2.5,2.7,3.1,6.5,3.4,9.8c0.5,5.6,0.6,11.2,0.4,16.8c-0.1,1.3-0.2,2.6-0.6,3.9
			C167.7,52,162.8,53.6,159,53.6z M152.2,17.1L152.2,17.1c-7.4,2-19.5,7.1-17.2,19c0.9,4.6,5,8.6,12.2,11.9
			c3.2,1.4,7.4,3.1,11.6,3.2c0.1,0,0.1,0,0.2,0c3.3,0,7-1.3,8.1-4.3c0.3-0.9,0.4-2,0.5-3.1c0.3-5.5,0.1-11-0.4-16.5
			c-0.3-2.9-0.7-6.2-2.7-8.4C161,15.2,154.8,16.4,152.2,17.1z"/>
	</g>
	<g>
		<path style="fill:#009400;" d="M123.2,38.7c0,0.3,0.1,0.7,0.3,1c0.3,0.4,1,0.5,1.5,0.5c2.5,0,5.1,0,7.6,0.1c1,0,2.2,0,3-0.6
			c1.1-0.8,1.3-2.3,1.3-3.6c0.1-2.2,0-4.5-0.2-6.7c-0.2-1.9-0.7-4.1-2.3-5.2c-0.8-0.5-1.7-0.7-2.6-0.9c-2.9-0.5-7.6-1.4-8.8,2
			C121.7,29,122.8,34.9,123.2,38.7z"/>
		<path d="M132.9,41.4c-0.1,0-0.2,0-0.3,0l-7.6-0.1c-0.6,0-1.7,0-2.5-0.9c-0.4-0.6-0.5-1.2-0.6-1.6c-0.1-0.6-0.1-1.2-0.2-1.9
			c-0.5-3.9-1.1-8.7,0.1-12.1c1.5-4.3,6.9-3.4,9.9-2.9h0.3c1,0.2,2.1,0.4,3.1,1c2.1,1.4,2.6,4,2.9,6c0.3,2.3,0.3,4.6,0.2,6.9
			c-0.1,1.5-0.3,3.4-1.8,4.5C135.3,41.3,133.9,41.4,132.9,41.4z M124.6,38.9c0.1,0,0.2,0,0.5,0l7.6,0.1c1,0,1.8,0,2.3-0.4
			c0.7-0.5,0.8-1.7,0.8-2.7c0.1-2.2,0-4.4-0.2-6.5c-0.2-1.6-0.6-3.4-1.8-4.3c-0.6-0.4-1.3-0.5-2.1-0.7h-0.3
			c-3.3-0.5-6.4-0.9-7.2,1.3c-1,2.8-0.4,7.5,0.1,11c0.1,0.7,0.2,1.3,0.2,1.9l0,0C124.5,38.6,124.5,38.9,124.6,38.9
			C124.5,38.9,124.5,38.9,124.6,38.9z M124.5,38.9L124.5,38.9L124.5,38.9z"/>
	</g>
</g>
</svg>
