<?xml version="1.0" encoding="utf-8"?>
<!-- Generator: Adobe Illustrator 26.5.0, SVG Export Plug-In . SVG Version: 6.00 Build 0)  -->
<svg version="1.1" id="레이어_5" xmlns="http://www.w3.org/2000/svg" xmlns:xlink="http://www.w3.org/1999/xlink" x="0px"
	 y="0px" viewBox="0 0 132 258" style="enable-background:new 0 0 132 258;" xml:space="preserve">
<g>
	<g>
		<path style="fill:#F0B109;" d="M26.2,190.3c-0.1,0.7-0.2,3.4-0.1,11.6c0,0.5,0,0.9,0,1.1c0,5.1,0.3,9.3,0.7,13.2
			c0.6,5.4,1.7,10.7,2.7,15.2c0.2,1.1,0.5,2.2,0.7,3.2c0.4,2.1,0.9,4.2,1.4,6.2c0.5,2,1.7,3.5,3.3,4.4c1.8,1,4.1,1.1,6.5,0.4
			c3.5-1.1,3.4-4.6,3.3-7.8L44,191C39.1,189.6,32.2,189.4,26.2,190.3z"/>
		<path style="fill:#583820;" d="M26.1,201c1.7-0.1,4.8-0.1,6.5,0.1c2,0.3,3.6,1,4.8,2c0.6,0.5,0.9,1.1,0.8,1.6
			c-0.1,0.8-1,1.2-1.3,1.4c-0.6,0.3-1.3,0.5-2,0.8c-0.7,0.2-1.3,0.5-2,0.8c-1,0.5-2.3,1.3-2.8,2.6c-0.1,0.3-0.2,0.5-0.2,0.8
			c-0.1,0.5-0.3,1.1-0.6,1.5c-0.7,0.9-1.7,1.2-2.8,1.6L26.1,201z"/>
		<path style="fill:#583820;" d="M44.5,228.3l0-0.1c0-1-1.3-1.5-1.8-1.7c-0.6-0.2-1.3-0.4-1.9-0.6c-0.6-0.2-1.2-0.3-1.8-0.5
			c-1.5-0.5-2.6-1.3-3.4-2.2c-0.4-0.5-0.6-1-0.6-1.4c0-0.7,0.4-1.3,1.1-1.8c0.6-0.4,1.3-0.5,1.9-0.6c2.3-0.4,4.6-0.3,6.8-0.2
			L44.5,228.3z"/>
		<path d="M38.6,247.1c-1.4,0-2.8-0.3-4-1c-1.9-1-3.2-2.8-3.8-5c-0.5-2.1-1-4.2-1.4-6.3c-0.2-1.1-0.5-2.2-0.7-3.2
			c-1-4.5-2.1-9.8-2.7-15.3c-0.4-4-0.6-8.2-0.7-13.3l0-1.1c-0.1-6.8-0.1-10.7,0.1-11.7l0.1-0.6l0.6-0.1c6.1-1,13.1-0.7,18.2,0.6
			l0.7,0.2l0.9,47.6c0.1,3.1,0.2,7.3-4,8.7C40.7,246.9,39.6,247.1,38.6,247.1z M27.1,191.1c-0.1,1.2-0.1,4,0,10.7l0,1.1
			c0,5,0.3,9.2,0.7,13.1c0.6,5.4,1.7,10.6,2.7,15.1c0.2,1.1,0.5,2.2,0.7,3.2c0.4,2.1,0.9,4.2,1.4,6.2c0.5,1.7,1.5,3.1,2.9,3.8
			c1.6,0.9,3.7,1,5.8,0.3c2.6-0.8,2.8-3.3,2.7-6.9l-0.9-46.2C38.6,190.6,32.5,190.4,27.1,191.1z"/>
	</g>
	<g>
		<path style="fill:#9D4A1C;" d="M25.3,256.9H47c3.4,0,5.8-3.5,4.5-6.6c-2.2-5.5-6.7-12.3-15.5-12.3c-8.8,0-13.2,6.9-15.3,12.4
			C19.5,253.5,21.9,256.9,25.3,256.9z"/>
		<path d="M47,258H25.3c-2,0-3.8-1-4.9-2.6c-1.1-1.6-1.3-3.7-0.6-5.5c2.3-6,7-13.1,16.3-13.1c0,0,0,0,0,0c9.3,0,14.1,7.1,16.5,13
			c0.7,1.8,0.5,3.9-0.6,5.5C50.9,257,49,258,47,258z M36.1,239.1C36.1,239.1,36,239.1,36.1,239.1c-8.1,0-12.2,6.3-14.3,11.7
			c-0.4,1.2-0.3,2.4,0.4,3.4c0.7,1,1.8,1.6,3.1,1.6H47c1.3,0,2.4-0.6,3.1-1.6c0.7-1,0.8-2.3,0.4-3.4
			C48.3,245.4,44.1,239.1,36.1,239.1z"/>
	</g>
</g>
<g>
	<g>
		<g>
			<path style="fill:#EBB53F;" d="M103.6,224.5c4.4,6.6,12.9,11.4,21.8,7.8c1.6-0.7,3.8-1.9,4.9-3.7c1.4-2.2,0.9-5.4-1-7
				c-1.6-1.4-3.6-1.8-5.8-2.3c-0.9-0.2-1.8-0.4-2.7-0.7c-8.5-2.5-10.6-10.5-12.6-18.2c-0.8-2.7-1.4-5.1-2.3-7.4
				c-2.1-5.1-5.4-9.7-9.6-13.3c-8.2-7.1-19.3-10.3-29.7-8.4l-0.1,0c-4.1,0.7-12.5,2.2-12.6,8.5c0,2.2,0.6,3.9,1.8,5
				c2.1,1.9,5.8,1.9,8.5,1.5c1.4-0.2,2.6-0.4,3.8-0.6c4.8-0.7,9.9-1.7,14.7,0.2c5.3,2,9.2,7.4,11.4,16
				C96.5,211.3,99.6,218.5,103.6,224.5L103.6,224.5z"/>
			<path d="M119.2,234.5c-6.8,0-12.8-4.2-16.3-9.5l0,0c-4.1-6-7.2-13.4-9.7-23.1c-2.1-8.2-5.8-13.5-10.8-15.3
				c-4.3-1.7-8.8-1-13.2-0.3l-1,0.2c-1.1,0.2-2.3,0.4-3.8,0.6c-1.9,0.3-6.5,0.7-9.2-1.7c-1.4-1.3-2.2-3.3-2.1-5.7
				c0.1-7.1,9.4-8.7,13.4-9.4l0.1,0l0.1,0c10.5-1.9,21.9,1.3,30.4,8.7c4.3,3.7,7.7,8.5,9.8,13.7c0.7,1.7,1.2,3.6,1.8,5.6l0.5,1.9
				c1.9,7.5,3.9,15.2,12,17.6l2.9,0.7c2.2,0.5,4.3,0.9,6,2.4c2.3,1.9,2.8,5.7,1.2,8.2c-1.2,2-3.5,3.2-5.3,4
				C123.5,234.1,121.3,234.5,119.2,234.5z M76.4,183.7c2.2,0,4.4,0.3,6.6,1.2c5.5,2.1,9.7,7.8,11.9,16.6c2.5,9.5,5.5,16.6,9.4,22.5
				l0,0c4.2,6.2,12.2,10.9,20.6,7.5c1.4-0.7,3.5-1.7,4.5-3.3c1.1-1.8,0.7-4.5-0.8-5.8c-1.4-1.2-3.1-1.6-5.2-2l-3-0.7
				c-9.1-2.7-11.3-11.3-13.3-18.9l-0.5-1.9c-0.5-1.9-1-3.7-1.7-5.4c-2-5-5.2-9.4-9.3-13c-8-7-18.8-10-28.9-8.2l-0.1,0l-0.1,0
				c-3.4,0.6-11.6,2-11.7,7.5c0,1.9,0.5,3.4,1.5,4.3c2.2,2,6.5,1.5,7.7,1.3c1.5-0.2,2.7-0.4,3.8-0.6l1.1-0.2
				C71.3,184.1,73.9,183.7,76.4,183.7z"/>
		</g>
	</g>
	<path style="fill:#543924;" d="M108.2,221.8c1.6-0.8,2.7-3.7,2.6-6l0,0c-0.1-1-0.5-2.2-1.4-2.4c-0.7-0.2-1.5,0.1-2.4,0.8
		c-1.7,1.2-2.7,2.3-3.1,3.5c-0.5,1.2-0.3,2.9,1,3.8c0.9,0.6,1.7,0.8,2.4,0.6C107.5,222.1,107.9,222,108.2,221.8z"/>
	<path style="fill:#543924;" d="M109.1,205.4c-0.9,1.3-3.4,3.8-5,2c-0.6-0.9-0.3-2.2-0.2-3.1c0.2-1.2,0.5-2.2,0.9-3.3
		c0.4-1.8,1.1-3.5,1.8-5.2"/>
	<path style="fill:#543924;" d="M92.5,197.6c0.8-1.3,3.2-3.9,4.9-2.1c0.7,0.8,0.5,2.1,0.4,3.1c-0.1,1-0.4,2.2-0.7,3.2
		c-0.4,1.7-1,3.6-1.6,5.3"/>
	<g>
		<path d="M119.2,234.5c-6.8,0-12.8-4.2-16.3-9.5l0,0c-4.1-6-7.2-13.4-9.7-23.1c-2.1-8.2-5.8-13.5-10.8-15.3
			c-4.3-1.7-8.8-1-13.2-0.3l-1,0.2c-1.1,0.2-2.3,0.4-3.8,0.6c-1.9,0.3-6.5,0.7-9.2-1.7c-1.4-1.3-2.2-3.3-2.1-5.7
			c0.1-7.1,9.4-8.7,13.4-9.4l0.1,0l0.1,0c10.5-1.9,21.9,1.3,30.4,8.7c4.3,3.7,7.7,8.5,9.8,13.7c0.7,1.7,1.2,3.6,1.8,5.6l0.5,1.9
			c1.9,7.5,3.9,15.2,12,17.6l2.9,0.7c2.2,0.5,4.3,0.9,6,2.4c2.3,1.9,2.8,5.7,1.2,8.2c-1.2,2-3.5,3.2-5.3,4
			C123.5,234.1,121.3,234.5,119.2,234.5z M76.4,183.7c2.2,0,4.4,0.3,6.6,1.2c5.5,2.1,9.7,7.8,11.9,16.6c2.5,9.5,5.5,16.6,9.4,22.5
			l0,0c4.2,6.2,12.2,10.9,20.6,7.5c1.4-0.7,3.5-1.7,4.5-3.3c1.1-1.8,0.7-4.5-0.8-5.8c-1.4-1.2-3.1-1.6-5.2-2l-3-0.7
			c-9.1-2.7-11.3-11.3-13.3-18.9l-0.5-1.9c-0.5-1.9-1-3.7-1.7-5.4c-2-5-5.2-9.4-9.3-13c-8-7-18.8-10-28.9-8.2l-0.1,0l-0.1,0
			c-3.4,0.6-11.6,2-11.7,7.5c0,1.9,0.5,3.4,1.5,4.3c2.2,2,6.5,1.5,7.7,1.3c1.5-0.2,2.7-0.4,3.8-0.6l1.1-0.2
			C71.3,184.1,73.9,183.7,76.4,183.7z"/>
	</g>
</g>
<path style="fill:#543924;" d="M91,185.9c1.4-0.8,2.3-3.4,2.3-5.3l0,0c0-0.8-0.4-1.8-1.2-2.1c-0.5-0.2-1.1,0-2,0.6
	c-1.3,0.9-2.2,2-2.6,3c-0.3,1.1-0.2,2.5,0.9,3.3c0.7,0.5,1.4,0.8,2.1,0.6C90.7,186,90.8,186,91,185.9z"/>
<path style="fill:#543924;" d="M68,184.2c-0.8-1.4-2.2-4.8,0.2-5.5c1-0.3,2.2,0.5,3,1c1,0.6,1.8,3,2.7,3.6"/>
<g>
	<path style="fill:#F0B109;" d="M90.7,121.1c-1,0-1.9,0.3-2.6,0.8c-2.2,1.6-1.4,3.4-0.1,6.1c0.3,0.6,0.6,1.1,0.8,1.6
		c1.6,3.9,2.7,8.2,3.8,12.3l0.4,1.4v0c1.9,7.2,3.4,14.8,0.6,21.6c-0.6,1.6-1.5,3.1-2.4,4.6c-1.6,2.8-3.2,5.5-3.2,8.6
		c-0.1,3.1,1.6,6.2,4.2,7.8c2.6,1.7,6.1,1.9,8.9,0.5c2-1,3.7-2.7,5.5-5.3c5.2-7.9,7-18.4,5-28.9c-1.8-9-6.5-18.2-13.5-26.6
		c-1.2-1.4-2.6-3-4.5-3.9C92.6,121.4,91.6,121.1,90.7,121.1z"/>
	<path style="fill:#583820;" d="M112.3,154.4c0,0-3.8-0.6-4.9-2.1c-0.2-0.3-0.4-0.6-0.6-1c-0.2-0.3-0.3-0.6-0.5-0.9
		c-0.8-1-2-1.3-3.3-1.7c-0.8-0.2-1.7-0.5-2.5-0.9c-0.3-0.1-0.5-0.3-0.7-0.6c-0.2-0.3-0.2-0.6-0.2-0.8c-0.1-1.8,1.1-3.7,3-4.6
		c1.5-0.7,3.2-0.9,5.4-0.6L112.3,154.4"/>
	<path style="fill:#583820;" d="M92.5,167.2c-1.4,1.5,3.7-1.5,5.9-1.7c1.9-0.2,3.8-0.4,5.5-1.3c0.4-0.2,0.9-0.5,1.1-1
		c0.2-0.4,0.2-0.9,0.2-1.3c-0.1-1.7-0.7-2.9-1.7-3.3c-0.5-0.2-1-0.2-1.5-0.2l-5.3,0l-1.6,0C95.1,158.4,93.9,165.7,92.5,167.2z"/>
	<path style="fill:#583820;" d="M110.6,172.2l-7.2-0.4c-0.9,0-1.9-0.1-2.8,0.3c-0.9,0.4-1.7,1.4-1.6,2.5c0.2,1.1,1.1,1.6,2,2.1
		c0.7,0.4,1.4,0.8,1.7,1.5c0.1,0.2,0.1,0.3,0.1,0.5c0,0.2,0.1,0.4,0.1,0.5c0.4,1.5,1.5,1.9,3,2.2
		C105.9,181.5,108.8,176.8,110.6,172.2z"/>
	<path d="M97.1,188.3c-1.9,0-3.8-0.5-5.4-1.6c-2.9-1.8-4.7-5.2-4.6-8.6c0.1-3.3,1.7-6.1,3.4-9.1c0.8-1.5,1.7-2.9,2.3-4.5
		c2.7-6.5,1.3-14-0.6-21l-0.4-1.4c-1.1-4.1-2.2-8.3-3.8-12.2c-0.2-0.5-0.5-1-0.7-1.5c-1.2-2.3-2.6-5.2,0.4-7.3
		c1.6-1.2,4.2-1.2,6.3-0.2c2,1,3.5,2.6,4.8,4.1c7.2,8.5,11.9,17.8,13.7,27c2.1,10.6,0.2,21.4-5.1,29.5c-1.9,2.8-3.7,4.6-5.9,5.7
		C100.1,188,98.6,188.3,97.1,188.3z M90.7,122.1c-0.8,0-1.5,0.2-2.1,0.6c-1.4,1-1.3,1.9,0.2,4.9c0.3,0.6,0.6,1.1,0.8,1.7
		c1.6,4,2.8,8.3,3.9,12.4l0.4,1.4c2,7.4,3.4,15.2,0.6,22.2c-0.7,1.7-1.6,3.2-2.4,4.7c-1.6,2.7-3.1,5.3-3.1,8.2
		c-0.1,2.8,1.4,5.5,3.7,7c2.3,1.5,5.5,1.7,7.9,0.5c1.8-0.9,3.4-2.5,5.1-5c5.1-7.7,6.8-18,4.8-28.2c-1.7-8.9-6.4-17.9-13.3-26.2
		c-1.1-1.4-2.5-2.9-4.2-3.7C92.3,122.3,91.5,122.1,90.7,122.1z"/>
</g>
<g>
	<path style="fill:#F0B109;" d="M21.1,121.8c-1.8,0.9-3.2,2.5-4.5,3.9c-7.1,8.4-11.7,17.5-13.5,26.6c-2,10.4-0.2,20.9,5,28.9
		c1.8,2.7,3.5,4.4,5.5,5.3c2.8,1.3,6.3,1.1,8.9-0.5c2.6-1.7,4.2-4.7,4.2-7.8c-0.1-3.1-1.6-5.8-3.2-8.6c-0.9-1.5-1.7-3-2.4-4.6
		c-2.8-6.8-1.3-14.4,0.6-21.6v0l0.4-1.4c1.1-4.1,2.2-8.3,3.8-12.3c0.2-0.5,0.5-1.1,0.8-1.6c1.4-2.7,2.1-4.6-0.1-6.1
		c-0.7-0.5-1.6-0.8-2.6-0.8C23,121.1,22,121.4,21.1,121.8z"/>
	<path style="fill:#583820;" d="M2.3,154.4c0,0,3.8-0.6,4.9-2.1c0.2-0.3,0.4-0.6,0.6-1c0.2-0.3,0.3-0.6,0.5-0.9c0.8-1,2-1.3,3.3-1.7
		c0.8-0.2,1.7-0.5,2.5-0.9c0.3-0.1,0.5-0.3,0.7-0.6c0.2-0.3,0.2-0.6,0.2-0.8c0.1-1.8-1.1-3.7-3-4.6c-1.5-0.7-3.2-0.9-5.4-0.6
		L2.3,154.4"/>
	<path style="fill:#583820;" d="M22,167.2c1.4,1.5-3.7-1.5-5.9-1.7c-1.9-0.2-3.8-0.4-5.5-1.3c-0.4-0.2-0.9-0.5-1.1-1
		c-0.2-0.4-0.2-0.9-0.2-1.3c0.1-1.7,0.7-2.9,1.7-3.3c0.5-0.2,1-0.2,1.5-0.2l5.3,0l1.6,0C19.5,158.4,20.6,165.7,22,167.2z"/>
	<path style="fill:#583820;" d="M3.9,172.2l7.2-0.4c0.9,0,1.9-0.1,2.8,0.3c0.9,0.4,1.7,1.4,1.6,2.5c-0.2,1.1-1.1,1.6-2,2.1
		c-0.7,0.4-1.4,0.8-1.7,1.5c-0.1,0.2-0.1,0.3-0.1,0.5c0,0.2-0.1,0.4-0.1,0.5c-0.4,1.5-1.5,1.9-3,2.2C8.7,181.5,5.7,176.8,3.9,172.2z
		"/>
	<path d="M17.5,188.3c-1.5,0-3-0.3-4.3-1c-2.1-1-4-2.8-5.9-5.7c-5.3-8.1-7.2-18.9-5.1-29.5c1.8-9.2,6.6-18.5,13.7-27
		c1.3-1.5,2.8-3.2,4.8-4.1c2.1-1.1,4.7-1,6.3,0.2c3,2.1,1.5,5,0.4,7.3c-0.3,0.5-0.5,1.1-0.7,1.5c-1.6,3.9-2.7,8.1-3.8,12.2l-0.4,1.4
		c-1.9,7.1-3.3,14.5-0.6,21c0.6,1.5,1.5,3,2.3,4.5c1.7,3,3.3,5.7,3.4,9.1c0.1,3.4-1.7,6.8-4.6,8.6C21.3,187.8,19.4,188.3,17.5,188.3
		z M23.9,122.1c-0.8,0-1.6,0.2-2.4,0.6l0,0c-1.6,0.8-3,2.3-4.2,3.7c-7,8.2-11.6,17.3-13.3,26.2c-2,10.2-0.2,20.4,4.8,28.2
		c1.7,2.5,3.3,4.1,5.1,5c2.5,1.2,5.6,1,7.9-0.5c2.3-1.5,3.8-4.3,3.7-7c-0.1-2.8-1.5-5.4-3.1-8.2c-0.9-1.5-1.8-3.1-2.4-4.7
		c-2.9-7-1.4-14.8,0.6-22.2l0.4-1.4c1.1-4.1,2.2-8.4,3.9-12.4c0.2-0.5,0.5-1.1,0.8-1.7c1.5-3,1.6-4,0.2-4.9
		C25.4,122.3,24.7,122.1,23.9,122.1z"/>
</g>
<g>
	<g>
		<path style="fill:#F0B109;" d="M68.8,191l-0.9,46.9c-0.1,3.1-0.2,6.7,3.3,7.8c2.4,0.8,4.7,0.6,6.5-0.4c1.7-0.9,2.8-2.4,3.3-4.4
			c0.5-2.1,1-4.2,1.4-6.2c0.2-1.1,0.5-2.2,0.7-3.2c1-4.5,2.1-9.7,2.7-15.2c0.4-4,0.6-8.2,0.7-13.2c0-0.2,0-0.5,0-1.1
			c0.2-8.2,0.1-10.8-0.1-11.6C80.6,189.4,73.7,189.6,68.8,191z"/>
		<path style="fill:#583820;" d="M86.6,201c-1.7-0.1-4.8-0.1-6.5,0.1c-2,0.3-3.6,1-4.8,2c-0.6,0.5-0.9,1.1-0.8,1.6
			c0.1,0.8,1,1.2,1.3,1.4c0.6,0.3,1.3,0.5,2,0.8c0.7,0.2,1.3,0.5,2,0.8c1,0.5,2.3,1.3,2.8,2.6c0.1,0.3,0.2,0.5,0.2,0.8
			c0.1,0.5,0.3,1.1,0.6,1.5c0.7,0.9,1.7,1.2,2.8,1.6L86.6,201z"/>
		<path style="fill:#583820;" d="M68.3,228.3l0-0.1c0-1,1.3-1.5,1.8-1.7c0.6-0.2,1.3-0.4,1.9-0.6c0.6-0.2,1.2-0.3,1.8-0.5
			c1.5-0.5,2.6-1.3,3.4-2.2c0.4-0.5,0.6-1,0.6-1.4c0-0.7-0.4-1.3-1.1-1.8c-0.6-0.4-1.3-0.5-1.9-0.6c-2.3-0.4-4.6-0.3-6.8-0.2
			L68.3,228.3z"/>
		<path d="M74.2,247.1c-1,0-2.1-0.2-3.2-0.5c-4.2-1.3-4.1-5.6-4-8.7l0.9-47.6l0.7-0.2c5.1-1.4,12-1.6,18.2-0.6l0.6,0.1l0.1,0.6
			c0.2,1.1,0.2,4.9,0.1,11.7l0,1.1c0,5.1-0.3,9.3-0.7,13.3c-0.6,5.5-1.7,10.8-2.7,15.3c-0.2,1.1-0.5,2.1-0.7,3.2
			c-0.4,2.1-0.9,4.2-1.5,6.3c-0.6,2.2-1.9,4-3.8,5C77,246.7,75.6,247.1,74.2,247.1z M69.7,191.7l-0.9,46.2c-0.1,3.6,0,6,2.7,6.9
			c2.1,0.7,4.2,0.6,5.8-0.3c1.4-0.8,2.4-2.1,2.9-3.8c0.5-2,1-4.1,1.4-6.2c0.2-1.1,0.5-2.2,0.7-3.3c1-4.4,2.1-9.7,2.7-15.1
			c0.4-3.9,0.6-8.1,0.7-13.1l0-1.1c0.1-6.8,0.1-9.6,0-10.7C80.3,190.4,74.2,190.6,69.7,191.7z"/>
	</g>
	<g>
		<path style="fill:#9D4A1C;" d="M88.7,256.9H66.9c-3.4,0-5.8-3.5-4.5-6.6c2.2-5.5,6.7-12.3,15.5-12.3c8.8,0,13.2,6.9,15.3,12.4
			C94.4,253.5,92.1,256.9,88.7,256.9z"/>
		<path d="M88.7,258H66.9c-2,0-3.8-1-4.9-2.6c-1.1-1.6-1.3-3.7-0.6-5.5c2.4-5.9,7.2-13,16.5-13c0,0,0,0,0,0c9.3,0,14,7.1,16.3,13.1
			c0.7,1.8,0.5,3.9-0.6,5.5C92.5,257,90.7,258,88.7,258z M77.9,239.1c-8,0-12.3,6.3-14.4,11.6c-0.5,1.2-0.3,2.4,0.4,3.4
			c0.7,1,1.8,1.6,3.1,1.6h21.8c1.2,0,2.4-0.6,3.1-1.6c0.7-1,0.8-2.3,0.4-3.4C90.1,245.4,86,239.1,77.9,239.1
			C77.9,239.1,77.9,239.1,77.9,239.1z"/>
	</g>
</g>
<g>
	<path style="fill:#3279F0;" d="M57,179.1l-4.3,18.7l-30.5-1c-0.5-10.1,0-28.8,0-28.8h69.7c0,0,0.5,18.7,0,28.8l-30.5,1L57,179.1"/>
	<path d="M61.3,198.9c-0.5,0-1-0.4-1.1-0.9l-3.2-14l-3.2,14c-0.1,0.5-0.6,0.9-1.1,0.9l-30.5-1c-0.6,0-1-0.5-1.1-1.1
		c-0.5-10,0-28.7,0-28.9c0-0.6,0.5-1.1,1.1-1.1h69.7c0.6,0,1.1,0.5,1.1,1.1c0,0.2,0.5,18.8,0,28.9c0,0.6-0.5,1-1.1,1.1L61.3,198.9
		C61.3,198.9,61.3,198.9,61.3,198.9z M57,178c0.5,0,1,0.4,1.1,0.9l4.1,17.8l28.6-1c0.4-8.7,0.1-22.6,0-26.6H23.2
		c-0.1,4-0.4,17.9,0,26.6l28.6,1l4.1-17.8C56,178.4,56.4,178,57,178z"/>
</g>
<g>
	<path style="fill:#FB0021;" d="M30.1,115.8c0,0-11.1-2.9-18,11.7l15.7,11.9C27.9,139.4,43.3,124.3,30.1,115.8z"/>
	<path d="M27.9,140.5c-0.2,0-0.5-0.1-0.7-0.2l-15.7-11.9c-0.4-0.3-0.6-0.9-0.3-1.4c7.2-15.3,19.2-12.3,19.3-12.3
		c0.1,0,0.2,0.1,0.3,0.1c3.5,2.2,5.4,5.1,5.8,8.6c0.8,8.1-7.5,16.4-7.8,16.8C28.4,140.4,28.2,140.5,27.9,140.5z M13.5,127.2
		l14.2,10.8c1.9-2.1,7.1-8.4,6.5-14.2c-0.3-2.7-1.8-5-4.6-6.8C28.3,116.6,19.5,115.3,13.5,127.2z"/>
</g>
<g>
	<path style="fill:#FB0021;" d="M83.8,115.8c0,0,11.1-2.9,18,11.7l-15.7,11.9C86.1,139.4,70.7,124.3,83.8,115.8z"/>
	<path d="M86.1,140.5c-0.3,0-0.6-0.1-0.8-0.3c-0.4-0.3-8.7-8.6-7.8-16.8c0.4-3.5,2.3-6.4,5.8-8.6c0.1-0.1,0.2-0.1,0.3-0.1
		c0.1,0,12.1-3,19.3,12.3c0.2,0.5,0.1,1-0.3,1.4l-15.7,11.9C86.6,140.5,86.3,140.5,86.1,140.5z M84.3,116.9
		c-2.8,1.8-4.3,4.1-4.6,6.8c-0.6,5.8,4.6,12.2,6.5,14.2l14.2-10.8C94.4,115.3,85.6,116.6,84.3,116.9z"/>
</g>
<g>
	<path style="fill:#FB0021;" d="M57,174.3c30.2,0,40.1-2.4,40.1-2.4C93.5,102.1,57,96.1,57,96.1s-36.5,6-40.1,75.8
		C16.8,171.9,26.8,174.2,57,174.3L57,174.3C57,174.3,57,174.3,57,174.3C57,174.3,57,174.3,57,174.3L57,174.3z"/>
	<path d="M57,175.4L57,175.4L57,175.4c-30.1,0-40-2.3-40.5-2.4c-0.5-0.1-0.9-0.6-0.9-1.1c3.6-69.9,39.5-76.5,41.1-76.8
		c0.1,0,0.2,0,0.4,0c1.5,0.3,37.5,6.9,41.1,76.8c0,0.5-0.3,1-0.9,1.1C97,173,87,175.4,57,175.4z M18,171c3.1,0.5,14.2,2.2,39,2.2
		l0.1,1.1v-1.1c24.8,0,35.9-1.6,39-2.2c-2-34.9-12.5-53.1-21-62.2C66.5,99.6,58.3,97.5,57,97.2C54.2,97.8,21.7,106.4,18,171z"/>
</g>
<g>
	<g>
		<path style="fill:#F0B109;" d="M104,47.3c-1.8-4.8-3.7-9.7-7-13.7c-7.7-9.3-20.3-14.5-31.2-14.5c-2.9,0-5.9,0-8.9-0.1
			c-3,0-5.9,0.1-8.9,0.1c-10.9,0-23.5,5.1-31.2,14.5c-3.2,3.9-5.1,8.8-7,13.7c-5.1,13.4-13.6,33.2-5.6,47c9.8,17,24,21.8,39.7,25.5
			c4.2,1,8.6,1.5,13,1.5c4.4,0,8.7-0.5,13-1.5c15.6-3.7,29.9-8.5,39.7-25.5C117.6,80.5,109.2,60.7,104,47.3z"/>
		<path d="M57,122.4c-4.5,0-9-0.5-13.2-1.5c-15.5-3.7-30.3-8.4-40.4-26c-7.7-13.5-0.6-32.1,4.7-45.7L9,46.9c1.8-4.6,3.8-9.9,7.1-14
			c7.4-9,20-14.9,32-14.9c2.1,0,4.2,0,6.3,0l2.6,0l2.6,0c2.1,0,4.2,0,6.3,0c12.1,0,24.6,5.8,32,14.9c3.4,4.1,5.4,9.3,7.1,14l0,0
			l0.9,2.3c5.2,13.6,12.4,32.2,4.7,45.6c-10.1,17.6-24.9,22.4-40.4,26C66,121.9,61.6,122.4,57,122.4z M57,20.2l-2.5,0
			c-2.1,0-4.2,0-6.3,0c-11.4,0-23.3,5.5-30.3,14.1c-3.1,3.8-5,8.7-6.8,13.4L10.2,50c-5.1,13.2-12,31.2-4.8,43.7
			c9.7,16.8,24,21.4,39,25c4.1,1,8.4,1.5,12.7,1.5c4.4,0,8.6-0.5,12.7-1.5c15-3.5,29.3-8.1,39-25c7.2-12.6,0.3-30.6-4.8-43.7
			l-0.9-2.3c-1.8-4.7-3.6-9.5-6.8-13.4c-7-8.5-18.9-14-30.3-14.1c-2.1,0-4.2,0-6.3,0L57,20.2z"/>
	</g>
	<g>
		<g>
			<path style="fill-rule:evenodd;clip-rule:evenodd;" d="M41.9,76L41.9,76c3.2,0,5.7-2.6,5.7-5.7l0-0.8c0-3.1-2.6-5.6-5.8-5.6
				c-3.2,0-5.7,2.6-5.7,5.7l0,0.8C36.1,73.5,38.7,76,41.9,76"/>
		</g>
	</g>
	
		<ellipse transform="matrix(7.746915e-03 -1 1 7.746915e-03 -39.3689 152.1134)" style="fill:#FFFFFF;" cx="57" cy="95.9" rx="20.7" ry="30.8"/>
	<g>
		<path style="fill-rule:evenodd;clip-rule:evenodd;fill:#FF7D6E;" d="M57,79.4c1.4,0,2.7-0.3,4.1,0c0.9,0.2,1.7,0.7,2.1,1.4
			c1.6,2.8-2.9,4.8-5,5.1c-2.9,0.5-5.7-0.8-7.2-3.4c-0.2-0.3-0.4-0.7-0.4-1.1c-0.1-0.8,0.5-1.5,1.2-1.8c0.7-0.3,1.5-0.3,2.3-0.3
			C55.1,79.4,56,79.4,57,79.4z"/>
		<path d="M59.7,79.2c0.5,0,0.9,0,1.4,0.2c0.9,0.2,1.7,0.7,2.1,1.4c1.6,2.8-2.9,4.8-5,5.1C57.8,86,57.4,86,57,86
			c-2.5,0-4.7-1.3-6-3.5c-0.2-0.3-0.4-0.7-0.4-1.1c-0.1-0.8,0.5-1.5,1.2-1.8s1.5-0.3,2.3-0.3c0.9,0,1.9,0,2.8,0
			C57.9,79.4,58.8,79.2,59.7,79.2 M59.7,77c-0.5,0-1,0-1.5,0.1c-0.4,0-0.8,0.1-1.2,0.1l-2.8,0c-0.9,0-2,0-3.2,0.5
			c-1.7,0.7-2.7,2.3-2.6,4c0.1,0.9,0.4,1.5,0.7,2c1.7,2.9,4.7,4.6,7.9,4.6c0.5,0,1.1,0,1.6-0.1c1.8-0.3,5.5-1.6,6.8-4.3
			c0.6-1.3,0.5-2.8-0.2-4.2c-0.7-1.2-2-2.1-3.5-2.5C61,77.1,60.4,77,59.7,77L59.7,77z"/>
	</g>
	<g>
		<path d="M47.2,99.2c-1.8,0-3.7-0.4-5.4-1.1c-1.9-0.8-5.1-2.2-6.1-5.1c-0.6-1.6-0.2-3.9,1.4-4.8c0.5-0.3,1.2-0.1,1.5,0.4
			c0.3,0.5,0.1,1.2-0.4,1.5c-0.5,0.3-0.7,1.3-0.4,2.1c0.7,1.9,3.3,3.1,4.9,3.8c1.8,0.8,3.7,1.1,5.7,0.9c3-0.3,6.7-2.1,7.5-6
			c0.1-0.6,0.7-1,1.3-0.9c0.6,0.1,1,0.7,0.9,1.3c-1.1,5.1-5.8,7.4-9.5,7.8C48.1,99.2,47.7,99.2,47.2,99.2z"/>
	</g>
	<g>
		<path d="M67.5,99.2c-0.5,0-1,0-1.5-0.1c-4-0.4-9-2.7-10.1-7.8c-0.1-0.6,0.2-1.2,0.8-1.3c0.6-0.1,1.2,0.2,1.3,0.8
			c0.8,3.7,4.7,5.7,8.1,6c2.1,0.2,4.2-0.1,6.2-0.9c1.7-0.7,4.6-1.9,5.3-3.8c0.3-0.7,0.1-1.7-0.5-2.1c-0.5-0.3-0.8-1-0.5-1.5
			c0.3-0.5,1-0.8,1.5-0.5c1.8,0.9,2.2,3.2,1.5,4.8c-1.1,2.8-4.5,4.2-6.6,5.1C71.4,98.8,69.4,99.2,67.5,99.2z"/>
	</g>
	<g>
		<path style="fill:#F0B109;" d="M46.6,21.5c0,0-6.4-5-10.9-8.6S19.2,0.3,16.8,1.1c-2.4,0.9-14,25.2-3,37.8"/>
		<path d="M13.8,40.1c-0.3,0-0.6-0.1-0.8-0.4c-6.8-7.7-5.2-19.2-3.6-25.4c1.7-6.8,5.1-13.5,7-14.2C20.1-1.2,35.8,11.5,36.5,12
			c4.4,3.6,10.8,8.5,10.8,8.6c0.5,0.4,0.6,1.1,0.2,1.6c-0.4,0.5-1.1,0.6-1.6,0.2c-0.1,0-6.5-5-10.9-8.6C28.3,8.3,18.9,1.9,17.1,2.2
			c-0.9,0.6-5.2,8.3-6.5,17.7c-0.7,5.4-0.6,12.9,4.1,18.3c0.4,0.5,0.4,1.2-0.1,1.6C14.4,40,14.1,40.1,13.8,40.1z"/>
	</g>
	<g>
		<path style="fill:#FACF75;" d="M34.6,25.8c0,0-16.2-15.2-16.6-18.2s-7,19,1.2,24.1c0,0,2.3-1.5,3.6-1.9c0,0-1.9-5.3,3.2-2.1
			C29.3,29.8,34.6,25.8,34.6,25.8z"/>
		<path d="M19.1,32.9c-0.2,0-0.4-0.1-0.6-0.2c-7.4-4.6-4-20-2.7-23.9c0.5-1.4,0.9-2.6,2.1-2.5c0.2,0,1,0.1,1.1,1.2
			c0.3,1.7,8.5,10.2,16.3,17.5c0.2,0.2,0.4,0.5,0.4,0.9c0,0.3-0.2,0.6-0.4,0.8c-0.2,0.2-6,4.5-9.9,2c-1-0.7-1.6-0.8-1.8-0.9
			c0,0.3,0.1,1,0.3,1.6c0.1,0.3,0.1,0.6,0,0.9c-0.1,0.3-0.4,0.5-0.7,0.6c-1,0.3-2.8,1.4-3.4,1.8C19.6,32.8,19.4,32.9,19.1,32.9z
			 M17.9,9.8c-1,3.1-2.3,9.9-1.3,15.3c0.5,2.4,1.4,4.2,2.7,5.3c0.6-0.3,1.4-0.8,2.2-1.2c-0.2-1-0.3-2.4,0.7-3.1
			c1.3-1,3.2-0.1,4.5,0.8c1.7,1.1,4.5-0.1,6.2-1.2C28.9,21.9,20.7,14,17.9,9.8z"/>
	</g>
	<g>
		<path style="fill:#FF7D6E;" d="M24,26.8c0,0-4.7-4.6-4.6-8.9"/>
		<path d="M24,27.9c-0.3,0-0.6-0.1-0.8-0.3c-0.2-0.2-5-5-5-9.7c0-0.6,0.5-1.1,1.1-1.1c0,0,0,0,0,0c0.6,0,1.1,0.5,1.1,1.1
			c0,3.8,4.2,8.1,4.3,8.1c0.4,0.4,0.4,1.1,0,1.6C24.6,27.8,24.3,27.9,24,27.9z"/>
	</g>
	<g>
		<path style="fill:#F0B109;" d="M67.4,21.5c0,0,6.4-5,10.9-8.6c4.5-3.6,16.6-12.6,19-11.8c2.4,0.9,14,25.2,3,37.8"/>
		<path d="M100.2,40.1c-0.3,0-0.5-0.1-0.7-0.3c-0.5-0.4-0.5-1.1-0.1-1.6c4.7-5.4,4.8-12.9,4.1-18.3c-1.3-9.4-5.7-17.1-6.7-17.8
			C95.2,2,85.7,8.3,79,13.8c-4.4,3.6-10.8,8.6-10.9,8.6c-0.5,0.4-1.2,0.3-1.6-0.2c-0.4-0.5-0.3-1.2,0.2-1.6c0.1,0,6.4-5,10.8-8.6
			C78.3,11.5,94-1.2,97.6,0.1c1.9,0.7,5.2,7.5,7,14.2c1.6,6.1,3.2,17.6-3.6,25.4C100.8,39.9,100.5,40.1,100.2,40.1z"/>
	</g>
	<g>
		<path style="fill:#FACF75;" d="M79.5,25.8c0,0,16.2-15.2,16.6-18.2s7,19-1.2,24.1c0,0-2.3-1.5-3.6-1.9c0,0,1.9-5.3-3.2-2.1
			C84.8,29.8,79.5,25.8,79.5,25.8z"/>
		<path d="M94.9,32.9c-0.2,0-0.4-0.1-0.6-0.2c-0.6-0.4-2.4-1.5-3.4-1.8c-0.3-0.1-0.5-0.3-0.7-0.6c-0.1-0.3-0.2-0.6,0-0.9
			c0.2-0.5,0.3-1.2,0.3-1.6c-0.2,0-0.8,0.2-1.8,0.9c-3.9,2.4-9.6-1.9-9.9-2c-0.3-0.2-0.4-0.5-0.4-0.8c0-0.3,0.1-0.6,0.4-0.9
			C86.5,17.7,94.7,9.2,95,7.5c0.2-1.1,1-1.2,1.1-1.2c1.2-0.1,1.6,1.1,2.1,2.5c1.3,3.9,4.7,19.3-2.7,23.9
			C95.3,32.8,95.1,32.9,94.9,32.9z M92.6,29.2c0.8,0.4,1.7,0.9,2.2,1.2c1.3-1.1,2.2-2.9,2.7-5.3c1-5.3-0.4-12.2-1.3-15.3
			c-2.9,4.2-11,12.1-14.9,15.8c1.7,1,4.5,2.3,6.2,1.2c1.3-0.8,3.2-1.8,4.5-0.8C92.9,26.8,92.8,28.2,92.6,29.2z"/>
	</g>
	<g>
		<path style="fill:#FF7D6E;" d="M90.1,26.8c0,0,4.7-4.6,4.6-8.9"/>
		<path d="M90.1,27.9c-0.3,0-0.6-0.1-0.8-0.3c-0.4-0.4-0.4-1.1,0-1.6c0,0,4.3-4.3,4.3-8.1c0-0.6,0.5-1.1,1.1-1.1
			c0.7,0,1.1,0.5,1.1,1.1c0.1,4.8-4.8,9.5-5,9.7C90.6,27.8,90.4,27.9,90.1,27.9z"/>
	</g>
	<g>
		<g>
			<path style="fill-rule:evenodd;clip-rule:evenodd;" d="M72.2,76L72.2,76c-3.2,0-5.7-2.6-5.7-5.7l0-0.8c0-3.1,2.6-5.6,5.8-5.6
				c3.2,0,5.7,2.6,5.7,5.7l0,0.8C78,73.5,75.4,76,72.2,76"/>
		</g>
	</g>
	<path style="fill-rule:evenodd;clip-rule:evenodd;fill:#583820;" d="M54.8,46.5c-0.1,2.3-0.3,4.9,1.2,6.4c0.2,0.2,0.5,0.4,0.8,0.5
		c0.8,0.1,1.2-0.8,1.4-1.6c1.2-5.1-0.7-11,1.9-15.5c0.5-0.8,1-1.5,1.4-2.4c1.5-4-7.2-5.7-8-1.5c-0.3,1.6,0.8,3.7,1,5.2
		C55,40.4,54.9,43.5,54.8,46.5z"/>
	<path style="fill-rule:evenodd;clip-rule:evenodd;fill:#583820;" d="M15.1,70.6c1.4,0.1,2.7,0.8,3.2,2.5c0.4,1.4-0.3,3.1-1.6,3.5
		c-0.7,0.2-1.4,0.1-2,0.2c-1.2,0-2.5,0.4-3.5,1.1c-1.4,0.9-2.9,2.4-4.3,1.7c-1.1-0.5-1.5-2.1-1.2-3.3c0.4-1.2,1.3-2.2,2.2-3
		C9.4,72.1,12.6,70.4,15.1,70.6z"/>
	<path style="fill-rule:evenodd;clip-rule:evenodd;fill:#583820;" d="M10.1,83c-0.3,0.2-0.6,0.4-0.9,0.7c-0.9,0.9-2.3,3-1.7,4.4
		c0.1,0.3,0.4,0.6,0.7,0.7c0.7,0.4,1.6,0.6,2.3,0.3c0.6-0.2,1-0.7,1.5-1c0.5-0.3,1.1-0.5,1.6-0.7c1.1-0.4,2.3-0.8,3-1.9
		c0.2-0.3,0.4-0.6,0.4-1c0.3-2.2-1.8-2.6-3.4-2.5C12.4,82.1,11.1,82.4,10.1,83z"/>
	<path style="fill-rule:evenodd;clip-rule:evenodd;fill:#583820;" d="M46.1,34.2c-0.4,0-0.7,0.1-1.1,0.2c-1.2,0.3-3.3,1.5-3.4,3
		c0,0.3,0.1,0.7,0.3,1c0.4,0.7,1.2,1.3,1.9,1.4c0.6,0.1,1.2-0.2,1.8-0.2c0.6,0,1.2,0.1,1.7,0.2c1.2,0.2,2.4,0.4,3.5-0.2
		c0.3-0.2,0.6-0.4,0.8-0.7c1.2-1.8-0.5-3.2-1.9-3.9C48.5,34.4,47.3,34.1,46.1,34.2z"/>
	<path style="fill-rule:evenodd;clip-rule:evenodd;fill:#583820;" d="M12.2,92.7c-0.4,0.6-0.7,1.4-0.5,2.1c0.2,0.7,0.9,1.1,1.6,1.2
		c0.7,0.1,1.4-0.1,2-0.3c0.6-0.2,1.2-0.4,1.6-0.8c0.5-0.4,0.9-1,0.9-1.6c0.1-1.2-0.9-2.4-2-2.4C14.4,90.9,13,91.5,12.2,92.7z"/>
	<path style="fill-rule:evenodd;clip-rule:evenodd;fill:#583820;" d="M19.6,78.4c-0.4,0.6-0.7,1.4-0.5,2.1c0.2,0.7,0.9,1.1,1.6,1.2
		c0.7,0.1,1.4-0.1,2-0.3c0.6-0.2,1.2-0.4,1.6-0.8c0.5-0.4,0.9-1,0.9-1.6c0.1-1.2-0.9-2.4-2-2.4C21.8,76.6,20.4,77.2,19.6,78.4z"/>
	<path style="fill-rule:evenodd;clip-rule:evenodd;fill:#583820;" d="M99,70.6c-1.4,0.1-2.7,0.8-3.2,2.5c-0.4,1.4,0.3,3.1,1.6,3.5
		c0.7,0.2,1.4,0.1,2,0.2c1.2,0,2.5,0.4,3.5,1.1c1.4,0.9,2.9,2.4,4.3,1.7c1.1-0.5,1.5-2.1,1.2-3.3c-0.4-1.2-1.3-2.2-2.2-3
		C104.8,72.1,101.6,70.4,99,70.6z"/>
	<path style="fill-rule:evenodd;clip-rule:evenodd;fill:#583820;" d="M104.1,83c0.3,0.2,0.6,0.4,0.9,0.7c0.9,0.9,2.3,3,1.7,4.4
		c-0.1,0.3-0.4,0.6-0.7,0.7c-0.7,0.4-1.6,0.6-2.3,0.3c-0.6-0.2-1-0.7-1.5-1c-0.5-0.3-1.1-0.5-1.6-0.7c-1.1-0.4-2.3-0.8-3-1.9
		c-0.2-0.3-0.4-0.6-0.4-1c-0.3-2.2,1.8-2.6,3.4-2.5C101.8,82.1,103.1,82.4,104.1,83z"/>
	<path style="fill-rule:evenodd;clip-rule:evenodd;fill:#583820;" d="M102,92.7c0.4,0.6,0.7,1.4,0.5,2.1c-0.2,0.7-0.9,1.1-1.6,1.2
		c-0.7,0.1-1.4-0.1-2-0.3c-0.6-0.2-1.2-0.4-1.6-0.8c-0.5-0.4-0.9-1-0.9-1.6c-0.1-1.2,0.9-2.4,2-2.4C99.8,90.9,101.2,91.5,102,92.7z"
		/>
	<path style="fill-rule:evenodd;clip-rule:evenodd;fill:#583820;" d="M94.6,78.4c0.4,0.6,0.7,1.4,0.5,2.1c-0.2,0.7-0.9,1.1-1.6,1.2
		c-0.7,0.1-1.4-0.1-2-0.3c-0.6-0.2-1.2-0.4-1.6-0.8c-0.5-0.4-0.9-1-0.9-1.6c-0.1-1.2,0.9-2.4,2-2.4C92.4,76.6,93.8,77.2,94.6,78.4z"
		/>
	<path style="fill-rule:evenodd;clip-rule:evenodd;fill:#583820;" d="M69.4,32c0.5,0,0.9-0.1,1.4-0.3c0.2-0.1,0.4-0.1,0.6-0.3
		c0.2-0.3,0.3-0.7,0.2-1c-0.2-1.2-1.3-2.1-2.3-2.6c-1.2-0.6-2.4-0.7-3.7-0.7c-0.9,0-2-0.1-2.7,0.7c-0.6,0.7-0.4,2,0.2,2.7
		c0.6,0.7,1.6,1,2.5,1.2C66.8,31.9,68.1,32.1,69.4,32z"/>
	<path style="fill-rule:evenodd;clip-rule:evenodd;fill:#583820;" d="M69,39.8c-0.4-3.6-6.4-3.8-7-0.3c0,0.3,0,0.5,0.1,0.8
		c0.1,0.2,0.3,0.4,0.4,0.5c0.8,0.7,1.7,1.2,2.6,1.4c0.9,0.2,1.8,0.2,2.6-0.2S69.1,40.8,69,39.8z"/>
	<path style="fill-rule:evenodd;clip-rule:evenodd;fill:#583820;" d="M51.4,32c1.1-0.4,2.1-1.9,1.6-3.1c-0.6-1.2-2.9-1.4-4-1.4
		c-0.9,0-1.8,0.3-2.4,1c-0.6,0.7-0.7,1.9-0.1,2.6c0.2,0.2,0.6,0.4,0.9,0.5c0.5,0.2,1.1,0.3,1.6,0.5C49.8,32.3,50.6,32.3,51.4,32z"/>
	<path style="fill-rule:evenodd;clip-rule:evenodd;fill:#583820;" d="M51.2,47.7c0.9-0.3,1.7-1.5,1.3-2.5c-0.5-1-2.4-1.1-3.3-1.1
		c-0.7,0-1.5,0.2-2,0.8s-0.6,1.6-0.1,2.1c0.2,0.2,0.5,0.3,0.7,0.4c0.4,0.2,0.9,0.3,1.3,0.4C49.9,47.9,50.6,48,51.2,47.7z"/>
	<path style="fill:#FFFFFF;" d="M69.5,67.5c0,0.2,0,0.5,0.2,0.8c0.2,0.3,0.7,0.4,1,0.4c0.4,0,0.8,0.1,1.1-0.1
		c0.2-0.1,0.4-0.3,0.6-0.5c0.3-0.4,0.5-1.1,0.2-1.5c-0.2-0.3-0.5-0.4-0.9-0.4c-0.3,0-0.6,0.1-0.9,0.2C70.3,66.6,69.6,67,69.5,67.5z"
		/>
	<path style="fill:#FFFFFF;" d="M38.8,67.5c0,0.2,0,0.5,0.2,0.8c0.2,0.3,0.7,0.4,1,0.4c0.4,0,0.8,0.1,1.1-0.1
		c0.2-0.1,0.4-0.3,0.6-0.5c0.3-0.4,0.5-1.1,0.2-1.5c-0.2-0.3-0.5-0.4-0.9-0.4c-0.3,0-0.6,0.1-0.9,0.2C39.6,66.6,38.9,67,38.8,67.5z"
		/>
</g>
</svg>
