<?xml version="1.0" encoding="UTF-8"?>
<svg xmlns="http://www.w3.org/2000/svg" version="1.1" viewBox="0 0 229 161">
  <!-- Generator: Adobe Illustrator 28.7.1, SVG Export Plug-In . SVG Version: 1.2.0 Build 142)  -->
  <g>
    <g id="_레이어_1" data-name="레이어_1">
      <g>
        <g>
          <path d="M1.8,141s110.6-66.1,225.5,0L138.1,23.8h-63.9L1.8,141Z" style="fill: #030a05;"/>
          <path d="M227.3,142.6c-.3,0-.5,0-.8-.2-112.8-64.9-222.8-.7-223.9,0-.6.4-1.4.3-1.9-.2-.5-.5-.6-1.3-.2-1.9L72.8,23c.3-.5.8-.7,1.3-.7h63.9c.5,0,1,.2,1.3.6l89.2,117.2c.5.6.4,1.4,0,2-.3.3-.7.5-1.2.5ZM75.1,25.4L6.2,136.9c22.9-11.7,117.3-53,215.2-.8L137.3,25.4h-62.2Z"/>
        </g>
        <g>
          <path d="M1.8,141c25,9.8,51.7,15.9,78.7,17.9,2.7.2,5.6.3,8-1,1.2-.7,2.2-1.7,3.4-2.3,5.6-2.8,14.9,2.9,17.9-2.3-.3-11.1-.5-22.1-.8-33.2-.6-24.6-1.2-49.4-6.1-73.7-.4-2-.9-4.1-2.3-5.7-1.4-1.6-3.4-2.4-5.4-3.2-10-3.7-22.2-5.8-32.8-4.4-8.8,1.2-13.2,8-18.2,14.2-14.1,17.4-25.2,36.8-32.8,57.5-4.3,11.7-7.5,23.8-9.5,36.1Z" style="fill: #012f14;"/>
          <path d="M83.2,160.7c-1,0-1.9,0-2.9-.1-27.2-2-53.8-8.1-79.1-18l-1.2-.5.2-1.3c2-12.3,5.2-24.6,9.6-36.4,7.7-20.9,18.8-40.4,33-57.9.6-.7,1.1-1.4,1.7-2.2,4.5-5.7,9.1-11.5,17.5-12.6,10-1.3,22.2.3,33.6,4.5,2.2.8,4.5,1.8,6.1,3.6,1.6,1.8,2.2,4.1,2.7,6.4,5,24.5,5.6,49.6,6.2,74l.8,33.6-.2.4c-2.2,3.8-6.7,3.2-10.7,2.6-2.9-.4-5.8-.8-7.8.2-.5.3-1,.7-1.6,1.1-.6.4-1.1.9-1.8,1.2-1.8,1-3.9,1.3-6,1.3ZM3.5,140c24.6,9.6,50.5,15.4,77,17.4,2.6.2,5.2.3,7.1-.8.5-.3.9-.6,1.4-1,.6-.5,1.3-1,2.1-1.4,2.9-1.4,6.5-1,9.6-.5,3.7.5,6.2.7,7.4-.8l-.8-32.7c-.6-24.2-1.1-49.2-6.1-73.4-.4-2-.8-3.7-1.9-5-1.2-1.3-3.1-2.1-4.8-2.7-10.9-4-22.6-5.6-32.1-4.4-7.2.9-11.2,6-15.4,11.4-.6.7-1.2,1.5-1.7,2.2-14,17.3-24.9,36.4-32.5,57-4.1,11.3-7.2,22.9-9.2,34.6Z"/>
        </g>
        <g>
          <path d="M227.3,141c-18.1,8.9-37.5,13.9-57.2,14.9-2,.1-4.1.1-5.9-1.3-.9-.7-1.7-1.8-2.6-2.4-4.2-2.9-10.9,2.3-13.2-2.9-.2-11-.4-22-.7-33-.5-24.5-1-49.1,1.8-73.1.2-2,.5-4,1.5-5.6.9-1.5,2.4-2.3,3.9-3,7.2-3.3,16.1-5,24-3.2,6.5,1.5,10,8.4,13.9,14.8,11,17.8,19.9,37.6,26.2,58.4,3.6,11.8,6.4,24,8.3,36.3Z" style="fill: #012f14;"/>
          <path d="M168.7,157.6c-1.9,0-3.8-.3-5.5-1.6-.5-.4-.9-.8-1.4-1.3-.4-.4-.8-.8-1.2-1.1-1.4-1-3.3-.7-5.3-.4-2.8.4-6.6.9-8.4-3.1v-.3c-.1,0-.2-1-.2-1l-.7-32.3c-.5-24.2-1-49.2,1.8-73.3.3-2.3.6-4.5,1.7-6.3,1.2-1.8,2.9-2.8,4.6-3.6,8.3-3.8,17.5-5,25-3.3,6.4,1.5,10.1,7.5,13.6,13.3.4.7.9,1.5,1.3,2.2,11.1,17.9,20,37.7,26.4,58.8,3.6,11.9,6.5,24.2,8.4,36.5l.2,1.1-1,.5c-18.3,9-37.8,14.1-57.8,15.1-.5,0-.9,0-1.4,0ZM158,149.7c1.5,0,3,.3,4.4,1.3.6.4,1.1,1,1.6,1.5.3.3.7.7,1,1,1.3,1,3,1,4.8.9,19.2-1,37.9-5.8,55.6-14.3-1.9-11.7-4.6-23.5-8.1-34.9-6.3-20.8-15.1-40.3-26.1-58-.5-.7-.9-1.5-1.4-2.2-3.3-5.5-6.4-10.7-11.6-11.8-6.9-1.6-15.3-.4-23,3.1-1.4.7-2.5,1.3-3.2,2.4-.8,1.2-1,3-1.2,4.9-2.8,23.9-2.2,48.8-1.8,72.9l.7,32.6c.8,1.4,2.1,1.4,5,1,1-.1,2.1-.3,3.1-.3Z"/>
        </g>
        <g>
          <path d="M108.2,16.9c9.6,1,19.3.9,29,.7,10.1-.2,20.3-.1,30.3-1.2,4.9-.5,10.8-2.1,15.4.6,2.1,1.2,3.7,2.5,4.1,5.1s-.8,5.2-1.1,4.8c3,3.6,4,3.4,3.9,8.3,0,3.7-19,8.5-21.9,9.1-9.2,1.8-18.7,1.8-28.1,1.7-33.2-.4-68.8-.3-100.4-11.6-2.1-.8-4.3-1.6-5.9-3.2-2.4-2.3-3.2-6-2.1-9,1.1-3.1,4.1-5.4,7.4-5.6-1.4.1,4.3-8.8,5.3-9.5,4.7-3.2,19.6-6,25.3-4.7,4.5,1.1,9.6,6.4,14.1,8.4,5.7,2.5,11.7,4.2,17.8,5.2,2.3.4,4.6.7,6.9,1Z" style="fill: #012f14;"/>
          <path d="M145.6,47.6c-1.9,0-3.8,0-5.8,0h-4.4c-32.5-.4-66.1-.8-96.5-11.7-2.4-.9-4.7-1.8-6.5-3.5-2.8-2.7-3.8-7-2.5-10.7,1.2-3.2,4-5.7,7.4-6.5,1.1-3.3,5.4-9,6-9.5,5.1-3.5,20.5-6.4,26.5-4.9,2.9.7,5.8,2.8,8.6,4.8,2,1.5,4,2.9,5.8,3.7,5.2,2.3,11,4,17.4,5.1,2.2.4,4.5.7,6.8.9h0c9.5,1,19.3.9,28.8.7h4.4c8.5-.2,17.3-.3,25.7-1.2.8,0,1.7-.2,2.6-.3,4.5-.6,9.5-1.4,13.8,1.2,2.1,1.2,4.3,2.8,4.9,6.2,0,.2-.2,2.9-.8,4.8.3.4.6.7.9,1,2,2.2,2.8,3.2,2.7,7.6-.1,5.7-22.9,10.6-23.2,10.6-7.3,1.5-14.7,1.8-22.6,1.8ZM38.8,16.3v1.8c-2.5.2-5,2.1-5.9,4.6-.9,2.5-.2,5.5,1.7,7.4,1.4,1.3,3.3,2.1,5.4,2.8,30,10.7,63.3,11.1,95.5,11.5h4.4c10,.2,19,.1,27.8-1.6,5.7-1.1,19.7-5.4,20.6-7.7,0-3.2-.3-3.5-1.9-5.3-.5-.5-1-1.1-1.6-1.8l1.2-1-1.3-.8c.2-.5.8-3.3.8-3.9-.3-1.7-1.3-2.6-3.3-3.8-3.3-2-7.6-1.4-11.7-.8-.9.1-1.8.3-2.7.4-8.6,1-17.5,1.1-26.1,1.2h-4.4c-9.6.2-19.5.4-29.2-.7h0c-2.4-.3-4.8-.6-7-1-6.6-1.2-12.7-3-18.2-5.3-2.1-.9-4.2-2.5-6.3-4-2.6-1.9-5.2-3.8-7.5-4.3-5.2-1.2-19.6,1.5-24,4.5-.9.8-4.7,6.8-4.9,8,0-.1,0-.6-.3-.9l-1,.9Z"/>
        </g>
        <path d="M74.6,135.8c-.8,0-1.5-.6-1.6-1.5-1.3-16.2.4-32.3,5.1-47.8l.6-1.8c1.4-4.4,2.8-8.9,2.4-13.3,0-.9.6-1.6,1.4-1.7.9,0,1.6.6,1.7,1.4.5,5-1,9.9-2.5,14.5l-.5,1.8c-4.5,15-6.2,31.1-5,46.6,0,.9-.6,1.6-1.4,1.7,0,0,0,0-.1,0Z"/>
        <path d="M53.7,106c-.1,0-.3,0-.4,0-.8-.2-1.3-1.1-1.1-1.9l11-41.1c.2-.8,1.1-1.3,1.9-1.1.8.2,1.3,1.1,1.1,1.9l-11,41.1c-.2.7-.8,1.2-1.5,1.2Z"/>
        <path d="M181.9,118.9h0c-.9,0-1.5-.8-1.5-1.7.3-6.1.6-12.5-.6-18.5-.5-2.4-1.2-4.8-1.9-7.1-1.2-4-2.4-8.2-2.5-12.6,0-.9.7-1.6,1.5-1.6,0,0,0,0,0,0,.9,0,1.6.7,1.6,1.5,0,3.9,1.2,7.7,2.4,11.7.7,2.4,1.4,4.9,1.9,7.4,1.3,6.4.9,13,.6,19.3,0,.8-.7,1.5-1.6,1.5Z"/>
        <path d="M200,129.6h0c-.9,0-1.6-.7-1.6-1.6.1-10.6-1.4-21.1-4.4-31.2-.3-.8.2-1.7,1.1-2,.8-.3,1.7.2,2,1.1,3.1,10.5,4.7,21.3,4.6,32.2,0,.9-.7,1.6-1.6,1.6Z"/>
      </g>
    </g>
  </g>
</svg>