<?xml version="1.0" encoding="utf-8"?>
<!-- Generator: Adobe Illustrator 26.5.0, SVG Export Plug-In . SVG Version: 6.00 Build 0)  -->
<svg version="1.1" id="레이어_1" xmlns="http://www.w3.org/2000/svg" xmlns:xlink="http://www.w3.org/1999/xlink" x="0px"
	 y="0px" viewBox="0 0 390 390" style="enable-background:new 0 0 390 390;" xml:space="preserve">
<g>
	<path style="fill:#AF591E;" d="M207.8,383.6h-25.7c-5.3,0-9.6-4.5-9.4-9.8l3.3-74.7h37.4l3.8,74.6
		C217.5,379.1,213.2,383.6,207.8,383.6z"/>
	<path d="M207.8,384.9h-25.7c-3,0-5.7-1.2-7.8-3.3c-2-2.1-3.1-4.9-3-7.9l3.3-74.7c0-0.7,0.6-1.3,1.3-1.3h37.4c0.7,0,1.3,0.6,1.3,1.3
		l3.8,74.6c0.2,3-0.9,5.8-2.9,7.9C213.6,383.8,210.8,384.9,207.8,384.9z M177.3,300.4l-3.3,73.4c-0.1,2.2,0.7,4.3,2.2,5.9
		c1.5,1.6,3.6,2.5,5.8,2.5h25.7c2.2,0,4.3-0.9,5.8-2.5c1.5-1.6,2.3-3.7,2.2-6l-3.7-73.4H177.3z"/>
</g>
<path style="fill:#007E2D;" d="M85.2,236.6c-14.7,14.9-29.4,29.7-44.1,44.6c-2.6,2.7-5.3,5.4-6.6,8.9c-3.2,8.8,4.4,18.5,13.3,21.2
	c9,2.7,18.6,0.4,27.6-1.9c2.5,12.2,12.9,22.5,25.2,24.8c12.3,2.3,25.7-3.4,32.5-13.9c9.5,12.5,23.5,22.8,39.2,23.6
	c15.7,0.8,32.5-10.4,33.8-26.1c2.5,8.7,12,14.7,20.9,13.2c8.9-1.5,16-10.4,15.4-19.4c17,12.4,39.9,16.5,60.1,10.6
	c5.9-1.7,11.9-4.5,15.7-9.3c3.8-4.9,4.8-12.3,1-17.2c6.4,2.4,12.9,4.8,19.7,4.5c6.8-0.2,13.9-3.8,16.3-10.2
	c3.7-9.9-5.3-19.7-13.4-26.6c-20.4-17.3-40.8-34.5-61.2-51.8c-20.1-17-41-34.5-66.2-42.2c-23.6-7.3-49.8-5.2-72,5.6
	c-22.1,10.8-39.9,30.3-48.6,53.4"/>
<path style="fill:#009715;" d="M120.4,176.8c-17.5,18.7-35.1,37.4-52.6,56c-6.4,6.8-13.3,15.4-11,24.4c1.9,7.3,9.6,12,17.1,12.7
	c7.5,0.7,15-1.6,22.2-3.9c-2.9,9.6,2.8,20.4,11.7,25c8.9,4.6,20,3.5,28.7-1.3c8.8-4.8,15.4-12.8,20.1-21.6
	c0.5,17.5,16.3,33.3,33.9,33.6c17.5,0.4,34-14.6,35.3-32.1c3,14.9,19.7,25.6,34.5,22.1c14.8-3.5,24.9-20.5,20.9-35.2
	c5.9,4.4,11.9,9.5,18.8,12.1c6.9,2.7,14.9,3.3,21.5,0.1c6.6-3.2,11.3-11,9.4-18.1c-1.1-4.4-4.4-7.9-7.6-11.3c-2.8-3,2.3-7-1.5-8.8
	c-19.5-9.5-32.7-27-45.5-40.4c-11.7-12.2-23.5-24.6-38-33.3c-18.1-10.7-39.8-15.1-60.6-12.2C156.9,147.7,134.8,161.5,120.4,176.8z"
	/>
<path style="fill:#007E2D;" d="M99.6,167.3c-12.1,12.2-24.2,24.5-36.3,36.7c-2.2,2.2-4.4,4.5-5.4,7.4c-2.6,7.2,3.6,15.3,11,17.5
	c7.4,2.2,15.3,0.3,22.8-1.6c2.1,10.1,10.7,18.5,20.8,20.4c10.1,1.9,21.2-2.8,26.8-11.4c7.9,10.3,19.3,18.8,32.3,19.5
	c13,0.7,26.7-8.6,27.9-21.5c2,7.2,9.9,12.1,17.3,10.9c7.3-1.2,13.1-8.5,12.7-16c14,10.3,32.9,13.6,49.5,8.7c4.9-1.4,9.8-3.7,13-7.7
	c3.1-4,4-10.2,0.8-14.2c5.2,2,10.7,3.9,16.2,3.7c5.6-0.2,11.5-3.1,13.4-8.4c3.1-8.2-4.3-16.3-11-21.9
	c-16.8-14.2-33.6-28.4-50.5-42.7c-16.6-14-33.8-28.4-54.6-34.8c-19.4-6-41.1-4.3-59.3,4.7c-18.2,8.9-32.9,25-40.1,44"/>
<g>
	<path style="fill:#765C49;" d="M85,293.4c-10.1,0-18-3.5-23.6-7.2c-9.4-6.3-14-14.4-14.2-14.8c-0.4-0.8-0.2-1.8,0.6-2.2
		c0.8-0.4,1.8-0.2,2.2,0.6l0,0c0,0.1,4.5,7.9,13.3,13.7c11.7,7.8,25.3,8.7,40.3,2.6c0.8-0.3,1.8,0.1,2.2,0.9
		c0.3,0.8-0.1,1.8-0.9,2.2C97.5,292.2,90.9,293.4,85,293.4z"/>
	<path style="fill:#00FF00;" d="M53.3,269.6c0.9,2.2-0.1,4.7-2.3,5.6c-2.2,0.9-4.7-0.1-5.6-2.3c-0.9-2.2,0.1-4.7,2.3-5.6
		C49.9,266.4,52.4,267.5,53.3,269.6z"/>
	<path style="fill:#FFDE00;" d="M66.8,283.7c0.9,2.2-0.1,4.7-2.3,5.6c-2.2,0.9-4.7-0.1-5.6-2.3c-0.9-2.2,0.1-4.7,2.3-5.6
		C63.4,280.5,65.9,281.5,66.8,283.7z"/>
	<path style="fill:#00FF00;" d="M88.3,290.3c0.9,2.2-0.1,4.7-2.3,5.6c-2.2,0.9-4.7-0.1-5.6-2.3c-0.9-2.2,0.1-4.7,2.3-5.6
		C84.8,287.1,87.4,288.2,88.3,290.3z"/>
</g>
<g>
	<path style="fill:#765C49;" d="M283.4,249.1c-11,0-23.7-3.9-35.1-10.9c-13.8-8.4-28.6-21.1-43.9-37.8c-0.6-0.7-0.6-1.7,0.1-2.3
		c0.7-0.6,1.7-0.6,2.3,0.1c15.1,16.4,29.7,29,43.2,37.2c11.7,7.1,24.6,10.9,35.5,10.3c12.3-0.6,26.5-7.9,33.7-17.2
		c0.6-0.7,1.6-0.9,2.3-0.3c0.7,0.6,0.9,1.6,0.3,2.3c-7.8,10.1-23,17.8-36.2,18.5C284.9,249.1,284.2,249.1,283.4,249.1z"/>
	<path style="fill:#00FF00;" d="M234.5,226.2c-1.1,2.1-3.8,2.8-5.8,1.7c-2.1-1.1-2.8-3.8-1.7-5.8c1.1-2.1,3.8-2.8,5.8-1.7
		C234.9,221.6,235.6,224.2,234.5,226.2z"/>
	<path style="fill:#FFDE00;" d="M256,240.2c-1.1,2.1-3.8,2.8-5.8,1.7c-2.1-1.1-2.8-3.8-1.7-5.8c1.1-2.1,3.8-2.8,5.8-1.7
		C256.4,235.5,257.2,238.1,256,240.2z"/>
	<path style="fill:#FFDE00;" d="M302.9,246.4c-1.1,2.1-3.8,2.8-5.8,1.7c-2.1-1.1-2.8-3.8-1.7-5.8c1.1-2.1,3.8-2.8,5.8-1.7
		C303.3,241.7,304,244.4,302.9,246.4z"/>
	<path style="fill:#00FF00;" d="M278.5,248.5c-1.1,2.1-3.8,2.8-5.8,1.7c-2.1-1.1-2.8-3.8-1.7-5.8c1.1-2.1,3.8-2.8,5.8-1.7
		C278.8,243.8,279.6,246.4,278.5,248.5z"/>
	<path style="fill:#FF007A;" d="M323.2,233.6c-1.1,2.1-3.8,2.8-5.8,1.7c-2.1-1.1-2.8-3.8-1.7-5.8c1.1-2.1,3.8-2.8,5.8-1.7
		C323.6,229,324.4,231.6,323.2,233.6z"/>
</g>
<path style="fill:#009715;" d="M130.1,105.2c-14.5,15.4-28.9,30.8-43.4,46.2c-5.3,5.6-10.9,12.7-9,20.1c1.5,6,7.9,9.9,14.1,10.5
	c6.2,0.6,12.4-1.3,18.3-3.2c-2.4,7.9,2.3,16.8,9.6,20.6c7.3,3.8,16.5,2.9,23.7-1.1c7.2-4,12.7-10.6,16.6-17.8
	c0.4,14.5,13.4,27.4,27.9,27.7c14.5,0.3,28.1-12,29.1-26.5c2.5,12.3,16.2,21.1,28.4,18.2c12.2-2.9,20.5-16.9,17.2-29
	c4.9,3.7,9.8,7.8,15.5,10c5.7,2.2,12.3,2.7,17.7,0.1c5.5-2.7,9.3-9.1,7.8-15c-0.9-3.6-3.6-6.5-6.2-9.3c-12.9-13.5-25.8-27-38.7-40.6
	c-9.6-10.1-19.4-20.3-31.3-27.4c-14.9-8.9-32.8-12.5-50-10C160.2,81.2,141.9,92.6,130.1,105.2z"/>
<path style="fill:#007E2D;" d="M116,112.5c-4.1,4.6-8.3,9.4-10.1,15.3c-1.8,5.9-0.7,13.1,4.3,16.7c5,3.6,13.7,0.8,14.3-5.3
	c1.8,12.3,13.2,22.5,25.6,22.8c12.4,0.4,24.4-9.2,26.9-21.3c3.1,11.8,14.8,20.6,27,20.4c12.1-0.2,23.5-9.5,26.2-21.4
	c4.5,7.9,14.7,12,23.4,9.4c8.7-2.6,15-11.6,14.4-20.7c-0.6-9.1-7-16.5-13.1-23.3c-8.5-9.4-17-18.8-25.5-28.2
	c-8.9-9.8-18.3-19.9-30.8-24.2c-15.6-5.3-34.1,0.3-43.8,13.5C142.7,82.4,129.4,97.3,116,112.5z"/>
<path style="fill:#009715;" d="M119.8,87.6c-3.3,4.3-6.9,9.1-5.5,15.4c1.1,4.8,4.6,8.1,8.8,8.8c8.8,1.6,16.2-5,22.9-11.3
	c-2.2,13.2,6.6,26.8,17.8,27.7c11.3,0.9,22.7-11,23.3-24.3c1.5,8.3,5.7,16.1,12.1,19.9c6.4,3.8,15,3.2,20.7-2.6
	c5.7-5.8,7.4-16.8,2.9-23.3c5.7,5.8,11.7,11.8,20,11.3c4.3-0.2,8.5-3,10.5-7.6c5.2-12.2-7.8-24.1-13.9-31.3
	c-12.4-14.5-26.3-28.2-36.4-44.9c-2.1-3.5-4.2-7.1-6.3-10.6c-5.5-9.5-17.6-9.4-23.7,0.4c-6.7,10.9-14.5,23-18.4,28.1
	C143,58.1,131.4,72.9,119.8,87.6z"/>
<g>
	<path style="fill:#765C49;" d="M129.6,232.2c-7.4,0-13.9-0.8-19.1-2.3c-26-7.9-34.5-36.6-34.8-37.8c-0.3-0.9,0.3-1.8,1.1-2
		c0.9-0.3,1.8,0.3,2,1.1c0.1,0.3,8.4,28.2,32.6,35.6c24.8,7.5,84.3-5.2,109-28c13.6-12.6,36.7-54.8,36.9-55.2
		c0.4-0.8,1.4-1.1,2.2-0.7c0.8,0.4,1.1,1.4,0.7,2.2c-1,1.8-23.6,43.1-37.6,56c-11.8,10.9-32.2,20.5-56,26.2
		C153.4,230.6,140.5,232.2,129.6,232.2z"/>
	<path style="fill:#00FF00;" d="M80.8,191.8c0,2.4-1.9,4.3-4.3,4.3c-2.4,0-4.3-1.9-4.3-4.3c0-2.4,1.9-4.3,4.3-4.3
		C78.9,187.5,80.8,189.4,80.8,191.8z"/>
	<path style="fill:#FF007A;" d="M89.5,208.8c0,2.4-1.9,4.3-4.3,4.3c-2.4,0-4.3-1.9-4.3-4.3c0-2.4,1.9-4.3,4.3-4.3
		C87.6,204.5,89.5,206.4,89.5,208.8z"/>
	
		<ellipse transform="matrix(8.248139e-02 -0.9966 0.9966 8.248139e-02 -130.6834 305.5438)" style="fill:#FFDE00;" cx="100.6" cy="223.7" rx="4.3" ry="4.3"/>
	<path style="fill:#00FF00;" d="M125.4,229.3c0,2.4-1.9,4.3-4.3,4.3s-4.3-1.9-4.3-4.3c0-2.4,1.9-4.3,4.3-4.3
		S125.4,226.9,125.4,229.3z"/>
	<path style="fill:#00FF00;" d="M145.9,228.9c0,2.4-1.9,4.3-4.3,4.3c-2.4,0-4.3-1.9-4.3-4.3c0-2.4,1.9-4.3,4.3-4.3
		C144,224.6,145.9,226.5,145.9,228.9z"/>
	
		<ellipse transform="matrix(0.2298 -0.9732 0.9732 0.2298 -92.9776 333.952)" style="fill:#FF007A;" cx="164.5" cy="225.7" rx="4.3" ry="4.3"/>
	<path style="fill:#00FF00;" d="M192.1,219.4c0,2.4-1.9,4.3-4.3,4.3s-4.3-1.9-4.3-4.3c0-2.4,1.9-4.3,4.3-4.3S192.1,217,192.1,219.4z
		"/>
	<path style="fill:#FFDE00;" d="M211.8,209.9c0,2.4-1.9,4.3-4.3,4.3c-2.4,0-4.3-1.9-4.3-4.3s1.9-4.3,4.3-4.3
		C209.9,205.7,211.8,207.6,211.8,209.9z"/>
	<path style="fill:#00FF00;" d="M229.5,195.3c0,2.4-1.9,4.3-4.3,4.3c-2.4,0-4.3-1.9-4.3-4.3s1.9-4.3,4.3-4.3
		C227.6,191.1,229.5,193,229.5,195.3z"/>
	<path style="fill:#00FF00;" d="M243.7,177.6c0,2.4-1.9,4.3-4.3,4.3c-2.4,0-4.3-1.9-4.3-4.3c0-2.4,1.9-4.3,4.3-4.3
		C241.8,173.3,243.7,175.2,243.7,177.6z"/>
	
		<ellipse transform="matrix(0.9239 -0.3827 0.3827 0.9239 -41.7722 108.113)" style="fill:#FFDE00;" cx="250.9" cy="159.1" rx="4.3" ry="4.3"/>
	<path style="fill:#00FF00;" d="M263.4,141.7c0,2.4-1.9,4.3-4.3,4.3c-2.4,0-4.3-1.9-4.3-4.3c0-2.4,1.9-4.3,4.3-4.3
		C261.5,137.4,263.4,139.3,263.4,141.7z"/>
</g>
<g>
	<path style="fill:#765C49;" d="M197,54.3c-14.7,0-36.9-14.5-37.8-15.1c-0.8-0.5-1-1.5-0.5-2.3c0.5-0.8,1.5-1,2.3-0.5
		c0.2,0.2,23.9,15.6,37.4,14.5c12.9-1.1,15.9-5.1,15.9-5.2c0.5-0.8,1.5-1,2.3-0.5c0.8,0.5,1,1.5,0.5,2.3c-0.3,0.6-3.8,5.5-18.4,6.7
		C198.1,54.3,197.5,54.3,197,54.3z"/>
	
		<ellipse transform="matrix(0.9239 -0.3827 0.3827 0.9239 -2.3928 64.3275)" style="fill:#FFDE00;" cx="160.5" cy="38.2" rx="4.3" ry="4.3"/>
	<path style="fill:#FF007A;" d="M181.8,46.5c0,2.4-1.9,4.3-4.3,4.3c-2.4,0-4.3-1.9-4.3-4.3c0-2.4,1.9-4.3,4.3-4.3
		C179.8,42.2,181.8,44.1,181.8,46.5z"/>
	
		<ellipse transform="matrix(0.9239 -0.3827 0.3827 0.9239 -5.0954 79.9286)" style="fill:#FFDE00;" cx="198.4" cy="52.8" rx="4.3" ry="4.3"/>
	<circle style="fill:#FFDE00;" cx="215.7" cy="46.1" r="4.3"/>
</g>
<g>
	<path style="fill:#765C49;" d="M158,140.5c-0.8,0-1.6,0-2.4-0.1c-27.3-1.4-43.3-26.2-44-27.2c-0.5-0.8-0.3-1.8,0.5-2.3
		c0.8-0.5,1.8-0.3,2.3,0.5c0.2,0.2,15.9,24.4,41.4,25.7c25.7,1.3,48.5-20.8,48.7-21c0.7-0.6,1.7-0.6,2.3,0c0.6,0.7,0.6,1.7,0,2.3
		C205.8,119.4,184.1,140.5,158,140.5z"/>
	<path style="fill:#00FF00;" d="M116.6,111.5c0.6,2.3-0.7,4.6-3,5.3c-2.3,0.6-4.6-0.7-5.3-3c-0.6-2.3,0.7-4.6,3-5.3
		C113.6,107.9,116,109.2,116.6,111.5z"/>
	<path style="fill:#FF007A;" d="M129.3,125.2c0.6,2.3-0.7,4.6-3,5.3c-2.3,0.6-4.6-0.7-5.3-3c-0.6-2.3,0.7-4.6,3-5.3
		C126.3,121.6,128.7,123,129.3,125.2z"/>
	<path style="fill:#FFDE00;" d="M145.7,134.3c0.6,2.3-0.7,4.6-3,5.3c-2.3,0.6-4.6-0.7-5.3-3c-0.6-2.3,0.7-4.6,3-5.3
		C142.7,130.7,145,132,145.7,134.3z"/>
	<path style="fill:#FFDE00;" d="M167.3,137.4c0.6,2.3-0.7,4.6-3,5.3c-2.3,0.6-4.6-0.7-5.3-3c-0.6-2.3,0.7-4.6,3-5.3
		C164.4,133.8,166.7,135.1,167.3,137.4z"/>
	<path style="fill:#FF007A;" d="M188.6,131.3c0.6,2.3-0.7,4.6-3,5.3c-2.3,0.6-4.6-0.7-5.3-3c-0.6-2.3,0.7-4.6,3-5.3
		C185.6,127.6,187.9,129,188.6,131.3z"/>
	<path style="fill:#FF007A;" d="M209.1,116.7c0.6,2.3-0.7,4.6-3,5.3c-2.3,0.6-4.6-0.7-5.3-3c-0.6-2.3,0.7-4.6,3-5.3
		C206.2,113.1,208.5,114.4,209.1,116.7z"/>
</g>
<g id="ornament_x5F_application_5_">
	<path style="fill:#00DB00;" d="M228.5,261.5c-0.1-1.7-0.9-3.4-2-4.6c2.5-0.7,4.5-3.8,4.4-7.1c1.1,2.8,3.8,3.8,6.7,3.7
		c-0.6,2.3,0.2,4.9,2,6.4c-1.3,2.2-0.7,5.3,1.2,7c-2.1,0.7-3.5,3.1-3.1,5.3c-0.8-0.8-2.1-0.9-3.1-0.4c-1,0.5-1.6,1.7-1.4,2.8
		c-0.5-1.7-2.5-2.8-4.2-2.2c0.4-0.1,0.4-1.8,0.3-2.1c-0.1-0.7-0.3-1.5-0.6-2.1c-0.3-0.5-1.9-1.6-1.9-1.6s1.2-1.4,1.4-2
		C228.4,263.5,228.6,262.5,228.5,261.5z"/>
	<path style="fill:#00E500;" d="M219.1,274.9c0-1.9-0.9-3.7-2.2-5c-1.4-1.3-3.3-2-5.2-1.9c1.3-1.2,1.5-3.3,0.9-5
		c-0.6-1.7-1.7-3.1-3-4.4c2.7,1.4,6.4,0.8,8.5-1.5c0.5,2.3,2.9,4.1,5.3,3.8c-0.5,0.8,0,1.7,0.6,2.4c1.2,1.4,3.1,2.2,4.9,2.2
		c-0.4,2.4,0.5,5,2.4,6.7c-0.2-0.2-1,0-1.2,0.1c-0.4,0.1-0.8,0.3-1.1,0.5c-0.3,0.2-0.6,0.5-0.9,0.9c-0.2,0.3-0.3,0.8-0.5,1.1
		c-0.3,0.3-0.7,0-1.1-0.2c-0.4-0.2-0.9-0.3-1.4-0.4c-0.9-0.2-1.9-0.2-2.9-0.1C221.2,274.1,220.1,274.4,219.1,274.9z"/>
	<g style="opacity:0.5;">
		<path style="fill:#009100;" d="M218,264c-0.4,0-0.7,0.3-0.7,0.6c0,0.2,0.1,0.4,0.2,0.5c0.2,0.2,6,5.6,8.9,6.9
			c0.3,0.2,0.7,0,0.9-0.3c0.2-0.3,0-0.7-0.3-0.9l0,0c-2.7-1.2-8.5-6.7-8.5-6.7C218.3,264,218.2,264,218,264z"/>
		<path style="fill:#009100;" d="M232.5,258.4L232.5,258.4c-0.3,0.1-0.5,0.4-0.5,0.8c0,0.1,1.5,5.8,0.8,8.5c0,0,0,0.1,0,0.1
			c-0.1,0.3,0.2,0.7,0.5,0.8c0.3,0.1,0.7-0.2,0.8-0.5c0.8-3.1-0.7-8.9-0.7-9.2C233.2,258.5,232.9,258.3,232.5,258.4L232.5,258.4z"/>
	</g>
	<path style="fill:#F80000;" d="M236,280.2c-1.7-0.1-3.2-1.3-3.6-3c-0.1-0.3,0-0.5,0.3-0.7l4.8-3.4c0.1-0.1,0.3-0.1,0.4-0.1
		c0.1,0,0.2,0,0.3,0.1c1.8,1.1,2.4,3.5,1.3,5.3C238.8,279.6,237.4,280.3,236,280.2z"/>
	<path style="fill:#E40000;" d="M230.3,278.7c2.5,0.1,4.6-1.8,4.7-4.3c0.1-2.5-1.8-4.6-4.3-4.7c-2.5-0.1-4.6,1.8-4.7,4.3
		C225.9,276.5,227.8,278.6,230.3,278.7z"/>
	<path style="fill:#FF0000;" d="M234.2,276.3c2.5,0.1,4.6-1.8,4.7-4.3c0.1-2.5-1.8-4.6-4.3-4.7c-2.5-0.1-4.6,1.8-4.7,4.3
		C229.8,274.1,231.8,276.2,234.2,276.3z"/>
</g>
<g id="bell_x5F_application_5_">
	<g>
		<path style="fill:#FF8400;" d="M158.8,206.8L158.8,206.8c1.9,0,3.5-1.5,3.5-3.5l-0.8-0.7h-5.3l-0.8,0.7
			C155.4,205.3,156.9,206.8,158.8,206.8z"/>
		<path style="fill:#FFC100;" d="M147.4,203.4h22.7c0.6,0,1.1-0.5,1.1-1.1v0c0-0.6-0.5-1.1-1.1-1.1l-1-0.7h-20.6l-1.1,0.7
			c-0.6,0-1.1,0.5-1.1,1.1v0C146.3,202.9,146.8,203.4,147.4,203.4z"/>
		<path style="fill:#FF9100;" d="M167.8,202.2L167.8,202.2c0,0.6-0.5,1.1-1.1,1.1h3.4c0.6,0,1.1-0.5,1.1-1.1v0
			c0-0.6-0.5-1.1-1.1-1.1l-1-0.7h-3.4l1,0.7C167.3,201.2,167.8,201.6,167.8,202.2z"/>
		<path style="fill:#FFFFFF;" d="M149.2,195.2c1.1-1.1,1.8-2.5,1.8-4.1v-5.3c0-4.3,3.5-7.8,7.8-7.8c4.3,0,7.8,3.5,7.8,7.8v5.3
			c0,1.5,0.6,3,1.8,4.1l1.8,1.7h-9.9h-3h-9.9L149.2,195.2z"/>
		<path style="fill:#FFC100;" d="M149.2,195.2c1.1-1.1,1.8-2.5,1.8-4.1v-5.3c0-4.3,3.5-7.8,7.8-7.8c4.3,0,7.8,3.5,7.8,7.8v5.3
			c0,1.5,0.6,3,1.8,4.1l1.8,1.7l-1.6,0.7H149l-1.6-0.7L149.2,195.2z"/>
		<path style="fill:#FF9100;" d="M157,178.2c1.5,0.3,2.8,1.1,3.8,2.1c1.4,1.4,2.3,3.4,2.3,5.5v5.3c0,1.5,0.6,3,1.8,4.1l1.8,1.7h3.4
			l-1.8-1.7c-1.1-1.1-1.8-2.5-1.8-4.1v-5.3c0-2.2-0.9-4.1-2.3-5.5c-1.4-1.4-3.4-2.3-5.5-2.3C158.1,178,157.6,178.1,157,178.2z"/>
		<path style="fill:#FF9100;" d="M146.3,197.7v2.6c0,0.5,0.4,0.8,0.8,0.8h23.2c0.5,0,0.8-0.4,0.8-0.8v-2.6c0-0.5-0.4-0.8-0.8-0.8
			h-23.2C146.7,196.9,146.3,197.2,146.3,197.7z"/>
		<path style="fill:#FF8400;" d="M166.9,201.2h3.4c0.5,0,0.8-0.4,0.8-0.8v-2.6c0-0.5-0.4-0.8-0.8-0.8h-3.4c0.5,0,0.9,0.4,0.9,0.9
			v2.6C167.8,200.8,167.4,201.2,166.9,201.2z"/>
	</g>
	<g>
		<path style="fill:#FF0000;" d="M160.3,174.9c0,0,2.2-3,7.9-3.1c1,0,1.9,0.8,1.8,1.8c0,0.4-0.1,1-0.3,1.6c0,0-0.4,0.8-0.2,1.8
			c0.2,1,1.4,3,0.3,4.3c-1.4,1.8-7.3,0.5-9.7-2.2L160.3,174.9z"/>
		<path style="fill:#FF0000;" d="M157.2,174.9c0,0-2.2-3-7.9-3.1c-1,0-1.9,0.8-1.8,1.8c0,0.4,0.1,1,0.3,1.6c0,0,0.4,0.8,0.2,1.8
			c-0.2,1-1.4,3-0.3,4.3c1.4,1.8,7.3,0.5,9.7-2.2L157.2,174.9z"/>
		<g>
			<path style="fill:#FF0000;" d="M159.2,179.9H158c-1,0-1.7-0.8-1.7-1.7v-2.4c0-1,0.8-1.7,1.7-1.7h1.1c1,0,1.7,0.8,1.7,1.7v2.4
				C160.9,179.1,160.1,179.9,159.2,179.9z"/>
		</g>
		<g>
			<path style="fill:#EA0000;" d="M169.4,177c-0.2-1,0.2-1.8,0.2-1.8c0.2-0.6,0.3-1.2,0.3-1.6c0.1-1-0.8-1.9-1.8-1.8
				c-0.2,0-0.3,0-0.5,0c0.6,0.3,1.1,0.9,1,1.6c-0.1,0.7-0.6,1.3-0.7,2c-0.1,0.7,0.2,1.3,0.2,2c0.2,1.7-0.5,2.8-1.6,3.5
				c-0.7,0.5-1.8,0.5-2.7,0.6c2.4,0.8,4.9,0.9,5.8-0.2C170.8,180,169.6,178,169.4,177z"/>
		</g>
	</g>
</g>
<g id="socks_x5F_application_5_">
	<g>
		<path style="fill:#E2EFFA;" d="M141.8,291.2l-12.6-6.6c-0.5-0.3-1.1-0.1-1.3,0.4l-0.8,1.5c-0.6,1.1-0.3,1.6,0.2,1.9l12.6,6.6
			c0.5,0.3,1.1,0.1,1.6-1l0.8-1.5C142.5,292,142.3,291.4,141.8,291.2z"/>
		<path style="fill:#FF0000;" d="M133.6,291.6l-6.3-2.6l-4,7.6l-6.4-0.7c-0.8-0.1-1.6,0-2.4,0.2c-0.8,0.2,1.4,12.3,1.4,12.3
			c0.1,0,0.1,0,0.2,0l4.3,1.1l4.8-0.2l9.8-5.3l4.6-8.8L133.6,291.6z"/>
		<path style="fill:#E2EFFA;" d="M126.2,310.1c3.2,0.3,6.5-1.9,8-4.8l0.6-1.2c-3.4-1.5-7.3-0.1-9.1,3.2c-0.4,0.7-0.6,1.4-0.7,2.1
			L126.2,310.1z"/>
		<path style="fill:#C3DEF0;" d="M140.2,294.4l-12.6-6.6c-0.5-0.3-0.7-0.9-0.4-1.3l-0.6,1.1c-0.3,0.5-0.1,1.1,0.4,1.3l12.6,6.6
			c0.5,0.3,1.1,0.1,1.3-0.4l0.6-1.1C141.3,294.4,140.7,294.6,140.2,294.4z"/>
		<path style="fill:#E2EFFA;" d="M109.7,301c-0.3,3.2,1.4,6.7,4.4,7.7l1.7-0.2c0.4-0.5,0.7-1,1-1.5c2-3.8,0.9-8.3-2.4-10.8
			c-1.7,0.4-3.2,1.5-4.1,3C110.1,299.7,109.8,300.4,109.7,301z"/>
		<path style="fill:#C3DEF0;" d="M109.9,301c0.1-0.7,0.2-1.3,0.5-1.9c-0.6,0.9-0.9,1.9-1,3c-0.4,3.6,2.1,6.7,5.5,7.4l1.1-0.3
			l-0.1-0.7C112.2,308,109.5,304.7,109.9,301L109.9,301z"/>
		<path style="fill:#C3DEF0;" d="M126.3,309.5l-1.3-0.1l-0.5,0.6l0.4,0.5l0.8,0.1c3.2,0.3,6.4-1.4,7.9-4.2l0.6-1.1
			C132.7,308.2,129.5,309.9,126.3,309.5L126.3,309.5z"/>
		<path style="fill:#F20000;" d="M124.9,310.5c0-0.4,0-0.7,0.1-1.1l-9-0.9c-0.1,0-0.1,0-0.2,0c-0.3,0.4-0.6,0.7-1,1
			c0.2,0,0.4,0.1,0.6,0.1L124.9,310.5z"/>
	</g>
</g>
<circle style="fill:#FFD100;" cx="238.9" cy="120.4" r="5.5"/>
<circle style="fill:#FFD100;" cx="238.9" cy="120.4" r="5.5"/>
<g>
	<path d="M185.2,7.7c4.4,0,8.7,2.3,11.4,7c2,3.6,4.1,7.1,6.3,10.6c3.5,5.8,7.5,11.3,11.7,16.5c0.4-0.1,0.7-0.1,1.1-0.1
		c2.4,0,4.3,1.9,4.3,4.3c0,0.7-0.2,1.3-0.4,1.9c6.5,7.6,13.3,14.9,19.7,22.4c6.1,7.2,19.2,19.1,13.9,31.3c-0.2,0.4-0.4,0.8-0.6,1.1
		c0.7,0.8,1.4,1.5,2.1,2.3c5.4,6,11.2,12.6,12.7,20.4c9.9,10.4,19.9,20.9,29.8,31.3c2.6,2.7,5.3,5.6,6.2,9.3c1.2,4.7-1,9.7-4.7,12.9
		c4.1,3.5,8.2,7,12.4,10.5c6.7,5.6,14.1,13.7,11,21.9c-2,5.2-7.8,8.2-13.4,8.4c-0.3,0-0.5,0-0.8,0c-1.3,0-2.6-0.1-3.9-0.3
		c2.5,2.6,5,5.3,7.5,7.9l4.7,1.2c0.8-0.8,1.9-1.2,3-1.2c0.7,0,1.4,0.2,2.1,0.5c2.1,1.1,2.8,3.8,1.7,5.8c-0.7,1.3-2,2-3.3,2.2
		c1.1,1.2,2.3,2.4,3.4,3.6c3.2,3.3,6.4,6.8,7.6,11.3c0.3,1.2,0.4,2.5,0.4,3.7c3.6,3,7.1,6,10.7,9.1c8.1,6.8,17.1,16.6,13.4,26.6
		c-2.4,6.4-9.5,9.9-16.3,10.2c-0.3,0-0.6,0-1,0c-6.4,0-12.7-2.3-18.8-4.5c3.8,4.9,2.8,12.3-1,17.2c-3.8,4.9-9.8,7.6-15.7,9.3
		c-6.2,1.8-12.6,2.7-19,2.7c-14.6,0-29.3-4.6-41.1-13.2c0.5,9-6.5,17.9-15.4,19.4c-0.9,0.2-1.9,0.2-2.8,0.2c-8,0-16-5.7-18.2-13.5
		c-1.3,15.2-16.9,26.2-32.2,26.2c-0.5,0-1.1,0-1.6,0c-15.7-0.8-29.7-11.1-39.2-23.6c-5.8,8.9-16.4,14.4-27,14.4
		c-1.8,0-3.7-0.2-5.5-0.5c-12.3-2.3-22.7-12.5-25.2-24.8c-6.2,1.6-12.6,3.2-18.9,3.2c-3,0-5.9-0.3-8.7-1.2
		c-9-2.7-16.5-12.4-13.3-21.2c1.3-3.5,4-6.3,6.6-8.9c2-2.1,4.1-4.1,6.1-6.2c-0.8-0.5-1.5-1.2-1.9-2.1c-0.9-2.2,0.1-4.7,2.3-5.6
		c0.5-0.2,1.1-0.3,1.6-0.3c1.5,0,2.9,0.8,3.7,2.1c2.1-2.2,4.3-4.3,6.4-6.5c-1.3-1.6-2.2-3.4-2.7-5.4c-2.3-9,4.6-17.6,11-24.4
		c1.1-1.2,2.2-2.3,3.3-3.5c-0.7-0.1-1.5-0.3-2.2-0.5c-7.4-2.2-13.6-10.2-11-17.5c1-2.9,3.3-5.2,5.4-7.4c3.2-3.3,6.5-6.5,9.7-9.8
		c-0.5-0.7-0.8-1.5-0.8-2.4c0-2.4,1.9-4.3,4.3-4.3c0.9,0,1.7,0.3,2.4,0.7c2.5-2.5,5-5.1,7.5-7.6c-4.2-1.7-7.7-4.9-8.8-9.2
		c-1.9-7.4,3.8-14.5,9-20.1c6.1-6.5,12.2-13,18.4-19.6c0.1-1.4,0.4-2.8,0.8-4.1c1.3-4,3.6-7.5,6.3-10.8c-1.8-0.1-3.3-1.4-3.8-3.2
		c-0.6-2.3,0.7-4.6,3-5.3c0.4-0.1,0.8-0.1,1.1-0.1c1.9,0,3.6,1.3,4.1,3.2c0,0.1,0,0.1,0,0.2c0.6-0.7,1.2-1.3,1.8-2
		c-2-1.6-3.5-3.9-4.1-6.7c-1.4-6.3,2.2-11.1,5.5-15.4c11.6-14.8,23.1-29.5,34.7-44.3c0.7-0.8,1.4-1.9,2.2-3
		c-0.3-0.6-0.5-1.3-0.5-2.1c0-2.4,1.9-4.3,4.3-4.3c0.2,0,0.4,0,0.6,0c3.7-5.6,8-12.4,11.9-18.7C176,10.2,180.7,7.7,185.2,7.7
		 M185.2,5.1C185.2,5.1,185.2,5.1,185.2,5.1c-5.7,0-11.2,3.3-14.5,8.7c-4.3,6.9-8,12.8-11.1,17.5c-3.4,0.4-6.1,3.4-6.1,6.9
		c0,0.6,0.1,1.1,0.2,1.7c-0.5,0.7-0.9,1.3-1.3,1.8L117.7,86c-3.3,4.2-7.7,9.9-6,17.6c0.2,0.7,0.4,1.4,0.6,2.1
		c-0.6,0-1.1,0.1-1.7,0.2c-3.7,1-5.9,4.8-4.9,8.5c0.4,1.4,1.2,2.6,2.2,3.5c-2.3,3.2-3.7,6-4.7,9c-0.4,1.2-0.6,2.4-0.8,3.7
		l-11.7,12.5l-6,6.4c-6,6.4-11.9,14.1-9.7,22.6c0.9,3.7,3.4,6.9,6.9,9.2l-3.1,3.2l-0.6,0.6c-0.6-0.1-1.2-0.2-1.8-0.2
		c-3.8,0-7,3.1-7,7c0,0.6,0.1,1.2,0.2,1.8l-8.4,8.5c-2.1,2.2-4.8,4.8-6,8.3c-1.3,3.5-0.9,7.4,0.9,11.1c2,4,5.7,7.4,9.9,9.2l-0.3,0.3
		c-7.2,7.6-14.2,16.8-11.6,26.9c0.4,1.5,1,3,1.8,4.4l-3,3c-1.1-0.7-2.4-1.1-3.7-1.1c-0.9,0-1.8,0.2-2.7,0.5
		c-1.7,0.7-3.1,2.1-3.8,3.8c-0.7,1.7-0.7,3.6,0,5.3c0.2,0.4,0.3,0.7,0.6,1.1l-4.3,4.3c-2.7,2.7-5.7,5.8-7.2,9.9
		c-1.5,4.1-1.1,8.7,1,13c2.7,5.4,8.1,9.9,14,11.7c3,0.9,6.1,1.3,9.5,1.3c5.6,0,11-1.1,16.9-2.6c3.6,12.1,14.2,21.8,26.7,24.2
		c2,0.4,4,0.6,6,0.6c5.7,0,11.4-1.4,16.5-4.2c4.1-2.2,7.7-5.1,10.5-8.5c11.1,13.2,25.1,21.2,39,21.9c0.6,0,1.2,0,1.8,0
		c8.1,0,16.5-2.9,23-8c4.8-3.7,8.2-8.3,10.2-13.3c4.1,5.2,10.5,8.6,17.2,8.6c1.1,0,2.2-0.1,3.2-0.3c5-0.8,9.5-3.6,12.9-7.9
		c2.2-2.8,3.7-6,4.4-9.4c11.4,7.2,25,11.1,38.8,11.1c6.8,0,13.4-0.9,19.7-2.8c7.9-2.3,13.5-5.7,17.1-10.3c2.2-2.9,3.6-6.4,3.9-10
		c0.1-1.5,0.1-2.9-0.2-4.2c4.4,1.5,9.1,2.6,13.9,2.6c0.4,0,0.7,0,1.1,0c7.2-0.3,15.8-4,18.7-11.9c2-5.3,1.1-10.9-2.5-16.8
		c-2.5-4.1-6.3-8.3-11.7-12.8l-7.6-6.4l-2.2-1.8c-0.1-1.1-0.2-2.1-0.5-3.1c-1.3-5.2-5.2-9.2-8.2-12.4l-0.9-1c0.5-0.5,0.9-1,1.2-1.6
		c1.9-3.4,0.6-7.6-2.7-9.5c-1-0.6-2.2-0.9-3.4-0.9c-1.3,0-2.5,0.3-3.6,1l-2.8-0.7l-0.6-0.6l-1.9-2c5.7-0.7,11.9-3.9,14.2-10
		c1.7-4.5,1-9.3-2.1-14.2c-2.1-3.4-5.3-6.9-9.7-10.6l-6.2-5.2l-4-3.4c3.2-3.9,4.5-8.9,3.3-13.4c-1.1-4.4-4.3-7.8-6.9-10.5
		l-12.7-13.3L270,124.1c-1.8-7.9-7.3-14.4-13.2-20.9l-0.9-1c4.9-12.1-5.3-23.4-12-30.8c-0.9-1-1.8-2-2.5-2.8
		c-3.1-3.7-6.4-7.3-9.6-10.9c-3-3.4-6.2-6.9-9.2-10.4c0.1-0.4,0.1-0.8,0.1-1.2c0-3.8-3.1-6.9-6.9-7c-4.2-5.3-7.7-10.3-10.6-15.1
		c-2-3.3-4.1-6.9-6.2-10.6C195.9,8.2,190.8,5.1,185.2,5.1L185.2,5.1z"/>
</g>
<g id="ornament_x5F_application_2_">
	<path style="fill:#00DB00;" d="M143.2,75.8c-0.1-1.7-0.9-3.4-2-4.6c2.5-0.7,4.5-3.8,4.4-7.1c1.1,2.8,3.8,3.8,6.7,3.7
		c-0.6,2.3,0.2,4.9,2,6.4c-1.3,2.2-0.7,5.3,1.2,7c-2.1,0.7-3.5,3.1-3.1,5.3c-0.8-0.8-2.1-0.9-3.1-0.4c-1,0.5-1.6,1.7-1.4,2.8
		c-0.5-1.7-2.5-2.8-4.2-2.2c0.4-0.1,0.4-1.8,0.3-2.1c-0.1-0.7-0.3-1.5-0.6-2.1c-0.3-0.5-1.9-1.6-1.9-1.6s1.2-1.4,1.4-2
		C143.2,77.8,143.3,76.8,143.2,75.8z"/>
	<path style="fill:#00E500;" d="M133.9,89.2c0-1.9-0.9-3.7-2.2-5s-3.3-2-5.2-1.9c1.3-1.2,1.5-3.3,0.9-5c-0.6-1.7-1.7-3.1-3-4.4
		c2.7,1.4,6.4,0.8,8.5-1.5c0.5,2.3,2.9,4.1,5.3,3.8c-0.5,0.8,0,1.7,0.6,2.4c1.2,1.4,3.1,2.2,4.9,2.2c-0.4,2.4,0.5,5,2.4,6.7
		c-0.2-0.2-1,0-1.2,0.1c-0.4,0.1-0.8,0.3-1.1,0.5c-0.3,0.2-0.6,0.5-0.9,0.9c-0.2,0.3-0.3,0.8-0.5,1.1c-0.3,0.3-0.7,0-1.1-0.2
		c-0.4-0.2-0.9-0.3-1.4-0.4c-0.9-0.2-1.9-0.2-2.9-0.1C135.9,88.4,134.8,88.7,133.9,89.2z"/>
	<g style="opacity:0.5;">
		<path style="fill:#009100;" d="M132.8,78.3c-0.4,0-0.7,0.3-0.7,0.6c0,0.2,0.1,0.4,0.2,0.5c0.2,0.2,6,5.6,8.9,6.9
			c0.3,0.2,0.7,0,0.9-0.3c0.2-0.3,0-0.7-0.3-0.9l0,0c-2.7-1.2-8.5-6.7-8.5-6.7C133.1,78.4,132.9,78.3,132.8,78.3z"/>
		<path style="fill:#009100;" d="M147.2,72.7L147.2,72.7c-0.3,0.1-0.5,0.4-0.5,0.8c0,0.1,1.5,5.8,0.8,8.5c0,0,0,0.1,0,0.1
			c-0.1,0.3,0.2,0.7,0.5,0.8c0.3,0.1,0.7-0.2,0.8-0.5c0.8-3.1-0.7-8.9-0.7-9.2C148,72.8,147.6,72.6,147.2,72.7L147.2,72.7z"/>
	</g>
	<path style="fill:#F80000;" d="M150.7,94.5c-1.7-0.1-3.2-1.3-3.6-3c-0.1-0.3,0-0.5,0.3-0.7l4.8-3.4c0.1-0.1,0.3-0.1,0.4-0.1
		c0.1,0,0.2,0,0.3,0.1c1.8,1.1,2.4,3.5,1.3,5.3C153.5,93.9,152.1,94.6,150.7,94.5z"/>
	<path style="fill:#E40000;" d="M145,93c2.5,0.1,4.6-1.8,4.7-4.3c0.1-2.5-1.8-4.6-4.3-4.7c-2.5-0.1-4.6,1.8-4.7,4.3
		C140.6,90.8,142.5,92.9,145,93z"/>
	<path style="fill:#FF0000;" d="M149,90.6c2.5,0.1,4.6-1.8,4.7-4.3c0.1-2.5-1.8-4.6-4.3-4.7c-2.5-0.1-4.6,1.8-4.7,4.3
		C144.5,88.4,146.5,90.5,149,90.6z"/>
</g>
<g>
	<path style="fill:#FFFFFF;" d="M229.7,138.9c0.1,0,0.1-0.1,0.2-0.1c0,0,0.1,0,0.1-0.1c0.1,0,0.2-0.1,0.3-0.1c0,0,0.1,0,0.1-0.1
		c0.1,0,0.1-0.1,0.2-0.1c0.1,0,0.1,0,0.2-0.1c0.1,0,0.2-0.1,0.2-0.1c0,0,0.1,0,0.1,0c0.1,0,0.2,0,0.3-0.1c0.1,0,0.1,0,0.2,0
		c0.1,0,0.1,0,0.2,0c0,0,0.1,0,0.1,0c0.1,0,0.2,0,0.3,0c0,0,0.1,0,0.1,0c0.1,0,0.2,0,0.2,0c0,0,0.1,0,0.1,0c0.1,0,0.2,0,0.3,0
		c0,0,0.1,0,0.1,0c0.1,0,0.2,0,0.3,0c0,0,0.1,0,0.1,0c0.1,0,0.2,0,0.3,0c0,0,0.1,0,0.1,0c0.1,0,0.2,0,0.3,0c0,0,0.1,0,0.1,0
		c0.1,0,0.2,0,0.3,0c0,0,0.1,0,0.1,0c0.1,0,0.2,0,0.3,0.1c0,0,0.1,0,0.1,0c0.1,0,0.2,0,0.3,0.1c0,0,0,0,0.1,0c0.1,0,0.2,0.1,0.3,0.1
		c0,0,0.1,0,0.1,0c0.1,0,0.2,0.1,0.3,0.1c0,0,0.1,0,0.1,0c0.1,0,0.2,0.1,0.3,0.1c0,0,0.1,0,0.1,0c0.1,0,0.2,0.1,0.3,0.1
		c0,0,0.1,0,0.1,0c0.1,0,0.2,0.1,0.3,0.1c0.8,0.4,1.5,0.9,2.1,1.6c1.5,1.5,2.3,3.5,2.4,5.4l0,0c0,0,0,0,0,0c0,0.1,0,0.3,0,0.4
		c0,0,0,0,0,0c0,0.1,0,0.3,0,0.4c0,0,0,0,0,0c0,0.9-0.2,1.8-0.5,2.6c0,0,0,0,0,0.1c0,0.1-0.1,0.2-0.1,0.3c0,0,0,0.1,0,0.1
		c0,0.1-0.1,0.2-0.1,0.3c0,0,0,0.1-0.1,0.1c0,0.1-0.1,0.2-0.1,0.3c0,0-0.1,0.1-0.1,0.1c0,0.1-0.1,0.2-0.1,0.2c0,0-0.1,0.1-0.1,0.1
		c-0.1,0.1-0.1,0.2-0.2,0.2c0,0-0.1,0.1-0.1,0.1c-0.1,0.1-0.1,0.2-0.2,0.2c0,0-0.1,0.1-0.1,0.1c-0.1,0.1-0.1,0.2-0.2,0.2
		c0,0-0.1,0.1-0.1,0.1c-0.1,0.1-0.2,0.2-0.3,0.3c0,0,0,0,0,0l-1.1,1l0,0l-4.1,4h0l-4,3.9l0,0l-3.5,3.4v0l-0.5,0.5
		c-0.1,0.1-0.2,0.1-0.2,0.2c-0.1,0.1-0.2,0.1-0.2,0.2c-0.1,0.1-0.2,0.1-0.3,0.1c0,0,0,0,0,0c-1.2,0.6-2.6,0.4-3.6-0.6
		c-0.1-0.1-0.1-0.1-0.2-0.2c0,0,0,0,0,0c0-0.1-0.1-0.1-0.1-0.2c0,0,0,0,0,0c0-0.1-0.1-0.1-0.1-0.2c0,0,0,0,0,0
		c0-0.1-0.1-0.1-0.1-0.2c0,0,0,0,0,0c0-0.1-0.1-0.1-0.1-0.2c0,0,0,0,0,0c0-0.1,0-0.1-0.1-0.2c0,0,0,0,0,0c0-0.1,0-0.1-0.1-0.2
		c0,0,0,0,0,0c0-0.1,0-0.1,0-0.2c0,0,0,0,0,0c0-0.1,0-0.1,0-0.2c0,0,0,0,0,0c0-0.1,0-0.1,0-0.2c0,0,0,0,0,0c0-0.1,0-0.1,0-0.2
		c0,0,0,0,0,0c0-0.1,0-0.1,0-0.2c0,0,0,0,0,0c0-0.1,0.1-0.3,0.1-0.4c0,0,0,0,0,0c0-0.1,0.1-0.1,0.1-0.2c0,0,0,0,0,0
		c0-0.1,0.1-0.1,0.1-0.2v0l0,0c0.1-0.3,0.3-0.5,0.6-0.7l13.2-12.9c0,0,0,0,0,0c0.1-0.1,0.1-0.1,0.2-0.2c0,0,0,0,0,0
		c0-0.1,0.1-0.1,0.1-0.2c0.7-0.9,0.6-2.3-0.3-3.1c0,0-0.1-0.1-0.1-0.1c0,0,0,0,0,0c0,0-0.1-0.1-0.1-0.1c0,0,0,0,0,0
		c0,0-0.1-0.1-0.2-0.1c0,0,0,0,0,0c-0.1,0-0.1-0.1-0.2-0.1c0,0,0,0,0,0c-0.1,0-0.1,0-0.2-0.1c0,0,0,0,0,0c-0.1,0-0.1,0-0.2-0.1
		c0,0,0,0,0,0c-0.1,0-0.1,0-0.2,0c0,0,0,0,0,0c-0.1,0-0.1,0-0.2,0c0,0,0,0,0,0c-0.1,0-0.2,0-0.4,0c0,0,0,0,0,0c-0.1,0-0.1,0-0.2,0
		c0,0,0,0,0,0c-0.1,0-0.3,0-0.4,0.1c0,0,0,0,0,0c-0.1,0-0.1,0-0.2,0.1c0,0,0,0,0,0c-0.1,0-0.2,0.1-0.4,0.2l0,0
		c-0.2,0.1-0.4,0.2-0.5,0.4l-2.6,2.5c-0.3,0.3-0.8,0.6-1.2,0.7v0c0,0,0,0,0,0c-0.1,0-0.1,0-0.2,0.1c0,0,0,0,0,0
		c-0.1,0-0.3,0.1-0.4,0.1c0,0,0,0,0,0c-0.1,0-0.3,0-0.4,0c0,0,0,0,0,0c-0.1,0-0.1,0-0.2,0c0,0,0,0,0,0c-0.1,0-0.1,0-0.2,0
		c0,0,0,0,0,0c-0.1,0-0.1,0-0.2,0c0,0,0,0,0,0c-0.1,0-0.2-0.1-0.4-0.1c0,0,0,0,0,0c-0.1,0-0.1,0-0.2-0.1c0,0,0,0,0,0
		c-0.1,0-0.1-0.1-0.2-0.1c0,0,0,0,0,0c0,0-0.1-0.1-0.1-0.1c0,0,0,0,0,0c-0.1,0-0.1-0.1-0.2-0.1c0,0,0,0,0,0c0,0-0.1-0.1-0.1-0.1
		c0,0,0,0,0,0c0,0-0.1-0.1-0.1-0.1c-1.2-1.2-1.2-3.1,0-4.3l0.9-0.8l0,0l1.7-1.7C228.2,139.8,228.9,139.3,229.7,138.9z"/>
	<path style="fill:#FFD500;" d="M230.6,161.4l4.1-4c-2,0-4.4-0.5-6.3-2.4l-3.7,3.6C226.4,160.6,228.6,161.2,230.6,161.4z"/>
	<path style="fill:#FFD500;" d="M231.7,151.7c2.2,1.8,4.9,2,6.9,1.8l1-1c1.8-1.8,2.7-4.2,2.5-6.6c-2.1,2.3-5.1,2.2-6.5,1.9
		c-0.1,0.1-0.2,0.2-0.3,0.3L231.7,151.7z"/>
	<path style="fill:#FFD500;" d="M226.3,165.5l0.5-0.5c-1.8-0.3-3.9-1.1-5.4-3.1c-0.6,1.1-0.4,2.6,0.5,3.6
		C223.2,166.7,225.1,166.7,226.3,165.5z"/>
	<path style="fill:#FFD500;" d="M235.3,144.8c1.1-1.1,2.7-3,2.4-5.8c-2.4-1.4-5.7-1.4-8.2-0.1c1,1.1,2.5,3.1,2.7,5.5
		C233.2,143.9,234.4,144,235.3,144.8C235.2,144.8,235.3,144.8,235.3,144.8z"/>
	<path style="fill:#FFD500;" d="M225.5,142.4l-0.8,0.8c-1.1,1.1-1,2.9,0.1,4.1c0.8,0.8,2,1.1,3,0.9
		C227.8,145.5,226.4,143.4,225.5,142.4z"/>
</g>
</svg>
