<?xml version="1.0" encoding="utf-8"?>
<!-- Generator: Adobe Illustrator 24.1.1, SVG Export Plug-In . SVG Version: 6.00 Build 0)  -->
<svg version="1.1" id="Layer_1" xmlns="http://www.w3.org/2000/svg" xmlns:xlink="http://www.w3.org/1999/xlink" x="0px" y="0px"
	 viewBox="0 0 270 240" style="enable-background:new 0 0 270 240;" xml:space="preserve">
<g>
	<path style="fill:#FFEA6C;" d="M239.9,155.1c-0.58,13.31-3.32,24.55-5.61,27.49c-0.26,0.34-0.52,0.57-0.76,0.68
		c-1.41,0.24-4.45,1.02-9.5,2.31c-4.2,1.08-9.78,2.48-16.31,4.07c-0.03,0-0.07,0.01-0.1,0.02c-2.95,0.56-6.08,1.14-9.36,1.75
		c-0.01,0-0.01,0-0.01,0c-0.8,0.14-1.62,0.3-2.45,0.44c-0.82,0.15-1.66,0.3-2.49,0.45c-4.2,0.75-8.61,1.5-13.13,2.26
		c-0.9,0.15-1.81,0.31-2.72,0.45c-0.92,0.15-1.84,0.31-2.77,0.45c-0.92,0.15-1.84,0.31-2.78,0.45c-0.36,0.05-0.72,0.12-1.09,0.18
		c-1.5,0.24-3.02,0.47-4.53,0.71c-2.82,0.44-5.66,0.87-8.52,1.28c-0.96,0.14-1.9,0.29-2.85,0.42c-4.18,0.6-8.35,1.19-12.49,1.71
		c-1.5,0.2-3,0.4-4.49,0.58c-2.99,0.37-5.94,0.72-8.84,1.04c-1.45,0.16-2.88,0.32-4.29,0.46c-1.05,0.11-2.11,0.22-3.14,0.32
		c-0.78,0.08-1.56,0.15-2.33,0.22c-0.94,0.09-1.88,0.18-2.81,0.25c-1.66,0.14-3.28,0.27-4.87,0.4h-0.07
		c18.62-3.4,42.11-9.65,64.15-17.13c21.13-1.02,38.87-3.3,44.19-7.76c4.82-4.04,6.88-9.25,7.5-14.42
		C232.66,161.09,236.93,158.04,239.9,155.1z"/>
	<path style="fill:#FFEA6C;" d="M239.99,146.46c-1.13-0.14-2.51-0.31-4.18-0.47c-0.05-0.05-0.11-0.09-0.16-0.11
		c-0.53-0.53-1.23-0.85-1.98-0.88c-0.19-0.01-3.6-0.19-9.3-0.47c-0.3-0.74-0.48-1.14-0.48-1.14l-8.8,0.68
		c-32.89-1.62-100.46-4.79-128-4.79c-2.14,0-4.06,0.02-5.7,0.05c-0.9,0.02-1.76,0.03-2.57,0.03c-1.44,0-2.72-0.03-3.84-0.09
		c-0.83-0.04-1.58-0.11-2.25-0.18c-0.5-0.44-1.13-0.74-1.82-0.85c-2.34-0.37-3.33-0.87-3.69-1.11c0.61-2.5,7.78-8.64,11.7-11.98
		l1.02-0.88c6.6-5.64,8.79-9.95,11.34-14.93c2.46-4.8,5.24-10.24,13.02-19.12c13.18-15.03,30.28-27.53,35.51-31.21
		c0.07,0.02,0.13,0.05,0.2,0.08c3.47,1.35,10.3,3.74,15.08,3.74c0.75,0,1.43-0.05,2.06-0.16c6.67,4.93,21.97,14.19,39.44,24.79
		c13.16,7.97,28.04,16.98,40.99,25.23C238.57,116.08,240.07,129.92,239.99,146.46z"/>
	<path style="fill:#F18B2D;" d="M198.26,191.41c-0.01,0-0.01,0-0.01,0c-0.8,0.14-1.62,0.3-2.45,0.44c-0.82,0.15-1.66,0.3-2.49,0.45
		c-4.2,0.75-8.61,1.5-13.13,2.26c-0.9,0.15-1.81,0.31-2.72,0.45c-0.92,0.15-1.84,0.31-2.77,0.45c-0.92,0.15-1.84,0.31-2.78,0.45
		c-0.36,0.05-0.72,0.12-1.09,0.18c-1.5,0.24-3.02,0.47-4.53,0.71c-2.82,0.44-5.66,0.87-8.52,1.28c-0.96,0.14-1.9,0.29-2.85,0.42
		c-4.18,0.6-8.35,1.19-12.49,1.71c-1.5,0.21-3.01,0.4-4.49,0.58c-2.99,0.37-5.94,0.72-8.84,1.04c-1.45,0.16-2.88,0.32-4.29,0.46
		c-1.05,0.11-2.11,0.22-3.14,0.32c-0.78,0.08-1.56,0.15-2.33,0.22c-0.94,0.09-1.88,0.18-2.81,0.25c-1.66,0.14-3.28,0.27-4.87,0.4
		h-0.07c-0.01,0-0.03,0-0.04,0.01c-4.2,0.77-8.15,1.41-11.78,1.87c1.5,0.05,3.04,0.1,4.63,0.11c0.42,0.01,0.85,0.01,1.27,0.01
		c20.74,0,45.97-3.88,68.47-8.38c12.39-2.47,23.96-5.14,33.48-7.44C204.67,190.23,201.54,190.81,198.26,191.41z M64.05,187.48
		c0.03,0.37,0.08,0.74,0.14,1.09c0.42,2.43,1.36,4.56,2.83,6.41c0.78,0.98,1.71,1.9,2.81,2.73C66.41,193.95,64.7,190.5,64.05,187.48
		z M235.64,145.88c-0.53-0.53-1.23-0.85-1.98-0.88c-0.19-0.01-3.6-0.19-9.3-0.47c0.05,0.15,0.13,0.32,0.2,0.51
		c4.68,0.34,8.33,0.66,11.16,0.94C235.71,145.94,235.67,145.91,235.64,145.88z M81.38,139.33c-0.9,0.02-1.76,0.03-2.57,0.03
		c-1.44,0-2.72-0.03-3.84-0.09c-0.83-0.04-1.58-0.11-2.25-0.18c0.49,0.43,0.88,0.99,1.09,1.64c0.03,0.11,0.07,0.22,0.1,0.33h0.05
		c0,0,35.22,0.78,74.64,1.33c11.58,0.16,21.8,0.37,30.83,0.63c0.11,0,0.21,0,0.32,0.01c13.29,0.36,23.98,0.8,32.52,1.25l2.82-0.22
		c-32.89-1.62-100.46-4.79-128-4.79C84.94,139.28,83.02,139.3,81.38,139.33z"/>
	<polygon style="fill:#FFB300;" points="69.58,173.48 68.89,173.55 69.58,173.46 	"/>
	<path style="fill:#FFB300;" d="M175.75,186.36c-22.04,7.48-45.54,13.72-64.15,17.13c-0.02,0-0.04,0.01-0.07,0.01
		c-4.19,0.78-8.13,1.41-11.76,1.87c-10.28-0.41-18.51-1.93-24.45-4.5c-2.13-0.91-3.96-1.96-5.49-3.15
		c-3.43-3.77-5.14-7.21-5.79-10.23c-0.21-2-0.08-4.18,0.37-6.59l0.25-0.16l1.06-0.7l1.3-0.86l1.66-1.09l1.5-0.99
		c0.46-0.08,0.89-0.24,1.27-0.47c0.05-0.03,0.1-0.07,0.15-0.1c0.02,0.05,0.05,0.11,0.08,0.16c2.15,4.54,5.43,8.11,10.44,8.56
		c0.53,0.04,1.17,0.1,1.92,0.15h0.01c8.9,0.65,32.86,1.67,58.32,1.67C153.6,187.08,165.11,186.88,175.75,186.36z"/>
	<path style="fill:#FF0000;" d="M221.88,146.61L129,153.77l-32.92,2.54c-1.77,0.67-7.96,2.73-16.62,2.73
		c-2.88,0-5.77-0.23-8.63-0.68c0.23,3.72,0.87,9.61,2.63,14.6c1.71,4.83,4.48,8.85,8.95,9.24c7.15,0.66,33.31,1.81,59.98,1.81
		c18.93,0,33.16-0.55,43.87-1.36c23.16-1.76,29.8-4.8,31.7-6.4c3.36-2.83,5.16-6.39,5.98-10.09
		C225.66,158.52,223.22,150.28,221.88,146.61z"/>
	<path style="fill:#FFD14A;" d="M118.59,85.13c0,0,15.48-21.65,25.93-22.54c10.45-0.89-8.5,12.79-2.78,15.12
		c5.72,2.33,18.57-3.74,20.51,0.17c1.94,3.91-8.1,10.51-4.13,13.06c3.97,2.55,9.75,3.17,20.68,5.45
		c10.93,2.28,25.89,23.91,20.03,26.45s-20.99,4.94-20.99,4.94s-31.01,10.43-35.56,7.82c-4.55-2.62,17.21-11.45,12.34-23.56
		s-22.52-21.99-29.6-17.85C117.95,98.33,109.52,96.09,118.59,85.13z"/>
	<g>
		<g>
			<path style="fill:#9C0C0A;" d="M170.25,175.72c-0.29,3.44-2.48,6.3-5.73,8.01c-0.57,0.02-1.15,0.03-1.73,0.04
				c-2.17-0.01-4.37-0.03-6.59-0.05c0.21-0.15,0.41-0.31,0.6-0.47c2.44-2.02,3.91-4.74,4.15-7.65c0.42-5.05-2.87-9.78-7.95-12.33
				c1.35-0.21,2.77-0.24,4.23-0.09C164.92,163.97,170.75,169.58,170.25,175.72z"/>
		</g>
	</g>
	<path style="fill:#FF2626;" d="M157.91,174.72c0,0.21,0,0.42-0.02,0.63c-0.18,2.12-1.22,4.04-3.04,5.55
		c-1.57,1.31-3.57,2.18-5.76,2.58c0.08,0.04,0.15,0.09,0.24,0.13c-0.32-0.01-0.64-0.01-0.97-0.02h-0.01
		c-1.57-0.03-3.13-0.08-4.69-0.11h-0.03c-6.3-1.09-10.96-5.73-10.54-10.75c0.18-2.12,1.23-4.04,3.04-5.54
		c2.2-1.83,5.21-2.82,8.46-2.82c0.54,0,1.1,0.03,1.66,0.09c0.68,0.07,1.34,0.18,1.98,0.33
		C153.81,166.05,157.91,170.18,157.91,174.72z"/>
	<path style="fill:#C21D1D;" d="M149.08,183.48c-0.24,0.04-0.48,0.08-0.72,0.11c0.33,0.01,0.65,0.01,0.97,0.02
		C149.24,183.56,149.16,183.52,149.08,183.48z"/>
	<path style="fill:#C21D1D;" d="M160.95,175.59c-0.24,2.91-1.71,5.63-4.15,7.65c-0.2,0.16-0.4,0.32-0.6,0.47h-0.01
		c-0.96-0.01-1.91-0.02-2.88-0.03h-0.01c-1.33-0.02-2.65-0.05-3.97-0.08c-0.09-0.04-0.16-0.09-0.24-0.13
		c2.2-0.4,4.19-1.27,5.76-2.58c1.82-1.51,2.87-3.44,3.04-5.55c0.02-0.21,0.02-0.42,0.02-0.63c0-4.53-4.09-8.66-9.68-9.93
		c-0.64-0.15-1.3-0.26-1.98-0.33c-0.56-0.05-1.12-0.09-1.66-0.09c-3.25,0-6.27,0.99-8.46,2.82c-1.81,1.5-2.87,3.43-3.04,5.54
		c-0.42,5.02,4.24,9.66,10.54,10.75c-1.73-0.04-3.46-0.1-5.18-0.14h-0.01c-1-0.03-2.01-0.07-3.01-0.1
		c-3.59-2.69-5.73-6.62-5.39-10.76c0.24-2.91,1.71-5.63,4.14-7.65c3.19-2.66,7.72-3.92,12.38-3.43c2.34,0.24,4.52,0.89,6.44,1.87
		C158.08,165.81,161.37,170.54,160.95,175.59z"/>
	<g>
		<g>
			<path style="fill:#9C0C0A;" d="M190.87,171.44c-1.1,0.11-2.24,0.11-3.4-0.01c-7.7-0.79-13.52-6.4-13.02-12.54
				c0.16-2.01,0.99-3.82,2.29-5.32l5.53-0.31c-0.33,1.03-0.55,2.11-0.65,3.22C181.1,162.9,185,168.83,190.87,171.44z"/>
		</g>
	</g>
	<g>
		<path style="fill:#9C0C0A;" d="M115.49,165.79c-0.51,6.14-7.15,10.46-14.84,9.68c-2.31-0.23-4.44-0.9-6.28-1.89
			c0.71,0.18,1.46,0.31,2.22,0.38c0.57,0.05,1.14,0.09,1.71,0.09c3.66,0,7.11-1.23,9.88-3.52c2.99-2.48,4.8-5.94,5.1-9.74
			c0.05-0.64,0.07-1.26,0.03-1.89C114.86,160.94,115.69,163.32,115.49,165.79z"/>
	</g>
	<path style="fill:#FF2626;" d="M110.23,160.54c-0.24,2.97-1.67,5.69-4.01,7.63c-2.56,2.12-5.87,3.1-9.32,2.74
		c-3.7-0.38-6.91-2.25-9-4.91V166c-1.6-2.05-2.54-4.6-2.51-7.28c1.35-0.15,2.6-0.35,3.73-0.56c0.11,0.01,0.22,0.02,0.33,0.03
		c0.18,0.02,0.33,0.03,0.49,0.04c0.16,0.01,0.32,0.02,0.46,0.03c0.3,0.01,0.57,0.03,0.82,0.03c1.61,0.05,2.38-0.1,2.38-0.1
		l16.41-0.91C110.25,158.34,110.32,159.44,110.23,160.54z"/>
	<path style="fill:#C21D1D;" d="M113.28,160.8c-0.31,3.8-2.12,7.26-5.1,9.74c-2.77,2.29-6.22,3.52-9.88,3.52
		c-0.57,0-1.14-0.03-1.71-0.09c-0.76-0.08-1.5-0.21-2.22-0.38c-0.01,0-0.02-0.01-0.02-0.01c-6.93-1.69-11.95-7.75-12.01-14.61
		c0.53-0.02,1.03-0.07,1.53-0.11c0.53-0.03,1.03-0.09,1.53-0.13c-0.02,2.68,0.91,5.23,2.51,7.28v0.01c2.1,2.66,5.3,4.52,9,4.91
		c3.45,0.35,6.76-0.63,9.32-2.74c2.34-1.94,3.77-4.65,4.01-7.63c0.09-1.11,0.02-2.21-0.21-3.25l1.55-0.09l0.15-0.01l1.37-0.08
		c0.11,0.59,0.18,1.19,0.21,1.78c0,0.01,0.01,0.01,0.01,0.01C113.35,159.53,113.34,160.16,113.28,160.8z"/>
	<path style="fill:#FF2626;" d="M209.53,158.43c0,0.31-0.01,0.6-0.03,0.91c-0.24,2.97-1.67,5.69-4.01,7.63
		c-2.44,2.03-5.59,3.01-8.86,2.79c-0.15,0-0.31-0.02-0.46-0.03c-6.86-0.7-12.01-6.53-11.47-12.99c0.1-1.27,0.43-2.51,0.96-3.66
		l11.98-0.67l9.81-0.55C208.76,153.77,209.53,156.04,209.53,158.43z"/>
	<path style="fill:#C21D1D;" d="M212.54,159.59c-0.31,3.8-2.12,7.26-5.1,9.74c-2.77,2.31-6.24,3.52-9.89,3.52
		c-0.57,0-1.13-0.02-1.7-0.09c-1.77-0.18-3.44-0.64-4.97-1.32c-5.87-2.61-9.77-8.54-9.24-14.96c0.1-1.11,0.32-2.18,0.65-3.22
		l1.66-0.1l1.71-0.09c-0.53,1.14-0.86,2.38-0.96,3.66c-0.54,6.45,4.61,12.28,11.47,12.99c0.15,0.01,0.31,0.03,0.46,0.03
		c3.27,0.22,6.42-0.76,8.86-2.79c2.34-1.94,3.77-4.65,4.01-7.63c0.02-0.31,0.03-0.6,0.03-0.91c0-2.38-0.77-4.65-2.09-6.56l1.76-0.1
		l1.69-0.1C212.16,154.05,212.78,156.77,212.54,159.59z"/>
	<path d="M243.67,147.02v-0.01c0.13-18.17-1.7-35.89-3.3-36.9c-9.81-6.26-20.66-12.91-31.2-19.32c-0.25-0.15-0.51-0.31-0.76-0.46
		c-0.8-0.48-1.6-0.97-2.39-1.46c-11.53-6.98-22.54-13.61-31.28-19.05c-0.12-0.08-0.24-0.15-0.36-0.22
		c-4.83-3.02-8.95-5.64-12.04-7.75c-1.89-1.28-3.4-2.38-4.47-3.25c-0.68,0.41-1.65,0.57-2.78,0.57c-5.71,0-15.74-4.3-15.74-4.3
		s-21.62,14.48-37.81,32.94c-16.2,18.48-11.93,23.36-24,33.69c-4.19,3.59-8.64,7.3-11.37,10.58c-0.27,0.33-0.53,0.65-0.77,0.97
		c-0.24,0.32-0.46,0.64-0.66,0.94c-0.98,1.51-1.45,2.91-1.17,4.11c0.02,0.08,0.03,0.15,0.07,0.22c0.04,0.15,0.1,0.3,0.18,0.44
		c0.02,0.07,0.07,0.12,0.1,0.19c0,0.01,0.01,0.01,0.01,0.02c0.04,0.08,0.1,0.16,0.16,0.24c0.09,0.12,0.2,0.24,0.31,0.36
		c0.09,0.09,0.19,0.18,0.29,0.26c0.11,0.1,0.23,0.19,0.35,0.29c0.29,0.2,0.61,0.38,0.99,0.56c0.16,0.08,0.34,0.15,0.53,0.23
		c0.19,0.08,0.4,0.15,0.61,0.23c0.18,0.05,0.36,0.12,0.56,0.18c0.03,0.01,0.08,0.02,0.12,0.03c0.21,0.07,0.44,0.12,0.67,0.18
		c0.54,0.13,1.12,0.25,1.76,0.35c0.02,0,0.03,0.01,0.05,0.01c-3.61,1.79-5.69,6.19-2.47,9.27h-0.05c-1.44,0-2.87,12.24,1.79,22.31
		v0.01l-0.69,0.08l-0.05,0.04l-1.97,1.28l-1.45,0.96l-4.28,2.82c-5.43,23.14,15.51,30.5,44.54,30.5
		c38.29,0,90.67-12.78,115.28-19.01c0.02,0,0.03,0,0.05-0.01c6.87-1.75,11.57-2.96,13.17-3.25c0.11-0.02,0.23-0.04,0.34-0.08
		c4.23-1.23,6.98-11.16,8.29-22.18c0.57-4.82,0.87-9.86,0.89-14.45C243.7,149.09,243.69,148.04,243.67,147.02z M239.9,155.1
		c-0.58,13.31-3.32,24.55-5.61,27.49c-0.26,0.34-0.52,0.57-0.76,0.68c-1.41,0.24-4.45,1.02-9.5,2.31c-4.2,1.08-9.78,2.48-16.31,4.07
		c-0.03,0-0.07,0.01-0.1,0.02c-9.52,2.31-21.09,4.97-33.48,7.44c-22.49,4.5-47.73,8.38-68.47,8.38c-0.43,0-0.86,0-1.27-0.01
		c-1.59-0.01-3.13-0.05-4.63-0.11c-10.28-0.41-18.51-1.93-24.45-4.5c-2.13-0.91-3.96-1.96-5.49-3.15c-1.1-0.83-2.03-1.76-2.81-2.73
		c-1.47-1.86-2.42-3.98-2.83-6.41c-0.07-0.35-0.11-0.71-0.14-1.09c-0.21-2-0.08-4.18,0.37-6.59l0.25-0.16l1.06-0.7l1.3-0.86
		l1.66-1.09l1.5-0.99c0.46-0.08,0.89-0.24,1.27-0.47c0.05-0.03,0.1-0.07,0.15-0.1c0.19-0.12,0.36-0.27,0.53-0.45
		c0.25-0.22,0.46-0.49,0.64-0.8c0.4-0.7,0.54-1.5,0.44-2.28c-0.04-0.36-0.14-0.72-0.31-1.06c-0.55-1.2-1.01-2.43-1.38-3.66
		c-0.27-0.92-0.5-1.84-0.69-2.74c-0.07-0.31-0.12-0.6-0.18-0.91c-0.11-0.59-0.2-1.17-0.27-1.76c-0.33-2.55-0.35-4.87-0.25-6.61
		c0.01-0.16,0.02-0.32,0.03-0.47c0.01-0.22,0.03-0.44,0.05-0.64c0.07-0.57,0.14-1.04,0.22-1.38c0.21-0.21,0.38-0.44,0.53-0.69
		c0.07-0.08,0.1-0.15,0.14-0.23c0.74-1.44,0.45-3.21-0.72-4.33c-0.49-0.47-0.49-0.78-0.45-1.04c0.11-0.69,0.83-1.7,2.01-2.28
		c1.14-0.56,1.89-1.67,2.02-2.9c0.03-0.31,0.02-0.64-0.02-0.96c-0.01-0.09-0.03-0.18-0.04-0.26c-0.03-0.11-0.07-0.22-0.1-0.33
		c-0.21-0.65-0.59-1.21-1.09-1.64c-0.5-0.44-1.13-0.74-1.82-0.85c-2.34-0.37-3.33-0.87-3.69-1.11c0.61-2.5,7.78-8.64,11.7-11.98
		l1.02-0.88c6.6-5.64,8.79-9.95,11.34-14.93c2.46-4.8,5.24-10.24,13.02-19.12c13.18-15.03,30.28-27.53,35.51-31.21
		c0.07,0.02,0.13,0.05,0.2,0.08c3.47,1.35,10.3,3.74,15.08,3.74c0.75,0,1.43-0.05,2.06-0.16c6.67,4.93,21.97,14.19,39.44,24.79
		c13.16,7.97,28.04,16.98,40.99,25.23c0.99,3.38,2.48,17.21,2.4,33.76v0.65C240.06,149.82,240.02,152.5,239.9,155.1z"/>
	<path style="fill:#FFEA6C;" d="M84.06,185.41c-2.25,1.59-5.1,2.15-8.42,0.37c-4.61-2.47-7.18-4.75-8.61-6.61l1.66-1.09l1.5-0.99
		c0.46-0.08,0.89-0.24,1.27-0.47c0.05-0.03,0.1-0.07,0.15-0.1c0.02,0.05,0.05,0.11,0.08,0.16c2.15,4.54,5.43,8.11,10.44,8.56
		C82.67,185.3,83.31,185.35,84.06,185.41z"/>
	<path style="fill:#FFB300;" d="M212.26,144.29l-116.87,9c0,0-0.92,0.4-2.61,0.89c-2.71,0.78-7.4,1.8-13.32,1.8
		c-2.82,0-5.93-0.23-9.23-0.83c0.07-0.57,0.14-1.04,0.22-1.38c0.21-0.21,0.38-0.44,0.53-0.69c0.07-0.08,0.1-0.15,0.14-0.23
		c0.74-1.44,0.45-3.21-0.72-4.33c-0.49-0.47-0.49-0.78-0.45-1.04c0.11-0.69,0.83-1.7,2.01-2.28c1.14-0.56,1.89-1.67,2.02-2.9
		c0.03-0.31,0.02-0.64-0.02-0.96c-0.01-0.09-0.03-0.18-0.04-0.26h0.05c0,0,35.22,0.78,74.64,1.33
		C177.43,142.8,197.88,143.53,212.26,144.29z"/>
	<path style="fill:#FFB300;" d="M239.9,155.1c-2.98,2.94-7.25,5.99-12.47,9.08c0.93-7.97-1.6-15.83-2.87-19.15
		c4.68,0.34,8.33,0.66,11.16,0.94h0.01c0.02,0,0.04,0,0.07,0.01c1.67,0.16,3.05,0.33,4.18,0.47v0.65
		C240.06,149.82,240.02,152.5,239.9,155.1z"/>
	<g>
		<path style="fill:#641210;" d="M76.4,178.61h-0.01c0.03,0.05,0.08,0.1,0.11,0.14C76.46,178.71,76.43,178.67,76.4,178.61z"/>
		<path style="fill:#641210;" d="M123.64,183.84c-2.12-0.04-4.2-0.09-6.25-0.13C119.43,183.76,121.52,183.81,123.64,183.84z
			 M84.83,182.39c-0.44-0.03-0.86-0.05-1.24-0.09C83.96,182.33,84.38,182.37,84.83,182.39z M76.39,178.61h0.01
			c-0.12-0.15-0.24-0.31-0.35-0.47C76.16,178.31,76.27,178.46,76.39,178.61z"/>
		<path style="fill:#641210;" d="M224.57,145.03c-0.07-0.19-0.14-0.35-0.2-0.51c-0.3-0.74-0.48-1.14-0.48-1.14l-8.8,0.68l-2.82,0.22
			l-116.87,9c0,0-0.92,0.4-2.61,0.89c-2.71,0.78-7.4,1.8-13.32,1.8c-2.82,0-5.93-0.23-9.23-0.83c-0.02,0.2-0.04,0.42-0.05,0.64
			c-0.01,0.15-0.02,0.31-0.03,0.47c-0.1,1.73-0.08,4.06,0.25,6.61c0.08,0.58,0.16,1.16,0.27,1.76c0.05,0.31,0.11,0.6,0.18,0.91
			c0.19,0.9,0.42,1.82,0.69,2.74c0.37,1.23,0.83,2.46,1.38,3.66c0.16,0.34,0.26,0.7,0.31,1.06c0.1,0.78-0.04,1.58-0.44,2.28
			c-0.18,0.31-0.38,0.58-0.64,0.8c-0.16,0.18-0.34,0.33-0.53,0.45c0.02,0.05,0.05,0.11,0.08,0.16c2.15,4.54,5.43,8.11,10.44,8.56
			c0.53,0.04,1.17,0.1,1.92,0.15h0.01c8.9,0.65,32.86,1.67,58.32,1.67c11.21,0,22.71-0.2,33.35-0.71
			c21.13-1.02,38.87-3.3,44.19-7.76c4.82-4.04,6.88-9.25,7.5-14.42C228.36,156.21,225.83,148.35,224.57,145.03z M224.51,161.7
			c-0.01,0.24-0.02,0.48-0.04,0.72c0,0.08,0,0.15-0.01,0.23c-0.01,0.25-0.03,0.51-0.07,0.76c-0.04,0.36-0.08,0.74-0.14,1.1
			c0,0.05-0.01,0.1-0.02,0.15c0,0.08-0.01,0.15-0.03,0.24c-0.07,0.42-0.14,0.85-0.24,1.26c-0.82,3.7-2.62,7.26-5.98,10.09
			c-1.9,1.6-8.54,4.64-31.7,6.4c-0.42,0.03-0.85,0.07-1.27,0.1c-0.53,0.03-1.05,0.07-1.59,0.11c-1.14,0.08-2.32,0.15-3.53,0.22
			c-0.72,0.04-1.46,0.09-2.21,0.12c-0.42,0.02-0.86,0.04-1.28,0.07h-0.05c-0.9,0.05-1.82,0.1-2.77,0.13
			c-1.42,0.07-2.88,0.12-4.38,0.18c-0.5,0.02-1.01,0.04-1.53,0.05c-1.02,0.03-2.06,0.07-3.13,0.1c-0.57,0.02-1.15,0.03-1.73,0.04
			c-1.3,0.03-2.62,0.07-3.98,0.09c-0.24,0.01-0.48,0.01-0.72,0.01c-0.77,0.02-1.55,0.03-2.34,0.04c-4.16,0.07-8.61,0.1-13.34,0.1
			c-2.5,0-4.99-0.01-7.48-0.03c-1.02,0-2.05-0.01-3.06-0.02c-0.27,0-0.56-0.01-0.83-0.01c-1.16-0.01-2.32-0.03-3.46-0.04
			c-1.32-0.02-2.63-0.04-3.93-0.07c-2.12-0.03-4.2-0.08-6.25-0.13c-0.67-0.01-1.35-0.02-2.02-0.04c-0.92-0.02-1.84-0.04-2.74-0.08
			c-1.15-0.03-2.28-0.07-3.39-0.1c-1.34-0.03-2.66-0.08-3.93-0.12c-1.43-0.05-2.81-0.1-4.14-0.15c-0.61-0.02-1.23-0.04-1.82-0.08
			c-0.34-0.01-0.67-0.02-0.99-0.03c-0.51-0.02-1.01-0.04-1.5-0.07c-0.66-0.03-1.31-0.05-1.93-0.09c-0.31-0.01-0.61-0.02-0.91-0.04
			c-0.63-0.02-1.24-0.05-1.83-0.09c-0.38-0.02-0.76-0.03-1.12-0.05c-0.38-0.02-0.76-0.04-1.13-0.05c-0.32-0.02-0.65-0.03-0.96-0.05
			c-0.38-0.02-0.76-0.04-1.12-0.07c-0.33-0.02-0.65-0.03-0.96-0.05c-0.75-0.05-1.44-0.1-2.06-0.14c-0.45-0.02-0.87-0.05-1.24-0.09
			c-0.15-0.01-0.31-0.02-0.45-0.03c-0.13-0.01-0.25-0.02-0.37-0.03c-0.12-0.01-0.24-0.02-0.35-0.03c-0.47-0.04-0.93-0.12-1.37-0.24
			c-0.14-0.03-0.27-0.08-0.42-0.13c-0.14-0.04-0.29-0.1-0.42-0.15c-0.13-0.05-0.26-0.11-0.4-0.18c-0.29-0.13-0.56-0.29-0.82-0.45
			c-0.19-0.12-0.37-0.25-0.56-0.4c-0.1-0.07-0.19-0.13-0.27-0.21c-0.13-0.1-0.26-0.22-0.4-0.34c-0.07-0.04-0.12-0.1-0.16-0.15
			c-0.05-0.04-0.11-0.1-0.16-0.15c-0.05-0.05-0.1-0.1-0.15-0.15l-0.1-0.1c-0.15-0.16-0.31-0.33-0.44-0.51
			c-0.05-0.07-0.11-0.12-0.15-0.18c-0.03-0.03-0.05-0.08-0.09-0.11c-0.03-0.04-0.08-0.09-0.11-0.14c-0.12-0.15-0.23-0.31-0.34-0.47
			c-0.13-0.18-0.25-0.36-0.37-0.55c-0.22-0.34-0.44-0.69-0.64-1.06c0,0,0-0.01-0.01-0.01c-0.18-0.32-0.34-0.65-0.49-0.99
			c-0.22-0.43-0.41-0.88-0.59-1.33c-0.16-0.41-0.33-0.82-0.47-1.24c-1.77-4.99-2.4-10.88-2.63-14.6c2.85,0.45,5.75,0.68,8.63,0.68
			c0.99,0,1.95-0.02,2.88-0.08c0.53-0.02,1.03-0.07,1.53-0.11c0.53-0.03,1.03-0.09,1.53-0.13c1.35-0.15,2.6-0.35,3.73-0.56
			c3.51-0.65,5.95-1.47,6.96-1.86l32.92-2.54l92.87-7.16c0.91,2.5,2.34,7.15,2.6,12.27C224.53,159.81,224.55,160.75,224.51,161.7z"
			/>
	</g>
</g>
<g>
	<path style="fill:#FF0000;" d="M193.4,141.7c-20.06,16.19-24.09,17.47-24.09,17.51l0.05,1.53l-13.72-4.28
		c5.71-1.87,20.08-8.11,26.06-25.19c1.54-4.39,5.31-7.03,10.11-7.04h0.03c4.03,0,7.53,1.97,8.54,4.8
		C201.64,132.54,199.15,137.04,193.4,141.7z"/>
	<path style="fill:#641210;" d="M195.32,144.08c-20.18,16.3-24.83,18.15-25.9,18.19l-0.05-1.54l-0.05-1.53
		c0-0.04,4.03-1.32,24.09-17.51c5.75-4.65,8.24-9.16,6.99-12.68c-1.01-2.83-4.51-4.8-8.54-4.8h-0.03c-4.8,0.01-8.57,2.65-10.11,7.04
		c-5.98,17.08-20.35,23.33-26.06,25.19c-1.34,0.44-2.21,0.64-2.37,0.67l-0.65-3c0.2-0.04,19.38-4.44,26.18-23.88
		c2.34-6.69,8.26-9.08,13.01-9.09h0.03c5.39,0,9.98,2.74,11.43,6.83C204.27,130.79,204.56,136.61,195.32,144.08z"/>
</g>
<g>
	<path style="fill:#FF0000;" d="M260.45,158.14c-0.9,3.63-5.47,6.02-12.83,6.71c-13.18,1.24-20.66,1.55-24.82,1.55
		c-4.06,0-4.93-0.23-4.93-0.26l-0.79,1.31l-9.09-11.16c5.76,1.6,21.22,4.36,35.66-6.59c3.71-2.82,8.31-2.92,12.32-0.27
		C259.33,151.64,261.19,155.23,260.45,158.14z"/>
	<path style="fill:#641210;" d="M263.43,158.89c-0.72,2.89-3.7,7.89-15.52,9.01c-12.54,1.19-20.13,1.55-24.74,1.55
		c-4.9,0-6.42-0.42-6.88-0.69l0.8-1.31v-0.01l0.79-1.31c0,0.03,0.87,0.26,4.93,0.26c4.16,0,11.64-0.31,24.82-1.55
		c7.37-0.69,11.93-3.07,12.83-6.71c0.74-2.91-1.12-6.5-4.49-8.73c-4.01-2.65-8.61-2.55-12.32,0.27
		c-14.44,10.94-29.89,8.19-35.66,6.59l-1.76-2.16l-0.01-0.01l0.55-1.43c0.19,0.08,18.61,7.03,35.02-5.43
		c5.64-4.28,11.89-3,15.86-0.38C262.16,149.83,264.48,154.66,263.43,158.89z"/>
	<path style="fill:#641210;" d="M207.99,156.27c-1.35-0.37-2.17-0.69-2.33-0.75l0.56-1.43l0.01,0.01L207.99,156.27z"/>
</g>
<g>
	<path style="fill:#FF0000;" d="M221.18,198.48c-2.67,2.83-8.66,2.78-15.05-2.72c-0.54-2.94-3.01-14.38-8.88-18.23l7.44-2.65
		l-0.38,1.46c0.03,0.01,4.24,1.35,14.47,11.53C223.2,192.27,223.17,196.36,221.18,198.48z"/>
	<path style="fill:#641210;" d="M223.41,200.58c-1.65,1.76-4.12,2.79-7.05,2.79c-3.72,0-8.19-1.67-12.67-5.66l-0.41-0.35l-0.09-0.54
		c-0.68-4.07-3.53-15.12-8.46-17.18l0.59-1.42l1.92-0.69c5.87,3.85,8.34,15.29,8.88,18.23c6.39,5.5,12.38,5.55,15.05,2.72
		c1.99-2.12,2.02-6.21-2.4-10.62c-10.23-10.18-14.44-11.52-14.47-11.53l0.38-1.46l0.4-1.49c0.48,0.12,4.96,1.49,15.85,12.32
		C226.83,191.55,226.42,197.39,223.41,200.58z"/>
	<path style="fill:#641210;" d="M197.25,177.53l-1.92,0.69l0.59-1.41C196.39,177.01,196.82,177.24,197.25,177.53z"/>
</g>
<g>
	<g>
		<path style="fill:#FFB300;" d="M111.29,164.35c-0.07,0.23-0.15,0.47-0.26,0.7l-0.15,0.53c-1.83,14.62-27.1,20.89-33.02,22.15
			c-2.72-4.61-13-22.95-13-36.33c0-0.35,0.01-0.7,0.02-1.05c0.03-0.69,0.3-1.27,0.75-1.64c0.22-0.18,0.56-0.37,1.02-0.37
			c0.09,0,0.19,0.01,0.29,0.02c25.71,4.19,43.42,10.13,44.05,14.78l0.18,0.58C111.35,164.1,111.3,164.29,111.29,164.35z"/>
	</g>
	<path style="fill:#FFEA6C;" d="M111.29,164.35c-0.07,0.23-0.15,0.47-0.26,0.7l-0.15,0.53c-0.02,0.19-0.05,0.36-0.08,0.55
		c-3.92,5.93-19.27,10.97-26.3,12.79c-5.87-6.17-18.56-21.24-19.05-29.64c16.55,2.69,40.67,8.21,45.46,13.52
		c0.03,0.11,0.07,0.23,0.08,0.34l0.18,0.58C111.35,164.1,111.3,164.29,111.29,164.35z"/>
	<path style="fill:#F18B2D;" d="M84.49,178.92c-5.87-6.17-18.56-21.24-19.05-29.64c16.55,2.69,40.67,8.21,45.46,13.52
		c-1.43-4.59-18.89-10.34-43.98-14.44c-0.1-0.01-0.2-0.02-0.29-0.02c-0.46,0-0.8,0.2-1.02,0.37c-0.45,0.36-0.71,0.94-0.75,1.64
		c-0.01,0.35-0.02,0.7-0.02,1.05c0,2.52,0.36,5.23,0.98,7.98c5.69,10.51,16.43,21.64,17.08,22.3c0.29,0.3,0.68,0.46,1.1,0.46
		c0.12,0,0.24-0.01,0.36-0.04c1.99-0.48,14.96-3.79,23.31-9.19c1.58-2.02,2.7-4.28,3.12-6.78
		C106.87,172.06,91.53,177.1,84.49,178.92z"/>
	<g>
		<path d="M114.57,162.34c-1.72-8.49-26.47-14.25-47.05-17.6c-1.53-0.27-3.03,0.14-4.22,1.12c-1.26,1.02-2.02,2.6-2.1,4.34
			c-0.71,16.48,13.57,39.6,14.17,40.56l0.66,1.06l1.22-0.22c1.42-0.25,34.55-6.36,37.23-25.3c0.14-0.34,0.27-0.68,0.36-1.03
			C115.09,164.31,115,163.32,114.57,162.34z M107.67,172.92c-7.4,9.45-25.02,13.79-29.83,14.82c-2.21-3.74-9.39-16.52-12.02-28.34
			c-0.61-2.76-0.98-5.46-0.98-7.98c0-0.35,0.01-0.7,0.02-1.05c0.03-0.69,0.3-1.27,0.75-1.64c0.22-0.18,0.56-0.37,1.02-0.37
			c0.09,0,0.19,0.01,0.29,0.02c25.08,4.09,42.55,9.85,43.98,14.44c0.03,0.11,0.07,0.23,0.08,0.34l0.18,0.58
			c0.2,0.37,0.14,0.56,0.13,0.63c-0.07,0.23-0.15,0.47-0.26,0.7l-0.15,0.53c-0.02,0.19-0.05,0.36-0.08,0.55
			C110.37,168.63,109.25,170.9,107.67,172.92z"/>
	</g>
</g>
<g>
	<g>
		<path style="fill:#FFB300;" d="M178.29,96.58c-0.11-0.03-0.23-0.08-0.34-0.11c0,0,0.02-0.1,0.08-0.29
			c0.07,0.11,0.13,0.22,0.21,0.32C178.26,96.52,178.27,96.55,178.29,96.58z"/>
		<path style="fill:#FFB300;" d="M239.5,72.38c-0.08,0.05-0.16,0.12-0.25,0.19c-0.13,0.1-0.27,0.21-0.44,0.32
			c-1.84,1.36-5.34,3.83-9.84,6.67c-0.42,0.27-0.86,0.54-1.31,0.82c-0.9,0.56-1.82,1.12-2.78,1.69c-0.47,0.27-0.96,0.56-1.44,0.85
			c-1,0.58-2.03,1.16-3.07,1.73c-0.52,0.3-1.04,0.57-1.57,0.86c-1.26,0.68-2.56,1.36-3.88,2.01c-0.89,0.45-1.8,0.89-2.71,1.32
			c-0.59,0.27-1.19,0.55-1.77,0.81c-0.5,0.22-1,0.44-1.5,0.66c-0.76,0.32-1.5,0.64-2.26,0.93c-0.45,0.19-0.91,0.36-1.37,0.54
			c-0.88,0.34-1.76,0.67-2.63,0.97c-0.36,0.12-0.71,0.24-1.08,0.36c-1.03,0.34-2.06,0.66-3.08,0.94c-0.65,0.18-1.3,0.35-1.94,0.51
			c-0.44,0.11-0.87,0.21-1.31,0.31c-0.43,0.09-0.86,0.19-1.3,0.26c-0.63,0.12-1.26,0.23-1.89,0.33c-0.48,0.08-0.97,0.14-1.45,0.2
			c-0.43,0.04-0.85,0.09-1.27,0.12c-0.26,0.02-0.52,0.04-0.77,0.05c-0.32,0.02-0.64,0.04-0.96,0.05c-0.41,0.01-0.8,0.02-1.21,0.02
			c-0.75,0-1.48-0.02-2.22-0.08c-1.32-0.1-2.39-0.61-2.94-1.42c-0.38-0.54-0.47-1.19-0.27-1.86c0.63-2.13,1.26-4.2,1.91-6.24
			c0.16-0.52,0.32-1.02,0.48-1.51c0.96-3.02,1.93-5.92,2.91-8.71c0.15-0.46,0.32-0.92,0.48-1.38c1.17-3.32,2.35-6.44,3.52-9.4
			c0.24-0.6,0.48-1.21,0.72-1.8c1.83-4.49,3.66-8.51,5.42-12.01c0.26-0.51,0.52-1.01,0.78-1.49c0.14-0.29,0.3-0.57,0.45-0.85
			c0.14-0.27,0.3-0.55,0.45-0.82c0.37-0.68,0.75-1.35,1.12-1.98c0.21-0.36,0.43-0.71,0.64-1.06c1.15-1.89,2.28-3.51,3.37-4.87
			c0.14-0.19,0.29-0.36,0.43-0.53c0.29-0.34,0.56-0.67,0.85-0.97c0.13-0.15,0.27-0.3,0.42-0.44c0.13-0.14,0.27-0.27,0.41-0.41
			c0.18-0.16,0.34-0.33,0.51-0.46c0.1-0.1,0.21-0.19,0.31-0.27c0.88-0.74,1.72-1.26,2.52-1.56c0.12-0.04,0.23-0.09,0.35-0.12
			c0.11-0.03,0.22-0.07,0.32-0.09c0.08-0.01,0.14-0.03,0.22-0.04c0.12-0.02,0.24-0.03,0.35-0.04c0,0,0.53-0.09,1.89,0
			c0.68,0.04,1.66,0.22,1.89,0.26c0.03,0.01,0.05,0.01,0.05,0.01c0.22,0.03,0.44,0.07,0.65,0.11c0.32,0.05,0.64,0.12,0.96,0.19
			c0.26,0.05,0.53,0.11,0.78,0.18c0.29,0.07,0.57,0.14,0.85,0.22c1.1,0.31,2.15,0.68,3.15,1.12c0.22,0.1,0.44,0.2,0.65,0.3
			c0.03,0.01,0.07,0.03,0.1,0.04c0.01,0.01,0.03,0.01,0.04,0.02c0.35,0.16,0.7,0.35,1.04,0.54h0.01c0.2,0.11,0.4,0.22,0.58,0.33
			c0.33,0.19,0.66,0.38,0.97,0.58c0.05,0.04,0.1,0.08,0.15,0.1c0.35,0.23,0.69,0.47,1.03,0.72c0.15,0.11,0.31,0.22,0.45,0.34
			c0.34,0.25,0.66,0.52,0.99,0.79c0.29,0.24,0.57,0.49,0.85,0.75c0.04,0.04,0.09,0.09,0.13,0.13c0.13,0.11,0.25,0.23,0.37,0.35
			c0.04,0.03,0.09,0.08,0.12,0.12c0.25,0.25,0.51,0.49,0.74,0.76c0.27,0.29,0.55,0.58,0.8,0.89c0.77,0.88,1.47,1.81,2.13,2.77
			c0.22,0.31,0.43,0.63,0.63,0.94c0.77,1.2,1.46,2.43,2.07,3.68c0.12,0.25,0.25,0.49,0.36,0.75c0.12,0.25,0.24,0.51,0.35,0.76
			c0.11,0.25,0.22,0.5,0.33,0.76c0.21,0.48,0.41,0.97,0.6,1.44c0.2,0.53,0.4,1.05,0.58,1.57c0.09,0.25,0.18,0.51,0.25,0.76
			c0.56,1.65,1.02,3.26,1.39,4.79c0.05,0.2,0.1,0.4,0.14,0.59c0.1,0.41,0.19,0.8,0.26,1.17c0.07,0.3,0.12,0.58,0.19,0.87
			c0.01,0.08,0.03,0.16,0.04,0.24c0.04,0.19,0.08,0.36,0.11,0.54c0.04,0.23,0.09,0.46,0.12,0.68c0.05,0.31,0.11,0.61,0.15,0.9
			c0.01,0.09,0.03,0.18,0.04,0.25c0.03,0.19,0.05,0.36,0.09,0.54c0.05,0.37,0.1,0.72,0.14,1.05c0.04,0.29,0.08,0.55,0.11,0.81
			C239.39,71.12,239.45,71.85,239.5,72.38z"/>
	</g>
	<g>
		<path style="fill:#FFEA6C;" d="M229.93,71.33c-4.98,3.66-33.55,24.18-47.8,23.62c6.95-23.58,18.7-53.81,26.91-59.27
			c0.11-0.03,0.22-0.07,0.32-0.09c0.08-0.01,0.14-0.03,0.22-0.04c0.12-0.02,0.24-0.03,0.35-0.04c0,0,0.53-0.09,1.89,0
			c0.68,0.04,1.66,0.22,1.89,0.26c0.03,0.01,0.05,0.01,0.05,0.01c0.22,0.03,0.44,0.07,0.65,0.11
			C222.95,41.15,228.29,62.04,229.93,71.33z"/>
		<path style="fill:#F18B2D;" d="M233.11,71.76c-0.19-1.16-3.8-22.81-12.22-33.82c-0.03-0.01-0.07-0.03-0.1-0.04
			c-0.21-0.1-0.43-0.2-0.65-0.3c-1-0.44-2.05-0.81-3.15-1.12c-0.27-0.08-0.56-0.15-0.85-0.22c-0.25-0.07-0.52-0.12-0.78-0.18
			c-0.32-0.07-0.64-0.13-0.96-0.19c8.54,5.26,13.88,26.15,15.52,35.44c-4.98,3.66-33.55,24.18-47.8,23.62
			c6.95-23.58,18.7-53.81,26.91-59.27c-0.12,0.03-0.23,0.08-0.35,0.12c-0.8,0.3-1.65,0.82-2.52,1.56c-0.1,0.09-0.21,0.18-0.31,0.27
			c-0.16,0.13-0.33,0.3-0.51,0.46c-0.13,0.13-0.27,0.26-0.41,0.41c-0.14,0.14-0.29,0.29-0.42,0.44c-0.29,0.3-0.56,0.63-0.85,0.97
			c-0.14,0.16-0.29,0.34-0.43,0.53c-1.09,1.36-2.22,2.99-3.37,4.87c-0.21,0.34-0.42,0.7-0.64,1.06c-0.37,0.63-0.75,1.3-1.12,1.98
			c-0.15,0.27-0.31,0.55-0.45,0.82c-0.15,0.27-0.31,0.56-0.45,0.85c-0.25,0.48-0.52,0.98-0.78,1.49c-1.77,3.5-3.59,7.52-5.42,12.01
			c-0.24,0.59-0.48,1.2-0.72,1.8c-1.17,2.95-2.35,6.08-3.52,9.4c-0.16,0.46-0.33,0.92-0.48,1.38c-0.98,2.79-1.95,5.69-2.91,8.71
			c-0.16,0.49-0.32,1-0.48,1.51c-0.65,2.03-1.28,4.11-1.91,6.24c-0.2,0.67-0.11,1.32,0.27,1.86c0.55,0.8,1.62,1.32,2.94,1.42
			c0.74,0.05,1.47,0.08,2.22,0.08c0.41,0,0.8-0.01,1.21-0.02c0.32-0.01,0.64-0.03,0.96-0.05c0.25-0.01,0.51-0.03,0.77-0.05
			c0.43-0.03,0.85-0.08,1.27-0.12c0.48-0.05,0.97-0.12,1.45-0.2c0.63-0.1,1.26-0.21,1.89-0.33c0.44-0.08,0.87-0.18,1.3-0.26
			c0.44-0.1,0.87-0.2,1.31-0.31c16.29-6.61,34.88-20.53,35.94-21.34C232.97,72.88,233.2,72.32,233.11,71.76z"/>
	</g>
	<g>
		<path d="M243.24,73.18c-0.02-0.37-1.61-36.76-28.68-41c-0.47-0.21-2.96-0.55-5.2-0.31c-12.78,1.58-25.45,37.98-31.88,59.64
			c-0.48,1.62-0.29,3.26,0.56,4.67c0.07,0.11,0.13,0.22,0.21,0.32c0.02,0.02,0.03,0.05,0.05,0.08c1.2,1.68,3.25,2.74,5.65,2.92
			c0.8,0.05,1.61,0.09,2.43,0.09c23.7,0,54.79-23.83,56.15-24.89l0.75-0.57L243.24,73.18z M239.24,72.57
			c-0.13,0.1-0.27,0.21-0.44,0.32c-1.84,1.36-5.34,3.83-9.84,6.67c-0.43,0.27-0.87,0.55-1.31,0.82c-0.9,0.56-1.82,1.12-2.78,1.69
			c-0.47,0.27-0.96,0.56-1.44,0.85c-1,0.58-2.03,1.16-3.07,1.73c-0.52,0.3-1.04,0.58-1.57,0.86c-1.26,0.68-2.56,1.36-3.88,2.01
			c-0.89,0.45-1.8,0.89-2.71,1.32c-0.59,0.27-1.19,0.55-1.77,0.81c-0.49,0.22-1,0.44-1.5,0.66c-0.76,0.32-1.5,0.64-2.26,0.93
			c-0.46,0.19-0.91,0.37-1.37,0.54c-0.88,0.34-1.76,0.67-2.63,0.97c-0.36,0.12-0.71,0.24-1.08,0.36c-1.03,0.34-2.05,0.66-3.08,0.94
			c-0.65,0.18-1.3,0.35-1.94,0.51c-0.44,0.11-0.87,0.21-1.31,0.31c-0.44,0.1-0.87,0.19-1.3,0.26c-0.63,0.12-1.26,0.23-1.89,0.33
			c-0.48,0.08-0.97,0.14-1.45,0.2c-0.43,0.04-0.85,0.09-1.27,0.12c-0.25,0.02-0.52,0.04-0.77,0.05c-0.32,0.02-0.64,0.04-0.96,0.05
			c-0.41,0.01-0.81,0.02-1.21,0.02c-0.75,0-1.48-0.02-2.22-0.08c-1.32-0.1-2.39-0.61-2.94-1.42c-0.38-0.54-0.47-1.19-0.27-1.86
			c0.63-2.13,1.26-4.2,1.91-6.24c0.15-0.51,0.32-1.01,0.48-1.51c0.96-3.02,1.93-5.92,2.91-8.71c0.15-0.46,0.32-0.92,0.48-1.38
			c1.17-3.32,2.35-6.44,3.52-9.4c0.24-0.6,0.48-1.21,0.72-1.8c1.83-4.49,3.66-8.51,5.42-12.01c0.26-0.51,0.52-1.01,0.78-1.49
			c0.14-0.29,0.3-0.57,0.45-0.85c0.14-0.29,0.3-0.56,0.45-0.82c0.37-0.68,0.75-1.35,1.12-1.98c0.21-0.36,0.43-0.71,0.64-1.06
			c1.15-1.89,2.28-3.51,3.37-4.87c0.13-0.18,0.27-0.35,0.43-0.53c0.29-0.34,0.56-0.67,0.85-0.97c0.14-0.15,0.27-0.31,0.42-0.44
			c0.14-0.14,0.27-0.29,0.41-0.41c0.18-0.16,0.34-0.33,0.51-0.46c0.11-0.1,0.21-0.2,0.31-0.27c0.88-0.74,1.72-1.26,2.52-1.56
			c0.12-0.05,0.24-0.09,0.35-0.12c0.11-0.03,0.22-0.07,0.32-0.09c0.08-0.02,0.15-0.03,0.22-0.04c0.12-0.02,0.24-0.03,0.35-0.04
			c0,0,0.53-0.09,1.89,0c0.68,0.04,1.66,0.22,1.89,0.26c0.03,0.01,0.05,0.01,0.05,0.01c0.22,0.03,0.44,0.07,0.65,0.11
			c0.32,0.05,0.64,0.12,0.96,0.19c0.26,0.04,0.53,0.11,0.78,0.18c0.29,0.07,0.57,0.14,0.85,0.22c1.1,0.31,2.15,0.68,3.15,1.12
			c0.22,0.1,0.44,0.19,0.65,0.3c0.03,0.01,0.07,0.03,0.1,0.04c0.01,0.01,0.03,0.01,0.04,0.02c0.35,0.16,0.7,0.35,1.04,0.54h0.01
			c0.2,0.11,0.4,0.22,0.58,0.33c0.33,0.19,0.65,0.38,0.97,0.58c0.05,0.04,0.1,0.08,0.15,0.1c0.35,0.24,0.7,0.47,1.03,0.72
			c0.15,0.11,0.31,0.22,0.45,0.34c0.34,0.25,0.67,0.52,0.99,0.79c0.29,0.24,0.57,0.49,0.85,0.75c0.04,0.04,0.09,0.09,0.13,0.13
			c0.12,0.11,0.25,0.23,0.37,0.35c0.04,0.03,0.09,0.08,0.12,0.12c0.25,0.25,0.51,0.51,0.74,0.76c0.29,0.3,0.55,0.59,0.8,0.89
			c0.77,0.88,1.47,1.81,2.13,2.77c0.22,0.31,0.43,0.63,0.63,0.94c0.77,1.2,1.46,2.43,2.07,3.68c0.13,0.24,0.25,0.49,0.36,0.75
			c0.12,0.25,0.24,0.51,0.35,0.76c0.12,0.25,0.23,0.5,0.33,0.76c0.22,0.48,0.42,0.96,0.6,1.44c0.2,0.53,0.4,1.05,0.58,1.57
			c0.09,0.26,0.18,0.52,0.25,0.76c0.56,1.65,1.02,3.26,1.39,4.79c0.05,0.2,0.1,0.4,0.14,0.59c0.1,0.41,0.19,0.8,0.26,1.17
			c0.07,0.3,0.13,0.58,0.19,0.87c0.01,0.08,0.03,0.16,0.04,0.24c0.03,0.19,0.08,0.36,0.11,0.54c0.04,0.23,0.09,0.46,0.12,0.68
			c0.05,0.31,0.11,0.61,0.15,0.9c0.01,0.09,0.03,0.18,0.04,0.25c0.03,0.19,0.05,0.36,0.09,0.54c0.05,0.37,0.1,0.72,0.14,1.05
			c0.04,0.29,0.08,0.55,0.11,0.81c0.11,0.91,0.18,1.65,0.22,2.17C239.42,72.44,239.33,72.5,239.24,72.57z"/>
	</g>
</g>
<g>
	<g>
		<path style="fill:#FFB300;" d="M184.73,180.5l-0.2,0.51c-0.03,0.16-0.08,0.33-0.13,0.48c-0.61,2.4-1.81,4.4-3.36,6.06
			c-6.19,6.7-17.99,8.04-21.35,8.29c-1.72-2.24-6.89-9.29-10.35-17.1c-1.92-4.31-3.32-8.87-3.32-12.96c0-0.77,0.05-1.51,0.15-2.25
			c0.08-0.55,0.32-0.99,0.69-1.23c0.15-0.1,0.36-0.2,0.64-0.2c0.11,0,0.22,0.01,0.33,0.04c24.46,6.65,36.14,13.11,36.95,16.47
			c0,0.01,0,0.01,0,0.01c0.02,0.11,0.04,0.21,0.04,0.31C184.83,178.92,184.9,179.81,184.73,180.5z"/>
	</g>
	<path style="fill:#FFEA6C;" d="M184.73,180.5l-0.2,0.51c-0.03,0.16-0.08,0.33-0.13,0.48c-3.64,4.28-15.69,7.49-23.72,8.72
		c-4.56-5.94-14.06-19.98-13.96-27.37c13.65,3.73,34.23,10.77,38.07,15.76c0,0.01,0,0.01,0,0.01c0.02,0.11,0.04,0.21,0.04,0.31
		C184.83,178.92,184.9,179.81,184.73,180.5z"/>
	<path style="fill:#F18B2D;" d="M160.67,190.21c-4.56-5.94-14.06-19.98-13.96-27.37c13.65,3.73,34.23,10.77,38.07,15.76
		c-0.81-3.36-12.49-9.81-36.95-16.47c-0.11-0.03-0.22-0.04-0.33-0.04c-0.27,0-0.48,0.1-0.64,0.2c-0.37,0.24-0.61,0.68-0.69,1.23
		c-0.1,0.74-0.15,1.48-0.15,2.25c0,4.09,1.39,8.65,3.32,12.96c3.9,6.87,8.54,12.88,9.47,14.06c0.3,0.37,0.75,0.58,1.21,0.58
		c0.07,0,0.14,0,0.21-0.01c1.76-0.24,13.04-1.93,20.81-5.82c1.55-1.66,2.74-3.66,3.36-6.06
		C180.75,185.77,168.71,188.98,160.67,190.21z"/>
	<g>
		<path d="M188.48,178.48c-0.83-7.73-21.97-15.07-39.68-19.89c-1.37-0.37-2.78-0.15-3.95,0.63c-1.25,0.82-2.1,2.2-2.32,3.79
			c-2.09,14.73,14.17,35.03,14.87,35.89l0.57,0.7l0.9-0.02c1.03-0.03,25.18-0.88,29.18-17.49
			C188.21,181.79,188.62,179.73,188.48,178.48z M184.73,180.5l-0.2,0.51c-0.03,0.16-0.08,0.33-0.13,0.48
			c-0.61,2.4-1.81,4.4-3.36,6.06c-6.19,6.7-17.99,8.04-21.35,8.29c-1.72-2.24-6.89-9.29-10.35-17.1c-1.92-4.31-3.32-8.87-3.32-12.96
			c0-0.77,0.05-1.51,0.15-2.25c0.08-0.55,0.32-0.99,0.69-1.23c0.15-0.1,0.36-0.2,0.64-0.2c0.11,0,0.22,0.01,0.33,0.04
			c24.46,6.65,36.14,13.11,36.95,16.47c0,0.01,0,0.01,0,0.01c0.02,0.11,0.04,0.21,0.04,0.31
			C184.83,178.92,184.9,179.81,184.73,180.5z"/>
	</g>
</g>
<g>
	<g>
		<path style="fill:#FFB300;" d="M133.77,108.16c-0.01,0.11-0.04,0.21-0.07,0.31c0,0-0.27,1.21-0.8,2.1
			c-0.35,0.59-1.31,1.92-1.31,1.92c-0.11,0.16-0.22,0.33-0.33,0.48c-1.34,1.97-2.92,3.74-4.71,5.37
			c-19.47,17.73-62.64,16.37-69.28,16.05c-2.63-3.81-15.07-22.94-15.07-45.39c0-9.58,2.27-19.77,8.53-29.62
			c0.57-0.89,1.17-1.79,1.81-2.68c0.76-1.06,1.7-1.88,2.71-2.4c0.14-0.08,0.3-0.15,0.45-0.22c1.65-0.71,3.48-0.69,5.09,0.15
			C106.91,78.55,135.39,99.63,133.77,108.16z"/>
	</g>
	<path style="fill:#F18B2D;" d="M60.8,54.22c-1.61-0.85-3.45-0.87-5.09-0.15c21.99,11.53,74,41.12,78.06,54.09
		C135.39,99.63,106.91,78.55,60.8,54.22z M81.49,117.58c-0.04-0.1-0.08-0.21-0.12-0.31c-4.72-0.38-8.91-0.86-12.11-1.28
		c-2.83-5.95-21.56-46.48-14.01-61.7c-1.01,0.53-1.95,1.34-2.71,2.4c-0.64,0.89-1.24,1.79-1.81,2.68
		c-2.52,20.46,15.26,56.92,16.14,58.7c0.22,0.45,0.66,0.77,1.16,0.85c0.74,0.1,6.86,0.94,15.2,1.59
		C82.57,119.73,81.97,118.76,81.49,117.58z M97.8,118.1c-1.03,1.2-2.2,2.22-3.44,3.01c2.13,0.07,4.31,0.11,6.5,0.11
		c9.23,0,18.65-0.7,25.69-2.89c1.79-1.62,3.37-3.4,4.71-5.37C124.81,117.21,111.2,118.3,97.8,118.1z"/>
	<path style="fill:#FFEA6C;" d="M133.41,111.14c-0.58,0.66-1.31,1.27-2.14,1.82c-11.78,7.75-47.38,4.99-62,3.02
		c-2.83-5.95-21.56-46.48-14.01-61.7c0.14-0.08,0.3-0.15,0.45-0.22c21.99,11.53,74,41.12,78.06,54.09v0.01
		c0.08,0.23,0.13,0.45,0.18,0.67C134.12,109.79,133.95,110.53,133.41,111.14z"/>
	<path d="M62.51,50.97c-1.42-0.75-2.92-1.11-4.42-1.11c-0.48,0-0.97,0.03-1.45,0.12c-0.55,0.08-1.1,0.21-1.62,0.4
		c-0.07,0.02-0.13,0.04-0.2,0.07c-0.37,0.14-0.75,0.3-1.11,0.48c-1.57,0.79-3,2.01-4.15,3.62c-27.44,38.32,4.93,82.28,5.26,82.72
		l0.51,0.67l0.85,0.05c0.55,0.04,3.94,0.26,9.08,0.26c17.52,0,55.28-2.56,69.27-23.53c0.22-0.32,0.53-0.71,0.88-1.23
		c0.54-0.79,1.16-1.86,1.64-3.29c-0.01-0.01-0.01-0.01,0-0.01c0.11-0.34,0.21-0.7,0.3-1.08C138.71,102.68,130.35,86.76,62.51,50.97z
		 M126.56,118.33c-19.47,17.73-62.64,16.37-69.28,16.05c-2.63-3.81-15.07-22.94-15.07-45.39c0-9.58,2.27-19.77,8.53-29.62
		c0.57-0.89,1.17-1.79,1.81-2.68c0.76-1.06,1.7-1.88,2.71-2.4c0.14-0.08,0.3-0.15,0.45-0.22c1.65-0.71,3.48-0.69,5.09,0.15
		c46.11,24.33,74.59,45.4,72.97,53.93v0.01c-0.01,0.11-0.04,0.2-0.07,0.3c0,0-0.27,1.21-0.8,2.1c-0.35,0.59-1.31,1.92-1.31,1.92
		c-0.11,0.16-0.22,0.33-0.33,0.48C129.93,114.93,128.35,116.71,126.56,118.33z"/>
	<g>
		<path style="fill:#FFB300;" d="M82.91,113.24c-2.34-5.82-5.01-17.5-7.53-32.91c0-0.02-0.01-0.03-0.01-0.05
			c0.11,0.03,0.24,0.12,0.4,0.29c4.5,5.01,10.94,12.45,16.02,19.46c3.23,4.47,1.94,8.6,0.89,10.66c-1.51,2.96-4.39,5.2-6.69,5.2
			C85.49,115.89,83.97,115.89,82.91,113.24z"/>
		<path style="fill:#FFB300;" d="M97.8,118.1c-1.03,1.2-2.2,2.22-3.44,3.01c-3.79,2.45-8.22,2.74-11.13-0.6
			c-0.67-0.78-1.26-1.75-1.75-2.93c-0.04-0.1-0.08-0.21-0.12-0.31c-0.16-0.43-0.34-0.87-0.5-1.33c0.34,0.54,0.7,1,1.1,1.38
			c1.15,1.12,2.55,1.62,4.02,1.62c1.3,0,2.65-0.4,3.94-1.11c5.55-3.01,10.02-11.76,4.34-19.62c-5.06-6.99-11.41-14.37-16.23-19.72
			c-0.81-0.9-1.81-1.31-2.74-1.31c-1.26,0-2.4,0.74-2.82,1.95c-1.25-7.51-2-12.93-2-12.93s16.8,17,28.14,32.45
			C103.78,105.71,101.92,113.31,97.8,118.1z"/>
	</g>
	<g>
		<g>
			<path style="fill:#FF0000;" d="M92.67,110.68c-1.51,2.96-4.39,5.2-6.69,5.2c-0.49,0-2.01,0-3.07-2.65
				c-2.34-5.82-5.01-17.5-7.53-32.91c0-0.02-0.01-0.03-0.01-0.05c0.11,0.03,0.24,0.12,0.4,0.29c4.5,5.01,10.94,12.45,16.02,19.46
				C95.01,104.49,93.72,108.62,92.67,110.68z"/>
		</g>
		<g>
			<path style="fill:#82340D;" d="M94.26,98.22c-5.06-6.99-11.41-14.37-16.23-19.72c-0.81-0.9-1.81-1.31-2.74-1.31
				c-1.26,0-2.4,0.74-2.82,1.95c-0.16,0.48-0.21,1.04-0.11,1.67c1.67,10.24,4.53,25.67,7.72,33.56c0.23,0.58,0.49,1.1,0.79,1.56
				c1.31,2.11,3.14,3.01,5.12,3.01C92.84,118.95,101.26,107.92,94.26,98.22z M92.67,110.68c-1.51,2.96-4.39,5.2-6.69,5.2
				c-0.49,0-2.01,0-3.07-2.65c-2.34-5.82-5.01-17.5-7.53-32.91c0-0.02-0.01-0.03-0.01-0.05c0.11,0.03,0.24,0.12,0.4,0.29
				c4.5,5.01,10.94,12.45,16.02,19.46C95.01,104.49,93.72,108.62,92.67,110.68z"/>
		</g>
	</g>
</g>
<g>
	<g>
		<path style="fill:#FFD14A;" d="M261.24,113.25c-0.87,1.62-2.84,2.52-4.49,2.99l-4.51-10.7h8.04
			C261.51,108.13,262.38,111.15,261.24,113.25z"/>
	</g>
	<g>
		<path d="M262.15,102.47h-14.53l7.27,17.21C254.89,119.68,271.08,118.6,262.15,102.47z M261.24,113.25
			c-0.87,1.62-2.84,2.52-4.49,2.99l-4.51-10.7h8.04C261.51,108.13,262.38,111.15,261.24,113.25z"/>
	</g>
</g>
</svg>
