<?xml version="1.0" encoding="utf-8"?>
<!-- Generator: Adobe Illustrator 23.0.2, SVG Export Plug-In . SVG Version: 6.00 Build 0)  -->
<svg version="1.1" id="레이어_1" xmlns="http://www.w3.org/2000/svg" xmlns:xlink="http://www.w3.org/1999/xlink" x="0px"
	 y="0px" viewBox="0 0 334 341" style="enable-background:new 0 0 334 341;" xml:space="preserve">
<style type="text/css">
	.st0{fill:#FFFFFF;}
	.st1{fill:#673101;}
	.st2{fill:#FFC0BB;}
	.st3{fill:#00A2E7;}
	.st4{fill:#4D5B77;}
	.st5{fill:#586689;}
	.st6{fill:#647293;}
	.st7{fill:#A58111;}
	.st8{fill:#C49A3F;}
	.st9{fill:#B28C2B;}
	.st10{fill:#CEA759;}
	.st11{fill:#445166;}
	.st12{fill:#495772;}
	.st13{fill:#404E66;}
	.st14{fill:#CE4D05;}
</style>
<title>자산 1</title>
<g>
	<path class="st0" d="M118.6,77.4c-6.9-9.1-6.6-20.9-6.5-22.2v-0.6c1.2-11.2,6.8-16.5,11.4-19c12.5-6.9,29.1,0.9,31,1.8
		c4.3,2.3,6.1,7.6,4.1,12c-2.1,4.6-7.6,6.6-12.2,4.5c-3.9-1.9-11.2-3.8-14.1-2.2c-1.2,0.7-1.7,3.1-1.9,4.6c0,1.6,0.4,6.9,2.8,10.1
		c3.1,4,2.3,9.8-1.8,12.8l-0.2,0.2C127.1,82.2,121.6,81.3,118.6,77.4z"/>
	<path class="st1" d="M141.5,52.3c1.7,0.5,3.3,1.1,4.9,1.8c4.6,2.3,10,0.4,12.3-4.2s0.4-10.1-4.2-12.3c-2.9-1.4-6-2.5-9.1-3.3
		c-0.1,0-0.3,0.1-0.4,0.2l0,0c-1.7,1.1-2.1,3.4-0.9,5.1c0.5,0.7,1.3,1.2,2.1,1.4c-0.9-0.2-1.8,0.1-2.6,0.6c-1.7,1.2-2.1,3.4-0.9,5.1
		c0.6,0.8,1.4,1.3,2.4,1.5c-0.7,0-1.4,0.2-2,0.6C142,49.5,141.4,50.9,141.5,52.3z"/>
</g>
<g>
	<path class="st0" d="M158.3,75.1c-6.9-9.1-6.6-20.8-6.5-22.1v-0.6c1.2-11.2,6.9-16.5,11.4-19c12.5-6.8,29.1,1,31,1.9
		c4.3,2.3,6.1,7.6,4.1,12c-2.1,4.6-7.6,6.6-12.2,4.5c-4-1.9-11.3-3.8-14.1-2.2c-1.3,0.7-1.8,3.1-2,4.6c0,1.6,0.4,6.9,2.8,10.1
		c3.1,4,2.3,9.8-1.8,12.8l-0.3,0.2C166.7,80,161.2,79.1,158.3,75.1z"/>
	<path class="st1" d="M181.1,50c1.7,0.4,3.4,1.1,5,1.8c4.5,2,9.7,0.2,12-4.1c2.3-4.5,0.6-10.1-3.9-12.4c-2.9-1.4-6-2.5-9.2-3.3
		c-0.1,0-0.3,0.1-0.4,0.2l0,0c-1.7,1.2-2.1,3.5-0.9,5.2c0.5,0.7,1.2,1.2,2.1,1.4c-2-0.2-3.7,1.1-4.1,3c-0.4,2,0.9,3.9,2.9,4.3
		c-0.7,0-1.4,0.2-2,0.6C181.6,47.4,181,48.7,181.1,50z"/>
</g>
<path class="st0" d="M106.2,106.2c0,27.1,24.2,49.1,54,49.1h37.7c16.9,0,30.6-13.8,30.6-30.7v-2.4c0-10.9-5.8-21-15.2-26.5
	c-0.5-5.3-4.4-32.8-38.8-37.9C171.6,57.3,160,57,160,57C130.3,57.1,106.2,79.1,106.2,106.2z"/>
<path class="st2" d="M210.7,118.7c-0.1,8.7,7,15.8,15.7,15.9c0.1,0,0.3,0,0.4,0c1.1-3.2,1.7-6.6,1.7-10v-2.4
	c0-6.8-2.3-13.4-6.4-18.7C215.4,105.4,210.7,111.6,210.7,118.7L210.7,118.7z"/>
<path class="st3" d="M93.9,97.7v115.9c0,20.9,25.4,37.8,56.6,37.8s56.5-16.9,56.5-37.8V97.3c0,0-2.2-43.5-56.6-43.4
	C150.4,53.9,92.7,52.3,93.9,97.7z"/>
<g>
	<path class="st4" d="M70.7,179.7c22.5,0,40.7,29.3,40.7,65.5s-18.2,65.5-40.7,65.5S30,281.4,30,245.2
		C30,209.1,48.2,179.7,70.7,179.7z"/>
	<path class="st5" d="M78.7,179.7c22.5,0,40.7,29.3,40.7,65.5s-18.2,65.5-40.7,65.5S38,281.4,38,245.2
		C38,209.1,56.2,179.7,78.7,179.7z"/>
	<polygon class="st6" points="78.7,250.3 86.7,304.5 70.7,304.5 	"/>
	<polygon class="st6" points="76.5,248.8 58.3,296.2 47,278.1 	"/>
	<polygon class="st6" points="75.5,245.2 41.9,258.1 41.9,232.4 	"/>
	<polygon class="st6" points="76.5,241.6 47,212.4 58.3,194.2 	"/>
	<polygon class="st6" points="78.7,240.1 70.7,185.9 86.7,185.9 	"/>
	<polygon class="st6" points="80.9,241.6 99.1,194.2 110.4,212.4 	"/>
	<polygon class="st6" points="81.9,245.2 115.6,232.4 115.6,258.1 	"/>
	<polygon class="st6" points="81,248.8 110.4,278.1 99.1,296.2 	"/>
</g>
<g>
	<rect x="184.7" y="159" class="st7" width="94.2" height="98.8"/>
	<rect x="184.7" y="159" class="st8" width="94.2" height="32.9"/>
	<rect x="184.7" y="191.9" class="st9" width="94.2" height="32.9"/>
	<rect x="54.1" y="159" class="st9" width="130.7" height="98.8"/>
	<rect x="54.1" y="159" class="st10" width="130.7" height="32.9"/>
	<rect x="54.1" y="191.9" class="st8" width="130.7" height="32.9"/>
</g>
<g>
	<rect x="250.3" y="230.1" class="st11" width="5.8" height="30.2"/>
	<path class="st4" d="M242.7,179.8c22.5,0,40.7,29.3,40.7,65.5s-18.2,65.5-40.7,65.5S202,281.5,202,245.3S220.2,179.8,242.7,179.8z"
		/>
	<path class="st5" d="M250.7,179.8c22.5,0,40.7,29.3,40.7,65.5s-18.2,65.5-40.7,65.5S210,281.5,210,245.3S228.2,179.8,250.7,179.8z"
		/>
	<polygon class="st6" points="250.7,250.4 258.7,304.5 242.7,304.5 	"/>
	<polygon class="st6" points="248.5,248.9 230.3,296.3 219,278.1 	"/>
	<polygon class="st6" points="247.5,245.3 213.9,258.1 213.9,232.4 	"/>
	<polygon class="st6" points="248.5,241.7 219,212.4 230.3,194.2 	"/>
	<polygon class="st6" points="250.7,240.2 242.7,186 258.7,186 	"/>
	<polygon class="st6" points="252.9,241.6 271.1,194.2 282.4,212.4 	"/>
	<polygon class="st6" points="253.9,245.2 287.6,232.4 287.6,258.1 	"/>
	<polygon class="st6" points="253,248.9 282.4,278.1 271.1,296.3 	"/>
	<path class="st11" d="M250.2,230.1c5.2,0,9.4,6.8,9.4,15.1s-4.2,15.1-9.4,15.1s-9.4-6.7-9.4-15.1
		C240.8,236.9,245,230.1,250.2,230.1z"/>
	<path class="st12" d="M256.1,230.1c5.2,0,9.4,6.8,9.4,15.1s-4.2,15.1-9.4,15.1c-5.2,0-9.4-6.7-9.4-15.1
		C246.7,236.9,250.9,230.1,256.1,230.1z"/>
	<path class="st13" d="M252.5,245.2c0-3.1,1.5-5.7,3.5-5.7s3.5,2.5,3.5,5.7s-1.5,5.7-3.5,5.7C254.1,250.9,252.5,248.3,252.5,245.2z"
		/>
</g>
<path class="st14" d="M278.9,169.5v15H301c1.6,0,3-1.7,3-3.7v-7.7c0-2.1-1.3-3.7-3-3.7L278.9,169.5z"/>
</svg>
