<?xml version="1.0" encoding="utf-8"?>
<!-- Generator: Adobe Illustrator 26.5.0, SVG Export Plug-In . SVG Version: 6.00 Build 0)  -->
<svg version="1.1" id="레이어_5" xmlns="http://www.w3.org/2000/svg" xmlns:xlink="http://www.w3.org/1999/xlink" x="0px"
	 y="0px" viewBox="0 0 240 240" style="enable-background:new 0 0 240 240;" xml:space="preserve">
<g>
	<g>
		<path style="fill:#82D045;" d="M155.3,146.8c0.3,2.3,1.1,4.4,2.9,5c2.6,0.8,6.5-0.4,8.9-1.7c2.2-1.2-0.3-4.9-0.6-6.6
			c-0.6-3.5,2.2-5.4,4.5-7.5c3.1-2.8,5.5-6.1,8-9.4c2-2.7,4.2-4.9,4.6-8.4c0.6-4.4-1-8.9-2.1-13.2c-1-4.3-2.5-8.6-4.8-12.4
			c-0.7-1.2-1.5-2.3-2.8-2.8c-0.6-0.3-1.3-0.3-1.9-0.3c-2.8,0-5.5,1.1-7.7,2.8c-2.2,1.6-4.1,3.7-5.8,5.9c-0.5,0.6-1,1.3-1.1,2.1
			c-0.3,2.1,1.8,3.5,2.8,5c1.1,1.7,1.5,3.7,2.4,5.5c1.1,2.2,3.1,4.4,3.9,6.7c0.6,1.9-0.4,2.7-1,4.6c-0.9,3-1.7,6-2.9,9
			c-1.2,3-3.7,4.6-5.8,6.8c-0.4,0.4-0.8,0.8-1,1.3c-0.2,0.4-0.3,0.8-0.3,1.3C155.2,141.7,155,144.4,155.3,146.8z"/>
		<path d="M160.1,152.9c-0.8,0-1.5-0.1-2.2-0.3c-1.9-0.6-3.1-2.6-3.5-5.7c-0.3-2.6-0.1-5.5,0.1-6.8c0.1-0.5,0.1-1,0.3-1.5
			c0.3-0.6,0.7-1.1,1.1-1.5c0.6-0.6,1.2-1.2,1.9-1.8c1.5-1.4,3-2.8,3.9-4.8c0.8-2.1,1.5-4.2,2.1-6.4c0.3-0.8,0.5-1.7,0.8-2.6
			c0.2-0.6,0.4-1.2,0.6-1.6c0.4-0.9,0.7-1.5,0.4-2.5c-0.4-1.3-1.3-2.6-2.1-3.9c-0.6-0.9-1.2-1.8-1.7-2.7c-0.4-0.8-0.7-1.6-1-2.4
			c-0.4-1.1-0.8-2.1-1.3-3c-0.3-0.4-0.6-0.8-1-1.2c-1-1.2-2.2-2.4-1.9-4.3c0.1-1,0.7-1.7,1.2-2.4c1.4-1.9,3.4-4.2,5.9-6
			c1.8-1.3,4.7-2.9,8.2-2.9c0.9,0,1.6,0.1,2.2,0.3c1.5,0.6,2.4,1.9,3.2,3.1c2.1,3.5,3.7,7.8,4.9,12.6c0.2,1,0.4,1.9,0.7,2.8
			c0.9,3.5,1.9,7.1,1.3,10.7c-0.4,3.1-2.1,5.3-3.8,7.6c-0.3,0.4-0.6,0.8-1,1.3l-0.5,0.7c-2.4,3.1-4.6,6.2-7.5,8.9
			c-0.3,0.3-0.5,0.5-0.8,0.7c-2,1.8-3.9,3.5-3.4,6c0.1,0.4,0.3,1,0.6,1.6c0.8,1.9,1.9,4.7-0.3,5.8
			C165.4,151.9,162.5,152.9,160.1,152.9z M171.9,90.1C171.9,90.1,171.9,90.1,171.9,90.1c-3.1,0-5.7,1.4-7.3,2.6
			c-2.4,1.7-4.2,4-5.6,5.7c-0.4,0.6-0.8,1.2-1,1.7c-0.2,1.2,0.6,2.1,1.5,3c0.4,0.4,0.8,1,1.2,1.5c0.7,1.1,1.1,2.2,1.5,3.3
			c0.3,0.8,0.5,1.5,0.9,2.2c0.4,0.8,1,1.7,1.5,2.5c0.9,1.3,1.9,2.8,2.3,4.3c0.4,1.6,0,2.6-0.4,3.6c-0.2,0.4-0.4,0.8-0.6,1.3
			c-0.3,0.8-0.5,1.7-0.8,2.6c-0.6,2.1-1.3,4.4-2.1,6.5c-1,2.4-2.6,3.9-4.2,5.4c-0.6,0.5-1.2,1.1-1.8,1.7c-0.3,0.4-0.6,0.7-0.8,1
			c-0.1,0.3-0.2,0.7-0.2,1.1c-0.1,1.3-0.4,4-0.1,6.5l0,0c0.3,2.5,1.1,4,2.4,4.4c2.2,0.7,5.7-0.3,8.2-1.7c0.9-0.4,0.3-2.1-0.4-3.9
			c-0.3-0.7-0.6-1.3-0.6-1.9c-0.6-3.5,1.8-5.7,3.9-7.5c0.3-0.3,0.5-0.4,0.8-0.7c2.8-2.6,5-5.5,7.3-8.7l0.5-0.7
			c0.3-0.4,0.6-0.8,1-1.3c1.7-2.2,3.1-4,3.5-6.8c0.4-3.3-0.4-6.7-1.3-10.1c-0.3-1-0.5-1.9-0.7-2.9c-1.1-4.7-2.7-8.8-4.7-12.1
			c-0.6-1-1.3-2.1-2.4-2.5C173.1,90.2,172.6,90.1,171.9,90.1z"/>
	</g>
	<g>
		<path style="fill:#1C2B54;" d="M169.2,80.8c6.4,4.6,10.5,12.1,11.9,19.9c-4,1.3-8.3,2.2-12.2,3.9c-4.1,1.7-7.2,4.3-9.6,8
			c-3.3-1.5-5.1-11-6.2-14.4c-1.7-5.5-3.1-11.1-3.4-16.9c-0.2-3.1-0.8-4.5,2.2-5.2c1.9-0.4,4.4,0.2,6.3,0.5
			C161.8,77.2,166,78.4,169.2,80.8z"/>
		<path d="M159.4,113.5l-0.6-0.3c-3-1.4-4.7-7.7-5.8-12.3c-0.3-1-0.5-1.9-0.7-2.6c-2.1-6.4-3.1-11.9-3.5-17.1c0-0.4-0.1-0.8-0.1-1.2
			c-0.2-2.2-0.4-4,2.9-4.8c1.9-0.4,4.1,0.1,6,0.4l0.6,0.1c4.9,1,8.7,2.4,11.4,4.4c6.3,4.6,10.7,12,12.2,20.4l0.1,0.6l-0.6,0.2
			c-1.5,0.5-3.1,1-4.6,1.4c-2.5,0.7-5.1,1.5-7.6,2.5c-3.9,1.7-7,4.2-9.3,7.6L159.4,113.5z M153.2,76.6c-0.4,0-0.9,0.1-1.3,0.1
			c-1.9,0.4-1.9,0.9-1.7,3.1c0.1,0.4,0.1,0.8,0.1,1.3c0.3,5.1,1.3,10.4,3.3,16.7c0.2,0.6,0.4,1.6,0.7,2.6c0.9,3.5,2.4,9.2,4.5,10.9
			c2.4-3.4,5.6-5.9,9.6-7.6c2.5-1.1,5.2-1.8,7.7-2.6c1.3-0.4,2.6-0.8,3.9-1.2c-1.5-7.7-5.7-14.5-11.4-18.8
			c-2.6-1.9-6.1-3.2-10.8-4.1l-0.6-0.1C156,76.9,154.5,76.6,153.2,76.6z"/>
	</g>
	<g>
		<path style="fill:#DDDDDD;" d="M173.7,154.5c0.2,2.4-0.6,4.8-2.2,6.6c-0.4,0.4-1,0.9-1.7,0.8c-0.5-0.1-0.9-0.6-1-1
			c-0.2-0.5-0.2-1-0.3-1.5c-0.5-2.3-2.5-4-3.6-6.2c-0.3-0.5-0.4-1-0.4-1.5c0-0.6,0.3-1.1,0.6-1.5c1.2-1.4,3.9-2,5.5-1.3
			C172.5,149.7,173.5,152.6,173.7,154.5z"/>
		<path d="M170.1,162.7c-0.1,0-0.3,0-0.4-0.1c-0.7-0.1-1.3-0.7-1.7-1.5c-0.1-0.4-0.2-0.8-0.3-1.2c0-0.2-0.1-0.3-0.1-0.5
			c-0.3-1.3-1.1-2.3-1.9-3.5c-0.6-0.8-1.2-1.5-1.6-2.4c-0.3-0.4-0.5-1.2-0.5-2c0.1-0.6,0.3-1.3,0.8-1.9c1.3-1.7,4.4-2.3,6.4-1.5
			c2.3,1,3.4,4.4,3.5,6.4l0,0c0.3,2.6-0.7,5.3-2.4,7.1C171.4,162.3,170.8,162.7,170.1,162.7z M169,149.3c-1.2,0-2.6,0.5-3.2,1.3
			c-0.2,0.3-0.4,0.6-0.4,1c0,0.3,0.1,0.7,0.3,1.2c0.4,0.8,0.9,1.5,1.5,2.2c0.9,1.2,1.9,2.5,2.2,4.1c0.1,0.2,0.1,0.4,0.1,0.6
			c0.1,0.3,0.1,0.6,0.2,0.8c0.1,0.3,0.3,0.5,0.4,0.6c0.2,0.1,0.6-0.2,0.9-0.6c1.5-1.6,2.2-3.8,2-6l0,0c-0.1-1.7-1.1-4.4-2.6-5
			C169.9,149.4,169.4,149.3,169,149.3z"/>
	</g>
	<g>
		<path style="fill:#DDDDDD;" d="M169.5,156.4c0,2.4-1,4.8-2.8,6.4c-0.4,0.4-1.1,0.8-1.7,0.6c-0.5-0.1-0.8-0.6-1-1.2
			c-0.1-0.5-0.1-1-0.2-1.5c-0.3-2.4-2.2-4.2-3.1-6.4c-0.2-0.5-0.4-1-0.3-1.6c0.1-0.5,0.4-1,0.8-1.4c1.3-1.3,4-1.7,5.6-0.8
			C168.7,151.5,169.4,154.6,169.5,156.4z"/>
		<path d="M165.3,164.3c-0.2,0-0.3,0-0.5-0.1c-0.7-0.2-1.3-0.8-1.5-1.7c-0.1-0.4-0.1-0.8-0.1-1.2c0-0.2,0-0.3-0.1-0.5
			c-0.1-1.3-0.9-2.4-1.6-3.7c-0.5-0.8-1-1.7-1.4-2.6c-0.2-0.5-0.4-1.2-0.3-2c0.1-0.6,0.4-1.3,1-1.9c1.5-1.5,4.6-2,6.5-0.9
			c2.2,1.2,3,4.6,3,6.6l0,0c0,2.6-1.1,5.1-3,6.9C166.6,163.9,165.9,164.3,165.3,164.3z M164.8,150.8c-1.1,0-2.3,0.4-3,1
			c-0.2,0.3-0.5,0.6-0.6,1c-0.1,0.3,0,0.7,0.3,1.2c0.3,0.8,0.8,1.5,1.3,2.3c0.8,1.3,1.7,2.6,1.9,4.3c0,0.2,0.1,0.4,0.1,0.6
			c0,0.3,0.1,0.6,0.1,0.8c0.1,0.3,0.3,0.5,0.4,0.6c0.2,0.1,0.6-0.1,1-0.5c1.5-1.5,2.5-3.6,2.5-5.8l0,0c0-1.7-0.7-4.4-2.2-5.3
			C166,151,165.4,150.8,164.8,150.8z"/>
	</g>
	<g>
		<path style="fill:#DDDDDD;" d="M164.1,158.5c-0.9,2.2-2.8,3.9-5,4.8c-0.6,0.2-1.3,0.3-1.8-0.1c-0.4-0.3-0.5-0.9-0.4-1.4
			c0.1-0.5,0.3-1,0.4-1.5c0.7-2.3-0.3-4.8-0.3-7.1c0-0.5,0.1-1.1,0.4-1.5c0.3-0.4,0.8-0.8,1.3-1c1.7-0.7,4.3,0.1,5.5,1.5
			C165.4,153.6,164.9,156.8,164.1,158.5z"/>
		<path d="M158,164.2c-0.6,0-1-0.2-1.3-0.4c-0.6-0.4-0.8-1.3-0.7-2.2c0.1-0.4,0.2-0.8,0.3-1.1c0.1-0.1,0.1-0.3,0.2-0.4
			c0.4-1.2,0.2-2.6-0.1-4c-0.1-1-0.3-1.9-0.3-3c0-0.5,0.1-1.3,0.5-2c0.3-0.6,0.9-1,1.7-1.3c2-0.8,5,0,6.4,1.7c1.5,2,0.9,5.4,0.1,7.3
			l0,0c-1,2.4-3.1,4.3-5.5,5.1C158.8,164.1,158.4,164.2,158,164.2z M160,151c-0.4,0-0.8,0.1-1.2,0.2c-0.3,0.1-0.7,0.3-0.9,0.7
			c-0.2,0.3-0.3,0.6-0.3,1.2c0,0.8,0.1,1.7,0.3,2.6c0.3,1.5,0.4,3.1,0,4.7c-0.1,0.2-0.1,0.4-0.2,0.6c-0.1,0.3-0.2,0.6-0.3,0.8
			c-0.1,0.3,0,0.6,0.1,0.7c0.2,0.1,0.6,0.1,1.1-0.1c2-0.7,3.7-2.3,4.6-4.3c0.6-1.5,1.1-4.4,0.1-5.7C162.7,151.6,161.3,151,160,151z
			 M164.1,158.5L164.1,158.5L164.1,158.5z"/>
	</g>
	<g>
		<g>
			<path style="fill:#1C2B54;" d="M173.3,79.7c-0.7-0.6-1.3-1.2-1.5-1.3c-1.7-1.2-3.5-2.1-5.3-2.9l-0.5-0.2
				c-1.7-0.7-2.8-1.2-4.4-0.4c-1.2,0.6-2.3,1.7-3.3,2.7c-0.6,0.5-1.2,1.1-1.7,1.6l9.6,6.9c0.1,0.1,0.1,0.1,0.2,0.1
				c0.1,0,0.3-0.1,0.3-0.1c2.8-1.8,5.8-3.3,9.1-4.4C175.2,81.3,174.5,80.8,173.3,79.7z"/>
			<path d="M166.3,86.9c-0.1,0-0.3-0.1-0.4-0.1c-0.1,0-0.1-0.1-0.2-0.1l-9.6-6.9c-0.2-0.1-0.3-0.3-0.3-0.5c0-0.2,0.1-0.4,0.2-0.5
				c0.3-0.3,0.6-0.5,0.9-0.8c0.3-0.3,0.6-0.6,0.9-0.8c1.3-1.3,2.4-2.2,3.5-2.8c1.7-0.9,3-0.4,4.7,0.3l0.7,0.3c2,0.8,3.8,1.8,5.5,3
				c0,0,0.1,0,0.1,0.1c0.2,0.2,0.8,0.7,1.5,1.3c0,0,0,0,0,0c1,0.9,1.8,1.5,2.3,2c0.2,0.1,0.3,0.4,0.2,0.6c0,0.2-0.2,0.4-0.4,0.5
				c-2.9,1-5.9,2.5-8.9,4.3C166.8,86.8,166.5,86.9,166.3,86.9z M165.9,86.7C165.9,86.7,165.9,86.7,165.9,86.7
				C165.9,86.7,165.9,86.7,165.9,86.7z M166.2,85.7C166.2,85.7,166.2,85.7,166.2,85.7C166.2,85.7,166.2,85.7,166.2,85.7z
				 M166.3,85.6C166.3,85.6,166.3,85.6,166.3,85.6C166.3,85.6,166.3,85.6,166.3,85.6C166.3,85.6,166.3,85.6,166.3,85.6z M157.5,79.2
				l8.9,6.4c2.7-1.7,5.4-3,8-4c-0.4-0.4-0.9-0.8-1.5-1.3c-0.7-0.6-1.3-1.1-1.5-1.3c-1.6-1.1-3.3-2-5.2-2.8l-0.7-0.3
				c-1.5-0.6-2.4-1-3.6-0.3c-0.9,0.5-2,1.4-3.2,2.6c-0.3,0.3-0.6,0.5-0.9,0.8C157.7,79,157.6,79.1,157.5,79.2z"/>
		</g>
		<g>
			<path style="fill:#7A1810;" d="M170.1,77.4c0,0-5.9,2.2-8.4,5.7l4.4,3.2l9.4-4.6C175.6,81.7,171.6,78.1,170.1,77.4z"/>
			<path d="M166.2,87c-0.1,0-0.3,0-0.4-0.1l-4.4-3.2c-0.3-0.2-0.4-0.6-0.1-0.9c2.5-3.6,8.4-5.9,8.6-5.9c0.2-0.1,0.3-0.1,0.5,0
				c0.7,0.3,1.8,1.1,3.4,2.5c2.4,2,2.4,2.1,2.4,2.4c0,0.2-0.1,0.5-0.4,0.6l-9.4,4.6C166.4,87,166.3,87,166.2,87z M162.7,83l3.6,2.6
				l8.2-4c-1.1-1-3.3-2.8-4.4-3.4C169,78.6,164.9,80.4,162.7,83z"/>
		</g>
	</g>
</g>
<g>
	<g>
		<path style="fill:#82D045;" d="M16.1,208.4c-0.3,0.9-0.3,1.7,0.3,2.6c1.8,2.7,8.8,1.5,11.3,1c35.4-7.8,70-21.8,98-44.7
			c1.9-1.5,3.8-3.2,4.7-5.5c0.8-2.2,0.6-4.6,0.1-6.9c-1-5.9-3.1-11.8-7.2-16.2c-16.1-17.3-37.8,14.9-49.8,24.8
			c-9.9,8.2-20.1,16-30.4,23.6c-5.1,3.8-10.3,7.6-15.5,11.4c-2.6,1.9-5.2,3.7-7.8,5.6C18.5,204.9,16.7,206.7,16.1,208.4z"/>
		<path d="M21.7,213.5c-2.4,0-4.8-0.4-5.9-2.1c-0.6-1-0.8-2.1-0.4-3.2c0.6-1.9,2.4-3.7,4-4.8c2.6-1.9,5.2-3.7,7.8-5.6
			c6-4.3,11-8,15.5-11.3c11.8-8.7,21.5-16.3,30.4-23.6c2.6-2.1,5.7-5.4,9-8.9c9-9.4,20.2-21.1,30.8-21.1c0.1,0,0.1,0,0.1,0
			c4,0,7.7,1.8,10.9,5.3c3.7,4,6.1,9.4,7.4,16.6c0.4,2.4,0.7,4.9-0.2,7.3c-0.9,2.4-2.8,4.1-4.9,5.8c-26,21.1-59,36.2-98.3,44.9
			C26.7,213,24.2,213.5,21.7,213.5z M113,134.4c-9.9,0-20.9,11.4-29.7,20.7c-3.3,3.5-6.5,6.8-9.1,9c-9,7.4-18.6,14.9-30.5,23.6
			c-4.6,3.4-9.6,7-15.6,11.4c-2.6,1.9-5.2,3.7-7.8,5.6c-1.3,0.9-2.9,2.5-3.4,4l0,0c-0.3,0.7-0.2,1.3,0.2,1.9
			c1.2,1.8,6.1,1.6,10.5,0.6c39.1-8.6,71.9-23.6,97.7-44.6c1.9-1.5,3.7-3.1,4.4-5.1c0.8-2,0.5-4.3,0.1-6.5c-1.2-6.9-3.5-12.1-7-15.8
			C119.8,136.1,116.5,134.5,113,134.4C113.1,134.4,113,134.4,113,134.4z M16.1,208.4L16.1,208.4L16.1,208.4z"/>
	</g>
	<path style="fill:#6FA838;" d="M76.4,180.8c-0.3,0-0.6-0.1-0.7-0.4c-2.3-4.6-2.8-10.1-1.1-15c0.1-0.4,0.6-0.6,1-0.5
		c0.4,0.1,0.6,0.6,0.5,1c-1.5,4.5-1.2,9.6,1,13.8c0.2,0.4,0.1,0.8-0.3,1C76.6,180.7,76.5,180.8,76.4,180.8z"/>
	<path style="fill:#6FA838;" d="M87.4,177.6c-0.2,0-0.4-0.1-0.6-0.3c-4.2-4.9-5.4-12.1-3.1-18.2c0.1-0.4,0.6-0.6,1-0.4
		c0.4,0.1,0.6,0.6,0.4,1c-2.1,5.5-1,12.1,2.9,16.6c0.3,0.3,0.3,0.8-0.1,1.1C87.8,177.6,87.6,177.6,87.4,177.6z"/>
</g>
<path d="M90.5,163.2c2.1,4.8,5.5,8.8,9.1,12.4c3.1,3,7.5,7.5,11.8,8.5c6.2,1.5,12.6,1.8,18.9,1.7c9-0.1,14.9-2.6,21.5-8.6
	c3.6-3.3,6.9-6.9,9.1-11.2c4.7-9.6,2.7-21.1-0.5-31.3c-2.2-6.9-5.1-13.9-10.5-18.8c-4.3-3.8-9.8-6-15.4-7.3c-13-3.1-33-2.1-40.8,11
	c-3,4.9-3.5,12.2-4.4,17.8C87.8,146,87,155.1,90.5,163.2z"/>
<g>
	<g>
		<path style="fill:#3D3D3D;" d="M103.2,151.6c9.4,3.8,19.8,3.8,29.8,3.1c7.8-0.6,16.7-1.4,21.6-9c2.2-3.5,3.3-8.2,2.1-12.3
			c-1.2-4.2-4.6-7.3-8.2-9.4c-7.8-4.7-17.2-5.6-26.1-5.4c-4.4,0.1-8.8,0.4-13,1.9c-5.8,1.9-14.5,7.5-16.4,14.1
			c-2,6.6,1.9,12.9,7.3,15.6C101.1,150.8,102.2,151.2,103.2,151.6z"/>
		<path d="M123.8,155.9c-6.9,0-14.1-0.8-20.9-3.5l0,0c-1-0.4-2.1-0.9-3.1-1.4c-5.5-2.8-9.9-9.3-7.7-16.6c2.2-7.3,11.6-12.8,17-14.6
			c4.5-1.5,9.2-1.8,13.2-1.9c7.2-0.2,17.7,0.2,26.6,5.5c3.1,1.9,7.1,5.1,8.5,9.9c1.2,4,0.4,8.9-2.2,12.9c-5.2,8.1-15,8.8-22.2,9.4
			C130,155.7,127,155.9,123.8,155.9z M103.4,150.9c9.6,3.9,20.3,3.7,29.4,3c7.3-0.5,16.3-1.2,21-8.6c2.3-3.7,3.1-8,2-11.6
			c-1.3-4.4-4.9-7.3-7.8-9c-8.5-5.1-18.8-5.4-25.8-5.3c-3.9,0.1-8.5,0.4-12.8,1.8c-5.5,1.8-14,7.3-15.9,13.6
			c-1.9,6.4,2,12.3,6.9,14.7C101.5,150.1,102.5,150.5,103.4,150.9L103.4,150.9z"/>
	</g>
	<g>
		<path style="fill:#898989;" d="M130.4,147.4l-8,0.3c-1,0.1-1.7,0.8-1.7,1.9l0.2,4.9c0.1,1,0.8,1.7,1.9,1.7l8-0.3
			c1-0.1,1.7-0.8,1.7-1.9l-0.2-4.9C132.2,148.1,131.3,147.4,130.4,147.4z M129.8,152.7c0,0.4-0.4,0.8-0.9,0.9l-4.6,0.1
			c-0.5,0-1-0.3-1-0.8l-0.1-2.2c0-0.4,0.4-0.8,0.9-0.9l4.6-0.1c0.5,0,1,0.3,1,0.8L129.8,152.7z"/>
		<path d="M122.6,156.9c-0.6,0-1.3-0.3-1.7-0.7c-0.5-0.4-0.8-1.1-0.8-1.8l-0.2-4.9c-0.1-1.4,1.1-2.6,2.4-2.6l8-0.3
			c0.7,0,1.3,0.2,1.9,0.7c0.5,0.4,0.8,1.1,0.8,1.8l0.2,4.9c0,0.7-0.2,1.3-0.7,1.9c-0.4,0.5-1.1,0.8-1.8,0.8L122.6,156.9
			C122.7,156.9,122.6,156.9,122.6,156.9z M130.4,148.1L130.4,148.1L130.4,148.1l-8,0.3c-0.5,0-1,0.4-1,1l0.2,4.9
			c0,0.3,0.1,0.5,0.3,0.7c0.2,0.2,0.4,0.3,0.7,0.3l8-0.3c0.3,0,0.5-0.1,0.7-0.3c0.2-0.2,0.3-0.4,0.3-0.7l-0.2-4.9
			c0-0.3-0.1-0.5-0.3-0.7C130.9,148.3,130.7,148.1,130.4,148.1z M130.4,147.4L130.4,147.4L130.4,147.4z M124.3,154.6
			c-0.4,0-0.8-0.1-1.2-0.4c-0.4-0.3-0.6-0.7-0.6-1.2l-0.1-2.2c0-0.4,0.1-0.8,0.4-1.2c0.3-0.3,0.8-0.5,1.3-0.6l4.6-0.1
			c0.4,0,0.9,0.1,1.2,0.4c0.4,0.3,0.6,0.7,0.6,1.2l0.1,2.2l0,0c0,0.9-0.7,1.7-1.7,1.7L124.3,154.6
			C124.3,154.6,124.3,154.6,124.3,154.6z M128.8,150.5L128.8,150.5l-4.6,0.1c-0.1,0-0.2,0.1-0.2,0.1l0.1,2.2c0,0,0.1,0.1,0.2,0.1
			l4.6-0.1c0.1,0,0.1-0.1,0.2-0.1l-0.1-2.2C128.9,150.5,128.8,150.5,128.8,150.5z"/>
	</g>
	<g>
		<path style="fill:#898989;" d="M133.6,152.4l-4.9,0.2c-0.3,0-0.4-0.2-0.5-0.4l-0.1-1c0-0.3,0.2-0.4,0.4-0.5l4.9-0.2
			c0.3,0,0.4,0.2,0.5,0.4l0.1,1C134.1,152.2,133.9,152.4,133.6,152.4z"/>
		<path d="M129.1,153.3c-0.9,0-1.7-0.8-1.7-1.7c0-0.4,0.1-0.9,0.4-1.2c0.3-0.3,0.8-0.5,1.2-0.6l4-0.1c0.9-0.1,1.7,0.7,1.8,1.7
			c0,0.4-0.1,0.9-0.4,1.2c-0.3,0.3-0.8,0.5-1.2,0.6L129.1,153.3C129.2,153.3,129.1,153.3,129.1,153.3z M133.1,151.4L133.1,151.4
			l-4,0.1c-0.1,0-0.2,0.1-0.2,0.2c0,0.1,0.1,0.2,0.2,0.1l4-0.1l0,0c0.1,0,0.2-0.1,0.1-0.2C133.3,151.4,133.2,151.4,133.1,151.4z"/>
	</g>
</g>
<g>
	<g>
		<path style="fill:#1C2B54;" d="M152.7,140.5c11.6-14.1,8.7-33.7,5.1-50.2c-0.8-3.7-0.6-8.9-3.6-11.6c-3.6-3.1-8.7-4.7-13.4-4.7
			c-4.2,0-8.4-1.7-12.7-1.9c-5-0.3-10.1,0.1-15,1.2c-2.8,0.6-5.4,2.3-8.2,2.9c-2.6,0.5-4.6,0.1-7.2,1.6c-3.9,2.4-7.8,5.1-10.5,8.8
			c-3.8,5.1-2.4,14.9-1.3,20.7c1.2,6.9-0.1,13.7,3.4,20.1c3,5.4,6.4,10.6,10.2,15.4c4,4.9,10,4.9,16.1,5.3
			c5.7,0.3,11.2,0.4,16.9,0.3c3-0.1,6-0.1,8.9-0.8C146.3,146.4,149.9,143.9,152.7,140.5z"/>
		<path d="M128.8,149.1c-4.4,0-8.9-0.1-13.3-0.3l-0.9-0.1c-5.8-0.3-11.8-0.6-15.8-5.5c-3.9-4.8-7.3-10-10.3-15.5
			c-2.4-4.4-2.6-9-2.8-13.4c-0.1-2.2-0.3-4.6-0.6-6.9c-1.3-7.3-2.2-16.4,1.5-21.3c3.2-4.2,7.6-7.1,10.7-9c1.9-1.2,3.5-1.3,5.2-1.5
			c0.7-0.1,1.5-0.1,2.2-0.3c1.3-0.3,2.6-0.8,4-1.4c1.3-0.6,2.7-1.2,4.2-1.5c5-1.1,10.1-1.5,15.2-1.2c2.1,0.1,4.1,0.6,6,1
			c2.2,0.5,4.4,1,6.6,1c5.3,0,10.4,1.9,13.9,4.9c2.4,2.2,3,5.8,3.4,9.1c0.1,1,0.3,2.1,0.4,3c3.7,17.1,6.6,36.5-5.3,50.8l0,0
			c-3.1,3.8-7.1,6.2-11.8,7.3c-3,0.6-6.2,0.8-9.1,0.8C131.2,149.1,130,149.1,128.8,149.1z M124.8,72.8c-3.9,0-7.7,0.4-11.5,1.2
			c-1.3,0.3-2.6,0.8-3.9,1.3c-1.4,0.6-2.8,1.2-4.4,1.5c-0.9,0.2-1.7,0.3-2.4,0.3c-1.5,0.1-2.9,0.3-4.6,1.2c-4.8,2.8-8,5.5-10.3,8.6
			c-3.9,5.1-1.9,16-1.2,20.1c0.4,2.4,0.5,4.8,0.6,7.1c0.2,4.4,0.4,8.7,2.6,12.8c3,5.5,6.4,10.6,10.1,15.3c3.5,4.4,8.9,4.7,14.6,4.9
			l0.9,0.1c5.6,0.3,11.2,0.4,16.8,0.3c3-0.1,5.9-0.1,8.8-0.8c4.4-1,8-3.2,10.9-6.7l0,0c11.4-13.8,8.5-32.8,4.9-49.5
			c-0.2-1-0.3-2-0.5-3c-0.4-3.1-0.8-6.3-2.9-8.1c-3.2-2.8-8-4.5-12.8-4.5c-2.3,0-4.7-0.5-6.9-1c-1.9-0.4-3.9-0.8-5.8-1
			C127,72.9,125.9,72.8,124.8,72.8z"/>
	</g>
	<path d="M128.7,147.6l-1.5-0.2c1.3-11.8,0.4-24-0.4-35.7c-0.4-6.8-1-13.9-1-20.9h1.5c0.1,6.9,0.6,13.9,1,20.8
		C129.1,123.5,130,135.7,128.7,147.6z"/>
</g>
<g>
	<g>
		<path style="fill:#1C2B54;" d="M103.5,90.7c3.7,2.8,9.1,6.3,13,7.8c0.8,0.3,1.7,0.6,2.5,0.4c1.1-0.2,7.1-8.4,7.4-8.1
			c2.4,2.2,3.3,4.7,5.7,6.9c0.2,0.2,0.4,0.4,0.7,0.4c0.3,0.1,0.6,0,1-0.1c6.6-2.4,13-6.6,15.9-13.3c1.7-4,0.2-10.1-2.3-13.5
			c-3.4-4.6-9.3-6.4-15-7.2c-6.1-0.8-12.5-0.9-18.6-0.1c-6.9,0.8-10.1,2.8-14.4,8.4C93.4,80.2,96.6,85.6,103.5,90.7z"/>
		<path d="M118.6,99.9c-0.8,0-1.6-0.3-2.3-0.6c-4-1.6-9.6-5.3-13.2-8l0,0c-4.7-3.5-7.1-6.7-7.5-10.1c-0.4-3,0.6-6,3.2-9.2
			c4.6-5.8,8-7.9,15-8.7c6.4-0.8,12.7-0.7,18.8,0.1c7.5,1,12.5,3.5,15.5,7.5c2.6,3.5,4.2,9.9,2.4,14.3c-3.1,7.5-10.6,11.6-16.3,13.7
			c-0.4,0.1-0.9,0.3-1.4,0.2c-0.4-0.1-0.8-0.4-1-0.6c-1.2-1.2-2.1-2.4-2.8-3.5c-0.7-1-1.4-2-2.3-3c-0.5,0.6-1.3,1.6-2.1,2.4
			c-3.3,3.9-4.4,5.2-5.1,5.3C119,99.9,118.8,99.9,118.6,99.9z M104,90.1c3.5,2.6,8.9,6.2,12.8,7.8c0.7,0.3,1.5,0.6,2.1,0.4
			c0.5-0.3,2.8-3.1,4.2-4.8c2.5-3,2.8-3.3,3.2-3.3h0.3l0.3,0.3c1.3,1.2,2.2,2.4,3,3.7c0.8,1.2,1.5,2.2,2.6,3.3
			c0.1,0.1,0.3,0.3,0.3,0.3c0.1,0,0.4-0.1,0.5-0.1c5.4-2,12.5-5.8,15.4-12.8c1.5-3.7,0.1-9.6-2.2-12.7c-2.8-3.7-7.5-5.9-14.5-6.9
			c-6-0.8-12.1-0.9-18.4-0.1c-6.5,0.8-9.6,2.6-13.9,8.1c-2.3,3-3.2,5.6-2.9,8.1C97.5,84,99.7,86.9,104,90.1L104,90.1z"/>
	</g>
	<g>
		<path style="fill:#C1B692;" d="M134.6,88.3c-0.1,0-0.1-0.1-0.2,0s-0.1,0.1-0.1,0.2c-0.1,0.5-0.1,1.1-0.1,1.6
			c-0.4,0.2-0.8,0.4-1.2,0.8c-0.1,0.1-0.1,0.2-0.1,0.3c0,0.1,0.1,0.2,0.3,0.3c0.4,0.1,1,0.2,1.2,0.6c0.1,0.3,0.1,0.6,0,0.8
			c-0.1,0.3,0,0.6,0.2,0.8c0.3,0.2,0.6,0.1,0.8-0.1c0.2-0.2,0.3-0.5,0.4-0.8c0.1-0.1,0.1-0.1,0.2-0.2c0.1-0.1,0.2,0,0.3,0
			c0.3,0,0.5,0.1,0.7,0.1c0.4,0.1,0.9,0.1,1-0.3c0.1-0.3,0-0.6-0.2-0.8c-0.2-0.2-0.4-0.4-0.6-0.6c0.1-0.5,0.8-0.8,0.8-1.3
			c0-0.4-0.4-0.6-0.8-0.7c-0.4-0.1-0.8,0.3-1.2,0.1C135.6,89,135,88.5,134.6,88.3z"/>
		<path d="M134.5,88.3c0.1,0,0.1,0,0.1,0.1c0.4,0.2,1,0.6,1.5,0.8c0.1,0,0.1,0,0.1,0c0.3,0,0.6-0.2,1-0.2c0.1,0,0.1,0,0.1,0
			c0.4,0.1,0.7,0.3,0.8,0.7c0,0.5-0.6,0.8-0.8,1.3c0.2,0.3,0.4,0.4,0.6,0.6c0.2,0.2,0.3,0.5,0.2,0.8c-0.1,0.3-0.4,0.3-0.7,0.3
			c-0.1,0-0.3,0-0.3,0c-0.3,0-0.5-0.1-0.7-0.1c-0.1,0-0.1,0-0.1,0c-0.1,0-0.1,0-0.1,0c-0.1,0.1-0.1,0.1-0.2,0.2
			c-0.1,0.3-0.3,0.6-0.4,0.8c-0.1,0.1-0.3,0.3-0.5,0.3c-0.1,0-0.2,0-0.3-0.1c-0.3-0.2-0.3-0.5-0.2-0.8c0.1-0.3,0.1-0.6,0-0.8
			c-0.2-0.4-0.8-0.4-1.2-0.6c-0.1-0.1-0.3-0.1-0.3-0.3c0-0.1,0.1-0.2,0.1-0.3c0.3-0.3,0.8-0.6,1.2-0.8c0-0.5,0-1.1,0.1-1.6
			c0-0.1,0-0.1,0.1-0.2C134.4,88.3,134.4,88.3,134.5,88.3 M134.5,86.7c-0.3,0-0.6,0.1-0.9,0.3c-0.3,0.2-0.7,0.6-0.8,1.3
			c0,0.3-0.1,0.6-0.1,0.8c-0.3,0.2-0.4,0.3-0.7,0.5c-0.6,0.6-0.7,1.3-0.6,1.6c0.1,0.7,0.6,1.3,1.3,1.5c0.1,0,0.1,0.1,0.2,0.1
			c-0.1,0.8,0.3,1.5,0.9,2c0.3,0.3,0.8,0.4,1.2,0.4c0.6,0,1.2-0.3,1.7-0.7c0.1-0.1,0.3-0.3,0.3-0.4c0.2,0,0.3,0.1,0.5,0.1
			c1.4,0,1.9-0.8,2.1-1.2c0.3-0.7,0.3-1.5-0.2-2.2c0.2-0.3,0.3-0.7,0.3-1.2c0-1.1-1-2.1-2.1-2.2c-0.1,0-0.2,0-0.3,0
			c-0.4,0-0.7,0.1-0.9,0.1l0,0c-0.1-0.1-0.2-0.1-0.3-0.2c-0.2-0.1-0.4-0.3-0.8-0.4C134.9,86.7,134.7,86.7,134.5,86.7L134.5,86.7z"/>
	</g>
	<g>
		<path style="fill:#C1B692;" d="M116.6,89.3c-0.1,0-0.1-0.1-0.2,0s-0.1,0.1-0.1,0.2c-0.1,0.5-0.1,1.1-0.1,1.6
			c-0.4,0.2-0.8,0.4-1.2,0.8c-0.1,0.1-0.1,0.2-0.1,0.3c0,0.1,0.1,0.2,0.3,0.3c0.4,0.1,1,0.2,1.2,0.6c0.1,0.3,0.1,0.6,0,0.8
			c-0.1,0.3,0,0.6,0.2,0.8c0.3,0.2,0.6,0.1,0.8-0.1c0.2-0.2,0.3-0.5,0.4-0.8c0.1-0.1,0.1-0.1,0.2-0.2c0.1-0.1,0.2,0,0.3,0
			c0.3,0,0.5,0.1,0.7,0.1c0.4,0.1,0.9,0.1,1-0.3c0.1-0.3,0-0.6-0.2-0.8c-0.2-0.2-0.4-0.4-0.6-0.6c0.1-0.5,0.8-0.8,0.8-1.3
			c0-0.4-0.4-0.6-0.8-0.7c-0.4-0.1-0.8,0.3-1.2,0.1C117.6,89.9,117.1,89.5,116.6,89.3z"/>
		<path d="M116.4,89.2c0.1,0,0.1,0,0.1,0.1c0.4,0.2,1,0.6,1.5,0.8c0.1,0,0.1,0,0.1,0c0.3,0,0.6-0.2,1-0.2c0.1,0,0.1,0,0.1,0
			c0.4,0.1,0.7,0.3,0.8,0.7c0,0.5-0.6,0.8-0.8,1.3c0.2,0.3,0.4,0.4,0.6,0.6c0.2,0.2,0.3,0.5,0.2,0.8s-0.4,0.3-0.7,0.3
			c-0.1,0-0.3,0-0.3,0c-0.3,0-0.5-0.1-0.7-0.1c-0.1,0-0.1,0-0.1,0s-0.1,0-0.1,0c-0.1,0.1-0.1,0.1-0.2,0.2c-0.1,0.3-0.3,0.6-0.4,0.8
			c-0.1,0.1-0.3,0.3-0.5,0.3c-0.1,0-0.2,0-0.3-0.1c-0.3-0.2-0.3-0.5-0.2-0.8c0.1-0.3,0.1-0.6,0-0.8c-0.2-0.4-0.8-0.4-1.2-0.6
			c-0.1-0.1-0.3-0.1-0.3-0.3s0.1-0.2,0.1-0.3c0.3-0.3,0.8-0.6,1.2-0.8c0-0.5,0-1.1,0.1-1.6c0-0.1,0-0.1,0.1-0.2
			C116.4,89.2,116.4,89.2,116.4,89.2 M116.4,87.7c-0.3,0-0.6,0.1-0.9,0.3s-0.7,0.6-0.8,1.3c0,0.3-0.1,0.6-0.1,0.8
			c-0.3,0.2-0.4,0.3-0.7,0.5c-0.6,0.6-0.7,1.3-0.6,1.6c0.1,0.7,0.6,1.3,1.3,1.5c0.1,0,0.1,0.1,0.2,0.1c-0.1,0.8,0.3,1.5,0.9,2
			c0.3,0.3,0.8,0.4,1.2,0.4c0.6,0,1.2-0.3,1.7-0.7c0.1-0.1,0.3-0.3,0.3-0.4c0.2,0,0.3,0.1,0.5,0.1c1.4,0,1.9-0.8,2.1-1.2
			c0.3-0.7,0.3-1.5-0.2-2.2c0.2-0.3,0.3-0.7,0.3-1.2c0-1.1-1-2.1-2.1-2.2c-0.1,0-0.2,0-0.3,0c-0.4,0-0.7,0.1-0.9,0.1l0,0
			c-0.1-0.1-0.2-0.1-0.3-0.2c-0.2-0.1-0.4-0.3-0.8-0.4C116.9,87.8,116.7,87.7,116.4,87.7L116.4,87.7z"/>
	</g>
	<g>
		<path style="fill:#C1B692;" d="M108.5,85.7c-0.1,0-0.1-0.1-0.1,0c-0.1,0-0.1,0.1-0.1,0.1c-0.1,0.4-0.1,0.8-0.1,1.3
			c-0.3,0.1-0.6,0.4-0.9,0.6c-0.1,0.1-0.1,0.1-0.1,0.2s0.1,0.1,0.2,0.2c0.3,0.1,0.8,0.1,1,0.5c0.1,0.2,0.1,0.4,0,0.6
			c0,0.3,0,0.5,0.2,0.6c0.2,0.1,0.4,0.1,0.6-0.1c0.2-0.2,0.3-0.4,0.4-0.6c0.1-0.1,0.1-0.1,0.1-0.1c0.1,0,0.1,0,0.2,0
			c0.2,0,0.4,0.1,0.6,0.1c0.3,0.1,0.7,0.1,0.8-0.3c0.1-0.2,0-0.4-0.1-0.6c-0.1-0.2-0.3-0.3-0.5-0.4c0.1-0.4,0.6-0.6,0.6-1
			c0-0.3-0.3-0.5-0.6-0.6c-0.3-0.1-0.6,0.2-1,0.1C109.2,86.2,108.8,85.8,108.5,85.7z"/>
		<path d="M108.4,85.6c0.1,0,0.1,0,0.1,0c0.3,0.1,0.8,0.5,1.2,0.6c0.1,0,0.1,0,0.1,0c0.3,0,0.5-0.1,0.8-0.1h0.1
			c0.3,0.1,0.6,0.3,0.6,0.6c0,0.4-0.5,0.6-0.6,1c0.1,0.2,0.3,0.3,0.5,0.4c0.1,0.2,0.3,0.4,0.1,0.6c-0.1,0.2-0.3,0.3-0.6,0.3
			c-0.1,0-0.2,0-0.3,0c-0.2,0-0.4-0.1-0.6-0.1c-0.1,0-0.1,0-0.1,0c-0.1,0-0.1,0-0.1,0c-0.1,0-0.1,0.1-0.1,0.1
			c-0.1,0.2-0.2,0.4-0.4,0.6c-0.1,0.1-0.3,0.2-0.4,0.2c-0.1,0-0.1,0-0.2-0.1c-0.2-0.1-0.2-0.4-0.2-0.6s0.1-0.4,0-0.6
			c-0.2-0.3-0.6-0.4-1-0.5c-0.1,0-0.2-0.1-0.2-0.2c0-0.1,0.1-0.1,0.1-0.2c0.3-0.3,0.6-0.4,0.9-0.6c0-0.4,0-0.8,0.1-1.3
			C108.3,85.8,108.3,85.7,108.4,85.6C108.3,85.6,108.3,85.6,108.4,85.6 M108.4,84.1c-0.3,0-0.6,0.1-0.9,0.3s-0.7,0.6-0.8,1.3
			c0,0.2,0,0.3-0.1,0.5c-0.1,0.1-0.3,0.3-0.4,0.4c-0.6,0.6-0.6,1.2-0.6,1.5c0.1,0.6,0.5,1.2,1.2,1.5c0,0.6,0.3,1.2,0.8,1.6
			c0.3,0.3,0.7,0.4,1.2,0.4c0.6,0,1.1-0.3,1.5-0.6c0.1-0.1,0.1-0.1,0.2-0.2c0.1,0,0.1,0,0.3,0c1.3,0,1.8-0.8,2-1.2
			c0.3-0.6,0.3-1.3-0.1-1.9c0.1-0.3,0.2-0.6,0.2-1c0-1-0.9-1.9-2-2.1c-0.1,0-0.2,0-0.3,0c-0.3,0-0.5,0.1-0.6,0.1
			c-0.1,0-0.1-0.1-0.1-0.1c-0.2-0.1-0.4-0.3-0.6-0.3C108.8,84.2,108.6,84.1,108.4,84.1L108.4,84.1z"/>
	</g>
	<g>
		<path style="fill:#C1B692;" d="M101.8,80.7c-0.1,0-0.1-0.1-0.1,0c-0.1,0-0.1,0.1-0.1,0.1c-0.1,0.4-0.1,0.8-0.1,1.3
			c-0.3,0.1-0.6,0.4-0.9,0.6c-0.1,0.1-0.1,0.1-0.1,0.2s0.1,0.1,0.2,0.2c0.3,0.1,0.8,0.1,1,0.5c0.1,0.2,0.1,0.4,0,0.6s0,0.5,0.2,0.6
			c0.2,0.1,0.4,0.1,0.6-0.1c0.2-0.2,0.3-0.4,0.4-0.6c0.1-0.1,0.1-0.1,0.1-0.1c0.1,0,0.1,0,0.2,0c0.2,0,0.4,0.1,0.6,0.1
			c0.3,0.1,0.7,0.1,0.8-0.3c0.1-0.2,0-0.4-0.1-0.6c-0.1-0.2-0.3-0.3-0.5-0.4c0.1-0.4,0.6-0.6,0.6-1c0-0.3-0.3-0.5-0.6-0.6
			c-0.3-0.1-0.6,0.2-1,0.1C102.7,81.2,102.2,80.9,101.8,80.7z"/>
		<path d="M101.8,80.7c0.1,0,0.1,0,0.1,0c0.3,0.1,0.8,0.5,1.2,0.6c0.1,0,0.1,0,0.1,0c0.3,0,0.5-0.1,0.8-0.1h0.1
			c0.3,0.1,0.6,0.3,0.6,0.6c0,0.4-0.5,0.6-0.6,1c0.1,0.2,0.3,0.3,0.5,0.4c0.1,0.2,0.3,0.4,0.1,0.6c-0.1,0.2-0.3,0.3-0.6,0.3
			c-0.1,0-0.2,0-0.3,0c-0.2,0-0.4-0.1-0.6-0.1c-0.1,0-0.1,0-0.1,0c-0.1,0-0.1,0-0.1,0c-0.1,0-0.1,0.1-0.1,0.1
			c-0.1,0.2-0.2,0.4-0.4,0.6c-0.1,0.1-0.3,0.2-0.4,0.2c-0.1,0-0.1,0-0.2-0.1c-0.2-0.1-0.2-0.4-0.2-0.6c0-0.3,0.1-0.4,0-0.6
			c-0.2-0.3-0.6-0.4-1-0.5c-0.1,0-0.2-0.1-0.2-0.2c0-0.1,0.1-0.1,0.1-0.2c0.3-0.3,0.6-0.4,0.9-0.6c0-0.4,0-0.8,0.1-1.3
			C101.6,80.8,101.6,80.7,101.8,80.7C101.7,80.7,101.8,80.7,101.8,80.7 M101.8,79.1c-0.3,0-0.6,0.1-0.9,0.3
			c-0.3,0.2-0.7,0.6-0.8,1.3c0,0.2,0,0.3-0.1,0.5c-0.1,0.1-0.3,0.3-0.4,0.4c-0.6,0.6-0.6,1.2-0.6,1.5c0.1,0.6,0.5,1.2,1.2,1.5
			c0,0.6,0.3,1.2,0.8,1.6c0.3,0.3,0.7,0.4,1.2,0.4c0.6,0,1.1-0.3,1.5-0.6c0.1-0.1,0.1-0.1,0.2-0.2c0.1,0,0.1,0,0.3,0
			c1.3,0,1.8-0.8,2-1.2c0.3-0.6,0.3-1.3-0.1-1.9c0.1-0.3,0.2-0.6,0.2-1c0-1-0.9-1.9-2-2.1c-0.1,0-0.2,0-0.3,0
			c-0.3,0-0.5,0.1-0.6,0.1c-0.1,0-0.1-0.1-0.1-0.1c-0.2-0.1-0.4-0.3-0.6-0.3C102.2,79.2,102,79.1,101.8,79.1L101.8,79.1z"/>
	</g>
	<g>
		<path style="fill:#C1B692;" d="M146.3,79.1c-0.1,0-0.1-0.1-0.1,0c-0.1,0-0.1,0.1-0.1,0.1c-0.1,0.4-0.1,0.8-0.1,1.3
			c-0.3,0.1-0.6,0.4-0.9,0.6c-0.1,0.1-0.1,0.1-0.1,0.2s0.1,0.1,0.2,0.2c0.3,0.1,0.8,0.1,1,0.5c0.1,0.2,0.1,0.4,0,0.6s0,0.5,0.2,0.6
			c0.2,0.1,0.4,0.1,0.6-0.1s0.3-0.4,0.4-0.6c0.1-0.1,0.1-0.1,0.1-0.1c0.1,0,0.1,0,0.2,0c0.2,0,0.4,0.1,0.6,0.1
			c0.3,0.1,0.7,0.1,0.8-0.3c0.1-0.2,0-0.4-0.1-0.6c-0.1-0.2-0.3-0.3-0.5-0.4c0.1-0.4,0.6-0.6,0.6-1c0-0.3-0.3-0.5-0.6-0.6
			c-0.3-0.1-0.6,0.2-1,0.1C147.1,79.7,146.6,79.3,146.3,79.1z"/>
		<path d="M146.2,79.1c0.1,0,0.1,0,0.1,0c0.3,0.1,0.8,0.5,1.2,0.6c0.1,0,0.1,0,0.1,0c0.3,0,0.5-0.1,0.8-0.1h0.1
			c0.3,0.1,0.6,0.3,0.6,0.6c0,0.4-0.5,0.6-0.6,1c0.1,0.2,0.3,0.3,0.5,0.4c0.1,0.2,0.3,0.4,0.1,0.6c-0.1,0.2-0.3,0.3-0.6,0.3
			c-0.1,0-0.2,0-0.3,0c-0.2,0-0.4-0.1-0.6-0.1c-0.1,0-0.1,0-0.1,0c-0.1,0-0.1,0-0.1,0s-0.1,0.1-0.1,0.1c-0.1,0.2-0.2,0.4-0.4,0.6
			c-0.1,0.1-0.3,0.2-0.4,0.2c-0.1,0-0.1,0-0.2-0.1c-0.2-0.1-0.2-0.4-0.2-0.6c0-0.3,0.1-0.4,0-0.6c-0.2-0.3-0.6-0.4-1-0.5
			c-0.1,0-0.2-0.1-0.2-0.2c0-0.1,0.1-0.1,0.1-0.2c0.3-0.3,0.6-0.4,0.9-0.6c0-0.4,0-0.8,0.1-1.3C146,79.2,146,79.2,146.2,79.1
			C146.1,79.1,146.2,79.1,146.2,79.1 M146.2,77.5c-0.3,0-0.6,0.1-0.9,0.3s-0.7,0.6-0.8,1.3c0,0.2,0,0.3-0.1,0.5
			c-0.1,0.1-0.3,0.3-0.4,0.4c-0.6,0.6-0.6,1.2-0.6,1.5c0.1,0.6,0.5,1.2,1.2,1.5c0,0.6,0.3,1.2,0.8,1.6c0.3,0.3,0.7,0.4,1.2,0.4
			c0.6,0,1.1-0.3,1.5-0.6c0.1-0.1,0.1-0.1,0.2-0.2c0.1,0,0.1,0,0.3,0c1.3,0,1.8-0.8,2-1.2c0.3-0.6,0.3-1.3-0.1-1.9
			c0.1-0.3,0.2-0.6,0.2-1c0-1-0.9-1.9-2-2.1c-0.1,0-0.2,0-0.3,0c-0.3,0-0.5,0.1-0.6,0.1c-0.1,0-0.1-0.1-0.1-0.1
			c-0.2-0.1-0.4-0.3-0.6-0.3C146.6,77.5,146.4,77.5,146.2,77.5L146.2,77.5z"/>
	</g>
	<g>
		<path style="fill:#C1B692;" d="M141.7,84.7c-0.1,0-0.1-0.1-0.1,0c-0.1,0-0.1,0.1-0.1,0.1c-0.1,0.4-0.1,0.8-0.1,1.3
			c-0.3,0.1-0.6,0.4-0.9,0.6c-0.1,0.1-0.1,0.1-0.1,0.2s0.1,0.1,0.2,0.2c0.3,0.1,0.8,0.1,1,0.5c0.1,0.2,0.1,0.4,0,0.6
			c-0.1,0.2,0,0.5,0.2,0.6c0.2,0.1,0.4,0.1,0.6-0.1c0.2-0.2,0.3-0.4,0.4-0.6c0.1-0.1,0.1-0.1,0.1-0.1s0.1,0,0.2,0
			c0.2,0,0.4,0.1,0.6,0.1c0.3,0.1,0.7,0.1,0.8-0.3c0.1-0.2,0-0.4-0.1-0.6c-0.1-0.2-0.3-0.3-0.5-0.4c0.1-0.4,0.6-0.6,0.6-1
			c0-0.3-0.3-0.5-0.6-0.6c-0.3-0.1-0.6,0.2-1,0.1C142.4,85.3,142,84.9,141.7,84.7z"/>
		<path d="M141.5,84.7c0.1,0,0.1,0,0.1,0c0.3,0.1,0.8,0.5,1.2,0.6c0.1,0,0.1,0,0.1,0c0.3,0,0.5-0.1,0.8-0.1h0.1
			c0.3,0.1,0.6,0.3,0.6,0.6c0,0.4-0.5,0.6-0.6,1c0.1,0.2,0.3,0.3,0.5,0.4c0.1,0.2,0.3,0.4,0.1,0.6c-0.1,0.2-0.3,0.3-0.6,0.3
			c-0.1,0-0.2,0-0.3,0c-0.2,0-0.4-0.1-0.6-0.1c-0.1,0-0.1,0-0.1,0s-0.1,0-0.1,0c-0.1,0-0.1,0.1-0.1,0.1c-0.1,0.2-0.2,0.4-0.4,0.6
			c-0.1,0.1-0.3,0.2-0.4,0.2c-0.1,0-0.1,0-0.2-0.1c-0.2-0.1-0.2-0.4-0.2-0.6c0-0.3,0.1-0.4,0-0.6c-0.2-0.3-0.6-0.4-1-0.5
			c-0.1,0-0.2-0.1-0.2-0.2c0-0.1,0.1-0.1,0.1-0.2c0.3-0.3,0.6-0.4,0.9-0.6c0-0.4,0-0.8,0.1-1.3C141.4,84.8,141.4,84.7,141.5,84.7
			C141.5,84.7,141.5,84.7,141.5,84.7 M141.5,83.1c-0.3,0-0.6,0.1-0.9,0.3c-0.3,0.2-0.7,0.6-0.8,1.3c0,0.2,0,0.3-0.1,0.5
			c-0.1,0.1-0.3,0.3-0.4,0.4c-0.6,0.6-0.6,1.2-0.6,1.5c0.1,0.6,0.5,1.2,1.2,1.5c0,0.6,0.3,1.2,0.8,1.6c0.3,0.3,0.7,0.4,1.2,0.4
			c0.6,0,1.1-0.3,1.5-0.6c0.1-0.1,0.1-0.1,0.2-0.2c0.1,0,0.1,0,0.3,0c1.3,0,1.8-0.8,2-1.2c0.3-0.6,0.3-1.3-0.1-1.9
			c0.1-0.3,0.2-0.6,0.2-1c0-1-0.9-1.9-2-2.1c-0.1,0-0.2,0-0.3,0c-0.3,0-0.5,0.1-0.6,0.1c-0.1,0-0.1-0.1-0.1-0.1
			c-0.2-0.1-0.4-0.3-0.6-0.3C142,83.2,141.8,83.1,141.5,83.1L141.5,83.1z"/>
	</g>
</g>
<g>
	<path d="M84,179.9c-1,6.1-1.7,12.4-0.1,18.3c2.1,7.6,7.4,13.7,10.7,20.7c1.4,3,1.6,8.5,5.3,8.9c2.5,0.3,7.5,0.3,9.8-0.4
		c1-0.3,1.9-0.8,2.8-1.3c0.4-0.2,0.8-0.4,1-0.8c0.4-0.5,0.4-1.3,0.3-1.9c-1-8.3-8.2-15.2-8.4-23.9c-0.1-4.6,3.2-8.5,5.3-12.6
		c3.4-6.7,3.5-15.1,0.3-22c-2.4-5.2-11.1-15.7-17.9-12.3C86.7,155.9,85.1,173.6,84,179.9z"/>
	<g>
		<path style="fill:#3D3D3D;" d="M84.5,218.8c3.4-2.4,7.5-3.8,11.7-4.4c3.7-0.6,7.6-0.6,11,0.9c4.3,1.9,8.6,5,11.2,9
			c1.9,2.8,3.7,7.7,2.4,11.2c-1.2,3.1-4.9,3.7-8,3.7c-10,0-20,0-30.1,0.1c-1.2,0-2.6,0-3.6-0.6C72.4,234.4,80.6,221.7,84.5,218.8z"
			/>
		<path d="M82.6,240c-1.2,0-2.6,0-3.9-0.8c-1.9-1.2-2.9-3-3-5.4c-0.2-5.8,5.2-13.5,8.2-15.7l0.4,0.6l-0.4-0.6
			c3.1-2.3,7.2-3.9,12-4.6c4.6-0.7,8.4-0.4,11.4,1c4.9,2.2,9.1,5.5,11.6,9.2c1.7,2.5,4,7.8,2.4,11.9c-1.1,2.8-4,4.2-8.7,4.2
			L82.6,240C82.8,240,82.7,240,82.6,240z M100.5,214.8c-1.3,0-2.7,0.1-4.2,0.3c-4.6,0.7-8.4,2.1-11.4,4.3c-2.8,2-7.8,9.2-7.6,14.3
			c0.1,1.9,0.8,3.2,2.2,4.1c0.9,0.6,2.1,0.6,3.2,0.6l30.1-0.1c4,0,6.4-1.1,7.2-3.2c1.2-3-0.4-7.5-2.3-10.5
			c-2.4-3.5-6.2-6.6-10.9-8.7C105.1,215.2,102.9,214.8,100.5,214.8z"/>
	</g>
</g>
<g>
	<path d="M166.8,179.9c1,6.1,1.7,12.4,0.1,18.3c-2.1,7.6-7.4,13.7-10.7,20.7c-1.4,3-1.6,8.5-5.3,8.9c-2.5,0.3-7.5,0.3-9.8-0.4
		c-1-0.3-1.9-0.8-2.8-1.3c-0.4-0.2-0.8-0.4-1-0.8c-0.4-0.5-0.4-1.3-0.3-1.9c1-8.3,8.2-15.2,8.4-23.9c0.1-4.6-3.2-8.5-5.3-12.6
		c-3.4-6.7-3.5-15.1-0.3-22c2.4-5.2,11.1-15.7,17.9-12.3C164.1,155.9,165.7,173.6,166.8,179.9z"/>
	<g>
		<path style="fill:#3D3D3D;" d="M166.3,218.8c-3.4-2.4-7.5-3.8-11.7-4.4c-3.7-0.6-7.6-0.6-11,0.9c-4.3,1.9-8.6,5-11.2,9
			c-1.9,2.8-3.7,7.7-2.4,11.2c1.2,3.1,4.9,3.7,8,3.7c10,0,20,0,30.1,0.1c1.2,0,2.6,0,3.6-0.6C178.4,234.4,170.2,221.7,166.3,218.8z"
			/>
		<path d="M168.1,240c-0.1,0-0.1,0-0.1,0l-30.1-0.1c-4.7,0-7.6-1.4-8.7-4.2c-1.6-4.1,0.8-9.4,2.4-11.9c2.5-3.8,6.6-7.1,11.6-9.2
			c3.1-1.3,6.8-1.7,11.4-1c4.8,0.8,8.9,2.2,12,4.6c3,2.2,8.5,9.8,8.2,15.7c-0.1,2.4-1.1,4.2-3,5.4C170.8,240,169.3,240,168.1,240z
			 M150.3,214.8c-2.4,0-4.5,0.4-6.4,1.2c-4.7,2.1-8.5,5.2-10.9,8.7c-1.9,2.9-3.5,7.5-2.3,10.5c0.8,2.1,3.3,3.2,7.2,3.2l30.1,0.1
			c1.1,0,2.3,0,3.2-0.6c1.4-0.9,2.2-2.2,2.2-4.1c0.2-5.1-4.8-12.3-7.6-14.3c-3-2.1-6.8-3.6-11.4-4.3
			C153,214.9,151.6,214.8,150.3,214.8z"/>
	</g>
</g>
<g>
	<g>
		<path style="fill:#82D045;" d="M98.5,149.4c0.1,0.3,0.1,0.7,0.1,1c0.1,0.9,0.1,1.8-0.2,2.6c-1.3,3.5-9.1,1.2-11.5-0.1
			c-0.3-0.1-0.5-0.3-0.6-0.5c-0.2-0.3-0.3-0.6-0.2-1c0.1-2.1,1.5-4.1,1-6.1c-0.4-1.5-1.6-2.6-2.8-3.5c-1.2-1-2.4-2.1-3.7-3
			c-1.4-1.2-3-1.8-4.4-3.1c-1.3-1.3-2.7-2.6-4-4c-3.5-3.8-7.5-6.3-8.2-11.8c-0.6-4.6,1.1-9.2,2.2-13.7c1-4.4,2.6-8.9,5.1-12.8
			c0.8-1.2,1.6-2.4,3-2.9c0.6-0.3,1.3-0.3,2.1-0.3c3,0,5.8,1.2,8.2,2.8c2.4,1.7,4.4,3.9,6.1,6.1c0.5,0.6,1,1.3,1.2,2.2
			c0.3,2.2-1.9,3.6-3,5.2c-1.2,1.7-1.5,3.8-2.5,5.7c-1.1,2.1-2.5,4.1-3.7,6.2c-0.6,1.2-1.1,1.6-0.6,2.6c0.4,1,1.7,2,2.3,2.9
			c2.3,3.5,4.2,7.1,5.9,11c0.3,0.6,0.6,1.3,1.1,1.9c0.4,0.4,0.8,0.7,1.3,1c2.5,1.6,4.8,3.1,5.2,6.4c0.1,0.8-0.1,1.5,0.1,2.3
			c0.1,0.6,0.3,1.2,0.4,1.7C98.4,148.5,98.4,148.9,98.5,149.4z"/>
		<path d="M94.6,155.7c-3.1,0-6.7-1.3-8-2.1c-0.3-0.2-0.6-0.4-0.9-0.7c-0.4-0.5-0.4-1.1-0.4-1.5c0.1-1,0.3-1.8,0.6-2.7
			c0.3-1.2,0.6-2.2,0.4-3.2c-0.3-1.2-1.3-2.1-2.5-3.1l-3.7-3c-0.6-0.5-1.2-0.9-1.9-1.3c-0.8-0.5-1.7-1.1-2.6-1.9
			c-1.4-1.3-2.8-2.7-4-4c-0.7-0.8-1.5-1.5-2.2-2.2c-2.9-2.8-5.6-5.4-6.2-10c-0.5-3.8,0.5-7.5,1.5-11c0.3-1,0.5-2,0.8-3
			c1.2-5.1,3-9.4,5.2-13c0.8-1.3,1.8-2.6,3.3-3.2c0.6-0.3,1.4-0.4,2.4-0.4c3.7,0,6.7,1.6,8.6,3c2.7,1.9,4.8,4.4,6.3,6.3
			c0.6,0.8,1.2,1.5,1.3,2.6c0.3,1.9-1,3.3-2.1,4.4c-0.4,0.4-0.8,0.9-1.1,1.3c-0.6,1-1,2-1.4,3.1c-0.3,0.8-0.6,1.7-1,2.4
			c-0.6,1.3-1.4,2.5-2.1,3.7c-0.5,0.8-1,1.7-1.5,2.6l-0.3,0.4c-0.5,0.9-0.6,1-0.3,1.5c0.2,0.4,0.7,1,1.2,1.5
			c0.4,0.4,0.8,0.9,1.1,1.3c2.3,3.5,4.3,7.3,6,11.1c0.3,0.6,0.5,1.2,1,1.7c0.3,0.3,0.7,0.6,1.2,0.8c2.4,1.5,5.1,3.2,5.5,6.9
			c0.1,0.4,0,0.8,0,1.2c0,0.4,0,0.7,0,1.1c0.1,0.3,0.1,0.6,0.3,1c0.1,0.2,0.1,0.4,0.2,0.6c0.1,0.4,0.2,1,0.3,1.5l0,0
			c0.1,0.4,0.1,0.7,0.1,1.1c0.1,0.9,0.2,1.9-0.2,3c-0.3,0.9-1,1.6-2.1,2C96.4,155.6,95.5,155.7,94.6,155.7z M76.2,90.8
			c-0.7,0-1.3,0.1-1.7,0.3c-1.1,0.4-1.9,1.5-2.6,2.6c-2.2,3.5-3.9,7.7-5,12.6c-0.3,1-0.5,2-0.8,3c-0.9,3.4-1.9,7-1.4,10.4
			c0.6,4,3,6.4,5.7,9.1c0.8,0.7,1.5,1.5,2.2,2.2c1.2,1.3,2.6,2.7,4,4c0.8,0.7,1.5,1.2,2.4,1.7c0.6,0.4,1.3,0.8,2,1.4l3.7,3
			c1.1,0.9,2.6,2.2,3.1,4c0.3,1.4-0.1,2.8-0.4,4c-0.3,0.8-0.4,1.5-0.5,2.3c0,0.3,0,0.4,0.1,0.5s0.3,0.2,0.4,0.3c2,1,6.9,2.4,9.2,1.5
			c0.6-0.2,1-0.6,1.2-1c0.3-0.6,0.2-1.5,0.1-2.2c0-0.3-0.1-0.7-0.1-1c-0.1-0.5-0.1-1-0.3-1.3c-0.1-0.2-0.1-0.3-0.1-0.5
			c-0.1-0.4-0.3-0.8-0.3-1.3s-0.1-0.9,0-1.3c0-0.3,0-0.7,0-1c-0.3-2.7-2.2-4.1-4.8-5.8c-0.4-0.3-1-0.6-1.4-1.1
			c-0.6-0.6-0.9-1.4-1.2-2.1c-1.7-3.8-3.6-7.5-5.9-10.9c-0.3-0.3-0.6-0.7-1-1.2c-0.6-0.6-1.1-1.2-1.4-1.9c-0.6-1.3-0.1-2.1,0.4-3
			l0.2-0.4c0.5-0.9,1-1.7,1.6-2.6c0.7-1.2,1.5-2.3,2.1-3.5c0.4-0.7,0.6-1.5,1-2.3c0.4-1.2,0.8-2.3,1.6-3.4c0.3-0.5,0.8-1,1.2-1.5
			c1-1,1.8-2,1.7-3.1c-0.1-0.6-0.5-1.2-1-1.8c-1.5-1.9-3.5-4.2-6-6C82.2,92.3,79.5,90.8,76.2,90.8C76.3,90.8,76.2,90.8,76.2,90.8z"
			/>
	</g>
	<g>
		<path style="fill:#1C2B54;" d="M78.2,80.8c-6.4,4.6-10.5,12.1-11.9,19.9c4,1.3,8.3,2.2,12.2,3.9c4.1,1.7,7.2,4.3,9.6,8
			c3.3-1.5,5.1-11,6.2-14.4c1.7-5.5,3.1-11.1,3.4-16.9c0.2-3.1,0.8-4.5-2.2-5.2c-1.9-0.4-4.4,0.2-6.3,0.5
			C85.5,77.2,81.3,78.4,78.2,80.8z"/>
		<path d="M88,113.5l-0.4-0.6c-2.3-3.5-5.4-6-9.3-7.6c-2.4-1-5-1.8-7.6-2.5c-1.5-0.4-3.1-0.9-4.6-1.3l-0.6-0.2l0.1-0.6
			c1.4-8.4,5.8-15.9,12.2-20.4l0.4,0.6l-0.4-0.6c2.8-2,6.5-3.4,11.4-4.4l0.6-0.1c1.9-0.4,4.1-0.8,6-0.4c3.3,0.8,3.1,2.6,2.9,4.8
			c0,0.4-0.1,0.8-0.1,1.2c-0.3,5.2-1.4,10.7-3.4,17.1c-0.2,0.6-0.4,1.5-0.7,2.6c-1.2,4.6-2.9,10.9-5.8,12.3L88,113.5z M67.3,100.1
			c1.3,0.4,2.6,0.8,3.9,1.2c2.6,0.7,5.2,1.5,7.7,2.6c4,1.7,7.1,4.2,9.6,7.6c2.1-1.7,3.5-7.4,4.4-10.9c0.3-1,0.5-2,0.7-2.6
			c2-6.3,3.1-11.6,3.3-16.7c0-0.4,0.1-0.9,0.1-1.3c0.2-2.2,0.3-2.7-1.7-3.1c-1.5-0.3-3.6,0.1-5.3,0.4l-0.7,0.1
			c-4.7,0.9-8.2,2.2-10.8,4.1C72.9,85.6,68.8,92.4,67.3,100.1z"/>
	</g>
	<g>
		<path style="fill:#DDDDDD;" d="M79.9,157.5c-0.2,2.4,0.6,4.9,2.4,6.7c0.4,0.5,1.1,1,1.7,0.8c0.5-0.1,1-0.6,1.1-1.1
			c0.2-0.5,0.2-1,0.3-1.6c0.5-2.4,2.7-4.2,3.9-6.4c0.3-0.5,0.4-1,0.4-1.6c-0.1-0.6-0.3-1.1-0.7-1.5c-1.2-1.4-4-2.1-5.8-1.3
			C81.2,152.5,80.1,155.6,79.9,157.5z"/>
		<path d="M83.7,165.9c-0.7,0-1.4-0.4-2.1-1.1c-1.9-2-2.8-4.8-2.6-7.4l0,0c0.2-2.1,1.3-5.5,3.8-6.6c2.1-0.9,5.3-0.2,6.7,1.5
			c0.5,0.6,0.8,1.3,0.9,2c0.1,0.8-0.3,1.5-0.5,2.1c-0.4,0.9-1.1,1.7-1.7,2.5c-0.9,1.2-1.8,2.3-2.1,3.6c-0.1,0.2-0.1,0.3-0.1,0.5
			c-0.1,0.4-0.1,0.8-0.3,1.2c-0.3,0.8-1,1.5-1.7,1.6C84,165.9,83.9,165.9,83.7,165.9z M84.9,152.1c-0.5,0-1,0.1-1.4,0.3
			c-1.7,0.7-2.6,3.5-2.8,5.3l0,0c-0.2,2.2,0.6,4.5,2.1,6.2c0.4,0.4,0.8,0.6,1,0.6c0.2-0.1,0.4-0.3,0.5-0.6c0.1-0.3,0.1-0.6,0.2-0.9
			c0-0.2,0.1-0.4,0.1-0.6c0.3-1.7,1.3-3,2.3-4.2c0.6-0.8,1.2-1.5,1.5-2.3c0.3-0.5,0.4-0.9,0.4-1.2c0-0.4-0.3-0.8-0.5-1.1
			C87.7,152.6,86.2,152.1,84.9,152.1z M79.9,157.5L79.9,157.5L79.9,157.5z"/>
	</g>
	<g>
		<path style="fill:#DDDDDD;" d="M84.4,159.5c0,2.4,1.1,4.9,3,6.6c0.5,0.4,1.2,0.8,1.8,0.7c0.5-0.1,0.9-0.6,1-1.2
			c0.1-0.5,0.1-1.1,0.2-1.6c0.3-2.4,2.3-4.4,3.3-6.7c0.2-0.5,0.4-1.1,0.3-1.7s-0.4-1.1-0.8-1.5c-1.3-1.3-4.2-1.7-5.9-0.8
			C85.2,154.4,84.4,157.6,84.4,159.5z"/>
		<path d="M88.8,167.6c-0.6,0-1.3-0.3-2-1c-2-1.8-3.2-4.5-3.2-7.1c0-2.1,0.8-5.6,3.2-6.8c2-1.1,5.3-0.6,6.9,1c0.6,0.6,1,1.2,1,1.9
			c0.1,0.8-0.1,1.5-0.4,2.1c-0.4,1-1,1.8-1.5,2.7c-0.8,1.3-1.5,2.4-1.7,3.8c0,0.2-0.1,0.3-0.1,0.5c0,0.4-0.1,0.8-0.2,1.2
			c-0.3,0.9-0.8,1.5-1.5,1.7C89.1,167.5,89,167.6,88.8,167.6z M89.4,153.7c-0.7,0-1.3,0.1-1.9,0.4c-1.6,0.8-2.3,3.7-2.3,5.5l0,0
			c0,2.2,1,4.4,2.6,6c0.4,0.4,0.8,0.6,1.1,0.5c0.2-0.1,0.4-0.3,0.4-0.6c0.1-0.3,0.1-0.6,0.1-0.9c0-0.2,0-0.4,0.1-0.6
			c0.2-1.7,1.1-3.1,2-4.4c0.5-0.8,1-1.6,1.3-2.4c0.2-0.5,0.3-0.9,0.3-1.2c-0.1-0.4-0.4-0.8-0.6-1C91.8,154.1,90.5,153.7,89.4,153.7z
			 M84.4,159.5L84.4,159.5L84.4,159.5z"/>
	</g>
	<g>
		<path style="fill:#DDDDDD;" d="M90.1,161.6c1,2.2,3,4,5.3,4.9c0.6,0.2,1.4,0.3,1.9-0.1c0.4-0.3,0.5-1,0.4-1.5
			c-0.1-0.5-0.3-1-0.5-1.5c-0.7-2.4,0.4-4.9,0.3-7.4c0-0.6-0.1-1.2-0.4-1.6c-0.3-0.5-0.8-0.8-1.3-1c-1.8-0.7-4.6,0.1-5.8,1.5
			C88.7,156.6,89.3,159.8,90.1,161.6z"/>
		<path d="M96.5,167.5c-0.4,0-0.8-0.1-1.3-0.3c-2.6-0.9-4.8-2.9-5.8-5.3l0,0c-0.8-1.9-1.5-5.5,0.1-7.5c1.4-1.7,4.6-2.6,6.7-1.8
			c0.8,0.3,1.3,0.8,1.7,1.3c0.4,0.7,0.5,1.5,0.5,2.1c0,1-0.1,2.1-0.3,3c-0.3,1.5-0.4,2.8-0.1,4.1c0.1,0.2,0.1,0.3,0.2,0.5
			c0.1,0.4,0.3,0.7,0.3,1.2c0.1,0.9-0.1,1.7-0.8,2.2C97.5,167.3,97,167.5,96.5,167.5z M94.4,153.9c-1.3,0-2.9,0.6-3.7,1.5
			c-1.2,1.4-0.6,4.3,0.1,5.9l0,0c0.9,2.1,2.7,3.7,4.9,4.4c0.6,0.2,1,0.2,1.2,0.1c0.1-0.1,0.2-0.4,0.2-0.8c-0.1-0.3-0.1-0.6-0.3-0.8
			c-0.1-0.2-0.1-0.4-0.2-0.6c-0.5-1.6-0.3-3.3,0-4.8c0.1-1,0.3-1.9,0.3-2.8c0-0.6-0.1-1-0.3-1.2c-0.3-0.4-0.6-0.6-1-0.7
			C95.2,154,94.8,153.9,94.4,153.9z"/>
	</g>
	<g>
		<g>
			<path style="fill:#1C2B54;" d="M80.1,76.3c2.8,1.9,5.3,4.2,7.5,6.7c0.1,0.1,0.2,0.3,0.3,0.3c0.1,0,0.1,0,0.2-0.1L99.3,79
				c-0.4-0.6-0.9-1.3-1.3-2c-0.8-1.3-1.6-2.6-2.6-3.5c-1.2-1.2-2.4-1-4.3-0.8l-0.5,0.1c-2,0.3-4,0.7-5.9,1.3c-0.3,0.1-1,0.4-1.9,0.8
				C81.5,75.7,80.6,76.1,80.1,76.3z"/>
			<path d="M88,83.8c-0.4,0-0.6-0.3-0.8-0.4c-2.3-2.6-4.8-4.8-7.4-6.6c-0.2-0.1-0.3-0.4-0.3-0.6c0-0.2,0.2-0.4,0.4-0.5
				c0.5-0.2,1.4-0.6,2.6-1.3l0.7-0.3c0.7-0.3,1.1-0.5,1.3-0.6c1.9-0.6,3.9-1.1,6-1.4l0.5-0.1c1.8-0.2,3.3-0.5,4.8,0.9
				c1,1,1.9,2.3,2.7,3.6c0.4,0.7,0.8,1.3,1.3,1.9c0.1,0.2,0.1,0.4,0.1,0.6c-0.1,0.2-0.2,0.3-0.4,0.4l-11,4.1
				C88.3,83.8,88.1,83.8,88,83.8z M81.4,76.4c2.4,1.8,4.6,3.8,6.7,6.1l10.2-3.8c-0.3-0.4-0.6-0.9-0.9-1.4c-0.7-1.2-1.5-2.4-2.4-3.3
				c-1-0.9-1.9-0.9-3.8-0.6l-0.5,0.1c-2,0.3-3.9,0.7-5.8,1.3c-0.2,0-0.7,0.3-1.1,0.5l-0.7,0.3C82.4,75.9,81.9,76.2,81.4,76.4z"/>
		</g>
		<g>
			<path style="fill:#7A1810;" d="M86.6,73.6c0,0,5.1,3.7,6.6,7.7L88,83.2l-7.8-6.9C80.1,76.3,85,73.8,86.6,73.6z"/>
			<path d="M88,83.8c-0.2,0-0.3-0.1-0.4-0.2l-7.8-6.9c-0.2-0.1-0.2-0.4-0.2-0.6s0.2-0.4,0.3-0.5c0.5-0.3,5-2.6,6.6-2.8
				c0.2,0,0.3,0,0.5,0.1c0.2,0.2,5.3,3.9,6.8,8c0.1,0.3-0.1,0.7-0.4,0.8l-5.1,1.9C88.1,83.8,88,83.8,88,83.8z M81.3,76.4l6.8,6.1
				l4.2-1.6c-1.4-3.1-5-6-5.9-6.7C85.3,74.5,82.8,75.7,81.3,76.4z"/>
		</g>
	</g>
	<g>
		<g>
			<path style="fill-rule:evenodd;clip-rule:evenodd;fill:#F5C443;" d="M75.4,97.3c-1.3-0.8-2.3-1.9-2.8-3.5
				C71.3,89,75.1,82,75.2,81.7l0.3-0.6l0.6,0.3c4.2,2.3,6.4,1.4,6.4,1.4l0.9-0.4l0.1,1c0,0,0.4,2.4,4.6,4.7l0.6,0.3L88.5,89
				c-0.1,0.3-4,7.3-8.8,8.7C78.2,98.2,76.7,98,75.4,97.3"/>
			<path d="M75.1,97.8c-1.5-0.8-2.6-2.1-3-3.9c-1.4-5,2.3-11.8,2.7-12.6l0.3-0.6c0.2-0.3,0.6-0.4,0.9-0.3l0.6,0.3
				c3.9,2.1,5.8,1.3,5.9,1.3l0.8-0.4c0.2-0.1,0.4-0.1,0.6,0l0,0c0.2,0.1,0.3,0.3,0.3,0.4l0.1,1l0,0c0,0,0.4,2.1,4.3,4.2l0.6,0.3
				c0.3,0.2,0.4,0.6,0.3,0.8l-0.3,0.6c-0.4,0.8-4.2,7.6-9.2,9.1C78.2,98.8,76.6,98.7,75.1,97.8z M75.9,82L75.9,82
				c-0.2,0.3-3.9,7.1-2.6,11.7c0.4,1.3,1.2,2.4,2.4,3.1c1.2,0.7,2.5,0.8,3.9,0.4c4.6-1.3,8.3-8.1,8.4-8.4v-0.1
				c-4.6-2.5-4.9-5.2-4.9-5.2v-0.1L83,83.5C82.8,83.5,80.4,84.5,75.9,82L75.9,82z"/>
		</g>
		<path style="fill-rule:evenodd;clip-rule:evenodd;fill:#C0823A;" d="M80.7,93c-0.6,1.2-1.8,0.8-3,0.1c-1.3-0.7-2.1-1.5-1.5-2.6
			c0.6-1.2,2.1-1.5,3.4-0.8C80.8,90.3,81.3,91.8,80.7,93"/>
		<path style="fill-rule:evenodd;clip-rule:evenodd;fill:#C0823A;" d="M76.3,88.9c-0.4-0.3-0.6-0.8-0.3-1.3c0.3-0.5,0.8-0.7,1.3-0.5
			c0.4,0.2,0.6,0.8,0.3,1.3C77.4,88.9,76.8,89.1,76.3,88.9"/>
		<path style="fill-rule:evenodd;clip-rule:evenodd;fill:#C0823A;" d="M83.1,90.1c-0.4-0.3-1.1,0-1.4,0.5c-0.3,0.5-0.1,1.2,0.3,1.5
			c0.4,0.3,1.1,0,1.4-0.5C83.7,91,83.5,90.3,83.1,90.1"/>
		<path style="fill-rule:evenodd;clip-rule:evenodd;fill:#C0823A;" d="M78.8,88.6c-0.4-0.3-0.6-0.8-0.3-1.3c0.3-0.5,0.8-0.7,1.3-0.5
			s0.6,0.8,0.3,1.3C79.8,88.7,79.2,88.9,78.8,88.6"/>
		<path style="fill-rule:evenodd;clip-rule:evenodd;fill:#C0823A;" d="M81.9,88c-0.4-0.3-1.1,0-1.4,0.5s-0.1,1.2,0.3,1.5
			c0.4,0.3,1.1,0,1.4-0.5C82.5,89,82.3,88.3,81.9,88"/>
	</g>
</g>
<g>
	<g>
		<g>
			<path style="fill-rule:evenodd;clip-rule:evenodd;fill:#F5C443;" d="M149.4,112.4c-1.3,0.2-2.5-0.1-3.6-0.8
				c-3.4-2.4-4.6-9-4.6-9.3l-0.1-0.6l0.6-0.1c4-0.7,4.9-2.4,4.9-2.4l0.4-0.7l0.6,0.6c0,0,1.5,1.3,5.5,0.6l0.6-0.1l0.1,0.6
				c0.1,0.3,1.2,6.9-1.2,10.3C151.7,111.5,150.7,112.2,149.4,112.4"/>
			<path d="M149.4,112.9c-1.4,0.3-2.8-0.1-4-0.9c-3.5-2.5-4.7-8.9-4.8-9.6l-0.1-0.6c-0.1-0.3,0.1-0.6,0.4-0.6l0.6-0.1
				c3.7-0.6,4.6-2.2,4.6-2.2l0.4-0.7c0.1-0.1,0.2-0.3,0.4-0.3l0,0c0.2,0,0.3,0,0.4,0.1l0.6,0.6l0,0c0,0,1.3,1.2,5,0.5l0.6-0.1
				c0.3-0.1,0.6,0.1,0.6,0.4l0.1,0.6c0.1,0.7,1.2,7.1-1.3,10.7C152.1,112,150.9,112.7,149.4,112.9z M141.7,102.2L141.7,102.2
				c0.1,0.3,1.2,6.7,4.4,9c1,0.7,2.1,1,3.2,0.8c1.2-0.2,2.1-0.8,2.8-1.7c2.2-3.3,1.2-9.6,1.1-9.9l-0.1-0.1c-4.3,0.8-5.9-0.8-6-0.8
				l0,0v0.1C147.1,99.5,146,101.4,141.7,102.2L141.7,102.2z"/>
		</g>
		<path style="fill-rule:evenodd;clip-rule:evenodd;fill:#C0823A;" d="M150.6,106.8c0.2,1.1-0.7,1.5-1.9,1.7c-1.2,0.2-2.2,0.1-2.4-1
			s0.6-2.1,1.8-2.3C149.3,105,150.4,105.7,150.6,106.8"/>
		<path style="fill-rule:evenodd;clip-rule:evenodd;fill:#C0823A;" d="M145.6,106.4c-0.4,0.1-0.8-0.3-0.9-0.7
			c-0.1-0.4,0.2-0.9,0.6-1c0.4-0.1,0.8,0.3,0.9,0.7C146.3,105.9,146,106.3,145.6,106.4"/>
		<path style="fill-rule:evenodd;clip-rule:evenodd;fill:#C0823A;" d="M150.7,103.7c-0.4,0.1-0.7,0.6-0.6,1.1s0.5,0.8,1,0.8
			s0.7-0.6,0.6-1.1C151.5,103.9,151.1,103.6,150.7,103.7"/>
		<path style="fill-rule:evenodd;clip-rule:evenodd;fill:#C0823A;" d="M147.1,105c-0.4,0.1-0.8-0.3-0.9-0.7c-0.1-0.4,0.2-0.9,0.6-1
			c0.4-0.1,0.8,0.3,0.9,0.7C147.8,104.5,147.5,104.9,147.1,105"/>
		<path style="fill-rule:evenodd;clip-rule:evenodd;fill:#C0823A;" d="M148.7,103c-0.4,0.1-0.7,0.6-0.6,1.1c0.1,0.5,0.5,0.8,1,0.8
			s0.7-0.6,0.6-1.1S149.2,102.9,148.7,103"/>
	</g>
</g>
<g>
	<path style="fill:#82D045;" d="M98.3,70.2c0.6,2,1.2,4.1,2.6,5.7c2.5,2.9,5.4,2.8,8.6,3.6c3.8,1,7.7,3.9,10.6,6.4
		c-0.3-0.2,7.6-5,8.3-5.3c2.8-1.2,5.4-2.2,7.5-4.7c2.3-2.8,3.8-6.2,4.8-9.6c3.6-11.4,0.2-27.6-7.1-37c-4.9-6.2-13-10.4-20.7-8.7
		C89.6,25.6,93.5,53.1,98.3,70.2z"/>
	<path d="M120.1,86.9c-0.2,0-0.5-0.1-0.7-0.2c-2.9-2.4-6.7-5.2-10.2-6.1c-0.7-0.2-1.4-0.3-2-0.4c-2.4-0.5-5-1-7.1-3.5
		c-1.5-1.8-2.2-4.1-2.8-6.1c-5.1-18.3-4.9-32,0.4-40.8c3.2-5.3,8.2-8.7,15-10.1c7.5-1.6,16.3,2,21.8,9.1c7.7,9.9,10.9,26.5,7.3,38
		c-1.3,4.2-2.9,7.4-5,9.9c-2.1,2.6-4.8,3.7-7.7,4.9l-0.2,0.1c-0.7,0.3-6.8,4-7.8,4.8c0,0-0.1,0.1-0.1,0.1
		C120.7,86.8,120.4,86.9,120.1,86.9z M116.4,21.2c-1.1,0-2.2,0.1-3.3,0.3c-6.2,1.3-10.8,4.4-13.7,9.2c-5,8.2-5,21.7-0.2,39.2v0
		c0.5,1.9,1.1,3.8,2.4,5.3c1.7,2,3.6,2.3,6,2.8c0.7,0.1,1.4,0.3,2.1,0.5c3.7,0.9,7.4,3.6,10.4,6c2.3-1.9,7.9-4.9,7.9-4.9l0.2-0.1
		c2.7-1.1,5.1-2.1,6.9-4.3c1.9-2.3,3.4-5.3,4.7-9.2c3.4-10.8,0.4-26.7-6.9-36.1C129.2,25.3,123.1,21.2,116.4,21.2z"/>
</g>
<g>
	<path style="fill:#82D045;" d="M142.9,9.8c0.2,1.2,0.2,2.4,0.2,3.5c0,0.9-0.5,2.4-0.2,3.3c0.3,1,1.8,2.2,2.4,3.2
		c0.6,1,1.2,2.1,1.8,3.2c1.4,2.3,2.9,4.6,4.5,6.8c2.1,3.2,3.6,6.7,4.3,10.5c0.8,4.3,0.8,8.7,0.9,13.1c0,1.7-0.1,3.5-1.2,4.8
		c-0.8,0.9-2.3,1.9-3.5,2.2c0,2.1,0.1,4.5-1.2,6.1c-2.9,3.5-8,3.8-12.5,3.8c-1.9,0-3.9,0-5.8-0.4c-6.8-1.5-12.3-6.3-18-10.4
		c-3.3-2.4-8-2.4-11.3-4.9c-1.9-1.5-3.1-3.8-4.1-6c-2.3-5.3-3.6-10.9-3.9-16.6c-0.4-7.4,2.7-14.8,6.6-21c1.8-2.8,3.6-5.7,6.3-7.7
		c4.2-3,9.7-2.8,14.1-0.5c0.6,0.3,1.2,0.6,1.7,1c0.8,0.6,0.8,1.1,1.9,1.1c1,0,2,0,3,0.1c0.1,0,0.2,0,0.3,0c0.3-0.1,0.4-0.4,0.5-0.7
		c0.3-0.8,1.3-1.5,2-1.9c0.7-0.4,1.5-0.2,2.3-0.2c1.7,0,3.5,0.2,4.9,1.1c1.4,0.9,2.5,2.3,3.1,3.9C142.5,8.1,142.7,8.9,142.9,9.8z"/>
	<path d="M137.6,71.3c-1.7,0-3.5,0-5.3-0.4c-6-1.3-11-5.1-15.8-8.7c-0.8-0.6-1.7-1.3-2.5-1.9c-1.5-1.1-3.3-1.6-5.2-2.2
		c-2.1-0.6-4.3-1.3-6.1-2.7c-2.2-1.7-3.5-4.2-4.4-6.4c-2.3-5.4-3.6-11.1-4-17c-0.4-6.6,1.9-13.8,6.8-21.6c1.7-2.7,3.7-5.8,6.6-8
		c4.1-3,10.1-3.2,15.2-0.6c0.6,0.3,1.3,0.7,1.9,1.1c0.3,0.2,0.5,0.4,0.7,0.6c0.3,0.3,0.3,0.3,0.6,0.3l0.7,0c0.7,0,1.4,0,2.2,0.1
		c0.4-1,1.2-1.8,2.5-2.4c0.8-0.4,1.6-0.4,2.3-0.4c0.2,0,0.3,0,0.5,0c1.5,0,3.6,0.2,5.5,1.3c1.5,0.9,2.8,2.5,3.6,4.4
		c0.4,0.9,0.6,1.8,0.8,2.8l0,0c0.2,1.1,0.3,2.4,0.2,3.7c0,0.4-0.1,0.8-0.1,1.2c-0.1,0.6-0.2,1.4-0.1,1.7c0.1,0.4,0.7,1,1.1,1.5
		c0.4,0.5,0.9,1,1.2,1.5c0.3,0.6,0.7,1.2,1,1.7c0.3,0.5,0.5,1,0.8,1.5c1.2,2,2.5,3.9,3.7,5.8l0.7,1c2.2,3.2,3.7,6.9,4.4,10.9
		c0.8,4.4,0.9,8.9,0.9,13.3c0,2-0.1,4-1.5,5.5c-0.7,0.8-2,1.7-3.2,2.2c0,2-0.1,4.3-1.5,6c-3.1,3.8-8.5,4.1-13.2,4.1
		C138.1,71.3,137.8,71.3,137.6,71.3z M115.4,2.1c-2.4,0-4.7,0.7-6.6,2c-2.6,1.9-4.4,4.8-6.1,7.4c-4.6,7.3-6.8,14.2-6.5,20.3
		c0.3,5.6,1.6,11.1,3.8,16.3c0.8,2,2,4.2,3.8,5.6c1.5,1.2,3.4,1.7,5.4,2.4c2,0.6,4.1,1.2,5.8,2.5c0.8,0.6,1.7,1.3,2.5,1.9
		c4.7,3.5,9.5,7.1,15,8.3c1.8,0.4,3.7,0.4,5.6,0.4c4.3,0,9.1-0.3,11.7-3.4c1-1.2,1-3,1-4.8l0-0.6c0-0.5,0.3-0.9,0.8-1
		c1-0.2,2.3-1.2,3-1.9c0.9-0.9,0.9-2.4,0.9-4c0-4.3,0-8.7-0.8-12.9c-0.7-3.7-2.1-7.1-4.1-10.1l-0.7-1c-1.3-1.9-2.6-3.8-3.8-5.9
		c-0.3-0.5-0.6-1-0.9-1.5c-0.3-0.6-0.6-1.1-0.9-1.7c-0.2-0.3-0.6-0.7-0.9-1.1c-0.6-0.7-1.3-1.4-1.6-2.2c-0.3-0.8-0.1-1.8,0-2.7
		c0.1-0.4,0.1-0.7,0.1-1c0-1.3,0-2.3-0.2-3.4c-0.1-0.9-0.4-1.7-0.7-2.4c-0.6-1.5-1.6-2.7-2.7-3.4c-1.1-0.7-2.5-1-4.4-1c0,0,0,0,0,0
		c-0.2,0-0.3,0-0.5,0c-0.5,0-1,0-1.2,0.1c-1.1,0.6-1.4,1-1.5,1.3c-0.1,0.4-0.4,1.1-1.1,1.3c-0.3,0.1-0.6,0.1-0.8,0.1
		c-0.8-0.1-1.5-0.1-2.3-0.1l-0.7,0c-1.1,0-1.6-0.5-2-0.9c-0.1-0.1-0.3-0.3-0.4-0.4c-0.4-0.3-1-0.6-1.6-0.9
		C119.8,2.6,117.6,2.1,115.4,2.1z"/>
</g>
<path d="M145.2,61.9c-4.3,0-8.4-0.3-12.4-0.6c-7.2-0.5-12.5-2.4-16.1-5.8c-1.7-1.6-3.2-3-4.2-4.9c-0.3-0.5-0.4-0.9-0.6-1.3
	c-0.4-0.9-0.7-1.6-1.6-2.2c-1.5-1.1-3-1.7-4.3-1.6l-0.4,0c-0.4,0-0.8,0.1-1.2,0c-0.9-0.1-1.6-0.7-1.9-1.5c-0.1-0.3-0.1-0.5-0.1-0.7
	c0-0.1,0-0.1,0-0.2c-0.3-0.4-0.3-1,0-1.4c0.4-0.4,1-0.5,1.5-0.1c0.5,0.4,0.5,1,0.6,1.4c0,0.1,0,0.2,0,0.2c0,0,0.1,0.1,0.3,0.1
	c0.2,0,0.5,0,0.8,0l0.4,0c1.9-0.1,3.7,0.6,5.6,2c1.3,1,1.7,2,2.2,3c0.2,0.4,0.3,0.7,0.6,1.2c0.9,1.6,2.2,2.9,3.8,4.4
	c3.2,3,8.1,4.7,14.8,5.2c6,0.4,12.2,0.9,18.6,0.3c0.6,0,1.1,0.4,1.1,0.9c0,0.6-0.4,1.1-0.9,1.1C149.5,61.8,147.3,61.9,145.2,61.9z
	 M102.5,43.3C102.5,43.3,102.5,43.3,102.5,43.3S102.5,43.3,102.5,43.3z"/>
<path d="M123.5,19.7c-0.1,0-0.3,0-0.4-0.1c-0.5-0.2-0.8-0.8-0.5-1.4c3.4-7.8,13.1-5.7,16-4.9c1.7,0.5,3.5,1.9,4.9,3l0.6,0.5
	c0.5,0.3,0.5,1,0.2,1.4c-0.3,0.5-1,0.5-1.4,0.2l-0.6-0.5c-1.3-1-2.9-2.3-4.2-2.6c-2.5-0.7-10.9-2.6-13.6,3.7
	C124.3,19.5,123.9,19.7,123.5,19.7z"/>
<path d="M137,45.1c-0.3,0-0.6-0.1-0.8-0.4c-0.5-0.7-1.4-1.3-2.3-1.4c-0.6-0.1-0.9-0.6-0.8-1.2c0.1-0.6,0.6-0.9,1.2-0.8
	c1.4,0.2,2.8,1.1,3.6,2.2c0.3,0.5,0.2,1.1-0.2,1.4C137.5,45.1,137.3,45.1,137,45.1z"/>
<path d="M148.7,43.6c-0.2,0-0.4-0.1-0.6-0.2c-0.5-0.3-0.6-1-0.2-1.4c0.7-1,1.8-1.7,3.1-1.9c0.5-0.1,1.1,0.3,1.2,0.8
	c0.1,0.6-0.3,1.1-0.8,1.2c-0.7,0.1-1.3,0.5-1.7,1.1C149.3,43.5,149,43.6,148.7,43.6z"/>
<path d="M120.2,12.8c-1.9,0-3.6-0.5-5.4-1.7c-0.6-0.4-1.2-0.8-1.8-1.3l-0.2-0.1c-0.5-0.3-0.6-1-0.2-1.4c0.3-0.5,1-0.6,1.4-0.2
	l0.2,0.1c0.6,0.4,1.1,0.8,1.7,1.2c2.1,1.3,3.8,1.6,6.1,1.2c0.1-0.4,0.3-0.7,0.7-0.8c0.5-0.2,1.1,0.1,1.3,0.6
	c0.4,1.2-0.2,1.7-0.5,1.9c-0.2,0.2-0.5,0.2-0.6,0.2C122,12.7,121.1,12.8,120.2,12.8z M122.1,11L122.1,11L122.1,11z"/>
<path style="fill:#5BA918;" d="M114.2,66.8c-3,0-6.1-0.4-9-1.3c-0.4-0.1-0.8-0.3-1.2-0.4c-1.2-0.4-2.3-0.7-3.4-0.9
	c-0.6-0.1-1-0.6-0.9-1.2c0.1-0.6,0.6-1,1.2-0.9c1.3,0.2,2.5,0.6,3.7,1c0.4,0.1,0.8,0.3,1.2,0.4c3.9,1.2,8,1.5,12,1
	c0.6-0.1,1.1,0.3,1.2,0.9c0.1,0.6-0.3,1.1-0.9,1.2C116.8,66.7,115.5,66.8,114.2,66.8z"/>
<path style="fill:#5BA918;" d="M109.3,70.4c-0.1,0-0.2,0-0.3,0c-1.9-0.6-3.8-1.1-5.7-1.5c-0.6-0.1-0.9-0.7-0.8-1.2
	c0.1-0.6,0.7-0.9,1.2-0.8c2,0.4,4,1,5.9,1.6c0.5,0.2,0.8,0.8,0.7,1.3C110.2,70.1,109.8,70.4,109.3,70.4z"/>
<path style="fill:#5BA918;" d="M114.6,78.3c-4.6,0-9.2-1.5-13-4.2c-0.5-0.3-0.6-1-0.2-1.4c0.3-0.5,1-0.6,1.4-0.2
	c4.2,3.1,9.8,4.4,15,3.6c0.6-0.1,1.1,0.3,1.2,0.9c0.1,0.6-0.3,1.1-0.9,1.2C116.9,78.2,115.7,78.3,114.6,78.3z"/>
<path d="M135.9,11.4c-0.9,0-1.7-0.1-2.5-0.2c-0.6-0.1-1-0.6-0.9-1.2c0.1-0.6,0.6-0.9,1.2-0.9c0.9,0.1,2,0.3,2.9,0.2
	c0.5,0,1.2-0.2,1.7-0.6c0.2-0.1,0.3-0.3,0.5-0.5c0.3-0.4,0.6-0.7,1-1.1c0.5-0.3,1.1-0.2,1.4,0.3c0.3,0.5,0.2,1.1-0.3,1.4
	c-0.2,0.1-0.3,0.3-0.5,0.6c-0.2,0.3-0.5,0.6-0.9,0.9c-0.7,0.6-1.7,0.9-2.8,1C136.5,11.4,136.2,11.4,135.9,11.4z"/>
<g>
	<path d="M19.7,30.9c2.2,0,4.5,0.6,6.8,1.9c12.7,7.1,5.5,25.4-6.4,25.4c-2.1,0-4.3-0.6-6.6-1.8C0.2,48.9,7.6,30.9,19.7,30.9
		 M19.8,47.5c1.4,0,2.7-1,2.9-2.4c0.3-1.6-0.8-3.2-2.4-3.5c-0.2,0-0.4,0-0.5,0c-1.4,0-2.7,1-2.9,2.4c-0.3,1.6,0.8,3.2,2.4,3.5
		C19.5,47.5,19.6,47.5,19.8,47.5 M19.7,28.3c-7.1,0-13.4,5.2-15.3,12.5c-1.9,7.2,1.2,14,7.9,17.8c2.6,1.4,5.2,2.2,7.8,2.2
		c7,0,13.2-5.2,15.1-12.7c1.9-7.2-1-14-7.4-17.6C25.2,29.1,22.4,28.3,19.7,28.3L19.7,28.3z M19.8,45C19.8,45,19.8,44.9,19.8,45
		c-0.2,0-0.3-0.1-0.3-0.2c0-0.1-0.1-0.2-0.1-0.3c0-0.2,0.2-0.3,0.4-0.3c0.2,0,0.3,0.1,0.3,0.2c0,0.1,0.1,0.2,0.1,0.3
		C20.2,44.8,20,45,19.8,45L19.8,45z"/>
	<path d="M38.2,29.1c0.6,0,1.2,0.2,1.7,0.3c1.6,0.4,3.1,0.4,4.8,0.6c1.5,0.2,0.3,25.4,0.1,27.6c-0.1,1.8-0.2,2.6-2,2.7
		c-1.2,0.1-2.4,0.2-3.6,0.2c-0.5,0-0.9,0-1.4-0.1c-1.6-0.1-1.9-0.7-2.4-2.3c-0.9-2.8-0.5-5.9-0.4-8.8c0-2.9,0.2-5.7,0.4-8.6
		c0.3-3.6,0.7-7.2,1.5-10.8C36.9,29.4,37.5,29.1,38.2,29.1 M38.2,26.6c-2.5,0-3.7,1.6-4,3c-0.7,3.4-1.2,7.1-1.5,11.1
		c-0.2,2.7-0.3,5.5-0.4,8.7c0,0.6,0,1.2-0.1,1.9c-0.1,2.4-0.2,5.1,0.6,7.8c0.5,1.5,1.2,3.8,4.6,4.1c0.5,0,1,0.1,1.6,0.1
		c1.4,0,2.8-0.1,3.9-0.2c4-0.4,4.2-3.3,4.4-5l0-0.1c0.1-1.2,0.5-8.2,0.6-14.7c0.3-12.3,0-15.2-2.9-15.7c-0.6-0.1-1.3-0.2-1.9-0.2
		c-0.9-0.1-1.8-0.2-2.7-0.4C39.9,26.8,39,26.6,38.2,26.6L38.2,26.6z"/>
	<path d="M79.2,25.8c1.7,0,3.4,0.2,3.6,1c0.9,2.5,0.1,5.7-0.1,8.3c-0.1,2.6-0.1,5.1-0.1,7.6c0,1.2,0.3,4-0.7,4.8
		c-0.4,0.3-1.4,0.4-2.4,0.4c-1.2,0-2.6-0.2-3.2-0.3c-0.8-0.2-0.5,0.1-0.8-0.7c-0.2-0.6-0.1-1.7-0.1-2.4c0-0.4,0.1-2.8-0.4-3
		c-1.4-0.3-3.9,0.4-3.9-1.9c0-1.3-0.7-2.9-0.2-4.2c0.6-1.6,2.5-1.1,3.9-1.3c0.2,0,0.2-0.6,0.1-1.5c-0.2-2.1-0.8-5.9,1-6.4
		C76.3,25.9,77.8,25.8,79.2,25.8 M79.2,23.2c-1.4,0-3.2,0.1-4.2,0.5c-3.4,1.1-3.2,5.2-2.9,8c-1.3,0.2-2.9,0.8-3.7,2.8
		c-0.6,1.5-0.3,3-0.1,4.1c0.1,0.4,0.1,0.8,0.1,1.1c0,2.5,1.5,4,4.4,4.3c0,0.1,0,0.1,0,0.2c0,0.2,0,0.4,0,0.5c0,0.2,0,0.3,0,0.5
		c0,0.8-0.1,1.7,0.3,2.7c0,0.1,0.1,0.2,0.1,0.3c0.4,1.2,1.2,1.9,2.4,2.1c0,0,0.1,0,0.1,0c1,0.2,2.5,0.4,3.9,0.4c1.8,0,3-0.3,3.9-1
		c2-1.5,1.9-4.4,1.8-6.4c0-0.2,0-0.4,0-0.5c0-2.6-0.1-5,0.1-7.4c0-0.6,0.1-1.4,0.2-2.1c0.3-2.2,0.6-4.8-0.3-7.2
		C84.4,23.4,81.4,23.2,79.2,23.2L79.2,23.2z"/>
	<path d="M58.9,27c3.8,0,8.4,1.3,10,2.8c1.4,1.3,1,3.3,0.7,5c-0.5,2.8-0.3,5.8-0.3,8.6c0,1,0.3,3.2-0.5,3.9
		c-0.4,0.3-1.3,0.4-2.2,0.4c-1.5,0-3.3-0.3-4.1-0.3c0,0,0,0,0,0c-0.2,0-0.4,0-0.6,0c-0.2,0-0.5,0-0.6-0.2c-0.4-0.5-0.1-2.9-0.1-3.6
		c-0.1-2.4-0.1-4.8-0.1-7.2c0-1.3-1.8-1.5-3.4-1.5c-0.5,0-1,0-1.5,0c-0.2,0-0.4,0-0.6,0c-0.6-0.1-2.5,0.1-2.9-0.4
		c-0.7-0.8,0.3-3.4,0.4-4.3C53.1,27.8,55.8,27,58.9,27 M58.9,24.4c-7.5,0-8.4,4.3-8.5,5.6c0,0.1-0.1,0.5-0.2,0.8
		c-0.4,1.7-1,3.9,0.5,5.5c1.1,1.2,2.8,1.2,4.2,1.2c0.2,0,0.3,0,0.4,0c0.2,0,0.5,0,0.8,0c0.2,0,0.4,0,0.7,0c0.2,0,0.5,0,0.8,0
		c0.3,0,0.6,0,0.8,0c0,2.2,0,4.3,0.1,6.1c0,0.1,0,0.3,0,0.6c-0.1,2.2-0.1,3.6,0.9,4.7c0.4,0.5,1.2,1,2.5,1c0.2,0,0.4,0,0.5,0l0.1,0
		c0.2,0,0.6,0,1.1,0.1c0.9,0.1,2,0.2,3,0.2c1.8,0,2.9-0.3,3.8-1c1.7-1.3,1.6-3.7,1.6-5.3c0-0.2,0-0.4,0-0.6c0-0.8,0-1.6,0-2.5
		c0-2-0.1-3.9,0.3-5.7c0.3-1.9,0.9-5.1-1.5-7.4C68.2,25.7,62.8,24.4,58.9,24.4L58.9,24.4z"/>
	<path d="M63.5,49.3c1.4,0,3,0.3,4.1,0.4c0.2,2.3,0.4,4.6,0.6,7c0,0.1,1.7,0.2,3.8,0.2c2.9,0,6.5-0.1,7.8-0.1c0.2,0,0.3,0,0.4,0
		c0.5,0,1.1,0.1,1.4,0.5c1,1.2-0.1,5.1-0.6,6.3c-0.1,0.3-0.2,0.6-0.5,0.8c-0.3,0.2-0.6,0.2-0.9,0.2c-3.3,0-6.5,0-9.8,0
		c-0.4,0-0.7,0-1.1,0c-1.4,0-2.9,0-4.3-0.2c-1-0.1-2.1-0.3-2.7-1.1c-0.3-0.4-0.5-1-0.7-1.5c-0.3-0.9-0.4-1.9-0.5-2.9
		c-0.1-1.2-0.2-2.4-0.4-3.6c-0.2-1.2-0.9-2.1-0.7-3.4C59.7,49.9,61.5,49.3,63.5,49.3 M63.5,46.7c-5.4,0-6.4,3.5-6.6,5.1
		c-0.2,1.4,0.2,2.5,0.5,3.3c0.1,0.3,0.2,0.6,0.3,0.8c0.2,0.8,0.2,1.6,0.3,2.5l0.1,0.8c0.1,1,0.2,2.1,0.6,3.3
		c0.2,0.8,0.5,1.6,1.2,2.4c1.4,1.7,3.6,1.9,4.4,2c1.6,0.2,3.2,0.2,4.6,0.2l1.1,0l4.9,0l4.9,0c0.5,0,1.4,0,2.3-0.6
		c1-0.7,1.4-1.7,1.5-2.1c1.4-4.2,1.5-7.1,0.1-8.8c-1.1-1.3-2.7-1.4-3.3-1.4c-0.1,0-0.3,0-0.5,0c-0.5,0-1.4,0-2.5,0
		c-1.6,0-3.6,0-5.3,0c-0.6,0-1,0-1.4,0c-0.2-1.6-0.3-3.2-0.4-4.7c-0.1-1.2-1-2.2-2.2-2.4c-0.2,0-0.5-0.1-0.8-0.1
		C66.1,46.9,64.8,46.7,63.5,46.7L63.5,46.7z"/>
	<g>
		<path style="fill:#FDEB95;" d="M26.5,32.8C11,24.1-2.2,47.6,13.6,56.4C28.9,65,41.4,41.1,26.5,32.8z M19.3,47.5
			c-1.6-0.3-2.7-1.8-2.4-3.5c0.3-1.6,1.8-2.7,3.5-2.4c1.6,0.3,2.7,1.8,2.4,3.5C22.4,46.7,20.9,47.8,19.3,47.5z"/>
		<path style="fill:#FCD11F;" d="M19.7,32.6c2,0,4,0.6,6,1.7c4.8,2.6,6.8,7.4,5.4,12.7c-1.2,4.7-5.4,9.5-10.9,9.5
			c-1.9,0-3.8-0.5-5.7-1.6c-5-2.8-7.2-7.7-5.8-13C9.8,37.3,14,32.6,19.7,32.6 M19.8,49.3c2.3,0,4.2-1.6,4.6-3.9
			c0.2-1.2,0-2.5-0.8-3.5c-0.7-1-1.8-1.7-3-2c-0.3-0.1-0.6-0.1-0.8-0.1c-2.3,0-4.2,1.6-4.6,3.9c-0.2,1.2,0,2.5,0.8,3.5
			c0.7,1,1.8,1.7,3,2C19.2,49.2,19.5,49.3,19.8,49.3 M19.7,30.9c-12.1,0-19.5,18-6.1,25.5c2.3,1.3,4.5,1.8,6.6,1.8
			c11.9,0,19.1-18.4,6.4-25.4C24.2,31.5,21.9,30.9,19.7,30.9L19.7,30.9z M19.8,47.5c-0.2,0-0.4,0-0.5,0c-1.6-0.3-2.7-1.8-2.4-3.5
			c0.3-1.4,1.5-2.4,2.9-2.4c0.2,0,0.4,0,0.5,0c1.6,0.3,2.7,1.8,2.4,3.5C22.5,46.5,21.2,47.5,19.8,47.5L19.8,47.5z"/>
	</g>
	<g>
		<path style="fill:#FDEB95;" d="M35.3,40.9c-0.2,2.8-0.3,5.7-0.4,8.6c0,2.9-0.5,6,0.4,8.8c0.5,1.6,0.8,2.2,2.4,2.3
			c1.6,0.1,3.4,0,5-0.2c1.9-0.2,1.9-0.9,2-2.7c0.2-2.3,1.4-27.4-0.1-27.6c-1.7-0.2-3.2-0.2-4.8-0.6c-0.9-0.2-2.8-0.7-3.1,0.7
			C36,33.7,35.5,37.3,35.3,40.9z"/>
		<path style="fill:#FCD11F;" d="M38.4,30.5L38.4,30.5L38.4,30.5 M38.3,30.9c0.3,0,0.7,0.1,1.1,0.2c1.1,0.3,2.2,0.4,3.3,0.5
			c0.2,0,0.5,0,0.7,0.1c0.6,4.1-0.1,21.8-0.4,25.9l0,0.1c0,0.3-0.1,0.8-0.1,1c-0.1,0-0.2,0-0.3,0c-1,0.1-2.3,0.2-3.5,0.2
			c-0.4,0-0.9,0-1.2,0c-0.3,0-0.5-0.1-0.5-0.1c0,0,0,0,0,0C37.3,58.6,37,58,37,57.7c-0.6-1.9-0.5-4-0.4-6.3c0-0.7,0.1-1.3,0.1-2
			c0.1-3.1,0.2-5.9,0.4-8.5C37.3,37.3,37.7,34,38.3,30.9 M38.2,29.1c-0.7,0-1.3,0.2-1.4,1c-0.7,3.6-1.2,7.2-1.5,10.8
			c-0.2,2.8-0.3,5.7-0.4,8.6c0,2.9-0.5,6,0.4,8.8c0.5,1.6,0.8,2.2,2.4,2.3c0.4,0,0.9,0.1,1.4,0.1c1.2,0,2.5-0.1,3.6-0.2
			c1.9-0.2,1.9-0.9,2-2.7c0.2-2.3,1.4-27.4-0.1-27.6c-1.7-0.2-3.2-0.2-4.8-0.6C39.4,29.3,38.7,29.1,38.2,29.1L38.2,29.1z"/>
	</g>
	<g>
		<path style="fill:#FDEB95;" d="M74.8,32.5c0.1,0.8,0.1,1.4-0.1,1.5c-1.4,0.2-3.2-0.3-3.9,1.3c-0.5,1.3,0.2,2.9,0.2,4.2
			c0,2.2,2.5,1.6,3.9,1.9c0.6,0.1,0.4,2.6,0.4,3c0,0.7-0.2,1.8,0.1,2.4c0.3,0.8,0,0.5,0.8,0.7c1.1,0.3,4.6,0.6,5.6-0.1
			c1-0.8,0.7-3.6,0.7-4.8c0-2.5-0.1-5.1,0.1-7.6c0.1-2.6,1-5.8,0.1-8.3c-0.5-1.4-5.8-1-7-0.6C74,26.7,74.6,30.4,74.8,32.5z"/>
		<path style="fill:#FCD11F;" d="M79.2,27.5c1.1,0,1.8,0.1,2.1,0.2c0.4,1.4,0.2,3.1,0,4.8c-0.1,0.8-0.2,1.6-0.2,2.4
			c-0.1,2.6-0.1,5-0.1,7.7c0,0.2,0,0.4,0,0.7c0,0.5,0.1,2.1-0.1,2.7c-0.2,0-0.6,0.1-1.3,0.1c-0.9,0-1.9-0.1-2.4-0.2
			c0-0.2,0-0.5,0-0.7c0-0.3,0-0.6,0-0.9l0-0.2c0-1.7,0-3.9-1.8-4.4c-0.5-0.1-1-0.1-1.5-0.1c-0.3,0-0.8,0-1.1-0.1
			c0-0.6-0.1-1.2-0.2-1.8c-0.1-0.7-0.3-1.4-0.1-1.8c0.2-0.1,0.8-0.1,1.2-0.1c0.4,0,0.9,0,1.3-0.1c1.9-0.3,1.7-2.3,1.6-3.3l-0.1-0.7
			c-0.1-0.9-0.4-3.3,0-4C76.9,27.6,78,27.5,79.2,27.5 M76.5,27.6L76.5,27.6L76.5,27.6 M79.2,25.8c-1.4,0-2.9,0.2-3.4,0.3
			c-1.8,0.6-1.2,4.3-1,6.4c0.1,0.8,0.1,1.4-0.1,1.5c-1.4,0.2-3.2-0.3-3.9,1.3c-0.5,1.3,0.2,2.9,0.2,4.2c0,2.2,2.5,1.6,3.9,1.9
			c0.6,0.1,0.4,2.6,0.4,3c0,0.7-0.2,1.8,0.1,2.4c0.3,0.8,0,0.5,0.8,0.7c0.6,0.2,2,0.3,3.2,0.3c1,0,1.9-0.1,2.4-0.4
			c1-0.8,0.7-3.6,0.7-4.8c0-2.5-0.1-5.1,0.1-7.6c0.1-2.6,1-5.8,0.1-8.3C82.5,26,80.9,25.8,79.2,25.8L79.2,25.8z"/>
	</g>
	<g>
		<path style="fill:#FDEB95;" d="M68.8,29.7c-2.9-2.6-15.4-4.8-15.9,0.5c-0.1,1-1.1,3.5-0.4,4.3c0.4,0.5,2.3,0.3,2.9,0.4
			c1.4,0.1,5.5-0.5,5.4,1.5c0,2.4,0,4.8,0.1,7.2c0,0.6-0.3,3.1,0.1,3.6c0.3,0.3,0.9,0.1,1.3,0.2c1.4,0,5.2,0.7,6.3-0.2
			c0.9-0.7,0.5-2.9,0.5-3.9c0-2.8-0.2-5.8,0.3-8.6C69.9,33.1,70.2,31,68.8,29.7z"/>
		<path style="fill:#FCD11F;" d="M58.9,28.7c3.5,0,7.6,1.2,8.8,2.3c0.7,0.6,0.5,1.9,0.2,3.4c-0.4,2.2-0.4,4.4-0.3,6.5
			c0,0.8,0,1.6,0,2.3c0,0.2,0,0.5,0,0.9c0,0.4,0.1,1.2,0,1.7c-0.2,0-0.5,0.1-1,0.1c-0.8,0-1.8-0.1-2.6-0.2c-0.5,0-0.9-0.1-1.3-0.1
			c0-0.4,0-0.9,0-1.1c0-0.4,0-0.8,0-1c-0.1-2.1-0.1-4.6-0.1-7.1c0-0.8-0.3-1.5-0.8-2c-1-1-2.7-1.2-4.3-1.2c-0.3,0-0.6,0-0.8,0
			c-0.2,0-0.4,0-0.6,0c-0.2,0-0.3,0-0.4,0c-0.2,0-0.5,0-0.8,0c-0.2,0-0.5,0-0.8,0c0.1-0.5,0.2-1,0.3-1.4c0.1-0.5,0.2-1,0.3-1.4
			C54.8,28.8,57.9,28.7,58.9,28.7 M58.9,27c-3.1,0-5.7,0.9-5.9,3.2c-0.1,1-1.1,3.5-0.4,4.3c0.4,0.5,2.3,0.3,2.9,0.4
			c0.2,0,0.4,0,0.6,0c0.4,0,0.9,0,1.5,0c1.6,0,3.4,0.2,3.4,1.5c0,2.4,0,4.8,0.1,7.2c0,0.6-0.3,3.1,0.1,3.6c0.1,0.1,0.4,0.2,0.6,0.2
			c0.2,0,0.5,0,0.6,0c0,0,0,0,0,0c0.8,0,2.6,0.3,4.1,0.3c0.9,0,1.8-0.1,2.2-0.4c0.9-0.7,0.5-2.9,0.5-3.9c0-2.8-0.2-5.8,0.3-8.6
			c0.3-1.7,0.7-3.7-0.7-5C67.2,28.3,62.7,27,58.9,27L58.9,27z"/>
	</g>
	<g>
		<path style="fill:#FDEB95;" d="M60.6,59c0.1,1,0.2,1.9,0.5,2.9c0.1,0.5,0.3,1.1,0.7,1.5c0.6,0.8,1.7,1,2.7,1.1
			c1.8,0.2,3.6,0.2,5.4,0.2c3.3,0,6.5,0,9.8,0c0.3,0,0.6,0,0.9-0.2c0.3-0.2,0.4-0.5,0.5-0.8c0.4-1.2,1.6-5.1,0.6-6.3
			c-0.3-0.4-0.9-0.5-1.4-0.5c-1,0-12,0.2-12-0.1c-0.2-2.3-0.5-4.6-0.6-7c-2.6-0.3-7.7-1.5-8.1,2.3c-0.1,1.2,0.5,2.2,0.7,3.4
			C60.4,56.6,60.5,57.8,60.6,59z"/>
		<path style="fill:#FCD11F;" d="M63.5,51c0.8,0,1.7,0.1,2.5,0.2c0.2,1.9,0.3,3.8,0.5,5.6c0.2,1.7,1.3,1.7,5.5,1.7
			c1.7,0,3.7,0,5.3,0c1.1,0,2,0,2.5,0c0.2,0,0.3,0,0.3,0c0.1,0,0.1,0,0.2,0c0.1,0.7-0.2,2.4-0.8,4.3l-4.7,0l-4.9,0l-1,0
			c-1.3,0-2.8,0-4.1-0.2c-0.3,0-1.3-0.1-1.6-0.5c-0.2-0.2-0.3-0.6-0.3-0.8c-0.2-0.8-0.3-1.7-0.4-2.5l-0.1-0.7c-0.1-1-0.2-2-0.4-3
			c-0.1-0.5-0.3-1-0.4-1.4c-0.2-0.6-0.3-1-0.3-1.4C61.2,51.8,61.3,51,63.5,51 M63.5,49.3c-2,0-3.8,0.5-4,2.8
			c-0.1,1.2,0.5,2.2,0.7,3.4c0.2,1.2,0.3,2.4,0.4,3.6c0.1,1,0.2,1.9,0.5,2.9c0.1,0.5,0.3,1.1,0.7,1.5c0.6,0.8,1.7,1,2.7,1.1
			c1.4,0.2,2.9,0.2,4.3,0.2c0.4,0,0.7,0,1.1,0c3.3,0,6.5,0,9.8,0c0.3,0,0.6,0,0.9-0.2c0.3-0.2,0.4-0.5,0.5-0.8
			c0.4-1.2,1.6-5.1,0.6-6.3c-0.3-0.4-0.9-0.5-1.4-0.5c-0.1,0-0.2,0-0.4,0c-1.3,0-4.9,0.1-7.8,0.1c-2.1,0-3.8,0-3.8-0.2
			c-0.2-2.3-0.5-4.6-0.6-7C66.4,49.6,64.9,49.3,63.5,49.3L63.5,49.3z"/>
	</g>
</g>
<g>
	<path d="M221.1,46c1.6,0,3.2,0.4,4.9,1.4c9.2,5.1,4,18.4-4.6,18.4c-1.5,0-3.1-0.4-4.7-1.3C207,59,212.3,46,221.1,46 M221.2,58
		c1,0,1.9-0.7,2.1-1.8c0.2-1.2-0.6-2.3-1.7-2.5c-0.1,0-0.3,0-0.4,0c-1,0-1.9,0.7-2.1,1.8c-0.2,1.2,0.6,2.3,1.7,2.5
		C220.9,58,221,58,221.2,58 M221.1,43.4c-5.4,0-10.3,3.9-11.8,9.6c-1.4,5.5,0.9,10.8,6.1,13.7c2,1.1,4,1.7,6,1.7
		c5.4,0,10.1-4,11.6-9.7c1.4-5.6-0.7-10.7-5.7-13.5C225.3,44,223.2,43.4,221.1,43.4L221.1,43.4z"/>
	<path d="M176.5,26.1c1.7,0,3.6,0.5,5.5,1.5c10.2,5.7,4.4,20.4-5.1,20.4c-1.7,0-3.4-0.4-5.3-1.5C160.8,40.6,166.8,26.1,176.5,26.1
		 M176.5,39.4c1.1,0,2.1-0.8,2.4-2c0.2-1.3-0.6-2.5-1.9-2.8c-0.1,0-0.3,0-0.4,0c-1.1,0-2.1,0.8-2.4,2c-0.2,1.3,0.6,2.5,1.9,2.8
		C176.3,39.4,176.4,39.4,176.5,39.4 M176.5,23.5c-5.9,0-11.2,4.3-12.8,10.5c-1.6,6,1,11.7,6.6,14.9c2.1,1.2,4.3,1.8,6.5,1.8
		c5.8,0,11-4.3,12.6-10.6c1.6-6.1-0.8-11.7-6.2-14.7C181,24.1,178.7,23.5,176.5,23.5L176.5,23.5z"/>
	<path d="M191.3,24.7c0.5,0,1,0.1,1.4,0.2c1.3,0.3,2.5,0.3,3.9,0.5c1.2,0.2,0.2,20.4,0.1,22.2c-0.1,1.5-0.1,2.1-1.6,2.2
		C194,49.9,193,50,192,50c-0.4,0-0.7,0-1.1,0c-1.3-0.1-1.5-0.6-1.9-1.9c-0.7-2.3-0.4-4.7-0.3-7.1c0-2.3,0.1-4.6,0.3-6.9
		c0.2-2.9,0.6-5.8,1.2-8.7C190.3,24.8,190.7,24.7,191.3,24.7 M191.3,22.1c-1.9,0-3.3,1.1-3.7,2.9c-0.6,2.8-1,5.7-1.2,9
		c-0.2,2.2-0.3,4.5-0.3,7c0,0.5,0,1-0.1,1.5c-0.1,2-0.2,4.2,0.5,6.4c0.4,1.3,1.1,3.4,4.2,3.7c0.4,0,0.9,0.1,1.3,0.1
		c1.1,0,2.2-0.1,3.2-0.2c3.7-0.3,3.9-3.1,4-4.5c0.1-1.1,0.4-6.7,0.5-11.9c0.2-10.3,0-12.7-2.8-13.1c-0.5-0.1-1-0.1-1.5-0.2
		c-0.8-0.1-1.4-0.1-2.1-0.3C192.8,22.3,192.1,22.1,191.3,22.1L191.3,22.1z"/>
	<path d="M229.8,25.3c1.5,0,3.1,0.2,3.4,0.9c0.8,2.3,0.1,5.3-0.1,7.7c-0.1,2.4-0.1,4.7-0.1,7c0,1.1,0.3,3.7-0.7,4.5
		c-0.4,0.3-1.3,0.4-2.2,0.4c-1.2,0-2.4-0.2-3-0.3c-0.7-0.2-0.5,0.1-0.8-0.7c-0.2-0.6-0.1-1.6-0.1-2.2c0-0.4,0.1-2.6-0.4-2.8
		c-1.3-0.3-3.7,0.3-3.7-1.7c0-1.2-0.7-2.7-0.2-3.9c0.6-1.5,2.3-1,3.6-1.2c0.2,0,0.2-0.6,0.1-1.4c-0.2-2-0.7-5.5,0.9-6
		C227.2,25.4,228.5,25.3,229.8,25.3 M229.8,22.7c-1.3,0-3,0.1-3.9,0.4c-3.2,1-3.1,4.8-2.8,7.4c-1.2,0.2-2.7,0.8-3.4,2.7
		c-0.6,1.4-0.3,2.9-0.1,3.9c0.1,0.4,0.1,0.7,0.1,1c0,1.7,0.7,3.7,4.1,4.1c0,0,0,0,0,0c0,0.2,0,0.4,0,0.4c0,0.1,0,0.3,0,0.5
		c0,0.7-0.1,1.6,0.2,2.5c0,0.1,0.1,0.2,0.1,0.2c0.5,1.5,1.6,1.9,2.4,2c0,0,0.1,0,0.1,0c0.9,0.2,2.4,0.4,3.6,0.4
		c1.7,0,2.9-0.3,3.7-0.9c1.9-1.4,1.8-4.2,1.7-6.1c0-0.2,0-0.4,0-0.5c0-2.4-0.1-4.6,0.1-6.9c0-0.6,0.1-1.3,0.2-2
		c0.3-2.1,0.5-4.5-0.3-6.7C234.7,22.7,231.1,22.7,229.8,22.7L229.8,22.7z"/>
	<path d="M177.8,49.3c1.4,0,3,0.3,4.1,0.4c0.2,2.3,0.4,4.6,0.6,7c0,0.1,1.7,0.2,3.8,0.2c2.9,0,6.5-0.1,7.8-0.1c0.2,0,0.3,0,0.4,0
		c0.5,0,1.1,0.1,1.4,0.5c1,1.2-0.1,5.1-0.6,6.3c-0.1,0.3-0.2,0.6-0.5,0.8c-0.3,0.2-0.6,0.2-0.9,0.2c-3.3,0-6.5,0-9.8,0
		c-0.4,0-0.7,0-1.1,0c-1.4,0-2.9,0-4.3-0.2c-1-0.1-2.1-0.3-2.7-1.1c-0.3-0.4-0.5-1-0.7-1.5c-0.3-0.9-0.4-1.9-0.5-2.9
		c-0.1-1.2-0.2-2.4-0.4-3.6c-0.2-1.2-0.9-2.1-0.7-3.4C174.1,49.9,175.9,49.3,177.8,49.3 M177.8,46.7c-5.4,0-6.4,3.5-6.6,5.1
		c-0.2,1.4,0.2,2.5,0.5,3.3c0.1,0.3,0.2,0.6,0.3,0.8c0.2,0.8,0.2,1.6,0.3,2.5l0.1,0.8c0.1,1,0.2,2.1,0.6,3.3
		c0.2,0.8,0.5,1.6,1.2,2.4c1.4,1.7,3.6,1.9,4.4,2c1.6,0.2,3.2,0.2,4.6,0.2l1.1,0l4.9,0l4.9,0c0.5,0,1.4,0,2.3-0.6
		c1-0.7,1.4-1.7,1.5-2.1c1.4-4.2,1.5-7.1,0.1-8.8c-1.1-1.3-2.7-1.4-3.3-1.4c-0.1,0-0.3,0-0.5,0c-0.5,0-1.4,0-2.5,0
		c-1.6,0-3.6,0-5.3,0c-0.6,0-1,0-1.4,0c-0.2-1.6-0.3-3.2-0.4-4.7c-0.1-1.2-1-2.2-2.2-2.4c-0.2,0-0.5-0.1-0.8-0.1
		C180.4,46.9,179.2,46.7,177.8,46.7L177.8,46.7z"/>
	<path d="M211.6,25.4c0.4,0,0.9,0,1.3,0c1,0,2.2,0.2,3.3,0.6c2.4,0.8,4.4,2.6,4.1,5.5c-0.1,1-0.6,1.9-1.1,2.8
		c-0.5,0.8-1.2,2.4-1.2,2.4s5.5,2.7,4.3,5.9c-0.5,1.4-1.4,1.9-2.3,1.9c-2,0-4.6-2.1-5.6-2.3c-0.5-0.1-0.8-0.1-1.1-0.1
		c-0.8,0-0.9,0.5-2.1,1.7c-1.1,1-2.1,1.9-3.3,1.9c-0.4,0-0.7-0.1-1.2-0.2c-2.3-1-3-3.1-2.1-4.6c1.8-2.9,6.1-4.2,6.9-7.7
		c0-0.2,0.1-0.4-0.1-0.6c-0.1-0.1-0.3-0.2-0.5-0.2c-0.3,0-0.6,0-1,0c-0.8,0-1.6,0-2.3,0c-1.2,0-2.3-0.1-3.4-0.7
		c-1.7-0.9-1.5-4.4,0.1-5.4c1-0.7,2.5-0.5,3.7-0.6C209.1,25.5,210.4,25.4,211.6,25.4 M211.6,22.8c-1.3,0-2.6,0-3.9,0.1
		c-0.2,0-0.4,0-0.6,0c-1.2,0-2.9,0.1-4.3,1c-1.6,1-2.5,3.1-2.4,5.3c0.1,2,1,3.7,2.5,4.5c1.4,0.8,2.8,0.9,4,1
		c-0.3,0.2-0.6,0.5-0.9,0.7c-1.3,1-2.7,2.1-3.7,3.7c-0.8,1.3-1,2.9-0.6,4.5c0.6,1.7,2,3.2,3.8,4c0.7,0.3,1.4,0.4,2.1,0.4
		c2.3,0,3.9-1.5,5-2.6c0.4-0.3,0.7-0.6,0.9-0.9c0.2,0.1,0.7,0.3,1,0.5c1.4,0.8,3.3,1.8,5.2,1.8c2.2,0,3.9-1.3,4.8-3.6
		c1.2-3.1-0.8-5.9-3.3-7.7c0,0,0-0.1,0.1-0.1c0.8-1.3,1.3-2.6,1.5-3.8c0.5-3.7-1.7-6.8-5.8-8.2c-1.3-0.5-2.7-0.7-4.1-0.7
		C212.6,22.8,212.1,22.8,211.6,22.8L211.6,22.8z"/>
	<g>
		<path style="fill:#FDEB95;" d="M226,47.4c-11.3-6.3-20.8,10.7-9.4,17.1C227.7,70.6,236.8,53.4,226,47.4z M220.8,58
			c-1.2-0.2-1.9-1.3-1.7-2.5s1.3-1.9,2.5-1.7c1.2,0.2,1.9,1.3,1.7,2.5C223.1,57.4,221.9,58.2,220.8,58z"/>
		<path style="fill:#FCD11F;" d="M221.1,47.7c1.4,0,2.7,0.4,4.1,1.2c3.2,1.8,4.6,5,3.7,8.7c-0.8,3.2-3.7,6.5-7.4,6.5
			c-1.3,0-2.6-0.4-3.9-1.1c-3.4-1.9-4.9-5.2-4-8.8C214.3,50.9,217.2,47.7,221.1,47.7 M221.2,59.7c1.9,0,3.5-1.3,3.8-3.2
			c0.4-2.1-1-4.1-3.1-4.5c-0.2,0-0.5-0.1-0.7-0.1c-1.9,0-3.5,1.3-3.8,3.2c-0.4,2.1,1,4.1,3.1,4.5C220.7,59.7,220.9,59.7,221.2,59.7
			 M221.1,46c-8.7,0-14.1,13-4.4,18.4c1.6,0.9,3.2,1.3,4.7,1.3c8.6,0,13.8-13.3,4.6-18.4C224.3,46.4,222.6,46,221.1,46L221.1,46z
			 M221.2,58c-0.1,0-0.3,0-0.4,0c-1.2-0.2-1.9-1.3-1.7-2.5c0.2-1,1.1-1.8,2.1-1.8c0.1,0,0.3,0,0.4,0c1.2,0.2,1.9,1.3,1.7,2.5
			C223.1,57.3,222.2,58,221.2,58L221.2,58z"/>
	</g>
	<g>
		<path style="fill:#FDEB95;" d="M181.9,27.6c-12.5-7-23.1,11.9-10.4,19C183.9,53.5,193.9,34.3,181.9,27.6z M176.1,39.4
			c-1.3-0.2-2.2-1.5-1.9-2.8c0.2-1.3,1.5-2.2,2.8-1.9c1.3,0.2,2.2,1.5,1.9,2.8S177.4,39.6,176.1,39.4z"/>
		<path style="fill:#FCD11F;" d="M176.5,27.8c1.5,0,3.1,0.4,4.6,1.3c3.7,2,5.2,5.7,4.2,9.9c-0.9,3.7-4.2,7.4-8.5,7.4
			c-1.5,0-2.9-0.4-4.4-1.3c-3.9-2.2-5.6-5.9-4.5-10C168.8,31.5,172,27.8,176.5,27.8 M176.5,41.2c2,0,3.7-1.4,4-3.4
			c0.4-2.2-1.1-4.4-3.3-4.8c-0.2,0-0.5-0.1-0.7-0.1c-2,0-3.7,1.4-4,3.4c-0.2,1.1,0,2.2,0.7,3.1c0.6,0.9,1.6,1.5,2.6,1.7
			C176.1,41.1,176.3,41.2,176.5,41.2 M176.5,26.1c-9.7,0-15.7,14.5-4.9,20.5c1.8,1,3.6,1.5,5.3,1.5c9.5,0,15.3-14.8,5.1-20.4
			C180.1,26.6,178.2,26.1,176.5,26.1L176.5,26.1z M176.5,39.4c-0.1,0-0.3,0-0.4,0c-1.3-0.2-2.2-1.5-1.9-2.8c0.2-1.2,1.2-2,2.4-2
			c0.1,0,0.3,0,0.4,0c1.3,0.2,2.2,1.5,1.9,2.8C178.7,38.6,177.7,39.4,176.5,39.4L176.5,39.4z"/>
	</g>
	<g>
		<path style="fill:#FDEB95;" d="M189,34.1c-0.2,2.3-0.3,4.6-0.3,6.9c0,2.3-0.4,4.8,0.3,7.1c0.4,1.3,0.7,1.8,1.9,1.9
			c1.3,0.1,2.7,0,4-0.1c1.5-0.1,1.5-0.7,1.6-2.2c0.1-1.8,1.2-22-0.1-22.2c-1.3-0.2-2.6-0.2-3.9-0.5c-0.8-0.2-2.3-0.6-2.5,0.6
			C189.5,28.3,189.2,31.2,189,34.1z"/>
		<path style="fill:#FCD11F;" d="M191.8,25.8L191.8,25.8L191.8,25.8 M191.7,26.4c0.2,0,0.4,0.1,0.5,0.1c0.9,0.2,1.8,0.3,2.7,0.4
			c0.1,0,0.2,0,0.3,0c0.4,3.7-0.1,17.3-0.4,20.6c0,0.2,0,0.4,0,0.5c-0.8,0.1-1.8,0.2-2.8,0.2c-0.3,0-0.6,0-1,0c-0.1,0-0.1,0-0.2,0
			c-0.1-0.1-0.1-0.4-0.2-0.7c-0.5-1.5-0.4-3.2-0.3-4.9c0-0.5,0-1.1,0.1-1.6c0-2.5,0.1-4.7,0.3-6.8C190.9,31.4,191.2,28.9,191.7,26.4
			 M191.3,24.7c-0.5,0-1,0.2-1.2,0.8c-0.6,2.9-0.9,5.8-1.2,8.7c-0.2,2.3-0.3,4.6-0.3,6.9c0,2.3-0.4,4.8,0.3,7.1
			c0.4,1.3,0.7,1.8,1.9,1.9c0.4,0,0.7,0,1.1,0c1,0,2-0.1,2.9-0.2c1.5-0.1,1.5-0.7,1.6-2.2c0.1-1.8,1.2-22-0.1-22.2
			c-1.3-0.2-2.6-0.2-3.9-0.5C192.3,24.8,191.8,24.7,191.3,24.7L191.3,24.7z"/>
	</g>
	<g>
		<path style="fill:#FDEB95;" d="M225.8,31.5c0.1,0.8,0.1,1.3-0.1,1.4c-1.3,0.2-3-0.3-3.6,1.2c-0.5,1.2,0.2,2.7,0.2,3.9
			c0,2,2.4,1.4,3.7,1.7c0.5,0.1,0.4,2.4,0.4,2.8c0,0.6-0.1,1.6,0.1,2.2c0.3,0.8,0,0.5,0.8,0.7c1,0.3,4.3,0.6,5.2-0.1
			c1-0.7,0.7-3.4,0.7-4.5c0-2.4-0.1-4.7,0.1-7c0.1-2.4,0.9-5.4,0.1-7.7c-0.5-1.3-5.4-0.9-6.5-0.6C225,26.1,225.6,29.6,225.8,31.5z"
			/>
		<path style="fill:#FCD11F;" d="M229.8,27c1,0,1.5,0.1,1.9,0.2c0.3,1.3,0.1,2.8-0.1,4.4c-0.1,0.7-0.2,1.5-0.2,2.3
			c-0.1,2.4-0.1,4.7-0.1,7.2c0,0.2,0,0.4,0,0.6c0,0.5,0.1,1.8-0.1,2.4c-0.2,0-0.5,0.1-1.1,0.1c-0.8,0-1.6-0.1-2.1-0.2
			c0-0.2,0-0.4,0-0.5c0-0.3,0-0.6,0-0.9l0-0.2c0-1.6,0-3.7-1.8-4.2c-0.5-0.1-1-0.1-1.4-0.1c-0.2,0-0.6,0-0.9-0.1
			c0-0.5-0.1-1.1-0.2-1.6c-0.1-0.6-0.2-1.2-0.1-1.6c0.2-0.1,0.7-0.1,1-0.1c0.4,0,0.8,0,1.3-0.1c1.8-0.3,1.6-2.4,1.6-3.2l-0.1-0.6
			c-0.1-0.8-0.3-2.9,0-3.6C227.8,27.1,228.7,27,229.8,27 M227.4,27.1L227.4,27.1L227.4,27.1 M223.7,34.7L223.7,34.7L223.7,34.7
			 M229.8,25.3c-1.3,0-2.6,0.2-3.1,0.3c-1.7,0.5-1.1,4-0.9,6c0.1,0.8,0.1,1.3-0.1,1.4c-1.3,0.2-3-0.3-3.6,1.2
			c-0.5,1.2,0.2,2.7,0.2,3.9c0,2,2.4,1.4,3.7,1.7c0.5,0.1,0.4,2.4,0.4,2.8c0,0.6-0.1,1.6,0.1,2.2c0.3,0.8,0,0.5,0.8,0.7
			c0.6,0.1,1.8,0.3,3,0.3c0.9,0,1.8-0.1,2.2-0.4c1-0.7,0.7-3.4,0.7-4.5c0-2.4-0.1-4.7,0.1-7c0.1-2.4,0.9-5.4,0.1-7.7
			C232.9,25.5,231.4,25.3,229.8,25.3L229.8,25.3z"/>
	</g>
	<g>
		<path style="fill:#FDEB95;" d="M174.9,59c0.1,1,0.2,1.9,0.5,2.9c0.1,0.5,0.3,1.1,0.7,1.5c0.6,0.8,1.7,1,2.7,1.1
			c1.8,0.2,3.6,0.2,5.4,0.2c3.3,0,6.5,0,9.8,0c0.3,0,0.6,0,0.9-0.2c0.3-0.2,0.4-0.5,0.5-0.8c0.4-1.2,1.6-5.1,0.6-6.3
			c-0.3-0.4-0.9-0.5-1.4-0.5c-1,0-12,0.2-12-0.1c-0.2-2.3-0.5-4.6-0.6-7c-2.6-0.3-7.7-1.5-8.1,2.3c-0.1,1.2,0.5,2.2,0.7,3.4
			C174.8,56.6,174.8,57.8,174.9,59z"/>
		<path style="fill:#FCD11F;" d="M177.8,51c0.8,0,1.7,0.1,2.5,0.2c0.2,1.9,0.3,3.8,0.5,5.6c0.2,1.7,1.3,1.7,5.5,1.7
			c1.7,0,3.7,0,5.3,0c1.1,0,2,0,2.5,0c0.2,0,0.3,0,0.3,0c0.1,0,0.1,0,0.2,0c0.1,0.7-0.2,2.4-0.8,4.3l-4.7,0l-4.9,0l-1,0
			c-1.3,0-2.8,0-4.1-0.2c-0.3,0-1.3-0.1-1.6-0.5c-0.2-0.2-0.3-0.6-0.3-0.8c-0.2-0.8-0.3-1.7-0.4-2.5l-0.1-0.7c-0.1-1-0.2-2-0.4-3
			c-0.1-0.5-0.3-1-0.4-1.4c-0.2-0.6-0.3-1-0.3-1.4C175.6,51.8,175.7,51,177.8,51 M177.8,49.3c-2,0-3.8,0.5-4,2.8
			c-0.1,1.2,0.5,2.2,0.7,3.4c0.2,1.2,0.3,2.4,0.4,3.6c0.1,1,0.2,1.9,0.5,2.9c0.1,0.5,0.3,1.1,0.7,1.5c0.6,0.8,1.7,1,2.7,1.1
			c1.4,0.2,2.9,0.2,4.3,0.2c0.4,0,0.7,0,1.1,0c3.3,0,6.5,0,9.8,0c0.3,0,0.6,0,0.9-0.2c0.3-0.2,0.4-0.5,0.5-0.8
			c0.4-1.2,1.6-5.1,0.6-6.3c-0.3-0.4-0.9-0.5-1.4-0.5c-0.1,0-0.2,0-0.4,0c-1.3,0-4.9,0.1-7.8,0.1c-2.1,0-3.8,0-3.8-0.2
			c-0.2-2.3-0.5-4.6-0.6-7C180.8,49.6,179.3,49.3,177.8,49.3L177.8,49.3z"/>
	</g>
	<g>
		<path style="fill-rule:evenodd;clip-rule:evenodd;fill:#FDEB95;" d="M216.2,26c-1.1-0.4-2.2-0.6-3.3-0.6c-1.7,0-3.4,0-5.1,0.1
			c-1.1,0.1-2.7-0.1-3.7,0.6c-1.6,1.1-1.8,4.5-0.1,5.4c2,1.1,4.4,0.5,6.7,0.7c0.2,0,0.4,0,0.5,0.2c0.1,0.2,0.1,0.4,0.1,0.6
			c-0.7,3.5-5,4.8-6.9,7.7c-1,1.5-0.2,3.7,2.1,4.6c1.8,0.7,3-0.3,4.4-1.6c1.6-1.5,1.2-1.9,3.2-1.5c1.6,0.3,6.4,4.8,8,0.4
			c1.2-3.2-4.3-5.9-4.3-5.9s0.7-1.7,1.2-2.4c0.5-0.8,1-1.8,1.1-2.8C220.7,28.6,218.6,26.9,216.2,26z"/>
		<path style="fill:#FCD11F;" d="M211.6,27.1c0.4,0,0.9,0,1.3,0c0.9,0,1.9,0.2,2.7,0.5c1.5,0.5,3.2,1.6,2.9,3.6
			c-0.1,0.6-0.4,1.3-0.9,2.1c-0.5,0.9-1.3,2.5-1.3,2.7c-0.4,0.8,0,1.8,0.8,2.2c1.4,0.7,3.9,2.5,3.4,3.7c-0.3,0.8-0.5,0.8-0.7,0.8
			c-0.8,0-2.1-0.7-3.1-1.3c-0.9-0.5-1.5-0.9-2.2-1c-0.6-0.1-1.1-0.2-1.4-0.2c-1.3,0-2,0.7-2.5,1.3c-0.2,0.2-0.4,0.5-0.8,0.8
			c-0.9,0.8-1.6,1.4-2.1,1.4c-0.2,0-0.3,0-0.5-0.1c-0.7-0.3-1.2-0.8-1.4-1.3c-0.1-0.2-0.1-0.5,0.1-0.8c0.6-0.9,1.6-1.8,2.7-2.6
			c1.8-1.4,3.8-3,4.4-5.6c0.2-1-0.1-1.7-0.5-2.1c-0.6-0.7-1.4-0.7-1.6-0.7c-0.4,0-0.7,0-1.1,0c-0.4,0-0.8,0-1.2,0
			c-0.4,0-0.7,0-1.1,0c-1.2,0-1.9-0.1-2.5-0.5c-0.1,0-0.3-0.3-0.3-0.9c0-0.8,0.3-1.4,0.5-1.6c0.4-0.3,1.3-0.3,2-0.3
			c0.3,0,0.5,0,0.8,0C209.2,27.2,210.4,27.1,211.6,27.1 M211.6,25.4c-1.2,0-2.5,0-3.7,0.1c-1.1,0.1-2.7-0.1-3.7,0.6
			c-1.6,1.1-1.8,4.5-0.1,5.4c1,0.6,2.2,0.7,3.4,0.7c0.8,0,1.6,0,2.3,0c0.3,0,0.6,0,1,0c0.2,0,0.4,0,0.5,0.2c0.1,0.2,0.1,0.4,0.1,0.6
			c-0.7,3.5-5,4.8-6.9,7.7c-1,1.5-0.2,3.7,2.1,4.6c0.4,0.2,0.8,0.2,1.2,0.2c1.2,0,2.2-0.9,3.3-1.9c1.2-1.1,1.3-1.7,2.1-1.7
			c0.3,0,0.6,0.1,1.1,0.1c1.1,0.2,3.6,2.3,5.6,2.3c1,0,1.8-0.5,2.3-1.9c1.2-3.2-4.3-5.9-4.3-5.9s0.7-1.7,1.2-2.4
			c0.5-0.8,1-1.8,1.1-2.8c0.4-2.9-1.7-4.6-4.1-5.5c-1.1-0.4-2.2-0.6-3.3-0.6C212.5,25.4,212.1,25.4,211.6,25.4L211.6,25.4z"/>
	</g>
</g>
<g>
	<path d="M158.6,16.5C158.6,16.5,158.6,16.5,158.6,16.5c-0.5,0-1-0.3-1.2-1.1c-0.7-4.8-3-9.3-6.5-12.7c-0.4-0.4-0.4-1.1,0-1.5
		c0.4-0.4,1.1-0.4,1.5,0c3.7,3.6,6.2,8.4,7,13.4c0.2,0.3,0.3,0.7,0.2,1.1C159.5,16.2,159.1,16.5,158.6,16.5z M159.5,15.1
		C159.5,15.1,159.5,15.1,159.5,15.1C159.5,15.1,159.5,15.1,159.5,15.1z"/>
	<path d="M162.5,10.6c-0.4,0-0.8-0.3-1-0.7c-0.8-2.6-2.3-5.1-4.2-7.2c-0.4-0.4-0.4-1.1,0.1-1.5c0.4-0.4,1.1-0.4,1.5,0.1
		c2.1,2.3,3.7,5,4.6,7.9c0.2,0.5-0.1,1.1-0.7,1.3C162.7,10.6,162.6,10.6,162.5,10.6z"/>
</g>
</svg>
