<?xml version="1.0" encoding="utf-8"?>
<!-- Generator: Adobe Illustrator 22.0.1, SVG Export Plug-In . SVG Version: 6.00 Build 0)  -->
<svg version="1.1" id="레이어_1" xmlns="http://www.w3.org/2000/svg" xmlns:xlink="http://www.w3.org/1999/xlink" x="0px"
	 y="0px" viewBox="0 0 228 381" style="enable-background:new 0 0 228 381;" xml:space="preserve">
<style type="text/css">
	.st0{fill:#FFFFFF;}
	.st1{fill:#673101;}
	.st2{fill:#00A2E7;}
	.st3{fill:#008BC7;}
	.st4{fill:#008AC4;}
	.st5{fill:#DD9900;}
	.st6{fill:#C18100;}
	.st7{fill:#FFB400;}
	.st8{fill:#FFE4A9;}
</style>
<title>자산 5</title>
<g>
	<path class="st0" d="M141.6,77.6l0.3-0.1c4.5-2.4,6.2-8.1,3.8-12.6c-1.9-3.6-1.5-8.9-1.3-10.5c0.4-1.5,1.3-3.8,2.6-4.3
		c3.1-1.2,10,1.9,13.7,4.4c4.2,2.9,9.9,1.9,12.8-2.3c0,0,0,0,0-0.1c2.9-4.2,1.9-10-2.3-12.9c-1.7-1.2-17.1-11.6-30.6-6.6
		c-4.9,1.8-11.3,6.3-14.2,17.3l-0.1,0.6c-0.3,1.3-2.3,13,3.1,23.2C131.7,78,137.2,79.8,141.6,77.6z"/>
	<path class="st1" d="M158.2,48.7c0.6-0.3,1.4-0.4,2.1-0.3c-0.9-0.3-1.7-1-2.1-1.9c-0.9-1.8-0.2-4.1,1.7-5c0.8-0.4,1.8-0.5,2.6-0.2
		c-0.8-0.3-1.5-0.9-1.9-1.7c-0.9-1.8-0.2-4.1,1.6-5c0,0,0,0,0,0c0.2-0.1,0.3-0.1,0.5-0.2c3,1.3,5.8,2.8,8.5,4.7
		c4.2,2.9,5.2,8.7,2.3,12.9c-2.9,4.2-8.6,5.3-12.8,2.4c0,0,0,0,0,0c-1.4-1-3-1.8-4.6-2.5C156.2,50.5,157,49.3,158.2,48.7z"/>
</g>
<g>
	<path class="st0" d="M88.5,76.8l-0.3-0.1c-4.7-1.9-7-7.3-5.1-12.1c1.5-3.8,0.5-9,0.1-10.6c-0.6-1.5-1.7-3.6-3.1-4
		c-3.2-0.7-9.8,3.1-13.1,6c-3.8,3.3-9.6,3-13-0.8c0,0,0,0,0-0.1c-3.4-3.8-3-9.7,0.8-13.1c1.6-1.4,15.7-13.4,29.7-10
		c5.1,1.2,11.9,5,16,15.6l0.2,0.6c0.4,1.3,3.8,12.7-0.5,23.4C98.3,76.1,93.2,78.5,88.5,76.8z"/>
	<path class="st1" d="M68.9,50c-0.7-0.2-1.4-0.3-2.1-0.1c0.9-0.4,1.6-1.2,1.9-2.1c0.7-1.9-0.3-4-2.2-4.8c-0.9-0.3-1.8-0.3-2.6,0.1
		c0.8-0.4,1.3-1.1,1.7-1.9c0.7-1.9-0.3-4.1-2.2-4.8c-0.2,0-0.4-0.1-0.5-0.1c-2.8,1.6-5.5,3.5-7.9,5.6c-3.8,3.4-4.1,9.2-0.8,13.1
		c3.3,3.8,9.1,4.3,12.9,1c0,0,0,0,0.1,0c1.3-1.1,2.8-2.1,4.3-3C71.1,51.6,70.2,50.5,68.9,50z"/>
</g>
<g>
	<path class="st0" d="M95.7,235.6c2.8,0,5,2.2,5,5V285h-10v-44.3C90.7,237.9,92.9,235.7,95.7,235.6
		C95.7,235.6,95.7,235.6,95.7,235.6z"/>
	<path class="st2" d="M68.3,324.3l0.3-0.1c9.6-1.9,22,2.4,22,2.4V285h10.1v66.2h-49c-3.2-11.5,3.6-23.4,15.1-26.6
		C67.3,324.5,67.7,324.4,68.3,324.3L68.3,324.3z"/>
	<g>
		<path class="st3" d="M69.2,332.3l2.2-3.1c-0.4-0.3-4.1-2.3-10.7-1.6c-1.9,1.3-3.6,2.8-5,4.6C60.1,330.3,65,330.3,69.2,332.3z"/>
		<path class="st3" d="M64.6,342.9l2.5-3.7c-0.5-0.4-5.2-3.3-14.9-0.8c-0.6,1.6-1,3.3-1.1,5C60.4,340.4,64.6,342.8,64.6,342.9z"/>
	</g>
</g>
<g>
	<path class="st0" d="M129.7,235.6c-2.8,0-5,2.2-5,5V285h10.1v-44.3c0-2.8-2.2-5-5-5C129.8,235.6,129.8,235.6,129.7,235.6z"/>
	<path class="st2" d="M157.2,324.3l-0.4-0.1c-9.6-1.9-22.1,2.4-22.1,2.4V285h-10.1v66.2h49c0.5-1.8,0.8-3.6,0.8-5.5
		C174.5,335.4,167.3,326.5,157.2,324.3z"/>
	<g>
		<path class="st3" d="M156.2,332.3l-2.2-3.1c0.4-0.3,4.1-2.3,10.7-1.6c1.9,1.3,3.6,2.8,5,4.6C165.4,330.3,160.5,330.4,156.2,332.3z
			"/>
		<path class="st3" d="M160.8,342.9l-2.5-3.7c0.6-0.4,5.2-3.3,14.9-0.8c0.6,1.6,0.9,3.3,1.1,5C165,340.4,160.9,342.8,160.8,342.9z"
			/>
	</g>
</g>
<g>
	<path class="st0" d="M43.3,245.9c-3.8,0-7.2-2.9-8.5-7.5c-16.3-61,15.2-89.8,16.4-91c3.8-3.9,8.6-6.8,11.1-4.2c3.9,4,0.7,12-3,15.8
		c-0.9,1-19.9,26.3-7.5,72.6c1.5,5.7-1.1,11.8-5.8,13.6C45.2,245.7,44.3,245.8,43.3,245.9z"/>
	<path class="st4" d="M46.1,245.3c-0.9,0.3-1.8,0.5-2.8,0.5c-3.8,0-7.2-2.9-8.5-7.5c-4.8-18-5.4-33.2-3.9-45.7
		c5.7-0.9,11.5-0.5,17,1.1c-0.9,12.8,0.4,25.6,3.9,37.9C53.4,237.4,50.8,243.5,46.1,245.3z"/>
</g>
<g>
	<path class="st0" d="M185.5,245.8c3.8-0.1,7.2-3.1,8.3-7.6c15.1-61.3-17-89.5-18.2-90.6c-3.8-3.8-8.7-6.6-11.2-4
		c-3.8,4.1-0.5,12,3.3,15.8c1,1,20.4,25.9,9,72.5c-1.4,5.7,1.3,11.8,6,13.5C183.6,245.6,184.5,245.8,185.5,245.8z"/>
	<path class="st4" d="M182.7,245.3c0.9,0.3,1.8,0.5,2.8,0.5c3.8-0.1,7.2-3.1,8.3-7.6c4.4-18.1,4.8-33.3,3-45.8
		c-5.7-0.7-11.5-0.3-17,1.4c1.2,12.8,0.1,25.6-3.1,38C175.2,237.5,178,243.5,182.7,245.3z"/>
</g>
<path class="st0" d="M168.7,94.8c-0.9-25.6-19.9-35.8-35.8-39.4c-2-0.5-8.4-1.6-9.9-1.7c-3.8-0.4-7.6-0.6-11.4-0.5
	c-29.1,0.3-52.7,21.5-53.4,47.9l0,0c0,0-5.1,41.9,42.5,49.5c3.8,0.6,7.6,0.8,11.5,0.8h34.1c16.9,0,31.6-16.1,31.6-33l0,0
	C177.9,108.6,175.9,100.4,168.7,94.8z"/>
<path class="st2" d="M113.4,49.7c-54.3-0.1-56.5,43.4-56.5,43.4v115.7c0,20.9,25.3,37.8,56.5,37.8s56.6-16.9,56.6-37.8V93.5
	C171.2,48.1,113.4,49.7,113.4,49.7z"/>
<g>
	<g>
		<path class="st5" d="M121.2,161.3c0,5.2-4.2,9.3-9.3,9.3c-5.2,0-9.3-4.2-9.3-9.3c0-5.2,4.2-9.3,9.3-9.3c0,0,0,0,0,0
			C117,152,121.2,156.2,121.2,161.3z"/>
		<path class="st6" d="M111.8,168.3c-3.9,0-7-3.1-7-7s3.1-7,7-7s7,3.1,7,7S115.7,168.3,111.8,168.3z"/>
	</g>
	<path class="st7" d="M117.9,156c0,3.3-2.6,6-5.9,6c0,0,0,0-0.1,0l0,0c-3.3,0-6-2.7-6-6.1v-39.6c0-3.3,2.7-6,6-6l0,0
		c3.3,0,6,2.7,6,6l0,0V156z"/>
	<path class="st7" d="M117.9,205.4c0,3.3-2.7,6-6,6l0,0c-3.3,0-6-2.7-6-6v-39.6c0-3.3,2.7-6,6-6.1l0,0c3.3,0,6,2.7,6,6
		c0,0,0,0,0,0.1V205.4z"/>
	<path class="st8" d="M110.2,132c-1.3,0-2.3-1-2.3-2.3c-0.4-14.5,1-15,2.3-15.6c1.2-0.5,2.6,0.1,3.1,1.3c0.3,0.7,0.2,1.6-0.3,2.2
		c-0.2,0.6-0.7,3.1-0.4,11.9C112.5,130.9,111.5,132,110.2,132L110.2,132z"/>
</g>
</svg>
