<?xml version="1.0" encoding="utf-8"?>
<!-- Generator: Adobe Illustrator 24.0.3, SVG Export Plug-In . SVG Version: 6.00 Build 0)  -->
<!DOCTYPE svg PUBLIC "-//W3C//DTD SVG 1.1//EN" "http://www.w3.org/Graphics/SVG/1.1/DTD/svg11.dtd" [
	<!ENTITY ns_flows "http://ns.adobe.com/Flows/1.0/">
	<!ENTITY ns_extend "http://ns.adobe.com/Extensibility/1.0/">
	<!ENTITY ns_ai "http://ns.adobe.com/AdobeIllustrator/10.0/">
	<!ENTITY ns_graphs "http://ns.adobe.com/Graphs/1.0/">
	<!ENTITY ns_vars "http://ns.adobe.com/Variables/1.0/">
	<!ENTITY ns_imrep "http://ns.adobe.com/ImageReplacement/1.0/">
	<!ENTITY ns_sfw "http://ns.adobe.com/SaveForWeb/1.0/">
	<!ENTITY ns_custom "http://ns.adobe.com/GenericCustomNamespace/1.0/">
	<!ENTITY ns_adobe_xpath "http://ns.adobe.com/XPath/1.0/">
]>
<svg version="1.1" id="레이어_1" xmlns:x="&ns_extend;" xmlns:i="&ns_ai;" xmlns:graph="&ns_graphs;"
	 xmlns="http://www.w3.org/2000/svg" xmlns:xlink="http://www.w3.org/1999/xlink" xmlns:a="http://ns.adobe.com/AdobeSVGViewerExtensions/3.0/"
	 x="0px" y="0px" viewBox="0 0 205 351" style="enable-background:new 0 0 205 351;" xml:space="preserve">
<metadata>
	<sfw  xmlns="&ns_sfw;">
		<slices></slices>
		<sliceSourceBounds  bottomLeftOrigin="true" height="350" width="204.2" x="0.9" y="-350.5"></sliceSourceBounds>
	</sfw>
</metadata>
<g>
	<g>
		<path style="fill:#FFFFFF;" d="M144.4,287.7c-9.8-15.5-20.5-31.8-34.4-45.9l0,0c-4.4-4.4-10.1-3.3-13.5,0.1
			c-3.4,3.4-4.7,9.5-0.2,14c12.9,13,23,28.5,31.4,41.9l1.8,2.9l3-1.7c2.9-1.6,6.5-3.7,10.7-6.3l3.2-1.9L144.4,287.7z"/>
	</g>
	<path style="fill-rule:evenodd;clip-rule:evenodd;fill:#0099DA;" d="M196.9,307.6c-7.2-4.1-16.1-4.7-23.9-1.7c0,0-0.4,0.1-0.4,0.2
		c-7.4,3.1-10.2,6.2-11.3,8c-4.9-7.3-9.7-14.8-14.3-22.1l-4.5-7.1l-3,1.8c-4.2,2.5-7.8,4.6-10.6,6.2l-3.2,1.9l2,3.2
		c2.1,3.4,8.2,13.3,14.1,22.9c2.3,3.8,4.6,7.5,6.6,10.8l0,0l10.2,17c2.1,3.1,8.6,2.3,11.7,0.3l3.8-2.6l17.8-11.8
		c5.3-3.5,12.1-7,13.1-14.1C205.7,315.4,200.9,309.8,196.9,307.6z"/>
</g>
<g>
	<path style="fill:#FFFFFF;" d="M79.7,219.2c-3.1-1.7-7.2-1.6-10.3,0.3c-3,1.8-4.7,4.9-4.7,8.6v0c0.3,16.1-5.6,31-17.4,44.3
		l-2.3,2.5l13.8,13.6l2.5-2.8c15.6-17.2,23.3-36.9,23-58.6C84.2,223.7,82.5,220.8,79.7,219.2z"/>
	<path style="fill-rule:evenodd;clip-rule:evenodd;fill:#0099DA;" d="M49.7,269.5l-2.5,2.8c-5.1,5.7-16,13.4-22.7,18l-14.4,6.5
		c-3.4,1.5-3.7,8.1-2.2,11.5l1.9,4.2l8.7,19.5c2.6,5.8,4.9,13.1,11.8,15.2c4.7,1.4,11-2.4,13.8-5.9c5.2-6.5,7.3-15.2,5.6-23.3
		c0,0-0.1-0.4-0.1-0.5c-2.5-10.5-7.9-13.2-9.2-13.8c8-5.5,15.1-11.6,20.9-18l2.3-2.6L49.7,269.5z"/>
</g>
<g>
	<path style="fill:#FFFFFF;" d="M141.5,186.6c-10.1-3.2-18.8-8.7-28.1-14.3c-4.1-2.5-19.1-11.9-20.6-1.4c-0.6,3.8,3.4,7.9,5.5,10.5
		c4.7,5.8,10.2,10.9,16.2,15.1c6.8,4.7,14.1,8.2,21.8,10.8C136.7,201.6,138.1,194.1,141.5,186.6z"/>
	<path style="fill:#0083BB;" d="M178.3,188.2c-0.1,0-0.3,0.1-0.4,0.1c-3.4,0.7-6.7,1.2-9.8,1.5c-4.5,0.4-8.9,0.3-13.5-0.3
		c-2.3-0.3-4.6-0.7-6.9-1.2c-2.1-0.5-4.2-1.1-6.2-1.7c-3.4,7.5-4.8,15-5.3,20.7c3.7,1.3,7.5,2.3,11.3,3.1
		c10.9,2.3,23.6,4.2,34.8,1.8c5.4-1.2,10.3-5.3,11.9-11c0.3-1.2,0.5-2.4,0.6-3.5c0.3-4-1.1-8.1-4.4-10c-0.7-0.4-1.4-0.6-2.1-0.8
		C185.1,186.2,181.6,187.5,178.3,188.2z"/>
</g>
<g>
	<g>
		<path style="fill:#FFFFFF;" d="M105,1.3c-3.2,0.9-6,2.7-8.1,5.6c-3.5,4.9-6.2,14.2-4.3,20.3c0.6,2.1,2.9,0.9,5.4,0.7
			c2.9-0.3,2.4-3.4,4.8-6.1c3.4-3.9,6.2,0.8,11,5.7c3.9,4,10.1,3.8,13.8-0.5c3.7-4.3,3.6-11-0.3-15C119.7,4.2,114.8-1.6,105,1.3z"/>
		<path style="fill:#6B2F1A;" d="M111.9,20.6c0.7-0.3,1.5-0.2,2.2,0c-0.9-0.5-1.6-1.3-1.9-2.5c-0.7-2.2,0.5-4.6,2.5-5.4
			c1-0.3,1.9-0.2,2.8,0.2c-0.8-0.5-1.4-1.3-1.7-2.3c-0.7-2.2,1.1-4.6,3.1-5.3c0.2-0.1,1,0,1.2,0c4.4,3,6.2,5.9,6.9,6.6
			c3.9,4,4,10.7,0.3,15c-3.7,4.3-9.9,4.5-13.8,0.5c-1.2-1.2-3.4-3.5-4.1-4.2C108.6,22.2,110.5,21.1,111.9,20.6"/>
	</g>
</g>
<g>
	<path style="fill:#0099DA;" d="M83.7,274.7C83.6,274.7,83.8,274.7,83.7,274.7L83.7,274.7z"/>
	<path style="fill:#0099DA;" d="M176.1,87.1c-0.3-1.1-0.5-2.3-0.8-3.4c-0.2-1.2-0.5-2.3-0.8-3.5c-3.5-14.2-10.9-29.6-22.6-38.6
		C136.8,30,117.2,21.3,98.3,21.7l-6.1,0.1c-0.2,0-0.3,0-0.3,0C72.9,22.1,53.6,31.4,39,43.6C27.6,53,20.7,68.7,17.7,83
		c-2.8,13.5-2.6,27.1,0.4,40.2c1,5.8,2.5,11.6,4.6,17.5c0.7,2,1.4,4,1.9,6c0.1,0.9,0.1,1.9,0.2,2.8c0.1,4.5-1.9,8.8-3,13.2
		c-2.9,11.2-7.1,22.2-8.6,33.7c-1.9,14.8,0.3,34.9,8.6,47.5c11.5,17.4,33.1,26.5,53,29.7c2.9,0.5,5.9,0.8,8.9,1l5.9,0.4
		c0.1,0,0.2,0,0.3,0c2.9,0.2,5.9,0.3,8.8,0.3c24.4-0.1,49.5-7.1,61.5-30.2c8.8-17,9.5-36.1,7.9-54.8c-0.8-10-5.3-22.7-2.5-32.6
		c0,0,0,0,0,0l0.3-0.1c0.2-0.9,0.5-1.9,0.8-2.9c0.3-0.6,0.6-1.3,0.9-1.9l-0.2,0c1.8-5,4.7-11.1,5.9-14.7
		C179.1,121.7,180,104.3,176.1,87.1z"/>
	<path style="fill:#0099DA;" d="M98.3,21.7c0,0-0.1,0-0.3,0L98.3,21.7z"/>
</g>
<path style="fill-rule:evenodd;clip-rule:evenodd;fill:#FFFFFF;" d="M174.4,79.6c-0.2-2.2-0.9-8.3-1.2-10.2c-1-5-2.5-10-4.8-14.4
	c-5.1-10.1-15.4-17.5-24.7-21.8c-5.7-2.7-10.9-4.2-17.3-5.1c-7.9-1.1-11.2-1.1-18.9,1.2c-9.1,2.7-10.4,10.2-15.2,22
	c-3.2,7.9-4.4,12.2-5.3,21l0.2,0c-0.2,1.6-1,6.8-0.1,20.1c0.5,7.9,2.1,21.2,4.6,28.6c2.3,6.8,7.4,31.2,24.3,31.5
	c11,0.2,13.5,0.4,24.5-0.2c2.4-0.1,4.7-0.2,7.1-0.4c16.9-0.9,35.1-9.2,42.4-28.2c2.8-7.3,4-15.7,2.8-23.5c-0.8-5-1.7-6.9-4-11.3
	c-2.6-5-5.7-7.3-15-9.3"/>
<g>
	<g>
		<path style="fill-rule:evenodd;clip-rule:evenodd;" d="M192.9,90.8c0,1.5-0.3,2.6-1.7,2.7c-1.4,0-3.1-1.4-3.1-2.8
			c0-1.4,0.8-2.4,2.2-2.4C191.8,88.2,192.9,89.3,192.9,90.8"/>
		<g>
			<path style="fill-rule:evenodd;clip-rule:evenodd;" d="M168.2,89.7L168.2,89.7c-1.9,0.2-3.6-1.7-3.8-4.1l0-0.6
				c-0.2-2.4,0.6-4.6,3.2-4.6c1.9,0,3,2,3.2,4.4l0,0.6C171,87.8,170.2,89.6,168.2,89.7"/>
		</g>
	</g>
	
		<path style="fill-rule:evenodd;clip-rule:evenodd;fill:none;stroke:#251714;stroke-width:3.4415;stroke-linecap:round;stroke-linejoin:round;stroke-miterlimit:10;" d="
		M192.4,105.2c-4.1,4.3-12.7,6.1-18.2,1.8c-1.4-1.1-4-3.5-2.8-5"/>
</g>
<path style="fill-rule:evenodd;clip-rule:evenodd;fill:#F5B6B5;" d="M159.8,105.2c0.2,11.1-8.2,20.3-18.8,20.5
	c-10.5,0.2-19.3-8.7-19.5-19.8c-0.2-11.1,8.2-20.3,18.8-20.5C150.9,85.2,159.6,94.1,159.8,105.2"/>
<g>
	<g>
		<path style="fill:#FFFFFF;" d="M66,1.7c4.7,0.8,9,2.8,12.3,6.4c5.7,6.1,8.1,15.1,6.2,23.6c-0.7,3-3.9,3.6-7.5,3.7
			c-4.2,0.1-3.8-3.1-7.6-6.4c-5.3-4.7-6.6,1.9-12.9,9.2c-5.1,5.9-13.9,6.5-19.7,1.3c-5.8-5.3-6.5-14.3-1.4-20.3
			C45.2,7.6,51.7-0.9,66,1.7z"/>
		<path style="fill:#6B2F1A;" d="M58.3,28.6c-1.1-0.3-2.2-0.1-3.2,0.3c1.2-0.8,2.1-2,2.4-3.6c0.6-3.1-1.3-6.2-4.3-6.9
			c-1.4-0.3-2.8,0-3.9,0.7c1-0.8,1.8-1.9,2.1-3.3c0.6-3.1-2.1-6-5.2-6.7c-0.3-0.1-1.5,0.1-1.8,0.1c-5.9,4.6-8.1,8.8-9,9.8
			c-5,6-4.4,15,1.4,20.3c5.8,5.2,14.7,4.7,19.7-1.3c1.5-1.7,4.4-5.2,5.3-6.3C63.2,30.4,60.3,29.1,58.3,28.6"/>
	</g>
</g>
<g>
	<path style="fill:#FFFFFF;" d="M53.7,190.6c10.1-4.8,20.6-7,31.9-9.5c5-1.1,23.2-4.8,16.8-13.9c-2.3-3.3-8.3-3.6-11.9-4
		c-7.8-1.1-15.7-0.9-23.3,0.3c-8.6,1.3-16.8,4-24.6,7.6C46.5,175.6,50.8,182.4,53.7,190.6z"/>
	<path style="fill:#0083BB;" d="M24.4,216.2c0.1-0.1,0.2-0.2,0.2-0.3c2.1-3.1,4.2-5.8,6.4-8.3c3.2-3.6,6.6-6.7,10.5-9.6
		c1.9-1.4,4-2.8,6.2-4.1c2-1.2,4-2.2,6-3.2c-2.9-8.2-7.2-14.9-11-19.6c-3.8,1.7-7.4,3.7-10.9,5.9c-10.1,6.2-21.2,14-27.9,24
		c-3.3,4.9-4,11.5-1,17.1c0.6,1.2,1.3,2.2,2.1,3.1c2.7,3.2,6.7,5.4,10.7,4.4c0.8-0.2,1.5-0.5,2.1-0.9
		C20.7,222.7,22.4,219.1,24.4,216.2z"/>
</g>
</svg>
