<?xml version="1.0" encoding="utf-8"?>
<!-- Generator: Adobe Illustrator 26.0.3, SVG Export Plug-In . SVG Version: 6.00 Build 0)  -->
<svg version="1.1" id="레이어_1" xmlns="http://www.w3.org/2000/svg" xmlns:xlink="http://www.w3.org/1999/xlink" x="0px"
	 y="0px" viewBox="0 0 390 390" style="enable-background:new 0 0 390 390;" xml:space="preserve">
<style type="text/css">
	.st0{fill:#00A200;}
	.st1{fill:#006600;}
	.st2{fill:#FF7C00;}
	.st3{fill:#FFCE00;}
	.st4{fill:#00B839;}
	.st5{fill:#2F8BFF;}
	.st6{fill:#FFFFFF;}
	.st7{fill:#FF0000;}
	.st8{fill:#FFF6C9;}
	.st9{fill-rule:evenodd;clip-rule:evenodd;}
	.st10{fill:none;}
	.st11{fill:#A90718;}
</style>
<g>
	<g>
		<g>
			<path d="M199.2,59.8c-1.2-12.6-2.2-30,11.4-36.7c2.2-1.1,0.3-4.3-1.9-3.3c-6.1,3-10.2,8.9-12.2,15.3c-2.5,8-1.8,16.5-1,24.7
				C195.7,62.2,199.4,62.2,199.2,59.8L199.2,59.8z"/>
		</g>
	</g>
	<g>
		<path class="st0" d="M221.9,23.3c2-1.8,3.7-3.9,4.8-6.3c0.8-2,1.2-4.2,0.5-6.2c-1-2.5-3.7-4.1-6.5-4.2c-2.7-0.2-5.4,0.8-7.8,2
			c-3.8,1.9-7.4,4.6-9.7,8.2c-1.7,2.6-2.6,5.7-2.6,8.7c0.1,3.2,1.1,4,4.1,4.1C211,29.7,217.3,27.4,221.9,23.3z"/>
		<path d="M205.3,31.3c-0.2,0-0.4,0-0.6,0c-4.1-0.1-5.8-1.8-5.9-5.8c-0.1-3.3,1-6.8,2.9-9.7c2.3-3.6,5.8-6.6,10.4-8.9
			c3.3-1.7,6.1-2.4,8.7-2.2c3.7,0.2,6.8,2.3,8,5.4c0.9,2.2,0.7,4.9-0.5,7.6c-1.1,2.5-2.8,4.9-5.3,7
			C218.3,28.9,211.8,31.3,205.3,31.3z M220,8.3c-1.8,0-3.9,0.6-6.3,1.8c-4,2-7,4.6-9,7.6c-1.5,2.4-2.4,5.1-2.3,7.7
			c0,2.1,0.2,2.2,2.4,2.3c5.8,0.2,11.6-2,15.9-5.8l0,0c2-1.8,3.5-3.7,4.3-5.7c0.5-1.1,1.1-3.1,0.4-4.8c-0.8-2-3-3-4.9-3.1
			C220.4,8.3,220.2,8.3,220,8.3z"/>
	</g>
	<g>
		<path class="st1" d="M205.9,25.6c-0.3,0-0.7-0.1-1-0.3c-0.8-0.6-1-1.7-0.5-2.5c0.3-0.4,7-10.3,16.5-12.2c1-0.2,1.9,0.4,2.1,1.4
			c0.2,1-0.4,1.9-1.4,2.1c-8,1.6-14.1,10.5-14.2,10.6C207,25.3,206.5,25.6,205.9,25.6z"/>
	</g>
</g>
<g>
	<g>
		<rect x="160.8" y="274.4" class="st2" width="20.5" height="87.9"/>
		<path d="M183.1,364.1H159v-91.5h24.2L183.1,364.1L183.1,364.1z M162.6,360.5h16.9v-84.2h-16.9V360.5z"/>
	</g>
	<g>
		<path class="st2" d="M189.9,357.1c0-14.4-12.1-25.9-26.7-25c-13.3,0.9-23.4,12.5-23.4,25.8l0,0c0,7.1,5.8,12.9,12.9,12.9h24.2
			c7.1,0,12.9-5.8,12.9-12.9v-0.8H189.9z"/>
		<path d="M176.9,372.7h-24.2c-8.1,0-14.7-6.6-14.7-14.7c0-14.6,11-26.7,25.1-27.6c7.5-0.5,14.7,2.1,20.1,7.2
			c5.4,5.1,8.5,12.2,8.5,19.6v0.9C191.7,366.1,185.1,372.7,176.9,372.7z M164.8,333.9c-0.5,0-1,0-1.6,0.1
			c-12.2,0.8-21.7,11.3-21.7,24c0,6.1,5,11.1,11.1,11.1h24.2c6.1,0,11.1-5,11.1-11.1v-0.9c0-6.5-2.6-12.5-7.3-16.9
			C176.4,336.1,170.8,333.9,164.8,333.9z"/>
	</g>
</g>
<g>
	<g>
		<rect x="208" y="272.8" class="st2" width="20.5" height="88.1"/>
		<path d="M230.4,362.7h-24.2V271h24.2V362.7z M209.8,359h16.9v-84.5h-16.9V359z"/>
	</g>
	<g>
		<path class="st2" d="M249.2,357.1c0-14.4-12.1-25.9-26.7-25c-13.3,0.9-23.4,12.5-23.4,25.8l0,0c0,7.1,5.8,12.9,12.9,12.9h24.2
			c7.1,0,12.9-5.8,12.9-12.9v-0.8H249.2z"/>
		<path d="M236.2,372.7H212c-8.1,0-14.7-6.6-14.7-14.7c0-14.6,11-26.7,25.1-27.6c7.5-0.5,14.7,2.1,20.1,7.2
			c5.4,5.1,8.5,12.2,8.5,19.6v0.9C251,366.1,244.4,372.7,236.2,372.7z M224.2,333.9c-0.5,0-1,0-1.6,0.1c-12.2,0.8-21.7,11.3-21.7,24
			c0,6.1,5,11.1,11.1,11.1h24.2c6.1,0,11.1-5,11.1-11.1v-0.9c0-6.5-2.6-12.5-7.3-16.9C235.7,336.1,230.1,333.9,224.2,333.9z"/>
	</g>
</g>
<g>
	<path class="st3" d="M139.7,191c-4.1-3.9-10.3-4.6-16-4.7c-14.5-0.3-29.1,1.7-43,5.9c-6.3,1.9-13.1,5-15.2,11.1
		c-1.7,5.2,0.5,10.9,3.6,15.4c9.5,14.1,27.1,22.2,44,20.3"/>
	<path d="M108.2,241.2c-15.9,0-31.7-8.2-40.5-21.4c-2.9-4.3-5.9-10.8-3.8-17c2.5-7.3,10.5-10.5,16.4-12.3c14.1-4.3,28.8-6.3,43.5-6
		c5.9,0.1,12.6,0.8,17.2,5.2c0.7,0.7,0.8,1.8,0.1,2.6c-0.7,0.7-1.8,0.8-2.6,0.1c-3.7-3.5-9.6-4.1-14.8-4.2
		c-14.4-0.3-28.6,1.7-42.4,5.8c-8.1,2.4-12.5,5.6-14,10c-1.6,4.9,0.9,10.2,3.4,13.8c9.1,13.5,26.1,21.4,42.3,19.5
		c1-0.1,1.9,0.6,2,1.6s-0.6,1.9-1.6,2C111.7,241.1,109.9,241.2,108.2,241.2z"/>
</g>
<g>
	<path class="st3" d="M253.8,191c4.1-3.9,10.3-4.6,16-4.7c14.5-0.3,29.1,1.7,43,5.9c6.3,1.9,13.1,5,15.2,11.1
		c1.7,5.2-0.5,10.9-3.6,15.4c-9.5,14.1-27.1,22.2-44,20.3"/>
	<path d="M285.3,241.2c-1.7,0-3.5-0.1-5.2-0.3c-1-0.1-1.7-1-1.6-2s1.1-1.7,2-1.6c16.2,1.9,33.2-6,42.3-19.5c2.4-3.6,5-9,3.4-13.8
		c-1.5-4.4-5.9-7.5-14-10c-13.8-4.2-28-6.2-42.4-5.8c-5.2,0.1-11.1,0.7-14.8,4.2c-0.7,0.7-1.9,0.7-2.6-0.1c-0.7-0.7-0.6-1.9,0.1-2.6
		c4.6-4.3,11.3-5.1,17.2-5.2c14.7-0.3,29.4,1.7,43.5,6c5.8,1.8,13.9,5,16.4,12.3c2.1,6.3-0.9,12.7-3.8,17
		C317,233,301.2,241.2,285.3,241.2z"/>
</g>
<g>
	<g>
		<path class="st3" d="M197.7,305.4c-12.2,0-22.2-1.1-31.4-3.4c-14.5-3.6-26.7-10.5-35.3-19.8c-14.6-15.9-20.2-41.3-14.9-67.9
			c0.4-2.3,1-4.5,1.5-6.8c1.5-6.5,3-13.1,2.8-19.7c-0.2-7.5-2.5-14.6-5-22.1c-1-3.2-2.1-6.5-3-9.7c-6.2-23-3.2-47.6,8.2-67.3
			c14.2-24.7,42.8-40.1,74.5-40.1c25.2,0,48.7,9.7,64.5,26.5c18,19.2,25.4,48.6,19.3,76.7c-0.7,3.4-1.7,6.9-2.6,10.2
			c-1.6,6-3.4,12.2-3.9,18.5c-0.4,4.9-0.2,10.2,0.8,16.6c0.7,4.6,1.7,9.3,2.6,13.8c0.8,3.9,1.7,8,2.4,12c4.5,27.1-1.3,50.6-16,64.6
			c-15.3,14.6-37.7,17.2-55.5,17.8C203.6,305.3,200.6,305.4,197.7,305.4z"/>
	</g>
	<g>
		<path d="M195,50.4c23.4,0,46.9,8.6,63.2,25.9c18.4,19.6,24.6,48.9,18.9,75.1c-2.1,9.7-5.7,19.1-6.5,28.9c-0.5,5.7-0.1,11.4,0.8,17
			c1.3,8.6,3.6,17.2,5,25.8c3.7,22.2,0.9,47.4-15.4,63c-14.1,13.4-34.9,16.6-54.4,17.3c-2.9,0.1-5.9,0.2-8.8,0.2
			c-10.4,0-20.8-0.8-30.9-3.3c-12.9-3.2-25.4-9.5-34.4-19.3c-15.9-17.3-19-43.3-14.5-66.3c1.8-8.9,4.6-17.8,4.3-26.9
			c-0.3-11.1-5.1-21.5-8-32.2c-5.9-21.9-3.4-46.2,8-65.9C137.1,63.6,166,50.4,195,50.4 M195,46.8c-32.4,0-61.5,15.7-76,41
			c-11.6,20.1-14.6,45.2-8.3,68.7c0.9,3.3,2,6.6,3,9.8c2.4,7.4,4.7,14.3,4.9,21.6c0.2,6.4-1.2,12.6-2.7,19.3c-0.5,2.3-1,4.6-1.5,6.9
			c-5.4,27.2,0.4,53.2,15.4,69.5c8.8,9.6,21.4,16.6,36.2,20.3c9.2,2.3,19.6,3.4,31.8,3.4c2.8,0,5.8-0.1,9-0.2
			c18.1-0.7,41-3.3,56.7-18.3c15.1-14.4,21.1-38.5,16.5-66.2c-0.7-4-1.5-8.1-2.4-12c-1-4.5-1.9-9.2-2.6-13.7
			c-0.9-6.2-1.2-11.3-0.8-16.1c0.5-6.1,2.1-11.9,3.8-18.1c0.9-3.4,1.9-6.8,2.6-10.3c6.2-28.7-1.3-58.8-19.8-78.4
			C244.7,56.6,220.7,46.8,195,46.8L195,46.8z"/>
	</g>
</g>
<g>
	<g>
		<path class="st4" d="M116.9,173.6c0,0,88.8,74.7,161.6,81.6c0,0-0.9,13.7-4.6,19.2c0,0-110.1-27.6-157.9-83.1L116.9,173.6z"/>
		<path d="M273.9,276.2c-0.1,0-0.3,0-0.4-0.1c-1.1-0.3-111.2-28.4-158.8-83.7c-0.3-0.4-0.5-0.8-0.4-1.3l0.9-17.7
			c0-0.7,0.5-1.3,1.1-1.6s1.4-0.2,1.9,0.3c0.9,0.7,89.3,74.5,160.6,81.2c1,0.1,1.7,0.9,1.6,1.9c0,0.6-1,14.3-4.9,20.1
			C275,275.9,274.5,276.2,273.9,276.2z M117.8,190.7c44.3,50.8,142.6,78.3,155.2,81.6c2-4,3.1-11.3,3.5-15.5
			c-64.9-7.1-142.5-67-158-79.5L117.8,190.7z"/>
	</g>
	<g>
		<path class="st5" d="M286.9,251.7c1.7,0,3.4,0,4.9,0.7c2,0.8,3.4,2.6,4.4,4.5c3.7,7,2.6,15.6,0.9,23.4c-1.5,6.8-3.5,13.7-7.2,19.7
			s-9.3,11-16.1,12.7s-14.8-0.5-18.8-6.3c-2.7-3.8-3.4-8.7-3.5-13.4c-0.4-12.6,2.9-25.8,11.2-35.3
			C269.4,250,277.6,251.7,286.9,251.7z"/>
		<path d="M269.2,315c-6.3,0-12.3-2.8-15.6-7.6c-3.1-4.5-3.7-10-3.8-14.4c-0.4-14.4,3.7-27.4,11.6-36.5c6.2-7.1,13.5-6.9,21.3-6.7
			c1.4,0,2.8,0.1,4.2,0.1c1.7,0,3.7,0,5.6,0.8c2.1,0.9,3.9,2.7,5.3,5.3c4.1,7.6,2.8,16.8,1.1,24.7c-1.4,6.4-3.4,13.8-7.4,20.2
			c-4.3,7-10.5,11.8-17.2,13.5C272.6,314.8,270.9,315,269.2,315z M278.6,253.3c-5.7,0-10.4,0.8-14.5,5.5c-7.3,8.5-11.2,20.6-10.8,34
			c0.1,3.8,0.6,8.7,3.2,12.4c3.3,4.8,10.4,7.1,16.8,5.5c5.7-1.4,11.2-5.8,15-11.9c3.7-6,5.6-13,6.9-19.1c1.6-7.3,2.8-15.6-0.7-22.2
			c-1-1.9-2.2-3.1-3.5-3.7c-1.2-0.5-2.8-0.5-4.2-0.5l0,0c-1.5,0-2.9,0-4.3-0.1C281.2,253.4,279.9,253.3,278.6,253.3z"/>
	</g>
	<g>
		<path class="st6" d="M283.9,265.7c-3.8-0.4-10.2-2-13.2-0.6c-2.1,0.9-3.6,5.6-0.6,6.3c7.5,1.8,15.4,2,23.1,1.5
			c2.9-0.2,6.9-2.6,3.4-5.1c-2.8-2-8.6-1.8-11.8-2C284.6,265.7,284.3,265.7,283.9,265.7z"/>
		<path d="M286,274.9c-6,0-11.4-0.6-16.4-1.8c-1.7-0.4-2.9-1.7-3-3.6c-0.2-2.4,1.3-5.3,3.3-6.2c2.8-1.3,7.4-0.6,11.4,0.1
			c1,0.2,2,0.3,2.8,0.4c0.3,0,0.6,0.1,0.8,0.1c0.5,0,1.2,0.1,1.9,0.1c3.6,0.1,8.1,0.3,10.8,2.2c2.3,1.7,2.3,3.5,2,4.4
			c-0.7,2.3-3.8,3.8-6.3,4C290.8,274.8,288.4,274.9,286,274.9z M274.1,266.3c-1.1,0-2,0.1-2.6,0.4c-0.5,0.2-1.3,1.6-1.2,2.5
			c0,0.3,0.1,0.3,0.3,0.4c6.6,1.6,14,2,22.6,1.4c1.5-0.1,2.9-0.9,3.1-1.3c0,0.1-0.2-0.2-0.6-0.5c-1.8-1.3-6.1-1.5-8.9-1.6
			c-0.7,0-1.4-0.1-2-0.1c-0.3,0-0.6-0.1-1-0.1l0,0c-0.9-0.1-1.9-0.3-3-0.4C278.7,266.7,276.1,266.3,274.1,266.3z"/>
	</g>
	<g>
		<path class="st5" d="M297,269.3c-0.4,0-0.9-0.1-1.2,0.2c-0.2,0.2-0.3,0.6-0.3,0.9c-0.6,6-0.4,12.1,0.5,18.1
			c0.1,0.7,0.3,1.4,0.8,1.8c0.4,0.3,0.9,0.3,1.4,0.3c1.2,0,2.4,0,3.6,0c0.8,0,1.6,0,2.3-0.4c1.5-0.9,1.5-3,1.2-4.6
			c-0.6-4-1.4-7.8-2.6-11.7C301.7,270.1,301.2,269.7,297,269.3z"/>
		<path d="M302.2,292.5c-0.1,0-0.2,0-0.3,0h-3.6c-0.6,0-1.5,0-2.4-0.6c-1.3-0.9-1.5-2.3-1.6-3.1c-0.9-6.1-1.1-12.4-0.5-18.5
			c0-0.4,0.1-1.3,0.9-2c0.9-0.9,2.2-0.8,2.6-0.7l0,0c4.9,0.5,6.1,1.5,7.4,6c1.2,4,2,8,2.6,11.9c0.5,3.2-0.2,5.4-2.1,6.5
			C304.1,292.5,303,292.5,302.2,292.5z M297.3,271.2c-0.5,5.8-0.3,11.5,0.5,17.1c0.1,0.3,0.1,0.5,0.1,0.6c0-0.1,0.2-0.1,0.3-0.1h3.6
			c0.5,0,1.1,0,1.4-0.2s0.6-1,0.3-2.8c-0.5-3.7-1.4-7.6-2.5-11.4C300.3,271.6,300.2,271.5,297.3,271.2z"/>
	</g>
</g>
<g>
	<path class="st3" d="M177,52.1c0,0,6.5-16.1,17.5-12.5c14.6,4.7,17.6-5.4,17.6-5.4s4.8,17.9-11.2,24.6"/>
	<path d="M200.9,60.6c-0.7,0-1.4-0.4-1.7-1.1c-0.4-0.9,0.1-2,1-2.4c9.8-4.1,11-12.7,10.8-18c-0.7,0.7-1.6,1.4-2.7,2
		c-3.8,2-8.6,2.1-14.3,0.2c-9.3-3-15.2,11.4-15.3,11.5c-0.4,0.9-1.4,1.4-2.4,1c-0.9-0.4-1.4-1.4-1-2.4c0.3-0.7,7.3-17.6,19.8-13.6
		c4.8,1.5,8.6,1.6,11.5,0.1c3-1.5,3.8-4.2,3.8-4.3c0.2-0.8,1-1.3,1.8-1.3s1.5,0.6,1.7,1.3c0.1,0.2,5,19.5-12.2,26.8
		C201.4,60.6,201.1,60.6,200.9,60.6z"/>
</g>
<g>
	<g>
		<path class="st7" d="M229,66.6c-1.9,0.1-4,0-5.7-0.9c-0.1,2.2,0.1,6,0.5,8.1c0.1,0.4,0.2,0.8,0.4,1.2c0.3,0.3,0.7,0.5,1.2,0.6
			c5.6,1.6,11.7,1,16.9-1.6c4.8-2.4,9.8-7.3,11.2-12.6c-2.3-1.6-4.2-3.5-6.3-5.5c-1.3,2.8-2.4,5.8-5,7.7
			C238.3,66.2,233.7,66.2,229,66.6z"/>
		<path d="M231.7,78.2c-2.3,0-4.6-0.3-6.8-0.9c-0.5-0.1-1.4-0.4-2-1.2c-0.6-0.7-0.8-1.6-0.9-2c-0.4-2.2-0.6-6.1-0.5-8.5
			c0-0.6,0.4-1.2,0.9-1.5c0.6-0.3,1.2-0.3,1.8,0c1.1,0.6,2.6,0.9,4.7,0.7l0,0l1.4-0.1c4-0.2,7.8-0.5,10.9-2.7
			c1.8-1.3,2.7-3.4,3.7-5.6l0.6-1.4c0.2-0.5,0.7-0.9,1.3-1s1.2,0.1,1.6,0.5l0.9,0.9c1.7,1.6,3.3,3.1,5.1,4.4
			c0.6,0.4,0.9,1.2,0.7,1.9c-1.6,6.5-7.5,11.5-12.1,13.8C239.6,77.3,235.7,78.2,231.7,78.2z M225.6,73.7c0,0,0.1,0,0.3,0.1
			c5.1,1.5,10.8,0.9,15.6-1.5c3.9-2,8.2-5.8,9.9-10.3c-1.3-1-2.4-2-3.6-3.1c-1,2.2-2.3,4.5-4.5,6.1c-3.9,2.8-8.4,3-12.8,3.3
			l-1.4,0.1c-1.1,0.1-2.5,0.1-4-0.2c0.1,1.9,0.2,4,0.5,5.2C225.6,73.6,225.6,73.6,225.6,73.7L225.6,73.7z"/>
	</g>
	<g>
		<path class="st7" d="M254.4,83.5c0.4,6.6,4.6,13.1,10.8,15.4c2.1-1.8,5.7-6.1,5.7-6.1s-3.7-1.6-4.4-3.4s-0.9-3.8-0.9-5.8
			c-0.1-4.4,3.1-12.5,3.1-12.5s-4-4-5.9-4.8c-2.4-1-3.5,1.5-4.8,3.7C255.5,74.1,254.1,78.8,254.4,83.5z"/>
		<path d="M265.2,100.8c-0.2,0-0.4,0-0.6-0.1c-6.6-2.5-11.4-9.4-12-17l0,0c-0.3-4.9,1-9.9,3.8-14.5l0.4-0.7c1.1-2,3-5.2,6.6-3.7
			c2.2,0.9,5.8,4.5,6.5,5.2c0.5,0.5,0.7,1.3,0.4,1.9c-0.8,2.2-3,8.5-2.9,11.8c0.1,1.8,0.1,3.6,0.8,5.1c0.3,0.7,2.1,1.8,3.5,2.4
			c0.5,0.2,0.9,0.7,1,1.2c0.1,0.6,0,1.1-0.4,1.6c-0.1,0.2-3.7,4.5-5.9,6.4C266.1,100.6,265.7,100.8,265.2,100.8z M256.3,83.4
			c0.4,5.8,3.9,11.1,8.6,13.4c1.1-1,2.3-2.4,3.2-3.5c-1.3-0.8-2.7-1.9-3.3-3.2c-0.9-2.2-1-4.4-1.1-6.5c-0.1-3.8,1.9-9.6,2.8-12.1
			c-1.5-1.5-3.6-3.2-4.5-3.6c-0.4-0.2-0.7-0.2-2.1,2.2l-0.4,0.8C257.1,75,256,79.3,256.3,83.4L256.3,83.4z"/>
	</g>
	<g>
		<path class="st7" d="M241.3,85.4c-6.1-3.5-14.5-2.9-19.8,1.8c1.4,2.1,2.8,4.2,4.3,6.3c0.2,0.3,0.5,0.7,0.9,0.8
			c0.3,0.1,0.7-0.1,1-0.2c2.8-1.4,6.5-2.7,9-0.7c1.2,1,1.8,2.7,2,4.3c0.3,2.6-1.2,7.7-1.2,7.7s6.8,2.5,7.5,2.6
			c1.9,0.3,3.2,0.6,4-1.1c1.4-3.5,1.7-8.8,0.4-12.4C247.9,90.7,244.7,87.4,241.3,85.4z"/>
		<path d="M246.8,110c-0.7,0-1.4-0.1-2-0.2c-1-0.2-4.9-1.5-8.1-2.7c-0.9-0.3-1.4-1.3-1.1-2.2c0.5-1.8,1.3-5.4,1.1-7
			c-0.1-1-0.5-2.4-1.3-3.2c-1.3-1.1-3.6-0.8-7,0.9c-0.4,0.2-1.2,0.6-2.1,0.4c-1.2-0.2-1.8-1.1-2-1.5l-4.3-6.3
			c-0.5-0.8-0.4-1.8,0.3-2.4c5.8-5.1,15-5.9,21.9-2l0,0c4,2.3,7.3,6.1,8.8,10c1.4,3.8,1.2,9.6-0.4,13.7
			C249.7,109.5,248.2,110,246.8,110z M239.5,104.2c2.7,0.9,5.2,1.8,5.7,1.9c0.8,0.1,1.6,0.3,1.8,0.2c1.4-3.5,1.6-8.2,0.5-11.3
			c-1.1-3.1-3.9-6.2-7.1-8.1l0,0c-5.1-2.9-11.8-2.6-16.4,0.6l3.2,4.7c2.3-1.1,7.2-3.2,10.6-0.3c1.4,1.2,2.3,3.1,2.6,5.5
			C240.6,99.5,240,102.4,239.5,104.2z"/>
	</g>
</g>
<g>
	<path class="st8" d="M88.9,126.7h8.3v13.7l-11.8-3.5c0,0,5.8,13.9-7.4,11.1c-8.2-1.7-5.4-8.9-5.4-8.9s-12.9,2-10.9-11.8
		c1.2-8.3,11.4-5.6,11.4-5.6s0-6.9,9.4-7.1C88,114.5,93.5,124.1,88.9,126.7z"/>
	<path d="M81.2,150.1c-1.1,0-2.3-0.1-3.6-0.4c-3.1-0.7-5.2-2.1-6.4-4.2c-0.8-1.6-1-3.2-0.9-4.5c-2.2-0.1-5.4-0.7-7.8-3
		c-2.5-2.4-3.4-6.1-2.6-11c0.4-2.7,1.6-4.7,3.6-6c2.7-1.8,6.1-1.7,8.1-1.5c0.8-2.6,3.2-6.6,10.8-6.8c4.3,0,8.5,4.3,9.7,8.5
		c0.4,1.3,0.4,2.5,0.2,3.6h4.9c1,0,1.8,0.8,1.8,1.8v13.7c0,0.6-0.3,1.1-0.7,1.5c-0.5,0.3-1.1,0.4-1.6,0.3l-8.6-2.5
		c0.5,2.5,0.7,5.9-1.2,8.2C85.7,149.4,83.7,150.1,81.2,150.1z M72.6,137.2c0.5,0,1.1,0.2,1.4,0.7c0.4,0.5,0.5,1.2,0.3,1.8
		c0,0-0.8,2.3,0.1,4.1c0.6,1.2,2,2,3.9,2.4c2,0.4,4.7,0.7,5.8-0.7c1.5-1.8,0.3-6.1-0.4-7.9c-0.3-0.6-0.1-1.4,0.3-1.9
		c0.5-0.5,1.2-0.7,1.9-0.5l9.5,2.8v-9.4h-6.5c-0.8,0-1.5-0.6-1.8-1.4c-0.2-0.8,0.1-1.6,0.9-2c1-0.6,0.9-1.9,0.6-2.9
		c-0.7-2.7-3.6-5.9-6.1-5.8c-7.3,0.1-7.6,4.7-7.6,5.3c0,0.6-0.3,1.1-0.7,1.4c-0.4,0.3-1,0.5-1.6,0.3c-1.2-0.3-4.9-0.8-7.1,0.7
		c-1.1,0.7-1.7,1.9-2,3.5c-0.5,3.6,0,6.2,1.6,7.8c2.6,2.6,7.2,1.9,7.2,1.9C72.4,137.2,72.5,137.2,72.6,137.2z"/>
</g>
<g>
	<path class="st8" d="M286.7,84.2l-7.7,3.3l5.5,12.6l9.4-7.9c0,0,0.2,15,11.2,7.2c6.8-4.9,1.4-10.3,1.4-10.3s12.7-3.3,5.3-15.1
		c-4.4-7.1-12.7-0.6-12.7-0.6s-2.7-6.3-11.4-2.7C282.6,72.7,281.4,83.7,286.7,84.2z"/>
	<path d="M299.6,103.5c-1,0-1.9-0.2-2.7-0.6c-2.7-1.4-3.8-4.5-4.4-7.1l-6.8,5.7c-0.4,0.4-1,0.5-1.6,0.4s-1-0.5-1.2-1l-5.5-12.6
		c-0.2-0.4-0.2-0.9,0-1.4c0.2-0.4,0.5-0.8,1-1l4.5-2c-0.7-0.9-1.1-2-1.3-3.4c-0.6-4.3,1.4-10,5.5-11.6c7-2.9,10.8-0.1,12.6,1.9
		c1.8-1.1,4.9-2.5,8.1-1.9c2.3,0.4,4.3,1.8,5.7,4.1c2.6,4.1,3.2,7.9,1.9,11.1c-1.2,3.1-4,4.9-6,5.9c0.6,1.2,1.2,2.7,1,4.5
		c-0.2,2.4-1.6,4.6-4.2,6.4C303.8,102.6,301.6,103.5,299.6,103.5z M294,90.4c0.3,0,0.5,0.1,0.8,0.2c0.6,0.3,1,0.9,1.1,1.6
		c0,1.6,0.6,6.3,2.8,7.4c1.6,0.8,3.9-0.5,5.6-1.7s2.5-2.4,2.7-3.8c0.2-2-1.5-3.8-1.5-3.8c-0.5-0.5-0.6-1.1-0.5-1.8
		c0.2-0.6,0.7-1.1,1.3-1.3c0,0,4.6-1.3,5.9-4.6c0.8-2.1,0.3-4.7-1.7-7.8c-0.9-1.4-1.9-2.2-3.2-2.4c-3.1-0.6-6.8,2.2-6.8,2.2
		c-0.4,0.3-1,0.5-1.6,0.3c-0.5-0.1-1-0.5-1.2-1s-2.3-4.5-9.1-1.8c-2.3,1-3.7,5-3.3,7.8c0.1,1,0.6,2.3,1.7,2.4
		c0.8,0.1,1.5,0.7,1.6,1.5s-0.3,1.6-1.1,1.9l-6,2.6l3.8,8.7l7.6-6.3C293.1,90.6,293.5,90.4,294,90.4z"/>
</g>
<g>
	<g>
		<g>
			<g>
				<g>
					<g>
						<path class="st9" d="M214.8,116.4L214.8,116.4c-4,0-7.2-3-7.2-6.7v-0.9c0-3.7,3.2-6.7,7.2-6.7s7.2,3,7.2,6.7v0.9
							C222,113.4,218.8,116.4,214.8,116.4"/>
					</g>
				</g>
				<g>
					<g>
						<path class="st9" d="M175.3,116.4L175.3,116.4c-4,0-7.2-3-7.2-6.7v-0.9c0-3.7,3.2-6.7,7.2-6.7s7.2,3,7.2,6.7v0.9
							C182.5,113.4,179.3,116.4,175.3,116.4"/>
					</g>
				</g>
			</g>
		</g>
	</g>
	<g>
		<line class="st10" x1="171.5" y1="101.2" x2="182.5" y2="106.7"/>
		<path d="M182.5,108.5c-0.3,0-0.5-0.1-0.8-0.2l-11-5.5c-0.9-0.4-1.3-1.5-0.8-2.4c0.4-0.9,1.5-1.3,2.4-0.8l11,5.5
			c0.9,0.4,1.3,1.5,0.8,2.4C183.8,108.2,183.2,108.5,182.5,108.5z"/>
	</g>
	<g>
		<line class="st10" x1="218.2" y1="101.2" x2="207.2" y2="106.7"/>
		<path d="M207.2,108.5c-0.7,0-1.3-0.4-1.6-1c-0.4-0.9-0.1-2,0.8-2.4l11-5.5c0.9-0.4,2-0.1,2.4,0.8s0.1,2-0.8,2.4l-11,5.5
			C207.7,108.5,207.4,108.5,207.2,108.5z"/>
	</g>
	<g>
		<path d="M191.8,108.8c-0.2,0-0.4,0-0.6-0.1c-0.9-0.3-1.4-1.4-1.1-2.3c0.6-1.8,0.8-3.7,0.5-5.6c-0.2-1,0.5-1.9,1.5-2.1
			s1.9,0.5,2.1,1.5c0.4,2.5,0.2,5.1-0.6,7.4C193.2,108.3,192.5,108.8,191.8,108.8z"/>
	</g>
	<g>
		<path d="M201.4,108.6c-0.7,0-1.3-0.4-1.6-1c-1.1-2.1-1.5-4.5-1.2-6.9c0.1-1,1.1-1.7,2-1.6c1,0.1,1.7,1,1.6,2
			c-0.2,1.6,0.1,3.3,0.8,4.7c0.5,0.9,0.1,2-0.8,2.4C201.9,108.5,201.6,108.6,201.4,108.6z"/>
	</g>
</g>
<g>
	<g>
		<path class="st2" d="M203.6,144.2c1.9,0,3.1,2.1,2.1,3.7c-1.7,2.7-4.8,5.9-10.2,5.9c-5.3,0-8.8-3.1-10.8-5.8c-1.2-1.6,0-3.9,2-3.9
			h16.9V144.2z"/>
		<path d="M195.4,155.6c-6.1,0-10-3.5-12.2-6.5c-1-1.3-1.1-3-0.4-4.4c0.7-1.5,2.2-2.4,3.8-2.4h17c1.6,0,2.9,0.8,3.7,2.2
			s0.7,3-0.1,4.3C205.3,151.9,201.7,155.6,195.4,155.6z M186.6,146c-0.3,0-0.5,0.2-0.6,0.4s-0.1,0.4,0.1,0.6c1.7,2.3,4.8,5,9.4,5
			c3.7,0,6.6-1.7,8.7-5.1c0.2-0.3,0.1-0.5,0-0.6s-0.2-0.3-0.5-0.3L186.6,146L186.6,146z"/>
	</g>
	<g>
		<polygon class="st11" points="182.9,128.6 186.6,144.2 203.6,144.2 207.2,128.6 196.7,121.6 		"/>
		<path d="M205,146h-19.8l-4.4-18.4l16.1-8l12.5,8.2L205,146z M188,142.3h14.1l3.1-13l-8.6-5.7l-11.6,5.8L188,142.3z"/>
	</g>
	<g>
		<path class="st2" d="M182.9,128.6c-2.7,0-4.4-3-3-5.3c2.4-3.9,6.9-8.5,14.7-8.5c7.6,0,12.6,4.4,15.5,8.3c1.7,2.3,0.1,5.6-2.8,5.6
			c0,0-5.7-3-12.2-2.8S182.9,128.6,182.9,128.6z"/>
		<path d="M207.2,130.4h-0.4l-0.4-0.2c-0.1,0-5.4-2.8-11.3-2.6c-6,0.2-11.5,2.6-11.5,2.7l-0.4,0.2h-0.4c-2,0-3.7-1-4.6-2.7
			c-1-1.7-0.9-3.7,0.1-5.4c2.6-4.3,7.6-9.4,16.2-9.4c8.4,0,13.9,4.9,17,9c1.2,1.6,1.4,3.7,0.5,5.5
			C211.1,129.2,209.3,130.4,207.2,130.4z M194.5,116.5c-6.9,0-11,4.2-13.1,7.7c-0.5,0.8-0.2,1.4,0,1.7c0.1,0.2,0.5,0.7,1.2,0.8
			c1.5-0.6,6.7-2.6,12.4-2.8c5.8-0.2,11,2,12.6,2.8c0.7-0.1,1.1-0.7,1.2-0.9c0.1-0.3,0.4-1-0.2-1.7
			C206,120.6,201.4,116.5,194.5,116.5z"/>
	</g>
</g>
</svg>
