<?xml version="1.0" encoding="utf-8"?>
<!-- Generator: Adobe Illustrator 24.1.1, SVG Export Plug-In . SVG Version: 6.00 Build 0)  -->
<svg version="1.1" id="Layer_1" xmlns="http://www.w3.org/2000/svg" xmlns:xlink="http://www.w3.org/1999/xlink" x="0px" y="0px"
	 viewBox="0 0 240 240" style="enable-background:new 0 0 240 240;" xml:space="preserve">
<g>
	<path style="fill:#FFFFFF;" d="M109.65,23.35c1.36,0.44,1.55,0.55,2.86,1.39c1.11,0.72,2.14,1.63,3.11,2.56
		c3.11,3,6.34,13.07,2.63,15.74c-3.29,2.36-5.99-4.15-7.72-6.11c-3.88-4.4-5.87,0.18-8.98,3.6c-2.51,2.77-6.59,2.74-9.12-0.07
		c-2.53-2.81-2.58-7.32-0.1-10.11C96.85,25.27,102.88,21.18,109.65,23.35z"/>
	<path d="M117.37,25.47c-1.29-1.23-2.4-2.15-3.48-2.86c-1.47-0.95-1.86-1.17-3.47-1.67c-1.47-0.47-2.99-0.73-4.5-0.73
		c-3.25,0-6.49,1.1-9.69,3.26c-0.17,0.08-0.34,0.17-0.51,0.29c-0.96,0.71-1.81,1.42-2.5,2.05c-1.34,1.2-2.2,2.2-2.62,2.67
		l-0.15,0.17c-1.23,1.39-2.05,3.09-2.35,4.97c-0.51,3.08,0.42,6.27,2.45,8.54c1.73,1.91,4.02,2.96,6.49,2.96
		c2.44,0,4.7-1.03,6.39-2.89c0.63-0.69,1.18-1.39,1.73-2.06c0.08-0.1,0.22-0.24,0.36-0.39c0.12-0.1,0.24-0.22,0.34-0.3
		c0.37-0.29,0.66-0.68,0.83-1.12c0.56-0.57,0.81-0.68,0.88-0.71c0,0.03,0.37,0.17,1.07,0.96c0.29,0.32,0.73,1.01,1.17,1.67
		c1.66,2.59,3.74,5.8,7.02,5.8c1.01,0,2.01-0.34,2.91-0.98c1.12-0.79,2.47-2.4,2.69-5.5C122.76,34.64,120.04,28.06,117.37,25.47z
		 M118.25,43.04c-0.49,0.36-0.98,0.51-1.44,0.51c-2.64,0-4.8-4.96-6.27-6.61c-1.15-1.3-2.13-1.81-3.01-1.81
		c-1.2,0-2.22,0.9-3.26,2.13l-0.02,0.02c0.02,0.07,0.05,0.12,0.07,0.19c-0.2,0.15-0.37,0.3-0.56,0.49c-0.2,0.2-0.41,0.41-0.59,0.63
		c-0.42,0.54-0.85,1.08-1.32,1.61c-0.1,0.12-0.2,0.24-0.29,0.34c-0.78,0.86-1.71,1.45-2.69,1.78c-2.01,0.64-4.23,0.2-5.94-1.34
		c-0.19-0.17-0.36-0.34-0.51-0.51c-0.42-0.47-0.78-1-1.05-1.56c-0.59-1.12-0.88-2.37-0.88-3.62c0-0.42,0.03-0.85,0.1-1.25
		c0.02-0.03,0.02-0.07,0.02-0.1c0.05-0.3,0.12-0.59,0.22-0.88c0-0.02,0-0.02,0-0.03c0.08-0.29,0.2-0.58,0.32-0.86
		c0.02-0.03,0.03-0.07,0.05-0.12c0.14-0.27,0.29-0.54,0.46-0.79c0.02-0.03,0.03-0.08,0.07-0.12c0.17-0.27,0.37-0.52,0.59-0.78
		c0.44-0.47,2.06-2.44,4.9-4.53h0.08c2.6-1.84,5.5-3.06,8.61-3.06c1.22,0,2.45,0.2,3.72,0.61c1.37,0.44,1.56,0.54,2.86,1.39
		c1.12,0.71,2.15,1.62,3.11,2.55C118.72,30.31,121.95,40.37,118.25,43.04z"/>
	<path style="fill:#653109;" d="M104.31,37.46c-0.19,0.15-0.37,0.3-0.56,0.49c-0.2,0.2-0.41,0.41-0.59,0.63
		c-0.49,0.56-0.93,1.15-1.32,1.61c-0.1,0.12-0.2,0.24-0.29,0.34c-0.78,0.86-1.71,1.45-2.69,1.78c-2.01,0.64-4.23,0.2-5.94-1.34
		c-0.17-0.17-0.34-0.34-0.49-0.51c-0.42-0.47-0.79-1-1.07-1.56c-0.59-1.12-0.88-2.37-0.88-3.62c0-0.42,0.03-0.85,0.1-1.25
		c0.02-0.03,0.02-0.07,0.02-0.1c0.05-0.3,0.12-0.59,0.22-0.88c0-0.02,0-0.02,0-0.03c0.08-0.29,0.2-0.58,0.32-0.86
		c0.02-0.03,0.03-0.07,0.05-0.12c0.14-0.27,0.29-0.54,0.46-0.79c0.02-0.03,0.03-0.08,0.07-0.12c0.17-0.27,0.37-0.52,0.59-0.78
		c0.44-0.47,2.06-2.44,4.9-4.53h0.08c0.1,0.02,0.2,0,0.29,0.03c1.39,0.46,2.52,1.91,2.13,3.43c-0.17,0.68-0.56,1.18-1.05,1.56
		c0.56-0.3,1.18-0.41,1.83-0.2c1.37,0.46,2.18,2.05,1.79,3.57c-0.19,0.76-0.63,1.34-1.2,1.69c0.46-0.15,0.96-0.22,1.47-0.05
		c0.86,0.29,1.44,0.59,1.69,1.42l-0.02,0.02C104.26,37.34,104.3,37.39,104.31,37.46z"/>
	<path style="fill:#653109;" d="M104.31,37.46c-0.02-0.07-0.05-0.12-0.07-0.19l0.02-0.02C104.28,37.32,104.3,37.39,104.31,37.46z"/>
</g>
<g>
	<g>
		<path d="M135.9,170.32c3.22,0,6.64,1.33,6.76,4.35c0.3,7.42,2.13,15.16,4.28,22.54c0.05-0.04,0.1-0.08,0.15-0.12
			c2.45,8.69,4.89,14.49,6.26,21.11c0,0,0,0,0,0c0.21,0.8,0.44,1.79,0.64,2.86c1.2,5.05,2.04,7.14,0.69,9.53
			c-1.15,2.04-5.43,3.36-7.53,3.72c-1.82,0.31-3.59,0.39-5.37,0.39c-1.53,0-3.06-0.06-4.63-0.08c-3.14-0.05-11.49-0.3-13.59-3.28
			c-2.82-4,1.2-12.95,4.47-15.24c2.15-1.51,6.35-3.12,9.92-3.12c1.08,0,2.11,0.15,3.01,0.49c-0.01-0.04-0.02-0.07-0.03-0.11
			c-2.07-4.92-2.82-7.56-4.93-14.29c-2.01-5.65-3.97-11.25-4.72-14.47c-1.27-5.38-3.77-11.33,0.68-13.49
			C133,170.59,134.43,170.32,135.9,170.32 M135.9,167.78c-1.88,0-3.68,0.37-5.07,1.05c-5.65,2.75-3.92,9.2-2.67,13.91
			c0.22,0.82,0.44,1.64,0.63,2.45c0.8,3.4,2.8,9.12,4.79,14.69l0.77,2.45c1.04,3.32,1.76,5.64,2.69,8.13
			c-3.88,0.23-8.11,1.9-10.47,3.55c-2.75,1.93-5.51,6.9-6.28,11.33c-0.53,3.02-0.12,5.6,1.19,7.46c2,2.84,6.97,4.23,15.63,4.36
			c0.59,0.01,1.17,0.02,1.75,0.04c0.98,0.02,1.95,0.05,2.92,0.05c2.28,0,4.07-0.13,5.8-0.42c0.29-0.05,7.22-1.26,9.32-4.98
			c1.65-2.94,1.01-5.52,0.04-9.42c-0.14-0.58-0.3-1.2-0.46-1.88c-0.23-1.22-0.48-2.25-0.65-2.91c-0.84-4.02-2.02-7.65-3.38-11.84
			c-0.94-2.89-1.91-5.87-2.91-9.38c-0.09-0.32-0.24-0.61-0.44-0.87c-2.45-8.58-3.66-15.07-3.9-20.96
			C145.03,170.51,141.29,167.78,135.9,167.78L135.9,167.78z"/>
	</g>
	<g>
		<path style="fill:#FFFFFF;" d="M142.66,174.67c0.3,7.43,2.12,15.16,4.28,22.55c-0.39,0.33-0.82,0.61-1.32,0.84
			c-2.59,1.1-6.74,1.45-9.84,0.34c0.07,0.23,0.14,0.45,0.21,0.68c-2.02-5.65-3.97-11.24-4.73-14.46
			c-1.26-5.39-3.77-11.33,0.68-13.49C135.32,169.47,142.48,170.27,142.66,174.67z"/>
		<path style="fill:#00A2F6;" d="M154.02,221.18L154.02,221.18c-0.2-1.13-0.45-2.16-0.67-2.99c-1.37-6.62-3.81-12.42-6.26-21.11
			c-0.05,0.04-0.11,0.09-0.16,0.13c-0.39,0.33-0.82,0.61-1.32,0.84c-2.59,1.1-6.74,1.45-9.84,0.34c0.07,0.23,0.14,0.45,0.21,0.68
			c0.01,0.03,0.02,0.06,0.03,0.1c2.1,6.67,2.83,9.29,4.9,14.19c0.02,0.04,0.03,0.08,0.04,0.12c-3.84-1.48-10.12,0.66-12.92,2.62
			c-3.27,2.29-7.3,11.24-4.47,15.24c2.1,2.98,10.45,3.24,13.59,3.28c3.4,0.05,6.63,0.27,10.01-0.3c2.1-0.36,6.37-1.68,7.53-3.72
			C156.02,228.2,155.21,226.14,154.02,221.18z"/>
	</g>
</g>
<g>
	<path style="fill:#FFFFFF;" d="M98.07,204.26c0.55-2.28,1.09-4.62,1.6-6.96C99.2,199.75,98.65,202.04,98.07,204.26z"/>
	<path style="fill:#FFFFFF;" d="M111.56,195.56c-0.15,0.95-0.36,1.88-0.59,2.77c-3.16,0.86-7.23,0.23-9.71-1.05
		c-0.54-0.28-0.98-0.64-1.37-1.04c1.46-6.84,2.61-13.7,2.84-19.69c0.17-4.4,5.14-6.13,8.4-4.26
		C115.43,174.77,112.28,191.17,111.56,195.56z"/>
	<path style="fill:#00A2F6;" d="M120.48,230.75c-1.98,3.07-10.31,3.69-13.44,3.86c-3.4,0.19-6.31-0.06-9.71-0.51
		c-2.12-0.28-6.97-1.4-8.2-3.4c-2.44-3.98,0.49-9.69,3.38-12.54c0.73-0.73,1.61-1.3,2.55-1.8c0.76-3.97,1.92-7.86,3-12.07
		c0.01-0.01,0.01-0.02,0.01-0.03c0.58-2.21,1.13-4.51,1.6-6.96c0.08-0.35,0.15-0.7,0.23-1.05c0.39,0.4,0.83,0.76,1.37,1.04
		c2.48,1.28,6.55,1.91,9.71,1.05c0.03,0,0.06-0.01,0.09-0.02c-1.13,5.73-1.92,9.84-3.45,14.84c2.81,0.42,5.61,1.48,7.26,2.55
		C118.24,217.88,123.14,226.64,120.48,230.75z"/>
	<path style="fill:#00A2F6;" d="M99.9,196.25c-0.08,0.35-0.15,0.7-0.23,1.05c0.07-0.36,0.14-0.71,0.2-1.08
		C99.88,196.23,99.89,196.24,99.9,196.25z"/>
	<path d="M108.26,171.56c1,0,2,0.24,2.88,0.75c4.29,2.47,1.14,18.87,0.43,23.26c-0.15,0.95-0.36,1.87-0.59,2.77
		c0.03-0.01,0.06-0.01,0.09-0.02c-1.13,5.74-1.92,9.86-3.45,14.86c2.81,0.41,5.61,1.47,7.27,2.54c3.36,2.16,8.26,10.93,5.6,15.03
		c-1.98,3.06-10.31,3.68-13.44,3.85c-0.77,0.04-1.52,0.06-2.26,0.06c-2.49,0-4.82-0.23-7.45-0.57c-2.11-0.27-6.97-1.41-8.2-3.4
		c-2.45-3.99,0.49-9.69,3.37-12.55c0.73-0.72,1.61-1.29,2.55-1.79c0.78-4.04,1.95-8,3.06-12.28c0.5-2.07,0.98-4.17,1.45-6.28
		c0.1-0.52,0.21-1.03,0.31-1.56c0.01,0.01,0.02,0.01,0.02,0.02c1.46-6.83,2.62-13.7,2.84-19.68
		C102.86,173.35,105.55,171.56,108.26,171.56 M111.07,198.32L111.07,198.32 M108.26,169.02
		C108.26,169.02,108.26,169.02,108.26,169.02c-4.43,0-7.9,3.2-8.06,7.45c-0.19,4.97-1.07,11.14-2.71,18.86
		c-0.05,0.14-0.1,0.29-0.12,0.45c-0.06,0.36-0.13,0.71-0.21,1.05l-0.09,0.46c-0.42,1.89-0.89,3.93-1.43,6.19
		c-0.28,1.09-0.58,2.21-0.87,3.3c-0.73,2.71-1.42,5.3-1.97,7.94c-0.81,0.5-1.49,1.04-2.08,1.61c-3.35,3.31-7.11,10.23-3.75,15.68
		c2.14,3.47,9.24,4.49,10.04,4.59c2.35,0.31,4.92,0.59,7.77,0.59c0.8,0,1.59-0.02,2.4-0.07c8.51-0.46,13.55-2.1,15.44-5.01
		c1.16-1.8,1.46-4.21,0.87-6.99c-0.95-4.43-4.19-9.62-7.22-11.57c-1.44-0.93-3.39-1.75-5.44-2.31c1.03-3.78,1.71-7.23,2.59-11.69
		l0.12-0.62c0.05-0.2,0.08-0.42,0.08-0.64c0-0.01,0-0.03,0-0.04c0.2-0.83,0.35-1.58,0.46-2.3c0.05-0.33,0.12-0.73,0.2-1.19
		c2.17-12.91,2.69-22.05-1.87-24.67C111.17,169.39,109.73,169.02,108.26,169.02L108.26,169.02z"/>
</g>
<g>
	<path style="fill:#FFFFFF;" d="M171.02,42.46c-1.43,1.32-3.24,1.96-5.05,1.96c-2.04,0-4.07-0.84-5.56-2.47
		c-0.01-0.01-0.01-0.02-0.02-0.03c-0.83-0.9-1.93-1.9-3.14-2.84c0.03-0.09,0.08-0.17,0.11-0.26c-1.62-1.48-3.21-2.52-4.68-2.52
		c-0.74,0-1.44,0.27-2.11,0.86c-1.85,1.66-3.65,6.75-6.81,6.75c-0.49,0-1.02-0.12-1.59-0.41c-3.82-1.91-1.33-8.41-0.04-11.14
		c2.37-4.96,4.84-8.51,10.31-9.54c1-0.19,1.96-0.28,2.91-0.28c3.98,0,7.53,1.59,10.76,4.06h0.01c0,0,0.01,0,0.02,0c0,0,0,0,0.01,0
		c3.22,2.39,4.92,4.62,5.41,5.16c1.04,1.16,1.64,2.56,1.85,4C173.76,38.19,172.94,40.7,171.02,42.46z"/>
	<path style="fill:#653109;" d="M157.37,38.84c-0.03,0.09-0.08,0.17-0.11,0.26C157.29,39,157.32,38.92,157.37,38.84L157.37,38.84z"
		/>
	<path d="M175.95,35.44c-0.28-1.99-1.13-3.83-2.47-5.33c-0.07-0.08-0.14-0.16-0.23-0.28c-0.37-0.44-0.99-1.16-1.87-2.04
		c-0.92-0.93-2.15-2.05-3.7-3.2c-0.08-0.05-0.15-0.11-0.23-0.15c-3.96-2.98-7.92-4.42-12.08-4.42c-1.11,0-2.25,0.11-3.38,0.32
		c-7,1.32-9.93,6.34-12.12,10.94c-3.36,7.03-2.92,12.45,1.19,14.51c0.9,0.44,1.81,0.68,2.72,0.68c3.49,0,5.56-3.15,7.08-5.45
		c0.51-0.76,1.07-1.63,1.43-1.96c0.23-0.2,0.35-0.2,0.41-0.2c0.19,0,0.84,0.1,2.23,1.22c0.16,0.39,0.43,0.76,0.78,1.02
		c0.6,0.46,1.16,0.94,1.67,1.41c0.43,0.38,0.81,0.76,1.15,1.13c1.92,2.12,4.63,3.32,7.45,3.32c2.52,0,4.92-0.94,6.76-2.64
		C175.21,42.08,176.4,38.76,175.95,35.44z M171.02,42.46c-1.43,1.32-3.24,1.96-5.05,1.96c-2.04,0-4.07-0.84-5.56-2.47
		c-0.01-0.01-0.01-0.02-0.02-0.03c-0.83-0.9-1.93-1.9-3.14-2.84c0.03-0.09,0.08-0.17,0.11-0.26l-0.01-0.01
		c-1.62-1.47-3.2-2.51-4.67-2.51c-0.74,0-1.44,0.27-2.11,0.86c-1.85,1.66-3.65,6.75-6.81,6.75c-0.49,0-1.02-0.12-1.59-0.41
		c-3.82-1.91-1.33-8.41-0.04-11.14c2.37-4.96,4.84-8.51,10.31-9.54c1-0.19,1.96-0.28,2.91-0.28c3.96,0,7.5,1.58,10.73,4.04
		c0.01,0.01,0.03,0.02,0.04,0.03h0.01c0,0,0.01,0,0.02,0c0,0,0,0,0.01,0c3.22,2.39,4.92,4.62,5.41,5.16c1.04,1.16,1.64,2.56,1.85,4
		C173.76,38.19,172.94,40.7,171.02,42.46z"/>
	<path style="fill:#653109;" d="M171.02,42.46c-1.43,1.32-3.24,1.96-5.05,1.96c-2.04,0-4.07-0.84-5.56-2.47
		c-0.01-0.01-0.01-0.02-0.02-0.03c-0.83-0.9-1.93-1.9-3.14-2.84c0.03-0.09,0.08-0.17,0.11-0.26l-0.01-0.01
		c0.33-0.91,1.08-1.65,2.08-1.88c0.59-0.14,1.17-0.04,1.71,0.15c-0.65-0.41-1.15-1.06-1.33-1.87c-0.38-1.63,0.63-3.25,2.24-3.64
		c0.76-0.18,1.49-0.03,2.12,0.32c-0.55-0.41-0.99-0.99-1.16-1.71c-0.22-0.96,0.2-1.88,0.92-2.56l-0.01-0.01c0,0,0.4-0.44,1.15-0.75
		c0.04-0.02,0.08-0.04,0.12-0.05c0.12-0.04,0.24-0.09,0.38-0.12c0.04-0.02,0.09-0.04,0.14-0.05c0.04-0.01,0.07,0,0.11-0.01
		c0.09-0.02,0.18-0.03,0.27-0.04c0.01,0.01,0.03,0.02,0.04,0.03h0.01c0,0,0.01,0,0.02,0c0,0,0,0,0.01,0
		c3.22,2.39,4.92,4.62,5.41,5.16c1.04,1.16,1.64,2.56,1.85,4C173.76,38.19,172.94,40.7,171.02,42.46z"/>
</g>
<g>
	<path style="fill:#0070A8;" d="M60.13,68.99c-0.07,0-0.15-0.01-0.22-0.02c-0.69-0.12-1.15-0.78-1.03-1.47
		c1.49-8.56,10.11-18.35,18.81-21.38c0.66-0.23,1.39,0.12,1.62,0.78c0.23,0.66-0.12,1.39-0.78,1.62
		c-7.8,2.72-15.81,11.79-17.14,19.42C61.27,68.56,60.73,68.99,60.13,68.99z"/>
	<path style="fill:#0070A8;" d="M56.32,60.69c-0.12,0-0.23-0.02-0.35-0.05c-0.67-0.2-1.06-0.9-0.87-1.57
		c1.41-4.86,5.47-8.86,12.43-12.2c0.63-0.31,1.39-0.04,1.69,0.59c0.3,0.63,0.04,1.39-0.59,1.69c-6.35,3.06-9.88,6.43-11.09,10.62
		C57.38,60.33,56.88,60.69,56.32,60.69z"/>
</g>
<g>
	<path style="fill:#FFFFFF;" d="M82.2,118.87c-0.08,0.02-0.17,0.03-0.25,0.03c0.01-0.01,0.01-0.02,0.01-0.03
		c-0.07,0.01-0.13,0.01-0.2,0.01c-0.73,0-1.47-0.26-2.19-0.65h-0.01c-0.14-0.08-0.28-0.16-0.42-0.25c-0.16-0.1-0.32-0.2-0.48-0.31
		c-0.12-0.08-0.23-0.17-0.35-0.25c-0.16-0.12-0.32-0.24-0.48-0.36c-0.21-0.16-0.42-0.32-0.62-0.5c-0.3-0.25-0.59-0.49-0.84-0.69
		c-0.1-0.08-0.2-0.15-0.28-0.23c-0.42-0.36-0.82-0.71-1.23-1.07c-0.79-0.69-1.56-1.4-2.28-2.12c-0.27-0.28-0.54-0.55-0.8-0.83
		c-1.36-1.45-2.61-3-3.74-4.61c-1.13-1.61-2.24-3.5-3.27-5.48c-0.87-1.91-1.52-3.87-1.94-5.88c1.62,0.47,3.43-0.13,4.99-0.6
		c1.48-0.45,3.17-0.88,4.35-2c0.46-0.44,0.77-0.96,1-1.53c1.83,5.48,5.06,10.86,8.17,15.96C82.73,109.79,87.93,117.96,82.2,118.87z"
		/>
	<path style="fill:#0085C9;" d="M76.95,82.29c-1.08,1.64-1.97,3.38-2.68,5.2c-0.5,1.29-0.6,2.77-1.1,4.04
		c-0.23,0.57-0.54,1.08-1,1.53c-1.17,1.12-2.86,1.55-4.35,2c-1.56,0.46-3.37,1.07-4.99,0.6c-1.31-6.32-0.27-13.02,3.7-19.78
		c0.2-0.35,0.42-0.7,0.64-1.05c0.28-0.44,0.56-0.87,0.84-1.3c0.1-0.16,0.2-0.32,0.32-0.48c2.74-4.06,6.45-8.54,11.03-9.93
		c0-0.01,0.01-0.02,0.01-0.03c0.32-0.09,0.66-0.17,1-0.23c2.97-0.55,6.92,0.85,7.46,4.05C89.01,73.98,80.2,77.4,76.95,82.29z"/>
	<path style="fill:#FFFFFF;" d="M74.87,114.57c0.41,0.36,0.81,0.71,1.23,1.07c-1.24-1-2.41-2.06-3.51-3.18
		C73.32,113.17,74.08,113.88,74.87,114.57z"/>
	<path style="fill:#FFFFFF;" d="M81.96,118.87c0,0.01,0,0.02-0.01,0.03c-0.79,0.05-1.6-0.23-2.37-0.67
		c0.72,0.39,1.46,0.65,2.19,0.65C81.83,118.88,81.89,118.88,81.96,118.87z"/>
	<path style="fill:#0085C9;" d="M79.38,63.1c0,0.01-0.01,0.02-0.01,0.03c-4.58,1.39-8.29,5.87-11.03,9.93
		c0.17-0.28,0.36-0.54,0.53-0.82c0.43-0.64,1.03-1.8,1.52-2.37c0.62-0.73,1.29-1.42,1.96-2.14C74.37,65.56,76.52,63.88,79.38,63.1z"
		/>
	<g>
		<path style="fill:#00A2F6;" d="M122.77,34.16l0.21,0C122.86,34.15,122.77,34.16,122.77,34.16z"/>
	</g>
	<g>
		<g>
			<path style="fill:#00A2F6;" d="M165.86,111.27c1-3.43,3.6-6.36,4.78-9.75c3.47-10.01,4.05-20.55,1.69-31
				c-1.96-8.64-6.28-18.1-13.31-23.71c-9.02-7.2-20.84-12.69-32.34-12.66c0,0-0.09,0-0.21,0l-3.69,0
				c-11.5-0.03-23.32,5.46-32.34,12.66c-7.02,5.61-11.35,15.06-13.31,23.7c-2.54,11.23-2.67,21.26,1.21,32.1
				c1.38,3.86,3.62,8.87,3.84,12.73c0.29,5.2-2.37,10.51-3.18,15.59c-1.75,10.93-2.22,22.24,2.2,32.66
				c6.03,14.19,20.48,19.41,34.89,20.59c1.73,0.14,3.46,0.21,5.2,0.21c0.07,0,0.14,0,0.2,0l3.53,0c1.73,0,3.54-0.07,5.27-0.21
				c11.88-0.97,25.01-5.39,32.56-15.14c5.46-7.05,7.67-18.83,7.21-27.64c-0.36-6.87-2.37-13.54-3.57-20.28
				c-0.53-3-1.55-6.33-0.7-9.58C165.8,111.46,165.83,111.37,165.86,111.27z"/>
			<path d="M126.46,34.15c0.12,0,0.21,0,0.21,0c0.03,0,0.06,0,0.09,0c11.47,0,23.25,5.48,32.26,12.66
				c7.02,5.61,11.35,15.06,13.31,23.71c2.37,10.45,1.79,20.99-1.69,31c-1.18,3.39-3.78,6.32-4.78,9.75
				c-0.03,0.09-0.05,0.19-0.08,0.28c-0.86,3.25,0.16,6.57,0.7,9.58c1.19,6.74,3.21,13.41,3.57,20.28c0.46,8.8-1.74,20.59-7.21,27.64
				c-7.55,9.75-20.68,14.17-32.56,15.14c-1.73,0.14-3.53,0.21-5.27,0.21l-3.53,0c-0.07,0-0.14,0-0.2,0c-1.73,0-3.47-0.07-5.2-0.21
				c-14.41-1.18-28.85-6.4-34.89-20.59c-4.43-10.41-3.95-21.72-2.2-32.66c0.81-5.08,3.47-10.39,3.18-15.59
				c-0.22-3.86-2.46-8.87-3.84-12.73c-3.88-10.84-3.76-20.87-1.21-32.1c1.96-8.64,6.28-18.1,13.31-23.7
				c9-7.19,20.79-12.66,32.26-12.66c0.03,0,0.06,0,0.09,0L126.46,34.15 M126.46,31.61l-3.69,0l-0.08,0
				c-10.98,0-23.32,4.82-33.84,13.22c-6.6,5.27-11.78,14.43-14.2,25.13c-2.87,12.66-2.47,22.99,1.3,33.51
				c0.3,0.83,0.63,1.71,0.98,2.62c1.2,3.16,2.57,6.74,2.72,9.4c0.16,2.79-0.71,5.75-1.63,8.88c-0.59,2.01-1.2,4.08-1.53,6.16
				c-1.54,9.63-2.66,22.2,2.37,34.05c5.5,12.95,18.3,20.6,37.02,22.13c1.77,0.14,3.59,0.22,5.4,0.22l0.16,0l3.57,0
				c1.84,0,3.73-0.08,5.47-0.22c14.84-1.21,27.36-7.08,34.36-16.11c6-7.74,8.21-20.31,7.74-29.33c-0.25-4.81-1.27-9.5-2.26-14.03
				c-0.47-2.16-0.96-4.39-1.34-6.56c-0.1-0.58-0.22-1.17-0.34-1.77c-0.49-2.39-0.94-4.65-0.4-6.72l0.06-0.22
				c0.44-1.51,1.31-3,2.23-4.59c0.92-1.58,1.87-3.21,2.51-5.05c3.65-10.53,4.25-21.43,1.76-32.39c-2.42-10.7-7.6-19.86-14.2-25.13
				c-10.52-8.4-22.86-13.22-33.84-13.22l-0.09,0l-0.17,0C126.49,31.61,126.47,31.61,126.46,31.61L126.46,31.61z"/>
		</g>
		<g>
			<path style="fill-rule:evenodd;clip-rule:evenodd;fill:#FFFFFF;" d="M163.11,87.32c-0.37-3.08-0.32-3.8-0.88-8.35
				c-1.77-14.32-4.44-25.64-18.27-32.67c-11.25-5.71-26.99-6.81-38.95-2.67c-9.58,3.32-19.3,10.2-22.11,20.68
				c-0.29,1.08-0.76,2.36-0.96,3.64l-0.12-0.01c-0.18,1.35-2.49,2.51-3.25,3.45c-3.1,3.84-4.6,5.73-5.73,10.71
				c-1.06,4.69-0.29,10.12,1.41,14.65c7.6,20.2,34.19,19.61,52.06,20.27c11.59,0.43,26.84-3.37,32.85-14.45
				C161.46,98.32,163.69,92.09,163.11,87.32z"/>
			<g>
				<path style="fill-rule:evenodd;clip-rule:evenodd;fill:#FCBFBB;" d="M126.81,88.98c-0.46,6.74,4.59,12.57,11.27,13.03
					s12.48-4.63,12.94-11.37c0.46-6.73-4.58-12.56-11.27-13.02S127.27,82.25,126.81,88.98"/>
				<path style="fill-rule:evenodd;clip-rule:evenodd;fill:#FCBFBB;" d="M74.22,85.82c-0.17,6.75,3.17,12.42,8.64,12.44
					c6.7,0.03,11.46-6.14,11.8-11.36c0.45-6.73-2.34-13.12-9.03-13.29C78.93,73.45,74.14,80.3,74.22,85.82z"/>
			</g>
		</g>
	</g>
	<path d="M126.46,34.15c0.12,0,0.21,0,0.21,0c0.03,0,0.06,0,0.09,0c11.47,0,23.25,5.48,32.26,12.66
		c7.02,5.61,11.35,15.06,13.31,23.71c2.37,10.45,1.79,20.99-1.69,31c-1.18,3.39-3.78,6.32-4.78,9.75c-0.03,0.09-0.05,0.19-0.08,0.28
		c-0.86,3.25,0.16,6.57,0.7,9.58c1.19,6.74,3.21,13.41,3.57,20.28c0.46,8.8-1.74,20.59-7.21,27.64
		c-7.55,9.75-20.68,14.17-32.56,15.14c-1.73,0.14-3.53,0.21-5.27,0.21l-3.53,0c-0.07,0-0.14,0-0.2,0c-1.73,0-3.47-0.07-5.2-0.21
		c-14.41-1.18-28.85-6.4-34.89-20.59c-4.43-10.41-3.95-21.72-2.2-32.66c0.81-5.07,3.47-10.39,3.18-15.59
		c-0.18-3.15-1.69-7.05-3-10.48c-2.04-2.24-3.73-4.92-4.93-8.11c-1.7-4.53-2.47-9.97-1.41-14.65c0.78-3.46,2.12-5.25,3.47-7.51
		c0.24-1.34,0.51-2.7,0.82-4.07c1.96-8.64,6.28-18.1,13.31-23.7c9-7.19,20.78-12.66,32.26-12.66c0.03,0,0.06,0,0.09,0L126.46,34.15
		 M126.46,31.61l-3.69,0l-0.08,0c-10.98,0-23.32,4.82-33.84,13.22c-6.6,5.27-11.78,14.43-14.2,25.13c-0.28,1.24-0.54,2.49-0.76,3.72
		c-0.12,0.2-0.25,0.4-0.37,0.6c-1.18,1.93-2.41,3.93-3.16,7.26c-1.08,4.81-0.53,10.68,1.51,16.11c1.2,3.2,2.92,6.08,5.1,8.56
		c1.19,3.13,2.52,6.65,2.67,9.28c0.16,2.79-0.71,5.75-1.63,8.88c-0.59,2.01-1.2,4.08-1.53,6.16c-1.54,9.63-2.66,22.2,2.37,34.05
		c5.5,12.95,18.3,20.6,37.02,22.13c1.77,0.14,3.59,0.22,5.4,0.22l0.17,0l3.56,0c1.84,0,3.73-0.08,5.47-0.22
		c14.84-1.21,27.36-7.08,34.36-16.11c6-7.74,8.21-20.31,7.74-29.33c-0.25-4.81-1.27-9.5-2.26-14.03c-0.47-2.16-0.96-4.39-1.34-6.56
		c-0.1-0.58-0.22-1.17-0.34-1.77c-0.49-2.39-0.94-4.65-0.4-6.72l0.06-0.22c0.44-1.51,1.31-3,2.23-4.59
		c0.92-1.58,1.87-3.21,2.51-5.05c3.65-10.53,4.25-21.43,1.76-32.39c-2.42-10.7-7.6-19.86-14.2-25.13
		c-10.52-8.4-22.86-13.22-33.84-13.22l-0.09,0l-0.17,0C126.49,31.61,126.47,31.61,126.46,31.61L126.46,31.61z"/>
	<g>
		<path d="M163.41,113.03c0.41,0,0.81,0.03,1.19,0.09c8.35,1.35,15.3,10.41,18.29,17.82c0.36,0.9,0.58,1.82,0.69,2.75
			c0.7,5.6-2.67,11.59-6.04,15.66c-0.38,0.46-0.76,0.95-1.14,1.43c0.33,1.17,0.62,2.34,0.8,3.52c0.5,3.22-0.63,6.63-3.31,8.55
			c-0.56,0.4-1.14,0.73-1.7,0.97c-1.01,0.43-1.98,0.63-2.9,0.63c-2.63,0-4.82-1.64-6.21-4.3c-3.87-7.39-0.84-11.32,3.84-17.11
			c1.09-1.35,2.22-2.73,3.02-4.29c0.21-0.41,1.02-3.69,1.1-3.73h0c0.01-0.89-0.17-1.85-0.63-2.9c-0.91-2.07-2.53-3.62-4.27-5.06
			c-1.35-1.11-2.42-2.32-3.59-3.62c-1.79-1.98-6.82-8.02-2.37-9.79C161.16,113.25,162.31,113.03,163.41,113.03 M163.41,110.49
			c-1.41,0-2.9,0.28-4.2,0.8c-1.72,0.69-2.88,1.96-3.25,3.59c-0.62,2.7,0.95,6.15,4.68,10.27l0.2,0.23
			c1.15,1.27,2.24,2.48,3.65,3.64c1.43,1.18,2.85,2.5,3.57,4.12c0.23,0.53,0.37,1.03,0.41,1.5c-0.11,0.34-0.21,0.74-0.34,1.21
			c-0.16,0.57-0.41,1.5-0.52,1.83c-0.65,1.24-1.59,2.4-2.58,3.63l-0.1,0.13c-4.53,5.61-8.81,10.9-4.11,19.88
			c1.88,3.6,4.97,5.66,8.46,5.66c1.28,0,2.59-0.28,3.89-0.83c0.73-0.31,1.49-0.74,2.19-1.24c3.35-2.41,5.02-6.62,4.34-11.01
			c-0.12-0.79-0.29-1.62-0.52-2.54c0.11-0.13,0.21-0.26,0.32-0.39c2.3-2.78,7.55-10.07,6.6-17.59c-0.15-1.22-0.43-2.32-0.86-3.38
			c-3.46-8.58-11.06-17.89-20.24-19.37C164.49,110.53,163.96,110.49,163.41,110.49L163.41,110.49z"/>
		<g>
			<path style="fill:#FFFFFF;" d="M160.16,113.65c1.37-0.55,3.02-0.76,4.44-0.53c8.35,1.35,15.3,10.41,18.29,17.82
				c0.36,0.9,0.58,1.82,0.7,2.75c-4.13-0.89-8.21-0.81-12.55,1.33c0.01-0.89-0.17-1.85-0.63-2.9c-0.91-2.07-2.53-3.62-4.27-5.06
				c-1.35-1.11-2.42-2.32-3.59-3.62C160.74,121.46,155.71,115.42,160.16,113.65z"/>
			<path style="fill:#0085C9;" d="M183.58,133.68c-4.13-0.89-8.21-0.81-12.55,1.33c-0.08,0.04-0.89,3.32-1.1,3.73
				c-0.8,1.56-1.92,2.94-3.02,4.29c-4.67,5.79-7.7,9.72-3.84,17.11c1.87,3.58,5.21,5.32,9.11,3.67c0.55-0.23,1.14-0.56,1.7-0.97
				c2.69-1.93,3.81-5.33,3.31-8.55c-0.18-1.17-0.47-2.34-0.8-3.52c0.38-0.48,0.76-0.96,1.14-1.43
				C180.91,145.27,184.29,139.28,183.58,133.68z"/>
		</g>
	</g>
	<path d="M179.18,151.35c0.11-0.13,0.21-0.27,0.32-0.39c2.29-2.78,7.55-10.07,6.6-17.59c-0.03-0.2-0.07-0.4-0.11-0.6l-0.04-0.16
		c-0.18-1.01-0.41-1.84-0.72-2.62c-1.04-2.58-2.47-5.22-4.15-7.64c-1.88-2.7-3.96-5.02-6.2-6.9c-1.7-1.42-3.51-2.58-5.38-3.43
		c-0.36-0.16-0.72-0.31-1.09-0.45c0.47-1.37,1.27-2.73,2.11-4.17c0.92-1.57,1.87-3.21,2.51-5.04c3.65-10.52,4.24-21.42,1.76-32.39
		c-2.42-10.7-7.6-19.86-14.2-25.13c-10.52-8.4-22.86-13.22-33.85-13.22h-0.09l-0.17-0.01h-0.04l-3.69,0.01h-0.09
		c-10.98,0-23.32,4.82-33.84,13.22c-4.67,3.72-8.6,9.34-11.41,16.29c-5.44,2.2-9.47,7.7-12.4,12.36c-9.28,14.68-6.3,30.36,8.17,43
		c1.18,1.03,2.35,2.04,3.63,2.98c0.58,0.43,1.32,0.92,2.17,1.31c-0.28,1.17-0.63,2.37-1,3.61c-0.58,2.01-1.18,4.08-1.52,6.16
		c-1.54,9.63-2.66,22.2,2.38,34.05c5.5,12.94,18.3,20.6,37.01,22.12c1.78,0.14,3.59,0.21,5.4,0.21H125c1.84,0,3.73-0.07,5.48-0.21
		c14.84-1.22,27.37-7.08,34.36-16.12c0.89-1.15,1.72-2.44,2.49-3.88c0.65,0.15,1.32,0.23,2,0.23c1.26,0,2.56-0.28,3.84-0.82
		c0.61-0.26,1.25-0.61,1.91-1.06c0.09-0.06,0.18-0.12,0.28-0.18c0.44-0.32,0.85-0.68,1.24-1.05c0.74-0.74,1.37-1.58,1.88-2.52
		c1.19-2.21,1.63-4.85,1.23-7.44C179.58,153.1,179.41,152.28,179.18,151.35z M177.54,149.34c-0.37,0.46-0.76,0.94-1.14,1.42
		c0.33,1.17,0.61,2.35,0.79,3.52c0.31,2.01-0.01,4.1-0.95,5.85c-0.37,0.7-0.85,1.34-1.42,1.91c-0.28,0.28-0.6,0.55-0.93,0.79
		c-0.08,0.05-0.15,0.1-0.23,0.14c-0.49,0.34-0.99,0.62-1.47,0.83c-1,0.42-1.96,0.61-2.85,0.61c-1.18,0-2.27-0.33-3.24-0.92
		c-0.92,2.04-2,3.93-3.26,5.56c-7.56,9.75-20.68,14.17-32.56,15.14c-1.72,0.14-3.53,0.2-5.26,0.2h-3.73c-1.73,0-3.47-0.06-5.2-0.2
		c-14.41-1.18-28.85-6.4-34.89-20.59c-4.43-10.42-3.95-21.72-2.2-32.66c0.63-3.93,2.35-7.99,2.97-12.04
		c0.01-0.01,0.01-0.02,0.01-0.03c-0.07,0.01-0.13,0.01-0.2,0.01c-0.73,0-1.47-0.26-2.19-0.65h-0.01c-0.14-0.08-0.28-0.16-0.42-0.25
		c-0.16-0.1-0.32-0.2-0.48-0.31c-0.12-0.08-0.23-0.17-0.35-0.25c-0.16-0.12-0.32-0.24-0.48-0.36c-0.21-0.16-0.42-0.32-0.62-0.5
		c-0.38-0.29-0.76-0.61-1.13-0.92c-0.42-0.36-0.82-0.71-1.23-1.07c-0.79-0.69-1.56-1.4-2.28-2.12c-0.27-0.28-0.54-0.55-0.8-0.83
		c-3.02-3.14-5.4-6.52-7.01-10.09c-0.87-1.91-1.52-3.87-1.94-5.88v-0.01c-1.31-6.32-0.27-13.01,3.7-19.77
		c0.2-0.35,0.42-0.7,0.64-1.05c0.27-0.42,0.55-0.85,0.84-1.3c0.1-0.16,0.2-0.32,0.32-0.48c2.74-4.06,6.45-8.54,11.03-9.93
		c0-0.01,0.01-0.02,0.01-0.03c2.39-6.26,6.02-12.27,11.05-16.28c9-7.18,20.79-12.67,32.26-12.67h3.78c0.12,0,0.21,0,0.21,0h0.08
		c11.48,0,23.26,5.48,32.26,12.67c7.02,5.61,11.35,15.07,13.31,23.71c2.37,10.44,1.8,20.99-1.68,31c-1.18,3.4-3.78,6.32-4.78,9.75
		c-0.03,0.1-0.05,0.19-0.08,0.28c-0.15,0.59-0.23,1.17-0.28,1.76c1.01,0.24,2,0.58,2.97,1.01c1.69,0.77,3.3,1.81,4.79,3.07
		c2.18,1.81,4.12,4.04,5.74,6.4c1.63,2.35,2.95,4.83,3.88,7.14c0.28,0.69,0.45,1.4,0.58,2.12c0.04,0.21,0.09,0.42,0.12,0.63
		C184.28,139.28,180.91,145.27,177.54,149.34z"/>
</g>
<g>
	<g>
		<g>
			<path style="fill-rule:evenodd;clip-rule:evenodd;" d="M107.2,81.95c-0.06,0.88,0.82,1.65,1.98,1.73
				c1.16,0.08,2.14-0.57,2.2-1.45c0.06-0.87-0.82-1.65-1.98-1.73S107.26,81.08,107.2,81.95"/>
			<g>
				<path style="fill-rule:evenodd;clip-rule:evenodd;" d="M99.54,79.53L99.54,79.53c1.44,0.1,2.69-1,2.79-2.45l0.03-0.37
					c0.1-1.45-0.99-2.72-2.43-2.81s-2.69,1-2.79,2.46l-0.03,0.37C97.01,78.17,98.1,79.43,99.54,79.53"/>
				<path style="fill-rule:evenodd;clip-rule:evenodd;" d="M121.42,81.02L121.42,81.02c1.57,0.11,2.91-0.98,3.01-2.44l0.03-0.37
					c0.1-1.45-1.09-2.72-2.65-2.83c-1.57-0.11-2.92,0.99-3.02,2.44l-0.03,0.37C118.66,79.65,119.85,80.92,121.42,81.02"/>
			</g>
		</g>
	</g>
	<path d="M121.53,91.5c-0.37-0.44-1.03-0.5-1.47-0.13c-0.2,0.16-0.32,0.39-0.36,0.62c-0.17,0.03-0.39,0.06-0.71,0.08
		c-1.51,0.14-4.29-0.83-6.07-1.85c-1.5-0.86-2.45-1.68-3.58-2.82c-0.04-0.05-0.1-0.07-0.15-0.1c-0.06-0.04-0.11-0.09-0.17-0.12
		c-0.07-0.03-0.14-0.04-0.22-0.05c-0.06-0.01-0.11-0.03-0.17-0.03c-0.07,0-0.14,0.02-0.21,0.03c-0.06,0.01-0.13,0.01-0.19,0.04
		c-0.06,0.02-0.12,0.07-0.17,0.1c-0.05,0.03-0.12,0.05-0.17,0.1c-0.81,0.74-1.39,1.2-2.32,1.62c-1.5,0.69-3.11,1.32-4.67,1.3
		c-0.42-0.01-0.9-0.06-1.25-0.12c-0.05-0.2-0.15-0.38-0.31-0.52c-0.42-0.39-1.08-0.36-1.48,0.06c-0.4,0.43-0.51,0.98-0.3,1.47
		c0.12,0.29,0.43,1.02,2.67,1.17c0.2,0.01,0.4,0.02,0.63,0.03c1.98,0.03,3.85-0.7,5.58-1.49c0.85-0.39,1.47-0.8,2.12-1.33
		c0.97,0.92,1.95,1.69,3.32,2.48c1.46,0.83,4.16,1.97,6.37,2.12c0.34,0.02,0.68,0.02,0.99-0.01c1.12-0.1,2.2-0.31,2.56-1.17
		C121.91,92.75,122.07,92.14,121.53,91.5z"/>
</g>
<path style="fill:#ABDDE8;" d="M142.63,72.3c-0.39,0-0.76-0.09-1.11-0.28c-0.68-0.37-1.23-1.08-1.49-1.96
	c-0.42-1.42-0.13-2.82,0.16-4.18c0.21-0.97,0.4-1.89,0.31-2.73c-0.05-0.46,0.29-0.88,0.75-0.93c0.43-0.04,0.88,0.28,0.93,0.75
	c0.12,1.11-0.11,2.2-0.34,3.26c-0.25,1.2-0.49,2.34-0.2,3.34c0.13,0.44,0.39,0.8,0.67,0.95c0.17,0.09,0.35,0.1,0.57,0.04
	c0.71-0.21,0.76-1.73,0.79-2.74c0.01-0.24,0.01-0.47,0.03-0.67c0.03-0.47,0.39-0.83,0.9-0.79c0.47,0.03,0.82,0.44,0.79,0.9
	c-0.01,0.18-0.02,0.39-0.03,0.61c-0.04,1.4-0.12,3.74-1.99,4.31C143.13,72.26,142.88,72.3,142.63,72.3z"/>
</svg>
