<?xml version="1.0" encoding="UTF-8"?>
<svg xmlns="http://www.w3.org/2000/svg" version="1.1" viewBox="0 0 390 390">
  <!-- Generator: Adobe Illustrator 28.7.1, SVG Export Plug-In . SVG Version: 1.2.0 Build 142)  -->
  <g>
    <g id="_레이어_1" data-name="레이어_1">
      <g>
        <g>
          <path d="M308.4,221c1.2.1,2.5.1,3.8,0-3.2,11-8.4,21.3-15.3,30.5-16.8,22.4-48.6,41.7-77.6,38.4-30.2-3.4-19.3-39.7-8.3-57.4,8.2-13.1,20.3-23.9,34.8-29.5,10.2-3.9,21-5.5,31.7-7.9-.1.8,0,1.7.2,2.4,1.1,2.8,4.9,3.2,7.9,2.9.6,0,1.3-.1,1.8.1,1.3.7,1.1,2.5,1.2,4,0,2.6,1.6,5,3.8,6.2,2.2,1.2,5.1,1.1,7.3-.2-.3,1.8-.7,3.7,0,5.5,1.1,3.4,5.2,4.7,8.7,5.1Z" style="fill: #ec7f3b;"/>
          <path d="M277.6,195c1.7-.4,3.4-.8,5.1-1.2,12.3-3.2,24.7-8.8,31.9-19.3,3,15.4,2,31.5-2.5,46.5-1.3.2-2.5.2-3.8,0-3.5-.4-7.6-1.7-8.7-5.1-.6-1.7-.2-3.6,0-5.5-2.2,1.3-5,1.4-7.3.2-2.2-1.2-3.7-3.6-3.8-6.2,0-1.5.2-3.3-1.2-4-.5-.3-1.2-.2-1.8-.1-3,.3-6.8-.1-7.9-2.9-.3-.8-.3-1.6-.2-2.4h0Z" style="fill: #fff;"/>
        </g>
        <path d="M225.8,292.3c-2.3,0-4.5-.1-6.7-.4-9.2-1-15.6-5.1-19-11.9-7.3-15.2,2.7-38.5,9.1-48.7,8.7-14,21.4-24.8,35.9-30.4,7.7-3,15.9-4.7,23.8-6.3,2.7-.6,5.5-1.1,8.2-1.8,0,0,0,0,0,0,0,0,0,0,0,0,1.7-.4,3.3-.8,4.9-1.2,14.8-3.9,24.9-10,30.7-18.5.5-.7,1.3-1,2.2-.9.8.2,1.5.8,1.6,1.7,3,15.6,2.1,32-2.5,47.5-3.3,11.3-8.6,21.8-15.6,31.1-15.4,20.5-44.5,39.6-72.8,39.6ZM278.1,197s0,0,0,0c-2.8.6-5.5,1.2-8.3,1.8-7.7,1.6-15.7,3.2-23.1,6.1-13.6,5.3-25.6,15.5-33.8,28.7-6.9,11.1-14.9,32.1-8.9,44.6,2.7,5.5,7.9,8.7,15.6,9.6,28.7,3.3,59.8-16.4,75.6-37.6,6.7-8.9,11.7-19,14.9-29.8,4-13.3,5.1-27.3,3.2-40.8-6.6,7.3-16.5,12.7-30,16.3-1.7.5-3.4.8-5.1,1.2,0,0,0,0,0,0Z"/>
      </g>
      <g>
        <g>
          <path d="M219.1,366.7c3.1-2.6,8.2-4,12-2.2.2,0,.4.2.5.3,5,10.7-4.6,18.8-15.2,19-8.2.2-31.9,4.1-35.4-6.1-.8-2.4-.8-5-.7-7.6,0-.8,0-1.7,0-2.5,1.1-.8,2.3-1.4,3.6-1.7,2.2-.5,4.8-.2,6.8.8,1,.5,2,1.2,3,.8s.8-.5,1.2-.8c2.6-2.1,7-1.6,9.1,1,3.2-3,8.5-3.4,12-.9.5.3.9.7,1.4.7s1.1-.5,1.5-.8Z" style="fill: #9d4810;"/>
          <path d="M231.1,364.5c-3.8-1.8-8.9-.5-12,2.2-.5.4-1,.8-1.5.8s-1-.4-1.4-.7c-3.6-2.5-8.9-2.1-12,.9-2.1-2.6-6.4-3.1-9.1-1-.4.3-.7.7-1.2.8-1,.4-2-.4-3-.8-2-1-4.6-1.3-6.8-.8-1.3.3-2.5.9-3.6,1.7.4-17.4,1.5-34.8,1.5-52.1s-1.2-13.2,2.4-17c3.1-3.2,10.9-1.6,15,0,3.5,15.6,6.9,31.1,10.4,46.6.3,1.4.7,3,1.6,4.1,1,1.1,2.3,1.7,3.6,2.2,6,2.6,12.1,5.9,15.6,11.4.4.6.7,1.3,1,1.9-.1-.1-.3-.2-.5-.3Z" style="fill: #ec7f3b;"/>
        </g>
        <path d="M199.5,386.9c-9.1,0-18-1.5-20.4-8.5-.9-2.8-.9-5.6-.8-8.3,0-.8,0-1.7,0-2.5.1-7.2.4-14.5.7-21.7.4-10,.8-20.3.8-30.4s0-1.9,0-3c-.2-5.2-.5-11.7,3-15.5,4-4.2,12.8-2.3,17.3-.5l1.1.4.2,1.1c1.9,8.6,3.8,17.1,5.7,25.7l4.7,21c.2,1.1.5,2.4,1.2,3.2.6.7,1.6,1.1,2.7,1.6,6.2,2.7,12.9,6.2,16.7,12.3.4.7.8,1.5,1.2,2.2,2.2,4.7,2.1,9.5-.4,13.5-3.1,5-9.6,8.4-16.6,8.5-1.4,0-3.2.2-5.3.3-3.5.3-7.7.6-11.7.6ZM190.1,298.7c-1.9,0-3.5.4-4.3,1.2-2.3,2.5-2.1,8.2-1.9,12.4,0,1.2,0,2.2,0,3.2,0,10.2-.4,20.5-.8,30.5-.3,7.2-.6,14.4-.7,21.6h0c0,.8,0,1.6,0,2.4,0,2.5,0,4.8.6,6.9,2.3,6.9,18.9,5.7,27.8,5,2.2-.2,4.1-.3,5.5-.3,5.6-.1,10.7-2.7,13.1-6.5,1.7-2.8,1.8-6.1.2-9.5-.3-.6-.6-1.2-.9-1.7-3.2-5.1-9.2-8.3-14.6-10.6-1.6-.7-3.2-1.4-4.4-2.8-1.3-1.6-1.8-3.6-2.1-5l-4.7-21c-1.8-8.2-3.6-16.3-5.5-24.5-2.4-.8-5.2-1.3-7.4-1.3Z"/>
      </g>
      <g>
        <g>
          <path d="M123.5,366.7c-3.1-2.6-8.2-4-12-2.2-.2,0-.4.2-.5.3-5,10.7,4.6,18.8,15.2,19,8.2.2,31.9,4.1,35.4-6.1.8-2.4.8-5,.7-7.6,0-.8,0-1.7,0-2.5-1.1-.8-2.3-1.4-3.6-1.7-2.2-.5-4.8-.2-6.8.8-.9.5-2,1.2-3,.8-.5-.2-.8-.5-1.2-.8-2.6-2.1-6.9-1.6-9,1-3.2-3-8.5-3.4-12-.9-.5.3-.9.7-1.4.7s-1.1-.5-1.5-.8Z" style="fill: #9d4810;"/>
          <path d="M151.8,366.8c2-1,4.6-1.3,6.8-.8,1.3.3,2.5.9,3.6,1.7-.4-17.4-1.5-34.8-1.5-52.1s1.2-13.2-2.4-17c-3.1-3.2-10.9-1.6-15,0-3.5,15.6-6.9,31.1-10.4,46.6-.3,1.4-.7,3-1.6,4.1-1,1.1-2.3,1.7-3.6,2.2-6,2.6-12.1,5.9-15.6,11.4-.4.6-.7,1.3-1,1.9.1-.1.3-.2.5-.3,3.8-1.8,8.9-.5,12,2.2.5.4,1,.8,1.5.8s1-.4,1.4-.7c3.6-2.5,8.9-2.1,12,.9,2.1-2.6,6.4-3.1,9-1,.4.3.8.7,1.2.8,1,.4,2.1-.4,3-.8Z" style="fill: #ec7f3b;"/>
        </g>
        <path d="M143.1,386.9c-4.1,0-8.2-.3-11.7-.6-2.1-.2-3.9-.3-5.3-.3-7-.1-13.5-3.5-16.6-8.5-2.5-4-2.7-8.9-.4-13.6.3-.7.7-1.4,1.1-2.1,3.8-6.2,10.5-9.7,16.6-12.3,1.2-.5,2.3-1,2.9-1.7.6-.7.9-2,1.2-3.2l4.7-21c1.9-8.5,3.8-17.1,5.7-25.7l.2-1.1,1.1-.4c4.6-1.8,13.4-3.7,17.3.5,3.5,3.8,3.2,10.3,3,15.5,0,1.1,0,2.1,0,3,0,10.1.4,20.4.8,30.4.3,7.2.6,14.4.7,21.7,0,.8,0,1.7,0,2.5,0,2.7,0,5.5-.8,8.3-2.3,6.9-11.3,8.5-20.4,8.5ZM145,300.1c-1.8,8.2-3.6,16.4-5.5,24.5l-4.7,21c-.3,1.4-.8,3.4-2.1,5-1.2,1.4-2.8,2.1-4.2,2.7-5.6,2.4-11.6,5.5-14.8,10.7-.3.5-.6,1.1-.9,1.7-1.6,3.5-1.6,6.8.2,9.6,2.4,3.8,7.5,6.4,13.1,6.5,1.4,0,3.3.2,5.5.3,8.9.7,25.5,1.9,27.8-5,.7-2.1.7-4.4.6-6.9,0-.8,0-1.6,0-2.4h0c-.1-7.3-.4-14.5-.7-21.7-.4-10-.8-20.3-.8-30.5s0-2,0-3.2c.2-4.2.4-10-1.9-12.4-1.7-1.8-7.2-1.4-11.7.1Z"/>
      </g>
      <g>
        <path d="M222.9,266.8c4.8,12.5,10.5,24.8,17,36.6-20.7,11.1-45.1,12.4-68.6,13.4-23.5-1.1-47.9-2.3-68.6-13.4,6.5-11.8,12.2-24,17-36.6h103.2Z" style="fill: #4c6599;"/>
        <path d="M171.4,318.9c-22.7-1-48.2-2.1-69.7-13.7-.5-.3-.9-.7-1-1.3-.2-.5,0-1.1.2-1.6,6.4-11.7,12.1-23.9,16.9-36.3.3-.8,1.1-1.4,2-1.4h103.2c.9,0,1.7.5,2,1.4,4.8,12.4,10.5,24.6,16.9,36.3.3.5.3,1.1.2,1.6-.2.5-.5,1-1,1.3-21.6,11.5-47,12.7-69.5,13.7ZM105.6,302.4c20.3,10.2,44.5,11.3,65.8,12.2,21.2-1,45.3-2,65.6-12.2-5.9-10.8-11.1-22.1-15.6-33.6h-100.3c-4.5,11.5-9.7,22.7-15.6,33.6Z"/>
      </g>
      <g>
        <g>
          <path d="M233.1,205.6c4.5,3.6,7.8,8.3,11.6,13.8-7.9,8.6-16.6,16.6-25.9,23.6-4-3.7-2.8-2.9-5.9-7.4-5.4-7.8-10.5-16.7-9.4-26.1,1.2-10.7,10.9-12.2,19.6-9.3,4,1.3,7.3,3.1,10,5.4Z" style="fill: #fff;"/>
          <path d="M218.8,245.2c-.5,0-1-.2-1.4-.6-2.9-2.6-3.3-3.2-4.4-4.9-.4-.6-.9-1.5-1.8-2.8-5.8-8.4-11-17.5-9.8-27.5.5-4.6,2.6-8.2,5.9-10.3,4.1-2.6,10.1-2.9,16.5-.8,4.1,1.3,7.6,3.2,10.7,5.7h0c4.6,3.7,8,8.5,12,14.3.6.8.5,1.9-.2,2.6-8,8.7-16.8,16.8-26.1,23.9-.4.3-.8.4-1.3.4ZM215.7,201.1c-2.4,0-4.5.5-6.1,1.5-2.2,1.4-3.6,3.8-4,7.2-1,8.6,3.8,17,9.1,24.7,1,1.4,1.5,2.3,2,3,.7,1.1.9,1.5,2.3,2.8,8.2-6.4,16-13.4,23-21.1-3.5-5-6.4-8.9-10.2-12-2.7-2.2-5.8-3.8-9.4-5-2.3-.8-4.6-1.2-6.7-1.2Z"/>
        </g>
        <g>
          <path d="M111,205.6c-4.5,3.6-7.8,8.3-11.6,13.8,7.9,8.6,16.6,16.6,25.9,23.6,4-3.7,2.8-2.9,5.9-7.4,5.4-7.8,10.5-16.7,9.4-26.1-1.2-10.7-10.9-12.2-19.6-9.3-4,1.3-7.3,3.1-10,5.4Z" style="fill: #fff;"/>
          <path d="M125.2,245.2c-.4,0-.9-.1-1.3-.4-9.4-7.1-18.2-15.2-26.1-23.9-.7-.7-.7-1.8-.2-2.6,4-5.8,7.4-10.6,12-14.3h0c3.1-2.5,6.6-4.4,10.7-5.7,6.3-2.1,12.3-1.8,16.5.8,3.3,2.1,5.3,5.7,5.9,10.3,1.2,10-4,19.2-9.8,27.5-.9,1.3-1.4,2.2-1.8,2.8-1.1,1.7-1.5,2.3-4.4,4.9-.4.4-.9.6-1.4.6ZM102.1,219.2c7.1,7.6,14.8,14.7,23,21.1,1.4-1.3,1.6-1.7,2.3-2.8.4-.7,1-1.6,2-3,5.3-7.7,10.1-16,9.1-24.7-.4-3.3-1.7-5.8-4-7.2-3-1.9-7.8-2.1-12.9-.4-3.6,1.2-6.6,2.8-9.4,5-3.8,3.1-6.7,7-10.2,12Z"/>
        </g>
        <g>
          <path d="M218.5,236.3c-2.3-9.7-4-19.8-8.6-28.7-4.7-8.9-13.2-16.5-23.2-16.8-4.2-.1-11.2,2-15.4,1.7-4.2.2-11.2-1.9-15.4-1.7-10,.3-18.6,7.9-23.2,16.8-4.7,8.9-6.3,18.9-8.6,28.7-2.2,9.3-5.2,24.9-8.8,33.7-1.9,6.3,115.1,7.5,112,0-3.6-8.9-6.6-24.4-8.8-33.7Z" style="fill: #fff;"/>
          <path d="M172.5,277.3c-26.4,0-53.2-1.6-57.9-4.7-1.8-1.2-1.5-2.8-1.4-3.2,2.8-6.8,5.2-17.5,7.1-26.1.6-2.8,1.2-5.3,1.7-7.6.5-1.9.9-3.8,1.3-5.7,1.8-7.9,3.6-16.1,7.5-23.5,4.4-8.5,13.3-17.6,25-17.9,2.2,0,4.9.4,7.8.9,2.8.5,5.6,1,7.5.9,2.2.1,5-.4,7.8-.9,2.9-.5,5.6-1,7.8-.9,11.7.3,20.6,9.4,25,17.9,3.9,7.4,5.7,15.6,7.5,23.5.4,1.9.9,3.8,1.3,5.7h0c.5,2.2,1.1,4.8,1.7,7.5,1.9,8.6,4.3,19.3,7,25.9.4,1,.3,2.4-1,3.5-3.8,3.1-29.6,4.6-55.8,4.6ZM117.7,269.5c11.3,4.7,97.3,4.9,107.2.3-2.7-6.9-5-17.2-6.8-25.6-.6-2.7-1.2-5.3-1.7-7.5h0c-.5-1.9-.9-3.8-1.3-5.8-1.7-7.6-3.5-15.5-7.1-22.4-3.9-7.4-11.5-15.4-21.4-15.6-1.8,0-4.4.4-7,.8-3,.5-6.1,1-8.5.9-2.2.1-5.3-.4-8.3-.9-2.5-.4-5.2-.9-7-.8-9.9.2-17.5,8.2-21.4,15.6-3.6,6.9-5.4,14.8-7.1,22.5-.4,1.9-.9,3.8-1.3,5.7-.5,2.2-1.1,4.8-1.7,7.5-1.8,8.2-4.1,18.3-6.7,25.3Z"/>
        </g>
        <g>
          <path d="M168,223.4c.3.3.6.6.7,1,.1.4,0,.9-.1,1.3-2,6.9-4.3,13.6-6.9,20.3-.2.5-.4,1-.4,1.6,0,.6.3,1.1.6,1.6,2.3,4.1,5,8.1,7.9,11.9.3.4.6.8,1.1,1,3.5,1.8,7.4-6.5,8.7-8.7,1.6-2.7,2.8-5,2.1-8.2-.6-3-2.4-5.7-3.5-8.6-1.3-3.5-3.1-7.7-3.2-11.4,0-.6.4-1.1.8-1.6,1.3-1.6,2.7-3.1,3.7-5,1-1.8,1.4-4,.7-6-1.7-4.8-8.5-4.8-11.7-1.7-1.3,1.3-2.6,3.2-3.7,4.7-2.1,2.9.9,5.5,3.1,7.6Z" style="fill: #4c6599;"/>
          <path d="M172,264.5c-.7,0-1.3-.2-2-.5-.9-.4-1.4-1.1-1.8-1.6-3-3.8-5.7-7.9-8-12.1-.3-.6-.8-1.5-.9-2.5,0-1,.3-1.8.5-2.5,2.5-6.6,4.8-13.4,6.8-20.2,0,0,0,0,0,0,0,0,0,0,0,0,0,0,0,0,0,0l-.3-.2c-2.3-2.2-6.1-5.8-3.1-10.1l.5-.8c1-1.4,2.1-3,3.4-4.3,2.4-2.3,6.2-3.3,9.5-2.5,2.8.6,4.8,2.4,5.8,5,.8,2.3.5,5-.9,7.7-.9,1.7-2.1,3.1-3.3,4.5l-.7.8c-.2.3-.3.4-.3.4.1,2.7,1.5,6.2,2.6,9.3l.5,1.2c.4,1,.9,2,1.3,3,.9,1.8,1.8,3.7,2.2,5.9.8,3.9-.6,6.8-2.4,9.8-.2.3-.3.6-.6,1-1.8,3.3-4.9,8.9-8.9,8.9ZM169.5,221.9c.4.4,1,1,1.3,1.9.3,1.1,0,2-.1,2.5-2.1,6.9-4.4,13.8-6.9,20.5,0,.2-.2.6-.2.7,0,.1.2.5.3.7,2.3,4,4.9,7.9,7.7,11.6.1.1.3.4.4.5.1,0,1.3.4,5.3-6.7.3-.5.5-.9.7-1.1,1.5-2.5,2.4-4.2,1.9-6.7-.4-1.7-1.1-3.3-1.9-4.9-.5-1.1-1-2.2-1.5-3.4l-.5-1.2c-1.3-3.4-2.8-7.2-2.9-10.9,0-1.5.8-2.5,1.3-3l.7-.8c1.1-1.3,2.1-2.5,2.8-3.8.8-1.5,1-3.1.6-4.3-.5-1.5-1.8-2.1-2.7-2.3-1.9-.5-4.2.2-5.6,1.5-1,.9-2,2.4-2.9,3.7l-.6.8c-.7,1-.2,2,2.6,4.6l.3.3-1.5,1.5,1.5-1.5ZM166.8,225.2h0,0Z"/>
        </g>
        <g>
          <path d="M143.3,198.6c0,8.2,7.1,16.8,13.6,20.7,2.7,1.6,3.2,2,5.9.7,3.4-1.6,6.7-5,9.2-7.4,2.7,2.2,5.4,7.9,8.8,8.9,4.6,1.3,11.3-6.4,14-9.4,3.9-4.4,6.5-9.9,4.5-15.8-4.1-12-17.5-16.7-29.2-16.1-8.3.4-19.3,3.8-24.3,10.9-1.7,2.4-2.5,4.9-2.5,7.5Z" style="fill: #fff;"/>
          <path d="M181.9,223.7c-.6,0-1.1,0-1.7-.2-2.8-.8-4.9-3.6-6.8-6-.5-.7-1-1.4-1.5-1.9-2.4,2.3-5.2,4.9-8.3,6.3-3.5,1.7-4.8,1-7.7-.7-7.5-4.6-14.9-13.7-14.8-22.7h0c0-3.2,1-6.1,2.9-8.7,5.5-7.5,17-11.3,26-11.7,12.4-.6,26.9,4.6,31.3,17.6,1.9,5.8.2,11.9-4.9,17.8-4.3,4.9-9.7,10.2-14.5,10.2ZM172,210.5c.5,0,.9.2,1.3.5,1.3,1,2.4,2.5,3.5,4,1.5,1.9,3.1,4.1,4.6,4.5,1.2.4,4.4-.3,11.8-8.7,4.2-4.8,5.6-9.4,4.1-13.7-3.7-10.9-16.2-15.2-27.1-14.7-7.7.4-18.1,3.6-22.7,10-1.4,1.9-2.1,4-2.1,6.3,0,7.3,6.4,15.2,12.6,18.9q2.2,1.4,3.9.6c2.7-1.3,5.4-3.9,7.7-6.1l1-.9c.4-.4.9-.6,1.5-.6Z"/>
        </g>
      </g>
      <g>
        <g>
          <g>
            <path d="M254.3,168.3h-.1c.7.1-6.2,7.6-6.7,8.1-3,2.7-6.1,5.3-9.3,7.7-6.6,4.9-13.7,9-21.2,12.4-14.9,6.8-31.3,10.8-47.8,10.9-16.5-.1-32.9-4.1-47.9-10.9-7.4-3.4-14.5-7.5-21.1-12.4-3.2-2.4-6.4-4.9-9.4-7.7-.5-.5-7.4-8-6.7-8.1h-.1c5.7-3.7,12-6.4,18.6-8.1,5.6-1.4,11.4-2.1,17.2-2.6,17.2-1.4,29-10.4,49.3-10.4s32.1,9,49.3,10.4c5.8.5,11.5,1.2,17.2,2.6,6.6,1.7,12.9,4.4,18.6,8.1Z" style="fill: #fff;"/>
            <path d="M240.8,54.6c-1.6-1.5-2.7-3.6-3.1-5.8-1.2,1.2-2.5,2.4-4.2,3s-3.7.1-4.6-1.3c-1.1-1.7-.2-4-.7-6-1.5,1.2-3,2.4-4.9,2.7-1.9.4-4-.2-4.9-1.9-.5-1-.4-2.1-.3-3.2.1-2.3.3-4.6.5-6.9l-1.3-1.1c4.6-5.4,9.3-10.8,13.6-16.5,7.2-9.6,11.5.4,13.6,8.1,1.9,7.2,3.3,14.5,4,21.8,0,.9.1,1.8.2,2.7h-1c0,.8,0,1.6-.1,2.4-.4,1.7-1.7,3.3-3.4,3.4-1.2,0-2.4-.6-3.3-1.4Z" style="fill: #9d4810;"/>
            <path d="M100.6,48.7c-.4,2.2-1.5,4.3-3.1,5.8-.9.8-2,1.5-3.3,1.4-1.7,0-3.1-1.7-3.4-3.4-.1-.7-.2-1.5,0-2.3h-1c0-1,.1-1.9.2-2.8.7-7.4,2.1-14.6,4-21.8,2-7.8,6.3-17.7,13.6-8.1,4.3,5.7,9,11.1,13.6,16.5l-1.3,1.1c.1,2.3.3,4.6.5,6.9,0,1.1.1,2.3-.3,3.2-.8,1.7-3,2.3-4.9,1.9s-3.4-1.6-4.9-2.7c-.5,2,.4,4.2-.7,6-.9,1.4-3,1.8-4.6,1.3s-3-1.8-4.2-3Z" style="fill: #9d4810;"/>
            <path d="M97.5,54.6c1.7-1.5,2.8-3.6,3.1-5.8,1.2,1.2,2.6,2.4,4.2,3s3.7.1,4.6-1.3c1.1-1.7.2-4,.7-6,1.5,1.2,3,2.4,4.9,2.7s4-.2,4.9-1.9c.5-1,.4-2.1.3-3.2-.2-2.3-.4-4.6-.5-6.9l1.3-1.1c1,1.1,1.9,2.2,2.8,3.3,7.9,9.5,15.8,19,23.7,28.5,8-1.2,13.6-2,21.6-2,8.1,0,13.6.8,21.6,2,7.9-9.5,15.8-19,23.7-28.5.9-1.1,1.8-2.2,2.8-3.3l1.3,1.1c-.2,2.3-.4,4.6-.5,6.9-.1,1.1-.2,2.3.3,3.2.8,1.7,3,2.3,4.9,1.9,1.8-.4,3.4-1.6,4.9-2.7.5,2-.4,4.2.7,6,.9,1.4,3,1.8,4.6,1.3s3-1.8,4.2-3c.4,2.2,1.5,4.3,3.1,5.8.9.8,2.1,1.5,3.3,1.4,1.8,0,3.1-1.7,3.4-3.4.2-.8.2-1.5.1-2.3h1c1.2,15.9-1,32.6-9.9,46.2,4.3,7.9,7.6,16.3,10.5,24.8,1.4,4.3,2.7,8.7,4,13.2,1.5,5.4,2.3,4.5,7.3,6.3.9.3,1.8.8,2.3,1.6.2.4.3.9.4,1.4,0,2.5-2.1,4.8-4.5,5.1,1.5.6,3.4.9,4.8,2,1.3,1.1,1.7,3.1,1,4.6-1.3,2.6-4.5,1.8-6.9,1.8.7.5,1.3.9,1.8,1.4,1.7,1.7,2.1,4.5,1,6.7-1.1,2.1-3.5,3.4-5.8,3h0c-5.7-3.7-12-6.4-18.6-8.1-5.6-1.4-11.4-2.1-17.2-2.6-17.2-1.4-29.1-10.4-49.3-10.4s-32.1,9-49.3,10.4c-5.8.5-11.6,1.2-17.2,2.6-6.6,1.7-12.9,4.4-18.6,8.1h0c-2.3.4-4.8-1-5.8-3-1.1-2.1-.7-4.9.9-6.7.6-.6,1.2-1,1.9-1.4-2.4,0-5.5.8-6.9-1.8-.8-1.5-.4-3.6,1-4.6,1.3-1.1,3.2-1.3,4.8-2-2.4-.3-4.5-2.5-4.5-5.1,0-.5.1-1,.3-1.4.5-.8,1.4-1.3,2.3-1.6,5-1.7,5.7-.9,7.3-6.3,1.2-4.4,2.5-8.8,4-13.2,2.9-8.5,6.1-16.9,10.5-24.8-8.9-13.6-11.1-30.3-9.9-46.2h1c-.1.8,0,1.6,0,2.4.4,1.7,1.7,3.3,3.4,3.4,1.2,0,2.4-.6,3.3-1.4Z" style="fill: #ec7f3b;"/>
          </g>
          <g>
            <path d="M169.1,209.5c-16.2-.1-33.1-3.9-48.8-11.1-7.6-3.5-14.8-7.7-21.5-12.6-3.3-2.4-6.5-5.1-9.5-7.8-4.6-4.6-6.4-7.1-7.1-8.6-.2-.3-.4-.7-.4-1.1,0-1.2.9-2.1,2.1-2.1h0c1,0,1.9.7,2.1,1.7,1,1.5,5.4,6.3,6.1,7,2.9,2.6,6,5.1,9.1,7.5,6.4,4.7,13.4,8.8,20.7,12.1,15.2,6.9,31.4,10.6,47,10.7,15.6,0,31.8-3.8,46.9-10.7,7.3-3.3,14.3-7.4,20.8-12.1,3.2-2.4,6.3-4.9,9.2-7.5.6-.6,5-5.4,6-6.9.2-1,1-1.7,2.1-1.7s2.2.9,2.2,2.1-.2,1-.5,1.4c-1.6,3.3-6.8,8.2-6.9,8.3-3,2.7-6.2,5.4-9.5,7.8-6.7,4.9-14,9.1-21.5,12.6-15.7,7.2-32.5,11-48.7,11.1h0Z"/>
            <path d="M255,170.4h-1.1c-1.2-.2-1.9-1.3-1.8-2.4.2-1.2,1.3-1.9,2.4-1.8,1.5.2,3-.6,3.6-1.9.7-1.3.4-3.2-.6-4.2s-.9-.8-1.5-1.2c-.8-.5-1.1-1.5-.8-2.4s1.1-1.5,2-1.5h1.6c2.3.2,3,0,3.4-.7.3-.6.1-1.6-.5-2.1-.5-.4-1.4-.7-2.3-1-.7-.2-1.3-.4-1.9-.7-.9-.4-1.4-1.3-1.2-2.2.1-.9.9-1.7,1.8-1.8,1.4-.2,2.6-1.6,2.6-3v-.4c0-.1-.2-.3-1.2-.6-.8-.3-1.5-.5-2.1-.7-3.9-1.2-5-2-6.4-7s-2.7-9.2-3.9-13.1c-3.3-9.8-6.6-17.5-10.3-24.4-.4-.7-.3-1.5,0-2.2,7.7-11.8,10.9-26.9,9.6-45,0-.9-.1-1.8-.2-2.6-.7-6.9-1.9-13.9-3.9-21.5-1.9-7.3-4.2-10.2-5.6-10.5-1-.2-2.6.9-4.2,3.1-3.5,4.6-7.3,9.1-11,13.4l-2.7,3.2c-.9,1.1-1.8,2.1-2.7,3.1-8,9.6-15.9,19.1-23.8,28.6-.5.6-1.2.9-1.9.7-7.6-1.2-13.2-1.9-21.3-1.9s-13.7.8-21.3,1.9c-.7,0-1.5-.2-1.9-.7l-24.1-28.9c-.8-.9-1.6-1.9-2.4-2.8l-2.7-3.1c-3.7-4.3-7.5-8.8-11.1-13.4-1.6-2.2-3.1-3.3-4.2-3.1-1.5.3-3.7,3.2-5.6,10.5s-3.2,14.5-3.9,21.5v.3c0,.8,0,1.5-.2,2.3-1.4,18.1,1.9,33.2,9.6,45,.4.7.5,1.5,0,2.2-3.7,6.8-7,14.5-10.3,24.4-1.3,3.9-2.5,8-3.9,13.1-1.4,5-2.6,5.9-6.4,7-.6.2-1.3.4-2.2.7-1,.3-1.1.5-1.2.6v.4c0,1.4,1.2,2.8,2.6,3,.9.1,1.7.8,1.8,1.8,0,.9-.4,1.9-1.3,2.2-.6.3-1.3.5-1.9.7-.9.3-1.8.6-2.3,1-.5.5-.7,1.4-.4,2.1.3.7,1,.8,3.3.6h1.6c.9,0,1.7.6,2,1.5s0,1.8-.8,2.4c-.6.4-1.1.8-1.6,1.2-1,1-1.2,2.9-.5,4.2s2.3,2.1,3.7,1.9c1.1-.2,2.2.6,2.4,1.8.2,1.2-.6,2.2-1.8,2.4-3.2.5-6.6-1.3-8-4.1-1.1-2.1-1.1-4.8,0-7-1.5-.3-3-1-3.9-2.9-1.2-2.4-.6-5.5,1.4-7.2.4-.3.8-.6,1.2-.8-1.1-1.3-1.8-2.9-1.7-4.7,0-.8.2-1.6.5-2.3.9-1.7,2.8-2.4,3.5-2.6.9-.3,1.7-.5,2.3-.7,1.8-.5,3-1.9,3.6-4.1,1.4-5.1,2.7-9.3,4-13.3,3.2-9.6,6.4-17.3,10-24-7.7-12.4-11-28-9.6-46.5v-2.8c.7-7.3,2.1-14.7,4.1-22.2,2.2-8.4,5.1-12.8,8.9-13.6,2.8-.6,5.6,1,8.4,4.7,3.4,4.5,7.2,9,10.9,13.2l2.7,3.1c.8.9,1.6,1.9,2.4,2.9l23.3,28c7.2-1.1,12.8-1.8,20.8-1.8s13.5.7,20.8,1.8c7.6-9.2,15.3-18.4,23-27.6,1-1.2,1.9-2.2,2.8-3.3l2.7-3.1c3.6-4.3,7.4-8.7,10.8-13.2,2.8-3.7,5.6-5.2,8.4-4.7,3.8.7,6.7,5.2,8.9,13.6,2,7.8,3.4,15.1,4,22.2,0,.9.1,1.9.2,2.8,1.4,18.4-1.9,34-9.6,46.4,3.6,6.8,6.8,14.5,10,24,1.3,4,2.6,8.2,4,13.3.6,2.2,1.8,3.6,3.6,4.1.7.2,1.4.4,2.3.7,1.3.5,2.7,1.1,3.5,2.6.4.7.6,1.6.6,2.3,0,1.8-.7,3.5-1.8,4.8.4.2.8.5,1.2.8,2.1,1.8,2.7,4.8,1.5,7.2-1,1.9-2.5,2.7-4,2.9,1,2.2,1,4.9-.1,7-1.3,2.5-4.1,4.2-6.9,4.2h.2Z"/>
          </g>
        </g>
        <g>
          <path d="M207.7,70.2s6.3-4.9,8.3-2c2,2.8-.9,7.7-.9,7.7,0,0,10.6-1.6,8,2l-2.6,3.7s6.1,3.7,8.1,5.7,13-33,6.9-44.8c0,0-2-2-4.5,0s-23.4,27.7-23.4,27.7Z" style="fill: #fff;"/>
          <path d="M228.8,89.4c-.6,0-1.2-.2-1.7-.7-1.5-1.5-6.1-4.4-7.7-5.4-.5-.3-.9-.8-1-1.4-.1-.6,0-1.2.3-1.7l1.9-2.7c-1.3,0-3.4,0-5.3.3-.8.1-1.6-.2-2.1-.9-.5-.7-.5-1.6,0-2.3.7-1.2,1.9-4.1,1-5.4-.6-.2-3.2.8-5.3,2.5-.8.7-2.1.6-2.8-.2-.7-.8-.8-2-.1-2.8,2.2-2.6,21.2-25.9,23.7-28,2.9-2.4,6-1.2,7.3.1.2.2.3.3.4.5,6.1,11.7-3,44.4-7.1,47.4-.5.3-1,.5-1.5.5ZM223.5,80.9c1.4.9,3.4,2.2,5,3.4,2.9-6.2,9.8-31,5.4-40.5-.6-.4-1.2,0-1.4.3-1.3,1.1-10.3,11.8-17.9,21,.1,0,.2,0,.3,0,1.2.2,2.2.8,2.9,1.7,1.4,2,1.3,4.5.7,6.5,3.6-.2,5.8.5,6.7,1.9.3.5.9,2-.4,3.8l-1.3,1.8Z"/>
        </g>
        <g>
          <path d="M130.6,70.2s-6.3-4.9-8.3-2c-2,2.8.9,7.7.9,7.7,0,0-10.6-1.6-8,2l2.6,3.7s-6.1,3.7-8.1,5.7-13-33-6.9-44.8c0,0,2-2,4.5,0,2.4,2,23.4,27.7,23.4,27.7Z" style="fill: #fff;"/>
          <path d="M109.5,89.4c-.5,0-1.1-.2-1.5-.5-4.1-3-13.2-35.7-7.1-47.4,0-.2.2-.4.4-.5,1.4-1.4,4.4-2.5,7.3-.1,2.5,2.1,21.5,25.3,23.7,28,.7.8.6,2-.1,2.8-.7.8-2,.9-2.8.2-2.1-1.6-4.7-2.7-5.3-2.5-.9,1.3.3,4.2,1,5.4.4.7.4,1.6,0,2.3-.5.7-1.3,1-2.1.9-1.9-.3-3.9-.4-5.2-.3l1.9,2.7c.3.5.5,1.1.3,1.7-.1.6-.5,1.1-1,1.4-1.6,1-6.2,3.9-7.7,5.4-.5.5-1.1.7-1.7.7ZM104.4,43.8c-4.4,9.5,2.5,34.3,5.4,40.5,1.5-1.2,3.5-2.5,5-3.4l-1.3-1.8c-1.3-1.8-.7-3.3-.4-3.8.9-1.5,3.2-2.1,6.7-1.9-.6-2-.7-4.5.7-6.5.7-1,1.7-1.5,2.9-1.7.1,0,.2,0,.3,0-7.6-9.3-16.5-19.9-17.9-21-.2-.2-.8-.7-1.4-.3Z"/>
        </g>
      </g>
      <path d="M180.3,147c0,6.2-5,10.1-11.1,10.1s-11.1-3.9-11.1-10.1,5-7.6,11.1-7.6,11.1,1.5,11.1,7.6Z"/>
      <g>
        <g>
          <g>
            <g>
              <path d="M195.3,131.3c-.5,3.1,2.7,6.1,5.8,5.7s5.4-3.7,5.1-6.9c3.1,0,6.2,0,9.3,0h.4c-.5-8-10-11.8-17.6-9.9-3.9,1-7.1,3.9-8.9,7.4-.6,1.2-1,2.5-1,3.8,2.3.1,4.6.1,6.9,0Z" style="fill: #522500;"/>
              <path d="M195.3,131.3c-2.3.1-4.6.1-6.9,0-.3,3.1.7,6.3,2.5,8.7,3.2,4.3,9,4.8,13.7,3.6,4.6-1.2,9.2-4.2,10.7-8.9.6-1.7.8-3.3.7-4.8h-.4c-3.1,0-6.2,0-9.3,0,.3,3.2-2,6.4-5.1,6.9s-6.4-2.6-5.8-5.7Z" style="fill: #c07a00;"/>
            </g>
            <path d="M200.3,146.3c-4,0-8.3-1.3-11-5-2.1-2.9-3.2-6.7-2.9-10.1,0-1.6.5-3.2,1.2-4.6,2.2-4.3,6.1-7.4,10.3-8.5,5.2-1.3,11.1-.1,15.2,2.8,3.1,2.3,4.8,5.4,5.1,9,.1,1.7-.1,3.6-.8,5.5-1.6,4.9-6.2,8.7-12.2,10.3-1.5.4-3.2.6-4.9.6ZM202.3,121.8c-1.2,0-2.3.1-3.4.4-3.1.8-5.9,3.1-7.6,6.3-.5.9-.7,1.9-.8,2.9,0,0,0,0,0,0-.2,2.5.6,5.2,2.1,7.3,2.7,3.6,7.7,3.8,11.4,2.8,4.6-1.2,8.1-4,9.3-7.5.5-1.4.7-2.7.6-3.9-.2-3-1.9-4.8-3.4-5.9-2.2-1.6-5.2-2.5-8.2-2.5ZM188.4,131.3h0,0Z"/>
          </g>
          <circle cx="200" cy="126.8" r="2.2" style="fill: #fff;"/>
          <path d="M219.1,129.8c-2.7,0-5-1.6-5.3-1.9-.9-.7-1.1-2-.4-3,.7-.9,2-1.1,3-.4.5.3,2.1,1.3,3.2,1,.6-.2,1.1-.8,1.6-1.8.5-1.1,1.7-1.6,2.8-1.1,1.1.5,1.6,1.7,1.1,2.8-1.2,2.8-3,3.8-4.4,4.2-.5.1-1.1.2-1.6.2Z"/>
        </g>
        <path d="M191.1,102.7c-3.3,1.8-5.9,4.9-6.8,8.5-.2.7-.3,1.5-.1,2.2.5,2.2,3.2,3.1,5.4,2.7,4.5-.7,20.2-4.7,17.9-11.4-2.1-6.2-12.2-4.3-16.4-2.1Z" style="fill: #fff;"/>
      </g>
      <g>
        <g>
          <g>
            <g>
              <path d="M137.2,136.9c3.1.4,6.4-2.6,5.8-5.7,2.3.1,4.6.1,6.9,0,.3,3.1-.7,6.3-2.5,8.7-3.2,4.3-8.9,4.8-13.6,3.6-4.6-1.2-9.2-4.2-10.7-8.9-.6-1.7-.8-3.3-.7-4.8h.4c3.1,0,6.2,0,9.3,0-.2,3.2,2,6.4,5.2,6.9Z" style="fill: #c07a00;"/>
              <path d="M132,130.1c-3.1,0-6.2,0-9.3,0h-.4c.5-8,10-11.8,17.6-9.9,3.9,1,7.1,3.9,8.9,7.4.6,1.2,1,2.5,1,3.8-2.3.1-4.6.1-6.9,0,.5,3.1-2.7,6.1-5.8,5.7s-5.4-3.7-5.2-6.9Z" style="fill: #522500;"/>
            </g>
            <path d="M138.1,146.3c-1.7,0-3.3-.2-4.9-.6-6.1-1.6-10.6-5.4-12.2-10.3-.6-2-.9-3.8-.8-5.6.2-3.6,2-6.7,5.1-9,4-3,10-4.1,15.2-2.8,4.3,1,8.1,4.2,10.3,8.5.7,1.4,1.2,3,1.3,4.6.3,3.5-.8,7.3-3,10.2-2.7,3.7-6.9,5-11,5ZM136,121.8c-3,0-6,.9-8.2,2.5-1.4,1.1-3.2,2.9-3.3,5.9,0,1.2.1,2.5.6,4,1.4,4.1,5.7,6.5,9.3,7.5,3.8,1,8.8.7,11.4-2.8,1.6-2.1,2.4-4.8,2.1-7.3,0,0,0,0,0,0,0-1-.3-2-.8-2.9-1.7-3.2-4.5-5.6-7.6-6.3-1.1-.3-2.3-.4-3.4-.4Z"/>
          </g>
          <circle cx="138.3" cy="126.8" r="2.2" style="fill: #fff;"/>
          <path d="M119.2,129.8c-.5,0-1.1,0-1.6-.2-1.3-.4-3.2-1.4-4.4-4.2-.5-1.1,0-2.3,1.1-2.8,1.1-.5,2.3,0,2.8,1.1.4,1,.9,1.6,1.5,1.8,1.1.3,2.7-.6,3.2-1,.9-.7,2.3-.5,3,.4.7.9.5,2.2-.4,2.9-.3.2-2.6,1.9-5.3,1.9Z"/>
        </g>
        <path d="M147.2,102.7c3.3,1.8,5.9,4.9,6.8,8.5.2.7.3,1.5.1,2.2-.5,2.2-3.2,3.1-5.4,2.7-4.5-.7-20.2-4.7-17.9-11.4,2.1-6.2,12.2-4.3,16.4-2.1Z" style="fill: #fff;"/>
      </g>
      <path d="M169.3,170c-6.1,0-12.4-2.3-17.7-6.4-.9-.7-1.1-2-.4-3,.7-.9,2-1.1,3-.4,5.2,4.1,11.7,6.1,17.6,5.3,4.8-.6,8.9-3,11.9-6.9.7-.9,2-1.1,3-.4.9.7,1.1,2,.4,3-3.7,4.8-8.8,7.8-14.8,8.5-1,.1-2,.2-3,.2Z"/>
      <g>
        <path d="M198.4,248.8c13.2-.4,14.9-22.1,14.9-22.1l-14.9-8.5-14.9,8.5s1.7,21.7,14.9,22.1Z" style="fill: #ffbf30;"/>
        <path d="M198.4,244.1c9.2-.3,10.3-15.4,10.3-15.4l-10.3-5.9-10.3,5.9s1.2,15.1,10.3,15.4Z" style="fill: #bb4e00;"/>
        <path d="M203.6,238.3c-.3.3-.5.4-.7.4-.2,0-.5,0-.9,0-.4,0-.6-.2-.7-.3-.1-.2-.2-.4-.2-.8v-5.3c-.1.4-.3.8-.5,1.2-.2.4-.3.9-.5,1.3-.2.4-.4.9-.5,1.3-.2.4-.3.8-.5,1.2,0,.1,0,.2-.1.3,0,.1-.1.2-.2.3,0,0-.2.2-.3.2-.1,0-.2,0-.4,0s-.3,0-.4,0c0,0-.1-.2-.2-.3l-2.2-5.9v5.6c0,.2,0,.3,0,.4,0,.1-.2.2-.3.3-.2,0-.3.2-.4.3-.2,0-.3.2-.6.2l-.6-.4s0,0,0-.2c0,0,0,0,0-.2,0,0,0-.2,0-.2v-8.9s0,0,0-.2c0,0,0-.1-.1-.2l.5-.3c.2,0,.4,0,.6.1.2,0,.4.1.6.2.2,0,.4.2.5.3.1.1.3.3.3.5l2.3,6.5,2.4-6.7h0c0,0,0-.1,0-.2s0-.1-.2-.2l.5-.4c.6,0,1,.2,1.3.3.3.2.4.3.4.3v8.4c0,.1,0,.2,0,.3,0,0,.2.1.3,0l.3.5Z" style="fill: #fff;"/>
      </g>
      <g>
        <g>
          <polygon points="96 219.9 171.9 245.1 240.3 212.2 168.3 192.9 96 219.9" style="fill: #ffd900;"/>
          <path d="M171.9,247.2c-.2,0-.4,0-.7-.1l-76-25.2c-.9-.3-1.4-1.1-1.4-2,0-.9.5-1.7,1.4-2l72.3-27c.4-.2.9-.2,1.3,0l72.1,19.3c.9.2,1.5,1,1.6,1.8s-.4,1.7-1.2,2.1l-68.4,32.9c-.3.1-.6.2-.9.2ZM102.3,219.8l69.5,23,62.5-30-65.9-17.7-66,24.7Z"/>
        </g>
        <g>
          <polygon points="96 219.9 171.9 245.1 171.9 323.3 100 297 96 219.9" style="fill: #ffc100;"/>
          <path d="M171.9,325.4c-.2,0-.5,0-.7-.1l-71.9-26.2c-.8-.3-1.3-1-1.4-1.9l-4-77.1c0-.7.3-1.4.8-1.8.6-.4,1.3-.5,1.9-.3l76,25.2c.9.3,1.4,1.1,1.4,2v78.2c0,.7-.3,1.3-.9,1.7-.4.3-.8.4-1.2.4ZM102.1,295.5l67.8,24.7v-73.6l-71.6-23.7,3.8,72.6Z"/>
        </g>
        <g>
          <polygon points="171.9 245.1 240.3 212.2 240.3 290.4 171.9 323.3 171.9 245.1" style="fill: #eba300;"/>
          <path d="M171.9,325.4c-.4,0-.8-.1-1.1-.3-.6-.4-1-1.1-1-1.8v-78.2c0-.8.5-1.6,1.2-1.9l68.4-32.9c.6-.3,1.4-.3,2,.1.6.4,1,1.1,1,1.8v78.2c0,.8-.5,1.6-1.2,1.9l-68.4,32.9c-.3.1-.6.2-.9.2ZM174.1,246.4v73.5l64.2-30.9v-73.5l-64.2,30.8Z"/>
        </g>
        <g>
          <polygon points="121.2 228.3 125 306.2 142.8 312.6 143.9 235.8 209.5 204 188.2 198.3 121.2 228.3" style="fill: #d70000;"/>
          <path d="M142.8,314.7c-.2,0-.5,0-.7-.1l-17.7-6.5c-.8-.3-1.3-1-1.4-1.9l-3.8-77.9c0-.9.5-1.7,1.2-2l67.1-30c.4-.2.9-.2,1.4-.1l21.3,5.7c.9.2,1.5,1,1.6,1.8,0,.9-.4,1.7-1.2,2.1l-64.4,31.3-1.1,75.5c0,.7-.4,1.3-.9,1.7-.4.2-.8.4-1.2.4ZM127,304.7l13.6,5,1.1-73.9c0-.8.5-1.5,1.2-1.9l60.5-29.4-15.1-4-65.1,29.1,3.7,75Z"/>
        </g>
        <g>
          <line x1="126.7" y1="231.8" x2="137.1" y2="234.2" style="fill: #006609;"/>
          <path d="M137.1,236.3c-.2,0-.3,0-.5,0l-10.4-2.4c-1.1-.3-1.8-1.4-1.6-2.5.3-1.1,1.4-1.8,2.5-1.6l10.4,2.4c1.1.3,1.8,1.4,1.6,2.5-.2,1-1.1,1.6-2.1,1.6Z"/>
        </g>
        <g>
          <g>
            <path d="M157.4,215.5l12.3-5.6s-13.3-20.9-28.6-19.1c-15.3,1.8-18,14.9-18,14.9l34.4,9.8Z" style="fill: #d70000;"/>
            <path d="M157.4,217.6c-.2,0-.4,0-.6,0l-34.4-9.8c-1.1-.3-1.7-1.4-1.5-2.5,0-.1,3.2-14.6,19.8-16.6,16.4-1.9,30.1,19.1,30.6,20,.3.5.4,1.2.2,1.7-.2.6-.6,1.1-1.2,1.3l-12.3,5.6c-.3.1-.6.2-.9.2ZM125.7,204.3l31.5,9,9.2-4.2c-3.7-5-14-17.4-25.2-16.1-10.3,1.2-14.3,8-15.6,11.3Z"/>
          </g>
          <g>
            <path d="M143.7,207.5c-2.9-1.9-6-3.5-9.4-4.1-2.3-.4-4.7-.4-7,.3-1.6.5-2.7,1.2-3.9,2.5-4,4.4,2.6,10.1,6.7,11.6,3.6,1.2,7.4,1.2,11.2,1.2,3.1,0,14.8.5,16.1-3.5,1.2-3.8-11.2-6.4-13.7-8Z" style="fill: maroon;"/>
            <path d="M139.5,221.1c-3.1,0-6.7-.2-10-1.3-3.1-1.1-8-4.5-9.1-8.8-.6-2.3,0-4.4,1.6-6.2,1.5-1.6,2.8-2.5,4.8-3.1,2.5-.8,5.2-.9,8-.4,3.2.6,6.5,2,10.1,4.4,0,0,0,0,0,0,.5.3,2.3,1,3.8,1.5,5.5,1.9,12.2,4.3,10.7,8.9-1.5,4.7-9.5,5-16.9,5h-1.1c-.6,0-1.2,0-1.8,0ZM131.4,205.2c-1.2,0-2.4.2-3.5.5-1.2.4-2,.9-2.9,1.9-.6.7-.8,1.4-.6,2.3.6,2.3,3.9,5,6.4,5.9,3.3,1.1,7.1,1.1,10.4,1.1h1.2c11.4,0,12.7-1.5,12.9-2-.5-1-5.9-2.8-8.1-3.6-2.1-.7-3.8-1.3-4.7-2h0c-3.1-2.1-5.9-3.3-8.6-3.8-.8-.2-1.7-.2-2.5-.2Z"/>
          </g>
        </g>
        <g>
          <path d="M155.3,211.1c1.7-2.1,4.2-3.8,5.8-4.5,1.4-.7,2.9-1.2,4.4-1.1,1,0,2.1.3,3,.7,1.6.5,3.2,1,4.8,1.6.8.3,1.6.6,2,1.3.4.8,0,1.8-.5,2.5-.6.7-1.4,1.1-2.2,1.6-1.5,1-2.9,2.3-3.9,3.9-.6.9-1.1,1.9-2,2.4-1.1.7-2.5.5-3.8.3-1.9-.3-6.9-.3-8.3-1.7-1.9-2.1-1-4.6.7-6.8Z" style="fill: #d70000;"/>
          <path d="M164.8,221.9c-.9,0-1.7-.1-2.3-.2-.4,0-1.1-.1-1.8-.2-3.5-.3-6.2-.6-7.7-2.2-2.4-2.7-2.2-6.1.7-9.5,1.9-2.3,4.6-4.2,6.5-5.1,1.3-.6,3.3-1.4,5.4-1.3,1.4,0,2.6.4,3.6.8,1.6.5,3.2,1,4.8,1.6.8.3,2.3.8,3.1,2.3.8,1.5.5,3.5-.8,4.9-.7.8-1.5,1.2-2.2,1.7l-.5.3c-1.3.8-2.4,1.9-3.2,3.2l-.3.4c-.5.9-1.2,2-2.4,2.7-1,.6-2.1.8-3,.8ZM165.3,207.5c-.9,0-1.9.3-3.3.9-1.2.6-3.5,2.1-5.1,4h0c-2.1,2.5-1.1,3.6-.8,4,.6.5,3.6.7,4.9.8.9,0,1.7.1,2.2.2.7.1,1.9.3,2.4,0,.3-.2.7-.7,1-1.3l.3-.5c1.1-1.8,2.7-3.3,4.5-4.5l.6-.4c.5-.3,1-.6,1.2-.9,0,0,.1-.2.1-.2,0,0-.3,0-.7-.2-1.6-.5-3.1-1.1-4.7-1.6-.8-.3-1.7-.5-2.5-.6,0,0,0,0-.1,0ZM155.3,211.1h0,0Z"/>
        </g>
        <g>
          <path d="M174,206.5c3.8-2.5,8.4-4.3,11.1-5.7,3-1.5,6-3.1,9.3-3.9,3.3-.8,6.8-.8,9.9.6,7.6,3.7,4.7,12.4,2.8,18.8-.4,1.1-.8,2.4-1.7,3.1-.7.6-1.6.8-2.5.9-4,.6-8.1-.2-12.1-.7-4.4-.5-8.8-.6-13.2-.2-2.7.2-10.1,1.2-10.3-2.9-.2-4.2,3-7.4,6.9-9.9Z" style="fill: #d70000;"/>
          <path d="M199.8,222.6c-2.4,0-4.7-.3-6.9-.6-.8-.1-1.6-.2-2.4-.3-4.2-.5-8.6-.5-12.8-.2h-.6c-3.8.4-8,.6-10.4-1.5-1-.9-1.6-2-1.6-3.4-.2-4.4,2.3-8.2,7.9-11.8,2.8-1.8,5.9-3.3,8.4-4.5,1.1-.5,2-1,2.8-1.4,3-1.6,6.2-3.2,9.7-4.1,2.9-.7,7.2-1.2,11.3.8,9.1,4.5,5.9,14.9,3.9,21.1-.4,1.4-1,3.2-2.5,4.4-1.1.9-2.5,1.2-3.5,1.3-1.1.2-2.2.2-3.3.2ZM183,217c2.6,0,5.3.1,7.9.4.8,0,1.7.2,2.5.3,3.2.4,6.2.8,9.1.4.5,0,1.2-.2,1.5-.5.5-.4.8-1.3,1-2.1,2.4-7.7,3.8-13.6-1.7-16.2-2.3-1.1-5.3-1.3-8.4-.5-3.1.8-6,2.3-8.8,3.7-.9.4-1.9.9-3,1.5-2.4,1.1-5.4,2.5-7.9,4.2h0c-4.1,2.7-6.1,5.3-5.9,8.1,0,.2,0,.3.2.4,1.3,1.1,5.6.7,7.2.6h.6c1.9-.2,3.8-.3,5.7-.3ZM174,206.5h0,0Z"/>
        </g>
        <g>
          <path d="M180.2,215c.2,0,.3,0,.5,0,5.6,0,11.1-.2,16.7-.3,1.3,0,2.6,0,3.8.3,1.9.5,3.6,1.9,4.3,3.8.6,1.9,0,4.2-1.6,5.4-1.2.9-2.7,1.1-4.2,1.2-7.4.5-14.8-.9-22.1-2.6-2.4-.5-13.8-3.5-8.8-6.9,3.3-2.3,7.6-.9,11.4-.8Z" style="fill: maroon;"/>
          <path d="M196.6,227.6c-6.9,0-13.6-1.4-19.5-2.8-7.2-1.7-11.1-3.9-11.6-6.6-.2-.9-.1-2.6,2.1-4.1,3.1-2.2,6.7-1.8,9.9-1.4.9,0,1.8.2,2.7.2h.4c3.6,0,7.3,0,10.9-.2h5.7c1.3-.1,2.8-.2,4.4.2,2.7.7,4.9,2.7,5.7,5.2.9,2.8,0,6.1-2.3,7.7-1.6,1.2-3.5,1.4-5.3,1.6-1.1,0-2.1.1-3.2.1ZM169.9,217.6c1,.9,4.2,2.2,8.1,3.1,6.5,1.5,14,3.1,21.5,2.6,1.2,0,2.3-.2,3.1-.8.8-.6,1.2-1.9.8-3-.4-1.1-1.5-2.1-2.8-2.5-1-.3-2.1-.2-3.2-.2h-5.7c-3.7.2-7.3.3-11,.3h-.6c-1,0-2-.1-3.1-.3-2.7-.3-5.2-.6-7,.7,0,0,0,0,0,0Z"/>
        </g>
      </g>
      <g>
        <path d="M74.2,260.3c1.1,7.6,5.6,14.8,12.3,18.5,6.7,3.7,15.6,3.5,21.7-1.1,4.3-3.2,7-8.4,8-13.7,1-5.3.3-10.8-1.1-16.1-1-3.4-2.3-6.9-4.6-9.6-17.6-21.1-39.5.2-36.3,21.9Z" style="fill: #9d4810;"/>
        <path d="M96.7,283.5c-3.8,0-7.7-.9-11.2-2.9-7-3.9-12.1-11.6-13.4-20.1h0c-1.9-13.2,4.6-26.6,15.2-31.4,8.5-3.8,17.5-.9,24.8,7.8,2.2,2.6,3.8,5.9,5,10.4,1.7,6.1,2.1,11.9,1.2,17-1.1,6.2-4.4,11.6-8.8,15-3.7,2.7-8.2,4.1-12.8,4.1ZM76.3,260c1.1,7.2,5.3,13.7,11.2,17,6.2,3.4,14.2,3,19.5-.9,3.6-2.7,6.3-7.2,7.2-12.4.8-4.5.5-9.6-1.1-15.1-1.1-3.9-2.4-6.7-4.2-8.8-6.1-7.3-13.1-9.6-19.8-6.7-8.8,3.9-14.4,15.8-12.8,26.9h0Z"/>
      </g>
      <g>
        <path d="M262.2,260.3c-1.1,7.6-5.6,14.8-12.3,18.5-6.7,3.7-15.6,3.5-21.7-1.1-4.3-3.2-7-8.4-8-13.7-1-5.3-.3-10.8,1.1-16.1,1-3.4,2.3-6.9,4.6-9.6,17.6-21.1,39.5.2,36.3,21.9Z" style="fill: #9d4810;"/>
        <path d="M239.8,283.5c-4.6,0-9.2-1.4-12.8-4.1-4.5-3.4-7.7-8.8-8.8-15-.9-5.1-.6-10.9,1.2-17,1.2-4.5,2.8-7.8,5-10.4,7.3-8.7,16.3-11.6,24.8-7.8,10.6,4.7,17.1,18.2,15.2,31.4-1.2,8.5-6.4,16.2-13.4,20.1-3.5,1.9-7.4,2.9-11.2,2.9ZM241.6,231.8c-4.9,0-9.7,2.7-14.1,7.9-1.8,2.1-3.1,4.9-4.2,8.8-1.5,5.5-1.9,10.6-1.1,15.1.9,5.1,3.6,9.6,7.2,12.4,5.3,4,13.3,4.3,19.5.9,5.9-3.2,10.2-9.7,11.2-17h0c1.6-11.2-4-23-12.8-26.9-1.9-.8-3.8-1.3-5.7-1.3Z"/>
      </g>
    </g>
  </g>
</svg>