<?xml version="1.0" encoding="utf-8"?>
<!-- Generator: Adobe Illustrator 24.1.1, SVG Export Plug-In . SVG Version: 6.00 Build 0)  -->
<svg version="1.1" id="Layer_1" xmlns="http://www.w3.org/2000/svg" xmlns:xlink="http://www.w3.org/1999/xlink" x="0px" y="0px"
	 viewBox="0 0 220 240" style="enable-background:new 0 0 220 240;" xml:space="preserve">
<g>
	<path style="fill:#454D71;" d="M60.84,22.3v10.26l-0.73-0.12c-0.17-1.93-0.09-6.18,0.14-10.23C60.44,22.25,60.65,22.28,60.84,22.3z
		"/>
	<path style="fill:#454D71;" d="M86.49,22.34l-0.64,23.41l-4.49,5.76l-1.63-2.52c-0.78-1.18-1.18-2.54-1.18-3.97V22.75
		C81.15,22.65,83.82,22.51,86.49,22.34z"/>
	<polygon style="fill:#454D71;" points="113.21,19.95 113.21,30.02 112.6,30.15 112.6,19.95 	"/>
	<path style="fill:#454D71;" d="M109.58,133.03c2.02,3.23,10.94,32.72,18.49,58.62c-0.33,0.31-0.66,0.66-1.03,1.03
		c-3.36,3.37-8.44,8.51-13.58,9.85c-3.01,0.8-5.76,1.01-8.19,1.2c-2.02,0.16-3.98,0.31-5.64,0.87c-3.32-7.57-7.74-16.31-12.21-25.08
		c-0.52-1.06-1.06-2.1-1.6-3.17c-7.2-14.12-14-27.48-16.11-34.87c-6-21.13,9.06-57.38,13.91-68.17c0.85-1.91,1.39-3.03,1.43-3.1
		c0.42-0.87,0.05-1.91-0.8-2.33c-0.87-0.42-1.91-0.07-2.33,0.8c-0.94,1.93-22.98,47.57-15.55,73.73
		c2.19,7.72,9.06,21.22,16.35,35.52c1.04,2.05,2.1,4.12,3.15,6.17l1.55,28.13c-6.63,1.7-18.42,0.14-32.7-4.49
		c-1.27-24.42-3.62-67.14-5.48-89.79c-5.39-65.64,6.68-82.78,6.8-82.93c0.24-0.31,0.37-0.7,0.35-1.1l-0.19-12.54
		c0.19,0.05,0.4,0.1,0.59,0.16c-0.23,4.12-0.52,11.17,0.21,13.05c0.23,0.57,0.73,0.99,1.34,1.1l3.97,0.66
		c0.09,0.02,0.19,0.02,0.28,0.02c0.42,0,0.82-0.14,1.13-0.42c0.4-0.33,0.61-0.82,0.61-1.32V22.65c3.22,0.23,6.87,0.28,10.75,0.21
		v22.16c0,2.09,0.61,4.12,1.74,5.88l2.97,4.54c0.31,0.47,0.84,0.77,1.39,0.8h0.07c0.54,0,1.04-0.24,1.37-0.68l6.33-8.1
		c0.23-0.3,0.37-0.66,0.37-1.03l0.66-24.18c0-0.05-0.02-0.1-0.02-0.16c6.85-0.52,13.58-1.23,19.17-1.9v12.09
		c0,0.52,0.24,1.01,0.64,1.34c0.31,0.26,0.7,0.4,1.1,0.4c0.12,0,0.24-0.02,0.35-0.03l4.09-0.83c0.8-0.17,1.39-0.89,1.39-1.7V19.26
		c1.51-0.19,2.8-0.37,3.83-0.52l-0.31,10.07c-0.02,0.37,0.09,0.73,0.3,1.03c11.9,17.52,12.65,43.22,6.51,57.96
		c-6.23,14.92-17.46,43.4-17.57,43.67C109.23,131.99,109.28,132.56,109.58,133.03z"/>
	<path d="M91.34,35.53c-0.83,0-1.56-0.59-1.71-1.43c-0.17-0.95,0.46-1.85,1.41-2.02l15.78-2.82c0.96-0.17,1.85,0.46,2.02,1.41
		c0.17,0.95-0.46,1.85-1.41,2.02L91.65,35.5C91.55,35.52,91.44,35.53,91.34,35.53z"/>
	<path d="M127.45,62.19c-0.16,0-0.32-0.02-0.48-0.07c-15.72-4.49-22.71-21.83-23-22.56c-0.35-0.89,0.09-1.9,0.98-2.25
		c0.89-0.36,1.9,0.08,2.26,0.98c0.06,0.16,6.68,16.48,20.72,20.5c0.92,0.26,1.46,1.23,1.19,2.15
		C128.9,61.69,128.21,62.19,127.45,62.19z"/>
	<path style="fill:#7BA6CA;" d="M137.79,205.49c-0.37,4.75-5.72,9.97-14.42,14.04c-9.01,4.21-16.99,5.1-18.54,3.86l-0.07-0.07
		c-0.14-0.14-0.49-0.61-1.13-1.88c-0.03-0.02-0.05-0.02-0.05-0.02c0-0.03-0.02-0.09-0.02-0.12c-0.56-1.15-1.32-2.87-2.35-5.5
		c-1.04-2.7-1.93-5.29-2.31-6.38c0.14-0.33,0.31-0.61,0.56-0.85c0.37-0.35,0.87-0.61,1.57-0.78c1.03-0.3,2.49-0.42,4.52-0.59
		c2.44-0.19,5.48-0.43,8.8-1.3c5.88-1.55,11.2-6.78,14.84-10.45l0.33-0.33c0.33-0.33,0.7-0.7,1.04-1.04
		c0.49-0.49,0.96-0.94,1.34-1.27c0.07,0.12,0.16,0.26,0.24,0.4C133.47,195.51,135.87,200.79,137.79,205.49z"/>
	<path d="M141.14,204.55c-5.95-14.75-7.58-15.32-8.3-15.57c-0.64-0.23-1.22-0.14-1.88,0.21c-5.88-20.21-14.98-50.74-18-57.19
		c1.81-4.57,11.58-29.33,17.24-42.87c6.37-15.25,6.21-41.62-6.51-60.77l0.35-11.57c0.02-0.52-0.19-1.01-0.57-1.36
		c-0.38-0.35-0.9-0.5-1.41-0.42c-9.74,1.41-29.55,3.79-45.26,4.31h-0.02c-5.24,0.17-10.02,0.14-13.81-0.21
		c-0.05-0.02-0.09-0.03-0.14-0.05l-3.97-0.57c-0.03,0-0.07,0.02-0.1,0.02c-1.46-0.33-2.63-0.73-3.39-1.23
		c-0.54-0.37-1.24-0.4-1.79-0.09c-0.57,0.31-0.92,0.91-0.92,1.57l0.24,14.68c-2.14,3.37-12.21,22.98-7.13,84.79
		c1.86,22.65,4.19,65.42,5.46,89.78c-0.21,0.12-0.42,0.26-0.63,0.42c-1.15,0.89-1.79,2.3-1.7,3.76l0.64,11.03
		c0.33,5.71,4.59,10.49,10.16,11.38c2.71,0.43,5.81,0.63,8.99,0.63c10.38,0,21.65-2.02,23.81-3.95c3.03-2.75,1.39-14.26,0.54-19.08
		c-0.09-0.57-0.47-1.04-0.99-1.29c-0.38-0.17-0.84-0.19-1.24-0.07l-1.04-18.94c2.54,5.15,4.92,10.1,6.89,14.56
		c-0.56,0.64-0.99,1.46-1.29,2.5c-0.09,0.33-0.09,0.68,0.03,1.01c0,0.03,1.15,3.5,2.56,7.1c2.63,6.8,3.88,8.42,4.68,9.04
		c1.08,0.85,2.78,1.23,4.85,1.23c4.84,0,11.67-2.02,17.32-4.66c4.87-2.26,16.23-8.52,16.45-17.43
		C141.28,205,141.23,204.78,141.14,204.55z M112.6,19.95h0.61v10.07l-0.61,0.12V19.95z M78.55,22.75c2.61-0.1,5.27-0.24,7.95-0.42
		l-0.64,23.41l-4.49,5.76l-1.63-2.52c-0.78-1.18-1.18-2.54-1.18-3.97V22.75z M75.07,22.86v9.99c-0.22-0.59-0.75-1.05-1.42-1.12
		c-4.37-0.49-7.99-1.08-8.02-1.09c-0.48-0.08-0.94,0.05-1.31,0.31v-8.31C67.54,22.88,71.19,22.93,75.07,22.86z M60.25,22.21
		c0.19,0.03,0.4,0.07,0.59,0.09v10.26l-0.73-0.12C59.93,30.51,60.02,26.27,60.25,22.21z M89.99,215.06
		c0.97,6.54,1.08,12.63,0.21,13.6c-1.22,0.92-8.91,2.56-17.34,2.99c-4.26,0.21-8.7,0.14-12.59-0.49c-1.95-0.31-3.69-1.3-4.96-2.71
		c-1.32-1.46-2.17-3.37-2.3-5.44l-0.64-11.03c-0.02-0.45,0.26-0.71,0.37-0.8c0.09-0.07,0.23-0.16,0.42-0.17
		c0.05-0.02,0.09-0.02,0.14-0.02c0.1,0,0.19,0.02,0.3,0.05c0.43,0.14,0.89,0.28,1.34,0.43c9.13,2.85,23.36,6.38,32.7,4.28
		c0.59-0.12,1.17-0.28,1.7-0.47C89.56,215.21,89.78,215.14,89.99,215.06z M87.42,179.5c-0.52-1.06-1.06-2.1-1.6-3.17
		c-7.2-14.12-14-27.48-16.11-34.87c-6-21.13,9.06-57.38,13.91-68.17c0.85-1.91,1.39-3.03,1.43-3.1c0.42-0.87,0.05-1.91-0.8-2.33
		c-0.87-0.42-1.91-0.07-2.33,0.8c-0.94,1.93-22.98,47.57-15.55,73.73c2.19,7.72,9.06,21.22,16.35,35.52
		c1.04,2.05,2.1,4.12,3.15,6.17l1.55,28.13c-6.63,1.7-18.42,0.14-32.7-4.49c-1.27-24.42-3.62-67.14-5.48-89.79
		c-5.39-65.64,6.68-82.78,6.8-82.93c0.24-0.31,0.37-0.7,0.35-1.1l-0.19-12.54c0.19,0.05,0.4,0.1,0.59,0.16
		c-0.23,4.12-0.52,11.17,0.21,13.05c0.23,0.57,0.73,0.99,1.34,1.1l3.97,0.66c0.09,0.02,0.19,0.02,0.28,0.02
		c0.42,0,0.82-0.14,1.13-0.42c0.4-0.33,0.61-0.82,0.61-1.32v-0.88c0.22,0.16,0.46,0.29,0.74,0.34c0.04,0.01,3.74,0.61,8.21,1.11
		c0.07,0.01,0.13,0.01,0.19,0.01c0.74,0,1.36-0.48,1.61-1.16v10.98c0,2.09,0.61,4.12,1.74,5.88l2.97,4.54
		c0.31,0.47,0.84,0.77,1.39,0.8h0.07c0.54,0,1.04-0.24,1.37-0.68l6.33-8.1c0.23-0.3,0.37-0.66,0.37-1.03l0.66-24.18
		c0-0.05-0.02-0.1-0.02-0.16c6.85-0.52,13.58-1.23,19.17-1.9v12.09c0,0.52,0.24,1.01,0.64,1.34c0.31,0.26,0.7,0.4,1.1,0.4
		c0.12,0,0.24-0.02,0.35-0.03l4.09-0.83c0.8-0.17,1.39-0.89,1.39-1.7V19.26c1.51-0.19,2.8-0.37,3.83-0.52l-0.31,10.07
		c-0.02,0.37,0.09,0.73,0.3,1.03c11.9,17.52,12.65,43.22,6.51,57.96c-6.23,14.92-17.46,43.4-17.57,43.67
		c-0.21,0.52-0.16,1.1,0.14,1.57c2.02,3.23,10.94,32.72,18.49,58.62c-0.33,0.31-0.66,0.66-1.03,1.03
		c-3.36,3.37-8.44,8.51-13.58,9.85c-3.01,0.8-5.76,1.01-8.19,1.2c-2.02,0.16-3.98,0.31-5.64,0.87
		C96.3,197.02,91.89,188.27,87.42,179.5z M123.37,219.53c-9.01,4.21-16.99,5.1-18.54,3.86l-0.07-0.07
		c-0.14-0.14-0.49-0.61-1.13-1.88c-0.03-0.02-0.05-0.02-0.05-0.02c0-0.03-0.02-0.09-0.02-0.12c-0.56-1.15-1.32-2.87-2.35-5.5
		c-1.04-2.7-1.93-5.29-2.31-6.38c0.14-0.33,0.31-0.61,0.56-0.85c0.37-0.35,0.87-0.61,1.57-0.78c1.03-0.3,2.49-0.42,4.52-0.59
		c2.44-0.19,5.48-0.43,8.8-1.3c5.88-1.55,11.2-6.78,14.84-10.45l0.33-0.33c0.33-0.33,0.7-0.7,1.04-1.04
		c0.49-0.49,0.96-0.94,1.34-1.27c0.07,0.12,0.16,0.26,0.24,0.4c1.34,2.31,3.74,7.6,5.65,12.3
		C137.42,210.24,132.07,215.46,123.37,219.53z"/>
	<path style="fill:#7BA6CA;" d="M90.2,228.66c-1.22,0.92-8.91,2.56-17.34,2.99c-4.26,0.21-8.7,0.14-12.59-0.49
		c-1.95-0.31-3.69-1.3-4.96-2.71c-1.32-1.46-2.17-3.37-2.3-5.44l-0.64-11.03c-0.02-0.45,0.26-0.71,0.37-0.8
		c0.09-0.07,0.23-0.16,0.42-0.17c0.05-0.02,0.09-0.02,0.14-0.02c0.1,0,0.19,0.02,0.3,0.05c0.43,0.14,0.89,0.28,1.34,0.43
		c9.13,2.85,23.36,6.38,32.7,4.28c0.59-0.12,1.17-0.28,1.7-0.47c0.23-0.07,0.45-0.14,0.66-0.23
		C90.96,221.6,91.07,227.69,90.2,228.66z"/>
	<path d="M51.68,62.19c-0.39,0-0.78-0.13-1.1-0.39c-0.74-0.61-0.86-1.7-0.25-2.45c4.5-5.51,8.65-20.73,8.69-20.88
		c0.25-0.93,1.21-1.48,2.13-1.22c0.93,0.25,1.48,1.21,1.22,2.13c-0.18,0.65-4.39,16.09-9.36,22.18
		C52.68,61.97,52.18,62.19,51.68,62.19z"/>
</g>
<g>
	<g>
		<path style="fill:#D08852;" d="M122.77,196.18c-0.37,0-0.71-0.23-0.83-0.6l-1.07-3.3c-0.15-0.46,0.1-0.95,0.56-1.1
			c0.46-0.15,0.95,0.1,1.09,0.56l1.07,3.3c0.15,0.46-0.1,0.95-0.56,1.1C122.95,196.16,122.86,196.18,122.77,196.18z M120.11,187.93
			c-0.37,0-0.71-0.23-0.83-0.6l-1.07-3.3c-0.15-0.46,0.1-0.95,0.56-1.1c0.46-0.15,0.95,0.1,1.09,0.56l1.07,3.3
			c0.15,0.46-0.1,0.95-0.56,1.1C120.29,187.92,120.2,187.93,120.11,187.93z M117.44,179.69c-0.37,0-0.71-0.23-0.83-0.6l-1.07-3.3
			c-0.15-0.46,0.1-0.95,0.56-1.09c0.46-0.15,0.95,0.1,1.09,0.56l1.07,3.3c0.15,0.46-0.1,0.95-0.56,1.09
			C117.62,179.68,117.53,179.69,117.44,179.69z M114.78,171.45c-0.37,0-0.71-0.23-0.83-0.6l-1.06-3.3c-0.15-0.46,0.1-0.95,0.56-1.09
			c0.46-0.15,0.95,0.1,1.09,0.56l1.06,3.3c0.15,0.46-0.1,0.95-0.56,1.09C114.96,171.43,114.87,171.45,114.78,171.45z M112.12,163.21
			c-0.37,0-0.71-0.23-0.83-0.6l-1.06-3.3c-0.15-0.46,0.1-0.95,0.56-1.09c0.46-0.15,0.95,0.1,1.09,0.56l1.06,3.3
			c0.15,0.46-0.1,0.95-0.56,1.09C112.3,163.19,112.21,163.21,112.12,163.21z M109.47,154.96c-0.37,0-0.71-0.24-0.83-0.6l-1.06-3.3
			c-0.15-0.46,0.1-0.95,0.56-1.09s0.95,0.1,1.09,0.56l1.06,3.3c0.15,0.46-0.1,0.95-0.56,1.09
			C109.65,154.95,109.56,154.96,109.47,154.96z M106.82,146.71c-0.37,0-0.71-0.24-0.83-0.61l-1.06-3.3
			c-0.15-0.46,0.11-0.95,0.56-1.09c0.46-0.15,0.95,0.11,1.09,0.56l1.05,3.3c0.15,0.46-0.11,0.95-0.56,1.09
			C107,146.7,106.91,146.71,106.82,146.71z M104.19,138.45c-0.37,0-0.71-0.24-0.83-0.61c-0.44-1.39-0.79-2.51-1.04-3.32
			c-0.14-0.46,0.12-0.95,0.58-1.09c0.46-0.14,0.95,0.12,1.09,0.58c0.25,0.8,0.6,1.93,1.04,3.31c0.15,0.46-0.11,0.95-0.57,1.09
			C104.37,138.44,104.28,138.45,104.19,138.45z M103.72,130.15c-0.1,0-0.2-0.02-0.3-0.05c-0.45-0.16-0.69-0.66-0.52-1.11
			c0.34-0.94,0.76-2.04,1.23-3.26c0.17-0.45,0.68-0.67,1.13-0.49c0.45,0.17,0.67,0.68,0.49,1.13c-0.47,1.2-0.88,2.28-1.22,3.22
			C104.41,129.92,104.08,130.15,103.72,130.15z M106.85,122.08c-0.11,0-0.21-0.02-0.32-0.06c-0.45-0.18-0.67-0.68-0.49-1.13
			c0.41-1.03,0.83-2.1,1.26-3.22c0.17-0.45,0.68-0.67,1.13-0.5c0.45,0.17,0.67,0.68,0.5,1.13c-0.43,1.12-0.86,2.2-1.26,3.23
			C107.53,121.87,107.2,122.08,106.85,122.08z M109.95,114c-0.1,0-0.2-0.02-0.3-0.05c-0.45-0.17-0.68-0.67-0.51-1.12
			c0.39-1.06,0.79-2.14,1.18-3.24c0.16-0.45,0.65-0.69,1.11-0.53c0.45,0.16,0.69,0.66,0.53,1.11c-0.39,1.11-0.79,2.2-1.18,3.26
			C110.64,113.78,110.31,114,109.95,114z M112.81,105.84c-0.09,0-0.18-0.01-0.27-0.04c-0.46-0.15-0.71-0.64-0.56-1.1l0.1-0.3
			c0.32-0.99,0.64-1.99,0.95-2.99c0.14-0.46,0.63-0.72,1.09-0.57c0.46,0.14,0.71,0.63,0.57,1.09c-0.32,1.01-0.63,2.01-0.96,3.01
			l-0.1,0.29C113.52,105.6,113.18,105.84,112.81,105.84z M115.37,97.57c-0.08,0-0.16-0.01-0.25-0.04c-0.46-0.14-0.72-0.62-0.59-1.08
			c0.33-1.11,0.65-2.22,0.96-3.32c0.13-0.46,0.62-0.73,1.08-0.6c0.46,0.13,0.73,0.61,0.6,1.07c-0.31,1.1-0.64,2.21-0.97,3.33
			C116.09,97.33,115.75,97.57,115.37,97.57z M117.72,89.25c-0.08,0-0.15-0.01-0.23-0.03c-0.46-0.13-0.74-0.6-0.61-1.07
			c0.31-1.14,0.61-2.26,0.89-3.34c0.12-0.46,0.6-0.74,1.06-0.62c0.46,0.12,0.74,0.6,0.62,1.06c-0.29,1.08-0.59,2.2-0.9,3.35
			C118.46,89,118.11,89.25,117.72,89.25z M119.92,80.88c-0.07,0-0.14-0.01-0.21-0.03c-0.47-0.12-0.75-0.59-0.63-1.06
			c0.3-1.2,0.58-2.33,0.83-3.35c0.11-0.47,0.59-0.75,1.05-0.64c0.47,0.11,0.75,0.58,0.64,1.05c-0.25,1.03-0.53,2.16-0.84,3.36
			C120.66,80.62,120.31,80.88,119.92,80.88z"/>
		<path style="fill:#D08852;" d="M121.93,72.62c-0.07,0-0.13-0.01-0.2-0.02c-0.47-0.11-0.76-0.58-0.65-1.04l0.39-1.68
			c0.1-0.47,0.57-0.76,1.04-0.66c0.47,0.1,0.76,0.57,0.66,1.04l-0.39,1.7C122.68,72.35,122.32,72.62,121.93,72.62z"/>
	</g>
	<path style="fill:#D08852;" d="M127.45,64.3c-0.04,0-0.07,0-0.11-0.01c-0.28-0.04-0.56-0.08-0.84-0.12c-0.47-0.08-0.8-0.52-0.72-1
		c0.08-0.47,0.53-0.8,1-0.72c0.26,0.04,0.52,0.08,0.78,0.11c0.48,0.06,0.81,0.5,0.75,0.97C128.25,63.98,127.88,64.3,127.45,64.3z
		 M121.62,62.81c-0.11,0-0.21-0.02-0.32-0.06c-1.1-0.43-2.19-0.95-3.24-1.55c-0.42-0.24-0.57-0.77-0.33-1.18
		c0.24-0.42,0.77-0.57,1.19-0.33c0.98,0.55,2,1.04,3.03,1.44c0.45,0.18,0.67,0.68,0.49,1.13C122.29,62.6,121.96,62.81,121.62,62.81z
		 M114.21,58.33c-0.2,0-0.4-0.07-0.56-0.21c-0.89-0.75-1.76-1.58-2.6-2.45c-0.33-0.35-0.32-0.9,0.03-1.23
		c0.35-0.33,0.9-0.32,1.23,0.03c0.79,0.83,1.62,1.61,2.46,2.32c0.37,0.31,0.41,0.86,0.1,1.23
		C114.71,58.22,114.46,58.33,114.21,58.33z M108.37,51.91c-0.27,0-0.54-0.13-0.71-0.36c-0.68-0.95-1.33-1.95-1.94-2.97
		c-0.25-0.41-0.11-0.95,0.3-1.19c0.41-0.25,0.95-0.11,1.19,0.3c0.59,0.99,1.22,1.95,1.87,2.86c0.28,0.39,0.19,0.93-0.2,1.21
		C108.73,51.85,108.55,51.91,108.37,51.91z M104.04,44.36c-0.33,0-0.65-0.19-0.79-0.51c-0.9-1.99-1.32-3.28-1.33-3.34
		c-0.15-0.46,0.11-0.95,0.56-1.09c0.46-0.15,0.95,0.11,1.09,0.56c0,0.01,0.41,1.27,1.26,3.15c0.2,0.44,0,0.95-0.43,1.15
		C104.29,44.34,104.16,44.36,104.04,44.36z"/>
	<path style="fill:#D08852;" d="M52.4,66.33c-0.22,0-0.44-0.08-0.61-0.25c-0.34-0.34-0.34-0.89,0-1.23c0.59-0.59,1.27-1.47,2-2.62
		c0.26-0.4,0.8-0.52,1.2-0.26c0.4,0.26,0.52,0.8,0.26,1.2c-0.8,1.25-1.56,2.22-2.23,2.9C52.85,66.24,52.62,66.33,52.4,66.33z
		 M57.1,59.02c-0.13,0-0.27-0.03-0.4-0.1c-0.43-0.22-0.6-0.74-0.38-1.17c0.51-1,1.02-2.04,1.53-3.1c0.2-0.43,0.72-0.62,1.16-0.41
		c0.43,0.21,0.62,0.72,0.41,1.16c-0.51,1.08-1.03,2.14-1.55,3.15C57.72,58.85,57.42,59.02,57.1,59.02z M60.79,51.13
		c-0.11,0-0.23-0.02-0.34-0.07c-0.44-0.19-0.64-0.7-0.45-1.14c0.48-1.1,0.93-2.17,1.35-3.2c0.18-0.44,0.69-0.65,1.14-0.47
		c0.44,0.18,0.65,0.69,0.47,1.14c-0.43,1.03-0.88,2.12-1.36,3.22C61.45,50.93,61.13,51.13,60.79,51.13z M64.1,43.06
		c-0.11,0-0.21-0.02-0.32-0.06c-0.45-0.17-0.67-0.68-0.49-1.13c0.77-1.98,1.24-3.25,1.24-3.25c0.16-0.45,0.66-0.68,1.12-0.52
		c0.45,0.16,0.68,0.66,0.52,1.12c0,0-0.47,1.28-1.25,3.29C64.77,42.85,64.45,43.06,64.1,43.06z"/>
	<path style="fill:#D08852;" d="M81.77,48.95c-0.19,0-0.39-0.06-0.55-0.2c-0.37-0.3-0.42-0.85-0.12-1.22l2.21-2.69
		c0.3-0.37,0.85-0.43,1.22-0.12c0.37,0.3,0.42,0.85,0.12,1.22l-2.21,2.69C82.27,48.85,82.02,48.95,81.77,48.95z M79.1,45.41
		c-0.01,0-0.03,0-0.04,0c-0.48-0.02-0.85-0.43-0.83-0.91l0.16-3.47c0.02-0.48,0.44-0.84,0.91-0.83c0.48,0.02,0.85,0.43,0.83,0.91
		l-0.16,3.47C79.94,45.04,79.56,45.41,79.1,45.41z M85.22,41.49c-0.48,0-0.87-0.39-0.87-0.87v-3.48c0-0.48,0.39-0.87,0.87-0.87
		s0.87,0.39,0.87,0.87v3.48C86.09,41.1,85.7,41.49,85.22,41.49z M79.51,36.72c-0.01,0-0.03,0-0.04,0c-0.48-0.02-0.85-0.43-0.83-0.91
		l0.16-3.47c0.02-0.48,0.45-0.84,0.91-0.83c0.48,0.02,0.85,0.43,0.83,0.91l-0.16,3.47C80.35,36.36,79.97,36.72,79.51,36.72z
		 M85.22,32.79c-0.48,0-0.87-0.39-0.87-0.87v-3.48c0-0.48,0.39-0.87,0.87-0.87s0.87,0.39,0.87,0.87v3.48
		C86.09,32.4,85.7,32.79,85.22,32.79z M79.92,28.03c-0.01,0-0.03,0-0.04,0c-0.48-0.02-0.85-0.43-0.83-0.91l0.16-3.47
		c0.02-0.48,0.43-0.85,0.91-0.83c0.48,0.02,0.85,0.43,0.83,0.91l-0.16,3.47C80.76,27.67,80.38,28.03,79.92,28.03z M85.22,24.1
		c-0.48,0-0.87-0.39-0.87-0.87v-0.2c0-0.48,0.39-0.87,0.87-0.87s0.87,0.39,0.87,0.87v0.2C86.09,23.71,85.7,24.1,85.22,24.1z"/>
	<path style="fill:#D08852;" d="M56.19,205.41c-0.43,0-0.8-0.32-0.86-0.75l1.72-0.27l-0.86,0.12l0.87-0.08
		c0.07,0.48-0.27,0.91-0.74,0.98C56.27,205.4,56.23,205.41,56.19,205.41z M55.61,200.16c-0.44,0-0.82-0.34-0.86-0.79
		c-0.11-1.09-0.21-2.25-0.31-3.49c-0.04-0.48,0.32-0.9,0.79-0.94c0.47-0.04,0.9,0.32,0.94,0.79c0.1,1.23,0.21,2.38,0.31,3.47
		c0.05,0.48-0.3,0.9-0.78,0.95C55.66,200.16,55.63,200.16,55.61,200.16z M54.88,191.47c-0.45,0-0.83-0.35-0.87-0.81
		c-0.08-1.12-0.16-2.29-0.25-3.48c-0.03-0.48,0.33-0.89,0.81-0.93c0.5-0.03,0.9,0.33,0.93,0.81c0.08,1.19,0.16,2.35,0.24,3.47
		c0.04,0.48-0.32,0.9-0.8,0.93C54.93,191.47,54.91,191.47,54.88,191.47z M54.3,182.77c-0.46,0-0.84-0.35-0.87-0.82l-0.21-3.48
		c-0.03-0.48,0.34-0.89,0.82-0.92c0.47-0.04,0.89,0.34,0.92,0.82l0.21,3.48c0.03,0.48-0.33,0.89-0.81,0.92
		C54.33,182.77,54.32,182.77,54.3,182.77z M53.79,174.07c-0.46,0-0.84-0.36-0.87-0.82l-0.19-3.48c-0.03-0.48,0.34-0.89,0.82-0.91
		c0.48-0.03,0.89,0.34,0.92,0.82l0.19,3.48c0.03,0.48-0.34,0.89-0.82,0.92C53.82,174.07,53.8,174.07,53.79,174.07z M53.32,165.36
		c-0.46,0-0.84-0.36-0.87-0.83l-0.17-3.48c-0.02-0.48,0.35-0.89,0.83-0.91c0.5-0.02,0.89,0.35,0.91,0.83l0.17,3.48
		c0.02,0.48-0.34,0.89-0.82,0.91C53.35,165.36,53.34,165.36,53.32,165.36z M52.9,156.66c-0.46,0-0.85-0.36-0.87-0.83l-0.16-3.48
		c-0.02-0.48,0.35-0.89,0.83-0.91c0.51-0.02,0.89,0.35,0.91,0.83l0.16,3.48c0.02,0.48-0.35,0.89-0.83,0.91
		C52.92,156.66,52.91,156.66,52.9,156.66z M52.49,147.96c-0.46,0-0.85-0.36-0.87-0.83l-0.15-3.48c-0.02-0.48,0.35-0.89,0.83-0.91
		c0.5-0.01,0.89,0.35,0.91,0.83l0.15,3.48c0.02,0.48-0.35,0.89-0.83,0.91C52.52,147.96,52.51,147.96,52.49,147.96z M52.12,139.24
		c-0.46,0-0.85-0.37-0.87-0.83l-0.15-3.48c-0.02-0.48,0.35-0.89,0.83-0.91c0.48-0.02,0.89,0.35,0.91,0.83l0.15,3.48
		c0.02,0.48-0.35,0.89-0.83,0.91C52.14,139.24,52.13,139.24,52.12,139.24z M51.76,130.54c-0.46,0-0.85-0.37-0.87-0.83l-0.14-3.48
		c-0.02-0.48,0.35-0.88,0.83-0.9c0.48-0.01,0.88,0.35,0.9,0.83l0.14,3.48c0.02,0.48-0.35,0.88-0.83,0.9
		C51.78,130.54,51.77,130.54,51.76,130.54z M51.41,121.84c-0.46,0-0.85-0.37-0.87-0.84l-0.13-3.48c-0.02-0.48,0.36-0.88,0.84-0.9
		c0.45-0.01,0.88,0.36,0.9,0.84l0.13,3.48c0.02,0.48-0.36,0.88-0.83,0.9C51.43,121.84,51.42,121.84,51.41,121.84z M51.08,113.13
		c-0.46,0-0.85-0.37-0.87-0.84l-0.13-3.48c-0.02-0.48,0.36-0.88,0.84-0.9c0.45-0.02,0.88,0.36,0.9,0.84l0.13,3.48
		c0.02,0.48-0.36,0.88-0.84,0.9C51.1,113.13,51.09,113.13,51.08,113.13z M50.76,104.42c-0.47,0-0.85-0.37-0.87-0.84l-0.12-3.48
		c-0.02-0.48,0.36-0.88,0.84-0.9c0.47-0.02,0.88,0.36,0.9,0.84l0.12,3.48c0.02,0.48-0.36,0.88-0.84,0.9
		C50.78,104.42,50.77,104.42,50.76,104.42z M50.46,95.71c-0.47,0-0.85-0.37-0.87-0.84l-0.12-3.49c-0.02-0.48,0.36-0.88,0.84-0.9
		c0.49-0.02,0.88,0.36,0.9,0.84l0.12,3.49c0.02,0.48-0.36,0.88-0.84,0.9C50.48,95.71,50.47,95.71,50.46,95.71z M50.16,86.99
		c-0.47,0-0.85-0.37-0.87-0.84l-0.11-3.49c-0.02-0.48,0.36-0.88,0.84-0.9c0.44-0.02,0.88,0.36,0.9,0.84l0.11,3.49
		c0.02,0.48-0.36,0.88-0.84,0.9C50.18,86.99,50.17,86.99,50.16,86.99z M49.88,78.26c-0.47,0-0.85-0.37-0.87-0.84l-0.11-3.52
		c-0.01-0.48,0.36-0.88,0.84-0.9c0.47-0.01,0.88,0.36,0.9,0.84l0.11,3.52c0.02,0.48-0.36,0.88-0.84,0.9
		C49.9,78.26,49.89,78.26,49.88,78.26z"/>
</g>
<path d="M103.56,221.3c0,0.03,0.02,0.09,0.02,0.12c0,0,0.02,0,0.05,0.02C103.61,221.41,103.57,221.35,103.56,221.3z"/>
</svg>
