<?xml version="1.0" encoding="utf-8"?>
<!-- Generator: Adobe Illustrator 23.0.2, SVG Export Plug-In . SVG Version: 6.00 Build 0)  -->
<svg version="1.1" id="레이어_1" xmlns="http://www.w3.org/2000/svg" xmlns:xlink="http://www.w3.org/1999/xlink" x="0px"
	 y="0px" viewBox="0 0 367 377" style="enable-background:new 0 0 367 377;" xml:space="preserve">
<style type="text/css">
	.st0{fill:#FFFFFF;}
	.st1{fill:#673101;}
	.st2{fill:#00A2E7;}
	.st3{fill:#FFC0BB;}
	.st4{opacity:0.3;fill:#FFFFFF;enable-background:new    ;}
	.st5{opacity:0.2;fill:#FFFFFF;enable-background:new    ;}
	.st6{fill:#414141;}
	.st7{fill:#F06564;}
	.st8{fill:#DD4E4E;}
	.st9{fill:#FF6A5F;}
	.st10{fill:#FC4D49;}
	.st11{fill:#F74431;}
	.st12{fill:#C92114;}
</style>
<title>자산 1</title>
<g>
	<path class="st0" d="M206,136.7c0.1-0.1,0.2-0.1,0.3-0.2c4.7-2.5,6.4-8.4,3.9-13.1c-2-3.7-1.7-9.2-1.4-10.9
		c0.4-1.6,1.3-3.9,2.7-4.5c3.2-1.2,10.5,1.9,14.4,4.5c4.4,3,10.4,1.9,13.4-2.5s1.9-10.4-2.5-13.4l0,0c-1.8-1.2-17.9-11.9-32-6.6
		c-5.1,1.9-11.8,6.6-14.8,18.1l-0.1,0.6c-0.2,1.4-2.3,13.5,3.4,24C195.7,137.3,201.3,139.1,206,136.7z"/>
	<path class="st1" d="M223,106.7c0.7-0.3,1.5-0.4,2.2-0.3c-1-0.3-1.8-1-2.2-1.9c-1-1.9-0.2-4.2,1.7-5.2c0.9-0.4,1.9-0.5,2.8-0.3
		c-0.9-0.3-1.6-1-2-1.8c-1-1.9-0.2-4.3,1.7-5.2l0,0c0.1-0.1,0.3-0.1,0.4-0.1c3.2,1.3,6.2,2.9,9.1,4.8c4.4,3,5.5,9,2.5,13.4
		s-9,5.5-13.4,2.5c-1.6-1-3.2-1.9-4.9-2.6C220.9,108.6,221.8,107.3,223,106.7z"/>
</g>
<g>
	<path class="st0" d="M149.9,137.3c-0.1,0-0.2-0.1-0.3-0.1c-4.9-1.9-7.4-7.5-5.5-12.4c1.5-3.9,0.4-9.3,0-11c-0.6-1.5-1.8-3.7-3.2-4
		c-3.3-0.8-10.1,3.2-13.6,6.2c-3.9,3.5-10,3.2-13.5-0.8c-3.5-3.9-3.2-10,0.8-13.5l0,0c1.6-1.4,16.2-14,30.7-10.6
		c5.3,1.2,12.5,5,16.8,15.9l0.2,0.6c0.4,1.3,4,13-0.3,24.1C160.1,136.5,154.7,139,149.9,137.3z"/>
	<path class="st1" d="M129.2,109.8c-0.7-0.2-1.5-0.2-2.2,0c1.9-0.9,2.7-3.2,1.8-5.1c-0.4-0.9-1.2-1.6-2.2-2
		c-0.9-0.3-1.9-0.3-2.8,0.1c0.8-0.4,1.4-1.1,1.7-2c0.7-2-0.3-4.2-2.3-4.9l0,0c-0.2,0-0.3-0.1-0.5-0.1c-2.9,1.7-5.7,3.7-8.2,5.9
		c-3.8,3.7-3.8,9.8-0.1,13.5c3.5,3.5,9,3.8,12.8,0.7c1.4-1.2,2.9-2.3,4.4-3.2C131.4,111.4,130.5,110.3,129.2,109.8z"/>
</g>
<path class="st2" d="M248.4,210l-22.2-91.7c-24.3-11-39.7-9.1-39.7-9.1c-57.2-0.1-57.2,45.4-57.2,45.4v89.6h119.2V210H248.4z"/>
<path class="st0" d="M196.1,110.8c0,0,12.2,0.3,15.3,0.9c36.1,5.4,40.3,34.2,40.7,39.8c9.9,5.8,16,16.4,16,27.8v2.5
	c0,17.8-14.4,32.2-32.2,32.2h-39.6c-31.4,0-56.8-23.1-56.8-51.6S164.8,110.9,196.1,110.8z"/>
<g>
	<path d="M232.5,170.1c-0.1,1.3-1.3,2.3-2.6,2.2s-2.3-1.3-2.2-2.6c0.1-1.2,1.1-2.2,2.4-2.2C231.5,167.6,232.6,168.8,232.5,170.1z"/>
	<path d="M237.8,159.7L237.8,159.7c2.1,0,3.7,1.7,3.7,3.7v0.3c0,2.1-1.7,3.7-3.7,3.7l0,0c-2.1,0-3.7-1.7-3.7-3.7v-0.3
		C234.1,161.4,235.7,159.7,237.8,159.7z"/>
	<path d="M211.6,159.7L211.6,159.7c2.1,0,3.7,1.7,3.7,3.7v0.3c0,2.1-1.7,3.7-3.7,3.7l0,0c-2.1,0-3.7-1.7-3.7-3.7v-0.3
		C207.8,161.4,209.5,159.7,211.6,159.7z"/>
	<path d="M218.9,185.1c4.9,0,9-2.8,11.1-4.5c1.7,2.1,4.3,3.5,7,3.9c4.8,0.4,8.4-3,8.6-3.1c0.7-0.7,0.7-1.8,0-2.5
		c-0.7-0.6-1.7-0.7-2.4-0.1c-0.1,0.1-2.7,2.5-5.8,2.1c-2-0.2-3.9-1.5-5.6-4c-0.3-0.4-0.8-0.7-1.3-0.7s-1.1,0.2-1.4,0.6
		c0,0.1-4.7,5-10.2,4.8c-3-0.1-5.8-1.7-8.3-4.7c-0.6-0.8-1.7-0.9-2.5-0.3s-0.9,1.7-0.3,2.5l0.1,0.1c3.2,3.9,6.9,5.9,11,6
		L218.9,185.1z"/>
</g>
<g>
	<path class="st3" d="M169.4,175.6c0.1,9.1,7.5,16.5,16.6,16.4s16.5-7.5,16.4-16.6S195,159,185.9,159
		C176.7,159,169.4,166.5,169.4,175.6z"/>
	<path class="st3" d="M249.4,175.6c0-7.4,4.9-13.9,12-16c4.4,5.6,6.7,12.5,6.7,19.6v2.5c0,3.6-0.6,7.1-1.8,10.5h-0.5
		C256.7,192.2,249.3,184.8,249.4,175.6z"/>
</g>
<g>
	<path class="st4" d="M184.4,30.8c-53.1,0-96.1,42.8-96.1,95.7v117.7h192.2V126.5C280.5,73.7,237.5,30.8,184.4,30.8z"/>
	<g>
		<path class="st0" d="M102.1,183.6c-1.3,0-2.3-1.1-2.3-2.4l0,0v-56.3c0.1-1.3,1.2-2.3,2.5-2.2c1.2,0.1,2.1,1,2.2,2.2v56.3
			C104.5,182.5,103.4,183.6,102.1,183.6z"/>
		<path class="st0" d="M102.1,111.8h-0.2c-1.3-0.1-2.3-1.2-2.2-2.5l0,0c0-0.6,1.3-14.7,7-21.9c0.8-1,2.3-1.2,3.3-0.4
			c1,0.8,1.2,2.3,0.4,3.3c0,0,0,0,0,0.1c-4.8,6.1-6,19.3-6,19.4C104.4,110.8,103.3,111.8,102.1,111.8z"/>
		<path class="st5" d="M247.6,73.2c-2.6,6.3-12.6,8.1-22.2,4.2S210,65,212.6,58.8s12.5-8.1,22.2-4.2S250.1,66.9,247.6,73.2z"/>
	</g>
</g>
<g>
	<g>
		<path class="st6" d="M85.2,304.1l54.1-54.1l-5.1-5.1L80,299C82.1,300.2,83.9,302,85.2,304.1L85.2,304.1z"/>
		<g>
			<path class="st7" d="M85.2,304.1c-4.1-6.8-12.9-9.1-19.8-5c-6.8,4.1-9.1,12.9-5,19.8c4.1,6.8,12.9,9.1,19.8,5
				c1-0.6,2-1.3,2.8-2.2C87.7,317,88.6,309.8,85.2,304.1z"/>
			<path class="st8" d="M72.8,316.5c-2.8,0-5-2.2-5-5s2.2-5,5-5s5,2.2,5,5c0,1.3-0.5,2.6-1.4,3.5C75.4,315.9,74.2,316.5,72.8,316.5
				L72.8,316.5z"/>
		</g>
	</g>
	<g>
		<path class="st6" d="M276.2,304.1L222.1,250l5.1-5.1l54.1,54.1c-1.1,0.6-2.1,1.4-3,2.3C277.5,302.1,276.8,303.1,276.2,304.1z"/>
		<g>
			<path class="st7" d="M276.2,304.1c0.6-1,1.3-2,2.2-2.8c5.6-5.7,14.8-5.8,20.5-0.1c5.7,5.6,5.8,14.8,0.1,20.5
				c-5.6,5.7-14.8,5.8-20.5,0.1C273.7,317.1,272.8,309.8,276.2,304.1z"/>
			<path class="st8" d="M288.5,316.5c1.3,0,2.6-0.5,3.5-1.5c1.9-2,1.9-5.1,0-7.1s-5.1-1.9-7.1,0c-1.9,2-1.9,5.1,0,7.1
				C285.9,316,287.2,316.5,288.5,316.5z"/>
		</g>
	</g>
	<g>
		<polygon class="st9" points="336,266.7 30.3,266.7 88.3,244.2 280.5,244.2 		"/>
		<polygon class="st10" points="183.8,266.7 336.7,266.7 281.2,244.2 183.8,244.2 		"/>
	</g>
	<g>
		<rect x="88.3" y="219.2" class="st11" width="192.1" height="25"/>
		<rect x="88.3" y="219.2" class="st12" width="10.1" height="25"/>
		<rect x="108.6" y="219.2" class="st12" width="10.1" height="25"/>
		<rect x="128.8" y="219.2" class="st12" width="10.1" height="25"/>
		<rect x="149.1" y="219.2" class="st12" width="10.1" height="25"/>
		<rect x="169.3" y="219.2" class="st12" width="10.1" height="25"/>
		<rect x="189.5" y="219.2" class="st12" width="10.1" height="25"/>
		<rect x="209.7" y="219.2" class="st12" width="10.1" height="25"/>
		<rect x="229.9" y="219.2" class="st12" width="10.1" height="25"/>
		<rect x="250.1" y="219.2" class="st12" width="10.1" height="25"/>
		<rect x="270.4" y="219.2" class="st12" width="10.1" height="25"/>
	</g>
</g>
</svg>
