<svg id="레이어_2" data-name="레이어 2" xmlns="http://www.w3.org/2000/svg" viewBox="0 0 200 280"><defs><style>.cls-1{fill:#815540;}.cls-1,.cls-12,.cls-13,.cls-15,.cls-4,.cls-5,.cls-7{fill-rule:evenodd;}.cls-2,.cls-4{fill:#fff4e4;}.cls-3{fill:#ffbbae;}.cls-6{fill:#ff8679;}.cls-7{fill:#fff;}.cls-8{fill:#aa7831;}.cls-9{fill:none;}.cls-10{fill:#d88d3d;}.cls-11{fill:#586fa0;}.cls-12{fill:#ffeba8;}.cls-13{fill:#ffeba9;}.cls-14,.cls-15{fill:#ff5d17;}.cls-16{fill:#fab543;}.cls-17{fill:#f9b543;}.cls-18{fill:#221e1f;}.cls-19{fill:#cf7d26;}.cls-20{fill:#914c13;}.cls-21{fill:#e54a30;}.cls-22{fill:#ffdb92;opacity:0.51;}</style></defs><path class="cls-1" d="M96.84,217.28c-6.65,2.15-7-1.91-6.89,8.47,0,.83,0,1.69,0,2.55,3.71-.37,8.72-.89,13.91-1.49C103.18,221.32,101.79,215.68,96.84,217.28Z"/><path class="cls-2" d="M90.24,244.89c.92,7.87,13,7.94,18.89,7.8,5.67-.12,29.27-3.59,25.4-13.43-1.92-4.87-6.91-3.72-10.83-2.85-3.38.76-17.49,3.29-18.84-1.62-.46-1.66-.61-4.8-1-8-5.19.6-10.2,1.12-13.91,1.49C89.89,233.66,89.61,239.51,90.24,244.89Z"/><path d="M106.71,253.87c-6.25,0-17-.84-18-9.16A103.68,103.68,0,0,1,88.4,231c0-1,0-2.09,0-3.11,0-.85,0-1.7,0-2.52-.06-7.15-.08-8.84,4-9.18a15.69,15.69,0,0,0,3.91-.73,5.39,5.39,0,0,1,4.76.42c2.81,1.79,3.71,6.24,4.21,10.36.14,1.09.24,2.19.35,3.22a35.7,35.7,0,0,0,.61,4.54c.69,2.46,9.38,2.28,17.08.55,4.08-.91,10.16-2.27,12.54,3.77h0a6.64,6.64,0,0,1-.62,6.35c-4.76,7.16-22.79,9-26.14,9.13C108.48,253.85,107.65,253.87,106.71,253.87Zm-15-34.53c-.3.68-.27,3.64-.25,6,0,.84,0,1.71,0,2.58,0,1,0,2.07,0,3.13a102.32,102.32,0,0,0,.33,13.27c.8,6.85,13.27,6.58,17.37,6.48,5.35-.12,20.26-2.62,23.7-7.79a3.62,3.62,0,0,0,.33-3.59c-1.34-3.4-4.44-3-9-2-3.19.71-18.87,3.87-20.68-2.68a33.52,33.52,0,0,1-.71-5c-.1-1-.2-2.08-.33-3.15-.21-1.71-.86-6.92-2.85-8.19a2.42,2.42,0,0,0-2.22-.1,18.7,18.7,0,0,1-4.59.87A8.52,8.52,0,0,0,91.7,219.34Z"/><path class="cls-2" d="M100.54,43.16c5.2-3.49,15-5,20.06,1.56,2.35,3,2.81,7.58.62,10.73-2.58,3.71-6.59,5-10.9,4.83-1.4-.06-2.9-.63-4.3-.38-1.75.32-2.86,2-3.64,3.6a38.29,38.29,0,0,0-3.91,15.31c0,1.1-14.21.65-15.35-1-1.88-2.69.16-10.47.95-13.33C86.52,55.63,92.85,48.31,100.54,43.16Z"/><path d="M93.69,80.89c-4.55,0-10.66-.57-11.8-2.2-1.61-2.3-1.38-6.94.73-14.59C85,55.61,91,47.73,99.7,41.91h0c5.47-3.67,16.27-5.6,22.08,1.89a10.82,10.82,0,0,1,.67,12.5c-2.66,3.83-6.88,5.72-12.19,5.48a13.3,13.3,0,0,1-1.82-.24,6.66,6.66,0,0,0-2.16-.16c-.88.16-1.7,1-2.56,2.78A36.88,36.88,0,0,0,100,78.87a1.83,1.83,0,0,1-1.52,1.67A22.55,22.55,0,0,1,93.69,80.89Zm-9.42-4c1.59.86,10,1.32,12.75.94a40,40,0,0,1,4-15c.83-1.67,2.22-3.95,4.72-4.4a9,9,0,0,1,3.21.16,12,12,0,0,0,1.43.19c4.31.2,7.53-1.21,9.6-4.19a7.86,7.86,0,0,0-.58-9c-4.44-5.72-13.33-4.4-18-1.24l-.83-1.24.83,1.24c-8.07,5.42-13.7,12.7-15.85,20.5C83.15,73.48,83.87,76.13,84.27,76.85Zm.08.12h0Z"/><path class="cls-3" d="M94.26,57.16c1.09-1.37,2.46-3.58,5.33-2.57,5.21,1.84,1.64,3.82.24,6a29.77,29.77,0,0,0-2.71,5.34,36.1,36.1,0,0,0-2.43,12.19c0,.28.06.6-.14.79a.9.9,0,0,1-.56.19c-2.29.18-5.64.57-5.94-1.79C87.29,71.3,90.47,61.92,94.26,57.16Z"/><path class="cls-2" d="M58.64,54.91C59.9,41,63.44,27.69,76.18,24.31c3.54-.94,7.78.1,9.77,3.17,2.48,3.84.71,8.87-.77,13.19a80.21,80.21,0,0,0-4,35.64c.22,1.94.48,4-.47,5.75a8.52,8.52,0,0,1-4.07,3.16q-2.88,1.36-5.86,2.49c-2.41.91-5,1.71-7.52,1.07-5.14-1.32-5.12-8.53-5.51-12.69C57.27,70.45,57.93,62.75,58.64,54.91Z"/><path d="M65.21,90.51a8.82,8.82,0,0,1-2.27-.28c-5.65-1.44-6.17-8.18-6.52-12.63,0-.48-.07-.94-.11-1.37-.52-5.55,0-12.69.84-21.45h0c1.16-12.87,4.33-28.13,18.64-31.92,4.51-1.19,9.2.38,11.42,3.81,2.84,4.4,1,9.9-.55,14.32l-.06.17a78.9,78.9,0,0,0-3.88,35l0,.12c.23,2.08.49,4.43-.67,6.53a9.88,9.88,0,0,1-4.74,3.79c-1.94.92-4,1.78-6,2.54A17.8,17.8,0,0,1,65.21,90.51ZM60.13,55.05c-.78,8.6-1.33,15.6-.83,20.9,0,.44.08.92.11,1.41.3,3.82.71,9,4.27,10,2.06.52,4.4-.18,6.62-1,1.94-.73,3.87-1.55,5.74-2.44a7.5,7.5,0,0,0,3.41-2.54c.7-1.26.5-3,.3-4.74v-.11a81.82,81.82,0,0,1,4-36.29l.06-.17c1.37-4,2.92-8.54.87-11.72C83,25.67,79.32,25,76.56,25.76c-12.51,3.32-15.35,17.4-16.43,29.29Z"/><path class="cls-3" d="M66,59.89c.69-9.47,2.26-18.53,7.22-21,1.38-.68,3,0,3.72,2,.9,2.58.14,6-.49,9-1.72,8-1.36,18.89-1,27.23.13,3-2.49,6.22-4.9,7.65A1.11,1.11,0,0,1,70,85a1.19,1.19,0,0,1-.64-.23c-1.43-.91-1.72-2.22-2.24-3.84C65,74.29,65.54,66,66,59.89Z"/><path class="cls-4" d="M137.36,146.21c-6.65,8.5-19.75,14.26-35.07,15.45-37.94,2.87-57.63-8.73-60.19-35.51-.38-3.79-1.63-23.32,9.49-36.86,6.68-8.14,16.63-12.72,29.6-13.61,44.6-3.09,48,30.84,48.15,32.29a2,2,0,0,0,1.4,1.74c.42.1,10,2.93,11.77,15.62C143.59,133.4,141.87,140.45,137.36,146.21Z"/><ellipse class="cls-3" cx="105.79" cy="124.63" rx="9.8" ry="9.15"/><path class="cls-5" d="M117.7,112.81c0,2.21-1.12,3.55-2.5,3.55s-2.49-1.34-2.49-3.55,1.12-4,2.49-4S117.7,110.6,117.7,112.81Z"/><path class="cls-5" d="M127.35,112.41c0,2.21-1.12,3.55-2.5,3.55s-2.5-1.34-2.5-3.55,1.12-4,2.5-4S127.35,110.2,127.35,112.41Z"/><ellipse class="cls-6" cx="125.11" cy="118.11" rx="4.77" ry="3.32"/><path class="cls-3" d="M134,111.67s-3,1.83-.54,7.33c0,0,3.44,6.42,7.87,3.82C141.37,122.82,140.46,113.81,134,111.67Z"/><path d="M91.52,163.59c-31.84,0-48.52-12.26-50.91-37.3-.4-3.86-1.76-23.86,9.82-37.95,7-8.48,17.27-13.24,30.66-14.15C127,71,130.7,106.33,130.83,107.83a.5.5,0,0,0,.35.44s10.92,3,12.81,16.85c1.15,8.52-.68,15.92-5.45,22h0c-6.89,8.82-20.4,14.81-36.13,16Q96.7,163.58,91.52,163.59ZM86.74,77c-1.74,0-3.55.06-5.44.19C68.77,78,59.16,82.43,52.75,90.24,41.69,103.7,43.36,123.76,43.59,126c2.46,25.78,21.63,37,58.59,34.16,14.9-1.15,27.61-6.71,34-14.87,4.25-5.44,5.88-12.08,4.84-19.76-1.61-11.86-10.55-14.34-10.64-14.36a3.53,3.53,0,0,1-2.54-3.09C127.73,106.77,124.62,77,86.74,77Z"/><path class="cls-7" d="M122.93,127.82l1.93,5a1.66,1.66,0,0,0,1.65,1l3-.14a1.53,1.53,0,0,0,1.49-1.26l.89-5.63a15.61,15.61,0,0,1-3.64-1.42S124.88,127.64,122.93,127.82Z"/><path d="M126.42,134.85a2.66,2.66,0,0,1-2.5-1.67l-1.93-5a1,1,0,0,1,.09-.89,1,1,0,0,1,.75-.46c1.24-.12,3.63-1.46,4.84-2.27a1,1,0,0,1,1.2.06,13.55,13.55,0,0,0,3.26,1.22,1,1,0,0,1,.72,1.12L132,132.6a2.54,2.54,0,0,1-2.43,2.1l-3,.14Zm-2.15-6.31,1.52,3.92a.65.65,0,0,0,.67.39l3-.14a.57.57,0,0,0,.56-.42l.74-4.76a17.36,17.36,0,0,1-2.5-1A19.51,19.51,0,0,1,124.27,128.54Z"/><path d="M136.4,122.17a1.1,1.1,0,0,0-1.65-.46,1.55,1.55,0,0,0-.4,2c0,.09.14.27-.27.85a3,3,0,0,1-2.59,1.3,3.56,3.56,0,0,1-2.85-1.68c0-.07-.11-.11-.15-.17a.83.83,0,0,0-.15-.17s0,0,0,0a1.26,1.26,0,0,0-.26-.13,1.22,1.22,0,0,0-.17-.07h-.27a.59.59,0,0,0-.19,0,2.14,2.14,0,0,0-.22.1,1.43,1.43,0,0,0-.21.12h0c-.06.06-.1.13-.15.19s-.1.1-.14.17c-1.72,3-6.47,3.68-9.42,1.39a5.72,5.72,0,0,1-1.24-1.24,1.61,1.61,0,0,0-.28-1.66,1.09,1.09,0,0,0-1.71.09,2.49,2.49,0,0,0-.49,1.81,5.39,5.39,0,0,0,2.39,3.38,8.9,8.9,0,0,0,5.44,1.83,8.56,8.56,0,0,0,6.32-2.76,5.73,5.73,0,0,0,3.74,1.65h.2a5.25,5.25,0,0,0,4.32-2.33A3.82,3.82,0,0,0,136.4,122.17Z"/><circle class="cls-8" cx="95.5" cy="118.61" r="2.04"/><circle class="cls-8" cx="95.58" cy="124.48" r="2.04"/><path class="cls-9" d="M104.16,108.38l-2.39-3.81a10.58,10.58,0,0,0-2.28,6.61c0,5.62,4.25,10.18,9.5,10.18s9.5-4.56,9.5-10.18S114.24,101,109,101a8.78,8.78,0,0,0-2.52.37l1,4.8Z"/><path class="cls-8" d="M109,98.5a11,11,0,0,0-3,.44l.52,2.43A8.78,8.78,0,0,1,109,101c5.25,0,9.5,4.55,9.5,10.18s-4.25,10.18-9.5,10.18-9.5-4.56-9.5-10.18a10.58,10.58,0,0,1,2.28-6.61l-1.34-2.12a13,13,0,0,0-3.21,7.5,2.49,2.49,0,1,0,.15,3.57c1,5.88,5.84,10.33,11.62,10.33,6.53,0,11.83-5.67,11.83-12.67S115.52,98.5,109,98.5Z"/><path class="cls-10" d="M106.47,101.37,106,98.94a11.58,11.58,0,0,0-5.52,3.51l1.34,2.12A9.45,9.45,0,0,1,106.47,101.37Z"/><path class="cls-11" d="M136.76,163.48a18.25,18.25,0,0,1-8.36-.77c-2.62-.89-5.16-2.39-7.92-2.26-4,.18-7.42,4.56-6.56,8.5.94,4.37,6.17,7.93,10,9.5,4.6,1.89,9.68,2.29,14.65,2.28a33.06,33.06,0,0,0,9.67-1.13l-5-17.74A49.33,49.33,0,0,1,136.76,163.48Z"/><path class="cls-2" d="M157,172.48c1.41-3.28.79-7.53-2-9.79-2.44-2-5.95-2.14-9-1.52-.93.18-1.85.42-2.76.69l5,17.74c.3-.09.6-.18.9-.29A13.31,13.31,0,0,0,157,172.48Z"/><path class="cls-12" d="M150,179.46,145,161c-.2-.7-2.12-1.28-2.7-1.32a3.32,3.32,0,0,0-3.43,3.28,3.83,3.83,0,0,0,1.32,3.34,1.15,1.15,0,0,1-.12,1.76,3.38,3.38,0,0,0-1.25,4.21,3.86,3.86,0,0,0,3,2.65,1,1,0,0,1,.85,1.22,10.82,10.82,0,0,0-.22,2.07,4.44,4.44,0,0,0,4.51,3.74C147.59,181.89,150.3,180.48,150,179.46Z"/><path d="M146.54,183a5.11,5.11,0,0,1-3.17-1.21,5.19,5.19,0,0,1-2-3.46,11.38,11.38,0,0,1,.24-2.36,4.9,4.9,0,0,1-3.79-3.39,4.3,4.3,0,0,1,1.61-5.29.28.28,0,0,0,.08-.15,4.92,4.92,0,0,1-1.67-4.25c.21-2.23,1.83-4.39,4.5-4.18.4,0,3.17.57,3.58,2.06L151,179.2h0a1.8,1.8,0,0,1-.3,1.49A7,7,0,0,1,147,183,3.59,3.59,0,0,1,146.54,183ZM142,160.7a2.37,2.37,0,0,0-2.18,2.39,2.79,2.79,0,0,0,1,2.49,2,2,0,0,1,.69,1.64,2.17,2.17,0,0,1-.87,1.67,2.36,2.36,0,0,0-.92,3.05,2.88,2.88,0,0,0,2.16,2,2,2,0,0,1,1.37.82,2.07,2.07,0,0,1,.33,1.6,8.75,8.75,0,0,0-.2,1.78,3.26,3.26,0,0,0,1.24,2.08,3,3,0,0,0,2.15.74,5.46,5.46,0,0,0,2.25-1.39c-3.07-11.2-4.75-17.31-5-18.2a4.89,4.89,0,0,0-1.83-.69Zm7,19h0Z"/><path d="M146.69,183.17a5.21,5.21,0,0,1-3.46-1.47c-1.39.13-2.9.18-4.67.18-4.31,0-9.88-.27-15-2.36-3.41-1.4-9.47-5.13-10.58-10.2a8.44,8.44,0,0,1,7.49-9.72,14.64,14.64,0,0,1,6.2,1.51c.72.29,1.4.57,2.1.8a17.08,17.08,0,0,0,7.9.73c.43-.06.89-.14,1.39-.25a4.19,4.19,0,0,1,4.39-3.51,6,6,0,0,1,3.27,1.47l.09,0c4-.79,7.55-.18,9.88,1.74,3,2.44,3.93,7.05,2.25,11a13.61,13.61,0,0,1-6.8,6.68,1.86,1.86,0,0,1-.35,1.16,7,7,0,0,1-3.68,2.28A3.55,3.55,0,0,1,146.69,183.17Zm-3.09-3.51a1,1,0,0,1,.74.33,3.19,3.19,0,0,0,2.57,1.16,5.46,5.46,0,0,0,2.25-1.39l-.1-.37a1,1,0,0,1,.57-1.19,11.84,11.84,0,0,0,6.51-6c1.31-3,.59-6.75-1.68-8.62-2.51-2.06-6.23-1.71-8.22-1.31l-.75.16a1.05,1.05,0,0,1-1.26-.69l-.06-.21a4.89,4.89,0,0,0-1.83-.69,2.34,2.34,0,0,0-2.36,2.39,1.06,1.06,0,0,1-.77.92,19.66,19.66,0,0,1-2.22.44,19.26,19.26,0,0,1-8.82-.81c-.75-.26-1.5-.56-2.21-.85a12.73,12.73,0,0,0-5.35-1.36,6.07,6.07,0,0,0-4.38,2.48,5.89,5.89,0,0,0-1.25,4.81c.8,3.72,5.43,7.16,9.38,8.78,4.75,2,10.07,2.21,14.2,2.21,1.9,0,3.49-.06,4.94-.21ZM145,160.53l.23,1Zm-.82.95Z"/><path class="cls-1" d="M133.25,199.46c0,11.07-20.73,21-45.07,21s-43.57-9-44.07-20c-.83-18.37,16-45.17,46.07-41C114.29,162.76,133.25,188.4,133.25,199.46Z"/><path d="M88.18,222c-25,0-45-9.43-45.57-21.47C42.1,189.19,47.76,176.4,57,168c6.35-5.78,17.29-12.22,33.36-10,25.19,3.47,44.37,29.71,44.37,41.51C134.75,211.68,113.42,222,88.18,222ZM84,160.5a36.45,36.45,0,0,0-25,9.67c-8.5,7.75-13.9,19.9-13.43,30.23S65.17,219,88.18,219c24.93,0,43.57-10.32,43.57-19.54,0-9.77-17.64-35.21-41.78-38.54A42.76,42.76,0,0,0,84,160.5Z"/><path class="cls-13" d="M50.23,159.2c.2.49.54,1.91,1,2.12,3.49,1.49,16.85,5.82,42.32,5.12,0,0,28.86.55,36.9-1.89a1.81,1.81,0,0,0,1-.76c1-1.56,4.18-7.19,6.75-9.93a2.58,2.58,0,0,0-1.07-4.23,5.46,5.46,0,0,0-6.51,2s-4,8.19-9.11-.17a3.59,3.59,0,0,0-.67-.84c-1.2-1.13-4.73-3.67-9,0a3.55,3.55,0,0,0-.73.86c-1.29,2-6.76,9.62-11.71,1.11a3.65,3.65,0,0,0-.46-.65c-1.21-1.33-6-6-11-1.15a4,4,0,0,0-.43.49c-1,1.33-6.4,7.95-11.27-1.41a3.59,3.59,0,0,0-.49-.73c-1.12-1.29-5-4.78-10.4.27a4.22,4.22,0,0,0-.52.6c-1,1.38-5.43,6.9-9.76,1,0,0-5.82-7.09-11.69-.44a1.87,1.87,0,0,0,.48,2.84C45.72,154.49,49.48,157.38,50.23,159.2Z"/><path d="M88,168c-23.64,0-35.17-4.39-37.36-5.32-1-.43-1.39-1.61-1.7-2.56,0-.15-.09-.28-.13-.37h0c-.49-1.21-3.59-3.82-5.78-5.11a3.38,3.38,0,0,1-1.63-2.4,3.32,3.32,0,0,1,.78-2.72c2-2.27,4.26-3.42,6.69-3.35,4.16.07,7.16,3.67,7.29,3.83,1.05,1.42,2.08,2.12,3.09,2.12h0c1.55,0,3.22-1.58,4.27-3a5.71,5.71,0,0,1,.72-.82c2.31-2.15,4.66-3.18,7-3.05a8.09,8.09,0,0,1,5.55,2.88,5.29,5.29,0,0,1,.69,1c.94,1.8,2.43,4,4.25,4.11,2.13.16,4.11-2.39,4.49-2.9a4.88,4.88,0,0,1,.59-.68,8.09,8.09,0,0,1,6-2.54c3.48.11,6.18,2.67,7.17,3.76a5,5,0,0,1,.66.91c1.22,2.1,2.48,3.17,3.75,3.2h0c1.9,0,4-2.25,5.34-4.37a5.38,5.38,0,0,1,1-1.2c5.34-4.5,9.8-1.07,11,.08a5.6,5.6,0,0,1,.92,1.16c1.19,2,2.39,3,3.39,3h0c1.39-.05,2.7-2.06,3.05-2.76a1.32,1.32,0,0,1,.16-.25,7,7,0,0,1,8.17-2.49,4.09,4.09,0,0,1,1.68,6.68,56.2,56.2,0,0,0-5.52,8c-.45.74-.82,1.35-1.07,1.72a3.35,3.35,0,0,1-1.83,1.37c-8.17,2.47-36.18,2-37.36,1.95C91.65,168,89.8,168,88,168Zm-35.9-8c2.39,1,15.34,5.6,41.41,4.89.36,0,28.79.51,36.51-1.82a.43.43,0,0,0,.2-.15c.24-.36.58-.93,1-1.63a56.75,56.75,0,0,1,5.9-8.51,1,1,0,0,0,.26-1,1.08,1.08,0,0,0-.72-.78,3.94,3.94,0,0,0-4.76,1.39c-.45.84-2.39,4.14-5.52,4.27-2.21.11-4.29-1.42-6.14-4.49a2.76,2.76,0,0,0-.41-.51c-1.53-1.43-4-2.58-7.06,0a2,2,0,0,0-.43.52c-1.12,1.76-4.13,5.83-8,5.76-2.39-.05-4.51-1.63-6.29-4.69a2.3,2.3,0,0,0-.28-.4c-.58-.63-2.65-2.71-5.06-2.79a5.23,5.23,0,0,0-3.84,1.71,3.47,3.47,0,0,0-.25.29c-.76,1-3.51,4.39-7.13,4.12-2.56-.2-4.81-2.12-6.68-5.71a2.52,2.52,0,0,0-.3-.45,5.13,5.13,0,0,0-3.44-1.85c-1.49-.08-3.11.67-4.8,2.24a2.47,2.47,0,0,0-.32.38c-.92,1.28-3.41,4.27-6.69,4.29h0c-2,0-3.86-1.11-5.46-3.28h0s-2.24-2.63-5-2.67h-.07a5.86,5.86,0,0,0-4.3,2.34.33.33,0,0,0-.07.27.4.4,0,0,0,.19.29c1.8,1,6.07,4.17,7,6.55h0c.06.13.12.33.2.56A8.88,8.88,0,0,0,52.13,160.05Zm.08.15h0Z"/><path class="cls-11" d="M132.42,187.39c-1.63-2.6-2.92-5.72-2.14-8.68a6.74,6.74,0,0,1,2.34-3.53,63.48,63.48,0,0,1-.91-8.2,3.92,3.92,0,0,0-4.08-3.79c-13.88.6-58.72,2.05-72.45-3.57a3.94,3.94,0,0,0-5.21,2.5c-2.71,8.53-8.15,25.54-10.42,32a3.92,3.92,0,0,0,1.32,4.41c4.67,3.6,17.84,10.75,49.37,11.57,0,0,26.62,1.55,27.63-8.94,0,0,2.84-15.35,2.84-15.37a3.17,3.17,0,0,1,1.28-2,1.4,1.4,0,0,1,1.7.5,5.5,5.5,0,0,1,.86,1.71c.66,2.47,3.2,12,3.36,12.5,1.36,3.93,5,5.92,8.85,3.13,2.43-1.76.22-6.43-.34-8.82l-.24-1A23.58,23.58,0,0,1,132.42,187.39Z"/><path class="cls-14" d="M132.62,175.18a6.74,6.74,0,0,0-2.34,3.53c-.78,3,.51,6.08,2.14,8.68a23.58,23.58,0,0,0,3.76,4.44q-1.23-5.22-2.36-10.46C133.4,179.41,133,177.32,132.62,175.18Z"/><path class="cls-15" d="M91.43,178.66a7,7,0,0,0-5.91,5c-.78,3,.51,6.08,2.15,8.68C90,196,94,199.22,97.49,201.7a2.81,2.81,0,0,0,1.51.65,2.9,2.9,0,0,0,1.64-.7,28.88,28.88,0,0,0,7.14-7.48,14.29,14.29,0,0,0,2.83-10.43,6.39,6.39,0,0,0-1.86-3.78,5.71,5.71,0,0,0-5.62-.84,14.35,14.35,0,0,0-3.21,2c-1.72,1.16-1.06,1.08-2.62,0C95.39,179.72,94,178.41,91.43,178.66Z"/><ellipse class="cls-16" cx="122.11" cy="172.75" rx="3.26" ry="3.34"/><path class="cls-17" d="M96.45,210.12c-3.58,0-6.35-.27-6.92-.33-32.87-.9-47.44-10.47-51.13-13.38a2,2,0,1,1,2.48-3.14C44.33,196,58,204.94,89.72,205.79h.16c4.52.5,17.29.93,22.05-3a4.26,4.26,0,0,0,1.69-3,2.07,2.07,0,0,1,0-.22s3.18-15.26,3.25-15.62a6.32,6.32,0,0,1,3.28-4.42,4.8,4.8,0,0,1,4.45,0c2.58,1.32,3.38,5,4,7.71.12.57.24,1.09.35,1.5.19.68.38,1.36.56,2,.41,1.53.84,3.12,1.35,4.62.65,1.94,1.54,3.25,2.38,3.5s1.65-.37,2.31-.9a2,2,0,1,1,2.49,3.12c-2.53,2-4.62,2-5.92,1.62-2.19-.65-3.94-2.74-5.05-6.06-.55-1.61-1-3.26-1.42-4.86-.18-.67-.36-1.33-.55-2-.13-.48-.27-1.08-.41-1.74-.29-1.36-1-4.54-1.88-5a.86.86,0,0,0-.85,0,2.36,2.36,0,0,0-1.12,1.58s0,.13-3.25,15.6a8.14,8.14,0,0,1-3.13,5.59C110.21,209.41,102.26,210.12,96.45,210.12Z"/><path d="M94.08,211.62c-2,0-3.5-.08-4.08-.11-31.32-.82-44.89-7.8-50.19-11.88a5.43,5.43,0,0,1-1.83-6.1c2.2-6.28,8.67-25.39,11.41-34a1.5,1.5,0,0,1,1.79-1,184.4,184.4,0,0,0,41.93,4.53c.34,0,27.7.74,37.18-1.67a1.49,1.49,0,0,1,1.49.46l.9,1a1.54,1.54,0,0,1,.38.94,124.15,124.15,0,0,0,2.08,17.14c.82,3.84,1.69,7.7,2.59,11.45.1.45.27,1,.45,1.55.85,2.7,2.13,6.79-.69,8.84a7,7,0,0,1-6.31,1.3,7.87,7.87,0,0,1-4.84-5.16c-.08-.26-.55-1.93-3.35-12.44l0-.17a4.7,4.7,0,0,0-.52-1.08l0,0a2.16,2.16,0,0,0-.37.78h0s-.06.37-2.83,15.31C118.24,210.48,102,211.62,94.08,211.62ZM51.83,161.76c-2.94,9.12-8.92,26.77-11,32.76a2.45,2.45,0,0,0,.83,2.73c4,3.11,16.83,10.44,48.49,11.26,7.05.41,25.38-.17,26.09-7.59,0,0,0-.08,0-.13s2.81-15.18,2.84-15.36a4.65,4.65,0,0,1,2-3,2.81,2.81,0,0,1,3.5.79,6.88,6.88,0,0,1,1.22,2.35l0,.17c2.56,9.61,3.2,12,3.29,12.24a4.93,4.93,0,0,0,2.9,3.27,4.11,4.11,0,0,0,3.65-.87c1.07-.78.18-3.63-.41-5.51-.21-.65-.39-1.25-.51-1.75-.9-3.78-1.78-7.66-2.61-11.53a129,129,0,0,1-2.12-17c-10.55,2.25-35.88,1.57-37,1.54A186.16,186.16,0,0,1,51.83,161.76Z"/><path class="cls-11" d="M73,189.17a18.2,18.2,0,0,1,0-8.4c.63-2.7,1.88-5.37,1.48-8.11-.58-3.95-5.27-6.94-9.11-5.7-4.25,1.37-7.29,6.92-8.47,10.86-1.44,4.77-1.34,9.86-.85,14.81a33.09,33.09,0,0,0,2.08,9.51l17.16-6.73A48.36,48.36,0,0,1,73,189.17Z"/><path class="cls-2" d="M66,210.16c3.4,1.09,7.56.06,9.55-2.91,1.76-2.63,1.55-6.13.63-9.16-.27-.9-.61-1.79-1-2.68l-17.16,6.73c.12.29.24.58.37.86A13.27,13.27,0,0,0,66,210.16Z"/><path class="cls-12" d="M58.39,203.92l17.84-6.83c.69-.26,1.08-2.23,1.06-2.81a3.31,3.31,0,0,0-3.6-3.09,3.82,3.82,0,0,0-3.2,1.63,1.14,1.14,0,0,1-1.76.05,3.39,3.39,0,0,0-4.31-.83,3.88,3.88,0,0,0-2.35,3.2,1,1,0,0,1-1.13,1,9.56,9.56,0,0,0-2.08,0,4.42,4.42,0,0,0-3.28,4.85C55.73,201.74,57.4,204.3,58.39,203.92Z"/><path class="cls-18" d="M58.18,205a1.92,1.92,0,0,1-1-.26,7,7,0,0,1-2.63-3.43,5,5,0,0,1,.82-3.75,5.21,5.21,0,0,1,3.25-2.31,11.6,11.6,0,0,1,2.37,0,5,5,0,0,1,3-4.11,4.33,4.33,0,0,1,5.43,1.09.19.19,0,0,0,.15.06,5,5,0,0,1,4.07-2.07h0c2.24,0,4.54,1.39,4.6,4.07,0,.4-.26,3.21-1.7,3.76-.15.06-15.34,5.95-17.86,6.8l0,0A1.82,1.82,0,0,1,58.18,205Zm1.5-7.81a6,6,0,0,0-.64,0,3.18,3.18,0,0,0-1.95,1.45,3,3,0,0,0-.53,2.2,5.49,5.49,0,0,0,1.6,2.11l17.62-6.75a4.66,4.66,0,0,0,.51-1.89,2.34,2.34,0,0,0-2.6-2.11h0a2.83,2.83,0,0,0-2.39,1.22,2.07,2.07,0,0,1-1.56.85,2.12,2.12,0,0,1-1.74-.71,2.37,2.37,0,0,0-3.13-.62,2.88,2.88,0,0,0-1.8,2.35,2,2,0,0,1-2.24,1.93C60.43,197.17,60,197.15,59.68,197.15Zm16.19-1Z"/><path class="cls-18" d="M68.66,211.69a10.32,10.32,0,0,1-3.09-.48,13.52,13.52,0,0,1-7.3-6.11,1.88,1.88,0,0,1-1.19-.24,6.9,6.9,0,0,1-2.63-3.44,5.06,5.06,0,0,1,1-4c-.25-1.34-.45-2.8-.63-4.55-.42-4.3-.7-9.91.89-15.2,1.06-3.53,4.17-9.93,9.12-11.52a7.89,7.89,0,0,1,6.58,1,8.08,8.08,0,0,1,3.82,5.52,14.51,14.51,0,0,1-.89,6.32c-.22.75-.43,1.45-.6,2.16a17.18,17.18,0,0,0,0,7.94c.1.43.23.87.39,1.36a4.18,4.18,0,0,1,3.92,4,5.91,5.91,0,0,1-1.15,3.4l0,.09c1.2,3.94.93,7.49-.75,10A9.08,9.08,0,0,1,68.66,211.69Zm-9.94-8.8a1,1,0,0,1,.88.52,12,12,0,0,0,6.58,5.9c3.17,1,6.78-.08,8.42-2.52,1.8-2.7,1.09-6.37.5-8.31-.08-.27-.17-.53-.26-.8a1,1,0,0,1,.59-1.26l.18-.06h0a4.87,4.87,0,0,0,.51-1.89,2.34,2.34,0,0,0-2.6-2.12h0a1.07,1.07,0,0,1-1-.67c-.29-.81-.49-1.5-.66-2.17a19.36,19.36,0,0,1,0-8.86c.18-.77.41-1.54.63-2.28a13.16,13.16,0,0,0,.84-5.46,6.12,6.12,0,0,0-2.91-4.11,5.94,5.94,0,0,0-4.91-.78c-3.61,1.17-6.59,6.1-7.82,10.2-1.49,4.95-1.21,10.31-.81,14.42.19,1.89.41,3.42.69,4.82a1,1,0,0,1-.23.87A3.22,3.22,0,0,0,56.4,201a5.41,5.41,0,0,0,1.61,2.1l.36-.13A.91.91,0,0,1,58.72,202.89Zm16.88-6.51Z"/><circle class="cls-9" cx="175.83" cy="134.62" r="4.71" transform="translate(-43.7 163.76) rotate(-45)"/><path class="cls-19" d="M182.63,141.06A9.38,9.38,0,1,0,169,141a23.43,23.43,0,1,0,13.67.07Zm-6.8-1.72a4.72,4.72,0,1,1,4.71-4.72A4.72,4.72,0,0,1,175.83,139.34Z"/><path d="M175.67,187.88a24.44,24.44,0,0,1-8.39-47.39,10.37,10.37,0,1,1,17,.09,24.44,24.44,0,0,1-8.64,47.3Zm.16-61.63a8.36,8.36,0,0,0-6.14,14.06,1,1,0,0,1,.23.94,1,1,0,0,1-.68.7,22.44,22.44,0,1,0,28.87,21.49A22.33,22.33,0,0,0,182.33,142a1,1,0,0,1-.67-.7,1,1,0,0,1,.24-.94,8.36,8.36,0,0,0-6.07-14.12Zm0,14.09a5.72,5.72,0,1,1,5.71-5.72A5.73,5.73,0,0,1,175.83,140.34Zm0-9.43a3.72,3.72,0,1,0,3.71,3.71A3.72,3.72,0,0,0,175.83,130.91Z"/><ellipse class="cls-20" cx="175.67" cy="163.36" rx="17.77" ry="18.41"/><circle class="cls-2" cx="175.67" cy="162.79" r="16.15"/><path d="M175.67,179.94a17.15,17.15,0,1,1,17.15-17.15A17.17,17.17,0,0,1,175.67,179.94Zm0-32.3a15.15,15.15,0,1,0,15.15,15.15A15.17,15.17,0,0,0,175.67,147.64Z"/><path class="cls-21" d="M186.26,155.92a1,1,0,0,0-.84-.4l-4.24.16a1,1,0,0,0,.08,2l1.06,0-4,2.94a3.74,3.74,0,0,0-2.43-.91,3.8,3.8,0,0,0-.23,7.59l1.26,5.87c-.95.31-2.2,1-1.81,2.69a2,2,0,0,0,1.05,1.44,2.63,2.63,0,0,0,1.14.23,5.29,5.29,0,0,0,.54,0l.54,2.49a.84.84,0,0,0,.82.67l.18,0a.85.85,0,0,0,.65-1l-.54-2.5a2.2,2.2,0,0,0,1.73-2.67,2,2,0,0,0-1.05-1.44,3.05,3.05,0,0,0-1.6-.2L177.29,167a3.81,3.81,0,0,0,2.36-3.51,3.71,3.71,0,0,0-.23-1.26l4.06-2.95-.23.66a1,1,0,0,0,.63,1.27.93.93,0,0,0,.32.05,1,1,0,0,0,1-.68l1.26-3.73A1,1,0,0,0,186.26,155.92ZM178.8,174H179a1.32,1.32,0,0,1,.6.11c.13.06.27.18.36.58s.16.74-.76,1.11a6.08,6.08,0,0,1-1.64.39,1.72,1.72,0,0,1-.87-.09c-.14-.06-.28-.18-.37-.58s-.16-.77.85-1.15a6.52,6.52,0,0,1,.75-.22A5.73,5.73,0,0,1,178.8,174Zm-3-8.74a1.81,1.81,0,1,1,1.8-1.8A1.81,1.81,0,0,1,175.85,165.28Z"/><path class="cls-22" d="M187.1,148.55a1.52,1.52,0,0,1-1-.43c-3.77-3.68-10.06-3.74-10.12-3.74h-.19a17.69,17.69,0,0,0-10.85,3.71,1.5,1.5,0,0,1-2-2.26,20.7,20.7,0,0,1,13-4.45c.3,0,7.57.07,12.2,4.59a1.51,1.51,0,0,1-1.05,2.58Z"/><path class="cls-1" d="M81.85,215.19c-4.74-5.11-9.48-2.79-13.3.45-1.31,1.1-2.62,2.24-3.91,3.41,3.19,2.78,7.28,6.25,11.39,9.48C80.31,224.63,86,219.69,81.85,215.19Z"/><path class="cls-2" d="M55.59,228.66a7,7,0,0,0-.75,7.29c3.53,7.25,10.37,15,22.73,18.41,4.68,1.28,15.24,3.28,17.7-2.78,1.56-3.86-1.73-6.21-4.85-7.53-3.6-1.52-21.34-6.08-17.91-11.79A20.93,20.93,0,0,1,76,228.53c-4.11-3.23-8.2-6.7-11.39-9.48A68.85,68.85,0,0,0,55.59,228.66Z"/><path d="M86.51,257.13A37.84,37.84,0,0,1,77,255.69c-13.69-3.76-20.44-12.52-23.69-19.2a8.48,8.48,0,0,1,.9-8.84,69.26,69.26,0,0,1,9.24-9.83c1.19-1.08,2.49-2.2,4-3.44,5.82-4.93,11-5,15.37-.33a6.31,6.31,0,0,1,1.86,4.65c-.17,3.91-4,7.38-7.35,10.45l-.42.37a20.57,20.57,0,0,0-3.25,3.4,1.17,1.17,0,0,0-.14,1.11c1.09,3,10.35,6.1,14.3,7.44,1.33.45,2.38.8,3,1.08h0c7.33,3.09,6.4,7.65,5.66,9.48C94.89,256,90.75,257.13,86.51,257.13ZM75.76,213.59c-1.9,0-4,1-6.4,3.07-1.44,1.22-2.71,2.33-3.88,3.38a66.69,66.69,0,0,0-8.85,9.41,5.49,5.49,0,0,0-.6,5.73c3,6.12,9.17,14.15,21.78,17.62,2.27.62,13.73,3.47,15.91-1.9.33-.82,1.34-3.31-4-5.58h0c-.58-.24-1.63-.6-2.85-1-7.37-2.49-14.69-5.26-16.16-9.24a4.17,4.17,0,0,1,.39-3.69,21.06,21.06,0,0,1,3.8-4.07l.42-.38c2.79-2.54,6.26-5.7,6.37-8.35a3.36,3.36,0,0,0-1.06-2.49A6.55,6.55,0,0,0,75.76,213.59Z"/></svg>