<?xml version="1.0" encoding="utf-8"?>
<!-- Generator: Adobe Illustrator 24.1.1, SVG Export Plug-In . SVG Version: 6.00 Build 0)  -->
<svg version="1.1" id="Layer_1" xmlns="http://www.w3.org/2000/svg" xmlns:xlink="http://www.w3.org/1999/xlink" x="0px" y="0px"
	 viewBox="0 0 230 240" style="enable-background:new 0 0 230 240;" xml:space="preserve">
<g>
	<path style="fill:#FFFFFF;" d="M80.34,171.47v31.88c0,0-2.37,0.59-5.51,0.59s-5.54-0.59-5.54-0.59v-31.88
		c0-2.13,1.72-3.82,3.82-3.82C75.2,167.65,80.34,169.35,80.34,171.47z"/>
	<path style="fill-rule:evenodd;clip-rule:evenodd;fill:#009FF9;" d="M80.34,203.35v28.87c0,1.91-2.64,3.52-4.79,3.9l-0.91,0.11
		h-9.2c-0.94,0-1.91,0.03-2.91,0.03c-3.01,0-6.11-0.3-8.23-2.72c-1.91-2.18-1.37-6.56-0.16-8.96c2.26-4.41,6.46-7.67,11.3-8.72
		c0,0,0.22-0.03,0.27-0.05c0.65-0.13,1.24-0.19,1.78-0.24c0.22-0.03,0.43-0.05,0.65-0.05c0.32-0.03,0.65-0.03,0.94-0.03h0.22v-12.13
		c0,0,2.39,0.59,5.54,0.59S80.34,203.35,80.34,203.35z"/>
	<path d="M73.1,164.43c-3.87,0-7.05,3.15-7.05,7.05v41c-0.32,0.05-0.65,0.11-0.97,0.16l-0.38,0.11
		c-5.73,1.24-10.76,5.11-13.45,10.38c-1.56,3.09-2.42,9.07,0.62,12.54c2.93,3.36,7.02,3.82,10.65,3.82h1.56
		c0.46-0.03,0.91-0.03,1.35-0.03h9.2c0.11,0,0.22,0,0.32-0.03l0.94-0.08c0.08-0.03,0.16-0.03,0.24-0.05
		c3.6-0.65,7.42-3.36,7.42-7.08v-60.74C83.57,166.17,75.31,164.43,73.1,164.43z M80.34,232.22c0,1.91-2.64,3.52-4.79,3.9l-0.91,0.11
		h-9.2c-0.94,0-1.91,0.03-2.91,0.03c-3.01,0-6.11-0.3-8.23-2.72c-1.91-2.18-1.37-6.56-0.16-8.96c2.26-4.41,6.46-7.67,11.3-8.72
		c0,0,0.22-0.03,0.27-0.05c0.65-0.13,1.24-0.19,1.78-0.24c0.22-0.03,0.43-0.05,0.65-0.05c0.32-0.03,0.65-0.03,0.94-0.03h0.22v-44.01
		c0-2.13,1.72-3.82,3.82-3.82c2.1,0,7.24,1.69,7.24,3.82V232.22z"/>
</g>
<g>
	<g>
		<path style="fill:#FFFFFF;" d="M92.57,199c0,0,2.13,1.21,5.17,2.05c3.04,0.83,5.49,0.89,5.49,0.89l8.46-30.78
			c0.54-2.02-0.65-4.12-2.67-4.69c-2.05-0.57-7.43-0.27-8,1.75L92.57,199z"/>
		<path style="fill-rule:evenodd;clip-rule:evenodd;fill:#009FF9;" d="M88.48,231.91l0.89,0.35l2.64,0.73l2.5,0.67l3.72,1.02
			c0.57,0.16,1.16,0.35,1.75,0.51c0.62,0.16,1.21,0.35,1.83,0.51c1.24,0.3,2.48,0.54,3.72,0.54c1.43,0,2.85-0.32,4.15-1.18
			c2.42-1.62,3.1-5.98,2.56-8.62c-1-4.85-4.2-9.1-8.59-11.39c0,0-0.22-0.11-0.24-0.13c-1.27-0.62-2.37-1-3.39-1.27l3.23-11.71
			c0,0-2.45-0.05-5.49-0.89c-3.04-0.83-5.17-2.05-5.17-2.05l-7.65,27.87C84.41,228.74,86.51,230.97,88.48,231.91z"/>
		<path d="M87.08,234.82c0.08,0.05,0.16,0.08,0.24,0.11l0.86,0.35c0.11,0.03,0.22,0.05,0.32,0.11l2.67,0.73l2.48,0.67l3.72,1.02
			c0.43,0.11,0.86,0.24,1.32,0.38c2.05,0.59,4.39,1.29,6.84,1.29c2.21,0,4.23-0.59,5.95-1.72c3.85-2.56,4.61-8.54,3.9-11.96
			c-1.18-5.79-5.01-10.88-10.21-13.6l-0.35-0.19c-0.3-0.13-0.59-0.27-0.92-0.4l2.42-8.83l0.97-3.53l7.49-27.23
			c1.05-3.74-1.18-7.65-4.93-8.67c-1.1-0.3-2.37-0.35-3.23-0.35c-2.26,0-7.62,0.4-8.73,4.39l-7.49,27.23l-8.62,31.4
			C80.8,229.62,83.79,233.23,87.08,234.82z M84.92,226.88L92.57,199l0.97-3.53l7.49-27.25c0.4-1.45,3.26-1.99,5.6-1.99
			c0.94,0,1.8,0.08,2.4,0.24c2.02,0.57,3.2,2.67,2.67,4.69l-7.49,27.25l-0.97,3.53L100,213.65c1.02,0.27,2.13,0.65,3.39,1.27
			c0.03,0.03,0.24,0.13,0.24,0.13c4.39,2.29,7.59,6.54,8.59,11.39c0.54,2.64-0.13,7-2.56,8.62c-1.29,0.86-2.72,1.18-4.15,1.18
			c-1.24,0-2.48-0.24-3.72-0.54c-0.62-0.16-1.21-0.32-1.83-0.51c-0.59-0.16-1.18-0.35-1.75-0.51l-3.72-1.02l-2.5-0.67l-2.64-0.73
			l-0.89-0.35C86.51,230.97,84.41,228.74,84.92,226.88z"/>
	</g>
</g>
<g>
	<path style="fill:#FFFFFF;" d="M35.33,138.58c-1.5,2.13-2.71,4.36-3.69,6.65c-4.31,0.17-8.86-2.21-11.16-4.2
		c3.09-6.19,8-11.74,15.26-16.04c1.61-0.98,4.07-2.76,6.24-2.35C50.05,124.05,36.9,136.38,35.33,138.58z"/>
	<path style="fill:#0088C5;" d="M31.66,145.22c-0.28,0.62-0.53,1.24-0.75,1.87c-0.36,1.43-0.66,2.9-0.72,3.18
		c-1.37,4.68-0.63,8.79-0.25,13.53c0.04,0.38,0.04,0.76,0.05,1.14c0.03,0.35,0.01,0.71-0.02,1.04c-0.02,0.22-0.03,0.47-0.08,0.7
		c-0.03,0.33-0.11,0.67-0.19,0.99c-0.01,0.08-0.03,0.14-0.07,0.23c-0.19,0.66-0.53,1.26-0.96,1.77c-0.6,0.67-1.42,1.14-2.59,1.33
		c-0.66,0.11-1.43,0.13-2.32,0.03c-0.61-0.06-1.31-0.19-2.01-0.4c-1.49-0.41-2.98-1.14-3.76-2.05c-3.66-4.25-2.53-10.09-1.78-14.72
		c0.39-2.41,0.95-4.77,1.74-7.09c0.02-0.03,0.04-0.09,0.06-0.15c0.08-0.2,0.18-0.55,0.33-0.96c0.11-0.29,0.23-0.58,0.34-0.93
		c0.33-0.82,0.67-1.72,0.96-2.45l0.02-0.03c0.15-0.27,0.24-0.53,0.34-0.71c0.12-0.24,0.23-0.39,0.3-0.49
		c0.02-0.03,0.07-0.07,0.1-0.04l0.03,0l0.03,0.02c2.3,1.99,6.85,4.37,11.16,4.2L31.66,145.22z"/>
	<path d="M47.51,123.24c-0.39-1.16-1.57-3.2-4.97-3.78c-0.76-0.15-1.61-0.14-2.43,0c-2.12,0.36-4.03,1.52-5.42,2.38l-0.59,0.37
		c-7.1,4.24-12.55,9.85-16.16,16.68c-0.94,1.06-1.73,3.07-3.01,6.81c-0.82,2.46-1.45,5.02-1.89,7.66l-0.08,0.5
		c-0.79,4.91-1.89,11.59,2.59,16.82c1.53,1.79,4,2.69,5.35,3.07c0.86,0.24,1.74,0.42,2.54,0.5c1.14,0.11,2.2,0.1,3.18-0.07
		c2.71-0.45,7.21-2.46,6.55-10.65c-0.05-0.81-0.13-1.62-0.21-2.4c-0.35-3.57-0.65-6.66,0.33-9.97c0.03-0.14,0.11-0.51,0.24-1
		c0.12-0.57,0.29-1.36,0.49-2.13c1.01-2.76,2.34-5.3,3.95-7.59c0.18-0.25,0.91-1.08,1.51-1.73
		C44.57,133.1,49.04,127.66,47.51,123.24z M35.33,138.58c-1.5,2.11-2.69,4.33-3.67,6.65c-0.28,0.62-0.53,1.24-0.75,1.87
		c-0.36,1.43-0.66,2.9-0.72,3.18c-1.37,4.68-0.63,8.79-0.25,13.53c0.04,0.38,0.04,0.76,0.05,1.14c0,0.35,0.01,0.71-0.02,1.04
		c-0.02,0.22-0.03,0.47-0.08,0.7c-0.03,0.33-0.11,0.67-0.19,0.99c-0.01,0.08-0.03,0.14-0.07,0.23c-0.19,0.66-0.5,1.26-0.96,1.77
		c-0.6,0.67-1.42,1.14-2.59,1.33c-0.66,0.11-1.43,0.13-2.32,0.03c-0.61-0.06-1.31-0.19-2.01-0.4c-1.49-0.41-2.98-1.14-3.76-2.05
		c-3.66-4.25-2.53-10.09-1.78-14.72c0.39-2.41,0.95-4.77,1.74-7.09c0.02-0.03,0.04-0.09,0.06-0.15c0.08-0.2,0.18-0.55,0.33-0.96
		c0.09-0.29,0.2-0.61,0.34-0.93c0.3-0.81,0.64-1.74,0.96-2.45l0.02-0.03c0.12-0.27,0.24-0.53,0.34-0.71
		c0.12-0.24,0.23-0.39,0.3-0.49c0.02-0.03,0.07-0.07,0.1-0.04l0.03,0c0,0,0,0,0.03,0c3.15-6.18,8.06-11.72,15.26-16.01
		c1.29-0.76,3.12-2.05,4.9-2.35c0.45-0.08,0.89-0.09,1.34,0C50.05,124.05,36.9,136.38,35.33,138.58z"/>
</g>
<g>
	<path style="fill:#BE723F;" d="M151.25,102.86c2.96,2.54,7.37,1.39,9.52,0.59l-0.22-0.44L151.25,102.86z"/>
	<path style="fill:#ECAA52;" d="M149.87,83.51l0.99,2.14c0.08,0.02,0.16,0.02,0.25,0.04c0.03,0,0.05,0,0.08,0.02
		c0.11-0.01,0.22,0.01,0.3,0.03c0.22,0.01,0.43,0.05,0.63,0.09c0.33,0.03,0.65,0.09,0.98,0.17c0.3,0.06,0.63,0.14,0.93,0.2
		c0.35,0.06,0.71,0.16,1.04,0.28c0.25,0.06,0.49,0.13,0.74,0.22c0.6,0.17,1.21,0.4,1.77,0.63c0.56,0.23,1.08,0.46,1.59,0.72
		c0.31,0.14,0.61,0.31,0.9,0.47c0.42,0.21,0.82,0.48,1.21,0.72c0.54,0.34,1.05,0.68,1.53,1.05c0.37,0.3,0.74,0.57,1.09,0.87
		s0.66,0.6,0.98,0.9c0.32,0.3,0.64,0.6,0.93,0.9c0.2,0.2,0.41,0.43,0.56,0.63c0.2,0.2,0.38,0.4,0.53,0.61
		c0.03,0.05,0.09,0.1,0.15,0.15l-0.09-0.16l2.85-0.12c-1.25-2.04-3.12-4.44-5.79-6.43c-0.28-0.2-0.57-0.42-0.88-0.64
		c-1.84-1.22-4.01-2.25-6.59-2.87c-0.41-0.11-0.82-0.18-1.26-0.26c-0.16-0.04-0.35-0.06-0.55-0.1c-0.44-0.08-0.9-0.12-1.36-0.17
		c-0.33-0.03-0.65-0.06-1-0.06c-0.35-0.03-0.7-0.06-1.08-0.06c-0.08,0.01-0.16-0.02-0.27,0.02
		C150.62,83.48,150.25,83.48,149.87,83.51z"/>
	<path style="fill:#ECAA52;" d="M149.58,99.02c0.07,0.64,0.59,1.12,1.24,1.12l55.47,0.98c0.35,0.03,0.69-0.13,0.94-0.39
		c0.25-0.26,0.36-0.59,0.34-0.97l-0.28-3.62c-0.05-0.67-0.62-1.17-1.32-1.12l-55.19,2.64c-0.38,0.03-0.66,0.15-0.89,0.41
		C149.66,98.34,149.55,98.67,149.58,99.02z"/>
	<path d="M125.87,59.33l23.83,35.82c-0.71,0.19-1.36,0.58-1.86,1.16c-0.7,0.83-1.05,1.88-0.95,2.95c0.06,0.53,0.21,1.04,0.46,1.48
		c-0.07,0.09-0.12,0.17-0.17,0.28c-0.11,0.33-0.08,0.73,0.1,1.04c2.21,4.21,6.08,5.22,9.67,4.97c2.41-0.17,4.73-0.93,6.29-1.71
		c0.34-0.16,0.59-0.45,0.7-0.8c0.11-0.33,0.06-0.7-0.1-1.04l-0.22-0.42l42.61,0.76l0.35-0.02c0.99-0.07,1.9-0.51,2.58-1.23
		c0.78-0.78,1.16-1.89,1.08-2.99l-0.28-3.62c-0.18-2.14-1.96-3.71-4.08-3.61c-3.05-26.96-20.42-37.41-22.83-38.75
		c-2.38-1.58-21.26-13.3-48.75-1.08c-1.38-1.22-3.42-1.48-5.1-0.53l-1.79,0.99c-1.09,0.62-1.88,1.64-2.17,2.85
		C124.95,57.03,125.18,58.31,125.87,59.33z M150.14,83.49c0.3,0.01,0.59-0.02,0.86,0.02c0.11-0.03,0.19-0.01,0.27-0.02
		c0.38,0,0.73,0,1.08,0.06c0.35,0,0.68,0.03,1,0.06c0.46,0.05,0.92,0.1,1.36,0.17c0.19,0.04,0.38,0.05,0.55,0.1
		c0.44,0.08,0.85,0.16,1.26,0.26c2.58,0.62,4.75,1.65,6.59,2.87c0.29,0.22,0.6,0.42,0.88,0.64c2.67,1.99,4.54,4.39,5.79,6.43
		l-2.85,0.12l0.09,0.16c-0.06-0.05-0.11-0.1-0.15-0.15c-0.15-0.2-0.33-0.41-0.53-0.61c-0.15-0.2-0.35-0.43-0.56-0.63
		c-0.29-0.3-0.61-0.6-0.93-0.9c-0.32-0.3-0.64-0.6-0.98-0.9s-0.71-0.57-1.09-0.87c-0.48-0.37-0.99-0.71-1.53-1.05
		c-0.39-0.24-0.79-0.51-1.21-0.72c-0.28-0.17-0.59-0.34-0.9-0.47c-0.5-0.26-1.03-0.49-1.59-0.72c-0.56-0.23-1.16-0.43-1.77-0.63
		c-0.25-0.09-0.5-0.15-0.74-0.22c-0.33-0.11-0.69-0.19-1.04-0.28c-0.3-0.06-0.63-0.14-0.93-0.2c-0.33-0.06-0.66-0.14-0.98-0.17
		c-0.19-0.04-0.41-0.08-0.63-0.09c-0.08-0.02-0.19-0.04-0.3-0.03c-0.03-0.02-0.06-0.02-0.08-0.02c-0.08-0.02-0.16-0.02-0.25-0.04
		l-0.99-2.14L150.14,83.49z M156.89,94.7l-1.83,0.08l-2.87-6.21c0.06,0.02,0.11,0.02,0.16,0.04c0.16,0.02,0.3,0.03,0.44,0.08
		c0.19,0.04,0.36,0.08,0.55,0.12c0.06,0.02,0.11,0.02,0.16,0.04c0.55,0.12,1.07,0.27,1.57,0.43c0.25,0.09,0.47,0.16,0.69,0.25
		c0.08,0.02,0.14,0.04,0.19,0.07c0.47,0.18,0.91,0.37,1.33,0.58c0.06,0.02,0.11,0.05,0.17,0.07c0.22,0.09,0.47,0.21,0.7,0.33
		c0.7,0.33,1.34,0.71,1.97,1.15c0.28,0.2,0.59,0.39,0.88,0.61c0.29,0.22,0.57,0.42,0.83,0.64c0.57,0.44,1.09,0.92,1.58,1.4
		l-3.6,0.18l-0.4,0.03L156.89,94.7z M203.19,92.47l-30.47,1.44c-0.19-0.36-0.4-0.75-0.65-1.14l24.65-8.25
		c0.71-0.24,1.09-0.99,0.85-1.7c-0.24-0.71-0.99-1.09-1.7-0.85l-24.65,8.25c-0.26,0.1-0.49,0.25-0.64,0.45
		c-0.45-0.64-0.98-1.28-1.57-1.94l21.09-17.82c0.56-0.47,0.63-1.34,0.16-1.9c-0.5-0.56-1.34-0.63-1.9-0.16l-21.29,18
		c-0.83-0.75-1.78-1.49-2.79-2.14l13.81-23.88c0.38-0.65,0.16-1.47-0.48-1.85c-0.64-0.36-1.46-0.14-1.85,0.51l-13.81,23.88
		c-0.9-0.47-1.84-0.87-2.86-1.2l1.83-23.89c0.06-0.73-0.5-1.39-1.23-1.45c-0.73-0.06-1.39,0.5-1.45,1.23l-1.78,23.37
		c-0.63-0.17-1.26-0.29-1.94-0.35l0-0.03l-6.98-22.02c-0.24-0.68-0.99-1.09-1.71-0.88c-0.71,0.24-1.09,0.99-0.88,1.71l6.6,20.78
		l0.07,0.18c-0.97-0.07-1.97-0.02-3.01,0.05l-13.84-25.68c0.39-0.19,0.78-0.35,1.15-0.49c0.78-0.35,1.54-0.65,2.3-0.97
		c0.32-0.1,0.63-0.23,0.92-0.33c0.6-0.23,1.18-0.43,1.76-0.66c0.24-0.07,0.47-0.14,0.71-0.21c0.68-0.24,1.37-0.45,2.06-0.63
		c0.82-0.25,1.64-0.47,2.43-0.66c3.23-0.8,6.27-1.25,9.11-1.46c15.25-1.09,24.95,5.06,26.4,6.04c0.03,0.02,0.08,0.05,0.11,0.07
		c0.45,0.24,1.57,0.88,3.08,2.04c0.23,0.17,0.46,0.34,0.68,0.52c0.26,0.2,0.49,0.4,0.74,0.59l0.75,0.65c0.23,0.2,0.49,0.4,0.72,0.65
		c1.38,1.22,2.89,2.76,4.4,4.62c0.29,0.36,0.59,0.74,0.89,1.12c0.3,0.38,0.6,0.79,0.89,1.2c0.6,0.82,1.2,1.69,1.78,2.62
		c0.28,0.47,0.55,0.93,0.83,1.42c0.3,0.49,0.55,0.98,0.83,1.5C200.01,77.97,202.27,84.46,203.19,92.47z M151.28,102.85l9.25,0.15
		l0.03,0l0.22,0.44C158.62,104.24,154.23,105.39,151.28,102.85z M150.77,97.66l0.59-0.02l2.01-0.09l0.38-0.03l1.02-0.05l0.03,0
		l1.5-0.08l0.21-0.02l2.17-0.1l1.13-0.05l0.54-0.04l5.32-0.24l3.17-0.17l2.34-0.11l0.7-0.02l0.11-0.01l2.07-0.09l29.42-1.4l2.5-0.12
		c0.08-0.01,0.13-0.01,0.19,0.04c0.62,0.01,1.08,0.46,1.13,1.08l0.28,3.62c0.03,0.38-0.08,0.71-0.34,0.97
		c-0.25,0.26-0.59,0.42-0.94,0.39l-39.72-0.7l-4.42-0.09l-3.05-0.05l-0.03,0l-2.53-0.03l-1.91-0.03l-0.16,0.01l-0.14-0.02l-0.03,0
		l-3.48-0.08c-0.51-0.02-0.94-0.31-1.13-0.75c-0.06-0.1-0.1-0.24-0.11-0.37c-0.02-0.35,0.09-0.68,0.31-0.94
		C150.11,97.82,150.4,97.69,150.77,97.66z M127.88,56.47c0.1-0.49,0.42-0.89,0.83-1.14l1.81-1.02c0.23-0.12,0.47-0.2,0.74-0.21
		c0.13-0.01,0.3,0.01,0.43,0.02c-0.02,0.03-0.05,0.06-0.05,0.08c-0.14,0.33-0.08,0.71,0.07,1.05l15.05,27.94l1.98,4.3l2.07,4.49
		l-22.71-34.12C127.84,57.44,127.75,56.94,127.88,56.47z"/>
	<path style="fill:#D49166;" d="M128.11,57.85l22.71,34.12l-2.07-4.49l-1.98-4.3l-15.05-27.94c-0.16-0.34-0.21-0.71-0.07-1.05
		c0-0.03,0.02-0.06,0.05-0.08c-0.14-0.02-0.3-0.03-0.43-0.02c-0.27,0.02-0.51,0.09-0.74,0.21l-1.81,1.02
		c-0.41,0.24-0.74,0.64-0.83,1.14C127.75,56.94,127.84,57.44,128.11,57.85z"/>
	<path style="fill:#D57430;" d="M152.2,88.57l2.87,6.21l1.83-0.08l2.52-0.13l0.4-0.03l3.6-0.18c-0.49-0.48-1.01-0.95-1.58-1.4
		c-0.26-0.22-0.54-0.42-0.83-0.64c-0.29-0.22-0.6-0.42-0.88-0.61c-0.62-0.41-1.27-0.8-1.97-1.15c-0.22-0.12-0.47-0.24-0.7-0.33
		c-0.06-0.02-0.11-0.05-0.17-0.07c-0.42-0.21-0.86-0.4-1.33-0.58c-0.06-0.02-0.11-0.05-0.19-0.07c-0.22-0.09-0.44-0.16-0.69-0.25
		c-0.5-0.15-1.02-0.3-1.57-0.43c-0.06-0.02-0.11-0.02-0.16-0.04c-0.19-0.04-0.36-0.08-0.55-0.12c-0.14-0.04-0.27-0.06-0.44-0.08
		C152.31,88.59,152.25,88.59,152.2,88.57z"/>
	<path style="fill:#F8716F;" d="M134.77,55.22l13.84,25.68c1.05-0.07,2.04-0.12,3.01-0.05l-0.07-0.18l-6.6-20.78
		c-0.21-0.71,0.16-1.47,0.88-1.71c0.71-0.21,1.47,0.19,1.71,0.88l6.98,22.02l0,0.03c0.68,0.06,1.31,0.18,1.94,0.35l1.78-23.37
		c0.06-0.73,0.72-1.29,1.45-1.23c0.73,0.06,1.29,0.72,1.23,1.45l-1.83,23.89c1.02,0.33,1.96,0.72,2.86,1.2l13.81-23.88
		c0.38-0.65,1.2-0.87,1.85-0.51c0.65,0.38,0.87,1.2,0.48,1.85l-13.81,23.88c1.02,0.65,1.96,1.4,2.79,2.14l21.29-18
		c0.56-0.47,1.4-0.4,1.9,0.16c0.47,0.56,0.4,1.43-0.16,1.9l-21.09,17.82c0.59,0.66,1.12,1.29,1.57,1.94
		c0.15-0.2,0.38-0.35,0.64-0.45l24.65-8.25c0.71-0.24,1.46,0.14,1.7,0.85c0.24,0.71-0.14,1.46-0.85,1.7l-24.65,8.25
		c0.24,0.39,0.46,0.78,0.65,1.14l30.47-1.44c-0.92-8.01-3.19-14.51-5.9-19.62c-0.28-0.52-0.53-1.01-0.83-1.5
		c-0.28-0.49-0.55-0.96-0.83-1.42c-0.58-0.93-1.18-1.8-1.78-2.62c-0.3-0.41-0.6-0.82-0.89-1.2c-0.3-0.38-0.59-0.77-0.89-1.12
		c-1.51-1.86-3.02-3.39-4.4-4.62c-0.23-0.25-0.49-0.45-0.72-0.65l-0.75-0.65c-0.26-0.2-0.49-0.4-0.74-0.59
		c-0.23-0.17-0.46-0.34-0.68-0.52c-1.51-1.16-2.63-1.81-3.08-2.04c-0.03-0.02-0.08-0.05-0.11-0.07c-1.44-0.97-11.15-7.12-26.4-6.04
		c-2.84,0.2-5.88,0.66-9.11,1.46c-0.79,0.19-1.61,0.41-2.43,0.66c-0.69,0.18-1.37,0.39-2.06,0.63c-0.24,0.07-0.47,0.14-0.71,0.21
		c-0.58,0.23-1.15,0.43-1.76,0.66c-0.29,0.1-0.6,0.23-0.92,0.33c-0.76,0.32-1.52,0.62-2.3,0.97
		C135.55,54.87,135.16,55.04,134.77,55.22z"/>
</g>
<g>
	<path d="M154.53,94.71c1.09,0,2.43,0.45,4.11,1.55c0.56,0.36,1.14,0.81,1.7,1.32c1.21,1.09,2.29,2.42,2.65,3.58
		c1.64,5.37-1.82,9.74-4.41,13.26c-1.35,1.83-2.86,3.54-4.55,5.11c-0.36,0.34-3.93,3.65-4.59,3.65c-0.03,0-0.05-0.01-0.07-0.02
		c-0.02-0.01-0.05-0.03-0.07-0.05c-5.44,3.68-12.27,5.94-20.74,6.01c-0.57,0.01-1.25,0.03-1.96,0.03c-1.65,0-3.51-0.16-4.8-1.12
		c-6.92-5.17,10.37-9.06,12.74-10.16c1.99-0.92,3.82-2.02,5.49-3.26c0.1-0.07,0.19-0.16,0.29-0.23c0.66-0.5,1.3-1.03,1.91-1.58
		c0.25-0.22,0.48-0.45,0.72-0.67c0.33-0.31,0.65-0.64,0.96-0.96c3.02-3.21,5.09-6.97,6.27-11.51
		C150.84,97.21,151.96,94.71,154.53,94.71 M154.53,91.47C154.53,91.47,154.53,91.47,154.53,91.47c-2.52,0-5.87,1.28-7.46,7.38
		c-1.04,3.98-2.84,7.29-5.5,10.11c-0.25,0.26-0.53,0.55-0.83,0.83c-0.22,0.21-0.43,0.42-0.65,0.61c-0.55,0.49-1.13,0.97-1.71,1.41
		l-0.23,0.19c-1.56,1.16-3.22,2.14-4.95,2.95c-0.26,0.12-1.27,0.44-2.09,0.7c-6.98,2.22-13.32,4.58-14.08,9.09
		c-0.21,1.25-0.12,3.67,2.85,5.89c2.09,1.56,4.7,1.76,6.73,1.76c0.44,0,0.87-0.01,1.28-0.02l0.71-0.01
		c8.25-0.07,15.55-2.1,21.71-6.03c1-0.24,2.4-1.15,5.93-4.43c1.78-1.66,3.45-3.53,4.95-5.56l0.29-0.4c2.65-3.59,6.65-9,4.6-15.72
		c-0.63-2.07-2.29-3.89-3.58-5.04c-0.67-0.6-1.39-1.16-2.09-1.62C158.27,92.15,156.35,91.47,154.53,91.47L154.53,91.47z"/>
	<g>
		<path style="fill:#FFFFFF;" d="M149.31,123.14c-5.44,3.69-12.25,5.9-20.74,5.98c-1.89,0.03-4.93,0.3-6.76-1.08
			c-6.92-5.17,10.37-9.08,12.74-10.18c1.97-0.92,3.77-1.99,5.41-3.2C142.99,118.35,146.54,121.23,149.31,123.14z"/>
	</g>
	<path style="fill:#0088C5;" d="M158.58,114.42c-1.35,1.83-2.85,3.53-4.55,5.12c-0.38,0.35-4.23,3.9-4.66,3.64
		c-0.03,0-0.03-0.03-0.05-0.03c-2.77-1.91-6.33-4.79-9.34-8.48c0.03-0.03,0.08-0.05,0.11-0.08c0.59-0.43,1.13-0.86,1.67-1.35
		c0.08-0.05,0.16-0.11,0.22-0.19c0.57-0.46,1.08-0.97,1.59-1.48c3.26-3.29,5.41-7.16,6.65-11.9c0.92-3.47,2.8-7.08,8.43-3.42
		c0.57,0.38,1.16,0.83,1.7,1.32c1.21,1.1,2.32,2.42,2.67,3.58C164.61,106.53,161.16,110.89,158.58,114.42z"/>
</g>
<g>
	<path style="fill:#FFFFFF;" d="M74.67,47.87c-0.57,0.43-1.1,0.59-1.64,0.59c-2.77,0-5.22-4.77-6.84-6.36
		c-1.21-1.18-2.56-1.67-3.96-1.67c-2.32,0-4.74,1.29-6.79,2.88c0,0.03-2.15,1.86-2.96,2.67v0.03c-1.37,1.43-3.23,2.15-5.06,2.15
		c-1.72,0-3.47-0.62-4.82-1.94c-1.75-1.67-2.45-4.04-2.1-6.25c0.22-1.35,0.83-2.61,1.83-3.69c0.22-0.24,0.83-0.86,1.78-1.72
		c2.91-2.72,6.3-5.01,10.15-6.17c1.8-0.54,3.53-0.81,5.17-0.81c1.48,0,2.94,0.22,4.36,0.62c1.43,0.43,2.85,1.05,4.34,1.86
		c1.21,0.67,2.34,1.54,3.42,2.42C74.96,35.32,79.35,44.29,74.67,47.87z"/>
	<path d="M73.62,29.99c-1.45-1.18-2.69-2.07-3.93-2.75c-1.72-0.94-3.37-1.64-5.01-2.13c-1.75-0.51-3.47-0.75-5.25-0.75
		c-1.99,0-3.99,0.3-6.11,0.94c-3.96,1.21-7.81,3.53-11.42,6.92c-0.92,0.81-1.59,1.51-1.91,1.83c-1.16,1.24-1.99,2.72-2.42,4.31
		c-0.11,0.35-0.19,0.73-0.24,1.1c-0.54,3.34,0.59,6.73,3.04,9.1c1.91,1.83,4.42,2.83,7.06,2.83c2.77,0,5.47-1.16,7.41-3.18
		c0.27-0.27,0.78-0.73,1.32-1.21c0.83-0.67,1.72-1.4,1.83-1.54c1.62-1.16,3.12-1.8,4.25-1.8c0.65,0,1.18,0.24,1.7,0.75
		c0.27,0.27,0.78,0.94,1.24,1.56c1.8,2.4,4.25,5.71,7.86,5.71c1.27,0,2.5-0.43,3.58-1.24c2.13-1.62,3.26-4.01,3.34-6.92
		C80.05,38.53,76.74,32.6,73.62,29.99z M74.67,47.87c-0.57,0.43-1.1,0.59-1.64,0.59c-2.77,0-5.22-4.77-6.84-6.36
		c-1.21-1.18-2.56-1.67-3.96-1.67c-2.32,0-4.74,1.29-6.79,2.88c0,0.03-2.15,1.86-2.96,2.67v0.03c-1.37,1.43-3.23,2.15-5.06,2.15
		c-1.72,0-3.47-0.62-4.82-1.94c-1.75-1.67-2.45-4.04-2.1-6.25c0.22-1.35,0.83-2.61,1.83-3.69c0.22-0.24,0.83-0.86,1.78-1.72
		c1.18-1.1,2.45-2.15,3.8-3.07c1.97-1.32,4.07-2.42,6.36-3.1c1.8-0.54,3.53-0.81,5.17-0.81c1.48,0,2.94,0.22,4.36,0.62
		c1.43,0.43,2.85,1.05,4.34,1.86c1.21,0.67,2.34,1.54,3.42,2.42C74.96,35.32,79.35,44.29,74.67,47.87z"/>
	<path style="fill:#673101;" d="M55.44,43.32c0,0.03-2.15,1.86-2.96,2.67v0.03c-1.37,1.43-3.23,2.15-5.06,2.15
		c-1.72,0-3.47-0.62-4.82-1.94c-1.75-1.67-2.45-4.04-2.1-6.25c0.22-1.35,0.83-2.61,1.83-3.69c0.22-0.24,0.83-0.86,1.78-1.72
		c1.18-1.1,2.45-2.15,3.8-3.07c0.13,0,0.24,0.03,0.35,0.05c0.03,0,0.03,0,0.05,0c0.03,0,0.03,0.03,0.05,0.03
		c1.08,0.3,1.56,1.13,1.56,1.13v0.03c0.43,0.65,0.59,1.45,0.4,2.26c-0.19,0.67-0.59,1.18-1.13,1.56c0.59-0.3,1.29-0.43,1.99-0.24
		c1.48,0.4,2.4,1.94,1.99,3.45c-0.19,0.73-0.65,1.32-1.27,1.7c0.48-0.16,1.05-0.24,1.59-0.11C54.5,41.62,55.17,42.4,55.44,43.32z"/>
</g>
<g>
	<path style="fill:#FFFFFF;" d="M126.46,46.23c-1.35,1.32-3.1,1.94-4.82,1.94c-1.86,0-3.69-0.73-5.06-2.15c0,0,0-0.03-0.03-0.03
		c-0.78-0.81-2.94-2.64-2.94-2.67c-2.07-1.59-4.47-2.88-6.79-2.88c-1.4,0-2.75,0.48-3.96,1.67c-1.62,1.59-4.07,6.36-6.84,6.36
		c-0.54,0-1.08-0.16-1.64-0.59c-4.71-3.58-0.3-12.55,3.12-15.38c1.08-0.89,2.21-1.75,3.42-2.42c1.48-0.81,2.91-1.43,4.34-1.86
		c1.43-0.4,2.88-0.62,4.36-0.62c1.64,0,3.37,0.27,5.17,0.81c3.85,1.16,7.24,3.45,10.15,6.17c0.94,0.86,1.56,1.48,1.78,1.72
		c1,1.08,1.59,2.34,1.83,3.69C128.91,42.19,128.21,44.56,126.46,46.23z"/>
	<path d="M131.74,39.44c-0.32-1.99-1.24-3.85-2.64-5.36c-0.35-0.35-1.02-1.05-1.97-1.91c-0.35-0.32-0.7-0.65-1.05-0.94
		c-3.29-2.83-6.76-4.82-10.34-5.92c-2.13-0.65-4.12-0.94-6.11-0.94c-1.78,0-3.5,0.24-5.28,0.75c-1.62,0.48-3.26,1.18-4.98,2.13
		c-1.24,0.67-2.48,1.56-3.93,2.75c-3.12,2.61-6.44,8.54-6.33,13.55c0.05,2.91,1.21,5.31,3.34,6.92c1.08,0.81,2.32,1.24,3.58,1.24
		c3.61,0,6.06-3.31,7.86-5.71c0.46-0.62,0.94-1.29,1.24-1.56c0.51-0.51,1.05-0.75,1.7-0.75c1.13,0,2.64,0.65,4.25,1.8
		c0.16,0.22,2.37,1.97,3.1,2.69c0.03,0.03,0.03,0.03,0.05,0.05c1.91,2.02,4.63,3.18,7.41,3.18c2.64,0,5.14-1,7.06-2.83
		C131.15,46.2,132.28,42.81,131.74,39.44z M126.46,46.23c-1.35,1.32-3.1,1.94-4.82,1.94c-1.86,0-3.69-0.73-5.06-2.15
		c0,0,0-0.03-0.03-0.03c-0.78-0.81-2.94-2.64-2.94-2.67c-2.07-1.59-4.47-2.88-6.79-2.88c-1.4,0-2.75,0.48-3.96,1.67
		c-1.62,1.59-4.07,6.36-6.84,6.36c-0.54,0-1.08-0.16-1.64-0.59c-4.71-3.58-0.3-12.55,3.12-15.38c1.08-0.89,2.21-1.75,3.42-2.42
		c1.48-0.81,2.91-1.43,4.34-1.86c1.43-0.4,2.88-0.62,4.36-0.62c1.64,0,3.37,0.27,5.17,0.81c2.29,0.67,4.39,1.78,6.36,3.12h0.03
		c1.35,0.92,2.59,1.94,3.77,3.04c0.94,0.86,1.56,1.48,1.78,1.72c1,1.08,1.59,2.34,1.83,3.69C128.91,42.19,128.21,44.56,126.46,46.23
		z"/>
	<path style="fill:#673101;" d="M126.46,46.23c-1.35,1.32-3.1,1.94-4.82,1.94c-1.86,0-3.69-0.73-5.06-2.15c0,0,0-0.03-0.03-0.03
		c-0.78-0.81-2.94-2.64-2.94-2.67c0.27-0.92,0.94-1.7,1.94-1.97c0.54-0.13,1.08-0.05,1.59,0.11c-0.62-0.38-1.08-0.97-1.27-1.7
		c-0.4-1.51,0.51-3.04,1.99-3.45c0.7-0.19,1.37-0.05,1.99,0.24c-0.54-0.38-0.94-0.89-1.13-1.56c-0.24-0.97,0.05-1.97,0.7-2.64
		c0.78-0.78,1.59-0.83,1.72-0.83h0.03c1.35,0.92,2.59,1.94,3.77,3.04c0.94,0.86,1.56,1.48,1.78,1.72c1,1.08,1.59,2.34,1.83,3.69
		C128.91,42.19,128.21,44.56,126.46,46.23z"/>
</g>
<g>
	<path style="fill-rule:evenodd;clip-rule:evenodd;fill:#009FF9;" d="M130.12,146.3c0.43,8.05-1.56,19.87-6.92,26.8
		c-6.33,8.16-17.88,13.49-31.67,14.62c-1.64,0.13-3.45,0.22-5.17,0.22H82.7c-1.72,0-3.53-0.08-5.17-0.22
		c-13.79-1.13-25.34-6.46-31.67-14.62c-5.36-6.92-7.35-18.74-6.92-26.8c0.24-4.5,1.24-9.05,2.18-13.47c0.51-2.26,1-4.52,1.4-6.76
		c0.43-2.53,0.16-7.22,0.13-7.46c-0.32-3.53-1.37-6.79-2.34-9.53c-3.88-10.83-4.52-20.95-2.07-31.86
		c2.24-9.86,6.92-18.2,12.82-22.94c9.88-7.86,21.33-12.39,31.45-12.39h4.04c10.13,0,21.57,4.52,31.45,12.39
		c5.9,4.74,10.58,13.09,12.82,22.94c2.45,10.91,1.8,21.03-2.07,31.86c-0.97,2.75-2.02,6.01-2.34,9.59c-0.03,0.19-0.3,4.87,0.16,7.41
		c0.38,2.26,0.89,4.52,1.37,6.79C128.91,137.25,129.88,141.81,130.12,146.3z"/>
	<path d="M131.09,132.16c-0.48-2.21-0.97-4.44-1.35-6.65c-0.32-1.78-0.19-5.41-0.13-6.6c0.3-3.15,1.27-6.19,2.18-8.75
		c4.04-11.26,4.74-22.27,2.18-33.66c-2.4-10.56-7.49-19.58-13.98-24.75c-10.42-8.32-22.59-13.09-33.45-13.09h-4.04
		c-10.85,0-23.03,4.77-33.45,13.09c-6.49,5.17-11.58,14.19-13.98,24.75c-2.56,11.39-1.86,22.41,2.18,33.66
		c0.92,2.56,1.89,5.6,2.18,8.7c0.05,1.24,0.19,4.87-0.13,6.65c-0.38,2.21-0.86,4.42-1.35,6.62c-1,4.55-2.02,9.24-2.26,14
		c-0.46,8.91,1.7,21.33,7.59,28.92c6.89,8.89,19.28,14.68,33.96,15.89c1.75,0.13,3.64,0.22,5.44,0.22h3.66
		c1.83,0,3.69-0.08,5.44-0.22c14.68-1.21,27.06-7,33.96-15.89c5.9-7.59,8.05-20.01,7.59-28.92
		C133.11,141.37,132.09,136.69,131.09,132.16z M86.36,187.94H82.7c-1.72,0-3.53-0.08-5.17-0.22c-13.79-1.13-25.34-6.46-31.67-14.62
		c-5.36-6.92-7.35-18.74-6.92-26.8c0.24-4.5,1.24-9.05,2.18-13.47c0.51-2.26,1-4.52,1.4-6.76c0.43-2.53,0.16-7.22,0.13-7.46
		c-0.32-3.53-1.37-6.79-2.34-9.53c-3.88-10.83-4.52-20.95-2.07-31.86c2.24-9.86,6.92-18.2,12.82-22.94
		c9.88-7.86,21.33-12.39,31.45-12.39h4.04c10.13,0,21.57,4.52,31.45,12.39c5.9,4.74,10.58,13.09,12.82,22.94
		c2.45,10.91,1.8,21.03-2.07,31.86c-0.97,2.75-2.02,6.01-2.34,9.59c-0.03,0.19-0.3,4.87,0.16,7.41c0.38,2.26,0.89,4.52,1.37,6.79
		c0.97,4.39,1.94,8.94,2.18,13.44c0.43,8.05-1.56,19.87-6.92,26.8c-6.33,8.16-17.88,13.49-31.67,14.62
		C89.89,187.86,88.08,187.94,86.36,187.94z"/>
</g>
</svg>
