<?xml version="1.0" encoding="utf-8"?>
<!-- Generator: Adobe Illustrator 25.0.0, SVG Export Plug-In . SVG Version: 6.00 Build 0)  -->
<svg version="1.1" id="레이어_1" xmlns="http://www.w3.org/2000/svg" xmlns:xlink="http://www.w3.org/1999/xlink" x="0px"
	 y="0px" viewBox="0 0 250 280" style="enable-background:new 0 0 250 280;" xml:space="preserve">
<g>
	<g>
		<g>
			<g>
				<path style="fill:#D4E3FC;" d="M207.3,274.6c-18.3,0-33.1-14.9-33.1-33.1c0-18.3,14.9-33.1,33.1-33.1
					c18.3,0,33.1,14.9,33.1,33.1C240.5,259.7,225.6,274.6,207.3,274.6z M207.3,216.3c-13.9,0-25.2,11.3-25.2,25.2
					s11.3,25.2,25.2,25.2s25.2-11.3,25.2-25.2C232.5,227.6,221.2,216.3,207.3,216.3z"/>
			</g>
		</g>
		<g>
			<g>
				<path style="fill:#181F41;" d="M207.3,276.7c-19.4,0-35.2-15.8-35.2-35.2s15.8-35.2,35.2-35.2s35.2,15.8,35.2,35.2
					S226.8,276.7,207.3,276.7z M207.3,211.7c-16.4,0-29.7,13.3-29.7,29.7s13.3,29.7,29.7,29.7s29.7-13.3,29.7-29.7
					C237.1,225,223.7,211.7,207.3,211.7z"/>
			</g>
		</g>
		
			<line style="fill:none;stroke:#D4E3FC;stroke-width:0.6032;stroke-linecap:round;stroke-linejoin:round;stroke-miterlimit:10;" x1="207.3" y1="215.1" x2="207.3" y2="241.4"/>
		
			<line style="fill:none;stroke:#D4E3FC;stroke-width:0.6032;stroke-linecap:round;stroke-linejoin:round;stroke-miterlimit:10;" x1="194.1" y1="218.6" x2="207.3" y2="241.4"/>
		
			<line style="fill:none;stroke:#D4E3FC;stroke-width:0.6032;stroke-linecap:round;stroke-linejoin:round;stroke-miterlimit:10;" x1="184.5" y1="228.3" x2="207.3" y2="241.4"/>
		
			<line style="fill:none;stroke:#D4E3FC;stroke-width:0.6032;stroke-linecap:round;stroke-linejoin:round;stroke-miterlimit:10;" x1="181" y1="241.4" x2="207.3" y2="241.4"/>
		
			<line style="fill:none;stroke:#D4E3FC;stroke-width:0.6032;stroke-linecap:round;stroke-linejoin:round;stroke-miterlimit:10;" x1="184.5" y1="254.6" x2="207.3" y2="241.4"/>
		
			<line style="fill:none;stroke:#D4E3FC;stroke-width:0.6032;stroke-linecap:round;stroke-linejoin:round;stroke-miterlimit:10;" x1="194.1" y1="264.3" x2="207.3" y2="241.4"/>
		
			<line style="fill:none;stroke:#D4E3FC;stroke-width:0.6032;stroke-linecap:round;stroke-linejoin:round;stroke-miterlimit:10;" x1="207.3" y1="267.8" x2="207.3" y2="241.4"/>
		
			<line style="fill:none;stroke:#D4E3FC;stroke-width:0.6032;stroke-linecap:round;stroke-linejoin:round;stroke-miterlimit:10;" x1="220.5" y1="264.3" x2="207.3" y2="241.4"/>
		
			<line style="fill:none;stroke:#D4E3FC;stroke-width:0.6032;stroke-linecap:round;stroke-linejoin:round;stroke-miterlimit:10;" x1="230.2" y1="254.6" x2="207.3" y2="241.4"/>
		
			<line style="fill:none;stroke:#D4E3FC;stroke-width:0.6032;stroke-linecap:round;stroke-linejoin:round;stroke-miterlimit:10;" x1="233.7" y1="241.4" x2="207.3" y2="241.4"/>
		
			<line style="fill:none;stroke:#D4E3FC;stroke-width:0.6032;stroke-linecap:round;stroke-linejoin:round;stroke-miterlimit:10;" x1="230.2" y1="228.3" x2="207.3" y2="241.4"/>
		
			<line style="fill:none;stroke:#D4E3FC;stroke-width:0.6032;stroke-linecap:round;stroke-linejoin:round;stroke-miterlimit:10;" x1="220.5" y1="218.6" x2="207.3" y2="241.4"/>
		<g>
			<path style="fill:#5442E5;" d="M169.5,234.3c-0.2,0-0.4,0-0.5-0.1c-1.2-0.3-1.9-1.5-1.6-2.7c4.5-18.4,20.9-31.3,39.9-31.3
				c11.2,0,21.7,4.4,29.5,12.5c0.8,0.9,0.8,2.3,0,3.1c-0.9,0.8-2.3,0.8-3.1,0c-7-7.2-16.3-11.1-26.3-11.1
				c-16.9,0-31.6,11.5-35.7,27.9C171.4,233.6,170.5,234.3,169.5,234.3z"/>
		</g>
		<g>
			<circle style="fill:#48298F;" cx="207.3" cy="241.4" r="6.1"/>
			<path style="fill:#181F41;" d="M207.3,249c-4.2,0-7.5-3.4-7.5-7.5s3.4-7.5,7.5-7.5s7.5,3.4,7.5,7.5S211.5,249,207.3,249z
				 M207.3,236.8c-2.5,0-4.6,2.1-4.6,4.6s2.1,4.6,4.6,4.6s4.6-2.1,4.6-4.6S209.9,236.8,207.3,236.8z"/>
		</g>
	</g>
	<g>
		<g>
			<path style="fill:#181F41;" d="M108.1,240.1l-3.8-10.4l6.3-9.5l-20.4-16.3l-6.1,6.3l-2.7,2.8l-5.8,6.1l31.5,30.2
				C108.8,246.6,109.2,243.2,108.1,240.1z"/>
			<path style="fill:#FFFFFF;" d="M107.1,249.3l-31.5-30.2l-1.5,1.6l-1.5,1.6l31.6,30.4l1.5-1.6
				C106.2,250.5,106.7,249.9,107.1,249.3z"/>
			<circle style="fill:#FFFFFF;" cx="102.8" cy="219.7" r="1.2"/>
			<circle style="fill:#FFFFFF;" cx="99.7" cy="223.7" r="1.2"/>
			<circle style="fill:#FFFFFF;" cx="98" cy="229" r="1.2"/>
			
				<line style="fill:none;stroke:#FFFFFF;stroke-width:0.6032;stroke-linecap:round;stroke-linejoin:round;stroke-miterlimit:10;" x1="108.6" y1="225.2" x2="102.8" y2="219.7"/>
			
				<line style="fill:none;stroke:#FFFFFF;stroke-width:0.6032;stroke-linecap:round;stroke-linejoin:round;stroke-miterlimit:10;" x1="105.9" y1="228" x2="99.7" y2="223.7"/>
			
				<line style="fill:none;stroke:#FFFFFF;stroke-width:0.6032;stroke-linecap:round;stroke-linejoin:round;stroke-miterlimit:10;" x1="98" y1="229" x2="104.8" y2="231"/>
			<path style="fill:#FFFFFF;" d="M108.1,240.1l-1.9-5.2l-8.7,5.2l9.6,9.2C108.8,246.6,109.2,243.2,108.1,240.1z"/>
			
				<line style="fill:none;stroke:#181F41;stroke-width:0.6032;stroke-linecap:round;stroke-linejoin:round;stroke-miterlimit:10;" x1="74.1" y1="220.7" x2="105.7" y2="251"/>
		</g>
		<g>
			<g>
				<path style="fill:#AF276E;" d="M118.8,162.8l-34.1-25.7c-15.6-16.6-14-25.4-7-37.4c6.5-11.2,14.8-20.4,14.8-20.4l24.6,11.5
					l-9.6,24.4c0,0,41,31.3,42,41.7c1.2,12.4-38.6,62.3-39.8,64.7l-22.1-15L118.8,162.8z"/>
			</g>
			
				<line style="fill:none;stroke:#181F41;stroke-width:0.6032;stroke-linecap:round;stroke-linejoin:round;stroke-miterlimit:10;" x1="94.2" y1="197.1" x2="116.6" y2="212"/>
			
				<path style="fill:none;stroke:#181F41;stroke-width:0.6032;stroke-linecap:round;stroke-linejoin:round;stroke-miterlimit:10;" d="
				M118.7,162.8c0,0,2.6,0.2,7.9,0"/>
			
				<path style="fill:none;stroke:#181F41;stroke-width:0.6032;stroke-linecap:round;stroke-linejoin:round;stroke-miterlimit:10;" d="
				M102,110.6c0,0,2.8,1.6,5.5,4.5"/>
		</g>
	</g>
	<g>
		<g>
			<g>
				<path style="fill:#D4E3FC;" d="M9.5,241.4c0-18.3,14.9-33.1,33.1-33.1c18.3,0,33.1,14.9,33.1,33.1c0,18.3-14.9,33.1-33.1,33.1
					C24.4,274.6,9.5,259.7,9.5,241.4z M17.5,241.4c0,13.9,11.3,25.2,25.2,25.2s25.2-11.3,25.2-25.2s-11.3-25.2-25.2-25.2
					C28.8,216.3,17.5,227.6,17.5,241.4z"/>
			</g>
		</g>
		<g>
			<g>
				<path style="fill:#181F41;" d="M7.4,241.4c0-19.4,15.8-35.2,35.2-35.2s35.2,15.8,35.2,35.2S62,276.6,42.6,276.6
					S7.4,260.9,7.4,241.4z M12.9,241.4c0,16.4,13.3,29.7,29.7,29.7s29.7-13.3,29.7-29.7S59,211.7,42.6,211.7
					C26.3,211.7,12.9,225,12.9,241.4z"/>
			</g>
		</g>
		
			<line style="fill:none;stroke:#D4E3FC;stroke-width:0.6032;stroke-linecap:round;stroke-linejoin:round;stroke-miterlimit:10;" x1="42.7" y1="215.1" x2="42.7" y2="241.4"/>
		
			<line style="fill:none;stroke:#D4E3FC;stroke-width:0.6032;stroke-linecap:round;stroke-linejoin:round;stroke-miterlimit:10;" x1="55.9" y1="218.6" x2="42.7" y2="241.4"/>
		
			<line style="fill:none;stroke:#D4E3FC;stroke-width:0.6032;stroke-linecap:round;stroke-linejoin:round;stroke-miterlimit:10;" x1="65.5" y1="228.3" x2="42.7" y2="241.4"/>
		
			<line style="fill:none;stroke:#D4E3FC;stroke-width:0.6032;stroke-linecap:round;stroke-linejoin:round;stroke-miterlimit:10;" x1="69" y1="241.4" x2="42.7" y2="241.4"/>
		
			<line style="fill:none;stroke:#D4E3FC;stroke-width:0.6032;stroke-linecap:round;stroke-linejoin:round;stroke-miterlimit:10;" x1="65.5" y1="254.6" x2="42.7" y2="241.4"/>
		<g>
			<g>
				<path style="fill:#181F41;" d="M80.5,231.4c0.3-1,1.2-1.7,2.3-1.6l29.5,1.7c1.2,0.1,2.1,1.1,2.1,2.3c-0.1,1.2-1.1,2.1-2.3,2.1
					l-29.5-1.7c-1.2-0.1-2.1-1.1-2.1-2.3C80.4,231.7,80.5,231.6,80.5,231.4z"/>
			</g>
			<g>
				<path style="fill:#181F41;" d="M86.3,244l-14.4-13.2c-0.4-0.3-0.4-0.9-0.1-1.3l3.8-4.1c0.3-0.4,0.9-0.4,1.3-0.1l14.4,13.2
					c0.4,0.3,0.4,0.9,0.1,1.3l-3.8,4.1C87.3,244.3,86.7,244.3,86.3,244z"/>
			</g>
		</g>
		
			<line style="fill:none;stroke:#D4E3FC;stroke-width:0.6032;stroke-linecap:round;stroke-linejoin:round;stroke-miterlimit:10;" x1="55.9" y1="264.3" x2="42.7" y2="241.4"/>
		
			<line style="fill:none;stroke:#D4E3FC;stroke-width:0.6032;stroke-linecap:round;stroke-linejoin:round;stroke-miterlimit:10;" x1="42.7" y1="267.8" x2="42.7" y2="241.4"/>
		
			<line style="fill:none;stroke:#D4E3FC;stroke-width:0.6032;stroke-linecap:round;stroke-linejoin:round;stroke-miterlimit:10;" x1="29.5" y1="264.3" x2="42.7" y2="241.4"/>
		
			<line style="fill:none;stroke:#D4E3FC;stroke-width:0.6032;stroke-linecap:round;stroke-linejoin:round;stroke-miterlimit:10;" x1="19.8" y1="254.6" x2="42.7" y2="241.4"/>
		
			<line style="fill:none;stroke:#D4E3FC;stroke-width:0.6032;stroke-linecap:round;stroke-linejoin:round;stroke-miterlimit:10;" x1="16.3" y1="241.4" x2="42.7" y2="241.4"/>
		
			<line style="fill:none;stroke:#D4E3FC;stroke-width:0.6032;stroke-linecap:round;stroke-linejoin:round;stroke-miterlimit:10;" x1="19.8" y1="228.3" x2="42.7" y2="241.4"/>
		
			<line style="fill:none;stroke:#D4E3FC;stroke-width:0.6032;stroke-linecap:round;stroke-linejoin:round;stroke-miterlimit:10;" x1="29.5" y1="218.6" x2="42.7" y2="241.4"/>
		<g>
			<path style="fill:#5442E5;" d="M80.5,234.3c-1,0-1.9-0.7-2.1-1.7c-4-16.4-18.7-27.9-35.7-27.9c-10,0-19.4,4-26.3,11.1
				c-0.8,0.9-2.2,0.9-3.1,0c-0.9-0.8-0.9-2.2,0-3.1c7.8-8,18.3-12.5,29.5-12.5c19,0,35.4,12.9,39.9,31.3c0.3,1.2-0.4,2.4-1.6,2.7
				C80.8,234.3,80.6,234.3,80.5,234.3z"/>
		</g>
		<g>
			<path style="fill:#5442E5;" d="M101.7,206.2c-1.1,0-2.1-0.7-2.4-1.7c-0.5-1.3,0.3-2.8,1.6-3.3c1.1-0.4,28.1-9.5,41.6-11.9
				c13.6-2.4,47.5,0.8,48.9,0.9c1.4,0.1,2.4,1.4,2.3,2.8c-0.1,1.4-1.4,2.4-2.8,2.3c-0.3,0-34.5-3.3-47.5-1
				c-13.1,2.3-40.6,11.6-40.9,11.7C102.3,206.2,102,206.2,101.7,206.2z"/>
		</g>
		<g>
			<path style="fill:#5442E5;" d="M111.3,237.1c-1.1,0-2.1-0.7-2.4-1.8l-12.8-39c-0.4-1.3,0.3-2.8,1.6-3.2c1.4-0.4,2.8,0.3,3.2,1.6
				l12.8,39c0.4,1.3-0.3,2.8-1.6,3.2C111.9,237,111.6,237.1,111.3,237.1z"/>
		</g>
		<g>
			<path style="fill:#48298F;" d="M98.4,197.4c-0.9,0-1.8-0.6-2.1-1.5l-20.9-63.6c-0.4-1.2,0.2-2.4,1.4-2.8c1.2-0.4,2.4,0.2,2.8,1.4
				l20.9,63.6c0.4,1.2-0.2,2.4-1.4,2.8C98.9,197.4,98.7,197.4,98.4,197.4z"/>
		</g>
		<g>
			<path style="fill:#181F41;" d="M66.7,122.8c4.3,0,35-0.7,37,3.1c1.6,3.1-1.6,4.3-10.7,6.6c-8.5,2.2-19,3.8-25.2-1.3
				C60.2,125,65,122.8,66.7,122.8z"/>
		</g>
		<g>
			<path style="fill:#5442E5;" d="M42.7,244c-1,0-1.9-0.6-2.3-1.5c-0.5-1-0.3-2.1,0.5-2.9l40.4-40.9c0.6-0.6,1.5-0.9,2.4-0.7
				s1.6,0.8,1.9,1.6l12.6,33.6l11.7-1.2l23.5-39.9c0.7-1.2,2.3-1.6,3.5-0.9c1.2,0.7,1.6,2.3,0.9,3.5l-24.1,41
				c-0.4,0.7-1.1,1.2-2,1.3l-68.8,7C42.8,244,42.8,244,42.7,244z M82.1,205.2l-32.6,33l43.3-4.4L82.1,205.2z"/>
		</g>
		<g>
			<path style="fill:#5442E5;" d="M83.1,203.1c-1.1,0-2.1-0.7-2.4-1.8c-0.4-1.3,0.3-2.8,1.6-3.2l20.6-6.8c1.3-0.4,2.8,0.3,3.2,1.6
				c0.4,1.3-0.3,2.8-1.6,3.2L83.9,203C83.6,203.1,83.3,203.1,83.1,203.1z"/>
		</g>
		<g>
			<path style="fill:#48298F;" d="M76.6,142.6c-0.9,0-1.8-0.6-2.1-1.6c-0.4-1.2,0.3-2.4,1.5-2.7l7.2-2.2c1.2-0.3,2.4,0.3,2.7,1.5
				c0.4,1.2-0.3,2.4-1.5,2.7l-7.2,2.2C77.1,142.6,76.8,142.6,76.6,142.6z"/>
		</g>
		<g>
			<circle style="fill:#48298F;" cx="83.1" cy="200.5" r="5"/>
			<path style="fill:#5442E5;" d="M83.1,207c-3.6,0-6.5-2.9-6.5-6.5s2.9-6.5,6.5-6.5s6.5,2.9,6.5,6.5C89.5,204.1,86.6,207,83.1,207z
				 M83.1,197c-2,0-3.6,1.6-3.6,3.6s1.6,3.6,3.6,3.6s3.6-1.6,3.6-3.6C86.6,198.6,85,197,83.1,197z"/>
		</g>
		<g>
			<path style="fill:#181F41;" d="M78.6,142.9c-0.3,0-0.6-0.2-0.7-0.5c-0.1-0.4,0.1-0.8,0.5-0.9l4.2-1.3c0.4-0.1,0.8,0.1,0.9,0.5
				s-0.1,0.8-0.5,0.9l-4.2,1.3C78.8,142.9,78.7,142.9,78.6,142.9z"/>
		</g>
		<g>
			<path style="fill:#181F41;" d="M111.8,252.9l-69.2-4.5l0,0c-3.7,0-6.8-3.1-6.8-6.9c0-3.9,3.4-6.2,6.5-7l0,0
				c0.5-0.1,2.7-0.8,5.9-1.8c15-4.7,54.7-17.1,63.5-17.3c5-0.1,9.7,1.7,13.2,5.1c3.6,3.5,5.6,8.4,5.6,13.7
				C130.6,244.4,122.2,252.9,111.8,252.9z M112.2,216.7c-0.1,0-0.3,0-0.4,0c-8.6,0.2-48.2,12.6-63.1,17.3c-3.3,1-5.4,1.7-6,1.8l0,0
				c-2.6,0.7-5.5,2.6-5.5,5.6s2.4,5.4,5.4,5.4l69.2,4.5c9.5,0,17.3-7.8,17.3-17.3c0-4.9-1.8-9.4-5.2-12.7
				C120.9,218.3,116.7,216.7,112.2,216.7z"/>
		</g>
		<g>
			<path style="fill:#48298F;" d="M111.8,214.6c-10.5,0-19.1,8.5-19.1,19.1c0,10.5,8.5,19.1,19.1,19.1s19.1-8.5,19.1-19.1
				C130.9,223.1,122.3,214.6,111.8,214.6z M96.2,232l2.1-6.4c0.6-1.7,2.8-2.2,4-0.8l4.6,5.1c1.2,1.4,0.5,3.6-1.3,3.9l-6.7,1.3
				C97.1,235.4,95.6,233.7,96.2,232z M108.9,246.4c-0.2,1.8-2.3,2.7-3.7,1.6l-5.4-4c-1.5-1.1-1.2-3.4,0.4-4.1l6.3-2.8
				c1.7-0.7,3.5,0.6,3.3,2.5L108.9,246.4z M109.8,228l-3.3-5.9c-0.9-1.6,0.3-3.5,2.1-3.5h6.7c1.8,0,3,2,2,3.6l-3.5,5.9
				C113,229.6,110.7,229.6,109.8,228z M123.1,244.4l-5.4,4c-1.5,1.1-3.6,0.1-3.8-1.7l-0.7-6.9c-0.2-1.8,1.7-3.2,3.4-2.4l6.1,2.9
				C124.4,241.1,124.6,243.4,123.1,244.4z M124.6,235.7l-6.7-1.5c-1.8-0.4-2.5-2.6-1.2-3.9l4.6-4.9c1.2-1.3,3.4-0.8,4,0.9l2.1,6.4
				C127.9,234.4,126.4,236.1,124.6,235.7z"/>
		</g>
		<g>
			<circle style="fill:#48298F;" cx="42.7" cy="241.4" r="5.5"/>
			<path style="fill:#181F41;" d="M42.7,248.4c-3.8,0-6.9-3.1-6.9-6.9s3.1-6.9,6.9-6.9s6.9,3.1,6.9,6.9S46.5,248.4,42.7,248.4z
				 M42.7,237.5c-2.2,0-4,1.8-4,4s1.8,4,4,4s4-1.8,4-4S44.9,237.5,42.7,237.5z"/>
		</g>
	</g>
	<circle style="fill:#00E7AE;" cx="92.3" cy="80.3" r="5.2"/>
	<g>
		<g>
			<path style="fill:#181F41;" d="M143,235.7c-0.3,1-1.2,1.7-2.2,1.6l-29.5-1.5c-1.2-0.1-2.1-1.1-2.1-2.3c0.1-1.2,1.1-2.1,2.3-2.1
				L141,233c1.2,0.1,2.1,1.1,2.1,2.3C143.1,235.4,143.1,235.6,143,235.7z"/>
		</g>
		<g>
			<path style="fill:#181F41;" d="M152.8,239.7l-19.6-0.6c-0.5,0-0.9-0.4-0.9-0.9l0.2-5.5c0-0.5,0.4-0.9,0.9-0.9l19.6,0.6
				c0.5,0,0.9,0.4,0.9,0.9l-0.2,5.5C153.7,239.3,153.3,239.7,152.8,239.7z"/>
		</g>
	</g>
	<g>
		<path style="fill:#DA478F;" d="M158.8,142.6c-2.2-8.7-28.9-21.2-49.2-32.8l6.5-16.4L91.5,82c0,0-7.5,9.7-14.8,20.4
			c-5.7,8.4-8.3,24.2,8.4,32.3c8.5,4.1,44.9,20.6,44.9,20.6l-2.3,52.1l28-0.1C155.8,204.5,160.5,149.6,158.8,142.6z"/>
		<g>
			<path style="fill:#181F41;" d="M165.6,221l-9.9-4.9v-8.9l-28,0.1v8.8v3.9v8.4l43.6-0.1C170.6,225.2,168.6,222.4,165.6,221z"/>
			<path style="fill:#FFFFFF;" d="M171.3,228.3l-43.6,0.1v2.2v2.2l43.8-0.1v-2.2C171.5,229.8,171.5,229,171.3,228.3z"/>
			<circle style="fill:#FFFFFF;" cx="147.7" cy="210" r="1.2"/>
			<circle style="fill:#FFFFFF;" cx="148.2" cy="215" r="1.2"/>
			<circle style="fill:#FFFFFF;" cx="150.7" cy="220.1" r="1.2"/>
			
				<line style="fill:none;stroke:#FFFFFF;stroke-width:0.6032;stroke-linecap:round;stroke-linejoin:round;stroke-miterlimit:10;" x1="155.6" y1="210" x2="147.6" y2="210"/>
			
				<line style="fill:none;stroke:#FFFFFF;stroke-width:0.6032;stroke-linecap:round;stroke-linejoin:round;stroke-miterlimit:10;" x1="155.6" y1="213.8" x2="148.2" y2="215"/>
			
				<line style="fill:none;stroke:#FFFFFF;stroke-width:0.6032;stroke-linecap:round;stroke-linejoin:round;stroke-miterlimit:10;" x1="150.7" y1="220.1" x2="156.9" y2="216.7"/>
			<path style="fill:#FFFFFF;" d="M165.6,221l-4.9-2.4l-2.7,9.8h13.3C170.6,225.2,168.6,222.4,165.6,221z"/>
			
				<line style="fill:none;stroke:#181F41;stroke-width:0.6032;stroke-linecap:round;stroke-linejoin:round;stroke-miterlimit:10;" x1="127.7" y1="230.6" x2="171.5" y2="230.5"/>
		</g>
		
			<line style="fill:none;stroke:#181F41;stroke-width:0.6032;stroke-linecap:round;stroke-linejoin:round;stroke-miterlimit:10;" x1="128.1" y1="195.5" x2="156.6" y2="195.5"/>
		<g>
			
				<path style="fill:none;stroke:#181F41;stroke-width:0.6032;stroke-linecap:round;stroke-linejoin:round;stroke-miterlimit:10;" d="
				M136.3,132l-7.1,14.3c-0.6,1.1-1.9,1.6-3.1,1l-20.5-10.1l9.1-18.4l20.5,10.1C136.4,129.5,136.8,130.9,136.3,132z"/>
			
				<path style="fill:none;stroke:#181F41;stroke-width:0.6032;stroke-linecap:round;stroke-linejoin:round;stroke-miterlimit:10;" d="
				M120.6,124.2l-7.1,14.3c-0.6,1.1-1.9,1.6-3.1,1l-4.8-2.4l9.1-18.4l4.8,2.4C120.7,121.8,121.1,123.1,120.6,124.2z"/>
			
				<line style="fill:none;stroke:#181F41;stroke-width:0.6032;stroke-linecap:round;stroke-linejoin:round;stroke-miterlimit:10;" x1="117" y1="131.4" x2="132.7" y2="139.2"/>
		</g>
		
			<path style="fill:none;stroke:#181F41;stroke-width:0.6032;stroke-linecap:round;stroke-linejoin:round;stroke-miterlimit:10;" d="
			M102,109.7c0,0,3.7-0.4,7.6,0.2"/>
	</g>
	<g>
		<circle style="fill:#E1ECFF;" cx="111.8" cy="233.7" r="1"/>
	</g>
	<g>
		<path style="fill:#5442E5;" d="M207.3,244c-1.1,0-2.1-0.7-2.4-1.8l-30.7-92.4c-0.4-1.3,0.3-2.8,1.6-3.2s2.8,0.3,3.2,1.6l30.7,92.4
			c0.4,1.3-0.3,2.8-1.6,3.2C207.9,244,207.6,244,207.3,244z"/>
	</g>
	<g>
		<path style="fill:#5442E5;" d="M185.2,187.8c-0.9,0-1.8-0.6-2.1-1.6c-0.4-1.2,0.3-2.4,1.5-2.7l6.8-2.1c1.2-0.3,2.4,0.3,2.7,1.5
			c0.4,1.2-0.3,2.4-1.5,2.7l-6.8,2.1C185.6,187.8,185.4,187.8,185.2,187.8z"/>
	</g>
	<g>
		<path style="fill:#5442E5;" d="M176.5,155.2c-3.7,0-6.7-3-6.7-6.7s3-6.7,6.7-6.7s6.7,3,6.7,6.7S180.2,155.2,176.5,155.2z
			 M176.5,146.9c-0.9,0-1.6,0.7-1.6,1.6c0,0.9,0.7,1.6,1.6,1.6c0.9,0,1.6-0.7,1.6-1.6C178.1,147.6,177.3,146.9,176.5,146.9z"/>
	</g>
	<g>
		<path style="fill:#48298F;" d="M176.4,150.6c-0.9,0-1.8-0.6-2.1-1.5l-6.4-19.4H161c-1.2,0-2.2-1-2.2-2.2s1-2.2,2.2-2.2h8.5
			c0.9,0,1.8,0.6,2.1,1.5l6.9,20.9c0.4,1.2-0.2,2.4-1.4,2.8C176.9,150.6,176.7,150.6,176.4,150.6z"/>
	</g>
	<g>
		<path style="fill:#48298F;" d="M181.7,157.3l8.2,24.8c0,0,25-7.1,26.1-8.5c2.9-3.5-0.5-17.5-8.2-21
			C197.4,148.4,181.7,157.3,181.7,157.3z"/>
	</g>
	<path style="fill:none;stroke:#181F41;stroke-width:0.6032;stroke-linecap:round;stroke-linejoin:round;stroke-miterlimit:10;" d="
		M182.3,160.2c0,0,13.6-6.4,18.5-3.1c4.9,3.3,6.7,9.7,15.5,7"/>
	<g>
		
			<path style="fill:none;stroke:#181F41;stroke-width:0.6032;stroke-linecap:round;stroke-linejoin:round;stroke-miterlimit:10;" d="
			M201.9,173.6l-8.2,2.7c-1.1,0.4-2.2-0.2-2.6-1.3l-3.3-9.8l12.1-4l3.3,9.8C203.5,172,203,173.2,201.9,173.6z"/>
	</g>
	
		<line style="fill:none;stroke:#181F41;stroke-width:0.6032;stroke-linecap:round;stroke-linejoin:round;stroke-miterlimit:10;" x1="189.8" y1="167.3" x2="199.7" y2="164.1"/>
	<g>
		
			<ellipse transform="matrix(0.9352 -0.354 0.354 0.9352 -43.3984 85.5677)" style="fill:#78ACFF;" cx="212.2" cy="161.4" rx="0.9" ry="1.6"/>
		<polygon style="fill:#78ACFF;" points="212.8,162.9 213.1,162.8 212,159.8 211.7,159.9 		"/>
		
			<ellipse transform="matrix(0.9352 -0.354 0.354 0.9352 -43.3301 85.705)" style="fill:#FFFFFF;" cx="212.6" cy="161.3" rx="0.9" ry="1.6"/>
	</g>
	<path style="fill:#48298F;" d="M188.7,177.3l-5.1,1.7c-0.4,0.1-0.8-0.1-0.9-0.5l-4.6-14.2c-0.1-0.4,0.1-0.8,0.5-0.9l5.1-1.7
		L188.7,177.3z"/>
	
		<line style="fill:none;stroke:#181F41;stroke-width:0.6032;stroke-linecap:round;stroke-linejoin:round;stroke-miterlimit:10;" x1="183.4" y1="162.3" x2="188.2" y2="176.9"/>
	<g>
		<g>
			<polygon style="fill:#FF8891;" points="125.4,38.8 137.2,47.7 143.9,37.5 131.2,32.6 			"/>
			<g>
				<path style="fill:#FF6679;" d="M132.1,33L132.1,33c1.1,2.7,2,4.1,4,5.5c2.3,1.7,3.8,2.2,6,1.9L143,39L132.1,33z"/>
			</g>
			<g>
				<circle style="fill:#FF8891;" cx="140.9" cy="25.5" r="13.7"/>
			</g>
			<circle style="fill:#181F41;" cx="152.6" cy="26.5" r="0.7"/>
			
				<path style="fill:none;stroke:#181F41;stroke-width:0.6032;stroke-linecap:round;stroke-linejoin:round;stroke-miterlimit:10;" d="
				M148.4,32.3c0,0,0.7,1.5,2.5,2.4"/>
			
				<path style="fill:none;stroke:#181F41;stroke-width:0.6032;stroke-linecap:round;stroke-linejoin:round;stroke-miterlimit:10;" d="
				M150.9,24.5c0,0,2-1.3,3.5,0.2"/>
		</g>
		<g>
			<path style="fill:#181F41;" d="M126.6,40.5c-13.3,0.4-36.2,33.2-42.9,41.2c14.4,9,30.2,18.7,30.2,18.7
				c7.1-12.4,19.3-34.7,23.7-52.2"/>
		</g>
		<g>
			<path style="fill:#FFB83B;" d="M121.6,80.6c9.8-9.7,16.6-33.1,16.6-33.1l-11.8-8.6C109,40.8,84.8,75.1,84.8,75.1L58.4,85.5
				c3.6,6.1,11.3,16.6,24.6,23.2C93.2,103.6,113.6,88.8,121.6,80.6"/>
		</g>
		<polygon style="fill:#FFB83B;" points="132.6,61.8 141.4,46.5 126.8,35.6 122.1,39.7 		"/>
		<g>
			<g>
				<ellipse style="fill:#FF8891;" cx="156.8" cy="131.9" rx="3.1" ry="2.7"/>
				<path style="fill:#FF8891;" d="M148.2,123l5.2,6.2l4.4,0.9c0,0-1.1,0.1-0.1,3.2c1.5-0.1,6.8-0.1,8.9-1c0.7-0.3,1.2-0.7,1.2-1.4
					l1.8-11.4c0.2-1.1-0.6-2.2-1.7-2.5l-14.7-2.5L148.2,123z"/>
				
					<path style="fill:#181F41;stroke:#181F41;stroke-width:0.6032;stroke-linecap:round;stroke-linejoin:round;stroke-miterlimit:10;" d="
					M162.6,124.5c-0.3,0.5,0.3,4.4,0.9,4.7h-1.7c0,0-1.1-4.9-0.4-4.8S162.6,124.5,162.6,124.5z"/>
				
					<path style="fill:none;stroke:#181F41;stroke-width:0.6032;stroke-linecap:round;stroke-linejoin:round;stroke-miterlimit:10;" d="
					M164.1,129.3c-1.2-0.1-2.5,0-3.6,0.4"/>
				
					<path style="fill:none;stroke:#181F41;stroke-width:0.6032;stroke-linecap:round;stroke-linejoin:round;stroke-miterlimit:10;" d="
					M157.5,130c-0.6,1.4-0.4,2.6,0.3,3.2l1.7-0.1"/>
			</g>
			<g>
				<path style="fill:#5442E5;" d="M155.7,123.6h4.3c1.8,0,3.3,1.7,3.3,3.8c0,2.1-1.5,3.8-3.3,3.8h-0.1h-4.2V123.6z"/>
				<ellipse style="fill:#48298F;" cx="155.5" cy="127.4" rx="3.3" ry="3.8"/>
			</g>
			
				<path style="fill:#FF8891;stroke:#181F41;stroke-width:0.6032;stroke-linecap:round;stroke-linejoin:round;stroke-miterlimit:10;" d="
				M164.4,123.9c-1.9,1.4-10.2,1.2-13.4-3"/>
		</g>
		<g>
			<path style="fill:#48298F;" d="M89.9,75.4c-0.5,0-0.7,0-0.9,0c-0.8,0-1.5-0.7-1.5-1.5s0.7-1.5,1.5-1.5l0,0
				c0.3,0,35.1,0.3,43.4-9.4c1.3-1.6,1.8-3.3,1.5-5.3c-0.7-3.7-2.2-6-4.7-7.3c-6.4-3.1-16.9,2.3-17,2.3c-0.7,0.4-1.7,0.1-2-0.6
				c-0.4-0.7-0.1-1.7,0.6-2c0.5-0.3,11.9-6.2,19.8-2.4c3.4,1.7,5.1,3.6,5.9,8.2c0.5,2.9-1,5.2-2.6,7.7c-1.4,2.1-3.1,4.8-6.1,6.1
				C115.4,75,94.5,75.4,89.9,75.4z"/>
		</g>
		<path style="fill:#DB1D4F;" d="M132.1,18.7c-0.7,0.7-3.3,3.9-4,5.1c-4.1,1.9-6.8,4.1-9.1,7.9c3.7,1.1,6.4,0.6,6.4,0.6
			s-0.6,2.1-1.3,4c5.4-0.1,11.6-4.1,11.8-6.5c1.9-3.1,3-2.4,5-13.3"/>
		<g>
			<path style="fill:#DB1D4F;" d="M143.6,22.4c12,1.3,15.2-5.8,15.9-7.1c-14.7-1.2-14.3-10.7-23.3-6.4c-11.4-0.1-6.3,5.9-12.2,16.6"
				/>
		</g>
		<g>
			<path style="fill:#DB1D4F;" d="M147.1,20.2c-0.4,4.3-0.6,6.4-6,9c0.2-3.2-0.2-7.3-2.8-9.5"/>
		</g>
		<path style="fill:#DB1D4F;" d="M126.9,27.6c-3.1,0.9-6.9,1.3-9.8,0.2c2.9-0.9,6.8-4,8.9-5.9c1.4-1.3,7.1-7.2,9.7-0.2"/>
		<path style="fill:#FF8891;" d="M132.1,90.2l0.4-14l-17.9-7.8c-0.8,12.7,0.2,20.9,1.2,26.9s32.4,27.6,32.4,27.6l5.1-8.5
			C144.8,104.7,135.3,94,132.1,90.2z"/>
		<path style="fill:#FFB83B;" d="M133.2,80h-20.5c-0.5,0-1.8-0.2-1.8-0.7c0,0-0.3-6.2,0-10.6c0.2-4.4,1-9.3,1-9.3
			c0-5.3,4.3-9.7,9.7-9.7h3c5.3,0,9.7,4.3,9.7,9.7v19.7C134.1,79.6,133.7,80,133.2,80z"/>
		
			<path style="fill:none;stroke:#181F41;stroke-width:0.6032;stroke-linecap:round;stroke-linejoin:round;stroke-miterlimit:10;" d="
			M113.7,54.4c0,0-3.9,6.9-2.8,25.6h3.4"/>
		<path style="fill:#181F41;" d="M144.4,21.8c-1,5.9-0.9,11.8,1.3,17.1l-2.3,0.8c-2.7-5-2.2-11.9-1.8-17.9"/>
		<path style="fill:#181F41;" d="M127.8,31.1c5.2,3,9.6,5.4,15.3,5.2L143,34c-5.7-0.3-9.8-2-14.7-5.5"/>
		<path style="fill:#D4E3FC;" d="M120.4,13.7c1.3-4.6,5.1-10.2,18.3-10.4c12.6-0.1,15.8,6.2,16.8,10.1c0.1,0.3-0.1,0.7-0.4,0.9
			c-1.2,0.7-4.3,2.2-5.4,3c-2.8,2-3.4,5.1-6,5.4c-3.2,0.3-3.8-4.7-8.9-3c-1.7,0.5-3.2,1.9-3.7,4.9c-0.3,2.2,0.3,5.4-2.3,6.3
			c-2.8,1.1-6.4-1.4-7-3.6C121.2,24.8,118.8,19.3,120.4,13.7z"/>
		
			<ellipse transform="matrix(0.2397 -0.9708 0.9708 0.2397 78.8372 151.8771)" style="fill:#FF8891;" cx="136.4" cy="25.6" rx="5.1" ry="4.2"/>
		<g>
			<g>
				<defs>
					<path id="SVGID_1_" d="M120.4,13.7c1.3-4.6,5.1-10.2,18.3-10.4c12.6-0.1,15.8,6.2,16.8,10.1c0.1,0.3-0.1,0.7-0.4,0.9
						c-1.2,0.7-4.3,2.2-5.4,3c-2.8,2-3.4,5.1-6,5.4c-3.2,0.3-3.8-4.7-8.9-3c-1.7,0.5-3.2,1.9-3.7,4.9c-0.3,2.2,0.3,5.4-2.3,6.3
						c-2.8,1.1-6.4-1.4-7-3.6C121.2,24.8,118.8,19.3,120.4,13.7z"/>
				</defs>
				<clipPath id="SVGID_2_">
					<use xlink:href="#SVGID_1_"  style="overflow:visible;"/>
				</clipPath>
				<path style="clip-path:url(#SVGID_2_);fill:#B8D0FF;" d="M132.9,20.1c0,0-2,0.9-2.6,3.4s0,5.8-1.6,6.7s-3.2,0.6-3.2,0.6l2.5,1.8
					l8.4-7l2.3-5.7C138.9,19.9,135.8,18.4,132.9,20.1z"/>
			</g>
			<g>
				<defs>
					<path id="SVGID_3_" d="M120.4,13.7c1.3-4.6,5.1-10.2,18.3-10.4c12.6-0.1,15.8,6.2,16.8,10.1c0.1,0.3-0.1,0.7-0.4,0.9
						c-1.2,0.7-4.3,2.2-5.4,3c-2.8,2-3.4,5.1-6,5.4c-3.2,0.3-3.8-4.7-8.9-3c-1.7,0.5-3.2,1.9-3.7,4.9c-0.3,2.2,0.3,5.4-2.3,6.3
						c-2.8,1.1-6.4-1.4-7-3.6C121.2,24.8,118.8,19.3,120.4,13.7z"/>
				</defs>
				<clipPath id="SVGID_4_">
					<use xlink:href="#SVGID_3_"  style="overflow:visible;"/>
				</clipPath>
				<path style="clip-path:url(#SVGID_4_);fill:#B8D0FF;" d="M144.6,22.5c0,0,1.6-0.6,3.1-4s7.9-5.6,7.9-5.6l-0.1,5L144.6,22.5z"/>
			</g>
		</g>
		
			<path style="fill:#FFB83B;stroke:#181F41;stroke-width:0.6032;stroke-linecap:round;stroke-linejoin:round;stroke-miterlimit:10;" d="
			M122.1,40c0,0,9.3,6.8,12.8,12.3l5.6-5"/>
		<g>
			<g>
				<path style="fill:#48298F;" d="M85.9,77.3c6.4-1.9,10.1-5.8,15.2-11.1c2.9-3,10.5-12,14-18.3c3.4-6,0-11.7-7.9-9.7
					c-7.3,1.9-27.5,7.3-35.8,16.2C63.3,63.3,71.6,81.5,85.9,77.3z"/>
			</g>
			<path style="fill:#48298F;" d="M85.4,54.2L84,46.4l0,0c-1.6-0.9-3.6-0.9-5.1,0.1c0,0-1.9,1.1-3.2,2.2c0,2.9,1.8,7.5,1.8,7.5"/>
			
				<path style="fill:none;stroke:#181F41;stroke-width:0.6032;stroke-linecap:round;stroke-linejoin:round;stroke-miterlimit:10;" d="
				M75.9,50.7c0,0,0.4,4.4,3.6,8.8"/>
			
				<path style="fill:none;stroke:#181F41;stroke-width:0.6032;stroke-linecap:round;stroke-linejoin:round;stroke-miterlimit:10;" d="
				M80.7,46.4c0.2,2.5,2.2,6.5,4.2,9.7"/>
			
				<line style="fill:none;stroke:#181F41;stroke-width:0.6032;stroke-linecap:round;stroke-linejoin:round;stroke-miterlimit:10;" x1="84.9" y1="56.1" x2="79.5" y2="59.5"/>
			
				<path style="fill:none;stroke:#181F41;stroke-width:0.6032;stroke-linecap:round;stroke-linejoin:round;stroke-miterlimit:10;" d="
				M109.6,38.1c1.9,4.4-5.5,7.2-20.8,16.5c-3-3.2-3.9-5.5-4.8-8.3"/>
		</g>
		<g>
			
				<ellipse transform="matrix(0.9232 -0.3842 0.3842 0.9232 7.2397 58.648)" style="fill:#B8D0FF;" cx="150.4" cy="11.2" rx="1.2" ry="1.6"/>
			<path style="fill:#DB1D4F;" d="M150.7,12.7c0.3-0.4,0.3-1.1,0-1.7c-0.3-0.6-0.8-0.9-1.3-0.9c-0.3,0.4-0.3,1.1,0,1.7
				S150.2,12.7,150.7,12.7z"/>
		</g>
		
			<ellipse transform="matrix(0.8395 -0.5434 0.5434 0.8395 16.2286 69.7702)" style="fill:#B8D0FF;" cx="126.2" cy="7.4" rx="1.4" ry="0.4"/>
		<g>
			
				<ellipse transform="matrix(0.2445 -0.9697 0.9697 0.2445 81.3303 129.0288)" style="fill:#B8D0FF;" cx="123.5" cy="12.3" rx="2" ry="1"/>
			<g>
				<g>
					<defs>
						
							<ellipse id="SVGID_5_" transform="matrix(0.4741 -0.8805 0.8805 0.4741 52.4542 115.1749)" cx="122.6" cy="13.7" rx="1" ry="2"/>
					</defs>
					<clipPath id="SVGID_6_">
						<use xlink:href="#SVGID_5_"  style="overflow:visible;"/>
					</clipPath>
					
						<ellipse transform="matrix(0.2445 -0.9697 0.9697 0.2445 80.4719 130.3641)" style="clip-path:url(#SVGID_6_);fill:#DB1D4F;" cx="123.9" cy="13.5" rx="2" ry="1"/>
				</g>
			</g>
		</g>
		<g>
			
				<ellipse transform="matrix(0.8596 -0.511 0.511 0.8596 12.7849 67.1681)" style="fill:#B8D0FF;" cx="128.6" cy="10.3" rx="1.6" ry="2"/>
			<g>
				<g>
					<defs>
						
							<ellipse id="SVGID_7_" transform="matrix(0.4778 -0.8785 0.8785 0.4778 57.5377 118.3219)" cx="128.3" cy="10.8" rx="1.6" ry="2"/>
					</defs>
					<clipPath id="SVGID_8_">
						<use xlink:href="#SVGID_7_"  style="overflow:visible;"/>
					</clipPath>
					
						<ellipse transform="matrix(0.8596 -0.511 0.511 0.8596 12.4511 67.5808)" style="clip-path:url(#SVGID_8_);fill:#DB1D4F;" cx="129.2" cy="11.1" rx="1.6" ry="2"/>
				</g>
			</g>
		</g>
		<g>
			
				<ellipse transform="matrix(0.9914 -0.1312 0.1312 0.9914 0.3536 17.3834)" style="fill:#B8D0FF;" cx="132.1" cy="6" rx="2" ry="1"/>
			<g>
				<g>
					<defs>
						<ellipse id="SVGID_9_" transform="matrix(0.9656 -0.2601 0.2601 0.9656 2.9597 34.5554)" cx="132" cy="6.1" rx="2" ry="1"/>
					</defs>
					<clipPath id="SVGID_10_">
						<use xlink:href="#SVGID_9_"  style="overflow:visible;"/>
					</clipPath>
					
						<ellipse transform="matrix(0.9914 -0.1312 0.1312 0.9914 0.2806 17.4671)" style="clip-path:url(#SVGID_10_);fill:#DB1D4F;" cx="132.7" cy="6.6" rx="2" ry="1"/>
				</g>
			</g>
		</g>
		<path style="fill:#48298F;" d="M112.5,39.1c0,0,2.9-3.5,3.6-3.6c1-0.1,3.5,2.2,3.4,2.8c-0.3,1.6-3.5,3.5-3.5,3.5L112.5,39.1z"/>
		
			<path style="fill:none;stroke:#181F41;stroke-width:0.6032;stroke-linecap:round;stroke-linejoin:round;stroke-miterlimit:10;" d="
			M116.1,36.5c0,0,0.9,0.6,0.2,1.3c-0.7,0.7-2.8,2.4-2.8,2.4"/>
		
			<path style="fill:none;stroke:#181F41;stroke-width:0.6032;stroke-linecap:round;stroke-linejoin:round;stroke-miterlimit:10;" d="
			M135.2,23.9c0,0,1.1-1.2,2.3-0.9s1.1,1.8,1.1,1.8"/>
	</g>
</g>
</svg>
