<?xml version="1.0" encoding="utf-8"?>
<!-- Generator: Adobe Illustrator 26.0.3, SVG Export Plug-In . SVG Version: 6.00 Build 0)  -->
<svg version="1.1" id="레이어_1" xmlns="http://www.w3.org/2000/svg" xmlns:xlink="http://www.w3.org/1999/xlink" x="0px"
	 y="0px" viewBox="0 0 390 390" style="enable-background:new 0 0 390 390;" xml:space="preserve">
<style type="text/css">
	.st0{fill:#86D145;}
	.st1{fill:#182B57;}
	.st2{fill:#850404;}
	.st3{fill:#5CAB18;}
	.st4{fill:#3D3D3D;}
	.st5{fill:#FFCE2E;}
	.st6{fill:#B87400;}
	.st7{fill:#C4B78E;}
	.st8{fill:#8A8A8A;}
	.st9{fill:#FFFFFF;}
	.st10{fill:#A37340;}
	.st11{fill:#D4AF53;}
	.st12{fill:#D4C190;}
	.st13{fill:#8A6A36;}
	.st14{fill:#DEDEDE;}
</style>
<g>
	<path class="st0" d="M318.8,173.8c2.1,4.4,3.2,9,4.4,13.7c1,3.9,1.8,8.4-0.2,11.9c-1.9,3.5-6.5,5.3-10.5,5s-7.9-2.3-11.3-4.7
		c-4.5-3.1-8.7-6.6-12.4-10.6c-2.6-2.9-5-6.1-6.3-9.8c-2.6-7.9,0.8-17.3,7.9-21.6c5.3-3.2,12.4-3.2,17.9-0.3
		C314.5,160.4,315.9,167.9,318.8,173.8z"/>
	<path d="M313.5,205.4c-0.3,0-0.6,0-1.1,0c-4.7-0.3-8.7-2.7-11.8-4.8c-4.7-3.1-8.9-6.8-12.6-10.8c-3.4-3.7-5.5-6.9-6.6-10.3
		c-2.9-8.4,1-18.4,8.4-22.9c5.6-3.4,13.1-3.4,19-0.3c5,2.6,7.1,7.7,9,12.6c0.6,1.5,1.3,3.1,1.9,4.5l0,0c2.1,4.5,3.2,9.2,4.4,13.9
		c1,4.4,1.8,8.9-0.2,12.7C321.9,203.8,317.4,205.4,313.5,205.4z M299.6,156.4c-3.1,0-6,0.8-8.5,2.3c-6.6,4-10,12.7-7.4,20.2
		c1,3.1,2.9,6,6.1,9.5c3.5,4,7.7,7.4,12.1,10.5c2.9,1.9,6.6,4,10.6,4.4c3.4,0.3,7.6-1,9.4-4.4c1.6-3.1,1-6.9,0-11.1
		c-1.1-4.5-2.1-9.2-4.2-13.4c-0.8-1.5-1.3-3.1-1.9-4.5c-1.9-4.7-3.7-9.2-7.9-11.3C305.3,157,302.4,156.4,299.6,156.4z"/>
</g>
<g>
	<path class="st1" d="M293.5,134.1c10.2,5.8,17.6,16.1,20.8,27.6c-5.8,2.6-11.9,4.7-17.4,7.7c-5.8,3.2-10,7.6-13.1,13.2
		c-5.2-1.8-9.4-15.5-11.5-20.3c-3.4-7.9-6.3-16-7.7-24.5c-0.8-4.5-1.9-6.6,2.4-8.1c2.7-1,6.6-0.5,9.4-0.2
		C282,130.1,288.5,131.2,293.5,134.1z"/>
	<path d="M284.3,184l-1-0.3c-4.7-1.6-8.1-10.6-10.6-17.3c-0.5-1.5-1-2.7-1.5-3.7c-4-9.2-6.6-17.1-7.9-24.7c-0.2-0.6-0.2-1.3-0.3-1.8
		c-0.6-3.4-1.1-6,3.5-7.6c2.6-1,6.1-0.6,8.9-0.3l1,0.2c7.4,0.6,13.2,2.1,17.6,4.7l0,0c10,5.8,17.7,16,21.3,28.2l0.3,1l-1,0.5
		c-2.1,1-4.4,1.9-6.6,2.7c-3.5,1.5-7.4,2.9-10.8,4.8c-5.5,3.1-9.7,7.3-12.6,12.7L284.3,184z M271.1,130.4c-1.3,0-2.7,0.2-3.7,0.5
		c-2.7,1-2.6,1.6-1.9,4.8c0.2,0.6,0.2,1.1,0.3,1.9c1.3,7.4,3.7,15.2,7.7,24.2c0.5,1,1,2.3,1.5,3.7c1.9,5,5,13.2,8.4,15.3
		c3.1-5.5,7.3-9.7,12.9-12.7c3.5-1.9,7.4-3.5,11-5c1.8-0.8,3.7-1.5,5.6-2.3c-3.4-11.1-10.6-20.6-19.8-25.8c-4-2.3-9.5-3.7-16.6-4.4
		l-1-0.2C274,130.6,272.5,130.4,271.1,130.4z"/>
</g>
<g id="XMLID_176_">
	<g>
		<g>
			<path class="st1" d="M256.4,138.5c2.7,0.5,5.5,1,8.2,1.3l0,0c2.4-6,10.2-13.2,10.6-13.5c-2.4-0.2-4.8-0.3-7.3-0.2
				c-3.2,0.2-5.5,0.2-7.3,2.6C258.8,131.4,257.8,135.6,256.4,138.5z"/>
		</g>
		<g>
			<path class="st2" d="M264.5,140c3.2,0.5,6.6,1.1,9.8,1.6c0.2,0,0.3,0,0.5,0c0.3,0,0.5-0.3,0.6-0.6c2.7-4.5,6-8.7,9.7-12.6
				c-0.3,0.3-7.3-1.8-8.2-1.9c-0.6-0.2-1.3-0.2-1.8-0.2l0,0L264.5,140L264.5,140z"/>
		</g>
		<g>
			<path d="M264.5,139.8l10.6-13.5C274.6,126.7,267,133.8,264.5,139.8z"/>
		</g>
	</g>
	<g>
		<g>
			<path d="M274.6,142.7c-0.2,0-0.3,0-0.5,0l-10.2-1.6c-2.6-0.5-5.3-0.8-7.9-1.3c-0.3,0-0.6-0.3-0.8-0.6c-0.2-0.3-0.2-0.6,0-1.1
				c0.5-1.1,1-2.4,1.5-3.7c0.8-2.1,1.6-4.4,2.9-6.1c1.9-2.7,4.4-2.9,7.3-3.1h0.8c2.4-0.2,4.8-0.2,7.3,0.2h0.2c0.6,0,1.3,0.2,1.9,0.2
				c0.5,0,1.5,0.3,3.2,0.8c1.5,0.3,4,1.1,4.7,1.1c0.3-0.2,0.8,0,1.1,0.3c0.5,0.5,0.5,1.1,0,1.6l0,0c-3.7,3.7-6.9,7.7-9.5,12.3
				c-0.2,0.3-0.6,1-1.5,1.1C274.9,142.7,274.8,142.7,274.6,142.7z M258,137.7c2.1,0.3,4.4,0.6,6.5,1.1l10,1.6c0,0,0,0,0-0.2
				c2.4-4,5.2-7.7,8.4-11.1c-0.8-0.2-1.8-0.5-3.1-0.8c-1.1-0.3-2.6-0.6-2.9-0.6c-0.5,0-1.1-0.2-1.6-0.2h-0.2
				c-2.3-0.2-4.7-0.3-7.1-0.2h-0.8c-2.9,0.2-4.4,0.3-5.5,2.1c-1.1,1.5-1.9,3.5-2.6,5.6C258.7,135.9,258.3,136.7,258,137.7z"/>
		</g>
		<g>
			<path d="M264.5,141.1c-0.2,0-0.3,0-0.5-0.2c-0.6-0.3-0.8-1-0.6-1.5c2.6-6.5,10.8-14,10.8-14c0.5-0.5,1.3-0.3,1.6,0.2
				c0.5,0.5,0.3,1.3-0.2,1.6c0,0-7.9,7.3-10.3,13.2C265.4,140.8,264.9,141.1,264.5,141.1z"/>
		</g>
		<g>
			<path d="M264.5,141.1c-0.3,0-0.5,0-0.6-0.3c-0.5-0.3-0.6-1.1-0.2-1.6l10.5-13.5l1,0.6l0.8,0.8l-10.5,13.5
				C265.3,140.9,264.9,141.1,264.5,141.1z"/>
		</g>
	</g>
</g>
<g>
	<g>
		<path class="st0" d="M66.4,322.8c-0.5,1.3-0.3,2.6,0.5,3.9c2.7,4,13.1,2.3,16.8,1.5c52.7-11.6,104-32.4,145.8-66.4
			c2.7-2.3,5.6-4.8,6.9-8.2c1.3-3.2,0.8-6.9,0.2-10.3c-1.6-8.7-4.7-17.6-10.6-24c-23.9-25.6-56.1,22.3-74,36.9
			c-14.7,12.1-30,23.7-45.3,35.2c-7.7,5.6-15.5,11.3-23.2,16.9c-3.9,2.7-7.7,5.6-11.6,8.4C69.9,317.5,67.2,320.1,66.4,322.8z"/>
		<path d="M74.6,330.3c-3.5,0-7.3-0.6-8.9-3.1c-1-1.5-1.1-3.1-0.6-4.8l0,0c1-2.9,3.5-5.5,5.8-7.3c3.9-2.7,7.7-5.5,11.6-8.4
			c8.9-6.5,16.3-11.8,23.2-16.9c17.6-12.9,31.9-24.2,45.2-35c3.9-3.2,8.5-8.1,13.4-13.1c13.4-14,30.2-31.5,45.8-31.5h0.2
			c6,0,11.5,2.7,16.3,7.7c5.5,5.8,9,13.9,11,24.7c0.6,3.5,1.1,7.4-0.3,11c-1.5,3.5-4.2,6.1-7.3,8.7c-38.5,31.5-87.7,53.9-146.3,66.8
			C82,329.6,78.3,330.3,74.6,330.3z M67.4,323.2L67.4,323.2c-0.3,1.1-0.3,1.9,0.3,2.7c1.8,2.6,9,2.4,15.5,1
			c58.1-12.7,107.1-35,145.3-66.3c2.7-2.3,5.5-4.7,6.6-7.7c1.1-3.1,0.8-6.5,0.2-9.7c-1.8-10.3-5.2-17.9-10.3-23.5
			c-4.4-4.7-9.2-7.1-14.5-7.1h-0.2c-14.7,0-31,17.1-44.2,30.6c-5,5.2-9.7,10.2-13.5,13.4c-13.4,11-27.7,22.1-45.3,35.2
			c-6.9,5-14.2,10.5-23.2,16.9c-3.9,2.7-7.7,5.6-11.6,8.4C70.6,318.5,68.2,320.9,67.4,323.2z"/>
	</g>
	<g>
		<path class="st3" d="M155.9,281.7c-0.5,0-0.8-0.2-1-0.6c-3.4-6.9-4-15-1.6-22.4c0.2-0.6,0.8-1,1.5-0.8c0.6,0.2,1,0.8,0.8,1.5
			c-2.3,6.8-1.6,14.2,1.5,20.5c0.3,0.6,0,1.3-0.5,1.6C156.2,281.6,156.1,281.7,155.9,281.7z"/>
	</g>
	<g>
		<path class="st3" d="M172.4,277c-0.3,0-0.6-0.2-1-0.5c-6.1-7.4-8.1-18.1-4.7-27.1c0.2-0.6,1-1,1.5-0.6c0.6,0.2,1,1,0.6,1.5
			c-3.1,8.2-1.5,17.9,4.2,24.7c0.5,0.5,0.3,1.3-0.2,1.6C173,276.9,172.7,277,172.4,277z"/>
	</g>
</g>
<path d="M176.9,255.6c3.1,7.1,8.1,13.1,13.5,18.4c4.7,4.5,11.1,11.1,17.6,12.7c9.2,2.3,18.7,2.6,28.1,2.6
	c13.4-0.2,22.3-3.9,32.1-12.7c5.3-4.8,10.3-10.2,13.5-16.6c7.1-14.2,4-31.3-0.8-46.4c-3.2-10.3-7.6-20.8-15.6-27.9
	c-6.3-5.6-14.5-8.9-22.7-11c-19.4-4.7-49-3.1-60.6,16.5c-4.4,7.4-5.2,18.2-6.6,26.5C173,229.9,171.7,243.5,176.9,255.6z"/>
<g>
	<path class="st4" d="M195.8,238.3c14,5.6,29.5,5.6,44.4,4.5c11.6-0.8,24.8-2.1,32.1-13.4c3.4-5.3,5-12.1,3.1-18.2
		c-1.8-6.3-6.8-10.8-12.1-14c-11.6-6.9-25.5-8.2-38.9-7.9c-6.5,0.2-13.1,0.6-19.4,2.7c-8.5,2.9-21.5,11.1-24.5,21
		c-2.9,9.7,2.7,19.2,10.8,23.2C192.7,237,194.3,237.7,195.8,238.3z"/>
	<path d="M226.4,244.6c-10.2,0-21-1.1-31.1-5.2c-1.6-0.6-3.1-1.3-4.5-2.1c-8.2-4-14.7-13.9-11.5-24.7c3.2-10.8,17.3-19,25.2-21.8
		c6.8-2.3,13.7-2.7,19.7-2.7c10.6-0.2,26.3,0.3,39.5,8.1c4.7,2.7,10.5,7.6,12.7,14.7c1.8,6,0.6,13.2-3.2,19.2
		c-7.7,12.1-22.4,13.1-33.1,13.9C235.7,244.5,231.1,244.6,226.4,244.6z M227.7,190.4c-1.3,0-2.4,0-3.5,0c-5.8,0.2-12.6,0.5-19,2.7
		c-8.1,2.7-20.8,10.8-23.7,20.2c-2.9,9.5,2.9,18.2,10.3,21.9c1.5,0.6,2.9,1.5,4.4,1.9l0,0c14.4,5.8,30.2,5.5,43.7,4.5
		c10.8-0.8,24.2-1.8,31.3-12.9c3.4-5.3,4.5-11.8,2.9-17.3c-1.9-6.5-7.4-10.8-11.6-13.4C251.2,191.6,237.8,190.4,227.7,190.4z"/>
</g>
<g>
	<g>
		<path class="st1" d="M269.5,221.9c17.3-21,12.9-50.2,7.6-74.7c-1.1-5.5-1-13.2-5.3-17.3c-5.3-4.7-12.9-6.9-19.8-6.9
			c-6.3,0-12.4-2.6-18.9-2.9c-7.4-0.5-15,0.2-22.3,1.6c-4.2,1-8.1,3.5-12.3,4.2c-3.9,0.8-6.9,0.2-10.6,2.4
			c-5.8,3.5-11.5,7.6-15.6,13.1c-5.6,7.6-3.5,22.3-1.9,30.8c1.8,10.2-0.2,20.3,5,29.8c4.4,8.1,9.5,15.8,15.2,22.9
			c6,7.3,14.8,7.4,23.9,7.7c8.4,0.5,16.8,0.5,25.2,0.5c4.5,0,8.9-0.2,13.2-1.1C259.8,230.6,265.3,226.9,269.5,221.9z"/>
		<path d="M233.8,234.6c-6.6,0-13.2-0.2-19.8-0.5h-1.3c-8.5-0.5-17.6-0.8-23.4-8.2c-5.6-7.1-10.8-14.8-15.3-23.1
			c-3.5-6.6-3.9-13.4-4.2-20c-0.2-3.4-0.3-6.8-1-10.3c-1.9-10.8-3.4-24.4,2.3-31.8c4.7-6.3,11.5-10.6,16-13.4
			c2.9-1.8,5.3-1.9,7.7-2.1c1.1-0.2,2.1-0.2,3.4-0.5c1.9-0.3,3.9-1.1,6-2.1c1.9-0.8,4-1.8,6.3-2.3c7.4-1.6,15.2-2.1,22.6-1.8
			c3.1,0.2,6.1,0.8,9,1.5c3.4,0.8,6.6,1.5,9.8,1.5c7.7,0,15.5,2.7,20.6,7.3c3.7,3.2,4.4,8.7,5,13.5c0.2,1.6,0.5,3.1,0.6,4.4
			c5.5,25.3,9.7,54.4-7.9,75.6l0,0c-4.7,5.6-10.5,9.2-17.6,10.8c-4.5,1-9.2,1.1-13.5,1.1C237.5,234.6,235.6,234.6,233.8,234.6z
			 M227.8,121.1c-5.6,0-11.5,0.6-17.1,1.8c-1.9,0.5-3.9,1.3-5.8,2.1c-2.1,0.8-4.2,1.8-6.5,2.3c-1.3,0.3-2.4,0.3-3.5,0.5
			c-2.3,0.2-4.4,0.3-6.8,1.8c-7.1,4.2-11.9,8.2-15.3,12.7c-5.6,7.6-2.9,23.9-1.8,30c0.6,3.5,0.8,7.1,1,10.5c0.3,6.6,0.6,12.9,3.9,19
			c4.4,8.1,9.5,15.8,15.2,22.7c5.3,6.6,13.2,6.9,21.8,7.3h1.3c8.4,0.5,16.8,0.5,25,0.5c4.5,0,8.9-0.2,13.1-1.1
			c6.6-1.5,11.9-4.7,16.3-10l0,0c16.9-20.5,12.7-48.7,7.4-73.5c-0.3-1.5-0.5-2.9-0.8-4.5c-0.6-4.7-1.3-9.4-4.4-12.1
			c-4.7-4.2-11.9-6.6-19.2-6.8c-3.5,0-6.9-0.8-10.3-1.5c-2.9-0.6-5.8-1.3-8.7-1.5C231.2,121.2,229.6,121.1,227.8,121.1z"/>
	</g>
	<g>
		<path d="M233.7,232.4l-2.3-0.3c1.9-17.6,0.6-35.6-0.6-53.1c-0.6-10.2-1.5-20.6-1.6-31.1h2.3c0.2,10.3,0.8,20.8,1.6,31
			C234.3,196.4,235.6,214.6,233.7,232.4z"/>
	</g>
	<g>
		<g>
			<path class="st5" d="M269.6,164.8c-9.4,1.8-12.7-1.6-12.7-1.6s-1.9,4.4-11.3,6c0,0,4,22.6,16.1,20.3
				C273.8,187.2,269.6,164.8,269.6,164.8z"/>
			<path d="M260.1,190.8c-1.9,0-3.9-0.6-5.6-1.8c-7.3-5-9.8-18.9-10-19.5c-0.2-0.6,0.3-1.3,1-1.3c8.4-1.6,10.5-5.3,10.5-5.3
				c0.2-0.3,0.5-0.6,0.8-0.6c0.3,0,0.8,0,1,0.3c0,0,3.2,2.9,11.6,1.3c0.6-0.2,1.3,0.3,1.3,1c0.2,0.6,2.7,14.5-2.3,21.8
				c-1.6,2.3-3.7,3.7-6.5,4.2C261.4,190.8,260.7,190.8,260.1,190.8z M247,170.1c0.8,3.4,3.4,13.2,8.7,16.9c1.8,1.3,3.7,1.6,5.8,1.3
				c2.1-0.3,3.7-1.5,5-3.2c3.7-5.5,2.6-15.5,2.1-18.9c-6.3,1-9.8-0.3-11.5-1.3C256.1,166.2,253.2,168.8,247,170.1z"/>
		</g>
		<g>
			<path class="st6" d="M264.6,178.8c0.5,2.3-1.5,3.2-4,3.5c-2.4,0.5-4.7,0.3-5-1.9c-0.5-2.3,1.3-4.5,3.7-4.8
				C261.7,175.1,264.1,176.6,264.6,178.8z"/>
			<g>
				
					<ellipse transform="matrix(0.9832 -0.1823 0.1823 0.9832 -27.8765 49.1956)" class="st6" cx="253.7" cy="176.2" rx="1.5" ry="1.8"/>
				
					<ellipse transform="matrix(0.9832 -0.1823 0.1823 0.9832 -27.308 51.1881)" class="st6" cx="264.8" cy="174.1" rx="1.5" ry="1.8"/>
			</g>
			<g>
				
					<ellipse transform="matrix(0.9832 -0.1823 0.1823 0.9832 -27.2646 49.702)" class="st6" cx="256.7" cy="173.2" rx="1.5" ry="1.8"/>
				
					<ellipse transform="matrix(0.9832 -0.1823 0.1823 0.9832 -27.0486 50.4524)" class="st6" cx="260.9" cy="172.4" rx="1.5" ry="1.8"/>
			</g>
		</g>
	</g>
</g>
<g>
	<g>
		<path class="st1" d="M196.2,147.9c5.5,4,13.5,9.4,19.4,11.6c1.1,0.5,2.4,1,3.7,0.6c1.6-0.3,10.6-12.4,11-12.1
			c3.5,3.2,4.8,6.9,8.4,10.3c0.3,0.3,0.6,0.6,1,0.6c0.5,0.2,1,0,1.5-0.2c9.7-3.5,19.4-9.8,23.5-19.8c2.4-6,0.3-15.2-3.4-20
			c-5-6.8-13.9-9.5-22.3-10.8c-9.2-1.3-18.5-1.3-27.6-0.2c-10.2,1.1-15,4.2-21.5,12.6C181.2,132,185.9,140.1,196.2,147.9z"/>
		<path d="M218.7,161.4c-1.3,0-2.4-0.5-3.5-0.8c-6.1-2.4-14.4-7.9-19.7-11.8l0,0c-6.9-5.2-10.5-10-11.1-15c-0.6-4.4,1-8.9,4.8-13.7
			c6.8-8.7,11.9-11.8,22.3-12.9c9.5-1.1,18.9-1,27.9,0.2c11,1.6,18.5,5.2,23.1,11.1c3.9,5.2,6.3,14.7,3.5,21.1
			c-4.7,11.1-15.8,17.3-24.2,20.5c-0.6,0.2-1.3,0.5-2.1,0.3c-0.6-0.2-1.1-0.6-1.6-1c-1.8-1.8-3.1-3.5-4.2-5.3
			c-1.1-1.5-2.1-2.9-3.4-4.4c-0.8,0.8-1.9,2.4-3.1,3.7c-4.8,5.8-6.6,7.7-7.7,7.9C219.3,161.4,219,161.4,218.7,161.4z M224.6,108.7
			c-4.4,0-8.5,0.3-12.9,0.8c-9.7,1.1-14.2,3.9-20.6,12.1c-3.4,4.4-4.8,8.4-4.4,12.1c0.6,4.4,3.9,8.5,10.3,13.4l0,0
			c5.2,3.9,13.2,9.2,19,11.5c1.1,0.5,2.1,0.8,3.1,0.6c0.8-0.5,4.2-4.7,6.3-7.1c3.7-4.5,4-4.8,4.8-4.8h0.5l0.3,0.3
			c1.9,1.8,3.2,3.7,4.5,5.5c1.1,1.8,2.3,3.4,3.9,4.8c0.2,0.2,0.3,0.3,0.5,0.3c0.2,0,0.6-0.2,0.8-0.2c8.1-2.9,18.5-8.7,22.9-19.2
			c2.3-5.5,0.2-14.2-3.2-18.9c-4-5.5-11.1-8.9-21.5-10.3C234.3,109,229.5,108.7,224.6,108.7z"/>
	</g>
	<g>
		<g>
			<path class="st7" d="M242.8,153.3c-0.5,0-0.8-0.2-1.1-0.3c-0.3-0.3-1-1-0.8-2.3v-0.2c0-0.2,0-0.3,0-0.5l0,0c0,0-0.3,0-0.5-0.2
				c-0.2,0-0.3-0.2-0.6-0.2c-1-0.3-1.1-1-1.1-1.3c0-0.5,0.2-1,0.6-1.5c0.5-0.3,0.8-0.8,1.5-1c0-0.6,0-1.1,0.2-1.8
				c0-0.6,0.3-1,0.6-1.1c0.2-0.2,0.5-0.2,0.6-0.2c0.3,0,0.5,0.2,0.6,0.2c0.3,0.2,0.6,0.3,1,0.5c0.3,0.2,0.8,0.5,1,0.5l0,0
				c0.2,0,0.3,0,0.5-0.2c0.3,0,0.6-0.2,1-0.2c0.2,0,0.2,0,0.3,0c1.1,0.2,2.1,1.1,2.1,2.1c0,0.8-0.5,1.5-0.8,1.8
				c0.2,0.2,0.2,0.2,0.3,0.3c0.6,0.8,0.8,1.6,0.5,2.4c-0.2,0.5-0.8,1.1-2.1,1.1c-0.2,0-0.5,0-0.6,0l-0.6-0.2
				c-0.2,0.3-0.3,0.6-0.8,1.1C244.1,153.2,243.5,153.3,242.8,153.3z"/>
		</g>
		<g>
			<path d="M242.2,144.1h0.2c0.6,0.3,1.5,1,2.3,1.1h0.2c0.5,0,1-0.3,1.5-0.3h0.2c0.5,0,1.1,0.5,1.1,1c0,0.8-1,1.3-1.1,1.9
				c0.3,0.3,0.6,0.6,1,0.8c0.3,0.3,0.5,0.8,0.3,1.1c-0.2,0.3-0.6,0.5-1.1,0.5c-0.2,0-0.3,0-0.5,0c-0.3,0-0.6-0.2-1.1-0.2h-0.2h-0.2
				c-0.2,0-0.2,0.2-0.3,0.3c-0.2,0.3-0.3,0.8-0.6,1.1c-0.2,0.2-0.5,0.3-0.8,0.3c-0.2,0-0.3,0-0.5-0.2c-0.3-0.3-0.3-0.8-0.3-1.1
				c0-0.5,0.2-0.8,0-1.3c-0.3-0.6-1.1-0.6-1.8-1c-0.2,0-0.3-0.2-0.3-0.3c0-0.2,0.2-0.3,0.2-0.3c0.5-0.5,1.1-0.8,1.8-1.1
				c0-0.8,0-1.6,0.2-2.4C242,144.3,242,144.1,242.2,144.1L242.2,144.1 M242.2,141.7c-0.5,0-1,0.2-1.3,0.3c-0.3,0.3-1.1,0.8-1.3,1.9
				c0,0.5,0,0.8-0.2,1.3c-0.3,0.3-0.6,0.5-1,0.8c-1,1-1,1.9-1,2.4c0.2,1,0.8,1.9,1.9,2.3c0.2,0,0.2,0,0.3,0.2c0,1.3,0.3,2.3,1.3,3.1
				c0.5,0.3,1.1,0.6,1.8,0.6c1,0,1.8-0.3,2.4-1c0.2-0.2,0.3-0.5,0.5-0.6c0.2,0,0.5,0,0.8,0c2.1,0,2.9-1.3,3.2-1.8
				c0.5-1,0.3-2.3-0.3-3.4c0.3-0.5,0.5-1.1,0.5-1.8c0-1.6-1.5-3.1-3.2-3.2c-0.2,0-0.3,0-0.5,0c-0.5,0-1,0.2-1.3,0.2l0,0
				c-0.2,0-0.3-0.2-0.5-0.3c-0.3-0.2-0.6-0.5-1.1-0.6C243,141.9,242.7,141.7,242.2,141.7L242.2,141.7z"/>
		</g>
	</g>
	<g>
		<g>
			<path class="st7" d="M216.2,154.8c-0.5,0-0.8-0.2-1.1-0.3c-0.3-0.3-1-1-0.8-2.3V152c0-0.2,0-0.3,0-0.5l0,0c0,0-0.3,0-0.5-0.2
				c-0.2,0-0.3-0.2-0.6-0.2c-1-0.3-1.1-1-1.1-1.3c0-0.5,0.2-1,0.6-1.5c0.5-0.3,0.8-0.8,1.5-1c0-0.6,0-1.1,0.2-1.8
				c0-0.6,0.3-1,0.6-1.1c0.2-0.2,0.5-0.2,0.6-0.2c0.3,0,0.5,0.2,0.6,0.2c0.3,0.2,0.6,0.3,1,0.5c0.3,0.2,0.8,0.5,1,0.5l0,0
				c0.2,0,0.3,0,0.5-0.2c0.3,0,0.6-0.2,1-0.2c0.2,0,0.2,0,0.3,0c1.1,0.2,2.1,1.1,2.1,2.1c0,0.8-0.5,1.5-0.8,1.8
				c0.2,0.2,0.2,0.2,0.3,0.3c0.6,0.8,0.8,1.6,0.5,2.4c-0.2,0.5-0.8,1.1-2.1,1.1c-0.2,0-0.5,0-0.6,0l-0.6-0.2
				c-0.2,0.3-0.3,0.6-0.6,1.1C217.4,154.6,216.7,154.8,216.2,154.8z"/>
		</g>
		<g>
			<path d="M215.4,145.6h0.2c0.6,0.3,1.5,1,2.3,1.1h0.2c0.5,0,1-0.3,1.5-0.3h0.2c0.5,0,1.1,0.5,1.1,1c0,0.8-1,1.3-1.1,1.9
				c0.3,0.3,0.6,0.6,1,0.8c0.3,0.3,0.5,0.8,0.3,1.1c-0.2,0.3-0.6,0.5-1.1,0.5c-0.2,0-0.3,0-0.5,0c-0.3,0-0.6-0.2-1.1-0.2H218h-0.2
				c-0.2,0-0.2,0.2-0.3,0.3c-0.2,0.3-0.3,0.8-0.6,1.1c-0.2,0.2-0.5,0.3-0.8,0.3c-0.2,0-0.3,0-0.5-0.2c-0.3-0.3-0.3-0.8-0.3-1.1
				c0-0.5,0.2-0.8,0-1.3c-0.3-0.6-1.1-0.6-1.8-1c-0.2,0-0.3-0.2-0.3-0.3c0-0.2,0.2-0.3,0.2-0.3c0.5-0.5,1.1-0.8,1.8-1.1
				c0-0.8,0-1.6,0.2-2.4C215.3,145.8,215.3,145.6,215.4,145.6L215.4,145.6 M215.4,143.2c-0.5,0-1,0.2-1.3,0.3
				c-0.3,0.3-1.1,0.8-1.3,1.9c0,0.5,0,0.8-0.2,1.3c-0.3,0.3-0.6,0.5-1,0.8c-1,1-1,1.9-1,2.4c0.2,1,0.8,1.9,1.9,2.3
				c0.2,0,0.2,0,0.3,0.2c0,1.3,0.3,2.3,1.3,3.1c0.5,0.3,1.1,0.6,1.8,0.6c1,0,1.8-0.3,2.4-1c0.2-0.2,0.3-0.5,0.5-0.6
				c0.2,0,0.5,0,0.8,0c2.1,0,2.9-1.3,3.2-1.8c0.5-1,0.3-2.3-0.3-3.4c0.3-0.5,0.5-1.1,0.5-1.8c0-1.6-1.5-3.1-3.2-3.2
				c-0.2,0-0.3,0-0.5,0c-0.5,0-1,0.2-1.3,0.2l0,0c-0.2,0-0.3-0.2-0.5-0.3c-0.3-0.2-0.6-0.5-1.1-0.6
				C216.2,143.3,215.9,143.2,215.4,143.2L215.4,143.2z"/>
		</g>
	</g>
	<g>
		<g>
			<path class="st7" d="M204,147.9c-0.3,0-0.6-0.2-1-0.3c-0.3-0.3-1-0.8-0.6-2.1c0-0.2,0-0.2,0-0.3h-0.2c-0.2,0-0.3-0.2-0.5-0.2
				c-0.8-0.3-1-1-1.1-1.3c0-0.3,0-0.8,0.5-1.3c0.3-0.3,0.6-0.5,1-0.8c0-0.5,0-0.8,0-1.3c0-0.6,0.3-1,0.6-1.1
				c0.2-0.2,0.5-0.2,0.6-0.2s0.5,0,0.6,0.2c0.3,0.2,0.5,0.3,0.8,0.5c0.2,0.2,0.5,0.3,0.6,0.3h0.2c0.2,0,0.5-0.2,0.8-0.2
				c0,0,0.2,0,0.3,0c1.1,0.2,1.9,1,1.9,1.9c0,0.6-0.3,1.1-0.5,1.5l0,0c0.6,0.6,0.8,1.5,0.5,2.3c-0.2,0.3-0.6,1-1.9,1
				c-0.2,0-0.3,0-0.5,0h-0.3c-0.2,0.2-0.3,0.5-0.5,0.8C205.1,147.5,204.5,147.9,204,147.9z"/>
		</g>
		<g>
			<path d="M203.5,140.3C203.5,140.3,203.7,140.3,203.5,140.3c0.6,0.3,1.3,0.8,1.9,1h0.2c0.3,0,0.8-0.2,1.1-0.2h0.2
				c0.5,0,0.8,0.3,0.8,0.8c0,0.6-0.8,1-0.8,1.6c0.2,0.3,0.5,0.5,0.6,0.6c0.2,0.3,0.3,0.6,0.2,1c-0.2,0.3-0.5,0.3-0.8,0.3
				c-0.2,0-0.3,0-0.3,0c-0.3,0-0.5,0-0.8-0.2h-0.2h-0.2c-0.2,0-0.2,0.2-0.2,0.2c-0.2,0.3-0.3,0.6-0.5,1c-0.3,0.2-0.6,0.2-0.8,0.2
				s-0.2,0-0.3-0.2c-0.3-0.2-0.3-0.6-0.3-1c0-0.3,0.2-0.6,0-1c-0.2-0.5-1-0.5-1.5-0.6c-0.2,0-0.3-0.2-0.3-0.3c0-0.2,0.2-0.2,0.2-0.3
				c0.5-0.3,0.8-0.6,1.5-1c0-0.6,0-1.3,0-1.9C203.3,140.4,203.3,140.3,203.5,140.3L203.5,140.3 M203.5,137.9c-0.5,0-1,0.2-1.3,0.3
				c-0.3,0.3-1.1,0.8-1.1,1.9c0,0.3,0,0.5,0,0.8c-0.2,0.2-0.5,0.3-0.6,0.5c-1,0.8-1,1.8-1,2.3c0.2,1,0.8,1.8,1.8,2.1
				c0,1,0.5,1.8,1.3,2.4c0.5,0.3,1.1,0.5,1.8,0.5c0.8,0,1.6-0.3,2.3-1c0.2-0.2,0.2-0.2,0.3-0.3c0.2,0,0.2,0,0.3,0
				c1.9,0,2.7-1.1,2.9-1.6c0.5-1,0.3-1.9-0.2-2.9c0.2-0.3,0.3-0.8,0.3-1.5c0-1.6-1.3-2.9-2.9-3.1c-0.2,0-0.3,0-0.5,0
				c-0.3,0-0.8,0-1,0.2c0,0-0.2,0-0.2-0.2c-0.3-0.2-0.6-0.3-1-0.5C204.1,138,203.8,137.9,203.5,137.9L203.5,137.9z"/>
		</g>
	</g>
	<g>
		<g>
			<path class="st7" d="M194.1,140.4c-0.3,0-0.6-0.2-1-0.3c-0.3-0.3-0.8-0.8-0.8-2.1c0-0.2,0-0.2,0-0.3h-0.2c-0.2,0-0.3-0.2-0.5-0.2
				c-0.8-0.3-1-1-1.1-1.3c0-0.3,0-0.8,0.5-1.3c0.3-0.3,0.6-0.5,1-0.8c0-0.5,0-0.8,0-1.3c0-0.6,0.3-1,0.6-1.1
				c0.2-0.2,0.5-0.2,0.6-0.2c0.3,0,0.5,0,0.6,0.2c0.3,0.2,0.5,0.3,0.8,0.5c0.2,0.2,0.5,0.3,0.6,0.3h0.2c0.2,0,0.5-0.2,0.8-0.2
				c0,0,0.2,0,0.3,0c1.1,0.2,1.9,1,1.9,1.9c0,0.6-0.3,1.1-0.5,1.5l0,0c0.6,0.6,0.8,1.5,0.5,2.3c-0.2,0.3-0.6,1-1.9,1
				c-0.2,0-0.3,0-0.5,0h-0.3c-0.2,0.2-0.3,0.5-0.5,0.8C195.3,140.1,194.8,140.4,194.1,140.4z"/>
		</g>
		<g>
			<path d="M193.7,132.9C193.7,132.9,193.8,132.9,193.7,132.9c0.6,0.3,1.3,0.8,1.9,1h0.2c0.3,0,0.8-0.2,1.1-0.2h0.2
				c0.5,0,0.8,0.3,0.8,0.8c0,0.6-0.8,1-0.8,1.6c0.2,0.3,0.5,0.5,0.6,0.6c0.2,0.3,0.3,0.6,0.2,1c-0.2,0.3-0.5,0.3-0.8,0.3
				c-0.2,0-0.3,0-0.3,0c-0.3,0-0.5,0-0.8-0.2h-0.2h-0.2c-0.2,0-0.2,0.2-0.2,0.2c-0.2,0.3-0.3,0.6-0.5,1c-0.2,0.2-0.3,0.3-0.6,0.3
				c-0.2,0-0.2,0-0.3-0.2c-0.5-0.3-0.5-0.6-0.3-1c0-0.3,0.2-0.6,0-1c-0.2-0.5-1-0.5-1.5-0.6c-0.2,0-0.3-0.2-0.3-0.3
				c0-0.2,0.2-0.2,0.2-0.3c0.5-0.3,0.8-0.6,1.5-1c0-0.6,0-1.3,0-1.9C193.5,133,193.5,132.9,193.7,132.9L193.7,132.9 M193.7,130.4
				c-0.5,0-1,0.2-1.3,0.3c-0.3,0.3-1.1,0.8-1.1,1.9c0,0.3,0,0.5,0,0.8c-0.2,0.2-0.5,0.3-0.6,0.5c-1,0.8-1,1.8-1,2.3
				c0.2,1,0.8,1.8,1.8,2.1c0,1,0.5,1.8,1.3,2.4c0.5,0.3,1.1,0.5,1.8,0.5c0.8,0,1.6-0.3,2.3-1c0.2-0.2,0.2-0.2,0.3-0.3
				c0.2,0,0.2,0,0.3,0c1.9,0,2.7-1.1,2.9-1.6c0.5-1,0.3-1.9-0.2-2.9c0.2-0.3,0.3-0.8,0.3-1.5c0-1.6-1.3-2.9-2.9-3.1
				c-0.2,0-0.3,0-0.5,0c-0.3,0-0.8,0-1,0.2c0,0-0.2,0-0.2-0.2c-0.3-0.2-0.6-0.3-1-0.5C194.5,130.6,194,130.4,193.7,130.4
				L193.7,130.4z"/>
		</g>
	</g>
	<g>
		<g>
			<path class="st7" d="M260.3,138c-0.3,0-0.6-0.2-1-0.3c-0.3-0.3-0.8-0.8-0.6-2.1c0-0.2,0-0.2,0-0.3h-0.2c-0.2,0-0.3-0.2-0.5-0.2
				c-0.8-0.3-1-1-1.1-1.3c0-0.3,0-0.8,0.5-1.3c0.3-0.3,0.6-0.5,1-0.8c0-0.5,0-0.8,0-1.3c0-0.6,0.3-1,0.6-1.1
				c0.2-0.2,0.5-0.2,0.6-0.2c0.3,0,0.5,0,0.6,0.2c0.3,0.2,0.5,0.3,0.8,0.5c0.2,0.2,0.5,0.3,0.6,0.3h0.2c0.2,0,0.5-0.2,0.8-0.2
				c0,0,0.2,0,0.3,0c1.1,0.2,1.9,1,1.9,1.9c0,0.6-0.3,1.1-0.5,1.5l0,0c0.6,0.6,0.8,1.5,0.5,2.3c-0.2,0.3-0.6,1-1.9,1
				c-0.2,0-0.3,0-0.5,0h-0.3c-0.2,0.2-0.3,0.5-0.5,0.8C261.2,137.9,260.7,138,260.3,138z"/>
		</g>
		<g>
			<path d="M259.6,130.4C259.8,130.4,259.8,130.4,259.6,130.4c0.6,0.3,1.3,0.8,1.9,1h0.2c0.3,0,0.8-0.2,1.1-0.2h0.2
				c0.5,0,0.8,0.3,0.8,0.8c0,0.6-0.8,1-0.8,1.6c0.2,0.3,0.5,0.5,0.6,0.6c0.2,0.3,0.3,0.6,0.2,1c-0.2,0.3-0.5,0.3-0.8,0.3
				c-0.2,0-0.3,0-0.3,0c-0.3,0-0.5,0-0.8-0.2h-0.2h-0.2c-0.2,0-0.2,0.2-0.2,0.2c-0.2,0.3-0.3,0.6-0.5,1c-0.2,0.2-0.3,0.3-0.6,0.3
				c-0.2,0-0.2,0-0.3-0.2c-0.3-0.2-0.3-0.6-0.3-1c0-0.3,0.2-0.6,0-1c-0.2-0.5-1-0.5-1.5-0.6c-0.2,0-0.3-0.2-0.3-0.3
				c0-0.2,0.2-0.2,0.2-0.3c0.5-0.3,0.8-0.6,1.5-1c0-0.6,0-1.3,0-1.9C259.5,130.6,259.5,130.6,259.6,130.4L259.6,130.4 M259.6,128.2
				c-0.5,0-1,0.2-1.3,0.3c-0.3,0.3-1.1,0.8-1.1,1.9c0,0.3,0,0.5,0,0.8c-0.2,0.2-0.5,0.3-0.6,0.5c-1,0.8-1,1.8-1,2.3
				c0.2,1,0.8,1.8,1.8,2.1c0,1,0.5,1.8,1.3,2.4c0.5,0.3,1.1,0.5,1.8,0.5c0.8,0,1.6-0.3,2.3-1c0.2-0.2,0.2-0.2,0.3-0.3
				c0.2,0,0.2,0,0.3,0c1.9,0,2.7-1.1,2.9-1.6c0.5-1,0.3-1.9-0.2-2.9c0.2-0.3,0.3-0.8,0.3-1.5c0-1.6-1.3-2.9-2.9-3.1
				c-0.2,0-0.3,0-0.5,0c-0.3,0-0.8,0-1,0.2c0,0-0.2,0-0.2-0.2c-0.3-0.2-0.6-0.3-1-0.5C260.4,128.2,260.1,128.2,259.6,128.2
				L259.6,128.2z"/>
		</g>
	</g>
	<g>
		<g>
			<path class="st7" d="M253.3,146.4c-0.3,0-0.8-0.2-1-0.3c-0.3-0.3-0.8-0.8-0.6-2.1c0-0.2,0-0.2,0-0.3h-0.2c-0.2,0-0.3-0.2-0.5-0.2
				c-0.8-0.3-1-1-1.1-1.3c0-0.3,0-0.8,0.5-1.3c0.3-0.3,0.6-0.5,1-0.8c0-0.5,0-0.8,0-1.3c0-0.6,0.3-1,0.6-1.1
				c0.2-0.2,0.5-0.2,0.6-0.2c0.3,0,0.5,0.2,0.6,0.2c0.3,0.2,0.5,0.3,0.8,0.5c0.2,0.2,0.5,0.3,0.6,0.3h0.2c0.2,0,0.5-0.2,0.8-0.2
				c0,0,0.2,0,0.3,0c1.1,0.2,1.9,1,1.9,1.9c0,0.6-0.3,1.1-0.5,1.5l0,0c0.6,0.6,0.8,1.5,0.5,2.3c-0.2,0.3-0.6,1-1.9,1
				c-0.2,0-0.3,0-0.5,0h-0.3c-0.2,0.2-0.3,0.5-0.5,0.8C254.5,146.1,253.8,146.4,253.3,146.4z"/>
		</g>
		<g>
			<path d="M252.8,138.8L252.8,138.8c0.6,0.3,1.3,0.8,1.9,1h0.2c0.3,0,0.8-0.2,1.1-0.2h0.2c0.5,0,0.8,0.3,0.8,0.8
				c0,0.6-0.8,1-0.8,1.6c0.2,0.3,0.5,0.5,0.6,0.6c0.2,0.3,0.3,0.6,0.2,1c-0.2,0.3-0.5,0.3-0.8,0.3c-0.2,0-0.3,0-0.3,0
				c-0.3,0-0.5,0-0.8-0.2h-0.2h-0.2c-0.2,0-0.2,0.2-0.2,0.2c-0.2,0.3-0.3,0.6-0.5,1c-0.2,0.2-0.3,0.3-0.6,0.3c-0.2,0-0.2,0-0.3-0.2
				c-0.3-0.2-0.3-0.6-0.3-1c0-0.3,0.2-0.6,0-1c-0.2-0.5-1-0.5-1.5-0.6c-0.2,0-0.3-0.2-0.3-0.3c0-0.2,0.2-0.2,0.2-0.3
				c0.5-0.3,0.8-0.6,1.5-1c0-0.6,0-1.3,0-1.9C252.7,139,252.7,138.8,252.8,138.8C252.7,138.8,252.8,138.8,252.8,138.8 M252.8,136.6
				c-0.5,0-1,0.2-1.3,0.3c-0.3,0.3-1.1,0.8-1.1,1.9c0,0.3,0,0.5,0,0.8c-0.2,0.2-0.5,0.3-0.6,0.5c-1,0.8-1,1.8-1,2.3
				c0.2,1,0.8,1.8,1.8,2.1c0,1,0.5,1.8,1.3,2.4c0.5,0.3,1.1,0.5,1.8,0.5c0.8,0,1.6-0.3,2.3-1c0.2-0.2,0.2-0.2,0.3-0.3
				c0.2,0,0.2,0,0.3,0c1.9,0,2.7-1.1,2.9-1.6c0.5-1,0.3-1.9-0.2-2.9c0.2-0.3,0.3-0.8,0.3-1.5c0-1.6-1.3-2.9-2.9-3.1
				c-0.2,0-0.3,0-0.5,0c-0.3,0-0.8,0-1,0.2c0,0-0.2,0-0.2-0.2c-0.3-0.2-0.6-0.3-1-0.5C253.5,136.6,253.2,136.6,252.8,136.6
				L252.8,136.6z"/>
		</g>
	</g>
</g>
<g>
	<path class="st8" d="M236.2,232l-11.9,0.5c-1.5,0-2.6,1.3-2.6,2.7l0.3,7.3c0,1.5,1.3,2.6,2.7,2.6l11.9-0.5c1.5,0,2.6-1.3,2.6-2.7
		l-0.3-7.3C238.8,233.2,237.7,232,236.2,232z M235.3,239.9c0,0.6-0.6,1.3-1.5,1.3l-6.8,0.2c-0.8,0-1.5-0.5-1.5-1.1l-0.2-3.2
		c0-0.6,0.6-1.3,1.5-1.3l6.8-0.2c0.8,0,1.5,0.5,1.5,1.1L235.3,239.9z"/>
	<path d="M224.6,246.2c-1,0-1.9-0.3-2.6-1c-0.8-0.6-1.1-1.6-1.1-2.6l-0.3-7.3c0-2.1,1.6-3.9,3.7-3.9l11.9-0.5c1.1,0,1.9,0.3,2.7,1
		c0.8,0.6,1.1,1.6,1.1,2.6l0.3,7.3c0,1-0.3,1.9-1,2.7c-0.6,0.8-1.6,1.1-2.6,1.1L224.6,246.2L224.6,246.2z M236.2,233.2L236.2,233.2
		L236.2,233.2l-11.9,0.5c-0.3,0-0.8,0.2-1,0.5c-0.2,0.3-0.5,0.6-0.3,1.1l0.3,7.3c0,0.3,0.2,0.8,0.5,1c0.3,0.2,0.6,0.3,1.1,0.3
		l11.9-0.5c0.8,0,1.5-0.6,1.5-1.5l-0.3-7.3c0-0.3-0.2-0.8-0.5-1C237,233.3,236.7,233.2,236.2,233.2z M236.2,232L236.2,232L236.2,232
		z M227,242.7c-1.5,0-2.6-1-2.6-2.3l-0.2-3.2c0-0.6,0.3-1.3,0.8-1.8c0.5-0.5,1.1-0.6,1.8-0.6l6.8-0.2c0,0,0,0,0.2,0
		c1.5,0,2.6,1,2.6,2.3l0.2,3.2c0,1.3-1.1,2.4-2.6,2.6H227C227.2,242.7,227.2,242.7,227,242.7z M233.8,236.7L233.8,236.7l-6.8,0.2
		c-0.2,0-0.3,0.2-0.3,0.2l0.2,3.2c0,0,0.2,0,0.3,0l6.8-0.2c0.2,0,0.2,0,0.3-0.2l-0.2-3.2C234,236.7,234,236.7,233.8,236.7z
		 M234.1,239.9L234.1,239.9L234.1,239.9L234.1,239.9z"/>
</g>
<g>
	<path class="st8" d="M240.6,239.6l-6.5,0.2c-0.6,0-1.1-0.5-1.3-1.1v-0.5c0-0.6,0.5-1.1,1.1-1.3l6.5-0.2c0.6,0,1.1,0.5,1.3,1.1v0.5
		C241.7,239,241.2,239.6,240.6,239.6z"/>
	<path d="M234.1,240.9c-1.3,0-2.3-1-2.3-2.3v-0.5c0-0.6,0.2-1.3,0.6-1.6c0.5-0.3,1-0.6,1.6-0.8l6.5-0.2c1.3,0,2.4,1,2.4,2.3v0.5
		c0,1.3-1,2.4-2.3,2.4l0,0L234.1,240.9L234.1,240.9z M240.6,239.6L240.6,239.6L240.6,239.6z M240.6,237.9l-6.5,0.2v0.5l6.5-0.2
		V237.9z"/>
</g>
<g>
	<path d="M167.4,280.4c-1.6,9-2.6,18.4-0.2,27.3c3.1,11.3,11,20.3,16,30.8c2.1,4.5,2.4,12.6,7.9,13.4c3.7,0.5,11.1,0.5,14.5-0.6
		c1.5-0.5,2.9-1.3,4.2-2.1c0.5-0.3,1.1-0.6,1.5-1.1c0.6-0.8,0.5-1.9,0.5-2.9c-1.5-12.4-12.1-22.6-12.4-35.5
		c-0.2-6.8,4.7-12.6,7.9-18.7c5-10,5.3-22.4,0.5-32.7c-3.7-7.7-16.5-23.4-26.8-18.4C171.2,244.6,169,271.1,167.4,280.4z"/>
</g>
<g>
	<path class="st4" d="M168,338.3c5-3.7,11.1-5.6,17.4-6.6c5.5-0.8,11.3-0.8,16.3,1.5c6.5,2.9,12.7,7.4,16.8,13.4
		c2.9,4.2,5.5,11.5,3.5,16.6c-1.8,4.5-7.4,5.5-11.8,5.5c-14.8,0-29.8,0-44.7,0c-1.8,0-3.9,0-5.3-1C149.9,361.4,162,342.5,168,338.3z
		"/>
	<path d="M165.1,369.8c-1.8,0-3.9,0-5.6-1.1c-2.7-1.8-4.4-4.5-4.5-7.9c-0.3-8.7,7.7-20,12.3-23.4l0,0c4.7-3.4,10.8-5.6,17.9-6.8
		c6.9-1.1,12.4-0.6,16.9,1.5c7.4,3.2,13.5,8.2,17.3,13.9c2.4,3.7,6.1,11.6,3.7,17.7c-1.6,4.2-6,6.3-12.9,6.3h-44.7
		C165.4,369.8,165.3,369.8,165.1,369.8z M168.7,339.3L168.7,339.3c-4.2,3.1-11.6,13.9-11.3,21.3c0.2,2.7,1.1,4.7,3.4,6.1
		c1.3,0.8,2.9,0.8,4.7,0.8h44.7c6,0,9.5-1.6,10.8-4.7c1.8-4.5-0.5-11.3-3.4-15.5c-3.5-5.2-9.2-9.8-16.3-12.9
		c-4.2-1.9-9.2-2.3-15.6-1.3C178.8,334,173.2,336.1,168.7,339.3z"/>
</g>
<g>
	<path d="M290.3,280.4c1.6,9,2.6,18.4,0.2,27.3c-3.1,11.3-11,20.3-16,30.8c-2.1,4.5-2.4,12.6-7.9,13.4c-3.7,0.5-11.1,0.5-14.5-0.6
		c-1.5-0.5-2.9-1.3-4.2-2.1c-0.5-0.3-1.1-0.6-1.5-1.1c-0.6-0.8-0.5-1.9-0.5-2.9c1.5-12.4,12.1-22.6,12.4-35.5
		c0.2-6.8-4.7-12.6-7.9-18.7c-5-10-5.3-22.4-0.5-32.7c3.7-7.7,16.5-23.4,26.8-18.4C286.4,244.6,288.8,271.1,290.3,280.4z"/>
</g>
<g>
	<path class="st4" d="M289.6,338.3c-5-3.7-11.1-5.6-17.4-6.6c-5.5-0.8-11.3-0.8-16.3,1.5c-6.5,2.9-12.7,7.4-16.8,13.4
		c-2.9,4.2-5.5,11.5-3.5,16.6c1.8,4.5,7.4,5.5,11.8,5.5c14.8,0,29.8,0,44.7,0c1.8,0,3.9,0,5.3-1
		C307.7,361.4,295.6,342.5,289.6,338.3z"/>
	<path d="M292.5,369.8c-0.2,0-0.2,0-0.3,0h-44.7c-6.9,0-11.3-2.1-12.9-6.3c-2.4-6.1,1.1-14,3.7-17.7c3.7-5.6,9.8-10.5,17.3-13.9
		c4.5-2.1,10.2-2.6,16.9-1.5c7.1,1.1,13.2,3.4,17.9,6.8l0,0c4.5,3.2,12.6,14.5,12.3,23.4c-0.2,3.5-1.6,6.3-4.5,7.9
		C296.4,369.8,294.1,369.8,292.5,369.8z M265.9,332.4c-3.5,0-6.8,0.6-9.4,1.8c-6.9,3.1-12.7,7.7-16.3,12.9c-2.9,4.4-5.2,11-3.4,15.5
		c1.3,3.1,4.8,4.7,10.8,4.7h44.7c1.9,0,3.5,0,4.7-0.8c2.1-1.3,3.2-3.2,3.4-6.1c0.3-7.6-7.1-18.4-11.3-21.3l0,0
		c-4.4-3.2-10.2-5.3-16.9-6.5C269.8,332.5,267.8,332.4,265.9,332.4z"/>
</g>
<g>
	<path class="st0" d="M198.5,117.9L198.5,117.9c0.2,1.9,0.3,3.7,1.1,5.3c2.9,6,10.5,7.6,16.1,9.4c5.6,1.8,11.3,6.5,15.6,10.3
		c-0.5-0.3,11.8-7.1,12.9-7.4c4.4-1.6,8.4-3.1,11.6-6.6c3.7-4,6.1-9,7.9-14.2c6.1-16.9,2.1-41.8-8.4-56.6
		c-6.9-9.8-19-16.6-30.8-14.7C189.1,49.6,195.9,91.2,198.5,117.9z"/>
	<path d="M231.6,144c-0.3,0-0.5-0.2-0.8-0.3l0,0l0,0l0,0c-4.4-3.9-9.8-8.4-15.2-10c-0.6-0.2-1.1-0.3-1.8-0.5
		c-5.5-1.6-12.3-3.5-15-9.4c-1-1.9-1.1-4-1.3-5.6V118c-0.2-1.6-0.3-3.4-0.5-5.2c-3.1-27.3-6.9-64.7,27.7-70.5
		c11.3-1.9,24.2,4.2,31.9,15c11,15.3,14.7,40.6,8.5,57.6c-2.3,6.3-4.8,11-8.2,14.5c-3.4,3.7-7.4,5.2-11.8,6.8l-0.3,0.2
		c-1.1,0.3-10.8,5.8-12.4,6.9l-0.2,0.2C232.2,143.8,231.9,144,231.6,144z M199.6,117.9c0.2,1.6,0.3,3.4,1.1,4.8
		c2.4,4.8,8.4,6.6,13.5,8.2c0.6,0.2,1.3,0.3,1.8,0.5c5.5,1.6,11,6.1,15.3,10c3.4-2.6,12.4-6.9,12.6-7.1l0.3-0.2
		c4.2-1.6,7.9-2.9,10.8-6.1c3.1-3.4,5.6-7.9,7.7-13.9c6-16.3,2.3-40.6-8.2-55.5c-7.3-10.2-19.2-16-29.7-14.2
		c-32.4,5.5-28.7,41.6-26,68.1C199.3,114.3,199.5,116.1,199.6,117.9C199.6,117.7,199.6,117.7,199.6,117.9h-1.1H199.6z"/>
</g>
<g>
	<path class="st3" d="M216.2,118.2c-0.2,0-0.3,0-0.3,0c-2.7-1-5.6-1.9-8.5-2.7c-0.6-0.2-1-0.8-0.8-1.5c0.2-0.6,0.8-1,1.5-0.8
		c2.9,0.8,6,1.8,8.7,2.7c0.6,0.2,1,1,0.6,1.5C217.2,118,216.7,118.2,216.2,118.2z"/>
</g>
<g>
	<path class="st3" d="M224.9,130.8c-7.4,0-14.8-2.6-20.6-7.3c-0.5-0.5-0.6-1.1-0.2-1.6c0.3-0.5,1.1-0.6,1.6-0.2
		c6.3,5,14.7,7.4,22.7,6.5c0.6,0,1.3,0.3,1.3,1s-0.3,1.3-1,1.3C227.5,130.6,226.2,130.8,224.9,130.8z"/>
</g>
<g>
	<path class="st3" d="M225.9,113.2c-5.2,0-10.5-0.8-15.5-2.6c-0.6-0.2-1.3-0.5-1.8-0.6c-1.8-0.6-3.4-1.3-5.2-1.6
		c-0.6-0.2-1.1-0.6-1-1.3c0.2-0.6,0.6-1.1,1.3-1c1.9,0.3,3.7,1,5.5,1.6c0.6,0.2,1.1,0.5,1.8,0.6c5.8,2.1,12.1,2.7,18.2,2.3
		c0.6,0,1.1,0.5,1.3,1.1c0.2,0.6-0.5,1.1-1.1,1.3C228.3,113.2,227.2,113.2,225.9,113.2z"/>
</g>
<g>
	<path class="st0" d="M270.9,29.2c0.2,1.8,0.2,3.5,0,5.3c-0.2,1.5-1,3.7-0.5,5c0.5,1.6,2.6,3.4,3.4,5c1,1.6,1.6,3.4,2.6,5
		c1.9,3.7,4.2,7.1,6.3,10.6c3.1,5,5,10.5,5.8,16.1s1.1,11.9-0.6,17.4c-1.1,3.4-4.5,5.5-7.3,7.7c-0.3,0.3-0.6,0.6-1,1
		c-0.2,0.5-0.2,1-0.3,1.5c-0.2,3.7-0.3,7.6-1.1,11.3c-0.8,3.5-3.5,6.5-6.8,8.1c-3.2,1.6-6.9,2.3-10.5,2.9c-6,1-11.9,1.9-17.9,1
		c-6-0.8-11.9-3.7-15.2-8.7c-1.6-2.4-2.4-5.3-3.7-7.9c-1.8-3.7-4.5-6.9-7.6-9.5c-2.6-2.1-5.5-3.5-8.1-5.6c-3.5-2.9-4.5-6.3-6.1-10.3
		c-3.1-8.1-4.7-16.8-4.8-25.5c-0.2-11.3,5.2-22.3,11.5-31.3c2.9-4,5.8-8.4,10.2-11.3c6.5-4.4,14.8-3.5,21.5,0.2
		c0.8,0.5,1.8,1,2.6,1.6c1.1,1,1.1,1.6,2.7,1.8c1.6,0.2,3.1,0.2,4.5,0.3c0.2,0,0.3,0,0.5,0c0.5-0.2,0.6-0.6,0.8-1
		c0.5-1.3,1.9-2.1,3.2-2.7c1.1-0.5,2.3-0.2,3.4-0.2c2.6,0.2,5.2,0.6,7.4,2.1c2.1,1.5,3.7,3.7,4.5,6.1
		C270.6,26.4,270.7,27.9,270.9,29.2z"/>
	<path d="M248,128.7c-1.8,0-3.4-0.2-5.2-0.3c-6.9-1-12.9-4.4-16-9.2c-1.1-1.6-1.8-3.4-2.6-5.2c-0.5-1-0.8-1.9-1.3-2.9
		c-1.8-3.5-4.2-6.6-7.3-9c-1.3-1-2.6-1.8-3.9-2.7c-1.5-1-2.9-1.9-4.2-3.1c-3.5-2.9-4.8-6.1-6.1-9.8l-0.5-1.1
		c-3.1-8.2-4.8-16.9-4.8-25.8c-0.2-10,3.9-20.6,11.6-31.9c2.7-4,6-8.5,10.5-11.6c6.3-4.2,15.2-4.2,22.6,0.2c1,0.5,1.9,1.1,2.7,1.8
		c0.3,0.3,0.6,0.6,1,1c0.5,0.5,0.5,0.6,1.1,0.6h1.1c1.1,0,2.3,0.2,3.5,0.3v-0.2l0.2-0.2c0.5-1.3,1.8-2.4,3.7-3.2
		c1.1-0.5,2.3-0.5,3.2-0.3c0.2,0,0.5,0,0.6,0c2.1,0.2,5.3,0.5,8.1,2.3c2.3,1.5,3.9,3.9,5,6.6c0.5,1.3,0.8,2.7,1,4.2l0,0
		c0.2,1.8,0.2,3.5,0,5.6c0,0.5-0.2,1.1-0.3,1.8c-0.2,1-0.5,2.1-0.3,2.7s1,1.6,1.8,2.4c0.6,0.8,1.3,1.5,1.6,2.3
		c0.5,0.8,1,1.8,1.3,2.7c0.3,0.8,0.8,1.5,1.1,2.3c1.6,3.1,3.4,6,5.3,8.9l1,1.6c3.1,5,5,10.6,6,16.6c1.1,7.4,0.8,13.4-0.8,18.1
		c-1.1,3.2-3.9,5.3-6.5,7.4c-0.5,0.3-0.8,0.6-1.1,1c-0.2,0.2-0.5,0.3-0.6,0.6c-0.2,0.2-0.2,0.6-0.2,1c-0.2,4-0.3,7.9-1.1,11.5
		c-0.8,3.5-3.4,6.8-7.4,8.9c-3.5,1.8-7.6,2.4-10.8,3.1C256.6,128,252.2,128.7,248,128.7z M229,15.1c-3.4,0-6.8,1-9.5,2.7
		c-4.2,2.7-7.1,7.1-9.8,11c-7.6,11-11.3,21.1-11.3,30.6c0.2,8.5,1.6,16.9,4.7,25l0.3,1.1c1.3,3.5,2.4,6.3,5.3,8.9
		c1.3,1,2.7,1.9,4,2.9c1.3,0.8,2.7,1.8,4,2.7c3.4,2.6,6.1,6.1,7.9,9.8c0.5,1,1,1.9,1.3,3.1c0.8,1.8,1.5,3.4,2.4,4.8
		c2.7,4.4,8.1,7.3,14.4,8.2c5.6,0.8,11.3,0,17.6-1c3.9-0.6,7.3-1.3,10.2-2.7c3.2-1.6,5.6-4.4,6.3-7.3c0.8-3.5,1-7.3,1.1-11.1
		c0-0.5,0-1.1,0.3-1.9c0.3-0.6,0.8-1.1,1.3-1.3c0.5-0.3,0.8-0.6,1.3-1c2.4-1.8,4.8-3.7,5.6-6.3c1.5-4.4,1.8-9.8,0.6-16.9
		c-0.8-5.6-2.7-11-5.6-15.8l-1-1.6c-1.8-2.9-3.7-6-5.3-9c-0.5-0.8-0.8-1.6-1.1-2.4c-0.5-0.8-0.8-1.8-1.3-2.6
		c-0.3-0.5-0.8-1.1-1.5-1.8c-1-1.1-1.8-2.3-2.1-3.4s0-2.6,0.2-3.9c0.2-0.5,0.2-1.1,0.3-1.5c0.2-1.9,0.2-3.5,0-5.2l0,0
		c-0.2-1.3-0.5-2.6-0.8-3.7c-0.8-2.4-2.3-4.4-4-5.5c-1.6-1.1-3.9-1.6-6.8-1.8c-0.3,0-0.5,0-0.8,0c-0.8,0-1.6-0.2-2.1,0.2
		c-1.5,0.6-2.3,1.5-2.6,2.1v0.2c-0.2,0.5-0.5,1.3-1.5,1.6c-0.5,0.2-0.8,0-1,0c-1.1-0.2-2.3-0.3-3.4-0.3h-1.1
		c-1.6-0.2-2.1-0.8-2.7-1.5c-0.2-0.2-0.3-0.5-0.6-0.6c-0.6-0.5-1.6-1.1-2.3-1.5C236.4,16.1,232.7,15.1,229,15.1z"/>
</g>
<g>
	<path d="M261.1,103.5c-1.3,0-2.6,0-3.9-0.2c-11.6-0.8-22.6-2.3-30.3-11.1c-2.6-3.1-4.5-6.6-6.3-10.2c-2.1-4-4-7.7-7.1-11
		c-1.8-1.9-3.4-5-1.9-7.7c0.3-0.5,1-0.8,1.6-0.5c0.5,0.3,0.8,1,0.5,1.6c-0.8,1.5,0.2,3.5,1.6,4.8c3.2,3.4,5.5,7.6,7.6,11.5
		c1.8,3.5,3.5,6.8,6,9.7c7.1,8.2,17.1,9.7,28.5,10.3c3.4,0.2,6.8,0,10,0c1.5,0,2.7,0,3.9,0c3.9,0,6.8,0,10.8-2.3
		c0.6-0.3,1.3-0.2,1.6,0.5c0.3,0.6,0.2,1.3-0.5,1.6c-4.5,2.4-7.9,2.4-11.9,2.4c-1.1,0-2.4,0-3.9,0
		C265.4,103.5,263.3,103.5,261.1,103.5z"/>
</g>
<g>
	<path d="M241.1,42.5c-0.2,0-0.3,0-0.5-0.2c-0.6-0.3-0.8-1-0.5-1.6c5.5-11.3,19.8-7.6,24.2-6.1c2.4,0.8,5,3.1,7.1,4.8l1,0.8
		c0.5,0.5,0.5,1.1,0.2,1.6c-0.5,0.5-1.1,0.5-1.6,0.2l-1-0.8c-1.9-1.6-4.4-3.7-6.3-4.4c-3.9-1.3-16.6-4.7-21.3,5
		C241.9,42.2,241.6,42.5,241.1,42.5z"/>
</g>
<g>
	<path d="M259.9,81.9c-0.3,0-0.8-0.2-1-0.5c-0.8-1.3-2.1-2.1-3.5-2.4c-0.6-0.2-1-0.8-1-1.5s0.8-1,1.5-1c2.1,0.5,3.9,1.8,5.2,3.5
		c0.3,0.5,0.2,1.3-0.3,1.6C260.3,81.7,260.1,81.9,259.9,81.9z"/>
</g>
<g>
	<path d="M277.5,80.3c-0.3,0-0.5,0-0.6-0.3c-0.5-0.3-0.6-1.1-0.2-1.6c1.1-1.5,2.7-2.4,4.5-2.6c0.6-0.2,1.3,0.3,1.3,1
		c0,0.6-0.3,1.3-1,1.3c-1.1,0.2-2.3,0.8-2.9,1.6C278.3,80.1,278,80.3,277.5,80.3z"/>
</g>
<g>
	<circle cx="234" cy="30.4" r="2.1"/>
</g>
<g>
	<circle cx="260.6" cy="30.4" r="1.9"/>
</g>
<g>
	<g>
		<path class="st9" d="M227.5,24.2c-0.3-0.2-0.8-0.3-1.1,0c-0.2,0.2-0.3,0.3-0.3,0.5c-1.3,3.5,0.6,7.6,3.9,9.4
			c3.4,1.8,7.9,1.1,10.5-1.6c3.1-3.1-0.8-3.9-3.2-4.8C234.1,26.6,230.7,25.4,227.5,24.2z"/>
		<path d="M234.1,36.1c-1.6,0-3.2-0.3-4.7-1.1c-3.9-2.1-5.8-6.8-4.4-10.6c0-0.2,0.3-0.6,0.6-1c0.8-0.5,1.6-0.2,1.9,0l0,0
			c3.2,1.1,6.6,2.4,9.8,3.5l0.8,0.3c1.8,0.6,3.9,1.3,4.2,2.9c0.2,1-0.2,2.1-1.5,3.2C239.5,35.1,236.7,36.1,234.1,36.1z M227,25.1
			L227,25.1c-1.1,2.9,0.5,6.6,3.5,8.2c2.9,1.6,7.1,1,9.4-1.5c0.6-0.6,1-1.1,0.8-1.3c-0.2-0.6-1.9-1.1-2.9-1.6l-0.8-0.3
			c-3.2-1.1-6.6-2.4-9.8-3.5C227,25.1,227,25.1,227,25.1z"/>
	</g>
	<g>
		<circle cx="233.7" cy="30.8" r="4.2"/>
	</g>
	<g>
		<path class="st9" d="M264.5,21.9c0.3-0.2,0.6-0.5,1-0.3c0.2,0,0.3,0.3,0.5,0.5c2.1,3.1,1.1,7.6-1.6,10c-2.4,2.1-5.5,2.1-8.2,0.3
			c-0.8-0.5-3.5-2.6-2.1-3.7C257.4,26.2,261.1,24.2,264.5,21.9z"/>
		<path d="M260.1,34.6c-1.5,0-3.1-0.5-4.5-1.5c-0.5-0.3-2.9-1.9-2.9-3.5c0-0.6,0.2-1.3,0.8-1.6c2.3-1.8,4.8-3.4,7.3-5
			c1.1-0.6,2.1-1.3,3.2-2.1l0,0c0.3-0.2,1.1-0.6,1.9-0.3c0.5,0.2,0.8,0.5,1,0.8c2.3,3.4,1.5,8.4-1.8,11.3
			C263.7,34,261.9,34.6,260.1,34.6z M264.9,22.7c-1.1,0.6-2.1,1.5-3.2,2.1c-2.4,1.5-4.8,3.1-7.1,4.8c0,0.3,1,1.5,2.1,2.1
			c2.4,1.6,5,1.5,6.9-0.3c2.6-2.3,3.2-6.3,1.5-8.7l0,0C265.1,22.5,265.1,22.5,264.9,22.7L264.9,22.7z"/>
	</g>
	<g>
		<circle cx="260.1" cy="29.6" r="4.2"/>
	</g>
</g>
<g>
	<g>
		<path class="st10" d="M235.1,298.5l-2.6-0.5c-3.4-0.6-5.6-4-5-7.4l32.6-165c0.6-3.4,4-5.6,7.4-5l2.6,0.5c3.4,0.6,5.6,4,5,7.4
			l-32.6,165C241.7,296.9,238.5,299.1,235.1,298.5z"/>
		<path d="M236.2,299.8c-0.5,0-1,0-1.5-0.2l-2.6-0.5c-1.9-0.3-3.7-1.5-4.7-3.2s-1.5-3.7-1.1-5.6l32.6-165c0.8-4,4.7-6.6,8.7-5.8
			l2.6,0.5c1.9,0.3,3.7,1.5,4.7,3.2c1.1,1.6,1.5,3.7,1.1,5.6l-32.6,165C242.8,297.2,239.8,299.8,236.2,299.8z M235.3,297.2
			c2.7,0.5,5.5-1.3,6-4l32.6-165c0.3-1.3,0-2.7-0.8-3.9c-0.8-1.1-1.9-1.9-3.2-2.1l-2.6-0.5c-2.7-0.5-5.5,1.3-6,4l-32.6,165
			c-0.3,1.3,0,2.7,0.8,3.9c0.8,1.1,1.9,1.9,3.2,2.1L235.3,297.2z"/>
	</g>
	<g>
		<path class="st11" d="M195.8,327.7c0,0-4.4,9.5-5,22.4c-0.6,12.9-9,14.5-9,14.5s-1,2.9,5.8,6.1c6.8,3.1,54.5,8.2,64.4,3.1
			c9.8-5.2,5.5-43.1,5.5-43.1L195.8,327.7z"/>
		<path d="M234.3,377.2c-18.1,0-42.6-3.2-47.3-5.5c-7.4-3.4-6.6-7.1-6.5-7.4c0.2-0.5,0.5-0.6,1-0.8c0.3,0,7.6-1.8,8.2-13.4
			c0.6-12.9,4.8-22.4,5.2-22.7c0.2-0.5,0.6-0.6,1.1-0.6l61.6,3.1c0.6,0,1,0.5,1.1,1c0.5,4,4,38.9-6.1,44.2
			C249.1,376.4,242.4,377.2,234.3,377.2z M182.8,365.4c0.3,0.8,1.3,2.4,5.2,4.2c6.9,3.2,54.2,7.9,63.4,3.2c7.3-3.9,6.1-30,5-41
			l-59.8-3.1c-1,2.4-4,10.6-4.5,21.3C191.4,361.2,185.3,364.5,182.8,365.4z"/>
	</g>
	<g>
		<path class="st12" d="M240.7,306.9l-16.6-3.2l1.3-15.3c0.2-2.3,2.4-3.9,5-3.4l11.8,2.3c2.4,0.5,4,2.7,3.2,5L240.7,306.9z"/>
		<path d="M240.7,308h-0.2l-16.6-3.2c-0.6-0.2-1-0.6-1-1.3l1.3-15.3c0.2-1.3,0.8-2.6,1.9-3.4c1.3-1,2.9-1.3,4.4-1l11.8,2.3
			c1.6,0.3,2.9,1.3,3.7,2.6c0.6,1.3,0.8,2.6,0.5,3.9l-4.7,14.7C241.7,307.7,241.2,308,240.7,308z M225.3,302.7l14.7,2.9l4.4-13.7
			c0.2-0.6,0.2-1.5-0.3-1.9c-0.5-0.8-1.3-1.3-2.1-1.5l-11.8-2.3c-1-0.2-1.8,0-2.6,0.5c-0.6,0.5-1,1.1-1,1.8L225.3,302.7z"/>
	</g>
	<g>
		<path class="st12" d="M242,307.2l-9.7-1.9l-9.7-1.9c0,0-21.5-1.3-29.4,23.4c0,0,13.2,4.5,33.2,8.4c20,4,33.9,4.8,33.9,4.8
			C262.4,314,242,307.2,242,307.2z"/>
		<path d="M260.4,341.2C260.4,341.2,260.3,341.2,260.4,341.2c-0.2,0-14.2-1-34.2-4.8c-19.8-3.9-33.2-8.4-33.4-8.5
			c-0.6-0.2-1-0.8-0.8-1.5c8.2-25.3,30.3-24.2,30.6-24.2l19.5,3.9h0.2c0.2,0,21.1,7.6,19,34C261.6,340.7,260.9,341.2,260.4,341.2z
			 M194.8,326.1c3.5,1.1,15.5,4.8,31.9,8.1s28.9,4.4,32.6,4.7c1.1-23.2-16.1-30-17.6-30.5l-19.2-3.9
			C221.9,304.5,202.7,303.7,194.8,326.1z"/>
	</g>
	<g>
		<path class="st13" d="M197.8,371.7c-0.2,0-0.5,0-0.6-0.2c-0.5-0.3-0.6-1.1-0.3-1.6c4.4-6.6,6.3-14.2,8.2-22.7
			c0.2-0.6,0.8-1,1.5-0.8c0.6,0.2,1,0.8,0.8,1.5c-1.9,8.7-4,16.6-8.5,23.4C198.7,371.6,198.2,371.7,197.8,371.7z"/>
	</g>
	<g>
		<path class="st13" d="M210.1,373.8c-0.2,0-0.3,0-0.5,0c-0.6-0.2-1-1-0.6-1.5c0.3-1,0.6-1.8,1.1-2.7c1.1-2.9,2.4-5.5,2.4-8.4
			c0-0.6,0.5-1.1,1.1-1.1c0.6,0,1.1,0.5,1.1,1.1c0,3.4-1.3,6.5-2.6,9.4c-0.3,0.8-0.8,1.8-1.1,2.6
			C210.9,373.7,210.6,373.8,210.1,373.8z"/>
	</g>
	<g>
		<path class="st13" d="M221.1,374.5c-0.2,0-0.5,0-0.6-0.2c-0.5-0.3-0.8-1.1-0.3-1.6c1.6-2.7,3.4-5.8,4.2-8.9
			c0.6-2.4,0.6-4.7,0.6-7.3c0-1.3,0-2.4,0.2-3.7c0-0.6,0.6-1.1,1.3-1.1s1.1,0.6,1.1,1.3c-0.2,1.1-0.2,2.4-0.2,3.5
			c0,2.6-0.2,5.2-0.8,7.7c-0.8,3.5-2.7,6.6-4.5,9.5C221.7,374.1,221.4,374.5,221.1,374.5z"/>
	</g>
	<g>
		<path class="st13" d="M236.4,363.5c-0.3,0-0.6-0.2-0.8-0.3c-0.5-0.5-0.5-1.3,0-1.6c0.3-0.2,0.3-1,0.3-1.3l0.3-6.6
			c0-0.6,0.6-1.1,1.3-1.1c0.6,0,1.1,0.6,1.1,1.3l-0.3,6.6c0,0.8-0.2,2.1-1,2.9C237,363.3,236.7,363.5,236.4,363.5z"/>
	</g>
</g>
<g>
	<g>
		<path class="st0" d="M244.6,218.2c-9.2,0.5-18.5,1.8-27.4,3.9c-9.7,2.3-19.2,5.5-29.2,5.8c-9.8,0.3-20.6-3.1-26.3-11.1
			c-4-6-4.8-13.4-6.6-20.3c-1.3-5-3.1-10.6-0.8-15.3c0.8-1.8,2.4-5.3,4.2-5.8c3.9-1.1,7.7-2.1,11.8-1.9c4,0,8.1,1.3,11,4.2
			c3.4,3.4,4.5,8.5,4.7,13.4c0.2,4.8-0.8,9.7-0.5,14.5c4.7,0.6,9.8,1,14.5,1.6c6.1,0.8,12.4,1.6,18.5,1c7.1-5.2,15.8-7.9,24.5-7.7
			c0.8,0,1.8,0,2.4,0.6c0.6,0.5,1,1.3,1.1,2.1C248.2,207.4,245.7,213.3,244.6,218.2z"/>
		<path d="M186.7,229c-11.3,0-21-4.4-26-11.8c-3.4-4.8-4.5-10.5-5.8-16.1c-0.3-1.5-0.6-3.1-1-4.5l-0.3-1.5c-1.1-4.7-2.6-10-0.3-14.7
			l0.2-0.2c1.3-2.7,2.7-5.6,4.8-6.3c3.9-1.1,7.9-2.1,12.1-1.9c4.8,0.2,9,1.6,11.8,4.5c3.2,3.1,5,8.1,5,14.2c0,2.3-0.2,4.5-0.3,6.6
			c-0.2,2.3-0.3,4.7-0.3,6.9c2.1,0.3,4.2,0.5,6.3,0.6c2.4,0.2,5,0.5,7.3,0.8c6,0.8,11.9,1.6,17.9,1c7.3-5.2,16-8.1,25-7.9
			c1,0,2.1,0.2,3.1,0.8c1,0.6,1.3,1.6,1.6,2.6c1.3,4.2-0.2,9-1.3,13.4c-0.3,0.8-0.5,1.8-0.6,2.6c-0.2,0.5-0.5,0.8-1.1,0.8
			c-9.2,0.5-18.4,1.8-27.3,3.9c-2.4,0.5-4.7,1.1-6.9,1.8c-7.3,1.9-14.7,3.9-22.4,4C187.5,229,187.2,229,186.7,229z M169.9,174.5
			c-3.9,0-7.6,1-11.1,1.9c-1.3,0.3-2.7,3.5-3.4,5l-0.2,0.2c-1.8,3.9-0.6,8.5,0.5,13.1l0.3,1.5c0.3,1.5,0.6,3.1,1.1,4.7
			c1.1,5.3,2.4,10.8,5.3,15.3c4.8,6.9,14.2,11,25.3,10.6c7.4-0.2,14.7-2.1,21.8-4c2.4-0.6,4.7-1.3,7.1-1.8
			c8.9-2.1,17.9-3.4,26.8-3.9c0.2-0.6,0.3-1.1,0.5-1.8c1.1-4,2.4-8.5,1.5-12.1c-0.2-0.6-0.5-1.1-0.8-1.5c-0.3-0.3-1.1-0.3-1.6-0.3
			c-8.5-0.2-16.9,2.6-23.9,7.6c-0.2,0.2-0.3,0.2-0.6,0.2c-6.3,0.6-12.7-0.2-18.9-1c-2.3-0.3-4.8-0.5-7.3-0.8c-2.4-0.2-5-0.5-7.3-0.8
			c-0.5,0-1-0.5-1-1.1c-0.2-2.7,0-5.5,0.3-8.2c0.2-2.1,0.3-4.4,0.3-6.5c0-3.9-0.8-9.2-4.4-12.6c-2.4-2.4-6-3.7-10.2-3.7
			C170.3,174.5,170.1,174.5,169.9,174.5z M244.6,218.2L244.6,218.2L244.6,218.2z"/>
	</g>
	<g>
		<path class="st14" d="M248,191.4c3.2-1.9,7.4-2.3,11-1.1c1,0.3,1.9,0.8,2.3,1.8c0.2,0.8-0.2,1.6-0.8,2.3c-0.6,0.6-1.3,1-1.9,1.5
			c-3.1,2.3-4.2,6.3-6.5,9.4c-0.5,0.6-1.1,1.3-1.9,1.6c-0.8,0.3-1.8,0.3-2.6,0c-2.7-0.8-5.3-4.2-5.5-7.1
			C241.7,196.2,245.4,192.9,248,191.4z"/>
		<path d="M248.7,208c-0.5,0-1.1,0-1.6-0.2c-3.2-0.8-6.3-4.8-6.3-8.2c0-3.9,4-7.7,6.8-9.2l0,0c3.5-1.9,8.1-2.4,11.9-1.3
			c1.8,0.5,2.7,1.5,3.1,2.7c0.3,1.1-0.2,2.4-1.1,3.4c-0.5,0.5-1,0.8-1.5,1.1c-0.2,0.2-0.5,0.3-0.6,0.5c-1.6,1.3-2.7,3.1-3.9,5.2
			c-0.8,1.3-1.5,2.7-2.4,4c-0.5,0.6-1.3,1.6-2.4,1.9C249.8,208,249.1,208,248.7,208z M248.7,192.4c-2.4,1.3-5.6,4.5-5.6,7.3
			c0,2.4,2.4,5.5,4.5,6c0.5,0.2,1.3,0.3,1.9,0c0.5-0.2,1-0.6,1.5-1.3c0.8-1.1,1.6-2.3,2.3-3.5c1.1-2.1,2.4-4.4,4.5-5.8
			c0.3-0.2,0.5-0.3,0.8-0.5c0.5-0.3,0.8-0.5,1.1-0.8s0.6-0.8,0.5-1.1c-0.2-0.3-0.6-0.8-1.5-1C255.4,190.3,251.6,190.6,248.7,192.4
			L248.7,192.4z"/>
	</g>
	<g>
		<path class="st14" d="M253,198.7c3.7,0,7.6,1.6,10.2,4.4c0.6,0.8,1.3,1.8,1.1,2.7c-0.2,0.8-1,1.3-1.8,1.6
			c-0.8,0.2-1.6,0.2-2.4,0.3c-3.7,0.5-6.6,3.5-10.2,5c-0.8,0.3-1.6,0.6-2.6,0.5c-0.8-0.2-1.6-0.6-2.3-1.3c-2.1-1.9-2.7-6.3-1.3-8.9
			C245.1,199.9,249.9,198.7,253,198.7z"/>
		<path d="M247.5,214.1c-0.2,0-0.3,0-0.6,0c-1-0.2-2.1-0.6-2.9-1.6c-2.4-2.4-3.1-7.3-1.5-10.3c1.8-3.5,7.3-4.8,10.5-4.8l0,0
			c4,0,8.2,1.8,11,4.7c1.3,1.3,1.6,2.6,1.3,3.9c-0.3,1.1-1.3,1.9-2.6,2.4c-0.6,0.2-1.3,0.2-1.8,0.3c-0.3,0-0.5,0-0.8,0
			c-2.1,0.3-3.9,1.5-5.8,2.6c-1.3,0.8-2.6,1.6-4,2.3C249.5,213.8,248.5,214.1,247.5,214.1z M253,199.8L253,199.8
			c-2.7,0-7.1,1.1-8.4,3.5c-1.1,2.1-0.6,5.8,1.1,7.4c0.3,0.3,1,0.8,1.6,1c0.5,0,1.1,0,1.9-0.3c1.3-0.5,2.4-1.3,3.7-2.1
			c2.1-1.3,4.2-2.6,6.8-2.9c0.3,0,0.6,0,1-0.2c0.5,0,1,0,1.5-0.2c0.5-0.2,1-0.5,1-0.6c0.2-0.3-0.2-1-0.8-1.6
			C259.8,201.2,256.4,199.8,253,199.8z"/>
	</g>
	<g>
		<path class="st14" d="M256.2,207.2c3.5,1.5,6.3,4.4,7.6,7.9c0.3,1,0.5,2.1-0.2,2.9c-0.5,0.6-1.5,0.8-2.3,0.6
			c-0.8-0.2-1.6-0.5-2.4-0.6c-3.7-1.1-7.6,0.6-11.3,0.5c-0.8,0-1.8-0.2-2.6-0.6c-0.8-0.5-1.3-1.3-1.6-2.1c-1.1-2.6,0-6.9,2.3-8.7
			C248.5,205.3,253.5,206.1,256.2,207.2z"/>
		<path d="M261.9,219.9c-0.2,0-0.5,0-0.6,0c-0.6-0.2-1.3-0.3-1.8-0.5c-0.3-0.2-0.5-0.2-0.8-0.3c-1.9-0.6-4.2-0.2-6.5,0.2
			c-1.5,0.2-3.1,0.5-4.7,0.5c-0.8,0-2.1-0.2-3.1-0.8c-1-0.5-1.6-1.5-2.1-2.6c-1.3-3.1,0-7.9,2.7-10c3.1-2.4,8.5-1.5,11.5-0.3
			c3.7,1.6,6.8,4.8,8.2,8.7c0.6,1.6,0.5,3.1-0.3,4C264,219.5,263,219.9,261.9,219.9z M256.4,216.6c1,0,2.1,0.2,3.1,0.3
			c0.3,0.2,0.6,0.2,0.8,0.3c0.5,0.2,1,0.3,1.3,0.3c0.5,0,1,0,1.1-0.3c0.2-0.3,0.2-1-0.2-1.8c-1.1-3.2-3.7-6-6.9-7.3l0,0
			c-2.4-1-6.9-1.8-9.2,0c-1.9,1.5-2.9,5.2-1.9,7.3c0.2,0.5,0.5,1.1,1.1,1.5c0.5,0.3,1.1,0.3,1.9,0.5c1.5,0,2.7-0.2,4.2-0.5
			C253.5,216.7,254.9,216.6,256.4,216.6z"/>
	</g>
	<g>
		<path class="st1" d="M158,144.8c-7.7,10-10.6,23.2-9.4,35.6c6.8,0.3,13.7-0.3,20.5,0.5c6.9,0.8,12.9,3.4,18.2,7.9
			c4.4-3.9,2.9-19,3.1-24.7c0.2-9.2-0.3-18.4-2.3-27.4c-1.1-4.8-0.8-7.3-5.6-6.9c-3.1,0.2-6.8,2.3-9.4,3.5
			C167.7,136.1,161.9,140,158,144.8z"/>
		<path d="M187.5,190.3l-0.8-0.6c-5.2-4.4-11-6.8-17.7-7.6c-4.2-0.5-8.5-0.5-12.7-0.5c-2.6,0-5.2,0-7.6,0h-1l-0.2-1
			c-1.6-13.4,1.9-26.8,9.5-36.5l0,0c3.2-4.2,8.4-8.1,15.5-11.8l1-0.5c2.6-1.5,6-3.1,8.9-3.2c5.3-0.3,5.8,2.4,6.5,6
			c0.2,0.6,0.2,1.3,0.3,1.9c1.8,8.1,2.6,16.9,2.3,27.6c0,1.1,0,2.6,0,4.2c0.2,7.6,0.5,17.9-3.5,21.3L187.5,190.3z M159.1,179.3
			c3.4,0,6.8,0,10.2,0.5c6.8,0.8,12.7,3.2,18.1,7.4c2.4-3.5,2.3-12.9,2.1-18.7c0-1.8-0.2-3.2,0-4.4c0.3-10.5-0.5-19.2-2.3-27.1
			c-0.2-0.6-0.3-1.3-0.5-1.9c-0.6-3.5-0.8-4.4-4-4.2c-2.4,0.2-5.5,1.8-7.9,3.1l-1,0.5c-6.8,3.5-11.6,7.1-14.7,11.1l0,0
			c-7.1,9-10.3,21.3-9.2,33.9c2.3,0,4.4,0,6.6,0C157.4,179.3,158.2,179.3,159.1,179.3z"/>
	</g>
	<g id="XMLID_175_">
		<g>
			<path class="st1" d="M193.5,135.3c-2.6,1.5-5.2,2.9-7.7,4.4c-4.7-5.2-15-9.7-15.6-9.8c2.4-1.1,4.8-2.1,7.3-2.7
				c3.2-1,5.5-1.8,8.2,0C188.5,129,190.9,132.7,193.5,135.3z"/>
			<path class="st2" d="M185.8,139.6c-3.1,1.8-6.1,3.4-9.4,5.2c-0.2,0.2-0.3,0.2-0.5,0.2c-0.3,0-0.6-0.2-1-0.5
				c-4.4-3.5-9.2-6.6-14.4-9c0.5,0.2,6.6-4.4,7.6-4.8c0.6-0.3,1.1-0.6,1.8-0.8l0,0L185.8,139.6z"/>
			<path d="M185.8,139.6l-15.6-9.8C170.8,130,181.1,134.5,185.8,139.6z"/>
		</g>
		<g>
			<g>
				<path d="M175.9,146.1c-0.6,0-1.3-0.5-1.5-0.6c-4.4-3.5-9-6.6-14.2-8.9c-0.6-0.3-0.8-1-0.5-1.6c0.2-0.3,0.5-0.6,1-0.6
					c0.6-0.3,2.9-1.9,4.4-2.9c1.6-1.1,2.6-1.8,2.9-1.9c0.3-0.2,0.8-0.3,1.1-0.5l0.6-0.3h0.2c2.3-1.1,4.8-1.9,7.3-2.7l0.8-0.2
					c2.9-0.8,5.5-1.6,8.4,0.5c1.9,1.3,3.5,3.2,5.2,5.2c1,1.1,1.9,2.3,2.9,3.2c0.3,0.3,0.3,0.6,0.3,1c0,0.3-0.3,0.6-0.6,0.8
					l-17.1,9.5C176.7,145.9,176.4,146.1,175.9,146.1L175.9,146.1z M163.2,135.4c4.5,2.3,8.7,5,12.6,8.2c0,0,0,0,0.2,0.2l0,0
					l15.6-8.9c-0.6-0.6-1.3-1.5-1.9-2.3c-1.5-1.8-3.1-3.7-4.7-4.8c-1.9-1.3-3.7-0.8-6.5,0l-0.8,0.2c-2.4,0.6-4.8,1.6-7.1,2.7h-0.2
					l-0.5,0.2c-0.3,0.2-0.6,0.3-1.1,0.5c-0.3,0.2-1.6,1-2.7,1.8C164.9,134.3,164,135,163.2,135.4z M161.2,134.5L161.2,134.5
					L161.2,134.5z M161.2,134.5L161.2,134.5L161.2,134.5z"/>
			</g>
			<g>
				<path d="M185.8,140.8c-0.3,0-0.6-0.2-0.8-0.3c-4.7-5.2-15-9.5-15.2-9.5c-0.6-0.3-0.8-1-0.6-1.5c0.3-0.6,1-0.8,1.5-0.6
					c0.2,0,11.1,4.7,16,10.2c0.5,0.5,0.3,1.3-0.2,1.6C186.2,140.6,186.1,140.8,185.8,140.8z"/>
			</g>
			<g>
				<path d="M185.8,140.8c-0.2,0-0.5,0-0.6-0.2l-15.6-9.8c-0.5-0.3-0.6-1-0.3-1.6c0.3-0.5,1-0.8,1.6-0.5l15.6,10
					c0.5,0.3,0.6,1.1,0.3,1.6C186.6,140.6,186.1,140.8,185.8,140.8z"/>
			</g>
		</g>
	</g>
	<g>
		<g>
			<path class="st5" d="M179.8,151.7c-9.5-3.5-10.5-8.9-10.5-8.9s-4.4,3.4-13.9,0c0,0-9.8,26.1,2.4,30.8
				C170.3,178,179.8,151.7,179.8,151.7z"/>
			<path d="M160.8,175.3c-1.1,0-2.3-0.2-3.4-0.6c-2.6-1-4.4-2.7-5.5-5.3c-4.2-9.4,2.1-26.3,2.4-27.1c0.2-0.6,1-1,1.5-0.6
				c8.7,3.2,12.7,0.3,12.7,0.2c0.3-0.3,0.8-0.3,1.1-0.2c0.3,0.2,0.6,0.5,0.8,0.8c0,0,1.1,4.8,9.8,8.1c0.6,0.2,1,1,0.6,1.5
				c-0.3,0.6-6.5,17.7-15.8,22.1C163.7,175,162.2,175.3,160.8,175.3z M156.1,144.3c-1.3,3.9-5.3,16.9-2.1,24.2c1,1.9,2.3,3.4,4.2,4
				s3.9,0.6,5.8-0.3c7.1-3.4,12.6-16,14.2-19.7c-6.3-2.6-8.7-6-9.7-7.9C166.6,145.3,162.5,146.4,156.1,144.3z"/>
		</g>
		<g>
			<g>
				<path class="st6" d="M166.7,163.7c-1,2.6-3.2,2.4-5.8,1.6s-4.4-2.3-3.4-5c1-2.6,3.9-4,6.3-3.1
					C166.2,158.2,167.7,161.1,166.7,163.7z"/>
			</g>
			<g>
				<g>
					
						<ellipse transform="matrix(0.346 -0.9382 0.9382 0.346 -41.5876 249.8214)" class="st6" cx="158.4" cy="154.7" rx="2.1" ry="1.6"/>
				</g>
				<g>
					
						<ellipse transform="matrix(0.346 -0.9382 0.9382 0.346 -38.1795 263.0258)" class="st6" cx="169.6" cy="158.9" rx="2.1" ry="1.6"/>
				</g>
			</g>
			<g>
				<g>
					
						<ellipse transform="matrix(0.346 -0.9382 0.9382 0.346 -37.251 253.0034)" class="st6" cx="162.9" cy="153.2" rx="2.1" ry="1.6"/>
				</g>
				<g>
					
						<ellipse transform="matrix(0.346 -0.9382 0.9382 0.346 -35.8579 258.0881)" class="st6" cx="167.2" cy="154.8" rx="2.1" ry="1.6"/>
				</g>
			</g>
		</g>
	</g>
</g>
<g>
	<g>
		<path class="st0" d="M309,176.6c4.4,3.7,8.1,8.2,10.8,13.1c2.4,4.5,4.5,10.6,1,14.7c-1.3,1.5-3.2,2.1-5.3,1.9
			c-2.1,0-4-0.8-5.8-1.6c-7.3-3.4-13.9-9.4-18.5-15.3c-4.8-6.1-10-11.9-13.9-18.7c-0.3-0.6-0.6-1.3-1.3-1.8c-0.5-0.5-1.1-0.6-1.8-1
			c-5.8-2.3-14.8-6.6-18.5-11.9c-3.4-5,3.9-12.9,8.2-14.8c6.3-2.9,15.3,6.3,19,10.8c2.7,3.4,4.8,7.1,7.7,10.2
			c4.8,5.2,11.5,8.5,17.1,13.1C308.2,175.8,308.6,176.2,309,176.6z"/>
		<path d="M315.7,207.5c-0.2,0-0.3,0-0.3,0c-1.9,0-3.9-0.6-6.3-1.8c-6.6-3.1-13.5-8.7-19-15.6c-1-1.1-1.9-2.3-2.7-3.4
			c-3.9-4.8-8.1-9.8-11.1-15.5c-0.3-0.6-0.6-1.1-1-1.5c-0.3-0.3-0.8-0.5-1.3-0.6c-5.5-2.3-15.2-6.6-19-12.4
			c-1.1-1.6-1.3-3.7-0.6-5.8c1.3-4.4,5.8-9,9.4-10.6c7.6-3.4,17.4,7.6,20.3,11.1c1.1,1.5,2.3,2.9,3.4,4.5c1.5,1.9,2.7,3.9,4.5,5.6
			c2.9,3.2,6.8,5.8,10.3,8.2c2.3,1.5,4.5,3.1,6.6,4.7c0.5,0.3,1,0.8,1.5,1.1c4.5,3.9,8.2,8.4,11,13.4c2.1,3.9,5.2,11.1,0.8,16.1
			C320.4,206.7,318.2,207.5,315.7,207.5z M266.4,142c-0.8,0-1.5,0.2-2.1,0.5c-2.6,1.1-6.9,5.2-8.1,9.2c-0.5,1.6-0.3,2.9,0.5,3.9
			c3.7,5.3,13.7,9.8,17.9,11.5c0.6,0.3,1.5,0.6,2.1,1.1c0.6,0.6,1.1,1.3,1.5,2.1c3.1,5.5,7.1,10.3,11,15.2c1,1.1,1.9,2.3,2.7,3.5
			c5.3,6.6,11.9,12.1,18.2,15c2.1,1,3.9,1.5,5.5,1.5c1.8,0,3.5-0.5,4.4-1.6c3.4-3.9,0.8-10-1.1-13.4c-2.6-4.7-6.3-9.2-10.5-12.7l0,0
			c-0.5-0.3-0.8-0.8-1.3-1.1c-2.1-1.6-4.4-3.2-6.5-4.7c-3.7-2.6-7.6-5.2-10.8-8.5c-1.8-1.9-3.2-3.9-4.7-6c-1-1.5-2.1-2.9-3.2-4.4
			C277.5,147.5,271.1,142,266.4,142z"/>
	</g>
	<g>
		<path class="st14" d="M263.5,132.2c-3.1-1.8-6.9-2.1-10.2-1c-1,0.3-1.9,0.8-2.1,1.8c-0.2,0.8,0.2,1.6,0.8,2.1
			c0.5,0.5,1.3,1,1.9,1.3c2.9,2.1,3.9,5.8,6.1,8.7c0.5,0.6,1.1,1.3,1.9,1.5c0.8,0.3,1.6,0.3,2.4,0c2.6-0.6,5-4,5-6.6
			C269.3,136.7,265.9,133.7,263.5,132.2z"/>
		<path d="M263,147.9c-0.6,0-1.1-0.2-1.6-0.3c-1.1-0.5-1.9-1.3-2.4-1.9c-1-1.1-1.6-2.4-2.3-3.7c-1-1.9-1.9-3.5-3.5-4.7
			c-0.2-0.2-0.5-0.3-0.6-0.5c-0.5-0.3-1-0.6-1.5-1c-1-1-1.5-2.1-1.1-3.2c0.3-1.1,1.3-2.1,2.9-2.6c3.7-1.1,7.7-0.8,11.1,1.1
			c2.6,1.5,6.5,5,6.5,8.7c0,3.2-2.9,6.9-6,7.7C264,147.9,263.5,147.9,263,147.9z M257.2,131.7c-1.3,0-2.4,0.2-3.5,0.5
			c-0.8,0.3-1.3,0.6-1.3,1c0,0.3,0.2,0.6,0.5,1c0.3,0.3,0.6,0.5,1,0.8c0.3,0.2,0.5,0.3,0.6,0.5c1.9,1.5,3.1,3.5,4.2,5.5
			c0.6,1.3,1.3,2.4,2.1,3.4c0.5,0.6,1,1,1.3,1.1c0.6,0.2,1.3,0.2,1.6,0c2.1-0.6,4.2-3.4,4.2-5.6c0-2.6-3.1-5.5-5.2-6.6l0,0
			C261.2,132.2,259.1,131.7,257.2,131.7z"/>
	</g>
	<g>
		<path class="st14" d="M258.3,136.7c-3.2-1.5-7.1-1.5-10.3-0.2c-0.8,0.3-1.8,1-1.9,1.9c-0.2,0.8,0.3,1.5,1,1.9
			c0.6,0.5,1.3,0.8,1.9,1.1c3.1,1.8,4.4,5.5,6.8,8.1c0.5,0.6,1.1,1.1,1.9,1.3s1.6,0.2,2.4-0.2c2.6-1,4.7-4.4,4.5-7.1
			C264.5,140.9,260.9,138,258.3,136.7z"/>
		<path d="M258.7,152.5c-0.5,0-0.8,0-1.1-0.2c-1.1-0.3-1.9-1.1-2.6-1.6c-1-1.1-1.8-2.3-2.6-3.5c-1.1-1.8-2.3-3.4-3.9-4.4
			c-0.2-0.2-0.5-0.3-0.6-0.3c-0.5-0.3-1-0.5-1.5-1c-1-0.8-1.6-1.9-1.5-3.1s1.1-2.1,2.6-2.7c3.5-1.5,7.7-1.5,11.3,0.2l0,0
			c2.7,1.3,6.9,4.4,7.1,8.1c0.2,3.2-2.3,7.1-5.2,8.2C259.9,152.4,259.3,152.5,258.7,152.5z M253,136.9c-1.6,0-3.1,0.3-4.5,1
			c-0.8,0.3-1.1,0.6-1.3,1c0,0.3,0.2,0.6,0.5,1c0.3,0.3,0.6,0.5,1.1,0.6c0.3,0.2,0.5,0.3,0.8,0.5c2.1,1.3,3.4,3.2,4.7,5.2
			c0.8,1.1,1.5,2.3,2.4,3.2c0.5,0.6,1,1,1.5,1c0.6,0.2,1.3,0,1.6-0.2c1.9-0.8,3.9-3.7,3.7-6c-0.2-2.6-3.5-5.2-5.8-6.1
			C256.2,137.2,254.6,136.9,253,136.9z"/>
	</g>
	<g>
		<path class="st14" d="M252.2,142.9c-3.5,0-7.1,1.5-9.5,3.9c-0.6,0.6-1.3,1.6-1,2.6c0.2,0.8,1,1.3,1.6,1.5c0.8,0.2,1.6,0.2,2.3,0.3
			c3.5,0.5,6.1,3.4,9.5,4.7c0.8,0.3,1.6,0.5,2.4,0.5c0.8-0.2,1.6-0.5,2.1-1.1c1.9-1.8,2.6-5.8,1.3-8.2
			C259.6,144.1,255.1,142.9,252.2,142.9z"/>
		<path d="M257.2,157.4c-1,0-1.8-0.3-2.4-0.6c-1.3-0.6-2.6-1.5-3.9-2.1c-1.8-1.1-3.5-2.3-5.3-2.6c-0.3,0-0.5,0-0.8,0
			c-0.5,0-1.1-0.2-1.8-0.3c-1.3-0.3-2.3-1.3-2.4-2.3c-0.3-1.1,0.2-2.4,1.3-3.5c2.6-2.7,6.5-4.4,10.3-4.4l0,0c3.1,0,8.1,1.3,9.8,4.7
			c1.5,2.9,0.8,7.4-1.6,9.7c-0.8,0.8-1.8,1.3-2.7,1.5C257.5,157.4,257.4,157.4,257.2,157.4z M252,144c-3.1,0-6.3,1.3-8.4,3.5
			c-0.5,0.6-0.8,1.1-0.8,1.5s0.5,0.5,0.8,0.6c0.3,0.2,0.8,0.2,1.3,0.2c0.3,0,0.6,0,0.8,0.2c2.4,0.3,4.4,1.6,6.3,2.9
			c1.1,0.8,2.3,1.5,3.4,1.9c0.8,0.3,1.3,0.5,1.8,0.3c0.6,0,1.1-0.5,1.5-0.8c1.6-1.5,2.1-5,1.1-6.9C258.7,145.1,254.6,144,252,144
			L252,144C252.2,144,252,144,252,144z"/>
	</g>
</g>
</svg>
