<?xml version="1.0" encoding="utf-8"?>
<!-- Generator: Adobe Illustrator 23.0.2, SVG Export Plug-In . SVG Version: 6.00 Build 0)  -->
<svg version="1.1" id="레이어_1" xmlns="http://www.w3.org/2000/svg" xmlns:xlink="http://www.w3.org/1999/xlink" x="0px"
	 y="0px" viewBox="0 0 228 390" style="enable-background:new 0 0 228 390;" xml:space="preserve">
<style type="text/css">
	.st0{fill:#FFFFFF;}
	.st1{fill:#00A2E7;}
	.st2{fill:#673101;}
	.st3{fill:#008AC4;}
	.st4{fill:#FFC0BB;}
	.st5{fill:#C93F09;}
	.st6{fill:#D34A20;}
	.st7{fill:#E2DC0A;}
</style>
<title>자산 4</title>
<g>
	<path class="st0" d="M100.7,239.6c0-2.8-2.3-5-5-5c-2.8,0-5,2.3-5,5V277h10.1L100.7,239.6L100.7,239.6z"/>
	<path class="st1" d="M100.7,312.3V277h-10v35.3c-8.6,1.2-13.3,5.8-13.3,11.1c0,6.3,6.6,11.5,18.4,11.5s18.4-5.1,18.4-11.5
		C114.1,318,109.3,313.5,100.7,312.3z"/>
</g>
<g>
	<path class="st0" d="M134.8,239.6c0-2.8-2.3-5-5-5c-2.8,0-5,2.3-5,5V277h10.1v-37.4H134.8z"/>
	<path class="st1" d="M134.8,312.3V277h-10.1v35.3c-8.6,1.2-13.3,5.8-13.3,11.1c0,6.3,6.6,11.5,18.4,11.5s18.4-5.1,18.4-11.5
		C148.1,318,143.4,313.5,134.8,312.3z"/>
</g>
<g>
	<path class="st0" d="M141.6,76.5l0.3-0.1c4.5-2.4,6.2-8.1,3.8-12.6c-1.9-3.6-1.5-8.9-1.3-10.5c0.4-1.5,1.3-3.8,2.6-4.3
		c3.1-1.1,10,1.9,13.7,4.4c4.2,2.9,9.9,1.8,12.8-2.3c0,0,0,0,0-0.1c2.9-4.2,1.9-10-2.3-12.9c-1.7-1.2-17.1-11.6-30.6-6.6
		c-4.9,1.8-11.3,6.3-14.2,17.3l-0.1,0.6c-0.3,1.3-2.3,13,3.1,23.2C131.7,77,137.1,78.7,141.6,76.5z"/>
	<path class="st2" d="M158.2,47.7c0.6-0.3,1.4-0.4,2.1-0.3c-0.9-0.3-1.7-1-2.1-1.9c-0.9-1.8-0.2-4.1,1.7-5c0.8-0.4,1.8-0.5,2.6-0.2
		c-0.8-0.3-1.5-0.9-1.9-1.7c-0.9-1.8-0.2-4.1,1.6-5l0,0c0.2-0.1,0.3-0.1,0.5-0.2c3,1.3,5.8,2.8,8.5,4.7c4.2,2.9,5.2,8.7,2.3,12.9
		s-8.6,5.3-12.8,2.4c0,0,0,0-0.1,0c-1.4-1-3-1.8-4.6-2.5C156.2,49.5,157,48.3,158.2,47.7z"/>
</g>
<g>
	<path class="st0" d="M88.5,75.8c-0.1,0-0.2-0.1-0.3-0.1c-4.7-1.9-7-7.3-5.1-12.1c1.5-3.7,0.5-9,0.1-10.6c-0.6-1.5-1.7-3.6-3.1-4
		c-3.2-0.7-9.8,3.1-13.1,6c-3.8,3.3-9.6,3-13-0.9c0,0,0,0,0-0.1c-3.3-3.9-3-9.7,0.8-13.1c1.6-1.4,15.7-13.4,29.6-10
		c5.1,1.2,11.9,5,16,15.6l0.2,0.6c0.4,1.3,3.8,12.7-0.5,23.4C98.4,75.1,93.2,77.5,88.5,75.8z"/>
	<path class="st2" d="M68.9,48.9c-0.7-0.2-1.4-0.2-2.1-0.1c0.9-0.4,1.6-1.2,1.9-2.1c0.7-1.9-0.3-4.1-2.2-4.8
		c-0.9-0.3-1.8-0.3-2.6,0.1c0.8-0.4,1.3-1.1,1.7-1.9c0.7-1.9-0.3-4.1-2.2-4.8c-0.2,0-0.4-0.1-0.5-0.1c-2.8,1.6-5.5,3.5-7.9,5.6
		c-4,3.5-4.4,9.4-1,13.2c3.3,3.8,9.1,4.3,12.9,0.9c0,0,0,0,0.1,0c1.3-1.1,2.8-2.1,4.3-3C71.1,50.5,70.1,49.4,68.9,48.9z"/>
</g>
<g>
	<path class="st0" d="M43.3,244.8c-3.8,0-7.2-2.9-8.5-7.5c-16.3-61,15.2-89.8,16.4-91c3.8-3.9,8.6-6.8,11.1-4.2c3.9,4,0.7,12-3,15.9
		c-0.9,1-19.9,26.3-7.5,72.6c1.5,5.7-1.1,11.8-5.8,13.6C45.2,244.6,44.3,244.8,43.3,244.8z"/>
	<path class="st3" d="M46.1,244.3c-0.9,0.3-1.8,0.5-2.8,0.5c-3.8,0-7.2-2.9-8.5-7.5c-4.8-18-5.4-33.2-3.9-45.7
		c5.7-0.9,11.5-0.5,17,1.1c-0.9,12.8,0.4,25.6,3.9,37.9C53.4,236.3,50.8,242.4,46.1,244.3z"/>
</g>
<g>
	<path class="st0" d="M185.5,244.7c3.8-0.1,7.2-3.1,8.3-7.6c15.1-61.3-17-89.5-18.2-90.6c-3.8-3.8-8.7-6.6-11.2-4
		c-3.8,4.1-0.5,12,3.3,15.8c1,1,20.4,25.9,9,72.5c-1.4,5.7,1.3,11.8,6,13.5C183.6,244.6,184.5,244.7,185.5,244.7z"/>
	<path class="st3" d="M182.7,244.2c0.9,0.3,1.8,0.5,2.8,0.5c3.8-0.1,7.2-3.1,8.3-7.6c4.4-18.1,4.8-33.3,3-45.8
		c-5.7-0.7-11.5-0.3-17,1.4c1.2,12.8,0.1,25.6-3.1,38C175.2,236.4,178,242.5,182.7,244.2z"/>
</g>
<g>
	<path class="st1" d="M113.4,48.7C59.1,48.5,56.9,92,56.9,92v115.7c0,20.9,25.3,37.8,56.5,37.8s56.6-16.9,56.6-37.8V92.5
		C171.2,47,113.4,48.7,113.4,48.7z"/>
	<path class="st3" d="M131.4,175c0-9.9-8.1-18-18-18s-18,8.1-18,18v28.3c0,9.9,8.1,18,18,18s18-8.1,18-18l0,0V175z"/>
</g>
<path class="st0" d="M168.7,93.7c-0.9-25.6-19.9-35.8-35.8-39.5c-2-0.5-8.4-1.6-9.9-1.7c-3.8-0.4-7.6-0.6-11.4-0.5
	c-29.1,0.4-52.7,21.6-53.4,48l0,0c0,0-5.1,41.9,42.5,49.5c3.8,0.5,7.6,0.8,11.5,0.8h34.1c16.9,0,31.6-16.1,31.6-33l0,0
	C177.9,107.5,175.9,99.3,168.7,93.7z"/>
<g>
	<path class="st4" d="M96.6,112.6c-0.1,8.7-7.2,15.7-15.8,15.6c-8.7-0.1-15.7-7.2-15.6-15.8s7.1-15.6,15.7-15.6
		C89.6,96.8,96.6,103.9,96.6,112.6z"/>
	<path class="st4" d="M173.4,112.6c-0.1,8.7-7.1,15.7-15.8,15.6s-15.7-7.1-15.6-15.8c0.1-8.6,7.1-15.6,15.7-15.6
		C166.4,96.8,173.4,103.9,173.4,112.6z"/>
</g>
<g>
	<path d="M120.8,107.8c-0.1,1.2-1.2,2.1-2.4,2s-2.1-1.2-2-2.4c0.1-1.1,1.1-2,2.2-2C119.8,105.5,120.8,106.5,120.8,107.8L120.8,107.8
		z"/>
	<path d="M138.7,114.1c-1.1-0.5-2.1,0.5-2.7,1.2c-3.9,4.3-9.2,5.1-13.7,1.7c-0.9-0.8-1.6-1.7-2.1-2.8c-0.4-0.8-0.5-1.4-1.7-1.6
		c-1.2,0.2-1.2,0.8-1.7,1.6c-0.5,1.1-1.2,2-2.1,2.8c-4.6,3.4-9.8,2.6-13.7-1.7c-0.6-0.7-1.5-1.7-2.7-1.2c-0.7,0.7-0.8,2,0.2,3.2
		c1.8,2.8,4.7,4.6,8,4.9c4.4,0.6,8.8-0.9,12-4c3.2,3.1,7.6,4.6,12,4c3.3-0.3,6.2-2.1,8-4.9C139.5,116,139.4,114.8,138.7,114.1z"/>
	<path d="M103.5,98L103.5,98c2,0,3.6,1.6,3.6,3.6v0.5c0,2-1.6,3.6-3.6,3.6l0,0c-2,0-3.6-1.6-3.6-3.6v-0.5
		C99.9,99.6,101.5,98,103.5,98z"/>
	<path d="M131.8,98L131.8,98c2,0,3.6,1.6,3.6,3.6v0.5c0,2-1.6,3.6-3.6,3.6l0,0c-2,0-3.6-1.6-3.6-3.6v-0.5
		C128.2,99.6,129.8,98,131.8,98z"/>
</g>
<g>
	<polygon class="st5" points="151.5,345.2 75.7,345.2 66.3,331.6 160.9,331.6 	"/>
	<rect x="66.3" y="322.6" class="st6" width="94.6" height="8.8"/>
	<path class="st7" d="M88.4,345.1h15.7c2.6,0,4.7,2.1,4.7,4.7v5.4c0,2.6-2.1,4.7-4.7,4.7H88.4c-2.6,0-4.7-2.1-4.7-4.7v-5.4
		C83.7,347.2,85.8,345.1,88.4,345.1z"/>
	<path class="st7" d="M123.2,345.1h15.7c2.6,0,4.7,2.1,4.7,4.7v5.4c0,2.6-2.1,4.7-4.7,4.7h-15.7c-2.6,0-4.7-2.1-4.7-4.7v-5.4
		C118.5,347.2,120.6,345.1,123.2,345.1z"/>
</g>
</svg>
