<?xml version="1.0" encoding="utf-8"?>
<!-- Generator: Adobe Illustrator 26.5.0, SVG Export Plug-In . SVG Version: 6.00 Build 0)  -->
<svg version="1.1" id="레이어_1" xmlns="http://www.w3.org/2000/svg" xmlns:xlink="http://www.w3.org/1999/xlink" x="0px"
	 y="0px" viewBox="0 0 390 390" style="enable-background:new 0 0 390 390;" xml:space="preserve">
<g>
	<path style="fill:#FFFFFF;" d="M244,313.3c0,0-3.2,33.2-9.3,44.1c0,0,6.6,1,9.9,9.7c6.2,16.5-27,18.9-34.7,10.5
		c-1.4-1.5-2.4-3.4-2.2-5.9c0.5-6.5,0.4-47.1,0.4-47.1"/>
	<path d="M225.7,384c-7,0-13.8-1.8-16.9-5.3c-1.9-2.1-2.8-4.5-2.7-7.2c0.5-6.4,0.4-46.6,0.4-47c0-0.9,0.8-1.7,1.7-1.7l0,0
		c0.9,0,1.7,0.8,1.7,1.7c0,1.7,0.1,40.8-0.4,47.3c-0.1,1.7,0.5,3.2,1.8,4.6c4.7,5.1,20.5,5.7,28.3,0.9c3.9-2.4,5.1-5.5,3.5-9.6
		c-2.9-7.6-8.3-8.6-8.6-8.6c-0.6-0.1-1-0.4-1.3-0.9c-0.2-0.5-0.2-1.1,0-1.6c5.8-10.5,9-43.1,9.1-43.4c0.1-0.9,1-1.6,1.9-1.5
		s1.6,0.9,1.5,1.9c-0.1,1.3-3,30.4-8.5,42.9c2.5,1.1,6.7,3.7,9.1,10.2c2.1,5.6,0.4,10.5-4.9,13.8C237.2,382.8,231.4,384,225.7,384z"
		/>
</g>
<g>
	<path style="fill:#FFFFFF;" d="M163,313.3c0,0,3.2,33.2,9.3,44.1c0,0-6.6,1-9.9,9.7c-6.2,16.5,27,18.9,34.7,10.5
		c1.4-1.5,2.4-3.4,2.2-5.9c-0.5-6.5-0.4-47.1-0.4-47.1"/>
	<path d="M181.3,384c-5.7,0-11.5-1.2-15.7-3.7c-5.3-3.2-7.1-8.1-4.9-13.8c2.4-6.5,6.6-9.1,9.1-10.2c-5.6-12.5-8.4-41.6-8.5-42.9
		c-0.1-0.9,0.6-1.8,1.5-1.9c0.9,0,1.8,0.6,1.9,1.5c0,0.3,3.2,32.9,9.1,43.4c0.3,0.5,0.3,1.1,0,1.6s-0.7,0.9-1.3,0.9
		c-0.2,0-5.7,1-8.6,8.6c-1.5,4.1-0.4,7.3,3.5,9.6c7.7,4.7,23.6,4.2,28.3-1c1.3-1.4,1.9-2.9,1.8-4.6c-0.5-6.5-0.4-45.6-0.4-47.3
		c0-0.9,0.8-1.7,1.7-1.7l0,0c0.9,0,1.7,0.8,1.7,1.7c0,0.4-0.1,40.6,0.4,47c0.2,2.6-0.7,5-2.7,7.2C195.1,382.2,188.3,384,181.3,384z"
		/>
</g>
<g>
	<path style="fill:#FFFFFF;" d="M244.8,241.6c-1.7-3.3-2.4-5.7-2.6-7.5l1.8-4.4h-81.1c0,0,4.7,1.4-0.8,11.8
		c-8.1,15.5-16,40.4-9.5,57.4c7.6,19.8,29.8,27.5,50.8,27.5s43.3-7.8,50.8-27.5C260.8,281.9,252.9,257.1,244.8,241.6z"/>
	<path d="M203.5,328.2c-26,0-45.7-10.8-52.4-28.7c-6.6-17.3,1.1-42.6,9.6-58.8c2.9-5.5,2.5-7.9,2.3-8.6c-0.2-0.6-0.5-0.8-0.6-0.8
		c-0.8-0.2-1.3-1.1-1.2-1.8c0.1-0.9,0.9-1.5,1.7-1.5H244c0.6,0,1.1,0.3,1.5,0.8c0.3,0.5,0.4,1.1,0.2,1.6l-1.8,3.9
		c0.3,1.7,1.1,3.9,2.4,6.4l0,0c8.5,16.3,16.2,41.4,9.6,58.8C249,317.4,229.5,328.2,203.5,328.2z M166.3,231.4
		c0.7,2.6-0.2,6.3-2.6,11c-8.2,15.6-15.6,39.6-9.4,56c6.3,16.6,24.7,26.5,49.2,26.5s42.9-9.9,49.2-26.5c6.2-16.3-1.2-40.3-9.4-56
		l0,0c-1.6-3.2-2.6-5.9-2.8-8.1c0-0.3,0-0.6,0.1-0.9l0.9-2H166.3L166.3,231.4z"/>
</g>
<g>
	<path style="fill:#FFFFFF;" d="M245,259.8c9.1,6.5,16.1,15.9,19.8,26.5c1.3,3.7,2.2,7.6,4.5,10.7c4.7,6.4,15,7.8,21.2,2.7
		c2.5-2,4.2-4.8,5.5-7.8c1.4-3.3,2.1-6.8,2.2-10.4c0.2-8.5-3.3-16.8-8.4-23.6c-5.1-6.8-11.6-12.5-18.1-18"/>
	<path d="M281.4,304.5c-0.8,0-1.5,0-2.3-0.1c-4.6-0.6-8.7-2.9-11.2-6.4c-2-2.7-3-5.8-4-8.9c-0.3-0.8-0.5-1.5-0.8-2.3
		c-3.6-10.2-10.4-19.3-19.2-25.7c-0.8-0.6-0.9-1.6-0.4-2.4c0.6-0.8,1.6-1,2.4-0.4c9.3,6.7,16.6,16.4,20.4,27.3
		c0.3,0.8,0.5,1.6,0.8,2.3c1,2.9,1.9,5.6,3.5,7.9c2,2.7,5.2,4.5,8.9,5c3.7,0.5,7.3-0.5,9.8-2.6c2-1.7,3.7-4,5-7.1s2-6.4,2.1-9.8
		c0.2-9.3-4.2-17.4-8.1-22.5c-4.7-6.4-10.6-11.6-17.8-17.7c-0.7-0.6-0.8-1.7-0.2-2.4c0.6-0.7,1.7-0.8,2.4-0.2
		c5.8,4.9,13,11,18.3,18.2c4.1,5.6,9,14.4,8.7,24.7c-0.1,3.8-0.9,7.5-2.3,11c-1.5,3.6-3.5,6.4-6,8.4
		C288.9,303.3,285.2,304.5,281.4,304.5z"/>
</g>
<path style="fill:#FFFFFF;stroke:#000000;stroke-width:1.2;stroke-linecap:round;stroke-linejoin:round;stroke-miterlimit:10;" d="
	M204.3,342.3"/>
<g>
	<path style="fill:#FF00A0;" d="M259.7,220.3c0,0-26.2,17.3-45.3,17.3c0,0,13.6,30.1,30.4,31.6c10.6,0.9,32.5-11.7,38.9-17.3
		c2.3-1.9,3.6-5,2.5-7.9c-1-2.5-7.8-5.7-14.2-11.2C265.5,227.3,259.7,220.3,259.7,220.3z"/>
	<path style="fill:#FF63D0;" d="M281.5,241c0,0-25.7,18.8-36.3,17.9c-10.7-0.9-22.4-22.5-22.4-22.5s-5.1,1.6-8.4,1.4
		c0,0,11.9,29.9,30.4,31.6c0,0,6.3,0.2,13.5-2.9c0,0,26.5-11.8,28-18.3C286.3,248.1,288.4,241,281.5,241z"/>
	<path d="M245.8,270.8c-0.4,0-0.8,0-1.2,0c-17.4-1.5-31-31.1-31.6-32.4c-0.2-0.5-0.2-1,0.1-1.4s0.7-0.7,1.2-0.7
		c18.5,0,44.3-17,44.5-17.2c0.6-0.4,1.5-0.3,1.9,0.3c0.1,0.1,5.7,7,12.1,12.3c2.7,2.3,5.5,4.3,7.9,5.9c3.6,2.5,6,4.1,6.7,5.9
		c1.3,3.3,0.1,7-2.9,9.5C278,258.8,257,270.8,245.8,270.8z M216.6,239.2c3.3,6.6,14.9,27.6,28.3,28.8c10,0.8,31.4-11.4,37.8-16.9
		c2-1.7,2.9-4.3,2-6.3c-0.4-1-3-2.8-5.6-4.6c-2.3-1.6-5.3-3.7-8.1-6.1c-5.1-4.4-9.8-9.6-11.6-11.7
		C254.4,225.4,233.7,238.1,216.6,239.2z"/>
	<g>
		<g>
			<path style="fill:#FFFFFF;" d="M241.2,260.7c-0.8,0-1.5-0.7-1.5-1.5v-5.4c0-0.8,0.7-1.5,1.5-1.5s1.5,0.7,1.5,1.5v5.4
				C242.7,260.1,242,260.7,241.2,260.7z"/>
			<path style="fill:#FFFFFF;" d="M243.9,258h-5.4c-0.8,0-1.5-0.7-1.5-1.5c0-0.8,0.7-1.5,1.5-1.5h5.4c0.8,0,1.5,0.7,1.5,1.5
				C245.4,257.3,244.7,258,243.9,258z"/>
		</g>
		<g>
			<path style="fill:#FFFFFF;" d="M259,259.3c-0.8,0-1.5-0.7-1.5-1.5v-5.4c0-0.8,0.7-1.5,1.5-1.5s1.5,0.7,1.5,1.5v5.4
				C260.4,258.6,259.7,259.3,259,259.3z"/>
			<path style="fill:#FFFFFF;" d="M261.7,256.5h-5.4c-0.8,0-1.5-0.7-1.5-1.5s0.7-1.5,1.5-1.5h5.4c0.8,0,1.5,0.7,1.5,1.5
				C263.1,255.9,262.5,256.5,261.7,256.5z"/>
		</g>
		<g>
			<path style="fill:#FFFFFF;" d="M273,251.9c-0.8,0-1.5-0.7-1.5-1.5V245c0-0.8,0.7-1.5,1.5-1.5s1.5,0.7,1.5,1.5v5.4
				C274.5,251.3,273.8,251.9,273,251.9z"/>
			<path style="fill:#FFFFFF;" d="M275.7,249.2h-5.4c-0.8,0-1.5-0.7-1.5-1.5s0.7-1.5,1.5-1.5h5.4c0.8,0,1.5,0.7,1.5,1.5
				C277.2,248.6,276.5,249.2,275.7,249.2z"/>
		</g>
		<g>
			<path style="fill:#FFFFFF;" d="M229.4,250.8c-0.8,0-1.5-0.7-1.5-1.5v-5.4c0-0.8,0.7-1.5,1.5-1.5s1.5,0.7,1.5,1.5v5.4
				C230.9,250.1,230.2,250.8,229.4,250.8z"/>
			<path style="fill:#FFFFFF;" d="M232.1,248.1h-5.4c-0.8,0-1.5-0.7-1.5-1.5s0.7-1.5,1.5-1.5h5.4c0.8,0,1.5,0.7,1.5,1.5
				S232.9,248.1,232.1,248.1z"/>
		</g>
	</g>
</g>
<g>
	<path style="fill:#FFFFFF;" d="M145.3,214.4c-9.2-6.4-16.3-15.7-20.1-26.2c-1.3-3.7-2.3-7.5-4.7-10.6c-4.8-6.4-15.1-7.6-21.2-2.5
		c-2.5,2.1-4.2,4.9-5.4,7.8c-1.3,3.3-2,6.8-2.1,10.4c-0.1,8.5,3.5,16.7,8.7,23.5s11.7,12.3,18.3,17.7c9.2,7.6,20.8,12.6,32.7,13.9
		c3.6,0.4,7.4,0.4,10.7-1c4-1.7,7.1-5.4,8-9.7s-0.4-8.9-3.3-12.1C161.3,219.7,152,219.1,145.3,214.4z"/>
	<path d="M155.4,250.5c-1.5,0-2.9-0.1-4.1-0.3c-12.2-1.3-24.1-6.4-33.7-14.3c-5.8-4.8-13.1-10.8-18.5-18c-4.2-5.5-9.2-14.3-9-24.6
		c0.1-3.8,0.8-7.5,2.2-11c1.4-3.6,3.4-6.5,5.9-8.5c3.3-2.7,7.8-4,12.4-3.5s8.7,2.8,11.3,6.2c2,2.7,3.1,5.8,4.1,8.8
		c0.3,0.8,0.5,1.5,0.8,2.3c3.7,10.2,10.7,19.2,19.5,25.4c2.7,1.9,5.8,3.1,9.1,4.3c4.6,1.7,9.3,3.5,12.7,7.3
		c3.3,3.6,4.7,8.9,3.8,13.6c-1,4.9-4.4,9-9,10.9C160.4,250.1,157.8,250.5,155.4,250.5z M108.5,173.6c-3.1,0-6,1-8.1,2.8
		c-2,1.7-3.6,4.1-4.9,7.2c-1.3,3.1-1.9,6.4-2,9.8c-0.1,9.3,4.4,17.3,8.3,22.4c4.8,6.4,10.8,11.5,18,17.5c9,7.5,20.3,12.3,31.8,13.5
		c2.9,0.3,6.6,0.5,9.9-0.8c3.4-1.4,6.2-4.8,6.9-8.5c0.8-3.7-0.4-7.8-2.9-10.6c-2.9-3.2-7-4.7-11.4-6.4c-3.4-1.3-6.8-2.6-9.9-4.7l0,0
		c-9.4-6.6-16.8-16.2-20.8-27.1c-0.3-0.8-0.6-1.6-0.8-2.3c-1-2.9-1.9-5.6-3.6-7.9c-2-2.7-5.3-4.4-8.9-4.9
		C109.6,173.6,109,173.6,108.5,173.6z"/>
</g>
<g>
	<path style="fill:#FF00A0;" d="M161.9,204.2c0,0,15.3,27.4,32.3,36.1c0,0-25.9,20.6-41.5,14.2c-9.8-4.1-23.5-25.3-26.7-33.1
		c-1.2-2.8-0.9-6.1,1.4-8.2c2-1.8,9.5-1.5,17.7-3.5C153.6,207.8,161.9,204.2,161.9,204.2z"/>
	<path style="fill:#FF63D0;" d="M133.1,212.6c0,0,14.2,28.5,24.1,32.6c9.9,4.1,30.2-9.7,30.2-9.7s3.8,3.8,6.9,5.1
		c0,0-24.3,21.1-41.5,14.2c0,0-5.7-2.7-10.6-8.8c0,0-18.1-22.6-16.5-29.1C125.6,216.7,126.9,209.4,133.1,212.6z"/>
	<path d="M151.2,255.3c-10-5.1-23.1-25.4-26.4-33.4c-1.5-3.6-0.8-7.5,1.8-9.8c1.4-1.3,4.4-1.7,8.7-2.2c2.9-0.4,6.3-0.8,9.8-1.6
		c8.1-1.9,16.3-5.4,16.4-5.4c0.7-0.3,1.4,0,1.9,0.6c0.2,0.3,15.2,27.1,31.7,35.6c0.4,0.2,0.7,0.7,0.7,1.1c0.1,0.5-0.2,1-0.5,1.3
		c-1.1,0.9-26.7,21-42.9,14.3C151.8,255.7,151.6,255.6,151.2,255.3z M161.3,206c-2.6,1.1-9.1,3.6-15.7,5.1c-3.6,0.9-7.2,1.3-10,1.7
		c-3.1,0.4-6.3,0.8-7.1,1.5c-1.7,1.5-2.1,4.1-1.1,6.5c3.2,7.8,16.7,28.4,25.9,32.3c12.4,5.2,32.3-8.3,38.3-12.6
		C177,231.9,164.3,211.1,161.3,206z"/>
	<g>
		<g>
			<path style="fill:#FFFFFF;" d="M159.9,248.5c0.7,0.4,1.6,0.1,2-0.6l2.5-4.8c0.4-0.7,0.1-1.6-0.6-2c-0.7-0.4-1.6-0.1-2,0.6
				l-2.5,4.8C158.9,247.3,159.2,248.1,159.9,248.5z"/>
			<path style="fill:#FFFFFF;" d="M158.7,244.8l4.8,2.5c0.7,0.4,1.6,0.1,2-0.6c0.4-0.7,0.1-1.6-0.6-2l-4.8-2.5
				c-0.7-0.4-1.6-0.1-2,0.6C157.7,243.6,158,244.4,158.7,244.8z"/>
		</g>
		<g>
			<path style="fill:#FFFFFF;" d="M144.8,239.2c0.7,0.4,1.6,0.1,2-0.6l2.5-4.8c0.4-0.7,0.1-1.6-0.6-2c-0.7-0.4-1.6-0.1-2,0.6
				l-2.5,4.8C143.8,237.9,144.1,238.8,144.8,239.2z"/>
			<path style="fill:#FFFFFF;" d="M143.6,235.4l4.8,2.5c0.7,0.4,1.6,0.1,2-0.6c0.4-0.7,0.1-1.6-0.6-2l-4.8-2.5
				c-0.7-0.4-1.6-0.1-2,0.6C142.6,234.3,142.9,235.1,143.6,235.4z"/>
		</g>
		<g>
			<path style="fill:#FFFFFF;" d="M135.6,226.2c0.7,0.4,1.6,0.1,2-0.6l2.5-4.8c0.4-0.7,0.1-1.6-0.6-2s-1.6-0.1-2,0.6l-2.5,4.8
				C134.6,224.9,134.9,225.8,135.6,226.2z"/>
			<path style="fill:#FFFFFF;" d="M134.5,222.5l4.8,2.5c0.7,0.4,1.6,0.1,2-0.6c0.4-0.7,0.1-1.6-0.6-2l-4.8-2.5
				c-0.7-0.4-1.6-0.1-2,0.6C133.5,221.3,133.7,222.1,134.5,222.5z"/>
		</g>
		<g>
			<path style="fill:#FFFFFF;" d="M174.9,245.1c0.7,0.4,1.6,0.1,2-0.6l2.5-4.8c0.4-0.7,0.1-1.6-0.6-2c-0.7-0.4-1.6-0.1-2,0.6
				l-2.5,4.8C174,243.9,174.2,244.7,174.9,245.1z"/>
			<path style="fill:#FFFFFF;" d="M173.8,241.5l4.8,2.5c0.7,0.4,1.6,0.1,2-0.6c0.4-0.7,0.1-1.6-0.6-2l-4.8-2.5
				c-0.7-0.4-1.6-0.1-2,0.6C172.8,240.2,173,241.1,173.8,241.5z"/>
		</g>
	</g>
</g>
<g>
	<g>
		<path style="fill:#9100F7;" d="M221.3,246.4c-0.8-1.6-2.1-2.8-3.1-3.6c-2.3-1.8-4.5-2.8-6.6-3.1c-3.1-0.4-5.8,0.8-8.2,2.5
			c-1.2-0.7-2.5-1.3-3.7-1.7c-4.9-1.7-9.1-0.4-12.3,3.6c-0.9,1.1-1.7,2.3-2.1,3.8c-0.5,2,0,4.1,1.5,5.3c0.8,0.6,1.8,1,3,1.1
			c0.3,0,0.6,0,0.9,0c3,0,5.7-1.5,8.2-3.3c-1.8,5-3.8,11.4-4.1,15.2c-0.1,1.1,0.8,2,1.8,2.1s2-0.8,2.1-1.8
			c0.3-3.9,2.8-11.4,4.7-16.4c1.9,5.2,4.5,13.3,4.8,17.1c0.1,1,0.9,1.8,2,1.8h0.1c1.1-0.1,1.9-1,1.8-2.1c-0.3-4-2.7-11.6-4.6-17
			c0.1,0.1,0.1,0.1,0.2,0.2l1.2,0.9l0,0c1.8,1.4,5.2,4,9,3c1.2-0.3,2.3-1,3-2C222.1,250.6,222.2,248.4,221.3,246.4z M190.2,250.4
			c-0.6-0.1-0.8-0.2-0.9-0.3c-0.2-0.2-0.3-0.7-0.2-1.3c0.2-0.8,0.8-1.5,1.4-2.4c1.5-1.9,3.1-2.8,5.1-2.8c0.9,0,1.8,0.2,2.8,0.5
			c0.5,0.2,1.1,0.4,1.6,0.7c-0.2,0.2-0.5,0.4-0.7,0.6C196.5,248.2,193.4,250.7,190.2,250.4z M217.7,249.8c-0.2,0.2-0.5,0.4-0.8,0.5
			c-1.7,0.4-3.6-0.9-5.6-2.3l-1.2-0.9c-1-0.8-2-1.6-3.2-2.4c1.3-0.7,2.7-1.1,4.1-1c1.4,0.2,2.9,0.9,4.6,2.2c0.7,0.6,1.6,1.3,2,2.2
			C218,248.7,218,249.4,217.7,249.8z"/>
		<path d="M210.5,239.7c0.4,0,0.7,0,1.1,0.1c2.1,0.2,4.3,1.2,6.6,3.1c1,0.8,2.3,2,3.1,3.6c0.9,2,0.8,4.2-0.4,5.7
			c-0.7,0.9-1.8,1.6-3,2c-0.6,0.1-1.1,0.2-1.7,0.2c-3.1,0-5.7-2.1-7.3-3.2l0,0l-1.2-0.9c-0.1-0.1-0.1-0.1-0.2-0.2
			c1.9,5.4,4.3,13,4.6,17c0.1,1.1-0.7,2-1.8,2.1h-0.1c-1,0-1.9-0.8-2-1.8c-0.3-3.8-2.9-11.9-4.8-17.1c-1.8,4.9-4.4,12.4-4.7,16.4
			c-0.1,1-1,1.8-2,1.8h-0.1c-1.1-0.1-1.9-1-1.8-2.1c0.3-3.8,2.3-10.2,4.1-15.2c-2.4,1.8-5.1,3.3-8.2,3.3c-0.3,0-0.6,0-0.9,0
			c-1.2-0.1-2.2-0.5-3-1.1c-1.5-1.2-2-3.3-1.5-5.3c0.4-1.5,1.3-2.7,2.1-3.8c2.2-2.9,5-4.3,8.2-4.3c1.3,0,2.6,0.2,4.1,0.7
			c1.3,0.4,2.5,1,3.7,1.7C205.5,240.8,207.9,239.7,210.5,239.7 M216.2,250.4c0.2,0,0.5,0,0.7-0.1c0.4-0.1,0.7-0.3,0.8-0.5
			c0.3-0.4,0.3-1.1,0-1.7c-0.4-0.9-1.3-1.6-2-2.2c-1.7-1.3-3.2-2.1-4.6-2.2c-0.2,0-0.4,0-0.6,0c-1.2,0-2.4,0.4-3.5,1
			c1.1,0.8,2.2,1.6,3.2,2.4l1.2,0.9C213,249.2,214.7,250.4,216.2,250.4 M190.7,250.4c3,0,5.9-2.4,8.6-4.9c0.2-0.2,0.5-0.4,0.7-0.6
			c-0.5-0.3-1.1-0.5-1.6-0.7c-1-0.3-1.9-0.5-2.8-0.5c-2,0-3.6,0.9-5.1,2.8c-0.7,0.8-1.2,1.6-1.4,2.4c-0.1,0.6,0,1.1,0.2,1.3
			c0.1,0.1,0.3,0.2,0.9,0.3C190.3,250.4,190.5,250.4,190.7,250.4 M210.5,236.2c-2.4,0-4.8,0.7-7.2,2c-0.8-0.4-1.7-0.7-2.5-1
			c-1.8-0.6-3.5-0.9-5.2-0.9c-4.3,0-8,2-10.9,5.7c-1,1.3-2.2,2.9-2.7,5c-0.9,3.3,0.2,6.8,2.6,8.8c1.3,1.1,3,1.7,4.9,1.9
			c0.4,0,0.9,0.1,1.3,0.1c0.8,0,1.6-0.1,2.4-0.2c-1,3.5-1.6,6.4-1.8,8.5c-0.1,1.4,0.4,2.8,1.3,3.9c1,1.1,2.3,1.7,3.7,1.8
			c0.1,0,0.3,0,0.4,0c2.8,0,5.2-2.2,5.4-5.1c0.1-1.3,0.5-3.2,1.2-5.7c0.8,2.9,1.3,5.1,1.4,6.4c0.2,2.8,2.6,5,5.4,5
			c0.1,0,0.3,0,0.4,0c3-0.2,5.2-2.8,5-5.8c-0.1-2.2-0.8-5.3-2-9.4c0.8,0.2,1.7,0.3,2.6,0.3c0.9,0,1.7-0.1,2.6-0.3
			c2-0.5,3.7-1.7,4.9-3.2c1.9-2.6,2.2-6.1,0.7-9.2c-1.1-2.3-2.9-3.9-4.1-4.9c-2.8-2.2-5.6-3.5-8.4-3.8
			C211.5,236.3,211,236.2,210.5,236.2L210.5,236.2z"/>
	</g>
	<g>
		<path style="fill:#9100F7;" d="M205.4,251h-4.6c-0.7,0-1.2-0.5-1.2-1.2V242c0-0.7,0.5-1.2,1.2-1.2h4.6c0.7,0,1.2,0.5,1.2,1.2v7.8
			C206.6,250.5,206.1,251,205.4,251z"/>
		<path d="M203.1,252.8c-2.9,0-5.2-2.3-5.2-5.2v-3.2c0-2.9,2.3-5.2,5.2-5.2s5.2,2.3,5.2,5.2v3.2C208.3,250.4,206,252.8,203.1,252.8z
			 M203.1,242.5c-1,0-1.8,0.8-1.8,1.8v3.2c0,1,0.8,1.8,1.8,1.8s1.8-0.8,1.8-1.8v-3.2C204.9,243.3,204.1,242.5,203.1,242.5z"/>
	</g>
</g>
<g>
	<path style="fill:#FFFFFF;" d="M260.1,100.4c0,0,31.1-41.3,27.9-75.5c-3.1-34.2-51.3-19.6-63.8,63.3l-2.9-0.4
		c-12.3-1.5-24.8-1.5-37.1,0l-2.9,0.4c-12.5-82.8-60.6-97.4-63.8-63.3c-3.1,34.2,27.9,75.5,27.9,75.5s-15.3,24.1-21.5,53.5
		c-2.9,14.1-2.6,29.1,3.1,42.9c6.6,16.1,24.8,28.1,39.4,35.6c5.6,2.9,14.9,5.4,22.7,7.1c8.9,2,18.1,2,27,0
		c7.8-1.8,17.2-4.3,22.7-7.1c14.7-7.5,32.8-19.5,39.4-35.6c5.7-13.8,6-28.8,3.1-42.9C275.4,124.5,260.1,100.4,260.1,100.4z"/>
	<path d="M202.8,242.7c-4.7,0-9.3-0.5-13.9-1.5c-10.6-2.4-18.4-4.8-23.1-7.3c-14.6-7.5-33.4-19.9-40.2-36.5
		c-5.4-12.9-6.4-28.1-3.1-43.9c5.4-26,18.1-48.2,21.1-53.1c-4.7-6.5-30.5-43.7-27.6-75.7c1-11.5,7-18.5,16-18.7
		c18.6-0.6,42.5,27.4,50.9,80.3l1.2-0.2c12.4-1.5,25.1-1.5,37.5,0l1.2,0.2C231.1,33.9,254.7,6,273.2,6c0.2,0,0.4,0,0.5,0
		c9,0.3,15,7.3,16,18.7c2.9,32-22.9,69.2-27.6,75.7c2.9,4.9,15.6,27.1,21.1,53.1c3.3,15.8,2.2,30.9-3.1,43.9
		c-6.9,16.6-25.7,29-40.2,36.5c-4.7,2.4-12.5,4.9-23.1,7.3C212.2,242.2,207.5,242.7,202.8,242.7z M132.4,9.4c-0.1,0-0.3,0-0.4,0
		c-7.2,0.2-11.8,5.9-12.7,15.6c-3,33.1,27.3,73.9,27.6,74.3c0.4,0.6,0.5,1.3,0.1,2c-0.2,0.2-15.2,24.2-21.2,53
		c-3.2,15.1-2.1,29.6,3,41.8c6.5,15.6,24.6,27.5,38.6,34.7c4.4,2.3,12.1,4.7,22.3,7c8.6,1.9,17.6,1.9,26.2,0
		c10.2-2.3,17.9-4.7,22.3-7c14.1-7.2,32.2-19.1,38.6-34.7c5.1-12.3,6.1-26.8,3-41.8c-6-28.8-21.1-52.7-21.2-53
		c-0.4-0.6-0.4-1.4,0.1-2c0.3-0.4,30.6-41.2,27.6-74.3c-0.9-9.7-5.5-15.4-12.7-15.6c-8.1-0.1-17.9,6.6-26.1,18.3
		c-7.2,10.2-16.8,29-21.5,60.7c-0.1,0.9-1,1.6-1.9,1.5l-2.9-0.4c-12.2-1.5-24.5-1.5-36.7,0l-2.9,0.4c-0.9,0.1-1.8-0.5-1.9-1.5
		c-4.8-31.7-14.3-50.5-21.5-60.7C150,16.2,140.5,9.4,132.4,9.4z"/>
</g>
<g>
	<g>
		<path style="fill:#FFABD7;" d="M164.6,92.5c0,0-11.8-60.3-30.6-64.5s22.1,68.8,22.1,68.8L164.6,92.5z"/>
		<path d="M156.1,98.6c-0.6,0-1.2-0.3-1.5-0.9c-5.6-10-33-60.2-26-69.7c0.9-1.1,2.6-2.4,5.8-1.6c19.6,4.4,31.4,63.4,31.9,65.9
			c0.1,0.8-0.2,1.5-0.9,1.9l-8.5,4.3C156.6,98.5,156.4,98.6,156.1,98.6z M132.6,29.5c-0.8,0-1.1,0.3-1.2,0.5
			c-4.1,5.5,12.1,40.5,25.4,64.5l5.9-3c-3.6-17.3-14.9-58.7-29-61.9C133.2,29.6,132.9,29.5,132.6,29.5z"/>
	</g>
	<g>
		<path style="fill:#FF89C7;" d="M160.9,94.4c0,0-8.4-21-11.3-24.4"/>
		<path d="M160.9,96.1c-0.7,0-1.3-0.4-1.6-1.1c-3.4-8.3-9-21.6-11-23.9c-0.6-0.7-0.5-1.8,0.2-2.4s1.8-0.5,2.4,0.2
			c2.9,3.5,10.7,22.7,11.6,24.8c0.4,0.9-0.1,1.9-1,2.2C161.4,96.1,161.2,96.1,160.9,96.1z"/>
	</g>
</g>
<g>
	<g>
		<path style="fill:#FF8FBD;" d="M211.5,180.8c0,1.9-3.6,6.7-8,6.7s-8-4.9-8-6.7s3.6-3.4,8-3.4C207.9,177.4,211.5,178.9,211.5,180.8
			z"/>
		<path d="M203.5,189.2c-5.3,0-9.7-5.6-9.7-8.4c0-6.7,19.4-6.7,19.4,0C213.2,183.6,208.8,189.2,203.5,189.2z M203.5,179.1
			c-3.9,0-6.1,1.2-6.3,1.7c0.1,1,2.9,4.9,6.3,4.9c3.4,0,6.1-3.8,6.3-5C209.4,180.3,207.3,179.1,203.5,179.1z M211.5,180.8
			L211.5,180.8L211.5,180.8z"/>
	</g>
	
		<ellipse transform="matrix(0.9228 -0.3852 0.3852 0.9228 -52.1406 109.4885)" style="fill:#FFC6E3;" cx="247.2" cy="184.9" rx="14.2" ry="11.7"/>
	
		<ellipse transform="matrix(0.3852 -0.9228 0.9228 0.3852 -72.3911 261.1379)" style="fill:#FFC6E3;" cx="159.8" cy="184.9" rx="11.7" ry="14.2"/>
	<g>
		<g>
			<path style="fill:#A5E1FF;" d="M233.3,191.8c0.2,1.9-0.2,3.8,0.1,5.7s1.5,3.8,3.3,4.1c1.7,0.2,3.2-1.1,3.8-2.6s0.6-3.3,0.4-4.9"
				/>
			<path d="M237.1,203.2c-0.2,0-0.4,0-0.6,0c-2.8-0.3-4.5-3.1-4.8-5.5c-0.2-1.1-0.1-2.2-0.1-3.3c0-0.8,0.1-1.6,0-2.4
				c-0.1-0.9,0.6-1.8,1.5-1.9c0.9-0.1,1.8,0.6,1.9,1.5c0.1,1,0.1,2,0,2.9c0,0.9-0.1,1.8,0,2.7c0.2,1.2,0.9,2.5,1.8,2.6
				c0.7,0.1,1.6-0.6,2-1.6c0.5-1.2,0.4-2.6,0.3-4.2c-0.1-0.9,0.6-1.8,1.6-1.8c0.9-0.1,1.8,0.6,1.8,1.6c0.1,1.9,0.2,3.9-0.6,5.7
				C241.4,201.4,239.4,203.2,237.1,203.2z"/>
		</g>
		<g>
			<path style="fill:#A5E1FF;" d="M252.2,178.8c0.2,1.9-0.2,3.8,0.1,5.7s1.5,3.8,3.3,4.1c1.7,0.2,3.2-1.1,3.8-2.6
				c0.6-1.5,0.6-3.3,0.4-4.9"/>
			<path d="M255.9,190.3c-0.2,0-0.4,0-0.6,0c-2.8-0.3-4.5-3.1-4.8-5.5c-0.2-1.1-0.1-2.2-0.1-3.3c0-0.8,0.1-1.6,0-2.4
				c-0.1-0.9,0.6-1.8,1.5-1.9c0.9-0.1,1.8,0.6,1.9,1.5c0.1,1,0.1,2,0,2.9c0,0.9-0.1,1.8,0,2.7c0.2,1.2,0.9,2.5,1.8,2.6
				c0.7,0.1,1.7-0.6,2-1.6c0.5-1.2,0.4-2.6,0.3-4.2c-0.1-0.9,0.6-1.8,1.6-1.8c0.9-0.1,1.8,0.6,1.8,1.6c0.1,1.9,0.2,3.9-0.6,5.7
				C260.2,188.5,258.3,190.3,255.9,190.3z"/>
		</g>
		<g>
			<path style="fill:#A5E1FF;" d="M252.2,201.3c0.2,1.9-0.2,3.8,0.1,5.7s1.5,3.8,3.3,4.1c1.7,0.2,3.2-1.1,3.8-2.6s0.6-3.3,0.4-4.9"
				/>
			<path d="M255.9,212.8c-0.2,0-0.4,0-0.6,0c-2.8-0.3-4.5-3.1-4.8-5.5c-0.2-1.1-0.1-2.2-0.1-3.3c0-0.8,0.1-1.6,0-2.4
				c-0.1-0.9,0.6-1.8,1.5-1.9c0.9-0.1,1.8,0.6,1.9,1.5c0.1,1,0.1,2,0,2.9c0,0.9-0.1,1.8,0,2.7c0.2,1.2,0.9,2.5,1.8,2.6
				c0.7,0.1,1.6-0.6,2-1.6c0.5-1.2,0.4-2.6,0.3-4.2c-0.1-0.9,0.6-1.8,1.6-1.8c0.9-0.1,1.8,0.6,1.8,1.6c0.1,1.9,0.2,3.9-0.6,5.7
				C260.2,211,258.3,212.8,255.9,212.8z"/>
		</g>
	</g>
	<g>
		<g>
			<path style="fill:#B200F3;" d="M221.7,172.7c0.1,6.4,6,7.5,11.7,7.8c5.9,0.3,10.8-6.1,10.8-12.1s-6-8.9-11.2-8.9
				c-10.8,0-10.9,9.1-11.1,12.6C221.7,172.3,221.7,172.5,221.7,172.7z"/>
			<path style="fill:#5F009E;" d="M244,172.4c-1.8-1-3.6-2.1-5.4-2.9c-5.3-2.4-11.2-2-17-1.6c0,0,2-9.8,12.8-8.3c0,0,9.1,1,9.7,8.8
				L244,172.4z"/>
			<path d="M233.7,181.9c-0.1,0-0.3,0-0.4,0c-3.9-0.2-13-0.6-13.1-9.1l0,0c0-0.3,0-0.6,0-0.9l0.1-0.7c0.3-3.6,1.2-13.2,12.5-13.2
				c6.1,0,12.7,3.6,12.7,10.4c0,3.8-1.7,7.8-4.5,10.5C239,180.8,236.3,181.9,233.7,181.9z M223.1,172.7c0.1,4.3,3,6,10.4,6.3
				c2.5,0.1,4.5-1.2,5.6-2.3c2.2-2.1,3.6-5.3,3.6-8.3c0-5.5-5.9-7.5-9.8-7.5c-8,0-9.2,5.4-9.7,10.6l-0.1,0.8
				C223.1,172.3,223.1,172.5,223.1,172.7L223.1,172.7z"/>
		</g>
		<path style="fill:#4E0081;" d="M227.9,170.5c-0.3,1.5,0.1,3,1.5,4c0.8,0.5,1.7,0.8,2.7,1c0.7,0.1,1.3,0.2,1.9,0.2
			c1.3-0.1,2.4-0.6,3.3-1.4c0.9-0.8,1.4-1.7,1.6-2.7c0.4-1.5,0.3-3-0.6-4.3c-1.3-1.8-4.3-2.9-6.7-1.8
			C229.6,166.3,228.3,168.9,227.9,170.5z"/>
		<g>
			<path style="opacity:0.65;fill:#C028FF;enable-background:new    ;" d="M229.6,164.4c-1.2,0.8-1.9,2.4-1.6,3.8
				c0.1,0.5,0.4,1,0.9,1.1c0.6,0.2,1.2-0.3,1.6-0.7c0.5-0.4,0.8-1,1.3-1.4c0.3-0.2,0.6-0.2,0.8-0.4c0.8-0.6,0.5-2-0.4-2.5
				C231.1,163.8,230.2,163.9,229.6,164.4z"/>
			<path style="fill:#FFFFFF;" d="M238.3,167c-1.2-0.6-2.7,0-3.3,1.4c-0.4,0.8-0.3,1.8,0.2,2.6c0.3,0.4,0.7,0.7,1.1,0.9
				c2.2,0.9,4.1-1.4,3.2-3.5C239.2,167.7,238.8,167.2,238.3,167z"/>
			<path style="opacity:0.57;fill:#E800FD;enable-background:new    ;" d="M228.8,176c0.9,0.6,1.8,1.2,2.8,1.5
				c1.1,0.3,2.1,0.3,3.1-0.3c1-0.5,1.6-1.5,1.6-2.5c0-0.2,0-0.3-0.1-0.5s-0.4-0.3-0.6-0.4c-0.8-0.2-1.6-0.1-2.3-0.3
				c-1-0.3-1.7-1.1-2.5-1.7c-0.8-0.7-1.6-1.5-2.7-1.5C224.5,170.3,227.5,175.2,228.8,176z"/>
		</g>
		<g>
			<path style="fill:#FFA9FF;" d="M231.7,174.1c-0.4,0-0.7-0.3-0.7-0.7v-2.7c0-0.4,0.3-0.7,0.7-0.7s0.7,0.3,0.7,0.7v2.7
				C232.5,173.8,232.2,174.1,231.7,174.1z"/>
			<path style="fill:#FFA9FF;" d="M233.1,172.7h-2.8c-0.4,0-0.7-0.3-0.7-0.7s0.3-0.7,0.7-0.7h2.8c0.4,0,0.7,0.3,0.7,0.7
				S233.5,172.7,233.1,172.7z"/>
		</g>
		<g>
			<line style="fill:none;" x1="237.2" y1="180.4" x2="238.5" y2="182.6"/>
			<path d="M238.5,184.3c-0.6,0-1.2-0.3-1.6-0.9l-1.2-2.1c-0.5-0.9-0.2-1.8,0.7-2.3s1.8-0.2,2.3,0.7l1.2,2.1
				c0.5,0.9,0.2,1.8-0.7,2.3C239.1,184.3,238.8,184.3,238.5,184.3z"/>
		</g>
		<g>
			<line style="fill:none;" x1="240.8" y1="178.3" x2="242.7" y2="179.8"/>
			<path d="M242.7,181.6c-0.4,0-0.8-0.1-1.1-0.4l-1.9-1.6c-0.8-0.6-0.9-1.6-0.2-2.4c0.6-0.8,1.6-0.9,2.4-0.2l1.9,1.6
				c0.8,0.6,0.9,1.6,0.2,2.4C243.7,181.3,243.2,181.6,242.7,181.6z"/>
		</g>
		<g>
			<line style="fill:none;" x1="244" y1="165" x2="248.3" y2="163.1"/>
			<path d="M244,166.7c-0.7,0-1.3-0.4-1.6-1c-0.4-0.9,0-1.8,0.9-2.3l4.2-1.9c0.9-0.4,1.8,0,2.3,0.9c0.4,0.9,0,1.8-0.9,2.3l-4.2,1.9
				C244.6,166.6,244.3,166.7,244,166.7z"/>
		</g>
	</g>
	<g>
		<g>
			<path style="fill:#B200F3;" d="M184.8,172.8c-0.1,6.4-6,7.5-11.7,7.8c-5.9,0.3-10.8-6.1-10.8-12.1s6-8.9,11.2-8.9
				c10.8,0,10.9,9.1,11.1,12.6C184.8,172.3,184.8,172.5,184.8,172.8z"/>
			<path style="fill:#5F009E;" d="M162.4,172.4c1.8-1,3.6-2.1,5.4-2.9c5.3-2.4,11.2-2,17-1.6c0,0-2-9.8-12.8-8.3c0,0-9.1,1-9.7,8.8
				L162.4,172.4z"/>
			<path d="M172.7,181.9c-2.6,0-5.2-1.1-7.4-3.1c-2.8-2.6-4.5-6.7-4.5-10.5c0-6.7,6.5-10.4,12.7-10.4c11.3,0,12.2,9.6,12.5,13.2
				l0.1,0.7c0,0.3,0,0.6,0,0.9l0,0c-0.1,8.6-9.2,9-13.1,9.1C173,181.9,172.9,181.9,172.7,181.9z M173.6,160.9c-4,0-9.8,2-9.8,7.5
				c0,3,1.4,6.2,3.6,8.3c1.2,1.2,3.1,2.4,5.6,2.3c7.4-0.3,10.3-2.1,10.4-6.3l0,0c0-0.2,0-0.4,0-0.6l-0.1-0.8
				C182.9,166.3,181.7,160.9,173.6,160.9z"/>
		</g>
		<path style="fill:#4E0081;" d="M178.6,170.6c0.3,1.5-0.1,3-1.5,4c-0.8,0.5-1.7,0.8-2.7,1c-0.7,0.1-1.3,0.2-1.9,0.2
			c-1.3-0.1-2.4-0.6-3.3-1.4s-1.4-1.7-1.6-2.7c-0.4-1.5-0.3-3,0.6-4.3c1.3-1.8,4.3-2.9,6.7-1.8C176.9,166.3,178.2,168.9,178.6,170.6
			z"/>
		<g>
			<path style="opacity:0.65;fill:#C028FF;enable-background:new    ;" d="M176.9,164.5c1.2,0.8,1.9,2.4,1.6,3.8
				c-0.1,0.5-0.4,1-0.9,1.1c-0.6,0.2-1.2-0.3-1.6-0.7c-0.4-0.5-0.8-1-1.3-1.4c-0.3-0.2-0.6-0.2-0.8-0.4c-0.8-0.6-0.5-2,0.4-2.5
				C175.3,163.9,176.2,164,176.9,164.5z"/>
			<path style="fill:#FFFFFF;" d="M168.1,167.1c1.2-0.6,2.7,0,3.3,1.4c0.4,0.8,0.3,1.8-0.2,2.6c-0.3,0.4-0.7,0.7-1.1,0.9
				c-2.2,0.9-4.1-1.4-3.2-3.5C167.3,167.8,167.6,167.3,168.1,167.1z"/>
			<path style="opacity:0.57;fill:#E800FD;enable-background:new    ;" d="M177.7,176.1c-0.9,0.6-1.8,1.2-2.8,1.5
				c-1.1,0.3-2.1,0.3-3.1-0.3c-1-0.5-1.6-1.5-1.6-2.5c0-0.2,0-0.3,0.1-0.5s0.4-0.3,0.6-0.4c0.8-0.2,1.6-0.1,2.3-0.3
				c1-0.3,1.7-1.1,2.5-1.7c0.8-0.7,1.6-1.5,2.7-1.5C182,170.4,178.9,175.2,177.7,176.1z"/>
		</g>
		<g>
			<path style="fill:#FFA9FF;" d="M174.7,174.2c0.4,0,0.7-0.3,0.7-0.7v-2.7c0-0.4-0.3-0.7-0.7-0.7s-0.7,0.3-0.7,0.7v2.7
				C174,173.9,174.3,174.2,174.7,174.2z"/>
			<path style="fill:#FFA9FF;" d="M173.4,172.8h2.8c0.4,0,0.7-0.3,0.7-0.7s-0.3-0.7-0.7-0.7h-2.8c-0.4,0-0.7,0.3-0.7,0.7
				C172.6,172.4,173,172.8,173.4,172.8z"/>
		</g>
		<g>
			<line style="fill:none;" x1="169.2" y1="180.5" x2="168" y2="182.7"/>
			<path d="M168,184.3c0.6,0,1.2-0.3,1.6-0.9l1.2-2.1c0.5-0.9,0.2-1.8-0.7-2.3s-1.8-0.2-2.3,0.7l-1.2,2.1c-0.5,0.9-0.2,1.8,0.7,2.3
				C167.4,184.3,167.7,184.3,168,184.3z"/>
		</g>
		<g>
			<line style="fill:none;" x1="165.6" y1="178.3" x2="163.8" y2="179.9"/>
			<path d="M163.8,181.6c0.4,0,0.8-0.1,1.1-0.4l1.9-1.6c0.8-0.6,0.9-1.6,0.2-2.4c-0.6-0.8-1.6-0.9-2.4-0.2l-1.9,1.6
				c-0.8,0.6-0.9,1.6-0.2,2.4C162.7,181.3,163.2,181.6,163.8,181.6z"/>
		</g>
		<g>
			<line style="fill:none;" x1="162.4" y1="165" x2="158.2" y2="163.1"/>
			<path d="M162.4,166.8c0.7,0,1.3-0.4,1.6-1c0.4-0.9,0-1.8-0.9-2.3l-4.2-1.9c-0.9-0.4-1.8,0-2.3,0.9c-0.4,0.9,0,1.8,0.9,2.3
				l4.2,1.9C161.9,166.7,162.1,166.8,162.4,166.8z"/>
		</g>
	</g>
	<g>
		<path style="fill:#8F0007;" d="M193.1,201.4c-0.9,0.3,4.5,23.3,15.2,13.8c3.9-3.4,4.9-8.9,4.9-13.8l-10.3-3.9L193.1,201.4z"/>
		<g>
			<g>
				<path d="M191.9,202.8c-2.1,0-4.2-0.5-6-1.6c-0.8-0.5-1.1-1.6-0.6-2.4c0.5-0.8,1.6-1.1,2.4-0.6c4.3,2.7,11.5-0.2,13.8-2.8
					c0.6-0.7,1.7-0.8,2.4-0.1c0.7,0.6,0.8,1.7,0.1,2.4C201.8,200.4,196.7,202.8,191.9,202.8z"/>
			</g>
		</g>
		<g>
			<g>
				<g>
					<path d="M213.7,202.8c-4.8,0-9.8-2.4-12.2-5c-0.6-0.7-0.6-1.8,0.1-2.4c0.7-0.6,1.8-0.6,2.4,0.1c2.3,2.6,9.5,5.4,13.8,2.8
						c0.8-0.5,1.9-0.2,2.4,0.6s0.3,1.9-0.6,2.4C217.9,202.3,215.8,202.8,213.7,202.8z"/>
				</g>
			</g>
		</g>
		<path style="fill:#EE595E;" d="M196,211.8c0,0,6.8-4.4,14.8,0.2c0,0-1.5,4.8-7.4,5.9C203.4,217.8,198.2,218,196,211.8z"/>
		<path d="M203.3,219c-1.2,0-2.2-0.3-3-0.7c-6.2-3.1-8.9-14.8-8.8-16.7c0.1-1,0.7-1.4,1-1.6l9.8-3.9c0.3-0.1,0.7-0.1,1.1,0l10.3,3.9
			c0.6,0.2,1,0.8,1,1.4c0,6.8-1.8,11.8-5.4,14.9C207,218.3,205,219,203.3,219z M194.6,202.4c0.4,2.8,3,11.2,7.1,13.2
			c0.6,0.3,2.6,1.3,5.7-1.5c2.7-2.4,4.2-6.3,4.4-11.6l-8.8-3.3L194.6,202.4z M193.6,202.8C193.6,202.8,193.6,202.8,193.6,202.8
			C193.6,202.8,193.6,202.8,193.6,202.8z M193.7,202.8L193.7,202.8C193.6,202.8,193.6,202.8,193.7,202.8
			C193.6,202.8,193.6,202.8,193.7,202.8z M193.1,201.4L193.1,201.4L193.1,201.4z"/>
	</g>
</g>
<g>
	<g>
		<path style="fill:#FFABD7;" d="M242.3,92.5c0,0,11.8-60.3,30.6-64.5s-22.1,68.8-22.1,68.8L242.3,92.5z"/>
		<path d="M250.8,98.6c-0.3,0-0.5-0.1-0.8-0.2l-8.5-4.3c-0.7-0.3-1.1-1.1-0.9-1.9c0.5-2.5,12.3-61.5,31.9-65.9
			c3.2-0.7,4.9,0.5,5.8,1.6c7.1,9.5-20.4,59.7-26,69.7C252,98.2,251.4,98.6,250.8,98.6z M244.3,91.6l5.9,3
			c13.3-24,29.5-59,25.4-64.5c-0.1-0.2-0.5-0.7-2.2-0.3C259.2,32.9,247.8,74.3,244.3,91.6z"/>
	</g>
	<g>
		<path style="fill:#FF89C7;" d="M246,94.4c0,0,8.4-21,11.3-24.4"/>
		<path d="M246,96.1c-0.2,0-0.4,0-0.6-0.1c-0.9-0.4-1.3-1.4-1-2.2c0.9-2.2,8.6-21.4,11.6-24.8c0.6-0.7,1.7-0.8,2.4-0.2
			s0.8,1.7,0.2,2.4c-2,2.3-7.6,15.6-11,23.9C247.3,95.7,246.7,96.1,246,96.1z"/>
	</g>
</g>
<g>
	<path style="fill:#FFFFFF;" d="M289.4,123.5c0-0.1-0.1-0.1-0.1-0.2c-0.1-0.3-0.2-0.6-0.3-0.8l0,0c-0.3-0.8-0.7-1.6-1.1-2.5
		c-9.2-19-52.6-68.2-80.3-48.4c0,0-15.5-5-34.5-1.1c-20.4,4.2-34.9,10.6-47.9,27.3c-16.1,20.7-21.1,52.1-19.8,70.2
		c2,27.9,19.5,47.9,28,58c2.3,2.8,4,1.9,5.1-1.5c2.6-7.8,9-26.8,12.1-33.9c9.9-23.3,50.6-55.9,64.1-79.7c0,0,25.6,23.3,40.2,24
		c3.2,0.2,6.4,0.4,9.5,0.7c11.7,10.7,19.4,28.2,19.5,43.7c2.8-0.9,4.6-0.9,6.2-3.3C297.5,164.4,295.4,137.6,289.4,123.5z"/>
	<path style="fill:#FFADD9;" d="M108,138.4c-0.1,9.9,1.5,13,4.4,22.5c1.9,6.3,5.7,19.4,11.6,23.3c6.3,4.1,13.1-7.9,15.9-12.7
		c4.6-7.6,9.5-14.9,15.2-21.6c8.5-10,16.2-18.5,26.9-26.5c9.5-7.1,19.7-14.5,31.5-15.6c3.9-0.4,8,3.1,11.4,4.9
		c9,4.9,21.3,10.1,31.8,8.8c3.7-0.4,7.2-1.9,10.6-3.5c11.9,8.2,21.5,20.3,27.1,33.7c0,0,2,24.9-10.2,26.3c0,0,0.1-27.4-19.5-43.7
		c0,0-14.2,0.7-19.7-3.6c0,0-23.1-12.3-30-21c0,0-17.7,25.1-25.3,31.3l-15.2,16.4c0,0-17.3,19.8-20.5,25.9c0,0-9.9,20.8-14.4,37.7
		c0,0-2.1,11-7.5,2c0,0-19.9-23.5-23.1-38.6c0,0-5.8-21.6-3.1-33.7L108,138.4z"/>
	<path d="M136,229c-1.7,0-3.1-1.6-3.6-2.2l-0.8-0.9c-8.9-10.6-25.6-30.3-27.5-57.9c-1.2-16.7,3.2-49.3,20.1-71.1
		c13.7-17.6,28.8-23.7,48.7-27.8c17.2-3.5,31.3,0,34.5,1c6.6-4.5,14.4-5.6,23.3-3.4c24.7,6.3,51.3,37.7,58.6,52.7
		c0.4,0.8,0.7,1.6,1.1,2.3c0,0.1,0.1,0.1,0.1,0.2l0.3,0.8l0.1,0.2c6.4,15.2,8,42,0.6,53.7c-1.6,2.4-3.5,2.9-5.4,3.5
		c-0.5,0.1-1,0.3-1.6,0.4c-0.4,0.1-0.9,0.1-1.3-0.2s-0.6-0.7-0.6-1.2c-0.1-15.1-7.6-32.1-18.7-42.4c-2.9-0.3-5.9-0.5-8.9-0.6
		c-13.2-0.7-34.3-18.4-39.7-23.3c-6.5,10.8-18.3,23.4-29.7,35.6c-13.9,14.8-28.2,30.1-33.4,42.5c-2.1,4.9-6.3,16.7-12,33.8
		c-0.3,0.9-1.3,3.7-3.4,4.1C136.3,229,136.2,229,136,229z M188,70.5c-4.5,0-9.3,0.4-14.5,1.5c-19.3,4-33.8,9.8-47,26.8
		c-16.4,21.2-20.6,53-19.5,69.2c1.9,26.6,18.1,45.8,26.8,56.2l0.8,0.9c1,1.2,1.4,1.2,1.5,1.2l0,0c0,0,0.6-0.2,1.3-2.2
		c5.8-17.3,10-29,12.1-34c5.4-12.8,20-28.3,34-43.3c11.8-12.6,24-25.7,30.1-36.5c0.2-0.4,0.6-0.7,1.1-0.7c0.4-0.1,0.9,0.1,1.2,0.4
		c0.3,0.2,25.4,23,39.4,23.6c3.2,0.2,6.4,0.4,9.5,0.7c0.3,0,0.6,0.2,0.9,0.4c11.3,10.3,19.2,27.3,19.9,42.8c1.7-0.5,2.6-0.8,3.6-2.2
		c7-10.8,5.2-36.7-0.8-51l0,0l0.5-0.2h-0.1l-0.4,0.1l-0.3-0.7c0-0.1-0.1-0.1-0.1-0.2c-0.4-0.9-0.7-1.6-1.1-2.4
		c-6.9-14.2-33.2-45.3-56.7-51.2c-8.2-2-15.4-1-21.4,3.3c-0.4,0.3-0.9,0.3-1.3,0.2C207.1,72.9,199.2,70.5,188,70.5z M289.3,123.5
		L289.3,123.5L289.3,123.5L289.3,123.5z"/>
</g>
<g>
	<g>
		<path style="fill:#FF009E;" d="M270.3,116c-1.7,1.9-3.8,3.7-6.3,3.8c-1.5,0.1-2.9-0.4-4.2-1.1c-3.7-2-6.4-5.7-8-9.6
			c-1.6-4-2.1-8.3-2.3-12.6c-0.2-3.4-0.2-6.9,1.1-10.1s4.4-5.8,7.8-5.6c2.4,0.1,4.5,1.6,6.4,3c3.3,2.4,6.6,4.8,9.3,7.8
			c2.3,2.6,5.6,7.4,4.9,11.2C278.2,107.4,273.3,112.8,270.3,116z"/>
		<path d="M263.6,121.6c-1.5,0-3.1-0.4-4.7-1.3c-3.8-2-6.9-5.8-8.7-10.5c-1.8-4.5-2.2-9.3-2.5-13.1c-0.2-3.6-0.2-7.4,1.3-10.8
			c1.8-4.1,5.7-6.7,9.4-6.6c3,0.2,5.5,2,7.3,3.3c3.3,2.4,6.7,4.9,9.5,8.1c1.5,1.7,6.2,7.5,5.3,12.7c-0.9,5.1-6.2,10.8-9.1,13.9l0,0
			c-1.8,1.9-4.3,4.2-7.5,4.4C263.9,121.6,263.8,121.6,263.6,121.6z M258,82.6c-2.6,0-4.9,2.3-5.9,4.5c-1.3,2.9-1.2,6.3-1,9.3
			c0.2,3.5,0.7,8,2.2,12c1.6,4,4.1,7.1,7.2,8.7c1.2,0.7,2.3,0.9,3.3,0.9c2-0.1,3.8-1.8,5.2-3.3l0,0c2.4-2.6,7.5-8.1,8.2-12.2
			c0.5-2.9-2.1-7.1-4.5-9.8c-2.6-2.9-5.8-5.3-9-7.5c-2-1.4-3.7-2.6-5.5-2.7C258.2,82.6,258.1,82.6,258,82.6z"/>
	</g>
	<g>
		<path style="fill:#FF009E;" d="M273.4,102.8c4.3,0.6,9-0.3,12.4-3.4c2.2-2,3.6-4.5,4.8-7.1c1.8-4.2,2.7-8.6,2.7-13
			c0-4.3-1.5-9-5.1-11.6s-9.1-1.9-13.4-0.9c-6.9,1.6-16.1,3.5-19.4,10.4c-2,4.1-1.9,8.9-0.3,12.9
			C258.2,97.3,265.4,101.6,273.4,102.8z"/>
		<path d="M276,104.7c-0.9,0-1.9-0.1-2.8-0.2c-9.2-1.3-16.6-6.4-19.7-13.7c-2-4.6-1.8-9.8,0.3-14.3c3.5-7.3,12.4-9.4,19.6-11.1
			l1-0.2c4.3-1,10.5-2,14.8,1.1c3.6,2.7,5.8,7.5,5.8,13c0,4.6-1,9.3-2.8,13.7c-1.4,3.3-3.1,5.8-5.2,7.7
			C284.1,103.3,280.2,104.7,276,104.7z M281.7,67.6c-1.8,0-4,0.3-6.5,0.9l-1,0.2c-6.4,1.5-14.5,3.4-17.2,9.2
			c-1.7,3.6-1.8,7.8-0.2,11.4c2.6,6.1,9,10.5,17,11.6l0,0c4.3,0.6,8.3-0.5,11-2.9c1.7-1.6,3.1-3.7,4.3-6.5c1.7-3.9,2.6-8.2,2.6-12.3
			c0-4.4-1.7-8.2-4.4-10.2C285.8,68.1,284,67.6,281.7,67.6z"/>
	</g>
	<g>
		<path style="fill:#FF009E;" d="M218.7,99.7c0.3,2.5,0.9,5.2,2.9,6.8c1.1,0.9,2.6,1.4,4,1.6c4.2,0.5,8.5-0.8,12.1-3.1
			c3.6-2.3,6.6-5.5,9.3-8.8c2.2-2.6,4.2-5.5,5-8.8c0.7-3.3-0.2-7.2-3-9.1c-2-1.3-4.6-1.3-6.9-1.3c-4,0-8.1,0-12.1,0.9
			c-3.4,0.8-8.9,2.7-10.6,6.2C217.3,88.1,218.1,95.4,218.7,99.7z"/>
		<path d="M227.4,109.9c-0.7,0-1.4,0-2.1-0.1c-2-0.3-3.7-0.9-4.9-1.9c-2.5-2-3.2-5.3-3.5-7.9l0,0c-0.5-4.2-1.5-12,0.8-16.6
			c2.3-4.7,9.6-6.6,11.8-7.1c4.2-0.9,8.4-0.9,12.5-0.9c2.4,0,5.4,0,7.9,1.6c3.2,2.1,4.7,6.5,3.8,10.9c-0.8,3.6-3,6.7-5.3,9.5
			c-2.4,2.9-5.6,6.5-9.7,9.1C235,108.7,231.1,109.9,227.4,109.9z M241.3,78.6c-3.7,0-7.5,0-11.1,0.9c-3.5,0.8-8.1,2.7-9.4,5.3
			c-1.8,3.7-0.9,11.1-0.5,14.7l0,0c0.2,2,0.7,4.4,2.3,5.7c0.7,0.6,1.8,1,3.2,1.2c3.5,0.4,7.3-0.6,11-2.9c3.6-2.3,6.5-5.6,8.9-8.4
			c1.9-2.3,4-5,4.6-8.1c0.6-2.5,0-5.8-2.3-7.2C246.4,78.6,244,78.6,241.3,78.6z"/>
	</g>
	<g>
		<path style="fill:#FF009E;" d="M220.3,87.4c-4-1.8-7.5-5.1-8.7-9.5c-0.8-2.8-0.7-5.8-0.2-8.5c0.7-4.5,2.3-8.7,4.6-12.4
			c2.3-3.6,6.1-6.7,10.5-7s8.7,3.3,11.8,6.4c5,5.1,11.8,11.6,10.9,19.2c-0.5,4.6-3.1,8.5-6.6,11C236.1,91,227.7,90.8,220.3,87.4z"/>
		<path d="M231.2,91.6c-3.8,0-7.8-0.9-11.6-2.6c-4.9-2.2-8.4-6.1-9.6-10.6c-0.7-2.7-0.8-5.7-0.3-9.3c0.7-4.7,2.4-9.2,4.9-13.1
			c2.9-4.6,7.4-7.5,11.9-7.8c5.3-0.4,10,3.8,13.1,7l0.7,0.7c5.2,5.2,11.6,11.8,10.6,19.8c-0.6,4.9-3.3,9.4-7.4,12.2
			C240,90.4,235.7,91.6,231.2,91.6z M227,51.6c-0.1,0-0.3,0-0.4,0c-3.4,0.2-6.9,2.6-9.2,6.3c-2.2,3.5-3.7,7.5-4.4,11.8
			c-0.5,3-0.4,5.6,0.2,7.8c1,3.6,3.8,6.6,7.7,8.4l0,0c7.4,3.3,15.1,3,20.6-0.7c3.3-2.3,5.4-5.8,5.9-9.8c0.8-6.4-5-12.3-9.7-17
			l-0.7-0.7C233.1,53.6,229.8,51.6,227,51.6z"/>
	</g>
	<path d="M244.4,81c-0.5,0-1-0.2-1.3-0.6c-2.1-2.5-10.8-6.8-14-8.2c-0.9-0.4-1.3-1.4-0.9-2.3c0.4-0.9,1.4-1.2,2.3-0.9
		c1.2,0.6,12.2,5.6,15.2,9.1c0.6,0.7,0.5,1.8-0.2,2.4C245.2,80.9,244.8,81,244.4,81z"/>
	<path d="M276.3,86.4c-0.1,0-0.2,0-0.4,0c-3.4-0.7-13-2.5-16.2-1.7c-0.9,0.2-1.8-0.4-2.1-1.3c-0.2-0.9,0.4-1.8,1.3-2.1
		c4.5-1.1,16.3,1.4,17.7,1.7c0.9,0.2,1.5,1.1,1.3,2C277.8,85.8,277.1,86.4,276.3,86.4z"/>
	<g>
		<path style="fill:#9100F7;" d="M257.5,70.9l1.4,6.6c0.1,0.4,0.3,0.8,0.7,1l5.7,3.5c1,0.6,1,2.1,0,2.7l-5.8,3.5
			c-0.4,0.2-0.6,0.6-0.7,1l-1.6,6.6c-0.3,1.2-1.7,1.6-2.6,0.8l-5-4.5c-0.3-0.3-0.7-0.4-1.2-0.4l-6.7,0.6c-1.2,0.1-2-1.1-1.6-2.2
			l2.7-6.2c0.2-0.4,0.2-0.8,0-1.2l-2.5-6.3c-0.4-1.1,0.4-2.3,1.6-2.2l6.7,0.6c0.4,0,0.8-0.1,1.2-0.4L255,70
			C255.9,69.3,257.3,69.7,257.5,70.9z"/>
		<path d="M256,69.7c0.7,0,1.4,0.5,1.5,1.2l1.4,6.6c0.1,0.4,0.3,0.8,0.7,1l5.7,3.5c1,0.6,1,2.1,0,2.7l-5.8,3.5
			c-0.4,0.2-0.6,0.6-0.7,1l-1.6,6.6c-0.2,0.8-0.9,1.2-1.5,1.2c-0.4,0-0.7-0.1-1-0.4l-5-4.5c-0.3-0.3-0.7-0.4-1-0.4h-0.1l-6.7,0.6
			h-0.1c-1.1,0-1.9-1.2-1.4-2.2l2.7-6.2c0.2-0.4,0.2-0.8,0-1.2l-2.5-6.3c-0.4-1.1,0.4-2.2,1.5-2.2c0.1,0,0.1,0,0.2,0l6.7,0.6h0.1
			c0.4,0,0.7-0.1,1-0.4L255,70C255.3,69.8,255.7,69.7,256,69.7 M256,66.2L256,66.2c-1.2,0-2.4,0.4-3.3,1.2l-4.5,3.9l-5.9-0.6
			c-0.2,0-0.3,0-0.5,0c-1.7,0-3.2,0.8-4.2,2.2c-0.9,1.4-1.1,3.2-0.5,4.7l2.3,5.5l-2.4,5.5c-0.7,1.6-0.5,3.3,0.4,4.8
			c0.9,1.4,2.5,2.3,4.2,2.3c0.1,0,0.3,0,0.4,0l5.9-0.5l4.4,4c0.9,0.8,2.1,1.3,3.3,1.3c2.3,0,4.3-1.6,4.9-3.9l1.4-5.9l5.2-3.1
			c1.5-0.9,2.5-2.5,2.5-4.3s-0.9-3.4-2.4-4.3l-5-3.1L261,70C260.4,67.8,258.4,66.2,256,66.2L256,66.2z"/>
	</g>
	<g>
		<path style="fill:#FFA6FF;" d="M250.5,86.8c-0.8,0-1.6-0.6-1.7-1.4l-0.9-5.7c-0.1-0.9,0.5-1.8,1.4-2s1.8,0.5,2,1.4l0.9,5.7
			c0.1,0.9-0.5,1.8-1.4,2C250.7,86.7,250.6,86.8,250.5,86.8z"/>
		<path style="fill:#FFA6FF;" d="M247.3,84.4c-0.8,0-1.6-0.6-1.7-1.4c-0.2-0.9,0.5-1.8,1.4-2l5.7-1c1-0.2,1.8,0.5,2,1.4
			s-0.5,1.8-1.4,2l-5.7,1C247.4,84.4,247.3,84.4,247.3,84.4z"/>
	</g>
</g>
</svg>
