<?xml version="1.0" encoding="utf-8"?>
<!-- Generator: Adobe Illustrator 24.1.1, SVG Export Plug-In . SVG Version: 6.00 Build 0)  -->
<svg version="1.1" id="Layer_1" xmlns="http://www.w3.org/2000/svg" xmlns:xlink="http://www.w3.org/1999/xlink" x="0px" y="0px"
	 viewBox="0 0 240 240" style="enable-background:new 0 0 240 240;" xml:space="preserve">
<g>
	<g>
		<path style="fill:#FF2410;" d="M101.58,149.08c-1.86,1.66-5.68,0.52-7.52-0.04c-0.3-0.08-0.56-0.16-0.76-0.2
			c-0.3-0.08-0.6-0.02-0.84,0.14c-1.46,1.04-4.32,2.7-7.22,2.1c-1.98-0.42-3.7-1.82-5.14-4.2c-1.04-1.74-0.94-3.52,0.34-5.26
			C82.8,138.34,88.6,136,93.6,136c1.02,0,2.02,0.1,2.96,0.32c1.16,0.26,2.46,0.76,3.58,1.66c1.1,0.9,2,2.24,2.36,4.18
			C103.14,145.64,102.82,147.96,101.58,149.08z"/>
		<path d="M104.46,141.8c-0.7-3.88-3.36-6.52-7.46-7.44c-6.34-1.42-14.82,1.42-18.2,6.08c-1.72,2.4-1.86,5.06-0.4,7.48
			c1.72,2.86,3.88,4.58,6.42,5.1c0.54,0.12,1.1,0.18,1.66,0.18c2.16,0,4.5-0.8,6.74-2.32c0.08,0.04,0.18,0.06,0.26,0.08
			c2.2,0.66,6.76,2.02,9.44-0.4c1.26-1.12,1.9-2.9,1.9-5.32C104.82,144.22,104.7,143.06,104.46,141.8z M94.06,149.04
			c-0.3-0.08-0.56-0.16-0.76-0.2c-0.3-0.08-0.6-0.02-0.84,0.14c-1.46,1.04-4.32,2.7-7.22,2.1c-1.98-0.42-3.7-1.82-5.14-4.2
			c-1.04-1.74-0.94-3.52,0.34-5.26C82.8,138.34,88.6,136,93.6,136c1.02,0,2.02,0.1,2.96,0.32c1.16,0.26,2.46,0.76,3.58,1.66
			c1.1,0.9,2,2.24,2.36,4.18c0.64,3.48,0.32,5.8-0.92,6.92C99.72,150.74,95.9,149.6,94.06,149.04z"/>
	</g>
	<g>
		<path style="fill:#FFFFFF;" d="M109.76,143.92c0.22,3.82-1.8,7.48-4.38,7.98c-1.1,0.22-1.98-0.22-2.52-0.64
			c-1.32-1.02-2.16-2.96-2.28-5.2c-0.22-3.82,1.8-7.48,4.38-8c1.12-0.22,1.98,0.24,2.52,0.66
			C108.78,139.74,109.64,141.68,109.76,143.92z"/>
		<path d="M108.96,136.82c-1.02-0.78-2.2-1.2-3.4-1.2c-0.36,0-0.7,0.02-1.06,0.1c-3.82,0.74-6.6,5.36-6.32,10.48
			c0.16,2.96,1.32,5.5,3.2,6.96c1.02,0.78,2.22,1.2,3.42,1.2c0.34,0,0.7-0.04,1.04-0.1c3.82-0.76,6.6-5.36,6.32-10.48
			C112,140.82,110.82,138.28,108.96,136.82z M102.86,151.26c-1.32-1.02-2.16-2.96-2.28-5.2c-0.22-3.82,1.8-7.48,4.38-8
			c1.12-0.22,1.98,0.24,2.52,0.66c1.3,1.02,2.16,2.96,2.28,5.2c0.22,3.82-1.8,7.48-4.38,7.98
			C104.28,152.12,103.4,151.68,102.86,151.26z"/>
	</g>
	<g>
		<path d="M105.42,148.31c-0.44,0-0.84-0.29-0.96-0.73c-0.7-2.54-0.63-4.44,0.21-5.63c0.72-1.03,1.73-1.13,1.85-1.14
			c0.5-0.05,1.03,0.37,1.07,0.92c0.04,0.54-0.35,1.01-0.88,1.07c-0.04,0.01-0.25,0.07-0.43,0.35c-0.25,0.4-0.57,1.43,0.11,3.9
			c0.15,0.53-0.17,1.08-0.7,1.23C105.6,148.3,105.51,148.31,105.42,148.31z"/>
	</g>
</g>
<g>
	<g>
		<polygon style="fill:#FFFFFF;" points="172.24,187.34 93.58,227.66 66.96,170.7 137.36,134.62 		"/>
		<path d="M138.18,131.5L63.8,169.62l28.66,61.32l83.26-42.68L138.18,131.5z M137.36,134.62l34.88,52.72l-78.66,40.32L66.96,170.7
			L137.36,134.62z"/>
	</g>
	<g>
		<polygon style="fill:#FFFFFF;" points="163.78,185.28 96.02,220.02 74.02,172.78 134.7,141.68 		"/>
		<path style="fill:#E0B955;" d="M135.5,138.56l-64.62,33.12l24.02,51.6l72.38-37.08L135.5,138.56z M134.7,141.68l29.08,43.6
			l-67.76,34.74l-22-47.24L134.7,141.68z"/>
	</g>
	<g>
		<path style="fill:#FF2410;" d="M129.54,190.56c-5.58,2.04-18.28-5.74-23.68-9.58c1.12-1.48,2.18-2.94,3.2-4.3
			c8.12-11.08,12.26-16.24,17.36-13.16c1.08,0.66,1.64,1.48,1.74,2.54c0.34,3.6-4.74,8.98-6.72,10.76c-0.3,0.28-0.42,0.7-0.28,1.08
			s0.48,0.64,0.9,0.66c7.84,0.42,11.1,3.72,11.5,6.44C133.92,187.34,132.34,189.54,129.54,190.56z"/>
		<path style="fill:#D51E0E;" d="M135.54,184.7c-0.5-3.32-3.72-6.98-11.18-7.94c2.28-2.36,6.14-7.02,5.78-10.88
			c-0.14-1.72-1.06-3.08-2.68-4.06c-6.9-4.18-12.12,2.92-20.02,13.68c-1.18,1.6-2.44,3.32-3.78,5.1c-0.16,0.22-0.24,0.48-0.2,0.74
			c0.04,0.26,0.18,0.5,0.4,0.66c0.66,0.5,14.82,10.88,23.58,10.88c1.02,0,1.94-0.14,2.78-0.44
			C133.9,191.1,136.04,187.98,135.54,184.7z M105.86,180.98c1.12-1.48,2.18-2.94,3.2-4.3c8.12-11.08,12.26-16.24,17.36-13.16
			c1.08,0.66,1.64,1.48,1.74,2.54c0.34,3.6-4.74,8.98-6.72,10.76c-0.3,0.28-0.42,0.7-0.28,1.08s0.48,0.64,0.9,0.66
			c7.84,0.42,11.1,3.72,11.5,6.44c0.36,2.34-1.22,4.54-4.02,5.56C123.96,192.6,111.26,184.82,105.86,180.98z"/>
	</g>
	<path style="fill:#E5241C;" d="M87.16,172.86c0,0-1.49,0.85-2.41-0.53c-0.92-1.38,0.62-3.53,6.47-1.64c0,0-1.31,7.48-4.33,5.19
		C85.2,174.59,87.16,172.86,87.16,172.86z"/>
	<path style="fill:#E0B955;" d="M81.59,177.3l-1.65,0.51l-0.21-0.54l1.09-1.22L81.59,177.3z M85.66,177.5l-1.43-2.03l-0.62,0.51
		l0.24,0.61l-1.54,0.48l-1.09-1.46l1.06-1.19l0.57,0.81l0.74-0.76l-1.52-1.99l-0.62,0.13l0.34,1.2l-2.8,3.45l0.45,1.18l4.99-1.17
		l0.32,0.56L85.66,177.5z"/>
	<path style="fill:#E5241C;" d="M151.82,186.24c0,0,1.53-0.71,2.31,0.73c0.78,1.43-0.9,3.4-6.47,1.05c0,0,1.92-7.21,4.68-4.71
		C153.89,184.72,151.82,186.24,151.82,186.24z"/>
	<path style="fill:#E0B955;" d="M157.64,182.38l1.66-0.36l0.16,0.55l-1.17,1.1L157.64,182.38z M153.68,181.83l1.23,2.11l0.65-0.44
		l-0.18-0.62l1.55-0.34l0.94,1.52l-1.14,1.07l-0.49-0.84l-0.79,0.68l1.32,2.07l0.62-0.07l-0.23-1.2l3.03-3.13l-0.34-1.2l-4.98,0.72
		l-0.26-0.57L153.68,181.83z"/>
</g>
<g>
	<g>
		<path style="fill:#FFFFFF;" d="M194.88,180.62l-3.66,0.5c-6-5.74-10.16-22.7-10.6-35.48c-0.24-6.88,0.64-11.98,2.32-13.64
			c4.54-4.48,3.2-12.4,1.82-17.16c1.68,1.82,2.9,4.16,3.42,6.74c0.88,4.32-0.2,8.64-3.04,12.16
			C178.92,141.5,191.52,172.7,194.88,180.62z"/>
		<path d="M197.7,181.12c-4.64-10.68-15.64-39.72-10.68-45.88c3.24-4.04,4.52-9.18,3.52-14.12c-0.94-4.64-3.82-8.66-7.68-10.76
			c-0.46-0.24-1.02-0.18-1.38,0.16c-0.38,0.36-0.5,0.9-0.3,1.38c0.06,0.12,5.56,12.98,0.08,18.38c-2.84,2.82-3.22,9.96-3.04,15.44
			c0.48,13.88,5.04,31.72,11.84,37.56c0.22,0.2,0.48,0.3,0.78,0.3c0.04,0,0.1,0,0.16-0.02l5.78-0.78c0.36-0.04,0.68-0.26,0.88-0.6
			C197.84,181.86,197.86,181.46,197.7,181.12z M191.22,181.12c-6-5.74-10.16-22.7-10.6-35.48c-0.24-6.88,0.64-11.98,2.32-13.64
			c4.54-4.48,3.2-12.4,1.82-17.16c1.68,1.82,2.9,4.16,3.42,6.74c0.88,4.32-0.2,8.64-3.04,12.16c-6.22,7.76,6.38,38.96,9.74,46.88
			L191.22,181.12z"/>
	</g>
	<g>
		<polygon style="fill:#FF2410;" points="181.28,112.5 176.38,136.36 156.38,125.32 		"/>
		<path d="M183.28,109.86c-0.3-0.24-0.72-0.26-1.06-0.1L153.8,124.4c-0.34,0.18-0.54,0.52-0.54,0.88c0,0.36,0.2,0.72,0.52,0.88
			l22.82,12.62c0.14,0.08,0.32,0.12,0.48,0.12c0.14,0,0.28-0.04,0.42-0.1c0.28-0.12,0.5-0.38,0.56-0.7l5.6-27.24
			C183.72,110.48,183.58,110.1,183.28,109.86z M156.38,125.32l24.9-12.82l-4.9,23.86L156.38,125.32z"/>
	</g>
</g>
<g>
	<path style="fill:#FF2410;" d="M58.62,189.18c0.24,0.72,0.6,1.68,1.1,2.54c-1.36,0.16-2.88,0.36-4.6,0.6c-7.16,1-7.16,1-9-7
		l-0.14-0.58c-1.94-8.34-2.2-15.8-0.64-17.76c0.22-0.28,0.48-0.4,0.8-0.4c0,0,0,0,0.02,0c2.66,0.02,7.64,2.12,9.32,9.76
		c0.22,0.98,0.78,1.72,1.62,2.16c0.32,0.18,0.68,0.28,1.06,0.36C57.04,182.04,57.62,186.18,58.62,189.18z"/>
	<path style="fill:#FFFFFF;" d="M68.96,191.54c-0.28,0.16-0.76,0.3-1.36,0.4c-1.58,0.3-3.94,0.34-5.26-0.04
		c-0.1-0.04-0.24-0.2-0.42-0.44c-0.52-0.68-1.26-2.12-1.8-4.28c-0.84-3.3-0.76-6.3,0.16-8.28c0.16-0.34,0.34-0.66,0.56-0.94
		c0.36-0.38,2.5-0.96,4.6-1.3c0.06,0,0.1-0.02,0.16-0.02c2.28-0.14,3.46,2.14,4.04,4.1C71.02,185.24,70.22,190.84,68.96,191.54z"/>
	<g>
		<path d="M67.53,190.42c-0.02,0-0.03,0-0.04,0c-0.32-0.01-0.81-0.14-1.27-0.64c-1.37-1.5-1.94-5.89-1.82-8.35
			c0.08-1.65,0.51-2.67,1.3-3.11c0.61-0.34,1.25-0.22,1.62-0.02c0.48,0.27,0.66,0.87,0.4,1.36c-0.22,0.39-0.66,0.59-1.07,0.5
			c-0.08,0.17-0.21,0.56-0.25,1.37c-0.15,2.97,0.73,6.5,1.34,6.94c0.55,0.02,0.9,0.46,0.88,1.02
			C68.58,190.02,68.06,190.42,67.53,190.42z M66.35,180.05C66.35,180.05,66.36,180.05,66.35,180.05
			C66.36,180.05,66.35,180.05,66.35,180.05z"/>
	</g>
	<path d="M63.74,176.94c0,0-0.08,0.04-0.24,0.1c0.1-0.02,0.22-0.04,0.34-0.08C63.8,176.96,63.78,176.94,63.74,176.94z"/>
	<path d="M71.56,180.14c-1.14-3.74-3.3-5.68-6.14-5.48h-0.06c-1.52,0.22-5.18,0.86-6.1,2.08c-0.06,0.08-0.1,0.14-0.14,0.22
		c-0.44-0.02-0.82-0.1-1.1-0.24c-0.32-0.16-0.5-0.42-0.6-0.82c-1.94-8.86-7.98-11.28-11.24-11.32c-0.02,0-0.02,0-0.04,0
		c-0.94,0-1.76,0.4-2.36,1.16c-3.16,3.9-0.34,16.88,0.24,19.44l0.14,0.6c1.54,6.68,2.22,8.9,6.86,8.9c1.18,0,2.6-0.14,4.36-0.38
		c2.26-0.32,4.18-0.56,5.84-0.74c0.18,0.12,0.36,0.2,0.56,0.26c0.82,0.24,1.92,0.34,3.08,0.34c1.98,0,4.08-0.32,5.1-0.88
		C72.52,191.82,72.98,184.84,71.56,180.14z M46.12,185.32l-0.14-0.58c-1.94-8.34-2.2-15.8-0.64-17.76c0.22-0.28,0.48-0.4,0.8-0.4
		c0,0,0,0,0.02,0c2.66,0.02,7.64,2.12,9.32,9.76c0.22,0.98,0.78,1.72,1.62,2.16c0.32,0.18,0.68,0.28,1.06,0.36
		c-1.12,3.18-0.54,7.32,0.46,10.32c0.24,0.72,0.6,1.68,1.1,2.54c-1.36,0.16-2.88,0.36-4.6,0.6
		C47.96,193.32,47.96,193.32,46.12,185.32z M68.96,191.54c-0.28,0.16-0.76,0.3-1.36,0.4c-0.88,0.16-1.98,0.26-3.02,0.24
		c-0.86-0.02-1.66-0.12-2.24-0.28c-0.1-0.04-0.24-0.2-0.42-0.44c-0.52-0.68-1.26-2.12-1.8-4.28c-0.84-3.3-0.76-6.3,0.16-8.28
		c0.16-0.34,0.34-0.66,0.56-0.94c0.06-0.08,0.18-0.14,0.36-0.24c0,0,0.02,0,0.04,0c0.48-0.22,1.3-0.46,2.24-0.66
		c0,0,0-0.02,0.02-0.02c0.16-0.06,0.24-0.1,0.24-0.1c0.04,0,0.06,0.02,0.1,0.02c0.52-0.1,1.06-0.2,1.6-0.3
		c0.06,0,0.1-0.02,0.16-0.02c2.28-0.14,3.46,2.14,4.04,4.1C71.02,185.24,70.22,190.84,68.96,191.54z"/>
</g>
<g>
	<path style="fill:#FF2410;" d="M78.6,211.52c0.6,0.42,1.64,1.14,2.74,1.64c-1.1,1-2.34,2.14-3.72,3.44
		c-6.14,5.76-6.88,5.76-13.42,0.08c-10.14-8.82-11.1-12.38-11.04-13.5c0.02-0.4,0.18-0.7,0.52-0.94c0.5-0.34,3.48-2.32,7.3-2.32
		c2.34,0,4.98,0.74,7.58,3.06c0.74,0.66,1.62,0.94,2.58,0.8c0.42-0.06,0.82-0.2,1.22-0.4C73.24,206.6,75.98,209.58,78.6,211.52z"/>
	<path d="M76.08,198.34c0,0-0.02,0.02-0.04,0.06c0.04-0.02,0.06-0.04,0.08-0.08C76.1,198.32,76.1,198.34,76.08,198.34z"/>
	<path d="M85,196.34c-3.24-2.54-6.46-2.9-8.78-0.94c-0.02,0-0.04,0.02-0.06,0.04c-1.18,1.12-3.98,3.94-4.06,5.5
		c0,0.1-0.02,0.22-0.02,0.32c-0.42,0.28-0.84,0.48-1.22,0.54c-0.36,0.06-0.66-0.04-0.96-0.3c-7.96-7.12-16.44-1.54-17.38-0.88
		c-0.84,0.58-1.32,1.44-1.36,2.46c-0.16,3.12,3.78,8.2,11.74,15.12c3.62,3.14,5.92,4.72,8.16,4.72c2.26,0,4.48-1.62,7.92-4.86
		c1.78-1.68,3.34-3.1,4.68-4.32c0.22,0,0.46-0.04,0.66-0.12c2.32-0.86,5.92-3.8,6.76-5.52C92.46,205.32,88.88,199.4,85,196.34z
		 M64.2,216.68c-10.14-8.82-11.1-12.38-11.04-13.5c0.02-0.4,0.18-0.7,0.52-0.94c0.5-0.34,3.48-2.32,7.3-2.32
		c2.34,0,4.98,0.74,7.58,3.06c0.74,0.66,1.62,0.94,2.58,0.8c0.42-0.06,0.82-0.2,1.22-0.4c0.88,3.22,3.62,6.2,6.24,8.14
		c0.6,0.42,1.64,1.14,2.74,1.64c-1.1,1-2.34,2.14-3.72,3.44C71.48,222.36,70.74,222.36,64.2,216.68z M89.3,207.22
		c-0.16,0.34-0.56,0.82-1.08,1.32c-0.7,0.7-1.64,1.48-2.58,2.1c-0.7,0.5-1.4,0.9-2,1.12c-0.12,0.02-0.34,0-0.64-0.1
		c-0.82-0.22-2.24-0.94-3.92-2.3c-2.2-1.78-4.5-4.52-4.9-7.2c-0.08-0.36-0.1-0.74-0.08-1.1c0.02-0.1,0.08-0.26,0.2-0.44
		c0.3-0.52,0.94-1.32,1.72-2.18c0-0.02,0.02-0.02,0.02-0.04c0.02-0.04,0.04-0.06,0.04-0.06c0.02,0,0.02-0.02,0.04-0.02
		c0.38-0.4,0.8-0.82,1.22-1.24l0.18-0.18c2-1.64,4.5-0.36,6.24,1.02C87.52,200.88,89.96,205.88,89.3,207.22z"/>
	<path style="fill:#FFFFFF;" d="M89.3,207.22c-0.16,0.34-0.56,0.82-1.08,1.32c-1.24,1.24-3.2,2.7-4.58,3.22
		c-0.12,0.02-0.34,0-0.64-0.1c-0.82-0.22-2.24-0.94-3.92-2.3c-2.2-1.78-4.5-4.52-4.9-7.2c-0.08-0.36-0.1-0.74-0.08-1.1
		c0.08-0.54,1.56-2.36,3.24-3.98l0.18-0.18c2-1.64,4.5-0.36,6.24,1.02C87.52,200.88,89.96,205.88,89.3,207.22z"/>
	<g>
		<path d="M86.3,207.5c-0.15,0-0.32-0.02-0.5-0.05c-2.07-0.45-5.13-3.73-6.45-5.82c-0.88-1.4-1.12-2.49-0.73-3.34
			c0.3-0.65,0.91-0.95,1.34-1.02c0.53-0.07,1.05,0.3,1.13,0.85c0.07,0.48-0.21,0.92-0.65,1.08c0.01,0.17,0.11,0.58,0.6,1.36
			c1.6,2.54,4.45,4.95,5.25,4.95c0.01,0,0.01,0,0.02,0c0.46-0.31,1.02-0.15,1.33,0.31c0.3,0.46,0.12,1.1-0.34,1.41
			C87.08,207.36,86.75,207.5,86.3,207.5z"/>
	</g>
</g>
<g>
	<g>
		<path style="fill:#FFFFFF;" d="M174.48,148.54c0,1.06-0.08,2.12-0.24,3.18c-0.86,5.62-3.84,10.58-8.42,13.94
			c-4.58,3.38-10.2,4.76-15.8,3.92c-5.62-0.86-10.58-3.84-13.94-8.42c-3.38-4.56-4.76-10.18-3.92-15.8
			c1.6-10.52,10.7-18.1,21.02-18.1c1.06,0,2.12,0.08,3.2,0.24C166.92,129.1,174.48,138.2,174.48,148.54z"/>
		<path d="M156.74,125.14c-12.9-1.96-25,6.96-26.94,19.86c-0.96,6.26,0.6,12.5,4.34,17.58c3.76,5.1,9.26,8.42,15.52,9.36
			c1.2,0.2,2.4,0.28,3.58,0.28c5.02,0,9.9-1.6,14-4.62c5.1-3.76,8.42-9.26,9.36-15.52C178.56,139.18,169.64,127.1,156.74,125.14z
			 M174.24,151.72c-0.86,5.62-3.84,10.58-8.42,13.94c-4.58,3.38-10.2,4.76-15.8,3.92c-5.62-0.86-10.58-3.84-13.94-8.42
			c-3.38-4.56-4.76-10.18-3.92-15.8c1.6-10.52,10.7-18.1,21.02-18.1c1.06,0,2.12,0.08,3.2,0.24c10.54,1.6,18.1,10.7,18.1,21.04
			C174.48,149.6,174.4,150.66,174.24,151.72z"/>
	</g>
	<circle style="fill:#FFBFBA;" cx="163.13" cy="150.05" r="7.32"/>
	
		<ellipse transform="matrix(0.2904 -0.9569 0.9569 0.2904 -42.1244 235.3536)" style="fill:#FFBFBA;" cx="137.62" cy="146.08" rx="7.32" ry="5.37"/>
</g>
<g>
	<g>
		<path style="fill:#FFFFFF;" d="M161.3,224.86l-0.12,0.4c-0.06,0.18-0.2,0.34-0.36,0.42c-0.18,0.1-0.38,0.12-0.56,0.04
			L37.52,184.86c-0.28-0.1-0.38-0.3-0.44-0.42c-0.04-0.12-0.1-0.36,0.04-0.62c0.18-0.3,0.52-0.44,0.86-0.32l122.86,40.46
			C161.2,224.08,161.42,224.48,161.3,224.86z"/>
		<path d="M161.6,221.68L38.72,181.22c-1.42-0.48-2.98,0.14-3.7,1.46c-0.44,0.82-0.5,1.78-0.16,2.64c0.34,0.86,1.02,1.52,1.9,1.8
			L159.5,228c0.32,0.12,0.66,0.16,1,0.16c0.48,0,0.96-0.1,1.42-0.34c0.74-0.38,1.3-1.04,1.54-1.84l0.12-0.4
			C164.1,223.96,163.2,222.22,161.6,221.68z M160.26,225.72L37.52,184.86c-0.28-0.1-0.38-0.3-0.44-0.42
			c-0.04-0.12-0.1-0.36,0.04-0.62c0.18-0.3,0.52-0.44,0.86-0.32l122.86,40.46c0.36,0.12,0.58,0.52,0.46,0.9l-0.12,0.4
			c-0.06,0.18-0.2,0.34-0.36,0.42C160.64,225.78,160.44,225.8,160.26,225.72z"/>
	</g>
	<g>
		<path style="fill:#E0B955;" d="M58.78,191.44c-0.48,0.18-0.96,0.36-1.42,0.52c-5.58,2.06-7.6,2.62-8.36,1
			c-0.18-0.38-0.1-0.54-0.04-0.62c0.48-0.92,2.9-1.66,4.38-1.88c0.48-0.08,0.88-0.42,0.98-0.9c0.12-0.46-0.06-0.96-0.44-1.26
			c-2.2-1.6-2.76-3.2-2.36-4.08c0.2-0.44,0.68-0.68,1.28-0.68c0.18,0,0.4,0.02,0.6,0.06C55.12,184.02,57.42,188.12,58.78,191.44z"/>
		<path d="M61.48,191.74c-0.58-1.58-3.68-9.56-7.52-10.46c-2-0.48-3.86,0.3-4.62,1.94c-0.62,1.34-0.5,3.34,1.32,5.4
			c-1.44,0.46-3.12,1.26-3.82,2.58c-0.32,0.6-0.58,1.56-0.02,2.78c0.8,1.68,2.06,2.32,3.7,2.32c2,0,4.6-0.96,7.68-2.08
			c0.8-0.3,1.66-0.62,2.56-0.94c0.3-0.1,0.54-0.34,0.68-0.62C61.58,192.36,61.58,192.04,61.48,191.74z M57.36,191.96
			c-5.58,2.06-7.6,2.62-8.36,1c-0.18-0.38-0.1-0.54-0.04-0.62c0.48-0.92,2.9-1.66,4.38-1.88c0.48-0.08,0.88-0.42,0.98-0.9
			c0.12-0.46-0.06-0.96-0.44-1.26c-2.2-1.6-2.76-3.2-2.36-4.08c0.2-0.44,0.68-0.68,1.28-0.68c0.18,0,0.4,0.02,0.6,0.06
			c1.72,0.42,4.02,4.52,5.38,7.84C58.3,191.62,57.82,191.8,57.36,191.96z"/>
	</g>
	<g>
		<path style="fill:#FF2410;" d="M45.58,180.68c-0.82,1.52-5.12,2.42-7.92,2.58c-0.44,0.02-0.8,0.32-0.92,0.72
			c-0.12,0.42,0.04,0.86,0.4,1.1c4.28,2.96,5.48,5.8,4.78,7.28c-0.54,1.16-2.24,1.56-4.24,1c-4.1-1.14-18.52-11.88-27.32-18.76
			c1.28,0.02,2.52,0.06,3.74,0.08c17.5,0.34,29.04,0.58,31.3,4.5C45.86,179.98,45.72,180.42,45.58,180.68z"/>
		<path d="M47.14,178.18c-2.82-4.9-13.54-5.12-33-5.5c-2.14-0.04-4.38-0.1-6.72-0.14c-0.48-0.02-0.82,0.26-0.96,0.66
			c-0.16,0.4-0.02,0.86,0.32,1.12c0.98,0.78,24.36,19.3,30.36,20.96c0.76,0.22,1.5,0.32,2.2,0.32c2.02,0,3.68-0.86,4.4-2.4
			c0.88-1.88,0.32-4.92-3.46-8.22c2.46-0.4,5.96-1.3,7.06-3.34C47.74,180.92,48.02,179.72,47.14,178.18z M45.58,180.68
			c-0.82,1.52-5.12,2.42-7.92,2.58c-0.44,0.02-0.8,0.32-0.92,0.72c-0.12,0.42,0.04,0.86,0.4,1.1c4.28,2.96,5.48,5.8,4.78,7.28
			c-0.54,1.16-2.24,1.56-4.24,1c-4.1-1.14-18.52-11.88-27.32-18.76c1.28,0.02,2.52,0.06,3.74,0.08c17.5,0.34,29.04,0.58,31.3,4.5
			C45.86,179.98,45.72,180.42,45.58,180.68z"/>
	</g>
	<g>
		<path d="M62.72,188.8c-1.76-0.86-3.88-0.14-4.74,1.62c-0.86,1.76-0.14,3.88,1.62,4.74c0.5,0.24,1.02,0.36,1.56,0.36
			c0.38,0,0.78-0.06,1.14-0.18c0.9-0.32,1.62-0.94,2.04-1.8C65.2,191.78,64.48,189.66,62.72,188.8z M62.2,192.48
			c-0.14,0.28-0.38,0.48-0.66,0.58c-0.3,0.1-0.6,0.08-0.88-0.06c-0.58-0.26-0.8-0.96-0.52-1.52c0.2-0.4,0.6-0.64,1.02-0.64
			c0.18,0,0.34,0.04,0.5,0.12C62.24,191.24,62.46,191.92,62.2,192.48z"/>
		<path style="fill:#FFFFFF;" d="M62.2,192.48c-0.14,0.28-0.38,0.48-0.66,0.58c-0.3,0.1-0.6,0.08-0.88-0.06
			c-0.58-0.26-0.8-0.96-0.52-1.52c0.2-0.4,0.6-0.64,1.02-0.64c0.18,0,0.34,0.04,0.5,0.12C62.24,191.24,62.46,191.92,62.2,192.48z"/>
	</g>
	<g>
		<path d="M50.02,184.56c-0.86-0.42-1.82-0.48-2.72-0.16c-0.9,0.3-1.62,0.94-2.04,1.78c-0.84,1.76-0.12,3.9,1.64,4.74
			c0.5,0.26,1.02,0.38,1.54,0.38c1.32,0,2.58-0.74,3.2-2c0.24-0.5,0.36-1.02,0.36-1.54C52,186.44,51.26,185.18,50.02,184.56z
			 M49.48,188.24c-0.28,0.58-0.96,0.82-1.52,0.54c-0.58-0.28-0.82-0.98-0.54-1.54c0.14-0.28,0.38-0.48,0.66-0.58
			c0.12-0.04,0.26-0.06,0.38-0.06c0.16,0,0.34,0.04,0.5,0.12C49.52,187,49.76,187.68,49.48,188.24z"/>
		<path style="fill:#FFFFFF;" d="M49.48,188.24c-0.28,0.58-0.96,0.82-1.52,0.54c-0.58-0.28-0.82-0.98-0.54-1.54
			c0.14-0.28,0.38-0.48,0.66-0.58c0.12-0.04,0.26-0.06,0.38-0.06c0.16,0,0.34,0.04,0.5,0.12C49.52,187,49.76,187.68,49.48,188.24z"
			/>
	</g>
</g>
<g>
	<path style="fill:#FFFFFF;" d="M157.92,205.93c-1.8,3.86-6.42,5.55-10.3,3.74c-3.87-1.83-5.55-6.42-3.75-10.29
		c0.86-1.88,2.42-3.31,4.36-4.02c1.94-0.71,4.06-0.61,5.93,0.25l0.41,0.22c1.79,0.97,3.06,2.55,3.66,4.37
		C158.86,202.02,158.78,204.05,157.92,205.93z"/>
	<path d="M160.05,206.9c2.35-5.04,0.09-11.12-4.89-13.42c-2.46-1.13-5.21-1.26-7.74-0.33c-2.53,0.93-4.57,2.79-5.69,5.24
		c-1.15,2.45-1.25,5.19-0.32,7.72c0.84,2.35,2.49,4.25,4.65,5.42c0.19,0.1,0.38,0.21,0.56,0.28c4.86,2.27,10.62,0.33,13.14-4.32
		C159.86,207.29,159.97,207.1,160.05,206.9z M143.87,199.39c0.86-1.88,2.42-3.31,4.36-4.02c1.94-0.71,4.06-0.61,5.93,0.25l0.41,0.22
		c1.79,0.97,3.06,2.55,3.66,4.37c0.62,1.81,0.55,3.84-0.31,5.72c-1.8,3.86-6.42,5.55-10.3,3.74
		C143.75,207.84,142.07,203.25,143.87,199.39z"/>
	<g>
		<path style="fill:#FF2410;" d="M163.18,206.73c-2.27,1.85-5.72,3.57-9.49,1.13c-2.99-1.89-4.5-4-4.45-6.25
			c0.05-3.25,3.15-6.3,5.49-8.16c-0.72,3.27-0.76,6.79,0.76,9.47c0.72,1.26,1.71,2.24,2.95,2.91c1.07,0.58,2.32,0.95,3.75,1.1
			c0.53,0.04,1.03-0.33,1.07-0.87c0.07-0.54-0.33-1.03-0.86-1.09c-2.48-0.25-4.21-1.28-5.21-3.02c-1.86-3.28-0.84-8.75,1.01-12.7
			c2.25-4.85,8.04-3.07,8.29-3c0.02,0.01,0.06,0.01,0.08,0.02l0,0.04c0.1-0.01,0.17-0.02,0.26-0.02c1.89-0.07,3.1,0.65,3.7,2.23
			C172.25,193.08,168.47,202.43,163.18,206.73z"/>
		<path d="M172.37,187.84c-0.87-2.3-2.8-3.52-5.42-3.5c-2.68-0.81-8.03-0.94-10.42,3.92c-0.01,0.02-0.05,0.04-0.05,0.06
			c-0.47,0.7-0.74,1.41-0.88,2.07c-2.19,1.45-8.21,5.9-8.31,11.18c-0.05,2.98,1.74,5.65,5.36,7.94c0.2,0.13,0.41,0.27,0.64,0.39
			c3.53,1.92,7.46,1.34,11.13-1.64C170.34,203.43,174.37,193.11,172.37,187.84z M153.69,207.85c-2.99-1.89-4.5-4-4.45-6.25
			c0.05-3.25,3.15-6.3,5.49-8.16c-0.72,3.27-0.76,6.79,0.76,9.47c0.72,1.26,1.71,2.24,2.95,2.91c1.07,0.58,2.32,0.95,3.75,1.1
			c0.53,0.04,1.03-0.33,1.07-0.87c0.07-0.54-0.33-1.03-0.86-1.09c-2.48-0.25-4.21-1.28-5.21-3.02c-1.86-3.28-0.84-8.75,1.01-12.7
			c2.25-4.85,8.04-3.07,8.29-3c0.02,0.01,0.06,0.01,0.08,0.02l0,0.04c0.1-0.01,0.17-0.02,0.26-0.02c1.89-0.07,3.1,0.65,3.7,2.23
			c1.7,4.56-2.07,13.91-7.36,18.2C160.91,208.57,157.46,210.29,153.69,207.85z"/>
	</g>
</g>
<g>
	<path style="fill:#D21E0F;" d="M149.24,151.92c0,0-1.74-4.4-3.65-2.87c-1.91,1.52,0.13,3.93,2.85,8.16c0,0,5.47-3.59,5.47-6.02
		S150.93,147.99,149.24,151.92z"/>
	<path d="M146.05,144.66c-0.14,0-0.28-0.01-0.42-0.03c-0.74-0.11-1.39-0.5-1.83-1.1c-0.44-0.6-0.63-1.34-0.51-2.08
		c0.23-1.52,1.64-2.58,3.18-2.34c0.74,0.11,1.39,0.5,1.83,1.1c0.44,0.6,0.63,1.34,0.51,2.08
		C148.6,143.67,147.41,144.66,146.05,144.66z M146.05,141.08c-0.17,0-0.33,0.05-0.47,0.15c-0.17,0.13-0.28,0.31-0.31,0.52
		s0.02,0.42,0.15,0.59c0.13,0.17,0.31,0.28,0.52,0.31c0.43,0.06,0.84-0.24,0.9-0.67c0.03-0.21-0.02-0.42-0.15-0.59
		c-0.13-0.17-0.31-0.28-0.52-0.31C146.13,141.08,146.08,141.08,146.05,141.08z"/>
	<path d="M155.75,146.13c-0.14,0-0.28-0.01-0.43-0.03c-0.74-0.11-1.39-0.5-1.83-1.1c-0.44-0.6-0.62-1.34-0.51-2.08
		s0.5-1.39,1.1-1.83c0.61-0.45,1.34-0.62,2.08-0.51c1.52,0.23,2.57,1.66,2.34,3.18c-0.11,0.74-0.5,1.39-1.1,1.83
		C156.92,145.94,156.34,146.13,155.75,146.13z M155.75,142.54c-0.17,0-0.33,0.05-0.47,0.15c-0.17,0.13-0.28,0.31-0.31,0.52
		c-0.06,0.43,0.23,0.84,0.67,0.9c0.2,0.03,0.42-0.02,0.59-0.15s0.28-0.31,0.31-0.52l0,0c0.03-0.21-0.02-0.42-0.15-0.59
		c-0.13-0.17-0.31-0.28-0.52-0.31C155.83,142.54,155.78,142.54,155.75,142.54z"/>
	<g>
		<path d="M153.87,154.45c-0.03,0-0.06,0-0.1,0l-9.17-0.86c-0.55-0.05-0.95-0.54-0.9-1.09c0.05-0.55,0.51-0.94,1.09-0.9l9.17,0.86
			c0.55,0.05,0.95,0.54,0.9,1.09C154.82,154.06,154.38,154.45,153.87,154.45z"/>
	</g>
</g>
<g>
	<path style="fill:#FFFFFF;" d="M168.44,137.3c-0.38,0.18-0.74,0.38-1.06,0.66c-2.68-4.84-7.98-9-11.08-11.18
		c3.02-0.18,7.82-0.12,11.04,1.66c5.72,3.18,8.42,6.8,9.7,9.6l-2.8-0.74c0.02-0.2-0.04-0.42-0.16-0.6l-3.46-5.26
		c-0.3-0.46-0.92-0.6-1.38-0.28c-0.46,0.3-0.58,0.92-0.28,1.38l2.78,4.26c-0.44-0.06-0.88-0.08-1.3-0.02
		c-1.26-2.42-5.3-6.6-5.78-7.08c-0.38-0.4-1.02-0.4-1.4-0.02c-0.4,0.38-0.42,1.02-0.02,1.42
		C164.38,132.28,167.3,135.44,168.44,137.3z"/>
	<path style="fill:#FFFFFF;" d="M182.66,152.46c-0.06,1.28-0.92,2.38-2.08,2.64l-4.08,0.92c0.2-0.38,0.34-0.76,0.46-1.18
		c0.54-1.92,0.04-3.9-1.14-5.36l4.64,0.32C181.74,149.9,182.7,151.06,182.66,152.46z"/>
	<path style="fill:#FFFFFF;" d="M175.16,153.24c0,0.36-0.04,0.72-0.14,1.08c-0.28,1.04-0.94,1.9-1.88,2.42
		c-0.04,0.02-0.08,0.04-0.12,0.06c-0.7,0.38-1.52,0.52-2.3,0.42c-0.22,0-0.42-0.04-0.62-0.1c-1.04-0.28-1.9-0.94-2.42-1.88
		c-0.54-0.92-0.68-2.02-0.38-3.04c0.28-1.04,0.94-1.9,1.88-2.42c0.56-0.34,1.18-0.52,1.82-0.52c0.06-0.02,0.1-0.02,0.16-0.02
		c0.34,0,0.7,0.06,1.06,0.16c0.26,0.08,0.52,0.16,0.76,0.3c0.7,0.34,1.28,0.88,1.66,1.58C175,151.88,175.16,152.54,175.16,153.24z"
		/>
	<path style="fill:#383838;" d="M171.14,152.82c0.05,0,0.09,0.01,0.14,0.02c0.18,0.05,0.27,0.17,0.31,0.24
		c0.04,0.07,0.1,0.21,0.05,0.4c-0.07,0.26-0.31,0.38-0.5,0.38c-0.05,0-0.09-0.01-0.14-0.02c-0.18-0.05-0.28-0.17-0.31-0.24
		c-0.04-0.07-0.1-0.21-0.05-0.4C170.71,152.94,170.95,152.82,171.14,152.82 M171.14,151.32c-0.89,0-1.7,0.59-1.95,1.49
		c-0.3,1.08,0.34,2.19,1.41,2.48c0.18,0.05,0.36,0.07,0.54,0.07c0.89,0,1.7-0.59,1.95-1.49c0.3-1.08-0.34-2.19-1.41-2.48
		C171.49,151.34,171.31,151.32,171.14,151.32L171.14,151.32z"/>
	<path style="fill:#FFFFFF;" d="M182.4,144.14c-0.28,1.24-1.36,2.16-2.54,2.2l-4.2,0.12c0.28-0.32,0.52-0.68,0.7-1.06
		c0.12-0.24,0.22-0.48,0.3-0.74c0.2-0.58,0.3-1.18,0.3-1.8c0-0.12,0-0.26-0.02-0.38c-0.02-0.56-0.12-1.12-0.3-1.66
		c-0.1-0.32-0.24-0.62-0.4-0.9l1.6,0.42l1.08,0.28v0.02l1.08,0.28l0.74,0.2C181.98,141.44,182.72,142.78,182.4,144.14z"/>
	<path style="fill:#FFFFFF;" d="M174.98,142.76v0.08c0,0.08,0,0.14-0.02,0.22c-0.04,0.5-0.16,1-0.4,1.46
		c-0.16,0.34-0.38,0.64-0.66,0.92c-0.42,0.5-1,0.88-1.64,1.12c-0.02,0-0.02,0-0.04,0c-0.5,0.18-0.98,0.24-1.46,0.2
		c-0.3,0-0.62-0.06-0.92-0.16c-0.02,0-0.06-0.02-0.08-0.02c-0.2-0.06-0.38-0.12-0.58-0.22c-1.2-0.6-1.98-1.72-2.18-2.94
		c-0.04-0.24-0.06-0.5-0.06-0.76c0.02-0.56,0.16-1.14,0.42-1.68c0.02-0.06,0.06-0.12,0.1-0.18c0.2-0.38,0.46-0.72,0.78-1
		c0.74-0.68,1.72-1.06,2.72-1.06c0.2,0,0.4,0.02,0.6,0.04c0.34,0.06,0.64,0.16,0.96,0.3c0.06,0.02,0.14,0.04,0.2,0.08
		c0.26,0.12,0.48,0.26,0.7,0.42c0.62,0.48,1.08,1.12,1.34,1.88C174.9,141.88,174.98,142.32,174.98,142.76z"/>
	<g>
		<circle style="fill:#383838;" cx="170.92" cy="142.83" r="2.02"/>
	</g>
	<path d="M181.5,147.98c1.4-0.56,2.48-1.8,2.84-3.4c0.56-2.42-0.8-4.78-3.08-5.4l-1.84-0.5c-1.14-3.34-3.98-8.04-11.12-12
		c-5.54-3.08-14.7-1.66-15.1-1.6c-0.42,0.08-0.74,0.4-0.82,0.8c-0.08,0.42,0.1,0.84,0.48,1.06c0.12,0.08,9.78,5.86,13.08,12.54
		c-0.16,0.2-0.28,0.4-0.38,0.62c-1.44,2.94-0.26,6.46,2.6,7.96c-1.38,0.78-2.38,2.06-2.8,3.6c-0.42,1.56-0.22,3.18,0.58,4.58
		c0.78,1.38,2.08,2.38,3.62,2.82c0.54,0.14,1.08,0.2,1.6,0.2c0.9,0,1.78-0.2,2.6-0.6l7.24-1.6c2.08-0.46,3.58-2.32,3.66-4.52
		C184.72,150.38,183.4,148.54,181.5,147.98z M176.5,156.02c0.2-0.38,0.34-0.76,0.46-1.18c0.54-1.92,0.04-3.9-1.14-5.36l4.64,0.32
		c1.28,0.1,2.24,1.26,2.2,2.66c-0.06,1.28-0.92,2.38-2.08,2.64L176.5,156.02z M178.92,140.62v0.02l1.08,0.28l0.74,0.2
		c1.24,0.32,1.98,1.66,1.66,3.02c-0.28,1.24-1.36,2.16-2.54,2.2l-4.2,0.12c0.28-0.32,0.52-0.68,0.7-1.06
		c0.12-0.24,0.22-0.48,0.3-0.74c0.2-0.58,0.3-1.18,0.3-1.8c0-0.12,0-0.26-0.02-0.38c-0.02-0.56-0.12-1.12-0.3-1.66
		c-0.1-0.32-0.24-0.62-0.4-0.9l1.6,0.42L178.92,140.62z M156.3,126.78c3.02-0.18,7.82-0.12,11.04,1.66c5.72,3.18,8.42,6.8,9.7,9.6
		l-2.8-0.74c0.02-0.2-0.04-0.42-0.16-0.6l-3.46-5.26c-0.3-0.46-0.92-0.6-1.38-0.28c-0.46,0.3-0.58,0.92-0.28,1.38l2.78,4.26
		c-0.44-0.06-0.88-0.08-1.3-0.02c-1.26-2.42-5.3-6.6-5.78-7.08c-0.38-0.4-1.02-0.4-1.4-0.02c-0.4,0.38-0.42,1.02-0.02,1.42
		c1.14,1.18,4.06,4.34,5.2,6.2c-0.38,0.18-0.74,0.38-1.06,0.66C164.7,133.12,159.4,128.96,156.3,126.78z M167,143.42
		c-0.04-0.24-0.06-0.5-0.06-0.76c0.02-0.56,0.16-1.14,0.42-1.68c0.02-0.06,0.06-0.12,0.1-0.18c0.2-0.38,0.46-0.72,0.78-1
		c0.74-0.68,1.72-1.06,2.72-1.06c0.2,0,0.4,0.02,0.6,0.04c0.34,0.06,0.64,0.16,0.96,0.3c0.06,0.02,0.14,0.04,0.2,0.08
		c0.26,0.12,0.48,0.26,0.7,0.42c0.62,0.48,1.08,1.12,1.34,1.88c0.14,0.42,0.22,0.86,0.22,1.3v0.08c0,0.08,0,0.14-0.02,0.22
		c-0.04,0.5-0.16,1-0.4,1.46c-0.16,0.34-0.38,0.64-0.66,0.92c-0.42,0.5-1,0.88-1.64,1.12c-0.02,0-0.02,0-0.04,0
		c-0.5,0.18-0.98,0.24-1.46,0.2c-0.3,0-0.62-0.06-0.92-0.16c-0.02,0-0.06-0.02-0.08-0.02c-0.2-0.06-0.38-0.12-0.58-0.22
		C167.98,145.76,167.2,144.64,167,143.42z M170.72,157.22c-0.22,0-0.42-0.04-0.62-0.1c-1.04-0.28-1.9-0.94-2.42-1.88
		c-0.54-0.92-0.68-2.02-0.38-3.04c0.28-1.04,0.94-1.9,1.88-2.42c0.56-0.34,1.18-0.52,1.82-0.52c0.06-0.02,0.1-0.02,0.16-0.02
		c0.28,0,0.56,0.04,0.84,0.12c0.08,0,0.14,0.02,0.22,0.04c0.26,0.08,0.52,0.16,0.76,0.3c0.7,0.34,1.28,0.88,1.66,1.58
		c0.36,0.6,0.52,1.26,0.52,1.96c0,0.36-0.04,0.72-0.14,1.08c-0.28,1.04-0.94,1.9-1.88,2.42c-0.04,0.02-0.08,0.04-0.12,0.06
		c-0.4,0.22-0.84,0.36-1.3,0.44C171.38,157.26,171.06,157.26,170.72,157.22z"/>
</g>
</svg>
