<?xml version="1.0" encoding="utf-8"?>
<!-- Generator: Adobe Illustrator 26.0.3, SVG Export Plug-In . SVG Version: 6.00 Build 0)  -->
<svg version="1.1" id="레이어_1" xmlns="http://www.w3.org/2000/svg" xmlns:xlink="http://www.w3.org/1999/xlink" x="0px"
	 y="0px" viewBox="0 0 960 540" style="enable-background:new 0 0 960 540;" xml:space="preserve">
<rect style="fill:#90F1FF;" width="960" height="382.6"/>
<circle style="fill:#FFEB1C;" cx="376" cy="48.3" r="24.1"/>
<g>
	<circle style="fill:#F5F5F5;" cx="338" cy="57.2" r="18.9"/>
	<circle style="fill:#F5F5F5;" cx="363.5" cy="71.6" r="17.6"/>
	<circle style="fill:#F5F5F5;" cx="314.2" cy="73.6" r="15.5"/>
	<rect x="312.5" y="71.6" style="fill:#F5F5F5;" width="51" height="17.6"/>
</g>
<g>
	<circle style="fill:#F5F5F5;" cx="858" cy="73.6" r="24"/>
	<circle style="fill:#F5F5F5;" cx="825.5" cy="92" r="22.4"/>
	<circle style="fill:#F5F5F5;" cx="904.8" cy="99.8" r="14.5"/>
	<circle style="fill:#F5F5F5;" cx="886.8" cy="81.8" r="18"/>
	<rect x="825.5" y="92" style="fill:#F5F5F5;" width="79.4" height="22.4"/>
</g>
<g>
	<circle style="fill:#F5F5F5;" cx="148.7" cy="105.3" r="33"/>
	<circle style="fill:#F5F5F5;" cx="193.3" cy="130.5" r="30.7"/>
	<circle style="fill:#F5F5F5;" cx="84.3" cy="141.3" r="19.9"/>
	<circle style="fill:#F5F5F5;" cx="109" cy="116.5" r="24.7"/>
	<rect x="84.3" y="130.5" style="fill:#F5F5F5;" width="109" height="30.7"/>
</g>
<g>
	<circle style="fill:#F5F5F5;" cx="679.8" cy="92.3" r="42.7"/>
	<circle style="fill:#F5F5F5;" cx="622" cy="124.8" r="39.7"/>
	<circle style="fill:#F5F5F5;" cx="762.9" cy="138.8" r="25.8"/>
	<circle style="fill:#F5F5F5;" cx="731" cy="106.8" r="32"/>
	<rect x="622" y="124.8" style="fill:#F5F5F5;" width="140.9" height="39.7"/>
</g>
<rect y="145.3" style="fill:#5CB7FF;" width="960" height="201.2"/>
<path style="fill:#CBF6FF;" d="M0,351c93,0,853.8,0,960,0V187.7c-6.5,2.5-12.5,8.9-11.2,10.6c-5.7-7.6-17-12.1-27.8-11.2
	c-10.8,0.9-20.7,7.2-24.4,15.6c-5-7.6-14.9-12.8-25.4-13.4c-10.5-0.6-21.2,3.4-27.5,10.3c-7.7-8.3-20.6-13.1-33.3-12.6
	s-24.9,6.5-31.5,15.4c-15.5-12.8-40-21.1-61.9-17.8c-4.1,0.6-38.9,8.8-35.3,13.8c-5.6-7.7-16-13-27-13.7c-11-0.7-22.2,3.2-29.3,10.1
	c2.1-2.1-28.6-5.3-30.9-5.2c-9.4,0.7-21.8,3.3-23.8,12.2c-22.4-18.4-63.9-17.5-85,1.9c-14.3-11.8-40.9-11-54.3,1.5
	c-10.5-13.8-37.6-16.3-51.6-4.7c-5.1-7.9-16.1-13-27-12.6c-10.9,0.4-21.3,6.2-25.6,14.5c-15.3-6.2-35.5-3-46.8,7.6
	c-22.6-23.6-56.1-25.9-89.6-21.1c-4.9,0.7-9.9,1.4-14.8,2.1c-11.3,1.6-22.9,3.3-33,7.8c-2.4,1.1-4.9,2.4-7.7,2.3
	c-2.5,0-4.8-1.1-7.3-1.7c-7.7-1.8-16.3,1.7-24-0.2c-4.5-1.1-7.9-3.9-11.8-6c-14.7-7.9-33.3-5.4-40.7,8.2
	c-7.2-9.5-16.4-15.7-29.8-17.9c-3.8-0.6-14.2-2.3-21.8-2.1V351z"/>
<rect y="212" style="fill:#FFEBB8;" width="960" height="325.3"/>
<g>
	<ellipse style="fill:#F9D38E;" cx="195.5" cy="374.5" rx="24.5" ry="4.6"/>
	<ellipse style="fill:#F9D38E;" cx="782.1" cy="401.6" rx="24.5" ry="4.6"/>
	<ellipse style="fill:#F9D38E;" cx="159.1" cy="364.7" rx="14.2" ry="2.7"/>
	<ellipse style="fill:#F9D38E;" cx="271.4" cy="297.5" rx="14.2" ry="2.7"/>
	<ellipse style="fill:#F9D38E;" cx="77.4" cy="275.8" rx="14.2" ry="2.7"/>
	<ellipse style="fill:#F9D38E;" cx="868.8" cy="266.2" rx="14.2" ry="2.7"/>
	<ellipse style="fill:#F9D38E;" cx="474.2" cy="352.2" rx="14.2" ry="2.7"/>
	<g>
		<ellipse style="fill:#F9D38E;" cx="663.7" cy="342.2" rx="14.2" ry="2.7"/>
		<ellipse style="fill:#F9D38E;" cx="684" cy="350.8" rx="7.9" ry="1.5"/>
		<ellipse style="fill:#F9D38E;" cx="699.7" cy="338" rx="7.9" ry="1.5"/>
		<ellipse style="fill:#F9D38E;" cx="703.6" cy="345.6" rx="3.9" ry="0.7"/>
	</g>
</g>
<path style="fill:#F9D38E;" d="M0,540h960v-80c-1.2,0.1-2.6,0.3-4,0.7c-33,9.2-68.3,15.6-103.2,16.9c-31.3,1.2-58.3-11.8-87.9-19.8
	c-48.5-13.2-101.2-16-151.3-7.9c-28.7,4.6-56.3,12.6-84.7,18.4c-80.9,16.5-167.4,14.5-247.1-5.9c-28.3-7.2-56-16.8-85.3-20.4
	c-25.6-3.2-51.8-1.8-77.7-0.2c-39.6,2.4-79.2,5-118.8,8V540z"/>
</svg>
