<?xml version="1.0" encoding="utf-8"?>
<!-- Generator: Adobe Illustrator 26.5.0, SVG Export Plug-In . SVG Version: 6.00 Build 0)  -->
<svg version="1.1" id="레이어_1" xmlns="http://www.w3.org/2000/svg" xmlns:xlink="http://www.w3.org/1999/xlink" x="0px"
	 y="0px" viewBox="0 0 249 141" style="enable-background:new 0 0 249 141;" xml:space="preserve">
<g>
	<g>
		<defs>
			<path id="XMLID_00000155849185628377499660000007089413880212578993_" d="M46.5,37.1c0.6-0.2,1.1-0.5,1.7-0.7
				c1.8-0.9,3.7-1.8,5.3-3c1.7-1.3,3.2-2.8,4.6-4.4c5.7-6.3,10.7-13.5,17.3-18.9c7.7-6.3,14.8-6.4,24.2-7.2
				C110,1.9,120.4,1,130.7,2.2c12.7,1.4,24.9,6,36.8,10.8c9.3,3.8,18.7,7.9,25.9,15c11.7,11.5,16.4,29.2,28.8,39.9
				c7.4,6.4,18.2,11.2,22.6,20.7c4.5,9.7,2.6,24.4,0.6,34.6c-0.7,3.4-1.7,7-4.2,9.2c-2.1,1.8-4.8,2.6-7.5,3.1
				c-14.1,3-28.5,3.3-42.8,3.6c-40.1,0.9-80.2,1.8-120.2,1c-21.9-0.4-44.3-1.4-64.8-9.4c-1.6-0.6-3.3-1.4-4.2-2.8
				c-1-1.5-0.9-3.4-0.8-5.2c1.1-19,4.7-40.2,12.2-57.7c2.7-6.2,7.4-15.8,12.9-19.8C31.2,41.3,39.9,39.8,46.5,37.1z"/>
		</defs>
		<defs>
			<path id="SVGID_1_" d="M102.8,141c-10.6,0-21.2-0.1-31.8-0.3c-22.6-0.4-44.6-1.5-65.2-9.5c-1.7-0.7-3.6-1.5-4.7-3.3
				c-1.1-1.8-1.1-3.9-1-5.9C0.9,106.6,3.8,84,12.3,64c3-7,7.7-16.2,13.3-20.2c3.7-2.7,8.7-4.2,13.5-5.7c2.7-0.8,5.2-1.6,7.5-2.5l0,0
				c0.6-0.2,1.1-0.5,1.6-0.7c1.6-0.8,3.5-1.7,5.1-2.9c1.7-1.2,3.1-2.8,4.5-4.3c1.7-1.9,3.4-4,5.1-6c3.8-4.6,7.7-9.3,12.4-13.1
				c7.4-6,14.2-6.6,22.7-7.3l2.1-0.2c10.2-0.9,20.7-1.8,31.2-0.6c13.2,1.5,26.1,6.4,37,10.9c9.7,3.9,18.9,8.1,26.2,15.2
				c5.7,5.5,9.8,12.6,13.7,19.4c4.3,7.4,8.7,15,15,20.5c2.2,1.9,4.6,3.6,7.2,5.4c6.1,4.3,12.5,8.7,15.6,15.6
				c3.6,7.8,3.8,19.6,0.7,35.3c-0.7,3.5-1.8,7.3-4.6,9.8c-2.3,2-5.3,2.8-8,3.4c-14.2,3-28.8,3.3-43,3.6
				C162.2,140.3,132.5,141,102.8,141z M47.4,37.6c-2.4,1-5.1,1.8-7.7,2.6c-4.7,1.4-9.5,2.9-12.9,5.4c-5.4,3.9-10.2,13.8-12.6,19.3
				C7.7,80.2,3.4,100.6,2.2,122.2c-0.1,1.7-0.1,3.4,0.6,4.6c0.8,1.2,2.2,1.8,3.7,2.4c20.2,7.9,42,8.9,64.5,9.3
				c40.1,0.8,80.8-0.1,120.2-1c14.1-0.3,28.6-0.6,42.6-3.6c2.5-0.5,5.1-1.2,7-2.9c2.3-2.1,3.2-5.4,3.9-8.6c3-15.2,2.8-26.6-0.5-33.9
				c-2.9-6.4-9-10.6-14.9-14.7c-2.5-1.8-5.1-3.6-7.4-5.5c-6.7-5.7-11.2-13.5-15.5-21c-3.9-6.7-7.9-13.6-13.3-18.9
				c-7-6.9-16.1-10.9-25.6-14.8C156.6,9.1,144,4.2,131,2.7c-10.3-1.2-20.7-0.2-30.7,0.6l-2.1,0.2c-8.5,0.7-14.7,1.2-21.6,6.8
				c-4.5,3.7-8.4,8.3-12.1,12.8c-1.7,2-3.4,4.1-5.1,6c-1.4,1.6-3,3.2-4.8,4.6c-1.8,1.3-3.8,2.3-5.5,3.1C48.6,37.1,48,37.4,47.4,37.6
				L47.4,37.6z"/>
		</defs>
		<use xlink:href="#XMLID_00000155849185628377499660000007089413880212578993_"  style="overflow:visible;fill:#707070;"/>
		<use xlink:href="#SVGID_1_"  style="overflow:visible;"/>
		<clipPath id="XMLID_00000168105333521726004520000010428300419674332067_">
			<use xlink:href="#XMLID_00000155849185628377499660000007089413880212578993_"  style="overflow:visible;"/>
		</clipPath>
		
			<clipPath id="SVGID_00000093159016176696113490000014237582088489207219_" style="clip-path:url(#XMLID_00000168105333521726004520000010428300419674332067_);">
			<use xlink:href="#SVGID_1_"  style="overflow:visible;"/>
		</clipPath>
	</g>
	<path style="fill:#848484;" d="M159,85.6c-2.4,9.4-6.9,26.6-18.3,13.8c-3.6-4-5-10.7-11.4-10.4c-2.9,0.2-5.5,2-7,4.6
		c-3.9,6.7-7.1,16-14.5,19.6c-3,1.5-6.5,1.8-9.9,2c-5.1,0.3-33.1,3.8-35.4-0.5c-0.4-0.7-0.5-1.6-0.4-2.4c0.3-6.3,1.5-12.6,2.8-18.7
		c1.4-6.2,2.4-12.8,5.6-18.3c1.6-2.8,3.7-5.3,5.1-8.2c1.4-2.9,2.2-6.4,0.8-9.4c-9.1,3-14,13-17.5,22.1c-3.4,8.6-6.6,17.2-9.3,26
		c-0.6,2-1.3,4.1-2.6,5.7c-3.8,4.4-15.7-1.5-20.3-3c-3.5-1.1-7.3-2.5-9.5-5.6c-2.4-3.3-2.4-7.7-2.3-11.8c0.2-9.6,0.5-21.4,8.2-28.3
		c6-5.3,15-5,22.1-8c8.4-3.5,16-7,22-14.2c3.3-4,5.9-8.5,9.5-12.2c15.8-16.2,45.8-17.8,66.3-14c0.4,0.1,0.7,0.1,1.1,0.2
		c6,1,10.7,5.7,11.6,11.8C158.6,43.4,162.4,72.4,159,85.6z"/>
	<g>
		<ellipse style="fill:#707070;" cx="106" cy="39.5" rx="2.6" ry="2.6"/>
		<ellipse style="fill:#707070;" cx="97.1" cy="45.5" rx="1.8" ry="1.8"/>
		<ellipse style="fill:#707070;" cx="115.8" cy="46.4" rx="1.8" ry="1.8"/>
		<ellipse style="fill:#707070;" cx="106" cy="53.1" rx="2.6" ry="2.6"/>
		<ellipse style="fill:#707070;" cx="92.8" cy="55.7" rx="2.6" ry="2.6"/>
		<ellipse style="fill:#707070;" cx="121.4" cy="38.9" rx="3.1" ry="3.2"/>
	</g>
	<g>
		<ellipse style="fill:#707070;" cx="38.7" cy="56.8" rx="2.6" ry="2.6"/>
		<ellipse style="fill:#707070;" cx="29.9" cy="62.9" rx="1.8" ry="1.8"/>
		<ellipse style="fill:#707070;" cx="48.6" cy="63.7" rx="1.8" ry="1.8"/>
		<ellipse style="fill:#707070;" cx="38.7" cy="70.5" rx="2.6" ry="2.6"/>
		<ellipse style="fill:#707070;" cx="25.5" cy="73.1" rx="2.6" ry="2.6"/>
		<ellipse style="fill:#707070;" cx="54.1" cy="56.3" rx="3.1" ry="3.2"/>
	</g>
</g>
</svg>
