<?xml version="1.0" encoding="utf-8"?>
<!-- Generator: Adobe Illustrator 24.3.0, SVG Export Plug-In . SVG Version: 6.00 Build 0)  -->
<!DOCTYPE svg PUBLIC "-//W3C//DTD SVG 1.1//EN" "http://www.w3.org/Graphics/SVG/1.1/DTD/svg11.dtd" [
	<!ENTITY ns_extend "http://ns.adobe.com/Extensibility/1.0/">
	<!ENTITY ns_ai "http://ns.adobe.com/AdobeIllustrator/10.0/">
	<!ENTITY ns_graphs "http://ns.adobe.com/Graphs/1.0/">
	<!ENTITY ns_vars "http://ns.adobe.com/Variables/1.0/">
	<!ENTITY ns_imrep "http://ns.adobe.com/ImageReplacement/1.0/">
	<!ENTITY ns_sfw "http://ns.adobe.com/SaveForWeb/1.0/">
	<!ENTITY ns_custom "http://ns.adobe.com/GenericCustomNamespace/1.0/">
	<!ENTITY ns_adobe_xpath "http://ns.adobe.com/XPath/1.0/">
]>
<svg version="1.1" id="레이어_6" xmlns:x="&ns_extend;" xmlns:i="&ns_ai;" xmlns:graph="&ns_graphs;"
	 xmlns="http://www.w3.org/2000/svg" xmlns:xlink="http://www.w3.org/1999/xlink" x="0px" y="0px" viewBox="0 0 220 280"
	 style="enable-background:new 0 0 220 280;" xml:space="preserve">
<style type="text/css">
	.st0{fill:#CB8A55;}
	.st1{fill:#FDF8F5;}
	.st2{fill:#463F3D;}
	.st3{fill:#FEF7F0;}
	.st4{fill:#F62524;}
	.st5{fill:#945B4A;}
	.st6{fill:#F1AA36;}
	.st7{fill:#53413D;}
	.st8{fill-rule:evenodd;clip-rule:evenodd;fill:#CB8A55;}
	.st9{fill:#070707;}
	.st10{fill-rule:evenodd;clip-rule:evenodd;}
	.st11{fill:#9E5C30;}
	.st12{fill-rule:evenodd;clip-rule:evenodd;fill:#FCBF65;}
</style>
<metadata>
	<sfw  xmlns="&ns_sfw;">
		<slices></slices>
		<sliceSourceBounds  bottomLeftOrigin="true" height="244.6" width="157.4" x="31.7" y="23.1"></sliceSourceBounds>
	</sfw>
</metadata>
<g>
	<g>
		<path class="st0" d="M114.7,224.4l-1.3-42.7c0,0,1.1-3.5,5.3-3.2c0,0,4.5,0.5,5.3,8.4c0.1,0.7,4.2,21.4,6.6,36.5
			c1.4,8.9,3.4,15.8,3.4,15.8s6.7,1.8,6.3,10.2c0,0,0.4,4.9-4.2,6H117c-1,0-1.7-0.8-1.8-1.7L114.7,224.4z"/>
		<path d="M136.2,256.9H117c-1.8,0-3.2-1.4-3.3-3.2l-0.5-29.3l-1.3-42.9l0.1-0.2c0.5-1.6,2.5-4.6,6.8-4.2c0.3,0,5.7,0.7,6.6,9.8
			c0,0.2,0.3,1.8,0.7,3.7c1.3,6.9,4.1,21.3,5.9,32.7c1.1,7,2.6,12.9,3.2,14.9c2.8,1.1,6.8,4.5,6.6,11.3c0.1,2.2-0.8,6.4-5.4,7.4
			H136.2z M114.9,181.9l1.3,42.4l0.5,29.3c0,0.1,0.1,0.2,0.3,0.2h18.9c3-0.8,2.9-4,2.9-4.4v-0.1v-0.1c0.3-7.1-5-8.6-5.2-8.7
			l-0.8-0.2l-0.2-0.8c-0.1-0.3-2.1-7.2-3.5-16c-1.8-11.3-4.5-25.7-5.9-32.6c-0.6-3.1-0.7-3.8-0.7-4c-0.7-6.5-3.8-7.1-4-7.1
			C116.1,179.8,115.1,181.3,114.9,181.9z"/>
	</g>
	<path d="M120.1,243.5c-0.2,0-0.5-0.1-0.7-0.3c-0.4-0.4-0.4-1,0-1.4c7-7.4,17.5-1.8,17.6-1.7c0.5,0.3,0.7,0.9,0.4,1.4
		s-0.9,0.7-1.4,0.4c-0.4-0.2-9.2-4.9-15.2,1.3C120.6,243.4,120.3,243.5,120.1,243.5z"/>
</g>
<g>
	<path class="st0" d="M109.1,209.2l1.3-42.3c0-0.3,0-0.5-0.2-0.8c-0.4-0.9-1.8-3-5-2.8c-0.1,0-0.2,0-0.3,0c-0.9,0.2-4.4,1.4-5.1,8.4
		c-0.1,0.7-4.2,21.4-6.6,36.5c-1.1,7-2.6,12.9-3.2,15c-0.1,0.5-1,0.6-1,1.1c-0.1,2.9-1.2,1.4-0.9,8.1c0,0,0.6,8.3,4.9,9.5
		c0.2,0,5,1.6,5.2,1.6l7.2-3.7c0.9,0,1.7-0.8,1.7-1.7L109.1,209.2z"/>
	<path d="M97.1,245.1c-1.9,0-5.2-0.4-7.7-3.2c-3.2-3.6-3.5-9.7-1-18.3l0,0c0-0.1,2-7,3.4-15.6c1.8-11.4,4.5-25.8,5.9-32.7
		c0.4-2,0.7-3.5,0.7-3.8c0.9-9,6.4-9.7,6.6-9.7c4.3-0.4,6.4,2.6,6.9,4.2l0.1,0.2l-1.3,43l-0.6,21.5c0.2,4.6-2,13.4-11.5,14.3
		C98.5,245,97.9,245.1,97.1,245.1z M91.3,224.5c-2.1,7.4-2,12.7,0.4,15.5c2.4,2.7,6.4,2.1,6.4,2.1c9.2-0.9,8.9-10.8,8.9-11.3v-0.1
		l0.6-21.6l1.3-42.4c-0.3-0.6-1.2-2.1-3.6-1.9c-0.1,0-3.2,0.6-3.9,7.1c0,0.2-0.1,0.9-0.7,4c-1.3,6.9-4.1,21.2-5.9,32.6
		C93.4,217.3,91.4,224.2,91.3,224.5z"/>
</g>
<g>
	<g>
		<path class="st0" d="M103.3,135.3c-1.6,5-3.9,9.6-5.7,14.4c-3.3,9-5.9,15.2-8,24.6c-0.5,2.3-1.1,5.8-2.5,7.6s-0.9,2.5-4.6,3
			c-1.6,0.2-4.5-1.1-4.9-2.8c-0.9-3.7-0.6-7.6,0.4-11.2c3.2-11.3,7.7-18.5,11.1-27.5c1.6-4.2,3.7-8.1,6-11.9c1.8-3,4.1-7.2,8-6
			C107.3,126.9,104.4,131.9,103.3,135.3z"/>
		<path d="M81.9,186.4c-3,0-5.7-2.3-6.2-5.5c-0.5-3.3-0.2-6.9,0.8-10.5c3.9-13.9,10-28,17.2-39.7l0.4-0.6c1.8-3,4.6-7.6,9.4-6
			c1.3,0.4,2.3,1.2,2.8,2.3c1.1,2.2,0,5-0.9,7.5c-0.2,0.6-0.5,1.3-0.7,1.9l0,0c-0.9,2.9-2.1,5.8-3.3,8.5c-0.8,2-1.7,4-2.4,6
			c-0.6,1.6-1.1,3.1-1.7,4.5c-2.5,6.8-4.5,12.2-6.3,19.9c-0.1,0.4-0.2,0.8-0.3,1.2c-0.6,2.9-1.3,5.8-3.3,8.2
			c-1.5,1.8-3.2,2.1-4.8,2.3C82.4,186.4,82.2,186.4,81.9,186.4z M101.7,126.8c-1.9,0-3.3,2.1-5,4.9l-0.4,0.6
			c-7.1,11.5-13.1,25.3-16.9,38.9c-0.9,3.2-1.1,6.3-0.7,9.2c0.3,1.9,1.9,3.2,3.6,3c1.3-0.2,2.1-0.4,2.8-1.3c1.5-1.8,2.1-4.3,2.6-6.9
			c0.1-0.4,0.2-0.8,0.3-1.2c1.8-7.9,3.8-13.3,6.4-20.2c0.5-1.4,1.1-2.9,1.7-4.5c0.8-2.1,1.6-4.2,2.5-6.1c1.1-2.7,2.3-5.4,3.2-8.2
			l0,0c0.2-0.6,0.5-1.3,0.7-2c0.7-1.8,1.5-4.1,1-5.1c-0.1-0.2-0.3-0.5-1-0.7C102.3,126.9,102,126.8,101.7,126.8z"/>
	</g>
	<path class="st1" d="M97.5,152.4c0.4,0.1,0.8,0.2,0.9-0.2c2.8-8.4,3.6-11.5,7.2-19.9c2.7-6.4-1.4-8-1.4-8c-4.2-2.6-7,2.8-7,2.8
		c-5.3,8.2-7.9,12.2-11.7,20.5c-0.2,0.5,0.3,1.1,0.7,0.8l5.6,2.3C91.8,150.6,95.4,151.6,97.5,152.4z"/>
	<path class="st2" d="M87.6,142.6c0,0,7.6,3.7,11.9,4.5l0.2-3.8c0,0-9.2-3.2-10.4-4.7L87.6,142.6z"/>
	<path class="st2" d="M91.9,135.8c0,0,6.4,3.2,9.9,4.5l1.2-3c0,0-8.2-3.4-8.9-4.5C93.4,131.6,91.9,135.8,91.9,135.8z"/>
	<path d="M97.4,154.1c-0.3,0-0.6-0.1-1-0.2l0,0c-2-0.8-5.6-1.7-5.6-1.8l-0.2-0.1l-5.2-2.1c-0.5,0-1.1-0.1-1.5-0.5
		c-0.7-0.6-0.9-1.6-0.5-2.5c3.9-8.4,6.5-12.4,11.8-20.7c0.3-0.6,1.9-3.3,4.7-4.1c1.4-0.4,2.9-0.2,4.3,0.7c0.5,0.2,1.9,1,2.6,2.9
		c0.8,1.9,0.6,4.3-0.6,7.1c-2.8,6.7-3.9,10-5.7,15.5c-0.4,1.3-0.9,2.7-1.4,4.4c-0.2,0.5-0.5,0.9-1,1.2C98,154,97.7,154.1,97.4,154.1
		z M91.7,149.3c0.5,0.1,3.1,0.9,5,1.6c0.4-1.2,0.8-2.3,1.1-3.4c1.8-5.5,2.9-8.9,5.8-15.7c2-4.7-0.3-5.9-0.6-6.1l-0.2-0.1
		c-0.7-0.4-1.4-0.6-2-0.4c-1.4,0.4-2.5,2.1-2.8,2.6l-0.1,0.1c-5.1,7.8-7.6,11.7-11.2,19.3L91.7,149.3z"/>
</g>
<g>
	<g>
		<path class="st0" d="M118.2,136.2c1.5,5,3.9,9.6,5.6,14.5c3.2,9.1,5.8,15.2,7.8,24.7c0.5,2.3,1,5.9,2.4,7.6c1.4,1.8,0.9,2.5,4.5,3
			c1.6,0.2,4.5-1.1,4.9-2.8c0.9-3.6,0.7-7.6-0.3-11.3c-3.1-11.3-7.5-18.6-10.9-27.5c-1.6-4.2-3.6-8.1-5.8-11.9c-1.8-3-4-7.3-7.9-6
			C114.2,127.8,117.1,132.7,118.2,136.2z"/>
		<path d="M139.1,187.5c-0.3,0-0.5,0-0.8-0.1c-1.5-0.2-3.3-0.6-4.7-2.4c-2-2.4-2.6-5.4-3.2-8.2c-0.1-0.4-0.2-0.8-0.3-1.2
			c-1.7-7.7-3.6-13.1-6.1-19.9c-0.5-1.5-1.1-3-1.6-4.6c-0.7-2-1.6-4.1-2.4-6c-1.1-2.7-2.3-5.6-3.2-8.5c-0.2-0.6-0.4-1.2-0.7-1.9
			c-0.9-2.5-2-5.3-0.9-7.5c0.5-1.1,1.5-1.8,2.8-2.3c4.8-1.5,7.5,3.1,9.3,6.1l0.4,0.6c7.1,11.8,13.1,26,16.9,39.8
			c1,3.6,1.2,7.2,0.7,10.5C144.8,185.2,142.1,187.5,139.1,187.5z M119.8,127.7c-0.3,0-0.6,0-0.9,0.1c-0.7,0.2-0.9,0.5-1,0.7
			c-0.5,1,0.3,3.3,1,5.1c0.3,0.7,0.5,1.4,0.7,2l0,0c0.9,2.8,2,5.6,3.1,8.2c0.8,2,1.7,4.1,2.4,6.2c0.6,1.6,1.1,3.1,1.6,4.5
			c2.5,6.9,4.5,12.4,6.2,20.3c0.1,0.4,0.2,0.8,0.3,1.2c0.5,2.6,1.1,5.1,2.6,6.9c0.7,0.9,1.5,1.1,2.8,1.3c1.7,0.2,3.3-1.1,3.6-2.9
			c0.5-2.9,0.2-6-0.6-9.2c-3.7-13.6-9.6-27.5-16.6-39.1l-0.4-0.6C123.1,129.8,121.7,127.7,119.8,127.7z"/>
	</g>
	<path class="st1" d="M123.7,153.4c-0.4,0.1-0.8,0.2-0.9-0.2c-2.7-8.4-3.5-11.6-7-20c-2.7-6.4,1.5-8,1.5-8c4.2-2.5,7,2.9,7,2.9
		c5.3,8.3,7.8,12.3,11.6,20.6c0.2,0.5-0.3,1.1-0.7,0.8l-5.6,2.2C129.5,151.6,125.9,152.6,123.7,153.4z"/>
	<path class="st2" d="M133.8,143.7c0,0-7.7,3.6-11.9,4.4l-0.2-3.8c0,0,9.3-3.1,10.4-4.6L133.8,143.7z"/>
	<path class="st2" d="M129.6,136.8c0,0-6.4,3.1-9.9,4.4l-1.2-3.1c0,0,8.2-3.3,8.9-4.4C128.1,132.6,129.6,136.8,129.6,136.8z"/>
	<path d="M123.9,155.1c-0.4,0-0.7-0.1-0.9-0.2c-0.5-0.2-0.8-0.6-1-1.2c-0.5-1.6-1-3.1-1.4-4.4c-1.7-5.5-2.8-8.8-5.6-15.5
		c-1.1-2.8-1.3-5.2-0.5-7.1c0.8-1.8,2.2-2.6,2.7-2.8c1.4-0.8,2.9-1,4.3-0.6c2.7,0.8,4.3,3.5,4.6,4.1c5.3,8.3,7.8,12.3,11.6,20.8
		c0.4,0.9,0.2,1.8-0.5,2.5c-0.4,0.4-1,0.5-1.5,0.5l-5.3,2.1c0,0-3.6,1-5.6,1.7l0,0C124.5,155,124.2,155.1,123.9,155.1z M120.2,126
		c-0.5,0-0.9,0.2-1.5,0.5l-0.2,0.1c-0.2,0.1-2.6,1.3-0.6,6c2.8,6.8,3.9,10.2,5.6,15.7c0.3,1,0.7,2.2,1.1,3.4c2-0.7,4.5-1.4,5-1.5
		l5-2c-3.5-7.6-6-11.6-11-19.4l-0.1-0.1c-0.3-0.6-1.4-2.3-2.8-2.7C120.6,126.1,120.4,126,120.2,126z"/>
</g>
<g>
	<g>
		<path class="st0" d="M102.4,132.8c1.5,1.1,3.5,0.9,5.3,1c0.3,0,0.6,0.2,0.6,0.6c0.3,1.5,0.9,2.7,1.6,4c0.3,0.5,1.1,0.5,1.2-0.1
			c0.4-1.3,0.8-2.8,1.1-3.9c0.1-0.2,0.2-0.4,0.5-0.5c1.5-0.4,5.6-1.4,7.9-3.2l0.7-2.2c-0.2-0.7-0.5-1.3-0.9-2
			c-2.2-4-6.8-4.5-10.9-4.4c-6.2,0.2-8.7,2.9-9.8,7.5C100.4,130.7,101.2,131.9,102.4,132.8z"/>
		<path d="M125.1,160.3c-0.2-1.2-0.3-2.6-0.5-3.9l-27.9,0.8c-0.6,5.4-1.2,10.8-2,16.2l-3.1,22.2c-0.2,1.2,1.2,2,2.2,1.2
			c1.1-1,1.9-2.2,3-3c0.2-0.1,0.4-0.1,0.6,0l2.8,2.5c0.7,0.6,1.8,0.5,2.3-0.3c0.9-1.3,1.8-2.9,2.1-3.9c0.8,0.6,2.2,2,3.3,3.3
			c0.6,0.7,1.7,0.4,1.9-0.5c0.4-1.9,1-4,1.4-5.9c0.1-0.3,0.5-0.3,0.6,0c0.5,2.1,1.4,4.2,2.2,6.3c0.3,0.8,1.4,1,1.9,0.3
			c1.1-1.3,1.9-2.6,3.3-3.9l4.6,3.9c0.8,0.7,1.9,0.3,2.3-0.6l0.9-2.5l1.1,0.7c0.9,0.6,2.1-0.2,1.9-1.3
			C128.4,181.2,126.5,171.2,125.1,160.3z"/>
	</g>
	<g>
		<path class="st3" d="M97.9,144.6c-0.1,1.5-0.2,2.8-0.3,3.8h26c-0.2-1.3-0.3-2.6-0.4-3.8H97.9z"/>
		<path class="st3" d="M121.3,128.4l-0.7,2.2c-2.3,1.9-6.4,2.8-7.9,3.2c-0.2,0.1-0.4,0.2-0.5,0.5c-0.3,1-0.7,2.6-1.1,3.9
			c-0.2,0.6-1,0.7-1.2,0.1c-0.7-1.3-1.3-2.5-1.6-4c-0.1-0.3-0.3-0.6-0.6-0.6c-1.8,0-3.8,0.1-5.3-1c-1.2-0.9-2.1-2.1-2.8-3.2
			c-0.3,1.3-0.5,2.6-0.7,4.2c-0.2,1.8-0.4,4.9-0.6,7.1h24.4C122.4,137.1,122.6,132,121.3,128.4z"/>
		<path class="st3" d="M96.7,157.2l28.2-0.3c-0.1-1.1-0.6-3.8-0.7-4.9h-27C97,153.5,96.9,155.8,96.7,157.2z"/>
		<path class="st2" d="M122.8,142c0-0.4-0.1-0.7-0.1-1.1H98.3c-0.1,1.6-0.3,2.2-0.4,3.7h25.2C123,143.4,122.9,143.1,122.8,142z"/>
		<path class="st2" d="M97.6,148.7c-0.1,1.4-0.3,1.9-0.4,3.3h27c-0.2-1.5-0.4-2.1-0.6-3.7h-26C97.6,148.5,97.6,148.6,97.6,148.7z"/>
	</g>
	<path class="st4" d="M97.1,156.9l-2.4,12.5c0,0,14.8,3,31.3,0.1l-1.9-13C124.1,156.5,110.2,157.3,97.1,156.9z"/>
	<path d="M92,198.2c-0.2,0-0.4-0.1-0.7-0.2c-0.5-0.2-1.1-0.8-0.9-1.8l3.1-23.1c0.7-5.2,1.4-10.6,2-16.1c0.1-0.9,0.2-1.8,0.3-2.7
		l0.3-2.9c0.1-1,0.2-2,0.3-2.9v-0.3c0.1-0.9,0.2-2,0.3-3.2l0.1-0.6c0.1-1.5,0.3-3.1,0.4-4.7c0.2-2.6,0.4-4.6,0.6-6.2
		c0.2-1.7,0.5-3.1,0.8-4.4c1.5-5.8,4.9-8.5,11.3-8.7c4-0.1,9.6,0.3,12.3,5.2c0.4,0.7,0.7,1.4,1,2.2c1.1,3,1.2,6.3,1.3,9.4
		c0,0.8,0.1,1.7,0.1,2.5c0,0.4,0,0.7,0.1,1.1c0.1,1.1,0.2,2.3,0.4,3.5c0.1,1.2,0.3,2.5,0.4,3.8c0.2,1.5,0.4,3.1,0.6,4.7l0.4,3.4
		c0.2,1.4,0.4,2.7,0.5,3.9c0.8,6,1.7,12.1,2.6,18c0.7,4.8,1.5,9.7,2.2,14.4c0.1,0.6-0.2,1.2-0.7,1.5s-1.2,0.3-1.7-0.1l-6.3-5
		c-0.6-0.5-0.8-1.5-0.2-2.1c0.5-0.6,1.5-0.8,2.1-0.2l3.4,2.7c-0.5-3.6-1.1-7.2-1.6-10.7c-0.9-6-1.9-12.1-2.7-18.1
		c-0.2-1.2-0.3-2.6-0.5-3.9l-0.4-3.4c-0.2-1.6-0.4-3.1-0.6-4.7c-0.2-1.3-0.3-2.6-0.4-3.8s-0.3-2.4-0.4-3.6c0-0.4-0.1-0.7-0.1-1.1
		c-0.1-0.9-0.1-1.8-0.1-2.6c-0.1-2.9-0.2-5.9-1.2-8.5c-0.2-0.6-0.5-1.2-0.8-1.7c-1.5-2.6-4.4-3.8-9.6-3.6c-5.7,0.2-7.5,2.6-8.4,6.4
		c-0.3,1.1-0.5,2.4-0.7,4c-0.2,1.5-0.4,3.5-0.6,6.1c-0.1,1.6-0.3,3.2-0.4,4.7l-0.1,0.6c-0.1,1.2-0.2,2.3-0.3,3.2v0.4
		c-0.1,1-0.2,2-0.3,3l-0.3,2.9c-0.1,0.9-0.2,1.8-0.3,2.7c-0.6,5.6-1.3,11-2,16.2L94,192c0.4-0.5,0.7-0.8,0.9-1
		c0.6-0.5,1.6-0.5,2.1,0.1s0.5,1.6-0.1,2.1c-0.2,0.2-1,1.2-1.6,1.9C93.7,197.3,92.9,198.2,92,198.2z M93.4,196.7L93.4,196.7
		L93.4,196.7z"/>
	<g>
		<path d="M105,150.2c0.3,2.1,0.6,4.3-0.1,6.3c-1.2,3.3-3.8,5-7,6.3c-0.4,0.2-0.9,0.3-1.2,0.1c-0.3-0.2-0.3-0.7-0.3-1.1
			c0-2.2,0.1-4.4,0.2-6.6c0.3-6.3,0.6-12.5,0.9-18.8c0.2-4.7-0.2-8.4,3.7-11.6c1.2,4.2,1.8,8.6,2.6,12.9
			C104.6,141.6,104.6,145,105,150.2z"/>
		<path d="M97.2,163.4c-0.3,0-0.5-0.1-0.8-0.2c-0.5-0.4-0.5-1.1-0.5-1.5c0-2.2,0.1-4.5,0.2-6.7l0.9-18.8c0-0.6,0-1.2,0.1-1.8
			c0.1-3.9,0.2-7.3,3.8-10.2l0.6-0.5l0.2,0.7c0.9,3.1,1.5,6.4,2,9.6c0.2,1.1,0.4,2.2,0.6,3.3c0.5,2.7,0.7,5.1,0.8,7.9
			c0.1,1.4,0.2,3,0.4,4.7c0.3,1.9,0.7,4.3-0.1,6.5c-1.3,3.7-4.4,5.4-7.3,6.6C97.9,163.3,97.6,163.4,97.2,163.4z M101,125.6
			c-2.7,2.5-2.8,5.4-2.9,8.9c0,0.6,0,1.2-0.1,1.8l-0.9,18.8c-0.1,2.2-0.2,4.4-0.2,6.6c0,0.2,0,0.6,0.1,0.7c0.1,0.1,0.4,0,0.7-0.1
			c2.8-1.2,5.5-2.7,6.7-6c0.7-1.9,0.3-4.2,0-6l0,0c-0.2-1.8-0.3-3.3-0.4-4.7c-0.2-2.8-0.3-5.2-0.8-7.8c-0.2-1.1-0.4-2.2-0.6-3.4
			C102.3,131.4,101.8,128.4,101,125.6z"/>
	</g>
	<g>
		<path d="M115.6,150.2c-0.3,2.1-0.6,4.3,0.1,6.3c1.2,3.3,3.8,5,7,6.3c0.4,0.2,0.9,0.3,1.2,0.1c0.3-0.2,0.3-0.7,0.3-1.1
			c0-2.2-0.1-4.4-0.2-6.6c-0.3-6.3-0.6-12.5-0.9-18.8c-0.2-4.7,0.2-8.4-3.7-11.6c-1.2,4.2-1.8,8.6-2.6,12.9
			C116,141.6,116.1,145,115.6,150.2z"/>
		<path d="M123.5,163.4c-0.4,0-0.8-0.2-1-0.2c-2.9-1.2-5.9-2.9-7.3-6.6c-0.8-2.2-0.4-4.6-0.1-6.5c0.2-1.7,0.3-3.3,0.4-4.7
			c0.2-2.8,0.3-5.2,0.8-7.9c0.2-1.1,0.4-2.2,0.6-3.3c0.5-3.2,1.1-6.5,2-9.6l0.2-0.7l0.6,0.5c3.6,2.9,3.7,6.3,3.8,10.2
			c0,0.6,0,1.2,0.1,1.8l0.9,18.8c0.1,2.2,0.2,4.4,0.2,6.7c0,0.3,0,1.1-0.5,1.5C124,163.4,123.7,163.4,123.5,163.4z M119.6,125.6
			c-0.8,2.8-1.3,5.8-1.8,8.7c-0.2,1.1-0.4,2.2-0.6,3.4c-0.5,2.6-0.6,5-0.8,7.8c-0.1,1.4-0.2,3-0.4,4.7l0,0c-0.3,1.8-0.7,4.1,0,6
			c1.2,3.3,3.9,4.8,6.7,6c0.4,0.2,0.6,0.2,0.7,0.1c0.1-0.1,0.1-0.5,0.1-0.7c0-2.2-0.1-4.5-0.2-6.6l-0.9-18.8c0-0.6,0-1.2-0.1-1.8
			C122.4,131,122.3,128.1,119.6,125.6z"/>
	</g>
	<g>
		<path class="st5" d="M126.2,159.1l-6.4,10.2l11.7,15.9l6.4,0.2c1.6,0.1,2.8-1.3,2.7-2.8l-1.1-6.2L126.2,159.1z"/>
		<polygon class="st6" points="128.1,162.4 122.1,171.8 124.5,175.1 130.9,165 		"/>
		<path d="M138.1,187H138l-6.4-0.2c-0.5,0-0.9-0.2-1.2-0.6l-11.7-15.9c-0.4-0.5-0.4-1.2-0.1-1.7l6.4-10.2c0.3-0.4,0.7-0.7,1.2-0.7
			s1,0.2,1.3,0.6l13.4,17.3c0.1,0.2,0.2,0.4,0.3,0.7l1.1,6.2v0.1c0.1,1.2-0.3,2.3-1.1,3.2C140.3,186.5,139.2,187,138.1,187z
			 M132.3,183.8l5.7,0.2c0.4,0,0.7-0.2,0.9-0.4c0.1-0.1,0.3-0.4,0.3-0.8l-1-5.7l-11.9-15.3l-4.7,7.5L132.3,183.8z"/>
	</g>
</g>
<g>
	<g>
		<g>
			<path class="st4" d="M43.1,58.4c0.2,0,0.4-0.1,0.5-0.1c5.2-1,9.3-2.2,13.9-4.9c9.8-5.7,15.3-16.3,24.5-22.7
				c8.6-6.1,19.1-9.4,29.6-9.3c17.3,0.2,33.2,10.1,44.6,22.8c3.3,3.7,6.4,7.8,10.8,10c5,2.5,8.8,2.2,13.9,4.6c1.9,0.9,3.7,2,4.6,3.6
				c0.8-1.6,1.6-3.7,1.6-5.4c0.1-3.1-2.4-4.8-5.2-6.1c-5.2-2.3-9-2.1-14.1-4.6c-4.5-2.3-7.6-6.4-11-10
				c-11.6-12.7-27.8-22.7-45.3-22.8c-10.6-0.1-21.3,3.2-30,9.3c-9.3,6.5-14.9,17-24.8,22.7c-4.6,2.7-8.9,3.9-14.1,4.9
				c-0.2,0-0.4,0.1-0.5,0.1c-3.7,0.8-7.8,2.1-9,5.6c-0.8,2.4,0.1,4.9,1.3,7.2C35.9,60.3,39.7,59.1,43.1,58.4z"/>
			<path class="st7" d="M145.3,88.2c-0.5-1.4-0.9-2.8-1.3-4.2c-2.4,2.5-5.9,5.1-4,5.9c1,0.4,2.9,0.4,5.1,0
				C145.3,89.3,145.5,88.7,145.3,88.2z"/>
			<path d="M185.3,62.8c0.1-0.1,0.1-0.2,0.2-0.4c-0.9-1.6-2.7-3.7-4.7-4.5c-5.1-2.3-8.9-2.1-13.9-4.6c-4.5-2.3-7.4-5.4-10.7-9.1
				c-11.4-12.7-27.4-22.7-44.6-22.8c-10.5-0.1-21,3.2-29.6,9.3c-9.2,6.5-14.7,17-24.5,22.7c-4.1,2.4-8.8,2.9-13.3,3.9
				c-2,0.4-4.1,0.9-5.9,1.9c-0.8,0.5-1.6,1.1-2.3,1.8c-0.3,0.3-1.8,2-1.6,2.4s0.5,0.8,0.8,1.2C42.1,75.1,57.6,84.3,70,85.4
				c2.4,0.2,5.1,0.1,7-1.5c1.3-1.2,3.3-2.4,4-4c4-9.5,5.5-20,14.9-24s20.3-4.2,29.8-0.6c7.5,2.9,14.4,8.5,17.3,16.1
				c1.1,2.9,1.7,6,2.8,9c0.4,1-0.5,2.3-1.8,3.7c0.4,1.4,0.8,2.8,1.3,4.2c0.2,0.5,0.1,1.1-0.3,1.7c6.1-1,14.9-4.4,17.6-6
				C172.1,78.5,180.1,72.5,185.3,62.8z"/>
		</g>
		<path d="M142.2,92c-1.1,0-1.9-0.1-2.6-0.4c-1-0.4-1.3-1.2-1.4-1.6c-0.3-1.6,1.2-3,3.2-5c0.6-0.6,1.2-1.1,1.7-1.7
			c1.5-1.6,1.5-2.1,1.5-2.2c-0.6-1.5-1-3-1.4-4.6c-0.4-1.5-0.8-3-1.4-4.4c-2.6-6.6-8.6-12.2-16.5-15.2c-9.2-3.5-19.6-3.3-28.6,0.5
			c-6.7,3-9.2,9.8-11.7,17c-0.7,2.1-1.5,4.2-2.4,6.3c-0.7,1.6-2.1,2.7-3.3,3.7c-0.4,0.3-0.7,0.6-1,0.9c-2.4,2.1-5.7,2.1-8.1,1.9
			c-13-1.1-28.8-10.5-35.9-21.5c-0.3-0.4-0.5-0.9-0.8-1.3c-1.8-3.2-2.3-6-1.4-8.4c1.5-4.3,6.2-5.8,10.1-6.6l0.6-0.1
			c5.1-1,9.2-2.2,13.7-4.7c5.1-3,9.1-7.3,13.2-11.8c3.5-3.8,7.1-7.8,11.5-10.9c9-6.3,19.9-9.7,30.9-9.6c16.1,0.2,33,8.7,46.4,23.3
			c0.6,0.6,1.2,1.3,1.7,2c2.7,3.1,5.3,6,8.8,7.8c2.5,1.2,4.7,1.8,7,2.3c2.2,0.5,4.4,1.1,7,2.2l0,0c1.7,0.8,6.2,2.8,6.1,7.5
			c0,2.4-1.3,5.1-1.8,6.1v0.1c-0.1,0.1-0.1,0.2-0.2,0.3C181.2,74.7,172,81,163.8,85.6c-2.7,1.5-11.6,5-18.1,6.1
			C144.2,91.9,143.1,92,142.2,92z M141.7,89c0.7,0,1.7,0,3.4-0.3c6-1,14.6-4.4,17.1-5.8c7.9-4.5,16.6-10.4,22.2-20.6l0.2-0.3
			c0.9-1.7,1.5-3.5,1.5-4.8c0-1.9-1.2-3.3-4.4-4.7c-2.3-1.1-4.4-1.5-6.5-2.1c-2.4-0.6-4.8-1.2-7.6-2.5c-4-2-6.9-5.3-9.7-8.5
			c-0.6-0.6-1.1-1.3-1.7-1.9c-12.8-14-28.9-22.2-44.2-22.4c-10.2-0.1-20.6,3.1-29.1,9c-4.1,2.9-7.6,6.7-11,10.4
			C67.8,39,63.5,43.7,58,46.9c-4.8,2.8-9.2,4-14.6,5.1l-0.5,0.1c-3.4,0.7-6.9,1.8-7.9,4.6c-0.5,1.6-0.2,3.6,1.2,6
			c0.2,0.4,0.5,0.8,0.7,1.2C43.5,74,58.6,83,70.6,84c1.8,0.2,4.3,0.2,5.8-1.2c0.4-0.3,0.8-0.6,1.2-1c1-0.8,2.1-1.6,2.4-2.5
			c0.8-2,1.6-4.1,2.3-6.1c2.7-7.5,5.4-15.3,13.4-18.7c9.7-4.2,21-4.4,30.9-0.6c8.6,3.3,15.3,9.5,18.2,16.9c0.6,1.5,1,3.1,1.5,4.7
			c0.4,1.5,0.8,2.9,1.4,4.3c0.7,1.9-0.7,3.8-2.1,5.3c-0.6,0.6-1.2,1.2-1.8,1.8C142.9,87.7,142.2,88.4,141.7,89z"/>
		<path class="st4" d="M73.5,53c-0.9,0-1.8-0.2-2.7-0.2c-0.7,0-1.6,0.3-1.9,1c-0.2,0.5,0,1.2,0.4,1.6c0.4,0.4,0.9,0.7,1.4,0.9
			c0.4,0.2,0.9,0.4,1.1,0.8c0.1,0.2,0.1,0.4,0.1,0.7c0,0.9-0.2,2,0.3,2.7c0.6,0.7,1.7,0.8,2.5,0.3s1.3-1.3,1.7-2.1s0.7-1.7,1.3-2.5
			c0.5-0.6,1.1-1.1,1.8-1.6c1.3-1,2.7-1.9,4.1-2.7c2.4-1.6,5-3.2,7.8-3.8c1.3-0.3,2.6-0.3,3.8-0.8c0.5-0.2,1-0.4,1.3-0.8
			c0.3-0.4,0.4-1,0.1-1.5c-0.5-0.7-1.7-0.4-2.2-1.1c-0.1-0.2-0.2-0.4-0.2-0.6c-0.1-0.8,0.2-1.5,0.3-2.3c0.1-0.8-0.2-1.7-0.9-1.9
			C93,39,92.4,39.5,91.9,40c-0.7,0.8-1.3,1.7-1.7,2.7c-0.3,0.8-0.5,1.6-0.9,2.4c-0.8,1.5-2.2,2.5-3.6,3.4c-1.8,1.2-3.7,2.1-5.7,3
			C78,52.5,75.9,53.2,73.5,53z"/>
		<path class="st4" d="M75.5,39.1c-2,1.7-3.9,3.8-3.9,6.4c0,0.7,0.2,1.5,0.7,2c0.6,0.7,1.7,1,2.7,0.8c1-0.1,1.9-0.5,2.7-1
			c0.8,1,0.1,2.5,0.5,3.7c0.3,1.1,1.5,1.9,2.7,2s2.4-0.3,3.5-0.8c1.4-0.6,2.7-1.5,3.8-2.4c0.9-0.7,1.7-1.7,1.9-2.8
			c0.3-2-1.7-3.5-3.4-4.6c1.4-1,2.4-2.6,2.3-4.3C88.8,29.8,78.3,36.8,75.5,39.1z"/>
		<path d="M80.8,40.3c-0.2,1.1,0.5,2.2,1.5,2.6s2.3-0.1,2.8-1.1c0.3-0.6,0.3-1.4,0.2-2.1c0-0.2-0.1-0.4-0.2-0.5
			C84,37.4,81.1,38.7,80.8,40.3z"/>
		<path d="M79.9,43.2c0.2,0.7-0.3,1.5-1,1.9c-0.6,0.4-1.5,0.3-2.1,0c-0.4-0.2-0.7-0.5-0.8-0.9c-0.2-0.6,0.2-1.2,0.6-1.7
			c0.5-0.6,1.1-1.1,1.8-0.9C78.3,41.4,79.4,41.5,79.9,43.2z"/>
		<path d="M81.9,50.6C81.8,50.6,81.8,50.6,81.9,50.6c-1.1,0-2-0.5-2.5-1.4c-0.3-0.5-0.1-1.1,0.4-1.4c0.5-0.3,1.1-0.1,1.4,0.4
			c0.1,0.2,0.4,0.3,0.7,0.3c0.3,0,0.8-0.1,1.3-0.4c0.7-0.4,1.2-0.7,1.5-1.2c0.3-0.4,0.4-1,0.2-1.3c-0.3-0.5-0.1-1.1,0.4-1.3
			c0.5-0.3,1.1-0.1,1.3,0.4c0.5,1,0.4,2.3-0.3,3.3c-0.5,0.7-1.2,1.3-2.3,1.9C83.5,50.3,82.7,50.6,81.9,50.6z"/>
	</g>
	<g>
		<path class="st8" d="M149.7,90.4c-1.3-0.3-2.7-0.2-3.9,0.3c0-1.7-0.1-3.2-1.2-5c-1.1-1.8,0.9-7.1,0.5-9.2
			c-0.5-2.8-1.3-5.4-2.5-7.9c-2.7-5.5-12-6.6-17-9.1c-3.1-1.5-6.4-2.6-9.8-3.1c-4.3-0.6-9.9-0.4-14.1,0.8c-2.1,0.6-4.2,1.3-6.3,2.3
			c-5,2.5-9.5,6.4-12.2,12C82,74,78.8,74.2,78.3,77c-0.4,2.1,0.1,5-1,6.8c-1.4,2.3-1.1,4.8-0.9,7.6c-1.6-1-3.4-1.4-5.1-0.9
			c-4,1-6.1,6.1-4.8,11.2c1.3,5.2,5.7,8.5,9.6,7.5c0.5-0.1,0.9-0.3,1.3-0.5c0.1,0.2,0.1,0.4,0.2,0.6c4,10.3,13.8,14.6,22.8,14.9
			c5.8,0.2,11.6,0.3,17.4,0.1c1.3,0,2.5-0.1,3.8-0.1c9-0.3,18.8-4.7,22.8-14.9v-0.1c0.1,0,0.2,0.1,0.3,0.1c4,1,8.3-2.3,9.6-7.5
			C155.9,96.4,153.7,91.4,149.7,90.4z"/>
		<path class="st9" d="M111.7,125.8c-4,0-7.7-0.1-11.1-0.2c-11-0.4-19.8-6-23.8-15h-0.1c-4.8,1.2-9.9-2.6-11.5-8.6
			c-1.5-6,1.1-11.8,5.9-13.1c1.2-0.3,2.5-0.3,3.8,0c-0.1-2.1,0.1-4.1,1.3-6c0.5-0.8,0.6-2.3,0.6-3.7c0-0.9,0.1-1.8,0.2-2.6
			c0.4-2.1,1.9-3.2,3.1-4c0.8-0.6,1.5-1.1,1.9-1.8c2.6-5.4,7.1-9.8,12.8-12.7c2-1,4.2-1.8,6.5-2.4c4.4-1.2,10.1-1.5,14.7-0.8
			c3.5,0.5,7.1,1.7,10.3,3.2c1.4,0.7,3.2,1.3,5.1,1.9c4.9,1.6,10.4,3.4,12.6,7.9c1.2,2.5,2.1,5.3,2.6,8.3c0.2,1.1-0.1,2.6-0.4,4.3
			c-0.2,1.3-0.7,3.8-0.3,4.3c0.8,1.4,1.2,2.7,1.4,3.9c1-0.1,2-0.1,2.9,0.2l0,0c4.8,1.2,7.4,7.1,5.9,13.1c-1.4,5.5-6,9.3-10.5,8.7
			c-4,8.9-12.8,14.4-23.7,14.8l-3.8,0.1C115.9,125.7,113.7,125.8,111.7,125.8z M77.6,107c0.2,0,0.4,0,0.5,0.1
			c0.4,0.2,0.7,0.5,0.9,0.9l0.1,0.3c0,0.1,0.1,0.2,0.1,0.3c3.3,8.4,11.3,13.6,21.5,14c5.1,0.2,11.1,0.3,17.3,0.1l3.8-0.1
			c10.1-0.4,18.2-5.6,21.5-14v-0.1c0.3-0.7,1.1-1.1,1.9-0.9l0.2,0.1c3.2,0.8,6.7-2,7.9-6.4c1.1-4.4-0.5-8.6-3.7-9.4l0,0
			c-1-0.2-2-0.2-3,0.3c-0.5,0.2-1,0.1-1.4-0.1s-0.7-0.8-0.7-1.3c0-1.5-0.1-2.8-1-4.2c-0.9-1.5-0.5-3.9,0-6.4
			c0.2-1.3,0.5-2.7,0.4-3.3c-0.5-2.7-1.2-5.3-2.3-7.5c-1.6-3.3-6.5-4.9-10.8-6.3c-2-0.7-3.9-1.3-5.5-2.1c-2.9-1.4-6.2-2.5-9.4-3
			c-4.1-0.6-9.5-0.3-13.5,0.7c-2.1,0.6-4.1,1.3-6,2.2c-5.2,2.5-9.1,6.4-11.5,11.3c-0.7,1.5-1.9,2.3-2.9,3c-1.1,0.8-1.7,1.2-1.8,2.1
			c-0.1,0.6-0.1,1.4-0.2,2.2c-0.1,1.7-0.1,3.6-1,5.1c-1.1,1.8-0.9,4-0.7,6.6c0,0.6-0.2,1.1-0.7,1.4s-1.1,0.3-1.6,0
			c-0.9-0.6-2.3-1.1-3.9-0.7c-3.2,0.8-4.8,5-3.7,9.4c1.1,4.4,4.6,7.2,7.8,6.4c0.3-0.1,0.7-0.2,1-0.4C77.1,107.1,77.4,107,77.6,107z"
			/>
	</g>
	<g>
		<g>
			<path class="st10" d="M117,93.1L117,93.1c-1.1,0-2-1.4-2-3.1v-0.4c0-1.7,0.9-3.1,2-3.1s2,1.4,2,3.1V90
				C119,91.8,118.1,93.1,117,93.1"/>
			<path class="st10" d="M106.7,93.7L106.7,93.7c-1.1,0-2-1.4-2-3.1v-0.4c0-1.7,0.9-3.1,2-3.1s2,1.4,2,3.1v0.4
				C108.8,92.3,107.9,93.7,106.7,93.7"/>
		</g>
	</g>
	<path class="st11" d="M108.3,98.4c-0.3,0-0.5-0.1-0.7-0.3c-0.4-0.4-0.4-1,0-1.4c2.8-2.6,7.5-2.8,10.5-0.4c0.4,0.3,0.5,1,0.2,1.4
		s-1,0.5-1.4,0.2c-2.2-1.8-5.8-1.6-7.9,0.3C108.8,98.3,108.5,98.4,108.3,98.4z"/>
	<path d="M114.1,110.6c-0.9,0-1.8,0-2.7-0.1c-1.7-0.1-3.7-0.3-5.6-0.9c-2.1-0.7-3.8-2-4.8-3.6c-0.3-0.5-0.2-1.1,0.3-1.4
		s1.1-0.2,1.4,0.3c0.8,1.2,2.1,2.2,3.8,2.7c1.6,0.6,3.4,0.7,5.1,0.8c2.1,0.1,4.4,0.2,6.6-0.4s4-1.8,4.9-3.4c0.3-0.5,0.9-0.6,1.4-0.4
		c0.5,0.3,0.7,0.9,0.4,1.4c-1.2,2.1-3.4,3.7-6.2,4.4C117.1,110.5,115.6,110.6,114.1,110.6z"/>
	<g>
		<path class="st12" d="M77.7,95.2c-0.1,1-1.4,1.4-2.2,0.8c-2.9-2.5-5.1-5.7-6.7-9.1c-0.9-2-1.3-4.1-1.3-6.3
			c0-8.1,2.5-16.3,8.5-21.7c5.5-4.9,11.7-6.2,18.6-7.9c6-1.5,9.3-6.8,14.6-9.9c2.6-1.5,6.3,0.3,5.3,3.6c-0.3,1.1-1.6,1.7-2.6,2.3
			c10.3-1.7,23.4,1.9,30.7,9.3c3.2,3.2,6.1,8.3,7.4,12.6c3,9.5,0.9,17.1-2.5,24.2c-0.5,0.9-1.9,0.8-2-0.3c-1.1-7.2-3-14.3-5.6-20.9
			c-0.1-0.2-0.4-0.3-0.6-0.2c-1.1,0.9-5.8,0-7.2-0.6c-2-0.8-6.2-2.9-9.1-6.4c-5.3,14.7-20.9,2-20.9,2C94.3,79.8,85,73.5,85,73.5
			S78.5,83.4,77.7,95.2z"/>
		<path d="M76.4,97.8c-0.7,0-1.4-0.2-1.9-0.7c-3-2.6-5.4-5.9-7-9.7c-0.9-2.1-1.4-4.5-1.4-6.9c0-9.5,3.2-17.6,9-22.8
			c5.5-4.9,11.6-6.4,18.2-8l1.1-0.3c3.3-0.8,5.7-3,8.3-5.2c1.8-1.6,3.6-3.2,5.9-4.5c1.9-1.1,4.3-1,6,0.3c1.5,1.2,2,3,1.5,5l0,0
			c10.2-0.4,21.3,3.6,27.7,10.1c3.3,3.3,6.3,8.5,7.8,13.2c3.3,10.6,0.6,18.8-2.6,25.3c-0.5,1-1.6,1.6-2.7,1.4c-1.1-0.2-2-1-2.2-2.1
			c-1.1-6.8-2.8-13.4-5.1-19.6c-2.6,0.5-6.8-0.7-7.4-0.9c-1.2-0.5-5-2.1-8.1-5.1c-1.5,2.9-3.7,4.8-6.4,5.5c-5.5,1.5-11.8-2.2-14.5-4
			c-2.7,4.1-6,6.6-9.6,7.4c-3.2,0.7-5.9-0.1-7.4-0.8c-1.7,2.9-5.8,10.9-6.4,19.9l0,0c-0.1,1-0.7,1.9-1.7,2.3
			C77.2,97.7,76.8,97.8,76.4,97.8z M77.7,95.2L77.7,95.2L77.7,95.2z M76.2,95.1L76.2,95.1L76.2,95.1L76.2,95.1z M76.5,94.8
			L76.5,94.8L76.5,94.8z M111.4,42c-0.4,0-0.8,0.1-1.3,0.3c-2,1.1-3.7,2.6-5.4,4.1c-2.8,2.4-5.6,4.9-9.6,5.9L94,52.6
			c-6.4,1.5-12,2.9-16.9,7.3c-5.1,4.7-8,12-8,20.6c0,2,0.4,3.9,1.2,5.7c1.4,3.2,3.5,6.1,6,8.4c0.9-11.8,7.3-21.6,7.6-22
			c0.2-0.3,0.6-0.6,1-0.6c0.4-0.1,0.8,0,1.1,0.2c0,0,2.9,1.9,6.5,1.1c3.1-0.7,6-3.2,8.5-7.4c0.2-0.4,0.6-0.6,1-0.7s0.9,0,1.2,0.3
			c0.1,0.1,7.5,6,13.2,4.5c2.3-0.6,4.1-2.6,5.3-5.8c0.2-0.5,0.6-0.9,1.2-1c0.5-0.1,1.1,0.1,1.4,0.6c2.9,3.7,7.5,5.6,8.4,6
			c1.4,0.5,5,1.1,5.8,0.8c0.5-0.3,1-0.4,1.6-0.3c0.6,0.2,1.1,0.6,1.3,1.1c2.5,6.3,4.3,13,5.5,19.9c2.7-5.8,4.7-12.9,1.9-21.9
			c-1.3-4.2-4.2-9-7.1-12c-6.7-6.8-19-10.6-29.3-8.9c-0.7,0.1-1.4-0.3-1.6-0.9c-0.3-0.7,0-1.4,0.6-1.8c0.2-0.1,0.3-0.2,0.5-0.3
			c0.6-0.4,1.3-0.8,1.4-1.2c0.2-0.8,0.1-1.4-0.5-1.8C112.4,42.2,111.9,42,111.4,42z M140.3,72.8L140.3,72.8L140.3,72.8z"/>
	</g>
</g>
</svg>
