<?xml version="1.0" encoding="utf-8"?>
<!-- Generator: Adobe Illustrator 26.0.3, SVG Export Plug-In . SVG Version: 6.00 Build 0)  -->
<svg version="1.1" id="레이어_1" xmlns="http://www.w3.org/2000/svg" xmlns:xlink="http://www.w3.org/1999/xlink" x="0px"
	 y="0px" viewBox="0 0 197 193" style="enable-background:new 0 0 197 193;" xml:space="preserve">
<g>
	<path style="fill:#FFFFFF;" d="M99.5,154.7c1.1-9.4,2.2-21.1,3.9-30.5c0.6-3.2,3.5-4.8,6-3.5c3.3,1.6,0.9,14,0.5,17.3
		c-0.5,5-1.8,8.8-1.5,13.9c2.5-0.2,6.1,0.7,8.1,2.2c2.4,1.7,5.6,7,3.5,10c-1.6,2.2-5.6,1.8-7.9,1.8c-2.5,0-5.1,0.2-7.6-0.2
		c-1.6-0.3-4.6-0.8-5.5-2.3C98.1,161.1,99.3,157,99.5,154.7z"/>
	<path style="fill:#0497EB;" d="M122.8,160.8c-0.5-3.2-2.7-6.6-4.3-7.8c-2.1-1.5-6.5-3-9.5-2.1c-0.2-3.2,0.2-5.4,0.6-8.1
		c0.1-0.8,0.3-1.7,0.4-2.7l0.1-0.4l-0.4,0.1c-2.3,0.8-5.3,0.5-7.1-0.3c-0.4-0.2-0.8-0.4-1-0.7l-0.4-0.4l-0.1,0.5
		c-0.4,3.7-0.8,6.9-1.2,9.9c-0.2,1.9-0.5,3.8-0.7,5.8c-0.1,0.6-0.3,1.4-0.5,2.3c-0.5,2.3-1.2,5.1-0.3,6.7c0.9,1.6,4.4,2.6,6.2,2.9
		c2.3,0.4,4.6,0.7,7.2,0.7c2.5,0,8.7-0.2,10.3-2.5C122.9,163.8,123.1,162.4,122.8,160.8z"/>
	<path d="M107.7,120.2c0.6,0,1.2,0.1,1.8,0.4c3.3,1.6,0.9,14,0.5,17.3c-0.1,0.7-0.2,1.4-0.3,2.1l0,0c-0.6,4.3-1.3,6.8-1,11.2
		c0.7-0.2,1.4-0.4,2.2-0.4c2.7,0,5.8,1.2,7.4,2.4c2.4,1.7,5.8,8.4,3.6,11.4c-1.6,2.2-7.8,2.4-10.1,2.4c-0.1,0-0.2,0-0.3,0
		c-2.4,0-4.5-0.3-6.9-0.7c-1.6-0.3-5.1-1.3-6-2.8c-1.2-2.1,0.5-6.5,0.8-8.8c1.1-9.4,2.2-21.1,3.9-30.5
		C103.9,121.7,105.8,120.2,107.7,120.2 M107.7,118.7L107.7,118.7c-2.8,0-5.2,2.1-5.7,5.2c-1.4,7.6-2.4,16.9-3.3,25.1
		c-0.2,1.9-0.4,3.8-0.6,5.5c-0.1,0.6-0.3,1.4-0.5,2.2c-0.6,2.6-1.3,5.5-0.2,7.5c1.4,2.5,6.5,3.5,7,3.6c2.5,0.4,4.7,0.7,7.2,0.7h0.3
		c6.2,0,9.9-1,11.3-3c0.9-1.2,1.2-2.9,0.8-4.9c-0.5-3.2-2.7-7.1-4.8-8.6c-1.9-1.3-5.3-2.7-8.3-2.7c-0.3,0-0.5,0-0.7,0
		c0-2.2,0.3-3.9,0.6-6c0.2-1,0.3-2,0.5-3.1l0.3-2.4l0,0c0.1-0.5,0.2-1.2,0.3-1.9c1.1-7.8,1.8-14.9-1.7-16.6
		C109.4,118.9,108.6,118.7,107.7,118.7L107.7,118.7z"/>
</g>
<g>
	<path style="fill:#FFFFFF;" d="M90.6,154.7c-1.1-9.4-2.2-21.1-3.9-30.5c-0.6-3.2-3.5-4.8-6-3.5c-3.3,1.6-0.9,14-0.5,17.3
		c0.5,5,1.8,8.8,1.5,13.9c-2.5-0.2-6.1,0.7-8.1,2.2c-2.4,1.7-5.6,7-3.5,10c1.6,2.2,5.6,1.8,7.9,1.8c2.5,0,5.1,0.2,7.6-0.2
		c1.6-0.3,4.6-0.8,5.5-2.3C92.1,161.1,90.9,157,90.6,154.7z"/>
	<path style="fill:#0497EB;" d="M91.4,156.9c-0.2-0.8-0.4-1.6-0.5-2.3c-0.2-1.9-0.5-3.8-0.7-5.7c-0.4-3.1-0.8-6.3-1.2-10l-0.1-0.5
		l-0.4,0.4c-0.3,0.3-0.6,0.5-1,0.6c-1.8,0.8-4.8,1.1-7.1,0.3l-0.4-0.1l0.1,0.4c0.1,1,0.3,1.9,0.4,2.7c0.4,2.7,0.8,4.9,0.6,8.1
		c-3-0.9-7.4,0.6-9.5,2.1c-1.6,1.2-3.8,4.6-4.3,7.8c-0.3,1.6,0,3,0.6,4c1.6,2.3,7.8,2.5,10.3,2.5c2.6,0,4.9-0.3,7.2-0.7
		c1.7-0.3,5.2-1.3,6.2-2.9C92.6,162,92,159.2,91.4,156.9z"/>
	<path d="M82.4,120.2c2,0,3.8,1.5,4.3,4c1.7,9.3,2.8,21.1,3.9,30.5c0.3,2.3,2,6.7,0.8,8.8c-0.8,1.5-4.4,2.5-6,2.8
		c-2.4,0.4-4.5,0.7-6.9,0.7c-0.1,0-0.2,0-0.3,0c-2.3,0-8.5-0.2-10.1-2.4c-2.1-3,1.2-9.6,3.6-11.4c1.6-1.1,4.8-2.4,7.4-2.4
		c0.8,0,1.5,0.1,2.2,0.4c0.3-4.4-0.5-6.8-1-11.2l0,0c-0.1-0.7-0.2-1.4-0.3-2.1c-0.3-3.3-2.8-15.7,0.5-17.3
		C81.2,120.4,81.9,120.2,82.4,120.2 M82.4,118.7c-0.8,0-1.7,0.2-2.5,0.6c-3.4,1.7-2.8,8.8-1.7,16.6c0.1,0.8,0.2,1.4,0.3,1.9l0,0
		l0.3,2.4c0.2,1.2,0.3,2.2,0.5,3.1c0.3,2.1,0.6,3.8,0.6,6c-0.2,0-0.5,0-0.7,0c-3,0-6.5,1.3-8.3,2.7c-2.1,1.5-4.3,5.4-4.8,8.6
		c-0.3,2,0,3.7,0.8,4.9c1.4,2,5.1,3,11.3,3h0.3c2.5,0,4.7-0.3,7.2-0.7c0.6-0.1,5.7-1.1,7-3.6c1.1-2,0.4-4.9-0.2-7.5
		c-0.2-0.9-0.4-1.7-0.5-2.2c-0.2-1.8-0.4-3.6-0.6-5.5c-0.9-8.2-1.9-17.4-3.3-25.1C87.6,120.8,85.3,118.7,82.4,118.7L82.4,118.7z"/>
</g>
<g>
	<path style="fill:#02A0F4;" d="M95.4,131.9c-1.2,0-2.3,0-3.4-0.1c-0.8,0-1.5-0.1-2.2-0.1c-14.8-1-25.3-7.7-29.6-18.8
		c-2.3-5.8-0.8-12.6,0.7-18.4c0.6-2.3,1.1-5.7,0.5-7.7c-0.4-1.5-2-3-3.3-4.2c-0.3-0.3-0.6-0.6-0.9-0.8c-1.2-1.2-2.4-2.3-3.3-3.5
		c-5-6.5-8-13.9-8.9-22.1c-0.8-8,0.6-15.6,3.9-20.8c5.4-8.4,12.8-14.6,20.5-17.2l2.7-0.9c3.3-1.1,6.9-1.7,10.8-1.7
		c0.9,0,1.9,0,2.9,0.1c4.3,0.3,8.8,1.3,13,2.8c5.8,2.1,11.5,7.2,15.8,14.1c4.5,7.4,6.7,15.3,6.5,24.2c-0.1,6.7,0.3,12,1.4,16.3
		c0.9,3.7,2.2,7.3,3.5,10.9c0.9,2.4,1.8,4.8,2.5,7.3c2.1,6.6,3.6,14.6-0.5,23.2c-2.8,5.9-5.8,9.3-11.2,12.7
		C109.9,131.4,101.8,131.9,95.4,131.9z"/>
	<path d="M82.9,16.3c0.9,0,1.9,0,2.8,0.1c4.2,0.3,8.6,1.2,12.8,2.7c5.6,2,11.2,7.1,15.4,13.8c4.5,7.3,6.5,15,6.4,23.8
		c-0.1,6.8,0.3,12.2,1.4,16.5c0.9,3.7,2.3,7.4,3.6,11c0.9,2.4,1.8,4.8,2.5,7.2c2,6.5,3.6,14.3-0.4,22.7c-2.7,5.7-5.7,9.1-10.9,12.3
		c-6.3,3.9-13.7,4.8-21,4.8c-1.1,0-2.3,0-3.4-0.1c-0.7,0-1.5-0.1-2.2-0.1c-14.5-1-24.7-7.5-29-18.4c-2.2-5.7-0.7-12.3,0.8-18
		c0.6-2.2,1.2-5.8,0.5-8.1c-0.6-2-2.9-3.9-4.4-5.3c-1.2-1.2-2.3-2.3-3.2-3.4c-4.9-6.3-7.9-13.7-8.7-21.7c-0.8-7.8,0.6-15.2,3.8-20.3
		c5.3-8.2,12.6-14.4,20.1-16.9l2.7-0.9C75.5,16.9,79.1,16.3,82.9,16.3 M82.9,14.8L82.9,14.8c-4,0-7.7,0.6-11.1,1.7l-2.7,0.9
		c-7.8,2.6-15.4,9-20.9,17.5c-3.4,5.3-4.9,13.1-4,21.3c0.9,8.4,3.9,15.9,9,22.5c1,1.3,2.1,2.4,3.4,3.6c0.3,0.3,0.6,0.5,0.9,0.8
		c1.2,1.1,2.7,2.5,3.1,3.8c0.5,1.8,0.1,5-0.5,7.3c-1.6,6-3.1,12.9-0.7,18.9c4.5,11.4,15.2,18.3,30.3,19.3c0.8,0.1,1.5,0.1,2.3,0.1
		c1.3,0,2.4,0.1,3.5,0.1c6.4,0,14.7-0.6,21.8-5c5.5-3.4,8.6-6.9,11.5-13c4.2-8.9,2.6-17,0.5-23.8c-0.8-2.5-1.7-5-2.6-7.3
		c-1.3-3.5-2.7-7.2-3.5-10.8c-1-4.2-1.5-9.5-1.4-16.1c0.1-9-2-17.1-6.6-24.6c-4.3-7-10.2-12.2-16.1-14.4c-4.3-1.5-8.9-2.5-13.2-2.8
		C84.9,14.8,83.9,14.8,82.9,14.8L82.9,14.8z"/>
</g>
<path style="fill-rule:evenodd;clip-rule:evenodd;fill:#FFFFFF;" d="M116.5,48.8c-1.6-2.9-2.4-3.9-5-5.6c-0.7-1.8-1.9-5.4-2.4-6.2
	c-1.2-2-3-4.9-4.8-6.4c-4-3.4-10.5-4.7-15.9-5c-3.3-0.2-6.7,0.1-10.1,0.8c-4.2,0.9-9.4,2.9-13.1,5.1c-1.9,1.1-3.6,2.4-5.3,3.8
	c-4.1,3.5-7.2,8-8.3,13.2c-0.5,2.3-0.2,5.7,0.1,8c0.1,1,1.4,4.7,1.9,6.4c-0.9,2.9-1,4.2-0.5,7.4c0.5,3.2,1.9,6.3,4.3,8.7
	c5.6,5.5,14,7,21.5,5.4c9.1-2,18.8-3.9,26.7-9.1c6-4,11.5-9.6,12.5-17C118.8,55,118,51.6,116.5,48.8z"/>
<g>
	<path style="fill-rule:evenodd;clip-rule:evenodd;fill:#F0B3AF;" d="M73.8,67.3c1.6,4.8-0.9,9.9-5.6,11.5s-9.8-0.9-11.5-5.7
		c-1.6-4.7,0.9-9.9,5.6-11.5C67.1,60,72.2,62.5,73.8,67.3"/>
	<path style="fill-rule:evenodd;clip-rule:evenodd;fill:#F0B3AF;" d="M115.5,53.1c1.6,4.8-0.9,9.9-5.6,11.5s-9.8-0.9-11.5-5.7
		c-1.6-4.7,0.9-9.9,5.6-11.5C108.8,45.8,113.9,48.3,115.5,53.1"/>
</g>
<path style="fill:#231816;" d="M80.1,70.9c-2-0.6-3-1.5-3.2-2.1c-0.1-0.2-0.2-0.6,0-1.2c0.2-0.4,0.6-0.6,1-0.4s0.6,0.6,0.5,0.9
	c0.1,0,0.7,0.8,1.8,1.1c1.3,0.4,5.2,0.7,6.4-2.3c0.1-0.3,0.1-0.6,0.2-1c0.1-0.2,0.4-0.4,0.6-0.4c0.5,0,0.7,0.3,0.9,0.5
	c0.5,0.6,1.7,1.2,2.7,0.9c4.2-0.9,4.3-2.7,4.6-3.1c0.2-0.3,0.1-0.8,0.1-1c0,0,0-0.1-0.2-0.2c-0.4-0.2-0.5-0.7-0.3-1.1
	c0.2-0.4,0.7-0.5,1.1-0.3c0.6,0.3,0.9,0.7,1,1.2c0.2,0.8-0.3,2.3-0.8,3c-0.2,0.3-1.3,2.6-5.1,3c-1.5,0.2-2.8-0.1-3.5-0.6
	C86.5,71.1,81.9,71.5,80.1,70.9z"/>
<path style="fill-rule:evenodd;clip-rule:evenodd;" d="M87.1,61c0.2,0.6-0.3,1.3-1.1,1.6c-0.8,0.3-1.6,0-1.9-0.6
	c-0.2-0.6,0.3-1.3,1.1-1.6C86.1,60.1,86.9,60.4,87.1,61"/>
<path d="M78.7,60.1c-0.1-0.3-0.5-0.5-0.8-0.4s-0.5,0.5-0.4,0.8c0.3,0.8-0.2,1.6-0.9,1.9c-0.3,0.1-1.3,0.4-1.8-1.1
	c-0.1-0.3-0.5-0.5-0.8-0.4s-0.5,0.5-0.4,0.8c0.5,1.3,1.3,2,2.4,2.1c0.4,0,0.7,0,1.1-0.2C78.4,63.2,79.2,61.6,78.7,60.1z"/>
<path d="M95.4,54.3c-0.1-0.3-0.5-0.5-0.8-0.4s-0.5,0.5-0.4,0.8c0.5,1.6-0.4,1.9-0.8,2c-0.8,0.3-1.6-0.1-1.9-0.9
	c-0.1-0.3-0.5-0.5-0.8-0.4s-0.5,0.5-0.4,0.8c0.4,1.1,1.4,1.8,2.4,1.9c0.4,0,0.7,0,1.1-0.1C95.4,57.4,96,56,95.4,54.3z"/>
<g>
	<path style="fill:#FFFFFF;" d="M44.9,37.1c-0.1,0-0.3,0-0.4,0c-1-0.1-1.9-0.4-2.8-0.9c-3.3-1.9-4.8-6.3-3.3-9.8
		c1.3-3.1,3-5.6,4.9-7.7c1.5-1.7,2.9-2.8,4.4-3.5c1.3-0.6,2.8-1,4.5-1c0.3,0,0.6,0,0.9,0h0.2c2.2,0.2,6.4,1,8.6,3
		c2.9,2.7,4.2,4.8,4.3,6.5c0,1-0.4,1.8-1.1,2.5c-1.8,1.7-3.1,2.5-4.4,2.5h-0.2c-0.7,0-1.4-0.3-2.3-0.8c-0.8-0.4-1.5-0.7-2.1-0.7
		c-0.1,0-0.1,0-0.2,0c-2.3,0-3.7,3.1-5,5.9C49.7,35.6,47.4,37.1,44.9,37.1z"/>
	<path style="fill:#653109;" d="M51.7,29.6c0,0-0.2-1.4-2.2-1.3c-0.2,0-0.5,0-0.6,0.1c0.1-0.4,0.2-0.7,0.2-1.2
		c-0.1-1.5-1.4-2.8-2.8-2.8c-0.3,0-0.7,0.1-1,0.2c0.1-0.3,0.1-0.6,0.1-1c-0.1-1.6-1.4-2.8-2.8-2.8c-0.1,0-0.2,0.1-0.4,0.2
		c-0.1,0.1-0.3,0.2-0.3,0.2h-0.1l-0.1,0.1c-1.6,2.3-2.4,4.1-2.8,5c-0.1,0.2-0.1,0.3-0.2,0.4c-1.5,3.4-0.1,7.4,3.1,9.1
		c1.1,0.6,2.3,0.9,3.5,0.9c0.8,0,1.5-0.1,2.2-0.4c1.3-0.5,2.2-1.5,2.7-2.7c0.8-2.4,1.6-3.8,1.6-3.9L51.7,29.6L51.7,29.6z"/>
	<path d="M52.2,15.1c0.3,0,0.6,0,0.9,0c0.1,0,0.1,0,0.2,0c2.5,0.2,6.3,1.1,8.1,2.8c4,3.7,5,6.2,3.2,8c-1.6,1.6-2.8,2.2-3.9,2.2
		c-0.1,0-0.1,0-0.2,0c-0.6,0-1.3-0.3-2-0.7c-0.9-0.5-1.7-0.8-2.4-0.8c-0.1,0-0.2,0-0.3,0c-2.8,0-4.3,3.3-5.7,6.4
		c-1,2.2-3,3.4-5.1,3.4c-0.1,0-0.3,0-0.4,0c-0.8-0.1-1.7-0.3-2.5-0.8c-3-1.7-4.3-5.6-2.9-8.8c1.2-2.7,2.8-5.3,4.8-7.5
		c1.2-1.3,2.6-2.5,4.2-3.3C49.3,15.3,50.7,15.1,52.2,15.1 M52.2,13.6c-1.8,0-3.4,0.4-4.8,1c-1.6,0.8-3,1.9-4.6,3.7
		c-2,2.1-3.7,4.8-5,7.9c-1.7,3.9-0.1,8.6,3.6,10.7c1,0.6,2.1,0.9,3.2,1c0.2,0,0.3,0,0.5,0c2.8,0,5.3-1.7,6.5-4.3s2.5-5.5,4.3-5.5
		c0,0,0.1,0,0.2,0c0.5,0,1.1,0.2,1.8,0.6c1,0.6,1.8,0.9,2.7,0.9c0.1,0,0.2,0,0.3,0c1.6,0,3-0.8,5-2.7c0.9-0.9,1.3-1.9,1.3-3.1
		c0-2-1.5-4.3-4.5-7.1c-2.3-2.2-6.8-3.1-9-3.2h-0.2C52.8,13.6,52.5,13.6,52.2,13.6L52.2,13.6z"/>
</g>
<g>
	<path style="fill:#FFFFFF;" d="M83.9,20.8c-0.5,0-1.1,0-1.8-0.1c-1-0.1-1.8-0.6-2.4-1.3c-1.1-1.4-1.3-3.9-0.6-7.8
		c0.5-2.9,3.4-6.2,5-7.6s3.3-2.3,5-2.7C89.7,1.1,90.6,1,91.4,1c1,0,2,0.1,3.2,0.3c2.8,0.5,5.6,1.5,8.6,3.1c3.3,1.8,4.9,6.2,3.4,9.7
		c-1,2.5-3.3,4-5.9,4c-1.1,0-2.2-0.3-3.2-0.8c-1.9-1-4.1-2.2-5.8-2.2c-0.9,0-2.2,0.3-3.1,2.5C87.8,19.6,86.8,20.8,83.9,20.8
		L83.9,20.8z"/>
	<path style="fill:#653109;" d="M103,5c-0.5-0.3-3-1.5-6.1-2.5l-0.1,0c-0.1,0-0.3,0-0.4,0.1c-1.2,0.9-1.5,2.6-0.5,4
		c0.2,0.2,0.4,0.4,0.6,0.6c-0.3,0.1-0.6,0.2-0.9,0.4c-1.2,0.9-1.5,2.6-0.6,3.9c0.2,0.4,0.5,0.7,0.9,0.9c-0.2,0.1-0.4,0.2-0.5,0.3
		c-0.7,0.5-1.1,1.6-1,2.7l0,0.2l0.2,0.1c1.1,0.4,2.2,0.8,3.2,1.4c1.1,0.6,2.2,0.8,3.2,0.8c0.6,0,1.2-0.1,1.8-0.3
		c1.5-0.5,2.6-1.7,3.4-3.5C107.6,10.8,106.2,6.8,103,5z"/>
	<path d="M91.4,1.8c1,0,2.1,0.1,3.1,0.3c2.9,0.5,5.7,1.6,8.3,3c3,1.7,4.4,5.6,3,8.8c-0.9,2.2-3,3.5-5.2,3.5c-0.9,0-1.9-0.2-2.8-0.7
		c-2.1-1.1-4.3-2.3-6.2-2.3c-1.6,0-2.9,0.8-3.8,3c-0.7,1.8-1.7,2.6-4,2.6c-0.5,0-1.1,0-1.8-0.1c-2.5-0.3-3.3-2.9-2.4-8.2
		c0.4-2.5,2.8-5.5,4.7-7.2c1.4-1.2,2.9-2.1,4.6-2.5C89.9,1.8,90.6,1.8,91.4,1.8 M91.4,0.2c-0.9,0-1.7,0.1-2.5,0.2
		c-1.9,0.4-3.7,1.3-5.4,2.9c-1.7,1.5-4.7,4.9-5.2,8.1c-0.7,4.1-0.5,6.8,0.7,8.4c0.7,0.9,1.7,1.5,2.9,1.6c0.7,0.1,1.4,0.1,1.9,0.1
		c2.8,0,4.4-1,5.4-3.6c0.8-1.8,1.6-2.1,2.4-2.1c1.5,0,3.6,1.1,5.5,2.1c1.1,0.6,2.3,0.9,3.5,0.9c2.9,0,5.4-1.7,6.6-4.5
		c1.7-3.9,0-8.6-3.7-10.7c-3-1.6-6-2.7-8.8-3.2C93.5,0.3,92.4,0.2,91.4,0.2L91.4,0.2z"/>
</g>
<g>
	<g>
		<g>
			<polygon style="fill:#363636;" points="58.4,144.6 138.6,177.4 138.6,173.6 60.4,142.1 			"/>
			<path d="M139.3,178.6L57.2,145l2.9-3.8l79.2,31.9V178.6z M59.6,144.3l78.2,32v-2.2L60.6,143L59.6,144.3z"/>
		</g>
		<g>
			<polygon style="fill:#363636;" points="58.4,134.1 138.6,166.9 138.6,163.1 60.4,131.6 			"/>
			<path d="M139.3,168l-82.1-33.6l2.9-3.8l79.2,31.9V168z M59.6,133.7l78.2,32v-2.2l-77.2-31.1L59.6,133.7z"/>
		</g>
		<g>
			<polygon style="fill:#363636;" points="138.6,144.6 58.4,177.4 58.4,173.6 136.6,142.1 			"/>
			<path d="M57.7,178.6v-5.5l79.2-31.9l2.9,3.8l-0.9,0.4L57.7,178.6z M59.2,174.1v2.2l78.2-32l-1-1.3L59.2,174.1z"/>
		</g>
		<g>
			<polygon style="fill:#363636;" points="138.6,134.1 58.4,166.9 58.4,163.1 136.6,131.6 			"/>
			<path d="M57.7,168v-5.5l79.2-31.9l2.9,3.8l-0.9,0.4L57.7,168z M59.2,163.6v2.2l78.2-32l-1-1.3L59.2,163.6z"/>
		</g>
		<g>
			<path style="fill:#363636;" d="M63.6,151.8l-7.2,37.1c-0.3,1.4-1.6,2.3-3.2,2.3l0,0c-2.1,0-3.6-1.7-3.1-3.5l10.1-36.6
				c0.2-0.7,0.9-1.2,1.7-1.2l0,0C63,150,63.8,150.9,63.6,151.8z"/>
			<path d="M53.3,192c-1.3,0-2.5-0.6-3.3-1.6c-0.6-0.8-0.8-1.9-0.6-2.9L59.5,151c0.3-1,1.3-1.7,2.4-1.7c0.8,0,1.5,0.3,2,0.9
				c0.4,0.5,0.6,1.1,0.5,1.8l-7.2,37C56.9,190.7,55.2,192,53.3,192z M61.9,150.8c-0.5,0-0.9,0.3-0.9,0.6L50.9,188
				c-0.1,0.5,0,1.1,0.3,1.6c0.5,0.6,1.2,1,2.1,1c1.2,0,2.2-0.7,2.4-1.7l7.2-37.1c0-0.2-0.1-0.4-0.1-0.5
				C62.6,150.9,62.3,150.8,61.9,150.8z"/>
		</g>
		<g>
			<path style="fill:#363636;" d="M133.4,151.8l7.2,37.1c0.3,1.4,1.6,2.3,3.2,2.3l0,0c2.1,0,3.6-1.7,3.1-3.5l-10.1-36.6
				c-0.2-0.7-0.9-1.2-1.7-1.2l0,0C134,150,133.2,150.9,133.4,151.8z"/>
			<path d="M143.7,192c-1.9,0-3.6-1.2-3.9-3l-7.2-37.1c-0.1-0.6,0-1.3,0.5-1.8c0.5-0.6,1.2-0.9,2-0.9c1.1,0,2.1,0.7,2.4,1.7
				l10.1,36.6c0.3,1,0.1,2-0.6,2.9C146.3,191.4,145,192,143.7,192z M135.1,150.8c-0.3,0-0.6,0.1-0.8,0.4c-0.1,0.1-0.2,0.3-0.1,0.5
				l7.2,37.1c0.2,1,1.2,1.7,2.4,1.7c0.8,0,1.6-0.4,2.1-1c0.4-0.5,0.5-1,0.3-1.6L136,151.4C135.9,151,135.5,150.8,135.1,150.8z"/>
		</g>
	</g>
	<g>
		<path style="fill:#363636;" d="M98.5,135.3h-97v8.4c0,0,0,2.1,2.2,2.8s94.8,0,94.8,0s92.7,0.7,94.8,0c2.2-0.7,2.2-2.8,2.2-2.8
			v-8.4H98.5z"/>
		<path d="M166.5,147.5c-25.9,0-62-0.3-68-0.3c-9.5,0.1-92.8,0.7-95.1,0c-2.2-0.7-2.7-2.6-2.7-3.5v-9.1h0.8h97h97.8v9.1
			c0,0.9-0.5,2.8-2.7,3.5C192.8,147.4,181.3,147.5,166.5,147.5z M2.3,136.1v7.6c0,0.2,0.1,1.6,1.6,2.1c2.4,0.5,69.1,0.2,94.6,0
			c25.5,0.2,92.2,0.6,94.6,0c1.5-0.5,1.6-1.9,1.6-2v-7.6H98.5L2.3,136.1z"/>
	</g>
	<g>
		<path style="fill:#4D4D4D;" d="M195.4,134.2L185,114.1h-6.7H98.5H18.8h-6.7L1.6,134.2c0,0-1,3,2.5,3.8s94.4,0,94.4,0
			s90.9,0.8,94.4,0C196.3,137.2,195.4,134.2,195.4,134.2z"/>
		<path d="M166.3,139.2c-27.1,0-65.3-0.3-67.8-0.4c-3.7,0-91,0.8-94.5,0c-1.3-0.3-2.2-0.9-2.8-1.9c-0.8-1.4-0.3-2.9-0.3-2.9v-0.1
			l10.7-20.5h173.8l10.7,20.6c0,0.1,0.5,1.6-0.3,2.9c-0.5,0.9-1.5,1.6-2.8,1.9C191.8,139.1,180.6,139.2,166.3,139.2z M98.5,137.3
			c25.3,0.2,91.4,0.7,94.2,0c0.9-0.2,1.5-0.6,1.8-1.1c0.4-0.7,0.2-1.5,0.2-1.7l-10.2-19.6h-172L2.3,134.5c0,0.2-0.2,1,0.2,1.7
			c0.3,0.5,0.9,0.9,1.8,1.1C7.1,138,73.2,137.5,98.5,137.3z"/>
	</g>
	<g>
		<g>
			<polygon style="fill:#FFFFFF;" points="186.4,131.2 10.6,131.2 18.9,114.2 177.3,114.2 			"/>
			<path d="M187.6,132H9.4l9-18.6h159.3L187.6,132z M11.8,130.5h173.3l-8.3-15.5H19.4L11.8,130.5z"/>
		</g>
		<g>
			<polygon style="fill:#2E2E2E;" points="21.3,131.2 16.5,131.2 22,118.9 26.5,118.9 			"/>
			<path d="M21.8,132h-6.5l6.2-13.8h6.1L21.8,132z M17.7,130.5h3.1l4.6-10.8h-2.8L17.7,130.5z"/>
		</g>
		<g>
			<polygon style="fill:#2E2E2E;" points="30.6,131.2 25.8,131.2 30.7,118.9 35.2,118.9 			"/>
			<path d="M31.2,132h-6.4l5.5-13.8h6.1L31.2,132z M26.9,130.5H30l4-10.8h-2.8L26.9,130.5z"/>
		</g>
		<g>
			<polygon style="fill:#2E2E2E;" points="39.9,131.2 35.1,131.2 39.4,118.9 43.8,118.9 			"/>
			<path d="M40.5,132h-6.4l4.7-13.8h6L40.5,132z M36.2,130.5h3.2l3.4-10.8h-2.9L36.2,130.5z"/>
		</g>
		<g>
			<polygon style="fill:#2E2E2E;" points="54.9,131.2 50.1,131.2 53.2,118.9 57.7,118.9 			"/>
			<path d="M55.5,132h-6.4l3.5-13.8h6L55.5,132z M51.1,130.5h3.2l2.5-10.8h-2.9L51.1,130.5z"/>
		</g>
		<g>
			<polygon style="fill:#2E2E2E;" points="64.2,131.2 59.4,131.2 61.9,118.9 66.3,118.9 			"/>
			<path d="M64.8,132h-6.4l2.8-13.8h6L64.8,132z M60.3,130.5h3.2l1.9-10.8h-2.9L60.3,130.5z"/>
		</g>
		<g>
			<polygon style="fill:#2E2E2E;" points="79.5,131.2 74.8,131.2 76.1,118.9 80.6,118.9 			"/>
			<path d="M80.2,132h-6.3l1.6-13.8h6L80.2,132z M75.6,130.5h3.2l0.9-10.8h-2.9L75.6,130.5z"/>
		</g>
		<g>
			<polygon style="fill:#2E2E2E;" points="88.9,131.2 84.1,131.2 84.8,118.9 89.3,118.9 			"/>
			<path d="M89.6,132h-6.3l0.8-13.8h6L89.6,132z M84.9,130.5h3.3l0.3-10.8h-3L84.9,130.5z"/>
		</g>
		<g>
			<polygon style="fill:#2E2E2E;" points="98.2,131.2 93.4,131.2 93.5,118.9 97.9,118.9 			"/>
			<path d="M99,132h-6.3l0.1-13.8h6L99,132z M94.1,130.5h3.3l-0.2-10.8h-3L94.1,130.5z"/>
		</g>
		<g>
			<polygon style="fill:#2E2E2E;" points="113.1,131.2 108.3,131.2 107.3,118.9 111.8,118.9 			"/>
			<path d="M114,132h-6.3l-1.1-13.8h6L114,132z M109,130.5h3.2l-1.2-10.8h-2.9L109,130.5z"/>
		</g>
		<g>
			<polygon style="fill:#2E2E2E;" points="122.4,131.2 117.6,131.2 116,118.9 120.4,118.9 			"/>
			<path d="M123.3,132H117l-1.9-13.8h6L123.3,132z M118.3,130.5h3.2l-1.7-10.8h-2.9L118.3,130.5z"/>
		</g>
		<g>
			<polygon style="fill:#2E2E2E;" points="137.8,131.2 133,131.2 130.2,118.9 134.7,118.9 			"/>
			<path d="M138.8,132h-6.4l-3.1-13.8h6L138.8,132z M133.6,130.5h3.2l-2.7-10.8h-2.9L133.6,130.5z"/>
		</g>
		<g>
			<polygon style="fill:#2E2E2E;" points="147.1,131.2 142.3,131.2 138.9,118.9 143.4,118.9 			"/>
			<path d="M148.1,132h-6.4l-3.8-13.8h6L148.1,132z M142.9,130.5h3.2l-3.3-10.8h-2.9L142.9,130.5z"/>
		</g>
		<g>
			<polygon style="fill:#2E2E2E;" points="156.4,131.2 151.6,131.2 147.6,118.9 152,118.9 			"/>
			<path d="M157.5,132h-6.4l-4.6-13.8h6L157.5,132z M152.2,130.5h3.2l-3.9-10.8h-2.9L152.2,130.5z"/>
		</g>
		<g>
			<polygon style="fill:#2E2E2E;" points="171.4,131.2 166.6,131.2 161.4,118.9 165.9,118.9 			"/>
			<path d="M172.5,132H166l-5.8-13.8h6.1L172.5,132z M167.1,130.5h3.1l-4.8-10.8h-2.8L167.1,130.5z"/>
		</g>
		<g>
			<polygon style="fill:#2E2E2E;" points="180.7,131.2 175.9,131.2 170.1,118.9 174.5,118.9 			"/>
			<path d="M181.9,132h-6.5l-6.5-13.8h6.1L181.9,132z M176.4,130.5h3.1l-5.4-10.8h-2.8L176.4,130.5z"/>
		</g>
	</g>
</g>
<g id="XMLID_00000158019693752714123410000000989030944040272518_">
	<path style="fill:#FFFFFF;" d="M60.2,84.8c2.7-1.3,4.5,0.8,3.9,3.7c-0.3,1.5-1,2.8-1.3,4.2c-0.5,2.6-0.3,5.1,0.5,7.4
		c-6.6-2.1-9.5,2.7-10.2,4.4c-0.9-4.9-0.4-9.9,2.2-14C56.6,88.6,58,85.9,60.2,84.8z"/>
	<path style="fill:#0183C6;" d="M69.6,108.4L69.6,108.4c-2.7-2.4-4.8-5.4-5.9-8.4l-0.1-0.2l-0.2-0.1c-6.9-2.2-10,3-10.8,4.7
		l-0.1,0.1l0,0.2c1.2,6.7,4.9,13.5,9.7,17.9c2,1.8,4.5,2.9,6.6,2.9c0.2,0,0.4,0,0.6,0c1.6-0.2,3-1,4-2.3
		C77.9,117.1,73.7,112.1,69.6,108.4z"/>
	<path d="M68.9,125.7c-2.2,0-4.8-1.1-6.8-2.9c-4.8-4.4-8.6-11.3-9.8-18c-1-5.5-0.2-10.6,2.3-14.5c0.2-0.3,0.4-0.6,0.6-1
		c1.2-1.9,2.5-4.1,4.5-5.1c1.4-0.7,2.7-0.6,3.7,0.2c1.2,0.9,1.7,2.6,1.3,4.4c-0.2,0.8-0.4,1.5-0.7,2.2c-0.2,0.7-0.5,1.3-0.6,2
		c-0.5,2.3-0.3,4.7,0.5,7l0,0c1,2.9,3,5.9,5.7,8.3c3.9,3.5,8.5,8.8,3.9,15c-1,1.4-2.5,2.2-4.2,2.4C69.3,125.7,69.1,125.7,68.9,125.7
		z M61.7,85.2c-0.4,0-0.8,0.1-1.2,0.3c-1.7,0.8-2.8,2.7-3.9,4.5c-0.2,0.3-0.4,0.7-0.6,1c-2.3,3.6-3,8.3-2.1,13.5
		c1.1,6.4,4.7,12.9,9.3,17.1c1.9,1.8,4.3,2.7,6.3,2.5c1.3-0.1,2.3-0.7,3.1-1.8c3-4.1,1.9-7.9-3.7-13c-2-1.8-4.8-4.8-6.2-8.9
		c-0.9-2.6-1.1-5.2-0.6-7.8c0.2-0.8,0.4-1.5,0.7-2.2c0.2-0.7,0.5-1.3,0.6-2c0.2-1.3,0-2.4-0.7-2.9C62.4,85.3,62,85.2,61.7,85.2z"/>
</g>
<g id="XMLID_00000035492935144607548580000007405031658598049446_">
	<path style="fill:#0183C6;" d="M134.4,92.6l0-0.2l-0.2-0.1c-6.5-5-11.9,0.3-12,0.3l-0.1,0.1l0,0.2c-0.2,3.4-0.9,6.8-2.1,10.1
		c-0.3,0.8-0.6,1.6-0.9,2.4c-0.7,1.7-1.4,3.5-1.8,5.3c-0.7,3.2,0,6.2,1.8,8.1c1.3,1.3,2.9,2,4.8,2c0,0,0,0,0.1,0
		c2.5,0,5.3-1.4,7.3-3.5c3.1-3.1,3.6-9.2,3.7-14.1C135.2,100,135,96.6,134.4,92.6z"/>
	<path style="fill:#FFFFFF;" d="M127.6,73.9c2.8,6,5.1,12.4,6.2,18.9c-6.2-4.8-11.3,0.3-11.3,0.3c0.1-3.1-0.1-6.3-0.9-9.3
		c-0.8-3.5-2.7-7-2.6-10.7c0.1-2.1,1.1-4.3,3.5-4.3C125.2,68.7,126.6,71.9,127.6,73.9z"/>
	<path d="M123.9,121.1c-1.9,0-3.6-0.7-4.9-2.1c-1.9-1.9-2.6-5-1.9-8.2c0.4-1.9,1.1-3.8,1.9-5.5c0.3-0.7,0.6-1.5,0.9-2.2
		c1.2-3.2,1.9-6.5,2-9.9c0.1-3.1-0.1-6.2-0.8-9.1c-0.3-1.1-0.7-2.3-1.1-3.5c-0.8-2.4-1.6-4.9-1.6-7.5c0.1-3,1.8-5,4.2-5
		c0,0,0,0,0.1,0c3.1,0,4.7,3.5,5.7,5.6c3.2,6.8,5.2,13.1,6.3,19.1c0.6,3.5,0.9,7,0.8,10.4c-0.2,5.3-0.8,11.2-3.8,14.3
		C129.3,119.7,126.5,121,123.9,121.1L123.9,121.1z M122.6,69.5L122.6,69.5c-2.5,0-2.8,2.7-2.8,3.6c-0.1,2.3,0.7,4.7,1.5,6.9
		c0.4,1.2,0.8,2.4,1.1,3.6c0.7,3,1,6.2,0.9,9.5c-0.2,3.6-0.9,7.1-2.1,10.4c-0.3,0.8-0.6,1.5-0.9,2.3c-0.7,1.7-1.4,3.4-1.8,5.2
		c-0.6,2.8,0,5.4,1.5,6.9c1.1,1.1,2.4,1.6,3.9,1.6c2.2,0,4.7-1.2,6.5-3.1c3.1-3.2,3.3-10.3,3.4-13.3c0.1-3.2-0.1-6.6-0.7-10.1l0,0
		c-1-5.9-3-12-6.2-18.7C126,72.4,124.7,69.5,122.6,69.5z"/>
</g>
</svg>
