<?xml version="1.0" encoding="utf-8"?>
<!-- Generator: Adobe Illustrator 24.1.1, SVG Export Plug-In . SVG Version: 6.00 Build 0)  -->
<svg version="1.1" id="Layer_1" xmlns="http://www.w3.org/2000/svg" xmlns:xlink="http://www.w3.org/1999/xlink" x="0px" y="0px"
	 viewBox="0 0 240 240" style="enable-background:new 0 0 240 240;" xml:space="preserve">
<path style="opacity:0.3;" d="M94.33,47.52c0,0-43.12,64.23-68.65,66.2c-25.54,1.97-13.56,31.51,11.45,40.49
	c25,8.98,43.59,76.34,66.5,68.42c22.91-7.92,27.14-37.01-6.08-65.93c-20.38-17.74-11.02-18.07,35.14-10.62
	c46.17,7.45,106.82,20.25,101.05-16.34s-23.39-34.24-43.97-29.37c-20.58,4.86-107.74,18.98-105.22,8.7s52.13-27.12,55.91-56.94
	S96.75,27.65,94.33,47.52z"/>
<g>
	<path style="fill:#AC000D;" d="M231.39,120.53c-5.86-38.54-23.73-36.06-44.61-30.94c-20.87,5.12-109.31,20-106.75,9.17
		c2.57-10.83,52.89-28.57,56.73-59.98C140.59,7.37,92.4,13,89.95,33.93c0,0-43.75,67.65-69.65,69.73
		c-25.91,2.08-13.76,33.19,11.61,42.65c25.37,9.46,44.23,80.41,67.47,72.07c19.03-6.83,25.35-28.61,8.52-53
		c-3.71-5.4-8.57-10.93-14.68-16.45c-5.97-5.39-9.42-9.26-10.19-11.84c0-0.01,0-0.01,0-0.02c-1.87-6.35,12.55-4.91,45.84,0.67
		C175.71,145.59,237.25,159.07,231.39,120.53z M100.71,132.86c-5.11-0.57-9.15-0.83-12.17-0.75c0.57-1.98,1.17-4.01,1.8-6.08
		c3.17-0.41,7.34-0.44,12.72,0.02C102.26,128.29,101.48,130.57,100.71,132.86z M178.29,144.21c-0.35-2.5-0.77-5.02-1.26-7.54
		c7.94,0.38,15.21,0.12,21.27-1.11c0.99,3.19,1.91,6.3,2.78,9.31C194.24,145.3,186.49,144.98,178.29,144.21z"/>
	<path style="fill:#E50050;" d="M198.3,135.56c-6.06,1.23-13.33,1.49-21.27,1.11c-17.43-0.84-38.09-4.74-56.28-8.1
		c-6.99-1.29-12.83-2.11-17.69-2.52c-5.38-0.46-9.55-0.43-12.72-0.02c-9.84,1.24-10.09,6.08-7.31,11.04c0,0.01,0,0.01,0,0.02
		c1.91,3.4,5.23,6.86,7.85,9.26c0.35,0.32,0.71,0.64,1.08,0.96c0.6,0.52,1.18,1.04,1.75,1.56c0.49,0.44,0.96,0.89,1.43,1.33
		c5.24,4.93,9.36,9.85,12.56,14.65c0.07,0.18,0.14,0.35,0.2,0.53c6.28,16.57-0.21,30.26-14.49,35.19
		c-5.45,1.88-10.63-0.76-15.72-5.89c-8.21-8.28-16.16-23.04-24.55-35.78c-5.78-8.77-11.76-16.58-18.17-20.65
		c-1.35-0.85-2.72-1.54-4.11-2.04c-1.64-0.59-3.22-1.27-4.73-2.03c-10.68-5.37-18-14.68-19.22-22.49c1.74-3.94,5.89-6.79,13.18-7.36
		c6.62-0.51,14.43-5.21,22.36-11.89c0.19-0.16,0.38-0.32,0.57-0.49c0.24-0.2,0.48-0.41,0.72-0.62c3.59-3.11,7.19-6.6,10.7-10.27
		c0.47-0.49,0.94-0.98,1.41-1.48c1.67-1.78,3.33-3.6,4.95-5.43c0.3-0.33,0.6-0.67,0.89-1.01c3.46-3.93,6.75-7.91,9.77-11.69
		c0.2-0.25,0.4-0.49,0.58-0.73c1.48-1.86,2.89-3.67,4.22-5.4c7.53-9.82,12.48-17.19,12.48-17.19c1.33-10.96,16.37-17.48,28.97-16.14
		c6.81,2.5,11.61,8.27,10.36,18.21c-3.56,28.04-50.21,43.88-52.59,53.55c-0.4,1.62,3.71,5.03,3.49,5.93
		c-0.79,3.21,7.17,4.04,19.13,3.52c2.88-0.13,5.99-0.34,9.26-0.61c0.66-0.05,1.32-0.11,1.99-0.17c1.33-0.11,2.69-0.24,4.07-0.38
		c15.25-1.51,32.93-4.1,47.31-6.55c0.09-0.01,0.17-0.03,0.26-0.04c0.98-0.17,1.94-0.33,2.88-0.5c0.03-0.01,0.05-0.01,0.07-0.01
		c0.97-0.17,1.92-0.34,2.85-0.5c5.95-1.07,11.06-2.06,14.82-2.88c0.95-0.21,1.8-0.4,2.57-0.58c7.79-1.84,15.15-3.31,21.61-2.46
		c4.55,4.47,8.03,12.11,10.01,24.68C217.91,126.55,210.58,133.06,198.3,135.56z"/>
	<path style="fill:#CA000C;" d="M77.69,194.68c-1.07,1.53-2.18,2.85-3.32,3.93c-7.03-9.64-14.01-22.24-21.34-32.92
		c0.01-2.25,0.05-4.52,0.11-6.79C61.53,171.64,69.48,186.4,77.69,194.68z"/>
	<path style="fill:#CA000C;" d="M34.97,138.25c-0.46,2.54-0.74,5.14-0.9,7.69c-0.84-0.44-1.68-0.81-2.53-1.12
		c-2.53-0.91-4.93-2.03-7.17-3.32c0.47-2.34,1.06-4.78,1.76-7.32c1.51,0.76,3.09,1.44,4.73,2.03
		C32.25,136.71,33.62,137.4,34.97,138.25z"/>
	<path style="fill:#EE004A;" d="M95.14,150.2c-5.66,18.11-10.97,35.2-17.45,44.48c-8.21-8.28-16.16-23.04-24.55-35.78
		c0.6-22.77,2.99-45.06-6.64-39.99c-6.74,3.55-10.05,11.15-11.53,19.34c-1.35-0.85-2.72-1.54-4.11-2.04
		c-1.64-0.59-3.22-1.27-4.73-2.03c3.45-12.5,9.47-27.16,16.32-41.74c0.19-0.16,0.38-0.32,0.57-0.49c0.24-0.2,0.48-0.41,0.72-0.62
		c3.59-3.11,7.19-6.6,10.7-10.27c0.47-0.49,0.94-0.98,1.41-1.48c1.67-1.78,3.33-3.6,4.95-5.43c0.3-0.33,0.6-0.67,0.89-1.01
		c3.46-3.93,6.75-7.91,9.77-11.69c0.2-0.25,0.4-0.49,0.58-0.73c1.48-1.86,2.89-3.67,4.22-5.4c-5.13,34.96-10.69,85.51-3.23,102.74
		c4.68,10.8,7.84,0.93,12.8-16.49c1.35,1.41,3.04,3.01,5.05,4.78c0.35,0.32,0.71,0.64,1.08,0.96c0.6,0.52,1.18,1.04,1.75,1.56
		C94.2,149.31,94.67,149.76,95.14,150.2z"/>
	<path style="fill:#CA000C;" d="M103.06,126.05c-0.8,2.24-1.58,4.52-2.35,6.81c-5.11-0.57-9.15-0.83-12.17-0.75
		c0.57-1.98,1.17-4.01,1.8-6.08C93.51,125.62,97.68,125.59,103.06,126.05z"/>
	<path style="fill:#EE004A;" d="M113.42,102.04c-3.84,6.96-7.23,15.24-10.36,24.01c-5.38-0.46-9.55-0.43-12.72-0.02
		c2.19-7.3,4.73-15.1,7.76-22.83c2.88-0.13,5.99-0.34,9.26-0.61c0.66-0.05,1.32-0.11,1.99-0.17
		C110.68,102.31,112.04,102.18,113.42,102.04z"/>
	<path style="fill:#CA000C;" d="M201.08,144.87c-6.84,0.43-14.59,0.11-22.79-0.66c-0.35-2.5-0.77-5.02-1.26-7.54
		c7.94,0.38,15.21,0.12,21.27-1.11C199.29,138.75,200.21,141.86,201.08,144.87z"/>
	<path style="fill:#EE004A;" d="M198.3,135.56c-6.06,1.23-13.33,1.49-21.27,1.11c-2.98-15.36-8.58-30.68-16.3-41.18
		c0.09-0.01,0.17-0.03,0.26-0.04c0.98-0.17,1.94-0.33,2.88-0.5c0.03-0.01,0.05-0.01,0.07-0.01c0.97-0.17,1.92-0.34,2.85-0.5
		c5.95-1.07,11.06-2.06,14.82-2.88C188.24,105.47,193.86,121.23,198.3,135.56z"/>
	<path style="opacity:0.73;fill:#FF92AB;" d="M29.26,113.15c0,0,32.24-8.36,32.36-20.44S26.2,110.8,19.95,110.39
		C13.69,109.97,16.72,120.93,29.26,113.15z"/>
	<path style="opacity:0.44;fill:#FFBEC6;" d="M127.21,113.35c0,0,66.44-3.01,73.64-8c7.21-4.99-2.39-13.54-44.06-5.54
		S119.07,108.3,127.21,113.35z"/>
</g>
</svg>
