<?xml version="1.0" encoding="utf-8"?>
<!-- Generator: Adobe Illustrator 24.1.1, SVG Export Plug-In . SVG Version: 6.00 Build 0)  -->
<svg version="1.1" id="Layer_1" xmlns="http://www.w3.org/2000/svg" xmlns:xlink="http://www.w3.org/1999/xlink" x="0px" y="0px"
	 viewBox="0 0 960 540" style="enable-background:new 0 0 960 540;" xml:space="preserve">
<path style="fill:#666666;" d="M0,0v540h960V0H0z M456.61,129.39c2.28-2.92,4.33-3.87,6.01-3.89c2.98-0.04,4.81,2.83,4.81,2.83
	l8.98,30.15c0,0-12.97-12.61-23.17-14.63C443.04,141.84,450.28,137.52,456.61,129.39z M313.88,184.11c0.49-0.38,0.97-0.71,1.43-1.01
	c0.16-0.1,0.31-0.2,0.46-0.29c0.01,0,0.01,0,0.01,0c0.75-0.47,1.45-0.84,2.1-1.12c0.22-0.1,0.43-0.18,0.64-0.26
	c1.33-0.52,2.45-0.7,3.34-0.71c0.27-0.01,0.52,0.01,0.75,0.04c0.17,0.01,0.33,0.04,0.48,0.06c0.25,0.04,0.46,0.1,0.65,0.16
	c0.13,0.04,0.24,0.07,0.33,0.11c0.34,0.14,0.51,0.26,0.51,0.26l24.36,60.64l-0.01,0.01l-13.66,9.59l-25.71-63.86
	c-0.03-0.07-0.06-0.13-0.08-0.19c-0.03-0.07-0.04-0.13-0.06-0.19c-0.02-0.07-0.04-0.15-0.05-0.22c-0.01-0.06-0.02-0.12-0.02-0.18
	c0-0.07,0-0.14,0.02-0.2c0.04-0.2,0.13-0.37,0.27-0.52C310.38,185.47,312.36,185.26,313.88,184.11z M384.89,261.11
	c-1.33,2.29-4.35,3.06-7.7,3.11c-6.07,0.09-13.21-2.23-13.21-2.23l-34.24-83.52c0,0-2.83-8.45,4.93-8.56
	c0.03-0.01,0.07-0.01,0.1-0.01h0.12c2.67-0.03,4.93-0.86,6.88-1.71c1.97-0.83,3.61-1.66,5.04-1.68c1.28-0.02,2.4,0.61,3.44,2.44
	c3.36,5.98,3.36,5.98,3.36,5.98S388.65,254.68,384.89,261.11z M423.39,246.37c0,0-4.57,2.14-9.64,2.21
	c-3.83,0.06-7.94-1.07-10.59-5.19c-6.17-9.58-43.18-76.31-43.18-76.31s0.42-6.95,3.7-6.99c0.12-0.01,0.25,0,0.38,0.02
	c1.41,0.2,4.12,0.23,6.89,0.19c4.35-0.06,8.87-0.29,8.87-0.29S433.11,216.4,423.39,246.37z M435.45,230.43l-37.68-59.28
	c-1.79-2.83-0.64-6.68,2.45-8.21l8.79-4.33c0.81-0.39,1.66-0.58,2.49-0.6c1.99-0.03,3.89,0.98,4.92,2.77l30.45,53.76L435.45,230.43z
	 M478.38,221.37c-0.98,0.3-2.57,0.44-4.43,0.46c-6.11,0.09-15.18-0.99-15.18-0.99s-25.31-57.28-36.22-66.79
	c-7.81-6.82,3.85-9.05,12.17-9.17c3.29-0.04,6.05,0.24,6.9,0.69c0,0,28.01,5.9,31.89,23.4
	C477.38,186.45,482.57,220.09,478.38,221.37z M523.26,208.59c-2.69,4.56-6,7.19-9.07,7.24c-3.07,0.04-5.9-2.51-7.59-8.32
	c-3.38-11.59-38.17-83.56-32.55-90.43c4.41-5.41,12.45-12.84,19.01-12.93c1.76-0.03,3.41,0.47,4.85,1.68
	C497.91,105.83,528.59,199.48,523.26,208.59z M565.99,193.29c-0.28,0.18-0.64,0.28-1.09,0.28c-6.82,0.1-31.98-19.81-39.23-25.64
	c-1.26-1.03-2.04-2.43-2.21-3.92l-1.67-14.5c-0.4-3.54,2.55-6.05,5.85-6.1c1.4-0.02,2.87,0.41,4.17,1.39
	c14.55,10.95,38.2,28.82,43.29,32.95C582.53,183.77,571.21,189.72,565.99,193.29z"/>
<path style="fill:#FFFFFF;" d="M704.02,317.82c32.59-11.84,64.8-24.85,77.29-31.21c2.35,0.4,4.67,0.56,6.96,0.52
	c22.63-0.32,50.42-30.28,50.42-30.28l19.38,51.33c0,0-103.9,36.02-135.23,36.47c-9.41,0.13-15.16-2.57-14.16-9.83
	C709.33,330.07,707.52,324.27,704.02,317.82z"/>
<path style="fill:#FFFFFF;" d="M579.9,237.88c-1.58-1.9-3.92-2.93-6.3-2.9c-0.88,0.01-1.77,0.17-2.62,0.49
	c-13.32,4.83-31.79,12.51-44.25,21.7l-0.42,0.32c-2.34,1.99-22.91,20.03-20.24,40.3c1.37,10.38,8.46,19.36,21.03,26.68
	c1.02,0.6,2.02,1.17,3.06,1.69c17.53,9.27,38.59,12.76,61.02,12.44c30.86-0.44,64.29-8.09,94.59-17.79
	c4.31,10.61,1.04,16.66,1.04,16.66s-122.29,36.35-146.38,36.69c-2.65,0.04-4.11-0.36-4.09-1.29c0.21-9.35-62.57-98.03-62.57-98.03
	l113.49-51.96c0,0,36.63,39.91,73,68.24c0.78,0.62,1.5,1.2,2.23,1.8c-20.04,3.87-39.15,6.43-55,6.66
	c-14.18,0.2-25.75-1.46-33.03-5.74c-4.64-2.74-7.21-6.44-7.81-11.31c-1.83-14.87,6.27-27.9,13.37-36.23
	C582.11,243.86,582.07,240.49,579.9,237.88z"/>
<path style="fill:#FFFFFF;" d="M670.95,290.75c-22.18-25.12-51.97-51.48-64.09-64.76c-3.59-3.95-5.74-6.22-5.74-6.22l41.08-10.33
	c0.43-0.14,0.94-0.21,1.52-0.22c13.88-0.2,67.14,42.58,100.71,62.04C725.19,277.28,693.46,285.5,670.95,290.75z"/>
<path style="fill:#FFFFFF;" d="M669.81,166.82c5.14,1.1,10.42,1.71,15.87,1.66c21.02-0.21,41.53-5.33,61.92-9.96
	c13.61-3.09,51.9-10.12,50.78-30.52c-1.92-35.07,18.93-41.92,30.8-38.96c11.87,2.96,25.69,144.5,5.74,152.16
	c-7.49,7.84-26.2,26.16-46.46,26.45c-12.75,0.18-27.21-3.47-42.32-13.91c-30.93-21.37-77.88-48.07-102.28-55.12
	C646.69,190.61,658.48,177.82,669.81,166.82z"/>
<path style="fill:#FFFFFF;" d="M588.21,61.42c1.12-0.49,2.26-0.73,3.43-0.74c19-0.27,42.89,59.12,49.18,71.06
	c3.26,6.16,3.31,8.63,1.29,8.66c-2.13,0.03-6.56-2.66-11.93-6.58c-3.52-2.57-8.48-3.73-14.22-3.65c-11.26,0.16-25.5,5.1-37.73,13.52
	c-12.27,8.47-17.94,9.93-20.36,9.97c-1.21,0.02-1.61-0.33-1.61-0.33s-20.82-10.25-31.61-23.72c-6.99-8.76-4.75-20.95-7.03-25.49
	C511.81,92.64,588.21,61.42,588.21,61.42z"/>
<path style="fill:#FFFFFF;" d="M275.07,200.54c11.02-5.41,27.13-8.81,27.13-8.81s17.79,60.63,35.47,69.29
	c17.7,8.66,34.02,10.26,34.02,10.26s6.69,5.48,12.36,5.4c3.36-0.05,6.35-2.05,7.38-8.29c2.79-16.79-6.07-15.15-0.25-16.99
	c0.5-0.16,1.04-0.23,1.62-0.24c6.2-0.09,16.86,7.73,24.86,10.02c0.34,0.1,0.71,0.14,1.08,0.14c9.09-0.13,26.29-29.9,26.29-29.9
	s8.48-3.39,12.43-3.45c0.46-0.01,0.86,0.03,1.18,0.13c3,0.88,10.63,9.83,10.63,9.83s23.4-0.29,24.23-11.06
	c0.85-10.78-1.82-14.31-1.82-14.31l9.07-2.08l6.85,8.4l21.13,2.04l7.16-22.17l9.49-6.24l23.27,13.02L586.74,187l-6.71-12.5
	c-3.81-7.1-1.11-15.44,6.17-18.98c8.54-4.15,20.16-8.64,30.75-8.79c5.13-0.07,10.02,0.87,14.2,3.36
	c7.07,4.21,14.26,8.13,21.68,11.27c-13.01,15.63-19.14,35.48-19.14,35.48c-1.52,0.02-2.77,0.27-3.72,0.75
	c-19.23,9.91-39.8,13.76-59.24,22.55c-21.68,9.8-43.19,19.92-65.02,29.4c-44.5,19.31-95.2,38.7-125.05,39.12
	c-0.91,0.01-1.81,0.01-2.68-0.02c-58.73-1.55-60.2-3.05-70.18-18.16C297.82,255.39,264.02,205.95,275.07,200.54z"/>
<path style="fill:#FFFFFF;" d="M108.43,262.2c1.2-1.34,2.25-2.45,3.08-3.32c57.81,104.69,253.42,99.19,284.99,103.62
	c1.06,0.15,2.06,0.21,3.03,0.2c27.93-0.4,18.88-66.04,18.88-66.04l37.43-15.31c0,0,14.49,21.01,38.89,55.67
	c13.71,19.43,24.89,43.39,24.89,43.39s-25.71,12.96-74.65,25.04c-16.75,4.13-36.74,6.18-58.61,6.49
	c-111.14,1.59-270.09-41.72-290.87-84.94C87.56,310.52,96.99,274.76,108.43,262.2z"/>
<path style="fill:#FFFFFF;" d="M871.53,397.68c-8.11,28.58-84.82,33.52-122.49,34.06c-31.54,0.45-65.07-4.2-86.53-6.03
	c-2.29-0.2-4.79-0.27-7.49-0.23c-52.98,0.76-183.1,44.26-276.39,47.84c-2.31,0.09-4.63,0.15-6.99,0.18
	c-96.55,1.38-232.32-42.21-255.58-58.39c-23.83-16.58-31.12-72.29-31.12-72.29c64.54,46.47,48.97,39.27,146.89,64.45
	c56.86,14.63,104.82,19.35,144.82,18.77c84.23-1.2,133.12-25.88,155.35-30.95c12.17-2.77,127.84-33.76,170.79-34.37
	c3.6-0.05,6.7,0.11,9.17,0.52c2.03,0.34,4.29,0.48,6.74,0.44c36.15-0.52,140.94-39.88,140.94-39.88S886.45,345.2,871.53,397.68z"/>
<path style="fill:#FFFFFF;" d="M672.41,317.72c-30.27,8.84-56.89,13.43-79.76,13.75c-23.94,0.34-43.75-3.99-59.25-13.01
	c-10.16-5.91-15.84-12.86-16.86-20.66c-2.22-16.81,16.9-33.2,17.72-33.87c10.67-7.84,26.33-14.66,38.68-19.33
	c-7.38,9.43-14.71,23.13-12.75,38.95c0.93,7.41,4.93,13.23,11.95,17.36c8.92,5.24,22.5,7.19,38.53,6.96
	c18.38-0.26,39.98-3.4,61.43-7.73c0,0,76.59-19.55,90.94-24.13c2.36,1.28,4.53,2.43,6.5,3.4
	C738.58,294.64,706.09,307.87,672.41,317.72z"/>
<path style="fill:#FFFFFF;" d="M395.46,335.78c-1.69,4.2-10.6,6.05-23.87,6.24c-47.05,0.67-148.9-19.5-177.99-29.4
	c-37.27-12.7-56.91-30.07-63.79-62.49c-5.22-24.63,72.19-36.41,109.66-40.63c0.81-0.09,1.63-0.14,2.44-0.15
	c9.51-0.14,18.51,5.18,22.62,13.47c8.97,18.04,27.32,43.12,42.36,62.63c9.57,12.45,30.05,15.44,48.84,15.17
	c20.55-0.29,39.07-4.49,39.07-4.49S403.13,316.68,395.46,335.78z"/>
<path style="fill:#CBCBCB;" d="M643.11,140.03c-0.23,0.25-0.57,0.37-1,0.37c-2.14,0.03-6.57-2.65-11.93-6.58
	c-3.52-2.57-8.48-3.73-14.22-3.64c-11.26,0.16-25.51,5.09-37.73,13.52c-12.28,8.46-17.95,9.93-20.36,9.96
	c-1.22,0.02-1.61-0.32-1.61-0.32s-20.82-10.25-31.61-23.72c-6.99-8.76-4.75-20.95-7.03-25.49c-0.35-0.69-0.4-1.45-0.19-2.28
	c-0.05,0-0.08,0-0.08,0l-18.97,5.42c3.83,11.84,29.81,92.88,24.88,101.32c-2.69,4.56-6.01,7.19-9.08,7.24
	c-3.07,0.04-5.88-2.51-7.58-8.32c-2.99-10.24-30.5-67.64-32.98-85.58c-2.28,2.19-4.35,4.61-5.95,7.25l8.74,29.3
	c0,0-12.97-12.61-23.17-14.63c-1.4-0.28-2.47-0.6-3.26-0.96c-2.34,1.17-4.81,2.2-7.32,2.92c5.11,1.28,27.42,7.68,30.85,23.16
	c3.86,17.48,9.06,51.12,4.86,52.4c-0.98,0.3-2.56,0.44-4.41,0.46c-6.13,0.09-15.19-0.99-15.19-0.99s-25.32-57.28-36.22-66.79
	c-0.49-0.43-0.91-0.85-1.25-1.24c-0.07,0.19-0.14,0.39-0.19,0.59c0,0-3.7,2.83-7.18,5.12c1.02,0.47,1.89,1.24,2.48,2.26l30.45,53.76
	l-11.41,15.89l-37.68-59.28c-0.24-0.38-0.43-0.79-0.57-1.2l-9.3-0.77c14.5,17.21,42.8,54.66,35.49,77.19c0,0-4.57,2.14-9.64,2.21
	c-3.83,0.06-7.94-1.07-10.59-5.19c-5.54-8.61-35.98-63.34-42.11-74.38l-9.44,2.37c2,3.55,2,3.55,2,3.55s35.04,79.75,31.27,86.18
	c-1.33,2.29-4.35,3.06-7.69,3.11c-6.07,0.09-13.22-2.23-13.22-2.23l-34.15-83.29l-4.94,3.4l24.09,60.01l-0.02,0.01l0.02,0.05
	l-13.69,9.62l-25.34-62.98l-7.9,2.95c0.1-0.02,0.16-0.03,0.16-0.03s17.79,60.64,35.46,69.3c17.7,8.66,34.03,10.25,34.03,10.25
	s6.69,5.48,12.36,5.4c3.35-0.05,6.35-2.05,7.38-8.29c2.79-16.79-6.08-15.15-0.25-16.99c0.5-0.16,1.04-0.23,1.62-0.24
	c6.2-0.09,16.85,7.72,24.85,10.02c0.35,0.1,0.71,0.14,1.08,0.14c9.09-0.13,26.29-29.9,26.29-29.9s8.49-3.39,12.44-3.45
	c0.46-0.01,0.86,0.03,1.17,0.13c3.01,0.88,10.64,9.83,10.64,9.83s23.4-0.29,24.22-11.06c0.85-10.78-1.81-14.31-1.81-14.31l9.07-2.08
	l6.85,8.4l21.13,2.04l7.16-22.17l9.48-6.24l23.27,13.02l18.1-18.52l-6.71-12.5c-3.81-7.1-1.11-15.44,6.17-18.99
	c8.54-4.15,20.16-8.63,30.75-8.79c5.13-0.07,10.02,0.87,14.2,3.36c3.81,2.27,7.65,4.45,11.55,6.47
	C643.02,153.99,644.04,144.8,643.11,140.03z M565.99,193.29c-0.28,0.18-0.65,0.28-1.1,0.28c-6.81,0.1-31.97-19.81-39.22-25.64
	c-1.26-1.03-2.04-2.43-2.21-3.92l-1.67-14.5c-0.41-3.54,2.55-6.05,5.85-6.1c1.4-0.02,2.87,0.41,4.17,1.39
	c14.54,10.95,38.2,28.82,43.29,32.95C582.53,183.77,571.21,189.72,565.99,193.29z"/>
<path style="fill:#CBCBCB;" d="M857.52,308.38c-8.09,2.78-104.69,35.85-134.7,36.28c-9.41,0.13-15.15-2.57-14.16-9.83
	c0.67-4.75-1.15-10.56-4.65-17c32.59-11.85,64.81-24.86,77.29-31.21c2.35,0.4,4.67,0.56,6.96,0.53
	c21.02-0.31,46.5-26.19,50.01-29.86v-0.04c0,0,2.04-15.91,2.58-24.54c-1.5,4.54-3.46,7.55-5.93,8.5
	c-7.48,7.83-26.2,26.15-46.46,26.44c-12.75,0.19-27.21-3.47-42.32-13.9c-30.93-21.37-77.88-48.07-102.28-55.12
	c2.83-8.01,14.62-20.81,25.95-31.8c0.12,0.03,0.25,0.05,0.37,0.07l-0.62-0.46c0,0-9.9-3.78-16.76-5.05
	c-12.99,15.63-19.11,35.45-19.11,35.45c-1.53,0.02-2.78,0.27-3.72,0.76c-19.23,9.91-39.81,13.75-59.24,22.55
	c-21.68,9.8-43.19,19.91-65.02,29.39c-44.51,19.31-95.2,38.7-125.06,39.12c-0.91,0.02-1.8,0.01-2.68-0.01
	c-58.73-1.56-60.2-3.05-70.18-18.16c-9.96-15.08-43.66-64.38-32.78-69.92l-0.74,0.24l-34.68,8.68c0.77-0.09,1.53-0.13,2.3-0.14
	c9.51-0.14,18.51,5.18,22.63,13.46c8.97,18.04,27.32,43.12,42.35,62.63c9.57,12.45,30.05,15.44,48.84,15.17
	c20.55-0.29,39.07-4.49,39.07-4.49s8.34,20.56,0.67,39.67c-1.69,4.2-10.6,6.05-23.87,6.24c-47.05,0.67-148.9-19.5-177.99-29.41
	c-37.27-12.7-56.91-30.07-63.79-62.49c-0.54-2.57-0.19-4.99,0.92-7.29c-0.09,0.07-0.17,0.13-0.25,0.19
	c-18.66,14.22-19.32,16.11-19.32,16.11l-0.09,0.2c0.16-0.16,0.3-0.31,0.44-0.45c57.82,104.69,253.42,99.18,284.99,103.62
	c1.06,0.14,2.06,0.21,3.03,0.19c27.93-0.4,18.87-66.03,18.87-66.03l37.44-15.31c0,0,14.49,21.01,38.89,55.67
	c13.71,19.43,24.89,43.39,24.89,43.39s-25.71,12.97-74.65,25.05c-16.75,4.12-36.75,6.17-58.61,6.48
	c-111.14,1.59-270.09-41.72-290.87-84.94c-3.07-6.4-3.53-15.7-2.27-25.41l-0.05,0.1c0,0-8.3,19.59-8.11,41.22
	c64.41,46.37,48.92,39.19,146.79,64.37c56.86,14.63,104.82,19.35,144.81,18.77c84.23-1.2,133.12-25.88,155.35-30.94
	c12.17-2.77,127.83-33.76,170.79-34.37c3.6-0.05,6.69,0.11,9.17,0.52c2.03,0.34,4.29,0.48,6.74,0.44
	c36.15-0.51,140.94-39.88,140.94-39.88s0.03,0.02,0.08,0.07L857.52,308.38z M642.2,209.45c0.43-0.14,0.94-0.21,1.52-0.21
	c13.88-0.2,67.14,42.57,100.72,62.03c-19.26,6.02-50.99,14.23-73.49,19.48c-22.18-25.12-51.97-51.47-64.09-64.75
	c-3.59-3.96-5.74-6.22-5.74-6.22L642.2,209.45z M686.81,337.48c0,0-122.29,36.35-146.38,36.69c-2.65,0.04-4.11-0.36-4.1-1.28
	c0.21-9.36-62.57-98.04-62.57-98.04l113.49-51.96c0,0,36.64,39.91,73,68.24c0.78,0.63,1.5,1.2,2.23,1.8
	c-20.04,3.87-39.15,6.43-55,6.66c-14.19,0.2-25.76-1.46-33.03-5.74c-4.65-2.74-7.21-6.44-7.81-11.32
	c-1.84-14.86,6.27-27.89,13.36-36.22c2.1-2.45,2.06-5.82-0.1-8.42c-1.58-1.9-3.92-2.94-6.3-2.9c-0.88,0.01-1.77,0.17-2.62,0.49
	c-13.32,4.83-31.79,12.51-44.25,21.7l-0.42,0.32c-2.34,1.99-22.91,20.03-20.24,40.3c1.37,10.39,8.46,19.37,21.03,26.68
	c1.02,0.6,2.02,1.17,3.06,1.69c17.53,9.28,38.6,12.76,61.02,12.44c30.86-0.44,64.29-8.09,94.59-17.79
	C690.08,331.43,686.81,337.48,686.81,337.48z M672.4,317.73c-30.26,8.84-56.89,13.43-79.75,13.75
	c-23.94,0.35-43.75-3.99-59.25-13.01c-10.16-5.91-15.83-12.86-16.85-20.66c-2.22-16.81,16.89-33.2,17.72-33.87
	c10.66-7.84,26.32-14.66,38.68-19.33c-7.38,9.44-14.71,23.14-12.75,38.96c0.93,7.4,4.93,13.23,11.95,17.35
	c8.92,5.24,22.51,7.2,38.53,6.97c18.39-0.26,39.98-3.4,61.44-7.73c0,0,76.59-19.56,90.93-24.13c2.36,1.28,4.53,2.42,6.5,3.4
	C738.58,294.64,706.09,307.87,672.4,317.73z"/>
</svg>
