<?xml version="1.0" encoding="utf-8"?>
<!-- Generator: Adobe Illustrator 24.1.1, SVG Export Plug-In . SVG Version: 6.00 Build 0)  -->
<svg version="1.1" id="Layer_1" xmlns="http://www.w3.org/2000/svg" xmlns:xlink="http://www.w3.org/1999/xlink" x="0px" y="0px"
	 viewBox="0 0 180 240" style="enable-background:new 0 0 180 240;" xml:space="preserve">
<g>
	<path style="fill:#FFFFFF;" d="M41.53,130.21c-2.3,1.23-4.39,2.66-6.3,4.26c-3.92-1.8-6.9-5.98-8.05-8.79
		c5.56-4.13,12.45-6.85,20.86-7.4c1.88-0.14,4.88-0.61,6.63,0.72C61.23,123.91,43.92,128.96,41.53,130.21z"/>
	<path style="fill:#0088C5;" d="M35.25,134.48c-0.53,0.43-1.03,0.86-1.52,1.33c-0.97,1.11-1.9,2.28-2.08,2.51
		c-3.34,3.55-4.54,7.55-6.35,11.95c-0.14,0.35-0.3,0.7-0.47,1.04c-0.13,0.33-0.31,0.64-0.49,0.92c-0.12,0.19-0.24,0.4-0.38,0.59
		c-0.17,0.28-0.4,0.55-0.62,0.79c-0.05,0.07-0.09,0.11-0.17,0.17c-0.47,0.5-1.04,0.89-1.66,1.15c-0.84,0.33-1.78,0.37-2.91,0.02
		c-0.64-0.2-1.33-0.53-2.08-1.02c-0.52-0.33-1.09-0.76-1.61-1.27c-1.14-1.04-2.14-2.36-2.42-3.53c-1.34-5.44,2.31-10.14,5.07-13.93
		c1.44-1.98,3.01-3.83,4.76-5.54c0.03-0.02,0.08-0.06,0.12-0.1c0.16-0.15,0.41-0.41,0.73-0.7c0.23-0.21,0.47-0.42,0.72-0.68
		c0.66-0.58,1.37-1.23,1.96-1.76l0.03-0.02c0.25-0.17,0.45-0.37,0.63-0.48c0.22-0.16,0.39-0.25,0.49-0.3
		c0.03-0.02,0.09-0.03,0.11,0.01l0.03,0.01l0.02,0.03c1.15,2.82,4.13,7,8.05,8.79L35.25,134.48z"/>
	<path d="M59.33,122.05c0.18-1.21,0.05-3.57-2.72-5.62c-0.61-0.47-1.37-0.85-2.17-1.1c-2.06-0.64-4.28-0.47-5.91-0.33l-0.7,0.06
		c-8.25,0.57-15.65,3.11-21.96,7.56c-1.32,0.52-2.93,1.96-5.77,4.71c-1.84,1.82-3.57,3.82-5.15,5.98l-0.3,0.41
		c-2.93,4.02-6.93,9.48-5.3,16.18c0.55,2.29,2.35,4.21,3.38,5.15c0.66,0.6,1.36,1.16,2.04,1.6c0.96,0.61,1.92,1.08,2.87,1.38
		c2.62,0.82,7.54,1.07,10.66-6.54c0.32-0.75,0.61-1.5,0.9-2.23c1.3-3.34,2.44-6.24,4.8-8.74c0.09-0.11,0.32-0.41,0.67-0.78
		c0.37-0.45,0.88-1.08,1.4-1.68c2.15-2.01,4.48-3.67,6.95-4.99c0.27-0.14,1.3-0.55,2.13-0.86C52.25,129.51,58.7,126.68,59.33,122.05
		z M41.53,130.21c-2.3,1.2-4.36,2.64-6.28,4.27c-0.53,0.43-1.03,0.86-1.52,1.33c-0.97,1.11-1.9,2.28-2.08,2.51
		c-3.34,3.55-4.54,7.55-6.35,11.95c-0.14,0.35-0.3,0.7-0.47,1.04c-0.16,0.32-0.31,0.64-0.49,0.92c-0.12,0.19-0.24,0.4-0.38,0.59
		c-0.17,0.28-0.4,0.55-0.62,0.79c-0.05,0.07-0.09,0.11-0.17,0.17c-0.47,0.5-1.01,0.9-1.66,1.15c-0.84,0.33-1.78,0.37-2.91,0.02
		c-0.64-0.2-1.33-0.53-2.08-1.02c-0.52-0.33-1.09-0.76-1.61-1.27c-1.14-1.04-2.14-2.36-2.42-3.53c-1.34-5.44,2.31-10.14,5.07-13.93
		c1.44-1.98,3.01-3.83,4.76-5.54c0.03-0.02,0.08-0.06,0.12-0.1c0.16-0.15,0.41-0.41,0.73-0.7c0.21-0.22,0.45-0.45,0.72-0.68
		c0.64-0.59,1.36-1.27,1.96-1.76l0.03-0.02c0.23-0.18,0.45-0.37,0.63-0.48c0.22-0.16,0.39-0.25,0.49-0.3
		c0.03-0.02,0.09-0.03,0.11,0.01l0.03,0.01c0,0,0,0,0.03,0.01c5.6-4.09,12.49-6.81,20.86-7.37c1.5-0.09,3.71-0.42,5.44,0.12
		c0.44,0.14,0.83,0.32,1.19,0.6C61.23,123.91,43.92,128.96,41.53,130.21z"/>
</g>
<g>
	<path style="fill:#FFFFFF;" d="M107.18,203.21c0,0-2.37,0.67-5.52,0.75c-3.15,0.08-5.52-0.46-5.52-0.46l-0.83-31.91
		c-0.05-2.1,5.04-3.93,7.14-3.99c2.1-0.05,3.85,1.59,3.9,3.69L107.18,203.21z"/>
	<path style="fill-rule:evenodd;clip-rule:evenodd;fill:#009FF9;" d="M122.93,233.04c-2.72,3.29-7.27,2.88-11.07,2.96l-3.85,0.11
		l-2.59,0.05l-2.75,0.08l-0.94-0.08c-2.15-0.32-4.82-1.86-4.87-3.77l-0.73-28.9c0,0,2.37,0.54,5.52,0.46
		c3.15-0.08,5.52-0.75,5.52-0.75l0.3,12.17c0.24-0.03,0.48-0.03,0.73-0.03c0.86,0,1.8,0.05,2.88,0.24c0.05,0,0.27,0.05,0.27,0.05
		c4.87,0.92,9.16,4.07,11.53,8.43C124.14,226.45,124.79,230.81,122.93,233.04z"/>
	<path d="M125.73,222.54c-2.83-5.2-7.97-8.97-13.79-10.07l-0.19-0.03c-0.4-0.08-0.75-0.13-1.13-0.16l-0.22-9.16l-0.11-3.66
		l-0.73-28.25c-0.08-3.85-3.18-6.84-7.03-6.84h-0.19c-2.21,0.05-10.42,2.02-10.29,7.3l0.73,28.25l0.83,32.56
		c0.11,3.72,3.99,6.33,7.59,6.89c0.11,0,0.19,0.03,0.27,0.03l0.94,0.08h0.32l2.75-0.08l2.59-0.05l3.88-0.11h1.35
		c3.69-0.05,8.78-0.08,12.12-4.12C128.4,231.54,127.37,225.61,125.73,222.54z M122.93,233.04c-2.72,3.29-7.27,2.88-11.07,2.96
		l-3.85,0.11l-2.59,0.05l-2.75,0.08l-0.94-0.08c-2.15-0.32-4.82-1.86-4.87-3.77l-0.83-32.56l-0.73-28.25
		c-0.05-2.1,5.04-3.93,7.14-3.99h0.11c2.05,0,3.74,1.62,3.8,3.69l0.73,28.25l0.11,3.66l0.3,12.17c0.24-0.03,0.48-0.03,0.73-0.03
		c0.86,0,1.8,0.05,2.88,0.24c0.05,0,0.27,0.05,0.27,0.05c4.87,0.92,9.16,4.07,11.53,8.43C124.14,226.45,124.79,230.81,122.93,233.04
		z"/>
</g>
<g>
	<path style="fill:#FFFFFF;" d="M78.95,195.22c0,0-0.03,0.03-0.11,0.03c-0.48,0.19-2.53,0.94-5.28,1.32
		c-3.12,0.4-5.57,0.13-5.57,0.13l-4.31-31.62c-0.27-2.1,1.18-4.01,3.29-4.28c2.07-0.3,7.38,0.7,7.68,2.8L78.95,195.22z"/>
	<path style="fill-rule:evenodd;clip-rule:evenodd;fill:#009FF9;" d="M82.86,223.87c0.24,1.88-2.13,3.82-4.2,4.5l-0.83,0.22
		l-0.08,0.03l-1.02,0.13l-8.11,1.1c-0.46,0.05-0.94,0.13-1.43,0.22c-0.97,0.13-1.97,0.27-2.96,0.38c-0.48,0.03-1,0.05-1.48,0.05
		c-0.01,0-0.02,0-0.03,0c-0.74,0-1.48-0.04-2.18-0.19c-0.46-0.11-0.92-0.24-1.37-0.43c-0.46-0.19-0.89-0.4-1.32-0.7
		c-0.22-0.16-0.43-0.32-0.62-0.48c-2.18-1.91-2.26-6.33-1.37-8.86c1.62-4.69,5.36-8.48,10.02-10.18c0,0,0.22-0.08,0.27-0.11
		c1.32-0.43,2.45-0.67,3.5-0.78l-1.64-12.06c0,0,2.45,0.27,5.57-0.13c2.75-0.38,4.79-1.13,5.28-1.32c0.08,0,0.11-0.03,0.11-0.03
		L82.86,223.87z"/>
	<path d="M86.06,223.42l-4.42-32.26l-3.8-28.01c-0.65-4.63-7.49-5.63-10.07-5.63c-0.48,0-0.89,0.03-1.24,0.08
		c-1.89,0.24-3.53,1.21-4.66,2.69c-1.16,1.51-1.64,3.37-1.37,5.22l3.8,28.01l0.48,3.61l1.24,9.08c-0.3,0.08-0.62,0.19-0.94,0.3
		l-0.35,0.13c-5.52,1.99-9.99,6.54-11.93,12.12c-1.16,3.31-1.21,9.32,2.29,12.36c2.02,1.78,4.52,2.61,7.65,2.61
		c1.72,0,3.45-0.24,4.98-0.48c0.46-0.08,0.89-0.13,1.32-0.19l3.85-0.54l2.56-0.35l2.72-0.38c0.11,0,0.22-0.03,0.32-0.05l0.92-0.22
		c0.08-0.03,0.16-0.05,0.24-0.08C83.13,230.31,86.55,227.11,86.06,223.42z M78.66,228.37l-0.83,0.22l-0.08,0.03l-1.02,0.13
		l-8.11,1.1c-0.46,0.05-0.94,0.13-1.43,0.22c-0.97,0.13-1.97,0.3-2.96,0.38c-1.24,0.11-2.5,0.11-3.69-0.13
		c-0.46-0.11-0.92-0.24-1.37-0.43c-0.46-0.19-0.89-0.4-1.32-0.7c-0.22-0.16-0.43-0.32-0.62-0.48c-2.18-1.91-2.26-6.33-1.37-8.86
		c1.62-4.69,5.36-8.48,10.02-10.18c0,0,0.22-0.08,0.27-0.11c1.32-0.43,2.45-0.67,3.5-0.78l-1.64-12.06l-0.48-3.61l-3.82-28.01
		c-0.27-2.1,1.18-4.01,3.29-4.28c0.22-0.05,0.51-0.05,0.81-0.05c2.4,0,6.62,1,6.87,2.85l3.82,27.98l0.48,3.64l3.9,28.65
		C83.1,225.76,80.73,227.7,78.66,228.37z"/>
</g>
<g>
	<path style="fill:#FFFFFF;" d="M88.82,47.24c-0.59,0.4-1.14,0.53-1.67,0.5c-2.77-0.15-4.95-5.05-6.48-6.72
		c-1.14-1.25-2.46-1.81-3.86-1.89c-2.31-0.13-4.8,1.03-6.94,2.5c0,0.03-2.25,1.74-3.11,2.5l0,0.03c-1.45,1.35-3.35,1.97-5.17,1.87
		c-1.72-0.1-3.43-0.81-4.7-2.2c-1.65-1.76-2.22-4.17-1.75-6.35c0.29-1.33,0.98-2.56,2.03-3.58c0.23-0.23,0.88-0.81,1.87-1.62
		c3.05-2.55,6.57-4.65,10.48-5.59c1.83-0.44,3.57-0.61,5.21-0.52c1.48,0.08,2.92,0.38,4.32,0.86c1.4,0.51,2.79,1.21,4.23,2.1
		c1.17,0.74,2.25,1.66,3.28,2.61C89.82,34.73,93.7,43.92,88.82,47.24z"/>
	<path d="M88.77,29.33c-1.39-1.26-2.57-2.22-3.77-2.96c-1.67-1.04-3.27-1.83-4.88-2.4c-1.72-0.61-3.43-0.95-5.2-1.04
		c-1.99-0.11-4,0.07-6.16,0.6c-4.02,0.99-7.99,3.09-11.78,6.28c-0.96,0.76-1.67,1.42-2.01,1.72c-1.22,1.17-2.14,2.6-2.66,4.17
		c-0.13,0.34-0.23,0.72-0.3,1.09c-0.72,3.3,0.22,6.75,2.53,9.26c1.81,1.93,4.25,3.07,6.89,3.21c2.77,0.15,5.52-0.85,7.57-2.76
		c0.28-0.25,0.82-0.68,1.38-1.14c0.87-0.63,1.8-1.3,1.91-1.43c1.68-1.07,3.22-1.63,4.35-1.57c0.65,0.04,1.17,0.31,1.65,0.85
		c0.25,0.28,0.73,0.98,1.15,1.63c1.67,2.49,3.93,5.94,7.53,6.14c1.26,0.07,2.52-0.29,3.64-1.04c2.21-1.49,3.48-3.82,3.72-6.72
		C94.72,38.21,91.74,32.11,88.77,29.33z M88.82,47.24c-0.59,0.4-1.14,0.53-1.67,0.5c-2.77-0.15-4.95-5.05-6.48-6.72
		c-1.14-1.25-2.46-1.81-3.86-1.89c-2.31-0.13-4.8,1.03-6.94,2.5c0,0.03-2.25,1.74-3.11,2.5l0,0.03c-1.45,1.35-3.35,1.97-5.17,1.87
		c-1.72-0.1-3.43-0.81-4.7-2.2c-1.65-1.76-2.22-4.17-1.75-6.35c0.29-1.33,0.98-2.56,2.03-3.58c0.23-0.23,0.88-0.81,1.87-1.62
		c1.24-1.04,2.57-2.01,3.96-2.85c2.04-1.21,4.19-2.19,6.52-2.74c1.83-0.44,3.57-0.61,5.21-0.52c1.48,0.08,2.92,0.38,4.32,0.86
		c1.4,0.51,2.79,1.21,4.23,2.1c1.17,0.74,2.25,1.66,3.28,2.61C89.82,34.73,93.7,43.92,88.82,47.24z"/>
	<path style="fill:#673101;" d="M69.88,41.63c0,0.03-2.25,1.74-3.11,2.5l0,0.03c-1.45,1.35-3.35,1.97-5.17,1.87
		c-1.72-0.1-3.43-0.81-4.7-2.2c-1.65-1.76-2.22-4.17-1.75-6.35c0.29-1.33,0.98-2.56,2.03-3.58c0.23-0.23,0.88-0.81,1.87-1.62
		c1.24-1.04,2.57-2.01,3.96-2.85c0.13,0.01,0.24,0.04,0.35,0.07c0.03,0,0.03,0,0.05,0c0.03,0,0.03,0.03,0.05,0.03
		c1.06,0.36,1.5,1.22,1.5,1.22l0,0.03c0.39,0.67,0.51,1.48,0.28,2.28c-0.23,0.66-0.66,1.15-1.22,1.5c0.61-0.26,1.31-0.36,2-0.13
		c1.46,0.49,2.29,2.07,1.8,3.55c-0.23,0.72-0.72,1.28-1.36,1.62c0.49-0.13,1.06-0.18,1.59-0.02C69.03,39.88,69.66,40.7,69.88,41.63z
		"/>
</g>
<g>
	<path style="fill:#FFFFFF;" d="M140.49,48.76c-1.42,1.24-3.2,1.75-4.91,1.65c-1.85-0.11-3.63-0.94-4.92-2.44c0,0,0-0.03-0.03-0.03
		c-0.73-0.85-2.77-2.8-2.77-2.82c-1.97-1.7-4.28-3.13-6.59-3.26c-1.39-0.08-2.76,0.32-4.04,1.43c-1.7,1.49-4.42,6.09-7.18,5.93
		c-0.54-0.03-1.06-0.22-1.6-0.68c-4.48-3.84,0.43-12.51,4-15.13c1.12-0.82,2.3-1.62,3.55-2.22c1.52-0.72,2.98-1.25,4.42-1.6
		c1.44-0.32,2.9-0.45,4.38-0.36c1.64,0.09,3.34,0.46,5.1,1.1c3.77,1.38,7.01,3.85,9.75,6.73c0.89,0.91,1.47,1.56,1.67,1.82
		c0.93,1.13,1.45,2.42,1.61,3.78C143.16,44.88,142.33,47.2,140.49,48.76z"/>
	<path d="M146.13,42.31c-0.21-2-1.01-3.91-2.32-5.49c-0.33-0.37-0.96-1.1-1.85-2.02c-0.33-0.34-0.66-0.68-0.99-1
		c-3.11-3.01-6.45-5.19-9.95-6.5c-2.08-0.77-4.05-1.18-6.03-1.29c-1.77-0.1-3.5,0.04-5.3,0.45c-1.64,0.39-3.31,0.99-5.08,1.83
		c-1.27,0.6-2.56,1.41-4.07,2.51c-3.26,2.42-6.9,8.13-7.08,13.12c-0.11,2.9,0.9,5.35,2.92,7.08c1.03,0.87,2.23,1.37,3.49,1.44
		c3.59,0.21,6.22-2.95,8.16-5.23c0.49-0.59,1.01-1.23,1.32-1.48c0.54-0.48,1.09-0.69,1.73-0.65c1.13,0.07,2.59,0.8,4.13,2.04
		c0.15,0.22,2.25,2.09,2.93,2.86c0.03,0.03,0.03,0.03,0.05,0.06c1.79,2.12,4.43,3.43,7.19,3.59c2.63,0.15,5.18-0.69,7.19-2.41
		C145.15,49.01,146.48,45.69,146.13,42.31z M140.49,48.76c-1.42,1.24-3.2,1.75-4.91,1.65c-1.85-0.11-3.63-0.94-4.92-2.44
		c0,0,0-0.03-0.03-0.03c-0.73-0.85-2.77-2.8-2.77-2.82c-1.97-1.7-4.28-3.13-6.59-3.26c-1.39-0.08-2.76,0.32-4.04,1.43
		c-1.7,1.49-4.42,6.09-7.18,5.93c-0.54-0.03-1.06-0.22-1.6-0.68c-4.48-3.84,0.43-12.51,4-15.13c1.12-0.82,2.3-1.62,3.55-2.22
		c1.52-0.72,2.98-1.25,4.42-1.6c1.44-0.32,2.9-0.45,4.38-0.36c1.64,0.09,3.34,0.46,5.1,1.1c2.24,0.8,4.27,2.02,6.15,3.48l0.03,0
		c1.29,0.99,2.46,2.08,3.58,3.25c0.89,0.91,1.47,1.56,1.67,1.82c0.93,1.13,1.45,2.42,1.61,3.78
		C143.16,44.88,142.33,47.2,140.49,48.76z"/>
	<path style="fill:#673101;" d="M140.49,48.76c-1.42,1.24-3.2,1.75-4.91,1.65c-1.85-0.11-3.63-0.94-4.92-2.44c0,0,0-0.03-0.03-0.03
		c-0.73-0.85-2.77-2.8-2.77-2.82c0.32-0.9,1.04-1.63,2.04-1.85c0.54-0.1,1.08,0.01,1.58,0.2c-0.59-0.41-1.02-1.03-1.16-1.76
		c-0.31-1.52,0.69-3,2.18-3.32c0.71-0.15,1.37,0.03,1.97,0.36c-0.51-0.41-0.89-0.94-1.04-1.62c-0.19-0.98,0.17-1.95,0.85-2.59
		c0.82-0.73,1.63-0.74,1.76-0.73l0.03,0c1.29,0.99,2.46,2.08,3.58,3.25c0.89,0.91,1.47,1.56,1.67,1.82
		c0.93,1.13,1.45,2.42,1.61,3.78C143.16,44.88,142.33,47.2,140.49,48.76z"/>
</g>
<g>
	<path d="M148.03,116.87c2.46,0,4.87,0.29,7.21,0.83c0.01-0.02,0.02-0.04,0.03-0.06c0.02-0.03,0.07-0.04,0.15-0.04
		c0.81,0,4.49,1.36,4.89,1.51c1.94,0.72,3.81,1.59,5.61,2.59c3.47,1.93,7.96,4.26,9.15,8.68c0.26,0.95,0.06,2.23-0.35,3.36
		c-0.19,0.52-0.41,1.01-0.66,1.43c-1.03,1.74-2.15,2.4-3.26,2.4c-1.58,0-3.15-1.32-4.46-2.7c-2.89-3.05-6.08-5.3-9.73-6.88
		c-0.38-0.16-0.75-0.31-1.13-0.46c-0.27-0.11-0.55-0.21-0.83-0.31c-0.69-0.24-1.4-0.47-2.11-0.66c-0.11-0.03-0.21-0.07-0.32-0.09
		c-1.78-0.48-3.61-0.81-5.48-0.97c-0.13-0.01-0.3-0.02-0.51-0.02c-1.03,0-2.93,0.11-5,0.11c-4.67,0-10.18-0.57-8.37-4.26
		c0.74-1.52,3.09-2.11,4.48-2.59C140.99,117.45,144.57,116.87,148.03,116.87 M148.03,113.64
		C148.03,113.64,148.03,113.64,148.03,113.64c-3.94,0-7.9,0.68-11.76,2.04l-0.52,0.17c-1.81,0.6-4.55,1.5-5.8,4.05
		c-1.26,2.57-0.49,4.49,0.08,5.4c1.93,3.1,6.74,3.51,11.19,3.51c1.25,0,2.45-0.04,3.43-0.07c0.63-0.02,1.17-0.04,1.57-0.04
		c0.1,0,0.18,0,0.25,0c1.62,0.14,3.28,0.43,4.91,0.87l0.29,0.09c0.64,0.18,1.27,0.38,1.9,0.6c0.24,0.08,0.48,0.18,0.72,0.27
		c0.38,0.14,0.72,0.29,1.06,0.43c3.22,1.39,6.06,3.4,8.63,6.12c1.51,1.59,3.86,3.71,6.81,3.71c1.68,0,4.09-0.69,6.04-3.98
		c0.35-0.6,0.67-1.29,0.92-1.99c0.39-1.1,0.97-3.25,0.42-5.28c-1.5-5.57-6.59-8.39-10.31-10.44l-0.39-0.22
		c-1.99-1.1-4.03-2.04-6.06-2.8c-4.62-1.71-5.52-1.71-6.01-1.71c-0.08,0-0.17,0-0.25,0.01C152.8,113.89,150.4,113.64,148.03,113.64
		L148.03,113.64z"/>
	<path style="fill:#FFFFFF;" d="M152.16,126.43c-1.75-0.46-3.55-0.78-5.41-0.94c-2.23-0.19-16.67,1.51-13.89-4.17
		c0.75-1.51,3.1-2.1,4.5-2.59c6.27-2.18,12.28-2.34,17.93-1.05C156.52,121.88,156.33,124.42,152.16,126.43z"/>
	<path style="fill:#0088C5;" d="M174.72,133.73c-0.19,0.54-0.4,1.02-0.67,1.43c-2.48,4.23-5.49,2.05-7.7-0.3
		c-2.99-3.15-6.27-5.44-10.07-7.03c-1.32-0.57-2.69-1.02-4.12-1.4c4.17-2.02,4.36-4.55,3.12-8.75v-0.03
		c-0.11-0.38,4.6,1.29,5.04,1.45c1.94,0.73,3.8,1.59,5.6,2.59c3.47,1.94,7.97,4.25,9.15,8.67
		C175.32,131.34,175.13,132.6,174.72,133.73z"/>
</g>
<g>
	<path style="fill-rule:evenodd;clip-rule:evenodd;fill:#009FF9;" d="M136.03,121.18c-0.03,0.16-0.38,3.12-0.38,5.6
		c0,0.65,0.03,1.27,0.08,1.78c0.27,2.29,0.62,4.55,0.97,6.84c0.67,4.47,1.4,9.07,1.35,13.6c-0.08,8.05-2.8,19.71-8.56,26.28
		c-6.81,7.78-18.69,12.39-32.5,12.66c-1.64,0.03-3.45,0-5.2-0.11l-3.64-0.22c-1.72-0.11-3.5-0.3-5.14-0.54
		c-13.71-1.97-24.88-8-30.7-16.56c-4.93-7.24-6.19-19.14-5.28-27.14c0.51-4.5,1.78-8.97,3.02-13.3c0.65-2.23,1.27-4.44,1.8-6.68
		c0.59-2.48,0.62-7.19,0.62-7.43c-0.11-3.53-0.97-6.87-1.78-9.67c-3.18-11.04-3.23-21.19-0.08-31.91
		c2.83-9.69,8.02-17.77,14.22-22.11c9.59-6.73,20.36-10.5,29.94-10.5c0.75,0,1.53,0.03,2.26,0.08l3.88,0.24
		c10.12,0.59,21.33,5.82,30.7,14.3c5.6,5.09,9.75,13.71,11.39,23.7c1.78,11.04,0.51,21.08-4.04,31.67
		C137.81,114.43,136.57,117.66,136.03,121.18z"/>
	<path style="fill-rule:evenodd;clip-rule:evenodd;fill:#FFFFFF;" d="M104.44,47.89c4.31,0.84,8.49,2.26,12.26,4.15
		c6.16,3.08,13.27,7.85,16.3,14.12c1.34,2.77,2.18,5.77,2.59,8.82c0.31,2.3-0.45,5.47,0.8,7.5c2.53,4.14,3.02,6.41,3.48,11.4
		c0.43,4.7-0.28,9.64-2.51,13.83c-5.82,10.91-18.52,14.88-29.89,14.54c-1.57-0.05-3.18-0.1-4.77-0.15
		c-7.39-0.23-14.65-0.81-22.01-1.5c-11.33-1.06-23.44-6.56-27.87-18.1c-1.7-4.43-1.8-9.43-0.79-14.04
		c1.07-4.89,1.84-7.09,4.86-10.88c1.49-1.87,1.13-5.1,1.72-7.35c0.78-2.98,1.98-5.85,3.65-8.44c3.78-5.85,9.72-9.82,16.21-12.11
		c2.63-0.93,5.35-1.6,8.1-2.06C91.94,46.72,99.08,46.85,104.44,47.89z"/>
	<path style="fill-rule:evenodd;clip-rule:evenodd;fill:#FDBDB8;" d="M78.68,91.85c-0.41,6.61-6.06,11.65-12.62,11.24
		c-6.56-0.41-11.55-6.1-11.14-12.71c0.41-6.61,6.06-11.64,12.62-11.23S79.09,85.24,78.68,91.85"/>
	<path style="fill-rule:evenodd;clip-rule:evenodd;fill:#FDBDB8;" d="M136.76,95.44c-0.41,6.61-6.06,11.65-12.63,11.24
		c-6.56-0.41-11.55-6.1-11.14-12.71c0.41-6.61,6.06-11.64,12.62-11.23C132.18,83.14,137.17,88.83,136.76,95.44"/>
	<path d="M141.95,113.03c4.71-11.01,6.09-21.95,4.23-33.47c-1.72-10.66-6.25-19.98-12.41-25.55c-9.91-8.97-21.81-14.49-32.66-15.13
		l-3.85-0.24c-10.8-0.7-23.35,3.31-34.28,11.01c-6.79,4.77-12.41,13.44-15.46,23.83c-3.28,11.2-3.26,22.24,0.08,33.74
		c0.75,2.58,1.53,5.68,1.64,8.8c0,1.24-0.11,4.87-0.54,6.62c-0.51,2.18-1.13,4.36-1.75,6.54c-1.27,4.47-2.59,9.07-3.12,13.81
		c-1.02,8.86,0.38,21.38,5.79,29.35c6.33,9.29,18.34,15.83,32.93,17.93c1.72,0.24,3.58,0.43,5.41,0.54l3.64,0.24
		c1.43,0.08,2.88,0.13,4.25,0.13c0.4,0,0.81-0.03,1.18-0.03c14.73-0.3,27.47-5.3,34.87-13.76c6.35-7.22,9.29-19.47,9.37-28.38
		c0.05-4.79-0.67-9.53-1.4-14.11c-0.35-2.23-0.67-4.47-0.94-6.73c-0.19-1.78,0.16-5.39,0.3-6.57
		C139.72,118.49,140.88,115.53,141.95,113.03z M91.79,187.83l-3.64-0.22c-1.72-0.11-3.5-0.3-5.14-0.54
		c-13.71-1.97-24.88-8-30.7-16.56c-4.93-7.24-6.19-19.14-5.28-27.14c0.51-4.5,1.78-8.97,3.02-13.3c0.65-2.23,1.27-4.44,1.8-6.68
		c0.59-2.48,0.62-7.19,0.62-7.43c-0.11-3.53-0.97-6.87-1.78-9.67c-3.18-11.04-3.23-21.19-0.08-31.91
		c2.83-9.69,8.02-17.77,14.22-22.11c9.59-6.73,20.36-10.5,29.94-10.5c0.75,0,1.53,0.03,2.26,0.08l3.88,0.24
		c10.12,0.59,21.33,5.82,30.7,14.3c5.6,5.09,9.75,13.71,11.39,23.7c1.78,11.04,0.51,21.08-4.04,31.67c-1.16,2.67-2.4,5.9-2.94,9.42
		c-0.03,0.16-0.38,3.12-0.38,5.6c0,0.65,0.03,1.27,0.08,1.78c0.27,2.29,0.62,4.55,0.97,6.84c0.67,4.47,1.4,9.07,1.35,13.6
		c-0.08,8.05-2.8,19.71-8.56,26.28c-6.81,7.78-18.69,12.39-32.5,12.66C95.34,187.96,93.54,187.94,91.79,187.83z"/>
</g>
<g>
	<path style="fill-rule:evenodd;clip-rule:evenodd;" d="M98.12,89.19c-0.05,0.86-1.01,1.5-2.14,1.43s-2.01-0.82-1.96-1.69
		c0.05-0.86,1.01-1.5,2.15-1.43C97.31,87.58,98.18,88.34,98.12,89.19"/>
	<path style="fill-rule:evenodd;clip-rule:evenodd;" d="M107.97,87.93L107.97,87.93c-1.54-0.09-2.71-1.33-2.62-2.76l0.02-0.36
		c0.09-1.43,1.41-2.51,2.94-2.42c1.54,0.09,2.71,1.33,2.62,2.76l-0.02,0.36C110.83,86.95,109.51,88.03,107.97,87.93"/>
	<path style="fill-rule:evenodd;clip-rule:evenodd;" d="M84.4,86.48L84.4,86.48c-1.54-0.09-2.71-1.33-2.62-2.76l0.02-0.36
		c0.09-1.43,1.41-2.51,2.94-2.42s2.71,1.33,2.62,2.76l-0.02,0.36C87.26,85.49,85.94,86.57,84.4,86.48"/>
	<path style="fill:#231815;" d="M103.37,99.45c-2.87,0-5.74-0.97-7.78-2.5c-3.72,2.12-9.53,2.41-13.37-0.61
		c-1.12-0.88-2.46-2.24-2.52-3.72c-0.03-0.72,0.24-1.38,0.77-1.87c0.65-0.61,1.68-0.57,2.28,0.08c0.46,0.49,0.55,1.2,0.29,1.77
		c0.2,0.29,0.62,0.75,1.19,1.19c2.93,2.31,7.96,1.82,10.51-0.14c0.64-0.49,1.55-0.44,2.13,0.13c2.28,2.27,7.22,3.37,10.41,1.44
		c0.61-0.37,1.09-0.78,1.32-1.04c-0.19-0.6-0.02-1.29,0.5-1.72c0.68-0.58,1.7-0.49,2.28,0.19c0.46,0.55,0.65,1.24,0.54,1.95
		c-0.24,1.46-1.74,2.65-2.96,3.38C107.25,99,105.31,99.45,103.37,99.45z M108.89,94.73h0.03H108.89z"/>
</g>
</svg>
