<?xml version="1.0" encoding="utf-8"?>
<!-- Generator: Adobe Illustrator 24.1.1, SVG Export Plug-In . SVG Version: 6.00 Build 0)  -->
<svg version="1.1" id="Layer_1" xmlns="http://www.w3.org/2000/svg" xmlns:xlink="http://www.w3.org/1999/xlink" x="0px" y="0px"
	 viewBox="0 0 226.71 305" style="enable-background:new 0 0 226.71 305;" xml:space="preserve">
<g>
	<path style="fill:#FFFFFF;" d="M124.29,36.42c-2.59,0.92-4.82,2.42-6.33,4.62c-2.58,3.77-4.06,10.65-2.05,14.89
		c0.7,1.48,2.46,0.44,4.51,0.09c2.43-0.41,1.73-2.64,3.5-4.76c2.54-3.04,5.2,0.07,9.62,3.23c3.56,2.56,8.68,1.92,11.44-1.43
		c2.76-3.35,2.14-8.14-1.39-10.72C136.76,37.35,132.24,33.58,124.29,36.42z"/>
	<path d="M112.35,57.61c0.89,1.91,2.7,3.02,4.83,3.02c1.02,0,1.94-0.23,2.76-0.46c0.36-0.1,0.76-0.2,1.15-0.26
		c3.71-0.62,4.73-3.48,5.23-4.83c0.13-0.3,0.23-0.56,0.33-0.76c0.66,0.39,1.58,1.12,2.3,1.68c0.33,0.26,0.69,0.53,1.05,0.79
		c0.39,0.3,0.82,0.59,1.25,0.92c2.1,1.51,4.6,2.3,7.23,2.3c3.75,0,7.23-1.61,9.53-4.44c2.04-2.47,2.93-5.52,2.53-8.64
		c-0.39-3.09-2.04-5.85-4.63-7.76l-0.49-0.36l-0.49-0.39c-5.06-3.71-9.43-6.9-15.45-6.9c-2.1,0-4.24,0.39-6.51,1.22
		c-3.58,1.28-6.38,3.32-8.25,6.08C111.43,43.61,109.66,51.95,112.35,57.61z M117.97,41.04c1.51-2.2,3.75-3.68,6.31-4.6
		c1.91-0.69,3.58-0.99,5.19-0.99c2.86,0,5.36,1.02,7.95,2.56c1.94,1.18,3.91,2.7,6.15,4.34c3.55,2.56,4.14,7.36,1.41,10.72
		c-1.64,1.97-4.08,2.99-6.51,2.99c-1.74,0-3.48-0.49-4.93-1.58c-1.51-1.08-2.79-2.14-3.98-2.99h-0.03
		c-1.25-0.89-2.33-1.48-3.35-1.48c-0.79,0-1.54,0.36-2.27,1.25c-1.77,2.1-1.05,4.34-3.48,4.77c-1.25,0.2-2.4,0.66-3.25,0.66
		c-0.56,0-0.99-0.16-1.28-0.76C113.9,51.69,115.37,44.82,117.97,41.04z"/>
	<path style="fill:#683100;" d="M129.57,51.49c1.18,0.85,2.47,1.91,3.98,2.99c1.45,1.08,3.19,1.58,4.93,1.58
		c2.43,0,4.86-1.02,6.51-2.99c2.73-3.35,2.14-8.15-1.41-10.72c-2.24-1.64-4.21-3.16-6.15-4.34c-0.3,0.07-0.89,0.07-1.84,0.69
		c-0.03,0-0.03,0-0.03,0.03c-1.22,0.82-2.01,2.27-1.41,3.58c0.3,0.66,0.89,1.15,1.54,1.48c-0.76-0.23-1.58-0.26-2.33,0.07
		c-1.64,0.69-2.43,2.47-1.71,4.04c0.33,0.76,0.99,1.31,1.77,1.61c-0.62-0.1-1.25-0.1-1.87,0.16
		C130.59,50.08,129.34,50.84,129.57,51.49z"/>
</g>
<g>
	<path style="fill:#FFFFFF;" d="M77.89,40.54c3.18,0.4,6.13,1.58,8.46,3.82c3.99,3.84,6.99,8.53,5.95,14.22
		c-0.36,1.98-3.61,3.73-6.02,3.88c-2.86,0.18-2.68-1.91-5.28-3.98c-3.74-2.97-5.83,1.54-9.89,6.59c-3.27,4.09-9.22,4.74-13.29,1.45
		c-4.07-3.29-4.76-9.25-1.53-13.36C62.52,45.23,68.12,39.31,77.89,40.54z"/>
	<path d="M71.48,64.58c1.02-1.25,2.5-3.16,3.03-3.82c0.07-0.1,0.13-0.2,0.16-0.3C73.69,61.64,72.67,63.06,71.48,64.58z"/>
	<path d="M89.1,41.52c-2.83-2.73-6.42-4.38-10.7-4.91c-1.02-0.13-2.04-0.2-3-0.2c-10.14,0-16.3,6.78-22.23,14.29
		c-4.55,5.8-3.59,14.26,2.14,18.9c2.37,1.91,5.37,2.96,8.4,2.96c4.12,0,7.9-1.84,10.47-5.04c0.76-0.92,1.42-1.84,2.07-2.7
		c0.79-1.05,1.81-2.4,2.5-3.1c0.43,0.43,0.76,0.82,1.12,1.32c0.96,1.25,2.57,3.36,6.06,3.36h0.56c3.43-0.23,8.86-2.63,9.68-7.15
		C97.3,53.11,94.93,47.12,89.1,41.52z M92.3,58.58c-0.36,1.98-3.62,3.72-6.03,3.89h-0.33c-2.5,0-2.44-2.01-4.94-3.99
		c-0.82-0.66-1.58-0.96-2.27-0.96c-1.42,0-2.7,1.19-4.05,2.93c-0.03,0.1-0.1,0.2-0.16,0.3c-0.53,0.66-2.01,2.57-3.03,3.82
		c-0.13,0.16-0.26,0.36-0.4,0.49c-0.23,0.3-0.49,0.59-0.76,0.82c-3.36,3.33-8.76,3.69-12.52,0.63c-4.08-3.29-4.78-9.25-1.55-13.34
		c0.07-0.1,0.16-0.2,0.26-0.36c1.91-2.37,3.72-4.58,5.66-6.46c3.75-3.62,7.81-5.99,13.21-5.99c0.79,0,1.61,0.07,2.5,0.16
		c3.16,0.4,6.13,1.58,8.43,3.82C90.32,48.21,93.32,52.88,92.3,58.58z"/>
	<path style="fill:#683100;" d="M74.68,60.46c-0.03,0.1-0.1,0.2-0.16,0.3c-0.53,0.66-2.01,2.57-3.03,3.82
		c-0.13,0.16-0.26,0.36-0.4,0.49c-0.23,0.3-0.49,0.56-0.76,0.82c-3.36,3.33-8.76,3.69-12.52,0.63c-4.08-3.29-4.78-9.25-1.55-13.34
		c0.07-0.1,0.16-0.2,0.26-0.36c1.91-2.37,3.72-4.58,5.66-6.46c0.26-0.03,0.89-0.16,1.05-0.1c2.07,0.33,4.02,2.14,3.66,4.22
		c-0.13,0.92-0.66,1.68-1.32,2.24c0.76-0.49,1.68-0.72,2.63-0.56c2.07,0.36,3.46,2.34,3.13,4.41c-0.2,1.02-0.76,1.88-1.55,2.44
		c0.66-0.26,1.38-0.46,2.14-0.3C73.23,58.91,74.94,59.54,74.68,60.46z"/>
</g>
<g>
	<path d="M120.49,203.61c2.62,0,4.76,2.13,4.76,4.76v35.48v22.13c0,0,2.19-2.7,7.97-2.7c1.27,0,2.71,0.13,4.34,0.45
		c0.06,0.01,0.33,0.08,0.33,0.08c6.04,1.31,11.29,5.37,14.09,10.87c1.52,2.98,2.18,8.45-0.21,11.18c-2.63,3.01-6.51,3.38-10.27,3.38
		c-1.23,0-2.46-0.04-3.62-0.04h-15.86h-3.43c-2.76,0-7.12-2.24-7.12-4.99v-40.36h0v-35.48
		C111.48,205.74,117.87,203.61,120.49,203.61 M120.49,199.66c-2.75,0-12.97,2.18-12.97,8.71v35.48l0,40.36
		c0,5.46,6.56,8.94,11.08,8.94h3.43h15.86c0.55,0,1.12,0.01,1.69,0.02c0.64,0.01,1.28,0.02,1.93,0.02c4.51,0,9.6-0.56,13.25-4.74
		c3.78-4.33,2.71-11.71,0.75-15.57c-3.33-6.55-9.6-11.39-16.78-12.95l-0.33-0.08c-1.86-0.36-3.57-0.54-5.18-0.54
		c-1.51,0-2.84,0.15-4.02,0.4v-15.88v-35.48C129.2,203.57,125.3,199.66,120.49,199.66L120.49,199.66z"/>
	<path style="fill:#FFFFFF;" d="M125.26,208.37v35.47h-13.8v-35.47c0-2.63,6.42-4.74,9.02-4.74
		C123.12,203.63,125.26,205.73,125.26,208.37z"/>
	<path style="fill-rule:evenodd;clip-rule:evenodd;fill:#0088C5;" d="M151.78,285.87c-3.49,3.98-9.19,3.33-13.9,3.33h-19.27
		c-2.77,0-7.15-2.24-7.15-4.97v-40.38h13.8v22.13c0,0,3.26-4.02,12.28-2.24c0.07,0,0.33,0.07,0.33,0.07
		c6.06,1.32,11.3,5.37,14.1,10.87C153.49,277.66,154.15,283.13,151.78,285.87z"/>
</g>
<g>
	<path style="fill:#FFFFFF;" d="M100.2,213.7v35.47H86.43V213.7c0-2.63,6.39-4.78,9.02-4.78C98.06,208.93,100.2,211.07,100.2,213.7z
		"/>
	<path style="fill-rule:evenodd;clip-rule:evenodd;fill:#009FF9;" d="M126.75,291.17c-3.49,4.02-9.19,3.36-13.9,3.36h-19.3
		c-2.73,0-7.11-2.24-7.11-5.01v-40.35h13.77v22.13c0,0,3.26-4.02,12.32-2.27c0.07,0.03,0.33,0.1,0.33,0.1
		c6.03,1.28,11.3,5.37,14.1,10.87C128.46,282.97,129.12,288.43,126.75,291.17z"/>
	<path d="M95.45,208.94c2.62,0,4.76,2.13,4.76,4.75v35.48v22.13c0,0,2.19-2.7,7.97-2.7c1.27,0,2.71,0.13,4.34,0.45
		c0.06,0.01,0.33,0.08,0.33,0.08c6.04,1.31,11.29,5.37,14.09,10.87c1.52,2.98,2.18,8.45-0.21,11.18c-2.63,3.01-6.5,3.38-10.27,3.38
		c-1.24,0-2.46-0.04-3.62-0.04H96.99h-3.43c-2.76,0-7.12-2.24-7.12-4.99v-40.36h0V213.7C86.43,211.07,92.83,208.94,95.45,208.94
		 M95.45,204.99c-2.75,0-12.97,2.18-12.97,8.71v35.48l0,40.36c0,5.46,6.56,8.94,11.08,8.94h3.43h15.86c0.55,0,1.12,0.01,1.69,0.02
		c0.64,0.01,1.28,0.02,1.93,0.02c4.5,0,9.6-0.56,13.24-4.74c3.78-4.33,2.71-11.71,0.75-15.57c-3.33-6.55-9.6-11.39-16.78-12.95
		l-0.28-0.06c-1.91-0.37-3.62-0.55-5.23-0.55c-1.51,0-2.84,0.15-4.02,0.4v-15.88V213.7C104.16,208.89,100.25,204.99,95.45,204.99
		L95.45,204.99z"/>
</g>
<g>
	<path style="fill:#FFFFFF;" d="M157.34,177.51c-0.7-7.25,0.35-14.23,1.36-21.71c0.45-3.31,2.28-15.3-4.73-13.46
		c-2.54,0.67-4.05,4.28-5.16,6.37c-2.41,4.55-4.11,9.4-5.1,14.36c-1.11,5.56-1.33,11.19-0.87,16.77
		C146.55,178.57,151.66,177.42,157.34,177.51z"/>
	<path style="fill:#0088C5;" d="M166.42,201.26c-0.05-0.08-0.11-0.15-0.16-0.23c-1.41-1.97-2.6-3.89-3.64-5.82
		c-1.48-2.76-2.62-5.56-3.51-8.61c-0.44-1.5-0.82-3.07-1.15-4.72c-0.29-1.48-0.48-2.93-0.62-4.38c-5.67-0.09-10.79,1.06-14.51,2.32
		c0.22,2.7,0.59,5.38,1.13,8.03c1.52,7.55,3.79,16.11,8.4,22.5c2.24,3.11,6.14,5.06,10.24,4.5c0.85-0.12,1.67-0.31,2.38-0.57
		c2.58-0.92,4.81-2.88,5.1-5.54c0.06-0.53,0.01-1.03-0.08-1.51C169.56,204.98,167.74,203.13,166.42,201.26z"/>
	<path d="M155.32,142.15c5.4,0,3.79,10.58,3.37,13.65c-1.01,7.48-2.06,14.46-1.36,21.71c0.14,1.45,0.32,2.9,0.62,4.38
		c0.33,1.65,0.71,3.22,1.15,4.72c0.89,3.05,2.03,5.84,3.51,8.61c1.04,1.93,2.22,3.85,3.64,5.82c0.05,0.08,0.11,0.15,0.16,0.23
		c1.32,1.88,3.14,3.73,3.57,5.99c0.09,0.48,0.14,0.98,0.08,1.51c-0.29,2.66-2.53,4.62-5.1,5.54c-0.71,0.25-1.52,0.45-2.38,0.57
		c-0.47,0.06-0.94,0.1-1.41,0.1c-3.57,0-6.84-1.84-8.83-4.59c-4.61-6.39-6.88-14.95-8.4-22.5c-0.53-2.65-0.9-5.33-1.13-8.03
		c-0.46-5.58-0.24-11.22,0.87-16.77c0.99-4.96,2.69-9.81,5.1-14.36c1.11-2.09,2.62-5.7,5.16-6.37
		C154.46,142.21,154.91,142.15,155.32,142.15 M155.32,138.2c-0.76,0-1.55,0.11-2.37,0.32c-3.93,1.04-5.92,4.95-7.23,7.54l-0.41,0.8
		c-2.56,4.83-4.4,10.02-5.49,15.43c-1.13,5.67-1.45,11.68-0.93,17.87c0.24,2.88,0.64,5.74,1.19,8.48c1.49,7.4,3.86,16.82,9.07,24.04
		c2.82,3.9,7.32,6.23,12.03,6.23c0.65,0,1.3-0.04,1.94-0.13c1.1-0.15,2.2-0.41,3.17-0.76c4.33-1.54,7.28-4.93,7.71-8.84
		c0.09-0.85,0.05-1.73-0.13-2.67c-0.5-2.66-2.08-4.71-3.34-6.35c-0.3-0.4-0.61-0.79-0.88-1.18l-0.18-0.25
		c-1.28-1.78-2.38-3.54-3.37-5.39c-1.34-2.51-2.39-5.07-3.2-7.85c-0.4-1.38-0.75-2.82-1.07-4.38c-0.23-1.16-0.41-2.42-0.56-3.98
		c-0.62-6.4,0.25-12.8,1.17-19.57l0.17-1.23l0.04-0.29c0.77-5.64,1.15-11.89-1.94-15.43C159.35,139.05,157.44,138.2,155.32,138.2
		L155.32,138.2z"/>
</g>
<g>
	<path d="M111.78,54.01c12.36,0,25.18,5.03,35.4,11.95c8.73,5.9,14.66,16.55,17.75,26.47c0.19,0.6,0.32,1.19,0.49,1.79
		c0.35,1.02,0.68,2.03,0.97,3.03c3.52,12.06,1.42,22.55-1.93,34.51c-0.73,2.59-5.94,15.28-6.03,15.89
		c-1.5,6.97,2.11,15.48,3.11,22.35c1.85,12.77,2.22,25.96-3.12,38.02c-7.27,16.44-24.19,22.28-41,23.4
		c-1.66,0.11-3.31,0.17-4.97,0.17c-0.36,0-0.73,0-1.09-0.01c-0.08,0-0.16-0.01-0.24-0.01l-4.11-0.06c-2.02-0.03-4.12-0.14-6.13-0.33
		c-13.82-1.33-29.05-6.7-37.68-18.19c-6.25-8.31-8.62-22.08-7.93-32.33c0.54-8,2.99-15.73,4.5-23.57c0.59-3.07,1.74-6.07,1.5-9.19
		c-0.05-0.66-0.15-1.3-0.24-1.95c-0.5-1.41-4.26-12-5.21-16.05c-2.8-9.22-3.55-18.88-2.13-28.66c1.49-10.28,5.67-21.73,13.36-28.94
		c9.88-9.25,23.18-16.76,36.62-17.79c0,0,0.1-0.01,0.24-0.02l4.32-0.34C109.39,54.05,110.58,54.01,111.78,54.01 M111.78,50.05
		c-1.31,0-2.62,0.05-3.89,0.16l-4.3,0.34l-0.33,0.03c-13,1-27.22,7.87-38.93,18.84c-7.39,6.92-12.69,18.31-14.57,31.25
		c-1.48,10.25-0.73,20.43,2.23,30.25c0.81,3.38,3.25,10.52,5.17,15.97c0.07,0.46,0.12,0.88,0.16,1.3c0.12,1.58-0.32,3.38-0.79,5.29
		c-0.23,0.95-0.47,1.9-0.65,2.86c-0.48,2.51-1.08,5.09-1.67,7.59c-1.24,5.3-2.51,10.79-2.89,16.47c-0.71,10.68,1.7,25.64,8.72,34.97
		c8.17,10.86,22.91,18.06,40.47,19.74c2.06,0.2,4.29,0.32,6.46,0.35l4.11,0.06l0.22,0.01l1.16,0.01c1.75,0,3.51-0.06,5.24-0.17
		c22.22-1.49,37.56-10.39,44.35-25.75c6.17-13.95,5.07-28.8,3.42-40.18c-0.35-2.38-0.97-4.89-1.57-7.33
		c-1.17-4.75-2.39-9.66-1.61-13.5c0.23-0.65,1.14-2.98,1.96-5.05c2.09-5.29,3.6-9.16,4.04-10.74c3.26-11.63,5.86-23.19,1.92-36.68
		c-0.3-1.02-0.63-2.06-0.99-3.09l-0.15-0.56c-0.11-0.41-0.22-0.82-0.35-1.24c-3.89-12.49-10.93-22.9-19.31-28.57
		C137.35,54.54,123.99,50.05,111.78,50.05L111.78,50.05z"/>
	<path style="fill:#009FF9;" d="M164.46,131.76c3.35-11.96,5.45-22.45,1.93-34.51c-0.29-1.01-0.62-2.02-0.97-3.03
		c-0.17-0.6-0.3-1.19-0.49-1.79c-3.09-9.92-9.02-20.57-17.75-26.47c-11.21-7.58-25.53-12.9-38.97-11.8l-4.32,0.34
		c-0.15,0.01-0.24,0.02-0.24,0.02c-13.44,1.03-26.74,8.54-36.62,17.79c-7.69,7.2-11.87,18.66-13.36,28.94
		c-1.41,9.77-0.66,19.44,2.13,28.66c0.95,4.05,4.71,14.64,5.21,16.05c0.1,0.65,0.19,1.3,0.24,1.95c0.24,3.12-0.91,6.12-1.5,9.19
		c-1.51,7.84-3.96,15.57-4.5,23.57c-0.69,10.25,1.69,24.02,7.93,32.33c8.64,11.49,23.86,16.86,37.68,18.19
		c2.01,0.19,4.11,0.3,6.13,0.33l4.11,0.06c0.08,0,0.16,0.01,0.24,0.01c2.02,0.03,4.04-0.02,6.06-0.16c16.81-1.13,33.73-6.97,41-23.4
		c5.33-12.06,4.97-25.25,3.12-38.02c-1-6.87-4.61-15.38-3.11-22.35C158.51,147.04,163.73,134.35,164.46,131.76z"/>
</g>
<path style="fill:#009FF8;" d="M108.21,54.15c0,0-0.1,0.01-0.24,0.02L108.21,54.15z"/>
<g>
	<path style="fill-rule:evenodd;clip-rule:evenodd;fill:#FFFFFF;" d="M172.69,134.43c-6.85,8.5-20.35,14.26-36.13,15.45
		c-39.09,2.9-59.35-8.73-62.02-35.5c-0.4-3.75-1.68-23.32,9.78-36.85c6.88-8.14,17.13-12.71,30.5-13.6
		c45.88-3.1,49.47,30.83,49.6,32.28c0.07,0.82,0.66,1.52,1.48,1.75c0.4,0.1,10.31,2.93,12.09,15.61
		C179.11,121.65,177.33,128.67,172.69,134.43z"/>
	<path d="M181.91,112.99c-1.78-12.58-10.37-17.13-13.7-18.44c-1.02-6.55-7.84-34.78-47.56-34.78c-1.94,0-3.98,0.07-6.09,0.2
		c-14.46,0.99-25.66,6.03-33.23,14.99c-12.19,14.39-11.3,34.12-10.74,39.82c2.63,26.51,20.58,39.49,54.7,39.49
		c3.66,0,7.51-0.13,11.56-0.43c17.09-1.28,31.26-7.44,38.9-16.93C181.12,130.25,183.2,122.21,181.91,112.99z M74.54,114.37
		c-0.4-3.75-1.68-23.32,9.78-36.85c6.88-8.14,17.13-12.71,30.5-13.6c45.88-3.1,49.47,30.83,49.6,32.28
		c0.07,0.82,0.66,1.52,1.48,1.75c0.4,0.1,10.31,2.93,12.09,15.61c1.12,8.1-0.66,15.12-5.3,20.88c-6.85,8.5-20.35,14.26-36.13,15.45
		C97.47,152.78,77.21,141.15,74.54,114.37z"/>
	<path style="fill-rule:evenodd;clip-rule:evenodd;fill:#FFBEB8;" d="M132.2,118.01c0.19,8.07-5.86,14.76-13.52,14.95
		c-7.66,0.18-14.03-6.21-14.22-14.28c-0.19-8.06,5.86-14.75,13.52-14.94C125.64,103.56,132.01,109.95,132.2,118.01"/>
	<path style="fill-rule:evenodd;clip-rule:evenodd;fill:#FFBEB8;" d="M177.24,111.63c-0.69-2.74-3.94-11.92-8.41-8.63
		c-6.03,4.45-3.24,15.76-0.25,21.39c1.18,2.21,3.3,4.8,6.27,4.24c1.68-0.31,2.3-3.49,2.52-4.58
		C178.21,119.97,178.26,115.68,177.24,111.63z"/>
</g>
<g>
	<path style="fill-rule:evenodd;clip-rule:evenodd;" d="M156,110.66c0.03,1.05-1.06,1.93-2.45,1.96c-1.39,0.03-2.53-0.79-2.55-1.84
		c-0.03-1.04,1.07-1.93,2.46-1.96C154.84,108.78,155.97,109.62,156,110.66"/>
	<path style="fill-rule:evenodd;clip-rule:evenodd;" d="M159.49,108.3L159.49,108.3c-1.44,0.03-2.64-1.35-2.68-3.09l-0.01-0.44
		c-0.04-1.74,1.09-3.19,2.53-3.22c1.44-0.03,2.64,1.35,2.68,3.09l0.01,0.44C162.06,106.83,160.93,108.27,159.49,108.3"/>
	<path style="fill-rule:evenodd;clip-rule:evenodd;" d="M137.17,108.84L137.17,108.84c-1.69,0.04-3.1-1.34-3.14-3.08l-0.01-0.44
		c-0.04-1.74,1.3-3.19,2.99-3.23c1.69-0.04,3.1,1.34,3.14,3.08l0.01,0.44C140.21,107.36,138.86,108.8,137.17,108.84"/>
	<path style="fill:#231815;" d="M164.72,114.67c-0.47-0.78-1.49-1.01-2.26-0.54c-0.78,0.48-1.02,1.49-0.54,2.26
		c0.06,0.1,0.19,0.31-0.37,0.98c-1.15,1.38-2.71,1.55-3.53,1.51c-1.56-0.05-3.05-0.8-3.89-1.95c-0.06-0.08-0.14-0.12-0.2-0.19
		c-0.07-0.07-0.12-0.15-0.2-0.2c-0.01-0.01-0.03-0.01-0.04-0.02c-0.11-0.07-0.24-0.11-0.36-0.15c-0.08-0.03-0.15-0.07-0.23-0.08
		c-0.12-0.02-0.25-0.01-0.37,0c-0.09,0-0.17-0.01-0.26,0.01c-0.1,0.02-0.2,0.08-0.3,0.12c-0.1,0.04-0.2,0.07-0.29,0.13
		c-0.01,0.01-0.03,0.01-0.05,0.02c-0.08,0.06-0.13,0.14-0.2,0.22c-0.06,0.07-0.14,0.11-0.19,0.19c-2.35,3.44-8.83,4.26-12.85,1.61
		c-0.93-0.61-1.47-1.14-1.69-1.44c0.3-0.64,0.17-1.42-0.38-1.92c-0.67-0.61-1.71-0.56-2.33,0.11c-0.53,0.58-0.77,1.32-0.67,2.09
		c0.16,1.28,1.26,2.6,3.26,3.91c2.19,1.44,4.82,2.12,7.41,2.12c3.28,0,6.44-1.15,8.62-3.19c1.4,1.15,3.2,1.84,5.1,1.91
		c0.09,0,0.19,0,0.28,0c2.32,0,4.45-0.97,5.89-2.7C165.88,117.32,165.26,115.54,164.72,114.67z"/>
</g>
<g>
	<path style="fill:#FFFFFF;" d="M74.38,187.89c-0.36-7.28,1.01-14.2,2.37-21.62c0.6-3.28,3-15.18-4.1-13.67
		c-2.57,0.55-4.25,4.08-5.45,6.12c-2.62,4.43-4.55,9.2-5.77,14.1c-1.37,5.5-1.86,11.12-1.66,16.71
		C63.55,188.44,68.71,187.53,74.38,187.89z"/>
	<path style="fill:#0088C5;" d="M82.33,212.04c-0.05-0.08-0.1-0.15-0.15-0.23c-1.32-2.04-2.41-4.01-3.36-5.99
		c-1.35-2.83-2.36-5.68-3.11-8.76c-0.37-1.52-0.67-3.1-0.93-4.77c-0.22-1.49-0.34-2.95-0.41-4.4c-5.66-0.36-10.82,0.55-14.6,1.64
		c0.1,2.7,0.34,5.4,0.75,8.07c1.16,7.62,3.03,16.27,7.34,22.87c2.1,3.21,5.89,5.34,10.01,4.97c0.86-0.08,1.68-0.23,2.4-0.45
		c2.62-0.8,4.94-2.66,5.36-5.3c0.08-0.52,0.06-1.02-0.01-1.51C85.3,215.91,83.56,213.98,82.33,212.04z"/>
	<path d="M73.82,152.47c5.65,0,3.5,10.71,2.93,13.8c-1.36,7.43-2.73,14.35-2.37,21.62c0.07,1.45,0.19,2.91,0.41,4.4
		c0.25,1.66,0.56,3.25,0.93,4.77c0.75,3.09,1.76,5.93,3.11,8.76c0.94,1.98,2.04,3.95,3.36,5.99c0.05,0.08,0.1,0.16,0.15,0.23
		c1.23,1.94,2.97,3.87,3.29,6.15c0.07,0.49,0.09,0.99,0.01,1.51c-0.42,2.64-2.74,4.5-5.36,5.3c-0.72,0.22-1.54,0.38-2.4,0.45
		c-0.31,0.03-0.62,0.04-0.92,0.04c-3.76,0-7.15-2.04-9.09-5.01c-4.31-6.6-6.17-15.26-7.34-22.87c-0.41-2.67-0.65-5.37-0.75-8.07
		c-0.2-5.59,0.29-11.22,1.66-16.71c1.22-4.9,3.15-9.67,5.77-14.1c1.2-2.04,2.88-5.57,5.45-6.12
		C73.08,152.51,73.46,152.47,73.82,152.47 M73.82,148.52c-0.64,0-1.31,0.07-1.99,0.22c-3.98,0.85-6.15,4.67-7.58,7.19l-0.45,0.78
		c-2.78,4.71-4.87,9.8-6.2,15.16c-1.4,5.61-1.99,11.6-1.77,17.81c0.1,2.89,0.37,5.76,0.79,8.53c1.14,7.46,3.07,16.98,7.93,24.44
		c2.74,4.2,7.49,6.81,12.4,6.81c0.42,0,0.85-0.02,1.28-0.06c1.11-0.1,2.22-0.31,3.2-0.61c4.4-1.34,7.5-4.58,8.11-8.47
		c0.13-0.85,0.13-1.72,0-2.68c-0.38-2.69-1.86-4.8-3.04-6.5c-0.29-0.41-0.57-0.81-0.83-1.22l-0.17-0.26
		c-1.19-1.84-2.21-3.65-3.11-5.54c-1.23-2.57-2.15-5.18-2.83-7.99c-0.34-1.4-0.62-2.85-0.86-4.43c-0.18-1.17-0.29-2.44-0.37-4
		c-0.32-6.42,0.85-12.77,2.09-19.5l0.22-1.22l0.05-0.29c1.05-5.68,1.72-11.98-1.32-15.63C78,149.42,76.03,148.52,73.82,148.52
		L73.82,148.52z"/>
</g>
</svg>
