<?xml version="1.0" encoding="utf-8"?>
<!-- Generator: Adobe Illustrator 24.1.1, SVG Export Plug-In . SVG Version: 6.00 Build 0)  -->
<svg version="1.1" id="Layer_1" xmlns="http://www.w3.org/2000/svg" xmlns:xlink="http://www.w3.org/1999/xlink" x="0px" y="0px"
	 viewBox="0 0 155 240" style="enable-background:new 0 0 155 240;" xml:space="preserve">
<g>
	<path style="fill:#FFFFFF;" d="M70.14,156.11v33.46c-0.28,0.08-2.68,0.62-5.79,0.62c-3.3,0-5.79-0.62-5.79-0.62v-33.46
		c0-2.2,1.81-4.01,4.01-4.01C64.77,152.1,70.14,153.91,70.14,156.11z"/>
	<path style="fill-rule:evenodd;clip-rule:evenodd;fill:#009FF9;" d="M70.17,189.57v30.32c0,2-2.77,3.67-5.03,4.09v0.08H54.52
		c-3.95,0-8.75,0.56-11.69-2.8c-2-2.32-1.44-6.89-0.17-9.4c2.34-4.63,6.78-8.05,11.86-9.15c0,0,0.23-0.06,0.28-0.06
		c1.44-0.28,2.65-0.37,3.76-0.34v-12.76c0,0,2.48,0.62,5.79,0.62c3.11,0,5.51-0.54,5.79-0.62
		C70.17,189.57,70.17,189.57,70.17,189.57z"/>
	<path d="M62.57,152.12c2.21,0,7.58,1.79,7.58,4v29.62h0v34.15c0,2.01-2.76,3.69-5.01,4.1v0.1h-0.99h-2.89h-2.71h-4.05
		c-0.98,0-2.01,0.03-3.04,0.03c-3.16,0-6.42-0.31-8.63-2.85c-2.01-2.3-1.45-6.9-0.17-9.41c2.35-4.63,6.77-8.04,11.85-9.14
		c0,0,0.23-0.05,0.28-0.06c1.34-0.26,2.48-0.34,3.52-0.34c0.08,0,0.17,0,0.25,0v-12.75v-3.84v-29.62
		C58.57,153.9,60.36,152.12,62.57,152.12 M62.57,148.73c-4.07,0-7.39,3.31-7.39,7.39v29.62v3.84v9.59
		c-0.34,0.05-0.68,0.11-1.03,0.18l-0.39,0.09c-6.01,1.3-11.3,5.38-14.11,10.91c-1.66,3.26-2.56,9.51,0.64,13.17
		c3.08,3.53,7.38,4.01,11.19,4.01c0.55,0,1.09-0.01,1.62-0.02c0.48-0.01,0.96-0.02,1.42-0.02h4.05h2.71h2.89h0.99
		c0.55,0,1.07-0.13,1.54-0.37c3.48-0.95,6.86-3.64,6.86-7.22v-34.15l0-29.62C73.54,150.57,64.89,148.73,62.57,148.73L62.57,148.73z"
		/>
</g>
<g>
	<path style="fill:#FFFFFF;" d="M96.42,161.22v33.46c0,0-2.48,0.62-5.79,0.62s-5.79-0.62-5.79-0.62v-33.46c0-2.2,5.36-4.01,7.6-4.01
		C94.65,157.21,96.42,159.02,96.42,161.22z"/>
	<path style="fill-rule:evenodd;clip-rule:evenodd;fill:#009FF9;" d="M112.15,226.39c-2.94,3.36-7.71,2.8-11.66,2.8H89.85v-0.08
		c-2.23-0.42-5-2.09-5-4.09v-30.32c0,0,2.48,0.62,5.79,0.62s5.79-0.62,5.79-0.62v12.76c1.13-0.03,2.34,0.06,3.78,0.34
		c0.03,0,0.28,0.06,0.28,0.06c5.08,1.1,9.49,4.52,11.83,9.15C113.62,219.5,114.16,224.07,112.15,226.39z"/>
	<path d="M92.43,157.23c2.21,0,4,1.79,4,4v29.62v3.84v12.75c0.08,0,0.16,0,0.25,0c1.04,0,2.19,0.08,3.52,0.34
		c0.05,0.01,0.28,0.06,0.28,0.06c5.08,1.1,9.5,4.51,11.85,9.14c1.27,2.51,1.83,7.11-0.17,9.41c-2.21,2.53-5.47,2.85-8.63,2.85
		c-1.04,0-2.07-0.03-3.04-0.03h-4.05h-2.71h-2.89h-0.99v-0.1c-2.25-0.41-5.01-2.09-5.01-4.1v-34.15h0v-29.62
		C84.85,159.01,90.23,157.23,92.43,157.23 M92.43,153.84c-2.32,0-10.97,1.85-10.97,7.39v29.62l0,34.15c0,3.61,3.44,6.31,6.94,7.24
		c0.44,0.22,0.93,0.34,1.45,0.34h0.99h2.89h2.71h4.05c0.46,0,0.94,0.01,1.42,0.02c0.54,0.01,1.08,0.02,1.62,0.02
		c3.8,0,8.11-0.48,11.19-4.01c3.2-3.66,2.3-9.9,0.64-13.17c-2.81-5.53-8.1-9.61-14.15-10.92l-0.22-0.05
		c-0.4-0.08-0.78-0.14-1.16-0.2v-9.59v-3.84v-29.62C99.82,157.15,96.51,153.84,92.43,153.84L92.43,153.84z"/>
</g>
<g>
	<path style="fill:#FFFFFF;" d="M34.02,119.9c-1.44,2.46-2.63,5.03-3.59,7.68c-4.24,0.23-8.7-2.48-10.96-4.77
		c3.02-7.17,7.82-13.55,14.85-18.58c1.58-1.13,3.98-3.19,6.1-2.77C48.33,103.05,35.54,117.33,34.02,119.9z"/>
	<path style="fill:#0088C5;" d="M30.43,127.58c-0.23,0.71-0.48,1.41-0.68,2.15c-0.34,1.64-0.62,3.33-0.71,3.67
		c-1.3,5.42-0.54,10.11-0.11,15.59c0.2,2.6,0.06,5.53-1.58,7.17c-0.25,0.28-0.54,0.51-0.88,0.68c-0.68,0.4-1.5,0.59-2.54,0.59
		c-0.31,0-0.65-0.03-0.99-0.06c-0.62-0.08-1.3-0.23-1.98-0.45c-1.44-0.48-2.91-1.27-3.67-2.34c-3.61-4.86-2.54-11.6-1.86-16.94
		c0.37-2.77,0.9-5.51,1.67-8.19c0.03-0.11,0.11-0.4,0.25-0.82c0.08-0.28,0.17-0.62,0.28-0.96c0.06-0.2,0.11-0.37,0.17-0.56
		c0.11-0.4,0.25-0.79,0.37-1.19c0.11-0.4,0.25-0.79,0.4-1.16c0.25-0.73,0.51-1.36,0.68-1.69c0.08-0.17,0.17-0.25,0.23-0.25
		C21.74,125.1,26.2,127.81,30.43,127.58z"/>
	<path style="fill:#0088C5;" d="M30.46,127.58c-0.25,0.71-0.48,1.41-0.71,2.15c0.2-0.73,0.45-1.44,0.68-2.15H30.46z"/>
	<path d="M45.96,101.97c-0.45-1.16-1.67-3.19-4.88-3.84c-0.4-0.06-0.82-0.11-1.24-0.11c-2.8,0-5.17,1.75-6.89,3.02l-0.56,0.42
		c-6.95,4.94-12.23,11.44-15.7,19.31c-1.04,1.38-1.75,3.9-2.82,7.74c-0.79,2.8-1.38,5.7-1.78,8.7l-0.06,0.59
		c-0.73,5.51-1.72,13.02,2.54,18.8c1.52,2.06,4.01,3.11,5.36,3.53c0.88,0.28,1.78,0.51,2.63,0.59c0.48,0.06,0.96,0.08,1.38,0.08
		c3.08,0,4.97-1.33,5.99-2.43c1.92-2.09,2.71-5.25,2.37-9.66c-0.06-0.93-0.14-1.84-0.23-2.74c-0.37-4.21-0.68-7.82,0.28-11.8
		c0.03-0.17,0.11-0.56,0.23-1.1c0.11-0.68,0.28-1.58,0.48-2.51c0.99-3.25,2.29-6.27,3.9-8.95c0.17-0.28,0.88-1.21,1.47-2.03
		C43.42,113.01,47.74,106.69,45.96,101.97z M34.02,119.9c-1.44,2.46-2.63,5.03-3.56,7.68c-0.25,0.71-0.48,1.41-0.71,2.15
		c-0.34,1.64-0.62,3.33-0.71,3.67c-1.3,5.42-0.54,10.11-0.11,15.59c0.2,2.6,0.06,5.53-1.58,7.17c-0.23,0.25-0.54,0.51-0.88,0.68
		c-0.68,0.4-1.5,0.59-2.54,0.59c-0.31,0-0.65-0.03-0.99-0.06c-0.62-0.08-1.3-0.23-1.98-0.45c-1.44-0.48-2.91-1.27-3.67-2.34
		c-3.61-4.86-2.54-11.6-1.86-16.94c0.37-2.77,0.9-5.51,1.67-8.19c0.03-0.11,0.11-0.4,0.25-0.82c0.08-0.28,0.17-0.62,0.28-0.96
		c0.06-0.2,0.11-0.37,0.17-0.56c0.11-0.4,0.25-0.79,0.37-1.19c0.11-0.4,0.25-0.79,0.4-1.16c0.23-0.73,0.48-1.36,0.68-1.69
		c0.08-0.17,0.17-0.25,0.23-0.25h0.03c3.02-7.17,7.79-13.58,14.82-18.58c1.44-1.02,3.56-2.82,5.51-2.82c0.2,0,0.4,0.03,0.59,0.06
		C48.33,103.05,35.54,117.33,34.02,119.9z"/>
</g>
<g>
	<path d="M117.32,109.06c2.01,0,4.11,1.99,5.51,3.11c6.75,5.38,11.15,12.04,13.77,19.35c0.02,0,0.05-0.01,0.08-0.01c0,0,0,0,0,0
		c0.49,0,1.87,6.16,2.01,6.77c0.61,2.72,1.01,5.48,1.23,8.26c0.41,5.35,1.11,12.15-2.74,16.82c-0.83,1.01-2.33,1.74-3.82,2.14
		c-0.69,0.18-1.37,0.3-1.98,0.34c-0.22,0.01-0.44,0.02-0.65,0.02c-5.6,0-5.39-4.8-4.5-8.93c1.19-5.55,1.32-10.83,0.42-16.13
		c-0.1-0.54-0.2-1.08-0.32-1.62c-0.08-0.39-0.16-0.77-0.26-1.16c-0.23-0.96-0.49-1.92-0.79-2.87c-0.04-0.14-0.08-0.28-0.12-0.43
		c-0.75-2.36-1.7-4.66-2.86-6.89c-1.38-2.65-13.39-17.59-5.41-18.75C117.04,109.07,117.18,109.06,117.32,109.06 M117.32,105.67
		L117.32,105.67c-0.3,0-0.6,0.02-0.9,0.06c-3.25,0.47-4.57,2.44-5.07,3.57c-2.04,4.62,1.95,11.14,6.58,17.99
		c0.57,0.85,1.22,1.81,1.38,2.11c1.03,1.99,1.92,4.13,2.63,6.36l0.11,0.4c0.27,0.88,0.51,1.77,0.73,2.66
		c0.08,0.35,0.16,0.71,0.24,1.07c0.11,0.52,0.2,1.02,0.3,1.53c0.83,4.84,0.7,9.7-0.4,14.8c-0.64,2.96-1.2,7.24,1.22,10.25
		c1.03,1.27,3,2.78,6.59,2.78c0.27,0,0.56-0.01,0.85-0.03c0.85-0.05,1.77-0.21,2.66-0.45c1.37-0.37,3.92-1.28,5.55-3.26
		c4.57-5.55,3.98-13.11,3.55-18.63l-0.05-0.61c-0.23-3.01-0.67-5.95-1.3-8.75c-0.88-3.95-1.47-6.59-2.53-8.04
		c-3.03-7.99-7.91-14.71-14.53-19.97l-0.56-0.46C122.75,107.71,120.28,105.67,117.32,105.67L117.32,105.67z"/>
	<path style="fill:#FFFFFF;" d="M136.63,131.51c-3.11,0.25-7.34,1.1-11.49,3.13c-0.73-2.34-1.67-4.6-2.82-6.8
		c-1.38-2.65-13.38-17.59-5.39-18.75c2.12-0.31,4.4,1.89,5.93,3.08C129.59,117.56,134,124.19,136.63,131.51z"/>
	<path style="fill:#0088C5;" d="M137.19,163.36c-0.85,1.02-2.34,1.75-3.81,2.15c-0.71,0.2-1.38,0.31-2,0.34
		c-6.24,0.37-6.07-4.63-5.14-8.92c1.27-5.82,1.36-11.32,0.28-16.88c-0.34-1.78-0.79-3.59-1.38-5.39c4.15-2.03,8.39-2.88,11.49-3.13
		c0.03,0,0.03,0,0.06,0c0.48,0,1.89,6.16,2,6.78c0.62,2.71,1.02,5.48,1.24,8.24C140.32,151.89,141.03,158.7,137.19,163.36z"/>
</g>
<g>
	<path style="fill:#FFFFFF;" d="M55.15,14.64c1.5,0.44,3.01,1.09,4.55,1.95c1.27,0.7,2.46,1.6,3.58,2.53
		c3.59,2.98,8.21,12.37,3.27,16.13c-3.57,2.72-6.87-4.07-8.88-6.03c-4.49-4.4-10.91,0.44-14.39,4.07c-2.8,2.94-7.43,3.05-10.36,0.24
		c-2.93-2.81-3.06-7.46-0.29-10.42c3.44-3.67,7.66-6.8,12.52-8.28C48.77,13.74,51.96,13.71,55.15,14.64z"/>
	<path style="fill:#673101;" d="M44.37,28.43c-0.57-0.16-1.14-0.07-1.67,0.1c0.64-0.38,1.14-1,1.34-1.79
		c0.41-1.58-0.54-3.19-2.1-3.61c-0.73-0.19-1.46-0.06-2.08,0.26c0.55-0.39,0.99-0.94,1.17-1.64c0.41-1.58-0.53-3.2-2.1-3.61
		c-0.14-0.04-0.28-0.02-0.43-0.03c-3.2,2.25-5.37,4.48-5.86,5c-2.77,2.96-2.63,7.61,0.3,10.42c2.92,2.81,7.56,2.7,10.36-0.24
		c0.82-0.86,1.94-1.83,3.15-2.72C46.18,29.56,45.44,28.7,44.37,28.43"/>
	<path d="M50.59,13.98c1.55,0,3.06,0.23,4.56,0.66c1.5,0.44,3.01,1.09,4.55,1.95c1.27,0.7,2.46,1.6,3.58,2.53
		c3.59,2.98,8.21,12.37,3.27,16.13c-0.58,0.44-1.16,0.63-1.72,0.63c-2.89,0-5.48-5.02-7.16-6.66c-1.27-1.25-2.7-1.75-4.17-1.75
		c-2.41,0-4.94,1.35-7.1,3.02c0.01,0.03,0.03,0.06,0.04,0.09c-1.2,0.88-2.31,1.84-3.13,2.7c-0.01,0.01-0.01,0.01-0.02,0.02
		c-1.44,1.52-3.37,2.28-5.3,2.28c-1.82,0-3.64-0.68-5.06-2.04c-1.83-1.76-2.57-4.23-2.19-6.56c0.23-1.4,0.86-2.75,1.9-3.86
		c0.24-0.25,0.89-0.92,1.87-1.81c3.07-2.86,6.62-5.25,10.65-6.47C47.06,14.26,48.85,13.98,50.59,13.98 M50.59,10.59
		c-2.09,0-4.18,0.33-6.42,1.01c-4.15,1.26-8.18,3.69-11.98,7.24c-0.96,0.87-1.67,1.59-2.01,1.94c-1.49,1.59-2.44,3.53-2.79,5.65
		c-0.57,3.51,0.62,7.09,3.19,9.55c2,1.92,4.63,2.98,7.4,2.98c2.92,0,5.74-1.22,7.76-3.33c0.71-0.74,1.67-1.56,2.7-2.32
		c0.23-0.17,0.43-0.36,0.6-0.56c1.71-1.22,3.28-1.89,4.46-1.89c0.69,0,1.25,0.24,1.8,0.78c0.29,0.28,0.82,1,1.29,1.63
		c1.88,2.54,4.47,6.01,8.24,6.01c1.33,0,2.63-0.46,3.77-1.33c2.21-1.69,3.42-4.19,3.49-7.24c0.11-5.26-3.36-11.47-6.64-14.19
		c-1.52-1.26-2.82-2.18-4.1-2.89c-1.81-1-3.53-1.73-5.25-2.23C54.25,10.85,52.45,10.59,50.59,10.59L50.59,10.59z"/>
</g>
<g>
	<path style="fill:#FFFFFF;" d="M98.64,14.64c-1.5,0.44-3.01,1.09-4.55,1.95c-1.27,0.7-2.46,1.6-3.58,2.53
		c-3.59,2.98-8.21,12.37-3.27,16.13c3.57,2.72,6.87-4.07,8.88-6.03c4.49-4.4,10.91,0.44,14.39,4.07c2.8,2.94,7.43,3.05,10.36,0.24
		c2.93-2.81,3.06-7.46,0.29-10.42c-3.44-3.67-7.66-6.8-12.52-8.28C105.02,13.74,101.83,13.71,98.64,14.64z"/>
	<path style="fill:#673101;" d="M109.43,28.43c0.57-0.16,1.14-0.07,1.67,0.1c-0.64-0.38-1.14-1-1.34-1.79
		c-0.41-1.58,0.54-3.19,2.1-3.61c0.73-0.19,1.46-0.06,2.08,0.26c-0.55-0.39-0.99-0.94-1.17-1.64c-0.41-1.58,0.53-3.2,2.1-3.61
		c0.14-0.04,0.28-0.02,0.43-0.03c3.2,2.25,5.37,4.48,5.86,5c2.77,2.96,2.63,7.61-0.3,10.42c-2.92,2.81-7.56,2.7-10.36-0.24
		c-0.82-0.86-1.94-1.83-3.15-2.72C107.61,29.56,108.35,28.7,109.43,28.43"/>
	<path d="M103.2,13.98c1.73,0,3.53,0.28,5.43,0.86c4.03,1.22,7.58,3.61,10.65,6.47c0.97,0.88,1.63,1.55,1.87,1.81
		c1.04,1.11,1.67,2.46,1.9,3.86c0.38,2.33-0.36,4.81-2.19,6.56c-1.42,1.36-3.24,2.04-5.06,2.04c-1.93,0-3.86-0.76-5.3-2.28
		c-0.01-0.01-0.01-0.01-0.02-0.02c-0.82-0.86-1.93-1.81-3.13-2.7c0.01-0.03,0.03-0.06,0.04-0.09c-2.16-1.66-4.69-3.02-7.1-3.02
		c-1.47,0-2.9,0.51-4.17,1.75c-1.68,1.64-4.26,6.66-7.16,6.66c-0.56,0-1.14-0.19-1.72-0.63c-4.94-3.76-0.32-13.15,3.27-16.13
		c1.12-0.93,2.31-1.83,3.58-2.53c1.55-0.85,3.05-1.51,4.55-1.95C100.15,14.2,101.65,13.98,103.2,13.98 M103.2,10.59
		c-1.86,0-3.67,0.26-5.51,0.8c-1.72,0.5-3.43,1.23-5.25,2.23c-1.28,0.71-2.59,1.63-4.11,2.89c-3.28,2.73-6.75,8.93-6.64,14.19
		c0.07,3.05,1.27,5.55,3.48,7.24c1.14,0.87,2.44,1.33,3.77,1.33c3.78,0,6.36-3.47,8.24-6.01c0.47-0.63,1-1.34,1.29-1.63
		c0.55-0.54,1.11-0.78,1.8-0.78c1.18,0,2.74,0.67,4.46,1.89c0.17,0.21,0.37,0.4,0.6,0.56c1.04,0.76,1.99,1.58,2.69,2.32
		c2.02,2.13,4.85,3.34,7.77,3.34c2.77,0,5.4-1.06,7.4-2.99c2.57-2.46,3.76-6.04,3.18-9.55c-0.34-2.11-1.3-4.06-2.77-5.63
		c-0.36-0.37-1.07-1.1-2.07-2c-3.76-3.51-7.79-5.94-11.94-7.2C107.39,10.92,105.29,10.59,103.2,10.59L103.2,10.59z"/>
</g>
<g>
	<g>
		<g>
			<path style="fill-rule:evenodd;clip-rule:evenodd;fill:#009FF9;" d="M124.7,138.44c0.45,8.44-1.64,20.84-7.26,28.09
				c-6.64,8.58-18.75,14.17-33.2,15.33c-1.72,0.14-3.61,0.23-5.42,0.23h-3.84c-1.81,0-3.7-0.08-5.42-0.23
				c-14.46-1.16-26.57-6.75-33.2-15.33c-5.62-7.26-7.71-19.65-7.26-28.09c0.25-4.72,1.3-9.49,2.29-14.12
				c0.54-2.37,1.04-4.72,1.47-7.09c0.45-2.65,0.17-7.57,0.14-7.82c-0.34-3.67-1.41-7.12-2.46-10c-4.07-11.35-4.74-21.97-2.17-33.4
				c2.34-10.33,7.26-19.09,13.44-24.06C52.19,33.68,64.19,28.97,74.86,29l2.03-0.03L78.93,29h0.08c10.62,0,22.62,4.72,32.98,12.96
				c6.18,4.97,11.1,13.72,13.44,24.06c2.57,11.44,1.89,22.05-2.17,33.4c-1.02,2.88-2.12,6.32-2.46,10.05
				c-0.03,0.11-0.11,1.67-0.11,3.47c0,1.47,0.06,3.11,0.28,4.29c0.4,2.37,0.93,4.72,1.44,7.09
				C123.42,128.95,124.44,133.72,124.7,138.44z"/>
			<path d="M125.71,123.61c-0.51-2.34-1.02-4.66-1.41-6.97c-0.34-1.86-0.2-5.65-0.14-6.92c0.31-3.3,1.33-6.49,2.29-9.15
				c4.24-11.83,4.97-23.38,2.29-35.29c-2.51-11.07-7.85-20.53-14.63-25.95c-10.96-8.72-23.72-13.72-35.1-13.72h-0.08l-2.03-0.03
				l-2.03,0.03h-0.08c-11.38,0-24.14,5-35.07,13.72c-6.8,5.42-12.14,14.88-14.65,25.95c-2.68,11.92-1.95,23.46,2.29,35.29
				c0.96,2.68,1.98,5.84,2.29,9.09c0.06,1.33,0.2,5.11-0.14,6.97c-0.4,2.32-0.9,4.63-1.41,6.97c-1.04,4.74-2.12,9.66-2.37,14.65
				c-0.48,9.35,1.78,22.36,7.96,30.32c7.23,9.35,20.22,15.39,35.6,16.66c1.84,0.14,3.81,0.23,5.7,0.23h3.84
				c1.92,0,3.87-0.08,5.7-0.23c15.39-1.27,28.38-7.31,35.6-16.66c6.18-7.96,8.44-20.98,7.96-30.32
				C127.83,133.27,126.76,128.36,125.71,123.61z M78.81,182.09h-3.84c-1.81,0-3.7-0.08-5.42-0.23c-14.46-1.16-26.57-6.75-33.2-15.33
				c-5.62-7.26-7.71-19.65-7.26-28.09c0.25-4.72,1.3-9.49,2.29-14.12c0.54-2.37,1.04-4.72,1.47-7.09c0.45-2.65,0.17-7.57,0.14-7.82
				c-0.34-3.67-1.41-7.12-2.46-10c-4.07-11.35-4.74-21.97-2.17-33.4c2.34-10.33,7.26-19.09,13.44-24.06
				C52.19,33.68,64.19,28.97,74.86,29l2.03-0.03L78.93,29h0.08c10.62,0,22.62,4.72,32.98,12.96c6.18,4.97,11.1,13.72,13.44,24.06
				c2.57,11.44,1.89,22.05-2.17,33.4c-1.02,2.88-2.12,6.32-2.46,10.05c-0.03,0.11-0.11,1.67-0.11,3.47c0,1.47,0.06,3.11,0.28,4.29
				c0.4,2.37,0.93,4.72,1.44,7.09c1.02,4.63,2.03,9.4,2.29,14.12c0.45,8.44-1.64,20.84-7.26,28.09
				c-6.64,8.58-18.75,14.17-33.2,15.33C82.51,182,80.62,182.09,78.81,182.09z"/>
		</g>
		<path style="fill-rule:evenodd;clip-rule:evenodd;fill:#FFFFFF;" d="M82.99,34.81c4.56,0.6,9.03,1.82,13.1,3.55
			c6.64,2.82,14.39,7.36,17.97,13.73c1.58,2.82,2.66,5.9,3.28,9.06c0.47,2.39-0.12,5.75,1.32,7.8c2.91,4.17,3.58,6.51,4.38,11.71
			c0.75,4.89,0.33,10.11-1.74,14.64c-5.38,11.79-18.42,16.77-30.34,17.15c-1.65,0.05-3.33,0.1-5,0.15
			c-7.75,0.24-15.38,0.1-23.13-0.15c-11.93-0.38-24.96-5.35-30.34-17.15c-2.07-4.53-2.49-9.75-1.74-14.64
			c0.8-5.19,1.47-7.54,4.38-11.71c1.44-2.05,0.85-5.41,1.32-7.8c0.62-3.17,1.69-6.25,3.28-9.06c3.58-6.37,9.53-10.9,16.18-13.73
			c2.69-1.14,5.49-2.02,8.34-2.68C69.83,34.39,77.31,34.07,82.99,34.81z"/>
	</g>
	<g>
		<path style="fill-rule:evenodd;clip-rule:evenodd;fill:#FDBDB8;" d="M58.87,82.49c0,6.95-5.59,12.58-12.49,12.58
			S33.9,89.44,33.9,82.49c0-6.94,5.59-12.57,12.48-12.57S58.87,75.55,58.87,82.49"/>
		<path style="fill-rule:evenodd;clip-rule:evenodd;fill:#FDBDB8;" d="M119.89,82.49c0,6.95-5.59,12.58-12.49,12.58
			c-6.89,0-12.48-5.63-12.48-12.58c0-6.94,5.59-12.57,12.48-12.57C114.3,69.92,119.89,75.55,119.89,82.49"/>
	</g>
</g>
<g>
	<path style="fill-rule:evenodd;clip-rule:evenodd;" d="M79.05,78.45c0,0.91-0.96,1.64-2.15,1.64s-2.16-0.73-2.16-1.64
		c0-0.9,0.96-1.64,2.16-1.64S79.05,77.55,79.05,78.45"/>
	<g>
		<path style="fill-rule:evenodd;clip-rule:evenodd;" d="M89.28,76.5L89.28,76.5c-1.61,0-2.92-1.22-2.92-2.72V73.4
			c0-1.5,1.31-2.72,2.92-2.72c1.61,0,2.93,1.22,2.93,2.72v0.38C92.2,75.28,90.89,76.5,89.28,76.5"/>
		<path style="fill-rule:evenodd;clip-rule:evenodd;" d="M64.51,76.5L64.51,76.5c-1.61,0-2.92-1.22-2.92-2.72V73.4
			c0-1.5,1.31-2.72,2.92-2.72c1.61,0,2.93,1.22,2.93,2.72v0.38C67.44,75.28,66.13,76.5,64.51,76.5"/>
	</g>
	<path style="fill:#231815;" d="M84.37,88.87c-2.73,0-5.44-0.81-7.47-2.14c-3.76,2.47-9.83,3.14-14.03,0.22
		c-1.23-0.85-2.73-2.19-2.88-3.73c-0.08-0.75,0.17-1.46,0.69-2.01c0.64-0.68,1.72-0.7,2.39-0.06c0.51,0.49,0.65,1.22,0.41,1.84
		c0.23,0.29,0.7,0.74,1.32,1.17c3.21,2.23,8.45,1.4,10.99-0.83c0.64-0.56,1.59-0.56,2.23,0c2.54,2.23,7.78,3.06,10.99,0.83
		c0.62-0.43,1.09-0.88,1.32-1.17c-0.24-0.62-0.1-1.35,0.41-1.84c0.68-0.64,1.75-0.62,2.39,0.06c0.52,0.55,0.77,1.26,0.69,2.01
		c-0.16,1.54-1.66,2.88-2.88,3.73C89,88.29,86.68,88.87,84.37,88.87z M90.67,83.56h0.03H90.67z"/>
</g>
</svg>
