<?xml version="1.0" encoding="utf-8"?>
<!-- Generator: Adobe Illustrator 24.1.1, SVG Export Plug-In . SVG Version: 6.00 Build 0)  -->
<svg version="1.1" id="Layer_1" xmlns="http://www.w3.org/2000/svg" xmlns:xlink="http://www.w3.org/1999/xlink" x="0px" y="0px"
	 viewBox="0 0 960 540" style="enable-background:new 0 0 960 540;" xml:space="preserve">
<rect x="0" y="0" style="fill:#5B2A00;" width="960" height="540"/>
<g>
	<rect x="66.52" y="79.06" style="fill:#FFFFFF;" width="312.05" height="409.39"/>
	<path style="fill:#A38C79;" d="M45.68,28.14v483.73h354.63V28.14H45.68z M378.57,488.45H66.52V79.06h312.05V488.45z"/>
	<path d="M400.31,25.14H31.22c-1.66,0-3,1.34-3,3v483.73c0,1.65,1.34,3,3,3h369.09c1.65,0,3-1.35,3-3V28.14
		C403.31,26.48,401.96,25.14,400.31,25.14z M400.31,511.87H45.68V28.14h354.63V511.87z"/>
</g>
<g>
	<g>
		<path d="M127.6,104.9H94.83V54.45h32.77v3.31h-21.65v19.93h20.33V81h-20.33v20.59h21.65V104.9z"/>
		<path d="M150.77,54.45l27.81,34.43V54.45h3.31v50.45h-3.31l-27.81-34.43v34.43h-3.31V54.45H150.77z"/>
		<path d="M213.46,57.76h-12.38v-3.31h35.69v3.31h-12.38v47.14h-10.92V57.76z"/>
		<path d="M266.89,83.25v21.65h-10.92V54.45h20.26c12.12,0,17.55,4.1,17.55,14.43c0,10.06-5.16,14.17-16.62,14.37
			c1.46,3.11,3.97,7.88,5.1,9.4c2.18,3.11,4.37,4.37,7.35,3.51c3.24-0.93,7.08-1.13,8.41,2.45c0.99,2.71-0.66,5.83-3.84,6.42
			c-6.09,1.13-10.73-2.32-14.3-7.55c-3.11-4.5-5.96-11.39-7.15-14.23H266.89z M273.64,79.94c6.02,0,9.27-2.71,9.27-11.06
			s-3.24-11.12-9.27-11.12h-6.75v22.18H273.64z"/>
		<path d="M337.06,78.88l13.31-24.43h3.77l-14.96,28.14v22.31h-10.99V83.59l-14.96-29.13h11.32L337.06,78.88z"/>
	</g>
</g>
<g>
	<rect x="254.58" y="359.65" width="114.69" height="17.49"/>
	<rect x="309.92" y="337.19" width="59.35" height="17.49"/>
	<g>
		<g>
			<path style="fill:#FFFFFF;" d="M321.85,351.53c0.31-0.33,0.64-0.7,1-1.13c0.36-0.42,0.7-0.85,1.04-1.26
				c0.34-0.42,0.65-0.81,0.94-1.18s0.52-0.66,0.69-0.88c0.16-0.21,0.33-0.45,0.48-0.71c0.16-0.26,0.3-0.53,0.43-0.8
				s0.24-0.55,0.32-0.82s0.12-0.54,0.12-0.79c0-0.22-0.04-0.46-0.11-0.72c-0.07-0.26-0.19-0.49-0.35-0.71s-0.36-0.4-0.61-0.53
				s-0.56-0.21-0.92-0.21c-0.28,0-0.54,0.06-0.79,0.19c-0.25,0.13-0.48,0.3-0.69,0.51c-0.21,0.22-0.39,0.47-0.53,0.77
				c-0.15,0.3-0.26,0.62-0.33,0.95l-0.68-0.13c0.08-0.41,0.2-0.81,0.37-1.19c0.17-0.38,0.39-0.72,0.66-1
				c0.27-0.29,0.59-0.52,0.97-0.69s0.81-0.26,1.3-0.26c0.43,0,0.83,0.08,1.2,0.22c0.37,0.15,0.68,0.36,0.94,0.62
				s0.46,0.58,0.61,0.94c0.15,0.36,0.22,0.75,0.22,1.16c0,0.32-0.05,0.64-0.14,0.95c-0.09,0.32-0.21,0.63-0.35,0.93
				c-0.14,0.3-0.3,0.59-0.48,0.85c-0.17,0.27-0.34,0.5-0.51,0.72c-0.25,0.34-0.49,0.66-0.72,0.96c-0.23,0.3-0.46,0.6-0.7,0.9
				c-0.24,0.29-0.48,0.59-0.73,0.9c-0.25,0.3-0.52,0.62-0.81,0.96h2.88c0.23,0,0.42-0.01,0.56-0.02s0.27-0.05,0.38-0.12
				c0.11-0.06,0.2-0.16,0.3-0.3s0.2-0.32,0.33-0.56h0.59l-0.75,1.92h-6.13V351.53z"/>
			<path style="fill:#FFFFFF;" d="M331.11,346.6c0-0.74,0.07-1.45,0.2-2.14c0.13-0.68,0.33-1.29,0.61-1.81
				c0.27-0.52,0.63-0.94,1.06-1.25c0.43-0.31,0.95-0.47,1.55-0.47c0.61,0,1.13,0.15,1.56,0.46c0.43,0.31,0.79,0.72,1.07,1.24
				c0.28,0.52,0.48,1.12,0.61,1.81c0.13,0.68,0.2,1.4,0.2,2.14c0,0.75-0.07,1.47-0.2,2.15c-0.14,0.68-0.34,1.28-0.62,1.79
				c-0.28,0.52-0.64,0.93-1.07,1.24c-0.43,0.31-0.95,0.46-1.55,0.46c-0.6,0-1.11-0.15-1.55-0.46c-0.43-0.3-0.79-0.71-1.06-1.23
				c-0.27-0.52-0.48-1.11-0.61-1.79C331.17,348.07,331.11,347.36,331.11,346.6z M334.52,351.56c0.33,0,0.62-0.12,0.88-0.37
				c0.26-0.25,0.48-0.59,0.65-1.03c0.17-0.44,0.31-0.96,0.4-1.57c0.09-0.61,0.14-1.27,0.14-1.99c0-0.71-0.05-1.38-0.14-1.99
				c-0.09-0.62-0.22-1.15-0.4-1.6c-0.17-0.45-0.39-0.8-0.65-1.05c-0.26-0.26-0.55-0.38-0.88-0.38c-0.33,0-0.62,0.13-0.87,0.38
				s-0.46,0.6-0.64,1.05c-0.17,0.45-0.31,0.98-0.4,1.59c-0.09,0.61-0.14,1.28-0.14,2c0,0.72,0.05,1.39,0.14,2
				c0.09,0.61,0.23,1.14,0.4,1.58c0.18,0.44,0.39,0.78,0.64,1.03S334.2,351.56,334.52,351.56z"/>
			<path style="fill:#FFFFFF;" d="M340.71,351.53c0.31-0.33,0.64-0.7,1-1.13c0.36-0.42,0.7-0.85,1.04-1.26
				c0.34-0.42,0.65-0.81,0.94-1.18s0.52-0.66,0.69-0.88c0.16-0.21,0.33-0.45,0.48-0.71c0.16-0.26,0.3-0.53,0.43-0.8
				s0.24-0.55,0.32-0.82s0.12-0.54,0.12-0.79c0-0.22-0.04-0.46-0.11-0.72c-0.07-0.26-0.19-0.49-0.35-0.71s-0.36-0.4-0.61-0.53
				s-0.56-0.21-0.92-0.21c-0.28,0-0.54,0.06-0.79,0.19c-0.25,0.13-0.48,0.3-0.69,0.51c-0.21,0.22-0.39,0.47-0.53,0.77
				c-0.15,0.3-0.26,0.62-0.33,0.95l-0.68-0.13c0.08-0.41,0.2-0.81,0.37-1.19c0.17-0.38,0.39-0.72,0.66-1
				c0.27-0.29,0.59-0.52,0.97-0.69s0.81-0.26,1.3-0.26c0.43,0,0.83,0.08,1.2,0.22c0.37,0.15,0.68,0.36,0.94,0.62
				s0.46,0.58,0.61,0.94c0.15,0.36,0.22,0.75,0.22,1.16c0,0.32-0.05,0.64-0.14,0.95c-0.09,0.32-0.21,0.63-0.35,0.93
				c-0.14,0.3-0.3,0.59-0.48,0.85c-0.17,0.27-0.34,0.5-0.51,0.72c-0.25,0.34-0.49,0.66-0.72,0.96c-0.23,0.3-0.46,0.6-0.7,0.9
				c-0.24,0.29-0.48,0.59-0.73,0.9c-0.25,0.3-0.52,0.62-0.81,0.96h2.88c0.23,0,0.42-0.01,0.56-0.02s0.27-0.05,0.38-0.12
				c0.11-0.06,0.2-0.16,0.3-0.3s0.2-0.32,0.33-0.56h0.59l-0.75,1.92h-6.13V351.53z"/>
			<path style="fill:#FFFFFF;" d="M354.25,340.71v9.61c0,0.26,0.03,0.46,0.1,0.6c0.07,0.14,0.17,0.25,0.3,0.32s0.29,0.12,0.49,0.14
				c0.2,0.02,0.43,0.03,0.69,0.04v0.56h-4.44v-0.58c0.22-0.01,0.43-0.02,0.62-0.04c0.19-0.01,0.36-0.06,0.5-0.13
				c0.14-0.07,0.25-0.18,0.33-0.32c0.08-0.14,0.12-0.35,0.12-0.62v-7.04c0-0.24-0.01-0.42-0.04-0.55c-0.02-0.13-0.09-0.2-0.2-0.22
				c-0.11-0.02-0.28,0.01-0.51,0.09c-0.23,0.08-0.54,0.2-0.95,0.37v-0.64L354.25,340.71z"/>
			<path style="fill:#FFFFFF;" d="M270.82,369.54c0.46-0.06,0.91-0.12,1.35-0.19s0.86-0.14,1.26-0.22v-6.34
				c0-0.3-0.14-0.54-0.41-0.73c-0.27-0.19-0.73-0.36-1.37-0.51l0.22-0.53c0.24,0.03,0.5,0.06,0.79,0.11
				c0.28,0.04,0.57,0.09,0.85,0.14c0.28,0.05,0.54,0.1,0.79,0.15s0.47,0.09,0.65,0.12c-0.02,0.09-0.04,0.19-0.06,0.32
				c-0.02,0.13-0.04,0.25-0.05,0.38c-0.01,0.13-0.03,0.25-0.04,0.35c-0.01,0.11-0.01,0.18-0.01,0.23v3.99
				c0.2-0.01,0.43-0.03,0.67-0.05c0.25-0.02,0.5-0.05,0.75-0.08c0.26-0.03,0.51-0.06,0.75-0.09c0.25-0.03,0.48-0.07,0.7-0.11
				l-0.13,1.17c-0.17-0.01-0.38-0.01-0.61-0.01s-0.47,0-0.72,0s-0.49,0-0.74,0c-0.25,0-0.48,0-0.68,0v3.19
				c0,0.3-0.01,0.64-0.01,1.03s-0.03,0.78-0.05,1.17c-0.02,0.39-0.05,0.76-0.08,1.11c-0.03,0.35-0.06,0.63-0.09,0.85l-1,0.13
				c-0.02-0.15-0.04-0.36-0.05-0.62s-0.03-0.54-0.04-0.83c-0.01-0.29-0.02-0.6-0.03-0.91s-0.01-0.61-0.01-0.89v-2.11
				c-1.14,0.26-2.26,0.47-3.36,0.63c-1.1,0.16-2.11,0.28-3.01,0.35c-0.11,0.01-0.26,0.02-0.45,0.04c-0.19,0.01-0.4,0.03-0.61,0.06
				c-0.22,0.02-0.43,0.05-0.65,0.07c-0.22,0.02-0.41,0.05-0.57,0.08l-0.71-1.23c0.15,0.03,0.34,0.06,0.55,0.08
				c0.21,0.02,0.43,0.05,0.64,0.07c0.22,0.02,0.43,0.04,0.63,0.05c0.2,0.01,0.37,0.01,0.49,0c0.05,0,0.09,0,0.13,0
				c0.04,0,0.08,0,0.12-0.01l-0.23-3.24c-0.02-0.28-0.09-0.51-0.2-0.68c-0.12-0.17-0.38-0.28-0.78-0.32l0.1-0.51
				c0.28,0,0.63,0.01,1.05,0.04c0.42,0.02,0.8,0.06,1.13,0.11c-0.05,0.17-0.07,0.39-0.07,0.66c0,0.27,0.02,0.49,0.04,0.67l0.19,3.18
				c0.6-0.05,1.18-0.11,1.75-0.17l0.13-3.25c0.01-0.15,0-0.29-0.02-0.4c-0.02-0.11-0.07-0.2-0.14-0.28
				c-0.07-0.08-0.18-0.14-0.31-0.2c-0.14-0.06-0.31-0.11-0.53-0.16l0.16-0.49c0.29,0.03,0.64,0.06,1.05,0.11s0.85,0.11,1.3,0.21
				c-0.08,0.25-0.14,0.49-0.18,0.73c-0.04,0.24-0.07,0.41-0.08,0.53L270.82,369.54z M272.24,364.41c-0.4-0.02-0.84-0.02-1.34-0.01
				c-0.5,0.01-0.99,0.03-1.48,0.05c-0.49,0.02-0.95,0.05-1.39,0.08s-0.78,0.05-1.04,0.06c-0.12,0.01-0.27,0.02-0.46,0.04
				c-0.19,0.01-0.4,0.03-0.61,0.05s-0.42,0.04-0.61,0.06c-0.2,0.02-0.36,0.04-0.48,0.06l-0.51-1.21c0.13,0.03,0.31,0.06,0.52,0.09
				c0.21,0.03,0.43,0.06,0.65,0.08s0.44,0.04,0.66,0.06c0.22,0.01,0.4,0.02,0.54,0.02c0.34,0,0.73-0.01,1.19-0.04
				c0.45-0.03,0.93-0.07,1.45-0.11c0.51-0.04,1.04-0.1,1.58-0.16c0.54-0.06,1.08-0.13,1.61-0.21L272.24,364.41z"/>
			<path style="fill:#FFFFFF;" d="M286,364.03c-0.17-0.01-0.37-0.01-0.59-0.01s-0.44,0.01-0.66,0.02c-0.22,0.01-0.44,0.02-0.66,0.04
				c-0.22,0.02-0.42,0.03-0.59,0.04c-0.11,0.01-0.24,0.02-0.41,0.03c-0.17,0.01-0.35,0.02-0.55,0.04c-0.2,0.02-0.4,0.04-0.6,0.06
				c-0.2,0.02-0.39,0.05-0.56,0.08l-0.69-1.14c0.12,0.02,0.27,0.04,0.46,0.07c0.19,0.03,0.39,0.05,0.59,0.07
				c0.21,0.02,0.41,0.04,0.62,0.05c0.21,0.01,0.39,0.02,0.54,0.02c0.26,0,0.58,0,0.96-0.01c0.38,0,0.79-0.01,1.21-0.03
				c0.43-0.01,0.87-0.04,1.32-0.07c0.45-0.03,0.87-0.06,1.26-0.1c-0.02,0.06-0.04,0.14-0.07,0.24c-0.02,0.1-0.05,0.21-0.07,0.32
				c-0.02,0.11-0.05,0.21-0.07,0.31s-0.03,0.17-0.04,0.22l-0.27,2.27c0.09-0.01,0.17-0.02,0.25-0.02c0.08,0,0.17-0.01,0.25-0.02
				l-0.12,0.91c-1.08-0.05-1.98-0.06-2.69-0.03c-0.71,0.03-1.32,0.06-1.82,0.09c0,0.08,0,0.15-0.01,0.23
				c-0.01,0.08-0.01,0.15-0.01,0.23v1.97c0,0.13,0.04,0.24,0.11,0.32c0.07,0.08,0.17,0.12,0.28,0.11c0.36-0.03,0.79-0.08,1.31-0.14
				s1.06-0.15,1.64-0.26c0.58-0.11,1.17-0.23,1.78-0.36s1.19-0.29,1.74-0.46v-6.34c0-0.3-0.14-0.54-0.43-0.73
				c-0.28-0.19-0.74-0.36-1.38-0.51l0.26-0.53c0.23,0.03,0.49,0.06,0.77,0.11c0.28,0.04,0.56,0.09,0.84,0.14
				c0.28,0.05,0.55,0.1,0.8,0.15c0.26,0.05,0.48,0.09,0.67,0.12c-0.02,0.09-0.04,0.19-0.06,0.32c-0.02,0.13-0.04,0.25-0.06,0.38
				c-0.02,0.13-0.03,0.25-0.04,0.35c-0.01,0.11-0.01,0.18-0.01,0.23v8.01c0,0.3-0.01,0.64-0.02,1.03s-0.03,0.78-0.06,1.17
				c-0.02,0.39-0.05,0.76-0.08,1.11c-0.03,0.35-0.06,0.63-0.1,0.85l-0.97,0.13c-0.02-0.15-0.04-0.36-0.05-0.62
				c-0.01-0.26-0.03-0.54-0.04-0.83s-0.02-0.6-0.03-0.91c-0.01-0.31-0.01-0.61-0.01-0.89v-2.14c-0.49,0.17-1.05,0.35-1.67,0.52
				c-0.62,0.17-1.24,0.33-1.86,0.48c-0.62,0.14-1.21,0.27-1.78,0.38c-0.56,0.11-1.04,0.18-1.44,0.22c-0.53,0.05-0.91-0.03-1.13-0.22
				c-0.22-0.2-0.33-0.53-0.33-0.99v-1.91c0-0.17-0.01-0.32-0.04-0.43c-0.02-0.12-0.07-0.21-0.14-0.29c-0.07-0.08-0.18-0.14-0.31-0.2
				c-0.14-0.06-0.32-0.12-0.55-0.19l0.25-0.46c0.92,0.11,1.81,0.15,2.66,0.14c0.85-0.01,1.65-0.04,2.4-0.09L286,364.03z"/>
			<path style="fill:#FFFFFF;" d="M302.36,369.57c0.29-0.05,0.58-0.09,0.86-0.14c0.28-0.04,0.57-0.09,0.85-0.14v-5.92
				c0-0.14-0.02-0.27-0.07-0.39c-0.04-0.12-0.12-0.22-0.23-0.32s-0.26-0.18-0.46-0.26c-0.19-0.08-0.43-0.15-0.72-0.23l0.26-0.52
				c0.46,0.06,0.93,0.13,1.42,0.22c0.48,0.09,0.91,0.19,1.27,0.28c-0.02,0.09-0.04,0.19-0.06,0.32c-0.02,0.13-0.04,0.25-0.05,0.38
				c-0.01,0.13-0.03,0.24-0.04,0.35s-0.01,0.18-0.01,0.23v3.61c0.23-0.01,0.45-0.02,0.66-0.04c0.21-0.01,0.43-0.03,0.65-0.05v-4.16
				c0-0.3-0.11-0.54-0.34-0.73c-0.23-0.19-0.65-0.36-1.26-0.51l0.23-0.53c0.23,0.03,0.48,0.07,0.74,0.12
				c0.26,0.05,0.52,0.1,0.77,0.14c0.26,0.05,0.5,0.1,0.73,0.14s0.44,0.09,0.62,0.13c-0.02,0.09-0.04,0.19-0.05,0.32
				c-0.01,0.13-0.03,0.25-0.04,0.38c-0.01,0.13-0.02,0.24-0.03,0.35c-0.01,0.11-0.01,0.18-0.01,0.23v8.01c0,0.3-0.01,0.64-0.02,1.02
				c-0.01,0.38-0.03,0.76-0.06,1.15c-0.02,0.39-0.05,0.75-0.08,1.11c-0.03,0.35-0.06,0.65-0.1,0.89l-0.98,0.13
				c-0.02-0.18-0.03-0.4-0.04-0.66c-0.01-0.26-0.02-0.53-0.04-0.82c-0.01-0.29-0.02-0.59-0.03-0.9c0-0.3-0.01-0.59-0.01-0.87v-4.1
				c-0.22,0.01-0.44,0.02-0.66,0.02c-0.22,0-0.44,0.02-0.66,0.04v2.49c0,0.3-0.01,0.64-0.02,1.02c-0.01,0.38-0.03,0.76-0.06,1.15
				c-0.02,0.39-0.05,0.76-0.09,1.11c-0.03,0.36-0.07,0.66-0.09,0.9l-0.94,0.12c-0.02-0.18-0.03-0.4-0.04-0.66
				c-0.01-0.26-0.02-0.53-0.04-0.82s-0.02-0.58-0.03-0.89c0-0.3-0.01-0.59-0.01-0.87v-1.39c-0.85,0.18-1.67,0.34-2.46,0.46
				c-0.79,0.13-1.55,0.22-2.27,0.29c-0.11,0.01-0.25,0.02-0.43,0.04c-0.18,0.01-0.37,0.03-0.58,0.06s-0.42,0.05-0.63,0.07
				c-0.21,0.02-0.4,0.05-0.55,0.08l-0.68-1.23c0.14,0.03,0.31,0.06,0.51,0.08c0.19,0.02,0.39,0.04,0.59,0.06s0.4,0.02,0.59,0.03
				c0.19,0,0.37,0,0.52-0.01l-0.22-2.93c-0.01-0.14-0.03-0.27-0.05-0.38c-0.02-0.11-0.07-0.21-0.13-0.3
				c-0.06-0.09-0.15-0.16-0.27-0.22c-0.12-0.06-0.28-0.1-0.48-0.12l0.09-0.49c0.28,0,0.62,0.01,1.02,0.03
				c0.4,0.02,0.76,0.05,1.09,0.1c-0.02,0.09-0.03,0.19-0.04,0.3c-0.01,0.12-0.01,0.23-0.01,0.35c0,0.12,0,0.24,0.01,0.36
				c0,0.12,0.01,0.23,0.02,0.33l0.19,2.9c0.22-0.02,0.44-0.04,0.64-0.06c0.21-0.02,0.42-0.05,0.63-0.08l0.06-3.05
				c0.01-0.15,0-0.28-0.01-0.39c-0.02-0.11-0.06-0.19-0.14-0.27s-0.18-0.13-0.31-0.18c-0.14-0.05-0.31-0.1-0.53-0.14l0.2-0.49
				c0.28,0.03,0.61,0.06,0.99,0.09s0.79,0.09,1.22,0.17c-0.07,0.24-0.12,0.48-0.14,0.72c-0.03,0.24-0.05,0.42-0.06,0.53
				L302.36,369.57z M303.36,364.75c-0.34-0.01-0.71-0.01-1.11-0.01c-0.4,0-0.79,0.01-1.18,0.02c-0.39,0.02-0.74,0.03-1.08,0.05
				c-0.33,0.02-0.6,0.03-0.82,0.04c-0.12,0.01-0.27,0.02-0.45,0.04c-0.18,0.01-0.38,0.03-0.58,0.05c-0.2,0.02-0.4,0.04-0.59,0.06
				c-0.19,0.02-0.34,0.05-0.47,0.06l-0.49-1.21c0.13,0.03,0.3,0.06,0.51,0.08c0.2,0.02,0.41,0.05,0.62,0.07
				c0.21,0.02,0.42,0.04,0.62,0.06c0.2,0.01,0.38,0.02,0.52,0.02c0.21,0,0.49-0.01,0.84-0.03c0.35-0.02,0.73-0.05,1.15-0.08
				c0.42-0.03,0.86-0.08,1.34-0.14c0.47-0.06,0.94-0.13,1.42-0.2L303.36,364.75z"/>
			<path style="fill:#FFFFFF;" d="M316.51,366.06c0.48,0.43,1,0.87,1.55,1.31c0.55,0.44,1.15,0.86,1.8,1.26l-1.05,0.95
				c-0.46-0.5-0.92-0.99-1.36-1.47c-0.44-0.48-0.91-0.97-1.4-1.47c-0.54,0.66-1.13,1.25-1.78,1.78c-0.65,0.53-1.35,1.03-2.1,1.5
				l-0.35-0.43c0.54-0.37,1.05-0.79,1.52-1.26c0.48-0.48,0.91-0.98,1.3-1.5c0.39-0.52,0.72-1.05,1-1.59
				c0.28-0.54,0.49-1.05,0.64-1.53c0.05-0.16,0.06-0.27,0.04-0.33c-0.02-0.06-0.06-0.1-0.09-0.13c-0.08-0.08-0.2-0.15-0.36-0.23
				s-0.34-0.16-0.53-0.26l0.32-0.45c0.4,0.11,0.83,0.23,1.27,0.36c0.44,0.14,0.85,0.27,1.23,0.4
				C317.74,364.12,317.2,365.15,316.51,366.06z M324.03,374.44c-0.59-0.01-1.18-0.01-1.79-0.01s-1.2,0-1.78,0.01
				c-0.58,0.01-1.14,0.02-1.66,0.04c-0.53,0.02-1,0.04-1.44,0.07c-0.35,0.02-0.59-0.05-0.74-0.2c-0.15-0.15-0.22-0.34-0.22-0.55
				v-1.83c0-0.21-0.01-0.38-0.03-0.51c-0.02-0.13-0.07-0.24-0.16-0.33s-0.21-0.16-0.38-0.22c-0.17-0.06-0.4-0.13-0.7-0.2l0.26-0.52
				c0.14,0.02,0.33,0.04,0.55,0.06c0.22,0.02,0.45,0.05,0.69,0.08c0.24,0.03,0.46,0.06,0.69,0.09c0.22,0.03,0.4,0.05,0.55,0.07
				c-0.01,0.13-0.02,0.3-0.04,0.53c-0.02,0.23-0.03,0.43-0.03,0.61v1.71c0,0.18,0.03,0.3,0.09,0.34c0.06,0.04,0.18,0.07,0.38,0.08
				c0.37,0.01,0.8,0,1.31-0.02c0.51-0.02,1.04-0.06,1.6-0.1c0.55-0.04,1.1-0.09,1.64-0.15c0.54-0.06,1.02-0.12,1.43-0.17
				L324.03,374.44z M321.83,364.77c-0.54,0.02-1.07,0.06-1.59,0.12c-0.52,0.06-0.93,0.13-1.24,0.2l-0.53-1.11
				c0.1,0.02,0.22,0.04,0.38,0.05c0.15,0.01,0.32,0.03,0.51,0.04c0.18,0.01,0.37,0.02,0.55,0.03c0.18,0,0.35,0.01,0.49,0.01
				c0.19-0.01,0.42-0.01,0.67-0.01c0.26,0,0.51,0,0.77-0.01v-1.29c0-0.3-0.14-0.54-0.43-0.73c-0.28-0.19-0.74-0.36-1.38-0.51
				l0.26-0.53c0.23,0.03,0.49,0.06,0.77,0.11c0.28,0.04,0.56,0.09,0.84,0.14c0.28,0.05,0.55,0.1,0.8,0.15
				c0.26,0.05,0.48,0.09,0.67,0.12c-0.02,0.09-0.04,0.19-0.06,0.32c-0.02,0.13-0.04,0.25-0.05,0.38c-0.01,0.13-0.03,0.25-0.04,0.35
				c-0.01,0.11-0.01,0.18-0.01,0.23v5.91c0,0.22-0.01,0.46-0.02,0.71c-0.01,0.25-0.03,0.5-0.06,0.76c-0.02,0.26-0.05,0.5-0.09,0.72
				c-0.03,0.23-0.07,0.42-0.09,0.59l-1,0.16c-0.02-0.12-0.03-0.27-0.04-0.48c-0.01-0.2-0.02-0.42-0.04-0.66
				c-0.01-0.24-0.02-0.47-0.03-0.71c0-0.24-0.01-0.44-0.01-0.61v-1.91c-0.27,0.02-0.54,0.04-0.81,0.06
				c-0.27,0.02-0.53,0.04-0.77,0.07c-0.25,0.03-0.47,0.06-0.69,0.09s-0.4,0.06-0.55,0.1l-0.53-1.1c0.1,0.02,0.22,0.04,0.38,0.05
				c0.15,0.01,0.32,0.03,0.51,0.04c0.18,0.01,0.37,0.02,0.55,0.03c0.18,0,0.35,0.01,0.49,0.01c0.19-0.01,0.41-0.01,0.66-0.01
				s0.51,0,0.77-0.01V364.77z"/>
			<path style="fill:#FFFFFF;" d="M333.4,371.32c0,0.25-0.01,0.52-0.01,0.81s-0.02,0.58-0.04,0.87c-0.02,0.29-0.04,0.57-0.07,0.83
				c-0.03,0.26-0.06,0.5-0.1,0.7l-1.01,0.16c-0.02-0.16-0.04-0.37-0.05-0.61s-0.03-0.5-0.04-0.77c-0.01-0.26-0.02-0.53-0.02-0.79
				c0-0.26-0.01-0.5-0.01-0.72v-2.17c-0.28,0.03-0.55,0.06-0.82,0.08s-0.52,0.05-0.77,0.06c-0.11,0.01-0.25,0.02-0.44,0.04
				c-0.19,0.02-0.39,0.04-0.61,0.06s-0.43,0.05-0.65,0.08c-0.22,0.03-0.41,0.06-0.57,0.09l-0.71-1.29c0.15,0.03,0.33,0.05,0.53,0.07
				c0.2,0.02,0.41,0.04,0.63,0.06c0.22,0.02,0.43,0.03,0.63,0.04s0.39,0.01,0.55,0.01c0.66-0.01,1.35-0.04,2.04-0.09
				c0.7-0.05,1.39-0.12,2.07-0.2s1.34-0.18,1.98-0.28s1.24-0.22,1.78-0.33v-5.23c0-0.3-0.14-0.54-0.43-0.73
				c-0.28-0.19-0.74-0.36-1.38-0.51l0.25-0.53c0.23,0.03,0.49,0.06,0.77,0.11c0.28,0.04,0.56,0.09,0.84,0.14
				c0.28,0.05,0.55,0.1,0.8,0.15c0.26,0.05,0.47,0.09,0.66,0.12c-0.02,0.09-0.04,0.19-0.05,0.32c-0.01,0.13-0.03,0.25-0.04,0.38
				c-0.01,0.13-0.03,0.25-0.04,0.35c-0.01,0.11-0.01,0.18-0.01,0.23v8.01c0,0.3-0.01,0.64-0.02,1.03s-0.03,0.78-0.06,1.17
				c-0.02,0.39-0.05,0.76-0.08,1.11c-0.03,0.35-0.06,0.63-0.1,0.85l-1,0.13c-0.01-0.15-0.02-0.36-0.04-0.62s-0.03-0.54-0.04-0.83
				c-0.01-0.29-0.02-0.6-0.02-0.91s-0.01-0.61-0.01-0.89v-3.21c-0.68,0.16-1.39,0.31-2.12,0.45s-1.45,0.26-2.17,0.36V371.32z
				 M333.11,362.56c0.39,0.06,0.74,0.16,1.06,0.31s0.6,0.34,0.83,0.56c0.23,0.23,0.41,0.48,0.54,0.76c0.13,0.28,0.2,0.57,0.2,0.88
				c0,0.38-0.08,0.72-0.25,1.04c-0.17,0.32-0.4,0.59-0.69,0.82c-0.29,0.23-0.64,0.41-1.04,0.54c-0.4,0.13-0.83,0.2-1.29,0.2
				c-0.47,0-0.91-0.07-1.31-0.2c-0.4-0.13-0.74-0.31-1.03-0.54c-0.29-0.23-0.51-0.51-0.67-0.82s-0.24-0.66-0.24-1.04
				c0-0.33,0.07-0.64,0.21-0.92s0.33-0.55,0.59-0.77c0.25-0.23,0.55-0.41,0.9-0.56c0.35-0.15,0.73-0.24,1.14-0.27
				c-0.03-0.22-0.21-0.38-0.55-0.48l0.2-0.43c0.11,0.02,0.23,0.04,0.37,0.06s0.28,0.05,0.43,0.08c0.15,0.03,0.3,0.06,0.44,0.09
				c0.14,0.03,0.27,0.06,0.39,0.09c-0.05,0.11-0.09,0.21-0.13,0.31C333.16,362.36,333.13,362.46,333.11,362.56z M334.34,365.04
				c0-0.26-0.05-0.5-0.15-0.73c-0.1-0.23-0.24-0.42-0.4-0.59c-0.17-0.17-0.36-0.3-0.59-0.4c-0.22-0.1-0.46-0.15-0.71-0.15
				c-0.24,0-0.47,0.05-0.69,0.15c-0.22,0.1-0.42,0.24-0.59,0.4c-0.17,0.17-0.3,0.37-0.4,0.59c-0.1,0.23-0.15,0.47-0.15,0.73
				c0,0.28,0.05,0.53,0.15,0.75c0.1,0.22,0.23,0.41,0.4,0.57c0.16,0.16,0.36,0.28,0.58,0.37s0.46,0.13,0.71,0.13
				c0.26,0,0.5-0.04,0.73-0.13c0.23-0.09,0.42-0.21,0.59-0.37c0.16-0.16,0.29-0.35,0.39-0.57
				C334.29,365.57,334.34,365.32,334.34,365.04z"/>
			<path style="fill:#FFFFFF;" d="M351.23,371.69c0.14-0.59,0.28-1.23,0.4-1.94c0.13-0.7,0.24-1.42,0.35-2.14
				c-0.42,0.06-0.86,0.12-1.31,0.18c-0.45,0.06-0.88,0.12-1.31,0.17s-0.82,0.09-1.19,0.13s-0.69,0.07-0.95,0.09
				c-0.14,0.01-0.32,0.02-0.53,0.04c-0.21,0.02-0.43,0.04-0.66,0.07s-0.46,0.06-0.7,0.08c-0.24,0.02-0.45,0.05-0.63,0.08l-0.62-1.17
				c0.18,0.02,0.39,0.04,0.61,0.06s0.44,0.04,0.66,0.06c0.22,0.01,0.43,0.03,0.64,0.04c0.2,0.01,0.38,0.01,0.52,0
				c0.38-0.01,0.79-0.03,1.24-0.05c0.45-0.02,0.92-0.06,1.42-0.1c0.49-0.04,0.98-0.09,1.48-0.14c0.5-0.05,0.97-0.11,1.42-0.17
				c0.09-0.61,0.15-1.19,0.2-1.73c0.05-0.55,0.08-1.04,0.1-1.46c-0.36,0-0.76,0-1.2,0.01s-0.89,0.01-1.33,0.03
				c-0.44,0.01-0.87,0.03-1.28,0.04c-0.41,0.01-0.76,0.03-1.05,0.05c-0.14,0.01-0.32,0.02-0.53,0.04c-0.21,0.01-0.43,0.03-0.66,0.05
				c-0.23,0.02-0.46,0.05-0.7,0.08s-0.45,0.07-0.64,0.11l-0.62-1.23c0.18,0.02,0.39,0.04,0.61,0.07c0.22,0.03,0.44,0.05,0.66,0.07
				c0.22,0.02,0.43,0.04,0.63,0.05c0.2,0.01,0.38,0.02,0.53,0.02c0.52,0,1.09-0.01,1.71-0.02c0.62-0.01,1.24-0.04,1.87-0.06
				c0.63-0.03,1.23-0.07,1.81-0.12c0.58-0.05,1.09-0.11,1.52-0.17l0.38,0.38c-0.09,0.64-0.19,1.32-0.32,2.05
				c-0.13,0.73-0.27,1.47-0.42,2.22s-0.33,1.48-0.52,2.2c-0.19,0.72-0.4,1.39-0.61,2c0.65-0.03,1.3-0.07,1.97-0.14
				c0.66-0.06,1.26-0.13,1.78-0.21l-0.17,1.17c-0.39-0.02-0.89-0.03-1.5-0.04c-0.62-0.01-1.25-0.02-1.89-0.03
				c-0.27,0-0.6,0-0.98,0.01c-0.39,0.01-0.8,0.02-1.25,0.04c-0.45,0.02-0.91,0.03-1.37,0.05c-0.47,0.01-0.91,0.03-1.34,0.04
				c-0.42,0.01-0.81,0.03-1.15,0.05c-0.34,0.02-0.61,0.03-0.8,0.04c-0.37,0.02-0.76,0.05-1.17,0.08c-0.41,0.03-0.8,0.07-1.16,0.12
				l-0.46-1.26c0.43,0.05,0.89,0.09,1.38,0.12c0.49,0.03,0.95,0.06,1.39,0.08c0.29,0.01,0.67,0.01,1.14,0.01
				c0.47,0,0.98-0.01,1.51-0.02c0.53-0.01,1.07-0.02,1.62-0.04C350.31,371.71,350.8,371.7,351.23,371.69z"/>
			<path style="fill:#FFFFFF;" d="M360.53,372c0.28,0,0.52,0.1,0.72,0.3c0.2,0.2,0.3,0.43,0.3,0.7c0,0.28-0.1,0.52-0.3,0.72
				c-0.2,0.2-0.44,0.3-0.72,0.3c-0.27,0-0.5-0.1-0.7-0.3c-0.2-0.2-0.3-0.44-0.3-0.72c0-0.27,0.1-0.5,0.3-0.7
				C360.03,372.09,360.26,372,360.53,372z M359.9,366.36c-0.07-0.48-0.14-0.96-0.2-1.42s-0.1-0.98-0.1-1.52
				c0-0.18,0.01-0.36,0.04-0.53c0.03-0.17,0.08-0.32,0.15-0.46c0.07-0.13,0.17-0.24,0.28-0.33c0.12-0.08,0.26-0.12,0.43-0.12
				c0.19,0,0.35,0.04,0.47,0.12c0.12,0.08,0.22,0.19,0.29,0.33c0.07,0.14,0.12,0.29,0.15,0.47c0.03,0.18,0.04,0.36,0.04,0.54
				c0,0.53-0.03,1.02-0.09,1.48c-0.06,0.46-0.11,0.93-0.16,1.41c-0.05,0.41-0.09,0.85-0.12,1.29c-0.03,0.45-0.06,0.88-0.08,1.29
				c-0.02,0.41-0.04,0.79-0.05,1.14c-0.01,0.35-0.01,0.63-0.01,0.85h-0.78c0-0.21,0-0.49-0.01-0.84c0-0.35-0.02-0.73-0.04-1.14
				c-0.02-0.41-0.05-0.84-0.09-1.29C360,367.19,359.95,366.76,359.9,366.36z"/>
		</g>
	</g>
</g>
<g>
	<rect x="58.03" y="469.15" style="fill:#FFFFFF;" width="64.31" height="29.85"/>
	<rect x="58.03" y="463.94" width="64.31" height="5.21"/>
	<g>
		<rect x="62.46" y="471.45" width="1.4" height="24.98"/>
		<rect x="73.64" y="471.45" width="1.41" height="24.98"/>
		<rect x="90.49" y="471.45" width="1.4" height="24.98"/>
		<rect x="109.76" y="471.45" width="1.4" height="24.98"/>
		<rect x="68.98" y="471.45" width="0.7" height="24.98"/>
		<rect x="95.31" y="471.45" width="0.7" height="24.98"/>
		<rect x="71.08" y="471.45" width="0.7" height="24.98"/>
		<rect x="93.45" y="471.45" width="0.7" height="24.98"/>
		<rect x="88.32" y="471.45" width="0.7" height="24.98"/>
		<rect x="112.79" y="471.45" width="0.7" height="24.98"/>
		<rect x="107.9" y="471.45" width="0.7" height="24.98"/>
		<rect x="106.03" y="471.45" width="0.7" height="24.98"/>
		<rect x="81" y="471.45" width="0.7" height="24.98"/>
		<rect x="65.26" y="471.45" width="2.45" height="24.98"/>
		<rect x="104.29" y="471.45" width="0.7" height="24.98"/>
		<rect x="97.52" y="471.45" width="2.45" height="24.98"/>
		<rect x="115.59" y="471.45" width="2.45" height="24.98"/>
		<rect x="84.13" y="471.45" width="2.45" height="24.98"/>
		<rect x="76.44" y="471.45" width="2.45" height="24.98"/>
	</g>
</g>
<g>
	<g>
		<rect x="495.93" y="28.14" style="fill:#FFFFFF;" width="364.59" height="483.73"/>
	</g>
	<g>
		<g>
			<polygon style="fill:#C3B8B0;" points="492.93,28.14 492.93,511.87 489.93,511.23 475.11,508.09 475.11,37.29 489.93,29.68 			
				"/>
		</g>
		<g>
			<path d="M839.48,53.47h-324c-0.83,0-1.5-0.67-1.5-1.5s0.67-1.5,1.5-1.5h324c0.83,0,1.5,0.67,1.5,1.5S840.31,53.47,839.48,53.47z"
				/>
		</g>
		<g>
			<rect x="865.02" y="29.64" style="fill:#FFFFFF;" width="94.98" height="480.73"/>
			<path d="M960,510.37h-94.98V29.64H960v-3h-95.38c-0.52-0.9-1.49-1.5-2.6-1.5H492.93c-0.25,0-0.49,0.03-0.73,0.09
				c-0.11,0.03-0.21,0.06-0.31,0.1c-0.11,0.04-0.22,0.08-0.33,0.14l-0.07,0.04l-17.76,9.12c-1,0.51-1.62,1.54-1.62,2.66v470.8
				c0,1.42,0.99,2.64,2.37,2.93l17.73,3.76l0.1,0.02c0.1,0.03,0.2,0.04,0.31,0.05c0.1,0.02,0.2,0.02,0.31,0.02h369.09
				c1.11,0,2.08-0.61,2.6-1.5H960c0.82,0,1.5-0.67,1.5-1.5C961.5,511.04,960.82,510.37,960,510.37z M479.5,509.02l-4.39-0.93V37.29
				l4.39-2.25V509.02z M492.93,511.87l-3-0.64l-9.43-2V34.78c0-0.08-0.02-0.16-0.06-0.23l8.08-4.15v479.09c0,0.27,0.22,0.5,0.5,0.5
				c0.27,0,0.5-0.23,0.5-0.5V29.89l0.41-0.21l3-1.54V511.87z M860.52,511.87H495.93V28.14h364.59V511.87z"/>
		</g>
		<g>
			<path d="M960,50.55v2.84c-0.15,0.05-0.31,0.08-0.47,0.08h-74.97c-0.83,0-1.5-0.67-1.5-1.5c0-0.82,0.67-1.5,1.5-1.5h74.97
				C959.69,50.47,959.85,50.5,960,50.55z"/>
		</g>
	</g>
</g>
<g>
	<path d="M514.2,496.02c0.25-0.27,0.52-0.57,0.81-0.91s0.57-0.69,0.84-1.03s0.53-0.66,0.76-0.96s0.42-0.54,0.56-0.71
		c0.13-0.17,0.26-0.36,0.39-0.57s0.25-0.43,0.35-0.65s0.19-0.45,0.26-0.67s0.1-0.44,0.1-0.64c0-0.18-0.03-0.37-0.09-0.58
		s-0.15-0.4-0.28-0.57s-0.29-0.32-0.5-0.43s-0.45-0.17-0.75-0.17c-0.23,0-0.44,0.05-0.64,0.15s-0.39,0.24-0.56,0.42
		s-0.31,0.38-0.43,0.63s-0.21,0.5-0.26,0.77l-0.55-0.11c0.06-0.34,0.16-0.66,0.3-0.97s0.31-0.58,0.53-0.81s0.48-0.42,0.79-0.56
		s0.66-0.21,1.05-0.21c0.35,0,0.68,0.06,0.97,0.18s0.55,0.29,0.76,0.5s0.38,0.47,0.5,0.76s0.18,0.61,0.18,0.94
		c0,0.26-0.04,0.52-0.11,0.77s-0.17,0.51-0.29,0.76s-0.25,0.48-0.39,0.69s-0.28,0.41-0.41,0.58c-0.2,0.27-0.4,0.53-0.59,0.78
		s-0.38,0.49-0.57,0.73s-0.39,0.48-0.59,0.73s-0.42,0.51-0.66,0.78h2.33c0.19,0,0.34-0.01,0.46-0.02s0.22-0.04,0.3-0.09
		s0.17-0.13,0.24-0.24s0.16-0.26,0.26-0.46h0.48l-0.61,1.56h-4.97V496.02z"/>
	<path d="M523.98,487.24v7.79c0,0.21,0.03,0.37,0.08,0.49s0.13,0.2,0.24,0.26s0.24,0.1,0.4,0.11s0.35,0.03,0.56,0.04v0.46h-3.6
		v-0.47c0.18-0.01,0.35-0.02,0.5-0.03s0.29-0.05,0.4-0.11s0.2-0.15,0.27-0.26s0.1-0.29,0.1-0.5v-5.71c0-0.2-0.01-0.34-0.03-0.45
		s-0.07-0.16-0.16-0.18s-0.23,0.01-0.41,0.08s-0.44,0.17-0.77,0.3v-0.52L523.98,487.24z"/>
</g>
</svg>
