<?xml version="1.0" encoding="utf-8"?>
<!-- Generator: Adobe Illustrator 26.5.0, SVG Export Plug-In . SVG Version: 6.00 Build 0)  -->
<svg version="1.1" id="레이어_5" xmlns="http://www.w3.org/2000/svg" xmlns:xlink="http://www.w3.org/1999/xlink" x="0px"
	 y="0px" viewBox="0 0 390 390" style="enable-background:new 0 0 390 390;" xml:space="preserve">
<g>
	<g>
		<path style="fill:#ECECEC;" d="M318,297.3L318,297.3L318,297.3c8.5-9.2-8-33.2-18.5-46.5c-7.6-9.7-17.3-18-28.2-23.5
			c-10.7-5.4-22.3-8.1-28.7-1.2"/>
		<path d="M319.2,298.5l-2.4-2.4c5.5-6.1-1.2-22.1-18.5-44.1c-7.8-10-17.5-18-27.7-23c-7.3-3.6-20.2-8.5-26.6-1.7l-2.4-2.4
			c7.4-8.1,20.9-4,30.6,0.9c10.7,5.4,20.7,13.7,28.9,24C314.2,266.7,328,288.9,319.2,298.5z"/>
	</g>
	<g>
		<path style="fill:#009CCD;" d="M245.9,255c-5.9-10.4-9.5-22.1-3.3-28.9l75.4,71.2l0,0c-8.5,9.2-33.4-5.9-47-15.4
			C260.8,274.9,251.8,265.7,245.9,255z"/>
		<path style="fill:#006989;" d="M310.2,302c-11.1,0-27.1-9.3-40.5-18.7c-10.7-7.4-19.5-16.9-25.6-27.5l0,0
			c-5.5-9.7-10.5-22.8-2.9-30.9l1.2-1.2l77.8,73.6l-1.2,1.2C317,301,313.9,302,310.2,302z M247.3,254.1c5.7,10,14.2,19.2,24.5,26.3
			c21.3,14.9,36.8,20.9,43.4,16.8l-72.6-68.6C238.3,235.8,243.5,247.6,247.3,254.1L247.3,254.1z"/>
	</g>
	<path d="M310.2,302c-11.1,0-27.1-9.3-40.5-18.7c-10.7-7.4-19.5-16.9-25.6-27.5l0,0c-5.5-9.7-10.5-22.8-2.9-30.9
		c7.4-8.1,20.9-4,30.6,0.9c10.7,5.4,20.7,13.7,28.9,24c13.3,16.9,27.1,39.1,18.3,48.7C317,301,313.9,302,310.2,302z M247.3,254.1
		c5.7,10,14.2,19.2,24.5,26.3c23,15.9,39.2,21.8,44.8,15.7c5.5-6.1-1.2-22.1-18.5-44.1c-7.8-10-17.5-18-27.7-23
		c-7.3-3.6-20.2-8.5-26.6-1.7C237.6,234.2,243.3,247.2,247.3,254.1L247.3,254.1z"/>
</g>
<g>
	<path style="fill:#FF75CA;" d="M319,279.5c-2.4-1.7-5.4-3.1-8.5-2.9c-2.8,0.2-5.2,1.7-7.3,3.5c-6.2,5.7-8.1,14.5-10.4,22.6
		c-2.1,7.4-4.8,14.7-8.1,21.6c-1,2.4-2.2,4.8-2.4,7.4c0,5.2,5.7,9.7,10.7,8.3c4.3-1.2,8.3-6.2,12.1-1.4c1,1.4,1.9,3.1,3.3,4.1
		c6.1,5.4,14.5,0.2,20.7-0.7c2.2-0.3,4.5,0.9,6.6,0.3c3.6-0.9,4.7-5.5,4.1-9.3c-0.7-5.4-3.3-10.4-4.7-15.7
		C332,303.7,332,288.7,319,279.5z"/>
	<path d="M315.2,347c-2.8,0-5.4-0.7-7.8-2.8c-1-0.9-1.7-1.9-2.4-2.9c-0.3-0.5-0.7-1-1-1.4c-1.7-2.1-2.9-1.6-6.2,0.2
		c-1.2,0.7-2.6,1.4-4,1.9c-2.9,0.9-6.2,0-8.8-1.9c-2.6-2.1-4.1-5-4.1-8.1c0-2.9,1.2-5.5,2.4-7.8l0.2-0.3c3.3-6.9,5.9-14,8-21.3
		l0.7-2.6c2.1-7.6,4.3-15.4,10.2-20.7c2.6-2.4,5.4-3.8,8.3-4c3.1-0.2,6.2,0.9,9.5,3.1l0,0c10.7,7.6,13,19,15.2,30.1
		c0.7,2.9,1.2,6.1,1.9,9c0.5,2.1,1.2,4,1.9,6.1c1,3.1,2.2,6.4,2.8,9.9c0.7,4.8-1,10.2-5.5,11.2c-1.6,0.3-2.9,0.2-4.3,0
		c-0.9-0.2-1.9-0.3-2.6-0.2c-1.6,0.2-3.3,0.7-5.2,1.2C321.5,346.1,318.4,347,315.2,347z M301.8,334.9c1.7,0,3.3,0.7,5,2.8
		c0.3,0.5,0.9,1,1.2,1.7c0.7,0.9,1.2,1.7,1.9,2.2c3.8,3.3,8.8,1.7,13.7,0.3c2.1-0.7,4-1.2,5.9-1.4c1.2-0.2,2.4,0,3.6,0.2
		c1,0.2,2.1,0.3,2.9,0.2c2.4-0.7,3.3-4.3,2.9-7.4s-1.4-6.1-2.6-9.2c-0.7-2.1-1.4-4.1-2.1-6.2c-0.9-2.9-1.4-6.1-2.1-9.2
		c-2.2-10.9-4.1-21.1-13.7-27.8l0,0c-2.6-1.9-5.2-2.8-7.4-2.6c-2.6,0.2-4.8,1.7-6.2,3.1c-5.2,4.7-7.1,12.1-9.2,19.2l-0.7,2.8
		c-2.1,7.4-4.8,14.9-8.3,21.8l-0.2,0.3c-1,2.2-2.1,4.3-2.1,6.4c0,1.9,1,4,2.8,5.2c1.7,1.4,4,1.9,5.7,1.4c1-0.3,2.1-0.9,3.3-1.6
		C297.6,336.1,299.7,334.9,301.8,334.9z"/>
</g>
<path d="M306.4,322.8L306.4,322.8c-1,0-1.7-0.9-1.7-1.9c0.5-7.1,0.9-14.2,0.9-21.3c0-1,0.7-1.7,1.7-1.7s1.7,0.9,1.7,1.7
	c-0.2,7.1-0.3,14.3-0.9,21.4C308.2,322.1,307.3,322.8,306.4,322.8z"/>
<path d="M322.5,323.4c-1,0-1.7-0.9-1.7-1.7c0-2.1-1-8-1.9-13.5c-1-6.1-1.9-11.8-1.9-14c0-1,0.9-1.7,1.7-1.7c1,0,1.7,0.9,1.7,1.7
	c0,2.1,1,8,1.9,13.5c1,6.1,1.9,11.8,1.9,14C324.2,322.8,323.4,323.4,322.5,323.4z"/>
<g>
	<g>
		<path style="fill:#ECECEC;" d="M71.5,297.3L71.5,297.3L71.5,297.3c-8.5-9.2,8-33.2,18.5-46.5c7.6-9.7,17.3-18,28.2-23.5
			c10.7-5.4,22.3-8.1,28.7-1.2"/>
		<path d="M70.3,298.5c-9-9.7,5-31.8,18.3-48.7c8.1-10.4,18.2-18.7,28.9-24c9.9-4.8,23.2-9,30.6-0.9l-2.4,2.4
			c-6.4-6.9-19.5-1.9-26.6,1.7c-10.2,5.2-19.9,13-27.7,23c-17.3,22-24,38-18.5,44.1L70.3,298.5z"/>
	</g>
	<g>
		<path style="fill:#009CCD;" d="M143.6,255c5.9-10.4,9.5-22.1,3.3-28.9l-75.4,71.2l0,0c8.5,9.2,33.4-5.9,47-15.4
			C128.7,274.9,137.5,265.7,143.6,255z"/>
		<path style="fill:#006989;" d="M79.1,302c-3.6,0-6.7-1-9-3.5l-1.2-1.2l1.2-1.2l76.6-72.4l1.2,1.2c7.4,8.1,2.4,21.3-2.9,30.9l0,0
			c-6.1,10.5-14.9,19.9-25.6,27.5C106.4,292.7,90.2,302,79.1,302z M74.1,297.3c6.6,4,22.1-1.9,43.4-16.8
			c10.4-7.3,18.8-16.4,24.5-26.3l0,0c3.8-6.6,9.2-18.3,4.5-25.4L74.1,297.3z"/>
	</g>
	<path d="M79.1,302c-3.6,0-6.7-1-9-3.5c-9-9.7,5-31.8,18.3-48.7c8.1-10.4,18.2-18.7,28.9-24c9.9-4.8,23.2-9,30.6-0.9
		c7.4,8.1,2.4,21.3-2.9,30.9l0,0c-6.1,10.5-14.9,19.9-25.6,27.5C106.4,292.7,90.2,302,79.1,302z M136.5,223.9
		c-6.1,0-13.1,2.9-17.6,5.2c-10.2,5.2-19.9,13-27.7,23c-17.3,22-24,38-18.5,44.1c5.5,6.1,22,0.3,44.8-15.7
		c10.4-7.3,18.8-16.4,24.5-26.3l0,0c4-7.1,9.9-19.9,3.5-26.8C143.2,224.9,140,223.9,136.5,223.9z"/>
</g>
<g>
	<path style="fill:#4A4A4A;" d="M140,335.5l2.6,31.6c0,6.4,23.3,16.2,52.2,16.2s52.2-9.9,52.2-16.2l2.6-31.6H140z"/>
	<path d="M194.8,385.2c-26.8,0-53.9-9.2-53.9-18l-2.8-33.4h113.2l-2.8,33.5C248.7,376,221.5,385.2,194.8,385.2z M141.9,337.3
		l2.4,29.7c0,4.3,20.1,14.7,50.5,14.7s50.5-10.4,50.5-14.5l2.4-29.9H141.9L141.9,337.3z"/>
</g>
<g>
	<path style="fill:#E7E7E7;" d="M133.4,336.4v0.2v0.2c0,11.4,19,27.1,61.4,27.1c44.8,0,61.4-16.6,61.4-27v-0.2v-0.2v-85.1
		c0-34.2-27.5-62.1-61.4-62.1s-61.4,27.8-61.4,62.1V336.4L133.4,336.4z"/>
	<path style="fill:#009CCD;" d="M256.5,251.7h-5.4c-15.9,0-30.4,9.3-37.2,23.9l0,0c-2.8,5.9-8.1,10-14.5,11.2l0,0
		c-3.1,0.5-6.4,0.5-9.5,0l0,0c-6.4-1-11.8-5.2-14.5-11.2l0,0c-6.7-14.5-21.3-23.9-37.2-23.9h-5.4c0,0-2.4-55.7,61.7-62.6
		C194.8,189.1,249,186.7,256.5,251.7z"/>
	<path style="fill:#006989;" d="M194.8,288.5c-1.7,0-3.3-0.2-5-0.3c-6.7-1.2-12.6-5.7-15.6-11.9c-6.6-14-20.6-23-35.8-23h-5.5v-2.9
		h5.4c16.4,0,31.5,9.7,38.4,24.7c2.6,5.4,7.6,9.3,13.5,10.4c2.9,0.5,6.1,0.5,9,0c5.9-1,10.9-4.8,13.5-10.4
		c7.1-14.9,22.1-24.7,38.4-24.7h5.4v2.9h-5.4c-15.2,0-29.4,9-35.8,23c-2.9,6.2-8.8,10.7-15.6,11.9
		C198,288.3,196.3,288.5,194.8,288.5z"/>
	<path d="M194.8,365.6c-25.8,0-46.7-6.1-57-16.6c-3.8-4-5.9-8.1-5.9-12.1v-85.6c0-35.1,28.2-63.6,62.8-63.6s62.8,28.5,62.8,63.6
		v85.6c0,6.7-5.4,13.8-14.5,18.8C234.9,360.3,220.2,365.6,194.8,365.6z M134.8,336.2v0.5c0,3.3,1.7,6.9,5,10.2
		c4.7,4.7,19.2,15.7,55,15.7c43.7,0,60-15.7,60-25.6v-0.5v-0.2v-85.1c0-33.4-27-60.7-60-60.7s-60,27.1-60,60.7L134.8,336.2
		L134.8,336.2z"/>
</g>
<g>
	<g>
		<path style="fill:#00FFFF;" d="M131.5,60L131.5,60c0-12.3-10-22.1-22.1-22.1v-6.7c12.6,0,22.8-10.2,22.8-22.8l0,0
			c0,12.6,10.2,22.8,22.8,22.8v5.5C142,36.7,131.5,47,131.5,60z"/>
		<path style="fill:#0096C5;" d="M132.2,8.3c0,14.3,8.6,25.8,22.8,25.8c-14.2,0-22.8,11.6-22.8,25.8c0-14.3-8.6-25.8-22.8-25.8
			C123.5,34.2,132.2,22.6,132.2,8.3 M132.2,4.8c-1.9,0-3.5,1.6-3.5,3.5c0,13.1-8,22.3-19.2,22.3c-1.9,0-3.5,1.6-3.5,3.5
			c0,1.9,1.6,3.5,3.5,3.5c11.4,0,19.2,9.2,19.2,22.3c0,1.9,1.6,3.5,3.5,3.5s3.5-1.6,3.5-3.5c0-13.1,8-22.3,19.2-22.3
			c1.9,0,3.5-1.6,3.5-3.5c0-1.9-1.6-3.5-3.5-3.5c-11.4,0-19.2-9.2-19.2-22.3C135.6,6.4,134.1,4.8,132.2,4.8L132.2,4.8z"/>
	</g>
	<g>
		<path style="fill:#00FFFF;" d="M70.5,228.5L70.5,228.5c0-10.5-8.5-19-19-19V204c10.2,0,18.5-8.3,18.5-18.5l0,0
			c0,10.7,8.6,19.5,19.5,19.5v4.7C79.1,209.5,70.5,218,70.5,228.5z"/>
		<path style="fill:#0096C5;" d="M70.5,185.5c0,11.9,7.3,21.6,19,21.6l0,0c-11.8,0-19,9.7-19,21.6c0-11.9-7.3-21.6-19-21.6l0,0
			C63.4,206.9,70.5,197.2,70.5,185.5 M70.5,182c-1.9,0-3.5,1.6-3.5,3.5c0,8.6-4.8,18-15.6,18c-1.9,0-3.5,1.6-3.5,3.5
			s1.6,3.5,3.5,3.5c10.5,0,15.6,9.3,15.6,18c0,1.9,1.6,3.5,3.5,3.5s3.5-1.6,3.5-3.5c0-8.6,4.8-18,15.6-18c1.9,0,3.5-1.6,3.5-3.5
			s-1.6-3.5-3.5-3.5c-10.5,0-15.6-9.3-15.6-18C74.1,183.6,72.5,182,70.5,182L70.5,182z"/>
	</g>
	<g>
		<path style="fill:#00FFFF;" d="M313.5,133.5L313.5,133.5c0-11.1-9-20.1-20.1-20.1v-6.6c11.1,0,20.1-9,20.1-20.1l0,0
			c0,11.6,9.5,21.1,21.1,21.1v4.5C322.9,112.4,313.5,121.7,313.5,133.5z"/>
		<path style="fill:#0096C5;" d="M314,86.8c0,12.8,7.8,23.3,20.6,23.3l0,0c-12.8,0-20.6,10.4-20.6,23.3c0-12.8-7.8-23.3-20.6-23.3
			l0,0C306.3,110.1,314,99.7,314,86.8 M314,83.3c-1.9,0-3.5,1.6-3.5,3.5c0,11.6-7.1,19.9-17.1,19.9c-1.9,0-3.5,1.6-3.5,3.5
			c0,1.9,1.6,3.5,3.5,3.5c10,0,17.1,8.1,17.1,19.9c0,1.9,1.6,3.5,3.5,3.5s3.5-1.6,3.5-3.5c0-11.6,7.1-19.9,17.1-19.9
			c1.9,0,3.5-1.6,3.5-3.5c0-1.9-1.6-3.5-3.5-3.5c-10,0-17.1-8.1-17.1-19.9C317.5,84.9,315.9,83.3,314,83.3L314,83.3z"/>
	</g>
	<g>
		<ellipse style="fill:#00FFFF;" cx="93.1" cy="72.1" rx="5.7" ry="5.7"/>
		<path style="fill:#0096C5;" d="M93.1,79.7c-4.1,0-7.4-3.3-7.4-7.4c0-4.1,3.3-7.4,7.4-7.4s7.4,3.3,7.4,7.4
			C100.5,76.4,97.3,79.7,93.1,79.7z M93.1,68.3c-2.2,0-4,1.7-4,4c0,2.2,1.7,4,4,4c2.2,0,4-1.7,4-4C97.1,70,95.4,68.3,93.1,68.3z"/>
	</g>
	<g>
		<ellipse style="fill:#00FFFF;" cx="56.5" cy="152.5" rx="6.6" ry="6.7"/>
		<path style="fill:#0096C5;" d="M56.5,160.9c-4.7,0-8.3-3.8-8.3-8.5s3.8-8.5,8.3-8.5s8.3,3.8,8.3,8.5
			C64.8,157.1,61,160.9,56.5,160.9z M56.5,147.6c-2.8,0-4.8,2.2-4.8,5s2.2,5,4.8,5s4.8-2.2,4.8-5C61.3,149.9,59.2,147.6,56.5,147.6z
			"/>
	</g>
	<g>
		<ellipse style="fill:#00FFFF;" cx="173.1" cy="27" rx="6.6" ry="6.7"/>
		<path style="fill:#0096C5;" d="M173.1,35.4c-4.7,0-8.3-3.8-8.3-8.5s3.8-8.5,8.3-8.5c4.7,0,8.3,3.8,8.3,8.5S177.6,35.4,173.1,35.4z
			 M173.1,22.1c-2.8,0-4.8,2.2-4.8,5s2.2,5,4.8,5s4.8-2.2,4.8-5C178,24.4,175.7,22.1,173.1,22.1z"/>
	</g>
	<g>
		<ellipse style="fill:#00FFFF;" cx="301.1" cy="206.9" rx="8.6" ry="8.8"/>
		<path style="fill:#0096C5;" d="M301.1,217.5c-5.7,0-10.4-4.8-10.4-10.5c0-5.7,4.7-10.5,10.4-10.5s10.4,4.8,10.4,10.5
			C311.4,212.6,306.8,217.5,301.1,217.5z M301.1,199.8c-3.8,0-6.9,3.1-6.9,7.1s3.1,7.1,6.9,7.1s6.9-3.1,6.9-7.1
			C308,203.1,304.9,199.8,301.1,199.8z"/>
	</g>
	<g>
		<ellipse style="fill:#00FFFF;" cx="289" cy="71.1" rx="3.8" ry="3.8"/>
		<path style="fill:#0096C5;" d="M289,76.8c-2.9,0-5.4-2.4-5.4-5.5c0-3.1,2.4-5.5,5.4-5.5s5.4,2.4,5.4,5.5
			C294.3,74.2,291.9,76.8,289,76.8z M289,69.2c-1,0-2.1,0.9-2.1,2.1c0,1,0.9,2.1,2.1,2.1c1.2,0,1.9-0.9,1.9-2.1
			C290.9,70,290,69.2,289,69.2z"/>
	</g>
	<g>
		<ellipse style="fill:#00FFFF;" cx="193.4" cy="33.7" rx="3.8" ry="3.8"/>
		<path style="fill:#0096C5;" d="M193.4,39.2c-2.9,0-5.4-2.4-5.4-5.5c0-3.1,2.4-5.5,5.4-5.5s5.4,2.4,5.4,5.5
			C198.7,36.8,196.3,39.2,193.4,39.2z M193.4,31.8c-1,0-2.1,0.9-2.1,2.1c0,1,0.9,2.1,2.1,2.1s1.9-0.9,1.9-2.1
			C195.3,32.7,194.4,31.8,193.4,31.8z"/>
	</g>
	<g>
		<g>
			<line style="fill:none;" x1="244" y1="18" x2="244" y2="22.6"/>
			<path style="fill:#00FFFF;" d="M244,24.4c-1,0-1.7-0.9-1.7-1.7V18c0-1,0.9-1.7,1.7-1.7c1,0,1.7,0.9,1.7,1.7v4.7
				C245.8,23.5,244.9,24.4,244,24.4z"/>
		</g>
		<g>
			<line style="fill:none;" x1="244" y1="37.2" x2="244" y2="32.5"/>
			<path style="fill:#00FFFF;" d="M244,39.1c-1,0-1.7-0.9-1.7-1.7v-4.7c0-1,0.9-1.7,1.7-1.7c1,0,1.7,0.9,1.7,1.7v4.7
				C245.8,38.2,244.9,39.1,244,39.1z"/>
		</g>
		<g>
			<line style="fill:none;" x1="234.5" y1="27.7" x2="239" y2="27.7"/>
			<path style="fill:#00FFFF;" d="M239,29.4h-4.7c-1,0-1.7-0.9-1.7-1.7c0-0.9,0.9-1.7,1.7-1.7h4.7c1,0,1.7,0.9,1.7,1.7
				C240.7,28.5,240,29.4,239,29.4z"/>
		</g>
		<g>
			<line style="fill:none;" x1="253.5" y1="27.7" x2="248.9" y2="27.7"/>
			<path style="fill:#00FFFF;" d="M253.5,29.4h-4.7c-1,0-1.7-0.9-1.7-1.7c0-0.9,0.9-1.7,1.7-1.7h4.7c1,0,1.7,0.9,1.7,1.7
				C255.3,28.5,254.4,29.4,253.5,29.4z"/>
		</g>
	</g>
	<g>
		<g>
			<line style="fill:none;" x1="324.4" y1="168.2" x2="324.4" y2="172.9"/>
			<path style="fill:#00FFFF;" d="M324.4,174.6c-1,0-1.7-0.9-1.7-1.7v-4.7c0-1,0.9-1.7,1.7-1.7s1.7,0.9,1.7,1.7v4.7
				C326.1,173.7,325.4,174.6,324.4,174.6z"/>
		</g>
		<g>
			<line style="fill:none;" x1="324.4" y1="187.4" x2="324.4" y2="182.7"/>
			<path style="fill:#00FFFF;" d="M324.4,189.1c-1,0-1.7-0.9-1.7-1.7v-4.7c0-1,0.9-1.7,1.7-1.7s1.7,0.9,1.7,1.7v4.7
				C326.1,188.4,325.4,189.1,324.4,189.1z"/>
		</g>
		<g>
			<line style="fill:none;" x1="314.9" y1="177.9" x2="319.6" y2="177.9"/>
			<path style="fill:#00FFFF;" d="M319.6,179.4h-4.7c-1,0-1.7-0.9-1.7-1.7c0-1,0.9-1.7,1.7-1.7h4.7c1,0,1.7,0.9,1.7,1.7
				C321.3,178.8,320.4,179.4,319.6,179.4z"/>
		</g>
		<g>
			<line style="fill:none;" x1="333.9" y1="177.9" x2="329.4" y2="177.9"/>
			<path style="fill:#00FFFF;" d="M333.9,179.4h-4.7c-1,0-1.7-0.9-1.7-1.7c0-1,0.9-1.7,1.7-1.7h4.7c1,0,1.7,0.9,1.7,1.7
				C335.6,178.8,335,179.4,333.9,179.4z"/>
		</g>
	</g>
	<g>
		<line style="fill:none;" x1="68" y1="90.4" x2="68" y2="95.1"/>
		<path style="fill:#00FFFF;" d="M68,96.8c-1,0-1.7-0.9-1.7-1.7v-4.7c0-1,0.9-1.7,1.7-1.7c1,0,1.7,0.9,1.7,1.7v4.7
			C69.8,96.1,68.9,96.8,68,96.8z"/>
	</g>
	<g>
		<line style="fill:none;" x1="68" y1="109.8" x2="68" y2="105.1"/>
		<path style="fill:#00FFFF;" d="M68,111.5c-1,0-1.7-0.9-1.7-1.7v-4.7c0-1,0.9-1.7,1.7-1.7c1,0,1.7,0.9,1.7,1.7v4.7
			C69.8,110.6,68.9,111.5,68,111.5z"/>
	</g>
	<g>
		<line style="fill:none;" x1="58.5" y1="100.1" x2="63" y2="100.1"/>
		<path style="fill:#00FFFF;" d="M63,101.8h-4.5c-1,0-1.7-0.9-1.7-1.7s0.9-1.7,1.7-1.7h4.7c1,0,1.7,0.9,1.7,1.7S64.1,101.8,63,101.8
			z"/>
	</g>
	<g>
		<line style="fill:none;" x1="77.5" y1="100.1" x2="72.9" y2="100.1"/>
		<path style="fill:#00FFFF;" d="M77.5,101.8h-4.7c-1,0-1.7-0.9-1.7-1.7s0.9-1.7,1.7-1.7h4.7c1,0,1.7,0.9,1.7,1.7
			S78.4,101.8,77.5,101.8z"/>
	</g>
</g>
<g>
	<g>
		<path style="fill:#4A4A4A;" d="M275.3,129.5v65l18.8-6.4c6.2-2.1,10.4-8,10.4-14.7v-23c0-6.6-4.1-12.4-10.4-14.7L275.3,129.5z"/>
		<polygon style="fill:#737373;" points="275.3,148.8 275.3,165.4 304.5,163.5 304.5,155.9 		"/>
		<path d="M275.3,196c-0.3,0-0.7-0.2-0.9-0.3c-0.3-0.2-0.7-0.7-0.7-1.2v-65c0-0.5,0.2-0.9,0.7-1.2c0.3-0.3,0.9-0.3,1.2-0.2l18.8,6.4
			c6.9,2.2,11.4,8.6,11.4,15.9v23.2c0,7.3-4.5,13.7-11.4,15.9l-18.8,6.4C275.7,196,275.5,196,275.3,196z M276.7,131.6v61l16.9-5.7
			c5.7-1.9,9.5-7.3,9.5-13.3v-23c0-6.1-3.8-11.4-9.5-13.3L276.7,131.6z"/>
	</g>
	<g>
		<path style="fill:#4A4A4A;" d="M96,135.9c-6.2,2.1-10.4,8-10.4,14.7v23.2c0,6.6,4.1,12.4,10.4,14.7l18.8,6.4v-65.3L96,135.9z"/>
		<polygon style="fill:#737373;" points="85.7,155.9 85.7,163.5 114.9,165.4 114.9,148.8 		"/>
		<path d="M114.9,196c-0.2,0-0.3,0-0.3,0l-18.8-6.4c-6.9-2.2-11.4-8.6-11.4-15.9v-23.2c0-7.3,4.5-13.7,11.4-15.9l18.8-6.4
			c0.3-0.2,0.9,0,1.2,0.2s0.7,0.7,0.7,1.2v65c0,0.5-0.2,0.9-0.7,1.2C115.4,196,115.1,196,114.9,196z M96.4,137.3
			c-5.7,1.9-9.5,7.3-9.5,13.3v23.2c0,6.1,3.8,11.4,9.5,13.3l16.9,5.7v-61.2L96.4,137.3L96.4,137.3z M96,135.9L96,135.9L96,135.9z"/>
	</g>
	<g>
		<path style="fill:#009CCD;" d="M99.7,141.9c0-38.6,27.5-64.8,70.5-64.8h49.1c43,0,70.5,26.3,70.5,64.8"/>
		<path d="M291.6,141.9h-3.5c0-38.4-27-62.9-68.8-62.9h-49.1c-41.8,0-68.8,24.7-68.8,62.9h-3.5c0-39.8,29-66.6,72.3-66.6h49.1
			C262.5,75.5,291.6,102.2,291.6,141.9z"/>
	</g>
	<g>
		<path style="fill:#ECECEC;" d="M266.5,101.1c-15.2-28.9-46.8-43.2-71.7-43.2s-56.5,14.3-71.7,43.2c-7.6,14.5-12.1,43.7-12.3,62.1
			c-0.3,38.9,31.6,70.9,70.2,70.9h13.8l0,0h13.8c38.6,0,70.5-31.8,70.2-70.9C278.6,144.9,274.3,115.5,266.5,101.1z"/>
		<path d="M194.8,57.7c25.1,0,56.5,14.3,71.7,43.2c7.6,14.5,12.1,43.7,12.3,62.1c0.3,38.9-31.6,70.9-70.2,70.9h-13.8h-13.8
			c-38.6,0-70.5-31.8-70.2-70.9c0.2-18.3,4.7-47.7,12.3-62.1C138.2,72.1,169.7,57.7,194.8,57.7 M194.8,54.3
			c-24.7,0-58.6,14.2-74.9,45.1c-7.6,14.5-12.4,43.9-12.6,63.8c-0.2,19.5,7.3,37.9,20.9,52c14.2,14.3,32.7,22.3,52.6,22.3h13.8h13.8
			c19.9,0,38.6-8,52.6-22.3c13.8-14,21.3-32.5,20.9-52c-0.2-19.9-5-49.3-12.6-63.8C253.4,68.5,219.5,54.3,194.8,54.3L194.8,54.3z"/>
	</g>
	<path style="fill:#CBCBCB;" d="M179.9,234.1c-38.2,0-69.1-31.3-69.1-70s30.9-70,69.1-70h29.9c38.2,0,69.1,31.3,69.1,70
		s-30.9,70-69.1,70H179.9z"/>
	<g>
		<g>
			<path style="fill:#2A2C49;" d="M209.8,223.5h-29c-32.7,0-59.3-26.6-59.3-59.3l0,0c0-32.7,26.6-59.3,59.3-59.3h28.9
				c32.7,0,59.3,26.6,59.3,59.3l0,0C269.1,196.9,242.5,223.5,209.8,223.5z"/>
			<path d="M210.3,108.7c30.3,0,54.6,24.9,54.6,55.3l0,0c0,30.6-24.5,55.3-54.6,55.3h-31.1c-30.3,0-54.6-24.9-54.6-55.3l0,0
				c0-30.6,24.5-55.3,54.6-55.3H210.3 M210.3,105.1h-31.1c-32.2,0-58.3,26.4-58.3,58.9S147,223,179.2,223h31.1
				c32.2,0,58.3-26.4,58.3-58.9S242.5,105.1,210.3,105.1L210.3,105.1z"/>
		</g>
		<g>
			<g>
				<path style="fill:#00FFFF;" d="M168.5,187.9h-7.6c-6.4,0-11.6-5.2-11.6-11.6v-17.8c0-6.4,5.2-11.6,11.6-11.6h7.6
					c6.4,0,11.6,5.2,11.6,11.6v17.8C179.9,182.7,174.7,187.9,168.5,187.9z"/>
				<path style="fill:#0096C5;" d="M164.7,189.6c-9.3,0-17.1-7.8-17.1-17.3v-9.7c0-9.5,7.6-17.3,17.1-17.3c9.5,0,17.1,7.8,17.1,17.3
					v9.7C181.6,181.9,174,189.6,164.7,189.6z M164.7,148.8c-7.4,0-13.7,6.2-13.7,13.8v9.9c0,7.6,6.1,13.8,13.7,13.8
					c7.4,0,13.7-6.2,13.7-13.8v-9.7C178.2,155.1,172.1,148.8,164.7,148.8z"/>
			</g>
			<path style="fill:#FFFFFF;" d="M162.1,155.4c-0.9,0.3-1.4,1-1.9,1.7c-1.4,1.7-2.8,3.8-2.8,6.1c0,0.9,0.2,1.7,1,2.1
				c0.3,0.2,0.7,0.2,1,0.2c0.5,0,1,0,1.4-0.2c0.3-0.2,0.9-0.5,1.2-0.9c1-0.9,2.4-1.4,4-1.4c1,0,2.1,0.2,2.9-0.3
				c1.6-1,1.6-4.8,0.3-6.2C168,154.5,164,154.5,162.1,155.4z"/>
			<path style="fill:#FFFFFF;" d="M161,178.2c1,0.9,2.4,1.6,3.8,1.2c1.4-0.2,2.4-1.9,1.9-3.1c-0.3-0.7-1-1-1.2-1.7
				c-0.2-0.3-0.2-0.9-0.2-1.4c0-1.7-1.4-3.3-2.9-3.8C155.9,167.9,158.3,176,161,178.2z"/>
			<path style="fill:#FFFFFF;" d="M170.4,166.8c-1.4-0.7-3.5-0.2-4.1,1c-0.3,0.9,0,1.9,0.5,2.4c0.9,0.9,2.1,1.4,3.1,1
				c1.4-0.3,2.2-2.2,1.7-3.6C171.4,167.5,171.1,167,170.4,166.8z"/>
		</g>
		<g>
			<g>
				<path style="fill:#00FFFF;" d="M221.2,187.9h7.6c6.4,0,11.6-5.2,11.6-11.6v-17.8c0-6.4-5.2-11.6-11.6-11.6h-7.6
					c-6.4,0-11.6,5.2-11.6,11.6v17.8C209.6,182.7,214.8,187.9,221.2,187.9z"/>
				<path style="fill:#0096C5;" d="M225,189.6c-9.3,0-17.1-7.8-17.1-17.3v-9.7c0-9.5,7.6-17.3,17.1-17.3c9.3,0,17.1,7.8,17.1,17.3
					v9.7C241.9,181.9,234.3,189.6,225,189.6z M225,148.8c-7.4,0-13.7,6.2-13.7,13.8v9.9c0,7.6,6.1,13.8,13.7,13.8
					c7.6,0,13.7-6.2,13.7-13.8v-9.7C238.7,155.1,232.4,148.8,225,148.8z"/>
			</g>
			<path style="fill:#FFFFFF;" d="M222.4,155.4c-0.9,0.3-1.4,1-1.9,1.7c-1.4,1.7-2.8,3.8-2.8,6.1c0,0.9,0.2,1.7,1,2.1
				c0.3,0.2,0.7,0.2,1,0.2c0.5,0,1,0,1.4-0.2c0.3-0.2,0.9-0.5,1.2-0.9c1-0.9,2.4-1.4,4-1.4c1,0,2.1,0.2,2.9-0.3
				c1.6-1,1.6-4.8,0.3-6.2C228.3,154.5,224.3,154.5,222.4,155.4z"/>
			<path style="fill:#FFFFFF;" d="M221.4,178.2c1,0.9,2.4,1.6,3.8,1.2c1.4-0.3,2.4-1.9,1.9-3.1c-0.3-0.7-1-1-1.2-1.7
				c-0.2-0.3-0.2-0.9-0.2-1.4c0-1.7-1.4-3.3-2.9-3.8C216.2,167.9,218.6,176,221.4,178.2z"/>
			<path style="fill:#FFFFFF;" d="M230.7,166.8c-1.4-0.7-3.5-0.2-4.1,1c-0.3,0.9,0,1.9,0.5,2.4c0.9,0.9,2.1,1.4,3.1,1
				c1.4-0.3,2.2-2.2,1.7-3.6C231.7,167.5,231.4,167,230.7,166.8z"/>
		</g>
	</g>
</g>
</svg>
