<?xml version="1.0" encoding="utf-8"?>
<!-- Generator: Adobe Illustrator 24.1.1, SVG Export Plug-In . SVG Version: 6.00 Build 0)  -->
<svg version="1.1" id="Layer_1" xmlns="http://www.w3.org/2000/svg" xmlns:xlink="http://www.w3.org/1999/xlink" x="0px" y="0px"
	 viewBox="0 0 140 240" style="enable-background:new 0 0 140 240;" xml:space="preserve">
<g>
	<path style="fill:#FACB75;" d="M128.09,123.04c2.57-2.65,7.68-8.25,7.04-10.08c-0.08-0.22-0.31-0.62-0.97-0.68
		c-2.75-0.31-6.34,4.74-7.93,7.23c-0.21-2.09-0.92-5.85-3.31-7.85c-0.77-0.64-1.37-0.56-1.74-0.38c-1.44,0.7-1.81,4.5-1.9,7.21
		c-0.92-2.09-2.46-4.73-4.33-4.6c-0.44,0.03-0.81,0.25-1.05,0.63c-1.02,1.59,0.48,6.25,1.17,8.18c-2-0.39-6.8-1.13-8.45,0.28
		c-0.44,0.37-0.66,0.87-0.62,1.45c0.04,0.62,0.31,1.17,0.81,1.6c1.6,1.39,5.28,1.46,7.12,1.41l-6.53,7.69
		c-3.18,0.8-6.57,2.1-8.25,2.78c1.22-2.9,3.46-8.68,2.54-10.08c-0.18-0.27-0.45-0.42-0.78-0.42c-1.84,0-4.67,5.45-6.26,8.87
		c-0.11-1.67-0.5-3.92-1.75-5.28c-0.74-0.8-1.68-1.2-2.8-1.2c-1.03,0-1.77,0.36-2.19,1.07c-1.29,2.16,0.97,6.9,1.64,8.19
		L79.23,151.8c0.11-17.81-1.35-27.29-1.99-30.54c2.27,1.79,7.7,5.78,10.99,5.38c0.85-0.1,1.52-0.49,1.98-1.14
		c0.47-0.65,0.61-1.33,0.43-2.02c-0.15-0.58-0.55-1.17-1.18-1.73c5.02,1.45,8.21,1.85,9.49,1.18c0.36-0.19,0.6-0.47,0.7-0.81
		c0.13-0.44,0.06-0.89-0.19-1.33c-1.13-1.92-6.1-3.59-9.51-4.53c6.67-0.29,18.04-1.16,18.04-3.74c0-0.41-0.18-0.78-0.52-1.05
		c-1.79-1.53-8.77-0.74-11.92-0.3c3.24-3.03,12.94-11.87,16.47-12.22c2.01-0.21,5.84,3.16,8.92,5.86c3.45,3.01,5.62,4.85,6.92,4.48
		c0.28-0.08,0.64-0.3,0.82-0.87c0.86-2.77-2.81-6.27-5.05-8.07c3.41,0.6,10.03,1.55,11.84,0.19c0.34-0.25,0.54-0.59,0.57-0.98
		c0.19-2.51-6.62-3.84-10.38-4.38c3.87-1.33,11.72-4.45,11.72-7.82c0-0.55-0.22-0.98-0.67-1.24c-2.36-1.43-11.65,2.96-15.1,4.69
		c1.48-3.38,4.13-10.14,2.47-11.6c-0.27-0.24-0.61-0.31-0.95-0.22c-1.62,0.45-3.63,5.77-4.62,8.66c-0.43-1.42-1.29-3.44-2.89-4.6
		c-1.07-0.79-2.33-1.06-3.73-0.83c-1.08,0.19-1.75,0.67-1.98,1.44c-0.62,2.05,2.46,5.61,4.3,7.51c-3.82-0.94-9.85-2.17-10.74-0.93
		c-0.13,0.19-0.3,0.58,0.09,1.17c1.29,1.93,4,2.87,5.65,3.27c-2.18,1.12-6.75,3.64-9.29,6.21c0.64-3.16,1.53-9.28-0.31-11.75
		c-0.53-0.71-1.24-1.09-2.11-1.13c-0.93-0.04-1.7,0.25-2.28,0.87c-0.52,0.55-0.87,1.34-1.06,2.38c-1.24-5.37-2.53-8.54-3.86-9.43
		c-0.37-0.26-0.76-0.34-1.16-0.27c-0.54,0.11-1.28,0.52-1.72,1.84c-0.93,2.77-0.15,8.63,1.78,12.95c-1.74-1.53-3.93-3.02-5.65-2.75
		c-0.92,0.15-1.61,0.76-2.04,1.82c-0.32,0.82-0.29,1.69,0.12,2.57c1.77,3.78,10.2,7.06,12.89,8.01l-4.11,3.21
		c-1.29-1.52-5.91-6.72-8.62-6.85c-0.55-0.03-1.01,0.14-1.36,0.49c-0.44,0.44-0.65,1.01-0.59,1.64c0.19,2.1,3.27,4.56,4.47,5.45
		l-3.01,3.35c-0.36-1.99-1.34-6.26-3.2-7.12c-0.41-0.19-1.04-0.31-1.81,0.18c-0.45,0.3-0.83,0.68-1.11,1.16
		c-0.85-5.1-1.93-10.83-2.81-12.84c0.18-0.8,1.33-4.95,4.88-5.26c0.77,0.74,3.72,3.45,5.6,3.22c0.52-0.06,0.93-0.33,1.21-0.79
		c1.23-2.05-1.56-6.62-2.71-8.35c2.07-0.34,7.67-1.61,7.67-5.25c0-0.94-0.32-1.62-0.95-2.01c-0.35-0.22-0.77-0.32-1.23-0.35
		c3.61-1.74,6.94-3.23,8.78-3.82c-1.31,1.7-3.42,4.8-2.69,6.37c0.29,0.62,0.92,0.93,1.87,0.93c2.23,0,3.73-1.33,4.7-2.77
		c-0.38,2.71-0.62,6.08,0.19,7.31c0.27,0.4,0.59,0.53,0.81,0.57c1.17,0.24,2.27-0.07,3.12-0.87c1.63-1.55,2.18-4.77,1.66-9.59
		c1.51,1.79,4.28,4.72,6.35,4.78c0.63,0.01,1.17-0.23,1.57-0.71c0.4-0.48,0.57-1.07,0.51-1.76c-0.26-2.72-4.31-6.43-5.56-7.51
		c1.18-1.42,4.96-6.17,4.72-8.66c-0.05-0.52-0.26-0.93-0.63-1.22c-0.33-0.27-0.75-0.36-1.22-0.29c-2.02,0.34-5.07,4.23-6.81,6.69
		c0.42-2.41,0.74-5.98-0.57-7.43c-0.49-0.54-1.18-0.75-2-0.63c-3.41,0.55-3.72,5.22-3.62,7.79c-2.25-2.9-7.97-9.36-13.18-7.31
		c-1.16,0.45-1.74,1.1-1.75,1.91c-0.02,2.71,7.37,6.17,10.39,7.46l-8.98,4.49c0.41-0.77,0.73-1.73,0.58-2.77
		c-0.19-1.39-1.17-2.56-2.92-3.5c-1.18-0.64-2.2-0.68-3.02-0.13c-2.4,1.63-1.87,8.03-1.74,9.34l-4.31,7.1l-2.77,1.45
		c-0.72-3.1-4.04-17.07-6.68-21.84c2.3,0.7,6.85,1.88,8.6,0.64c0.49-0.34,0.76-0.87,0.76-1.5c0-1.61-1.15-2.54-2.53-3.08
		c4.82-0.34,11.77-1.29,14.25-3.9c0.68-0.71,1.01-1.52,0.98-2.4c-0.05-1.03-0.46-1.78-1.24-2.24c-2.85-1.66-10.13,1.46-13.24,2.93
		c1.42-2.49,4.07-7.73,2.89-10.61c-0.41-0.99-1.2-1.62-2.37-1.88c-1.19-0.27-2.27-0.04-3.23,0.69c-2.01,1.53-3.02,5.02-3.53,7.8
		c-0.39-1.88-1.1-3.7-2.43-3.83c-0.22-0.03-0.57,0.01-0.93,0.31c-1.41,1.17-2.17,6.02-2.5,8.76l-3.24-7.72
		c1.29-2.89,5.08-9.78,8.41-9.78c3.34,0,10.49-3.89,10.49-6.2c0-0.28-0.1-0.8-0.8-1.11c-0.43-0.2-1.06-0.3-1.9-0.3
		c-3.57,0-5.85,0.56-7.23,1.12c1.75-2.73,4.76-8.01,3.65-10.37c-0.23-0.5-0.76-1.12-1.95-1.21c-4.48-0.37-6.84,7.84-7.69,11.65
		c-0.74-2.27-2.03-5.34-3.6-4.96c-1.93,0.48-1.38,7.03-1.03,9.96l-1.63,3.81c-0.81-1.23-2.37-4.09-1.9-7.24
		c0.66-4.34,1.66-7.92,1.66-7.95c0.62-1.41,2.95-7.03,2.95-10.49c0-1.22-0.29-2.17-1.04-2.58c-0.54-0.29-1.1-0.31-1.64-0.06
		c-1.29,0.59-2.21,2.72-2.76,4.41c-0.57-3.57-2.02-10.01-4.98-10.86c-0.71-0.2-1.17,0.06-1.43,0.31c-1.5,1.44-0.59,7.28,0.18,11.06
		c-1.46-1.93-3.96-4-7.55-2.81c-1.24,0.42-1.62,1.18-1.72,1.76c-0.49,2.83,4.75,7.78,7.62,10.23c-2.44-0.61-6.07-1.28-7.25-0.22
		c-0.26,0.23-0.54,0.66-0.39,1.36c0.49,2.41,6.05,5.3,9.25,6.78c-1.49,0.07-3.3,0.37-4.2,1.3c-0.48,0.5-0.68,1.15-0.57,1.88
		c0.24,1.72,2.19,2.4,4.45,3.2c2.45,0.87,5.46,1.92,7.18,4.61c-4.43-1.29-20.92-5.9-27.28-4.88c-2.52,0.41-3.74,1.1-3.73,2.12
		c0.01,1.4,2.64,2.6,5.44,3.34c-3.45,0.41-8.15,1.32-8.15,3.36c0,0.65,0.3,1.19,0.86,1.58c1.65,1.14,5.71,0.89,10.2-0.56
		c-1.55,1.87-3.98,5.17-3.41,6.91c0.13,0.4,0.47,0.92,1.37,1.09c3.75,0.75,9.39-6.42,10.51-7.89l13.37-0.55l5.09,8.41
		c-3.25-1.57-10.67-4.78-12.69-2.38c-0.37,0.43-0.49,0.95-0.34,1.49c0.51,1.89,4.54,3.9,7.37,5.1c-3.63-0.11-9.41,0.06-10.77,2.22
		c-0.47,0.74-0.42,1.63,0.17,2.62c1.91,3.23,5.83,2.97,8.97,2.07c-4.08,2.78-9.56,6.98-9.51,9.48c0,0.44,0.18,1.06,0.97,1.51
		c3.83,2.13,10.99-4.5,13.8-7.32c-0.62,3.04-1.54,8.82-0.03,10.27c0.27,0.25,0.73,0.51,1.45,0.31c3.01-0.86,4.7-9.39,5.29-13.13
		c1.53,3.63,5.29,13.12,5.51,19.09c-2.3-0.31-11.47-1.41-18.65-0.2c0.01-0.01,0.01-0.01,0.01-0.02c0.57-1.18,0.43-2.89-0.41-5.08
		c-0.41-1.06-0.99-1.63-1.67-1.59c-1.68,0.02-3.43,3.7-4.33,5.88c-1.01-3.9-3.6-12.64-6.6-12.4c-0.46,0.04-0.84,0.28-1.1,0.68
		c-1.26,2,0.89,8.69,2.02,11.85c-2.67-2.04-8.78-6.11-12.47-4.12c-1.04,0.55-1.25,1.28-1.24,1.78c0.04,2.4,5.12,5.49,7.72,6.93
		c-4.85,0.45-16.46,1.93-16.42,5.45c0.01,0.47,0.22,0.9,0.62,1.21c2.52,2.03,13.43,0.18,17.18-0.54c-1.53,2.25-4.6,7.11-3.74,8.97
		c0.15,0.32,0.49,0.73,1.25,0.79c3.04,0.24,8.9-5.46,11.2-7.84c-0.14,2.81-0.16,7.85,1.39,8.49c0.55,0.23,1.17-0.04,1.82-0.8
		c2.39-2.79,4.31-7.34,5.21-9.7c0.31,1.13,0.88,2.51,1.79,2.92c0.33,0.16,0.87,0.26,1.52-0.15c1.54-0.96,3.71-2.95,4.89-4.09
		c0,1.18,0.22,2.87,1.38,3.5c1.17,0.65,2.85,0.03,5.11-1.88c0.02-0.02,0.05-0.04,0.06-0.07l2.8-3.56l3.56,0.52l2.39,19.56
		c-1.36-3.18-3.74-6.93-7.39-7.09c-1.25-0.06-2.07,0.31-2.46,1.05c-0.56,1.11,0.07,2.94,1.03,4.71c-3.42-3.17-8.37-6.57-12.16-4.34
		c-1.16,0.68-1.7,1.53-1.64,2.52c0.21,3.03,6.71,6.32,9.51,7.6c-3.82,1.16-15.4,4.85-19.21,8.16l-4.53-1.63
		c3.05-0.95,9.76-3.37,9.52-6.21c-0.06-0.82-0.5-1.44-1.25-1.8c-1.49-0.7-4.13-0.24-6.81,1.08c1.3-1.95,2.28-4.7,1.17-7.97
		c-0.44-1.29-1.1-1.96-1.95-1.99c-2.52-0.06-5.77,6.47-7.28,9.87c-0.54-4.55-2.37-16.03-7.33-16.03c-1.15,0-1.73,0.56-2.02,1.04
		c-1.69,2.78,1.83,10.68,3.44,13.96c-3.53-1.9-13.09-6.45-17.26-2.89c-0.96,0.82-0.99,1.6-0.85,2.11c0.77,2.75,9.24,4.84,13.83,5.78
		c-4.59,0.71-12.99,2.38-13.83,5.08c-0.17,0.51-0.15,1.31,0.84,2.2c4.22,3.76,12.04-0.38,14.97-2.17c-0.59,1.92-1.41,5.51-0.01,7.51
		c0.71,1.01,1.86,1.48,3.42,1.41c1.63-0.07,2.83-0.67,3.59-1.78c0.81-1.18,0.97-2.79,0.88-4.28c1.41,2.94,3.38,6.43,4.89,6.83
		c-1.15,1.82-2.3,4.05-3.31,6.7c-1.57,4.14-1.81,6.46-0.72,6.91c1.44,0.59,3.72-3.01,5.44-6.69c0.59,1.98,1.81,5.36,3.35,5.76
		c0.35,0.09,0.9,0.07,1.44-0.51c1.9-2.03-0.3-7.06-1.46-9.36c2.25,0.84,6.6,2.24,8.02,1.18c0.27-0.19,0.56-0.57,0.5-1.24
		c-0.28-2.8-5.09-3.89-6.81-4.19c0.6-1.85,3.32-8.42,11.66-9.33c-0.66,2.48-2.56,10.42-0.73,12.66c0.38,0.47,0.92,0.69,1.54,0.65
		c0.77-0.06,1.41-0.41,1.92-1.04c1.24-1.53,1.44-4.53,1.39-6.8c1.74,4.11,3.7,7.96,4.9,7.75c0.69-0.12,0.81-1.05,0.83-1.85
		c0.07-2.9-0.47-5.5-1.06-7.44c2.42,3.18,6.26,7.62,8.53,7.25c0.53-0.08,1.22-0.44,1.57-1.7c0.92-3.33-0.46-6.05-1.94-7.85
		c2.31,1.1,5.09,2.11,6.1,1.28c0.06-0.04,0.1-0.08,0.14-0.13c0.8,9.59,2.02,27.21,1.92,42.4l-10.12-8.34
		c0.18-1.63,1.04-10.21-1.19-12.88c-0.44-0.54-1-0.83-1.63-0.87c-0.78-0.05-1.45,0.22-1.99,0.8c-1.26,1.33-1.51,4.18-1.5,6.37
		c-1.81-4.26-5.69-12.06-9.77-11.88c-1.01,0.05-1.44,0.55-1.63,0.96c-1.08,2.4,3.67,9.14,6.12,12.36
		c-4.29-2.11-14.7-6.59-19.37-3.09c-1.02,0.76-1.09,1.53-0.97,2.03c0.79,3.45,14.2,6.6,19.13,7.66c-2.03,0.82-5.45,2.55-6.71,5.22
		c-0.63,1.34-0.65,2.76-0.04,4.21c0.49,1.18,1.27,1.86,2.31,2.01c2.88,0.41,7.11-3.65,9.39-6.12c-0.38,1.44-0.6,3.26,0.1,4.56
		c0.48,0.89,1.32,1.42,2.48,1.58c0.96,0.14,1.8-0.11,2.47-0.76c1.86-1.76,1.97-6.09,1.9-8.23l10.9,10.77
		c-0.05,1.21-0.1,2.4-0.17,3.54c-1.22,20.64-4.63,55.63-4.67,55.98c-0.02,0.18,0.08,0.37,0.25,0.45l4.32,2.19
		c0.06,0.04,0.14,0.06,0.2,0.06c0.08,0,0.17-0.02,0.23-0.06c0.14-0.07,0.22-0.21,0.23-0.37c0.05-0.57,3.64-53.6,4.35-79.96
		l12.36-12.7c-0.25,2.22-0.39,6.42,1.71,8.52c0.62,0.62,1.17,0.59,1.51,0.46c1.57-0.6,2.24-5.25,2.5-8.07
		c1.52,3.34,5.12,10.39,9.03,11.73c0.44,0.15,0.88,0.22,1.3,0.22c0.66,0,1.29-0.18,1.89-0.53c0.98-0.57,1.53-1.41,1.62-2.47
		c0.35-4.1-6.53-10.67-8.98-12.87c2.81-0.23,10.05-1.09,12.51-3.85c0.64-0.71,0.92-1.51,0.87-2.37c-0.05-0.64-0.3-1.16-0.76-1.54
		c-0.61-0.5-1.54-0.74-2.84-0.72l5.25-4.81c0.39,2.11,1.57,7.13,4.12,7.62c0.64,0.12,1.04-0.14,1.25-0.38c1-1.1,0.44-4.46-0.11-6.82
		c1.9,2.41,5.23,6.2,7.45,6.35c0.55,0.04,1.04-0.16,1.41-0.55c0.43-0.45,0.6-1.03,0.52-1.66c-0.27-1.98-3.12-4.33-4.98-5.67
		c3.1,0.25,8.88,0.33,9.77-2.36c0.19-0.58,0.11-1.13-0.24-1.58C135.03,122.99,130.37,122.96,128.09,123.04z M78.31,153.11
		c-0.24,22.14-3.94,77.81-4.4,84.7l-3.41-1.74c0.34-3.54,3.49-36.08,4.63-55.69c0.07-1.22,0.13-2.48,0.18-3.76
		c0.01-0.13-0.04-0.25-0.13-0.34l-11.9-11.77c-0.13-0.13-0.34-0.17-0.52-0.08c-0.18,0.08-0.28,0.26-0.27,0.45
		c0.01,0.07,0.58,6.69-1.54,8.7c-0.46,0.44-1.02,0.61-1.7,0.51c-0.87-0.12-1.45-0.48-1.79-1.1c-1.1-2.02,0.71-6,0.73-6.04
		c0.1-0.21,0.03-0.46-0.18-0.59c-0.19-0.12-0.45-0.07-0.6,0.1c-1.82,2.26-7.21,8.02-10.12,7.61c-0.7-0.1-1.23-0.57-1.59-1.45
		c-0.51-1.21-0.5-2.34,0.03-3.45c1.62-3.44,7.64-5.29,7.7-5.3c0.2-0.06,0.33-0.26,0.32-0.47c-0.01-0.21-0.17-0.39-0.37-0.43
		c-7.43-1.46-19.43-4.73-20.02-7.3c-0.03-0.13-0.12-0.53,0.63-1.08c5.35-4.02,20.11,4.05,20.26,4.13c0.19,0.11,0.43,0.06,0.57-0.11
		c0.15-0.17,0.15-0.41,0.01-0.58c-3.27-4.05-8.16-11.19-7.3-13.07c0.07-0.17,0.24-0.4,0.83-0.42c3.99-0.18,8.51,10,9.92,13.93
		c0.08,0.22,0.31,0.35,0.55,0.3c0.22-0.06,0.38-0.27,0.35-0.51c-0.22-1.81-0.45-6.88,1.08-8.51c0.34-0.37,0.76-0.53,1.26-0.5
		c0.37,0.02,0.69,0.19,0.97,0.54c1.79,2.15,1.29,9.7,0.96,12.43c-0.02,0.16,0.04,0.31,0.17,0.42l11,9.07
		c0.08,0.1,0.21,0.17,0.35,0.17c0.23,0,0.46-0.2,0.46-0.46c0.24-22.27-2.52-50.32-2.54-50.6c-0.02-0.13-0.08-0.25-0.19-0.33
		c-0.11-0.07-0.24-0.1-0.37-0.07l-3.99,0.89c-0.2,0.06-0.35,0.23-0.36,0.45c0,0.21,0.15,0.4,0.35,0.45c0.09,0.02,2.3,0.62,3.53,4.44
		c0.06,0.19,0.18,0.65,0.01,0.79c-0.75,0.61-4.79-1.06-8.1-2.96c-0.21-0.12-0.49-0.06-0.62,0.16c-0.13,0.21-0.06,0.49,0.14,0.63
		c0.06,0.04,5.63,3.75,4.11,9.21c-0.27,0.95-0.69,1.02-0.83,1.04c-2.06,0.33-7.08-5.87-9.77-9.86c-0.14-0.2-0.41-0.27-0.62-0.14
		c-0.21,0.13-0.29,0.4-0.17,0.61c0.02,0.05,2.46,4.72,2.32,10.46c-0.02,0.53-0.07,0.8-0.12,0.92c-0.89-0.6-3.2-5.46-4.93-9.83
		c-0.08-0.21-0.32-0.33-0.55-0.28c-0.22,0.06-0.37,0.28-0.34,0.51c0.01,0.07,0.88,6.73-0.98,9.02c-0.35,0.43-0.77,0.66-1.27,0.69
		c-0.32,0.03-0.56-0.07-0.76-0.31c-1.48-1.82,0.29-9.62,1.09-12.46c0.04-0.15,0.01-0.31-0.09-0.42c-0.09-0.12-0.23-0.18-0.39-0.18
		c-10.9,0.76-13.27,10.48-13.29,10.58c-0.03,0.13-0.01,0.26,0.06,0.37c0.07,0.1,0.19,0.18,0.32,0.19c1.74,0.24,6.32,1.33,6.54,3.45
		c0.02,0.25-0.06,0.34-0.14,0.41c-0.97,0.73-5.43-0.58-8.28-1.75c-0.18-0.07-0.39-0.03-0.52,0.12c-0.13,0.15-0.16,0.36-0.06,0.54
		c1.15,2.02,3.78,7.65,2.18,9.37c-0.29,0.31-0.47,0.27-0.54,0.25c-1.06-0.28-2.4-3.86-3.02-6.33c-0.05-0.19-0.21-0.33-0.41-0.35
		c-0.19-0.01-0.39,0.1-0.46,0.28c-2.5,5.74-4.36,7.43-4.75,7.39c-0.18-0.18-0.35-1.61,1.21-5.74c3.34-8.8,8.53-12.83,8.59-12.88
		c0.13-0.1,0.19-0.27,0.18-0.43c-0.03-0.17-0.13-0.31-0.29-0.37l-6.05-2.39c-0.18-0.07-0.41-0.01-0.54,0.15
		c-0.12,0.17-0.12,0.4,0,0.56c0.03,0.04,2.76,3.74,1.18,7.07c-0.12,0.24-0.23,0.36-0.35,0.36c-1.18-0.04-3.99-5.16-6.01-10.1
		c-0.09-0.23-0.36-0.34-0.59-0.26c-0.23,0.09-0.35,0.35-0.27,0.59c0.01,0.05,1.76,5.09,0.06,7.58c-0.59,0.88-1.53,1.33-2.86,1.38
		c-1.25,0.06-2.11-0.28-2.63-1.03c-1.66-2.35,0.54-7.86,0.56-7.92c0.07-0.19,0.02-0.41-0.14-0.54c-0.17-0.13-0.39-0.14-0.55-0.02
		c-0.1,0.07-10.37,7.09-14.97,2.98c-0.76-0.67-0.63-1.09-0.58-1.23c0.69-2.22,10.11-4.14,15.87-4.83c0.23-0.03,0.41-0.22,0.41-0.45
		c0.01-0.23-0.16-0.43-0.38-0.46c-5.81-0.98-15.26-3.37-15.89-5.64c-0.04-0.14-0.15-0.55,0.56-1.16c4.56-3.9,17.39,3.64,17.52,3.73
		c0.18,0.1,0.4,0.07,0.55-0.07c0.15-0.14,0.18-0.37,0.09-0.55c-1.66-3.18-5.65-11.96-4.16-14.42c0.25-0.41,0.64-0.6,1.23-0.6
		c4.33,0,6.22,12.25,6.59,16.98c0.01,0.21,0.18,0.39,0.39,0.43c0.21,0.04,0.42-0.08,0.5-0.29c1.74-4.26,5.21-10.97,7.1-10.95
		c0.53,0.02,0.89,0.75,1.1,1.37c1.38,4-0.69,7.16-2.67,9.09c-0.17,0.17-0.18,0.43-0.03,0.62c0.15,0.19,0.42,0.22,0.62,0.09
		c3.37-2.33,6.81-3.04,8.21-2.38c0.44,0.21,0.68,0.55,0.72,1.04c0.17,2.04-6.18,4.55-10.21,5.65c-0.2,0.06-0.33,0.22-0.34,0.43
		c-0.01,0.2,0.11,0.39,0.31,0.45l6.13,2.21c0.16,0.06,0.34,0.02,0.47-0.1c4.03-3.8,20.09-8.46,20.25-8.51
		c0.19-0.06,0.32-0.22,0.33-0.42c0.02-0.19-0.1-0.38-0.28-0.45c-2.76-1.16-9.93-4.71-10.11-7.32c-0.05-0.62,0.34-1.16,1.18-1.66
		c5.48-3.24,14.5,7.82,14.89,8.29c0.16,0.2,0.45,0.23,0.65,0.07c0.19-0.17,0.23-0.45,0.07-0.65c-2.07-2.59-4.87-6.98-4.12-8.46
		c0.2-0.41,0.74-0.59,1.59-0.55c5.57,0.26,7.98,10.69,8.01,10.8c0.06,0.24,0.29,0.39,0.53,0.35c0.24-0.05,0.41-0.27,0.38-0.51
		l-2.99-24.49c-0.03-0.2-0.19-0.37-0.4-0.4l-4.17-0.62c-0.17-0.02-0.33,0.05-0.43,0.18l-2.93,3.74c-1.85,1.54-3.27,2.16-4.03,1.75
		c-1.03-0.56-0.95-2.99-0.84-3.79c0.03-0.19-0.07-0.39-0.26-0.47c-0.18-0.09-0.39-0.06-0.53,0.08c-0.04,0.04-3.5,3.49-5.58,4.79
		c-0.33,0.2-0.53,0.16-0.65,0.09c-0.82-0.37-1.43-2.53-1.62-3.81c-0.04-0.21-0.2-0.38-0.42-0.4c-0.21-0.01-0.42,0.11-0.48,0.31
		c-0.03,0.07-2.44,7.24-5.58,10.91c-0.43,0.5-0.68,0.58-0.77,0.55c-0.8-0.33-1.04-4.84-0.73-8.85c0.01-0.19-0.1-0.38-0.28-0.45
		c-0.18-0.08-0.4-0.04-0.53,0.11c-2.24,2.42-8.65,8.69-11.34,8.48c-0.37-0.03-0.44-0.19-0.48-0.26c-0.61-1.33,2.33-6.21,4.33-8.99
		c0.11-0.16,0.12-0.36,0.02-0.52c-0.1-0.17-0.3-0.24-0.48-0.2c-4.15,0.85-15.4,2.69-17.55,0.94c-0.24-0.19-0.28-0.38-0.28-0.5
		c-0.02-2.3,10.01-4.11,17.14-4.65c0.2-0.02,0.38-0.18,0.42-0.38c0.05-0.2-0.06-0.41-0.24-0.5c-3.32-1.66-8.59-4.98-8.62-6.84
		c0-0.14-0.01-0.55,0.75-0.96c4.19-2.25,12.67,4.99,12.75,5.07c0.16,0.14,0.39,0.15,0.56,0.03c0.18-0.13,0.24-0.35,0.17-0.55
		c-1.56-4.03-3.67-11.01-2.67-12.6c0.1-0.17,0.21-0.24,0.39-0.25c1.96-0.18,4.68,7.57,5.98,13.12c0.05,0.2,0.22,0.34,0.43,0.36
		c0.21,0.01,0.4-0.12,0.46-0.31c1.14-3.19,3-6.65,3.99-6.66c0.37,0.03,0.66,0.63,0.8,1c0.92,2.38,0.75,3.65,0.45,4.31
		c-0.28,0.59-0.69,0.75-0.7,0.75c-0.23,0.07-0.37,0.32-0.3,0.56s0.3,0.38,0.55,0.32c8.17-1.84,20.19-0.01,20.32,0.01
		c0.13,0.02,0.27-0.02,0.37-0.1c0.1-0.09,0.16-0.22,0.16-0.35c0-7.56-5.98-20.92-6.24-21.49c-0.08-0.19-0.29-0.31-0.49-0.27
		c-0.2,0.03-0.36,0.19-0.39,0.4c-0.47,3.63-2.27,13.24-4.87,13.98c-0.31,0.09-0.45,0.01-0.55-0.08c-1.16-1.11-0.22-7.34,0.64-11.01
		c0.05-0.2-0.05-0.42-0.23-0.51c-0.19-0.1-0.42-0.06-0.56,0.09c-2.68,2.96-10.41,10.22-13.8,8.33c-0.44-0.24-0.5-0.51-0.5-0.71
		c-0.05-2.43,7.91-8.13,13.27-11.37c0.22-0.13,0.29-0.41,0.17-0.62c-0.13-0.22-0.41-0.3-0.63-0.18c-0.09,0.06-9.43,5.17-12.38,0.17
		c-0.41-0.68-0.47-1.22-0.19-1.66c1.37-2.15,9.73-1.9,12.83-1.61c0.23,0.02,0.44-0.14,0.49-0.36c0.06-0.23-0.07-0.46-0.3-0.54
		c-3.42-1.22-9.03-3.81-9.51-5.56c-0.06-0.24-0.02-0.44,0.16-0.65c1.5-1.78,8.77,1.1,13,3.33c0.18,0.1,0.41,0.07,0.55-0.09
		c0.14-0.15,0.17-0.38,0.06-0.55L50.3,46.32c-0.08-0.15-0.23-0.22-0.42-0.22l-13.86,0.56c-0.14,0.01-0.27,0.07-0.35,0.19
		c-1.74,2.34-6.87,8.28-9.72,7.71c-0.5-0.1-0.62-0.31-0.67-0.47c-0.45-1.4,2.44-5.23,4.36-7.32c0.15-0.16,0.17-0.4,0.05-0.57
		c-0.12-0.18-0.35-0.25-0.55-0.18c-4.72,1.79-9.44,2.33-11,1.26c-0.31-0.21-0.46-0.48-0.46-0.82c0-1.33,5.45-2.44,10.5-2.71
		c0.23-0.01,0.43-0.2,0.43-0.44c0.01-0.23-0.17-0.44-0.4-0.47c-4.7-0.65-7.82-2.28-7.83-3.08c-0.01-0.27,0.61-0.81,2.95-1.19
		c7-1.12,27.73,5.1,27.93,5.17c0.18,0.06,0.37,0,0.49-0.14c0.12-0.14,0.15-0.33,0.06-0.5c-1.74-3.75-5.34-5.02-8.24-6.04
		c-2.05-0.72-3.67-1.29-3.84-2.46c-0.06-0.45,0.04-0.8,0.32-1.1c1.12-1.16,4.57-1.11,5.8-0.98c0.23,0.02,0.44-0.13,0.5-0.35
		c0.06-0.22-0.06-0.45-0.28-0.54c-2.85-1.17-10.36-4.73-10.83-7.05c-0.06-0.29,0.02-0.41,0.1-0.49c0.93-0.83,5.52,0.09,8.47,1.02
		c0.21,0.07,0.44-0.03,0.55-0.22c0.1-0.19,0.05-0.44-0.13-0.58c-2.64-2.09-9.43-8.1-8.97-10.74c0.08-0.48,0.44-0.81,1.1-1.04
		c5.28-1.77,7.84,4.68,7.94,4.96c0.09,0.22,0.34,0.34,0.57,0.27c0.23-0.07,0.37-0.31,0.31-0.55c-1.11-4.42-2.39-11.9-1.11-13.14
		c0.09-0.08,0.23-0.17,0.53-0.08c2.8,0.8,4.29,9.17,4.63,12.33c0.03,0.22,0.21,0.4,0.43,0.41c0.23,0.02,0.43-0.14,0.48-0.36
		c0.31-1.44,1.42-5.32,2.85-5.98c0.27-0.12,0.53-0.11,0.8,0.05c1.59,0.85-0.39,7.47-2.33,11.96c-0.01,0.04-1.04,3.69-1.71,8.12
		c-0.69,4.61,2.42,8.44,2.55,8.61c0.1,0.12,0.26,0.18,0.43,0.17c0.16-0.03,0.3-0.13,0.35-0.28l2.01-4.68
		c0.04-0.07,0.05-0.16,0.04-0.24c-0.56-4.65-0.42-8.89,0.32-9.07c0.79-0.2,2.21,3.07,3.01,6.12c0.06,0.21,0.25,0.35,0.46,0.35
		c0.22-0.01,0.41-0.18,0.43-0.39c0.6-3.66,3.05-13.09,7.08-12.76c0.81,0.07,1.06,0.43,1.19,0.68c1.03,2.2-3.01,8.74-4.65,11.07
		c-0.14,0.19-0.1,0.46,0.07,0.61c0.18,0.16,0.45,0.15,0.63-0.02c0.02-0.02,2.02-1.87,8.36-1.87c0.87,0,1.3,0.12,1.52,0.21
		c0.26,0.12,0.26,0.22,0.26,0.28c0,1.34-6.15,5.27-9.57,5.27c-4.71,0-9.15,10.09-9.33,10.52c-0.06,0.11-0.06,0.24-0.01,0.36
		l4.01,9.58c0.08,0.19,0.29,0.31,0.5,0.28c0.21-0.04,0.37-0.2,0.39-0.42c0.28-3.32,1.17-8.95,2.36-9.94
		c0.14-0.12,0.22-0.11,0.25-0.11c1.26,0.13,1.95,4.11,2.03,6.91c0.01,0.25,0.21,0.44,0.46,0.44c0.26,0,0.45-0.19,0.46-0.43
		c0.01-0.09,0.47-8.65,3.66-11.08c0.73-0.55,1.53-0.73,2.46-0.53c0.87,0.19,1.43,0.63,1.72,1.33c1.36,3.33-3.6,11.03-3.64,11.1
		c-0.11,0.19-0.09,0.41,0.05,0.56c0.14,0.16,0.37,0.2,0.55,0.1c2.94-1.53,11.16-5.17,13.77-3.64c0.5,0.29,0.76,0.77,0.79,1.47
		c0.02,0.63-0.21,1.19-0.72,1.72c-3.37,3.54-16.63,3.79-18.12,3.81c-0.26,0-0.46,0.21-0.46,0.46c0.01,0.26,0.21,0.46,0.46,0.46
		c1.03,0.01,6.15,0.17,6.15,2.89c0,0.33-0.12,0.57-0.37,0.75c-1.57,1.1-7.06-0.48-9.04-1.18c-0.2-0.07-0.43,0-0.54,0.18
		c-0.12,0.18-0.1,0.42,0.05,0.57c2.77,2.99,7.33,22.97,7.38,23.17c0.03,0.14,0.13,0.26,0.26,0.31c0.13,0.07,0.28,0.07,0.41-0.01
		l3.42-1.78c0.07-0.05,0.14-0.1,0.19-0.18l4.45-7.35c0.06-0.08,0.08-0.19,0.06-0.29c-0.22-2-0.43-7.44,1.33-8.64
		c0.51-0.34,1.18-0.29,2.06,0.18c1.47,0.79,2.28,1.73,2.44,2.81c0.26,1.84-1.47,3.56-1.49,3.58c-0.17,0.16-0.19,0.42-0.06,0.6
		c0.13,0.19,0.38,0.24,0.58,0.14l11.59-5.79c0.16-0.08,0.26-0.25,0.25-0.43c0-0.19-0.12-0.34-0.29-0.42
		c-4.16-1.7-10.74-5.09-10.74-7c0-0.4,0.4-0.75,1.16-1.05c5.82-2.28,12.96,8.19,13.04,8.29c0.11,0.18,0.34,0.25,0.55,0.18
		c0.19-0.07,0.32-0.28,0.3-0.49c-0.02-0.08-1.01-7.8,2.73-8.4c0.51-0.08,0.88,0.03,1.17,0.34c1.37,1.51,0.38,6.93-0.13,8.89
		c-0.06,0.22,0.06,0.45,0.27,0.54c0.2,0.09,0.45,0.02,0.57-0.17c1.4-2.17,5.46-7.89,7.52-8.23c0.27-0.05,0.42,0.04,0.49,0.09
		c0.17,0.14,0.26,0.32,0.28,0.58c0.19,2.03-3.39,6.7-4.79,8.34c-0.08,0.09-0.12,0.21-0.11,0.33c0.01,0.13,0.06,0.24,0.17,0.32
		c1.48,1.21,5.36,4.88,5.58,7.18c0.05,0.44-0.06,0.8-0.3,1.08c-0.22,0.27-0.49,0.39-0.83,0.38c-2.01-0.06-5.5-4.14-6.69-5.71
		c-0.12-0.18-0.35-0.23-0.55-0.16c-0.19,0.08-0.3,0.29-0.28,0.5c1.01,6.74-0.08,9.39-1.16,10.43c-0.79,0.74-1.68,0.75-2.29,0.63
		c-0.04,0-0.12-0.02-0.22-0.19c-0.89-1.33-0.14-6.95,0.58-10.4c0.05-0.25-0.11-0.49-0.36-0.55c-0.24-0.06-0.49,0.1-0.55,0.35
		c-0.01,0.06-1.3,5.65-5.34,5.65c-0.56,0-0.91-0.13-1.04-0.4c-0.5-1.09,1.68-4.4,3.39-6.41c0.12-0.14,0.15-0.33,0.07-0.5
		c-0.08-0.16-0.24-0.27-0.43-0.27c-2.06,0-11.82,4.86-14.76,6.35c-0.23,0.11-0.31,0.39-0.2,0.62c0.11,0.23,0.39,0.32,0.62,0.2
		c1.83-0.9,4.13-1.65,5.12-1.03c0.35,0.21,0.52,0.61,0.52,1.22c0,3.55-7.54,4.43-7.61,4.44c-0.16,0.02-0.31,0.12-0.37,0.27
		c-0.06,0.16-0.05,0.32,0.05,0.46c1.66,2.31,3.96,6.53,3.1,7.96c-0.13,0.2-0.29,0.31-0.53,0.34c-1.21,0.15-3.7-1.83-4.98-3.11
		c-0.09-0.09-0.22-0.14-0.35-0.14c-4.83,0.24-5.96,6.11-5.98,6.17c-0.02,0.1,0,0.19,0.04,0.29c0.74,1.56,1.84,6.74,3.11,14.59
		c0.04,0.22,0.18,0.38,0.46,0.39c0.22,0,0.42-0.18,0.45-0.4c0.15-1.12,0.57-1.9,1.3-2.37c0.45-0.29,0.74-0.2,0.92-0.12
		c1.4,0.64,2.47,4.86,2.82,7.37c0.03,0.19,0.16,0.32,0.32,0.38c0.18,0.06,0.36,0,0.48-0.13l4.01-4.46c0.08-0.1,0.13-0.23,0.11-0.36
		c-0.02-0.14-0.08-0.25-0.19-0.33c-1.2-0.82-4.34-3.35-4.49-5.07c-0.04-0.36,0.07-0.65,0.32-0.91c0.17-0.16,0.37-0.23,0.66-0.22
		c2.19,0.11,6.69,5,8.24,6.87c0.16,0.19,0.44,0.23,0.64,0.07l5.13-4.01c0.13-0.1,0.19-0.27,0.17-0.44
		c-0.03-0.17-0.15-0.31-0.31-0.36c-0.11-0.03-11.25-3.74-13.14-7.8c-0.31-0.66-0.33-1.25-0.1-1.83c0.31-0.76,0.74-1.17,1.32-1.26
		c2.17-0.35,5.99,3.43,7.48,5.13c0.06,0.06,0.11,0.13,0.17,0.19c0.17,0.19,0.45,0.2,0.65,0.04c0.19-0.17,0.21-0.45,0.05-0.65
		c-0.03-0.04-0.08-0.1-0.16-0.18c-3.03-3.63-4.7-12.03-3.58-15.36c0.24-0.73,0.59-1.14,1.03-1.23c0.09-0.01,0.24-0.02,0.45,0.13
		c1.36,0.92,2.93,5.61,4.31,12.91c0.05,0.24,0.27,0.41,0.52,0.37c0.25-0.04,0.42-0.26,0.4-0.5c-0.29-2.91,0.02-4.94,0.89-5.86
		c0.39-0.42,0.91-0.6,1.56-0.57c0.59,0.03,1.05,0.28,1.41,0.76c2.21,2.97-0.26,12.83-0.28,12.92c-0.06,0.23,0.06,0.45,0.27,0.55
		c0.21,0.08,0.46,0.01,0.57-0.19c2.14-3.62,11.29-8.02,11.38-8.05c0.18-0.09,0.3-0.29,0.26-0.49c-0.03-0.2-0.19-0.36-0.39-0.39
		c-0.05-0.01-4.72-0.67-6.36-3.14c-0.05-0.07-0.06-0.11-0.08-0.13c0.73-0.56,6.44,0.43,11.38,1.73c0.2,0.06,0.43-0.04,0.53-0.23
		c0.1-0.19,0.06-0.42-0.09-0.55c-2.3-2.14-5.77-6.13-5.27-7.78c0.05-0.15,0.18-0.61,1.25-0.79c1.14-0.19,2.15,0.04,3.02,0.67
		c2.28,1.66,2.89,5.58,2.9,5.63c0.03,0.21,0.2,0.37,0.42,0.39c0.21,0.02,0.42-0.11,0.48-0.32c1.41-4.5,3.48-9.33,4.5-9.62
		c0.04-0.01,0.05-0.01,0.09,0.03c0.94,0.82-0.94,6.72-3.24,11.71c-0.07,0.19-0.04,0.4,0.1,0.54c0.15,0.13,0.36,0.16,0.54,0.07
		c5.02-2.62,13.63-6.37,15.37-5.32c0.1,0.06,0.21,0.18,0.21,0.45c0,3.01-9.4,6.48-13.03,7.57c-0.21,0.07-0.35,0.27-0.33,0.48
		c0.02,0.22,0.19,0.4,0.42,0.43c5.68,0.62,11.73,2.19,11.61,3.66c-0.01,0.07-0.04,0.19-0.2,0.31c-1.52,1.14-8.64,0.19-13.06-0.72
		c-0.21-0.05-0.43,0.06-0.52,0.27c-0.08,0.2-0.02,0.43,0.17,0.56c2.02,1.39,7.11,5.58,6.28,8.24c-0.06,0.22-0.15,0.24-0.18,0.25
		c-0.87,0.25-3.74-2.27-6.06-4.28c-3.55-3.12-7.21-6.33-9.63-6.09c-4.56,0.46-17.54,12.96-18.1,13.49
		c-0.14,0.15-0.18,0.36-0.08,0.55c0.08,0.18,0.29,0.28,0.48,0.25c4.3-0.72,11.22-1.35,12.64-0.14c0.17,0.14,0.19,0.26,0.19,0.35
		c0,1.32-9.36,2.66-20.43,2.93c-0.23,0.01-0.43,0.18-0.44,0.42c-0.03,0.23,0.13,0.44,0.36,0.5c2.95,0.66,10.88,2.81,12.11,4.9
		c0.17,0.29,0.14,0.47,0.1,0.59c-0.02,0.07-0.06,0.17-0.25,0.26c-1.27,0.67-5.75-0.19-12.3-2.34c-0.23-0.07-0.48,0.05-0.57,0.28
		c-0.09,0.22,0.02,0.48,0.24,0.58c2.88,1.32,3.69,2.4,3.87,3.09c0.11,0.42,0.02,0.82-0.29,1.24c-0.31,0.43-0.75,0.68-1.34,0.76
		c-3.74,0.44-11.23-5.95-11.31-6.02c-0.15-0.14-0.37-0.15-0.55-0.05c-0.18,0.11-0.25,0.32-0.2,0.52
		C76.09,120.27,78.55,129.7,78.31,153.11z M72.36,125.34c-0.78-1.85-1.79-2.87-2.58-3.42l2.22-0.5
		C72.07,122.11,72.19,123.47,72.36,125.34z M32.23,128.32l4.03,1.59c-0.64,0.57-1.71,1.63-2.95,3.2
		C33.5,131.2,32.81,129.44,32.23,128.32z M100.57,73c0.02-0.08,0.03-0.12,0.03-0.12S100.59,72.92,100.57,73z M135.64,125.87
		c-0.69,2.09-6.89,2.05-10.63,1.54c-0.21-0.03-0.43,0.1-0.5,0.31c-0.07,0.2,0.01,0.43,0.19,0.55c1.61,1.01,5.84,4.05,6.11,6.05
		c0.05,0.36-0.05,0.65-0.28,0.91c-0.18,0.18-0.4,0.27-0.67,0.25c-2.23-0.15-6.66-5.72-8.18-7.86c-0.13-0.18-0.37-0.25-0.57-0.15
		c-0.2,0.1-0.3,0.33-0.24,0.55c0.86,2.89,1.71,7.35,0.92,8.24c-0.06,0.07-0.16,0.13-0.39,0.09c-2.04-0.4-3.24-5.69-3.52-7.69
		c-0.03-0.17-0.15-0.31-0.3-0.37c-0.16-0.06-0.34-0.02-0.47,0.09l-6.86,6.28c-0.15,0.14-0.19,0.35-0.11,0.54
		c0.08,0.18,0.28,0.29,0.48,0.27c2.15-0.26,3.09,0.08,3.49,0.42c0.26,0.22,0.4,0.51,0.43,0.9c0.05,0.61-0.17,1.16-0.64,1.68
		c-2.76,3.1-12.88,3.62-12.98,3.62c-0.18,0.01-0.35,0.13-0.42,0.31c-0.06,0.18,0,0.38,0.14,0.5c0.1,0.08,9.88,8.43,9.5,12.83
		c-0.06,0.75-0.44,1.32-1.17,1.75c-0.76,0.44-1.55,0.52-2.42,0.22c-4.64-1.59-9.18-12.83-9.22-12.95c-0.07-0.18-0.25-0.29-0.43-0.29
		H96.8c-0.21,0.04-0.38,0.22-0.39,0.43c-0.21,4.11-1.06,8.78-2.04,9.15c-0.13,0.05-0.31-0.04-0.53-0.26
		c-2.52-2.52-1.25-9.05-1.23-9.12c0.04-0.2-0.06-0.41-0.24-0.5c-0.19-0.1-0.41-0.07-0.55,0.08l-12.59,12.94v-3.9l11.23-13.87
		c0.12-0.15,0.14-0.34,0.06-0.51c-0.83-1.54-2.78-5.92-1.8-7.55c0.25-0.42,0.7-0.62,1.4-0.62c0.86,0,1.55,0.3,2.12,0.91
		c1.88,2.03,1.51,6.72,1.51,6.77c-0.02,0.22,0.13,0.43,0.35,0.48c0.21,0.06,0.44-0.06,0.54-0.26c2.15-4.95,5.16-10.28,6.3-10.29
		c0.54,0.55-0.87,5.24-3.06,10.26c-0.07,0.17-0.04,0.37,0.09,0.51c0.14,0.14,0.34,0.18,0.52,0.1c0.05-0.03,4.94-2.15,9.34-3.23
		c0.15-0.04,0.25-0.14,0.3-0.26l7.22-8.51c0.12-0.14,0.14-0.34,0.06-0.51c-0.08-0.17-0.26-0.27-0.45-0.25
		c-1.57,0.14-6,0.19-7.52-1.12c-0.31-0.28-0.48-0.59-0.5-0.96c-0.02-0.29,0.07-0.51,0.29-0.69c1.4-1.17,6.59-0.33,8.48,0.09
		c0.17,0.05,0.34-0.02,0.45-0.15c0.11-0.13,0.15-0.31,0.08-0.46c-0.99-2.54-2.28-7-1.55-8.15c0.08-0.14,0.18-0.19,0.34-0.2
		c1.64-0.12,3.5,3.82,4.29,6.33c0.06,0.21,0.29,0.35,0.52,0.31c0.22-0.04,0.39-0.24,0.38-0.47c-0.1-3.36,0.26-8.33,1.38-8.88
		c0.18-0.09,0.43,0,0.74,0.26c3.02,2.52,3.07,8.57,3.07,8.64c0,0.2,0.14,0.39,0.34,0.44c0.19,0.06,0.41-0.04,0.52-0.21
		c1.35-2.33,5.4-8.29,7.8-8.04c0.08,0.01,0.18,0.03,0.19,0.08c0.37,1.03-3.69,5.98-7.65,9.97c-0.14,0.14-0.18,0.34-0.09,0.52
		c0.07,0.18,0.26,0.29,0.45,0.27c2.81-0.21,7.64-0.1,8.59,1.12C135.71,125.36,135.74,125.58,135.64,125.87z"/>
	<path style="fill:#7EA32C;" d="M123.08,95.41c0.02,0.22,0.19,0.4,0.42,0.43c5.68,0.62,11.73,2.19,11.61,3.66
		c-0.01,0.07-0.04,0.19-0.2,0.31c-1.52,1.14-8.64,0.19-13.06-0.72c-0.21-0.05-0.43,0.06-0.52,0.27c-0.08,0.2-0.02,0.43,0.17,0.56
		c2.02,1.39,7.11,5.58,6.28,8.24c-0.06,0.22-0.15,0.24-0.18,0.25c-0.87,0.25-3.74-2.27-6.06-4.28c-3.55-3.12-7.21-6.33-9.63-6.09
		c-4.56,0.46-17.54,12.96-18.1,13.49c-0.14,0.15-0.18,0.36-0.08,0.55c0.08,0.18,0.29,0.28,0.48,0.25c4.3-0.72,11.22-1.35,12.64-0.14
		c0.17,0.14,0.19,0.26,0.19,0.35c0,1.32-9.36,2.66-20.43,2.93c-0.23,0.01-0.43,0.18-0.44,0.42c-0.03,0.23,0.13,0.44,0.36,0.5
		c2.95,0.66,10.88,2.81,12.11,4.9c0.17,0.29,0.14,0.47,0.1,0.59c-0.02,0.07-0.06,0.17-0.25,0.26c-1.27,0.67-5.75-0.19-12.3-2.34
		c-0.23-0.07-0.48,0.05-0.57,0.28c-0.09,0.22,0.02,0.48,0.24,0.58c2.88,1.32,3.69,2.4,3.87,3.09c0.11,0.42,0.02,0.82-0.29,1.24
		c-0.31,0.43-0.75,0.68-1.34,0.76c-3.74,0.44-11.23-5.95-11.31-6.02c-0.15-0.14-0.37-0.15-0.55-0.05c-0.18,0.11-0.25,0.32-0.2,0.52
		c0.03,0.09,2.49,9.51,2.25,32.93c-0.24,22.14-3.94,77.81-4.4,84.7l-3.41-1.74c0.34-3.54,3.49-36.08,4.63-55.69
		c0.07-1.22,0.13-2.48,0.18-3.76c0.01-0.13-0.04-0.25-0.13-0.34l-11.9-11.77c-0.13-0.13-0.34-0.17-0.52-0.08
		c-0.18,0.08-0.28,0.26-0.27,0.45c0.01,0.07,0.58,6.69-1.54,8.7c-0.46,0.44-1.02,0.61-1.7,0.51c-0.87-0.12-1.45-0.48-1.79-1.1
		c-1.1-2.02,0.71-6,0.73-6.04c0.1-0.21,0.03-0.46-0.18-0.59c-0.19-0.12-0.45-0.07-0.6,0.1c-1.82,2.26-7.21,8.02-10.12,7.61
		c-0.7-0.1-1.23-0.57-1.59-1.45c-0.51-1.21-0.5-2.34,0.03-3.45c1.62-3.44,7.64-5.29,7.7-5.3c0.2-0.06,0.33-0.26,0.32-0.47
		c-0.01-0.21-0.17-0.39-0.37-0.43c-7.43-1.46-19.43-4.73-20.02-7.3c-0.03-0.13-0.12-0.53,0.63-1.08c5.35-4.02,20.11,4.05,20.26,4.13
		c0.19,0.11,0.43,0.06,0.57-0.11c0.15-0.17,0.15-0.41,0.01-0.58c-3.27-4.05-8.16-11.19-7.3-13.07c0.07-0.17,0.24-0.4,0.83-0.42
		c3.99-0.18,8.51,10,9.92,13.93c0.08,0.22,0.31,0.35,0.55,0.3c0.22-0.06,0.38-0.27,0.35-0.51c-0.22-1.81-0.45-6.88,1.08-8.51
		c0.34-0.37,0.76-0.53,1.26-0.5c0.37,0.02,0.69,0.19,0.97,0.54c1.79,2.15,1.29,9.7,0.96,12.43c-0.02,0.16,0.04,0.31,0.17,0.42
		l11,9.07c0.08,0.1,0.21,0.17,0.35,0.17c0.23,0,0.46-0.2,0.46-0.46c0.24-22.27-2.52-50.32-2.54-50.6c-0.02-0.13-0.08-0.25-0.19-0.33
		c-0.11-0.07-0.24-0.1-0.37-0.07l-3.99,0.89c-0.2,0.06-0.35,0.23-0.36,0.45c0,0.21,0.15,0.4,0.35,0.45c0.09,0.02,2.3,0.62,3.53,4.44
		c0.06,0.19,0.18,0.65,0.01,0.79c-0.75,0.61-4.79-1.06-8.1-2.96c-0.21-0.12-0.49-0.06-0.62,0.16c-0.13,0.21-0.06,0.49,0.14,0.63
		c0.06,0.04,5.63,3.75,4.11,9.21c-0.27,0.95-0.69,1.02-0.83,1.04c-2.06,0.33-7.08-5.87-9.77-9.86c-0.14-0.2-0.41-0.27-0.62-0.14
		c-0.21,0.13-0.29,0.4-0.17,0.61c0.02,0.05,2.46,4.72,2.32,10.46c-0.02,0.53-0.07,0.8-0.12,0.92c-0.89-0.6-3.2-5.46-4.93-9.83
		c-0.08-0.21-0.32-0.33-0.55-0.28c-0.22,0.06-0.37,0.28-0.34,0.51c0.01,0.07,0.88,6.73-0.98,9.02c-0.35,0.43-0.77,0.66-1.27,0.69
		c-0.32,0.03-0.56-0.07-0.76-0.31c-1.48-1.82,0.29-9.62,1.09-12.46c0.04-0.15,0.01-0.31-0.09-0.42c-0.09-0.12-0.23-0.18-0.39-0.18
		c-10.9,0.76-13.27,10.48-13.29,10.58c-0.03,0.13-0.01,0.26,0.06,0.37c0.07,0.1,0.19,0.18,0.32,0.19c1.74,0.24,6.32,1.33,6.54,3.45
		c0.02,0.25-0.06,0.34-0.14,0.41c-0.97,0.73-5.43-0.58-8.28-1.75c-0.18-0.07-0.39-0.03-0.52,0.12c-0.13,0.15-0.16,0.36-0.06,0.54
		c1.15,2.02,3.78,7.65,2.18,9.37c-0.29,0.31-0.47,0.27-0.54,0.25c-1.06-0.28-2.4-3.86-3.02-6.33c-0.05-0.19-0.21-0.33-0.41-0.35
		c-0.19-0.01-0.39,0.1-0.46,0.28c-2.5,5.74-4.36,7.43-4.75,7.39c-0.18-0.18-0.35-1.61,1.21-5.74c3.34-8.8,8.53-12.83,8.59-12.88
		c0.13-0.1,0.19-0.27,0.18-0.43c-0.03-0.17-0.13-0.31-0.29-0.37l-6.05-2.39c-0.18-0.07-0.41-0.01-0.54,0.15
		c-0.12,0.17-0.12,0.4,0,0.56c0.03,0.04,2.76,3.74,1.18,7.07c-0.12,0.24-0.23,0.36-0.35,0.36c-1.18-0.04-3.99-5.16-6.01-10.1
		c-0.09-0.23-0.36-0.34-0.59-0.26c-0.23,0.09-0.35,0.35-0.27,0.59c0.01,0.05,1.76,5.09,0.06,7.58c-0.59,0.88-1.53,1.33-2.86,1.38
		c-1.25,0.06-2.11-0.28-2.63-1.03c-1.66-2.35,0.54-7.86,0.56-7.92c0.07-0.19,0.02-0.41-0.14-0.54c-0.17-0.13-0.39-0.14-0.55-0.02
		c-0.1,0.07-10.37,7.09-14.97,2.98c-0.76-0.67-0.63-1.09-0.58-1.23c0.69-2.22,10.11-4.14,15.87-4.83c0.23-0.03,0.41-0.22,0.41-0.45
		c0.01-0.23-0.16-0.43-0.38-0.46c-5.81-0.98-15.26-3.37-15.89-5.64c-0.04-0.14-0.15-0.55,0.56-1.16c4.56-3.9,17.39,3.64,17.52,3.73
		c0.18,0.1,0.4,0.07,0.55-0.07c0.15-0.14,0.18-0.37,0.09-0.55c-1.66-3.18-5.65-11.96-4.16-14.42c0.25-0.41,0.64-0.6,1.23-0.6
		c4.33,0,6.22,12.25,6.59,16.98c0.01,0.21,0.18,0.39,0.39,0.43c0.21,0.04,0.42-0.08,0.5-0.29c1.74-4.26,5.21-10.97,7.1-10.95
		c0.53,0.02,0.89,0.75,1.1,1.37c1.38,4-0.69,7.16-2.67,9.09c-0.17,0.17-0.18,0.43-0.03,0.62c0.15,0.19,0.42,0.22,0.62,0.09
		c3.37-2.33,6.81-3.04,8.21-2.38c0.44,0.21,0.68,0.55,0.72,1.04c0.17,2.04-6.18,4.55-10.21,5.65c-0.2,0.06-0.33,0.22-0.34,0.43
		c-0.01,0.2,0.11,0.39,0.31,0.45l6.13,2.21c0.16,0.06,0.34,0.02,0.47-0.1c4.03-3.8,20.09-8.46,20.25-8.51
		c0.19-0.06,0.32-0.22,0.33-0.42c0.02-0.19-0.1-0.38-0.28-0.45c-2.76-1.16-9.93-4.71-10.11-7.32c-0.05-0.62,0.34-1.16,1.18-1.66
		c5.48-3.24,14.5,7.82,14.89,8.29c0.16,0.2,0.45,0.23,0.65,0.07c0.19-0.17,0.23-0.45,0.07-0.65c-2.07-2.59-4.87-6.98-4.12-8.46
		c0.2-0.41,0.74-0.59,1.59-0.55c5.57,0.26,7.98,10.69,8.01,10.8c0.06,0.24,0.29,0.39,0.53,0.35c0.24-0.05,0.41-0.27,0.38-0.51
		l-2.99-24.49c-0.03-0.2-0.19-0.37-0.4-0.4l-4.17-0.62c-0.17-0.02-0.33,0.05-0.43,0.18l-2.93,3.74c-1.85,1.54-3.27,2.16-4.03,1.75
		c-1.03-0.56-0.95-2.99-0.84-3.79c0.03-0.19-0.07-0.39-0.26-0.47c-0.18-0.09-0.39-0.06-0.53,0.08c-0.04,0.04-3.5,3.49-5.58,4.79
		c-0.33,0.2-0.53,0.16-0.65,0.09c-0.82-0.37-1.43-2.53-1.62-3.81c-0.04-0.21-0.2-0.38-0.42-0.4c-0.21-0.01-0.42,0.11-0.48,0.31
		c-0.03,0.07-2.44,7.24-5.58,10.91c-0.43,0.5-0.68,0.58-0.77,0.55c-0.8-0.33-1.04-4.84-0.73-8.85c0.01-0.19-0.1-0.38-0.28-0.45
		c-0.18-0.08-0.4-0.04-0.53,0.11c-2.24,2.42-8.65,8.69-11.34,8.48c-0.37-0.03-0.44-0.19-0.48-0.26c-0.61-1.33,2.33-6.21,4.33-8.99
		c0.11-0.16,0.12-0.36,0.02-0.52c-0.1-0.17-0.3-0.24-0.48-0.2c-4.15,0.85-15.4,2.69-17.55,0.94c-0.24-0.19-0.28-0.38-0.28-0.5
		c-0.02-2.3,10.01-4.11,17.14-4.65c0.2-0.02,0.38-0.18,0.42-0.38c0.05-0.2-0.06-0.41-0.24-0.5c-3.32-1.66-8.59-4.98-8.62-6.84
		c0-0.14-0.01-0.55,0.75-0.96c4.19-2.25,12.67,4.99,12.75,5.07c0.16,0.14,0.39,0.15,0.56,0.03c0.18-0.13,0.24-0.35,0.17-0.55
		c-1.56-4.03-3.67-11.01-2.67-12.6c0.1-0.17,0.21-0.24,0.39-0.25c1.96-0.18,4.68,7.57,5.98,13.12c0.05,0.2,0.22,0.34,0.43,0.36
		c0.21,0.01,0.4-0.12,0.46-0.31c1.14-3.19,3-6.65,3.99-6.66c0.37,0.03,0.66,0.63,0.8,1c0.92,2.38,0.75,3.65,0.45,4.31
		c-0.28,0.59-0.69,0.75-0.7,0.75c-0.23,0.07-0.37,0.32-0.3,0.56s0.3,0.38,0.55,0.32c8.17-1.84,20.19-0.01,20.32,0.01
		c0.13,0.02,0.27-0.02,0.37-0.1c0.1-0.09,0.16-0.22,0.16-0.35c0-7.56-5.98-20.92-6.24-21.49c-0.08-0.19-0.29-0.31-0.49-0.27
		c-0.2,0.03-0.36,0.19-0.39,0.4c-0.47,3.63-2.27,13.24-4.87,13.98c-0.31,0.09-0.45,0.01-0.55-0.08c-1.16-1.11-0.22-7.34,0.64-11.01
		c0.05-0.2-0.05-0.42-0.23-0.51c-0.19-0.1-0.42-0.06-0.56,0.09c-2.68,2.96-10.41,10.22-13.8,8.33c-0.44-0.24-0.5-0.51-0.5-0.71
		c-0.05-2.43,7.91-8.13,13.27-11.37c0.22-0.13,0.29-0.41,0.17-0.62c-0.13-0.22-0.41-0.3-0.63-0.18c-0.09,0.06-9.43,5.17-12.38,0.17
		c-0.41-0.68-0.47-1.22-0.19-1.66c1.37-2.15,9.73-1.9,12.83-1.61c0.23,0.02,0.44-0.14,0.49-0.36c0.06-0.23-0.07-0.46-0.3-0.54
		c-3.42-1.22-9.03-3.81-9.51-5.56c-0.06-0.24-0.02-0.44,0.16-0.65c1.5-1.78,8.77,1.1,13,3.33c0.18,0.1,0.41,0.07,0.55-0.09
		c0.14-0.15,0.17-0.38,0.06-0.55L50.3,46.32c-0.08-0.15-0.23-0.22-0.42-0.22l-13.86,0.56c-0.14,0.01-0.27,0.07-0.35,0.19
		c-1.74,2.34-6.87,8.28-9.72,7.71c-0.5-0.1-0.62-0.31-0.67-0.47c-0.45-1.4,2.44-5.23,4.36-7.32c0.15-0.16,0.17-0.4,0.05-0.57
		c-0.12-0.18-0.35-0.25-0.55-0.18c-4.72,1.79-9.44,2.33-11,1.26c-0.31-0.21-0.46-0.48-0.46-0.82c0-1.33,5.45-2.44,10.5-2.71
		c0.23-0.01,0.43-0.2,0.43-0.44c0.01-0.23-0.17-0.44-0.4-0.47c-4.7-0.65-7.82-2.28-7.83-3.08c-0.01-0.27,0.61-0.81,2.95-1.19
		c7-1.12,27.73,5.1,27.93,5.17c0.18,0.06,0.37,0,0.49-0.14c0.12-0.14,0.15-0.33,0.06-0.5c-1.74-3.75-5.34-5.02-8.24-6.04
		c-2.05-0.72-3.67-1.29-3.84-2.46c-0.06-0.45,0.04-0.8,0.32-1.1c1.12-1.16,4.57-1.11,5.8-0.98c0.23,0.02,0.44-0.13,0.5-0.35
		c0.06-0.22-0.06-0.45-0.28-0.54c-2.85-1.17-10.36-4.73-10.83-7.05c-0.06-0.29,0.02-0.41,0.1-0.49c0.93-0.83,5.52,0.09,8.47,1.02
		c0.21,0.07,0.44-0.03,0.55-0.22c0.1-0.19,0.05-0.44-0.13-0.58c-2.64-2.09-9.43-8.1-8.97-10.74c0.08-0.48,0.44-0.81,1.1-1.04
		c5.28-1.77,7.84,4.68,7.94,4.96c0.09,0.22,0.34,0.34,0.57,0.27c0.23-0.07,0.37-0.31,0.31-0.55c-1.11-4.42-2.39-11.9-1.11-13.14
		c0.09-0.08,0.23-0.17,0.53-0.08c2.8,0.8,4.29,9.17,4.63,12.33c0.03,0.22,0.21,0.4,0.43,0.41c0.23,0.02,0.43-0.14,0.48-0.36
		c0.31-1.44,1.42-5.32,2.85-5.98c0.27-0.12,0.53-0.11,0.8,0.05c1.59,0.85-0.39,7.47-2.33,11.96c-0.01,0.04-1.04,3.69-1.71,8.12
		c-0.69,4.61,2.42,8.44,2.55,8.61c0.1,0.12,0.26,0.18,0.43,0.17c0.16-0.03,0.3-0.13,0.35-0.28l2.01-4.68
		c0.04-0.07,0.05-0.16,0.04-0.24c-0.56-4.65-0.42-8.89,0.32-9.07c0.79-0.2,2.21,3.07,3.01,6.12c0.06,0.21,0.25,0.35,0.46,0.35
		c0.22-0.01,0.41-0.18,0.43-0.39c0.6-3.66,3.05-13.09,7.08-12.76c0.81,0.07,1.06,0.43,1.19,0.68c1.03,2.2-3.01,8.74-4.65,11.07
		c-0.14,0.19-0.1,0.46,0.07,0.61c0.18,0.16,0.45,0.15,0.63-0.02c0.02-0.02,2.02-1.87,8.36-1.87c0.87,0,1.3,0.12,1.52,0.21
		c0.26,0.12,0.26,0.22,0.26,0.28c0,1.34-6.15,5.27-9.57,5.27c-4.71,0-9.15,10.09-9.33,10.52c-0.06,0.11-0.06,0.24-0.01,0.36
		l4.01,9.58c0.08,0.19,0.29,0.31,0.5,0.28c0.21-0.04,0.37-0.2,0.39-0.42c0.28-3.32,1.17-8.95,2.36-9.94
		c0.14-0.12,0.22-0.11,0.25-0.11c1.26,0.13,1.95,4.11,2.03,6.91c0.01,0.25,0.21,0.44,0.46,0.44c0.26,0,0.45-0.19,0.46-0.43
		c0.01-0.09,0.47-8.65,3.66-11.08c0.73-0.55,1.53-0.73,2.46-0.53c0.87,0.19,1.43,0.63,1.72,1.33c1.36,3.33-3.6,11.03-3.64,11.1
		c-0.11,0.19-0.09,0.41,0.05,0.56c0.14,0.16,0.37,0.2,0.55,0.1c2.94-1.53,11.16-5.17,13.77-3.64c0.5,0.29,0.76,0.77,0.79,1.47
		c0.02,0.63-0.21,1.19-0.72,1.72c-3.37,3.54-16.63,3.79-18.12,3.81c-0.26,0-0.46,0.21-0.46,0.46c0.01,0.26,0.21,0.46,0.46,0.46
		c1.03,0.01,6.15,0.17,6.15,2.89c0,0.33-0.12,0.57-0.37,0.75c-1.57,1.1-7.06-0.48-9.04-1.18c-0.2-0.07-0.43,0-0.54,0.18
		c-0.12,0.18-0.1,0.42,0.05,0.57c2.77,2.99,7.33,22.97,7.38,23.17c0.03,0.14,0.13,0.26,0.26,0.31c0.13,0.07,0.28,0.07,0.41-0.01
		l3.42-1.78c0.07-0.05,0.14-0.1,0.19-0.18l4.45-7.35c0.06-0.08,0.08-0.19,0.06-0.29c-0.22-2-0.43-7.44,1.33-8.64
		c0.51-0.34,1.18-0.29,2.06,0.18c1.47,0.79,2.28,1.73,2.44,2.81c0.26,1.84-1.47,3.56-1.49,3.58c-0.17,0.16-0.19,0.42-0.06,0.6
		c0.13,0.19,0.38,0.24,0.58,0.14l11.59-5.79c0.16-0.08,0.26-0.25,0.25-0.43c0-0.19-0.12-0.34-0.29-0.42
		c-4.16-1.7-10.74-5.09-10.74-7c0-0.4,0.4-0.75,1.16-1.05c5.82-2.28,12.96,8.19,13.04,8.29c0.11,0.18,0.34,0.25,0.55,0.18
		c0.19-0.07,0.32-0.28,0.3-0.49c-0.02-0.08-1.01-7.8,2.73-8.4c0.51-0.08,0.88,0.03,1.17,0.34c1.37,1.51,0.38,6.93-0.13,8.89
		c-0.06,0.22,0.06,0.45,0.27,0.54c0.2,0.09,0.45,0.02,0.57-0.17c1.4-2.17,5.46-7.89,7.52-8.23c0.27-0.05,0.42,0.04,0.49,0.09
		c0.17,0.14,0.26,0.32,0.28,0.58c0.19,2.03-3.39,6.7-4.79,8.34c-0.08,0.09-0.12,0.21-0.11,0.33c0.01,0.13,0.06,0.24,0.17,0.32
		c1.48,1.21,5.36,4.88,5.58,7.18c0.05,0.44-0.06,0.8-0.3,1.08c-0.22,0.27-0.49,0.39-0.83,0.38c-2.01-0.06-5.5-4.14-6.69-5.71
		c-0.12-0.18-0.35-0.23-0.55-0.16c-0.19,0.08-0.3,0.29-0.28,0.5c1.01,6.74-0.08,9.39-1.16,10.43c-0.79,0.74-1.68,0.75-2.29,0.63
		c-0.04,0-0.12-0.02-0.22-0.19c-0.89-1.33-0.14-6.95,0.58-10.4c0.05-0.25-0.11-0.49-0.36-0.55c-0.24-0.06-0.49,0.1-0.55,0.35
		c-0.01,0.06-1.3,5.65-5.34,5.65c-0.56,0-0.91-0.13-1.04-0.4c-0.5-1.09,1.68-4.4,3.39-6.41c0.12-0.14,0.15-0.33,0.07-0.5
		c-0.08-0.16-0.24-0.27-0.43-0.27c-2.06,0-11.82,4.86-14.76,6.35c-0.23,0.11-0.31,0.39-0.2,0.62c0.11,0.23,0.39,0.32,0.62,0.2
		c1.83-0.9,4.13-1.65,5.12-1.03c0.35,0.21,0.52,0.61,0.52,1.22c0,3.55-7.54,4.43-7.61,4.44c-0.16,0.02-0.31,0.12-0.37,0.27
		c-0.06,0.16-0.05,0.32,0.05,0.46c1.66,2.31,3.96,6.53,3.1,7.96c-0.13,0.2-0.29,0.31-0.53,0.34c-1.21,0.15-3.7-1.83-4.98-3.11
		c-0.09-0.09-0.22-0.14-0.35-0.14c-4.83,0.24-5.96,6.11-5.98,6.17c-0.02,0.1,0,0.19,0.04,0.29c0.74,1.56,1.84,6.74,3.11,14.59
		c0.04,0.22,0.18,0.38,0.46,0.39c0.22,0,0.42-0.18,0.45-0.4c0.15-1.12,0.57-1.9,1.3-2.37c0.45-0.29,0.74-0.2,0.92-0.12
		c1.4,0.64,2.47,4.86,2.82,7.37c0.03,0.19,0.16,0.32,0.32,0.38c0.18,0.06,0.36,0,0.48-0.13l4.01-4.46c0.08-0.1,0.13-0.23,0.11-0.36
		c-0.02-0.14-0.08-0.25-0.19-0.33c-1.2-0.82-4.34-3.35-4.49-5.07c-0.04-0.36,0.07-0.65,0.32-0.91c0.17-0.16,0.37-0.23,0.66-0.22
		c2.19,0.11,6.69,5,8.24,6.87c0.16,0.19,0.44,0.23,0.64,0.07l5.13-4.01c0.13-0.1,0.19-0.27,0.17-0.44
		c-0.03-0.17-0.15-0.31-0.31-0.36c-0.11-0.03-11.25-3.74-13.14-7.8c-0.31-0.66-0.33-1.25-0.1-1.83c0.31-0.76,0.74-1.17,1.32-1.26
		c2.17-0.35,5.99,3.43,7.48,5.13c0.06,0.06,0.11,0.13,0.17,0.19c0.17,0.19,0.45,0.2,0.65,0.04c0.19-0.17,0.21-0.45,0.05-0.65
		c-0.03-0.04-0.08-0.1-0.16-0.18c-3.03-3.63-4.7-12.03-3.58-15.36c0.24-0.73,0.59-1.14,1.03-1.23c0.09-0.01,0.24-0.02,0.45,0.13
		c1.36,0.92,2.93,5.61,4.31,12.91c0.05,0.24,0.27,0.41,0.52,0.37c0.25-0.04,0.42-0.26,0.4-0.5c-0.29-2.91,0.02-4.94,0.89-5.86
		c0.39-0.42,0.91-0.6,1.56-0.57c0.59,0.03,1.05,0.28,1.41,0.76c2.21,2.97-0.26,12.83-0.28,12.92c-0.06,0.23,0.06,0.45,0.27,0.55
		c0.21,0.08,0.46,0.01,0.57-0.19c2.14-3.62,11.29-8.02,11.38-8.05c0.18-0.09,0.3-0.29,0.26-0.49c-0.03-0.2-0.19-0.36-0.39-0.39
		c-0.05-0.01-4.72-0.67-6.36-3.14c-0.05-0.07-0.06-0.11-0.08-0.13c0.73-0.56,6.44,0.43,11.38,1.73c0.2,0.06,0.43-0.04,0.53-0.23
		c0.1-0.19,0.06-0.42-0.09-0.55c-2.3-2.14-5.77-6.13-5.27-7.78c0.05-0.15,0.18-0.61,1.25-0.79c1.14-0.19,2.15,0.04,3.02,0.67
		c2.28,1.66,2.89,5.58,2.9,5.63c0.03,0.21,0.2,0.37,0.42,0.39c0.21,0.02,0.42-0.11,0.48-0.32c1.41-4.5,3.48-9.33,4.5-9.62
		c0.04-0.01,0.05-0.01,0.09,0.03c0.94,0.82-0.94,6.72-3.24,11.71c-0.07,0.19-0.04,0.4,0.1,0.54c0.15,0.13,0.36,0.16,0.54,0.07
		c5.02-2.62,13.63-6.37,15.37-5.32c0.1,0.06,0.21,0.18,0.21,0.45c0,3.01-9.4,6.48-13.03,7.57C123.2,94.99,123.06,95.2,123.08,95.41z
		"/>
	<path style="fill:#7EA32C;" d="M135.64,125.87c-0.69,2.09-6.89,2.05-10.63,1.54c-0.21-0.03-0.43,0.1-0.5,0.31
		c-0.07,0.2,0.01,0.43,0.19,0.55c1.61,1.01,5.84,4.05,6.11,6.05c0.05,0.36-0.05,0.65-0.28,0.91c-0.18,0.18-0.4,0.27-0.67,0.25
		c-2.23-0.15-6.66-5.72-8.18-7.86c-0.13-0.18-0.37-0.25-0.57-0.15c-0.2,0.1-0.3,0.33-0.24,0.55c0.86,2.89,1.71,7.35,0.92,8.24
		c-0.06,0.07-0.16,0.13-0.39,0.09c-2.04-0.4-3.24-5.69-3.52-7.69c-0.03-0.17-0.15-0.31-0.3-0.37c-0.16-0.06-0.34-0.02-0.47,0.09
		l-6.86,6.28c-0.15,0.14-0.19,0.35-0.11,0.54c0.08,0.18,0.28,0.29,0.48,0.27c2.15-0.26,3.09,0.08,3.49,0.42
		c0.26,0.22,0.4,0.51,0.43,0.9c0.05,0.61-0.17,1.16-0.64,1.68c-2.76,3.1-12.88,3.62-12.98,3.62c-0.18,0.01-0.35,0.13-0.42,0.31
		c-0.06,0.18,0,0.38,0.14,0.5c0.1,0.08,9.88,8.43,9.5,12.83c-0.06,0.75-0.44,1.32-1.17,1.75c-0.76,0.44-1.55,0.52-2.42,0.22
		c-4.64-1.59-9.18-12.83-9.22-12.95c-0.07-0.18-0.25-0.29-0.43-0.29H96.8c-0.21,0.04-0.38,0.22-0.39,0.43
		c-0.21,4.11-1.06,8.78-2.04,9.15c-0.13,0.05-0.31-0.04-0.53-0.26c-2.52-2.52-1.25-9.05-1.23-9.12c0.04-0.2-0.06-0.41-0.24-0.5
		c-0.19-0.1-0.41-0.07-0.55,0.08l-12.59,12.94v-3.9l11.23-13.87c0.12-0.15,0.14-0.34,0.06-0.51c-0.83-1.54-2.78-5.92-1.8-7.55
		c0.25-0.42,0.7-0.62,1.4-0.62c0.86,0,1.55,0.3,2.12,0.91c1.88,2.03,1.51,6.72,1.51,6.77c-0.02,0.22,0.13,0.43,0.35,0.48
		c0.21,0.06,0.44-0.06,0.54-0.26c2.15-4.95,5.16-10.28,6.3-10.29c0.54,0.55-0.87,5.24-3.06,10.26c-0.07,0.17-0.04,0.37,0.09,0.51
		c0.14,0.14,0.34,0.18,0.52,0.1c0.05-0.03,4.94-2.15,9.34-3.23c0.15-0.04,0.25-0.14,0.3-0.26l7.22-8.51
		c0.12-0.14,0.14-0.34,0.06-0.51c-0.08-0.17-0.26-0.27-0.45-0.25c-1.57,0.14-6,0.19-7.52-1.12c-0.31-0.28-0.48-0.59-0.5-0.96
		c-0.02-0.29,0.07-0.51,0.29-0.69c1.4-1.17,6.59-0.33,8.48,0.09c0.17,0.05,0.34-0.02,0.45-0.15c0.11-0.13,0.15-0.31,0.08-0.46
		c-0.99-2.54-2.28-7-1.55-8.15c0.08-0.14,0.18-0.19,0.34-0.2c1.64-0.12,3.5,3.82,4.29,6.33c0.06,0.21,0.29,0.35,0.52,0.31
		c0.22-0.04,0.39-0.24,0.38-0.47c-0.1-3.36,0.26-8.33,1.38-8.88c0.18-0.09,0.43,0,0.74,0.26c3.02,2.52,3.07,8.57,3.07,8.64
		c0,0.2,0.14,0.39,0.34,0.44c0.19,0.06,0.41-0.04,0.52-0.21c1.35-2.33,5.4-8.29,7.8-8.04c0.08,0.01,0.18,0.03,0.19,0.08
		c0.37,1.03-3.69,5.98-7.65,9.97c-0.14,0.14-0.18,0.34-0.09,0.52c0.07,0.18,0.26,0.29,0.45,0.27c2.81-0.21,7.64-0.1,8.59,1.12
		C135.71,125.36,135.74,125.58,135.64,125.87z"/>
	<path style="fill:#FACB75;" d="M100.57,73c0.02-0.07,0.03-0.12,0.03-0.12S100.59,72.91,100.57,73z"/>
</g>
</svg>
