<?xml version="1.0" encoding="utf-8"?>
<!-- Generator: Adobe Illustrator 26.0.3, SVG Export Plug-In . SVG Version: 6.00 Build 0)  -->
<svg version="1.1" id="레이어_1" xmlns="http://www.w3.org/2000/svg" xmlns:xlink="http://www.w3.org/1999/xlink" x="0px"
	 y="0px" viewBox="0 0 390 390" style="enable-background:new 0 0 390 390;" xml:space="preserve">
<style type="text/css">
	.st0{fill:#FF7C00;}
	.st1{fill:#FFCE00;}
	.st2{fill:#00B839;}
	.st3{fill:#2F8BFF;}
	.st4{fill:#FFFFFF;}
	.st5{fill:#A90718;}
</style>
<g>
	<g>
		<rect x="161.3" y="273.8" class="st0" width="20.5" height="87.8"/>
		<path d="M183.6,363.4h-24.1V272h24.1V363.4z M163.1,359.8H180v-84.2h-16.9V359.8z"/>
	</g>
	<g>
		<path class="st0" d="M190.4,356.4c0-14.4-12.1-25.9-26.7-25c-13.3,0.9-23.3,12.5-23.3,25.8l0,0c0,7.1,5.8,12.9,12.9,12.9h24.2
			c7.1,0,12.9-5.8,12.9-12.9L190.4,356.4L190.4,356.4z"/>
		<path d="M177.4,372h-24.2c-8.1,0-14.7-6.6-14.7-14.7c0-14.6,11-26.7,25-27.6c7.5-0.5,14.7,2.1,20.1,7.2c5.4,5.1,8.5,12.2,8.5,19.6
			v0.9C192.2,365.4,185.6,372,177.4,372z M165.4,333.2c-0.5,0-1,0-1.6,0.1c-12.1,0.8-21.7,11.3-21.7,24c0,6.1,5,11.1,11.1,11.1h24.2
			c6.1,0,11.1-5,11.1-11.1v-0.9c0-6.5-2.6-12.5-7.3-16.9C176.9,335.4,171.3,333.2,165.4,333.2z"/>
	</g>
</g>
<g>
	<g>
		<rect x="208.5" y="272.2" class="st0" width="20.5" height="88"/>
		<path d="M230.8,362h-24.1v-91.6h24.1V362z M210.3,358.4h16.9V274h-16.9V358.4z"/>
	</g>
	<g>
		<path class="st0" d="M249.6,356.4c0-14.4-12.1-25.9-26.7-25c-13.3,0.9-23.3,12.5-23.3,25.8l0,0c0,7.1,5.8,12.9,12.9,12.9h24.2
			c7.1,0,12.9-5.8,12.9-12.9L249.6,356.4L249.6,356.4z"/>
		<path d="M236.7,372h-24.2c-8.1,0-14.7-6.6-14.7-14.7c0-14.6,11-26.7,25-27.6c7.5-0.5,14.7,2.1,20.1,7.2c5.4,5.1,8.5,12.2,8.5,19.6
			v0.9C251.4,365.4,244.8,372,236.7,372z M224.6,333.2c-0.5,0-1,0-1.6,0.1c-12.1,0.8-21.7,11.3-21.7,24c0,6.1,5,11.1,11.1,11.1h24.2
			c6.1,0,11.1-5,11.1-11.1v-0.9c0-6.5-2.6-12.5-7.3-16.9C236.1,335.4,230.5,333.2,224.6,333.2z"/>
	</g>
</g>
<g>
	<path class="st1" d="M122.2,185.8c-5.7-0.2-10.8,3.4-15.1,7c-11.1,9.3-20.7,20.4-28.4,32.7c-3.5,5.5-6.6,12.3-4.1,18.4
		c2.1,5,7.6,7.8,12.9,9.2c16.4,4.4,35-1.1,46.4-13.7"/>
	<path d="M98.9,256.4c-4,0-8-0.5-11.9-1.5c-5-1.3-11.5-4.2-14.1-10.3c-3-7.1,1-14.8,4.2-20c7.8-12.5,17.5-23.7,28.8-33.2
		c4.5-3.8,10-7.7,16.3-7.4c1,0,1.8,0.9,1.7,1.9c0,1-1,1.8-1.9,1.7c-5.2-0.2-9.9,3.2-13.9,6.6c-11,9.2-20.4,20.1-28,32.3
		c-2.8,4.5-6.3,11.1-3.9,16.7c2,4.7,7.4,7,11.7,8.2c15.7,4.2,33.7-1.1,44.6-13.2c0.7-0.7,1.8-0.8,2.6-0.1c0.7,0.7,0.8,1.8,0.1,2.6
		C126.1,250.7,112.4,256.4,98.9,256.4z"/>
</g>
<g>
	<path class="st1" d="M267.8,185.8c5.7-0.2,10.8,3.4,15.1,7c11.1,9.3,20.7,20.4,28.4,32.7c3.5,5.5,6.6,12.3,4.1,18.4
		c-2.1,5-7.6,7.8-12.9,9.2c-16.4,4.4-35-1.1-46.4-13.7"/>
	<path d="M291.1,256.4c-13.6,0-27.2-5.7-36.3-15.8c-0.7-0.7-0.6-1.9,0.1-2.6c0.7-0.7,1.9-0.6,2.6,0.1c10.9,12.1,28.9,17.4,44.6,13.2
		c4.2-1.1,9.7-3.5,11.7-8.2c2.3-5.6-1.1-12.2-3.9-16.7c-7.6-12.2-17-23.1-28-32.3c-4-3.4-8.8-6.8-13.9-6.6c0,0,0,0-0.1,0
		c-1,0-1.8-0.8-1.8-1.7c0-1,0.7-1.8,1.7-1.9c6.4-0.3,11.8,3.6,16.3,7.4c11.3,9.5,21,20.6,28.8,33.2c3.2,5.2,7.2,12.9,4.2,20
		c-2.5,6.1-9,8.9-14.1,10.3C299.1,255.9,295.1,256.4,291.1,256.4z"/>
</g>
<g>
	<g>
		<path class="st1" d="M197.6,304.2c-12,0-22.3-1.1-31.3-3.4c-14.5-3.6-26.7-10.5-35.3-19.8c-14.6-15.9-20.2-41.2-14.9-67.8
			c0.4-2.3,1-4.5,1.5-6.8c1.5-6.5,3-13.1,2.8-19.7c-0.2-7.5-2.5-14.6-4.9-22.1c-1-3.2-2.1-6.4-3-9.7c-6.2-23-3.2-47.5,8.1-67.2
			C134.8,63,163.3,47.6,195,47.6c25.1,0,48.6,9.6,64.4,26.5c18,19.2,25.4,48.5,19.3,76.7c-0.7,3.4-1.7,6.9-2.6,10.2
			c-1.6,6-3.3,12.2-3.9,18.4c-0.4,4.9-0.2,10.2,0.8,16.6c0.7,4.6,1.7,9.3,2.6,13.8c0.8,3.9,1.7,7.9,2.3,11.9
			c4.5,27-1.3,50.6-15.9,64.5c-15.3,14.6-37.7,17.2-55.5,17.8C203.5,304.1,200.5,304.2,197.6,304.2L197.6,304.2z"/>
	</g>
	<g>
		<path d="M194.9,49.4c23.4,0,46.8,8.6,63.1,25.9c18.4,19.6,24.5,48.8,18.8,75c-2.1,9.7-5.7,19-6.5,28.9c-0.5,5.7-0.1,11.3,0.8,17
			c1.3,8.6,3.6,17.2,5,25.8c3.7,22.2,0.9,47.4-15.4,62.9c-14.1,13.4-34.9,16.6-54.3,17.3c-2.9,0.1-5.9,0.2-8.8,0.2
			c-10.4,0-20.8-0.8-30.9-3.3c-12.9-3.2-25.4-9.5-34.4-19.3c-15.9-17.3-19-43.2-14.5-66.3c1.8-8.9,4.6-17.8,4.3-26.9
			c-0.3-11.1-5.1-21.5-8-32.2c-5.9-21.9-3.4-46.2,8-65.9C137,62.6,165.9,49.4,194.9,49.4 M194.9,45.8c-32.3,0-61.4,15.7-76,41
			c-11.6,20.1-14.6,45.1-8.3,68.6c0.9,3.3,2,6.6,3,9.8c2.4,7.4,4.7,14.3,4.9,21.6c0.2,6.4-1.2,12.6-2.7,19.3c-0.5,2.3-1,4.6-1.5,6.8
			c-5.4,27.2,0.4,53.1,15.4,69.4c8.8,9.6,21.3,16.6,36.2,20.3c9.2,2.3,19.6,3.4,31.8,3.4c2.8,0,5.8-0.1,9-0.2
			c18.1-0.7,41-3.3,56.7-18.3c15.1-14.4,21.1-38.5,16.5-66.1c-0.7-4-1.5-8.1-2.4-12c-1-4.5-1.9-9.2-2.6-13.7
			c-0.9-6.2-1.2-11.3-0.8-16.1c0.5-6.1,2.1-11.9,3.8-18.1c0.9-3.4,1.9-6.8,2.6-10.3c6.2-28.7-1.3-58.7-19.7-78.3
			C244.5,55.6,220.6,45.8,194.9,45.8L194.9,45.8z"/>
	</g>
</g>
<g>
	<g>
		<path class="st2" d="M117.4,173.1c0,0,88.8,74.7,161.5,81.5c0,0-0.9,13.7-4.6,19.2c0,0-110-27.6-157.8-83L117.4,173.1z"/>
		<path d="M274.3,275.6c-0.1,0-0.3,0-0.4-0.1c-1.1-0.3-111.1-28.3-158.7-83.6c-0.3-0.4-0.5-0.8-0.4-1.3l0.9-17.7
			c0-0.7,0.5-1.3,1.1-1.6s1.4-0.2,1.9,0.3c0.9,0.7,89.2,74.4,160.5,81.1c1,0.1,1.7,0.9,1.6,1.9c0,0.6-1,14.3-4.9,20.1
			C275.5,275.3,274.9,275.6,274.3,275.6z M118.4,190.2c44.3,50.8,142.5,78.2,155.1,81.6c2-4,3.1-11.3,3.5-15.5
			c-64.9-7.1-142.3-67-157.9-79.5L118.4,190.2z"/>
	</g>
	<g>
		<path class="st3" d="M287.3,251.1c1.7,0,3.4,0,4.9,0.7c2,0.8,3.4,2.6,4.4,4.5c3.7,7,2.6,15.6,0.9,23.4c-1.5,6.8-3.5,13.7-7.2,19.6
			c-3.7,6-9.3,11-16.1,12.7c-6.8,1.7-14.7-0.5-18.7-6.3c-2.7-3.8-3.3-8.7-3.5-13.4c-0.4-12.6,2.9-25.7,11.2-35.3
			C269.9,249.4,278,251.1,287.3,251.1z"/>
		<path d="M269.6,314.4c-6.3,0-12.3-2.8-15.6-7.6c-3.1-4.5-3.7-10-3.8-14.3c-0.4-14.4,3.7-27.4,11.6-36.5c6.2-7.1,13.5-6.9,21.3-6.7
			c1.4,0,2.7,0.1,4.2,0.1l0,0c1.8,0,3.7,0,5.6,0.8c2.1,0.9,3.9,2.7,5.3,5.3c4.1,7.6,2.8,16.7,1.1,24.6c-1.4,6.4-3.4,13.7-7.4,20.2
			c-4.3,7-10.4,11.8-17.2,13.5C273,314.1,271.3,314.4,269.6,314.4z M279.1,252.7c-5.7,0-10.4,0.8-14.5,5.5
			c-7.3,8.5-11.2,20.5-10.8,34c0.1,3.8,0.6,8.7,3.2,12.4c3.3,4.8,10.4,7.1,16.8,5.5c5.7-1.4,11.2-5.8,15-11.9c3.7-6,5.6-13,6.9-19.1
			c1.6-7.2,2.8-15.5-0.7-22.1c-1-1.9-2.2-3.1-3.5-3.7c-1.2-0.5-2.7-0.5-4.2-0.5c-1.4,0-2.9,0-4.3-0.1
			C281.7,252.8,280.3,252.7,279.1,252.7z"/>
	</g>
	<g>
		<path class="st4" d="M284.4,265.1c-3.8-0.4-10.2-2-13.2-0.6c-2.1,0.9-3.6,5.6-0.6,6.3c7.5,1.8,15.4,2,23.1,1.5
			c2.9-0.2,6.9-2.6,3.4-5.1c-2.8-2-8.6-1.8-11.8-2C285,265.1,284.7,265.1,284.4,265.1z"/>
		<path d="M286.4,274.3c-6,0-11.4-0.6-16.3-1.8c-1.7-0.4-2.9-1.7-3-3.6c-0.2-2.4,1.3-5.3,3.3-6.2c2.8-1.3,7.3-0.6,11.3,0.1
			c1,0.2,2,0.3,2.8,0.4l0,0c0.3,0,0.6,0.1,0.8,0.1c0.5,0,1.2,0.1,1.8,0.1c3.6,0.1,8.1,0.3,10.9,2.2c2.3,1.7,2.3,3.5,2,4.4
			c-0.7,2.3-3.7,3.8-6.3,4C291.2,274.2,288.8,274.3,286.4,274.3z M274.5,265.7c-1.1,0-2,0.1-2.6,0.4c-0.5,0.2-1.3,1.6-1.2,2.5
			c0,0.3,0.1,0.3,0.3,0.4c6.6,1.6,14,2,22.6,1.4c1.5-0.1,2.9-0.9,3.1-1.3c0,0.1-0.2-0.2-0.6-0.5c-1.8-1.3-6.1-1.5-8.9-1.6
			c-0.7,0-1.4-0.1-1.9-0.1c-0.3,0-0.7-0.1-1-0.1c-0.9-0.1-1.9-0.3-3-0.4C279.1,266.1,276.5,265.7,274.5,265.7z"/>
	</g>
	<g>
		<path class="st3" d="M297.4,268.7c-0.4,0-0.9-0.1-1.2,0.2c-0.2,0.2-0.3,0.6-0.3,0.9c-0.6,6-0.4,12.1,0.5,18.1
			c0.1,0.7,0.3,1.4,0.8,1.8c0.4,0.3,0.9,0.3,1.4,0.3c1.2,0,2.4,0,3.6,0c0.8,0,1.6,0,2.3-0.4c1.5-0.9,1.5-2.9,1.2-4.6
			c-0.6-3.9-1.4-7.8-2.6-11.7C302.1,269.5,301.6,269.1,297.4,268.7z"/>
		<path d="M302.6,291.9c-0.1,0-0.2,0-0.3,0h-3.6c-0.6,0-1.5,0-2.4-0.6c-1.3-0.9-1.5-2.4-1.6-3.1c-0.9-6.1-1.1-12.4-0.5-18.5
			c0-0.4,0.1-1.3,0.8-2c0.9-0.9,2.2-0.8,2.6-0.7l0,0c4.9,0.5,6.1,1.4,7.4,6c1.2,4,2,8,2.6,11.9c0.5,3.2-0.2,5.4-2.1,6.4
			C304.5,291.8,303.4,291.9,302.6,291.9z M297.7,270.6c-0.5,5.8-0.3,11.5,0.5,17.1c0.1,0.3,0.1,0.5,0.1,0.6c0-0.1,0.2-0.1,0.3-0.1
			h3.6c0.4,0,1.1,0,1.4-0.1c0.3-0.2,0.6-1,0.3-2.8c-0.5-3.7-1.4-7.6-2.5-11.4C300.7,271,300.6,270.9,297.7,270.6z"/>
	</g>
</g>
<g>
	<path class="st1" d="M177.5,51.7c0,0,6.5-16.1,17.5-12.5c14.6,4.7,17.6-5.4,17.6-5.4s4.8,17.9-11.2,24.6"/>
	<path d="M201.4,60.2c-0.7,0-1.4-0.4-1.7-1.1c-0.4-0.9,0.1-2,1-2.4c9.7-4.1,11-12.6,10.7-18c-0.7,0.7-1.6,1.4-2.7,1.9
		c-3.8,2-8.6,2.1-14.3,0.2c-9.3-3-15.2,11.3-15.3,11.5c-0.4,0.9-1.4,1.4-2.4,1c-0.9-0.4-1.4-1.4-1-2.4c0.3-0.7,7.3-17.6,19.7-13.6
		c4.8,1.5,8.6,1.5,11.5,0.1c3-1.5,3.8-4.2,3.8-4.3c0.2-0.8,1-1.4,1.8-1.3c0.8,0,1.5,0.6,1.7,1.3c0.1,0.2,5,19.5-12.2,26.7
		C201.9,60.2,201.6,60.2,201.4,60.2z"/>
</g>
<g>
	<g>
		<path d="M208.4,112.4c-0.4,0-0.8-0.1-1.1-0.4c-0.8-0.6-0.9-1.7-0.3-2.5c0.2-0.3,5-6.3,15.2-2.9c0.9,0.3,1.5,1.3,1.2,2.3
			c-0.3,0.9-1.3,1.5-2.3,1.2c-7.8-2.6-11.2,1.7-11.2,1.7C209.4,112.2,208.9,112.4,208.4,112.4z"/>
	</g>
	<g>
		<path d="M181.6,112.4c-0.5,0-1.1-0.2-1.4-0.7c-0.2-0.2-3.6-4.2-11.3-1.7c-1,0.3-2-0.2-2.3-1.2s0.2-2,1.2-2.3
			c10.2-3.3,15,2.7,15.2,2.9c0.6,0.8,0.5,1.9-0.3,2.5C182.4,112.3,182,112.4,181.6,112.4z"/>
	</g>
</g>
<g>
	<g>
		<g>
			<path class="st0" d="M203.5,138.7c1.9,0,3.1,2.2,2.1,4c-1.7,2.9-4.8,6.3-10.2,6.3c-5.3,0-8.8-3.3-10.8-6.1c-1.2-1.7,0-4.1,2-4.1
				L203.5,138.7L203.5,138.7z"/>
			<path d="M195.3,150.8c-6.1,0-10.1-3.8-12.3-6.9c-1-1.4-1.1-3.2-0.3-4.7s2.2-2.4,3.8-2.4h17c1.5,0,2.9,0.8,3.7,2.2s0.8,3.2,0,4.6
				C205.2,146.9,201.6,150.8,195.3,150.8z M186.5,140.6c-0.3,0-0.4,0.2-0.5,0.3s-0.2,0.5,0,0.9c1.7,2.4,4.7,5.4,9.3,5.4
				c3.6,0,6.5-1.8,8.6-5.4c0.2-0.4,0.1-0.8,0-0.9c-0.1-0.1-0.2-0.3-0.5-0.3H186.5z"/>
		</g>
		<g>
			<path class="st0" d="M209.4,123.6c-2.4-3.9-6.8-5.5-14.4-5.5c-7.6,0-12.1,1.6-14.4,5.5c-1.4,2.3-0.3,4.6,2.7,6.3
				c4.5,2.5,10.4,2.5,15.4,2.2c2.8-0.2,5.6-0.8,8.1-2.2C209.7,128.2,210.9,125.9,209.4,123.6z"/>
			<path d="M194.4,134.1c-4.2,0-8.4-0.5-12-2.6c-2.2-1.3-3.7-2.9-4.1-4.6c-0.4-1.4-0.1-2.9,0.7-4.2c2.7-4.4,7.7-6.3,16-6.4
				c8.4,0.1,13.2,1.9,16,6.4l0,0c0.8,1.3,1.1,2.8,0.7,4.2c-0.5,1.8-1.9,3.4-4.1,4.6c-2.4,1.4-5.4,2.2-8.8,2.4
				C197.3,134,195.9,134.1,194.4,134.1z M194.8,119.9c-6.9,0-10.7,1.4-12.7,4.6c-0.4,0.7-0.4,1.1-0.3,1.4c0.2,0.8,1,1.6,2.4,2.4
				c4,2.3,9.5,2.3,14.4,1.9c2.9-0.2,5.3-0.8,7.3-1.9c1.3-0.8,2.2-1.6,2.4-2.4c0.1-0.3,0.1-0.7-0.3-1.4c-2-3.2-5.8-4.6-12.7-4.6
				C195,119.9,194.9,119.9,194.8,119.9z"/>
		</g>
	</g>
	<g>
		<path class="st5" d="M183.3,129.9L183.3,129.9c0,0,2.8,11.9,11.7,11.9s11.7-11.9,11.7-11.9l0,0
			C199.2,126.9,190.8,126.9,183.3,129.9z"/>
		<path d="M195,143.7c-10.3,0-13.4-12.8-13.5-13.3l-0.3-1.5l1.4-0.6c8-3.2,16.8-3.2,24.8,0l1.4,0.6l-0.3,1.5
			C208.3,130.9,205.3,143.7,195,143.7z M185.5,131c1,2.9,3.8,9,9.5,9s8.5-6.1,9.5-9C198.3,128.9,191.7,128.9,185.5,131z"/>
	</g>
</g>
</svg>
