<?xml version="1.0" encoding="utf-8"?>
<!-- Generator: Adobe Illustrator 26.5.0, SVG Export Plug-In . SVG Version: 6.00 Build 0)  -->
<svg version="1.1" id="레이어_5" xmlns="http://www.w3.org/2000/svg" xmlns:xlink="http://www.w3.org/1999/xlink" x="0px"
	 y="0px" viewBox="0 0 390 390" style="enable-background:new 0 0 390 390;" xml:space="preserve">
<g>
	<path style="fill:#62CAF6;" d="M154,165.6c-1.1-0.5-2.3-0.9-3.5-1.2c-10.6-3-22,7.6-30.3,14.7c-10.6,9-18.5,21.3-23.2,35.5
		c-2.8,8.6-4.2,17.4-5.7,26.3c-1,5.5-2.1,13.3,3.7,15.4c8.8,3.2,18.4,2.8,27.7,2.2c1.7-0.1,4.3,0.3,5.1-1.9c0.4-1,0.3-2.2,0.3-3.3
		c-0.3-6.4-0.8-13.5,0-19.8c0.8-6.4,3.2-12.5,5.8-18.2c3.1-6.8,6.8-13.7,12-18.7c5.6-5.3,11.6-9.3,14.4-17.2
		C162.6,172.2,159.3,168,154,165.6z"/>
	<path d="M112.4,260.3c-6,0-12.2-0.6-18-2.7c-7.1-2.6-5.4-11.9-4.6-16.9l0.6-3.3c1.3-7.7,2.7-15.6,5.2-23.2
		c4.8-14.5,12.9-27,23.6-36.1l1.6-1.4c8.6-7.4,19.3-16.6,30-13.6c1.4,0.4,2.6,0.8,3.7,1.3l0,0c6.9,3.1,9.2,8.5,6.8,15.6
		c-2.3,6.7-7,10.9-11.5,14.9c-1.1,1-2.2,1.9-3.2,2.9c-5.4,5.1-9.1,12.4-11.7,18.2c-2.5,5.6-4.9,11.6-5.7,17.8
		c-0.7,5.4-0.4,11.4-0.1,17.2l0.1,2.4c0.1,1.2,0.1,2.5-0.3,3.8c-1,2.8-3.8,2.8-5.5,2.9c-0.3,0-0.5,0-0.8,0
		C119.3,260.2,115.9,260.3,112.4,260.3z M146.7,165.3c-8.3,0-16.9,7.4-24,13.5l-1.6,1.4C110.8,189,102.9,201,98.3,215
		c-2.4,7.4-3.7,14.9-5.1,22.8l-0.6,3.3c-1,5.8-1.8,12.2,2.8,13.8c8.7,3.2,18,2.7,27.1,2.2c0.3,0,0.6,0,0.9,0c1.9,0,2.6-0.2,2.9-1
		c0.3-0.8,0.2-1.7,0.2-2.7l-0.1-2.4c-0.3-5.9-0.6-12,0.1-17.7c0.8-6.6,3.3-12.8,5.9-18.6c2.7-6,6.6-13.7,12.3-19.1
		c1.1-1,2.2-2,3.3-3c4.4-3.9,8.6-7.7,10.7-13.7c2-5.7,0.2-9.6-5.3-12.1l0,0c-1-0.4-2.1-0.8-3.3-1.2
		C149,165.4,147.8,165.3,146.7,165.3z"/>
</g>
<g>
	<path style="fill:#FFF267;" d="M219.5,127.4c6.5,10.2,7.2,24.2,1.9,35.2c-5.3,10.9-16.5,18.4-28.1,18.7c11.5,2.5,22.7,8,30.6,17.2
		s12.2,22.3,9.6,34.5c10.3-7.2,22.7-14,35.1-16.5c4.9-1,8.7-1.8,13.4-3.6c3.2-1.3,14.3-5.5,17.5-3c-7.8-6.2-13.2-15.2-15.3-25
		c-1-4.8-1.4-9.4,0.3-13.9c0.6-1.7,5.8-12.8,7.7-12.7c-6.2-0.4-10.7-7-11.1-13.6c-0.3-6.2,2.5-11.6,4.3-17.1
		c-0.8,2.4-13.5,5.7-16,6.5c-4.5,1.4-8.5,1.4-12.2-2.3c-1.9-1.9-3.4-4.4-4.7-6.8c0.1,4.2-2.6,8.2-6.2,10.1
		C239,139.1,224.1,134.7,219.5,127.4z"/>
	<path d="M233.5,234.3c-0.3,0-0.5-0.1-0.8-0.2c-0.5-0.3-0.7-0.9-0.6-1.5c2.4-11.1-1.2-23.9-9.3-33.3c-9-10.4-21.2-14.8-29.8-16.7
		c-0.7-0.1-1.2-0.8-1.1-1.5c0.1-0.7,0.6-1.3,1.4-1.3c11-0.3,21.8-7.5,26.9-17.9c5.1-10.5,4.4-24-1.8-33.8l0,0
		c-0.4-0.7-0.2-1.5,0.4-1.9c0.7-0.4,1.5-0.2,1.9,0.4l0,0c4.2,6.7,18.4,10.7,24.9,7.2c3.3-1.8,5.5-5.4,5.5-8.9c0-0.6,0.4-1.2,1-1.4
		c0.6-0.2,1.3,0.1,1.6,0.7c1.3,2.4,2.7,4.7,4.5,6.5c2.9,2.9,6.1,3.5,10.8,2c0.4-0.1,1-0.3,1.8-0.5c10.2-3,12.9-4.4,13.3-5.1
		c0.2-0.7,1-1.1,1.8-0.8c0.7,0.2,1.1,1.1,0.9,1.8l0,0l0,0c-0.4,1.2-0.9,2.5-1.4,3.7c-1.6,4.3-3.2,8.3-2.9,12.8
		c0.3,5.6,4.1,11.9,9.8,12.3c0.8,0,1.4,0.7,1.3,1.5c0,0.7-0.6,1.2-1.2,1.3c-1.5,1-5.7,9.5-6.5,11.7c-1.7,4.6-1.1,9.2-0.2,13.1
		c2,9.5,7.4,18.3,14.8,24.1l0,0l0,0c0.6,0.5,0.7,1.4,0.2,2s-1.4,0.7-2,0.2c-1.2-1-6.2-0.7-16.1,3.2c-4.9,1.9-8.9,2.8-13.6,3.7
		c-10.6,2.1-22.2,7.5-34.6,16.2C234.1,234.2,233.8,234.3,233.5,234.3z M200.2,181.7c8,2.6,17.4,7.3,24.7,15.8
		c7.9,9.1,11.8,21.3,10.5,32.4c11.6-7.8,22.7-12.8,32.9-14.8c4.6-0.9,8.5-1.7,13.1-3.6c5.7-2.2,10.2-3.5,13.5-3.8
		c-6-6-10.4-14-12.2-22.6c-0.9-4.3-1.6-9.4,0.3-14.7c0-0.1,3-7.5,6-11.4c-5.6-2-9.2-8.5-9.5-14.3c-0.3-5,1.3-9.4,2.9-13.6
		c-2.4,1.1-5.9,2.2-11,3.7c-0.8,0.2-1.3,0.4-1.7,0.5c-3.9,1.2-8.9,2-13.6-2.6c-1.2-1.1-2.1-2.4-3-3.8c-1.1,3-3.3,5.7-6.2,7.3
		c-5.8,3.2-16,1.6-22.9-2.8c3.4,9.5,3,20.7-1.3,29.7C218.2,172.4,209.7,179.2,200.2,181.7z M292.3,159.7L292.3,159.7z"/>
</g>
<g>
	<path style="fill:#62CAF6;" d="M228.8,272.2c-0.1,0,13.9,70.9,15.8,83.6c0.3,1.8,0.5,3.6-0.2,5.2c-2.1,4.9-17.3,6.3-22.1,6.3
		c-5.9,0-17.6,0.1-24.6-2.4c-2-0.7-3.4-2.3-3.8-4.2c-0.4-2-0.9-4.6-0.9-6.4c0-3.2,0.1-76.1,0.1-76.1L228.8,272.2z"/>
	<path d="M221.7,368.8c-6.2,0-17.4,0-24.3-2.4c-2.4-0.8-4.2-2.8-4.7-5.2c-0.6-2.9-0.9-5.1-0.9-6.7c0-3.2,0.1-76.1,0.1-76.1v-1.2
		l36.7-6.4l0.2,1.4l1.4-0.2c0.1,0.4,1.2,6.2,2.6,13.5c4.1,21.3,11.8,60.9,13.2,70.1c0.3,2,0.5,4.1-0.3,6c-2.8,6.8-23.1,7.2-23.3,7.2
		H222C221.9,368.8,221.8,368.8,221.7,368.8z M194.7,279.6c0,9.4-0.1,72-0.1,74.9c0,1.3,0.3,3.4,0.9,6.1c0.3,1.5,1.4,2.6,2.9,3.1
		c6.6,2.3,17.8,2.3,23.8,2.3h0.4c6.4,0,19.3-1.9,20.8-5.5c0.5-1.3,0.4-2.8,0.1-4.5c-1.4-9.2-9.1-48.8-13.2-70
		c-1.3-6.8-2-10.3-2.3-12.2L194.7,279.6z"/>
</g>
<g>
	<path style="fill:#62CAF6;" d="M151,272.2c0.1,0-13.9,70.9-15.8,83.6c-0.3,1.8-0.5,3.6,0.2,5.2c2.1,4.9,17.3,6.3,22.1,6.3
		c5.9,0,17.6,0.1,24.6-2.4c2-0.7,3.4-2.3,3.8-4.2c0.4-2,0.9-4.6,0.9-6.4c0-3.2-0.1-76.1-0.1-76.1L151,272.2z"/>
	<path d="M158.2,368.8c-0.1,0-0.3,0-0.4,0h-0.4c-0.2,0-20.5-0.4-23.3-7.2c-0.8-2-0.6-4-0.3-6c1.4-9.2,9.1-48.6,13.2-69.8
		c1.4-7.5,2.6-13.4,2.7-13.8l1.4,0.2l0.2-1.4l36.7,6.4v1.2c0,0,0.1,73,0.1,76.1c0,1.5-0.3,3.8-0.9,6.7c-0.5,2.4-2.3,4.4-4.7,5.2
		C175.5,368.8,164.4,368.8,158.2,368.8z M152.1,273.8c-0.3,1.9-1,5.5-2.4,12.5c-4.1,21.2-11.7,60.6-13.2,69.7
		c-0.3,1.6-0.4,3.2,0.1,4.5c1.5,3.6,14.3,5.5,20.8,5.5h0.4c6.1,0,17.2,0,23.8-2.3c1.5-0.5,2.5-1.7,2.9-3.1c0.6-2.7,0.9-4.8,0.9-6.1
		c0-2.9-0.1-65.5-0.1-74.9L152.1,273.8z"/>
</g>
<g>
	<g>
		<path style="fill:#242424;" d="M194.7,142.1c-9.5,0-19,1.1-26.1,2.8c-9.2,2.2-25.8,11-32.5,45c-1.5,7.6-3.6,15.1-5.7,22.4
			c-1.2,4.3-2.4,8.7-3.5,13c-2.8,10.9-1.9,33.6,11.9,51.3c11.8,15.2,30.1,22.9,54.4,22.9s42.5-7.7,54.4-22.9
			c13.8-17.7,14.7-40.3,11.9-51.3l0,0c-1.8-7.2-3.4-12.1-4.9-16.8c-2.5-8-4.9-15.5-8.2-33.2c-4.3-22.9-28.4-30.4-28.6-30.5
			C211.1,142.9,202.9,142.1,194.7,142.1z"/>
		<path d="M193.1,301.2c-24.8,0-43.5-7.9-55.7-23.6c-14.1-18.2-15-41.4-12.2-52.7c1.1-4.3,2.3-8.6,3.5-12.8l0.1-0.3
			c2-7.3,4.2-14.8,5.7-22.3c6.9-34.9,24.1-44,33.8-46.3c7.6-1.8,17.2-2.8,26.5-2.8c9.1,0,17.2,1,23.4,2.9
			c0.3,0.1,25.4,7.9,29.8,31.8c3.3,17.5,5.6,25,8.2,33c1.5,4.7,3,9.6,4.9,16.9c2.8,11.2,1.9,34.5-12.2,52.7
			C236.6,293.2,217.9,301.2,193.1,301.2z M194.7,143.7c-9,0-18.4,1-25.7,2.7c-8.9,2.1-24.7,10.6-31.3,43.7
			c-1.5,7.6-3.7,15.2-5.7,22.6l-0.1,0.3c-1.2,4.1-2.4,8.4-3.4,12.7c-2.7,10.6-1.8,32.6,11.6,49.8c11.5,14.8,29.4,22.3,53.1,22.3
			s41.6-7.5,53.1-22.3c13.4-17.2,14.3-39.2,11.6-49.8c-1.8-7.2-3.4-12-4.8-16.7c-2.6-8-5-15.6-8.3-33.4c-4-21.8-27.3-29.1-27.5-29.2
			C211.2,144.7,203.5,143.7,194.7,143.7z"/>
	</g>
	<g>
		<path style="fill:#62CAF6;" d="M238,145.2c-8.4,5.4-12.5,15.3-15.7,25.3l-0.7,2.2c-2.9,9.2-5.9,18.7-12.8,25.4
			c-2.4,2.4-5,4.1-7.7,5c-2.5,0.8-5.1,1-7.5,1.1c-1,0-2,0.1-2.9,0.1c-9.6,0-17.1-2-22.8-6.1c-6.5-4.6-11.2-12.5-13.2-22.1
			c-1.8-8.6-1.4-17.4-1-26"/>
		<path d="M190.7,205.9c-10,0-17.7-2.1-23.8-6.4c-6.8-4.9-11.7-13.1-13.8-23.1c-1.8-8.8-1.4-17.7-1-26.4l3.3,0.2
			c-0.4,8.4-0.8,17.2,0.9,25.6c1.9,9.2,6.3,16.7,12.5,21.1c6,4.3,14.1,6.1,24.7,5.7c2.3-0.1,4.8-0.3,7-1c2.4-0.8,4.8-2.4,7.1-4.6
			c6.6-6.5,9.5-15.8,12.4-24.7l0.7-2.2c3.3-10.2,7.6-20.5,16.4-26.2l1.8,2.8c-8,5.1-11.9,14.7-15,24.4l-0.7,2.2
			c-3,9.4-6.1,19-13.2,26.1c-2.6,2.6-5.4,4.4-8.3,5.4c-2.6,0.9-5.4,1.1-8,1.2C192.6,205.9,191.6,205.9,190.7,205.9z"/>
	</g>
</g>
<g>
	<g>
		<path style="fill:#62CAF6;" d="M227,176.4c0.2-1.1,0.5-2.1,1-3.1c2.8-5.8,10.8-7.6,16.9-5.4c6.1,2.1,10.8,7.1,15,12
			c12.8,14.7,17.7,27.7,22.3,46c2,8,2.5,16.2,3.2,24.4c0.5,5.1,0.9,12.2-5.1,13.7c-9.1,2.2-18.5,1-27.8-0.2
			c-1.7-0.2-4.3-0.1-4.8-2.2c-0.3-1-0.1-2,0.1-3c0.9-5.8,2-12.2,1.8-18c-0.3-9.1-3.9-18.8-7.9-26.9c-3.7-7.7-7.4-15.4-11.1-23.1
			C228.4,186.3,226.3,181.2,227,176.4z"/>
		<path d="M269,266.7c-5.7,0-11.4-0.8-16.7-1.4c-0.2,0-0.5-0.1-0.8-0.1c-1.7-0.2-4.5-0.4-5.2-3.1c-0.3-1.2-0.2-2.5,0-3.6l0.3-2.1
			c0.8-5.2,1.7-10.6,1.5-15.6c-0.2-7.5-2.8-16.1-7.7-26.3l-11.1-23.1c-2.4-4.9-4.5-10.2-3.7-15.1c0.2-1.2,0.6-2.4,1.1-3.5
			c3.2-6.7,12.2-8.4,18.6-6.1c6.4,2.2,11.2,7.4,15.6,12.4c13,15,18,28,22.6,46.6c1.8,7.1,2.4,14.5,3,21.6l0.3,3.1
			c0.4,4.7,1.2,13.4-6.1,15.2C276.8,266.4,272.9,266.7,269,266.7z M239.5,168.5c-4.2,0-8.5,1.7-10.3,5.5c-0.4,0.8-0.7,1.7-0.8,2.7
			l0,0c-0.6,4.2,1.3,8.9,3.5,13.5l11.1,23.1c5.1,10.6,7.7,19.6,8,27.5c0.2,5.3-0.7,10.8-1.5,16.2l-0.3,2.1c-0.1,0.9-0.3,1.7-0.1,2.4
			c0.2,0.7,1,0.9,2.8,1.1c0.3,0,0.6,0.1,0.9,0.1c9,1.2,18.3,2.4,27.2,0.2c4.6-1.1,4.5-6.7,4-12.2l-0.3-3.1
			c-0.6-7.3-1.2-14.2-2.9-21.1c-4.5-18.2-9.3-30.8-22-45.4c-4.1-4.8-8.6-9.6-14.4-11.6C242.9,168.7,241.2,168.5,239.5,168.5z"/>
	</g>
	<g>
		<path style="fill:#E0E0E0;" d="M272.8,264.7c0.1-1.5,0.2-3,0.6-4.5c0.3-1.2,0.7-2.3,1.4-3.3c1.3-1.9,3.7-3.1,5.6-2.2
			c1.3,0.6,2.2,2.1,2.5,3.6c0.3,1.5,0.1,3.1-0.2,4.6c0,0-1.1,0.9-4.7,1.5C274.4,265,272.8,264.7,272.8,264.7z"/>
		<path d="M274.5,266.3c-1.3,0-1.9-0.1-2-0.2c-0.7-0.2-1.1-0.8-1.1-1.5v-0.4c0.1-1.4,0.3-2.8,0.6-4.3c0.4-1.5,0.9-2.7,1.6-3.7
			c1.5-2.2,4.6-3.9,7.4-2.6c1.6,0.8,2.9,2.5,3.3,4.6c0.3,1.8,0.1,3.5-0.2,5.1c-0.1,0.3-0.2,0.6-0.5,0.8c-0.2,0.2-1.6,1.2-5.3,1.8
			C276.7,266.2,275.5,266.3,274.5,266.3z M272.8,264.7L272.8,264.7L272.8,264.7z M274.3,263.5c0.8,0,1.9,0,3.5-0.3
			c2-0.3,3.1-0.8,3.6-1c0.2-1.2,0.3-2.4,0.1-3.5c-0.2-1.2-0.9-2.2-1.7-2.6c-1.3-0.6-3,0.4-3.9,1.7c-0.5,0.7-0.9,1.7-1.2,2.9
			C274.6,261.5,274.4,262.5,274.3,263.5z"/>
	</g>
	<g>
		<path style="fill:#E0E0E0;" d="M261.2,264.9c0.1-1.5,0.2-3,0.6-4.5c0.3-1.2,0.7-2.3,1.4-3.3c1.3-1.9,3.7-3.1,5.6-2.2
			c1.3,0.6,2.2,2.1,2.5,3.6c0.3,1.5,0.1,5.2-0.2,6.8c0,0-0.5,0.2-4,0.2C263.3,265.4,261.2,264.9,261.2,264.9z"/>
		<path d="M268.3,266.9c-0.4,0-0.8,0-1.2,0c-3.9-0.1-6.1-0.6-6.2-0.6c-0.7-0.2-1.1-0.8-1.1-1.5v-0.4c0.1-1.4,0.3-2.8,0.6-4.3
			c0.4-1.5,0.9-2.7,1.6-3.7c1.5-2.2,4.6-3.9,7.4-2.6c1.6,0.8,2.9,2.5,3.3,4.6c0.3,1.7,0.1,5.6-0.2,7.3c-0.1,0.4-0.4,0.8-0.8,1
			C271.4,266.6,271,266.9,268.3,266.9z M262.7,263.7c1,0.1,2.5,0.3,4.4,0.3c1.3,0,2.2,0,2.7,0c0.2-1.7,0.3-4.2,0.1-5.3
			c-0.2-1.2-0.9-2.2-1.7-2.6c-1.3-0.6-3,0.4-3.9,1.7c-0.5,0.7-0.9,1.7-1.2,2.9C262.9,261.7,262.8,262.7,262.7,263.7z"/>
	</g>
</g>
<g>
	<g>
		<g>
			<path style="fill:#62CAF6;" d="M168.8,41.1c0,0-2.9-17.7-21.9-17.2s-4.9,25,7.7,28.4"/>
			<path d="M154.2,53.6c-9.2-2.5-19-15.4-17.9-23.6c0.3-2.7,2.2-7.4,10.6-7.5c20-0.5,23.2,18.2,23.3,18.4l-2.8,0.5
				c-0.1-0.7-3-16.5-20.5-16.1c-4.8,0.1-7.5,1.8-7.9,5.1c-0.8,6.9,8.1,18.5,15.9,20.6L154.2,53.6z"/>
		</g>
		<g>
			<path style="fill:#62CAF6;" d="M246.7,97.5v-10c0-31.6-24.1-57.2-53.8-57.2s-53.8,25.6-53.8,57.2v10.1
				c-8.1,10.5-12.9,23.1-12.9,35.7c0,32.8,42.6,46.8,68.4,46.8c23.3,0,46.1-9.7,59.3-29.8c2.7-4.1,5.7-9,5.7-14.2v-2.8
				C259.6,120.6,254.8,108.1,246.7,97.5z"/>
			<path d="M194.6,181.4c-28.1,0-69.8-15.3-69.8-48.2c0-12.4,4.6-25.2,12.9-36.2v-9.6c0-32.3,24.8-58.6,55.2-58.6
				c30.5,0,55.2,26.3,55.2,58.6V97c8.3,11,12.9,23.8,12.9,36.2v2.8c0,5.4-3.1,10.6-5.9,14.9C242.4,170.3,220.3,181.4,194.6,181.4z
				 M192.9,31.7c-28.9,0-52.4,25-52.4,55.8V98l-0.3,0.4c-8.1,10.6-12.6,23-12.6,34.9c0,17.7,13,28.5,23.8,34.5
				c14.7,8.1,32,10.9,43.2,10.9c24.8,0,46-10.6,58.2-29.2c2.6-4,5.5-8.7,5.5-13.4v-2.8c0-11.9-4.5-24.3-12.6-34.9l-0.3-0.4V87.5
				C245.3,56.7,221.8,31.7,192.9,31.7z"/>
		</g>
		<g>
			<path style="fill:#62CAF6;" d="M193.7,38.8c0,0,2.9-17.7,21.9-17.2c19.1,0.4,4.9,25-7.7,28.4"/>
			<path d="M207.9,51.4c-0.6,0-1.2-0.4-1.4-1c-0.2-0.7,0.2-1.5,1-1.7c7.8-2.1,16.8-13.7,15.9-20.6c-0.4-3.3-3-5-7.9-5.1
				c-17.6-0.4-20.3,15.3-20.4,16c-0.1,0.8-0.8,1.3-1.6,1.2c-0.8-0.1-1.3-0.8-1.2-1.6c0-0.2,3.3-18.9,23.3-18.4
				c8.4,0.2,10.2,4.8,10.6,7.5c1,8.3-8.7,21.1-17.9,23.6C208.2,51.3,208,51.4,207.9,51.4z"/>
		</g>
		<g>
			<path style="fill:#005E8D;" d="M203.9,45.6c0,0,5.6-11.8,15.3-15.1C219.2,30.4,218.8,43,203.9,45.6z"/>
			<path d="M203.9,47c-0.4,0-0.8-0.2-1.1-0.6c-0.3-0.4-0.4-1-0.1-1.4c0.2-0.5,6-12.3,16.1-15.8c0.4-0.2,0.9-0.1,1.3,0.2
				c0.4,0.3,0.6,0.7,0.6,1.2c0,0.1-0.7,13.7-16.4,16.4C204.1,46.9,204,47,203.9,47z M217.4,32.7c-5,2.6-8.7,7.6-10.7,10.7
				C214.1,41.1,216.6,35.8,217.4,32.7z"/>
		</g>
	</g>
	<path d="M239.9,92.8c-0.8,2.7-3.7,4.3-6.4,3.5s-4.3-3.7-3.5-6.4c0.8-2.7,3-2.1,5.8-1.2C238.5,89.4,240.7,90.1,239.9,92.8z"/>
	<path d="M258.8,136c-0.1,0-0.2,0-0.3,0c-10-1.9-21.4-4-31.6-0.6c-0.7,0.2-1.5-0.2-1.8-0.9c-0.2-0.7,0.2-1.5,0.9-1.8
		c10.9-3.6,22.7-1.5,33,0.5c0.8,0.1,1.3,0.9,1.1,1.6C260.1,135.6,259.5,136,258.8,136z"/>
</g>
</svg>
