<?xml version="1.0" encoding="utf-8"?>
<!-- Generator: Adobe Illustrator 26.5.0, SVG Export Plug-In . SVG Version: 6.00 Build 0)  -->
<svg version="1.1" id="레이어_1" xmlns="http://www.w3.org/2000/svg" xmlns:xlink="http://www.w3.org/1999/xlink" x="0px"
	 y="0px" viewBox="0 0 220 170" style="enable-background:new 0 0 220 170;" xml:space="preserve">
<path style="fill:#FFFFFF;stroke:#000000;stroke-width:2;stroke-linecap:round;stroke-linejoin:round;stroke-miterlimit:10;" d="
	M124.4,188.5"/>
<path style="fill:#363636;stroke:#000000;stroke-width:2;stroke-linecap:round;stroke-linejoin:round;stroke-miterlimit:10;" d="
	M201.5-17.2"/>
<path style="fill:#363636;stroke:#000000;stroke-width:1.2;stroke-linecap:round;stroke-linejoin:round;stroke-miterlimit:10;" d="
	M131.4,6.5"/>
<g>
	<path style="fill:#AEE8FF;" d="M152.6,145.7c-6.5,0.9-24.1,2.6-25.8,11c-1.9,9.3,11.3,12.5,17.9,12.9c19.2,1.1,38.6-0.3,57.9-0.1
		c5.6,0,11.9-0.3,15.5-4.5c3.4-4.1,2.3-11.1-2.2-13.9c-4.3-2.8-11-2.8-15.9-3.9c-7.5-1.7-14.5-1.3-21.9-2
		c-8.3-0.7-16.7-0.7-24.9,0.5C152.9,145.6,152.8,145.6,152.6,145.7z"/>
	<path style="fill:#55C9F6;" d="M174,157.8L174,157.8c-2.6-0.1-5.3-0.3-7.9-0.5c-1-0.1-2.1-0.2-2.9-0.8c-1.1-0.7-1.2-1.4-1.1-1.9
		c0.3-1.7,3.7-2.4,3.7-2.4c0.3-0.1,0.5-0.1,0.5-0.2c0.3-0.3,0.8-0.2,1,0.1s0.2,0.8-0.1,1c-0.4,0.3-0.8,0.4-1.1,0.4
		c-1.2,0.2-2.6,0.9-2.7,1.3c0,0,0.1,0.2,0.5,0.5c0.6,0.4,1.4,0.5,2.3,0.6c2.6,0.3,5.2,0.4,7.8,0.5c0.4,0,0.7,0.3,0.7,0.7
		C174.7,157.5,174.4,157.8,174,157.8z"/>
	<path style="fill:#55C9F6;" d="M178.1,155.2c-0.1,0-0.2,0-0.3,0c-0.4-0.1-0.6-0.5-0.6-0.8c0.1-0.4,0.5-0.6,0.8-0.6
		c0,0,0.1-0.1,0.1-0.2c0-0.2-0.1-0.5-0.3-0.7c-0.5-0.6-1.4-0.9-2.1-0.9c-0.4,0-0.7-0.3-0.7-0.7s0.3-0.7,0.7-0.7
		c1.2,0,2.4,0.5,3.2,1.4c0.5,0.6,0.8,1.2,0.7,1.8c0,0.5-0.3,0.9-0.7,1.2C178.7,155.1,178.4,155.2,178.1,155.2z"/>
	<path style="fill:#55C9F6;" d="M159.8,152.3c-0.3,0-0.6-0.2-0.7-0.5c-0.1-0.4,0.1-0.8,0.5-0.9c7-2.3,14.5-3,21.8-1.9
		c0.4,0.1,0.7,0.4,0.6,0.8c-0.1,0.4-0.4,0.7-0.8,0.6c-7.1-1-14.4-0.4-21.1,1.9C159.9,152.2,159.9,152.3,159.8,152.3z"/>
	<path style="fill:#55C9F6;" d="M168.9,160.7c-2.8,0-5.3-0.4-7.5-1.1c-1-0.3-2.1-0.8-2.9-1.7c-1-1-1.2-2.5-0.6-3.6
		c0.2-0.3,0.6-0.5,1-0.3c0.3,0.2,0.5,0.6,0.3,1c-0.3,0.6,0,1.5,0.4,2c0.6,0.7,1.5,1,2.3,1.3c3.8,1.2,8.4,1.3,13.9,0.4
		c2.1-0.4,4.4-1,5.6-2.7c0.6-0.8,0.8-1.9,0.5-2.7c-0.1-0.4,0.1-0.8,0.4-0.9c0.4-0.1,0.8,0.1,0.9,0.4c0.4,1.2,0.2,2.8-0.7,4
		c-1.5,2.1-4.1,2.8-6.5,3.2C173.4,160.4,171.1,160.7,168.9,160.7z"/>
</g>
<g>
	<path style="fill:#7D7D7D;" d="M47.4,129.2c0,0,8.5,11.9,6.9,22.9l-0.5,5.8c0,0,0.9,3.4,7.2,3.9s17,2.7,16.3-5.9
		c-0.7-8.7-6.2-9.3-8.7-9.1c0,0,1-16.9-4.5-23.7C58.6,116.2,47.4,129.2,47.4,129.2z"/>
	<path d="M69.1,163.1c-2,0-4.1-0.2-6-0.4c-0.8-0.1-1.5-0.2-2.2-0.2c-6.7-0.6-7.7-4.3-7.8-4.4c0-0.1,0-0.2,0-0.2l0.5-5.8
		c1.6-10.6-6.7-22.3-6.8-22.4c-0.2-0.3-0.2-0.6,0-0.9c0.3-0.3,7.3-8.4,13.2-8.4h0.1c1.8,0,3.3,0.8,4.4,2.2
		c4.9,6.2,4.8,19.9,4.7,23.4c1.4,0,3.5,0.3,5.3,1.8c2,1.7,3.1,4.3,3.4,8c0.2,2.3-0.4,4-1.6,5.3C74.7,162.7,72,163.1,69.1,163.1z
		 M54.6,157.8c0.2,0.5,1.4,2.8,6.5,3.3c0.7,0.1,1.4,0.1,2.2,0.2c4.4,0.5,9.8,1,12.1-1.3c1-0.9,1.4-2.3,1.2-4.1
		c-0.2-3.2-1.2-5.6-2.9-7c-1.8-1.5-3.9-1.5-5.1-1.4c-0.2,0-0.4,0-0.6-0.2c-0.2-0.1-0.2-0.3-0.2-0.6c0-0.2,0.9-16.7-4.4-23.2
		c-0.9-1.1-2-1.7-3.3-1.7H60c-4.6,0-10.3,5.9-11.8,7.5c1.6,2.4,8.2,12.9,6.7,22.9L54.6,157.8z"/>
</g>
<g>
	<path style="fill:#7D7D7D;" d="M22.5,132.3c-0.4,7.5-3.1,14.8-4.2,22.2l-0.5,5.8c0,0,0.9,3.4,7.2,3.9s17,2.7,16.3-5.9
		c-0.2-2.4,0.4-5-1.3-6.8c-1-1.1-3.2-1.8-4.6-2c0.8-2.9,2.4-5.9,3.4-8.7c1.2-3.3,1.8-6.9,2.1-10.4c0.2-1.9,0.2-3.9-0.8-5.4
		c-1.6-2.4-5-2.6-7.9-2.5c-1.7,0-3.4,0-5.1,0.5c-1.6,0.5-3.2,1.5-3.9,3.1c-0.4,1-0.5,2.1-0.6,3.1C22.6,130.2,22.5,131.3,22.5,132.3z
		"/>
	<path d="M33.1,165.5c-2,0-4.1-0.2-6-0.4c-0.8-0.1-1.5-0.2-2.2-0.2c-6.7-0.6-7.7-4.3-7.8-4.4c0-0.1,0-0.2,0-0.2l0.5-5.8
		c0.5-3.1,1.2-6.2,1.9-9.2c1-4.2,2.1-8.6,2.3-12.9l0,0c0.1-1,0.1-2.1,0.2-3.1c0.1-1.1,0.2-2.3,0.7-3.4c0.7-1.6,2.3-2.9,4.3-3.5
		c1.7-0.5,3.5-0.6,5.3-0.6c3.2,0,6.7,0.3,8.5,2.9c1.2,1.7,1.2,3.9,1,5.9c-0.4,4.1-1.1,7.5-2.2,10.5c-0.4,1.2-1,2.5-1.5,3.7
		c-0.6,1.4-1.2,2.8-1.7,4.2c1.4,0.3,3.3,1,4.2,2c1.5,1.6,1.5,3.5,1.5,5.4c0,0.6,0,1.2,0,1.8c0.2,2.3-0.4,4-1.6,5.3
		C38.7,165.1,36,165.5,33.1,165.5z M18.5,160.2c0.2,0.5,1.4,2.8,6.5,3.3c0.7,0.1,1.4,0.1,2.2,0.2c4.4,0.5,9.8,1,12.1-1.3
		c1-0.9,1.4-2.3,1.2-4.1c0-0.6,0-1.3,0-1.9c0-1.8,0-3.3-1.1-4.5c-0.8-0.8-2.7-1.6-4.2-1.8c-0.2,0-0.4-0.1-0.5-0.3s-0.1-0.4-0.1-0.6
		c0.5-1.7,1.2-3.4,2-5.1c0.5-1.2,1.1-2.5,1.5-3.7c1-2.9,1.7-6.2,2.1-10.2c0.2-1.8,0.2-3.6-0.7-4.9c-1.4-2-4.3-2.3-7.3-2.2
		c-1.6,0-3.3,0-4.9,0.5s-2.9,1.5-3.4,2.7c-0.4,0.9-0.5,1.9-0.5,2.9c-0.1,1-0.1,2.1-0.2,3.1c-0.3,4.5-1.3,8.9-2.3,13.2
		c-0.7,3-1.4,6-1.9,9L18.5,160.2z"/>
</g>
<g>
	<path style="fill:#7D7D7D;" d="M64.6,77.3c0.8,1.5,2.5,2.6,3.9,3.7c2.2,1.6,4.5,3.1,6.9,4.5c4.7,2.8,9.4,5.6,14.3,7.9
		c2,0.9,4,1.5,6.1,2.2c1.4,0.5,3.5,0.9,4.6,2c2.4,2.3,2.7,6.9,0.6,9.5c-0.8,1.1-2,1.8-3.1,2.3c-1.3,0.5-2.7,0.8-4.1,0.7
		c-3.1-0.1-6.3-0.8-9.3-1.7c-4.3-1.2-7.8-3.8-11.2-6.5c-3-2.4-6.6-4.9-8.7-8.2"/>
	<path d="M94.2,110.8c-0.1,0-0.2,0-0.3,0c-3.4-0.1-6.9-1-9.5-1.7c-4.5-1.3-8.1-4-11.5-6.7c-0.5-0.4-1-0.8-1.5-1.2
		c-2.6-2-5.5-4.4-7.4-7.2c-0.2-0.3-0.1-0.8,0.2-1c0.3-0.2,0.8-0.1,1,0.2c1.7,2.6,4.4,4.7,7.1,6.8c0.5,0.4,1,0.8,1.5,1.2
		c3.4,2.7,6.7,5.2,11,6.4c2.6,0.7,5.9,1.6,9.2,1.7c1.3,0,2.6-0.2,3.8-0.7c1.2-0.5,2.2-1.2,2.8-2c1.8-2.3,1.6-6.6-0.5-8.6
		c-0.8-0.7-2.1-1.1-3.3-1.5c-0.4-0.1-0.7-0.2-1-0.3l-1.3-0.4c-1.6-0.5-3.3-1.1-4.9-1.8c-5-2.3-9.7-5-14.4-7.9
		c-2.1-1.3-4.6-2.8-6.9-4.5l-0.4-0.3c-1.3-1-2.8-2.1-3.7-3.6c-0.2-0.3-0.1-0.8,0.3-1c0.3-0.2,0.8-0.1,1,0.3c0.7,1.2,2.1,2.2,3.3,3.1
		l0.4,0.3c2.3,1.7,4.7,3.2,6.8,4.5c4.7,2.8,9.4,5.6,14.3,7.8c1.5,0.7,3.1,1.2,4.8,1.8l1.3,0.4c0.3,0.1,0.6,0.2,1,0.3
		c1.4,0.4,2.9,0.9,3.9,1.8c2.7,2.5,3,7.6,0.7,10.5c-0.8,1.1-2,1.9-3.4,2.5C96.9,110.6,95.5,110.8,94.2,110.8z"/>
</g>
<g>
	<path style="fill:#7D7D7D;" d="M68.8,84.4c-1.1-2-4.8-7.1-4.8-7.1H22.5c0,0-0.4,0.8-3.7,7.1c-4.9,9.3-9.6,24.2-5.7,34.5
		c4.6,11.9,18,16.6,30.7,16.6s26.2-4.7,30.7-16.6C78.5,108.7,73.7,93.7,68.8,84.4z"/>
	<path d="M43.8,136.1c-15.6,0-27.3-6.4-31.4-17c-4-10.3,0.6-25.3,5.8-35c3.2-6.1,3.6-7,3.7-7.1c0.1-0.3,0.4-0.4,0.7-0.4H64
		c0.2,0,0.4,0.1,0.6,0.3c0.2,0.2,3.8,5.2,4.9,7.2l0,0c5.1,9.7,9.7,24.7,5.8,35C71.1,129.8,59.4,136.1,43.8,136.1z M22.9,78
		c-0.3,0.7-1.2,2.5-3.5,6.7c-5,9.4-9.5,24-5.7,33.9c3.9,10.1,15.1,16.1,30.1,16.1s26.2-6,30.1-16.1c3.8-9.9-0.7-24.4-5.7-33.9
		c-0.9-1.7-3.8-5.6-4.6-6.7H22.9z"/>
</g>
<g>
	<g>
		<path style="fill:#CC0016;" d="M17.8,79.6c0,0-4.3,9.9-6.2,19.4c0,0-2.1,9.5-1.6,15.7c0,0,19.6,12.9,56.5,7.6V98.1l-8.1-13.9
			L17.8,79.6z"/>
		<path d="M49.3,124.4c-10.7,0-19.1-1.5-25-3.1c-9.5-2.6-14.4-5.7-14.6-5.9c-0.2-0.1-0.3-0.3-0.3-0.5c-0.6-6.2,1.5-15.6,1.6-16
			c1.9-9.5,6.2-19.5,6.2-19.6c0.1-0.3,0.4-0.5,0.7-0.4l40.6,4.6c0.2,0,0.4,0.2,0.5,0.3l8.1,13.9c0.1,0.1,0.1,0.2,0.1,0.4v24.3
			c0,0.4-0.3,0.7-0.6,0.7C60.3,124,54.5,124.4,49.3,124.4z M10.7,114.4c1.2,0.7,5.9,3.4,14,5.5c8.5,2.3,22.5,4.4,41.1,1.9V98.3
			L58,84.9l-39.8-4.5c-0.9,2.1-4.3,10.6-6,18.8C12.3,99.3,10.3,108.4,10.7,114.4z"/>
	</g>
	<g>
		<path style="fill:#3D3D3D;" d="M40.6,92.1c0,0.2,0,0.5,0.1,0.7s0.4,0.4,0.6,0.5c2.4,1.1,5,1.3,7.6,1.5c2.2,0.1,4.4,0.2,6.6,0.2
			c0.7,0,1.4,0,2.1-0.2c0.3-0.1,0.6-0.3,0.7-0.5c0.1-0.2,0.1-0.5,0.2-0.7c0.1-0.8,0.1-1.6,0.2-2.4c0-0.3,0-0.6-0.1-0.8
			C58.4,90.1,58,90,57.7,90c-5.2-0.7-10.5-0.7-15.8-0.8c-0.3,0-0.7,0-1,0.2C40.3,89.7,40.6,91.4,40.6,92.1z"/>
		<path d="M55.8,95.6c-0.1,0-0.1,0-0.2,0c-2.2,0-4.4-0.1-6.6-0.2c-2.6-0.1-5.4-0.4-7.9-1.6c-0.4-0.2-0.7-0.4-0.9-0.8S40,92.2,40,92
			l0,0c0-0.1,0-0.3,0-0.5c-0.1-1-0.2-2.4,0.7-2.9c0.5-0.3,0.9-0.2,1.3-0.2c5.2,0.1,10.6,0.2,15.9,0.8c0.3,0,0.9,0.1,1.3,0.6
			c0.3,0.4,0.3,0.9,0.3,1.2l-0.2,2.4c0,0.3,0,0.6-0.2,1s-0.6,0.7-1.1,0.8C57.2,95.6,56.4,95.6,55.8,95.6z M41.4,92.1
			c0,0.1,0,0.3,0,0.3s0.1,0.1,0.3,0.2c2.3,1.1,4.9,1.3,7.4,1.4c2.2,0.1,4.4,0.2,6.6,0.2c0.7,0,1.3,0,1.8-0.2
			c0.3-0.1,0.3-0.2,0.3-0.2c0-0.1,0.1-0.3,0.1-0.4L58,91c0-0.1,0-0.3,0-0.3s-0.1,0-0.3,0C52.5,90,47.2,90,42,89.9
			c-0.2,0-0.5,0-0.6,0.1c-0.1,0.2,0,1.2,0,1.5C41.3,91.7,41.3,91.9,41.4,92.1L41.4,92.1z"/>
	</g>
	<g>
		<path style="fill:#3D3D3D;" d="M10,114.8c0,0,0.6,4.2,1.6,6.2c0,0,16.6,11.8,54.5,6.2l0.5-4.9C66.5,122.4,27.7,125.8,10,114.8z"/>
		<path d="M46.6,129.5c-23.9,0-34.8-7.5-35.4-7.9c-0.1-0.1-0.2-0.2-0.2-0.3c-1-2.1-1.6-6.3-1.6-6.4c0-0.3,0.1-0.6,0.3-0.7
			c0.2-0.2,0.5-0.2,0.8,0c17.3,10.7,55.7,7.5,56.1,7.5c0.2,0,0.4,0.1,0.6,0.2c0.1,0.2,0.2,0.4,0.2,0.6l-0.5,4.9
			c0,0.3-0.3,0.6-0.6,0.6C58.9,129.1,52.3,129.5,46.6,129.5z M12.2,120.6c1.8,1.1,18.4,11,53.2,6.1l0.3-3.5
			c-2.6,0.2-11,0.7-20.8,0.3c-15-0.7-26.4-3.1-33.9-7.2C11.2,117.5,11.7,119.4,12.2,120.6z"/>
	</g>
	<path style="fill:#DFDFDF;" d="M53.1,93.1c-4.8,0-8.8-0.8-9-0.8c-0.4-0.1-0.6-0.5-0.6-0.8c0.1-0.4,0.5-0.6,0.8-0.6
		c0.1,0,5.2,1.1,10.8,0.7c0.4,0,0.7,0.3,0.8,0.7c0,0.4-0.3,0.7-0.7,0.8C54.5,93.1,53.8,93.1,53.1,93.1z"/>
	<g>
		<path style="fill:#3D3D3D;" d="M39.4,108.1c4.6,1.9,9.8,2,14.7,2.2c2.3,0.1,4.7,0.1,6.8-0.9c0.1-0.7,0.2-1.6-0.5-2
			c-0.2-0.1-0.4-0.1-0.6-0.2c-3.8-0.6-7.8-0.1-11.7-0.6c-1.8-0.2-3.6-0.6-5.4-0.8c-0.8-0.1-2.8-0.5-3.3,0.2
			C39.3,106.2,39.3,108.1,39.4,108.1z"/>
		<path d="M55.7,111c-0.6,0-1.1,0-1.6,0c-4.8-0.1-10.2-0.3-15-2.2c-0.2-0.1-0.4-0.3-0.4-0.5c0,0-0.3-2.2,0.2-2.7
			c0.7-0.8,2.2-0.7,3.7-0.5h0.3c0.9,0.1,1.7,0.3,2.6,0.4c0.9,0.2,1.9,0.3,2.8,0.4c1.8,0.2,3.6,0.2,5.4,0.2c2.1,0,4.2,0,6.3,0.3
			c0.3,0,0.6,0.1,0.9,0.3c0.8,0.4,1,1.3,0.8,2.7c0,0.2-0.2,0.4-0.4,0.5C59.5,110.9,57.5,111,55.7,111z M40,107.6
			c4.5,1.7,9.4,1.8,14.1,2c2,0.1,4.2,0.1,6.1-0.7c0-0.5,0-0.8-0.2-0.8c-0.1,0-0.2-0.1-0.4-0.1c-2-0.3-4.1-0.3-6.1-0.3
			c-1.8,0-3.7,0-5.6-0.2c-1-0.1-2-0.3-2.9-0.5c-0.8-0.1-1.7-0.3-2.5-0.4h-0.3c-1.4-0.2-2-0.2-2.3-0.1C40,106.7,40,107.3,40,107.6z
			 M40.1,106.3L40.1,106.3L40.1,106.3z"/>
	</g>
	<path d="M48.9,115.5c-0.3,0-0.6,0-0.9-0.1c-1.1-0.2-2-0.6-2.6-1.2c-0.7-0.7-1-1.6-1-2.6c0-0.9,0.4-1.8,1-2.5
		c0.8-1.1,2.1-1.5,3.4-1.2c1.6,0.4,3,1.8,3.3,3.4c0.4,1.8-0.8,3.7-2.5,4.1C49.5,115.5,49.2,115.5,48.9,115.5z M48.1,109.3
		c-0.5,0-1,0.2-1.4,0.7l0,0c-0.4,0.5-0.6,1.1-0.7,1.7c0,0.6,0.2,1.2,0.6,1.6c0.4,0.4,1,0.6,1.8,0.8c0.5,0.1,0.8,0.1,1.2,0
		c0.9-0.2,1.6-1.4,1.4-2.4c-0.2-1-1.2-2-2.3-2.3C48.5,109.3,48.3,109.3,48.1,109.3z M46.1,109.5L46.1,109.5L46.1,109.5z"/>
	<g>
		<path style="fill:#CC0016;" d="M65.6,81.2l3.2,14.9l1,24c0,0,4.9-1.5,7.4-5.2c0,0-1.1-24.7-8.8-33.9L65.6,81.2z"/>
		<path d="M69.9,120.9c-0.1,0-0.3,0-0.4-0.1c-0.2-0.1-0.3-0.3-0.3-0.6l-1-23.9L65,81.4c0-0.2,0-0.4,0.1-0.6s0.3-0.3,0.5-0.3l2.8-0.3
			c0.2,0,0.5,0.1,0.6,0.3c7.8,9.3,9,33.3,9,34.4c0,0.2,0,0.3-0.1,0.4c-2.6,3.9-7.6,5.5-7.8,5.5C70,120.8,70,120.9,69.9,120.9z
			 M66.5,81.9L69.6,96v0.1l1,23c1.4-0.6,4.3-2,6-4.4c-0.1-2.5-1.5-24.3-8.4-33L66.5,81.9z"/>
	</g>
	<g>
		<path style="fill:#3D3D3D;" d="M69.9,120.1v5.2c0,0,6.7-1.8,8.1-5.2l-0.7-5.2C77.3,114.9,75.9,117.5,69.9,120.1z"/>
		<path d="M69.9,126c-0.2,0-0.3-0.1-0.4-0.1c-0.2-0.1-0.3-0.3-0.3-0.6v-5.2c0-0.3,0.2-0.5,0.4-0.7c5.6-2.5,7-4.9,7.1-4.9
			c0.2-0.3,0.5-0.4,0.8-0.4c0.3,0.1,0.5,0.3,0.6,0.6l0.7,5.2c0,0.1,0,0.3-0.1,0.4c-1.5,3.6-8.3,5.5-8.6,5.6C70,126,70,126,69.9,126z
			 M70.6,120.6v3.7c2.1-0.7,5.7-2.3,6.7-4.3l-0.5-3.4C75.8,117.6,73.9,119.1,70.6,120.6z"/>
	</g>
</g>
<path style="fill:#FFFFFF;stroke:#000000;stroke-width:1.2;stroke-linecap:round;stroke-linejoin:round;stroke-miterlimit:10;" d="
	M45.4,161"/>
<g>
	<g>
		<path style="fill:#7D7D7D;" d="M84.5,39.5c0.4,2.1,0.6,4.5-1,6c-1,1-2.5,1.3-4,1.3c-5.9,0.3-11.8-1.9-16.9-4.9
			c-4.2-2.4-8.3-5.8-9.4-10.5c-0.3-1-0.3-2.2,0.1-3.2c0.4-0.9,1.1-1.5,1.8-2.2c5.2-4.7,11.2-9.5,17.8-5C78.8,25.2,83,32.5,84.5,39.5
			z"/>
		<path d="M78.4,47.6c-5,0-10.3-1.7-16.1-5c-5.6-3.3-8.8-6.8-9.8-10.9c-0.4-1.4-0.3-2.6,0.1-3.6c0.4-1,1.3-1.8,2-2.4
			c4.5-4,11.3-10.1,18.7-5.1c5.7,3.9,10.3,11.1,11.9,18.8l0,0c0.6,3,0.3,5.3-1.2,6.7c-1.3,1.2-3.1,1.5-4.4,1.5
			C79.2,47.6,78.8,47.6,78.4,47.6z M67.5,20c-4.1,0-8,3.1-11.9,6.6c-0.6,0.6-1.3,1.2-1.6,1.9c-0.3,0.7-0.3,1.6,0,2.7
			c0.9,3.7,3.9,7,9.1,10c6,3.5,11.4,5.1,16.5,4.8c1.1-0.1,2.6-0.2,3.5-1.1c1-1,1.3-2.8,0.8-5.3c-1.6-7.4-5.9-14.2-11.3-18
			C70.8,20.5,69.1,20,67.5,20z"/>
	</g>
	<g>
		<path style="fill:#7D7D7D;" d="M55.2,25.8c0,0-0.4-0.1-1.2-0.4c-7.5-2.3-15.5-2.3-23,0c-0.8,0.2-1.2,0.4-1.2,0.4S7.9,33.8,7.9,66
			c0,6.5,4.2,13.3,9.2,16.5c5.6,3.6,12.6,4.1,18.9,4.7c9.3,0.9,19.3,0.5,28.3-2.8c4.7-1.7,8.5-5.2,10.8-9.9c1.2-2.5,2.3-5.6,2.3-8.4
			C77.3,33.8,55.2,25.8,55.2,25.8z"/>
		<path d="M44.5,88.2c-2.7,0-5.6-0.1-8.6-0.4l-0.8-0.1c-6.1-0.6-13-1.2-18.4-4.7c-5.5-3.5-9.5-10.7-9.5-17c0-16.8,6.1-27,11.2-32.6
			c5.6-6.1,11.1-8.1,11.3-8.2c0,0,0.4-0.2,1.2-0.4c7.7-2.4,15.8-2.4,23.4,0c0.8,0.2,1.2,0.4,1.2,0.4C56,25.3,78,33.9,78,66
			c0,3.2-1.3,6.5-2.3,8.7c-2.3,4.9-6.3,8.5-11.2,10.3C58.6,87.2,52,88.2,44.5,88.2z M42.6,24.4c-3.8,0-7.6,0.6-11.3,1.7
			c-0.7,0.2-1.1,0.4-1.1,0.4C30,26.5,8.6,34.7,8.6,66c0,6.7,4.5,13,8.9,15.9c5.2,3.3,11.9,4,17.8,4.5l0.8,0.1
			c11,1,20.2,0.1,27.9-2.7c4.6-1.7,8.2-5.1,10.4-9.6c1.4-3,2.2-5.8,2.2-8.1c0-31.3-21.4-39.4-21.6-39.5l0,0c0,0-0.4-0.1-1.1-0.4
			C50.2,24.9,46.4,24.4,42.6,24.4z"/>
	</g>
	<ellipse transform="matrix(0.7568 -0.6536 0.6536 0.7568 -23.6806 40.5151)" cx="42.6" cy="52.1" rx="9" ry="7.4"/>
	<g>
		<g>
			<path style="fill:#959595;" d="M53,70.4c0,0,0.1,0,0.4,0.1c2.3,0.6,4.7,0.6,7,0c0.2-0.1,0.4-0.1,0.4-0.1s6.7-2,6.7-9.9
				c0,0-0.2-4.9-6.7-4.9h-3.9H53c-6.5,0-6.7,4.9-6.7,4.9C46.2,68.5,53,70.4,53,70.4z"/>
			<path d="M56.8,71.7c-1.2,0-2.5-0.2-3.7-0.5c-0.3-0.1-0.4-0.1-0.4-0.1c-0.2-0.1-7.2-2.3-7.2-10.6c0-0.1,0.3-5.6,7.4-5.6h7.7
				c7.1,0,7.4,5.5,7.4,5.6c0,8.4-7.2,10.6-7.2,10.7l0,0c0,0-0.1,0-0.4,0.1C59.3,71.5,58.1,71.7,56.8,71.7z M53,56.3
				c-5.7,0-6,4.1-6,4.2c0,7.3,6.2,9.2,6.2,9.2l0,0c0,0,0.1,0,0.3,0.1c2.2,0.6,4.5,0.6,6.7,0c0.2-0.1,0.3-0.1,0.3-0.1
				c0.3-0.1,6.2-2,6.2-9.3c0-0.1-0.3-4.2-6-4.2H53V56.3z"/>
		</g>
		
			<ellipse transform="matrix(0.9201 -0.3917 0.3917 0.9201 -20.3281 26.542)" style="fill:#242424;" cx="54.9" cy="63.1" rx="1.5" ry="2.2"/>
		
			<ellipse transform="matrix(0.3917 -0.9201 0.9201 0.3917 -20.3359 95.3668)" style="fill:#242424;" cx="62" cy="63.1" rx="2.2" ry="1.5"/>
	</g>
	<path d="M12.3,78.6c-0.2,0-0.4-0.1-0.5-0.2c-0.3-0.3-0.2-0.7,0.1-1l52.4-45.7c0.3-0.3,0.7-0.2,1,0.1s0.2,0.7-0.1,1L12.7,78.4
		C12.6,78.6,12.4,78.6,12.3,78.6z"/>
	<g>
		<path style="fill:#7D7D7D;" d="M4,44.8c0,2.1,0.3,4.6,2.1,5.7c1.2,0.8,2.7,0.7,4.2,0.5c5.9-0.9,11.2-4.2,15.6-8.2
			c3.6-3.2,7-7.3,7.2-12.1c0-1.1-0.1-2.2-0.7-3.1c-0.5-0.8-1.4-1.3-2.2-1.8c-6-3.5-12.9-7.1-18.4-1.4C6.8,29.7,4.1,37.7,4,44.8z"/>
		<path d="M8.8,51.9c-1,0-2.1-0.2-3-0.8c-1.7-1.1-2.5-3.2-2.5-6.3C3.4,37,6.5,29,11.3,24c6.2-6.4,14.1-1.8,19.3,1.3
			c0.8,0.5,1.8,1.1,2.4,2c0.6,0.9,0.9,2,0.8,3.5c-0.2,4.2-2.6,8.3-7.4,12.6c-5.4,4.8-10.7,7.6-16,8.3C10,51.9,9.4,51.9,8.8,51.9z
			 M18.6,22.2c-2.2,0-4.3,0.8-6.2,2.8c-4.6,4.7-7.5,12.3-7.6,19.8l0,0c0,2.6,0.6,4.3,1.8,5.1c1.1,0.7,2.6,0.6,3.7,0.4
			c5-0.7,10-3.3,15.2-8c4.5-4,6.8-7.8,7-11.6c0-1.2-0.1-2-0.6-2.6c-0.5-0.7-1.3-1.2-2-1.6C25.9,24.2,22.1,22.2,18.6,22.2z M4,44.8
			L4,44.8L4,44.8z"/>
	</g>
	<path d="M68,52.9c0,1.3-1.1,1.4-2.4,1.4s-2.4-0.1-2.4-1.4s0.4-2.7,2.4-2.7C67.4,50.2,68,51.5,68,52.9z"/>
	<path d="M58.4,82c-0.3,0-0.5,0-0.5,0c-0.4-0.1-0.6-0.5-0.6-0.8c0.1-0.4,0.5-0.6,0.8-0.6c0,0,1.3,0.2,2.8-1.3
		c0.3-0.3,0.3-0.5,0.3-0.6c-0.1-0.5-1.2-1.2-1.9-1.4c-0.3-0.1-0.5-0.4-0.5-0.7c0-0.3,0.2-0.6,0.5-0.7c0.7-0.2,1.3-0.6,1.4-1
		c0.1-0.2,0-0.5-0.2-0.8c-0.5-0.7-2.1,0.2-2.1,0.2c-0.3,0.2-0.8,0.1-1-0.2c-0.2-0.3-0.1-0.8,0.2-1c1-0.6,2.9-1.2,3.9,0.2
		c0.7,0.8,0.6,1.6,0.5,2.1s-0.5,0.9-0.9,1.3c0.6,0.4,1.3,1,1.4,1.7c0.1,0.5,0.1,1.2-0.6,1.9C60.6,81.7,59.1,82,58.4,82z"/>
</g>
<g>
	<g>
		<g>
			<path style="fill:#944C0E;" d="M77.3,113.4l-4-2.1c-0.6-0.3-0.8-1-0.5-1.6L85,86.6c0.3-0.6,1-0.8,1.6-0.5l4,2.1
				c0.6,0.3,0.8,1,0.5,1.6L78.8,113C78.5,113.5,77.8,113.7,77.3,113.4z"/>
			<path d="M77.7,114.2c-0.3,0-0.7-0.1-1-0.2l-3.6-1.9c-0.5-0.3-0.9-0.7-1-1.2s-0.1-1.1,0.1-1.6l12-22.7c0.5-1,1.8-1.4,2.8-0.9
				l3.6,1.9c0.5,0.3,0.9,0.7,1,1.2s0.1,1.1-0.1,1.6l-12,22.7c-0.3,0.5-0.7,0.9-1.2,1C78.1,114.2,77.9,114.2,77.7,114.2z M86,86.9
				c-0.1,0-0.1,0-0.2,0c-0.2,0.1-0.3,0.2-0.4,0.3l-12,22.7c-0.1,0.2-0.1,0.3,0,0.5s0.2,0.3,0.3,0.4l3.6,1.9l0,0
				c0.2,0.1,0.3,0.1,0.5,0s0.3-0.2,0.4-0.3l12-22.7c0.1-0.2,0.1-0.3,0-0.5s-0.2-0.3-0.3-0.4l-3.6-1.9C86.3,86.9,86.2,86.9,86,86.9z"
				/>
		</g>
		<g>
			<path style="fill:#E57B64;" d="M76,102.2l-4.9-2.6c-0.3-0.2-0.4-0.6-0.3-0.9l3.8-7.3c0.2-0.3,0.6-0.5,0.9-0.3l4.9,2.6
				c0.3,0.2,0.4,0.6,0.3,0.9l-3.8,7.3C76.7,102.3,76.3,102.4,76,102.2z"/>
			<path d="M76.2,103c-0.2,0-0.5-0.1-0.7-0.2l-4.7-2.5c-0.7-0.4-1-1.3-0.6-2l3.7-7c0.4-0.7,1.3-1,2-0.6l4.7,2.5c0.7,0.4,1,1.3,0.6,2
				l-3.7,7C77.3,102.7,76.8,103,76.2,103z M75.3,91.9L71.5,99l4.7,2.6h0.1l3.7-7L75.3,91.9z"/>
		</g>
		<g>
			<path style="fill:#8B8B8B;" d="M80.7,93.9L74,90.4c-0.2-0.1-0.3-0.4-0.2-0.6l1-1.9c0.1-0.2,0.4-0.3,0.5-0.2l6.6,3.5
				c0.2,0.1,0.3,0.4,0.2,0.6l-1,1.9C81.1,94,80.9,94,80.7,93.9z"/>
			<path d="M80.8,94.7c-0.2,0-0.4,0-0.6-0.1l-6.5-3.4c-0.3-0.1-0.5-0.4-0.6-0.7c-0.1-0.3-0.1-0.6,0.1-0.9l0.9-1.7
				c0.1-0.3,0.4-0.5,0.7-0.6c0.3-0.1,0.6-0.1,0.9,0.1l6.5,3.4c0.3,0.1,0.5,0.4,0.6,0.7c0.1,0.3,0.1,0.6-0.1,0.9L81.9,94
				C81.7,94.4,81.2,94.7,80.8,94.7z M80.9,93.3L80.9,93.3L80.9,93.3L80.9,93.3z M74.6,89.9l6.1,3.2l0.7-1.3l-6.1-3.2L74.6,89.9z
				 M81.6,91.9L81.6,91.9L81.6,91.9z M75.1,88.5L75.1,88.5L75.1,88.5z M75.4,88.4L75.4,88.4L75.4,88.4z"/>
		</g>
		<g>
			<path style="fill:#8B8B8B;" d="M74.8,105l-6.6-3.5c-0.2-0.1-0.3-0.4-0.2-0.6l1-1.9c0.1-0.2,0.4-0.3,0.5-0.2l6.6,3.5
				c0.2,0.1,0.3,0.4,0.2,0.6l-1,1.9C75.3,105,75,105.1,74.8,105z"/>
			<path d="M75,105.7c-0.2,0-0.4,0-0.6-0.1l0,0l-6.5-3.4c-0.6-0.3-0.8-1-0.5-1.6l0.9-1.7c0.3-0.6,1-0.8,1.6-0.5l6.5,3.4
				c0.6,0.3,0.8,1,0.5,1.6l-0.9,1.7C75.8,105.5,75.4,105.7,75,105.7z M68.8,101l6.1,3.2l0.7-1.3l-6.1-3.2L68.8,101z"/>
		</g>
		<g>
			<path style="fill:#363636;" d="M86.7,86.3c0,0,34.3-68.9,60.2-67.2c0,0-23.9,6.2-56.6,69.1L86.7,86.3z"/>
			<path d="M90.3,89c-0.1,0-0.2,0-0.3-0.1L86.4,87c-0.3-0.2-0.5-0.6-0.3-1c0.1-0.2,8.7-17.5,20.5-34.3c15.8-22.8,29.5-34,40.5-33.3
				c0.3,0,0.6,0.3,0.7,0.6c0,0.3-0.2,0.7-0.5,0.8c-0.2,0.1-24.1,7-56.1,68.8c-0.1,0.2-0.2,0.3-0.4,0.4C90.5,88.9,90.4,89,90.3,89z
				 M87.6,86l2.4,1.3c25-48,44.7-62.8,52.8-67.2C119.6,24.9,91,79.5,87.6,86z"/>
		</g>
	</g>
	<path style="fill:#E57B64;" d="M172.8,154.6c-0.3,0-0.6-0.2-0.7-0.6L146.2,19.2c-0.1-0.4,0.2-0.8,0.6-0.8c0.4-0.1,0.8,0.2,0.8,0.6
		l25.9,134.8C173.6,154.2,173.3,154.6,172.8,154.6C172.9,154.6,172.9,154.6,172.8,154.6z"/>
</g>
<g>
	<g>
		<path style="fill:#C0A27D;" d="M1.1,31.4c-0.1,0.1-0.3,0.3-0.3,0.4c-0.1,0.3,0,0.6,0.2,0.8c2.5,4.2,7.8,6,12.7,6.1s9.8-1,14.7-0.9
			c3.2,0,6.4,0.6,9.6,0.7c7.9,0.3,16-2.2,22.3-6.9c1-0.8,2-1.6,3.2-2.1c1.3-0.6,2.8-0.8,4.2-1.2c3.8-1.1,6.9-4.3,8-8
			c-5.2-1.2-10.2-3.2-14.8-5.9c-0.7-0.4-1.4-0.8-2.1-0.8c-0.6,0-1.1,0.2-1.6,0.4c-6.5,2.5-13.2,4.3-20,5.7c-5.7,1.1-12.6,3-18.3,2.1
			c-1.6-0.3-2.8-0.7-4.3-0.2c-1.6,0.5-3.3,1.9-4.7,2.9C6.8,26.6,3.9,28.9,1.1,31.4z"/>
		<path d="M14.4,39.5c-0.3,0-0.5,0-0.8,0c-6-0.2-11-2.6-13.3-6.5c-0.1-0.2-0.5-0.8-0.2-1.4c0.1-0.4,0.4-0.6,0.5-0.7l0,0
			c3.4-3,6.1-5.1,8.8-6.9c0.3-0.2,0.6-0.4,1-0.7c1.2-0.8,2.5-1.8,3.9-2.3s2.5-0.2,3.7,0c0.3,0.1,0.6,0.1,0.9,0.2
			c4.6,0.7,10.2-0.4,15-1.5c1-0.2,2.1-0.4,3-0.6c7.3-1.4,13.8-3.3,19.9-5.6c0.6-0.2,1.2-0.5,1.9-0.5l0,0c0.9,0,1.7,0.5,2.4,0.9
			c4.6,2.6,9.5,4.6,14.6,5.8c0.2,0,0.4,0.2,0.5,0.3c0.1,0.2,0.1,0.4,0.1,0.6c-1.2,4-4.5,7.3-8.5,8.5c-0.5,0.2-1.1,0.3-1.6,0.4
			c-0.9,0.2-1.7,0.4-2.5,0.7c-0.9,0.4-1.7,1-2.5,1.6l-0.5,0.4c-6.5,4.9-14.6,7.4-22.8,7.1c-1.5-0.1-3-0.2-4.5-0.4
			c-1.7-0.2-3.4-0.4-5.1-0.4c-2.3,0-4.8,0.2-7.1,0.5C19,39.3,16.7,39.5,14.4,39.5z M1.4,32c0,0,0,0.1,0.1,0.2
			c2,3.5,6.5,5.6,12.1,5.8c2.5,0.1,5-0.2,7.4-0.5c2.4-0.2,4.8-0.5,7.3-0.5c1.8,0,3.5,0.2,5.3,0.4c1.4,0.1,2.9,0.3,4.4,0.4
			c7.8,0.3,15.6-2.1,21.9-6.8l0.5-0.4c0.9-0.7,1.8-1.3,2.8-1.8c0.9-0.4,1.9-0.6,2.8-0.8c0.5-0.1,1-0.2,1.5-0.4
			c3.3-1,6.1-3.6,7.3-6.9c-5-1.3-9.8-3.2-14.2-5.7c-0.6-0.4-1.2-0.7-1.8-0.7c-0.5,0-0.9,0.2-1.3,0.4c-6.2,2.4-12.8,4.3-20.1,5.7
			c-1,0.2-2,0.4-3,0.6c-5,1.1-10.6,2.3-15.6,1.5c-0.3-0.1-0.7-0.1-1-0.2c-1.1-0.2-2-0.4-3-0.1c-1.1,0.4-2.4,1.3-3.5,2.1
			c-0.4,0.2-0.7,0.5-1,0.7c-2.7,1.8-5.3,3.9-8.7,6.8C1.5,31.9,1.5,32,1.4,32L1.4,32z"/>
	</g>
	<g>
		<path style="fill:#C0A27D;" d="M14.5,21.6L19,10c0.4-1.2,1.2-2.2,2.3-2.9C25,4.5,35-1,48.3,1.2c1.6,0.3,3.1,1.3,4,2.6l6.5,9.8
			C58.8,13.7,38.1,26.8,14.5,21.6z"/>
		<path d="M25.7,23.5c-3.7,0-7.5-0.4-11.4-1.2c-0.2,0-0.4-0.2-0.5-0.4c-0.1-0.2-0.1-0.4,0-0.6l4.4-11.7c0.5-1.3,1.4-2.4,2.5-3.2
			c3.8-2.5,14-8.2,27.6-6c1.8,0.3,3.5,1.4,4.5,3l6.5,9.8c0.1,0.2,0.1,0.4,0.1,0.5c0,0.2-0.2,0.4-0.3,0.5
			C59,14.4,44.3,23.5,25.7,23.5z M15.5,21.1c20.4,4.1,38.7-5.6,42.3-7.7l-6.1-9.2c-0.8-1.2-2.1-2.1-3.5-2.3
			c-13-2.1-22.9,3.3-26.5,5.7c-0.9,0.6-1.6,1.5-2,2.5L15.5,21.1z"/>
	</g>
	<g>
		<path style="fill:#C0A27D;" d="M22.7,9.5c0,0,10.9,3.3,25-4.3"/>
		<path d="M29.1,10.9c-3.9,0-6.4-0.7-6.6-0.8C22.1,10,21.9,9.6,22,9.2s0.5-0.6,0.9-0.5c0.1,0,10.8,3.1,24.4-4.2
			c0.3-0.2,0.8-0.1,1,0.3c0.2,0.3,0.1,0.8-0.3,1C40.4,10,33.7,10.9,29.1,10.9z"/>
	</g>
</g>
<g>
	<path style="fill:#7D7D7D;" d="M42.5,104.4c2.4,1.7,4.9,3.4,7.4,4.9c4.5,2.7,9.4,5.7,14.7,6.3c3.1,0.4,6.4,0.6,9.5,0.2
		c1.4-0.2,2.7-0.6,3.9-1.4c1.1-0.7,2.1-1.5,2.7-2.7c1.7-2.9,0.6-7.5-2.1-9.3c-1.3-0.9-3.4-1-4.9-1.2c-2.2-0.4-4.3-0.7-6.4-1.3
		C62,98.4,57,96.4,51.9,94.3c-3.8-1.5-20.1-12.8-21.2-3.2c-0.4,3.7,3.6,7,6.1,9C38.7,101.6,40.6,103,42.5,104.4z"/>
	<path d="M70.7,116.8c-2.2,0-4.4-0.2-6.2-0.4c-5.4-0.6-10.4-3.7-14.8-6.3l-0.2-0.1c-2.5-1.5-5-3.1-7.4-4.9c-1.9-1.4-3.8-2.8-5.6-4.3
		c-2.4-1.9-6.8-5.5-6.3-9.6c0.2-1.9,1-3.2,2.3-3.9c4-2.1,11.7,2.1,16.8,4.9c1.3,0.7,2.5,1.3,3.1,1.6c5.1,2.1,10.1,4.1,15.3,5.5
		c1.6,0.5,3.3,0.7,5,1l1.3,0.2c0.3,0.1,0.7,0.1,1,0.2c1.4,0.2,3,0.4,4.2,1.2c3,2.1,4.1,7.1,2.3,10.3c-0.7,1.2-1.7,2.2-3,3
		s-2.7,1.3-4.2,1.5C73.1,116.7,71.9,116.8,70.7,116.8z M35,88.1c-0.7,0-1.4,0.1-1.9,0.4c-0.9,0.5-1.4,1.4-1.6,2.8
		c-0.4,3.3,3.6,6.6,5.8,8.4c1.8,1.5,3.7,2.9,5.6,4.3l0,0c2.5,1.8,4.9,3.4,7.3,4.9l0.2,0.1c4.5,2.7,9.2,5.5,14.3,6.1
		c2.6,0.3,6.1,0.6,9.3,0.2c1.3-0.2,2.5-0.6,3.6-1.3c1.1-0.7,2-1.5,2.5-2.5c1.5-2.6,0.5-6.8-1.9-8.4c-0.9-0.6-2.3-0.8-3.5-1
		c-0.4-0.1-0.7-0.1-1.1-0.2l-1.3-0.2c-1.7-0.3-3.4-0.6-5.1-1.1C62,99.1,56.9,97.1,51.8,95c-0.7-0.3-1.8-0.9-3.2-1.7
		C45,91.4,38.8,88.1,35,88.1z"/>
</g>
</svg>
