<?xml version="1.0" encoding="utf-8"?>
<!-- Generator: Adobe Illustrator 26.5.0, SVG Export Plug-In . SVG Version: 6.00 Build 0)  -->
<svg version="1.1" id="레이어_1" xmlns="http://www.w3.org/2000/svg" xmlns:xlink="http://www.w3.org/1999/xlink" x="0px"
	 y="0px" viewBox="0 0 108 282" style="enable-background:new 0 0 108 282;" xml:space="preserve">
<g id="Group-51" transform="translate(117.000000, 385.000000)">
	
		<path id="Fill-1_00000037692743818434493080000015144438430076998306_" style="fill-rule:evenodd;clip-rule:evenodd;fill:#DEAF5D;" d="
		M-10.7-136.3c0,17.4-23.4,31.6-52.3,31.6s-52.3-14.1-52.3-31.6v-11.5h104.6V-136.3z"/>
	<path d="M-63-103c-29.8,0-54-14.9-54-33.3v-11.5c0-0.9,0.8-1.7,1.7-1.7h104.6c0.9,0,1.7,0.8,1.7,1.7v11.5C-9-117.9-33.2-103-63-103
		z M-113.6-146.1v9.8c0,16.5,22.7,29.9,50.6,29.9s50.6-13.4,50.6-29.9v-9.8H-113.6z"/>
	
		<path id="Fill-5_00000065037537770795165330000012837395175667145098_" style="fill-rule:evenodd;clip-rule:evenodd;fill:#DEAF5D;" d="
		M-10.7-147.8c0,17.4-23.4,31.6-52.3,31.6s-52.3-14.1-52.3-31.6s23.4-31.6,52.3-31.6S-10.7-165.2-10.7-147.8"/>
	<path d="M-63-114.5c-29.8,0-54-14.9-54-33.3S-92.8-181-63-181s54,14.9,54,33.3S-33.2-114.5-63-114.5z M-63-177.6
		c-27.9,0-50.6,13.4-50.6,29.9s22.7,29.9,50.6,29.9s50.6-13.4,50.6-29.9S-35.1-177.6-63-177.6z"/>
	
		<path id="Fill-9_00000039830083072929061100000000247216861270271663_" style="fill-rule:evenodd;clip-rule:evenodd;fill:#DEAF5D;" d="
		M-25.8-157.8c0,12.4-16.7,22.5-37.2,22.5c-20.6,0-37.2-10.1-37.2-22.5c0-12.4,16.7-139.2,37.2-139.2
		C-42.4-297.1-25.8-170.2-25.8-157.8"/>
	<path d="M-63-133.7c-21.5,0-38.9-10.8-38.9-24.2c0-6.3,4.1-41,10.9-74.6c9-44.6,18.2-66.3,28-66.3s19,21.7,28,66.3
		c6.8,33.6,10.9,68.3,10.9,74.6C-24.1-144.5-41.5-133.7-63-133.7z M-63-295.4c-3.5,0-13,6.2-24.6,63.6
		c-6.7,32.8-10.9,67.9-10.9,73.9c0,11.5,15.9,20.8,35.5,20.8s35.5-9.3,35.5-20.8c0-6-4.2-41.1-10.9-73.9
		C-50-289.2-59.5-295.4-63-295.4z"/>
	
		<path id="Fill-13_00000033358064647656892480000006752879353584431013_" style="fill-rule:evenodd;clip-rule:evenodd;fill:#DEAF5D;" d="
		M-35.7-257.7c0,9.1-12.2,16.5-27.3,16.5s-27.3-7.4-27.3-16.5c0-9.1,12.2-16.5,27.3-16.5S-35.7-266.8-35.7-257.7"/>
	<path d="M-63-239.5c-16.3,0-29-8-29-18.2c0-10.2,12.7-18.2,29-18.2s29,8,29,18.2C-34-247.5-46.7-239.5-63-239.5z M-63-272.5
		c-14.1,0-25.6,6.6-25.6,14.8c0,8.2,11.5,14.8,25.6,14.8s25.6-6.6,25.6-14.8C-37.4-265.9-48.9-272.5-63-272.5z"/>
	
		<path id="Fill-17_00000144323020535250177680000005411380406269038230_" style="fill-rule:evenodd;clip-rule:evenodd;fill:#DEAF5D;" d="
		M-29.7-271.6c0,11.1-14.9,20.1-33.3,20.1s-33.3-9-33.3-20.1s14.9-20.1,33.3-20.1S-29.7-282.7-29.7-271.6"/>
	<path d="M-63-249.8c-19.3,0-35-9.8-35-21.8c0-12,15.7-21.8,35-21.8s35,9.8,35,21.8C-28-259.6-43.7-249.8-63-249.8z M-63-290
		c-17.4,0-31.6,8.3-31.6,18.4c0,10.2,14.2,18.4,31.6,18.4c17.4,0,31.6-8.3,31.6-18.4C-31.4-281.7-45.6-290-63-290z"/>
	
		<path id="Fill-21_00000183244874424010975920000006219777639693339569_" style="fill-rule:evenodd;clip-rule:evenodd;fill:#DEAF5D;" d="
		M-35.7-278.8c0,9.1-12.2,16.5-27.3,16.5s-27.3-7.4-27.3-16.5c0-9.1,12.2-16.5,27.3-16.5S-35.7-287.9-35.7-278.8"/>
	<path d="M-63-260.6c-16.3,0-29-8-29-18.2s12.7-18.2,29-18.2s29,8,29,18.2S-46.7-260.6-63-260.6z M-63-293.6
		c-14.1,0-25.6,6.6-25.6,14.8S-77.1-264-63-264s25.6-6.6,25.6-14.8S-48.9-293.6-63-293.6z"/>
	
		<path id="Fill-25_00000098216407632455909600000012409482846122048186_" style="fill-rule:evenodd;clip-rule:evenodd;fill:#DEAF5D;" d="
		M-37.3-295c-1.2,2.9-2,5.9-3,8.9c-2,6.5-11.4,11.4-22.7,11.4s-20.8-4.9-22.7-11.4c-0.9-3-1.8-6-3-8.9l-14.8-36.8h81L-37.3-295z"/>
	<path d="M-63-273c-11.9,0-22.2-5.3-24.4-12.6l-0.2-0.7c-0.8-2.7-1.6-5.5-2.7-8.1l-14.8-36.8c-0.2-0.5-0.1-1.1,0.2-1.6
		c0.3-0.5,0.8-0.7,1.4-0.7h81c0.6,0,1.1,0.3,1.4,0.7c0.3,0.5,0.4,1.1,0.2,1.6l-14.8,36.8c-1.1,2.6-1.9,5.4-2.7,8.1l-0.2,0.6
		C-40.8-278.3-51.1-273-63-273z M-101-330.2l13.9,34.5c1.1,2.8,2,5.6,2.8,8.4l0.2,0.7c1.8,5.8,10.8,10.2,21.1,10.2
		s19.3-4.4,21.1-10.2l0.2-0.6c0.8-2.8,1.7-5.7,2.8-8.4c0,0,0,0,0,0l13.9-34.5H-101z"/>
	
		<path id="Fill-29_00000033357726650945888060000001598169519274491533_" style="fill-rule:evenodd;clip-rule:evenodd;fill:#DEAF5D;" d="
		M-22.5-331.9c0,13.5-18.1,24.5-40.5,24.5c-22.4,0-40.5-11-40.5-24.5c0-13.5,18.1-24.5,40.5-24.5C-40.6-356.3-22.5-345.4-22.5-331.9
		"/>
	<path d="M-63-305.7c-23.3,0-42.2-11.7-42.2-26.2c0-14.4,18.9-26.2,42.2-26.2s42.2,11.7,42.2,26.2C-20.8-317.4-39.7-305.7-63-305.7z
		 M-63-354.6c-21.4,0-38.8,10.2-38.8,22.8c0,12.6,17.4,22.8,38.8,22.8s38.8-10.2,38.8-22.8C-24.2-344.4-41.6-354.6-63-354.6z"/>
	
		<path id="Fill-33_00000010303288947075857250000000624050335304453276_" style="fill-rule:evenodd;clip-rule:evenodd;fill:#F7D394;" d="
		M-81.1-278c-0.4-0.4-0.9-0.8-1.4-1.1c-0.5-0.2-1.2-0.3-1.7,0c-0.3,0.2-0.5,0.5-0.6,0.8c-0.3,0.8-0.2,1.8,0.3,2.6
		c0.4,0.8,1.1,1.4,1.9,1.9c1.6,1.1,3.7,1.8,5.6,1.6c0.9-0.1,2-0.5,2.1-1.4c0.2-1.5-1.4-1.5-2.3-1.9C-78.7-276-79.9-276.9-81.1-278"
		/>
	
		<path id="Fill-35_00000075876388896545402450000007556313737647620992_" style="fill-rule:evenodd;clip-rule:evenodd;fill:#F7D394;" d="
		M-86.8-267.8c-0.5-0.4-1-0.9-1.6-1.2c-0.6-0.3-1.3-0.3-1.9,0c-0.3,0.2-0.5,0.5-0.7,0.9c-0.4,0.9-0.2,2,0.3,2.9
		c0.5,0.9,1.3,1.6,2.1,2.1c1.8,1.2,4.1,1.9,6.3,1.8c1-0.1,2.2-0.5,2.3-1.5c0.2-1.6-1.5-1.7-2.5-2.1
		C-84.1-265.5-85.4-266.6-86.8-267.8"/>
	
		<path id="Fill-37_00000039098120246478598530000014660149551523048065_" style="fill-rule:evenodd;clip-rule:evenodd;fill:#F7D394;" d="
		M-91.1-173.5c0,4.8,0.8,8.4,3.4,7c0.7-0.4,1.3-1.3,1.6-2.3c5.8-14.5,5.9-30.6,10-45.7c1.3-4.7,3.8-12.6-1.3-14.9
		c-4.9-2.2-7,7.1-7.9,11.7c-1.6,8.5-2.8,17.2-4.2,25.7C-89.6-190.2-91.1-180.5-91.1-173.5"/>
	
		<path id="Fill-39_00000081614595590120110570000012452057082312382854_" style="fill-rule:evenodd;clip-rule:evenodd;fill:#F7D394;" d="
		M-105.8-139.8c1.1,1.8,2.2,3.6,3.8,5.1c1.5,1.5,3.5,2.5,5.7,2.6c1,0,2.1-0.2,2.9-0.9c0.8-0.7,1.2-1.8,0.9-2.7
		c-0.5-1.4-2.4-1.8-3.6-2.8c-0.7-0.6-1.1-1.4-1.6-2.2c-0.9-1.8-1.9-3.6-2.8-5.4c-1.1-2.1-3.6-4.4-5.9-2.2
		C-108.9-146.1-107.2-142.1-105.8-139.8"/>
	
		<path id="Fill-41_00000145025866416130665010000016785511524332866177_" style="fill-rule:evenodd;clip-rule:evenodd;fill:#F7D394;" d="
		M-91.3-323.9c3.7,2.7,8.3,3.9,12.9,4c1.1,0,2.3-0.1,3.3-0.6s1.7-1.7,1.4-2.8c-0.3-1-1.3-1.6-2.4-1.9c-1-0.2-2.1-0.2-3.1-0.4
		c-2.4-0.6-4.2-2.6-5.7-4.6c-1.5-2-2.8-4.2-4.9-5.5c-2.9-1.8-7.1-1.2-7.5,2.3C-97.7-330-93.7-325.7-91.3-323.9"/>
	
		<polygon id="Fill-43_00000097471948855594348770000013075456763961858233_" style="fill-rule:evenodd;clip-rule:evenodd;fill:#AD8948;" points="
		-82.4,-374.7 -69.2,-369.2 -76.9,-376.5 -70.4,-383.3 -52.2,-380.9 -56.5,-366.7 -40.5,-366.7 -42,-351.6 -48.5,-344.8 
		-55.3,-355.4 -54.4,-343.5 -60.9,-336.7 -68.4,-357.6 -89,-367.9 	"/>
	<path d="M-60.9-335c-0.1,0-0.2,0-0.4,0c-0.6-0.1-1.1-0.5-1.3-1.1l-7.2-20.2l-20-10c-0.5-0.2-0.8-0.7-0.9-1.2
		c-0.1-0.5,0.1-1.1,0.4-1.5l6.5-6.8c0.5-0.5,1.2-0.7,1.9-0.4l4.9,2l-1.1-1.1c-0.3-0.3-0.5-0.7-0.5-1.2c0-0.4,0.2-0.9,0.5-1.2
		l6.5-6.8c0.4-0.4,0.9-0.6,1.5-0.5l18.1,2.4c0.5,0.1,0.9,0.3,1.2,0.8c0.3,0.4,0.3,0.9,0.2,1.4l-3.6,12.1h13.7c0.5,0,0.9,0.2,1.3,0.6
		c0.3,0.4,0.5,0.8,0.4,1.3l-1.5,15.1c0,0.4-0.2,0.7-0.5,1l-6.5,6.8c-0.4,0.4-0.9,0.6-1.4,0.5c-0.5-0.1-1-0.3-1.3-0.8l-3.1-4.9
		l0.4,5.2c0,0.5-0.1,0.9-0.5,1.3l-6.5,6.8C-60-335.2-60.4-335-60.9-335z M-86.1-368.4l18.6,9.3c0.4,0.2,0.7,0.5,0.8,0.9l6.5,18.3
		l4.1-4.2l-0.8-11.2c-0.1-0.8,0.4-1.5,1.2-1.7c0.7-0.2,1.6,0,2,0.7l5.6,8.8l4.6-4.8l1.3-12.7h-14.1c-0.5,0-1-0.3-1.4-0.7
		c-0.3-0.4-0.4-1-0.3-1.5l3.7-12.3l-15.3-2l-4.7,4.9l6.5,6.1c0.6,0.6,0.7,1.5,0.3,2.1c-0.4,0.7-1.3,1-2.1,0.6l-12.2-5L-86.1-368.4z"
		/>
	
		<polygon id="Fill-47_00000034771505618075200470000013126278595296864933_" style="fill-rule:evenodd;clip-rule:evenodd;fill:#DEAF5D;" points="
		-89,-367.9 -75.7,-362.5 -76.9,-376.5 -58.8,-374.1 -63,-359.9 -47,-359.9 -48.5,-344.8 -61.8,-348.7 -60.9,-336.7 -77.5,-339.5 
		-74.9,-350.8 -89.9,-351.4 	"/>
	<path d="M-60.9-335c-0.1,0-0.2,0-0.3,0l-16.6-2.8c-0.5-0.1-0.9-0.3-1.1-0.7c-0.3-0.4-0.4-0.9-0.2-1.3l2.2-9.4l-12.9-0.5
		c-0.5,0-0.9-0.2-1.2-0.6c-0.3-0.3-0.5-0.8-0.4-1.2l0.9-16.5c0-0.5,0.3-1,0.8-1.3c0.5-0.3,1-0.3,1.6-0.1l10.7,4.4l-1-11.3
		c0-0.5,0.2-1,0.5-1.4c0.4-0.4,0.9-0.5,1.4-0.5l18.1,2.4c0.5,0.1,0.9,0.3,1.2,0.8c0.3,0.4,0.3,0.9,0.2,1.4l-3.6,12.1H-47
		c0.5,0,0.9,0.2,1.3,0.6c0.3,0.4,0.5,0.8,0.4,1.3l-1.5,15.1c0,0.5-0.3,1-0.7,1.2c-0.4,0.3-0.9,0.4-1.4,0.2l-10.9-3.2l0.7,9.5
		c0,0.5-0.2,1-0.6,1.4C-60-335.2-60.5-335-60.9-335z M-75.4-340.8l12.7,2.1l-0.7-9.8c0-0.6,0.2-1.1,0.6-1.4c0.4-0.4,1-0.5,1.6-0.3
		L-50-347l1.1-11.2H-63c-0.5,0-1-0.3-1.4-0.7c-0.3-0.4-0.4-1-0.3-1.5l3.7-12.3l-14-1.9l1,12c0,0.6-0.2,1.2-0.7,1.5
		c-0.5,0.3-1.1,0.4-1.7,0.2l-11-4.5l-0.7,12.4l13.3,0.5c0.5,0,1,0.3,1.3,0.7c0.3,0.4,0.4,0.9,0.3,1.4L-75.4-340.8z"/>
</g>
</svg>
