<?xml version="1.0" encoding="utf-8"?>
<!-- Generator: Adobe Illustrator 26.0.3, SVG Export Plug-In . SVG Version: 6.00 Build 0)  -->
<svg version="1.1" id="레이어_1" xmlns="http://www.w3.org/2000/svg" xmlns:xlink="http://www.w3.org/1999/xlink" x="0px"
	 y="0px" viewBox="0 0 390 390" style="enable-background:new 0 0 390 390;" xml:space="preserve">
<g>
	<g>
		<rect x="156.7" y="276.5" style="fill:#FF7A00;" width="23.3" height="99.7"/>
	</g>
	<g>
		<path d="M182.1,378.3h-27.4V274.5h27.4V378.3z M158.8,374.2H178v-95.6h-19.2V374.2z"/>
	</g>
</g>
<g>
	<g>
		<path style="fill:#FF7A00;" d="M189.8,370.4c0-16.3-13.8-29.4-30.3-28.3c-15.1,1-26.5,14.2-26.5,29.3l0,0
			c0,8.1,6.6,14.7,14.7,14.7h27.5c8.1,0,14.7-6.6,14.7-14.7L189.8,370.4L189.8,370.4z"/>
	</g>
	<g>
		<path d="M175.1,388.1h-27.5c-9.2,0-16.7-7.5-16.7-16.7c0-16.6,12.5-30.3,28.4-31.4c8.5-0.6,16.6,2.3,22.9,8.2
			c6.1,5.7,9.6,13.8,9.6,22.2v1C191.8,380.5,184.3,388.1,175.1,388.1z M161.4,344c-0.6,0-1.2,0-1.8,0.1C145.8,345,135,357,135,371.4
			c0,7,5.7,12.6,12.6,12.6h27.5c7,0,12.6-5.7,12.6-12.6v-1c0-7.4-3-14.2-8.3-19.2C174.4,346.5,168.1,344,161.4,344z"/>
	</g>
</g>
<g>
	<g>
		<rect x="210.3" y="274.7" style="fill:#FF7A00;" width="23.3" height="99.9"/>
	</g>
	<g>
		<path d="M235.7,376.7h-27.4V272.6h27.4V376.7z M212.4,372.6h19.2v-95.8h-19.2V372.6z"/>
	</g>
</g>
<g>
	<g>
		<path style="fill:#FF7A00;" d="M257,370.4c0-16.3-13.8-29.4-30.3-28.3c-15.1,1-26.5,14.2-26.5,29.3l0,0c0,8.1,6.6,14.7,14.7,14.7
			h27.5c8.1,0,14.7-6.6,14.7-14.7v-1H257z"/>
	</g>
	<g>
		<path d="M242.4,388.1h-27.5c-9.2,0-16.7-7.5-16.7-16.7c0-16.6,12.5-30.3,28.4-31.4c8.5-0.6,16.6,2.3,22.9,8.2
			c6.1,5.7,9.6,13.8,9.6,22.2v1C259.1,380.5,251.6,388.1,242.4,388.1z M228.7,344c-0.6,0-1.2,0-1.8,0.1
			c-13.8,0.9-24.6,12.9-24.6,27.3c0,7,5.7,12.6,12.6,12.6h27.5c7,0,12.6-5.7,12.6-12.6v-1c0-7.4-3-14.2-8.3-19.2
			C241.7,346.5,235.4,344,228.7,344z"/>
	</g>
</g>
<g>
	<path style="fill:#009A38;" d="M266.6,51.1c20.9,22.2,27.9,55.4,21.4,85.2c-2.4,11-6.4,21.6-7.4,32.8c-0.2,2.8-0.3,5.6-0.1,8.3
		l-2.8,0.1c0,0-32.9,17.1-82.7,17.1s-82.7-17.1-82.7-17.1c-0.3-12.6-5.8-24.4-9.1-36.6c-6.6-24.9-3.8-52.4,9-74.8
		C142.9,12.9,225.1,7,266.6,51.1z"/>
	<path style="fill:#A75D00;" d="M287.1,217.7c4.2,25.2,1,53.8-17.5,71.5c-16,15.2-39.6,18.8-61.7,19.7c-15.1,0.5-30.4,0.1-45.1-3.6
		c-14.7-3.6-28.8-10.7-39.1-21.9c-18-19.6-21.6-49.1-16.4-75.3c0.7-3.5,1.5-7,2.3-10.5c13.4,4.9,44.2,14.2,85.3,14.2
		c44.2,0,76.5-10.8,88-15.2C284.3,203.6,285.9,210.6,287.1,217.7z"/>
	<path style="fill:#E0BC76;" d="M281.5,188.4c0.4,2.7,0.9,5.4,1.4,8.2c-11.5,4.5-43.8,15.2-88,15.2c-41.1,0-71.9-9.3-85.3-14.2
		c1.5-6.6,2.8-13.3,2.6-20c0,0,32.9,17.1,82.7,17.1s82.7-17.1,82.7-17.1l2.8-0.1C280.5,181.1,280.9,184.8,281.5,188.4z"/>
</g>
<path d="M194.9,21.7c26.5,0,53.2,9.7,71.7,29.4c20.9,22.2,27.9,55.5,21.4,85.2c-2.4,11-6.4,21.6-7.4,32.8
	c-0.6,6.5-0.1,12.9,0.9,19.3c1.5,9.8,4,19.5,5.7,29.3c4.2,25.2,1,53.8-17.5,71.4c-16,15.2-39.6,18.9-61.7,19.7
	c-3.3,0.1-6.7,0.2-10,0.2c-11.8,0-23.6-0.9-35.1-3.8c-14.7-3.7-28.8-10.7-39.1-21.9c-18-19.6-21.6-49.1-16.4-75.3
	c2-10.1,5.2-20.2,4.9-30.6c-0.4-12.6-5.8-24.4-9.1-36.6c-6.7-24.9-3.8-52.5,9-74.8C129.2,36.7,162,21.7,194.9,21.7 M194.9,17.6
	c-17.4,0-34.4,4-49.2,11.6c-15.8,8.1-28.6,20.2-37.1,34.9C95.5,86.9,92,115.3,99.1,142c1,3.8,2.2,7.5,3.4,11.2
	c2.7,8.4,5.3,16.3,5.5,24.5c0.2,7.2-1.4,14.3-3.1,21.9c-0.6,2.5-1.2,5.2-1.7,7.8c-2.8,14.2-3,28.6-0.5,41.6
	c2.8,14.8,8.9,27.3,17.9,37.2c10,10.9,24.2,18.9,41.1,23.1c10.5,2.6,22.3,3.9,36.1,3.9c3.2,0,6.5-0.1,10.2-0.2
	c20.6-0.7,46.5-3.8,64.4-20.8c17.1-16.3,24-43.7,18.7-75.1c-0.8-4.6-1.7-9.2-2.7-13.6c-1.1-5.1-2.2-10.4-3-15.5
	c-1.1-7-1.3-12.9-0.9-18.3c0.6-6.9,2.4-13.5,4.3-20.6c1-3.8,2.1-7.7,3-11.7c7.1-32.6-1.5-66.7-22.4-88.9
	C251.3,28.8,224.1,17.6,194.9,17.6L194.9,17.6z"/>
<g>
	<path style="fill:#009A38;" d="M175.1,24.3c0,0,7.4-18.2,19.9-14.2c16.6,5.3,20-6.1,20-6.1s5.4,20.3-12.7,27.9"/>
	<path d="M202.3,34c-0.8,0-1.6-0.5-1.9-1.3c-0.4-1,0.1-2.3,1.1-2.7c6.8-2.8,10.8-8,11.9-15.2c0.3-1.9,0.3-3.6,0.3-5.2
		c-0.8,0.8-1.8,1.5-3,2.2c-4.3,2.3-9.7,2.3-16.3,0.2c-10.6-3.4-17.3,12.9-17.4,13c-0.4,1.1-1.6,1.6-2.7,1.1
		c-1.1-0.4-1.6-1.6-1.1-2.7c0.1-0.2,2-4.9,5.6-9.2c5-6,10.9-8.2,16.8-6.2c5.4,1.7,9.8,1.8,13,0.1c3.4-1.7,4.3-4.7,4.4-4.8
		c0.3-0.9,1.1-1.4,2-1.4s1.7,0.6,1.9,1.5c0.1,0.2,5.7,22.2-13.9,30.4C202.8,33.9,202.5,34,202.3,34z"/>
</g>
<g>
	<g>
		<path style="fill:#FF7A00;" d="M205.3,142.2c2.2,0,3.5,2.4,2.4,4.2c-1.9,3.1-5.5,6.7-11.6,6.7c-6,0-10-3.5-12.3-6.5
			c-1.4-1.8,0-4.4,2.2-4.4H205.3z"/>
		<path d="M196.1,155.2c-6.9,0-11.4-4-13.9-7.4c-1.1-1.5-1.3-3.4-0.5-5c0.8-1.7,2.5-2.7,4.3-2.7h19.3c1.8,0,3.4,0.9,4.2,2.5
			c0.9,1.5,0.8,3.4-0.1,4.9C207.2,151,203.1,155.2,196.1,155.2z M186,144.2c-0.4,0-0.6,0.3-0.6,0.4c-0.1,0.2-0.1,0.4,0.1,0.7
			c2,2.6,5.4,5.7,10.6,5.7c4.2,0,7.5-1.9,9.8-5.8c0.2-0.3,0.1-0.6,0-0.7c-0.1-0.1-0.3-0.4-0.6-0.4H186V144.2z"/>
	</g>
	<g>
		<path style="fill:#FF7A00;" d="M181.8,144.9c-3.1,0-5-3.4-3.4-6.1c2.7-4.4,7.8-9.7,16.6-9.7c8.6,0,14.3,5,17.6,9.4
			c2,2.6,0.1,6.3-3.2,6.3c0,0-5.8-3.8-14.6-3.3C186,142.2,181.8,144.9,181.8,144.9z"/>
		<path d="M209.5,147h-0.6l-0.5-0.3c0,0-5.4-3.4-13.4-2.9c-8.1,0.5-12,2.9-12.1,2.9l-0.5,0.3h-0.6c-2.2,0-4.2-1.2-5.3-3.1
			c-1.1-1.9-1-4.2,0.1-6.1c3-4.9,8.6-10.6,18.4-10.6c9.5,0,15.7,5.6,19.2,10.2c1.4,1.8,1.6,4.2,0.6,6.3
			C213.9,145.7,211.8,147,209.5,147z M195.1,131.2c-7.9,0-12.4,4.7-14.9,8.7c-0.5,0.9-0.2,1.6,0,1.9c0.1,0.2,0.5,0.8,1.2,0.9
			c1.6-0.8,6-2.8,13.3-3.2c7.8-0.5,13.4,2.2,15.2,3.2c0.8-0.2,1.2-0.8,1.3-1c0.2-0.3,0.5-1.1-0.2-2
			C208.1,135.9,202.9,131.2,195.1,131.2z"/>
	</g>
</g>
<g>
	<path d="M225,120.2c-0.2,0-0.3,0-0.5-0.1l-13.6-3.2c-1.1-0.3-1.8-1.4-1.5-2.5s1.4-1.8,2.5-1.5l13.6,3.2c1.1,0.3,1.8,1.4,1.5,2.5
		C226.8,119.5,225.9,120.2,225,120.2z"/>
	<path d="M163.6,120.2c-0.9,0-1.8-0.6-2-1.6c-0.3-1.1,0.4-2.2,1.5-2.5l13.6-3.2c1.1-0.3,2.2,0.4,2.5,1.5s-0.4,2.2-1.5,2.5l-13.6,3.2
		C163.9,120.2,163.7,120.2,163.6,120.2z"/>
	<g>
		<path style="fill:#FFFFFF;" d="M221,126.9c-0.3,2.8,0.2,5.9,2.3,8c1.8,1.8,6.1,3.2,8.3,1.2c3-2.7,2.1-7.7-0.9-10.8"/>
		<path d="M228.7,139.1c-2.6,0-5.3-1.2-6.9-2.8c-2.2-2.2-3.3-5.8-2.9-9.7c0.1-1.1,1.1-1.9,2.3-1.8c1.1,0.1,1.9,1.1,1.8,2.3
			c-0.1,1.3-0.2,4.4,1.7,6.3c1.3,1.3,4.3,2.2,5.4,1.1c0.7-0.7,1.1-1.6,1.2-2.7c0.1-1.7-0.8-3.7-2.2-5.2c-0.8-0.8-0.8-2.1,0.1-2.9
			c0.8-0.8,2.1-0.8,2.9,0.1c2.2,2.3,3.4,5.3,3.3,8.1c-0.1,2.2-0.9,4.2-2.5,5.6C231.7,138.7,230.2,139.1,228.7,139.1z"/>
	</g>
	<g>
		<path style="fill:#FFFFFF;" d="M170.3,126.9c0.3,2.8-0.2,5.9-2.3,8c-1.8,1.8-6.1,3.2-8.3,1.2c-3-2.7-2.1-7.7,0.9-10.8"/>
		<path d="M162.6,139.1c-1.6,0-3.1-0.4-4.3-1.5c-1.6-1.4-2.4-3.4-2.5-5.6c-0.1-2.8,1.1-5.9,3.3-8.1c0.8-0.8,2.1-0.9,2.9-0.1
			c0.8,0.8,0.9,2.1,0.1,2.9c-1.4,1.4-2.2,3.4-2.2,5.2c0,1.1,0.4,2,1.2,2.7c1.1,1,4.1,0.2,5.4-1.1c1.9-1.9,1.8-5.1,1.7-6.3
			c-0.1-1.1,0.7-2.1,1.8-2.3c1.1-0.1,2.1,0.7,2.3,1.8c0.4,3.9-0.6,7.4-2.9,9.7C167.9,137.9,165.2,139.1,162.6,139.1z"/>
	</g>
</g>
<g id="XMLID_00000095339508522580307200000015602986604020018601_">
	<path style="fill:#A75D00;" d="M112.5,203.1l-4.2,39.1c11,16,29.5,28.9,49.5,23c4.3-1.3,8.4-3.1,12.3-5.3
		c-18.7,6.5-30.6-45.6-23.5-54.7C134.6,203.8,123.8,195.7,112.5,203.1z"/>
	<path style="fill:#E0BC76;" d="M146.5,205c-7.1,9.1,4.8,61.2,23.5,54.7c0,0,0,0,0.1,0c0.8-0.4,1.5-0.9,2.3-1.4l-0.1-0.2
		c-22.7-6.5-23.4-52.8-23.4-52.8C148.1,205.2,147.3,205.1,146.5,205z"/>
	<path style="fill:#4373C2;" d="M165,204.3c-5.3,1-10.7,1.3-16,0.9c0,0,0.7,46.3,23.4,52.8l0.1,0.2c5.3-3.4,10.1-7.7,14.4-12.5
		C171.2,235.1,165,204.4,165,204.3L165,204.3z"/>
	<path style="fill:#E0BC76;" d="M165,204.3L165,204.3c0,0,6.2,30.8,21.8,41.4c1.4-1.5,2.7-3.1,3.9-4.7c-14.2-12-19.5-38.1-19.5-38.1
		l0,0C169.2,203.5,167.1,203.9,165,204.3z"/>
	<path style="fill:#A75D00;" d="M171.2,202.8L171.2,202.8c0,0,5.3,26.2,19.5,38.2c2.1-2.8,4.1-5.8,5.9-8.8c3-5.1,5.6-10.7,6.3-16.6
		c0.8-5.9-0.5-12.3-4.4-16.8c-1.2-1.4-2.7-2.6-4.4-3.2c-4.2-1.4-8.6,1.1-12.5,3.1C178.3,200.5,174.8,201.9,171.2,202.8z"/>
	<path d="M200.1,197.5c-1.6-1.9-3.4-3.1-5.3-3.7c-4.7-1.6-9.3,0.7-13.3,2.8l-0.8,0.4c-3.3,1.7-6.7,3-10.1,3.9c-1.9,0.6-3.9,1-6,1.4
		c-5,0.9-10.2,1.2-15.6,0.9c-0.7,0-1.5-0.1-2.3-0.2c-3.6-0.4-7.2-1.4-10.7-2.4c-7.9-2.3-16.1-4.7-24.7,0.8c-1,0.6-1.2,1.9-0.6,2.8
		c0.6,1,1.9,1.2,2.8,0.6c7-4.5,13.6-2.5,21.3-0.3c3.7,1.1,7.4,2.2,11.3,2.6c0.9,0.1,1.7,0.2,2.6,0.2c5.7,0.4,11.2,0,16.5-1
		c2.3-0.4,4.4-0.9,6.4-1.5c3.6-1,7.2-2.4,10.8-4.2l0.8-0.4c3.4-1.8,7-3.6,10.1-2.5c1.2,0.4,2.4,1.3,3.5,2.5
		c3.2,3.7,4.7,9.3,3.9,15.2c-0.6,4.7-2.5,9.7-6.1,15.8c-1.7,2.9-3.6,5.8-5.8,8.6c-1.2,1.6-2.5,3.1-3.8,4.6
		c-4.3,4.8-8.9,8.9-13.9,12.1c-0.7,0.5-1.5,0.9-2.2,1.4l0,0h-0.1c-3.8,2.2-7.7,4-11.8,5.1c-19.7,5.8-37.3-7.6-47.2-22.1
		c-0.6-0.9-1.9-1.2-2.9-0.5c-0.9,0.6-1.2,1.9-0.5,2.9c9,13.1,23.8,25.3,41.1,25.3c3.5,0,7-0.5,10.7-1.6c4.4-1.3,8.7-3.2,12.7-5.5
		l0,0l0,0c0.9-0.5,1.7-1,2.4-1.5c5.3-3.4,10.3-7.8,14.8-12.9c1.4-1.5,2.8-3.2,4-4.9c2.2-3,4.3-6,6-9c2.4-4.1,5.7-10.4,6.6-17.3
		C205.9,208.9,204.1,202.2,200.1,197.5z"/>
</g>
<g id="XMLID_00000020370250508164602180000010319673679703436429_">
	<path style="fill:#A75D00;" d="M279.6,203.1l4.2,39.1c-11,16-29.5,28.9-49.5,23c-4.3-1.3-8.4-3.1-12.3-5.3
		c18.7,6.5,30.6-45.6,23.5-54.7C257.5,203.8,268.3,195.7,279.6,203.1z"/>
	<path style="fill:#E0BC76;" d="M245.6,205c7.1,9.1-4.8,61.2-23.5,54.7c0,0,0,0-0.1,0c-0.8-0.4-1.5-0.9-2.3-1.4l0.1-0.2
		c22.7-6.5,23.4-52.8,23.4-52.8C244,205.2,244.8,205.1,245.6,205z"/>
	<path style="fill:#4373C2;" d="M227.1,204.3c5.3,1,10.7,1.3,16,0.9c0,0-0.7,46.3-23.4,52.8l-0.1,0.2c-5.3-3.4-10.1-7.7-14.4-12.5
		C220.9,235.1,227.1,204.4,227.1,204.3L227.1,204.3z"/>
	<path style="fill:#E0BC76;" d="M227.1,204.3L227.1,204.3c0,0-6.2,30.8-21.8,41.4c-1.4-1.5-2.7-3.1-3.9-4.7
		c14.2-12,19.5-38.1,19.5-38.1l0,0C223,203.5,225,203.9,227.1,204.3z"/>
	<path style="fill:#A75D00;" d="M220.9,202.8L220.9,202.8c0,0-5.3,26.2-19.5,38.2c-2.1-2.8-4.1-5.8-5.9-8.8
		c-3-5.1-5.6-10.7-6.3-16.6c-0.8-5.9,0.5-12.3,4.4-16.8c1.2-1.4,2.7-2.6,4.4-3.2c4.2-1.4,8.6,1.1,12.5,3.1
		C213.8,200.5,217.3,201.9,220.9,202.8z"/>
	<path d="M285,240.4c-0.9-0.6-2.2-0.4-2.9,0.5c-9.9,14.5-27.6,28-47.2,22.1c-4.1-1.2-8-2.9-11.8-5.1H223l0,0
		c-0.8-0.4-1.5-0.9-2.2-1.4c-5-3.2-9.7-7.3-14-12.2c-1.3-1.4-2.6-3-3.8-4.6c-2.1-2.8-4.1-5.7-5.8-8.6c-3.5-6-5.5-11-6.1-15.8
		c-0.8-5.9,0.7-11.4,3.9-15.2c1.1-1.3,2.3-2.2,3.5-2.6c3.1-1,6.6,0.8,10.1,2.5l0.9,0.5c3.5,1.8,7.1,3.2,10.7,4.2
		c2.1,0.6,4.2,1.1,6.4,1.5c5.3,1,10.9,1.3,16.5,1c0.9,0,1.7-0.1,2.6-0.2c4-0.4,7.7-1.5,11.4-2.6c7.7-2.3,14.3-4.2,21.3,0.3
		c1,0.6,2.2,0.3,2.8-0.6c0.6-1,0.3-2.2-0.6-2.8c-8.5-5.5-16.7-3.1-24.7-0.8c-3.5,1-7.1,2.1-10.7,2.4c-0.8,0.1-1.5,0.2-2.3,0.2
		c-5.3,0.3-10.6,0-15.5-0.9c-2.1-0.4-4.1-0.8-6-1.4c-3.4-0.9-6.8-2.3-10-3.9l-0.9-0.4c-4-2-8.5-4.3-13.2-2.8
		c-1.9,0.6-3.7,1.9-5.3,3.8c-4,4.6-5.8,11.3-4.9,18.4c0.9,7,4.2,13.2,6.6,17.3c1.8,3,3.8,6,6,9c1.3,1.7,2.6,3.3,4,4.9
		c4.5,5.1,9.5,9.5,14.8,12.9c0.8,0.5,1.6,1,2.4,1.5l0,0l0,0c4.1,2.4,8.3,4.3,12.7,5.5c3.6,1.1,7.2,1.6,10.7,1.6
		c17.3,0,32.2-12.2,41.1-25.3C286.2,242.3,285.9,241.1,285,240.4z"/>
</g>
</svg>
