<?xml version="1.0" encoding="utf-8"?>
<!-- Generator: Adobe Illustrator 24.1.1, SVG Export Plug-In . SVG Version: 6.00 Build 0)  -->
<svg version="1.1" id="Layer_1" xmlns="http://www.w3.org/2000/svg" xmlns:xlink="http://www.w3.org/1999/xlink" x="0px" y="0px"
	 viewBox="0 0 200 240" style="enable-background:new 0 0 200 240;" xml:space="preserve">
<g>
	<path style="fill:#36526F;" d="M78.94,149.45c-1.83,0-4.89-1.17-9.8-4.07c-14.6-8.62-16.13-24-15.61-32.99
		c7.53,4.25,15.81,7.87,23.61,11.75c-0.01,2.31-0.18,4.57-0.18,6.57C76.96,136,85.13,149.45,78.94,149.45z"/>
	<path d="M80.62,137.9c-0.97-2.75-1.98-5.59-1.98-7.18c0-0.98,0.04-2.03,0.09-3.15c0.04-1.11,0.09-2.25,0.09-3.41
		c0.01-0.64-0.35-1.23-0.93-1.52c-2.59-1.29-5.27-2.56-7.87-3.8c-5.25-2.5-10.68-5.08-15.67-7.91c-0.26-0.14-0.54-0.21-0.82-0.21
		c-0.28,0-0.56,0.07-0.81,0.21c-0.51,0.27-0.84,0.8-0.87,1.37c-0.51,8.97,0.93,25.38,16.43,34.54c4.96,2.93,8.35,4.29,10.65,4.29
		c1.79,0,2.75-0.82,3.24-1.51C83.91,147.17,82.39,142.88,80.62,137.9z M78.94,149.45c-1.83,0-4.89-1.17-9.8-4.07
		c-14.6-8.62-16.13-24-15.61-32.99c7.53,4.25,15.81,7.87,23.61,11.75c-0.01,2.31-0.18,4.57-0.18,6.57
		C76.96,136,85.13,149.45,78.94,149.45z"/>
</g>
<g>
	<path d="M160.36,66.22c-18.51-45.91-43.59-53.82-63.39-55.59l-1.72-0.16c-3.55-0.33-7.57-0.69-11.71-0.69
		c-4.24,0-8.05,0.39-11.61,1.18c-26.2,5.82-51.24,36.55-45.28,71.33c3.67,21.36,23.09,30.6,41.88,39.54
		c10.77,5.13,20.95,9.96,28.1,16.88c6.67,6.44,10.59,23.02,6.28,35.28c-2.55-2.01-7.54-5.02-14.5-5.02c-3.57,0-7.25,0.81-10.92,2.42
		c-6.38,2.79-8.77,4.87-10.35,6.25c-2.07,1.8-2.76,2.41-13.41,2.41c-0.54,0-1.05,0.26-1.36,0.69c-0.32,0.44-0.4,1-0.23,1.51
		c0.05,0.16,5.5,15.81,26.03,15.81c10.5,0,16.95-1.64,20.77-3.27c-1.89,5.37-3.77,14.23-0.19,22.9
		c3.73,9.04,12.44,15.57,25.88,19.41c0.15,0.04,0.31,0.06,0.46,0.06c0.46,0,0.91-0.19,1.23-0.54c0.43-0.46,0.56-1.13,0.33-1.72
		c-1.41-3.77-4.53-15.29-0.5-18.65c3.18-2.65,5.36-7.84,5.83-13.89c0.48-6.09-0.87-11.69-3.71-15.66
		c3.47-3.83,15.31-17.55,24.83-36.48C168.03,120.52,170.54,91.47,160.36,66.22z M125.08,214.96c-5.86,4.89,0,20.53,0,20.53
		c-41.06-11.73-22.48-44.97-22.48-44.97s-4.89,5.86-24.44,5.86s-24.44-14.66-24.44-14.66c18.57,0,8.79-1.96,24.44-8.8
		c3.77-1.65,7.21-2.28,10.24-2.28c9.55,0,15.17,6.19,15.17,6.19c5.04-11.08,3.1-30.74-5.79-39.33C77.68,118.07,33.84,114.34,28.3,82
		C22.43,47.8,47.32,18.15,72.28,12.6c3.84-0.86,7.61-1.14,11.25-1.14c4.71,0,9.21,0.48,13.29,0.85c20.25,1.8,43.97,9.87,61.98,54.55
		c24.44,60.61-32.75,119.75-32.75,119.75C132.9,194.43,130.95,210.07,125.08,214.96z"/>
	<path style="fill:#36526F;" d="M126.05,186.61c6.85,7.82,4.89,23.46-0.98,28.35c-5.86,4.89,0,20.53,0,20.53
		c-41.06-11.73-22.48-44.97-22.48-44.97s-4.89,5.86-24.44,5.86s-24.44-14.66-24.44-14.66c18.57,0,8.79-1.96,24.44-8.8
		c3.77-1.65,7.21-2.28,10.24-2.28c9.55,0,15.17,6.19,15.17,6.19c5.04-11.08,3.1-30.74-5.79-39.33C77.68,118.07,33.84,114.34,28.3,82
		C22.43,47.8,47.32,18.15,72.28,12.6c3.84-0.86,7.61-1.14,11.25-1.14c4.71,0,9.21,0.48,13.29,0.85c20.25,1.8,43.97,9.87,61.98,54.55
		C183.24,127.47,126.05,186.61,126.05,186.61z"/>
	<g>
		<path style="fill:#4F78A2;" d="M117.4,180.99c-0.04,0.04-0.08,0.09-0.1,0.15l-6.13-3.5c0.81-1.65,2.8-7.63,2.8-26.38
			c0-20.9-10.97-33.81-27.57-53.34C70.24,78.89,69.99,66.32,69.99,66.2c0-0.46-0.38-0.84-0.84-0.84s-0.84,0.38-0.84,0.84
			c0,0.53,0.2,13.24,16.82,32.8c16.36,19.25,27.18,31.97,27.18,52.25c0,18.29-1.98,24.15-2.6,25.54l-4.72-2.69
			c4.19-11.29,2.05-29.55-6.43-37.75c-16.28-15.73-48.12-21.17-62.59-39.84c-1.14-2.2-3-4.68-3.72-7.23
			c0.26-0.15,0.42-0.43,0.4-0.75c0-0.04-0.13-4.27,2.97-9.35c2.88-4.71,9.21-11.17,23.01-15.11c24.15-6.9,54.67-8.86,76.23,37.67
			C152.98,140.85,117.76,180.59,117.4,180.99z"/>
		<path d="M118.65,182.12c-0.16,0.18-0.39,0.27-0.62,0.27c-0.21,0-0.4-0.08-0.57-0.21c-0.3-0.27-0.36-0.7-0.16-1.05
			c0.03-0.05,0.06-0.1,0.1-0.15c0.36-0.39,35.58-40.14,17.46-79.24C113.3,55.21,82.78,57.17,58.63,64.07
			c-13.81,3.94-20.13,10.4-23.01,15.11c-3.09,5.08-2.97,9.31-2.97,9.35c0.02,0.32-0.15,0.6-0.4,0.75c-0.12,0.08-0.25,0.12-0.39,0.13
			c-0.54,0-0.86-0.33-0.87-0.8c-0.01-0.19-0.51-18.24,27.19-26.15c16.64-4.76,29.87-4.94,41.66-0.57
			c14.97,5.56,26.93,18.36,36.56,39.15C154.97,141.16,119.02,181.71,118.65,182.12z"/>
		<path style="fill:#7FA1B5;" d="M113.98,151.25c0,18.75-2,24.74-2.8,26.38c-0.15,0.3-0.25,0.45-0.3,0.51
			c-0.16,0.21-0.41,0.33-0.67,0.33c-0.18,0-0.35-0.06-0.51-0.17c-0.36-0.27-0.44-0.79-0.17-1.16c0.01-0.02,0.08-0.12,0.18-0.36
			c0.62-1.39,2.6-7.25,2.6-25.54c0-20.28-10.82-33-27.18-52.25C68.5,79.44,68.31,66.73,68.31,66.2c0-0.46,0.38-0.84,0.84-0.84
			s0.84,0.38,0.84,0.84c0,0.12,0.25,12.69,16.41,31.71C103,117.45,113.98,130.36,113.98,151.25z"/>
		<path style="fill:#7FA1B5;" d="M96.52,131.56c-0.27,0-0.54-0.13-0.7-0.37c-0.07-0.11-7.43-11.04-21.31-21.3
			C51.99,93.24,49.82,74.88,49.74,74.11c-0.05-0.46,0.29-0.87,0.75-0.92c0.45-0.05,0.87,0.28,0.92,0.75
			c0.02,0.18,2.21,18.43,24.1,34.61c14.13,10.44,21.63,21.6,21.71,21.72c0.26,0.38,0.15,0.91-0.23,1.16
			C96.84,131.51,96.68,131.56,96.52,131.56z"/>
		<path style="fill:#7FA1B5;" d="M60.35,112.98c-0.12,0-0.24-0.03-0.36-0.08c-18.76-8.89-21.95-28.78-21.98-28.98
			c-0.07-0.46,0.25-0.88,0.7-0.95c0.46-0.06,0.89,0.25,0.95,0.7c0.03,0.19,3.1,19.22,21.04,27.72c0.42,0.2,0.6,0.7,0.4,1.12
			C60.96,112.81,60.66,112.98,60.35,112.98z"/>
		<path style="fill:#7FA1B5;" d="M116.07,179.46c-0.12,0-0.23-0.02-0.35-0.08c-0.42-0.19-0.61-0.69-0.42-1.11
			c6.2-13.63,6.76-29.8,1.67-48.06c-4.5-16.14-12.1-28.79-14.32-32.28C95.8,87.17,91.94,67.2,91.78,66.36
			c-0.09-0.46,0.21-0.89,0.67-0.98c0.46-0.09,0.89,0.21,0.98,0.67c0.04,0.2,3.96,20.5,10.64,30.99c2.25,3.54,9.96,16.37,14.52,32.73
			c5.2,18.65,4.61,35.21-1.75,49.21C116.69,179.28,116.39,179.46,116.07,179.46z"/>
		<path style="fill:#7FA1B5;" d="M126.82,159.91c-0.08,0-0.16-0.01-0.24-0.03c-0.45-0.13-0.7-0.6-0.57-1.04
			c2.1-7.14,2.88-15.3,2.4-24.97c-0.34-6.75-0.98-13.91-3.38-20.43c-0.97-2.65-2.2-5.28-3.39-7.84c-1.54-3.29-3.12-6.69-4.19-10.18
			c-1.48-4.83-2.56-10.03-3.2-15.43c-0.06-0.46,0.27-0.88,0.73-0.93c0.44-0.07,0.88,0.28,0.93,0.73c0.63,5.31,1.68,10.4,3.13,15.14
			c1.04,3.38,2.6,6.73,4.11,9.96c1.21,2.58,2.45,5.25,3.45,7.97c2.48,6.73,3.13,14.04,3.48,20.93c0.49,9.86-0.32,18.21-2.47,25.53
			C127.52,159.67,127.19,159.91,126.82,159.91z"/>
	</g>
</g>
<g>
	<g>
		<path style="fill:#3F2475;" d="M95.07,60.4c-10.6-2.74-22.44-2.07-36.9,2.06c-1.65,0.47-3.26,0.99-4.81,1.57
			c2.46-3.1,7.49-8.42,14-9.72c2.2-0.44,4.6-0.68,7.07-0.68C81.54,53.63,89.31,55.61,95.07,60.4z"/>
		<path d="M98.75,61.63C90.69,52.67,77,50.68,67.03,52.66C57.01,54.67,50.56,65,50.28,65.44c-0.15,0.26-0.16,0.58-0.02,0.85
			c0.12,0.21,0.33,0.36,0.57,0.41c0.05,0.01,0.11,0.02,0.16,0.02c0.12,0,0.23-0.03,0.33-0.07c2.28-0.99,4.73-1.85,7.29-2.58h0.01
			c15.65-4.47,28.11-4.82,39.24-1.09c0.36,0.12,0.75-0.02,0.96-0.33C99.04,62.33,99.01,61.91,98.75,61.63z M53.36,64.03
			c2.46-3.1,7.49-8.42,14-9.72c2.2-0.44,4.6-0.68,7.07-0.68c7.11,0,14.88,1.98,20.64,6.77c-10.6-2.74-22.44-2.07-36.9,2.06
			C56.51,62.93,54.91,63.46,53.36,64.03z"/>
	</g>
	<g>
		<path style="fill:#FFFFFF;" d="M54.23,48.65c-0.51,0.85-1.41,1.32-2.71,1.45c-4.32,0.4-6.64-4.99-7.54-7.69
			c0.94,0.28,1.88,0.51,2.78,0.67c0.75,3.21,2.54,4.81,4.53,4.61c1.6-0.16,1.2-2.97,0.88-4.41c0.73-0.08,1.43-0.2,2.09-0.34
			C54.75,44.55,55.18,47.12,54.23,48.65z"/>
		<path d="M60.03,39.95c-0.21-0.41-0.73-0.57-1.13-0.35c-0.03,0.01-1.77,0.91-4.27,1.53c-0.01,0.01-0.02,0-0.03,0
			c-1.53,0.39-3,0.58-4.38,0.6h-0.31c-0.43-0.01-0.85-0.03-1.25-0.07c-0.42-0.03-0.85-0.1-1.29-0.17c-0.03-0.01-0.05-0.01-0.07-0.02
			c-1.35-0.24-2.84-0.63-4.29-1.15c-0.03-0.01-0.06-0.02-0.09-0.02c-3.89-1.41-7.19-3.58-7.35-5.25c-0.05-0.46-0.47-0.82-0.92-0.75
			c-0.46,0.05-0.8,0.46-0.75,0.92c0.26,2.55,3.99,4.98,8.13,6.52c0.54,2.02,3.06,10.05,8.99,10.05c0.21,0,0.44-0.01,0.67-0.03
			c1.84-0.18,3.18-0.93,3.98-2.24c1.37-2.24,0.69-5.43,0.22-6.99c2.19-0.64,3.67-1.4,3.78-1.46C60.08,40.87,60.24,40.36,60.03,39.95
			z M51.52,50.1c-4.32,0.4-6.64-4.99-7.54-7.69c0.94,0.28,1.88,0.51,2.78,0.67c0.75,3.21,2.54,4.81,4.53,4.61
			c1.6-0.16,1.2-2.97,0.88-4.41c0.73-0.08,1.43-0.2,2.09-0.34c0.49,1.6,0.93,4.17-0.03,5.71C53.72,49.5,52.83,49.97,51.52,50.1z"/>
	</g>
	<g>
		<path d="M102.55,26.65c-0.41-0.2-0.92-0.03-1.12,0.39c-0.15,0.3-2.25,4.44-6.67,7.33c-0.03,0.02-0.07,0.02-0.09,0.03
			c-2.98,1.93-6.3,2.84-9.91,2.73h-0.01c-1.24-0.03-2.57-0.2-3.98-0.51c-0.45-0.11-0.9,0.18-1,0.63c-0.1,0.45,0.18,0.9,0.63,1
			c1.15,0.26,2.25,0.41,3.3,0.5c-0.03,1.64,0.15,5.36,2.38,7.58c1.14,1.14,2.63,1.71,4.45,1.71c0.3,0,0.62-0.02,0.93-0.05
			c1.99-0.2,3.47-1.04,4.41-2.49c2.01-3.12,0.8-8.15,0.21-10.07c4.62-3.21,6.81-7.57,6.84-7.65
			C103.14,27.36,102.96,26.86,102.55,26.65z M91.3,46.32c-1.73,0.16-3.05-0.21-4.03-1.19c-1.75-1.74-1.91-4.89-1.89-6.32
			c0.14,0,0.27-0.01,0.41-0.01c0.23-0.01,0.47-0.01,0.7-0.03c0.14-0.01,0.27-0.02,0.41-0.03c0.25,1.57,1.13,4.82,4.1,4.52
			c3.45-0.34,1.86-4.8,1.45-5.82c0.75-0.3,1.47-0.66,2.19-1.06c0.51,1.9,1.33,5.89-0.16,8.2C93.82,45.6,92.78,46.17,91.3,46.32z"/>
		<path style="fill:#FFFFFF;" d="M94.47,44.58c-0.65,1.02-1.69,1.59-3.17,1.74c-1.73,0.16-3.05-0.21-4.03-1.19
			c-1.75-1.74-1.91-4.89-1.89-6.32c0.14,0,0.27-0.01,0.41-0.01c0.23-0.01,0.47-0.01,0.7-0.03c0.14-0.01,0.27-0.02,0.41-0.03
			c0.25,1.57,1.13,4.82,4.1,4.52c3.45-0.34,1.86-4.8,1.45-5.82c0.75-0.3,1.47-0.66,2.19-1.06C95.14,38.28,95.96,42.27,94.47,44.58z"
			/>
	</g>
</g>
<g>
	<path style="fill:#36526F;" d="M160.44,127.9c-8.73,9.64-19.01,14.08-21.41,12.27c-0.96-0.73-0.39-2.98,1.54-6.03
		c12.49-20.1,10.56-34.84-6.69-50.87l23.05-18.35c0.01,0.02,0.03,0.03,0.04,0.05C184.61,94.72,168.61,118.9,160.44,127.9z"/>
	<path d="M161.68,129.04c-6.98,7.7-16.1,13.18-21.14,13.18c-1.04,0-1.89-0.22-2.54-0.71c-1.26-0.96-2.08-3.17,1.14-8.26
		c14.01-22.54,7.53-35.83-6.51-48.83c-0.34-0.32-0.36-0.85-0.04-1.19c0.32-0.33,0.84-0.35,1.18-0.04c0.03,0.03,0.06,0.06,0.09,0.09
		c17.25,16.03,19.18,30.77,6.69,50.87c-1.93,3.05-2.5,5.31-1.54,6.03c2.4,1.82,12.68-2.62,21.41-12.27
		c8.17-9.01,24.17-33.18-3.47-62.94c-0.02-0.02-0.03-0.03-0.04-0.05c-0.27-0.34-0.23-0.84,0.09-1.14c0.33-0.31,0.87-0.29,1.18,0.05
		C186.79,94.6,170.16,119.68,161.68,129.04z"/>
</g>
</svg>
