<?xml version="1.0" encoding="UTF-8"?>
<svg xmlns="http://www.w3.org/2000/svg" version="1.1" viewBox="0 0 201 189">
  <defs>
    <style>
      .cls-1 {
        fill: #48649c;
      }

      .cls-2 {
        fill: #6c3e09;
      }

      .cls-3 {
        fill: #4d4d4d;
      }

      .cls-4 {
        fill: #fff;
      }

      .cls-5 {
        fill: #616161;
      }
    </style>
  </defs>
  <!-- Generator: Adobe Illustrator 28.7.1, SVG Export Plug-In . SVG Version: 1.2.0 Build 142)  -->
  <g>
    <g id="_레이어_1" data-name="레이어_1">
      <g>
        <g>
          <path class="cls-5" d="M169.027,107.802c1.797,6.439,2.5,13.039-1.554,18.924-1.17,1.698-2.972,3.082-5.028,3.241-1.441.112-2.853-.376-4.214-.862-.96-.343-1.937-.698-2.737-1.329-2.021-1.593-2.416-4.539-1.983-7.076s1.521-4.932,1.875-7.481c.537-3.861-.651-7.763-2.252-11.317-.897-1.99-1.953-4.047-1.777-6.222.159-1.963,1.406-3.803,3.172-4.676,7.137-3.531,11.253,6.814,12.949,11.852.548,1.628,1.085,3.281,1.55,4.946h-.001Z"/>
          <path d="M162.03,130.811c-1.49,0-2.913-.51-4.079-.927-.961-.342-2.05-.731-2.971-1.457-2.003-1.58-2.858-4.52-2.286-7.866.213-1.247.577-2.456.929-3.628.394-1.308.764-2.544.942-3.827.435-3.133-.259-6.584-2.187-10.862l-.247-.543c-.875-1.914-1.778-3.895-1.6-6.086.181-2.25,1.606-4.351,3.63-5.352,1.93-.954,3.814-1.062,5.597-.322,3.319,1.377,6.102,5.516,8.502,12.652.495,1.472,1.068,3.215,1.564,4.987h0c1.589,5.697,2.836,13.074-1.67,19.618-1.463,2.121-3.521,3.432-5.647,3.597-.159.012-.318.018-.477.018v-.002ZM157.365,91.111c-.794,0-1.612.212-2.47.636-1.513.749-2.578,2.319-2.714,4.001-.143,1.763.67,3.543,1.457,5.266l.249.551c2.061,4.574,2.799,8.314,2.319,11.77-.197,1.409-.604,2.764-.998,4.075-.353,1.174-.686,2.282-.882,3.43-.177,1.026-.573,4.511,1.678,6.288.708.557,1.62.883,2.502,1.197,1.201.431,2.559.921,3.873.817,1.602-.123,3.25-1.203,4.41-2.885,4.093-5.941,3.024-12.551,1.438-18.232-.485-1.735-1.049-3.452-1.537-4.903-2.21-6.564-4.756-10.484-7.568-11.65-.577-.24-1.161-.36-1.759-.36h.002Z"/>
        </g>
        <g>
          <path class="cls-4" d="M159.055,82.404c2.371,2.9,3.895,6.388,5.29,9.864.105.261.211.545.142.817-.087.344-.419.558-.727.735-3.552,2.039-7.382,3.594-11.351,4.607-.558.142-1.156.273-1.698.078-.4-.144-.719-.449-1.015-.754-3.434-3.535-5.633-8.248-6.135-13.152-.168-1.636-.139-3.35.55-4.844,2.989-6.477,12.127-.798,14.945,2.648h-.001Z"/>
          <path d="M151.322,99.43c-.29,0-.593-.038-.892-.146-.568-.204-.984-.601-1.329-.956-3.581-3.686-5.84-8.532-6.364-13.644-.224-2.193-.027-3.87.621-5.275.906-1.961,2.437-3.132,4.433-3.386,4.144-.538,9.675,3.128,11.906,5.857,2.486,3.041,4.039,6.647,5.417,10.08.117.297.313.787.177,1.329-.182.713-.814,1.076-1.118,1.25-3.622,2.079-7.51,3.658-11.559,4.692-.325.082-.787.2-1.291.2h-.001ZM148.656,77.625c-.224,0-.444.013-.657.04-1.438.183-2.466.98-3.137,2.437-.519,1.124-.671,2.526-.479,4.412.487,4.743,2.584,9.239,5.906,12.659.226.233.466.467.701.552.315.113.755.018,1.213-.101,3.903-.996,7.652-2.518,11.143-4.523.248-.142.325-.212.346-.246-.013-.016-.088-.203-.119-.282-1.329-3.311-2.823-6.786-5.162-9.645h0c-1.91-2.337-6.379-5.303-9.758-5.303h.003Z"/>
        </g>
      </g>
      <g>
        <g>
          <path class="cls-2" d="M106.927,176.004c1.48.987,3.304,1.301,5.079,1.427,2.546.181,5.116.021,7.62-.474,1.58-.312,3.275-.858,4.136-2.219,1.154-1.824.216-4.38-1.475-5.723-1.691-1.342-3.907-1.777-6.029-2.17-2.801-.519-7.992-1.812-10.548.098-2.846,2.126-1.534,7.226,1.218,9.061h-.001Z"/>
          <path d="M114.042,178.332c-.698,0-1.397-.024-2.095-.074-1.634-.117-3.733-.4-5.479-1.565-1.837-1.224-3.115-3.661-3.179-6.065-.05-1.84.634-3.385,1.924-4.348,2.59-1.935,7.216-1.026,10.278-.425l.917.177c2.005.371,4.5.832,6.394,2.335,1.912,1.518,3.09,4.555,1.66,6.813-1.08,1.708-3.186,2.296-4.675,2.59-1.894.373-3.819.562-5.744.562h0ZM109.651,166.768c-1.36,0-2.61.214-3.446.839-1.085.81-1.285,2.067-1.26,2.977.05,1.86,1.054,3.806,2.443,4.732h0c1.422.949,3.248,1.188,4.678,1.29,2.472.178,4.962.02,7.4-.461,1.291-.253,2.866-.694,3.597-1.848.909-1.437.066-3.555-1.29-4.632-1.571-1.247-3.746-1.649-5.666-2.003l-.934-.181c-1.517-.297-3.626-.712-5.52-.712h-.002Z"/>
        </g>
        <g>
          <path class="cls-2" d="M147.445,171.862c1.48.987,3.304,1.301,5.079,1.427,2.546.181,5.116.021,7.62-.474,1.58-.312,3.275-.858,4.136-2.219,1.154-1.824.216-4.38-1.475-5.723-1.691-1.342-3.907-1.777-6.029-2.17-2.801-.519-7.992-1.812-10.548.098-2.846,2.126-1.534,7.226,1.218,9.061h0Z"/>
          <path d="M154.558,174.19c-.698,0-1.397-.024-2.092-.074-1.635-.117-3.734-.4-5.48-1.565-1.837-1.224-3.115-3.661-3.179-6.065-.05-1.84.634-3.385,1.924-4.348,2.591-1.936,7.218-1.026,10.278-.425l.917.177c2.005.371,4.5.832,6.393,2.335,1.912,1.517,3.091,4.554,1.661,6.813-1.08,1.707-3.186,2.296-4.675,2.59-1.894.373-3.819.562-5.746.562h-.001ZM150.168,162.626c-1.36,0-2.61.214-3.446.839-1.085.81-1.285,2.067-1.26,2.977.05,1.86,1.054,3.806,2.443,4.732h0c1.422.949,3.248,1.188,4.678,1.29,2.468.177,4.962.02,7.4-.461,1.291-.255,2.866-.694,3.597-1.848.909-1.437.066-3.555-1.291-4.632-1.569-1.247-3.745-1.649-5.665-2.003l-.934-.181c-1.517-.297-3.626-.712-5.52-.712h-.002Z"/>
        </g>
        <g>
          <path class="cls-1" d="M113.585,115.532c-2.189,15.334-4.918,34.733-8.179,49.876,5.236,1.411,15.661,2.664,15.338,2.636.875-8.16,3.067-20.39,6.14-27.999,1.105-2.736,2.39-5.482,4.484-7.561.687-.682,2.821-2.636,3.85-2.495,1.175.161,1.813,2.549,2.298,3.651,1.363,3.098,2.474,6.301,3.416,9.55.918,3.167,1.672,6.38,2.341,9.608.715,3.45,1.476,7.388,1.543,10.914,2.002.015,3.937.254,5.922.092.836-.068,9.225-.978,9.202-1.6-.305-8.184-1.198-16.345-2.664-24.402-1.082-5.948-1.812-17.333-6.567-21.198-4.688-3.811-13.029-4.335-18.757-4.244-1.979.031-18.054.994-18.366,3.174v-.002Z"/>
          <path d="M120.745,168.872c-.024,0-.049,0-.074-.003s-.053-.005-.078-.011l-.279-.036c-6.747-.876-12.118-1.805-15.123-2.614-.426-.115-.688-.543-.595-.973,3.142-14.591,5.802-33.232,7.939-48.211l.231-1.608h0c.14-.976.984-2.102,9.279-3.098,4.249-.51,8.8-.77,9.894-.786,9.017-.147,15.503,1.347,19.293,4.429,4.133,3.361,5.372,11.812,6.277,17.984.2,1.364.384,2.627.581,3.709,1.472,8.083,2.373,16.332,2.677,24.519.02.528.063,1.633-9.961,2.456-1.328.109-2.631.046-3.893-.016-.696-.034-1.395-.067-2.103-.074-.449-.003-.813-.364-.821-.812-.065-3.447-.821-7.362-1.526-10.761-.741-3.585-1.503-6.708-2.325-9.546-1.012-3.49-2.118-6.58-3.378-9.448-.1-.225-.205-.501-.32-.803-.24-.628-.874-2.297-1.332-2.359-.413.012-1.785.899-3.155,2.261-1.992,1.979-3.244,4.671-4.299,7.284-2.905,7.191-5.138,19.041-6.072,27.65,0,.042,0,.085-.007.131-.046.423-.41.737-.829.737h0ZM106.382,164.803c2.958.723,7.733,1.533,13.632,2.309.99-8.656,3.218-20.239,6.102-27.379,1.122-2.777,2.464-5.649,4.668-7.839,1.107-1.1,3.182-2.919,4.547-2.727,1.432.195,2.11,1.98,2.654,3.413.104.271.198.522.287.725,1.291,2.933,2.421,6.091,3.454,9.652.834,2.88,1.606,6.044,2.358,9.67.666,3.218,1.379,6.893,1.533,10.27.461.015.918.036,1.375.059,1.263.059,2.459.117,3.678.02,1.638-.135,6.943-.791,8.422-1.234-.32-7.948-1.204-15.951-2.631-23.795-.201-1.097-.388-2.379-.592-3.765-.865-5.902-2.049-13.984-5.684-16.938-3.43-2.791-9.749-4.187-18.22-4.059-3.915.062-16.338,1.172-17.571,2.545l-.218,1.526c-2.103,14.74-4.712,33.019-7.793,47.545v.002ZM159.11,162.232v.003-.003Z"/>
        </g>
      </g>
      <g>
        <g>
          <path class="cls-4" d="M113.045,106.618c-.59,3.094-1.182,6.244-.834,9.374.075.679.219,1.401.708,1.878.355.346.844.513,1.315.667,12.043,3.917,25.526,3.468,37.172-1.557.335-.145.68-.301.919-.577,1.09-1.261.175-9.531.091-11.604-.215-5.3-.989-10.722-1.342-16.053-.213-3.119-.438-6.295-1.578-9.207-2.358-6.022-8.686-10.114-15.151-10.282-19.824-.517-18.652,23.464-21.301,37.361h0Z"/>
          <path d="M130.812,121.97c-5.685,0-11.396-.878-16.834-2.646-.477-.155-1.131-.368-1.637-.863-.681-.662-.864-1.573-.954-2.378-.364-3.285.251-6.506.844-9.62h0c.458-2.4.799-5.103,1.162-7.964,1.719-13.596,3.932-30.527,20.974-30.07,6.941.181,13.48,4.625,15.901,10.808,1.198,3.06,1.42,6.31,1.633,9.453.151,2.279.384,4.619.608,6.881.301,3.022.612,6.148.736,9.195.016.404.065,1.047.124,1.831.442,5.887.508,9.279-.417,10.348-.373.431-.88.651-1.217.795-6.517,2.812-13.698,4.23-20.923,4.23h0ZM133.724,70.077c-15.065,0-16.989,15.199-18.687,28.63-.365,2.888-.71,5.615-1.177,8.066h0c-.572,2.994-1.163,6.091-.825,9.127.057.514.156,1.077.462,1.376.214.208.561.332.994.473,11.975,3.893,25.309,3.335,36.589-1.53.27-.117.503-.224.619-.359.64-.874.173-7.095.018-9.14-.061-.808-.109-1.471-.127-1.887-.121-2.998-.43-6.099-.728-9.098-.226-2.276-.461-4.629-.613-6.935-.205-3.016-.417-6.137-1.522-8.96-2.185-5.58-8.108-9.592-14.402-9.756-.202-.005-.403-.007-.6-.007h-.001ZM113.046,106.618h.013-.013Z"/>
        </g>
        <path d="M134.42,88.23c-.059,0-.12,0-.181-.003-1.351-.051-2.537-.655-3.617-1.301h-.001c-3.145-1.883-7.386-4.791-7.89-8.286-.224-1.548.299-3.024,1.553-4.386,1.014-1.1,2.435-1.888,4.469-2.481,2.347-.68,4.57-.88,6.611-.594,2.689.377,5.159,1.622,7.219,2.789,1.438.814,3.041,1.825,3.843,3.506.975,2.048.43,4.354-.213,6.539-.31,1.057-.89,3.022-2.61,3.659-1.509.563-2.649-.191-3.568-.795l-.346-.239c-.717-.502-1.247-.857-1.581-1.063-.191.225-.36.465-.535.713-.644.912-1.371,1.941-3.152,1.941h-.001ZM131.471,85.504c.892.533,1.852,1.031,2.83,1.068,1.03.037,1.317-.389,1.917-1.238.301-.427.642-.909,1.128-1.356.616-.568,1.238-.133,3.291,1.303l.27.187c.909.596,1.434.905,2.121.65.828-.307,1.256-1.418,1.598-2.574.574-1.955,1.03-3.837.305-5.359-.593-1.246-1.944-2.087-3.164-2.777-1.925-1.091-4.218-2.251-6.633-2.59-1.812-.256-3.8-.071-5.918.544-1.732.504-2.912,1.144-3.713,2.013-.913.991-1.283,1.98-1.132,3.026.45,3.12,5.456,6.116,7.102,7.102h-.002Z"/>
        <g>
          <polygon class="cls-1" points="138.319 84.667 135.953 87.724 138.513 91.078 135.724 100.349 142.2 105.168 144.555 98.926 141.37 91.313 141.653 86.84 138.319 84.667"/>
          <path d="M142.2,105.996c-.177,0-.351-.055-.495-.163l-6.476-4.819c-.279-.209-.399-.569-.298-.903l2.668-8.866-2.304-3.018c-.228-.299-.226-.713.003-1.01l2.367-3.057c.267-.342.747-.421,1.107-.187l3.334,2.172c.251.163.394.449.375.747l-.272,4.28,3.111,7.434c.081.195.085.414.011.612l-2.355,6.242c-.092.243-.293.429-.542.503-.077.022-.155.032-.233.032h-.001ZM136.685,100.031l5.128,3.816,1.851-4.906-3.059-7.309c-.049-.117-.07-.245-.062-.372l.253-3.991-2.289-1.492-1.51,1.949,2.174,2.848c.162.212.212.487.135.741l-2.622,8.714v.002Z"/>
        </g>
      </g>
      <g>
        <g>
          <path class="cls-5" d="M98.666,107.802c-1.797,6.439-2.5,13.039,1.554,18.924,1.17,1.698,2.972,3.082,5.028,3.241,1.441.112,2.853-.376,4.214-.862.96-.343,1.937-.698,2.737-1.329,2.021-1.593,2.416-4.539,1.983-7.076-.433-2.536-1.521-4.932-1.875-7.481-.537-3.861.651-7.763,2.252-11.317.897-1.99,1.953-4.047,1.777-6.222-.159-1.963-1.406-3.803-3.172-4.676-7.137-3.531-11.253,6.814-12.949,11.852-.548,1.628-1.085,3.281-1.55,4.946h0Z"/>
          <path d="M105.661,130.811c-.158,0-.317-.005-.476-.018-2.126-.164-4.185-1.476-5.647-3.597-4.507-6.544-3.26-13.921-1.67-19.618h0c.496-1.771,1.069-3.515,1.564-4.987,2.401-7.136,5.183-11.275,8.502-12.652,1.785-.741,3.67-.633,5.597.322,2.025,1.001,3.45,3.102,3.63,5.353.177,2.192-.727,4.174-1.602,6.089l-.245.539c-1.928,4.278-2.622,7.729-2.187,10.862.178,1.283.549,2.52.942,3.827.352,1.172.716,2.381.929,3.629.572,3.345-.283,6.285-2.288,7.865-.919.727-2.009,1.115-2.971,1.459-1.166.417-2.591.926-4.079.926h0ZM99.463,108.024h0c-1.585,5.681-2.654,12.291,1.438,18.232,1.159,1.682,2.808,2.762,4.41,2.885,1.296.1,2.668-.386,3.872-.817.883-.314,1.796-.64,2.502-1.197,2.253-1.777,1.856-5.262,1.68-6.286-.195-1.149-.528-2.257-.882-3.431-.394-1.312-.801-2.667-.998-4.075-.48-3.457.257-7.196,2.319-11.77l.248-.547c.787-1.724,1.6-3.506,1.459-5.269-.136-1.682-1.201-3.252-2.714-4.001-1.503-.743-2.888-.834-4.229-.276-2.812,1.167-5.359,5.086-7.568,11.65-.488,1.451-1.052,3.168-1.537,4.903h0Z"/>
        </g>
        <g>
          <path class="cls-4" d="M108.638,82.404c-2.371,2.9-3.895,6.388-5.29,9.864-.105.261-.211.545-.142.817.087.344.419.558.727.735,3.552,2.039,7.382,3.594,11.351,4.607.558.142,1.156.273,1.698.078.4-.144.719-.449,1.015-.754,3.434-3.535,5.633-8.248,6.135-13.152.168-1.636.139-3.35-.55-4.844-2.989-6.477-12.127-.798-14.945,2.648h.001Z"/>
          <path d="M116.37,99.43c-.504,0-.967-.118-1.291-.2-4.048-1.034-7.936-2.613-11.559-4.691-.303-.175-.936-.538-1.116-1.248-.139-.55.058-1.039.175-1.331,1.378-3.433,2.931-7.039,5.417-10.08h0c2.23-2.729,7.753-6.391,11.906-5.857,1.995.253,3.527,1.424,4.433,3.386.648,1.405.845,3.082.621,5.275-.524,5.112-2.784,9.958-6.364,13.644-.345.356-.762.752-1.329.956-.298.107-.603.146-.892.146h-.001ZM104.015,92.901c.019,0,.102.07.33.202,3.492,2.004,7.241,3.526,11.143,4.522.462.118.901.211,1.213.101.235-.085.475-.32.701-.552,3.322-3.42,5.419-7.916,5.906-12.659.193-1.886.04-3.288-.479-4.412-.671-1.457-1.699-2.254-3.137-2.437-3.424-.439-8.377,2.77-10.414,5.262h0c-2.339,2.859-3.833,6.334-5.163,9.648-.028.071-.105.261-.104.326,0,0,0,0,.003,0h.001ZM108.637,82.404h.013-.013Z"/>
        </g>
      </g>
      <g>
        <g>
          <path class="cls-2" d="M78.387,178.533c1.374,1.13,3.158,1.624,4.911,1.927,2.515.434,5.088.532,7.629.289,1.603-.153,3.345-.527,4.337-1.795,1.33-1.7.652-4.337-.896-5.842-1.548-1.504-3.71-2.158-5.783-2.761-2.735-.796-7.771-2.601-10.505-.956-3.045,1.832-2.248,7.037.308,9.137h0Z"/>
          <path d="M88.195,181.707c-1.689,0-3.374-.143-5.039-.431-1.612-.278-3.672-.767-5.296-2.102h0c-1.705-1.402-2.733-3.955-2.557-6.352.135-1.836.969-3.306,2.348-4.135,2.769-1.67,7.28-.303,10.266.601l.898.268c1.958.569,4.395,1.278,6.128,2.962,1.751,1.701,2.621,4.84.972,6.947-1.228,1.571-3.269,1.952-4.91,2.11-.935.088-1.873.132-2.809.132h-.001ZM78.912,177.893c1.324,1.089,3.114,1.507,4.526,1.751,2.442.421,4.933.518,7.409.28,1.31-.125,2.923-.407,3.763-1.482,1.047-1.339.422-3.529-.821-4.736-1.437-1.398-3.562-2.015-5.436-2.56l-.915-.274c-2.542-.768-6.793-2.055-8.932-.768-1.161.7-1.484,1.929-1.55,2.838-.136,1.855.669,3.892,1.957,4.95h0Z"/>
        </g>
        <g>
          <path class="cls-5" d="M74.672,167.658c.787,2.227,2.227,5.908,4.113,7.191,2.249,1.53,6.434-.23,8.21-1.889,1.833-1.713.125-2.481-.955-7.023-2.01-8.448-5.669-15.229-7.973-23.636-.915-3.339-2.641-6.238-6.219-7.103-4.106-.993-7.266,1.382-6.386,6.269,1.551,8.611,6.275,17.89,9.21,26.19h0Z"/>
          <path d="M80.932,176.262c-.95,0-1.854-.212-2.613-.728-2.051-1.395-3.51-5.006-4.428-7.599h0c-.944-2.671-2.056-5.396-3.233-8.283-2.432-5.964-4.947-12.13-6.011-18.036-.458-2.541.078-4.685,1.511-6.034,1.401-1.321,3.545-1.754,5.885-1.188,3.397.822,5.629,3.337,6.822,7.69,1.058,3.857,2.428,7.435,3.754,10.894,1.542,4.023,3.136,8.184,4.226,12.769.369,1.552.81,2.634,1.164,3.504.667,1.638,1.15,2.823-.449,4.315-1.329,1.24-4.136,2.696-6.628,2.696ZM75.452,167.382c1.3,3.67,2.578,5.952,3.798,6.782,1.76,1.197,5.51-.249,7.179-1.809.74-.692.694-.89.046-2.481-.355-.874-.843-2.069-1.241-3.745-1.066-4.478-2.57-8.404-4.162-12.56-1.34-3.496-2.725-7.111-3.804-11.049-1.034-3.769-2.818-5.84-5.614-6.517-1.786-.433-3.374-.147-4.359.783-1.011.953-1.372,2.564-1.017,4.535,1.033,5.735,3.515,11.82,5.915,17.705,1.184,2.904,2.303,5.649,3.26,8.356h0Z"/>
        </g>
      </g>
      <g>
        <g>
          <path class="cls-2" d="M45.986,184.326c1.374,1.13,3.158,1.624,4.911,1.927,2.515.434,5.088.532,7.629.289,1.603-.153,3.345-.527,4.337-1.795,1.33-1.7.652-4.337-.896-5.842-1.548-1.504-3.71-2.158-5.783-2.761-2.735-.796-7.771-2.601-10.505-.956-3.045,1.832-2.248,7.037.308,9.137h0Z"/>
          <path d="M55.789,187.5c-1.686,0-3.37-.144-5.033-.431-1.613-.278-3.672-.767-5.296-2.102h0c-1.705-1.403-2.733-3.958-2.556-6.355.135-1.836.969-3.303,2.348-4.133,2.77-1.665,7.28-.301,10.265.603l.898.268c1.958.569,4.395,1.278,6.128,2.962,1.751,1.701,2.619,4.84.972,6.947-1.244,1.589-3.399,1.964-4.911,2.108-.936.089-1.876.133-2.815.133h0ZM46.511,183.686c1.324,1.088,3.114,1.507,4.526,1.751,2.446.422,4.94.518,7.409.279,1.311-.124,2.923-.404,3.763-1.48,1.047-1.339.421-3.529-.821-4.736-1.438-1.398-3.562-2.015-5.437-2.56l-.915-.274c-2.541-.767-6.792-2.053-8.932-.768-1.16.698-1.483,1.928-1.55,2.835-.137,1.856.668,3.893,1.956,4.953h0Z"/>
        </g>
        <g>
          <path class="cls-5" d="M45.725,168.829c-.112,2.359-.171,6.312,1.09,8.212,1.504,2.266,6.043,2.218,8.315,1.354,2.345-.893,1.053-2.25,1.769-6.863,1.332-8.581.507-16.242,1.55-24.896.414-3.437-.088-6.774-3.073-8.926-3.427-2.471-7.25-1.466-8.281,3.391-1.818,8.558-.951,18.935-1.369,27.728h-.001Z"/>
          <path d="M51.745,179.765c-2.179,0-4.504-.585-5.62-2.266-1.374-2.071-1.358-5.961-1.227-8.709.134-2.828.135-5.771.136-8.887,0-6.443.003-13.102,1.25-18.975.537-2.526,1.844-4.307,3.68-5.016,1.798-.696,3.944-.283,5.897,1.126,2.836,2.045,3.952,5.217,3.411,9.697-.479,3.97-.561,7.799-.641,11.502-.093,4.309-.189,8.764-.913,13.422-.245,1.577-.245,2.745-.246,3.683,0,1.77-.002,3.048-2.046,3.827-.922.351-2.271.596-3.68.596h-.001ZM51.773,137.239c-.425,0-.834.073-1.213.22-1.296.5-2.239,1.855-2.656,3.815-1.211,5.701-1.213,12.273-1.214,18.629,0,3.136,0,6.097-.138,8.965h0c-.185,3.887.135,6.482.953,7.714,1.177,1.773,5.196,1.852,7.33,1.039.946-.361.979-.562.979-2.28,0-.944.002-2.234.266-3.936.706-4.55.797-8.753.893-13.203.081-3.744.164-7.614.652-11.666.468-3.88-.401-6.471-2.736-8.155-1.041-.751-2.127-1.142-3.117-1.142h0Z"/>
        </g>
      </g>
      <g>
        <g>
          <path class="cls-5" d="M93.022,120.25c-.817,6.635-2.707,12.998-8.712,16.871-1.733,1.118-3.929,1.702-5.888,1.058-1.373-.451-2.489-1.444-3.559-2.416-.754-.685-1.519-1.389-2.015-2.279-1.253-2.247-.485-5.12.89-7.294,1.375-2.175,3.301-3.968,4.608-6.184,1.981-3.358,2.385-7.416,2.273-11.313-.062-2.182-.247-4.487.752-6.427.901-1.751,2.76-2.969,4.726-3.097,7.946-.515,7.768,10.618,7.395,15.92-.12,1.713-.26,3.446-.471,5.161h0Z"/>
          <path d="M80.151,139.276c-.687,0-1.356-.102-1.987-.31-1.578-.518-2.842-1.668-3.858-2.59-.754-.685-1.609-1.461-2.182-2.49-1.242-2.228-.901-5.271.915-8.139.676-1.07,1.477-2.046,2.251-2.993.866-1.057,1.685-2.056,2.343-3.171,1.607-2.725,2.292-6.177,2.158-10.867l-.019-.599c-.071-2.103-.143-4.278.862-6.232,1.033-2.007,3.157-3.399,5.41-3.544,2.145-.138,3.928.486,5.292,1.856,2.535,2.549,3.51,7.439,2.983,14.948-.109,1.546-.249,3.373-.475,5.205h0c-.723,5.871-2.409,13.16-9.086,17.465-1.49.961-3.093,1.46-4.608,1.46h0ZM86.628,99.978c-.156,0-.315.005-.477.016-1.684.109-3.271,1.149-4.043,2.649-.809,1.572-.743,3.528-.68,5.419l.019.607c.144,5.015-.615,8.751-2.387,11.755-.722,1.225-1.62,2.321-2.488,3.38-.777.949-1.511,1.844-2.133,2.827-.557.88-2.263,3.943-.868,6.448.441.791,1.157,1.441,1.849,2.069.946.86,2.017,1.835,3.26,2.242,1.526.503,3.463.142,5.181-.967,6.064-3.91,7.618-10.422,8.339-16.276.221-1.793.36-3.594.466-5.119.486-6.908-.357-11.505-2.505-13.663-.926-.932-2.086-1.389-3.533-1.389v.002Z"/>
        </g>
        <g>
          <path class="cls-4" d="M93.584,92.97c1.073,3.589,1.139,7.394,1.09,11.14-.004.281-.015.584-.184.809-.212.284-.602.354-.953.399-4.063.516-8.197.478-12.25-.113-.57-.083-1.172-.193-1.597-.581-.314-.287-.491-.691-.647-1.087-1.811-4.584-2.028-9.78-.606-14.5.475-1.575,1.16-3.146,2.37-4.26,5.25-4.829,11.501,3.927,12.777,8.192h0Z"/>
          <path d="M87.826,106.509c-2.226,0-4.451-.162-6.658-.484-.673-.097-1.443-.247-2.036-.79-.448-.408-.678-.934-.859-1.394-1.887-4.779-2.111-10.121-.628-15.042.637-2.111,1.463-3.583,2.603-4.63,1.591-1.462,3.459-1.951,5.393-1.421,4.035,1.109,7.728,6.608,8.739,9.985h0c1.127,3.769,1.173,7.693,1.123,11.388-.004.317-.012.845-.348,1.294-.439.589-1.164.681-1.513.725-1.93.245-3.873.368-5.815.368h0ZM84.122,84.193c-.977,0-1.885.396-2.754,1.194-.911.839-1.591,2.075-2.137,3.89-1.376,4.565-1.169,9.522.583,13.956.119.302.249.609.435.781.247.225.706.307,1.157.372,3.984.581,8.031.617,12.026.112.282-.036.381-.071.414-.094-.005-.022-.002-.22,0-.305.048-3.566.005-7.346-1.054-10.891h0c-.923-3.083-4.257-7.946-7.591-8.862-.369-.102-.728-.152-1.078-.152h0Z"/>
        </g>
      </g>
      <g>
        <path class="cls-1" d="M81.877,123.778c1.899,4.919,4.424,12.54,6.966,17.16-8.128,4.353-17.693,4.859-26.903,5.272-9.211-.413-18.776-.919-26.903-5.272,2.541-4.62,4.771-9.411,6.67-14.33l40.171-2.83h-.001Z"/>
        <path d="M61.976,147.037c-8.888-.395-18.878-.843-27.331-5.37-.195-.105-.34-.283-.403-.495-.063-.213-.038-.441.068-.635,2.518-4.577,4.746-9.364,6.624-14.228.115-.301.394-.506.714-.528l40.171-2.83c.382-.022.7.19.83.528.47,1.217.979,2.602,1.517,4.065,1.649,4.485,3.518,9.569,5.402,12.993.107.194.131.422.068.635-.063.212-.208.39-.403.495-8.453,4.527-18.443,4.975-27.257,5.37ZM36.168,140.59c7.971,3.993,17.432,4.416,25.808,4.791,8.308-.375,17.768-.798,25.741-4.795-1.803-3.488-3.551-8.241-5.106-12.47-.452-1.229-.884-2.404-1.289-3.469l-39.035,2.75c-1.761,4.501-3.816,8.933-6.12,13.193h.001Z"/>
      </g>
      <g>
        <g>
          <path class="cls-4" d="M44.076,112.154c-.913,3.014-1.834,6.084-1.818,9.234.003.683.07,1.417.506,1.942.317.382.785.599,1.238.802,11.563,5.166,25.018,6.141,37.129,2.373.348-.108.708-.228.974-.477,1.217-1.139,1.18-9.459,1.315-11.53.345-5.293.148-10.767.359-16.105.118-3.124.229-6.307-.598-9.322-1.71-6.237-7.571-10.973-13.982-11.823-19.659-2.605-21.024,21.366-25.123,34.906Z"/>
          <path d="M65.917,129.603c-7.593,0-15.25-1.588-22.252-4.716-.459-.205-1.087-.485-1.538-1.027-.607-.733-.694-1.66-.698-2.468-.017-3.3.934-6.44,1.854-9.477l.793.24-.793-.24c.708-2.339,1.333-4.991,1.995-7.799,3.145-13.338,7.074-29.942,24.029-27.689,6.883.913,12.917,6.022,14.672,12.425.868,3.165.745,6.422.627,9.572-.09,2.284-.106,4.635-.121,6.909-.02,3.037-.041,6.177-.239,9.22-.026.403-.045,1.046-.069,1.827-.18,5.905-.473,9.288-1.506,10.254-.413.387-.921.546-1.293.662-4.959,1.544-10.194,2.308-15.461,2.308h0ZM66.353,77.881c-13.188,0-16.509,14.091-19.462,26.615-.668,2.834-1.299,5.51-2.022,7.899-.884,2.92-1.798,5.938-1.782,8.989.003.516.042,1.088.315,1.418.189.226.522.387.938.573,11.495,5.135,24.815,5.99,36.544,2.339.229-.071.517-.162.655-.29.729-.803.919-7.044.982-9.094.024-.806.045-1.469.072-1.885.195-2.994.216-6.11.236-9.123.015-2.288.03-4.654.122-6.962.114-3.023.231-6.151-.569-9.07-1.585-5.779-7.051-10.393-13.292-11.221-.956-.127-1.869-.188-2.737-.188h0Z"/>
        </g>
        <path d="M75.692,96.638c-1.151,0-1.994-.692-2.696-1.267l-.317-.272c-.661-.576-1.151-.986-1.462-1.226-.214.204-.407.425-.608.653-.76.867-1.625,1.852-3.518,1.575-1.339-.192-2.454-.919-3.459-1.676h0c-2.929-2.203-6.84-5.542-6.974-9.071-.059-1.564.616-2.976,2.007-4.198,1.125-.988,2.621-1.622,4.706-1.996,2.403-.429,4.635-.394,6.635.107,2.636.659,4.96,2.156,6.885,3.535,1.345.962,2.832,2.135,3.451,3.892.755,2.139-.031,4.374-.901,6.48-.419,1.017-1.2,2.911-2.981,3.364-.272.069-.528.1-.771.1h.003ZM71.13,92.019c.536,0,1.211.588,2.638,1.83l.246.213c.838.687,1.322,1.053,2.041.87.856-.218,1.399-1.278,1.858-2.391.779-1.884,1.43-3.707.87-5.297-.458-1.302-1.713-2.28-2.853-3.096-1.799-1.287-3.957-2.683-6.323-3.275-1.771-.444-3.77-.471-5.942-.083-1.775.317-3.016.829-3.905,1.609-1.012.89-1.486,1.835-1.445,2.891.119,3.151,4.782,6.658,6.315,7.81h0c.829.624,1.73,1.221,2.699,1.36,1.011.143,1.352-.247,2.037-1.029.344-.392.735-.837,1.265-1.229.166-.123.326-.185.5-.185v.002Z"/>
        <g>
          <polygon class="cls-1" points="71.525 92.992 68.849 95.782 71.042 99.388 67.289 108.313 73.221 113.788 76.221 107.83 73.857 99.923 74.611 95.504 71.525 92.992"/>
          <path d="M73.221,114.616c-.206,0-.408-.077-.562-.22l-5.931-5.476c-.256-.236-.336-.608-.202-.929l3.588-8.535-1.973-3.245c-.195-.321-.15-.733.11-1.004l2.676-2.79c.298-.312.786-.342,1.121-.069l3.086,2.512c.231.189.344.487.293.782l-.721,4.228,2.308,7.721c.061.202.042.421-.053.609l-3,5.959c-.117.233-.336.396-.592.444-.049.008-.098.012-.148.012h0ZM68.278,108.098l4.697,4.337,2.358-4.683-2.27-7.591c-.036-.123-.044-.251-.023-.376l.673-3.943-2.119-1.725-1.707,1.779,1.862,3.062c.138.226.159.506.056.751,0,0-3.527,8.389-3.527,8.389Z"/>
        </g>
      </g>
      <g>
        <g>
          <path class="cls-5" d="M31.133,111.341c-1.088,6.596-1.069,13.234,3.6,18.643,1.347,1.561,3.289,2.741,5.35,2.676,1.444-.046,2.796-.683,4.096-1.314.917-.445,1.849-.904,2.576-1.618,1.836-1.803,1.909-4.775,1.203-7.249s-2.048-4.738-2.677-7.233c-.953-3.78-.196-7.787,1.01-11.494.675-2.075,1.502-4.235,1.091-6.379-.371-1.934-1.811-3.627-3.661-4.304-7.478-2.735-10.447,7.996-11.585,13.188-.368,1.677-.723,3.38-1.004,5.085h.001Z"/>
          <path d="M39.918,133.49c-2.07,0-4.178-1.072-5.812-2.966-5.192-6.013-4.752-13.482-3.79-19.318h0c.298-1.809.679-3.606,1.012-5.125,1.612-7.355,3.928-11.771,7.078-13.501,1.695-.93,3.579-1.028,5.601-.288,2.121.775,3.765,2.709,4.19,4.927.414,2.16-.27,4.226-.932,6.225l-.186.565c-1.451,4.462-1.767,7.97-.994,11.037.316,1.255.82,2.444,1.353,3.703.477,1.124.969,2.288,1.316,3.504.932,3.265.401,6.281-1.42,8.067-.841.826-1.879,1.329-2.796,1.773-1.235.6-2.773,1.345-4.431,1.397-.063.003-.127.003-.191.003l.002-.003ZM31.95,111.475c-.96,5.82-1.305,12.505,3.409,17.968,1.335,1.546,3.062,2.44,4.697,2.389,1.304-.04,2.609-.673,3.761-1.232.802-.388,1.711-.828,2.356-1.463,2.047-2.009,1.273-5.43.987-6.43-.319-1.119-.77-2.185-1.248-3.314-.534-1.26-1.087-2.565-1.434-3.945-.853-3.382-.527-7.181,1.025-11.954l.189-.573c.595-1.797,1.21-3.656.877-5.393-.317-1.657-1.547-3.103-3.132-3.682-1.574-.574-2.957-.514-4.234.185-2.669,1.466-4.775,5.639-6.258,12.404-.328,1.498-.703,3.269-.996,5.041h.001Z"/>
        </g>
        <g>
          <path class="cls-4" d="M38.288,85.01c-2.042,3.141-3.179,6.773-4.188,10.381-.076.271-.15.564-.052.828.124.332.477.509.802.651,3.753,1.642,7.729,2.771,11.784,3.347.57.081,1.179.145,1.696-.107.382-.187.666-.524.927-.86,3.03-3.887,4.704-8.811,4.671-13.74-.011-1.645-.225-3.346-1.073-4.755-3.675-6.114-12.142.524-14.569,4.255h.002Z"/>
          <path d="M47.454,101.118c-.316,0-.63-.038-.936-.081-4.137-.588-8.174-1.734-11.999-3.408-.32-.14-.988-.431-1.246-1.12-.197-.526-.055-1.036.03-1.34.996-3.561,2.148-7.313,4.292-10.61h0c1.922-2.954,7.044-7.18,11.199-7.115,2.01.036,3.661,1.033,4.774,2.885,1.047,1.742,1.181,3.789,1.191,5.176.034,5.14-1.686,10.202-4.846,14.255-.304.391-.674.83-1.216,1.096-.409.2-.827.263-1.242.263h-.001ZM34.834,95.948c.02,0,.111.06.348.162,3.689,1.614,7.581,2.72,11.569,3.287.47.068.92.114,1.217-.03.224-.11.437-.369.638-.626,2.931-3.761,4.528-8.457,4.496-13.226-.013-1.895-.316-3.273-.954-4.334-.826-1.375-1.933-2.056-3.384-2.081-3.447-.122-8.027,3.664-9.781,6.362h0c-2.016,3.101-3.124,6.716-4.085,10.153-.022.081-.075.271-.068.335,0,0,.002,0,.004,0h0Z"/>
        </g>
      </g>
      <g>
        <g>
          <path class="cls-5" d="M118.317,17.335c-17.368,10.115-25.309,33.849-12.554,50.882,7.869,10.508,29.063,16.706,41.622,12.905,7.48-2.264,13.511-8.78,15.189-16.413.585-2.662.673-5.405.759-8.13.187-5.932.374-11.863.561-17.795.788-25.001-27.211-32.145-45.577-21.449h0Z"/>
          <path d="M138.9,83.084c-12.496,0-27.492-5.949-33.8-14.371-5.62-7.506-7.656-16.856-5.733-26.33,2.16-10.631,9.088-20.263,18.534-25.764,10.897-6.347,24.933-6.612,34.921-.66,7.988,4.76,12.214,12.876,11.9,22.851l-.561,17.794c-.086,2.724-.175,5.541-.778,8.281-1.754,7.978-7.939,14.662-15.758,17.029-2.636.797-5.603,1.169-8.725,1.169h0ZM136.407,13.387c-6.092,0-12.347,1.562-17.674,4.664h0c-9.044,5.267-15.677,14.487-17.742,24.662-1.828,9.004.102,17.885,5.436,25.007,7.537,10.068,28.086,16.426,40.718,12.609,7.142-2.162,13.017-8.511,14.62-15.799.569-2.591.657-5.33.74-7.978l.561-17.794c.294-9.346-3.645-16.937-11.092-21.376-4.478-2.669-9.953-3.995-15.567-3.995Z"/>
        </g>
        <path class="cls-3" d="M118.274,46.643c-2.997.944-6.302,2.418-7.259,5.411-.859,2.686.638,5.69,2.898,7.375s5.124,2.313,7.911,2.735c8.248,1.249,16.71,1.071,24.899-.524,3.916-.763,7.98-1.97,10.704-4.885,7.203-7.709-.402-13.069-7.663-13.66-10.585-.861-21.361.359-31.49,3.547h0Z"/>
        <path d="M131.095,71.01c-.209,0-.417-.078-.578-.235-.328-.32-.334-.844-.015-1.172,1.473-1.511,4.515-1.626,6.735-1.711.314-.012.605-.023.865-.038,2.827-.154,5.729.239,8.383,1.147.433.148.663.619.515,1.052-.148.432-.619.663-1.052.516-2.454-.841-5.131-1.207-7.754-1.061-.268.015-.57.026-.894.039-1.832.069-4.601.175-5.612,1.212-.162.166-.377.25-.593.25h0Z"/>
        <path d="M139.766,74.075h-2.537c-.457,0-.828-.371-.828-.828s.371-.828.828-.828h2.537c.457,0,.828.371.828.828s-.371.828-.828.828Z"/>
        <path d="M138.221,47.122c-.102,0-.208-.019-.309-.06-.425-.171-.631-.652-.46-1.077.688-1.713.933-3.589.708-5.423-.055-.454.267-.868.721-.923.457-.054.868.268.923.721.259,2.112-.023,4.27-.816,6.242-.129.324-.441.52-.768.52h.001Z"/>
        <path d="M142.131,46.157c-.018,0-.035,0-.053-.002-.456-.028-.803-.421-.775-.877.073-1.198.09-2.413.051-3.613-.015-.457.344-.84.801-.855h.027c.445,0,.813.353.828.801.042,1.251.023,2.519-.054,3.768-.027.439-.391.778-.825.778Z"/>
        <path d="M146.689,47.189c-.457,0-.828-.371-.828-.828v-6.42c0-.458.371-.828.828-.828s.828.371.828.828v6.42c0,.458-.371.828-.828.828Z"/>
      </g>
      <g>
        <g>
          <path class="cls-5" d="M68.508,22.126c-19.474,4.973-33.61,25.626-26.005,45.5,4.692,12.261,23.379,24.025,36.498,23.808,7.814-.129,15.398-4.746,19.102-11.628,1.292-2.4,2.128-5.014,2.956-7.611,1.804-5.654,3.608-11.307,5.411-16.961,7.603-23.83-17.37-38.367-37.962-33.108Z"/>
          <path d="M78.634,92.265c-13.732,0-32.247-12.171-36.904-24.343-3.351-8.757-2.749-18.308,1.695-26.893,4.987-9.634,14.287-17,24.879-19.705,12.223-3.12,25.793.466,33.769,8.928,6.379,6.765,8.222,15.727,5.188,25.235l-5.411,16.961c-.828,2.596-1.685,5.279-3.016,7.752-3.872,7.193-11.651,11.928-19.818,12.064-.126.002-.253.003-.38.003l-.002-.002ZM77.076,21.9c-2.82,0-5.64.334-8.363,1.03h0c-10.14,2.59-19.044,9.64-23.817,18.861-4.224,8.159-4.799,17.229-1.619,25.54,4.495,11.748,22.481,23.497,35.71,23.275,7.46-.123,14.85-4.621,18.387-11.191,1.258-2.338,2.091-4.948,2.897-7.471l5.411-16.961c2.842-8.908,1.132-17.287-4.815-23.595-5.689-6.033-14.73-9.489-23.791-9.489h0Z"/>
        </g>
        <path class="cls-3" d="M60.443,50.303c-3.141.087-6.724.6-8.463,3.217-1.561,2.348-.944,5.647.768,7.887s4.295,3.627,6.86,4.796c7.591,3.46,15.779,5.605,24.091,6.313,3.975.339,8.215.29,11.632-1.768,9.038-5.442,3.191-12.68-3.63-15.236-9.945-3.727-20.643-5.503-31.258-5.21h0Z"/>
        <g>
          <path class="cls-4" d="M74.701,81.345c1.305.561,2.493,1.548,3.847,1.765,1.399.224,3.045-.241,3.662-1.516.447-.922.242-2.062-.311-2.923-.554-.862-1.409-1.485-2.296-1.996-2.092-1.205-4.623-1.865-7.01-2.112-1.386-.143-2.589.035-3.934.221-1.5.208-2.964.004-4.363.757-1.33.716-2.273,2.393-1.649,3.769.478,1.054,1.7,1.589,2.855,1.662s2.298-.217,3.449-.347c1.753-.199,3.545-.012,5.225.522.178.056.353.123.525.197h0Z"/>
          <path d="M79.218,83.991c-.275,0-.544-.022-.8-.063-1.01-.162-1.887-.659-2.735-1.14-.43-.244-.861-.49-1.308-.682h0c-.148-.063-.297-.121-.45-.169-1.578-.501-3.264-.67-4.88-.489-.339.038-.678.092-1.016.144-.828.129-1.68.266-2.578.206-1.285-.081-2.896-.688-3.557-2.147-.845-1.865.386-3.965,2.011-4.84,1.143-.615,2.278-.679,3.375-.742.419-.024.842-.047,1.268-.106,1.446-.201,2.689-.373,4.132-.224,1.939.2,4.786.748,7.338,2.218.766.441,1.866,1.155,2.58,2.265.762,1.188.901,2.618.361,3.733-.701,1.446-2.297,2.036-3.739,2.036h-.002ZM75.028,80.584c.502.216.988.489,1.472.764.753.427,1.465.83,2.179.945,1.047.164,2.342-.142,2.787-1.06.286-.59.183-1.42-.263-2.115-.394-.613-1.034-1.162-2.013-1.726-2.3-1.325-4.902-1.822-6.681-2.006-1.24-.128-2.337.023-3.606.2-.601.083-1.068.111-1.531.137-1,.057-1.864.106-2.683.547-.954.514-1.717,1.748-1.287,2.698.359.791,1.385,1.129,2.153,1.178.709.041,1.443-.069,2.218-.19.361-.056.723-.113,1.085-.154,1.848-.207,3.772-.016,5.57.556.204.065.403.141.601.226h-.001Z"/>
        </g>
        <path d="M82.21,82.421c-.185,0-.371-.061-.525-.188-.038-.031-3.865-3.132-8.222-3.44-.456-.032-.8-.429-.768-.885.032-.456.419-.793.885-.768,4.894.346,8.985,3.672,9.157,3.813.353.291.404.812.113,1.165-.164.199-.401.302-.64.302h0Z"/>
      </g>
    </g>
  </g>
</svg>