<?xml version="1.0" encoding="utf-8"?>
<!-- Generator: Adobe Illustrator 26.5.0, SVG Export Plug-In . SVG Version: 6.00 Build 0)  -->
<svg version="1.1" id="레이어_1" xmlns="http://www.w3.org/2000/svg" xmlns:xlink="http://www.w3.org/1999/xlink" x="0px"
	 y="0px" viewBox="0 0 390 390" style="enable-background:new 0 0 390 390;" xml:space="preserve">
<g>
	<g>
		<path d="M66.5,172.9c3.2,0,6.4,1.1,8.7,3.9c0.6,0.8,1.1,1.6,1.4,2.4c1.8,3.9,1.4,8.7,1.6,12.9c0,0.2,0,0.3,0,0.5
			c0.2,4.5,0.6,8.7,1.3,12.7c1,5.8,2.4,11.3,4.5,16.7c1,2.7,2.3,5.5,3.5,8.4c1.1,2.6,2.4,5,3.9,7.4c6.8,11.7,15.6,21.4,25.1,31.8
			c4.2,4.7,19.5,21.1,8,25.4c-0.6,0.3-1.4,0.3-2.1,0.3c-3.9,0-8.5-3.1-11.6-4.8c-8-4.5-15.6-10.1-22.2-16.7
			c-7.4-7.4-13.8-15.8-19.1-24.8c-2.6-4.3-5-8.8-7.1-13.5c-6.1-13.2-12.2-28.6-12.9-43.1c-0.3-7.1,2.7-14,8.8-17.4
			c1.3-0.6,2.6-1.3,3.9-1.6C63.7,173.1,65.2,172.9,66.5,172.9 M66.5,169.7c-1.6,0-3.2,0.2-4.8,0.6c-1.4,0.5-3.1,1.1-4.5,1.9
			c-6.9,3.9-10.9,11.6-10.6,20.4c0.6,15.6,7.4,31.8,13,44.2c2.1,4.7,4.5,9.2,7.2,13.7c5.8,9.6,12.4,18.2,19.6,25.4
			c6.9,6.9,14.6,12.7,22.8,17.2c0.5,0.3,1,0.5,1.4,0.8c3.4,1.9,7.6,4.3,11.7,4.3c1.1,0,2.3-0.2,3.2-0.6c4-1.6,5.5-4.3,5.9-6.3
			c1.8-7.1-5.3-16.1-12.4-24l-0.3-0.5l-1.6-1.8c-8.7-9.6-16.9-18.7-23.2-29.6c-1.6-2.7-2.7-5-3.7-7.1c-1.3-2.9-2.4-5.5-3.4-8.2
			c-1.9-5.3-3.4-10.6-4.3-16.2c-0.6-4-1.1-8-1.3-12.2v-0.5c0-1,0-1.9-0.2-2.9c0-3.5-0.2-7.6-1.8-11.1c-0.6-1.3-1.3-2.3-1.9-3.1
			C75,171.5,71,169.7,66.5,169.7L66.5,169.7z"/>
		<path d="M122.4,299.1c-4.3,0-8.7-2.4-12.1-4.3l-0.2-0.2c-0.2-0.2-0.5-0.3-0.6-0.3c-0.3-0.2-0.5-0.3-0.8-0.5
			c-8.4-4.5-16.1-10.5-23-17.4c-7.2-7.2-14-15.9-19.8-25.6c-2.9-4.7-5.3-9.2-7.2-13.8c-6.1-13.5-12.5-29.3-13-44.5
			c-0.3-9.2,3.9-17,11.1-21.2c1.3-0.8,2.9-1.4,4.7-1.9c1.6-0.5,3.2-0.6,5.1-0.6c4.7,0,8.8,1.8,11.7,5c0.8,1,1.4,2.1,2.1,3.2
			c1.6,3.5,1.9,7.6,1.9,11.4c0.2,1,0.2,1.9,0.2,2.9v0.5c0.2,3.7,0.5,7.6,1.3,12.1c1,5.5,2.4,10.6,4.3,16.1c1,2.7,2.1,5.1,3.4,8.2
			c1.1,2.6,2.3,4.7,3.7,6.9c6.1,10.6,14,19.5,22.3,28.8l2.3,2.6l0.3,0.6c7.6,8.4,14.3,17.2,12.5,24.6c-0.5,1.8-1.9,5-6.4,6.8
			C125,299,123.9,299.1,122.4,299.1z M66.5,170.5c-1.8,0-3.2,0.2-4.7,0.6c-1.6,0.5-3.1,1.1-4.3,1.9c-6.8,3.7-10.5,11.1-10.1,19.6
			c0.6,15,6.9,30.5,13,43.9c1.9,4.5,4.3,8.8,7.2,13.5c5.8,9.5,12.2,18,19.5,25.2c6.8,6.8,14.5,12.5,22.7,17c0.3,0.2,0.5,0.3,0.6,0.3
			c0.3,0.2,0.5,0.3,0.8,0.5c3.4,1.9,7.4,4.2,11.3,4.2c1.1,0,2.1-0.2,2.9-0.5c3.7-1.4,5.1-4,5.5-5.8c1.6-6.6-5.3-15.4-12.2-23.2
			l-0.3-0.6l-2.3-2.4c-8.5-9.3-16.4-18.2-22.5-28.9c-1.4-2.4-2.6-4.7-3.7-7.1c-1.3-3.1-2.4-5.5-3.4-8.2c-1.9-5.5-3.4-10.8-4.3-16.4
			c-0.8-4.7-1.1-8.5-1.3-12.4v-0.5c0-1,0-1.9-0.2-2.7c0-3.5-0.2-7.4-1.8-10.9c-0.5-1.1-1.1-2.1-1.8-2.9
			C74.5,172.1,70.7,170.5,66.5,170.5z M122.4,296.1c-3.7,0-7.9-2.4-10.9-4.3l-1.1-0.6c-8.4-4.7-15.8-10.3-22.3-16.9
			c-7.4-7.4-13.8-15.8-19.3-24.9c-2.9-4.8-5.1-9.2-7.1-13.7c-5.6-12.2-12.2-28.1-12.9-43.4c-0.3-7.9,3.2-14.8,9.3-18.2
			c1.3-0.6,2.7-1.3,4-1.6c1.4-0.3,3.1-0.5,4.3-0.5c3.9,0,7.1,1.4,9.3,4.2c0.6,0.8,1.3,1.8,1.6,2.6c1.4,3.2,1.6,7.1,1.6,10.8
			c0,0.8,0,1.6,0,2.4v0.5c0.2,4,0.5,8,1.3,12.5c1,5.8,2.4,11.3,4.5,16.6c0.8,2.3,1.8,4.3,2.7,6.8L88,230c1,2.4,2.3,4.8,3.9,7.2
			c6.6,11.4,15.3,20.9,24.4,31l1.1,1.1c4,4.5,13.3,15,11.7,21.5c-0.5,2.1-2.1,3.7-4.5,4.5C124,296.1,123.1,296.1,122.4,296.1z
			 M66.5,173.7c-1.3,0-2.6,0.2-4,0.5c-1.1,0.3-2.4,1-3.7,1.6c-5.5,3.1-8.7,9.5-8.4,16.6c0.6,15,7.2,30.7,12.9,42.8
			c1.9,4.3,4.2,8.7,7.1,13.5c5.3,9,11.7,17.4,19,24.6c6.4,6.4,13.8,12.1,22,16.6l1.1,0.6c2.9,1.8,6.9,4,10.1,4c0.5,0,1.3,0,1.8-0.2
			c2.1-0.8,3.2-1.9,3.5-3.5c1.4-5.9-7.9-16.2-11.4-20.1l-1-1.1c-9.2-10.1-17.8-19.8-24.6-31.4c-1.6-2.6-2.9-5-3.9-7.4l-0.6-1.6
			c-1.1-2.4-2.1-4.5-2.9-6.8c-2.1-5.3-3.5-10.9-4.5-16.9c-0.8-4.5-1.1-8.7-1.3-12.9v-0.5c0-0.8,0-1.6,0-2.4c0-3.5-0.2-7.1-1.4-10.1
			c-0.3-0.8-0.8-1.4-1.3-2.3C72.6,175,69.9,173.7,66.5,173.7z"/>
	</g>
	<g>
		<g>
			<g>
				<path style="fill:#FFFFFF;" d="M91.6,237.7c6.8,11.7,15.6,21.4,25.1,31.8c4.2,4.7,19.5,21.1,8,25.4c-4.2,1.6-10-2.4-13.7-4.5
					c-8-4.5-15.6-10.1-22.2-16.7C81.4,266.3,75,258,69.7,249C76,247.2,84.2,243.7,91.6,237.7z"/>
			</g>
		</g>
	</g>
	<g>
		<g>
			<g>
				<path style="fill:#0090D4;" d="M78.4,191.9c0,0.2,0,0.3,0,0.5c0.2,4.5,0.6,8.7,1.3,12.7c1,5.8,2.4,11.3,4.5,16.7
					c1,2.7,2.3,5.5,3.5,8.4c1.1,2.6,2.4,5,3.9,7.4C84,243.5,76,247,69.7,249c-2.6-4.3-5-8.8-7.1-13.5c-6.1-13.2-12.2-28.6-12.9-43.1
					c-0.3-7.1,2.7-14,8.8-17.4c1.3-0.6,2.6-1.3,3.9-1.6c4.5-1.3,9.5-0.5,12.7,3.2c0.6,0.8,1.1,1.6,1.4,2.4
					C78.5,183.1,78.2,187.7,78.4,191.9z"/>
			</g>
		</g>
	</g>
</g>
<g>
	<g>
		<g>
			<g>
				<g>
					<g>
						<path style="fill:#FFFFFF;" d="M276.6,114.2c-3.1,0-6.3,0.3-9.5,1c-2.7,0.6-5.5,1.6-8,2.6c-8.4,3.5-22.2,18.2-15.3,28
							c5,7.1,15.1-3.5,19.9-6.1c10.8-5.6,19.9,7.1,24.3,15.8c3.5,7.1,12.1,10,19,6.4c7.1-3.5,10-12.1,6.4-19.1
							c-4.3-8.7-10.3-17-18.5-22.5C288.8,116.3,283,114.4,276.6,114.2z"/>
						<path d="M276,114.2c0.2,0,0.3,0,0.5,0c6.4,0.2,12.4,1.9,18.3,6.1c8.2,5.5,14.1,13.7,18.5,22.5c3.4,7.1,0.5,15.6-6.4,19.1
							c-2.1,1-4.2,1.4-6.4,1.4c-5.1,0-10.1-2.9-12.7-7.9c-3.5-7.2-10.5-17.2-19-17.2c-1.8,0-3.5,0.5-5.5,1.4
							c-3.7,1.9-10.3,8.5-15.4,8.5c-1.6,0-3.2-0.6-4.3-2.4c-7.1-9.8,6.9-24.6,15.3-28c2.6-1.1,5.3-2.1,8-2.6
							C270.2,114.6,273.1,114.2,276,114.2 M276,110.2c-3.1,0-6.3,0.3-9.8,1.1c-2.6,0.5-5.5,1.4-8.8,2.9c-7.1,2.9-16.4,11.7-19,20.9
							c-1.4,5-0.8,9.5,1.9,13.2c1.9,2.7,4.5,4,7.7,4c4.8,0,9.8-3.5,13.7-6.4c1.4-1.1,2.7-2.1,3.7-2.4c1.3-0.6,2.4-1,3.5-1
							c5.8,0,11.7,7.7,15.3,15c3.1,6.3,9.3,10.1,16.2,10.1c2.9,0,5.6-0.6,8.2-1.9c9-4.5,12.7-15.4,8.4-24.4
							c-5.1-10.6-11.7-18.7-19.8-24.1c-6.6-4.5-13.3-6.6-20.6-6.8L276,110.2L276,110.2z"/>
					</g>
				</g>
			</g>
		</g>
		<g>
			<g>
				<path style="fill:#6E2E00;" d="M288.7,146.1c1.1,0,2.1,0.5,3.1,1.1c-1-1.1-1.6-2.6-1.4-4c0.2-3.2,2.9-5.6,5.9-5.5
					c1.4,0,2.7,0.6,3.7,1.6c-0.8-1-1.3-2.3-1.3-3.7c0.2-3.2,2.7-5.6,5.9-5.5c0.3,0,0.5,0.2,0.8,0.2c4.7,5.9,7.4,11.6,8,12.7
					c3.4,7.1,0.5,15.8-6.4,19.3c-7.1,3.5-15.6,0.6-19-6.4c-1-2.1-2.6-4.5-4.3-6.8C284.7,147.2,286.6,146.1,288.7,146.1"/>
			</g>
		</g>
	</g>
</g>
<g>
	<g>
		<g>
			<g>
				<path style="fill:#FFFFFF;" d="M185.5,94.8c2.9,1,5.8,2.3,8.7,4c2.4,1.4,4.7,3.2,6.8,5.1c6.8,5.9,15.3,24.4,5.5,31.4
					c-7.1,5.1-13-8.2-16.9-12.2c-8.5-8.8-21.2,0.3-28.1,7.1c-5.6,5.6-14.6,5.5-20.1-0.2c-5.5-5.6-5.5-14.6,0-20.3
					c6.9-6.9,15.3-12.7,24.8-15.4C173.1,92.7,179.3,92.7,185.5,94.8z"/>
				<path d="M175.8,93.2c3.4,0,6.4,0.5,9.6,1.6c2.9,1,5.8,2.3,8.7,4c2.4,1.4,4.7,3.2,6.8,5.1c6.8,5.9,15.3,24.4,5.5,31.4
					c-1.1,0.8-2.3,1.1-3.2,1.1c-5.6,0-10.5-10-13.7-13.3c-2.6-2.6-5.3-3.7-8.4-3.7c-7.1,0-14.8,5.9-19.8,10.8
					c-2.7,2.7-6.4,4.2-10,4.2c-3.7,0-7.2-1.4-10.1-4.2c-5.5-5.6-5.5-14.6,0-20.3c6.9-6.9,15.3-12.7,24.8-15.4
					C169.5,93.7,172.8,93.2,175.8,93.2 M175.8,89.2c-3.5,0-7.1,0.5-10.8,1.6c-9.3,2.6-18.2,8-26.5,16.4c-7.1,7.1-7.1,18.7,0,25.9
					c3.4,3.5,8,5.5,13,5.5c4.8,0,9.3-1.9,12.9-5.3c6.1-5.9,12.4-9.6,16.9-9.6c2.1,0,3.9,0.8,5.5,2.4c0.6,0.6,1.6,2.1,2.7,3.5
					c3.4,4.8,7.7,10.9,13.8,10.9c1.9,0,3.9-0.6,5.6-1.9c3.7-2.7,5.8-6.8,6.1-11.9c0.5-9.5-5.5-20.7-11.3-25.9
					c-2.7-2.4-5.1-4.2-7.4-5.5c-3.2-1.9-6.4-3.4-9.5-4.3C183,89.8,179.5,89.2,175.8,89.2L175.8,89.2z"/>
			</g>
		</g>
	</g>
</g>
<g>
	<g>
		<path style="fill:#6E2E00;" d="M163.6,120.7c-1.1-0.3-2.3-0.2-3.4,0.2c1.3-0.6,2.3-1.9,2.9-3.4c0.8-3.1-0.8-6.3-4-7.2
			c-1.4-0.5-3.1-0.2-4.2,0.3c1.1-0.8,1.9-1.8,2.4-3.1c0.8-3.1-0.8-6.3-4-7.2c-0.3-0.2-0.5,0-0.8,0c-6.4,4.2-10.9,8.5-11.9,9.5
			c-5.6,5.6-5.6,14.8,0,20.4c5.6,5.6,15,5.6,20.7,0.2c1.6-1.6,4-3.4,6.4-5.1C167.3,123.1,165.8,121.3,163.6,120.7"/>
	</g>
</g>
<g>
	<g>
		<g>
			<g>
				<g>
					<path style="fill-rule:evenodd;clip-rule:evenodd;fill:#00A2FC;" d="M316.3,390.5c13.5-28-6.1-77.5-14.8-95
						c-1.8-3.5-4-7.2-6.4-10.9c-1.6-2.7-3.4-5.5-5-8.2c0.8-1.6,1.8-3.1,2.7-4.7c1.4-2.3,2.7-4.5,3.9-6.8
						c9.6-19.3,13.7-40.2,11.6-61.9c-1.9-21.1-9.5-39.9-20.7-51.6c-18.2-19-40.8-31.4-61.9-34.1l-7.6-1c-9.2-1.3-19.1-0.8-29.6,1.3
						c-13.2,2.7-26.9,8-39.1,15.6c-13.8,8.4-26,24.6-33.3,44.5c-7.9,21.5-9.3,43.1-4.3,66.1c2.6,11.6,4.7,24.4,6.9,39.4l0.3,2.7
						c3.2,22.5-5.6,46.8-4.2,69.5c0.8,11.6,3.7,24.9,11.3,34.2"/>
					<path d="M317,390.8l-1.4-0.6c5.8-11.9,6.1-29.1,0.8-51c-4-16.7-10.8-33.4-15.6-43.4c-1.6-3.1-3.5-6.6-6.4-10.8
						c-0.8-1.4-1.6-2.7-2.6-4.2c-0.8-1.4-1.8-2.7-2.6-4.2l-0.2-0.3l0.2-0.3c0.6-1.1,1.3-2.3,1.9-3.4c0.3-0.5,0.5-0.8,0.8-1.3
						c1.4-2.3,2.7-4.5,3.9-6.8c9.6-19.5,13.5-40,11.4-61.4c-1.9-20.9-9.3-39.6-20.6-51.1c-18-18.8-40.4-31.2-61.4-33.8l-7.6-1
						c-9-1.3-18.8-0.8-29.3,1.3c-13.5,2.7-27,8.2-38.7,15.4c-13.8,8.4-25.7,24.4-33,44.1c-7.9,21.4-9.2,42.9-4.3,65.6
						c2.6,11.4,4.7,24,6.9,39.4l0.3,2.7c1.8,12.2,0,25.2-1.8,37.6c-1.4,10.6-3.1,21.5-2.4,31.8c0.6,10,3.2,24.1,11.1,33.8l-1.3,1
						c-8.2-10.1-10.8-24.4-11.4-34.7c-0.6-10.5,0.8-21.5,2.4-32.2c1.8-12.4,3.5-25.2,1.8-37.3l-0.3-2.7c-2.3-15.4-4.3-28-6.9-39.4
						c-5-23-3.5-44.9,4.3-66.6c7.2-20.1,19.5-36.5,33.6-45c12.1-7.4,25.6-12.9,39.4-15.8c10.8-2.1,20.7-2.6,29.9-1.3l7.6,1
						c21.4,2.7,44.2,15.3,62.4,34.4c11.4,11.9,19,30.9,20.9,52.1c2.1,21.7-1.8,42.6-11.7,62.4c-1.1,2.3-2.4,4.5-3.9,6.8
						c-0.3,0.5-0.5,0.8-0.8,1.3c-0.6,1-1.1,1.9-1.8,2.9c0.8,1.3,1.4,2.4,2.3,3.7c0.8,1.4,1.6,2.7,2.4,4.2c2.9,4.3,4.8,7.9,6.4,10.9
						C303.5,297.7,333.1,357.8,317,390.8z"/>
				</g>
				<g>
					<path d="M316.3,392.1c-0.2,0-0.5,0-0.6-0.2c-0.8-0.3-1.1-1.3-0.8-2.1c12.2-25.4-3.5-70.7-14.8-93.6c-1.8-3.5-3.9-7.1-6.3-10.8
						c-1.6-2.6-3.4-5.5-5-8.4c-0.3-0.5-0.3-1.1,0-1.6c0.8-1.6,1.8-3.1,2.7-4.5c1.4-2.3,2.7-4.5,3.9-6.8
						c9.5-19.1,13.3-39.7,11.4-61.1c-1.9-20.7-9.3-39.2-20.3-50.6c-18-18.7-40.2-30.9-60.9-33.6l-7.6-1c-9-1.3-18.8-0.8-29.1,1.3
						c-13,2.7-26.4,8-38.6,15.4c-13.5,8.2-25.4,24.1-32.6,43.7c-7.9,21.2-9.2,42.4-4.3,65.3c2.6,11.6,4.8,24.6,6.9,39.6
						c0,0,0.3,2.4,0.3,2.6l0,0c1.8,12.4,0,25.2-1.8,37.8c-1.4,10.6-2.9,21.5-2.3,31.8c0.6,10,3.1,23.8,10.9,33.4
						c0.5,0.6,0.5,1.8-0.2,2.3c-0.6,0.6-1.8,0.5-2.3-0.2c-8.4-10.3-10.9-24.8-11.6-35.2c-0.6-10.6,0.8-21.7,2.3-32.5
						c1.8-12.4,3.5-25.1,1.8-37l0,0c-0.2-0.5-0.2-1.3-0.3-2.7c-2.1-15-4.3-27.8-6.8-39.2c-5-23.3-3.5-45.2,4.3-67
						c7.2-20.4,19.6-36.8,33.8-45.5c12.5-7.6,26.2-13,39.7-15.8c10.6-2.1,20.7-2.6,30.1-1.4l7.6,1c21.5,2.7,44.4,15.3,62.9,34.6
						c11.4,11.9,19.1,31,21.2,52.6c2.1,22-1.9,43.2-11.7,62.9c-1.1,2.4-2.6,4.7-4,6.9c-0.8,1.3-1.6,2.6-2.3,3.9
						c1.4,2.6,3.1,5.1,4.5,7.4c2.4,3.9,4.7,7.6,6.4,11.1c11.6,23.3,27.7,69.9,14.8,96.5C317.5,391.7,317,392.1,316.3,392.1z"/>
					<path d="M316.3,392.9c-0.2,0-0.6,0-1.1-0.3c-1.1-0.5-1.6-1.9-1.1-3.1c12.1-25.2-3.5-70.3-14.8-92.9c-1.6-3.4-3.7-6.8-6.3-10.6
						c-1.4-2.3-3.2-5.3-5-8.4c-0.5-0.6-0.5-1.8,0-2.4c0.8-1.6,1.8-3.1,2.7-4.5c1.4-2.3,2.7-4.5,3.9-6.6c9.5-19,13.2-39.4,11.3-60.6
						c-1.9-20.6-9.2-38.9-20.1-50.2c-17.8-18.5-39.9-30.7-60.5-33.4l-7.6-1c-8.8-1.3-18.5-0.8-28.8,1.3c-13,2.7-26.2,8-38.3,15.3
						c-13.3,8-25.1,24-32.3,43.2c-7.7,20.7-9.2,42-4.3,64.8c2.6,11.3,4.8,24.3,6.9,39.6c0.3,2.4,0.3,2.6,0.3,2.7
						c1.8,12.5-0.2,26-1.8,37.9c-1.3,10-2.9,21.2-2.3,31.7c0.6,9.8,3.1,23.5,10.8,33c0.8,1,0.8,2.6-0.3,3.4c-0.3,0.3-1,0.6-1.6,0.6
						s-1.3-0.3-1.8-1c-8.5-10.5-11.1-25.2-11.7-35.7c-0.6-10.9,1-22.5,2.3-32.6c1.6-11.6,3.5-24.8,1.8-36.8
						c-0.2-0.3-0.2-0.8-0.2-1.4c0-0.3,0-0.8-0.2-1.3c-2.1-14.5-4.2-27.2-6.8-39.2c-5-23.3-3.5-45.5,4.3-67.5
						c7.2-20.3,19.6-37,34.1-46c12.7-7.7,26.5-13.2,40-15.9c10.6-2.1,20.9-2.6,30.4-1.4l7.6,1c21.7,2.7,44.9,15.4,63.3,34.7
						c11.6,12.1,19.3,31.4,21.4,53.1c2.1,22.2-1.9,43.4-11.9,63.3c-1.1,2.4-2.6,4.8-4,6.9c-0.6,1.1-1.4,2.3-2.1,3.4
						c1.1,2.1,2.6,4.3,4.3,6.9c2.1,3.4,4.7,7.4,6.4,11.1c11.6,23.5,27.8,70.3,14.8,97.1C317.9,392.4,317.1,392.9,316.3,392.9z
						 M207.8,116.5c3.5,0,7.1,0.2,10.5,0.6l7.6,1c20.9,2.7,43.2,15.1,61.4,33.8c11.1,11.6,18.5,30.2,20.4,51.1
						c1.9,21.5-1.9,42.3-11.6,61.6c-1.1,2.3-2.4,4.5-3.9,6.8c-1,1.4-1.9,2.9-2.7,4.5c-0.2,0.3-0.2,0.6,0,0.8c1.8,3.1,3.5,6.1,5,8.4
						c2.6,3.9,4.7,7.4,6.3,10.8c11.3,23,27.2,68.7,14.8,94.2c-0.2,0.3,0,0.8,0.3,1l0.3,0.2c0,0,0,0,0.2,0s0.5,0,0.8-0.5
						c5.9-12.4,9.6-46.5-14.8-95.7c-1.8-3.7-4.2-7.6-6.4-11.1c-1.9-2.9-3.4-5.3-4.5-7.4l-0.2-0.3l0.2-0.3c0.6-1.3,1.4-2.6,2.3-3.9
						c1.4-2.3,2.9-4.5,4-6.9c9.8-19.6,13.7-40.7,11.7-62.4c-2.1-21.4-9.8-40.4-21.1-52.1c-18.3-19-41.2-31.5-62.5-34.2l-7.6-1
						c-9.3-1.1-19.3-0.6-29.7,1.4c-13.3,2.7-26.9,8-39.4,15.6c-14.1,8.7-26.4,25.1-33.4,45c-7.9,21.7-9.3,43.6-4.3,66.6
						c2.6,11.9,4.7,24.8,6.8,39.2c0,0.5,0.2,1,0.2,1.4s0.2,1,0.2,1.3c1.8,12.4,0,25.6-1.8,37.3c-1.3,10.1-2.9,21.5-2.3,32.3
						c0.6,10.3,3.1,24.6,11.4,34.7c0.2,0.2,0.3,0.3,0.5,0.3s0.3,0,0.5-0.2c0.3-0.3,0.3-0.8,0.2-1.1c-8-9.8-10.5-23.8-11.1-33.9
						c-0.6-10.6,1-22,2.3-32c1.6-11.7,3.5-25.1,1.8-37.6c0-0.3-0.3-2.6-0.3-2.6c-2.1-15.3-4.3-28.1-6.9-39.6
						c-4.8-23.2-3.5-44.7,4.3-65.8c7.2-19.8,19.3-35.9,33-44.2c12.2-7.4,25.7-12.7,38.9-15.6C195.4,117.1,201.7,116.5,207.8,116.5z"
						/>
				</g>
			</g>
		</g>
	</g>
</g>
<g>
	<g>
		
			<path style="fill-rule:evenodd;clip-rule:evenodd;fill:#FFFFFF;stroke:#000000;stroke-width:1.5;stroke-linecap:round;stroke-linejoin:round;stroke-miterlimit:10;" d="
			M200.1,281.6"/>
	</g>
</g>
<g>
	<g>
		
			<path style="fill-rule:evenodd;clip-rule:evenodd;fill:#FFFFFF;stroke:#000000;stroke-width:1.5;stroke-linecap:round;stroke-linejoin:round;stroke-miterlimit:10;" d="
			M218.3,125.2"/>
	</g>
</g>
<g>
	<path style="fill-rule:evenodd;clip-rule:evenodd;fill:#00A2FC;" d="M119.4,262.8c0.3-6.3-4.5-14.1-5.8-20.3
		c-4.7-22.5-3.2-43.4,5-65c6.3-16.6,17.5-33.9,33-43.1c19.8-11.7,44.7-19.1,67.4-15.9c0,0,0.2,0,0.5,0H219l7.2,1c0.3,0,0.5,0,0.5,0
		c22.7,3.2,44.5,17.4,60.3,34.1c12.2,13,18.2,33,19.6,50.5c1.8,21.2-2.4,42-12.1,60.8c-2.9,5.6-7.6,11.3-9.6,17.2l-89.2,13.5
		L119.4,262.8z"/>
</g>
<g>
	<g>
		<g>
			<path style="fill-rule:evenodd;clip-rule:evenodd;fill:#FFFFFF;" d="M254.1,280.8c16.6-3.4,29.6-11.7,37.6-24.3
				c5-7.9,7.7-18,7.6-28.6c-0.2-10.8-0.8-15.6-5.5-24.4c-1.3-2.4-0.8-5.8-0.5-9c0.2-1.9,0.3-3.9,0.3-5.6c-0.3-6.8-1.6-13-3.9-18.8
				c-4.8-12.5-14.6-23.5-28-31.7c-4.7-2.9-10-5.5-15.6-7.6c-10.3-4-24.9-6.8-36.3-6.9c-7.2,0-14.3,0.6-21.2,2.1
				c-1.8,0.3-3.5,0.8-5.3,1.3c-12.7,3.4-29.9,10-39.2,22c-3.9,5-6.8,10.6-9,17c-0.6,1.6-1,3.5-1.3,5.5c-0.6,3.2-1.1,6.6-3.1,8.5
				c-6.8,7.2-8.8,11.6-12.1,21.9c-3.1,10.1-3.4,20.6-0.6,29.6c6.4,21.7,26.9,37.5,54.8,42.4l9.5,1.6c15.9,2.7,31.4,4.7,44.5,6.1
				C236.3,282.9,245.6,282.6,254.1,280.8z"/>
		</g>
	</g>
	<g>
		<g>
			<path style="fill-rule:evenodd;clip-rule:evenodd;fill:#FFBBB7;" d="M243.2,223.9c-1.9,13.3,7.2,25.7,20.6,27.5
				c13.2,1.9,25.6-7.4,27.3-20.7c1.9-13.3-7.2-25.7-20.6-27.5C257.3,201.2,245.1,210.5,243.2,223.9"/>
		</g>
	</g>
	<g>
		<g>
			<path style="fill-rule:evenodd;clip-rule:evenodd;fill:#FFBBB7;" d="M126.1,207.2c-1.9,13.3,7.2,25.7,20.6,27.5
				c13.2,1.9,25.4-7.4,27.3-20.7c1.9-13.3-7.2-25.7-20.4-27.5C140.3,184.5,127.9,193.8,126.1,207.2"/>
		</g>
	</g>
	<polygon style="fill:#DF3C46;" points="207.8,223.9 197,227.6 198.6,237.6 204.9,242.5 212.5,240.8 218.1,233.2 219.1,229.4 	"/>
	<g>
		<g>
			<g>
				<path style="fill-rule:evenodd;clip-rule:evenodd;" d="M205.6,210.5c-0.3,1.8,1.4,3.4,3.7,3.7s4.3-0.8,4.7-2.6
					c0.3-1.8-1.4-3.4-3.7-3.7C207.8,207.7,205.7,208.8,205.6,210.5"/>
			</g>
		</g>
		<g>
			<g>
				<g>
					<path style="fill-rule:evenodd;clip-rule:evenodd;" d="M234,210.9L234,210.9c3.1,0.5,5.9-1.6,6.4-4.3l0.2-0.8
						c0.5-2.9-1.8-5.6-4.8-5.9c-3.1-0.5-5.9,1.6-6.4,4.3l-0.2,0.8C228.7,207.7,230.8,210.4,234,210.9"/>
				</g>
			</g>
		</g>
	</g>
	<g>
		<g>
			<path style="fill:#251814;" d="M207.6,225.7c-7.4,3.9-19.3,3.7-26.4-2.9c-1.6-1.4-4.2-4.3-4.2-7.1c0-1.1,0.5-2.1,1.4-2.7
				s2.3-0.5,2.9,0.3c0.6,0.8,0.6,2.1-0.2,2.7c0.2,0.6,1.1,2.1,2.7,3.7c5.9,5.5,16.9,5.3,22.8,1.6c0.8-0.6,2.1-0.5,2.7,0.3
				c4.5,5.3,15.1,8.5,22.3,4.8c2.1-1,3.4-2.1,3.7-2.7c-0.5-1-0.2-2.1,0.6-2.7c1-0.6,2.3-0.5,2.9,0.5c0.6,1,0.8,1.9,0.6,3.1
				c-0.6,2.6-4,4.7-5.9,5.6c-1.4,0.6-2.9,1.3-4.5,1.6C221.5,233.4,212.6,230.3,207.6,225.7z M181.1,216.3L181.1,216.3L181.1,216.3z"
				/>
		</g>
	</g>
	<path d="M181.6,202.2c-1,0-1.6-0.6-1.8-1.6c0-1,0.6-1.8,1.6-1.9l5.3-0.5l-4.5-2.4c-0.8-0.5-1.1-1.4-0.6-2.4
		c0.5-0.8,1.4-1.1,2.4-0.6l9.5,5.3c0.6,0.3,1,1.1,0.8,1.9c-0.2,0.8-0.8,1.3-1.6,1.4L181.6,202.2
		C181.8,202.2,181.8,202.2,181.6,202.2z"/>
	<path d="M207.6,244.3c-1,0-1.8-0.2-2.7-0.3c-9.2-2.4-10.5-12.7-9.8-17.7c0.2-1.1,1.1-1.9,2.3-1.8c1.1,0.2,1.9,1.1,1.8,2.3
		c0,0.5-1.1,11.3,6.8,13.3c1.8,0.5,3.2,0.3,4.7-0.6c3.7-2.1,5.8-8,6.3-10.1c0.3-1.1,1.4-1.8,2.4-1.4c1.1,0.3,1.8,1.3,1.4,2.4
		c-0.2,0.3-2.3,9.2-8,12.7C211.2,243.8,209.4,244.3,207.6,244.3z"/>
</g>
<g>
	<g>
		<path style="fill:#008C2E;" d="M43.8,249.5c-0.2,0.2-0.3,0.2-0.5,0l-9.8-2.1c0,0,0,0-0.2,0c-8.2,1.6-16.9-1.9-21.4-9.2
			c-6.1-9.6-3.4-22.3,6.3-28.6c4.7-2.9,10-4,15.4-2.9l95.2-61.1c7.9-5.1,18.5-2.7,23.6,5.1c5.1,7.9,2.7,18.5-5.1,23.6l-101.1,65
			l-2.1,9.5C44,249.3,43.8,249.5,43.8,249.5z M34,246.4l9,1.9l1.9-9.2c0-0.2,0.2-0.3,0.3-0.3l101.5-65.1c7.4-4.8,9.5-14.6,4.8-22
			c-4.8-7.4-14.6-9.5-22-4.8l-95.3,61.3c-0.2,0.2-0.3,0.2-0.5,0c-5.1-1.1-10.3-0.2-14.8,2.6c-9,5.8-11.7,17.8-5.8,27
			c4.3,6.8,12.5,10.3,20.4,8.5C33.7,246.2,33.8,246.2,34,246.4z"/>
		<path d="M138,143c5.6,0,11.1,2.7,14.5,7.9c5.1,7.9,2.7,18.5-5.1,23.6l-101.1,65l-2.1,9.5c0,0.2-0.2,0.3-0.3,0.3
			c-0.2,0-0.2,0.2-0.3,0.2h-0.2l-9.8-2.1c0,0,0,0-0.2,0c-1.3,0.3-2.7,0.3-4,0.3c-6.9,0-13.7-3.5-17.5-9.5
			c-6.1-9.6-3.4-22.3,6.3-28.6c3.4-2.1,7.2-3.2,11.1-3.2c1.4,0,2.9,0.2,4.2,0.5l95.2-61.1C131.6,144,134.8,143,138,143 M33.7,208.1
			L33.7,208.1c-1.6-0.3-2.9-0.5-4.3-0.5c-3.7,0-7.2,1.1-10.5,3.1c-9,5.8-11.7,17.8-5.8,27c3.7,5.6,10,9,16.4,9c1.3,0,2.7-0.2,4-0.5
			h0.2c0.2,0,0.3,0,0.3,0.2l9,1.9l1.9-9.2c0-0.2,0.2-0.3,0.3-0.3l101.5-65.1c7.4-4.8,9.5-14.6,4.8-22c-3.1-4.7-8.2-7.4-13.5-7.4
			c-2.9,0-5.9,0.8-8.5,2.6l-95.3,61.3C33.8,208.1,33.8,208.1,33.7,208.1 M138,139L138,139c-4,0-8,1.1-11.4,3.4l-93.9,60.3
			c-1.1-0.2-2.3-0.2-3.4-0.2c-4.7,0-9.3,1.3-13.3,3.9C4.6,213.8,1.2,229,8.6,240.5c4.5,7.1,12.5,11.4,20.9,11.4
			c1.3,0,2.6-0.2,3.9-0.3l9.2,1.9c0.3,0,0.6,0.2,1,0.2c1,0,1.8-0.3,2.6-0.8c1-0.6,1.8-1.8,2.1-2.9l1.8-7.9l99.5-64.2
			c9.8-6.3,12.7-19.5,6.4-29.3C151.9,142.7,145.3,139,138,139L138,139z M33.7,212.2c1,0,1.8-0.3,2.6-0.8l95.3-61.3
			c1.9-1.3,4.2-1.9,6.4-1.9c4,0,7.9,2.1,10,5.5c1.8,2.7,2.3,5.8,1.6,9c-0.6,3.1-2.6,5.8-5.1,7.6L43,235.3c-1,0.6-1.8,1.8-2.1,2.9
			l-1.1,5.3l-4.5-1c-0.5-0.2-1.1-0.3-1.8-0.3c-0.3,0-0.6,0-1,0.2c-1,0.2-2.1,0.3-3.2,0.3c-5.3,0-10.3-2.7-13-7.1
			c-2.3-3.5-2.9-7.6-2.1-11.6c0.8-4,3.2-7.6,6.8-9.6c2.6-1.6,5.3-2.4,8.4-2.4c1.1,0,2.3,0.2,3.4,0.3C33,212.2,33.4,212.2,33.7,212.2
			L33.7,212.2z"/>
	</g>
	<path style="fill:#00A922;" d="M43.8,249.5c-0.2,0.2-0.3,0.2-0.5,0l-9.8-2.1c0,0,0,0-0.2,0c-8.2,1.6-16.9-1.9-21.4-9.2
		c-6.1-9.6-3.4-22.3,6.3-28.6c4.7-2.9,10-4,15.4-2.9l95.2-61.1c7.9-5.1,18.5-2.7,23.6,5.1c5.1,7.9,2.7,18.5-5.1,23.6l-101.1,65
		l-2.1,9.5C44,249.3,43.8,249.5,43.8,249.5z"/>
	<path style="fill:none;" d="M18.6,210.2c4.7-3.1,10.1-3.9,15.1-2.7l95.3-61.3c7.7-5,17.8-2.7,22.8,5s2.7,17.8-5,22.8L45.4,239.2
		l0,0l-2.1,9.8l-9.8-2.1v-0.2c-7.9,1.8-16.4-1.6-21.1-8.8C6.5,228.7,9.2,216.2,18.6,210.2z"/>
	<circle style="fill:#FFFFFF;" cx="29.7" cy="227.3" r="16.6"/>
	<path style="fill-rule:evenodd;clip-rule:evenodd;fill:#00A922;" d="M22.6,224.7l6.3,9.6c0.3,0.5,1.1,0.6,1.6,0.3
		c0.2-0.2,0.3-0.3,0.5-0.5l4.5-9.6c0.3-0.6,0-1.3-0.6-1.6c-0.2,0-0.3-0.2-0.5-0.2H23.7c-0.6,0-1.1,0.5-1.1,1.1
		C22.4,224.4,22.4,224.5,22.6,224.7z"/>
</g>
<g>
	<path style="fill:none;stroke:#712500;stroke-linecap:round;stroke-linejoin:round;stroke-miterlimit:10;" d="M196.7,128.2"/>
</g>
<g>
	<path d="M150.6,34.3c1.6,0,2.7,0.3,3.1,1c1.6,3.4,1,7.9,1.1,11.4c0.2,3.5,0.6,6.9,1,10.5c0.3,2.3,0.6,5.3-1,7.1
		c-1,1.1-2.7,1.9-4.3,1.9c-1.1,0-2.1-0.3-2.9-1.1c-1-1.1-1.4-8.2-2.4-8.4c-0.2,0-0.3,0-0.6,0c-0.8,0-1.6,0.2-2.4,0.2
		c-1.4,0-2.6-0.3-2.7-2.1c-0.2-1.8-1.4-4-1-5.8c0.6-2.4,3.2-1.9,5.1-2.4c0.3,0,0.2-1,0-2.1c-0.6-2.9-1.9-8,0.5-9
		C144.9,35,148.2,34.3,150.6,34.3 M150.6,30.3c-2.7,0-6.4,0.6-8.2,1.4c-4.7,2.1-4,7.6-3.2,11.4c-1.8,0.5-3.9,1.8-4.7,4.7
		c-0.6,2.3,0,4.3,0.5,5.9c0.2,0.5,0.3,1.1,0.3,1.4c0.3,2.7,2.3,5.6,6.8,5.6c0,0,0,0,0.2,0c0,0.2,0.2,0.5,0.2,0.6
		c0.6,3.2,1,5,2.3,6.4c1.4,1.6,3.5,2.4,5.9,2.4c2.7,0,5.6-1.3,7.4-3.2c2.9-3.1,2.4-7.2,2.1-10v-0.3c-0.5-3.5-0.8-6.9-1-10.3
		c0-0.8,0-1.9,0-2.9c0-3.2,0.2-6.8-1.4-10.1C156.4,31.3,154.1,30.3,150.6,30.3L150.6,30.3z"/>
	<path d="M163.1,27.4c1.4,0,2.7,0.2,3.2,0.6c2.4,1.9,1.1,8.7,1.3,11.6c0.2,9.2,0.3,18.3,0.3,27.5c0,2.4-0.3,3.7-2.6,4.2
		c-0.8,0.2-1.9,0.5-3.1,0.5s-2.4-0.3-3.1-1.1c-1-1.1-0.6-4.5-0.6-5.8c-0.2-2.3-0.3-4.7-0.5-6.9c-0.5-7.1-1.1-14.1-1-21.2
		c0-1.4-0.5-4.7,0-6.8c0.2-0.6,0.3-1.1,0.6-1.4C158.4,27.9,161,27.4,163.1,27.4 M163.1,23.4c-2.1,0-6.1,0.3-8,2.3
		c-0.8,0.8-1.4,2.1-1.8,3.5c-0.5,1.9-0.3,4.5-0.2,6.3c0,0.5,0,1,0,1.3c0,7.1,0.5,14,1,20.7v0.8v0.6c0.2,2.1,0.3,4.2,0.5,6.3
		c0,0.3,0,0.6,0,1.1c0,2.3-0.2,5.1,1.8,7.2c1,1.1,2.9,2.4,6.1,2.4c1.6,0,3.2-0.3,4.2-0.6c5.6-1.6,5.5-6.6,5.5-8.2L172,49.3l-0.2-9.6
		c0-0.5,0-1.4,0.2-2.3c0.3-4.3,0.6-9.6-2.9-12.4C168.1,24.4,166.6,23.4,163.1,23.4L163.1,23.4z"/>
	<path d="M229.7,31c2.3,0,4.5,0.2,6.8,0.3c3.5,0.3,8,0.2,11.1,1.8c0.2,0,0.3,0.2,0.5,0.3c0.2,0.2,0.2,0.3,0.2,0.6
		c0.2,1.9-0.2,3.9-0.6,5.6c-0.8,0-1.8,0-2.6,0c-3.9,0-7.9-0.2-11.7-0.3c-0.3,0-0.5,0-0.6,0c-1,0-1,0.2-1.3,1.3
		c-0.2,0.6-0.3,1.6,0.2,2.3c0.6,1,2.1,1,3.4,1c0.2,0,0.3,0,0.5,0s0.2,0,0.3,0c3.1,0,5.9,0.3,9,0.5c1.3,0.2,1.9,0.2,1.9,1.4
		c0.2,1.4,0,2.9,0,4.3c0,0.3,0,0.8-0.2,1.1c-0.2,0.5-0.6,0.6-1.1,0.8c-1,0.2-2.1,0.2-3.1,0.2c-1.4,0-2.9-0.2-4.2-0.2
		c-0.8,0-2.1-0.3-3.2-0.3c-1,0-1.8,0.2-2.1,0.6c-0.2,0.3-0.5,2.3-0.2,2.3c0.2,0,0.5,0,0.8,0c0.5,0,0.8,0,1.3,0l0,0
		c0.2,0,0.2,0,0.3,0c1.6,0,3.1-0.2,4.7-0.2c0.3,0,0.6,0,1,0c1.4,0,2.7,0.2,4.2,0.3c1.1,0,2.9-0.2,3.2,1.1c0.2,0.8-0.2,2.1-0.2,2.9
		c0,1-0.2,1.9-0.2,2.9c0,0.3,0,0.6-0.2,1c-0.3,0.6-1.4,0.8-2.3,0.8c-5.3,0.2-10.8,0.2-16.1,0.2c-2.3,0-4.5,0-6.8,0
		c-0.8,0-1.3-0.8-1.8-1.3c-2.7-2.3-0.8-6.3-0.6-9.8c0.2-2.6,0.6-5.1,1-7.7c0.5-4,0.5-8.2,1.9-12.2c0.2-0.3,0.2-0.5,0.5-0.8
		s0.8-0.5,1.3-0.5C226,31.1,227.7,31,229.7,31 M229.7,26.9c-2.3,0-4.3,0.2-6.1,0.5c-0.6,0.2-2.3,0.3-3.5,1.6
		c-0.8,0.8-1.3,1.8-1.4,2.3c-1.1,3.2-1.4,6.4-1.8,9.5c-0.2,1.1-0.2,2.3-0.3,3.5l-0.2,1.4c-0.3,2.1-0.6,4.3-0.8,6.6
		c0,0.6-0.2,1.6-0.3,2.4c-0.5,3.1-1.4,7.6,2.6,10.8l0.2,0.2c0.6,0.6,1.9,1.9,4.2,2.1c2.3,0,4.5,0,6.8,0c5.3,0,10.8-0.2,16.2-0.2
		c2.7,0,4.7-1.1,5.6-2.9c0.6-1.1,0.6-2.3,0.6-2.7l0.2-2.9c0-0.2,0-0.3,0-0.6c0.2-1,0.3-2.3,0-3.4c-0.3-1.1-0.8-1.9-1.4-2.6
		c0.3-1,0.3-1.8,0.3-2.3s0-1,0-1.3c0-1,0-2.1,0-3.2c0-0.8-0.3-1.8-0.6-2.6c0.8-0.5,1.4-1.3,1.8-2.4c0.6-2.3,0.8-4.5,0.6-6.9
		c0-0.3-0.2-1.6-1-2.7c-0.6-0.8-1.3-1.3-1.9-1.4c-3.4-1.6-7.2-1.9-10.8-2.1c-0.6,0-1.3,0-1.8-0.2C234.3,27.1,232.1,26.9,229.7,26.9
		L229.7,26.9z"/>
	<path d="M218.6,66.2c0.3,0,0.6,0,1,0c9.3,0.8,18.3,1.8,27.7,2.6c2.9,0.2,5.9,0.8,7.1,3.4c0.6,1.3,0.5,2.7,0.2,4.2
		c-0.5,2.9-1.9,3.4-4.5,3.4c-1,0-1.9,0-3.1-0.2c-4.5-0.2-9.3-0.5-13.8-0.6c-5.3-0.3-10.8-0.3-16.1-0.6c-4.7-0.3-3.4-3.7-3.2-6.4
		C213.9,68.7,214.7,66.2,218.6,66.2 M218.6,62.1c-2.6,0-8.5,1-8.8,9.5c0,0.3,0,0.8-0.2,1.1c-0.2,1.8-0.5,4.5,1.4,6.9
		c1.3,1.4,3.2,2.4,5.6,2.6c3.1,0.2,6.3,0.3,9.3,0.5c2.3,0,4.5,0.2,6.8,0.3c5.1,0.3,9.8,0.5,13.8,0.6h1c0.8,0,1.6,0,2.3,0
		c1.8,0,7.2,0,8.4-6.8c0.3-1.8,0.5-4.2-0.5-6.4c-2.3-5.1-8.2-5.5-10.5-5.6c-7.1-0.5-14.3-1.1-21.2-1.9c-2.1-0.2-4.2-0.5-6.4-0.6
		C219.4,62.3,219.1,62.1,218.6,62.1L218.6,62.1z"/>
	<path d="M281.1,62.3c3.5,0,7.2,0.6,10.9,1c3.7,0.3,8.5,0.5,11.7,1.8c0.2,0,0.3,0.2,0.5,0.3c0.2,0.2,0.2,0.3,0.2,0.5
		c0,1.4-0.3,3.1-0.8,4.5c-5.1-0.2-10.1-0.5-15.3-0.8c-0.5,0-0.8,0-1,0c-0.8,0-0.8,0.2-1.1,1c-0.2,0.5-0.5,1.3,0,1.8
		c0.8,1,3.1,1,4.5,1c3.2,0.2,6.3,0.5,9.5,0.8c1.4,0.2,1.9,0.3,1.9,1.3c0,1.1-0.2,2.3-0.2,3.4c0,0.3,0,0.6-0.2,0.8
		c-0.3,0.3-0.8,0.5-1.3,0.5c-0.6,0-1.3,0-1.9,0c-1.9,0-4-0.2-5.9-0.3c-1,0-2.4-0.3-3.9-0.3c-0.8,0-1.4,0.2-1.9,0.5
		c-0.2,0.2-0.6,1.8-0.3,1.8c0.5,0.2,1,0.2,1.4,0.2h0.2c0.2,0,0.5,0,0.6,0c0.6,0,1.3,0,1.8,0c0.6,0,1.3,0,1.9,0c0.8,0,1.8,0,2.6,0.2
		c1.4,0.2,2.9,0.2,4.5,0.3c1.1,0.2,3.1,0,3.4,1.1c0.2,0.6-0.2,1.6-0.3,2.3c-0.2,0.8-0.2,1.4-0.3,2.3c0,0.3,0,0.5-0.2,0.6
		c-0.3,0.5-1.3,0.5-2.1,0.5c-0.2,0-0.2,0-0.3,0c-4.8,0-9.5-0.3-14.3-0.6c-2.4-0.2-4.8-0.3-7.1-0.5c-1.4-0.2-3.1-0.5-3.7-1.8
		c-0.2-0.3-0.3-0.5-0.3-0.8c-0.2-0.8-0.2-1.6,0-2.4c0.3-3.5,0.8-7.1,1.1-10.6c0.3-3.1,0.2-6.1,1.6-9c0.2-0.2,0.3-0.5,0.5-0.6
		c0.3-0.3,1-0.3,1.4-0.3C279.7,62.3,280.3,62.3,281.1,62.3 M281.1,58.3c-0.8,0-1.6,0-2.4,0.2c-0.6,0-2.1,0.2-3.4,1
		c-1.1,0.6-1.6,1.6-1.8,1.9c-1.6,2.9-1.8,5.9-1.9,8.5c0,0.6-0.2,1.3-0.2,1.9v0.3l-1.1,10.1c-0.2,1-0.2,2.3,0.2,3.7
		c0.2,0.6,0.5,1.3,0.8,1.9c1,1.6,2.9,3.7,7.1,3.9c1.9,0.2,3.9,0.2,5.9,0.3h1.1c5.1,0.3,9.6,0.6,14.5,0.6h0.3c1,0,3.5,0,5.3-2.1
		c1-1.1,1.1-2.4,1.1-2.9l0.3-2.3c0,0,0-0.2,0-0.3c0.2-0.8,0.5-2.1,0-3.5c-0.2-0.8-0.6-1.4-1.1-2.1c0.2-0.6,0.2-1.1,0.2-1.3
		c0-0.3,0-0.6,0-1c0-0.8,0.2-1.8,0.2-2.7c0-0.5-0.2-1-0.2-1.4c0.6-0.5,1.1-1,1.3-1.8c0.8-1.9,1.1-4,1.1-6.1c0-1.3-0.5-2.3-1.1-3.1
		c-0.6-0.6-1.3-1-1.9-1.3c-3.2-1.3-7.4-1.6-10.9-1.9c-0.6,0-1.3-0.2-1.9-0.2c-1.1-0.2-2.4-0.3-3.5-0.3
		C286.3,58.6,283.7,58.3,281.1,58.3L281.1,58.3z"/>
	<path d="M269.4,49.8c0.3,0,0.5,0,0.8,0c1.4,0.2,2.9,0.3,4.5,0.5c4.2,0.5,8.5,0.8,12.7,1.3c8,0.8,15.9,1.6,24,2.4
		c1.1,0.2,1.8,0.5,2.3,1.1c0.8,1.1,0.5,2.7,0.2,4.7c-0.6,3.1-2.1,3.7-4.5,3.7c-1.1,0-2.6-0.2-4.3-0.3c-5.3-0.5-10.8-1-15.8-1.4
		c-6.1-0.6-12.4-0.8-18.3-1.6c-5.3-0.6-3.7-4.3-3.4-7.4C267.5,50.4,267.8,49.8,269.4,49.8 M269.4,45.7c-5.5,0-5.9,4.8-6.1,6.6
		c0,0.5-0.2,0.8-0.2,1.3c-0.3,2.1-0.8,5,1.1,7.4c1.3,1.6,3.2,2.7,5.9,3.1c3.5,0.5,7.1,0.6,10.6,1c2.6,0.2,5.3,0.3,7.9,0.6
		c5.9,0.6,11.3,1,15.8,1.4l1.1,0.2c1.3,0.2,2.4,0.2,3.4,0.2c4.7,0,7.6-2.3,8.5-6.9c0.3-1.8,1.1-5.1-0.8-7.9
		c-0.8-1.1-2.3-2.4-5.1-2.7l-23.8-2.4l-6.3-0.6l-6.3-0.6c-0.5,0-1-0.2-1.4-0.2c-1.1-0.2-2.1-0.2-3.2-0.3
		C270,45.7,269.7,45.7,269.4,45.7L269.4,45.7z"/>
	<g>
		<path d="M186.4,36.6c2.1,0,4.3,0.5,6.8,1.6c14.3,6.9,7.1,27.8-6.1,27.8c-2.1,0-4.2-0.5-6.4-1.6C165.4,57,172.9,36.6,186.4,36.6
			 M186.6,54.6c1.6,0,3.1-1.1,3.2-2.7c0.2-1.8-1-3.4-2.7-3.5c-0.2,0-0.3,0-0.5,0c-1.6,0-3.1,1.1-3.2,2.7c-0.2,1.8,1,3.4,2.7,3.5
			C186.3,54.6,186.4,54.6,186.6,54.6 M186.4,32.6c-8.4,0-15.8,6.1-17.7,15c-1.9,8.5,1.9,16.6,10.1,20.6c2.7,1.3,5.5,2.1,8.2,2.1
			c8.2,0,15.4-6.1,17.5-15c1.9-8.5-1.8-16.6-9.6-20.4C192,33.2,189.2,32.6,186.4,32.6L186.4,32.6z"/>
		<path d="M205.7,33.7c0.6,0,1.1,0.2,1.6,0.2c1.8,0.3,3.4,0.3,5.1,0.5c1.6,0.2,1.8,27.3,1.8,29.7c0,1.9,0,2.7-1.9,3.1
			c-1.6,0.2-3.4,0.5-5,0.5c-0.2,0-0.3,0-0.5,0c-1.8,0-2.1-0.6-2.7-2.4c-1.1-3.1-0.8-6.3-1-9.5c-0.2-3.1-0.2-6.1-0.2-9.3
			c0.2-3.9,0.3-7.9,1-11.7C204.1,33.9,204.9,33.7,205.7,33.7 M205.7,29.7c-3.7,0-5.3,2.4-5.6,4.7c-0.5,3.9-0.8,7.7-1,12.2
			c0,2.9,0,5.9,0.2,9.5c0,0.6,0,1.3,0,1.9c0,2.7,0,5.8,1.1,8.8c0.6,1.6,1.8,4.8,6.3,5c0.2,0,0.5,0,0.6,0c1.9,0,3.9-0.3,5.5-0.5
			c5.3-0.8,5.5-5,5.5-6.9c0-1.4,0-9-0.2-16.1c-0.5-13.3-0.8-17.5-5.1-17.8c-0.6,0-1.4-0.2-2.1-0.2c-1,0-1.9,0-2.7-0.2
			C207.5,29.8,206.5,29.7,205.7,29.7L205.7,29.7z"/>
	</g>
	<path d="M107,26.8c0.3,0,4.5,24,5,26c0.5,2.6,1.9,5,1.1,6.4c-0.3,0.8-1.3,1.3-3.4,1.3c-0.6,0-1.9,0.3-2.9,0.3c-0.3,0-0.5,0-0.6-0.2
		c-1.1-0.5-1.1-2.4-1.4-3.5c-0.8-2.9-1.6-5.8-2.3-8.8c-2.4,0.5-4.8,0.8-7.2,1.3c-0.2,0-0.2,0-0.3,0h-0.2c-0.5-0.2-0.5-0.6-0.6-1
		c-0.3-1.9-0.5-3.9-0.6-5.9c0,0,6.1-0.8,6.9-1.9c0.8-1.3-2.4-12.5-1.6-12.7C101.5,27.7,104.3,27.3,107,26.8L107,26.8 M107,22.8
		c-0.3,0-0.5,0-0.8,0L98,24.4c-1.1,0.2-2.1,0.8-2.7,1.8c-1.1,1.8-0.8,3.4,0.2,8.4c0.2,1.1,0.5,2.7,0.8,3.9c-0.6,0.2-1.6,0.3-2.9,0.5
		c-3.9,0.6-3.9,3.7-3.9,4.3c0.2,2.1,0.3,4.2,0.6,6.3c0.5,3.1,2.6,4,3.4,4.3c0.5,0.2,0.8,0.2,1.3,0.2s0.8,0,1-0.2l3.7-0.6
		c0.5,1.8,1,3.5,1.4,5.1c0,0.2,0.2,0.3,0.2,0.6c0.3,1.4,0.8,4.3,3.4,5.6c1,0.5,1.8,0.5,2.4,0.5c0.8,0,1.8-0.2,2.4-0.2
		c0.3,0,0.5,0,0.6,0c3.4-0.2,5.6-1.3,6.8-3.5c1.3-2.4,0.5-5-0.3-7.1c-0.2-0.8-0.5-1.4-0.6-2.1c-0.2-0.6-0.8-4-1.4-7.7
		c-0.6-3.9-1.6-8.4-2.3-12.1c-0.3-1.8-0.6-3.4-0.8-4.5C111,25.7,110.4,22.8,107,22.8L107,22.8z"/>
	<path d="M78.5,38.2c1.3,0,2.6,0.2,4,0.6c14.5,4.2,10.2,25.6-3,25.6c-1.3,0-2.6-0.2-4-0.6C60.4,59.4,65,38.2,78.5,38.2 M78.9,54.3
		C79,54.3,79,54.3,78.9,54.3c1.8,0,2.9-1.4,2.9-3.1s-1.3-2.7-2.9-2.7h-0.2c-1.6,0-2.9,1.4-2.7,3.1C76.1,53,77.4,54.3,78.9,54.3
		 M78.5,34.2c-9.3,0-15.3,7.6-16.4,15c-1,7.2,2.4,15.8,12.2,18.7c1.8,0.5,3.4,0.8,5,0.8c9.2,0,15-7.6,15.9-15
		c1-7.2-2.3-15.9-11.7-18.7C82.1,34.5,80.3,34.2,78.5,34.2L78.5,34.2z"/>
	<path d="M108.3,62.6c0.5,0,0.8,0,1.1,0.2c0.6,0.3,1,1.1,1.1,1.8c0.5,1.8,1,3.5,1.4,5.1c0.5,1.6,0.6,3.2,0.8,4.8
		c0.2,3.9,1.1,4.7,0.3,8.4c-0.6,3.1-4.3,3.5-6.9,4c-1.9,0.3-9.2,2.6-13.7,2.6c-1.6,0-2.7-0.3-3.2-1c-0.6-0.8-0.6-2.4-1-3.4
		c-0.6-2.7-0.2-1.6-1-4.3c-1.1-3.7-1.9-7.4-2.7-11.1c0-0.3-0.2-0.5,0-0.8c0.2-0.5,0.5-0.8,0.8-1c2.3-1.6,4.5-2.1,7.2-2.3h0.2
		c0.2,0,0.5,0,0.6,0.2c0.2,0.2,0.3,0.5,0.3,0.6c0.5,1.4,0.5,4,2.3,4h0.2c2.1-0.2,4.2-0.6,6.3-1.3c0.8-0.3-0.8-4.3-0.8-4.8
		C103.1,64.2,106.2,62.6,108.3,62.6 M98.3,81.3c1.9,0,4.8-1.1,6.1-1.4c0-0.2,0-0.3-0.2-0.5c-0.2-0.8-0.3-1.4-0.5-2.3
		c-1.4,0.2-2.9,0.5-4.2,0.8s-4.2,0.3-3.1,2.6C96.9,81,97.5,81.3,98.3,81.3 M108.3,58.6c-2.4,0-5.1,1.1-7.1,2.1
		c-0.3,0.2-0.8,0.3-1.1,0.5c-1.9,0.8-3.1,2.9-2.4,5c0,0.2,0.2,0.3,0.2,0.5l0,0c0,0,0,0-0.2,0c0-0.3-0.2-0.6-0.3-1
		c-0.2-0.5-0.6-1.8-1.9-2.7c-0.8-0.6-1.8-0.8-2.9-0.8c-0.2,0-0.3,0-0.3,0c-2.7,0.2-5.9,0.6-9.3,2.9c-0.5,0.3-2.1,1.4-2.6,3.5
		c-0.2,1.1,0,2.1,0,2.6l0.3,1.8c0.6,3.2,1.4,6.4,2.4,9.6c0.5,1.4,0.5,1.6,0.5,2.1c0,0.3,0.2,1,0.3,1.9c0,0.2,0,0.5,0.2,0.6
		c0.2,1.1,0.5,2.9,1.6,4.5c1.9,2.4,5.3,2.4,6.4,2.4c3.9,0,9-1.3,12.4-2.1c0.8-0.2,1.6-0.5,2.1-0.5l0.5-0.2c2.9-0.5,8.4-1.6,9.5-7.1
		c0.6-3.1,0.3-5,0.2-6.6c-0.2-0.8-0.3-1.6-0.3-2.7c0-1.8-0.3-3.5-1-5.6c-0.3-1-0.5-2.1-0.8-3.1c-0.2-0.8-0.5-1.4-0.6-2.3
		c-0.2-0.8-0.8-3.2-3.2-4.3C110.4,58.8,109.2,58.6,108.3,58.6L108.3,58.6z"/>
	<path d="M135.5,38.5c2.4,0,3.7,1.8,4,4.3c0.2,1.1,0.5,3.7-0.5,4.5c-1,0.6-2.3,0.6-3.4,0.8c-1.9,0.3-5,0.6-6.9,0.8
		c-0.8,0,0.3,7.1,1,7.9s1.6,1,2.4,1c1.6,0,3.5-0.8,5.3-0.8c1,0,1.8,0.2,2.6,1c1.8,1.9,2.1,6.6-0.3,8.2c-0.8,0.6-1.9,0.6-2.9,0.6
		c-0.8,0-1.6,0-2.3,0c-0.3,0-0.5,0-0.8,0c-2.9,0.3-5.9,0.5-8.8,0.8c-0.3,0-0.5,0-0.8,0s-0.6,0-1.1-0.2c-1.4-0.5-1.9-2.3-2.4-3.9
		c-1-4-1.8-8.2-2.3-12.2c-0.2-2.1-0.5-4.3-0.5-6.4c0-0.8-0.3-2.3,0-2.9c0.3-0.8,1-1.3,1.6-1.6c1.4-0.6,3.2-0.6,4.7-0.8
		c2.9-0.3,8-0.6,10.9-1C135.3,38.5,135.3,38.5,135.5,38.5 M135.5,34.5c-0.2,0-0.5,0-0.6,0c-1.8,0.2-7.7,0.6-11.1,1c-0.3,0-0.6,0-1,0
		c-1.4,0.2-3.4,0.3-5.1,1.1c-1.4,0.8-2.6,1.9-3.4,3.4c-0.8,1.6-0.6,3.2-0.5,4.3c0,0.2,0,0.3,0,0.5c0.2,2.3,0.3,4.5,0.5,6.8
		c0.5,4.3,1.3,8.7,2.3,12.9c0.3,1.4,1.3,5.3,4.8,6.8c0.8,0.3,1.6,0.5,2.6,0.5c0.3,0,0.8,0,1.1,0l4.7-0.3l4.2-0.3c0.2,0,0.3,0,0.3,0
		c0.3,0,0.6,0,1,0c0.5,0,1,0,1.3,0c1.3,0,3.4-0.2,5.1-1.4c1.9-1.3,3.2-3.5,3.4-6.1c0.3-3.1-0.6-6.3-2.6-8.2c-1-1-2.7-2.3-5.5-2.3
		c-1.3,0-2.4,0.3-3.5,0.5c-0.3,0-0.6,0.2-1,0.2c0-0.3-0.2-0.6-0.2-1.1c1-0.2,2.3-0.3,3.5-0.5c0.2,0,0.3,0,0.6,0
		c1.1,0,3.1-0.2,4.7-1.4c2.9-2.3,2.3-6.4,2.1-8.2C142.8,37.5,139.8,34.5,135.5,34.5L135.5,34.5z"/>
	<path d="M280.6,26.9c1.4,0,3.1,0.3,4.5,0.5c2.1,0.2,4.3,0.3,6.3,1.4c0.3-0.2,0.6-0.2,1.1-0.2c1.1,0,2.1,0,2.7,0
		c1.3,0,2.4,0,4.5,0.3c2.9,0.3,5.9,0.5,8.2,3.1c1.6,1.8,1.1,4.7,0.6,6.9c-0.5,3.1-0.6,6.1-1.1,9.2c-0.3,2.6-0.6,4.7-2.9,4.7
		c0,0,0,0-0.2,0s-0.3,0-0.6,0c-0.2,0-0.2,0-0.3,0c-0.8,0-1.8,0-2.6-0.3c-0.5-0.2-1-0.5-1.4-0.6c-0.5-0.3-1-0.2-1.3-1
		c-0.5-1.3-0.2-2.7-0.2-4c0-1.9,0.2-3.9,0.2-5.8c0-1.8-1.3-1.9-3.1-1.9c-0.5,0-0.8,0-1.3,0c-0.2,0-0.2,0-0.3,0c-0.3,2.4-0.5,5-1,7.4
		c-0.3,2.6-0.6,4.7-2.9,4.7c0,0,0,0-0.2,0s-0.3,0-0.6,0c-0.2,0-0.2,0-0.3,0c-0.8,0-1.8,0-2.6-0.3c-0.5-0.2-1-0.5-1.4-0.6
		c-0.5-0.3-1-0.2-1.3-1c-0.5-1.3-0.2-2.7-0.2-4c0-1.9,0.2-3.9,0.2-5.8c0.2-2.9-6.9-2.1-8.2-4c-0.5-0.8-0.6-1.8-0.5-2.6
		c0.3-2.7,0.3-4.7,3.2-5.5C279,26.9,279.8,26.9,280.6,26.9 M280.6,22.9L280.6,22.9c-1.3,0-2.4,0.2-3.5,0.5c-5.5,1.6-5.8,6.1-6.1,8.7
		v0.3c-0.2,2.1,0.2,3.9,1.3,5.3c1.4,2.1,4.2,2.7,6.4,3.2c0.3,0,0.6,0.2,1.1,0.2l-0.2,3.9c0,0.3,0,0.5,0,0.8
		c-0.2,1.3-0.3,2.9,0.5,4.8c0.8,2.3,2.7,2.9,3.2,3.1l0.5,0.2c0.3,0.2,0.8,0.3,1.1,0.5c1.6,0.6,3.1,0.6,4,0.6h0.2h0.2h0.5h0.2
		c2.4,0,4-1,5-2.3c1,1.6,2.4,2.3,2.9,2.4l0.5,0.2c0.3,0.2,0.8,0.3,1.1,0.5c1.6,0.6,3.1,0.6,4,0.6h0.2h0.2h0.5h0.2
		c5.8,0,6.6-5.6,6.9-8c0.2-1.3,0.3-2.6,0.5-3.7c0.2-1.8,0.3-3.5,0.6-5.3c0.5-2.6,1.3-7.1-1.6-10.3c-3.2-3.7-7.6-4-10.6-4.3h-0.2
		c-2.1-0.2-3.2-0.3-4.8-0.3c-0.8,0-1.6,0-2.9,0c-0.2,0-0.3,0-0.5,0c-2.3-1-4.5-1.1-6.3-1.3c-0.5,0-1-0.2-1.4-0.2
		C283,23.1,281.9,22.9,280.6,22.9L280.6,22.9L280.6,22.9z"/>
	<g>
		<path d="M329.8,38.7c1.3,0,2.7,0.5,4,0.6c5.5,1,6.9,0.6,5.6,6.3c-1.4,6.9-3.7,13.5-5,20.4c-0.8,4-2.9,6.9-6.4,6.9
			c-0.8,0-1.8-0.2-2.9-0.5c-2.4-0.8-3.5-2.3-3.9-4c-0.5-2.7,0.8-6.1,1.1-9.2c0.6-4.5,0.5-16.4,5-19.9
			C328.2,38.8,329,38.7,329.8,38.7 M329.8,34.7c-1.8,0-3.4,0.5-4.7,1.4c-5,3.9-5.6,12.9-6.1,19.5c-0.2,1.3-0.2,2.4-0.3,3.2
			s-0.3,1.8-0.5,2.7c-0.5,2.4-1.1,5.1-0.6,7.7c0.5,2.3,1.9,5.5,6.4,6.9c1.4,0.5,2.9,0.8,4.2,0.8c5.3,0,9.2-3.9,10.5-10.1
			c0.6-3.7,1.6-7.2,2.6-10.9c0.8-3.1,1.6-6.1,2.3-9.3c0.5-2.4,1-5.3-0.6-7.6c-1.6-2.4-4.2-2.7-7.1-3.2l-1.3-0.2
			c-0.3,0-0.6-0.2-1-0.2C332.6,35,331.1,34.7,329.8,34.7L329.8,34.7z"/>
		<path d="M324.9,74.8c1.8,0,4,0.5,5,1c0.8,0.3,1.8,0.6,2.3,1.8c-0.6,2.3,0,5.9-2.4,7.1c-0.3,0.2-0.8,0.2-1.6,0.2
			c-2.3,0-5.9-0.5-6.4-1.1c-1.1-1.3-0.3-7.6,0.8-8.4C323.1,75,323.9,74.8,324.9,74.8 M324.9,70.8c-1.9,0-3.4,0.3-4.5,1.3
			c-0.6,0.5-2.4,1.6-3.1,6.8c-0.5,3.5,0,6.1,1.4,7.7c1.9,2.3,7.7,2.4,9.5,2.4c1.4,0,2.6-0.2,3.4-0.6c3.7-1.9,4-5.6,4.2-7.9
			c0-0.6,0.2-1.3,0.2-1.6c0.3-1,0.2-1.9-0.2-2.7c-1.1-2.6-3.2-3.4-4.3-3.9h-0.2C330,71.5,327.3,70.8,324.9,70.8L324.9,70.8z"/>
	</g>
	<g>
		<path style="fill:#FFEA88;" d="M143.7,44.3c0.2,1.1,0.3,1.9,0,2.1c-1.9,0.5-4.5,0-5.1,2.4c-0.5,1.9,0.6,4,1,5.8
			c0.3,3.1,3.7,1.8,5.6,1.9c1,0.2,1.4,7.2,2.4,8.4c1.8,1.9,5.6,1.1,7.2-0.6c1.8-1.8,1.3-4.8,1-7.1c-0.5-3.5-0.8-6.9-1-10.5
			c-0.2-3.7,0.5-8-1.1-11.4c-0.8-1.8-8.2-0.5-9.8,0.2C141.7,36.4,143,41.4,143.7,44.3z"/>
		<path style="fill:#FFCF00;" d="M150.6,36.9c0.5,0,0.8,0,1,0c0.6,1.8,0.6,4.2,0.5,6.4c0,1.1,0,2.3,0,3.4c0.2,3.5,0.6,7.1,1,10.6
			v0.3c0.2,1.6,0.5,3.9-0.3,4.7c-0.5,0.5-1.6,1-2.4,1c-0.2,0-0.5,0-0.8-0.2c-0.2-0.6-0.5-2.3-0.6-3.2c-0.6-3.5-1.1-5.8-3.5-6.1
			c-0.3,0-0.6,0-1,0c-0.5,0-0.8,0-1.3,0c-0.3,0-0.6,0-1,0H142c-0.2-0.8-0.3-1.4-0.5-2.3s-0.5-1.6-0.5-2.3c0.3-0.2,1-0.2,1.3-0.2
			c0.6,0,1.3-0.2,1.9-0.3c2.7-0.6,2.3-3.9,1.9-5.1l-0.2-1c-0.3-1.1-0.8-4.2-0.6-5.3C146.4,37.4,148.8,36.9,150.6,36.9 M145.4,37.5
			L145.4,37.5L145.4,37.5 M141.1,49.4L141.1,49.4L141.1,49.4 M150.6,34.3c-2.4,0-5.6,0.6-6.6,1.1c-2.4,1-1,6.1-0.5,9
			c0.2,1.1,0.3,1.9,0,2.1c-1.9,0.5-4.5,0-5.1,2.4c-0.5,1.9,0.6,4,1,5.8c0.2,1.8,1.4,2.1,2.7,2.1c0.8,0,1.6-0.2,2.4-0.2
			c0.2,0,0.3,0,0.6,0c1,0.2,1.4,7.2,2.4,8.4c0.8,0.8,1.8,1.1,2.9,1.1c1.6,0,3.4-0.8,4.3-1.9c1.8-1.8,1.3-4.8,1-7.1
			c-0.5-3.5-0.8-6.9-1-10.5c-0.2-3.7,0.5-8-1.1-11.4C153.5,34.5,152.2,34.3,150.6,34.3L150.6,34.3z"/>
	</g>
	<g>
		<path style="fill:#FFEA88;" d="M157.2,30c-0.5,2.1,0,5.5,0,6.8c0,7.1,0.5,14.1,1,21.2c0.2,2.3,0.3,4.7,0.5,6.9
			c0.2,1.4-0.3,4.7,0.6,5.8c1.4,1.6,4.3,1.1,6.1,0.6c2.1-0.6,2.6-1.9,2.6-4.2c-0.2-9.2-0.2-18.3-0.3-27.5c0-3.1,1.1-9.6-1.3-11.6
			c-1.3-1-7.4-0.6-8.5,0.5C157.5,28.9,157.3,29.3,157.2,30z"/>
		<path style="fill:#FFCF00;" d="M163.1,30.2c0.8,0,1.4,0,1.6,0.2c0.6,1.1,0.3,5.1,0.3,6.6c0,1-0.2,1.9-0.2,2.7l0.2,9.6l0.2,17.8
			c0,1.1-0.2,1.4-0.2,1.4l0,0c0,0-0.2,0.2-0.5,0.2c-0.5,0.2-1.4,0.3-2.4,0.3c-0.5,0-0.8,0-1-0.2c-0.2-0.6-0.2-1.9,0-2.6
			c0-0.6,0-1.3,0-1.6c-0.2-2.1-0.3-4.2-0.5-6.4v-0.6v-0.8c-0.5-6.6-1-13.5-1-20.3c0-0.5,0-1.1,0-1.8c-0.2-1.3-0.2-3.4,0-4.5l0,0
			C160.4,30.5,161.7,30.2,163.1,30.2 M159.9,30.3L159.9,30.3L159.9,30.3 M163.1,27.4c-2.1,0-4.7,0.5-5.3,1.1
			c-0.3,0.3-0.5,0.8-0.6,1.4c-0.5,2.1,0,5.5,0,6.8c0,7.1,0.5,14.1,1,21.2c0.2,2.3,0.3,4.7,0.5,6.9c0.2,1.4-0.3,4.7,0.6,5.8
			c0.8,0.8,1.9,1.1,3.1,1.1c1.1,0,2.3-0.2,3.1-0.5c2.1-0.6,2.6-1.9,2.6-4.2c-0.2-9.2-0.2-18.3-0.3-27.5c0-3.1,1.1-9.6-1.3-11.6
			C165.8,27.7,164.6,27.4,163.1,27.4L163.1,27.4z"/>
	</g>
	<g>
		<path style="fill:#FFEA88;" d="M220.2,62.3c0.6,0.5,1,1.3,1.8,1.3c7.6,0.2,15.1,0,22.8-0.2c0.8,0,1.8-0.2,2.3-0.8
			c0.2-0.3,0.2-0.6,0.2-1c0-1,0.2-1.9,0.2-2.9c0-0.8,0.3-2.1,0.2-2.9c-0.3-1.4-2.1-1.1-3.2-1.1c-1.4-0.2-2.7-0.2-4.2-0.3
			c-2.1-0.2-3.9,0.2-5.9,0.2c-0.8,0-1.4,0.2-2.1,0c-0.3,0,0-2.1,0.2-2.3c1-1.3,4-0.5,5.3-0.5c2.4,0.2,5,0.3,7.4,0
			c0.5,0,1-0.3,1.1-0.8c0.2-0.3,0.2-0.6,0.2-1.1c0-1.4,0.2-2.9,0-4.3c0-1.3-0.6-1.3-1.9-1.4c-2.9-0.2-5.9-0.5-9-0.5
			c-1.3,0-3.4,0.2-4.2-1c-0.5-0.6-0.3-1.6-0.2-2.3c0.3-1.3,0.5-1.3,1.9-1.3c4.8,0.2,9.5,0.3,14.3,0.2c0.5-1.8,0.6-3.7,0.6-5.6
			c0-0.2,0-0.5-0.2-0.6c-0.2-0.2-0.3-0.2-0.5-0.3c-3.1-1.6-7.6-1.4-11.1-1.8c-4-0.3-8.2-0.6-12.2,0.2c-0.5,0-1,0.2-1.3,0.5
			c-0.2,0.2-0.3,0.5-0.5,0.8c-1.4,3.9-1.3,8-1.9,12.2c-0.3,2.6-0.8,5.1-1,7.7C219.2,56,217.5,60.1,220.2,62.3z"/>
		<path style="fill:#FFCF00;" d="M224.8,33.4L224.8,33.4L224.8,33.4 M229.7,33.7c2.1,0,4.3,0.2,6.6,0.3c0.6,0,1.3,0,1.9,0.2
			c2.4,0.2,5.1,0.3,7.2,1c0,0.6,0,1.3-0.2,1.8c-0.2,0-0.3,0-0.3,0c-2.9,0-5.9-0.2-8.8-0.2l-2.9-0.2c-0.3,0-0.5,0-0.6,0
			c-3.1,0-3.5,2.1-3.9,3.2c-0.2,0.6-0.6,2.7,0.5,4.5c1.4,2.3,4.2,2.3,5.6,2.3h0.3h0.3h0.3c2.7,0,5.5,0.2,8.2,0.5c0,0.5,0,1,0,1.6
			c0,0.3,0,0.5,0,0.8c-0.5,0-1.1,0-1.8,0c-1,0-1.9,0-2.9-0.2h-1.1c-0.3,0-0.6,0-1-0.2c-0.6-0.2-1.6-0.2-2.4-0.2
			c-1.9,0-3.4,0.6-4.2,1.8c-0.8,1-1.1,3.5-0.6,4.8c0.3,0.8,1.1,1.6,2.1,1.8c0.3,0,0.8,0.2,1.3,0.2c0.3,0,0.5,0,0.8,0
			c0.2,0,0.3,0,0.6,0l0,0h0.3c0.8,0,1.6,0,2.6-0.2c0.6,0,1.4-0.2,2.3-0.2c0.3,0,0.5,0,0.8,0c1.4,0,2.7,0.2,4.2,0.3
			c0.2,0,0.5,0,0.6,0v0.2c0,0.3-0.2,0.8-0.2,1.1l-0.2,2.1C240,61,234.7,61,229.5,61c-2.1,0-4,0-6.1,0l0,0c-0.3-0.3-0.5-0.5-0.8-0.6
			c-0.6-0.5-0.5-1.6-0.2-4.2c0.2-1.1,0.3-2.1,0.5-3.2c0.2-2.1,0.3-4,0.6-5.9l0.2-1.4c0.2-1.3,0.3-2.6,0.5-3.9c0.2-2.6,0.5-5,1.3-7.4
			C226.1,33.7,227.7,33.7,229.7,33.7 M229.7,31c-1.8,0-3.7,0.2-5.5,0.3c-0.5,0-1,0.2-1.3,0.5c-0.2,0.2-0.3,0.5-0.5,0.8
			c-1.4,3.9-1.3,8-1.9,12.2c-0.3,2.6-0.8,5.1-1,7.7c-0.2,3.5-2.1,7.6,0.6,9.8c0.6,0.5,1,1.3,1.8,1.3c2.3,0,4.5,0,6.8,0
			c5.3,0,10.8,0,16.1-0.2c0.8,0,1.8-0.2,2.3-0.8c0.2-0.3,0.2-0.6,0.2-1c0-1,0.2-1.9,0.2-2.9c0-0.8,0.3-2.1,0.2-2.9
			c-0.3-1.4-2.1-1.1-3.2-1.1c-1.4-0.2-2.7-0.2-4.2-0.3c-0.3,0-0.6,0-1,0c-1.6,0-3.1,0.2-4.7,0.2c-0.2,0-0.2,0-0.3,0l0,0
			c-0.5,0-1,0-1.3,0s-0.5,0-0.8,0s0-2.1,0.2-2.3c0.5-0.5,1.3-0.6,2.1-0.6c1.1,0,2.4,0.3,3.2,0.3c1.4,0,2.7,0.2,4.2,0.2
			c1.1,0,2.1,0,3.1-0.2c0.5,0,1-0.3,1.1-0.8c0.2-0.3,0.2-0.6,0.2-1.1c0-1.4,0.2-2.9,0-4.3c0-1.3-0.6-1.3-1.9-1.4
			c-2.9-0.2-5.9-0.5-9-0.5c-0.2,0-0.2,0-0.3,0c-0.2,0-0.3,0-0.5,0c-1.3,0-2.7,0-3.4-1c-0.5-0.6-0.3-1.6-0.2-2.3
			c0.3-1.1,0.3-1.3,1.3-1.3c0.2,0,0.5,0,0.6,0c3.9,0.2,7.9,0.3,11.7,0.3c0.8,0,1.8,0,2.6,0c0.5-1.8,0.6-3.7,0.6-5.6
			c0-0.2,0-0.5-0.2-0.6c-0.2-0.2-0.3-0.2-0.5-0.3c-3.1-1.6-7.6-1.4-11.1-1.8C234,31.1,231.8,31,229.7,31L229.7,31z"/>
	</g>
	<g>
		<path style="fill:#FFEA88;" d="M254.3,72.1c-1.1-2.4-4.2-3.1-7.1-3.4c-9.3-0.6-18.5-1.6-27.7-2.6c-4.7-0.5-5.6,2.3-5.8,5.5
			c-0.2,2.7-1.4,5.9,3.2,6.4c5.3,0.3,10.8,0.3,16.1,0.6c4.5,0.2,9.2,0.5,13.8,0.6c4.5,0.2,6.9,0.6,7.6-3.2
			C254.8,74.8,254.9,73.4,254.3,72.1z"/>
		<path style="fill:#FFCF00;" d="M218.6,68.9c0.2,0,0.5,0,0.8,0c2.1,0.2,4.2,0.5,6.4,0.6c6.9,0.6,14.1,1.4,21.4,1.9
			c2.9,0.2,4.3,0.8,4.8,1.8c0.3,0.6,0.2,1.8,0,2.6c-0.2,0.8-0.3,1-0.3,1s-0.3,0.2-1.4,0.2c-0.6,0-1.3,0-1.9,0h-1.1
			c-4-0.2-8.7-0.3-13.8-0.6c-2.3-0.2-4.7-0.2-6.9-0.3c-3.1-0.2-6.1-0.2-9-0.3c-0.5,0-0.8-0.2-1-0.2c0-0.3,0-1.3,0.2-1.8
			c0-0.5,0.2-1.1,0.2-1.6C216.6,68.9,217.3,68.9,218.6,68.9 M251.5,76.8L251.5,76.8L251.5,76.8 M218.6,66.2c-3.9,0-4.7,2.6-4.8,5.5
			c-0.2,2.7-1.4,5.9,3.2,6.4c5.3,0.3,10.8,0.3,16.1,0.6c4.5,0.2,9.2,0.5,13.8,0.6c1.1,0,2.3,0.2,3.1,0.2c2.6,0,4-0.5,4.5-3.4
			c0.2-1.4,0.3-2.9-0.2-4.2c-1.1-2.4-4.2-3.1-7.1-3.4c-9.3-0.6-18.5-1.6-27.7-2.6C219.2,66.3,218.9,66.2,218.6,66.2L218.6,66.2z"/>
	</g>
	<g>
		<path style="fill:#FFEA88;" d="M274.7,86.1c0.8,1.3,2.3,1.8,3.7,1.8c2.4,0.2,4.8,0.3,7.1,0.5c4.8,0.3,9.5,0.6,14.3,0.6
			c1,0,1.9,0,2.4-0.5c0.2-0.2,0.2-0.5,0.2-0.6c0.2-0.8,0.2-1.4,0.3-2.3c0-0.6,0.5-1.6,0.3-2.3c-0.3-1.1-2.3-1-3.4-1.1
			c-1.4-0.2-2.9-0.3-4.5-0.3c-2.1-0.2-4.2,0-6.3-0.2c-0.8,0-1.6,0-2.3-0.2c-0.3,0,0.2-1.6,0.3-1.8c1.1-1,4.3-0.2,5.8-0.2
			c2.6,0.2,5.3,0.5,7.9,0.3c0.5,0,1-0.2,1.3-0.5c0.2-0.3,0.2-0.5,0.2-0.8c0-1.1,0.2-2.3,0.2-3.4c0-1-0.6-1.1-1.9-1.3
			c-3.2-0.3-6.3-0.6-9.5-0.8c-1.4,0-3.7,0-4.5-1c-0.5-0.5-0.2-1.3,0-1.8c0.5-1,0.5-1,2.1-1c5,0.3,10.1,0.6,15.3,0.8
			c0.6-1.4,0.8-2.9,0.8-4.5c0-0.2,0-0.3-0.2-0.5s-0.3-0.2-0.5-0.3c-3.2-1.3-8-1.4-11.7-1.8c-4.3-0.3-8.7-1.3-12.9-1
			c-0.5,0-1.1,0.2-1.4,0.3c-0.2,0.2-0.3,0.3-0.5,0.6c-1.6,2.7-1.3,5.8-1.6,9c-0.3,3.5-0.8,7.1-1.1,10.6c-0.2,0.8-0.2,1.6,0,2.4
			C274.4,85.5,274.5,85.8,274.7,86.1z"/>
		<path style="fill:#FFCF00;" d="M279.5,64.6L279.5,64.6L279.5,64.6 M281.1,64.9c2.3,0,4.5,0.3,6.9,0.6c1.3,0.2,2.6,0.3,3.7,0.5
			c0.6,0,1.3,0.2,2.1,0.2c2.6,0.2,5.5,0.5,7.7,1.1c0,0.2,0,0.2,0,0.3c-3.4-0.2-6.8-0.3-10-0.5l-3.2-0.2c-0.5,0-0.8,0-1,0
			c-2.6,0-3.4,1.8-3.7,2.6c-1,2.3-0.2,3.9,0.5,4.5c1.4,1.8,4,1.9,5.8,1.9h0.6c2.9,0.2,5.9,0.5,8.8,0.6c0,0.2,0,0.3,0,0.6
			c0,0,0,0,0,0.2c-0.3,0-0.5,0-0.8,0c-1.4,0-3.1-0.2-4.5-0.2l-1.3-0.2c-0.3,0-0.6,0-1.1-0.2c-0.8-0.2-1.9-0.3-2.9-0.3
			c-1.6,0-2.7,0.3-3.7,1.1c-1.1,1-1.6,3.2-1.3,4.5c0.3,1.1,1.1,1.9,2.3,2.1c0.6,0.2,1.3,0.2,1.9,0.2h0.2c0.2,0,0.3,0,0.6,0
			c0.6,0,1.3,0,1.9,0h1h1c0.6,0,1.4,0,2.4,0c1.4,0.2,2.9,0.2,4.5,0.3c0.2,0,0.5,0,0.8,0l0,0c0,0.2,0,0.2,0,0.3l-0.2,1.1l0,0
			c-4.7,0-9.2-0.3-14.1-0.6h-1c-1.9-0.2-4-0.3-5.9-0.3c-0.8,0-1.4-0.2-1.4-0.5v-0.2c-0.2-0.3,0-1,0-1.4l1.1-10.1v-0.3
			c0-0.6,0.2-1.4,0.2-2.1c0.2-2.1,0.3-3.7,1-5.3l0,0C279.8,65,280.5,64.9,281.1,64.9 M281.1,62.3c-0.6,0-1.4,0-2.1,0.2
			c-0.5,0-1.1,0.2-1.4,0.3c-0.2,0.2-0.3,0.3-0.5,0.6c-1.6,2.7-1.3,5.8-1.6,9c-0.3,3.5-0.8,7.1-1.1,10.6c-0.2,0.8-0.2,1.6,0,2.4
			c0.2,0.3,0.2,0.6,0.3,0.8c0.8,1.3,2.3,1.8,3.7,1.8c2.4,0.2,4.8,0.3,7.1,0.5c4.8,0.3,9.5,0.6,14.3,0.6c0.2,0,0.2,0,0.3,0
			c0.8,0,1.8-0.2,2.1-0.5c0.2-0.2,0.2-0.5,0.2-0.6c0.2-0.8,0.2-1.4,0.3-2.3c0-0.6,0.5-1.6,0.3-2.3c-0.3-1.1-2.3-1-3.4-1.1
			c-1.4-0.2-2.9-0.3-4.5-0.3c-0.8,0-1.8-0.2-2.6-0.2c-0.6,0-1.3,0-1.9,0s-1.3,0-1.8,0c-0.2,0-0.5,0-0.6,0H288c-0.5,0-1,0-1.4-0.2
			c-0.3,0,0.2-1.6,0.3-1.8c0.5-0.3,1.1-0.5,1.9-0.5c1.3,0,2.9,0.3,3.9,0.3c1.9,0.2,4,0.3,5.9,0.3c0.6,0,1.3,0,1.9,0
			c0.5,0,1-0.2,1.3-0.5c0.2-0.3,0.2-0.5,0.2-0.8c0-1.1,0.2-2.3,0.2-3.4c0-1-0.6-1.1-1.9-1.3c-3.2-0.3-6.3-0.6-9.5-0.8
			c-1.4,0-3.7,0-4.5-1c-0.5-0.5-0.2-1.3,0-1.8c0.3-0.8,0.5-1,1.1-1c0.3,0,0.6,0,1,0c5,0.3,10.1,0.6,15.3,0.8
			c0.6-1.4,0.8-2.9,0.8-4.5c0-0.2,0-0.3-0.2-0.5s-0.3-0.2-0.5-0.3c-3.2-1.3-8-1.4-11.7-1.8C288.4,63,284.7,62.3,281.1,62.3
			L281.1,62.3z"/>
	</g>
	<g>
		<path style="fill:#FFEA88;" d="M313.4,55.1c-0.5-0.6-1.1-1-2.3-1.1c-8-0.8-15.9-1.6-24-2.4c-4.2-0.5-8.5-0.8-12.7-1.3
			c-1.4-0.2-2.9-0.3-4.5-0.5c-2.4-0.2-2.7,0.2-2.9,2.9c-0.3,3.1-1.9,6.8,3.4,7.4c5.9,0.6,12.4,1,18.3,1.6c5.1,0.5,10.6,1,15.8,1.4
			c5.1,0.5,7.9,1,8.8-3.4C314.1,57.8,314.2,56.2,313.4,55.1z"/>
		<path style="fill:#FFCF00;" d="M270.2,51.7L270.2,51.7L270.2,51.7 M270,52.5L270,52.5c1,0,1.9,0.2,2.9,0.3c0.5,0,1,0.2,1.4,0.2
			l6.3,0.6l6.3,0.6l24,2.4c0.2,0,0.3,0,0.3,0c0,0.3,0,1-0.3,2.4c-0.3,1.6-0.5,1.6-1.9,1.6c-0.8,0-1.8-0.2-2.9-0.2l-1.1-0.2
			c-4.5-0.3-9.8-0.8-15.8-1.4c-2.6-0.3-5.3-0.5-8-0.6c-3.4-0.3-7.1-0.5-10.5-1c-1.1-0.2-1.4-0.3-1.4-0.3l0,0c-0.2-0.3,0-1.6,0.2-2.4
			c0.2-0.6,0.2-1.1,0.2-1.8C270,52.8,270,52.7,270,52.5 M269.4,49.8c-1.6,0-1.9,0.5-2.1,2.9c-0.3,3.1-1.9,6.8,3.4,7.4
			c5.9,0.6,12.4,1,18.3,1.6c5.1,0.5,10.6,1,15.8,1.4c1.6,0.2,3.1,0.3,4.3,0.3c2.4,0,3.9-0.6,4.5-3.7c0.3-1.9,0.6-3.5-0.2-4.7
			c-0.5-0.6-1.1-1-2.3-1.1c-8-0.8-15.9-1.6-24-2.4c-4.2-0.5-8.5-0.8-12.7-1.3c-1.4-0.2-2.9-0.3-4.5-0.5
			C269.9,49.8,269.7,49.8,269.4,49.8L269.4,49.8z"/>
	</g>
	<g>
		<g>
			<path style="fill:#FFEA88;" d="M193.2,38.2c-17.2-8.5-30.1,17.5-12.5,26.2C197.5,72.8,209.6,46.4,193.2,38.2z M186.1,54.4
				c-1.8-0.2-3.1-1.8-2.7-3.5c0.2-1.8,1.8-3.1,3.5-2.7c1.8,0.3,3.1,1.8,2.7,3.5C189.5,53.5,187.9,54.8,186.1,54.4z"/>
			<path style="fill:#FFCF00;" d="M186.4,39.3c1.8,0,3.7,0.5,5.6,1.4c7.6,3.7,6.4,10.8,5.9,12.9c-1.1,4.8-5.3,9.8-10.9,9.8
				c-1.8,0-3.5-0.5-5.3-1.3c-5.3-2.6-7.9-7.6-6.6-13C176.3,44.1,180.5,39.3,186.4,39.3 M186.6,57.2c2.9,0,5.5-2.3,5.8-5.1
				c0.5-3.2-1.9-6.1-5.1-6.6c-0.3,0-0.5,0-0.8,0c-2.9,0-5.5,2.3-5.8,5.1c-0.5,3.2,1.9,6.1,5.1,6.6C186.1,57.2,186.3,57.2,186.6,57.2
				 M186.4,36.6c-13.5,0-20.9,20.4-5.8,27.8c2.3,1.1,4.5,1.6,6.4,1.6c13.2,0,20.4-20.7,6.1-27.8C190.8,37.1,188.5,36.6,186.4,36.6
				L186.4,36.6z M186.6,54.6c-0.2,0-0.3,0-0.5,0c-1.8-0.2-3.1-1.8-2.7-3.5c0.2-1.6,1.6-2.7,3.2-2.7c0.2,0,0.3,0,0.5,0
				c1.8,0.2,3.1,1.8,2.7,3.5C189.5,53.3,188.2,54.6,186.6,54.6L186.6,54.6z"/>
		</g>
		<g>
			<path style="fill:#FFEA88;" d="M203,46.4c0,3.1,0,6.1,0.2,9.3c0.2,3.1-0.2,6.4,1,9.5c0.6,1.8,1,2.3,2.7,2.4
				c1.8,0,3.7-0.2,5.5-0.5c1.9-0.3,1.9-1.1,1.9-3.1c0-2.4,0-29.6-1.8-29.7c-1.8-0.2-3.5,0-5.1-0.5c-1-0.2-3.1-0.6-3.4,1
				C203.3,38.7,203.1,42.5,203,46.4z"/>
			<path style="fill:#FFCF00;" d="M206.7,35.1L206.7,35.1L206.7,35.1 M206.4,36.4c0.2,0,0.2,0,0.3,0c1.3,0.3,2.6,0.3,3.7,0.3
				c0,0,0,0,0.2,0c0.8,5.3,1,23,1,27.3c0,0.2,0,0.3,0,0.3c-1.3,0.2-2.9,0.3-4.2,0.3H207l0,0c0-0.2-0.2-0.3-0.3-0.6
				c-0.6-1.9-0.8-4.2-0.8-6.4c0-0.6,0-1.4,0-2.1c-0.2-3.4-0.2-6.3-0.2-9.2C205.7,42.9,206,39.6,206.4,36.4 M205.7,33.7
				c-0.8,0-1.6,0.2-1.8,1.1c-0.6,3.9-0.8,7.7-1,11.7c0,3.1,0,6.1,0.2,9.3c0.2,3.1-0.2,6.4,1,9.5c0.6,1.8,1,2.3,2.7,2.4
				c0.2,0,0.3,0,0.5,0c1.6,0,3.4-0.3,5-0.5c1.9-0.3,1.9-1.1,1.9-3.1c0-2.4,0-29.6-1.8-29.7c-1.8-0.2-3.5,0-5.1-0.5
				C206.8,33.7,206.2,33.7,205.7,33.7L205.7,33.7z"/>
		</g>
	</g>
	<g>
		<path style="fill-rule:evenodd;clip-rule:evenodd;fill:#FFEA88;" d="M113.1,59.3c0.8-1.4-0.6-3.9-1.1-6.4c-0.5-2.1-4.7-26-5-26
			c-2.7,0.5-5.5,1-8.4,1.4c-0.8,0.2,2.4,11.4,1.6,12.7c-0.6,1.1-6.9,1.9-6.9,1.9c0.2,1.9,0.3,3.9,0.6,5.9c0,0.5,0.2,1,0.6,1
			c0.2,0,0.3,0,0.5,0c2.4-0.5,4.8-0.8,7.2-1.3c0.8,2.9,1.6,5.8,2.3,8.8c0.3,1.1,0.3,3.1,1.4,3.5c0.6,0.3,2.7-0.2,3.5-0.2
			C111.8,60.5,112.8,60.1,113.1,59.3z"/>
		<path style="fill:#FFCF00;" d="M104.9,29.8c0.8,3.7,2.1,10.9,2.9,15.6c0.8,4,1.3,7.1,1.4,7.9c0.2,1,0.5,1.9,0.8,2.7
			c0.2,0.5,0.5,1.3,0.5,1.8c-0.2,0-0.5,0-1,0.2c-0.3,0-0.6,0-1.1,0.2c-0.2,0-0.5,0-0.8,0.2c0-0.2,0-0.3-0.2-0.5
			c0-0.3-0.2-0.8-0.2-1.1c-0.5-1.9-1-3.9-1.6-5.9l-0.8-2.9c-0.3-1.1-1.4-1.9-2.6-1.9c-0.2,0-0.3,0-0.5,0l-5.5,1
			c0-0.6-0.2-1.1-0.2-1.8c3.9-0.8,5.5-1.4,6.3-2.7c0.8-1.4,0.6-3.4-0.6-9.3c-0.2-0.8-0.3-1.8-0.5-2.6L104.9,29.8 M107,26.8L107,26.8
			c-2.7,0.5-5.5,1-8.4,1.4c-0.8,0.2,2.4,11.4,1.6,12.7c-0.6,1.1-6.9,1.9-6.9,1.9c0.2,1.9,0.3,3.9,0.6,5.9c0,0.5,0.2,1,0.6,1h0.2
			c0.2,0,0.2,0,0.3,0c2.4-0.5,4.8-0.8,7.2-1.3c0.8,2.9,1.6,5.8,2.3,8.8c0.3,1.1,0.3,3.1,1.4,3.5c0.2,0,0.3,0.2,0.6,0.2
			c1,0,2.3-0.3,2.9-0.3c1.9-0.2,2.9-0.6,3.4-1.3c0.8-1.4-0.6-3.9-1.1-6.4C111.5,50.6,107.3,26.8,107,26.8L107,26.8z"/>
	</g>
	<g>
		<path style="fill:#FFEA88;" d="M82.7,38.8C66.2,34,58.9,58.9,75.6,63.9C91.9,68.6,98.5,43.3,82.7,38.8z M79,54.3
			c-1.6,0-2.9-1.1-3.1-2.7c0-1.6,1.1-2.9,2.7-3.1c1.6,0,2.9,1.1,3.1,2.7S80.6,54.1,79,54.3z"/>
		<path style="fill:#FFCF00;" d="M78.5,40.9c1.1,0,2.3,0.2,3.4,0.5c6.1,1.8,7.6,6.9,6.9,11.3c-0.6,4.3-3.9,9.2-9.3,9.2
			c-1,0-2.1-0.2-3.2-0.5c-6.4-1.9-8-7.1-7.6-11.3C69.5,45.6,72.9,40.9,78.5,40.9 M78.9,56.8h0.3c1.4,0,2.9-0.6,3.9-1.8
			c1-1.1,1.4-2.6,1.4-4c-0.2-2.9-2.6-5.3-5.6-5.3h-0.3c-1.4,0-2.9,0.6-3.9,1.8c-1,1.1-1.4,2.6-1.4,4C73.6,54.6,76,56.8,78.9,56.8
			 M78.5,38.2c-13.5,0-18.3,21.2-2.9,25.7c1.4,0.5,2.7,0.6,4,0.6c13.3,0,17.5-21.4,3.1-25.6C81.3,38.4,79.8,38.2,78.5,38.2
			L78.5,38.2z M78.9,54.3c-1.4,0-2.7-1.1-2.9-2.7c0-1.6,1.1-2.9,2.7-3.1h0.2c1.4,0,2.7,1.1,2.9,2.7S80.6,54.1,78.9,54.3
			C79,54.3,79,54.3,78.9,54.3L78.9,54.3z"/>
	</g>
	<g>
		<path style="fill:#FFEA88;" d="M112,69.9c-0.5-1.8-1-3.5-1.4-5.1c-0.2-0.6-0.5-1.4-1.1-1.8c-1.9-1-5.9,1.3-7.7,1.9
			c0.2,0.3,1.8,4.5,0.8,4.8c-2.1,0.6-4.2,1.1-6.3,1.3c-2.1,0.2-2.1-2.6-2.4-4c-0.2-0.3-0.2-0.5-0.3-0.6c-0.2-0.2-0.5-0.2-0.8-0.2
			c-2.7,0.2-5,0.6-7.2,2.3c-0.3,0.3-0.8,0.6-0.8,1s0,0.5,0,0.8c0.8,3.7,1.6,7.4,2.7,11.1c0.8,2.6,0.5,1.6,1,4.3c0.2,1,0.3,2.6,1,3.4
			c2.1,2.7,14.3-1.1,16.9-1.6s6.3-1,6.9-4c0.8-3.7-0.2-4.7-0.3-8.4C112.6,73.1,112.3,71.5,112,69.9z M104.3,79.2
			c0,0.2,0,0.3,0.2,0.5c-1.8,0.3-6.8,2.6-7.9,0.6c-1.3-2.3,1.6-2.4,3.1-2.6c1.4-0.3,2.7-0.6,4.2-0.8
			C103.9,77.7,104.1,78.5,104.3,79.2z"/>
		<path style="fill:#FFCF00;" d="M108,65.2c0.2,0.8,0.5,1.6,0.6,2.4c0.3,1,0.5,1.9,0.8,2.9c0.5,1.8,0.6,3.1,0.6,4.3
			c0,1.6,0.2,2.7,0.3,3.5c0.2,1.4,0.3,2.3,0,4.2c-0.2,1.1-1.9,1.4-4.2,1.9l-0.5,0.2c-0.5,0.2-1.3,0.3-2.4,0.6
			c-2.9,0.8-7.7,1.9-10.8,1.9c-0.6,0-1,0-1.3-0.2c0-0.3-0.2-0.8-0.2-1c0-0.3-0.2-0.8-0.2-1.1c-0.2-1-0.3-1.4-0.3-1.8
			c-0.2-0.8-0.2-1.1-0.8-2.9c-1-2.9-1.6-5.9-2.3-9.2l0.1-0.9c1.3-0.8,2.4-1.1,4.2-1.4c0.3,1.6,1.3,4.7,4.7,4.7c0.2,0,0.3,0,0.3,0
			c2.3-0.2,4.7-0.6,6.9-1.3c0.8-0.3,1.4-0.8,1.8-1.6c0.5-1.1,0.5-2.4-0.2-4.3C105.9,65.8,107.2,65.4,108,65.2 M98.3,83.9
			c1.8,0,3.7-0.6,5.3-1.1c0.5-0.2,1-0.3,1.3-0.3c1.4-0.3,2.4-1.8,2.1-3.2l-0.2-0.5l-0.3-1.4l-0.2-0.8c-0.3-1.3-1.4-2.1-2.6-2.1
			c-0.2,0-0.2,0-0.3,0c-1,0.2-2.1,0.3-3.1,0.5c-0.5,0.2-1,0.2-1.3,0.3c-0.2,0-0.3,0-0.5,0c-1.4,0.2-3.7,0.6-4.7,2.6
			c-0.5,0.8-0.6,2.1,0.2,3.9C94.6,82.6,95.7,83.9,98.3,83.9 M108.3,62.6c-2.1,0-5.1,1.6-6.6,2.3c0.2,0.3,1.8,4.5,0.8,4.8
			c-2.1,0.6-4.2,1.1-6.3,1.3H96c-1.9,0-1.9-2.6-2.3-4c-0.2-0.3-0.2-0.5-0.3-0.6c-0.2-0.2-0.3-0.2-0.6-0.2h-0.2
			c-2.7,0.2-5,0.6-7.2,2.3c-0.3,0.3-0.8,0.6-0.8,1s0,0.5,0,0.8c0.8,3.7,1.6,7.4,2.7,11.1c0.8,2.6,0.5,1.6,1,4.3c0.2,1,0.3,2.6,1,3.4
			c0.5,0.6,1.8,1,3.2,1c4.5,0,11.6-2.3,13.7-2.6c2.6-0.5,6.3-1,6.9-4c0.8-3.7-0.2-4.7-0.3-8.4c0-1.6-0.3-3.2-0.8-4.8
			c-0.5-1.8-1-3.5-1.4-5.1c-0.2-0.6-0.5-1.4-1.1-1.8C109.1,62.6,108.6,62.6,108.3,62.6L108.3,62.6z M98.3,81.3
			c-0.8,0-1.4-0.2-1.8-0.8c-1.3-2.3,1.6-2.4,3.1-2.6c1.4-0.3,2.7-0.6,4.2-0.8c0.2,0.8,0.3,1.4,0.5,2.3c0,0.2,0,0.3,0.2,0.5
			C103.1,80,100.2,81.3,98.3,81.3L98.3,81.3z"/>
	</g>
	<g>
		<path style="fill-rule:evenodd;clip-rule:evenodd;fill:#FFEA88;" d="M119.4,40.3c-0.6,0.3-1.3,0.8-1.6,1.6c-0.3,0.6,0,2.1,0,2.9
			c0.2,2.1,0.3,4.3,0.5,6.4c0.5,4.2,1.1,8.2,2.3,12.2c0.3,1.6,1,3.4,2.4,3.9c0.6,0.2,1.3,0.2,1.9,0.2c2.9-0.3,5.9-0.5,8.8-0.8
			c1.9-0.2,4.3,0.5,5.9-0.6c2.4-1.6,2.1-6.3,0.3-8.2c-2.7-2.7-7.7,1.6-10.3-1.3c-0.6-0.8-1.8-7.7-1-7.9c1.9-0.2,5-0.5,6.9-0.8
			c1.1-0.2,2.4,0,3.4-0.8s0.6-3.2,0.5-4.5c-0.3-2.7-1.8-4.5-4.3-4.3c-2.9,0.2-8,0.6-10.9,1C122.8,39.6,120.8,39.5,119.4,40.3z"/>
		<path style="fill:#FFCF00;" d="M135.5,41.2c0.3,0,1.1,0,1.4,2.1c0.2,1,0.2,1.6,0.2,1.9c-0.2,0-0.5,0-0.6,0c-0.3,0-0.6,0-1,0.2
			c-3.1,0.5-5.3,0.6-6.8,0.8c-1.1,0-2.1,0.8-2.6,1.8c-0.8,1.9,0.2,8.8,1.6,10.5c1.1,1.3,2.6,1.9,4.5,1.9c1.1,0,2.1-0.2,3.2-0.5
			c0.8-0.2,1.6-0.3,2.1-0.3s0.5,0.2,0.5,0.2c0.5,0.5,0.8,1.6,0.6,2.9c0,0.6-0.3,1.1-0.5,1.3c-0.2,0.2-0.6,0.2-1.4,0.2
			c-0.3,0-0.6,0-1.1,0s-0.8,0-1.3,0c-0.3,0-0.6,0-1,0l-4.2,0.3l-4.7,0.3c-0.2,0-0.3,0-0.6,0l0,0c-0.2-0.2-0.5-0.5-0.8-1.9
			c-1-3.9-1.6-7.9-2.1-11.9c-0.2-2.1-0.3-4.2-0.5-6.3c0-0.3,0-0.5,0-0.8c0-0.2,0-0.6,0-1c0-0.2,0.2-0.2,0.3-0.2
			c0.6-0.3,1.6-0.3,2.6-0.5c0.3,0,0.8,0,1.1-0.2C127.7,41.7,133.7,41.2,135.5,41.2L135.5,41.2 M135.5,38.5c-0.2,0-0.3,0-0.3,0
			c-2.9,0.2-8,0.6-10.9,1c-1.4,0.2-3.4,0.2-4.7,0.8c-0.6,0.3-1.3,0.8-1.6,1.6c-0.3,0.6,0,2.1,0,2.9c0.2,2.1,0.3,4.3,0.5,6.4
			c0.5,4.2,1.1,8.2,2.3,12.2c0.3,1.6,1,3.4,2.4,3.9c0.3,0.2,0.6,0.2,1.1,0.2c0.3,0,0.5,0,0.8,0c2.9-0.3,5.9-0.5,8.8-0.8
			c0.2,0,0.5,0,0.8,0c0.8,0,1.4,0,2.3,0c1.1,0,2.1-0.2,2.9-0.6c2.4-1.6,2.1-6.3,0.3-8.2c-0.6-0.8-1.6-1-2.6-1
			c-1.6,0-3.5,0.8-5.3,0.8c-1,0-1.8-0.3-2.4-1c-0.6-0.8-1.8-7.7-1-7.9c1.9-0.2,5-0.5,6.9-0.8c1.1-0.2,2.4,0,3.4-0.8s0.6-3.2,0.5-4.5
			C139.2,40.3,137.9,38.5,135.5,38.5L135.5,38.5z"/>
	</g>
	<g>
		<path style="fill:#FFEA88;" d="M307.8,31.8c-2.1-2.4-5.3-2.7-8.2-3.1c-3.2-0.3-3.9-0.3-7.2-0.2c-0.5,0-0.8,0-1.1,0.2
			c-1.9-1.1-4.2-1.3-6.3-1.4c-2.3-0.2-4.7-0.8-6.8-0.2c-2.9,1-3.1,2.9-3.2,5.5c-0.2,1,0,1.9,0.5,2.6c1.4,1.9,8.4,1.1,8.2,4
			c0,1.9-0.2,3.9-0.2,5.8c0,1.3-0.3,2.7,0.2,4c0.3,0.6,0.6,0.6,1.3,1c0.5,0.2,1,0.5,1.4,0.6c1.1,0.5,2.3,0.3,3.5,0.3
			c2.4,0,2.7-1.9,3.1-4.7c0.3-2.6,0.5-5,1-7.4c2.6,0,4.7-0.3,4.7,1.9c0,1.9-0.2,3.9-0.2,5.8c0,1.3-0.3,2.7,0.2,4
			c0.3,0.6,0.6,0.6,1.3,1c0.5,0.2,1,0.5,1.4,0.6c1.1,0.5,2.3,0.3,3.5,0.3c2.4,0,2.7-1.9,3.1-4.7c0.5-3.1,0.6-6.1,1.1-9.2
			C308.9,36.4,309.4,33.7,307.8,31.8z"/>
		<path style="fill:#FFCF00;" d="M280.6,29.5c0.8,0,1.8,0.2,2.7,0.2c0.5,0,1,0.2,1.6,0.2c1.8,0.2,3.7,0.3,5.1,1.1
			c0.5,0.2,0.8,0.3,1.3,0.3c0.3,0,0.5,0,0.8-0.2c0,0,0.2,0,0.3,0c1.1,0,1.9,0,2.7,0c1.1,0,2.1,0,4.2,0.3h0.2
			c2.4,0.2,4.8,0.5,6.3,2.1c0.8,0.8,0.3,3.1,0.2,4.8c-0.3,1.9-0.5,3.9-0.8,5.8c-0.2,1.1-0.2,2.3-0.5,3.5c-0.2,0.6-0.2,1.8-0.3,2.3
			c-0.2,0-0.3,0-0.5,0h-0.2h-0.2c-0.6,0-1.1,0-1.4-0.2s-0.5-0.2-0.8-0.3c-0.2,0-0.3-0.2-0.5-0.2c0-0.3,0-0.8,0-1.3s0-0.8,0.2-1.1
			l0.2-3.5V41c0-1.6-0.6-2.7-1.1-3.2c-1.4-1.4-3.4-1.4-4.5-1.4H295h-0.6H294l0,0c-1.3,0-2.4,1-2.7,2.3c-0.2,1.3-0.3,2.7-0.5,4
			c-0.2,1.1-0.3,2.3-0.5,3.5c-0.2,0.6-0.2,1.8-0.3,2.3c-0.2,0-0.3,0-0.5,0h-0.2h-0.2c-0.6,0-1.1,0-1.4-0.2s-0.5-0.2-0.8-0.3
			c-0.2,0-0.3-0.2-0.5-0.2c0-0.3,0-0.8,0-1.3s0-0.8,0.2-1.1l0.2-5.8c0.2-3.9-4-4.7-6.4-5.3c-0.6-0.2-1.8-0.3-2.3-0.6
			c0-0.2,0-0.3,0-0.6v-0.3c0.2-2.6,0.3-2.6,1.3-2.9C279.5,29.7,280,29.5,280.6,29.5L280.6,29.5 M280.6,26.9c-0.8,0-1.6,0.2-2.4,0.3
			c-2.9,1-3.1,2.9-3.2,5.5c-0.2,1,0,1.9,0.5,2.6c1.4,1.9,8.4,1.1,8.2,4c0,1.9-0.2,3.9-0.2,5.8c0,1.3-0.3,2.7,0.2,4
			c0.3,0.6,0.6,0.6,1.3,1c0.5,0.2,1,0.5,1.4,0.6C287.2,51,288,51,289,51c0.2,0,0.2,0,0.3,0c0.2,0,0.3,0,0.6,0c0,0,0,0,0.2,0
			c2.3,0,2.6-2.1,2.9-4.7c0.3-2.6,0.5-5,1-7.4c0.2,0,0.2,0,0.3,0c0.5,0,1,0,1.3,0c1.8,0,3.1,0.2,3.1,1.9c0,1.9-0.2,3.9-0.2,5.8
			c0,1.3-0.3,2.7,0.2,4c0.3,0.6,0.6,0.6,1.3,1c0.5,0.2,1,0.5,1.4,0.6c0.8,0.3,1.6,0.3,2.6,0.3c0.2,0,0.2,0,0.3,0c0.2,0,0.3,0,0.6,0
			c0,0,0,0,0.2,0c2.3,0,2.6-2.1,2.9-4.7c0.5-3.1,0.6-6.1,1.1-9.2c0.5-2.3,0.8-5.1-0.6-6.9c-2.1-2.4-5.3-2.7-8.2-3.1
			c-2.1-0.2-3.1-0.3-4.5-0.3c-0.8,0-1.6,0-2.7,0c-0.5,0-0.8,0-1.1,0.2c-1.9-1.1-4.2-1.3-6.3-1.4C283.7,27.1,282.1,26.9,280.6,26.9
			L280.6,26.9z"/>
	</g>
</g>
<g>
	<g>
		<path style="fill:#FFE78D;" d="M333.9,39.3c-1.9-0.3-4.7-1.3-6.3,0c-4.5,3.5-4.3,15.4-5,19.9c-0.3,3.1-1.6,6.4-1.1,9.2
			c0.3,1.8,1.4,3.1,3.9,4c5.3,1.8,8.4-1.4,9.3-6.4c1.3-6.8,3.4-13.5,5-20.4C340.8,40,339.3,40.3,333.9,39.3z"/>
		<path style="fill:#FFCB00;" d="M329.8,41.4c0.6,0,1.4,0.2,2.3,0.3c0.5,0.2,1,0.2,1.3,0.3l1.3,0.2c1,0.2,2.1,0.3,2.6,0.5
			c0,0.3,0,1-0.3,2.4c-0.6,3.1-1.4,5.9-2.3,9c-1,3.7-1.9,7.6-2.7,11.4c-0.3,2.1-1.4,4.7-3.9,4.7c-0.6,0-1.3-0.2-1.9-0.3
			c-1.6-0.6-1.9-1.3-2.1-1.9c-0.3-1.3,0.2-3.2,0.5-5c0.2-1.1,0.5-2.1,0.6-3.2c0.2-1,0.2-2.1,0.3-3.5c0.3-4.3,1-12.5,3.5-14.6
			C329.4,41.4,329.5,41.4,329.8,41.4 M329.8,38.7c-0.8,0-1.6,0.2-2.3,0.6c-4.5,3.5-4.3,15.4-5,19.9c-0.3,3.1-1.6,6.4-1.1,9.2
			c0.3,1.8,1.4,3.1,3.9,4c1,0.3,1.9,0.5,2.9,0.5c3.5,0,5.6-2.9,6.4-6.9c1.3-6.8,3.4-13.5,5-20.4c1.3-5.6-0.2-5.3-5.6-6.3
			C332.6,39.2,331.1,38.7,329.8,38.7L329.8,38.7z"/>
	</g>
	<g>
		<path style="fill:#FFE78D;" d="M332.1,77.6c-0.5-1.1-1.4-1.4-2.3-1.8c-1.6-0.6-5.8-1.4-7.2-0.5c-1.3,0.8-1.9,7.1-0.8,8.4
			c0.6,0.6,6.9,1.4,8,0.8C332.2,83.4,331.4,79.8,332.1,77.6z"/>
		<path style="fill:#FFCB00;" d="M324.5,77.1L324.5,77.1L324.5,77.1 M324.9,77.6c1.4,0,3.2,0.5,4,0.6h0.2c0,0,0.2,0,0.2,0.2
			c0,0.5-0.2,0.8-0.2,1.3c0,0.8-0.2,1.9-0.5,2.4c-0.2,0-0.3,0-0.5,0c-1.4,0-3.2-0.2-4.3-0.5c0-1.1,0.2-3.1,0.5-4.2
			C324.5,77.6,324.7,77.6,324.9,77.6 M324.9,74.8c-1,0-1.8,0.2-2.3,0.5c-1.3,0.8-1.9,7.1-0.8,8.4c0.5,0.5,4.2,1.1,6.4,1.1
			c0.8,0,1.3,0,1.6-0.2c2.4-1.3,1.8-4.8,2.4-7.1c-0.5-1.1-1.4-1.4-2.3-1.8C328.9,75.3,326.6,74.8,324.9,74.8L324.9,74.8z"/>
	</g>
</g>
<g>
	<g>
		<g>
			<path style="fill:#008C2E;" d="M347.5,366.3c6.9-0.5,13.2-5,15.4-12.1c2.6-7.9-1-16.4-8-20.3c7.2,0,14-4.7,16.4-12.1
				c2.9-9-2.1-18.8-11.3-21.7l-101.1-32.2c-0.2,0-0.3,0-0.5,0l-8.5,4.3l-4.3-8.5c-0.2-0.2-0.3-0.3-0.6-0.3c-0.2,0-0.5,0.2-0.5,0.5
				l-25.7,80.7c0,0.2,0,0.3,0,0.5l4.7,9c0,0.2,0.2,0.3,0.3,0.3c0.2,0,0.3,0,0.5,0l8.8-4.5l108.2,34.4c5,1.6,10.5-1.1,12.1-6.3
				C355.1,373.3,352.3,368.1,347.5,366.3z M351.4,333.7c8.5,2.7,13.2,11.7,10.5,20.3c-2.7,8.5-11.7,13.2-20.3,10.5l-87.5-27.8l0,0
				l-0.6-0.2c-0.2,0-0.3,0-0.5,0l-8,4.2l-4-7.9l9.5-29.6l3.5,6.9c0.2,0.3,0.5,0.3,0.6,0.3c0.2,0.2,0.5,0.3,0.8,0.2l8.7-4.5
				l85.5,27.2c0,0,0,0,0.2,0L351.4,333.7z M341.9,383.2l-108.5-34.6c-0.2,0-0.3,0-0.5,0l-8.5,4.3l-4.2-8.2l25.2-79.1l4,7.7
				c0.2,0.3,0.5,0.5,0.8,0.3l8.8-4.5l100.8,32.2c8.5,2.7,13.2,11.7,10.5,20.3c-2.7,8.4-11.7,13-20.1,10.5l-85.9-27.3l0,0l-0.6-0.2
				c-0.2,0-0.3,0-0.5,0l-8,4.2l-4.2-8c-0.2-0.2-0.3-0.3-0.6-0.3c0,0,0,0-0.2,0c-0.2-0.2-0.3-0.3-0.5-0.2c-0.2,0-0.5,0.2-0.5,0.5
				l-10.1,31.8c0,0.2,0,0.3,0,0.5l4.7,9c0.2,0.3,0.5,0.3,0.6,0.3c0,0.2,0.2,0.2,0.3,0.2c0.2,0,0.3,0,0.5,0l8.7-4.5l92.9,29.6
				c4.3,1.4,6.8,6.1,5.5,10.5S346.2,384.7,341.9,383.2z"/>
			<path d="M344.1,385.8c-1.1,0-2.1-0.2-3.2-0.5L233,350.9l-8.7,4.5h-0.6c-0.5,0-1-0.3-1.1-0.8l-4.7-9v-1l25.7-80.6
				c0-0.6,0.6-1.1,1.3-1.1c0.6,0,1,0.3,1.3,0.5l0.2,0.2l4,7.9l8-4h1l101.1,32.2c4.7,1.4,8.4,4.7,10.6,9c2.3,4.3,2.6,9.2,1.1,13.8
				c-2.3,6.8-7.9,11.6-14.6,12.4c6.1,4.5,8.7,12.5,6.3,19.9c-1.9,6.3-7.2,10.9-13.5,12.2c3.9,2.6,5.5,7.2,3.9,11.7
				c-0.8,2.6-2.6,4.8-5.1,6.1C347.5,385.3,345.8,385.8,344.1,385.8z M232.7,347.9h1l108.5,34.6c1.9,0.6,4.2,0.5,5.9-0.5
				c1.8-1,2.9-2.4,3.5-4.2c1.1-3.9-1.1-8.2-5-9.5l-92.8-29.4l-8.5,4.5h-0.6c-0.3,0-0.6-0.2-0.8-0.2c-0.5-0.2-0.8-0.5-1-0.6l-4.8-9.2
				v-1l10.1-31.7c0-0.6,0.5-1,1-1.1c0.3-0.2,0.6-0.2,1,0c0.2,0,0.2,0.2,0.2,0.2c0.6,0.2,0.8,0.3,1,0.5l0.2,0.2l3.9,7.4l7.6-3.9h0.8
				l0.6,0.2l85.9,27.3c7.9,2.4,16.6-2.1,19.1-10c2.6-8-1.9-16.7-10-19.3l-100.5-32l-8.5,4.3c-0.6,0.3-1.4,0-1.9-0.6l-3.1-5.9
				l-24.6,77l3.7,7.2L232.7,347.9z M343.7,365.7h0.2h0.2C343.8,365.7,343.7,365.7,343.7,365.7z M252.8,335.6h0.8l0.6,0.2l87.5,27.8
				c3.9,1.3,8,1,11.7-1c3.7-1.9,6.3-5,7.6-9c1.3-3.9,1-8-1-11.7c-1.9-3.5-5-6.3-9-7.6l-1.8-0.5l-85.2-27l-8.4,4.3
				c-0.5,0.3-1.1,0.2-1.4-0.2c-0.6-0.2-1-0.5-1.1-0.8l-2.6-5.1l-8.8,27.3l3.5,6.9L252.8,335.6z M244.5,341.7L244.5,341.7
				L244.5,341.7z M244.8,341.6h0.3v0.2l8.4-4.3H253L244.8,341.6z M244.5,341.6L244.5,341.6l-4.3-8.8l10.1-31.5l0,0l-0.2-0.2
				l-10,31.7L244.5,341.6z M255.1,309.7L255.1,309.7l8.5-4.3h-0.2L255.1,309.7z M254.6,309.7L254.6,309.7L254.6,309.7z M254.6,309.6
				L254.6,309.6l-4.2-8.2L254.6,309.6z"/>
		</g>
		<g>
			<path d="M245.3,263.8c0.2,0,0.5,0.2,0.5,0.3l4.3,8.5l8.5-4.3c0.2,0,0.2,0,0.3,0h0.2l101.1,32.2c9,2.9,14.1,12.7,11.3,21.7
				c-2.3,7.2-9.2,12.1-16.4,12.1c7.1,3.9,10.6,12.4,8,20.3c-2.3,7.1-8.5,11.6-15.4,12.1c4.8,1.8,7.4,6.9,5.9,11.9
				c-1.3,4-5,6.6-9.2,6.6c-1,0-1.9-0.2-2.9-0.5l-108.2-34.4l-8.8,4.5c-0.2,0-0.2,0-0.3,0H224c-0.2,0-0.3-0.2-0.3-0.3l-4.7-9
				c0-0.2-0.2-0.3,0-0.5l25.7-80.7C244.8,263.9,244.9,263.8,245.3,263.8L245.3,263.8 M224.5,353.2l8.5-4.3c0.2,0,0.2,0,0.3,0h0.2
				L342,383.5c0.8,0.3,1.8,0.3,2.6,0.3c3.5,0,6.8-2.3,7.9-5.8c1.4-4.3-1-9.2-5.5-10.5l-92.9-29.6l-8.7,4.5c-0.2,0-0.2,0-0.3,0h-0.2
				c-0.2,0-0.2-0.2-0.3-0.2h-0.2c-0.2,0-0.5-0.2-0.5-0.3l-4.7-9c0-0.2-0.2-0.3,0-0.5l10.1-31.8c0-0.2,0.3-0.3,0.5-0.5l0,0
				c0.2,0,0.3,0.2,0.5,0.3c0,0,0,0,0.2,0l0,0c0.2,0,0.5,0.2,0.5,0.3l4.2,8l8-4.2c0.2,0,0.2,0,0.3,0h0.2l0.6,0.2l0,0l85.9,27.3
				c1.6,0.5,3.2,0.8,4.8,0.8c6.8,0,13.2-4.3,15.3-11.3c2.7-8.5-1.9-17.5-10.5-20.3L259,269l-8.8,4.5c-0.2,0-0.2,0-0.3,0
				c-0.2,0-0.5-0.2-0.5-0.3l-4-7.7L220.2,345L224.5,353.2 M245.1,340.6l8-4.2c0.2,0,0.2,0,0.3,0h0.2l0.6,0.2l0,0l87.5,27.8
				c1.6,0.5,3.2,0.8,4.8,0.8c6.8,0,13.2-4.3,15.3-11.3c2.7-8.5-1.9-17.5-10.5-20.3l-1.6-0.5c0,0,0,0-0.2,0L264,305.9l-8.7,4.5
				c-0.2,0-0.2,0-0.3,0c-0.2,0-0.3-0.2-0.5-0.2h-0.2c-0.2,0-0.5-0.2-0.5-0.3l-3.5-6.9l-9.5,29.6L245.1,340.6 M245.3,259.9
				c-0.2,0-0.3,0-0.3,0c-1.8,0.2-3.4,1.4-3.9,3.1l-25.7,80.7c-0.3,1.1-0.3,2.4,0.3,3.4l4.7,9c0.5,1.1,1.4,1.8,2.6,2.3
				c0.5,0.2,1,0.2,1.3,0.2c0.6,0,1.4-0.2,2.1-0.5l7.4-3.9L340.4,388c1.3,0.5,2.7,0.6,4,0.6c5.8,0,10.9-3.7,12.7-9.3
				c1.3-4,0.6-8-1.4-11.3c5.1-2.4,9.2-7.1,10.9-12.5c2.1-6.8,0.6-14-3.4-19.3c5.5-2.4,9.8-7.1,11.7-13c1.8-5.3,1.3-11.1-1.4-16.1
				c-2.6-5-6.9-8.7-12.4-10.5L260,264.4c-0.5-0.2-1-0.2-1.3-0.2c-0.6,0-1.4,0.2-2.1,0.5l-5,2.6l-2.6-5
				C248.5,260.7,246.9,259.9,245.3,259.9L245.3,259.9z M249.9,277.8c0.6,0,1.4-0.2,2.1-0.5l7.4-3.9l99.4,31.7c3.1,1,5.6,3.1,7.1,6.1
				c1.4,2.9,1.8,6.3,0.8,9.3c-1.6,5.1-6.3,8.5-11.6,8.5c-1.3,0-2.4-0.2-3.7-0.5l-85.9-27.3h-0.2l-0.5-0.2c-0.5-0.2-1-0.2-1.3-0.2
				c-0.6,0-1.4,0.2-2.1,0.5l-4.7,2.4l-2.4-4.7c-0.6-1.1-1.8-2.1-3.1-2.3c-0.5-0.2-1-0.3-1.6-0.3c-0.2,0-0.2,0-0.3,0
				c-1.8,0.2-3.4,1.3-3.9,3.1l-10.1,31.8c-0.3,1.1-0.3,2.4,0.3,3.4l4.7,9c0.6,1.1,1.6,1.9,2.9,2.3c0.2,0,0.2,0,0.3,0.2
				c0.5,0.2,1,0.2,1.3,0.2c0.6,0,1.4-0.2,2.1-0.5l7.4-3.9l91.3,29.1c2.4,0.8,3.7,3.2,2.9,5.6c-0.6,1.9-2.3,3.1-4.3,3.1
				c-0.5,0-1,0-1.3-0.2L234.4,345c-0.5-0.2-1-0.2-1.3-0.2c-0.6,0-1.4,0.2-2.1,0.5l-5,2.6l-1.8-3.4l21.9-68.7
				C247,277.1,248.5,277.8,249.9,277.8L249.9,277.8z M255.1,314.4c0.6,0,1.4-0.2,2.1-0.5l7.4-3.9l83.9,26.7h0.2l1.6,0.5
				c3.1,1,5.6,3.1,7.1,6.1c1.4,2.9,1.8,6.3,0.8,9.3c-1.6,5.1-6.3,8.5-11.7,8.5c-1.3,0-2.6-0.2-3.7-0.6l-87.5-27.8h-0.2l-0.5-0.2
				c-0.5-0.2-1-0.2-1.3-0.2c-0.6,0-1.4,0.2-2.1,0.5l-4.7,2.4l-1.6-2.9l6.1-19.5c0.6,0.6,1.3,1,2.1,1.1
				C253.9,314.4,254.6,314.4,255.1,314.4L255.1,314.4z"/>
			<path d="M344.5,389.5c-1.1,0-2.7-0.2-4.3-0.6l-106.4-33.8l-7.1,3.7c-0.6,0.3-1.6,0.6-2.4,0.6c-0.3,0-1,0-1.6-0.2
				c-1-0.5-2.4-1.1-3.1-2.7l-4.7-9c-0.6-1-0.8-2.4-0.3-4l25.7-80.7c0.6-1.9,2.4-3.4,4.5-3.5h0.3c2.1,0,3.9,1.1,4.7,3.1l2.1,4.2
				l4.3-2.3c0.6-0.3,1.6-0.6,2.4-0.6c0.3,0,1,0,1.6,0.2l101.1,32.2c5.6,1.8,10.1,5.6,12.9,10.8c2.7,5.1,3.4,11.3,1.4,16.7
				c-1.9,5.8-5.9,10.5-11.3,13c3.9,5.6,5,12.7,2.9,19.3c-1.8,5.5-5.6,10.1-10.6,12.7c1.9,3.4,2.3,7.4,1.1,11.1
				C356,385.5,350.7,389.5,344.5,389.5z M233.7,353.3l0.3,0.2l106.8,33.8c1.3,0.5,2.7,0.6,3.7,0.6c5.5,0,10.3-3.5,11.9-8.8
				c1.1-3.7,0.6-7.4-1.3-10.6l-0.5-0.8l0.8-0.3c4.8-2.3,8.8-6.8,10.5-12.1c1.9-6.3,0.8-13.3-3.2-18.5L362,336l1-0.5
				c5.3-2.4,9.5-6.9,11.3-12.5c1.8-5.1,1.3-10.6-1.4-15.4c-2.4-4.8-6.8-8.4-11.9-10.1l-101.1-32.2c-0.3-0.2-0.8-0.2-1-0.2
				c-0.6,0-1.3,0.2-1.8,0.3l-5.6,2.9l-2.9-5.6c-0.5-1.4-1.6-2.1-3.2-2.1h-0.3c-1.4,0.2-2.7,1.1-3.1,2.4l-25.7,80.7
				c-0.3,1-0.2,2.1,0.2,2.7l4.7,9c0.3,0.8,1,1.4,2.3,1.9c0.3,0.2,0.6,0.2,1,0.2c0.6,0,1.3-0.2,1.8-0.3L233.7,353.3z M344.5,385.8
				c-1.1,0-2.1-0.2-3.2-0.5l-107.9-34.2l-8.7,4.5h-0.5c-0.6,0-1.1-0.3-1.3-0.8l-4.7-9v-0.2c-0.2-0.3-0.2-0.6,0-0.8l25.7-80.6
				c0.2-0.5,0.5-1,1.3-1c0.5,0,1.1,0.3,1.3,0.8l3.9,7.7l8-4h1l101.1,32.2c4.5,1.4,8.4,4.7,10.6,9c2.3,4.3,2.7,9.2,1.3,13.8
				c-2.1,6.6-7.9,11.4-14.6,12.4c6.1,4.5,8.7,12.5,6.3,19.9c-1.9,6.3-7.2,10.9-13.5,12.2c3.7,2.6,5.5,7.1,4.2,11.7
				C353,382.9,349,385.8,344.5,385.8z M232.9,348h1l108.5,34.6c0.6,0.3,1.6,0.3,2.3,0.3c3.2,0,6.1-2.1,7.1-5.3
				c0.6-1.9,0.5-4-0.5-5.8s-2.6-3.1-4.5-3.5l-92.6-29.4l-8.5,4.5h-0.5c-0.3,0-0.5,0-0.6-0.2c-0.5,0-1-0.3-1.1-0.8l-4.7-9v-0.2
				c-0.2-0.3,0-0.6,0-0.8l10.1-31.7c0-0.3,0.3-0.6,0.6-0.8l0.2-0.2l0.5-0.2c0.3,0,0.6,0.2,0.8,0.3c0.5,0,1,0.3,1.1,0.8l3.7,7.2
				l7.6-3.9h0.8l0.6,0.2l85.9,27.3c1.8,0.5,3.2,0.8,4.5,0.8c6.6,0,12.5-4.3,14.5-10.6c2.6-8-1.9-16.7-10-19.3l-100.5-32l-8.7,4.5
				H250c-0.5,0-1.1-0.3-1.3-0.8l-3.1-5.9L221,345.4l3.9,7.2L232.9,348z M253,335.6h0.8l0.6,0.2l87.5,27.8c1.8,0.5,3.2,0.8,4.5,0.8
				c6.6,0,12.5-4.3,14.5-10.6c1.3-3.9,1-8-1-11.7c-1.9-3.7-5-6.3-9-7.6l-1.8-0.5l-85.2-27l-8.5,4.5h-0.5c-0.3,0-0.5-0.2-0.6-0.2l0,0
				c-0.5,0-1.1-0.3-1.3-0.8l-2.6-5.1l-8.8,27.3l3.7,6.9L253,335.6z M245.1,341.6L245.1,341.6l8.4-4.3h-0.2L245.1,341.6L245.1,341.6z
				 M240.1,332.6L240.1,332.6l10.1-31.4H250L240.1,332.6L240.1,332.6z M255.2,309.7L255.2,309.7l8.4-4.3h-0.2L255.2,309.7
				L255.2,309.7z M254.6,309.6C254.6,309.6,254.8,309.6,254.6,309.6l-4.3-8.4L254.6,309.6z M344.3,380.7c-0.6,0-1.1,0-1.6-0.3
				l-108.4-34.6c-0.3-0.2-0.8-0.2-1-0.2c-0.6,0-1.3,0.2-1.8,0.3l-5.6,2.9l-2.3-4.3l0.2-0.3l22.3-70.3l1,1.3c0.6,0.8,1.8,1.4,3.1,1.4
				c0.6,0,1.3-0.2,1.8-0.3l7.7-4l99.7,31.8c3.4,1.1,6.1,3.4,7.6,6.6c1.6,3.1,1.9,6.8,0.8,10c-1.8,5.5-6.6,9-12.4,9
				c-1.3,0-2.6-0.2-3.9-0.5l-85.9-27.3h-0.3l-0.5-0.2c-0.3-0.2-0.8-0.2-1-0.2c-0.6,0-1.3,0.2-1.8,0.3l-5.3,2.7l-2.7-5.3
				c-0.6-1-1.4-1.8-2.4-1.8h-0.2c-0.5-0.2-0.8-0.3-1.3-0.3h-0.3c-1.4,0.2-2.7,1.1-3.1,2.4l-10.1,31.8c-0.3,1-0.2,2.1,0.2,2.7l4.7,9
				c0.5,1,1.3,1.6,2.3,1.8c0.3,0,0.5,0.2,0.6,0.3c0.3,0,0.6,0,0.8,0c0.6,0,1.3-0.2,1.8-0.3l7.7-4l0.3,0.2l91.3,29.1
				c2.9,1,4.3,3.9,3.4,6.6C348.6,379.4,346.7,380.7,344.3,380.7z M233.2,344.2c0.3,0,1,0,1.6,0.2L343.3,379c0.3,0.2,0.8,0.2,1,0.2
				c1.8,0,3.1-1,3.5-2.6c0.6-1.9-0.3-4-2.4-4.7l-91-28.9l-7.1,3.7c-0.6,0.3-1.6,0.6-2.4,0.6c-0.3,0-1,0-1.6-0.2l-0.3-0.2
				c-1.4-0.3-2.6-1.3-3.4-2.6l-4.7-9c-0.6-1-0.8-2.4-0.3-4l10.1-31.8c0.5-1.9,2.3-3.4,4.5-3.5h0.3c0.8,0,1.3,0.2,1.8,0.3
				c1.3,0.2,2.7,1.1,3.5,2.6l2.1,4l4-2.1c0.6-0.3,1.6-0.6,2.4-0.6c0.3,0,1,0,1.6,0.2l0.6,0.2l85.9,27.3c1.3,0.3,2.3,0.5,3.4,0.5
				c5,0,9.3-3.2,10.8-7.9c1-2.7,0.6-5.9-0.8-8.7c-1.3-2.7-3.7-4.8-6.6-5.6l-99-31.5l-6.9,3.4c-0.6,0.3-1.6,0.6-2.4,0.6
				c-1.3,0-2.4-0.3-3.4-1.1l-21.4,67l1.3,2.4l4.3-2.3C231.4,344.3,232.4,344.2,233.2,344.2z M346.4,362c-1.6,0-2.9-0.2-4-0.6
				l-87.3-27.8h-0.3l-0.5-0.2c-0.3-0.2-0.8-0.2-1-0.2c-0.6,0-1.3,0.2-1.8,0.3l-5.3,2.7l-2.1-3.9l6.6-21.1l1,1c0.5,0.5,1,0.8,1.6,1
				c0.8,0.3,1.3,0.3,1.8,0.3c0.6,0,1.3-0.2,1.8-0.3l7.7-4l0.3,0.2l83.8,26.7h0.2l1.6,0.5c3.4,1.1,6.1,3.4,7.6,6.6
				c1.6,3.1,1.9,6.8,0.8,10C357.2,358.3,352.2,362,346.4,362z M255.2,331.9h0.3l87.5,27.8c1,0.5,2.1,0.6,3.4,0.6
				c5.1,0,9.5-3.1,10.9-7.9c1-2.7,0.6-5.9-0.8-8.7c-1.3-2.7-3.7-4.8-6.6-5.6l-1.8-0.5l-83.6-26.5l-7.1,3.7c-0.8,0.3-1.6,0.6-2.4,0.6
				c-0.5,0-1.3,0-2.3-0.3c-0.5-0.2-1-0.3-1.4-0.5l-5.6,18l1.1,1.9l4-2.1c0.6-0.3,1.6-0.6,2.4-0.6c0.3,0,1,0,1.6,0.2L255.2,331.9z"/>
		</g>
	</g>
	<g>
		<path style="fill:#0094C2;" d="M245.3,264.2l4.7,9l9-4.7l101.1,32.2c8.8,2.7,13.7,12.2,10.8,20.9c-2.7,8.8-12.2,13.7-20.9,10.8
			l-86.5-27.2l-9,4.7l-4.7-9l-10.1,31.8l4.7,9l9-4.7l93.6,30c4.7,1.4,7.2,6.6,5.8,11.3c-1.4,4.7-6.6,7.2-11.3,5.8L233,349.5l-9,4.7
			l-4.7-9L245.3,264.2z"/>
	</g>
	<path style="fill:none;" d="M245.3,264.2l4.7,9l9-4.7l101.1,32.2c8.8,2.7,13.7,12.2,10.8,20.9c-2.9,8.7-12.2,13.7-20.9,10.8
		l-86.5-27.2l-9,4.7l-4.7-9l-10.1,31.8l4.7,9l9-4.7l93.6,30c4.7,1.4,7.2,6.6,5.8,11.3c-1.4,4.7-6.6,7.2-11.3,5.8L233,349.5l-9,4.7
		l-4.7-9L245.3,264.2z"/>
	<g>
		<path style="fill:#007299;" d="M344.3,385.6c-1,0-2.1-0.2-3.1-0.5l-108-34.4l-8.5,4.3c-0.3,0.2-0.6,0.2-1,0.2
			c-0.3-0.2-0.6-0.3-0.8-0.6l-4.7-9c-0.2-0.3-0.2-0.6-0.2-1l25.7-80.7c0.2-0.5,0.6-0.8,1.1-1c0.5,0,1,0.2,1.3,0.6l4,7.9l7.9-4
			c0.3-0.2,0.6-0.2,1-0.2l101.1,32.2c4.5,1.4,8.4,4.7,10.5,8.8c2.3,4.3,2.6,9.2,1.1,13.7c-1.4,4.5-4.7,8.4-8.8,10.5
			c-4.3,2.3-9.2,2.6-13.7,1.1l-85.9-27.3l-8.5,4.3c-0.3,0.2-0.6,0.2-1,0.2c-0.3-0.2-0.6-0.3-0.8-0.6l-3.2-6.3l-8.8,28.8l3.9,7.4
			l7.9-4c0.3-0.2,0.6-0.2,1-0.2l93.7,29.9c5.3,1.8,8.4,7.6,6.6,12.9C352.7,382.7,348.6,385.6,344.3,385.6z M233.2,348
			c0.2,0,0.3,0,0.3,0L342,382.6c4,1.3,8.4-1,9.6-5s-1-8.4-5-9.6l-93.3-29.7l-8.5,4.3c-0.6,0.3-1.4,0.2-1.8-0.5l-4.7-9
			c-0.2-0.3-0.2-0.6-0.2-1l10.1-31.8c0.2-0.5,0.6-0.8,1.1-1c0.5,0,1,0.2,1.3,0.6l4,7.9l7.9-4c0.3-0.2,0.6-0.2,1-0.2l86.3,27.5
			c3.9,1.3,8,1,11.7-1c3.7-1.9,6.4-5.1,7.6-9c1.3-3.9,1-8-1-11.7c-1.9-3.7-5.1-6.4-9-7.6l-100.6-32l-8.5,4.3
			c-0.6,0.3-1.4,0.2-1.8-0.5l-3.2-6.3l-24.6,77.2l3.9,7.4l7.9-4C232.7,348,233,348,233.2,348z"/>
	</g>
	<circle style="fill-rule:evenodd;clip-rule:evenodd;fill:#007299;" cx="354.9" cy="316.8" r="13.2"/>
	<path style="fill-rule:evenodd;clip-rule:evenodd;fill:#1BB7E5;" d="M357,309.9c1.3,0.3,1.9,1.8,1.6,3.1c-0.2,0.5-0.5,1-0.8,1.3
		l1.3,4.8h0.2c1.3,0.3,1.9,1.8,1.6,3.1c-0.3,1.3-1.8,1.9-3.1,1.6c-1.3-0.3-1.9-1.8-1.6-3.1c0.2-0.6,0.8-1.3,1.4-1.4l-1.1-4.3
		c-0.3,0-0.6,0-0.8-0.2c-0.3-0.2-0.5-0.2-0.8-0.3l-3.5,2.9c0.3,0.6,0.5,1.3,0.3,2.1c-0.3,1.3-1.8,1.9-3.1,1.6
		c-1.3-0.3-1.9-1.8-1.6-3.1c0.3-1.3,1.8-1.9,3.1-1.6h0.2l3.7-3.2c-0.2-0.5-0.2-1,0-1.4C354.4,310.2,355.9,309.6,357,309.9z"/>
	<g>
		<path style="fill:#FF2053;" d="M351.5,333.2c8.8,2.7,13.7,12.2,10.8,20.9c-2.7,8.8-12.2,13.7-20.9,10.8l-87.5-27.7l-9,4.7l-4.7-9
			l10.1-31.8l4.7,9l9-4.7L351.5,333.2z"/>
	</g>
	<g>
		<path style="fill:#B3183B;" d="M346.6,367.1c-1.8,0-3.7-0.3-5.5-0.8l-87-27.7l-8.5,4.3c-0.6,0.3-1.4,0.2-1.8-0.5l-4.7-9
			c-0.2-0.3-0.2-0.6-0.2-1l10.1-31.8c0.2-0.5,0.6-0.8,1.1-1c0.5,0,1,0.2,1.3,0.6l4,7.9l7.9-4c0.3-0.2,0.6-0.2,1-0.2l87.5,27.8l0,0
			c9.5,3.1,14.6,13.2,11.7,22.5C361.2,362.2,354.1,367.1,346.6,367.1z M253.9,336c0.2,0,0.3,0,0.3,0l87.5,27.8
			c8,2.6,16.7-1.9,19.3-10c2.6-8-1.9-16.7-10-19.3l-87-27.7l-8.5,4.3c-0.6,0.3-1.4,0.2-1.8-0.5l-3.2-6.3l-9,28.3l3.9,7.4l7.9-4
			C253.6,336,253.8,336,253.9,336z"/>
	</g>
	<circle style="fill-rule:evenodd;clip-rule:evenodd;fill:#BB002E;" cx="346.6" cy="349.1" r="13.2"/>
	<path style="fill-rule:evenodd;clip-rule:evenodd;fill:#E83D62;" d="M352.7,343.8l2.4,4.8l-4.8,2.4l-2.4-4.8L352.7,343.8z
		 M344.6,341.2l2.6,2.7l-1.1,3.5l-3.7,0.8l-2.6-2.7l1.1-3.5L344.6,341.2z M346.7,348.9c1.8,0.6,2.7,2.4,2.3,4.2
		c-0.6,1.8-2.4,2.7-4.2,2.3c-1.8-0.6-2.7-2.4-2.3-4.2C343,349.4,345,348.5,346.7,348.9z"/>
</g>
<g>
	<path style="fill:#0085CE;" d="M65.2,167c-4.8,0-9.8,1.3-13.7,4.3c-3.4,2.9-5.5,7.1-7.2,11.3c-1.1,2.9-2.1,5.8-2.1,8.8
		s1.3,6.3,3.7,8c2.3,1.6,5.3,1.8,8,1.6c6.8-0.5,13.2-3.2,19.1-6.4c3.9-2.1,7.7-4.7,10.1-8.5C91.7,172.8,75.5,167.1,65.2,167z"/>
	<path d="M64.9,167c0.2,0,0.2,0,0.3,0c10.3,0.2,26.5,5.8,18.2,19.1c-2.4,3.7-6.3,6.3-10.1,8.5c-5.9,3.2-12.4,5.9-19.1,6.4
		c-0.6,0-1.1,0-1.8,0c-2.3,0-4.5-0.3-6.3-1.6c-2.6-1.8-3.7-5-3.7-8c0-3.1,1-5.9,2.1-8.8c1.6-4.2,3.7-8.4,7.2-11.3
		C55.2,168.3,60.2,167,64.9,167 M64.9,163c-6.1,0-11.9,1.9-15.9,5.3c-4.3,3.5-6.6,8.5-8.4,12.9c-1.3,3.2-2.4,6.6-2.4,10.3
		c0,4.7,2.1,8.8,5.5,11.3c2.3,1.6,5.1,2.4,8.5,2.4c0.6,0,1.4,0,2.1-0.2c6.6-0.5,13.2-2.7,20.7-6.9c4-2.3,8.7-5.1,11.6-9.8
		c4.3-6.8,3.2-11.9,1.4-15C83.7,165.3,71.4,163,64.9,163L64.9,163L64.9,163z"/>
</g>
<g>
	<path style="fill:#0085CE;" d="M328.6,264.2c-3.5-3.2-8.2-5.6-13-5.8c-4.5-0.2-8.8,1.6-12.9,3.5c-2.7,1.3-5.5,2.9-7.4,5.1
		s-3.2,5.5-2.6,8.4c0.6,2.7,2.7,4.8,5,6.6c5.5,4.2,12.1,6.4,18.7,8c4.3,1,9,1.6,13.2,0.5C344.6,286.3,336.3,271.2,328.6,264.2z"/>
	<path d="M315,258.5c0.2,0,0.3,0,0.5,0c4.8,0.2,9.5,2.6,13,5.8c7.7,6.9,15.9,22,0.8,26.4c-1.6,0.5-3.4,0.6-5,0.6
		c-2.7,0-5.5-0.5-8.2-1.1c-6.6-1.4-13.2-3.9-18.7-8c-2.3-1.6-4.3-3.9-5-6.6c-0.6-2.9,0.5-6.1,2.6-8.4s4.7-3.9,7.4-5.1
		C306.5,260.1,310.7,258.5,315,258.5 M315,254.4c-5.3,0-10.1,2.1-14.1,4c-3.1,1.4-6.3,3.2-8.7,6.1c-3.1,3.5-4.3,8-3.5,12.1
		c0.8,3.2,2.9,6.1,6.4,8.8c5.1,4,11.6,6.8,20.1,8.7c2.4,0.6,5.8,1.3,9.2,1.3c2.3,0,4.2-0.3,6.1-0.8c7.7-2.3,10.3-6.8,11.1-10.1
		c2.1-8.8-5.5-18.7-10.3-23c-4.7-4.2-10.3-6.6-15.6-6.9C315.4,254.4,315.2,254.4,315,254.4L315,254.4z"/>
</g>
</svg>
