<?xml version="1.0" encoding="utf-8"?>
<!-- Generator: Adobe Illustrator 24.1.1, SVG Export Plug-In . SVG Version: 6.00 Build 0)  -->
<svg version="1.1" id="Layer_1" xmlns="http://www.w3.org/2000/svg" xmlns:xlink="http://www.w3.org/1999/xlink" x="0px" y="0px"
	 viewBox="0 0 150 240" style="enable-background:new 0 0 150 240;" xml:space="preserve">
<g>
	<path style="fill:#FFFFFF;" d="M83.77,85.49c-1.08,1.04-2.46,1.55-3.84,1.55c-1.47,0-2.93-0.58-4.03-1.73c0,0-0.01-0.01-0.01-0.01
		c-0.62-0.65-2.35-2.09-2.35-2.12c-1.63-1.26-3.55-2.29-5.39-2.29c-1.12,0-2.2,0.38-3.17,1.34c-1.27,1.25-3.24,5.05-5.43,5.05
		c-0.43,0-0.87-0.14-1.31-0.48c-3.75-2.85-0.24-9.98,2.48-12.24c0.84-0.71,1.75-1.39,2.71-1.93c1.17-0.65,2.32-1.14,3.46-1.47
		c1.14-0.34,2.28-0.51,3.46-0.51c1.32,0,2.67,0.21,4.12,0.65c1.8,0.54,3.46,1.39,5.01,2.44c1.09,0.74,2.11,1.58,3.08,2.47
		c0.74,0.67,1.23,1.18,1.41,1.37c0.79,0.84,1.27,1.87,1.44,2.93C85.72,82.28,85.15,84.16,83.77,85.49z"/>
	<path d="M87.03,80.25c-0.23-1.42-0.88-2.72-1.86-3.78c-0.25-0.27-0.78-0.8-1.52-1.47c-0.48-0.45-0.97-0.87-1.45-1.27
		c-2.32-1.89-4.76-3.24-7.25-3.99c-1.6-0.49-3.11-0.72-4.59-0.72c-1.32,0-2.61,0.19-3.92,0.57c-1.23,0.36-2.47,0.89-3.78,1.62
		c-0.92,0.51-1.87,1.17-2.97,2.09c-2.32,1.93-4.78,6.31-4.7,10.03c0.04,2.01,0.82,3.66,2.27,4.75c0.71,0.54,1.48,0.81,2.29,0.81
		c2.39,0,4.11-2.32,5.49-4.17c0.42-0.56,0.8-1.08,1.08-1.35c0.6-0.59,1.25-0.87,2.03-0.87c1.22,0,2.74,0.67,4.4,1.95
		c0.13,0.13,0.28,0.26,0.43,0.39c0.48,0.42,1.38,1.2,1.74,1.57c0.01,0.01,0.01,0.01,0.01,0.01c0.56,0.59,1.2,1.07,1.9,1.43
		c0.16,0.08,0.31,0.16,0.47,0.23c0.88,0.38,1.84,0.58,2.83,0.58c1.86,0,3.62-0.71,4.96-2C86.61,85.01,87.41,82.61,87.03,80.25z
		 M75.88,85.3c-0.62-0.65-2.35-2.09-2.35-2.12c-1.63-1.26-3.55-2.29-5.39-2.29c-1.12,0-2.2,0.38-3.17,1.34
		c-1.27,1.25-3.24,5.05-5.43,5.05c-0.43,0-0.87-0.14-1.31-0.48c-3.75-2.85-0.24-9.98,2.48-12.24c0.84-0.71,1.75-1.39,2.71-1.93
		c1.17-0.65,2.32-1.14,3.46-1.47c1.14-0.34,2.28-0.51,3.46-0.51c1.32,0,2.67,0.21,4.12,0.65c1.8,0.54,3.46,1.39,5.01,2.44
		c1.09,0.74,2.11,1.58,3.08,2.47c0.74,0.67,1.23,1.18,1.41,1.37c0.79,0.84,1.27,1.87,1.44,2.93c0.29,1.77-0.27,3.65-1.66,4.98
		c-1.08,1.04-2.46,1.55-3.84,1.55c-1.47,0-2.93-0.58-4.03-1.73C75.9,85.31,75.89,85.31,75.88,85.3z"/>
	<path style="fill:#673101;" d="M83.77,85.49c-1.08,1.04-2.46,1.55-3.84,1.55c-1.47,0-2.93-0.58-4.03-1.73c0,0-0.01-0.01-0.01-0.01
		c-0.62-0.65-2.35-2.09-2.35-2.12c0.21-0.73,0.76-1.36,1.55-1.56c0.43-0.12,0.86-0.06,1.26,0.08c-0.49-0.29-0.87-0.77-1.02-1.36
		c-0.31-1.2,0.41-2.42,1.6-2.74c0.55-0.14,1.1-0.05,1.58,0.2c-0.42-0.3-0.75-0.72-0.89-1.25c-0.21-0.84,0.08-1.68,0.67-2.22
		c0,0,0.32-0.38,1.21-0.58c1.09,0.74,2.11,1.58,3.08,2.47c0.74,0.67,1.23,1.18,1.41,1.37c0.79,0.84,1.27,1.87,1.44,2.93
		C85.72,82.28,85.15,84.16,83.77,85.49z"/>
</g>
<g>
	<path style="fill:#FFFFFF;" d="M42.54,86.8c-0.45,0.34-0.88,0.48-1.31,0.48c-2.2,0-4.16-3.81-5.43-5.05
		c-0.97-0.95-2.05-1.34-3.17-1.34c-1.83,0-3.75,1.03-5.39,2.29c0,0.03-1.73,1.47-2.35,2.12c-0.01,0.01-0.01,0.01-0.01,0.01
		c-1.1,1.15-2.56,1.73-4.03,1.73c-1.38,0-2.76-0.51-3.83-1.55c-1.39-1.33-1.95-3.21-1.67-4.98c0.18-1.06,0.66-2.08,1.44-2.93
		c0.19-0.19,0.68-0.7,1.42-1.37c2.33-2.17,5.03-3.98,8.08-4.91c1.45-0.44,2.81-0.65,4.13-0.65c1.17,0,2.32,0.17,3.46,0.51
		c1.14,0.33,2.28,0.82,3.46,1.47c0.97,0.54,1.87,1.22,2.72,1.93C42.78,76.82,46.29,83.95,42.54,86.8z"/>
	<path d="M41.1,73.31c-1.11-0.92-2.05-1.58-2.97-2.09c-1.31-0.73-2.56-1.26-3.79-1.62c-1.31-0.38-2.59-0.57-3.92-0.57
		c-1.49,0-2.99,0.23-4.59,0.72c-2.57,0.78-5.08,2.19-7.48,4.18c-0.42,0.34-0.84,0.71-1.25,1.1c-0.72,0.65-1.24,1.18-1.49,1.44
		c-0.99,1.06-1.63,2.36-1.86,3.78c-0.39,2.36,0.42,4.76,2.13,6.42c1.34,1.29,3.11,2,4.96,2c1.98,0,3.83-0.79,5.2-2.23
		c0,0,0.01-0.01,0.01-0.01h0.01c0.27-0.28,0.84-0.79,1.32-1.2c0.16-0.14,0.3-0.27,0.42-0.37c0.15-0.13,0.29-0.26,0.43-0.39
		c1.66-1.28,3.18-1.95,4.4-1.95c0.78,0,1.43,0.28,2.04,0.87c0.27,0.27,0.66,0.79,1.07,1.34c1.38,1.86,3.11,4.18,5.49,4.18
		c0.81,0,1.58-0.27,2.29-0.81c1.44-1.1,2.22-2.74,2.27-4.75C45.87,79.62,43.42,75.24,41.1,73.31z M42.54,86.8
		c-0.45,0.34-0.88,0.48-1.31,0.48c-2.2,0-4.16-3.81-5.43-5.05c-0.97-0.95-2.05-1.34-3.17-1.34c-1.83,0-3.75,1.03-5.39,2.29
		c0,0.03-1.73,1.47-2.35,2.12c-0.01,0.01-0.01,0.01-0.01,0.01c-1.1,1.15-2.56,1.73-4.03,1.73c-1.38,0-2.76-0.51-3.83-1.55
		c-1.39-1.33-1.95-3.21-1.67-4.98c0.18-1.06,0.66-2.08,1.44-2.93c0.19-0.19,0.68-0.7,1.42-1.37c0.96-0.9,1.98-1.73,3.07-2.47
		c1.54-1.05,3.22-1.9,5.01-2.45c1.45-0.44,2.81-0.65,4.13-0.65c1.17,0,2.32,0.17,3.46,0.51c1.14,0.33,2.28,0.82,3.46,1.47
		c0.97,0.54,1.87,1.22,2.72,1.93C42.78,76.82,46.29,83.95,42.54,86.8z"/>
	<path style="fill:#673101;" d="M27.24,83.18c0,0.03-1.73,1.47-2.35,2.12c-0.01,0.01-0.01,0.01-0.01,0.01
		c-1.1,1.15-2.56,1.73-4.03,1.73c-1.38,0-2.76-0.51-3.83-1.55c-1.39-1.33-1.95-3.21-1.67-4.98c0.18-1.06,0.66-2.08,1.44-2.93
		c0.19-0.19,0.68-0.7,1.42-1.37c0.96-0.9,1.98-1.73,3.07-2.47c0.1,0.01,0.2,0.04,0.28,0.06h0.01c0.01,0.01,0.01,0.01,0.02,0.01
		c0.18,0.05,0.29,0.1,0.34,0.13c0.97,0.44,1.52,1.53,1.24,2.61c-0.14,0.53-0.47,0.95-0.88,1.25c0.47-0.25,1.02-0.34,1.58-0.2
		c1.19,0.32,1.91,1.54,1.6,2.74c-0.16,0.6-0.53,1.07-1.02,1.36c0.4-0.14,0.83-0.2,1.26-0.08C26.48,81.82,27.04,82.45,27.24,83.18z"
		/>
</g>
<g>
	<path style="fill-rule:evenodd;clip-rule:evenodd;fill:#019DF7;" d="M44.81,209.98v23.01c0,1.52-2.1,2.8-3.79,3.11l-0.75,0.08
		h-7.32c-1.41,0-2.96,0.09-4.44-0.08c-0.08-0.01-0.16-0.02-0.23-0.03c-0.2-0.02-0.4-0.05-0.59-0.09c-0.64-0.12-1.25-0.31-1.82-0.58
		c-0.26-0.12-0.51-0.27-0.76-0.44c-0.36-0.25-0.71-0.55-1.02-0.91c-1.52-1.74-1.1-5.23-0.13-7.14c1.78-3.52,5.14-6.11,9-6.94
		c0,0,0.18-0.05,0.21-0.05c0.25-0.05,0.5-0.09,0.74-0.12c0.12-0.01,0.23-0.03,0.35-0.05c0.64-0.08,1.23-0.12,1.78-0.12v-9.65
		c0,0,1.89,0.47,4.39,0.47C42.92,210.45,44.81,209.98,44.81,209.98z"/>
	<path d="M39.06,179.92c-2.57,0-4.66,2.09-4.66,4.66v33.52c-0.52,0.05-1.02,0.12-1.55,0.23c-0.03,0-0.05,0.01-0.07,0.01l-0.2,0.05
		c-4.29,0.93-8.07,3.84-10.07,7.78c-1.14,2.24-1.78,6.5,0.36,8.94c2.08,2.39,4.96,2.71,7.77,2.71c0.41,0,0.82-0.01,1.22-0.01
		c0.37-0.01,0.74-0.01,1.1-0.01h7.32c0.06,0,0.11-0.01,0.17-0.01l0.75-0.07c0.05-0.01,0.08-0.01,0.13-0.02
		c2.48-0.45,5.12-2.26,5.12-4.71v-48.41C46.43,181.32,40.83,179.92,39.06,179.92z M44.81,232.98c0,1.52-2.1,2.8-3.79,3.11
		l-0.75,0.08h-7.32c-1.41,0-2.96,0.09-4.44-0.08c-0.08-0.01-0.16-0.02-0.23-0.03c-0.2-0.02-0.4-0.05-0.59-0.09
		c-0.64-0.12-1.25-0.31-1.82-0.58c-0.26-0.12-0.51-0.27-0.76-0.44c-0.36-0.25-0.71-0.55-1.02-0.91c-1.52-1.74-1.1-5.23-0.13-7.14
		c1.78-3.52,5.14-6.11,9-6.94c0,0,0.18-0.05,0.21-0.05c0.25-0.05,0.5-0.09,0.74-0.12c0.12-0.01,0.23-0.03,0.35-0.05
		c0.64-0.08,1.23-0.12,1.78-0.12v-35.05c0-1.68,1.36-3.04,3.04-3.04c1.67,0,5.75,1.36,5.75,3.04V232.98z"/>
	<path style="fill:#FFFFFF;" d="M44.81,184.58v25.4c0,0-1.89,0.47-4.4,0.47c-2.5,0-4.39-0.47-4.39-0.47v-25.4
		c0-1.68,1.36-3.04,3.04-3.04C40.73,181.54,44.81,182.9,44.81,184.58z"/>
</g>
<g>
	<path style="fill-rule:evenodd;clip-rule:evenodd;fill:#019DF7;" d="M76.7,234.03c-0.32,0.36-0.66,0.67-1.02,0.91
		c-0.25,0.17-0.49,0.31-0.75,0.44h-0.01c-0.27,0.13-0.54,0.23-0.81,0.32c-0.33,0.11-0.67,0.19-1.01,0.26
		c-0.19,0.03-0.39,0.06-0.59,0.09c-0.08,0.01-0.16,0.02-0.23,0.03c-1.48,0.17-3.03,0.08-4.44,0.08h-7.32l-0.75-0.08
		c-0.21-0.03-0.43-0.09-0.66-0.16c-0.11-0.03-0.22-0.07-0.33-0.11c-0.1-0.04-0.21-0.08-0.32-0.12c-0.12-0.06-0.25-0.11-0.37-0.18
		c-0.09-0.05-0.19-0.1-0.28-0.15c-0.42-0.23-0.79-0.51-1.1-0.82c-0.08-0.08-0.15-0.16-0.21-0.24c-0.06-0.07-0.12-0.16-0.18-0.23
		c0-0.01-0.01-0.01-0.01-0.01c-0.06-0.08-0.11-0.17-0.15-0.26c-0.03-0.06-0.06-0.12-0.08-0.18c-0.02-0.05-0.04-0.1-0.05-0.16
		c-0.02-0.06-0.03-0.14-0.05-0.21c-0.02-0.09-0.03-0.18-0.03-0.28v-23.01c0,0,1.89,0.47,4.4,0.47c2.51,0,4.4-0.47,4.4-0.47v9.65
		c0.54-0.01,1.14,0.03,1.78,0.12c0.34,0.04,0.7,0.1,1.08,0.17c0.04,0.01,0.21,0.05,0.21,0.05c3.85,0.83,7.21,3.43,9,6.94
		C77.8,228.8,78.23,232.29,76.7,234.03z"/>
	<path d="M67.84,236.18c1.41,0,2.96,0.09,4.44-0.08c-0.7,0.08-1.41,0.1-2.13,0.1C69.36,236.19,68.58,236.18,67.84,236.18z
		 M64.76,219.65h0.19c0.49,0,1.02,0.03,1.59,0.08c-0.64-0.08-1.24-0.12-1.78-0.12V219.65z M59.77,236.1
		c-0.21-0.04-0.43-0.09-0.66-0.16C59.33,236.01,59.55,236.06,59.77,236.1z"/>
	<path d="M78.28,226.16c-2-3.94-5.78-6.86-10.1-7.79l-0.18-0.04c-0.03-0.01-0.05-0.01-0.07-0.01c-0.53-0.1-1.03-0.18-1.55-0.23
		v-33.52c0-2.57-2.09-4.66-4.66-4.66c-1.78,0-7.38,1.4-7.38,4.66v22.41c-0.01,0.03-0.01,0.05-0.01,0.08v25.92
		c0,2.45,2.65,4.26,5.13,4.71c0.05,0.01,0.08,0.01,0.13,0.02l0.75,0.07c0.05,0.01,0.11,0.01,0.16,0.01h7.32c0.36,0,0.73,0,1.1,0.01
		c0.4,0.01,0.8,0.01,1.22,0.01c2.8,0,5.69-0.32,7.77-2.71C80.06,232.66,79.42,228.4,78.28,226.16z M76.7,234.03
		c-0.32,0.36-0.66,0.67-1.02,0.91c-0.24,0.18-0.49,0.32-0.75,0.44h-0.01c-0.27,0.13-0.54,0.24-0.81,0.32
		c-0.33,0.11-0.67,0.19-1.01,0.26c-0.19,0.04-0.4,0.07-0.59,0.09c-0.08,0.01-0.16,0.02-0.23,0.03c-1.48,0.17-3.03,0.08-4.44,0.08
		h-7.32l-0.75-0.08c-0.21-0.03-0.43-0.09-0.66-0.16c-0.11-0.03-0.22-0.07-0.33-0.11c-0.1-0.04-0.21-0.08-0.32-0.12
		c-0.12-0.06-0.25-0.11-0.37-0.18c-0.09-0.05-0.19-0.1-0.28-0.15c-0.42-0.23-0.79-0.51-1.1-0.82c-0.08-0.08-0.15-0.16-0.21-0.24
		c-0.06-0.07-0.12-0.16-0.18-0.23c0-0.01-0.01-0.01-0.01-0.01c-0.06-0.08-0.11-0.17-0.15-0.26c-0.03-0.06-0.06-0.12-0.08-0.18
		c-0.02-0.05-0.04-0.1-0.05-0.16c-0.02-0.06-0.03-0.14-0.05-0.21c-0.02-0.09-0.03-0.18-0.03-0.28v-25.92h0.01v-22.49
		c0-0.21,0.06-0.42,0.18-0.62c0.09-0.14,0.2-0.29,0.34-0.43c1.15-1.16,3.92-1.99,5.23-1.99c1.67,0,3.04,1.36,3.04,3.04v35.05
		c0.54-0.01,1.14,0.03,1.78,0.12c0.34,0.04,0.7,0.1,1.08,0.17c0.04,0.01,0.21,0.05,0.21,0.05c3.85,0.83,7.21,3.43,9,6.94
		C77.8,228.8,78.23,232.29,76.7,234.03z"/>
	<path style="fill:#FFFFFF;" d="M64.76,184.58v25.4c0,0-1.89,0.47-4.4,0.47c-2.5,0-4.4-0.47-4.4-0.47v-2.91h0.01v-22.49
		c0-0.21,0.06-0.42,0.18-0.62c0.09-0.14,0.2-0.29,0.34-0.43c1.15-1.16,3.92-1.99,5.23-1.99C63.4,181.54,64.76,182.9,64.76,184.58z"
		/>
</g>
<g>
	<path d="M18.14,144.69c0.09,0.04,0.18,0.07,0.25,0.12C18.31,144.77,18.22,144.73,18.14,144.69z M18.39,144.82
		c0.12,0.07,0.22,0.15,0.31,0.25C18.61,144.97,18.5,144.89,18.39,144.82z M18,144.63c0.05,0.02,0.09,0.04,0.14,0.06
		C18.09,144.67,18.05,144.65,18,144.63z M17.52,144.52c0.07,0.01,0.13,0.03,0.19,0.04C17.65,144.55,17.59,144.53,17.52,144.52z
		 M17.71,144.56c0.1,0.02,0.2,0.04,0.29,0.07C17.91,144.6,17.81,144.58,17.71,144.56z M17.04,144.48h-0.18
		c0.12,0,0.22,0.01,0.33,0.01C17.14,144.49,17.09,144.48,17.04,144.48z M17.2,144.49c0.11,0,0.22,0.01,0.33,0.02
		C17.42,144.5,17.31,144.5,17.2,144.49z"/>
	<path d="M17.78,179.13c-1.05-3.11-1.96-5.81-1.96-9.07c0-0.14-0.01-0.34-0.04-0.8c-0.03-0.54-0.07-1.27-0.1-2
		c0.16-2.67,0.6-5.21,1.31-7.57c0.09-0.3,0.42-1.06,0.77-1.87c2.28-5.24,4.35-10.59,2.52-13.36c-0.48-0.73-1.43-1.61-3.26-1.61
		c-0.08,0-0.16,0-0.24,0.01c-2.15,0.08-3.74,1.99-4.79,3.25c-0.12,0.16-0.25,0.3-0.36,0.43c-4.15,4.8-6.81,10.43-7.92,16.75
		c-0.34,0.71-0.42,1.76-0.51,3.02c-0.06,0.83-0.11,1.86-0.15,2.91c-0.08,2.15,0.01,4.36,0.25,6.58l0.05,0.47
		c0.45,4.24,1.02,9.52,4.92,12.77c1.28,1.08,3.09,1.36,4.06,1.44c0.25,0.02,0.51,0.03,0.77,0.03c0.38,0,0.74-0.02,1.09-0.06
		c1.93-0.24,3.33-1.03,4.16-2.35c1.04-1.65,1.08-3.94,0.08-7.02C18.22,180.42,18,179.78,17.78,179.13z M13.99,188.85
		c-0.28,0.03-0.58,0.05-0.89,0.05c-0.21,0-0.42-0.01-0.64-0.03c-1.17-0.09-2.39-0.43-3.15-1.06c-3.52-2.94-3.95-8.11-4.39-12.17
		c-0.23-2.1-0.32-4.22-0.24-6.34c0-0.09,0.01-0.34,0.03-0.67c0.01-0.15,0.01-0.32,0.03-0.49c0.01-0.16,0.02-0.32,0.03-0.49
		c0.01-0.17,0.02-0.34,0.03-0.51c0.01-0.01,0.01-0.02,0-0.03c0.06-1.08,0.16-2.25,0.29-2.81c0.01-0.07,0.03-0.14,0.05-0.19
		c0.03-0.1,0.06-0.15,0.1-0.13h0.02c0.66-4,1.98-7.89,4.14-11.55c0.2-0.33,0.4-0.66,0.61-0.99c0.63-0.98,1.32-1.95,2.08-2.89
		c0.25-0.31,0.52-0.62,0.78-0.93c0.95-1.1,2.35-3.06,4-3.13c0.06,0,0.12-0.01,0.18,0c0.31,0,0.58,0.04,0.82,0.11
		c0.05,0.01,0.1,0.03,0.14,0.04c0.03,0.01,0.05,0.02,0.07,0.03c0.07,0.02,0.14,0.05,0.2,0.09c0.17,0.08,0.31,0.18,0.43,0.31
		c2.5,2.51-2.69,12.29-3.26,14.16c-0.25,0.83-0.47,1.67-0.65,2.51c-0.27,1.26-0.47,2.52-0.59,3.79c-0.06,0.57-0.11,1.15-0.14,1.73
		c0.04,1.26,0.14,2.56,0.14,2.82c0.01,4.24,1.41,7.57,2.69,11.52C17.85,184.55,18.34,188.3,13.99,188.85z"/>
	<path style="fill:#FFFFFF;" d="M15.45,159.23c-0.25,0.83-0.47,1.67-0.65,2.51c-0.27,1.26-0.47,2.52-0.59,3.79
		c-0.01,0-0.01,0.01-0.02,0.01c-3.06,0.93-6.86-0.25-8.96-1.56h0.02c0.66-4,1.98-7.89,4.14-11.55c0.2-0.33,0.4-0.66,0.61-0.99
		c0.63-0.98,1.32-1.95,2.08-2.89c0.25-0.31,0.52-0.62,0.78-0.93c0.95-1.1,2.35-3.06,4-3.13c0.06,0,0.12-0.01,0.18,0
		c0.06,0,0.1,0.01,0.16,0.01c0.11,0.01,0.22,0.01,0.32,0.03c0.06,0.01,0.12,0.03,0.19,0.04c0.05,0.01,0.1,0.02,0.15,0.03
		c0.05,0.01,0.1,0.03,0.14,0.04c0.03,0.01,0.05,0.02,0.07,0.03c0.02,0.01,0.05,0.02,0.07,0.03c0.04,0.02,0.08,0.04,0.13,0.06
		c0.04,0.02,0.08,0.04,0.12,0.06c0.12,0.07,0.23,0.16,0.32,0.25C21.2,147.58,16.01,157.36,15.45,159.23z"/>
	<path style="fill:#0186C3;" d="M13.99,188.85c-0.28,0.03-0.58,0.05-0.89,0.05c-0.21,0-0.42-0.01-0.64-0.03
		c-1.17-0.09-2.39-0.43-3.15-1.06c-3.52-2.94-3.95-8.11-4.39-12.17c-0.23-2.1-0.32-4.22-0.24-6.34c0-0.09,0.01-0.34,0.03-0.67
		c0.01-0.15,0.01-0.32,0.03-0.49c0.01-0.16,0.02-0.32,0.03-0.49c0.01-0.16,0.03-0.34,0.03-0.51c0.01-0.01,0.01-0.02,0-0.03
		c0.06-1.08,0.16-2.25,0.29-2.81c0.01-0.07,0.03-0.14,0.05-0.19c0.03-0.1,0.06-0.15,0.1-0.13c2.1,1.3,5.9,2.49,8.96,1.56
		c0.01,0,0.01-0.01,0.02-0.01c-0.06,0.57-0.11,1.15-0.14,1.73c0.04,1.26,0.14,2.56,0.14,2.82c0.01,4.24,1.41,7.57,2.69,11.52
		C17.85,184.55,18.34,188.3,13.99,188.85z"/>
	<path d="M5.13,164.1c0.03-0.08,0.06-0.12,0.1-0.13C5.2,163.95,5.16,164,5.13,164.1z"/>
</g>
<g>
	<path d="M97.73,169.25c-0.02-0.47-0.06-1.71-0.15-2.89c-0.1-1.34-0.18-2.46-0.58-3.18c-1.1-6.27-3.74-11.87-7.86-16.63
		c-0.12-0.14-0.24-0.28-0.37-0.43c-1.05-1.26-2.64-3.17-4.79-3.25c-0.08-0.01-0.16-0.01-0.24-0.01c-1.82,0-2.78,0.88-3.26,1.61
		c-1.82,2.78,0.25,8.12,2.53,13.36c0.35,0.81,0.68,1.57,0.77,1.87c0.51,1.68,0.88,3.45,1.11,5.27c0.01,0.04,0.01,0.08,0.01,0.12
		c0.01,0.07,0.01,0.14,0.02,0.21c0.08,0.7,0.14,1.42,0.18,2.15c0.02,0.28,0.03,0.56,0.03,0.84c0.01,0.42,0.01,0.82,0.01,1.22
		c-0.06,3.87-0.86,7.59-2.44,11.36c-0.83,1.98-1.79,4.88-0.49,7.11c0.8,1.39,2.28,2.22,4.39,2.49c0.34,0.05,0.71,0.06,1.08,0.06
		c0.26,0,0.51-0.01,0.77-0.03c0.96-0.08,2.77-0.36,4.06-1.44c3.89-3.25,4.46-8.54,4.92-12.78l0.05-0.46
		C97.72,173.59,97.81,171.38,97.73,169.25z M95.87,175.64c-0.44,4.05-0.87,9.22-4.39,12.17c-0.77,0.64-1.98,0.97-3.15,1.06
		c-0.22,0.02-0.43,0.03-0.65,0.03c-0.3,0-0.6-0.02-0.88-0.05c-4.72-0.59-3.88-4.3-2.59-7.37c1.67-3.97,2.5-7.89,2.56-11.97
		c0-0.42,0.01-0.84-0.01-1.25c-0.01-0.3-0.02-0.6-0.03-0.9c-0.04-0.75-0.1-1.51-0.19-2.25c-0.01-0.11-0.02-0.22-0.03-0.34
		c0-0.02-0.01-0.05-0.01-0.06c-0.08-0.69-0.19-1.38-0.32-2.07c-0.08-0.43-0.18-0.86-0.27-1.29c-0.16-0.71-0.35-1.41-0.56-2.11
		c-0.06-0.19-0.16-0.46-0.3-0.79c-0.07-0.17-0.15-0.35-0.23-0.55c-0.26-0.59-0.58-1.32-0.91-2.11c-0.11-0.27-0.23-0.54-0.34-0.82
		c-0.12-0.28-0.23-0.56-0.35-0.86c-1.36-3.44-2.6-7.52-1.12-9.02c0.05-0.06,0.11-0.1,0.17-0.15c0.18-0.14,0.4-0.25,0.64-0.32
		c0.12-0.04,0.26-0.06,0.41-0.08c0.1-0.01,0.22-0.02,0.33-0.02c0.1,0,0.19-0.01,0.29-0.01c0.92,0.04,1.76,0.67,2.5,1.42
		c0.25,0.24,0.48,0.51,0.7,0.76c0.07,0.08,0.14,0.17,0.21,0.25c0.21,0.25,0.4,0.49,0.58,0.69c1.07,1.24,2.02,2.52,2.86,3.83
		c2.52,3.93,4.03,8.17,4.73,12.53h-0.02v0.01h0.06c0.37,0.04,0.54,4.86,0.56,5.33C96.18,171.42,96.09,173.54,95.87,175.64z"/>
	<path style="fill:#FFFFFF;" d="M95.51,163.97h-0.02c-2.36-0.23-5.61-0.2-8.99,0.73c-0.08-0.69-0.19-1.38-0.32-2.07
		c-0.08-0.43-0.18-0.86-0.27-1.29c-0.16-0.71-0.35-1.41-0.56-2.11c-0.06-0.19-0.16-0.46-0.3-0.79c-0.07-0.17-0.15-0.35-0.23-0.55
		c-0.26-0.59-0.58-1.32-0.91-2.11c-0.11-0.27-0.23-0.54-0.34-0.82c-0.12-0.28-0.23-0.56-0.35-0.86c-1.36-3.44-2.6-7.52-1.12-9.02
		c0.05-0.06,0.11-0.1,0.17-0.15c0.18-0.14,0.4-0.25,0.64-0.32c0.25-0.07,0.53-0.11,0.86-0.11h0.18c0.92,0.04,1.76,0.67,2.5,1.42
		c0.25,0.25,0.48,0.51,0.7,0.76c0.07,0.08,0.14,0.17,0.21,0.25c0.21,0.25,0.4,0.49,0.58,0.69c1.07,1.24,2.02,2.52,2.86,3.83
		C93.3,155.37,94.81,159.6,95.51,163.97z"/>
	<path style="fill:#FFFFFF;" d="M83.2,154.09c-1.37-3.45-2.61-7.54-1.12-9.02C80.6,146.56,81.84,150.64,83.2,154.09z"/>
	<path style="fill:#FFFFFF;" d="M82.25,144.92c0.18-0.14,0.39-0.25,0.64-0.32C82.65,144.67,82.43,144.78,82.25,144.92z"/>
	<path style="fill:#FFFFFF;" d="M83.75,144.48h0.18c-0.1-0.01-0.2,0-0.29,0.01C83.67,144.49,83.71,144.48,83.75,144.48z"/>
	<path style="fill:#FFFFFF;" d="M83.3,144.51c0.1-0.01,0.22-0.02,0.33-0.02C83.52,144.49,83.4,144.5,83.3,144.51z"/>
	<path style="fill:#FFFFFF;" d="M82.89,144.59c0.13-0.04,0.26-0.06,0.41-0.08C83.16,144.53,83.02,144.55,82.89,144.59z"/>
	<path style="fill:#0186C3;" d="M95.87,175.64c-0.44,4.05-0.87,9.22-4.39,12.17c-0.77,0.64-1.98,0.97-3.15,1.06
		c-0.53,0.05-1.06,0.03-1.52-0.03c-4.72-0.59-3.89-4.3-2.59-7.37c1.73-4.13,2.58-8.21,2.58-12.45c0-0.36-0.01-0.71-0.02-1.07
		c-0.01-0.34-0.03-0.67-0.05-1.01c-0.03-0.39-0.06-0.78-0.1-1.17c-0.03-0.36-0.07-0.73-0.12-1.08c3.39-0.93,6.65-0.96,9.01-0.73
		c0.01,0.01,0.03,0.01,0.04,0.01c0.37,0.04,0.54,4.86,0.56,5.33C96.18,171.42,96.09,173.54,95.87,175.64z"/>
</g>
<g>
	<path style="fill-rule:evenodd;clip-rule:evenodd;fill:#019DF7;" d="M87.16,165.12c0.35,6.71-1.25,16-5.61,21.63
		c-5.12,6.61-14.43,10.92-25.54,11.83c-1.32,0.1-2.76,0.16-4.16,0.16h-2.91c-1.39,0-2.83-0.06-4.16-0.16
		c-11.11-0.91-20.42-5.22-25.54-11.83c-4.37-5.63-5.97-14.93-5.62-21.63c0.19-3.63,0.99-7.27,1.75-10.79
		c0.38-1.76,0.78-3.57,1.1-5.38c0.34-1.95,0.12-5.62,0.11-5.8c-0.25-2.74-1.07-5.32-1.84-7.47c-3.11-8.71-3.64-16.85-1.65-25.62
		c1.8-7.95,5.58-14.7,10.37-18.53c7.93-6.33,17.16-9.96,25.32-9.96h0.06l1.54-0.01l1.54,0.01H52c8.17,0,17.39,3.63,25.32,9.96
		c4.79,3.83,8.57,10.58,10.37,18.53c1.98,8.77,1.46,16.92-1.66,25.62c-0.77,2.15-1.6,4.73-1.84,7.5c-0.01,0.08-0.08,1.28-0.08,2.65
		c0,1.08,0.05,2.26,0.19,3.12c0.32,1.8,0.71,3.62,1.1,5.37C86.17,157.84,86.97,161.49,87.16,165.12z"/>
	<path d="M86.99,153.97c-0.38-1.74-0.77-3.54-1.08-5.31c-0.31-1.76-0.1-5.36-0.1-5.37c0.23-2.56,1.02-5.01,1.75-7.08
		c3.18-8.89,3.74-17.57,1.71-26.52c-1.87-8.3-5.86-15.39-10.94-19.43c-8.22-6.56-17.81-10.31-26.33-10.31h-0.07l-1.54-0.01
		l-1.54,0.01h-0.06c-8.52,0-18.12,3.76-26.34,10.31c-5.07,4.05-9.06,11.13-10.94,19.43c-2.03,8.96-1.47,17.64,1.71,26.52
		c0.73,2.06,1.52,4.51,1.75,7.05c0,0.04,0.21,3.64-0.1,5.4c-0.31,1.76-0.7,3.57-1.08,5.31c-0.78,3.59-1.59,7.3-1.78,11.06
		c-0.37,7.01,1.33,16.75,5.95,22.71c5.4,6.97,15.13,11.51,26.69,12.45c1.37,0.11,2.85,0.17,4.29,0.17h2.91
		c1.44,0,2.93-0.06,4.29-0.17c11.57-0.95,21.3-5.48,26.69-12.45c4.62-5.96,6.32-15.7,5.95-22.71
		C88.58,161.27,87.77,157.56,86.99,153.97z M51.84,198.74h-2.91c-1.39,0-2.83-0.06-4.16-0.16c-11.11-0.91-20.42-5.22-25.54-11.83
		c-4.37-5.63-5.97-14.93-5.62-21.63c0.19-3.63,0.99-7.27,1.75-10.79c0.38-1.76,0.78-3.57,1.1-5.38c0.34-1.95,0.12-5.62,0.11-5.8
		c-0.25-2.74-1.07-5.32-1.84-7.47c-3.11-8.71-3.64-16.85-1.65-25.62c1.8-7.95,5.58-14.7,10.37-18.53
		c7.93-6.33,17.16-9.96,25.32-9.96h0.06l1.54-0.01l1.54,0.01H52c8.17,0,17.39,3.63,25.32,9.96c4.79,3.83,8.57,10.58,10.37,18.53
		c1.98,8.77,1.46,16.92-1.66,25.62c-0.77,2.15-1.6,4.73-1.84,7.5c-0.01,0.08-0.08,1.28-0.08,2.65c0,1.08,0.05,2.26,0.19,3.12
		c0.32,1.8,0.71,3.62,1.1,5.37c0.77,3.53,1.56,7.17,1.75,10.8c0.35,6.71-1.25,16-5.61,21.63c-5.12,6.61-14.43,10.92-25.54,11.83
		C54.68,198.68,53.24,198.74,51.84,198.74z"/>
</g>
<g>
	<path style="fill-rule:evenodd;clip-rule:evenodd;fill:#FFFFFF;" d="M83.38,132.03c-3.44,7.52-11.78,12.21-22.33,12.55l-3.79,0.11
		c-6.26,0.19-12.37,0.05-17.52-0.11c-10.55-0.34-18.89-5.03-22.32-12.55c-1.4-3.06-1.84-6.84-1.26-10.65
		c0.62-3.96,1.11-5.57,3.19-8.55c0.85-1.21,0.91-2.85,0.97-4.29c0.03-0.71,0.06-1.38,0.17-1.94c0.47-2.42,1.28-4.66,2.4-6.64
		c2.42-4.31,6.53-7.8,11.89-10.08c1.91-0.81,4-1.48,6.2-1.98c2.65-0.62,5.94-0.94,9.08-0.94c1.7,0,3.37,0.1,4.86,0.29
		c3.35,0.44,6.71,1.36,9.74,2.63c4.55,1.93,10.54,5.25,13.25,10.08c1.12,1.99,1.92,4.22,2.4,6.64c0.11,0.56,0.14,1.23,0.16,1.94
		c0.05,1.44,0.12,3.07,0.97,4.29c2.09,2.98,2.58,4.59,3.19,8.55C85.22,125.19,84.78,128.97,83.38,132.03z"/>
	<path d="M86.23,121.13c-0.65-4.18-1.21-6-3.46-9.23c-0.58-0.82-0.63-2.15-0.67-3.42c-0.03-0.75-0.06-1.51-0.19-2.2
		c-0.51-2.59-1.38-4.98-2.58-7.12c-2.94-5.22-9.25-8.73-14.04-10.77c-3.15-1.34-6.67-2.29-10.15-2.75h-0.01
		c-4.42-0.58-10.25-0.31-14.51,0.67c-2.29,0.53-4.46,1.23-6.47,2.08c-5.69,2.42-10.07,6.14-12.67,10.77
		c-1.21,2.14-2.07,4.53-2.58,7.12c-0.13,0.69-0.16,1.45-0.19,2.2c-0.05,1.27-0.1,2.59-0.68,3.42c-2.26,3.22-2.82,5.05-3.46,9.23
		c-0.64,4.12-0.14,8.23,1.38,11.58c3.7,8.1,12.57,13.14,23.75,13.49c3.39,0.1,7.2,0.2,11.2,0.2c2.1,0,4.24-0.03,6.41-0.09l3.8-0.11
		c11.18-0.36,20.05-5.4,23.75-13.49C86.38,129.36,86.87,125.25,86.23,121.13z M39.75,144.58c-10.55-0.34-18.89-5.03-22.32-12.55
		c-1.4-3.06-1.84-6.84-1.26-10.65c0.62-3.96,1.11-5.57,3.19-8.55c0.85-1.21,0.91-2.85,0.97-4.29c0.03-0.71,0.06-1.38,0.17-1.94
		c0.47-2.42,1.28-4.66,2.4-6.64c2.42-4.31,6.53-7.8,11.89-10.08c1.91-0.81,4-1.48,6.2-1.98c2.65-0.62,5.94-0.94,9.08-0.94
		c1.7,0,3.37,0.1,4.86,0.29c3.35,0.44,6.71,1.36,9.74,2.63c4.55,1.93,10.54,5.25,13.25,10.08c1.12,1.99,1.92,4.22,2.4,6.64
		c0.11,0.56,0.14,1.23,0.16,1.94c0.05,1.44,0.12,3.07,0.97,4.29c2.09,2.98,2.58,4.59,3.19,8.55c0.59,3.81,0.14,7.59-1.25,10.65
		c-3.44,7.52-11.78,12.21-22.33,12.55l-3.79,0.11C51,144.88,44.9,144.74,39.75,144.58z"/>
	<path style="fill-rule:evenodd;clip-rule:evenodd;fill:#FBBBB6;" d="M36.71,122.64c0,5.28-4.25,9.55-9.48,9.55
		s-9.48-4.28-9.48-9.55c0-5.27,4.24-9.55,9.48-9.55S36.71,117.37,36.71,122.64"/>
	<path style="fill-rule:evenodd;clip-rule:evenodd;fill:#FBBBB6;" d="M83.04,122.64c0,5.28-4.25,9.55-9.48,9.55
		c-5.23,0-9.47-4.28-9.47-9.55c0-5.27,4.24-9.55,9.47-9.55C78.8,113.1,83.04,117.37,83.04,122.64"/>
</g>
<g>
	<path style="fill-rule:evenodd;clip-rule:evenodd;" d="M52.03,119.59c0,0.69-0.73,1.24-1.63,1.24s-1.64-0.56-1.64-1.24
		c0-0.68,0.73-1.24,1.64-1.24S52.03,118.91,52.03,119.59"/>
	<path style="fill:#231815;" d="M42.78,117.4c-0.15,0-0.3-0.04-0.43-0.12c-1.6-1-3-0.74-3.06-0.73c-0.44,0.09-0.86-0.2-0.95-0.63
		c-0.09-0.44,0.19-0.86,0.62-0.96c0.08-0.02,2.08-0.43,4.26,0.94c0.38,0.24,0.49,0.74,0.25,1.12
		C43.32,117.27,43.05,117.4,42.78,117.4z"/>
	<path style="fill:#231815;" d="M58.01,117.4c-0.27,0-0.53-0.13-0.69-0.38c-0.24-0.38-0.12-0.88,0.25-1.12
		c2.18-1.37,4.17-0.96,4.26-0.94c0.44,0.09,0.72,0.53,0.62,0.96c-0.09,0.44-0.52,0.71-0.96,0.62c-0.07-0.01-1.47-0.27-3.06,0.73
		C58.3,117.36,58.15,117.4,58.01,117.4z"/>
	<g>
		<path style="fill:#D54848;" d="M55.99,127.01c-0.55,1.21-1.99,3.11-5.6,3.11c-3.57,0-5.15-1.87-5.81-3.11h0.12
			c0.38,0,0.75-0.02,1.12-0.06c0.21-0.02,0.41-0.05,0.61-0.08c0.16-0.03,0.32-0.05,0.47-0.09c0.18-0.04,0.36-0.08,0.53-0.12
			c0.14-0.04,0.29-0.08,0.42-0.12c0.12-0.03,0.24-0.07,0.35-0.12c0.13-0.04,0.25-0.08,0.37-0.14c0.12-0.05,0.25-0.1,0.36-0.15
			c0.53-0.24,1.02-0.51,1.46-0.82c0.45,0.32,0.95,0.6,1.49,0.83c0.2,0.09,0.4,0.17,0.62,0.25c0.04,0.01,0.07,0.03,0.11,0.04
			c0.15,0.05,0.3,0.1,0.47,0.15c0.25,0.08,0.52,0.14,0.78,0.2c0.07,0.01,0.15,0.03,0.23,0.05c0.18,0.04,0.35,0.06,0.53,0.09
			c0.01,0,0.03,0.01,0.05,0.01s0.03,0.01,0.04,0.01c0.21,0.03,0.42,0.05,0.62,0.06C55.54,126.99,55.77,127.01,55.99,127.01z"/>
		<path style="fill-rule:evenodd;clip-rule:evenodd;fill:#FFFFFF;" d="M54.66,126.91V127c0,0.34-0.3,0.63-0.67,0.63h-7.5
			c-0.37,0-0.67-0.29-0.67-0.63v-0.05c1.1-0.12,2.17-0.41,3.12-0.82c0.53-0.24,1.02-0.51,1.46-0.82c0.45,0.32,0.95,0.6,1.49,0.83
			C52.73,126.51,53.68,126.77,54.66,126.91z"/>
		<path style="fill:#231815;" d="M62.37,122.02c-0.3-0.32-0.82-0.33-1.14-0.03c-0.3,0.29-0.34,0.75-0.09,1.07
			c-0.1,0.24-0.55,0.75-1.28,1.26c-2.61,1.81-6.86,1.14-8.92-0.67c-0.31-0.27-0.77-0.27-1.07,0c-2.06,1.81-6.31,2.48-8.93,0.67
			c-0.73-0.51-1.19-1.02-1.28-1.26c0.24-0.32,0.21-0.78-0.09-1.07c-0.32-0.31-0.84-0.3-1.15,0.03c-0.3,0.31-0.43,0.72-0.4,1.15
			c0.1,1.04,1.29,2,1.98,2.49c0.82,0.57,1.75,0.94,2.72,1.15c0.51,1.37,2.34,4.94,7.66,4.94c5.29,0,6.93-3.48,7.37-4.88
			c1.08-0.19,2.11-0.58,3.02-1.2c0.69-0.49,1.88-1.45,1.98-2.49C62.81,122.74,62.66,122.33,62.37,122.02z M50.39,130.12
			c-3.57,0-5.15-1.87-5.81-3.11h0.12c0.38,0,0.75-0.02,1.12-0.06c0.21-0.02,0.41-0.05,0.61-0.08c0.16-0.03,0.32-0.06,0.47-0.09
			c0.18-0.04,0.36-0.08,0.53-0.12c0.14-0.04,0.29-0.08,0.42-0.12c0.12-0.04,0.23-0.08,0.35-0.12c0.12-0.04,0.25-0.09,0.37-0.14
			c0.12-0.05,0.25-0.1,0.36-0.15c0.53-0.24,1.02-0.51,1.46-0.82c0.45,0.32,0.95,0.6,1.49,0.83c0.2,0.09,0.4,0.17,0.62,0.25
			c0.04,0.01,0.07,0.03,0.11,0.04c0.15,0.05,0.3,0.1,0.47,0.15c0.25,0.08,0.52,0.14,0.78,0.2c0.08,0.02,0.15,0.03,0.23,0.05
			c0.18,0.03,0.35,0.06,0.53,0.09c0.01,0,0.03,0.01,0.05,0.01s0.03,0.01,0.04,0.01c0.21,0.03,0.42,0.05,0.62,0.06
			c0.22,0.02,0.45,0.03,0.67,0.03C55.44,128.22,54,130.12,50.39,130.12z"/>
	</g>
</g>
</svg>
