<?xml version="1.0" encoding="utf-8"?>
<!-- Generator: Adobe Illustrator 26.0.3, SVG Export Plug-In . SVG Version: 6.00 Build 0)  -->
<svg version="1.1" id="레이어_1" xmlns="http://www.w3.org/2000/svg" xmlns:xlink="http://www.w3.org/1999/xlink" x="0px"
	 y="0px" viewBox="0 0 214 176" style="enable-background:new 0 0 214 176;" xml:space="preserve">
<g>
	
		<path style="fill:#750F0F;stroke:#000000;stroke-width:2.4135;stroke-linecap:round;stroke-linejoin:round;stroke-miterlimit:10;" d="
		M18,138.7l1,35.8c0,0,57.7-33.8,73.7-34.9c0,0,7.7,2.3,16.9-4.6c0,0,70.3,1.4,95.7,15.5l6.8-88.4c0,0-21.9-12.6-49.6-12.2
		S18,138.7,18,138.7z"/>
	
		<path style="fill:#998875;stroke:#000000;stroke-width:2.4135;stroke-linecap:round;stroke-linejoin:round;stroke-miterlimit:10;" d="
		M6.5,133.8l18.9,21.4c0,0,49.7-23.8,67.3-21.4c0,0,3.2,3.1,8.2-0.2c0,0,38.1-19.5,99.6,2.9c0,0,6.5-60.9,4.3-82.1L196,27.7
		L11,127.1L6.5,133.8z"/>
	
		<path style="fill:#D4BDA2;stroke:#000000;stroke-width:2.4135;stroke-linecap:round;stroke-linejoin:round;stroke-miterlimit:10;" d="
		M92.7,118.9c0,0,41.9-19.3,103.3-5.9V27.7c0,0-50.4-29.3-95.1,10.1L92.7,118.9z"/>
	
		<path style="fill:#BFAB92;stroke:#000000;stroke-width:2.4135;stroke-linecap:round;stroke-linejoin:round;stroke-miterlimit:10;" d="
		M92.7,118.9c0,0-63.8-7.6-86.2,14.9L19,81.6C19,81.6,85.3,93.3,92.7,118.9z"/>
	
		<path style="fill:#D6BFA3;stroke:#000000;stroke-width:2.4135;stroke-linecap:round;stroke-linejoin:round;stroke-miterlimit:10;" d="
		M92.7,118.9l9.6-83.6C73.1-14.6,25.6,5.5,25.6,5.5L1.8,97.8C1.8,97.8,58.5,89.8,92.7,118.9z"/>
	
		<path style="fill:#E8CFB1;stroke:#000000;stroke-width:2.4135;stroke-linecap:round;stroke-linejoin:round;stroke-miterlimit:10;" d="
		M92.7,118.9c0,0,61.8-33.4,98.2-19.3l-2.8-91.3c0,0-64.1-16.3-85.9,27.1L92.7,118.9z"/>
	
		<path style="fill:#998875;stroke:#000000;stroke-width:2.4135;stroke-linecap:round;stroke-linejoin:round;stroke-miterlimit:10;" d="
		M10.9,138.7c0,0,43.3-24.2,77.1-14.7"/>
	
		<path style="fill:#998875;stroke:#000000;stroke-width:2.4135;stroke-linecap:round;stroke-linejoin:round;stroke-miterlimit:10;" d="
		M18,146.8c0,0,20.3-12,38.4-14.5"/>
	
		<line style="fill:#FFFFFF;stroke:#000000;stroke-width:2.4135;stroke-linecap:round;stroke-linejoin:round;stroke-miterlimit:10;" x1="92.7" y1="118.9" x2="97.8" y2="135"/>
</g>
</svg>
