<?xml version="1.0" encoding="utf-8"?>
<!-- Generator: Adobe Illustrator 26.5.0, SVG Export Plug-In . SVG Version: 6.00 Build 0)  -->
<svg version="1.1" id="레이어_1" xmlns="http://www.w3.org/2000/svg" xmlns:xlink="http://www.w3.org/1999/xlink" x="0px"
	 y="0px" viewBox="0 0 390 390" style="enable-background:new 0 0 390 390;" xml:space="preserve">
<style type="text/css">
	.st0{fill:#360000;}
	.st1{fill:#5C0000;}
	.st2{fill:#FF5758;}
	.st3{fill:#DD0100;}
	.st4{fill:#430000;}
	.st5{fill:#4E0000;}
	.st6{fill:#7F0000;}
	.st7{fill:#430000;stroke:#000000;stroke-width:3;stroke-linecap:round;stroke-linejoin:round;stroke-miterlimit:10;}
	.st8{fill:#360000;stroke:#000000;stroke-width:3;stroke-miterlimit:10;}
	.st9{fill:#5C0000;stroke:#000000;stroke-width:3;stroke-linecap:round;stroke-linejoin:round;stroke-miterlimit:10;}
	.st10{fill:#4E0000;stroke:#000000;stroke-width:3;stroke-miterlimit:10;}
	.st11{fill:#4E0000;stroke:#000000;stroke-width:3;stroke-linecap:round;stroke-linejoin:round;stroke-miterlimit:10;}
	.st12{fill:#FF5758;stroke:#000000;stroke-width:3;stroke-linecap:round;stroke-linejoin:round;stroke-miterlimit:10;}
	.st13{fill:#DD0100;stroke:#000000;stroke-width:3;stroke-linecap:round;stroke-linejoin:round;stroke-miterlimit:10;}
	.st14{fill:none;stroke:#000000;stroke-width:3;stroke-linecap:round;stroke-linejoin:round;stroke-miterlimit:10;}
	.st15{fill:#7F0000;stroke:#000000;stroke-width:3;stroke-miterlimit:10;}
	.st16{fill:none;stroke:#000000;stroke-width:0.9172;stroke-linecap:round;stroke-linejoin:round;stroke-miterlimit:10;}
	.st17{fill:#360000;stroke:#000000;stroke-width:3;stroke-linecap:round;stroke-linejoin:round;stroke-miterlimit:10;}
	.st18{fill:#FF5758;stroke:#6A0000;stroke-width:3;stroke-linecap:round;stroke-linejoin:round;stroke-miterlimit:10;}
	.st19{fill:#B93F41;}
	.st20{fill:#6A0000;}
	.st21{fill:#430000;stroke:#000000;stroke-width:2;stroke-linecap:round;stroke-linejoin:round;stroke-miterlimit:10;}
</style>
<g>
	<g>
		<path class="st0" d="M281.3,222.6c0,0,10.7-10.1,7.3-18.6c-3.4-8.5-17.4-44.5-64.8-42.5s-96,60.8-108.7,61.3
			c-12.7,0.4-35.7-7.5-35.7-7.5s-30.5,3.9-28.8,14.5s10.3-7,20.8-1.8s40.5,17.1,40.5,17.1s11.9,7.3,29.9,5c0,0,54.4-41,64.3-41.4
			C215.9,208.2,266.1,227.6,281.3,222.6z"/>
		<path d="M134.7,251.3c-13.5,0-22.2-5-23.2-5.6c-1.6-0.6-30.3-12-40.5-17.1c-4.9-2.4-9.4,0.5-13,2.9c-2.5,1.6-4.5,2.9-6.1,2.2
			c-1.1-0.5-1.8-1.7-2.1-3.9c-0.3-1.7,0.2-3.4,1.3-4.9c5.7-7.6,27.3-10.4,28.2-10.5l0.2,0l0.2,0.1c0.2,0.1,23.1,7.8,35.4,7.4
			c4-0.1,12.7-7.2,23.6-16.1c21.3-17.5,53.6-43.8,85.1-45.1c20.1-0.8,36.6,5,49.1,17.2c10,9.8,14.4,20.8,16.4,25.5l0.1,0.3
			c1.5,3.7,0.7,8.3-2.4,13.2c-2.3,3.6-4.9,6.2-5.1,6.3l-0.1,0.1l-0.2,0.1c-9.8,3.3-33.4-3.3-52.3-8.5c-10.6-3-19.8-5.5-23.3-5.4
			c-7.6,0.3-45.1,27.1-63.8,41.2l-0.2,0.1l-0.2,0C139.3,251.1,136.9,251.3,134.7,251.3z M67.2,226.1c1.4,0,3,0.3,4.5,1.1
			c10.4,5.2,40.2,16.9,40.5,17.1l0.1,0.1c0.1,0.1,11.8,7.1,29.1,4.9c4-3,54.7-41.1,64.6-41.4c3.8-0.1,12.6,2.3,23.8,5.4
			c18.6,5.2,41.7,11.6,51.1,8.6c1.2-1.2,9.9-10.2,6.9-17.6l-0.1-0.3c-1.9-4.6-6.2-15.4-16-25c-12.2-11.9-28.3-17.5-47.9-16.7
			c-31,1.3-62.9,27.5-84.1,44.8c-11.6,9.5-20,16.3-24.6,16.5c-12.2,0.4-33.5-6.7-35.8-7.5c-2.2,0.3-21.9,3.2-26.9,9.9
			c-0.9,1.2-1.2,2.4-1,3.6c0.3,1.9,0.8,2.5,1.2,2.7c0.8,0.4,2.6-0.8,4.5-2.1C59.8,228.4,63.3,226.1,67.2,226.1z"/>
	</g>
	<g>
		<path class="st1" d="M79.3,215.2l1.8-5.7l5.6,5.2l4.7-5.9l3.7,8l5.3-5.9l3.5,8.2l4.4-5.1l4.2,5.4l2.9-8.9l5.4,5.7l2-8.2l8.9,5.7
			c0,0-9.5,10.8-17.6,11.4C105.9,225.5,79.3,215.2,79.3,215.2z"/>
		<path d="M113.3,225.8c-8.9,0-33.3-9.4-34.3-9.9c-0.4-0.2-0.6-0.6-0.5-1l1.8-5.7c0.1-0.3,0.3-0.5,0.6-0.6c0.3-0.1,0.6,0,0.8,0.2
			l4.9,4.6l4.1-5.2c0.2-0.2,0.5-0.4,0.7-0.3c0.3,0,0.5,0.2,0.7,0.5l3.2,6.8l4.5-5c0.2-0.2,0.5-0.3,0.8-0.3c0.3,0,0.5,0.2,0.6,0.5
			l3,7l3.5-4.1c0.2-0.2,0.4-0.3,0.6-0.3c0.2,0,0.5,0.1,0.6,0.3l3.2,4.1l2.4-7.4c0.1-0.3,0.3-0.5,0.6-0.6c0.3-0.1,0.6,0,0.8,0.2
			l4.4,4.6l1.6-6.7c0.1-0.3,0.2-0.5,0.5-0.6c0.2-0.1,0.5-0.1,0.8,0.1l8.9,5.7c0.2,0.1,0.3,0.3,0.4,0.6c0,0.2,0,0.5-0.2,0.7
			c-0.4,0.5-9.8,11.1-18.2,11.6C113.8,225.8,113.6,225.8,113.3,225.8z M80.4,214.7c4.3,1.6,26.5,9.9,33.6,9.4
			c6.5-0.5,14.1-8,16.4-10.4l-7.1-4.5l-1.7,7c-0.1,0.3-0.3,0.5-0.6,0.6c-0.3,0.1-0.6,0-0.8-0.2l-4.5-4.7l-2.5,7.6
			c-0.1,0.3-0.3,0.5-0.6,0.6c-0.3,0.1-0.6-0.1-0.8-0.3l-3.6-4.6l-3.8,4.3c-0.2,0.2-0.5,0.3-0.8,0.3c-0.3,0-0.5-0.2-0.6-0.5l-3-7
			l-4.5,4.9c-0.2,0.2-0.5,0.3-0.7,0.3c-0.3,0-0.5-0.2-0.6-0.5l-3.1-6.7l-3.8,4.8c-0.1,0.2-0.4,0.3-0.6,0.3c-0.2,0-0.5-0.1-0.6-0.2
			l-4.6-4.3L80.4,214.7z"/>
	</g>
	<g>
		<polygon class="st1" points="131.6,213.6 129.5,202.6 136.4,204.4 137,193.9 145.8,201 		"/>
		<path d="M131.6,214.5c-0.1,0-0.2,0-0.3,0c-0.3-0.1-0.5-0.3-0.6-0.6l-2.1-11c-0.1-0.3,0-0.6,0.2-0.8c0.2-0.2,0.5-0.3,0.8-0.2
			l5.9,1.5l0.6-9.4c0-0.3,0.2-0.6,0.5-0.7c0.3-0.1,0.6-0.1,0.9,0.1l8.8,7c0.2,0.2,0.3,0.4,0.3,0.6c0,0.2-0.1,0.5-0.3,0.6l-14.2,12.7
			C132,214.4,131.8,214.5,131.6,214.5z M130.6,203.8l1.6,8.3l12.3-11l-6.8-5.4l-0.5,8.8c0,0.2-0.1,0.5-0.3,0.6
			c-0.2,0.1-0.5,0.2-0.7,0.1L130.6,203.8z"/>
	</g>
	<path d="M104.5,235.3c-0.2,0-0.3-0.1-0.5-0.2l-6.3-4.7c-0.4-0.3-0.4-0.8-0.2-1.2c0.3-0.4,0.8-0.4,1.2-0.2l6.3,4.7
		c0.4,0.3,0.4,0.8,0.2,1.2C105,235.2,104.7,235.3,104.5,235.3z"/>
	<path d="M124.5,243.2c-0.1,0-0.2,0-0.2,0l-7.1-2.2c-0.3-0.1-0.5-0.3-0.5-0.5l-1.7-5.1c-0.1-0.4,0.1-0.9,0.5-1
		c0.4-0.1,0.9,0.1,1,0.5l1.5,4.7l6.7,2.1c0.4,0.1,0.7,0.6,0.5,1C125.2,243,124.9,243.2,124.5,243.2z"/>
	<path d="M125.9,232.8c-0.3,0-0.6-0.2-0.7-0.4c-0.2-0.4-0.1-0.9,0.3-1.1l8.7-4.7c0.2-0.1,0.4-0.1,0.6-0.1l3.6,0.7
		c0.4,0.1,0.7,0.5,0.6,1c-0.1,0.4-0.5,0.7-1,0.6l-3.3-0.7l-8.5,4.6C126.2,232.8,126.1,232.8,125.9,232.8z"/>
	<path d="M134.2,221c-0.4,0-0.8-0.3-0.8-0.8c0-0.5,0.3-0.9,0.8-0.9l6.8-0.5c0.5,0,0.9,0.3,0.9,0.8c0,0.5-0.3,0.9-0.8,0.9L134.2,221
		C134.2,221,134.2,221,134.2,221z"/>
	<path d="M90.4,232.1c-0.3,0-0.7-0.2-0.8-0.5l-1.6-4.2l-8.5-4.2c-0.4-0.2-0.6-0.7-0.4-1.1c0.2-0.4,0.7-0.6,1.1-0.4L89,226
		c0.2,0.1,0.3,0.3,0.4,0.5l1.7,4.6c0.2,0.4-0.1,0.9-0.5,1.1C90.5,232.1,90.4,232.1,90.4,232.1z"/>
	<path d="M72.4,223.8c-0.1,0-0.2,0-0.2,0l-4.3-1.3c-0.4-0.1-0.7-0.6-0.5-1c0.1-0.4,0.6-0.7,1-0.5l4.3,1.3c0.4,0.1,0.7,0.6,0.5,1
		C73.1,223.5,72.7,223.8,72.4,223.8z"/>
	<path d="M54.9,228.1c-0.3,0-0.6-0.1-0.7-0.4c-0.2-0.4-0.1-0.9,0.3-1.1l3.8-2.4c0.4-0.2,0.9-0.1,1.1,0.3c0.2,0.4,0.1,0.9-0.3,1.1
		l-3.8,2.4C55.2,228.1,55,228.1,54.9,228.1z"/>
</g>
<g>
	<g>
		<path class="st2" d="M12.5,133.7c0,0,26.5,6.1,24.9,33.4c0,0,30.1-14,42.2,25.1c0,0,18.6-17.7,36.4,3.6c0,0,23.5-8.5,34.1-1.9
			l-19.5-35.5l-56.4-46.4l-35.7,0.1L12.5,133.7z"/>
		<path d="M116,196.5c-0.2,0-0.5-0.1-0.6-0.3c-5.4-6.4-11.3-9.8-17.6-10.2c-9.9-0.5-17.5,6.6-17.6,6.6c-0.2,0.2-0.5,0.3-0.8,0.2
			c-0.3-0.1-0.5-0.3-0.6-0.6c-3.9-12.7-10.2-21-18.6-24.7c-11.2-5-22.4,0.1-22.5,0.2c-0.3,0.1-0.6,0.1-0.8-0.1
			c-0.2-0.2-0.4-0.4-0.4-0.7c0.7-11-3.2-19.8-11.4-26.2c-6.2-4.8-12.7-6.3-12.8-6.3c-0.3-0.1-0.5-0.3-0.6-0.6s0-0.6,0.3-0.8
			l26.1-21.6c0.1-0.1,0.3-0.2,0.5-0.2l35.7-0.1c0,0,0,0,0,0c0.2,0,0.4,0.1,0.5,0.2l56.4,46.4c0.1,0.1,0.1,0.1,0.2,0.2l19.5,35.5
			c0.2,0.3,0.1,0.7-0.2,1c-0.3,0.3-0.7,0.3-1,0.1c-10.1-6.3-33.2,1.9-33.4,2C116.2,196.5,116.1,196.5,116,196.5z M96.6,184.4
			c0.4,0,0.8,0,1.2,0c6.7,0.4,12.9,3.8,18.5,10.3c3.4-1.2,21.3-6.9,31.9-2.8l-18.1-33L74,112.8l-35.1,0.1l-24.6,20.4
			c2.4,0.8,7.1,2.6,11.8,6.2c5.8,4.5,12.6,12.6,12.2,26.3c3.3-1.2,12.8-4,22.6,0.3c8.6,3.8,15,12.1,19.1,24.6
			C82.4,188.8,88.6,184.4,96.6,184.4z"/>
	</g>
	<g>
		<path class="st3" d="M144.9,164.3l-44.8-36.2c-0.8-0.7-1.5-1.4-2.1-2.3l-8.5-12.9c-2.1-3.1-5.6-5.1-9.3-5.2
			c-6.1-0.2-15.3-0.4-19.1-0.4c-49.5-0.1-55.8,31-55.8,31s48.5-26.3,67.6-16s7.8,11.5,17.7,16.1c9.9,4.6,52.6,41.1,52.6,41.1
			L144.9,164.3z"/>
		<path d="M143.2,180.3c-0.2,0-0.4-0.1-0.5-0.2c-0.4-0.4-42.7-36.5-52.4-41c-4.2-2-4.9-3.4-5.5-5.5c-0.7-2.2-1.5-4.9-12.2-10.7
			c-9.6-5.2-27.2-0.6-40.3,4.2C17.9,132.4,5.8,138.9,5.6,139c-0.3,0.2-0.6,0.1-0.9-0.1c-0.3-0.2-0.4-0.5-0.3-0.8
			c0.1-0.3,1.7-8.1,9.6-15.9c13-13,32.6-15.7,46.8-15.7c0.1,0,0.1,0,0.2,0c3.8,0,12.5,0.2,19.1,0.4c4,0.1,7.8,2.2,10,5.5l8.5,12.9
			c0.5,0.8,1.2,1.5,1.9,2.1l44.8,36.2c0.2,0.2,0.3,0.5,0.3,0.7l-1.7,15.2c0,0.3-0.2,0.6-0.5,0.7
			C143.4,180.3,143.3,180.3,143.2,180.3z M61.3,119c4.5,0,8.6,0.7,11.9,2.5c11.4,6.1,12.3,9.2,13,11.7c0.5,1.5,0.8,2.6,4.6,4.4
			c9.1,4.2,44.5,34.1,51.6,40.2l1.5-13.2l-44.5-35.9c-0.9-0.7-1.6-1.6-2.3-2.5l-8.5-12.9c-1.9-2.9-5.2-4.7-8.6-4.8
			c-6.6-0.2-15.3-0.4-19.1-0.4c-0.1,0-0.1,0-0.2,0c-13.9,0-33,2.6-45.6,15.1c-5.3,5.3-7.7,10.6-8.6,13.3
			C13.9,132.8,41.8,119,61.3,119z"/>
	</g>
	<g>
		<path class="st2" d="M37.4,167c0,0,19.6-28.1,47.2-33.4"/>
		<path d="M37.4,167.9c-0.2,0-0.3,0-0.5-0.1c-0.4-0.3-0.5-0.8-0.2-1.2c0.2-0.3,20.1-28.5,47.7-33.8c0.5-0.1,0.9,0.2,1,0.7
			c0.1,0.5-0.2,0.9-0.7,1c-26.9,5.2-46.4,32.8-46.6,33.1C37.9,167.7,37.7,167.9,37.4,167.9z"/>
	</g>
	<g>
		<path class="st2" d="M79.6,192.1c0,0,7.3-37.4,25.7-43.6"/>
		<path d="M79.6,192.9c-0.1,0-0.1,0-0.2,0c-0.5-0.1-0.7-0.5-0.7-1c0-0.1,1.9-9.5,6-19.6c5.6-13.7,12.4-21.9,20.2-24.6
			c0.4-0.1,0.9,0.1,1.1,0.5c0.1,0.4-0.1,0.9-0.5,1.1c-17.7,6-25,42.6-25.1,42.9C80.4,192.7,80,192.9,79.6,192.9z"/>
	</g>
	<g>
		<path class="st2" d="M116,195.7c0,0-4.8-15.6,2.4-36.7"/>
		<path d="M116,196.5c-0.4,0-0.7-0.2-0.8-0.6c-0.2-0.6-4.8-16.1,2.4-37.2c0.1-0.4,0.6-0.7,1.1-0.5c0.4,0.1,0.7,0.6,0.5,1.1
			c-7.1,20.6-2.5,36-2.4,36.2c0.1,0.4-0.1,0.9-0.5,1C116.2,196.5,116.1,196.5,116,196.5z"/>
	</g>
	<path d="M126.2,155.1c-0.2,0-0.3-0.1-0.5-0.2l-5-3.7c-0.4-0.3-0.4-0.8-0.2-1.2c0.3-0.4,0.8-0.4,1.2-0.2l5,3.7
		c0.4,0.3,0.4,0.8,0.2,1.2C126.7,155,126.5,155.1,126.2,155.1z"/>
	<path d="M120.3,155.2c-0.1,0-0.3,0-0.4-0.1l-3.3-2c-0.1-0.1-0.2-0.2-0.3-0.3l-4.7-7.9c-0.2-0.4-0.1-0.9,0.3-1.1
		c0.4-0.2,0.9-0.1,1.1,0.3l4.6,7.8l3.1,1.9c0.4,0.2,0.5,0.8,0.3,1.1C120.9,155.1,120.6,155.2,120.3,155.2z"/>
	<path d="M104.5,139.3c-0.3,0-0.6-0.2-0.8-0.5l-1.6-3.6l-5.7-3.6c-0.4-0.2-0.5-0.8-0.3-1.1c0.2-0.4,0.8-0.5,1.1-0.3l5.9,3.7
		c0.1,0.1,0.2,0.2,0.3,0.4l1.7,3.8c0.2,0.4,0,0.9-0.4,1.1C104.7,139.3,104.6,139.3,104.5,139.3z"/>
	<path d="M104.2,144c-0.2,0-0.4-0.1-0.6-0.3l-3.8-4.1c-0.3-0.3-0.3-0.9,0.1-1.2c0.3-0.3,0.9-0.3,1.2,0.1l3.8,4.1
		c0.3,0.3,0.3,0.9-0.1,1.2C104.6,143.9,104.4,144,104.2,144z"/>
	<path d="M90.1,124.2c-0.3,0-0.5-0.1-0.7-0.4l-4.3-6.8l-5.9-1.8c-0.4-0.1-0.7-0.6-0.5-1c0.1-0.4,0.6-0.7,1-0.5l6.1,1.9
		c0.2,0.1,0.3,0.2,0.5,0.3l4.5,7c0.2,0.4,0.1,0.9-0.3,1.1C90.4,124.1,90.2,124.2,90.1,124.2z"/>
	<path d="M75.5,119.1c-0.1,0-0.2,0-0.4-0.1l-10.2-4.8c-0.4-0.2-0.6-0.7-0.4-1.1c0.2-0.4,0.7-0.6,1.1-0.4l10.2,4.8
		c0.4,0.2,0.6,0.7,0.4,1.1C76.1,118.9,75.8,119.1,75.5,119.1z"/>
	<path d="M46.6,115.3c-0.3,0-0.7-0.2-0.8-0.6c-0.1-0.4,0.1-0.9,0.5-1.1l10.4-3.6c0.4-0.1,0.9,0.1,1.1,0.5c0.1,0.4-0.1,0.9-0.5,1.1
		l-10.4,3.6C46.8,115.3,46.7,115.3,46.6,115.3z"/>
	<path d="M20.4,122.3c-0.4,0-0.8-0.4-0.8-0.8c0-0.5,0.3-0.8,0.8-0.9l10.4-0.4l5.5-4.9c0.3-0.3,0.9-0.3,1.2,0.1
		c0.3,0.3,0.3,0.9-0.1,1.2l-5.8,5.1c-0.1,0.1-0.3,0.2-0.5,0.2L20.4,122.3C20.4,122.3,20.4,122.3,20.4,122.3z"/>
</g>
<g>
	<g>
		<path class="st4" d="M198.4,210.7c0,0-13,11.2-12.4,19.6c0.4,5.9,2.3,16.7,2.9,20.4c0.3,1.8,1,3.6,2.1,5c2.7,3.4,8.1,9.2,14.9,9.1
			c9.7-0.1,18.1,5.5,18.1,5.5l-7.7,15.1l14.6-1c0,0,0.9-16.2,4.6-18.2c3.7-2-1.2-9.7-5.6-10.2c-4.4-0.6-7.1-2.2-7.1-2.2l-9.7-3.9
			c0,0,6.1-20.3,7.5-33.6"/>
		<path d="M216.3,286.4c-0.3,0-0.5-0.1-0.7-0.4c-0.2-0.2-0.2-0.6,0-0.8l7.3-14.4c-2.1-1.2-9-5-16.7-5c-0.1,0-0.2,0-0.3,0
			c0,0-0.1,0-0.1,0c-7.1,0-12.7-5.9-15.4-9.4c-1.2-1.6-2-3.4-2.3-5.4c-0.1-0.8-0.3-1.8-0.5-3.1c-0.8-4.7-2-12.7-2.4-17.4
			c-0.6-8.8,12.2-19.9,12.7-20.3c0.3-0.3,0.9-0.3,1.2,0.1c0.3,0.3,0.3,0.9-0.1,1.2c-0.1,0.1-12.7,11-12.1,18.9
			c0.3,4.7,1.6,12.5,2.4,17.3c0.2,1.3,0.4,2.3,0.5,3.1c0.3,1.7,0.9,3.3,2,4.7c2.5,3.3,7.7,8.8,14.1,8.8c0,0,0.1,0,0.1,0
			c0.1,0,0.2,0,0.3,0c9.7,0,17.9,5.4,18.3,5.7c0.3,0.2,0.5,0.7,0.3,1.1l-7,13.8l12.4-0.9c0.1-1.4,0.4-4.5,0.9-7.7
			c1-6.1,2.3-9.5,4.1-10.5c0.8-0.4,1-1.2,0.8-2.3c-0.5-2.6-3.4-6-6.1-6.4c-4.2-0.5-7-2-7.4-2.2l-9.6-3.9c-0.4-0.2-0.6-0.6-0.5-1
			c0.1-0.2,6-20.4,7.4-33.4c0-0.5,0.5-0.8,0.9-0.7c0.5,0,0.8,0.5,0.7,0.9c-1.3,11.7-6.2,29.2-7.3,33l9,3.6c0,0,0.1,0,0.1,0.1
			c0,0,2.7,1.5,6.8,2.1c3.5,0.5,6.9,4.5,7.5,7.7c0.4,1.8-0.2,3.3-1.6,4.1c-2.4,1.3-3.8,11.5-4.2,17.5c0,0.4-0.4,0.8-0.8,0.8
			L216.3,286.4C216.4,286.4,216.3,286.4,216.3,286.4z"/>
	</g>
	<g>
		<path class="st4" d="M224.2,281.3c0,0-6.4,1.5-6.3,2.8c0.1,1.3,1.9,8.7,1.9,8.7l5.4,2l-0.1-9.9"/>
		<path d="M225.1,295.7c-0.1,0-0.2,0-0.3-0.1l-5.4-2c-0.3-0.1-0.4-0.3-0.5-0.6c-0.2-0.8-1.8-7.5-1.9-8.9c0-0.5-0.1-2,7-3.7
			c0.4-0.1,0.9,0.2,1,0.6c0.1,0.4-0.2,0.9-0.6,1c-2.6,0.6-5.2,1.6-5.7,2.1c0.1,1.1,1.1,5.2,1.8,8l3.8,1.4l-0.1-8.7
			c0-0.5,0.4-0.8,0.8-0.8c0,0,0,0,0,0c0.5,0,0.8,0.4,0.8,0.8l0.1,9.9c0,0.3-0.1,0.5-0.4,0.7C225.4,295.6,225.3,295.7,225.1,295.7z"
			/>
	</g>
</g>
<g>
	<g>
		<path class="st5" d="M153.9,214.5c0,0-7.4,3.9-8.1,12c-0.6,8.1-9.3,9.5-13.6,17c-4.3,7.6-12.3,19.4-12.3,19.4s12.5,11.2,17.6,6.8
			c5.1-4.4,18.6-23.4,18.6-23.4l17.7-8L153.9,214.5z"/>
		<path d="M134.5,271.6c-2.2,0-4.9-1-8.1-2.9c-3.8-2.3-6.9-5-7-5.2l-0.5-0.5l0.4-0.6c0.1-0.1,8.1-11.9,12.3-19.3
			c1.9-3.3,4.7-5.5,7.1-7.5c3.3-2.6,6.1-4.9,6.4-9.2c0.7-8.5,8.2-12.5,8.5-12.7l0.6-0.3l21.1,25.2l-18.5,8.3
			c-1.5,2.1-13.7,19.2-18.6,23.4C137.1,271.2,135.9,271.6,134.5,271.6z M121,262.8c3.7,3.2,12.4,9.4,16,6.3
			c5-4.3,18.4-23.1,18.5-23.3l0.1-0.2l16.9-7.6l-18.8-22.5c-1.7,1.1-6.6,4.8-7,11c-0.4,5-3.6,7.6-7,10.3c-2.4,1.9-4.9,3.9-6.7,7
			C129.2,250.5,122.7,260.3,121,262.8z"/>
	</g>
	<g>
		<path class="st5" d="M113.3,263.1c0,0,6.3-7.7,9.7-4.8c3.3,2.8,11.3,9.5,11.3,9.5s8.6-1.3,10.8,2.3c2.2,3.6,3.2,10,3.2,10
			l-8.3,7.1l-0.4-8.9l-4.5-3.1l-5.5,3.5l-8.5,0.3l-7.1,0.5l-8.3-8.8L113.3,263.1z"/>
		<path d="M139.9,288c-0.1,0-0.2,0-0.3-0.1c-0.3-0.1-0.5-0.4-0.5-0.7l-0.4-8.5l-3.7-2.5l-5.1,3.2c-0.1,0.1-0.3,0.1-0.4,0.1l-8.5,0.3
			l-7.1,0.5c-0.3,0-0.5-0.1-0.7-0.3l-8.3-8.8c-0.3-0.3-0.3-0.8,0-1.2l7.7-7.6c0.4-0.5,4.6-5.4,8.2-5.7c1-0.1,1.9,0.2,2.6,0.8
			c3,2.5,9.5,8,11,9.3c1.9-0.2,9-0.9,11.2,2.7c2.2,3.7,3.3,10,3.3,10.3c0,0.3-0.1,0.6-0.3,0.8l-8.3,7.1
			C140.3,287.9,140.1,288,139.9,288z M135,274.4c0.2,0,0.3,0,0.5,0.1l4.5,3.1c0.2,0.1,0.4,0.4,0.4,0.7l0.3,7.2l6.6-5.7
			c-0.3-1.5-1.3-6.4-3-9.2c-1.5-2.5-7.7-2.2-9.9-1.9c-0.2,0-0.5,0-0.7-0.2c0,0-7.9-6.7-11.3-9.5c-0.4-0.3-0.9-0.5-1.4-0.4
			c-2.5,0.2-5.9,3.8-7,5.2c0,0,0,0-0.1,0.1l-7.2,7l7.5,7.9l6.7-0.5l8.3-0.3l5.3-3.4C134.7,274.4,134.8,274.4,135,274.4z
			 M113.3,263.1L113.3,263.1L113.3,263.1z"/>
	</g>
	<g>
		<polyline class="st5" points="122.9,258.3 113.6,249.6 99.3,250.6 110.4,256.5 117.7,263.2 		"/>
		<path d="M117.7,264c-0.2,0-0.4-0.1-0.6-0.2l-7.2-6.6l-11-5.8c-0.3-0.2-0.5-0.5-0.4-0.9c0.1-0.4,0.4-0.6,0.8-0.7l14.3-1
			c0.2,0,0.5,0.1,0.6,0.2l9.4,8.7c0.3,0.3,0.4,0.8,0,1.2c-0.3,0.3-0.8,0.4-1.2,0l-9.1-8.4l-11.1,0.8l8.5,4.5c0.1,0,0.1,0.1,0.2,0.1
			l7.3,6.7c0.3,0.3,0.4,0.8,0.1,1.2C118.1,263.9,117.9,264,117.7,264z"/>
	</g>
	<g>
		<polyline class="st5" points="115.5,262.9 104.6,257.2 92.3,258.8 102.7,263.2 109.5,267.8 		"/>
		<path d="M109.5,268.6c-0.2,0-0.3,0-0.5-0.1l-6.7-4.5l-10.4-4.4c-0.3-0.1-0.6-0.5-0.5-0.9s0.3-0.7,0.7-0.7l12.3-1.6
			c0.2,0,0.3,0,0.5,0.1l10.9,5.7c0.4,0.2,0.6,0.7,0.4,1.1c-0.2,0.4-0.7,0.6-1.1,0.4l-10.7-5.6l-9,1.2l7.7,3.2c0.1,0,0.1,0,0.1,0.1
			l6.8,4.6c0.4,0.3,0.5,0.8,0.2,1.2C110,268.5,109.8,268.6,109.5,268.6z"/>
	</g>
	<g>
		<polyline class="st5" points="107.7,268.6 96.5,269.4 93.6,278.4 100.7,273.5 109.2,274.7 		"/>
		<path d="M93.6,279.2c-0.2,0-0.3-0.1-0.5-0.2c-0.3-0.2-0.4-0.6-0.3-0.9l2.8-9c0.1-0.3,0.4-0.6,0.7-0.6l11.2-0.8
			c0.5,0,0.9,0.3,0.9,0.8c0,0.5-0.3,0.9-0.8,0.9l-10.6,0.7l-1.9,6.1l5-3.5c0.2-0.1,0.4-0.2,0.6-0.1l8.6,1.1c0.5,0.1,0.8,0.5,0.7,0.9
			c-0.1,0.5-0.5,0.8-0.9,0.7l-8.2-1.1l-6.8,4.7C94,279.2,93.8,279.2,93.6,279.2z"/>
	</g>
	<path d="M140.1,255.5C140.1,255.5,140,255.5,140.1,255.5c-0.6-0.1-0.9-0.5-0.8-0.9l0.8-6.6c0-0.4,0.3-0.7,0.7-0.7l5.7-0.8
		c0.5-0.1,0.9,0.3,0.9,0.7c0.1,0.5-0.3,0.9-0.7,0.9l-5.1,0.7l-0.7,6C140.9,255.2,140.5,255.5,140.1,255.5z"/>
	<path d="M148.6,241.5c-0.4,0-0.8-0.3-0.8-0.8c0-0.5,0.3-0.9,0.8-0.9l4.9-0.3l2.2-5.1c0.2-0.4,0.7-0.6,1.1-0.4
		c0.4,0.2,0.6,0.7,0.4,1.1l-2.4,5.5c-0.1,0.3-0.4,0.5-0.7,0.5L148.6,241.5C148.6,241.5,148.6,241.5,148.6,241.5z"/>
	<path d="M153.2,229.8c0,0-0.1,0-0.1,0c-0.5-0.1-0.8-0.5-0.7-0.9l0.7-6.1c0.1-0.5,0.5-0.8,0.9-0.7c0.5,0.1,0.8,0.5,0.7,0.9L154,229
		C154,229.5,153.6,229.8,153.2,229.8z"/>
	<path d="M131.7,252.6c-0.1,0-0.2,0-0.3-0.1c-0.4-0.2-0.6-0.7-0.5-1.1l2.2-5.7c0.1-0.1,0.2-0.3,0.3-0.4l6.5-4.8
		c0.4-0.3,0.9-0.2,1.2,0.2c0.3,0.4,0.2,0.9-0.2,1.2l-6.3,4.7l-2.2,5.5C132.3,252.4,132,252.6,131.7,252.6z"/>
</g>
<g>
	<polygon class="st3" points="153.4,162.7 139.9,156.3 139.4,164.6 130.7,158.3 133.3,169.8 125.4,168.9 132,176.3 134.7,187.5 
		153,214.6 161.5,218.5 	"/>
	<path d="M161.5,219.3c-0.1,0-0.2,0-0.3-0.1l-8.4-3.9c-0.1-0.1-0.3-0.2-0.3-0.3L134,188c-0.1-0.1-0.1-0.2-0.1-0.3l-2.7-11l-6.5-7.3
		c-0.2-0.3-0.3-0.6-0.1-0.9s0.5-0.5,0.8-0.4l6.8,0.8l-2.4-10.3c-0.1-0.3,0.1-0.7,0.4-0.9c0.3-0.2,0.7-0.2,0.9,0l7.5,5.4l0.4-6.8
		c0-0.3,0.2-0.5,0.4-0.7c0.2-0.1,0.5-0.2,0.8,0l13.5,6.4c0.3,0.1,0.4,0.4,0.5,0.6l8,55.8c0,0.3-0.1,0.6-0.3,0.8
		C161.8,219.3,161.6,219.3,161.5,219.3z M153.6,214l6.8,3.1l-7.7-53.8l-12-5.7l-0.4,7.1c0,0.3-0.2,0.6-0.5,0.7
		c-0.3,0.1-0.6,0.1-0.8-0.1l-6.9-5l2.1,9.3c0.1,0.3,0,0.5-0.2,0.7c-0.2,0.2-0.4,0.3-0.7,0.3l-5.8-0.7l5.2,5.8
		c0.1,0.1,0.2,0.2,0.2,0.4l2.7,11.1L153.6,214z"/>
</g>
<g>
	<path class="st4" d="M222.3,260.3c0,0,16.1-13.1,28.6-12.1c12.6,1,22.1-5.9,28.3-23.1c6.2-17.2-5.8-40.7-17.8-45.6
		c-12.1-4.9-94.4,18.3-94.4,18.3L222.3,260.3z"/>
	<path d="M222.3,261.1c-0.2,0-0.5-0.1-0.6-0.3l-55.3-62.5c-0.2-0.2-0.3-0.5-0.2-0.8c0.1-0.3,0.3-0.5,0.6-0.6
		c3.4-1,82.8-23.2,94.9-18.3c6.1,2.5,12.3,9.6,16.2,18.6c4.2,9.8,5,20,2.1,28c-6.1,16.9-15.7,24.6-29.1,23.6
		c-12.1-0.9-27.9,11.8-28,11.9C222.7,261,222.5,261.1,222.3,261.1z M168.5,198.3l53.9,60.9c1.3-1,4.7-3.5,9.1-6
		c7.6-4.3,14.1-6.2,19.5-5.8c12.6,1,21.6-6.4,27.4-22.5c6.3-17.4-6.4-40.1-17.4-44.5c-3.3-1.4-14.9-1.2-51.2,7.3
		C191.1,192,173.3,196.9,168.5,198.3z"/>
</g>
<path d="M250.5,195.9c-0.4,0-0.8-0.3-0.8-0.7c-0.1-0.5,0.2-0.9,0.7-1l3.6-0.6c0.5-0.1,0.9,0.2,1,0.7c0.1,0.5-0.2,0.9-0.7,1l-3.6,0.6
	C250.6,195.9,250.6,195.9,250.5,195.9z"/>
<g>
	<g>
		<path class="st2" d="M238.5,168.9l2.2,11l9.8,15.2l22.1-3.6c0,0,25.2-4.9,35.1-0.7c0,0-4.9-19,7.7-26.4c10.1-6,35.6,1.4,35.6,1.4
			s-18.1-26.3-3.3-36.7c9.6-6.7,34.8-8.4,34.8-8.4s-25-37-5.9-44.9L359.9,73L288,97.1"/>
		<path d="M250.5,195.9c-0.3,0-0.5-0.1-0.7-0.4l-9.8-15.2c-0.1-0.1-0.1-0.2-0.1-0.3l-2.2-11c-0.1-0.5,0.2-0.9,0.7-1
			c0.5-0.1,0.9,0.2,1,0.7l2.2,10.8l9.4,14.6l21.5-3.6c1-0.2,23.4-4.5,34.1-1.2c-0.8-4.7-2.5-19.4,8.4-25.8
			c8.7-5.2,27.8-0.9,34.2,0.7c-1.5-2.5-4.3-7.3-6.1-12.8c-3.6-10.7-2.2-18.7,4.2-23.2c8.4-6,28.3-8,33.8-8.5c-1.4-2.2-4.4-7-7-12.8
			c-4.9-10.5-6.5-18.7-4.8-24.5c0.8-2.8,2.4-4.9,4.8-6.5l-14-2.2l-71.7,24.1c-0.4,0.1-0.9-0.1-1.1-0.5c-0.1-0.4,0.1-0.9,0.5-1.1
			l71.9-24.1c0.1,0,0.3-0.1,0.4,0l16.7,2.7c0.4,0.1,0.7,0.4,0.7,0.7c0,0.4-0.2,0.7-0.5,0.9c-3.2,1.3-5.2,3.5-6.1,6.6
			c-3.9,12.9,12.2,36.8,12.3,37.1c0.2,0.2,0.2,0.6,0.1,0.8c-0.1,0.3-0.4,0.4-0.7,0.5c-0.3,0-25.1,1.8-34.4,8.3
			c-14,9.9,3.3,35.3,3.5,35.6c0.2,0.3,0.2,0.7,0,1c-0.2,0.3-0.6,0.4-0.9,0.3c-0.3-0.1-25.2-7.2-34.9-1.4c-4.9,2.9-7.7,8.1-8.1,15.3
			c-0.3,5.5,0.8,10.1,0.8,10.2c0.1,0.3,0,0.6-0.3,0.8c-0.2,0.2-0.6,0.3-0.9,0.1c-9.6-4-34.3,0.7-34.6,0.7l-22.1,3.6
			C250.6,195.9,250.6,195.9,250.5,195.9z"/>
	</g>
	<path d="M307.7,191.6c-0.3,0-0.5-0.1-0.7-0.3c-0.2-0.3-22.6-30-39-40.1c-0.4-0.2-0.5-0.8-0.3-1.1c0.2-0.4,0.8-0.5,1.1-0.3
		c7,4.3,15.8,12.5,26.1,24.2c7.7,8.7,13.3,16.3,13.4,16.4c0.3,0.4,0.2,0.9-0.2,1.2C308,191.5,307.8,191.6,307.7,191.6z"/>
	<g>
		<path class="st3" d="M258.9,137.8l19-29.3l-4.3-13.6c0,0-2.3-6.4,1.2-8c3.4-1.6,8.3-4.3,8.3-4.3s84.7-22.3,91.9-15.2
			c0,0,9.3,4.2,11.5,8.3l-16.6-0.2c0,0-79.6,18-78.5,22.4c1.1,4.3,4.2,13.5,4.2,13.5l-19.2,27.4c0,0-23.6,36.1-30.8,35.6l-6.9-17.2
			L258.9,137.8z"/>
		<path d="M245.7,175.3c-0.1,0-0.1,0-0.2,0c-0.3,0-0.6-0.2-0.7-0.5l-6.9-17.2c-0.1-0.3,0-0.7,0.2-0.9l20.2-19.3l18.7-28.8l-4.1-13.3
			c-0.1-0.3-2.5-7.1,1.6-9c3.4-1.6,8.2-4.2,8.2-4.3c0.1,0,0.1-0.1,0.2-0.1c0.2-0.1,21.4-5.6,43.3-10.3c43.3-9.2,48-6,49.3-4.8
			c1.2,0.6,9.6,4.5,11.7,8.6c0.1,0.3,0.1,0.6,0,0.8c-0.2,0.2-0.4,0.4-0.7,0.4c0,0,0,0,0,0L370,76.4c-36.1,8.2-75.3,18.4-77.8,21.5
			c1.1,4.3,4.1,13.2,4.2,13.3c0.1,0.3,0,0.5-0.1,0.7l-19.2,27.4C274.6,143,253.3,175.3,245.7,175.3z M239.6,157.4l6.5,16.2
			c5.4-1,20.8-21.8,29.5-35.2l19-27.1c-0.6-1.8-3.2-9.3-4.1-13.2c-0.1-0.2-0.1-0.6,0.2-1c0.6-0.9,2.1-3.4,40.9-13.2
			c19-4.8,37.9-9.1,38.1-9.2c0.1,0,0.1,0,0.2,0l15,0.2c-2.9-3.4-10.1-6.6-10.2-6.7c-0.1,0-0.2-0.1-0.3-0.2c-5-5-57.1,6.4-91,15.3
			c-0.7,0.4-5.1,2.7-8.2,4.3c-2.7,1.3-0.8,6.9-0.7,7l4.3,13.7c0.1,0.2,0,0.5-0.1,0.7l-19,29.3c0,0.1-0.1,0.1-0.1,0.1L239.6,157.4z
			 M258.9,137.8L258.9,137.8L258.9,137.8z"/>
	</g>
	<g>
		<polyline class="st3" points="214.9,183.1 218.2,170.3 219.9,175.7 225.9,158.8 227.7,164.5 232,157.7 232.2,141.1 239,149.6 
			243.9,137.4 246.9,143.6 251.7,140.1 258.9,137.8 245.7,157.5 245.5,178.8 257.9,192.8 272.6,191.5 261.5,200.8 241.9,201 
			214.8,184 		"/>
		<path d="M241.9,201.9c-0.2,0-0.3,0-0.4-0.1l-27.1-17.1c-0.4-0.2-0.5-0.8-0.3-1.1c0,0,0,0,0-0.1c-0.1-0.2-0.1-0.4-0.1-0.6l3.3-12.7
			c0.1-0.4,0.4-0.6,0.8-0.6c0,0,0,0,0,0c0.4,0,0.7,0.2,0.8,0.6l0.9,2.9l5.2-14.5c0.1-0.3,0.4-0.6,0.8-0.6c0.4,0,0.7,0.2,0.8,0.6
			l1.2,4l3.3-5.1l0.2-16.4c0-0.4,0.2-0.7,0.6-0.8c0.3-0.1,0.7,0,0.9,0.3l5.9,7.4l4.4-10.8c0.1-0.3,0.4-0.5,0.7-0.5
			c0.3,0,0.6,0.2,0.8,0.5l2.6,5.3l4-2.9c0.1-0.1,0.2-0.1,0.2-0.1l7.3-2.3c0.3-0.1,0.7,0,0.9,0.3c0.2,0.3,0.2,0.7,0,1l-13.1,19.5
			l-0.2,20.7l11.9,13.4l14.3-1.3c0.4,0,0.7,0.2,0.8,0.5s0,0.7-0.2,1l-11.1,9.3c-0.1,0.1-0.3,0.2-0.5,0.2L241.9,201.9
			C242,201.9,242,201.9,241.9,201.9z M215.6,183.5l26.6,16.7l19-0.3l8.8-7.4l-12.1,1.1c-0.3,0-0.5-0.1-0.7-0.3l-12.4-14
			c-0.1-0.2-0.2-0.4-0.2-0.6l0.2-21.2c0-0.2,0.1-0.3,0.1-0.5l11.9-17.7l-4.9,1.5l-4.6,3.4c-0.2,0.1-0.5,0.2-0.7,0.1
			c-0.2-0.1-0.4-0.2-0.5-0.4l-2.2-4.5l-4.2,10.4c-0.1,0.3-0.4,0.5-0.7,0.5c-0.3,0-0.6-0.1-0.8-0.3l-5.3-6.7l-0.2,14.3
			c0,0.2,0,0.3-0.1,0.4l-4.4,6.8c-0.2,0.3-0.5,0.4-0.8,0.4c-0.3,0-0.6-0.3-0.7-0.6l-1-3.3l-5.2,14.5c-0.1,0.3-0.5,0.6-0.8,0.6
			c-0.4,0-0.7-0.2-0.8-0.6l-0.8-2.6l-2.6,9.9C215.7,183.3,215.6,183.4,215.6,183.5z"/>
	</g>
	<path d="M382.4,121.4c-0.2,0-0.4-0.1-0.5-0.2c-31.6-27.6-89.9-22.5-90.5-22.4c-0.4,0-0.9-0.3-0.9-0.7c0-0.5,0.3-0.9,0.7-0.9
		c0.1,0,15-1.4,33.6,0.7c17.2,2,41.3,7.4,58.1,22.1c0.3,0.3,0.4,0.8,0.1,1.2C382.9,121.3,382.7,121.4,382.4,121.4z"/>
	<path d="M350.9,166.6c-0.2,0-0.4-0.1-0.6-0.2c-0.5-0.4-45.7-40.8-63.6-41.5c-0.5,0-0.8-0.4-0.8-0.9c0-0.5,0.4-0.8,0.9-0.8
		c7.8,0.3,21.1,7.5,39.4,21.3c13.6,10.2,25.1,20.5,25.2,20.6c0.3,0.3,0.4,0.8,0.1,1.2C351.4,166.5,351.2,166.6,350.9,166.6z"/>
	<path d="M231.2,174.9c-0.4,0-0.8-0.3-0.8-0.8l-0.5-7c0-0.5,0.3-0.9,0.8-0.9c0.5,0,0.9,0.3,0.9,0.8l0.5,7
		C232,174.5,231.7,174.9,231.2,174.9C231.2,174.9,231.2,174.9,231.2,174.9z"/>
	<path d="M236,185.6c0,0-0.1,0-0.1,0c-0.5-0.1-0.8-0.5-0.7-0.9l1.4-9.8c0.1-0.5,0.5-0.8,0.9-0.7c0.5,0.1,0.8,0.5,0.7,0.9l-1.4,9.8
		C236.8,185.3,236.4,185.6,236,185.6z"/>
	<path d="M242.9,191.8c-0.2,0-0.4-0.1-0.5-0.2c-0.3-0.3-0.4-0.8-0.1-1.2l3.5-4c0.3-0.3,0.8-0.4,1.2-0.1c0.3,0.3,0.4,0.8,0.1,1.2
		l-3.5,4C243.4,191.7,243.2,191.8,242.9,191.8z"/>
	<path d="M237.5,154.7c-0.4,0-0.8-0.3-0.8-0.8c0-0.5,0.3-0.9,0.8-0.9l6.6-0.5c0.5,0,0.9,0.3,0.9,0.8c0,0.5-0.3,0.9-0.8,0.9
		L237.5,154.7C237.5,154.7,237.5,154.7,237.5,154.7z"/>
	<path d="M227.7,183.1c-0.3,0-0.6-0.2-0.8-0.5c-0.2-0.4,0-0.9,0.5-1.1l3.3-1.3c0.4-0.2,0.9,0,1.1,0.5c0.2,0.4,0,0.9-0.5,1.1L228,183
		C227.9,183,227.8,183.1,227.7,183.1z"/>
	<path d="M253,156.4c-0.1,0-0.3,0-0.4-0.1c-0.4-0.2-0.5-0.8-0.3-1.1l4.9-7.9c0.2-0.4,0.8-0.5,1.1-0.3c0.4,0.2,0.5,0.8,0.3,1.1
		l-4.9,7.9C253.5,156.3,253.2,156.4,253,156.4z"/>
	<path d="M264.2,142.1c-0.3,0-0.6-0.2-0.8-0.5c-0.2-0.4,0-0.9,0.4-1.1l6.7-3.1l-0.3-4.2c0-0.5,0.3-0.9,0.8-0.9
		c0.5,0,0.9,0.3,0.9,0.8l0.3,4.8c0,0.3-0.2,0.7-0.5,0.8l-7.2,3.4C264.4,142.1,264.3,142.1,264.2,142.1z"/>
	<path d="M270.7,128.2c-0.4,0-0.8-0.3-0.8-0.8c0-0.5,0.3-0.9,0.8-0.9l6.2-0.4c0.5,0,0.9,0.3,0.9,0.8c0,0.5-0.3,0.9-0.8,0.9
		L270.7,128.2C270.7,128.2,270.7,128.2,270.7,128.2z"/>
	<path d="M283.2,120.6c-0.4,0-0.8-0.3-0.8-0.8l-0.4-5.3c0-0.5,0.3-0.9,0.8-0.9c0.5,0,0.9,0.3,0.9,0.8l0.4,5.3
		C284,120.2,283.7,120.6,283.2,120.6C283.2,120.6,283.2,120.6,283.2,120.6z"/>
	<g>
		<polyline class="st3" points="284.7,94.4 286.8,89.7 293.4,89.2 		"/>
		<path d="M284.7,95.3c-0.1,0-0.2,0-0.3-0.1c-0.4-0.2-0.6-0.7-0.4-1.1l2-4.8c0.1-0.3,0.4-0.5,0.7-0.5l6.6-0.5c0.5,0,0.9,0.3,0.9,0.8
			c0,0.5-0.3,0.9-0.8,0.9l-6.1,0.4l-1.8,4.3C285.4,95.1,285.1,95.3,284.7,95.3z"/>
	</g>
	<g>
		<line class="st3" x1="282" y1="103.3" x2="285.3" y2="103.1"/>
		<path d="M282,104.1c-0.4,0-0.8-0.3-0.8-0.8c0-0.5,0.3-0.9,0.8-0.9l3.3-0.2c0.5,0,0.9,0.3,0.9,0.8c0,0.5-0.3,0.9-0.8,0.9L282,104.1
			C282,104.1,282,104.1,282,104.1z"/>
	</g>
	<g>
		<line class="st3" x1="302.9" y1="85.2" x2="305.1" y2="81.5"/>
		<path d="M302.9,86.1c-0.1,0-0.3,0-0.4-0.1c-0.4-0.2-0.5-0.7-0.3-1.1l2.2-3.7c0.2-0.4,0.7-0.5,1.1-0.3c0.4,0.2,0.5,0.7,0.3,1.1
			l-2.2,3.7C303.4,85.9,303.2,86.1,302.9,86.1z"/>
	</g>
	<g>
		<line class="st3" x1="313.2" y1="79.4" x2="319.8" y2="80.5"/>
		<path d="M319.8,81.3c0,0-0.1,0-0.1,0l-6.6-1.1c-0.5-0.1-0.8-0.5-0.7-1c0.1-0.5,0.5-0.8,1-0.7l6.6,1.1c0.5,0.1,0.8,0.5,0.7,1
			C320.5,81,320.2,81.3,319.8,81.3z"/>
	</g>
	<g>
		<line class="st3" x1="329.2" y1="81.4" x2="330.9" y2="78.9"/>
		<path d="M329.2,82.2c-0.2,0-0.3,0-0.5-0.1c-0.4-0.3-0.5-0.8-0.2-1.2l1.6-2.4c0.3-0.4,0.8-0.5,1.2-0.2c0.4,0.3,0.5,0.8,0.2,1.2
			l-1.6,2.4C329.8,82.1,329.5,82.2,329.2,82.2z"/>
	</g>
	<g>
		<line class="st3" x1="335.5" y1="74.7" x2="339.4" y2="76.4"/>
		<path d="M339.4,77.2c-0.1,0-0.2,0-0.3-0.1l-3.9-1.7c-0.4-0.2-0.6-0.7-0.4-1.1c0.2-0.4,0.7-0.6,1.1-0.4l3.9,1.7
			c0.4,0.2,0.6,0.7,0.4,1.1C340,77.1,339.7,77.2,339.4,77.2z"/>
	</g>
	<g>
		<line class="st3" x1="351.7" y1="72.2" x2="350.1" y2="75.7"/>
		<path d="M350.1,76.5c-0.1,0-0.2,0-0.3-0.1c-0.4-0.2-0.6-0.7-0.4-1.1l1.5-3.5c0.2-0.4,0.7-0.6,1.1-0.4c0.4,0.2,0.6,0.7,0.4,1.1
			l-1.5,3.5C350.7,76.3,350.4,76.5,350.1,76.5z"/>
	</g>
	<g>
		<line class="st3" x1="359.9" y1="73" x2="369.6" y2="72.3"/>
		<path d="M359.9,73.8c-0.4,0-0.8-0.3-0.8-0.8c0-0.5,0.3-0.9,0.8-0.9l9.7-0.7c0.5,0,0.9,0.3,0.9,0.8c0,0.5-0.3,0.9-0.8,0.9
			L359.9,73.8C359.9,73.8,359.9,73.8,359.9,73.8z"/>
	</g>
</g>
<g>
	<g id="XMLID_1_">
		<g>
			<g>
				<path class="st6" d="M197.1,220.8l20.8,10.3c-3.2,16.4,0.3,30.8,0.3,30.8c-6.4,1.6-16.2-0.9-25.2-4.9
					c-26.1-12.8-45.9-81.8-45.9-81.8l-0.3-0.1c0.3-0.7,0.6-1.4,0.9-2.1c0.8-1.6,1.6-3.3,2.5-4.9l9.6,2.2L197.1,220.8z"/>
				<path d="M214,263.2c-5.7,0-13.1-1.9-21.2-5.5c-11-5.4-22.2-20.9-33.1-46.1c-7.5-17.1-12.3-33.1-13.1-35.8l-0.7-0.3l0.3-0.8
					c0.3-0.7,0.6-1.4,1-2.2c0.8-1.7,1.7-3.4,2.5-4.9l0.3-0.6l10.6,2.5l37.2,50.5l21.2,10.5l-0.1,0.6c-3.2,16,0.3,30.3,0.3,30.4
					l0.2,0.8l-0.8,0.2C217.1,263,215.6,263.2,214,263.2z M147.9,174.7l0.1,0.2c0.2,0.7,20,68.7,45.5,81.2c9.6,4.2,18.2,6.1,23.8,5
					c-0.7-3.3-2.9-15.8-0.3-29.7l-20.4-10.1l-0.1-0.2l-37-50.2l-8.7-2c-0.7,1.4-1.5,2.8-2.2,4.3
					C148.3,173.8,148.1,174.3,147.9,174.7z"/>
			</g>
			<g>
				<path class="st5" d="M193.1,257c-3.7-1.6-7.2-3.5-10.4-5.4c-7.1-4.4-19.7-20.7-26.1-31.9c0,0,0,0,0,0c-3-5.2-5.6-10.7-7.9-16.3
					c-1.2-3-2.6-6-3.1-9.1c-1.1-6.4-1-13.1,1.3-19.1l0.3,0.1C147.2,175.2,167,244.1,193.1,257z"/>
				<path d="M192.7,257.7c-3.7-1.6-7.3-3.5-10.5-5.5c-7-4.4-19.6-20.5-26.3-32l0,0l-0.1-0.1c-2.8-4.9-5.4-10.3-8-16.4l-0.3-0.8
					c-1.2-2.7-2.4-5.6-2.9-8.6c-1.3-7.4-0.8-14,1.4-19.6l0.3-0.8l1.5,0.6l0.1,0.4c0.2,0.7,20,68.7,45.5,81.2L192.7,257.7z
					 M157.3,219.1L157.3,219.1l0.1,0.1c6.5,11.4,18.9,27.3,25.8,31.6c0.3,0.2,0.6,0.3,0.8,0.5c-8.1-7.9-16.3-21.2-24.4-39.7
					c-6.6-15-11.1-29.2-12.6-34.2c-1.5,4.9-1.7,10.5-0.6,16.7c0.5,2.8,1.6,5.5,2.8,8.2l0.3,0.8C152,209,154.6,214.3,157.3,219.1z"/>
			</g>
		</g>
		<g>
			<path d="M213.9,262.6c-5.6,0-13-1.9-21-5.4l0,0c-3.6-1.6-7.2-3.5-10.4-5.5c-7-4.3-19.6-20.4-26.1-31.9c0,0,0,0,0,0
				c-2.8-4.9-5.4-10.3-7.9-16.3l-0.3-0.8c-1.1-2.7-2.3-5.5-2.8-8.4c-1.3-7.3-0.8-13.8,1.3-19.2c0.3-0.7,0.6-1.4,0.9-2.1
				c0.8-1.7,1.7-3.3,2.5-4.9c0.1-0.1,0.2-0.2,0.3-0.1l9.6,2.2c0.1,0,0.1,0,0.1,0.1l37.1,50.4l20.8,10.3c0.1,0.1,0.2,0.2,0.1,0.3
				c-3.2,16.1,0.3,30.5,0.3,30.7c0,0.1,0,0.1,0,0.2c0,0.1-0.1,0.1-0.2,0.1C217,262.5,215.6,262.6,213.9,262.6z M156.9,219.5
				C156.9,219.5,156.9,219.5,156.9,219.5c6.6,11.5,19.1,27.5,26,31.8c3.1,2,6.7,3.8,10.3,5.4l0,0c10.1,4.5,19.1,6.3,24.8,5
				c-0.4-2-3.2-15.4-0.3-30.4L197,221c0,0-0.1,0-0.1-0.1l-37.1-50.4l-9.4-2.2c-0.8,1.5-1.6,3-2.4,4.7c-0.3,0.7-0.7,1.4-0.9,2.1
				c-2.1,5.4-2.5,11.8-1.3,19c0.5,2.8,1.7,5.6,2.8,8.3l0.3,0.8C151.5,209.3,154.1,214.6,156.9,219.5z"/>
			<path d="M193.2,257.3c0,0-0.1,0-0.1,0l-0.1,0c-25.9-12.7-45.8-81.2-46-81.9c0-0.1,0-0.3,0.2-0.3c0.1,0,0.3,0,0.3,0.2
				c0.2,0.7,20.1,69,45.8,81.6c0,0,0.1,0,0.1,0c0.1,0.1,0.2,0.2,0.1,0.3C193.4,257.2,193.3,257.3,193.2,257.3z"/>
		</g>
	</g>
	<g>
		<path class="st6" d="M161.9,213.9l12.8,4.3c1.2,0.4,2.5-0.1,3.1-1.1l6.9-11.3l-7.3-11.8l-15,8.4L161.9,213.9z"/>
		<path d="M175.6,219.2c-0.4,0-0.7-0.1-1.1-0.2l-13.4-4.5l0.6-12.7l16.1-9l8,12.9l-7.2,11.7C177.9,218.6,176.8,219.2,175.6,219.2z
			 M162.8,213.4l12.2,4.1c0.8,0.3,1.7-0.1,2.1-0.8l6.6-10.9l-6.6-10.7l-13.9,7.8L162.8,213.4z"/>
	</g>
	<path d="M172.2,211.6c-0.2,0-0.5,0-0.7-0.1l-7.9-1.5c-0.5-0.1-0.7-0.5-0.7-1c0.1-0.5,0.5-0.7,1-0.7l7.9,1.5
		c0.8,0.2,1.6-0.1,2.1-0.7l4.8-5.7c0.3-0.4,0.8-0.4,1.2-0.1c0.4,0.3,0.4,0.8,0.1,1.2l-4.8,5.7C174.5,211.1,173.4,211.6,172.2,211.6z
		"/>
	<path d="M179.7,229c-4.2,0-13.5-5.3-14.6-5.9c-0.4-0.2-0.5-0.7-0.3-1.1c0.2-0.4,0.7-0.5,1.1-0.3c2.9,1.7,11,5.9,14,5.7
		c2.5-0.2,7.1-7.5,9.4-12c0.2-0.4,0.7-0.6,1.1-0.4c0.4,0.2,0.6,0.7,0.4,1.1c-1.1,2.1-6.7,12.6-10.8,12.9
		C180,229,179.8,229,179.7,229z"/>
	<path d="M188,240.4c-4,0-14.1-3.5-15.3-3.9c-0.4-0.1-0.7-0.6-0.5-1.1c0.1-0.4,0.6-0.7,1.1-0.5c3.4,1.2,12.8,4.2,15.3,3.8
		c1.6-0.3,5.3-9.6,7.8-18.1c0.1-0.4,0.6-0.7,1-0.6c0.4,0.1,0.7,0.6,0.6,1c0,0-1.4,4.6-3.1,9.2c-3.2,8.6-4.9,9.9-6.1,10.1
		C188.5,240.4,188.3,240.4,188,240.4z"/>
	<path d="M194.3,252c-1.7,0-4-0.5-7-1.5c-3.3-1.1-6.2-2.4-6.3-2.4c-0.4-0.2-0.6-0.7-0.4-1.1c0.2-0.4,0.7-0.6,1.1-0.4
		c4.3,2,12,4.6,14,3.5c2.4-1.4,7.6-10.4,9.3-13.7c0.2-0.4,0.7-0.6,1.1-0.3c0.4,0.2,0.6,0.7,0.3,1.1c-0.7,1.3-6.7,12.6-10,14.4
		C196,251.8,195.2,252,194.3,252z"/>
	<path d="M158.4,215c-0.2,0-0.4-0.1-0.6-0.2l-5.4-5.2c-0.3-0.3-0.3-0.8,0-1.2c0.3-0.3,0.8-0.3,1.2,0l5.4,5.2c0.3,0.3,0.3,0.8,0,1.2
		C158.8,214.9,158.6,215,158.4,215z"/>
	<path d="M160.8,227.2C160.8,227.2,160.8,227.2,160.8,227.2c-0.5,0-0.9-0.4-0.8-0.9l0.5-5.3c0-0.5,0.4-0.8,0.9-0.8
		c0.5,0,0.8,0.4,0.8,0.9l-0.5,5.3C161.6,226.9,161.3,227.2,160.8,227.2z"/>
</g>
<g>
	<g>
		<path class="st4" d="M219.7,278.8c0,0-11.6,2.8-11.5,4.1c0.1,1.3,1.9,8.7,1.9,8.7l5.4,2l-0.1-9.9"/>
		<path d="M215.5,294.5c-0.1,0-0.2,0-0.3-0.1l-5.4-2c-0.3-0.1-0.4-0.3-0.5-0.6c-0.2-0.8-1.8-7.5-1.9-8.9c0-0.6-0.1-2,12.1-5
			c0.4-0.1,0.9,0.2,1,0.6c0.1,0.4-0.2,0.9-0.6,1c-4.5,1.1-9.8,2.7-10.8,3.5c0.2,1.2,1.1,5.2,1.8,7.9l3.8,1.4l-0.1-8.7
			c0-0.5,0.4-0.8,0.8-0.8c0,0,0,0,0,0c0.5,0,0.8,0.4,0.8,0.8l0.1,9.9c0,0.3-0.1,0.5-0.4,0.7C215.9,294.4,215.7,294.5,215.5,294.5z"
			/>
	</g>
	<g>
		<path class="st4" d="M218.3,281.7c0,0-6.4,1.5-6.3,2.8c0.1,1.3,1.9,8.7,1.9,8.7l5.4,2l-0.1-9.9"/>
		<path d="M219.2,296.1c-0.1,0-0.2,0-0.3-0.1l-5.4-2c-0.3-0.1-0.4-0.3-0.5-0.6c-0.2-0.8-1.8-7.5-1.9-8.9c0-0.5-0.1-2,7-3.7
			c0.4-0.1,0.9,0.2,1,0.6c0.1,0.4-0.2,0.9-0.6,1c-2.6,0.6-5.2,1.6-5.7,2.1c0.1,1.1,1.1,5.2,1.8,8l3.8,1.4l-0.1-8.7
			c0-0.5,0.4-0.8,0.8-0.8c0,0,0,0,0,0c0.5,0,0.8,0.4,0.8,0.8l0.1,9.9c0,0.3-0.1,0.5-0.4,0.7C219.5,296,219.4,296.1,219.2,296.1z"/>
	</g>
	<g>
		<path class="st4" d="M159.6,190.1l21.7-13.3l25.9,0.1c6.9,0,13.3,3.4,17.3,8.9l7.4,10.5c0,0,6,8.7,8.4,13
			c2.3,4.3-2.6,25.4-3.5,27.3c-0.9,1.9-10.6,20.4-10.6,20.4l-6.4,29.6L200,288c0,0,4.8-27.1,5-37.1c0.2-10,2-26.1,2-26.1"/>
		<path d="M200,288.8c-0.2,0-0.5-0.1-0.6-0.3c-0.2-0.2-0.2-0.4-0.2-0.7c0-0.3,4.7-27.2,5-36.9c0.2-9.9,2-26,2-26.2
			c0-0.5,0.5-0.8,0.9-0.7c0.5,0,0.8,0.5,0.7,0.9c0,0.2-1.8,16.2-2,26c-0.2,8.9-3.9,31-4.8,36.1l18.2-1.3l6.3-29c0-0.1,0-0.1,0.1-0.2
			c0.1-0.2,9.7-18.5,10.6-20.3c1-2.1,5.5-22.7,3.5-26.6c-2.3-4.3-8.3-12.8-8.3-12.9l-7.4-10.5c-3.8-5.3-10.1-8.6-16.7-8.6l-25.6-0.1
			l-21.5,13.2c-0.4,0.2-0.9,0.1-1.1-0.3c-0.2-0.4-0.1-0.9,0.3-1.1l21.7-13.3c0.1-0.1,0.3-0.1,0.4-0.1l25.9,0.1
			c7.1,0,13.9,3.5,18,9.3l7.4,10.5c0.3,0.4,6.1,8.7,8.4,13.1c2.5,4.6-2.5,26.1-3.4,28.1c-0.9,1.8-9.7,18.7-10.5,20.3l-6.4,29.5
			c-0.1,0.4-0.4,0.6-0.8,0.7L200,288.8C200,288.8,200,288.8,200,288.8z"/>
	</g>
	<g>
		<path class="st4" d="M200,285l-12.5-3c-2-1.1-4.4-0.2-5.3,1.8c-1.5,3.5-3.3,8.7-2.3,12c1.7,5.3,3.7,6.9,3.7,6.9s2.7-9.6,5.6-10.1
			s4.6,0.2,4.6,0.2s22.4,3.4,24.7,0.9c2.2-2.5,1.3-7.7,1.3-7.7"/>
		<path d="M183.6,303.5c-0.2,0-0.4-0.1-0.5-0.2c-0.1-0.1-2.2-1.8-4-7.3c-1.1-3.5,0.7-8.7,2.3-12.5c0.5-1.2,1.5-2.1,2.8-2.5
			c1.2-0.4,2.5-0.3,3.6,0.3l12.4,3c0.4,0.1,0.7,0.6,0.6,1c-0.1,0.4-0.6,0.7-1,0.6l-12.5-3c-0.1,0-0.1,0-0.2-0.1
			c-0.7-0.4-1.6-0.5-2.4-0.2c-0.8,0.3-1.4,0.9-1.8,1.6c-2.2,5-3,9-2.3,11.4c0.9,2.8,1.9,4.5,2.5,5.5c1-3,3.2-8.8,5.9-9.2
			c2.7-0.4,4.5,0.1,5,0.2c10.6,1.6,22.7,2.5,23.9,1.1c1.9-2.2,1.1-7,1.1-7c-0.1-0.5,0.2-0.9,0.7-1c0.5-0.1,0.9,0.2,1,0.7
			c0,0.2,1,5.6-1.5,8.4c-2.4,2.7-20.1,0.2-25.4-0.6c-0.1,0-0.1,0-0.2,0c0,0-1.6-0.5-4.2-0.1c-1.5,0.2-3.7,5.1-5,9.5
			c-0.1,0.3-0.3,0.5-0.5,0.6C183.8,303.5,183.7,303.5,183.6,303.5z"/>
	</g>
	<g>
		<path class="st4" d="M206.2,284.5c0,0-5.6-4.4-7.8-3.9c-2.2,0.5-5.7,1.7-5.7,1.7s-6.1,11.7,0.1,19.7c0,0,4.6-12.8,7.2-12.8"/>
		<path d="M192.9,302.9c-0.3,0-0.5-0.1-0.7-0.3c-2.7-3.5-3.6-8.1-2.6-13.5c0.8-4,2.3-7,2.3-7.1c0.1-0.2,0.3-0.3,0.5-0.4
			c0.1-0.1,3.6-1.3,5.8-1.7c2.4-0.5,7.5,3.3,8.5,4.1c0.4,0.3,0.4,0.8,0.1,1.2c-0.3,0.4-0.8,0.4-1.2,0.1c-2.2-1.7-5.9-4-7.1-3.8
			c-1.7,0.4-4.4,1.3-5.3,1.6c-0.8,1.7-4.6,10.5-0.7,17.2c1.7-4.4,4.9-11.8,7.4-11.8c0.5,0,0.8,0.4,0.8,0.8c0,0.5-0.4,0.8-0.8,0.8
			c-1.1,0.1-4.1,5.9-6.4,12.3c-0.1,0.3-0.4,0.5-0.7,0.5C193,302.9,192.9,302.9,192.9,302.9z"/>
	</g>
	<g>
		<path class="st4" d="M211.1,284.2c0,0-2.7-3.8-5.6-3c-2.9,0.8-8.7,7.8-8,10.8c0.7,3,5.5,12.1,5.5,12.1l3.9-11.7l2.7-4.3"/>
		<path d="M202.9,304.9c-0.3,0-0.6-0.2-0.7-0.4c-0.2-0.4-4.8-9.3-5.5-12.3c-0.8-3.6,5.4-10.9,8.6-11.7c3.5-1,6.4,3.2,6.5,3.3
			c0.3,0.4,0.2,0.9-0.2,1.2c-0.4,0.3-0.9,0.2-1.2-0.2l0,0c-0.7-0.9-2.8-3.2-4.7-2.7c-2.6,0.7-8,7.4-7.4,9.8
			c0.5,2.1,3.1,7.4,4.5,10.2l3.2-9.8c0-0.1,0-0.1,0.1-0.2l2.7-4.3c0.2-0.4,0.8-0.5,1.1-0.3c0.4,0.2,0.5,0.8,0.3,1.1l-2.6,4.3
			l-3.8,11.6C203.6,304.6,203.3,304.9,202.9,304.9C202.9,304.9,202.9,304.9,202.9,304.9z"/>
	</g>
	<path d="M223.2,228.9c-0.3,0-0.6-0.2-0.8-0.5l-3.2-7.1l-5.9-7.7c-0.3-0.4-0.2-0.9,0.2-1.2c0.4-0.3,0.9-0.2,1.2,0.2l6,7.8
		c0,0.1,0.1,0.1,0.1,0.2l3,6.7l3.9-0.3c0.4,0,0.9,0.3,0.9,0.8c0,0.5-0.3,0.9-0.8,0.9L223.2,228.9
		C223.3,228.9,223.2,228.9,223.2,228.9z"/>
	<path d="M234.3,220.2c-0.4,0-0.8-0.3-0.8-0.7l-1.3-10.1l-5.2-5c-0.3-0.3-0.3-0.8,0-1.2c0.3-0.3,0.8-0.3,1.2,0l5.4,5.2
		c0.1,0.1,0.2,0.3,0.2,0.5l1.3,10.4c0.1,0.5-0.3,0.9-0.7,0.9C234.4,220.2,234.4,220.2,234.3,220.2z"/>
	<path d="M222.9,210.5c-0.2,0-0.4-0.1-0.5-0.2l-7.1-6.3c-0.3-0.3-0.4-0.8-0.1-1.2c0.3-0.3,0.8-0.4,1.2-0.1l7.1,6.3
		c0.3,0.3,0.4,0.8,0.1,1.2C223.4,210.4,223.1,210.5,222.9,210.5z"/>
	<path d="M232.1,228.3c-0.4,0-0.7-0.2-0.8-0.6l-1.6-4.8c-0.1-0.4,0.1-0.9,0.5-1c0.4-0.1,0.9,0.1,1,0.5l1.6,4.8
		c0.1,0.4-0.1,0.9-0.5,1C232.3,228.3,232.2,228.3,232.1,228.3z"/>
	<path d="M210.8,221c-0.1,0-0.2,0-0.3,0l-6.3-2.1c-0.4-0.1-0.7-0.6-0.5-1c0.1-0.4,0.6-0.7,1-0.5l6.3,2.1c0.4,0.1,0.7,0.6,0.5,1
		C211.5,220.8,211.2,221,210.8,221z"/>
	<path d="M213,208.8c0,0-0.1,0-0.1,0l-4.1-0.7c-0.4-0.1-0.6-0.3-0.7-0.7l-0.6-4.2c-0.1-0.5,0.3-0.9,0.7-0.9c0.5-0.1,0.9,0.3,0.9,0.7
		l0.5,3.6l3.5,0.6c0.5,0.1,0.8,0.5,0.7,1C213.8,208.5,213.4,208.8,213,208.8z"/>
	<path d="M223.2,196.4c-0.2,0-0.4-0.1-0.6-0.3l-2.8-3c-0.3-0.3-0.3-0.9,0-1.2c0.3-0.3,0.9-0.3,1.2,0l2.8,3c0.3,0.3,0.3,0.9,0,1.2
		C223.6,196.3,223.4,196.4,223.2,196.4z"/>
	<path d="M212,238.8c-0.3,0-0.6-0.2-0.8-0.5l-1.1-2.4c-0.1-0.2-0.1-0.4,0-0.6l1.6-4.6c0.2-0.4,0.6-0.7,1.1-0.5
		c0.4,0.2,0.7,0.6,0.5,1.1l-1.5,4.3l1,2.1c0.2,0.4,0,0.9-0.4,1.1C212.2,238.7,212.1,238.8,212,238.8z"/>
	<path d="M215.3,272.3c-0.1,0-0.2,0-0.2,0c-0.4-0.1-0.7-0.6-0.5-1l2.9-9.5l-0.4-5.6c0-0.5,0.3-0.9,0.8-0.9c0.5,0,0.9,0.3,0.9,0.8
		l0.4,5.7c0,0.1,0,0.2,0,0.3l-3,9.6C216,272.1,215.6,272.3,215.3,272.3z"/>
	<path d="M223.3,256.6C223.3,256.6,223.3,256.6,223.3,256.6c-0.5-0.1-0.9-0.5-0.8-0.9l0.9-8.9c0-0.2,0.1-0.3,0.2-0.4l4.4-5.4
		c0.3-0.4,0.8-0.4,1.2-0.1c0.4,0.3,0.4,0.8,0.1,1.2l-4.3,5.2l-0.9,8.6C224.1,256.3,223.8,256.6,223.3,256.6z"/>
	<path d="M218.8,244.3c-0.1,0-0.2,0-0.3,0c-0.4-0.2-0.7-0.6-0.5-1.1l2.8-7.8c0.2-0.4,0.6-0.7,1.1-0.5c0.4,0.2,0.7,0.6,0.5,1.1
		l-2.8,7.8C219.5,244.1,219.1,244.3,218.8,244.3z"/>
	<path d="M209.2,258.8c0,0-0.1,0-0.1,0c-0.5-0.1-0.8-0.5-0.7-1l1.5-9.2c0.1-0.5,0.5-0.8,1-0.7c0.5,0.1,0.8,0.5,0.7,1l-1.5,9.2
		C210,258.5,209.6,258.8,209.2,258.8z"/>
	<path d="M207.7,279.3c-0.4,0-0.8-0.3-0.8-0.8l-0.6-8c0-0.5,0.3-0.9,0.8-0.9c0.5,0,0.9,0.3,0.9,0.8l0.6,8
		C208.5,278.9,208.2,279.3,207.7,279.3C207.7,279.3,207.7,279.3,207.7,279.3z"/>
</g>
<path d="M248.8,208.7c-0.1,0-0.3,0-0.4-0.1l-4.9-2.5c-0.4-0.2-0.6-0.7-0.4-1.1s0.7-0.6,1.1-0.4l4.9,2.5c0.4,0.2,0.6,0.7,0.4,1.1
	C249.4,208.5,249.2,208.7,248.8,208.7z"/>
<path d="M235.5,245.9c-0.4,0-0.8-0.3-0.8-0.8c0-0.5,0.3-0.9,0.8-0.9l4.2-0.3l1.6-3.3c0.2-0.4,0.7-0.6,1.1-0.4
	c0.4,0.2,0.6,0.7,0.4,1.1l-1.8,3.7c-0.1,0.3-0.4,0.4-0.7,0.5L235.5,245.9C235.6,245.9,235.5,245.9,235.5,245.9z"/>
<path d="M244.6,229.4c-0.2,0-0.4-0.1-0.6-0.2l-2.1-1.9c-0.3-0.3-0.4-0.8-0.1-1.2c0.3-0.3,0.8-0.4,1.2-0.1l2.1,1.9
	c0.3,0.3,0.4,0.8,0.1,1.2C245.1,229.4,244.8,229.4,244.6,229.4z"/>
<path d="M250.8,213.9c-0.2,0-0.4-0.1-0.5-0.2c-0.4-0.3-0.4-0.8-0.2-1.2l4.3-5.7c0.3-0.4,0.8-0.4,1.2-0.2c0.4,0.3,0.4,0.8,0.2,1.2
	l-4.3,5.7C251.3,213.8,251,213.9,250.8,213.9z"/>
<g>
	<g>
		<path class="st4" d="M279.9,279.6c0,0-11.6,2.8-11.5,4.1c0.1,1.3,1.9,8.7,1.9,8.7l5.4,2l-0.1-9.9"/>
		<path d="M275.7,295.2c-0.1,0-0.2,0-0.3-0.1l-5.4-2c-0.3-0.1-0.4-0.3-0.5-0.6c-0.2-0.8-1.8-7.5-1.9-8.9c0-0.6-0.1-2,12.1-5
			c0.4-0.1,0.9,0.2,1,0.6c0.1,0.4-0.2,0.9-0.6,1c-4.5,1.1-9.8,2.7-10.8,3.5c0.2,1.2,1.1,5.2,1.8,7.9l3.8,1.4l-0.1-8.7
			c0-0.5,0.4-0.8,0.8-0.8c0,0,0,0,0,0c0.5,0,0.8,0.4,0.8,0.8l0.1,9.9c0,0.3-0.1,0.5-0.4,0.7C276.1,295.2,275.9,295.2,275.7,295.2z"
			/>
	</g>
	<g>
		<path class="st4" d="M258.6,211.4c0,0-13,11.2-12.4,19.6c0.4,5.9,2.3,16.7,2.9,20.4c0.3,1.8,1,3.6,2.1,5c2.7,3.4,8.1,9.2,14.9,9.1
			c9.7-0.1,18.1,5.5,18.1,5.5l-7.7,15.1l14.6-1c0,0,0.9-16.2,4.6-18.2c3.7-2-1.2-9.7-5.6-10.2c-4.4-0.6-7.1-2.2-7.1-2.2l-9.7-3.9
			c0,0,6.1-20.3,7.5-33.6"/>
		<path d="M276.5,287.1c-0.3,0-0.5-0.1-0.7-0.4c-0.2-0.2-0.2-0.6,0-0.8l7.3-14.4c-2.1-1.2-9.2-5.1-17-5c0,0-0.1,0-0.1,0
			c-7.1,0-12.7-5.9-15.4-9.4c-1.2-1.6-2-3.4-2.3-5.4c-0.1-0.8-0.3-1.8-0.5-3.1c-0.8-4.7-2-12.7-2.4-17.4
			c-0.6-8.8,12.2-19.9,12.7-20.3c0.3-0.3,0.9-0.3,1.2,0.1c0.3,0.3,0.3,0.9-0.1,1.2c-0.1,0.1-12.7,11-12.1,18.9
			c0.3,4.7,1.6,12.5,2.4,17.2c0.2,1.3,0.4,2.4,0.5,3.1c0.3,1.7,0.9,3.3,2,4.7c2.5,3.3,7.7,8.8,14.1,8.8c0,0,0.1,0,0.1,0
			c0.1,0,0.2,0,0.3,0c9.7,0,17.9,5.4,18.3,5.7c0.3,0.2,0.5,0.7,0.3,1.1l-7,13.8l12.4-0.9c0.1-1.4,0.4-4.5,0.9-7.7
			c1-6.1,2.3-9.5,4.1-10.5c0.8-0.4,1-1.2,0.8-2.3c-0.5-2.6-3.4-6-6.1-6.4c-4.2-0.5-7-2-7.4-2.2l-9.6-3.9c-0.4-0.2-0.6-0.6-0.5-1
			c0.1-0.2,6-20.4,7.4-33.4c0-0.5,0.5-0.8,0.9-0.7c0.5,0,0.8,0.5,0.7,0.9c-1.3,11.7-6.2,29.2-7.3,33l9,3.6c0,0,0.1,0,0.1,0.1
			c0,0,2.7,1.5,6.8,2.1c3.5,0.5,6.9,4.5,7.5,7.7c0.4,1.8-0.2,3.3-1.6,4.1c-2.4,1.3-3.8,11.5-4.2,17.5c0,0.4-0.4,0.8-0.8,0.8
			L276.5,287.1C276.6,287.1,276.5,287.1,276.5,287.1z"/>
	</g>
	<g>
		<path class="st4" d="M278.5,282.5c0,0-6.4,1.5-6.3,2.8c0.1,1.3,1.9,8.7,1.9,8.7l5.4,2l-0.1-9.9"/>
		<path d="M279.4,296.8c-0.1,0-0.2,0-0.3-0.1l-5.4-2c-0.3-0.1-0.4-0.3-0.5-0.6c-0.2-0.8-1.8-7.5-1.9-8.9c0-0.5-0.1-2,7-3.7
			c0.4-0.1,0.9,0.2,1,0.6c0.1,0.4-0.2,0.9-0.6,1c-2.6,0.6-5.2,1.6-5.7,2.1c0.1,1.1,1.1,5.2,1.8,8l3.8,1.4l-0.1-8.7
			c0-0.5,0.4-0.8,0.8-0.8c0,0,0,0,0,0c0.5,0,0.8,0.4,0.8,0.8l0.1,9.9c0,0.3-0.1,0.5-0.4,0.7C279.7,296.8,279.6,296.8,279.4,296.8z"
			/>
	</g>
	<g>
		<path class="st4" d="M284.4,282.1c0,0-6.4,1.5-6.3,2.8c0.1,1.3,1.9,8.7,1.9,8.7l5.4,2l-0.1-9.9"/>
		<path d="M285.3,296.4c-0.1,0-0.2,0-0.3-0.1l-5.4-2c-0.3-0.1-0.4-0.3-0.5-0.6c-0.2-0.8-1.8-7.5-1.9-8.9c0-0.5-0.1-2,7-3.7
			c0.4-0.1,0.9,0.2,1,0.6c0.1,0.4-0.2,0.9-0.6,1c-2.6,0.6-5.2,1.6-5.7,2.1c0.1,1.1,1.1,5.2,1.8,8l3.8,1.4l-0.1-8.7
			c0-0.5,0.4-0.8,0.8-0.8c0,0,0,0,0,0c0.5,0,0.8,0.4,0.8,0.8l0.1,9.9c0,0.3-0.1,0.5-0.4,0.7C285.6,296.4,285.5,296.4,285.3,296.4z"
			/>
	</g>
	<path d="M255.8,245.6c-0.3,0-0.7-0.2-0.8-0.5l-2.2-5.9c-0.1-0.2-0.1-0.3,0-0.5l1.4-5.6c0.1-0.4,0.6-0.7,1-0.6
		c0.4,0.1,0.7,0.6,0.6,1l-1.4,5.3l2.1,5.6c0.2,0.4-0.1,0.9-0.5,1.1C256,245.5,255.9,245.6,255.8,245.6z"/>
	<path d="M259.5,235.4c-0.4,0-0.8-0.3-0.8-0.8l-0.5-7c0-0.5,0.3-0.9,0.8-0.9c0.5,0,0.9,0.3,0.9,0.8l0.5,7
		C260.4,235,260,235.4,259.5,235.4C259.5,235.4,259.5,235.4,259.5,235.4z"/>
	<path d="M268.4,232.2c-0.1,0-0.2,0-0.3-0.1c-0.4-0.2-0.7-0.6-0.5-1.1l2.9-7.9l-2-11.2c-0.1-0.5,0.2-0.9,0.7-1
		c0.5-0.1,0.9,0.2,1,0.7l2,11.5c0,0.1,0,0.3,0,0.4l-3,8.1C269,232,268.7,232.2,268.4,232.2z"/>
	<path d="M269.8,252.4c-0.3,0-0.7-0.2-0.8-0.5l-2.1-5.8c-0.1-0.2-0.1-0.4,0-0.6l2.9-7.8c0.2-0.4,0.6-0.7,1.1-0.5
		c0.4,0.2,0.7,0.6,0.5,1.1l-2.8,7.6l2,5.5c0.2,0.4-0.1,0.9-0.5,1.1C270,252.4,269.9,252.4,269.8,252.4z"/>
	<path d="M262.9,259.8c-0.3,0-0.5-0.1-0.7-0.4l-3-4.6c-0.3-0.4-0.1-0.9,0.2-1.2c0.4-0.3,0.9-0.1,1.2,0.2l3,4.6
		c0.3,0.4,0.1,0.9-0.2,1.2C263.2,259.8,263,259.8,262.9,259.8z"/>
	<path d="M266.2,252.2c-0.2,0-0.4-0.1-0.5-0.2l-4.1-3.5c-0.3-0.3-0.4-0.8-0.1-1.2c0.3-0.3,0.8-0.4,1.2-0.1l4.1,3.5
		c0.3,0.3,0.4,0.8,0.1,1.2C266.7,252.1,266.4,252.2,266.2,252.2z"/>
	<path d="M272.7,260.8c-0.4,0-0.8-0.3-0.8-0.8c0-0.5,0.3-0.9,0.8-0.9l5.8-0.4c0.4,0,0.9,0.3,0.9,0.8c0,0.5-0.3,0.9-0.8,0.9
		L272.7,260.8C272.7,260.8,272.7,260.8,272.7,260.8z"/>
	<path d="M285.5,267.4c-0.3,0-0.6-0.2-0.8-0.5l-1.9-4.9c-0.2-0.4,0-0.9,0.5-1.1c0.4-0.2,0.9,0,1.1,0.5l1.9,4.9
		c0.2,0.4,0,0.9-0.5,1.1C285.7,267.4,285.6,267.4,285.5,267.4z"/>
</g>
<g>
	<path class="st7" d="M238.1,823.9c0,0-20.9,5.1-20.7,7.4c0.2,2.3,3.5,15.7,3.5,15.7l9.7,3.6l-0.2-17.9"/>
	<path class="st7" d="M199.6,700.9c0,0-23.5,20.2-22.4,35.4c0.7,10.7,4.2,30.2,5.2,36.9c0.5,3.3,1.8,6.4,3.9,9.1
		c4.8,6.2,14.6,16.5,26.9,16.4c17.5-0.2,32.7,10,32.7,10L232,836l26.3-1.8c0,0,1.7-29.2,8.3-32.9c6.7-3.7-2.1-17.5-10.1-18.5
		c-7.9-1-12.9-3.9-12.9-3.9l-17.5-7.1c0,0,10.9-36.7,13.5-60.6"/>
	<path class="st7" d="M235.4,829.1c0,0-11.6,2.7-11.4,5.1c0.2,2.3,3.5,15.7,3.5,15.7l9.7,3.6l-0.2-17.9"/>
	<path class="st7" d="M246.1,828.4c0,0-11.6,2.7-11.4,5.1c0.2,2.3,3.5,15.7,3.5,15.7l9.7,3.6l-0.2-17.9"/>
	<path class="st7" d="M346.7,825.2c0,0-20.9,5.1-20.7,7.4c0.2,2.3,3.5,15.7,3.5,15.7l9.7,3.6l-0.2-17.9"/>
	<path class="st8" d="M349.2,722.4c0,0,19.3-18.2,13.1-33.6c-6.2-15.3-31.4-80.3-117-76.8c-85.6,3.6-173.2,109.8-196.1,110.5
		s-64.5-13.5-64.5-13.5s-55,7-52,26.1c3,19.1,18.6-12.7,37.6-3.2c19,9.4,73.1,30.8,73.1,30.8S65,776,97.4,771.9
		c0,0,98.1-74,116-74.7S321.9,731.5,349.2,722.4z"/>
	<path class="st9" d="M-15.2,709.1l3.3-10.3l10.1,9.4l8.4-10.6l6.6,14.4l9.6-10.7l6.3,14.9l8-9.2l7.6,9.7l5.2-16.1l9.8,10.2
		l3.5-14.7l16,10.2c0,0-17.1,19.5-31.8,20.5S-15.2,709.1-15.2,709.1z"/>
	<polygon class="st9" points="79.2,706.2 75.3,686.4 87.7,689.5 88.9,670.7 104.7,683.4 	"/>
	<path class="st10" d="M119.3,707.8c0,0-13.4,7.1-14.5,21.7s-16.8,17.1-24.6,30.7s-22.3,35-22.3,35s22.5,20.2,31.8,12.3
		c9.2-7.9,33.6-42.2,33.6-42.2l32-14.4L119.3,707.8z"/>
	<path class="st11" d="M46.1,795.6c0,0,11.4-13.8,17.4-8.7c6,5.1,20.3,17.1,20.3,17.1s15.5-2.3,19.4,4.1c3.9,6.4,5.8,18,5.8,18
		l-14.9,12.8l-0.7-16l-8.2-5.5l-10,6.3l-15.3,0.6l-12.9,0.9l-15-15.9L46.1,795.6z"/>
	<polyline class="st11" points="63.5,786.8 46.6,771.2 20.8,773 40.8,783.6 54,795.7 	"/>
	<polyline class="st11" points="50.1,795.1 30.3,784.8 8.1,787.8 27,795.7 39.2,804 	"/>
	<polyline class="st11" points="35.9,805.5 15.7,806.9 10.6,823.1 23.3,814.3 38.7,816.4 	"/>
	<path class="st12" d="M-135.7,562c0,0,47.9,10.9,44.9,60.2c0,0,54.3-25.2,76.2,45.2c0,0,33.5-31.9,65.7,6.5c0,0,42.5-15.4,61.6-3.4
		l-35.2-64l-101.8-83.7l-64.3,0.2L-135.7,562z"/>
	<path class="st13" d="M103.1,617.2l-80.9-65.4c-1.5-1.2-2.7-2.6-3.8-4.2L3,524.4c-3.7-5.7-10-9.1-16.8-9.3
		c-11-0.3-27.5-0.7-34.5-0.7c-89.2-0.1-100.6,55.9-100.6,55.9s87.4-47.5,122-28.9s14.1,20.8,32,29.1s94.9,74.1,94.9,74.1
		L103.1,617.2z"/>
	<polygon class="st13" points="118.5,614.4 94.1,602.9 93.2,617.9 77.4,606.5 82.2,627.2 67.8,625.5 79.7,638.9 84.7,659.2 
		117.7,708.1 133,715 	"/>
	<path class="st7" d="M242.7,790.4c0,0,29-23.6,51.7-21.8s39.8-10.7,51-41.6c11.2-30.9-10.4-73.4-32.2-82.3
		c-21.8-8.8-170.3,33-170.3,33L242.7,790.4z"/>
	<path class="st12" d="M272,625.6l4,19.8l17.7,27.4l39.8-6.6c0,0,45.4-8.8,63.3-1.2c0,0-8.8-34.2,13.8-47.6
		c18.3-10.8,64.2,2.5,64.2,2.5s-32.7-47.4-6-66.3c17.2-12.2,62.8-15.2,62.8-15.2s-45.1-66.7-10.6-81l-30.1-4.8l-129.7,43.5"/>
	<path class="st13" d="M308.9,569.5l34.3-52.8l-7.7-24.6c0,0-4.1-11.5,2.1-14.4s14.9-7.7,14.9-7.7s152.8-40.3,165.8-27.3
		c0,0,16.9,7.5,20.7,14.9l-29.9-0.4c0,0-143.6,32.5-141.7,40.4c2,7.8,7.6,24.4,7.6,24.4l-34.7,49.4c0,0-42.6,65.2-55.6,64.2
		l-12.5-31.1L308.9,569.5z"/>
	<polyline class="st13" points="229.4,651.1 235.4,628.2 238.4,637.7 249.2,607.3 252.4,617.6 260.3,605.3 260.6,575.3 272.8,590.7 
		281.6,568.7 287.2,579.8 295.8,573.6 308.9,569.5 285,605 284.7,643.3 307,668.6 333.5,666.2 313.5,683 278.2,683.5 229.2,652.7 	
		"/>
	<path class="st14" d="M367.3,497.5c0,0,106.2-10,164.4,40.8"/>
	<g id="XMLID_00000036965711719874883940000013974598695912628366_">
		<g>
			<path class="st15" d="M197.3,719.2l37.6,18.6c-5.8,29.6,0.6,55.5,0.6,55.5c-11.5,2.8-29.2-1.7-45.4-8.9
				c-47-23.1-82.8-147.5-82.8-147.5l-0.6-0.2c0.5-1.3,1.1-2.5,1.7-3.8c1.5-2.9,3-5.9,4.5-8.8l17.4,4.1L197.3,719.2z"/>
			<path class="st10" d="M190,784.4c-6.6-2.9-13-6.3-18.7-9.8c-12.8-7.9-35.5-37.3-47-57.5c0,0,0,0,0,0
				c-5.4-9.5-10.1-19.4-14.3-29.4c-2.2-5.3-4.7-10.8-5.7-16.5c-2-11.5-1.9-23.6,2.4-34.5l0.6,0.2C107.2,636.9,143,761.3,190,784.4z"
				/>
		</g>
		<g>
			<path class="st16" d="M190,784.4c16.3,7.2,34,11.7,45.4,8.9c0,0-6.4-25.9-0.6-55.5l-37.6-18.6l-67.1-91l-17.4-4.1
				c-1.6,2.9-3.1,5.8-4.5,8.8c-0.6,1.2-1.2,2.5-1.7,3.8c-4.3,10.9-4.4,23-2.4,34.5c1,5.7,3.4,11.2,5.7,16.5
				c4.2,10,8.9,19.9,14.3,29.4c0,0,0,0,0,0c11.5,20.1,34.2,49.6,47,57.5C177,778.1,183.4,781.5,190,784.4z"/>
			<path class="st16" d="M107.2,636.9c0,0,35.8,124.4,82.8,147.5c0.1,0,0.1,0,0.2,0.1"/>
		</g>
	</g>
	<path class="st14" d="M474.8,619.8c0,0-82.5-74-115.7-75.3"/>
	<path class="st14" d="M396.8,665c0,0-40.6-54.2-70.8-72.8"/>
	<path class="st15" d="M133.8,706.8l23.1,7.7c2.1,0.7,4.4-0.1,5.6-2l12.5-20.4l-13.2-21.2l-27,15.1L133.8,706.8z"/>
	<path class="st7" d="M129.7,663.8l39.1-24.1l46.6,0.2c12.4,0.1,24,6.1,31.3,16.1l13.3,18.9c0,0,10.9,15.6,15.1,23.4
		c4.2,7.8-4.6,45.9-6.2,49.3c-1.6,3.4-19.1,36.7-19.1,36.7l-11.6,53.4l-35.9,2.5c0,0,8.6-48.9,9-66.9s3.6-47.1,3.6-47.1"/>
	<path class="st7" d="M202.6,834.9l-22.5-5.4c-3.6-1.9-8-0.4-9.6,3.3c-2.8,6.3-6,15.6-4.2,21.6c3,9.6,6.7,12.5,6.7,12.5
		s4.9-17.4,10.2-18.2c5.2-0.8,8.4,0.3,8.4,0.3s40.5,6.1,44.5,1.6c4-4.5,2.4-13.9,2.4-13.9"/>
	<path class="st7" d="M213.7,834.2c0,0-10.1-7.9-14.1-7.1c-3.9,0.9-10.3,3.1-10.3,3.1s-11,21.1,0.3,35.6c0,0,8.4-23,13-23.1"/>
	<path class="st7" d="M222.5,833.6c0,0-4.8-6.9-10.1-5.4c-5.3,1.5-15.7,14.1-14.5,19.4c1.2,5.4,9.9,21.9,9.9,21.9l7-21.1l4.8-7.8"/>
	<path class="st14" d="M137.2,698.2l14.2,2.8c1.9,0.4,4-0.3,5.2-1.8l8.7-10.3"/>
	<polygon class="st17" points="169.7,577.6 148.5,557.5 149.4,571.2 138.2,564 139,575.5 121.6,565.2 127.3,579.2 113,572.7 
		117.9,581.2 99.5,579.9 112.9,589.4 90.4,593.9 111.1,600.6 92.6,606.8 113,609.9 92.1,618.4 104.2,622.3 90.4,635.2 121,636 
		134.3,632.1 172.1,582 	"/>
	<g id="XMLID_00000073685629326968060810000009301152886671094913_">
		<g>
			<path class="st3" d="M227.9,646.1l8.6,12c-1.8,5.7-14.3,14.9-14.3,14.9c-6-0.2-21.9-14-27.8-18.2c-4.1-2.9-9.5-3.1-12.3-3
				c-0.9,0.1-1.5,1.1-1,1.9l0.4,0.7c-3,1.8-7.7,5.7-9.6,14c-1.6,6.7,13.5,28.2,13.5,28.2s5.5,5.3,20.2,2.7c-0.9,2.8-2.8,8.1-5,9.7
				c-3,2.2-15.9,1.1-15.9,1.1l-24.6-27l-6.8,0.5l-18.1,9.2l2,5.4l-3.4,8.6l-19.9-32.4c-4.3-7-6.1-15.3-5-23.4l1.8-13l0.6-1.1
				c2.2-4.2,3.8-4,8.5-4.6l10.5-4.1c-4.9-5.2-0.4-12.5-0.4-12.5l-10.4-15l15-0.4l-4.8-16l18.2,9.7l-1.4-19.8l18.9,12.1l3-24.4
				l13,25.5l6.3-15.4l10,27.9l8.8-15.9l4.3,20.7l8.6-6.5l1.9,27.5c0,0,2.8-11.1,4-4.2C226.7,628.4,227.9,646.1,227.9,646.1z"/>
			<path class="st4" d="M181.4,654.3l24.7,43.1c0,0-0.2,0.7-0.5,1.8c-14.7,2.6-20.2-2.7-20.2-2.7s-15.1-21.5-13.5-28.2
				C173.8,660,178.4,656.1,181.4,654.3z"/>
		</g>
		<g>
			<path class="st14" d="M181.4,654.3l-0.4-0.7c-0.5-0.8,0.1-1.8,1-1.9c2.9-0.1,8.2,0.1,12.3,3c5.9,4.2,21.8,18,27.8,18.2
				c0,0,12.5-9.2,14.3-14.9l-8.6-12c0,0-1.2-17.6-2.5-24.5c-1.3-6.9-4,4.2-4,4.2l-1.9-27.5l-8.6,6.5l-4.3-20.7l-8.8,15.9l-10-27.9
				l-6.3,15.4l-13-25.5l-3,24.4l-18.9-12.1l1.4,19.8l-18.2-9.7l4.8,16l-15,0.4l10.4,15c0,0-4.6,7.3,0.4,12.5l-10.5,4.1
				c-4.7,0.6-6.3,0.5-8.5,4.6l-0.6,1.1l-1.8,13c-1.1,8.2,0.7,16.4,5,23.4l19.9,32.4l3.4-8.6l-2-5.4l18.1-9.2l6.8-0.5l24.6,27
				c0,0,12.8,1.1,15.9-1.1c2.2-1.6,4.1-6.9,5-9.7c0.3-1.1,0.5-1.8,0.5-1.8L181.4,654.3z"/>
			<path class="st14" d="M184.3,653.1c0,0-1.2,0.3-2.9,1.3c-3,1.8-7.7,5.7-9.6,14c-1.6,6.7,13.5,28.2,13.5,28.2s5.5,5.3,20.2,2.7
				c0.9-0.2,1.8-0.3,2.8-0.6"/>
		</g>
	</g>
	<path class="st18" d="M182.7,633.3c0,0,6.9,0.1,8.2,3.1c1.3,3,1.1,7.4,1.1,7.4s-7,0.2-7.8-4.6C183.3,634.3,182.7,633.3,182.7,633.3
		z"/>
	<path class="st14" d="M191.1,629.9c0,0,4.3,2.4,5,6.8c0.6,4.4,2,7.6,2,7.6"/>
	<g>
		<path class="st14" d="M129.9,615.7l9.6,12.6c0,0-2.2,3.3,0.6,8.2s11.1,6.9,11.1,6.9"/>
		<path class="st14" d="M174.7,648.4c0,0,6.5-3.2,10.6-1.9s13.9,4.9,13.9,4.9"/>
		<path class="st14" d="M173.6,633.2c0,0,6-4.9,9.7-5.3"/>
		<path class="st14" d="M142.5,672.2c0,0-11.2,9.2-14.5,11.8c-3.2,2.6-1.3,11.5-1.3,11.5"/>
		<path class="st14" d="M120.3,684.8c0,0,0.1-5.3,3.6-9.5c3.5-4.2,10.4-13.1,10.4-13.1"/>
		<path class="st14" d="M113.9,674.5c0,0,1-8.2,3.8-11.1c2.8-2.9,12.4-9.1,12.4-9.1"/>
		<polyline class="st14" points="109.9,665.2 112.7,656.7 125.3,645.3 		"/>
		<line class="st14" x1="142.6" y1="605.4" x2="150.5" y2="618.1"/>
		<line class="st14" x1="158.8" y1="595" x2="168.2" y2="616.9"/>
		<line class="st14" x1="174.7" y1="591.3" x2="180.2" y2="611.3"/>
		<line class="st14" x1="191.5" y1="607.3" x2="197.2" y2="623.3"/>
		<line class="st14" x1="204.1" y1="606.4" x2="205.8" y2="631"/>
		<line class="st14" x1="214.9" y1="615" x2="212.7" y2="635.9"/>
		<line class="st14" x1="143.8" y1="652.1" x2="157" y2="658.6"/>
		<polyline class="st14" points="109.6,646.4 113.8,640.8 123.8,637.6 		"/>
	</g>
	<path class="st7" d="M308.3,702.3c0,0-23.5,20.2-22.4,35.4c0.7,10.7,4.2,30.2,5.2,36.9c0.5,3.3,1.8,6.4,3.9,9.1
		c4.8,6.2,14.6,16.5,26.9,16.4c17.5-0.2,32.7,10,32.7,10l-13.8,27.3l26.3-1.8c0,0,1.7-29.2,8.3-32.9c6.7-3.7-2.1-17.5-10.1-18.5
		c-7.9-1-12.9-3.9-12.9-3.9l-17.5-7.1c0,0,10.9-36.7,13.5-60.6"/>
	<path class="st12" d="M-90.8,622.2c0,0,35.4-50.7,85.1-60.3"/>
	<path class="st12" d="M-14.7,667.4c0,0,13.2-67.4,46.3-78.6"/>
	<path class="st12" d="M51,673.9c0,0-8.7-28.1,4.4-66.2"/>
	<g>
		<path class="st19" d="M203,700.1c-1.5,0-2.6-0.9-2.7-2.2c-0.9-2.4-13.8-21.7-21.8-33.4c-0.3-0.4-0.3-0.9-0.2-1.3
			c0.2-0.5,0.5-0.8,1-0.9l6.8-2.1c0.1,0,0.3-0.1,0.4-0.1c0.3,0,0.7,0.1,1,0.3c0.4,0.3,0.6,0.8,0.5,1.3l-0.3,2.6l1.2-0.3
			c0.1,0,0.2,0,0.4,0c0.3,0,0.6,0.1,0.9,0.3c0.4,0.3,0.6,0.7,0.6,1.1l0.2,3.6l2.6-0.5c0.1,0,0.2,0,0.3,0c0.4,0,0.8,0.1,1,0.4
			c0.3,0.3,0.5,0.8,0.5,1.3l-0.5,4l1.7-0.7c0.2-0.1,0.4-0.1,0.6-0.1c0.3,0,0.5,0.1,0.8,0.2c0.4,0.3,0.7,0.7,0.7,1.2l0.3,6.1l1.8-0.5
			c0.1,0,0.3-0.1,0.4-0.1c0.3,0,0.6,0.1,0.9,0.3c0.4,0.3,0.6,0.7,0.6,1.1l0.3,4.6l2.5-1.4c0.2-0.1,0.5-0.2,0.7-0.2
			c0.2,0,0.4,0,0.6,0.1c0.4,0.2,0.7,0.6,0.8,1.1c0.3,1.3,1.5,8,0.6,10.7C207.7,698.6,204.9,700.1,203,700.1L203,700.1z"/>
		<path d="M186.5,661.5L186.5,661.5 M186.5,661.5l-0.5,4.7l3.2-0.8l0.4,5.2l4.3-0.8l-0.9,6.6l4.1-1.8l0.5,7.9l3.6-1l0.5,6.9l4.6-2.5
			c0,0,1.5,7.5,0.7,9.9c-0.6,1.6-2.7,2.8-4.1,2.8c-0.7,0-1.2-0.3-1.2-0.9c-0.1-2-22-34-22-34L186.5,661.5 M186.5,658.5
			c0,0-0.1,0-0.1,0c-0.3,0-0.6,0.1-0.8,0.2l-6.8,2.1c-0.9,0.3-1.6,1-1.9,1.9s-0.2,1.9,0.4,2.7c9.6,14.1,20.3,30.3,21.6,33
			c0.3,2,2,3.3,4.2,3.3c2.5,0,5.9-1.8,6.9-4.8c1-2.8-0.1-8.9-0.6-11.4c-0.2-0.9-0.8-1.7-1.7-2.1c-0.4-0.2-0.8-0.3-1.3-0.3
			c-0.5,0-1,0.1-1.4,0.4l-0.5,0.3l-0.2-2.2c-0.1-0.9-0.5-1.7-1.3-2.2c-0.5-0.4-1.1-0.6-1.7-0.6c-0.3,0-0.5,0-0.8,0.1l-0.1,0
			l-0.2-4.2c-0.1-1-0.6-1.9-1.4-2.4c-0.5-0.3-1-0.4-1.6-0.4c-0.2,0-0.3,0-0.5,0l0.2-1.5c0.1-1-0.2-1.9-0.9-2.6
			c-0.6-0.5-1.3-0.8-2.1-0.8c-0.2,0-0.4,0-0.5,0.1l-0.9,0.2l-0.1-1.9c-0.1-0.9-0.5-1.7-1.2-2.2c-0.5-0.3-1-0.5-1.6-0.6l0-0.4
			c0-0.1,0-0.3,0-0.5C189.5,659.9,188.2,658.5,186.5,658.5C186.5,658.5,186.5,658.5,186.5,658.5L186.5,658.5z"/>
	</g>
	<g>
		<path class="st2" d="M196.1,700.2c-6.4,0-9.6-1.8-9.7-1.9c-0.1,0-0.1-0.1-0.2-0.1c-13.9-11.5-15.9-28.4-16-29.1
			c0-0.4,0.1-0.8,0.3-1.1c0.3-0.3,0.6-0.5,1-0.5l5.2-0.4c0,0,0.1,0,0.1,0c0.5,0,1,0.3,1.3,0.7c0.3,0.5,0.3,1.1,0,1.6l-2.2,3.6
			l3.1-0.2c0,0,0.1,0,0.1,0c0.5,0,1,0.3,1.3,0.7c0.3,0.5,0.3,1.1,0,1.5l-1.8,3.2l3-0.2c0,0,0.1,0,0.1,0c0.5,0,1,0.3,1.3,0.7
			c0.3,0.5,0.3,1,0.1,1.5l-1.7,3.2l3.4-0.2c0,0,0.1,0,0.1,0c0.5,0,1,0.3,1.3,0.7c0.3,0.5,0.3,1.1,0,1.5l-1.7,3.1l2.8-0.8
			c0.1,0,0.3-0.1,0.4-0.1c0.4,0,0.8,0.2,1.1,0.4c0.4,0.4,0.5,1,0.4,1.5l-0.8,2.5l1.8-0.8c0.2-0.1,0.4-0.1,0.6-0.1
			c0.3,0,0.5,0.1,0.8,0.2c0.4,0.3,0.7,0.7,0.7,1.2l0.2,2.5l3.3-3c0.3-0.3,0.6-0.4,1-0.4c0.1,0,0.3,0,0.4,0.1c0.5,0.1,0.9,0.5,1,1
			l0.7,2.8l3.1-3.8c0.3-0.3,0.7-0.5,1.2-0.5c0.1,0,0.2,0,0.3,0c0.6,0.1,1,0.6,1.1,1.1l1.2,5.2c0.1,0.4,0,0.8-0.2,1.1s-0.6,0.6-1,0.7
			C201.7,699.9,198.8,700.2,196.1,700.2C196.1,700.2,196.1,700.2,196.1,700.2z"/>
		<path d="M176.8,668.5L176.8,668.5 M176.8,668.5l-3.7,6.1l5.9-0.4l-3.1,5.6l5.7-0.4l-2.9,5.6l6-0.4l-3.5,6.3l6.3-1.8l-1.7,5.7
			l4.9-2.2l0.4,5.6l5.6-5.2l1.5,5.5l5-6l1.2,5.2c-3.3,0.7-6,0.9-8.3,0.9c-6,0-8.9-1.7-8.9-1.7c-13.6-11.3-15.5-28.1-15.5-28.1
			L176.8,668.5 M176.8,665.5C176.8,665.5,176.8,665.5,176.8,665.5c-0.1,0-0.2,0-0.2,0l-5.1,0.4c-0.8,0.1-1.6,0.4-2.1,1.1
			s-0.8,1.4-0.7,2.2c0.1,0.7,2.1,18.2,16.5,30.1c0.1,0.1,0.3,0.2,0.4,0.3c0.4,0.2,3.8,2.1,10.4,2.1c2.8,0,5.8-0.3,9-1
			c0.8-0.2,1.5-0.6,1.9-1.3c0.4-0.7,0.6-1.5,0.4-2.3l-1.2-5.2c-0.3-1.1-1.1-2-2.2-2.2c-0.2-0.1-0.5-0.1-0.7-0.1
			c-0.9,0-1.7,0.4-2.3,1.1l-1.3,1.6c-0.3-1-1.1-1.8-2.1-2.1c-0.3-0.1-0.6-0.1-0.8-0.1c-0.7,0-1.5,0.3-2,0.8l-1.1,1
			c-0.2-0.8-0.7-1.4-1.4-1.8c-0.5-0.3-1-0.4-1.5-0.4c-0.1,0-0.1,0-0.2,0c0.2-0.9-0.1-1.9-0.8-2.6c-0.6-0.6-1.3-0.9-2.1-0.9
			c-0.1,0-0.1,0-0.2,0l0,0c0.5-1,0.5-2.1-0.1-3.1c-0.6-0.9-1.5-1.4-2.5-1.4c-0.1,0-0.1,0-0.2,0l-0.7,0l0.4-0.9c0.5-1,0.4-2.1-0.2-3
			c-0.6-0.8-1.5-1.3-2.5-1.3c-0.1,0-0.1,0-0.2,0l-0.2,0l0.4-0.8c0.5-1,0.5-2.1-0.1-3.1c-0.6-0.9-1.5-1.4-2.5-1.4c-0.1,0-0.1,0-0.2,0
			l-0.2,0l0.6-1.1c0.3-0.5,0.5-1,0.5-1.6C179.8,666.9,178.5,665.6,176.8,665.5C176.8,665.5,176.8,665.5,176.8,665.5L176.8,665.5z"/>
	</g>
	<line class="st14" x1="258.8" y1="634.9" x2="257.9" y2="622.3"/>
	<line class="st14" x1="269.9" y1="636.6" x2="267.4" y2="654.2"/>
	<line class="st14" x1="280" y1="665.4" x2="286.3" y2="658.1"/>
	<line class="st14" x1="270.1" y1="598.5" x2="282.1" y2="597.6"/>
	<path class="st14" d="M140.3,722.1c0,0,19.1,10.9,26.1,10.5c7-0.5,18.2-22.5,18.2-22.5"/>
	<path class="st14" d="M153.7,746.2c0,0,22.6,7.8,28.3,6.8c5.7-0.9,15.3-33.8,15.3-33.8"/>
	<path class="st14" d="M168.9,767c0,0,20.9,9.5,26.6,6.2c5.7-3.2,17.4-25.4,17.4-25.4"/>
	<path class="st7" d="M344.1,830.5c0,0-11.6,2.7-11.4,5.1c0.2,2.3,3.5,15.7,3.5,15.7l9.7,3.6l-0.2-17.9"/>
	<path class="st7" d="M354.7,829.7c0,0-11.6,2.7-11.4,5.1s3.5,15.7,3.5,15.7l9.7,3.6l-0.2-17.9"/>
	<g>
		<path class="st2" d="M212,679.7c-0.1,0-0.2,0-0.3,0c-0.5-0.1-0.9-0.4-1.1-0.8l-1.8-3.7l-3.5,1.7c-0.2,0.1-0.4,0.2-0.7,0.2
			c-0.3,0-0.5-0.1-0.8-0.2c-0.4-0.2-0.7-0.7-0.7-1.2l-0.3-4.5l-3.3,1.6c-0.2,0.1-0.4,0.2-0.7,0.2c-0.3,0-0.5-0.1-0.7-0.2
			c-0.4-0.2-0.7-0.7-0.8-1.2l-0.3-4.8l-2.5,1.8c-0.3,0.2-0.6,0.3-0.9,0.3c-0.2,0-0.4,0-0.6-0.1c-0.5-0.2-0.8-0.7-0.9-1.3l-0.3-4.1
			l-2.8,1.7c-0.2,0.1-0.5,0.2-0.8,0.2c-0.2,0-0.5-0.1-0.7-0.2c-0.5-0.2-0.8-0.7-0.8-1.2l-0.3-4.1l-2.4,1.5c-0.2,0.1-0.5,0.2-0.8,0.2
			c-0.2,0-0.5-0.1-0.7-0.2c-0.5-0.2-0.8-0.7-0.8-1.2l-0.5-6.8c0-0.4,0.1-0.8,0.4-1.1s0.6-0.5,1.1-0.5c0.2,0,0.3,0,0.5,0
			c12.2,0,33.5,19.9,34.4,20.8c0.3,0.3,0.5,0.7,0.5,1.1s-0.2,0.8-0.5,1.1l-4.9,4.8C212.8,679.5,212.4,679.7,212,679.7z"/>
		<path d="M183.5,653.1c11.7,0,33.4,20.4,33.4,20.4l-4.9,4.8l-2.4-5.1l-4.9,2.4l-0.5-6.7l-5.3,2.6l-0.5-7.5l-4.6,3.3l-0.5-6.5
			l-4.9,3l-0.5-6.5l-4.5,2.8l-0.5-6.8C183.2,653.1,183.3,653.1,183.5,653.1 M183.5,650.1c-0.2,0-0.4,0-0.6,0c-0.8,0-1.6,0.4-2.1,1
			c-0.5,0.6-0.8,1.4-0.8,2.2l0.5,6.8c0.1,1,0.7,2,1.6,2.5c0.4,0.2,0.9,0.3,1.4,0.3c0.5,0,1.1-0.1,1.6-0.4l0.3-0.2l0.1,1.6
			c0.1,1,0.7,2,1.6,2.5c0.4,0.2,0.9,0.3,1.4,0.3c0.5,0,1.1-0.1,1.6-0.4l0.6-0.4l0.1,1.6c0.1,1.1,0.7,2,1.7,2.5
			c0.4,0.2,0.8,0.3,1.3,0.3c0.6,0,1.2-0.2,1.7-0.6l0.3-0.2l0.1,2.1c0.1,1,0.6,1.9,1.5,2.4c0.5,0.3,1,0.4,1.5,0.4
			c0.5,0,0.9-0.1,1.3-0.3l1.2-0.6l0.2,2.2c0.1,1,0.6,1.9,1.5,2.4c0.5,0.3,1,0.4,1.5,0.4c0.4,0,0.9-0.1,1.3-0.3l2.2-1.1l1.1,2.4
			c0.4,0.9,1.2,1.5,2.2,1.7c0.2,0,0.4,0,0.5,0c0.8,0,1.5-0.3,2.1-0.9l4.9-4.8c0.6-0.6,0.9-1.4,0.9-2.2s-0.3-1.6-0.9-2.2
			C216.6,669.1,196,650.1,183.5,650.1L183.5,650.1z"/>
	</g>
	<line class="st14" x1="252.5" y1="649.6" x2="258.5" y2="647.3"/>
	<line class="st14" x1="293.7" y1="672.8" x2="300.2" y2="671.7"/>
	<line class="st14" x1="298.1" y1="601.6" x2="306.8" y2="587.2"/>
	<polyline class="st14" points="318.3,575.7 331.3,569.6 330.7,560.9 	"/>
	<line class="st14" x1="330" y1="550.7" x2="341.2" y2="549.9"/>
	<line class="st14" x1="352.6" y1="536.9" x2="351.9" y2="527.4"/>
	<polyline class="st13" points="355.4,491.2 359,482.6 371,481.8 	"/>
	<line class="st13" x1="350.5" y1="507.2" x2="356.5" y2="506.8"/>
	<line class="st13" x1="388.1" y1="474.6" x2="392.1" y2="467.8"/>
	<line class="st13" x1="406.8" y1="464" x2="418.6" y2="466"/>
	<line class="st13" x1="435.7" y1="467.6" x2="438.6" y2="463.2"/>
	<line class="st13" x1="447" y1="455.6" x2="454.1" y2="458.7"/>
	<line class="st13" x1="476.2" y1="451.1" x2="473.4" y2="457.3"/>
	<line class="st13" x1="491" y1="452.5" x2="508.5" y2="451.3"/>
	<polyline class="st14" points="227.8,705.2 238.6,719.3 244.4,732.3 252.5,731.7 	"/>
	<polyline class="st14" points="252.4,688.5 262.1,697.9 264.5,716.6 	"/>
	<line class="st14" x1="231" y1="687.9" x2="243.8" y2="699.1"/>
	<line class="st14" x1="257.6" y1="722.5" x2="260.4" y2="731.2"/>
	<line class="st14" x1="210.6" y1="714.3" x2="222.1" y2="718"/>
	<polyline class="st14" points="217.5,687.2 218.6,694.8 226,696 	"/>
	<line class="st14" x1="239.4" y1="668.3" x2="244.4" y2="673.6"/>
	<polyline class="st14" points="225,737.3 222,745.7 224.1,750.1 	"/>
	<polyline class="st14" points="230.1,810.7 235.4,793.3 234.7,783 	"/>
	<polyline class="st14" points="244.6,782.4 246.2,766.3 254.2,756.7 	"/>
	<line class="st14" x1="241.4" y1="745.9" x2="236.4" y2="760.1"/>
	<line class="st14" x1="221.8" y1="769.6" x2="219.2" y2="786.2"/>
	<line class="st14" x1="215.3" y1="808.8" x2="216.3" y2="823.2"/>
	<line class="st14" x1="60.5" y1="592.5" x2="69.4" y2="599.2"/>
	<polyline class="st14" points="44.3,581.4 52.8,595.7 58.7,599.4 	"/>
	<polyline class="st14" points="16.5,557.1 27.1,563.9 30.1,570.7 	"/>
	<line class="st14" x1="22.8" y1="571.6" x2="29.6" y2="579.1"/>
	<polyline class="st14" points="-14.9,527.2 -3.9,530.7 4.2,543.3 	"/>
	<line class="st14" x1="-40.6" y1="525.6" x2="-22.1" y2="534.2"/>
	<line class="st14" x1="-74.2" y1="527.3" x2="-55.4" y2="520.9"/>
	<polyline class="st14" points="-121.6,540 -102.3,539.2 -91.9,530 	"/>
	<line class="st14" x1="117.6" y1="697.9" x2="127.4" y2="707.3"/>
	<line class="st14" x1="132.7" y1="719.7" x2="131.8" y2="729.3"/>
	<line class="st14" x1="281.8" y1="691.5" x2="290.6" y2="695.9"/>
	<polyline class="st14" points="266.6,763 275,762.4 278.2,755.7 	"/>
	<line class="st14" x1="279.3" y1="729.9" x2="283" y2="733.3"/>
	<line class="st14" x1="294.1" y1="705.3" x2="301.8" y2="695.1"/>
	<polyline class="st14" points="301.8,741.7 299.2,751.8 303.2,762.4 	"/>
	<line class="st14" x1="309.9" y1="744.1" x2="309" y2="731.5"/>
	<polyline class="st14" points="327.6,703 331.2,723.6 325.9,738.3 	"/>
	<polyline class="st14" points="329.9,750.1 324.6,764.3 328.5,774.8 	"/>
	<line class="st14" x1="310.5" y1="779.8" x2="316" y2="788.1"/>
	<line class="st14" x1="314.6" y1="768" x2="322" y2="774.3"/>
	<line class="st14" x1="333.6" y1="789.8" x2="344.2" y2="789.1"/>
	<line class="st14" x1="353.2" y1="793" x2="356.7" y2="801.8"/>
	<polyline class="st14" points="94.4,780.3 95.8,768.4 106.2,767 	"/>
	<polyline class="st14" points="109.7,755.1 119.5,754.4 123.8,744.4 	"/>
	<line class="st14" x1="118.1" y1="733.9" x2="119.4" y2="722.9"/>
	<polyline class="st14" points="79.2,775.2 83.3,764.9 95,756.1 	"/>
	<line class="st14" x1="18.8" y1="735.4" x2="30.1" y2="743.9"/>
	<polyline class="st14" points="50.5,744.9 53.5,754.1 66.4,758.1 	"/>
	<polyline class="st14" points="68.9,739.3 84.7,730.8 91.1,732.1 	"/>
	<line class="st14" x1="83.8" y1="718" x2="96.1" y2="717.1"/>
	<polyline class="st14" points="-14.3,722.1 1.6,729.9 4.7,738.1 	"/>
	<line class="st14" x1="-35.5" y1="720.6" x2="-27.8" y2="723"/>
	<line class="st14" x1="-59.4" y1="730.9" x2="-52.5" y2="726.6"/>
</g>
<g>
	<g>
		<polygon class="st0" points="181.8,142.3 170.1,131.2 170.6,138.8 164.3,134.8 164.8,141.2 155.2,135.5 158.3,143.2 150.4,139.6 
			153.1,144.3 142.9,143.6 150.3,148.9 137.8,151.3 149.3,155.1 139.1,158.5 150.4,160.2 138.8,164.9 145.5,167.1 137.9,174.2 
			154.8,174.7 162.2,172.5 183.1,144.8 		"/>
		<path d="M154.8,175.5C154.8,175.5,154.8,175.5,154.8,175.5l-17-0.5c-0.3,0-0.6-0.2-0.8-0.5c-0.1-0.3,0-0.7,0.2-0.9l6.6-6.2
			l-5.4-1.7c-0.3-0.1-0.6-0.4-0.6-0.8c0-0.3,0.2-0.7,0.5-0.8l8.8-3.6l-8.3-1.3c-0.4-0.1-0.7-0.4-0.7-0.8c0-0.4,0.2-0.7,0.6-0.9
			l7.9-2.6l-9.1-2.9c-0.4-0.1-0.6-0.5-0.6-0.8c0-0.4,0.3-0.7,0.7-0.8l10.6-2.1l-5.8-4.2c-0.3-0.2-0.4-0.6-0.3-1
			c0.1-0.4,0.5-0.6,0.8-0.5l8.6,0.6l-1.9-3.3c-0.2-0.3-0.1-0.7,0.1-1c0.2-0.3,0.6-0.3,1-0.2l6,2.7l-2.4-5.8c-0.1-0.3,0-0.7,0.2-0.9
			c0.3-0.2,0.7-0.3,1-0.1l8.3,4.9l-0.3-4.8c0-0.3,0.1-0.6,0.4-0.8c0.3-0.2,0.6-0.2,0.9,0l4.9,3.1l-0.4-5.9c0-0.3,0.2-0.7,0.5-0.8
			c0.3-0.1,0.7-0.1,0.9,0.1l11.8,11.1c0.1,0.1,0.1,0.1,0.2,0.2l1.3,2.4c0.1,0.3,0.1,0.6-0.1,0.9L162.9,173c-0.1,0.1-0.3,0.2-0.4,0.3
			l-7.3,2.1C155,175.5,154.9,175.5,154.8,175.5z M139.9,173.5l14.8,0.4l7-2l20.4-27.1l-1-1.9l-10.1-9.6l0.4,5.4
			c0,0.3-0.1,0.6-0.4,0.8c-0.3,0.2-0.6,0.2-0.9,0l-4.9-3.1l0.3,4.7c0,0.3-0.1,0.6-0.4,0.8c-0.3,0.2-0.6,0.2-0.9,0l-7.5-4.4l2.2,5.5
			c0.1,0.3,0.1,0.7-0.2,0.9c-0.2,0.2-0.6,0.3-0.9,0.2l-5.6-2.5l1.4,2.5c0.2,0.3,0.1,0.6,0,0.9c-0.2,0.3-0.5,0.4-0.8,0.4l-7.2-0.5
			l5,3.5c0.3,0.2,0.4,0.5,0.3,0.9c-0.1,0.3-0.3,0.6-0.7,0.6l-9.4,1.9l8.4,2.7c0.3,0.1,0.6,0.4,0.6,0.8c0,0.4-0.2,0.7-0.6,0.8l-7,2.3
			l7.9,1.2c0.4,0.1,0.7,0.4,0.7,0.7c0,0.4-0.2,0.7-0.5,0.9l-9.5,3.8l4.5,1.5c0.3,0.1,0.5,0.3,0.6,0.6c0.1,0.3,0,0.6-0.2,0.8
			L139.9,173.5z"/>
	</g>
	<g>
		<g>
			<path class="st3" d="M194.1,215.3c-1.9,0-3.6-0.1-3.8-0.2c0,0-0.1,0-0.1,0l-13.6-14.9l-3.6,0.3l-9.9,5.1l1.1,2.9c0,0,0,0.1,0,0.1
				l-1.9,4.8c0,0-0.1,0.1-0.1,0.1c-0.1,0-0.1,0-0.1-0.1l-11-17.9c-2.4-3.9-3.4-8.5-2.8-13.1l1-7.2c0,0,0,0,0,0l0.3-0.6
				c1.1-2.2,2.1-2.3,4.2-2.6c0.2,0,0.4-0.1,0.6-0.1l5.6-2.2c-1-1.2-1.4-2.8-1-4.5c0.2-1.2,0.7-2.1,0.9-2.4l-5.7-8.3c0,0,0-0.1,0-0.1
				c0,0,0.1-0.1,0.1-0.1l8.1-0.2l-2.6-8.7c0-0.1,0-0.1,0-0.1c0,0,0.1,0,0.2,0l9.9,5.2l-0.7-10.7c0-0.1,0-0.1,0.1-0.1
				c0,0,0.1,0,0.1,0l10.3,6.6l1.6-13.3c0-0.1,0.1-0.1,0.1-0.1c0.1,0,0.1,0,0.1,0.1l7.1,13.9l3.4-8.3c0-0.1,0.1-0.1,0.1-0.1
				c0,0,0,0,0,0c0.1,0,0.1,0,0.1,0.1l5.5,15.2l4.7-8.6c0-0.1,0.1-0.1,0.1-0.1c0.1,0,0.1,0.1,0.1,0.1l2.3,11.3l4.6-3.5
				c0,0,0.1,0,0.1,0c0,0,0.1,0.1,0.1,0.1l1,14.4c0.3-1.2,0.9-2.9,1.6-2.9c0,0,0,0,0,0c0.3,0,0.6,0.4,0.7,1.4
				c0.7,3.7,1.3,12.9,1.4,13.6l4.7,6.6c0,0,0,0.1,0,0.1c-1,3.2-7.7,8.1-8,8.4c0,0-0.1,0-0.1,0c-2.6-0.1-8.3-4.5-12.4-7.8
				c-1.2-1-2.3-1.8-3.1-2.3c-2.2-1.6-5.2-1.7-6.7-1.6c-0.2,0-0.4,0.1-0.5,0.3c-0.1,0.2-0.1,0.4,0,0.5l0,0l13.9,24.2c0,0,0,0.1,0,0.1
				c-0.1,0.2-1.4,5.2-3.1,6.5C198.3,215.2,196.1,215.3,194.1,215.3z"/>
			<path d="M194.1,216.4c-1.9,0-3.7-0.1-3.8-0.2c-0.3,0-0.6-0.2-0.8-0.4l-13.3-14.5l-2.9,0.2l-8.9,4.5l0.7,2c0.1,0.2,0.1,0.6,0,0.8
				l-1.9,4.8c-0.2,0.4-0.5,0.7-1,0.7c-0.4,0.1-0.9-0.2-1.1-0.6l-11-17.9c-2.5-4.1-3.6-9-2.9-13.8l1-7.2c0-0.1,0.1-0.3,0.1-0.4
				l0.3-0.6c1.4-2.7,2.8-2.8,5-3.1l0.5-0.1l4.3-1.7c-0.6-1.2-0.8-2.7-0.5-4.2c0.2-0.8,0.5-1.6,0.7-2.1l-5.4-7.7
				c-0.2-0.4-0.3-0.8-0.1-1.2c0.2-0.4,0.6-0.6,1-0.6l6.7-0.2l-2.2-7.4c-0.1-0.5,0-0.9,0.4-1.2c0.4-0.3,0.9-0.4,1.3-0.1l8.2,4.4
				l-0.6-8.8c0-0.4,0.2-0.9,0.6-1.1c0.4-0.2,0.9-0.2,1.3,0l8.9,5.7l1.4-11.7c0.1-0.5,0.5-0.9,1-1c0.5-0.1,1,0.2,1.2,0.6l6.1,11.9
				l2.5-6.2c0.2-0.4,0.6-0.7,1.1-0.7c0.5,0,0.9,0.3,1.1,0.8l4.7,13l3.6-6.6c0.2-0.4,0.7-0.7,1.2-0.6c0.4,0.1,0.8,0.4,0.9,0.9l2,9.7
				l3.3-2.5c0.3-0.3,0.8-0.3,1.2-0.1c0.4,0.2,0.6,0.6,0.7,1l0.8,10.8c0.2-0.2,0.5-0.2,0.8-0.2c1.4,0,1.7,1.6,1.8,2.2
				c0.6,3.5,1.3,11.7,1.4,13.4l4.6,6.4c0.2,0.3,0.3,0.7,0.2,1c-1.1,3.4-7.6,8.3-8.3,8.9c-0.2,0.1-0.5,0.2-0.7,0.2
				c-2.8-0.1-7.6-3.7-13.1-8c-1.2-1-2.3-1.8-3-2.3c-1.7-1.2-3.8-1.4-5.3-1.5l13.5,23.5c0.2,0.3,0.2,0.6,0.1,0.9
				c-0.2,0.9-1.6,5.6-3.5,7C199.2,215.8,198,216.4,194.1,216.4z M190.8,214.2c0.6,0,1.9,0.1,3.3,0.1c3.5,0,4.4-0.5,4.5-0.6
				c1-0.7,2.1-3.6,2.7-5.6l-13.7-23.9c-0.3-0.5-0.3-1.1,0-1.6c0.3-0.5,0.8-0.8,1.3-0.8c1.7-0.1,4.9,0,7.4,1.8
				c0.8,0.6,1.9,1.4,3.1,2.4c3.4,2.7,9.1,7.1,11.5,7.5c1.9-1.4,6.1-4.9,7.2-7.2l-4.5-6.2c-0.1-0.2-0.2-0.3-0.2-0.5
				c0-0.1-0.6-9-1.3-13c-0.1,0.3-0.2,0.7-0.4,1.2c-0.1,0.5-0.6,0.8-1.1,0.7c-0.5-0.1-0.9-0.5-0.9-1l-0.9-12.8l-3.3,2.5
				c-0.3,0.2-0.7,0.3-1,0.1c-0.3-0.1-0.6-0.4-0.6-0.8l-1.9-8.9l-3.6,6.4c-0.2,0.4-0.6,0.6-1,0.5c-0.4,0-0.8-0.3-0.9-0.7l-4.7-13
				l-2.5,6.1c-0.2,0.4-0.5,0.6-0.9,0.6c-0.4,0-0.8-0.2-1-0.6l-5.8-11.3l-1.3,10.4c0,0.4-0.3,0.7-0.6,0.8c-0.3,0.2-0.7,0.1-1-0.1
				l-8.8-5.6l0.6,8.9c0,0.4-0.2,0.7-0.5,0.9c-0.3,0.2-0.7,0.2-1,0l-8-4.2l2,6.6c0.1,0.3,0,0.6-0.2,0.9c-0.2,0.3-0.5,0.4-0.8,0.4
				l-6.4,0.2l4.8,6.9c0.2,0.3,0.2,0.8,0,1.1c-0.1,0.2-0.6,1-0.8,2c-0.3,1.5,0,2.7,0.8,3.6c0.2,0.3,0.3,0.6,0.2,0.9
				c-0.1,0.3-0.3,0.6-0.6,0.7l-5.6,2.2c-0.1,0-0.2,0.1-0.2,0.1l-0.6,0.1c-2,0.3-2.5,0.3-3.4,2l-0.2,0.5l-0.9,7
				c-0.6,4.3,0.4,8.7,2.6,12.4l10.1,16.4l1.1-2.8l-0.9-2.6c-0.2-0.5,0-1,0.5-1.3l9.9-5.1c0.1-0.1,0.3-0.1,0.4-0.1l3.6-0.3
				c0.3,0,0.6,0.1,0.8,0.3L190.8,214.2z M162.9,212.8L162.9,212.8C162.9,212.8,162.9,212.8,162.9,212.8z M201.4,207.8
				C201.4,207.8,201.4,207.8,201.4,207.8C201.4,207.8,201.4,207.8,201.4,207.8z M154.2,155.3L154.2,155.3
				C154.2,155.3,154.2,155.3,154.2,155.3z M210.1,153.8L210.1,153.8C210.1,153.8,210.1,153.8,210.1,153.8z M208.7,153.1
				C208.7,153.1,208.7,153.1,208.7,153.1L208.7,153.1z M159.4,146.1C159.4,146.1,159.4,146.1,159.4,146.1L159.4,146.1z M203.2,145.6
				L203.2,145.6C203.2,145.6,203.2,145.6,203.2,145.6z M168.6,140.5C168.6,140.5,168.6,140.5,168.6,140.5L168.6,140.5z M180.4,133.4
				C180.4,133.4,180.4,133.4,180.4,133.4L180.4,133.4z"/>
		</g>
		<g>
			<path class="st2" d="M189,173.2c0,0,3.8,0.1,4.5,1.7c0.7,1.6,0.6,4.1,0.6,4.1s-3.9,0.1-4.3-2.6C189.3,173.7,189,173.2,189,173.2z
				"/>
			<path class="st20" d="M194.1,179.8c-0.7,0-4.5-0.1-5.1-3.2c-0.4-2.4-0.7-3-0.7-3c-0.1-0.3-0.1-0.6,0.1-0.8
				c0.2-0.2,0.4-0.4,0.7-0.4c0.7,0,4.4,0.2,5.3,2.2c0.8,1.8,0.7,4.3,0.7,4.4C195,179.4,194.6,179.8,194.1,179.8
				C194.2,179.8,194.1,179.8,194.1,179.8z M194.1,179L194.1,179L194.1,179z M190.2,174.1c0.1,0.5,0.3,1.2,0.4,2.2
				c0.2,1.3,1.7,1.7,2.7,1.8c0-0.8-0.2-2-0.5-2.9C192.5,174.6,191.3,174.3,190.2,174.1z"/>
		</g>
		<path d="M197.5,180.1c-0.3,0-0.6-0.2-0.8-0.5c0-0.1-0.8-1.9-1.1-4.4c-0.3-2-2.3-3.2-2.3-3.2c-0.4-0.2-0.5-0.7-0.3-1.1
			c0.2-0.4,0.7-0.5,1.1-0.3c0.1,0.1,2.8,1.6,3.2,4.4c0.3,2.3,1,4,1,4c0.2,0.4,0,0.9-0.4,1.1C197.7,180.1,197.6,180.1,197.5,180.1z"
			/>
		<g>
			<path d="M171.5,179.7c-0.1,0-0.1,0-0.2,0c-0.2-0.1-5-1.3-6.7-4.2c-1.2-2.2-0.9-4-0.6-4.8l-5-6.6c-0.3-0.4-0.2-0.9,0.2-1.2
				c0.4-0.3,0.9-0.2,1.2,0.2l5.3,7c0.2,0.3,0.2,0.7,0,1c0,0.1-0.9,1.5,0.3,3.7c1.3,2.3,5.6,3.4,5.6,3.4c0.4,0.1,0.7,0.6,0.6,1
				C172.2,179.4,171.9,179.7,171.5,179.7z"/>
			<path d="M198.1,184.1c-0.1,0-0.2,0-0.3,0c-0.1,0-5.4-1.9-7.7-2.7c-1.6-0.5-4.3,0.5-5.2,1c-0.4,0.2-0.9,0-1.1-0.4
				c-0.2-0.4,0-0.9,0.4-1.1c0.2-0.1,3.9-1.9,6.5-1.1c2.3,0.8,7.7,2.7,7.7,2.7c0.4,0.2,0.7,0.6,0.5,1.1
				C198.8,183.9,198.5,184.1,198.1,184.1z"/>
			<path d="M184,174c-0.2,0-0.5-0.1-0.6-0.3c-0.3-0.4-0.2-0.9,0.1-1.2c0.4-0.3,3.6-2.9,5.8-3.1c0.5,0,0.9,0.3,0.9,0.7
				c0,0.5-0.3,0.9-0.7,0.9c-1.5,0.2-4.1,2.1-4.9,2.8C184.4,173.9,184.2,174,184,174z"/>
			<path d="M158,208.5c-0.4,0-0.7-0.3-0.8-0.7c-0.1-0.6-1.1-5.5,1-7.2c1.8-1.4,7.9-6.5,8-6.5c0.4-0.3,0.9-0.2,1.2,0.1
				c0.3,0.4,0.2,0.9-0.1,1.2c-0.1,0.1-6.2,5.1-8,6.5c-1,0.8-0.8,3.7-0.4,5.5c0.1,0.4-0.2,0.9-0.6,1
				C158.2,208.5,158.1,208.5,158,208.5z"/>
			<path d="M154.4,202.6C154.4,202.6,154.4,202.6,154.4,202.6c-0.5,0-0.8-0.4-0.8-0.8c0-0.1,0.1-3.2,2.2-5.8
				c1.9-2.3,5.7-7.2,5.8-7.2c0.3-0.4,0.8-0.4,1.2-0.1c0.4,0.3,0.4,0.8,0.1,1.2c0,0-3.9,4.9-5.8,7.3c-1.7,2.1-1.8,4.7-1.8,4.8
				C155.2,202.2,154.9,202.6,154.4,202.6z"/>
			<path d="M150.9,196.8C150.9,196.8,150.8,196.8,150.9,196.8c-0.6-0.1-0.9-0.5-0.8-0.9c0.1-0.5,0.6-4.9,2.3-6.6
				c1.6-1.7,6.8-5,7-5.2c0.4-0.2,0.9-0.1,1.1,0.3c0.2,0.4,0.1,0.9-0.3,1.1c-0.1,0-5.2,3.4-6.7,4.9c-1.1,1.2-1.7,4.5-1.9,5.7
				C151.7,196.5,151.3,196.8,150.9,196.8z"/>
			<path d="M148.7,191.7c-0.1,0-0.2,0-0.3,0c-0.4-0.1-0.7-0.6-0.5-1l1.5-4.7c0-0.1,0.1-0.3,0.2-0.4l7-6.3c0.3-0.3,0.9-0.3,1.2,0.1
				c0.3,0.3,0.3,0.9-0.1,1.2l-6.8,6.2l-1.5,4.5C149.4,191.5,149,191.7,148.7,191.7z"/>
			<path d="M171.2,165.6c-0.3,0-0.5-0.1-0.7-0.4l-4.4-7c-0.2-0.4-0.1-0.9,0.3-1.1c0.4-0.2,0.9-0.1,1.1,0.3l4.4,7
				c0.2,0.4,0.1,0.9-0.3,1.1C171.5,165.6,171.3,165.6,171.2,165.6z"/>
			<path d="M181,164.9c-0.3,0-0.6-0.2-0.8-0.5l-5.2-12.1c-0.2-0.4,0-0.9,0.4-1.1c0.4-0.2,0.9,0,1.1,0.4l5.2,12.1
				c0.2,0.4,0,0.9-0.4,1.1C181.2,164.9,181.1,164.9,181,164.9z"/>
			<path d="M187.6,161.8c-0.4,0-0.7-0.2-0.8-0.6l-3-11c-0.1-0.4,0.1-0.9,0.6-1c0.4-0.1,0.9,0.1,1,0.6l3,11c0.1,0.4-0.1,0.9-0.6,1
				C187.8,161.8,187.7,161.8,187.6,161.8z"/>
			<path d="M197,168.5c-0.3,0-0.7-0.2-0.8-0.6l-3.1-8.9c-0.2-0.4,0.1-0.9,0.5-1.1c0.4-0.2,0.9,0.1,1.1,0.5l3.1,8.9
				c0.2,0.4-0.1,0.9-0.5,1.1C197.2,168.5,197.1,168.5,197,168.5z"/>
			<path d="M201.8,172.7c-0.4,0-0.8-0.3-0.8-0.8l-1-13.6c0-0.5,0.3-0.9,0.8-0.9c0.4,0,0.9,0.3,0.9,0.8l1,13.6
				C202.7,172.3,202.4,172.7,201.8,172.7C201.9,172.7,201.9,172.7,201.8,172.7z"/>
			<path d="M205.6,175.4C205.6,175.4,205.6,175.4,205.6,175.4c-0.5-0.1-0.9-0.5-0.8-0.9L206,163c0-0.5,0.5-0.8,0.9-0.7
				c0.5,0,0.8,0.5,0.7,0.9l-1.2,11.6C206.4,175.1,206,175.4,205.6,175.4z"/>
			<path d="M174.8,188.1c-0.1,0-0.2,0-0.4-0.1l-7.3-3.6c-0.4-0.2-0.6-0.7-0.4-1.1c0.2-0.4,0.7-0.6,1.1-0.4l7.3,3.6
				c0.4,0.2,0.6,0.7,0.4,1.1C175.4,187.9,175.1,188.1,174.8,188.1z"/>
			<path d="M148.5,181.3c-0.2,0-0.4-0.1-0.5-0.2c-0.4-0.3-0.4-0.8-0.2-1.2l2.4-3.1c0.1-0.1,0.2-0.2,0.4-0.3l5.5-1.8
				c0.4-0.1,0.9,0.1,1,0.5c0.1,0.4-0.1,0.9-0.5,1l-5.3,1.7l-2.2,2.9C149,181.2,148.7,181.3,148.5,181.3z"/>
		</g>
		<g>
			<path class="st19" d="M187.4,190c0,0,12.1,17.8,12.2,18.9s2.5,0.3,2.9-1c0.5-1.3-0.4-5.5-0.4-5.5l-2.5,1.4l-0.3-3.8l-2,0.5
				l-0.3-4.4l-2.3,1l0.5-3.7l-2.4,0.4l-0.2-2.9l-1.8,0.5l0.3-2.6L187.4,190z"/>
			<path d="M191.1,188.8L191.1,188.8 M191.1,188.8l-0.3,2.6l1.8-0.5l0.2,2.9l2.4-0.4l-0.5,3.7l2.3-1l0.3,4.4l2-0.5l0.3,3.8l2.5-1.4
				c0,0,0.8,4.2,0.4,5.5c-0.3,0.9-1.5,1.5-2.3,1.5c-0.4,0-0.7-0.2-0.7-0.5c-0.1-1.1-12.2-18.9-12.2-18.9L191.1,188.8 M191.1,187.2
				C191.1,187.2,191.1,187.2,191.1,187.2c-0.2,0-0.4,0-0.5,0.1l-3.7,1.2c-0.5,0.2-0.9,0.5-1.1,1c-0.2,0.5-0.1,1,0.2,1.5
				c5.3,7.8,11.3,16.8,12,18.3c0.2,1.1,1.1,1.8,2.3,1.8c1.4,0,3.3-1,3.8-2.6c0.5-1.6,0-5-0.3-6.3c-0.1-0.5-0.4-1-0.9-1.2
				c-0.2-0.1-0.5-0.2-0.7-0.2c-0.3,0-0.6,0.1-0.8,0.2l-0.3,0.1l-0.1-1.2c0-0.5-0.3-1-0.7-1.2c-0.3-0.2-0.6-0.3-1-0.3
				c-0.1,0-0.3,0-0.4,0.1l0,0l-0.1-2.3c0-0.5-0.3-1-0.8-1.3c-0.3-0.2-0.6-0.2-0.9-0.2c-0.1,0-0.2,0-0.3,0l0.1-0.8
				c0.1-0.5-0.1-1.1-0.5-1.4c-0.3-0.3-0.7-0.5-1.1-0.5c-0.1,0-0.2,0-0.3,0l-0.5,0.1l-0.1-1c0-0.5-0.3-0.9-0.7-1.2
				c-0.3-0.2-0.6-0.3-0.9-0.3l0-0.2c0-0.1,0-0.2,0-0.3C192.8,187.9,192.1,187.2,191.1,187.2C191.2,187.2,191.1,187.2,191.1,187.2
				L191.1,187.2z"/>
		</g>
		<path class="st21" d="M186.7,190.1c0,0-1.7,1.8-4.4,3.6c-2.3,1.6,6.9,13.3,6.9,13.3s3.5,3.2,10.4,1.9"/>
		<g>
			<path class="st2" d="M188.5,183.1l0.3,3.8l2.5-1.5l0.3,3.6l2.7-1.6l0.3,3.6l2.6-1.8l0.3,4.1l2.9-1.5l0.3,3.7l2.7-1.3l1.3,2.8
				l2.7-2.6C207.3,194.4,194.9,182.8,188.5,183.1z"/>
			<path d="M188.7,183.1c6.5,0,18.5,11.3,18.5,11.3l-2.7,2.6l-1.3-2.8l-2.7,1.3l-0.3-3.7l-2.9,1.5l-0.3-4.1l-2.6,1.8l-0.3-3.6
				l-2.7,1.6l-0.3-3.6l-2.5,1.5l-0.3-3.8C188.6,183.1,188.7,183.1,188.7,183.1 M188.7,181.5c-0.1,0-0.2,0-0.3,0
				c-0.4,0-0.9,0.2-1.2,0.6c-0.3,0.3-0.4,0.8-0.4,1.2l0.3,3.8c0,0.6,0.4,1.1,0.9,1.4c0.2,0.1,0.5,0.2,0.8,0.2c0.3,0,0.6-0.1,0.9-0.2
				l0.2-0.1l0.1,0.9c0,0.6,0.4,1.1,0.9,1.4c0.2,0.1,0.5,0.2,0.8,0.2c0.3,0,0.6-0.1,0.9-0.2l0.4-0.2l0.1,0.9c0,0.6,0.4,1.1,1,1.4
				c0.2,0.1,0.5,0.2,0.7,0.2c0.3,0,0.7-0.1,1-0.3l0.2-0.1l0.1,1.2c0,0.6,0.4,1.1,0.8,1.3c0.3,0.1,0.5,0.2,0.8,0.2
				c0.3,0,0.5-0.1,0.7-0.2l0.7-0.3l0.1,1.2c0,0.6,0.3,1,0.8,1.3c0.3,0.1,0.5,0.2,0.8,0.2c0.2,0,0.5-0.1,0.7-0.2l1.2-0.6l0.6,1.3
				c0.2,0.5,0.7,0.8,1.2,0.9c0.1,0,0.2,0,0.3,0c0.4,0,0.8-0.2,1.2-0.5l2.7-2.6c0.3-0.3,0.5-0.8,0.5-1.2s-0.2-0.9-0.5-1.2
				C207.1,192,195.7,181.5,188.7,181.5L188.7,181.5z"/>
		</g>
		<g>
			<path class="st2" d="M200.4,209.7l-0.7-2.9l-2.8,3.3l-0.8-3.1l-3.1,2.9l-0.2-3.1l-2.7,1.2l1-3.1l-3.5,1l1.9-3.5l-3.3,0.2l1.6-3.1
				l-3.2,0.2l1.7-3.1l-3.3,0.2l2-3.4l-2.9,0.2c0,0,1,9.3,8.6,15.6C190.9,209.3,193.9,211.1,200.4,209.7z"/>
			<path d="M185.1,193.5L185.1,193.5 M185.1,193.5l-2,3.4l3.3-0.2l-1.7,3.1l3.2-0.2l-1.6,3.1l3.3-0.2l-1.9,3.5l3.5-1l-1,3.1l2.7-1.2
				l0.2,3.1l3.1-2.9l0.8,3.1l2.8-3.3l0.7,2.9c-1.8,0.4-3.3,0.5-4.6,0.5c-3.3,0-5-0.9-5-0.9c-7.6-6.2-8.6-15.6-8.6-15.6L185.1,193.5
				 M185.1,191.9C185.1,191.9,185.1,191.9,185.1,191.9c-0.1,0-0.1,0-0.1,0l-2.8,0.2c-0.5,0-0.9,0.2-1.2,0.6
				c-0.3,0.3-0.4,0.8-0.4,1.2c0,0.4,1.2,10.1,9.2,16.7c0.1,0.1,0.2,0.1,0.2,0.2c0.2,0.1,2.1,1.1,5.8,1.1c1.6,0,3.2-0.2,5-0.6
				c0.4-0.1,0.8-0.4,1.1-0.7s0.3-0.8,0.2-1.3l-0.7-2.9c-0.1-0.6-0.6-1.1-1.2-1.2c-0.1,0-0.3,0-0.4,0c-0.5,0-1,0.2-1.3,0.6l-0.7,0.9
				c-0.2-0.6-0.6-1-1.1-1.1c-0.2,0-0.3-0.1-0.5-0.1c-0.4,0-0.8,0.2-1.1,0.4l-0.6,0.5c-0.1-0.4-0.4-0.8-0.8-1
				c-0.3-0.2-0.6-0.2-0.9-0.2c0,0-0.1,0-0.1,0c0.1-0.5-0.1-1.1-0.5-1.4c-0.3-0.3-0.7-0.5-1.2-0.5c0,0-0.1,0-0.1,0l0,0
				c0.3-0.5,0.3-1.2-0.1-1.7c-0.3-0.5-0.8-0.8-1.4-0.8c0,0-0.1,0-0.1,0l-0.4,0l0.2-0.5c0.3-0.5,0.2-1.2-0.1-1.7
				c-0.3-0.5-0.8-0.7-1.4-0.7c0,0-0.1,0-0.1,0l-0.1,0l0.2-0.4c0.3-0.5,0.3-1.2,0-1.7c-0.3-0.5-0.8-0.8-1.4-0.8c0,0-0.1,0-0.1,0
				l-0.1,0l0.4-0.6c0.2-0.3,0.3-0.6,0.3-0.9C186.8,192.6,186.1,191.9,185.1,191.9C185.1,191.9,185.1,191.9,185.1,191.9L185.1,191.9z
				"/>
		</g>
	</g>
</g>
</svg>
