<?xml version="1.0" encoding="utf-8"?>
<!-- Generator: Adobe Illustrator 24.1.1, SVG Export Plug-In . SVG Version: 6.00 Build 0)  -->
<svg version="1.1" id="Layer_1" xmlns="http://www.w3.org/2000/svg" xmlns:xlink="http://www.w3.org/1999/xlink" x="0px" y="0px"
	 viewBox="0 0 280 120" style="enable-background:new 0 0 280 120;" xml:space="preserve">
<g>
	<path d="M140.02,8C67.43,8,10.57,30.44,10.57,59.08c0,29.66,56.86,52.92,129.45,52.92c72.55,0,129.41-23.26,129.41-52.92
		C269.43,30.44,212.57,8,140.02,8z M140.02,106.12c-76.3,0-123.54-24.45-123.54-47.04c0-24.51,56.55-45.2,123.54-45.2
		c66.96,0,123.54,20.69,123.54,45.2C263.55,81.68,216.32,106.12,140.02,106.12z"/>
	<path style="fill:#FFFFFF;" d="M263.55,59.08c0,22.6-47.23,47.04-123.54,47.04c-76.3,0-123.54-24.45-123.54-47.04
		c0-24.51,56.55-45.2,123.54-45.2C206.97,13.88,263.55,34.57,263.55,59.08z"/>
	<g>
		<path style="fill:#ABD5DC;" d="M140,93.79c-59.4,0-104.19-15.43-104.19-35.89c0-22.51,53.68-34.66,104.19-34.66
			S244.2,35.39,244.2,57.91C244.2,78.36,199.4,93.79,140,93.79z M140,29.12c-57.94,0-98.31,15.17-98.31,28.78
			c0,14.49,39.5,30.01,98.31,30.01s98.31-15.51,98.31-30.01C238.32,44.29,197.94,29.12,140,29.12z"/>
	</g>
</g>
</svg>
