<?xml version="1.0" encoding="utf-8"?>
<!-- Generator: Adobe Illustrator 24.1.1, SVG Export Plug-In . SVG Version: 6.00 Build 0)  -->
<!DOCTYPE svg PUBLIC "-//W3C//DTD SVG 1.1//EN" "http://www.w3.org/Graphics/SVG/1.1/DTD/svg11.dtd" [
	<!ENTITY ns_extend "http://ns.adobe.com/Extensibility/1.0/">
	<!ENTITY ns_ai "http://ns.adobe.com/AdobeIllustrator/10.0/">
	<!ENTITY ns_graphs "http://ns.adobe.com/Graphs/1.0/">
	<!ENTITY ns_vars "http://ns.adobe.com/Variables/1.0/">
	<!ENTITY ns_imrep "http://ns.adobe.com/ImageReplacement/1.0/">
	<!ENTITY ns_sfw "http://ns.adobe.com/SaveForWeb/1.0/">
	<!ENTITY ns_custom "http://ns.adobe.com/GenericCustomNamespace/1.0/">
	<!ENTITY ns_adobe_xpath "http://ns.adobe.com/XPath/1.0/">
]>
<svg version="1.1" id="Layer_1" xmlns:x="&ns_extend;" xmlns:i="&ns_ai;" xmlns:graph="&ns_graphs;"
	 xmlns="http://www.w3.org/2000/svg" xmlns:xlink="http://www.w3.org/1999/xlink" x="0px" y="0px" viewBox="0 0 350 240"
	 style="enable-background:new 0 0 350 240;" xml:space="preserve">
<metadata>
	<sfw  xmlns="&ns_sfw;">
		<slices></slices>
		<sliceSourceBounds  bottomLeftOrigin="true" height="230" width="340.01" x="-50.01" y="-235"></sliceSourceBounds>
	</sfw>
</metadata>
<g>
	<path style="fill:#A22724;" d="M147.66,16.34h18.83l-0.17,13.16l-0.05,3.33h-18.61c-4.55,0-8.25-3.69-8.25-8.25
		S143.1,16.34,147.66,16.34z"/>
	<path style="fill:#A22724;" d="M211.14,24.59c0,4.55-3.69,8.25-8.25,8.25h-19l-0.07-3.33l-0.27-13.16h19.33
		C207.44,16.34,211.14,20.03,211.14,24.59z"/>
	<path style="fill:#A22724;" d="M180.34,29.5H169.8l0.17-13.16l0.05-3.49l0.03-2.18c0.01-1.21,1-2.18,2.21-2.18h5.48
		c1.21,0,2.18,0.96,2.21,2.17l0.05,2.2l0.07,3.49L180.34,29.5z"/>
	<polygon style="fill:#A22724;" points="180.92,57.91 169.41,57.91 169.75,32.99 180.41,32.99 180.48,36.32 	"/>
	<polygon style="fill:#A22724;" points="181.24,73.75 169.2,73.75 169.36,61.4 180.99,61.4 	"/>
	<polygon style="fill:#A22724;" points="153.95,112.68 147.16,171.77 39.2,160.64 35.71,160.28 35.71,118.71 39.2,118.54 	"/>
	<path style="fill:#A22724;" d="M24.69,120.55c-9.37,1.63-16.21,9.76-16.21,19.27v0c0,10,7.54,18.39,17.48,19.45l9.75,1v-41.57
		L24.69,120.55z"/>
	<polygon style="fill:#A22724;" points="310.8,118.54 310.8,160.64 202.84,171.77 196.05,112.68 	"/>
	<path style="fill:#A22724;" d="M341.52,139.83c0,9.99-7.54,18.38-17.49,19.45l-6.26,0.64l-3.49,0.36v-41.57l3.49,0.58l7.53,1.27
		C334.68,122.18,341.52,130.32,341.52,139.83z"/>
	<polygon style="fill:#A22724;" points="161.8,90.29 188.2,90.29 188.87,96.02 161.13,96.02 	"/>
	<polygon style="fill:#A22724;" points="189.56,86.81 160.44,86.81 161.54,77.23 188.46,77.23 	"/>
	<path style="fill:#A22724;" d="M160.31,196.64h29.38v3.74c0,4.78-6.58,31.14-14.7,31.14c-8.11,0-14.69-26.36-14.69-31.14V196.64z"
		/>
	<polygon style="fill:#A22724;" points="200.83,184.77 194.78,193.15 155.22,193.15 149.17,184.77 150.62,172.13 157.47,112.51 
		158.97,99.51 191.03,99.51 192.53,112.51 199.38,172.13 	"/>
	<path style="fill:#1180CE;" d="M187.6,148.09h-25.2c0.06-0.72,0.12-1.45,0.19-2.2c0.02-0.24,0.05-0.49,0.07-0.73
		c0.09-0.99,0.2-1.97,0.31-2.96c0.07-0.63,0.15-1.27,0.23-1.88c0.09-0.72,0.2-1.43,0.3-2.14c0.06-0.41,0.13-0.81,0.19-1.22
		c0.12-0.71,0.23-1.39,0.36-2.09c0.13-0.72,0.27-1.43,0.42-2.14c0.13-0.62,0.26-1.23,0.4-1.84c0.34-1.46,0.71-2.88,1.1-4.23
		c0.13-0.43,0.26-0.85,0.4-1.25c0.13-0.42,0.27-0.82,0.41-1.22c0.29-0.82,0.6-1.62,0.93-2.37c0.14-0.35,0.29-0.67,0.44-1
		c0.16-0.35,0.33-0.7,0.5-1.02c0.16-0.34,0.34-0.65,0.52-0.96c0.15-0.27,0.3-0.53,0.48-0.78c0.2-0.34,0.42-0.66,0.64-0.96
		c1.09-1.51,2.81-2.38,4.72-2.38c1.92,0,3.64,0.87,4.73,2.38c0.22,0.3,0.44,0.63,0.64,0.96c0.15,0.21,0.28,0.44,0.41,0.67
		c0.43,0.72,0.82,1.5,1.21,2.34c0.1,0.23,0.21,0.48,0.33,0.73c0.06,0.15,0.13,0.3,0.19,0.45c0.31,0.77,0.62,1.57,0.89,2.39
		c0.64,1.86,1.21,3.88,1.7,5.99c0.16,0.69,0.31,1.38,0.45,2.09c0.15,0.71,0.29,1.42,0.42,2.14c0.13,0.72,0.26,1.44,0.37,2.17
		c0.12,0.73,0.22,1.46,0.33,2.21c0.09,0.64,0.19,1.29,0.27,1.94c0.03,0.34,0.08,0.67,0.12,1.01c0.12,0.99,0.22,1.97,0.31,2.96
		c0.02,0.24,0.05,0.49,0.07,0.73C187.48,146.63,187.54,147.36,187.6,148.09z"/>
	<path style="fill:#1180CE;" d="M161.99,160.9h26c0,0.74-0.02,1.46-0.05,2.15c-0.31,8.24-5.18,13.87-9.21,17.16
		c-2.16,1.75-5.31,1.75-7.47,0c-4.03-3.29-8.9-8.92-9.21-17.16C162.03,162.36,162,161.64,161.99,160.9z"/>
	<path d="M191.06,148.09c-0.82-11.54-3.1-25.58-8.52-33.04c-1.75-2.43-4.51-3.82-7.55-3.82c-3.03,0-5.79,1.39-7.54,3.82
		c-5.41,7.46-7.69,21.51-8.53,33.04h-1.98v12.8h1.57c0.01,0.84,0.02,1.6,0.05,2.28c0.36,9.55,5.91,16,10.5,19.73
		c1.72,1.41,3.82,2.1,5.93,2.1c2.11,0,4.22-0.7,5.94-2.1c4.59-3.73,10.14-10.18,10.5-19.73c0.02-0.67,0.03-1.44,0.05-2.28h1.77
		v-12.8H191.06z M162.59,145.9c0.02-0.24,0.05-0.49,0.07-0.73c0.09-0.99,0.2-1.97,0.31-2.96c0.07-0.63,0.15-1.27,0.23-1.88
		c0.09-0.72,0.2-1.43,0.3-2.14c0.06-0.41,0.13-0.81,0.19-1.22c0.12-0.71,0.23-1.39,0.36-2.09c0.13-0.72,0.27-1.43,0.42-2.14
		c0.13-0.62,0.26-1.23,0.4-1.84c0.34-1.46,0.71-2.88,1.1-4.23c0.13-0.43,0.26-0.85,0.4-1.25c0.13-0.42,0.27-0.82,0.41-1.22
		c0.29-0.82,0.6-1.62,0.93-2.37c0.14-0.35,0.28-0.67,0.44-1c0.16-0.35,0.33-0.7,0.5-1.02c0.16-0.34,0.34-0.65,0.52-0.96
		c0.15-0.27,0.3-0.53,0.48-0.78c0.2-0.34,0.42-0.66,0.64-0.96c1.09-1.51,2.81-2.38,4.72-2.38c1.92,0,3.64,0.87,4.73,2.38
		c0.22,0.3,0.44,0.63,0.64,0.96c0.15,0.21,0.28,0.44,0.41,0.67c0.43,0.72,0.82,1.5,1.21,2.34c0.1,0.23,0.21,0.48,0.33,0.73
		c0.06,0.15,0.13,0.3,0.19,0.45c0.31,0.77,0.62,1.57,0.89,2.39c0.64,1.86,1.21,3.88,1.7,5.99c0.16,0.69,0.31,1.38,0.45,2.09
		c0.15,0.7,0.29,1.42,0.42,2.14c0.13,0.72,0.26,1.44,0.37,2.17c0.12,0.73,0.23,1.46,0.33,2.21c0.09,0.64,0.19,1.29,0.27,1.94
		c0.03,0.34,0.08,0.67,0.12,1.01c0.12,0.99,0.22,1.97,0.31,2.96c0.02,0.24,0.05,0.49,0.07,0.73c0.07,0.73,0.13,1.46,0.19,2.2h-25.2
		C162.46,147.37,162.52,146.64,162.59,145.9z M187.95,163.05c-0.31,8.24-5.18,13.87-9.21,17.16c-2.16,1.75-5.31,1.75-7.47,0
		c-4.03-3.29-8.9-8.92-9.21-17.16c-0.02-0.69-0.05-1.41-0.06-2.15h26C188,161.64,187.97,162.36,187.95,163.05z M189.76,157.41
		h-29.33v-5.83h29.33V157.41z"/>
	<rect x="160.44" y="151.58" style="fill:#5E5E5E;" width="29.33" height="5.83"/>
	<g>
		<polygon style="fill:#D05250;" points="45.11,154.5 142.36,163.11 142.36,151.58 42.51,148.12 		"/>
	</g>
	<g>
		<polygon style="fill:#D05250;" points="304.89,154.5 207.64,163.11 207.64,151.58 307.48,148.12 		"/>
	</g>
	<polygon style="fill:#A22724;" points="188.87,96.02 161.13,96.02 161.8,90.29 188.2,90.29 	"/>
	<path d="M35.71,118.71v41.57l3.49,0.36v-42.11L35.71,118.71z"/>
	<path d="M325.91,117.12l-8.13-1.36l-2.9-0.49l-0.23-0.03l-0.16-0.01l-3.67-0.19l-115.16-5.86l-3.72-32.35l-0.36-3.09h-6.83
		l-0.26-12.35l-0.51-25.07h18.93c6.47,0,11.73-5.26,11.73-11.73c0-6.47-5.26-11.73-11.73-11.73h-19.4l-0.05-2.27
		C183.38,7.51,180.83,5,177.75,5h-5.48c-3.1,0-5.66,2.52-5.69,5.62l-0.03,2.23h-18.88c-6.47,0-11.73,5.26-11.73,11.73
		c0,6.47,5.26,11.73,11.73,11.73h18.57l-0.35,25.07l-0.17,12.35h-7.26l-0.36,3.09l-3.72,32.35L39.2,115.04l-3.67,0.19l-0.16,0.01
		l-0.23,0.03l-2.9,0.49l-8.11,1.36c-11.1,1.93-19.12,11.48-19.12,22.71c0,11.8,8.85,21.66,20.6,22.91l6.63,0.69l3.13,0.33l3.85,0.4
		l107.56,11.08l-1.06,9.14l-0.15,1.35l0.79,1.09l6.05,8.38l1.05,1.44h3.38v3.74c0,3.86,6.06,34.62,18.17,34.62
		c12.12,0,18.18-30.77,18.18-34.62v-3.74h3.38l1.05-1.44l6.05-8.38l0.79-1.09l-0.15-1.35l-1.06-9.14l107.56-11.08l3.85-0.4
		l3.13-0.33l6.62-0.69c11.76-1.25,20.61-11.11,20.61-22.91C345.01,128.6,336.98,119.05,325.91,117.12z M202.89,16.34
		c4.55,0,8.25,3.69,8.25,8.25s-3.69,8.25-8.25,8.25h-19l-0.07-3.33l-0.27-13.16H202.89z M169.98,16.34l0.05-3.49l0.03-2.18
		c0.01-1.21,1-2.18,2.21-2.18h5.48c1.21,0,2.18,0.96,2.21,2.17l0.05,2.2l0.07,3.49l0.27,13.16H169.8L169.98,16.34z M169.75,32.99
		h10.65l0.07,3.33l0.44,21.59h-11.51L169.75,32.99z M169.36,61.4h11.63l0.26,12.35H169.2L169.36,61.4z M147.66,32.84
		c-4.55,0-8.25-3.69-8.25-8.25s3.69-8.25,8.25-8.25h18.83l-0.17,13.16l-0.05,3.33H147.66z M161.54,77.23h26.92l1.1,9.57h-29.13
		L161.54,77.23z M188.87,96.02h-27.73l0.66-5.73h26.41L188.87,96.02z M39.2,160.64l-6.97-0.72l-6.26-0.64
		c-9.95-1.07-17.49-9.46-17.49-19.45c0-9.52,6.84-17.65,16.21-19.27l7.54-1.27l3.49-0.58l3.49-0.17l114.76-5.86l-6.8,59.09
		L39.2,160.64z M189.69,200.38c0,4.78-6.58,31.14-14.7,31.14c-8.11,0-14.69-26.36-14.69-31.14v-3.74h29.38V200.38z M194.78,193.15
		h-39.56l-6.05-8.38l1.45-12.64l6.85-59.63l1.5-13h32.06l1.5,13l6.85,59.63l1.45,12.64L194.78,193.15z M310.8,160.64l-107.96,11.13
		l-6.8-59.09l114.76,5.86V160.64z M324.04,159.28l-6.26,0.64l-3.49,0.36v-41.57l3.49,0.58l7.53,1.27
		c9.38,1.63,16.22,9.76,16.22,19.27C341.52,149.82,333.98,158.21,324.04,159.28z"/>
</g>
</svg>
