<?xml version="1.0" encoding="utf-8"?>
<!-- Generator: Adobe Illustrator 26.5.0, SVG Export Plug-In . SVG Version: 6.00 Build 0)  -->
<svg version="1.1" id="레이어_5" xmlns="http://www.w3.org/2000/svg" xmlns:xlink="http://www.w3.org/1999/xlink" x="0px"
	 y="0px" viewBox="0 0 240 240" style="enable-background:new 0 0 240 240;" xml:space="preserve">
<g>
	<defs>
		<rect id="SVGID_1_" width="240" height="240"/>
	</defs>
	<clipPath id="SVGID_00000180330207717920888970000004681645978170240146_">
		<use xlink:href="#SVGID_1_"  style="overflow:visible;"/>
	</clipPath>
	<g style="clip-path:url(#SVGID_00000180330207717920888970000004681645978170240146_);">
		<g>
			<path style="fill:#595959;" d="M73.9,188.4c-0.5,0.7-1.1,1.4-1.8,2.1c-5.6,5.9-16.2,4.7-23.9,4.2c-19.6-1.3-36.6-12-39.9-33.9
				c-1-6.5-1.4-14.6,1.2-20.5c1.1-2.5,3.2-4.4,5.5-6c4.2-2.8,9.8-4.5,13.8-2.1c3.1,1.9,4.3,5.7,4.7,9.4c0.4,4.9-0.4,9.9-0.3,14.9
				c0.1,6.2,3,12.7,8.6,15.2c5.6,2.5,10.3,2.3,16.5,3.1c5.3,0.6,10.4,0.4,14.7,3.6C77,181.3,76.4,184.9,73.9,188.4z"/>
			<path d="M57.1,196.4c-2.6,0-5.2-0.2-7.5-0.3l-1.5-0.1c-22.6-1.5-38-14.6-41.1-34.9c-1.4-9-0.9-16.1,1.3-21.2
				c1.1-2.4,3-4.5,5.9-6.5c4.2-2.9,10.5-5,15.2-2.1c3.8,2.3,5,6.9,5.3,10.4c0.3,2.9,0.1,5.8-0.1,8.7c-0.1,2.1-0.3,4.2-0.2,6.2
				c0.1,6.5,3.2,12,7.9,14.1c4.1,1.8,7.8,2.2,12,2.6c1.3,0.1,2.7,0.2,4.1,0.4c1,0.1,2,0.2,3,0.3c4.2,0.4,8.5,0.8,12.3,3.6
				c4.1,3,4.5,7.2,1.1,11.7l0,0c-0.5,0.7-1.2,1.5-1.9,2.2C69.1,195.5,63,196.4,57.1,196.4z M24.4,132.3c-3,0-6.2,1.4-8.6,3
				c-2.5,1.7-4.2,3.6-5,5.5c-2,4.6-2.4,11.4-1.1,19.8c2.9,19.1,17.4,31.4,38.8,32.8l1.5,0.1c7.4,0.5,16.5,1.2,21.4-3.9
				c0.6-0.7,1.2-1.3,1.7-2l0,0c3.3-4.5,1.3-6.9-0.6-8.2c-3.2-2.4-7-2.7-11.1-3.1c-1-0.1-2-0.2-3.1-0.3c-1.4-0.2-2.7-0.3-4-0.4
				c-4.5-0.4-8.4-0.8-12.8-2.8c-5.5-2.5-9.2-8.9-9.4-16.3c0-2.2,0.1-4.3,0.2-6.4c0.2-2.8,0.3-5.6,0.1-8.3c-0.3-2.9-1.2-6.7-4.1-8.5
				C27,132.6,25.7,132.3,24.4,132.3z"/>
		</g>
		<g>
			<path style="fill:#304D9B;" d="M7.6,152.8c0.1,1.4,0.5,6.7,0.7,8c3.3,21.9,20.3,32.5,39.9,33.9c7.6,0.5,18.2,1.7,23.9-4.2
				c0.7-0.7,1.3-1.4,1.8-2.1c2.5-3.4,3.1-7-0.9-10c-4.4-3.2-9.5-3-14.7-3.6c-6.2-0.7-10.9-0.6-16.5-3.1c-5.6-2.5-8.5-9-8.6-15.2
				c0-2.5,0.1-5,0.3-7.4L7.6,152.8z"/>
			<path d="M57.1,196.4c-2.6,0-5.2-0.2-7.5-0.3l-1.5-0.1c-22.6-1.5-38-14.6-41.1-34.9c-0.2-1-0.4-4.1-0.6-6.3l-0.1-1.8
				c-0.1-0.7,0.4-1.3,1.1-1.4l25.9-3.7c0.4,0,0.8,0.1,1,0.3c0.3,0.3,0.4,0.6,0.4,1l-0.1,1.1c-0.1,2.1-0.3,4.2-0.2,6.2
				c0.1,6.5,3.2,12,7.9,14.1c4.1,1.8,7.8,2.2,12,2.6c1.3,0.1,2.7,0.2,4.1,0.4c1,0.1,2,0.2,3,0.3c4.2,0.4,8.5,0.8,12.3,3.6
				c4.1,3,4.5,7.2,1.1,11.7c-0.5,0.7-1.2,1.5-1.9,2.2C69.1,195.5,63,196.4,57.1,196.4z M9,153.8l0,0.6c0.2,2.1,0.4,5.2,0.6,6.2
				c2.9,19.1,17.4,31.4,38.8,32.8l1.5,0.1c7.4,0.5,16.5,1.2,21.4-3.9c0.6-0.7,1.2-1.3,1.7-2c3.3-4.5,1.3-6.9-0.6-8.2
				c-3.2-2.4-7-2.7-11.1-3.1c-1-0.1-2-0.2-3.1-0.3c-1.4-0.2-2.7-0.3-4-0.4c-4.5-0.4-8.4-0.8-12.8-2.8c-5.5-2.5-9.2-8.9-9.4-16.3
				c0-2,0.1-4,0.2-6L9,153.8z"/>
		</g>
		<g>
			<line style="fill:#D0BA9C;" x1="12.8" y1="174.4" x2="35.8" y2="166.2"/>
			<path d="M12.8,175.7c-0.5,0-1-0.3-1.2-0.8c-0.2-0.7,0.1-1.4,0.8-1.6l23-8.3c0.6-0.2,1.4,0.1,1.6,0.8c0.2,0.7-0.1,1.4-0.8,1.6
				l-23,8.3C13.1,175.7,13,175.7,12.8,175.7z"/>
		</g>
		<g>
			<g>
				<path style="fill:#FCC91C;" d="M49.7,170.6c0,0-5.4-0.6-7.9-0.5l2.1,10.8l7.3,0.5L49.7,170.6z"/>
				<path d="M51.2,182.6C51.1,182.6,51.1,182.6,51.2,182.6l-7.4-0.5c-0.6,0-1-0.5-1.2-1l-2.1-10.8c-0.1-0.4,0-0.7,0.2-1
					c0.2-0.3,0.6-0.5,0.9-0.5c2.5-0.1,7.9,0.5,8.1,0.5c0.6,0.1,1,0.5,1.1,1.1l1.5,10.8c0.1,0.4-0.1,0.8-0.3,1
					C51.8,182.5,51.5,182.6,51.2,182.6z M44.9,179.7l4.8,0.3l-1.2-8.3c-1.3-0.1-3.5-0.3-5.2-0.4L44.9,179.7z"/>
			</g>
			<g>
				<line style="fill:#FCC91C;" x1="46.6" y1="173.3" x2="47.3" y2="177"/>
				<path d="M47.3,178.3c-0.6,0-1.1-0.4-1.2-1l-0.6-3.7c-0.1-0.7,0.3-1.3,1-1.5c0.7-0.1,1.3,0.3,1.5,1l0.6,3.7
					c0.1,0.7-0.3,1.3-1,1.5C47.4,178.3,47.3,178.3,47.3,178.3z"/>
			</g>
			<g>
				<path d="M49.7,170.6c0,0,9.7-0.2,13.9,2.8l1.3,10.6c0,0-10.7-2.4-13.7-2.6L49.7,170.6z"/>
				<path d="M64.9,185.3c-0.1,0-0.2,0-0.3,0c-0.1,0-10.6-2.4-13.5-2.6c-0.6,0-1.1-0.5-1.2-1.1l-1.5-10.8c0-0.4,0.1-0.7,0.3-1
					c0.2-0.3,0.6-0.4,0.9-0.4c0.4,0,10.1-0.2,14.7,3c0.3,0.2,0.5,0.5,0.5,0.9l1.3,10.6c0.1,0.4-0.1,0.8-0.4,1.1
					C65.5,185.2,65.2,185.3,64.9,185.3z M52.3,180.2c2.9,0.4,8.3,1.6,11.1,2.2l-1-8.3c-3.1-1.8-8.7-2.2-11.3-2.3L52.3,180.2z"/>
			</g>
		</g>
		<g>
			<polygon style="fill:#FCC91C;" points="10.2,168.5 34.1,162.3 33.2,156.5 8.7,162.8 			"/>
			<path d="M10.2,169.7c-0.6,0-1.1-0.4-1.2-0.9l-1.5-5.7c-0.1-0.3,0-0.7,0.1-1c0.2-0.3,0.5-0.5,0.8-0.6l24.5-6.2
				c0.3-0.1,0.7,0,1,0.2c0.3,0.2,0.5,0.5,0.6,0.9l0.9,5.7c0.1,0.6-0.3,1.3-0.9,1.4l-23.9,6.2C10.4,169.7,10.3,169.7,10.2,169.7z
				 M10.2,163.7l0.9,3.3l21.6-5.6l-0.5-3.2L10.2,163.7z"/>
		</g>
	</g>
	<g style="clip-path:url(#SVGID_00000180330207717920888970000004681645978170240146_);">
		<g>
			<path style="fill:#344E98;" d="M104.2,147.7c-11.1,0-21.4,1.5-21.4,1.5c-0.2,0-19.1,6.2-21.8,25.3c-1.7,12.5-3.8,19.5-5.9,26.7
				c-1.3,4.2-2.6,8.9-4,14.8c-2.3,10.2-0.6,26.5,8.7,38.4c8.9,11.2,23.1,17,41.8,17s32.9-5.7,41.8-17c9.3-11.9,11.2-28.2,8.7-38.4
				c-1.5-5.9-2.6-9.9-3.8-14c-1.9-6.6-3.8-12.9-6.3-27.6c-2.7-18.8-21.2-25.3-21.4-25.3C115.4,148.1,109.7,147.7,104.2,147.7z"/>
			<path d="M101.5,272.5c-19.2,0-33.6-5.9-42.7-17.4c-9.5-12.2-11.3-29-8.9-39.4c1.4-5.9,2.7-10.6,4.1-14.9l0.2-0.6
				c2.1-7.1,4.1-13.9,5.7-25.9c2.8-19.2,20.9-25.7,22.8-26.2l0,0c0.1,0,10.6-1.5,21.6-1.5c6.2,0,11.8,0.6,16.4,1.5l0,0
				c2.6,0.6,19.7,8.1,22.4,26.2c2.4,14,4.3,20.5,6.1,26.7l0.2,0.6c1.3,4.1,2.3,8.1,3.8,14c2.6,10.3,0.9,26.9-8.9,39.4
				C135,266.6,120.6,272.5,101.5,272.5z M83,150.3c-0.9,0.3-18.3,6.4-20.9,24.2c-1.7,12.2-3.8,19.3-5.8,26.2l-0.2,0.6
				c-1.3,4.3-2.6,9.1-4,14.8c-2.2,9.9-0.6,25.8,8.5,37.4c8.7,11,22.4,16.5,40.8,16.5c18.4,0,32.1-5.5,40.8-16.5
				c8.9-11.3,11-27.3,8.5-37.4c-1.4-5.9-2.5-9.9-3.8-13.9l-0.2-0.7c-1.8-6.3-3.7-12.8-6.2-27c-2.6-17.8-19.9-24.1-20.5-24.3
				c-4.4-1-9.9-1.4-15.9-1.4C93.9,148.9,83.9,150.2,83,150.3z"/>
		</g>
		<g>
			<path d="M51.6,237.8c0,0,23.3,9.1,52.2,8c0,0,20.1-0.9,29.5-3.4c0,0,17-3.8,18.2-4.6c0,0-4,17.6-17.2,25.3c0,0-11.6,9.1-32.6,8.7
				c0,0-20.4,0.4-32.6-8.5C68.8,263,55.2,254.7,51.6,237.8z"/>
			<path d="M103.1,272.9c-0.5,0-1,0-1.4,0c-0.8,0-20.8,0.3-33.4-8.7l-0.2-0.1c-4.2-2.9-14.5-11.3-17.7-26.1l-0.5-2.2l2.1,0.8
				c0.2,0.1,23.4,9,51.7,7.9c0.2,0,20.1-0.9,29.2-3.4c6.8-1.5,16.8-3.9,17.9-4.5l2.5-1.7l-0.7,3c-0.2,0.7-4.2,18.1-17.6,26
				C133.9,264.8,122.8,272.9,103.1,272.9z M101.6,270.5c20.3,0.4,31.8-8.3,31.9-8.4l0.2-0.1c9.9-5.7,14.4-17.5,16-22.3
				c-4.2,1.2-12.2,3-16.2,3.9c-9.3,2.6-28.9,3.4-29.7,3.4c-23.8,0.9-44.1-5.2-50.5-7.4c3.5,13,13.1,20.4,16.2,22.4
				c0.1,0.1,0.2,0.1,0.2,0.2l0,0C81.5,270.8,101.4,270.5,101.6,270.5z"/>
		</g>
	</g>
	<g style="clip-path:url(#SVGID_00000180330207717920888970000004681645978170240146_);">
		<g>
			<path style="fill:#595959;" d="M131.3,179.6c0.6-0.6,1.3-1.2,2.1-1.8c6.4-5,16.8-2.3,24.2-0.7c19.2,4.2,34.5,17.2,34.6,39.3
				c0,6.5-0.7,14.6-4.2,20.1c-1.4,2.3-3.8,3.9-6.3,5.1c-4.5,2.2-10.4,3.1-14,0c-2.8-2.3-3.5-6.3-3.2-10c0.3-4.9,1.8-9.7,2.5-14.6
				c0.8-6.2-1.2-13-6.3-16.3c-5.1-3.3-9.9-3.8-15.9-5.4c-5.1-1.4-10.2-1.9-14.1-5.7C127.2,186.1,128.3,182.6,131.3,179.6z"/>
			<path d="M173.8,244.9c-2.5,0-4.9-0.6-6.8-2.3c-3.4-2.9-3.9-7.6-3.7-11c0.2-2.9,0.8-5.8,1.4-8.6c0.4-2,0.9-4.1,1.1-6.1
				c0.8-6.4-1.4-12.3-5.7-15.1c-3.8-2.4-7.4-3.3-11.5-4.3c-1.3-0.3-2.6-0.6-4-1c-1-0.3-2-0.5-2.9-0.7c-4.1-1-8.3-2-11.7-5.3
				c-3.6-3.6-3.4-7.7,0.6-11.8l0,0c0.6-0.6,1.4-1.3,2.2-1.9c6.5-5.1,16.5-2.9,23.8-1.2l1.4,0.3c22.2,4.8,35.5,19.9,35.6,40.5
				c0.1,9.1-1.4,16-4.4,20.8c-1.4,2.2-3.6,4-6.8,5.6C179.8,244,176.7,244.9,173.8,244.9z M132.2,180.5L132.2,180.5
				c-3.9,4-2.2,6.6-0.6,8.2c2.9,2.8,6.6,3.7,10.5,4.6c1,0.2,2,0.5,3,0.7c1.4,0.4,2.7,0.7,3.9,1c4.4,1.1,8.2,2,12.3,4.6
				c5.1,3.2,7.8,10.1,6.9,17.5c-0.3,2.1-0.7,4.3-1.1,6.3c-0.6,2.7-1.1,5.5-1.3,8.2c-0.2,2.9,0.2,6.8,2.8,9c3.3,2.8,8.9,1.6,12.6-0.2
				c2.7-1.3,4.7-2.9,5.8-4.7c2.7-4.2,4-11,4-19.4c-0.1-19.3-12.7-33.5-33.6-38.1l-1.4-0.3c-7.2-1.6-16.2-3.6-21.7,0.8
				C133.4,179.3,132.8,179.9,132.2,180.5z"/>
		</g>
		<g>
			<path style="fill:#304D9B;" d="M191.8,224.4c0.1-1.5,0.4-6.7,0.4-8c-0.1-22.1-15.4-35.1-34.6-39.3c-7.5-1.6-17.8-4.3-24.2,0.7
				c-0.8,0.6-1.4,1.2-2.1,1.8c-3,3-4.1,6.5-0.6,10c3.9,3.8,8.9,4.3,14.1,5.7c6,1.6,10.7,2.2,15.9,5.4c5.2,3.3,7.1,10.1,6.3,16.3
				c-0.3,2.5-0.8,4.9-1.4,7.3L191.8,224.4z"/>
			<path d="M193,225.7l-28.9-0.1l0.5-2.6c0.4-2,0.9-4.1,1.1-6.1c0.8-6.4-1.4-12.3-5.7-15.1c-3.8-2.4-7.4-3.3-11.5-4.3
				c-1.3-0.3-2.6-0.6-4-1c-1-0.3-2-0.5-2.9-0.7c-4.1-1-8.3-2-11.7-5.3c-3.6-3.6-3.4-7.7,0.6-11.8c0.6-0.6,1.4-1.3,2.2-1.9
				c6.5-5.1,16.5-2.9,23.8-1.2l1.4,0.3c22.2,4.8,35.5,19.9,35.6,40.5c0,1-0.2,4.1-0.3,6.3L193,225.7z M167.2,223.1l23.4,0.1l0-0.6
				c0.1-2.1,0.3-5.2,0.3-6.1c-0.1-19.3-12.7-33.5-33.6-38.1l-1.4-0.3c-7.2-1.6-16.2-3.6-21.7,0.8c-0.7,0.6-1.4,1.1-1.9,1.7
				c-3.9,4-2.2,6.6-0.6,8.2c2.9,2.8,6.6,3.7,10.5,4.6c1,0.2,2,0.5,3,0.7c1.4,0.4,2.7,0.7,3.9,1c4.4,1.1,8.2,2,12.3,4.6
				c5.1,3.2,7.8,10.1,6.9,17.5C168,219.1,167.6,221.1,167.2,223.1z"/>
		</g>
		<g>
			<line style="fill:#D0BA9C;" x1="189.7" y1="202.2" x2="165.8" y2="207.1"/>
			<path d="M165.8,208.3c-0.6,0-1.1-0.4-1.2-1c-0.1-0.7,0.3-1.3,1-1.5l23.9-4.8c0.7-0.1,1.3,0.3,1.5,1c0.1,0.7-0.3,1.3-1,1.5
				l-23.9,4.8C165.9,208.3,165.9,208.3,165.8,208.3z"/>
		</g>
		<g>
			<g>
				<path style="fill:#FCC91C;" d="M155.9,172.6c0,0,5.4,0.6,7.8,1.3l-4.5,10l-7.2-1.2L155.9,172.6z"/>
				<path d="M159.2,185.3c-0.1,0-0.1,0-0.2,0l-7.2-1.2c-0.4-0.1-0.7-0.3-0.9-0.6c-0.2-0.3-0.2-0.7-0.1-1.1l4-10.2
					c0.2-0.5,0.8-0.9,1.3-0.8c0.2,0,5.5,0.7,8,1.4c0.4,0.1,0.6,0.4,0.8,0.7c0.2,0.3,0.2,0.7,0,1l-4.5,10
					C160.1,185,159.7,185.3,159.2,185.3z M153.7,181.8l4.7,0.8l3.5-7.8c-1.7-0.4-3.9-0.7-5.2-0.8L153.7,181.8z"/>
			</g>
			<g>
				<line style="fill:#FCC91C;" x1="158.2" y1="176" x2="156.8" y2="179.4"/>
				<path d="M156.8,180.7c-0.2,0-0.3,0-0.5-0.1c-0.6-0.3-0.9-1-0.7-1.7l1.5-3.5c0.3-0.6,1-0.9,1.7-0.7c0.6,0.3,0.9,1,0.7,1.7
					l-1.5,3.5C157.7,180.4,157.2,180.7,156.8,180.7z"/>
			</g>
			<g>
				<path d="M155.9,172.6c0,0-9.3-2.4-14.2-0.5l-3.7,10.1c0,0,11,0.1,14,0.6L155.9,172.6z"/>
				<path d="M151.9,184.1c-0.1,0-0.1,0-0.2,0c-2.9-0.5-13.7-0.6-13.8-0.6c-0.4,0-0.8-0.2-1-0.5c-0.2-0.3-0.3-0.8-0.1-1.2l3.7-10.1
					c0.1-0.3,0.4-0.6,0.7-0.7c5.2-2.1,14.6,0.3,15,0.4c0.3,0.1,0.6,0.3,0.8,0.6c0.2,0.3,0.2,0.7,0.1,1l-4,10.2
					C152.9,183.8,152.5,184.1,151.9,184.1z M139.8,181c2.9,0,8.5,0.2,11.4,0.5l3.1-7.9c-2.6-0.5-8.1-1.5-11.5-0.4L139.8,181z"/>
			</g>
		</g>
		<g>
			<polygon style="fill:#FCC91C;" points="191.5,208.5 166.9,211.2 167,217 192.1,214.4 			"/>
			<path d="M167,218.2c-0.3,0-0.6-0.1-0.8-0.3c-0.3-0.2-0.4-0.6-0.4-0.9l-0.1-5.8c0-0.6,0.5-1.2,1.1-1.3l24.6-2.7
				c0.7-0.1,1.3,0.4,1.4,1.1l0.7,5.9c0,0.3-0.1,0.7-0.3,0.9c-0.2,0.3-0.5,0.4-0.9,0.5l-25.2,2.6C167.1,218.2,167,218.2,167,218.2z
				 M168.2,212.3l0,3.3l22.5-2.3l-0.4-3.4L168.2,212.3z"/>
		</g>
	</g>
	<path style="clip-path:url(#SVGID_00000180330207717920888970000004681645978170240146_);" d="M99.5,198.4c0.2,0.2,0.5,0.5,0.6,0.8
		c0.1,0.3,0,0.7-0.1,1.1c-1.7,5.6-3.5,11.1-5.6,16.5c-0.2,0.4-0.3,0.8-0.3,1.3c0,0.5,0.3,0.9,0.5,1.3c1.9,3.4,4,6.6,6.4,9.6
		c0.3,0.3,0.5,0.7,0.9,0.8c2.8,1.4,6-5.3,7.1-7c1.3-2.2,2.3-4.1,1.7-6.7c-0.5-2.5-1.9-4.6-2.8-7c-1.1-2.8-2.5-6.2-2.6-9.2
		c0-0.5,0.3-0.9,0.6-1.3c1.1-1.3,2.2-2.5,3-4c0.8-1.5,1.2-3.3,0.6-4.8c-1.4-3.9-6.9-3.9-9.5-1.3c-1.1,1.1-2.1,2.6-3,3.8
		C95.3,194.6,97.7,196.7,99.5,198.4z"/>
	<g style="clip-path:url(#SVGID_00000180330207717920888970000004681645978170240146_);">
		<path style="fill:#304D9B;" d="M79.5,178.3c-0.1,6.7,5.7,13.6,11,16.8c2.2,1.3,2.6,1.6,4.7,0.6c2.7-1.3,5.4-4.1,7.4-6
			c2.2,1.8,4.3,6.4,7.1,7.2c3.7,1.1,9.2-5.2,11.3-7.6c3.1-3.6,5.3-8,3.7-12.8c-3.3-9.7-14.2-13.5-23.6-13.1
			c-6.7,0.3-15.6,3.1-19.7,8.8C80.2,174.2,79.6,176.2,79.5,178.3z"/>
		<path d="M110.8,198.3c-0.4,0-0.8-0.1-1.2-0.2c-2.1-0.6-3.7-2.7-5.2-4.7c-0.5-0.7-1.1-1.4-1.6-1.9c-2,1.9-4.4,4.2-6.9,5.4
			c-2.6,1.2-3.5,0.9-5.8-0.6c-6-3.6-11.9-10.9-11.8-18v0c0-2.5,0.8-4.8,2.3-6.8c4.3-6,13.5-9,20.7-9.3c9.9-0.5,21.4,3.7,24.9,13.9
			c1.5,4.5,0.2,9.3-3.9,14C118.8,194,114.5,198.3,110.8,198.3z M102.7,188l0.9,0.7c1,0.8,1.9,1.9,2.8,3.2c1.2,1.6,2.6,3.4,3.9,3.8
			c2,0.6,5.3-1.9,10-7.2c3.5-4,4.7-7.9,3.4-11.5c-3.1-9-13.5-12.6-22.4-12.2c-6.6,0.3-14.9,3-18.8,8.3c-1.2,1.6-1.8,3.4-1.8,5.4
			c-0.1,6.1,5.3,12.6,10.4,15.7c2,1.2,2,1.2,3.5,0.5c2.2-1.1,4.5-3.3,6.3-5L102.7,188z"/>
	</g>
	<g style="clip-path:url(#SVGID_00000180330207717920888970000004681645978170240146_);">
		<g>
			<g>
				<path style="fill:#595959;" d="M165.8,127.9c-1.6-4-2.8-8.2-3.2-12.5c-1.8-23.3-10.4-31.7-19.8-39.3
					c-12.2-9.9-30.6-9.1-37.9-8.7c-1.6,0.1-3.2,0.1-4.8,0c-7.3-0.5-25.7-1.2-37.9,8.7c-9.4,7.6-18,16-19.8,39.3
					c-0.3,4.3-1.5,8.5-3.2,12.5c-2.2,5.4-2.8,13.2-1.8,17.4c4.7,21.3,21.6,33.7,42.8,39.3c7.1,1.9,14.7,2.8,22.3,3
					c7.6-0.1,15.1-1.1,22.3-3c21.2-5.7,38.1-18,42.8-39.3C168.5,141.1,168,133.3,165.8,127.9z"/>
				<path d="M102.5,188.8c-8-0.1-15.6-1.1-22.6-3c-24.2-6.5-39.3-20.4-43.7-40.3c-1-4.3-0.5-12.3,1.9-18.2c1.8-4.3,2.8-8.3,3.1-12.1
					C43,91.9,51.4,83.2,61.4,75.1c8.7-7.1,21.8-10.1,38.8-8.9c1.5,0.1,3.1,0.1,4.6,0c17-1.1,30.1,1.9,38.8,8.9
					c10,8.1,18.4,16.7,20.2,40.2c0.3,3.8,1.3,7.8,3.1,12.1l0,0c2.4,5.8,2.9,13.8,1.9,18.2c-4.4,19.9-19.5,33.8-43.7,40.3
					C118.1,187.7,110.5,188.7,102.5,188.8z M93.5,68.5c-13.2,0-23.4,2.9-30.5,8.6c-9.5,7.7-17.6,16-19.3,38.4
					c-0.3,4.1-1.4,8.3-3.3,12.9c-2.2,5.3-2.6,12.8-1.8,16.6c5.3,23.9,25.7,34.1,41.9,38.4c6.8,1.8,14.2,2.8,21.9,2.9
					c7.7-0.1,15.1-1.1,21.9-2.9c16.2-4.3,36.6-14.5,41.9-38.4c0.9-3.9,0.4-11.3-1.8-16.6v0c-1.9-4.6-2.9-8.8-3.3-12.9
					c-1.7-22.5-9.8-30.7-19.3-38.4c-8.2-6.6-20.7-9.5-37.1-8.4c-1.7,0.1-3.3,0.1-5,0C97.8,68.6,95.6,68.5,93.5,68.5z"/>
			</g>
			<ellipse style="fill:#FFFFFF;" cx="102.5" cy="149.1" rx="27.9" ry="20.1"/>
			<g>
				<path style="fill-rule:evenodd;clip-rule:evenodd;fill:#FD8475;" d="M102.4,134.9c1.8,0,3.4,1.1,3.4,2.4c0,1.4-1.4,2.6-3.3,2.6
					c-1.8,0-3.4-1-3.4-2.4C99.1,136.2,100.6,135,102.4,134.9z"/>
				<path d="M102.6,134.9c1.8,0,3.2,1.1,3.3,2.4c0,1.4-1.4,2.6-3.3,2.6c0,0-0.1,0-0.1,0c-1.8,0-3.2-1.1-3.3-2.4
					c0-1.4,1.4-2.6,3.3-2.6C102.5,134.9,102.5,134.9,102.6,134.9 M102.6,132.4l-0.2,0c-1.4,0-2.8,0.5-3.9,1.4
					c-1.2,1-1.9,2.4-1.9,3.8c0.1,2.7,2.6,4.9,5.8,4.9l0.2,0c3.3-0.1,5.8-2.4,5.7-5.2C108.3,134.5,105.7,132.4,102.6,132.4
					L102.6,132.4z"/>
			</g>
			<path style="fill:#B93824;" d="M107.6,151.1c0,0-1.1,13.7-5.1,13.7c-4.1,0-5.1-13.7-5.1-13.7s4.1-1.1,4.6-4.3
				C102,146.8,105,151.2,107.6,151.1z"/>
			<g>
				<g>
					<g>
						<path style="fill-rule:evenodd;clip-rule:evenodd;fill:#FFFFFF;" d="M120.5,132.2L120.5,132.2c-2.7,0-4.8-2.2-4.8-4.8l0-0.7
							c0-2.6,2.2-4.7,4.9-4.7s4.8,2.2,4.8,4.8l0,0.7C125.4,130.1,123.2,132.2,120.5,132.2"/>
						<path d="M120.5,133.5C120.5,133.5,120.5,133.5,120.5,133.5c-1.7,0-3.2-0.6-4.3-1.8c-1.1-1.1-1.8-2.7-1.8-4.3l0-0.7
							c0-1.6,0.7-3.1,1.8-4.2c1.2-1.1,2.7-1.7,4.3-1.7c3.4,0,6.1,2.7,6.1,6.1l0,0.7C126.6,130.8,123.9,133.5,120.5,133.5z
							 M120.5,123.3c-1,0-1.8,0.4-2.5,1c-0.7,0.7-1.1,1.5-1.1,2.4l0,0.7c0,0.9,0.4,1.8,1,2.5c0.7,0.7,1.6,1,2.5,1.1l0,0
							c1.9,0,3.6-1.5,3.6-3.5l0-0.7C124.1,124.9,122.5,123.3,120.5,123.3C120.6,123.3,120.5,123.3,120.5,123.3z"/>
					</g>
				</g>
			</g>
			<g>
				<g>
					<g>
						<path style="fill-rule:evenodd;clip-rule:evenodd;fill:#FFFFFF;" d="M84.5,132.2L84.5,132.2c2.7,0,4.8-2.2,4.8-4.8l0-0.7
							c0-2.6-2.2-4.7-4.9-4.7s-4.8,2.2-4.8,4.8l0,0.7C79.6,130.1,81.8,132.2,84.5,132.2"/>
						<path d="M84.5,133.5c-1.6,0-3.1-0.6-4.3-1.7c-1.2-1.1-1.8-2.6-1.8-4.2l0-0.7c0-3.3,2.7-6,6.1-6.1c1.6,0,3.2,0.6,4.3,1.7
							c1.2,1.1,1.8,2.6,1.8,4.2l0,0.7C90.6,130.7,87.9,133.4,84.5,133.5L84.5,133.5C84.5,133.5,84.5,133.5,84.5,133.5z M84.5,123.3
							C84.5,123.3,84.4,123.3,84.5,123.3c-2,0-3.6,1.6-3.6,3.5l0,0.7c0,0.9,0.4,1.8,1.1,2.4c0.7,0.7,1.6,1,2.6,1l0,0
							c2,0,3.6-1.6,3.6-3.5l0-0.7c0-0.9-0.4-1.8-1.1-2.4C86.3,123.7,85.4,123.3,84.5,123.3z"/>
					</g>
				</g>
			</g>
			<g>
				<path d="M96.5,152.4c-0.9,0-1.8-0.2-2.7-0.5c-0.7-0.2-1-0.9-0.8-1.6c0.2-0.7,0.9-1,1.6-0.8c1.5,0.5,2.8,0.4,3.9-0.2
					c1.3-0.8,2.3-2.4,2.8-4.6c0.1-0.7,0.8-1.1,1.5-1c0.7,0.1,1.1,0.8,1,1.5c-0.6,2.9-2,5.1-4,6.3C98.8,152.1,97.7,152.4,96.5,152.4z
					"/>
			</g>
			<g>
				<path d="M108.5,152.4c-1.2,0-2.3-0.3-3.2-0.8c-2-1.1-3.4-3.4-4-6.3c-0.1-0.7,0.3-1.3,1-1.5c0.7-0.1,1.3,0.3,1.5,1
					c0.5,2.2,1.5,3.8,2.8,4.6c1.1,0.6,2.4,0.7,3.9,0.2c0.7-0.2,1.4,0.1,1.6,0.8c0.2,0.7-0.1,1.4-0.8,1.6
					C110.3,152.2,109.4,152.4,108.5,152.4z"/>
			</g>
			<g>
				<path style="fill:#595959;" d="M89.9,72.4c0,0-7.7-7.7-13.1-11.8s-20-14.2-22.9-13.2c-2.9,1-17,28.3-3.6,42.5"/>
				<path d="M50.3,91.1c-0.3,0-0.7-0.1-0.9-0.4c-7.5-8-6.7-19.2-4.7-27.3c2-7.9,6.3-16.4,8.7-17.2c4.4-1.4,23.9,13.3,24.1,13.4
					c5.4,4.1,12.9,11.6,13.2,11.9c0.5,0.5,0.5,1.3,0,1.8c-0.5,0.5-1.3,0.5-1.8,0c-0.1-0.1-7.7-7.7-13-11.7
					c-8.2-6.2-19.8-13.4-21.8-13c-1.1,0.7-6.4,9.3-8,20c-0.9,6-0.7,14.4,4.9,20.4c0.5,0.5,0.5,1.3-0.1,1.8
					C50.9,91,50.6,91.1,50.3,91.1z"/>
			</g>
			<g>
				<path style="fill:#FD8475;" d="M75.4,75.1c0,0-19.5-17.1-20-20.4c-0.5-3.3-8.5,21.3,1.4,27.1c0,0,2.7-1.7,4.4-2.1
					c0,0-2.4-5.9,3.9-2.3C69,79.6,75.4,75.1,75.4,75.1z"/>
				<path d="M56.7,83c-0.2,0-0.4-0.1-0.6-0.2c-7.8-4.5-5.8-18.8-3.6-25.7c1.1-3.5,1.8-4.1,2.8-4c0.5,0,1.2,0.4,1.3,1.4
					C57,56.4,66.9,66,76.2,74.1c0.3,0.3,0.4,0.6,0.4,1s-0.2,0.7-0.5,1c-0.3,0.2-7.1,5-11.7,2.3c-1.4-0.8-2.1-1-2.4-1
					c0,0.4,0.1,1.2,0.3,1.8c0.1,0.3,0.1,0.7,0,1c-0.2,0.3-0.4,0.6-0.8,0.7c-1.2,0.4-3.4,1.6-4.1,2C57.2,83,57,83,56.7,83z M55.2,57
					c-1.2,3.4-2.9,11-1.7,17c0.5,2.9,1.7,5,3.3,6.3c0.7-0.4,1.8-1,2.8-1.4c-0.2-1.1-0.3-2.6,0.7-3.4c1.4-1.2,3.7-0.1,5.3,0.8
					c2.1,1.2,5.5-0.1,7.6-1.3C68.5,70.7,58.5,61.7,55.2,57z"/>
			</g>
			<g>
				<path style="fill:#FD8475;" d="M62.6,76.2c0,0-5.7-5.1-5.6-10"/>
				<path d="M62.6,77.5c-0.3,0-0.6-0.1-0.8-0.3c-0.2-0.2-6.1-5.6-6-11c0-0.7,0.6-1.2,1.3-1.2c0,0,0,0,0,0c0.7,0,1.3,0.6,1.2,1.3
					c-0.1,4.3,5.1,9,5.2,9.1c0.5,0.5,0.6,1.3,0.1,1.8C63.3,77.3,62.9,77.5,62.6,77.5z"/>
			</g>
			<g>
				<path style="fill:#595959;" d="M115.1,72.4c0,0,7.7-7.7,13.1-11.8c5.4-4.1,20-14.2,22.9-13.2c2.9,1,17,28.3,3.6,42.5"/>
				<path d="M154.7,91.1c-0.3,0-0.6-0.1-0.9-0.3c-0.5-0.5-0.5-1.3-0.1-1.8c5.7-6,5.8-14.4,4.9-20.4c-1.6-10.7-6.9-19.3-8.1-20
					c-1.9-0.3-13.5,6.8-21.7,13.1c-5.3,4-12.9,11.6-13,11.7c-0.5,0.5-1.3,0.5-1.8,0c-0.5-0.5-0.5-1.3,0-1.8
					c0.3-0.3,7.8-7.8,13.2-11.9c0.2-0.1,19.7-14.9,24.1-13.4c2.4,0.8,6.7,9.3,8.7,17.2c2,8.1,2.9,19.3-4.7,27.3
					C155.3,91,155,91.1,154.7,91.1z"/>
			</g>
			<g>
				<path style="fill:#FD8475;" d="M129.6,75.1c0,0,19.5-17.1,20-20.4s8.5,21.3-1.4,27.1c0,0-2.7-1.7-4.4-2.1c0,0,2.4-5.9-3.9-2.3
					C136,79.6,129.6,75.1,129.6,75.1z"/>
				<path d="M148.3,83c-0.2,0-0.4-0.1-0.6-0.2c-0.7-0.4-2.9-1.6-4.1-2c-0.3-0.1-0.6-0.3-0.8-0.7c-0.2-0.3-0.2-0.7,0-1
					c0.2-0.6,0.4-1.4,0.3-1.8c-0.3,0-1,0.2-2.4,1c-4.6,2.7-11.5-2.1-11.8-2.3c-0.3-0.2-0.5-0.6-0.5-1c0-0.4,0.1-0.8,0.4-1
					c9.3-8.1,19.2-17.7,19.6-19.7c0.1-0.9,0.8-1.3,1.3-1.4c0.9-0.1,1.7,0.5,2.8,4c2.1,6.9,4.1,21.2-3.6,25.7
					C148.7,83,148.5,83,148.3,83z M145.4,78.9c1,0.4,2.1,1,2.8,1.4c1.7-1.2,2.8-3.4,3.3-6.3c1.1-6-0.6-13.7-1.7-17
					c-3.3,4.7-13.3,13.7-18.1,17.9c2.1,1.2,5.5,2.5,7.6,1.3c1.6-0.9,3.9-2,5.3-0.8C145.7,76.3,145.7,77.8,145.4,78.9z"/>
			</g>
			<g>
				<path style="fill:#FD8475;" d="M142.4,76.2c0,0,5.7-5.1,5.6-10"/>
				<path d="M142.4,77.5c-0.3,0-0.7-0.1-0.9-0.4c-0.5-0.5-0.4-1.3,0.1-1.8c0.1,0,5.2-4.8,5.2-9.1c0-0.7,0.5-1.3,1.2-1.3c0,0,0,0,0,0
					c0.7,0,1.3,0.6,1.3,1.2c0.1,5.4-5.8,10.8-6,11C143,77.4,142.7,77.5,142.4,77.5z"/>
			</g>
			<g>
				<path style="fill:#595959;" d="M111.9,75.4c3.8,0.9,11.1-6.6,6-11.2c-5-4.6-9.4,3.9-9.4,3.9s1.6-11.9-6.5-11.2
					c-8.1,0.6-5.2,10-5.2,10s-1.3-5.3-5.8-4.6C82,63.8,85,73.4,91.8,75.6"/>
				<path d="M91.8,76.8c-0.1,0-0.3,0-0.4-0.1c-4.4-1.4-7.5-5.6-7.3-9.6c0.1-1.6,1-5.3,6.7-6.3c1.7-0.3,3.2,0.2,4.2,1
					c0.1-1.2,0.5-2.4,1.2-3.5c1.2-1.7,3-2.7,5.6-2.9c2.3-0.2,4.1,0.5,5.5,1.9c1.6,1.8,2.2,4.4,2.4,6.6c1.1-1.1,2.5-2.2,4.1-2.4
					c1.2-0.2,3-0.1,4.9,1.6c2.4,2.2,2.8,5.1,1.2,8.2c-1.6,3.1-5.4,5.9-8.4,5.2c-0.7-0.2-1.1-0.8-0.9-1.5c0.2-0.7,0.8-1.1,1.5-0.9
					c1.4,0.3,4.2-1.4,5.6-3.9c0.7-1.4,1.2-3.4-0.7-5.1c-0.9-0.8-1.8-1.2-2.7-1c-2.2,0.4-4.2,3.4-4.7,4.5c-0.3,0.5-0.9,0.8-1.5,0.6
					c-0.6-0.2-1-0.8-0.9-1.4c0.2-1.7,0.4-6.5-1.7-8.7c-0.8-0.9-2-1.2-3.5-1.1c-1.8,0.1-3,0.7-3.7,1.8c-1.4,2-0.7,5.3-0.4,6.3
					c0,0.1,0.1,0.2,0.1,0.3c0.2,0.7-0.2,1.3-0.9,1.5c-0.7,0.2-1.3-0.2-1.5-0.8c0,0,0-0.1-0.1-0.3c-0.3-0.8-1.4-3.9-4.3-3.4
					c-2.8,0.5-4.5,1.9-4.6,4c-0.2,2.5,1.9,5.8,5.5,7c0.7,0.2,1,0.9,0.8,1.6C92.8,76.5,92.3,76.8,91.8,76.8z"/>
			</g>
			<path d="M102.5,166c-4.8,0-6.1-11.4-6.4-14.9c-0.1-0.7,0.5-1.3,1.2-1.4c0.7,0,1.3,0.5,1.4,1.2c0.5,5.9,2.2,12.5,3.9,12.5
				c1.7,0,3.4-6.6,3.9-12.5c0.1-0.7,0.7-1.2,1.4-1.2c0.7,0.1,1.2,0.7,1.2,1.4C108.6,154.6,107.4,166,102.5,166z"/>
		</g>
	</g>
	<path style="clip-path:url(#SVGID_00000180330207717920888970000004681645978170240146_);" d="M74.6,207.1c-0.1,0-0.3,0-0.4-0.1
		L64,203.6c-0.6-0.2-1-0.8-0.8-1.5l1.7-7.3c0.1-0.6,0.7-1,1.3-1l20.7,1.9c0.6,0.1,1.1,0.6,1.1,1.3v7.2c0,0.6-0.5,1.2-1.1,1.2
		l-12.1,1.6C74.7,207.1,74.7,207.1,74.6,207.1z M65.9,201.5l8.9,3l10.8-1.4v-5L67,196.4L65.9,201.5z"/>
	<g style="clip-path:url(#SVGID_00000180330207717920888970000004681645978170240146_);">
		<g>
			<path style="fill:#FCCD2E;" d="M143.1,190.5c-9.4,0.4-12.2-3.4-12.2-3.4s-2.5,3.9-11.9,4.3c0,0,0.7,22.7,12.9,22.2
				C144.1,213.1,143.1,190.5,143.1,190.5z"/>
			<path d="M131.5,214.9c-2.6,0-4.9-0.9-6.9-2.8c-6.5-6-7-20.1-7-20.7c0-0.7,0.5-1.3,1.2-1.3c8.5-0.3,10.9-3.7,10.9-3.7
				c0.2-0.3,0.6-0.5,1-0.5c0.4-0.1,0.8,0.2,1,0.5c0,0,2.7,3.2,11.2,2.9c0,0,0,0,0,0c0.7,0,1.2,0.5,1.3,1.2c0,0.6,0.6,14.6-5.4,21.1
				c-1.9,2.1-4.3,3.2-7,3.3C131.8,214.9,131.6,214.9,131.5,214.9z M120.2,192.6c0.3,3.5,1.4,13.3,6.1,17.7c1.6,1.5,3.3,2.1,5.5,2.1
				c2.1-0.1,3.8-0.9,5.3-2.5c4.3-4.7,4.7-14.6,4.7-18.1c-6.1,0-9.4-1.7-10.9-2.9C129.5,190.1,126.3,192.1,120.2,192.6z"/>
		</g>
		<g>
			<path style="fill:#B47500;" d="M136,203.5c0.1,2.3-1.9,2.9-4.4,3s-4.6-0.4-4.7-2.6c-0.1-2.3,1.9-4.2,4.4-4.3
				S135.9,201.2,136,203.5z"/>
			<g>
				
					<ellipse transform="matrix(0.9993 -3.796101e-02 3.796101e-02 0.9993 -7.4786 4.9153)" style="fill:#B47500;" cx="125.7" cy="199.4" rx="1.5" ry="1.7"/>
				
					<ellipse transform="matrix(0.9993 -3.796101e-02 3.796101e-02 0.9993 -7.4544 5.3412)" style="fill:#B47500;" cx="136.9" cy="199" rx="1.5" ry="1.7"/>
			</g>
			<g>
				
					<ellipse transform="matrix(0.9993 -3.796101e-02 3.796101e-02 0.9993 -7.379 5.0422)" style="fill:#B47500;" cx="129.1" cy="196.8" rx="1.5" ry="1.7"/>
				
					<ellipse transform="matrix(0.9993 -3.796101e-02 3.796101e-02 0.9993 -7.3698 5.2039)" style="fill:#B47500;" cx="133.3" cy="196.7" rx="1.5" ry="1.7"/>
			</g>
		</g>
	</g>
	<g style="clip-path:url(#SVGID_00000180330207717920888970000004681645978170240146_);">
		<g>
			<path style="fill:#304D9B;" d="M79.8,25.4C78.6,25.1,78.1,36,78.2,37c0.2,5.8,6.2,9.4,11.3,10.5c3.7,0.8,7.5,1,11.1,1.6
				c4,0.6,8.2,2.4,11.9,4.1c5.3,2.4,11,5.2,15.5-0.2c2.8-3.4,5.3-8.4,4.8-12.9C132.8,39.9,80,25.5,79.8,25.4z"/>
			<path d="M121.8,57.3c-3.2,0-6.4-1.5-9.3-2.7l-0.6-0.3c-3.8-1.7-7.8-3.4-11.6-4c-1.4-0.2-2.8-0.4-4.2-0.5c-2.3-0.3-4.6-0.5-7-1
				c-6-1.4-12.1-5.5-12.2-11.7c0-0.1,0.1-11.1,1.9-12.5c0.4-0.3,0.9-0.4,1.3-0.3c0,0,0,0,0,0c0.3,0.1,53,14.6,53,14.6
				c0.5,0.1,0.9,0.6,0.9,1.1c0.5,4.2-1.4,9.4-5.1,13.9C126.8,56.3,124.3,57.3,121.8,57.3z M80.3,26.8c-0.5,2.2-0.9,8.8-0.9,10.1
				c0.2,5.5,6.5,8.5,10.3,9.3c2.2,0.5,4.5,0.8,6.7,1c1.5,0.2,2.9,0.3,4.3,0.5c4.1,0.6,8.3,2.4,12.2,4.2l0.6,0.3
				c5,2.2,9.8,4.4,13.5-0.1c3-3.6,4.7-7.8,4.6-11.2C125.3,39.2,86.6,28.6,80.3,26.8z"/>
		</g>
		<g>
			<path style="fill:#87A7FF;" d="M79.8,25.4c0,0-1.6,10.3,22.6,16.3s29.4,0.8,30.5-1.8L79.8,25.4z"/>
			<path d="M121,45.8c-4.6,0-10.7-0.8-19-2.8c-25-6.2-23.6-17.3-23.5-17.7c0.1-0.4,0.3-0.7,0.6-0.9c0.3-0.2,0.7-0.3,1-0.2l53,14.6
				c0.3,0.1,0.6,0.3,0.8,0.7c0.2,0.3,0.2,0.7,0,1C133,42.8,130,45.8,121,45.8z M81.2,27.1c0.8,2.9,4.4,9.2,21.4,13.4
				c19.6,4.9,26,2.3,28.1,0.2L81.2,27.1z"/>
		</g>
		<g>
			<g>
				<path style="fill:#304D9B;" d="M80.9,11.9c7.3-9,20.8-7.7,30.8-5.2c13,3.2,22,8.8,26.6,22c2.8,8.1-5.3,12.5-12.2,12.5
					c-9.6,0.1-19.2-1.8-28.1-5.3c-9.5-3.8-27-10.7-17.3-23.7C80.7,12.1,80.8,12,80.9,11.9z"/>
				<path d="M125.4,42.5c-9.4,0-19.1-1.9-27.9-5.4c-7.4-3-18.4-7.3-20.6-15c-1-3.4-0.1-7,2.7-10.7l0.3-0.4c0,0,0,0,0,0
					c6.1-7.5,16.9-9.4,32.1-5.6c15,3.7,23.2,10.6,27.5,22.8c1.1,3.2,0.8,6.2-1,8.7c-2.3,3.3-7.2,5.5-12.4,5.6
					C125.9,42.5,125.6,42.5,125.4,42.5z M81.9,12.7L81.6,13c-2.3,3.1-3,5.9-2.3,8.5c1.8,6.4,12.5,10.7,18.9,13.3
					c8.9,3.6,18.4,5.4,27.8,5.3c4.4,0,8.5-1.8,10.4-4.5c1.3-1.8,1.5-4,0.7-6.4c-4-11.5-11.4-17.7-25.7-21.2
					C97.2,4.4,87.3,6,81.9,12.7z"/>
			</g>
		</g>
		<g>
			<g>
				<path style="fill:#FCCD2E;" d="M115.2,25.1c-4.9-1.4-5.7-3.8-5.7-3.8s-2,1.6-6.8,0.2c0,0-3.5,11.7,2.8,13.6
					S115.2,25.1,115.2,25.1z"/>
				<path d="M106.9,36.5c-0.6,0-1.1-0.1-1.7-0.3c-1.6-0.5-2.8-1.4-3.6-2.9c-2.4-4.4-0.2-11.9-0.1-12.2c0.2-0.7,0.9-1,1.6-0.8
					c4,1.2,5.7,0.1,5.7,0c0.3-0.2,0.8-0.3,1.1-0.2c0.4,0.1,0.7,0.4,0.8,0.8l0,0c0,0,0.8,1.8,4.9,3c0.7,0.2,1,0.9,0.9,1.6
					c-0.1,0.3-2.3,7.8-6.6,10.3C108.9,36.2,107.9,36.5,106.9,36.5z M103.6,23c-0.6,2.4-1.1,6.7,0.2,9.1c0.5,0.9,1.2,1.4,2.1,1.7
					c0.9,0.3,1.8,0.2,2.7-0.3c2.4-1.3,4.2-5.3,5.1-7.6c-2.5-0.9-3.9-2.1-4.6-3C108,23.3,106.2,23.6,103.6,23z"/>
			</g>
			<g>
				<path style="fill:#B47500;" d="M109.4,30.6c-0.3,1.2-1.5,1.1-2.8,0.8c-1.3-0.4-2.3-1-1.9-2.1c0.3-1.2,1.7-1.8,3-1.4
					C109,28.1,109.8,29.4,109.4,30.6z"/>
				<g>
					
						<ellipse transform="matrix(0.2796 -0.9601 0.9601 0.2796 49.849 119.8784)" style="fill:#B47500;" cx="104.8" cy="26.7" rx="0.9" ry="0.8"/>
					
						<ellipse transform="matrix(0.2796 -0.9601 0.9601 0.2796 52.4174 126.6945)" style="fill:#B47500;" cx="110.6" cy="28.4" rx="0.9" ry="0.8"/>
				</g>
				<g>
					
						<ellipse transform="matrix(0.2796 -0.9601 0.9601 0.2796 52.1197 121.437)" style="fill:#B47500;" cx="107" cy="26" rx="0.9" ry="0.8"/>
					
						<ellipse transform="matrix(0.2796 -0.9601 0.9601 0.2796 53.0949 124.025)" style="fill:#B47500;" cx="109.2" cy="26.6" rx="0.9" ry="0.8"/>
				</g>
			</g>
		</g>
	</g>
	<g style="clip-path:url(#SVGID_00000180330207717920888970000004681645978170240146_);">
		<path style="fill:#FDF37D;" d="M171,99.7c5.2-2.7,9.2-3.4,15.3-5.4c-1.6,2.5-2.7,5.3-3.3,8.2c-0.7,3-0.7,6.6,1.6,8.7
			c2.5,2.3,6.4,1.8,9.4,3.2c-2.9,1.3-6.1,2.8-7.3,5.7c-1,2.3-0.5,5.1,0.8,7.3s3.3,3.8,5.5,5.2c-5.2,0.3-9.7,1.6-15.3,0.9"/>
		<path d="M181.1,134.9c-1.2,0-2.3-0.1-3.6-0.2c-0.7-0.1-1.2-0.7-1.1-1.4c0.1-0.7,0.7-1.2,1.4-1.1c3.6,0.5,6.7,0.1,10-0.4
			c0.5-0.1,1.1-0.1,1.6-0.2c-1.3-1.1-2.4-2.3-3.1-3.6c-1.7-2.7-2-5.9-0.9-8.4c1-2.2,2.8-3.7,5-4.9c-0.2,0-0.4-0.1-0.6-0.1
			c-2.1-0.4-4.3-0.8-6.1-2.4c-2.3-2.1-3-5.6-2-9.9c0.5-2,1.1-4,2-5.9c-0.6,0.2-1.3,0.4-1.9,0.5c-3.6,1-6.7,2-10.3,3.8
			c-0.6,0.3-1.4,0.1-1.7-0.5c-0.3-0.6-0.1-1.4,0.5-1.7c3.8-2,7-2.9,10.8-4c1.5-0.4,3-0.9,4.7-1.4c0.5-0.2,1,0,1.4,0.4
			c0.3,0.4,0.4,1,0.1,1.4c-1.5,2.4-2.6,5.1-3.2,7.9c-0.4,2-0.9,5.6,1.2,7.5c1.2,1.1,3,1.4,4.8,1.8c1.4,0.3,2.9,0.5,4.2,1.2
			c0.5,0.2,0.7,0.7,0.7,1.2c0,0.5-0.3,0.9-0.8,1.1c-2.9,1.3-5.6,2.6-6.7,5c-0.8,1.8-0.5,4.1,0.7,6.1c1,1.7,2.6,3.2,5.1,4.7
			c0.5,0.3,0.7,0.8,0.5,1.4c-0.1,0.5-0.6,0.9-1.1,0.9c-1.6,0.1-3.3,0.3-4.8,0.5C185.9,134.6,183.6,134.9,181.1,134.9z"/>
	</g>
	<g style="clip-path:url(#SVGID_00000180330207717920888970000004681645978170240146_);">
		<g>
			<g>
				<path d="M219.1,23.7c1.6,0,3.3,0.5,4.8,0.8c6.5,1.2,8.2,0.8,6.8,7.5c-1.7,8.1-4.3,16.1-5.8,24.2c-0.9,4.8-3.4,8.2-7.7,8.2
					c-1,0-2.1-0.2-3.3-0.6c-2.9-1-4.1-2.7-4.5-4.7c-0.6-3.2,0.9-7.3,1.3-10.9c0.7-5.4,0.5-19.5,5.8-23.7
					C217.3,23.9,218.2,23.7,219.1,23.7 M219.1,21.2c-1.6,0-3,0.4-4.2,1.3c-5.1,4-5.9,14.1-6.4,21.4c-0.1,1.6-0.2,2.9-0.3,3.9
					c-0.1,1.1-0.4,2.2-0.6,3.4c-0.6,2.8-1.2,5.6-0.7,8.3c0.6,3.2,2.7,5.4,6.2,6.6c1.4,0.5,2.8,0.7,4.2,0.7c5.2,0,8.9-3.8,10.1-10.2
					c0.8-4.4,2-8.9,3.1-13.2c0.9-3.5,1.9-7.2,2.7-10.9c0.7-3.2,0.8-5.5-0.4-7.3c-1.4-2-3.7-2.4-6.9-2.9c-0.5-0.1-1-0.2-1.5-0.3
					c-0.4-0.1-0.9-0.2-1.3-0.3C221.9,21.5,220.5,21.2,219.1,21.2L219.1,21.2z"/>
				<path d="M212.3,73c2.1,0,4.7,0.6,5.9,1.1c1,0.4,2.1,0.8,2.7,2.1c-0.8,2.7,0.1,7-2.8,8.5c-0.3,0.2-1,0.2-1.9,0.2
					c-2.7,0-7.1-0.6-7.6-1.2c-1.3-1.5-0.4-9,1-10C210.2,73.1,211.2,73,212.3,73 M212.3,70.5c-1.8,0-3.2,0.3-4.1,1
					c-1.3,0.9-2.2,3.1-2.6,6.4c-0.3,2.4-0.3,5.7,1.1,7.4c1.8,2,9.4,2.1,9.5,2.1c1.4,0,2.4-0.2,3-0.5c3.2-1.7,3.5-5.1,3.7-7.6
					c0.1-0.9,0.2-1.8,0.3-2.4c0.2-0.6,0.1-1.2-0.1-1.7c-0.9-2.1-2.8-2.9-3.9-3.3l-0.2-0.1C217.6,71.1,214.7,70.5,212.3,70.5
					L212.3,70.5z"/>
			</g>
			<g>
				<g>
					<path style="fill:#FDEB95;" d="M223.9,24.5c-2.4-0.4-5.4-1.6-7.4,0c-5.3,4.2-5.1,18.3-5.8,23.7c-0.5,3.6-2,7.7-1.3,10.9
						c0.4,2,1.6,3.7,4.5,4.7c6.3,2.2,9.9-1.7,11-7.6c1.5-8.1,4.1-16,5.8-24.2C232.1,25.3,230.4,25.7,223.9,24.5z"/>
					<path style="fill:#FCD11F;" d="M219.1,25.4c0.9,0,2,0.2,3,0.5c0.5,0.1,1,0.2,1.5,0.3c0.6,0.1,1.1,0.2,1.6,0.3
						c2,0.3,3.8,0.6,4.1,1.1c0.3,0.5,0.2,1.8-0.3,4.1c-0.8,3.6-1.7,7.2-2.6,10.7c-1.1,4.4-2.3,9-3.2,13.5c-0.5,2.5-1.9,6.8-6,6.8
						c-0.9,0-1.8-0.2-2.8-0.5c-2.6-0.9-3.2-2.3-3.4-3.4c-0.4-1.8,0.2-4.3,0.7-6.6c0.3-1.2,0.5-2.5,0.7-3.7c0.1-1.1,0.2-2.5,0.4-4.1
						c0.4-5.8,1.1-15.6,4.8-18.5C217.9,25.5,218.4,25.4,219.1,25.4 M219.1,23.7c-1,0-1.9,0.2-2.6,0.8c-5.3,4.2-5.1,18.3-5.8,23.7
						c-0.5,3.6-2,7.7-1.3,10.9c0.4,2,1.6,3.7,4.5,4.7c1.2,0.4,2.3,0.6,3.3,0.6c4.3,0,6.8-3.4,7.7-8.2c1.5-8.1,4.1-16,5.8-24.2
						c1.4-6.7-0.3-6.3-6.8-7.5C222.4,24.3,220.7,23.7,219.1,23.7L219.1,23.7z"/>
				</g>
				<g>
					<path style="fill:#FDEB95;" d="M220.9,76.1c-0.6-1.3-1.7-1.6-2.7-2.1c-1.9-0.8-6.9-1.7-8.6-0.5c-1.4,1-2.4,8.5-1,10
						c0.7,0.8,8.2,1.7,9.5,1C221,83.1,220.1,78.9,220.9,76.1z"/>
					<path style="fill:#FCD11F;" d="M212.3,74.7c1.8,0,4.2,0.5,5.3,1l0.2,0.1c0.7,0.3,1.1,0.5,1.3,0.7c-0.2,0.8-0.2,1.6-0.3,2.5
						c-0.2,2.2-0.4,3.6-1.4,4.2c-0.1,0-0.4,0.1-1.2,0.1c-2.3,0-5.4-0.5-6.4-0.8c-0.5-1.4,0-6.3,0.8-7.4
						C210.8,74.8,211.2,74.7,212.3,74.7 M212.3,73c-1.1,0-2.1,0.2-2.7,0.6c-1.4,1-2.4,8.5-1,10c0.5,0.6,4.9,1.2,7.6,1.2
						c0.9,0,1.6-0.1,1.9-0.2c2.9-1.5,2-5.7,2.8-8.5c-0.6-1.3-1.7-1.6-2.7-2.1C216.9,73.6,214.4,73,212.3,73L212.3,73z"/>
				</g>
			</g>
		</g>
		<g>
			<path d="M182.4,19.2c7.5,0,15.1,3.7,19,10.1c4.7,7.9,2.4,19.5-5.4,24.2c-1.7,1-3.6,1.7-5.2,2.8c-4.1,2.6-3.1,6-8.4,6.1
				c-0.1,0-0.2,0-0.3,0c-3,0-8.1-0.7-9.1-3.9c-0.9-2.9,2.3-8.4,4.7-9.8c5.5-3.3,13.2-0.3,14.5-9.1c0.6-4.1-1.6-8.2-5.6-9
				c-1.2-0.2-2.5-0.4-3.8-0.4c-2.8,0-5.7,0.7-7.8,2.6c-2.1,1.9-4,6.4-6.7,6.4c-1.1,0-2.3-0.7-3.6-2.5c-1.6-2.2-1.6-5.3-0.5-7.8
				c1.1-2.5,3.2-4.4,5.5-5.9c2.4-1.6,5.2-2.7,8-3.3C179.1,19.4,180.8,19.2,182.4,19.2 M182.4,16.7c-1.9,0-3.7,0.2-5.5,0.6
				c-3.1,0.7-6.1,1.9-8.8,3.7c-3.1,2-5.3,4.3-6.5,6.9c-1.6,3.5-1.3,7.6,0.8,10.3c1.8,2.4,3.6,3.5,5.7,3.5c3.1,0,5.1-2.7,6.7-4.9
				c0.6-0.8,1.2-1.7,1.7-2.1c1.8-1.6,4.3-2,6.2-2c1.1,0,2.2,0.1,3.3,0.3c2.9,0.6,4,3.6,3.6,6.1c-0.6,3.8-2.3,4.3-6.4,5.1
				c-2.2,0.4-4.6,0.9-6.8,2.2c-3.2,1.9-7.1,8.5-5.8,12.8c1.6,5.1,8.6,5.6,11.5,5.6l0.3,0c4.5-0.1,6-2.2,7.2-3.9
				c0.7-1,1.2-1.8,2.5-2.5c0.8-0.5,1.6-0.9,2.5-1.3c0.9-0.4,1.8-0.9,2.7-1.4c8.9-5.4,11.9-18.3,6.3-27.7
				C199.5,21.1,191.2,16.7,182.4,16.7L182.4,16.7z"/>
			<g>
				<path d="M174.9,67.7c2,0,4.4,0.5,5.6,1c0.9,0.4,2,0.7,2.5,1.9c-0.8,2.6,0.1,6.5-2.6,7.9c-0.3,0.1-0.9,0.2-1.8,0.2
					c-2.5,0-6.6-0.6-7.1-1.2c-1.3-1.4-0.4-8.4,1-9.4C173,67.9,173.9,67.7,174.9,67.7 M174.9,65.2c-1.7,0-3,0.3-4,1
					c-1.3,0.9-2.1,2.9-2.5,6.1c-0.3,2.3-0.3,5.4,1.1,7c1.8,2,8.9,2,9,2c1.4,0,2.3-0.1,2.9-0.5c3.1-1.6,3.4-4.9,3.6-7.2
					c0.1-0.8,0.1-1.6,0.3-2.2c0.2-0.6,0.1-1.2-0.1-1.7c-0.9-2.1-2.7-2.8-3.7-3.2l-0.2-0.1C180,65.8,177.3,65.2,174.9,65.2
					L174.9,65.2z"/>
			</g>
			<g>
				<g>
					<path style="fill:#FDEB95;" d="M186.5,30.6c4.1,0.8,6.2,4.9,5.6,9c-1.3,8.7-9,5.8-14.5,9.1c-2.4,1.4-5.6,6.9-4.7,9.8
						c1,3.3,6.5,3.9,9.4,3.9c5.3-0.1,4.3-3.5,8.4-6.1c1.7-1,3.6-1.7,5.2-2.8c7.9-4.7,10.1-16.3,5.4-24.2s-15-11.6-23.9-9.6
						c-2.8,0.6-5.5,1.8-8,3.3c-2.3,1.5-4.4,3.4-5.5,5.9s-1.1,5.6,0.5,7.8c4.9,6.5,7.5-1.3,10.4-3.8C178,30,182.7,29.9,186.5,30.6z"
						/>
					<path style="fill:#FCD11F;" d="M182.4,20.9c7.3,0,14.2,3.7,17.5,9.3c4.3,7.3,2,17.8-4.9,21.9c-0.7,0.5-1.5,0.8-2.4,1.2
						c-0.9,0.5-1.9,0.9-2.9,1.5c-1.9,1.2-2.9,2.6-3.7,3.7c-1,1.5-1.5,2.1-3.8,2.2l-0.3,0c-3.2,0-7-0.8-7.5-2.7c-0.6-2,2-6.7,4-7.9
						c1.6-1,3.6-1.3,5.5-1.7c3.9-0.7,8.8-1.6,9.8-8.6c0.8-5.3-2.2-9.9-7-10.9c-1.4-0.3-2.8-0.4-4.1-0.4c-3.7,0-6.8,1.1-9,3
						c-0.8,0.7-1.6,1.8-2.3,2.7c-1,1.3-2.3,3.2-3.3,3.2c-0.6,0-1.4-0.7-2.3-1.9c-1.1-1.5-1.3-4-0.3-6.1c0.9-1.9,2.5-3.6,4.9-5.1
						c2.3-1.5,4.8-2.5,7.4-3.1C179.3,21,180.9,20.9,182.4,20.9 M182.4,19.2c-1.7,0-3.3,0.2-4.9,0.5c-2.8,0.6-5.5,1.8-8,3.3
						c-2.3,1.5-4.4,3.4-5.5,5.9c-1.1,2.5-1.1,5.6,0.5,7.8c1.4,1.8,2.6,2.5,3.6,2.5c2.7,0,4.7-4.5,6.7-6.4c2.1-1.9,5-2.6,7.8-2.6
						c1.3,0,2.6,0.1,3.8,0.4c4.1,0.8,6.2,4.9,5.6,9c-1.3,8.7-9,5.8-14.5,9.1c-2.4,1.4-5.6,6.9-4.7,9.8c1,3.2,6.2,3.9,9.1,3.9
						c0.1,0,0.2,0,0.3,0c5.3-0.1,4.3-3.5,8.4-6.1c1.7-1,3.6-1.7,5.2-2.8c7.9-4.7,10.1-16.3,5.4-24.2C197.6,22.9,190,19.2,182.4,19.2
						L182.4,19.2z"/>
				</g>
				<g>
					<path style="fill:#FDEB95;" d="M183,70.7c-0.5-1.2-1.6-1.5-2.5-1.9c-1.8-0.7-6.5-1.6-8.1-0.5c-1.3,0.9-2.2,7.9-1,9.4
						c0.7,0.8,7.7,1.6,8.9,1C183.1,77.2,182.2,73.2,183,70.7z"/>
					<path style="fill:#FCD11F;" d="M174.9,69.4c1.7,0,3.9,0.5,4.9,0.9l0.2,0.1c0.6,0.2,0.9,0.4,1.2,0.6c-0.1,0.7-0.2,1.5-0.3,2.3
						c-0.2,2-0.3,3.3-1.3,3.8c-0.1,0-0.4,0.1-1.1,0.1c-2.1,0-4.9-0.4-5.9-0.7c-0.4-1.3,0-5.7,0.8-6.8
						C173.6,69.5,174,69.4,174.9,69.4 M173.5,69.5L173.5,69.5L173.5,69.5 M174.9,67.7c-1,0-2,0.2-2.5,0.5c-1.3,0.9-2.2,7.9-1,9.4
						c0.5,0.6,4.6,1.2,7.1,1.2c0.8,0,1.5-0.1,1.8-0.2c2.7-1.4,1.9-5.4,2.6-7.9c-0.5-1.2-1.6-1.5-2.5-1.9
						C179.3,68.3,176.9,67.7,174.9,67.7L174.9,67.7z"/>
				</g>
			</g>
		</g>
	</g>
	<g style="clip-path:url(#SVGID_00000180330207717920888970000004681645978170240146_);">
		<path style="fill:#6A4C25;" d="M63.7,300.5c0,0.2-0.2,0.4-0.4,0.4c-0.2,0-16.1,1.7-19.7,12.5c-1.3,4-1.5,8.9,1.5,12.3
			c3.8,4.6,12.7,4.5,18.2,4.9c4.6,0.4,9.3,0.2,13.8-0.6c2.6-0.4,5.3-1,7.5-2.3c4.9-2.7,4-8.7,4.2-13.5c0-0.9,0.4-12.3,0.6-12.3
			C89.6,301.7,63.7,300.5,63.7,300.5z"/>
		<path d="M68,332c-1.6,0-3.2-0.1-4.8-0.2c-0.7-0.1-1.5-0.1-2.4-0.2c-5.5-0.3-13-0.7-16.7-5.1c-2.7-3.1-3.4-8.1-1.7-13.4
			c3.5-10.5,17.4-12.9,20.4-13.3c0.1-0.1,0.1-0.1,0.2-0.2c0.2-0.2,0.6-0.3,0.9-0.3l24.5,1.2c0.3,0,0.6,0,0.9,0.1c0.1,0,0.1,0,0.2,0
			l0,0c0.8,0.1,1.2,0.4,1.2,1.2c0,0.2,0,0.2-0.1,0.4c-0.2,1.4-0.6,11-0.6,11.9c0,0.8-0.1,1.6-0.1,2.4c-0.1,4.5-0.1,9.6-4.8,12.3
			c-2.4,1.4-5.5,2.1-7.8,2.5C74.3,331.7,71.2,332,68,332z M64.4,301.7c-0.3,0.2-0.6,0.4-1,0.4c-0.1,0-15.2,1.6-18.6,11.7
			c-0.6,2.2-1.9,7.5,1.3,11.1c3,3.6,9.9,4,14.9,4.3c0.9,0.1,1.7,0.1,2.5,0.2c4.6,0.4,9.1,0.2,13.5-0.6c2.2-0.4,5-1,7.1-2.2
			c3.5-2,3.6-6,3.6-10.2c0-0.8,0-1.6,0.1-2.4c0-0.4,0.1-3.5,0.2-6.5c0.1-1.5,0.2-3,0.2-4.1c0-0.2,0-0.4,0-0.6
			C84.1,302.7,71.8,302.1,64.4,301.7z M89.8,302.9c-0.1,0-0.2,0.1-0.4,0.1C89.5,302.9,89.6,302.9,89.8,302.9z M63.3,299.7
			c-0.1,0-0.1,0-0.2,0C63.2,299.7,63.3,299.7,63.3,299.7z"/>
	</g>
	<g style="clip-path:url(#SVGID_00000180330207717920888970000004681645978170240146_);">
		<path d="M89.4,305.9c0-2.6,3.8-46.3,4.2-52.6l-22-4.9l-7.5,50.9l-0.2,1c0,0,3.6,11.5,25.4,7L89.4,305.9L89.4,305.9z"/>
		<path d="M80.1,309.7c-14.3,0-17.1-8.4-17.2-8.9c-0.1-0.2-0.1-0.4,0-0.6l0.2-1l7.4-50.8c0.1-0.3,0.2-0.6,0.5-0.8s0.6-0.2,1-0.2
			l22,4.9c0.6,0.2,1,0.6,1,1.3c-0.2,2.6-1,11.9-1.8,21.7c-1.1,13.1-2.5,29.3-2.5,30.7v1.5c0,0.6-0.4,1-1,1.2
			C86,309.4,82.8,309.7,80.1,309.7z M89.4,307.5L89.4,307.5L89.4,307.5z M65.2,300.3c0.6,1.6,5,9.5,23,6.1v-0.5
			c0-1.5,1.3-16.5,2.5-30.9c0.7-8.8,1.4-17.2,1.7-20.7l-19.8-4.4l-7.2,49.6L65.2,300.3z"/>
	</g>
	<g style="clip-path:url(#SVGID_00000180330207717920888970000004681645978170240146_);">
		<g>
			<path style="fill:#6A4C25;" d="M114.2,301.7c0.2,0,0.6,11.5,0.6,12.3c0.2,4.9-0.6,10.8,4.2,13.5c2.3,1.3,4.9,1.9,7.5,2.3
				c4.6,0.9,9.3,0.9,13.8,0.6c5.5-0.4,14.4-0.4,18.2-4.9c3-3.4,2.7-8.3,1.5-12.3c-3.4-10.8-19.5-12.5-19.7-12.5
				c-0.2,0-0.4-0.2-0.4-0.4C140,300.5,114.2,301.7,114.2,301.7z"/>
			<path d="M135.8,331.9c-3,0-6.3-0.2-9.5-0.8c-2.2-0.4-5.1-1-7.8-2.5c-4.7-2.6-4.8-7.8-4.8-12.3c0-0.8,0-1.6-0.1-2.3
				c0-1-0.4-10.6-0.6-11.9c-0.1-0.1-0.1-0.2-0.1-0.4c0-0.6,0.5-1.2,1.1-1.2c8.6-0.4,24.9-1.2,25.6-1.3h0.1c0.4,0,0.7,0.2,1,0.5
				c3,0.4,17,2.7,20.4,13.3c1.7,5.4,1,10.3-1.8,13.5c-3.7,4.3-11.4,4.8-17,5.1c-0.7,0.1-1.4,0.1-2.1,0.2
				C139,331.8,137.4,331.9,135.8,331.9z M115.5,302.9c0,0.2,0,0.4,0,0.6c0.1,1.1,0.2,2.6,0.2,4.1c0.2,3,0.2,6.1,0.2,6.5
				c0,0.7,0,1.5,0.1,2.3c0,4.2,0.1,8.2,3.6,10.2c1.8,1,4,1.7,7.1,2.2c4.9,0.9,9.8,0.8,13.5,0.6c0.6-0.1,1.3-0.1,2.1-0.2
				c5.2-0.3,12.3-0.8,15.3-4.3c3.1-3.6,1.9-9,1.3-11.1c-3.1-10-18.5-11.6-18.7-11.7l0,0c-0.3,0-0.7-0.2-1-0.4c-0.2,0-0.2,0-0.4,0
				L115.5,302.9z M113.8,302.9c0.1,0.1,0.2,0.1,0.4,0.1C114.1,302.9,113.9,302.9,113.8,302.9z M140.3,299.7c0,0,0.1,0,0.2,0
				C140.4,299.7,140.4,299.7,140.3,299.7z"/>
		</g>
		<g>
			<path d="M114.4,305.9c0-2.6-3.8-46.3-4.2-52.6l22-4.9l7.5,50.9l0.2,1c0,0-3.6,11.5-25.4,7L114.4,305.9L114.4,305.9z"/>
			<path d="M123.8,309.7c-2.7,0-5.9-0.3-9.6-1c-0.6-0.1-1-0.6-1-1.2v-1.5c0-1.4-1.4-17.7-2.5-30.8c-0.8-9.8-1.6-19.1-1.8-21.7
				c0-0.6,0.3-1.1,1-1.3l22-4.9c0.3-0.1,0.6,0,1,0.2c0.2,0.2,0.5,0.5,0.5,0.8l7.5,50.9l0.2,1c0,0.2,0,0.4,0,0.6
				C140.9,301.2,138,309.7,123.8,309.7z M115.6,306.4c17.9,3.4,22.3-4.6,23-6.1l-0.2-0.7l-7.2-49.7l-19.8,4.4
				c0.2,3.5,1,11.9,1.7,20.7c1.2,14.4,2.5,29.4,2.5,30.9L115.6,306.4L115.6,306.4z"/>
		</g>
	</g>
	<g style="clip-path:url(#SVGID_00000180330207717920888970000004681645978170240146_);">
		<g>
			<path style="fill:#6A4C25;" d="M152.8,237.7c-59.6,19.3-102.2,0-102.2,0c-1.5-3.4,0-13.8,0-13.8s42.7,19.5,102.2,0
				C152.8,223.9,153.5,237.5,152.8,237.7z"/>
			<path d="M99.7,247.4c-7.9,0-14.8-0.6-20.4-1.4c-18-2.4-28.6-7.1-29.1-7.3c-0.2-0.2-0.5-0.3-0.6-0.6c-1.6-3.6-0.2-13.3-0.1-14.4
				c0.1-0.4,0.3-0.7,0.6-0.9c0.3-0.2,0.7-0.2,1,0c0.4,0.2,42.9,19.1,101.3-0.1c0.3-0.1,0.7-0.1,1,0.2c0.3,0.2,0.5,0.6,0.5,1
				c0.6,14.5,0.2,14.7-0.8,15l0,0C132.9,245.4,114.6,247.4,99.7,247.4z M51.6,236.8c4.7,1.9,45.4,17.5,100.3-0.1
				c0.2-1.6,0.1-6.5-0.2-11.2c-19.2,6.1-36.8,8.2-51.6,8.2c-25.7,0-43.4-6.1-48.4-8.1C51.3,228.9,50.9,234.3,51.6,236.8z
				 M152.8,237.7L152.8,237.7L152.8,237.7z"/>
		</g>
		<g>
			<path style="fill:#898989;" d="M107.9,231.5H94.9c-1.5,0-3,1.3-3,3v7.9c0,1.5,1.3,3,3,3h12.9c1.5,0,3-1.3,3-3v-7.9
				C110.7,232.8,109.4,231.5,107.9,231.5z M106.7,240.2c0,0.9-0.6,1.3-1.5,1.3h-7.5c-0.9,0-1.5-0.6-1.5-1.3v-3.6
				c0-0.9,0.6-1.3,1.5-1.3h7.5c0.9,0,1.5,0.6,1.5,1.3V240.2z"/>
			<path d="M107.9,246.6H94.9c-2.3,0-4.2-1.9-4.2-4.2v-7.9c0-2.3,1.9-4.2,4.2-4.2h12.9c2.3,0,4.2,1.9,4.2,4.2v7.9
				C111.9,244.7,110,246.6,107.9,246.6z M94.7,232.8c-0.9,0-1.7,0.6-1.7,1.7v7.9c0,0.9,0.6,1.7,1.7,1.7h12.9c0.9,0,1.7-0.6,1.7-1.7
				v-7.9c0-0.9-0.6-1.7-1.7-1.7L94.7,232.8L94.7,232.8z M104.9,243h-7.5c-1.5,0-2.7-1.3-2.7-2.6v-3.6c0-1.5,1.3-2.6,2.7-2.6h7.5
				c1.5,0,2.7,1.3,2.7,2.6v3.6C107.9,241.7,106.7,243,104.9,243z M97.7,236.6c-0.2,0-0.2,0-0.2,0.2v3.6h0.2h7.5c0.2,0,0.2,0,0.2-0.2
				v-3.6h-0.2H97.7z"/>
		</g>
		<g>
			<path style="fill:#898989;" d="M112.1,240h-6.6c-0.9,0-1.5-0.6-1.5-1.5l0,0c0-0.9,0.6-1.5,1.5-1.5h6.6c0.9,0,1.5,0.6,1.5,1.5l0,0
				C113.6,239.4,113,240,112.1,240z"/>
			<path d="M112.1,241.3h-6.6c-1.5,0-2.7-1.3-2.7-2.7s1.3-2.7,2.7-2.7h6.6c1.5,0,2.7,1.3,2.7,2.7C114.9,240,113.6,241.3,112.1,241.3
				z M105.5,238.1c-0.2,0-0.2,0.2-0.2,0.2c0,0.2,0.2,0.2,0.2,0.2h6.6c0.2,0,0.2-0.2,0.2-0.2c0-0.2-0.2-0.2-0.2-0.2H105.5z"/>
		</g>
	</g>
</g>
</svg>
