<?xml version="1.0" encoding="utf-8"?>
<!-- Generator: Adobe Illustrator 24.1.1, SVG Export Plug-In . SVG Version: 6.00 Build 0)  -->
<svg version="1.1" id="Layer_1" xmlns="http://www.w3.org/2000/svg" xmlns:xlink="http://www.w3.org/1999/xlink" x="0px" y="0px"
	 viewBox="0 0 240 240" style="enable-background:new 0 0 240 240;" xml:space="preserve">
<g>
	<path style="fill:#FAC720;" d="M145.58,132.67c-0.1,0.27-1.53,3.91,0.34,9.97c-2.93-0.34-6.06-0.07-9.49,0.85l-0.58,0.27
		c-0.27,0.2-3.33,2.65-4.73,8.84c-2.38-1.8-5.2-3.1-8.64-4.05l-0.31-0.1l-0.34,0.07c-0.34,0.03-4.15,0.61-8.47,5.24
		c-1.19-2.69-2.99-5.24-5.48-7.79l-0.58-0.37c-0.27-0.1-3.91-1.53-9.97,0.34c0.34-2.93,0.07-6.06-0.85-9.49l-0.27-0.58
		c-0.2-0.27-2.55-3.2-8.47-4.63c-0.03-0.14-0.1-0.31-0.14-0.44c1.67-2.31,2.89-5.03,3.81-8.3l0.1-0.31l-0.07-0.34
		c-0.03-0.31-0.61-4.08-5.1-8.33c0.03-0.07,0.03-0.17,0.07-0.24c2.62-1.19,5.1-2.96,7.59-5.38l0.37-0.58
		c0.1-0.27,1.53-3.91-0.34-9.93c0.78,0.1,1.56,0.14,2.35,0.14c2.25,0,4.59-0.34,7.14-1.02l0.58-0.27c0.27-0.2,3.33-2.62,4.73-8.81
		c2.38,1.77,5.2,3.06,8.64,4.01l0.31,0.1l0.34-0.07c0.34-0.03,4.15-0.61,8.44-5.2c1.22,2.69,3.03,5.24,5.51,7.76l0.58,0.37
		c0.17,0.07,1.6,0.61,4.05,0.61c1.56,0,3.54-0.2,5.92-0.95c-0.34,2.93-0.07,6.02,0.85,9.49l0.27,0.58c0.2,0.27,2.62,3.3,8.81,4.69
		c-1.77,2.38-3.06,5.24-4.01,8.67l-0.1,0.31l0.07,0.34c0.03,0.34,0.61,4.15,5.24,8.47c-2.69,1.19-5.24,2.99-7.79,5.48L145.58,132.67
		z"/>
	<g>
		<circle style="fill:#FBAA1A;" cx="119.97" cy="120.01" r="23.68"/>
		<path style="fill:#FAE373;" d="M119.97,92.94c-14.93,0-27.08,12.14-27.08,27.08c0,14.93,12.14,27.08,27.08,27.08
			c14.93,0,27.08-12.15,27.08-27.08C147.05,105.08,134.9,92.94,119.97,92.94z M119.97,143.69c-13.06,0-23.68-10.61-23.68-23.68
			s10.61-23.68,23.68-23.68c13.06,0,23.68,10.61,23.68,23.68S133.03,143.69,119.97,143.69z"/>
	</g>
	<path style="fill:#F9F9F9;" d="M85.88,118.11c-0.82-1.05-1.94-2.28-3.47-3.5h-0.03c-1.53,0.37-3.16,0.54-4.86,0.54
		c-7.55,0-16.7-3.23-29.36-8.71c-1.36-0.58-2.65-1.19-3.95-1.84c-0.03,0-0.03,0-0.03,0c-0.51-0.03-1.02-0.03-1.5-0.03
		c-17.11,0-25.48,5.14-29.19,8.64c-3.5,3.27-5.31,7.35-5.1,11.43c0.17,3.13,1.84,6.12,4.86,8.68c6.77,5.71,18.91,8.61,32.49,7.86
		c1.6-0.07,3.23-0.2,4.86-0.37c1.7-0.2,3.3-0.37,4.83-0.58c0.03,0,0.03-0.03,0.03-0.03c11.4-1.46,18.98-3.16,24.08-6.29
		c1.56-0.99,2.89-2.08,4.01-3.34c1.16-1.29,2.11-2.72,2.86-4.39c0.65-1.26,1.16-2.65,1.6-4.15
		C87.86,121.41,87.35,119.95,85.88,118.11z M91.33,100.62c-0.2-1.19-0.58-2.52-1.19-4.05v-0.03c-8.27-2.58-15.51-10.58-25.58-24.19
		c-0.88-1.19-1.73-2.42-2.52-3.64c0,0-0.03,0-0.07-0.03c-11.16-6.67-19.59-8.4-25.31-8.4c-2.25,0-4.08,0.27-5.51,0.58
		c-4.66,1.12-8.23,3.71-10.1,7.38c-1.43,2.76-1.46,6.19-0.14,9.93c2.96,8.3,12.01,16.87,24.12,23.03h0.03
		c1.43,0.75,2.93,1.46,4.46,2.11c1.56,0.68,3.03,1.29,4.46,1.91c0.03,0,0.03,0,0.03,0c10.58,4.42,18,6.74,23.98,6.57
		c1.84-0.03,3.57-0.31,5.17-0.82c1.5-0.48,2.93-1.19,4.32-2.11c1.29-0.82,2.55-1.87,3.84-3.09
		C91.5,105.08,91.84,103.31,91.33,100.62z M93.33,137.7c-0.44-0.41-1.63-1.46-3.88-2.35c-1.26-0.48-2.79-0.95-4.73-1.22
		c-6.4,5.85-16.94,8.13-33.71,10.03c-1.5,0.17-2.96,0.31-4.42,0.38c-15.82,8.78-20.72,17.82-22.25,22.83
		c-1.36,4.59-0.88,9.01,1.33,12.45c1.7,2.62,4.66,4.35,8.54,5.07c8.71,1.56,20.65-1.97,32.01-9.35c1.39-0.88,2.76-1.84,4.08-2.82
		c1.36-1.02,2.69-2.01,3.91-2.96c9.12-6.97,14.83-12.25,17.69-17.52c0.88-1.6,1.46-3.23,1.84-4.9c0.34-1.53,0.44-3.13,0.34-4.83
		C94.01,140.97,93.74,139.4,93.33,137.7z M95.82,51.03c-0.17-1.5-0.31-2.96-0.37-4.42l-0.03-0.03
		c-8.74-15.78-17.79-20.68-22.79-22.21c-1.73-0.51-3.44-0.75-5.07-0.75c-2.69,0-5.24,0.68-7.38,2.07c-2.62,1.7-4.35,4.66-5.07,8.54
		c-1.56,8.68,1.97,20.65,9.35,32.01c0.88,1.39,1.84,2.72,2.82,4.08c1.02,1.36,2.01,2.69,2.96,3.91
		c6.97,9.12,12.25,14.83,17.52,17.69c1.6,0.89,3.23,1.46,4.9,1.84c1.26,0.27,2.52,0.41,3.84,0.37c1.84,0,3.71-0.27,5.78-0.78
		c0.54-0.54,2.01-2.25,2.96-5.58c0.27-0.89,0.48-1.87,0.65-2.99v-0.03C100,78.34,97.72,67.8,95.82,51.03z M111.67,160.43
		c0.03-0.07,0.03-0.1,0-0.17c-0.03-0.31-0.07-0.58-0.14-0.89c-0.1-0.88-0.31-1.73-0.58-2.55c-0.41-1.19-0.92-2.35-1.56-3.47h-0.03
		c-0.92-1.6-2.11-3.13-3.61-4.69c-0.41-0.1-1.22-0.24-2.38-0.24c-0.75,0-1.63,0.07-2.69,0.27c-1.19,0.2-2.62,0.58-4.18,1.19
		c-2.59,8.23-10.58,15.48-24.15,25.55c-1.19,0.88-2.38,1.73-3.61,2.52c-9.32,15.51-9.08,25.79-7.89,30.89
		c1.12,4.66,3.71,8.23,7.38,10.1c2.76,1.43,6.19,1.5,9.93,0.14c8.3-2.96,16.87-12.01,23.03-24.12v-0.03
		c0.75-1.43,1.46-2.93,2.11-4.46c0.68-1.56,1.29-3.03,1.9-4.46c0-0.03,0-0.03,0-0.03c4.42-10.58,6.74-18,6.57-23.98
		C111.77,161.45,111.74,160.94,111.67,160.43z M126.77,13.51c-3.1-3.3-6.91-5.1-10.78-5.1h-0.65c-3.1,0.17-6.12,1.84-8.67,4.87
		c-5.71,6.73-8.61,18.85-7.86,32.35v0.07c-0.03,0-0.03,0,0,0.03v0.03c0.07,1.6,0.2,3.23,0.37,4.86c0.2,1.7,0.37,3.3,0.58,4.83
		c0,0.03,0.03,0.03,0.03,0.03c1.46,11.4,3.16,18.98,6.33,24.08c0.95,1.56,2.04,2.89,3.3,4.01c0.65,0.58,1.36,1.12,2.11,1.63
		c1.8,1.19,3.95,2.11,6.46,2.82c0.85-0.24,3.3-1.12,6.16-4.22c0.41-0.44,0.82-0.92,1.22-1.43c-1.87-8.44,1.43-18.71,8.16-34.22
		c0.58-1.36,1.22-2.72,1.87-4.01v-0.03C135.72,26.06,130.34,17.32,126.77,13.51z M141.16,194.24c-1.43-2.62-2.79-5.41-4.08-8.37
		c-5.85-13.4-7.11-22.89-6.53-29.46c-0.61-0.54-1.26-1.05-1.97-1.53c-1.87-1.26-4.01-2.18-6.57-2.93c-0.75,0.2-2.76,0.92-5.2,3.23
		c-0.71,0.68-1.46,1.46-2.21,2.42c1.87,8.44-1.43,18.71-8.16,34.22c-0.58,1.36-1.19,2.65-1.87,3.95v0.03
		c-0.31,18.1,5.07,26.87,8.64,30.68c3.27,3.5,7.35,5.27,11.43,5.1c3.13-0.17,6.12-1.84,8.67-4.86
		C139.02,219.96,141.91,207.81,141.16,194.24z M179.13,31.16c-1.09-4.66-3.71-8.23-7.38-10.1c-2.76-1.43-6.19-1.46-9.93-0.14
		c-8.3,2.96-16.87,12.01-23.03,24.12c0,0,0,0,0,0.03c-0.75,1.43-1.46,2.93-2.11,4.46c-0.68,1.56-1.29,3.03-1.9,4.46
		c0,0.03,0,0.03,0,0.03c-4.42,10.58-6.74,18-6.57,23.98c0.03,1.87,0.31,3.57,0.85,5.2c0.14,0.48,0.34,0.95,0.54,1.4
		c0.95,2.35,2.52,4.52,4.63,6.74c0.88,0.24,3.81,0.75,8.37-0.85c0.27-0.1,0.58-0.2,0.88-0.34c2.59-8.23,10.58-15.48,24.15-25.58
		c1.19-0.88,2.42-1.73,3.64-2.52c0,0,0-0.03,0.03-0.07C180.59,46.5,180.32,36.26,179.13,31.16z M175.52,173.76
		c-0.88-1.4-1.84-2.76-2.82-4.08c-1.02-1.36-2.01-2.69-2.96-3.91c-6.97-9.12-12.25-14.83-17.52-17.69c-1.6-0.89-3.23-1.46-4.9-1.84
		c-0.44-0.1-0.88-0.17-1.33-0.2c-2.59-0.37-5.31-0.14-8.3,0.61c-0.58,0.58-2.28,2.55-3.23,6.53c-0.14,0.61-0.27,1.29-0.37,2.04
		c0,0,0,0,0,0.03c-0.2,1.5-0.31,3.2-0.24,5.17c0.14,5.75,1.77,13.61,6.33,24.08l0.03,0.03c1.39,3.27,2.86,6.23,4.32,8.84
		c8.78,15.82,17.83,20.72,22.83,22.25c4.59,1.36,9.01,0.89,12.45-1.33c2.62-1.7,4.35-4.66,5.07-8.54
		C186.44,197.1,182.9,185.12,175.52,173.76z M214.3,60.18c-1.7-2.62-4.66-4.36-8.54-5.07c-8.67-1.56-20.61,1.94-31.94,9.32
		c-0.03,0-0.07,0-0.07,0.03c-1.39,0.88-2.72,1.84-4.08,2.82c-1.36,1.02-2.69,2.01-3.91,2.96c-9.12,6.97-14.83,12.25-17.69,17.52
		c-0.88,1.6-1.46,3.2-1.8,4.86c-0.07,0.24-0.1,0.48-0.14,0.75c-0.51,2.72-0.31,5.65,0.51,8.91c0.68,0.68,3.1,2.72,8.2,3.54
		c0.14,0.03,0.24,0.03,0.37,0.07h0.03c6.4-5.88,16.94-8.16,33.71-10.07c1.5-0.17,2.93-0.31,4.39-0.37h0.03
		c15.82-8.78,20.72-17.82,22.25-22.83C216.99,68.03,216.51,63.65,214.3,60.18z M219.06,161.82c-2.96-8.3-12.01-16.87-24.12-23.03
		c-1.43-0.75-2.96-1.43-4.49-2.11c-1.53-0.68-3.03-1.29-4.46-1.91h-0.03c-10.58-4.46-18-6.77-23.98-6.56
		c-1.87,0.03-3.57,0.31-5.2,0.85c-0.17,0.07-0.34,0.1-0.48,0.17c-2.72,0.95-5.14,2.62-7.65,5c-0.2,0.89-0.75,3.74,0.78,8.17
		c0.14,0.34,0.27,0.68,0.41,1.05v0.03c8.27,2.55,15.51,10.55,25.58,24.15c0.88,1.19,1.73,2.38,2.52,3.61
		c15.51,9.32,25.79,9.08,30.89,7.89c4.66-1.09,8.27-3.71,10.1-7.38C220.35,169,220.42,165.56,219.06,161.82z M226.72,106.68
		c-6.77-5.72-18.91-8.61-32.49-7.86h-0.03c-1.6,0.07-3.2,0.2-4.83,0.37c-1.67,0.2-3.27,0.37-4.76,0.58c-0.03,0-0.03,0-0.07,0
		c-0.03,0-0.03,0.03-0.03,0.03c-11.4,1.46-18.98,3.16-24.08,6.33c-1.56,0.95-2.89,2.04-3.98,3.3c-0.1,0.1-0.17,0.2-0.24,0.31
		c-1.97,2.18-3.27,4.9-4.25,8.23c0.27,0.92,1.33,3.84,5.24,7.11c0.14,0.1,0.27,0.2,0.41,0.31c8.44-1.87,18.71,1.43,34.22,8.16
		c1.36,0.58,2.69,1.22,3.98,1.87h0.03c18.06,0.31,26.84-5.07,30.65-8.64c3.5-3.27,5.31-7.35,5.1-11.43
		C231.41,112.26,229.74,109.23,226.72,106.68z"/>
	<path style="fill:#FAE373;" d="M234.98,115.18c-0.24-4.08-2.31-7.93-6.06-11.09c-6.33-5.38-16.84-8.5-28.81-8.78
		c9.9-6.43,16.4-13.91,18.74-21.7c1.7-5.54,1.09-10.99-1.7-15.27c-2.21-3.44-5.95-5.72-10.78-6.57c-8.16-1.5-18.81,1.05-29.29,6.77
		c5.34-10.54,7.21-20.24,5.34-28.17c-1.33-5.65-4.56-10.04-9.12-12.35c-3.64-1.87-7.99-1.97-12.62-0.31
		c-7.82,2.79-15.75,10.31-22.01,20.51c-0.65-11.8-3.84-21.16-9.42-27.08c-3.98-4.22-8.95-6.43-14.08-6.12
		c-4.08,0.2-7.93,2.28-11.09,6.02c-5.37,6.33-8.47,16.84-8.78,28.78c-6.43-9.9-13.91-16.36-21.7-18.71
		c-5.54-1.67-10.99-1.09-15.27,1.7c-3.44,2.21-5.72,5.95-6.57,10.78c-1.5,8.17,1.05,18.81,6.77,29.32
		c-10.55-5.34-20.24-7.25-28.17-5.38c-5.65,1.33-10.04,4.56-12.35,9.12c-1.87,3.64-1.97,7.99-0.31,12.62
		c2.79,7.83,10.31,15.75,20.51,21.98c-11.8,0.68-21.13,3.88-27.08,9.46c-4.22,3.98-6.4,8.98-6.12,14.08
		c0.2,4.08,2.28,7.92,6.02,11.09c6.36,5.38,16.87,8.47,28.81,8.78c-9.9,6.46-16.4,13.91-18.74,21.7c-1.67,5.54-1.09,10.99,1.7,15.27
		c2.21,3.43,5.95,5.71,10.78,6.6c1.53,0.27,3.16,0.41,4.83,0.41c7.31,0,15.92-2.55,24.46-7.18c-5.31,10.55-7.21,20.21-5.34,28.13
		c1.33,5.65,4.56,10.04,9.12,12.35c1.94,0.99,4.05,1.5,6.33,1.5c2.01,0,4.12-0.41,6.29-1.19c7.82-2.79,15.78-10.34,22.01-20.58
		c0.61,11.84,3.84,21.23,9.42,27.15c3.78,3.98,8.44,6.16,13.27,6.16h0.82c4.08-0.24,7.93-2.31,11.09-6.05
		c5.37-6.33,8.5-16.84,8.78-28.81c6.46,9.9,13.91,16.4,21.7,18.74c2.08,0.61,4.08,0.95,6.06,0.95c3.37,0,6.53-0.92,9.22-2.65
		c3.44-2.21,5.71-5.95,6.6-10.79c1.46-8.16-1.09-18.81-6.8-29.32c7.89,4.01,15.31,6.09,21.87,6.09c2.21,0,4.32-0.24,6.29-0.72
		c5.65-1.33,10.04-4.56,12.35-9.12c1.87-3.64,1.97-7.99,0.31-12.62c-2.79-7.82-10.31-15.75-20.51-21.98
		c11.77-0.68,21.13-3.91,27.08-9.46C233.04,125.29,235.22,120.29,234.98,115.18z M205.76,55.11c3.88,0.71,6.84,2.45,8.54,5.07
		c2.21,3.47,2.69,7.86,1.33,12.45c-1.53,5-6.43,14.05-22.25,22.83h-0.03c-1.46,0.07-2.89,0.2-4.39,0.37
		c-16.77,1.91-27.32,4.19-33.71,10.07h-0.03c-0.14-0.03-0.24-0.03-0.37-0.07c-5.1-0.82-7.52-2.86-8.2-3.54
		c-0.82-3.27-1.02-6.19-0.51-8.91c0.03-0.27,0.07-0.51,0.14-0.75c0.34-1.67,0.92-3.27,1.8-4.86c2.86-5.27,8.57-10.55,17.69-17.52
		c1.22-0.95,2.55-1.94,3.91-2.96c1.36-0.99,2.69-1.94,4.08-2.82c0-0.03,0.03-0.03,0.07-0.03C185.15,57.05,197.09,53.54,205.76,55.11
		z M148.51,118.14c0.03,0.34,0.61,4.15,5.24,8.47c-2.69,1.19-5.24,2.99-7.79,5.48l-0.37,0.58c-0.1,0.27-1.53,3.91,0.34,9.97
		c-2.93-0.34-6.06-0.07-9.49,0.85l-0.58,0.27c-0.27,0.2-3.33,2.65-4.73,8.84c-2.38-1.8-5.2-3.1-8.64-4.05l-0.31-0.1l-0.34,0.07
		c-0.34,0.03-4.15,0.61-8.47,5.24c-1.19-2.69-2.99-5.24-5.48-7.79l-0.58-0.37c-0.27-0.1-3.91-1.53-9.97,0.34
		c0.34-2.93,0.07-6.06-0.85-9.49l-0.27-0.58c-0.2-0.27-2.55-3.2-8.47-4.63c-0.1-0.03-0.24-0.07-0.37-0.1
		c0.07-0.1,0.17-0.2,0.24-0.34c1.67-2.31,2.89-5.03,3.81-8.3l0.1-0.31l-0.07-0.34c-0.03-0.31-0.61-4.08-5.1-8.33l-0.14-0.14
		c0.07-0.03,0.14-0.07,0.2-0.1c2.62-1.19,5.1-2.96,7.59-5.38l0.37-0.58c0.1-0.27,1.53-3.91-0.34-9.93c0.78,0.1,1.56,0.14,2.35,0.14
		c2.25,0,4.59-0.34,7.14-1.02l0.58-0.27c0.27-0.2,3.33-2.62,4.73-8.81c2.38,1.77,5.2,3.06,8.64,4.01l0.31,0.1l0.34-0.07
		c0.34-0.03,4.15-0.61,8.44-5.2c1.22,2.69,3.03,5.24,5.51,7.76l0.58,0.37c0.17,0.07,1.6,0.61,4.05,0.61c1.56,0,3.54-0.2,5.92-0.95
		c-0.34,2.93-0.07,6.02,0.85,9.49l0.27,0.58c0.2,0.27,2.62,3.3,8.81,4.69c-1.77,2.38-3.06,5.24-4.01,8.67l-0.1,0.31L148.51,118.14z
		 M138.78,45.07c0-0.03,0-0.03,0-0.03c6.16-12.11,14.73-21.16,23.03-24.12c3.74-1.33,7.18-1.29,9.93,0.14
		c3.67,1.87,6.29,5.44,7.38,10.1c1.19,5.1,1.46,15.34-7.82,30.82c-0.03,0.03-0.03,0.07-0.03,0.07c-1.22,0.78-2.45,1.63-3.64,2.52
		c-13.57,10.1-21.57,17.35-24.15,25.58c-0.31,0.14-0.61,0.24-0.88,0.34c-4.56,1.6-7.48,1.09-8.37,0.85
		c-2.11-2.21-3.67-4.39-4.63-6.74c-0.2-0.44-0.41-0.92-0.54-1.4c-0.54-1.63-0.82-3.33-0.85-5.2c-0.17-5.99,2.14-13.4,6.57-23.98
		c0,0,0,0,0-0.03c0.61-1.43,1.22-2.89,1.9-4.46C137.32,48,138.03,46.5,138.78,45.07z M106.67,13.27c2.55-3.03,5.58-4.7,8.67-4.87
		h0.65c3.88,0,7.69,1.8,10.78,5.1c3.57,3.81,8.95,12.55,8.64,30.62v0.03c-0.65,1.29-1.29,2.65-1.87,4.01
		c-6.74,15.51-10.04,25.79-8.16,34.22c-0.41,0.51-0.82,0.99-1.22,1.43c-2.86,3.1-5.31,3.98-6.16,4.22
		c-2.52-0.71-4.66-1.63-6.46-2.82c-0.75-0.51-1.46-1.05-2.11-1.63c-1.26-1.12-2.35-2.45-3.3-4.01c-3.16-5.1-4.86-12.69-6.33-24.08
		c0,0-0.03,0-0.03-0.03c-0.2-1.53-0.37-3.13-0.58-4.83c-0.17-1.63-0.31-3.27-0.37-4.86v-0.03c-0.03-0.03-0.03-0.03,0-0.03v-0.07
		C98.06,32.11,100.95,20,106.67,13.27z M55.1,34.22c0.71-3.88,2.45-6.84,5.07-8.54c2.14-1.4,4.69-2.07,7.38-2.07
		c1.63,0,3.33,0.24,5.07,0.75c5,1.53,14.05,6.43,22.79,22.21l0.03,0.03c0.07,1.46,0.2,2.93,0.37,4.42
		c1.9,16.77,4.18,27.32,10.07,33.71v0.03c-0.17,1.12-0.37,2.11-0.65,2.99c-0.95,3.33-2.42,5.03-2.96,5.58
		c-2.08,0.51-3.95,0.78-5.78,0.78c-1.33,0.03-2.59-0.1-3.84-0.37c-1.67-0.37-3.3-0.95-4.9-1.84c-5.27-2.86-10.55-8.57-17.52-17.69
		c-0.95-1.23-1.94-2.55-2.96-3.91c-0.99-1.36-1.94-2.69-2.82-4.08C57.07,54.87,53.53,42.9,55.1,34.22z M20.91,78.17
		c-1.33-3.74-1.29-7.18,0.14-9.93c1.87-3.67,5.44-6.26,10.1-7.38c1.43-0.31,3.27-0.58,5.51-0.58c5.72,0,14.15,1.73,25.31,8.4
		c0.03,0.03,0.07,0.03,0.07,0.03c0.78,1.22,1.63,2.45,2.52,3.64c10.07,13.61,17.32,21.6,25.58,24.19v0.03
		c0.61,1.53,0.99,2.86,1.19,4.05c0.51,2.69,0.17,4.46,0,5.14c-1.29,1.22-2.55,2.28-3.84,3.09c-1.39,0.92-2.82,1.63-4.32,2.11
		c-1.6,0.51-3.33,0.78-5.17,0.82c-5.99,0.17-13.4-2.14-23.98-6.57c0,0,0,0-0.03,0c-1.43-0.61-2.89-1.22-4.46-1.91
		c-1.53-0.65-3.03-1.36-4.46-2.11h-0.03C32.92,95.05,23.87,86.47,20.91,78.17z M13.26,133.32c-3.03-2.55-4.69-5.55-4.86-8.68
		c-0.2-4.08,1.6-8.16,5.1-11.43c3.71-3.5,12.08-8.64,29.19-8.64c0.48,0,0.99,0,1.5,0.03c0,0,0,0,0.03,0
		c1.29,0.65,2.59,1.26,3.95,1.84c12.65,5.48,21.81,8.71,29.36,8.71c1.7,0,3.33-0.17,4.86-0.54h0.03c1.53,1.22,2.65,2.45,3.47,3.5
		c1.46,1.84,1.97,3.3,2.14,3.91c-0.44,1.5-0.95,2.89-1.6,4.15c-0.75,1.67-1.7,3.09-2.86,4.39c-1.12,1.26-2.45,2.35-4.01,3.34
		c-5.1,3.13-12.69,4.83-24.08,6.29c0,0,0,0.03-0.03,0.03c-1.53,0.2-3.13,0.37-4.83,0.58c-1.63,0.17-3.27,0.31-4.86,0.37
		C32.17,141.92,20.02,139.03,13.26,133.32z M34.21,184.89c-3.88-0.71-6.84-2.45-8.54-5.07c-2.21-3.44-2.69-7.86-1.33-12.45
		c1.53-5,6.43-14.05,22.25-22.83c1.46-0.07,2.93-0.2,4.42-0.38c16.77-1.9,27.32-4.18,33.71-10.03c1.94,0.27,3.47,0.75,4.73,1.22
		c2.25,0.89,3.44,1.94,3.88,2.35c0.41,1.7,0.68,3.27,0.75,4.8c0.1,1.7,0,3.3-0.34,4.83c-0.37,1.67-0.95,3.3-1.84,4.9
		c-2.86,5.27-8.57,10.55-17.69,17.52c-1.22,0.95-2.55,1.94-3.91,2.96c-1.33,0.99-2.69,1.94-4.08,2.82
		C54.86,182.91,42.92,186.45,34.21,184.89z M101.19,194.92v0.03c-6.16,12.11-14.73,21.16-23.03,24.12
		c-3.74,1.36-7.18,1.29-9.93-0.14c-3.67-1.87-6.26-5.44-7.38-10.1c-1.19-5.1-1.43-15.38,7.89-30.89c1.22-0.78,2.42-1.63,3.61-2.52
		c13.57-10.07,21.57-17.32,24.15-25.55c1.56-0.61,2.99-0.99,4.18-1.19c1.05-0.2,1.94-0.27,2.69-0.27c1.16,0,1.97,0.14,2.38,0.24
		c1.5,1.56,2.69,3.1,3.61,4.69h0.03c0.65,1.12,1.16,2.28,1.56,3.47c0.27,0.82,0.48,1.67,0.58,2.55c0.07,0.31,0.1,0.58,0.14,0.89
		c0.03,0.07,0.03,0.1,0,0.17c0.07,0.51,0.1,1.02,0.1,1.56c0.17,5.99-2.14,13.4-6.57,23.98c0,0,0,0,0,0.03
		c-0.61,1.43-1.22,2.89-1.9,4.46C102.65,192,101.94,193.49,101.19,194.92z M133.3,226.73c-2.55,3.03-5.54,4.69-8.67,4.86
		c-4.08,0.17-8.16-1.6-11.43-5.1c-3.57-3.81-8.95-12.59-8.64-30.68v-0.03c0.68-1.29,1.29-2.59,1.87-3.95
		c6.74-15.51,10.04-25.79,8.16-34.22c0.75-0.95,1.5-1.73,2.21-2.42c2.45-2.31,4.46-3.03,5.2-3.23c2.55,0.75,4.69,1.67,6.57,2.93
		c0.71,0.48,1.36,0.99,1.97,1.53c-0.58,6.57,0.68,16.06,6.53,29.46c1.29,2.96,2.65,5.75,4.08,8.37
		C141.91,207.81,139.02,219.96,133.3,226.73z M184.87,205.77c-0.71,3.88-2.45,6.84-5.07,8.54c-3.44,2.21-7.86,2.69-12.45,1.33
		c-5-1.53-14.05-6.43-22.83-22.25c-1.46-2.62-2.93-5.58-4.32-8.84l-0.03-0.03c-4.56-10.48-6.19-18.34-6.33-24.08
		c-0.07-1.97,0.03-3.67,0.24-5.17c0-0.03,0-0.03,0-0.03c0.1-0.75,0.24-1.43,0.37-2.04c0.95-3.98,2.65-5.95,3.23-6.53
		c2.99-0.75,5.71-0.99,8.3-0.61c0.44,0.03,0.88,0.1,1.33,0.2c1.67,0.37,3.3,0.95,4.9,1.84c5.27,2.86,10.55,8.57,17.52,17.69
		c0.95,1.23,1.94,2.55,2.96,3.91c0.99,1.33,1.94,2.69,2.82,4.08C182.9,185.12,186.44,197.1,184.87,205.77z M219.06,161.82
		c1.36,3.74,1.29,7.18-0.14,9.93c-1.84,3.67-5.44,6.29-10.1,7.38c-5.1,1.19-15.38,1.43-30.89-7.89c-0.78-1.23-1.63-2.42-2.52-3.61
		c-10.07-13.61-17.32-21.6-25.58-24.15v-0.03c-0.14-0.37-0.27-0.71-0.41-1.05c-1.53-4.42-0.99-7.28-0.78-8.17
		c2.52-2.38,4.93-4.05,7.65-5c0.14-0.07,0.31-0.1,0.48-0.17c1.63-0.54,3.33-0.82,5.2-0.85c5.99-0.21,13.4,2.11,23.98,6.56H186
		c1.43,0.61,2.93,1.22,4.46,1.91c1.53,0.68,3.06,1.36,4.49,2.11C207.05,144.95,216.1,153.52,219.06,161.82z M195.83,135.42h-0.03
		c-1.29-0.65-2.62-1.29-3.98-1.87c-15.51-6.74-25.79-10.04-34.22-8.16c-0.14-0.1-0.27-0.2-0.41-0.31c-3.91-3.27-4.97-6.19-5.24-7.11
		c0.99-3.33,2.28-6.05,4.25-8.23c0.07-0.1,0.14-0.2,0.24-0.31c1.09-1.26,2.42-2.35,3.98-3.3c5.1-3.16,12.69-4.87,24.08-6.33
		c0,0,0-0.03,0.03-0.03c0.03,0,0.03,0,0.07,0c1.5-0.2,3.1-0.37,4.76-0.58c1.63-0.17,3.23-0.31,4.83-0.37h0.03
		c13.57-0.75,25.72,2.14,32.49,7.86c3.03,2.55,4.69,5.58,4.86,8.67c0.2,4.08-1.6,8.16-5.1,11.43
		C222.67,130.36,213.89,135.73,195.83,135.42z"/>
</g>
</svg>
