<svg id="레이어_2" data-name="레이어 2" xmlns="http://www.w3.org/2000/svg" viewBox="0 0 250 250"><defs><style>.cls-1{fill:#85d598;}.cls-2{fill:#92e0a3;}.cls-3{fill:#b8f4cd;}.cls-4{fill:#62ba6e;}.cls-5{fill:#a6ecc2;}.cls-6{fill:#74c485;}.cls-7{fill:#abefc6;}.cls-8{fill:#68c171;}.cls-9{fill:#f5f3ba;}.cls-10{fill:#a9eda2;}</style></defs><polygon class="cls-1" points="102.65 58.57 106.66 95.42 125.22 96.73 125.22 58.57 102.65 58.57"/><polygon class="cls-2" points="141.98 81.98 144.25 58.57 125.22 58.57 125.22 96.73 139.47 97.74 141.98 81.98"/><polygon class="cls-3" points="74.95 82.71 43.32 118.18 75.65 153 80.05 84.32 74.95 82.71"/><polygon class="cls-4" points="175.05 82.71 206.68 118.18 174.35 153 169.95 84.32 175.05 82.71"/><rect class="cls-5" x="74.95" y="82.71" width="49.45" height="108.72"/><rect class="cls-1" x="124.4" y="82.71" width="50.81" height="108.72"/><polygon class="cls-6" points="132.12 81.92 102.65 58.57 91.92 83.72 104.73 102.74 121.59 82.64 126.66 82.55 132.12 81.92"/><polygon class="cls-7" points="102.65 58.57 91.92 82.62 104.73 97.22 121.13 80.13 102.65 58.57"/><polygon class="cls-5" points="144.25 58.57 155.06 82.62 141.06 97.22 123.56 80.13 143.01 58.58 144.25 58.57"/><polygon class="cls-8" points="144.25 58.57 154.98 82.62 142.16 97.22 125.77 80.13 144.25 58.57"/><rect class="cls-9" x="132.22" y="106.41" width="36.76" height="8.23"/><path class="cls-9" d="M132.22,132.58a10.94,10.94,0,0,0,10.94,10.94h14.1A11.73,11.73,0,0,0,169,131.79V122H132.22Z"/><rect class="cls-10" x="132.22" y="114.64" width="36.76" height="7.35"/><rect class="cls-9" x="81.54" y="106.41" width="36.76" height="8.23"/><path class="cls-9" d="M81.54,132.58a10.94,10.94,0,0,0,10.94,10.94h14.09a11.73,11.73,0,0,0,11.73-11.73V122H81.54Z"/><rect class="cls-10" x="81.54" y="114.64" width="36.76" height="7.35"/></svg>