<?xml version="1.0" encoding="utf-8"?>
<!-- Generator: Adobe Illustrator 24.1.1, SVG Export Plug-In . SVG Version: 6.00 Build 0)  -->
<svg version="1.1" id="Layer_1" xmlns="http://www.w3.org/2000/svg" xmlns:xlink="http://www.w3.org/1999/xlink" x="0px" y="0px"
	 viewBox="0 0 960 540" style="enable-background:new 0 0 960 540;" xml:space="preserve">
<path style="fill:#666666;" d="M0,0v540h960V0H0z M394.87,334.78c-1.69,4.2-10.61,6.05-23.9,6.24
	c-47.1,0.67-149.05-19.5-178.18-29.4c-37.31-12.7-56.97-30.07-63.86-62.49c-5.23-24.63,72.27-36.41,109.77-40.63
	c0.82-0.09,1.63-0.14,2.44-0.15c9.52-0.14,18.53,5.18,22.65,13.47c8.98,18.04,27.35,43.12,42.4,62.63
	c9.58,12.45,30.08,15.44,48.89,15.17c20.57-0.29,39.11-4.49,39.11-4.49S402.55,315.68,394.87,334.78z"/>
<path style="fill:#FFFFFF;" d="M704.75,317.82c32.62-11.84,64.87-24.85,77.37-31.21c2.35,0.4,4.68,0.56,6.96,0.52
	c22.65-0.32,50.47-30.28,50.47-30.28l19.4,51.33c0,0-104.01,36.02-135.38,36.47c-9.42,0.13-15.17-2.57-14.18-9.83
	C710.07,330.07,708.25,324.27,704.75,317.82z"/>
<path style="fill:#FFFFFF;" d="M580.51,237.88c-1.58-1.9-3.92-2.93-6.3-2.9c-0.88,0.01-1.77,0.17-2.63,0.49
	c-13.33,4.83-31.82,12.51-44.29,21.7l-0.42,0.32c-2.34,1.99-22.93,20.03-20.26,40.3c1.37,10.38,8.47,19.36,21.05,26.68
	c1.02,0.6,2.02,1.17,3.07,1.69c17.55,9.27,38.63,12.76,61.08,12.44c30.89-0.44,64.36-8.09,94.69-17.79
	c4.32,10.61,1.04,16.66,1.04,16.66s-122.42,36.35-146.53,36.69c-2.65,0.04-4.12-0.36-4.1-1.29c0.21-9.35-62.64-98.03-62.64-98.03
	l113.61-51.96c0,0,36.67,39.91,73.08,68.24c0.78,0.62,1.5,1.2,2.23,1.8c-20.06,3.87-39.19,6.43-55.06,6.66
	c-14.2,0.2-25.78-1.46-33.06-5.74c-4.65-2.74-7.21-6.44-7.82-11.31c-1.83-14.87,6.28-27.9,13.38-36.23
	C582.72,243.86,582.67,240.49,580.51,237.88z"/>
<path style="fill:#FFFFFF;" d="M671.65,290.75c-22.2-25.12-52.03-51.48-64.16-64.76c-3.59-3.95-5.74-6.22-5.74-6.22l41.12-10.33
	c0.43-0.14,0.94-0.21,1.53-0.22c13.9-0.2,67.21,42.58,100.82,62.04C725.94,277.28,694.18,285.5,671.65,290.75z"/>
<path style="fill:#FFFFFF;" d="M670.51,166.82c5.15,1.1,10.43,1.71,15.89,1.66c21.04-0.21,41.57-5.33,61.99-9.96
	c13.62-3.09,51.95-10.12,50.83-30.52c-1.93-35.07,18.95-41.92,30.83-38.96c11.88,2.96,25.71,144.5,5.75,152.16
	c-7.49,7.84-26.23,26.16-46.51,26.45c-12.77,0.18-27.24-3.47-42.37-13.91c-30.97-21.37-77.96-48.07-102.38-55.12
	C647.36,190.61,659.17,177.82,670.51,166.82z"/>
<path style="fill:#FFFFFF;" d="M588.83,61.42c1.12-0.49,2.27-0.73,3.43-0.74c19.02-0.27,42.93,59.12,49.24,71.06
	c3.27,6.16,3.31,8.63,1.29,8.66c-2.13,0.03-6.57-2.66-11.94-6.58c-3.52-2.57-8.49-3.73-14.23-3.65
	c-11.27,0.16-25.53,5.1-37.77,13.52c-12.29,8.47-17.96,9.93-20.38,9.97c-1.21,0.02-1.61-0.33-1.61-0.33S536,143.08,525.2,129.61
	c-7-8.76-4.75-20.95-7.03-25.49C512.34,92.64,588.83,61.42,588.83,61.42z"/>
<path style="fill:#FFFFFF;" d="M566.58,194.28c-0.28,0.19-0.65,0.28-1.1,0.29c-6.82,0.1-32.01-19.81-39.27-25.64
	c-1.26-1.03-2.05-2.44-2.22-3.92l-1.67-14.5c-0.4-3.54,2.55-6.05,5.85-6.09c1.41-0.02,2.88,0.4,4.18,1.38
	c14.56,10.95,38.24,28.82,43.33,32.95C583.14,184.77,571.81,190.72,566.58,194.28z"/>
<path style="fill:#FFFFFF;" d="M474.55,118.08c4.42-5.42,12.46-12.84,19.03-12.94c1.76-0.02,3.41,0.48,4.86,1.68
	c0,0,30.71,93.65,25.37,102.76c-2.68,4.56-6,7.19-9.08,7.23c-3.07,0.04-5.9-2.5-7.59-8.31
	C503.74,196.91,468.92,124.95,474.55,118.08z"/>
<path style="fill:#FFFFFF;" d="M457.08,130.39c2.29-2.92,4.34-3.87,6.02-3.9c2.98-0.04,4.81,2.84,4.81,2.84l8.99,30.15
	c0,0-12.98-12.61-23.2-14.63C443.5,142.84,450.75,138.51,457.08,130.39z"/>
<path style="fill:#FFFFFF;" d="M435.18,145.88c3.29-0.05,6.06,0.23,6.91,0.69c0,0,28.04,5.9,31.92,23.4
	c3.88,17.47,9.08,51.12,4.87,52.4c-0.98,0.3-2.57,0.44-4.42,0.46c-6.12,0.09-15.2-0.99-15.2-0.99s-25.34-57.28-36.26-66.79
	C415.18,148.23,426.84,146,435.18,145.88z"/>
<path style="fill:#FFFFFF;" d="M400.64,163.94l8.8-4.33c0.81-0.39,1.66-0.59,2.49-0.6c1.99-0.03,3.89,0.98,4.92,2.77l30.49,53.76
	l-11.43,15.89l-37.72-59.28C396.39,169.32,397.54,165.47,400.64,163.94z"/>
<path style="fill:#FFFFFF;" d="M364.06,161.08c0.12,0,0.25,0.01,0.38,0.02c1.41,0.2,4.13,0.23,6.9,0.19
	c4.35-0.06,8.88-0.29,8.88-0.29s53.35,56.39,43.62,86.36c0,0-4.57,2.14-9.65,2.21c-3.83,0.05-7.95-1.07-10.6-5.19
	c-6.18-9.58-43.22-76.31-43.22-76.31S360.78,161.13,364.06,161.08z"/>
<path style="fill:#FFFFFF;" d="M335.02,170.9c0.03,0,0.07,0,0.1,0c0.04,0,0.08,0,0.12,0c2.68-0.04,4.94-0.87,6.89-1.71
	c1.97-0.83,3.61-1.66,5.05-1.68c1.28-0.02,2.4,0.6,3.44,2.44c3.36,5.98,3.36,5.98,3.36,5.98s35.08,79.75,31.31,86.17
	c-1.33,2.29-4.35,3.06-7.7,3.11c-6.08,0.09-13.23-2.23-13.23-2.23l-34.28-83.52C330.08,179.47,327.25,171.01,335.02,170.9z"/>
<path style="fill:#FFFFFF;" d="M275.35,200.54c11.03-5.41,27.16-8.81,27.16-8.81s17.81,60.63,35.5,69.29
	c17.72,8.66,34.06,10.26,34.06,10.26s6.7,5.48,12.37,5.4c3.36-0.05,6.36-2.05,7.39-8.29c2.8-16.79-6.08-15.15-0.25-16.99
	c0.5-0.16,1.04-0.23,1.62-0.24c6.21-0.09,16.87,7.73,24.88,10.02c0.34,0.1,0.71,0.14,1.08,0.14c9.1-0.13,26.32-29.9,26.32-29.9
	s8.49-3.39,12.45-3.45c0.46-0.01,0.86,0.03,1.18,0.13c3.01,0.88,10.64,9.83,10.64,9.83s23.43-0.29,24.25-11.06
	c0.85-10.78-1.82-14.31-1.82-14.31l9.08-2.08l6.86,8.4l21.15,2.04l7.17-22.17l9.5-6.24l23.3,13.02L587.35,187l-6.72-12.5
	c-3.81-7.1-1.11-15.44,6.18-18.98c8.55-4.15,20.18-8.64,30.79-8.79c5.14-0.07,10.03,0.87,14.21,3.36
	c7.08,4.21,14.27,8.13,21.7,11.27c-13.02,15.63-19.16,35.48-19.16,35.48c-1.53,0.02-2.78,0.27-3.73,0.75
	c-19.25,9.91-39.84,13.76-59.3,22.55c-21.7,9.8-43.23,19.92-65.09,29.4c-44.55,19.31-95.3,38.7-125.18,39.12
	c-0.92,0.01-1.81,0.01-2.69-0.02c-58.79-1.55-60.26-3.05-70.25-18.16C298.13,255.39,264.3,205.95,275.35,200.54z"/>
<path style="fill:#FFFFFF;" d="M108.54,262.2c1.2-1.34,2.25-2.45,3.08-3.32C169.5,363.57,365.3,358.07,396.91,362.5
	c1.06,0.15,2.06,0.21,3.03,0.2c27.96-0.4,18.9-66.04,18.9-66.04l37.47-15.31c0,0,14.51,21.01,38.93,55.67
	c13.72,19.43,24.91,43.39,24.91,43.39s-25.73,12.96-74.73,25.04c-16.76,4.13-36.78,6.18-58.67,6.49
	c-111.25,1.59-270.37-41.72-291.18-84.94C87.66,310.52,97.09,274.76,108.54,262.2z"/>
<path style="fill:#FFFFFF;" d="M872.44,397.68c-8.12,28.58-84.91,33.52-122.62,34.06c-31.58,0.45-65.13-4.2-86.62-6.03
	c-2.29-0.2-4.79-0.27-7.5-0.23c-53.04,0.76-183.29,44.26-276.67,47.84c-2.31,0.09-4.64,0.15-7,0.18
	c-96.65,1.38-232.56-42.21-255.84-58.39c-23.85-16.58-31.15-72.29-31.15-72.29c64.6,46.47,49.02,39.27,147.05,64.45
	c56.92,14.63,104.93,19.35,144.97,18.77c84.32-1.2,133.26-25.88,155.51-30.95c12.18-2.77,127.97-33.76,170.97-34.37
	c3.6-0.05,6.7,0.11,9.18,0.52c2.03,0.34,4.29,0.48,6.75,0.44c36.19-0.52,141.09-39.88,141.09-39.88S887.38,345.2,872.44,397.68z"/>
<path style="fill:#FFFFFF;" d="M673.11,317.72c-30.3,8.84-56.95,13.43-79.84,13.75c-23.97,0.34-43.8-3.99-59.31-13.01
	c-10.17-5.91-15.85-12.86-16.87-20.66c-2.22-16.81,16.91-33.2,17.74-33.87c10.68-7.84,26.35-14.66,38.72-19.33
	c-7.39,9.43-14.73,23.13-12.76,38.95c0.93,7.41,4.93,13.23,11.97,17.36c8.93,5.24,22.53,7.19,38.57,6.96
	c18.4-0.26,40.02-3.4,61.5-7.73c0,0,76.67-19.55,91.03-24.13c2.36,1.28,4.53,2.43,6.5,3.4
	C739.35,294.64,706.83,307.87,673.11,317.72z"/>
<path style="fill:#CBCBCB;" d="M643.78,140.03c-0.23,0.25-0.57,0.37-1,0.37c-2.14,0.03-6.57-2.66-11.94-6.58
	c-3.53-2.57-8.49-3.73-14.24-3.65c-11.26,0.16-25.53,5.1-37.77,13.52c-12.29,8.47-17.96,9.94-20.38,9.97
	c-1.21,0.02-1.61-0.33-1.61-0.33S536,143.09,525.2,129.62c-7-8.77-4.75-20.96-7.03-25.49c-0.35-0.69-0.4-1.46-0.19-2.28
	c-0.06-0.01-0.09-0.01-0.09-0.01l-19.29,5.51c2.44,7.47,30.31,93.53,25.2,102.24c-2.68,4.56-6,7.19-9.08,7.24
	c-3.07,0.04-5.9-2.51-7.59-8.32c-3.05-10.42-31.5-69.66-33.11-86.49c-2.34,2.26-4.46,4.76-6.06,7.49l8.95,29.97
	c0,0-12.98-12.61-23.2-14.63c-2.06-0.41-3.41-0.91-4.2-1.5c-2.66,1.26-5.46,2.32-8.28,2.95c0.37,0.08,0.66,0.17,0.85,0.27
	c0,0,28.04,5.9,31.92,23.4c3.88,17.48,9.07,51.12,4.87,52.4c-0.97,0.3-2.56,0.44-4.42,0.46c-6.13,0.09-15.21-0.99-15.21-0.99
	s-25.33-57.28-36.25-66.79c-0.64-0.56-1.15-1.08-1.54-1.58c-0.68,0.52-4.68,3.54-8.08,5.71c1.43,0.35,2.7,1.25,3.48,2.6l30.48,53.76
	l-11.43,15.89l-37.71-59.28c-0.44-0.69-0.7-1.45-0.8-2.22l-9.99-0.83c14.2,16.68,43.9,55.26,36.43,78.27c0,0-4.57,2.14-9.65,2.21
	c-3.83,0.06-7.95-1.07-10.6-5.19c-5.71-8.87-37.9-66.74-42.63-75.26l-9.46,2.36c2.49,4.44,2.49,4.44,2.49,4.44
	s35.08,79.75,31.31,86.18c-1.33,2.29-4.36,3.06-7.71,3.11c-6.08,0.09-13.22-2.23-13.22-2.23l-34.28-83.52c0,0-0.07-0.22-0.17-0.6
	l-5.04,3.45c0.03,0.02,0.04,0.03,0.04,0.03l24.43,60.76l-13.72,9.62l-25.69-63.79l-7.52,2.81c0.06-0.01,0.1-0.02,0.1-0.02
	s17.81,60.64,35.51,69.29c17.72,8.66,34.06,10.26,34.06,10.26s6.7,5.48,12.37,5.4c3.36-0.05,6.36-2.05,7.39-8.29
	c2.79-16.79-6.08-15.15-0.25-16.99c0.5-0.16,1.04-0.24,1.62-0.25c6.2-0.08,16.87,7.73,24.88,10.03c0.34,0.09,0.71,0.14,1.08,0.13
	c9.1-0.13,26.32-29.9,26.32-29.9s8.49-3.39,12.44-3.44c0.47-0.01,0.87,0.03,1.18,0.13c3.01,0.88,10.65,9.83,10.65,9.83
	s23.43-0.29,24.25-11.07c0.85-10.78-1.82-14.3-1.82-14.3l9.08-2.08l6.86,8.39l21.15,2.04l7.17-22.17l9.49-6.24l23.3,13.03
	l18.11-18.52l-6.71-12.51c-3.81-7.1-1.11-15.43,6.17-18.98c8.55-4.15,20.19-8.64,30.79-8.79c5.13-0.07,10.03,0.87,14.21,3.36
	c3.81,2.27,7.66,4.45,11.56,6.47C643.69,153.99,644.72,144.8,643.78,140.03z M566.58,194.29c-0.28,0.18-0.65,0.28-1.1,0.28
	c-6.82,0.1-32.01-19.81-39.26-25.64c-1.26-1.03-2.05-2.43-2.22-3.92l-1.67-14.5c-0.4-3.54,2.55-6.05,5.86-6.1
	c1.4-0.02,2.87,0.41,4.18,1.39c14.56,10.95,38.24,28.82,43.33,32.95C583.14,184.77,571.8,190.72,566.58,194.29z"/>
<path style="fill:#CBCBCB;" d="M858.42,308.37c-8.02,2.76-104.79,35.86-134.84,36.29c-9.42,0.13-15.18-2.58-14.18-9.84
	c0.67-4.74-1.15-10.55-4.65-17c32.62-11.84,64.87-24.85,77.37-31.2c2.35,0.39,4.67,0.56,6.96,0.52
	c21.05-0.3,46.55-26.18,50.07-29.85v-0.04c0,0,2.04-15.89,2.57-24.53c-1.5,4.53-3.46,7.53-5.93,8.48
	c-7.49,7.84-26.23,26.16-46.5,26.45c-12.77,0.18-27.24-3.47-42.37-13.9c-30.97-21.37-77.96-48.07-102.38-55.12
	c2.82-8.01,14.62-20.81,25.97-31.81c0.12,0.02,0.23,0.05,0.35,0.07l-0.6-0.45c0,0-9.91-3.79-16.78-5.05
	c-13,15.63-19.13,35.45-19.13,35.45c-1.53,0.02-2.78,0.27-3.73,0.75c-19.24,9.92-39.84,13.76-59.29,22.55
	c-21.7,9.81-43.23,19.92-65.1,29.4c-44.55,19.3-95.29,38.7-125.18,39.12c-0.91,0.01-1.81,0.01-2.68-0.01
	c-58.79-1.56-60.26-3.05-70.25-18.17c-9.97-15.07-43.71-64.37-32.82-69.91l-0.74,0.24l-30.65,7.65c8.47,0.81,16.17,5.87,19.88,13.35
	c8.98,18.04,27.35,43.12,42.4,62.63c9.58,12.45,30.09,15.44,48.9,15.17c20.56-0.29,39.11-4.49,39.11-4.49s8.34,20.56,0.67,39.66
	c-1.7,4.21-10.62,6.05-23.9,6.24c-47.1,0.68-149.05-19.49-178.18-29.4c-37.31-12.7-56.97-30.07-63.86-62.49
	c-0.36-1.68-0.33-3.29,0.05-4.85c-17.09,13.08-17.71,14.86-17.71,14.86l-0.09,0.2c0.16-0.16,0.3-0.31,0.44-0.45
	c57.87,104.69,253.68,99.18,285.29,103.61c1.05,0.15,2.06,0.21,3.03,0.2c27.96-0.4,18.89-66.04,18.89-66.04l37.47-15.3
	c0,0,14.51,21.01,38.94,55.67c13.72,19.43,24.91,43.39,24.91,43.39s-25.73,12.97-74.73,25.04c-16.76,4.13-36.78,6.18-58.66,6.49
	c-111.26,1.59-270.38-41.72-291.18-84.94c-3.08-6.4-3.54-15.72-2.27-25.44l-0.05,0.12c0,0-8.31,19.6-8.12,41.22
	c64.48,46.38,48.97,39.2,146.94,64.38c56.92,14.62,104.93,19.34,144.97,18.77c84.31-1.2,133.25-25.88,155.5-30.95
	c12.19-2.76,127.97-33.75,170.97-34.36c3.6-0.06,6.7,0.11,9.18,0.52c2.03,0.33,4.29,0.47,6.75,0.44
	c36.19-0.52,141.09-39.88,141.09-39.88s0.03,0.02,0.08,0.07L858.42,308.37z M642.87,209.45c0.43-0.14,0.94-0.21,1.52-0.22
	c13.9-0.19,67.21,42.58,100.82,62.04c-19.27,6.01-51.03,14.23-73.56,19.48c-22.21-25.12-52.03-51.48-64.16-64.75
	c-3.59-3.96-5.74-6.22-5.74-6.22L642.87,209.45z M687.52,337.48c0,0-122.41,36.35-146.53,36.69c-2.65,0.04-4.11-0.36-4.1-1.29
	c0.21-9.35-62.63-98.03-62.63-98.03l113.61-51.96c0,0,36.67,39.9,73.07,68.24c0.78,0.62,1.51,1.2,2.23,1.8
	c-20.06,3.87-39.19,6.43-55.06,6.66c-14.2,0.2-25.78-1.47-33.06-5.74c-4.65-2.74-7.22-6.44-7.82-11.32
	c-1.84-14.86,6.28-27.9,13.38-36.22c2.1-2.45,2.06-5.82-0.1-8.42c-1.59-1.91-3.93-2.94-6.31-2.9c-0.88,0.01-1.77,0.17-2.62,0.48
	c-13.33,4.83-31.83,12.52-44.3,21.7l-0.42,0.33c-2.34,1.99-22.93,20.03-20.26,40.3c1.37,10.38,8.47,19.36,21.05,26.68
	c1.02,0.6,2.02,1.17,3.07,1.69c17.55,9.27,38.63,12.76,61.08,12.44c30.89-0.44,64.35-8.09,94.68-17.79
	C690.8,331.43,687.52,337.48,687.52,337.48z M673.11,317.73c-30.3,8.84-56.96,13.42-79.84,13.75c-23.97,0.34-43.8-3.99-59.31-13.01
	c-10.17-5.91-15.85-12.86-16.87-20.66c-2.22-16.81,16.91-33.2,17.73-33.87c10.68-7.84,26.36-14.66,38.73-19.33
	c-7.39,9.43-14.73,23.14-12.77,38.95c0.93,7.41,4.94,13.24,11.97,17.36c8.93,5.24,22.53,7.19,38.57,6.97
	c18.4-0.27,40.02-3.4,61.5-7.74c0,0,76.67-19.55,91.03-24.12c2.36,1.28,4.53,2.42,6.51,3.39
	C739.35,294.64,706.82,307.87,673.11,317.73z"/>
<path style="fill:#FFFFFF;" d="M324.93,182.35c0,0-0.17-0.12-0.51-0.26c-0.1-0.04-0.21-0.07-0.33-0.11
	c-0.19-0.06-0.4-0.12-0.65-0.16c-0.35-0.06-0.76-0.11-1.23-0.1c-1.8,0.03-4.47,0.72-8,3.4c-1.82,1.38-4.3,1.4-4.52,2.64
	c-0.02,0.06-0.02,0.13-0.02,0.2c0,0.06,0.01,0.12,0.02,0.18c0.01,0.07,0.03,0.15,0.05,0.22c0.02,0.06,0.03,0.12,0.06,0.19
	c0.02,0.06,0.05,0.12,0.08,0.19l25.76,63.99l13.7-9.62L324.93,182.35z"/>
</svg>
