<?xml version="1.0" encoding="utf-8"?>
<!-- Generator: Adobe Illustrator 26.5.0, SVG Export Plug-In . SVG Version: 6.00 Build 0)  -->
<svg version="1.1" id="레이어_1" xmlns="http://www.w3.org/2000/svg" xmlns:xlink="http://www.w3.org/1999/xlink" x="0px"
	 y="0px" viewBox="0 0 150 240" style="enable-background:new 0 0 150 240;" xml:space="preserve">
<g>
	<path style="fill:#F4BA76;" d="M107.7,149.5c-0.6-3.1-1.2-6.3-2-9.3c-1.3-5-3.7-9.6-5.3-14.5c-0.7-2-1.3-18.3-3.1-18.3
		c-0.6,0-22.3,0-22.3,0s-21.7,0-22.3,0c-1.8,0-2.4,16.3-3.1,18.3c-1.7,5.1-3.8,10-5.3,15.2c-1.6,5.1-2.1,10.5-3.4,15.7
		c-1.6,6.3-3.4,8.8-2.3,15.3c0.2,1.1,10.9,2.5,11.8,2.7c14.4,2.5,27.5,3.1,42,1.1c1.4-0.2,18.8-1.9,19.1-3.8
		c1.1-6.5-0.8-8.7-2.2-14.9C108.7,154.3,108.2,151.9,107.7,149.5z"/>
	<path d="M75.2,177.9c-8,0-16.1-0.8-25.1-2.4c-0.1,0-0.4-0.1-0.8-0.1c-11.1-1.6-11.8-2.4-11.9-3.5c-0.9-5.1,0-8,1.1-11.6
		c0.4-1.2,0.8-2.6,1.2-4.2c0.5-2.1,0.9-4.4,1.3-6.5c0.6-3,1.1-6.2,2.1-9.2c0.9-3,2-5.9,3-8.8c0.8-2.1,1.6-4.3,2.3-6.4
		c0.2-0.6,0.4-3.2,0.7-5.6c1-10.6,1.6-13.5,3.5-13.5h44.6c2,0,2.5,2.9,3.5,13.5c0.2,2.4,0.5,5,0.7,5.6c0.7,2,1.5,3.9,2.2,5.8
		c1.2,2.8,2.3,5.7,3.1,8.8c0.8,3,1.4,6.1,2,9.4c0,0,0,0,0,0l0,0.2c0.5,2.4,0.9,4.7,1.4,7.1c0.4,1.8,0.8,3.2,1.2,4.5
		c1,3.3,1.8,6,1,10.9c-0.2,1.4-1.8,2.7-19,4.7c-0.6,0.1-1,0.1-1.1,0.1C86.7,177.5,81,177.9,75.2,177.9z M39.7,171.1
		c0.7,0.3,3,1,10,2c0.5,0.1,0.8,0.1,0.9,0.1c15.1,2.7,28,3,41.6,1.1c0.2,0,0.6-0.1,1.2-0.1c13.1-1.5,16.2-2.5,16.9-3
		c0.6-4.2,0-6.3-1-9.5c-0.4-1.3-0.9-2.8-1.3-4.7c-0.5-2.4-1-4.7-1.5-7.1l1.1-0.4l-1.2,0.2c-0.6-3.3-1.2-6.3-2-9.3
		c-0.7-2.9-1.9-5.7-3-8.5c-0.8-1.9-1.6-3.9-2.3-6c-0.3-0.8-0.5-2.7-0.8-6.1c-0.3-3.5-0.9-9.8-1.6-11.4H53.2
		c-0.7,1.6-1.3,7.9-1.6,11.4c-0.3,3.4-0.5,5.3-0.8,6.1c-0.7,2.2-1.5,4.3-2.3,6.5c-1,2.8-2.1,5.7-3,8.6c-0.9,2.9-1.5,6-2,9
		c-0.4,2.2-0.8,4.4-1.4,6.6c-0.4,1.6-0.8,3-1.2,4.3C39.7,164.5,39,166.8,39.7,171.1z"/>
</g>
<g>
	<g>
		<path style="fill:#171717;" d="M57.3,113.5c0.6,1.9,1,3.8,1.6,5.6c1.4,4.5,15.9,8.6,17,13.2c1.1,4.2,1.2,9.4,1.3,13.7
			c0.1,11.3-0.5,22.7-1.8,33.9c-7.6,1-27.5,0.4-35-1.4c-0.7-0.2-1.5-0.4-2-0.9c-0.5-0.5-0.7-1.3-0.9-2c-1.2-5.8,0.3-11.8,2-17.6
			c4.2-14.8,4.7-29.6,6.2-44.8c0.2-1.8-0.1-7.9,1.2-8.7c3.4-2.1,8.7,4.5,9.8,6.9C56.8,112.2,57.1,112.8,57.3,113.5z"/>
		<path d="M64.8,181.7c-8.9,0-19.7-0.7-24.7-1.9c-0.8-0.2-1.8-0.5-2.5-1.2c-0.7-0.7-1-1.7-1.2-2.6c-1.2-5.9,0.2-11.7,2-18.1
			c3.3-11.7,4.3-23.2,5.3-35.4c0.3-3,0.5-6.1,0.8-9.2c0-0.4,0.1-1.1,0.1-1.8c0.1-4.1,0.2-6.9,1.7-7.7c1-0.6,2.2-0.8,3.5-0.3
			c3.4,1.1,7,5.6,7.9,7.8c0.3,0.7,0.6,1.4,0.8,2.1c0,0,0,0,0,0c0.3,1,0.6,2,0.8,2.9c0.2,0.9,0.5,1.8,0.8,2.7
			c0.6,1.8,4.4,3.9,7.9,5.8c4.4,2.4,8.5,4.7,9.2,7.5c1.1,4.4,1.3,9.8,1.3,14c0.1,11.3-0.6,22.8-1.9,34.1c-0.1,0.5-0.5,1-1,1
			C72.9,181.5,69,181.7,64.8,181.7z M48.2,105.4c-0.3,0-0.6,0.1-0.8,0.2c-0.4,0.6-0.5,4.4-0.5,5.8c0,0.8,0,1.6-0.1,2
			c-0.3,3.1-0.6,6.1-0.8,9.1c-1,12.3-2,24-5.4,35.9c-1.7,6.1-3.1,11.6-2,17c0.1,0.5,0.3,1.1,0.6,1.4c0.3,0.3,0.9,0.5,1.4,0.6
			c7,1.8,25.3,2.4,33.6,1.5c1.2-10.9,1.8-21.9,1.7-32.8c0-4.1-0.2-9.3-1.2-13.4c-0.5-1.8-4.5-4-8-6c-4.2-2.3-8.2-4.5-9-7.2
			c-0.3-0.9-0.5-1.9-0.8-2.8c-0.2-0.9-0.5-1.9-0.8-2.8l0,0c-0.2-0.6-0.4-1.3-0.7-1.9c-0.7-1.6-3.9-5.7-6.5-6.5
			C48.7,105.4,48.5,105.4,48.2,105.4z"/>
	</g>
	<g>
		<path style="fill:#27323C;" d="M57.2,132.4c-2.3-1.9-4.8-3.9-6.4-6.5c-1.2-2-1.5-4.3-1.7-6.6c-0.2-2.4-0.6-4.8-0.7-7.2
			c0-0.8,0.3-8,1.3-7.9c2.1,0.2,7.1,2.6,7.7,4.6c1.2,3.7,3.4,7,5.9,10c2.5,2.9,4.7,7.2,8.1,9.1c2.9,1.6,6.5,4.8,6.4,8.5
			C77.8,138.5,58.7,133.7,57.2,132.4z"/>
		<path d="M76.1,138c-5.4,0-18.4-3.6-19.7-4.7l-0.6-0.5c-2.2-1.9-4.5-3.8-6.1-6.3c-1.4-2.3-1.7-4.9-1.9-7.1
			c-0.1-0.8-0.2-1.6-0.3-2.3c-0.2-1.6-0.4-3.3-0.5-4.9c0-0.1,0-7.4,1.5-8.8c0.3-0.3,0.7-0.4,1.1-0.4c2.1,0.2,7.8,2.6,8.7,5.4
			c1,3.1,2.8,6.1,5.7,9.5c0.8,0.9,1.5,2,2.3,3c1.6,2.3,3.3,4.6,5.5,5.8c3.3,1.8,7.2,5.4,7,9.6c0,0.6-0.4,1.2-1,1.4
			C77.6,138,76.9,138,76.1,138z M58,131.5c1.5,1,15.5,4.5,18.7,4.2c-0.3-2.7-3.1-5.4-5.8-6.8c-2.6-1.4-4.5-4-6.3-6.5
			c-0.7-1-1.4-2-2.2-2.9c-3.1-3.7-5.1-7-6.1-10.4c-0.4-1.1-3.9-3.1-6-3.6c-0.4,1.5-0.7,5.6-0.7,6.6c0,1.6,0.2,3.2,0.4,4.7
			c0.1,0.8,0.2,1.6,0.3,2.4c0.2,2.1,0.4,4.3,1.5,6.1c1.3,2.2,3.5,4,5.6,5.7L58,131.5z"/>
	</g>
	<path style="fill:#595959;" d="M41.7,167.3c-0.2,0-0.4,0-0.5-0.1c-0.6-0.3-0.8-1-0.5-1.6c2.1-4.3,5.3-11,5.3-11l2.1,1
		c0,0-3.2,6.8-5.4,11.1C42.6,167.1,42.2,167.3,41.7,167.3z"/>
	<g>
		<circle style="fill:#C3C3C3;" cx="53.4" cy="122.5" r="2.6"/>
		<path d="M53.4,126.3c-2.1,0-3.7-1.7-3.7-3.8c0-2.1,1.7-3.8,3.7-3.8c2.1,0,3.8,1.7,3.8,3.8C57.1,124.6,55.5,126.3,53.4,126.3z
			 M53.4,121.1c-0.8,0-1.4,0.6-1.4,1.4c0,0.8,0.6,1.4,1.4,1.4c0.8,0,1.4-0.6,1.4-1.4C54.8,121.8,54.1,121.1,53.4,121.1z"/>
	</g>
	<g>
		<circle style="fill:#C3C3C3;" cx="59.8" cy="128.8" r="2.6"/>
		<path d="M59.8,132.6c-2.1,0-3.8-1.7-3.8-3.8c0-2.1,1.7-3.8,3.8-3.8c2.1,0,3.7,1.7,3.7,3.8C63.6,130.9,61.9,132.6,59.8,132.6z
			 M59.8,127.5c-0.8,0-1.4,0.6-1.4,1.4c0,0.8,0.6,1.4,1.4,1.4c0.8,0,1.4-0.6,1.4-1.4C61.2,128.1,60.6,127.5,59.8,127.5z"/>
	</g>
	<g>
		<circle style="fill:#C3C3C3;" cx="68.4" cy="132.2" r="2.6"/>
		<path d="M68.4,136c-2.1,0-3.7-1.7-3.7-3.8c0-2.1,1.7-3.8,3.7-3.8c2.1,0,3.8,1.7,3.8,3.8C72.2,134.3,70.5,136,68.4,136z
			 M68.4,130.9c-0.8,0-1.4,0.6-1.4,1.4c0,0.8,0.6,1.4,1.4,1.4c0.8,0,1.4-0.6,1.4-1.4C69.8,131.5,69.2,130.9,68.4,130.9z"/>
	</g>
</g>
<g>
	<g>
		<path style="fill:#171717;" d="M92.7,113.5c-0.6,1.9-1,3.8-1.6,5.6c-1.4,4.5-15.9,8.6-17,13.2c-1.1,4.2-16.2,9.4-16.3,13.7
			c-0.1,11.3,0.5,22.7,1.8,33.9c7.6,1,42.5,0.4,50-1.4c0.7-0.2,1.5-0.4,2-0.9c0.5-0.5,0.7-1.3,0.9-2c1.2-5.8-0.3-11.8-2-17.6
			c-4.2-14.8-4.7-29.6-6.2-44.8c-0.2-1.8,0.1-7.9-1.2-8.7c-3.4-2.1-8.7,4.5-9.8,6.9C93.2,112.2,92.9,112.8,92.7,113.5z"/>
		<path d="M74.2,181.7c-6.5,0-12.1-0.2-14.7-0.5c-0.5-0.1-1-0.5-1-1c-1.3-11.3-1.9-22.7-1.9-34.1c0-2.9,4.1-5.4,8.9-8.3
			c3.1-1.9,7-4.2,7.4-5.7c0.7-2.8,4.8-5.1,9.2-7.5c3.4-1.9,7.3-4,7.9-5.8c0.3-0.9,0.5-1.8,0.8-2.7c0.3-1,0.5-2,0.8-2.9c0,0,0,0,0,0
			c0.2-0.7,0.5-1.4,0.8-2.1c0.9-2.2,4.5-6.7,7.9-7.8c1.3-0.4,2.5-0.3,3.5,0.3c1.4,0.9,1.6,3.6,1.7,7.7c0,0.8,0,1.4,0.1,1.8
			c0.3,3.1,0.6,6.1,0.8,9.2c1,12.2,2,23.7,5.3,35.4c1.8,6.4,3.2,12.2,2,18.1c-0.2,0.8-0.5,1.8-1.2,2.6c-0.7,0.7-1.7,1-2.6,1.2
			C104.8,181,87.5,181.7,74.2,181.7z M60.7,178.9c9,0.8,41.6,0.3,48.6-1.5c0.6-0.1,1.1-0.3,1.4-0.6c0.3-0.3,0.4-0.9,0.6-1.4
			c1.1-5.4-0.2-10.9-2-17c-3.4-11.9-4.4-23.5-5.4-35.9c-0.3-3-0.5-6.1-0.8-9.2c0-0.4-0.1-1.2-0.1-2c0-1.4-0.1-5.2-0.6-5.8
			c-0.3-0.2-0.9-0.2-1.5,0c-2.6,0.8-5.8,4.9-6.5,6.5c-0.3,0.6-0.5,1.2-0.7,1.9c-0.3,0.9-0.5,1.9-0.8,2.8c-0.2,0.9-0.5,1.9-0.8,2.8
			c-0.8,2.7-4.8,4.9-9,7.2c-3.5,2-7.6,4.2-8,6c-0.6,2.5-4.3,4.7-8.5,7.2c-3.3,2-7.7,4.6-7.7,6.2C58.9,157,59.5,168,60.7,178.9z"/>
	</g>
	<g>
		<path style="fill:#27323C;" d="M92.8,132.4c2.3-1.9,4.8-3.9,6.4-6.5c1.2-2,1.5-4.3,1.7-6.6c0.2-2.4,0.6-4.8,0.7-7.2
			c0-0.8-0.3-8-1.3-7.9c-2.1,0.2-7.1,2.6-7.7,4.6c-1.2,3.7-3.4,7-5.9,10c-2.5,2.9-4.7,7.2-8.1,9.1c-2.9,1.6-6.5,4.8-6.4,8.5
			C72.2,138.5,91.3,133.7,92.8,132.4z"/>
		<path d="M73.9,138c-0.8,0-1.5-0.1-1.9-0.3c-0.6-0.3-1-0.8-1-1.4c-0.1-4.2,3.7-7.8,7-9.6c2.2-1.2,3.8-3.5,5.5-5.8
			c0.7-1,1.5-2.1,2.3-3c2.9-3.4,4.7-6.5,5.7-9.5c0.9-2.8,6.6-5.2,8.7-5.4c0.4,0,0.8,0.1,1.1,0.4c1.5,1.4,1.5,8.7,1.5,8.8
			c-0.1,1.7-0.3,3.3-0.5,5c-0.1,0.8-0.2,1.5-0.3,2.3c-0.2,2.3-0.5,4.9-1.9,7.1c-1.5,2.5-3.8,4.4-6.1,6.3l-0.6,0.5l0,0
			C92.3,134.4,79.3,138,73.9,138z M73.4,135.7c3.1,0.4,17.2-3.2,18.7-4.2l0.6-0.5c2.1-1.7,4.2-3.5,5.6-5.7c1.1-1.8,1.3-4,1.5-6.1
			c0.1-0.8,0.2-1.6,0.3-2.4c0.2-1.6,0.4-3.2,0.4-4.7c0-1-0.3-5.1-0.7-6.6c-2.1,0.5-5.7,2.5-6,3.6c-1.1,3.4-3,6.7-6.1,10.4
			c-0.7,0.8-1.4,1.8-2.2,2.8c-1.8,2.5-3.6,5.1-6.3,6.5C76.5,130.3,73.7,133,73.4,135.7z M92.8,132.4L92.8,132.4L92.8,132.4z"/>
	</g>
	<path style="fill:#595959;" d="M108.3,167.3c-0.4,0-0.9-0.2-1.1-0.7c-2.2-4.3-5.4-11.1-5.4-11.1l2.1-1c0,0,3.2,6.7,5.3,11
		c0.3,0.6,0.1,1.3-0.5,1.6C108.6,167.3,108.4,167.3,108.3,167.3z"/>
	<g>
		<circle style="fill:#C3C3C3;" cx="94.6" cy="123.9" r="2.6"/>
		<path d="M94.6,127.6c-2.1,0-3.8-1.7-3.8-3.8c0-2.1,1.7-3.8,3.8-3.8c2.1,0,3.8,1.7,3.8,3.8C98.3,125.9,96.6,127.6,94.6,127.6z
			 M94.6,122.5c-0.8,0-1.4,0.6-1.4,1.4c0,0.8,0.6,1.4,1.4,1.4c0.8,0,1.4-0.6,1.4-1.4C95.9,123.1,95.3,122.5,94.6,122.5z"/>
	</g>
	<g>
		<circle style="fill:#C3C3C3;" cx="87.3" cy="128.8" r="2.6"/>
		<path d="M87.3,132.6c-2.1,0-3.8-1.7-3.8-3.8c0-2.1,1.7-3.8,3.8-3.8c2.1,0,3.8,1.7,3.8,3.8C91,130.9,89.3,132.6,87.3,132.6z
			 M87.3,127.5c-0.8,0-1.4,0.6-1.4,1.4c0,0.8,0.6,1.4,1.4,1.4s1.4-0.6,1.4-1.4C88.7,128.1,88,127.5,87.3,127.5z"/>
	</g>
	<g>
		<circle style="fill:#C3C3C3;" cx="79.9" cy="132.2" r="2.6"/>
		<path d="M79.9,136c-2.1,0-3.8-1.7-3.8-3.8c0-2.1,1.7-3.8,3.8-3.8c2.1,0,3.8,1.7,3.8,3.8C83.7,134.3,82,136,79.9,136z M79.9,130.9
			c-0.8,0-1.4,0.6-1.4,1.4c0,0.8,0.6,1.4,1.4,1.4c0.8,0,1.4-0.6,1.4-1.4C81.3,131.5,80.7,130.9,79.9,130.9z"/>
	</g>
	<g>
		<circle style="fill:#C3C3C3;" cx="78" cy="150.6" r="3.2"/>
		<path d="M78,155c-2.4,0-4.4-2-4.4-4.4s2-4.4,4.4-4.4s4.4,2,4.4,4.4S80.4,155,78,155z M78,148.6c-1.1,0-2,0.9-2,2c0,1.1,0.9,2,2,2
			c1.1,0,2-0.9,2-2C79.9,149.5,79.1,148.6,78,148.6z"/>
	</g>
	<g>
		<circle style="fill:#C3C3C3;" cx="79.6" cy="163.7" r="3.2"/>
		<path d="M79.6,168c-2.4,0-4.4-2-4.4-4.4c0-2.4,2-4.4,4.4-4.4s4.4,2,4.4,4.4C84,166.1,82,168,79.6,168z M79.6,161.7
			c-1.1,0-2,0.9-2,2c0,1.1,0.9,2,2,2c1.1,0,2-0.9,2-2C81.6,162.6,80.7,161.7,79.6,161.7z"/>
	</g>
</g>
<g>
	<path style="fill:#FF0425;" d="M142.3,52.7c4,6.3,5.6,14.1,4.3,21.5c-5.5,0.5-11.1-1.4-15.7-4.6c-4.6-3.2-8.2-7.5-11.2-12.2
		c-2.1-3.2-3.9-6.8-3.6-10.7C117.6,30,138.6,46.8,142.3,52.7z"/>
	<path d="M144.9,75.5c-4.9,0-10-1.7-14.6-4.9c-4.2-2.9-8-7-11.5-12.5c-1.9-3-4.1-7.1-3.8-11.4c0.5-5.8,3.2-7.6,5.4-8.2
		c7.4-1.9,19.9,8.7,23,13.5l0,0c4.2,6.6,5.8,14.7,4.5,22.4c-0.1,0.5-0.5,0.9-1.1,1C146.2,75.5,145.5,75.5,144.9,75.5z M122.3,40.7
		c-0.5,0-0.9,0-1.3,0.2c-2.1,0.5-3.3,2.5-3.6,6c-0.3,3.6,1.7,7.2,3.4,9.9c3.4,5.2,6.9,9.1,10.9,11.9c4.4,3,9.3,4.6,14,4.4
		c0.9-6.8-0.6-14-4.3-19.8l0,0C138.8,49.4,128.5,40.7,122.3,40.7z"/>
</g>
<g>
	<path style="fill:#FF0425;" d="M7.7,52.7C3.6,59,2,66.9,3.3,74.2c5.5,0.5,11.1-1.4,15.7-4.6s8.2-7.5,11.2-12.2
		c2.1-3.2,3.9-6.8,3.6-10.7C32.4,30,11.4,46.8,7.7,52.7z"/>
	<path d="M5.1,75.5c-0.6,0-1.3,0-1.9-0.1c-0.5,0-1-0.5-1.1-1c-1.3-7.7,0.3-15.8,4.5-22.4c3.1-4.8,15.5-15.4,23-13.5
		c2.2,0.5,4.9,2.4,5.4,8.2c0.4,4.3-1.8,8.4-3.8,11.4c-3.5,5.5-7.3,9.6-11.5,12.5C15.1,73.8,10,75.5,5.1,75.5z M4.3,73.1
		c4.7,0.2,9.6-1.4,14-4.4c4-2.7,7.5-6.6,10.9-11.9c1.7-2.7,3.7-6.3,3.4-9.9c-0.3-3.5-1.5-5.5-3.6-6c-6-1.5-17.7,8.2-20.4,12.5l0,0
		C5,59.2,3.4,66.3,4.3,73.1z M7.7,52.7L7.7,52.7L7.7,52.7z"/>
</g>
<g>
	<g>
		<path style="fill:#F4BA76;" d="M45.2,19.9c0,0-7.2-8.9-42.5-16.7c0,0-9.1,29.3,18.9,46.5"/>
		<path d="M21.7,50.9c-0.2,0-0.4-0.1-0.6-0.2C-7.4,33.2,1.5,3.1,1.6,2.8C1.8,2.2,2.4,1.9,3,2c35.3,7.8,42.9,16.7,43.2,17.1
			c0.4,0.5,0.3,1.3-0.2,1.7c-0.5,0.4-1.2,0.3-1.7-0.2c-0.1-0.1-7.5-8.5-40.7-16C2.3,10-2,33.8,22.3,48.7c0.6,0.3,0.7,1.1,0.4,1.6
			C22.5,50.7,22.1,50.9,21.7,50.9z"/>
	</g>
	<g>
		<path style="fill:#FA835D;" d="M31.9,31c0,0-12.6-4.6-24.3-17.5c0,0-2.1,20.6,16.6,30.6C24.2,44.1,26.6,36.3,31.9,31z"/>
		<path d="M24.2,45.3c-0.2,0-0.4,0-0.6-0.1C4.5,34.9,6.4,13.6,6.4,13.4c0-0.5,0.4-0.9,0.8-1c0.4-0.1,0.9,0,1.2,0.3
			c11.4,12.5,23.7,17.2,23.8,17.2c0.4,0.1,0.7,0.5,0.8,0.9c0.1,0.4,0,0.8-0.3,1.1c-5,5-7.4,12.5-7.4,12.6c-0.1,0.3-0.4,0.6-0.7,0.7
			C24.5,45.3,24.4,45.3,24.2,45.3z M8.7,16.4c0.1,5.6,2,18.4,14.8,25.9c0.9-2.3,2.9-7,6.3-10.9C26.3,29.9,17.5,25.4,8.7,16.4z"/>
	</g>
	<path d="M26.2,35.3c-2.9,0-7-0.7-9.5-4.2c-0.4-0.5-0.3-1.3,0.3-1.7c0.5-0.4,1.3-0.3,1.7,0.3c3.3,4.5,10.6,2.9,10.6,2.9
		c0.6-0.1,1.3,0.2,1.4,0.9c0.1,0.6-0.2,1.3-0.9,1.4C29.6,35,28.2,35.3,26.2,35.3z"/>
</g>
<g>
	<g>
		<path style="fill:#F4BA76;" d="M104.8,19.9c0,0,7.2-8.9,42.5-16.7c0,0,9.1,29.3-18.9,46.5"/>
		<path d="M128.3,50.9c-0.4,0-0.8-0.2-1-0.6c-0.3-0.6-0.2-1.3,0.4-1.6c24.2-14.9,20-38.7,18.7-44.1c-33.3,7.5-40.7,15.9-40.7,16
			c-0.4,0.5-1.2,0.6-1.7,0.2c-0.5-0.4-0.6-1.2-0.2-1.7c0.3-0.4,7.9-9.3,43.2-17.1c0.6-0.1,1.2,0.2,1.4,0.8c0.1,0.3,9,30.4-19.4,47.9
			C128.8,50.8,128.5,50.9,128.3,50.9z"/>
	</g>
	<g>
		<path style="fill:#FA835D;" d="M118.1,31c0,0,12.6-4.6,24.3-17.5c0,0,2.1,20.6-16.6,30.6C125.8,44.1,123.4,36.3,118.1,31z"/>
		<path d="M125.8,45.3c-0.2,0-0.3,0-0.5-0.1c-0.3-0.1-0.6-0.4-0.7-0.7c0-0.1-2.4-7.6-7.4-12.6c-0.3-0.3-0.4-0.7-0.3-1.1
			c0.1-0.4,0.4-0.7,0.8-0.9c0.1,0,12.4-4.7,23.8-17.2c0.3-0.4,0.8-0.5,1.2-0.3c0.4,0.1,0.8,0.5,0.8,1c0,0.2,2,21.6-17.2,31.8
			C126.2,45.2,126,45.3,125.8,45.3z M120.1,31.5c3.4,3.9,5.5,8.6,6.3,10.9c12.7-7.4,14.6-20.3,14.8-25.9
			C132.4,25.4,123.7,29.9,120.1,31.5z"/>
	</g>
	<path d="M123.8,35.3c-2,0-3.5-0.3-3.6-0.4c-0.6-0.1-1-0.8-0.9-1.4s0.8-1,1.4-0.9c0.1,0,7.3,1.6,10.6-2.9c0.4-0.5,1.1-0.6,1.7-0.3
		c0.5,0.4,0.6,1.1,0.3,1.7C130.8,34.6,126.8,35.3,123.8,35.3z"/>
</g>
<g>
	<g>
		<path style="fill:#F4BA76;" d="M118,31.2C106.2,17.6,90.7,9.2,75,10.3c-15.7-1-31.2,7.3-42.9,20.9C15.9,50,12.7,80.3,35.6,102
			c7.5,7.1,14.3,13.8,23,18.6c4.1,2.3,11,3.2,16.3,3.5c5.4-0.3,12.3-1.2,16.3-3.5c8.7-4.8,15.4-11.8,23-18.6
			C135.7,82.9,134.2,50,118,31.2z"/>
		<path d="M75.1,125.4c-3.5-0.2-11.9-0.8-17-3.6c-8.3-4.6-14.9-10.9-21.9-17.5l-1.4-1.3c-23.9-22.7-20-53.6-3.7-72.5
			C43.7,15.9,59.8,8.1,75.1,9.1c15.2-1,31.2,6.8,43.8,21.4c8.3,9.6,12.8,22.7,12.6,36.1c-0.3,14.3-6.1,27.3-16.3,36.4
			c-1.6,1.4-3.1,2.8-4.5,4.2c-6,5.5-11.6,10.7-18.7,14.6C86.9,124.5,78.5,125.2,75.1,125.4z M72.6,11.4C58.6,11.4,44.4,18.8,33,32
			c-15.6,18-19.3,47.5,3.5,69.2l1.4,1.3c6.9,6.5,13.4,12.7,21.4,17.2c3.2,1.8,9.1,3,15.8,3.3c6.6-0.3,12.5-1.6,15.7-3.3
			c6.8-3.8,12.4-8.9,18.2-14.3c1.5-1.4,3-2.8,4.6-4.2c17.2-15.4,22.7-46.9,3.5-69.2l0,0c-12.1-14-27.4-21.5-42-20.5
			C74.2,11.4,73.4,11.4,72.6,11.4z"/>
	</g>
	<path d="M85.4,90.5c0,5.7-4.7,10.4-10.4,10.4c-5.7,0-10.4-4.7-10.4-10.4s4.7-7.2,10.4-7.2C80.7,83.3,85.4,84.8,85.4,90.5z"/>
	<path style="fill:#FFDDB2;" d="M83.8,67.4c1.7-7.2,8.8-12.1,15.9-12.9c5-0.6,10.2,0.8,14.3,3.8c3.7,2.6,7.1,7.4,4.8,12
		c-1,2-2.5,2.5-4.6,3.1c-1.6,0.4-3.3,0.6-4.9,0.9c-7.2,0.9-17.2,3.7-23.7-0.6C83.6,72.3,83.3,69.6,83.8,67.4z"/>
	<path style="fill:#FFDDB2;" d="M66.2,67.4c-1.7-7.2-8.8-12.1-15.9-12.9c-5-0.6-10.2,0.8-14.3,3.8c-3.7,2.6-7.1,7.4-4.8,12
		c1,2,2.5,2.5,4.6,3.1c1.6,0.4,3.3,0.6,4.9,0.9c7.2,0.9,17.2,3.7,23.7-0.6C66.4,72.3,66.7,69.6,66.2,67.4z"/>
	<g>
		<g>
			<path style="fill:#FFFFFF;" d="M90,82.8c5.1,6.3,14.3,6.2,20.6,1.1c4.7-3.8,6.6-9,4.5-14.7c-2.7-7.5-15-8.3-21-4.6
				C87.3,68.9,84.9,76.5,90,82.8z"/>
			<path d="M100.4,88.8c-0.2,0-0.4,0-0.5,0c-4.3-0.1-8.1-2-10.7-5.2c-2.5-3-3.4-6.5-2.9-10c0.7-3.9,3.2-7.5,7.2-10
				c4-2.5,10.4-3.1,15.4-1.3c3.7,1.3,6.2,3.5,7.3,6.5c2.2,5.9,0.4,11.7-4.9,16C108.2,87.4,104.3,88.8,100.4,88.8z M102.6,63.6
				c-2.9,0-5.8,0.7-7.9,2c-3.4,2.1-5.6,5.1-6.1,8.4c-0.5,2.8,0.4,5.6,2.4,8.1l0,0c2.2,2.7,5.4,4.2,9,4.4c3.5,0.1,7.1-1.1,9.9-3.5
				c4.5-3.6,5.9-8.4,4.1-13.3c-1.1-2.9-3.8-4.4-5.8-5.1C106.4,63.9,104.5,63.6,102.6,63.6z"/>
		</g>
		<circle cx="101.4" cy="75" r="10.4"/>
		<path style="fill:#FFFFFF;" d="M103.6,68.7c-0.7,0-1.5-0.2-2,0.4c-0.5,0.6-0.5,1.5-0.1,2.1c0.5,0.7,1.5,0.9,2.1,1.6
			c0.6,0.7,1.2,1.5,2.1,0.6c0.8-0.9,0.6-2.6,0-3.5C105.3,69.2,104.6,69,103.6,68.7z"/>
	</g>
	<g>
		<g>
			<path style="fill:#FFFFFF;" d="M60,82.8c-5.1,6.3-14.3,6.2-20.6,1.1c-4.7-3.8-6.6-9-4.5-14.7c2.7-7.5,15-8.3,21-4.6
				C62.7,68.9,65.1,76.5,60,82.8z"/>
			<path d="M49.6,88.8c-3.7,0-7.6-1.3-10.9-4c-5.2-4.3-7-10.1-4.9-16c1.1-3,3.6-5.3,7.3-6.5c5.1-1.7,11.4-1.2,15.4,1.3
				c4,2.5,6.6,6.1,7.2,10c0.6,3.5-0.4,6.9-2.9,10l0,0C58.1,87,53.9,88.8,49.6,88.8z M47.4,63.6c-1.9,0-3.8,0.3-5.5,0.9
				c-2.1,0.7-4.7,2.2-5.8,5.1c-1.8,5-0.4,9.7,4.1,13.3c6.1,5,14.4,4.6,18.9-0.9l0,0c2-2.5,2.8-5.3,2.4-8.1c-0.5-3.3-2.7-6.2-6.1-8.4
				C53.2,64.3,50.3,63.6,47.4,63.6z M60,82.8L60,82.8L60,82.8z"/>
		</g>
		<circle cx="48.6" cy="75" r="10.4"/>
		<path style="fill:#FFFFFF;" d="M50.7,68.7c-0.7,0-1.5-0.2-2,0.4c-0.5,0.6-0.5,1.5-0.1,2.1c0.5,0.7,1.5,0.9,2.1,1.6
			c0.6,0.7,1.2,1.5,2.1,0.6c0.8-0.9,0.6-2.6,0-3.5C52.4,69.2,51.7,69,50.7,68.7z"/>
	</g>
	<path d="M88.9,87.5c-0.3,0-0.5-0.1-0.7-0.3c-14.9-12-25.6-0.6-26.1-0.1c-0.4,0.5-1.2,0.5-1.7,0.1c-0.5-0.4-0.5-1.2-0.1-1.7
		c0.1-0.1,12.6-13.5,29.3-0.1c0.5,0.4,0.6,1.2,0.2,1.7C89.6,87.3,89.2,87.5,88.9,87.5z"/>
	<path style="fill:#FFEFDB;" d="M83.3,29c-0.5-1.2-1.1-2.3-1.9-3.3c-0.7-0.9-1.5-1.6-2.1-2.6c-0.8-1.3-2.2-5.5-4.1-5.5
		c-1.8,0-3.2,4-4,5.3c-0.6,1-1.3,1.7-2.1,2.6c-1.2,1.3-2.1,3.1-2.8,4.7c-0.5,1.1-0.9,2.3-0.9,3.5c0,2.5,1.3,4.6,2.4,6.7
		c1.2,2.3,1.4,4.8,2.5,7.1c0.6,1.3,1.2,2.5,1.8,3.8c0.6,1.3,0.9,2.4,2.6,2.4c1.3,0,2.9-0.4,3.6-1.6c1.6-2.9,2.3-6.1,3.5-9.2
		c1.2-3,3.5-6,3.2-9.4c-0.1-0.8-0.3-1.6-0.6-2.3C83.9,30.5,83.6,29.7,83.3,29z"/>
	<path d="M83.6,69.8C83.6,69.8,83.6,69.8,83.6,69.8c-0.7,0-1.2-0.6-1.2-1.2c0-0.4,0.5-10.5,13.9-14.6c0.6-0.2,1.3,0.2,1.5,0.8
		c0.2,0.6-0.2,1.3-0.8,1.5c-11.8,3.6-12.2,12.3-12.2,12.4C84.8,69.3,84.3,69.8,83.6,69.8z"/>
	<path d="M66.4,69.8c-0.6,0-1.2-0.5-1.2-1.1c0-0.4-0.5-8.8-12.2-12.4c-0.6-0.2-1-0.9-0.8-1.5c0.2-0.6,0.9-1,1.5-0.8
		c13.4,4.1,13.9,14.1,13.9,14.6C67.6,69.2,67.1,69.8,66.4,69.8C66.4,69.8,66.4,69.8,66.4,69.8z"/>
	<g>
		<path d="M48.1,99.6c-0.3,0-0.5-0.1-0.8-0.3c-0.5-0.4-0.6-1.2-0.1-1.7c0.1-0.1,0.2-0.3,0.4-0.5c1-1.2,2.6-3.3,4.6-4.1
			c0.6-0.2,1.3,0.1,1.5,0.7c0.2,0.6-0.1,1.3-0.7,1.5c-1.4,0.6-2.8,2.4-3.6,3.3c-0.2,0.2-0.3,0.4-0.5,0.6
			C48.8,99.5,48.4,99.6,48.1,99.6z"/>
		<path d="M101.9,99.6c-0.3,0-0.7-0.1-0.9-0.4c-0.1-0.1-0.3-0.3-0.5-0.6c-0.8-1-2.2-2.8-3.6-3.3c-0.6-0.2-0.9-0.9-0.7-1.5
			c0.2-0.6,0.9-0.9,1.5-0.7c2,0.8,3.6,2.9,4.6,4.1c0.2,0.2,0.3,0.4,0.4,0.5c0.4,0.5,0.4,1.3-0.1,1.7
			C102.5,99.6,102.2,99.6,101.9,99.6z"/>
		<path d="M75,112.3c-4.7,0-9.3-1.1-13.4-3.4c-2-1.1-3.6-2.6-5.4-4.5c-1.4-1.5-2.9-3.2-4.2-4.8c-0.9-1.1-1.8-2.3-1.9-3.9
			c0-0.7,0.5-1.2,1.1-1.3c0.7,0,1.2,0.5,1.3,1.1c0.1,0.9,0.7,1.7,1.4,2.6c1.3,1.6,2.7,3.2,4.1,4.7c1.6,1.8,3.1,3.1,4.8,4.1
			c7.4,4.2,17,4.2,24.4,0c1.7-1,3.2-2.3,4.8-4.1c1.4-1.5,2.8-3.1,4.1-4.7c0.7-0.8,1.3-1.7,1.4-2.6c0-0.7,0.6-1.2,1.3-1.1
			c0.7,0,1.1,0.6,1.1,1.3c-0.1,1.6-1,2.8-1.9,3.9c-1.3,1.6-2.7,3.3-4.2,4.8c-1.6,1.7-3.3,3.3-5.4,4.5
			C84.3,111.1,79.7,112.3,75,112.3z"/>
	</g>
</g>
<g>
	<g>
		<path style="fill:#F4BA76;" d="M99.9,190.5c0.5,4.4,0.8,9.1-1.3,12.9c-0.9,1.7-2.3,3.1-3.4,4.8c-3.3,5.1-3.2,11.6-3,17.7
			c2.9-0.3,5.7,0.6,7.9,2.6c2.5,2.3,3,7.2-0.2,9.3c-3,2-10.3,0.5-13.9,0.5c-4.4,0-5.8-4.3-6-7.9c-0.3-5.9,0.3-12.4,1.4-18.3
			c0.2-1.1,0.4-2.3,0.8-3.3c0.6-1.6,1.4-3,2.3-4.5c1.9-3.1-0.1-7.3-0.5-10.9c-0.2-1.9-0.4-4,0.9-5.4c0.9-0.9,2.2-1.2,3.4-1.4
			c3.2-0.4,6.4,0,9.4,1.1c0.7,0.3,1.4,0.6,1.9,1.1C100.2,189.4,99.8,189.8,99.9,190.5z"/>
		<path d="M94.6,240c-1.7,0-3.5-0.1-5.2-0.3c-1.3-0.1-2.5-0.2-3.5-0.2c-4.2,0-6.9-3.4-7.2-9.1c-0.3-7,0.6-14,1.4-18.6
			c0.2-1.1,0.4-2.3,0.8-3.5c0.6-1.7,1.5-3.2,2.4-4.7c1.1-1.8,0.5-4.2,0-6.8c-0.3-1.1-0.5-2.3-0.6-3.4c-0.2-1.9-0.5-4.5,1.2-6.3
			c1.2-1.2,2.8-1.6,4.1-1.7c3.3-0.4,6.8,0,9.9,1.2c0.8,0.3,1.7,0.7,2.4,1.4c0.7,0.8,0.7,1.5,0.6,2c0,0.2,0,0.3,0,0.4l0,0
			c0.5,5.1,0.8,9.6-1.4,13.6c-0.6,1.1-1.3,2-2,2.9c-0.5,0.6-1,1.3-1.4,1.9c-2.8,4.3-3,9.7-2.9,15.8c2.7,0,5.4,1,7.5,3
			c1.7,1.5,2.6,3.9,2.4,6.3c-0.2,2.1-1.1,3.8-2.8,4.8C99,239.7,96.9,240,94.6,240z M90.7,187.7c-0.7,0-1.5,0-2.2,0.1
			c-1.4,0.2-2.2,0.5-2.7,1c-0.9,0.9-0.8,2.6-0.6,4.4c0.1,1,0.3,2,0.6,3.1c0.6,2.8,1.3,5.9-0.3,8.5c-0.8,1.4-1.7,2.8-2.2,4.2
			c-0.4,1-0.6,2.1-0.7,3.1c-0.8,4.5-1.7,11.3-1.4,18c0.1,2.5,0.9,6.8,4.8,6.8c1,0,2.3,0.1,3.7,0.2c3.3,0.3,7.7,0.6,9.6-0.6
			c1.3-0.9,1.6-2.3,1.7-3c0.1-1.6-0.5-3.3-1.6-4.3c-2-1.8-4.4-2.6-6.9-2.3c-0.3,0-0.7-0.1-0.9-0.3c-0.3-0.2-0.4-0.5-0.4-0.9
			c-0.3-7-0.2-13.2,3.2-18.4c0.5-0.7,1-1.4,1.5-2.1c0.7-0.9,1.3-1.7,1.8-2.6c1.9-3.4,1.6-7.5,1.1-12.2v0c0-0.4,0-0.7,0-0.9
			c-0.3-0.4-0.9-0.7-1.4-0.9C95.2,188.1,92.9,187.7,90.7,187.7z"/>
	</g>
	<g>
		<path style="fill:#10171D;" d="M102.5,192.9c-0.4,3.4-0.7,6.9-1,10.3c-0.5,4.9-1.3,10.2,0.1,14.9c0.4,1.3,0.6,2.8-0.1,3.9
			c-0.3,0.5-0.7,0.8-0.9,1.3c-0.5,1.8,2.6,3.4,1.7,5c-0.2,0.3-2.3-0.8-2.6-1c-1-0.5-1.4-0.6-2.6-0.7c-2.4-0.1-4.9-0.5-7.3-0.6
			c-2.9-0.2-6-0.1-8.7,1c-0.6,0.2-2.4,1.3-3,0.5c-0.5-0.6,0.8-2.3,1.1-2.7c0.1-0.2,0.2-0.4,0.3-0.6c0.1-0.8-0.9-1.2-1.6-1.7
			c-1.3-1-1-3-0.3-4.5c1.1-2.6,0.5-3.6,0.4-6c-0.1-2.8,0.9-5.6,0.7-8.5c-0.5-8.3-1.7-16.4-1.6-24.8c0-0.5,0-1.1,0.3-1.5
			c0.3-0.4,0.8-0.5,1.3-0.6c5.9-1.2,11.8-1.8,17.8-1.9c5.7-0.1,9.5,3,7.9,8.8C103.4,186.7,102.9,189.8,102.5,192.9z"/>
		<path d="M102.2,229.7c-0.8,0-1.9-0.6-3-1.1c-0.9-0.5-1.1-0.5-2.1-0.5c-1.5,0-3.1-0.2-4.5-0.4c-0.9-0.1-1.9-0.2-2.8-0.3
			c-3.5-0.3-6,0-8.1,0.9l-0.3,0.1c-1,0.5-3.1,1.5-4.2,0c-0.9-1.2,0.2-2.9,0.9-3.8l0.1-0.2c-0.1-0.1-0.3-0.2-0.4-0.2
			c-0.2-0.1-0.5-0.3-0.6-0.4c-1.5-1.2-1.8-3.4-0.7-5.9c0.7-1.6,0.6-2.4,0.4-3.8c-0.1-0.5-0.1-1.1-0.2-1.7c-0.1-1.5,0.1-3,0.4-4.4
			c0.2-1.4,0.4-2.7,0.3-4c-0.2-3.1-0.5-6.3-0.7-9.4c-0.5-5-0.9-10.3-0.9-15.5c0-0.5,0-1.4,0.5-2.2c0.6-0.8,1.5-1,2-1.1
			c5.9-1.2,12-1.8,18-2c3.6-0.1,6.4,1,8.1,3.1c1,1.3,2,3.6,1,7.2c-0.7,2.7-1.3,5.6-1.7,9.1l0,0c-0.3,2.5-0.5,5-0.8,7.6l-0.3,2.7
			c-0.1,0.7-0.1,1.4-0.2,2c-0.4,4.2-0.9,8.5,0.3,12.4c0.6,2,0.5,3.7-0.3,4.9c-0.1,0.2-0.3,0.4-0.4,0.5c-0.2,0.2-0.3,0.4-0.3,0.5
			c-0.1,0.3,0.4,0.9,0.8,1.4c0.7,0.9,1.7,2.3,0.9,3.8C103.1,229.5,102.7,229.7,102.2,229.7z M96.7,176c-0.1,0-0.2,0-0.3,0
			c-5.9,0.1-11.8,0.8-17.6,1.9c-0.3,0.1-0.5,0.1-0.6,0.2c-0.1,0.1-0.1,0.6-0.1,0.8c0,5.1,0.4,10.3,0.9,15.3c0.3,3.1,0.6,6.3,0.7,9.5
			c0.1,1.6-0.1,3.1-0.4,4.5c-0.2,1.4-0.4,2.7-0.3,4c0,0.6,0.1,1.1,0.1,1.6c0.2,1.5,0.3,2.8-0.6,4.9c-0.5,1.1-0.8,2.6,0,3.2
			c0.1,0.1,0.3,0.2,0.4,0.3c0.6,0.4,1.8,1.1,1.6,2.5c-0.1,0.5-0.3,0.8-0.4,1l-0.2,0.3c-0.2,0.3-0.3,0.5-0.5,0.7
			c0.2-0.1,0.5-0.2,0.8-0.3l0.3-0.2c3.2-1.3,6.6-1.3,9.2-1.1c1,0.1,1.9,0.2,2.9,0.3c1.4,0.2,2.9,0.3,4.4,0.4c1.3,0,1.9,0.1,3.1,0.8
			c0.1,0,0.2,0.1,0.2,0.1c-0.7-0.9-1.5-2.1-1.1-3.5c0.2-0.6,0.5-1,0.8-1.3c0.1-0.1,0.2-0.2,0.3-0.3c0.4-0.6,0.4-1.6,0-2.9
			c-1.3-4.3-0.8-8.9-0.4-13.4c0.1-0.7,0.1-1.4,0.2-2l0.3-2.7c0.2-2.5,0.5-5.1,0.8-7.7l0,0c0.5-3.7,1-6.7,1.8-9.5
			c0.6-2.1,0.4-3.8-0.6-5.1C101.4,176.8,99.3,176,96.7,176z M102.5,192.9L102.5,192.9L102.5,192.9z"/>
	</g>
	<path d="M97.8,239.3C97.7,239.3,97.7,239.3,97.8,239.3c-0.7,0-1.2-0.6-1.2-1.2c0.2-5.1-1.5-6.8-1.6-6.9c-0.5-0.5-0.5-1.2,0-1.7
		s1.2-0.5,1.6-0.1c0.3,0.2,2.5,2.5,2.3,8.7C98.9,238.8,98.4,239.3,97.8,239.3z"/>
	<path d="M90.3,239.8c-0.1,0-0.2,0-0.3,0c-0.6-0.2-1-0.8-0.8-1.5c1-3.6-1-7.3-1-7.3c-0.3-0.6-0.1-1.3,0.5-1.6
		c0.6-0.3,1.3-0.1,1.6,0.5c0.1,0.2,2.5,4.6,1.2,9.1C91.3,239.4,90.8,239.8,90.3,239.8z"/>
</g>
<g>
	<g>
		<path style="fill:#F4BA76;" d="M50.1,190.5c-0.5,4.4-0.8,9.1,1.3,12.9c0.9,1.7,2.3,3.1,3.4,4.8c3.3,5.1,3.2,11.6,3,17.7
			c-2.9-0.3-5.7,0.6-7.9,2.6c-2.5,2.3-3,7.2,0.2,9.3c3,2,10.3,0.5,13.9,0.5c4.4,0,5.8-4.3,6-7.9c0.3-5.9-0.3-12.4-1.4-18.3
			c-0.2-1.1-0.4-2.3-0.8-3.3c-0.6-1.6-1.4-3-2.3-4.5c-1.9-3.1,0.1-7.3,0.5-10.9c0.2-1.9,0.4-4-0.9-5.4c-0.9-0.9-2.2-1.2-3.4-1.4
			c-3.2-0.4-6.4,0-9.4,1.1c-0.7,0.3-1.4,0.6-1.9,1.1C49.8,189.4,50.2,189.8,50.1,190.5z"/>
		<path d="M55.4,240c-2.3,0-4.4-0.3-5.9-1.2c-1.6-1.1-2.6-2.8-2.8-4.8c-0.2-2.4,0.7-4.8,2.4-6.3c2.1-1.9,4.8-3,7.5-3
			c0.2-6.1,0-11.5-2.9-15.8c-0.4-0.7-0.9-1.3-1.4-1.9c-0.7-0.9-1.4-1.9-2-2.9c-2.4-4.3-1.9-9.5-1.4-13.6c0-0.1,0-0.3,0-0.4
			c-0.1-0.5-0.1-1.2,0.6-2c0.7-0.7,1.6-1.1,2.4-1.4c3.2-1.2,6.6-1.6,9.9-1.2c1.3,0.2,3,0.5,4.1,1.7c1.7,1.8,1.4,4.4,1.2,6.3
			c-0.1,1.1-0.4,2.3-0.6,3.4c-0.6,2.6-1.1,5,0,6.8c0.9,1.5,1.8,3,2.4,4.7c0.4,1.2,0.6,2.4,0.8,3.5c0.8,4.6,1.7,11.6,1.4,18.6
			c-0.3,5.7-2.9,9-7.2,9.1c-0.9,0-2.2,0.1-3.5,0.2C58.9,239.9,57.1,240,55.4,240z M56.7,227.1c-2.2,0-4.2,0.8-6,2.4
			c-1.1,1-1.8,2.7-1.6,4.3c0.1,0.8,0.4,2.2,1.7,3c1.9,1.2,6.3,0.8,9.6,0.6c1.4-0.1,2.6-0.2,3.7-0.2c3.9,0,4.7-4.3,4.8-6.8
			c0.3-6.8-0.6-13.5-1.4-18c-0.2-1-0.4-2.1-0.7-3.1c-0.5-1.5-1.4-2.9-2.2-4.2c-1.6-2.6-0.9-5.7-0.3-8.5c0.2-1.1,0.5-2.2,0.6-3.1
			c0.2-1.9,0.3-3.5-0.6-4.4c-0.5-0.5-1.3-0.8-2.7-1c-3-0.4-6,0-8.8,1.1c-0.6,0.2-1.1,0.5-1.5,0.8c0.1,0.3,0.1,0.6,0.1,0.9
			c0,0,0,0,0,0c-0.5,4.7-0.7,8.8,1.1,12.2c0.5,0.9,1.1,1.7,1.8,2.6c0.5,0.7,1.1,1.4,1.5,2.1c3.4,5.2,3.5,11.4,3.2,18.4
			c0,0.3-0.2,0.6-0.4,0.9c-0.3,0.2-0.6,0.3-0.9,0.3C57.3,227.1,57,227.1,56.7,227.1z M50.1,190.5L50.1,190.5L50.1,190.5z"/>
	</g>
	<g>
		<path style="fill:#10171D;" d="M47.5,192.9c0.4,3.4,0.7,6.9,1,10.3c0.5,4.9,1.3,10.2-0.1,14.9c-0.4,1.3-0.6,2.8,0.1,3.9
			c0.3,0.5,0.7,0.8,0.9,1.3c0.5,1.8-2.6,3.4-1.7,5c0.2,0.3,2.3-0.8,2.6-1c1-0.5,1.4-0.6,2.6-0.7c2.4-0.1,4.9-0.5,7.3-0.6
			c2.9-0.2,6-0.1,8.7,1c0.6,0.2,2.4,1.3,3,0.5c0.5-0.6-0.8-2.3-1.1-2.7c-0.1-0.2-0.2-0.4-0.3-0.6c-0.1-0.8,0.9-1.2,1.6-1.7
			c1.3-1,1-3,0.3-4.5c-1.1-2.6-0.5-3.6-0.4-6c0.1-2.8-0.9-5.6-0.7-8.5c0.5-8.3,1.7-16.4,1.6-24.8c0-0.5,0-1.1-0.3-1.5
			c-0.3-0.4-0.8-0.5-1.3-0.6c-5.9-1.2-11.8-1.8-17.8-1.9c-5.7-0.1-9.5,3-7.9,8.8C46.6,186.7,47.1,189.8,47.5,192.9z"/>
		<path d="M47.8,229.7c-0.5,0-0.9-0.2-1.1-0.7c-0.8-1.5,0.2-2.9,0.9-3.8c0.4-0.5,0.9-1.1,0.8-1.4c0-0.1-0.2-0.3-0.3-0.5
			c-0.1-0.2-0.3-0.3-0.4-0.5c-0.8-1.2-0.9-2.9-0.3-4.9c1.2-3.9,0.7-8.2,0.3-12.4c-0.1-0.7-0.1-1.4-0.2-2l-0.3-2.8
			c-0.2-2.5-0.5-5-0.8-7.5l0,0c-0.4-3.6-1-6.5-1.7-9.1c-1-3.6,0-5.9,1-7.2c1.6-2.1,4.5-3.2,8-3.1c6,0.1,12.1,0.8,18,2
			c0.5,0.1,1.4,0.3,2,1.1c0.5,0.7,0.5,1.6,0.5,2.2c0,5.2-0.4,10.4-0.9,15.5c-0.3,3.1-0.6,6.2-0.7,9.4c-0.1,1.3,0.1,2.6,0.3,4
			c0.2,1.4,0.4,2.9,0.4,4.4c0,0.7-0.1,1.2-0.2,1.7c-0.2,1.3-0.3,2.1,0.4,3.8c1.1,2.6,0.8,4.8-0.7,5.9c-0.2,0.2-0.4,0.3-0.7,0.4
			c-0.1,0.1-0.3,0.2-0.4,0.2l0.1,0.2c0.7,1,1.8,2.6,0.9,3.8c-1.1,1.5-3.2,0.5-4.2,0l-0.3-0.1c-2.1-0.9-4.6-1.2-8.1-0.9
			c-0.9,0.1-1.9,0.2-2.8,0.3c-1.5,0.2-3,0.3-4.5,0.4c-1,0-1.3,0.1-2.1,0.5C49.7,229.1,48.6,229.7,47.8,229.7z M62.7,224.9
			c2.1,0,4.5,0.3,6.7,1.2l0.3,0.2c0.3,0.1,0.5,0.2,0.8,0.3c-0.1-0.2-0.3-0.4-0.5-0.7l-0.2-0.3c-0.1-0.2-0.4-0.6-0.4-1
			c-0.2-1.4,1-2.1,1.6-2.5c0.2-0.1,0.3-0.2,0.4-0.3c0.7-0.6,0.4-2,0-3.2c-0.9-2.2-0.8-3.5-0.6-5c0.1-0.5,0.1-1,0.1-1.6
			c0.1-1.3-0.1-2.6-0.3-4c-0.2-1.5-0.4-3-0.4-4.5c0.2-3.2,0.5-6.4,0.7-9.5c0.4-5,0.9-10.1,0.9-15.3c0-0.2,0-0.6-0.1-0.8
			c0,0-0.2-0.1-0.6-0.2c-5.8-1.1-11.7-1.8-17.6-1.9c-2.7,0-5,0.7-6.1,2.2c-1,1.2-1.2,3-0.6,5.1c0.8,2.8,1.3,5.8,1.8,9.5
			c0.3,2.5,0.5,5,0.8,7.5l0.3,2.8c0.1,0.7,0.1,1.3,0.2,2c0.5,4.4,1,9-0.4,13.4c-0.4,1.3-0.4,2.3,0,2.9c0.1,0.1,0.2,0.2,0.3,0.3
			c0.3,0.3,0.6,0.7,0.8,1.3c0.4,1.4-0.4,2.6-1.1,3.5c0.1,0,0.1-0.1,0.2-0.1c1.3-0.7,1.8-0.8,3.2-0.8c1.4,0,2.9-0.2,4.4-0.4
			c1-0.1,1.9-0.2,2.9-0.3C60.9,225,61.8,224.9,62.7,224.9z"/>
	</g>
	<path d="M52.2,239.3c-0.6,0-1.2-0.5-1.2-1.2c-0.2-6.2,2.1-8.4,2.3-8.7c0.5-0.4,1.2-0.4,1.7,0.1c0.4,0.5,0.4,1.2-0.1,1.7
		c-0.1,0.1-1.7,1.8-1.6,6.8C53.4,238.8,52.9,239.3,52.2,239.3C52.3,239.3,52.3,239.3,52.2,239.3z"/>
	<path d="M59.7,239.8c-0.5,0-1-0.3-1.1-0.9c-1.3-4.5,1.1-8.9,1.2-9.1c0.3-0.6,1-0.8,1.6-0.5c0.6,0.3,0.8,1,0.5,1.6c0,0-2,3.7-1,7.3
		c0.2,0.6-0.2,1.3-0.8,1.5C59.9,239.8,59.8,239.8,59.7,239.8z"/>
</g>
<g>
	<circle style="fill:#C3C3C3;" cx="68.4" cy="150.6" r="3.2"/>
	<path d="M68.4,155c-2.4,0-4.4-2-4.4-4.4s2-4.4,4.4-4.4s4.4,2,4.4,4.4S70.8,155,68.4,155z M68.4,148.6c-1.1,0-2,0.9-2,2
		c0,1.1,0.9,2,2,2c1.1,0,2-0.9,2-2C70.4,149.5,69.5,148.6,68.4,148.6z"/>
</g>
<g>
	<circle style="fill:#C3C3C3;" cx="68.4" cy="163.7" r="3.2"/>
	<path d="M68.4,168c-2.4,0-4.4-2-4.4-4.4c0-2.4,2-4.4,4.4-4.4s4.4,2,4.4,4.4C72.8,166.1,70.8,168,68.4,168z M68.4,161.7
		c-1.1,0-2,0.9-2,2c0,1.1,0.9,2,2,2c1.1,0,2-0.9,2-2C70.4,162.6,69.5,161.7,68.4,161.7z"/>
</g>
<g>
	<g>
		<path style="fill:#F4BA76;" d="M33.2,138.9c0,0,4.9,36.3,19.7,45.5c14.8,9.3,18.6,6.9,20.3,3.2c1.5-3.3-0.1-7.1-1.8-10
			c-1.9-3.1-5.4-4.6-8.7-6c-1.6-0.6-3.7-0.8-5-1.9c-0.6-0.5-1.1-1-1.5-1.6c-4.2-5.8-6.1-13.3-8.4-20c-1.6-4.7-3.2-9.4-4.8-14.1
			L33.2,138.9z"/>
		<path d="M68.3,192.1c-3.6,0-8.8-2.2-16-6.6c-15.1-9.4-20.1-44.9-20.3-46.4c-0.1-0.5,0.2-1,0.6-1.2l9.7-4.9c0.3-0.2,0.7-0.2,1,0
			c0.3,0.1,0.6,0.4,0.7,0.7c1.6,4.7,3.2,9.4,4.8,14.1c0.4,1.2,0.8,2.4,1.2,3.6c1.8,5.6,3.7,11.5,7,16.2c0.4,0.6,0.8,1,1.2,1.4
			c0.7,0.5,1.7,0.8,2.8,1.1c0.7,0.2,1.4,0.4,2,0.6c3.7,1.5,7.3,3.1,9.3,6.5c2.6,4.2,3.2,8.1,1.9,11.1c-0.9,2-2.1,3.2-3.8,3.7
			C69.8,192,69.1,192.1,68.3,192.1z M34.6,139.6c0.8,5.4,6.1,35.8,19,43.9c7.9,4.9,13.3,6.9,16.2,6.1c1.1-0.3,1.8-1.1,2.4-2.4
			c1.3-2.9-0.3-6.4-1.8-8.9c-1.6-2.7-4.7-4.1-8.2-5.5c-0.5-0.2-1.1-0.4-1.7-0.5c-1.2-0.3-2.5-0.7-3.6-1.5c-0.6-0.5-1.1-1.1-1.7-1.9
			c-3.6-5-5.5-11-7.4-16.8c-0.4-1.2-0.8-2.4-1.2-3.5c-1.4-4.3-2.9-8.5-4.4-12.8L34.6,139.6z"/>
	</g>
	<g>
		<g>
			<path style="fill:#171717;" d="M49.3,113.1c2.2,2.9,1.8,4.2,0.4,7.5c-1.6,3.9-1.9,8.3-2.1,12.4c-0.2,4.9-0.1,9.9,1.4,14.5
				c2.5,7.7,8.4,14,13.2,20.3c0.2,0.3-15.9,10.3-17.4,11c-0.9,0.4-4.2-10.4-4.7-11.6c-1.6-3.5-2.8-7.2-3.7-10.9
				c-2.1-8.9-3.9-17.8-5-26.8c-0.6-5.5-0.3-11.1,2.1-16.2c3-6.5,11.3-5.6,15.3-0.7C49,112.7,49.2,112.9,49.3,113.1z"/>
			<path d="M44.8,180.1c-0.2,0-0.4,0-0.5-0.1c-0.9-0.4-1.7-1.8-4.4-9.8c-0.4-1.2-0.7-2.1-0.8-2.4c-1.6-3.6-2.9-7.3-3.8-11.1
				c-2-8.5-3.9-17.6-5-27c-0.7-6.6,0-12.1,2.2-16.9c1.4-3,3.9-4.8,7-5.3c3.8-0.5,7.8,1.2,10.3,4.2c0.2,0.2,0.3,0.4,0.5,0.6
				c2.6,3.4,2.1,5.1,0.6,8.7c-1.5,3.8-1.8,8-2,12c-0.2,4.6-0.2,9.5,1.3,14.1c1.9,6,6.1,11.2,10.2,16.3c1,1.2,1.9,2.4,2.9,3.6
				c0.2,0.3,0.3,0.7,0.2,1c-0.3,1.4-17.9,11.7-18.1,11.8C45.2,180,45,180.1,44.8,180.1z M40.8,109.8c-0.3,0-0.7,0-1,0.1
				c-1.6,0.2-3.9,1.1-5.2,3.9c-2,4.3-2.6,9.5-1.9,15.6c1,9.3,3,18.3,4.9,26.7c0.9,3.7,2.1,7.3,3.6,10.7c0.2,0.3,0.4,1.1,0.9,2.6
				c0.7,2,2.1,6.3,2.9,7.9c3-1.7,12.7-7.7,15.5-9.7c-0.7-0.9-1.4-1.8-2.1-2.7c-4.2-5.2-8.5-10.6-10.6-17.1
				c-1.6-4.9-1.6-10.1-1.4-14.9c0.2-4,0.5-8.7,2.2-12.8c1.3-3.2,1.6-3.9-0.3-6.4c0,0,0,0,0,0c-0.1-0.2-0.3-0.3-0.4-0.5
				C46.2,111.2,43.4,109.8,40.8,109.8z"/>
		</g>
		<g>
			<path style="fill:#C3C3C3;" d="M32.9,115l-11.8,1.5l10.4,4.6C31.4,121,34.9,118.2,32.9,115z"/>
			<path d="M31.4,122.2c-0.2,0-0.3,0-0.5-0.1l-10.4-4.6c-0.5-0.2-0.8-0.7-0.7-1.3c0.1-0.5,0.5-0.9,1-1l11.8-1.5
				c0.5-0.1,0.9,0.2,1.2,0.5c2.1,3.3-0.2,6.4-1.7,7.6C32,122.1,31.7,122.2,31.4,122.2z M25.5,117.1l5.7,2.5c0.6-0.7,1.5-1.9,1-3.4
				L25.5,117.1z"/>
		</g>
		<g>
			<path style="fill:#C3C3C3;" d="M32.2,123.1l-11.8,1.5l10.4,4.6C30.8,129.1,34.2,126.3,32.2,123.1z"/>
			<path d="M30.8,130.3c-0.2,0-0.3,0-0.5-0.1l-10.4-4.6c-0.5-0.2-0.8-0.7-0.7-1.3c0.1-0.5,0.5-0.9,1-1l11.8-1.5
				c0.5-0.1,0.9,0.2,1.2,0.5c2.1,3.3-0.2,6.4-1.7,7.6C31.3,130.2,31,130.3,30.8,130.3z M24.8,125.2l5.7,2.5c0.6-0.7,1.5-1.9,1-3.4
				L24.8,125.2z"/>
		</g>
		<g>
			<path style="fill:#C3C3C3;" d="M42.7,168.5l-7.9,8.8l10.8-3.3C45.6,174,46.4,169.6,42.7,168.5z"/>
			<path d="M34.8,178.5c-0.4,0-0.8-0.2-1-0.6c-0.3-0.5-0.2-1,0.1-1.4l7.9-8.8c0.3-0.3,0.8-0.5,1.2-0.3c3.7,1.1,4,5,3.7,6.9
				c-0.1,0.4-0.4,0.8-0.8,0.9l-10.8,3.3C35,178.5,34.9,178.5,34.8,178.5z M43.1,169.9l-4.5,5l6-1.8
				C44.5,172.2,44.4,170.7,43.1,169.9z"/>
		</g>
		<g>
			<path style="fill:#C3C3C3;" d="M46.9,164.6l-7.9,8.8l10.8-3.3C49.8,170.1,50.5,165.7,46.9,164.6z"/>
			<path d="M38.9,174.6c-0.4,0-0.8-0.2-1-0.6c-0.3-0.5-0.2-1,0.1-1.4l7.9-8.8c0.3-0.3,0.8-0.5,1.2-0.3c3.7,1.1,4,5,3.7,6.9
				c-0.1,0.4-0.4,0.8-0.8,0.9l-10.8,3.3C39.1,174.5,39,174.6,38.9,174.6z M47.2,166l-4.5,5l6-1.8C48.7,168.3,48.5,166.8,47.2,166z"
				/>
		</g>
		<g>
			<path style="fill:#C3C3C3;" d="M41.5,161.8l-7.9,8.8l10.8-3.3C44.4,167.3,45.2,162.9,41.5,161.8z"/>
			<path d="M33.6,171.8c-0.4,0-0.8-0.2-1-0.6c-0.3-0.5-0.2-1,0.1-1.4l7.9-8.8c0.3-0.3,0.8-0.5,1.2-0.3c3.7,1.1,4.1,5,3.7,6.9
				c-0.1,0.4-0.4,0.8-0.8,0.9l-10.8,3.3C33.8,171.8,33.7,171.8,33.6,171.8z M41.9,163.2l-4.5,5l6-1.8
				C43.4,165.5,43.2,164,41.9,163.2z"/>
		</g>
		<g>
			<path style="fill:#C3C3C3;" d="M35.7,118.9l-11.8,1.5l10.4,4.6C34.3,125,37.7,122.2,35.7,118.9z"/>
			<path d="M34.3,126.2c-0.2,0-0.3,0-0.5-0.1l-10.4-4.6c-0.5-0.2-0.8-0.7-0.7-1.3c0.1-0.5,0.5-0.9,1-1l11.8-1.5
				c0.5-0.1,0.9,0.2,1.2,0.5c2.1,3.3-0.2,6.4-1.7,7.6C34.8,126.1,34.5,126.2,34.3,126.2z M28.3,121.1l5.7,2.5c0.6-0.7,1.5-1.9,1-3.4
				L28.3,121.1z"/>
		</g>
	</g>
	<path d="M67.4,180.7c-1.5,0-3.3-0.6-5.4-1.8c-0.6-0.3-0.8-1-0.4-1.6c0.3-0.6,1-0.8,1.6-0.4c2.6,1.5,4.8,1.9,5.5,1
		c0.2-0.3,0.2-0.5,0.2-0.7c-0.3-1.3-3.5-2.9-4.8-3.6l-0.3-0.2c-0.6-0.3-0.8-1-0.5-1.6c0.3-0.6,1-0.8,1.6-0.5l0.3,0.2
		c2.8,1.4,5.5,3,6,5.2c0.2,0.9,0,1.8-0.6,2.7C69.8,180.2,68.7,180.7,67.4,180.7z"/>
</g>
<g>
	<g>
		<path style="fill:#F4BA76;" d="M116.8,138.9c0,0-4.9,36.3-19.7,45.5s-18.6,6.9-20.3,3.2c-1.5-3.3,0.1-7.1,1.8-10
			c1.9-3.1,5.4-4.6,8.7-6c1.6-0.6,3.7-0.8,5-1.9c0.6-0.5,1.1-1,1.5-1.6c4.2-5.8,6.1-13.3,8.4-20c1.6-4.7,3.2-9.4,4.8-14.1
			L116.8,138.9z"/>
		<path d="M81.7,192.1c-0.8,0-1.5-0.1-2.2-0.3c-1.7-0.5-3-1.7-3.8-3.7c-1.3-3-0.7-6.9,1.9-11.1c2-3.3,5.6-5,9.3-6.5
			c0.6-0.2,1.3-0.4,2-0.6c1.1-0.3,2.1-0.6,2.8-1.1c0.4-0.3,0.8-0.8,1.2-1.4c3.3-4.7,5.2-10.5,7-16.2c0.4-1.2,0.8-2.4,1.2-3.6
			c1.6-4.7,3.2-9.4,4.8-14.1c0.1-0.3,0.4-0.6,0.7-0.7s0.7-0.1,1,0l9.7,4.9c0.5,0.2,0.7,0.7,0.6,1.2c-0.2,1.5-5.2,36.9-20.3,46.4
			C90.5,190,85.3,192.1,81.7,192.1z M107.7,135.7c-1.5,4.3-2.9,8.5-4.3,12.8c-0.4,1.2-0.8,2.3-1.2,3.5c-1.9,5.8-3.8,11.8-7.4,16.8
			c-0.6,0.8-1.1,1.4-1.7,1.9c-1.1,0.8-2.4,1.2-3.6,1.5c-0.6,0.2-1.2,0.3-1.7,0.5c-3.5,1.4-6.5,2.8-8.2,5.5c-1.5,2.5-3,6-1.8,8.9
			c0.6,1.3,1.3,2,2.4,2.4c2.9,0.9,8.3-1.2,16.2-6.1c12.9-8.1,18.2-38.4,19-43.9L107.7,135.7z"/>
	</g>
	<g>
		<g>
			<path style="fill:#171717;" d="M100.7,113.1c-2.2,2.9-1.8,4.2-0.4,7.5c1.6,3.9,1.9,8.3,2.1,12.4c0.2,4.9,0.1,9.9-1.4,14.5
				c-2.5,7.7-8.4,14-13.2,20.3c-0.2,0.3,15.9,10.3,17.4,11c0.9,0.4,4.2-10.4,4.7-11.6c1.6-3.5,2.8-7.2,3.7-10.9
				c2.1-8.9,3.9-17.8,5-26.8c0.6-5.5,0.3-11.1-2.1-16.2c-3-6.5-11.3-5.6-15.3-0.7C101,112.7,100.8,112.9,100.7,113.1z"/>
			<path d="M105.2,180.1c-0.2,0-0.4,0-0.6-0.1c-0.2-0.1-17.7-10.3-18.1-11.8c-0.1-0.3,0-0.7,0.2-1c0.9-1.2,1.9-2.4,2.9-3.6
				c4.1-5.1,8.2-10.3,10.2-16.3c1.5-4.6,1.5-9.5,1.3-14.1c-0.2-3.8-0.5-8.2-2-12c-1.5-3.6-2-5.3,0.6-8.7c0,0,0,0,0,0
				c0.1-0.2,0.3-0.4,0.5-0.6c2.5-3.1,6.6-4.7,10.3-4.2c3.2,0.4,5.7,2.3,7,5.3c2.2,4.7,2.9,10.3,2.2,16.9c-1,9.4-3,18.5-5,27
				c-0.9,3.8-2.2,7.5-3.8,11.1c-0.1,0.3-0.4,1.2-0.9,2.4c-2.7,8-3.4,9.4-4.4,9.7C105.6,180,105.4,180.1,105.2,180.1z M89.4,167.7
				c2.9,2,12.5,8,15.5,9.7c0.8-1.6,2.3-5.9,2.9-7.9c0.5-1.5,0.8-2.3,0.9-2.7c1.5-3.4,2.8-7,3.6-10.7c1.9-8.4,3.9-17.4,4.9-26.7
				c0.7-6.2,0-11.3-1.9-15.6c-1.3-2.8-3.5-3.7-5.2-3.9c-2.9-0.4-6.2,1-8.2,3.4c-0.2,0.2-0.3,0.4-0.4,0.5c-1.9,2.5-1.6,3.2-0.3,6.4
				c1.7,4.1,2,8.8,2.2,12.8c0.2,4.8,0.2,10-1.4,14.9c-2.1,6.4-6.4,11.8-10.6,17.1C90.8,165.9,90.1,166.8,89.4,167.7z"/>
		</g>
		<g>
			<path style="fill:#C3C3C3;" d="M117.1,115l11.8,1.5l-10.4,4.6C118.6,121,115.1,118.2,117.1,115z"/>
			<path d="M118.6,122.2c-0.3,0-0.5-0.1-0.8-0.3c-1.5-1.2-3.7-4.3-1.7-7.6c0.2-0.4,0.7-0.6,1.2-0.5l11.8,1.5c0.5,0.1,0.9,0.5,1,1
				c0.1,0.5-0.2,1-0.7,1.3l-10.4,4.6C118.9,122.2,118.7,122.2,118.6,122.2z M117.8,116.3c-0.5,1.4,0.4,2.7,1,3.4l5.7-2.5
				L117.8,116.3z"/>
		</g>
		<g>
			<path style="fill:#C3C3C3;" d="M117.8,123.1l11.8,1.5l-10.4,4.6C119.2,129.1,115.8,126.3,117.8,123.1z"/>
			<path d="M119.2,130.3c-0.3,0-0.5-0.1-0.8-0.3c-1.5-1.2-3.7-4.3-1.7-7.6c0.2-0.4,0.7-0.6,1.2-0.5l11.8,1.5c0.5,0.1,0.9,0.5,1,1
				c0.1,0.5-0.2,1-0.7,1.3l-10.4,4.6C119.6,130.3,119.4,130.3,119.2,130.3z M118.5,124.3c-0.5,1.4,0.4,2.7,1,3.4l5.7-2.5
				L118.5,124.3z"/>
		</g>
		<g>
			<path style="fill:#C3C3C3;" d="M107.3,168.5l7.9,8.8l-10.8-3.3C104.4,174,103.6,169.6,107.3,168.5z"/>
			<path d="M115.2,178.5c-0.1,0-0.2,0-0.3-0.1l-10.8-3.3c-0.4-0.1-0.7-0.5-0.8-0.9c-0.3-1.9,0-5.7,3.7-6.9c0.4-0.1,0.9,0,1.2,0.3
				l7.9,8.8c0.4,0.4,0.4,1,0.1,1.4C116,178.3,115.6,178.5,115.2,178.5z M105.5,173.1l6,1.8l-4.5-5
				C105.6,170.7,105.5,172.2,105.5,173.1z"/>
		</g>
		<g>
			<path style="fill:#C3C3C3;" d="M103.1,164.6l7.9,8.8l-10.8-3.3C100.2,170.1,99.5,165.7,103.1,164.6z"/>
			<path d="M111.1,174.6c-0.1,0-0.2,0-0.3-0.1l-10.8-3.3c-0.4-0.1-0.7-0.5-0.8-0.9c-0.3-1.9,0-5.7,3.7-6.9c0.4-0.1,0.9,0,1.2,0.3
				l7.9,8.8c0.4,0.4,0.4,1,0.1,1.4C111.9,174.4,111.5,174.6,111.1,174.6z M101.4,169.2l6,1.8l-4.5-5
				C101.5,166.8,101.3,168.3,101.4,169.2z"/>
		</g>
		<g>
			<path style="fill:#C3C3C3;" d="M108.5,161.8l7.9,8.8l-10.8-3.3C105.6,167.3,104.8,162.9,108.5,161.8z"/>
			<path d="M116.4,171.8c-0.1,0-0.2,0-0.3-0.1l-10.8-3.3c-0.4-0.1-0.7-0.5-0.8-0.9c-0.3-1.9,0-5.7,3.7-6.9c0.4-0.1,0.9,0,1.2,0.3
				l7.9,8.8c0.4,0.4,0.4,1,0.1,1.4C117.2,171.6,116.8,171.8,116.4,171.8z M106.7,166.4l6,1.8l-4.5-5
				C106.8,164,106.6,165.5,106.7,166.4z"/>
		</g>
		<g>
			<path style="fill:#C3C3C3;" d="M114.3,118.9l11.8,1.5l-10.4,4.6C115.7,125,112.3,122.2,114.3,118.9z"/>
			<path d="M115.7,126.2c-0.3,0-0.5-0.1-0.8-0.3c-1.5-1.2-3.7-4.3-1.7-7.6c0.2-0.4,0.7-0.6,1.2-0.5l11.8,1.5c0.5,0.1,0.9,0.5,1,1
				c0.1,0.5-0.2,1-0.7,1.3l-10.4,4.6C116.1,126.2,115.9,126.2,115.7,126.2z M115,120.2c-0.5,1.4,0.4,2.7,1,3.4l5.7-2.5L115,120.2z"
				/>
		</g>
	</g>
	<path d="M82.6,180.7c-1.4,0-2.4-0.5-3.2-1.5c-0.6-0.8-0.8-1.7-0.6-2.7c0.5-2.2,3.3-3.8,6.1-5.2l0.3-0.2c0.6-0.3,1.3-0.1,1.6,0.5
		c0.3,0.6,0.1,1.3-0.5,1.6l-0.3,0.2c-1.3,0.7-4.5,2.3-4.8,3.6c0,0.2,0,0.4,0.2,0.7c0.7,0.9,2.8,0.5,5.5-1c0.6-0.3,1.3-0.1,1.6,0.4
		c0.3,0.6,0.1,1.3-0.4,1.6C86,180.1,84.1,180.7,82.6,180.7z"/>
</g>
<g>
	<g>
		<path style="fill:#FD699D;" d="M54.5,188.7c-0.2,0.3-0.5,0.7-0.4,1.2c0.1,0.4,0.5,0.7,0.8,0.9c0.9,0.6,1.8,1.2,2.7,1.8
			c0.4,0.3,0.8,0.5,1.3,0.5c0.4-0.1,0.7-0.3,1-0.6c4-3.7,7.6-7.8,10.7-12.2c0.2,9.6-0.2,19.2-1.1,28.8c1.1,0.6,2.6,0,3.3-1.1
			c0.7-1.1,0.8-2.4,0.9-3.7c0.4-7.5,0.8-15,1.3-22.6c3.8,8.4,6.8,17.2,9,26.2c1.2-0.6,2.4-1.1,3.6-1.7c0.8-9.3-6.6-17.2-8.9-26.2
			c3,3.7,6,7.4,9,11c0.4,0.5,0.9,1.1,1.5,1.2c1.2,0.3,2.4-0.8,2.5-2s-0.4-2.4-0.9-3.5c-1.7-3.3-3.9-6.3-6.4-9c-1-1-2-2.1-3.4-2.5
			c-4-1.2-12.1,2.4-16.1,4C60.3,181.1,57.2,184.9,54.5,188.7z"/>
		<path d="M79,175.1c0.7,0,1.3,0.1,1.9,0.2c1.4,0.4,2.4,1.4,3.4,2.5c2.5,2.7,4.7,5.7,6.4,9c0.6,1.1,1.1,2.3,0.9,3.5
			c-0.1,1.1-1.1,2.1-2.1,2.1c-0.1,0-0.3,0-0.4-0.1c-0.6-0.2-1.1-0.7-1.5-1.2c-3-3.7-6-7.4-9-11c2.3,9.1,9.7,16.9,8.9,26.2
			c-1.2,0.6-2.4,1.1-3.6,1.7c-2.2-9-5.2-17.8-9-26.2c-0.4,7.5-0.8,15-1.3,22.6c-0.1,1.3-0.2,2.6-0.9,3.7c-0.5,0.8-1.4,1.4-2.3,1.4
			c-0.3,0-0.7-0.1-1-0.3c1-9.6,1.3-19.2,1.1-28.8c-3.1,4.4-6.7,8.5-10.7,12.2c-0.3,0.3-0.6,0.6-1,0.6c0,0-0.1,0-0.1,0
			c-0.4,0-0.8-0.2-1.2-0.5c-0.9-0.6-1.8-1.2-2.7-1.8c-0.4-0.2-0.8-0.5-0.8-0.9c-0.1-0.4,0.2-0.8,0.4-1.2c2.7-3.8,5.9-7.6,10.3-9.4
			C68.2,177.9,74.7,175.1,79,175.1 M79,172.7c-4.4,0-10.2,2.4-14,4l-1.1,0.4c-5,2-8.4,6.1-11.3,10.2c-0.3,0.4-1.1,1.5-0.8,3
			c0.3,1.5,1.4,2.2,1.9,2.5l1.4,0.9l1.4,0.9c0.5,0.3,1.3,0.9,2.5,0.9c0.2,0,0.3,0,0.5,0c1.2-0.2,1.9-0.9,2.3-1.2
			c2.4-2.2,4.6-4.5,6.7-7c-0.1,7.2-0.5,14.5-1.2,21.6c-0.1,0.9,0.4,1.8,1.2,2.3c0.6,0.4,1.4,0.6,2.2,0.6c1.7,0,3.4-1,4.3-2.5
			c1-1.6,1.1-3.5,1.2-4.9l0.7-12.1c1.9,5.3,3.6,10.6,4.9,16.1c0.2,0.7,0.6,1.3,1.3,1.6c0.3,0.2,0.7,0.2,1,0.2c0.3,0,0.7-0.1,1-0.2
			l3.6-1.7c0.8-0.4,1.3-1.1,1.4-2c0.4-4.5-0.9-8.5-2.6-12.4c0.3,0.2,0.7,0.4,1.2,0.5c0.4,0.1,0.7,0.2,1.1,0.2c2.2,0,4.1-1.8,4.5-4.1
			c0.3-1.9-0.4-3.5-1.2-4.9c-1.8-3.4-4.1-6.6-6.8-9.5c-1.2-1.3-2.6-2.6-4.5-3.1C80.8,172.8,79.9,172.7,79,172.7L79,172.7z"/>
	</g>
	<g>
		<path style="fill:#FFFFFF;" d="M40.3,144.8c-2.4,5.7-4.3,11.8-1.3,17.7c0.4,0.8,1,1.6,1.1,2.6c0.2,0.8,0.1,1.5,0,2.3
			c-0.3,8.9,5.6,11.7,13.3,14.4c2,6.4,10.2,9.4,16.8,9.7c2,0.1,4-0.2,5.9-0.5c3.4-0.5,6.8-1,10.2-1.6c8.4-1.3,17-2.9,18.9-11.8
			c0.2-0.8,0.3-1.7,0.8-2.5c0.5-0.8,1.2-1.4,1.9-2.1c6.1-5.9,4.4-14,2.9-21c-1.3-5.9,0-13.6-5.4-17.9c-3.6-2.9-9-2.9-12.8-5.7
			c-1.4-1-2.5-2.5-4.1-3.3c-4.1-2.2-11.9-1.2-16.7-1.7c-4.3-0.4-7.6,0-11.4,1.8C50.6,129.8,43.9,136.2,40.3,144.8z"/>
		<path d="M69,123.2c0.9,0,1.9,0.1,2.9,0.2c4.7,0.5,12.5-0.5,16.7,1.7c1.6,0.8,2.7,2.3,4.1,3.3c3.7,2.8,9.1,2.8,12.8,5.7
			c5.5,4.3,4.2,12.1,5.4,17.9c1.5,7.1,3.2,15.1-2.9,21c-0.7,0.7-1.5,1.3-1.9,2.1c-0.4,0.8-0.6,1.6-0.8,2.5
			c-1.9,8.9-10.6,10.5-18.9,11.8c-3.4,0.5-6.8,1-10.2,1.6c-1.8,0.3-3.5,0.5-5.3,0.5c-0.2,0-0.4,0-0.6,0c-6.6-0.3-14.8-3.2-16.8-9.7
			c-7.7-2.7-13.6-5.5-13.3-14.4c0-0.8,0.1-1.5,0-2.3c-0.2-0.9-0.7-1.7-1.1-2.6c-3.1-5.8-1.1-11.9,1.3-17.7
			c3.6-8.7,10.3-15.1,20.2-19.7C63.5,123.8,66,123.2,69,123.2 M69,120.9c-3.4,0-6.3,0.7-9.5,2.2c-10.7,4.9-17.7,11.8-21.4,20.9
			c-2.4,5.9-4.8,12.8-1.2,19.7c0.1,0.2,0.2,0.3,0.3,0.5c0.3,0.5,0.6,1,0.6,1.4c0.1,0.3,0,0.7,0,1.2c0,0.2,0,0.4,0,0.5
			c-0.3,10.1,6.2,13.6,13.8,16.4c2.8,6.6,11.2,9.9,18.5,10.2c0.2,0,0.5,0,0.7,0c2,0,3.8-0.3,5.7-0.6l10.2-1.6
			c7.8-1.2,18.5-2.8,20.9-13.7l0.1-0.4c0.1-0.6,0.2-1.1,0.4-1.4c0.2-0.3,0.6-0.7,1-1.1c0.2-0.2,0.4-0.3,0.5-0.5
			c7-6.9,5.1-16,3.5-23.2c-0.3-1.5-0.5-3.2-0.6-4.9c-0.4-5-0.9-10.6-5.7-14.4c-2.2-1.7-4.8-2.5-7.3-3.3c-2.1-0.7-4.1-1.3-5.6-2.4
			c-0.5-0.3-0.9-0.8-1.4-1.2c-0.8-0.8-1.8-1.6-3-2.3c-3.4-1.8-8.3-1.8-12.6-1.8c-1.8,0-3.6,0-4.9-0.1C71,120.9,70,120.9,69,120.9
			L69,120.9z"/>
	</g>
	<g>
		<g>
			<g>
				<path style="fill:#FC0000;" d="M56.6,165.4c-1.2,1-2,2.5-1.7,4c0.2,0.8,0.7,1.5,0.8,2.3c0.1,0.6-0.1,1.1-0.1,1.7
					c-0.2,2.4,1.9,4.8,4.4,4.9c0.4,0,0.9,0,1.3,0.1c0.5,0.1,1,0.5,1.5,0.7c1.5,0.9,3.5,0.9,5.1,0.2c1.6-0.7,2.9-2.2,3.3-3.9
					c0.1-0.4,0.2-0.7,0.4-1c0.2-0.3,0.6-0.4,0.9-0.6c1-0.6,1.6-1.8,1.7-3c0.1-1.2-0.2-2.4-0.6-3.5c-0.2-0.6-0.4-1.3-0.9-1.7
					c-0.4-0.3-0.8-0.6-1.2-0.9c-1-0.8-1.2-2.2-1.9-3.3c-1.1-1.6-3.4-2.2-5.3-1.6c-1.8,0.6-2.4,2-3.7,3.2
					C59.4,164.1,57.8,164.4,56.6,165.4z"/>
				<path d="M65.8,159.7c1.5,0,2.9,0.6,3.7,1.8c0.7,1,1,2.4,1.9,3.3c0.4,0.3,0.8,0.5,1.2,0.9c0.5,0.5,0.7,1.1,0.9,1.7
					c0.4,1.1,0.7,2.3,0.6,3.5c-0.1,1.2-0.7,2.4-1.7,3c-0.3,0.2-0.7,0.3-0.9,0.6c-0.2,0.3-0.3,0.7-0.4,1c-0.4,1.7-1.7,3.2-3.3,3.9
					c-0.7,0.3-1.5,0.5-2.3,0.5c-1,0-1.9-0.2-2.8-0.7c-0.5-0.3-0.9-0.6-1.5-0.7c-0.2-0.1-0.5-0.1-0.7-0.1c-0.1,0-0.2,0-0.4,0
					c-0.1,0-0.1,0-0.2,0c-2.5-0.1-4.6-2.5-4.4-4.9c0-0.6,0.2-1.1,0.1-1.7c-0.1-0.8-0.6-1.5-0.8-2.3c-0.3-1.5,0.5-3,1.7-4
					c1.2-1,2.8-1.3,3.9-2.3c1.3-1.2,1.9-2.6,3.7-3.2C64.7,159.8,65.3,159.7,65.8,159.7 M65.8,157.3c-0.8,0-1.6,0.1-2.3,0.4
					c-1.9,0.6-2.9,1.8-3.7,2.7c-0.3,0.3-0.6,0.7-0.9,0.9c-0.3,0.3-0.9,0.6-1.5,0.8c-0.7,0.3-1.6,0.7-2.4,1.4c-2,1.6-3,4.1-2.5,6.4
					c0.1,0.5,0.3,1,0.5,1.4c0.1,0.2,0.2,0.5,0.2,0.6c0,0.1,0,0.3-0.1,0.5c0,0.2-0.1,0.5-0.1,0.7c-0.1,1.8,0.5,3.7,1.8,5.1
					c1.3,1.4,3.1,2.3,4.9,2.4c0.1,0,0.2,0,0.3,0l0.2,0l0.2,0c0,0,0.1,0,0.1,0c0,0,0.1,0,0.1,0c0,0,0.2,0.1,0.4,0.2
					c0.1,0.1,0.3,0.2,0.4,0.2c1.2,0.7,2.6,1,3.9,1c1.1,0,2.2-0.2,3.2-0.7c2.3-1,4-3.1,4.7-5.5l0,0c0.1,0,0.1-0.1,0.2-0.1
					c1.6-0.9,2.7-2.7,2.9-4.8c0.1-1.6-0.3-3.1-0.7-4.4c-0.2-0.6-0.6-1.8-1.5-2.7c-0.4-0.3-0.7-0.6-1-0.8c-0.1-0.1-0.2-0.1-0.3-0.2
					c-0.2-0.2-0.4-0.6-0.6-1.1c-0.2-0.5-0.5-1.1-0.9-1.7C70.2,158.4,68.1,157.3,65.8,157.3L65.8,157.3z"/>
			</g>
			<path d="M60.1,171.3c-0.3,0-0.5-0.1-0.8-0.3c-0.3-0.3-0.5-0.6-0.5-1.1c0-0.7,0.4-1.3,0.6-1.5c1.3-1.4,3.1-2.5,5-2.9
				c0.6-0.1,1.3,0.3,1.4,0.9c0.1,0.6-0.3,1.3-0.9,1.4c-1.4,0.3-2.6,1-3.6,2c0.1,0.3,0,0.7-0.3,1C60.8,171.2,60.5,171.3,60.1,171.3z
				 M60.9,169.2L60.9,169.2L60.9,169.2z"/>
			<path d="M64.6,174.2c-0.4,0-0.7-0.2-0.9-0.5c-0.5-0.6-0.8-1.3-1.1-2c-0.2-0.6,0.1-1.3,0.7-1.5c0.6-0.2,1.3,0.1,1.5,0.7
				c0.2,0.5,0.4,0.9,0.7,1.3c0.4,0.5,0.3,1.3-0.2,1.7C65.1,174.1,64.8,174.2,64.6,174.2z"/>
			<path d="M68,174.9c-0.2,0-0.4,0-0.6-0.1c-0.6-0.3-0.8-1-0.5-1.6c0.4-0.8,0.9-1.6,1-2.3c0.1-0.7,0-1.3-0.4-1.7
				c-0.5-0.5-0.5-1.2,0-1.7c0.5-0.5,1.2-0.5,1.7,0c0.9,0.9,1.3,2.3,1,3.8c-0.2,1.2-0.8,2.2-1.3,3C68.8,174.7,68.4,174.9,68,174.9z"
				/>
		</g>
		<g>
			<g>
				<path style="fill:#FC0000;" d="M79.4,162.5c-1.5,0.3-2.9,1.4-3.2,2.9c-0.2,0.8,0,1.6-0.3,2.4c-0.2,0.5-0.6,1-0.9,1.4
					c-1.3,2.1-0.4,5.2,1.8,6.3c0.4,0.2,0.8,0.4,1.2,0.6c0.4,0.3,0.7,0.8,1,1.3c1,1.4,2.7,2.4,4.5,2.4c1.8,0.1,3.5-0.7,4.7-2.1
					c0.2-0.3,0.5-0.6,0.8-0.7c0.3-0.2,0.7-0.1,1.1-0.1c1.2-0.1,2.2-0.9,2.8-1.9c0.6-1,0.9-2.2,1-3.4c0.1-0.7,0.2-1.3-0.1-2
					c-0.2-0.5-0.5-0.9-0.7-1.3c-0.5-1.2-0.1-2.5-0.3-3.8c-0.3-1.9-2.1-3.5-4.1-3.7c-1.9-0.3-3,0.7-4.7,1.2
					C82.5,162.6,80.9,162.1,79.4,162.5z"/>
				<path d="M88.1,160.9c0.2,0,0.4,0,0.6,0c2,0.3,3.8,1.8,4.1,3.7c0.2,1.3-0.2,2.6,0.3,3.8c0.2,0.5,0.5,0.8,0.7,1.3
					c0.2,0.6,0.2,1.3,0.1,2c-0.2,1.2-0.4,2.4-1,3.4c-0.6,1-1.7,1.8-2.8,1.9c-0.4,0-0.8,0-1.1,0.1c-0.3,0.1-0.6,0.5-0.8,0.7
					c-1.1,1.3-2.8,2.1-4.4,2.1c-0.1,0-0.2,0-0.2,0c-1.8-0.1-3.5-1-4.5-2.4c-0.3-0.4-0.6-0.9-1-1.3c-0.3-0.3-0.8-0.4-1.2-0.6
					c-2.2-1.2-3-4.2-1.8-6.3c0.3-0.5,0.7-0.9,0.9-1.4c0.3-0.8,0.1-1.6,0.3-2.4c0.3-1.5,1.8-2.5,3.2-2.9c0.5-0.1,1.1-0.1,1.6-0.1
					c0.3,0,0.7,0,1,0c0.6,0,1.3,0,1.9-0.2C85.5,161.7,86.5,160.9,88.1,160.9 M88.1,158.5c-1.5,0-2.6,0.5-3.6,0.9
					c-0.4,0.2-0.8,0.3-1.2,0.5c-0.4,0.1-0.8,0.1-1.2,0.1l-0.5,0l-0.6,0c-0.6,0-1.4,0-2.2,0.2c-2.5,0.6-4.5,2.4-5,4.6
					c-0.1,0.5-0.2,1-0.2,1.4c0,0.2,0,0.6-0.1,0.7c0,0.1-0.2,0.3-0.3,0.5c-0.1,0.2-0.3,0.4-0.4,0.6c-0.9,1.6-1.2,3.5-0.6,5.4
					c0.5,1.9,1.7,3.4,3.3,4.3c0.1,0.1,0.3,0.2,0.5,0.2c0.1,0.1,0.2,0.1,0.3,0.2c0,0,0.2,0.2,0.3,0.4c0.1,0.1,0.2,0.3,0.3,0.4
					c1.4,2.1,3.8,3.3,6.3,3.4c0.1,0,0.2,0,0.3,0c2.4,0,4.7-1.1,6.3-2.9l0,0c0.1,0,0.1,0,0.2,0c1.9-0.1,3.7-1.2,4.7-3.1
					c0.8-1.4,1.1-2.9,1.3-4.3c0.1-0.7,0.3-1.9-0.2-3.1c-0.2-0.5-0.4-0.8-0.6-1.1c-0.1-0.1-0.1-0.2-0.2-0.3c-0.1-0.2-0.1-0.8-0.1-1.2
					c0-0.6,0-1.3-0.1-2c-0.5-2.9-3-5.3-6.1-5.7C88.7,158.5,88.4,158.5,88.1,158.5L88.1,158.5z"/>
			</g>
			<path d="M80.5,169.5c-0.5,0-0.9-0.3-1.1-0.7c-0.2-0.4-0.2-0.8,0-1.2c0.3-0.7,0.9-1,1.2-1.1c1.8-0.7,3.8-0.9,5.7-0.4
				c0.6,0.2,1,0.8,0.9,1.4c-0.2,0.6-0.8,1-1.4,0.9c-1.3-0.3-2.8-0.3-4.1,0.2c-0.1,0.3-0.3,0.6-0.7,0.8
				C80.9,169.4,80.7,169.5,80.5,169.5z M81.6,167.8C81.6,167.8,81.6,167.8,81.6,167.8C81.6,167.8,81.6,167.8,81.6,167.8z"/>
			<path d="M83.3,174c-0.6,0-1-0.4-1.2-0.9c-0.2-0.7-0.2-1.5-0.1-2.2c0.1-0.7,0.6-1.1,1.3-1c0.7,0.1,1.1,0.7,1,1.3
				c-0.1,0.5,0,1,0.1,1.5c0.1,0.6-0.3,1.3-0.9,1.4C83.4,174,83.3,174,83.3,174z"/>
			<path d="M86,176.1c-0.4,0-0.7-0.2-1-0.5c-0.4-0.5-0.3-1.3,0.3-1.7c0.7-0.5,1.4-1,1.9-1.7c0.4-0.6,0.6-1.2,0.4-1.7
				c-0.2-0.6,0.1-1.3,0.7-1.5c0.6-0.2,1.3,0.1,1.5,0.7c0.4,1.2,0.1,2.6-0.8,3.8c-0.7,0.9-1.6,1.6-2.5,2.2
				C86.5,176.1,86.2,176.1,86,176.1z"/>
		</g>
		<g>
			<g>
				<path style="fill:#FC0000;" d="M52.3,147.1c-1.5,0.3-2.9,1.4-3.2,2.9c-0.2,0.8,0,1.6-0.3,2.4c-0.2,0.5-0.6,1-0.9,1.4
					c-1.3,2.1-0.4,5.2,1.8,6.3c0.4,0.2,0.8,0.4,1.2,0.6c0.4,0.3,0.7,0.8,1,1.3c1,1.4,2.7,2.4,4.5,2.4c1.8,0.1,3.5-0.7,4.7-2.1
					c0.2-0.3,0.5-0.6,0.8-0.7c0.3-0.2,0.7-0.1,1.1-0.1c1.2-0.1,2.2-0.9,2.8-1.9c0.6-1,0.9-2.2,1-3.4c0.1-0.7,0.2-1.3-0.1-2
					c-0.2-0.5-0.5-0.9-0.7-1.3c-0.5-1.2-0.1-2.5-0.3-3.8c-0.3-1.9-2.1-3.5-4.1-3.7c-1.9-0.3-3,0.7-4.7,1.2
					C55.3,147.2,53.8,146.7,52.3,147.1z"/>
				<path d="M60.9,145.5c0.2,0,0.4,0,0.6,0c2,0.3,3.8,1.8,4.1,3.7c0.2,1.3-0.2,2.6,0.3,3.8c0.2,0.5,0.5,0.8,0.7,1.3
					c0.2,0.6,0.2,1.3,0.1,2c-0.2,1.2-0.4,2.4-1,3.4c-0.6,1-1.7,1.8-2.8,1.9c-0.4,0-0.8,0-1.1,0.1c-0.3,0.1-0.6,0.5-0.8,0.7
					c-1.1,1.3-2.8,2.1-4.4,2.1c-0.1,0-0.2,0-0.2,0c-1.8-0.1-3.5-1-4.5-2.4c-0.3-0.4-0.6-0.9-1-1.3c-0.3-0.3-0.8-0.4-1.2-0.6
					c-2.2-1.2-3-4.2-1.8-6.3c0.3-0.5,0.7-0.9,0.9-1.4c0.3-0.8,0.1-1.6,0.3-2.4c0.3-1.5,1.8-2.5,3.2-2.9c0.5-0.1,1.1-0.1,1.6-0.1
					c0.3,0,0.7,0,1,0c0.6,0,1.3,0,1.9-0.2C58.3,146.3,59.4,145.5,60.9,145.5 M60.9,143.1c-1.5,0-2.6,0.5-3.6,0.9
					c-0.4,0.2-0.8,0.3-1.2,0.5c-0.4,0.1-0.8,0.1-1.2,0.1l-0.5,0l-0.6,0c-0.6,0-1.4,0-2.2,0.2c-2.5,0.6-4.5,2.4-5,4.6
					c-0.1,0.5-0.2,1-0.2,1.4c0,0.2,0,0.6-0.1,0.7c0,0.1-0.2,0.3-0.3,0.5c-0.1,0.2-0.3,0.4-0.4,0.6c-0.9,1.6-1.2,3.5-0.6,5.4
					c0.5,1.9,1.7,3.4,3.3,4.3c0.1,0.1,0.3,0.2,0.5,0.2c0.1,0.1,0.2,0.1,0.3,0.2c0,0,0.2,0.2,0.3,0.4c0.1,0.1,0.2,0.3,0.3,0.4
					c1.4,2.1,3.8,3.3,6.3,3.4c0.1,0,0.2,0,0.3,0c2.4,0,4.7-1.1,6.3-2.9l0,0c0.1,0,0.1,0,0.2,0c1.9-0.1,3.7-1.2,4.7-3.1
					c0.8-1.4,1.1-2.9,1.3-4.3c0.1-0.7,0.3-1.9-0.2-3.1c-0.2-0.5-0.4-0.8-0.6-1.1c-0.1-0.1-0.1-0.2-0.2-0.3c-0.1-0.2-0.1-0.8-0.1-1.2
					c0-0.6,0-1.3-0.1-2c-0.5-2.9-3-5.3-6.1-5.7C61.5,143.1,61.2,143.1,60.9,143.1L60.9,143.1z"/>
			</g>
			<path d="M53.4,154.1c-0.5,0-0.9-0.3-1.1-0.7c-0.2-0.4-0.2-0.8,0-1.2c0.3-0.7,0.9-1,1.2-1.1c1.8-0.7,3.8-0.9,5.7-0.4
				c0.6,0.2,1,0.8,0.9,1.4s-0.8,1-1.4,0.9c-1.3-0.3-2.8-0.3-4.1,0.2c-0.1,0.3-0.3,0.6-0.7,0.8C53.7,154,53.6,154.1,53.4,154.1z
				 M54.5,152.4C54.5,152.4,54.5,152.4,54.5,152.4C54.5,152.4,54.5,152.4,54.5,152.4z"/>
			<path d="M56.1,158.6c-0.5,0-1-0.4-1.2-0.9c-0.2-0.7-0.2-1.5-0.1-2.2c0.1-0.7,0.6-1.1,1.3-1c0.7,0.1,1.1,0.7,1,1.3
				c-0.1,0.5,0,1,0.1,1.5c0.1,0.6-0.3,1.3-0.9,1.4C56.3,158.6,56.2,158.6,56.1,158.6z"/>
			<path d="M58.9,160.7c-0.4,0-0.7-0.2-1-0.5c-0.4-0.5-0.3-1.3,0.3-1.7c0.7-0.5,1.5-1,1.9-1.7c0.4-0.6,0.6-1.2,0.4-1.7
				c-0.2-0.6,0.1-1.3,0.8-1.5c0.6-0.2,1.3,0.1,1.5,0.7c0.4,1.2,0.1,2.6-0.8,3.8c-0.7,0.9-1.6,1.6-2.5,2.2
				C59.4,160.7,59.1,160.7,58.9,160.7z"/>
		</g>
		<g>
			<g>
				<path style="fill:#FC0000;" d="M90,131.4c-0.9-1.2-2.5-2.1-3.9-1.8c-0.8,0.2-1.5,0.6-2.3,0.7c-0.6,0-1.1-0.1-1.7-0.2
					c-2.4-0.3-4.9,1.8-5,4.3c0,0.4,0,0.9-0.1,1.3c-0.1,0.5-0.5,1-0.8,1.4c-0.9,1.5-1,3.5-0.4,5.1c0.7,1.6,2.1,2.9,3.8,3.4
					c0.3,0.1,0.7,0.2,1,0.4c0.3,0.2,0.4,0.6,0.6,0.9c0.6,1.1,1.7,1.7,2.9,1.8c1.2,0.1,2.4-0.1,3.5-0.5c0.6-0.2,1.3-0.4,1.8-0.9
					c0.4-0.3,0.6-0.8,0.9-1.2c0.9-0.9,2.3-1.1,3.3-1.8c1.6-1.1,2.3-3.4,1.7-5.3c-0.6-1.8-1.9-2.5-3.1-3.8
					C91.2,134.2,91,132.6,90,131.4z"/>
				<path d="M86.7,129.5c1.3,0,2.5,0.8,3.3,1.8c1,1.2,1.2,2.8,2.2,4c1.2,1.3,2.5,1.9,3.1,3.8c0.6,1.9,0,4.2-1.7,5.3
					c-1.1,0.7-2.5,0.9-3.3,1.8c-0.3,0.4-0.6,0.8-0.9,1.2c-0.5,0.5-1.1,0.7-1.8,0.9c-0.9,0.3-1.9,0.5-2.9,0.5c-0.2,0-0.4,0-0.6,0
					c-1.2-0.1-2.4-0.7-2.9-1.8c-0.2-0.3-0.3-0.7-0.6-0.9c-0.3-0.2-0.6-0.3-1-0.4c-1.7-0.5-3.1-1.8-3.8-3.4c-0.7-1.6-0.5-3.6,0.4-5.1
					c0.3-0.5,0.6-0.9,0.8-1.4c0.1-0.4,0.1-0.9,0.1-1.3c0.1-2.3,2.3-4.3,4.6-4.3c0.1,0,0.3,0,0.4,0c0.5,0.1,1,0.2,1.5,0.2
					c0.1,0,0.1,0,0.2,0c0.8-0.1,1.5-0.5,2.3-0.7C86.3,129.5,86.5,129.5,86.7,129.5 M86.7,127.1c-0.4,0-0.7,0-1.1,0.1
					c-0.5,0.1-1,0.3-1.4,0.4c-0.2,0.1-0.5,0.2-0.6,0.2c0,0,0,0,0,0c-0.1,0-0.3,0-0.5-0.1c-0.2,0-0.5-0.1-0.7-0.1c-0.2,0-0.4,0-0.7,0
					c-3.6,0-6.8,3-7,6.5c0,0.2,0,0.3,0,0.5c0,0.1,0,0.3,0,0.4c0,0-0.1,0.2-0.2,0.4c-0.1,0.1-0.2,0.3-0.3,0.4
					c-1.3,2.2-1.5,4.9-0.5,7.2c0.9,2.3,3,4.1,5.4,4.8l0,0c0,0.1,0.1,0.1,0.1,0.2c0.9,1.7,2.7,2.8,4.8,3c0.3,0,0.6,0,0.9,0
					c1.3,0,2.5-0.3,3.5-0.6c0.6-0.2,1.8-0.5,2.8-1.5c0.4-0.4,0.6-0.7,0.8-1c0.1-0.1,0.1-0.2,0.2-0.3c0.2-0.2,0.7-0.4,1.1-0.6
					c0.5-0.2,1.2-0.5,1.8-0.9c2.4-1.6,3.6-4.9,2.7-7.9c-0.6-1.9-1.7-2.9-2.6-3.8c-0.3-0.3-0.6-0.6-0.9-0.9c-0.3-0.4-0.5-0.9-0.8-1.5
					c-0.3-0.7-0.7-1.6-1.3-2.4C90.6,128.2,88.7,127.1,86.7,127.1L86.7,127.1z"/>
			</g>
			<path d="M88.5,140.6c-0.6,0-1.1-0.4-1.2-1c-0.2-1.4-0.9-2.6-1.9-3.6c-0.3,0.1-0.7,0-1-0.3c-0.5-0.4-0.5-1.2-0.1-1.7
				c0.3-0.3,0.7-0.5,1.1-0.5c0.7,0,1.3,0.4,1.5,0.6c1.4,1.3,2.4,3.1,2.7,5.1c0.1,0.6-0.3,1.3-1,1.4
				C88.6,140.6,88.6,140.6,88.5,140.6z"/>
			<path d="M82.3,140.3c-0.4,0-0.7-0.2-1-0.5c-0.4-0.5-0.3-1.3,0.3-1.7c0.6-0.4,1.3-0.8,2-1c0.6-0.2,1.3,0.1,1.5,0.8
				c0.2,0.6-0.1,1.3-0.8,1.5c-0.5,0.2-0.9,0.4-1.3,0.7C82.8,140.3,82.5,140.3,82.3,140.3z"/>
			<path d="M84.9,145c-0.3,0-0.7,0-1-0.1c-1.1-0.2-2.1-0.8-3-1.3c-0.6-0.3-0.8-1.1-0.4-1.6c0.3-0.6,1.1-0.8,1.6-0.4
				c0.8,0.4,1.5,0.9,2.3,1.1c0.7,0.1,1.3,0,1.7-0.3c0.5-0.4,1.2-0.4,1.7,0.1c0.4,0.5,0.4,1.2-0.1,1.7C87,144.7,86,145,84.9,145z"/>
		</g>
		<g>
			<g>
				<path style="fill:#FC0000;" d="M88.4,148.5c-1.5,0.3-2.9,1.4-3.2,2.9c-0.2,0.8,0,1.6-0.3,2.4c-0.2,0.5-0.6,1-0.9,1.4
					c-1.3,2.1-0.4,5.2,1.8,6.3c0.4,0.2,0.8,0.4,1.2,0.6c0.4,0.3,0.7,0.8,1,1.3c1,1.4,2.7,2.4,4.5,2.4c1.8,0.1,3.5-0.7,4.7-2.1
					c0.2-0.3,0.5-0.6,0.8-0.7c0.3-0.2,0.7-0.1,1.1-0.1c1.2-0.1,2.2-0.9,2.8-1.9c0.6-1,0.9-2.2,1-3.4c0.1-0.7,0.2-1.3-0.1-2
					c-0.2-0.5-0.5-0.9-0.7-1.3c-0.5-1.2-0.1-2.5-0.3-3.8c-0.3-1.9-2.1-3.5-4.1-3.7c-1.9-0.3-3,0.7-4.7,1.2
					C91.5,148.6,90,148.2,88.4,148.5z"/>
				<path d="M97.1,146.9c0.2,0,0.4,0,0.6,0c2,0.3,3.8,1.8,4.1,3.7c0.2,1.3-0.2,2.6,0.3,3.8c0.2,0.5,0.5,0.8,0.7,1.3
					c0.2,0.6,0.2,1.3,0.1,2c-0.2,1.2-0.4,2.4-1,3.4c-0.6,1-1.7,1.8-2.8,1.9c-0.4,0-0.8,0-1.1,0.1c-0.3,0.1-0.6,0.5-0.8,0.7
					c-1.1,1.3-2.8,2.1-4.4,2.1c-0.1,0-0.2,0-0.2,0c-1.8-0.1-3.5-1-4.5-2.4c-0.3-0.4-0.6-0.9-1-1.3c-0.3-0.3-0.8-0.4-1.2-0.6
					c-2.2-1.2-3-4.2-1.8-6.3c0.3-0.5,0.7-0.9,0.9-1.4c0.3-0.8,0.1-1.6,0.3-2.4c0.3-1.5,1.8-2.5,3.2-2.9c0.5-0.1,1.1-0.1,1.6-0.1
					c0.3,0,0.7,0,1,0c0.6,0,1.3,0,1.9-0.2C94.5,147.8,95.5,146.9,97.1,146.9 M97.1,144.6c-1.5,0-2.6,0.5-3.6,0.9
					c-0.4,0.2-0.8,0.3-1.2,0.5c-0.4,0.1-0.8,0.1-1.2,0.1l-0.5,0l-0.6,0c-0.6,0-1.4,0-2.2,0.2c-2.5,0.6-4.5,2.4-5,4.6
					c-0.1,0.5-0.2,1-0.2,1.4c0,0.2,0,0.6-0.1,0.7c0,0.1-0.2,0.3-0.3,0.5c-0.1,0.2-0.3,0.4-0.4,0.6c-0.9,1.6-1.2,3.5-0.6,5.4
					s1.7,3.4,3.3,4.3c0.1,0.1,0.3,0.2,0.5,0.2c0.1,0.1,0.2,0.1,0.3,0.2c0,0,0.2,0.2,0.3,0.4c0.1,0.1,0.2,0.3,0.3,0.4
					c1.4,2.1,3.8,3.3,6.3,3.4c0.1,0,0.2,0,0.3,0c2.4,0,4.7-1.1,6.3-2.9l0,0c0.1,0,0.1,0,0.2,0c1.9-0.1,3.7-1.2,4.7-3.1
					c0.8-1.4,1.1-2.9,1.3-4.3c0.1-0.7,0.3-1.9-0.2-3.1c-0.2-0.5-0.4-0.8-0.6-1.1c-0.1-0.1-0.1-0.2-0.2-0.3c-0.1-0.2-0.1-0.8-0.1-1.2
					c0-0.6,0-1.3-0.1-2c-0.5-2.9-3-5.3-6.1-5.7C97.7,144.6,97.4,144.6,97.1,144.6L97.1,144.6z"/>
			</g>
			<path d="M89.6,155.5c-0.5,0-0.9-0.3-1.1-0.7c-0.2-0.4-0.2-0.8,0-1.2c0.3-0.7,0.9-1,1.2-1.1c1.8-0.7,3.8-0.9,5.7-0.4
				c0.6,0.2,1,0.8,0.9,1.4c-0.2,0.6-0.8,1-1.4,0.9c-1.3-0.3-2.8-0.3-4.1,0.2c-0.1,0.3-0.3,0.6-0.7,0.8
				C89.9,155.5,89.7,155.5,89.6,155.5z M90.7,153.9C90.7,153.9,90.7,153.9,90.7,153.9C90.7,153.9,90.7,153.9,90.7,153.9z"/>
			<path d="M92.3,160c-0.6,0-1-0.4-1.2-0.9c-0.2-0.7-0.2-1.5-0.1-2.2c0.1-0.7,0.6-1.1,1.3-1c0.7,0.1,1.1,0.7,1,1.3
				c-0.1,0.5,0,1,0.1,1.5c0.1,0.6-0.3,1.3-0.9,1.4C92.5,160,92.4,160,92.3,160z"/>
			<path d="M95,162.2c-0.4,0-0.7-0.2-1-0.5c-0.4-0.5-0.3-1.3,0.3-1.7c0.7-0.5,1.4-1,1.9-1.7c0.4-0.6,0.6-1.2,0.4-1.7
				c-0.2-0.6,0.1-1.3,0.8-1.5c0.6-0.2,1.3,0.1,1.5,0.7c0.4,1.2,0.1,2.6-0.8,3.8c-0.7,0.9-1.6,1.6-2.5,2.2
				C95.5,162.1,95.3,162.2,95,162.2z"/>
		</g>
		<g>
			<g>
				<path style="fill:#FC0000;" d="M61.1,131.8c-1.5,0.3-2.9,1.4-3.2,2.9c-0.2,0.8,0,1.6-0.3,2.4c-0.2,0.5-0.6,1-0.9,1.4
					c-1.3,2.1-0.4,5.2,1.8,6.3c0.4,0.2,0.8,0.4,1.2,0.6c0.4,0.3,0.7,0.8,1,1.3c1,1.4,2.7,2.4,4.5,2.4c1.8,0.1,3.5-0.7,4.7-2.1
					c0.2-0.3,0.5-0.6,0.8-0.7c0.3-0.2,0.7-0.1,1.1-0.1c1.2-0.1,2.2-0.9,2.8-1.9c0.6-1,0.9-2.2,1-3.4c0.1-0.7,0.2-1.3-0.1-2
					c-0.2-0.5-0.5-0.9-0.7-1.3c-0.5-1.2-0.1-2.5-0.3-3.8c-0.3-1.9-2.1-3.5-4.1-3.7c-1.9-0.3-3,0.7-4.7,1.2
					C64.1,131.9,62.6,131.5,61.1,131.8z"/>
				<path d="M69.7,130.2c0.2,0,0.4,0,0.6,0c2,0.3,3.8,1.8,4.1,3.7c0.2,1.3-0.2,2.6,0.3,3.8c0.2,0.5,0.5,0.8,0.7,1.3
					c0.2,0.6,0.2,1.3,0.1,2c-0.2,1.2-0.4,2.4-1,3.4c-0.6,1-1.7,1.8-2.8,1.9c-0.4,0-0.8,0-1.1,0.1c-0.3,0.1-0.6,0.5-0.8,0.7
					c-1.1,1.3-2.8,2.1-4.4,2.1c-0.1,0-0.2,0-0.2,0c-1.8-0.1-3.5-1-4.5-2.4c-0.3-0.4-0.6-0.9-1-1.3c-0.3-0.3-0.8-0.4-1.2-0.6
					c-2.2-1.2-3-4.2-1.8-6.3c0.3-0.5,0.7-0.9,0.9-1.4c0.3-0.8,0.1-1.6,0.3-2.4c0.3-1.5,1.8-2.5,3.2-2.9c0.5-0.1,1.1-0.1,1.6-0.1
					c0.3,0,0.7,0,1,0c0.6,0,1.3,0,1.9-0.2C67.1,131,68.2,130.2,69.7,130.2 M69.7,127.8c-1.5,0-2.6,0.5-3.6,0.9
					c-0.4,0.2-0.8,0.3-1.2,0.5c-0.4,0.1-0.8,0.1-1.2,0.1l-0.5,0l-0.6,0c-0.6,0-1.4,0-2.2,0.2c-2.5,0.6-4.5,2.4-5,4.6
					c-0.1,0.5-0.2,1-0.2,1.4c0,0.2,0,0.6-0.1,0.7c0,0.1-0.2,0.3-0.3,0.5c-0.1,0.2-0.3,0.4-0.4,0.6c-0.9,1.6-1.2,3.5-0.6,5.4
					c0.5,1.9,1.7,3.4,3.3,4.3c0.1,0.1,0.3,0.2,0.5,0.2c0.1,0.1,0.2,0.1,0.3,0.2c0,0,0.2,0.2,0.3,0.4c0.1,0.1,0.2,0.3,0.3,0.4
					c1.4,2.1,3.8,3.3,6.3,3.4c0.1,0,0.2,0,0.3,0c2.4,0,4.7-1.1,6.3-2.9l0,0c0.1,0,0.1,0,0.2,0c1.9-0.1,3.7-1.2,4.7-3.1
					c0.8-1.4,1.1-2.9,1.3-4.3c0.1-0.7,0.3-1.9-0.2-3.1c-0.2-0.5-0.4-0.8-0.6-1.1c-0.1-0.1-0.1-0.2-0.2-0.3c-0.1-0.2-0.1-0.8-0.1-1.2
					c0-0.6,0-1.3-0.1-2c-0.5-2.9-3-5.3-6.1-5.7C70.3,127.8,70,127.8,69.7,127.8L69.7,127.8z"/>
			</g>
			<path d="M62.2,138.8c-0.5,0-0.9-0.3-1.1-0.7c-0.2-0.4-0.2-0.8,0-1.2c0.3-0.7,0.9-1,1.2-1.1c1.8-0.7,3.8-0.9,5.7-0.4
				c0.6,0.2,1,0.8,0.9,1.4s-0.8,1-1.4,0.9c-1.3-0.3-2.8-0.3-4.1,0.2c-0.1,0.3-0.3,0.6-0.7,0.8C62.5,138.8,62.4,138.8,62.2,138.8z
				 M63.3,137.1C63.3,137.1,63.3,137.1,63.3,137.1C63.3,137.1,63.3,137.1,63.3,137.1z"/>
			<path d="M64.9,143.3c-0.5,0-1-0.4-1.2-0.9c-0.2-0.7-0.2-1.5-0.1-2.2c0.1-0.7,0.6-1.1,1.3-1c0.7,0.1,1.1,0.7,1,1.3
				c-0.1,0.5,0,1,0.1,1.5c0.1,0.6-0.3,1.3-0.9,1.4C65.1,143.3,65,143.3,64.9,143.3z"/>
			<path d="M67.7,145.5c-0.4,0-0.7-0.2-1-0.5c-0.4-0.5-0.3-1.3,0.3-1.7c0.7-0.5,1.4-1,1.9-1.7c0.4-0.6,0.6-1.2,0.4-1.7
				c-0.2-0.6,0.1-1.3,0.8-1.5c0.6-0.2,1.3,0.1,1.5,0.7c0.4,1.2,0.1,2.6-0.8,3.8c-0.7,0.9-1.6,1.6-2.5,2.2
				C68.1,145.4,67.9,145.5,67.7,145.5z"/>
		</g>
		<g>
			<g>
				<path style="fill:#FC0000;" d="M69.5,153.6c-1.5,0.3-2.9,1.4-3.2,2.9c-0.2,0.8,0,1.6-0.3,2.4c-0.2,0.5-0.6,1-0.9,1.4
					c-1.3,2.1-0.4,5.2,1.8,6.3c0.4,0.2,0.8,0.4,1.2,0.6c0.4,0.3,0.7,0.8,1,1.3c1,1.4,2.7,2.4,4.5,2.4c1.8,0.1,3.5-0.7,4.7-2.1
					c0.2-0.3,0.5-0.6,0.8-0.7c0.3-0.2,0.7-0.1,1.1-0.1c1.2-0.1,2.2-0.9,2.8-1.9c0.6-1,0.9-2.2,1-3.4c0.1-0.7,0.2-1.3-0.1-2
					c-0.2-0.5-0.5-0.9-0.7-1.3c-0.5-1.2-0.1-2.5-0.3-3.8c-0.3-1.9-2.1-3.5-4.1-3.7c-1.9-0.3-3,0.7-4.7,1.2
					C72.6,153.7,71,153.3,69.5,153.6z"/>
				<path d="M78.1,152c0.2,0,0.4,0,0.6,0c2,0.3,3.8,1.8,4.1,3.7c0.2,1.3-0.2,2.6,0.3,3.8c0.2,0.5,0.5,0.8,0.7,1.3
					c0.2,0.6,0.2,1.3,0.1,2c-0.2,1.2-0.4,2.4-1,3.4c-0.6,1-1.7,1.8-2.8,1.9c-0.4,0-0.8,0-1.1,0.1c-0.3,0.1-0.6,0.5-0.8,0.7
					c-1.1,1.3-2.8,2.1-4.4,2.1c-0.1,0-0.2,0-0.2,0c-1.8-0.1-3.5-1-4.5-2.4c-0.3-0.4-0.6-0.9-1-1.3c-0.3-0.3-0.8-0.4-1.2-0.6
					c-2.2-1.2-3-4.2-1.8-6.3c0.3-0.5,0.7-0.9,0.9-1.4c0.3-0.8,0.1-1.6,0.3-2.4c0.3-1.5,1.8-2.5,3.2-2.9c0.5-0.1,1.1-0.1,1.6-0.1
					c0.3,0,0.7,0,1,0c0.6,0,1.3,0,1.9-0.2C75.5,152.8,76.6,152,78.1,152 M78.1,149.6c-1.5,0-2.6,0.5-3.6,0.9
					c-0.4,0.2-0.8,0.3-1.2,0.5c-0.4,0.1-0.8,0.1-1.2,0.1l-0.5,0l-0.6,0c-0.6,0-1.4,0-2.2,0.2c-2.5,0.6-4.5,2.4-5,4.6
					c-0.1,0.5-0.2,1-0.2,1.4c0,0.2,0,0.6-0.1,0.7c0,0.1-0.2,0.3-0.3,0.5c-0.1,0.2-0.3,0.4-0.4,0.6c-0.9,1.6-1.2,3.5-0.6,5.4
					c0.5,1.9,1.7,3.4,3.3,4.3c0.1,0.1,0.3,0.2,0.5,0.2c0.1,0.1,0.2,0.1,0.3,0.2c0,0,0.2,0.2,0.3,0.4c0.1,0.1,0.2,0.3,0.3,0.4
					c1.4,2.1,3.8,3.3,6.3,3.4c0.1,0,0.2,0,0.3,0c2.4,0,4.7-1.1,6.3-2.9l0,0c0.1,0,0.1,0,0.2,0c1.9-0.1,3.7-1.2,4.7-3.1
					c0.8-1.4,1.1-2.9,1.3-4.3c0.1-0.7,0.3-1.9-0.2-3.1c-0.2-0.5-0.4-0.8-0.6-1.1c-0.1-0.1-0.1-0.2-0.2-0.3c-0.1-0.2-0.1-0.8-0.1-1.2
					c0-0.6,0-1.3-0.1-2c-0.5-2.9-3-5.3-6.1-5.7C78.8,149.6,78.4,149.6,78.1,149.6L78.1,149.6z"/>
			</g>
			<path d="M70.6,160.6c-0.5,0-0.9-0.3-1.1-0.7c-0.2-0.4-0.2-0.8,0-1.2c0.3-0.7,0.9-1,1.2-1.1c1.8-0.7,3.8-0.9,5.7-0.4
				c0.6,0.2,1,0.8,0.9,1.4c-0.2,0.6-0.8,1-1.4,0.9c-1.3-0.3-2.8-0.3-4.1,0.2c-0.1,0.3-0.3,0.6-0.7,0.8
				C71,160.6,70.8,160.6,70.6,160.6z M71.7,158.9C71.7,158.9,71.7,158.9,71.7,158.9C71.7,158.9,71.7,158.9,71.7,158.9z"/>
			<path d="M73.4,165.1c-0.6,0-1-0.4-1.2-0.9c-0.2-0.7-0.2-1.5-0.1-2.2c0.1-0.7,0.7-1.1,1.3-1c0.7,0.1,1.1,0.7,1,1.3
				c-0.1,0.5,0,1,0.1,1.5c0.1,0.6-0.3,1.3-0.9,1.4C73.5,165.1,73.4,165.1,73.4,165.1z"/>
			<path d="M76.1,167.3c-0.4,0-0.7-0.2-1-0.5c-0.4-0.5-0.2-1.3,0.3-1.7c0.7-0.5,1.4-1,1.9-1.7c0.4-0.6,0.6-1.2,0.4-1.7
				c-0.2-0.6,0.1-1.3,0.7-1.5c0.6-0.2,1.3,0.1,1.5,0.7c0.4,1.2,0.1,2.6-0.8,3.8c-0.7,1-1.6,1.6-2.5,2.2
				C76.6,167.2,76.3,167.3,76.1,167.3z"/>
		</g>
		<g>
			<g>
				<path style="fill:#FC0000;" d="M71.4,141.3c-1.5,0.3-2.9,1.4-3.2,2.9c-0.2,0.8,0,1.6-0.3,2.4c-0.2,0.5-0.6,1-0.9,1.4
					c-1.3,2.1-0.4,5.2,1.8,6.3c0.4,0.2,0.8,0.4,1.2,0.6c0.4,0.3,0.7,0.8,1,1.3c1,1.4,2.7,2.4,4.5,2.4c1.8,0.1,3.5-0.7,4.7-2.1
					c0.2-0.3,0.5-0.6,0.8-0.7c0.3-0.2,0.7-0.1,1.1-0.1c1.2-0.1,2.2-0.9,2.8-1.9c0.6-1,0.9-2.2,1-3.4c0.1-0.7,0.2-1.3-0.1-2
					c-0.2-0.5-0.5-0.9-0.7-1.3c-0.5-1.2-0.1-2.5-0.3-3.8c-0.3-1.9-2.1-3.5-4.1-3.7c-1.9-0.3-3,0.7-4.7,1.2
					C74.4,141.4,72.9,141,71.4,141.3z"/>
				<path d="M80,139.7c0.2,0,0.4,0,0.6,0c2,0.3,3.8,1.8,4.1,3.7c0.2,1.3-0.2,2.6,0.3,3.8c0.2,0.5,0.5,0.8,0.7,1.3
					c0.2,0.6,0.2,1.3,0.1,2c-0.2,1.2-0.4,2.4-1,3.4c-0.6,1-1.7,1.8-2.8,1.9c-0.4,0-0.8,0-1.1,0.1c-0.3,0.1-0.6,0.5-0.8,0.7
					c-1.1,1.3-2.8,2.1-4.4,2.1c-0.1,0-0.2,0-0.2,0c-1.8-0.1-3.5-1-4.5-2.4c-0.3-0.4-0.6-0.9-1-1.3c-0.3-0.3-0.8-0.4-1.2-0.6
					c-2.2-1.2-3-4.2-1.8-6.3c0.3-0.5,0.7-0.9,0.9-1.4c0.3-0.8,0.1-1.6,0.3-2.4c0.3-1.5,1.8-2.5,3.2-2.9c0.5-0.1,1.1-0.1,1.6-0.1
					c0.3,0,0.7,0,1,0c0.6,0,1.3,0,1.9-0.2C77.4,140.5,78.5,139.7,80,139.7 M80,137.3c-1.5,0-2.6,0.5-3.6,0.9
					c-0.4,0.2-0.8,0.3-1.2,0.5c-0.4,0.1-0.8,0.1-1.2,0.1l-0.5,0l-0.6,0c-0.6,0-1.4,0-2.2,0.2c-2.5,0.6-4.5,2.4-5,4.6
					c-0.1,0.5-0.2,1-0.2,1.4c0,0.2,0,0.6-0.1,0.7c0,0.1-0.2,0.3-0.3,0.5c-0.1,0.2-0.3,0.4-0.4,0.6c-0.9,1.6-1.2,3.5-0.6,5.4
					c0.5,1.9,1.7,3.4,3.3,4.3c0.1,0.1,0.3,0.2,0.5,0.2c0.1,0.1,0.2,0.1,0.3,0.2c0,0,0.2,0.2,0.3,0.4c0.1,0.1,0.2,0.3,0.3,0.4
					c1.4,2.1,3.8,3.3,6.3,3.4c0.1,0,0.2,0,0.3,0c2.4,0,4.7-1.1,6.3-2.9l0,0c0.1,0,0.1,0,0.2,0c1.9-0.1,3.7-1.2,4.7-3.1
					c0.8-1.4,1.1-2.9,1.3-4.3c0.1-0.7,0.3-1.9-0.2-3.1c-0.2-0.5-0.4-0.8-0.6-1.1c-0.1-0.1-0.1-0.2-0.2-0.3c-0.1-0.2-0.1-0.8-0.1-1.2
					c0-0.6,0-1.3-0.1-2c-0.5-2.9-3-5.3-6.1-5.7C80.6,137.4,80.3,137.3,80,137.3L80,137.3z"/>
			</g>
			<path d="M72.5,148.3c-0.5,0-0.9-0.3-1.1-0.7c-0.2-0.4-0.2-0.8,0-1.2c0.3-0.7,0.9-1,1.2-1.1c1.8-0.7,3.8-0.9,5.7-0.4
				c0.6,0.2,1,0.8,0.9,1.4c-0.2,0.6-0.8,1-1.4,0.9c-1.3-0.3-2.8-0.3-4.1,0.2c-0.1,0.3-0.3,0.6-0.7,0.8
				C72.8,148.3,72.7,148.3,72.5,148.3z M73.6,146.7C73.6,146.7,73.6,146.7,73.6,146.7C73.6,146.7,73.6,146.7,73.6,146.7z"/>
			<path d="M75.2,152.8c-0.6,0-1-0.4-1.2-0.9c-0.2-0.7-0.2-1.5-0.1-2.2c0.1-0.7,0.6-1.1,1.3-1c0.7,0.1,1.1,0.7,1,1.3
				c-0.1,0.5,0,1,0.1,1.5c0.1,0.6-0.3,1.3-0.9,1.4C75.4,152.8,75.3,152.8,75.2,152.8z"/>
			<path d="M78,155c-0.4,0-0.7-0.2-1-0.5c-0.4-0.5-0.3-1.3,0.3-1.7c0.7-0.5,1.5-1,1.9-1.7c0.4-0.6,0.6-1.2,0.4-1.7
				c-0.2-0.6,0.1-1.3,0.7-1.5c0.6-0.2,1.3,0.1,1.5,0.7c0.4,1.2,0.1,2.6-0.8,3.8c-0.7,0.9-1.6,1.6-2.5,2.2
				C78.4,154.9,78.2,155,78,155z"/>
		</g>
	</g>
</g>
<g>
	<g>
		<g>
			<g>
				<defs>
					<path id="SVGID_1_" d="M132.5,57.2c-0.5-5.7-0.4-10.9-2.9-16.1c-2.3-4.8-5.1-9.4-8.4-13.6c-10-12.8-23.9-20.3-40-22.5
						c-2.2-0.3-4.4-0.5-6.7-0.7C72.3,4.4,70,4.7,67.8,5c-16,2.2-30,9.6-40,22.5c-3.3,4.2-6,8.8-8.4,13.6c-2.3,5.1-2.2,10.4-2.7,16.1
						c-0.5,5.6,3.3,1.9,5.4,0c7.2-6.2,15.7-11,24.7-14.2c4.7-1.6,9.6-2.8,14.5-3.5c6.7-0.9,13.9-1,20.7-0.6c7,0.4,13.9,1.8,20.5,4
						c9,3.1,17.5,7.9,24.7,14.2C129.3,59,133,62.8,132.5,57.2z"/>
				</defs>
				<clipPath id="SVGID_00000087380863167454436490000014391123888955505852_">
					<use xlink:href="#SVGID_1_"  style="overflow:visible;"/>
				</clipPath>
			</g>
		</g>
	</g>
	<g>
		<g>
			<g>
				<path id="XMLID_00000162352395971217224360000004871322325179747772_" style="fill:#FF0425;" d="M132.5,57.2
					c-0.5-5.7-0.4-10.9-2.9-16.1c-2.3-4.8-5.1-9.4-8.4-13.6c-10-12.8-23.9-20.3-40-22.5c-2.2-0.3-4.4-0.5-6.7-0.7
					C72.3,4.4,70,4.7,67.8,5c-16,2.2-30,9.6-40,22.5c-3.3,4.2-6,8.8-8.4,13.6c-2.3,5.1-2.2,10.4-2.7,16.1c-0.5,5.6,3.3,1.9,5.4,0
					c7.2-6.2,15.7-11,24.7-14.2c4.7-1.6,9.6-2.8,14.5-3.5c6.7-0.9,13.9-1,20.7-0.6c7,0.4,13.9,1.8,20.5,4c9,3.1,17.5,7.9,24.7,14.2
					C129.3,59,133,62.8,132.5,57.2z"/>
			</g>
			<g>
				<path id="SVGID_00000060732939879232626540000017278461819652001675_" d="M17.7,61.3c-0.3,0-0.6-0.1-0.9-0.2
					c-1.4-0.7-1.4-2.6-1.3-4c0.1-0.9,0.1-1.8,0.2-2.7c0.3-4.8,0.6-9.2,2.8-13.8c2.5-5.1,5.3-9.7,8.5-13.8C36.9,14.1,51,6.2,67.8,3.9
					c2.1-0.3,4.3-0.5,6.8-0.7c2.6,0.2,4.8,0.4,6.9,0.7c16.8,2.3,30.9,10.2,40.7,22.9c3.2,4.1,6.1,8.7,8.5,13.8
					c2.2,4.5,2.5,9,2.8,13.8c0.1,0.9,0.1,1.8,0.2,2.7c0.1,1.4,0.1,3.3-1.3,4c-1.7,0.8-3.7-1-5.5-2.5l-0.5-0.5
					c-6.9-6-15.4-10.8-24.3-13.9c-6.5-2.3-13.3-3.6-20.1-4c-7.7-0.4-14.6-0.2-20.5,0.6c-4.8,0.7-9.6,1.8-14.3,3.4
					c-9,3.1-17.4,7.9-24.3,13.9l-0.5,0.5C20.8,59.9,19.2,61.3,17.7,61.3z M74.5,5.6c-2.2,0.2-4.4,0.4-6.4,0.7
					c-16.2,2.2-29.7,9.8-39.2,22c-3.1,4-5.9,8.5-8.2,13.4c-2,4.1-2.3,8.4-2.6,12.9c-0.1,0.9-0.1,1.8-0.2,2.8c-0.1,0.9,0,1.4,0,1.6
					c0.7-0.3,2.2-1.5,2.8-2.1l0.6-0.5c7.2-6.2,15.8-11.2,25.1-14.4c4.8-1.6,9.7-2.8,14.7-3.5c6.1-0.8,13.1-1,20.9-0.6
					c7,0.4,14,1.8,20.8,4.1c9.2,3.2,17.9,8.2,25.1,14.4l0.6,0.5c0.7,0.6,2.1,1.9,2.8,2.1c0.1-0.2,0.1-0.7,0-1.6l0,0
					c-0.1-0.9-0.1-1.9-0.2-2.8c-0.3-4.5-0.6-8.8-2.6-12.9c-2.4-4.9-5.1-9.4-8.2-13.4c-9.5-12.2-23-19.8-39.2-22
					C79,5.9,76.9,5.7,74.5,5.6z"/>
			</g>
			<g>
				<defs>
					<path id="SVGID_00000117653415404766868250000003134439828205358993_" d="M132.5,57.2c-0.5-5.7-0.4-10.9-2.9-16.1
						c-2.3-4.8-5.1-9.4-8.4-13.6c-10-12.8-23.9-20.3-40-22.5c-2.2-0.3-4.4-0.5-6.7-0.7C72.3,4.4,70,4.7,67.8,5
						c-16,2.2-30,9.6-40,22.5c-3.3,4.2-6,8.8-8.4,13.6c-2.3,5.1-2.2,10.4-2.7,16.1c-0.5,5.6,3.3,1.9,5.4,0
						c7.2-6.2,15.7-11,24.7-14.2c4.7-1.6,9.6-2.8,14.5-3.5c6.7-0.9,13.9-1,20.7-0.6c7,0.4,13.9,1.8,20.5,4c9,3.1,17.5,7.9,24.7,14.2
						C129.3,59,133,62.8,132.5,57.2z"/>
				</defs>
				<clipPath id="SVGID_00000062882126085948239900000009868847264090760125_">
					<use xlink:href="#SVGID_00000117653415404766868250000003134439828205358993_"  style="overflow:visible;"/>
				</clipPath>
			</g>
			<g>
				<defs>
					<path id="SVGID_00000045612189688788806850000001626268243578252170_" d="M132.5,57.2c-0.5-5.7-0.4-10.9-2.9-16.1
						c-2.3-4.8-5.1-9.4-8.4-13.6c-10-12.8-23.9-20.3-40-22.5c-2.2-0.3-4.4-0.5-6.7-0.7C72.3,4.4,70,4.7,67.8,5
						c-16,2.2-30,9.6-40,22.5c-3.3,4.2-6,8.8-8.4,13.6c-2.3,5.1-2.2,10.4-2.7,16.1c-0.5,5.6,3.3,1.9,5.4,0
						c7.2-6.2,15.7-11,24.7-14.2c4.7-1.6,9.6-2.8,14.5-3.5c6.7-0.9,13.9-1,20.7-0.6c7,0.4,13.9,1.8,20.5,4c9,3.1,17.5,7.9,24.7,14.2
						C129.3,59,133,62.8,132.5,57.2z"/>
				</defs>
				<defs>
					<path id="SVGID_00000021079180337788790130000008485819941442408618_" d="M17.7,61.3c-0.3,0-0.6-0.1-0.9-0.2
						c-1.4-0.7-1.4-2.6-1.3-4c0.1-0.9,0.1-1.8,0.2-2.7c0.3-4.8,0.6-9.2,2.8-13.8c2.5-5.1,5.3-9.7,8.5-13.8
						C36.9,14.1,51,6.2,67.8,3.9c2.1-0.3,4.3-0.5,6.8-0.7c2.6,0.2,4.8,0.4,6.9,0.7c16.8,2.3,30.9,10.2,40.7,22.9
						c3.2,4.1,6.1,8.7,8.5,13.8c2.2,4.5,2.5,9,2.8,13.8c0.1,0.9,0.1,1.8,0.2,2.7c0.1,1.4,0.1,3.3-1.3,4c-1.7,0.8-3.7-1-5.5-2.5
						l-0.5-0.5c-6.9-6-15.4-10.8-24.3-13.9c-6.5-2.3-13.3-3.6-20.1-4c-7.7-0.4-14.6-0.2-20.5,0.6c-4.8,0.7-9.6,1.8-14.3,3.4
						c-9,3.1-17.4,7.9-24.3,13.9l-0.5,0.5C20.8,59.9,19.2,61.3,17.7,61.3z M74.5,5.6c-2.2,0.2-4.4,0.4-6.4,0.7
						c-16.2,2.2-29.7,9.8-39.2,22c-3.1,4-5.9,8.5-8.2,13.4c-2,4.1-2.3,8.4-2.6,12.9c-0.1,0.9-0.1,1.8-0.2,2.8c-0.1,0.9,0,1.4,0,1.6
						c0.7-0.3,2.2-1.5,2.8-2.1l0.6-0.5c7.2-6.2,15.8-11.2,25.1-14.4c4.8-1.6,9.7-2.8,14.7-3.5c6.1-0.8,13.1-1,20.9-0.6
						c7,0.4,14,1.8,20.8,4.1c9.2,3.2,17.9,8.2,25.1,14.4l0.6,0.5c0.7,0.6,2.1,1.9,2.8,2.1c0.1-0.2,0.1-0.7,0-1.6l0,0
						c-0.1-0.9-0.1-1.9-0.2-2.8c-0.3-4.5-0.6-8.8-2.6-12.9c-2.4-4.9-5.1-9.4-8.2-13.4c-9.5-12.2-23-19.8-39.2-22
						C79,5.9,76.9,5.7,74.5,5.6z"/>
				</defs>
				<clipPath id="SVGID_00000118371007587042162370000000797776767663420852_">
					<use xlink:href="#SVGID_00000045612189688788806850000001626268243578252170_"  style="overflow:visible;"/>
				</clipPath>
				
					<clipPath id="SVGID_00000012432700199426655630000002920672876845184946_" style="clip-path:url(#SVGID_00000118371007587042162370000000797776767663420852_);">
					<use xlink:href="#SVGID_00000021079180337788790130000008485819941442408618_"  style="overflow:visible;"/>
				</clipPath>
				<path style="clip-path:url(#SVGID_00000012432700199426655630000002920672876845184946_);" d="M67.3,49.2
					c-0.4,0-0.7-0.2-0.9-0.5L40.9,15.5c-0.4-0.6-1.4-1.8-0.8-3.3c0.2-0.6,0.9-0.9,1.5-0.7s0.9,0.9,0.7,1.5c0,0-0.1,0.2,0.5,1
					l25.4,33.3c0.4,0.5,0.3,1.3-0.2,1.7C67.8,49.2,67.6,49.2,67.3,49.2z"/>
			</g>
			<g>
				<defs>
					<path id="SVGID_00000119078241833968104110000017918318377395686027_" d="M132.5,57.2c-0.5-5.7-0.4-10.9-2.9-16.1
						c-2.3-4.8-5.1-9.4-8.4-13.6c-10-12.8-23.9-20.3-40-22.5c-2.2-0.3-4.4-0.5-6.7-0.7C72.3,4.4,70,4.7,67.8,5
						c-16,2.2-30,9.6-40,22.5c-3.3,4.2-6,8.8-8.4,13.6c-2.3,5.1-2.2,10.4-2.7,16.1c-0.5,5.6,3.3,1.9,5.4,0
						c7.2-6.2,15.7-11,24.7-14.2c4.7-1.6,9.6-2.8,14.5-3.5c6.7-0.9,13.9-1,20.7-0.6c7,0.4,13.9,1.8,20.5,4c9,3.1,17.5,7.9,24.7,14.2
						C129.3,59,133,62.8,132.5,57.2z"/>
				</defs>
				<defs>
					<path id="SVGID_00000140694493203895960630000016769010645965767331_" d="M17.7,61.3c-0.3,0-0.6-0.1-0.9-0.2
						c-1.4-0.7-1.4-2.6-1.3-4c0.1-0.9,0.1-1.8,0.2-2.7c0.3-4.8,0.6-9.2,2.8-13.8c2.5-5.1,5.3-9.7,8.5-13.8
						C36.9,14.1,51,6.2,67.8,3.9c2.1-0.3,4.3-0.5,6.8-0.7c2.6,0.2,4.8,0.4,6.9,0.7c16.8,2.3,30.9,10.2,40.7,22.9
						c3.2,4.1,6.1,8.7,8.5,13.8c2.2,4.5,2.5,9,2.8,13.8c0.1,0.9,0.1,1.8,0.2,2.7c0.1,1.4,0.1,3.3-1.3,4c-1.7,0.8-3.7-1-5.5-2.5
						l-0.5-0.5c-6.9-6-15.4-10.8-24.3-13.9c-6.5-2.3-13.3-3.6-20.1-4c-7.7-0.4-14.6-0.2-20.5,0.6c-4.8,0.7-9.6,1.8-14.3,3.4
						c-9,3.1-17.4,7.9-24.3,13.9l-0.5,0.5C20.8,59.9,19.2,61.3,17.7,61.3z M74.5,5.6c-2.2,0.2-4.4,0.4-6.4,0.7
						c-16.2,2.2-29.7,9.8-39.2,22c-3.1,4-5.9,8.5-8.2,13.4c-2,4.1-2.3,8.4-2.6,12.9c-0.1,0.9-0.1,1.8-0.2,2.8c-0.1,0.9,0,1.4,0,1.6
						c0.7-0.3,2.2-1.5,2.8-2.1l0.6-0.5c7.2-6.2,15.8-11.2,25.1-14.4c4.8-1.6,9.7-2.8,14.7-3.5c6.1-0.8,13.1-1,20.9-0.6
						c7,0.4,14,1.8,20.8,4.1c9.2,3.2,17.9,8.2,25.1,14.4l0.6,0.5c0.7,0.6,2.1,1.9,2.8,2.1c0.1-0.2,0.1-0.7,0-1.6l0,0
						c-0.1-0.9-0.1-1.9-0.2-2.8c-0.3-4.5-0.6-8.8-2.6-12.9c-2.4-4.9-5.1-9.4-8.2-13.4c-9.5-12.2-23-19.8-39.2-22
						C79,5.9,76.9,5.7,74.5,5.6z"/>
				</defs>
				<clipPath id="SVGID_00000114067231081469111310000012534968382176709796_">
					<use xlink:href="#SVGID_00000119078241833968104110000017918318377395686027_"  style="overflow:visible;"/>
				</clipPath>
				
					<clipPath id="SVGID_00000129206348498534577670000006566837401123811990_" style="clip-path:url(#SVGID_00000114067231081469111310000012534968382176709796_);">
					<use xlink:href="#SVGID_00000140694493203895960630000016769010645965767331_"  style="overflow:visible;"/>
				</clipPath>
				<path style="clip-path:url(#SVGID_00000129206348498534577670000006566837401123811990_);" d="M93,45.7c-0.4,0-0.9-0.3-1.1-0.7
					c-0.8-1.7,0.4-3.5,0.9-4.2l20.8-30.6c0.4-0.5,1.1-0.7,1.7-0.3c0.5,0.4,0.7,1.1,0.3,1.6L94.8,42.1c-0.2,0.3-0.9,1.4-0.7,1.9
					c0.3,0.6,0,1.3-0.6,1.6C93.4,45.7,93.2,45.7,93,45.7z"/>
			</g>
			<g>
				<defs>
					<path id="SVGID_00000138550970866837155680000002426188568497752471_" d="M132.5,57.2c-0.5-5.7-0.4-10.9-2.9-16.1
						c-2.3-4.8-5.1-9.4-8.4-13.6c-10-12.8-23.9-20.3-40-22.5c-2.2-0.3-4.4-0.5-6.7-0.7C72.3,4.4,70,4.7,67.8,5
						c-16,2.2-30,9.6-40,22.5c-3.3,4.2-6,8.8-8.4,13.6c-2.3,5.1-2.2,10.4-2.7,16.1c-0.5,5.6,3.3,1.9,5.4,0
						c7.2-6.2,15.7-11,24.7-14.2c4.7-1.6,9.6-2.8,14.5-3.5c6.7-0.9,13.9-1,20.7-0.6c7,0.4,13.9,1.8,20.5,4c9,3.1,17.5,7.9,24.7,14.2
						C129.3,59,133,62.8,132.5,57.2z"/>
				</defs>
				<defs>
					<path id="SVGID_00000029743899629770192410000008049257661126291901_" d="M17.7,61.3c-0.3,0-0.6-0.1-0.9-0.2
						c-1.4-0.7-1.4-2.6-1.3-4c0.1-0.9,0.1-1.8,0.2-2.7c0.3-4.8,0.6-9.2,2.8-13.8c2.5-5.1,5.3-9.7,8.5-13.8
						C36.9,14.1,51,6.2,67.8,3.9c2.1-0.3,4.3-0.5,6.8-0.7c2.6,0.2,4.8,0.4,6.9,0.7c16.8,2.3,30.9,10.2,40.7,22.9
						c3.2,4.1,6.1,8.7,8.5,13.8c2.2,4.5,2.5,9,2.8,13.8c0.1,0.9,0.1,1.8,0.2,2.7c0.1,1.4,0.1,3.3-1.3,4c-1.7,0.8-3.7-1-5.5-2.5
						l-0.5-0.5c-6.9-6-15.4-10.8-24.3-13.9c-6.5-2.3-13.3-3.6-20.1-4c-7.7-0.4-14.6-0.2-20.5,0.6c-4.8,0.7-9.6,1.8-14.3,3.4
						c-9,3.1-17.4,7.9-24.3,13.9l-0.5,0.5C20.8,59.9,19.2,61.3,17.7,61.3z M74.5,5.6c-2.2,0.2-4.4,0.4-6.4,0.7
						c-16.2,2.2-29.7,9.8-39.2,22c-3.1,4-5.9,8.5-8.2,13.4c-2,4.1-2.3,8.4-2.6,12.9c-0.1,0.9-0.1,1.8-0.2,2.8c-0.1,0.9,0,1.4,0,1.6
						c0.7-0.3,2.2-1.5,2.8-2.1l0.6-0.5c7.2-6.2,15.8-11.2,25.1-14.4c4.8-1.6,9.7-2.8,14.7-3.5c6.1-0.8,13.1-1,20.9-0.6
						c7,0.4,14,1.8,20.8,4.1c9.2,3.2,17.9,8.2,25.1,14.4l0.6,0.5c0.7,0.6,2.1,1.9,2.8,2.1c0.1-0.2,0.1-0.7,0-1.6l0,0
						c-0.1-0.9-0.1-1.9-0.2-2.8c-0.3-4.5-0.6-8.8-2.6-12.9c-2.4-4.9-5.1-9.4-8.2-13.4c-9.5-12.2-23-19.8-39.2-22
						C79,5.9,76.9,5.7,74.5,5.6z"/>
				</defs>
				<clipPath id="SVGID_00000145034878502984986810000009840481969948838570_">
					<use xlink:href="#SVGID_00000138550970866837155680000002426188568497752471_"  style="overflow:visible;"/>
				</clipPath>
				
					<clipPath id="SVGID_00000145739101689692222190000013585574193662649227_" style="clip-path:url(#SVGID_00000145034878502984986810000009840481969948838570_);">
					<use xlink:href="#SVGID_00000029743899629770192410000008049257661126291901_"  style="overflow:visible;"/>
				</clipPath>
				<path style="clip-path:url(#SVGID_00000145739101689692222190000013585574193662649227_);" d="M74.3,42.5c-0.4,0-0.8-0.2-1-0.6
					C66,30.3,58.9,18.4,52.2,6.6C51.9,6,52.1,5.3,52.6,5c0.6-0.3,1.3-0.1,1.6,0.4C61,17.2,68.1,29.1,75.4,40.6
					c0.4,0.6,0.2,1.3-0.4,1.6C74.8,42.4,74.6,42.5,74.3,42.5z"/>
			</g>
			<g>
				<defs>
					<path id="SVGID_00000105394079165299715030000001949547502973970109_" d="M132.5,57.2c-0.5-5.7-0.4-10.9-2.9-16.1
						c-2.3-4.8-5.1-9.4-8.4-13.6c-10-12.8-23.9-20.3-40-22.5c-2.2-0.3-4.4-0.5-6.7-0.7C72.3,4.4,70,4.7,67.8,5
						c-16,2.2-30,9.6-40,22.5c-3.3,4.2-6,8.8-8.4,13.6c-2.3,5.1-2.2,10.4-2.7,16.1c-0.5,5.6,3.3,1.9,5.4,0
						c7.2-6.2,15.7-11,24.7-14.2c4.7-1.6,9.6-2.8,14.5-3.5c6.7-0.9,13.9-1,20.7-0.6c7,0.4,13.9,1.8,20.5,4c9,3.1,17.5,7.9,24.7,14.2
						C129.3,59,133,62.8,132.5,57.2z"/>
				</defs>
				<defs>
					<path id="SVGID_00000075130125637874245750000000839307209068239038_" d="M17.7,61.3c-0.3,0-0.6-0.1-0.9-0.2
						c-1.4-0.7-1.4-2.6-1.3-4c0.1-0.9,0.1-1.8,0.2-2.7c0.3-4.8,0.6-9.2,2.8-13.8c2.5-5.1,5.3-9.7,8.5-13.8
						C36.9,14.1,51,6.2,67.8,3.9c2.1-0.3,4.3-0.5,6.8-0.7c2.6,0.2,4.8,0.4,6.9,0.7c16.8,2.3,30.9,10.2,40.7,22.9
						c3.2,4.1,6.1,8.7,8.5,13.8c2.2,4.5,2.5,9,2.8,13.8c0.1,0.9,0.1,1.8,0.2,2.7c0.1,1.4,0.1,3.3-1.3,4c-1.7,0.8-3.7-1-5.5-2.5
						l-0.5-0.5c-6.9-6-15.4-10.8-24.3-13.9c-6.5-2.3-13.3-3.6-20.1-4c-7.7-0.4-14.6-0.2-20.5,0.6c-4.8,0.7-9.6,1.8-14.3,3.4
						c-9,3.1-17.4,7.9-24.3,13.9l-0.5,0.5C20.8,59.9,19.2,61.3,17.7,61.3z M74.5,5.6c-2.2,0.2-4.4,0.4-6.4,0.7
						c-16.2,2.2-29.7,9.8-39.2,22c-3.1,4-5.9,8.5-8.2,13.4c-2,4.1-2.3,8.4-2.6,12.9c-0.1,0.9-0.1,1.8-0.2,2.8c-0.1,0.9,0,1.4,0,1.6
						c0.7-0.3,2.2-1.5,2.8-2.1l0.6-0.5c7.2-6.2,15.8-11.2,25.1-14.4c4.8-1.6,9.7-2.8,14.7-3.5c6.1-0.8,13.1-1,20.9-0.6
						c7,0.4,14,1.8,20.8,4.1c9.2,3.2,17.9,8.2,25.1,14.4l0.6,0.5c0.7,0.6,2.1,1.9,2.8,2.1c0.1-0.2,0.1-0.7,0-1.6l0,0
						c-0.1-0.9-0.1-1.9-0.2-2.8c-0.3-4.5-0.6-8.8-2.6-12.9c-2.4-4.9-5.1-9.4-8.2-13.4c-9.5-12.2-23-19.8-39.2-22
						C79,5.9,76.9,5.7,74.5,5.6z"/>
				</defs>
				<clipPath id="SVGID_00000089568252603309649030000012017859179645481645_">
					<use xlink:href="#SVGID_00000105394079165299715030000001949547502973970109_"  style="overflow:visible;"/>
				</clipPath>
				
					<clipPath id="SVGID_00000030462226351221053020000001441543181390617491_" style="clip-path:url(#SVGID_00000089568252603309649030000012017859179645481645_);">
					<use xlink:href="#SVGID_00000075130125637874245750000000839307209068239038_"  style="overflow:visible;"/>
				</clipPath>
				<path style="clip-path:url(#SVGID_00000030462226351221053020000001441543181390617491_);fill:#FFFFFF;" d="M77.8,32.6
					c-0.5,0-0.9-0.1-1.4-0.2c-0.7-0.2-1.2-0.6-1.5-1.1c-0.3-0.4-0.5-0.9-0.6-1.3c-0.1-0.2-0.1-0.4-0.2-0.5c-0.2-0.4-0.8-0.7-1.4-1
					c-0.7-0.4-1.6-0.8-2.2-1.5c-0.9-1-1.1-2.5-0.8-4.3c0.4-2,1.4-3.5,2.8-4.2c1-0.4,2-0.4,2.8-0.4l0,0c0.3,0,0.7,0,1.1,0
					c2.8,0,6.6-0.1,8.7,2c0.9,1,1.4,2.3,1.3,3.8c-0.1,2.8-2.4,4.8-3.8,5.7l-0.2,0.1c-0.3,0.2-0.5,0.4-0.7,0.5
					c-0.1,0.1-0.3,0.3-0.4,0.5c-0.2,0.2-0.3,0.5-0.5,0.7C80.2,32.1,79,32.6,77.8,32.6z M75.2,20.3c-0.6,0-1.2,0-1.6,0.2
					c-1,0.4-1.3,1.9-1.5,2.5c-0.1,0.7-0.2,1.8,0.3,2.3c0.3,0.4,0.8,0.6,1.4,0.9c0.9,0.4,1.9,0.9,2.5,2c0.2,0.3,0.3,0.6,0.4,1
					c0.1,0.2,0.1,0.5,0.2,0.6s0.2,0.2,0.4,0.3c0.6,0.2,1.4,0,1.9-0.5c0.1-0.1,0.2-0.3,0.3-0.4c0.2-0.3,0.4-0.5,0.6-0.8
					c0.4-0.4,0.8-0.6,1.1-0.9l0.2-0.1c0.8-0.5,2.6-1.9,2.7-3.8c0-0.9-0.2-1.6-0.7-2.1c-1.3-1.4-4.7-1.3-6.9-1.3c-0.4,0-0.8,0-1.1,0
					C75.3,20.3,75.2,20.3,75.2,20.3z"/>
			</g>
			<g>
				<defs>
					<path id="SVGID_00000153688702547017453180000017858945271771163795_" d="M132.5,57.2c-0.5-5.7-0.4-10.9-2.9-16.1
						c-2.3-4.8-5.1-9.4-8.4-13.6c-10-12.8-23.9-20.3-40-22.5c-2.2-0.3-4.4-0.5-6.7-0.7C72.3,4.4,70,4.7,67.8,5
						c-16,2.2-30,9.6-40,22.5c-3.3,4.2-6,8.8-8.4,13.6c-2.3,5.1-2.2,10.4-2.7,16.1c-0.5,5.6,3.3,1.9,5.4,0
						c7.2-6.2,15.7-11,24.7-14.2c4.7-1.6,9.6-2.8,14.5-3.5c6.7-0.9,13.9-1,20.7-0.6c7,0.4,13.9,1.8,20.5,4c9,3.1,17.5,7.9,24.7,14.2
						C129.3,59,133,62.8,132.5,57.2z"/>
				</defs>
				<defs>
					<path id="SVGID_00000067952469977201816770000003840624893096459709_" d="M17.7,61.3c-0.3,0-0.6-0.1-0.9-0.2
						c-1.4-0.7-1.4-2.6-1.3-4c0.1-0.9,0.1-1.8,0.2-2.7c0.3-4.8,0.6-9.2,2.8-13.8c2.5-5.1,5.3-9.7,8.5-13.8
						C36.9,14.1,51,6.2,67.8,3.9c2.1-0.3,4.3-0.5,6.8-0.7c2.6,0.2,4.8,0.4,6.9,0.7c16.8,2.3,30.9,10.2,40.7,22.9
						c3.2,4.1,6.1,8.7,8.5,13.8c2.2,4.5,2.5,9,2.8,13.8c0.1,0.9,0.1,1.8,0.2,2.7c0.1,1.4,0.1,3.3-1.3,4c-1.7,0.8-3.7-1-5.5-2.5
						l-0.5-0.5c-6.9-6-15.4-10.8-24.3-13.9c-6.5-2.3-13.3-3.6-20.1-4c-7.7-0.4-14.6-0.2-20.5,0.6c-4.8,0.7-9.6,1.8-14.3,3.4
						c-9,3.1-17.4,7.9-24.3,13.9l-0.5,0.5C20.8,59.9,19.2,61.3,17.7,61.3z M74.5,5.6c-2.2,0.2-4.4,0.4-6.4,0.7
						c-16.2,2.2-29.7,9.8-39.2,22c-3.1,4-5.9,8.5-8.2,13.4c-2,4.1-2.3,8.4-2.6,12.9c-0.1,0.9-0.1,1.8-0.2,2.8c-0.1,0.9,0,1.4,0,1.6
						c0.7-0.3,2.2-1.5,2.8-2.1l0.6-0.5c7.2-6.2,15.8-11.2,25.1-14.4c4.8-1.6,9.7-2.8,14.7-3.5c6.1-0.8,13.1-1,20.9-0.6
						c7,0.4,14,1.8,20.8,4.1c9.2,3.2,17.9,8.2,25.1,14.4l0.6,0.5c0.7,0.6,2.1,1.9,2.8,2.1c0.1-0.2,0.1-0.7,0-1.6l0,0
						c-0.1-0.9-0.1-1.9-0.2-2.8c-0.3-4.5-0.6-8.8-2.6-12.9c-2.4-4.9-5.1-9.4-8.2-13.4c-9.5-12.2-23-19.8-39.2-22
						C79,5.9,76.9,5.7,74.5,5.6z"/>
				</defs>
				<clipPath id="SVGID_00000179613800787735391650000002936972710239544966_">
					<use xlink:href="#SVGID_00000153688702547017453180000017858945271771163795_"  style="overflow:visible;"/>
				</clipPath>
				
					<clipPath id="SVGID_00000142860817293606595400000017557041203753780106_" style="clip-path:url(#SVGID_00000179613800787735391650000002936972710239544966_);">
					<use xlink:href="#SVGID_00000067952469977201816770000003840624893096459709_"  style="overflow:visible;"/>
				</clipPath>
				<path style="clip-path:url(#SVGID_00000142860817293606595400000017557041203753780106_);fill:#FFFFFF;" d="M85,23
					c-0.4,0-0.8-0.2-1.1-0.6c-0.3-0.6-0.1-1.3,0.5-1.6c0,0,0-0.1,0-0.6v-2c-0.6,0.5-1.3,1-2.1,1.7c-0.5,0.4-1.3,0.3-1.7-0.2
					c-0.4-0.5-0.3-1.3,0.2-1.7c1.6-1.3,2.4-2,4-3.2c0.4-0.3,0.8-0.3,1.3-0.1c0.4,0.2,0.7,0.6,0.7,1.1v4.5c0,0.5,0,2-1.2,2.7
					C85.4,23,85.2,23,85,23z"/>
			</g>
			<g>
				<defs>
					<path id="SVGID_00000183237750300313102860000013370793878608818608_" d="M132.5,57.2c-0.5-5.7-0.4-10.9-2.9-16.1
						c-2.3-4.8-5.1-9.4-8.4-13.6c-10-12.8-23.9-20.3-40-22.5c-2.2-0.3-4.4-0.5-6.7-0.7C72.3,4.4,70,4.7,67.8,5
						c-16,2.2-30,9.6-40,22.5c-3.3,4.2-6,8.8-8.4,13.6c-2.3,5.1-2.2,10.4-2.7,16.1c-0.5,5.6,3.3,1.9,5.4,0
						c7.2-6.2,15.7-11,24.7-14.2c4.7-1.6,9.6-2.8,14.5-3.5c6.7-0.9,13.9-1,20.7-0.6c7,0.4,13.9,1.8,20.5,4c9,3.1,17.5,7.9,24.7,14.2
						C129.3,59,133,62.8,132.5,57.2z"/>
				</defs>
				<defs>
					<path id="SVGID_00000124881403608590471950000016607632816225577367_" d="M17.7,61.3c-0.3,0-0.6-0.1-0.9-0.2
						c-1.4-0.7-1.4-2.6-1.3-4c0.1-0.9,0.1-1.8,0.2-2.7c0.3-4.8,0.6-9.2,2.8-13.8c2.5-5.1,5.3-9.7,8.5-13.8
						C36.9,14.1,51,6.2,67.8,3.9c2.1-0.3,4.3-0.5,6.8-0.7c2.6,0.2,4.8,0.4,6.9,0.7c16.8,2.3,30.9,10.2,40.7,22.9
						c3.2,4.1,6.1,8.7,8.5,13.8c2.2,4.5,2.5,9,2.8,13.8c0.1,0.9,0.1,1.8,0.2,2.7c0.1,1.4,0.1,3.3-1.3,4c-1.7,0.8-3.7-1-5.5-2.5
						l-0.5-0.5c-6.9-6-15.4-10.8-24.3-13.9c-6.5-2.3-13.3-3.6-20.1-4c-7.7-0.4-14.6-0.2-20.5,0.6c-4.8,0.7-9.6,1.8-14.3,3.4
						c-9,3.1-17.4,7.9-24.3,13.9l-0.5,0.5C20.8,59.9,19.2,61.3,17.7,61.3z M74.5,5.6c-2.2,0.2-4.4,0.4-6.4,0.7
						c-16.2,2.2-29.7,9.8-39.2,22c-3.1,4-5.9,8.5-8.2,13.4c-2,4.1-2.3,8.4-2.6,12.9c-0.1,0.9-0.1,1.8-0.2,2.8c-0.1,0.9,0,1.4,0,1.6
						c0.7-0.3,2.2-1.5,2.8-2.1l0.6-0.5c7.2-6.2,15.8-11.2,25.1-14.4c4.8-1.6,9.7-2.8,14.7-3.5c6.1-0.8,13.1-1,20.9-0.6
						c7,0.4,14,1.8,20.8,4.1c9.2,3.2,17.9,8.2,25.1,14.4l0.6,0.5c0.7,0.6,2.1,1.9,2.8,2.1c0.1-0.2,0.1-0.7,0-1.6l0,0
						c-0.1-0.9-0.1-1.9-0.2-2.8c-0.3-4.5-0.6-8.8-2.6-12.9c-2.4-4.9-5.1-9.4-8.2-13.4c-9.5-12.2-23-19.8-39.2-22
						C79,5.9,76.9,5.7,74.5,5.6z"/>
				</defs>
				<clipPath id="SVGID_00000057128340293390836440000009628886511862464691_">
					<use xlink:href="#SVGID_00000183237750300313102860000013370793878608818608_"  style="overflow:visible;"/>
				</clipPath>
				
					<clipPath id="SVGID_00000053516876582318367070000005498926503992203146_" style="clip-path:url(#SVGID_00000057128340293390836440000009628886511862464691_);">
					<use xlink:href="#SVGID_00000124881403608590471950000016607632816225577367_"  style="overflow:visible;"/>
				</clipPath>
				<path style="clip-path:url(#SVGID_00000053516876582318367070000005498926503992203146_);fill:#FFFFFF;" d="M71,23.2
					c-0.5,0-0.9-0.3-1.1-0.7c-1.2-2.6-1.6-4.5-2.1-7.1c-0.1-0.5,0.1-1,0.6-1.2c0.4-0.3,1-0.2,1.3,0.1c0.8,0.6,1.7,1.2,2.7,1.7
					c1,0.6,2,1.2,2.9,1.9c0.5,0.4,0.6,1.2,0.2,1.7c-0.4,0.5-1.2,0.6-1.7,0.2c-0.8-0.6-1.7-1.2-2.7-1.8c-0.1-0.1-0.3-0.2-0.5-0.3
					c0.3,1.2,0.7,2.3,1.3,3.7c0.3,0.6,0,1.3-0.6,1.6C71.3,23.2,71.1,23.2,71,23.2z"/>
			</g>
		</g>
		<path style="fill:#FFFFFF;" d="M75.4,32.2c-0.5,0-0.9-0.1-1.4-0.2c-0.6-0.2-1.2-0.6-1.5-1.1c-0.3-0.4-0.5-0.9-0.6-1.3
			c-0.1-0.2-0.1-0.5-0.2-0.6c-0.3-0.5-0.9-0.8-1.7-1.2c-0.8-0.4-1.6-0.8-2.3-1.6c-0.9-1.1-1.1-2.6-0.8-4.4c0.4-2.1,1.4-3.6,2.9-4.3
			c1-0.5,2.1-0.5,2.9-0.4l0,0c0.4,0,0.8,0,1.2,0c2.9,0,7-0.1,9.1,2.1c1,1,1.4,2.3,1.4,3.9C84.3,26,81.9,28,80.5,29l-0.2,0.1
			c-0.3,0.2-0.6,0.4-0.8,0.6c-0.2,0.2-0.3,0.4-0.4,0.5c-0.2,0.2-0.3,0.5-0.5,0.7C77.7,31.7,76.5,32.2,75.4,32.2z M72.5,19
			c-0.7,0-1.3,0-1.8,0.3c-1.1,0.5-1.6,2-1.7,2.8c-0.2,0.9-0.2,2,0.4,2.8c0.4,0.4,1,0.7,1.6,1c0.9,0.5,2,1,2.6,2.1
			c0.2,0.3,0.3,0.7,0.4,1s0.2,0.6,0.3,0.7c0.1,0.2,0.3,0.3,0.6,0.4c0.8,0.3,1.7,0,2.3-0.6c0.1-0.2,0.3-0.3,0.4-0.5
			c0.2-0.2,0.4-0.5,0.6-0.8c0.4-0.4,0.8-0.7,1.2-0.9l0.2-0.1c0.9-0.6,2.9-2.2,3-4.3c0-1.1-0.2-1.9-0.8-2.4c-1.5-1.6-5.1-1.5-7.6-1.5
			c-0.4,0-0.8,0-1.2,0C72.6,19,72.6,19,72.5,19z"/>
		<path style="fill:#FFFFFF;" d="M83.1,21.9c-0.4,0-0.7-0.2-0.9-0.5c-0.3-0.5-0.1-1.1,0.4-1.4c0,0,0.1-0.2,0.1-0.9v-2.8
			c-0.9,0.7-1.6,1.3-2.7,2.2c-0.4,0.3-1.1,0.3-1.4-0.1c-0.4-0.4-0.3-1.1,0.1-1.4c1.7-1.4,2.6-2.1,4.3-3.5c0.3-0.2,0.7-0.3,1.1-0.1
			s0.6,0.5,0.6,0.9v4.8c0,0.6,0,2-1.2,2.7C83.4,21.8,83.2,21.9,83.1,21.9z"/>
		<path style="fill:#FFFFFF;" d="M68,22.1c-0.4,0-0.7-0.2-0.9-0.6c-1.2-2.7-1.7-4.8-2.2-7.6c-0.1-0.4,0.1-0.8,0.5-1s0.8-0.2,1.1,0.1
			c0.8,0.7,1.8,1.3,2.9,1.9c1.1,0.6,2.2,1.3,3.1,2.1c0.4,0.3,0.5,1,0.2,1.4s-1,0.5-1.4,0.2c-0.8-0.7-1.8-1.3-2.9-1.9
			c-0.4-0.2-0.7-0.4-1.1-0.6c0.4,1.6,0.8,3,1.6,4.7c0.2,0.5,0,1.1-0.5,1.3C68.3,22,68.1,22.1,68,22.1z"/>
		<path style="fill:#FFFFFF;" d="M64.3,37.1L64.3,37.1c-0.6,0-1-0.5-1-1.1c0-0.8-0.4-2.2-0.7-2.5c-0.2-0.1-0.3-0.2-0.5-0.4
			c-0.4-0.3-0.9-0.7-1.3-1.2c-0.4-0.6-0.4-1.3-0.4-1.8c0-0.4,0-0.7-0.1-0.9c-0.1-0.2-0.4-0.4-0.7-0.6s-0.7-0.5-1-0.8
			c-0.7-0.7-0.9-1.6-1-2.4c-0.2-1-0.4-1.4-0.8-1.6c-0.2-0.1-0.5-0.2-0.8-0.2c-0.5-0.1-1.1-0.2-1.6-0.5c-1-0.6-1.2-1.6-1.3-2.4
			c-0.1-0.4-0.2-0.8-0.3-1c-0.2-0.3-0.7-0.6-1.1-0.8c-0.4-0.2-0.9-0.5-1.3-0.9c-1.7-1.5-1.5-3.8-1.3-5.1c0.1-0.5,0.5-1,1.1-0.9
			c0.5,0.1,1,0.5,0.9,1.1c-0.2,1.6-0.1,2.7,0.7,3.4c0.2,0.2,0.6,0.4,0.9,0.6c0.6,0.4,1.3,0.8,1.8,1.4c0.4,0.6,0.5,1.2,0.6,1.7
			c0.1,0.6,0.2,0.9,0.4,1.1c0.2,0.1,0.5,0.2,0.9,0.2c0.4,0.1,0.9,0.2,1.3,0.4c1.4,0.6,1.7,1.9,1.9,2.9c0.1,0.6,0.3,1.2,0.6,1.5
			c0.2,0.2,0.4,0.3,0.7,0.5c0.4,0.3,0.9,0.7,1.3,1.2c0.4,0.6,0.4,1.3,0.4,1.8c0,0.4,0,0.7,0.1,0.9c0.1,0.2,0.4,0.4,0.7,0.6
			c0.2,0.2,0.4,0.3,0.6,0.5c1.1,0.9,1.5,3.2,1.4,4.1C65.3,36.7,64.9,37.1,64.3,37.1z"/>
		<path style="fill:#FFFFFF;" d="M86,37.6c-0.5,0-1-0.4-1-0.9c-0.1-1.2,0.5-2.4,1.4-3.2c0.2-0.2,0.4-0.3,0.6-0.5
			c0.3-0.2,0.6-0.4,0.7-0.7c0.1-0.2,0.1-0.5,0.1-0.9c0-0.5,0-1.2,0.4-1.9c0.3-0.6,0.8-0.9,1.3-1.3c0.3-0.2,0.5-0.4,0.7-0.5
			c0.3-0.4,0.5-1,0.6-1.6c0.2-1,0.5-2.3,1.9-3c0.4-0.2,0.9-0.3,1.3-0.4c0.3-0.1,0.7-0.1,0.9-0.3c0.2-0.2,0.3-0.5,0.5-1.1
			c0.1-0.6,0.2-1.2,0.6-1.8c0.5-0.7,1.2-1.1,1.8-1.5c0.4-0.2,0.7-0.4,0.9-0.6c0.9-0.8,0.8-2.2,0.7-3.6c-0.1-0.5,0.4-1,0.9-1.1
			c0.6,0,1,0.4,1.1,0.9c0.2,1.8,0.2,3.8-1.3,5.2c-0.4,0.4-0.8,0.6-1.3,0.9c-0.5,0.3-0.9,0.5-1.1,0.9c-0.2,0.3-0.2,0.6-0.3,1.1
			c-0.1,0.8-0.3,1.8-1.3,2.4c-0.5,0.3-1.1,0.4-1.6,0.5c-0.3,0.1-0.6,0.1-0.8,0.2c-0.5,0.2-0.6,0.7-0.8,1.7c-0.2,0.8-0.4,1.7-1,2.4
			c-0.3,0.3-0.7,0.6-1,0.8c-0.3,0.2-0.6,0.4-0.7,0.7c-0.1,0.2-0.1,0.5-0.1,0.9c0,0.5,0,1.2-0.4,1.9c-0.3,0.6-0.8,0.9-1.3,1.3
			c-0.2,0.1-0.3,0.2-0.5,0.4c-0.5,0.4-0.8,1-0.7,1.6C87,37.1,86.6,37.6,86,37.6L86,37.6z"/>
		<path style="fill:#FFFFFF;" d="M75,12.6c-0.2,0-0.5,0-0.7,0c-1.6-0.2-2.9-0.9-3.9-1.5c-1.3-0.8-2.4-1.7-3.5-2.6
			c-0.4-0.3-0.5-1-0.2-1.4s1-0.5,1.4-0.2c1.1,0.9,2.2,1.7,3.3,2.5c1.2,0.8,2.1,1.1,3,1.2c2.2,0.2,4.2-1.2,6.3-2.8
			c0.2-0.1,0.5-0.4,0.6-0.5c0.3-0.5,0.8-0.8,1.3-0.7c0.5,0.2,0.8,0.7,0.7,1.2C83.1,8.6,82.5,9,82,9.3C79.9,11,77.6,12.6,75,12.6z"/>
		<path d="M69.9,39.5c-0.4,0-0.7-0.2-0.9-0.5L52.8,9.7c-0.2-0.5-0.1-1.1,0.4-1.3c0.5-0.3,1.1-0.1,1.4,0.4l16.2,29.3
			c0.3,0.5,0.1,1.1-0.4,1.4C70.2,39.5,70,39.5,69.9,39.5z"/>
		<path d="M59.3,40.3c-0.4,0-0.7-0.2-0.9-0.5L43.9,13.5c-0.3-0.4-0.1-1.1,0.4-1.3s1.1-0.1,1.4,0.4l14.5,26.3
			c0.3,0.5,0.1,1.1-0.4,1.4C59.6,40.3,59.4,40.3,59.3,40.3z"/>
		<path d="M80,39.5c-0.2,0-0.3,0-0.5-0.1c-0.5-0.3-0.6-0.9-0.4-1.4L95.9,8.7c0.3-0.5,0.9-0.6,1.4-0.4c0.5,0.3,0.6,0.9,0.4,1.4
			L80.8,39C80.7,39.4,80.3,39.5,80,39.5z"/>
		<path d="M90.3,40.8c-0.2,0-0.3,0-0.5-0.1c-0.5-0.3-0.6-0.9-0.4-1.4l15.1-26.4c0.3-0.5,0.9-0.6,1.4-0.4c0.5,0.3,0.6,0.9,0.4,1.4
			L91.2,40.3C91,40.6,90.7,40.8,90.3,40.8z"/>
		<path style="fill:#FFFFFF;" d="M62.4,16.3c-0.4,0-0.8-0.3-0.9-0.7c-0.7-2.1-1.7-4.1-2.9-6c-0.3-0.5-0.1-1.1,0.3-1.4
			c0.5-0.3,1.1-0.1,1.4,0.3c1.3,2,2.3,4.2,3.1,6.4c0.2,0.5-0.1,1.1-0.6,1.3C62.6,16.3,62.5,16.3,62.4,16.3z"/>
		<path style="fill:#FFFFFF;" d="M86.6,16.8c-0.1,0-0.2,0-0.3-0.1c-0.5-0.2-0.8-0.8-0.6-1.3c0.8-2.2,1.8-4.4,3.1-6.4
			c0.3-0.5,0.9-0.6,1.4-0.3s0.6,0.9,0.3,1.4c-1.2,1.9-2.2,3.9-2.9,6C87.4,16.6,87,16.8,86.6,16.8z"/>
	</g>
	<g>
		<g>
			<g>
				<defs>
					<path id="SVGID_00000170276978820080496330000005125125083783305369_" d="M132.5,57.2c-0.5-5.7-0.4-10.9-2.9-16.1
						c-2.3-4.8-5.1-9.4-8.4-13.6c-10-12.8-23.9-20.3-40-22.5c-2.2-0.3-4.4-0.5-6.7-0.7C72.3,4.4,70,4.7,67.8,5
						c-16,2.2-30,9.6-40,22.5c-3.3,4.2-6,8.8-8.4,13.6c-2.3,5.1-2.2,10.4-2.7,16.1c-0.5,5.6,3.3,1.9,5.4,0
						c7.2-6.2,15.7-11,24.7-14.2c4.7-1.6,9.6-2.8,14.5-3.5c6.7-0.9,13.9-1,20.7-0.6c7,0.4,13.9,1.8,20.5,4c9,3.1,17.5,7.9,24.7,14.2
						C129.3,59,133,62.8,132.5,57.2z"/>
				</defs>
				<clipPath id="SVGID_00000022550558015036136600000017747236559076634029_">
					<use xlink:href="#SVGID_00000170276978820080496330000005125125083783305369_"  style="overflow:visible;"/>
				</clipPath>
			</g>
		</g>
	</g>
</g>
</svg>
