<?xml version="1.0" encoding="utf-8"?>
<!-- Generator: Adobe Illustrator 24.1.1, SVG Export Plug-In . SVG Version: 6.00 Build 0)  -->
<svg version="1.1" id="Layer_1" xmlns="http://www.w3.org/2000/svg" xmlns:xlink="http://www.w3.org/1999/xlink" x="0px" y="0px"
	 viewBox="0 0 181.18 280" style="enable-background:new 0 0 181.18 280;" xml:space="preserve">
<g>
	<path style="fill:#FFFFFF;" d="M122.38,31.85c-2.77,3.36-7.91,3.99-11.46,1.42c-0.13-0.1-0.26-0.2-0.43-0.33
		c-0.26-0.16-0.49-0.33-0.72-0.49c-0.1-0.1-0.23-0.16-0.33-0.23c-0.89-0.72-1.71-1.35-2.47-1.88V30.3c-1.28-0.89-2.4-1.52-3.43-1.52
		c-0.79,0-1.52,0.36-2.27,1.25c-1.78,2.11-1.05,4.35-3.49,4.74c-1.25,0.23-2.4,0.69-3.26,0.69c-0.56,0-0.99-0.2-1.25-0.76
		c-2.04-4.25-0.53-11.17,2.04-14.92c1.52-2.21,3.76-3.72,6.36-4.64c1.88-0.66,3.59-0.96,5.17-0.96c0.69,0,1.35,0.07,2.01,0.16
		c0.56,0.1,1.09,0.23,1.61,0.4c1.52,0.43,2.93,1.15,4.41,2.08h0.03c1.91,1.19,3.85,2.67,6.06,4.25
		C124.52,23.68,125.15,28.49,122.38,31.85z"/>
	<path d="M107.19,30.57c0.4,0.3,1.35,0.99,2.24,1.65c-0.89-0.72-1.71-1.35-2.47-1.88C107.03,30.4,107.1,30.47,107.19,30.57z"/>
	<path d="M127.95,25.69c-0.4-3.13-2.04-5.9-4.64-7.77l-0.99-0.76c-5.07-3.72-9.45-6.92-15.48-6.92c-2.11,0-4.25,0.4-6.52,1.19
		c-3.59,1.28-6.36,3.36-8.27,6.13c-3.26,4.81-5.07,13.14-2.37,18.84c0.89,1.91,2.7,3.03,4.84,3.03c1.02,0,1.94-0.23,2.77-0.46
		c0.36-0.1,0.76-0.2,1.15-0.26c3.72-0.66,4.78-3.49,5.27-4.84c0.1-0.33,0.2-0.56,0.3-0.79c0.66,0.43,1.58,1.15,2.31,1.71
		c0.72,0.53,1.48,1.12,2.31,1.71c2.11,1.52,4.61,2.31,7.25,2.31c3.76,0,7.25-1.61,9.59-4.45C127.45,31.89,128.34,28.82,127.95,25.69
		z M122.38,31.85c-2.77,3.36-7.91,3.99-11.46,1.42c-0.13-0.1-0.26-0.2-0.43-0.33c-0.26-0.16-0.49-0.33-0.72-0.49
		c-0.1-0.1-0.23-0.16-0.33-0.23c-0.89-0.66-1.84-1.35-2.24-1.65c-0.1-0.1-0.16-0.16-0.23-0.23V30.3c-1.28-0.89-2.4-1.52-3.43-1.52
		c-0.79,0-1.52,0.36-2.27,1.25c-1.78,2.11-1.05,4.35-3.49,4.74c-1.25,0.23-2.4,0.69-3.26,0.69c-0.56,0-0.99-0.2-1.25-0.76
		c-2.04-4.25-0.53-11.17,2.04-14.92c1.52-2.21,3.76-3.72,6.36-4.64c1.88-0.66,3.59-0.96,5.17-0.96c0.69,0,1.35,0.07,2.01,0.16
		c0.56,0.1,1.09,0.23,1.61,0.4c1.52,0.43,2.93,1.15,4.41,2.08h0.03c1.91,1.19,3.85,2.67,6.06,4.25
		C124.52,23.68,125.15,28.49,122.38,31.85z"/>
	<path style="fill:#683100;" d="M122.38,31.85c-2.77,3.36-7.91,3.99-11.46,1.42c-0.13-0.1-0.26-0.2-0.43-0.33
		c-0.23-0.13-0.46-0.33-0.72-0.49c-0.1-0.1-0.23-0.16-0.33-0.23c-0.89-0.66-1.84-1.35-2.24-1.65c-0.1-0.1-0.16-0.16-0.23-0.23V30.3
		c-0.33-0.66,0.96-1.45,1.98-1.84c0.59-0.26,1.22-0.26,1.84-0.16c-0.79-0.3-1.42-0.86-1.78-1.61c-0.72-1.58,0.07-3.39,1.71-4.05
		c0.79-0.33,1.61-0.3,2.34-0.07c-0.66-0.33-1.25-0.82-1.55-1.52c-0.72-1.55,0.56-3.33,2.24-4.02c0.13-0.07,0.79-0.23,1.12-0.2h0.03
		c1.91,1.19,3.85,2.67,6.06,4.25C124.52,23.68,125.15,28.49,122.38,31.85z"/>
</g>
<g>
	<path style="fill-rule:evenodd;clip-rule:evenodd;fill:#0088C5;" d="M81.87,216.29l11,7.44c-0.03,0.03-0.03,0.07-0.07,0.1
		c-0.43,0.66-0.89,1.32-1.38,1.98c-0.26,0.4-0.56,0.82-0.89,1.22c-0.53,0.72-1.09,1.42-1.65,2.11c-0.66,0.86-1.38,1.71-2.11,2.54
		c-0.79,0.92-1.65,1.84-2.5,2.77c-0.07,0.07-0.13,0.13-0.13,0.2c-0.49,0.79-0.4,1.78,0.23,2.47c0.1,0.1,0.2,0.16,0.3,0.23
		c0.03,0.03,0.1,0.07,0.13,0.1c0.2,0.13,0.43,0.26,0.63,0.43c0.23,0.13,0.46,0.33,0.69,0.56c0.23,0.2,0.46,0.43,0.69,0.66
		c0.26,0.23,0.49,0.49,0.72,0.79c0.46,0.56,0.92,1.22,1.42,1.98c0.49,0.79,0.96,1.71,1.42,2.73c0,0.03,0.1,0.3,0.1,0.3
		c2.21,5.3,1.88,11.43-0.86,16.47c-0.2,0.4-0.46,0.79-0.79,1.22c-0.2,0.26-0.4,0.53-0.63,0.79c-0.16,0.16-0.3,0.33-0.46,0.49
		c-0.3,0.33-0.63,0.63-0.99,0.92c-1.55,1.35-3.46,2.37-5.27,2.37c-0.16,0-0.33-0.03-0.53-0.03c-4.88-0.56-7.38-5.27-9.85-8.86
		l-8.37-12.09l-2.67-3.89c-0.3-0.43-0.56-0.92-0.69-1.38c-0.4-1.28-0.26-2.64,0.3-3.79c0-0.03,0.03-0.03,0.03-0.03
		c0.2-0.36,0.43-0.69,0.69-0.99c0.16-0.16,0.3-0.33,0.46-0.46c0.13-0.13,0.26-0.26,0.43-0.36l8.6-5.96c0.03,0,0.03,0,0.07-0.03
		c3.72-3.69,9.59-9.65,12.58-14.1L81.87,216.29z"/>
	<path style="fill-rule:evenodd;clip-rule:evenodd;fill:#0088C5;" d="M95.54,219.59l-1.25,2.01c0.43-0.66,0.82-1.35,1.22-2.04
		L95.54,219.59z"/>
	<path style="fill:#FFFFFF;" d="M92.87,223.74c0.49-0.69,0.96-1.42,1.42-2.14l-1.35,2.21L92.87,223.74z"/>
	<path style="fill:#FFFFFF;" d="M95.51,219.55l-0.03-0.03c6.32-11,9.03-22.47,7.97-34.23C104.53,197.05,101.86,208.55,95.51,219.55z
		"/>
	<path d="M106.44,178.24c-0.76-3.72-3.26-6.62-6.69-7.77c-1.09-0.36-2.24-0.56-3.43-0.56c-2.73,0-5.4,0.99-7.44,2.83
		c-2.87,2.54-4.12,6.32-3.36,10.11c1.98,9.92,0.03,19.8-5.8,29.35c-1.91,3.13-6.29,8.1-12.32,14.03L59.04,232
		c-1.98,1.38-3.29,3.43-3.72,5.76c-0.43,2.34,0.07,4.74,1.42,6.69l2.73,3.95l8.37,12.12c0.3,0.4,0.59,0.86,0.86,1.28
		c2.4,3.59,5.7,8.53,11.83,9.22c0.33,0.03,0.63,0.07,0.96,0.07c4.78,0,9.55-4.05,11.6-7.84c3.29-6.09,3.69-13.51,1.05-19.9
		l-0.1-0.23c-1.65-3.79-3.59-6.16-5.3-7.68c2.57-2.87,4.91-5.83,6.98-8.86c0.23-0.2,0.43-0.46,0.59-0.72l1.35-2.17l1.25-2.04
		c0.2-0.3,0.33-0.63,0.43-0.96C106.97,207.07,109.37,192.8,106.44,178.24z M94.29,221.6l-1.35,2.21l-0.07-0.07
		c-0.03,0.03-0.03,0.07-0.07,0.1c-0.43,0.66-0.89,1.32-1.38,1.98c-0.26,0.4-0.56,0.82-0.89,1.22c-0.53,0.72-1.09,1.42-1.65,2.11
		c-0.66,0.86-1.38,1.71-2.11,2.54c-0.79,0.92-1.65,1.84-2.5,2.77c-0.07,0.07-0.13,0.13-0.13,0.2c-0.59,0.79-0.49,1.84,0.23,2.47
		c0.1,0.1,0.2,0.16,0.3,0.23c0.03,0.03,0.1,0.07,0.13,0.1c0.2,0.1,0.4,0.26,0.63,0.43c0.23,0.13,0.46,0.33,0.69,0.56
		c0.23,0.16,0.46,0.4,0.69,0.66c0.26,0.23,0.49,0.49,0.72,0.79c0.49,0.56,0.96,1.22,1.42,1.98c0.49,0.79,0.96,1.71,1.42,2.73
		c0,0.03,0.1,0.3,0.1,0.3c2.21,5.3,1.88,11.43-0.86,16.47c-0.2,0.4-0.46,0.79-0.79,1.22c-0.2,0.26-0.4,0.53-0.63,0.79
		c-0.16,0.16-0.3,0.33-0.46,0.49c-0.3,0.33-0.63,0.66-0.99,0.92c-1.55,1.35-3.46,2.37-5.27,2.37c-0.16,0-0.33-0.03-0.53-0.03
		c-4.88-0.56-7.38-5.27-9.85-8.86l-8.37-12.09l-2.67-3.89L60,242.22c-0.3-0.43-0.49-0.86-0.63-1.32c-0.43-1.28-0.3-2.64,0.3-3.79
		c0-0.03,0.03-0.03,0.03-0.03c0.16-0.36,0.4-0.72,0.69-0.99c0.13-0.2,0.3-0.33,0.46-0.46c0.13-0.13,0.26-0.26,0.43-0.36l8.6-5.96
		c0.03,0,0.03,0,0.07-0.03c3.72-3.69,9.59-9.65,12.58-14.1c0.2-0.33,0.4-0.59,0.56-0.89c4.74-7.77,7.15-15.75,7.15-23.82
		c0-2.8-0.3-5.57-0.86-8.37c-0.43-2.21,0.16-4.32,1.58-5.86c0.16-0.2,0.36-0.36,0.53-0.53c1.35-1.22,3.13-1.84,4.84-1.84
		c0.76,0,1.48,0.1,2.14,0.33c0.26,0.1,0.53,0.2,0.76,0.33c0.49,0.23,0.96,0.53,1.35,0.89c0.99,0.89,1.68,2.14,1.98,3.62
		c0.43,2.11,0.72,4.18,0.89,6.26c1.05,11.76-1.65,23.22-7.97,34.23l0.03,0.03l0.03,0.03L94.29,221.6z"/>
	<path style="fill:#FFFFFF;" d="M95.47,219.52l0.03,0.03c-0.4,0.69-0.79,1.38-1.22,2.04c-0.46,0.72-0.92,1.45-1.42,2.14l-11-7.44
		l0.66-1.12c0.2-0.33,0.4-0.59,0.56-0.89c4.74-7.77,7.15-15.75,7.15-23.82c0-2.8-0.3-5.57-0.86-8.37c-0.43-2.21,0.16-4.32,1.58-5.86
		c0.16-0.2,0.36-0.36,0.53-0.53c1.35-1.22,3.13-1.84,4.84-1.84c0.76,0,1.45,0.13,2.14,0.36c0.26,0.1,0.53,0.2,0.76,0.3
		c0.49,0.26,0.96,0.56,1.35,0.89c0.99,0.89,1.68,2.14,1.98,3.62c0.43,2.11,0.72,4.18,0.89,6.26
		C104.5,197.05,101.8,208.52,95.47,219.52z"/>
</g>
<g>
	<path style="fill:#FFFFFF;" d="M89.35,223.74L75.94,227l-8.37-34.46c-0.63-2.57,5.07-6.13,7.64-6.75c2.54-0.63,5.11,0.92,5.73,3.49
		L89.35,223.74z"/>
	<path style="fill-rule:evenodd;clip-rule:evenodd;fill:#009FF9;" d="M125.05,258.29c-2.44,4.71-8.14,5.44-12.72,6.56l-15.42,3.76
		l-3.33,0.79c-2.67,0.66-7.44-0.49-8.1-3.16l-8.53-35.02L75.94,227l13.41-3.26l1.02,4.22l4.18,17.29c0,0,2.24-4.68,11.43-5.11
		c0.07,0,0.36,0,0.36,0c6.16-0.13,12.22,2.57,16.27,7.25C124.79,249.92,126.73,255.1,125.05,258.29z"/>
	<path d="M76.33,185.64c2.14,0,4.09,1.46,4.62,3.63l8.39,34.48l5.23,21.5c0,0,2.22-4.67,11.43-5.1c0.06,0,0.34,0,0.34,0
		c0.17,0,0.34-0.01,0.51-0.01c6,0,11.84,2.68,15.76,7.24c2.18,2.54,4.12,7.7,2.45,10.92c-2.45,4.71-8.13,5.42-12.71,6.53
		l-15.41,3.75l-3.34,0.81c-0.49,0.12-1.06,0.18-1.66,0.18c-2.64,0-5.92-1.16-6.45-3.35l-9.54-39.23l0,0l-8.39-34.48
		c-0.62-2.55,5.09-6.13,7.64-6.75C75.58,185.69,75.95,185.64,76.33,185.64 M76.33,181.69c-0.69,0-1.39,0.08-2.06,0.25
		c-1.9,0.46-4.45,1.78-6.49,3.37c-4.2,3.25-4.52,6.23-4.05,8.16l8.39,34.48l9.54,39.23c1.06,4.37,6.08,6.37,10.29,6.37
		c0.92,0,1.8-0.1,2.59-0.29l3.34-0.81l15.41-3.75c0.54-0.13,1.09-0.25,1.65-0.38c4.49-1.01,10.64-2.4,13.63-8.17
		c2.65-5.1-0.13-12.03-2.95-15.31c-4.63-5.4-11.64-8.62-18.76-8.62l-0.61,0.01l-0.28,0c-3.89,0.18-6.82,1.01-9.02,2.06l-3.76-15.45
		l-8.39-34.48C83.83,184.42,80.36,181.69,76.33,181.69L76.33,181.69z"/>
</g>
<g>
	<path style="fill:#FFFFFF;" d="M142.76,152.71c-3.3-6.5-4.87-13.38-6.65-20.72c-0.79-3.24-3.46-15.09-9.32-10.81
		c-2.12,1.55-2.21,5.46-2.48,7.81c-0.58,5.12-0.4,10.25,0.48,15.23c0.99,5.58,2.84,10.91,5.31,15.94
		C133.1,157.63,137.44,154.69,142.76,152.71z"/>
	<path style="fill:#0088C5;" d="M159.88,171.52c-0.08-0.05-0.15-0.1-0.23-0.15c-2.03-1.32-3.84-2.67-5.51-4.1
		c-2.39-2.03-4.47-4.22-6.41-6.73c-0.96-1.24-1.88-2.56-2.79-3.98c-0.81-1.27-1.51-2.55-2.17-3.85c-5.32,1.98-9.66,4.92-12.66,7.46
		c1.19,2.43,2.52,4.79,3.98,7.07c4.17,6.48,9.4,13.62,16.03,17.89c3.23,2.08,7.56,2.47,11.17,0.46c0.75-0.42,1.44-0.9,2.01-1.39
		c2.06-1.8,3.43-4.44,2.73-7.02c-0.14-0.51-0.37-0.96-0.63-1.38C164.16,173.84,161.79,172.78,159.88,171.52z"/>
	<path d="M129.21,120.27c4.19,0,6.22,8.97,6.89,11.73c1.79,7.34,3.36,14.22,6.65,20.72c0.66,1.3,1.36,2.58,2.17,3.85
		c0.91,1.42,1.83,2.74,2.79,3.98c1.94,2.51,4.03,4.7,6.41,6.73c1.67,1.42,3.48,2.77,5.51,4.1c0.08,0.05,0.15,0.1,0.23,0.15
		c1.92,1.26,4.29,2.32,5.51,4.27c0.26,0.42,0.49,0.86,0.63,1.38c0.7,2.58-0.67,5.23-2.73,7.02c-0.57,0.49-1.26,0.97-2.01,1.39
		c-1.62,0.9-3.39,1.32-5.13,1.32c-2.15,0-4.26-0.63-6.04-1.78c-6.63-4.27-11.86-11.41-16.03-17.89c-1.46-2.27-2.79-4.64-3.98-7.07
		c-2.47-5.03-4.32-10.36-5.31-15.94c-0.88-4.98-1.07-10.11-0.48-15.23c0.27-2.35,0.36-6.26,2.48-7.81
		C127.67,120.54,128.48,120.27,129.21,120.27 M129.21,116.31c-1.63,0-3.23,0.57-4.76,1.68c-3.29,2.4-3.71,6.77-3.99,9.66l-0.09,0.89
		c-0.62,5.43-0.45,10.94,0.52,16.37c1.01,5.69,2.91,11.41,5.65,16.99c1.27,2.6,2.69,5.11,4.2,7.47c4.08,6.35,9.73,14.25,17.21,19.08
		c2.45,1.58,5.28,2.41,8.18,2.41c2.48,0,4.92-0.63,7.06-1.83c0.97-0.54,1.9-1.19,2.67-1.86c3.47-3.02,4.98-7.25,3.96-11.04
		c-0.23-0.83-0.58-1.63-1.1-2.44c-1.44-2.3-3.65-3.63-5.43-4.7c-0.43-0.26-0.85-0.51-1.25-0.78l-0.25-0.17
		c-1.84-1.2-3.51-2.44-5.1-3.79c-2.17-1.84-4.08-3.85-5.85-6.14c-0.88-1.14-1.73-2.35-2.59-3.69c-0.64-1-1.27-2.11-1.97-3.5
		c-2.91-5.74-4.43-12.01-6.05-18.66l-0.29-1.21l-0.07-0.28C138.83,126.45,136.38,116.31,129.21,116.31L129.21,116.31z"/>
</g>
<g>
	<path style="fill:#FFFFFF;" d="M69.65,37.32c-0.36,1.98-3.59,3.72-6.03,3.89h-0.3c-2.21,0-2.44-1.52-4.15-3.23
		c-0.2-0.23-0.49-0.49-0.82-0.76c-0.82-0.66-1.58-0.96-2.27-0.96c-1.42,0-2.67,1.15-4.05,2.9c0,0,0,0-0.03,0.03
		c0,0,0.03,0.03,0,0.07c-0.3,0.33-0.59,0.69-0.86,1.05c-0.33,0.43-0.66,0.86-0.99,1.32c-0.13,0.16-0.23,0.3-0.33,0.46
		c-0.1,0.1-0.16,0.2-0.23,0.26c-0.1,0.13-0.16,0.26-0.26,0.36c-0.16,0.2-0.33,0.4-0.46,0.59c-0.13,0.16-0.26,0.33-0.4,0.49
		c-3.29,4.08-9.22,4.74-13.31,1.45c-4.05-3.29-4.74-9.26-1.52-13.37c0.36-0.43,0.72-0.89,1.05-1.32c1.42-1.75,2.83-3.39,4.25-4.84
		c0.2-0.23,0.4-0.43,0.59-0.63h0.03c3.72-3.62,7.77-6,13.18-6c0.82,0,1.65,0.07,2.5,0.16c3.16,0.4,6.13,1.58,8.47,3.82
		C67.7,26.95,70.7,31.62,69.65,37.32z"/>
	<path d="M50.15,41.64c-0.2,0.23-0.36,0.46-0.56,0.72c0.07-0.07,0.13-0.16,0.23-0.26c0.82-1.05,1.68-2.14,2.04-2.6
		c0.07-0.1,0.13-0.16,0.13-0.23c0.03-0.03,0-0.07,0-0.07c-0.3,0.36-0.56,0.72-0.86,1.12C50.81,40.75,50.48,41.18,50.15,41.64z
		 M38.95,25.73l0.63-0.63h-0.03C39.34,25.3,39.14,25.5,38.95,25.73z M38.95,25.73c-1.42,1.45-2.83,3.1-4.25,4.84
		C36.11,28.82,37.53,27.21,38.95,25.73z"/>
	<path d="M66.45,20.26c-2.83-2.73-6.42-4.38-10.71-4.91c-1.02-0.13-2.01-0.2-3-0.2c-10.11,0-16.27,6.75-22.2,14.3
		c-4.58,5.8-3.59,14.26,2.14,18.88c2.37,1.94,5.34,3,8.4,3c4.08,0,7.91-1.84,10.44-5.04c0.76-0.92,1.45-1.84,2.08-2.7
		c0.79-1.05,1.81-2.4,2.5-3.1c0.46,0.4,0.79,0.82,1.15,1.32c0.92,1.25,2.54,3.36,6.06,3.36c0.16,0,0.36,0,0.56-0.03
		c3.39-0.2,8.83-2.6,9.65-7.12C74.69,31.85,72.28,25.86,66.45,20.26z M69.65,37.32c-0.36,1.98-3.59,3.72-6.03,3.89h-0.3
		c-2.21,0-2.44-1.52-4.15-3.23c-0.23-0.26-0.53-0.49-0.82-0.76c-0.82-0.66-1.58-0.96-2.27-0.96c-1.42,0-2.67,1.15-4.05,2.9
		c0,0,0,0-0.03,0.03c0,0,0.03,0.03,0,0.07c0,0.07-0.07,0.13-0.13,0.23c-0.36,0.46-1.22,1.55-2.04,2.6c-0.1,0.1-0.16,0.2-0.23,0.26
		c-0.1,0.13-0.16,0.26-0.26,0.36c-0.16,0.2-0.33,0.4-0.46,0.59c-0.13,0.16-0.26,0.33-0.4,0.49c-3.29,4.08-9.22,4.74-13.31,1.45
		c-4.05-3.29-4.74-9.26-1.52-13.37c0.36-0.43,0.72-0.89,1.05-1.32c1.42-1.75,2.83-3.39,4.25-4.84c0.2-0.23,0.4-0.43,0.59-0.63h0.03
		c3.72-3.62,7.77-6,13.18-6c0.82,0,1.65,0.07,2.5,0.16c3.16,0.4,6.13,1.58,8.47,3.82C67.7,26.95,70.7,31.62,69.65,37.32z"/>
	<path style="fill:#683100;" d="M52.02,39.17c0,0,0,0-0.03,0.03c0,0,0.03,0.03,0,0.07c0,0.07-0.07,0.13-0.13,0.23
		c-0.36,0.46-1.22,1.55-2.04,2.6c-0.1,0.1-0.16,0.2-0.23,0.26c-0.1,0.13-0.16,0.26-0.26,0.36c-0.16,0.2-0.33,0.4-0.46,0.59
		c-0.13,0.16-0.26,0.33-0.4,0.49c-3.29,4.08-9.22,4.74-13.31,1.45c-4.05-3.29-4.74-9.26-1.52-13.37c0.36-0.43,0.72-0.89,1.05-1.32
		c1.42-1.75,2.83-3.39,4.25-4.84c0.2-0.23,0.4-0.43,0.59-0.63h0.03c0.3-0.03,0.89-0.16,1.02-0.13c2.08,0.36,4.02,2.17,3.69,4.25
		c-0.16,0.92-0.66,1.68-1.32,2.24c0.76-0.49,1.68-0.72,2.64-0.56c2.04,0.36,3.46,2.34,3.1,4.41c-0.16,1.02-0.76,1.88-1.52,2.44
		c0.66-0.3,1.35-0.46,2.11-0.33C50.54,37.62,52.25,38.28,52.02,39.17z"/>
</g>
<g>
	<path d="M89.14,32.74c12.37,0,25.18,5.03,35.41,11.95c8.73,5.9,14.66,16.56,17.75,26.47c0.19,0.6,0.32,1.19,0.49,1.79
		c0.35,1.02,0.68,2.03,0.97,3.03c3.52,12.06,1.42,22.55-1.93,34.52c-0.73,2.6-5.94,15.28-6.03,15.9c-1.5,6.97,2.11,15.48,3.11,22.35
		c1.85,12.77,2.22,25.96-3.12,38.02c-7.27,16.44-24.2,22.28-41.01,23.41c-1.66,0.11-3.32,0.17-4.98,0.17c-0.36,0-0.72,0-1.09-0.01
		c-0.08,0-0.16-0.01-0.24-0.01l-4.11-0.06c-2.02-0.03-4.12-0.14-6.13-0.33c-13.82-1.33-29.05-6.7-37.69-18.19
		c-6.25-8.31-8.62-22.08-7.94-32.33c0.54-8,2.99-15.74,4.5-23.58c0.59-3.07,1.74-6.07,1.5-9.19c-0.05-0.66-0.15-1.3-0.24-1.95
		c-0.5-1.41-4.26-12-5.21-16.05c-2.8-9.22-3.55-18.89-2.14-28.66c1.49-10.28,5.67-21.74,13.36-28.94
		c9.88-9.26,23.19-16.76,36.63-17.8c0,0,0.1-0.01,0.24-0.02l4.32-0.34C86.76,32.79,87.95,32.74,89.14,32.74 M89.14,28.79
		c-1.31,0-2.62,0.05-3.89,0.16l-4.3,0.34l-0.33,0.03c-13,1-27.23,7.87-38.94,18.84c-7.39,6.92-12.7,18.31-14.57,31.26
		c-1.48,10.25-0.73,20.43,2.23,30.26c0.81,3.39,3.25,10.52,5.17,15.98c0.07,0.46,0.12,0.88,0.16,1.3c0.12,1.58-0.32,3.38-0.79,5.29
		c-0.23,0.95-0.47,1.9-0.65,2.86c-0.48,2.51-1.08,5.09-1.67,7.59c-1.24,5.3-2.52,10.79-2.9,16.47c-0.71,10.69,1.7,25.64,8.72,34.97
		c8.17,10.86,22.92,18.06,40.47,19.75c2.06,0.2,4.29,0.32,6.46,0.35l4.11,0.06l0.22,0.01l1.16,0.01c1.75,0,3.51-0.06,5.24-0.17
		c22.23-1.49,37.57-10.4,44.36-25.75c6.17-13.96,5.07-28.81,3.42-40.19c-0.35-2.38-0.97-4.89-1.57-7.33
		c-1.17-4.75-2.39-9.66-1.61-13.5c0.23-0.65,1.14-2.98,1.96-5.05c2.09-5.29,3.6-9.16,4.04-10.74c3.26-11.63,5.86-23.2,1.92-36.69
		c-0.3-1.02-0.63-2.06-0.99-3.09l-0.15-0.56c-0.11-0.41-0.22-0.82-0.35-1.24c-3.89-12.49-10.93-22.91-19.31-28.58
		C114.73,33.27,101.36,28.79,89.14,28.79L89.14,28.79z"/>
	<path style="fill:#009FF9;" d="M141.83,110.5c3.35-11.96,5.45-22.46,1.93-34.52c-0.29-1.01-0.62-2.02-0.97-3.03
		c-0.17-0.6-0.3-1.19-0.49-1.79c-3.09-9.92-9.02-20.57-17.75-26.47c-11.22-7.58-25.54-12.9-38.98-11.81l-4.32,0.34
		c-0.15,0.01-0.24,0.02-0.24,0.02c-13.44,1.03-26.75,8.54-36.63,17.8c-7.69,7.21-11.87,18.66-13.36,28.94
		c-1.41,9.78-0.66,19.44,2.14,28.66c0.95,4.05,4.71,14.64,5.21,16.05c0.1,0.65,0.19,1.3,0.24,1.95c0.24,3.12-0.91,6.12-1.5,9.19
		c-1.51,7.84-3.96,15.58-4.5,23.58c-0.69,10.25,1.69,24.02,7.94,32.33c8.64,11.49,23.87,16.86,37.69,18.19
		c2.01,0.19,4.11,0.3,6.13,0.33l4.11,0.06c0.08,0,0.16,0.01,0.24,0.01c2.02,0.03,4.04-0.02,6.06-0.16
		c16.81-1.13,33.74-6.97,41.01-23.41c5.33-12.06,4.97-25.25,3.12-38.02c-1-6.87-4.61-15.38-3.11-22.35
		C135.89,125.79,141.11,113.1,141.83,110.5z"/>
</g>
<path style="fill:#009FF8;" d="M85.58,32.88c0,0-0.1,0.01-0.24,0.02L85.58,32.88z"/>
<g>
	<path style="fill-rule:evenodd;clip-rule:evenodd;fill:#FFFFFF;" d="M150.06,113.19c-6.85,8.5-20.36,14.26-36.14,15.45
		c-39.07,2.9-59.36-8.73-62.03-35.51c-0.36-3.79-1.65-23.32,9.82-36.86c6.85-8.14,17.13-12.72,30.47-13.6
		c45.89-3.13,49.51,30.83,49.64,32.28c0.07,0.82,0.66,1.52,1.45,1.75c0.43,0.1,10.31,2.93,12.09,15.61
		C156.51,100.37,154.7,107.42,150.06,113.19z"/>
	<path d="M159.28,91.74c-1.78-12.58-10.38-17.13-13.7-18.45c-1.02-6.56-7.87-34.79-47.57-34.79c-1.98,0-3.99,0.07-6.09,0.2
		c-14.46,0.99-25.66,6.03-33.24,14.99C46.49,68.12,47.41,87.82,47.97,93.52c2.64,26.52,20.56,39.5,54.68,39.5
		c3.69,0,7.54-0.16,11.56-0.46c17.1-1.25,31.29-7.41,38.94-16.9C158.52,109,160.57,100.96,159.28,91.74z M51.89,93.12
		c-0.36-3.79-1.65-23.32,9.82-36.86c6.85-8.14,17.13-12.72,30.47-13.6c45.89-3.13,49.51,30.83,49.64,32.28
		c0.07,0.82,0.66,1.52,1.45,1.75c0.43,0.1,10.31,2.93,12.09,15.61c1.15,8.07-0.66,15.12-5.3,20.88
		c-6.85,8.5-20.36,14.26-36.14,15.45C74.85,131.53,54.56,119.91,51.89,93.12z"/>
	<path style="fill-rule:evenodd;clip-rule:evenodd;fill:#FFBEB8;" d="M109.58,96.76c0.19,8.07-5.86,14.77-13.52,14.95
		s-14.03-6.21-14.22-14.28c-0.19-8.06,5.86-14.76,13.52-14.94S109.38,88.69,109.58,96.76"/>
	<path style="fill-rule:evenodd;clip-rule:evenodd;fill:#FFBEB8;" d="M154.62,90.37c-0.69-2.74-3.94-11.93-8.41-8.63
		c-6.03,4.45-3.24,15.77-0.25,21.39c1.18,2.21,3.3,4.8,6.27,4.24c1.68-0.31,2.3-3.49,2.52-4.58
		C155.59,98.72,155.64,94.43,154.62,90.37z"/>
</g>
<g>
	<path style="fill-rule:evenodd;clip-rule:evenodd;" d="M133.37,89.4c0.03,1.05-1.06,1.93-2.45,1.96s-2.53-0.79-2.55-1.84
		c-0.03-1.04,1.07-1.93,2.46-1.96S133.35,88.36,133.37,89.4"/>
	<path style="fill-rule:evenodd;clip-rule:evenodd;" d="M136.86,87.05L136.86,87.05c-1.44,0.03-2.64-1.35-2.68-3.09l-0.01-0.44
		c-0.04-1.74,1.09-3.19,2.53-3.22c1.44-0.03,2.64,1.35,2.69,3.09l0.01,0.44C139.44,85.57,138.3,87.01,136.86,87.05"/>
	<path style="fill-rule:evenodd;clip-rule:evenodd;" d="M114.54,87.59L114.54,87.59c-1.69,0.04-3.1-1.34-3.14-3.08l-0.01-0.44
		c-0.04-1.74,1.3-3.19,2.99-3.23c1.69-0.04,3.1,1.34,3.15,3.08l0.01,0.44C117.58,86.1,116.24,87.55,114.54,87.59"/>
	<path style="fill:#231815;" d="M142.1,93.41c-0.47-0.78-1.49-1.01-2.26-0.54c-0.78,0.48-1.02,1.49-0.54,2.26
		c0.06,0.1,0.19,0.31-0.37,0.98c-1.14,1.37-2.66,1.54-3.53,1.51c-1.56-0.05-3.05-0.8-3.89-1.95c-0.06-0.08-0.14-0.12-0.2-0.19
		c-0.07-0.07-0.12-0.15-0.2-0.2c-0.01-0.01-0.03-0.01-0.04-0.02c-0.11-0.07-0.24-0.11-0.37-0.15c-0.07-0.02-0.14-0.07-0.22-0.08
		c-0.13-0.02-0.25-0.01-0.38,0c-0.08,0-0.17-0.01-0.25,0.01c-0.1,0.02-0.2,0.07-0.29,0.12c-0.1,0.04-0.21,0.07-0.3,0.14
		c-0.01,0.01-0.03,0.01-0.05,0.02c-0.09,0.06-0.14,0.15-0.2,0.22c-0.06,0.06-0.14,0.11-0.19,0.18c-2.35,3.44-8.83,4.26-12.85,1.61
		c-0.93-0.61-1.47-1.15-1.69-1.44c0.3-0.64,0.17-1.42-0.38-1.92c-0.67-0.61-1.71-0.56-2.33,0.11c-0.53,0.58-0.77,1.32-0.67,2.09
		c0.16,1.28,1.25,2.6,3.26,3.91c2.19,1.44,4.82,2.12,7.41,2.12c3.28,0,6.44-1.14,8.62-3.19c1.4,1.15,3.2,1.84,5.1,1.91
		c0.09,0,0.18,0,0.28,0c2.32,0,4.45-0.97,5.89-2.69C143.26,96.07,142.64,94.28,142.1,93.41z"/>
</g>
<g>
	<path style="fill:#FFFFFF;" d="M37.5,164.2c2.89-6.69,7.18-12.29,11.68-18.36c1.99-2.68,9.39-12.3,2.36-14.07
		c-2.55-0.64-5.61,1.79-7.59,3.08c-4.31,2.82-8.14,6.24-11.41,10.11c-3.66,4.33-6.58,9.16-8.87,14.27
		C27.55,159.91,32.58,161.37,37.5,164.2z"/>
	<path style="fill:#0088C5;" d="M33.98,189.38c-0.01-0.09-0.02-0.18-0.03-0.27c-0.28-2.41-0.4-4.66-0.37-6.86
		c0.04-3.13,0.39-6.13,1.08-9.23c0.34-1.53,0.76-3.08,1.27-4.69c0.46-1.43,1-2.8,1.57-4.13c-4.93-2.82-9.96-4.28-13.83-4.97
		c-1.11,2.47-2.08,5-2.89,7.58c-2.32,7.35-4.47,15.94-3.52,23.76c0.46,3.81,2.93,7.4,6.79,8.88c0.8,0.31,1.61,0.53,2.36,0.65
		c2.7,0.44,5.61-0.2,7.15-2.39c0.31-0.43,0.5-0.89,0.66-1.36C34.93,194.16,34.23,191.66,33.98,189.38z"/>
	<path d="M50.66,131.66c0.3,0,0.59,0.03,0.88,0.11c7.03,1.77-0.37,11.39-2.36,14.07c-4.5,6.06-8.79,11.67-11.68,18.36
		c-0.58,1.33-1.12,2.7-1.57,4.13c-0.51,1.61-0.93,3.16-1.27,4.69c-0.69,3.1-1.04,6.1-1.08,9.23c-0.03,2.19,0.09,4.45,0.37,6.86
		c0.01,0.09,0.02,0.18,0.03,0.27c0.25,2.28,0.95,4.78,0.24,6.97c-0.15,0.47-0.35,0.93-0.66,1.36c-1.24,1.76-3.36,2.52-5.55,2.52
		c-0.53,0-1.07-0.04-1.59-0.13c-0.74-0.12-1.55-0.34-2.36-0.65c-3.86-1.49-6.33-5.07-6.79-8.88c-0.95-7.82,1.2-16.42,3.52-23.76
		c0.81-2.58,1.79-5.11,2.89-7.58c2.29-5.11,5.21-9.94,8.87-14.27c3.26-3.86,7.1-7.29,11.41-10.11
		C45.71,133.7,48.31,131.66,50.66,131.66 M50.66,127.71c-3.23,0-6.06,1.93-8.13,3.33l-0.75,0.5c-4.57,2.99-8.7,6.65-12.26,10.86
		c-3.73,4.41-6.91,9.53-9.46,15.2c-1.18,2.64-2.21,5.33-3.06,8c-2.27,7.2-4.74,16.59-3.67,25.43c0.67,5.51,4.23,10.14,9.29,12.1
		c1.04,0.4,2.12,0.7,3.14,0.87c0.74,0.12,1.5,0.18,2.23,0.18c3.71,0,6.91-1.53,8.78-4.2c0.49-0.7,0.88-1.49,1.18-2.4
		c0.85-2.58,0.46-5.13,0.14-7.18c-0.08-0.49-0.15-0.98-0.2-1.46l-0.03-0.3c-0.26-2.18-0.37-4.26-0.35-6.35
		c0.03-2.85,0.36-5.6,0.99-8.42c0.31-1.4,0.7-2.83,1.18-4.35c0.36-1.13,0.81-2.32,1.43-3.76c2.55-5.9,6.41-11.09,10.48-16.57l0.74-1
		l0.18-0.24c3.67-4.92,7.19-10.6,5.5-15.34c-0.48-1.35-1.84-3.75-5.52-4.68C51.91,127.78,51.29,127.71,50.66,127.71L50.66,127.71z"
		/>
</g>
</svg>
