<?xml version="1.0" encoding="utf-8"?>
<!-- Generator: Adobe Illustrator 23.0.2, SVG Export Plug-In . SVG Version: 6.00 Build 0)  -->
<svg version="1.1" id="레이어_1" xmlns="http://www.w3.org/2000/svg" xmlns:xlink="http://www.w3.org/1999/xlink" x="0px"
	 y="0px" viewBox="0 0 352 305" style="enable-background:new 0 0 352 305;" xml:space="preserve">
<style type="text/css">
	.st0{fill:#FFFFFF;}
	.st1{fill:#673101;}
	.st2{fill:#00A2E7;}
	.st3{fill:#008AC4;}
	.st4{fill:#FFB400;}
	.st5{fill:#DD9900;}
	.st6{fill:#FFE4A9;}
	.st7{fill:#FFC0BB;}
	.st8{fill:#A9DEEA;}
	.st9{fill:#353535;}
	.st10{fill:#EFE630;}
	.st11{fill:#C93C1B;}
	.st12{fill:#D34A20;}
	.st13{fill:#EDC932;}
	.st14{fill:#4D5B77;}
	.st15{fill:#384559;}
	.st16{fill:#BC3617;}
	.st17{fill:#7888A3;}
	.st18{fill:#8393AA;}
</style>
<title>자산 11</title>
<g>
	<path class="st0" d="M138.8,63.3l-0.3,0.1c-4.6,1.9-10-0.3-11.9-4.9l0,0c-1.5-3.7-5.8-6.7-7.2-7.5c-1.4-0.6-3.7-1.4-4.9-0.6
		c-2.8,1.6-4.8,8.9-5.2,13.2c-0.4,5-4.8,8.8-9.8,8.4s-8.8-4.8-8.4-9.8c0.2-2,1.8-20.2,14.1-27.5c4.4-2.6,11.8-4.8,22-0.2l0.5,0.3
		c1.2,0.6,11.4,6.3,15.7,16.7C145.2,56,143.2,61.3,138.8,63.3z"/>
	<path class="st1" d="M106.5,58.1c-0.6,0.3-1.1,0.8-1.5,1.4c0.3-0.9,0.3-1.9-0.1-2.8c-0.8-1.8-3-2.7-4.9-1.8l0,0
		c-0.8,0.4-1.5,1.1-1.8,1.9c0.6-1.9-0.5-3.9-2.4-4.5c-0.9-0.3-1.8-0.2-2.6,0.2c-0.1,0.1-0.3,0.2-0.4,0.3c-0.9,3.1-1.5,6.3-1.8,9.5
		c-0.2,5,3.6,9.3,8.7,9.6c4.8,0.2,9-3.3,9.5-8.2c0.2-1.7,0.5-3.4,0.9-5.1C109.1,57.7,107.7,57.6,106.5,58.1z"/>
</g>
<g>
	<path class="st0" d="M151.6,68.1l0.3,0.1c4.1,0.7,8.1-2.7,8.9-7.7c0.6-3.9,3.6-7.9,4.6-9.1c1.1-0.9,2.8-2.2,3.9-1.8
		c2.6,0.9,5.5,7.4,6.5,11.6c1.2,4.8,5.4,7.3,9.4,5.7s6.3-6.8,5.2-11.6c-0.5-2-5-19.2-16.2-23.3c-4.1-1.5-10.5-1.7-18,5.3l-0.4,0.4
		c-0.8,0.9-8.2,8.9-9.9,20.2C145,62.7,147.6,67.2,151.6,68.1z"/>
	<path class="st1" d="M176.9,55.1c0.6,0.2,1.1,0.5,1.5,1c-0.4-0.8-0.6-1.8-0.4-2.8c0.4-2,2-3.3,3.7-3c0.8,0.2,1.4,0.7,1.8,1.4
		c-0.4-0.8-0.5-1.6-0.3-2.5c0.4-2,2-3.3,3.7-3c0.1,0,0.2,0.1,0.3,0.1c1.3,2.9,2.3,5.8,3.1,8.9c1.2,4.8-1.1,10-5.2,11.6
		s-8.2-0.9-9.4-5.7c-0.4-1.6-1-3.2-1.7-4.8C174.7,55.4,175.8,54.9,176.9,55.1z"/>
</g>
<g>
	<path class="st2" d="M168.7,49.1c0,0,14.8,0.5,36,14.4l7.2,89.5l-9.7,61.7c-3.2,20.5-30.9,33.2-61.9,28.3s-53.4-25.5-50.1-46
		l10.4-66.2l7.5-47.5C108.2,83.3,114.9,40.5,168.7,49.1z"/>
	<path class="st3" d="M185.1,206.9L185.1,206.9l4.4-27.8c1.5-9.8,10.7-16.5,20.6-15c0,0,0,0,0.1,0l-8,50.5c-0.7,4.4-2.5,8.5-5.3,12
		C188.7,223.8,183.8,215.5,185.1,206.9z"/>
</g>
<g>
	<path class="st4" d="M97.5,149.6l0.5-3.3l-10.5-1.6c-3.9-3.6-0.3-9.9-0.3-9.9l0,0c8.1-11.6,5.4-27.6-6.2-35.7s-27.6-5.4-35.7,6.2
		c-4.2,6-5.7,13.6-3.9,20.8l0,0v0.1v0.1c0.2,0.8,2.2,10,7.6,15.8c0,0-4.8,2.1-10.4,9.7l-0.4,0.6c-0.2,0.2-0.3,0.4-0.5,0.6l0,0
		c-8,11.7-5.1,27.6,6.6,35.7s27.6,5.1,35.7-6.6c4.6-6.7,5.8-15.2,3.1-22.9c-0.1-2.5-0.4-6.5,3.5-7.9l10.5,1.6L97.5,149.6L97.5,149.6
		z M66.5,114.3c6.5,1,8.5,4.7,7.5,11.1s-4.2,10-10.6,8.9s-8.1-5.3-7.1-11.7S60.2,113.3,66.5,114.3L66.5,114.3z M57.3,172.8
		c-6.4-1-8.2-4.6-7.2-11s4-10,10.4-9s8.3,5.4,7.3,11.8S63.7,173.8,57.3,172.8L57.3,172.8z"/>
	<path class="st5" d="M98,157c-0.1,0.9-1,1.5-1.9,1.4l0,0c-0.9-0.1-1.5-1-1.4-1.9l0,0l2.4-15.1c0.1-0.9,1-1.5,1.9-1.4l0,0
		c0.9,0.1,1.5,1,1.4,1.9l0,0L98,157z"/>
	<path class="st6" d="M85.3,127.1L85.3,127.1c1.3,0.2,2.5-0.7,2.7-2c1.5-9.5-2.7-18.9-10.6-24.2c-1.2-0.6-2.6,0-3.1,1.1
		c-0.5,1-0.2,2.2,0.7,2.9l0,0c6.4,4.4,9.6,12,8.4,19.6C83.1,125.7,84,126.9,85.3,127.1L85.3,127.1z"/>
</g>
<path class="st0" d="M188.3,54.2c33.6,9.9,32,40.9,31.7,46.3c10,3.6,14.8,14.1,13.2,25.4l-0.3,2.4c-2.3,16.9-17.9,28.7-34.8,26.3
	l0,0l-11.7-1.6c-29.8-4.1-43.9-28.4-40.1-55.5S167.9,48.7,188.3,54.2z"/>
<path class="st7" d="M206.8,121.4c-1.3,9.7-10.3,16.4-19.9,15.1c-9.7-1.3-16.4-10.3-15.1-19.9c1.3-9.7,10.3-16.4,19.9-15.1
	C201.4,102.8,208.1,111.7,206.8,121.4z"/>
<g>
	<path d="M234.1,114.1c0.3,1.3,0.1,2.3-0.9,2.8s-2.6-0.7-2.9-2s0.2-2.9,1.5-3S233.8,113.1,234.1,114.1z"/>
	<path d="M234.3,123.8c0-0.8-0.2-1.5-0.4-2.2c-0.1-0.1-0.2-0.2-0.3-0.2c-0.4,0-0.7,0.2-1,0.4c-0.1,0-5.1,4.1-10.4,3.2l-2.1-0.3
		c-0.9-0.2-1.9,0.4-2.1,1.4s0.4,1.9,1.4,2.1c0.1,0,0.1,0,0.2,0l2,0.3h0.3c4.6,0.6,8.9-1.4,11.1-2.8
		C233.8,126.7,234.2,124.8,234.3,123.8z"/>
	<path d="M217.1,102.3l-6.3,1.6c0,0.1,0,0.2-0.1,0.2l-0.1,0.5c-0.3,2,1.1,3.8,3.1,4.1c2,0.3,3.8-1.1,4.1-3.1l0.1-0.5
		C218.1,104.1,217.8,103.1,217.1,102.3z"/>
</g>
<path class="st8" d="M198,86.9l0.4-3c0.1-0.9-0.5-1.7-1.4-1.8c-0.9-0.1-1.7,0.5-1.8,1.4l0,0l-0.4,2.7c-0.1,0.9-0.9,1.5-1.8,1.4
	c-0.9-0.1-1.5-0.9-1.4-1.8l0.4-2.7c0.1-0.9-0.5-1.7-1.4-1.8l0,0c-0.9-0.1-1.6,0.5-1.7,1.4l0,0l-0.4,3c0,0.1,0,0.2,0,0.3
	c0,2.6,2.2,4.7,4.8,4.7c2.1,0,4-1.5,4.5-3.6C198,87.1,198,87,198,86.9z"/>
<path class="st9" d="M265.2,173.8L239.1,160l6.5-12.2c0.9-1.9,0.2-4.1-1.7-5c-1.8-0.9-3.9-0.2-4.9,1.5l-16,30.2
	c-1,1.8-0.3,4.1,1.6,5.1c1.8,1,4.1,0.3,5.1-1.6l6.5-12.3l26.2,13.8L265.2,173.8z"/>
<g>
	<path class="st0" d="M208.5,188h-0.3c-34.6-2.2-41.2-25-41.5-25.9c-1-3.8,1.2-7.6,5-8.7c3.7-1,7.6,1.1,8.6,4.8
		c0.2,0.8,4.9,14,28.4,15.6c7.2-0.5,13.9-4,18.4-9.8c2.4-3.1,7.1-3.1,10-0.5c2.8,2.7,3.1,7.1,0.5,10c-7,8.8-17.6,14.1-28.9,14.4
		L208.5,188L208.5,188z"/>
	<path class="st3" d="M237.1,163.6c-2.9-2.6-7.6-2.6-10,0.5c-4.5,5.7-11.2,9.3-18.4,9.8c-2.8-0.2-5.5-0.6-8.2-1.1v14.4
		c2.6,0.4,5.1,0.7,7.7,0.9h0.5c11.3-0.3,21.8-5.6,28.9-14.4C240.1,170.6,239.9,166.2,237.1,163.6z"/>
</g>
<path class="st10" d="M302.4,165.2c10.8,0,19.5,9.6,19.5,21.5s-8.7,21.5-19.5,21.5V165.2z"/>
<g>
	<path class="st11" d="M302.4,240.3c0.1,2.7-2,5-4.7,5h-38.4c-2.7-0.1-4.8-2.4-4.7-5V137c-0.1-2.7,2-4.9,4.7-5h38.4
		c2.7,0.1,4.8,2.3,4.7,5V240.3z"/>
	<path class="st12" d="M297.7,141.8h-38.4c-2.6,0-4.7,2.1-4.7,4.7l0,0v39.9h-156v-21.2c0-2.6-2.1-4.7-4.7-4.7l0,0h-3.1
		c-2.6,0-4.7,2.1-4.7,4.7l0,0v82h171.5c0.5,0.2,1.1,0.3,1.7,0.3h38.4c0.6,0,1.1-0.1,1.7-0.3h3V146.5
		C302.4,144,300.3,141.8,297.7,141.8z"/>
</g>
<path class="st13" d="M81.2,206.6h4.9v16.3h-4.9c-2.6,0-4.7-2.1-4.7-4.7l0,0v-6.9C76.5,208.7,78.6,206.6,81.2,206.6L81.2,206.6z"/>
<g>
	<g>
		<path class="st14" d="M105,246.7c0-15.7,12.7-28.5,28.5-28.5c15.7,0,28.5,12.7,28.5,28.5s-12.7,28.5-28.5,28.5l0,0
			C117.7,275.2,105,262.5,105,246.7z"/>
		<path class="st15" d="M133.5,263.5c-9.2,0-16.7-7.5-16.7-16.7s7.5-16.7,16.7-16.7s16.7,7.5,16.7,16.7l0,0
			C150.1,256,142.7,263.4,133.5,263.5z"/>
	</g>
	<path class="st16" d="M133.5,212.7c-18.8,0-34.1,15.9-34.1,35.6v6.5h4.9v-6.5l0,0c0-16.8,13.1-30.4,29.2-30.4s29.2,13.6,29.2,30.4
		l0,0v6.5h4.9v-6.5C167.6,228.6,152.3,212.7,133.5,212.7z"/>
</g>
<g>
	<g>
		<path class="st14" d="M214.4,245.8c0-15.7,12.7-28.5,28.5-28.5c15.7,0,28.5,12.7,28.5,28.5c0,15.7-12.7,28.5-28.5,28.5l0,0
			C227.1,274.3,214.4,261.6,214.4,245.8z"/>
		<path class="st15" d="M242.8,262.6c-9.2,0-16.7-7.5-16.7-16.7s7.5-16.7,16.7-16.7s16.7,7.5,16.7,16.7S252,262.6,242.8,262.6z"/>
	</g>
	<path class="st16" d="M242.8,211.8c-18.8,0-34.1,15.9-34.1,35.6v6.5h4.9v-6.5l0,0c0-16.8,13.1-30.4,29.2-30.4s29.2,13.6,29.2,30.4
		l0,0v6.5h4.9v-6.5C276.9,227.7,261.7,211.8,242.8,211.8z"/>
</g>
<g>
	<path class="st17" d="M309.4,230.9c0,1.9-1.1,3.5-2.4,3.5h-14.3c-1.3,0-2.4-1.6-2.4-3.5l0,0c0-2,1.1-3.5,2.4-3.5H307
		C308.3,227.3,309.4,228.9,309.4,230.9z"/>
	<rect x="294.6" y="234.4" class="st18" width="10.5" height="10.6"/>
	<path class="st17" d="M307,245h-14.3c-1.3,0-2.4,1.6-2.4,3.5s1.1,3.5,2.4,3.5H307c1.3,0,2.4-1.6,2.4-3.5S308.3,245,307,245z"/>
</g>
<g>
	<path class="st17" d="M94.8,230.9c0,1.9-1.1,3.5-2.4,3.5H78.1c-1.3,0-2.4-1.6-2.4-3.5l0,0c0-2,1.1-3.5,2.4-3.5h14.3
		C93.7,227.3,94.8,228.9,94.8,230.9L94.8,230.9z"/>
	<rect x="80" y="234.4" class="st18" width="10.5" height="10.6"/>
	<path class="st17" d="M92.4,245H78.1c-1.3,0-2.4,1.6-2.4,3.5s1.1,3.5,2.4,3.5h14.3c1.3,0,2.4-1.6,2.4-3.5S93.7,245,92.4,245z"/>
</g>
</svg>
