<?xml version="1.0" encoding="utf-8"?>
<!-- Generator: Adobe Illustrator 24.1.1, SVG Export Plug-In . SVG Version: 6.00 Build 0)  -->
<svg version="1.1" id="Layer_1" xmlns="http://www.w3.org/2000/svg" xmlns:xlink="http://www.w3.org/1999/xlink" x="0px" y="0px"
	 viewBox="0 0 160 240" style="enable-background:new 0 0 160 240;" xml:space="preserve">
<path style="fill:#FFFFFF;" d="M95.61,214.48L95.61,214.48c0-0.01-0.01-0.02-0.01-0.03C95.61,214.46,95.61,214.47,95.61,214.48z"/>
<g>
	<path style="fill:#0097EB;" d="M102.78,201.46c-0.41,0.36-0.86,0.69-1.41,0.93c-2.49,1.07-6.23,2.95-9.21,1.89
		c2.21,7.01,1.9,5.21,3.46,10.2c-3.69-1.43-9.16,0.84-11.37,3.28c-3.03,3.35-5.46,10.05-2.76,13.9c2.02,2.86,12.34,3.11,15.35,3.15
		c3.27,0.05,6.36-0.23,9.61-0.78c2.02-0.34,6.12-1.61,7.23-3.57c1.52-2.7-1.24-4.77-3.8-11.13
		C107.46,213.29,106.47,211.02,102.78,201.46z"/>
	<path style="fill:#FFFFFF;" d="M92.15,204.28c2.98,1.07,6.73-0.82,9.21-1.89c0.55-0.23,1-0.56,1.41-0.92
		c-2.03-6.15-3.82-12.97-4.23-20.7c-4.04,1.26-8.28,1.91-12.59,2.12c0.34,2.08,1.07,4.38,1.59,6.59
		C88.52,193.61,90.38,199.16,92.15,204.28z"/>
	<path d="M98.54,180.77c0.42,7.73,2.19,14.56,4.23,20.71c0,0,0.01-0.01,0.01-0.01c3.69,9.56,4.69,11.83,7.11,17.86
		c2.55,6.36,5.31,8.43,3.8,11.13c-1.11,1.96-5.21,3.23-7.23,3.57c-3,0.51-5.87,0.79-8.87,0.79c-0.25,0-0.49,0-0.74-0.01
		c-3.01-0.05-13.34-0.29-15.35-3.15c-2.71-3.84-0.27-10.55,2.76-13.9c1.73-1.92,5.47-3.72,8.78-3.72c0.91,0,1.79,0.14,2.59,0.45
		c0-0.01,0-0.01,0-0.02c-1.56-4.97-1.25-3.18-3.46-10.19c-1.77-5.11-3.63-10.66-4.61-14.8c-0.52-2.21-1.25-4.51-1.59-6.59
		C90.26,182.68,94.5,182.03,98.54,180.77 M100.33,178.19l-2.36,0.74c-3.66,1.14-7.74,1.83-12.1,2.03l-2.16,0.1l0.35,2.13
		c0.23,1.42,0.63,2.92,1.02,4.36c0.21,0.78,0.42,1.59,0.6,2.36c0.98,4.14,2.81,9.64,4.65,14.96c1.2,3.82,1.68,5.07,2.09,6.18
		c0.13,0.34,0.25,0.66,0.39,1.05c-3.53,0.08-7.79,1.92-9.98,4.36c-3.39,3.75-6.28,11.5-2.9,16.3c0.65,0.93,2.64,3.75,16.9,3.97
		c0.26,0,0.51,0.01,0.77,0.01c3,0,5.92-0.26,9.19-0.81c0.27-0.05,6.7-1.17,8.59-4.53c1.5-2.67,0.25-4.97-1.19-7.63
		c-0.73-1.34-1.63-3.01-2.5-5.16c-0.67-1.67-1.23-3.04-1.77-4.37c-1.43-3.52-2.66-6.56-5.33-13.46l-0.09-0.24
		c-2.44-7.43-3.68-13.57-4.02-19.87L100.33,178.19L100.33,178.19z"/>
</g>
<g>
	<path style="fill-rule:evenodd;clip-rule:evenodd;fill:#0097EB;" d="M61.01,214.5l-0.72,8.16c0,2.04-3.23,3.69-5.27,3.69h-2.54
		H41.48c-3.48,0-7.69,0.49-10.27-2.47c-1.76-2.02-1.27-6.06-0.15-8.27c2.07-4.07,6.04-7.09,10.5-8.06c0,0-0.04,0.01,0,0
		c6.69-1.3,10.03,2.13,10.03,2.13l3.13-13.32c0,0,2.62,1.2,4.57,1.62c1.95,0.42,5.41,0.43,5.41,0.43L61.01,214.5z"/>
	<path style="fill:#FFFFFF;" d="M58.24,179.22l-3.52,17.15l0,0c0.04,0.02,2.63,1.2,4.57,1.62c1.93,0.42,5.34,0.43,5.4,0.43l0,0
		l3.45-16.81C64.72,181.02,61.4,180.27,58.24,179.22z"/>
	<path d="M58.24,179.22c3.16,1.05,6.48,1.8,9.91,2.38l-3.45,16.81l0,0c0,0,0.01,0,0.01,0l-3.69,16.08l-0.72,8.16
		c0,2.04-3.23,3.69-5.27,3.69h-2.54H41.48c-0.86,0-1.76,0.03-2.68,0.03c-2.78,0-5.65-0.28-7.59-2.5c-1.76-2.02-1.27-6.06-0.15-8.27
		c2.07-4.07,6.04-7.09,10.5-8.06c1.07-0.21,2.05-0.29,2.94-0.29c4.73,0,7.09,2.42,7.09,2.42l3.13-13.31c0,0,0,0,0,0l0,0
		L58.24,179.22 M56.79,176.71l-0.44,2.12l-3.51,17.11l-2.5,10.64c-1.4-0.66-3.35-1.26-5.84-1.26c-1.07,0-2.19,0.11-3.31,0.33
		l-0.02,0l-0.02,0c-5.07,1.1-9.48,4.49-11.81,9.07c-1.32,2.6-2.07,7.56,0.42,10.41c2.42,2.78,5.78,3.16,9.04,3.16
		c0.47,0,0.95-0.01,1.41-0.02c0.43-0.01,0.85-0.01,1.27-0.01h11.01h2.54c2.84,0,7.11-2.2,7.19-5.52l0.7-7.96l3.39-14.78l0.02-0.01
		l0.23-1.12l0.01-0.05l0.54-2.36h-0.06l2.97-14.5l0.4-1.95l-1.96-0.33c-3.65-0.62-6.79-1.37-9.62-2.31L56.79,176.71L56.79,176.71z"
		/>
</g>
<g>
	<path style="fill:#FFFFFF;" d="M75.77,29.3c-0.36,0.12-0.7,0.2-1.03,0.22c-2.21,0.18-3.84-1.77-5.16-4.07
		c-1.59-2.76-3.14-3.65-4.81-3.51C64,22,63.19,22.28,62.34,22.7c-1.22,0.6-2.54,1.48-4,2.39c-1.1,0.69-2.31,1.07-3.51,1.17
		c-2.85,0.22-5.69-1.15-7.26-3.82c-2.23-3.79-1.07-8.74,2.63-11.09c2.34-1.48,4.82-2.76,7.42-3.67c0.97-0.35,1.96-0.65,2.97-0.89
		c1.06-0.26,2.07-0.42,3.03-0.5c3.69-0.29,6.8,0.72,10.21,3.13c2.71,1.92,4.55,5.21,5.46,8.19C81.28,24.1,78.87,28.2,75.77,29.3z"/>
	<path d="M81.14,17.05c-1.2-3.91-3.46-7.27-6.2-9.2c-3.86-2.73-7.4-3.8-11.47-3.48c-1.06,0.08-2.16,0.26-3.33,0.54
		c-3.1,0.74-6.25,2.04-9.38,3.86c-0.53,0.3-1.06,0.62-1.59,0.96c-4.55,2.89-6.01,9.03-3.26,13.69c1.9,3.22,5.37,5.05,9.07,4.76
		c1.54-0.13,3.06-0.63,4.38-1.46c0.34-0.21,0.67-0.42,1-0.63c0.26-0.17,0.52-0.33,0.78-0.49c1.45-0.9,2.79-1.66,3.78-1.74
		c0.44-0.04,1.46-0.12,2.99,2.55c1.32,2.3,3.48,5.31,6.98,5.03c0.5-0.04,1.01-0.15,1.52-0.33C80.33,29.72,83.48,24.72,81.14,17.05z
		 M62.34,22.7c-1.22,0.6-2.54,1.48-4,2.39c-1.1,0.69-2.31,1.07-3.51,1.17c-2.85,0.22-5.69-1.15-7.26-3.82
		c-2.23-3.79-1.07-8.74,2.63-11.09c2.34-1.48,4.82-2.76,7.42-3.67c0.97-0.35,1.96-0.65,2.97-0.89c1.06-0.26,2.07-0.42,3.03-0.5
		c3.69-0.29,6.8,0.72,10.21,3.13c2.71,1.92,4.55,5.21,5.46,8.19c1.99,6.49-0.42,10.59-3.52,11.69c-0.36,0.12-0.7,0.2-1.03,0.22
		c-2.21,0.18-3.84-1.77-5.16-4.07c-1.59-2.76-3.14-3.65-4.81-3.51C64,22,63.19,22.28,62.34,22.7z"/>
	<path style="fill:#673101;" d="M62.34,22.7c-1.22,0.6-2.54,1.48-4,2.39c-1.1,0.69-2.31,1.07-3.51,1.17
		c-2.85,0.22-5.69-1.15-7.26-3.82c-2.23-3.79-1.07-8.74,2.63-11.09c2.34-1.48,4.82-2.76,7.42-3.67c0.15,0.04,0.28,0.09,0.41,0.15
		c0.02,0.01,0.04,0.01,0.07,0.03c0.01,0,0.02,0.01,0.03,0.02c0.64,0.35,0.99,0.89,1.14,1.2c0.52,0.95,0.56,2.15-0.02,3.18
		c-0.38,0.68-0.99,1.15-1.66,1.4c0.73-0.16,1.52-0.1,2.22,0.31c1.49,0.88,2.02,2.84,1.15,4.4c-0.43,0.78-1.12,1.29-1.89,1.52
		c0.6-0.04,1.21,0.03,1.75,0.35C61.74,20.76,62.25,21.7,62.34,22.7z"/>
</g>
<g>
	<path d="M44.37,108.96c-0.95-2.56-2.72-5.14-3.68-6.46c-1.4-1.89-2.94-3.55-4.44-5.15c-2.33-2.5-4.53-4.85-5.74-7.66
		c-0.26-0.62-0.48-1.17-0.68-1.69l-0.03-0.07c-0.15-0.41-0.28-0.79-0.4-1.18c-0.37-1.17-0.67-2.28-0.91-3.38
		c-0.49-2.19-0.73-4.32-0.75-6.53c-0.02-1.61,0.08-3.2,0.28-4.87l0.03-0.23c0.04-0.36,0.1-0.73,0.17-1.14
		c0.25-1.61,0.54-3.42-0.08-5.32v-0.02l-0.01-0.02l-0.08-0.23c-0.21-0.57-0.46-1.04-0.76-1.47c-1.64-2.36-4.73-3.53-8.07-3.06
		c-0.76,0.1-1.57,0.3-2.36,0.58c-2.52,0.91-4.59,2.72-5.84,5.1c-0.6,1.16-0.99,2.4-1.16,3.71c-0.85,6.67,1.03,13.84,2.76,19.35
		c0.27,0.88,0.58,1.77,0.91,2.65c0.04,0.11,0.08,0.23,0.13,0.35l0.91,2.28l0.37,0.84l0.23,0.51l0.68,1.33
		c1.81,3.42,4.03,6.08,6.37,8.87c2.56,3.05,6.91,6.91,10.58,9.36c2.29,1.53,5,3.01,7.84,2.37c2.19-0.5,3.27-1.73,3.78-2.68
		l0.03-0.06C45.3,113.43,45.27,111.38,44.37,108.96z M43.06,113.22c-0.06,0.35-0.17,0.67-0.33,0.96c-0.47,0.87-1.32,1.45-2.52,1.72
		c-2.12,0.48-4.4-0.79-6.34-2.09c-3.54-2.37-7.72-6.07-10.17-9c-0.35-0.42-0.69-0.82-1.02-1.23c-0.95-1.14-1.85-2.25-2.68-3.4
		c-0.57-0.78-1.11-1.58-1.62-2.43c-0.61-0.99-1.17-2.04-1.68-3.19l-0.36-0.84c-0.36-0.84-0.7-1.69-1.01-2.52
		c-0.31-0.85-0.61-1.7-0.88-2.56c-1.67-5.32-3.48-12.23-2.68-18.52c0.14-1.1,0.47-2.13,0.96-3.07c1-1.92,2.68-3.42,4.78-4.17
		c0.66-0.24,1.34-0.41,1.97-0.5c2.62-0.36,5.01,0.5,6.23,2.26c0.21,0.3,0.38,0.63,0.52,1.01l0.08,0.23
		c0.48,1.46,0.24,2.96,0.01,4.41c-0.07,0.41-0.13,0.82-0.18,1.21l-0.03,0.23c-0.21,1.75-0.31,3.43-0.3,5.13
		c0.02,2.34,0.28,4.6,0.8,6.93c0.25,1.15,0.56,2.31,0.95,3.54c0.14,0.43,0.28,0.85,0.44,1.27c0.14,0.38,0.28,0.75,0.43,1.11
		l0.32,0.74c1.34,3.11,3.64,5.59,6.09,8.21c1.46,1.57,2.97,3.19,4.29,4.98c0.91,1.24,2.56,3.65,3.43,5.99
		c0.28,0.74,0.45,1.42,0.52,2.04c0.04,0.26,0.06,0.52,0.06,0.76C43.14,112.71,43.11,112.97,43.06,113.22z"/>
	<path style="fill:#FFFFFF;" d="M43.14,112.43c0,0.28-0.03,0.54-0.08,0.79c-0.06,0.35-0.17,0.67-0.33,0.96
		c-0.47,0.87-1.32,1.45-2.52,1.72c-2.12,0.48-4.4-0.79-6.34-2.09c-3.54-2.37-7.72-6.07-10.17-9c-0.35-0.42-0.69-0.82-1.02-1.23
		c-0.95-1.14-1.85-2.25-2.68-3.4c-0.57-0.78-1.11-1.58-1.62-2.43c-0.61-0.99-1.17-2.04-1.68-3.19l-0.36-0.84l0.9-0.14
		c2.58-0.4,6.5-1.33,10.49-3.49l0.7-0.38l0.32,0.74c1.34,3.11,3.64,5.59,6.09,8.21c1.46,1.57,2.97,3.19,4.29,4.98
		c0.91,1.24,2.56,3.65,3.43,5.99c0.28,0.74,0.45,1.42,0.52,2.04C43.12,111.93,43.14,112.19,43.14,112.43z"/>
	<path style="fill:#0185C4;" d="M17.24,93.58c2.59-0.4,6.5-1.32,10.49-3.49l0.7-0.38l0.32,0.74c-0.26-0.61-0.51-1.22-0.75-1.85l0,0
		c-0.15-0.41-0.3-0.83-0.44-1.26c-0.39-1.23-0.7-2.39-0.96-3.54c-0.51-2.33-0.77-4.59-0.79-6.93c-0.01-1.7,0.08-3.38,0.3-5.13
		l0.03-0.23c0.05-0.4,0.11-0.8,0.18-1.21c0.23-1.46,0.47-2.96,0-4.41l-0.08-0.23c-0.14-0.38-0.31-0.71-0.52-1.01
		c-1.22-1.76-3.61-2.62-6.23-2.25c-0.63,0.09-1.31,0.26-1.97,0.49c-3.12,1.11-5.31,3.89-5.74,7.24c-0.8,6.3,1.01,13.21,2.68,18.52
		c0.27,0.86,0.56,1.71,0.88,2.56c0.31,0.83,0.65,1.68,1.01,2.52L17.24,93.58z"/>
</g>
<path style="fill:#0185C4;" d="M16.7,94.56l0.23,0.51l0.02,0C16.87,94.9,16.78,94.74,16.7,94.56z"/>
<g>
	<path style="fill:#0097EB;" d="M121.05,123.11c2.75,8.91,6.45,16.93,4.26,26.38c-2,8.67-5.93,17.08-12.56,23.17
		c-8.39,7.72-18.97,10.29-29.84,10.29c-4.19,0-8.42-0.38-12.58-1c-14.26-2.11-26.88-6.67-34.34-22.24
		c-4.87-10.17-4.6-23.39-2.14-34.16c1-4.41,2.94-8.56,3.84-13c0.9-4.46,0.14-9.28-0.85-13.68c0,0-6.45-12.01-6.86-15.24
		c-1.51-11.89,0.07-22.74,5.19-33.59c3.93-8.34,10.46-16.99,18.86-21.11c8.05-3.94,17.46-6.57,26.57-6.57
		c3.11,0,6.19,0.31,9.17,0.97l3.75,0.83c0.13,0.03,0.21,0.05,0.21,0.05c11.7,2.56,22.48,10.8,30.04,20.15
		c5.88,7.29,8.15,17.87,8.2,27.1c0.05,11.16-2.91,21.74-8.69,31.14c-3.07,4.98-5.69,7.33-4.25,13.72
		C119.56,118.68,120.41,121.02,121.05,123.11z"/>
	<path d="M122.89,122.55c-0.18-0.59-0.38-1.21-0.58-1.83c-0.51-1.58-1.04-3.2-1.4-4.82c-1.03-4.57,0.24-6.51,2.55-10.02
		c0.47-0.71,0.95-1.45,1.46-2.27c6.01-9.77,9.03-20.59,8.97-32.16c-0.05-11.26-3.2-21.58-8.62-28.3
		c-8.74-10.81-20.08-18.4-31.13-20.82l-0.18-0.04l-3.78-0.84c-3.02-0.67-6.24-1.01-9.58-1.01c-8.78,0-18.52,2.4-27.42,6.76
		c-7.75,3.81-14.95,11.83-19.76,22.02c-5.16,10.97-6.92,22.3-5.35,34.65c0.41,3.3,5.6,13.17,6.95,15.68
		c0.87,3.92,1.62,8.46,0.78,12.62c-0.45,2.23-1.17,4.37-1.94,6.64c-0.68,2.03-1.39,4.14-1.89,6.32c-1.42,6.24-4.05,22.18,2.29,35.42
		c8.18,17.07,22.68,21.36,35.79,23.31c4.56,0.67,8.89,1.02,12.86,1.02c12.87,0,23.35-3.64,31.15-10.8
		c6.27-5.76,10.81-14.12,13.13-24.15c1.94-8.43-0.41-15.55-2.91-23.08C123.82,125.45,123.34,124,122.89,122.55z M125.31,149.49
		c-2,8.67-5.93,17.08-12.56,23.17c-8.39,7.72-18.97,10.29-29.84,10.29c-4.19,0-8.42-0.38-12.58-1
		c-14.26-2.11-26.88-6.67-34.34-22.24c-4.87-10.17-4.6-23.39-2.14-34.16c1-4.41,2.94-8.56,3.84-13c0.9-4.46,0.14-9.28-0.85-13.68
		c0,0-6.45-12.01-6.86-15.24c-1.51-11.89,0.07-22.74,5.19-33.59c3.93-8.34,10.46-16.99,18.86-21.11c8.05-3.94,17.46-6.57,26.57-6.57
		c3.11,0,6.19,0.31,9.17,0.97l3.75,0.83c0.13,0.03,0.21,0.05,0.21,0.05c11.7,2.56,22.48,10.8,30.04,20.15
		c5.88,7.29,8.15,17.87,8.2,27.1c0.05,11.16-2.91,21.74-8.69,31.14c-3.07,4.98-5.69,7.33-4.25,13.72c0.53,2.36,1.38,4.7,2.02,6.79
		C123.8,132.02,127.5,140.04,125.31,149.49z"/>
</g>
<path style="fill:#0097EB;" d="M85.8,20.87l0.22,0.03C85.88,20.88,85.8,20.87,85.8,20.87z"/>
<g>
	<path style="fill-rule:evenodd;clip-rule:evenodd;fill:#FFFFFF;" d="M107.09,100.99c-9.15,11.12-20.01,12.5-36.83,11.16
		c-0.07-0.01-0.15-0.02-0.27-0.03c-0.52-0.04-1.66-0.14-2.33-0.2c-10.06-0.91-21.41-4.74-30.37-10.25
		c-6.26-3.85-10.61-9.74-11.94-16.15c-1.07-5.17-0.12-9.51,3.09-14.09c0.45-0.64,3.29-3.6,4.51-4.51l0.29-0.22l0.08-0.35
		c0.37-1.74,2.36-10.64,4.53-15.39c2.32-5.07,7.84-10.27,13.75-12.94c6.7-3.01,13.47-4.19,20.71-3.61c5.68,0.45,11.7,2,18.38,4.74
		c11.99,4.91,20.13,15.33,21.76,27.88c0.46,3.47,0.95,7.52,1.04,11.56C113.64,85.47,112.04,94.97,107.09,100.99z"/>
	<path d="M115.41,78.54c-0.09-4.13-0.59-8.23-1.05-11.75c-1.72-13.25-10.3-24.25-22.94-29.43c-6.87-2.81-13.07-4.4-18.95-4.87
		c-7.58-0.61-14.66,0.63-21.66,3.78c-6.3,2.84-12.21,8.42-14.71,13.89c-2.13,4.67-4.07,13.07-4.59,15.44
		c-1.43,1.17-4.11,3.95-4.65,4.73c-3.49,4.98-4.57,9.93-3.4,15.58c1.44,6.93,6.11,13.28,12.82,17.4c4.6,2.82,9.82,5.22,15.18,7.03
		s10.86,3.03,16.03,3.5c0.67,0.06,1.81,0.16,2.34,0.2l0.27,0.03c5.44,0.43,10.28,0.59,14.66,0.24c9.7-0.76,17.14-3.99,23.81-12.09
		C113.86,95.79,115.57,85.77,115.41,78.54z M70.26,112.15c-0.07-0.01-0.15-0.02-0.27-0.03c-0.52-0.04-1.66-0.14-2.33-0.2
		c-10.06-0.91-21.41-4.74-30.37-10.25c-6.26-3.85-10.61-9.74-11.94-16.15c-1.07-5.17-0.12-9.51,3.09-14.09
		c0.45-0.64,3.29-3.6,4.51-4.51l0.29-0.22l0.08-0.35c0.37-1.74,2.36-10.64,4.53-15.39c2.32-5.07,7.84-10.27,13.75-12.94
		c6.7-3.01,13.47-4.19,20.71-3.61c5.68,0.45,11.7,2,18.38,4.74c11.99,4.91,20.13,15.33,21.76,27.88c0.46,3.47,0.95,7.52,1.04,11.56
		c0.15,6.88-1.45,16.38-6.4,22.4C97.94,112.11,87.08,113.49,70.26,112.15z"/>
	<path style="fill-rule:evenodd;clip-rule:evenodd;fill:#FFB7B3;" d="M67.49,92.12c-1.72,6.48,2.34,13.17,9.05,14.94
		c6.72,1.78,13.56-2.03,15.28-8.51c1.72-6.47-2.33-13.16-9.05-14.94C76.06,81.84,69.21,85.65,67.49,92.12"/>
	<path style="fill-rule:evenodd;clip-rule:evenodd;fill:#FFB7B3;" d="M30.47,70.04c-1.75,1.39-4.35,4.42-5.26,9.87
		c-0.76,7,3.22,12.97,3.72,13.1c2.69,0.68,5.31-4.43,5.89-11C35.4,75.44,32.5,68.43,30.47,70.04z"/>
</g>
<g>
	<path style="fill:#FFFFFF;" d="M133.01,45.23c-1.27,0.79-2.64,1.22-4,1.33c-0.56,0.05-1.12,0.03-1.66-0.03
		c-2.69-0.32-5.15-1.92-6.55-4.57c-0.9-1.69-1.74-3.33-2.65-4.67c-1.19-1.75-2.53-3.01-4.32-3.22c-0.3-0.04-0.61-0.04-0.94-0.02
		c-1.16,0.1-2.49,0.59-4.07,1.59c-1.08,0.68-1.94,1.1-2.78,1.17c-0.18,0.01-0.37,0.01-0.56-0.02c-1.3-0.15-2.62-1.23-4.67-3.59
		c-2.68-3.11-2.25-5.09,3.4-10.75c2.6-2.6,6.3-5.02,10.08-5.5c0.45-0.06,0.89-0.1,1.32-0.14c1.38-0.11,2.67-0.09,3.89,0.05
		c3.49,0.41,6.44,1.91,9.45,4.74c0.83,0.78,1.62,1.61,2.36,2.48c2.11,2.44,3.88,5.2,5.38,8.1C139.03,36.7,137.38,42.52,133.01,45.23
		z"/>
	<path d="M138.4,31.29c-1.29-2.48-2.7-4.74-4.25-6.76c-1.22-1.6-2.51-3.04-3.88-4.33c-3.31-3.12-6.67-4.8-10.55-5.25
		c-1.33-0.16-2.73-0.18-4.26-0.06c-0.45,0.04-0.93,0.09-1.41,0.15c-5.34,0.68-9.61,4.46-11.2,6.05c-5.58,5.59-7.41,8.84-3.49,13.37
		c2.11,2.44,3.83,4,5.9,4.25c0.31,0.03,0.62,0.04,0.94,0.01c1.35-0.1,2.55-0.76,3.65-1.46c1.24-0.78,2.32-1.22,3.19-1.29
		c0.2-0.01,0.39-0.01,0.57,0.01c1.43,0.17,2.6,1.68,3.78,3.72c0.45,0.78,0.9,1.63,1.37,2.52l0.34,0.65
		c1.63,3.09,4.63,5.17,8.02,5.57c0.67,0.08,1.36,0.09,2.04,0.04c1.72-0.13,3.36-0.68,4.87-1.62
		C139.22,43.65,141.18,36.67,138.4,31.29z M127.35,46.53c-2.69-0.32-5.15-1.92-6.55-4.57c-0.9-1.69-1.74-3.33-2.65-4.67
		c-1.19-1.75-2.53-3.01-4.32-3.22c-0.3-0.04-0.61-0.04-0.94-0.02c-1.16,0.1-2.49,0.59-4.07,1.59c-1.08,0.68-1.94,1.1-2.78,1.17
		c-0.18,0.01-0.37,0.01-0.56-0.02c-1.3-0.15-2.62-1.23-4.67-3.59c-2.68-3.11-2.25-5.09,3.4-10.75c2.6-2.6,6.3-5.02,10.08-5.5
		c0.45-0.06,0.89-0.1,1.32-0.14c1.38-0.11,2.67-0.09,3.89,0.05c3.49,0.41,6.44,1.91,9.45,4.74c0.83,0.78,1.62,1.61,2.36,2.48
		c2.11,2.44,3.88,5.2,5.38,8.1c2.34,4.52,0.69,10.34-3.68,13.05c-1.27,0.79-2.64,1.22-4,1.33
		C128.45,46.61,127.89,46.59,127.35,46.53z"/>
	<path style="fill:#673101;" d="M133.01,45.23c-1.27,0.79-2.64,1.22-4,1.33c-0.56,0.05-1.12,0.03-1.66-0.03
		c-2.69-0.32-5.15-1.92-6.55-4.57c-0.9-1.69-1.74-3.33-2.65-4.67c0.64-1.02,1.71-1.73,2.93-1.77c0.73-0.03,1.38,0.24,1.95,0.61
		c-0.64-0.67-1.04-1.59-1.02-2.64c0.02-2.11,1.66-3.87,3.64-3.96c0.93-0.03,1.75,0.34,2.38,0.93c-0.52-0.65-0.87-1.47-0.86-2.4
		c0.01-1.17,0.54-2.23,1.33-2.96c0.1-0.12,0.55-0.62,1.56-0.87c0.02-0.01,0.04-0.02,0.06-0.02c0.33-0.08,0.73-0.12,1.19-0.13
		c2.11,2.44,3.88,5.2,5.38,8.1C139.03,36.7,137.38,42.52,133.01,45.23z"/>
</g>
<path d="M138.47,75.82c0.02-0.18,0.03-0.37,0.05-0.55c0.01-0.21,0.03-0.42,0.04-0.63c-0.02,0.21-0.04,0.42-0.05,0.63
	C138.5,75.45,138.49,75.64,138.47,75.82z M138.19,78.47c-0.13,0.94-0.29,1.87-0.47,2.78C137.91,80.33,138.06,79.42,138.19,78.47z"/>
<g>
	<path style="fill:#0185C4;" d="M154.35,78.99c0,0.05-0.01,0.1-0.02,0.16c-0.09,0.9-0.24,1.8-0.42,2.69
		c-0.08,0.43-0.18,0.87-0.29,1.3c-0.43,1.76-1,3.49-1.67,5.19c-0.16,0.43-0.33,0.85-0.51,1.26c-0.34,0.81-0.7,1.61-1.07,2.4
		c-0.01,0.02-0.02,0.04-0.03,0.05c-0.36,0.78-0.75,1.55-1.14,2.3c-0.8,1.55-1.63,3.03-2.42,4.39c-0.51,0.88-1.05,1.74-1.6,2.59
		c-0.55,0.84-1.72,2.51-1.72,2.51l-0.61,0.83l-0.38,0.5h-0.02l-0.56-0.24c-2.82-1.18-7.02-3.35-10.97-6.97l-0.54-0.48
		c0.14-0.19,0.29-0.38,0.43-0.58c0.43-0.61,0.86-1.22,1.27-1.85c0.28-0.42,0.54-0.84,0.8-1.28c0.73-1.26,1.36-2.46,1.93-3.66
		c1.14-2.43,1.99-4.86,2.6-7.44c0.11-0.47,0.21-0.94,0.31-1.41c0.18-0.91,0.34-1.84,0.47-2.78c0-0.03,0.01-0.06,0.01-0.08
		c0.07-0.49,0.13-0.98,0.18-1.48l0.02-0.25c0-0.02,0.01-0.04,0.01-0.06c0.02-0.25,0.04-0.51,0.06-0.78
		c0.02-0.18,0.03-0.37,0.04-0.55c0.01-0.21,0.03-0.42,0.05-0.63c0-0.02,0.01-0.05,0.01-0.08c0.01-0.23,0.03-0.47,0.06-0.7v-0.01
		c0.03-0.3,0.07-0.6,0.12-0.9c0.01-0.01,0.01-0.03,0.01-0.05c0.02-0.13,0.05-0.26,0.08-0.39c0.09-0.45,0.22-0.89,0.4-1.32
		c0.04-0.1,0.08-0.2,0.13-0.29c0.07-0.17,0.16-0.34,0.26-0.5l0.14-0.23c0.26-0.39,0.52-0.71,0.82-0.98
		c1.77-1.61,4.58-1.93,7.33-0.82c0.66,0.27,1.36,0.64,2.02,1.08C153.04,71.52,154.73,75.17,154.35,78.99z"/>
	<path style="fill:#FFFFFF;" d="M142.45,105.17c-2.89,3.71-6.09,6.16-9.77,8.95c-3.4,2.58-8.88,5.54-13.31,7.21
		c-2.44,0.91-5.23,1.7-7.41,0.6c-0.46-0.23-0.86-0.5-1.2-0.8c-0.22-0.21-0.41-0.42-0.57-0.65c-0.25-0.34-0.42-0.72-0.53-1.12
		c-0.08-0.32-0.13-0.66-0.13-1.02c0-0.14,0.01-0.3,0.03-0.45c0.01-0.13,0.03-0.26,0.06-0.4c0.01-0.08,0.03-0.17,0.05-0.25
		c0.02-0.09,0.05-0.18,0.07-0.27c0.04-0.16,0.1-0.32,0.16-0.48c0.08-0.24,0.19-0.49,0.32-0.75c0.06-0.14,0.13-0.28,0.21-0.42
		c0.16-0.31,0.35-0.63,0.56-0.95c1.53-2.35,3.93-4.57,5.22-5.69c1.89-1.63,3.94-3.01,5.92-4.35c1.35-0.92,2.67-1.81,3.91-2.75
		c0.27-0.21,0.54-0.42,0.81-0.63c0.38-0.31,0.75-0.62,1.1-0.94c0.22-0.19,0.43-0.39,0.64-0.59c0.3-0.28,0.58-0.57,0.86-0.87
		c0.33-0.34,0.63-0.7,0.93-1.07l0.54,0.48c3.95,3.62,8.15,5.79,10.97,6.97L142.45,105.17z"/>
	<path d="M151.01,67.84c-0.77-0.51-1.59-0.94-2.37-1.26c-3.44-1.38-7.02-0.93-9.35,1.19c-0.42,0.38-0.79,0.82-1.15,1.37L138,69.37
		l-0.02,0.04c-0.88,1.47-1.14,3.04-1.26,4.24c-0.06,0.51-0.09,1-0.13,1.49c-0.03,0.43-0.05,0.85-0.1,1.26v0.06l-0.03,0.26
		l-0.01,0.09c-0.2,1.88-0.5,3.65-0.91,5.41c-0.58,2.44-1.39,4.75-2.48,7.06c-0.54,1.16-1.15,2.31-1.85,3.51
		c-0.22,0.39-0.46,0.77-0.72,1.16l-0.02,0.04c-0.36,0.55-0.76,1.12-1.22,1.76c-2.04,2.81-5.03,4.83-8.2,6.97
		c-2.03,1.37-4.12,2.79-6.1,4.49c-1.37,1.19-3.92,3.55-5.58,6.1c-1,1.54-1.58,3.01-1.73,4.37c-0.08,0.75-0.02,1.48,0.16,2.17
		c0.3,1.12,1.12,2.69,3.29,3.79c2.85,1.43,6.12,0.54,8.95-0.52c4.59-1.72,10.27-4.8,13.8-7.48c3.27-2.47,6.37-4.83,9.21-8.16
		l0.96-1.16l0.38-0.51l0.62-0.83l1.37-1.99c0.15-0.21,0.28-0.42,0.41-0.62c0.58-0.88,1.13-1.78,1.65-2.68
		c3.22-5.54,7.02-12.86,7.81-20.34l0.02-0.17C156.72,74.65,154.7,70.31,151.01,67.84z M154.35,78.99c0,0.05-0.01,0.1-0.02,0.16
		c-0.09,0.9-0.24,1.8-0.42,2.69c-0.08,0.43-0.18,0.87-0.29,1.3c-0.43,1.76-1,3.49-1.67,5.19c-0.16,0.43-0.33,0.85-0.51,1.26
		c-0.34,0.81-0.7,1.61-1.07,2.4c-0.01,0.02-0.02,0.04-0.03,0.05c-0.36,0.78-0.75,1.55-1.14,2.3c-0.8,1.55-1.63,3.03-2.42,4.39
		c-0.51,0.88-1.05,1.74-1.6,2.59c-0.55,0.84-1.72,2.51-1.72,2.51l-0.61,0.83l-0.38,0.5h-0.02c-2.89,3.71-6.09,6.16-9.77,8.95
		c-3.4,2.58-8.88,5.54-13.31,7.21c-2.44,0.91-5.23,1.7-7.41,0.6c-0.46-0.23-0.86-0.5-1.2-0.8c-0.22-0.2-0.41-0.42-0.57-0.65
		c-0.25-0.34-0.42-0.72-0.53-1.12c-0.08-0.32-0.13-0.66-0.13-1.02c0-0.15,0.01-0.3,0.03-0.45c0.01-0.13,0.03-0.26,0.06-0.4
		c0.01-0.08,0.03-0.17,0.05-0.25c0.02-0.09,0.05-0.18,0.07-0.27c0.05-0.16,0.1-0.31,0.16-0.48c0.08-0.24,0.19-0.49,0.32-0.75
		c0.06-0.14,0.13-0.28,0.21-0.42c0.16-0.31,0.35-0.63,0.56-0.95c1.53-2.35,3.93-4.57,5.22-5.69c1.89-1.63,3.94-3.01,5.92-4.35
		c1.35-0.92,2.67-1.81,3.91-2.75c0.27-0.21,0.54-0.42,0.81-0.63c0.38-0.31,0.75-0.62,1.1-0.94c0.22-0.19,0.44-0.39,0.64-0.59
		c0.3-0.28,0.59-0.57,0.86-0.87c0.33-0.34,0.63-0.7,0.93-1.07c0.14-0.19,0.29-0.38,0.43-0.58c0.43-0.61,0.86-1.22,1.27-1.85
		c0.28-0.42,0.54-0.84,0.8-1.28c0.73-1.26,1.36-2.46,1.93-3.66c1.14-2.43,1.99-4.86,2.6-7.44c0.11-0.47,0.21-0.94,0.31-1.41
		c0.18-0.91,0.34-1.84,0.47-2.78c0-0.03,0.01-0.06,0.01-0.08c0.06-0.45,0.11-0.91,0.16-1.37c0.01-0.04,0.01-0.07,0.02-0.11
		l0.02-0.25c0-0.02,0.01-0.04,0.01-0.06c0.02-0.25,0.04-0.51,0.06-0.78c0.02-0.18,0.03-0.37,0.04-0.55
		c0.01-0.21,0.03-0.42,0.05-0.63c0-0.02,0.01-0.05,0.01-0.08c0.01-0.23,0.03-0.47,0.06-0.7v-0.01c0.03-0.3,0.07-0.6,0.12-0.9
		c0.01-0.01,0.01-0.03,0.01-0.05c0.02-0.13,0.05-0.26,0.08-0.39c0.09-0.45,0.22-0.89,0.4-1.32c0.04-0.1,0.08-0.2,0.13-0.29
		c0.07-0.17,0.16-0.34,0.26-0.5l0.14-0.23c0.26-0.39,0.52-0.71,0.82-0.98c1.77-1.61,4.58-1.93,7.33-0.82
		c0.66,0.27,1.36,0.64,2.02,1.08C153.04,71.52,154.73,75.17,154.35,78.99z"/>
</g>
<g>
	<path style="fill-rule:evenodd;clip-rule:evenodd;" d="M46.78,83.69c-0.15,0.9,0.74,1.8,2.01,2.03c1.27,0.22,2.42-0.32,2.57-1.22
		c0.15-0.89-0.74-1.8-2.02-2.03C48.08,82.25,46.94,82.8,46.78,83.69"/>
	<g>
		<path style="fill:#CC4848;" d="M56.32,95.55c-0.68,1.45-1.89,2.75-4.05,2.55c-2.61-0.25-5.65-1.39-6.56-3.39
			c-0.32-0.7-0.5-1.55-0.56-2.45c0.39,0.11,0.79,0.17,1.19,0.16c0.74-0.01,1.48-0.21,2.24-0.61c0.41,0.54,1.06,1.23,2.02,1.88
			c0,0.01,0.01,0.01,0.01,0.01c0.96,0.65,2.25,1.27,3.92,1.66C55.17,95.51,55.76,95.56,56.32,95.55z"/>
		<path style="fill-rule:evenodd;clip-rule:evenodd;fill:#FFFFFF;" d="M52.85,94.85c-0.12,0.03-0.26,0.03-0.4-0.01l-6.2-1.79
			c-0.33-0.1-0.55-0.38-0.54-0.67c0.21,0.03,0.42,0.05,0.63,0.04c0.74-0.01,1.48-0.21,2.24-0.61c0.41,0.54,1.06,1.23,2.02,1.88
			c0,0.01,0.01,0.01,0.01,0.01C51.22,94.11,51.96,94.51,52.85,94.85z"/>
		<path d="M61.4,91.69c-0.42-0.31-1.02-0.22-1.34,0.2c-0.07,0.1-1.82,2.36-5.09,1.6c-3.99-0.92-5.18-3.31-5.22-3.41
			c-0.12-0.26-0.35-0.46-0.63-0.53c-0.28-0.07-0.58-0.01-0.82,0.16c-0.95,0.7-1.81,0.93-2.62,0.7c-1.53-0.44-2.66-2.5-2.97-3.26
			c-0.2-0.49-0.75-0.73-1.25-0.54c-0.49,0.2-0.73,0.76-0.54,1.25c0.04,0.11,0.81,1.99,2.3,3.3c-0.06,1.14,0.03,2.79,0.74,4.35
			c1.31,2.88,5.2,4.23,8.13,4.51c0.38,0.03,0.75,0.04,1.11,0.01c2.48-0.2,4.38-1.92,5.33-4.84c1.96-0.69,3.02-2.07,3.08-2.16
			C61.92,92.61,61.83,92.01,61.4,91.69z M52.27,98.1c-2.61-0.25-5.65-1.39-6.56-3.39c-0.32-0.7-0.5-1.55-0.56-2.45
			c0.18,0.05,0.37,0.09,0.56,0.12c0.21,0.03,0.42,0.05,0.63,0.04c0.74-0.01,1.48-0.21,2.24-0.61c0.41,0.54,1.06,1.23,2.02,1.88
			c0,0.01,0.01,0.01,0.01,0.01c0.61,0.41,1.35,0.81,2.24,1.15c0.51,0.19,1.07,0.37,1.68,0.51c0.64,0.15,1.23,0.2,1.79,0.19
			C55.64,97,54.43,98.3,52.27,98.1z"/>
	</g>
	<path d="M67.78,83.62c-0.15,0-0.29-0.03-0.43-0.1c-2.26-1.09-5.1-0.35-5.13-0.34c-0.53,0.14-1.08-0.17-1.23-0.7
		c-0.14-0.53,0.17-1.08,0.7-1.23c0.14-0.04,3.58-0.95,6.52,0.47c0.5,0.24,0.71,0.84,0.47,1.34C68.51,83.41,68.15,83.62,67.78,83.62z
		"/>
	<path d="M45.09,78.29c-0.37,0-0.73-0.21-0.9-0.57c-0.04-0.08-0.9-1.76-3.12-2.34c-0.53-0.14-0.85-0.69-0.71-1.22
		c0.14-0.53,0.68-0.85,1.22-0.71c3.16,0.82,4.36,3.31,4.41,3.41c0.24,0.5,0.02,1.1-0.48,1.33C45.38,78.26,45.24,78.29,45.09,78.29z"
		/>
</g>
</svg>
