<?xml version="1.0" encoding="utf-8"?>
<!-- Generator: Adobe Illustrator 23.0.2, SVG Export Plug-In . SVG Version: 6.00 Build 0)  -->
<svg version="1.1" id="레이어_1" xmlns="http://www.w3.org/2000/svg" xmlns:xlink="http://www.w3.org/1999/xlink" x="0px"
	 y="0px" viewBox="0 0 359 367" style="enable-background:new 0 0 359 367;" xml:space="preserve">
<style type="text/css">
	.st0{fill:#FFFFFF;}
	.st1{fill:#673101;}
	.st2{fill:#00A2E7;}
	.st3{fill:#FFC0BB;}
	.st4{fill:#414141;}
	.st5{fill:#F06564;}
	.st6{fill:#DD4E4E;}
	.st7{fill:#FF6A5F;}
	.st8{fill:#FC4D49;}
	.st9{opacity:0.3;fill:#FFFFFF;enable-background:new    ;}
	.st10{opacity:0.2;fill:#FFFFFF;enable-background:new    ;}
	.st11{fill:#F74431;}
	.st12{fill:#C92114;}
</style>
<title>자산 3</title>
<g>
	<path class="st0" d="M209.4,124.1l-0.2-0.3c-2.7-4.6-1.3-10.5,3.3-13.2c3.6-2.2,6.1-7.1,6.7-8.7c0.4-1.6,0.9-4.1-0.1-5.2
		c-2.1-2.7-10-3.7-14.7-3.4c-5.3,0.4-9.9-3.6-10.3-9c-0.4-5.3,3.6-9.9,8.9-10.3c2.2-0.2,21.5-1.2,31,10.4c3.4,4.2,6.9,11.6,3.6,23
		l-0.2,0.6c-0.5,1.3-4.8,12.9-15,19C218.1,129.8,212.3,128.5,209.4,124.1z"/>
	<path class="st1" d="M209.9,89.6c-0.4-0.6-1-1.1-1.7-1.4c1,0.2,2.1,0,2.9-0.5c1.8-1.2,2.3-3.6,1.2-5.3c-0.5-0.8-1.3-1.4-2.3-1.7
		c0.9,0.1,1.8-0.1,2.6-0.6c1.8-1.2,2.3-3.6,1.2-5.4l0,0c-0.1-0.1-0.2-0.2-0.3-0.3c-3.4-0.5-6.9-0.6-10.3-0.4
		c-5.3,0.4-9.3,5-8.9,10.3c0.4,5.3,5,9.3,10.3,8.9c1.9-0.1,3.7,0,5.6,0.2C210.6,92.2,210.6,90.8,209.9,89.6z"/>
</g>
<g>
	<path class="st0" d="M257.6,152.9l0.3,0.1c5.2,0.8,10.2-2.7,11-7.9c0,0,0,0,0-0.1c0.7-4.1,4.3-8.3,5.5-9.4c1.3-1,3.4-2.3,4.8-1.9
		c3.3,1,7.1,7.9,8.6,12.2c2,4.9,7.5,7.3,12.5,5.4c4.5-1.8,6.9-6.6,5.8-11.3c-0.7-2.1-6.9-20.2-21.2-24.6c-5.2-1.6-13.3-2-22.6,5.2
		l-0.5,0.4c-1,0.9-10.1,9.2-11.9,21C249.1,147.1,252.5,151.9,257.6,152.9z"/>
	<path class="st1" d="M289.2,139.6c0.7,0.2,1.4,0.5,1.9,1.1c-1.2-1.7-0.8-4.1,0.9-5.3s4.1-0.8,5.3,0.9c-1.1-1.8-0.4-4.1,1.4-5.2
		c0.8-0.5,1.7-0.6,2.6-0.4c0.2,0,0.3,0.1,0.5,0.2c1.7,2.9,3.1,6,4.1,9.2c1.5,5.1-1.4,10.4-6.5,11.9c-4.9,1.4-10.1-1.2-11.8-6
		c-0.6-1.7-1.3-3.4-2.2-5C286.5,139.9,287.9,139.3,289.2,139.6z"/>
</g>
<path class="st2" d="M135.9,166l65.4-68c26.5,2.7,38.9,12.2,38.9,12.2c49.5,28.8,26.5,68.1,26.5,68.1L241.2,222l-19.7,33.7
	l-102.9-60.1L135.9,166z"/>
<path class="st0" d="M231,106.7c0,0-10.7-5.9-13.6-6.9c-33.9-13.6-52,9.2-55.2,13.8c-11.5,0-22.1,6-27.9,15.9l-1.2,2.2
	c-9,15.4-3.8,35.1,11.6,44l0,0l34.2,20c27.1,15.8,60.7,8.7,75.1-15.9C268.2,155.2,258,122.5,231,106.7z"/>
<g>
	<path d="M169.6,139.6c-0.6,1.2-0.1,2.6,1.1,3.2c1.2,0.6,2.6,0.1,3.2-1.1c0.6-1.1,0.1-2.5-0.9-3.1
		C171.8,137.9,170.3,138.4,169.6,139.6z"/>
	<path d="M165,129.6l0.2-0.3c1-1.8,3.3-2.4,5.1-1.3l0,0c1.8,1,2.4,3.3,1.3,5.1l-0.2,0.3c-1,1.8-3.3,2.4-5.1,1.3l0,0
		C164.6,133.6,164,131.3,165,129.6z"/>
	<path d="M187.7,142.8l0.2-0.3c1-1.8,3.3-2.4,5.1-1.3l0,0c1.8,1,2.4,3.3,1.3,5.1l-0.2,0.3c-1,1.8-3.3,2.4-5.1,1.3l0,0
		C187.3,146.9,186.7,144.6,187.7,142.8z"/>
	<path d="M173.8,159.4c-4.2-2.5-6.3-6.9-7.3-9.5c-2.6,1-5.5,0.9-8-0.2c-4.3-2-5.8-6.8-5.8-7c-0.3-0.9,0.3-1.9,1.2-2.2
		s1.9,0.3,2.2,1.2c0,0.1,1.1,3.5,3.9,4.8c1.9,0.8,4.2,0.6,6.9-0.6c0.9-0.4,2,0,2.4,0.9c0,0.1,0.1,0.2,0.1,0.3s1.6,6.7,6.4,9.3
		c2.6,1.4,5.9,1.5,9.6,0.1c0.9-0.3,1.9,0.2,2.2,1.2c0.3,0.9-0.2,1.8-1,2.2c-4.7,1.7-8.9,1.6-12.5-0.4L173.8,159.4z"/>
</g>
<g>
	<path class="st3" d="M221.4,176.2c-4.7,7.8-14.8,10.4-22.6,5.8c-7.8-4.7-10.4-14.8-5.8-22.6c4.6-7.8,14.7-10.4,22.5-5.8
		C223.4,158.1,226,168.3,221.4,176.2z"/>
	<path class="st3" d="M152.3,135.8c3.8-6.4,2.8-14.5-2.3-19.9c-6.6,2.7-12.1,7.4-15.7,13.6l-1.3,2.2c-1.8,3.1-3.1,6.4-3.8,9.9
		c0.1,0.1,0.2,0.2,0.4,0.2C137.5,146.5,147.7,143.8,152.3,135.8L152.3,135.8z"/>
</g>
<g>
	<path class="st4" d="M158.1,308.9l38.6-66l6.3,3.7l-38.6,66.1c-0.9-0.9-1.9-1.7-3-2.3C160.3,309.7,159.2,309.2,158.1,308.9z"/>
	<g>
		<path class="st5" d="M158.1,308.9c1.1,0.3,2.2,0.8,3.3,1.4c6.9,4,9.3,12.9,5.3,19.8s-12.9,9.3-19.8,5.3c-6.9-4-9.3-12.9-5.3-19.8
			C144.8,309.8,151.6,307,158.1,308.9z"/>
		<path class="st6" d="M149.2,324c0.3,1.3,1.2,2.4,2.3,3.1c2.4,1.4,5.4,0.6,6.8-1.8s0.6-5.4-1.8-6.8c-2.4-1.4-5.4-0.6-6.8,1.8
			C149,321.3,148.9,322.7,149.2,324z"/>
	</g>
</g>
<g>
	<path class="st4" d="M105.3,278.1l38.6-66l6.3,3.7l-38.6,66c-0.9-0.9-1.9-1.7-3-2.3C107.6,278.9,106.5,278.4,105.3,278.1z"/>
	<g>
		<path class="st5" d="M105.3,278.1c1.1,0.3,2.2,0.8,3.3,1.4c6.9,4,9.3,12.9,5.3,19.8s-12.9,9.3-19.8,5.3s-9.3-12.9-5.3-19.8
			C92.2,279,99,276.2,105.3,278.1z"/>
		<path class="st6" d="M96.5,293.2c0.7,2.7,3.4,4.3,6.1,3.6c2.7-0.7,4.3-3.4,3.6-6.1s-3.4-4.3-6.1-3.6c-1.3,0.3-2.4,1.2-3,2.3
			C96.3,290.5,96.1,291.9,96.5,293.2z"/>
	</g>
</g>
<g>
	<polygon class="st7" points="31,170.5 295,324.7 256.2,275.9 90.3,179 	"/>
	<polygon class="st8" points="162.4,247.2 30.4,170.1 89.7,178.6 173.8,227.7 	"/>
</g>
<g>
	<path class="st9" d="M280.9,43.2c45.8,26.8,61.4,85.4,34.7,131.1l-59.4,101.6L90.3,179l59.4-101.6
		C176.3,31.8,235.1,16.5,280.9,43.2z"/>
	<g>
		<path class="st0" d="M274.9,216.7c1.1,0.7,2.6,0.3,3.2-0.8l0,0l28.4-48.6c0.7-1.1,0.3-2.6-0.8-3.2s-2.6-0.3-3.2,0.8L274,213.4
			C273.4,214.6,273.8,216,274.9,216.7L274.9,216.7z"/>
		<path class="st0" d="M311.1,154.6l0.2,0.1c1.2,0.6,2.6,0.1,3.1-1.1c0.3-0.5,6.3-13.4,5-22.5c-0.2-1.3-1.4-2.2-2.7-2
			s-2.2,1.4-2,2.7l0,0c1.1,7.7-4.6,19.7-4.6,19.8C309.7,152.7,310.1,154,311.1,154.6z"/>
		<path class="st10" d="M205,47.9c-0.9,6.7,6.7,13.3,17,14.8c10.3,1.5,19.5-2.8,20.4-9.5s-6.7-13.3-17-14.8S206,41.2,205,47.9z"/>
	</g>
</g>
<g>
	
		<rect x="167.1" y="120.6" transform="matrix(0.5044 -0.8635 0.8635 0.5044 -98.0367 262.4369)" class="st11" width="25" height="192.1"/>
	
		<rect x="245.7" y="257.5" transform="matrix(0.5044 -0.8635 0.8635 0.5044 -98.7092 353.0449)" class="st12" width="25" height="10.1"/>
	
		<rect x="228.2" y="247.3" transform="matrix(0.5044 -0.8635 0.8635 0.5044 -98.5832 332.8987)" class="st12" width="25" height="10.1"/>
	
		<rect x="210.7" y="237.1" transform="matrix(0.5044 -0.8635 0.8635 0.5044 -98.4607 312.756)" class="st12" width="25" height="10.1"/>
	
		<rect x="193.2" y="226.9" transform="matrix(0.5044 -0.8635 0.8635 0.5044 -98.3305 292.6244)" class="st12" width="25" height="10.1"/>
	
		<rect x="175.8" y="216.7" transform="matrix(0.5044 -0.8635 0.8635 0.5044 -98.1086 272.4824)" class="st12" width="25" height="10.1"/>
	
		<rect x="156.9" y="206.2" transform="matrix(0.5026 -0.8645 0.8645 0.5026 -98.3712 251.4626)" class="st12" width="24.8" height="10.1"/>
	
		<rect x="140.9" y="196.3" transform="matrix(0.5044 -0.8635 0.8635 0.5044 -97.8302 232.2403)" class="st12" width="25" height="10.1"/>
	
		<rect x="123.4" y="186.1" transform="matrix(0.5044 -0.8635 0.8635 0.5044 -97.703 212.1062)" class="st12" width="25" height="10.1"/>
	
		<rect x="106" y="175.9" transform="matrix(0.5044 -0.8635 0.8635 0.5044 -97.4823 191.9692)" class="st12" width="25" height="10.1"/>
	
		<rect x="88.5" y="165.7" transform="matrix(0.5044 -0.8635 0.8635 0.5044 -97.3642 171.829)" class="st12" width="25" height="10.1"/>
</g>
</svg>
