<?xml version="1.0" encoding="utf-8"?>
<!-- Generator: Adobe Illustrator 24.3.0, SVG Export Plug-In . SVG Version: 6.00 Build 0)  -->
<!DOCTYPE svg PUBLIC "-//W3C//DTD SVG 1.1//EN" "http://www.w3.org/Graphics/SVG/1.1/DTD/svg11.dtd" [
	<!ENTITY ns_extend "http://ns.adobe.com/Extensibility/1.0/">
	<!ENTITY ns_ai "http://ns.adobe.com/AdobeIllustrator/10.0/">
	<!ENTITY ns_graphs "http://ns.adobe.com/Graphs/1.0/">
	<!ENTITY ns_vars "http://ns.adobe.com/Variables/1.0/">
	<!ENTITY ns_imrep "http://ns.adobe.com/ImageReplacement/1.0/">
	<!ENTITY ns_sfw "http://ns.adobe.com/SaveForWeb/1.0/">
	<!ENTITY ns_custom "http://ns.adobe.com/GenericCustomNamespace/1.0/">
	<!ENTITY ns_adobe_xpath "http://ns.adobe.com/XPath/1.0/">
]>
<svg version="1.1" id="레이어_6" xmlns:x="&ns_extend;" xmlns:i="&ns_ai;" xmlns:graph="&ns_graphs;"
	 xmlns="http://www.w3.org/2000/svg" xmlns:xlink="http://www.w3.org/1999/xlink" x="0px" y="0px" viewBox="0 0 220 280"
	 style="enable-background:new 0 0 220 280;" xml:space="preserve">
<style type="text/css">
	.st0{fill:#CB8A55;}
	.st1{fill:#A5663A;}
	.st2{fill:#FDF8F5;}
	.st3{fill:#463F3D;}
	.st4{fill:#FEF7F0;}
	.st5{fill:#F62524;}
	.st6{fill:#945B4A;}
	.st7{fill:#F1AA36;}
	.st8{fill:#53413D;}
	.st9{fill-rule:evenodd;clip-rule:evenodd;fill:#CB8A55;}
	.st10{fill:#070707;}
	.st11{fill-rule:evenodd;clip-rule:evenodd;}
	.st12{fill:#9E5C30;}
	.st13{fill-rule:evenodd;clip-rule:evenodd;fill:#FCBF65;}
</style>
<metadata>
	<sfw  xmlns="&ns_sfw;">
		<slices></slices>
		<sliceSourceBounds  bottomLeftOrigin="true" height="509.2" width="16383" x="-8051" y="-256.9"></sliceSourceBounds>
	</sfw>
</metadata>
<g>
	<g>
		<path class="st0" d="M114.6,212.4l-1.3-42.7c0,0,1.1-3.5,5.3-3.2c0,0,4.5,0.5,5.3,8.4c0.1,0.7,4.2,21.4,6.6,36.5
			c1.4,8.9,3.4,15.8,3.4,15.8s6.7,1.8,6.3,10.2c0,0,0.4,4.9-4.2,6h-19.1c-1,0-1.7-0.8-1.8-1.7L114.6,212.4z"/>
		<path d="M136.1,244.9h-19.2c-1.8,0-3.2-1.4-3.3-3.2l-0.5-29.3l-1.3-42.9l0.1-0.2c0.5-1.6,2.5-4.6,6.8-4.2c0.3,0,5.7,0.7,6.6,9.8
			c0,0.2,0.3,1.8,0.7,3.7c1.3,6.9,4.1,21.3,5.9,32.7c1.1,7,2.6,12.9,3.2,14.9c2.8,1.1,6.8,4.5,6.6,11.3c0.1,2.2-0.8,6.4-5.4,7.4
			L136.1,244.9z M114.8,169.9l1.3,42.4l0.5,29.3c0,0.1,0.1,0.2,0.3,0.2h18.9c3-0.8,2.9-4,2.9-4.4l0-0.1l0-0.1
			c0.3-7.1-5.1-8.7-5.2-8.7l-0.8-0.2l-0.2-0.8c-0.1-0.3-2.1-7.2-3.5-16c-1.8-11.3-4.5-25.7-5.9-32.6c-0.6-3.1-0.7-3.8-0.7-4
			c-0.7-6.5-3.8-7.1-4-7.1C116,167.8,115.1,169.3,114.8,169.9z"/>
	</g>
	<path d="M120,231.5c-0.2,0-0.5-0.1-0.7-0.3c-0.4-0.4-0.4-1,0-1.4c7-7.4,17.5-1.8,17.6-1.7c0.5,0.3,0.7,0.9,0.4,1.4
		c-0.3,0.5-0.9,0.7-1.4,0.4c-0.4-0.2-9.2-4.9-15.2,1.3C120.5,231.4,120.3,231.5,120,231.5z"/>
</g>
<g>
	<path class="st0" d="M109,224.4l1.3-42.3c0-0.3,0-0.5-0.2-0.8c-0.4-0.9-1.8-3-5-2.8c-0.1,0-0.2,0-0.3,0c-0.9,0.2-4.4,1.4-5.1,8.4
		c-0.1,0.7-4.2,21.4-6.6,36.5c-1.1,7-2.6,12.9-3.2,15c-0.1,0.5-0.5,0.9-1,1.1c-1.7,0.7-5.9,3.2-5.6,9.9c0,0-0.3,4.7,4,5.9
		c0.2,0,0.3,0.1,0.5,0.1h18.9c0.9,0,1.7-0.8,1.7-1.7L109,224.4z"/>
	<path class="st1" d="M109.1,255c0,0-3.3-7.4-15.4-7.2c0,0-13.8-0.1-7,7.4L109.1,255z"/>
	<path d="M107,256.9l-19.6,0c-4.5-1-5.5-5.3-5.4-7.4c-0.3-6.8,3.8-10.2,6.6-11.3c0.6-2,2.1-7.9,3.2-14.9c1.8-11.4,4.5-25.8,5.9-32.7
		c0.4-2,0.7-3.6,0.7-3.8c0.9-9,6.4-9.7,6.6-9.7c4.3-0.3,6.4,2.6,6.9,4.2l0.1,0.2l-1.3,42.9l-0.5,29.5
		C110,255.5,108.6,256.9,107,256.9z M87.9,253.9H107l0.6-29.6l1.3-42.4c-0.2-0.6-1.2-2.1-3.6-1.9c-0.1,0-3.2,0.6-3.9,7.1
		c0,0.2-0.1,0.9-0.8,4c-1.3,6.9-4.1,21.2-5.8,32.6c-1.4,8.8-3.4,15.7-3.5,16l-0.2,0.8l-0.8,0.2c-0.2,0.1-5.5,1.6-5.2,8.7l0,0.1
		l0,0.1C85,249.9,84.9,253.1,87.9,253.9z"/>
</g>
<g>
	<g>
		<path class="st0" d="M119.2,139c2.5,4.5,5.8,8.6,8.5,13c5.1,8.2,8.8,13.7,12.8,22.5c1,2.1,2.2,5.5,3.9,7c1.7,1.5,1.4,2.3,5.1,2
			c1.6-0.1,4.2-2,4.3-3.8c0.2-3.8-0.9-7.6-2.7-10.9c-5.4-10.4-11.3-16.6-16.4-24.7c-2.4-3.8-5.2-7.2-8.2-10.4
			c-2.4-2.5-5.4-6.3-9-4.2C113.6,131.6,117.4,135.9,119.2,139z"/>
		<path d="M149.3,185c-1.5,0.1-3.1,0-4.8-1.3c-2.5-1.9-3.7-4.7-4.9-7.4c-0.2-0.4-0.3-0.8-0.5-1.1c-3.3-7.2-6.3-12-10.2-18.2
			c-0.8-1.3-1.7-2.7-2.6-4.1c-1.1-1.8-2.4-3.6-3.6-5.4c-1.7-2.4-3.4-5-4.9-7.7c-0.3-0.5-0.7-1.1-1-1.7c-1.4-2.2-3-4.8-2.4-7.1
			c0.3-1.2,1.1-2.1,2.3-2.8c4.4-2.5,8,1.4,10.4,4l0.5,0.5c9.4,10.1,18.2,22.6,24.8,35.4c1.7,3.3,2.7,6.8,2.9,10.1
			c0.2,3.5-2.4,6.5-5.7,6.8C149.5,185,149.4,185,149.3,185z M119.4,130.4c-0.4,0-0.8,0.1-1.2,0.4c-0.7,0.4-0.8,0.7-0.9,0.9
			c-0.3,1.1,1,3.2,2,4.8c0.4,0.6,0.8,1.3,1.1,1.8l0,0c1.4,2.6,3.1,5,4.8,7.4c1.2,1.8,2.5,3.6,3.7,5.5c0.9,1.4,1.7,2.8,2.5,4.1
			c3.9,6.3,7,11.2,10.4,18.6c0.2,0.4,0.3,0.8,0.5,1.2c1.1,2.4,2.1,4.8,4,6.2c0.9,0.7,1.7,0.8,3,0.7c1.7-0.1,3-1.7,2.9-3.6
			c-0.2-2.9-1-6-2.5-8.9c-6.5-12.6-15.1-24.9-24.4-34.8l-0.5-0.5C122.8,131.9,121.1,130.3,119.4,130.4z"/>
	</g>
	<path class="st2" d="M128.2,154.7c-0.3,0.2-0.7,0.3-0.9-0.1c-4.4-7.7-5.9-10.6-11-18.1c-3.9-5.7-0.2-8.1-0.2-8.1
		c3.6-3.3,7.4,1.4,7.4,1.4c6.9,7,10.2,10.4,15.6,17.8c0.3,0.5-0.1,1.1-0.6,0.9l-5,3.3C133.5,151.8,130.1,153.5,128.2,154.7z"/>
	<path class="st3" d="M136,143.1c0,0-6.8,5.1-10.8,6.8l-1-3.7c0,0,8.4-4.9,9.2-6.7L136,143.1z"/>
	<path class="st3" d="M130.5,137.2c0,0-5.6,4.4-8.8,6.4l-1.8-2.7c0,0,7.3-4.9,7.8-6.2C128.1,133.5,130.5,137.2,130.5,137.2z"/>
	<path d="M128.4,156.3c-0.2,0-0.4,0-0.6-0.1c-0.5-0.1-0.9-0.5-1.2-0.9c-0.9-1.5-1.6-2.8-2.3-4c-2.8-5-4.6-8-8.7-14
		c-1.7-2.5-2.4-4.8-2-6.8c0.4-2,1.6-3,2-3.3c1.2-1.1,2.6-1.6,4.1-1.5c2.8,0.2,5,2.6,5.4,3c6.9,7,10.2,10.4,15.7,17.9
		c0.6,0.8,0.6,1.8,0,2.5c-0.3,0.5-0.8,0.7-1.4,0.8l-4.8,3.2c0,0-3.3,1.7-5.1,2.8l0,0C129.2,156.2,128.8,156.3,128.4,156.3z
		 M119.3,128.7c-0.6,0-1.1,0.3-1.7,0.8l-0.2,0.2c-0.2,0.2-2.3,1.8,0.6,6c4.2,6.1,5.9,9.2,8.8,14.2c0.5,1,1.1,2,1.8,3.1
		c1.8-1.1,4.2-2.3,4.6-2.5l4.5-3c-5-6.7-8.3-10.1-14.8-16.7l-0.1-0.1c-0.4-0.5-1.9-1.9-3.3-2C119.5,128.7,119.4,128.7,119.3,128.7z"
		/>
</g>
<g>
	<g>
		<path class="st0" d="M102.6,139.8c-0.6,5.2-2.1,10.1-2.9,15.2c-1.6,9.5-3,16-3.3,25.7c-0.1,2.3,0.1,5.9-1,7.9
			c-1.1,2-0.5,2.6-3.9,3.8c-1.6,0.5-4.6-0.3-5.4-1.9c-1.6-3.4-2-7.4-1.7-11.1c1-11.6,4.1-19.6,5.8-29c0.8-4.4,2.1-8.6,3.6-12.8
			c1.2-3.2,2.7-7.9,6.7-7.3C104.9,130.8,103,136.2,102.6,139.8z"/>
		<path d="M90.3,194.1c-2.7,0.2-5.4-1.6-6.3-4.4c-1.1-3.1-1.5-6.7-1.2-10.4c1.3-14.3,4.7-29.3,9.6-42.2l0.2-0.7
			c1.2-3.3,3.1-8.3,8.1-7.6c1.4,0.2,2.5,0.8,3.2,1.7c1.5,2,0.9,4.9,0.5,7.5c-0.1,0.7-0.2,1.3-0.3,1.9l0,0c-0.4,3.1-1,6.1-1.7,9
			c-0.5,2.1-0.9,4.2-1.3,6.3c-0.3,1.7-0.5,3.3-0.8,4.8c-1.2,7.2-2.2,12.8-2.5,20.7c0,0.4,0,0.8,0,1.2c-0.1,2.9-0.2,5.9-1.7,8.7
			c-1.1,2-2.8,2.7-4.2,3.2C91.3,194,90.8,194,90.3,194.1z M99.8,131.7c-2.1,0.1-3.1,2.5-4.3,5.7l-0.3,0.7
			c-4.8,12.6-8.1,27.3-9.4,41.4c-0.3,3.3,0.1,6.4,1,9.2c0.6,1.8,2.4,2.8,4.1,2.3c1.3-0.4,2-0.8,2.6-1.8c1.2-2.1,1.2-4.6,1.3-7.3
			c0-0.4,0-0.8,0-1.3c0.3-8.1,1.3-13.8,2.5-21.1c0.3-1.5,0.5-3.1,0.8-4.8c0.4-2.2,0.8-4.4,1.3-6.5c0.6-2.8,1.3-5.8,1.6-8.7l0,0
			c0.1-0.7,0.2-1.4,0.3-2.1c0.3-1.9,0.8-4.3,0.1-5.2c-0.1-0.2-0.4-0.4-1.1-0.5C100.1,131.7,100,131.7,99.8,131.7z"/>
	</g>
	<path class="st2" d="M100.1,157.7c0.4,0.1,0.8,0,0.8-0.4c1.2-8.8,1.4-12,3.3-20.9c1.5-6.8-2.9-7.6-2.9-7.6
		c-4.6-1.7-6.3,4.1-6.3,4.1c-3.7,9.1-5.5,13.5-7.7,22.4c-0.1,0.6,0.5,1,0.9,0.6l5.9,1.2C94.1,157,97.9,157.3,100.1,157.7z"/>
	<path class="st3" d="M88.5,149.9c0,0,8.2,2.2,12.5,2.2l-0.5-3.8c0,0-9.7-1.4-11.1-2.7L88.5,149.9z"/>
	<path class="st3" d="M91.4,142.4c0,0,6.8,2,10.5,2.6l0.7-3.2c0,0-8.7-1.8-9.6-2.8C92.2,138,91.4,142.4,91.4,142.4z"/>
	<path d="M99.9,159.4c-0.2,0-0.4,0-0.7,0c-2.1-0.4-5.8-0.7-5.8-0.7l-0.2,0l-5.5-1.1c-0.5,0.1-1.1,0.1-1.6-0.2
		c-0.8-0.5-1.2-1.4-0.9-2.3c2.3-9,4-13.4,7.8-22.5c0.2-0.6,1.3-3.6,3.8-4.9c1.3-0.7,2.8-0.7,4.4-0.1c0.5,0.1,2,0.6,3.1,2.3
		c1.2,1.8,1.4,4.1,0.8,7.1c-1.5,7.1-2,10.6-2.7,16.3c-0.2,1.4-0.4,2.8-0.6,4.5c-0.1,0.5-0.4,1-0.8,1.3
		C100.8,159.2,100.5,159.4,99.9,159.4z M93.8,155.7c0.5,0,3.2,0.3,5.2,0.6c0.2-1.3,0.3-2.4,0.5-3.5c0.7-5.8,1.2-9.3,2.8-16.5
		c0.5-2.1,0.3-3.7-0.4-4.8c-0.6-0.9-1.3-1-1.3-1l-0.2-0.1c-0.8-0.3-1.5-0.3-2.1,0c-1.3,0.6-2.1,2.5-2.3,3.1l0,0.1
		c-3.5,8.6-5.3,12.9-7.4,21.1L93.8,155.7z"/>
</g>
<g>
	<g>
		<path class="st0" d="M102.4,134.8c1.5,1.1,3.5,0.9,5.3,1c0.3,0,0.6,0.2,0.6,0.6c0.3,1.5,0.9,2.7,1.6,4c0.3,0.5,1.1,0.5,1.2-0.1
			c0.4-1.3,0.8-2.8,1.1-3.9c0.1-0.2,0.2-0.4,0.5-0.5c1.5-0.4,5.6-1.4,7.9-3.2l0.7-2.2c-0.2-0.7-0.5-1.3-0.9-2
			c-2.2-4-6.8-4.5-10.9-4.4c-6.2,0.2-8.7,2.9-9.8,7.5C100.3,132.7,101.1,133.9,102.4,134.8z"/>
		<path d="M125,162.3c-0.2-1.2-0.3-2.6-0.5-3.9l-27.9,0.8c-0.6,5.4-1.2,10.8-2,16.2l-3.1,22.2c-0.2,1.2,1.2,2,2.2,1.2
			c1.1-1,1.9-2.2,3-3c0.2-0.1,0.4-0.1,0.6,0l2.8,2.5c0.7,0.6,1.8,0.5,2.3-0.3c0.9-1.3,1.8-2.9,2.1-3.9c0.8,0.6,2.2,2,3.3,3.3
			c0.6,0.7,1.7,0.4,1.9-0.5c0.4-1.9,1-4,1.4-5.9c0.1-0.3,0.5-0.3,0.6,0c0.5,2.1,1.4,4.2,2.2,6.3c0.3,0.8,1.4,1,1.9,0.3
			c1.1-1.3,1.9-2.6,3.3-3.9l4.6,3.9c0.8,0.7,1.9,0.3,2.3-0.6l0.9-2.5l1.1,0.7c0.9,0.6,2.1-0.2,1.9-1.3
			C128.4,183.2,126.4,173.2,125,162.3z"/>
	</g>
	<g>
		<path class="st4" d="M97.8,146.6c-0.1,1.5-0.2,2.8-0.3,3.8h26c-0.2-1.3-0.3-2.6-0.4-3.8H97.8z"/>
		<path class="st4" d="M121.2,130.4l-0.7,2.2c-2.3,1.9-6.4,2.8-7.9,3.2c-0.2,0.1-0.4,0.2-0.5,0.5c-0.3,1-0.7,2.6-1.1,3.9
			c-0.2,0.6-1,0.7-1.2,0.1c-0.7-1.3-1.3-2.5-1.6-4c-0.1-0.3-0.3-0.6-0.6-0.6c-1.8,0-3.8,0.1-5.3-1c-1.2-0.9-2.1-2.1-2.8-3.2
			c-0.3,1.3-0.5,2.6-0.7,4.2c-0.2,1.8-0.4,4.9-0.6,7.1h24.4C122.4,139.1,122.5,134,121.2,130.4z"/>
		<path class="st4" d="M96.6,159.2l28.2-0.3c-0.1-1.1-0.6-3.8-0.7-4.9h-27C96.9,155.5,96.8,157.8,96.6,159.2z"/>
		<path class="st3" d="M122.7,144c0-0.4-0.1-0.7-0.1-1.1H98.3c-0.1,1.6-0.3,2.2-0.4,3.7h25.2C122.9,145.4,122.8,145.1,122.7,144z"/>
		<path class="st3" d="M97.5,150.7c-0.1,1.4-0.3,1.9-0.4,3.3h27c-0.2-1.5-0.4-2.1-0.6-3.7h-26C97.5,150.5,97.5,150.6,97.5,150.7z"/>
	</g>
	<path class="st5" d="M97,158.9l-2.4,12.5c0,0,14.8,3,31.3,0.1l-1.9-13C124,158.5,110.2,159.3,97,158.9z"/>
	<path d="M91.9,200.2c-0.2,0-0.4-0.1-0.7-0.2c-0.5-0.2-1.1-0.8-0.9-1.8l3.1-23.1c0.7-5.2,1.4-10.6,2-16.1c0.1-0.9,0.2-1.7,0.3-2.6
		l0.3-2.9c0.1-1,0.2-2,0.3-2.9l0-0.4c0.1-0.9,0.2-2.1,0.3-3.4l0-0.3c0.1-1.5,0.3-3.1,0.4-4.7c0.2-2.6,0.4-4.6,0.6-6.2
		c0.2-1.7,0.5-3.1,0.8-4.4c1.5-5.8,4.9-8.5,11.3-8.7c4-0.1,9.6,0.3,12.3,5.2c0.4,0.7,0.7,1.4,1,2.2c1.1,3,1.2,6.3,1.3,9.4
		c0,0.8,0.1,1.7,0.1,2.5l0,0.1c0,0.3,0,0.6,0.1,1c0.1,1.1,0.2,2.3,0.4,3.5c0.1,1.2,0.3,2.5,0.4,3.8c0.2,1.5,0.4,3.1,0.6,4.7l1,7.3
		c0.8,6,1.7,12.1,2.6,18c0.7,4.8,1.5,9.7,2.2,14.5c0.1,0.6-0.2,1.2-0.7,1.5c-0.5,0.3-1.2,0.3-1.7-0.1l-6.3-5
		c-0.6-0.5-0.8-1.5-0.2-2.1c0.5-0.6,1.5-0.8,2.1-0.2l3.4,2.7c-0.5-3.6-1.1-7.2-1.6-10.7c-0.9-5.9-1.9-12.1-2.7-18.1l-1-7.3
		c-0.2-1.6-0.4-3.1-0.6-4.7c-0.2-1.3-0.3-2.6-0.4-3.8c-0.1-1.2-0.3-2.4-0.4-3.6c0-0.3-0.1-0.7-0.1-1l0-0.1c-0.1-0.8-0.1-1.7-0.1-2.6
		c-0.1-2.9-0.2-5.9-1.2-8.5c-0.2-0.6-0.5-1.2-0.8-1.7c-1.5-2.6-4.4-3.8-9.6-3.6c-5.7,0.2-7.5,2.6-8.4,6.4c-0.3,1.1-0.5,2.4-0.7,4
		c-0.2,1.5-0.4,3.5-0.6,6.1c-0.1,1.6-0.3,3.2-0.4,4.7l0,0.3c-0.1,1.3-0.2,2.5-0.3,3.5l0,0.4c-0.1,1-0.2,2-0.3,3l-0.3,2.9
		c-0.1,0.9-0.2,1.8-0.3,2.6c-0.6,5.6-1.3,11-2,16.2L93.9,194c0.4-0.5,0.7-0.8,0.9-1c0.6-0.5,1.6-0.5,2.1,0.1
		c0.5,0.6,0.5,1.6-0.1,2.1c-0.2,0.2-1,1.2-1.5,1.9C93.6,199.3,92.9,200.2,91.9,200.2z M93.3,198.7L93.3,198.7
		C93.3,198.7,93.3,198.7,93.3,198.7z"/>
	<g>
		<path d="M105,152.2c0.3,2.1,0.6,4.3-0.1,6.3c-1.2,3.3-3.8,5-7,6.3c-0.4,0.2-0.9,0.3-1.2,0.1c-0.3-0.2-0.3-0.7-0.3-1.1
			c0-2.2,0.1-4.4,0.2-6.6c0.3-6.3,0.6-12.5,0.9-18.8c0.2-4.7-0.2-8.4,3.7-11.6c1.2,4.2,1.8,8.6,2.6,12.9
			C104.5,143.6,104.5,147,105,152.2z"/>
		<path d="M97.1,165.4c-0.3,0-0.5-0.1-0.8-0.2c-0.5-0.4-0.5-1.1-0.5-1.5c0-2.2,0.1-4.5,0.2-6.6l0.9-18.8c0-0.6,0-1.2,0.1-1.8
			c0.1-3.9,0.2-7.3,3.8-10.2l0.6-0.5l0.2,0.7c0.9,3.1,1.5,6.4,2,9.6c0.2,1.1,0.4,2.2,0.6,3.3c0.5,2.7,0.7,5.1,0.8,7.9
			c0.1,1.4,0.2,3,0.4,4.7c0.3,1.9,0.7,4.3-0.1,6.5c-1.3,3.7-4.4,5.4-7.3,6.6C97.9,165.3,97.5,165.4,97.1,165.4z M100.9,127.6
			c-2.7,2.5-2.8,5.4-2.9,8.9c0,0.6,0,1.2-0.1,1.8L97,157.1c-0.1,2.2-0.2,4.4-0.2,6.6c0,0.2,0,0.6,0.1,0.7c0.1,0.1,0.4,0,0.7-0.1
			c2.8-1.2,5.5-2.7,6.7-6c0.7-1.9,0.3-4.2,0-6l0,0c-0.2-1.8-0.3-3.3-0.4-4.7c-0.2-2.8-0.3-5.2-0.8-7.8c-0.2-1.1-0.4-2.2-0.6-3.4
			C102.2,133.4,101.7,130.4,100.9,127.6z"/>
	</g>
	<g>
		<path d="M115.5,152.2c-0.3,2.1-0.6,4.3,0.1,6.3c1.2,3.3,3.8,5,7,6.3c0.4,0.2,0.9,0.3,1.2,0.1c0.3-0.2,0.3-0.7,0.3-1.1
			c0-2.2-0.1-4.4-0.2-6.6c-0.3-6.3-0.6-12.5-0.9-18.8c-0.2-4.7,0.2-8.4-3.7-11.6c-1.2,4.2-1.8,8.6-2.6,12.9
			C116,143.6,116,147,115.5,152.2z"/>
		<path d="M123.4,165.4c-0.4,0-0.8-0.2-1-0.2c-2.9-1.2-5.9-2.9-7.3-6.6c-0.8-2.2-0.4-4.6-0.1-6.5c0.2-1.7,0.3-3.3,0.4-4.7
			c0.2-2.8,0.4-5.2,0.8-7.9c0.2-1.1,0.4-2.2,0.6-3.3c0.5-3.2,1.1-6.5,2-9.6l0.2-0.7l0.6,0.5c3.6,2.9,3.7,6.3,3.8,10.2
			c0,0.6,0,1.2,0.1,1.8l0.9,18.8c0.1,2.2,0.2,4.4,0.2,6.7c0,0.3,0,1.1-0.5,1.5C123.9,165.4,123.6,165.4,123.4,165.4z M119.6,127.6
			c-0.8,2.8-1.3,5.8-1.8,8.7c-0.2,1.1-0.4,2.2-0.6,3.4c-0.5,2.6-0.6,5-0.8,7.8c-0.1,1.4-0.2,3-0.4,4.7l0,0c-0.3,1.8-0.7,4.1,0,6
			c1.2,3.3,3.9,4.8,6.7,6c0.4,0.2,0.6,0.2,0.7,0.1c0.1-0.1,0.1-0.5,0.1-0.7c0-2.2-0.1-4.5-0.2-6.6l-0.9-18.8c0-0.6,0-1.2-0.1-1.8
			C122.3,133,122.2,130.1,119.6,127.6z"/>
	</g>
	<g>
		<path class="st6" d="M126.2,161.1l-6.4,10.2l11.7,15.9l6.4,0.2c1.6,0.1,2.8-1.3,2.7-2.8l-1.1-6.2L126.2,161.1z"/>
		<polygon class="st7" points="128,164.4 122.1,173.8 124.5,177.1 130.8,167 		"/>
		<path d="M138,189c0,0-0.1,0-0.1,0l-6.4-0.2c-0.5,0-0.9-0.2-1.2-0.6l-11.7-15.9c-0.4-0.5-0.4-1.2-0.1-1.7l6.4-10.2
			c0.3-0.4,0.7-0.7,1.2-0.7c0.5,0,1,0.2,1.3,0.6l13.4,17.3c0.1,0.2,0.2,0.4,0.3,0.7l1.1,6.2c0,0,0,0.1,0,0.1
			c0.1,1.2-0.3,2.3-1.1,3.2C140.2,188.5,139.1,189,138,189z M132.3,185.8l5.7,0.2c0.5,0,0.7-0.2,0.9-0.4c0.1-0.1,0.3-0.4,0.3-0.8
			l-1-5.7l-11.9-15.3l-4.7,7.5L132.3,185.8z"/>
	</g>
</g>
<g>
	<g>
		<g>
			<path class="st5" d="M43,60.4c0.2,0,0.4-0.1,0.5-0.1c5.2-1,9.3-2.2,13.9-4.9c9.8-5.7,15.3-16.3,24.5-22.7
				c8.6-6.1,19.1-9.4,29.6-9.3c17.3,0.2,33.2,10.1,44.6,22.8c3.3,3.7,6.4,7.8,10.8,10c5,2.5,8.8,2.2,13.9,4.6c1.9,0.9,3.7,2,4.6,3.6
				c0.8-1.6,1.6-3.7,1.6-5.4c0.1-3.1-2.4-4.8-5.2-6.1c-5.2-2.3-9-2.1-14.1-4.6c-4.5-2.3-7.6-6.4-11-10
				c-11.6-12.7-27.8-22.7-45.3-22.8c-10.6-0.1-21.3,3.2-30,9.3c-9.3,6.5-14.9,17-24.8,22.7c-4.6,2.7-8.9,3.9-14.1,4.9
				c-0.2,0-0.4,0.1-0.5,0.1c-3.7,0.8-7.8,2.1-9,5.6c-0.8,2.4,0.1,4.9,1.3,7.2C35.9,62.3,39.6,61.1,43,60.4z"/>
			<path class="st8" d="M145.2,90.2c-0.5-1.4-0.9-2.8-1.3-4.2c-2.4,2.5-5.9,5.1-4,5.9c1,0.4,2.9,0.4,5.1,0
				C145.3,91.3,145.4,90.7,145.2,90.2z"/>
			<path d="M185.3,64.8c0.1-0.1,0.1-0.2,0.2-0.4c-0.9-1.6-2.7-3.7-4.7-4.5c-5.1-2.3-8.9-2.1-13.9-4.6c-4.5-2.3-7.4-5.4-10.7-9.1
				c-11.4-12.7-27.4-22.7-44.6-22.8c-10.5-0.1-21,3.2-29.6,9.3c-9.2,6.5-14.7,17-24.5,22.7c-4.1,2.4-8.8,2.9-13.3,3.9
				c-2,0.4-4.1,0.9-5.9,1.9c-0.8,0.5-1.6,1.1-2.3,1.8c-0.3,0.3-1.8,2-1.6,2.4c0.2,0.4,0.5,0.8,0.8,1.2C42,77.1,57.5,86.3,70,87.4
				c2.4,0.2,5.1,0.1,7-1.5c1.3-1.2,3.3-2.4,4-4c4-9.5,5.5-20,14.9-24s20.3-4.2,29.8-0.6c7.5,2.9,14.4,8.5,17.3,16.1
				c1.1,2.9,1.7,6,2.8,9c0.4,1-0.5,2.3-1.8,3.7c0.4,1.4,0.8,2.8,1.3,4.2c0.2,0.5,0.1,1.1-0.3,1.7c6.1-1,14.9-4.4,17.6-6
				C172,80.5,180,74.5,185.3,64.8z"/>
		</g>
		<path d="M142.1,94c-1.1,0-1.9-0.1-2.6-0.4c-1-0.4-1.3-1.2-1.4-1.6c-0.3-1.6,1.2-3,3.2-5c0.6-0.6,1.2-1.1,1.7-1.7
			c1.5-1.6,1.5-2.1,1.5-2.2c-0.6-1.5-1-3-1.4-4.6c-0.4-1.5-0.8-3-1.4-4.4c-2.6-6.6-8.6-12.2-16.5-15.2c-9.2-3.5-19.6-3.3-28.6,0.5
			c-6.7,2.9-9.2,9.7-11.7,16.9c-0.7,2.1-1.5,4.2-2.4,6.2c-0.7,1.6-2.1,2.7-3.3,3.7c-0.4,0.3-0.7,0.6-1,0.9c-2.4,2.1-5.7,2.1-8.1,1.9
			c-13-1.1-28.8-10.5-35.9-21.5c-0.3-0.4-0.5-0.9-0.8-1.3c-1.8-3.2-2.3-6-1.4-8.4c1.5-4.3,6.2-5.8,10.1-6.6l0.6-0.1
			c5.1-1,9.2-2.2,13.7-4.7c5.1-3,9.1-7.3,13.2-11.8c3.5-3.8,7.1-7.8,11.5-10.9c9-6.3,19.9-9.7,30.9-9.6c16.1,0.2,33,8.7,46.4,23.3
			c0.6,0.6,1.2,1.3,1.7,2c2.7,3.1,5.3,6,8.8,7.8c2.5,1.2,4.7,1.8,7,2.3c2.2,0.5,4.4,1.1,7,2.2l0,0c1.7,0.8,6.2,2.8,6.1,7.5
			c0,2.4-1.3,5.1-1.8,6.1l-0.2,0.4c-5.9,10.8-15.1,17.1-23.3,21.7c-2.7,1.5-11.6,5-18.1,6.1C144.2,93.9,143.1,94,142.1,94z
			 M141.6,91c0.6,0,1.7,0,3.4-0.3c6-1,14.6-4.4,17.1-5.8c7.9-4.5,16.6-10.4,22.2-20.6l0.2-0.3c0.9-1.7,1.5-3.5,1.5-4.8
			c0-1.9-1.2-3.3-4.4-4.7c-2.3-1.1-4.4-1.5-6.5-2.1c-2.4-0.6-4.8-1.2-7.6-2.5c-4-2-6.9-5.3-9.7-8.5c-0.6-0.6-1.1-1.3-1.7-1.9
			c-12.8-14-28.9-22.2-44.2-22.4c-10.2-0.1-20.6,3.1-29.1,9c-4.1,2.9-7.6,6.7-11,10.4c-4.1,4.5-8.4,9.2-13.9,12.4
			c-4.8,2.8-9.2,4-14.6,5.1l-0.5,0.1c-3.4,0.7-6.9,1.8-7.9,4.6c-0.5,1.6-0.2,3.6,1.2,6c0.2,0.4,0.5,0.8,0.7,1.2
			c6.6,10.1,21.7,19.1,33.7,20.1c1.8,0.2,4.3,0.2,5.8-1.2c0.4-0.3,0.8-0.6,1.2-1c1-0.8,2.1-1.6,2.4-2.5c0.8-2,1.6-4.1,2.3-6.1
			c2.7-7.5,5.4-15.3,13.4-18.7c9.7-4.2,21-4.4,30.9-0.6c8.6,3.3,15.3,9.5,18.2,16.9c0.6,1.5,1,3.1,1.5,4.7c0.4,1.5,0.8,2.9,1.4,4.3
			c0.7,1.9-0.7,3.8-2.1,5.3c-0.6,0.6-1.2,1.2-1.8,1.8C142.9,89.7,142.1,90.4,141.6,91z"/>
		<path class="st5" d="M73.4,55c-0.9,0-1.8-0.2-2.7-0.2c-0.7,0-1.6,0.3-1.9,1c-0.2,0.5,0,1.2,0.4,1.6c0.4,0.4,0.9,0.7,1.4,0.9
			c0.4,0.2,0.9,0.4,1.1,0.8c0.1,0.2,0.1,0.4,0.1,0.7c0,0.9-0.2,2,0.3,2.7c0.6,0.7,1.7,0.8,2.5,0.3s1.3-1.3,1.7-2.1
			c0.4-0.8,0.7-1.7,1.3-2.5c0.5-0.6,1.1-1.1,1.8-1.6c1.3-1,2.7-1.9,4.1-2.7c2.4-1.6,5-3.2,7.8-3.8c1.3-0.3,2.6-0.3,3.8-0.8
			c0.5-0.2,1-0.4,1.3-0.8c0.3-0.4,0.4-1,0.1-1.5c-0.5-0.7-1.7-0.4-2.2-1.1c-0.1-0.2-0.2-0.4-0.2-0.6c-0.1-0.8,0.2-1.5,0.3-2.3
			c0.1-0.8-0.2-1.7-0.9-1.9c-0.6-0.2-1.3,0.3-1.7,0.8c-0.7,0.8-1.3,1.7-1.7,2.7c-0.3,0.8-0.5,1.6-0.9,2.4c-0.8,1.5-2.2,2.5-3.6,3.4
			c-1.8,1.2-3.7,2.1-5.7,3C77.9,54.5,75.8,55.2,73.4,55z"/>
		<path class="st5" d="M75.5,41.1c-2,1.7-3.9,3.8-3.9,6.4c0,0.7,0.2,1.5,0.7,2c0.6,0.7,1.7,1,2.7,0.8c1-0.1,1.9-0.5,2.7-1
			c0.8,1,0.1,2.5,0.5,3.7c0.3,1.1,1.5,1.9,2.7,2c1.2,0.1,2.4-0.3,3.5-0.8c1.4-0.6,2.7-1.5,3.8-2.4c0.9-0.7,1.7-1.7,1.9-2.8
			c0.3-2-1.7-3.5-3.4-4.6c1.4-1,2.4-2.6,2.3-4.3C88.7,31.8,78.2,38.8,75.5,41.1z"/>
		<path d="M80.8,42.3c-0.2,1.1,0.5,2.2,1.5,2.6s2.3-0.1,2.8-1.1c0.3-0.6,0.3-1.4,0.2-2.1c0-0.2-0.1-0.4-0.2-0.5
			C83.9,39.4,81.1,40.7,80.8,42.3z"/>
		<path d="M79.8,45.2c0.2,0.7-0.3,1.5-1,1.9c-0.6,0.4-1.5,0.3-2.1,0c-0.4-0.2-0.7-0.5-0.8-0.9c-0.2-0.6,0.2-1.2,0.6-1.7
			c0.5-0.6,1.1-1.1,1.8-0.9C78.2,43.4,79.3,43.5,79.8,45.2z"/>
		<path d="M81.8,52.6C81.8,52.6,81.8,52.6,81.8,52.6c-1.1,0-2-0.5-2.5-1.4c-0.3-0.5-0.1-1.1,0.4-1.4c0.5-0.3,1.1-0.1,1.4,0.4
			c0.1,0.2,0.4,0.3,0.7,0.3c0.3,0,0.8-0.1,1.3-0.4c0.7-0.4,1.2-0.7,1.5-1.2c0.3-0.4,0.4-1,0.2-1.3c-0.3-0.5-0.1-1.1,0.4-1.3
			c0.5-0.3,1.1-0.1,1.3,0.4c0.5,1,0.4,2.3-0.3,3.3C85.8,50.9,85,51.5,84,52C83.5,52.3,82.7,52.6,81.8,52.6z"/>
	</g>
	<g>
		<path class="st9" d="M149.7,92.4c-1.3-0.3-2.7-0.2-3.9,0.3c0-1.7-0.1-3.2-1.2-5c-1.1-1.8,0.9-7.1,0.5-9.2
			c-0.5-2.8-1.3-5.4-2.5-7.9c-2.7-5.5-12-6.6-17-9.1c-3.1-1.5-6.4-2.6-9.8-3.1c-4.3-0.6-9.9-0.4-14.1,0.8c-2.1,0.6-4.2,1.3-6.3,2.3
			c-5,2.5-9.5,6.4-12.2,12c-1.2,2.5-4.4,2.7-4.9,5.5c-0.4,2.1,0.1,5-1,6.8c-1.4,2.3-1.1,4.8-0.9,7.6c-1.6-1-3.4-1.4-5.1-0.9
			c-4,1-6.1,6.1-4.8,11.2c1.3,5.2,5.7,8.5,9.6,7.5c0.5-0.1,0.9-0.3,1.3-0.5c0.1,0.2,0.1,0.4,0.2,0.6c4,10.3,13.8,14.6,22.8,14.9
			c5.8,0.2,11.6,0.3,17.4,0.1c1.3,0,2.5-0.1,3.8-0.1c9-0.3,18.8-4.7,22.8-14.9c0,0,0-0.1,0-0.1c0.1,0,0.2,0.1,0.3,0.1
			c4,1,8.3-2.3,9.6-7.5C155.8,98.4,153.6,93.4,149.7,92.4z"/>
		<path class="st10" d="M111.6,127.8c-4,0-7.7-0.1-11.1-0.2c-11-0.4-19.8-6-23.8-15c0,0-0.1,0-0.1,0c-4.8,1.2-9.9-2.6-11.5-8.6
			c-1.5-6,1.1-11.8,5.9-13.1c1.2-0.3,2.5-0.3,3.8,0c-0.1-2.1,0.1-4.1,1.3-6c0.5-0.8,0.6-2.3,0.6-3.7c0-0.9,0.1-1.8,0.2-2.6
			c0.4-2.1,1.9-3.2,3.1-4c0.8-0.6,1.5-1.1,1.9-1.8c2.6-5.4,7.1-9.8,12.8-12.7c2-1,4.2-1.8,6.5-2.4c4.4-1.2,10.1-1.5,14.7-0.8
			c3.5,0.5,7.1,1.7,10.3,3.2c1.4,0.7,3.2,1.3,5.1,1.9c4.9,1.6,10.4,3.4,12.6,7.9c1.2,2.5,2.1,5.3,2.6,8.3c0.2,1.1-0.1,2.6-0.4,4.3
			c-0.2,1.3-0.7,3.8-0.3,4.3c0.8,1.4,1.2,2.7,1.4,3.9c1-0.1,2-0.1,2.9,0.2l0,0c4.8,1.2,7.4,7.1,5.9,13.1c-1.4,5.5-6,9.3-10.5,8.7
			c-4,8.9-12.8,14.4-23.7,14.8l-3.8,0.1C115.8,127.7,113.7,127.8,111.6,127.8z M77.5,109c0.2,0,0.4,0,0.5,0.1
			c0.4,0.2,0.7,0.5,0.9,0.9l0.1,0.2c0,0.1,0.1,0.2,0.1,0.3c3.3,8.4,11.3,13.6,21.5,14c5.1,0.2,11.1,0.3,17.3,0.1l3.8-0.1
			c10.1-0.4,18.2-5.6,21.5-14l0-0.1c0.3-0.7,1.1-1.1,1.9-0.9l0.2,0.1c3.2,0.8,6.7-2,7.9-6.4c1.1-4.4-0.5-8.6-3.7-9.4c0,0,0,0,0,0
			c-1-0.2-2-0.2-3,0.3c-0.5,0.2-1,0.1-1.4-0.1c-0.4-0.3-0.7-0.8-0.7-1.3c0-1.5-0.1-2.8-1-4.2c-0.9-1.5-0.5-3.9,0-6.4
			c0.2-1.3,0.5-2.7,0.4-3.3c-0.5-2.7-1.2-5.3-2.3-7.5c-1.6-3.3-6.5-4.9-10.8-6.3c-2-0.7-3.9-1.3-5.5-2.1c-2.9-1.4-6.2-2.5-9.4-3
			c-4.1-0.6-9.5-0.3-13.5,0.7c-2.1,0.6-4.1,1.3-6,2.2c-5.2,2.5-9.1,6.4-11.5,11.3c-0.7,1.5-1.9,2.3-2.9,3c-1.1,0.8-1.7,1.2-1.8,2.1
			c-0.1,0.6-0.1,1.4-0.2,2.2c-0.1,1.7-0.1,3.6-1,5.1c-1.1,1.8-0.9,4-0.7,6.6c0,0.6-0.2,1.1-0.7,1.4c-0.5,0.3-1.1,0.3-1.6,0
			c-0.9-0.6-2.3-1.1-3.9-0.7c-3.2,0.8-4.8,5-3.7,9.4c1.1,4.4,4.6,7.2,7.8,6.4c0.3-0.1,0.7-0.2,1-0.4C77,109.1,77.3,109,77.5,109z"/>
	</g>
	<g>
		<g>
			<path class="st11" d="M116.9,95.1L116.9,95.1c-1.1,0-2-1.4-2-3.1v-0.4c0-1.7,0.9-3.1,2-3.1s2,1.4,2,3.1v0.4
				C118.9,93.8,118,95.1,116.9,95.1"/>
			<path class="st11" d="M106.7,95.7L106.7,95.7c-1.1,0-2-1.4-2-3.1v-0.4c0-1.7,0.9-3.1,2-3.1c1.1,0,2,1.4,2,3.1v0.4
				C108.7,94.3,107.8,95.7,106.7,95.7"/>
		</g>
	</g>
	<path class="st12" d="M108.2,100.4c-0.3,0-0.5-0.1-0.7-0.3c-0.4-0.4-0.4-1,0-1.4c2.8-2.6,7.5-2.8,10.5-0.4c0.4,0.3,0.5,1,0.2,1.4
		s-1,0.5-1.4,0.2c-2.2-1.8-5.8-1.6-7.9,0.3C108.7,100.3,108.4,100.4,108.2,100.4z"/>
	<path d="M114,112.6c-0.9,0-1.8,0-2.7-0.1c-1.7-0.1-3.7-0.3-5.6-0.9c-2.1-0.7-3.8-2-4.8-3.6c-0.3-0.5-0.2-1.1,0.3-1.4
		c0.5-0.3,1.1-0.2,1.4,0.3c0.8,1.2,2.1,2.2,3.8,2.7c1.6,0.6,3.4,0.7,5.1,0.8c2.1,0.1,4.4,0.2,6.6-0.4c2.2-0.6,4-1.8,4.9-3.4
		c0.3-0.5,0.9-0.6,1.4-0.4c0.5,0.3,0.7,0.9,0.4,1.4c-1.2,2.1-3.4,3.7-6.2,4.4C117.1,112.5,115.5,112.6,114,112.6z"/>
	<g>
		<path class="st13" d="M77.6,97.2c-0.1,1-1.4,1.4-2.2,0.8c-2.9-2.5-5.1-5.7-6.7-9.1c-0.9-2-1.3-4.1-1.3-6.3
			c0-8.1,2.5-16.3,8.5-21.7c5.5-4.9,11.7-6.2,18.6-7.9c6-1.5,9.3-6.8,14.6-9.9c2.6-1.5,6.3,0.3,5.3,3.6c-0.3,1.1-1.6,1.7-2.6,2.3
			c10.3-1.7,23.4,1.9,30.7,9.3c3.2,3.2,6.1,8.3,7.4,12.6c3,9.5,0.9,17.1-2.5,24.2c-0.5,0.9-1.9,0.8-2-0.3c-1.1-7.2-3-14.3-5.6-20.9
			c-0.1-0.2-0.4-0.3-0.6-0.2c-1.1,0.9-5.8,0-7.2-0.6c-2-0.8-6.2-2.9-9.1-6.4c-5.3,14.7-20.9,2-20.9,2C94.3,81.8,85,75.4,85,75.4
			S78.4,85.4,77.6,97.2z"/>
		<path d="M76.4,99.8c-0.7,0-1.4-0.2-1.9-0.7c-3-2.6-5.4-5.9-7-9.7c-0.9-2.1-1.4-4.5-1.4-6.9c0-9.5,3.2-17.6,9-22.8
			c5.5-4.9,11.6-6.4,18.2-8l1.1-0.3c3.3-0.8,5.7-3,8.3-5.2c1.8-1.6,3.6-3.2,5.9-4.5c1.9-1.1,4.3-1,6,0.3c1.5,1.2,2,3,1.5,5
			c0,0,0,0,0,0c10.2-0.4,21.3,3.6,27.7,10.1c3.3,3.3,6.3,8.5,7.8,13.2c3.3,10.6,0.6,18.8-2.6,25.3c-0.5,1-1.6,1.6-2.7,1.4
			c-1.1-0.2-2-1-2.2-2.1c-1.1-6.8-2.8-13.4-5.1-19.6c-2.6,0.5-6.8-0.7-7.4-0.9c-1.2-0.5-5-2.1-8.1-5.1c-1.5,2.9-3.7,4.8-6.4,5.5
			c-5.6,1.5-11.8-2.2-14.5-4c-2.7,4.1-6,6.6-9.6,7.4c-3.2,0.7-5.9-0.1-7.4-0.8c-1.7,2.9-5.8,10.9-6.4,19.9v0c-0.1,1-0.7,1.9-1.7,2.3
			C77.1,99.7,76.7,99.8,76.4,99.8z M111.3,44c-0.4,0-0.8,0.1-1.3,0.3c-2,1.1-3.7,2.6-5.4,4.1c-2.8,2.4-5.6,4.9-9.6,5.9l-1.1,0.3
			c-6.4,1.5-12,2.9-16.9,7.3c-5.1,4.7-8,12-8,20.6c0,2,0.4,3.9,1.2,5.7c1.4,3.2,3.5,6.1,6,8.4c0.9-11.8,7.3-21.6,7.6-22
			c0.2-0.3,0.6-0.6,1-0.6c0.4-0.1,0.8,0,1.1,0.2c0,0,2.9,1.9,6.5,1.1c3.1-0.7,6-3.2,8.5-7.4c0.2-0.4,0.6-0.6,1-0.7
			c0.4-0.1,0.9,0,1.2,0.3c0.1,0.1,7.5,6,13.2,4.5c2.4-0.6,4.1-2.6,5.3-5.8c0.2-0.5,0.6-0.9,1.2-1c0.5-0.1,1.1,0.1,1.4,0.6
			c2.9,3.7,7.5,5.6,8.4,6c1.4,0.5,5,1.1,5.8,0.8c0.5-0.3,1.1-0.4,1.6-0.3c0.6,0.2,1.1,0.6,1.3,1.1c2.5,6.3,4.3,13,5.5,19.9
			c2.7-5.8,4.7-12.9,1.9-21.9c-1.3-4.2-4.2-9-7.1-12c-6.7-6.8-19-10.6-29.3-8.9c-0.7,0.1-1.4-0.3-1.6-0.9c-0.3-0.7,0-1.4,0.6-1.8
			c0.2-0.1,0.3-0.2,0.5-0.3c0.6-0.4,1.3-0.8,1.4-1.2c0.2-0.8,0.1-1.4-0.5-1.8C112.3,44.2,111.8,44,111.3,44z M138.4,72.5
			C138.4,72.5,138.4,72.5,138.4,72.5C138.4,72.5,138.4,72.5,138.4,72.5z M138.4,72.4L138.4,72.4L138.4,72.4z"/>
	</g>
</g>
</svg>
