<?xml version="1.0" encoding="utf-8"?>
<!-- Generator: Adobe Illustrator 24.1.1, SVG Export Plug-In . SVG Version: 6.00 Build 0)  -->
<svg version="1.1" id="Layer_1" xmlns="http://www.w3.org/2000/svg" xmlns:xlink="http://www.w3.org/1999/xlink" x="0px" y="0px"
	 viewBox="0 0 270 240" style="enable-background:new 0 0 270 240;" xml:space="preserve">
<g>
	<path d="M134.4,152.45c2.18,0,3.99,1.72,4.07,3.92l1.19,30.39l0.74,18.95c0,0,1.94-2.59,7.38-2.59c0.92,0,1.95,0.07,3.09,0.25
		c0.05,0.01,0.29,0.05,0.29,0.05c5.22,0.92,9.85,4.22,12.44,8.84c1.4,2.5,2.15,7.17,0.2,9.59c-2.86,3.54-7.75,3.17-11.79,3.33
		l-13.58,0.53l-2.94,0.11c-0.06,0-0.12,0-0.18,0c-2.37,0-6-1.74-6.09-4.04l-1.35-34.58l0,0l-1.19-30.39
		c-0.09-2.25,5.32-4.29,7.57-4.38C134.3,152.45,134.35,152.45,134.4,152.45 M134.4,149.06C134.4,149.06,134.4,149.06,134.4,149.06
		l-0.29,0.01c-1.67,0.07-4.04,0.74-6.03,1.72c-4.08,2.02-4.86,4.47-4.79,6.17l1.19,30.39l1.35,34.58c0.18,4.52,5.64,7.3,9.48,7.3
		l0.31-0.01l2.94-0.11l13.58-0.53c0.47-0.02,0.96-0.03,1.45-0.04c3.94-0.09,9.35-0.21,12.84-4.55c3.09-3.84,1.93-10.12,0.12-13.37
		c-3.07-5.5-8.61-9.44-14.81-10.53l-0.29-0.05c-1.32-0.2-2.53-0.3-3.68-0.3c-1.62,0-3.01,0.19-4.21,0.49l-0.53-13.6l-1.19-30.39
		C141.71,152.21,138.43,149.06,134.4,149.06L134.4,149.06z"/>
	<path style="fill:#FFFFFF;" d="M139.66,186.77l-11.8,0.45l-1.19-30.38c-0.08-2.26,5.31-4.29,7.57-4.38
		c2.26-0.11,4.15,1.64,4.24,3.9L139.66,186.77z"/>
	<path style="fill-rule:evenodd;clip-rule:evenodd;fill:#0088C2;" d="M163.8,221.87c-2.85,3.53-7.76,3.16-11.8,3.33l-13.58,0.51
		l-2.94,0.11c-2.37,0.11-6.18-1.67-6.27-4.04L128,190.92l-0.14-3.7l11.8-0.45l0.14,3.67l0.59,15.28c0,0,2.65-3.56,10.48-2.34
		c0.06,0,0.28,0.06,0.28,0.06c5.22,0.9,9.85,4.21,12.45,8.84C164.99,214.78,165.75,219.44,163.8,221.87z"/>
</g>
<g>
	<path style="fill:#FFFFFF;" d="M123.69,187l-0.48,2l-0.65,2.09v0.03l-10.96-3.53c0.25-0.68,0.45-1.33,0.62-1.92
		c2.09-7.76,2.06-15.13-0.06-21.94c-0.34-1.04-0.71-2.06-1.13-3.08c-0.42-0.99-0.88-1.98-1.38-2.96c-0.23-0.42-0.42-0.9-0.54-1.36
		c-0.11-0.45-0.17-0.93-0.17-1.38c0-1.04,0.28-2.09,0.88-3.05c1.13-1.78,3.13-2.91,5.17-2.91h0.23c1.92,0.08,3.56,1.16,4.52,2.99
		c0.93,1.75,1.72,3.53,2.43,5.34C125.72,166.61,126.2,176.58,123.69,187z"/>
	<path d="M128.35,206.93h-0.03c-0.06-0.08-0.11-0.17-0.17-0.25c-2.23-2.65-4.38-4.12-6.16-4.94c1.52-3.25,2.82-6.47,3.78-9.6
		c0.03-0.08,0.06-0.17,0.08-0.25l0.59-1.86c0-0.08,0.03-0.14,0.06-0.23l0.48-2c2.68-11.12,2.12-21.8-1.67-31.68
		c-0.82-2.09-1.67-3.95-2.6-5.7c-1.52-2.91-4.21-4.66-7.37-4.8h-0.37c-3.19,0-6.3,1.72-8.02,4.49c-0.93,1.5-1.41,3.16-1.41,4.86
		c0,0.73,0.08,1.5,0.28,2.2c0.17,0.73,0.42,1.44,0.79,2.12c0.96,1.84,1.72,3.61,2.32,5.48c1.92,6.18,1.92,12.93,0,20.05
		c-0.14,0.45-0.31,1.02-0.51,1.61c-0.59,1.61-1.38,3.47-2.43,5.65c-1.21,2.54-2.57,5.05-3.76,7.23l-5.51,6.78
		c-2.68,3.28-2.17,8.13,1.1,10.81l3.22,2.57l9.77,7.93c0.34,0.25,0.65,0.54,0.99,0.82c2.63,2.2,5.87,4.94,10.22,4.94
		c0.59,0,1.21-0.06,1.81-0.17c4.63-0.79,7.71-5.99,8.44-9.46C133.54,217.77,132.05,211.56,128.35,206.93z M128.97,222.83
		c-0.54,2.6-2.88,6.32-5.7,6.8c-0.42,0.08-0.82,0.11-1.21,0.11c-1.78,0-3.42-0.71-4.88-1.69c-0.37-0.25-0.73-0.51-1.1-0.79
		c-1.07-0.79-2.09-1.72-3.08-2.51l-9.8-7.93l-3.19-2.57c-0.51-0.42-0.9-0.93-1.16-1.5c-0.4-0.82-0.51-1.72-0.34-2.6
		c0.11-0.71,0.4-1.36,0.88-1.95l5.65-6.97v-0.03c0.73-1.3,1.61-2.88,2.48-4.57c0.03-0.06,0.06-0.11,0.08-0.17
		c0.31-0.59,0.62-1.19,0.9-1.81c0.2-0.37,0.4-0.76,0.56-1.13c0.99-2.06,1.89-4.12,2.54-5.93c0.25-0.68,0.45-1.33,0.62-1.92
		c2.09-7.76,2.06-15.13-0.06-21.94c-0.34-1.04-0.71-2.06-1.13-3.08c-0.42-0.99-0.9-1.98-1.41-2.96c-0.23-0.42-0.4-0.88-0.51-1.36
		c-0.11-0.45-0.17-0.93-0.17-1.38c0-1.04,0.28-2.09,0.88-3.05c1.13-1.78,3.13-2.91,5.17-2.91h0.23c1.92,0.08,3.56,1.16,4.52,2.99
		c0.93,1.75,1.72,3.53,2.43,5.34c3.56,9.29,4.04,19.26,1.52,29.68l-0.48,2l-0.65,2.09v0.03c-0.34,1.1-0.73,2.2-1.16,3.3
		c-0.9,2.46-1.98,4.94-3.25,7.43c-0.03,0.03-0.03,0.08-0.06,0.11c-0.48,0.93,0,2.03,1.02,2.32c0.06,0,0.08,0.03,0.14,0.03
		c0.2,0.06,0.4,0.14,0.62,0.2c0.42,0.17,0.85,0.37,1.33,0.62c0.54,0.28,1.1,0.65,1.69,1.13c0.54,0.42,1.13,0.93,1.72,1.55
		c0.31,0.34,0.62,0.68,0.93,1.04c0.03,0.03,0.14,0.2,0.14,0.2C128.77,212.89,130.01,218.03,128.97,222.83z"/>
	<path style="fill:#009FF8;" d="M128.97,222.83c-0.54,2.6-2.88,6.32-5.7,6.8c-0.42,0.08-0.82,0.11-1.21,0.11
		c-1.78,0-3.42-0.71-4.88-1.69c-0.37-0.25-0.73-0.51-1.1-0.79c-1.07-0.79-2.09-1.72-3.08-2.51l-9.8-7.93l-3.19-2.57
		c-0.51-0.42-0.9-0.93-1.16-1.5c-0.4-0.82-0.51-1.72-0.34-2.6c0.11-0.71,0.4-1.36,0.88-1.95l5.65-6.97v-0.03
		c0.73-1.3,1.61-2.88,2.48-4.57c0.03-0.06,0.06-0.11,0.08-0.17c0.31-0.59,0.62-1.19,0.9-1.81c0.2-0.37,0.4-0.76,0.56-1.13
		c0.99-2.06,1.89-4.12,2.54-5.93l10.96,3.53c-0.34,1.1-0.73,2.2-1.16,3.3c-0.9,2.46-1.98,4.94-3.25,7.43
		c-0.03,0.03-0.03,0.08-0.06,0.11c-0.48,0.93,0,2.03,1.02,2.32c0.06,0,0.08,0.03,0.14,0.03c0.2,0.06,0.4,0.14,0.62,0.2
		c0.42,0.17,0.85,0.37,1.33,0.62c0.54,0.28,1.1,0.65,1.69,1.13c0.54,0.42,1.13,0.93,1.72,1.55c0.31,0.34,0.62,0.68,0.93,1.04
		c0.03,0.03,0.14,0.2,0.14,0.2C128.77,212.89,130.01,218.03,128.97,222.83z"/>
</g>
<g>
	<path style="fill:#FFFFFF;" d="M145.47,20.88c-1.18,1.84-3.14,2.99-5.22,3.23c-1.49,0.18-3.03-0.1-4.39-0.85
		c-2.89-1.62-5.05-3.27-6.7-3.08c-0.67,0.08-1.28,0.46-1.81,1.29c-1.3,1.97-0.49,3.81-2.52,4.39c-1.04,0.32-1.95,0.83-2.68,0.91
		c-0.48,0.06-0.89-0.07-1.17-0.52c-2.14-3.44-1.57-9.45,0.27-12.91c1.04-2.03,2.79-3.54,4.92-4.59c1.56-0.75,2.96-1.2,4.3-1.36
		c4.32-0.51,7.94,1.76,12.75,4.47C146.47,13.74,147.48,17.74,145.47,20.88z"/>
	<path d="M149.62,15.1c-0.65-2.62-2.33-4.81-4.74-6.18l-0.24-0.11l-0.7-0.4c-4.69-2.66-8.72-4.97-13.88-4.36
		c-1.77,0.21-3.55,0.76-5.4,1.69c-2.93,1.45-5.1,3.5-6.42,6.05c-2.32,4.4-3,11.7-0.13,16.28c0.95,1.54,2.6,2.31,4.43,2.09
		c0.84-0.1,1.63-0.42,2.31-0.67c0.3-0.12,0.6-0.24,0.95-0.34c3.1-0.93,3.69-3.45,3.97-4.68c0.08-0.27,0.14-0.5,0.18-0.67
		c0.63,0.3,1.49,0.79,2.16,1.2c0.37,0.24,0.77,0.48,1.19,0.71c0.31,0.19,0.61,0.35,0.95,0.54c1.92,1.05,4.13,1.5,6.4,1.23
		c3.2-0.38,6-2.13,7.68-4.77C149.82,20.42,150.26,17.69,149.62,15.1z M145.47,20.88c-1.18,1.84-3.14,2.99-5.22,3.23
		c-1.49,0.18-3.03-0.1-4.39-0.85c-1.43-0.8-2.69-1.62-3.78-2.2c-1.12-0.61-2.08-0.98-2.92-0.88c-0.67,0.08-1.28,0.46-1.81,1.29
		c-1.3,1.97-0.49,3.81-2.52,4.39c-1.04,0.32-1.95,0.83-2.68,0.91c-0.48,0.06-0.89-0.07-1.17-0.52c-2.14-3.44-1.57-9.45,0.27-12.91
		c1.04-2.03,2.79-3.54,4.92-4.59c1.56-0.75,2.96-1.2,4.3-1.36c2.47-0.29,4.7,0.33,7.08,1.44c1.77,0.79,3.6,1.85,5.67,3.03
		C146.47,13.74,147.48,17.74,145.47,20.88z"/>
	<path style="fill:#683100;" d="M145.47,20.88c-1.18,1.84-3.14,2.99-5.22,3.23c-1.49,0.18-3.03-0.1-4.39-0.85
		c-1.43-0.8-2.69-1.62-3.78-2.2c0.04-0.17,0.1-0.35,0.19-0.53c0.26-0.43,0.91-0.96,1.42-1.19c0.52-0.2,1.04-0.32,1.56-0.3
		c-0.67-0.18-1.29-0.59-1.65-1.23c-0.77-1.25-0.28-2.87,1.05-3.62c0.62-0.33,1.32-0.41,1.98-0.29c-0.62-0.18-1.2-0.51-1.49-1.1
		c-0.53-1.13,0.1-2.29,0.1-2.29s0.4-1.18,2.31-1.67c1.77,0.79,3.6,1.85,5.67,3.03C146.47,13.74,147.48,17.74,145.47,20.88z"/>
</g>
<g>
	<path style="fill:#FFFFFF;" d="M100.94,30.06c-0.1,1.72-2.67,3.57-4.73,3.93c-0.08,0.01-0.16,0.05-0.25,0.06
		c-2.16,0.26-2.31-1.45-4.65-2.91c-0.77-0.45-1.44-0.62-2.03-0.55c-2.1,0.26-3.41,3.51-5.69,7.21c-1.36,2.18-3.56,3.48-5.91,3.76
		c-1.77,0.21-3.63-0.13-5.26-1.15c-3.79-2.38-4.99-7.39-2.67-11.22c4.1-6.73,7.9-12,14.93-12.85c0.7-0.09,1.4-0.14,2.15-0.12
		c2.73,0.01,5.38,0.71,7.6,2.38C98.21,21.43,101.25,25.13,100.94,30.06z"/>
	<path d="M96.45,15.87c-2.69-2.01-5.92-3.04-9.61-3.04c-0.88-0.01-1.73,0.04-2.57,0.14c-7.23,0.88-11.61,5.54-15.34,11.19
		c-0.73,1.06-1.39,2.16-2.08,3.27c-3.3,5.38-1.58,12.51,3.77,15.84c2.22,1.38,4.85,1.97,7.45,1.65c3.48-0.42,6.54-2.36,8.37-5.34
		c0.55-0.86,1.04-1.72,1.49-2.51c0.17-0.28,0.33-0.55,0.49-0.86c0.44-0.79,0.94-1.59,1.32-2.04c0.43,0.29,0.76,0.62,1.11,0.97
		c0.95,0.99,2.51,2.62,5.51,2.26c0.14-0.02,0.3-0.07,0.47-0.09c2.87-0.52,7.24-3.13,7.48-7.05C104.66,24.89,102,20.06,96.45,15.87z
		 M100.94,30.06c-0.1,1.72-2.67,3.57-4.73,3.93c-0.08,0.01-0.16,0.05-0.25,0.06c-2.16,0.26-2.31-1.45-4.65-2.91
		c-0.77-0.45-1.44-0.62-2.03-0.55c-1.09,0.13-1.95,1.06-2.86,2.42c-0.84,1.3-1.71,3-2.83,4.78c-1.36,2.18-3.56,3.48-5.91,3.76
		c-1.77,0.21-3.63-0.13-5.26-1.15c-3.79-2.38-4.99-7.39-2.67-11.22c1.44-2.39,2.88-4.59,4.42-6.45c2.79-3.47,5.97-5.85,10.51-6.4
		c0.7-0.09,1.4-0.14,2.15-0.12c2.73,0.01,5.38,0.71,7.6,2.38C98.21,21.43,101.25,25.13,100.94,30.06z"/>
	<path style="fill:#683100;" d="M86.42,33.02c-0.84,1.3-1.71,3-2.83,4.78c-1.36,2.18-3.56,3.48-5.91,3.76
		c-1.77,0.21-3.63-0.13-5.26-1.15c-3.79-2.38-4.99-7.39-2.67-11.22c1.44-2.39,2.88-4.59,4.42-6.45c1.07-0.4,2.88,0.56,2.88,0.56
		c0.89,0.57,1.51,1.47,1.47,2.52c-0.04,0.8-0.39,1.5-0.89,2.04c0.59-0.5,1.35-0.79,2.18-0.75c1.78,0.1,3.18,1.6,3.09,3.41
		c-0.03,0.89-0.43,1.64-0.98,2.22c0.11-0.07,0.4-0.22,0.78-0.35C83.55,32.09,85.01,31.91,86.42,33.02z"/>
</g>
<g style="opacity:0.2;">
	<path style="fill:#91DCFF;" d="M102.89,79.07c-20.61,2.96-39.05,9.29-49.64,17.68c-7.09,5.62-11.49,11.77-14.17,16.8
		c1.75-11.75,6.01-21.8,23.27-28.88C72.08,80.65,87.98,79.29,102.89,79.07z"/>
	<path d="M140.47,77.54c-2.29-0.2-56.16-4.97-79.2,4.49c-23.21,9.54-24.56,24.59-26,40.52l-0.11,1.21
		c-0.06,0.76,0.45,1.44,1.21,1.52c0.06,0.03,0.11,0.03,0.2,0.03c0.65,0,1.24-0.48,1.38-1.13c0.03-0.14,2.88-14,17.05-25.24
		c14.03-11.1,47.83-21.04,85.24-18.58c0.82,0.03,1.44-0.54,1.5-1.3C141.8,78.31,141.23,77.63,140.47,77.54z M39.08,113.54
		c1.75-11.75,6.01-21.8,23.27-28.88c9.74-4.01,25.64-5.36,40.55-5.59c-20.61,2.96-39.05,9.29-49.64,17.68
		C46.16,102.36,41.76,108.52,39.08,113.54z"/>
</g>
<g>
	<g>
		<g>
			<path style="fill:#FFFFFF;" d="M167.28,127.28c-1.48-6.07-4.3-11.42-7.23-17.19c-1.3-2.55-6.17-11.74,0.03-12.23
				c2.25-0.18,4.49,2.32,5.97,3.7c3.24,3,5.98,6.45,8.19,10.18c2.47,4.18,4.24,8.68,5.44,13.33
				C176.31,125.09,171.84,125.6,167.28,127.28z"/>
		</g>
		<g>
			<path style="fill:#0088C5;" d="M166.64,149.06c0.02-0.08,0.04-0.15,0.07-0.23c0.59-1.99,1.01-3.88,1.3-5.74
				c0.42-2.65,0.55-5.24,0.41-7.96c-0.07-1.34-0.2-2.71-0.4-4.14c-0.18-1.28-0.44-2.51-0.74-3.72c4.57-1.68,9.03-2.19,12.4-2.22
				c0.58,2.25,1.04,4.52,1.36,6.82c0.91,6.54,1.49,14.11-0.44,20.59c-0.94,3.15-3.54,5.83-7.01,6.53c-0.72,0.15-1.44,0.22-2.08,0.21
				c-2.35-0.02-4.71-0.97-5.7-3.04c-0.2-0.41-0.3-0.83-0.36-1.25C165.15,152.97,166.1,150.96,166.64,149.06z"/>
		</g>
	</g>
	<path d="M160.3,97.85c2.17,0,4.31,2.37,5.75,3.7c3.24,3,5.98,6.45,8.19,10.18c2.47,4.18,4.24,8.68,5.44,13.33
		c0.58,2.25,1.04,4.52,1.36,6.82c0.91,6.54,1.49,14.11-0.44,20.59c-0.94,3.15-3.54,5.83-7.01,6.53c-0.71,0.14-1.41,0.21-2.04,0.21
		c-0.02,0-0.03,0-0.05,0c-2.35-0.02-4.71-0.97-5.7-3.04c-0.2-0.41-0.3-0.83-0.36-1.25c-0.29-1.95,0.66-3.96,1.2-5.86
		c0.02-0.08,0.04-0.15,0.07-0.23c0.59-2,1.01-3.88,1.3-5.74c0.42-2.65,0.55-5.24,0.41-7.96c-0.07-1.34-0.2-2.71-0.4-4.14
		c-0.18-1.28-0.44-2.51-0.74-3.72c-1.48-6.07-4.3-11.42-7.23-17.19c-1.3-2.55-6.17-11.74,0.03-12.23
		C160.15,97.85,160.22,97.85,160.3,97.85 M160.3,94.46c-0.16,0-0.33,0.01-0.49,0.02c-3.25,0.26-4.74,2.09-5.34,3.16
		c-2.11,3.77,0.05,9.07,2.44,13.76l0.11,0.22l0.48,0.95c2.66,5.22,5.17,10.16,6.48,15.51c0.32,1.3,0.53,2.38,0.67,3.38
		c0.19,1.36,0.31,2.61,0.38,3.85c0.13,2.48,0,4.85-0.38,7.26c-0.28,1.77-0.67,3.51-1.2,5.31l-0.07,0.25
		c-0.11,0.4-0.25,0.8-0.38,1.21c-0.56,1.69-1.26,3.79-0.91,6.09c0.12,0.82,0.33,1.53,0.65,2.19c1.45,3.05,4.8,4.95,8.74,4.98
		c0,0,0,0,0,0c0.93,0,1.87-0.1,2.78-0.28c4.56-0.92,8.23-4.33,9.59-8.89c2.18-7.32,1.44-15.61,0.55-22.02
		c-0.33-2.38-0.81-4.8-1.43-7.2c-1.33-5.16-3.29-9.94-5.81-14.2c-2.41-4.07-5.37-7.75-8.8-10.94l-0.56-0.53
		C166.1,96.91,163.55,94.46,160.3,94.46L160.3,94.46z"/>
</g>
<g>
	<g>
		<g>
			<path style="fill:#FFFFFF;" d="M72.34,126.14c3.92-4.04,8.57-6.86,13.49-9.95c2.18-1.37,10.18-6.19,5.54-9.63
				c-1.68-1.25-4.57-0.39-6.36-0.04c-3.9,0.77-7.62,2.12-11.05,3.97c-3.84,2.07-7.28,4.74-10.33,7.8
				C66.26,119.96,69.53,122.57,72.34,126.14z"/>
		</g>
		<g>
			<path style="fill:#0088C5;" d="M62.93,143.59c0.02-0.07,0.03-0.14,0.05-0.21c0.45-1.86,0.98-3.55,1.59-5.15
				c0.88-2.29,1.95-4.39,3.3-6.46c0.66-1.02,1.39-2.03,2.2-3.06c0.72-0.92,1.49-1.75,2.27-2.56c-2.82-3.57-6.08-6.17-8.71-7.86
				c-1.48,1.48-2.87,3.05-4.17,4.69c-3.69,4.7-7.58,10.37-9.02,16.41c-0.7,2.94,0.12,6.33,2.53,8.6c0.5,0.47,1.03,0.88,1.54,1.2
				c1.85,1.14,4.14,1.55,5.85,0.41c0.34-0.23,0.61-0.51,0.85-0.8C62.32,147.39,62.49,145.34,62.93,143.59z"/>
		</g>
	</g>
	<path d="M88.99,105.9c0.89,0,1.73,0.17,2.39,0.65c4.64,3.44-3.37,8.27-5.54,9.63c-4.92,3.09-9.57,5.91-13.49,9.95
		c-0.78,0.81-1.55,1.64-2.27,2.56c-0.81,1.03-1.54,2.04-2.2,3.06c-1.35,2.07-2.42,4.17-3.3,6.46c-0.62,1.61-1.15,3.3-1.59,5.15
		c-0.02,0.07-0.03,0.14-0.05,0.21c-0.44,1.75-0.61,3.81-1.72,5.2c-0.24,0.3-0.51,0.58-0.85,0.8c-0.71,0.47-1.51,0.68-2.34,0.68
		c-1.18,0-2.42-0.42-3.51-1.09c-0.51-0.31-1.04-0.72-1.54-1.2c-2.4-2.27-3.23-5.65-2.53-8.6c1.44-6.04,5.33-11.71,9.02-16.41
		c1.29-1.65,2.69-3.21,4.17-4.69c3.05-3.06,6.49-5.73,10.33-7.8c3.43-1.85,7.15-3.2,11.05-3.97C86.1,106.3,87.6,105.9,88.99,105.9
		 M88.99,102.51c-1.46,0-2.84,0.3-3.96,0.54l-0.67,0.14c-4.19,0.82-8.23,2.27-12,4.31c-3.95,2.13-7.7,4.96-11.12,8.39
		c-1.59,1.59-3.08,3.27-4.43,5c-3.63,4.63-8.01,10.83-9.65,17.72c-1.02,4.31,0.32,8.84,3.5,11.84c0.65,0.62,1.37,1.17,2.07,1.61
		c1.69,1.05,3.52,1.6,5.29,1.6c1.54,0,3-0.43,4.22-1.25c0.59-0.39,1.11-0.88,1.61-1.5c1.37-1.71,1.79-3.74,2.13-5.38
		c0.08-0.38,0.16-0.76,0.25-1.12l0.06-0.24c0.4-1.67,0.88-3.22,1.46-4.74c0.79-2.06,1.76-3.97,2.97-5.83
		c0.6-0.93,1.27-1.85,2.02-2.81c0.56-0.71,1.2-1.44,2.04-2.29c3.42-3.53,7.61-6.15,12.05-8.94l0.81-0.51l0.19-0.12
		c4.04-2.53,8.19-5.67,8.35-9.75c0.05-1.19-0.25-3.48-2.79-5.36C92.21,102.95,90.73,102.51,88.99,102.51L88.99,102.51z"/>
</g>
<g>
	<path d="M121.43,24.54c9.3,0,18.93,2.96,27.03,7.31c7.96,4.27,13.95,12.84,17.45,21.02c0.21,0.49,0.38,0.99,0.57,1.48
		c0.39,0.84,0.76,1.67,1.1,2.5c4.05,9.97,3.18,19.11,1.36,29.6c-0.39,2.28-3.73,13.55-3.75,14.08c-0.67,6.07,3.15,13.02,4.6,18.79
		c2.7,10.73,4.16,21.95,0.66,32.69c-4.76,14.65-18.69,21.11-32.92,23.54c-1.71,0.29-3.43,0.51-5.16,0.66
		c-0.07,0.01-0.14,0.01-0.2,0.01l-3.51,0.31c-1.73,0.15-3.53,0.24-5.26,0.25c-0.13,0-0.26,0-0.39,0c-11.81,0-25.06-3.28-33.33-12.22
		c-6.05-6.54-9.28-18.07-9.59-26.88c-0.24-6.87,1.18-13.68,1.78-20.5c0.23-2.67,0.96-5.33,0.48-7.97c-0.1-0.55-0.24-1.1-0.38-1.65
		c-0.55-1.16-4.68-9.86-5.84-13.23c-3.19-7.62-4.68-15.79-4.32-24.25c0.37-8.9,2.94-19.03,8.86-25.84
		c7.62-8.76,18.31-16.32,29.68-18.37c0,0,0.08-0.02,0.21-0.04l3.65-0.67C116.56,24.75,118.99,24.54,121.43,24.54 M121.43,21.15
		c-2.71,0-5.35,0.24-7.86,0.7l-3.64,0.66l-0.27,0.05c-11,1.99-22.53,9.09-31.56,19.47c-5.69,6.55-9.23,16.73-9.69,27.93
		c-0.37,8.87,1.16,17.49,4.54,25.6c0.99,2.81,3.69,8.69,5.81,13.17c0.1,0.39,0.18,0.74,0.25,1.1c0.24,1.34,0.02,2.91-0.21,4.58
		c-0.12,0.83-0.23,1.66-0.31,2.5c-0.19,2.18-0.48,4.44-0.76,6.62c-0.59,4.63-1.2,9.42-1.03,14.3c0.32,9.17,3.69,21.72,10.49,29.06
		c7.83,8.46,20.88,13.31,35.82,13.31l0.41,0c1.77-0.01,3.69-0.1,5.54-0.27l3.51-0.31l0.19-0.01c1.83-0.16,3.66-0.4,5.44-0.7
		c18.82-3.21,31.12-12.14,35.57-25.83c4.04-12.44,1.81-25.01-0.6-34.57c-0.5-2-1.25-4.09-1.98-6.11c-1.42-3.95-2.88-8.03-2.55-11.37
		c0.14-0.58,0.71-2.64,1.23-4.47c1.32-4.7,2.27-8.13,2.51-9.51c1.76-10.21,2.97-20.29-1.56-31.45c-0.34-0.85-0.72-1.7-1.11-2.55
		l-0.18-0.46c-0.13-0.34-0.26-0.68-0.4-1.03c-4.41-10.31-11.32-18.58-18.96-22.68C140.8,23.89,130.63,21.15,121.43,21.15
		L121.43,21.15z"/>
	<path style="fill:#009FF9;" d="M169.79,119.33c-1.45-5.77-5.27-12.71-4.6-18.79c0.02-0.53,3.36-11.8,3.75-14.08
		c1.81-10.49,2.69-19.63-1.37-29.6c-0.34-0.83-0.71-1.67-1.1-2.5c-0.2-0.49-0.36-0.99-0.58-1.48c-3.5-8.19-9.49-16.75-17.45-21.02
		c-10.23-5.49-22.9-8.77-34.26-6.66l-3.65,0.67c-0.12,0.02-0.21,0.04-0.21,0.04c-11.37,2.05-22.06,9.62-29.68,18.37
		c-5.93,6.82-8.49,16.95-8.86,25.84c-0.35,8.46,1.13,16.64,4.32,24.25c1.16,3.37,5.3,12.07,5.84,13.23
		c0.14,0.54,0.28,1.09,0.38,1.64c0.48,2.64-0.25,5.3-0.48,7.97c-0.6,6.82-2.02,13.63-1.78,20.5c0.31,8.8,3.54,20.34,9.59,26.88
		c8.37,9.04,21.82,12.29,33.73,12.22c1.73-0.01,3.53-0.1,5.26-0.25l3.51-0.31c0.07-0.01,0.13-0.01,0.2-0.01
		c1.73-0.15,3.45-0.37,5.16-0.66c14.24-2.43,28.16-8.89,32.92-23.54C173.94,141.27,172.48,130.05,169.79,119.33z"/>
</g>
<path style="fill:#009FF8;" d="M114.19,25.18c0,0-0.08,0.01-0.21,0.03L114.19,25.18z"/>
<g>
	<path style="fill-rule:evenodd;clip-rule:evenodd;fill:#FFFFFF;" d="M176.19,88.02c-5.11,7.85-16.12,13.95-29.45,16.32
		c-33.09,5.87-51.39-2.26-55.99-24.85c-0.65-3.19-3.47-19.74,5.14-32.3c5.14-7.51,13.5-12.31,24.79-14.26
		c38.91-6.64,44.89,22,45.15,23.21c0.11,0.71,0.68,1.24,1.38,1.36c0.37,0.06,9.06,1.58,11.69,12.25
		C180.56,76.56,179.66,82.68,176.19,88.02z"/>
	<path d="M182.17,68.93c-2.6-10.59-10.33-13.69-13.3-14.54c-1.52-5.76-10.5-31.34-48.76-24.79c-12.25,2.09-21.35,7.37-27.02,15.7
		c-9.15,13.33-6.66,30.07-5.68,34.87c4.01,19.71,17.22,29.45,40.24,29.45c5.9,0,12.48-0.65,19.68-1.95
		c14.46-2.57,26-9.06,31.71-17.82C183.02,83.73,184.09,76.7,182.17,68.93z M90.75,79.49c-0.65-3.19-3.47-19.74,5.14-32.3
		c5.14-7.51,13.5-12.31,24.79-14.26c38.91-6.64,44.89,22,45.15,23.21c0.11,0.71,0.68,1.24,1.38,1.36
		c0.37,0.06,9.06,1.58,11.69,12.25c1.67,6.8,0.76,12.93-2.71,18.27c-5.11,7.85-16.12,13.95-29.45,16.32
		C113.65,110.21,95.35,102.08,90.75,79.49z"/>
	<path style="fill-rule:evenodd;clip-rule:evenodd;fill:#FFBEB8;" d="M140.23,77.55c0.87,6.87-3.71,13.1-10.22,13.93
		s-12.5-4.07-13.37-10.93c-0.87-6.86,3.71-13.09,10.22-13.92S139.36,70.69,140.23,77.55"/>
	<path style="fill-rule:evenodd;clip-rule:evenodd;fill:#FFBEB8;" d="M177.81,66.8c-0.97-2.22-4.99-9.54-8.32-6.13
		c-4.48,4.6-0.54,13.79,2.77,18.13c1.3,1.71,3.46,3.6,5.9,2.72c1.37-0.5,1.46-3.27,1.49-4.22C179.79,73.73,179.24,70.09,177.81,66.8
		z"/>
</g>
<g>
	<path style="fill-rule:evenodd;clip-rule:evenodd;" d="M159.89,69.21c0.11,0.9-0.74,1.74-1.92,1.89c-1.18,0.15-2.22-0.45-2.34-1.35
		c-0.11-0.89,0.74-1.74,1.93-1.89C158.74,67.71,159.77,68.32,159.89,69.21"/>
	<path style="fill-rule:evenodd;clip-rule:evenodd;" d="M162.65,66.89L162.65,66.89c-1.23,0.16-2.37-0.92-2.56-2.4l-0.05-0.38
		c-0.19-1.48,0.65-2.81,1.88-2.97s2.37,0.92,2.56,2.4l0.05,0.38C164.72,65.41,163.88,66.74,162.65,66.89"/>
	<path style="fill-rule:evenodd;clip-rule:evenodd;" d="M143.67,69.3L143.67,69.3c-1.44,0.18-2.76-0.87-2.95-2.35l-0.05-0.38
		c-0.19-1.48,0.83-2.83,2.27-3.02c1.44-0.18,2.76,0.87,2.95,2.35l0.05,0.38C146.13,67.77,145.11,69.12,143.67,69.3"/>
	<path style="fill:#231815;" d="M167.68,71.86c-0.47-0.62-1.36-0.73-1.98-0.26c-0.62,0.47-0.74,1.36-0.26,1.98
		c0.06,0.08,0.19,0.25-0.23,0.87c-0.85,1.27-2.17,1.54-2.87,1.59c-1.34,0.09-2.67-0.41-3.49-1.33c-0.05-0.06-0.12-0.09-0.18-0.14
		c-0.07-0.05-0.12-0.12-0.19-0.16c-0.01-0.01-0.03-0.01-0.04-0.01c-0.11-0.05-0.22-0.08-0.34-0.1c-0.06-0.01-0.12-0.04-0.19-0.05
		c-0.11-0.01-0.22,0.01-0.33,0.03c-0.07,0.01-0.14,0.01-0.2,0.03c-0.09,0.03-0.17,0.08-0.25,0.13c-0.08,0.04-0.16,0.08-0.23,0.13
		c-0.01,0.01-0.03,0.01-0.04,0.02c-0.07,0.06-0.1,0.14-0.16,0.21c-0.04,0.06-0.1,0.1-0.14,0.17c-1.7,3.14-7.17,4.4-10.82,2.5
		c-0.85-0.44-1.35-0.85-1.57-1.09c0.2-0.57,0.02-1.23-0.49-1.6c-0.63-0.46-1.51-0.33-1.98,0.3c-0.4,0.54-0.54,1.19-0.39,1.84
		c0.25,1.08,1.3,2.11,3.12,3.06c1.61,0.84,3.42,1.23,5.22,1.23c3.25,0,6.46-1.29,8.4-3.52c1.15,0.75,2.52,1.18,3.95,1.18
		c0.17,0,0.34-0.01,0.52-0.02c2.07-0.14,3.9-1.18,5.02-2.83C168.9,74.02,168.21,72.56,167.68,71.86z"/>
</g>
</svg>
