<?xml version="1.0" encoding="UTF-8"?>
<svg xmlns="http://www.w3.org/2000/svg" version="1.1" viewBox="0 0 390 390">
  <defs>
    <style>
      .cls-1 {
        fill: #582200;
      }

      .cls-2 {
        fill: #48649c;
      }

      .cls-3 {
        fill: #ff986c;
      }

      .cls-4 {
        fill: #ff3024;
      }

      .cls-5 {
        fill: #fc6a2a;
      }

      .cls-6 {
        fill: #ba162b;
      }

      .cls-7 {
        fill: #2d4780;
      }

      .cls-8 {
        fill: #fff;
      }

      .cls-9 {
        fill: #cc1a00;
      }

      .cls-10 {
        opacity: .66;
      }

      .cls-11 {
        fill: red;
      }

      .cls-12 {
        fill: #c97700;
      }

      .cls-13 {
        fill: #fbc700;
      }
    </style>
  </defs>
  <!-- Generator: Adobe Illustrator 28.7.1, SVG Export Plug-In . SVG Version: 1.2.0 Build 142)  -->
  <g>
    <g id="_레이어_1" data-name="레이어_1">
      <g>
        <g>
          <path class="cls-5" d="M115.228,187.896c-.449,2.124-2.111,3.951-4.176,4.623-2.065.672-4.493.172-6.098-1.309.04,1.599.031,3.244-.723,4.639-1.477,2.705-5.105,3.237-8.157,3.018-1.068-.081-2.15-.297-3.189-.626,1.088,9.753,3.867,19.306,8.266,28.084,10.783,21.442,34.701,42.593,59.648,44.225,26.072,1.735,22.398-30.621,15.808-47.177-4.913-12.366-13.567-23.305-24.937-30.232-7.999-4.906-16.956-7.88-25.578-11.567-.048.725-.221,1.435-.608,2.032-1.352,2.203-4.595,1.976-7.09,1.224-.53-.136-1.078-.311-1.591-.151-1.2.353-1.333,1.983-1.575,3.217Z"/>
          <path class="cls-8" d="M121.91,179.729c-9.896-4.59-19.537-11.217-23.985-21.144-4.879,12.534-6.536,26.289-5.039,39.655,1.039.329,2.121.545,3.189.626,3.052.219,6.68-.313,8.157-3.018.755-1.395.764-3.04.723-4.639,1.604,1.481,4.033,1.981,6.098,1.309,2.065-.672,3.726-2.499,4.176-4.623.241-1.234.374-2.864,1.575-3.217.513-.161,1.061.014,1.591.151,2.495.751,5.738.978,7.09-1.224.388-.596.56-1.307.608-2.032-1.42-.603-2.812-1.195-4.182-1.843Z"/>
        </g>
        <path d="M162.784,272.266c-.682,0-1.379-.024-2.094-.072-26.01-1.701-50.382-23.989-61.012-45.129-4.469-8.92-7.307-18.557-8.431-28.642-1.548-13.833.229-27.816,5.141-40.436.242-.619.831-1.033,1.495-1.049.735-.021,1.276.368,1.546.974,3.593,8.018,11.39,14.855,23.175,20.323,1.362.644,2.733,1.226,4.132,1.821,2.305.986,4.629,1.919,6.953,2.851,6.327,2.538,12.871,5.165,18.844,8.83,11.296,6.88,20.392,17.901,25.607,31.028,3.797,9.539,8.742,30.658.276,42.287-3.487,4.793-8.74,7.216-15.632,7.216ZM98.203,162.654c-3.757,11.194-5.029,23.353-3.68,35.402h0c1.083,9.698,3.808,18.959,8.102,27.53,10.208,20.297,33.506,41.697,58.282,43.318,6.738.427,11.721-1.503,14.843-5.793,7.068-9.708,3.468-28.72-.675-39.129-4.952-12.467-13.57-22.92-24.263-29.434-5.74-3.521-12.152-6.094-18.352-8.583-2.347-.941-4.695-1.884-7.017-2.877-1.436-.609-2.847-1.21-4.238-1.868-10.865-5.041-18.585-11.276-23.002-18.566Z"/>
      </g>
      <g>
        <g>
          <g>
            <path class="cls-5" d="M168.181,259.76c-.027-1.029-.025-2.06-.021-3.062.211-12.735,6.513-24.51,9.244-36.942,1.082-4.949-1.664-7.743-6.618-7.852-3.804-.085-5.888,2.18-8.395,4.792-7.018,7.337-12.853,15.817-17.178,24.98-2.35,4.93-4.27,10.161-4.62,15.57-.038.385-.044.798-.053,1.181,2.159-.914,4.687-.995,6.884-.144,1.716.671,3.356,2.112,3.429,3.964.704-1.659,2.344-2.898,4.13-3.084,1.814-.218,3.686.621,4.738,2.066.191.255.383.538.68.581.326.041.578-.209.803-.398,1.655-1.505,4.002-2.194,6.201-1.844.268.044.535.088.776.193Z"/>
            <path class="cls-9" d="M166.742,271.061c1.664-3.479,1.535-7.418,1.439-11.301-.241-.105-.509-.149-.776-.193-2.199-.35-4.546.339-6.201,1.844-.225.189-.477.439-.803.398-.297-.043-.489-.326-.68-.581-1.052-1.444-2.924-2.283-4.738-2.066-1.786.187-3.426,1.426-4.13,3.084-.073-1.851-1.713-3.293-3.429-3.964-2.197-.851-4.725-.77-6.884.144-.133,5.073,1.245,10.299,4.548,14.122,3.556,4.134,9.509,6.338,14.687,4.639,3.038-.992,5.593-3.253,6.966-6.127Z"/>
          </g>
          <path d="M156.151,279.399c-4.485,0-9.152-2.101-12.313-5.775-3.345-3.872-5.102-9.284-4.945-15.239.009-.464.02-.896.059-1.299.31-4.806,1.829-9.945,4.774-16.119,4.414-9.354,10.295-17.903,17.474-25.412,2.745-2.86,5.245-5.451,9.623-5.3,3.119.068,5.541,1.087,7.002,2.944.963,1.226,1.952,3.419,1.189,6.907-1.033,4.707-2.579,9.349-4.073,13.841-2.573,7.728-5.003,15.03-5.132,22.776-.003.966-.005,1.98.02,2.992v.003l-1.648.04,1.653.156c.099,3.974.203,8.08-1.603,11.858-1.578,3.303-4.473,5.847-7.941,6.982-1.326.435-2.724.644-4.138.644ZM170.586,213.55c-2.893,0-4.555,1.732-6.839,4.112-7.099,7.422-12.778,15.682-17.043,24.717-2.761,5.791-4.179,10.548-4.466,14.973-.035.376-.04.719-.047,1.041-.137,5.208,1.336,9.827,4.146,13.076,3.313,3.856,8.624,5.571,12.926,4.151,2.618-.856,4.801-2.775,5.992-5.27,1.465-3.064,1.377-6.604,1.283-10.352l1.644-.239-1.648.043c-.028-1.044-.025-2.09-.023-3.11.138-8.276,2.763-16.162,5.301-23.785,1.468-4.411,2.985-8.971,3.982-13.505.392-1.79.203-3.191-.561-4.162-1.051-1.336-3.017-1.654-4.483-1.688-.055,0-.11-.001-.164-.001Z"/>
        </g>
        <g>
          <path class="cls-2" d="M146.051,234.822l-3.623,14.438s18.172,10.112,27.162,5.759l3.54-14.355-27.078-5.841Z"/>
          <path d="M164.128,257.738c-9.716,0-21.875-6.69-22.501-7.038-.652-.362-.979-1.119-.798-1.843l3.623-14.437c.216-.861,1.08-1.39,1.947-1.21l27.079,5.842c.436.094.814.362,1.051.741.236.376.31.835.203,1.267l-3.541,14.353c-.118.478-.441.875-.883,1.089-1.813.877-3.931,1.237-6.178,1.237ZM144.34,248.414c5.416,2.807,17.372,7.793,23.846,5.41l2.937-11.906-23.861-5.147-2.922,11.643Z"/>
        </g>
        <g>
          <path class="cls-8" d="M152.35,205.077c-3.398,6.018-6.893,12.248-7.594,19.123-.422,4.135.319,9.894,3.265,13.111,5.658,6.179,19.366,7.798,25.922,2.358,3.181-2.64,4.456-6.88,5.489-10.882,4.539-17.596,7.498-35.6,8.83-53.723.246-3.34.286-7.114-2.047-9.516-8.436-8.685-14.38,4.43-17.444,10.018-5.412,9.871-10.886,19.708-16.421,29.511Z"/>
          <path d="M163.062,244.601c-6.137,0-12.569-2.147-16.257-6.174-3.424-3.741-4.127-10.092-3.688-14.394.739-7.269,4.489-13.908,7.798-19.766,5.512-9.763,11.034-19.685,16.412-29.493l.722-1.343c2.461-4.613,6.177-11.584,11.619-12.354,2.626-.366,5.227.746,7.731,3.323,2.697,2.777,2.799,6.825,2.508,10.786-1.336,18.188-4.323,36.361-8.877,54.012-1.119,4.336-2.506,8.815-6.032,11.742-2.987,2.477-7.381,3.66-11.934,3.66ZM180.643,164.306c-.173,0-.343.012-.515.036-3.782.534-7.155,6.86-9.172,10.641l-.741,1.377c-5.383,9.818-10.912,19.754-16.43,29.528h0c-3.303,5.85-6.719,11.898-7.39,18.478-.397,3.912.326,9.086,2.84,11.834,5.206,5.681,18.027,6.875,23.654,2.203,2.769-2.297,3.962-6.212,4.945-10.028,4.504-17.461,7.46-35.438,8.783-53.43.217-2.976.294-6.311-1.586-8.247-1.558-1.605-3-2.391-4.389-2.391ZM152.35,205.077h.027-.027Z"/>
        </g>
      </g>
      <g>
        <path class="cls-7" d="M280.813,235.191s-24.337,23.667-51.946,25.285v-94.472s47.841,49.83,47.841,49.83l4.105,19.357Z"/>
        <path d="M228.866,262.123c-.42,0-.824-.158-1.131-.448-.33-.311-.518-.746-.518-1.199v-94.472c0-.674.409-1.279,1.033-1.53.625-.255,1.338-.098,1.805.388l47.842,49.83c.213.223.361.499.424.802l4.104,19.355c.118.553-.058,1.127-.463,1.521-1.012.985-25.098,24.115-52.999,25.75-.032.003-.064.003-.097.003ZM230.515,170.101v88.596c23.502-2.195,44.552-20.474,48.491-24.075l-3.813-17.984-44.678-46.536Z"/>
      </g>
      <g>
        <g>
          <path class="cls-9" d="M188.172,375.779c3.435-.973,7.535-.049,9.116,3.074.277.542.428,1.131.543,1.78-4.16,6.056-11.946,7.188-17.516,3.953-5.547-3.221-23.277-9.553-20.191-19.657.449-1.456,1.126-2.813,1.915-4.141,1.147-.241,2.272-.289,3.3-.024,1.685.505,3.262,1.809,4.032,3.482.371.807.701,1.836,1.562,1.955.395.038.813-.117,1.235-.227,2.856-.712,5.464,1.478,5.479,4.582,3.667-1.243,7.366.589,8.452,4.149.155.426.255.942.605,1.158.396.245.963.058,1.469-.083Z"/>
          <path class="cls-5" d="M200.685,372.573c-.333,3.302-1.385,5.995-2.854,8.06-.115-.649-.266-1.237-.543-1.78-1.581-3.123-5.681-4.046-9.116-3.074-.506.141-1.072.328-1.469.083-.35-.216-.45-.732-.605-1.158-1.086-3.56-4.785-5.392-8.452-4.149-.014-3.104-2.623-5.294-5.479-4.582-.423.11-.84.265-1.235.227-.861-.119-1.191-1.148-1.562-1.955-.77-1.673-2.347-2.977-4.032-3.482-1.029-.264-2.153-.216-3.3.024.489-.895,1.047-1.747,1.582-2.613,9.788-15.373,20.155-30.223,29.678-45.635,2.547-4.122,6.105-11.705,10.494-13.492,3.726-1.495,12.713,5.957,14.615,9.03-5.855,14.584-17.806,28.662-23.66,43.245-.547,1.354-1.107,2.783-1.069,4.127.076,1.285.671,2.354,1.238,3.365,2.62,4.673,6.399,7.627,5.767,13.758Z"/>
        </g>
        <path d="M186.893,388c-2.532,0-5.088-.641-7.406-1.988-.922-.534-2.191-1.157-3.644-1.873-7.579-3.73-20.265-9.974-17.296-19.691.44-1.428,1.093-2.85,2.058-4.476.376-.687.79-1.35,1.206-2.013l.408-.652c4.249-6.674,8.661-13.331,12.926-19.768,5.584-8.426,11.357-17.136,16.752-25.868.474-.767.983-1.658,1.53-2.608,2.522-4.403,5.662-9.883,9.745-11.544,4.974-2.004,14.675,6.521,16.638,9.69l.439.708-.311.773c-2.98,7.425-7.544,14.772-11.958,21.88-4.34,6.985-8.827,14.208-11.701,21.368-.437,1.081-.981,2.426-.951,3.464.052.867.527,1.712,1.029,2.606.648,1.157,1.394,2.235,2.116,3.276,2.153,3.11,4.382,6.327,3.853,11.458-.345,3.416-1.406,6.394-3.152,8.844-2.844,4.143-7.52,6.413-12.28,6.413ZM204.984,300.479c-.219,0-.412.032-.578.097-3.021,1.232-5.968,6.373-8.119,10.127-.565.985-1.093,1.905-1.586,2.702-5.422,8.775-11.21,17.509-16.807,25.956-4.259,6.424-8.661,13.068-12.882,19.699l-.409.655c-.385.612-.77,1.224-1.118,1.862l-.031.054c-.836,1.409-1.394,2.611-1.756,3.784-2.148,7.033,8.962,12.499,15.601,15.768,1.534.754,2.87,1.414,3.843,1.98,4.552,2.638,11.528,2.072,15.329-3.464,1.426-2.002,2.286-4.446,2.573-7.291.404-3.92-1.224-6.271-3.284-9.244-.765-1.106-1.555-2.249-2.281-3.539-.6-1.071-1.346-2.402-1.446-4.076-.052-1.782.635-3.478,1.187-4.843,2.979-7.42,7.543-14.767,11.957-21.875,4.174-6.716,8.483-13.656,11.363-20.544-2.351-3.008-8.848-7.806-11.556-7.806Z"/>
      </g>
      <g>
        <g>
          <path class="cls-9" d="M219.85,371.407c.849-.808,1.781-1.44,2.795-1.72,1.699-.492,3.726-.176,5.261.843.74.492,1.562,1.194,2.329.843.384-.176.658-.527.959-.843,2.055-2.107,5.425-1.615,7.069,1.018,2.466-2.984,6.576-3.406,9.371-.948.356.316.712.667,1.123.667.466,0,.849-.421,1.206-.808,2.411-2.633,6.384-4.003,9.371-2.177.521.316.959.737,1.397,1.229-.356,7.338-6.384,12.394-12.823,12.57-6.411.176-24.824,4.108-27.509-6.144-.384-1.475-.521-2.984-.548-4.529Z"/>
          <path class="cls-5" d="M227.906,370.53c-1.534-1.018-3.562-1.334-5.261-.843-1.014.281-1.945.913-2.795,1.72-.055-.983-.027-2.001-.027-3.02.247-18.223,1.26-36.305,1.26-54.422,0-4.88-.959-13.202,1.836-16.994,2.384-3.23,13.946-1.65,17.18,0,2.685,15.484-.082,33.742,2.603,49.226.247,1.44.521,2.914,1.26,4.038.74,1.088,1.808,1.685,2.822,2.247,4.685,2.563,9.453,3.125,12.138,8.672,1.452,2.984,1.973,5.828,1.808,8.356-.438-.492-.877-.913-1.397-1.229-2.987-1.826-6.959-.456-9.371,2.177-.356.386-.74.808-1.206.808-.411,0-.767-.351-1.123-.667-2.795-2.458-6.905-2.036-9.371.948-1.644-2.633-5.014-3.125-7.069-1.018-.301.316-.575.667-.959.843-.767.351-1.589-.351-2.329-.843Z"/>
        </g>
        <path d="M234.841,384.611c-7.063,0-14.262-1.481-16.039-8.257-.374-1.446-.565-2.997-.6-4.886-.042-.759-.038-1.535-.031-2.318l.003-.762c.107-7.916.361-15.899.606-23.622.322-10.098.653-20.541.653-30.8,0-.912-.034-1.945-.071-3.048-.166-5.074-.374-11.391,2.229-14.925,3.235-4.385,15.938-2.182,19.257-.488l.734.373.141.813c1.366,7.884,1.346,16.532,1.324,24.894-.02,8.227-.04,16.731,1.279,24.333.193,1.13.435,2.536,1.012,3.411.51.749,1.354,1.218,2.247,1.715,1.148.628,2.313,1.132,3.447,1.626,3.496,1.521,7.112,3.097,9.373,7.768,1.503,3.086,2.165,6.177,1.97,9.183-.372,7.691-6.708,13.9-14.423,14.109-1.06.03-2.459.166-4.063.322-2.636.255-5.827.561-9.048.561ZM229.493,296.744c-2.5,0-4.615.349-5.247,1.208-1.924,2.608-1.728,8.533-1.586,12.859.038,1.14.072,2.211.072,3.156,0,10.312-.333,20.78-.656,30.907-.244,7.704-.498,15.674-.604,23.536l-.004.765c-.005.725-.011,1.441.028,2.144l.003.062c.028,1.634.185,2.952.494,4.143,1.874,7.143,14.21,5.96,21.58,5.246,1.693-.164,3.169-.306,4.289-.335,5.261-.142,10.897-4.296,11.222-11.002.16-2.453-.394-4.986-1.645-7.554-1.731-3.577-4.375-4.728-7.723-6.185-1.206-.526-2.454-1.068-3.723-1.763-1.088-.604-2.431-1.35-3.394-2.769-.97-1.47-1.276-3.252-1.521-4.682-1.367-7.884-1.346-16.535-1.326-24.902.019-7.908.039-16.079-1.132-23.453-2.153-.813-5.949-1.379-9.126-1.379Z"/>
      </g>
      <g>
        <g>
          <path class="cls-8" d="M175.62,213.714c2.534,8.165,6.542,16.606,13.816,20.267,3.933,1.98,8.389,2.323,12.729,2.58,6.505.386,13.017.65,19.53.792,5.387.117,10.969.11,15.889-2.24,7.13-3.406,11.608-11.146,14.347-18.973,3.265-9.327,4.672-19.325,4.817-29.285.147-10.055-1.618-21.369-9.253-27.228-2.512-1.928-5.466-3.084-8.434-4.009-17.486-5.447-40.283-3.838-55.72,7.443-14.516,10.608-12.557,35.069-7.721,50.652Z"/>
          <path d="M224.52,239.038c-.949,0-1.904-.016-2.863-.038-6.53-.142-13.12-.408-19.591-.794-4.9-.29-9.288-.698-13.373-2.753-6.424-3.233-11.215-10.183-14.649-21.25-5.414-17.445-6.483-41.653,8.324-52.472,16.901-12.349,40.901-12.759,57.181-7.687,2.648.825,6.058,2.058,8.948,4.275,6.769,5.194,10.099,14.803,9.899,28.56-.16,10.921-1.811,20.949-4.911,29.806-3.53,10.087-8.642,16.784-15.192,19.913-4.273,2.042-8.941,2.439-13.774,2.439ZM218.51,154.271c-11.779,0-24.295,2.886-34.196,10.122-14.333,10.475-11.219,35.623-7.119,48.832h0c3.153,10.166,7.399,16.472,12.981,19.281,3.522,1.774,7.558,2.141,12.086,2.41,6.429.381,12.979.647,19.468.789,5.636.118,10.676.054,15.142-2.08,7.136-3.411,11.281-11.686,13.501-18.03,2.983-8.521,4.572-18.199,4.725-28.764.185-12.659-2.712-21.372-8.608-25.896-2.463-1.889-5.387-2.953-7.921-3.743-5.89-1.834-12.837-2.921-20.06-2.921Z"/>
        </g>
        <g>
          <g>
            <path class="cls-2" d="M214.406,222.817c-9.023,0-18.045,0-27.068,0h-7.965l1.709,16.236h66.648l1.709-16.236c-11.678,0-23.355,0-35.033,0Z"/>
            <path d="M247.73,240.702h-66.648c-.844,0-1.551-.636-1.64-1.476l-1.709-16.237c-.05-.464.102-.928.415-1.275s.758-.545,1.225-.545h70.067c.467,0,.912.199,1.225.545s.464.81.415,1.275l-1.709,16.237c-.089.84-.796,1.476-1.64,1.476ZM182.566,237.406h63.68l1.362-12.942h-66.404l1.362,12.942Z"/>
          </g>
          <g>
            <path class="cls-8" d="M247.003,239.053h-65.042c-5.659,12.247-12.166,24.377-17.067,36.935-4.016,10.291-9.513,19.927-13.555,30.205-1.44,3.661-5.391,11.264-4.044,15.12,1.457,4.172,7.964,5.61,11.565,4.04,2.106,4.398,8.41,6.099,12.442,3.357,2.703,4.061,8.845,5.311,12.921,2.63,3.45,4.564,10.642,5.713,15.343,2.453,4.275,4.228,11.925,4.349,16.332.258-1.003.931,7.78,3.076,8.433,3.09,3.764.077,7.425-1.006,9.243-4.646,4.004,3.771,11.322,3.015,14.472-1.494,1.817,2.215,4.945,3.264,7.73,2.59s5.089-3.034,5.694-5.835c2.068,1.289,4.424,2.375,6.849,2.144s4.817-2.215,4.724-4.649c1.449,1.645,3.869,2.363,5.981,1.774,7.946-2.218-.34-13.847-2.24-18.387-3.275-7.822-6.515-15.659-9.777-23.486-3.264-7.832-6.549-15.655-9.911-23.446-1.031-2.389-8.308-22.654-10.091-22.654Z"/>
            <path d="M224.703,338.795c-.134,0-.27-.003-.405-.005-.068,0-5.705-.945-8.518-2.525-4.768,3.37-11.808,3.201-16.393-.432-4.941,2.646-11.619,1.605-15.535-2.402-4.304,2.004-9.778.904-12.975-2.598-2.082.945-4.534,1.119-6.945.47-2.439-.657-4.495-2.074-5.819-3.971-2.355.577-5.21.314-7.646-.757-2.344-1.022-4.022-2.699-4.728-4.717-1.316-3.773,1.245-9.687,3.114-14.007.368-.848.7-1.615.953-2.259,2.026-5.149,4.438-10.197,6.773-15.078,2.348-4.913,4.776-9.993,6.78-15.123,3.297-8.447,7.359-16.795,11.288-24.867,1.974-4.055,3.943-8.101,5.82-12.161.27-.582.853-.955,1.496-.955h65.042c1.724,0,2.882.861,10.308,20.313.624,1.634,1.088,2.852,1.296,3.335,3.365,7.795,6.652,15.625,9.919,23.463l3.871,9.306c1.966,4.728,3.93,9.456,5.906,14.179.346.826.916,1.897,1.556,3.105,2.408,4.556,5.406,10.224,3.696,14.2-.702,1.631-2.077,2.742-4.088,3.306-1.815.504-3.788.268-5.459-.577-1.099,1.991-3.356,3.298-5.532,3.507-2.29.196-4.403-.521-6.113-1.385-1.21,2.466-3.511,4.385-6.2,5.034-2.775.679-5.785-.043-8.009-1.792-1.768,1.715-4.179,2.818-6.856,3.094-2.655.271-5.223-.301-7.295-1.597-1.995,2.56-5.167,3.896-9.302,3.896ZM217.438,333.463c1.501.722,6.044,1.919,7.014,2.037,3.797.016,6.37-1.181,7.648-3.741.232-.464.672-.794,1.186-.886.508-.083,1.038.064,1.418.424,1.56,1.468,3.848,2.171,6.258,1.916,2.416-.25,4.505-1.398,5.733-3.156.295-.424.771-.684,1.288-.703.49.013,1.01.204,1.338.601,1.411,1.72,3.904,2.552,6.068,2.034,2.163-.523,4-2.407,4.469-4.581.113-.523.475-.961.969-1.17.496-.204,1.061-.164,1.515.121,2.333,1.452,4.173,2.053,5.822,1.9,1.571-.15,3.29-1.444,3.232-2.946-.027-.695.388-1.334,1.036-1.594.645-.258,1.387-.081,1.849.443,1.029,1.173,2.796,1.693,4.3,1.275,1.356-.378,1.76-.998,1.947-1.43,1.087-2.528-1.723-7.841-3.582-11.356-.694-1.312-1.307-2.477-1.682-3.376-1.978-4.725-3.943-9.456-5.909-14.187l-3.869-9.303c-3.262-7.822-6.543-15.641-9.903-23.426-.216-.499-.7-1.766-1.35-3.464-1.539-4.03-6.085-15.937-7.776-18.193h-63.442c-1.751,3.759-3.576,7.508-5.403,11.265-3.9,8.013-7.932,16.299-11.18,24.62-2.047,5.249-4.503,10.382-6.877,15.349-2.309,4.827-4.696,9.821-6.678,14.863-.266.671-.612,1.476-.996,2.361-1.466,3.386-3.92,9.054-3.028,11.611.4,1.143,1.442,2.131,2.936,2.783,2.077.912,4.717,1.03,6.415.29.821-.354,1.764,0,2.145.8.797,1.661,2.416,2.93,4.444,3.475,2.029.555,4.064.268,5.585-.77.364-.247.81-.343,1.244-.255.432.083.812.338,1.056.703,2.18,3.282,7.355,4.331,10.642,2.168.723-.483,1.699-.311,2.22.381,2.899,3.837,9.138,4.838,13.088,2.093.653-.445,1.535-.373,2.1.182,3.623,3.582,10.319,3.69,14.05.225.67-.623,1.711-.58,2.329.086.149.158.259.341.333.531ZM247.003,240.702h.027-.027Z"/>
          </g>
          <g>
            <g>
              <path class="cls-13" d="M283.331,294.518c1.209,2.5,2.391,5.028,3.462,7.556,0,0-7.501,14.343-24.757,12.942-15.91-1.264-21.543-2.693-22.339-2.913h-.137c-.357.412-6.375,7.144-21.35,8.491h-4.534c-15.442-1.401-21.378-8.518-21.378-8.518,0,0-5.193,1.566-22.449,2.94-17.256,1.401-26.873-13.464-26.873-13.464,1.182-2.555,2.336-5.083,3.49-7.611l1.236.577s12.64,13.821,27.78,12.447c15.168-1.401,19.702-2.968,19.702-2.968,0,0,5.221,7.144,18.767,8.518h3.984c13.547-1.374,18.767-8.518,18.767-8.518,0,0,4.534,1.566,19.674,2.968,15.168,1.374,26.956-12.447,26.956-12.447Z"/>
              <path class="cls-2" d="M247.72,238.793c12.777,17.503,26.104,36.188,35.611,55.725,0,0-11.788,13.821-26.956,12.447-15.14-1.401-19.674-2.968-19.674-2.968,0,0-5.221,7.144-18.767,8.518h-3.984c-13.547-1.374-18.767-8.518-18.767-8.518,0,0-4.534,1.566-19.702,2.968-15.14,1.374-27.78-12.447-27.78-12.447l-1.236-.577c9.178-20.086,18.41-39.073,35.199-54.323l66.056-.824Z"/>
            </g>
            <path d="M213.674,322.241c-13.197-1.191-19.805-6.349-21.896-8.335-2.216.507-8.428,1.691-21.798,2.753-18.048,1.505-27.974-13.573-28.39-14.211-.307-.475-.349-1.076-.111-1.589,1.181-2.552,2.333-5.077,3.486-7.605,9.631-21.075,18.957-39.749,35.591-54.859.298-.271.684-.421,1.088-.427l66.057-.824c.513-.035,1.037.244,1.352.676,13.473,18.456,26.347,36.628,35.761,55.975,0,.003.001.003.001.003,1.446,2.989,2.557,5.415,3.496,7.632.193.456.172.971-.056,1.409-.081.15-8.216,15.303-26.352,13.819-13.379-1.063-19.577-2.243-21.794-2.756-2.089,1.996-8.663,7.157-21.751,8.332l-4.682.005ZM192.294,310.429c.482,0,.951.209,1.269.59.05.062,5.796,6.62,20.259,7.932l4.386-.005c14.196-1.283,19.87-7.653,20.105-7.921.409-.475,1.218-.679,1.821-.51.578.158,6.103,1.594,22.03,2.86,14.069,1.154,21.122-8.705,22.787-11.41-.849-1.964-1.846-4.124-3.105-6.725h0c-9.18-18.867-21.759-36.692-34.959-54.789l-64.577.805c-15.887,14.619-24.962,32.828-34.349,53.367-1.024,2.246-2.047,4.487-3.09,6.749,2.151,2.847,10.933,13.079,24.841,12.003,16.746-1.334,22.059-2.863,22.11-2.879.156-.046.313-.067.47-.067Z"/>
          </g>
          <path class="cls-13" d="M171.05,289.468l1.721,3.488c.117.237.343.401.604.439l3.849.559c.658.096.921.905.445,1.369l-2.785,2.715c-.189.184-.276.45-.231.711l.657,3.833c.112.656-.576,1.156-1.165.846l-3.443-1.81c-.234-.123-.513-.123-.747,0l-3.443,1.81c-.589.31-1.277-.19-1.165-.846l.657-3.833c.045-.26-.042-.526-.231-.711l-2.785-2.715c-.476-.464-.214-1.274.445-1.369l3.849-.559c.261-.038.488-.202.604-.439l1.721-3.488c.294-.597,1.145-.597,1.44,0Z"/>
          <path class="cls-13" d="M215.602,294.972l1.721,3.488c.117.237.343.401.604.439l3.849.559c.658.096.921.905.445,1.369l-2.785,2.715c-.189.184-.276.45-.231.711l.657,3.833c.112.656-.576,1.156-1.165.846l-3.443-1.81c-.234-.123-.513-.123-.747,0l-3.443,1.81c-.589.31-1.277-.19-1.165-.846l.657-3.833c.045-.26-.042-.526-.231-.711l-2.785-2.715c-.476-.464-.214-1.274.445-1.369l3.849-.559c.261-.038.488-.202.604-.439l1.721-3.488c.294-.597,1.145-.597,1.44,0Z"/>
          <path class="cls-13" d="M262.374,287.721l1.721,3.488c.117.237.343.401.604.439l3.849.559c.658.096.921.905.445,1.369l-2.785,2.715c-.189.184-.276.45-.231.711l.657,3.833c.112.656-.576,1.156-1.165.846l-3.443-1.81c-.234-.123-.513-.123-.747,0l-3.443,1.81c-.589.31-1.277-.19-1.165-.846l.657-3.833c.045-.26-.042-.526-.231-.711l-2.785-2.715c-.476-.464-.214-1.274.445-1.369l3.849-.559c.261-.038.488-.202.604-.439l1.721-3.488c.294-.597,1.145-.597,1.44,0Z"/>
          <circle class="cls-13" cx="193.949" cy="301.775" r="3.741"/>
          <circle class="cls-13" cx="237.11" cy="301.775" r="3.741"/>
        </g>
        <g>
          <g>
            <path class="cls-2" d="M280.665,217.141c-1.814-1.951-3.847-3.737-5.908-5.386-6.237-4.946-13.189-8.93-19.097-14.288-8.491-7.694-14.426-18.163-16.816-29.374,3.764-1.951,8.353-2.61,11.98-1.319,6.018,2.171,10.551,7.227,14.316,12.42,8.051,11.183,13.684,24.345,15.525,37.947Z"/>
            <path class="cls-13" d="M238.844,168.093c2.391,11.211,8.326,21.68,16.816,29.374,5.908,5.358,12.86,9.342,19.097,14.288,2.061,1.649,4.094,3.435,5.908,5.386.824,5.99.907,12.035.137,18.053-1.923-8.271-7.062-15.772-14.069-20.553-3.023-2.061-6.347-3.655-9.48-5.551-12.667-7.666-21.762-20.966-24.345-35.529,1.236-2.253,3.407-4.149,5.935-5.468Z"/>
          </g>
          <path d="M280.801,236.84c-.762,0-1.43-.523-1.605-1.275-1.831-7.876-6.714-15.005-13.393-19.562-1.774-1.21-3.722-2.29-5.606-3.335-1.276-.707-2.552-1.414-3.797-2.168-13.059-7.903-22.448-21.604-25.116-36.651-.066-.37-.003-.753.178-1.081,1.331-2.424,3.682-4.605,6.619-6.136l.003-.003c4.401-2.28,9.368-2.803,13.292-1.409,6.806,2.454,11.643,8.239,15.098,13.005,8.53,11.848,14,25.228,15.825,38.696.86,6.25.906,12.47.138,18.48-.102.792-.755,1.398-1.552,1.438h-.085ZM234.642,173.87c2.644,13.89,11.382,26.497,23.466,33.811,1.21.733,2.45,1.418,3.688,2.105,1.949,1.08,3.966,2.198,5.866,3.494,5.123,3.495,9.284,8.365,12.02,13.928.021-3.25-.196-6.539-.649-9.84-1.752-12.937-7.018-25.803-15.231-37.21-3.174-4.378-7.583-9.684-13.538-11.831-3.027-1.077-7.115-.609-10.661,1.232-2.157,1.126-3.898,2.643-4.962,4.312Z"/>
        </g>
        <g>
          <g>
            <path class="cls-13" d="M139.162,230.66c-.192,2.72-.137,5.386.192,7.969,9.205,3.764,22.367,7.254,32.231,8.326,2.5.247,35.721.879,35.721.22-.055-6.595-.769-19.097-.714-25.719.055-6.292,1.044-13.272.247-19.537-.522-3.957-.879-7.172-.495-11.211.247-2.61,1.236-7.859-1.291-9.782-.824-.632-1.951-.742-3.023-.797-.137,0-.275-.027-.412,0-3.05,19.647-4.699,39.54-3.764,59.324-12.365.055-24.757-.742-37.04-2.418-7.501-1.017-15.278-2.473-21.652-6.375Z"/>
            <path class="cls-2" d="M139.162,230.66c6.375,3.902,14.151,5.358,21.652,6.375,12.283,1.676,24.675,2.473,37.04,2.418-.934-19.784.714-39.678,3.764-59.324-2.583-.11-8.298.44-10.057-.907-1.456-1.127-.852-3.984-.852-5.66-3.105-5.633-9.095-8.958-15.14-6.787-6.045,2.171-10.579,7.227-14.316,12.42-10.057,13.986-21.02,33.66-22.092,51.466Z"/>
          </g>
          <path d="M196.478,249.119c-10.739,0-24.844-.504-25.055-.526-9.667-1.049-23.105-4.519-32.693-8.439-.55-.225-.936-.73-1.012-1.318-.337-2.632-.404-5.42-.201-8.286,1.213-20.102,14.552-41.408,22.397-52.319,3.431-4.766,8.246-10.55,15.099-13.009,6.376-2.29,13.43.809,17.14,7.543.134.243.205.518.205.796,0,.389-.028.837-.06,1.312-.063.942-.18,2.694.272,3.044.86.657,4.744.598,6.615.564.947-.013,1.806-.025,2.47-.001.14-.007.276-.005.35-.003,1.386.071,2.847.217,4.051,1.139,2.96,2.251,2.408,7.04,2.043,10.209l-.114,1.038c-.366,3.845-.028,6.918.488,10.838.547,4.3.287,8.856.036,13.264-.126,2.208-.252,4.395-.27,6.502-.03,3.644.176,9.107.376,14.394.16,4.245.314,8.356.339,11.3.004.47-.205.939-.553,1.256-.589.534-5.69.703-11.925.703ZM140.881,237.465c9.262,3.665,21.802,6.864,30.883,7.849,2.371.233,27.79.7,33.874.419-.052-2.737-.182-6.196-.317-9.749-.201-5.321-.408-10.825-.378-14.544.019-2.16.146-4.401.275-6.663.243-4.259.494-8.662-.013-12.652-.545-4.131-.9-7.383-.5-11.575l.119-1.103c.246-2.129.703-6.093-.767-7.21-.458-.35-1.328-.423-2.109-.463-.131.03-.263.005-.397.001-.619-.028-1.425-.013-2.312.001-3.91.068-7.032.011-8.678-1.246-1.849-1.43-1.677-4.001-1.551-5.878.016-.235.031-.462.042-.675-2.534-4.289-7.426-7.626-12.923-5.653-5.999,2.153-10.385,7.454-13.536,11.831-7.637,10.623-20.623,31.324-21.782,50.603-.001.005-.001.011-.001.019-.164,2.302-.14,4.548.074,6.687ZM139.162,230.66h.027-.027Z"/>
        </g>
        <g>
          <path class="cls-8" d="M180.318,166.004c-.15,9.754,8.316,19.97,16.074,24.715,3.162,1.934,3.744,2.365,6.944.87,4.012-1.874,7.957-5.909,10.955-8.733,3.232,2.606,6.307,9.364,10.423,10.564,5.399,1.575,13.5-7.501,16.641-11.044,4.599-5.186,7.788-11.708,5.466-18.686-4.748-14.267-20.673-19.918-34.533-19.337-9.873.413-22.885,4.456-28.969,12.753-2.051,2.797-2.954,5.825-3.001,8.898Z"/>
          <path d="M226.045,195.252c-.61,0-1.209-.079-1.792-.25-3.052-.89-5.332-3.915-7.536-6.841-.84-1.114-1.648-2.186-2.424-3.031-2.893,2.761-6.49,6.192-10.257,7.951-3.761,1.756-4.99,1.195-8.309-.837-8.694-5.318-17.215-15.97-17.056-26.266.055-3.606,1.173-6.919,3.319-9.848,6.354-8.666,19.762-12.986,30.231-13.425,14.375-.608,31.182,5.49,36.165,20.465,2.179,6.546.174,13.566-5.797,20.3-4.97,5.606-11.191,11.783-16.543,11.783ZM214.291,181.206c.365,0,.731.121,1.034.365,1.407,1.134,2.678,2.822,4.024,4.606,1.792,2.38,3.824,5.077,5.826,5.659,2.96.88,7.976-2.693,14.946-10.554,5.218-5.886,6.946-11.63,5.135-17.072-4.442-13.344-19.738-18.794-32.899-18.211-9.68.405-22.002,4.297-27.709,12.081-1.735,2.365-2.636,5.039-2.681,7.948h0c-.14,8.965,7.771,18.687,15.284,23.284q3.058,1.873,5.387.782c3.283-1.535,6.67-4.767,9.39-7.363l1.131-1.076c.317-.298.723-.449,1.131-.449ZM180.319,166.003h.027-.027Z"/>
        </g>
        <g>
          <path class="cls-2" d="M230.858,189.539c-4.154-3.102-11.256-5.095-16.909-5.594-5.655.499-12.755,2.492-16.911,5.594-.872.651-1.735,1.427-1.837,2.377-.091.84.434,1.636.943,2.375.614.893,1.229,1.786,1.843,2.678.519.754,1.218,1.603,2.293,1.652.593.027,1.153-.208,1.668-.445,2.957-1.362,5.689-3.035,8.105-4.962-4.047,6.973-8.17,14.202-8.359,21.885,3.412.071,6.819.316,10.193.734,1.567-6.611,1.142-13.271,2.062-19.959.919,6.688.494,13.348,2.062,19.959,3.374-.418,6.781-.664,10.193-.734-.189-7.683-4.312-14.912-8.359-21.885,2.414,1.927,5.147,3.6,8.105,4.962.515.237,1.073.472,1.668.445,1.076-.049,1.774-.898,2.293-1.652.614-.892,1.229-1.785,1.843-2.678.509-.739,1.035-1.535.943-2.375-.102-.95-.967-1.726-1.839-2.377Z"/>
          <path d="M211.888,217.482c-.067,0-.136-.003-.204-.011-3.317-.413-6.69-.655-10.024-.725-.439-.008-.855-.191-1.158-.507-.303-.319-.467-.743-.456-1.181.145-5.901,2.471-11.512,5.223-16.708-.856.467-1.733.908-2.632,1.322-.674.311-1.465.648-2.431.596-2.014-.094-3.149-1.743-3.577-2.364l-1.843-2.678c-.551-.802-1.385-2.013-1.225-3.488.172-1.601,1.422-2.722,2.492-3.521,4.878-3.641,12.612-5.462,17.752-5.914.097-.008.193-.008.29,0,5.14.452,12.873,2.273,17.751,5.914h0c1.069.798,2.32,1.92,2.492,3.523.162,1.475-.674,2.685-1.225,3.487l-1.841,2.675c-.429.623-1.564,2.271-3.577,2.364-.959.034-1.76-.283-2.434-.594-.899-.413-1.776-.855-2.631-1.322,2.752,5.198,5.078,10.809,5.223,16.708.011.437-.153.861-.456,1.181-.303.317-.719.499-1.158.507-3.334.07-6.707.311-10.025.725-.832.105-1.613-.437-1.807-1.256-.174-.738-.326-1.479-.456-2.216-.131.738-.283,1.479-.458,2.216-.178.751-.849,1.267-1.603,1.267ZM213.949,194.226c.824,0,1.521.608,1.633,1.425.38,2.756.535,5.517.687,8.187.199,3.513.388,6.855,1.037,10.186,2.372-.258,4.764-.432,7.144-.522-.699-6.824-4.579-13.509-8.031-19.46-.398-.687-.251-1.559.35-2.077.601-.517,1.484-.537,2.105-.039,2.312,1.845,4.924,3.444,7.764,4.752.25.114.67.368.904.295.335-.015.738-.543,1.01-.939l1.841-2.677c.208-.302.692-1.002.664-1.26-.011-.094-.125-.445-1.186-1.237h0c-4.008-2.993-10.854-4.791-15.923-5.259-5.069.468-11.916,2.266-15.924,5.259-1.061.792-1.175,1.143-1.185,1.232-.028.26.437.939.661,1.265l1.843,2.677c.272.396.675.924,1.012.939.229.085.652-.18.902-.295,2.835-1.305,5.447-2.905,7.767-4.754.619-.494,1.501-.479,2.105.042.6.518.746,1.389.349,2.076-3.452,5.95-7.332,12.636-8.031,19.46,2.38.09,4.772.264,7.143.522.649-3.333.839-6.675,1.038-10.187.152-2.67.307-5.431.687-8.186.111-.817.809-1.425,1.633-1.425Z"/>
        </g>
      </g>
      <g>
        <g>
          <g>
            <path class="cls-8" d="M287.935,136.108c-2.625.817-6.154,7.467-7.263,9.071-12.95,18.638-42.059,33.951-64.722,34.126h-.029c-22.663-.175-51.743-15.488-64.722-34.126-1.167-1.692-4.9-8.75-7.525-9.129,3.85.088,31.413.788,41.797,3.529,11.171,2.946,27.155,14.146,38.705,14.467,11.579-.321,27.534-11.521,38.705-14.467,9.713-2.567,22.021-3.325,25.055-3.471Z"/>
            <path class="cls-9" d="M283.764,32.739c.263,2.742.408,5.513.408,8.284-1.138.554-2.421.817-3.675.671-2.392-.292-4.55-1.896-5.483-4.113-2.246,1.867-5.6,2.333-8.284,1.108-2.683-1.196-4.55-4.025-4.638-6.942-2.713.583-6.038.525-7.671-1.721-.963-1.313-1.021-2.917-.875-4.608.408-.467.788-.963,1.196-1.429,4.638-5.6,9.654-11.054,14.029-16.888,6.183-8.254,9.859.292,11.609,6.971,1.604,6.125,2.771,12.367,3.383,18.667Z"/>
            <path class="cls-9" d="M178.354,25.447c.146,1.663.088,3.267-.875,4.579-1.663,2.246-4.988,2.304-7.7,1.721-.088,2.917-1.954,5.746-4.638,6.942-2.654,1.225-6.008.758-8.284-1.108-.904,2.217-3.092,3.821-5.454,4.113-1.283.146-2.567-.117-3.704-.671,0-2.771.146-5.542.408-8.284.613-6.3,1.779-12.542,3.383-18.667,1.75-6.679,5.425-15.225,11.609-6.971,4.375,5.833,9.392,11.288,14.029,16.888.408.496.817.963,1.225,1.458Z"/>
            <path class="cls-5" d="M178.354,25.447c6.358,7.642,12.746,15.313,19.105,22.955,6.796-1.079,11.609-1.692,18.463-1.721h.029c6.883.029,11.667.642,18.463,1.721,6.388-7.671,12.775-15.313,19.134-22.984-.146,1.692-.088,3.296.875,4.608,1.633,2.246,4.958,2.304,7.671,1.721.088,2.917,1.954,5.746,4.638,6.942,2.683,1.225,6.038.758,8.284-1.108.933,2.217,3.092,3.821,5.483,4.113,1.254.146,2.538-.117,3.675-.671.117,11.784-2.217,23.626-8.721,33.572,3.675,6.767,6.504,13.913,8.925,21.205,1.225,3.733,2.363,7.525,3.442,11.288,1.283,4.608,1.896,3.879,6.154,5.396.788.263,1.604.613,1.983,1.342.233.35.292.788.292,1.196.029,2.188-1.779,4.113-3.85,4.346,1.313.583,2.946.758,4.054,1.692,1.108.963,1.488,2.683.817,3.996-1.108,2.246-3.792,1.488-5.863,1.488.554.379,1.138.788,1.575,1.254,1.429,1.488,1.75,3.879.817,5.717-.963,1.808-3.121,2.888-5.163,2.538-.175-.029-.379-.029-.583.029-.058,0-.088,0-.117.029-3.033.146-15.342.904-25.055,3.471-11.171,2.946-27.126,14.146-38.705,14.467-11.55-.321-27.534-11.521-38.705-14.467-10.384-2.742-37.947-3.442-41.797-3.529-.146-.029-.292-.029-.438,0-2.013.35-4.2-.729-5.163-2.538-.933-1.838-.613-4.229.817-5.717.467-.467,1.021-.875,1.575-1.254-2.071,0-4.725.758-5.863-1.488-.642-1.313-.292-3.033.817-3.996,1.108-.933,2.742-1.108,4.083-1.692-2.1-.233-3.908-2.158-3.879-4.346,0-.408.088-.846.292-1.196.379-.729,1.196-1.079,1.983-1.342,4.288-1.517,4.871-.788,6.183-5.396,1.05-3.763,2.188-7.554,3.413-11.288,2.421-7.292,5.25-14.438,8.925-21.205-6.504-9.946-8.838-21.788-8.721-33.572,1.138.554,2.421.817,3.704.671,2.363-.292,4.55-1.896,5.454-4.113,2.275,1.867,5.629,2.333,8.284,1.108,2.683-1.196,4.55-4.025,4.638-6.942,2.713.583,6.038.525,7.7-1.721.963-1.313,1.021-2.917.875-4.579Z"/>
          </g>
          <g>
            <path d="M289.427,137.82c-.36,0-.72-.03-1.08-.091-.926-.16-1.548-1.04-1.39-1.967.158-.928,1.041-1.548,1.967-1.39,1.28.215,2.746-.491,3.372-1.661.593-1.17.366-2.789-.542-3.737-.326-.346-.804-.682-1.308-1.026-.616-.421-.887-1.195-.667-1.909.221-.712.88-1.199,1.627-1.199.448,0,.922.031,1.403.063,1.913.134,2.606.064,2.933-.602.318-.621.13-1.489-.407-1.955-.429-.362-1.17-.59-1.955-.831-.576-.177-1.148-.357-1.676-.592-.702-.313-1.108-1.057-.99-1.817.117-.759.729-1.346,1.492-1.432,1.261-.142,2.355-1.373,2.339-2.632,0-.235-.028-.31-.028-.313-.106-.184-.27-.361-1.084-.632-.767-.272-1.39-.466-1.924-.631-3.212-.993-4.155-1.704-5.332-5.922-1.21-4.224-2.329-7.896-3.419-11.215-2.749-8.278-5.548-14.928-8.803-20.922-.299-.55-.272-1.221.071-1.746,5.73-8.764,8.571-19.739,8.443-32.622,0-2.628-.136-5.36-.401-8.139-.58-5.969-1.703-12.16-3.335-18.399-1.653-6.305-3.617-8.822-4.905-9.074-.942-.184-2.254.771-3.694,2.693-2.909,3.877-6.125,7.622-9.235,11.242-1.631,1.901-3.26,3.797-4.845,5.71-.221.254-.404.478-.586.7-.212.259-.424.518-.644.767-4.402,5.313-8.852,10.65-13.306,15.993l-5.799,6.957c-.384.462-.987.686-1.575.593-7.116-1.13-11.655-1.673-18.203-1.701-6.562.028-11.101.572-18.217,1.701-.596.083-1.191-.133-1.576-.593l-20.335-24.42c-1.583-1.911-3.212-3.806-4.843-5.708-3.11-3.62-6.326-7.365-9.233-11.241-1.441-1.923-2.765-2.882-3.695-2.694-1.288.252-3.252,2.769-4.904,9.075-1.634,6.235-2.756,12.425-3.337,18.4-.266,2.776-.401,5.508-.401,8.119-.127,12.9,2.713,23.875,8.443,32.639.343.525.37,1.195.071,1.746-3.255,5.995-6.054,12.644-8.804,20.928-1.161,3.534-2.301,7.308-3.388,11.21-1.206,4.228-2.152,4.939-5.364,5.928-.534.164-1.158.356-1.893.616-.843.28-1.006.458-1.04.521-.059.106-.101.235-.101.412-.016,1.281,1.089,2.512,2.365,2.654.767.085,1.381.675,1.496,1.438.115.762-.297,1.507-1.005,1.815-.53.231-1.099.408-1.67.582-.794.242-1.544.47-1.995.851-.508.441-.69,1.322-.385,1.945.337.661.994.727,2.932.597.48-.034.954-.064,1.402-.064.747,0,1.406.487,1.627,1.199.22.714-.051,1.488-.667,1.909-.411.28-.931.652-1.334,1.053-.884.92-1.11,2.54-.5,3.739.598,1.126,2.084,1.848,3.352,1.633.927-.17,1.807.458,1.97,1.385s-.459,1.809-1.385,1.97c-2.724.486-5.651-.962-6.958-3.415-.974-1.919-.953-4.186-.054-6.046-1.319-.211-2.618-.832-3.433-2.443-.998-2.041-.48-4.576,1.22-6.052.368-.31.759-.554,1.158-.755-.97-1.095-1.56-2.521-1.54-4.017,0-.504.09-1.289.523-2.033.706-1.362,2.254-1.878,2.915-2.1.759-.268,1.426-.474,1.998-.651q2.261-.695,3.087-3.596c1.099-3.942,2.255-7.764,3.432-11.353,2.685-8.08,5.419-14.655,8.571-20.598-5.74-9.188-8.581-20.506-8.451-33.664,0-2.701.14-5.543.417-8.428.597-6.156,1.752-12.526,3.431-18.937,1.873-7.146,4.34-10.925,7.544-11.553,2.372-.455,4.744.881,7.075,3.993,2.839,3.786,6.017,7.487,9.091,11.065,1.646,1.916,3.288,3.829,4.886,5.759l19.709,23.666c6.624-1.033,11.34-1.564,17.765-1.591,6.509.027,11.055.537,17.808,1.591l5.18-6.216c4.452-5.34,8.899-10.673,13.332-16.022.225-.258.411-.486.597-.712.207-.254.415-.507.629-.753,1.567-1.892,3.209-3.805,4.856-5.721,3.074-3.578,6.252-7.279,9.093-11.066,2.331-3.11,4.707-4.446,7.073-3.992,3.204.628,5.671,4.406,7.546,11.553,1.678,6.413,2.832,12.784,3.429,18.934.278,2.889.417,5.73.417,8.449.13,13.139-2.713,24.459-8.451,33.647,3.152,5.942,5.886,12.517,8.569,20.592,1.104,3.366,2.235,7.079,3.462,11.356q.808,2.899,3.06,3.596c.572.177,1.24.384,2.029.664.629.211,2.178.727,2.922,2.161.295.424.484,1.124.484,1.982.02,1.485-.568,2.905-1.532,3.998.392.197.773.436,1.131.737,1.721,1.495,2.245,4.099,1.236,6.074-.796,1.614-2.098,2.233-3.425,2.442.895,1.852.919,4.115-.043,6.012-1.166,2.188-3.483,3.537-5.89,3.537Z"/>
            <path d="M215.963,181.007c-23.246-.178-52.901-15.814-66.163-34.856-.24-.349-.577-.898-.983-1.567-2.675-4.387-4.488-6.692-5.388-6.849-.916-.16-1.559-1.03-1.413-1.949.146-.916.975-1.55,1.9-1.421,2.693.388,5.23,4.217,7.809,8.447.365.6.665,1.093.876,1.401,12.7,18.236,41.115,33.217,63.334,33.389,22.251-.172,50.663-15.152,63.34-33.395.204-.297.499-.784.861-1.378,2.411-3.954,4.782-7.566,7.293-8.348.896-.282,1.853.223,2.132,1.12s-.223,1.853-1.12,2.132c-1.492.464-4.328,5.117-5.396,6.868-.405.665-.739,1.209-.971,1.544-13.233,19.045-42.89,34.683-66.11,34.861Z"/>
          </g>
        </g>
        <path d="M233.711,142.529c0,5.262-4.266,8.607-9.528,8.607s-9.528-3.345-9.528-8.607,4.266-6.516,9.528-6.516,9.528,1.253,9.528,6.516Z"/>
        <g>
          <path class="cls-6" d="M212.234,159.374c2.906-1.819,5.511-.89,8.59-1.197,3.658-.365,6.757-.896,10.404.206,1.024.309,2.114.785,2.576,1.75.589,1.23-.151,2.765-1.286,3.52s-2.55.923-3.906,1.063c-4.87.505-9.815.92-14.639.081-1.571-.273-3.437-1.026-3.582-2.614-.108-1.176.842-2.184,1.843-2.81Z"/>
          <path d="M220.004,166.926c-2.112,0-4.214-.14-6.314-.504-2.95-.514-4.751-2.004-4.941-4.088-.15-1.636.801-3.224,2.611-4.358h0c2.426-1.515,4.723-1.449,6.746-1.399.825.021,1.669.051,2.556-.04l1.26-.131c3.215-.343,6.248-.665,9.782.4,1.173.354,2.819,1.01,3.586,2.618.996,2.07-.164,4.476-1.858,5.604-1.513,1.004-3.326,1.193-4.649,1.33-2.957.307-5.878.57-8.779.57ZM216.885,159.852c-1.354,0-2.53.14-3.776.92h0c-.741.463-1.102.985-1.076,1.26.039.437.996.927,2.223,1.14,4.567.794,9.314.408,14.186-.095,1.319-.137,2.391-.283,3.165-.797.534-.356.887-1.065.71-1.433-.153-.321-.68-.619-1.567-.887-2.895-.875-5.483-.598-8.478-.276l-1.284.134c-1.06.106-2.03.083-2.97.054-.393-.011-.769-.02-1.132-.02ZM212.235,159.374h.027-.027Z"/>
        </g>
        <g>
          <path class="cls-8" d="M248.906,52.115s5.38-4.178,7.127-1.741c1.747,2.437-.783,6.615-.783,6.615,0,0,9.037-1.393,6.828,1.741l-2.209,3.133s5.222,3.133,6.963,4.874c1.741,1.741,11.141-28.2,5.919-38.297,0,0-1.741-1.741-3.83,0-2.089,1.741-20.016,23.674-20.016,23.674Z"/>
          <path d="M266.991,68.511c-.499,0-.986-.192-1.363-.569-1.307-1.308-5.233-3.778-6.635-4.619-.407-.243-.692-.644-.79-1.108-.098-.463.001-.946.275-1.332l1.732-2.458c-1.115-.095-2.996-.012-4.701.248-.645.093-1.303-.188-1.67-.735-.369-.549-.386-1.261-.047-1.827.632-1.056,1.674-3.605.857-4.743-.5-.317-2.8.624-4.701,2.093-.684.531-1.66.464-2.262-.158-.604-.621-.647-1.595-.099-2.265,1.846-2.258,18.091-22.111,20.243-23.905,2.407-2.009,4.98-1.04,6.125.103.125.125.228.267.309.423,5.183,10.021-2.544,37.883-6.034,40.434-.382.28-.816.419-1.238.419ZM262.305,61.365c1.276.806,3.066,1.98,4.432,3.047,2.451-5.125,8.501-26.646,4.648-34.895-.612-.396-1.178.067-1.374.231-1.158.966-8.891,10.206-15.451,18.164.158.004.315.017.471.04.994.145,1.819.639,2.387,1.429,1.246,1.739,1.051,3.891.549,5.6,3.083-.178,5.037.366,5.8,1.599.334.538.739,1.661-.297,3.13l-1.165,1.654Z"/>
        </g>
        <g>
          <path class="cls-8" d="M182.971,52.115s-5.38-4.178-7.127-1.741c-1.747,2.437.783,6.615.783,6.615,0,0-9.037-1.393-6.828,1.741l2.209,3.133s-5.222,3.133-6.963,4.874c-1.741,1.741-11.141-28.2-5.919-38.297,0,0,1.741-1.741,3.83,0,2.089,1.741,20.016,23.674,20.016,23.674Z"/>
          <path d="M164.885,68.511c-.424,0-.856-.138-1.238-.419-3.49-2.552-11.216-30.413-6.034-40.434.081-.156.184-.298.309-.423,1.142-1.14,3.716-2.11,6.123-.103,2.153,1.794,18.399,21.647,20.245,23.905.547.67.504,1.644-.099,2.265-.602.621-1.578.686-2.262.158-1.903-1.47-4.212-2.4-4.685-2.113-.833,1.158.209,3.707.841,4.763.339.566.322,1.279-.047,1.827-.369.547-1.018.828-1.67.735-1.701-.26-3.577-.349-4.693-.248l1.724,2.458c.274.386.373.869.275,1.332-.098.464-.384.865-.79,1.108-1.403.843-5.329,3.313-6.633,4.618-.378.378-.865.57-1.364.57ZM160.496,29.509c-3.863,8.243,2.191,29.776,4.644,34.903,1.366-1.067,3.156-2.241,4.432-3.047l-1.165-1.654c-1.036-1.469-.631-2.592-.297-3.13.763-1.234,2.712-1.783,5.8-1.599-.502-1.709-.698-3.861.55-5.6.566-.79,1.391-1.284,2.386-1.429.154-.023.313-.036.471-.04-6.56-7.958-14.294-17.198-15.452-18.164-.632-.53-1.104-.409-1.369-.239Z"/>
        </g>
        <g>
          <g>
            <g>
              <path class="cls-12" d="M193.256,114.396c-.301,2.513,1.433,5.223,3.912,5.665,2.508.443,5.211-1.83,4.889-4.369,1.923.164,3.878.244,5.808.237.908,2.08,1.046,4.271-.448,6.111-2.718,3.323-9.461,4.438-13.217,3.291-5.297-1.635-8.982-5.901-9.16-11.272l.738.002c2.493.102,4.986.204,7.478.334Z"/>
              <path class="cls-1" d="M202.49,109.268c1.841,1.466,4.236,3.976,5.375,6.662-1.93.006-3.885-.074-5.808-.237.322,2.539-2.382,4.812-4.889,4.369-2.479-.442-4.213-3.152-3.912-5.665-2.492-.13-4.985-.232-7.478-.334l-.738-.002c-.034-.569-.009-1.164.045-1.786.007-.17.014-.34.106-.506.093-.195.269-.33.443-.436,4.365-3.341,8.742-4.893,14.268-3.305.926.265,1.82.614,2.589,1.241Z"/>
            </g>
            <path d="M197.574,127.428c-1.394,0-2.717-.172-3.856-.519-6.081-1.877-10.131-6.899-10.326-12.793-.036-.602-.012-1.279.05-1.984.005-.18.024-.656.307-1.166.17-.364.522-.735,1.028-1.042,5.176-3.973,10.028-5.074,15.58-3.48.915.262,2.105.675,3.176,1.548.963.766,4.277,3.594,5.846,7.285,1.292,2.964,1.057,5.662-.682,7.803-2.348,2.87-7.036,4.348-11.123,4.348ZM186.712,112.583c-.038.538-.051.967-.025,1.382.152,4.579,3.216,8.316,8,9.793,3.309,1.01,9.251-.064,11.454-2.76.341-.42,1.39-1.713.213-4.407-.003-.005-.005-.011-.007-.016-1.005-2.369-3.181-4.661-4.884-6.016-.494-.403-1.092-.682-2.015-.945-4.489-1.293-8.3-.404-12.737,2.969Z"/>
          </g>
          <circle class="cls-8" cx="198.433" cy="111.947" r="1.808"/>
          <path d="M183.21,113.676c-.483,0-.981-.064-1.48-.221-1.048-.329-2.478-1.202-3.333-3.496-.317-.853.117-1.803.97-2.121.848-.313,1.802.115,2.121.97.311.839.726,1.344,1.229,1.501.945.299,2.356-.466,2.653-.67.75-.521,1.774-.331,2.294.416.519.749.333,1.776-.416,2.294-.233.162-1.987,1.327-4.038,1.327Z"/>
        </g>
        <g>
          <g>
            <g>
              <path class="cls-12" d="M251.19,120.075c-2.508.443-5.212-1.859-4.889-4.369-1.923.164-3.85.242-5.808.237-.908,2.08-1.047,4.243.447,6.083,2.719,3.351,9.489,4.437,13.217,3.291,5.326-1.608,9.011-5.874,9.188-11.273l-.766.003c-2.492.13-4.985.232-7.478.334.33,2.512-1.403,5.251-3.911,5.694Z"/>
              <path class="cls-1" d="M248.455,108.012c-.925.293-1.818.642-2.589,1.241-1.841,1.466-4.263,4.005-5.374,6.69,1.958.005,3.885-.074,5.808-.237-.323,2.511,2.382,4.812,4.889,4.369s4.24-3.181,3.911-5.694c2.493-.102,4.986-.204,7.478-.334l.766-.003c.032-.597.008-1.192-.045-1.786-.035-.169-.042-.339-.133-.477-.093-.195-.269-.33-.416-.465-4.392-3.311-8.77-4.892-14.296-3.304Z"/>
            </g>
            <path d="M250.756,127.42c-4.085,0-8.761-1.48-11.096-4.356-1.208-1.485-2.305-4.038-.684-7.767,1.534-3.695,4.876-6.547,5.865-7.334,1.022-.796,2.148-1.216,3.115-1.523,5.556-1.593,10.413-.492,15.788,3.559.369.321.69.606.911,1.069.15.207.216.589.251.796.097.92.122,1.593.086,2.267-.193,5.899-4.26,10.923-10.358,12.762-1.143.352-2.475.526-3.877.526ZM252.631,109.039c-1.21,0-2.439.189-3.722.557-.68.217-1.434.495-2.031.958-1.623,1.293-3.884,3.655-4.861,6.019-.005.009-.009.019-.013.03-1.17,2.679-.127,3.962.216,4.383,2.195,2.706,8.136,3.777,11.453,2.754,4.803-1.449,7.874-5.184,8.025-9.75.025-.484.011-.941-.023-1.394-3.205-2.412-6.063-3.557-9.043-3.557ZM240.493,115.942h.027-.027ZM261.656,112.399l.004.016s-.001-.008-.001-.012c-.001-.003-.001-.004-.003-.004Z"/>
          </g>
          <circle class="cls-8" cx="249.932" cy="111.947" r="1.808"/>
          <path d="M265.156,113.676c-2.051,0-3.805-1.165-4.038-1.327-.749-.518-.935-1.546-.416-2.294.521-.746,1.542-.934,2.289-.42.398.27,1.736.962,2.665.672.499-.16.911-.664,1.221-1.5.321-.853,1.268-1.281,2.121-.97.853.318,1.287,1.268.97,2.121-.855,2.294-2.284,3.168-3.331,3.496-.499.157-.998.221-1.48.221Z"/>
        </g>
        <path class="cls-8" d="M240.879,91.068c-3.457,2.331-8.209,10.389-1.714,11.7,4.639.936,9.784-.79,14.346-1.524,3.403-.547,12.773-2.049,9.96-7.547-2.395-4.68-14.629-4.384-18.997-3.97-1.292.123-2.508.608-3.595,1.341Z"/>
        <path class="cls-8" d="M207.461,91.068c3.457,2.331,8.209,10.389,1.714,11.7-4.639.936-9.784-.79-14.346-1.524-3.403-.547-12.773-2.049-9.96-7.547,2.395-4.68,14.629-4.384,18.997-3.97,1.292.123,2.508.608,3.595,1.341Z"/>
        <path class="cls-3" d="M250.454,131.345c-.563-.006-1.213.005-1.564.444-.233.292-.261.692-.279,1.065-.036.753-.043,1.594.466,2.151.336.369.836.536,1.32.658,9.194,2.315,15.839-5.96,20.054-12.829.899-1.464-.223-.835-.727-.607-.814.368-1.649,1.418-2.355,1.986-1.677,1.353-3.421,2.632-5.28,3.726-3.54,2.083-7.491,3.452-11.635,3.405Z"/>
        <path class="cls-3" d="M197.885,131.345c.563-.006,1.213.005,1.564.444.233.292.261.692.279,1.065.036.753.043,1.594-.466,2.151-.336.369-.836.536-1.32.658-9.194,2.315-15.839-5.96-20.054-12.829-.899-1.464.223-.835.727-.607.814.368,1.649,1.418,2.355,1.986,1.677,1.353,3.421,2.632,5.28,3.726,3.54,2.083,7.491,3.452,11.635,3.405Z"/>
        <g>
          <g class="cls-10">
            <path class="cls-4" d="M194.447,145.95c-2.241.536-4.725.461-6.186.351-3.822-.286-7.69-.906-11.423-1.754-1.978-.449-4.279-1.343-4.737-3.68-.366-1.869.707-3.83,2.044-4.998,2.78-2.428,5.988-1.96,9.141-1.724,2.625.196,5.243.484,7.847.863,2.241.326,4.501.476,6.317,2.176,1.026.947,1.908,2.332,1.827,3.912-.15,2.904-2.341,4.256-4.831,4.852Z"/>
          </g>
          <path class="cls-11" d="M172.879,145.021c-.33,0-.664-.099-.954-.306-.742-.527-.916-1.556-.389-2.298.168-.235,4.138-5.791,8.925-9.941.691-.594,1.731-.521,2.326.166.596.688.522,1.729-.166,2.326-4.483,3.884-8.359,9.305-8.398,9.358-.321.452-.829.694-1.344.694Z"/>
          <path class="cls-11" d="M182.228,146.113c-.329,0-.661-.099-.951-.303-.743-.526-.919-1.554-.393-2.297.162-.229,4.028-5.667,8.922-9.941.688-.6,1.729-.526,2.326.158.598.686.527,1.727-.158,2.326-4.59,4.008-8.361,9.306-8.399,9.36-.321.453-.831.696-1.347.696Z"/>
          <path class="cls-11" d="M191.087,147.147c-.33,0-.664-.099-.954-.306-.742-.527-.916-1.556-.388-2.298.166-.235,4.148-5.805,8.926-9.939.687-.6,1.729-.522,2.325.168.596.688.521,1.729-.168,2.325-4.47,3.869-8.359,9.303-8.398,9.357-.321.452-.829.694-1.344.694Z"/>
        </g>
        <g>
          <g class="cls-10">
            <path class="cls-4" d="M267.26,144.006c-2.081.99-4.527,1.432-5.978,1.629-3.798.515-7.71.711-11.538.658-2.028-.028-4.465-.425-5.398-2.615-.747-1.752-.104-3.894.961-5.314,2.215-2.953,5.45-3.161,8.584-3.585,2.609-.353,5.229-.616,7.856-.786,2.26-.147,4.502-.469,6.632.816,1.2.713,2.351,1.885,2.599,3.448.456,2.872-1.405,4.65-3.718,5.75Z"/>
          </g>
          <path class="cls-11" d="M245.626,147.613c-.219,0-.44-.044-.655-.137-.835-.361-1.218-1.332-.857-2.167.115-.264,2.844-6.523,6.665-11.576.546-.727,1.581-.873,2.309-.321.726.549.869,1.583.321,2.309-3.577,4.731-6.243,10.837-6.268,10.899-.27.621-.877.993-1.515.993Z"/>
          <path class="cls-11" d="M254.998,146.739c-.217,0-.437-.043-.651-.134-.836-.361-1.222-1.33-.863-2.165.111-.259,2.764-6.381,6.663-11.577.549-.727,1.578-.875,2.309-.329.727.547.875,1.581.329,2.309-3.657,4.873-6.246,10.839-6.271,10.9-.27.624-.877.997-1.516.997Z"/>
          <path class="cls-11" d="M263.88,145.91c-.219,0-.44-.044-.655-.137-.835-.362-1.218-1.332-.857-2.167.115-.266,2.852-6.541,6.665-11.577.55-.727,1.582-.871,2.31-.319.726.55.868,1.585.319,2.31-3.57,4.713-6.243,10.835-6.27,10.897-.268.621-.876.993-1.513.993Z"/>
        </g>
      </g>
      <g>
        <g>
          <g>
            <path class="cls-5" d="M268.317,163.819c-.146-.358-.333-.726-.504-1.069-1.509,1.83-3.693,3.105-6.048,3.351-1.831.206-3.914-.294-4.866-1.883.151,1.796-.723,3.656-2.216,4.654-1.503,1.038-3.551,1.169-5.154.381-.262-.151-.605-.323-.872-.197-.282.101-.429.429-.525.726-.762,2.103-2.518,3.807-4.627,4.522-.257.086-.514.171-.777.191.504.898,1.008,1.796,1.446,2.699,5.75,11.365,5.663,24.72,9.042,36.992,1.35,4.883,5.066,6.049,9.515,3.862,3.405-1.698,4.193-4.673,5.193-8.153,2.788-9.763,3.998-19.985,3.579-30.122-.245-5.442-.984-10.965-3.186-15.954Z"/>
            <path class="cls-9" d="M261.765,166.101c2.355-.246,4.54-1.521,6.048-3.351-2.273-4.535-5.912-8.491-10.617-10.333-5.073-1.999-11.367-1.175-15.156,2.742-2.2,2.279-3.432,5.486-3.307,8.668.15,3.853,2.085,7.253,3.995,10.668.262-.02.52-.106.777-.191,2.108-.715,3.864-2.419,4.627-4.522.096-.298.242-.625.525-.726.267-.126.61.046.872.197,1.603.787,3.651.657,5.154-.381,1.493-.998,2.367-2.859,2.216-4.654.953,1.589,3.035,2.089,4.866,1.883Z"/>
          </g>
          <path d="M258.728,220.756c-1.018,0-1.976-.199-2.856-.593-1.414-.636-3.298-2.112-4.244-5.538-1.28-4.645-2.077-9.472-2.847-14.141-1.326-8.038-2.579-15.629-6.078-22.544-.436-.899-.926-1.768-1.413-2.636l-.003-.003,1.44-.805-1.534.635c-1.94-3.468-3.946-7.055-4.108-11.241-.141-3.594,1.268-7.287,3.769-9.876,4.045-4.182,11.011-5.47,16.947-3.13,4.74,1.857,8.822,5.81,11.488,11.128.228.46.409.828.555,1.186,2.557,5.792,3.111,12.195,3.306,16.503.429,10.375-.796,20.685-3.64,30.648-1.093,3.81-2.064,7.191-6.042,9.177-1.668.818-3.267,1.232-4.74,1.232ZM244.164,173.687c.522.927,1.041,1.856,1.493,2.788,3.715,7.342,5.069,15.542,6.377,23.471.757,4.585,1.539,9.325,2.772,13.801.486,1.758,1.299,2.906,2.416,3.408,1.544.692,3.456.064,4.782-.585,2.673-1.334,3.342-3.671,4.269-6.903,2.814-9.849,3.997-19.809,3.581-29.826-.287-6.42-1.256-11.301-3.046-15.357-.134-.327-.28-.617-.419-.894-2.351-4.692-5.811-8.078-9.796-9.64-4.729-1.862-10.224-.898-13.37,2.353-1.888,1.955-2.95,4.743-2.844,7.457.131,3.394,1.86,6.486,3.691,9.759l-1.344.974,1.437-.808Z"/>
        </g>
        <g>
          <path class="cls-8" d="M244.593,209.164c.584,5.365,2.026,10.852,5.535,14.952,3.509,4.1,9.48,6.439,14.5,4.459,5.894-2.325,8.362-9.29,9.288-15.558.906-6.138,1.004-12.396.29-18.56-.216-1.864-.547-3.817-1.726-5.278-.959-1.188-2.377-1.913-3.81-2.44-6.173-2.27-13.413-1.209-18.78,2.552-5.994,4.2-6.015,13.271-5.297,19.872Z"/>
          <path d="M260.763,230.937c-4.271,0-8.738-2.069-11.889-5.75-3.235-3.781-5.172-8.962-5.921-15.844-1.171-10.755.788-17.755,5.991-21.4,5.894-4.132,13.669-5.187,20.294-2.749,1.308.48,3.199,1.309,4.524,2.95,1.477,1.833,1.849,4.122,2.081,6.125.73,6.313.631,12.702-.297,18.989-.915,6.192-3.447,14.14-10.315,16.85-1.415.561-2.93.829-4.469.829ZM261.841,187.192c-3.868,0-7.767,1.181-11.005,3.449-4.071,2.852-5.619,9.024-4.603,18.344h0c.674,6.2,2.357,10.799,5.148,14.06,2.855,3.338,8.11,5.783,12.641,3.996,5.403-2.131,7.476-8.933,8.262-14.265.887-6.003.982-12.102.283-18.129-.178-1.543-.447-3.286-1.371-4.433-.617-.763-1.601-1.377-3.095-1.927-2-.735-4.126-1.095-6.26-1.095Z"/>
        </g>
        <g>
          <path class="cls-2" d="M244.838,179.229c.043,4.526.583,9.048,1.609,13.457,4.266,3.211,9.901,4.307,15.118,3.393,3.367-.59,7.076-1.845,9.485-4.385,2.379-2.507,2.393-6.575,2.225-9.847-.062-1.194.039-3.57-.59-4.603-1.131-1.857-5.855,1.961-7.524,2.588-6.51,2.446-13.975,2.265-20.322-.603Z"/>
          <path d="M257.934,198.044c-4.571,0-8.972-1.401-12.478-4.04-.309-.233-.526-.568-.614-.943-1.052-4.519-1.607-9.166-1.652-13.815-.005-.564.276-1.089.749-1.397.471-.307,1.065-.354,1.579-.122,5.93,2.678,12.878,2.883,19.063.562.323-.122,1.049-.558,1.689-.943,2.596-1.562,6.152-3.698,7.822-.961.682,1.118.769,2.745.806,4.601l.023.777c.2,3.868.039,8.207-2.675,11.066-2.305,2.43-5.804,4.071-10.397,4.873-1.308.229-2.619.342-3.915.342ZM247.917,191.715c3.679,2.548,8.627,3.562,13.363,2.74,2.669-.467,6.322-1.521,8.575-3.896,1.85-1.949,1.945-5.298,1.774-8.627l-.027-.879c-.012-.624-.04-1.947-.208-2.63-.863.209-2.62,1.265-3.425,1.748-.871.525-1.623.977-2.229,1.203-6.174,2.322-13.029,2.41-19.178.307.17,3.377.625,6.739,1.355,10.033Z"/>
        </g>
      </g>
    </g>
  </g>
</svg>