<?xml version="1.0" encoding="utf-8"?>
<!-- Generator: Adobe Illustrator 26.5.0, SVG Export Plug-In . SVG Version: 6.00 Build 0)  -->
<svg version="1.1" id="레이어_5" xmlns="http://www.w3.org/2000/svg" xmlns:xlink="http://www.w3.org/1999/xlink" x="0px"
	 y="0px" viewBox="0 0 515.9 589.6" style="enable-background:new 0 0 515.9 589.6;" xml:space="preserve">
<style type="text/css">
	.st0{fill:#94E8BA;}
</style>
<g>
	<g>
		<path class="st0" d="M84.6,291c0,0-24.4-190.7,0-269.2c0,0,193.3-31.4,275.5-9c0,0,20,210.9,11.1,278.2l140,157.1L360.2,584.9
			L224.6,445.8l-77.8,83L4.6,380.8L84.6,291z"/>
		<path d="M360.2,589.6c-1.2,0-2.4-0.5-3.3-1.4L224.7,452.6l-74.5,79.5c-0.9,0.9-2.1,1.5-3.3,1.5c0,0,0,0,0,0
			c-1.3,0-2.5-0.5-3.3-1.4L1.3,384c-1.7-1.8-1.7-4.6-0.1-6.4l78.6-88.2C77,267.2,56.9,95.4,80.2,20.4c0.5-1.7,2-2.9,3.7-3.2
			c7.9-1.3,195.3-31.3,277.5-8.9c1.9,0.5,3.2,2.1,3.4,4.1c0.8,8.5,19.5,208,11.4,277.1l138.6,155.5c0.8,0.9,1.2,2.1,1.2,3.4
			c-0.1,1.2-0.6,2.4-1.5,3.2L363.3,588.4C362.4,589.2,361.3,589.6,360.2,589.6z M224.6,441.2c1.2,0,2.4,0.5,3.3,1.4l132.4,135.9
			l144.4-130.7L367.8,294.1c-0.9-1-1.3-2.4-1.1-3.7c8.1-61.5-8.4-246.9-10.8-273.9c-76.5-19-243.7,5.7-267.6,9.4
			c-22.5,78.3,0.8,262.6,1,264.5c0.2,1.4-0.2,2.7-1.1,3.7L11,380.6l135.8,141.4l74.5-79.5C222.1,441.7,223.2,441.3,224.6,441.2z"/>
	</g>
	<path d="M84.6,295.7c-1.1,0-2.2-0.4-3.1-1.2c-1.9-1.7-2.1-4.7-0.4-6.6c1.7-2,174.8-198.7,276.2-278.8c2-1.6,4.9-1.2,6.5,0.8
		c1.6,2,1.2,5-0.8,6.6C262.3,96.1,89.8,292.1,88.1,294.1C87.2,295.2,85.9,295.7,84.6,295.7z"/>
	<path d="M224.6,450.5c-1.2,0-2.3-0.4-3.2-1.3c-1.8-1.8-1.9-4.7-0.1-6.6L364.9,291C319.8,242.6,84,27.5,81.5,25.3
		c-1.9-1.7-2-4.7-0.3-6.6c1.7-1.9,4.6-2.1,6.5-0.3c10.2,9.3,250,228.1,287,269.6c1.6,1.8,1.6,4.6-0.1,6.4L228,449.1
		C227.1,450,225.8,450.5,224.6,450.5z"/>
</g>
</svg>
