<?xml version="1.0" encoding="utf-8"?>
<!-- Generator: Adobe Illustrator 23.0.2, SVG Export Plug-In . SVG Version: 6.00 Build 0)  -->
<svg version="1.1" id="레이어_1" xmlns="http://www.w3.org/2000/svg" xmlns:xlink="http://www.w3.org/1999/xlink" x="0px"
	 y="0px" viewBox="0 0 268 354" style="enable-background:new 0 0 268 354;" xml:space="preserve">
<style type="text/css">
	.st0{fill:#FFFFFF;}
	.st1{fill:#008AC4;}
	.st2{fill:#0078AB;}
	.st3{fill:#00A2E7;}
	.st4{fill:#673101;}
	.st5{fill:#FFB400;}
	.st6{fill:#DD9900;}
	.st7{fill:#FFE4A9;}
	.st8{fill:#FFC0BB;}
</style>
<title>자산 22</title>
<g>
	<path class="st0" d="M146.9,281.5c3-7.3,3.6-15.3,1.7-23c-3.4-14.7-15.1-22.2-25.1-31.6c0.3,1.8-0.6,3.6-2.2,4.4l-1.2,0.6l1-7.4
		c0.8,0.8,1.6,1.6,2.5,2.4c-0.4-2.9-3.6-5.6-7-3.7l-1.2,0.6c-2.2,1.4-3,4.3-1.6,6.5c0.2,0.3,0.4,0.6,0.7,0.9
		c6.7,6.7,14.4,11.2,20.1,19.2c6.6,9.3,7,18.7,3.8,27.4l0.1-0.3C138.5,277.5,143,281.6,146.9,281.5z"/>
	<path class="st1" d="M169.4,316.6L169.4,316.6c-0.2-1.7-0.5-3.3-1-4.9c-1.6-4.4-4.6-8.2-8.4-10.8c-2.2-1.5-4.8-2.6-7.4-3.2l0,0
		h-0.2h-0.2c-5-1-10.8-0.3-15.2,0.6c-0.4,0.1-0.9,0.2-1.3,0.3c0.6-0.6,1.1-1.2,1.6-1.9c4-4.5,7.2-9.6,9.5-15.2c-3.9,0.1-8.5-4-8.5-4
		l-0.1,0.3c-2.3,5.8-5.7,11.1-9.9,15.6l-1.1,1.3L126,296l-5.7,6.7v21.6h48.5c0.5-1.8,0.7-3.6,0.8-5.4
		C169.6,318.1,169.5,317.3,169.4,316.6z"/>
	<g>
		<path class="st2" d="M164.7,305.2c-1.4-1.7-3-3.1-4.8-4.3c-6.5-0.7-10.1,1.2-10.7,1.6l2.1,3C155.6,303.8,160.4,303.7,164.7,305.2z
			"/>
		<path class="st2" d="M153.5,312.4l2.5,3.6c0,0,4.2-2.4,13.4,0.6c-0.1-1.6-0.5-3.3-1-4.9C158.8,309.2,154.1,312,153.5,312.4z"/>
	</g>
</g>
<path class="st3" d="M97.8,303v0.5V303z"/>
<g>
	<path class="st0" d="M124.4,281.5c3-7.3,3.6-15.3,1.7-23c-3.3-14.7-15.1-22.2-25.1-31.6c0.3,1.8-0.6,3.6-2.2,4.4l-1.2,0.6l1-7.4
		c0.8,0.8,1.7,1.6,2.5,2.4c-0.4-2.9-3.6-5.6-7-3.7l-1.2,0.6c-2.2,1.4-3,4.3-1.6,6.5c0.2,0.3,0.4,0.6,0.7,0.9
		c6.7,6.7,14.4,11.2,20.1,19.2c6.6,9.3,7,18.7,3.8,27.4l0.1-0.3C115.9,277.5,120.4,281.6,124.4,281.5z"/>
	<path class="st3" d="M146.9,316.6L146.9,316.6c-0.2-1.7-0.5-3.3-1-4.9c-1.6-4.4-4.6-8.2-8.4-10.8c-2.2-1.5-4.8-2.6-7.4-3.2l0,0
		h-0.2h-0.2c-5-1-10.8-0.3-15.2,0.6c-0.4,0.1-0.9,0.2-1.3,0.3c0.6-0.6,1.1-1.2,1.7-1.9c4-4.5,7.2-9.6,9.5-15.2c-3.9,0.1-8.5-4-8.5-4
		l-0.1,0.3c-2.3,5.8-5.7,11.1-9.9,15.6l-1.1,1.3l-1.2,1.4l-5.7,6.7v21.6h48.4c0.5-1.8,0.7-3.6,0.8-5.4
		C147,318.2,147,317.4,146.9,316.6z"/>
	<g>
		<path class="st1" d="M142.1,305.2c-1.4-1.7-3-3.1-4.8-4.3c-6.5-0.7-10.1,1.2-10.7,1.6l2.1,3C133,303.8,137.8,303.7,142.1,305.2z"
			/>
		<path class="st1" d="M131,312.4l2.4,3.6c0.1,0,4.2-2.4,13.4,0.6c-0.1-1.7-0.5-3.3-1-4.9C136.2,309.2,131.6,312,131,312.4z"/>
	</g>
</g>
<g>
	<path class="st0" d="M162.3,78c-0.1-0.1-0.1-0.2-0.2-0.2c-3-4-2.1-9.7,1.9-12.7l0,0c3.2-2.3,5.1-7.2,5.6-8.8
		c0.3-1.5,0.4-3.9-0.6-4.9c-2.2-2.3-9.7-2.6-14-1.9c-5,0.8-9.6-2.6-10.4-7.5c-0.8-4.9,2.5-9.5,7.4-10.4c2-0.3,20-3,29.9,7.1
		c3.6,3.6,7.4,10.3,5.4,21.3l-0.1,0.6c-0.3,1.3-3.4,12.5-12.4,19.1C170.9,82.6,165.4,81.8,162.3,78z"/>
	<path class="st4" d="M159.5,45.3c-0.5-0.5-1.1-0.9-1.8-1.1c1,0.1,1.9-0.2,2.6-0.8c1.6-1.2,1.8-3.5,0.6-5.1
		c-0.6-0.7-1.4-1.2-2.3-1.3c0.9,0,1.7-0.2,2.4-0.8c1.6-1.3,1.8-3.6,0.5-5.1c-0.1-0.1-0.3-0.2-0.4-0.3c-3.2-0.1-6.3,0.2-9.5,0.7
		c-4.9,1-8.1,5.8-7.1,10.7c1,4.8,5.5,7.9,10.3,7.1c1.7-0.2,3.4-0.4,5.1-0.3C160.5,47.8,160.4,46.3,159.5,45.3z"/>
</g>
<g>
	<path class="st0" d="M191,91.1l0.3,0.1c4.9,1.1,9.7-2,10.8-6.9c0.9-3.8,4.5-7.6,5.7-8.6c1.3-0.8,3.4-2,4.7-1.5
		c3,1.1,6.3,7.8,7.4,12c1.4,4.8,6.5,7.6,11.3,6.2c4.6-1.4,7.4-6.1,6.3-10.8c-0.5-2-5.4-19.5-18.6-24.4c-4.8-1.8-12.4-2.6-21.6,3.7
		l-0.5,0.3c-1,0.8-10,8.2-12.4,19.2C183.3,85.1,186.2,89.9,191,91.1z"/>
	<path class="st4" d="M221.8,80.2c0.7,0.2,1.3,0.6,1.7,1.1c-1-1.7-0.4-4,1.3-5c0.8-0.5,1.8-0.6,2.7-0.4s1.6,0.8,2.1,1.5
		c-0.4-0.8-0.5-1.6-0.3-2.5c0.5-1.9,2.5-3.1,4.4-2.6c0.2,0.1,0.3,0.1,0.5,0.2c1.4,2.8,2.5,5.8,3.4,8.9c1.1,4.9-1.9,9.8-6.8,10.9
		c-4.7,1.1-9.4-1.7-10.8-6.3c-0.5-1.6-1.1-3.3-1.8-4.8C219.1,80.3,220.5,79.9,221.8,80.2z"/>
</g>
<g>
	<path class="st0" d="M155.8,159.7c0,0-19.3,27.2-9.6,62c0,0,4.9,18,18.8,25.4c0,0,7.9,3.1,12.4-4.2c0,0,1.2-3.4-2-7.1
		c-1-1-2.1-1.9-3.3-2.6c0,0-19.2-13.5-14.8-40.6c0,0,2.4-15,8.6-26c0.9-1.9,1.3-3.9,1.1-6c0,0-0.7-2.9-5.5-3.4
		C161.7,157.2,157.5,157.1,155.8,159.7z"/>
	<path class="st2" d="M144.6,214.3c0,0,4.9,1.8,14.3-0.2c0,0,2.2,6.8,5.6,11c0,0,4.8,5.9,7.7,8.1c0,0,6.5,2.8,5.7,8.6
		c-0.5,3.6-5.7,7.5-12.2,5.5c-3.8-1.1-5.6-1.8-12-10.5C149,230.1,145.9,222.4,144.6,214.3z"/>
</g>
<g>
	<path class="st3" d="M209.7,79.3c-40.5-34.8-68.1-2.5-68.1-2.5l-30.7,35.9l-44.4,51.9v0.1c-13.3,15.5-5.1,44.3,18.3,64.2
		s53,23.6,66.3,8.1l41.5-48.5l35.8-87C229.1,95.8,209.7,79.3,209.7,79.3z"/>
	<path class="st1" d="M159.8,199.5l-17.9,21l0,0c-5.5,6.5-4.9,16.7,0.2,23.1c4.4-1.6,7.5-4.9,10.5-8.4c0.5-0.6,0.9-1.1,1.3-1.7
		l0.1,0.1l30.9-36.1C177.3,191.2,166.1,192,159.8,199.5L159.8,199.5z"/>
</g>
<g>
	<path class="st5" d="M98.1,127.6l2.2-2.5l-8-6.9c-1.5-5.1,4.9-8.6,4.9-8.6l0,0c13-5.7,18.9-20.7,13.2-33.7S89.6,57,76.6,62.6
		c-3.5,1.5-6.7,3.9-9.2,6.8c-2.2,2.6-3.9,5.5-4.9,8.8l0,0v0.1l0,0c-0.3,0.8-3.3,9.7-1.8,17.4c0,0-5.2-0.7-13.9,2.8
		c-0.2,0.1-0.5,0.2-0.7,0.3s-0.5,0.2-0.8,0.3l0,0c-3.5,1.5-6.6,3.8-9.1,6.8c-9.2,10.7-8,26.9,2.8,36.1s26.9,8,36.1-2.8
		c2.7-3.2,4.7-7,5.6-11.1c1.2-2.2,3-5.7,7.1-4.9l8.1,6.9L98.1,127.6L98.1,127.6z M90.1,81.4c4.9,4.2,4.8,8.4,0.6,13.3
		S81.9,101,77,96.8s-4.1-8.8,0.1-13.7S85.2,77.2,90.1,81.4L90.1,81.4z M51.7,126.4c-4.9-4.2-4.6-8.2-0.4-13.2s8.6-6.4,13.5-2.2
		s4.3,8.9,0.1,13.8C60.7,129.8,56.6,130.6,51.7,126.4z"/>
	<path class="st6" d="M94.6,134.2c-0.6,0.7-1.6,0.8-2.3,0.2l0,0l0,0c-0.7-0.6-0.8-1.6-0.2-2.3l0,0l9.9-11.6c0.6-0.7,1.6-0.8,2.3-0.2
		l0,0l0,0c0.7,0.6,0.8,1.6,0.2,2.3l0,0L94.6,134.2z"/>
	<path class="st7" d="M100.9,102.7c-1.3,0-2.3-1-2.4-2.3c0-0.6,0.2-1.1,0.5-1.5c5-5.8,6.2-14,3.1-21c-0.6-1.2-0.1-2.6,1-3.2
		c1.2-0.6,2.6-0.1,3.2,1c4,8.7,2.6,18.9-3.7,26.2C102.3,102.4,101.6,102.7,100.9,102.7z"/>
</g>
<g>
	<path class="st0" d="M150.8,254.3c-3.6,0.7-7.6-1.5-9.6-5.7c-27.4-56.1-2.2-90.1-1.3-91.5c2.9-4.5,7.1-8.2,10-6.2
		c4.5,3.2,3,11.5,0.1,15.9c-0.7,1.2-14.4,29.3,6.5,72c2.5,5.2,1.2,11.6-3,14.3C152.7,253.8,151.8,254.1,150.8,254.3z"/>
	<path class="st1" d="M128.8,205.7c1,12.3,4.5,26.6,12.4,42.9c2,4.2,6,6.4,9.6,5.7c0.9-0.2,1.8-0.5,2.6-1.1c4.2-2.7,5.5-9.1,3-14.3
		c-5.7-11.2-9.4-23.4-10.9-35.9C136.9,201.3,131.5,203.8,128.8,205.7z"/>
</g>
<path class="st0" d="M223.8,93.4c24.4,25.6,7.4,52,4.4,56.6c6.9,8.2,5.8,19.8-1.2,28.9l-1.5,1.9c-10.6,13.6-30.2,16.1-43.8,5.5
	l-9.4-7.3c-24-18.6-24.1-47.1-7.1-68.9S208.7,78.1,223.8,93.4z"/>
<path class="st8" d="M206.1,161.5c-6.1,7.8-17.3,9.2-25.1,3.1c-7.8-6.1-9.2-17.3-3.1-25.1c6.1-7.8,17.3-9.2,25.1-3.1l0,0
	C210.8,142.5,212.2,153.8,206.1,161.5z"/>
<g>
	<path d="M233.6,168.9c-0.4,1.2-1.1,2.1-2.2,2s-1.9-1.9-1.5-3.2s1.7-2.4,2.8-1.9S234,167.9,233.6,168.9z"/>
	<path d="M218,148.8l0.3-0.4c1.2-1.6,3.5-1.9,5.1-0.6l0,0c1.6,1.2,1.9,3.5,0.6,5.1l-0.3,0.4c-1.2,1.6-3.5,1.9-5.1,0.6l0,0
		C217.1,152.7,216.8,150.4,218,148.8z"/>
	<path d="M215.9,175.4c3.7,2.9,8.5,3.2,11.2,3.1c0,1.3,1.4-0.1,2-0.9c0.4-0.7,0.6-1.4,0.7-2.1c0-0.1-0.1-0.3-0.2-0.4
		c-0.3-0.2-0.7-0.2-1.1-0.1c-0.1,0-6.6,1-10.7-2.4c-2.2-1.9-3.4-4.7-3.6-8.6c0-0.9-0.8-1.7-1.8-1.7c-0.9,0-1.7,0.8-1.7,1.8l0,0
		c0.2,4.9,1.8,8.6,4.8,11.1L215.9,175.4z"/>
</g>
</svg>
