<?xml version="1.0" encoding="utf-8"?>
<!-- Generator: Adobe Illustrator 26.0.3, SVG Export Plug-In . SVG Version: 6.00 Build 0)  -->
<svg version="1.1" id="레이어_1" xmlns="http://www.w3.org/2000/svg" xmlns:xlink="http://www.w3.org/1999/xlink" x="0px"
	 y="0px" viewBox="0 0 390 390" style="enable-background:new 0 0 390 390;" xml:space="preserve">
<style type="text/css">
	.st0{fill:#4A8DFF;}
	.st1{fill:#FF8400;}
	.st2{fill:#FFD000;}
	.st3{fill:#00B54B;}
	.st4{fill:#FFFFFF;}
	.st5{fill-rule:evenodd;clip-rule:evenodd;}
</style>
<g>
	<g>
		<path class="st0" d="M121.4,53.3c0.3-9.3,3.8-18.4,11.5-23.8c8.3-5.8,18.2-9.4,28.4-10.3c3.2-0.3,6.4-0.3,9.5,0.5
			c3.3,0.8,6.4,2.6,9.2,4.6c8.2,5.9,14.9,14.7,15.7,24.8c0.8,9.5-3.6,18.9-10.4,25.6c-6.8,6.7-15.6,10.9-24.7,13.8
			c-5.4,1.7-11.1,3-16.7,2.3c-5.7-0.6-13.4-4-15.6-9.7c-2.3-6.1-5.3-12.8-6.4-19.3C121.5,59,121.3,56.1,121.4,53.3z"/>
	</g>
	<g>
		<path d="M146.9,92.7c-1.1,0-2.1-0.1-3.2-0.2c-6.5-0.7-14.7-4.5-17.1-10.9c-0.5-1.4-1.1-2.9-1.7-4.3c-1.9-5-4-10.1-4.8-15.3
			c-0.5-2.9-0.7-5.8-0.6-8.7c0.3-11,4.7-19.9,12.3-25.2c8.6-6,18.8-9.7,29.3-10.7c4.1-0.4,7.3-0.2,10.1,0.5c3.1,0.8,6.2,2.3,9.8,4.9
			c9.6,6.9,15.6,16.4,16.5,26.1c0.8,9.3-3.3,19.4-10.9,27c-6.2,6.1-14.5,10.8-25.4,14.2C157.2,91.4,152.2,92.7,146.9,92.7z
			 M164.9,20.8c-1.1,0-2.2,0.1-3.5,0.2c-9.9,0.9-19.4,4.3-27.5,10c-8.9,6.2-10.5,16.7-10.7,22.4l0,0c-0.1,2.6,0.1,5.3,0.5,8
			c0.8,4.8,2.8,9.8,4.6,14.6c0.6,1.5,1.2,3,1.7,4.4c1.8,4.7,8.6,8,14.1,8.6c5.7,0.6,11.5-0.9,15.9-2.3c10.3-3.3,18.2-7.6,23.9-13.3
			c6.9-6.8,10.6-15.8,9.9-24.1c-0.8-8.6-6.2-17.2-15-23.5c-3.2-2.3-5.9-3.6-8.6-4.3C168.7,21,166.9,20.8,164.9,20.8z M121.4,53.3
			L121.4,53.3L121.4,53.3z"/>
	</g>
</g>
<g>
	<g>
		<path class="st0" d="M135.6,63.7c0.1-0.9,0.2-1.8,0.4-2.8c2.2-10.6,11.7-18.4,20.1-24.3c9.6-6.7,20.3-13.5,31.8-16
			c13.2-2.8,28.7-2.8,38.8,7.6c5.4,5.6,8.2,14.1,6.6,21.8c-1.5,7.5-9.8,14-15.6,18.6c-13.6,10.9-30.9,17.2-48.3,17.2
			C156.1,85.8,134.5,80.4,135.6,63.7z"/>
	</g>
	<g>
		<path d="M169.4,87.6c-9.7,0-23.5-2.7-30.8-10.5c-3.5-3.8-5.2-8.3-4.8-13.5c0.1-1,0.2-2,0.4-3c2.2-11.1,11.8-19.1,20.9-25.5
			c9.9-7,20.8-13.8,32.5-16.3c17.7-3.8,31.7-1,40.4,8.1c6,6.1,8.7,15.3,7.1,23.4c-1.7,8-9.9,14.6-16,19.4l-0.3,0.2
			C204.6,81.3,187.1,87.6,169.4,87.6C169.4,87.6,169.4,87.6,169.4,87.6z M201.9,20.8c-4.8,0-9.5,0.7-13.6,1.5
			c-11.1,2.4-21.5,8.9-31.2,15.7c-8.5,5.9-17.4,13.4-19.4,23.2c-0.2,0.9-0.3,1.7-0.3,2.5c0,0,0,0,0,0c-0.3,4.1,1,7.8,3.8,10.8
			c6,6.5,18.5,9.3,28.1,9.3c0,0,0,0,0,0c16.9,0,33.6-6,47.2-16.8l0.3-0.2c5.6-4.5,13.3-10.6,14.7-17.3c1.4-6.9-1-14.9-6.1-20.2
			C219.1,22.9,210.4,20.8,201.9,20.8z M135.6,63.7L135.6,63.7L135.6,63.7z"/>
	</g>
</g>
<g>
	<g>
		<g>
			<rect x="148.4" y="274.3" class="st1" width="20.5" height="87.7"/>
		</g>
		<g>
			<path d="M170.7,363.9h-24.1v-91.3h24.1V363.9z M150.2,360.2h16.9v-84.1h-16.9V360.2z"/>
		</g>
	</g>
	<g>
		<g>
			<path class="st1" d="M177.5,356.9c0-14.4-12.1-25.9-26.7-24.9c-13.3,0.9-23.3,12.5-23.3,25.8l0,0c0,7.1,5.8,12.9,12.9,12.9h24.2
				c7.1,0,12.9-5.8,12.9-12.9V356.9z"/>
		</g>
		<g>
			<path d="M164.6,372.5h-24.2c-8.1,0-14.7-6.6-14.7-14.7c0-14.6,11-26.7,25-27.6c7.5-0.5,14.6,2.1,20.1,7.2
				c5.4,5.1,8.5,12.2,8.5,19.6v0.9C179.3,365.9,172.7,372.5,164.6,372.5z M152.5,333.7c-0.5,0-1,0-1.6,0.1
				c-12.1,0.8-21.6,11.3-21.6,24c0,6.1,5,11.1,11.1,11.1h24.2c6.1,0,11.1-5,11.1-11.1v-0.9c0-6.5-2.6-12.5-7.3-16.9
				C164,335.9,158.4,333.7,152.5,333.7z"/>
		</g>
	</g>
	<g>
		<g>
			<rect x="195.6" y="272.7" class="st1" width="20.5" height="88"/>
		</g>
		<g>
			<path d="M217.9,362.4h-24.1v-91.6h24.1V362.4z M197.4,358.8h16.9v-84.3h-16.9V358.8z"/>
		</g>
	</g>
	<g>
		<g>
			<path class="st1" d="M236.7,356.9c0-14.4-12.1-25.9-26.7-24.9c-13.3,0.9-23.3,12.5-23.3,25.8l0,0c0,7.1,5.8,12.9,12.9,12.9h24.2
				c7.1,0,12.9-5.8,12.9-12.9V356.9z"/>
		</g>
		<g>
			<path d="M223.8,372.5h-24.2c-8.1,0-14.7-6.6-14.7-14.7c0-14.6,11-26.7,25-27.6c7.5-0.5,14.6,2.1,20.1,7.2
				c5.4,5.1,8.5,12.2,8.5,19.6v0.9C238.5,365.9,231.9,372.5,223.8,372.5z M211.7,333.7c-0.5,0-1,0-1.6,0.1
				c-12.1,0.8-21.6,11.3-21.6,24c0,6.1,5,11.1,11.1,11.1h24.2c6.1,0,11.1-5,11.1-11.1v-0.9c0-6.5-2.6-12.5-7.3-16.9
				C223.2,335.9,217.6,333.7,211.7,333.7z"/>
		</g>
	</g>
</g>
<g>
	<g>
		<g>
			<path class="st2" d="M185.3,305.2c-12.2,0-22.1-1.1-31.3-3.4c-14.5-3.6-26.7-10.5-35.3-19.8c-14.6-15.8-20.2-41.2-14.9-67.8
				c0.4-2.3,1-4.5,1.5-6.8c1.5-6.4,3-13.1,2.8-19.7c-0.2-7.5-2.5-14.6-4.9-22c-1-3.2-2.1-6.4-3-9.7c-6.2-23-3.2-47.5,8.1-67.2
				c14.2-24.7,42.7-40,74.4-40c25.1,0,48.6,9.6,64.4,26.4c18,19.2,25.4,48.5,19.3,76.6c-0.7,3.4-1.7,6.9-2.6,10.2
				c-1.6,6-3.3,12.2-3.9,18.4c-0.4,4.9-0.2,10.2,0.8,16.5c0.7,4.6,1.7,9.3,2.6,13.8c0.8,3.9,1.7,7.9,2.3,11.9
				c4.5,27-1.3,50.5-15.9,64.5c-15.3,14.6-37.7,17.2-55.5,17.8C191.2,305.2,188.2,305.2,185.3,305.2z"/>
		</g>
	</g>
	<g>
		<g>
			<path d="M182.6,50.6c23.4,0,46.8,8.6,63.1,25.9c18.4,19.5,24.5,48.8,18.8,75c-2.1,9.7-5.7,19-6.5,28.9c-0.5,5.7-0.1,11.3,0.8,17
				c1.3,8.6,3.6,17.2,5,25.7c3.7,22.2,0.9,47.4-15.4,62.9c-14.1,13.4-34.9,16.6-54.3,17.3c-2.9,0.1-5.9,0.2-8.8,0.2
				c-10.4,0-20.8-0.8-30.9-3.3c-12.9-3.2-25.4-9.4-34.4-19.2c-15.9-17.3-19-43.2-14.5-66.2c1.8-8.9,4.6-17.8,4.3-26.9
				c-0.3-11.1-5.1-21.5-8-32.2c-5.9-21.9-3.4-46.2,8-65.8C124.7,63.8,153.6,50.6,182.6,50.6 M182.6,47c-32.3,0-61.4,15.7-75.9,40.9
				C95.1,108,92.1,133,98.4,156.5c0.9,3.3,2,6.6,3,9.8c2.4,7.4,4.7,14.3,4.9,21.5c0.2,6.3-1.2,12.6-2.7,19.2c-0.5,2.3-1,4.6-1.5,6.8
				c-5.4,27.2,0.4,53.1,15.4,69.4c8.8,9.6,21.3,16.6,36.2,20.3c9.2,2.3,19.6,3.4,31.8,3.4c2.8,0,5.8-0.1,9-0.2
				c18.1-0.7,40.9-3.3,56.6-18.3c15.1-14.4,21.1-38.5,16.5-66.1c-0.7-4-1.5-8.1-2.4-12c-1-4.5-1.9-9.1-2.6-13.7
				c-0.9-6.2-1.2-11.3-0.8-16.1c0.5-6,2.1-11.9,3.8-18.1c0.9-3.4,1.9-6.8,2.6-10.3c6.2-28.7-1.3-58.7-19.7-78.2
				C232.2,56.9,208.2,47,182.6,47L182.6,47z"/>
		</g>
	</g>
</g>
<g>
	<path class="st1" d="M192.5,156.1c1.9,0,3.1,2.1,2.1,3.7c-1.7,2.7-4.8,5.9-10.2,5.9c-5.3,0-8.8-3.1-10.8-5.8c-1.2-1.6,0-3.9,2-3.9
		H192.5z"/>
	<path d="M184.4,167.5c-6.1,0-10-3.5-12.2-6.5c-1-1.3-1.1-3-0.4-4.4c0.7-1.5,2.2-2.4,3.8-2.4h16.9c1.6,0,2.9,0.8,3.7,2.2
		c0.8,1.4,0.7,3-0.1,4.3C194.2,163.9,190.6,167.5,184.4,167.5z M175.5,157.9c-0.3,0-0.5,0.2-0.6,0.4c-0.1,0.2-0.1,0.4,0.1,0.6
		c1.7,2.3,4.8,5,9.3,5c3.7,0,6.6-1.7,8.7-5.1c0.2-0.3,0.1-0.5,0-0.6c-0.1-0.1-0.2-0.3-0.5-0.3H175.5z"/>
</g>
<g>
	<g>
		<g>
			<path class="st3" d="M104.6,173.7c0,0,88.7,74.6,161.4,81.5c0,0-0.9,13.7-4.6,19.2c0,0-109.9-27.5-157.7-83L104.6,173.7z"/>
		</g>
	</g>
	<g>
		<g>
			<path d="M261.4,276.1c-0.1,0-0.3,0-0.4-0.1c-1.1-0.3-111-28.3-158.6-83.5c-0.3-0.4-0.5-0.8-0.4-1.3l0.9-17.7
				c0-0.7,0.5-1.3,1.1-1.6c0.6-0.3,1.4-0.2,1.9,0.3c0.9,0.7,89.1,74.3,160.4,81c1,0.1,1.7,0.9,1.6,1.9c0,0.6-1,14.3-4.9,20.1
				C262.5,275.8,262,276.1,261.4,276.1z M105.5,190.7c44.3,50.8,142.4,78.2,154.9,81.5c2-4,3.1-11.3,3.5-15.5
				c-64.8-7.1-142.2-66.9-157.8-79.4L105.5,190.7z"/>
		</g>
	</g>
</g>
<g>
	<g>
		<path class="st0" d="M274.4,251.6c1.7,0,3.4,0,4.9,0.7c2,0.8,3.4,2.6,4.4,4.5c3.7,7,2.6,15.6,0.9,23.4c-1.5,6.8-3.5,13.7-7.2,19.6
			c-3.7,6-9.3,11-16.1,12.7s-14.7-0.5-18.7-6.2c-2.7-3.8-3.3-8.7-3.5-13.4c-0.4-12.6,2.9-25.7,11.2-35.2
			C256.9,249.9,265.1,251.6,274.4,251.6z"/>
	</g>
	<g>
		<path d="M256.7,314.8c-6.3,0-12.2-2.8-15.6-7.6c-3.1-4.5-3.7-10-3.8-14.3c-0.4-14.4,3.7-27.3,11.6-36.5c6.2-7.1,13.5-6.9,21.3-6.7
			c1.4,0,2.8,0.1,4.2,0.1l0,0c1.8,0,3.7,0,5.6,0.8c2.1,0.9,3.9,2.7,5.3,5.3c4.1,7.6,2.8,16.7,1.1,24.6c-1.4,6.4-3.4,13.7-7.4,20.2
			c-4.3,7-10.4,11.8-17.2,13.5C260.1,314.6,258.3,314.8,256.7,314.8z M266.1,253.3c-5.7,0-10.3,0.8-14.5,5.5
			c-7.3,8.4-11.2,20.5-10.7,34c0.1,3.8,0.6,8.7,3.2,12.4c3.3,4.8,10.4,7.1,16.8,5.5c5.7-1.4,11.2-5.8,15-11.9c3.7-6,5.6-13,6.9-19.1
			c1.6-7.2,2.8-15.5-0.7-22.1c-1-1.9-2.2-3.1-3.5-3.7c-1.2-0.5-2.7-0.5-4.2-0.5c-1.5,0-2.9,0-4.3-0.1
			C268.7,253.3,267.4,253.3,266.1,253.3z"/>
	</g>
</g>
<g>
	<g>
		<path class="st4" d="M271.4,265.6c-3.8-0.4-10.2-2-13.2-0.6c-2.1,0.9-3.6,5.6-0.6,6.3c7.5,1.8,15.4,2,23.1,1.5
			c2.9-0.2,6.9-2.6,3.4-5.1c-2.8-2-8.6-1.8-11.8-2C272,265.6,271.7,265.6,271.4,265.6z"/>
	</g>
	<g>
		<path d="M273.5,274.8c-6,0-11.4-0.6-16.3-1.8c-1.7-0.4-2.9-1.7-3-3.6c-0.2-2.4,1.3-5.3,3.3-6.2c2.8-1.3,7.3-0.6,11.4,0.1
			c1,0.2,2,0.3,2.8,0.4l0.9,0.1c0.5,0,1.2,0.1,1.9,0.1c3.6,0.1,8.1,0.3,10.8,2.2c2.3,1.7,2.3,3.5,2,4.4c-0.7,2.3-3.7,3.8-6.3,4
			C278.3,274.7,275.8,274.8,273.5,274.8z M261.5,266.2c-1.1,0-2,0.1-2.6,0.4c-0.5,0.2-1.3,1.6-1.2,2.5c0,0.3,0.1,0.3,0.3,0.4
			c6.6,1.6,13.9,2,22.6,1.4c1.5-0.1,2.9-0.9,3.1-1.3c0,0.1-0.2-0.2-0.6-0.5c-1.8-1.3-6.1-1.5-8.9-1.6c-0.7,0-1.4-0.1-2-0.1
			c-0.3,0-0.6-0.1-1-0.1l0,0c-0.9-0.1-1.9-0.3-3-0.4C266.2,266.6,263.6,266.2,261.5,266.2z"/>
	</g>
</g>
<g>
	<g>
		<path class="st0" d="M284.5,269.2c-0.4,0-0.9-0.1-1.2,0.2c-0.2,0.2-0.3,0.6-0.3,0.9c-0.6,6-0.4,12.1,0.5,18.1
			c0.1,0.7,0.3,1.4,0.8,1.8c0.4,0.3,0.9,0.3,1.4,0.3c1.2,0,2.4,0,3.6,0c0.8,0,1.6,0,2.3-0.4c1.5-0.9,1.5-2.9,1.2-4.6
			c-0.6-3.9-1.4-7.8-2.6-11.7C289.2,270.1,288.6,269.7,284.5,269.2z"/>
	</g>
	<g>
		<path d="M289.6,292.4c-0.1,0-0.2,0-0.3,0l-3.6,0c-0.6,0-1.5,0-2.4-0.6c-1.3-0.9-1.5-2.4-1.6-3.1c-0.9-6.1-1.1-12.4-0.5-18.5
			c0-0.4,0.1-1.3,0.8-2c0.9-0.9,2.1-0.8,2.6-0.7c0,0,0,0,0,0c4.9,0.5,6.1,1.4,7.4,6c1.2,4,2,8,2.6,11.9c0.5,3.2-0.2,5.4-2.1,6.4
			C291.5,292.3,290.5,292.4,289.6,292.4z M284.8,271.1c-0.5,5.8-0.3,11.5,0.5,17.1c0.1,0.3,0.1,0.5,0.1,0.6c0-0.1,0.2-0.1,0.3-0.1
			l3.6,0c0.5,0,1.1,0,1.4-0.1c0.3-0.2,0.6-1,0.3-2.8c-0.5-3.7-1.4-7.6-2.5-11.4C287.7,271.5,287.7,271.4,284.8,271.1z"/>
	</g>
</g>
<g>
	<path class="st1" d="M171.8,158.5c-2.7,0-4.4-3-3-5.3c2.4-3.9,6.9-8.5,14.6-8.5c7.6,0,12.6,4.4,15.5,8.3c1.7,2.3,0.1,5.6-2.8,5.6
		c0,0-5.1-3.4-12.9-2.9S171.8,158.5,171.8,158.5z"/>
	<path d="M196.2,160.3h-0.5l-0.5-0.3c0,0-4.8-3-11.8-2.6c-7.1,0.4-10.6,2.6-10.6,2.6l-0.4,0.3l-0.5,0c-2,0-3.7-1-4.6-2.7
		c-0.9-1.7-0.9-3.7,0.1-5.4c2.6-4.3,7.6-9.4,16.2-9.4c8.4,0,13.8,4.9,16.9,9c1.2,1.6,1.4,3.7,0.5,5.5
		C200,159.2,198.2,160.3,196.2,160.3z M183.5,146.5c-6.9,0-10.9,4.2-13.1,7.6c-0.5,0.8-0.2,1.4,0,1.7c0.1,0.2,0.4,0.7,1.1,0.8
		c1.4-0.7,5.3-2.4,11.7-2.8c6.8-0.4,11.8,1.9,13.4,2.8c0.7-0.2,1-0.7,1.1-0.9c0.1-0.3,0.4-1-0.2-1.7
		C194.9,150.6,190.4,146.5,183.5,146.5z"/>
</g>
<g>
	<g>
		<path class="st2" d="M164.6,52.4c0,0,6.5-16.1,17.5-12.5c14.6,4.7,17.6-5.4,17.6-5.4s4.8,17.9-11.2,24.6"/>
	</g>
	<g>
		<path d="M188.5,60.9c-0.7,0-1.4-0.4-1.7-1.1c-0.4-0.9,0.1-2,1-2.4c9.7-4.1,11-12.6,10.7-17.9c-0.7,0.7-1.6,1.4-2.7,1.9
			c-3.8,2-8.6,2.1-14.3,0.2c-9.3-3-15.2,11.3-15.3,11.5c-0.4,0.9-1.4,1.4-2.4,1c-0.9-0.4-1.4-1.4-1-2.4c0.3-0.7,7.3-17.6,19.7-13.6
			c4.8,1.5,8.6,1.5,11.5,0.1c2.9-1.5,3.8-4.1,3.8-4.3c0.2-0.8,1-1.3,1.8-1.3c0.8,0,1.5,0.6,1.7,1.3c0.1,0.2,5,19.5-12.2,26.7
			C189,60.8,188.7,60.9,188.5,60.9z"/>
	</g>
</g>
<g>
	<g>
		<path class="st2" d="M109.8,200c16.6,13,40.9,15.4,59.7,5.9c3.5-1.8,7.3-4,11-2.7c1.5,0.5,2.8,1.6,3.9,2.8c3.4,4,4.5,9.6,3.9,14.8
			c-0.7,5.2-2.9,10.1-5.6,14.6c-7.7,13.2-19.5,24.6-34.2,28.9c-5.5,1.6-11.6,2.2-16.8-0.2"/>
	</g>
	<g>
		<path d="M139.6,267.5c-3.2,0-6.1-0.6-8.7-1.8c-0.9-0.4-1.3-1.5-0.9-2.4c0.4-0.9,1.5-1.3,2.4-0.9c5.2,2.4,11.3,1.4,15.6,0.1
			c13-3.8,24.7-13.8,33.1-28.1c3.2-5.4,4.8-9.7,5.4-13.9c0.7-5.2-0.6-10.1-3.4-13.3c-1-1.1-2-1.9-3.1-2.3c-2.7-0.9-5.9,0.7-8.9,2.3
			l-0.7,0.4c-19.6,9.9-44.3,7.5-61.6-6.1c-0.8-0.6-0.9-1.8-0.3-2.5c0.6-0.8,1.8-0.9,2.5-0.3c15.9,12.5,39.7,14.8,57.7,5.7l0.7-0.4
			c3.5-1.8,7.6-3.9,11.7-2.5c1.7,0.6,3.2,1.7,4.7,3.3c3.5,4.1,5.1,10,4.3,16.2c-0.8,6.1-3.7,11.6-5.8,15.3
			c-8.8,15.1-21.3,25.7-35.2,29.7C145.7,267,142.5,267.5,139.6,267.5z"/>
	</g>
</g>
<g>
	<g>
		<path class="st2" d="M255.4,200c-16.6,13-40.9,15.4-59.7,5.9c-3.5-1.8-7.3-4-11-2.7c-1.5,0.5-2.8,1.6-3.9,2.8
			c-3.4,4-4.5,9.6-3.9,14.8c0.7,5.2,2.9,10.1,5.6,14.6c7.7,13.2,19.5,24.6,34.2,28.9c17.6,5.2,33.9-6.1,43.6-20.2"/>
	</g>
	<g>
		<path d="M225.6,267.4c-3.1,0-6.2-0.4-9.4-1.4c-13.9-4.1-26.4-14.7-35.2-29.7c-2.1-3.6-5-9.1-5.8-15.3c-0.8-6.2,0.8-12.1,4.3-16.2
			c1.4-1.6,3-2.8,4.7-3.3c4.2-1.4,8.2,0.7,11.7,2.5l0.7,0.4c18.1,9.1,41.8,6.8,57.7-5.7c0.8-0.6,1.9-0.5,2.5,0.3
			c0.6,0.8,0.5,1.9-0.3,2.5c-17.3,13.6-42,16-61.6,6.1l-0.7-0.4c-3.1-1.6-6.2-3.2-8.9-2.3c-1,0.3-2.1,1.1-3.1,2.3
			c-2.9,3.3-4.1,8.1-3.4,13.3c0.7,5.5,3.4,10.5,5.4,13.9c8.4,14.3,20.1,24.3,33.1,28.1c17.3,5.1,32.8-6.7,41.6-19.5
			c0.6-0.8,1.7-1,2.5-0.5c0.8,0.6,1,1.7,0.5,2.5C253.9,256.6,240.8,267.4,225.6,267.4z"/>
	</g>
</g>
<g>
	<path class="st4" d="M205.5,142.6c-0.3,2.5,0.2,5.2,2,7c1.6,1.6,5.4,2.8,7.3,1.1c2.6-2.4,1.8-6.8-0.8-9.5"/>
	<path d="M212.2,153.4c-2.3,0-4.7-1.1-6-2.5c-2-2-2.9-5.1-2.5-8.5c0.1-1,1-1.7,2-1.6c1,0.1,1.7,1,1.6,2c-0.1,1.1-0.2,3.8,1.5,5.5
		c1.2,1.2,3.8,1.9,4.8,1c0.6-0.6,1-1.4,1-2.4c0.1-1.5-0.7-3.3-1.9-4.6c-0.7-0.7-0.7-1.9,0.1-2.6c0.7-0.7,1.9-0.7,2.6,0.1
		c1.9,2,3,4.7,2.9,7.2c-0.1,2-0.8,3.7-2.2,4.9C214.9,153,213.6,153.4,212.2,153.4z"/>
</g>
<g>
	<path class="st4" d="M160.9,142.6c0.3,2.5-0.2,5.2-2,7c-1.6,1.6-5.4,2.8-7.3,1.1c-2.6-2.4-1.8-6.8,0.8-9.5"/>
	<path d="M154.1,153.4c-1.4,0-2.7-0.4-3.7-1.4c-1.4-1.3-2.1-3-2.2-4.9c-0.1-2.5,1-5.2,2.9-7.2c0.7-0.7,1.8-0.7,2.6-0.1
		c0.7,0.7,0.7,1.8,0.1,2.6c-1.2,1.3-1.9,3-1.9,4.6c0,1,0.4,1.8,1,2.4c1,0.9,3.6,0.2,4.8-1c1.7-1.7,1.6-4.4,1.5-5.6
		c-0.1-1,0.6-1.9,1.6-2c1-0.1,1.9,0.6,2,1.6c0.4,3.4-0.6,6.5-2.5,8.5C158.8,152.3,156.4,153.4,154.1,153.4z"/>
</g>
<g>
	<g>
		<path class="st4" d="M161.5,129.9c1.5,0.1,2.9,0.2,4.4,0.2c2.4,0.1,3.9,0.7,5.7,2.4c0.8,0.8,1.5,1.7,1.6,2.8
			c0.2,1.1-0.3,2.3-1.2,2.8c-1.5,0.8-4.2-0.1-5.8-0.2c-2.2-0.2-4.4-0.4-6.6-0.5c-1.7-0.1-3.5-0.1-5.2-0.3c-2.6-0.3-5.1-3.5-3-5.8
			c1.9-2.1,4.7-1.8,7.2-1.6C159.5,129.8,160.5,129.9,161.5,129.9z"/>
		<path d="M170.3,140.3c-1,0-2.1-0.2-3-0.3c-0.5-0.1-1-0.2-1.3-0.2l-6.6-0.5c-0.7-0.1-1.5-0.1-2.2-0.1c-1,0-2.1-0.1-3.1-0.2
			c-2.2-0.3-4.3-1.9-5.1-4c-0.6-1.7-0.3-3.5,1-4.8c2.4-2.5,5.6-2.4,8.1-2.2l7.9,0.4c2.9,0.2,4.9,1,6.8,2.9c1.2,1.2,1.9,2.5,2.2,3.8
			c0.3,2-0.6,3.9-2.2,4.7C172,140.2,171.2,140.3,170.3,140.3z M156.2,131.5c-1.6,0-2.7,0.2-3.5,1.1c-0.3,0.3-0.4,0.7-0.2,1.1
			c0.3,0.8,1.3,1.6,2.1,1.7c0.9,0.1,1.8,0.1,2.7,0.1c0.8,0,1.6,0,2.4,0.1l6.6,0.5c0.5,0,1.1,0.1,1.7,0.2c1,0.2,2.6,0.4,3.2,0.2
			c0.2-0.1,0.3-0.5,0.3-0.9c-0.1-0.5-0.5-1.2-1.1-1.8c-1.3-1.3-2.4-1.8-4.5-1.9l-7.9-0.4C157.3,131.5,156.7,131.5,156.2,131.5z"/>
	</g>
	<g>
		<circle class="st5" cx="161.9" cy="133.8" r="3"/>
	</g>
	<g>
		<path class="st4" d="M206.5,129.9c-1.5,0.1-2.9,0.2-4.4,0.2c-2.4,0.1-3.9,0.7-5.7,2.4c-0.8,0.8-1.5,1.7-1.6,2.8
			c-0.2,1.1,0.3,2.3,1.2,2.8c1.5,0.8,4.2-0.1,5.8-0.2c2.2-0.2,4.4-0.4,6.6-0.5c1.7-0.1,3.5-0.1,5.2-0.3c2.6-0.3,5.1-3.5,3-5.8
			c-1.9-2.1-4.7-1.8-7.2-1.6C208.5,129.8,207.5,129.9,206.5,129.9z"/>
		<path d="M197.7,140.3c-0.9,0-1.7-0.1-2.5-0.5c-1.6-0.8-2.5-2.8-2.2-4.7c0.2-1.3,0.9-2.6,2.2-3.8c2-2,3.9-2.8,6.8-2.9l7.9-0.4
			c2.6-0.2,5.7-0.3,8.1,2.2c1.3,1.3,1.6,3.1,1,4.8c-0.8,2.1-2.9,3.7-5.1,4c-1,0.1-2,0.1-3.1,0.2c-0.7,0-1.5,0-2.2,0.1l-6.6,0.5
			c-0.4,0-0.9,0.1-1.3,0.2C199.8,140.1,198.7,140.3,197.7,140.3z M206.6,131.7l-4.4,0.2c-2,0.1-3.1,0.6-4.5,1.9
			c-0.7,0.6-1,1.3-1.1,1.8c-0.1,0.4,0.1,0.8,0.3,0.9c0.5,0.3,2.2,0,3.2-0.2c0.6-0.1,1.2-0.2,1.7-0.2l6.6-0.5
			c0.8-0.1,1.6-0.1,2.4-0.1c0.9,0,1.9,0,2.7-0.1c0.8-0.1,1.8-0.9,2.1-1.7c0.2-0.4,0.1-0.8-0.2-1.1c-1.1-1.2-2.8-1.2-5.3-1.1
			L206.6,131.7z"/>
	</g>
	<g>
		<circle class="st5" cx="206.1" cy="133.8" r="3"/>
	</g>
</g>
</svg>
