<svg xml:space="preserve" style="enable-background:new 0 0 250 250;" viewBox="0 0 250 250" y="0px" x="0px" xmlns:xlink="http://www.w3.org/1999/xlink" xmlns="http://www.w3.org/2000/svg" id="레이어_1" version="1.1">
<g>
	<path d="M206.6,247.3H42.9c-22.5,0-40.7-18.2-40.7-40.7V42.9c0-22.5,18.2-40.7,40.7-40.7h163.6
		c22.5,0,40.7,18.2,40.7,40.7v163.6C247.3,229.1,229.1,247.3,206.6,247.3z" style="fill:#5E8CFF;"></path>
	<path d="M206.1,250H43.4c-24.2,0-43.9-19.7-43.9-43.9V43.4c0-24.2,19.7-43.9,43.9-43.9h162.8c24.2,0,43.9,19.7,43.9,43.9v162.8
		C250,230.3,230.3,250,206.1,250z M43.4,4.9C22.2,4.9,4.9,22.2,4.9,43.4v162.8c0,21.2,17.2,38.4,38.4,38.4h162.8
		c21.2,0,38.4-17.2,38.4-38.4V43.4c0-21.2-17.2-38.4-38.4-38.4H43.4z"></path>
</g>
<g>
	<path d="M158.5,67.5c-18.9-24.9-54.5-29.8-79.4-11s-29.8,54.5-11,79.4c17.6,23.3,49.9,29.1,74.3,14.4
		l39.4,52.1c2,2.7,5.8,3.2,8.5,1.2s3.2-5.8,1.2-8.5l-39.4-52.1C173,123.4,176.1,90.8,158.5,67.5z M140.2,137.2
		c-19.6,14.8-47.6,10.9-62.4-8.6S66.9,81,86.5,66.2s47.6-10.9,62.4,8.6C163.7,94.4,159.8,122.4,140.2,137.2z" style="fill:#FFFFFF;"></path>
	<path d="M113.3,45.1c17.2,0,34.1,7.7,45.2,22.4c17.6,23.3,14.5,55.9-6.4,75.4l39.4,52.1c2,2.7,1.5,6.5-1.2,8.5
		c-1.1,0.8-2.4,1.2-3.7,1.2c-1.8,0-3.6-0.8-4.8-2.4l-39.4-52.1c-9,5.4-19.1,8.1-29.1,8.1c-17.1,0-34.1-7.7-45.2-22.4
		c-18.9-24.9-13.9-60.5,11-79.4C89.4,48.8,101.4,45.1,113.3,45.1 M113.4,146.2c9.4,0,18.8-2.9,26.8-9c19.6-14.8,23.5-42.8,8.6-62.4
		c-8.7-11.6-22.1-17.6-35.6-17.6c-9.4,0-18.8,2.9-26.8,9C66.9,81,63,109,77.8,128.6C86.6,140.1,99.9,146.2,113.4,146.2 M113.3,39.6
		c-13.6,0-26.5,4.3-37.4,12.6c-13.2,10-21.7,24.6-24,41c-2.3,16.4,2,32.8,12,46c11.8,15.6,29.9,24.6,49.6,24.6
		c9.6,0,19.1-2.2,27.6-6.5l36.6,48.3c2.2,2.9,5.6,4.6,9.2,4.6c2.5,0,4.9-0.8,6.9-2.3c2.4-1.9,4-4.5,4.4-7.6c0.4-3-0.4-6.1-2.2-8.5
		l-36.6-48.3c20-21.9,21.7-55.1,3.5-79.2C151,48.6,132.9,39.6,113.3,39.6L113.3,39.6z M113.4,140.8c-12.4,0-23.8-5.6-31.2-15.5
		c-6.3-8.3-9-18.6-7.5-29c1.4-10.4,6.8-19.5,15.1-25.8c6.8-5.2,15-7.9,23.5-7.9c12.4,0,23.8,5.6,31.2,15.5
		c13,17.2,9.6,41.8-7.6,54.8C130.1,138.1,122,140.8,113.4,140.8L113.4,140.8z"></path>
</g>
</svg>
