<?xml version="1.0" encoding="utf-8"?>
<!-- Generator: Adobe Illustrator 24.1.1, SVG Export Plug-In . SVG Version: 6.00 Build 0)  -->
<svg version="1.1" id="Layer_1" xmlns="http://www.w3.org/2000/svg" xmlns:xlink="http://www.w3.org/1999/xlink" x="0px" y="0px"
	 viewBox="0 0 270 240" style="enable-background:new 0 0 270 240;" xml:space="preserve">
<g>
	<path style="fill:#FFEA6C;" d="M238.92,130.61c-9.24,2.12-34.76,6.86-81.19,7.82h-0.05c-32.92-1.49-71.9-3.05-91.21-3.05
		c-2.15,0-4.06,0.02-5.7,0.07c-0.51,0.01-1,0.02-1.48,0.02c-7.2,0-12.73-1.33-16.23-3.81c-0.6-0.43-1.15-0.9-1.62-1.41
		c-0.08-0.07-0.15-0.15-0.22-0.24c-0.07-0.05-0.12-0.12-0.16-0.18c-0.22-0.25-0.41-0.5-0.59-0.77c-0.1-0.13-0.19-0.27-0.27-0.42
		c-0.31-0.51-0.57-1.04-0.78-1.6c-1.79-4.83,0.74-11.44,6.13-16.05c4.48-3.84,8.6-5.55,12.95-7.38c6.84-2.85,14.58-6.09,24.73-17.67
		c15.73-17.94,37.01-32.27,37.21-32.42c0.57-0.38,1.01-0.99,1.22-1.64c0.03-0.1,0.86-2.5,3.81-4.26c0.86-0.51,1.39-1.42,1.47-2.4
		c0.01-0.07,0.01-0.13,0.01-0.2c0.1-0.91,0.56-4.46,1.86-8.3c1.82-5.43,5.31-11.45,11.8-11.45c0.81,0,1.68,0.1,2.58,0.27
		c15.63,3.11,20.82,17.11,21.03,17.7c0.29,0.83,0.92,1.5,1.73,1.83c0.37,0.14,0.77,0.22,1.15,0.22c0.47,0,0.94-0.11,1.37-0.33
		c0.07-0.03,6.8-3.36,14.08-3.36c2.99,0,5.62,0.57,7.84,1.69c7.78,3.92,13.84,18.23,15.53,23.42c0.2,0.61,0.58,1.14,1.09,1.53
		c17.48,12.89,32.16,26.87,32.09,30.46c-0.1,0.46-0.09,0.96,0.03,1.42C239.16,100.26,241.94,111.4,238.92,130.61z"/>
	<path style="fill:#FFB300;" d="M48.13,171.77l2.68-0.79c-0.05-0.14-0.16-0.43-0.32-0.82c0.57,1.03,1.16,2.02,1.8,2.97
		C50.73,172.73,49.3,172.23,48.13,171.77z"/>
	<path style="fill:#FFB300;" d="M255.03,80.36c0,0,0.36,28.28-5.75,67.26c-3.16,20.24-10.41,37.96-20.79,44.05
		c-0.07,0.03-0.14,0.07-0.25,0.11c-0.12,0.04-0.29,0.09-0.46,0.14c-0.21,0.07-0.47,0.13-0.76,0.2l-7.57,2.28
		c0.4-0.16,0.78-0.36,1.16-0.58c0.37-0.22,0.75-0.46,1.11-0.72c-1.05,0.16-2.21,0.34-3.47,0.53c-3.16,0.47-6.95,0.99-11.24,1.54
		c-0.86,0.11-1.73,0.22-2.62,0.33c-0.23,0.02-0.46,0.05-0.69,0.09c-0.57,0.07-1.14,0.13-1.72,0.21c-1.16,0.14-2.35,0.29-3.57,0.43
		c-0.6,0.08-1.23,0.14-1.84,0.22c-5.15,0.6-10.73,1.22-16.6,1.83c-0.88,0.09-1.76,0.19-2.65,0.27c-1.06,0.11-2.14,0.22-3.23,0.33
		c-6.73,0.68-13.76,1.34-20.89,1.94c-0.77,0.07-1.53,0.13-2.29,0.2c-5.27,0.45-10.58,0.87-15.85,1.24
		c-1.54,0.11-3.05,0.22-4.58,0.32c-0.93,0.08-1.87,0.13-2.8,0.19c-2.17,0.14-4.34,0.29-6.48,0.41c-0.38,0.02-0.76,0.04-1.14,0.07
		c-2.26,0.13-4.5,0.25-6.71,0.35c-0.85,0.04-1.68,0.09-2.5,0.12c-4.28,0.2-8.44,0.35-12.44,0.45c-0.76,0.02-1.5,0.04-2.25,0.05
		c-17.72,0.38-31.81-0.31-37.66-2.76c-0.08-0.03-0.15-0.05-0.23-0.1c-0.08-0.02-0.14-0.07-0.22-0.1c-0.15-0.08-0.31-0.14-0.45-0.22
		c-0.15-0.08-0.29-0.16-0.42-0.25c-0.13-0.08-0.26-0.16-0.37-0.25c-0.42-0.31-0.82-0.61-1.21-0.91c-4.54-3.52-7.57-6.83-9.51-9.87
		c-0.13-0.2-0.25-0.41-0.37-0.6c-0.83-1.39-1.44-2.73-1.86-4.01c-0.12-0.36-0.22-0.72-0.31-1.08c-0.04-0.13-0.07-0.26-0.1-0.4
		c-0.24-1.09-0.35-2.13-0.35-3.11c0-0.22,0.01-0.44,0.02-0.66c0.02-0.52,0.08-1.01,0.15-1.49c0.02-0.14,0.04-0.29,0.08-0.42
		c0.03-0.21,0.09-0.42,0.13-0.63c0.4-1.6,1.04-2.98,1.73-4.11c0.9,2.11,3.36,5.16,9.8,8.62c3.18,1.71,5.95,1.26,8.17-0.18
		c0.53,0.12,1.06,0.21,1.61,0.26c9.48,0.97,51.74,3.52,90.07,3.52c30.43,0,58.38-1.61,65.54-6.9c16.19-11.95,3.61-35.27,3.61-35.27
		l-144.97,6.86h-0.03c0,0-0.31,0-0.89,0c-3.72,0-18.49-0.21-33.55-3.45h-0.01c-4.27-2.71-6.76-6.58-8-10.63
		c-0.08-0.25-0.14-0.51-0.21-0.76c-0.2-0.71-0.35-1.43-0.47-2.15c-0.04-0.29-0.09-0.56-0.12-0.85c-0.22-1.75-0.25-3.48-0.12-5.12
		c0.04-0.64,0.12-1.27,0.22-1.88v-0.03c0.02-0.14,0.05-0.29,0.08-0.42c1.51,1.01,2.9,2.34,4.25,3.74c0.09,0.14,0.18,0.29,0.27,0.42
		c0.19,0.26,0.37,0.52,0.59,0.77c0.04,0.05,0.1,0.12,0.16,0.18c0.07,0.09,0.14,0.18,0.22,0.24c0.47,0.5,1.02,0.98,1.62,1.41
		c2.8,2.82,5.88,5.29,10.28,5.52c0,0,35.23,0.77,74.65,1.33c10.73,0.15,20.61,0.11,29.69-0.08h0.05c46.44-0.96,71.95-5.7,81.19-7.82
		c1.48-0.34,2.56-0.61,3.22-0.79c2.88-19.41-0.04-30.46-0.04-30.46c1.68-7.81-33.26-33.58-33.26-33.58s-6.41-19.85-17.06-25.21
		c-2.94-1.48-6.14-2.02-9.22-2.02c-8.1,0-15.46,3.69-15.46,3.69s-5.68-16.18-23.33-19.69c-1.12-0.22-2.17-0.33-3.17-0.33
		c-2,0-3.77,0.42-5.32,1.14c-0.03,0.01-0.07,0.03-0.1,0.04c1.93-2.09,4.36-3.71,7.41-4.39c1.02-0.23,2.12-0.35,3.28-0.35
		c1.08,0,2.21,0.1,3.41,0.33c18.93,3.55,25.06,19.74,25.06,19.74s0.29-0.34,0.83-0.86l0.24-0.24c0.26-0.25,0.57-0.53,0.92-0.82
		c0.19-0.15,0.37-0.32,0.58-0.47c0.5-0.42,1.08-0.85,1.7-1.25c0.25-0.19,0.53-0.36,0.8-0.53c0.35-0.22,0.72-0.43,1.1-0.64
		c2.28-1.24,5.08-2.23,8.2-2.23c2.04,0,4.23,0.43,6.49,1.49c11.42,5.38,23.26,24.22,23.26,24.22S256.82,72.56,255.03,80.36z"/>
	<g>
		<path style="fill:#F18B2D;" d="M221.71,193.1c-0.36,0.26-0.74,0.51-1.11,0.72c-0.38,0.22-0.77,0.42-1.16,0.58l-0.03,0.01
			l-2.14,0.65c-3.57,2-77.29,9.81-123.98,9.81c-4.16,0-8.11-0.07-11.78-0.2c-0.46-0.02-0.91-0.03-1.36-0.05
			c-2.9-0.12-5.6-0.3-8.08-0.52c-0.77-0.07-1.5-0.14-2.23-0.22c-1-0.11-1.94-0.23-2.85-0.35c-0.9-0.13-1.75-0.27-2.55-0.42
			c-0.33-0.05-0.66-0.12-0.98-0.2c-0.56-0.11-1.1-0.23-1.61-0.36c-0.03,0-0.07-0.01-0.1-0.02c-0.47-0.12-0.92-0.25-1.34-0.37
			c-0.08-0.01-0.14-0.03-0.22-0.07c-0.63-0.2-1.2-0.42-1.7-0.65c5.85,2.45,19.95,3.14,37.66,2.76c0.75-0.01,1.49-0.03,2.25-0.05
			c4-0.1,8.16-0.25,12.44-0.45c0.82-0.03,1.66-0.08,2.5-0.12c2.21-0.1,4.45-0.22,6.71-0.35c0.38-0.02,0.76-0.04,1.14-0.07
			c2.14-0.12,4.3-0.26,6.48-0.41c0.93-0.05,1.87-0.11,2.8-0.19c1.53-0.1,3.04-0.21,4.58-0.32c5.27-0.37,10.58-0.79,15.85-1.24
			c0.77-0.07,1.53-0.13,2.29-0.2c7.14-0.6,14.16-1.26,20.89-1.94c1.09-0.11,2.16-0.22,3.23-0.33c0.89-0.09,1.77-0.19,2.65-0.27
			c5.87-0.61,11.45-1.23,16.6-1.83c0.61-0.08,1.24-0.14,1.84-0.22c1.22-0.14,2.4-0.29,3.57-0.43c0.58-0.08,1.15-0.14,1.72-0.21
			c0.23-0.03,0.46-0.07,0.69-0.09c0.89-0.11,1.77-0.22,2.62-0.33c4.29-0.55,8.08-1.06,11.24-1.54
			C219.5,193.44,220.65,193.27,221.71,193.1z"/>
	</g>
	<path style="fill:#F18B2D;" d="M66.46,135.38c19.31,0,58.29,1.56,91.21,3.05c-9.09,0.19-18.97,0.23-29.69,0.08
		c-39.42-0.56-74.65-1.33-74.65-1.33c-4.39-0.23-7.48-2.7-10.28-5.52c3.49,2.48,9.02,3.81,16.23,3.81c0.48,0,0.98-0.01,1.48-0.02
		C62.4,135.4,64.31,135.38,66.46,135.38z"/>
	<path style="fill:#FFB300;" d="M43.06,131.66c-1.21-0.87-2.17-1.87-2.88-3.01C41.13,129.64,42.08,130.67,43.06,131.66z"/>
	<path style="fill:#FFEA6C;" d="M63.18,181.71c-2.22,1.44-4.98,1.89-8.17,0.18c-6.44-3.46-8.9-6.51-9.8-8.62
		c-0.03-0.08-0.07-0.15-0.09-0.22c-0.04-0.12-0.09-0.23-0.12-0.34l0.72-0.22l2.4-0.71c1.17,0.46,2.6,0.96,4.16,1.36
		c0.18,0.26,0.35,0.53,0.54,0.78c0.66,0.93,1.36,1.81,2.1,2.62c0.24,0.26,0.48,0.52,0.75,0.77c0.24,0.25,0.51,0.5,0.77,0.74
		c0.91,0.82,1.89,1.55,2.92,2.14c0.45,0.26,0.91,0.5,1.39,0.71c0.22,0.1,0.44,0.19,0.67,0.27c0.03,0.02,0.08,0.03,0.12,0.04
		c0.22,0.09,0.44,0.16,0.67,0.23C62.53,181.54,62.85,181.63,63.18,181.71z"/>
	<path style="fill:#FF0000;" d="M218.58,176.13c-3.18,2.35-15.7,6.3-63.72,6.3c-38.28,0-80.27-2.55-89.77-3.51
		c-4.86-0.49-8.74-4.59-11.7-9.85c-3.34-5.91-5.54-13.31-6.73-18.78c14.17,2.72,27.42,2.96,31.45,2.96c0.61,0,0.94-0.01,1.03-0.01
		l77.58-3.67l65.39-3.1c0.96,2.14,2.48,6.1,3.15,10.6C226.53,165.51,224.28,171.92,218.58,176.13z"/>
	<path style="fill:#F18B2D;" d="M218.73,112.02c-0.55,0-1.08-0.3-1.36-0.82c-19.5-37.22-82.97-55.75-83.61-55.93
		c-0.81-0.23-1.28-1.08-1.05-1.89c0.23-0.82,1.07-1.31,1.89-1.05c2.66,0.76,65.37,19.07,85.48,57.45c0.39,0.75,0.1,1.68-0.65,2.07
		C219.21,111.96,218.97,112.02,218.73,112.02z"/>
	<path style="fill:#FFB300;" d="M107.64,118.61c-3.1,0.48-7.62,0.72-13.47,0.72c-7.57,0-15.97-0.42-21.69-0.77
		c-0.6-0.03-0.76-0.37-0.71-0.38c5.53-3.27,13.76-7.88,21.44-11.25c1.34-0.58,2.74-0.88,4.17-0.88c6.54,0,12.55,6.26,12.86,10.19
		C110.28,116.96,110.37,118.18,107.64,118.61z"/>
	<path style="fill:#FFB300;" d="M111.56,120.97c-0.55,0.09-1.12,0.16-1.72,0.24c8.89-3.18-0.79-18.23-12.46-18.23
		c-1.77,0-3.59,0.35-5.4,1.14c-7.68,3.37-15.84,7.93-21.77,11.43c-2.37,1.39-1.87,4.4,0.33,5.59c-7.98-0.46-13.74-0.96-13.74-0.96
		s18.96-12.59,35.93-20.21C109.68,92.35,127.37,118.41,111.56,120.97z"/>
	<path style="fill:#FF0000;" d="M107.64,118.61c-3.1,0.48-7.62,0.72-13.47,0.72c-7.57,0-15.97-0.42-21.69-0.77
		c-0.6-0.03-0.76-0.37-0.71-0.38c5.53-3.27,13.76-7.88,21.44-11.25c1.34-0.58,2.74-0.88,4.17-0.88c6.54,0,12.55,6.26,12.86,10.19
		C110.28,116.96,110.37,118.18,107.64,118.61z"/>
	<path style="fill:#82340D;" d="M97.37,102.97c-1.77,0-3.59,0.35-5.4,1.14c-7.68,3.37-15.84,7.93-21.77,11.43
		c-2.37,1.39-1.87,4.4,0.33,5.59c0.51,0.27,1.09,0.45,1.76,0.49c6.3,0.38,14.47,0.78,21.88,0.78c5.38,0,10.36-0.21,13.94-0.77
		c0.63-0.1,1.19-0.24,1.69-0.43c0.01,0.01,0.02,0,0.03,0C118.73,118.02,109.04,102.97,97.37,102.97z M107.64,118.61
		c-3.1,0.48-7.62,0.72-13.47,0.72c-7.57,0-15.97-0.42-21.69-0.77c-0.6-0.03-0.76-0.37-0.71-0.38c5.53-3.27,13.76-7.88,21.44-11.25
		c1.34-0.58,2.74-0.88,4.17-0.88c6.54,0,12.55,6.26,12.86,10.19C110.28,116.96,110.37,118.18,107.64,118.61z"/>
	<path style="fill:#FFD14A;" d="M97.96,81.23c0,0,15.48-21.65,25.93-22.54c10.45-0.89-8.5,12.79-2.78,15.12s18.57-3.74,20.51,0.17
		c1.94,3.91-8.1,10.51-4.13,13.06c3.97,2.55,9.75,3.17,20.68,5.45c10.93,2.28,25.89,23.91,20.03,26.45
		c-5.86,2.54-20.99,4.94-20.99,4.94s-31.01,10.43-35.56,7.82c-4.55-2.62,17.21-11.45,12.34-23.56s-22.52-21.99-29.6-17.85
		C97.33,94.44,88.89,92.2,97.96,81.23z"/>
	<path style="fill:#9C0C0A;" d="M165.64,171.81c-0.34,3.46-2.92,6.35-6.71,8.07l-9.58-0.15c3.01-1.99,4.98-4.78,5.3-8.01
		c0.25-2.68-0.65-5.34-2.59-7.68c-1.6-1.92-3.84-3.51-6.45-4.65c1.59-0.21,3.26-0.25,4.98-0.1
		C159.49,160.07,166.23,165.69,165.64,171.81z"/>
	<path style="fill:#FF2626;" d="M151.64,170.84c0,0.2-0.01,0.4-0.03,0.59c-0.4,4.14-4.72,7.3-10.44,8.16h-0.04l-6.85-0.11
		c-4.14-0.72-7.75-2.59-9.91-5.18c-1.42-1.7-2.07-3.58-1.9-5.43c0.46-4.85,6.35-8.39,13.52-8.39c0.65,0,1.31,0.02,1.96,0.09
		c0.76,0.07,1.5,0.18,2.23,0.32c3.98,0.76,7.44,2.6,9.53,5.12C150.97,167.52,151.64,169.18,151.64,170.84z"/>
	<path style="fill:#C21D1D;" d="M154.66,171.72c-0.32,3.24-2.29,6.03-5.3,8.01l-8.19-0.14c5.72-0.86,10.04-4.02,10.44-8.16
		c0.02-0.2,0.03-0.4,0.03-0.59c0-1.66-0.67-3.32-1.93-4.84c-2.09-2.51-5.54-4.36-9.53-5.12c-0.72-0.14-1.47-0.25-2.23-0.32
		c-0.66-0.07-1.32-0.09-1.96-0.09c-7.18,0-13.06,3.53-13.52,8.39c-0.18,1.86,0.48,3.73,1.9,5.43c2.16,2.59,5.77,4.46,9.91,5.18
		l-8.76-0.14c-1.36-0.89-2.55-1.92-3.51-3.07c-1.95-2.35-2.84-5.01-2.59-7.7c0.66-6.96,9.1-11.94,18.82-11.05
		c2.62,0.23,5.15,0.88,7.39,1.87c2.61,1.14,4.85,2.73,6.45,4.65C154.01,166.38,154.91,169.04,154.66,171.72z"/>
	<path style="fill:#C21D1D;" d="M148.77,213.42c-0.34,0-0.69,0-1.04-0.01c0.26-0.02,0.52-0.05,0.77-0.1
		C148.58,213.35,148.68,213.39,148.77,213.42z"/>
	<path style="fill:#9C0C0A;" d="M189.55,167.54c-1.3,0.12-2.63,0.12-4.01,0c-8.88-0.79-15.62-6.4-15.04-12.54
		c0.19-2.01,1.14-3.83,2.66-5.34l6.63-0.32c-0.38,1.02-0.64,2.1-0.75,3.22c-0.33,3.46,0.8,6.94,3.19,9.81
		C184.12,164.65,186.66,166.41,189.55,167.54z"/>
	<path style="fill:#9C0C0A;" d="M102.36,161.89c-0.58,6.14-8.26,10.47-17.15,9.68c-2.67-0.24-5.14-0.91-7.28-1.9
		c0.86,0.2,1.73,0.33,2.62,0.41c0.64,0.05,1.26,0.08,1.89,0.08c4.45,0,8.55-1.42,11.64-3.78c3.07-2.36,5.13-5.66,5.49-9.46
		c0.07-0.72,0.08-1.46,0.01-2.18C101.56,156.82,102.61,159.3,102.36,161.89z"/>
	<path style="fill:#FF2626;" d="M96.53,156.62c-0.61,6.45-7.66,11.11-15.7,10.41c-4.05-0.36-7.73-2.03-10.26-4.63
		c-0.23-0.24-0.46-0.49-0.68-0.76c-1.9-2.28-2.77-4.9-2.51-7.57c0.01-0.13,0.03-0.26,0.04-0.4c1.9,0.34,3.51,0.54,4.84,0.64
		c0.03,0.01,0.05,0.01,0.09,0.01c0.24,0.02,0.47,0.03,0.69,0.04c0.05,0.01,0.11,0.01,0.16,0.01c0.19,0.01,0.37,0.02,0.55,0.02
		c2.25,0.1,3.33-0.09,3.33-0.09l19.2-0.92C96.55,154.44,96.63,155.52,96.53,156.62z"/>
	<path style="fill:#C21D1D;" d="M99.57,156.92c-0.36,3.8-2.42,7.1-5.49,9.46c-3.08,2.36-7.19,3.78-11.64,3.78
		c-0.63,0-1.25-0.02-1.89-0.08c-0.89-0.08-1.77-0.21-2.62-0.41c-4.18-0.91-7.88-3.05-10.41-6.08c-2.39-2.88-3.52-6.37-3.19-9.83
		c0.02-0.23,0.05-0.46,0.09-0.69c0.52,0.11,1.02,0.22,1.5,0.31c0.52,0.11,1.01,0.2,1.49,0.29c-0.01,0.13-0.03,0.26-0.04,0.4
		c-0.25,2.68,0.61,5.29,2.51,7.57c0.22,0.26,0.45,0.52,0.68,0.76c2.54,2.6,6.21,4.27,10.26,4.63c8.04,0.7,15.08-3.95,15.7-10.41
		c0.1-1.1,0.02-2.18-0.25-3.24l1.55-0.08L98,153.3l1.37-0.07c0.1,0.49,0.16,1,0.21,1.5C99.65,155.46,99.64,156.19,99.57,156.92z"/>
	<path style="fill:#FF2626;" d="M211.29,154.51c0,0.31-0.01,0.6-0.04,0.91c-0.6,6.28-7.33,10.89-15.11,10.44
		c-0.2-0.01-0.4-0.02-0.59-0.04c-4.43-0.4-8.42-2.36-10.94-5.39c-1.9-2.28-2.77-4.9-2.5-7.57c0.12-1.31,0.52-2.54,1.12-3.67
		l14.05-0.68l11.55-0.56C210.46,149.95,211.29,152.19,211.29,154.51z"/>
	<path style="fill:#C21D1D;" d="M214.3,155.71c-0.36,3.8-2.42,7.11-5.5,9.47c-3.08,2.36-7.19,3.78-11.65,3.78
		c-0.61,0-1.24-0.03-1.88-0.09c-2.01-0.18-3.93-0.63-5.72-1.33c-2.9-1.13-5.43-2.9-7.31-5.16c-2.39-2.88-3.52-6.36-3.19-9.81
		c0.11-1.12,0.36-2.2,0.75-3.22l1.69-0.08l1.73-0.09c-0.6,1.13-1,2.36-1.12,3.67c-0.26,2.68,0.6,5.29,2.5,7.57
		c2.52,3.03,6.51,4.99,10.94,5.39c0.2,0.02,0.4,0.03,0.59,0.04c7.77,0.45,14.5-4.16,15.11-10.44c0.03-0.31,0.04-0.6,0.04-0.91
		c0-2.33-0.83-4.57-2.47-6.56l1.84-0.09l1.76-0.09C213.89,150.23,214.55,152.99,214.3,155.71z"/>
	<path d="M239.09,62.68c-7.66-3.9-15.35-7.11-18.16-8.26c-2.74-4.15-13.37-19.49-24.16-24.57c-2.59-1.23-5.3-1.84-8.05-1.84
		c-5.59,0-10.25,2.55-13.31,4.83c-3.47-5.65-11.15-14.79-25.47-17.47c-1.39-0.26-2.77-0.4-4.08-0.4c-4.97,0-9.3,1.82-12.86,5.42
		c-9.17,4.84-11.89,17.76-12.59,22.5c-2.6,1.98-3.98,4.23-4.67,5.64c-4.39,3.04-23,16.29-37.61,32.94
		c-9.12,10.41-15.8,13.2-22.25,15.9c-4.65,1.94-9.45,3.95-14.74,8.47c-6.21,5.31-9.62,12.71-8.99,19.44
		c-1,7.08,0.55,16.06,7.34,22.18c-0.01,0.09-0.02,0.16-0.02,0.25c-0.31,1.39,0.52,3.8,3.67,12.78c1,2.84,2.05,5.8,2.87,8.05
		l-4.24,1.26l-0.72,0.21l-0.59,0.49c-0.38,0.32-3.78,3.34-3.6,9.05c0.22,7.31,6.19,15.36,17.75,23.91
		c2.94,2.17,10.14,5.07,38.67,5.07c41.34,0,115.48-6.84,125.05-9.99v0.01l9.64-2.91c1.13-0.26,1.79-0.49,2.32-0.79
		c10.74-6.29,18.97-23.29,22.63-46.69c5.72-36.48,5.81-64.07,5.8-67.51C259.47,75.46,253.53,70.04,239.09,62.68z M249.27,147.62
		c-3.16,20.24-10.41,37.96-20.79,44.05c-0.07,0.03-0.14,0.07-0.25,0.11c-0.12,0.04-0.27,0.1-0.46,0.14
		c-0.21,0.07-0.47,0.13-0.76,0.2l-7.57,2.28l-0.03,0.01l-2.14,0.65c-3.57,2-77.29,9.81-123.98,9.81c-4.16,0-8.11-0.07-11.78-0.2
		c-0.46-0.01-0.91-0.03-1.36-0.05c-2.9-0.12-5.6-0.3-8.08-0.52c-0.77-0.07-1.5-0.14-2.23-0.22c-1-0.11-1.94-0.23-2.85-0.35
		c-0.89-0.13-1.75-0.26-2.55-0.42c-0.33-0.05-0.66-0.12-0.98-0.2c-0.57-0.11-1.11-0.23-1.61-0.36c-0.03,0-0.07-0.01-0.1-0.02
		c-0.47-0.11-0.92-0.24-1.34-0.37c-0.08-0.01-0.14-0.03-0.22-0.07c-0.61-0.19-1.19-0.41-1.7-0.65c-0.08-0.02-0.15-0.07-0.23-0.1
		c-0.08-0.02-0.14-0.07-0.22-0.1c-0.15-0.08-0.31-0.14-0.45-0.22c-0.14-0.09-0.29-0.16-0.42-0.25c-0.13-0.08-0.25-0.16-0.37-0.25
		c-0.42-0.31-0.81-0.6-1.21-0.91c-3.44-2.61-6.13-5.04-8.21-7.26c-0.18-0.18-0.33-0.35-0.48-0.52c-0.83-0.9-1.56-1.78-2.2-2.61
		c-0.19-0.23-0.35-0.46-0.52-0.69c-0.24-0.34-0.47-0.67-0.69-1c-0.14-0.22-0.27-0.43-0.41-0.64c-0.13-0.21-0.25-0.42-0.36-0.61
		c-0.12-0.2-0.23-0.4-0.33-0.58c-0.07-0.13-0.13-0.25-0.2-0.38c-0.1-0.19-0.2-0.37-0.27-0.56c-0.03-0.08-0.08-0.15-0.11-0.24
		c-0.09-0.19-0.16-0.37-0.24-0.56c-0.05-0.13-0.11-0.25-0.15-0.38c-0.07-0.16-0.13-0.33-0.19-0.49c-0.08-0.24-0.15-0.48-0.22-0.71
		c-0.09-0.31-0.16-0.61-0.23-0.91c-0.07-0.33-0.12-0.65-0.16-0.97c-0.02-0.13-0.03-0.24-0.04-0.36c-0.43-4.53,2.26-6.78,2.26-6.78
		L45,172.7l0.72-0.22l2.4-0.71l2.68-0.79c-0.05-0.14-0.16-0.43-0.32-0.82c0-0.01-0.01-0.02-0.01-0.03
		c-1.26-3.48-5.53-15.37-6.92-19.86c0-0.01,0-0.02-0.01-0.03c-0.16-0.79-0.31-1.49-0.42-2.06v-0.01c0.01-0.98,0.74-1.44,1.27-1.44
		c0.07,0,0.12,0.01,0.18,0.02c0,0-0.01,0-0.01-0.01h-0.01c-4.27-2.71-6.76-6.58-8-10.63c-0.08-0.25-0.14-0.51-0.21-0.76
		c-0.2-0.71-0.35-1.43-0.47-2.15c-0.04-0.29-0.09-0.56-0.12-0.85c-0.22-1.75-0.25-3.48-0.12-5.12c0.04-0.64,0.12-1.27,0.22-1.88
		v-0.03c-0.27-2.25,0.03-4.6,0.85-6.9c0.18-0.53,0.37-1.04,0.61-1.56c0.02-0.05,0.04-0.11,0.07-0.16c0.25-0.55,0.54-1.1,0.86-1.64
		c0.08-0.18,0.18-0.34,0.29-0.51c0.33-0.56,0.69-1.11,1.09-1.65c0.67-0.91,1.41-1.8,2.22-2.63c0.55-0.56,1.11-1.09,1.71-1.6
		c12.06-10.33,21.18-6.28,37.37-24.74c16.19-18.46,37.82-32.94,37.82-32.94s1.04-3.52,5.16-5.97l-0.02-0.02c0,0,0.16-1.82,0.72-4.44
		c0.08-0.37,0.16-0.77,0.26-1.16c0.14-0.58,0.3-1.17,0.47-1.8c0.15-0.54,0.32-1.09,0.52-1.65c0.2-0.6,0.42-1.21,0.66-1.82
		c1.67-4.29,4.37-8.67,8.67-10.71c1.93-2.09,4.36-3.71,7.41-4.39c1.02-0.23,2.12-0.35,3.28-0.35c1.08,0,2.21,0.1,3.41,0.33
		c18.93,3.55,25.06,19.74,25.06,19.74s0.29-0.34,0.83-0.86c0.08-0.08,0.15-0.16,0.24-0.24c0.26-0.25,0.57-0.53,0.92-0.82
		c0.19-0.15,0.37-0.32,0.58-0.47c0.5-0.42,1.08-0.85,1.7-1.25c0.25-0.19,0.53-0.36,0.8-0.53c0.35-0.22,0.72-0.43,1.1-0.64
		c2.28-1.24,5.08-2.23,8.2-2.23c2.04,0,4.23,0.43,6.49,1.49c11.42,5.38,23.26,24.22,23.26,24.22s38.35,15.16,36.56,22.95
		C255.03,80.36,255.39,108.64,249.27,147.62z"/>
	<path style="fill:#F18B2D;" d="M242.15,129.82c-0.66,0.18-1.73,0.45-3.23,0.79c3.02-19.21,0.24-30.35,0.21-30.49
		c-0.12-0.46-0.13-0.96-0.03-1.42c0.08-3.59-14.61-17.58-32.09-30.46c-0.5-0.38-0.89-0.91-1.09-1.53
		c-1.69-5.18-7.75-19.5-15.53-23.42c-2.22-1.12-4.85-1.69-7.84-1.69c-7.29,0-14.02,3.33-14.08,3.36c-0.43,0.22-0.9,0.33-1.37,0.33
		c-0.38,0-0.78-0.08-1.15-0.22c-0.81-0.33-1.45-1-1.73-1.83c-0.21-0.58-5.4-14.59-21.03-17.7c-0.9-0.18-1.77-0.27-2.58-0.27
		c-6.49,0-9.98,6.02-11.8,11.45c-1.3,3.84-1.76,7.39-1.86,8.3c0,0.07,0,0.13-0.01,0.2c-0.08,0.99-0.61,1.9-1.47,2.4
		c-2.95,1.76-3.78,4.16-3.81,4.26c-0.21,0.65-0.65,1.25-1.22,1.64c-0.21,0.14-21.48,14.48-37.21,32.42
		c-10.15,11.58-17.89,14.82-24.73,17.67c-4.36,1.82-8.47,3.53-12.95,7.38c-5.39,4.61-7.92,11.22-6.13,16.05
		c0.21,0.56,0.47,1.1,0.78,1.6c-1.35-1.41-2.73-2.73-4.25-3.74c-0.02,0.13-0.05,0.27-0.08,0.42c-0.27-2.25,0.03-4.6,0.85-6.9
		c0.18-0.53,0.38-1.04,0.61-1.56c0.02-0.05,0.04-0.11,0.07-0.16c0.26-0.56,0.54-1.1,0.86-1.64c0.08-0.18,0.18-0.34,0.29-0.51
		c0.33-0.56,0.69-1.11,1.09-1.65c0.67-0.91,1.41-1.8,2.22-2.63c0.54-0.56,1.11-1.09,1.71-1.6c12.06-10.33,21.18-6.28,37.37-24.74
		c16.19-18.46,37.82-32.94,37.82-32.94s1.04-3.52,5.16-5.97l-0.02-0.02c0,0,0.16-1.82,0.72-4.44c0.08-0.37,0.16-0.77,0.26-1.16
		c0.14-0.58,0.3-1.17,0.47-1.8c0.16-0.54,0.33-1.09,0.52-1.65c0.2-0.6,0.42-1.21,0.66-1.82c1.67-4.29,4.37-8.67,8.67-10.71
		c0.03-0.01,0.07-0.03,0.1-0.04c1.56-0.72,3.33-1.14,5.32-1.14c1,0,2.05,0.11,3.17,0.33c17.65,3.51,23.33,19.69,23.33,19.69
		s7.36-3.69,15.46-3.69c3.08,0,6.28,0.54,9.22,2.02c10.65,5.36,17.06,25.21,17.06,25.21s34.94,25.78,33.26,33.58
		C242.09,99.36,245.01,110.42,242.15,129.82z"/>
	<path style="fill:#F18B2D;" d="M55.58,199.62c-3.44-2.61-6.13-5.04-8.21-7.26c-0.18-0.18-0.33-0.35-0.48-0.52
		c-0.83-0.9-1.56-1.78-2.2-2.61c-0.19-0.23-0.35-0.46-0.52-0.69c-0.24-0.34-0.47-0.67-0.69-1c-0.14-0.22-0.27-0.43-0.41-0.64
		c-0.13-0.21-0.25-0.42-0.36-0.61c-0.12-0.2-0.23-0.4-0.33-0.58c-0.07-0.13-0.13-0.25-0.2-0.38c-0.1-0.19-0.2-0.37-0.27-0.56
		c-0.03-0.08-0.08-0.15-0.11-0.24c-0.09-0.19-0.16-0.37-0.24-0.56c-0.05-0.13-0.11-0.25-0.15-0.38c-0.07-0.16-0.13-0.33-0.19-0.49
		c-0.08-0.24-0.15-0.48-0.22-0.71c-0.09-0.31-0.16-0.61-0.23-0.91c-0.07-0.33-0.12-0.65-0.16-0.97c-0.02-0.13-0.03-0.24-0.04-0.36
		c-0.43-4.53,2.26-6.78,2.26-6.78L45,172.7c0.03,0.11,0.08,0.22,0.12,0.34c0.02,0.07,0.05,0.14,0.09,0.22
		c-0.69,1.13-1.34,2.5-1.73,4.11c-0.04,0.21-0.1,0.42-0.13,0.63c-0.03,0.13-0.05,0.27-0.08,0.42c-0.08,0.48-0.13,0.98-0.15,1.49
		c-0.01,0.22-0.02,0.44-0.02,0.66c0,0.98,0.11,2.02,0.35,3.11c0.03,0.13,0.05,0.26,0.1,0.4c0.09,0.35,0.19,0.71,0.31,1.08
		c0.42,1.27,1.02,2.61,1.86,4.01c0.12,0.2,0.24,0.41,0.37,0.6C48.01,192.79,51.04,196.1,55.58,199.62z"/>
	<path style="fill:#641210;" d="M224.01,143.32l-144.97,6.86h-0.03c0,0-0.31,0-0.89,0c-3.72,0-18.49-0.21-33.55-3.45
		c0,0.01,0.01,0.01,0.01,0.01c-0.05-0.01-0.11-0.02-0.18-0.02c-0.54,0-1.26,0.46-1.27,1.44v0.01c0.11,0.57,0.25,1.27,0.42,2.06
		c0.01,0.01,0.01,0.02,0.01,0.03c1.38,4.5,5.68,16.46,6.93,19.89c0.56,1.03,1.15,2.02,1.8,2.97c0.18,0.26,0.35,0.53,0.54,0.78
		c0.66,0.93,1.36,1.81,2.1,2.62c0.24,0.26,0.49,0.52,0.75,0.77c0.25,0.25,0.51,0.49,0.77,0.74c0.91,0.82,1.89,1.55,2.92,2.14
		c0.45,0.26,0.91,0.5,1.39,0.71c0.22,0.1,0.44,0.19,0.67,0.27c0.03,0.02,0.08,0.03,0.12,0.04c0.22,0.09,0.44,0.16,0.67,0.23
		c0.32,0.1,0.64,0.19,0.97,0.26c0.53,0.12,1.06,0.21,1.61,0.26c9.48,0.97,51.74,3.52,90.07,3.52c30.43,0,58.38-1.61,65.54-6.9
		C236.59,166.63,224.01,143.32,224.01,143.32z M154.86,182.43c-38.28,0-80.27-2.55-89.77-3.51c-4.86-0.49-8.74-4.59-11.7-9.85
		c-3.34-5.91-5.54-13.31-6.73-18.78c14.17,2.72,27.42,2.96,31.45,2.96c0.61,0,0.94-0.01,1.03-0.01l77.58-3.67l65.39-3.1
		c0.96,2.14,2.48,6.1,3.15,10.6c1.25,8.43-1,14.84-6.7,19.05C215.4,178.48,202.88,182.43,154.86,182.43z"/>
</g>
<g>
	<path style="fill:#FF0000;" d="M200.55,194.59c-2.67,2.83-8.66,2.78-15.05-2.72c-0.54-2.94-3-14.37-8.86-18.23l7.43-2.65l-0.4,1.46
		c0.04,0.01,4.24,1.35,14.48,11.53C202.57,188.37,202.54,192.47,200.55,194.59z"/>
	<path style="fill:#641210;" d="M200.31,181.8c-10.88-10.81-15.37-12.2-15.84-12.32l-0.4,1.5l-0.4,1.46
		c0.04,0.01,4.24,1.35,14.48,11.53c4.41,4.39,4.38,8.5,2.39,10.62c-2.67,2.83-8.66,2.78-15.05-2.72c-0.54-2.94-3-14.37-8.86-18.23
		c-0.43-0.29-0.88-0.53-1.34-0.72l-0.59,1.42l-0.59,1.41c4.92,2.07,7.77,13.11,8.46,17.19l0.09,0.53l0.4,0.36
		c4.48,4,8.95,5.66,12.67,5.66c2.93,0,5.4-1.03,7.05-2.79C205.79,193.5,206.2,187.66,200.31,181.8z"/>
</g>
<g>
	<path style="fill:#FF0000;" d="M182.88,135.86c-20.06,16.2-24.09,17.48-24.09,17.51l0.05,1.53l-13.72-4.28
		c5.71-1.87,20.08-8.11,26.06-25.19c1.54-4.4,5.31-7.03,10.12-7.04c0,0,0.01,0,0.02,0c4.03,0,7.54,1.97,8.54,4.79
		C191.12,126.71,188.64,131.21,182.88,135.86z"/>
	<path style="fill:#641210;" d="M184.8,138.24c-20.18,16.3-24.83,18.15-25.9,18.19l-0.05-1.54l-0.05-1.53
		c0-0.03,4.03-1.31,24.09-17.51c5.76-4.65,8.24-9.16,6.99-12.69c-1-2.82-4.51-4.79-8.54-4.79c-0.01,0-0.02,0-0.02,0
		c-4.81,0.01-8.58,2.63-10.12,7.04c-5.98,17.08-20.35,23.33-26.06,25.19c-1.34,0.44-2.21,0.64-2.37,0.67l-0.65-3
		c0.2-0.04,19.39-4.43,26.18-23.89c2.34-6.67,8.26-9.07,13.01-9.08h0.03c5.39,0,9.98,2.74,11.43,6.83
		C193.76,124.96,194.04,130.78,184.8,138.24z"/>
</g>
<g>
	<g>
		<path d="M27.51,120.8c-3.98-1.62-8.52,0.19-10.09,4.04c-8.24,20.17,12.72,53.2,13.62,54.59l0.46,0.71l0.83,0.12
			c0.57,0.08,5.4,0.7,12.04,0.7c13.34,0,33.97-2.54,41.8-17.16c0.52-0.82,1.34-2.44,1.78-4.68C89.14,148.3,55.85,132.35,27.51,120.8
			z M83.06,161.86c-0.09,0.16-0.18,0.34-0.29,0.5c-0.57,1.04-1.24,2.02-1.98,2.93c-0.79,0.98-1.67,1.88-2.62,2.71
			c-13.06,11.43-39.43,9.25-44.49,8.72c-2.5-4.11-14.5-24.65-14.5-41.14c0-0.58,0.01-1.15,0.05-1.71c0.11-2.22,0.46-4.34,1.11-6.31
			c0.14-0.45,0.31-0.89,0.48-1.32c0.69-1.7,2.65-2.61,4.51-2.26h0.01c0.26,0.05,0.53,0.13,0.78,0.23
			c19.68,8.02,35.59,15.83,45.78,22.25c0.03,0.01,0.05,0.03,0.09,0.05c8.1,5.12,12.55,9.34,12.33,12.09c0,0.08-0.01,0.16-0.02,0.24
			l-0.01,0.08c0,0.07-0.02,0.15-0.05,0.27v0.02c-0.03,0.18-0.1,0.41-0.21,0.68c-0.22,0.55-0.79,1.65-0.93,1.91L83.06,161.86z"/>
	</g>
	<g>
		<path style="fill:#FFB300;" d="M84.32,158.6c0,0.08-0.01,0.16-0.02,0.24l-0.01,0.08l-0.05,0.27v0.02
			c-0.03,0.18-0.1,0.41-0.21,0.68c-0.22,0.55-0.79,1.65-0.93,1.91l-0.03,0.05c-0.09,0.16-0.18,0.34-0.29,0.5
			c-0.57,1.04-1.24,2.02-1.98,2.93c-0.79,0.98-1.67,1.88-2.62,2.71c-13.06,11.43-39.43,9.25-44.49,8.72
			c-2.5-4.11-14.5-24.65-14.5-41.14c0-0.58,0.01-1.15,0.05-1.71c0.11-2.22,0.46-4.34,1.11-6.31c0.14-0.45,0.31-0.89,0.48-1.32
			c0.69-1.7,2.65-2.61,4.51-2.26h0.01c0.26,0.05,0.53,0.13,0.78,0.23c19.68,8.02,35.59,15.83,45.78,22.25
			c0.03,0.01,0.05,0.03,0.09,0.05C80.09,151.63,84.54,155.85,84.32,158.6z"/>
	</g>
	<path style="fill:#FFEA6C;" d="M84.32,158.6c0,0.08-0.01,0.16-0.02,0.24l-0.01,0.08l-0.05,0.27v0.02c-0.03,0.18-0.1,0.41-0.21,0.68
		c-0.22,0.55-0.79,1.65-0.93,1.91l-0.03,0.05c-0.09,0.16-0.18,0.34-0.29,0.5c-8.29,6.36-34.33,6.91-45.38,6.54
		c-5.94-9.75-18.64-34.15-14.9-44.45C46.01,133.95,80.29,150.21,84.32,158.6z"/>
	<path style="fill:#F18B2D;" d="M82.77,162.36c-0.57,1.04-1.24,2.02-1.98,2.93c-0.79,0.98-1.67,1.88-2.62,2.71
		c-10.04,3.48-25.22,4.07-34.34,4.07c-3.69,0-6.4-0.1-7.38-0.14c-0.51-0.02-0.97-0.29-1.24-0.72c-0.7-1.13-13.44-21.79-15.98-37.35
		c0.11-2.22,0.46-4.34,1.11-6.31c0.14-0.45,0.31-0.89,0.48-1.32c0.69-1.7,2.65-2.61,4.51-2.26h0.01c0.26,0.05,0.53,0.13,0.78,0.23
		c19.68,8.02,35.59,15.83,45.78,22.25c0.03,0.01,0.05,0.03,0.09,0.05c8.1,5.12,12.55,9.34,12.33,12.09
		c-4.03-8.39-38.31-24.65-61.83-34.14c-3.74,10.3,8.96,34.7,14.9,44.45C48.45,169.27,74.49,168.72,82.77,162.36z"/>
</g>
<g>
	<path style="fill:#F18B2D;" d="M113.75,133.9c-0.11,0.37-0.13,0.75-0.05,1.09c2.36-7.79,9.74-31.11,17.8-46.38
		C125.82,98.55,119.58,114.29,113.75,133.9z"/>
	<g>
		<path d="M176,114.52c-0.01-0.37-1.61-36.76-28.68-41c-1.35-0.29-3.27-0.48-5.2-0.31c-12.78,1.57-25.45,37.98-31.88,59.64
			c-0.48,1.61-0.27,3.25,0.56,4.65c0.07,0.11,0.13,0.22,0.21,0.33c0.01,0.02,0.02,0.03,0.04,0.05c1.19,1.69,3.25,2.77,5.66,2.94
			c0.8,0.05,1.61,0.09,2.43,0.09c23.7,0,54.79-23.83,56.15-24.89l0.75-0.57L176,114.52z M129.23,135.94c0,0,0,0-0.01,0
			c-3.08,0.75-6.11,1.22-9.02,1.31h-0.01c-1.09,0.02-2.16,0-3.22-0.08c-1.32-0.1-2.39-0.61-2.94-1.42
			c-0.16-0.24-0.27-0.49-0.33-0.77c-0.08-0.34-0.05-0.71,0.05-1.09c5.83-19.61,12.06-35.35,17.74-45.29
			c0.02-0.03,0.03-0.07,0.05-0.1c3.78-6.59,7.29-10.62,10.26-11.48c0.01-0.01,0.01-0.01,0.01-0.01c0.3-0.09,0.58-0.14,0.87-0.16
			c0,0,1.83-0.1,3.59,0.2c0.3,0.04,0.6,0.11,0.89,0.19c1.22,0.21,2.39,0.49,3.49,0.86c1.04,0.33,2.04,0.74,2.99,1.19
			c15.61,7.45,18.22,29.61,18.62,34.45C168.08,116.83,147.78,131.45,129.23,135.94z"/>
	</g>
	<g>
		<path style="fill:#FFB300;" d="M172.26,113.72c-4.18,3.11-24.48,17.73-43.03,22.22c0,0,0,0-0.01,0c-3.08,0.75-6.11,1.22-9.02,1.31
			h-0.01c-1.09,0.02-2.16,0-3.22-0.08c-1.32-0.1-2.39-0.61-2.94-1.42c-0.16-0.24-0.27-0.49-0.33-0.77
			c-0.08-0.34-0.05-0.71,0.05-1.09c5.83-19.61,12.06-35.35,17.74-45.29c0.02-0.03,0.03-0.07,0.05-0.1
			c3.78-6.59,7.29-10.62,10.26-11.48c0.01-0.01,0.01-0.01,0.01-0.01c0.3-0.09,0.58-0.14,0.87-0.16c0,0,1.83-0.1,3.59,0.2l0.24,0.08
			c0.22,0.03,0.44,0.07,0.65,0.11c1.22,0.21,2.39,0.49,3.49,0.86c1.04,0.33,2.04,0.74,2.99,1.19
			C169.26,86.73,171.87,108.88,172.26,113.72z"/>
	</g>
	<path style="fill:#FFEA6C;" d="M162.69,112.67c-4.93,3.61-32.88,23.62-47.28,23.62c-0.18,0-0.35,0-0.52-0.01
		c6.95-23.57,18.74-53.8,26.92-59.26c0.01-0.01,0.01-0.01,0.01-0.01c0.3-0.09,0.58-0.14,0.87-0.16c0,0,1.83-0.1,3.59,0.2l0.24,0.08
		c0.22,0.03,0.44,0.07,0.65,0.11C155.71,82.49,161.05,103.38,162.69,112.67z"/>
	<path style="fill:#F18B2D;" d="M165.28,114.55c-1.08,0.81-19.74,14.79-36.05,21.38c0,0,0,0-0.01,0c-3.08,0.75-6.11,1.22-9.02,1.31
		h-0.01c-1.09,0.02-2.16,0-3.22-0.08c-1.32-0.1-2.39-0.61-2.94-1.42c-0.16-0.24-0.27-0.49-0.33-0.77c-0.08-0.34-0.05-0.71,0.05-1.09
		c5.83-19.61,12.06-35.35,17.74-45.29c0.02-0.03,0.03-0.07,0.05-0.1c3.78-6.59,7.29-10.62,10.26-11.48
		c-8.18,5.46-19.97,35.69-26.92,59.26c0.16,0.01,0.34,0.01,0.52,0.01c14.4,0,42.35-20.01,47.28-23.62
		c-1.65-9.29-6.98-30.18-15.52-35.44c1.22,0.21,2.39,0.49,3.49,0.86c1.04,0.33,2.04,0.74,2.99,1.19
		c8.42,11.01,12.03,32.66,12.22,33.82C165.96,113.65,165.73,114.21,165.28,114.55z"/>
</g>
<g>
	<g>
		<path d="M167.85,174.59c-0.82-7.73-21.96-15.07-39.67-19.9c-1.37-0.36-2.78-0.15-3.96,0.64c-1.24,0.81-2.09,2.2-2.32,3.78
			c-2.07,14.74,14.18,35.03,14.87,35.89l0.57,0.71l0.91-0.03c1.03-0.02,25.18-0.87,29.18-17.49
			C167.63,177.42,167.96,175.68,167.85,174.59z M162.58,180.65v0.01c-0.59,1.1-1.33,2.1-2.16,3c-6.18,6.7-18,8.04-21.36,8.29
			c-1.71-2.25-6.92-9.33-10.38-17.18c-1.54-3.46-2.73-7.07-3.13-10.48c-0.01-0.01-0.01-0.01-0.01-0.02s0-0.01,0-0.02
			c-0.19-1.59-0.2-3.15,0.01-4.62c0.08-0.55,0.33-0.98,0.7-1.23c0.2-0.13,0.54-0.26,0.97-0.14c24.45,6.65,36.14,13.11,36.95,16.47
			c0,0.01,0,0.01,0,0.01c0.02,0.11,0.04,0.21,0.04,0.31c0,0,0.05,0.68,0,0.78c-0.05,0.38-0.31,1.31-0.31,1.31
			c-0.03,0.16-0.08,0.33-0.12,0.49C163.49,178.71,163.09,179.72,162.58,180.65z"/>
	</g>
	<g>
		<path style="fill:#FFB300;" d="M164.37,176.04c-0.07,0.2-0.16,0.38-0.27,0.57l-0.2,0.5c-0.03,0.16-0.08,0.33-0.12,0.49
			c-0.29,1.1-0.69,2.11-1.2,3.04v0.01c-0.59,1.1-1.33,2.1-2.16,3c-6.18,6.7-18,8.04-21.36,8.29c-1.71-2.25-6.92-9.33-10.38-17.18
			c-1.54-3.46-2.73-7.07-3.13-10.48c-0.01-0.01-0.01-0.01-0.01-0.02s0-0.01,0-0.02c-0.19-1.59-0.2-3.15,0.01-4.62
			c0.08-0.55,0.33-0.98,0.7-1.23c0.2-0.13,0.54-0.26,0.97-0.14c24.45,6.65,36.14,13.11,36.95,16.47c0,0.01,0,0.01,0,0.01
			c0.02,0.11,0.04,0.21,0.04,0.31l0.11,0.58C164.39,175.8,164.42,175.94,164.37,176.04z"/>
	</g>
	<path style="fill:#FFEA6C;" d="M164.37,176.04c-0.07,0.2-0.16,0.38-0.27,0.57l-0.2,0.5c-0.03,0.16-0.08,0.33-0.12,0.49
		c-3.67,4.28-15.7,7.48-23.72,8.71c-4.56-5.94-14.07-19.98-13.97-27.38c13.65,3.73,34.23,10.77,38.08,15.78c0,0.01,0,0.01,0,0.01
		c0.02,0.11,0.04,0.21,0.04,0.31l0.11,0.58C164.39,175.8,164.42,175.94,164.37,176.04z"/>
	<path style="fill:#F18B2D;" d="M163.78,177.61c-0.29,1.1-0.69,2.11-1.2,3.04v0.01c-0.59,1.1-1.33,2.1-2.16,3
		c-7.77,3.89-19.06,5.58-20.81,5.82c-0.08,0.01-0.14,0.01-0.22,0.01c-0.46,0-0.9-0.21-1.2-0.58c-0.93-1.19-5.61-7.23-9.52-14.14
		c-1.54-3.46-2.73-7.07-3.13-10.48c-0.01-0.01-0.01-0.01-0.01-0.02s0-0.01,0-0.02c-0.19-1.59-0.2-3.15,0.01-4.62
		c0.08-0.55,0.33-0.98,0.7-1.23c0.2-0.13,0.54-0.26,0.97-0.14c24.45,6.65,36.14,13.11,36.95,16.47
		c-3.85-5.01-24.44-12.04-38.08-15.78c-0.1,7.4,9.42,21.44,13.97,27.38C148.08,185.09,160.11,181.89,163.78,177.61z"/>
</g>
</svg>
