<?xml version="1.0" encoding="utf-8"?>
<!-- Generator: Adobe Illustrator 24.1.1, SVG Export Plug-In . SVG Version: 6.00 Build 0)  -->
<svg version="1.1" id="Layer_1" xmlns="http://www.w3.org/2000/svg" xmlns:xlink="http://www.w3.org/1999/xlink" x="0px" y="0px"
	 viewBox="0 0 240 240" style="enable-background:new 0 0 240 240;" xml:space="preserve">
<g>
	<g>
		<path d="M118.89,2.91c0.08,0,0.15,0,0.23,0.01c4.25,0.31,7.84,6.94,10.47,11.77c0.46,0.84,0.88,1.62,1.25,2.25
			c0.14-0.2,0.28-0.4,0.42-0.6c0.96-1.38,1.96-2.8,2.73-4.26c1.33-2.52,2.63-4.5,4.66-5.98c0.89-0.64,1.85-0.97,2.82-0.97
			c0.98,0,1.97,0.33,2.9,0.98c2.31,1.62,3.49,4.73,2.76,7.22c-0.3,1.02-2.83,3.61-8.06,8.67c-1.01,0.98-2.05,1.99-2.57,2.53
			c0.46,0.62,1.01,1.14,1.58,1.69c0.71,0.67,1.44,1.36,2.01,2.23c1.23,1.89,2.24,3.84,3.34,6.01c1.1,2.16,1.32,4.31,0.63,6.05
			c-0.63,1.57-1.98,2.76-3.9,3.45c-0.5,0.18-0.99,0.26-1.47,0.26c-3.06,0-5.49-3.44-6.74-6.76c-0.14-0.37-0.28-0.81-0.42-1.28
			c-0.32-1.03-0.92-2.96-1.51-3.15c-0.02-0.01-0.04-0.01-0.06-0.01c-0.15,0-0.35,0.13-0.46,0.22c-1.22,0.93-1.95,2.79-2.73,4.76
			c-1.23,3.15-2.63,6.71-6.57,6.71c-0.04,0-0.09,0-0.13,0c-0.03,0-0.05,0-0.08,0c-2.07-0.06-4.24-1.27-5.54-2.99
			c-1.41,2.85-4.85,3.28-7.83,3.28c-0.14,0-0.28,0-0.42,0c-0.03,0-0.07,0-0.1,0c-1.08,0-2.21,0.21-3.3,0.41
			c-1.13,0.21-2.3,0.42-3.47,0.42c-0.03,0-0.06,0-0.09,0c-0.03,0-0.06,0-0.09,0c-2.34-0.05-4.64-1.15-6.33-2.85
			c-0.08,0.52-0.2,1.04-0.42,1.55c-1.26,2.87-4.38,4.62-6.89,6.03l-0.88,0.5c-0.99,0.56-1.97,1.32-2.92,2.06
			c-2.08,1.6-4.36,3.36-7.1,3.36c-0.04,0-0.08,0-0.12,0c-1.02-0.02-2.11-0.29-3.27-0.9c-3.44-1.8-5.39-6.14-6.63-10.09
			c-0.7,1.53-1.58,2.88-2.21,3.69c-0.61,0.77-1.13,1.29-1.51,1.67c-0.99,0.99-0.99,0.99,0.16,3.94c0.27,0.7,0.82,1.66,1.4,2.67
			c1.72,3,3.87,6.73,2.44,9.5c-1.09,2.11-2.63,3.32-4.58,3.59c-0.28,0.04-0.56,0.06-0.84,0.06c-0.04,0-0.08,0-0.13,0
			c-5.96-0.12-13.57-8.25-16.92-11.83l-0.52-0.55c-1-1.06-2.21-2.05-3.37-3.01c-2.46-2.02-5-4.11-6.18-7.19
			c-0.69-1.79-1.01-3.71-0.95-5.7c0.12-4.27,1.95-8.8,5.15-12.77c4.36-5.39,10.86-10.58,16.99-10.58c1.72,0,3.41,0.41,5.02,1.34
			c0.96,0.56,1.68,1.15,2.2,1.79c-0.22-2.99-0.13-6.29,2.37-8.24c0.18-0.14,0.36-0.27,0.56-0.39c1.44-0.88,2.78-1.31,3.99-1.31
			c0.77,0,1.5,0.18,2.17,0.53c4.7,2.48,5.25,12.97,5.61,19.91c0.09,1.72,0.17,3.21,0.3,4.07c0.06,0.43,0.1,0.92,0.13,1.42
			c0.07,1.09,0.15,2.33,0.67,3.03c0.23,0.32,0.43,0.37,0.58,0.37c0.01,0,0.01,0,0.02,0c0.01,0,0.01,0,0.02,0
			c1.13,0,3.07-2.18,4.12-3.36c0.53-0.6,0.95-1.08,1.3-1.36c0.75-0.63,2-1.68,3.6-1.68c0.48,0,1,0.1,1.54,0.33
			c0.78,0.33,1.49,0.76,2.14,1.25c-0.58-2.48-0.95-5.02-1.32-7.5c-0.3-2.03-0.61-4.14-1.03-6.15c-0.78-3.76-1.39-7.72,0.38-11.2
			c1.77-3.49,5.51-4.69,8.81-5.74l1.72-0.57c1.9-0.64,4.26-1.44,6.49-1.44c1.18,0,2.33,0.22,3.35,0.81
			c0.55,0.32,1.03,0.69,1.44,1.12c1.28,1.33,1.83,3.13,1.46,4.8c-0.37,1.68-1.57,3-3.39,3.71c-1.01,0.4-2.16,0.62-3.26,0.83
			c-1.73,0.34-3.52,0.68-4.7,1.69c-0.99,0.85-1.55,1.65-1.56,2.27c0,0.2,0.04,0.51,0.46,0.9c0.22,0.2,0.52,0.28,0.87,0.28
			c0.76,0,1.73-0.39,2.56-0.72c0.44-0.17,0.85-0.33,1.19-0.43c1.31-0.38,3.1-0.83,4.68-0.83c0.38,0,0.75,0.03,1.1,0.09
			c1.65,0.29,2.94,1.33,3.52,2.85c0.65,1.71,0.33,3.7-0.84,5.19c-1.79,2.28-4.46,2.6-6.82,2.87c-0.71,0.08-1.42,0.17-2.1,0.3
			c-1.23,0.24-2.21,0.5-2.66,1.33c-0.32,0.59-0.48,1.81-0.19,2.76c0.09,0.31,0.28,0.71,0.61,0.88c0.11,0.06,0.25,0.08,0.4,0.08
			c0.57,0,1.37-0.35,2.04-0.64c0.49-0.21,0.95-0.41,1.38-0.52c1.54-0.39,2.93-0.59,4.18-0.59c1.24,0,2.32,0.19,3.25,0.58
			c0.94,0.4,1.73,1.15,2.29,2.16c0.19-0.3,0.39-0.6,0.6-0.91l0.31-0.46c0.66-0.98,1.56-2.01,2.52-3.1c2.34-2.66,4.99-5.67,4.5-8.52
			c-0.11-0.63-0.36-1.3-0.75-1.97c-1.05-1.82-2.49-3.13-4-4.52c-0.93-0.86-1.9-1.74-2.8-2.78c-2.35-2.69-2.4-5.01-0.16-8
			C115.74,3.79,117.28,2.91,118.89,2.91 M53.55,43.81c0.77-1.55,2.26-3.38,2.52-3.69c2.39-2.88,4.31-3.71,5.73-3.71
			c0.2,0,0.39,0.02,0.57,0.05c-0.59-3.12-1.01-6.38-1.26-9.74c-0.8,1.67-2.37,3.34-4.01,5.07c-2.59,2.73-5.27,5.56-5.16,8.47
			C51.98,41.48,52.51,42.64,53.55,43.81 M118.89,0.37L118.89,0.37c-1.72,0-4.25,0.65-6.56,3.73c-0.15,0.2-0.29,0.39-0.42,0.59
			c-0.12-0.15-0.25-0.29-0.39-0.43c-0.57-0.6-1.24-1.12-1.99-1.56c-1.34-0.77-2.89-1.16-4.63-1.16c-2.66,0-5.34,0.91-7.3,1.58
			l-1.7,0.56c-3.57,1.14-8.04,2.57-10.29,7.01c-2.14,4.22-1.43,8.85-0.6,12.87c0.41,1.99,0.72,4.12,1,6.01
			c0.15,1,0.3,2.01,0.46,3.02c-0.1,0-0.2-0.01-0.3-0.01c-2.53,0-4.35,1.53-5.23,2.27c-0.48,0.4-0.96,0.94-1.56,1.62
			c-0.36,0.41-0.7,0.77-0.99,1.09c-0.03-0.42-0.07-0.84-0.13-1.25c-0.11-0.73-0.19-2.22-0.27-3.8c-0.42-7.99-0.99-18.89-6.96-22.05
			c-1.04-0.55-2.17-0.83-3.36-0.83c-1.68,0-3.47,0.57-5.31,1.68c-0.3,0.18-0.56,0.37-0.81,0.56c-1.94,1.51-2.82,3.57-3.19,5.53
			c-1.52-0.64-3.14-0.96-4.83-0.96c-8.96,0-16.78,8.82-18.96,11.52c-3.55,4.4-5.58,9.47-5.71,14.29c-0.07,2.33,0.31,4.58,1.12,6.68
			c1.42,3.71,4.35,6.12,6.94,8.24c1.1,0.91,2.24,1.84,3.14,2.79l0.52,0.55c3.8,4.05,11.69,12.49,18.72,12.63l0.18,0
			c0.39,0,0.79-0.03,1.18-0.08c1.95-0.27,4.64-1.35,6.5-4.95c2.06-4-0.57-8.58-2.49-11.92c-0.51-0.89-1.04-1.81-1.25-2.34
			c-0.2-0.52-0.4-1.03-0.54-1.41c0.31-0.32,0.74-0.76,1.22-1.34c1.62,3.26,3.59,5.48,5.96,6.72c1.45,0.76,2.93,1.16,4.4,1.18l0.17,0
			c3.61,0,6.4-2.16,8.65-3.89c0.89-0.69,1.8-1.39,2.64-1.87l0.87-0.49c2.31-1.29,5.37-3,7.19-5.79c1.61,0.87,3.38,1.36,5.14,1.4
			l0.09,0l0.14,0c1.39,0,2.73-0.25,3.9-0.46c1.05-0.19,2.02-0.37,2.87-0.37l0.52,0c1.48,0,5.3,0,8.03-2.15
			c1.58,1.11,3.45,1.79,5.25,1.85c0.01,0,0.1,0,0.11,0l0.18,0c5.68,0,7.64-5.01,8.94-8.32c0.11-0.28,0.22-0.57,0.34-0.86
			c0.03,0.1,0.07,0.19,0.1,0.28c1.98,5.27,5.39,8.41,9.12,8.41c0.78,0,1.56-0.14,2.32-0.41c2.63-0.94,4.5-2.63,5.41-4.9
			c0.97-2.43,0.71-5.32-0.72-8.14c-1.13-2.23-2.17-4.23-3.47-6.24c-0.67-1.02-1.45-1.8-2.17-2.48c0.26-0.25,0.52-0.51,0.79-0.76
			c6.73-6.53,8.28-8.26,8.73-9.78c1.04-3.54-0.53-7.75-3.74-10.01c-1.34-0.95-2.85-1.44-4.36-1.44c-1.52,0-3.01,0.5-4.31,1.45
			c-2.57,1.87-4.12,4.39-5.41,6.84c-0.21,0.39-0.44,0.79-0.68,1.18c-2.94-5.35-6.58-11.31-11.75-11.69
			C119.13,0.37,119.01,0.37,118.89,0.37L118.89,0.37L118.89,0.37z M110.06,16.22c0.75-0.45,1.41-1.01,1.96-1.64
			c0.18,0.24,0.38,0.48,0.59,0.72c0.99,1.13,2.01,2.07,2.99,2.96c1.44,1.32,2.67,2.45,3.53,3.93c0.24,0.41,0.39,0.8,0.45,1.13
			c0.28,1.65-2.14,4.4-3.9,6.41c-0.65,0.74-1.28,1.45-1.84,2.16c-0.32-0.2-0.65-0.37-0.99-0.52c-0.69-0.29-1.44-0.5-2.23-0.63
			c1.14-0.55,2.23-1.34,3.16-2.53c1.72-2.19,2.19-5.13,1.22-7.67C114.15,18.37,112.33,16.79,110.06,16.22L110.06,16.22z
			 M56.91,35.75c0.64-0.74,1.35-1.48,2.02-2.2c0.11-0.11,0.21-0.23,0.32-0.34c0.05,0.37,0.11,0.74,0.17,1.11
			C58.58,34.63,57.75,35.11,56.91,35.75L56.91,35.75z"/>
	</g>
	<path style="fill:#F6E298;" d="M59.7,49.69c-1.57,1.57-1.61,2.17-0.22,5.71c0.32,0.81,0.88,1.78,1.52,2.9
		c1.44,2.51,3.4,5.94,2.4,7.91c-0.85,1.63-1.93,2.52-3.34,2.71c-5.25,0.73-13.38-7.98-16.46-11.26l-0.53-0.56
		c-1.07-1.13-2.32-2.17-3.52-3.15c-2.39-1.96-4.66-3.83-5.69-6.5c-0.59-1.59-0.88-3.28-0.83-5.06c0.1-3.91,1.8-8.09,4.78-11.77
		c4.17-5.15,13.04-12.82,19.88-8.84c1.41,0.81,2.15,1.64,2.29,2.54c0.25,1.76-1.86,4-4.1,6.35c-2.69,2.84-5.74,6.06-5.61,9.67
		c0.07,1.95,1.08,3.83,3.01,5.57c0.34,0.32,0.88,0.3,1.19-0.05c0.15-0.17,0.24-0.37,0.22-0.59c0.37-1.08,3.44-6.03,6.25-7.03
		c0.15-0.05,0.3-0.1,0.44-0.12c0.2-0.03,0.41-0.05,0.59-0.02c0.08-0.02,0.17,0,0.25,0.03c0,0,0.02,0,0.03,0
		c0.14,0.03,0.27,0.1,0.39,0.17c0,0.02,0.02,0.02,0.02,0.02c0.2,0.98,0.44,1.96,0.68,2.91c0.14,0.52,0.29,1.1,0.44,1.69
		c0,0,0,0,0,0.02c-0.2,0.75-0.51,1.49-0.86,2.2c-0.1,0.24-0.24,0.47-0.36,0.69c-0.12,0.24-0.25,0.46-0.37,0.66
		c-0.39,0.64-0.78,1.22-1.13,1.66C60.53,48.84,60.07,49.32,59.7,49.69z"/>
	<path style="fill:#F6E298;" d="M90.89,43.87c-1.03,2.37-3.78,3.89-6.18,5.25l-0.9,0.51c-1.08,0.61-2.12,1.41-3.12,2.18
		c-2.84,2.2-5.3,4.1-8.7,2.3c-4.15-2.15-5.93-9.14-6.99-13.31c-1.24-4.86-2.03-10.14-2.35-15.7c-0.03-0.53-0.08-1.08-0.14-1.66
		c-0.29-3.06-0.59-6.54,1.61-8.26c0.14-0.1,0.27-0.19,0.41-0.29c1.86-1.12,3.34-1.35,4.54-0.73c3.86,2.05,4.42,12.78,4.72,18.54
		c0.1,1.85,0.17,3.29,0.32,4.22c0.05,0.39,0.08,0.83,0.1,1.29c0.08,1.32,0.19,2.81,1,3.91c0.61,0.83,1.34,1.02,1.83,1.05
		c1.96,0.07,3.89-2.13,5.49-3.93c0.44-0.51,0.86-0.98,1.12-1.19c1.3-1.1,2.24-1.59,3.4-1.1c1.85,0.8,3.32,2.17,3.91,3.69
		C91.38,41.72,91.36,42.8,90.89,43.87z"/>
	<path style="fill:#F6E298;" d="M113.32,39.43c-0.03,0.58-0.15,1.12-0.37,1.56c-1.07,2.15-4.15,2.39-6.74,2.35
		c-1.25-0.02-2.52,0.22-3.73,0.44c-1.13,0.2-2.2,0.39-3.23,0.41c-3.1-0.03-6.27-2.46-7.18-5.52c-0.93-3.13-1.44-6.47-1.91-9.7
		c-0.3-2.07-0.61-4.2-1.05-6.27c-0.71-3.47-1.29-7.11,0.24-10.11c1.46-2.88,4.71-3.91,7.86-4.93l1.73-0.56
		c1.78-0.61,4-1.35,5.96-1.35c0.93,0,1.8,0.17,2.52,0.59c0.41,0.22,0.76,0.51,1.08,0.83c0.88,0.93,1.27,2.17,1.03,3.29
		c-0.25,1.13-1.1,2.03-2.37,2.52c-0.88,0.36-1.9,0.54-2.98,0.76c-1.95,0.37-3.96,0.76-5.47,2.05c-1.39,1.2-2.1,2.37-2.13,3.49
		c0,0.56,0.15,1.39,1,2.15c1.46,1.37,3.61,0.52,5.16-0.1c0.39-0.15,0.75-0.29,1.03-0.37c0.85-0.25,3.42-1,5.03-0.71
		c1.08,0.19,1.9,0.83,2.27,1.81c0.44,1.15,0.2,2.54-0.61,3.57c-1.35,1.74-3.47,1.98-5.71,2.25c-0.76,0.08-1.51,0.17-2.24,0.32
		c-1.17,0.24-2.93,0.58-3.79,2.17c-0.58,1.07-0.71,2.76-0.32,4.03c0.27,0.88,0.78,1.52,1.44,1.88c1.24,0.64,2.69,0,3.86-0.51
		c0.42-0.19,0.81-0.36,1.13-0.44c2.71-0.69,4.86-0.71,6.38-0.08c0.76,0.32,1.41,1.07,1.78,2.07c0.1,0.27,0.17,0.56,0.22,0.83
		C113.19,38.55,113.22,38.97,113.32,39.43z"/>
	<path style="fill:#F6E298;" d="M134.76,24.9c0.58,1.02,1.39,1.78,2.18,2.52c0.66,0.63,1.29,1.24,1.76,1.93
		c1.17,1.81,2.17,3.73,3.23,5.86c0.88,1.73,1.08,3.4,0.58,4.69c-0.46,1.13-1.44,1.96-2.91,2.51c-3.45,1.22-5.84-4.83-6.11-5.52
		c-0.12-0.36-0.25-0.76-0.39-1.2c-0.54-1.76-1.17-3.78-2.59-4.23c-0.46-0.15-1.17-0.19-2.03,0.47c-1.59,1.2-2.44,3.37-3.27,5.47
		c-1.39,3.57-2.49,5.72-5.18,5.66c-1.81-0.05-3.84-1.34-4.71-3c-0.88-1.71-0.32-2.52,0.8-4.15l0.3-0.47
		c0.61-0.88,1.47-1.86,2.4-2.91c2.57-2.95,5.5-6.27,4.89-9.91c-0.15-0.81-0.47-1.68-0.97-2.52c-1.17-2.03-2.78-3.51-4.32-4.91
		c-0.9-0.83-1.83-1.68-2.68-2.64c-1.83-2.1-1.85-3.54-0.07-5.91c1.08-1.47,2.17-2.13,3.3-2.07c3.35,0.25,6.98,6.93,9.14,10.92
		c0.76,1.42,1.42,2.64,1.96,3.42c0.17,0.24,0.42,0.37,0.71,0.37c0.27,0,0.54-0.15,0.69-0.37c0.36-0.54,0.73-1.07,1.1-1.61
		c1-1.42,2.01-2.9,2.84-4.44c1.22-2.32,2.4-4.13,4.17-5.42c1.61-1.17,3.07-0.47,3.79,0.03c1.73,1.22,2.66,3.59,2.13,5.38
		c-0.37,0.93-5.27,5.67-7.62,7.96C134.32,24.31,134.32,24.31,134.76,24.9z"/>
	<path style="fill:#F2C53F;" d="M139.1,22.02c5.23-5.06,7.77-7.65,8.06-8.67c0.75-2.51-0.46-5.62-2.76-7.26
		c-1.85-1.29-4-1.3-5.77-0.02c-2.03,1.49-3.34,3.47-4.67,5.99c-0.76,1.46-1.76,2.88-2.73,4.27c-0.12,0.19-0.25,0.36-0.37,0.54
		c-0.37-0.63-0.78-1.37-1.22-2.2c-2.64-4.84-6.23-11.48-10.5-11.79c-1.73-0.14-3.35,0.78-4.79,2.73c-2.27,3-2.22,5.33,0.15,8.04
		c0.91,1.03,1.88,1.91,2.81,2.78c1.51,1.39,2.95,2.69,4,4.5c0.39,0.68,0.64,1.34,0.75,1.96c0.49,2.83-2.17,5.84-4.49,8.5
		c-0.97,1.08-1.88,2.12-2.54,3.1l-0.3,0.46c-0.19,0.29-0.37,0.56-0.56,0.85c-0.56-0.98-1.34-1.73-2.29-2.12
		c-1.86-0.78-4.37-0.78-7.45,0c-0.42,0.12-0.9,0.32-1.37,0.52c-0.85,0.37-1.9,0.83-2.42,0.56c-0.32-0.17-0.51-0.56-0.59-0.86
		c-0.29-0.93-0.12-2.15,0.19-2.73c0.46-0.83,1.42-1.08,2.64-1.32c0.68-0.14,1.39-0.22,2.1-0.3c2.35-0.27,5.05-0.59,6.84-2.88
		c1.19-1.51,1.51-3.52,0.85-5.23c-0.59-1.54-1.88-2.57-3.54-2.86c-1.79-0.32-4.17,0.27-5.81,0.73c-0.34,0.1-0.74,0.27-1.19,0.44
		c-1.2,0.47-2.71,1.08-3.39,0.44c-0.41-0.37-0.46-0.68-0.46-0.88c0.02-0.59,0.56-1.39,1.54-2.24c1.17-1,2.96-1.35,4.69-1.68
		c1.1-0.22,2.25-0.44,3.27-0.83c1.83-0.73,3.03-2.05,3.4-3.74c0.37-1.69-0.17-3.49-1.46-4.84c-0.42-0.42-0.91-0.81-1.46-1.12
		c-2.96-1.71-6.96-0.36-9.87,0.63l-1.71,0.56c-3.3,1.05-7.06,2.25-8.84,5.76c-1.78,3.51-1.15,7.47-0.37,11.23
		c0.41,2.03,0.71,4.13,1.02,6.16c0.36,2.44,0.74,4.94,1.3,7.4c-0.63-0.46-1.32-0.86-2.07-1.19c-2.35-1.02-4.18,0.52-5.18,1.34
		c-0.34,0.29-0.76,0.76-1.29,1.37c-1.07,1.19-3,3.44-4.13,3.35c-0.14-0.02-0.32-0.05-0.56-0.36c-0.51-0.69-0.59-1.93-0.66-3.01
		c-0.03-0.51-0.07-1-0.14-1.44c-0.12-0.85-0.2-2.34-0.29-4.05c-0.37-6.96-0.91-17.46-5.64-19.95c-1.74-0.93-3.83-0.66-6.2,0.78
		c-0.19,0.12-0.39,0.25-0.56,0.39c-2.49,1.93-2.61,5.18-2.4,8.14c-0.51-0.59-1.22-1.15-2.13-1.69c-7.32-4.25-16.46,2.32-22.05,9.25
		c-1.59,1.98-2.86,4.11-3.73,6.28c-0.88,2.17-1.35,4.37-1.42,6.5c-0.05,2,0.25,3.93,0.95,5.72c1.19,3.1,3.73,5.18,6.2,7.2
		c1.15,0.97,2.37,1.95,3.37,3.01l0.51,0.54c3.39,3.62,11.09,11.85,17.09,11.85c0.29,0,0.56-0.02,0.85-0.07
		c1.96-0.27,3.51-1.49,4.59-3.61c1.44-2.79-0.71-6.54-2.44-9.53c-0.58-1.02-1.12-1.96-1.39-2.66c-1.15-2.93-1.15-2.93-0.19-3.91
		c0.39-0.37,0.91-0.9,1.52-1.68c0.63-0.78,1.49-2.1,2.17-3.59c1.25,3.93,3.2,8.21,6.62,10.01c1.22,0.64,2.35,0.9,3.42,0.9
		c2.76,0,5.03-1.76,7.11-3.37c0.97-0.73,1.95-1.49,2.93-2.07l0.88-0.49c2.51-1.41,5.64-3.15,6.89-6.05
		c0.22-0.49,0.34-0.98,0.42-1.47c1.71,1.69,4.03,2.79,6.38,2.81h0.08c1.17,0,2.34-0.22,3.47-0.44c1.19-0.2,2.22-0.44,3.4-0.41
		c3.03,0.03,6.74-0.3,8.25-3.25c1.3,1.71,3.47,2.91,5.54,2.96h0.2c3.98,0,5.37-3.57,6.6-6.72c0.78-1.96,1.51-3.83,2.73-4.76
		c0.1-0.07,0.34-0.25,0.49-0.2c0.56,0.19,1.17,2.1,1.49,3.13c0.14,0.47,0.29,0.91,0.42,1.29c1.44,3.84,4.47,7.86,8.25,6.52
		c1.93-0.69,3.28-1.9,3.91-3.47c0.71-1.74,0.49-3.91-0.61-6.08c-1.12-2.18-2.12-4.13-3.35-6.01c-0.56-0.88-1.3-1.57-2-2.24
		c-0.58-0.54-1.12-1.05-1.57-1.66C137.06,24,138.1,23,139.1,22.02z M61.07,26.9c0.25,3.29,0.66,6.47,1.24,9.53
		c-1.47-0.24-3.57,0.42-6.27,3.67c-0.25,0.29-1.73,2.1-2.49,3.64c-1.02-1.13-1.54-2.29-1.58-3.49c-0.12-2.9,2.56-5.71,5.15-8.43
		C58.71,30.13,60.25,28.52,61.07,26.9z M63.79,42.94c-0.2,0.75-0.51,1.49-0.86,2.2c-0.1,0.24-0.22,0.47-0.36,0.69
		c-0.12,0.22-0.24,0.44-0.37,0.66c-0.39,0.64-0.78,1.22-1.13,1.66c-0.54,0.69-1,1.17-1.37,1.54c-1.57,1.57-1.61,2.17-0.22,5.71
		c0.32,0.81,0.88,1.78,1.52,2.9c1.44,2.51,3.4,5.94,2.4,7.91c-0.85,1.63-1.93,2.52-3.34,2.71c-5.25,0.73-13.38-7.98-16.46-11.26
		l-0.53-0.56c-1.07-1.13-2.32-2.17-3.52-3.15c-2.39-1.96-4.66-3.83-5.69-6.5c-0.59-1.59-0.88-3.28-0.83-5.06
		c0.1-3.91,1.8-8.09,4.78-11.77c4.17-5.15,13.04-12.82,19.88-8.84c1.41,0.81,2.15,1.64,2.29,2.54c0.25,1.76-1.86,4-4.1,6.35
		c-2.69,2.84-5.74,6.06-5.61,9.67c0.07,1.95,1.08,3.83,3.01,5.57c0.34,0.32,0.88,0.3,1.19-0.05c0.15-0.17,0.24-0.37,0.22-0.59
		c0.37-1.08,3.44-6.03,6.25-7.03c0.15-0.05,0.3-0.1,0.44-0.12c0.2-0.05,0.41-0.05,0.59-0.02c0.08,0,0.17,0.02,0.25,0.03
		c0,0,0.02,0,0.03,0c0.14,0.05,0.27,0.1,0.39,0.17c0,0.02,0.02,0.02,0.02,0.02c0.2,0.98,0.44,1.96,0.68,2.91
		c0.14,0.52,0.29,1.1,0.44,1.69C63.79,42.92,63.79,42.92,63.79,42.94z M90.89,43.87c-1.03,2.37-3.78,3.89-6.18,5.25l-0.9,0.51
		c-1.08,0.61-2.12,1.41-3.12,2.18c-2.84,2.2-5.3,4.1-8.7,2.3C68.48,52.3,66.67,47,65.54,42.9c-0.2-0.75-0.37-1.46-0.54-2.1
		c-0.29-1.13-0.56-2.3-0.8-3.49c-0.78-3.86-1.3-7.96-1.56-12.21c-0.03-0.53-0.08-1.08-0.14-1.66c-0.29-3.06-0.59-6.54,1.61-8.26
		c0.14-0.1,0.27-0.19,0.41-0.29c1.86-1.12,3.34-1.35,4.54-0.73c3.86,2.05,4.42,12.78,4.72,18.54c0.1,1.85,0.17,3.29,0.32,4.22
		c0.05,0.39,0.08,0.83,0.1,1.29c0.08,1.32,0.19,2.81,1,3.91c0.61,0.83,1.34,1.02,1.83,1.05c1.96,0.07,3.89-2.13,5.49-3.93
		c0.44-0.51,0.86-0.98,1.12-1.19c1.3-1.1,2.24-1.59,3.4-1.1c1.85,0.8,3.32,2.17,3.91,3.69C91.38,41.72,91.36,42.8,90.89,43.87z
		 M112.95,40.99c-1.07,2.15-4.15,2.39-6.74,2.35c-1.25-0.02-2.52,0.22-3.73,0.44c-1.13,0.2-2.2,0.39-3.23,0.41
		c-3.1-0.03-6.27-2.46-7.18-5.52c-0.93-3.13-1.44-6.47-1.91-9.7c-0.3-2.07-0.61-4.2-1.05-6.27c-0.71-3.47-1.29-7.11,0.24-10.11
		c1.46-2.88,4.71-3.91,7.86-4.93l1.73-0.56c1.78-0.61,4-1.35,5.96-1.35c0.93,0,1.8,0.17,2.52,0.59c0.41,0.22,0.76,0.51,1.08,0.83
		c0.88,0.93,1.27,2.17,1.03,3.29c-0.25,1.13-1.1,2.03-2.37,2.52c-0.88,0.36-1.9,0.54-2.98,0.76c-1.95,0.37-3.96,0.76-5.47,2.05
		c-1.39,1.2-2.1,2.37-2.13,3.49c0,0.56,0.15,1.39,1,2.15c1.46,1.37,3.61,0.52,5.16-0.1c0.39-0.15,0.75-0.29,1.03-0.37
		c0.85-0.25,3.42-1,5.03-0.71c1.08,0.19,1.9,0.83,2.27,1.81c0.44,1.15,0.2,2.54-0.61,3.57c-1.35,1.74-3.47,1.98-5.71,2.25
		c-0.76,0.08-1.51,0.17-2.24,0.32c-1.17,0.24-2.93,0.58-3.79,2.17c-0.58,1.07-0.71,2.76-0.32,4.03c0.27,0.88,0.78,1.52,1.44,1.88
		c1.24,0.64,2.69,0,3.86-0.51c0.42-0.19,0.81-0.36,1.13-0.44c2.71-0.69,4.86-0.71,6.38-0.08c0.76,0.32,1.41,1.07,1.78,2.07
		c0.1,0.27,0.17,0.56,0.22,0.83c-0.03,0.41,0,0.83,0.1,1.29C113.29,40.01,113.17,40.55,112.95,40.99z M134.76,24.9
		c0.58,1.02,1.39,1.78,2.18,2.52c0.66,0.63,1.29,1.24,1.76,1.93c1.17,1.81,2.17,3.73,3.23,5.86c0.88,1.73,1.08,3.4,0.58,4.69
		c-0.46,1.13-1.44,1.96-2.91,2.51c-3.45,1.22-5.84-4.83-6.11-5.52c-0.12-0.36-0.25-0.76-0.39-1.2c-0.54-1.76-1.17-3.78-2.59-4.23
		c-0.46-0.15-1.17-0.19-2.03,0.47c-1.59,1.2-2.44,3.37-3.27,5.47c-1.39,3.57-2.49,5.72-5.18,5.66c-1.81-0.05-3.84-1.34-4.71-3
		c-0.14-0.25-0.22-0.49-0.29-0.71c0-0.41-0.03-0.81-0.08-1.22c0.14-0.69,0.56-1.34,1.17-2.22l0.3-0.47c0.61-0.88,1.47-1.86,2.4-2.91
		c2.57-2.95,5.5-6.27,4.89-9.91c-0.15-0.81-0.47-1.68-0.97-2.52c-1.17-2.03-2.78-3.51-4.32-4.91c-0.9-0.83-1.83-1.68-2.68-2.64
		c-1.83-2.1-1.85-3.54-0.07-5.91c1.08-1.47,2.17-2.13,3.3-2.07c3.35,0.25,6.98,6.93,9.14,10.92c0.76,1.42,1.42,2.64,1.96,3.42
		c0.17,0.24,0.42,0.37,0.71,0.37c0.27,0,0.54-0.15,0.69-0.37c0.36-0.54,0.73-1.07,1.1-1.61c1-1.42,2.01-2.9,2.84-4.44
		c1.22-2.32,2.4-4.13,4.17-5.42c1.61-1.17,3.07-0.47,3.79,0.03c1.73,1.22,2.66,3.59,2.13,5.38c-0.37,0.93-5.27,5.67-7.62,7.96
		C134.32,24.31,134.32,24.31,134.76,24.9z"/>
	<g>
		<path style="fill:#F6E298;" d="M173.06,33.44c-0.24,0.61-0.49,1.25-0.71,1.98c-1.29-0.39-4.01-1.03-9.99-2.34
			c-1.78-0.39-3.17-0.69-3.51-0.78c-0.34-0.1-0.86-0.2-1.46-0.32c-1.42-0.29-5.16-1.03-5.37-2.05c-0.14-0.59,0.74-2.76,1.07-3.57
			c0.14-0.32,0.24-0.59,0.32-0.81c0.15-0.44,0.41-0.88,1.32-0.88c0.29,0,0.64,0.05,1.08,0.15c2.35,0.56,4.67,1.46,6.93,2.32
			c2.68,1.03,5.44,2.1,8.35,2.66c1.76,0.34,2.34,0.78,2.51,1.07C173.86,31.35,173.49,32.32,173.06,33.44z"/>
		<path d="M177.28,28.83c-1.17-2.1-3.49-2.79-5.38-3.15c-2.54-0.49-5.13-1.49-7.62-2.46c-2.39-0.91-4.84-1.86-7.47-2.49
			c-0.71-0.17-1.41-0.25-2.03-0.25c-2.54,0-4.47,1.32-5.3,3.64c-0.07,0.15-0.14,0.34-0.24,0.56l-0.03,0.12
			c-0.95,2.35-1.64,4.28-1.29,5.99c0.78,3.73,5.33,4.62,8.65,5.3c0.51,0.1,0.88,0.17,1.15,0.24c0.39,0.12,1.25,0.3,3.69,0.85
			c0.95,0.2,1.91,0.54,2.91,0.9c1.71,0.63,3.64,1.32,5.76,1.41h0.44c2.2,0,3.96-0.75,5.22-2.2
			C177.31,35.42,178.72,31.45,177.28,28.83z M175.32,31.84c0.02,0.02,0,0.03,0,0.07c-0.1,0.98-0.49,2.05-0.95,2.88
			c-0.02,0.02-0.02,0.02-0.02,0.03c-0.19,0.3-0.37,0.59-0.56,0.81c-0.64,0.76-1.51,1.12-2.42,1.24c-0.27,0.05-0.56,0.07-0.85,0.07
			h-0.34c-2.47-0.1-4.78-1.25-7.09-1.96c-0.03,0-0.05,0-0.07-0.02c-0.34-0.08-0.68-0.19-1.02-0.25c-2.07-0.46-3.25-0.71-3.61-0.81
			c-0.3-0.08-0.78-0.19-1.34-0.29c-2.62-0.52-6.21-1.25-6.65-3.34c-0.22-1,0.39-2.64,1.15-4.54c0.12-0.29,0.22-0.56,0.3-0.75
			c0.34-0.97,1.13-1.96,2.91-1.96c0.42,0,0.9,0.05,1.44,0.19c2.46,0.59,4.84,1.51,7.13,2.39c2.61,1,5.3,2.03,8.08,2.57
			c2,0.39,3.12,0.97,3.64,1.9C175.33,30.54,175.4,31.17,175.32,31.84z"/>
		<path style="fill:#F2C53F;" d="M175.06,30.07c-0.52-0.93-1.64-1.51-3.64-1.9c-2.78-0.54-5.47-1.57-8.08-2.57
			c-2.29-0.88-4.67-1.79-7.13-2.39c-0.54-0.14-1.02-0.19-1.44-0.19c-1.78,0-2.57,1-2.91,1.96c-0.08,0.19-0.19,0.46-0.3,0.75
			c-0.76,1.9-1.37,3.54-1.15,4.54c0.44,2.08,4.03,2.81,6.65,3.34c0.56,0.1,1.03,0.2,1.34,0.29c0.36,0.1,1.54,0.36,3.61,0.81
			c0.34,0.07,0.68,0.17,1.02,0.25c0.02,0.02,0.03,0.02,0.07,0.02c2.32,0.71,4.62,1.86,7.09,1.96h0.34c0.29,0,0.58-0.02,0.85-0.07
			c0.91-0.12,1.78-0.47,2.42-1.24c0.19-0.22,0.37-0.51,0.56-0.81c0-0.02,0-0.02,0.02-0.03c0.46-0.83,0.85-1.9,0.95-2.88
			c0-0.03,0.02-0.05,0-0.07C175.4,31.17,175.33,30.54,175.06,30.07z M173.06,33.44c-0.24,0.61-0.49,1.25-0.71,1.98
			c-1.29-0.39-4.01-1.03-9.99-2.34c-1.78-0.39-3.17-0.69-3.51-0.78c-0.34-0.1-0.86-0.2-1.46-0.32c-1.42-0.29-5.16-1.03-5.37-2.05
			c-0.14-0.59,0.74-2.76,1.07-3.57c0.14-0.32,0.24-0.59,0.32-0.81c0.15-0.44,0.41-0.88,1.32-0.88c0.29,0,0.64,0.05,1.08,0.15
			c2.35,0.56,4.67,1.46,6.93,2.32c2.68,1.03,5.44,2.1,8.35,2.66c1.76,0.34,2.34,0.78,2.51,1.07
			C173.86,31.35,173.49,32.32,173.06,33.44z"/>
	</g>
</g>
<g>
	<path d="M133.43,148.31c4.49,18.7,4.83,37.97,0.68,56.71l0.04,0l-1.85,9.49c0,0,0.55-0.24,2.22-0.24c0.95,0,2.27,0.08,4.07,0.32
		c0.04,0.01,0.25,0.06,0.25,0.06c4.58,1.08,8.53,4.24,10.59,8.48c1.11,2.29,1.54,6.47-0.31,8.52c-1.89,2.09-4.57,2.44-7.23,2.44
		c-1.16,0-2.31-0.07-3.4-0.09l-12.08-0.22l-2.62-0.05c-2.1-0.04-5.4-1.8-5.36-3.9l5.03-25.98h0h0c4.27-17.79,4.03-35.32-0.24-53.1
		C126.63,149.94,130.03,149.13,133.43,148.31 M133.44,145.77c-0.2,0-0.4,0.02-0.59,0.07l-5.48,1.31l-4.73,1.13
		c-1.36,0.33-2.2,1.7-1.88,3.06c4.27,17.8,4.35,34.78,0.24,51.92c-0.01,0.04-0.02,0.07-0.02,0.11l-5.03,25.98
		c-0.03,0.14-0.04,0.29-0.05,0.44c-0.03,1.86,1.04,3.6,3.03,4.9c1.48,0.97,3.28,1.56,4.83,1.59l2.62,0.05l12.08,0.22
		c0.42,0.01,0.86,0.02,1.3,0.04c0.71,0.02,1.43,0.05,2.15,0.05c2.86,0,6.48-0.37,9.11-3.28c2.79-3.08,2.1-8.48,0.71-11.33
		c-2.39-4.91-6.98-8.59-12.29-9.84l0,0c-0.14-0.03-0.41-0.1-0.48-0.11c-1.3-0.18-2.47-0.28-3.51-0.33l1.22-6.25
		c0.02-0.12,0.04-0.24,0.04-0.36c4.11-18.84,3.84-38.16-0.78-57.43C135.62,146.55,134.58,145.77,133.44,145.77L133.44,145.77z"/>
	<path style="fill:#FFFFFF;" d="M134.12,205.02l-10.65-1.15c4.27-17.8,4.03-35.32-0.24-53.1c3.4-0.83,6.81-1.64,10.21-2.46
		C137.93,167.01,138.28,186.29,134.12,205.02z"/>
	<path style="fill-rule:evenodd;clip-rule:evenodd;fill:#1F81B3;" d="M149.12,231.66c-2.71,3-7.04,2.42-10.63,2.35l-12.07-0.22
		l-2.62-0.05c-2.1-0.03-5.38-1.79-5.35-3.89l5.03-25.98l10.65,1.15h0.03l-1.85,9.5c0,0,1.34-0.59,6.28,0.08
		c0.05,0,0.25,0.05,0.25,0.05c4.59,1.08,8.53,4.25,10.58,8.48C150.54,225.43,150.97,229.61,149.12,231.66z"/>
</g>
<g>
	<path style="fill:#FFFFFF;" d="M113.36,208.09l-10.65-1.17c4.27-17.78,4.03-35.31-0.24-53.1c3.4-0.81,6.79-1.63,10.19-2.44
		C117.13,170,117.49,189.39,113.36,208.09z"/>
	<path d="M112.67,151.37c4.47,18.64,4.8,38.02,0.69,56.71l0.02,0l-1.85,9.49c0,0,0.55-0.24,2.22-0.24c0.95,0,2.27,0.08,4.07,0.32
		c0.04,0.01,0.25,0.06,0.25,0.06c4.58,1.08,8.53,4.24,10.59,8.48c1.11,2.29,1.54,6.47-0.31,8.52c-1.89,2.09-4.56,2.44-7.23,2.44
		c-1.16,0-2.31-0.07-3.4-0.09l-12.08-0.22l-2.62-0.05c-2.1-0.04-5.4-1.8-5.36-3.9l5.03-25.98c0,0,0,0,0,0h0
		c4.27-17.79,4.03-35.32-0.24-53.1C105.87,153,109.27,152.18,112.67,151.37 M112.67,148.83c-0.2,0-0.4,0.02-0.59,0.07l-4.63,1.11
		l-5.57,1.34c-1.36,0.33-2.2,1.7-1.88,3.06c4.27,17.8,4.35,34.78,0.24,51.92c-0.01,0.04-0.02,0.07-0.02,0.11l-5.03,25.98
		c-0.03,0.14-0.04,0.29-0.05,0.44c-0.07,3.87,4.6,6.43,7.85,6.49l2.62,0.05l12.08,0.22c0.42,0.01,0.85,0.02,1.29,0.04
		c0.71,0.02,1.43,0.05,2.15,0.05c2.86,0,6.48-0.37,9.11-3.28c2.79-3.08,2.1-8.48,0.71-11.33c-2.39-4.91-6.98-8.59-12.29-9.84l0,0
		c-0.14-0.03-0.41-0.1-0.48-0.11c-1.3-0.18-2.47-0.28-3.51-0.33l1.22-6.25c0.02-0.1,0.03-0.2,0.04-0.29
		c4.04-18.65,3.77-38.53-0.78-57.5c-0.16-0.66-0.57-1.22-1.14-1.57C113.59,148.96,113.13,148.83,112.67,148.83L112.67,148.83z"/>
	<path style="fill-rule:evenodd;clip-rule:evenodd;fill:#2698D2;" d="M128.36,234.72c-2.73,3-7.04,2.42-10.63,2.35l-12.07-0.22
		l-2.62-0.05c-2.1-0.03-5.38-1.79-5.35-3.89l5.03-25.99l10.65,1.17h0.03l-1.86,9.48c0,0,1.35-0.58,6.3,0.08
		c0.03,0.02,0.25,0.07,0.25,0.07c4.57,1.08,8.52,4.25,10.58,8.48C129.78,228.49,130.21,232.67,128.36,234.72z"/>
</g>
<g>
	<path style="fill:#FFFFFF;" d="M136,54.28c-1.37,1.52-3.4,2.32-5.45,2.32c-1.49,0-2.98-0.42-4.25-1.3
		c-0.02-0.02-0.03-0.03-0.07-0.05c-0.9-0.63-3.15-2.25-3.18-2.32c-1.08-0.75-2.03-1.27-2.91-1.27c-0.66,0-1.29,0.29-1.91,0.97
		c-1.52,1.68-0.97,3.44-3.03,3.74c-1.05,0.17-2,0.51-2.73,0.51c-0.49,0-0.86-0.15-1.08-0.63c-1.63-3.39-0.27-8.84,1.96-11.82
		c1.32-1.73,3.23-2.9,5.44-3.61c1.54-0.49,2.95-0.71,4.23-0.71c2.86,0,5.25,1.08,7.81,2.73c2.54,1.3,3.71,2.57,4.17,2.9
		c1.12,0.8,1.86,1.81,2.25,2.93C137.88,50.52,137.49,52.62,136,54.28z"/>
	<path d="M139.64,47.83c-0.25-0.75-0.61-1.44-1.07-2.07c-0.58-0.8-1.29-1.51-2.12-2.1c-0.05-0.05-0.14-0.12-0.24-0.2
		c-0.69-0.59-1.96-1.69-4.13-2.83c-2.4-1.52-5.35-3.06-9.08-3.06c-1.61,0-3.25,0.27-5.01,0.85c-2.88,0.91-5.13,2.44-6.67,4.49
		c-2.76,3.66-4.35,10.06-2.24,14.44c0.63,1.32,1.86,2.07,3.37,2.07c0.71,0,1.39-0.15,2.03-0.3c0.34-0.08,0.69-0.17,1.07-0.22
		c2.68-0.39,3.45-2.32,3.88-3.35c0.2-0.51,0.36-0.86,0.66-1.19c0.05-0.05,0.08-0.1,0.12-0.12c0.15,0.05,0.54,0.2,1.3,0.75
		c0.36,0.29,0.95,0.73,1.95,1.44c0.37,0.25,0.8,0.56,1.3,0.91l0.08,0.05c1.64,1.15,3.61,1.76,5.69,1.76c2.84,0,5.52-1.15,7.33-3.17
		C139.94,53.69,140.6,50.66,139.64,47.83z M136,54.28c-1.37,1.52-3.4,2.32-5.45,2.32c-1.49,0-2.98-0.42-4.25-1.3
		c-0.02-0.02-0.03-0.03-0.07-0.05c-0.9-0.63-3.15-2.25-3.18-2.32c-1.08-0.75-2.03-1.27-2.91-1.27c-0.66,0-1.29,0.29-1.91,0.97
		c-1.52,1.68-0.97,3.44-3.03,3.74c-1.05,0.17-2,0.51-2.73,0.51c-0.49,0-0.86-0.15-1.08-0.63c-1.63-3.39-0.27-8.84,1.96-11.82
		c1.32-1.73,3.23-2.9,5.44-3.61c1.54-0.49,2.95-0.71,4.23-0.71c2.46,0,4.56,0.8,6.72,2.07c0.36,0.2,0.71,0.42,1.08,0.66
		c2.54,1.3,3.71,2.57,4.17,2.9c1.12,0.8,1.86,1.81,2.25,2.93C137.88,50.52,137.49,52.62,136,54.28z"/>
	<path style="fill:#62321C;" d="M136,54.28c-1.37,1.52-3.4,2.32-5.45,2.32c-1.49,0-2.98-0.42-4.25-1.3
		c-0.02-0.02-0.03-0.03-0.07-0.05c-0.9-0.63-3.15-2.25-3.18-2.32c-0.32-0.52,0.8-1.17,1.66-1.47c0.51-0.2,1.05-0.2,1.57-0.12
		c-0.66-0.24-1.2-0.68-1.47-1.3c-0.58-1.24,0.1-2.66,1.51-3.2c0.66-0.24,1.35-0.22,1.98-0.02c-0.56-0.25-1.05-0.66-1.3-1.2
		c-0.1-0.22-0.15-0.46-0.15-0.68c0-0.54,0.25-1.07,0.66-1.52c0,0,0.68-0.93,2.24-1.24c0.36,0.2,0.71,0.42,1.08,0.66
		c2.54,1.3,3.71,2.57,4.17,2.9c1.12,0.8,1.86,1.81,2.25,2.93C137.88,50.52,137.49,52.62,136,54.28z"/>
</g>
<g>
	<path style="fill:#FFFFFF;" d="M98.35,56.96c-0.22,1.44-2.52,2.78-4.27,2.95c-0.12,0.02-0.24,0.02-0.36,0.02
		c-0.61,0-1-0.19-1.35-0.49c-0.02-0.02-0.02-0.02-0.03-0.03c-0.32-0.39-0.66-0.85-1.15-1.3c-0.02-0.02-0.03-0.03-0.07-0.07
		c-0.27-0.29-0.58-0.58-0.97-0.86c-0.58-0.44-1.12-0.64-1.61-0.64c-1.05,0-1.93,0.9-2.93,2.2c-0.02,0.08-1.73,2.46-2.4,3.37
		c-0.02,0.02-0.03,0.05-0.05,0.07c-1.35,1.81-3.4,2.76-5.49,2.76c-1.44,0-2.88-0.46-4.12-1.39c-1.88-1.42-2.84-3.64-2.74-5.84
		c0.05-1.34,0.51-2.64,1.32-3.79c1.37-1.91,4.1-5.05,4.13-5.06c2.73-2.83,5.74-4.66,9.86-4.66c0.44,0,0.9,0.02,1.37,0.07
		c2.3,0.2,4.47,1,6.21,2.56C96.7,49.49,98.96,52.81,98.35,56.96z"/>
	<path d="M95.41,44.92c-2.05-1.85-4.64-2.93-7.69-3.22c-0.53-0.05-1.07-0.07-1.59-0.07c-5.77,0-9.43,3.1-11.68,5.44
		c-0.39,0.39-0.88,1-1.69,1.95c-0.17,0.2-0.36,0.42-0.54,0.66c-0.71,0.86-1.54,1.9-2.13,2.74c-1.1,1.54-1.73,3.32-1.79,5.15
		c-0.14,3.12,1.27,6.11,3.76,7.99c1.64,1.24,3.59,1.9,5.64,1.9c2.95,0,5.74-1.42,7.52-3.78c0-0.02,0.03-0.05,0.05-0.07
		c0.8-1.08,1.37-1.86,1.78-2.42c0.3-0.44,0.51-0.76,0.66-1c0.46-0.59,0.74-0.88,0.91-1.03c0.02,0,0.03,0.02,0.05,0.03
		c0.46,0.34,0.74,0.69,1.07,1.1c0.66,0.81,1.78,2.17,4.01,2.17c0.19,0,0.39,0,0.59-0.02c2.46-0.24,6.1-2.15,6.54-5.11
		C101.52,52.94,99.68,48.76,95.41,44.92z M98.35,56.96c-0.22,1.44-2.52,2.78-4.27,2.95c-0.12,0.02-0.24,0.02-0.36,0.02
		c-0.61,0-1-0.19-1.35-0.49c-0.02-0.02-0.02-0.02-0.03-0.03c-0.37-0.32-0.69-0.8-1.15-1.3c-0.02-0.02-0.03-0.03-0.07-0.07
		c-0.27-0.29-0.58-0.58-0.97-0.86c-0.58-0.44-1.12-0.64-1.61-0.64c-1.05,0-1.93,0.9-2.93,2.2c-0.02,0.08-1.73,2.46-2.4,3.37
		c-0.02,0.02-0.03,0.05-0.05,0.07c-1.35,1.81-3.4,2.76-5.49,2.76c-1.44,0-2.88-0.46-4.12-1.39c-1.88-1.42-2.84-3.64-2.74-5.84
		c0.05-1.34,0.51-2.64,1.32-3.79c1.37-1.91,4.1-5.05,4.13-5.06l0.15-0.15c2.69-2.74,5.66-4.5,9.7-4.5c0.44,0,0.9,0.02,1.37,0.07
		c2.3,0.2,4.47,1,6.21,2.56C96.7,49.49,98.96,52.81,98.35,56.96z"/>
	<path style="fill:#62321C;" d="M85.62,58.72c-0.02,0.08-1.73,2.46-2.4,3.37c-0.02,0.02-0.03,0.05-0.05,0.07
		c-1.35,1.81-3.4,2.76-5.49,2.76c-1.44,0-2.88-0.46-4.12-1.39c-1.88-1.42-2.84-3.64-2.74-5.84c0.05-1.34,0.51-2.64,1.32-3.79
		c1.37-1.91,4.1-5.05,4.13-5.06l0.15-0.15c1.61,0,2.37,0.83,2.37,0.83c0.66,0.56,1.1,1.34,0.98,2.2c-0.08,0.66-0.44,1.22-0.9,1.64
		c0.54-0.37,1.2-0.58,1.9-0.47c1.49,0.22,2.56,1.61,2.35,3.12c-0.1,0.76-0.49,1.39-1.05,1.81c0.47-0.22,0.98-0.36,1.54-0.29
		C84.54,57.65,85.79,58.07,85.62,58.72z"/>
</g>
<g>
	<path style="fill:#FFFFFF;" d="M151.76,128.53c0.91,1.03,2.2,1.9,3.47,2.31c7.46,2.44,17.73,3.28,23.2-1.5
		c0.66-0.58,1.61-1.99,2.08-2.7c-3.78-1.02-7.13-2.82-9.86-6.41c-0.35,0.73-0.89,1.44-1.7,2.1c-1.63,1.32-4.86,0.21-6.63-0.04
		c-2.69-0.38-5.57-0.63-7.89,0.72C152.57,124.11,149.66,126.17,151.76,128.53z"/>
	<path style="fill:#1F81B3;" d="M172.7,98.42c-2.29,1.52-3.98,4.13-4.64,6.79c-0.33,1.32,0.33,3.85,1.21,4.89
		c0.88,1.04,2.09,1.04,3.21,1.57c0.7,0.33,0.62,0.08,0.79,0.93c0.1,0.52-0.05,1.17-0.15,1.67c-0.44,2.21-1.65,4.16-2.55,6.2
		c-1.19,2.69-1.09,6.51,0.83,8.56c0.89,0.96,2.18,1.53,3.92,1.44c3.21-0.17,5.21-2.54,6.34-5.35c1.23-3.07,2.28-5.98,3.14-9.19
		c0.91-3.4,1.49-7.06,0.76-10.55c-0.75-3.55-3.58-7.5-7.35-8.17C176.19,96.84,174.3,97.36,172.7,98.42z"/>
	<path style="fill:#323637;" d="M166.93,121.61c-2.13-0.62-3.16-1.95-4.96-3.3c-2.48-1.85-5.79-1.79-8.47-0.4
		c-1.45,0.75-2.18,1.8-3.25,2.93c-1.25,1.31-3.26,2.09-3.35,4.16c-0.08,1.75-0.72,3.54,0.32,5.22c0.78,1.28,2.23,2.79,3.58,3.44
		c1.33,0.64,3.03,1.33,4.48,1.64c2.48,0.53,4.68-0.21,7.17,0.2c2.61,0.43,5.14,1.31,7.77,1.62c2.12,0.25,4.19-0.25,5.83-1.64
		c1.56-1.33,2.46-3.2,3.98-4.59c2.48-2.27,6.05-7.29,4.16-10.79c0.66-0.91,1.66-2.61,1.39-3.79c-0.64-2.74-5.92-1.39-7.68-1.23
		c-1.26,0.12-2.52-0.13-3.57-0.81c-0.83-0.54-1.19-1.06-2.27-0.68c-2.37,0.83-1.62,3-2.19,4.73c-0.2,0.6-0.77,1.47-1.24,1.9
		C168.03,120.78,167.33,120.69,166.93,121.61z"/>
	<path style="fill:#494C4E;" d="M187.22,115.93c-0.3-1.37-1.44-3.01-4.96-3.01c-1.25,0-2.56,0.2-3.52,0.34
		c-0.39,0.07-0.73,0.12-0.98,0.14c-0.15,0.02-0.3,0.02-0.46,0.02c-0.76,0-1.47-0.19-2.03-0.56c-0.14-0.08-0.24-0.17-0.36-0.24
		c-0.49-0.36-1.17-0.85-2.18-0.85c-0.39,0-0.78,0.07-1.22,0.22c-2.69,0.95-2.91,3.22-3.03,4.56c-0.05,0.47-0.1,0.91-0.2,1.24
		c-0.1,0.32-0.53,0.95-0.78,1.19c-0.05,0.05-0.17,0.1-0.3,0.17c-0.2,0.1-0.49,0.24-0.76,0.46c-0.69-0.36-1.27-0.85-2-1.46
		c-0.39-0.34-0.81-0.69-1.27-1.03c-0.07-0.05-0.12-0.1-0.19-0.15c-0.39-0.29-0.81-0.56-1.25-0.78c-1.25-0.63-2.68-0.97-4.15-0.97
		c-1.64,0-3.32,0.41-4.84,1.2c-1.42,0.73-2.27,1.68-3.1,2.59c-0.19,0.22-0.39,0.46-0.61,0.68c-0.27,0.29-0.64,0.58-1.03,0.88
		c-1.13,0.9-2.68,2.12-2.78,4.37c-0.02,0.39-0.07,0.8-0.12,1.19c-0.19,1.44-0.41,3.23,0.68,5c0.88,1.42,2.54,3.23,4.28,4.08
		c1.02,0.49,3,1.37,4.86,1.78c0.76,0.17,1.54,0.24,2.44,0.24c0.59,0,1.19-0.03,1.78-0.07c0.53-0.03,1.05-0.07,1.57-0.07
		c0.56,0,1.02,0.03,1.46,0.12c0.66,0.1,1.32,0.25,2,0.41c0.42,0.1,0.85,0.2,1.29,0.3c0.19,0.05,0.37,0.08,0.56,0.14
		c1.3,0.3,2.64,0.61,4.01,0.78c0.41,0.05,0.83,0.07,1.24,0.07c2.24,0,4.27-0.73,5.89-2.1c0.95-0.81,1.66-1.74,2.34-2.64
		c0.56-0.75,1.07-1.42,1.69-1.98c2.46-2.25,6.4-7.43,4.93-11.87C186.83,119.1,187.58,117.44,187.22,115.93z M180.02,130.9
		c-1.52,1.39-2.42,3.25-3.98,4.59c-1.37,1.17-3.05,1.69-4.79,1.69c-0.34,0-0.69-0.02-1.03-0.05c-1.59-0.19-3.13-0.58-4.67-0.95
		c-0.63-0.15-1.25-0.3-1.86-0.44c-0.41-0.08-0.83-0.17-1.24-0.24c-0.59-0.1-1.17-0.14-1.74-0.14c-1.13,0-2.24,0.14-3.35,0.14
		c-0.68,0-1.37-0.05-2.08-0.2c-1.44-0.3-3.15-1-4.47-1.64c-1.35-0.64-2.79-2.17-3.57-3.44c-1.05-1.69-0.41-3.49-0.32-5.23
		c0.08-2.07,2.1-2.84,3.34-4.15c1.08-1.13,1.81-2.18,3.27-2.93c1.25-0.66,2.68-1.02,4.06-1.02c1.22,0,2.44,0.27,3.54,0.86
		c0.3,0.15,0.59,0.34,0.86,0.54c0.2,0.15,0.37,0.29,0.56,0.44c1.47,1.2,2.51,2.32,4.4,2.86c0.41-0.91,1.08-0.83,1.71-1.39
		c0.46-0.42,1.03-1.3,1.24-1.9c0.58-1.73-0.19-3.89,2.18-4.72c0.25-0.1,0.47-0.14,0.66-0.14c0.61,0,0.98,0.39,1.61,0.81
		c0.88,0.58,1.91,0.83,2.96,0.83c0.2,0,0.41,0,0.61-0.02c0.9-0.08,2.71-0.47,4.35-0.47c1.57,0,3.01,0.36,3.32,1.71
		c0.27,1.17-0.73,2.88-1.39,3.78C186.07,123.61,182.51,128.63,180.02,130.9z"/>
	<path style="fill:#494C4E;" d="M180.43,122.44c-0.82,0-1.72-0.13-2.51-0.28c-1.22-0.23-2.82-0.88-4.09-1.65
		c-0.4-0.24-0.53-0.76-0.29-1.16c0.24-0.4,0.77-0.53,1.16-0.29c1.1,0.66,2.52,1.24,3.54,1.44c1.59,0.31,2.96,0.3,3.24,0.1
		c0.33-0.33,0.86-0.32,1.19,0.02c0.33,0.33,0.31,0.88-0.02,1.2C182.19,122.28,181.36,122.44,180.43,122.44z"/>
	<path style="fill:#494C4E;" d="M168.03,130.74c-1.15-1.97-1.8-4.73-0.66-6.45c0.26-0.39,0.15-0.92-0.24-1.17
		c-0.06-0.04-0.13-0.06-0.2-0.08c0-0.11-0.02-0.23-0.07-0.34c-0.18-0.43-0.68-0.63-1.11-0.45c-1.19,0.5-3.6,3.17-3.71,5.2
		c-0.05,0.9,0.34,1.63,1.09,2.06c0.13,0.07,0.27,0.11,0.41,0.11c0.3,0,0.58-0.16,0.74-0.43c0.23-0.41,0.08-0.92-0.33-1.15
		c-0.13-0.07-0.24-0.16-0.23-0.48c0.05-0.83,0.86-2.04,1.63-2.86c-0.7,2.3,0.11,5.04,1.2,6.91c0.16,0.27,0.44,0.42,0.73,0.42
		c0.15,0,0.29-0.04,0.43-0.11C168.13,131.67,168.27,131.15,168.03,130.74z"/>
	<path style="fill:#D1DCE1;" d="M142.77,197.35c-0.65,0-1.51-0.26-2.44-1.25c-1.55-1.65-1.28-4.92-1.06-7.55
		c0.06-0.76,0.12-1.45,0.12-2c0-0.35,0.21-0.66,0.54-0.79c0.3-0.12,0.79-0.18,1.41,0.18c1.67,0.98,3.79,4.98,4.1,7.14
		c0.25,1.79-0.43,3.44-1.67,4.04C143.57,197.22,143.22,197.35,142.77,197.35z M141.03,187.86c-0.02,0.26-0.04,0.54-0.07,0.83
		c-0.18,2.17-0.43,5.15,0.6,6.25c0.27,0.28,0.95,0.92,1.48,0.66c0.48-0.23,0.88-1.14,0.72-2.27
		C143.52,191.6,142.02,188.96,141.03,187.86z"/>
	<path style="fill:#D1DCE1;" d="M99.54,189.58c-0.19,0.86-0.47,1.74-0.76,2.59c-0.27,0.83-0.53,1.61-0.68,2.32
		c-0.56,2.74-0.88,5.64-0.98,9.13c-0.25-0.17-0.56-0.25-0.88-0.25c-0.29,0-0.58,0.07-0.81,0.22c0.1-3.59,0.42-6.59,1.02-9.43
		c0.15-0.71,0.39-1.47,0.64-2.22c-0.71,0.88-1.56,1.57-2.54,1.74c-0.93,0.17-1.85-0.17-2.71-0.98c-1.25-1.19-1.24-2.84,0.07-4.3
		c0.46-0.51,1.07-0.98,1.78-1.39c0.63,0.36,1.25,0.68,1.91,0.97c-0.93,0.34-1.85,0.91-2.42,1.56c-1.02,1.13-0.41,1.71-0.17,1.93
		c0.68,0.64,1.12,0.58,1.27,0.56c1.05-0.19,2.12-1.95,2.86-3.34C97.91,189,98.71,189.31,99.54,189.58z"/>
	<path style="fill-rule:evenodd;clip-rule:evenodd;fill:#323637;" d="M161.96,128.69c-0.43-1.99-1.52-4.2-1.68-6.2
		c-0.27-3.47,1.74-6.51,2.74-9.67c3.24-10.24,3.58-20.04,0.82-30.42c-2.12-7.98-6.49-16.64-13.23-21.62
		c-4.72-3.49-9.86-5.32-14.93-8.04c-3.43-1.84-6.16-3.8-10.31-4.25c-3.02-0.33-5.59,1.21-8.42,1.73c-3.21,0.59-6.41,0.6-9.62,1.47
		c-6.26,1.7-15.13,4.39-19.16,9.69c-5.06,6.65-10.48,13.75-13.56,21.75c-1.56,4.04-2.5,8.32-2.51,12.66
		c-0.03,7.95,5.14,12.71,8.12,19.52c0.79,1.81,1.84,4.2,2.01,6.19c1.49,16.77-7.82,34.98-0.35,50.87
		c6.28,13.36,20.29,17.84,34.11,18.44c1.66,0.07,3.32,0.08,4.98,0.01c0.07,0,0.13-0.01,0.19-0.01l3.38-0.12
		c1.66-0.06,3.38-0.19,5.03-0.39c11.33-1.35,23.73-6.05,30.61-15.65c4.97-6.94,6.66-18.29,5.9-26.7
		C165.51,141.4,163.34,135.1,161.96,128.69z"/>
	<path style="fill:#494C4E;" d="M167.78,147.82c-0.3-3.34-0.98-6.6-1.78-9.79c-0.15-0.63-0.3-1.24-0.46-1.85
		c-0.14-0.54-0.27-1.07-0.41-1.59c-0.42-1.68-0.86-3.37-1.25-5.06c-0.1-0.41-0.19-0.81-0.27-1.2c-0.2-0.9-0.51-1.81-0.8-2.68
		c-0.03-0.08-0.05-0.15-0.08-0.24c-0.36-1.07-0.69-2.15-0.78-3.06c-0.08-1.22,0.17-2.4,0.58-3.61c0.19-0.54,0.39-1.08,0.63-1.64
		c-0.07-0.05-0.12-0.1-0.19-0.15c-0.39-0.29-0.81-0.56-1.25-0.78c-0.22,0.52-0.42,1.05-0.61,1.59c-0.58,1.52-0.97,3.06-0.83,4.72
		c0.15,2,1.25,4.22,1.68,6.2c0.51,2.37,1.12,4.71,1.73,7.06c0.15,0.61,0.32,1.22,0.47,1.85c0.86,3.42,1.63,6.86,1.93,10.36
		c0.76,8.42-0.91,19.76-5.89,26.7c-6.88,9.6-19.29,14.29-30.62,15.65c-1.64,0.2-3.37,0.34-5.03,0.39l-3.37,0.14h-0.2
		c-0.76,0.03-1.54,0.05-2.32,0.05c-0.88,0-1.76-0.02-2.66-0.07c-5.52-0.24-11.06-1.1-16.14-2.9c-1.42-0.51-2.81-1.08-4.15-1.74
		c-5.84-2.86-10.75-7.28-13.82-13.8c-4.39-9.35-2.98-19.49-1.39-29.68c0.1-0.59,0.19-1.17,0.27-1.74c1-6.32,1.95-12.63,1.51-18.76
		c-0.02-0.22-0.03-0.46-0.05-0.68c-0.03-0.36-0.08-0.73-0.17-1.1c-0.58,0.29-1.08,0.54-1.59,0.75c0.05,0.17,0.07,0.34,0.08,0.51
		c0.03,0.39,0.07,0.8,0.08,1.2c0.34,5.91-0.63,12.18-1.59,18.25c-0.02,0.08-0.03,0.19-0.05,0.27c-0.07,0.47-0.15,0.95-0.22,1.42
		c-1.59,10.18-2.96,20.61,1.57,30.29c2.81,5.98,7.3,10.65,13.33,13.9c0.63,0.36,1.25,0.68,1.91,0.97c0.49,0.25,1.02,0.47,1.54,0.71
		c0.78,0.32,1.57,0.63,2.4,0.9c4.78,1.68,10.26,2.66,16.39,2.93c0.9,0.05,1.81,0.07,2.73,0.07c0.8,0,1.59-0.02,2.39-0.05h0.15
		l3.42-0.14c1.74-0.07,3.52-0.2,5.16-0.39c13.95-1.68,25.54-7.64,31.78-16.34C166.92,168.17,168.54,156.29,167.78,147.82z"/>
	<path style="fill:#494C4E;" d="M164.63,113.33c-0.32,1.03-0.74,2.02-1.15,2.98c-0.12,0.27-0.22,0.52-0.32,0.8
		c-0.07-0.05-0.12-0.1-0.19-0.15c-0.39-0.29-0.81-0.56-1.25-0.78c0.46-1.12,0.95-2.24,1.3-3.35c3.23-10.23,3.57-20.05,0.81-30.41
		c-2.12-7.99-6.49-16.65-13.23-21.62c-4.72-3.49-9.85-5.32-14.93-8.04c-3.42-1.85-6.16-3.79-10.3-4.25
		c-0.15-0.02-0.29-0.03-0.42-0.02c-0.29-0.02-0.56,0-0.85,0c-0.14,0.02-0.29,0.02-0.42,0.03c-0.32,0.02-0.63,0.07-0.93,0.12
		c-0.14,0.03-0.27,0.07-0.39,0.08c-0.56,0.12-1.1,0.27-1.66,0.46c-1.24,0.39-2.47,0.83-3.76,1.07c-3.2,0.58-6.4,0.59-9.62,1.47
		c-6.25,1.69-15.12,4.39-19.15,9.69c-5.06,6.65-10.48,13.75-13.56,21.74c-1.56,4.05-2.49,8.31-2.51,12.67
		c-0.03,7.94,5.13,12.7,8.11,19.51c0.66,1.51,1.47,3.37,1.85,5.1c-0.58,0.29-1.08,0.54-1.59,0.75c-0.25-1.64-1.13-3.64-1.8-5.15
		c-0.02-0.02-0.02-0.05-0.03-0.07c0.08,0.73-0.02,1.42-0.08,1.96c-0.05,0.47-0.12,0.91-0.08,1.25c0.03,0.34,0.29,1.05,0.49,1.32
		c0.03,0.07,0.14,0.15,0.25,0.24c0.19,0.15,0.42,0.36,0.64,0.63c0.2-0.05,0.41-0.12,0.61-0.19c0.05,0.17,0.07,0.34,0.08,0.51
		c0.03,0.39,0.07,0.8,0.08,1.2c-0.53,0.17-1.08,0.29-1.73,0.32c-0.19-0.98-0.88-1.07-1.34-1.74c-0.37-0.52-0.73-1.51-0.78-2.13
		c-0.17-1.81,1.05-3.74-1.07-5.1c-0.36-0.22-0.64-0.3-0.91-0.3c-0.46,0-0.86,0.24-1.46,0.46c-0.56,0.2-1.15,0.3-1.74,0.3
		c-0.64,0-1.29-0.12-1.91-0.32c-2.03-0.68-3.47-1.88-5.16-3.18c-0.47-0.36-0.95-0.63-1.42-0.63c-0.3,0-0.61,0.12-0.91,0.41
		c-1.25,1.2-0.81,3.17-0.51,4.66c0.14,0.58,0.71,1.59,0.69,2.08c0,0.59-0.76,1.42-0.93,2.07c-0.83,3.17,0.85,6.96,2.61,9.52
		c1.44,2.1,1.73,4.17,3.84,5.67c3.28,2.32,5.91,5.76,10.16,6.15c0.25,0.03,0.52,0.03,0.78,0.03h0.2c-0.02,0.08-0.03,0.19-0.05,0.27
		c-0.07,0.47-0.15,0.95-0.22,1.42c-0.29,0-0.58,0-0.86-0.03c-3.62-0.34-6.11-2.46-8.52-4.49c-0.85-0.71-1.63-1.37-2.47-1.96
		c-1.71-1.22-2.49-2.76-3.17-4.13c-0.34-0.68-0.66-1.32-1.1-1.96c-1.24-1.79-4-6.47-2.84-10.91c0.14-0.52,0.41-0.97,0.64-1.35
		c0.05-0.1,0.14-0.24,0.19-0.34c-0.05-0.15-0.14-0.36-0.19-0.49c-0.17-0.39-0.32-0.8-0.42-1.2c-0.34-1.63-0.93-4.37,1-6.21
		c0.59-0.58,1.32-0.88,2.08-0.88c1.05,0,1.9,0.56,2.46,0.98l0.53,0.41c1.39,1.07,2.59,2,4.15,2.51c0.46,0.15,0.91,0.24,1.37,0.24
		c0.41,0,0.8-0.07,1.17-0.2c0.14-0.05,0.27-0.1,0.39-0.15c0.44-0.19,0.97-0.41,1.64-0.41c0.61,0,1.2,0.19,1.81,0.58
		c0.27,0.17,0.53,0.36,0.73,0.58c-0.61-1.15-1.27-2.25-1.93-3.35c-2.47-4.11-5.03-8.38-5.01-14.22c0.02-4.32,0.9-8.79,2.62-13.26
		c3.15-8.18,8.52-15.24,13.72-22.06l0.07-0.1c4.1-5.38,12.45-8.23,20.07-10.3c2.05-0.56,4.06-0.78,6.01-1
		c1.29-0.14,2.51-0.27,3.74-0.51c0.9-0.17,1.79-0.44,2.73-0.75c1.61-0.52,3.27-1.05,5.16-1.05c0.34,0,0.68,0.02,1.02,0.05
		c3.74,0.41,6.37,1.88,9.14,3.44c0.58,0.34,1.17,0.66,1.78,1c1.66,0.88,3.34,1.69,4.98,2.47c3.39,1.61,6.88,3.27,10.16,5.69
		c6.21,4.61,11.28,12.82,13.87,22.56C168.27,92.45,167.98,102.71,164.63,113.33z"/>
	<path style="fill:#494C4E;" d="M102.47,121.15c-0.35,0-0.71-0.08-1.01-0.35c-0.56-0.5-0.46-1.24-0.38-1.83
		c0.03-0.22,0.1-0.75,0.02-0.84c-0.05-0.05-0.33-0.17-1.04-0.11c-0.2,0.01-0.37-0.03-0.52-0.13c-1.06-0.68-1.48-1.52-1.9-2.33
		c-0.1-0.2-0.2-0.4-0.32-0.62c-0.45-0.81-0.5-0.87-1.17-1.67c-2.17-2.6-4.64-5.55-5.14-9.3c-0.18-1.32-0.33-2.64-0.48-3.96
		c-0.21-1.83-0.42-3.67-0.71-5.54c-1.34-8.72-0.58-16.05,2.25-21.79c1.19-2.4,2.62-4.62,4-6.77c0.46-0.72,0.93-1.44,1.39-2.17
		c0.25-0.4,0.78-0.52,1.17-0.27c0.4,0.25,0.52,0.77,0.27,1.17c-0.46,0.74-0.93,1.47-1.4,2.19c-1.42,2.2-2.76,4.28-3.9,6.6
		c-2.67,5.42-3.38,12.41-2.09,20.78c0.29,1.89,0.5,3.75,0.72,5.6c0.15,1.31,0.3,2.62,0.48,3.92c0.44,3.26,2.74,6.01,4.77,8.44
		c0.71,0.85,0.84,1.01,1.35,1.93c0.13,0.23,0.24,0.46,0.35,0.67c0.34,0.66,0.57,1.13,1.09,1.53c0.95-0.03,1.65,0.19,2.09,0.65
		c0.64,0.68,0.52,1.57,0.43,2.23c-0.01,0.07-0.02,0.15-0.03,0.23c0.03-0.01,0.07-0.01,0.11-0.02c0.45-0.11,0.91,0.17,1.02,0.62
		c0.11,0.45-0.17,0.91-0.62,1.02C103.01,121.09,102.74,121.15,102.47,121.15z"/>
	<path style="fill:#494C4E;" d="M95.12,61.29c-0.25,0-0.5-0.11-0.67-0.33c-0.29-0.37-0.22-0.9,0.15-1.19
		c1.49-1.15,3.73-1.69,6.63-1.6c0.47,0.01,0.84,0.41,0.82,0.87c-0.01,0.46-0.39,0.82-0.85,0.82c-0.01,0-0.02,0-0.03,0
		c-2.5-0.08-4.37,0.34-5.55,1.24C95.48,61.24,95.3,61.29,95.12,61.29z"/>
	<path style="fill:#FFFFFF;" d="M92.13,133.36c-1.12,0.79-2.57,1.35-3.9,1.47c-7.82,0.69-18.01-0.81-22.26-6.71
		c-0.51-0.71-1.11-2.3-1.41-3.1c3.92-0.14,7.58-1.13,11.06-4.01c0.18,0.8,0.54,1.6,1.18,2.43c1.28,1.66,4.68,1.3,6.46,1.46
		c2.7,0.24,5.57,0.64,7.52,2.49C92.34,128.86,94.71,131.53,92.13,133.36z"/>
	<path style="fill:#2698D2;" d="M85.43,104.31c-0.79-1.06-6.74-3.55-4.43-4.96c1.08-0.65,5.18,0.18,3.79-2.32
		c-0.54-0.97-1.87-1.71-2.91-1.9c-0.82-0.15-1.56-0.07-2.38,0c-1.82,0.16-3.49-0.03-5.23,0.62c-1,0.37-2.11,0.92-3.07,1.61
		c-1.95,1.01-3.46,3.27-4.65,4.99c-2.76,3.96-3.93,6.36-3.77,11.24c0.11,3.33,0.48,6.4,0.98,9.67c0.46,2.99,1.88,5.74,4.97,6.64
		c1.67,0.49,3.06,0.22,4.14-0.51c2.34-1.57,3.3-5.26,2.75-8.15c-0.42-2.19-1.15-4.36-1.08-6.62c0.02-0.52,0.01-1.18,0.23-1.66
		c0.36-0.79,0.23-0.56,0.98-0.73c1.21-0.26,2.4,0.01,3.49-0.8c0.83-0.62,1.72-2.1,2.1-3.37c0.93,0.97,1.89,1.95,3.48,1.98
		C88.88,110.1,86.78,106.14,85.43,104.31z"/>
	<path style="fill:#323637;" d="M78.92,123.18c2.22-0.12,3.52-1.18,5.58-2.09c4.05-1.78,8.39,0.8,10.95,3.91
		c2.31,2.8,3.69,8.02,0.72,11.03c-1.05,1.07-2.8,2.21-4.26,2.54c-2.79,0.63-5.47,1.5-8.34,1.91c-1.81,0.26-3.64,0.78-5.5,0.6
		c-4.26-0.4-6.88-3.83-10.16-6.15c-2.12-1.5-2.41-3.57-3.85-5.67c-1.77-2.57-3.43-6.36-2.61-9.52c0.17-0.64,0.93-1.47,0.94-2.06
		c0.01-0.5-0.57-1.51-0.69-2.08c-0.32-1.49-0.75-3.47,0.5-4.67c0.75-0.71,1.54-0.38,2.34,0.23c1.69,1.29,3.13,2.5,5.17,3.18
		c1.2,0.4,2.48,0.44,3.66,0.01c0.93-0.34,1.4-0.76,2.36-0.15c2.12,1.35,0.9,3.29,1.07,5.1c0.06,0.63,0.42,1.61,0.78,2.13
		C78.04,122.12,78.74,122.19,78.92,123.18z"/>
	<path style="fill:#494C4E;" d="M96.76,123.93c-2.64-3.2-6.18-5.11-9.48-5.11c-1.2,0-2.37,0.25-3.45,0.73
		c-0.61,0.27-1.15,0.54-1.68,0.81c-0.03,0.02-0.05,0.03-0.08,0.05c-0.58,0.29-1.08,0.54-1.59,0.75c0.05,0.17,0.07,0.34,0.08,0.51
		c0.03,0.39,0.07,0.8,0.08,1.2c0.58-0.17,1.1-0.41,1.64-0.68c0.68-0.34,1.39-0.73,2.22-1.08c0.91-0.41,1.85-0.59,2.78-0.59
		c3.15,0,6.18,2.08,8.16,4.49c2.32,2.79,3.71,8.03,0.73,11.04c-1.05,1.07-2.79,2.2-4.27,2.54c-2.78,0.64-5.47,1.49-8.33,1.91
		c-0.93,0.14-1.85,0.32-2.79,0.46c-0.58,0.08-1.15,0.15-1.73,0.17c-0.02,0.08-0.03,0.19-0.05,0.27c-0.07,0.47-0.15,0.95-0.22,1.42
		h0.07c0.58,0,1.12-0.03,1.66-0.12c0.66-0.07,1.3-0.19,1.93-0.3c0.46-0.07,0.91-0.15,1.37-0.22c2-0.29,3.89-0.78,5.72-1.25
		c0.91-0.24,1.83-0.47,2.76-0.68c1.88-0.44,3.91-1.83,5.08-3.01C100.86,133.7,99.76,127.57,96.76,123.93z"/>
	<path style="fill:#494C4E;" d="M68.37,121.24c-0.1,0-0.19,0-0.28,0c-1.7-0.06-3.87-0.36-4.53-1.4c-0.25-0.4-0.13-0.92,0.26-1.17
		c0.39-0.25,0.91-0.14,1.16,0.25c0.24,0.26,1.57,0.57,3.17,0.63c1.06,0.04,2.56-0.2,3.77-0.6c0.45-0.15,0.92,0.1,1.07,0.54
		c0.14,0.44-0.1,0.92-0.54,1.07C71.14,120.98,69.58,121.24,68.37,121.24z"/>
	<path style="fill:#494C4E;" d="M79.91,124.07c-0.38-0.27-0.91-0.19-1.18,0.19c-0.07,0.1-0.12,0.2-0.14,0.31
		c-0.07,0.01-0.15,0.01-0.22,0.03c-0.44,0.16-0.66,0.65-0.5,1.09c0.72,1.94-0.53,4.48-2.1,6.14c-0.32,0.34-0.31,0.88,0.03,1.2
		c0.16,0.15,0.37,0.23,0.58,0.23c0.22,0,0.45-0.09,0.62-0.27c1.49-1.58,2.9-4.06,2.74-6.46c0.56,0.98,1.08,2.33,0.94,3.16
		c-0.06,0.32-0.19,0.38-0.33,0.42c-0.45,0.13-0.71,0.6-0.58,1.05c0.11,0.37,0.45,0.61,0.81,0.61c0.08,0,0.16-0.01,0.23-0.03
		c0.83-0.24,1.37-0.86,1.53-1.76C82.7,127.97,80.95,124.82,79.91,124.07z"/>
	<g>
		<g>
			<path style="fill:#F2C53F;" d="M156.25,138.93l-0.17,0.03c-0.12,0.03-0.22,0.03-0.34,0.03c-0.25,0-0.49-0.05-0.73-0.14l0.53,2.81
				c0.24,1.25-0.59,2.49-1.86,2.71l-7.94,1.49c-0.15,0.02-0.29,0.03-0.42,0.03c-0.54,0-1.07-0.19-1.49-0.52
				c-0.3-0.25-0.56-0.59-0.69-0.97c-0.05-0.14-0.08-0.27-0.12-0.41l-1.47-7.96c-0.24-1.25,0.61-2.47,1.86-2.71l1.79-0.34
				c0.02,0.02,0.05,0.02,0.07,0.02c0.05,0.02,0.12,0.02,0.17,0.02c0.25,0,0.51-0.07,0.76-0.2c0.2-0.12,0.27-0.37,0.15-0.58
				c-0.1-0.2-0.37-0.29-0.58-0.17c-0.14,0.08-0.29,0.12-0.39,0.1c0,0-0.02,0-0.03,0c0.03-0.97,0.76-1.81,1.73-2
				c0.14-0.03,0.27-0.03,0.39-0.03c0.63,0,1.2,0.27,1.61,0.73c0.08,0.1,0.15,0.2,0.22,0.3c0.12,0.2,0.22,0.44,0.27,0.69
				c0.02,0.1,0.02,0.2,0.02,0.3l1.78-0.32c0.07-0.02,0.14-0.03,0.22-0.02c0.34-0.05,0.68,0,1,0.12c0.25,0.1,0.47,0.22,0.68,0.39
				c0.1,0.08,0.2,0.19,0.29,0.29c0.27,0.3,0.46,0.68,0.52,1.08l0.36,1.88c0.22-0.2,0.47-0.37,0.8-0.44l0.15-0.03
				c0.14-0.03,0.27-0.05,0.42-0.05c0.22,0,0.42,0.03,0.61,0.1c0.2,0.07,0.37,0.17,0.54,0.3c0.32,0.25,0.56,0.61,0.66,1.03l0.03,0.17
				C157.88,137.69,157.25,138.69,156.25,138.93z"/>
			<path style="fill:#EF992D;" d="M143.82,145.38c-0.3-0.25-0.54-0.59-0.69-0.97C143.26,144.79,143.52,145.13,143.82,145.38z"/>
		</g>
		<path style="fill:#EF992D;" d="M148.22,141.83c-0.2,0-0.39-0.02-0.59-0.07c-0.26-0.06-0.46-0.15-0.63-0.28
			c-0.25-0.2-0.43-0.4-0.53-0.61c-0.07-0.15-0.14-0.31-0.2-0.48c-0.11-0.33-0.17-0.68-0.17-1.03c-0.01-0.6,0.13-1.15,0.38-1.54
			c-0.14,0.02-0.29,0-0.42-0.08c-0.18-0.1-0.29-0.29-0.31-0.5c-0.01-0.12,0.02-0.25,0.08-0.35c0,0,0.03-0.05,0.03-0.05
			c0.17-0.29,0.38-0.5,0.62-0.65c0.21-0.13,0.41-0.18,0.66-0.17c0.1,0,0.21,0.02,0.32,0.05c0.09,0.02,0.18,0.06,0.26,0.11
			c0.14,0.07,0.29,0.2,0.4,0.36c0.05-0.02,0.1-0.03,0.15-0.04c0.08-0.02,0.14-0.03,0.16-0.04c0.01,0,0.07-0.02,0.15-0.04
			c0.06-0.01,0.11-0.02,0.17-0.03c0.03-0.18,0.1-0.37,0.19-0.5c0.06-0.08,0.12-0.15,0.19-0.21c0.09-0.09,0.18-0.15,0.26-0.2
			c0.2-0.11,0.42-0.15,0.67-0.15c0.28,0.02,0.57,0.12,0.86,0.3c0,0,0.05,0.03,0.05,0.03c0.09,0.06,0.17,0.16,0.22,0.27
			c0.08,0.19,0.06,0.41-0.05,0.59c-0.08,0.12-0.2,0.21-0.33,0.26c0.41,0.23,0.78,0.66,1.05,1.19c0.16,0.32,0.26,0.65,0.32,1
			c0.03,0.18,0.04,0.35,0.05,0.52c0,0.23-0.06,0.49-0.2,0.78c-0.09,0.19-0.23,0.37-0.43,0.54c-0.3,0.25-0.62,0.42-1.05,0.55
			l-1.75,0.42C148.61,141.81,148.41,141.83,148.22,141.83z M147.29,136.73c0.13,0,0.22,0.04,0.28,0.08
			c0.03,0.02,0.07,0.05,0.11,0.08c0.05,0.04,0.08,0.11,0.07,0.17c0,0.07-0.04,0.13-0.09,0.16c-0.28,0.19-0.55,0.45-0.77,0.74
			c-0.24,0.32-0.38,0.83-0.37,1.38c0.01,0.31,0.06,0.62,0.15,0.91c0.05,0.16,0.11,0.3,0.17,0.43c0.08,0.15,0.21,0.3,0.42,0.47
			c0.12,0.09,0.27,0.16,0.46,0.2c0.32,0.08,0.63,0.08,1.01,0l1.72-0.42c0.36-0.11,0.63-0.25,0.88-0.46
			c0.15-0.13,0.26-0.26,0.32-0.39c0.11-0.23,0.16-0.43,0.16-0.6c0-0.15-0.01-0.31-0.04-0.46c-0.05-0.3-0.14-0.6-0.28-0.88l0,0
			c-0.24-0.5-0.6-0.89-0.96-1.06c-0.33-0.16-0.69-0.26-1.03-0.3c-0.07-0.01-0.13-0.05-0.16-0.1c-0.03-0.06-0.04-0.13-0.01-0.19
			c0.02-0.05,0.04-0.09,0.06-0.12c0.08-0.13,0.34-0.41,0.9-0.16c0.01,0.01,0.03,0.01,0.04,0.02c0.07,0.03,0.14,0.07,0.19,0.1
			c0,0,0.01,0,0.01,0.01c0.05,0.03,0.1,0.04,0.15,0.02c0.05-0.01,0.1-0.04,0.13-0.09c0.04-0.06,0.04-0.13,0.02-0.19
			c-0.02-0.04-0.04-0.07-0.08-0.09c-0.26-0.16-0.48-0.24-0.69-0.25c-0.17-0.01-0.3,0.02-0.43,0.09c-0.06,0.03-0.12,0.08-0.19,0.14
			c-0.05,0.05-0.09,0.1-0.14,0.16c-0.06,0.08-0.12,0.27-0.12,0.43c0,0.11-0.08,0.21-0.19,0.22c-0.09,0.01-0.19,0.02-0.28,0.05
			c-0.08,0.02-0.13,0.03-0.15,0.04l-0.16,0.04c-0.1,0.02-0.19,0.05-0.28,0.09c-0.1,0.04-0.22,0-0.27-0.1
			c-0.07-0.14-0.21-0.28-0.3-0.32c-0.06-0.03-0.13-0.06-0.19-0.08c-0.08-0.02-0.16-0.04-0.23-0.04c-0.17-0.01-0.28,0.03-0.43,0.11
			c-0.18,0.11-0.34,0.28-0.48,0.51c0,0-0.03,0.05-0.03,0.05c-0.01,0.02-0.02,0.06-0.02,0.1c0,0.07,0.04,0.13,0.1,0.16
			c0.05,0.03,0.1,0.04,0.15,0.02c0.05-0.01,0.09-0.04,0.12-0.09c0,0,0-0.01,0-0.01c0.03-0.05,0.07-0.11,0.12-0.18
			c0.01-0.01,0.01-0.03,0.02-0.04C146.92,136.81,147.13,136.73,147.29,136.73z"/>
		<path style="fill:#EF992D;" d="M146.27,144.96c-0.76,0-1.51-0.16-2.02-0.7c-0.36-0.39-0.51-1.07-0.65-1.68
			c-0.04-0.19-0.08-0.37-0.12-0.51c-0.2-0.66-0.27-1.29-0.35-1.89c-0.05-0.42-0.1-0.85-0.2-1.29c-0.25-1.17-0.46-2.23-0.57-3.4
			c-0.02-0.23,0.15-0.44,0.38-0.46c0.22-0.02,0.44,0.15,0.46,0.38c0.1,1.12,0.31,2.16,0.56,3.3c0.1,0.47,0.16,0.91,0.21,1.36
			c0.07,0.6,0.15,1.16,0.32,1.76c0.05,0.16,0.09,0.36,0.14,0.57c0.1,0.45,0.24,1.07,0.44,1.28c0.7,0.75,2.53,0.34,3.31,0.16
			c1.03-0.23,2.07-0.45,3.11-0.65c0.26-0.05,0.53-0.09,0.8-0.13c0.79-0.12,1.61-0.24,2.21-0.69c0.19-0.14,0.45-0.1,0.59,0.09
			c0.14,0.19,0.1,0.45-0.09,0.59c-0.77,0.58-1.7,0.71-2.59,0.85c-0.26,0.04-0.51,0.08-0.76,0.12c-1.03,0.2-2.06,0.42-3.08,0.65
			C147.86,144.78,147.07,144.96,146.27,144.96z"/>
		<path style="fill:#EF992D;" d="M158.47,136.49l-0.03-0.15c-0.29-1.22-1.41-2.1-2.64-2.1c-0.2,0-0.42,0.02-0.61,0.07l-0.15,0.03
			l-0.14-0.76c-0.29-1.51-1.59-2.61-3.12-2.61c-0.2,0-0.39,0.02-0.59,0.07l-0.95,0.17c-0.44-1.13-1.52-1.9-2.78-1.9
			c-0.17,0-0.36,0.02-0.54,0.05c-0.78,0.14-1.46,0.58-1.9,1.24c-0.36,0.51-0.52,1.08-0.52,1.68l-1.25,0.24
			c-0.83,0.15-1.56,0.63-2.03,1.32c-0.49,0.71-0.66,1.54-0.51,2.39l1.47,7.94c0.29,1.51,1.59,2.59,3.13,2.59
			c0.19,0,0.37-0.02,0.58-0.05l7.94-1.47c1.73-0.32,2.86-1.98,2.54-3.71l-0.3-1.69c0.07-0.02,0.14-0.02,0.22-0.03l0.15-0.05
			c0.69-0.15,1.3-0.58,1.69-1.2C158.5,137.93,158.62,137.2,158.47,136.49z M156.25,138.93l-0.17,0.03
			c-0.12,0.03-0.22,0.03-0.34,0.03c-0.03,0-0.08,0-0.12-0.02c-0.02-0.03-0.03-0.07-0.05-0.08c0,0,0,0,0-0.02
			c0.05-0.22-0.1-0.46-0.32-0.49c-0.25-0.05-0.46,0.1-0.51,0.32c-0.03,0.25,0.02,0.49,0.14,0.66c0.07,0.07,0.15,0.12,0.25,0.14
			l0.41,2.17c0.24,1.25-0.59,2.49-1.86,2.71l-7.94,1.49c-0.15,0.02-0.29,0.03-0.42,0.03c-0.54,0-1.07-0.19-1.49-0.52
			c-0.3-0.25-0.56-0.59-0.69-0.97c-0.05-0.14-0.08-0.27-0.12-0.41l-1.47-7.96c-0.24-1.25,0.61-2.47,1.86-2.71l1.79-0.34
			c0.02,0.02,0.05,0.02,0.07,0.02c0.05,0.02,0.12,0.02,0.17,0.02c0.25,0,0.51-0.07,0.76-0.2c0.2-0.12,0.27-0.37,0.15-0.58
			c-0.1-0.2-0.37-0.29-0.58-0.17c-0.14,0.08-0.29,0.12-0.39,0.1c0,0-0.02,0-0.03,0c0.03-0.97,0.76-1.81,1.73-2
			c0.14-0.03,0.27-0.03,0.39-0.03c0.63,0,1.2,0.27,1.61,0.73c0.08,0.08,0.15,0.19,0.22,0.3c0.12,0.2,0.22,0.44,0.27,0.69
			c0.02,0.1,0.02,0.2,0.02,0.3l1.78-0.32c0.07-0.02,0.14-0.03,0.22-0.02c0.07-0.03,0.14-0.03,0.2-0.03c0.27,0,0.54,0.05,0.8,0.15
			c0.25,0.08,0.47,0.22,0.68,0.39c0.1,0.08,0.2,0.19,0.29,0.29c0.27,0.3,0.46,0.68,0.52,1.08l0.36,1.88c0.22-0.2,0.47-0.37,0.8-0.44
			l0.15-0.03c0.14-0.03,0.27-0.05,0.42-0.05c0.22,0,0.42,0.03,0.61,0.1c0.2,0.07,0.37,0.17,0.54,0.3c0.32,0.25,0.56,0.61,0.66,1.03
			l0.03,0.17C157.88,137.69,157.25,138.69,156.25,138.93z"/>
		<path style="fill:#EF992D;" d="M156.06,138.47c-0.06,0-0.13,0-0.19-0.01c-0.23-0.03-0.4-0.24-0.37-0.47
			c0.03-0.23,0.22-0.41,0.47-0.37c0.27,0.03,0.55-0.1,0.72-0.33c0.14-0.19,0.4-0.24,0.59-0.1c0.19,0.13,0.24,0.4,0.1,0.59
			C157.08,138.21,156.58,138.47,156.06,138.47z"/>
		<path style="fill:#F6E298;" d="M153.62,137.81c-0.2,0-0.37-0.14-0.41-0.34c-0.21-1.14-0.45-2.53-0.97-3.49
			c-0.35-0.66-1.73-0.63-2.52-0.31c-0.22,0.09-0.46-0.02-0.55-0.23c-0.09-0.22,0.02-0.46,0.23-0.55c1.06-0.43,2.94-0.51,3.58,0.69
			c0.57,1.07,0.84,2.54,1.05,3.72c0.04,0.23-0.11,0.46-0.34,0.5C153.67,137.8,153.65,137.81,153.62,137.81z"/>
		<path style="fill:#F6E298;" d="M154,140.39c-0.17,0-0.33-0.1-0.39-0.27c-0.16-0.4-0.32-1.02-0.28-1.56
			c0.01-0.23,0.24-0.41,0.45-0.39c0.23,0.02,0.41,0.22,0.39,0.45c-0.02,0.37,0.09,0.86,0.22,1.18c0.09,0.22-0.02,0.46-0.24,0.55
			C154.1,140.38,154.05,140.39,154,140.39z"/>
		<path style="fill:#F6E298;" d="M156.38,137.24c-0.18,0-0.34-0.11-0.4-0.29c-0.09-0.27-0.12-0.29-0.38-0.41
			c-0.19-0.09-0.21-0.08-0.39-0.02c-0.1,0.04-0.22,0.08-0.37,0.11c-0.24,0.04-0.45-0.11-0.5-0.34c-0.04-0.23,0.11-0.45,0.33-0.5
			c0.11-0.02,0.19-0.05,0.26-0.07c0.29-0.1,0.55-0.16,1.02,0.05c0.43,0.2,0.66,0.38,0.83,0.92c0.07,0.22-0.05,0.46-0.27,0.53
			C156.47,137.24,156.43,137.24,156.38,137.24z"/>
		<path style="fill:#F6E298;" d="M143.49,135.21c-0.18,0-0.35-0.12-0.4-0.3c-0.07-0.22,0.05-0.46,0.28-0.53l0.49-0.16
			c1.12-0.36,2.53-0.82,3.67-0.88c0.26-0.03,0.43,0.17,0.44,0.4c0.01,0.23-0.17,0.43-0.4,0.44c-1.04,0.05-2.44,0.51-3.46,0.84
			l-0.5,0.16C143.58,135.21,143.54,135.21,143.49,135.21z"/>
		<path style="fill:#F6E298;" d="M148.57,132.91c-0.23,0-0.42-0.19-0.42-0.42c0-0.41-0.54-0.91-1.02-1.1
			c-0.22-0.09-0.32-0.33-0.24-0.55c0.09-0.22,0.34-0.32,0.55-0.23c0.62,0.25,1.54,0.95,1.55,1.88
			C148.99,132.72,148.81,132.91,148.57,132.91C148.57,132.91,148.57,132.91,148.57,132.91z"/>
		<path style="fill:#F6E298;" d="M151.07,139.61c-0.21,0-0.4-0.16-0.42-0.37c-0.09-0.76-0.79-1.36-1.62-1.38
			c-0.23-0.01-0.42-0.2-0.41-0.44c0.01-0.23,0.21-0.45,0.43-0.41c1.25,0.04,2.3,0.95,2.44,2.13c0.03,0.23-0.14,0.44-0.37,0.47
			C151.11,139.61,151.09,139.61,151.07,139.61z"/>
		<path style="fill:#F6E298;" d="M146.17,144.15c0,0-0.01,0-0.02,0c-1.4-0.06-1.6-1.55-1.67-2.04c-0.03-0.23,0.13-0.45,0.36-0.48
			c0.24-0.03,0.45,0.13,0.48,0.36c0.15,1.13,0.51,1.29,0.86,1.31c0.23,0.01,0.42,0.21,0.41,0.44
			C146.58,143.98,146.4,144.15,146.17,144.15z"/>
	</g>
	<g>
		<path style="fill:#DCEFF8;" d="M71.79,112.7c-0.46-0.4-1.04-0.74-1.36-1c-1-0.81-1.88-1.71-2.84-2.57
			c-0.62-0.55-1.2-1.07-1.58-1.82c-0.36-0.7-0.47-1.79-1.35-2.1c-1.57-0.55-2.48,2.34-2.1,3.51c0.46,1.4,2.17,2.23,3.31,2.98
			c1.23,0.81,3.23,2.07,4.71,2.17c0.61,0.04,1.25-0.12,1.86-0.11C72.44,113.38,72.16,113.02,71.79,112.7z"/>
		<path style="fill:#A8B2B6;" d="M70.79,114.73c-0.09,0-0.18,0-0.27-0.01c-1.57-0.11-3.47-1.23-5.12-2.31
			c-0.19-0.12-0.38-0.24-0.59-0.37c-1.15-0.71-2.58-1.59-3.06-3.05c-0.35-1.06,0.05-3.06,1.07-4.06c0.6-0.58,1.37-0.77,2.12-0.51
			c1.02,0.36,1.36,1.3,1.61,1.99c0.07,0.19,0.13,0.37,0.21,0.53c0.31,0.6,0.8,1.05,1.38,1.56c0.37,0.33,0.72,0.66,1.07,0.99
			c0.57,0.53,1.13,1.06,1.74,1.56c0.12,0.09,0.27,0.2,0.44,0.32c0.31,0.21,0.65,0.45,0.95,0.71l0,0c0.63,0.56,0.94,1.11,0.94,1.7
			c0,0.23-0.09,0.44-0.25,0.6s-0.39,0.24-0.61,0.24c-0.23-0.01-0.49,0.03-0.74,0.05C71.38,114.7,71.08,114.73,70.79,114.73z
			 M64.28,105.99c-0.06,0-0.15,0.03-0.27,0.15c-0.55,0.54-0.8,1.84-0.64,2.33c0.28,0.87,1.38,1.54,2.34,2.14
			c0.22,0.14,0.43,0.27,0.63,0.4c0.89,0.58,2.97,1.94,4.31,2.04c0.07,0,0.14,0.01,0.21,0.01c-0.14-0.1-0.28-0.19-0.41-0.28
			c-0.21-0.14-0.4-0.28-0.55-0.39c-0.64-0.52-1.24-1.08-1.84-1.64c-0.34-0.32-0.68-0.64-1.03-0.95c-0.65-0.58-1.32-1.18-1.77-2.07
			c-0.11-0.22-0.2-0.47-0.29-0.72c-0.2-0.54-0.33-0.88-0.58-0.97C64.35,106,64.32,105.99,64.28,105.99z"/>
	</g>
	<path style="fill:#F2C53F;" d="M145.41,130.77c-0.31-0.02-0.59-0.1-0.88-0.17c-0.37-0.08-0.75-0.17-1.13-0.2
		c-0.15-0.54-0.51-0.95-1.02-1.15c-0.36-0.17-0.76-0.22-1.1-0.27c-0.14,0-0.25-0.02-0.52-0.07c-0.66-0.14-1.56-0.32-2.25,0.52
		c-0.08,0.1-0.14,0.22-0.22,0.32c-0.27-0.12-0.52-0.24-0.81-0.34c-0.07-0.32-0.19-0.63-0.39-0.93c-0.46-0.66-1.13-1.12-1.91-1.25
		c-0.69-0.14-1.68-0.3-2.49,0.2c-0.19,0.12-0.37,0.32-0.54,0.54c-0.25-0.07-0.53-0.12-0.8-0.17c-0.05-0.51-0.24-1-0.68-1.32
		c-0.68-0.49-2.07-0.76-2.79-0.68l-0.27,0.03c-0.64,0.07-1.51,0.15-1.93,1.1c-0.02,0.02-0.02,0.05-0.03,0.07
		c-0.14-0.05-0.27-0.1-0.44-0.15c-0.03-0.68-0.29-1.29-0.68-1.61c-0.76-0.64-2.32-0.86-3.2-0.83c-0.12,0-0.24,0.03-0.32,0.1
		c-0.22,0.14-0.39,0.3-0.56,0.49c-0.19-0.07-0.36-0.15-0.54-0.22c-0.05-0.03-0.1-0.05-0.15-0.07c0.12-0.39,0.12-0.8-0.03-1.24
		c-0.19-0.49-0.54-0.95-1-1.32c-1.88-0.29-3.74-0.71-5.59-1.3c-0.07-0.02-0.12-0.03-0.19-0.07c-0.03,0.2,0.03,0.42,0.2,0.58
		c0.44,0.39,0.93,0.68,1.41,0.97c0.05,0.03,0.1,0.07,0.17,0.12c-0.47,0.76-0.49,1.64-0.03,2.27c0.42,0.56,1.98,1.3,2.49,1.44
		c0.27,0.07,0.47,0.1,0.64,0.1c0.3,0,0.52-0.1,0.85-0.32l0.17-0.1c0.03-0.02,0.07-0.05,0.1-0.08c0.17,0.07,0.32,0.14,0.49,0.2
		c0.14,0.05,0.27,0.12,0.41,0.17c-0.03,0.15-0.08,0.29-0.1,0.42c-0.08,0.66,0.1,1.25,0.53,1.69c0.47,0.49,1.88,0.95,2.98,0.95
		c0.44,0,0.85-0.07,1.12-0.25c0.29-0.19,0.51-0.47,0.64-0.81c0.14,0.03,0.27,0.08,0.39,0.14c0,0.56,0.14,1.1,0.53,1.49
		c0.58,0.54,1.69,0.81,2.69,0.81c0.22,0,0.46-0.02,0.66-0.05c0.81-0.12,1.39-0.44,1.68-0.93c0.08-0.15,0.17-0.32,0.24-0.52
		c0.14,0.03,0.27,0.07,0.42,0.1c-0.02,0.02-0.03,0.05-0.03,0.08c-0.08,0.52,0,0.97,0.25,1.3c0.36,0.47,1.07,0.73,1.95,1
		c0.17,0.07,0.32,0.1,0.44,0.15c0.36,0.14,0.78,0.29,1.25,0.29c0.29,0,0.59-0.05,0.9-0.22c0.47-0.25,0.78-0.63,0.97-1.07
		c0.17,0.08,0.34,0.17,0.52,0.24c-0.03,0.27-0.03,0.52,0.03,0.76c0.17,0.56,0.59,0.97,1.2,1.17c0.76,0.25,1.66,0.51,2.42,0.51
		c0.47,0,0.91-0.1,1.24-0.36c0.29-0.24,0.54-0.75,0.66-1.34c0.29,0.03,0.56,0.1,0.85,0.15c0.34,0.08,0.68,0.17,1.03,0.2h0.07
		c0.32,0,0.59-0.24,0.63-0.56C146.01,131.12,145.75,130.8,145.41,130.77z M118.18,123.81c-0.22-0.25-0.63-0.27-0.88-0.05
		c-0.27,0.24-0.29,0.64-0.07,0.9c0.1,0.1,0.2,0.2,0.32,0.29c-0.03-0.02-0.05-0.02-0.08-0.02c-0.42-0.12-1.59-0.75-1.78-0.97
		c-0.15-0.22-0.07-0.56,0.08-0.83c0.1,0.07,0.2,0.12,0.32,0.12c0.17,0,0.36-0.08,0.49-0.24c0.07-0.08,0.1-0.17,0.12-0.27
		c0.63-0.07,1.56,0.52,1.79,1.19c0.03,0.07,0.05,0.14,0.05,0.2C118.42,124.03,118.29,123.93,118.18,123.81z M123.69,126.6
		c-0.34,0.03-0.59,0.34-0.56,0.69c0.03,0.29,0.27,0.51,0.54,0.56c-0.02,0-0.02,0.02-0.02,0.03c-0.39,0.19-2.15-0.17-2.49-0.52
		c-0.15-0.17-0.2-0.39-0.17-0.66c0,0,0-0.02,0-0.03c0.03,0.02,0.05,0.03,0.07,0.03c0.2,0,0.41-0.1,0.53-0.29
		c0.15-0.22,0.14-0.51-0.02-0.73c0.85,0.03,1.8,0.25,2.13,0.52c0.07,0.05,0.14,0.2,0.19,0.41
		C123.82,126.6,123.75,126.59,123.69,126.6z M129.65,128.92c0.05,0,0.14,0.02,0.2,0.02c-0.02,0-0.02,0-0.02,0.02
		c-0.07,0.1-0.32,0.24-0.75,0.3c-0.86,0.12-1.9-0.12-2.24-0.39c0.22-0.02,0.42-0.14,0.52-0.36c0.15-0.32,0.02-0.69-0.3-0.85
		l-0.27-0.14c0-0.02,0-0.05,0.02-0.07c0.1-0.25,0.29-0.29,0.9-0.36l0.3-0.03c0.05-0.02,0.12-0.02,0.19-0.02
		c0.53,0,1.39,0.22,1.71,0.46c0.05,0.03,0.07,0.1,0.08,0.15c-0.17,0-0.34-0.02-0.47,0c-0.34,0.03-0.61,0.34-0.58,0.68
		C128.99,128.7,129.28,128.97,129.65,128.92z M135.74,130.65c-0.27,0.15-0.56,0.07-1.08-0.14c-0.14-0.05-0.32-0.12-0.53-0.17
		c-0.34-0.12-1.17-0.37-1.32-0.56c0-0.02-0.03-0.12,0-0.32c0-0.02,0.02-0.05,0.03-0.08c0.15-0.05,0.3-0.15,0.37-0.32
		c0.07-0.15,0.05-0.3,0.02-0.44c0.03-0.05,0.08-0.1,0.12-0.12c0.17-0.1,0.39-0.14,0.63-0.14c0.32,0,0.68,0.07,0.98,0.12
		c0.29,0.05,0.56,0.22,0.78,0.44c-0.27,0-0.51,0.19-0.59,0.46c-0.08,0.34,0.12,0.69,0.46,0.78c0.17,0.03,0.34,0.1,0.51,0.15
		C136.03,130.45,135.91,130.55,135.74,130.65z M141.96,132.02c-0.07,0.05-0.53,0.29-2.49-0.36c-0.22-0.07-0.3-0.19-0.34-0.25
		c0.2-0.02,0.39-0.14,0.49-0.32c0.14-0.27,0.05-0.59-0.17-0.78c0.02-0.03,0.02-0.05,0.03-0.08c0.1-0.12,0.2-0.17,0.41-0.17
		c0.14,0,0.34,0.03,0.63,0.08l0.17,0.03c0.14,0.03,0.27,0.05,0.42,0.07c0.27,0.03,0.52,0.07,0.71,0.15c-0.32,0-0.59,0.2-0.64,0.52
		c-0.05,0.34,0.19,0.66,0.52,0.73c0.14,0.02,0.27,0.02,0.41,0.02C142.06,131.84,141.99,131.97,141.96,132.02z"/>
	<g>
		<path style="fill-rule:evenodd;clip-rule:evenodd;fill:#FFFFFF;" d="M171.79,101.12c-3.39,11.21-13.92,19.05-24.42,20.73
			c-1.44,0.24-2.91,0.63-4.39,0.69c-7.08,0.36-8.43,0.22-16.27,0.22c-2.73,0-5.38-0.17-8.01-0.59c-1.88-0.29-3.74-0.71-5.59-1.3
			c-0.07-0.02-0.12-0.03-0.19-0.07c-3.39-1.17-5.67-4.59-8.06-7.23c-1.91-2.1-3.12-4.76-4.78-7.03c-3.4-4.69-4.59-9.72-4.57-15.41
			c0-6.99,0.36-12.16,3.76-18.37c2.12-3.86,4.17-7.87,7.21-11.09c5.49-5.77,13.09-7.7,20.78-7.74c4.1-0.02,7.52,0.42,11.33,1.41
			c6.2,1.63,12.67,4.59,16.53,9.52c1.69,2.18,3.49,4.81,4.39,7.4c0.29,0.83,0.71,1.81,0.98,2.81l0.32-0.05
			c3.01,1.12,5.52,2.32,7.45,4.96c1.69,2.35,3.06,4.98,3.86,7.74C173.35,92.01,173.12,96.82,171.79,101.12z"/>
		<path style="fill-rule:evenodd;clip-rule:evenodd;fill:#F2BAB7;" d="M136.73,90.79c1.56,6.1-2.02,12.28-7.99,13.81
			s-12.08-2.17-13.64-8.27c-1.56-6.09,2.02-12.28,7.99-13.81C129.05,81,135.17,84.7,136.73,90.79L136.73,90.79z"/>
		<path style="fill-rule:evenodd;clip-rule:evenodd;fill:#F2BAB7;" d="M170.18,81.61c-1.1-1.82-6.67-7.42-8.78-4.27
			c-3.21,4.78,1.68,12.04,5.11,15.42c1.35,1.33,3.48,2.71,5.56,1.64c1.17-0.6,0.95-3.03,0.88-3.87
			C172.69,87.4,171.81,84.3,170.18,81.61z"/>
		<g>
			<g>
				<path style="fill:#112636;" d="M164.88,68.05c-1.09-0.03-2.43,0.27-3.5,0.48c-3.19,0.63-8.13,0.4-9.65,4.01
					c-0.89,2.12,0.13,4.42,1.34,6.17c1.04,1.51,2.85,3.95,4.86,4.09c3.72,0.25,7.7-0.4,8.97-4.26
					C167.82,75.78,169.3,68.17,164.88,68.05z"/>
				<path style="fill:#1E3A4C;" d="M164.72,69.74l0.11,0c0.48,0.01,0.69,0.17,0.85,0.4c0.9,1.27,0.52,5.1-0.39,7.87
					c-0.44,1.35-1.55,3.14-6,3.14c-0.42,0-0.83-0.02-1.25-0.04c-0.87-0.06-2.08-1.19-3.59-3.37c-0.88-1.27-1.79-3.08-1.17-4.55
					c0.77-1.84,3.05-2.26,6.19-2.67c0.79-0.1,1.53-0.2,2.23-0.34l0.32-0.06C162.93,69.94,163.94,69.74,164.72,69.74L164.72,69.74z
					 M164.72,68.05c-1.06,0-2.33,0.28-3.34,0.48c-3.19,0.63-8.13,0.4-9.65,4.01c-0.89,2.12,0.13,4.42,1.34,6.17
					c1.04,1.51,2.85,3.95,4.86,4.09c0.45,0.03,0.91,0.05,1.36,0.05c3.29,0,6.5-0.92,7.61-4.31c0.91-2.76,2.39-10.37-2.03-10.49
					C164.83,68.05,164.78,68.05,164.72,68.05L164.72,68.05z"/>
			</g>
			<g>
				<path style="fill:#112636;" d="M143,73.77c-0.23-0.25-0.51-0.46-0.82-0.64c-1.03-0.56-2.34-0.59-3.48-0.56
					c-2.28,0.04-4.55,0.33-6.79,0.75c-2,0.37-4.02,0.94-5.77,2.02c-0.95,0.59-1.24,1.33-1.59,2.34c-0.12,0.35-0.35,0.7-0.53,1.03
					c0.41,0.85,1.49,3.31,1.65,3.58c0.85,1.48,1.86,2.61,3.1,3.76c2.07,1.93,3.98,3.08,6.9,2.48c2.36-0.49,5.34-0.94,6.93-2.95
					C144.61,83.05,145.38,76.29,143,73.77z"/>
				<path style="fill:#1E3A4C;" d="M139.18,74.26c0.71,0,1.6,0.04,2.19,0.36c0.15,0.08,0.28,0.18,0.4,0.31
					c1.67,1.77,1.12,7.56-0.5,9.59c-1.09,1.37-3.36,1.83-5.37,2.23l-0.58,0.12c-0.4,0.08-0.79,0.13-1.14,0.13
					c-1.39,0-2.54-0.59-4.26-2.19c-1.3-1.21-2.1-2.18-2.77-3.34c-0.1-0.19-0.39-0.84-0.71-1.54c-0.18-0.39-0.36-0.8-0.52-1.16
					c0.08-0.17,0.16-0.35,0.23-0.54c0.32-0.92,0.45-1.19,0.88-1.46c1.31-0.82,2.96-1.39,5.18-1.8c2.41-0.45,4.54-0.68,6.51-0.72
					C138.88,74.27,139.03,74.26,139.18,74.26L139.18,74.26z M139.18,72.57c-0.16,0-0.32,0-0.48,0.01c-2.28,0.04-4.55,0.33-6.79,0.75
					c-2,0.37-4.02,0.94-5.77,2.02c-0.95,0.59-1.24,1.33-1.59,2.34c-0.12,0.35-0.35,0.7-0.53,1.03c0.41,0.85,1.49,3.31,1.65,3.58
					c0.85,1.48,1.86,2.61,3.1,3.76c1.7,1.58,3.29,2.64,5.41,2.64c0.47,0,0.96-0.05,1.49-0.16c2.36-0.49,5.34-0.94,6.93-2.95
					c2.01-2.53,2.78-9.29,0.4-11.81c-0.23-0.25-0.51-0.46-0.82-0.64C141.29,72.66,140.2,72.57,139.18,72.57L139.18,72.57z"/>
			</g>
			<g>
				<path style="fill:#3C2D15;" d="M167.76,65.78c-2.17-0.69-4.64-0.32-6.88-0.18c-2.8,0.17-7.2,0.75-9.61,2.23
					c-1.97,1.22-0.71,3.73-3.48,4.09c-1.41,0.18-2.64,0.2-3.89-0.55c-0.92-0.55-1.82-1.31-2.88-1.57c-1.18-0.28-2.46-0.12-3.66-0.08
					c-2.72,0.07-5.43,0.46-8.08,1.07c-2.04,0.47-4.05,1.08-6.02,1.8c-2.31,0.84-5.19,3.27-2.5,5.72c0.73,0.67,1.98,1.3,2.99,0.74
					c1.17-0.64,0.95-2.35,1.98-3.19c1.71-1.39,3.95-1.81,6.07-2.18c2.42-0.42,4.86-1.16,7.34-0.93c1.28,0.12,2.52,0.53,3.58,1.27
					c1.31,0.91,1.89,1.82,3.42,1.15c1.16-0.51,2.04-0.51,3.25-0.53c1.23-0.02,1.56-0.35,1.97-1.33c0.52-1.24,1.13-2.14,2.31-2.94
					c2.08-1.4,5.3-1.36,7.71-1.84c1.06-0.21,2.41-0.51,3.5-0.48c0.98,0.03,1.34,0.44,2.2,0.84c0.36,0.17,0.72,0.36,1.1,0.55
					C170.03,69.07,169.49,66.33,167.76,65.78z"/>
				<path style="fill:#9F7E35;" d="M164.73,66.22c1.11,0,1.99,0.12,2.77,0.37c0.63,0.2,1.01,0.92,0.98,1.47
					c-0.01,0.26-0.11,0.4-0.23,0.47c-0.27-0.14-0.55-0.28-0.81-0.4c-0.22-0.1-0.41-0.21-0.58-0.31c-0.51-0.29-1.05-0.59-1.95-0.61
					l-0.18,0c-1.04,0-2.18,0.23-3.19,0.43l-0.31,0.06c-0.65,0.13-1.37,0.22-2.13,0.32c-1.98,0.25-4.23,0.54-5.89,1.65
					c-1.22,0.82-1.98,1.78-2.62,3.31c-0.29,0.69-0.33,0.8-1.21,0.81l-0.09,0c-1.23,0.02-2.2,0.04-3.49,0.6
					c-0.24,0.11-0.45,0.16-0.62,0.16c-0.35,0-0.66-0.23-1.23-0.68c-0.23-0.18-0.47-0.37-0.74-0.56c-1.13-0.78-2.51-1.27-3.98-1.41
					c-0.35-0.03-0.7-0.05-1.05-0.05c-1.62,0-3.21,0.33-4.74,0.64c-0.59,0.12-1.18,0.24-1.77,0.34c-2.02,0.35-4.53,0.78-6.46,2.35
					c-0.67,0.54-0.93,1.28-1.16,1.92c-0.22,0.61-0.37,1-0.69,1.18c-0.13,0.07-0.28,0.11-0.45,0.11c-0.46,0-1.08-0.29-1.57-0.74
					c-0.95-0.86-0.83-1.49-0.79-1.7c0.21-1.07,1.67-2.12,3-2.61c1.99-0.73,3.98-1.32,5.92-1.77c2.71-0.63,5.37-0.98,7.91-1.05
					c0.28-0.01,0.57-0.02,0.85-0.04c0.39-0.02,0.79-0.04,1.19-0.04c0.56,0,1.01,0.04,1.4,0.14c0.64,0.15,1.24,0.56,1.89,0.98
					c0.25,0.17,0.5,0.33,0.75,0.48c0.88,0.53,1.82,0.78,2.94,0.78c0.43,0,0.9-0.04,1.49-0.11c2.1-0.27,2.53-1.64,2.84-2.63
					c0.24-0.75,0.41-1.23,0.98-1.58c2.6-1.6,7.71-2.02,9.21-2.11c0.41-0.02,0.82-0.06,1.24-0.09
					C163.01,66.28,163.89,66.22,164.73,66.22L164.73,66.22z M164.73,65.37c-1.29,0-2.61,0.15-3.85,0.22
					c-2.8,0.17-7.2,0.75-9.61,2.23c-1.97,1.22-0.71,3.73-3.48,4.09c-0.48,0.06-0.93,0.11-1.38,0.11c-0.87,0-1.68-0.16-2.51-0.66
					c-0.92-0.55-1.82-1.31-2.88-1.57c-0.52-0.12-1.06-0.16-1.6-0.16c-0.69,0-1.39,0.06-2.06,0.08c-2.72,0.07-5.43,0.46-8.08,1.07
					c-2.04,0.47-4.05,1.08-6.02,1.8c-2.31,0.84-5.19,3.27-2.5,5.72c0.54,0.49,1.35,0.96,2.14,0.96c0.29,0,0.58-0.06,0.85-0.21
					c1.17-0.64,0.95-2.35,1.98-3.19c1.71-1.39,3.95-1.81,6.07-2.18c2.1-0.36,4.22-0.97,6.37-0.97c0.32,0,0.65,0.01,0.97,0.04
					c1.28,0.12,2.52,0.53,3.58,1.27c0.99,0.69,1.57,1.38,2.46,1.38c0.28,0,0.59-0.07,0.96-0.23c1.16-0.51,2.04-0.51,3.25-0.53
					c1.23-0.02,1.56-0.35,1.97-1.33c0.52-1.24,1.13-2.14,2.31-2.94c2.08-1.4,5.3-1.36,7.71-1.84c1.01-0.2,2.28-0.48,3.34-0.48
					c0.05,0,0.1,0,0.16,0c0.98,0.03,1.34,0.44,2.2,0.84c0.36,0.17,0.72,0.36,1.1,0.55c1.85-0.37,1.31-3.11-0.42-3.67
					C166.8,65.47,165.77,65.37,164.73,65.37L164.73,65.37z"/>
			</g>
			<g>
				<path style="fill:#6F95B0;" d="M163.53,73.33c-0.14,0.51-0.22,1.05-0.32,1.63c-0.29,1.63-0.59,3.3-1.78,4.23
					c-0.15,0.14-0.25,0.15-0.36,0.14c-0.05-0.02-0.08-0.03-0.12-0.08c-0.24-0.42,0.19-1.78,0.51-2.88c0.41-1.35,0.76-2.52,0.44-3.01
					c-0.12-0.19-0.32-0.24-0.51-0.24c-0.12,0-0.24,0.02-0.34,0.03c-0.25,0.03-0.42,0.05-0.49-0.05c-0.24-0.3-0.24-0.69,0.02-1.25
					c0.03-0.1,0.08-0.2,0.12-0.3c0.15-0.36,0.29-0.73,0.58-0.93l0.05-0.03c0.29-0.19,1.3-0.37,1.46-0.22
					c0.03,0.15-0.05,0.3-0.22,0.52c-0.14,0.2-0.27,0.41-0.29,0.66c-0.02,0.25,0.03,0.42,0.15,0.54c0.17,0.17,0.42,0.14,0.64,0.12
					c0.08-0.02,0.19-0.02,0.25-0.02c0.15,0.02,0.2,0.07,0.24,0.12C163.65,72.4,163.72,72.69,163.53,73.33z"/>
				<path style="fill:#1E3A4C;" d="M163.92,72.04c-0.08-0.12-0.25-0.27-0.56-0.29c-0.1,0-0.22,0-0.34,0.02
					c-0.1,0.02-0.27,0.03-0.3,0c0,0-0.03-0.03-0.02-0.2c0-0.14,0.1-0.29,0.22-0.44c0.17-0.25,0.36-0.52,0.27-0.88
					c-0.02-0.1-0.08-0.22-0.29-0.3c-0.49-0.19-1.52,0.08-1.81,0.27l-0.07,0.05c-0.37,0.27-0.56,0.71-0.71,1.12
					c-0.03,0.08-0.08,0.19-0.12,0.29c-0.2,0.44-0.41,1.12,0.03,1.69c0.24,0.29,0.59,0.24,0.9,0.19c0.22-0.03,0.37-0.05,0.42,0.03
					c0.22,0.32-0.17,1.61-0.49,2.66c-0.41,1.35-0.8,2.62-0.47,3.2c0.08,0.15,0.22,0.25,0.39,0.29c0.05,0.02,0.1,0.03,0.17,0.03
					c0.22,0,0.42-0.14,0.54-0.24c1.32-1.05,1.64-2.88,1.93-4.5c0.1-0.56,0.2-1.1,0.34-1.57C164.06,73.03,164.17,72.42,163.92,72.04z
					 M161.08,79.32c-0.05-0.02-0.08-0.03-0.12-0.08c-0.24-0.42,0.19-1.78,0.51-2.88c0.41-1.35,0.76-2.52,0.44-3.01
					c-0.12-0.19-0.32-0.24-0.51-0.24c-0.12,0-0.24,0.02-0.34,0.03c-0.25,0.03-0.42,0.05-0.49-0.05c-0.24-0.3-0.24-0.69,0.02-1.25
					c0.03-0.1,0.08-0.2,0.12-0.3c0.15-0.36,0.29-0.73,0.58-0.93l0.05-0.03c0.29-0.19,1.3-0.37,1.46-0.22
					c0.03,0.15-0.05,0.3-0.22,0.52c-0.14,0.2-0.27,0.41-0.29,0.66c-0.02,0.25,0.03,0.42,0.15,0.54c0.17,0.17,0.42,0.14,0.64,0.12
					c0.08-0.02,0.19-0.02,0.25-0.02c0.15,0.02,0.2,0.07,0.24,0.12c0.08,0.1,0.15,0.39-0.03,1.03c-0.14,0.51-0.22,1.05-0.32,1.63
					c-0.29,1.63-0.59,3.3-1.78,4.23C161.28,79.32,161.18,79.34,161.08,79.32z"/>
			</g>
			<g>
				<path style="fill:#6F95B0;" d="M139.79,78.11c-0.14,0.56-0.24,1.13-0.36,1.76c-0.32,1.78-0.64,3.59-1.95,4.64
					c-0.15,0.12-0.27,0.17-0.39,0.14c-0.07-0.02-0.1-0.05-0.14-0.1c-0.25-0.46,0.19-1.95,0.54-3.15c0.46-1.46,0.83-2.73,0.49-3.25
					c-0.14-0.2-0.34-0.25-0.54-0.25c-0.14,0-0.25,0.02-0.37,0.03c-0.27,0.03-0.46,0.05-0.54-0.05c-0.27-0.34-0.27-0.76,0-1.39
					c0.05-0.1,0.1-0.22,0.14-0.34c0.17-0.39,0.32-0.8,0.63-1.02h0.02c0.02-0.02,0.03-0.03,0.05-0.03c0.36-0.24,1.49-0.39,1.61-0.24
					c0.05,0.19-0.08,0.39-0.24,0.59c-0.14,0.22-0.3,0.44-0.32,0.71c-0.02,0.27,0.03,0.46,0.17,0.58c0.19,0.17,0.44,0.15,0.68,0.12
					c0.1-0.02,0.2-0.03,0.29-0.02c0.17,0.02,0.24,0.08,0.27,0.14C139.93,77.09,139.99,77.39,139.79,78.11z"/>
				<path style="fill:#1E3A4C;" d="M140.18,76.72c-0.1-0.12-0.27-0.29-0.59-0.3c-0.12-0.02-0.25,0-0.37,0.02
					c-0.12,0.02-0.29,0.03-0.34,0c0,0-0.05-0.05-0.03-0.24c0.02-0.15,0.12-0.32,0.25-0.49c0.17-0.27,0.37-0.58,0.29-0.93
					c-0.02-0.1-0.08-0.24-0.29-0.32c-0.52-0.2-1.66,0.08-1.96,0.29c-0.03,0.02-0.05,0.03-0.08,0.05c-0.41,0.3-0.59,0.78-0.76,1.2
					c-0.03,0.1-0.08,0.22-0.12,0.32c-0.22,0.49-0.46,1.2,0.03,1.81c0.24,0.3,0.63,0.25,0.95,0.2c0.25-0.03,0.42-0.05,0.49,0.05
					c0.24,0.36-0.19,1.76-0.53,2.9c-0.46,1.47-0.88,2.86-0.52,3.47c0.08,0.15,0.22,0.27,0.41,0.3c0.05,0.02,0.12,0.03,0.17,0.03
					c0.25,0,0.46-0.14,0.59-0.25c1.42-1.13,1.78-3.13,2.1-4.88c0.1-0.63,0.2-1.2,0.36-1.73C140.4,77.51,140.38,77.02,140.18,76.72z
					 M137.1,84.64c-0.07-0.02-0.1-0.05-0.14-0.1c-0.25-0.46,0.19-1.95,0.54-3.15c0.46-1.46,0.83-2.73,0.49-3.25
					c-0.14-0.2-0.34-0.25-0.54-0.25c-0.14,0-0.25,0.02-0.37,0.03c-0.27,0.03-0.46,0.05-0.54-0.05c-0.27-0.34-0.27-0.76,0-1.39
					c0.05-0.1,0.1-0.22,0.14-0.34c0.17-0.39,0.32-0.8,0.63-1.02h0.02c0.02-0.02,0.03-0.03,0.05-0.03c0.36-0.24,1.49-0.39,1.61-0.24
					c0.05,0.19-0.08,0.39-0.24,0.59c-0.14,0.22-0.3,0.44-0.32,0.71c-0.02,0.27,0.03,0.46,0.17,0.58c0.19,0.17,0.44,0.15,0.68,0.12
					c0.1-0.02,0.2-0.03,0.29-0.02c0.17,0.02,0.24,0.08,0.27,0.14c0.1,0.12,0.17,0.42-0.03,1.13c-0.14,0.56-0.24,1.13-0.36,1.76
					c-0.32,1.78-0.64,3.59-1.95,4.64C137.34,84.62,137.22,84.68,137.1,84.64z"/>
			</g>
			<g>
				<path style="fill:#1E3A4C;" d="M135.12,79.51l-0.05-0.02c-0.64-0.07-1.13,0.2-1.46,0.8c-0.39,0.75-0.34,1.79,0.1,2.29
					c0.17,0.2,0.39,0.3,0.63,0.3c0.14,0,0.25-0.02,0.39-0.07c0.56-0.22,1.02-1.24,1.05-2.02C135.79,80.19,135.57,79.73,135.12,79.51
					z M134.02,82.31c-0.32-0.37-0.34-1.24-0.03-1.81c0.15-0.27,0.42-0.58,0.88-0.58h0.12c0.32,0.17,0.39,0.58,0.37,0.88
					c-0.03,0.73-0.46,1.49-0.78,1.61C134.36,82.49,134.17,82.46,134.02,82.31z"/>
				<path style="fill:#6F95B0;" d="M135.35,80.8c-0.03,0.73-0.46,1.49-0.78,1.61c-0.22,0.08-0.41,0.05-0.56-0.1
					c-0.32-0.37-0.34-1.24-0.03-1.81c0.15-0.27,0.42-0.58,0.88-0.58h0.12C135.3,80.09,135.37,80.49,135.35,80.8z"/>
			</g>
		</g>
	</g>
	<path style="fill:#F2C53F;" d="M156.58,121.92c-0.25-0.54-0.76-0.88-1.44-0.95c0.02-0.29,0.03-0.57,0.03-0.83
		c0-0.35-0.28-0.63-0.63-0.64c0,0,0,0,0,0c-0.35,0-0.64,0.28-0.64,0.63c0,0.4-0.04,0.85-0.07,1.28c-0.06,0.05-0.13,0.07-0.19,0.12
		c0,0,0,0,0,0c-0.83,0.79-1.37,2.3-0.86,3.3c0.03,0.05,0.06,0.1,0.1,0.15c-0.17,0.31-0.31,0.63-0.45,0.94
		c-0.2,0.02-0.41,0.11-0.68,0.27c-0.76,0.44-1.38,1.18-1.77,2.09c-0.2,0.47-0.18,0.96,0.02,1.4c0,0,0,0,0,0
		c-0.27,0.3-0.52,0.59-0.8,0.77c-0.29,0.19-0.37,0.59-0.18,0.88c0.12,0.19,0.32,0.29,0.53,0.29c0.12,0,0.24-0.03,0.35-0.1
		c0.4-0.26,0.71-0.61,1.01-0.95c0.15,0.07,0.28,0.17,0.45,0.2c0.14,0.03,0.28,0.05,0.41,0.05c0.8,0,1.33-0.55,1.67-0.89
		c0.77-0.78,1.14-1.43,1.14-1.98c0-0.52-0.33-1.03-0.98-1.51c0.09-0.21,0.18-0.42,0.29-0.63c0.12,0.04,0.23,0.07,0.36,0.08
		c0.04,0,0.09,0,0.13,0c0.59,0,1.17-0.32,1.57-0.87C156.44,124.39,157.05,122.94,156.58,121.92z M153.3,127.99
		c0,0.09-0.15,0.45-0.78,1.1c-0.21,0.21-0.35,0.34-0.48,0.42c0.1-0.19,0.11-0.41,0-0.61c-0.16-0.27-0.49-0.37-0.78-0.26
		c0.14-0.29,0.31-0.55,0.51-0.77c-0.01,0.27,0.14,0.53,0.41,0.62c0.07,0.02,0.14,0.04,0.21,0.04c0.26,0,0.51-0.16,0.6-0.43
		l0.08-0.23c0.01-0.04,0.03-0.08,0.04-0.13C153.24,127.87,153.3,127.96,153.3,127.99z M154.92,124.32
		c-0.09,0.12-0.19,0.21-0.29,0.27c0.12-0.26,0.06-0.58-0.18-0.76c-0.16-0.12-0.36-0.15-0.55-0.1c0.02-0.14,0.06-0.29,0.12-0.44
		c0.11,0.08,0.23,0.14,0.38,0.14h0c0.35,0,0.63-0.28,0.63-0.63c0-0.16,0.01-0.35,0.02-0.54c0.29,0.04,0.35,0.15,0.37,0.2
		C155.61,122.85,155.3,123.8,154.92,124.32z"/>
	<path style="fill:#494C4E;" d="M105.74,56.89c-0.18,0-0.36-0.06-0.51-0.17c-0.54-0.41-1.3-0.72-2.08-0.86
		c-0.46-0.08-0.77-0.52-0.68-0.98c0.08-0.46,0.51-0.77,0.98-0.69c1.05,0.19,2.04,0.6,2.8,1.17c0.37,0.28,0.45,0.81,0.17,1.19
		C106.25,56.77,106,56.89,105.74,56.89z"/>
	<path style="fill:#494C4E;" d="M138.29,126.84c-0.31,0-0.6-0.17-0.75-0.46c-0.21-0.42-0.05-0.93,0.37-1.14
		c0.98-0.5,2.25-0.55,3.48-0.6c1.3-0.05,2.65-0.11,3.45-0.68c0.38-0.27,0.91-0.19,1.18,0.19c0.27,0.38,0.19,0.91-0.19,1.18
		c-1.21,0.87-2.81,0.94-4.37,1c-1.1,0.05-2.13,0.09-2.78,0.42C138.55,126.81,138.42,126.84,138.29,126.84z"/>
	<path style="fill:#494C4E;" d="M100.26,186.52c-0.35,0-0.67-0.21-0.8-0.56c-0.11-0.3-0.25-0.65-0.4-1.02
		c-0.95-2.39-2.25-5.66-0.72-7.67c0.28-0.37,0.81-0.44,1.19-0.16c0.37,0.28,0.44,0.81,0.16,1.19c-0.95,1.25,0.19,4.12,0.95,6.02
		c0.16,0.39,0.3,0.75,0.41,1.07c0.16,0.44-0.07,0.93-0.51,1.08C100.45,186.51,100.35,186.52,100.26,186.52z"/>
	<path style="fill:#494C4E;" d="M112.66,186.72c-0.21,0-0.42-0.08-0.59-0.24c-0.34-0.32-0.35-0.86-0.02-1.2
		c0.63-0.65,1.14-1.98,1.31-3.37c0.06-0.46,0.49-0.78,0.94-0.74c0.46,0.06,0.79,0.48,0.74,0.94c-0.17,1.38-0.72,3.25-1.77,4.34
		C113.11,186.63,112.88,186.72,112.66,186.72z"/>
	<path style="fill:#494C4E;" d="M132.72,185.95c-0.22,0-0.44-0.09-0.61-0.26c-0.33-0.33-0.32-0.87,0.02-1.2
		c0.2-0.19,0.41-0.38,0.63-0.57c0.55-0.49,1.07-0.95,1.31-1.49c0.2-0.43,0.7-0.61,1.12-0.42c0.42,0.19,0.61,0.7,0.42,1.12
		c-0.4,0.87-1.11,1.5-1.73,2.05c-0.19,0.17-0.39,0.34-0.57,0.52C133.15,185.87,132.94,185.95,132.72,185.95z"/>
	<path style="fill:#D1DCE1;" d="M134.56,148.42c-0.01,0-0.02,0-0.03,0c-0.47-0.01-0.83-0.41-0.82-0.87c0.04-1.22-0.42-2.73-0.87-4.2
		c-0.29-0.94-0.59-1.91-0.75-2.81c-0.39-2.15-0.4-4.18-0.41-6.32l0-0.23c0-0.47,0.38-0.85,0.84-0.85c0,0,0,0,0,0
		c0.47,0,0.85,0.38,0.85,0.84l0,0.23c0.01,2.07,0.02,4.02,0.38,6.03c0.14,0.8,0.42,1.68,0.7,2.62c0.49,1.6,1,3.25,0.95,4.75
		C135.4,148.06,135.02,148.42,134.56,148.42z"/>
	<path style="fill:#EF992D;" d="M97.93,205.05v4.52c0,0.93-0.76,1.69-1.69,1.69c-0.95,0-1.69-0.76-1.69-1.69v-4.52
		c0-0.64,0.36-1.2,0.88-1.47c0.24-0.15,0.52-0.22,0.81-0.22c0.32,0,0.63,0.08,0.88,0.25C97.61,203.9,97.93,204.45,97.93,205.05z"/>
	<path style="fill:#494C4E;" d="M161.16,165.46c-0.17-1.08-0.33-2.11-0.26-2.95c0.21-2.73,0-5.87-0.64-9.35
		c-0.16-0.84-0.36-1.7-1.05-2.15c-0.68-0.44-1.52-0.3-2.34-0.11c-0.72,0.17-1.43,0.39-2.13,0.62c-0.6,0.19-1.19,0.38-1.8,0.53
		c-5.68,1.42-11.81,1.4-17.74,1.38c-0.71,0-1.42,0-2.13,0c-0.24,0-0.5,0-0.73,0c-1.9,0-4.05-0.3-6.22-0.88
		c-0.97-0.26-2.86-0.65-4.39-0.43c-0.26-0.31-0.7-0.42-1.06-0.21c-2.41,1.36-3.13,4.27-3.77,6.83c-0.17,0.66-0.32,1.3-0.51,1.88
		c-0.25,0.78-0.35,1.54-0.45,2.28c-0.05,0.34-0.09,0.68-0.16,1.03c-0.2,1.1-0.21,2.2-0.23,3.27c-0.01,0.97-0.02,1.88-0.17,2.77
		c-0.05,0.32-0.22,0.77-0.4,1.25c-0.29,0.76-0.61,1.64-0.63,2.47l-0.05-0.03c-0.18,0.24-0.22,0.64-0.1,0.92
		c0.07,0.16,0.26,0.31,0.49,0.45c0.16,0.25,0.43,0.4,0.71,0.4c0.04,0,0.07-0.03,0.11-0.03c1.19,0.39,2.91,0.64,4.1,0.77
		c1.03,0.11,2.04,0.26,3.05,0.4c1.67,0.24,3.39,0.48,5.13,0.58c2.82,0.15,5.71,0.29,8.62,0.29c4.84,0,9.74-0.36,14.54-1.56
		l1.06-0.26c2.55-0.62,5.43-1.32,7.62-2.95C162.01,170.88,161.56,168,161.16,165.46z M117.46,164.22c0.07-0.37,0.12-0.73,0.17-1.1
		c0.1-0.7,0.19-1.36,0.39-2c0.19-0.61,0.36-1.28,0.54-1.98c0.3-1.2,0.63-2.48,1.14-3.58c0.01,0.06,0.02,0.14,0.03,0.19
		c0.08,4.82-0.76,9.09-2.5,12.94c0.02-0.5,0.03-1,0.04-1.49C117.27,166.17,117.28,165.19,117.46,164.22z M158.63,171.3
		c-1.91,1.43-4.5,2.05-7,2.66l-1.07,0.26c-7.45,1.87-15.27,1.63-22.65,1.23c-1.67-0.09-3.28-0.32-4.99-0.57
		c-1.03-0.15-2.06-0.29-3.11-0.41c-0.54-0.06-2.44-0.36-3.54-0.63c3.58-5.17,5.26-11.1,5.14-18.11c0-0.2-0.04-0.46-0.09-0.75
		c-0.04-0.27-0.13-0.82-0.12-0.92c0.4-0.48,2.41-0.42,4.49,0.13c2.31,0.61,4.61,0.93,6.65,0.93c0.01,0,0.03,0,0.04,0
		c0.93,0,1.86,0,2.8,0c6.03,0.02,12.27,0.04,18.16-1.43c0.64-0.16,1.27-0.36,1.9-0.56c0.66-0.21,1.32-0.42,2-0.58
		c0.8-0.19,0.99-0.14,1.02-0.13c0.03,0.03,0.16,0.2,0.31,1.04c0.61,3.33,0.82,6.33,0.62,8.91c-0.08,1.04,0.1,2.21,0.28,3.34
		C159.84,167.99,160.18,170.14,158.63,171.3z"/>
	<path style="fill:#F2C53F;" d="M179.54,115.35c-2.65,0-5.63-0.54-7.24-2.32c-0.31-0.35-0.28-0.88,0.06-1.2
		c0.35-0.31,0.88-0.29,1.2,0.06c1.76,1.96,6.8,2.06,9.62,1.38c0.88-0.21,2.51-0.91,2.31-2.02c-0.08-0.46,0.23-0.9,0.69-0.98
		c0.45-0.08,0.9,0.23,0.98,0.69c0.36,2.05-1.54,3.46-3.58,3.96C182.6,115.16,181.13,115.35,179.54,115.35z"/>
	<g>
		<path style="fill:#DCEFF8;" d="M64.13,103.37c-1.72,0.39-2.8,2.05-2.81,4.18c-0.02,2.65,3.61,4.35,5.77,2.97
			c2.4-1.53,2.32-5.88-0.58-6.93C65.63,103.26,64.83,103.21,64.13,103.37z"/>
		<path style="fill:#A8B2B6;" d="M65.3,111.85c-0.84,0-1.71-0.22-2.5-0.66c-1.47-0.81-2.34-2.18-2.33-3.65
			c0.02-2.56,1.38-4.53,3.47-5l0,0c0.89-0.2,1.86-0.12,2.86,0.25c1.56,0.57,2.61,1.97,2.81,3.76c0.21,1.91-0.6,3.75-2.07,4.68
			C66.89,111.65,66.11,111.85,65.3,111.85z M64.31,104.2c-1.29,0.29-2.14,1.61-2.15,3.36c-0.01,0.85,0.54,1.65,1.46,2.16
			c1.03,0.57,2.21,0.6,3.02,0.09c0.91-0.58,1.43-1.81,1.29-3.07c-0.06-0.54-0.34-1.86-1.7-2.35
			C65.53,104.13,64.88,104.07,64.31,104.2L64.31,104.2z"/>
	</g>
	<path style="fill:#676C6F;" d="M65.76,108.13c-0.12,0-0.24-0.03-0.35-0.11c-0.04-0.02-0.21-0.05-0.32-0.06
		c-0.39-0.06-0.99-0.15-1.24-0.71c-0.09-0.21-0.22-0.51,0.66-2c0.18-0.31,0.57-0.4,0.87-0.23c0.3,0.18,0.4,0.57,0.22,0.87
		c-0.14,0.24-0.31,0.56-0.42,0.8c0.03,0,0.07,0.01,0.1,0.01c0.27,0.04,0.58,0.09,0.84,0.26c0.29,0.2,0.37,0.59,0.17,0.88
		C66.16,108.03,65.96,108.13,65.76,108.13z"/>
	<path style="fill:#676C6F;" d="M65.42,112.59c-0.54,0-1.02-0.14-1.39-0.43c-0.28-0.21-0.34-0.61-0.13-0.89
		c0.21-0.28,0.61-0.33,0.89-0.13c0.39,0.29,1.02,0.16,1.37,0.05c1.09-0.34,2.06-1.21,2.25-1.77c0.11-0.33,0.47-0.52,0.8-0.4
		c0.33,0.11,0.51,0.47,0.4,0.8c-0.34,1.03-1.66,2.14-3.07,2.58C66.14,112.53,65.77,112.59,65.42,112.59z"/>
	<path d="M81.05,101.81c-0.27,0-0.53-0.13-0.7-0.37c-0.49-0.71-1.18-1.21-1.92-1.75c-0.35-0.25-0.69-0.51-1.04-0.79
		c-0.36-0.3-0.41-0.83-0.12-1.19c0.3-0.36,0.83-0.41,1.19-0.12c0.31,0.26,0.64,0.49,0.96,0.72c0.82,0.59,1.66,1.2,2.32,2.16
		c0.26,0.38,0.17,0.91-0.22,1.18C81.38,101.76,81.22,101.81,81.05,101.81z"/>
	<g>
		<path style="fill-rule:evenodd;clip-rule:evenodd;fill:#F6E298;" d="M83.66,102.98c-0.07,0.12-0.46,0.41-0.64,0.54l-0.05,0.03
			c-0.46,0.34-0.95,0.69-1.2,1.17c-0.12,0.22-0.22,0.46-0.32,0.69c-0.36,0.83-0.36,0.83-0.78,0.68c-0.29-0.08-0.51-0.17-0.3-1.08
			c0.22-1.05,0.63-1.64,1.51-2.15c0.2-0.12,0.54-0.2,0.86-0.2c0.27,0,0.54,0.05,0.71,0.17C83.57,102.9,83.62,102.98,83.66,102.98z"
			/>
		<path style="fill:#F2C53F;" d="M84.3,101.36c-1.02-0.59-2.47-0.44-3.3,0.05c-1.27,0.75-1.98,1.74-2.3,3.25
			c-0.42,1.98,0.54,2.76,1.42,3.05c0.32,0.12,0.61,0.15,0.86,0.15c1.25,0,1.73-1.12,2.01-1.78c0.08-0.19,0.17-0.37,0.25-0.56
			c0.08-0.14,0.47-0.42,0.71-0.61c0,0,0.03-0.02,0.05-0.02c0.61-0.44,1.29-0.95,1.3-1.73C85.33,102.4,84.98,101.74,84.3,101.36z
			 M82.96,103.56c-0.46,0.34-0.95,0.69-1.2,1.17c-0.12,0.22-0.22,0.46-0.32,0.69c-0.36,0.83-0.36,0.83-0.78,0.68
			c-0.29-0.08-0.51-0.17-0.3-1.08c0.22-1.05,0.63-1.64,1.51-2.15c0.2-0.12,0.54-0.2,0.86-0.2c0.27,0,0.54,0.05,0.71,0.17
			c0.14,0.07,0.19,0.15,0.22,0.15c-0.07,0.12-0.46,0.41-0.64,0.54L82.96,103.56z"/>
	</g>
	<path d="M189.64,115.38c-0.14-0.52-0.32-1.02-0.56-1.49c0.56-1.02,0.75-2.17,0.54-3.35c-0.15-0.81-0.58-1.52-1.19-2.02
		c-0.02-1.29-0.14-2.49-0.39-3.66c-0.91-4.39-4.44-9.28-9.38-10.16c-0.58-0.1-1.15-0.15-1.73-0.15c-0.51,0-0.98,0.03-1.49,0.12
		h-0.02c0.02-0.52,0.03-1.03,0.02-1.56c0.17-1.13,0.07-2.24,0.03-2.79c-0.32-3.67-1.39-7.15-3.13-10.02
		c-0.51-0.83-1.44-1.91-2.49-2.93c0.39-1.66,0.76-4,0.49-6.18c0.88-0.68,1.44-1.71,1.51-2.93c0.14-2.18-1.27-4.23-3.32-4.89
		c-1.12-0.36-2.35-0.52-3.81-0.52c-0.98,0-1.91,0.07-2.83,0.14c-0.39,0.03-0.8,0.07-1.19,0.08c-0.54,0.03-1.13,0.08-1.73,0.15
		c-1.83-2.29-3.81-4.23-5.91-5.77c-3.47-2.57-7.08-4.28-10.57-5.94c-1.63-0.78-3.29-1.56-4.88-2.42c-0.59-0.3-1.17-0.64-1.73-0.95
		c-2.88-1.63-5.86-3.3-10.09-3.76c-0.42-0.05-0.86-0.07-1.29-0.07c-2.29,0-4.22,0.61-5.91,1.17c-0.86,0.27-1.68,0.54-2.42,0.68
		c-1.15,0.2-2.32,0.34-3.57,0.47c-2.05,0.24-4.15,0.47-6.38,1.07c-8.03,2.18-16.83,5.22-21.39,11.19l-0.07,0.08
		c-5.3,6.98-10.77,14.17-14.05,22.69c-1.85,4.76-2.78,9.52-2.79,14.14c0,0.27,0,0.54,0.02,0.81c-1.12,1.02-2.03,2.24-2.83,3.35
		c-0.08-0.02-0.17-0.02-0.25-0.02c-0.51,0-1,0.05-1.47,0.17c-0.03,0-0.07,0.02-0.1,0.02c-3.17,0.76-5.32,3.73-5.33,7.4
		c-0.02,0.61,0.07,1.2,0.25,1.78c-1.57,2.57-0.93,5.59-0.59,7.16c0.07,0.36,0.17,0.68,0.29,0.98c-0.19,0.36-0.37,0.78-0.49,1.25
		c-1.41,5.42,1.78,10.85,3.2,12.94c0.34,0.49,0.61,1.03,0.93,1.66c0.76,1.54,1.71,3.45,3.95,5.05c0.75,0.52,1.49,1.17,2.29,1.83
		c2.22,1.88,4.69,3.98,8.16,4.79c-1.34,8.86-2.44,19.39,2.17,29.19c2.54,5.4,6.37,9.84,11.4,13.22c-1.66,2.35-1.46,5.2,0.61,7.13
		c1.03,0.98,2.18,1.56,3.42,1.68c-0.29,1.96-0.49,4.03-0.59,6.33c-0.56,0.71-0.88,1.61-0.88,2.54v4.52c0,2.29,1.86,4.15,4.17,4.15
		c2.29,0,4.17-1.86,4.17-4.15v-4.52c0-0.85-0.27-1.66-0.74-2.34c0.14-2.91,0.42-5.38,0.9-7.72c0.12-0.59,0.36-1.3,0.61-2.05
		c0.02-0.08,0.05-0.17,0.07-0.24c4.44,1.27,9.31,2.03,14.6,2.27c0.93,0.03,1.88,0.07,2.83,0.07c0.83,0,1.66-0.02,2.49-0.05
		l0.17-0.02l3.39-0.12c1.81-0.07,3.67-0.2,5.38-0.42c2.22-0.25,4.44-0.64,6.6-1.13c0.17,1.68,0.66,3.29,1.81,4.5
		c1.59,1.69,3.2,2.05,4.27,2.05c0.73,0,1.44-0.17,2.08-0.47c2.25-1.08,3.49-3.74,3.07-6.65c-0.12-0.83-0.41-1.79-0.83-2.83
		c7.01-3.12,12.68-7.5,16.49-12.82c5.72-7.98,7.47-20.56,6.65-29.5c-0.19-2.22-0.56-4.37-0.97-6.38c0.15,0.03,0.3,0.05,0.46,0.07
		c0.51,0.05,1.02,0.08,1.52,0.08c2.83,0,5.42-0.93,7.48-2.69c1.17-0.98,1.98-2.08,2.71-3.03c0.51-0.68,0.95-1.25,1.39-1.66
		c2.78-2.52,6.89-8.01,5.91-13.33C189.69,118.76,190,116.97,189.64,115.38z M181.12,132.11c-0.63,0.56-1.15,1.25-1.69,1.98
		c-0.68,0.9-1.39,1.83-2.34,2.64c-1.61,1.37-3.62,2.08-5.84,2.08c-0.41,0-0.81-0.02-1.22-0.07c-1.42-0.17-2.79-0.49-4.11-0.81
		c0.78,3.23,1.49,6.52,1.8,9.89c0.76,8.47-0.86,20.34-6.2,27.79c-4.03,5.62-10.28,10.08-17.93,12.99c0.91,1.51,1.66,3.29,1.83,4.49
		c0.25,1.78-0.42,3.42-1.64,4.01c-0.22,0.08-0.56,0.22-1,0.22c-0.64,0-1.49-0.27-2.4-1.25c-1.27-1.32-1.3-3.74-1.17-6.03
		c-2.98,0.86-6.13,1.49-9.41,1.9c-1.64,0.19-3.44,0.32-5.16,0.39l-3.44,0.14h-0.14c-0.8,0.03-1.59,0.05-2.39,0.05
		c-0.91,0-1.83-0.02-2.73-0.07c-6.15-0.27-11.63-1.27-16.43-2.96c-0.19,0.9-0.47,1.79-0.76,2.68c-0.27,0.83-0.53,1.61-0.68,2.34
		c-0.56,2.76-0.88,5.69-0.98,9.21c0.46,0.29,0.78,0.78,0.78,1.35v4.52c0,0.9-0.73,1.61-1.63,1.61c-0.9,0-1.63-0.71-1.63-1.61v-4.52
		c0-0.61,0.34-1.12,0.85-1.41c0.1-3.61,0.44-6.64,1.03-9.48c0.15-0.78,0.42-1.61,0.68-2.4c-0.73,0.95-1.59,1.71-2.62,1.88
		c-0.15,0.02-0.29,0.03-0.44,0.03c-0.78,0-1.52-0.34-2.25-1.02c-1.24-1.17-1.22-2.79,0.08-4.23c0.46-0.54,1.12-1.03,1.86-1.44
		c-6.05-3.25-10.57-7.92-13.38-13.92c-4.55-9.69-3.17-20.15-1.56-30.33c-0.02,0-0.02,0-0.02,0c-0.3,0-0.63-0.02-0.93-0.03
		c-3.61-0.34-6.08-2.44-8.47-4.47c-0.85-0.71-1.64-1.39-2.47-1.98c-1.71-1.2-2.44-2.68-3.15-4.1c-0.34-0.68-0.66-1.32-1.1-1.96
		c-1.24-1.79-3.98-6.45-2.84-10.85c0.14-0.51,0.41-0.95,0.63-1.34c0.07-0.12,0.15-0.25,0.22-0.37c-0.07-0.15-0.15-0.37-0.2-0.51
		c-0.17-0.39-0.34-0.8-0.42-1.2c-0.34-1.63-0.93-4.33,0.98-6.15c0.03-0.03,0.07-0.05,0.1-0.08c-0.44-0.64-0.69-1.37-0.68-2.15
		c0.02-2.54,1.37-4.49,3.44-4.96c0.3-0.07,0.61-0.1,0.93-0.1c0.47,0,0.95,0.07,1.46,0.22c0.07-0.12,0.14-0.22,0.22-0.34
		c1.07-1.52,2.37-3.49,4.03-4.61c-0.07-0.64-0.1-1.29-0.1-1.96c0.02-4.32,0.9-8.77,2.62-13.22c3.15-8.18,8.52-15.24,13.7-22.06
		l0.08-0.08c4.08-5.37,12.41-8.21,20.02-10.28c2.05-0.56,4.05-0.78,5.99-1c1.3-0.14,2.52-0.27,3.76-0.51
		c0.9-0.17,1.79-0.46,2.74-0.75c1.59-0.52,3.25-1.05,5.13-1.05c0.34,0,0.68,0.02,1.02,0.05c3.73,0.41,6.33,1.88,9.11,3.44
		c0.58,0.32,1.17,0.66,1.78,1c1.17,0.63,2.35,1.2,3.51,1.74c0.49,0.25,0.98,0.47,1.47,0.71c3.39,1.61,6.88,3.29,10.16,5.71
		c2.27,1.68,4.4,3.86,6.3,6.42c0.37-0.05,0.73-0.1,1.07-0.14c0.69-0.08,1.35-0.14,1.93-0.17c1.25-0.07,2.56-0.22,3.86-0.22
		c1.03,0,2.07,0.1,3.03,0.41c1.73,0.54,2.27,3.3,0.42,3.66c-0.37-0.19-0.75-0.37-1.1-0.54c-0.25-0.12-0.46-0.24-0.64-0.34
		c1.71,1.22,1.63,4.47,1.17,7.11c-0.17,0.98-0.39,1.9-0.61,2.57c1.46,1.17,2.71,2.61,3.18,3.37c1.63,2.69,2.51,5.79,2.76,8.92
		c0.05,0.49,0.14,1.51-0.03,2.4v0.2c0.03,1.85-0.15,3.69-0.51,5.49c0,0,0.02,0,0.02-0.02c0.1-0.07,0.19-0.14,0.29-0.2
		c0.78-0.51,1.63-0.9,2.52-1.12c0.54-0.14,1.12-0.2,1.71-0.2c0.42,0,0.85,0.03,1.29,0.12c3.76,0.66,6.59,4.62,7.35,8.18
		c0.34,1.68,0.39,3.39,0.24,5.1c0.12-0.08,0.22-0.15,0.37-0.17c0.03-0.02,0.08-0.02,0.14-0.02c0.37,0,0.73,0.29,0.8,0.68
		c0.22,1.22-0.39,2.2-1.34,2.91c0.81,0.58,1.22,1.35,1.37,2.07c0.36,1.49-0.39,3.15-1.12,4.33
		C187.51,124.69,183.58,129.85,181.12,132.11z M169.88,110.63c-0.22-0.14-0.42-0.32-0.61-0.54c-0.36-0.42-0.66-1.07-0.9-1.78
		c-0.54,0.8-1.12,1.57-1.73,2.32c-0.61,0.75-1.25,1.47-1.95,2.17v0.02c-0.05,0.17-0.08,0.32-0.14,0.49
		c-0.32,1.02-0.75,2.02-1.13,2.98c-0.12,0.27-0.24,0.56-0.36,0.83c0.12,0.08,0.24,0.19,0.36,0.29c0.34,0.25,0.66,0.52,0.95,0.78
		c0.74,0.63,1.34,1.12,2.05,1.49c0.29-0.22,0.58-0.37,0.8-0.47c0.17-0.08,0.27-0.14,0.32-0.19c0.25-0.24,0.68-0.88,0.8-1.2
		c0.1-0.34,0.15-0.8,0.2-1.25c0.12-1.34,0.34-3.57,2.98-4.5c0.3-0.1,0.58-0.15,0.85-0.19c0,0,0,0,0.02-0.02
		c0.07-0.05,0.14-0.1,0.22-0.14c-0.03-0.02-0.07-0.03-0.12-0.05C171.61,111.26,170.68,111.16,169.88,110.63z M140.86,189.54
		c-0.15,2.03-0.22,4.44,0.68,5.42c0.24,0.24,0.76,0.73,1.25,0.73c0.08,0,0.19-0.02,0.27-0.07c0.49-0.24,0.9-1.17,0.75-2.3
		c-0.17-1.24-0.97-2.9-1.78-4.15C141.65,189.29,141.25,189.41,140.86,189.54z M93.14,189.49c-1.03,1.17-0.41,1.76-0.17,1.98
		c0.52,0.51,0.91,0.58,1.13,0.58h0.17c1.08-0.19,2.18-2.03,2.95-3.44c-0.52-0.22-1.05-0.44-1.54-0.68
		C94.7,188.27,93.75,188.83,93.14,189.49z M78.51,115.48c0.19,0.9,0.07,1.76-0.02,2.42c-0.05,0.46-0.12,0.9-0.08,1.25
		c0.03,0.36,0.3,1.07,0.51,1.37c0.03,0.05,0.12,0.14,0.27,0.25c0.19,0.15,0.42,0.34,0.66,0.63c0.24-0.05,0.46-0.15,0.68-0.24
		c-0.25-1.66-1.12-3.67-1.78-5.2C78.66,115.8,78.58,115.65,78.51,115.48z M75.75,112.24c-0.29,0.07-0.44,0.07-0.56,0.08
		c0.47,0.07,0.93,0.22,1.41,0.51c0.46,0.3,0.8,0.63,1.08,0.97c-0.31-0.58-0.61-1.13-0.93-1.69
		C76.41,112.14,76.09,112.18,75.75,112.24z M143.8,193.32c-0.17-1.24-0.97-2.9-1.78-4.15c-0.37,0.12-0.78,0.24-1.17,0.37
		c-0.15,2.03-0.22,4.44,0.68,5.42c0.24,0.24,0.76,0.73,1.25,0.73c0.08,0,0.19-0.02,0.27-0.07
		C143.55,195.39,143.96,194.45,143.8,193.32z M95.68,187.94c-0.98,0.34-1.93,0.9-2.54,1.56c-1.03,1.17-0.41,1.76-0.17,1.98
		c0.52,0.51,0.91,0.58,1.13,0.58h0.17c1.08-0.19,2.18-2.03,2.95-3.44C96.7,188.39,96.17,188.17,95.68,187.94z M78.75,115.97
		c-0.08-0.17-0.17-0.32-0.24-0.49c0.19,0.9,0.07,1.76-0.02,2.42c-0.05,0.46-0.12,0.9-0.08,1.25c0.03,0.36,0.3,1.07,0.51,1.37
		c0.03,0.05,0.12,0.14,0.27,0.25c0.19,0.15,0.42,0.34,0.66,0.63c0.24-0.05,0.46-0.15,0.68-0.24
		C80.27,119.51,79.41,117.49,78.75,115.97z M76.75,112.11c-0.34,0.03-0.66,0.07-1,0.14c-0.29,0.07-0.44,0.07-0.56,0.08
		c0.47,0.07,0.93,0.22,1.41,0.51c0.46,0.3,0.8,0.63,1.08,0.97C77.37,113.23,77.07,112.67,76.75,112.11z M172.49,111.67
		c-0.88-0.41-1.81-0.51-2.61-1.03c-0.22-0.14-0.42-0.32-0.61-0.54c-0.36-0.42-0.66-1.07-0.9-1.78c-0.54,0.8-1.12,1.57-1.73,2.32
		c-0.61,0.75-1.25,1.47-1.95,2.17v0.02c-0.05,0.17-0.08,0.32-0.14,0.49c-0.32,1.02-0.75,2.02-1.13,2.98
		c-0.12,0.27-0.24,0.56-0.36,0.83c0.12,0.08,0.24,0.19,0.36,0.29c0.34,0.25,0.66,0.52,0.95,0.78c0.74,0.63,1.34,1.12,2.05,1.49
		c0.29-0.22,0.58-0.37,0.8-0.47c0.17-0.08,0.27-0.14,0.32-0.19c0.25-0.24,0.68-0.88,0.8-1.2c0.1-0.34,0.15-0.8,0.2-1.25
		c0.12-1.34,0.34-3.57,2.98-4.5c0.3-0.1,0.58-0.15,0.85-0.19c0,0,0,0,0.02-0.02c0.07-0.05,0.14-0.1,0.22-0.14
		C172.57,111.7,172.54,111.68,172.49,111.67z"/>
	<path style="fill:#0070A8;" d="M175.23,97.29c-0.2,1.52-0.54,3.06-1,4.56c-0.95,3.15-2.44,6.11-4.35,8.79
		c-0.22-0.14-0.42-0.32-0.61-0.54c-0.36-0.42-0.66-1.07-0.9-1.78v-0.02c1.47-2.18,2.64-4.59,3.42-7.18
		c0.25-0.81,0.46-1.66,0.63-2.51c0.1-0.07,0.19-0.14,0.29-0.2C173.49,97.9,174.33,97.51,175.23,97.29z"/>
</g>
<g>
	<path style="fill-rule:evenodd;clip-rule:evenodd;" d="M154.89,82.74c0.12,0.81-0.64,1.59-1.71,1.75s-2.03-0.37-2.15-1.19
		c-0.12-0.81,0.65-1.59,1.72-1.75S154.77,81.93,154.89,82.74"/>
	<path style="fill:#221714;" d="M160.97,87.02c-0.33-0.45-0.98-0.55-1.43-0.22c-0.45,0.34-0.55,0.96-0.21,1.41
		c0.07,0.21-0.17,1-0.73,1.82c-0.52,0.76-1.19,1.15-1.99,1.15c-0.01,0-0.02,0-0.03,0c-1.18-0.01-2.47-0.87-3.41-2.24
		c-0.1-0.32-0.33-0.59-0.67-0.69c-0.54-0.16-1.1,0.15-1.26,0.68c-0.56,1.88-1.92,3.35-3.82,4.15c-1.93,0.81-4.16,0.76-5.83-0.12
		c-0.9-0.48-1.5-1.01-1.66-1.27c0.23-0.43,0.12-0.99-0.28-1.29c-0.45-0.34-1.09-0.25-1.42,0.2c-0.32,0.42-0.43,0.94-0.31,1.45
		c0.27,1.24,1.83,2.23,2.73,2.71c1.18,0.63,2.53,0.94,3.91,0.94c1.22,0,2.47-0.25,3.65-0.74c1.86-0.78,3.32-2.06,4.24-3.69
		c1.2,1.22,2.66,1.93,4.11,1.94c0.02,0,0.03,0,0.05,0c1.47,0,2.77-0.72,3.67-2.03C160.82,90.38,161.99,88.38,160.97,87.02z"/>
</g>
<g>
	<g>
		<path d="M197.65,67.22c-0.64-0.27-1.29-0.49-1.91-0.69c-0.93-0.3-2.35-0.78-2.66-1.22c-0.85-1.22-1.05-4.28-1.17-6.11l-0.03-0.54
			c-0.1-1.63-1.35-2.95-2.96-3.13c-0.14-0.02-0.27-0.03-0.41-0.03c-1.47,0-2.78,0.95-3.23,2.37c-0.19,0.61-0.37,1.29-0.56,1.98
			c-0.42,1.63-0.91,3.45-1.68,4.28c-0.73,0.81-2.52,1.34-4.1,1.79c-0.66,0.19-1.29,0.37-1.86,0.58c-1.51,0.51-2.46,2-2.27,3.59
			c0.19,1.57,1.44,2.81,3.01,2.98c0.69,0.07,2.79,0.29,4.44,3.47c0.59,1.15,1.27,3.57,1.81,6.45c0.27,1.51,1.54,2.62,3.07,2.74
			c0.08,0.02,0.17,0.02,0.27,0.02c1.41,0,2.69-0.9,3.18-2.25c0.42-1.19,0.73-2.3,0.98-3.29c0.9-3.37,1.32-4.91,5.98-6.71
			c1.29-0.51,2.13-1.73,2.17-3.12C199.73,69.01,198.92,67.76,197.65,67.22z M196.64,71.13c-5.88,2.27-6.57,4.84-7.52,8.43
			c-0.25,0.97-0.52,1.98-0.91,3.08c-0.14,0.34-0.46,0.56-0.81,0.56h-0.05c-0.39-0.03-0.71-0.32-0.78-0.69
			c-0.59-3.2-1.32-5.74-2.05-7.15c-1.51-2.91-3.66-4.54-6.43-4.83c-0.39-0.05-0.69-0.36-0.75-0.75c-0.05-0.41,0.19-0.78,0.56-0.9
			c0.56-0.19,1.15-0.37,1.76-0.54c2-0.59,4.06-1.19,5.27-2.52c1.19-1.29,1.74-3.44,2.25-5.33c0.17-0.66,0.34-1.29,0.53-1.88
			c0.12-0.39,0.51-0.64,0.91-0.58c0.41,0.05,0.71,0.37,0.75,0.78l0.03,0.54c0.15,2.35,0.36,5.59,1.61,7.38
			c0.8,1.13,2.39,1.68,3.95,2.18c0.59,0.2,1.19,0.41,1.71,0.63c0.32,0.14,0.52,0.46,0.52,0.8
			C197.16,70.69,196.96,70.99,196.64,71.13z"/>
		<path style="fill:#FFE89A;" d="M194.03,70.42c-4.79,2.39-5.62,5.27-6.5,8.53c-0.41-1.61-0.91-3.2-1.51-4.37
			c-1.2-2.34-2.84-4-4.83-4.93c1.83-0.56,3.71-1.29,4.98-2.68c0.9-0.98,1.47-2.25,1.91-3.56c0.25,1.57,0.71,3.12,1.52,4.3
			C190.64,69.2,192.4,69.88,194.03,70.42z"/>
		<path style="fill:#FDCD3A;" d="M196.65,69.55c-0.52-0.22-1.12-0.42-1.71-0.63c-1.56-0.51-3.15-1.05-3.95-2.18
			c-1.25-1.79-1.46-5.03-1.61-7.38l-0.03-0.54c-0.03-0.41-0.34-0.73-0.75-0.78c-0.41-0.07-0.8,0.19-0.91,0.58
			c-0.19,0.59-0.36,1.22-0.53,1.88c-0.51,1.9-1.07,4.05-2.25,5.33c-1.2,1.34-3.27,1.93-5.27,2.52c-0.61,0.17-1.2,0.36-1.76,0.54
			c-0.37,0.12-0.61,0.49-0.56,0.9c0.05,0.39,0.36,0.69,0.75,0.75c2.78,0.29,4.93,1.91,6.43,4.83c0.73,1.41,1.46,3.95,2.05,7.15
			c0.07,0.37,0.39,0.66,0.78,0.69h0.05c0.36,0,0.68-0.22,0.81-0.56c0.39-1.1,0.66-2.12,0.91-3.08c0.95-3.59,1.64-6.16,7.52-8.43
			c0.32-0.14,0.52-0.44,0.54-0.78C197.18,70.01,196.97,69.69,196.65,69.55z M187.53,78.95c-0.41-1.61-0.91-3.2-1.51-4.37
			c-1.2-2.34-2.84-4-4.83-4.93c1.83-0.56,3.71-1.29,4.98-2.68c0.9-0.98,1.47-2.25,1.91-3.56c0.25,1.57,0.71,3.12,1.52,4.3
			c1.03,1.47,2.79,2.15,4.42,2.69C189.24,72.81,188.41,75.68,187.53,78.95z"/>
	</g>
	<g>
		<path d="M208.51,91.06c-0.37-0.15-0.81-0.3-1.24-0.46c-0.3-0.1-0.75-0.24-0.98-0.36c-0.24-0.61-0.34-2.13-0.39-2.81l-0.02-0.34
			c-0.1-1.63-1.35-2.95-2.96-3.13c-0.15-0.02-0.29-0.03-0.42-0.03c-1.46,0-2.76,0.95-3.22,2.37c-0.12,0.39-0.24,0.81-0.36,1.25
			c-0.17,0.64-0.46,1.71-0.69,2c-0.24,0.2-1.24,0.51-1.83,0.68c-0.41,0.12-0.81,0.24-1.17,0.36c-1.51,0.52-2.46,2.02-2.27,3.59
			c0.19,1.57,1.44,2.83,3.01,2.98c0.3,0.03,0.93,0.1,1.57,1.35c0.08,0.15,0.51,1.05,0.97,3.49c0.27,1.51,1.54,2.62,3.07,2.74
			c0.08,0.02,0.17,0.02,0.27,0.02c1.42,0,2.69-0.9,3.18-2.25c0.27-0.76,0.46-1.46,0.63-2.07c0.49-1.88,0.61-2.27,2.74-3.1
			c1.29-0.51,2.15-1.73,2.17-3.1C210.59,92.85,209.78,91.6,208.51,91.06z M207.49,94.97c-3.35,1.29-3.73,2.69-4.28,4.81
			c-0.17,0.59-0.34,1.22-0.56,1.88c-0.14,0.34-0.44,0.56-0.8,0.56h-0.07c-0.39-0.03-0.71-0.32-0.78-0.69
			c-0.34-1.88-0.78-3.37-1.19-4.18c-0.85-1.64-2.05-2.54-3.59-2.71c-0.39-0.03-0.69-0.36-0.75-0.75c-0.05-0.39,0.19-0.76,0.56-0.9
			c0.34-0.12,0.69-0.22,1.07-0.32c1.15-0.34,2.34-0.68,3-1.41c0.64-0.71,0.98-1.95,1.27-3.05c0.1-0.41,0.2-0.8,0.32-1.15
			c0.12-0.39,0.49-0.63,0.91-0.58c0.39,0.05,0.71,0.37,0.73,0.78l0.03,0.32c0.08,1.37,0.2,3.25,0.9,4.25
			c0.41,0.59,1.32,0.9,2.18,1.19c0.37,0.12,0.73,0.24,1.05,0.37c0.32,0.14,0.53,0.46,0.53,0.8
			C208.03,94.53,207.81,94.85,207.49,94.97z"/>
		<path style="fill:#FFE89A;" d="M204.98,94.29c-1.9,1.12-2.61,2.42-3.07,3.81c-0.17-0.58-0.37-1.1-0.59-1.54
			c-0.61-1.19-1.41-2.1-2.35-2.71c0.9-0.32,1.74-0.75,2.39-1.46c0.32-0.36,0.59-0.76,0.8-1.2c0.17,0.59,0.41,1.15,0.73,1.61
			C203.41,93.57,204.19,93.99,204.98,94.29z"/>
		<path style="fill:#FDCD3A;" d="M207.51,93.4c-0.32-0.14-0.68-0.25-1.05-0.37c-0.86-0.29-1.78-0.59-2.18-1.19
			c-0.69-1-0.81-2.88-0.9-4.25l-0.03-0.32c-0.02-0.41-0.34-0.73-0.73-0.78c-0.42-0.05-0.8,0.19-0.91,0.58
			c-0.12,0.36-0.22,0.75-0.32,1.15c-0.29,1.1-0.63,2.34-1.27,3.05c-0.66,0.73-1.85,1.07-3,1.41c-0.37,0.1-0.73,0.2-1.07,0.32
			c-0.37,0.14-0.61,0.51-0.56,0.9c0.05,0.39,0.36,0.71,0.75,0.75c1.54,0.17,2.74,1.07,3.59,2.71c0.41,0.81,0.85,2.3,1.19,4.18
			c0.07,0.37,0.39,0.66,0.78,0.69h0.07c0.36,0,0.66-0.22,0.8-0.56c0.22-0.66,0.39-1.29,0.56-1.88c0.56-2.12,0.93-3.52,4.28-4.81
			c0.32-0.12,0.54-0.44,0.54-0.78C208.03,93.85,207.83,93.53,207.51,93.4z M201.92,98.1c-0.17-0.58-0.37-1.1-0.59-1.54
			c-0.61-1.19-1.41-2.1-2.35-2.71c0.9-0.32,1.74-0.75,2.39-1.46c0.32-0.36,0.59-0.76,0.8-1.2c0.17,0.59,0.41,1.15,0.73,1.61
			c0.53,0.76,1.3,1.19,2.1,1.49C203.09,95.41,202.38,96.72,201.92,98.1z"/>
	</g>
</g>
<g>
	<path d="M58.49,88.57c-0.59-0.25-1.22-0.46-1.83-0.66c-0.81-0.27-2.17-0.73-2.44-1.1c-0.78-1.12-0.97-4-1.07-5.71l-0.03-0.52
		c-0.1-1.63-1.35-2.93-2.96-3.13c-0.15-0.02-0.29-0.02-0.42-0.02c-1.46,0-2.78,0.93-3.22,2.35c-0.19,0.59-0.36,1.24-0.54,1.9
		c-0.41,1.52-0.85,3.25-1.54,4c-0.66,0.73-2.34,1.22-3.83,1.66c-0.61,0.17-1.22,0.36-1.78,0.54c-1.51,0.52-2.44,2.02-2.27,3.59
		c0.19,1.57,1.44,2.81,3.01,2.98c1.1,0.12,2.73,0.58,4.08,3.2c0.56,1.08,1.2,3.37,1.71,6.08c0.29,1.51,1.54,2.64,3.07,2.76
		c0.08,0,0.17,0.02,0.27,0.02c1.42,0,2.69-0.9,3.18-2.25c0.41-1.15,0.69-2.2,0.93-3.13c0.88-3.23,1.24-4.59,5.57-6.27
		c1.29-0.49,2.15-1.73,2.17-3.1C60.58,90.37,59.76,89.11,58.49,88.57z M57.48,92.48c-5.54,2.15-6.2,4.59-7.11,7.98
		c-0.24,0.93-0.49,1.9-0.86,2.93c-0.14,0.34-0.44,0.58-0.8,0.58c-0.03,0-0.05,0-0.07-0.02c-0.39-0.02-0.69-0.3-0.78-0.68
		c-0.56-3.05-1.25-5.45-1.93-6.77c-1.42-2.76-3.47-4.3-6.08-4.57c-0.39-0.03-0.71-0.36-0.76-0.75c-0.03-0.39,0.2-0.76,0.58-0.9
		c0.52-0.19,1.08-0.34,1.66-0.51c1.9-0.56,3.84-1.13,5-2.39c1.1-1.2,1.64-3.25,2.12-5.05c0.17-0.63,0.32-1.24,0.51-1.78
		c0.12-0.39,0.51-0.64,0.9-0.59c0.41,0.05,0.73,0.37,0.75,0.78l0.03,0.52c0.15,2.24,0.34,5.3,1.52,6.99
		c0.74,1.07,2.27,1.57,3.73,2.05c0.58,0.2,1.13,0.39,1.64,0.59c0.3,0.14,0.51,0.46,0.51,0.8C58.02,92.06,57.8,92.36,57.48,92.48z"/>
	<path style="fill:#FFE89A;" d="M54.89,91.77c-4.4,2.24-5.25,4.91-6.06,7.94c-0.37-1.47-0.85-2.93-1.41-4
		c-1.12-2.18-2.64-3.76-4.49-4.66c1.69-0.52,3.44-1.22,4.64-2.52c0.81-0.9,1.35-2.05,1.76-3.23c0.25,1.44,0.68,2.86,1.42,3.93
		C51.74,90.62,53.36,91.26,54.89,91.77z"/>
	<path style="fill:#FDCD3A;" d="M57.51,90.91c-0.51-0.2-1.07-0.39-1.64-0.59c-1.46-0.47-2.98-0.98-3.73-2.05
		c-1.19-1.69-1.37-4.76-1.52-6.99l-0.03-0.52c-0.02-0.41-0.34-0.73-0.75-0.78c-0.39-0.05-0.78,0.2-0.9,0.59
		c-0.19,0.54-0.34,1.15-0.51,1.78c-0.47,1.79-1.02,3.84-2.12,5.05c-1.15,1.25-3.1,1.83-5,2.39c-0.58,0.17-1.13,0.32-1.66,0.51
		c-0.37,0.14-0.61,0.51-0.58,0.9c0.05,0.39,0.37,0.71,0.76,0.75c2.61,0.27,4.66,1.81,6.08,4.57c0.68,1.32,1.37,3.73,1.93,6.77
		c0.08,0.37,0.39,0.66,0.78,0.68c0.02,0.02,0.03,0.02,0.07,0.02c0.36,0,0.66-0.24,0.8-0.58c0.37-1.03,0.63-2,0.86-2.93
		c0.91-3.39,1.57-5.83,7.11-7.98c0.32-0.12,0.54-0.42,0.54-0.78C58.02,91.36,57.82,91.04,57.51,90.91z M48.82,99.71
		c-0.37-1.47-0.85-2.93-1.41-4c-1.12-2.18-2.64-3.76-4.49-4.66c1.69-0.52,3.44-1.22,4.64-2.52c0.81-0.9,1.35-2.05,1.76-3.23
		c0.25,1.44,0.68,2.86,1.42,3.93c0.98,1.39,2.61,2.03,4.13,2.54C50.48,94.01,49.64,96.68,48.82,99.71z"/>
</g>
</svg>
