<?xml version="1.0" encoding="utf-8"?>
<!-- Generator: Adobe Illustrator 24.1.1, SVG Export Plug-In . SVG Version: 6.00 Build 0)  -->
<svg version="1.1" id="Layer_1" xmlns="http://www.w3.org/2000/svg" xmlns:xlink="http://www.w3.org/1999/xlink" x="0px" y="0px"
	 viewBox="0 0 220 240" style="enable-background:new 0 0 220 240;" xml:space="preserve">
<path style="fill:#FFFFFF;" d="M132.42,206.09c-12.05,13.03-23.71,13.25-27.36,12.94c-1.56-8.04-8.48-22.27-15.91-36.91
	c0-0.03-0.02-0.07-0.03-0.09c-0.56-1.09-1.11-2.21-1.68-3.3c-0.52-1.06-1.06-2.1-1.6-3.16c-7.19-14.12-14-27.46-16.08-34.84
	c-5.99-21.09,9.05-57.3,13.88-68.07c0.85-1.91,1.39-3.02,1.42-3.09c0.42-0.87,0.07-1.91-0.8-2.33c-0.87-0.42-1.89-0.05-2.33,0.8
	c-0.94,1.93-22.94,47.51-15.53,73.65c2.19,7.71,9.07,21.19,16.33,35.45c1.06,2.07,2.1,4.13,3.14,6.18l2.33,42.09
	c-12.19,4.55-28.28,0-32.55-1.37c-0.49-9.71-3.84-76.36-6.34-106.79c-5.38-65.55,6.67-82.66,6.77-82.82
	c0.24-0.31,0.36-0.69,0.36-1.08l-0.21-12.54c13.37,4.05,53.6-1.15,64.23-2.62l-0.31,10.04c-0.02,0.36,0.1,0.73,0.3,1.04
	c11.9,17.47,12.64,43.15,6.5,57.86c-6.22,14.9-17.42,43.34-17.54,43.63c-0.19,0.5-0.14,1.09,0.14,1.56
	C111.97,136.19,124.44,178.19,132.42,206.09z"/>
<path style="fill:#CCCCCC;" d="M136.01,206.07c-1.96-6.9-18.74-65.53-23.08-74.77c1.81-4.57,11.59-29.3,17.23-42.83
	c6.36-15.22,6.18-41.56-6.51-60.69l0.36-11.55c0.02-0.5-0.21-1.01-0.59-1.34c-0.38-0.35-0.9-0.5-1.41-0.43
	c-15.98,2.33-59.11,7.24-66.59,2.26c-0.52-0.35-1.22-0.38-1.79-0.07c-0.56,0.3-0.92,0.9-0.9,1.55l0.23,14.68
	c-2.12,3.37-12.18,22.93-7.1,84.68c2.67,32.64,6.34,107.1,6.37,107.85c0.03,0.69,0.49,1.3,1.15,1.55
	c0.61,0.23,10.96,3.94,22.39,3.94c5,0,10.23-0.71,14.92-2.73c0.68-0.3,1.09-0.97,1.06-1.7l-1.96-35.35
	c6.18,12.44,11.29,23.69,12.05,29.7c0.1,0.75,0.64,1.34,1.37,1.49c0.68,0.14,16.57,3.16,32.43-14.59
	C136.03,207.25,136.17,206.64,136.01,206.07z M105.06,219.03c-1.56-8.04-8.48-22.27-15.91-36.91c0-0.03-0.02-0.07-0.03-0.09
	c-0.56-1.09-1.11-2.21-1.68-3.3c-0.52-1.06-1.06-2.1-1.6-3.16c-7.19-14.12-14-27.46-16.08-34.84c-5.99-21.09,9.05-57.3,13.88-68.07
	c0.85-1.91,1.39-3.02,1.42-3.09c0.42-0.87,0.07-1.91-0.8-2.33c-0.87-0.42-1.89-0.05-2.33,0.8c-0.94,1.93-22.94,47.51-15.53,73.65
	c2.19,7.71,9.07,21.19,16.33,35.45c1.06,2.07,2.1,4.13,3.14,6.18l2.33,42.09c-12.19,4.55-28.28,0-32.55-1.37
	c-0.49-9.71-3.84-76.36-6.34-106.79c-5.38-65.55,6.67-82.66,6.77-82.82c0.24-0.31,0.36-0.69,0.36-1.08l-0.21-12.54
	c13.37,4.05,53.6-1.15,64.23-2.62l-0.31,10.04c-0.02,0.36,0.1,0.73,0.3,1.04c11.9,17.47,12.64,43.15,6.5,57.86
	c-6.22,14.9-17.42,43.34-17.54,43.63c-0.19,0.5-0.14,1.09,0.14,1.56c2.43,3.87,14.9,45.87,22.88,73.77
	C120.36,219.11,108.71,219.34,105.06,219.03z"/>
</svg>
