<?xml version="1.0" encoding="utf-8"?>
<!-- Generator: Adobe Illustrator 23.0.2, SVG Export Plug-In . SVG Version: 6.00 Build 0)  -->
<svg version="1.1" id="Layer_1" xmlns="http://www.w3.org/2000/svg" xmlns:xlink="http://www.w3.org/1999/xlink" x="0px" y="0px"
	 viewBox="0 0 136 202" style="enable-background:new 0 0 136 202;" xml:space="preserve">
<g>
	<path style="fill:#FFFFFF;" d="M82.3,40.2c0.2-0.7,0.6-1.7,1.2-1.9c1-0.4,2.8,0.2,4.3,0.9c-0.1,0-0.2-0.1-0.3-0.1
		c0-0.6,0.3-1.1,0.9-1.4c0.3-0.2,0.6-0.2,0.9-0.1c-0.4-0.1-0.7-0.4-0.9-0.8C88,36,88.4,35,89.2,34.6c0.4-0.2,0.8-0.2,1.2-0.1
		c-0.3-0.1-0.6-0.4-0.8-0.8c-0.4-0.8-0.1-1.8,0.7-2.2c0.1,0,0.2,0,0.2-0.1c-2.7-1.2-6.4-2.1-9.8-0.9c-2.2,0.8-5,2.8-6.3,7.7
		l-0.1,0.3c0,0,0,0.1,0,0.1c2.4,0.3,5.2,1,8,2.1C82.3,40.5,82.3,40.3,82.3,40.2z"/>
	<path style="fill:#673101;" d="M89.5,33.7c0.2,0.4,0.5,0.6,0.8,0.8c-0.4-0.1-0.8-0.1-1.2,0.1C88.4,35,88,36,88.4,36.8
		c0.2,0.4,0.5,0.7,0.9,0.8c-0.3,0-0.6,0-0.9,0.1c-0.6,0.3-0.9,0.8-0.9,1.4c0.1,0,0.2,0.1,0.3,0.1c0.2,0.1,0.3,0.2,0.5,0.3
		c0.2,0.1,0.3,0.2,0.5,0.3c0.1,0,0.1,0.1,0.2,0.1c0.2,0.1,0.4,0.3,0.6,0.4c1.9,1.3,4.4,0.8,5.7-1c0.5-0.7,0.7-1.5,0.7-2.3
		c0-1.3-0.6-2.6-1.7-3.4c-0.1-0.1-0.3-0.2-0.5-0.4c0,0,0,0-0.1,0c-0.1-0.1-0.2-0.1-0.3-0.2c-0.1,0-0.1-0.1-0.2-0.1
		c-0.1-0.1-0.2-0.1-0.3-0.2c-0.1,0-0.2-0.1-0.2-0.1c-0.1-0.1-0.2-0.1-0.4-0.2c-0.1,0-0.2-0.1-0.3-0.1c-0.2-0.1-0.4-0.2-0.6-0.3
		c0,0-0.1,0-0.1-0.1c-0.2-0.1-0.4-0.2-0.6-0.3c-0.1,0-0.2,0-0.2,0.1C89.5,31.9,89.1,32.9,89.5,33.7z"/>
</g>
<g>
	<path style="fill:#FFFFFF;" d="M63,37.5l-0.1-0.2c-1.8-4.7-4.9-6.4-7.1-6.9c-3.5-0.9-7.1,0.5-9.6,2c0.1,0,0.2,0,0.2,0
		c0.9,0.3,1.3,1.3,1,2.1c-0.1,0.4-0.4,0.7-0.7,0.8c0.4-0.1,0.8-0.2,1.2,0c0.8,0.3,1.3,1.3,1,2.1c-0.2,0.4-0.5,0.7-0.8,0.9
		c0.3-0.1,0.6-0.1,0.9,0c0.6,0.2,1,0.7,1,1.3c-0.1,0.1-0.2,0.1-0.3,0.2c1.5-0.9,3.2-1.7,4.2-1.5c0.6,0.2,1.1,1.1,1.4,1.8
		c0,0.2,0.1,0.4,0.1,0.7c2.2-1,4.8-1.8,7.9-2.2C63.1,38,63,37.6,63,37.5z"/>
	<path style="fill:#673101;" d="M48.8,38.3c-0.3-0.1-0.6-0.1-0.9,0c0.4-0.2,0.7-0.5,0.8-0.9c0.3-0.9-0.1-1.8-1-2.1
		c-0.4-0.1-0.8-0.1-1.2,0c0.3-0.2,0.6-0.5,0.7-0.8c0.3-0.9-0.1-1.8-1-2.1c-0.1,0-0.2,0-0.2,0c-0.2,0.1-0.4,0.2-0.6,0.4
		c0,0-0.1,0.1-0.1,0.1c-0.2,0.1-0.4,0.3-0.6,0.4c-0.1,0.1-0.2,0.2-0.3,0.2c-0.1,0.1-0.2,0.1-0.3,0.2c-0.1,0.1-0.2,0.2-0.3,0.2
		c-0.1,0-0.1,0.1-0.2,0.1c-0.1,0.1-0.2,0.2-0.3,0.2c0,0-0.1,0.1-0.1,0.1c-0.1,0.1-0.2,0.1-0.3,0.2c0,0,0,0,0,0
		c-0.2,0.1-0.3,0.3-0.4,0.3c-1.7,1.5-1.9,4.1-0.4,5.8c1.5,1.7,4.1,1.9,5.8,0.4c0.2-0.1,0.3-0.3,0.5-0.4c0.1,0,0.1-0.1,0.2-0.1
		c0.1-0.1,0.3-0.2,0.4-0.3c0.1-0.1,0.3-0.2,0.4-0.3c0.1-0.1,0.2-0.1,0.3-0.2C49.8,39,49.4,38.5,48.8,38.3z"/>
</g>
<g>
	<path style="fill:#FFFFFF;" d="M78.1,124.2c-1.4,0.4-2.9,0.7-4.5,0.9v17.4h4.5V124.2z"/>
	<path style="fill:#00A2E7;" d="M73.6,171.9h3H88h7.3c0.2-0.8,0.3-1.6,0.3-2.4c0-0.4,0-0.7-0.1-1c-4.1-1.3-6-0.2-6-0.2l-1.1-1.6
		c0.2-0.2,2.3-1.4,6.6-0.3c-0.4-1-0.9-1.9-1.5-2.8c-3.2-1.4-6,0.1-6,0.1l-1-1.4c0.2-0.1,1.8-1,4.7-0.7c-1-0.7-2.1-1.2-3.3-1.4
		c0,0-0.1,0-0.2,0c-4.2-0.8-9.8,1.1-9.8,1.1v-17.4v-1h-4.5v1V171.9z"/>
	<path style="fill:#FFFFFF;" d="M92.6,162.3c0.4,0.3,0.7,0.7,1,1.1C93.2,163,92.9,162.7,92.6,162.3z"/>
	<path style="fill:#008BC7;" d="M86.6,162.1l1,1.4c0,0,2.8-1.5,6-0.1c0,0,0,0,0,0c-0.3-0.4-0.6-0.7-1-1.1c0,0,0,0-0.1-0.1
		c-0.4-0.3-0.7-0.6-1.1-0.9c0,0,0,0,0,0C88.4,161.1,86.8,161.9,86.6,162.1z"/>
	<path style="fill:#008BC7;" d="M88.5,166.5l1.1,1.6c0,0,1.9-1.1,6,0.2c0,0,0-0.1,0-0.1c0-0.3-0.1-0.6-0.1-0.9c0-0.1,0-0.2-0.1-0.3
		c-0.1-0.3-0.1-0.5-0.2-0.8c0,0,0-0.1,0-0.1C90.8,165.1,88.7,166.4,88.5,166.5z"/>
</g>
<g>
	<path style="fill:#FFFFFF;" d="M58.5,142.5H63V125c-1.5-0.2-3-0.6-4.5-1V142.5z"/>
	<path style="fill:#00A2E7;" d="M58.5,143.5V161c0,0-5.5-1.9-9.8-1.1c0,0-0.2,0-0.2,0c-1.2,0.3-2.3,0.8-3.3,1.4
		c2.9-0.3,4.5,0.6,4.7,0.7l-1,1.4c0,0-2.8-1.5-6-0.1c-0.7,0.8-1.2,1.8-1.5,2.8c4.3-1.1,6.4,0.2,6.6,0.3l-1.1,1.6c0,0-1.9-1.1-6,0.2
		c0,0.3-0.1,0.7-0.1,1c0,0.8,0.1,1.6,0.3,2.4h7.3H60h3v-28.3v-1h-4.5V143.5z"/>
	<path style="fill:#008BC7;" d="M44.1,162.3C44.1,162.3,44,162.3,44.1,162.3c-0.4,0.4-0.7,0.7-1,1.1c0,0,0,0,0,0
		c3.2-1.4,6,0.1,6,0.1l1-1.4c-0.2-0.1-1.8-1-4.7-0.7c0,0,0,0,0,0C44.8,161.7,44.4,162,44.1,162.3z"/>
	<path style="fill:#008BC7;" d="M41.2,167.1c0,0.1,0,0.2-0.1,0.3c-0.1,0.3-0.1,0.6-0.1,0.9c0,0,0,0.1,0,0.1c4.1-1.3,6-0.2,6-0.2
		l1.1-1.6c-0.2-0.2-2.3-1.4-6.6-0.3c0,0,0,0.1,0,0.1C41.3,166.6,41.3,166.9,41.2,167.1z"/>
</g>
<g>
	<path style="fill:#FFFFFF;" d="M98,102.1c2.7-0.7,5.6-0.8,7.6-0.5c-1.8-13.3-9.1-19.7-9.4-20.1c-0.8-0.8-1.6-1.4-2.5-1.8v8.5
		C95,90.5,97.3,95.1,98,102.1z"/>
	<path style="fill:#008AC4;" d="M98,102.1c0.5,4.6,0.2,10.2-1.4,16.8c-0.6,2.5,0.6,5.2,2.7,6c0.4,0.2,0.8,0.2,1.2,0.2
		c1.7,0,3.2-1.4,3.7-3.4c2-7.9,2.1-14.6,1.4-20.1C103.6,101.3,100.7,101.5,98,102.1z"/>
</g>
<g>
	<path style="fill:#FFFFFF;" d="M43.5,78.3c-0.6-0.3-1.2-0.6-1.6-0.8c-3.1-2.2-4.7-5.2-3.9-9.2c0,0,0,0,0,0c-2.4-2-4.9-2.9-7.1-2.7
		c-2.1,9.5,3.3,14.7,4.8,16.2c2.1,2,5.1,3.2,7.8,3.9v-6.8V78.3z"/>
	<path style="fill:#008AC4;" d="M47.9,47.3c-0.3-0.4-0.6-0.7-1-0.9c-1.4-0.9-3.4-0.6-4.9,1c-6.8,7.3-10,13.3-11.1,18.3
		c2.2-0.2,4.7,0.7,7.1,2.7c0.4-2.2,1.5-4.1,2.7-5.9c1.9-2.8,4.1-5.5,6.3-8C48.9,52.5,49.3,49.3,47.9,47.3z"/>
</g>
<g>
	<path style="fill:#00A2E7;" d="M93.7,57.6c0.2-9.6-5.4-14.4-11.4-16.9c-2.8-1.1-5.6-1.8-8-2.1c-3.3-0.5-5.7-0.4-5.7-0.4
		c-1.9,0-3.7,0.1-5.4,0.4c-3.1,0.4-5.7,1.2-7.9,2.2c-3.5,1.6-6,3.9-7.7,6.2c-3.8,5.1-4.1,10.4-4.1,10.4v1.2v19.7v0.5v6.8v23
		c0,6.9,6.2,12.7,15,15.3c1.4,0.4,2.9,0.8,4.5,1c1.8,0.3,3.7,0.4,5.6,0.4c1.7,0,3.4-0.1,5-0.3c1.5-0.2,3-0.5,4.5-0.9
		c9.2-2.5,15.6-8.5,15.6-15.5V88.3v-8.5V57.6z"/>
	<path style="fill:#008BC7;" d="M76.6,106.8V94.2v0c0-4.4-3.6-8-8-8c-4.4,0-8,3.6-8,8v12.5c0,0,0,0,0,0c0,4.4,3.6,8,8,8
		C73,114.8,76.6,111.2,76.6,106.8z"/>
</g>
<path style="fill:#FFFFFF;" d="M93.7,58.7c-0.2-0.2-0.4-0.4-0.6-0.5c-0.3-8.7-5.3-13.4-10.8-15.8c-1.7-0.7-3.4-1.3-5-1.7
	c-0.6-0.2-2-0.4-3.1-0.6c-0.6-0.1-1.1-0.2-1.3-0.2c-3-0.3-5-0.2-5-0.2c-1.5,0-2.9,0.2-4.3,0.4c-2.9,0.5-5.6,1.5-8,2.8
	c-2.7,1.5-5.1,3.5-6.9,5.9c-2,2.5-3.4,5.4-4,8.5c-0.3,1.2-0.4,2.4-0.4,3.6l0,0c0,0-2.3,18.6,18.9,21.9c1.8,0.2,3.4,0.4,5.1,0.4h15.1
	c2.7,0,5.2-0.9,7.4-2.5c0.6-0.4,1.2-0.9,1.8-1.5c0.5-0.4,0.9-0.9,1.3-1.4c2.2-2.6,3.5-5.9,3.5-9.3C97.2,64.6,96.4,61.1,93.7,58.7z"
	/>
<g>
	<g>
		<path style="fill:#FFC0BB;" d="M54.2,59.5c-3.8,0-7,3.1-7,7c0,3.9,3.1,7,7,7s7-3.1,7-7C61.1,62.7,58,59.5,54.2,59.5z"/>
		<path style="fill:#FFC0BB;" d="M93.7,62.2c-1.3-1.6-3.2-2.7-5.5-2.7c-3.8,0-7,3.1-7,7c0,3.9,3.1,7,7,7c2.2,0,4.2-1,5.5-2.7
			c0.9-1.2,1.5-2.7,1.5-4.4C95.2,64.9,94.6,63.4,93.7,62.2z"/>
	</g>
	<g>
		<path d="M65.8,61.9v-0.2c0-0.9-0.7-1.6-1.6-1.6c-0.9,0-1.6,0.7-1.6,1.6v0.2c0,0.9,0.7,1.6,1.6,1.6C65.1,63.4,65.8,62.7,65.8,61.9z
			"/>
		<path d="M76.7,63.2c0.9,0,1.6-0.7,1.6-1.6v-0.2c0-0.9-0.7-1.6-1.6-1.6s-1.6,0.7-1.6,1.6v0.2C75.1,62.5,75.9,63.2,76.7,63.2z"/>
		<path d="M70.9,65.6c0.6,0,1-0.5,1-1.1c0-0.6-0.4-1.1-1-1.1c-0.6,0-1,0.5-1,1.1C69.9,65.1,70.4,65.6,70.9,65.6z"/>
		<path style="fill:#D84848;" d="M71,68.1c-0.8,1.1-1.9,1.8-2.9,2.2c0.4,1.2,1.4,2.1,2.9,2.1c1.7,0,2.8-1.1,3-2.5
			C72.5,69.5,71.5,68.7,71,68.1z"/>
		<path d="M77.6,69c-4.8,0.1-5.9-2.3-6-2.4c-0.1-0.3-0.3-0.4-0.6-0.4c-0.3,0-0.5,0.1-0.7,0.4c-1.9,3.5-5.6,2.8-5.8,2.8
			c-0.4-0.1-0.8,0.2-0.8,0.6c-0.1,0.4,0.2,0.8,0.6,0.8c0.4,0.1,0.8,0.1,1.3,0.1c0.8,0,1.6-0.2,2.5-0.5c1-0.4,2-1.1,2.9-2.2
			c0.6,0.6,1.5,1.4,3.1,1.9c1,0.3,2.1,0.5,3.6,0.5c0.4,0,0.7-0.3,0.7-0.7C78.3,69.3,78,69,77.6,69z"/>
	</g>
	<g>
		<path style="fill:#A9DEEA;" d="M56.7,50.5c-0.4,0-0.7,0.3-0.7,0.7l0,1.9c0,0.4-0.3,0.7-0.7,0.7c-0.4,0-0.7-0.3-0.7-0.7l0-1.9
			c0-0.4-0.3-0.7-0.7-0.7c-0.4,0-0.7,0.3-0.7,0.7l0,2.1c0,0.1,0,0.1,0,0.2c0.2,1,1,1.8,2.1,1.8c1.1,0,1.9-0.8,2-1.9c0,0,0-0.1,0-0.1
			l0-2.1C57.4,50.8,57.1,50.5,56.7,50.5z"/>
		<path style="fill:#A9DEEA;" d="M84.8,47.4c-0.4,0-0.7,0.3-0.7,0.7l0,1.9c0,0.4-0.3,0.7-0.7,0.7c-0.4,0-0.7-0.3-0.7-0.7l0-0.9l0-1
			c0-0.4-0.3-0.7-0.7-0.7c-0.4,0-0.7,0.3-0.7,0.7l0,2.1c0,0.1,0,0.1,0,0.2c0,0,0,0,0,0c0.2,1,1.1,1.8,2.1,1.7c1.1,0,1.9-0.8,2-1.9
			c0,0,0-0.1,0-0.1l0-2.1C85.5,47.7,85.1,47.4,84.8,47.4z"/>
		<path style="fill:#A9DEEA;" d="M89.3,52.5c0-0.3-0.3-0.6-0.6-0.6c-0.3,0-0.6,0.3-0.6,0.6l0,1.6c0,0.3-0.2,0.6-0.6,0.6
			c-0.3,0-0.6-0.2-0.6-0.6l0-1.6c0-0.3-0.3-0.6-0.6-0.6c-0.3,0-0.6,0.3-0.6,0.6l0,1.7c0,0,0,0.1,0,0.1c0.1,0.8,0.8,1.4,1.7,1.4
			c0.9,0,1.5-0.7,1.6-1.5c0,0,0-0.1,0-0.1L89.3,52.5z"/>
	</g>
</g>
</svg>
