<?xml version="1.0" encoding="utf-8"?>
<!-- Generator: Adobe Illustrator 25.0.0, SVG Export Plug-In . SVG Version: 6.00 Build 0)  -->
<svg version="1.1" id="Layer_1" xmlns="http://www.w3.org/2000/svg" xmlns:xlink="http://www.w3.org/1999/xlink" x="0px" y="0px"
	 viewBox="0 0 190 280" style="enable-background:new 0 0 190 280;" xml:space="preserve">
<g>
	<path style="fill:#EC3490;" d="M93.7,121.7L69,118.4c-4.7,4.3-10.5,11.8-6.7,23.5c2.9,9,7.7,10.7,7.7,10.7l21.4,45
		c0,0,2.4,11.2,5.4,22.9c3.4,13.3,16.9,40.9,16.9,40.9h30c0,0-19.1-57.4-21.7-66.2C118.4,182.6,93.7,121.7,93.7,121.7z"/>
	<path style="fill:#FF8891;" d="M117.8,121.5c-4.1-1.4-7.5-8.7-8.7-13c-1.9-6.5-2.6-15.3-2.6-15.3c-6.4-13.3,2.5-24.8,12.3-21.9
		c15.5,4.6,6.4,21.3,6.4,21.3c1,0.9,1.9,2.1,2.8,4.7c0.8,2.2,3.6,13.4,0.9,19.4C126.8,121.6,122,122.9,117.8,121.5z"/>
	<path style="fill:#FF8891;" d="M113.9,110.8c-1.4,3.5-0.5,7.3,1.9,9.6c2,1.9,5.2,2.8,6.9,2.5c9.6-1.7,25.7-30.8,25.7-30.8
		l-11.2-6.5C137.3,85.6,116.9,103.4,113.9,110.8z"/>
	<path style="fill:#EC3490;" d="M83.3,122.7l-23-12.8c-3.2,1.6-13.6,6-18.2,17.4c-3.5,8.7,0.7,21.5,0.7,21.5s-0.5,9.5,0,21.2
		c0.3,6.6,3.5,23.6,4.5,27.4c0,0-1.9,12.6-2.9,24.3c-1.1,12.7,1.8,39.5,1.8,39.5h30.1c0,0-2.4-55.1-2.4-65.2
		c0-6.3,2.9-33.5,2.4-53.2C76,131.3,83.3,122.7,83.3,122.7z"/>
	<path style="fill:#FFFFFF;" d="M84.6,53.8c5.3-3.6,15.6,1.9,24.6,7.7s13.5,11.6,14.2,14.2c0.7,2.7,1.1,11.8-5.2,22.2
		c-2.2,3.6-6.3,5.9-6.3,5.9l-14,21.6l-31-23.4c0,0,1.2-8.5,3.5-16.8c1.3-4.4,1.9-8.9,2.6-12.2C74.8,64.7,79.6,57.2,84.6,53.8z"/>
	<path style="fill:#CC197B;" d="M66.4,93.4c0.4-0.7,1.3-0.9,1.9-0.5c2.7,1.8,11.1,6.1,20,10.8c5.1,2.7,11.5,5.9,17.7,8.8
		c0.7,0.3,1,1.1,0.7,1.8l-8.1,16.5c-0.3,0.6-1,0.9-1.7,0.7c-2.7-1-9.8-3.2-18.4-7.5c-6.7-3.4-15.1-7.4-21.1-12.2
		c-0.5-0.4-0.7-1.2-0.3-1.8L66.4,93.4z"/>
	<path style="fill:#FF8891;" d="M44.7,50.1c1.7-3.5,11.7-3.7,16.1-3.3c6.7,0.6,15.7,2.9,15.7,2.9c14.5-2.4,22.4,8.6,17.2,17.4
		c-7.5,12.6-22.2,2.5-22.2,2.5C70,70,66.4,70,61.8,69.3c-2.7-0.4-14-4.7-17-9C42.7,57.3,43.1,53.4,44.7,50.1z"/>
	<g>
		<g>
			<defs>
				<path id="SVGID_1_" d="M84.6,53.8c5.3-3.6,15.6,1.9,24.6,7.7s13.5,11.6,14.2,14.2c0.7,2.7,0.7,12.4-6.3,22.7
					c-1.3,1.9-5.2,5.4-5.2,5.4l-14,21.6l-31-23.4c0,0,0.5-8.9,3.5-16.8C72,80.8,72,75.8,73,73C75.8,64.9,79.6,57.2,84.6,53.8z"/>
			</defs>
			<clipPath id="SVGID_2_">
				<use xlink:href="#SVGID_1_"  style="overflow:visible;"/>
			</clipPath>
			<path style="clip-path:url(#SVGID_2_);fill:#FF8891;" d="M96.3,53.5c0,0,3.4,1.8,3.7,10.4s1.2,12.7,6.8,15.8
				c5.6,3.2,10.7,0.3,12.5-2.7s2.3-6.2,0-8.8C116.9,65.6,96.3,53.5,96.3,53.5z"/>
		</g>
		<g>
			<defs>
				<path id="SVGID_3_" d="M84.6,53.8c5.3-3.6,15.6,1.9,24.6,7.7s13.5,11.6,14.2,14.2c0.7,2.7,0.7,12.4-6.3,22.7
					c-1.3,1.9-5.2,5.4-5.2,5.4l-14,21.6l-31-23.4c0,0,0.5-8.9,3.5-16.8C72,80.8,72,75.8,73,73C75.8,64.9,79.6,57.2,84.6,53.8z"/>
			</defs>
			<clipPath id="SVGID_4_">
				<use xlink:href="#SVGID_3_"  style="overflow:visible;"/>
			</clipPath>
			<g style="clip-path:url(#SVGID_4_);">
				<g>
					<defs>
						<path id="SVGID_5_" d="M96.3,53.5c0,0,3.4,1.8,3.7,10.4s1.2,12.7,6.8,15.8c5.6,3.2,10.7,0.3,12.5-2.7s2.3-6.2,0-8.8
							C116.9,65.6,96.3,53.5,96.3,53.5z"/>
					</defs>
					<clipPath id="SVGID_6_">
						<use xlink:href="#SVGID_5_"  style="overflow:visible;"/>
					</clipPath>
					<g style="clip-path:url(#SVGID_6_);">
						
							<path style="fill:none;stroke:#181F41;stroke-width:1.2094;stroke-linecap:round;stroke-linejoin:round;stroke-miterlimit:10;" d="
							M109.7,75.3c0,0-0.8,4.3-2.4,6.9"/>
						
							<path style="fill:none;stroke:#181F41;stroke-width:1.2094;stroke-linecap:round;stroke-linejoin:round;stroke-miterlimit:10;" d="
							M97.2,60.5c0,0,5.8,2.6,8.4,4.8c1.5,1.2,1.8,2.7,1.8,4.1"/>
						
							<path style="fill:none;stroke:#181F41;stroke-width:1.2094;stroke-linecap:round;stroke-linejoin:round;stroke-miterlimit:10;" d="
							M113.7,73.1c0,0,2-0.8,3.4-0.5c1.8,0.5,3,1.5,4.4,2.8"/>
					</g>
				</g>
			</g>
		</g>
	</g>
	<g>
		<path style="fill:#FFFFFF;" d="M93.3,274.7v1.6H45.6l0.6-15h30C86.2,264.8,93.3,269.5,93.3,274.7z"/>
		<g>
			<g>
				<defs>
					<path id="SVGID_7_" d="M93.3,274.7v1.6H45.6l0.6-15h30C86.2,264.8,93.3,269.5,93.3,274.7z"/>
				</defs>
				<clipPath id="SVGID_8_">
					<use xlink:href="#SVGID_7_"  style="overflow:visible;"/>
				</clipPath>
				
					<line style="clip-path:url(#SVGID_8_);fill:none;stroke:#C2DEFF;stroke-width:1.2094;stroke-linecap:round;stroke-linejoin:round;stroke-miterlimit:10;" x1="82.4" y1="261" x2="75.2" y2="264.6"/>
			</g>
			<g>
				<defs>
					<path id="SVGID_9_" d="M93.3,274.7v1.6H45.6l0.6-15h30C86.2,264.8,93.3,269.5,93.3,274.7z"/>
				</defs>
				<clipPath id="SVGID_10_">
					<use xlink:href="#SVGID_9_"  style="overflow:visible;"/>
				</clipPath>
				
					<line style="clip-path:url(#SVGID_10_);fill:none;stroke:#C2DEFF;stroke-width:1.2094;stroke-linecap:round;stroke-linejoin:round;stroke-miterlimit:10;" x1="86.1" y1="263.2" x2="78.8" y2="266.8"/>
			</g>
		</g>
		<g>
			<path style="fill:#FFFFFF;" d="M80.6,273.6h12.7c-0.5-2.4-2.5-4.7-5.5-6.8C84,267.3,81.2,270.7,80.6,273.6z"/>
		</g>
		<path style="fill:#FFFFFF;" d="M45.8,271.8l-0.2,4.5h47.7v-1.6c0-1-0.3-2-0.8-3H45.8V271.8z"/>
	</g>
	<g>
		<path style="fill:#FF8891;" d="M108,52l-5.3,7c0,0,3.4,4.4,7.6,7.7c4.3,3.2,8.1,3,8.1,3l4.7-8.9L108,52z"/>
		<path style="fill:#FF5776;" d="M107.8,52.3l-0.9,1.2c0,0,2,4.7,6,8.1c4.4,3.7,7.4,4.4,7.4,4.4l2.5-4.6L107.8,52.3z"/>
		
			<path style="fill:none;stroke:#161F43;stroke-width:1.2094;stroke-linecap:round;stroke-linejoin:round;stroke-miterlimit:10;" d="
			M115.2,64.5c0.7,0.2,1.6-0.4,2.2-1.3c0.6-0.9,0.6-2,0.1-2.5"/>
	</g>
	<g>
		<path style="fill:#FFFFFF;" d="M160.9,274.7v1.6h-47.7l0.6-15h30C153.8,264.8,160.9,269.5,160.9,274.7z"/>
		<g>
			<g>
				<defs>
					<path id="SVGID_11_" d="M160.9,274.7v1.6h-47.7l0.6-15h30C153.8,264.8,160.9,269.5,160.9,274.7z"/>
				</defs>
				<clipPath id="SVGID_12_">
					<use xlink:href="#SVGID_11_"  style="overflow:visible;"/>
				</clipPath>
				
					<line style="clip-path:url(#SVGID_12_);fill:none;stroke:#C2DEFF;stroke-width:1.2094;stroke-linecap:round;stroke-linejoin:round;stroke-miterlimit:10;" x1="150" y1="261" x2="142.7" y2="264.6"/>
			</g>
			<g>
				<defs>
					<path id="SVGID_13_" d="M160.9,274.7v1.6h-47.7l0.6-15h30C153.8,264.8,160.9,269.5,160.9,274.7z"/>
				</defs>
				<clipPath id="SVGID_14_">
					<use xlink:href="#SVGID_13_"  style="overflow:visible;"/>
				</clipPath>
				
					<line style="clip-path:url(#SVGID_14_);fill:none;stroke:#C2DEFF;stroke-width:1.2094;stroke-linecap:round;stroke-linejoin:round;stroke-miterlimit:10;" x1="153.6" y1="263.2" x2="146.3" y2="266.8"/>
			</g>
		</g>
		<g>
			<path style="fill:#FFFFFF;" d="M148.1,273.6h12.7c-0.5-2.4-2.5-4.7-5.5-6.8C151.5,267.3,148.7,270.7,148.1,273.6z"/>
		</g>
		<path style="fill:#FFFFFF;" d="M113.3,271.8l-0.2,4.5h47.7v-1.6c0-1-0.3-2-0.8-3h-46.7V271.8z"/>
	</g>
	<g>
		<g>
			<g>
				<g>
					<g>
						<path style="fill:#181F41;" d="M122.4,23.6c-2.2-2.2-6.3-2.8-8.7-0.6c-1.9,1.7-3.2,4.2-4.7,6.2c-1.9,2.6-3.6,5.7-6,7.8
							c-0.3,0.2-0.7,0.6-1.4,0.9c0,0,18.6,2.2,22.2-6.7C124.9,28.8,124.5,25.7,122.4,23.6z"/>
						
							<ellipse transform="matrix(0.3917 -0.9201 0.9201 0.3917 30.1958 140.2283)" style="fill:#FF8891;" cx="121.1" cy="47.3" rx="14.5" ry="14.2"/>
						<path style="fill:#181F41;" d="M116.5,30.5c0,0-0.8-0.8-2.8,0.1c-2.5,1.3-13.2,14.4-5.3,23l11.8-19L116.5,30.5z"/>
						<circle style="fill:#161F43;" cx="129.9" cy="50.5" r="0.9"/>
						<circle style="fill:#161F43;" cx="120.9" cy="47" r="0.9"/>
						
							<path style="fill:none;stroke:#161F43;stroke-width:1.2094;stroke-linecap:round;stroke-linejoin:round;stroke-miterlimit:10;" d="
							M133.2,48.9c-1.1-0.7-2.4-1.3-3.7-1.7"/>
						
							<path style="fill:none;stroke:#161F43;stroke-width:1.2094;stroke-linecap:round;stroke-linejoin:round;stroke-miterlimit:10;" d="
							M120.3,43.6c1.3,0.3,2.6,0.7,3.8,1.4"/>
						
							<polyline style="fill:#FF8891;stroke:#161F43;stroke-width:1.2094;stroke-linecap:round;stroke-linejoin:round;stroke-miterlimit:10;" points="
							127.9,47.9 126.5,54.3 123.6,54.2 						"/>
					</g>
				</g>
			</g>
		</g>
		<g>
			<path style="fill:#FF8891;" d="M114.2,40.9c-2.3-1.8-6.5-2-8.4,2.1c-1.8,4.1,1.2,7.1,4.1,7.6s3.3-1.1,4.5-3.8
				C115.5,44.1,116.5,42.7,114.2,40.9z"/>
		</g>
		<g>
			
				<path style="fill:none;stroke:#161F43;stroke-width:1.2094;stroke-linecap:round;stroke-linejoin:round;stroke-miterlimit:10;" d="
				M108.6,42c0.6,0.2,1.1,0.5,1.6,0.9s0.8,0.9,1,1.5"/>
		</g>
		<path style="fill:#181F41;" d="M116.5,41.3c-1.5,2.6-4.2,7-4.2,7s0.9-6.4,0.7-8.2c0,0-3.3-6-0.1-8.8c2.3-2,7.9-5.3,15.9-1.9
			s9.5,9.7,9.6,12.7c0.1,2.9-1.3,5.6-2.1,6.9c-0.4-0.2-2.2-1.6-3.1-2.3c0.5-1,1-2.9,1.3-4c-0.6,1-1.5,2.7-2.2,3.6
			c-0.5-0.2-3.9-1.9-6.6-2.9c0.2-0.9,0.7-2.7,1-3.8c-0.8,0.9-1.7,2.5-2.3,3.3C123.8,42.7,120.2,41.7,116.5,41.3z"/>
		<path style="fill:#181F41;" d="M120.9,41.9c0.3,0.1,0.5,0.1,0.8,0.2"/>
		
			<path style="fill:none;stroke:#31458A;stroke-width:1.2094;stroke-linecap:round;stroke-linejoin:round;stroke-miterlimit:10;" d="
			M124.4,28.1c-3.3-0.9-11.8-0.5-16.5,10.1"/>
		<g>
			<path style="fill:#D91D4F;" d="M124.8,58.4c-0.6,0.8-3.7,1.9-5.6,0.3c-1.9-1.6-1-4.6-0.5-5.4L124.8,58.4z"/>
			<path style="fill:#FFFFFF;" d="M124.6,58.6c0.1-0.1,0.1-0.1,0.2-0.2l-6.1-5.1c-0.2,0.2-0.3,0.6-0.3,1c0,0.2-0.3,0.5-0.1,0.7
				c1.8,1.3,3.9,2.5,5.7,3.7C124.2,58.8,124.4,58.7,124.6,58.6z"/>
			
				<path style="fill:none;stroke:#161F43;stroke-width:1.2094;stroke-linecap:round;stroke-linejoin:round;stroke-miterlimit:10;" d="
				M124.9,57.9c-0.6,0.8-3.4,3-5.5,1.2c-2.4-2-1.1-5-0.6-5.8L124.9,57.9z"/>
		</g>
	</g>
	<g>
		<path style="fill:#FF8891;" d="M57.7,71.2c-1.7,5.4-6.6,16.5-6.6,16.5l-11.9-2c0,0,0.7-26.6,5.5-35.1c2-3.5,10.1-4.5,14.5,0.8
			C63.1,56,58.6,68.4,57.7,71.2z"/>
	</g>
	<path style="fill:#CC197B;" d="M76.4,261.6H45.1c-0.8,0-1.4-0.6-1.4-1.4L43.2,219c0-0.8,0.6-1.4,1.4-1.4h30.1
		c0.8,0,1.4,0.6,1.4,1.4l1.7,41.1C77.9,260.9,77.2,261.6,76.4,261.6z"/>
	<path style="fill:#CC197B;" d="M143.5,261.5l-30.5,4c-0.6,0.1-1.2-0.2-1.5-0.8c-1.8-3.4-7.8-15.5-9.5-20.5
		c-1.6-4.8-4.9-16.9-6-21.1c-0.2-0.8,0.3-1.7,1.1-1.8l31.3-6.1c0.7-0.1,1.5,0.3,1.7,1l14.6,43.5C145,260.5,144.4,261.4,143.5,261.5z
		"/>
	
		<line style="fill:none;stroke:#181F41;stroke-width:1.2094;stroke-linecap:round;stroke-linejoin:round;stroke-miterlimit:10;" x1="74.8" y1="144.8" x2="75.9" y2="165.8"/>
	<g>
		<path style="fill:#FF8891;" d="M138.9,78.3c0,0,4.8-3.5,11.2,1.7c4.9,4,3,7.8,1.4,9.5c-1.5,1.6-5.1,5.7-10.2,2.6
			C136.7,89.2,136.1,83.2,138.9,78.3z"/>
		<path style="fill:#FF8891;" d="M137.2,83.6c0,0-0.4-3.6,0.9-5.9s1.8-1.9,3.2-4.2c1.4-2.4,1.4-3.7,2.5-4.1c1.3-0.5,3.8,2.5,0.5,7.6
			L137.2,83.6z"/>
		<path style="fill:#FF8891;" d="M143.2,78.4c0,0,1.9-4.2,7.8-7.9c4.4-2.7,5.7-3.1,6.4-2.5c1.6,1.4-1.2,2.8-3.8,5.1
			c-1.3,1.1-8.1,7.3-8.1,7.3L143.2,78.4z"/>
		<path style="fill:#FF8891;" d="M145.8,80c0,0,1.9-4.2,7.8-7.9c4.4-2.7,5.7-3.1,6.4-2.5c1.6,1.4-1.2,2.8-3.8,5.1
			c-1.3,1.1-8.1,7.3-8.1,7.3L145.8,80z"/>
		<path style="fill:#FF8891;" d="M146.5,83.1c0,0,1.9-4.2,7.8-7.9c4.4-2.7,5.7-3.1,6.4-2.5c1.6,1.4-1.2,2.8-3.8,5.1
			c-1.3,1.1-8.1,7.3-8.1,7.3L146.5,83.1z"/>
		<path style="fill:#FF8891;" d="M148.3,88.2c0,0,1.1-4.5,6.3-9.1c3.9-3.5,5-4.1,5.9-3.6c1.9,1.1-0.7,3-2.8,5.7
			c-1.1,1.3-5.3,7.3-5.3,7.3L148.3,88.2z"/>
		
			<path style="fill:none;stroke:#181F41;stroke-width:1.2094;stroke-linecap:round;stroke-linejoin:round;stroke-miterlimit:10;" d="
			M147.8,76.8c1.2-1.3,3.3-3.4,5.6-4.8c1.9-1.2,3.2-1.7,4.1-2.1"/>
		
			<path style="fill:none;stroke:#181F41;stroke-width:1.2094;stroke-linecap:round;stroke-linejoin:round;stroke-miterlimit:10;" d="
			M149.7,79.1c1.2-1.2,2.5-2.7,4.5-4.1c2.2-1.6,3.8-2.2,4.7-2.5"/>
		
			<path style="fill:none;stroke:#181F41;stroke-width:1.2094;stroke-linecap:round;stroke-linejoin:round;stroke-miterlimit:10;" d="
			M151.7,81.6c0.7-0.9,1.9-2.1,3-3.1c2.5-2.2,3.7-2.7,4.5-3"/>
		
			<path style="fill:none;stroke:#181F41;stroke-width:1.2094;stroke-linecap:round;stroke-linejoin:round;stroke-miterlimit:10;" d="
			M144.5,86.1c0.8-5.2-1.7-7.7-1.7-7.7s2-2,2.3-2.9"/>
		
			<path style="fill:none;stroke:#181F41;stroke-width:1.2094;stroke-linecap:round;stroke-linejoin:round;stroke-miterlimit:10;" d="
			M146.9,76.3c0,0,2.8,2.2,5,6.2"/>
	</g>
	<path style="fill:none;stroke:#181F41;stroke-width:1.2094;stroke-linecap:round;stroke-linejoin:round;stroke-miterlimit:10;" d="
		M116.7,105.3c0,0,1.8-2.5,10-10.1"/>
	<g>
		<path style="fill:#FF8891;" d="M33.4,96.3c0.5,1.4,13.3,1.9,13.3,1.9s0.2,8.7,4.8,7.5c3.3-0.9-0.1-5.3,0.8-9.2
			c1.1-5.2,0.3-7.9-2.2-9.5s-8.4-3.1-10.6-1.6C37.3,86.8,33,94.9,33.4,96.3z"/>
		<path style="fill:#FF8891;" d="M42,97.4c0,0-1.1,2.3-2.2,4.6c-1.2,2.6-3.7,6.7-1.9,7.4c4.7,1.7,9.6-11.3,9.6-11.3L42,97.4z"/>
		<path style="fill:#FF8891;" d="M38.4,96.7c0,0-1.3,3.1-2.4,5.5c-1.2,2.6-3.7,6.7-1.9,7.4c4.7,1.7,8.8-11.8,8.8-11.8L38.4,96.7z"/>
		<path style="fill:#FF8891;" d="M35.2,96.2c0,0-1.3,3.1-2.4,5.5c-1.2,2.6-3.7,6.7-1.9,7.4c4.7,1.7,8.8-11.8,8.8-11.8L35.2,96.2z"/>
		<path style="fill:#FF8891;" d="M34.1,93.8c0,0-1.4,3.1-2.5,5.5c-1.2,2.6-3.9,6.6-2.1,7.3c4.6,1.8,9.1-11.5,9.1-11.5L34.1,93.8z"/>
		
			<path style="fill:none;stroke:#181F41;stroke-width:1.2094;stroke-linecap:round;stroke-linejoin:round;stroke-miterlimit:10;" d="
			M41.8,98.4c0,0-0.9,2.6-1.9,4.3c-1.1,1.8-3,4.4-2.6,6"/>
		
			<path style="fill:none;stroke:#181F41;stroke-width:1.2094;stroke-linecap:round;stroke-linejoin:round;stroke-miterlimit:10;" d="
			M38.2,97.4c0,0-1.5,3.7-2.4,5.3c-1,1.7-2.8,4.1-2.4,6.1"/>
		
			<path style="fill:none;stroke:#181F41;stroke-width:1.2094;stroke-linecap:round;stroke-linejoin:round;stroke-miterlimit:10;" d="
			M35.2,96.3c0,0-1,2.4-1.6,3.7c-0.6,1.3-2.7,4.8-3.1,6.8"/>
	</g>
	<path style="fill:none;stroke:#181F41;stroke-width:1.2094;stroke-linecap:round;stroke-linejoin:round;stroke-miterlimit:10;" d="
		M57.8,55c0,0,2.3,5,0.8,13.4"/>
</g>
</svg>
