<?xml version="1.0" encoding="utf-8"?>
<!-- Generator: Adobe Illustrator 24.1.1, SVG Export Plug-In . SVG Version: 6.00 Build 0)  -->
<svg version="1.1" id="Layer_1" xmlns="http://www.w3.org/2000/svg" xmlns:xlink="http://www.w3.org/1999/xlink" x="0px" y="0px"
	 viewBox="0 0 230 240" style="enable-background:new 0 0 230 240;" xml:space="preserve">
<g>
	<path style="fill:#FFFFFF;" d="M192.16,114.34c-4.71-3.44-8.33-7.77-12.27-12.35c-1.74-2.02-7.94-9.5-10.57-4.32
		c-0.95,1.88,0.41,4.69,1.07,6.47c1.44,3.86,3.44,7.45,5.88,10.68c2.73,3.62,5.99,6.75,9.57,9.43
		C187.07,121.36,189.1,117.69,192.16,114.34z"/>
	<path style="fill:#0088C5;" d="M211.2,121.53c-0.07-0.01-0.15-0.02-0.22-0.02c-1.93-0.2-3.71-0.51-5.42-0.92
		c-2.44-0.58-4.72-1.38-7.02-2.47c-1.13-0.54-2.27-1.14-3.43-1.82c-1.04-0.61-2.01-1.27-2.95-1.96c-3.07,3.35-5.1,7.02-6.32,9.92
		c1.73,1.3,3.53,2.5,5.4,3.59c5.32,3.1,11.65,6.29,17.93,6.93c3.05,0.31,6.29-0.99,8.13-3.74c0.38-0.57,0.7-1.17,0.93-1.72
		c0.82-2.03,0.83-4.41-0.61-6c-0.29-0.31-0.61-0.55-0.95-0.75C215.1,121.63,213.02,121.74,211.2,121.53z"/>
	<path d="M170.69,96.16c2.99-1.59,7.72,4.11,9.21,5.84c3.94,4.58,7.56,8.91,12.27,12.35c0.94,0.69,1.91,1.35,2.95,1.96
		c1.16,0.68,2.3,1.28,3.43,1.82c2.3,1.09,4.58,1.89,7.02,2.47c1.71,0.41,3.49,0.72,5.42,0.92c0.07,0.01,0.15,0.02,0.22,0.02
		c1.83,0.21,3.9,0.1,5.48,1.04c0.34,0.2,0.66,0.44,0.95,0.75c1.44,1.59,1.42,3.97,0.61,6c-0.23,0.56-0.54,1.15-0.93,1.72
		c-0.8,1.19-1.85,2.11-3.04,2.74c-1.56,0.83-3.35,1.17-5.08,1c-6.27-0.64-12.6-3.82-17.93-6.93c-1.87-1.09-3.67-2.29-5.4-3.59
		c-3.58-2.69-6.84-5.82-9.57-9.43c-2.44-3.23-4.44-6.82-5.88-10.68c-0.66-1.77-2.02-4.59-1.07-6.47
		C169.71,96.92,170.17,96.43,170.69,96.16 M169.2,93.37c-1.12,0.6-2.03,1.57-2.69,2.88c-1.47,2.9-0.18,6.17,0.67,8.33l0.26,0.67
		c1.53,4.1,3.66,7.96,6.32,11.48c2.79,3.69,6.22,7.07,10.2,10.06c1.85,1.39,3.77,2.67,5.71,3.79c5.22,3.04,12.11,6.62,19.2,7.34
		c2.36,0.24,4.8-0.24,6.89-1.35c1.69-0.9,3.14-2.2,4.19-3.77c0.5-0.74,0.92-1.53,1.23-2.3c1.38-3.41,0.92-6.97-1.19-9.31
		c-0.46-0.51-1.01-0.95-1.67-1.34c-1.86-1.11-3.92-1.26-5.58-1.38c-0.4-0.03-0.79-0.05-1.17-0.1l-0.24-0.03
		c-1.74-0.18-3.38-0.46-5.01-0.85c-2.21-0.53-4.31-1.26-6.4-2.25c-1.04-0.49-2.08-1.04-3.19-1.69c-0.82-0.48-1.67-1.04-2.68-1.78
		c-4.16-3.03-7.52-6.95-11.09-11.1l-0.65-0.75l-0.15-0.18C179.8,97.03,174.33,90.64,169.2,93.37L169.2,93.37z"/>
</g>
<g>
	<path style="fill:#FFFFFF;" d="M123.82,29.48c-0.24,1.59-2.77,3.07-4.69,3.27l-0.26,0.01c-2.03,0.07-2.03-1.54-4.08-3.05
		c-0.68-0.5-1.29-0.72-1.84-0.7c-1.98,0.07-3.46,2.99-5.88,6.24c-1.44,1.92-3.59,2.97-5.8,3.04c-1.66,0.06-3.36-0.44-4.8-1.53
		c-3.33-2.52-4.04-7.27-1.57-10.63c4.36-5.95,8.32-10.54,14.93-10.76c0.66-0.02,1.32,0.01,2.01,0.06c2.54,0.23,4.94,1.1,6.87,2.83
		C121.99,21.24,124.51,24.89,123.82,29.48z"/>
	<path style="fill:#683100;" d="M109.96,31.21c-0.89,1.11-1.79,2.54-2.9,4.03c-1.44,1.92-3.59,2.97-5.8,3.04
		c-1.66,0.06-3.36-0.44-4.8-1.53c-3.33-2.52-4.04-7.27-1.57-10.63c1.54-2.13,3.05-4.06,4.66-5.72l0.03,0
		c0.16-0.01,0.29-0.01,0.45,0.01c0.03,0,0.05,0,0.05,0c0.4,0.04,0.74,0.11,1.01,0.18c0.11,0.05,0.21,0.1,0.29,0.12
		c0.19,0.1,0.35,0.17,0.51,0.3c0.08,0.05,0.14,0.1,0.22,0.15c0.03,0,0.03,0.03,0.03,0.03c0.79,0.61,1.32,1.49,1.19,2.49
		c-0.11,0.74-0.48,1.36-0.99,1.83c0.59-0.42,1.32-0.62,2.09-0.52c1.64,0.23,2.83,1.78,2.59,3.45c-0.1,0.82-0.56,1.52-1.15,1.99
		c0.39-0.2,0.81-0.32,1.25-0.33l0.05,0c0.11,0,0.26-0.01,0.37,0.01c0.76-0.03,1.35,0.27,1.79,0.57c0.11,0.05,0.19,0.13,0.24,0.18
		C109.77,31.01,109.9,31.13,109.96,31.21z"/>
	<path d="M120.81,15.92c-2.34-2.11-5.25-3.33-8.69-3.64c-0.82-0.08-1.61-0.1-2.4-0.08c-8.09,0.27-12.83,5.86-17.37,12.03
		c-3.5,4.76-2.49,11.5,2.22,15.03c1.95,1.49,4.35,2.25,6.8,2.17c3.27-0.11,6.27-1.69,8.21-4.31c0.58-0.76,1.11-1.51,1.59-2.22
		c0.6-0.86,1.38-1.97,1.92-2.54c0.38,0.33,0.65,0.64,0.96,1.02c0.8,0.98,2.12,2.62,4.94,2.52c0.13,0,0.29-0.01,0.45-0.04
		c2.73-0.25,6.99-2.32,7.53-5.95C127.7,24.97,125.62,20.24,120.81,15.92z M123.82,29.48c-0.24,1.59-2.77,3.07-4.69,3.27l-0.26,0.01
		c-2.03,0.07-2.03-1.54-4.08-3.05c-0.68-0.5-1.29-0.72-1.84-0.7c-1.08,0.04-2,0.91-2.98,2.21c-0.89,1.11-1.79,2.54-2.9,4.03
		c-1.44,1.92-3.59,2.97-5.8,3.04c-1.66,0.06-3.36-0.44-4.8-1.53c-3.33-2.52-4.04-7.27-1.57-10.63c1.54-2.13,3.05-4.06,4.66-5.72
		l0.03,0c2.85-2.97,6.01-4.9,10.25-5.04c0.66-0.02,1.32,0.01,2.01,0.06c2.54,0.23,4.94,1.1,6.87,2.83
		C121.99,21.24,124.51,24.89,123.82,29.48z"/>
</g>
<g>
	<path style="fill:#FFFFFF;" d="M164.35,14.92c-4.29-2.88-7.51-5.22-11.56-5.05c-1.26,0.05-2.6,0.35-4.1,0.94
		c-2.02,0.85-3.79,2.11-4.9,3.93c-1.95,3.12-2.9,8.67-1.15,12c0.26,0.46,0.61,0.58,1.05,0.56c0.68-0.03,1.56-0.44,2.56-0.64
		c1.93-0.43,1.3-2.19,2.66-3.94c0.55-0.74,1.14-1.05,1.77-1.08c1.55-0.07,3.45,1.65,6.03,3.33c1.22,0.82,2.64,1.15,4.03,1.09
		c1.95-0.08,3.86-0.98,5.09-2.62C167.92,20.68,167.26,16.85,164.35,14.92z"/>
	<path d="M170.09,18.34c-0.42-2.46-1.83-4.64-3.98-6.06l-0.33-0.22l-0.52-0.35c-4.16-2.8-7.77-5.21-12.62-5
		c-1.66,0.07-3.36,0.46-5.15,1.17c-2.83,1.15-5,2.9-6.4,5.18c-2.47,3.96-3.61,10.71-1.25,15.15c0.78,1.5,2.26,2.33,3.98,2.26
		c0.79-0.03,1.55-0.25,2.2-0.46c0.29-0.09,0.57-0.18,0.91-0.25c2.95-0.63,3.67-2.95,4.02-4.05c0.09-0.27,0.17-0.46,0.24-0.64
		c0.54,0.32,1.3,0.87,1.9,1.29c0.16,0.1,0.33,0.22,0.49,0.32c0.44,0.32,0.92,0.65,1.41,0.97c1.71,1.14,3.77,1.69,5.87,1.6
		c3-0.13,5.74-1.54,7.49-3.88C169.91,23.31,170.52,20.83,170.09,18.34z M165.83,23.46c-1.22,1.64-3.14,2.54-5.09,2.62
		c-1.4,0.06-2.81-0.28-4.03-1.09c-1.25-0.82-2.34-1.64-3.29-2.26c-1.03-0.67-1.92-1.11-2.74-1.07c-0.63,0.03-1.23,0.34-1.77,1.08
		c-1.35,1.75-0.72,3.51-2.66,3.94c-0.99,0.2-1.87,0.61-2.56,0.64c-0.45,0.02-0.8-0.1-1.05-0.56c-1.75-3.33-0.8-8.88,1.15-12
		c1.11-1.82,2.88-3.08,4.9-3.93c1.51-0.59,2.84-0.89,4.1-0.94c2.34-0.1,4.41,0.63,6.54,1.83c1.57,0.86,3.2,2,5.02,3.22
		C167.26,16.85,167.92,20.68,165.83,23.46z"/>
	<path style="fill:#683100;" d="M165.83,23.46c-1.22,1.64-3.14,2.54-5.09,2.62c-1.4,0.06-2.81-0.28-4.03-1.09
		c-1.25-0.82-2.34-1.64-3.29-2.26c0.02-0.74,0.79-1.17,1.54-1.52c0.47-0.23,0.99-0.25,1.47-0.19c-0.62-0.21-1.16-0.64-1.45-1.23
		c-0.63-1.24-0.06-2.69,1.23-3.3c0.59-0.29,1.25-0.29,1.87-0.13c-0.56-0.24-1.08-0.59-1.32-1.16c-0.12-0.26-0.15-0.52-0.16-0.76
		c-0.02-0.53,0.17-1.01,0.52-1.47c0,0,0.54-0.87,2.22-1.26c1.57,0.86,3.2,2,5.02,3.22C167.26,16.85,167.92,20.68,165.83,23.46z"/>
</g>
<g>
	<path style="fill-rule:evenodd;clip-rule:evenodd;fill:#009FF8;" d="M105.79,209.04c-1.95,1.54-5.85,2.82-8.18,1.47
		c-0.15-0.1-0.3-0.17-0.45-0.28c-0.37-0.25-0.71-0.55-1.01-0.86c-0.26-0.27-0.48-0.56-0.67-0.88c-0.15-0.2-0.31-0.44-0.44-0.72
		c-0.31-0.57-0.55-1.15-0.75-1.79c-0.21-0.62-0.35-1.26-0.5-1.92c-0.24-1.09-0.41-2.2-0.61-3.2l-2.26-11.54l-0.75-3.75
		c-0.05-0.29-0.06-0.56-0.08-0.82c0.02-0.4,0.08-0.81,0.2-1.17c0.2-0.57,0.48-1.07,0.89-1.53c0.36-0.43,0.83-0.74,1.37-0.97
		c0.23-0.1,0.5-0.17,0.76-0.22l8.21-1.61c0.01-0.02,0.04-0.01,0.05-0.03c3.63-1.37,9.13-3.64,12.82-5.79l0.05,0.07l5.73,8.97
		c-0.75,0.48-1.51,0.94-2.27,1.38c-1.52,0.91-3.11,1.73-4.78,2.53c-0.84,0.38-1.69,0.79-2.55,1.15c-0.16,0.05-0.28,0.13-0.41,0.23
		c-0.65,0.48-0.86,1.39-0.35,2.09c0.03,0.05,0.05,0.07,0.08,0.12c0.67,0.94,1.32,2.41,1.61,4.53c0.04,0.22,0.07,0.46,0.09,0.7
		c0.06,0.56,0.09,1.12,0.1,1.76c0.01,0.04-0.01,0.25-0.01,0.25C111.6,201.81,109.4,206.21,105.79,209.04z"/>
	<path d="M114.86,197.07c-0.02-3.28-0.68-5.65-1.47-7.35c3.01-1.35,5.85-2.92,8.48-4.6l1.75-1.1c0.07-0.05,0.13-0.1,0.2-0.15
		l1.52-1.13c10.25-7.63,16.76-17.51,19.3-29.33c0.63-2.96-0.29-5.9-2.43-7.85c-0.27-0.25-0.56-0.48-0.85-0.68
		c-2.28-1.57-5.2-1.98-7.84-1.11c-2.92,0.94-5.06,3.3-5.7,6.38c-1.69,7.89-6.28,14.52-13.61,19.68c-2.4,1.67-7.18,3.92-13.52,6.34
		l-7.97,1.58c-1.88,0.37-3.5,1.46-4.56,3.04c-1.07,1.6-1.46,3.51-1.07,5.37l0.73,3.77l2.28,11.55c0.07,0.4,0.15,0.81,0.21,1.23
		c0.62,3.37,1.38,7.57,5.07,10.11c0.22,0.15,0.45,0.28,0.68,0.4c3.99,2.3,9.28,0.18,11.7-1.7c4.33-3.41,6.99-8.72,7.09-14.25
		L114.86,197.07z M105.79,209.04c-1.95,1.54-5.85,2.82-8.18,1.47c-0.15-0.1-0.3-0.17-0.45-0.28c-0.37-0.25-0.71-0.55-1.01-0.86
		c-0.26-0.27-0.48-0.56-0.67-0.88c-0.15-0.2-0.31-0.44-0.44-0.72c-0.31-0.57-0.55-1.15-0.75-1.79c-0.21-0.62-0.35-1.26-0.5-1.92
		c-0.24-1.09-0.41-2.2-0.61-3.2l-2.26-11.54l-0.75-3.75c-0.05-0.29-0.06-0.56-0.08-0.82c0.02-0.4,0.08-0.81,0.2-1.17
		c0.18-0.58,0.46-1.09,0.89-1.53c0.36-0.43,0.83-0.74,1.37-0.97c0.23-0.1,0.5-0.17,0.76-0.22l8.21-1.61
		c0.01-0.02,0.04-0.01,0.05-0.03c3.63-1.37,9.13-3.64,12.82-5.79c0.58-0.33,1.12-0.7,1.61-1.04c4.01-2.81,7.26-6.04,9.76-9.66
		c2.48-3.6,4.19-7.58,5.11-11.93c0.42-1.95,1.74-3.41,3.6-4.02c1.72-0.54,3.64-0.27,5.08,0.71c0.17,0.12,0.35,0.28,0.51,0.42
		c1.34,1.21,1.86,2.97,1.48,4.82c-2.24,10.46-7.78,19.25-16.45,26.21c-0.55,0.42-1.09,0.85-1.68,1.28l-1.13,0.85l-0.4,0.3
		l-1.71,1.09c-0.75,0.48-1.51,0.94-2.27,1.38c-1.52,0.91-3.11,1.73-4.78,2.53c-0.84,0.38-1.69,0.79-2.55,1.15
		c-0.16,0.05-0.28,0.13-0.41,0.23c-0.65,0.48-0.86,1.39-0.35,2.09c0.03,0.05,0.05,0.07,0.08,0.12c0.67,0.94,1.32,2.41,1.61,4.53
		c0.04,0.22,0.07,0.46,0.09,0.7c0.06,0.56,0.09,1.12,0.1,1.76c0.01,0.04-0.01,0.25-0.01,0.25
		C111.6,201.81,109.4,206.21,105.79,209.04z"/>
	<path style="fill:#FFFFFF;" d="M125.1,178.95c-0.55,0.42-1.09,0.85-1.68,1.28l-1.13,0.85l-0.4,0.3l-1.71,1.09l-5.73-8.97
		l-0.05-0.07c0.58-0.33,1.12-0.7,1.61-1.04c4.01-2.81,7.26-6.04,9.76-9.66c2.48-3.6,4.19-7.58,5.11-11.93
		c0.42-1.95,1.74-3.41,3.6-4.02c1.72-0.54,3.64-0.27,5.08,0.71c0.17,0.12,0.35,0.28,0.51,0.42c1.34,1.21,1.86,2.97,1.48,4.82
		C139.31,163.19,133.77,171.98,125.1,178.95z"/>
</g>
<g>
	<path style="fill:#FFFFFF;" d="M176.51,173.01l-1.5,1.37c-1.61,1.53-3.48,3.22-5.03,4.61l-1.42,1.26
		c-0.84-0.84-1.32-1.34-1.32-1.34c-6.11-6.3-13.36-13.47-21.79-18.97c-1.66-1.11-2.56-2.82-2.45-4.72c0.13-2.03,1.34-3.9,3.11-4.8
		c0.71-0.37,1.48-0.55,2.21-0.55c1,0,2,0.32,2.9,0.9c8.59,5.64,15.84,12.62,22.53,19.42L176.51,173.01z"/>
	<path style="fill:#0088C5;" d="M209.03,179.02c0.32,3.93-2.98,6.61-5.4,9.09l-8.22,8.43l-1.61,1.63c-0.13,0.13-0.26,0.26-0.42,0.4
		c-1,0.92-2.27,1.34-3.53,1.34c-1.08,0-2.13-0.32-3.03-0.95c-0.26-0.16-0.5-0.34-0.74-0.58l-3.79-3.69l-0.34-0.37l-0.9-0.92
		l-3.45-3.64c-0.87-0.92-1.84-1.92-2.82-2.95c-1.63-1.74-3.32-3.48-4.66-4.9c-0.58-0.63-1.13-1.19-1.55-1.66l1.42-1.26
		c1.55-1.4,3.43-3.08,5.03-4.61l1.5-1.37l0.53,0.53c0.34,0.37,0.71,0.74,1.08,1.11c1.58,1.63,3.19,3.27,4.82,4.9l0.16,0.16
		c0.32,0.32,0.74,0.47,1.16,0.47c0.32,0,0.63-0.08,0.9-0.29c0.13-0.05,0.26-0.16,0.37-0.29c0.11-0.08,0.16-0.18,0.24-0.29
		c0.74-1.27,2-2.74,4.16-4.22c0.03-0.03,0.21-0.13,0.21-0.13c0.63-0.42,1.29-0.79,1.98-1.11c0.69-0.32,1.37-0.58,2.11-0.79
		c0.29-0.11,0.58-0.16,0.9-0.24c1.16-0.29,2.35-0.42,3.53-0.42c0.08,0,0.63,0.03,1.32,0.08c0.32,0.03,0.63,0.05,0.98,0.11
		c0.76,0.11,1.53,0.29,2.27,0.53C205.58,173.86,208.82,176.33,209.03,179.02z"/>
	<path d="M204.16,170.09c-1.77-0.55-3.64-0.84-5.51-0.84c-3.69,0-7.22,1.08-10.25,3.08l-0.24,0.13c-1.66,1.16-3.03,2.4-4.08,3.74
		c-1.61-1.63-3.22-3.24-4.77-4.85l-0.53-0.55l-2.77-2.82c-0.05-0.05-0.11-0.11-0.13-0.13c-6.32-6.43-13.81-13.73-22.93-19.71
		c-1.42-0.92-3.03-1.42-4.64-1.42c-1.26,0-2.48,0.29-3.64,0.9c-2.77,1.4-4.66,4.32-4.82,7.43c-0.18,3.03,1.27,5.85,3.85,7.54
		c8.17,5.35,15.26,12.36,21.27,18.53c0,0,1.53,1.61,3.58,3.74c2.06,2.16,4.64,4.88,6.75,7.12l3.45,3.61l0.9,0.95l0.42,0.45
		l3.79,3.69c1.61,1.55,3.72,2.42,5.98,2.42c2.32,0,4.48-0.92,6.11-2.58l1.71-1.74l8.22-8.43c0.26-0.29,0.58-0.58,0.87-0.87
		c2.45-2.45,5.82-5.77,5.43-10.7C211.83,174.17,207.06,171.01,204.16,170.09z M203.63,188.11l-8.22,8.43l-1.61,1.63
		c-0.13,0.13-0.26,0.26-0.42,0.4c-1,0.92-2.27,1.34-3.53,1.34c-1.08,0-2.13-0.32-3.03-0.95c-0.26-0.16-0.5-0.34-0.74-0.58
		l-3.79-3.69l-0.34-0.37l-0.9-0.92l-3.45-3.64c-0.87-0.92-1.84-1.92-2.82-2.95c-1.63-1.74-3.32-3.48-4.66-4.9
		c-0.58-0.63-1.13-1.19-1.55-1.66c-0.84-0.84-1.32-1.34-1.32-1.34c-6.11-6.3-13.36-13.47-21.79-18.97
		c-1.66-1.11-2.56-2.82-2.45-4.72c0.13-2.03,1.34-3.9,3.11-4.8c0.71-0.37,1.48-0.55,2.21-0.55c1,0,2,0.32,2.9,0.9
		c8.59,5.64,15.84,12.62,22.53,19.42l2.77,2.82l0.53,0.53c0.34,0.37,0.71,0.74,1.08,1.11c1.58,1.63,3.19,3.27,4.82,4.9l0.16,0.16
		c0.32,0.32,0.74,0.47,1.16,0.47c0.32,0,0.63-0.08,0.9-0.29c0.13-0.08,0.24-0.16,0.37-0.29c0.11-0.08,0.16-0.18,0.24-0.29
		c0.74-1.27,2-2.74,4.16-4.22c0.03-0.03,0.21-0.13,0.21-0.13c0.63-0.42,1.29-0.79,1.98-1.11c0.69-0.32,1.37-0.58,2.11-0.79
		c0.29-0.11,0.58-0.16,0.9-0.24c1.16-0.29,2.35-0.42,3.53-0.42c0.08,0,0.63,0.03,1.32,0.08c0.32,0.03,0.63,0.05,0.98,0.11
		c0.76,0.11,1.53,0.29,2.27,0.53c2.37,0.74,5.61,3.22,5.82,5.9C209.35,182.95,206.06,185.64,203.63,188.11z"/>
</g>
<g>
	<path d="M140.62,25.19c9.48,0,19.31,3.56,27.31,8.55c7.15,4.47,12.2,12.81,14.96,20.65c0.17,0.47,0.29,0.94,0.44,1.42
		c0.31,0.8,0.6,1.6,0.87,2.4c3.16,9.54,1.78,17.99-0.55,27.65c-0.51,2.1-4.31,12.39-4.36,12.88c-1,5.61,2.13,12.32,3.13,17.78
		c1.85,10.16,2.52,20.69-1.39,30.49c-5.34,13.35-18.7,18.51-32.11,19.9c-1.61,0.17-3.23,0.27-4.84,0.3c-0.02,0-0.04,0-0.06,0
		c-0.02,0-0.05,0-0.07,0c-0.02,0-0.04,0-0.06,0l-3.29,0.07c-0.45,0.01-0.91,0.01-1.37,0.01c-1.18,0-2.38-0.03-3.55-0.1
		c-11.09-0.66-23.42-4.52-30.66-13.45c-5.24-6.46-7.53-17.4-7.28-25.62c0.2-6.41,1.94-12.67,2.92-18.98
		c0.38-2.47,1.22-4.9,0.94-7.39c-0.06-0.52-0.16-1.04-0.25-1.56c-0.44-1.11-3.75-9.47-4.63-12.68c-2.5-7.29-3.38-15-2.53-22.85
		c0.89-8.26,3.9-17.54,9.84-23.52c7.63-7.69,18.05-14.07,28.77-15.29c0,0,0.08-0.01,0.19-0.03l3.44-0.4
		C137.82,25.26,139.22,25.19,140.62,25.19 M140.62,22.02c-1.55,0-3.08,0.09-4.56,0.26l-3.43,0.39l-0.26,0.03
		c-10.36,1.17-21.54,7.08-30.59,16.19c-5.71,5.75-9.62,15.01-10.74,25.41c-0.89,8.24,0,16.36,2.66,24.13
		c0.75,2.68,2.9,8.32,4.6,12.62c0.07,0.36,0.12,0.7,0.16,1.04c0.14,1.26-0.16,2.71-0.48,4.25c-0.16,0.77-0.32,1.53-0.44,2.31
		c-0.31,2.02-0.72,4.1-1.11,6.11c-0.84,4.28-1.7,8.7-1.84,13.25c-0.26,8.56,2.1,20.45,7.98,27.71c6.84,8.45,18.85,13.78,32.93,14.62
		c1.21,0.07,2.46,0.11,3.74,0.11c0.48,0,0.96-0.01,1.44-0.02l3.29-0.07c0,0,0.19,0,0.19,0c1.71-0.04,3.42-0.14,5.1-0.32
		c17.73-1.83,29.73-9.4,34.72-21.87c4.53-11.34,3.22-23.18,1.57-32.23c-0.34-1.89-0.92-3.88-1.47-5.81
		c-1.08-3.76-2.19-7.65-1.68-10.75c0.16-0.53,0.83-2.42,1.42-4.09c1.52-4.29,2.61-7.43,2.92-8.7c2.27-9.4,4.01-18.71,0.48-29.39
		c-0.27-0.81-0.57-1.63-0.88-2.44l-0.14-0.44c-0.1-0.33-0.2-0.66-0.31-0.98c-3.47-9.87-9.4-18-16.26-22.29
		C160.29,25.23,149.99,22.02,140.62,22.02L140.62,22.02z"/>
	<path style="fill:#009FF9;" d="M179.29,98.74c0.05-0.49,3.85-10.79,4.36-12.88c2.33-9.66,3.71-18.11,0.55-27.65
		c-0.26-0.8-0.56-1.6-0.87-2.4c-0.15-0.47-0.28-0.94-0.44-1.42c-2.76-7.84-7.81-16.19-14.96-20.65c-9.19-5.74-20.79-9.58-31.5-8.31
		l-3.44,0.4c-0.12,0.01-0.19,0.03-0.19,0.03c-10.72,1.21-21.14,7.6-28.77,15.29c-5.94,5.98-8.95,15.26-9.84,23.52
		c-0.85,7.86,0.03,15.56,2.54,22.85c0.87,3.21,4.19,11.57,4.63,12.68c0.09,0.52,0.19,1.03,0.25,1.56c0.28,2.49-0.55,4.92-0.94,7.39
		c-0.98,6.31-2.72,12.57-2.92,18.98c-0.25,8.22,2.04,19.16,7.28,25.62c7.24,8.93,19.57,12.79,30.66,13.45
		c1.61,0.1,3.3,0.12,4.91,0.09l3.29-0.07c0.06,0,0.13,0,0.19,0c1.62-0.04,3.23-0.13,4.84-0.3c13.41-1.39,26.77-6.55,32.11-19.9
		c3.92-9.8,3.25-20.33,1.39-30.49C181.43,111.06,178.29,104.36,179.29,98.74z"/>
</g>
<path style="fill:#009FF8;" d="M136.43,25.43c0,0-0.08,0.01-0.2,0.02L136.43,25.43z"/>
<g>
	<g>
		<path style="fill-rule:evenodd;clip-rule:evenodd;fill:#FFFFFF;" d="M190.3,87.77c-5.22,6.98-15.86,11.99-28.44,13.39
			c-31.15,3.43-47.73-5.27-50.63-26.59c-0.4-3-2-18.61,6.77-29.75c5.27-6.69,13.33-10.65,23.98-11.75c2.42-0.26,4.66-0.37,6.8-0.37
			c30.33,0,33.68,23.67,33.81,24.75c0.08,0.66,0.58,1.19,1.21,1.34c0.34,0.08,8.35,2.03,10.12,12.12
			C195.1,77.34,193.86,83,190.3,87.77z"/>
		<path d="M197.07,70.35c-1.79-10.01-8.8-13.41-11.49-14.34c-1.08-5.48-7.88-29.86-43.91-26.12c-11.54,1.21-20.34,5.56-26.14,12.94
			c-9.33,11.86-8.04,27.62-7.43,32.15c2.74,20.16,16.29,30.07,41.24,30.07c4.01,0,8.3-0.26,12.89-0.76
			c13.6-1.5,24.77-6.85,30.62-14.65C196.94,84.19,198.36,77.68,197.07,70.35z M111.24,74.57c-0.4-3-2-18.61,6.77-29.75
			c5.27-6.69,13.33-10.65,23.98-11.75c2.42-0.26,4.66-0.37,6.8-0.37c30.33,0,33.68,23.67,33.81,24.75c0.08,0.66,0.58,1.19,1.21,1.34
			c0.34,0.08,8.35,2.03,10.12,12.12c1.16,6.43-0.08,12.1-3.64,16.87c-5.22,6.98-15.86,11.99-28.44,13.39
			C130.71,104.59,114.14,95.89,111.24,74.57z"/>
	</g>
	<path style="fill-rule:evenodd;clip-rule:evenodd;fill:#FFBEB8;" d="M157.47,75.8c0.39,6.45-4.26,11.97-10.38,12.34
		c-6.12,0.37-11.39-4.56-11.78-11.01c-0.39-6.44,4.26-11.97,10.38-12.34C151.8,64.43,157.08,69.36,157.47,75.8"/>
	<path style="fill-rule:evenodd;clip-rule:evenodd;fill:#FFBEB8;" d="M193.45,69.62c-0.58-2.19-3.29-9.49-6.83-6.8
		c-4.77,3.63-2.4,12.65,0.06,17.11c0.97,1.76,2.7,3.8,5.07,3.32c1.34-0.27,1.79-2.82,1.96-3.69
		C194.32,76.29,194.32,72.85,193.45,69.62z"/>
</g>
<g>
	<path style="fill-rule:evenodd;clip-rule:evenodd;" d="M176.28,69.24c0.05,0.84-0.79,1.57-1.9,1.64c-1.11,0.07-2.04-0.56-2.09-1.4
		c-0.05-0.83,0.8-1.57,1.91-1.64C175.3,67.77,176.23,68.4,176.28,69.24"/>
	<path style="fill-rule:evenodd;clip-rule:evenodd;" d="M179,67.25L179,67.25c-1.15,0.07-2.15-1-2.23-2.4l-0.02-0.35
		c-0.08-1.39,0.78-2.58,1.93-2.65s2.15,1,2.24,2.4l0.02,0.35C181.02,66,180.15,67.18,179,67.25"/>
	<path style="fill-rule:evenodd;clip-rule:evenodd;" d="M161.17,68.33L161.17,68.33c-1.35,0.08-2.52-0.98-2.6-2.37l-0.02-0.35
		c-0.08-1.39,0.94-2.59,2.3-2.67c1.35-0.08,2.52,0.98,2.6,2.37l0.02,0.35C163.56,67.05,162.53,68.25,161.17,68.33"/>
	<path style="fill:#231815;" d="M183.38,72.19c-0.41-0.61-1.23-0.77-1.83-0.37c-0.61,0.4-0.77,1.22-0.37,1.83
		c0.05,0.08,0.16,0.25-0.27,0.8c-0.88,1.14-2.19,1.32-2.79,1.31c-1.25,0-2.45-0.56-3.16-1.45c-0.05-0.07-0.12-0.1-0.18-0.16
		c-0.05-0.05-0.09-0.11-0.15-0.15c-0.01-0.01-0.02-0.01-0.03-0.01c-0.1-0.06-0.2-0.09-0.31-0.12c-0.06-0.02-0.11-0.05-0.17-0.05
		c-0.11-0.02-0.21,0-0.32,0.01c-0.06,0.01-0.12,0-0.18,0.01c-0.09,0.02-0.16,0.07-0.25,0.11c-0.08,0.04-0.15,0.06-0.22,0.11
		c-0.01,0.01-0.03,0.01-0.04,0.02c-0.07,0.05-0.11,0.13-0.16,0.19c-0.05,0.05-0.1,0.09-0.14,0.15c-1.78,2.82-6.95,3.66-10.23,1.66
		c-0.77-0.46-1.21-0.87-1.4-1.1c0.22-0.52,0.1-1.14-0.36-1.53c-0.55-0.47-1.38-0.4-1.86,0.15c-0.41,0.48-0.58,1.08-0.48,1.69
		c0.16,1.02,1.08,2.04,2.72,3.04c1.67,1.01,3.62,1.49,5.56,1.49c2.77,0,5.49-0.99,7.27-2.78c1.14,0.86,2.57,1.35,4.08,1.35
		c0.01,0,0.02,0,0.02,0c1.94-0.01,3.71-0.86,4.85-2.33C184.38,74.28,183.83,72.87,183.38,72.19z"/>
</g>
<g>
	<path style="fill:#F8716F;" d="M181.95,115.36c-0.18,1.58-0.42,3.24-0.76,4.95c0,0.03,0,0.05-0.03,0.08
		c-0.34,1.71-0.79,3.51-1.34,5.35c-0.37,1.24-0.79,2.48-1.27,3.74c-0.42,1.21-0.92,2.45-1.48,3.69l-21.79-15.36
		c0.03-0.4,0.05-0.82,0.05-1.26l20.95,6.75c0.13,0.03,0.26,0.05,0.4,0.05c0.55,0,1.08-0.34,1.24-0.9c0.24-0.71-0.13-1.45-0.84-1.66
		l-21.21-6.83c-0.18-0.05-0.37-0.08-0.55-0.05c-0.03-0.76-0.11-1.58-0.21-2.4l23.06-2.93c0.71-0.08,1.24-0.74,1.13-1.48
		c-0.08-0.71-0.76-1.21-1.48-1.13l-23.16,2.93c-0.24-1.08-0.55-2.19-0.98-3.29l20.92-11.83c0.63-0.37,0.84-1.16,0.5-1.79
		c-0.37-0.63-1.19-0.87-1.79-0.5l-20.69,11.67c-0.4-0.82-0.84-1.63-1.4-2.42l12.54-18.5c0.4-0.58,0.26-1.42-0.34-1.82
		c-0.61-0.4-1.42-0.26-1.84,0.34l-12.02,17.71c-0.34-0.4-0.69-0.76-1.05-1.16l0.03-0.03l5.46-21.74c0.18-0.69-0.24-1.42-0.95-1.58
		c-0.71-0.18-1.42,0.24-1.61,0.95l-4.69,18.68l-0.45,1.74c-0.55-0.47-1.19-0.92-1.82-1.34l2.35-28.46c0.34,0.08,0.71,0.13,1.05,0.24
		c0.03,0,0.03,0,0.05,0.03c0.71,0.13,1.42,0.32,2.08,0.5c0.71,0.18,1.37,0.37,2.03,0.58c0.76,0.24,1.53,0.5,2.27,0.76
		c0.53,0.21,1.08,0.42,1.61,0.63c0.61,0.24,1.19,0.5,1.77,0.79c0.58,0.26,1.13,0.53,1.69,0.82c0.55,0.29,1.08,0.58,1.61,0.87
		c0.53,0.32,1.03,0.61,1.53,0.92c0.5,0.32,0.98,0.63,1.45,0.95c0.55,0.4,1.11,0.79,1.63,1.19c0.66,0.5,1.26,1,1.87,1.53
		c0.61,0.53,1.19,1.05,1.74,1.58c0.29,0.26,0.55,0.53,0.82,0.82c2.37,2.4,4.16,4.8,5.51,6.93c0.21,0.32,0.4,0.61,0.58,0.92
		c0.76,1.24,1.34,2.37,1.79,3.32c0.21,0.45,0.4,0.84,0.55,1.19c0.11,0.24,0.18,0.45,0.26,0.63c0.11,0.26,0.18,0.5,0.24,0.66
		c0.05,0.11,0.08,0.18,0.11,0.26c0,0.03,0.03,0.05,0.03,0.11c0.16,0.37,0.55,1.27,0.98,2.61c0.18,0.53,0.37,1.13,0.55,1.82
		s0.37,1.45,0.55,2.27c0.11,0.4,0.18,0.82,0.26,1.26C182.18,103.72,182.66,109.07,181.95,115.36z"/>
	<path style="fill:#D49166;" d="M144.84,62.92c-0.01,0-0.01,0.01-0.01,0.02c-0.05-0.06-0.08-0.15-0.14-0.2
		C144.73,62.79,144.79,62.84,144.84,62.92z"/>
	<path style="fill:#ECAA52;" d="M178.1,138.63l-1.5,3.08c-0.13,0.29-0.37,0.47-0.61,0.53c-0.18,0.05-0.37,0-0.53-0.16l-38.5-31.23
		c-0.45-0.37-0.61-1.13-0.32-1.71c0.13-0.29,0.34-0.47,0.58-0.55c0.03,0,0.08-0.03,0.13-0.03c0.13,0,0.26,0.05,0.37,0.13
		l40.03,28.15C178.23,137.19,178.39,138.03,178.1,138.63z"/>
	<path style="fill:#D49166;" d="M144.84,62.92c-0.32,0.24-0.47,0.58-0.53,0.95l-2.53,30.62l-0.03,0.24l-0.66,4.69l-0.63,4.64
		l-2.21-40.37c0-0.55,0.21-1.08,0.58-1.42c0.16-0.13,0.4-0.29,0.71-0.29h0.11l4.4,0.45c0.24,0.03,0.45,0.13,0.63,0.32
		C144.73,62.79,144.79,62.84,144.84,62.92z"/>
	<path style="fill:#BE723F;" d="M142.07,118.42l-0.05,0.47c-0.53-0.16-1.19-0.4-1.87-0.76c-0.26-0.11-0.53-0.26-0.76-0.42
		c-0.45-0.24-0.9-0.55-1.29-0.95c-0.11-0.08-0.21-0.18-0.29-0.26c-0.05-0.05-0.11-0.11-0.13-0.16c-0.18-0.16-0.34-0.34-0.47-0.53
		c-0.24-0.29-0.45-0.63-0.63-0.98c-0.08-0.13-0.16-0.29-0.21-0.45c-0.13-0.26-0.24-0.55-0.32-0.84L142.07,118.42z"/>
	<path style="fill:#ECAA52;" d="M151.06,114.86c0-0.03,0-0.03,0-0.05c-0.05-0.58-0.13-1.16-0.24-1.77
		c-0.18-1.21-0.47-2.48-0.87-3.77c0-0.05-0.03-0.13-0.08-0.21c-0.18-0.63-0.4-1.26-0.66-1.9c-0.32-0.82-0.71-1.63-1.16-2.45
		c-0.21-0.4-0.42-0.79-0.69-1.16c-0.05-0.13-0.13-0.26-0.24-0.4c-0.37-0.58-0.79-1.16-1.21-1.71c-0.45-0.58-0.95-1.11-1.45-1.66
		c-0.13-0.16-0.29-0.32-0.45-0.47c-0.08-0.08-0.13-0.13-0.21-0.21l0.29-2.16c0.03,0.03,0.08,0.05,0.11,0.08
		c1.74,1.32,3.14,2.74,4.27,4.27c0.05,0.11,0.11,0.18,0.18,0.26c3.56,4.95,4.22,10.57,4.11,14.52L151.06,114.86z"/>
	<path style="fill:#D57430;" d="M148.11,112.81l-2.48-1.74l-2.13-5.4l0.21-2.69c0.63,0.79,1.21,1.61,1.69,2.42
		c0.26,0.4,0.5,0.82,0.69,1.24c0.21,0.42,0.42,0.82,0.58,1.24c0.37,0.84,0.66,1.69,0.9,2.5c0.16,0.53,0.29,1.08,0.4,1.58
		C148,112.25,148.05,112.54,148.11,112.81z"/>
	<path d="M181.52,90.72c-0.92-2.58-8.64-22.51-33.76-27.7c-0.42-1.77-1.77-3.06-3.45-3.24l-4.4-0.45c-1.05-0.11-2.06,0.26-2.85,0.98
		c-0.92,0.82-1.45,2.06-1.45,3.45l2.32,42.24c-0.47-0.11-0.95-0.08-1.4,0.05c-1,0.26-1.82,0.98-2.29,1.98
		c-0.21,0.45-0.34,0.92-0.34,1.4c-0.08,0.03-0.13,0.05-0.18,0.11c-0.29,0.21-0.47,0.55-0.53,0.92c-0.69,7.7,6.11,10.8,9.83,11.38
		h0.18c0.32,0,0.58-0.11,0.82-0.29c0.29-0.21,0.47-0.55,0.5-0.92l0.03-0.21l29.25,23.72c0.61,0.5,1.32,0.76,2.08,0.76
		c0.24,0,0.45-0.03,0.69-0.08c1.03-0.24,1.9-0.95,2.4-1.95l1.5-3.11c0.84-1.77,0.32-3.98-1.21-5.06
		C189.83,111.15,182.55,93.07,181.52,90.72z M138.83,62.26c0.16-0.13,0.4-0.29,0.71-0.29h0.11l4.4,0.45
		c0.24,0.03,0.45,0.13,0.63,0.32c0.05,0.05,0.08,0.13,0.13,0.21c-0.29,0.24-0.45,0.55-0.5,0.92l-2.53,30.62l-0.03,0.24l-0.66,4.69
		l-0.63,4.64l-2.21-40.37C138.25,63.13,138.46,62.6,138.83,62.26z M143.5,105.67l0.21-2.66c0.63,0.79,1.21,1.58,1.69,2.4
		c0.26,0.4,0.5,0.82,0.69,1.24c0.03,0.08,0.08,0.16,0.11,0.21c0.18,0.34,0.34,0.69,0.47,1.03c0.37,0.84,0.66,1.69,0.9,2.5
		c0.16,0.53,0.29,1.08,0.4,1.58c0.05,0.29,0.11,0.58,0.16,0.84l-2.24-1.55l-0.24-0.18l-2.06-5.14v-0.03L143.5,105.67z
		 M151.06,114.86c0-0.03,0-0.03,0-0.05c-0.05-0.58-0.13-1.16-0.24-1.77c-0.18-1.21-0.47-2.48-0.87-3.77c0-0.05-0.03-0.13-0.08-0.21
		c-0.18-0.63-0.4-1.26-0.66-1.9c-0.32-0.82-0.71-1.63-1.16-2.45c-0.21-0.4-0.42-0.79-0.69-1.16c-0.05-0.13-0.13-0.26-0.24-0.4
		c-0.24-0.37-0.5-0.74-0.74-1.11c-0.16-0.21-0.32-0.4-0.47-0.61c-0.45-0.58-0.95-1.11-1.45-1.66c-0.13-0.16-0.29-0.32-0.45-0.47
		c-0.05-0.05-0.11-0.11-0.16-0.16c-0.03-0.03-0.03-0.03-0.05-0.05l0.08-0.5v-0.05l0.21-1.61c0.03,0.03,0.08,0.05,0.11,0.08
		c0.84,0.63,1.61,1.29,2.29,1.98c0.74,0.74,1.4,1.5,1.98,2.29c0.05,0.11,0.11,0.18,0.18,0.26c3.56,4.95,4.22,10.57,4.11,14.52
		L151.06,114.86z M142.02,118.9c-0.53-0.16-1.19-0.4-1.87-0.76c-0.26-0.11-0.5-0.24-0.76-0.42c-0.45-0.24-0.9-0.55-1.29-0.95
		c-0.11-0.08-0.21-0.16-0.29-0.26c-0.05-0.05-0.11-0.11-0.13-0.16c-0.18-0.16-0.34-0.34-0.47-0.53c-0.24-0.29-0.45-0.63-0.63-0.98
		c-0.08-0.13-0.16-0.29-0.21-0.45c-0.13-0.26-0.24-0.55-0.32-0.84l6.03,4.88L142.02,118.9z M178.1,138.63l-1.5,3.08
		c-0.13,0.29-0.37,0.47-0.61,0.53c-0.18,0.05-0.37,0-0.53-0.16l-27.17-22.03l-3.48-2.85l-2.45-2l-1.29-1.03l-0.61-0.47l-1.05-0.87
		l-0.13-0.11l-0.45-0.37l-1.87-1.5c-0.34-0.26-0.5-0.76-0.45-1.24c0-0.16,0.05-0.32,0.13-0.47c0.13-0.29,0.34-0.47,0.58-0.55
		c0.03,0,0.08-0.03,0.13-0.03c0.13,0,0.26,0.05,0.37,0.13l0.37,0.26l1.55,1.08l0.32,0.21l0.9,0.66l0.24,0.16l0.82,0.58l0.03,0.03
		l0.13,0.08l1.37,0.98l1.03,0.71l0.61,0.42l3.43,2.42l1.37,0.95l1.29,0.92h0.03l1.37,0.98l1.19,0.84l0.76,0.53l0.03,0.03l0.4,0.26
		l21.03,14.78l1.79,1.26c0.13,0.11,0.24,0.24,0.32,0.4C178.28,137.63,178.31,138.19,178.1,138.63z M178.55,129.49
		c-0.42,1.21-0.92,2.45-1.48,3.69l-21.79-15.36c0.03-0.4,0.05-0.82,0.05-1.26l20.95,6.75c0.13,0.03,0.26,0.05,0.4,0.05
		c0.55,0,1.08-0.34,1.24-0.9c0.24-0.71-0.13-1.45-0.84-1.66l-21.21-6.83c-0.18-0.05-0.37-0.08-0.55-0.05
		c-0.03-0.76-0.11-1.58-0.21-2.4l23.06-2.93c0.71-0.08,1.24-0.74,1.13-1.48c-0.08-0.71-0.76-1.21-1.48-1.13l-23.16,2.93
		c-0.24-1.08-0.55-2.19-0.98-3.29l20.92-11.83c0.63-0.37,0.84-1.16,0.5-1.79c-0.37-0.63-1.19-0.87-1.79-0.5l-20.69,11.67
		c-0.4-0.82-0.84-1.63-1.4-2.42l12.54-18.5c0.4-0.58,0.26-1.42-0.34-1.82c-0.61-0.4-1.42-0.26-1.84,0.34l-12.02,17.71
		c-0.34-0.4-0.69-0.76-1.05-1.16l0.03-0.03l5.46-21.74c0.18-0.69-0.24-1.42-0.95-1.58c-0.71-0.18-1.42,0.24-1.61,0.95l-4.69,18.68
		l-0.45,1.74c-0.55-0.47-1.19-0.92-1.82-1.34l2.35-28.46c0.34,0.08,0.71,0.13,1.05,0.24c0.03,0,0.03,0,0.05,0.03
		c0.71,0.13,1.42,0.32,2.08,0.5c0.71,0.18,1.37,0.37,2.03,0.58c0.76,0.24,1.53,0.5,2.27,0.76c0.53,0.21,1.08,0.42,1.61,0.63
		c0.61,0.24,1.19,0.5,1.77,0.79c0.58,0.26,1.13,0.53,1.69,0.82c0.55,0.29,1.08,0.58,1.61,0.87c0.53,0.32,1.03,0.61,1.53,0.92
		c0.5,0.32,0.98,0.63,1.45,0.95c0.55,0.4,1.11,0.79,1.63,1.19c0.66,0.5,1.26,1,1.87,1.53c0.61,0.53,1.19,1.05,1.74,1.58
		c0.29,0.26,0.55,0.53,0.82,0.82c2.37,2.4,4.16,4.8,5.51,6.93c0.21,0.32,0.4,0.63,0.58,0.92c0.76,1.24,1.34,2.37,1.79,3.32
		c0.21,0.45,0.4,0.84,0.55,1.19c0.11,0.24,0.18,0.45,0.26,0.63c0.11,0.26,0.18,0.5,0.24,0.66c0.05,0.11,0.08,0.18,0.11,0.26
		c0,0.03,0.03,0.05,0.03,0.11c0.16,0.37,0.55,1.27,0.98,2.61c0.18,0.53,0.37,1.13,0.55,1.82s0.4,1.45,0.55,2.27
		c0.11,0.4,0.18,0.82,0.26,1.26c0.76,4.03,1.24,9.36,0.53,15.65c-0.16,1.58-0.4,3.24-0.76,4.95c0,0.03,0,0.05-0.03,0.08
		c-0.32,1.71-0.76,3.51-1.34,5.35C179.44,126.99,179.05,128.23,178.55,129.49z"/>
</g>
<g>
	<path style="fill:#FFFFFF;" d="M124.78,107.33c-5.38-0.9-10.39-3.15-15.77-5.48c-2.38-1.03-10.98-4.93-10.33,1.11
		c0.23,2.19,2.72,4.14,4.15,5.45c3.09,2.87,6.47,5.22,10,7.02c3.96,2.02,8.07,3.34,12.2,4.09
		C124.48,116.25,124.15,111.89,124.78,107.33z"/>
	<path style="fill:#0088C5;" d="M143.09,104.79c-0.06,0.03-0.12,0.06-0.18,0.08c-1.59,0.74-3.11,1.32-4.63,1.76
		c-2.17,0.64-4.34,1-6.66,1.1c-1.15,0.05-2.33,0.04-3.57-0.02c-1.11-0.06-2.19-0.21-3.27-0.39c-0.64,4.57-0.31,8.93,0.24,12.19
		c2,0.36,4,0.61,6,0.71c5.69,0.3,12.18,0.19,17.33-2.24c2.5-1.19,4.32-3.94,4.32-7.36c0-0.71-0.06-1.41-0.18-2.04
		c-0.41-2.27-1.63-4.47-3.55-5.24c-0.38-0.15-0.75-0.21-1.11-0.24C146.14,103,144.6,104.1,143.09,104.79z"/>
	<path d="M101.54,99.65c2.55,0,6.08,1.59,7.48,2.19c5.38,2.33,10.38,4.58,15.77,5.48c1.07,0.18,2.16,0.33,3.27,0.39
		c0.71,0.04,1.4,0.06,2.08,0.06c0.51,0,1-0.01,1.5-0.03c2.32-0.11,4.49-0.46,6.66-1.1c1.52-0.45,3.04-1.02,4.63-1.76
		c0.06-0.03,0.12-0.06,0.18-0.08c1.44-0.66,2.9-1.68,4.51-1.68c0.08,0,0.16,0,0.24,0.01c0.36,0.02,0.73,0.08,1.11,0.24
		c1.92,0.77,3.13,2.97,3.55,5.24c0.11,0.62,0.18,1.32,0.18,2.04c0,3.42-1.82,6.18-4.32,7.36c-3.93,1.86-8.65,2.36-13.19,2.36
		c-1.41,0-2.8-0.05-4.14-0.12c-1.99-0.1-4-0.35-6-0.71c-4.13-0.75-8.24-2.07-12.2-4.09c-3.53-1.8-6.91-4.16-10-7.02
		c-1.42-1.32-3.91-3.26-4.15-5.45C98.41,100.45,99.73,99.65,101.54,99.65 M101.54,96.49L101.54,96.49c-2.47,0-3.89,1.01-4.65,1.85
		c-0.77,0.86-1.63,2.41-1.36,4.95c0.33,3.12,2.9,5.42,4.59,6.94l0.55,0.5c3.27,3.03,6.87,5.56,10.72,7.52
		c4.05,2.07,8.45,3.54,13.07,4.39c2.16,0.39,4.31,0.65,6.4,0.76c1.57,0.08,2.98,0.12,4.31,0.12c6,0,10.75-0.87,14.54-2.67
		c3.78-1.79,6.13-5.71,6.13-10.22c0-0.89-0.08-1.79-0.23-2.6c-0.67-3.65-2.71-6.5-5.48-7.61c-0.65-0.26-1.33-0.41-2.09-0.46
		c-0.15-0.01-0.3-0.01-0.45-0.01c-1.98,0-3.6,0.84-4.9,1.51c-0.31,0.16-0.62,0.32-0.92,0.46l-0.2,0.09
		c-1.4,0.66-2.77,1.18-4.18,1.59c-1.92,0.56-3.85,0.88-5.91,0.98c-0.44,0.02-0.89,0.03-1.35,0.03c-0.62,0-1.25-0.02-1.91-0.05
		c-0.85-0.05-1.78-0.16-2.92-0.35c-4.71-0.79-9.29-2.78-14.15-4.88l-0.89-0.38l-0.21-0.09C108.3,98.09,104.63,96.49,101.54,96.49
		L101.54,96.49L101.54,96.49z"/>
</g>
</svg>
