<?xml version="1.0" encoding="utf-8"?>
<!-- Generator: Adobe Illustrator 26.5.0, SVG Export Plug-In . SVG Version: 6.00 Build 0)  -->
<svg version="1.1" id="레이어_1" xmlns="http://www.w3.org/2000/svg" xmlns:xlink="http://www.w3.org/1999/xlink" x="0px"
	 y="0px" viewBox="0 0 153 237" style="enable-background:new 0 0 153 237;" xml:space="preserve">
<g>
	<path style="fill:#595959;" d="M72.1,233c6,2.6,13.3,2.5,18.3,1.9c5.2-0.6,9.2-1.8,9.6-1.9c0.4-0.2,5.4-3,2.9-10.8
		c-1.3-4.2-5.2-6.5-8.3-7.7c-3.3-1.3-6.4-1.6-6.4-1.6c-0.2,0-0.3-0.1-0.3-0.3l-5.4-36.9l-16.2,3.6c0.3,4.5,3.1,48.4,3.1,50.2
		C69.3,230.8,71.3,232.5,72.1,233z"/>
	<path d="M84.5,236.1c-4.1,0-8.7-0.6-12.8-2.3l-0.1,0l-0.1,0c-0.3-0.2-3.1-2.3-3.1-4.3c0-1.5-1.9-32.2-3.1-50.2l0-0.7l17.7-3.9
		l5.4,37.5c0.9,0.1,3.5,0.5,6.3,1.7c3.2,1.3,7.3,3.7,8.8,8.2c2.7,8.4-2.7,11.4-3.3,11.7l-0.1,0.1c-0.4,0.1-4.4,1.3-9.7,2
		C88.7,235.9,86.6,236.1,84.5,236.1z M72.5,232.4c5.9,2.5,12.9,2.4,17.8,1.8c4.9-0.6,8.7-1.7,9.4-1.9c0.7-0.4,4.7-2.9,2.5-9.8
		c-1.2-3.9-4.9-6.1-7.8-7.2c-3.2-1.3-6.2-1.6-6.2-1.6c-0.5-0.1-1-0.5-1-1l-5.2-36.1l-14.7,3.2c0.5,7.3,3,47.8,3,49.6
		C70.1,230.2,71.5,231.6,72.5,232.4z M88.2,212.1C88.2,212.1,88.2,212.1,88.2,212.1C88.2,212.1,88.2,212.1,88.2,212.1z"/>
</g>
<g>
	<path style="fill:#595959;" d="M32.3,228.1c5,4.3,11.9,6.3,16.9,7.2c5.2,1,9.3,1,9.7,1c0.5-0.1,6-1.2,6-9.5c0-4.4-3.1-7.8-5.6-9.8
		c-2.8-2.2-5.6-3.4-5.7-3.5c-0.2-0.1-0.2-0.2-0.2-0.4l5.7-36.9l-16.5-1.3c-1.1,4.4-11.3,47.1-11.8,48.9
		C30.3,225.1,31.7,227.3,32.3,228.1z"/>
	<path d="M58.9,237c-0.7,0-4.7,0-9.8-1c-5.1-0.9-12.2-3-17.3-7.4l-0.1-0.1l-0.1-0.1c-0.2-0.3-2.3-3.1-1.7-5
		c0.5-1.7,10.7-44,11.8-48.8L42,174l18,1.4l-5.8,37.4c0.8,0.4,3.2,1.6,5.6,3.4c2.7,2.2,5.9,5.7,5.9,10.4c0.1,8.8-5.9,10.1-6.6,10.2
		L58.9,237C58.9,237,58.9,237,58.9,237z M32.9,227.5c4.8,4.1,11.6,6.1,16.5,7c4.9,0.9,8.8,0.9,9.5,0.9c0.8-0.2,5.3-1.4,5.3-8.7
		c0-4.1-2.9-7.3-5.4-9.2c-2.7-2.1-5.4-3.3-5.5-3.3c-0.5-0.2-0.8-0.7-0.7-1.2l5.6-36l-15-1.2C41,184.9,32,222.3,31.5,224
		C31.3,224.8,32.2,226.5,32.9,227.5z M53.9,212.7C53.9,212.7,53.9,212.7,53.9,212.7C53.9,212.7,53.9,212.7,53.9,212.7z"/>
</g>
<g>
	<defs>
		<path id="XMLID_00000125561385408839054160000008366814780162341567_" d="M100.6,140.7c-2.9-26.3-14.5-52.2-14.5-52.2
			s-51,6.4-52.2,6.5c1.2,0-6.9,18.2-7.2,19.4c-2.6,10.2-6.6,19.6-9.1,29.8c-5.3,21.3,14.6,40.5,35.3,41.8
			C83.3,188,104.2,174.1,100.6,140.7z"/>
	</defs>
	<defs>
		<path id="SVGID_1_" d="M58.2,187.2c-1.8,0-3.6-0.1-5.5-0.2c-11.8-0.7-23.5-7.2-30.6-16.8c-5.8-7.9-7.8-17.2-5.6-26.1
			c1.3-5.3,3-10.4,4.7-15.3c1.6-4.7,3.2-9.5,4.5-14.5c0.1-0.4,0.7-1.8,1.9-4.8c1.7-4,5.1-12.3,5.4-14c-0.1-0.1-0.1-0.2-0.1-0.4
			c0-0.5,0.3-0.9,0.8-1C35,94,85.5,87.7,86,87.6c0.4-0.1,0.8,0.2,1,0.6c0.1,0.3,11.7,26.3,14.5,52.4c1.6,14.9-1.5,26.5-9.2,34.6
			C84.8,183.1,73.1,187.2,58.2,187.2z M34.9,95.9c-0.3,1.6-1.7,5.2-5.5,14.3c-0.9,2.1-1.7,4.2-1.8,4.5c-1.3,5-2.9,9.9-4.5,14.6
			c-1.6,4.9-3.3,10-4.6,15.2c-2.1,8.4-0.2,17.1,5.3,24.6c6.7,9.2,17.9,15.3,29.2,16c16.9,1.1,30.1-2.8,38.1-11.2
			c7.3-7.6,10.2-18.8,8.7-33.1c0,0,0,0,0,0C97,117.2,87.3,93.7,85.5,89.6C79.8,90.3,41.2,95.1,34.9,95.9z"/>
	</defs>
	<use xlink:href="#XMLID_00000125561385408839054160000008366814780162341567_"  style="overflow:visible;fill:#595959;"/>
	<use xlink:href="#SVGID_1_"  style="overflow:visible;"/>
	<clipPath id="XMLID_00000126306961442806746220000012727964992195885223_">
		<use xlink:href="#XMLID_00000125561385408839054160000008366814780162341567_"  style="overflow:visible;"/>
	</clipPath>
	
		<clipPath id="SVGID_00000051379678019701150300000014799061718003139254_" style="clip-path:url(#XMLID_00000126306961442806746220000012727964992195885223_);">
		<use xlink:href="#SVGID_1_"  style="overflow:visible;"/>
	</clipPath>
</g>
<g>
	<g>
		<g id="XMLID_116_">
			<g>
				<g>
					<path style="fill:#595959;" d="M138.9,125.2c-10,2-20.2-1.2-28.8-6.1c-5.1-2.9-20.6-13.3-23.8-14.1L86,128.2
						c10.5,6.3,21.7,14.7,34.2,16.6c8.8,1.3,19.3,3.3,27.6-0.7C155.2,140.5,153.4,122.3,138.9,125.2z"/>
					<path d="M135.8,147.4c-4.7,0-9.6-0.7-14.1-1.4c-0.6-0.1-1.1-0.2-1.7-0.3c-10.4-1.6-19.8-7.5-28.9-13.2
						c-1.9-1.2-3.8-2.4-5.6-3.5l-0.5-0.3l0.3-24.8l1.2,0.3c2.1,0.5,7.9,4.1,16,9.2c3.2,2,6.3,4,8,4.9c6.9,3.9,17.4,8.2,28.2,6l0,0
						c3.5-0.7,6.5-0.3,9,1.2c2.1,1.3,3.7,3.4,4.6,6c1.8,5.5,0,11.5-4.2,13.5C144.3,146.7,140.1,147.4,135.8,147.4z M87,127.6
						c1.7,1,3.4,2.1,5.2,3.3c8.9,5.6,18.1,11.4,28.1,12.9c0.6,0.1,1.1,0.2,1.7,0.3c8.4,1.3,17.9,2.7,25.3-0.8
						c3.2-1.5,4.7-6.7,3.2-11.2c-1.6-4.8-5.9-7-11.5-5.9c-11.3,2.3-22.3-2.1-29.5-6.2c-1.8-1-4.9-2.9-8.1-5
						c-4.9-3.1-11.3-7.1-14.2-8.5L87,127.6z"/>
				</g>
			</g>
			<g>
				<g>
					<path style="fill:#595959;" d="M86,128.2c10.5,6.3,21.7,14.7,34.2,16.6c8.8,1.3,19.3,3.3,27.6-0.7c7.5-3.6,5.6-21.8-8.9-18.9
						c-10,2-20.2-1.2-28.8-6.1c-5.1-2.9-20.6-13.3-23.8-14.1"/>
					<path d="M135.8,147.4c-4.7,0-9.6-0.7-14.1-1.4c-0.6-0.1-1.1-0.2-1.7-0.3c-10.4-1.6-19.8-7.5-28.9-13.2
						c-1.9-1.2-3.8-2.4-5.6-3.5l1-1.6c1.9,1.1,3.7,2.3,5.7,3.5c8.9,5.6,18.1,11.4,28.1,12.9c0.6,0.1,1.1,0.2,1.7,0.3
						c8.4,1.3,17.9,2.7,25.3-0.8c3.2-1.5,4.7-6.7,3.2-11.2c-1.6-4.8-5.9-7-11.5-5.9c-11.3,2.3-22.3-2.1-29.5-6.2
						c-1.8-1-4.9-2.9-8.1-5c-5.7-3.6-13.5-8.5-15.4-9l0.5-1.8c2.1,0.5,7.9,4.1,16,9.2c3.2,2,6.3,4,8,4.9c6.9,3.9,17.4,8.2,28.2,6
						c3.5-0.7,6.5-0.3,9,1.2c2.1,1.3,3.7,3.4,4.6,6c1.8,5.5,0,11.5-4.2,13.5C144.3,146.7,140.1,147.4,135.8,147.4z"/>
				</g>
			</g>
		</g>
		<g>
			<g>
				<ellipse style="fill:#FFFFFF;" cx="130.6" cy="126.1" rx="3.4" ry="3.4"/>
				<path d="M130.6,130.4c-2.4,0-4.3-1.9-4.3-4.3c0-2.4,1.9-4.3,4.3-4.3s4.3,1.9,4.3,4.3C134.9,128.4,132.9,130.4,130.6,130.4z
					 M130.6,123.6c-1.3,0-2.4,1.1-2.4,2.4c0,1.3,1.1,2.4,2.4,2.4c1.3,0,2.4-1.1,2.4-2.4C133,124.7,131.9,123.6,130.6,123.6z"/>
			</g>
			<g>
				<ellipse style="fill:#FFFFFF;" cx="128" cy="145.2" rx="3.4" ry="3.4"/>
				<path d="M128,149.6c-2.4,0-4.3-1.9-4.3-4.3s1.9-4.3,4.3-4.3s4.3,1.9,4.3,4.3S130.4,149.6,128,149.6z M128,142.8
					c-1.3,0-2.4,1.1-2.4,2.4s1.1,2.4,2.4,2.4c1.3,0,2.4-1.1,2.4-2.4S129.3,142.8,128,142.8z"/>
			</g>
			<g>
				<ellipse style="fill:#FFFFFF;" cx="124.6" cy="140.4" rx="3.4" ry="3.4"/>
				<path d="M124.6,144.7c-2.4,0-4.3-1.9-4.3-4.3s1.9-4.3,4.3-4.3s4.3,1.9,4.3,4.3S127,144.7,124.6,144.7z M124.6,138
					c-1.3,0-2.4,1.1-2.4,2.4s1.1,2.4,2.4,2.4s2.4-1.1,2.4-2.4S126,138,124.6,138z"/>
			</g>
			<g>
				<ellipse style="fill:#FFFFFF;" cx="126" cy="130" rx="3.4" ry="3.4"/>
				<path d="M126,134.3c-2.4,0-4.3-1.9-4.3-4.3c0-2.4,1.9-4.3,4.3-4.3s4.3,1.9,4.3,4.3C130.4,132.4,128.4,134.3,126,134.3z
					 M126,127.6c-1.3,0-2.4,1.1-2.4,2.4s1.1,2.4,2.4,2.4s2.4-1.1,2.4-2.4S127.4,127.6,126,127.6z"/>
			</g>
			<g>
				<ellipse style="fill:#FFFFFF;" cx="123.8" cy="134.7" rx="3.4" ry="3.4"/>
				<path d="M123.8,139c-2.4,0-4.3-1.9-4.3-4.3c0-2.4,1.9-4.3,4.3-4.3c2.4,0,4.3,1.9,4.3,4.3C128.1,137.1,126.2,139,123.8,139z
					 M123.8,132.3c-1.3,0-2.4,1.1-2.4,2.4s1.1,2.4,2.4,2.4s2.4-1.1,2.4-2.4S125.1,132.3,123.8,132.3z"/>
			</g>
		</g>
	</g>
	<g>
		<g>
			<defs>
				<path id="XMLID_00000002344547211362221120000017611967429828837805_" d="M97.7,135.2l5.5,4.8c0,0,4.6-2.3,7.9-8.1
					c3.3-5.8,3.3-13.9,3.3-13.9l-17.7-10.3L97.7,135.2z"/>
			</defs>
			<use xlink:href="#XMLID_00000002344547211362221120000017611967429828837805_"  style="overflow:visible;fill:#C5FF86;"/>
			<clipPath id="XMLID_00000105392174325256411980000013378491546803357362_">
				<use xlink:href="#XMLID_00000002344547211362221120000017611967429828837805_"  style="overflow:visible;"/>
			</clipPath>
			<path style="clip-path:url(#XMLID_00000105392174325256411980000013378491546803357362_);fill:#00C316;" d="M105.8,128.2
				c-0.4,0-0.7-0.1-1.1-0.2c-1.8-0.7-2.2-2.9-2-4.5c0-0.4,0.1-0.7,0.2-1.1c0-0.2,0.1-0.3,0.1-0.5c-0.8,0.6-1.7,1-2.8,1.2
				c-1.7,0.4-3.4,0.3-5,0.2c-0.5,0-0.9-0.4-0.9-1c0-5.4,4.4-10.4,9.7-11.1c0.5-0.1,1,0.3,1.1,0.8c0.1,0.5-0.3,1-0.8,1.1
				c-4.1,0.6-7.6,4.2-8,8.4c1.2,0.1,2.4,0.1,3.5-0.2c1.5-0.3,2.6-1.1,3.2-2.1c0.2-0.3,0.5-0.5,0.9-0.5c0.4,0,0.7,0.3,0.8,0.7
				c0.4,1.2,0.2,2.4,0,3.4c-0.1,0.3-0.1,0.7-0.1,1c-0.1,1,0.1,2.2,0.9,2.5c0.3,0.1,0.7,0,0.9-0.1c0.5-0.3,0.9-0.8,1.1-1.4
				c0.3-1.2-0.3-2.6-0.7-3.7c-0.2-0.4,0-0.9,0.4-1.1c0.4-0.2,0.8-0.2,1.2,0.1c1.5,1.4,3.2,2.5,5.1,3.3c-0.1-1.5-1-3-2.3-3.6
				c-0.1-0.1-0.3-0.1-0.4-0.2c-0.5-0.2-0.7-0.7-0.5-1.2c0.2-0.5,0.7-0.7,1.2-0.5c0.2,0.1,0.3,0.1,0.5,0.2c0.9,0.4,1.8,0.7,2.7,0.7
				c0.8,0,1.8-0.4,2-1.2c0.2-0.7-0.2-1.5-0.6-2c-0.6-0.7-1.5-1.1-2.4-1.5c-0.5-0.2-0.7-0.8-0.4-1.3c0.2-0.5,0.8-0.7,1.3-0.4
				c1,0.5,2.1,1,3,1.9c1.1,1.1,1.5,2.6,1,3.9c-0.5,1.4-2,2.4-3.8,2.5c0,0,0,0,0,0c0.7,1.3,1,2.9,0.6,4.4c-0.1,0.3-0.2,0.5-0.5,0.6
				c-0.2,0.1-0.5,0.1-0.8,0c-1.6-0.6-3.1-1.4-4.5-2.4c0.1,0.6,0.1,1.3-0.1,1.9c-0.2,1.1-1,2.1-2,2.6
				C106.8,128,106.3,128.2,105.8,128.2z"/>
		</g>
		<path d="M102.6,141c-0.2,0-0.4-0.1-0.6-0.2l-5.5-4.8c-0.2-0.2-0.3-0.4-0.3-0.7l-1-27.5c0-0.3,0.2-0.7,0.5-0.8c0.3-0.2,0.7-0.2,1,0
			l17.7,10.3c0.3,0.2,0.5,0.5,0.5,0.8c0,0.3,0,8.5-3.4,14.4c-3.4,6-8.1,8.4-8.3,8.5C102.9,141,102.8,141,102.6,141z M98.1,134.8
			l4.7,4.1c1.3-0.8,4.5-3.1,7-7.4c2.6-4.7,3.1-11.1,3.1-12.9l-15.7-9.2L98.1,134.8z"/>
	</g>
</g>
<g>
	<g>
		<g>
			<defs>
				<path id="XMLID_00000000905208488229765790000006854826505560124044_" d="M67,117l-8.8,58.7c0,0-39.1,1.6-46.8-12.6l17.9-54.4
					C29.3,108.7,62.7,117.2,67,117z"/>
			</defs>
			<use xlink:href="#XMLID_00000000905208488229765790000006854826505560124044_"  style="overflow:visible;fill:#C5FF86;"/>
			<clipPath id="XMLID_00000035500889488021007160000016616632072213227418_">
				<use xlink:href="#XMLID_00000000905208488229765790000006854826505560124044_"  style="overflow:visible;"/>
			</clipPath>
			<g style="clip-path:url(#XMLID_00000035500889488021007160000016616632072213227418_);">
				<path style="fill:#00C316;" d="M34.5,121.9c2-0.6,4.1-0.9,6.2-1c3.1-0.2,7,0.2,8.4,3c-4.8-0.3-9.5-0.1-14.3,0.5
					c4.7,2.2,9.8,4.8,11.4,9.7c-3.9-2.1-7.7-4.3-11.4-6.6c3.9,3.8,5.9,9.4,5.1,14.8c-2.6-3.7-4.8-7.6-6.8-11.6
					c0.1,4.3-1.7,8.5-4.8,11.4c0.4-3.7,1.2-7.4,2.2-11c-2.8,2.3-6.6,3.3-10.1,2.6c2,0.4,6.3-5.4,7.3-6.8
					C29.6,124.3,31.2,122.9,34.5,121.9z"/>
				<path style="fill:#00C316;" d="M39.9,143.2c-0.3,0-0.6-0.1-0.8-0.4c-2-2.8-3.7-5.7-5.3-8.8c-0.6,3.3-2.3,6.4-4.8,8.7
					c-0.3,0.3-0.7,0.3-1.1,0.2c-0.4-0.2-0.6-0.6-0.5-1c0.3-2.9,0.9-5.8,1.6-8.7c-2.6,1.4-5.7,1.9-8.7,1.4c0,0,0,0,0,0c0,0,0,0,0,0
					c-0.5-0.1-0.8-0.6-0.7-1.1c0.1-0.5,0.6-0.8,1.1-0.7c0.4,0.1,2.4-0.9,6.3-6.4c2.1-2.9,4-4.3,7.2-5.3c0,0,0,0,0,0
					c1.8-0.5,3.8-0.9,6.4-1.1c4.7-0.3,8,0.9,9.3,3.5c0.2,0.3,0.1,0.7,0,1c-0.2,0.3-0.5,0.4-0.8,0.4c-3.6-0.2-7.2-0.2-10.8,0.1
					c4,2.1,7.5,4.7,8.9,8.8c0.1,0.4,0,0.8-0.3,1c-0.3,0.2-0.7,0.3-1.1,0.1c-2.4-1.3-4.8-2.6-7.1-4c1.9,3.5,2.8,7.6,2.2,11.5
					c-0.1,0.4-0.3,0.7-0.7,0.8C40,143.2,40,143.2,39.9,143.2z M33.1,129.6c0.4,0,0.7,0.2,0.9,0.5c1.5,3.2,3.2,6.2,5.1,9.2
					c-0.2-4.2-1.9-8.3-5-11.2c-0.3-0.3-0.4-0.9-0.1-1.3c0.3-0.4,0.8-0.5,1.2-0.2c2.8,1.8,5.7,3.5,8.6,5.1c-2.1-2.9-5.8-4.8-9.5-6.5
					c-0.4-0.2-0.6-0.6-0.5-1c0.1-0.4,0.4-0.7,0.8-0.8c4-0.5,8.1-0.7,12.1-0.6c-1.6-1-4.1-1.1-6.1-1c-2.5,0.2-4.3,0.5-6,1l0,0
					c-2.9,0.9-4.4,2-6.3,4.6c-1.9,2.7-3.4,4.4-4.6,5.4c2.2-0.2,4.4-1.1,6-2.5c0.3-0.3,0.8-0.3,1.1-0.1c0.3,0.2,0.5,0.7,0.4,1.1
					c-0.7,2.5-1.3,5-1.7,7.6c1.6-2.4,2.5-5.4,2.4-8.3c0-0.4,0.3-0.8,0.7-0.9C33,129.6,33,129.6,33.1,129.6z"/>
			</g>
			<g style="clip-path:url(#XMLID_00000035500889488021007160000016616632072213227418_);">
				<path style="fill:#00C316;" d="M51.2,151.6c-0.9,4-0.4,8.4,1.4,12.1c-3.2-2.4-6.7-4.9-10.7-4.6c1.8,2.4,4.3,4.3,7,5.6
					c-4-0.4-8.1-0.8-11.8,0.4c3,1.6,6.4,2.4,9.8,2.5c-4.1,0.9-7.9,3.3-10.5,6.7c4.4,0.1,8.8,0.3,13.1-0.2c1.9-0.2,3.9-0.6,5.4-1.8
					C61.8,166.6,55.7,156.1,51.2,151.6z"/>
				<path style="fill:#00C316;" d="M42.6,175.2c-2.1,0-4.1-0.1-6.2-0.1c-0.4,0-0.7-0.2-0.8-0.5c-0.2-0.3-0.1-0.7,0.1-1
					c1.8-2.4,4.2-4.4,6.9-5.6c-2.1-0.4-4.1-1.1-5.9-2.1c-0.3-0.2-0.5-0.5-0.5-0.9c0-0.4,0.3-0.7,0.6-0.8c2.6-0.9,5.4-1,8.1-0.8
					c-1.4-1-2.7-2.3-3.7-3.7c-0.2-0.3-0.3-0.6-0.1-1c0.1-0.3,0.4-0.5,0.8-0.6c3.2-0.2,6,1.1,8.7,2.9c-0.9-3.1-1-6.4-0.3-9.6
					c0.1-0.3,0.3-0.6,0.7-0.7c0.3-0.1,0.7,0,0.9,0.2c3.6,3.6,7.4,9.9,7.1,15.3c-0.1,2.7-1.3,5-3.4,6.6c-1.7,1.4-3.9,1.8-5.9,2
					C47.3,175.2,45,175.2,42.6,175.2z M38.5,173.3c3.7,0.1,7.4,0.1,11-0.3c1.8-0.2,3.6-0.5,4.9-1.6c1.7-1.3,2.6-3.1,2.7-5.3
					c0.2-4.3-2.7-9.3-5.2-12.4c-0.4,3.3,0.2,6.6,1.7,9.6c0.2,0.4,0.1,0.9-0.2,1.1c-0.3,0.3-0.8,0.3-1.2,0c-2.6-2-5.2-3.8-7.9-4.3
					c1.5,1.5,3.3,2.7,5.2,3.6c0.4,0.2,0.6,0.7,0.5,1.1c-0.1,0.4-0.6,0.7-1,0.7c-2.8-0.3-5.8-0.6-8.7-0.2c2.2,0.8,4.5,1.2,6.8,1.3
					c0.5,0,0.9,0.4,0.9,0.9c0,0.5-0.3,0.9-0.7,1C43.8,169.1,40.8,170.8,38.5,173.3z"/>
			</g>
			<g style="clip-path:url(#XMLID_00000035500889488021007160000016616632072213227418_);">
				<path style="fill:#FF5400;" d="M47.6,139.2c-1.4-0.9-3.5-0.9-4.6,0.3c-1.4,1.5-0.9,3.8-0.3,5.7c-1.4-0.4-3.2-0.6-4.1,0.5
					c-0.2,0.3-0.4,0.7-0.5,1.2c-0.2,0.9-0.2,1.9,0.5,2.6c0.3,0.3,0.8,0.5,1.3,0.6c1.9,0.5,4.3,0.3,5.2-1.5c0.1,1,0.9,1.7,1.8,2.2
					c1,0.5,2.1,0.7,3.1,0.4c1-0.3,1.9-1.2,2.1-2.3c0.2-1.1-0.5-2.2-1.5-2.5c0.9,0.1,1.8,0.3,2.6,0c0.8-0.3,1.5-1.2,1.3-2
					c-0.7-2.3-4-0.8-5.5-1.2C49.1,141.6,49.1,140.2,47.6,139.2z"/>
				<path style="fill:#FF5400;" d="M48.9,152.3c-0.8,0-1.7-0.2-2.5-0.6c-0.7-0.3-1.2-0.8-1.6-1.3c-1.4,1-3.4,1.1-5.2,0.6
					c-0.6-0.1-1.2-0.4-1.7-0.8c-0.8-0.8-1.1-2-0.8-3.4c0.1-0.4,0.3-1,0.6-1.5c0.9-1.2,2.4-1.3,3.6-1.2c-0.4-1.8-0.4-3.7,0.9-5.1
					c1.6-1.6,4.1-1.5,5.8-0.4l0,0c1.7,1.1,1.9,2.6,1.9,3.8c0.3,0,0.5,0,0.8-0.1c1.5-0.2,3.9-0.4,4.6,1.9c0.4,1.4-0.6,2.8-1.9,3.2
					c-0.2,0.1-0.4,0.1-0.6,0.2c0.2,0.5,0.3,1.1,0.2,1.6c-0.2,1.4-1.3,2.6-2.7,3C49.8,152.2,49.4,152.3,48.9,152.3z M45.1,147.7
					c0.1,0,0.1,0,0.2,0c0.4,0.1,0.7,0.4,0.8,0.8c0.1,0.6,0.5,1.1,1.3,1.5c0.8,0.4,1.7,0.5,2.4,0.3c0.7-0.2,1.3-0.8,1.4-1.5
					c0.1-0.6-0.3-1.3-0.9-1.5c-0.5-0.1-0.8-0.6-0.7-1.1c0.1-0.5,0.6-0.8,1.1-0.7c0.7,0.1,1.5,0.3,2.2,0c0.4-0.2,0.8-0.6,0.7-0.9
					c-0.2-0.6-0.7-0.8-2.5-0.6c-0.8,0.1-1.6,0.2-2.3,0c-0.5-0.1-0.7-0.6-0.7-1c0.3-1.7,0.1-2.4-0.9-3l0,0c-1-0.6-2.6-0.7-3.4,0.1
					c-1,1.1-0.6,3.1-0.1,4.8c0.1,0.3,0,0.7-0.2,0.9c-0.2,0.2-0.6,0.3-0.9,0.3c-1.6-0.4-2.7-0.4-3.1,0.2c-0.1,0.2-0.2,0.4-0.3,0.8
					c-0.2,0.8-0.1,1.4,0.2,1.7c0.2,0.2,0.6,0.3,0.9,0.4c1.5,0.4,3.5,0.3,4.1-1C44.4,147.9,44.7,147.7,45.1,147.7z"/>
			</g>
		</g>
		<path d="M54.8,176.7c-3.8,0-10.4-0.2-17.2-1c-14.6-1.9-23.6-5.9-27-12.1c-0.1-0.2-0.1-0.5-0.1-0.7l17.9-54.4
			c0.2-0.5,0.7-0.7,1.1-0.6c9.3,2.4,34,8.4,37.4,8.2c0.3,0,0.6,0.1,0.8,0.3c0.2,0.2,0.3,0.5,0.2,0.8l-8.8,58.7
			c-0.1,0.4-0.4,0.8-0.9,0.8C58.2,176.7,56.9,176.7,54.8,176.7z M12.5,163.1c7.1,12,39.4,11.9,44.9,11.7l8.5-56.9
			c-6.6-0.7-30.9-6.8-35.9-8L12.5,163.1z"/>
	</g>
	<g>
		<polygon style="fill:#C5FF86;" points="36.9,117.1 62.9,120.6 55.9,128.5 		"/>
		<path d="M55.3,128.7c-0.1,0-0.2,0-0.4-0.1c-5.4-2.2-17.3-9.9-17.8-10.2c-0.4-0.3-0.6-0.9-0.3-1.3c0.3-0.4,0.9-0.6,1.3-0.3
			c0.1,0.1,11.4,7.4,16.9,9.8l6.5-6.1c0.4-0.4,1-0.3,1.3,0c0.4,0.4,0.3,1,0,1.3l-7,6.6C55.7,128.6,55.5,128.7,55.3,128.7z"/>
	</g>
</g>
<g>
	<g>
		<path style="fill:#595959;" d="M30.5,111.8c-0.7-0.1-1.5-0.2-2.2-0.3c-6.6-0.4-12.3,6.2-16.6,10.8C0.7,134-3.4,149.8,6.8,164.7
			c3,4.4,7.3,9.4,12.2,11.5c2,0.9,4.4,0.9,6.6,0.5c4.1-0.6,8.4-2.8,9.4-6.5c0.8-2.9-0.6-5.8-2.5-8.2c-2.5-3.2-5.8-5.7-8.5-8.7
			c-3.4-3.8-5.3-9.2-3.3-13.8c1.9-4.6,4.8-7.1,8.1-11c2.8-3.3,6-6,6.8-10.4C36.2,114.2,33.9,112.4,30.5,111.8z"/>
		<path d="M22.9,177.9c-1.6,0-3.1-0.3-4.3-0.8c-4.2-1.8-8.4-5.8-12.6-11.8c-9.5-13.8-7.6-30.1,5-43.6c0.3-0.3,0.5-0.6,0.8-0.9
			c4.1-4.5,9.8-10.6,16.5-10.2c0.8,0,1.6,0.1,2.4,0.3h0c4.5,0.8,6.5,3.5,5.8,7.5c-0.7,3.8-3.1,6.4-5.4,8.9c-0.5,0.6-1.1,1.2-1.6,1.9
			c-0.8,0.9-1.5,1.7-2.2,2.5c-2.3,2.6-4.3,4.9-5.8,8.3c-1.6,3.9-0.4,8.9,3.2,12.8c1.1,1.2,2.4,2.4,3.6,3.6c1.7,1.6,3.4,3.3,4.9,5.1
			c1.7,2.2,3.6,5.6,2.7,9c-0.8,2.8-3.9,6.2-10.1,7.1C24.7,177.8,23.8,177.9,22.9,177.9z M27.7,112.4c-5.6,0-10.5,5.3-14.5,9.6
			c-0.3,0.3-0.5,0.6-0.8,0.9c-5.6,6-9.1,12.7-10.1,19.5C1,150,2.8,157.3,7.5,164.1c3.9,5.7,8,9.6,11.7,11.2c1.6,0.7,3.6,0.8,6.1,0.5
			c3.4-0.5,7.7-2.3,8.6-5.8c0.7-2.7-0.8-5.5-2.3-7.4c-1.4-1.8-3.1-3.4-4.7-4.9c-1.2-1.2-2.5-2.4-3.7-3.7c-4-4.5-5.4-10.3-3.5-14.8
			c1.5-3.7,3.7-6,6.1-8.8c0.7-0.8,1.4-1.6,2.2-2.5c0.5-0.7,1.1-1.3,1.7-1.9c2.2-2.5,4.3-4.8,4.9-8c0.3-1.9,0.3-4.4-4.3-5.3l0,0
			c-0.6-0.1-1.3-0.2-2.1-0.2C28,112.4,27.9,112.4,27.7,112.4z"/>
	</g>
	<g>
		<g>
			<defs>
				<path id="XMLID_00000091723644851565526380000005225344610466085804_" d="M9.2,118.1c1.1,1.1,2.2,2.2,3.3,3.3
					c4.7,4.8,9.8,9.7,16.2,11.5c3.3-4.1,6.7-8.3,9.3-13c1.1-2,2.1-4.3,2.1-6.6c0-4.5-4.6-9.6-9.2-9.5c-5.7,0.1-11.5,3.2-15.6,6.9
					C12.8,112.9,10.7,115.4,9.2,118.1z"/>
			</defs>
			<use xlink:href="#XMLID_00000091723644851565526380000005225344610466085804_"  style="overflow:visible;fill:#C5FF86;"/>
			<clipPath id="XMLID_00000045617066547396058840000000203555825939603356_">
				<use xlink:href="#XMLID_00000091723644851565526380000005225344610466085804_"  style="overflow:visible;"/>
			</clipPath>
			<path style="clip-path:url(#XMLID_00000045617066547396058840000000203555825939603356_);fill:#00C316;" d="M30.7,121.4
				c-0.1,0-0.2,0-0.3,0c-1.6-0.5-2.8-1.9-3.5-3.7c-0.3-0.7-0.4-1.5-0.4-2.3c-1.4,1.3-2.8,2.4-4.4,3.4c-0.2,0.1-0.9,0.6-1.7,0.2
				c-0.5-0.2-0.8-0.7-0.9-1.3c-0.4-2.2,0.2-4.6,1.5-6.4c-4,0.3-8-0.2-11.8-1.3c-0.3-0.1-0.6-0.4-0.6-0.7c-0.1-0.3,0-0.7,0.3-0.9
				c4.7-4.7,12.2-6.8,18.6-5.1c5.2,1.3,8.9,4.9,10.3,10c0.4,1.3-0.1,1.9-0.5,2.2c-0.5,0.4-1,0.4-1.2,0.3c-1.1,0-2.3-0.4-3.2-1
				c0,2.1-0.5,4.2-1.3,6C31.4,121.2,31.1,121.4,30.7,121.4z M27.5,112.1c0.1,0,0.2,0,0.4,0.1c0.4,0.1,0.6,0.5,0.6,0.9
				c-0.1,1.3-0.1,2.7,0.4,4c0.3,0.9,0.8,1.6,1.4,2.1c0.8-2.2,1-4.5,0.6-6.8c-0.1-0.5,0.2-0.9,0.6-1.1c0.4-0.2,0.9,0,1.1,0.4
				c0.7,1.2,2.1,2.1,3.4,2.1c0,0,0-0.1,0-0.1c-1.3-4.4-4.5-7.5-9-8.7c-5.2-1.3-11.3,0.1-15.6,3.5c4,1,8.1,1.2,12.1,0.5
				c0.4-0.1,0.9,0.2,1,0.6c0.2,0.4,0,0.9-0.4,1.1c-2,1.3-3.2,3.8-2.9,6.2c2-1.3,3.8-2.8,5.4-4.6C26.9,112.2,27.2,112.1,27.5,112.1z
				 M36.2,113.9L36.2,113.9L36.2,113.9z"/>
		</g>
		<path d="M28.7,134.2c-0.1,0-0.2,0-0.2,0c-6.9-1.8-12.3-7.3-16.7-11.7l-3.3-3.3c-0.3-0.3-0.4-0.8-0.2-1.1c1.6-2.8,3.7-5.4,6.2-7.6
			c4.9-4.3,11-7,16.2-7.1c2.3-0.1,4.7,1,6.6,2.9c2.2,2.1,3.5,4.9,3.6,7.5c0,2.6-1.1,5-2.2,7c-2.6,4.7-6,9-9.4,13.1
			C29.2,134.1,29,134.2,28.7,134.2z M10.3,118.4l2.8,2.8c4.3,4.3,9.1,9.2,15.2,11.1c3.1-3.9,6.3-7.9,8.8-12.3c1-1.8,2-3.9,2-6.1
			c0-2.1-1.2-4.4-3-6.2c-1.6-1.5-3.5-2.4-5.3-2.4c-4.8,0.1-10.4,2.6-15,6.6C13.6,113.8,11.8,115.9,10.3,118.4z"/>
	</g>
</g>
<g>
	<g>
		<g>
			<defs>
				<path id="XMLID_00000064354351524457656200000004364543133140462976_" d="M81.2,117.5c0,0,3.1,54.5,3.2,57.4s19.3-6.1,21.9-13.4
					l-8.7-52.8L81.2,117.5z"/>
			</defs>
			<use xlink:href="#XMLID_00000064354351524457656200000004364543133140462976_"  style="overflow:visible;fill:#C5FF86;"/>
			<clipPath id="XMLID_00000010279122059690349090000000540283575253532061_">
				<use xlink:href="#XMLID_00000064354351524457656200000004364543133140462976_"  style="overflow:visible;"/>
			</clipPath>
			<g style="clip-path:url(#XMLID_00000010279122059690349090000000540283575253532061_);">
				<path style="fill:#00C316;" d="M94.9,116.5c-2.1-0.1-4.2,0.1-6.2,0.5c-3.1,0.5-6.7,1.8-7.4,4.9c4.5-1.4,9.2-2.4,14-3
					c-4,3.2-8.3,7-8.7,12.2c3.2-3,6.4-6,9.5-9.2c-2.9,4.6-3.4,10.6-1.4,15.6c1.6-4.2,2.9-8.5,3.8-12.9c0.9,4.2,3.7,7.9,7.4,10
					c-1.3-3.5-2.9-6.9-4.8-10.1c3.2,1.6,7.2,1.6,10.4,0.1c-1.9,0.9-7.4-3.7-8.7-4.9C100.2,117.6,98.3,116.7,94.9,116.5z"/>
				<path style="fill:#00C316;" d="M94.5,138.5c-0.4,0-0.7-0.2-0.9-0.6c-1.5-3.7-1.7-7.9-0.6-11.7c-1.9,1.9-3.9,3.8-5.9,5.6
					c-0.3,0.3-0.7,0.3-1.1,0.2c-0.3-0.2-0.6-0.5-0.5-0.9c0.3-4.4,3.1-7.7,6.5-10.7c-3.6,0.6-7.1,1.4-10.5,2.5
					c-0.3,0.1-0.7,0-0.9-0.2c-0.2-0.2-0.4-0.6-0.3-0.9c0.7-2.9,3.5-4.8,8.2-5.6c2.6-0.5,4.6-0.6,6.5-0.5l0,0
					c3.4,0.2,5.6,1.1,8.3,3.4c5.2,4.4,7.3,4.9,7.7,4.7c0,0,0,0,0,0c0.5-0.2,1,0,1.3,0.5c0.2,0.5,0,1-0.5,1.3l0,0c0,0,0,0,0,0
					c-2.7,1.3-5.9,1.5-8.8,0.8c1.4,2.6,2.6,5.3,3.6,8c0.1,0.4,0,0.8-0.3,1.1c-0.3,0.3-0.7,0.3-1.1,0.1c-2.9-1.7-5.3-4.3-6.7-7.3
					c-0.8,3.3-1.9,6.6-3.1,9.8C95.3,138.2,94.9,138.5,94.5,138.5C94.5,138.5,94.5,138.5,94.5,138.5z M95.9,121
					c0.2,0,0.4,0.1,0.6,0.2c0.4,0.3,0.5,0.8,0.2,1.2c-2.2,3.6-3,8-2.1,12.1c1.1-3.3,2.1-6.7,2.8-10.1c0.1-0.4,0.5-0.8,0.9-0.8
					c0,0,0,0,0,0c0.4,0,0.8,0.3,0.9,0.7c0.6,2.9,2.2,5.5,4.3,7.5c-1-2.4-2.2-4.7-3.5-7c-0.2-0.4-0.2-0.8,0.1-1.1
					c0.3-0.3,0.7-0.4,1.1-0.2c2,1,4.3,1.3,6.5,1c-1.4-0.8-3.3-2-5.8-4.2c-2.4-2.1-4.2-2.8-7.2-2.9l0,0c-1.7-0.1-3.6,0.1-6,0.5
					c-2,0.3-4.3,1-5.7,2.4c3.9-1.1,7.9-1.9,11.9-2.4c0.4-0.1,0.8,0.2,1,0.6c0.2,0.4,0.1,0.8-0.3,1.1c-3.2,2.6-6.3,5.3-7.7,8.6
					c2.4-2.3,4.8-4.6,7.1-7C95.4,121.1,95.7,121,95.9,121z"/>
			</g>
			<g style="clip-path:url(#XMLID_00000010279122059690349090000000540283575253532061_);">
				<path style="fill:#00C316;" d="M85.8,149.4c1.9,3.7,2.4,8,1.5,12c2.5-3.1,5.4-6.4,9.3-7.1c-1.2,2.8-3.1,5.2-5.5,7.1
					c3.7-1.3,7.6-2.7,11.6-2.4c-2.6,2.2-5.6,3.9-8.9,4.8c4.2-0.2,8.5,1.3,11.8,4c-4.2,1.2-8.4,2.4-12.8,2.9
					c-1.9,0.2-3.9,0.3-5.7-0.5C79.1,166.5,82.5,154.8,85.8,149.4z"/>
				<path style="fill:#00C316;" d="M90.4,171.8c-1.3,0-2.5-0.2-3.7-0.7c-2.4-1.1-4.1-3-4.9-5.6c-1.6-5.1,0.5-12.2,3.2-16.5
					c0.2-0.3,0.5-0.5,0.8-0.5c0.3,0,0.7,0.2,0.8,0.5c1.5,2.9,2.2,6.2,2,9.4c2.2-2.4,4.6-4.4,7.8-4.9c0.3-0.1,0.7,0.1,0.9,0.3
					c0.2,0.3,0.3,0.6,0.1,1c-0.7,1.6-1.6,3.1-2.7,4.5c2.6-0.8,5.3-1.3,8-1.1c0.4,0,0.7,0.3,0.8,0.6c0.1,0.4,0,0.8-0.3,1
					c-1.6,1.4-3.4,2.6-5.3,3.5c3,0.6,5.8,1.9,8.1,3.8c0.3,0.2,0.4,0.6,0.3,0.9c-0.1,0.3-0.3,0.6-0.7,0.7c-4.2,1.2-8.5,2.4-12.9,3
					C92.1,171.7,91.2,171.8,90.4,171.8z M85.7,151.5c-1.8,3.6-3.4,9.2-2.1,13.3c0.6,2.1,1.9,3.6,3.9,4.5c1.5,0.7,3.4,0.6,5.2,0.4
					c3.6-0.5,7.2-1.4,10.8-2.4c-2.8-1.8-6.2-2.8-9.6-2.6c-0.5,0-0.9-0.3-1-0.8c-0.1-0.5,0.2-0.9,0.7-1.1c2.2-0.6,4.4-1.6,6.3-2.8
					c-2.9,0.3-5.8,1.4-8.4,2.3c-0.4,0.2-0.9,0-1.2-0.4c-0.2-0.4-0.1-0.9,0.2-1.2c1.7-1.3,3.1-2.9,4.2-4.8c-2.5,1.2-4.6,3.5-6.7,6.1
					c-0.3,0.3-0.8,0.4-1.1,0.3c-0.4-0.2-0.6-0.6-0.5-1.1C87.1,158,86.8,154.6,85.7,151.5z"/>
			</g>
			<g style="clip-path:url(#XMLID_00000010279122059690349090000000540283575253532061_);">
				<path style="fill:#FF5400;" d="M86.3,136.5c1.2-1.2,3.1-1.7,4.5-0.8c1.7,1.1,1.8,3.5,1.7,5.5c1.3-0.7,3-1.4,4.1-0.5
					c0.3,0.3,0.5,0.6,0.7,1c0.4,0.8,0.6,1.8,0.1,2.6c-0.3,0.4-0.7,0.7-1.1,0.9c-1.7,0.9-4.1,1.3-5.4-0.2c0.1,1-0.4,1.9-1.2,2.6
					c-0.8,0.7-1.9,1.2-2.9,1.1s-2.1-0.7-2.5-1.7c-0.4-1,0-2.3,0.9-2.8c-0.8,0.3-1.7,0.7-2.6,0.6c-0.9-0.1-1.8-0.8-1.7-1.7
					c0.1-2.4,3.7-1.7,5-2.5C85.4,139.1,85.1,137.8,86.3,136.5z"/>
				<path style="fill:#FF5400;" d="M87.1,149.6c-0.1,0-0.2,0-0.2,0c-1.5-0.1-2.8-1-3.4-2.3c-0.2-0.5-0.3-1.1-0.2-1.6
					c-0.2,0-0.4,0-0.7,0c-1.3-0.1-2.7-1.2-2.6-2.7c0.1-2.4,2.4-2.7,4-2.9c0.3,0,0.5-0.1,0.8-0.1c-0.4-1.2-0.5-2.7,0.9-4.2l0,0
					c1.4-1.4,3.8-2.2,5.7-1c1.6,1,2.1,2.9,2.1,4.7c1.1-0.4,2.6-0.7,3.7,0.3c0.5,0.4,0.8,0.9,1,1.3c0.7,1.3,0.7,2.6,0.1,3.5
					c-0.4,0.6-0.9,0.9-1.5,1.2c-1.6,0.9-3.6,1.3-5.2,0.6c-0.3,0.6-0.7,1.2-1.2,1.6C89.5,149.1,88.3,149.6,87.1,149.6z M85.3,143.2
					c0.4,0,0.7,0.2,0.9,0.5c0.2,0.5,0.1,1-0.4,1.2c-0.5,0.3-0.7,1-0.5,1.6c0.3,0.6,1,1.1,1.7,1.1c0.8,0,1.6-0.3,2.3-0.9
					c0.6-0.5,0.9-1.2,0.9-1.8c0-0.4,0.2-0.8,0.6-1c0.4-0.2,0.8-0.1,1.1,0.2c0.9,1,2.8,0.7,4.2,0c0.3-0.2,0.6-0.4,0.8-0.6
					c0.2-0.3,0.1-1-0.2-1.7c-0.2-0.3-0.3-0.6-0.5-0.7c-0.5-0.4-1.6-0.3-3,0.6c-0.3,0.2-0.7,0.2-1,0c-0.3-0.2-0.5-0.5-0.4-0.9
					c0.1-1.7,0-3.8-1.2-4.6c-1-0.7-2.5-0.2-3.4,0.7l0,0c-0.7,0.8-0.8,1.5-0.1,3.1c0.2,0.4,0,0.9-0.4,1.2c-0.6,0.4-1.4,0.5-2.3,0.6
					c-1.8,0.2-2.3,0.5-2.3,1.1c0,0.3,0.4,0.6,0.9,0.7c0.7,0.1,1.4-0.3,2.1-0.5C85,143.2,85.1,143.2,85.3,143.2z M86.3,136.5
					L86.3,136.5L86.3,136.5z"/>
			</g>
		</g>
		<path d="M85,176.3c-0.2,0-0.3,0-0.4,0c-1-0.1-1.4-0.8-1.4-1.4c-0.1-2.8-3.2-56.8-3.2-57.4c0-0.4,0.2-0.7,0.5-0.9l16.4-8.9
			c0.3-0.1,0.6-0.2,0.9,0c0.3,0.1,0.5,0.4,0.5,0.7l8.7,52.8c0,0.2,0,0.3,0,0.5C104.5,168.4,89.5,176.3,85,176.3z M85,174.5
			C85,174.5,85,174.5,85,174.5c0.7,0,2.7-0.4,6.1-2.1c5.6-2.7,12.3-7.3,13.8-11.1L96.5,110l-14.7,8C82.2,123.8,84.7,169.4,85,174.5z
			"/>
	</g>
	<g>
		<polygon style="fill:#C5FF86;" points="82.7,117.8 95.1,112.2 89.5,124.2 		"/>
		<path d="M89.5,125.3c-0.2,0-0.5-0.1-0.7-0.3l-6.1-5.9c-0.4-0.4-0.4-1,0-1.3c0.4-0.4,1-0.4,1.3,0l5.3,5.1c1.1-1.8,3.4-5.8,4.6-10
			c0.1-0.5,0.7-0.8,1.2-0.6c0.5,0.1,0.8,0.7,0.6,1.2c-1.8,5.9-5.3,11.3-5.5,11.5c-0.2,0.2-0.4,0.4-0.7,0.4
			C89.6,125.3,89.5,125.3,89.5,125.3z"/>
	</g>
</g>
<g>
	<g>
		<path style="fill:#595959;" d="M14.6,91c7.5,15.8,25.1,23.6,44.2,26c11.5,1.4,24.1,0.1,34.4-5.5c13.8-7.4,23.2-22.2,10.3-35.7
			c4.4-19.9-12.4-34.2-12.4-34.2s6.4-15.3-3.8-24.5c0,0-1-1.4-2.6-0.2C79.2,21,70.3,30.4,68.3,34c0,0-9.1-0.7-14,0.2
			c0,0-4.4-6.1-7.6-9.5c-3.2-3.4-12-11.9-14.1-11.6c-2.1,0.3-14.8,17.3-7.3,28.4c-0.6-0.9-8.5,11.1-8.9,11.8
			C9.2,67.3,9.5,80.3,14.6,91z"/>
		<path d="M67.3,118.5c-2.8,0-5.7-0.2-8.6-0.5c-10.3-1.3-19.3-4-26.8-8.1c-8.4-4.6-14.5-10.8-18.1-18.4c-5.7-11.9-5-25.2,1.9-38.5
			c0.2-0.4,2.3-3.5,4.2-6.2c2.3-3.2,3.5-4.7,4.2-5.4c-2.1-3.6-3.4-9.5,0.5-18.3c2.3-5.2,6.2-10.5,8-10.8c0.9-0.1,2.5,0.3,7.4,4.6
			c2.8,2.4,5.8,5.4,7.5,7.3c2.7,2.9,6.2,7.6,7.3,9.1c4.3-0.7,11-0.3,13-0.2c2.6-4.1,11.2-13,16.5-16.9c1-0.7,1.8-0.8,2.3-0.7
			c0.9,0.1,1.4,0.7,1.6,1c4.3,4,6.4,9.7,5.9,16.5c-0.3,3.9-1.3,7.2-1.8,8.5c1.2,1.2,4.6,4.5,7.5,9.4c3.4,5.6,6.9,14.4,4.8,24.8
			c4.7,5.1,6.7,10.9,5.8,16.8c-1.2,7.6-7.5,15.1-16.7,20C86.2,116.4,77,118.5,67.3,118.5z M25.5,42.5c-1.5,1.3-7.5,10.2-8.1,11.3
			c-6.7,12.7-7.3,25.4-1.9,36.8c0,0,0,0,0,0c3.5,7.3,9.3,13.2,17.4,17.6c7.2,4,16,6.6,26.1,7.9c12.4,1.6,24.5-0.4,33.9-5.4
			c8.7-4.7,14.6-11.6,15.7-18.7c0.9-5.4-1-10.7-5.6-15.5c-0.2-0.2-0.3-0.5-0.2-0.9c1.8-8,0.3-16-4.4-23.8c-3.5-5.9-7.6-9.4-7.7-9.5
			c-0.3-0.3-0.4-0.7-0.3-1.1c0.1-0.1,6-14.8-3.5-23.5c-0.1-0.1-0.1-0.1-0.2-0.2c0,0,0,0,0,0c0,0-0.2-0.2-0.4-0.3
			c-0.3,0-0.6,0.2-0.8,0.3c-5.3,4-14.2,13.3-16.3,16.9c-0.2,0.3-0.5,0.5-0.9,0.5c-0.1,0-9-0.7-13.7,0.2c-0.4,0.1-0.7-0.1-0.9-0.4
			c0-0.1-4.4-6.1-7.5-9.4c-4.8-5.1-11.7-11.2-13.2-11.3c-1,0.5-5.6,5.9-7.8,12.9c-1.2,3.9-2,9.5,1.1,14.1c0,0,0,0,0,0c0,0,0,0,0,0
			c0.3,0.4,0.2,1-0.3,1.3C25.8,42.5,25.6,42.5,25.5,42.5z M24.6,42.1C24.6,42.1,24.6,42.1,24.6,42.1C24.6,42.1,24.6,42.1,24.6,42.1z
			 M24.6,42.1C24.6,42.1,24.6,42.1,24.6,42.1C24.6,42.1,24.6,42.1,24.6,42.1z M32.9,14.1C32.9,14.1,32.9,14.1,32.9,14.1z"/>
	</g>
	<path style="fill:#FFFFFF;" d="M60.4,88.4c-0.7,7,2.3,14.6,17.9,15.1c10.6,0.3,18.5-6.4,18.3-13.4c-0.2-7-6.1-14-16.7-13.7
		S61.1,81.5,60.4,88.4z"/>
	<path style="fill:#A60918;" d="M84.9,92.2c0,0-0.1,4.8-3.9,4.8s-4.8-4.3-4.8-4.3s2.7-1.1,4.4-2.7L84.9,92.2z"/>
	<g>
		<g>
			<g>
				<path style="fill-rule:evenodd;clip-rule:evenodd;fill:#FF7D6E;" d="M81,79.2c1.3-0.1,2.3,0.7,2.4,1.6c0.1,1-0.9,1.8-2.2,1.9
					c-1.3,0.1-2.3-0.7-2.4-1.6C78.7,80.1,79.7,79.2,81,79.2z"/>
				<path d="M81.2,79.2c1.2,0,2.2,0.7,2.2,1.6c0.1,1-0.9,1.8-2.2,1.9c-0.1,0-0.1,0-0.2,0c-1.2,0-2.2-0.7-2.2-1.6
					c-0.1-1,0.9-1.8,2.2-1.9C81,79.2,81.1,79.2,81.2,79.2 M81.2,77.3c-0.1,0-0.2,0-0.3,0c-1,0.1-2,0.4-2.7,1.1
					c-0.9,0.7-1.3,1.8-1.3,2.8c0.1,1.9,1.9,3.4,4.1,3.4c0.1,0,0.2,0,0.3,0c2.3-0.1,4.1-1.8,4-3.9C85.2,78.7,83.4,77.3,81.2,77.3
					L81.2,77.3z"/>
			</g>
			<g>
				<g>
					<path style="fill-rule:evenodd;clip-rule:evenodd;" d="M89.6,76.8L89.6,76.8c-1.8,0-3.4-1.4-3.4-3.2l0-0.5
						c0-1.8,1.4-3.3,3.3-3.3s3.4,1.4,3.4,3.2l0,0.5C92.9,75.3,91.4,76.8,89.6,76.8"/>
				</g>
				<g>
					<path style="fill-rule:evenodd;clip-rule:evenodd;" d="M67.6,77.5L67.6,77.5c-2,0-3.6-1.4-3.6-3.3l0-0.5c0-1.8,1.5-3.4,3.5-3.4
						c2,0,3.6,1.4,3.6,3.3l0,0.5C71.1,75.9,69.5,77.4,67.6,77.5"/>
				</g>
			</g>
		</g>
		<path d="M74.5,93.7c-0.5,0-1-0.1-1.5-0.5c-0.4-0.3-0.5-0.9-0.2-1.3c0.3-0.4,0.9-0.5,1.3-0.2c0.2,0.1,0.2,0.1,0.9,0.1
			c0.3,0,0.7,0,1.2,0c2.4,0,3.5-2.9,3.5-2.9c0.1-0.4,0.5-0.6,0.8-0.6c0.4,0,0.7,0.2,0.9,0.5c1.6,3.1,5.2,2.7,5.3,2.7
			c0.5-0.1,1,0.3,1.1,0.8c0.1,0.5-0.3,1-0.8,1.1c-0.2,0-3.9,0.5-6.3-2.3c-0.8,1.2-2.2,2.6-4.5,2.6c-0.4,0-0.7,0-1,0
			C74.9,93.6,74.7,93.7,74.5,93.7z"/>
	</g>
	<g>
		<path style="fill:#FF7D6E;" d="M44,36.4c0,0-11.3-13.8-11.3-16.1c0-2.3-8.2,13.5-2.1,18.5c0,0,2.1-0.8,3.2-0.9
			c0,0-0.9-4.3,2.9-1.1C39.1,38.8,44,36.4,44,36.4z"/>
		<path d="M30.5,39.8c-0.2,0-0.4-0.1-0.6-0.2c-4.8-4-1.8-13.5,0.5-18c1-2,1.6-2.6,2.4-2.4c0.4,0.1,0.8,0.5,0.8,1.2
			c0.1,1.1,4.2,7.2,11.1,15.5c0.2,0.2,0.3,0.5,0.2,0.8c-0.1,0.3-0.3,0.5-0.5,0.6c-0.2,0.1-5.5,2.6-8.3,0.2c-0.8-0.6-1.2-0.8-1.4-0.9
			c0,0.3,0,0.7,0.1,1.1c0.1,0.3,0,0.5-0.2,0.7c-0.2,0.2-0.4,0.4-0.7,0.4c-0.9,0.1-2.5,0.7-3,0.9C30.8,39.8,30.7,39.8,30.5,39.8z
			 M32.3,22c-1.2,2.2-3.1,7.1-3,11.3c0,2,0.5,3.5,1.5,4.5c0.5-0.2,1.3-0.4,2-0.6c0-0.8,0.1-1.8,0.9-2.3c1.2-0.7,2.6,0.3,3.6,1.2
			c1.2,1,3.6,0.5,5.2,0c-1-1.3-3-3.7-4.9-6.2C34.4,25.6,32.9,23.3,32.3,22z"/>
	</g>
	<g>
		<path style="fill:#FF7D6E;" d="M39.4,36.8c0,0-4.8-2.1-5.9-5.3"/>
		<path d="M39.4,37.8c-0.1,0-0.3,0-0.4-0.1c-0.2-0.1-5.2-2.3-6.4-5.9c-0.2-0.5,0.1-1,0.6-1.2c0.5-0.2,1,0.1,1.2,0.6
			c0.7,2.3,4.1,4.2,5.3,4.7c0.5,0.2,0.7,0.8,0.5,1.2C40.1,37.6,39.8,37.8,39.4,37.8z"/>
	</g>
	<g>
		<path style="fill:#FF7D6E;" d="M87.3,21.2c0,0-1.4,15.1-3.9,16.5l4.7,2.5C88.1,40.2,92.1,26.5,87.3,21.2z"/>
		<path d="M88.1,41.2c-0.2,0-0.3,0-0.5-0.1L83,38.5c-0.3-0.2-0.5-0.5-0.5-0.8c0-0.3,0.2-0.7,0.5-0.8c1.2-0.7,2.8-8.7,3.4-15.8
			c0-0.4,0.3-0.7,0.7-0.8c0.4-0.1,0.8,0,1,0.3c5,5.7,1.1,19.3,1,19.9c-0.1,0.3-0.3,0.5-0.5,0.6C88.3,41.1,88.2,41.2,88.1,41.2z
			 M84.9,37.4l2.5,1.4c0.3-1.3,0.8-3.6,1.1-6.2c0.3-3.5,0.1-6.3-0.6-8.4c-0.2,1.4-0.4,3.1-0.7,4.9C86.4,33.9,85.6,36.2,84.9,37.4z"
			/>
	</g>
	<path d="M81,97.9c-3.6,0-5.3-3.3-5.7-5.1l1.8-0.4c0,0.1,0.9,3.6,3.9,3.6c2.8,0,2.9-3.7,2.9-3.9l1.9,0C85.8,94.2,84.8,97.9,81,97.9z
		"/>
</g>
<g>
	<g>
		<path style="fill:#00BFF4;" d="M43.1,29c-4.9,1.4-9.8,3.7-12.4,8.1c-1.1,1.8-1.6,4.3-0.3,6c1.4,1.8,4.2,1.9,6.2,1
			c2.1-1,3.7-2.7,5.4-4.2c2.6-2.2,5.2-3.1,8.3-4.2c1.2-0.4,2.4-0.8,3.6-0.7c0.2,0,0.5,0.1,0.7,0.2c0.9,0.8-1.9,7.1-2.2,8.3
			c-0.9,3.4-1.2,7.2,0.5,10.2c1.8,3,6.2,4.5,8.9,2.3c2.3-1.9,2.2-4.9,2.6-7.6c0.5-3.4,1.1-6.8,0.5-10.2c0-0.2,1.9,0.7,2,0.9
			c0.6,0.5,1.2,1.2,1.9,1.8c1.4,1.3,2.7,2.8,3.8,4.4c2.1,3,3.8,6.6,7.1,8c1.5,0.6,3.5,0.4,4.3-1c0.3-0.6,0.4-1.4,0.3-2.1
			c-0.3-3.2-2-6.1-4.2-8.4c-2.2-2.3-4.9-4.2-7.5-6c4.3,0.7,8.5,2.7,11.8,5.7c1.7,1.5,3.9,3.5,6,2.5c2.1-1,1.9-4.1,0.9-6.2
			c-2.8-5.9-9-9.6-15.5-10.7c-6.2-1.1-11.9,0.2-18,1c-2.2,0.3-4.3-0.4-6.5-0.4C48.6,27.6,45.8,28.2,43.1,29z"/>
		<path d="M58.8,58.1c-0.4,0-0.7,0-1.1-0.1c-2.3-0.4-4.4-1.8-5.5-3.7c-1.6-2.8-1.8-6.4-0.6-10.9c0.1-0.3,0.3-0.9,0.6-1.7
			c0.5-1.3,1.7-4.5,1.7-5.6c-1-0.1-2.1,0.3-3.2,0.6c-3.1,1-5.5,1.9-8,4c-0.4,0.4-0.9,0.7-1.3,1.1c-1.3,1.2-2.7,2.4-4.3,3.2
			c-2.4,1.1-5.7,1-7.4-1.3c-1.6-2.2-0.9-5.1,0.2-7.1c2.2-3.8,6.5-6.6,12.9-8.5c3.3-1,6-1.4,8.5-1.5c1,0,2,0.1,3,0.2
			c1.2,0.1,2.3,0.3,3.4,0.1c1.2-0.2,2.5-0.3,3.7-0.5c4.9-0.7,9.5-1.4,14.6-0.4c7.4,1.3,13.4,5.5,16.1,11.2c1.3,2.7,1.2,6.2-1.3,7.4
			c-2.7,1.3-5.3-1-7.1-2.6c-1.8-1.6-3.8-2.9-6-3.9c1.1,0.9,2.1,1.8,3.1,2.8c1.8,1.9,4.1,5.1,4.5,9c0.1,0.7,0.1,1.8-0.4,2.7
			c-1,1.9-3.6,2.1-5.4,1.4c-3-1.2-4.7-3.9-6.4-6.5c-0.4-0.6-0.8-1.2-1.2-1.8c-1.1-1.5-2.3-3-3.7-4.2c-0.3-0.3-0.6-0.5-0.8-0.8
			c-0.3-0.3-0.6-0.7-0.9-0.9c-0.1,0-0.2-0.1-0.3-0.2c0.2,2.8-0.2,5.6-0.6,8.4l-0.1,0.5c-0.1,0.4-0.1,0.9-0.2,1.3
			c-0.3,2.3-0.6,5-2.8,6.8C61.5,57.6,60.2,58.1,58.8,58.1z M53.5,34.1c0.2,0,0.3,0,0.5,0c0.3,0,0.8,0.1,1.2,0.4c1,0.9,0.5,3-1.3,7.7
			c-0.3,0.7-0.5,1.3-0.6,1.6c-1.1,4-0.9,7.1,0.4,9.4c0.8,1.4,2.5,2.5,4.2,2.8c1.3,0.2,2.4-0.1,3.3-0.8c1.6-1.4,1.9-3.4,2.1-5.6
			c0.1-0.5,0.1-0.9,0.2-1.4l0.1-0.5c0.5-3.1,0.9-6.3,0.4-9.4c-0.1-0.4,0.1-0.8,0.5-1c0.9-0.5,3.1,1,3.1,1c0.4,0.3,0.8,0.7,1.1,1.1
			c0.3,0.3,0.5,0.5,0.8,0.8c1.5,1.4,2.8,2.9,4,4.5c0.4,0.6,0.8,1.2,1.2,1.9c1.6,2.5,3.1,4.8,5.5,5.7c1.1,0.4,2.6,0.4,3.1-0.5
			c0.2-0.5,0.2-1.1,0.2-1.6c-0.3-3.4-2.4-6.2-4-7.9c-2.1-2.3-4.8-4.1-7.3-5.9c-0.4-0.3-0.5-0.7-0.3-1.1c0.2-0.4,0.6-0.7,1-0.6
			c4.5,0.8,8.8,2.9,12.2,5.9c1.8,1.6,3.5,3,5,2.3c1.5-0.8,1.2-3.4,0.4-4.9c-2.4-5.1-8-9-14.8-10.2c-4.8-0.9-9.2-0.2-14,0.5
			c-1.2,0.2-2.5,0.4-3.7,0.5c-1.4,0.2-2.6,0-3.9-0.1c-0.9-0.1-1.8-0.2-2.7-0.2c-2.3,0-4.9,0.5-8,1.4L43.1,29l0.3,0.9
			c-6,1.8-9.9,4.2-11.8,7.6c-0.8,1.4-1.4,3.6-0.4,5c1.1,1.5,3.4,1.4,5.1,0.7c1.4-0.7,2.6-1.7,3.9-2.9c0.4-0.4,0.9-0.8,1.3-1.2
			c2.8-2.3,5.5-3.3,8.6-4.3C51.1,34.5,52.3,34.1,53.5,34.1z M66.4,39.8C66.4,39.8,66.4,39.8,66.4,39.8
			C66.4,39.8,66.4,39.8,66.4,39.8z M54.1,36L54.1,36L54.1,36z"/>
	</g>
	<g>
		<path style="fill:#00BFF4;" d="M72.5,29c4.9-3.7,7.3-10.4,5.8-16.3C76.8,6.7,71.5,1.9,65.4,1.1C58.1,0,50.3,5.2,49,12.5
			c-0.9,5.2,0.9,13.6,5.4,16.9C59.6,33.1,67.4,32.8,72.5,29z"/>
		<path d="M63.1,32.9c-3.3,0-6.6-0.9-9.3-2.8C49.2,26.7,47,18,48,12.3C49.4,4.7,57.6-1,65.5,0.1c6.5,0.9,12.1,6,13.7,12.3
			c1.6,6.3-0.9,13.4-6.1,17.3C70.3,31.9,66.7,32.9,63.1,32.9z M63.5,1.9c-6.4,0-12.5,4.7-13.6,10.7C49,17.8,51,25.7,55,28.6
			c4.8,3.5,12.1,3.3,17-0.3l0,0c4.6-3.4,6.9-9.8,5.4-15.3C76,7.3,71,2.8,65.3,2C64.7,1.9,64.1,1.9,63.5,1.9z"/>
	</g>
	<ellipse cx="63.7" cy="16.5" rx="1.5" ry="1.5"/>
	<ellipse cx="73" cy="17.1" rx="1.5" ry="1.5"/>
	<g>
		<ellipse style="fill:#00D7FF;" cx="69.1" cy="23.5" rx="4.6" ry="4.6"/>
		<path d="M69.1,29c-0.2,0-0.4,0-0.7,0c-3-0.4-5.2-3.1-4.8-6.1c0.4-3,3.1-5.2,6.2-4.8c3,0.4,5.2,3.1,4.8,6.1
			C74.2,27,71.8,29,69.1,29z M69.1,19.9c-0.8,0-1.6,0.3-2.2,0.8c-0.8,0.6-1.2,1.5-1.4,2.4c-0.2,2,1.2,3.8,3.2,4c2,0.2,3.8-1.2,4-3.2
			c0.2-2-1.2-3.8-3.2-4C69.4,19.9,69.2,19.9,69.1,19.9z"/>
	</g>
	<g>
		<circle style="fill:#00D7FF;" cx="69.1" cy="23.5" r="0.9"/>
		<path d="M69.1,25.3c-0.1,0-0.2,0-0.2,0c-0.5-0.1-0.9-0.3-1.2-0.7c-0.3-0.4-0.4-0.9-0.4-1.4c0.1-1,1-1.7,2-1.6
			c0.5,0.1,0.9,0.3,1.2,0.7c0.3,0.4,0.4,0.9,0.4,1.4c-0.1,0.5-0.3,0.9-0.7,1.2C69.9,25.2,69.5,25.3,69.1,25.3z M69,23.5
			C69,23.5,69,23.6,69,23.5c0.1,0.1,0.1,0,0.1,0C69.1,23.5,69.1,23.5,69,23.5C69.1,23.5,69,23.5,69,23.5C69,23.5,69,23.5,69,23.5z"
			/>
	</g>
</g>
</svg>
