<?xml version="1.0" encoding="utf-8"?>
<!-- Generator: Adobe Illustrator 26.5.0, SVG Export Plug-In . SVG Version: 6.00 Build 0)  -->
<svg version="1.1" id="레이어_5" xmlns="http://www.w3.org/2000/svg" xmlns:xlink="http://www.w3.org/1999/xlink" x="0px"
	 y="0px" viewBox="0 0 170 220" style="enable-background:new 0 0 170 220;" xml:space="preserve">
<g>
	<g>
		<path style="fill:#AF591E;" d="M91.7,219.4H78.3c-2.8,0-5-2.4-4.9-5.2l1.7-39.4h19.6l2,39.4C96.8,217.1,94.6,219.4,91.7,219.4z"/>
		<path d="M91.7,220H78.3c-1.5,0-2.9-0.6-4-1.7c-1.1-1.1-1.6-2.5-1.5-4.1l1.7-39.4c0-0.3,0.2-0.5,0.6-0.5h19.6
			c0.3,0,0.5,0.2,0.6,0.5l2,39.4c0.1,1.5-0.5,3-1.5,4.1C94.7,219.4,93.3,220,91.7,220z M75.6,175.4l-1.7,38.9c0,1.2,0.4,2.4,1.2,3.2
			c0.8,0.9,1.9,1.3,3.1,1.3h13.5c1.2,0,2.3-0.5,3.2-1.4c0.8-0.9,1.3-2,1.2-3.2l-1.9-38.9L75.6,175.4L75.6,175.4z"/>
	</g>
	<g id="tree_x5F_01_1_">
		<g>
			<g>
				<g>
					<g>
						<path style="fill:#007E2D;" d="M27.5,141.9c-7.7,7.8-15.4,15.7-23.1,23.5c-1.4,1.4-2.8,2.9-3.5,4.7c-1.7,4.6,2.3,9.8,7,11.2
							c4.7,1.4,9.7,0.2,14.5-1c1.3,6.5,6.8,11.9,13.2,13.1s13.4-1.8,17-7.3c5,6.6,12.3,12,20.5,12.5c8.3,0.4,17-5.5,17.7-13.8
							c1.3,4.6,6.3,7.8,11,7s8.4-5.5,8.1-10.2c8.9,6.6,20.9,8.7,31.5,5.6c3.1-0.9,6.2-2.4,8.2-4.9c2-2.6,2.5-6.5,0.5-9.1
							c3.3,1.2,6.8,2.5,10.3,2.4c3.6-0.1,7.3-2,8.5-5.4c1.9-5.3-2.8-10.4-7-14c-10.7-9.1-21.4-18.2-32.1-27.3
							c-10.5-9-21.5-18.2-34.7-22.3c-12.3-3.8-26.1-2.8-37.7,3c-11.6,5.7-20.9,16-25.5,28.2"/>
						<path d="M74,199.1c-0.3,0-0.6,0-0.8,0c-7.3-0.4-14.7-4.8-20.5-12.1c-3.8,5.3-10.8,8.1-17.1,6.9c-6.5-1.2-12-6.5-13.5-12.9
							c-4.3,1.1-9.4,2.3-14.2,0.9c-2.9-0.9-5.5-3.1-6.8-5.8c-1-2.1-1.2-4.2-0.5-6.2c0.7-2,2.2-3.6,3.6-4.9l23.1-23.5
							c0.2-0.2,0.6-0.2,0.8,0c0.2,0.2,0.2,0.6,0,0.8L4.8,165.8c-1.3,1.3-2.7,2.8-3.3,4.5c-0.7,2.1-0.2,4,0.5,5.3
							c1.2,2.4,3.6,4.4,6.1,5.2c4.7,1.4,9.9,0.1,14.1-1c0.1,0,0.3,0,0.4,0.1c0.1,0.1,0.2,0.2,0.2,0.4c1.3,6.2,6.5,11.5,12.8,12.6
							c6.2,1.2,13-1.7,16.4-7.1c0.1-0.1,0.3-0.2,0.5-0.2s0.4,0.1,0.5,0.2c5.6,7.4,12.9,11.9,20.1,12.2c7.6,0.4,16.4-5,17.1-13.3
							c0-0.3,0.2-0.5,0.5-0.5c0.3,0,0.5,0.1,0.6,0.4c1.2,4.3,6,7.3,10.3,6.6c4.4-0.7,7.9-5.2,7.6-9.6c0-0.2,0.1-0.4,0.3-0.5
							c0.2-0.1,0.4-0.1,0.6,0c8.7,6.5,20.6,8.5,31,5.5c3.7-1.1,6.3-2.6,7.9-4.7c1.7-2.2,2.5-5.9,0.5-8.4c-0.1-0.2-0.2-0.5,0-0.7
							c0.1-0.2,0.4-0.3,0.6-0.2c3.1,1.2,6.6,2.5,10.1,2.4c3.1-0.1,6.8-1.7,8-5c1.4-3.9-0.8-8.3-6.8-13.4l-32-27.3
							c-9.9-8.5-21.2-18.1-34.5-22.2c-12.2-3.8-25.8-2.7-37.3,3s-20.7,15.8-25.2,27.9c-0.1,0.3-0.4,0.4-0.7,0.3
							c-0.3-0.1-0.4-0.4-0.3-0.7c4.6-12.3,14-22.7,25.7-28.5c11.7-5.8,25.6-6.9,38.1-3c13.5,4.2,24.9,13.9,34.9,22.4l32.1,27.3
							c6.4,5.5,8.8,10.3,7.2,14.6c-1.4,3.8-5.5,5.6-9,5.7c-3.1,0.1-6.2-0.8-9.1-1.9c1.2,2.8,0.3,6.2-1.4,8.4c-1.8,2.3-4.6,4-8.5,5.1
							c-10.4,3-22.2,1.1-31.1-5c-0.3,4.6-4,8.9-8.5,9.7c-4.3,0.7-8.8-1.7-10.8-5.5C89.3,194.3,81.2,199.1,74,199.1z"/>
					</g>
					<g>
						<path style="fill:#009715;" d="M45.9,110.3c-9.2,9.8-18.4,19.7-27.6,29.6c-3.4,3.6-7,8.1-5.8,12.9c1,3.9,5,6.3,9,6.7
							c4,0.4,7.9-0.8,11.6-2c-1.5,5,1.5,10.8,6.1,13.2c4.7,2.4,10.4,1.8,15-0.7c4.6-2.5,8-6.8,10.5-11.4c0.3,9.3,8.5,17.5,17.7,17.7
							s17.8-7.7,18.5-16.9c1.6,7.9,10.3,13.5,18.1,11.6c7.8-1.9,13-10.8,10.9-18.6c3.1,2.3,6.2,5,9.8,6.4c3.6,1.4,7.8,1.8,11.3,0
							c3.5-1.7,5.9-5.8,4.9-9.6c-0.6-2.3-2.3-4.2-4-5.9c-8.2-8.6-16.4-17.3-24.6-26c-6.1-6.5-12.3-13-19.9-17.6
							c-9.5-5.7-20.9-8-31.8-6.4C65.1,94.9,53.5,102.2,45.9,110.3z"/>
						<path d="M83,176.9c-0.1,0-0.2,0-0.4,0c-8.9-0.2-16.9-7.7-18.1-16.5c-2.7,4.6-6,7.9-9.8,10.1c-5.1,2.8-11,3.1-15.6,0.7
							c-4.8-2.5-7.6-8-6.6-12.9c-3.4,1.1-7.1,2.2-10.9,1.8c-3.8-0.4-8.3-2.8-9.4-7.1c-1.2-4.9,2.3-9.5,5.9-13.4l27.6-29.6
							c8.3-9,20.3-15.7,30.4-17.1c11.1-1.6,22.5,0.7,32.1,6.5c7.7,4.6,14,11.3,20,17.6l24.6,26c1.6,1.6,3.5,3.6,4.1,6.2
							c1,3.8-1.3,8.3-5.3,10.2c-3.3,1.6-7.6,1.6-11.7,0c-3.2-1.2-6-3.4-8.6-5.4c0,0-0.1-0.1-0.1-0.1c0.5,3.5-0.2,7.2-2.2,10.4
							c-2.2,3.7-5.7,6.4-9.5,7.3c-3.8,0.9-8.2,0.1-11.8-2.3c-2.9-1.8-5-4.4-6.2-7.4C99.4,170.2,91.5,176.9,83,176.9z M64.9,157.9
							c0,0,0.1,0,0.1,0c0.2,0.1,0.4,0.3,0.4,0.5c0.2,9,8.3,17,17.2,17.2c0.1,0,0.2,0,0.4,0c8.8,0,16.9-7.6,17.6-16.4
							c0-0.3,0.2-0.5,0.5-0.5s0.5,0.2,0.6,0.5c0.7,3.6,3.1,6.9,6.5,9.1c3.4,2.2,7.4,2.9,10.9,2.1c3.6-0.8,6.8-3.3,8.8-6.8
							s2.7-7.5,1.7-11c-0.1-0.2,0-0.5,0.2-0.6c0.2-0.1,0.5-0.1,0.6,0c0.5,0.4,0.9,0.7,1.3,1c2.6,2,5.4,4.1,8.4,5.3
							c3.9,1.5,7.8,1.6,10.8,0.1c3.5-1.7,5.5-5.6,4.7-8.9c-0.6-2.3-2.3-4.1-3.8-5.7l-24.6-26c-6-6.4-12.2-12.9-19.8-17.5
							c-9.4-5.6-20.6-7.9-31.4-6.4c-9.9,1.4-21.5,8-29.7,16.8l0,0l-27.6,29.6c-3.4,3.6-6.7,8-5.6,12.3c1,3.8,5.1,6,8.5,6.3
							c3.9,0.4,7.9-0.9,11.4-2c0.2-0.1,0.4,0,0.6,0.1c0.1,0.1,0.2,0.4,0.1,0.6c-1.4,4.6,1.2,10.1,5.8,12.5c4.2,2.2,9.8,1.9,14.5-0.7
							c4.1-2.2,7.5-6,10.3-11.2C64.5,158.1,64.7,157.9,64.9,157.9z M45.9,110.3L45.9,110.3L45.9,110.3z"/>
					</g>
					<g>
						<path style="fill:#007E2D;" d="M35.1,105.3c-6.4,6.5-12.7,12.9-19,19.4c-1.1,1.2-2.3,2.4-2.9,3.9c-1.4,3.8,1.9,8,5.8,9.2
							c3.9,1.2,8,0.2,11.9-0.8c1.1,5.3,5.6,9.8,10.9,10.8c5.3,1,11.1-1.5,14-6c4.1,5.5,10.1,9.9,16.9,10.3c6.8,0.4,14-4.6,14.6-11.4
							c1.1,3.8,5.2,6.4,9,5.8c3.8-0.7,6.9-4.5,6.7-8.4c7.3,5.4,17.2,7.2,25.9,4.6c2.6-0.7,5.2-1.9,6.8-4.1c1.7-2.1,2.1-5.4,0.4-7.5
							c2.8,1,5.6,2.1,8.5,2s6-1.7,7-4.4c1.6-4.3-2.3-8.6-5.8-11.6c-8.8-7.5-17.6-15-26.4-22.5c-8.7-7.4-17.7-15-28.6-18.3
							c-10.2-3.1-21.5-2.3-31.1,2.5c-9.6,4.7-17.2,13.2-21,23.2"/>
						<path d="M73.4,152.5c-0.2,0-0.5,0-0.7,0c-6-0.3-12.1-3.9-16.9-9.9c-3.2,4.3-8.9,6.6-14.1,5.6c-5.3-1-9.9-5.4-11.2-10.7
							c-3.5,0.9-7.8,1.9-11.6,0.7c-2.4-0.7-4.6-2.5-5.7-4.8c-0.9-1.7-1-3.5-0.4-5.2c0.6-1.7,1.9-3,3-4.1l19-19.4
							c0.2-0.2,0.6-0.2,0.8,0c0.2,0.2,0.2,0.6,0,0.8l-19,19.4c-1,1.1-2.2,2.3-2.7,3.7c-0.6,1.7-0.1,3.3,0.4,4.3c1,1.9,2.9,3.6,5,4.2
							c3.8,1.2,8.2,0,11.6-0.8c0.1,0,0.3,0,0.4,0.1c0.1,0.1,0.2,0.2,0.2,0.4c1.1,5.1,5.3,9.4,10.4,10.3c5.1,1,10.6-1.4,13.4-5.8
							c0.1-0.1,0.3-0.2,0.5-0.2s0.4,0.1,0.5,0.2c4.6,6.1,10.6,9.7,16.5,10.1c6.1,0.4,13.4-4.1,14-10.9c0-0.3,0.2-0.5,0.5-0.5
							c0.2,0,0.5,0.1,0.6,0.4c1,3.5,4.8,6,8.4,5.4c3.6-0.6,6.4-4.2,6.2-7.8c0-0.2,0.1-0.4,0.3-0.5c0.2-0.1,0.4-0.1,0.6,0
							c7.2,5.3,16.9,7,25.4,4.5c3-0.9,5.2-2.2,6.5-3.9c1.4-1.8,2-4.8,0.4-6.8c-0.1-0.2-0.2-0.5,0-0.7c0.1-0.2,0.4-0.3,0.6-0.2
							c2.5,1,5.4,2,8.3,1.9c2.5-0.1,5.5-1.4,6.5-4.1c1.2-3.1-0.7-6.7-5.6-10.9L119,94.9c-8.2-6.9-17.4-14.9-28.4-18.2
							c-10.1-3.1-21.2-2.2-30.7,2.4c-9.5,4.7-17,13-20.7,22.9c-0.1,0.3-0.4,0.4-0.7,0.3c-0.3-0.1-0.4-0.4-0.3-0.7
							C42.1,91.4,49.9,82.8,59.6,78c9.7-4.8,21.2-5.7,31.5-2.5C102.2,79,111.5,87,119.8,94l26.4,22.5c5.3,4.6,7.3,8.5,5.9,12.2
							c-1.2,3.2-4.6,4.7-7.6,4.8c-2.5,0.1-5-0.7-7.3-1.5c0.8,2.3,0.1,5-1.2,6.8c-1.5,1.9-3.8,3.3-7.1,4.3c-8.5,2.5-18.2,1-25.5-4.1
							c-0.3,3.8-3.4,7.3-7.1,7.9c-3.5,0.6-7.2-1.3-8.9-4.3C85.9,148.6,79.2,152.5,73.4,152.5z"/>
					</g>
					<g>
						<path d="M27.4,171.5c-13.1,0-19.5-11.3-19.6-11.4c-0.1-0.3-0.1-0.6,0.2-0.8c0.3-0.1,0.6-0.1,0.8,0.2c0,0,2.4,4.2,7.1,7.3
							c6.2,4.2,13.4,4.7,21.4,1.4c0.3-0.1,0.6,0,0.7,0.3c0.1,0.3,0,0.6-0.3,0.7C33.9,170.9,30.5,171.5,27.4,171.5z"/>
						<g>
							<path style="fill:#00FF00;" d="M10.8,159.3c0.5,1.2-0.1,2.5-1.2,3c-1.1,0.5-2.5-0.1-2.9-1.2s0.1-2.5,1.2-3
								C9,157.6,10.3,158.2,10.8,159.3z"/>
							<path d="M8.7,163c-1.1,0-2.2-0.7-2.6-1.7c-0.3-0.7-0.3-1.5,0-2.2c0.3-0.7,0.8-1.2,1.5-1.5c1.4-0.6,3.1,0.1,3.7,1.5l0,0
								c0.6,1.4-0.1,3.1-1.5,3.7C9.5,162.9,9.1,163,8.7,163z M8.7,158.5c-0.2,0-0.4,0-0.6,0.1c-0.4,0.2-0.7,0.5-0.9,0.9
								c-0.2,0.4-0.2,0.9,0,1.3c0.4,0.9,1.3,1.3,2.2,0.9c0.8-0.4,1.3-1.3,0.9-2.2C10,158.9,9.4,158.5,8.7,158.5z"/>
						</g>
						<g>
							<path style="fill:#FFDE00;" d="M17.9,166.7c0.5,1.2-0.1,2.5-1.2,3c-1.1,0.5-2.5-0.1-2.9-1.2s0.1-2.5,1.2-3
								C16.1,165,17.4,165.6,17.9,166.7z"/>
							<path d="M15.8,170.4c-0.4,0-0.7-0.1-1.1-0.2c-0.7-0.3-1.2-0.8-1.5-1.5c-0.3-0.7-0.3-1.5,0-2.2c0.3-0.7,0.8-1.2,1.5-1.5
								c1.4-0.6,3.1,0.1,3.7,1.5l0,0c0.3,0.7,0.3,1.5,0,2.2c-0.3,0.7-0.8,1.2-1.5,1.5C16.5,170.3,16.2,170.4,15.8,170.4z
								 M15.8,165.9c-0.2,0-0.4,0-0.6,0.1c-0.4,0.2-0.7,0.5-0.9,0.9s-0.2,0.9,0,1.3s0.5,0.7,0.9,0.9c0.4,0.2,0.9,0.2,1.3,0
								c0.4-0.2,0.7-0.5,0.9-0.9s0.2-0.9,0-1.3l0,0C17.1,166.3,16.4,165.9,15.8,165.9z"/>
						</g>
						<g>
							<path style="fill:#00FF00;" d="M29.1,170.2c0.5,1.2-0.1,2.5-1.2,3c-1.1,0.5-2.5-0.1-2.9-1.2c-0.5-1.2,0.1-2.5,1.2-3
								C27.3,168.5,28.6,169.1,29.1,170.2z"/>
							<path d="M27,173.9c-0.4,0-0.7-0.1-1.1-0.2c-0.7-0.3-1.2-0.8-1.5-1.5c-0.3-0.7-0.3-1.5,0-2.2c0.3-0.7,0.8-1.2,1.5-1.5
								s1.4-0.3,2.2,0s1.2,0.8,1.5,1.5c0.3,0.7,0.3,1.5,0,2.2c-0.3,0.7-0.8,1.2-1.5,1.5C27.8,173.9,27.4,173.9,27,173.9z M27,169.4
								c-0.2,0-0.4,0-0.6,0.1c-0.8,0.4-1.3,1.3-0.9,2.2c0.2,0.4,0.5,0.7,0.9,0.9c0.4,0.2,0.9,0.2,1.3,0c0.4-0.2,0.7-0.5,0.9-0.9
								s0.2-0.9,0-1.3l0,0c-0.2-0.4-0.5-0.7-0.9-0.9C27.5,169.4,27.2,169.4,27,169.4z"/>
						</g>
					</g>
					<g>
						<path d="M131.3,148.2c-5.7,0-12.3-2-18.2-5.7c-7.2-4.4-14.9-11.1-22.9-19.9c-0.2-0.2-0.2-0.6,0-0.8c0.2-0.2,0.6-0.2,0.8,0
							c7.9,8.7,15.6,15.3,22.7,19.7c6.2,3.8,13,5.8,18.8,5.5c6.5-0.3,14-4.2,17.9-9.2c0.2-0.2,0.5-0.3,0.8-0.1s0.3,0.5,0.1,0.8
							c-4,5.3-11.9,9.3-18.7,9.6C132.1,148.1,131.7,148.2,131.3,148.2z"/>
						<g>
							<path style="fill:#00FF00;" d="M105.7,136.4c-0.6,1.1-2,1.5-3,0.9c-1.1-0.6-1.5-2-0.9-3.1c0.6-1.1,2-1.5,3-0.9
								S106.3,135.3,105.7,136.4z"/>
							<path d="M103.7,138.1c-0.5,0-0.9-0.1-1.3-0.4c-1.3-0.7-1.8-2.5-1.1-3.8s2.5-1.9,3.8-1.1c0.7,0.4,1.1,1,1.3,1.7
								c0.2,0.7,0.1,1.5-0.2,2.2C105.7,137.6,104.7,138.1,103.7,138.1z M103.7,133.6c-0.6,0-1.2,0.3-1.5,0.9
								c-0.2,0.4-0.3,0.8-0.1,1.3c0.1,0.4,0.4,0.8,0.8,1c0.8,0.5,1.8,0.1,2.3-0.7l0,0c0.2-0.4,0.3-0.8,0.1-1.3
								c-0.1-0.4-0.4-0.8-0.8-1C104.3,133.7,104,133.6,103.7,133.6z"/>
						</g>
						<g>
							<path style="fill:#FFDE00;" d="M117,143.7c-0.6,1.1-2,1.5-3,0.9c-1.1-0.6-1.5-2-0.9-3.1c0.6-1.1,2-1.5,3-0.9
								C117.2,141.3,117.6,142.6,117,143.7z"/>
							<path d="M115,145.5c-0.5,0-0.9-0.1-1.3-0.4c-0.7-0.4-1.1-1-1.3-1.7c-0.2-0.7-0.1-1.5,0.2-2.2c0.4-0.7,1-1.1,1.7-1.3
								c0.7-0.2,1.5-0.1,2.2,0.2c0.7,0.4,1.1,1,1.3,1.7c0.2,0.7,0.1,1.5-0.2,2.2c-0.4,0.7-1,1.1-1.7,1.3
								C115.5,145.5,115.3,145.5,115,145.5z M115,140.9c-0.6,0-1.2,0.3-1.5,0.9c-0.5,0.8-0.1,1.9,0.7,2.3c0.8,0.5,1.8,0.1,2.3-0.7
								c0.5-0.8,0.1-1.9-0.7-2.3C115.6,141,115.3,140.9,115,140.9z"/>
						</g>
						<g>
							<path style="fill:#FFDE00;" d="M141.5,147c-0.6,1.1-2,1.5-3,0.9c-1.1-0.6-1.5-2-0.9-3.1c0.6-1.1,2-1.5,3-0.9
								C141.7,144.6,142.1,145.9,141.5,147z"/>
							<path d="M139.5,148.8c-0.5,0-0.9-0.1-1.3-0.4c-0.7-0.4-1.1-1-1.3-1.7c-0.2-0.7-0.1-1.5,0.2-2.2c0.4-0.7,1-1.1,1.7-1.3
								c0.7-0.2,1.5-0.1,2.2,0.2c0.7,0.4,1.1,1,1.3,1.7c0.2,0.7,0.1,1.5-0.2,2.2c-0.4,0.7-1,1.1-1.7,1.3
								C140.1,148.7,139.8,148.8,139.5,148.8z M139.5,144.3c-0.6,0-1.2,0.3-1.5,0.9c-0.5,0.8-0.1,1.9,0.7,2.3
								c0.8,0.5,1.8,0.1,2.3-0.7c0.5-0.8,0.1-1.9-0.7-2.3C140.1,144.3,139.8,144.3,139.5,144.3z"/>
						</g>
						<g>
							<path style="fill:#00FF00;" d="M128.7,148.1c-0.6,1.1-2,1.5-3,0.9c-1.1-0.6-1.5-2-0.9-3.1c0.6-1.1,2-1.5,3-0.9
								C128.9,145.7,129.3,147,128.7,148.1z"/>
							<path d="M126.8,149.9c-0.5,0-0.9-0.1-1.3-0.4c-1.3-0.7-1.8-2.5-1.1-3.8c0.4-0.7,1-1.1,1.7-1.3c0.7-0.2,1.5-0.1,2.2,0.2
								c1.3,0.7,1.8,2.5,1.1,3.8c-0.4,0.7-1,1.1-1.7,1.3C127.3,149.8,127,149.9,126.8,149.9z M126.8,145.3c-0.6,0-1.2,0.3-1.5,0.9
								c-0.5,0.8-0.1,1.9,0.7,2.3c0.4,0.2,0.8,0.3,1.3,0.1s0.8-0.4,1-0.8l0,0c0.5-0.8,0.1-1.9-0.7-2.3
								C127.3,145.4,127.1,145.3,126.8,145.3z"/>
						</g>
						<g>
							<path style="fill:#FF007A;" d="M152.2,140.3c-0.6,1.1-2,1.5-3,0.9c-1.1-0.6-1.5-2-0.9-3.1c0.6-1.1,2-1.5,3-0.9
								C152.4,137.8,152.8,139.2,152.2,140.3z"/>
							<path d="M150.2,142c-0.5,0-0.9-0.1-1.3-0.4c-0.7-0.4-1.1-1-1.3-1.7c-0.2-0.7-0.1-1.5,0.2-2.2c0.4-0.7,1-1.1,1.7-1.3
								c0.7-0.2,1.5-0.1,2.2,0.2c1.3,0.7,1.8,2.5,1.1,3.8l0,0c-0.4,0.7-1,1.1-1.7,1.3C150.7,142,150.5,142,150.2,142z M150.2,137.5
								c-0.1,0-0.3,0-0.5,0.1c-0.4,0.1-0.8,0.4-1,0.8c-0.5,0.8-0.1,1.9,0.7,2.3c0.8,0.5,1.8,0.1,2.3-0.7c0.5-0.8,0.1-1.9-0.7-2.3
								C150.8,137.6,150.5,137.5,150.2,137.5z"/>
						</g>
					</g>
					<g>
						<g>
							<path style="fill:#009715;" d="M51,72.5c-7.6,8.1-15.1,16.3-22.7,24.4c-2.8,3-5.7,6.7-4.7,10.6c0.8,3.2,4.1,5.2,7.4,5.5
								c3.2,0.3,6.5-0.7,9.6-1.7c-1.2,4.2,1.2,8.9,5,10.9c3.8,2,8.6,1.5,12.4-0.6c3.8-2.1,6.6-5.6,8.7-9.4
								c0.2,7.6,7.1,14.5,14.6,14.6c7.6,0.2,14.7-6.4,15.2-14c1.3,6.5,8.5,11.1,14.9,9.6c6.4-1.5,10.7-8.9,9-15.3
								c2.5,1.9,5.2,4.1,8.1,5.3c3,1.2,6.4,1.4,9.3,0s4.9-4.8,4.1-7.9c-0.5-1.9-1.9-3.5-3.3-4.9c-6.7-7.1-13.5-14.3-20.3-21.4
								c-5-5.3-10.2-10.7-16.4-14.5c-7.8-4.7-17.2-6.6-26.2-5.3C66.8,59.8,57.2,65.8,51,72.5z"/>
							<path d="M81.5,127.4c-0.1,0-0.2,0-0.3,0c-7.3-0.2-13.9-6.2-15-13.4c-2.2,3.7-4.9,6.4-8,8.1c-4.2,2.3-9.2,2.5-12.9,0.6
								c-3.9-2-6.2-6.5-5.5-10.5c-2.8,0.9-5.8,1.7-8.9,1.4c-3.1-0.3-7-2.3-7.9-6c-1-4.1,1.9-7.9,4.9-11.1l22.7-24.4l0.4,0.4
								l-0.4-0.4c6.9-7.4,16.7-12.9,25.1-14.1c9.2-1.3,18.6,0.6,26.5,5.4c6.4,3.8,11.5,9.3,16.5,14.6l20.3,21.4
								c1.3,1.3,2.9,3,3.4,5.2c0.8,3.2-1.1,6.9-4.4,8.5c-2.7,1.3-6.3,1.3-9.7,0c-2.6-1-4.9-2.8-7.1-4.4c0.4,2.8-0.3,5.8-1.8,8.4
								c-1.8,3.1-4.7,5.3-7.9,6.1c-3.2,0.8-6.8,0.1-9.8-1.9c-2.3-1.5-4.1-3.5-5-5.9C95,122,88.5,127.4,81.5,127.4z M66.7,111.7
								c0,0,0.1,0,0.1,0c0.2,0.1,0.4,0.3,0.4,0.5c0.2,7.3,6.8,13.9,14.1,14.1c7.3,0.2,14.1-6.1,14.7-13.4c0-0.3,0.2-0.5,0.5-0.5
								c0.3,0,0.5,0.2,0.6,0.5c0.6,2.9,2.5,5.6,5.3,7.4c2.8,1.8,6,2.4,8.9,1.7c2.9-0.7,5.5-2.7,7.2-5.6c1.7-2.9,2.2-6.1,1.4-9
								c-0.1-0.2,0-0.5,0.2-0.6c0.2-0.1,0.5-0.1,0.6,0c0.4,0.3,0.7,0.6,1.1,0.8c2.2,1.7,4.4,3.4,6.9,4.3c3.2,1.2,6.4,1.3,8.9,0.1
								c2.8-1.4,4.5-4.6,3.8-7.2c-0.5-1.8-1.9-3.3-3.1-4.7L118,78.7c-4.9-5.2-10.1-10.6-16.3-14.4c-7.7-4.6-16.9-6.5-25.8-5.2
								c-8.1,1.2-17.7,6.6-24.4,13.8L28.8,97.3c-2.8,3-5.5,6.5-4.6,10.1c0.8,3.1,4.1,4.8,6.9,5.1c3.2,0.3,6.5-0.7,9.4-1.7
								c0.2-0.1,0.4,0,0.6,0.1c0.1,0.1,0.2,0.4,0.1,0.6c-1.1,3.8,1,8.3,4.8,10.2c3.4,1.8,8,1.6,11.9-0.6c3.3-1.8,6.2-4.9,8.5-9.2
								C66.2,111.8,66.4,111.7,66.7,111.7z"/>
						</g>
						<g>
							<path style="fill:#007E2D;" d="M43.6,76.3c-2.2,2.4-4.3,5-5.3,8c-1,3.1-0.4,6.9,2.3,8.8s7.2,0.4,7.5-2.8
								c0.9,6.5,6.9,11.9,13.4,12c6.5,0.2,12.8-4.8,14.1-11.3c1.6,6.2,7.8,10.9,14.1,10.8c6.4-0.1,12.3-5,13.7-11.3
								c2.4,4.2,7.7,6.3,12.2,4.9c4.6-1.4,7.8-6.1,7.6-10.9c-0.3-4.8-3.7-8.7-6.8-12.3c-4.4-4.9-8.9-9.9-13.4-14.9
								c-4.6-5.2-9.6-10.5-16.1-12.8c-8.2-2.8-17.9,0.2-23,7.1C57.6,60.5,50.6,68.3,43.6,76.3z"/>
							<path d="M61.8,103c-0.1,0-0.2,0-0.4,0c-6.1-0.2-11.8-4.8-13.5-10.6c-0.5,0.7-1.2,1.3-2,1.7c-1.9,0.9-4.1,0.7-5.6-0.4
								c-3-2.2-3.4-6.4-2.5-9.5c1-3.3,3.4-5.9,5.4-8.3l1.2-1.3c6.8-7.7,13.2-15,19.1-23.1c5.2-7.2,15.2-10.2,23.6-7.3
								c6.8,2.4,11.9,8,16.3,12.9L116.8,72c3.5,3.9,6.7,7.8,7,12.6c0.3,5-3.2,10.1-7.9,11.5c-4.4,1.3-9.5-0.5-12.2-4.1
								c-1.9,6-7.7,10.4-13.9,10.5c-6.1,0.1-11.8-3.8-14.1-9.4C73.6,98.7,67.8,103,61.8,103z M48.1,89.8c0.3,0,0.5,0.2,0.6,0.5
								c0.9,6.2,6.7,11.4,12.9,11.6c6.2,0.2,12.3-4.7,13.5-10.8c0-0.2,0.3-0.5,0.5-0.5s0.5,0.2,0.6,0.4c1.6,5.9,7.6,10.5,13.6,10.3
								c6.1-0.1,11.9-4.9,13.2-10.9c0-0.2,0.2-0.4,0.5-0.4c0.2,0,0.5,0.1,0.6,0.3c2.2,3.9,7.3,6,11.6,4.7c4.3-1.3,7.4-5.8,7.2-10.3
								c-0.3-4.4-3.4-8.2-6.7-11.9L102.6,58c-4.4-4.9-9.3-10.4-15.9-12.6c-8-2.8-17.4,0.2-22.3,6.9c-5.9,8.1-12.6,15.8-19.1,23.1
								l-1.2,1.3l0,0c-2,2.3-4.2,4.8-5.2,7.9c-0.8,2.7-0.4,6.4,2,8.2c1.2,0.8,3,1,4.5,0.3c1.2-0.6,2-1.6,2.1-2.7
								C47.5,90.1,47.7,89.8,48.1,89.8L48.1,89.8z M43.6,76.3L43.6,76.3L43.6,76.3z"/>
						</g>
						<g>
							<path style="fill:#009715;" d="M45.7,63.2c-1.8,2.3-3.6,4.8-2.9,8.1c0.6,2.5,2.4,4.3,4.6,4.7c4.6,0.8,8.5-2.6,12-6
								c-1.1,6.9,3.5,14.1,9.4,14.6s11.9-5.8,12.2-12.8c0.8,4.4,3,8.5,6.4,10.5c3.4,2,7.9,1.7,10.9-1.4s3.8-8.9,1.5-12.3
								c3,3,6.1,6.2,10.5,6c2.3-0.1,4.4-1.6,5.5-4c2.8-6.4-4.1-12.7-7.3-16.5c-6.5-7.7-13.8-14.9-19.1-23.7
								c-1.1-1.8-2.2-3.7-3.3-5.6c-2.9-5-9.2-4.9-12.4,0.2c-3.5,5.8-7.6,12.2-9.7,14.9C57.8,47.6,51.7,55.4,45.7,63.2z"/>
							<path d="M69.3,85.2c-0.2,0-0.5,0-0.7,0c-2.6-0.2-5.1-1.7-7-4.1c-2.1-2.7-3.1-6.2-3-9.6c-3.1,2.9-6.9,5.9-11.4,5.1
								c-2.5-0.5-4.4-2.4-5-5.1c-0.8-3.7,1.4-6.5,3-8.6l18.2-23.4c1.7-2.2,5-7.3,9.6-14.8c1.7-2.7,4.2-4.3,7-4.2
								c2.6,0,4.9,1.5,6.4,4c1.1,2,2.2,3.8,3.3,5.6c4,6.6,9.1,12.3,14,17.9c1.7,1.9,3.4,3.8,5,5.7c0.4,0.5,0.8,1,1.3,1.5
								c3.4,3.8,8.6,9.6,6.1,15.6c-1.1,2.5-3.4,4.2-6,4.4c-3.6,0.2-6.4-1.8-8.9-4.1c0.8,3.4-0.2,7.7-2.8,10.2
								c-3.1,3.1-7.8,3.7-11.5,1.4c-2.6-1.6-4.7-4.6-5.9-8.1c-0.7,2.9-2.4,5.6-4.6,7.6C74.2,84.2,71.8,85.2,69.3,85.2z M59.3,69.5
								c0.1,0,0.2,0,0.2,0.1c0.2,0.1,0.3,0.4,0.3,0.6c-0.6,3.6,0.4,7.4,2.6,10.3c1.7,2.2,3.9,3.5,6.2,3.7c2.3,0.2,4.8-0.7,6.9-2.6
								c2.8-2.4,4.5-6,4.7-9.7c0-0.3,0.2-0.5,0.5-0.5c0.3,0,0.5,0.2,0.6,0.5c0.8,4.5,3.1,8.3,6.1,10.1c3.3,2,7.5,1.5,10.2-1.3
								c2.9-3,3.6-8.5,1.4-11.6c-0.2-0.2-0.1-0.6,0.1-0.7c0.2-0.2,0.6-0.2,0.7,0c2.8,2.8,5.9,6,10.1,5.8c2.2-0.1,4.1-1.6,5-3.7
								c2.3-5.3-2.4-10.5-5.9-14.4c-0.5-0.5-1-1.1-1.3-1.5c-1.6-1.9-3.3-3.8-5-5.7c-5-5.6-10.2-11.4-14.1-18.1
								c-1.1-1.8-2.2-3.6-3.3-5.6c-1.2-2.2-3.2-3.4-5.4-3.4c-2.4,0-4.6,1.3-6,3.7C69.3,33,66,38,64.3,40.2L46.1,63.6l0,0
								c-1.6,2-3.5,4.5-2.8,7.6c0.5,2.2,2.1,3.8,4.1,4.2c4.5,0.8,8.4-2.9,11.5-5.8C59.1,69.5,59.2,69.5,59.3,69.5z M45.7,63.2
								L45.7,63.2L45.7,63.2z"/>
						</g>
						<g>
							<path d="M50.8,139.2c-3.8,0-7.3-0.4-10-1.2c-13.5-4.1-18-19.6-18-19.8c-0.1-0.3,0.1-0.6,0.4-0.7c0.3-0.1,0.6,0.1,0.7,0.4
								c0,0.1,4.4,15.1,17.3,19c13.1,4,44.4-2.8,57.4-14.9c7.2-6.7,19.3-29,19.4-29.2c0.1-0.3,0.5-0.4,0.8-0.2
								c0.3,0.1,0.4,0.5,0.2,0.8c-0.5,0.9-12.3,22.7-19.7,29.5C88.6,132.9,66.3,139.2,50.8,139.2z"/>
							<g>
								<path style="fill:#00FF00;" d="M25.2,118.2c0,1.2-1,2.3-2.3,2.3c-1.2,0-2.3-1-2.3-2.3c0-1.2,1-2.3,2.3-2.3
									C24.2,116,25.2,116.9,25.2,118.2z"/>
								<path d="M23,121c-1.6,0-2.8-1.3-2.8-2.8c0-1.6,1.3-2.8,2.8-2.8s2.8,1.3,2.8,2.8C25.8,119.8,24.5,121,23,121z M23,116.5
									c-0.9,0-1.7,0.8-1.7,1.7c0,1,0.7,1.7,1.7,1.7c0.9,0,1.7-0.8,1.7-1.7C24.7,117.3,23.9,116.5,23,116.5z"/>
							</g>
							<g>
								<path style="fill:#FF007A;" d="M29.7,127.1c0,1.2-1,2.3-2.3,2.3c-1.2,0-2.3-1-2.3-2.3s1-2.3,2.3-2.3
									C28.7,124.9,29.7,125.9,29.7,127.1z"/>
								<path d="M27.5,130c-1.6,0-2.8-1.3-2.8-2.8s1.3-2.8,2.8-2.8s2.8,1.3,2.8,2.8C30.3,128.7,29.1,130,27.5,130z M27.5,125.5
									c-0.9,0-1.7,0.8-1.7,1.7s0.7,1.7,1.7,1.7c0.9,0,1.7-0.8,1.7-1.7S28.4,125.5,27.5,125.5z"/>
							</g>
							<g>
								<ellipse style="fill:#FFDE00;" cx="35.6" cy="135.1" rx="2.3" ry="2.3"/>
								<path d="M35.6,137.9c-1.6,0-2.8-1.3-2.8-2.8s1.3-2.8,2.8-2.8s2.8,1.3,2.8,2.8S37.1,137.9,35.6,137.9z M35.6,133.4
									c-0.9,0-1.7,0.8-1.7,1.7c0,1,0.7,1.7,1.7,1.7c0.9,0,1.7-0.8,1.7-1.7C37.3,134.1,36.5,133.4,35.6,133.4z"/>
							</g>
							<g>
								<path style="fill:#00FF00;" d="M48.6,138c0,1.2-1,2.3-2.3,2.3s-2.3-1-2.3-2.3c0-1.2,1-2.3,2.3-2.3
									C47.6,135.7,48.6,136.7,48.6,138z"/>
								<path d="M46.3,140.8c-1.6,0-2.8-1.3-2.8-2.8s1.3-2.8,2.8-2.8c1.6,0,2.8,1.3,2.8,2.8S47.8,140.8,46.3,140.8z M46.3,136.3
									c-0.9,0-1.7,0.8-1.7,1.7c0,0.9,0.7,1.7,1.7,1.7c1,0,1.7-0.8,1.7-1.7C48,137.1,47.2,136.3,46.3,136.3z"/>
							</g>
							<g>
								<path style="fill:#00FF00;" d="M59.3,137.8c0,1.2-1,2.3-2.3,2.3s-2.3-1-2.3-2.3c0-1.2,1-2.3,2.3-2.3
									C58.3,135.5,59.3,136.5,59.3,137.8z"/>
								<path d="M57.1,140.6c-1.6,0-2.8-1.3-2.8-2.8s1.3-2.8,2.8-2.8s2.8,1.3,2.8,2.8C59.9,139.4,58.6,140.6,57.1,140.6z
									 M57.1,136.1c-0.9,0-1.7,0.8-1.7,1.7c0,1,0.7,1.7,1.7,1.7c0.9,0,1.7-0.8,1.7-1.7C58.7,136.8,58,136.1,57.1,136.1z"/>
							</g>
							<g>
								<ellipse style="fill:#FF007A;" cx="69.1" cy="136.1" rx="2.3" ry="2.3"/>
								<path d="M69.1,138.9c-1.6,0-2.8-1.3-2.8-2.8s1.3-2.8,2.8-2.8c1.6,0,2.8,1.3,2.8,2.8C71.8,137.7,70.6,138.9,69.1,138.9z
									 M69.1,134.4c-0.9,0-1.7,0.8-1.7,1.7c0,1,0.7,1.7,1.7,1.7c0.9,0,1.7-0.8,1.7-1.7C70.7,135.2,70,134.4,69.1,134.4z"/>
							</g>
							<g>
								<path style="fill:#00FF00;" d="M83.5,132.8c0,1.2-1,2.3-2.3,2.3c-1.2,0-2.3-1-2.3-2.3s1-2.3,2.3-2.3
									C82.5,130.5,83.5,131.5,83.5,132.8z"/>
								<path d="M81.2,135.6c-1.6,0-2.8-1.3-2.8-2.8s1.3-2.8,2.8-2.8c1.6,0,2.8,1.3,2.8,2.8S82.8,135.6,81.2,135.6z M81.2,131.1
									c-0.9,0-1.7,0.8-1.7,1.7s0.7,1.7,1.7,1.7c0.9,0,1.7-0.8,1.7-1.7S82.1,131.1,81.2,131.1z"/>
							</g>
							<g>
								<path style="fill:#FFDE00;" d="M93.8,127.8c0,1.2-1,2.3-2.3,2.3c-1.2,0-2.3-1-2.3-2.3c0-1.2,1-2.3,2.3-2.3
									C92.8,125.5,93.8,126.5,93.8,127.8z"/>
								<path d="M91.6,130.6c-1.6,0-2.8-1.3-2.8-2.8s1.3-2.8,2.8-2.8c1.6,0,2.8,1.3,2.8,2.8C94.4,129.3,93.1,130.6,91.6,130.6z
									 M91.6,126.1c-0.9,0-1.7,0.8-1.7,1.7c0,1,0.7,1.7,1.7,1.7c0.9,0,1.7-0.8,1.7-1.7C93.3,126.8,92.5,126.1,91.6,126.1z"/>
							</g>
							<g>
								<path style="fill:#00FF00;" d="M103.1,120.1c0,1.2-1,2.3-2.3,2.3c-1.2,0-2.3-1-2.3-2.3s1-2.3,2.3-2.3
									C102.1,117.8,103.1,118.8,103.1,120.1z"/>
								<path d="M100.8,122.9c-1.6,0-2.8-1.3-2.8-2.8s1.3-2.8,2.8-2.8c1.6,0,2.8,1.3,2.8,2.8S102.4,122.9,100.8,122.9z M100.8,118.4
									c-0.9,0-1.7,0.8-1.7,1.7c0,1,0.7,1.7,1.7,1.7c0.9,0,1.7-0.8,1.7-1.7C102.5,119.1,101.8,118.4,100.8,118.4z"/>
							</g>
							<g>
								<path style="fill:#00FF00;" d="M110.5,110.7c0,1.2-1,2.3-2.3,2.3c-1.2,0-2.3-1-2.3-2.3s1-2.3,2.3-2.3
									C109.5,108.4,110.5,109.5,110.5,110.7z"/>
								<path d="M108.3,113.5c-1.6,0-2.8-1.3-2.8-2.8s1.3-2.8,2.8-2.8s2.8,1.3,2.8,2.8C111.1,112.3,109.8,113.5,108.3,113.5z
									 M108.3,109c-0.9,0-1.7,0.8-1.7,1.7c0,1,0.7,1.7,1.7,1.7c0.9,0,1.7-0.8,1.7-1.7C110,109.8,109.2,109,108.3,109z"/>
							</g>
							<g>
								<ellipse style="fill:#FFDE00;" cx="114.3" cy="100.9" rx="2.3" ry="2.3"/>
								<path d="M114.3,103.8c-1.6,0-2.8-1.3-2.8-2.8s1.3-2.8,2.8-2.8c1.6,0,2.8,1.3,2.8,2.8S115.8,103.8,114.3,103.8z M114.3,99.2
									c-0.9,0-1.7,0.8-1.7,1.7c0,1,0.7,1.7,1.7,1.7c1,0,1.7-0.8,1.7-1.7C116,100,115.2,99.2,114.3,99.2z"/>
							</g>
							<g>
								<path style="fill:#00FF00;" d="M120.9,91.8c0,1.2-1,2.3-2.3,2.3c-1.2,0-2.3-1-2.3-2.3s1-2.3,2.3-2.3
									C119.9,89.5,120.9,90.5,120.9,91.8z"/>
								<path d="M118.6,94.6c-1.6,0-2.8-1.3-2.8-2.8s1.3-2.8,2.8-2.8c1.6,0,2.8,1.3,2.8,2.8C121.4,93.3,120.2,94.6,118.6,94.6z
									 M118.6,90.1c-0.9,0-1.7,0.8-1.7,1.7c0,1,0.7,1.7,1.7,1.7c0.9,0,1.7-0.8,1.7-1.7S119.5,90.1,118.6,90.1z"/>
							</g>
						</g>
						<g>
							<path d="M86,45.3c-7.6,0-19.1-7.6-19.7-7.9c-0.2-0.2-0.3-0.5-0.2-0.8c0.2-0.2,0.5-0.3,0.8-0.2c0.1,0.1,12.6,8.3,19.8,7.7
								c7-0.6,8.5-2.9,8.6-2.9c0.2-0.2,0.5-0.3,0.8-0.2c0.2,0.2,0.3,0.5,0.2,0.8c-0.1,0.1-1.8,2.8-9.4,3.4
								C86.6,45.3,86.3,45.3,86,45.3z"/>
							<g>
								<ellipse style="fill:#FFDE00;" cx="66.9" cy="37.1" rx="2.3" ry="2.3"/>
								<path d="M66.9,39.9c-1.6,0-2.8-1.3-2.8-2.8s1.3-2.8,2.8-2.8c1.6,0,2.8,1.3,2.8,2.8S68.5,39.9,66.9,39.9z M66.9,35.4
									c-0.9,0-1.7,0.8-1.7,1.7c0,1,0.7,1.7,1.7,1.7c0.9,0,1.7-0.8,1.7-1.7C68.6,36.2,67.9,35.4,66.9,35.4z"/>
							</g>
							<g>
								<path style="fill:#FF007A;" d="M78.1,41.5c0,1.2-1,2.3-2.3,2.3s-2.3-1-2.3-2.3c0-1.2,1-2.3,2.3-2.3
									C77.1,39.2,78.1,40.3,78.1,41.5z"/>
								<path d="M75.8,44.3c-1.6,0-2.8-1.3-2.8-2.8s1.3-2.8,2.8-2.8c1.6,0,2.8,1.3,2.8,2.8S77.4,44.3,75.8,44.3z M75.8,39.8
									c-0.9,0-1.7,0.8-1.7,1.7c0,1,0.7,1.7,1.7,1.7s1.7-0.8,1.7-1.7C77.5,40.6,76.7,39.8,75.8,39.8z"/>
							</g>
							<g>
								<ellipse style="fill:#FFDE00;" cx="86.8" cy="44.8" rx="2.3" ry="2.3"/>
								<path d="M86.8,47.7c-1.6,0-2.8-1.3-2.8-2.8s1.3-2.8,2.8-2.8c1.6,0,2.8,1.3,2.8,2.8S88.3,47.7,86.8,47.7z M86.8,43.1
									c-0.9,0-1.7,0.8-1.7,1.7c0,1,0.7,1.7,1.7,1.7s1.7-0.8,1.7-1.7S87.7,43.1,86.8,43.1z"/>
							</g>
							<g>
								<ellipse style="fill:#FFDE00;" cx="95.9" cy="41.3" rx="2.3" ry="2.3"/>
								<path d="M95.9,44.1c-1.6,0-2.8-1.3-2.8-2.8c0-1.6,1.3-2.8,2.8-2.8c1.6,0,2.8,1.3,2.8,2.8C98.7,42.9,97.4,44.1,95.9,44.1z
									 M95.9,39.6c-0.9,0-1.7,0.8-1.7,1.7c0,1,0.7,1.7,1.7,1.7c0.9,0,1.7-0.8,1.7-1.7C97.6,40.4,96.8,39.6,95.9,39.6z"/>
							</g>
						</g>
						<g>
							<path d="M65.6,90.8c-0.4,0-0.8,0-1.2,0c-14.1-0.7-22.7-14.1-22.8-14.2c-0.2-0.2-0.1-0.6,0.2-0.8c0.2-0.2,0.6-0.1,0.8,0.2
								c0.1,0.1,8.4,13,21.9,13.7c13.5,0.7,25.6-11,25.8-11.2c0.2-0.2,0.6-0.2,0.8,0c0.2,0.2,0.2,0.6,0,0.8
								C90.5,79.8,79.2,90.8,65.6,90.8z"/>
							<g>
								<path style="fill:#00FF00;" d="M44,75.8c0.3,1.2-0.4,2.4-1.6,2.8c-1.2,0.3-2.4-0.4-2.8-1.6s0.4-2.4,1.6-2.8
									C42.4,73.9,43.6,74.6,44,75.8z"/>
								<path d="M41.8,79.2c-0.5,0-1-0.1-1.4-0.4c-0.6-0.4-1.1-1-1.3-1.7c-0.4-1.5,0.5-3.1,2-3.5c0.7-0.2,1.5-0.1,2.1,0.3
									c0.6,0.4,1.1,1,1.3,1.7c0.4,1.5-0.5,3.1-2,3.5C42.3,79.2,42,79.2,41.8,79.2z M41.8,74.7c-0.1,0-0.3,0-0.5,0.1
									c-0.9,0.2-1.4,1.2-1.2,2.1c0.1,0.4,0.4,0.8,0.8,1c0.4,0.2,0.8,0.3,1.3,0.2c0.9-0.2,1.4-1.2,1.2-2.1c-0.1-0.4-0.4-0.8-0.8-1
									C42.4,74.8,42.1,74.7,41.8,74.7z"/>
							</g>
							<g>
								<path style="fill:#FF007A;" d="M50.6,83.1c0.3,1.2-0.4,2.4-1.6,2.8c-1.2,0.3-2.4-0.4-2.8-1.6c-0.3-1.2,0.4-2.4,1.6-2.8
									C49,81.1,50.3,81.9,50.6,83.1z"/>
								<path d="M48.4,86.5c-0.5,0-1-0.1-1.4-0.4c-0.6-0.4-1.1-1-1.3-1.7c-0.4-1.5,0.5-3.1,2-3.5c0.7-0.2,1.5-0.1,2.1,0.3
									c0.6,0.4,1.1,1,1.3,1.7c0.4,1.5-0.5,3.1-2,3.5C48.9,86.5,48.7,86.5,48.4,86.5z M48.4,82c-0.1,0-0.3,0-0.5,0.1
									c-0.9,0.2-1.4,1.2-1.2,2.1c0.1,0.4,0.4,0.8,0.8,1c0.4,0.2,0.8,0.3,1.3,0.2c0.9-0.2,1.4-1.2,1.2-2.1c-0.1-0.4-0.4-0.8-0.8-1
									C49,82.1,48.7,82,48.4,82z"/>
							</g>
							<g>
								<path style="fill:#FFDE00;" d="M59.2,87.8c0.3,1.2-0.4,2.4-1.6,2.8c-1.2,0.3-2.4-0.4-2.8-1.6c-0.3-1.2,0.4-2.4,1.6-2.8
									C57.6,85.9,58.9,86.6,59.2,87.8z"/>
								<path d="M57,91.3c-1.2,0-2.4-0.8-2.7-2.1c-0.4-1.5,0.5-3.1,2-3.5c0.7-0.2,1.5-0.1,2.1,0.3c0.6,0.4,1.1,1,1.3,1.7l0,0
									c0.4,1.5-0.5,3.1-2,3.5C57.5,91.2,57.2,91.3,57,91.3z M57,86.8c-0.1,0-0.3,0-0.5,0.1c-0.9,0.2-1.4,1.2-1.2,2.1
									c0.2,0.9,1.2,1.4,2.1,1.2c0.4-0.1,0.8-0.4,1-0.8c0.2-0.4,0.3-0.8,0.2-1.3c-0.1-0.4-0.4-0.8-0.8-1
									C57.6,86.8,57.3,86.8,57,86.8z"/>
							</g>
							<g>
								<path style="fill:#FFDE00;" d="M70.5,89.5c0.3,1.2-0.4,2.4-1.6,2.8c-1.2,0.3-2.4-0.4-2.8-1.6c-0.3-1.2,0.4-2.4,1.6-2.8
									C69,87.6,70.2,88.3,70.5,89.5z"/>
								<path d="M68.3,92.9c-0.5,0-1-0.1-1.4-0.4c-0.6-0.4-1.1-1-1.3-1.7c-0.2-0.7-0.1-1.5,0.3-2.2c0.4-0.7,1-1.1,1.7-1.3
									c0.7-0.2,1.5-0.1,2.1,0.3c0.6,0.4,1.1,1,1.3,1.7c0.4,1.5-0.5,3.1-2,3.5C68.8,92.9,68.6,92.9,68.3,92.9z M68.3,88.4
									c-0.1,0-0.3,0-0.5,0.1c-0.4,0.1-0.8,0.4-1,0.8c-0.2,0.4-0.3,0.8-0.2,1.3c0.1,0.4,0.4,0.8,0.8,1c0.4,0.2,0.8,0.3,1.3,0.2
									c0.9-0.2,1.4-1.2,1.2-2.1c-0.1-0.4-0.4-0.8-0.8-1C68.9,88.5,68.7,88.4,68.3,88.4z"/>
							</g>
							<g>
								<path style="fill:#FF007A;" d="M81.6,86.3c0.3,1.2-0.4,2.4-1.6,2.8c-1.2,0.3-2.4-0.4-2.8-1.6c-0.3-1.2,0.4-2.4,1.6-2.8
									C80.1,84.4,81.3,85.1,81.6,86.3z"/>
								<path d="M79.5,89.7c-0.5,0-1-0.1-1.4-0.4c-0.6-0.4-1.1-1-1.3-1.7c-0.4-1.5,0.5-3.1,2-3.5c0.7-0.2,1.5-0.1,2.1,0.3
									c0.6,0.4,1.1,1,1.3,1.7l0,0c0.2,0.7,0.1,1.5-0.3,2.2c-0.4,0.7-1,1.1-1.7,1.3C80,89.6,79.7,89.7,79.5,89.7z M79.5,85.2
									c-0.1,0-0.3,0-0.5,0.1c-0.9,0.2-1.4,1.2-1.2,2.1c0.1,0.4,0.4,0.8,0.8,1c0.4,0.2,0.8,0.3,1.3,0.2c0.4-0.1,0.8-0.4,1-0.8
									c0.2-0.4,0.3-0.8,0.2-1.3l0,0c-0.1-0.4-0.4-0.8-0.8-1C80.1,85.2,79.8,85.2,79.5,85.2z"/>
							</g>
							<g>
								<path style="fill:#FF007A;" d="M92.4,78.6c0.3,1.2-0.4,2.4-1.6,2.8c-1.2,0.3-2.4-0.4-2.8-1.6s0.4-2.4,1.6-2.8
									C90.9,76.7,92.1,77.4,92.4,78.6z"/>
								<path d="M90.3,82c-0.5,0-1-0.1-1.4-0.4c-0.6-0.4-1.1-1-1.3-1.7c-0.4-1.5,0.5-3.1,2-3.5c0.7-0.2,1.5-0.1,2.1,0.3
									c0.6,0.4,1.1,1,1.3,1.7l0,0c0.2,0.7,0.1,1.5-0.3,2.2c-0.4,0.7-1,1.1-1.7,1.3C90.8,82,90.5,82,90.3,82z M90.3,77.5
									c-0.1,0-0.3,0-0.5,0.1c-0.9,0.2-1.4,1.2-1.2,2.1c0.1,0.4,0.4,0.8,0.8,1c0.4,0.2,0.8,0.3,1.3,0.2c0.4-0.1,0.8-0.4,1-0.8
									c0.2-0.4,0.3-0.8,0.2-1.3l0,0c-0.1-0.4-0.4-0.8-0.8-1C90.8,77.5,90.5,77.5,90.3,77.5z"/>
							</g>
						</g>
					</g>
				</g>
			</g>
		</g>
		<g id="ornament_x5F_application_1_">
			<g>
				<path style="fill:#00DB00;" d="M135,159.9c0.9-0.1,1.7-0.6,2.3-1.2c0.5,1.3,2.2,2.2,3.9,2c-1.4,0.7-1.8,2.1-1.7,3.7
					c-1.2-0.2-2.5,0.3-3.3,1.3c-1.2-0.6-2.8-0.2-3.6,0.9c-0.5-1.1-1.8-1.7-2.9-1.4c0.4-0.5,0.4-1.2,0.1-1.7c-0.3-0.5-1-0.8-1.5-0.6
					c0.9-0.3,1.3-1.4,1-2.3c0.1,0.2,1,0.1,1.1,0.1c0.4-0.1,0.7-0.2,1.1-0.4c0.3-0.2,0.8-1.1,0.8-1.1s0.8,0.6,1.1,0.6
					C134,159.9,134.5,160,135,159.9z"/>
				<path d="M137.4,158.6c0.4,1.2,1.9,2.1,3.5,2.1c0.1,0,0.2,0,0.4,0c-1.4,0.7-1.8,2.1-1.7,3.7c-0.2,0-0.4-0.1-0.6-0.1
					c-1,0-2.1,0.5-2.7,1.3c-0.4-0.2-0.8-0.2-1.2-0.2c-0.9,0-1.8,0.4-2.4,1.2c-0.4-0.9-1.3-1.5-2.3-1.5c-0.2,0-0.4,0-0.6,0.1
					c0.4-0.5,0.4-1.2,0.1-1.7c-0.2-0.4-0.7-0.7-1.2-0.7c-0.1,0-0.2,0-0.3,0c0.9-0.3,1.3-1.4,1-2.3c0,0.1,0.3,0.1,0.6,0.1
					s0.5,0,0.5,0c0.4-0.1,0.7-0.2,1.1-0.4c0.3-0.2,0.8-1.1,0.8-1.1s0.8,0.6,1.1,0.6c0.3,0.1,0.6,0.1,1,0.1c0.2,0,0.4,0,0.6,0
					C135.9,159.7,136.7,159.3,137.4,158.6 M141.2,160.7L141.2,160.7 M137.4,157.5c-0.3,0-0.6,0.1-0.8,0.4c-0.4,0.5-1.1,0.8-1.7,0.9
					c-0.1,0-0.3,0-0.4,0c-0.2,0-0.5,0-0.7-0.1c-0.1,0-0.5-0.3-0.7-0.5c-0.2-0.1-0.4-0.2-0.6-0.2c-0.1,0-0.1,0-0.2,0
					c-0.3,0.1-0.6,0.2-0.7,0.5s-0.4,0.6-0.5,0.7c-0.2,0.1-0.4,0.2-0.6,0.2c0,0-0.2,0-0.4,0l0,0h0c-0.2-0.1-0.4-0.1-0.5-0.1
					c-0.1,0-0.3,0-0.4,0.1c-0.6,0.2-0.8,0.9-0.6,1.5c0,0.1,0,0.3,0,0.5c-0.1,0.2-0.2,0.3-0.3,0.4c-0.6,0.2-0.8,0.8-0.7,1.4
					c0.1,0.5,0.6,0.8,1.1,0.8c0.1,0,0.2,0,0.2,0h0c0.1,0,0.2,0.1,0.3,0.1c0.1,0.1,0,0.3,0,0.4c-0.3,0.4-0.3,0.9-0.1,1.3
					c0.2,0.3,0.6,0.5,1,0.5c0.1,0,0.2,0,0.3,0c0.1,0,0.2,0,0.3,0c0.5,0,1.1,0.4,1.3,0.8c0.1,0.4,0.5,0.6,0.9,0.7c0,0,0.1,0,0.1,0
					c0.4,0,0.7-0.2,0.9-0.5c0.3-0.4,0.9-0.7,1.5-0.7c0.2,0,0.5,0.1,0.7,0.1c0.1,0.1,0.3,0.1,0.5,0.1c0.4,0,0.7-0.1,0.9-0.5
					c0.4-0.5,1.1-0.9,1.8-0.9c0.1,0,0.2,0,0.4,0c0.1,0,0.1,0,0.2,0c0.3,0,0.5-0.1,0.7-0.3c0.2-0.2,0.4-0.6,0.4-1
					c-0.1-1.3,0.2-2.2,1-2.6c0.4-0.2,0.7-0.6,0.7-1c0-0.6-0.5-1.1-1.1-1.1l0,0h0c0,0,0,0-0.1,0c-0.1,0-0.2,0-0.3,0
					c-1.2,0-2.2-0.7-2.5-1.3c-0.1-0.4-0.5-0.6-0.8-0.7C137.5,157.5,137.4,157.5,137.4,157.5L137.4,157.5z"/>
			</g>
			<g>
				<path style="fill:#00E500;" d="M127.7,155.5c1-0.1,1.9-0.6,2.5-1.4c0.6-0.8,0.9-1.8,0.8-2.8c0.7,0.6,1.8,0.7,2.6,0.3
					c0.9-0.4,1.6-1,2.2-1.7c-0.6,1.5-0.1,3.4,1.1,4.4c-1.2,0.4-2,1.7-1.8,2.9c-0.4-0.2-0.9,0.1-1.2,0.4c-0.7,0.7-1,1.7-1,2.7
					c-1.3-0.1-2.6,0.5-3.4,1.5c0.1-0.1,0-0.5-0.1-0.6c-0.1-0.2-0.2-0.4-0.3-0.6s-0.3-0.3-0.5-0.4c-0.2-0.1-0.5-0.1-0.6-0.2
					c-0.2-0.1,0-0.4,0-0.6c0.1-0.2,0.1-0.5,0.1-0.7c0.1-0.5,0-1,0-1.5C128.2,156.5,128,156,127.7,155.5z"/>
				<path d="M135.9,149.9L135.9,149.9 M135.9,149.9c-0.6,1.5-0.1,3.4,1.1,4.4c-1.2,0.4-2,1.7-1.8,2.9c-0.1,0-0.2-0.1-0.3-0.1
					c-0.3,0-0.7,0.2-0.9,0.5c-0.7,0.7-1,1.7-1,2.7c-0.1,0-0.2,0-0.3,0c-1.2,0-2.4,0.6-3.1,1.5c0.1-0.1,0-0.5-0.1-0.6
					c-0.1-0.2-0.2-0.4-0.3-0.6c-0.1-0.2-0.3-0.3-0.5-0.4c-0.2-0.1-0.5-0.1-0.6-0.2c-0.2-0.1,0-0.4,0-0.6c0.1-0.2,0.1-0.5,0.1-0.7
					c0.1-0.5,0-1,0-1.5c-0.1-0.6-0.3-1.1-0.6-1.6c1-0.1,1.9-0.6,2.5-1.4c0.6-0.8,0.9-1.8,0.8-2.8c0.4,0.4,1,0.5,1.5,0.5
					c0.4,0,0.8-0.1,1.2-0.2C134.5,151.2,135.2,150.5,135.9,149.9 M135.9,148.7L135.9,148.7c-0.2,0-0.4,0.1-0.6,0.2
					c-0.1,0-0.1,0.1-0.2,0.2c0,0,0,0,0,0c-0.6,0.7-1.2,1.2-1.8,1.4c-0.2,0.1-0.5,0.1-0.7,0.1c-0.2,0-0.5,0-0.7-0.2
					c-0.2-0.2-0.5-0.3-0.7-0.3c-0.2,0-0.4,0-0.5,0.1c-0.4,0.2-0.6,0.7-0.6,1.1c0.1,0.7-0.1,1.4-0.6,2c-0.4,0.5-1.1,0.9-1.8,1
					c-0.4,0-0.7,0.3-0.9,0.6c-0.2,0.4-0.1,0.8,0,1.1c0.2,0.4,0.4,0.8,0.5,1.2c0.1,0.4,0.1,0.8,0,1.2c0,0.2-0.1,0.4-0.1,0.6v0
					c-0.5,1.1,0.2,1.7,0.4,1.8c0.2,0.1,0.5,0.2,0.6,0.2c0,0,0,0,0.1,0c0.1,0,0.1,0.1,0.2,0.2s0.1,0.1,0.1,0.2c0,0.1,0.1,0.2,0.1,0.2
					c0-0.1,0-0.4,0.2-0.6l0.9,0.7l0.9,0.7c0.5-0.7,1.4-1.1,2.3-1.1c0.1,0,0.1,0,0.2,0c0,0,0.1,0,0.1,0c0.3,0,0.6-0.1,0.8-0.3
					c0.2-0.2,0.4-0.6,0.3-0.9c0-0.7,0.2-1.3,0.6-1.8c0,0,0.1-0.1,0.1-0.1c0.1,0,0.2,0,0.3,0c0.2,0,0.5-0.1,0.7-0.2
					c0.4-0.2,0.5-0.7,0.4-1.1c-0.1-0.7,0.4-1.5,1-1.7c0.4-0.1,0.7-0.5,0.8-0.9c0.1-0.4-0.1-0.8-0.4-1.1c-0.9-0.7-1.2-2-0.8-3
					c0.1-0.1,0.1-0.3,0.1-0.5C137,149.2,136.5,148.7,135.9,148.7L135.9,148.7L135.9,148.7z M135.9,151L135.9,151L135.9,151
					L135.9,151z"/>
			</g>
			<g style="opacity:0.5;">
				<path style="fill:#009100;" d="M133.3,154.5c0-0.2-0.2-0.3-0.4-0.3c-0.1,0-0.2,0-0.2,0.1c-0.1,0.1-2.7,3.4-3.3,4.9
					c-0.1,0.2,0,0.4,0.2,0.4c0.2,0.1,0.4,0,0.4-0.2l0,0c0.6-1.4,3.1-4.7,3.2-4.8S133.3,154.5,133.3,154.5z"/>
				<path style="fill:#009100;" d="M136.8,161.9L136.8,161.9c-0.1-0.2-0.2-0.3-0.4-0.2c0,0-3,1-4.4,0.7h0c-0.2,0-0.4,0.1-0.4,0.3
					c0,0.2,0.1,0.4,0.3,0.4c1.7,0.3,4.7-0.7,4.8-0.7C136.7,162.2,136.8,162.1,136.8,161.9L136.8,161.9z"/>
			</g>
			<g>
				<path style="fill:#F80000;" d="M125.5,164.5c0-0.9,0.6-1.7,1.4-2c0.1,0,0.3,0,0.4,0.1l2,2.4c0,0.1,0.1,0.1,0.1,0.2s0,0.1,0,0.2
					c-0.5,1-1.7,1.4-2.7,0.9C126,166,125.5,165.3,125.5,164.5z"/>
				<path d="M127.5,167.1c-0.4,0-0.8-0.1-1.2-0.3c-0.8-0.4-1.4-1.3-1.4-2.3l0,0c0-1.2,0.7-2.2,1.8-2.6c0.4-0.1,0.7,0,1,0.3l2,2.4
					c0.1,0.1,0.2,0.4,0.2,0.6c0,0.1,0,0.3-0.1,0.4c-0.3,0.6-0.8,1.1-1.5,1.3C128.1,167,127.8,167.1,127.5,167.1z M126.1,164.5
					c0,0.5,0.3,1,0.8,1.3c0.4,0.2,0.7,0.2,1.1,0.1c0.3-0.1,0.6-0.3,0.8-0.6l-1.8-2.2C126.4,163.3,126.1,163.9,126.1,164.5
					L126.1,164.5z M128.8,165.1L128.8,165.1L128.8,165.1z"/>
			</g>
			<g>
				<path style="fill:#E40000;" d="M126.1,161.5c0,1.3,1.1,2.3,2.4,2.3c1.3,0,2.3-1.1,2.3-2.4c0-1.3-1.1-2.3-2.4-2.3
					C127.1,159.1,126.1,160.2,126.1,161.5z"/>
				<path d="M128.4,164.3c-0.7,0-1.4-0.3-2-0.8c-0.6-0.5-0.9-1.3-0.9-2l0,0c0-0.8,0.2-1.5,0.8-2.1c0.5-0.6,1.3-0.9,2-0.9
					c1.6,0,3,1.2,3,2.9c0,0.8-0.2,1.5-0.8,2.1C130,164,129.2,164.3,128.4,164.3C128.5,164.3,128.5,164.3,128.4,164.3z M128.4,159.6
					L128.4,159.6c-0.5,0-1,0.2-1.3,0.6c-0.3,0.4-0.5,0.8-0.5,1.3l0,0c0,0.5,0.2,0.9,0.6,1.3c0.4,0.3,0.8,0.5,1.3,0.5
					c0.5,0,0.9-0.2,1.3-0.6c0.4-0.4,0.5-0.8,0.5-1.3C130.2,160.4,129.4,159.6,128.4,159.6z"/>
			</g>
			<g>
				<path style="fill:#FF0000;" d="M127.5,163.4c0,1.3,1.1,2.3,2.4,2.3s2.3-1.1,2.3-2.4c0-1.3-1.1-2.3-2.4-2.3
					C128.5,161,127.4,162.1,127.5,163.4z"/>
				<path d="M129.8,166.3c-0.7,0-1.4-0.3-2-0.8c-0.6-0.5-0.9-1.3-0.9-2l0,0c0-1.6,1.2-3,2.8-3c0,0,0.1,0,0.1,0
					c1.6,0,2.9,1.3,2.9,2.9c0,0.8-0.2,1.5-0.8,2.1C131.4,166,130.7,166.3,129.8,166.3C129.9,166.3,129.9,166.3,129.8,166.3z
					 M129.8,161.6C129.8,161.6,129.8,161.6,129.8,161.6c-1.1,0-1.8,0.9-1.8,1.9l0,0c0,0.5,0.2,0.9,0.6,1.3c0.4,0.3,0.8,0.5,1.3,0.5
					c0.5,0,0.9-0.2,1.3-0.6c0.3-0.4,0.5-0.8,0.5-1.3C131.6,162.4,130.8,161.6,129.8,161.6z"/>
			</g>
		</g>
		<g id="ornament_x5F_application_00000127004084274021391540000007507109070970003853_">
			<g>
				<path style="fill:#00DB00;" d="M52.4,51.2c-0.1-0.9-0.6-1.7-1.2-2.4c1.3-0.5,2.2-2.2,2-4c0.7,1.4,2.1,1.8,3.7,1.7
					c-0.2,1.2,0.3,2.6,1.3,3.3c-0.6,1.2-0.2,2.8,0.9,3.6c-1.1,0.5-1.7,1.8-1.4,2.9c-0.5-0.4-1.2-0.4-1.7-0.1s-0.8,1-0.6,1.6
					c-0.3-0.9-1.4-1.4-2.3-1c0.2-0.1,0.1-1,0.1-1.1c-0.1-0.4-0.2-0.8-0.4-1.1c-0.2-0.3-1-0.8-1-0.8s0.6-0.8,0.6-1.1
					C52.4,52.2,52.5,51.7,52.4,51.2z"/>
				<path d="M53.2,44.9c0.6,1.2,1.8,1.7,3.1,1.7c0.2,0,0.4,0,0.5,0c-0.2,1.2,0.3,2.6,1.3,3.3c-0.6,1.2-0.2,2.8,0.9,3.6
					c-1.1,0.5-1.7,1.8-1.4,2.9c-0.2-0.2-0.6-0.3-0.9-0.3c-0.2,0-0.5,0.1-0.7,0.2c-0.5,0.3-0.8,1-0.6,1.6c-0.2-0.7-1-1.1-1.7-1.1
					c-0.2,0-0.4,0-0.6,0.1c0.2-0.1,0.1-1,0.1-1.1c-0.1-0.4-0.2-0.8-0.4-1.1c-0.2-0.3-1-0.8-1-0.8s0.6-0.8,0.6-1.1
					c0.1-0.5,0.1-1.1,0.1-1.6c-0.1-0.9-0.6-1.7-1.2-2.4C52.4,48.4,53.4,46.7,53.2,44.9 M56.9,46.6L56.9,46.6 M53.2,43.8
					c-0.1,0-0.2,0-0.3,0C52.4,44,52,44.5,52.1,45c0.1,1.3-0.6,2.5-1.3,2.8c-0.4,0.1-0.6,0.5-0.7,0.8c-0.1,0.4,0,0.8,0.4,1.1
					c0.5,0.4,0.8,1.1,0.9,1.7c0.1,0.4,0,0.7-0.1,1.1c0,0.1-0.3,0.5-0.5,0.7c-0.2,0.2-0.2,0.6-0.2,0.9c0.1,0.3,0.2,0.6,0.5,0.7
					c0.3,0.2,0.6,0.4,0.7,0.5c0.1,0.2,0.2,0.4,0.2,0.6c0,0.1,0,0.5,0,0.6c0-0.1,0.2-0.5,0.6-0.6l0.4,1.1l0.4,1.1c0,0,0.1,0,0.2,0
					c0.3,0,0.6,0.2,0.6,0.4c0.2,0.5,0.6,0.7,1.1,0.7c0.1,0,0.2,0,0.3,0c0.6-0.2,0.9-0.8,0.8-1.3c0-0.1,0-0.3,0.1-0.3
					c0,0,0.1,0,0.1,0c0.1,0,0.1,0,0.2,0.1c0.2,0.2,0.5,0.2,0.7,0.2c0.2,0,0.4-0.1,0.6-0.2c0.4-0.3,0.6-0.8,0.5-1.2
					c-0.1-0.6,0.2-1.3,0.8-1.6c0.4-0.1,0.6-0.5,0.7-0.9c0-0.4-0.1-0.8-0.5-1.1c-0.6-0.5-0.9-1.5-0.6-2.2c0.2-0.5,0.1-1.1-0.4-1.4
					c-0.6-0.5-1-1.3-0.8-2.2c0-0.1,0-0.2,0-0.3c0-0.6-0.5-1.1-1.1-1.1l0,0h0c0,0-0.1,0-0.1,0c-0.1,0-0.3,0-0.4,0
					c-1.6,0-2-0.8-2.1-1.1C54,44,53.6,43.8,53.2,43.8L53.2,43.8z"/>
			</g>
			<g>
				<path style="fill:#00E500;" d="M48,58.6c-0.1-1-0.6-1.9-1.4-2.6c-0.8-0.6-1.8-0.9-2.8-0.8c0.6-0.7,0.6-1.8,0.3-2.7
					c-0.4-0.9-1-1.6-1.7-2.2c1.5,0.6,3.4,0.1,4.4-1.1c0.4,1.2,1.7,2,2.9,1.8c-0.2,0.4,0.1,0.9,0.4,1.2c0.7,0.7,1.7,1.1,2.6,1
					c-0.1,1.3,0.5,2.6,1.5,3.4c-0.1-0.1-0.5,0-0.6,0.1c-0.2,0.1-0.4,0.2-0.6,0.3s-0.3,0.3-0.4,0.5c-0.1,0.2-0.1,0.5-0.2,0.6
					c-0.1,0.2-0.4,0-0.6,0c-0.2-0.1-0.5-0.1-0.7-0.1c-0.5-0.1-1,0-1.5,0C49,58.1,48.5,58.3,48,58.6z"/>
				<path d="M46.8,49.2c0.3,1.1,1.4,1.8,2.5,1.8c0.1,0,0.2,0,0.4,0c-0.2,0.4,0.1,0.9,0.4,1.2c0.6,0.6,1.5,1,2.4,1c0.1,0,0.1,0,0.2,0
					c-0.1,1.3,0.5,2.6,1.5,3.4c0,0-0.1,0-0.1,0c-0.2,0-0.4,0.1-0.5,0.1c-0.2,0.1-0.4,0.2-0.6,0.3s-0.3,0.3-0.4,0.5
					c-0.1,0.2-0.1,0.5-0.2,0.6c0,0.1-0.1,0.1-0.1,0.1c-0.1,0-0.3-0.1-0.4-0.1C51.6,58,51.4,58,51.1,58c-0.2,0-0.4,0-0.6,0
					c-0.3,0-0.6,0-0.9,0.1c-0.6,0.1-1.1,0.3-1.6,0.6c-0.1-1-0.6-1.9-1.4-2.6c-0.7-0.5-1.5-0.8-2.4-0.8c-0.1,0-0.3,0-0.4,0
					c0.6-0.7,0.6-1.8,0.3-2.7c-0.4-0.9-1-1.6-1.7-2.2c0.5,0.2,0.9,0.3,1.4,0.3C45,50.6,46.2,50.1,46.8,49.2 M49.8,51L49.8,51
					 M52.8,53.2L52.8,53.2 M46.8,48.1c-0.4,0-0.7,0.1-0.9,0.4c-0.5,0.6-1.3,1-2.1,1c-0.4,0-0.7-0.1-1-0.2c-0.1-0.1-0.3-0.1-0.5-0.1
					c-0.4,0-0.7,0.2-1,0.5c-0.3,0.5-0.2,1.1,0.2,1.4c0.7,0.6,1.2,1.2,1.4,1.8c0.2,0.6,0.2,1.2-0.1,1.5c-0.3,0.4-0.4,0.8-0.1,1.3
					c0.2,0.4,0.6,0.6,1,0.6c0,0,0.1,0,0.1,0c0.1,0,0.2,0,0.3,0c0.6,0,1.2,0.2,1.7,0.6c0.5,0.4,0.9,1.1,1,1.8c0,0.4,0.3,0.7,0.6,0.9
					c0.1,0.1,0.3,0.1,0.5,0.1c0.2,0,0.4-0.1,0.6-0.2c0.4-0.2,0.8-0.4,1.2-0.5c0.2,0,0.5-0.1,0.7-0.1c0.2,0,0.3,0,0.5,0
					c0.2,0,0.4,0.1,0.6,0.1h0c0.1,0.1,0.4,0.2,0.7,0.2c0.5,0,0.8-0.2,1.1-0.6c0.1-0.2,0.2-0.5,0.2-0.6c0,0,0,0,0-0.1
					c0-0.1,0.1-0.1,0.2-0.2c0.1-0.1,0.1-0.1,0.2-0.1c0,0,0.1,0,0.1,0c0,0,0.1,0,0.1,0c0.3,0,0.7-0.1,0.9-0.4
					c0.4-0.5,0.3-1.2-0.2-1.6c-0.7-0.6-1.1-1.5-1.1-2.4c0,0,0-0.1,0-0.1c0-0.6-0.5-1.1-1.1-1.1l0,0l0,0c0,0,0,0,0,0l0,0l0,0
					c0,0,0,0-0.1,0c0,0-0.1,0-0.1,0c-0.6,0-1.2-0.2-1.6-0.7c0,0-0.1-0.1-0.1-0.1c0-0.1,0-0.2,0-0.3c0-0.6-0.5-1.1-1.1-1.1l0,0
					c0,0,0,0-0.1,0c0,0-0.1,0-0.1,0c-0.1,0-0.1,0-0.2,0c-0.6,0-1.3-0.5-1.4-1.1c-0.1-0.4-0.5-0.7-0.9-0.8
					C47,48.1,46.9,48.1,46.8,48.1L46.8,48.1z"/>
			</g>
			<g style="opacity:0.5;">
				<path style="fill:#009100;" d="M47,52.9c-0.2,0-0.3,0.2-0.3,0.4c0,0.1,0,0.2,0.1,0.2c0.1,0.1,3.4,2.7,4.9,3.3
					c0.2,0.1,0.4,0,0.4-0.2c0.1-0.2,0-0.4-0.2-0.4l0,0c-1.4-0.6-4.7-3.2-4.7-3.2C47.2,53,47.1,52.9,47,52.9z"/>
				<path style="fill:#009100;" d="M54.4,49.4L54.4,49.4c-0.2,0.1-0.3,0.2-0.2,0.4c0,0,1,3,0.7,4.4v0c0,0.2,0.1,0.4,0.3,0.4
					c0.2,0,0.4-0.1,0.4-0.3c0.3-1.7-0.7-4.7-0.7-4.8C54.8,49.5,54.6,49.4,54.4,49.4L54.4,49.4z"/>
			</g>
			<g>
				<path style="fill:#F80000;" d="M57,60.8c-0.9,0-1.7-0.6-2-1.4c0-0.1,0-0.3,0.1-0.4l2.4-2c0.1,0,0.1-0.1,0.2-0.1
					c0.1,0,0.1,0,0.2,0c1,0.5,1.4,1.7,0.9,2.7C58.4,60.3,57.8,60.8,57,60.8z"/>
				<path d="M57,61.4c-1.1,0-2.2-0.7-2.5-1.9c-0.1-0.4,0-0.7,0.3-1l2.4-2c0.1-0.1,0.4-0.2,0.6-0.2c0.1,0,0.3,0,0.4,0.1
					c0.6,0.3,1.1,0.8,1.3,1.5c0.2,0.7,0.2,1.4-0.1,2c-0.4,0.8-1.3,1.4-2.2,1.4l0,0C57,61.4,57,61.4,57,61.4z M55.6,59.3
					c0.2,0.6,0.8,0.9,1.4,0.9c0.5,0,1-0.3,1.3-0.8c0.2-0.4,0.2-0.7,0.1-1.1c-0.1-0.3-0.3-0.6-0.6-0.8L55.6,59.3z M57.9,57.4
					L57.9,57.4L57.9,57.4z"/>
			</g>
			<g>
				<path style="fill:#E40000;" d="M54,60.2c1.3,0,2.3-1.1,2.3-2.4c0-1.3-1.1-2.3-2.4-2.3c-1.3,0-2.3,1.1-2.3,2.4
					C51.6,59.2,52.7,60.2,54,60.2z"/>
				<path d="M53.9,60.8c-0.7,0-1.4-0.3-2-0.8c-0.6-0.5-0.9-1.3-0.9-2c0-0.8,0.2-1.5,0.8-2.1c0.5-0.6,1.3-0.9,2-0.9s1.5,0.2,2.1,0.8
					c0.6,0.5,0.9,1.3,0.9,2C56.8,59.3,55.6,60.7,53.9,60.8C54,60.8,54,60.8,53.9,60.8z M53.9,56C53.9,56,53.9,56,53.9,56
					c-0.6,0-1,0.2-1.3,0.6c-0.3,0.4-0.5,0.8-0.5,1.3s0.2,0.9,0.6,1.3c0.4,0.3,0.8,0.5,1.3,0.5c1,0,1.8-0.9,1.7-1.9
					c0-0.5-0.2-0.9-0.6-1.3C54.8,56.2,54.4,56,53.9,56z"/>
			</g>
			<g>
				<path style="fill:#FF0000;" d="M56,58.8c1.3,0,2.3-1.1,2.3-2.4c0-1.3-1.1-2.3-2.4-2.3c-1.3,0-2.3,1.1-2.3,2.4
					C53.6,57.8,54.7,58.8,56,58.8z"/>
				<path d="M55.9,59.3c-0.7,0-1.4-0.3-2-0.8c-0.6-0.5-0.9-1.3-0.9-2c0-1.6,1.2-3,2.8-3c1.6,0,3,1.2,3,2.9S57.5,59.3,55.9,59.3
					C56,59.3,55.9,59.3,55.9,59.3z M55.9,54.6L55.9,54.6c-0.5,0-1,0.2-1.3,0.6c-0.3,0.4-0.5,0.8-0.5,1.3c0,0.5,0.2,0.9,0.6,1.3
					s0.8,0.5,1.3,0.5l0,0c1,0,1.8-0.9,1.7-1.9C57.7,55.4,56.9,54.6,55.9,54.6z"/>
			</g>
		</g>
		<g id="bell_x5F_application_1_">
			<g>
				<path style="fill:#FF8400;" d="M66.1,126.1L66.1,126.1c1,0,1.8-0.8,1.8-1.8l-0.4-0.4h-2.8l-0.4,0.4
					C64.3,125.3,65.1,126.1,66.1,126.1z"/>
				<path style="fill:#FFC100;" d="M60.1,124.3H72c0.3,0,0.6-0.2,0.6-0.6l0,0c0-0.3-0.2-0.6-0.6-0.6l-0.5-0.4H60.7l-0.6,0.4
					c-0.3,0-0.6,0.2-0.6,0.6l0,0C59.5,124,59.8,124.3,60.1,124.3z"/>
				<path style="fill:#FF9100;" d="M70.7,123.7L70.7,123.7c0,0.3-0.2,0.6-0.6,0.6h1.8c0.3,0,0.6-0.2,0.6-0.6l0,0
					c0-0.3-0.2-0.6-0.6-0.6l-0.5-0.4h-1.8l0.5,0.4C70.5,123.2,70.7,123.4,70.7,123.7z"/>
				<path style="fill:#FFFFFF;" d="M61,120c0.6-0.6,0.9-1.3,0.9-2.2V115c0-2.3,1.8-4.1,4.1-4.1c2.3,0,4.1,1.8,4.1,4.1v2.8
					c0,0.8,0.3,1.6,0.9,2.2l1,0.9h-5.2h-1.6h-5.2L61,120z"/>
				<path style="fill:#FFC100;" d="M61,120c0.6-0.6,0.9-1.3,0.9-2.2V115c0-2.3,1.8-4.1,4.1-4.1c2.3,0,4.1,1.8,4.1,4.1v2.8
					c0,0.8,0.3,1.6,0.9,2.2l1,0.9l-0.8,0.4H60.9l-0.8-0.4L61,120z"/>
				<path style="fill:#FF9100;" d="M65.1,111c0.8,0.2,1.4,0.6,2,1.1c0.7,0.7,1.2,1.8,1.2,2.9v2.8c0,0.8,0.3,1.6,0.9,2.2l1,0.9H72
					l-1-0.9c-0.6-0.6-0.9-1.3-0.9-2.2V115c0-1.1-0.5-2.2-1.2-2.9c-0.7-0.7-1.8-1.2-2.9-1.2C65.7,110.9,65.4,111,65.1,111z"/>
				<path style="fill:#FF9100;" d="M59.5,121.3v1.4c0,0.2,0.2,0.4,0.4,0.4h12.2c0.2,0,0.4-0.2,0.4-0.4v-1.4c0-0.2-0.2-0.4-0.4-0.4
					H59.9C59.7,120.9,59.5,121.1,59.5,121.3z"/>
				<path style="fill:#FF8400;" d="M70.3,123.2h1.8c0.2,0,0.4-0.2,0.4-0.4v-1.4c0-0.2-0.2-0.4-0.4-0.4h-1.8c0.2,0,0.5,0.2,0.5,0.5
					v1.4C70.7,122.9,70.6,123.2,70.3,123.2z"/>
			</g>
			<path d="M66,110.9c0.5,0,0.9,0.1,1.3,0.2c0.6,0.2,1.2,0.6,1.6,1c0.7,0.7,1.2,1.8,1.2,2.9v2.8c0,0.6,0.2,1.2,0.5,1.7
				c0.1,0.2,0.2,0.3,0.4,0.5l1,0.9h0.1c0.2,0,0.4,0.2,0.4,0.4v1.4c0,0.2-0.2,0.4-0.4,0.4H72c0.2,0,0.3,0.1,0.4,0.2
				c0.1,0.1,0.2,0.2,0.2,0.4l0,0c0,0.3-0.2,0.6-0.6,0.6h-1.8l0,0h-2.3c0,1-0.8,1.8-1.8,1.8s-1.8-0.8-1.8-1.8h-4.2
				c-0.3,0-0.6-0.2-0.6-0.6l0,0c0-0.3,0.2-0.6,0.6-0.6H60c-0.2,0-0.4-0.2-0.4-0.4v-1.4c0-0.2,0.2-0.4,0.4-0.4h0.1l1-0.9
				c0.6-0.6,0.9-1.3,0.9-2.2V115c0-2,1.4-3.6,3.2-4l0,0h0c0.1,0,0.2,0,0.3,0c0,0,0.1,0,0.1,0C65.7,111,65.9,110.9,66,110.9
				 M66,109.8c-0.2,0-0.4,0-0.6,0c0,0-0.1,0-0.1,0c-0.1,0-0.2,0-0.4,0.1c0,0,0,0-0.1,0s-0.1,0-0.1,0c-2.3,0.6-4,2.7-4,5.1v2.8
				c0,0.5-0.2,1-0.6,1.3l-0.7,0.6c-0.7,0.2-1.2,0.8-1.2,1.5v1.4c0,0.2,0,0.4,0.1,0.5c0,0.2-0.1,0.4-0.1,0.5c0,1,0.7,1.7,1.7,1.7h3.3
				c0.5,1.1,1.5,1.8,2.7,1.8c1.2,0,2.3-0.7,2.7-1.8h1.4h1.8c0.9,0,1.7-0.8,1.7-1.7c0-0.2,0-0.4-0.1-0.5c0-0.1,0.1-0.3,0.1-0.5v-1.4
				c0-0.7-0.5-1.4-1.2-1.5l-0.7-0.6c-0.1-0.1-0.2-0.2-0.2-0.3c-0.2-0.3-0.3-0.7-0.3-1.1v-2.8c0-1.4-0.5-2.7-1.5-3.7
				c-0.6-0.6-1.3-1-2-1.3C67.1,109.9,66.6,109.8,66,109.8L66,109.8z"/>
			<g>
				<g>
					<path style="fill:#FF0000;" d="M66.8,109.3c0,0,1.1-1.6,4.1-1.6c0.5,0,1,0.4,1,1c0,0.2-0.1,0.5-0.2,0.8c0,0-0.2,0.4-0.1,0.9
						c0.1,0.5,0.7,1.6,0.1,2.3c-0.7,0.9-3.8,0.2-5.1-1.2L66.8,109.3z"/>
					<path d="M70.5,113.7c-1.3,0-3.2-0.6-4.2-1.8l-0.1-0.2l0.1-2.7l0.1-0.1c0-0.1,1.3-1.8,4.6-1.9c0.4,0,0.8,0.1,1.1,0.5
						c0.3,0.3,0.4,0.7,0.4,1.1c0,0.3-0.1,0.6-0.2,1c0,0.1-0.1,0.3-0.1,0.7c0,0.1,0.1,0.2,0.1,0.4c0.2,0.6,0.5,1.6-0.1,2.3
						c-0.3,0.4-0.8,0.6-1.6,0.6C70.6,113.7,70.6,113.7,70.5,113.7z M67.3,111.3c0.8,0.8,2.3,1.3,3.4,1.2c0.4,0,0.7-0.1,0.7-0.2
						c0.2-0.3,0.1-0.7-0.1-1.3c-0.1-0.2-0.1-0.4-0.2-0.6c-0.1-0.7,0.1-1.2,0.2-1.3c0.1-0.2,0.1-0.4,0.1-0.6c0-0.1-0.1-0.2-0.1-0.2
						c0,0-0.1-0.1-0.3-0.1c-2.2,0-3.3,1-3.6,1.3L67.3,111.3z"/>
				</g>
				<g>
					<path style="fill:#FF0000;" d="M65.2,109.3c0,0-1.1-1.6-4.1-1.6c-0.5,0-1,0.4-1,1c0,0.2,0.1,0.5,0.2,0.8c0,0,0.2,0.4,0.1,0.9
						c-0.1,0.5-0.7,1.6-0.1,2.3c0.7,0.9,3.8,0.2,5.1-1.2L65.2,109.3z"/>
					<path d="M61.5,113.7c0,0-0.1,0-0.1,0c-0.7,0-1.3-0.2-1.6-0.6c-0.6-0.8-0.3-1.7-0.1-2.3c0-0.1,0.1-0.3,0.1-0.4
						c0.1-0.3-0.1-0.6-0.1-0.6c-0.1-0.4-0.2-0.8-0.2-1.1c0-0.4,0.1-0.8,0.4-1.1c0.3-0.3,0.7-0.5,1.1-0.5c3.2,0.1,4.5,1.8,4.6,1.9
						l0.1,0.1l0.1,2.7l-0.1,0.2C64.7,113,62.8,113.7,61.5,113.7z M60.8,109.3c0,0,0.2,0.5,0.1,1.2c0,0.2-0.1,0.4-0.2,0.6
						c-0.2,0.5-0.3,1-0.1,1.3c0.1,0.1,0.3,0.2,0.7,0.2c1,0,2.5-0.5,3.4-1.2l-0.1-1.8c-0.3-0.3-1.4-1.2-3.6-1.3
						c-0.1,0-0.2,0.1-0.3,0.1c0,0-0.1,0.1-0.1,0.3C60.7,108.8,60.8,109,60.8,109.3L60.8,109.3z"/>
				</g>
				<g>
					<g>
						<path style="fill:#FF0000;" d="M67,111.9h-2c-0.1,0-0.2-0.1-0.2-0.2V109c0-0.1,0.1-0.2,0.2-0.2h2c0.1,0,0.2,0.1,0.2,0.2v2.7
							C67.1,111.8,67.1,111.9,67,111.9z"/>
						<path d="M66.7,112.5h-1.4c-0.6,0-1.1-0.5-1.1-1.1v-2.1c0-0.6,0.5-1.1,1.1-1.1h1.4c0.6,0,1.1,0.5,1.1,1.1v2.1
							C67.7,112,67.3,112.5,66.7,112.5z M65.3,111.3h1.3v-1.9h-1.3V111.3z"/>
					</g>
				</g>
			</g>
		</g>
		<g id="socks_x5F_application_1_">
			<g>
				<path style="fill:#E2EFFA;" d="M54.4,166.9l-7.5,0.3c-0.3,0-0.5,0.2-0.5,0.6l0,0.8c0,0.6,0.3,0.8,0.6,0.8l7.4-0.3
					c0.3,0,0.5-0.2,0.5-0.8l0-0.8C54.9,167.1,54.7,166.9,54.4,166.9z"/>
				<path style="fill:#FF0000;" d="M50.8,169.3l-3.6,0.5l0.2,4.5l-3.1,1.4c-0.4,0.2-0.7,0.4-1,0.7c-0.3,0.3,3.8,5.3,3.8,5.3
					c0,0,0,0,0.1,0l2.2-0.6l2.1-1.3l3.1-5l-0.2-5.2L50.8,169.3z"/>
				<path style="fill:#E2EFFA;" d="M52.2,179.7c1.6-0.7,2.4-2.6,2.4-4.3l0-0.7c-1.9,0.2-3.4,1.9-3.3,3.8c0,0.4,0.1,0.8,0.2,1.2
					L52.2,179.7z"/>
				<path style="fill:#C3DEF0;" d="M54.5,168.8l-7.4,0.3c-0.3,0-0.5-0.2-0.5-0.5l0,0.6c0,0.3,0.2,0.5,0.5,0.5l7.4-0.3
					c0.3,0,0.5-0.2,0.5-0.6l0-0.6C55,168.6,54.8,168.8,54.5,168.8z"/>
				<path style="fill:#E2EFFA;" d="M42.4,179.9c0.7,1.6,2.4,2.7,4,2.4l0.7-0.6c0.1-0.3,0.1-0.6,0.1-1c-0.1-2.2-1.8-4-3.9-4.3
					c-0.7,0.6-1.1,1.5-1.1,2.4C42.2,179.1,42.2,179.5,42.4,179.9z"/>
				<path style="fill:#C3DEF0;" d="M42.4,179.8c-0.1-0.3-0.2-0.7-0.3-1c0,0.5,0.1,1.1,0.3,1.6c0.7,1.7,2.7,2.5,4.4,1.9l0.4-0.4
					l-0.2-0.3C45.3,182.4,43.2,181.6,42.4,179.8L42.4,179.8z"/>
				<path style="fill:#C3DEF0;" d="M52.1,179.4l-0.6,0.3l-0.1,0.4l0.4,0.1l0.4-0.2c1.6-0.7,2.5-2.3,2.5-4l0-0.6
					C54.7,177.1,53.7,178.7,52.1,179.4L52.1,179.4z"/>
				<path style="fill:#F20000;" d="M51.8,180.2c-0.1-0.2-0.2-0.4-0.2-0.5l-4.3,1.9c0,0,0,0-0.1,0c0,0.2-0.1,0.5-0.2,0.7
					c0.1,0,0.2-0.1,0.3-0.1L51.8,180.2z"/>
			</g>
		</g>
		<ellipse style="fill:#FFD100;" cx="108" cy="80.5" rx="2.9" ry="2.9"/>
		<path d="M54.4,166.9c0.3,0,0.5,0.2,0.5,0.5l0,0.8l0,0l0,0l0,0.6c0,0.3-0.2,0.5-0.5,0.6h-0.1l0.2,5.2l0,0l0,0.7l0,0l0,0.6
			c0.1,1.7-0.9,3.3-2.5,4l-0.4,0.2l-4.6,2c-0.1,0-0.2,0.1-0.3,0.1c-0.4,0.1-0.8,0.2-1.2,0.2c-1.4,0-2.7-0.8-3.3-2.2
			c-0.2-0.5-0.3-1.1-0.3-1.6c0-0.9,0.4-1.8,1.1-2.4c0.3-0.3,0.6-0.5,1-0.7l3.1-1.4l-0.2-4.5h-0.1c0,0,0,0,0,0
			c-0.3,0-0.5-0.2-0.5-0.5l0-0.6l0,0l0,0l0,0l0,0l0-0.8c0-0.3,0.2-0.5,0.5-0.6L54.4,166.9L54.4,166.9 M51.5,179.7L51.5,179.7
			L51.5,179.7L51.5,179.7L51.5,179.7 M46.5,168.6L46.5,168.6L46.5,168.6L46.5,168.6L46.5,168.6 M42.2,178.8L42.2,178.8 M42.2,178.8
			L42.2,178.8L42.2,178.8 M54.4,165.8C54.4,165.8,54.4,165.8,54.4,165.8l-7.5,0.3c-0.4,0-0.8,0.2-1.1,0.5c-0.3,0.3-0.5,0.7-0.4,1.2
			l0,0.8l0,0.6c0,0.6,0.3,1,0.7,1.3l0.1,2.9l-2.4,1.1c-0.5,0.2-1,0.5-1.4,0.9c-0.8,0.8-1.4,2-1.4,3.2l0,0c0,0.7,0.1,1.4,0.4,2.2
			c0.7,1.7,2.4,2.8,4.3,2.8c0.5,0,1-0.1,1.5-0.2c0.1,0,0.2-0.1,0.4-0.1l4.6-2l0.4-0.2c2-0.9,3.2-2.9,3.1-5.1l0-0.6l0-0.7l-0.2-4.4
			c0.4-0.3,0.6-0.8,0.6-1.4l0-0.6l0-0.8C56,166.5,55.3,165.8,54.4,165.8L54.4,165.8z M42.2,179.9L42.2,179.9L42.2,179.9L42.2,179.9z
			 M42.2,179.9L42.2,179.9L42.2,179.9L42.2,179.9z"/>
	</g>
	<g>
		<polygon style="fill:#FFE600;" points="79.3,0.6 84.6,9.2 94.5,11.5 87.9,19.3 88.8,29.4 79.5,25.5 70.2,29.5 71,19.3 64.3,11.7 
			74.1,9.3 		"/>
		<polygon style="fill:#FFB400;" points="84.6,9.2 79.2,15.2 79.3,0.6 		"/>
		<polygon style="fill:#FFE600;" points="74.1,9.3 79.2,15.2 64.3,11.7 		"/>
		<polygon style="fill:#FFE600;" points="79.2,15.2 74.1,9.3 79.3,0.6 		"/>
		<polygon style="fill:#FFB400;" points="79.2,15.2 71,19.3 64.3,11.7 		"/>
		<polygon style="fill:#FFB400;" points="79.2,15.2 70.2,29.5 79.5,25.5 		"/>
		<polygon style="fill:#FFB400;" points="79.2,15.2 88.8,29.4 87.9,19.3 		"/>
		<polygon style="fill:#FFB400;" points="79.2,15.2 94.5,11.5 87.9,19.3 		"/>
		<path d="M70.2,30.1c-0.1,0-0.2,0-0.3-0.1c-0.1-0.1-0.2-0.3-0.2-0.5l0.8-9.9l-6.5-7.5c-0.1-0.1-0.2-0.4-0.1-0.5
			c0.1-0.2,0.2-0.3,0.4-0.4l9.6-2.3l5-8.5C78.9,0.1,79.1,0,79.3,0c0.2,0,0.4,0.1,0.5,0.3L85,8.7l9.6,2.2c0.2,0,0.4,0.2,0.4,0.4
			c0.1,0.2,0,0.4-0.1,0.5l-6.4,7.5l0.9,9.9c0,0.2-0.1,0.4-0.2,0.5C89,30,88.8,30,88.6,29.9l-9.2-3.8L70.4,30
			C70.3,30,70.3,30.1,70.2,30.1z M65.3,12l6,6.9c0.1,0.1,0.1,0.2,0.1,0.4l-0.7,9.2l8.4-3.6c0.1-0.1,0.3-0.1,0.4,0l8.5,3.5l-0.8-9.2
			c0-0.1,0-0.3,0.1-0.4l6-7l-8.9-2c-0.1,0-0.3-0.1-0.4-0.2l-4.8-7.9l-4.7,7.9c-0.1,0.1-0.2,0.2-0.4,0.2L65.3,12z M74.1,9.3L74.1,9.3
			L74.1,9.3z"/>
	</g>
	<g>
		<g>
			<path style="fill:#FF20A8;" d="M115.4,54.4c0,0-0.1,0-0.1,0l-4.5,0.3c-0.1,0-0.2,0-0.2,0.1l-8.4,4.2c-0.1,0-0.2,0.1-0.2,0.2
				l-3,3.4c-0.3,0.4-0.3,0.9,0,1.2l4.5,4.4c0.2,0.2,0.5,0.3,0.7,0.3c0,0,0,0,0,0l3.1-0.1c0.1,0,0.3,0,0.5-0.1l6.9-3.4
				c0.1-0.1,0.2-0.2,0.4-0.3l1.8-2.3c0.2-0.2,0.2-0.5,0.2-0.8l-0.7-6.3C116.2,54.8,115.8,54.4,115.4,54.4z"/>
			<path d="M104.2,69c-0.4,0-0.8-0.2-1.1-0.5l-4.5-4.4c-0.5-0.5-0.5-1.4,0-1.9l3-3.4c0.1-0.1,0.2-0.2,0.4-0.3l8.4-4.2
				c0.1-0.1,0.3-0.1,0.4-0.1l4.6-0.3c0,0,0.1,0,0.1,0c0.7,0,1.2,0.5,1.3,1.1l0.8,6.3c0.1,0.4-0.1,0.8-0.3,1.1l-1.8,2.3
				c-0.1,0.2-0.3,0.3-0.5,0.4l-6.9,3.4c-0.2,0.1-0.4,0.1-0.6,0.1L104.2,69C104.2,69,104.2,69,104.2,69z M115.4,54.9l-4.6,0.4
				c0,0,0,0-0.1,0l-8.4,4.2c0,0-0.1,0-0.1,0.1l-3,3.4c-0.2,0.2-0.2,0.4,0,0.6l4.5,4.4c0.1,0.1,0.2,0.2,0.4,0.2l3.1-0.1
				c0.1,0,0.2,0,0.2-0.1l6.9-3.4c0.1,0,0.1-0.1,0.2-0.1l1.8-2.3c0.1-0.1,0.1-0.3,0.1-0.4l-0.8-6.3C115.8,55.1,115.6,54.9,115.4,54.9
				z"/>
		</g>
		<g>
			<path style="fill:#FF20A8;" d="M103.1,34.4l-1.4,0c-0.2,0-0.3,0-0.5,0.1l-10,5c-0.1,0.1-0.3,0.2-0.4,0.3l-0.9,1.2
				c-0.2,0.2-0.3,0.6-0.2,0.8l1,6.9c0.1,0.5,0.5,0.8,1,0.8L97,49c0.1,0,0.2,0,0.3-0.1l7.5-3.8c0.1,0,0.2-0.1,0.2-0.2l3.7-3.9
				c0.4-0.4,0.4-1,0-1.3l-4.9-5C103.7,34.5,103.3,34.4,103.1,34.4z"/>
			<path d="M91.5,50.1c-0.7,0-1.3-0.5-1.4-1.2l-1-6.9c-0.1-0.4,0.1-0.9,0.3-1.2l0.9-1.2c0.1-0.2,0.3-0.3,0.5-0.4l10-5
				c0.2-0.1,0.4-0.2,0.7-0.2l1.4,0c0.4,0,0.8,0.2,1.2,0.5l4.9,5c0.5,0.5,0.5,1.4,0,2l-3.7,3.9c-0.1,0.1-0.2,0.2-0.4,0.3l-7.5,3.8
				c-0.1,0.1-0.3,0.1-0.5,0.1l-5.4,0.7C91.6,50.1,91.5,50.1,91.5,50.1z M103.1,34.9C103.1,34.9,103.1,34.9,103.1,34.9L103.1,34.9
				l-1.5,0c-0.1,0-0.2,0-0.3,0.1l-10,5c-0.1,0-0.1,0.1-0.2,0.2l-0.9,1.2c-0.1,0.1-0.1,0.3-0.1,0.5l1,6.9c0,0.2,0.2,0.4,0.5,0.4
				l5.3-0.7c0,0,0.1,0,0.1,0l7.5-3.8c0,0,0.1,0,0.1-0.1l3.7-3.9c0.2-0.2,0.2-0.5,0-0.6l-4.9-5C103.4,35,103.2,34.9,103.1,34.9z"/>
		</g>
		<g>
			<polygon style="fill:#FF65BE;" points="107.8,68 104.8,62.8 111.7,59.3 114,64.9 			"/>
			<path d="M107.8,68.6c-0.2,0-0.4-0.1-0.5-0.3l-3.1-5.2c-0.1-0.1-0.1-0.3-0.1-0.5c0-0.1,0.1-0.3,0.3-0.4l6.9-3.5
				c0.1-0.1,0.3-0.1,0.5,0c0.1,0.1,0.3,0.2,0.3,0.3l2.4,5.6c0.1,0.3,0,0.6-0.3,0.7l-6.2,3.1C108,68.5,107.9,68.6,107.8,68.6z
				 M105.6,63l2.5,4.2l5.2-2.6l-1.9-4.5L105.6,63z"/>
		</g>
		<path d="M99,64.1c-0.3,0-0.5-0.2-0.6-0.5c0-0.3,0.2-0.6,0.5-0.6l5.7-0.8l6.6-3.3l4.1-4.1c0.2-0.2,0.6-0.2,0.8,0
			c0.2,0.2,0.2,0.6,0,0.8l-4.2,4.1c0,0-0.1,0.1-0.1,0.1l-6.8,3.4c0,0-0.1,0-0.2,0L99,64.1C99,64.1,99,64.1,99,64.1z"/>
		<g>
			<path style="fill:#FF20A8;" d="M101.3,40.5l-2.6,1.3l-2.6,1.3c0,0,0.8,9.5,7.9,16.9l0,0c0.1,0.3,1.6-0.1,3.1-0.9
				c1.6-0.8,2.8-1.7,2.6-1.9l0,0C108.3,46.9,101.3,40.5,101.3,40.5z"/>
			<path d="M104.3,60.7c-0.5,0-0.6-0.2-0.7-0.3c-7.1-7.5-8-16.8-8.1-17.2c0-0.2,0.1-0.5,0.3-0.6L101,40c0.2-0.1,0.5-0.1,0.6,0.1
				c0.3,0.3,7.1,6.6,8.7,16.9c0,0.1,0,0.2,0,0.4c-0.2,0.8-2.1,1.8-2.9,2.2C105.8,60.4,104.9,60.7,104.3,60.7z M96.7,43.5
				c0.2,1.8,1.6,9.7,7.7,16.1c0.3,0,1.3-0.3,2.6-1c1.3-0.6,2.1-1.2,2.3-1.5c-1.4-8.7-6.8-14.6-8.1-15.9L96.7,43.5z M109.3,57.4
				L109.3,57.4L109.3,57.4z"/>
		</g>
		<g>
			<polygon style="fill:#FF65BE;" points="94.2,40.6 97.5,48.7 104.8,45 100.7,37.4 			"/>
			<path d="M97.5,49.2c-0.1,0-0.1,0-0.2,0c-0.1-0.1-0.2-0.2-0.3-0.3l-3.4-8c-0.1-0.3,0-0.6,0.3-0.7l6.5-3.3c0.3-0.1,0.6,0,0.7,0.2
				l4.1,7.7c0.1,0.1,0.1,0.3,0,0.4c0,0.1-0.1,0.3-0.3,0.4l-7.3,3.7C97.7,49.2,97.6,49.2,97.5,49.2z M94.9,40.9l2.9,7l6.2-3.1
				l-3.6-6.7L94.9,40.9z"/>
		</g>
		<path d="M89.9,42.3l-0.2-1.1l2.9-0.6c0.5-0.1,0.9-0.2,1.3-0.5l6.5-3.3c0.5-0.2,0.9-0.5,1.2-0.9l1.9-1.8l0.8,0.8l-1.9,1.8
			c-0.5,0.4-1,0.8-1.5,1.1l-6.5,3.3c-0.5,0.2-1.1,0.4-1.6,0.6L89.9,42.3z"/>
		<g>
			<path style="fill:#FF20A8;" d="M99.9,36c0.2,0.4-1.1,1.5-2.9,2.4c-1.8,0.9-3.4,1.3-3.6,0.8l-1.4-3l6.4-3.2L99.9,36z"/>
			<path d="M93.9,40c-0.5,0-0.8-0.1-1-0.5l-1.4-3c-0.1-0.3,0-0.6,0.2-0.7l6.4-3.2c0.1-0.1,0.3-0.1,0.4,0c0.1,0,0.2,0.1,0.3,0.3
				l1.4,3l0,0c0.6,1.1-2,2.5-3.1,3.1C96.5,39.3,95,40,93.9,40z M93.9,38.8c0.3,0,1.4-0.2,2.9-1c1.5-0.7,2.3-1.4,2.5-1.7l-1.1-2.3
				l-5.4,2.7L93.9,38.8z M99.3,36.3L99.3,36.3L99.3,36.3z"/>
		</g>
		<g>
			
				<ellipse transform="matrix(0.8944 -0.4474 0.4474 0.8944 -5.4614 46.2381)" style="fill:#FF65BE;" cx="95.2" cy="34.7" rx="3.6" ry="0.8"/>
			<path d="M92.4,37c-0.5,0-0.8-0.1-1-0.5c-0.6-1.1,2-2.6,3.1-3.1c1.1-0.6,3.8-1.7,4.3-0.6l0,0c0.6,1.1-2,2.5-3.1,3.1
				C95,36.3,93.5,37,92.4,37z M97.5,33.5c-0.5,0.1-1.4,0.4-2.4,0.9s-1.8,1.1-2.2,1.4c0.5-0.1,1.4-0.4,2.4-0.9
				C96.4,34.4,97.1,33.9,97.5,33.5z M98,33.5L98,33.5L98,33.5z"/>
		</g>
		<g>
			<g>
				<path style="fill:#FF20A8;" d="M96.9,33.3c0.1,0.2-0.7,0.9-1.7,1.4c-1.1,0.5-2.1,0.8-2.2,0.5l-0.9-1.8l4-2L96.9,33.3z"/>
				<path d="M93.3,35.9c-0.1,0-0.2,0-0.4,0c-0.2-0.1-0.4-0.2-0.4-0.4l-0.9-1.8c-0.1-0.1-0.1-0.3,0-0.4c0-0.1,0.1-0.2,0.3-0.3l4-2
					c0.3-0.1,0.6,0,0.7,0.2l0.9,1.8c0.3,0.6-0.4,1.1-0.6,1.3c-0.4,0.3-0.9,0.6-1.4,0.9C95,35.4,94,35.9,93.3,35.9z M92.8,33.7
					l0.5,1.1c0.2,0,0.8-0.2,1.6-0.6s1.2-0.7,1.4-0.9l-0.5-1.1L92.8,33.7z M96.4,33.5L96.4,33.5L96.4,33.5z"/>
			</g>
			<g>
				
					<ellipse transform="matrix(0.8944 -0.4474 0.4474 0.8944 -4.5657 45.507)" style="fill:#FF20A8;" cx="94.1" cy="32.4" rx="2.2" ry="0.5"/>
				<path d="M92.4,34.1c-0.4,0-0.7-0.1-0.8-0.4c-0.1-0.2-0.1-0.4,0-0.6c0.2-0.7,1.5-1.4,2-1.7c0.5-0.3,1.8-0.8,2.5-0.6
					c0.2,0.1,0.4,0.2,0.4,0.4c0.1,0.2,0.1,0.4,0,0.6c-0.2,0.7-1.5,1.4-2,1.7C93.8,33.7,93,34.1,92.4,34.1z"/>
			</g>
		</g>
		<g>
			<g>
				<path style="fill:#293643;" d="M91.7,33.2c0.1,0.5,1.3,0.6,2.7,0.2c1.4-0.3,2.4-0.9,2.3-1.4l-0.4-0.9l-5,1.1L91.7,33.2z"/>
				<path d="M92.9,34.2c-0.5,0-1-0.1-1.4-0.3c-0.2-0.1-0.4-0.4-0.4-0.5l-0.4-0.8c-0.1-0.1-0.1-0.4,0-0.5c0.1-0.1,0.2-0.3,0.4-0.3
					l5-1.1c0.2-0.1,0.5,0.1,0.6,0.3l0.4,0.9c0,0,0,0.1,0,0.1c0.2,1-1.3,1.7-2.7,2C94,34.1,93.4,34.2,92.9,34.2z M92.2,33.1
					L92.2,33.1L92.2,33.1z M92.2,33c0.2,0.1,1,0.2,2-0.1c1-0.2,1.6-0.6,1.8-0.8l-0.1-0.3l-3.8,0.8L92.2,33
					C92.2,32.9,92.2,32.9,92.2,33z"/>
			</g>
			<g>
				
					<ellipse transform="matrix(0.9758 -0.2189 0.2189 0.9758 -4.6769 21.2817)" style="fill:#FF65BE;" cx="93.7" cy="31.8" rx="2.5" ry="0.8"/>
				<path d="M92.5,33.3c-0.5,0-1-0.1-1.4-0.3c-0.3-0.2-0.4-0.4-0.4-0.6c-0.1-0.4,0-0.8,0.8-1.3c0.5-0.3,1.2-0.5,1.9-0.7
					c1.4-0.3,3.1-0.3,3.4,0.7l0,0c0.2,1-1.3,1.7-2.7,2C93.5,33.2,93,33.3,92.5,33.3z M92,32.1c0.4,0.1,1,0.1,1.8-0.1
					c0.8-0.2,1.4-0.5,1.7-0.7c-0.4-0.1-1-0.1-1.8,0.1C92.9,31.6,92.3,31.9,92,32.1z M95.7,31.4L95.7,31.4L95.7,31.4z"/>
			</g>
		</g>
		<g>
			<path style="fill:#FF20A8;" d="M95.7,32.6l1-0.6c0,0,2.6-0.4,2.6,2.8l-1.1,0.9C98.1,35.7,98.2,33.4,95.7,32.6z"/>
			<path d="M98.1,36.2c-0.1,0-0.2,0-0.2-0.1c-0.2-0.1-0.3-0.3-0.3-0.5c0-0.1,0-1.9-2-2.5c-0.2-0.1-0.4-0.2-0.4-0.5
				c0-0.2,0.1-0.5,0.3-0.6l1-0.6c0.1,0,0.1-0.1,0.2-0.1c0,0,1.3-0.2,2.2,0.6c0.7,0.6,1,1.5,1,2.7c0,0.2-0.1,0.4-0.2,0.5l-1.1,0.9
				C98.4,36.2,98.3,36.2,98.1,36.2z M97,32.6c0.9,0.6,1.3,1.3,1.6,2l0.1-0.1c0-0.7-0.2-1.3-0.6-1.6C97.7,32.7,97.2,32.6,97,32.6z"/>
		</g>
	</g>
	<g>
		<g>
			<path style="fill:#FF20A8;" d="M92.1,180.7c0,0-0.1,0-0.1,0l-4.2-1.8c-0.1,0-0.2,0-0.3,0l-9.4-0.1c-0.1,0-0.2,0-0.3,0l-4.2,1.7
				c-0.5,0.1-0.7,0.6-0.6,1.1l2,6c0.1,0.3,0.3,0.5,0.5,0.6c0,0,0,0,0,0l2.8,1.3c0.1,0.1,0.3,0.1,0.5,0.1l7.7,0.1
				c0.1,0,0.3,0,0.5-0.1l2.7-1.2c0.2-0.1,0.5-0.4,0.6-0.6l2.2-6C92.7,181.4,92.4,180.9,92.1,180.7z"/>
			<path d="M75.5,188.6c-0.4-0.2-0.7-0.5-0.8-0.9l-2-6c-0.2-0.7,0.1-1.4,0.8-1.7l4.2-1.7c0.2-0.1,0.3-0.1,0.5-0.1l9.4,0.1
				c0.1,0,0.3,0,0.4,0.1l4.2,1.8c0,0,0.1,0,0.1,0.1c0.6,0.3,0.9,1,0.6,1.6l-2.2,6c-0.1,0.4-0.4,0.7-0.8,0.9l-2.7,1.2
				c-0.2,0.1-0.4,0.1-0.6,0.1l-7.7-0.1c-0.2,0-0.5-0.1-0.6-0.1L75.5,188.6L75.5,188.6z M91.9,181.2l-4.2-1.8c0,0-0.1,0-0.1,0
				l-9.4-0.1c0,0-0.1,0-0.1,0l-4.2,1.7c-0.2,0.1-0.4,0.3-0.3,0.5l2,6c0,0.1,0.1,0.3,0.3,0.4l2.8,1.3c0.1,0,0.2,0.1,0.2,0.1l7.7,0.1
				c0.1,0,0.2,0,0.2,0l2.7-1.2c0.1-0.1,0.2-0.2,0.3-0.3l2.2-6C92.1,181.5,92.1,181.3,91.9,181.2z"/>
		</g>
		<g>
			<path style="fill:#FF20A8;" d="M90.1,157.2l-1.3-0.6c-0.1-0.1-0.3-0.1-0.5-0.1l-11.2-0.1c-0.2,0-0.3,0-0.5,0.1l-1.3,0.6
				c-0.3,0.1-0.5,0.4-0.6,0.6l-2.3,6.6c-0.2,0.5,0.1,1,0.6,1.2l5,1.9c0.1,0,0.2,0.1,0.3,0.1l8.4,0.1c0.1,0,0.2,0,0.3,0l5.1-1.8
				c0.5-0.2,0.7-0.7,0.6-1.2l-2.1-6.7C90.6,157.6,90.4,157.3,90.1,157.2z"/>
			<path d="M72.7,165.9c-0.6-0.3-0.9-1.1-0.7-1.7l2.3-6.6c0.1-0.4,0.5-0.7,0.8-0.9l1.3-0.6c0.2-0.1,0.4-0.1,0.7-0.1l11.2,0.1
				c0.2,0,0.5,0.1,0.7,0.2l1.3,0.6c0.4,0.2,0.7,0.5,0.8,1l2.1,6.7c0.2,0.7-0.2,1.5-0.9,1.8l-5.1,1.8c-0.1,0-0.3,0.1-0.5,0.1
				l-8.4-0.1c-0.2,0-0.3,0-0.5-0.1l-5-1.9C72.8,166,72.8,166,72.7,165.9z M89.9,157.7L89.9,157.7L89.9,157.7l-1.3-0.6
				c-0.1,0-0.2-0.1-0.3-0.1l-11.2-0.1c-0.1,0-0.2,0-0.3,0.1l-1.3,0.6c-0.1,0.1-0.3,0.2-0.3,0.4l-2.3,6.6c-0.1,0.2,0,0.5,0.3,0.6
				l5,1.9c0,0,0.1,0,0.1,0l8.4,0.1c0,0,0.1,0,0.1,0l5.1-1.8c0.2-0.1,0.4-0.3,0.3-0.6l-2.1-6.7C90.2,157.9,90,157.7,89.9,157.7z"/>
		</g>
		<g>
			<polygon style="fill:#FF65BE;" points="79.2,189.3 78.8,183.3 86.6,183.3 86.1,189.4 			"/>
			<path d="M79,189.9c-0.2-0.1-0.3-0.2-0.3-0.5l-0.4-6c0-0.2,0-0.3,0.1-0.5c0.1-0.1,0.3-0.2,0.4-0.2l7.7,0c0.1,0,0.3,0.1,0.4,0.2
				c0.1,0.1,0.2,0.3,0.1,0.4l-0.4,6c0,0.3-0.3,0.6-0.6,0.6l-6.9,0C79.1,189.9,79,189.9,79,189.9z M79.4,183.9l0.4,4.9l5.9,0l0.3-4.9
				L79.4,183.9z"/>
		</g>
		<path d="M73,181.8c-0.2-0.1-0.4-0.4-0.3-0.7c0.1-0.3,0.4-0.5,0.7-0.4l5.5,1.8l7.4,0.1l5.5-1.7c0.3-0.1,0.6,0.1,0.7,0.4
			c0.1,0.3-0.1,0.6-0.4,0.7l-5.6,1.7c-0.1,0-0.1,0-0.2,0l-7.6-0.1c-0.1,0-0.1,0-0.2,0l-5.5-1.9C73.1,181.9,73.1,181.8,73,181.8z"/>
		<g>
			<path style="fill:#FF20A8;" d="M85.7,161.9l-2.9,0l-2.9,0c0,0-3.5,8.8-0.5,18.7l0,0c0,0.3,1.4,0.6,3.2,0.6c1.8,0,3.2-0.2,3.2-0.5
				l0,0C89.1,170.8,85.7,161.9,85.7,161.9z"/>
			<path d="M79.4,181.2c-0.4-0.2-0.5-0.4-0.5-0.6c-3-9.9,0.4-18.7,0.6-19c0.1-0.2,0.3-0.4,0.5-0.4l5.8,0.1c0.2,0,0.4,0.1,0.5,0.4
				c0.1,0.4,3.4,9.2,0.1,19.1c0,0.1-0.1,0.2-0.2,0.4c-0.6,0.6-2.7,0.6-3.6,0.6C80.8,181.7,79.8,181.5,79.4,181.2z M80.4,162.4
				c-0.6,1.7-2.9,9.4-0.4,17.9c0.3,0.1,1.3,0.3,2.7,0.3s2.4-0.1,2.7-0.2c2.7-8.4,0.5-16.1,0-17.9L80.4,162.4z M85.3,180.6
				C85.3,180.6,85.3,180.6,85.3,180.6C85.3,180.6,85.3,180.6,85.3,180.6z"/>
		</g>
		<g>
			<polygon style="fill:#FF65BE;" points="79.4,158.7 78.7,167.4 86.9,167.5 86.7,158.8 			"/>
			<path d="M78.5,167.9c-0.1,0-0.1-0.1-0.1-0.1c-0.1-0.1-0.1-0.3-0.1-0.4l0.6-8.7c0-0.3,0.3-0.5,0.6-0.5l7.3,0.1
				c0.3,0,0.5,0.2,0.6,0.6l0.2,8.7c0,0.1-0.1,0.3-0.2,0.4s-0.2,0.2-0.4,0.2l-8.2-0.1C78.6,168,78.5,168,78.5,167.9z M79.9,159.3
				l-0.6,7.5l7,0.1l-0.2-7.5L79.9,159.3z"/>
		</g>
		<path d="M74.8,158.3l0.3-1.1L78,158c0.5,0.1,0.9,0.2,1.4,0.2l7.3,0.1c0.5,0,1-0.1,1.5-0.2l2.5-0.7l0.3,1.1l-2.5,0.7
			c-0.6,0.2-1.2,0.2-1.8,0.2l-7.3-0.1c-0.6,0-1.1-0.1-1.7-0.2L74.8,158.3z"/>
		<g>
			<path style="fill:#FF20A8;" d="M86.5,157.2c0,0.5-1.6,0.8-3.6,0.8c-2,0-3.6-0.4-3.6-0.9l0-3.3l7.2,0.1L86.5,157.2z"/>
			<path d="M79.5,158c-0.4-0.2-0.7-0.5-0.7-0.9l0-3.3c0-0.3,0.2-0.6,0.6-0.6l7.2,0.1c0.1,0,0.3,0.1,0.4,0.2c0.1,0.1,0.2,0.2,0.2,0.4
				l0,3.3l0,0c0,1.3-2.9,1.4-4.2,1.4C82,158.6,80.4,158.5,79.5,158z M79.9,157c0.3,0.1,1.4,0.5,3,0.5c1.7,0,2.7-0.2,3-0.4l0-2.6
				l-6-0.1L79.9,157z M86,157.2L86,157.2L86,157.2z"/>
		</g>
		<g>
			
				<ellipse transform="matrix(1.129310e-02 -0.9999 0.9999 1.129310e-02 -71.8502 235.0728)" style="fill:#FF65BE;" cx="82.9" cy="153.9" rx="0.8" ry="3.6"/>
			<path d="M79.5,154.7c-0.4-0.2-0.7-0.5-0.7-0.9c0-1.3,2.9-1.4,4.2-1.4c1.2,0,4.1,0.2,4.1,1.4l0,0c0,1.3-2.9,1.4-4.2,1.4
				C82.1,155.3,80.4,155.2,79.5,154.7z M85.6,153.9c-0.5-0.1-1.4-0.3-2.6-0.3c-1.2,0-2.1,0.1-2.6,0.2c0.5,0.1,1.4,0.3,2.6,0.3
				S85,154,85.6,153.9z M86.1,154.1L86.1,154.1L86.1,154.1z"/>
		</g>
		<g>
			<g>
				<path style="fill:#FF20A8;" d="M85.2,153.4c0,0.3-1,0.5-2.2,0.5c-1.2,0-2.2-0.2-2.2-0.5l0-2l4.4,0L85.2,153.4z"/>
				<path d="M80.7,154.1c-0.1-0.1-0.2-0.1-0.3-0.2c-0.1-0.1-0.2-0.3-0.2-0.5l0-2c0-0.1,0.1-0.3,0.2-0.4c0.1-0.1,0.2-0.2,0.4-0.2
					l4.4,0c0.3,0,0.6,0.2,0.6,0.6l0,2c0,0.7-0.8,0.8-1.1,0.9c-0.5,0.1-1.1,0.1-1.7,0.1C82.5,154.5,81.4,154.4,80.7,154.1z
					 M81.3,151.9v1.2c0.2,0.1,0.8,0.2,1.6,0.2c0.8,0,1.4-0.1,1.7-0.2v-1.2L81.3,151.9z M84.6,153.4L84.6,153.4L84.6,153.4z"/>
			</g>
			<g>
				
					<ellipse transform="matrix(1.129309e-02 -0.9999 0.9999 1.129309e-02 -69.3049 232.617)" style="fill:#FF20A8;" cx="83" cy="151.4" rx="0.5" ry="2.2"/>
				<path d="M80.8,152.1c-0.3-0.2-0.5-0.4-0.5-0.7c0-0.2,0.1-0.4,0.2-0.5c0.5-0.5,1.9-0.5,2.5-0.5s2,0.1,2.5,0.6
					c0.1,0.1,0.2,0.3,0.2,0.5c0,0.2-0.1,0.4-0.2,0.5c-0.5,0.5-1.9,0.5-2.5,0.5C82.2,152.4,81.3,152.3,80.8,152.1z"/>
			</g>
		</g>
		<g>
			<g>
				<path style="fill:#293643;" d="M80.5,150.9c-0.1,0.5,0.9,1.1,2.3,1.4c1.4,0.4,2.6,0.3,2.7-0.2v-1l-4.9-1.3V150.9z"/>
				<path d="M81.2,152.4c-0.5-0.2-0.9-0.5-1.1-0.9c-0.1-0.2-0.1-0.5-0.1-0.6v-0.9c0-0.2,0.1-0.4,0.2-0.5c0.1-0.1,0.3-0.1,0.5-0.1
					l4.9,1.3c0.2,0.1,0.4,0.3,0.4,0.6v1c0,0,0,0.1,0,0.1c-0.2,1-2,1-3.4,0.6C82.2,152.8,81.6,152.6,81.2,152.4z M81,151.1L81,151.1
					L81,151.1z M81.1,151c0.1,0.2,0.8,0.6,1.8,0.9c1,0.2,1.7,0.2,2,0.1v-0.3l-3.8-1V151L81.1,151z"/>
			</g>
			<g>
				
					<ellipse transform="matrix(0.2526 -0.9676 0.9676 0.2526 -83.6736 192.8861)" style="fill:#FF65BE;" cx="83" cy="150.6" rx="0.8" ry="2.5"/>
				<path d="M81.2,151.4c-0.5-0.2-0.9-0.5-1.1-0.9c-0.2-0.3-0.1-0.6-0.1-0.7c0.1-0.3,0.4-0.7,1.4-0.8c0.6,0,1.3,0,2,0.2
					c1.4,0.4,2.9,1.1,2.6,2.2l0,0c-0.2,1-2,1-3.4,0.6C82.2,151.8,81.6,151.6,81.2,151.4z M81.3,150.1c0.3,0.2,0.8,0.5,1.7,0.7
					c0.8,0.2,1.4,0.2,1.8,0.2c-0.3-0.2-0.8-0.5-1.7-0.7C82.2,150.1,81.6,150.1,81.3,150.1z M84.9,151.2L84.9,151.2L84.9,151.2z"/>
			</g>
		</g>
		<g>
			<path style="fill:#FF20A8;" d="M84.3,152.3l1.1-0.1c0,0,2.5,0.8,1.1,3.6l-1.4,0.3C85.1,156.1,86.3,154.1,84.3,152.3z"/>
			<path d="M84.9,156.6c-0.1,0-0.1-0.1-0.2-0.2c-0.1-0.2-0.1-0.4,0-0.6c0-0.1,0.9-1.7-0.7-3.1c-0.2-0.1-0.2-0.4-0.1-0.6
				c0.1-0.2,0.3-0.4,0.5-0.4l1.1-0.1c0.1,0,0.1,0,0.2,0c0,0,1.2,0.4,1.7,1.6c0.4,0.8,0.2,1.8-0.3,2.9c-0.1,0.1-0.2,0.3-0.4,0.3
				l-1.4,0.3C85.1,156.7,85,156.7,84.9,156.6z M85.5,152.9c0.5,0.9,0.6,1.8,0.5,2.5l0.2,0c0.3-0.7,0.4-1.2,0.1-1.7
				C86.1,153.2,85.7,153,85.5,152.9z"/>
		</g>
	</g>
	<g>
		<g>
			<path style="fill:#3006A3;" d="M24,96.7c-0.5,0-0.8,0.4-0.8,0.8l-0.3,6.2c0,0.3,0.1,0.6,0.2,0.8l2.1,2.2c0.1,0.1,0.2,0.2,0.4,0.2
				l7,2.9c0.1,0.1,0.3,0.1,0.4,0.1l2.9-0.1c0.3,0,0.5-0.1,0.7-0.4l4.1-4.6c0.3-0.4,0.2-0.9-0.1-1.2l-3.2-3.1
				c-0.1-0.1-0.1-0.1-0.2-0.1l-8.5-3.5c-0.1,0-0.2-0.1-0.3-0.1L24,96.7L24,96.7z"/>
			<path d="M32.9,110.3c-0.2,0-0.4,0-0.6-0.1l-7-2.9c-0.2-0.1-0.4-0.2-0.5-0.4l-2.1-2.2c-0.3-0.3-0.4-0.7-0.4-1.1l0.3-6.2
				c0-0.7,0.6-1.2,1.3-1.2h4.5c0.2,0,0.3,0,0.5,0.1l8.5,3.5c0.1,0.1,0.2,0.1,0.4,0.2l3.2,3.2c0.5,0.5,0.6,1.3,0.1,1.8l-4.1,4.6
				c-0.2,0.3-0.6,0.5-1.1,0.5L32.9,110.3C32.9,110.3,32.9,110.3,32.9,110.3z M24,96.7v0.5c-0.2,0-0.4,0.1-0.4,0.4l-0.3,6.2
				c0,0.2,0,0.3,0.1,0.4l2.1,2.2c0.1,0.1,0.1,0.1,0.2,0.1l7,2.9c0.1,0,0.1,0,0.2,0l2.9-0.1c0.1,0,0.3-0.1,0.4-0.2l4.1-4.6
				c0.1-0.1,0.1-0.4,0-0.5l-3.2-3.2c0,0,0,0-0.1,0l-8.5-3.5c0,0-0.1,0-0.1,0H24L24,96.7z"/>
		</g>
		<g>
			<path style="fill:#3006A3;" d="M35.8,75.7L35.8,75.7l-1.4,0.1c-0.3,0-0.6,0.1-0.7,0.4l-4.4,5.2c-0.3,0.4-0.3,0.9,0.1,1.2l3.9,3.5
				c0.1,0.1,0.2,0.1,0.2,0.2l7.6,3.1c0.1,0,0.2,0.1,0.3,0.1l5.2,0.2c0.5,0,0.9-0.4,0.9-0.8l0.5-6.8c0-0.3-0.1-0.6-0.3-0.8l0,0
				l-1-1.1c-0.1-0.1-0.2-0.2-0.4-0.3l-10.1-4.2C36.1,75.7,35.9,75.7,35.8,75.7z"/>
			<path d="M46.5,90.1C46.5,90.1,46.5,90.1,46.5,90.1l-5.3-0.2c-0.1,0-0.3,0-0.5-0.1l-7.6-3.1c-0.1-0.1-0.3-0.1-0.4-0.2l-3.9-3.5
				c-0.6-0.5-0.6-1.3-0.1-1.9l4.4-5.2c0.3-0.3,0.7-0.5,1.1-0.5l1.4-0.1h0.1c0.2,0,0.4,0,0.6,0.1l10,4.2c0.2,0.1,0.4,0.2,0.6,0.4
				l1,1.1c0.3,0.3,0.4,0.7,0.4,1.2l-0.5,6.8C47.8,89.6,47.2,90.1,46.5,90.1z M35.8,75.7l0,0.5l-1.4,0.1c-0.2,0-0.3,0.1-0.4,0.2
				l-4.4,5.2c-0.1,0.2-0.1,0.4,0,0.6l3.9,3.5c0,0,0.1,0.1,0.1,0.1l7.6,3.1c0,0,0.1,0,0.1,0l5.2,0.2c0.2,0,0.4-0.2,0.4-0.4l0.5-6.8
				c0-0.2,0-0.3-0.1-0.5l-1-1.1c-0.1-0.1-0.1-0.1-0.2-0.1L36,76.2c-0.1,0-0.1,0-0.2,0L35.8,75.7L35.8,75.7z"/>
		</g>
		<g>
			<polygon style="fill:#3613A3;" points="25.7,106.7 27.5,100.9 34.7,103.9 32.1,109.4 			"/>
			<path d="M32.1,110c-0.1,0-0.1,0-0.2,0l-6.5-2.7c-0.3-0.1-0.4-0.4-0.3-0.7l1.8-5.8c0-0.1,0.2-0.3,0.3-0.4c0.1-0.1,0.3-0.1,0.5,0
				l7.2,3c0.1,0.1,0.2,0.2,0.3,0.3c0.1,0.1,0,0.3,0,0.5l-2.6,5.5C32.6,109.9,32.4,110,32.1,110z M26.4,106.4l5.5,2.3l2.1-4.4
				l-6.1-2.5L26.4,106.4z"/>
		</g>
		<path d="M40.5,104.8L40.5,104.8l-5.9-0.5c-0.1,0-0.1,0-0.2,0l-7-2.9c-0.1,0-0.1,0-0.1-0.1l-4.5-3.8c-0.2-0.2-0.3-0.6-0.1-0.8
			c0.2-0.2,0.6-0.3,0.8-0.1l4.4,3.7l6.8,2.8l5.8,0.5c0.3,0,0.5,0.3,0.5,0.6C41.1,104.6,40.9,104.8,40.5,104.8z"/>
		<g>
			<path style="fill:#3006A3;" d="M42,83.7l-2.7-1.1l-2.7-1.1c0,0-6.5,6.9-7.4,17.2l0,0c-0.1,0.3,1.1,1.1,2.8,1.8
				c1.7,0.7,3.1,1,3.2,0.7l0,0C41.8,93.2,42,83.7,42,83.7z"/>
			<path d="M34.9,101.8c-1,0-2.5-0.6-3.1-0.8c-3.1-1.3-3.2-2-3.1-2.4c0.9-10.4,7.2-17.2,7.5-17.5c0.2-0.2,0.4-0.2,0.6-0.1l5.3,2.2
				c0.2,0.1,0.4,0.3,0.4,0.5c0,0.4-0.2,9.8-6.8,17.8c-0.1,0.1-0.2,0.2-0.3,0.2C35.2,101.7,35.1,101.8,34.9,101.8z M29.8,98.6
				c0.2,0.2,1.1,0.7,2.4,1.3c1.3,0.6,2.3,0.8,2.6,0.8c5.6-6.8,6.4-14.8,6.5-16.6l-4.6-1.9C35.6,83.5,30.6,89.8,29.8,98.6z
				 M29.8,98.9L29.8,98.9L29.8,98.9z"/>
		</g>
		<g>
			<polygon style="fill:#3613A3;" points="37.1,78.7 33.4,86.3 40.7,89.3 43.6,81.5 			"/>
			<path d="M40.7,89.9c-0.1,0-0.1,0-0.2,0l-7.3-3c-0.1-0.1-0.2-0.2-0.3-0.3s0-0.3,0-0.4l3.7-7.5c0.1-0.2,0.4-0.4,0.7-0.3l6.6,2.7
				c0.3,0.1,0.4,0.4,0.3,0.7l-2.9,7.9c0,0.1-0.1,0.2-0.3,0.3C40.9,89.9,40.8,89.9,40.7,89.9z M34.1,86l6.3,2.6l2.5-6.8l-5.6-2.3
				L34.1,86z"/>
		</g>
		<path d="M47.7,82.4l-2.5-0.3c-0.6-0.1-1.2-0.2-1.7-0.4L36.9,79c-0.5-0.2-1-0.5-1.4-0.8l-2.3-1.8l0.7-0.9l2.3,1.8
			c0.4,0.3,0.8,0.5,1.2,0.7l6.6,2.7c0.5,0.2,1,0.3,1.4,0.4l2.5,0.3L47.7,82.4z"/>
		<g>
			<path style="fill:#3006A3;" d="M44.4,79.6c-0.2,0.4-1.8,0.2-3.6-0.6c-1.8-0.7-3.2-1.7-3-2.2l1.2-3.1l6.6,2.8L44.4,79.6z"/>
			<path d="M43.8,80.4c-1,0-2.5-0.5-3.2-0.8c-0.9-0.4-1.8-0.8-2.4-1.3c-0.3-0.2-1.2-0.9-1-1.6l1.2-3.1c0.1-0.1,0.2-0.2,0.3-0.3
				c0.1-0.1,0.3-0.1,0.4,0l6.6,2.8c0.1,0.1,0.2,0.2,0.3,0.3c0.1,0.1,0.1,0.3,0,0.4l-1.2,3.1l0,0C44.7,80.2,44.3,80.4,43.8,80.4z
				 M44.4,79.6L44.4,79.6L44.4,79.6z M43.9,79.4L43.9,79.4L43.9,79.4z M38.3,76.9c0.2,0.3,1.1,0.9,2.6,1.6c1.5,0.6,2.6,0.8,3,0.7
				l1-2.4l-5.6-2.3L38.3,76.9z"/>
		</g>
		<g>
			
				<ellipse transform="matrix(0.3825 -0.924 0.924 0.3825 -43.3176 85.4757)" style="fill:#452DA2;" cx="42.3" cy="75.1" rx="0.8" ry="3.6"/>
			<path d="M45,77.3c-1,0-2.5-0.5-3.2-0.8c-0.9-0.4-1.8-0.8-2.4-1.3c-0.3-0.2-1.2-0.9-1-1.6c0.5-1.2,3.2-0.2,4.4,0.3
				s3.8,1.7,3.3,2.9l0,0C46,77.2,45.5,77.3,45,77.3z M45.6,76.5L45.6,76.5L45.6,76.5z M39.9,74.2c0.4,0.3,1.2,0.8,2.3,1.2
				c1.1,0.5,2,0.7,2.5,0.7c-0.4-0.3-1.2-0.8-2.3-1.2C41.3,74.4,40.4,74.2,39.9,74.2z"/>
		</g>
		<g>
			<g>
				<path style="fill:#3006A3;" d="M44.5,75.6c-0.1,0.2-1.1,0.1-2.2-0.4c-1.1-0.5-1.9-1.1-1.8-1.3l0.8-1.9l4.1,1.7L44.5,75.6z"/>
				<path d="M44.1,76.2c-0.7,0-1.6-0.4-2.1-0.5c-0.6-0.2-1.9-0.8-2.2-1.5c-0.1-0.2-0.1-0.4,0-0.6l0.8-1.9c0.1-0.1,0.2-0.2,0.3-0.3
					s0.3-0.1,0.4,0l4.1,1.7c0.1,0.1,0.2,0.2,0.3,0.3c0.1,0.1,0.1,0.3,0,0.4L45,75.8c-0.1,0.2-0.2,0.3-0.4,0.4
					C44.5,76.2,44.3,76.2,44.1,76.2z M44,75.4L44,75.4L44,75.4L44,75.4z M41,73.9c0.2,0.2,0.7,0.5,1.4,0.8c0.8,0.3,1.3,0.4,1.6,0.5
					l0.5-1.1l-3-1.3L41,73.9z"/>
			</g>
			<g>
				
					<ellipse transform="matrix(0.3825 -0.924 0.924 0.3825 -40.5764 84.9438)" style="fill:#3006A3;" cx="43.3" cy="72.8" rx="0.5" ry="2.2"/>
				<path d="M44.9,74.4c-0.7,0-1.6-0.4-2.1-0.5c-0.6-0.2-1.9-0.8-2.2-1.5c-0.1-0.2-0.1-0.4,0-0.6c0.1-0.2,0.2-0.3,0.4-0.4
					c0.7-0.3,2,0.2,2.6,0.5c0.6,0.2,1.1,0.5,1.5,0.8c0.2,0.2,0.9,0.6,0.6,1.3c-0.1,0.2-0.2,0.3-0.4,0.4
					C45.3,74.3,45.1,74.4,44.9,74.4z"/>
			</g>
		</g>
		<g>
			<g>
				<path style="fill:#294328;" d="M41.1,71.5c-0.3,0.4,0.4,1.3,1.6,2.2s2.3,1.2,2.5,0.8l0.4-0.9l-4.1-3L41.1,71.5z"/>
				<path d="M44.8,75.3c-0.2,0-0.5,0-0.7-0.1c-0.5-0.2-1.2-0.5-1.8-1c-1.1-0.8-2.2-2.1-1.7-2.9l0.4-0.8c0.1-0.2,0.2-0.3,0.4-0.3
					c0.2,0,0.4,0,0.5,0.1l4.1,3c0.2,0.1,0.3,0.4,0.2,0.7l-0.4,0.9c0,0,0,0.1-0.1,0.1C45.5,75.1,45.3,75.3,44.8,75.3z M41.6,71.8
					c0.1,0.2,0.5,0.8,1.4,1.5c0.8,0.6,1.5,0.8,1.8,0.9l0.1-0.3l-3.2-2.3L41.6,71.8C41.6,71.8,41.6,71.8,41.6,71.8z M41.6,71.9
					L41.6,71.9L41.6,71.9z M41.1,71.5L41.1,71.5L41.1,71.5z"/>
			</g>
			<g>
				
					<ellipse transform="matrix(0.5939 -0.8046 0.8046 0.5939 -40.3516 64.3302)" style="fill:#452DA2;" cx="43.5" cy="72.1" rx="0.8" ry="2.5"/>
				<path d="M45.2,74.4c-0.7,0-1.7-0.5-2.5-1.1c-1.2-0.8-2.3-2.2-1.7-3c0.6-0.8,2.2-0.1,3.3,0.7c1.2,0.8,2.3,2.2,1.7,3l0,0
					C45.8,74.3,45.6,74.4,45.2,74.4z M45.6,73.7L45.6,73.7L45.6,73.7z M42.1,71.1c0.2,0.3,0.6,0.8,1.3,1.3c0.7,0.5,1.3,0.7,1.6,0.8
					c-0.2-0.3-0.6-0.8-1.3-1.3C43,71.4,42.4,71.2,42.1,71.1z"/>
			</g>
		</g>
		<g>
			<path style="fill:#3006A3;" d="M44.1,74.2l1.1,0.4c0,0,2,1.7-0.4,3.8L43.5,78C43.5,78.1,45.3,76.6,44.1,74.2z"/>
			<path d="M44.9,78.9c0,0-0.1,0-0.1,0l-1.4-0.3c-0.2,0-0.4-0.2-0.4-0.4c0-0.2,0-0.4,0.2-0.6c0.1,0,1.4-1.2,0.5-3.2
				c-0.1-0.2-0.1-0.5,0.1-0.6c0.1-0.2,0.4-0.2,0.6-0.2l1.1,0.4c0.1,0,0.1,0.1,0.2,0.1c0,0,1,0.8,1,2.1c0,0.9-0.4,1.8-1.3,2.6
				C45.2,78.8,45,78.9,44.9,78.9z M44.5,77.7l0.2,0c0.5-0.5,0.8-1,0.8-1.5c0-0.5-0.2-0.8-0.4-1.1C45.2,76.2,44.9,77.1,44.5,77.7z"/>
		</g>
	</g>
	<g>
		<g>
			<path style="fill:#3006A3;" d="M133.5,134.1c-0.3,0.4-0.2,0.8,0.1,1.2l4.5,4.2c0.2,0.2,0.5,0.3,0.7,0.3l3-0.2
				c0.1,0,0.3,0,0.4-0.1l6.6-3.5c0.1-0.1,0.2-0.2,0.4-0.3l1.8-2.3c0.2-0.2,0.2-0.5,0.2-0.8l-0.9-6.1c-0.1-0.5-0.5-0.8-1-0.7
				l-4.4,0.5c-0.1,0-0.2,0-0.2,0.1l-8.1,4.3c-0.1,0-0.2,0.1-0.2,0.2L133.5,134.1C133.5,134,133.5,134,133.5,134.1z"/>
			<path d="M149.6,135.9c-0.1,0.1-0.3,0.3-0.5,0.4l-6.6,3.5c-0.2,0.1-0.4,0.2-0.6,0.2l-3,0.2c-0.4,0-0.8-0.1-1.1-0.4l-4.5-4.2
				c-0.5-0.5-0.5-1.3-0.1-1.8l2.9-3.5c0.1-0.1,0.2-0.2,0.4-0.3l8.1-4.3c0.1-0.1,0.3-0.1,0.4-0.1l4.4-0.5c0.7-0.1,1.3,0.4,1.4,1.1
				l0.9,6.1c0.1,0.4,0,0.8-0.3,1.1l-1.8,2.3C149.6,135.8,149.6,135.9,149.6,135.9z M133.5,134.1l0.4,0.3c-0.1,0.1-0.1,0.4,0,0.5
				l4.5,4.2c0.1,0.1,0.2,0.2,0.4,0.2l3-0.2c0.1,0,0.2,0,0.2-0.1l6.6-3.5c0.1,0,0.1-0.1,0.2-0.1l1.8-2.3c0.1-0.1,0.1-0.3,0.1-0.4
				l-0.9-6.1c0-0.2-0.2-0.3-0.4-0.3l-4.4,0.5c0,0,0,0-0.1,0l-8.1,4.3c0,0-0.1,0-0.1,0.1l-2.8,3.4L133.5,134.1z"/>
		</g>
		<g>
			<path style="fill:#3006A3;" d="M125.1,111.5L125.1,111.5l-0.9,1.2c-0.2,0.2-0.2,0.5-0.2,0.8l1.1,6.7c0.1,0.5,0.5,0.8,1,0.7
				l5.2-0.8c0.1,0,0.2,0,0.3-0.1l7.2-3.8c0.1,0,0.2-0.1,0.2-0.2l3.5-3.9c0.3-0.4,0.3-0.9,0-1.3l-4.9-4.7c-0.2-0.2-0.5-0.3-0.8-0.3
				l0,0l-1.4,0.1c-0.1,0-0.3,0-0.5,0.1l-9.6,5.1C125.3,111.3,125.2,111.4,125.1,111.5z"/>
			<path d="M142.9,112.4L142.9,112.4l-3.6,3.9c-0.1,0.1-0.2,0.2-0.4,0.3l-7.2,3.8c-0.1,0.1-0.3,0.1-0.4,0.1l-5.2,0.8
				c-0.7,0.1-1.4-0.4-1.6-1.1l-1.1-6.7c-0.1-0.4,0-0.8,0.3-1.2l0.8-1.1l0-0.1c0.1-0.1,0.3-0.3,0.5-0.4l9.6-5.1
				c0.2-0.1,0.4-0.2,0.6-0.2l1.4-0.1c0.4,0,0.8,0.1,1.1,0.4l4.9,4.7C143.4,111,143.4,111.9,142.9,112.4z M125.1,111.5l0.4,0.3
				l-0.8,1.1c-0.1,0.1-0.1,0.3-0.1,0.5l1.1,6.7c0,0.2,0.2,0.4,0.5,0.4l5.2-0.8c0,0,0.1,0,0.1,0l7.2-3.8c0,0,0.1,0,0.1-0.1l3.5-3.9
				c0.1-0.2,0.1-0.4,0-0.6l-4.9-4.7c-0.1-0.1-0.3-0.2-0.5-0.2l-1.4,0.1c-0.1,0-0.2,0-0.2,0.1l-9.6,5.1c-0.1,0-0.1,0.1-0.2,0.1
				L125.1,111.5z"/>
		</g>
		<g>
			<polygon style="fill:#3613A3;" points="142.3,139.1 139,134 145.9,130.4 148.4,135.9 			"/>
			<path d="M148.9,136.2c0,0.1-0.1,0.1-0.2,0.1l-6.2,3.3c-0.3,0.1-0.6,0.1-0.7-0.2l-3.3-5.1c-0.1-0.1-0.1-0.3-0.1-0.5
				c0-0.1,0.1-0.3,0.3-0.4l6.9-3.7c0.1-0.1,0.3-0.1,0.5,0c0.1,0,0.3,0.2,0.4,0.3l2.5,5.5C149,135.8,149,136,148.9,136.2z
				 M142.4,138.4l5.2-2.8l-2-4.4l-5.8,3.1L142.4,138.4z"/>
		</g>
		<path d="M150.3,126.4C150.3,126.4,150.3,126.4,150.3,126.4l-4.1,4.2c0,0-0.1,0.1-0.1,0.1l-6.7,3.6c0,0-0.1,0-0.2,0.1l-5.8,1
			c-0.3,0.1-0.6-0.1-0.6-0.5c-0.1-0.3,0.1-0.6,0.5-0.7l5.7-1l6.5-3.5l4-4.2c0.2-0.2,0.6-0.2,0.8,0
			C150.5,125.8,150.5,126.2,150.3,126.4z"/>
		<g>
			<path style="fill:#3006A3;" d="M135.1,111.8l-2.5,1.4l-2.5,1.4c0,0,1.1,9.4,8.4,16.7l0,0c0.1,0.3,1.6-0.2,3.1-1
				c1.6-0.8,2.7-1.7,2.6-2l0,0C142.2,118,135.1,111.8,135.1,111.8z"/>
			<path d="M144.4,128.8c-0.6,0.7-2.1,1.6-2.6,1.8c-3,1.6-3.6,1.2-3.8,0.9c-7.3-7.3-8.5-16.6-8.5-17c0-0.2,0.1-0.5,0.3-0.6l5.1-2.7
				c0.2-0.1,0.5-0.1,0.6,0.1c0.3,0.2,7.3,6.4,9.2,16.7c0,0.1,0,0.2,0,0.4C144.6,128.6,144.5,128.7,144.4,128.8z M138.7,130.7
				c0.3,0,1.3-0.4,2.5-1c1.3-0.7,2-1.3,2.3-1.6c-1.6-8.6-7.2-14.4-8.5-15.7l-4.4,2.3C130.9,116.6,132.5,124.5,138.7,130.7z
				 M138.9,131L138.9,131L138.9,131z"/>
		</g>
		<g>
			<polygon style="fill:#3613A3;" points="128.2,112.4 131.6,120.1 138.6,116.4 134.5,109.1 			"/>
			<path d="M139.1,116.7c0,0.1-0.1,0.1-0.2,0.1l-7,3.7c-0.1,0.1-0.3,0.1-0.4,0c-0.1,0-0.2-0.1-0.3-0.3l-3.4-7.7
				c-0.1-0.2,0-0.6,0.2-0.7l6.2-3.4c0.2-0.1,0.6,0,0.7,0.2l4.2,7.3c0.1,0.1,0.1,0.3,0,0.4C139.1,116.6,139.1,116.7,139.1,116.7z
				 M131.9,119.3l6-3.2l-3.6-6.4l-5.3,2.9L131.9,119.3z"/>
		</g>
		<path d="M137.8,106.5l-1.8,1.8c-0.4,0.4-0.9,0.8-1.4,1.1l-6.3,3.4c-0.5,0.2-1,0.5-1.6,0.6l-2.8,0.7l-0.2-1.1l2.8-0.7
			c0.5-0.1,0.9-0.3,1.3-0.5l6.3-3.4c0.4-0.2,0.8-0.5,1.2-0.9l1.8-1.8L137.8,106.5z"/>
		<g>
			<path style="fill:#3006A3;" d="M133.6,107.3c0.2,0.4-1,1.5-2.8,2.4c-1.8,0.9-3.4,1.3-3.6,1l-1.6-2.9l6.4-3.4L133.6,107.3z"/>
			<path d="M133.7,108.3c-0.7,0.8-2,1.6-2.7,1.9c-0.9,0.5-1.8,0.8-2.5,1c-0.4,0.1-1.5,0.4-1.8-0.3l-1.6-2.9c-0.1-0.1-0.1-0.3,0-0.4
				c0-0.1,0.1-0.2,0.3-0.3l6.4-3.4c0.1-0.1,0.3-0.1,0.4,0c0.1,0,0.2,0.1,0.3,0.3l1.6,2.9l0,0C134.2,107.4,134.1,107.9,133.7,108.3z
				 M133.6,107.3L133.6,107.3L133.6,107.3z M133.1,107.6L133.1,107.6L133.1,107.6z M127.6,110.3c0.4,0,1.4-0.2,2.9-1
				c1.5-0.8,2.3-1.5,2.5-1.8l-1.2-2.3l-5.4,2.9L127.6,110.3z"/>
		</g>
		<g>
			
				<ellipse transform="matrix(0.8823 -0.4707 0.4707 0.8823 -34.7708 73.1352)" style="fill:#452DA2;" cx="128.8" cy="106.1" rx="3.6" ry="0.8"/>
			<path d="M132.2,105.4c-0.7,0.8-2,1.6-2.7,1.9c-0.9,0.5-1.8,0.8-2.5,1c-0.4,0.1-1.5,0.4-1.8-0.3c-0.6-1.1,1.9-2.6,3-3.2
				c1.1-0.6,3.7-1.8,4.3-0.7l0,0C132.7,104.5,132.5,105,132.2,105.4z M132,104.4L132,104.4L132,104.4z M126.5,107.3
				c0.5-0.1,1.4-0.4,2.4-1c1.1-0.6,1.8-1.1,2.2-1.4c-0.5,0.1-1.4,0.4-2.4,1C127.7,106.4,127,106.9,126.5,107.3z"/>
		</g>
		<g>
			<g>
				<path style="fill:#3006A3;" d="M130.6,104.6c0.1,0.2-0.6,0.9-1.7,1.5c-1.1,0.6-2,0.8-2.2,0.6l-1-1.8l3.9-2.1L130.6,104.6z"/>
				<path d="M130.8,105.3c-0.5,0.5-1.3,1.1-1.7,1.3c-0.5,0.3-1.8,0.9-2.5,0.7c-0.2-0.1-0.4-0.2-0.4-0.4l-1-1.8
					c-0.1-0.1-0.1-0.3,0-0.4c0-0.1,0.1-0.2,0.3-0.3l3.9-2.1c0.1-0.1,0.3-0.1,0.4,0c0.1,0,0.2,0.1,0.3,0.3l1,1.8
					c0.1,0.2,0.1,0.4,0,0.6C131,105.1,131,105.2,130.8,105.3z M130.1,104.9L130.1,104.9L130.1,104.9L130.1,104.9z M127.1,106.2
					c0.2,0,0.8-0.2,1.6-0.6c0.7-0.4,1.2-0.7,1.3-1l-0.6-1.1l-2.9,1.6L127.1,106.2z"/>
			</g>
			<g>
				
					<ellipse transform="matrix(0.8823 -0.4707 0.4707 0.8823 -33.8624 72.3242)" style="fill:#3006A3;" cx="127.7" cy="103.9" rx="2.2" ry="0.5"/>
				<path d="M129.9,103.5c-0.5,0.5-1.3,1.1-1.7,1.3c-0.5,0.3-1.8,0.9-2.5,0.7c-0.2-0.1-0.4-0.2-0.4-0.4c-0.1-0.2-0.1-0.4,0-0.6
					c0.2-0.7,1.4-1.4,2-1.7c0.6-0.3,1.1-0.5,1.6-0.6c0.2-0.1,1.1-0.3,1.4,0.3c0.1,0.2,0.1,0.4,0,0.6
					C130.1,103.3,130,103.4,129.9,103.5z"/>
			</g>
		</g>
		<g>
			<g>
				<path style="fill:#294328;" d="M125.3,104.7c0.1,0.5,1.3,0.5,2.7,0.2c1.4-0.4,2.4-1,2.3-1.4l-0.5-0.8l-4.9,1.2L125.3,104.7z"/>
				<path d="M130.6,104.2c-0.1,0.1-0.3,0.3-0.6,0.5c-0.5,0.3-1.1,0.6-1.8,0.7c-1.3,0.4-3,0.4-3.3-0.5l-0.4-0.8
					c-0.1-0.1-0.1-0.4,0-0.5c0.1-0.2,0.2-0.3,0.4-0.3l4.9-1.2c0.2-0.1,0.5,0.1,0.6,0.3l0.5,0.8c0,0,0,0.1,0,0.1
					C130.8,103.5,130.8,103.8,130.6,104.2z M125.8,104.4c0.2,0.1,1,0.1,2-0.1c1-0.2,1.6-0.6,1.8-0.8l-0.1-0.3l-3.8,1L125.8,104.4
					L125.8,104.4z M125.9,104.5L125.9,104.5L125.9,104.5z M125.3,104.7L125.3,104.7L125.3,104.7z"/>
			</g>
			<g>
				
					<ellipse transform="matrix(0.9697 -0.2445 0.2445 0.9697 -21.3649 34.2527)" style="fill:#452DA2;" cx="127.3" cy="103.2" rx="2.5" ry="0.8"/>
				<path d="M130.1,103.3c-0.5,0.6-1.5,1-2.4,1.2c-1.4,0.4-3.1,0.4-3.4-0.6c-0.2-1,1.3-1.8,2.7-2.1c1.4-0.4,3.1-0.4,3.4,0.6l0,0
					C130.4,102.7,130.3,103.1,130.1,103.3z M129.8,102.6L129.8,102.6L129.8,102.6z M125.6,103.6c0.4,0,1,0,1.8-0.2
					c0.8-0.2,1.4-0.5,1.7-0.7c-0.4,0-1,0-1.8,0.2C126.4,103.1,125.9,103.4,125.6,103.6z"/>
			</g>
		</g>
		<g>
			<path style="fill:#3006A3;" d="M129.3,104l1-0.6c0,0,2.6-0.5,2.7,2.7l-1.1,0.9C131.8,107,131.9,104.7,129.3,104z"/>
			<path d="M133.3,106.5C133.3,106.5,133.3,106.5,133.3,106.5l-1.2,1c-0.2,0.1-0.4,0.2-0.6,0.1c-0.2-0.1-0.3-0.3-0.3-0.5
				c0-0.1,0-1.9-2.1-2.4c-0.2-0.1-0.4-0.2-0.4-0.5c0-0.2,0.1-0.5,0.2-0.6l1-0.6c0.1,0,0.1-0.1,0.2-0.1c0,0,1.3-0.2,2.2,0.5
				c0.7,0.6,1.1,1.4,1.1,2.7C133.5,106.2,133.4,106.4,133.3,106.5z M132.2,106l0.1-0.1c-0.1-0.7-0.3-1.2-0.7-1.6
				c-0.4-0.3-0.8-0.4-1.1-0.4C131.5,104.5,132,105.3,132.2,106z"/>
		</g>
	</g>
	<g>
		<path style="fill:#FFFFFF;" d="M91.7,109.6c0,0,0.1,0.1,0.1,0.1c0.6,0.6,1.4,0.7,2.2,0.4l0,0l0,0c0,0,0.1-0.1,0.1-0.1
			c0,0,0.1-0.1,0.1-0.1c0,0,0.1-0.1,0.1-0.1l8.2-8.1l0,0c0.1-0.1,0.1-0.1,0.2-0.2l0.1-0.1c0,0,0.1-0.1,0.1-0.1l0.1-0.1
			c0,0,0.1-0.1,0.1-0.1l0.1-0.1c0,0,0.1-0.1,0.1-0.1c0,0,0,0,0-0.1v0c0,0,0.1-0.1,0.1-0.1l0-0.1c0-0.1,0.1-0.1,0.1-0.2
			c0,0,0-0.1,0-0.1c0-0.1,0.1-0.1,0.1-0.2l0-0.1c0-0.1,0.1-0.1,0.1-0.2v0c0.2-0.5,0.3-1.1,0.3-1.6c0-0.1,0-0.2,0-0.3s0-0.2,0-0.3
			c-0.1-1.3-0.6-2.5-1.5-3.4c-0.4-0.4-0.8-0.7-1.3-1c-0.1,0-0.1-0.1-0.2-0.1l-0.1,0c-0.1,0-0.1-0.1-0.2-0.1c0,0,0,0,0,0
			c-0.1,0-0.1,0-0.2-0.1h0c-0.1,0-0.1,0-0.2-0.1l-0.1,0c-0.1,0-0.1,0-0.2,0h0c-0.1,0-0.1,0-0.2,0h0c-0.1,0-0.1,0-0.2,0h-0.1
			c-0.1,0-0.1,0-0.2,0h-0.1c-0.1,0-0.1,0-0.2,0h-0.1c-0.1,0-0.1,0-0.2,0h-0.1c-0.1,0-0.1,0-0.2,0h-0.1c-0.1,0-0.1,0-0.2,0h-0.1
			c0,0-0.1,0-0.1,0h-0.1c-0.1,0-0.1,0-0.2,0h-0.1c0,0-0.1,0-0.1,0l-0.1,0c-0.1,0-0.1,0-0.2,0l-0.1,0c0,0-0.1,0-0.1,0l-0.1,0
			c0,0-0.1,0-0.1,0l-0.1,0c-0.1,0-0.1,0-0.2,0.1l-0.1,0c0,0-0.1,0-0.1,0.1l0,0c-0.5,0.2-1,0.6-1.3,1l-1.6,1.6
			c-0.4,0.4-0.5,0.8-0.6,1.3c0,0.5,0.2,1,0.5,1.3c0,0,0.1,0.1,0.1,0.1l0,0.1l0-0.1c0,0,0,0,0.1,0.1c0,0,0,0,0,0c0,0,0.1,0,0.1,0.1
			l0,0.1l0.1-0.1c0,0,0.1,0,0.1,0h0c0,0,0.1,0,0.1,0c0,0,0.1,0,0.1,0v0.1l0-0.1c0.1,0,0.1,0,0.2,0.1c0.1,0,0.1,0,0.1,0s0.1,0,0.1,0
			c0.1,0,0.1,0,0.2,0c0.1,0,0.1,0,0.2,0c0.1,0,0.2,0,0.2,0l0,0l0,0c0,0,0.1,0,0.1,0l0,0c0.3-0.1,0.5-0.2,0.7-0.4l1.6-1.6
			c0.1-0.1,0.2-0.2,0.3-0.2c0.1,0,0.1-0.1,0.2-0.1c0,0,0.1,0,0.1,0l0,0l0,0c0.1,0,0.2,0,0.2,0s0.1,0,0.2,0s0.1,0,0.2,0s0.1,0,0.1,0
			c0,0,0.1,0,0.1,0l0,0c0,0,0.1,0,0.1,0c0,0,0.1,0,0.1,0.1c0,0,0.1,0,0.1,0.1l0,0c0,0,0.1,0,0.1,0.1h0c0,0,0.1,0,0.1,0.1l0,0
			c0,0,0.1,0.1,0.1,0.1c0.5,0.6,0.6,1.4,0.2,2c0,0-0.1,0.1-0.1,0.1c0,0-0.1,0.1-0.1,0.1l-8.2,8.1c-0.1,0.1-0.2,0.3-0.3,0.5l0,0
			c0,0,0,0.1-0.1,0.1c0,0.1,0,0.1-0.1,0.1c0,0.1,0,0.2-0.1,0.3c0,0.1,0,0.1,0,0.1c0,0.1,0,0.1,0,0.1v0c0,0,0,0.1,0,0.1l-0.1,0h0.1
			c0,0,0,0.1,0,0.1c0,0,0,0.1,0,0.1v0c0,0,0,0.1,0,0.1l-0.1,0l0.1,0c0,0,0,0.1,0,0.1c0,0,0,0.1,0.1,0.1l-0.1,0.1l0.1,0
			c0,0,0,0.1,0.1,0.1c0,0,0,0.1,0.1,0.1l0,0.1l0.1,0C91.6,109.5,91.6,109.5,91.7,109.6L91.7,109.6L91.7,109.6z"/>
		<path style="fill:#FFD500;" d="M94.4,109.9l0.4-0.3c-1.2-0.2-2.4-0.7-3.4-1.9c-0.4,0.7-0.3,1.6,0.3,2.3
			C92.4,110.6,93.6,110.6,94.4,109.9z"/>
		<path style="fill:#FFD500;" d="M97.1,107.3l2.5-2.5c-1.2,0-2.7-0.3-3.9-1.5l-2.3,2.2C94.5,106.8,95.9,107.2,97.1,107.3z"/>
		<path style="fill:#FFD500;" d="M97.7,101.1c1.4,1.2,3,1.3,4.3,1.1l0.7-0.6c1.2-1.1,1.7-2.7,1.6-4.2c-1.3,1.5-3.2,1.4-4.1,1.2
			c0,0.1-0.1,0.1-0.2,0.2L97.7,101.1z"/>
		<path style="fill:#FFD500;" d="M99.5,96.5c0.4-0.9,0.9-2.4,0.2-4C98,92.2,96.2,92.8,95,94c0.8,0.5,2,1.4,2.7,2.7
			C98.1,96.2,98.8,96.1,99.5,96.5C99.5,96.4,99.5,96.5,99.5,96.5z"/>
		<path d="M93.1,110.7c-0.6,0-1.1-0.2-1.6-0.6c-0.1,0-0.1,0-0.2-0.1c-0.1-0.1-0.1-0.1-0.1-0.2c0-0.1-0.1-0.1-0.1-0.2
			c0,0,0,0-0.1-0.1c-0.1-0.1-0.1-0.2-0.1-0.2c0,0,0-0.1,0-0.1c0-0.1-0.1-0.2,0-0.3v0c0,0,0,0,0-0.1c0,0,0-0.1,0-0.1
			c0-0.1,0-0.2,0-0.3c0,0,0-0.1,0-0.1l0-0.2c0-0.1,0-0.2,0.1-0.4c0-0.1,0-0.1,0.1-0.2s0-0.1,0.1-0.1l0,0c0.1-0.2,0.2-0.4,0.4-0.5
			l8.2-8.1c0,0,0-0.1,0.1-0.1l0.1-0.1c0.3-0.5,0.3-1.1-0.1-1.5c0,0,0,0-0.1-0.1l0,0c0,0,0,0-0.1-0.1l0,0l-0.1,0l0,0L99,96.8
			c-0.1,0-0.1,0-0.3,0c-0.1,0-0.1,0-0.2,0h0c0,0,0,0-0.1,0c-0.1,0-0.1,0-0.2,0.1c-0.1,0-0.2,0.1-0.2,0.2l-1.6,1.6
			c-0.2,0.2-0.6,0.4-0.9,0.5l-0.1,0c-0.1,0-0.2,0-0.3,0.1c-0.1,0-0.2,0-0.2,0s-0.1,0-0.2,0c0,0-0.1,0-0.1,0l-0.1,0c0,0-0.1,0-0.1,0
			c0,0-0.1,0-0.1,0c-0.1,0-0.2-0.1-0.3-0.1c0,0,0,0,0,0c-0.1,0-0.1,0-0.2,0c-0.1,0-0.1-0.1-0.1-0.1c0,0,0,0-0.1,0
			c-0.1-0.1-0.2-0.1-0.2-0.2c-0.4-0.4-0.6-1-0.6-1.6s0.2-1.2,0.7-1.6l1.6-1.6c0.4-0.4,0.9-0.8,1.4-1l1.4-0.5l0.1,0l0.2,0h0.1l0.5,0
			c0,0,0.1,0,0.1,0H99l1.1,0.1l0.8,0.2c0.1,0,0.2,0.1,0.2,0.1l0.2,0.1c0.1,0.1,0.2,0.1,0.2,0.1c0.5,0.3,1,0.6,1.4,1.1
			c1,1,1.5,2.3,1.6,3.6c0,0.1,0,0.2,0,0.3c0,0.1,0,0.2,0,0.3c0,0.6-0.1,1.2-0.4,1.8c0,0,0,0.1,0,0.1c0,0.1,0,0.1-0.1,0.2l0,0.1
			l-0.1,0.1c0,0,0,0.1,0,0.1l-0.2,0.4c0,0.1,0,0.1-0.1,0.1l-0.5,0.7c-0.1,0.1-0.1,0.2-0.2,0.2l-8.2,8.1c-0.1,0.1-0.1,0.1-0.2,0.1
			s-0.1,0.1-0.2,0.1s-0.1,0.1-0.2,0.1c0,0,0,0,0,0C93.8,110.6,93.4,110.7,93.1,110.7z M92,109.3C92,109.3,92,109.3,92,109.3
			L92,109.3c0.5,0.5,1.2,0.6,1.7,0.4l0,0c0,0,0.1,0,0.1-0.1c0,0,0.1,0,0.1-0.1c0,0,0.1-0.1,0.1-0.1l8.2-8.1c0,0,0,0,0.1-0.1
			c0,0,0.1-0.1,0.1-0.1l0.5-0.6l0.4,0.1l-0.4-0.2l0.3-0.6l0.5,0.1l-0.4-0.2l0.1-0.1c0.2-0.6,0.3-1.1,0.3-1.6c0-0.1,0-0.2,0-0.2
			s0-0.2,0-0.2c-0.1-1.2-0.6-2.3-1.4-3.1c-0.4-0.4-0.7-0.7-1.2-0.9l-1.1-0.4L98.9,93L98,93.1l-0.2-0.4l0.1,0.4l-1.2,0.4
			c-0.5,0.2-0.9,0.5-1.2,0.9L93.8,96c-0.2,0.2-0.4,0.6-0.4,1c0,0.4,0.1,0.7,0.4,1c0,0,0,0,0,0.1c0,0,0,0,0,0l0,0l0,0l0,0
			c0,0,0,0,0,0c0,0,0,0,0.1,0l0,0l0.1,0c0,0,0,0,0.1,0h0c0.1,0,0.1,0,0.2,0.1l0.2,0c0.1,0,0.1,0,0.1,0c0.1,0,0.1,0,0.1,0
			c0.1,0,0.1,0,0.2,0l0,0l0.1,0c0.2-0.1,0.4-0.2,0.5-0.3l1.6-1.6c0.1-0.1,0.3-0.2,0.4-0.3C97.8,96,97.9,96,98,96c0.1,0,0.1,0,0.1,0
			l0,0l0,0c0.1,0,0.2,0,0.3-0.1c0.1,0,0.1,0,0.2,0l0,0c0.1,0,0.2,0,0.3,0c0.1,0,0.1,0,0.1,0c0.1,0,0.1,0,0.2,0c0.1,0,0.1,0,0.1,0.1
			c0.1,0,0.1,0,0.1,0.1c0.1,0,0.1,0.1,0.1,0.1l0,0l0,0l0,0l0,0l0.1,0.1l0,0c0,0,0,0,0.1,0.1c0,0,0,0,0.1,0l0,0l0,0
			c0,0,0.1,0.1,0.1,0.1c0.7,0.7,0.8,1.8,0.2,2.6c0,0-0.1,0.1-0.1,0.1c0,0.1-0.1,0.1-0.1,0.1l-8.2,8.1c-0.1,0.1-0.2,0.2-0.2,0.4l0,0
			l-0.1,0.2c0,0.1,0,0.1-0.1,0.2l0,0.2v0.1l0,0v0.1c0,0,0,0.1,0,0.2c0,0,0,0,0,0.1l0,0.1l0,0.1l0,0l0,0l0.1,0.2c0,0,0,0,0,0
			L92,109.3L92,109.3z"/>
	</g>
</g>
</svg>
