<?xml version="1.0" encoding="utf-8"?>
<!-- Generator: Adobe Illustrator 23.0.3, SVG Export Plug-In . SVG Version: 6.00 Build 0)  -->
<svg version="1.1" id="Layer_1" xmlns="http://www.w3.org/2000/svg" xmlns:xlink="http://www.w3.org/1999/xlink" x="0px" y="0px"
	 viewBox="0 0 180 180" style="enable-background:new 0 0 180 180;" xml:space="preserve">
<style type="text/css">
	.st0{fill-rule:evenodd;clip-rule:evenodd;fill:#FFD516;}
	.st1{fill-rule:evenodd;clip-rule:evenodd;fill:url(#SVGID_1_);}
	.st2{fill-rule:evenodd;clip-rule:evenodd;fill:url(#SVGID_2_);}
	.st3{fill-rule:evenodd;clip-rule:evenodd;fill:url(#SVGID_3_);}
	.st4{fill-rule:evenodd;clip-rule:evenodd;fill:url(#SVGID_4_);}
	.st5{filter:url(#Adobe_OpacityMaskFilter);}
	.st6{fill-rule:evenodd;clip-rule:evenodd;fill:#FFFFFF;}
	.st7{opacity:0.99;mask:url(#mask-13_1_);fill-rule:evenodd;clip-rule:evenodd;fill:url(#SVGID_5_);enable-background:new    ;}
	.st8{filter:url(#Adobe_OpacityMaskFilter_1_);}
	
		.st9{opacity:0.99;mask:url(#mask-13_2_);fill-rule:evenodd;clip-rule:evenodd;fill:url(#Oval-Copy-10_1_);enable-background:new    ;}
	.st10{filter:url(#Adobe_OpacityMaskFilter_2_);}
	
		.st11{opacity:0.99;mask:url(#mask-13_3_);fill-rule:evenodd;clip-rule:evenodd;fill:url(#Oval-Copy-7_1_);enable-background:new    ;}
	.st12{filter:url(#Adobe_OpacityMaskFilter_3_);}
	
		.st13{opacity:0.99;mask:url(#mask-13_4_);fill-rule:evenodd;clip-rule:evenodd;fill:url(#Oval-Copy-11_1_);enable-background:new    ;}
	.st14{filter:url(#Adobe_OpacityMaskFilter_4_);}
	
		.st15{opacity:0.99;mask:url(#mask-13_5_);fill-rule:evenodd;clip-rule:evenodd;fill:url(#Oval-Copy-15_1_);enable-background:new    ;}
	.st16{filter:url(#Adobe_OpacityMaskFilter_5_);}
	
		.st17{opacity:0.99;mask:url(#mask-13_6_);fill-rule:evenodd;clip-rule:evenodd;fill:url(#Oval-Copy-8_1_);enable-background:new    ;}
	.st18{filter:url(#Adobe_OpacityMaskFilter_6_);}
	
		.st19{opacity:0.99;mask:url(#mask-13_7_);fill-rule:evenodd;clip-rule:evenodd;fill:url(#Oval-Copy-16_1_);enable-background:new    ;}
	.st20{filter:url(#Adobe_OpacityMaskFilter_7_);}
	
		.st21{opacity:0.99;mask:url(#mask-13_8_);fill-rule:evenodd;clip-rule:evenodd;fill:url(#Oval-Copy-17_1_);enable-background:new    ;}
	.st22{filter:url(#Adobe_OpacityMaskFilter_8_);}
	
		.st23{opacity:0.99;mask:url(#mask-13_9_);fill-rule:evenodd;clip-rule:evenodd;fill:url(#Oval-Copy-12_1_);enable-background:new    ;}
	.st24{filter:url(#Adobe_OpacityMaskFilter_9_);}
	.st25{mask:url(#mask-13_10_);}
	.st26{opacity:0.99;fill-rule:evenodd;clip-rule:evenodd;fill:url(#Oval-Copy-9_1_);enable-background:new    ;}
	.st27{filter:url(#Adobe_OpacityMaskFilter_10_);}
	.st28{mask:url(#mask-13_11_);fill-rule:evenodd;clip-rule:evenodd;fill:url(#SVGID_6_);}
	.st29{filter:url(#Adobe_OpacityMaskFilter_11_);}
	.st30{opacity:0.6;mask:url(#mask-13_12_);fill-rule:evenodd;clip-rule:evenodd;fill:url(#SVGID_7_);enable-background:new    ;}
</style>
<title>img / star / full</title>
<desc>Created with Sketch.</desc>
<g>
	<g id="img_star_full">
		<circle id="glow" class="st0" cx="90.3" cy="89.5" r="28.9"/>
		<g id="img_star" transform="translate(41.666667, 43.333333)">
			<g id="Group-23-Copy">
				<g id="Oval-2">
					<g>
						<g id="Mask">
							
								<radialGradient id="SVGID_1_" cx="-898.9086" cy="581.4789" r="0.7534" gradientTransform="matrix(77.189 0 0 -74.3932 69434.4453 43277.9375)" gradientUnits="userSpaceOnUse">
								<stop  offset="0" style="stop-color:#F9F401"/>
								<stop  offset="0.9398" style="stop-color:#FF883E"/>
								<stop  offset="1" style="stop-color:#FFAD49"/>
							</radialGradient>
							<path class="st1" d="M48.6,76.8l-14,5.5c-5.2,2-11-0.5-13-5.7c-0.5-1.3-0.7-2.8-0.7-4.2l0.9-15l-9.5-11.6
								C8.8,41.4,9.4,35,13.7,31.5c1.1-0.9,2.4-1.6,3.8-1.9L32,25.8l8.1-12.7c3-4.7,9.2-6,13.8-3c1.2,0.8,2.2,1.8,3,3l8.1,12.7
								l14.6,3.8c5.4,1.4,8.6,6.9,7.1,12.2c-0.4,1.4-1,2.7-1.9,3.8l-9.5,11.6l0.9,15c0.3,5.5-3.9,10.3-9.4,10.6
								c-1.4,0.1-2.9-0.1-4.2-0.7L48.6,76.8z"/>
						</g>
						<g>
							
								<radialGradient id="SVGID_2_" cx="-902.2487" cy="596.9383" r="0.2591" gradientTransform="matrix(3.616734e-15 56.6659 89.1071 -5.234549e-15 -53143.168 51171.7891)" gradientUnits="userSpaceOnUse">
								<stop  offset="0" style="stop-color:#F9F401"/>
								<stop  offset="0.5197" style="stop-color:#FFAD49"/>
								<stop  offset="1" style="stop-color:#FF0000"/>
							</radialGradient>
							<path class="st2" d="M48.6,68.9l-13.3,5.2c-2.6,1-5.5-0.3-6.5-2.8c-0.3-0.7-0.4-1.4-0.3-2.1l0.8-14.3l-9.1-11.1
								c-1.8-2.1-1.4-5.3,0.7-7.1c0.6-0.5,1.2-0.8,1.9-1l13.8-3.6l7.7-12c1.5-2.3,4.6-3,6.9-1.5c0.6,0.4,1.1,0.9,1.5,1.5l7.7,12
								l13.8,3.6c2.7,0.7,4.3,3.4,3.6,6.1c-0.2,0.7-0.5,1.3-1,1.9l-9.1,11.1l0.8,14.3c0.2,2.8-2,5.1-4.7,5.3c-0.7,0-1.4-0.1-2.1-0.3
								L48.6,68.9z"/>
						</g>
						<g>
							
								<linearGradient id="SVGID_3_" gradientUnits="userSpaceOnUse" x1="-895.4542" y1="579.4282" x2="-895.4542" y2="578.9451" gradientTransform="matrix(59.0658 0 0 -56.6659 52939.2617 32869.4648)">
								<stop  offset="0" style="stop-color:#F9F401"/>
								<stop  offset="0.5799" style="stop-color:#FF8C00"/>
								<stop  offset="0.678" style="stop-color:#FF7E00"/>
								<stop  offset="1" style="stop-color:#FF4200"/>
							</linearGradient>
							<path class="st3" d="M48.6,68.9l-13.3,5.2c-2.6,1-5.5-0.3-6.5-2.8c-0.3-0.7-0.4-1.4-0.3-2.1l0.8-14.3l-9.1-11.1
								c-1.8-2.1-1.4-5.3,0.7-7.1c0.6-0.5,1.2-0.8,1.9-1l13.8-3.6l7.7-12c1.5-2.3,4.6-3,6.9-1.5c0.6,0.4,1.1,0.9,1.5,1.5l7.7,12
								l13.8,3.6c2.7,0.7,4.3,3.4,3.6,6.1c-0.2,0.7-0.5,1.3-1,1.9l-9.1,11.1l0.8,14.3c0.2,2.8-2,5.1-4.7,5.3c-0.7,0-1.4-0.1-2.1-0.3
								L48.6,68.9z"/>
						</g>
						<g>
							
								<radialGradient id="SVGID_4_" cx="-896.4918" cy="579.8171" r="0.9192" gradientTransform="matrix(63.5471 0 0 -61.0916 57018.0469 35468.043)" gradientUnits="userSpaceOnUse">
								<stop  offset="0" style="stop-color:#FFFFFF;stop-opacity:0"/>
								<stop  offset="0.2675" style="stop-color:#FFFFFF;stop-opacity:0.145"/>
								<stop  offset="0.6158" style="stop-color:#FFFFFF"/>
								<stop  offset="1" style="stop-color:#FFFFFF"/>
								<stop  offset="1" style="stop-color:#FFFFFF"/>
							</radialGradient>
							<path class="st4" d="M48.6,71.1l-13.1,5.1c-3.4,1.3-7.3-0.4-8.6-3.8c-0.3-0.9-0.5-1.9-0.4-2.8l0.8-14l-8.9-10.9
								c-2.3-2.9-1.9-7.1,0.9-9.4c0.7-0.6,1.6-1,2.5-1.3l13.6-3.6L43,18.6c2-3.1,6.1-4,9.2-2c0.8,0.5,1.5,1.2,2,2l7.6,11.8L75.4,34
								c3.6,0.9,5.7,4.6,4.8,8.2c-0.2,0.9-0.7,1.8-1.3,2.5L70,55.5l0.8,14c0.2,3.7-2.6,6.8-6.3,7.1c-1,0.1-1.9-0.1-2.8-0.4
								L48.6,71.1z"/>
						</g>
						<defs>
							<filter id="Adobe_OpacityMaskFilter" filterUnits="userSpaceOnUse" x="52.9" y="57.8" width="3.7" height="3.7">
								<feColorMatrix  type="matrix" values="1 0 0 0 0  0 1 0 0 0  0 0 1 0 0  0 0 0 1 0"/>
							</filter>
						</defs>
						<mask maskUnits="userSpaceOnUse" x="52.9" y="57.8" width="3.7" height="3.7" id="mask-13_1_">
							<g class="st5">
								<path id="path-12_1_" class="st6" d="M48.6,71.1l-13.1,5.1c-3.4,1.3-7.3-0.4-8.6-3.8c-0.3-0.9-0.5-1.9-0.4-2.8l0.8-14
									l-8.9-10.9c-2.3-2.9-1.9-7.1,0.9-9.4c0.7-0.6,1.6-1,2.5-1.3l13.6-3.6L43,18.6c2-3.1,6.1-4,9.2-2c0.8,0.5,1.5,1.2,2,2
									l7.6,11.8L75.4,34c3.6,0.9,5.7,4.6,4.8,8.2c-0.2,0.9-0.7,1.8-1.3,2.5L70,55.5l0.8,14c0.2,3.7-2.6,6.8-6.3,7.1
									c-1,0.1-1.9-0.1-2.8-0.4L48.6,71.1z"/>
							</g>
						</mask>
						
							<radialGradient id="SVGID_5_" cx="-788.485" cy="817.9897" r="0.6535" gradientTransform="matrix(2.259447e-16 3.69 3.773 -2.310273e-16 -3031.5098 2967.2847)" gradientUnits="userSpaceOnUse">
							<stop  offset="0" style="stop-color:#FFFFFF"/>
							<stop  offset="1" style="stop-color:#FFFFFF;stop-opacity:0.4168"/>
						</radialGradient>
						<circle class="st7" cx="54.7" cy="59.7" r="1.8"/>
						<defs>
							<filter id="Adobe_OpacityMaskFilter_1_" filterUnits="userSpaceOnUse" x="32" y="68.9" width="2.5" height="2.5">
								<feColorMatrix  type="matrix" values="1 0 0 0 0  0 1 0 0 0  0 0 1 0 0  0 0 0 1 0"/>
							</filter>
						</defs>
						<mask maskUnits="userSpaceOnUse" x="32" y="68.9" width="2.5" height="2.5" id="mask-13_2_">
							<g class="st8">
								<path id="path-12_2_" class="st6" d="M48.6,71.1l-13.1,5.1c-3.4,1.3-7.3-0.4-8.6-3.8c-0.3-0.9-0.5-1.9-0.4-2.8l0.8-14
									l-8.9-10.9c-2.3-2.9-1.9-7.1,0.9-9.4c0.7-0.6,1.6-1,2.5-1.3l13.6-3.6L43,18.6c2-3.1,6.1-4,9.2-2c0.8,0.5,1.5,1.2,2,2
									l7.6,11.8L75.4,34c3.6,0.9,5.7,4.6,4.8,8.2c-0.2,0.9-0.7,1.8-1.3,2.5L70,55.5l0.8,14c0.2,3.7-2.6,6.8-6.3,7.1
									c-1,0.1-1.9-0.1-2.8-0.4L48.6,71.1z"/>
							</g>
						</mask>
						
							<radialGradient id="Oval-Copy-10_1_" cx="-727.6442" cy="933.1512" r="0.6535" gradientTransform="matrix(1.506298e-16 2.46 2.5153 -1.540182e-16 -2313.9531 1858.8628)" gradientUnits="userSpaceOnUse">
							<stop  offset="0" style="stop-color:#FFFFFF"/>
							<stop  offset="1" style="stop-color:#FFFFFF;stop-opacity:0.4168"/>
						</radialGradient>
						<circle id="Oval-Copy-10" class="st9" cx="33.2" cy="70.1" r="1.2"/>
						<defs>
							<filter id="Adobe_OpacityMaskFilter_2_" filterUnits="userSpaceOnUse" x="55.3" y="62.7" width="2.5" height="2.5">
								<feColorMatrix  type="matrix" values="1 0 0 0 0  0 1 0 0 0  0 0 1 0 0  0 0 0 1 0"/>
							</filter>
						</defs>
						<mask maskUnits="userSpaceOnUse" x="55.3" y="62.7" width="2.5" height="2.5" id="mask-13_3_">
							<g class="st10">
								<path id="path-12_3_" class="st6" d="M48.6,71.1l-13.1,5.1c-3.4,1.3-7.3-0.4-8.6-3.8c-0.3-0.9-0.5-1.9-0.4-2.8l0.8-14
									l-8.9-10.9c-2.3-2.9-1.9-7.1,0.9-9.4c0.7-0.6,1.6-1,2.5-1.3l13.6-3.6L43,18.6c2-3.1,6.1-4,9.2-2c0.8,0.5,1.5,1.2,2,2
									l7.6,11.8L75.4,34c3.6,0.9,5.7,4.6,4.8,8.2c-0.2,0.9-0.7,1.8-1.3,2.5L70,55.5l0.8,14c0.2,3.7-2.6,6.8-6.3,7.1
									c-1,0.1-1.9-0.1-2.8-0.4L48.6,71.1z"/>
							</g>
						</mask>
						
							<radialGradient id="Oval-Copy-7_1_" cx="-727.6442" cy="933.1512" r="0.6535" gradientTransform="matrix(1.506298e-16 2.46 2.5153 -1.540182e-16 -2290.5835 1852.7128)" gradientUnits="userSpaceOnUse">
							<stop  offset="0" style="stop-color:#FFFFFF"/>
							<stop  offset="1" style="stop-color:#FFFFFF;stop-opacity:0.4168"/>
						</radialGradient>
						<circle id="Oval-Copy-7" class="st11" cx="56.6" cy="64" r="1.2"/>
						<defs>
							<filter id="Adobe_OpacityMaskFilter_3_" filterUnits="userSpaceOnUse" x="30.4" y="64.8" width="2" height="2">
								<feColorMatrix  type="matrix" values="1 0 0 0 0  0 1 0 0 0  0 0 1 0 0  0 0 0 1 0"/>
							</filter>
						</defs>
						<mask maskUnits="userSpaceOnUse" x="30.4" y="64.8" width="2" height="2" id="mask-13_4_">
							<g class="st12">
								<path id="path-12_4_" class="st6" d="M48.6,71.1l-13.1,5.1c-3.4,1.3-7.3-0.4-8.6-3.8c-0.3-0.9-0.5-1.9-0.4-2.8l0.8-14
									l-8.9-10.9c-2.3-2.9-1.9-7.1,0.9-9.4c0.7-0.6,1.6-1,2.5-1.3l13.6-3.6L43,18.6c2-3.1,6.1-4,9.2-2c0.8,0.5,1.5,1.2,2,2
									l7.6,11.8L75.4,34c3.6,0.9,5.7,4.6,4.8,8.2c-0.2,0.9-0.7,1.8-1.3,2.5L70,55.5l0.8,14c0.2,3.7-2.6,6.8-6.3,7.1
									c-1,0.1-1.9-0.1-2.8-0.4L48.6,71.1z"/>
							</g>
						</mask>
						
							<radialGradient id="Oval-Copy-11_1_" cx="-685.6667" cy="1012.6076" r="0.6535" gradientTransform="matrix(1.224647e-16 2 2.045 -1.252195e-16 -2039.4078 1436.1376)" gradientUnits="userSpaceOnUse">
							<stop  offset="0" style="stop-color:#FFFFFF"/>
							<stop  offset="1" style="stop-color:#FFFFFF;stop-opacity:0.4168"/>
						</radialGradient>
						<circle id="Oval-Copy-11" class="st13" cx="31.4" cy="65.8" r="1"/>
						<defs>
							<filter id="Adobe_OpacityMaskFilter_4_" filterUnits="userSpaceOnUse" x="36.5" y="58.7" width="2" height="2">
								<feColorMatrix  type="matrix" values="1 0 0 0 0  0 1 0 0 0  0 0 1 0 0  0 0 0 1 0"/>
							</filter>
						</defs>
						<mask maskUnits="userSpaceOnUse" x="36.5" y="58.7" width="2" height="2" id="mask-13_5_">
							<g class="st14">
								<path id="path-12_5_" class="st6" d="M48.6,71.1l-13.1,5.1c-3.4,1.3-7.3-0.4-8.6-3.8c-0.3-0.9-0.5-1.9-0.4-2.8l0.8-14
									l-8.9-10.9c-2.3-2.9-1.9-7.1,0.9-9.4c0.7-0.6,1.6-1,2.5-1.3l13.6-3.6L43,18.6c2-3.1,6.1-4,9.2-2c0.8,0.5,1.5,1.2,2,2
									l7.6,11.8L75.4,34c3.6,0.9,5.7,4.6,4.8,8.2c-0.2,0.9-0.7,1.8-1.3,2.5L70,55.5l0.8,14c0.2,3.7-2.6,6.8-6.3,7.1
									c-1,0.1-1.9-0.1-2.8-0.4L48.6,71.1z"/>
							</g>
						</mask>
						
							<radialGradient id="Oval-Copy-15_1_" cx="-685.6667" cy="1012.6076" r="0.6535" gradientTransform="matrix(1.224647e-16 2 2.045 -1.252195e-16 -2033.2579 1429.9877)" gradientUnits="userSpaceOnUse">
							<stop  offset="0" style="stop-color:#FFFFFF"/>
							<stop  offset="1" style="stop-color:#FFFFFF;stop-opacity:0.4168"/>
						</radialGradient>
						<circle id="Oval-Copy-15" class="st15" cx="37.5" cy="59.7" r="1"/>
						<defs>
							<filter id="Adobe_OpacityMaskFilter_5_" filterUnits="userSpaceOnUse" x="59.9" y="63.6" width="2" height="2">
								<feColorMatrix  type="matrix" values="1 0 0 0 0  0 1 0 0 0  0 0 1 0 0  0 0 0 1 0"/>
							</filter>
						</defs>
						<mask maskUnits="userSpaceOnUse" x="59.9" y="63.6" width="2" height="2" id="mask-13_6_">
							<g class="st16">
								<path id="path-12_6_" class="st6" d="M48.6,71.1l-13.1,5.1c-3.4,1.3-7.3-0.4-8.6-3.8c-0.3-0.9-0.5-1.9-0.4-2.8l0.8-14
									l-8.9-10.9c-2.3-2.9-1.9-7.1,0.9-9.4c0.7-0.6,1.6-1,2.5-1.3l13.6-3.6L43,18.6c2-3.1,6.1-4,9.2-2c0.8,0.5,1.5,1.2,2,2
									l7.6,11.8L75.4,34c3.6,0.9,5.7,4.6,4.8,8.2c-0.2,0.9-0.7,1.8-1.3,2.5L70,55.5l0.8,14c0.2,3.7-2.6,6.8-6.3,7.1
									c-1,0.1-1.9-0.1-2.8-0.4L48.6,71.1z"/>
							</g>
						</mask>
						
							<radialGradient id="Oval-Copy-8_1_" cx="-685.6667" cy="1012.6076" r="0.6535" gradientTransform="matrix(1.224647e-16 2 2.045 -1.252195e-16 -2009.8882 1434.9076)" gradientUnits="userSpaceOnUse">
							<stop  offset="0" style="stop-color:#FFFFFF"/>
							<stop  offset="1" style="stop-color:#FFFFFF;stop-opacity:0.4168"/>
						</radialGradient>
						<circle id="Oval-Copy-8" class="st17" cx="60.9" cy="64.6" r="1"/>
						<defs>
							<filter id="Adobe_OpacityMaskFilter_6_" filterUnits="userSpaceOnUse" x="51.3" y="64.8" width="2" height="2">
								<feColorMatrix  type="matrix" values="1 0 0 0 0  0 1 0 0 0  0 0 1 0 0  0 0 0 1 0"/>
							</filter>
						</defs>
						<mask maskUnits="userSpaceOnUse" x="51.3" y="64.8" width="2" height="2" id="mask-13_7_">
							<g class="st18">
								<path id="path-12_7_" class="st6" d="M48.6,71.1l-13.1,5.1c-3.4,1.3-7.3-0.4-8.6-3.8c-0.3-0.9-0.5-1.9-0.4-2.8l0.8-14
									l-8.9-10.9c-2.3-2.9-1.9-7.1,0.9-9.4c0.7-0.6,1.6-1,2.5-1.3l13.6-3.6L43,18.6c2-3.1,6.1-4,9.2-2c0.8,0.5,1.5,1.2,2,2
									l7.6,11.8L75.4,34c3.6,0.9,5.7,4.6,4.8,8.2c-0.2,0.9-0.7,1.8-1.3,2.5L70,55.5l0.8,14c0.2,3.7-2.6,6.8-6.3,7.1
									c-1,0.1-1.9-0.1-2.8-0.4L48.6,71.1z"/>
							</g>
						</mask>
						
							<radialGradient id="Oval-Copy-16_1_" cx="-685.6667" cy="1012.6076" r="0.6535" gradientTransform="matrix(1.224647e-16 2 2.045 -1.252195e-16 -2018.4982 1436.1376)" gradientUnits="userSpaceOnUse">
							<stop  offset="0" style="stop-color:#FFFFFF"/>
							<stop  offset="1" style="stop-color:#FFFFFF;stop-opacity:0.4168"/>
						</radialGradient>
						<circle id="Oval-Copy-16" class="st19" cx="52.3" cy="65.8" r="1"/>
						<defs>
							<filter id="Adobe_OpacityMaskFilter_7_" filterUnits="userSpaceOnUse" x="59.9" y="68.5" width="2" height="2">
								<feColorMatrix  type="matrix" values="1 0 0 0 0  0 1 0 0 0  0 0 1 0 0  0 0 0 1 0"/>
							</filter>
						</defs>
						<mask maskUnits="userSpaceOnUse" x="59.9" y="68.5" width="2" height="2" id="mask-13_8_">
							<g class="st20">
								<path id="path-12_8_" class="st6" d="M48.6,71.1l-13.1,5.1c-3.4,1.3-7.3-0.4-8.6-3.8c-0.3-0.9-0.5-1.9-0.4-2.8l0.8-14
									l-8.9-10.9c-2.3-2.9-1.9-7.1,0.9-9.4c0.7-0.6,1.6-1,2.5-1.3l13.6-3.6L43,18.6c2-3.1,6.1-4,9.2-2c0.8,0.5,1.5,1.2,2,2
									l7.6,11.8L75.4,34c3.6,0.9,5.7,4.6,4.8,8.2c-0.2,0.9-0.7,1.8-1.3,2.5L70,55.5l0.8,14c0.2,3.7-2.6,6.8-6.3,7.1
									c-1,0.1-1.9-0.1-2.8-0.4L48.6,71.1z"/>
							</g>
						</mask>
						
							<radialGradient id="Oval-Copy-17_1_" cx="-685.6667" cy="1012.6076" r="0.6535" gradientTransform="matrix(1.224647e-16 2 2.045 -1.252195e-16 -2009.8882 1439.8275)" gradientUnits="userSpaceOnUse">
							<stop  offset="0" style="stop-color:#FFFFFF"/>
							<stop  offset="1" style="stop-color:#FFFFFF;stop-opacity:0.4168"/>
						</radialGradient>
						<circle id="Oval-Copy-17" class="st21" cx="60.9" cy="69.5" r="1"/>
						<defs>
							<filter id="Adobe_OpacityMaskFilter_8_" filterUnits="userSpaceOnUse" x="35.3" y="67.3" width="2" height="2">
								<feColorMatrix  type="matrix" values="1 0 0 0 0  0 1 0 0 0  0 0 1 0 0  0 0 0 1 0"/>
							</filter>
						</defs>
						<mask maskUnits="userSpaceOnUse" x="35.3" y="67.3" width="2" height="2" id="mask-13_9_">
							<g class="st22">
								<path id="path-12_9_" class="st6" d="M48.6,71.1l-13.1,5.1c-3.4,1.3-7.3-0.4-8.6-3.8c-0.3-0.9-0.5-1.9-0.4-2.8l0.8-14
									l-8.9-10.9c-2.3-2.9-1.9-7.1,0.9-9.4c0.7-0.6,1.6-1,2.5-1.3l13.6-3.6L43,18.6c2-3.1,6.1-4,9.2-2c0.8,0.5,1.5,1.2,2,2
									l7.6,11.8L75.4,34c3.6,0.9,5.7,4.6,4.8,8.2c-0.2,0.9-0.7,1.8-1.3,2.5L70,55.5l0.8,14c0.2,3.7-2.6,6.8-6.3,7.1
									c-1,0.1-1.9-0.1-2.8-0.4L48.6,71.1z"/>
							</g>
						</mask>
						
							<radialGradient id="Oval-Copy-12_1_" cx="-685.6667" cy="1012.6076" r="0.6535" gradientTransform="matrix(1.224647e-16 2 2.045 -1.252195e-16 -2034.4879 1438.5975)" gradientUnits="userSpaceOnUse">
							<stop  offset="0" style="stop-color:#FFFFFF"/>
							<stop  offset="1" style="stop-color:#FFFFFF;stop-opacity:0.4168"/>
						</radialGradient>
						<circle id="Oval-Copy-12" class="st23" cx="36.3" cy="68.3" r="1"/>
						<defs>
							<filter id="Adobe_OpacityMaskFilter_9_" filterUnits="userSpaceOnUse" x="57.8" y="51.7" width="6.1" height="6.1">
								<feColorMatrix  type="matrix" values="1 0 0 0 0  0 1 0 0 0  0 0 1 0 0  0 0 0 1 0"/>
							</filter>
						</defs>
						<mask maskUnits="userSpaceOnUse" x="57.8" y="51.7" width="6.1" height="6.1" id="mask-13_10_">
							<g class="st24">
								<path id="path-12_10_" class="st6" d="M48.6,71.1l-13.1,5.1c-3.4,1.3-7.3-0.4-8.6-3.8c-0.3-0.9-0.5-1.9-0.4-2.8l0.8-14
									l-8.9-10.9c-2.3-2.9-1.9-7.1,0.9-9.4c0.7-0.6,1.6-1,2.5-1.3l13.6-3.6L43,18.6c2-3.1,6.1-4,9.2-2c0.8,0.5,1.5,1.2,2,2
									l7.6,11.8L75.4,34c3.6,0.9,5.7,4.6,4.8,8.2c-0.2,0.9-0.7,1.8-1.3,2.5L70,55.5l0.8,14c0.2,3.7-2.6,6.8-6.3,7.1
									c-1,0.1-1.9-0.1-2.8-0.4L48.6,71.1z"/>
							</g>
						</mask>
						<g id="Group-26" class="st25">
							<g transform="translate(57.809316, 51.659389)">
								
									<radialGradient id="Oval-Copy-9_1_" cx="-894.967" cy="674.2011" r="0.6535" gradientTransform="matrix(3.765744e-16 6.1499 6.2883 -3.850455e-16 -4236.4834 5503.9819)" gradientUnits="userSpaceOnUse">
									<stop  offset="0" style="stop-color:#FFFFFF"/>
									<stop  offset="1" style="stop-color:#FFFFFF;stop-opacity:0.4168"/>
								</radialGradient>
								<circle id="Oval-Copy-9" class="st26" cx="3.1" cy="3.1" r="3.1"/>
								<circle id="Oval" class="st6" cx="1.8" cy="1.8" r="1"/>
							</g>
						</g>
						<defs>
							<filter id="Adobe_OpacityMaskFilter_10_" filterUnits="userSpaceOnUse" x="25.8" y="34.4" width="44.3" height="11.1">
								<feColorMatrix  type="matrix" values="1 0 0 0 0  0 1 0 0 0  0 0 1 0 0  0 0 0 1 0"/>
							</filter>
						</defs>
						<mask maskUnits="userSpaceOnUse" x="25.8" y="34.4" width="44.3" height="11.1" id="mask-13_11_">
							<g class="st27">
								<path id="path-12_11_" class="st6" d="M48.6,71.1l-13.1,5.1c-3.4,1.3-7.3-0.4-8.6-3.8c-0.3-0.9-0.5-1.9-0.4-2.8l0.8-14
									l-8.9-10.9c-2.3-2.9-1.9-7.1,0.9-9.4c0.7-0.6,1.6-1,2.5-1.3l13.6-3.6L43,18.6c2-3.1,6.1-4,9.2-2c0.8,0.5,1.5,1.2,2,2
									l7.6,11.8L75.4,34c3.6,0.9,5.7,4.6,4.8,8.2c-0.2,0.9-0.7,1.8-1.3,2.5L70,55.5l0.8,14c0.2,3.7-2.6,6.8-6.3,7.1
									c-1,0.1-1.9-0.1-2.8-0.4L48.6,71.1z"/>
							</g>
						</mask>
						
							<linearGradient id="SVGID_6_" gradientUnits="userSpaceOnUse" x1="-890.9455" y1="546.6061" x2="-889.5891" y2="546.6061" gradientTransform="matrix(44.2795 0 0 -11.0699 39480.6719 6090.8325)">
							<stop  offset="0" style="stop-color:#FF7E00;stop-opacity:0"/>
							<stop  offset="1" style="stop-color:#FFB85E"/>
							<stop  offset="1" style="stop-color:#F9F401;stop-opacity:0"/>
						</linearGradient>
						<ellipse class="st28" cx="48" cy="40" rx="22.1" ry="5.5"/>
						<defs>
							<filter id="Adobe_OpacityMaskFilter_11_" filterUnits="userSpaceOnUse" x="7.9" y="3.7" width="79.3" height="44.3">
								<feColorMatrix  type="matrix" values="1 0 0 0 0  0 1 0 0 0  0 0 1 0 0  0 0 0 1 0"/>
							</filter>
						</defs>
						<mask maskUnits="userSpaceOnUse" x="7.9" y="3.7" width="79.3" height="44.3" id="mask-13_12_">
							<g class="st29">
								<path id="path-12_12_" class="st6" d="M48.6,71.1l-13.1,5.1c-3.4,1.3-7.3-0.4-8.6-3.8c-0.3-0.9-0.5-1.9-0.4-2.8l0.8-14
									l-8.9-10.9c-2.3-2.9-1.9-7.1,0.9-9.4c0.7-0.6,1.6-1,2.5-1.3l13.6-3.6L43,18.6c2-3.1,6.1-4,9.2-2c0.8,0.5,1.5,1.2,2,2
									l7.6,11.8L75.4,34c3.6,0.9,5.7,4.6,4.8,8.2c-0.2,0.9-0.7,1.8-1.3,2.5L70,55.5l0.8,14c0.2,3.7-2.6,6.8-6.3,7.1
									c-1,0.1-1.9-0.1-2.8-0.4L48.6,71.1z"/>
							</g>
						</mask>
						
							<linearGradient id="SVGID_7_" gradientUnits="userSpaceOnUse" x1="-899.3004" y1="577.1171" x2="-899.1334" y2="576.9473" gradientTransform="matrix(79.3215 0 0 -44.2795 71374.3906 25576.2617)">
							<stop  offset="0" style="stop-color:#FFFFFF;stop-opacity:0"/>
							<stop  offset="0.3172" style="stop-color:#FFFFFF;stop-opacity:2.404785e-02"/>
							<stop  offset="1" style="stop-color:#FFFFFF"/>
						</linearGradient>
						<ellipse class="st30" cx="47.6" cy="25.8" rx="39.7" ry="22.1"/>
					</g>
				</g>
				<path class="st6" d="M39.2,31.3c1,0.7,2.8-2.2,5-5.6c2.2-3.5,3.9-6.3,2.9-6.9c-1-0.6-2.8,2.2-5,5.6S38.1,30.7,39.2,31.3z"/>
				<path class="st6" d="M55.6,43.1c0.4,1.2,4.3,0.7,8.8-0.8c4.5-1.5,7.9-3.6,7.5-4.8s-3.8,0.9-8.3,2.4C59.1,41.5,55.2,42,55.6,43.1
					z"/>
				<path id="Oval-Copy-6" class="st6" d="M24.9,35.7c0.3,1.2,2.9,0.6,6.3-0.1c3.3-0.7,9.9-4.4,8.2-5.6c-1.6-1.3-5.4,2.5-8.8,3.2
					S24.7,34.5,24.9,35.7z"/>
			</g>
		</g>
	</g>
</g>
</svg>
