<?xml version="1.0" encoding="utf-8"?>
<!-- Generator: Adobe Illustrator 23.0.2, SVG Export Plug-In . SVG Version: 6.00 Build 0)  -->
<svg version="1.1" id="레이어_1" xmlns="http://www.w3.org/2000/svg" xmlns:xlink="http://www.w3.org/1999/xlink" x="0px"
	 y="0px" viewBox="0 0 341 380" style="enable-background:new 0 0 341 380;" xml:space="preserve">
<style type="text/css">
	.st0{fill:#FFFFFF;}
	.st1{fill:#673101;}
	.st2{fill:#00A2E7;}
	.st3{fill:#008AC4;}
	.st4{fill:#FFB400;}
	.st5{fill:#FFE4A9;}
	.st6{fill:#C92114;}
	.st7{fill:#FFC0BB;}
</style>
<title>자산 2</title>
<g>
	<path class="st0" d="M135.6,78.9l0.2-0.2c3.2-3.9,2.7-9.8-1.3-13c-3.1-2.5-4.8-7.6-5.2-9.2c-0.2-1.5-0.2-4,0.8-4.9
		c2.4-2.2,10-2.1,14.4-1.2c5,0.8,9.8-2.7,10.5-7.7c0.7-4.6-2.1-9-6.5-10.3c-2-0.5-20.2-4.1-30.8,5.6c-3.8,3.5-8.1,10.1-6.6,21.3
		l0.1,0.6c0.2,1.3,2.8,12.9,11.6,20.1C126.7,83.1,132.3,82.7,135.6,78.9z"/>
	<path class="st1" d="M140,46.1c0.5-0.5,1.1-0.9,1.8-1.1c-2,0.2-3.8-1.3-4-3.3s1.3-3.8,3.3-4c-0.9,0-1.7-0.3-2.4-0.9
		c-1.5-1.3-1.7-3.7-0.3-5.2c0.1-0.1,0.3-0.2,0.4-0.3c3.2,0,6.4,0.4,9.6,1c4.9,1.4,7.7,6.6,6.3,11.5c-1.3,4.4-5.7,7.2-10.3,6.5
		c-1.7-0.3-3.4-0.5-5.2-0.6C138.9,48.4,139.1,47.1,140,46.1z"/>
</g>
<g>
	<path class="st0" d="M86.9,100.3h-0.3c-5.1,0.1-9.3-4-9.3-9.1c0-4-2.9-8.5-3.9-9.8c-1.1-1.1-2.9-2.7-4.4-2.4
		c-3.2,0.5-7.9,6.5-9.9,10.4c-2.4,4.5-8,6.2-12.5,3.8c-4.3-2.3-6.1-7.5-4-12c0.9-1.9,9.4-18.3,23.7-20.5c5.2-0.8,12.9,0,20.8,8.2
		l0.4,0.4c0.9,1,8.3,10.2,8.4,21.7C95.8,96,91.9,100.1,86.9,100.3z"/>
	<path class="st1" d="M58.6,83.2c-0.7,0-1.4,0.3-2,0.8c0.7-0.7,1-1.7,1-2.6c-0.1-2-1.8-3.6-3.8-3.5c-0.9,0-1.8,0.4-2.4,1.1
		c1.3-1.6,1-3.9-0.6-5.1c-0.7-0.6-1.6-0.8-2.4-0.8c-0.2,0-0.4,0.1-0.5,0.1c-2,2.5-3.7,5.3-5.2,8.2c-2.1,4.6-0.1,10.1,4.6,12.2
		c4.4,2,9.7,0.3,12-4c0.8-1.5,1.7-3,2.7-4.4C61.2,83.8,59.9,83.1,58.6,83.2z"/>
</g>
<g>
	<path class="st0" d="M196.9,218.2c-2.3-1.6-5.4-1-7,1.3s-1,5.4,1.3,7l0,0l36.7,25.5l5.8-8.3L196.9,218.2z"/>
	<path class="st2" d="M306.5,245.8c-0.6-0.4-1.3-0.8-2-1.1c-8.3-4.5-18.6-3.3-25.6,3.1l0,0l-0.1,0.1l-0.1,0.1
		c-7,6.8-10.7,19.6-10.7,19.6l-11.2-7.8l-23.1-16.1l-5.8,8.3l0,0l54.7,38l3.8-5.5l14.8-21.3l9.5-13.6
		C309.4,248.1,308.1,246.8,306.5,245.8z"/>
	<g>
		<path class="st3" d="M281,253.3h3.8c1-4.6,3.8-8.7,7.7-11.4c-2.3,0.2-4.5,0.7-6.6,1.5C281.5,248.5,281,252.8,281,253.3z"/>
		<path class="st3" d="M291.8,255.5h4.5c0-0.1,0.6-5,8.3-10.9c-1.5-0.8-3.1-1.5-4.7-2C292.2,249.2,291.8,254.8,291.8,255.5z"/>
	</g>
</g>
<g>
	<path class="st0" d="M169.1,240.9c-1.1-2.6-4-3.8-6.6-2.8s-3.8,4-2.8,6.6l0,0l17,41.3l9.4-3.9L169.1,240.9z"/>
	<path class="st2" d="M246.4,323.5c-0.3-0.7-0.7-1.4-1.1-2c-0.8-1.5-1.8-2.9-2.9-4.2c-3.2-3.6-7.5-6-12.1-6.9
		c-2.7-0.6-5.5-0.6-8.2-0.1l0,0c-0.1,0-0.1,0-0.2,0h-0.2c-9.6,1.9-19.6,10.7-19.6,10.7l-5.2-12.7l-10.7-26l-9.4,3.9l0,0l25.4,61.6
		l6.2-2.6l24-9.9l15.4-6.3C247.5,327,247.1,325.2,246.4,323.5z"/>
	<g>
		<path class="st3" d="M220.8,316l3.2,2.1c3.4-3.4,7.9-5.3,12.7-5.5c-2-1.1-4.2-1.9-6.4-2.3C223.8,312.2,221.1,315.5,220.8,316z"/>
		<path class="st3" d="M228.7,323.6l3.8,2.5c0,0,3.2-3.9,12.9-4.7c-0.8-1.5-1.8-2.9-2.9-4.2C232.4,318.6,229,323.1,228.7,323.6z"/>
	</g>
</g>
<g>
	<path class="st0" d="M194.2,132.4c-4.9,2.4-10.6,8.7-8.4,13.9c1.5,3.3,7,2.3,11.9,0c1.1-0.5,21.5-8.8,35.5-36.2
		c-5.9-0.3-11.6-2.5-16.1-6.3C207.6,123.9,195,132,194.2,132.4z"/>
	<path class="st3" d="M239.9,56.2c-0.9-0.3-1.9-0.5-2.8-0.5c-5.1,0.1-9.7,4.9-10.2,10.8c-1.1,12.9-4.4,25.4-9.8,37.2
		c4.5,3.8,10.2,6,16.1,6.3c5.7-11.2,10.3-25.5,12-43.8C245.7,61.5,243.5,57.5,239.9,56.2z"/>
</g>
<g>
	<path class="st4" d="M99,180.1c-9.9,3.6-11.4,0.2-12.4-3c-0.1-0.9-0.3-1.8-0.5-2.6l0,0c-0.6-2.6-1.4-5.2-2.4-7.6
		c-6-14.5-18.2-23.3-27.3-19.5s-11.6,18.6-5.6,33.1c3.4,8.2,8.8,14.6,14.5,17.9c-1.7,6.4-1,14.7,2.3,22.9
		c6,14.5,18.2,23.3,27.3,19.5s11.6-18.6,5.6-33.1c-1-2.4-5.5-11.5-5.5-11.5c-2.9-5.4,6.9-8.6,6.9-8.6l6.5-2.5l-3.2-7.7L99,180.1z
		 M64.5,166.8c2.8-1.1,6.8,2.3,9,7.7s1.8,10.6-1,11.8s-6.8-2.3-9-7.6S61.8,167.9,64.5,166.8z M87.5,225.1c-2.8,1.1-6.8-2.3-9-7.7
		s-1.8-10.6,1-11.8s6.8,2.3,9,7.6S90.3,224,87.5,225.1L87.5,225.1z"/>
	<g>
		<path class="st5" d="M57,182.8c-1.4,0.6-2.9-0.1-3.5-1.4c-0.3-0.7-7-17.2-0.5-27.1c0.7-1.3,2.4-1.7,3.6-1c1.3,0.7,1.7,2.4,1,3.6
			c-0.1,0.1-0.1,0.2-0.2,0.3c-4.1,6.2-0.7,18.1,1,22.1C59.1,180.7,58.4,182.2,57,182.8z"/>
		<path class="st5" d="M72.7,220c-1.4,0.6-2.9-0.1-3.5-1.5c-3.5-8.5-1.4-15.1-1.3-15.4c0.6-1.4,2.1-2,3.5-1.4c1.2,0.5,1.8,1.8,1.6,3
			c-0.1,0.2-1.5,5.1,1.2,11.7C74.8,217.8,74.1,219.4,72.7,220C72.8,220,72.7,220,72.7,220z"/>
	</g>
</g>
<g>
	<path class="st2" d="M223.6,185.3l-23.8-57.6l-52.7-72.5c-25.3-0.9-38.2,6.4-38.2,6.4c-50.3,20.6-33.8,60.6-33.8,60.6l18.3,44.4
		l25.5,61.7v0.1c7.9,19.2,37.8,25.1,66.7,13.1S231.5,204.5,223.6,185.3z"/>
	<path class="st3" d="M203.4,157.9c-3.5-9.3-13.8-14.1-23.2-10.6c-9.3,3.5-14.1,13.8-10.6,23.2c0.1,0.4,0.3,0.8,0.5,1.1l10.7,26l0,0
		c3.7,9.2,14.1,13.7,23.4,10.1c9.2-3.7,13.7-14.1,10.1-23.4c-0.1-0.1-0.1-0.3-0.2-0.4L203.4,157.9L203.4,157.9z"/>
</g>
<g>
	<path class="st0" d="M105.6,168.2c-2.6-0.5-15.9-2.3-32.9-17c-1.1,2.3-2.4,4.4-4,6.3c-2.1,2.6-4.7,4.8-7.6,6.4
		c23.9,19.2,45.8,18.4,47,18.4c5.4,0.1,10.9-1.2,10.9-4.9C118.8,171.8,110.8,169.1,105.6,168.2z"/>
	<path class="st3" d="M68.6,157.5c1.6-1.9,2.9-4.1,4-6.3c-9.6-8.5-17.6-18.5-23.8-29.7c-2.9-5.2-9.1-7.7-13.8-5.7
		c-0.9,0.4-1.7,0.9-2.4,1.6c-2.7,2.7-3.1,7.2-0.8,11.3c9.2,16.1,19.3,27.4,29.1,35.2C63.9,162.2,66.5,160.1,68.6,157.5z"/>
</g>
<path class="st0" d="M117.6,59.3c0,0,10.8-4.1,13.7-4.7C165,46.2,179,70,181.4,74.8c10.8,1.5,20,8.6,24.1,18.6l0.9,2.2
	c6.4,15.6-1,33.5-16.6,39.9l-34.7,14.3C127.6,161.1,97,150,86.7,125S90.3,70.6,117.6,59.3z"/>
<g>
	<path d="M171,98.2c0.4,1.2-0.3,2.5-1.5,2.9s-2.5-0.3-2.9-1.5c-0.4-1.1,0.2-2.4,1.3-2.8C169.2,96.4,170.6,97,171,98.2z"/>
	<path d="M171.8,87.2L171.8,87.2c1.8-0.8,3.9,0.1,4.6,1.9l0.1,0.3c0.7,1.8-0.1,3.9-1.9,4.6l0,0c-1.8,0.7-3.9-0.1-4.6-1.9l-0.1-0.3
		C169.2,90,170,87.9,171.8,87.2z"/>
	<path d="M148.8,96.6L148.8,96.6c1.8-0.8,3.9,0.1,4.6,1.9l0.1,0.3c0.7,1.8-0.1,3.9-1.9,4.6l0,0c-1.8,0.7-3.9-0.1-4.6-1.9l-0.1-0.3
		C146.2,99.4,147,97.4,148.8,96.6z"/>
	<path class="st6" d="M181.7,114.6c-1.3-3.3-3-6.4-5.1-9.3c-2.1,1.9-4.8,3-7.7,3.1c0.6,3.5,1.6,6.9,3,10.2
		c3.6,8.8,7.2,11.2,9.9,10.1S185.3,123.4,181.7,114.6z"/>
</g>
<g>
	<path class="st7" d="M117.6,125.8c3.4,8,12.5,11.7,20.5,8.4c8-3.4,11.7-12.5,8.4-20.5c-3.3-7.9-12.4-11.7-20.4-8.4
		C118.1,108.6,114.3,117.8,117.6,125.8z"/>
	<path class="st7" d="M187.8,97c-2.7-6.5-0.7-14,4.8-18.4c5.9,3.3,10.4,8.6,13,14.8l0.9,2.2c1.3,3.1,2,6.4,2.2,9.8
		c-0.1,0.1-0.3,0.1-0.4,0.2C200.2,108.9,191.1,105.1,187.8,97L187.8,97z"/>
</g>
</svg>
