<?xml version="1.0" encoding="utf-8"?>
<!-- Generator: Adobe Illustrator 24.1.1, SVG Export Plug-In . SVG Version: 6.00 Build 0)  -->
<svg version="1.1" id="Layer_1" xmlns="http://www.w3.org/2000/svg" xmlns:xlink="http://www.w3.org/1999/xlink" x="0px" y="0px"
	 viewBox="0 0 180 240" style="enable-background:new 0 0 180 240;" xml:space="preserve">
<g>
	<path style="fill:#99DAFF;" d="M134.39,109.62l-1.78,1c-1.65-2.06-4.81-3.68-7.5-4.77c0.1-1.06,0.22-2.17,0.32-3.3
		C128.41,103.69,132.23,107.31,134.39,109.62z"/>
	<path style="fill:#99DAFF;" d="M28.3,16.33v7.32c-3.8,0.69-9.82-1.99-12.72-3.56c0.46-1.95,2.53-6.71,4.74-11.17
		C22.59,11.62,26.63,14.98,28.3,16.33z"/>
	<g>
		<path style="fill:#99DAFF;" d="M89.73,51.04c-2.57,1.11-5.32,4.64-6.88,6.87c-3.6-5.85-4.65-14.63-4.9-17.36l5.25-2.91
			C84.15,42.26,87.67,47.98,89.73,51.04z"/>
		<path style="fill:#99DAFF;" d="M112.55,41.52c-0.52,2.99-2.38,11.88-6.6,16.58c-1.36-2.45-4.14-6.75-7.46-8.06
			c2.03-2.9,5.53-8.15,6.67-11.66L112.55,41.52z"/>
		<path d="M144.76,49.75c-9.68-9.68-22.94-10.13-29.32-10.35l-1.11-0.04l-9.63-4.09c-0.4-0.17-0.88-0.14-1.25,0.1
			c-0.36,0.24-0.61,0.65-0.62,1.09c-0.07,2.4-4.79,9.64-7.77,13.71c-0.01,0.01-0.02,0.04-0.04,0.06c-0.5,0.52-0.98,1.02-1.44,1.48
			c-0.09-0.08-0.19-0.16-0.27-0.25c-2.22-3.02-7.65-11.37-7.66-15.98c0-0.47-0.25-0.91-0.66-1.16c-0.42-0.24-0.91-0.24-1.33-0.01
			l-7.46,4.14l-3.49-0.02c-3.76-0.54-18.09,3.3-20.03,4.37c-1.14,0.65-9.13,2.32-15.07,3.43l-7.06-20.55
			c0.28-0.24,0.46-0.61,0.46-1.01v-8.98c0-0.4-0.19-0.8-0.51-1.05c-3.11-2.46-8.34-7.06-9.08-8.88c-0.2-0.49-0.66-0.82-1.19-0.83
			c-0.54-0.04-1.02,0.25-1.27,0.73c-1.41,2.8-6.01,11.94-6.13,14.97c0,0.01,0,0.04-0.01,0.07c-0.32,2.2-5,34.8,9.43,47.5
			c1.19,1.43,7.43,5.55,39.54,1.48c0.65,6.2,3.22,31.4,3.32,34.82c0,0.51,0.01,1.08,0.01,1.69c0,4.34,0.02,10.9,4.16,13.48
			c2.17,1.35,18.83,2.82,32.97,2.82c9.78,0,18.35-0.72,20.01-2.64c1.01-1.17,1.85-5.5,2.54-11.18c2.8,1.2,5.44,2.75,6.16,4.31
			c0.16,0.35,0.46,0.61,0.81,0.73c0.14,0.04,0.28,0.07,0.42,0.07c0.23,0,0.46-0.07,0.66-0.17l4.12-2.3
			c5.51-0.91,33.8-17.5,34.37-25.97C171.84,77.53,157.88,62.87,144.76,49.75z M105.15,38.38l6.66,2.83l0.74,0.31
			c-0.02,0.14-0.06,0.28-0.08,0.44c-0.62,3.34-2.49,11.65-6.52,16.14c-1.32-2.38-3.99-6.52-7.19-7.93
			c-0.09-0.06-0.16-0.08-0.25-0.12h-0.02C100.52,47.15,104.01,41.89,105.15,38.38z M78.08,40.47l3.57-1.97l1.55-0.86
			c0.06,0.3,0.14,0.58,0.2,0.88c1.19,4.45,4.4,9.66,6.33,12.53c-0.06,0.02-0.12,0.06-0.17,0.08c-0.09,0.04-0.19,0.08-0.28,0.14
			c-2.44,1.31-4.96,4.55-6.43,6.66c-3.37-5.47-4.5-13.5-4.85-16.76c-0.01-0.23-0.04-0.43-0.06-0.61L78.08,40.47z M20.32,8.92
			c2.27,2.7,6.3,6.06,7.98,7.41v7.32c-3.8,0.69-9.82-1.99-12.72-3.56C16.04,18.13,18.12,13.37,20.32,8.92z M70.69,117.36
			c-2.88-1.79-2.9-7.45-2.9-11.19c0-0.63-0.01-1.22-0.02-1.75c-0.09-3.99-3.32-35.08-3.45-36.42c-0.04-0.35-0.22-0.69-0.51-0.91
			c-0.14-0.1-0.3-0.19-0.47-0.23c-0.01-0.01-0.02-0.01-0.04-0.01c-0.1-0.02-0.22-0.04-0.32-0.04c-0.06,0-0.1,0-0.17,0.01
			c-17,2.22-26.62,2.13-32,1.48c-0.08,0-0.15-0.01-0.23-0.02c-0.35-0.04-0.69-0.08-0.99-0.14c-0.01,0-0.02-0.01-0.04,0
			c-4.01-0.63-5.08-1.55-5.2-1.67c-0.07-0.08-0.15-0.16-0.23-0.24c-11.61-10.05-9.75-35.5-8.92-43.07
			c2.52,1.55,7.19,3.85,12.49,3.43c0.09-0.01,0.2-0.01,0.3-0.02l7.43,21.61c0.02,0.09,0.08,0.19,0.14,0.27
			c0.28,0.47,0.82,0.73,1.39,0.62c2.48-0.46,14.97-2.79,17.03-3.93c1.98-1.09,15.86-4.53,18.36-4.06c0.08,0.01,0.16,0.02,0.23,0.02
			l2.72,0.02c0.35,3.58,1.72,13.87,6.53,20.02c0.25,0.32,0.65,0.51,1.05,0.51h0.08c0.43-0.02,0.83-0.27,1.06-0.64
			c1.85-2.96,5.27-7.29,7.11-7.63c0.2-0.02,0.28,0,0.34,0.02c0.01,0.01,0.02,0.01,0.04,0.02c0.09,0.08,0.2,0.14,0.31,0.17
			c-0.02,0.01-0.04,0.04-0.06,0.07c-0.96,1.31-2.37,3.73-3.12,7.5c-0.01,0.09-0.02,0.2-0.02,0.3l1.57,58.02
			C79.7,119.09,71.91,118.13,70.69,117.36z M132.61,110.61c-1.65-2.06-4.81-3.68-7.5-4.77c0.1-1.06,0.22-2.17,0.32-3.3
			c2.98,1.14,6.8,4.77,8.96,7.07L132.61,110.61z M137.5,108.39c-0.16,0.06-0.31,0.1-0.44,0.14c-0.42-0.47-1.08-1.19-1.91-2.02
			c-1.55-1.55-3.69-3.51-5.92-4.96c-0.44-0.28-0.89-0.57-1.33-0.81c-0.22-0.12-0.43-0.23-0.65-0.34c0.17-0.19,0.35-0.39,0.52-0.59
			c6.48-7.34,15.16-16.55,17.12-17.26c0.49-0.16,0.83-0.61,0.89-1.12c0.06-0.52-0.19-1.02-0.64-1.29L126.71,68.8
			c-0.24-0.15-0.51-0.22-0.78-0.19c-0.19,0-0.39,0.06-0.57,0.15c-0.42,0.23-0.69,0.66-0.72,1.13c-0.39,10.87-1.04,22.24-1.82,31.21
			c-0.06,0.67-0.12,1.35-0.17,1.99c-0.1,1.11-0.2,2.18-0.31,3.19c-0.06,0.47-0.09,0.91-0.15,1.36c-0.64,5.71-1.32,9.61-1.99,10.42
			c-0.93,0.86-8.24,2.02-24.57,1.64c-0.93-0.02-1.86-0.04-2.76-0.08l-1.57-58.03c0.96-4.55,2.96-6.75,3.25-7.05
			c0.02-0.01,0.04-0.02,0.04-0.02c0.01-0.01,0.01-0.01,0.02-0.02c0.25-0.25,1.05-1.04,2.1-2.13c2.8,0.2,6.3,5.74,7.64,8.54
			c0.17,0.38,0.52,0.65,0.93,0.73c0.09,0.02,0.19,0.04,0.3,0.04c0.31,0,0.61-0.1,0.85-0.31c5.78-4.77,8.11-15.6,8.76-19.26h0.16
			c6.5,0.22,18.58,0.65,27.49,9.55c8.53,8.53,26.25,26.25,25.78,33.47C168.21,91.32,143.46,106.42,137.5,108.39z M125.82,97.93
			c0.78-9.78,1.24-20.26,1.46-25.64l14.67,9.03C137.65,84.72,129.75,93.48,125.82,97.93z"/>
		<path style="fill:#99DAFF;" d="M88.64,61.21c-0.01,0.09-0.02,0.2-0.02,0.3l1.57,58.02c-10.5-0.44-18.28-1.4-19.49-2.17
			c-2.88-1.79-2.9-7.45-2.9-11.19c0-0.63-0.01-1.22-0.02-1.75c-0.09-3.99-3.32-35.08-3.45-36.42c-0.04-0.35-0.22-0.69-0.51-0.91
			c-0.14-0.1-0.3-0.19-0.47-0.23c-0.01-0.01-0.02-0.01-0.04-0.01c-0.1-0.02-0.22-0.04-0.32-0.04c-0.06,0-0.1,0-0.17,0.01
			c-17,2.22-26.62,2.13-32,1.48c-0.08,0-0.15-0.01-0.23-0.02c-0.35-0.04-0.69-0.08-0.99-0.14c-0.01,0-0.02-0.01-0.04,0
			c-4.01-0.63-5.08-1.55-5.2-1.67c-0.07-0.08-0.15-0.16-0.23-0.24c-11.61-10.05-9.76-35.5-8.92-43.07
			c2.52,1.55,7.19,3.85,12.49,3.43c0.09-0.01,0.2-0.01,0.3-0.02l7.43,21.61c0.02,0.09,0.08,0.19,0.14,0.27
			c0.28,0.47,0.82,0.73,1.39,0.62c2.48-0.46,14.97-2.79,17.03-3.93c1.98-1.09,15.86-4.53,18.36-4.06c0.08,0.01,0.16,0.02,0.23,0.02
			l2.72,0.02c0.35,3.58,1.72,13.87,6.53,20.02c0.25,0.32,0.65,0.51,1.05,0.51h0.08c0.43-0.02,0.83-0.27,1.06-0.64
			c1.85-2.96,5.27-7.29,7.11-7.63c0.2-0.02,0.28,0,0.34,0.02c0.01,0.01,0.02,0.01,0.04,0.02c0.09,0.08,0.2,0.14,0.31,0.17
			c-0.02,0.01-0.04,0.04-0.06,0.07C90.81,55.01,89.4,57.44,88.64,61.21z"/>
		<path style="fill:#99DAFF;" d="M168.63,85.11c-0.42,6.21-25.17,21.31-31.13,23.28c-0.16,0.06-0.31,0.1-0.44,0.14
			c-0.42-0.47-1.08-1.19-1.91-2.02c-1.55-1.55-3.69-3.51-5.92-4.96c-0.44-0.28-0.89-0.57-1.33-0.81c-0.22-0.12-0.43-0.23-0.65-0.34
			c0.17-0.19,0.35-0.39,0.52-0.59c6.48-7.34,15.16-16.55,17.12-17.26c0.49-0.16,0.83-0.61,0.89-1.12c0.06-0.52-0.19-1.02-0.64-1.29
			L126.71,68.8c-0.24-0.15-0.51-0.22-0.78-0.19c-0.19,0-0.39,0.06-0.57,0.15c-0.42,0.23-0.69,0.66-0.72,1.13
			c-0.39,10.87-1.04,22.24-1.82,31.21c-0.06,0.67-0.12,1.35-0.17,1.99c-0.1,1.11-0.2,2.18-0.31,3.19c-0.06,0.47-0.09,0.91-0.15,1.36
			c-0.64,5.71-1.32,9.61-1.99,10.42c-0.93,0.86-8.24,2.02-24.57,1.64c-0.93-0.02-1.86-0.04-2.76-0.08l-1.57-58.03
			c0.96-4.55,2.96-6.75,3.25-7.05c0.02-0.01,0.04-0.02,0.04-0.02c0.01-0.01,0.01-0.01,0.02-0.02c0.25-0.25,1.05-1.04,2.1-2.13
			c2.8,0.2,6.3,5.74,7.64,8.54c0.17,0.38,0.52,0.65,0.93,0.73c0.09,0.02,0.19,0.04,0.3,0.04c0.31,0,0.61-0.1,0.85-0.31
			c5.78-4.77,8.11-15.6,8.76-19.26h0.16c6.5,0.22,18.58,0.65,27.49,9.55C151.37,60.18,169.11,77.9,168.63,85.11z"/>
	</g>
</g>
<g>
	<path style="fill:#113365;" d="M87.44,56.5c0.16,0.19,0.35,0.4,0.57,0.61c-0.02,0.02-0.06,0.07-0.08,0.09
		c-0.08,0.1-0.16,0.23-0.23,0.34c-0.23-0.19-0.44-0.39-0.65-0.59L87.44,56.5z"/>
	<path style="fill:#113365;" d="M100.51,56.85c-0.64,0.86-1.61,1.61-2.69,2.2c-0.02-0.38-0.12-0.73-0.3-1.06
		c0.99-0.7,1.88-1.53,2.59-2.26L100.51,56.85z"/>
	<path style="fill:#113365;" d="M94.51,60.71c-0.94,1.38-1.49,2.41-1.82,3.12l-1.79-0.25l-1.11-2.53c-0.09-0.46-0.23-1.61,0.24-2.2
		c0.3-0.36,0.89-0.54,1.74-0.52c2.91,0.08,3.32,0.8,3.33,0.82C95.19,59.3,95.14,59.8,94.51,60.71z"/>
	<polygon style="fill:#113365;" points="99.32,124.21 93.49,135.34 87.71,124.92 91.22,66.34 92.38,66.52 	"/>
	<path d="M103.18,57.66c0.19-0.34,0.22-0.73,0.08-1.09l-1.4-3.96c-0.17-0.47-0.58-0.81-1.08-0.88c-0.5-0.08-0.98,0.14-1.28,0.52
		c-0.7,0.93-2.4,2.88-4.16,3.93c-0.9-0.32-2.05-0.5-3.48-0.55c-0.47-0.01-0.9,0.01-1.29,0.09c-0.43-0.31-0.74-0.61-0.97-0.86
		c-0.47-0.52-0.57-0.88-0.57-0.88c-0.07-0.52-0.44-0.96-0.94-1.12c-0.51-0.15-1.06,0-1.41,0.41l-2.49,2.85
		c-0.46,0.52-0.43,1.33,0.07,1.83c0.38,0.38,1.48,1.47,2.77,2.59c0.04,0.67,0.16,1.17,0.2,1.28c0.01,0.07,0.04,0.12,0.06,0.17
		l1.32,3.04L85,125.14c-0.02,0.25,0.04,0.51,0.16,0.73l7.18,12.96c0.24,0.43,0.69,0.69,1.19,0.69c0,0,0,0,0.01,0
		c0.5,0,0.94-0.28,1.17-0.72l7.18-13.73c0.14-0.24,0.19-0.51,0.15-0.78l-7.08-58.87c0.11-0.33,0.47-1.22,1.52-2.8
		C99.19,61.63,101.99,59.84,103.18,57.66z M100.1,55.72l0.4,1.13c-0.64,0.86-1.61,1.61-2.69,2.2c-0.02-0.38-0.12-0.73-0.3-1.06
		C98.51,57.28,99.4,56.46,100.1,55.72z M87.93,57.19c-0.08,0.1-0.16,0.23-0.23,0.34c-0.23-0.19-0.44-0.39-0.65-0.59l0.39-0.44
		c0.16,0.19,0.35,0.4,0.57,0.61C87.98,57.13,87.95,57.17,87.93,57.19z M93.49,135.34l-5.78-10.43l3.51-58.57l0.27,0.04l0.89,0.14
		l6.94,57.69L93.49,135.34z M94.74,60.34c-0.06,0.12-0.14,0.24-0.23,0.38c-0.32,0.47-0.61,0.89-0.82,1.28
		c-0.36,0.58-0.62,1.06-0.82,1.47c-0.07,0.13-0.12,0.25-0.17,0.37l-1.8-0.25l-0.17-0.41l-0.93-2.1v-0.01
		c-0.07-0.35-0.16-1.09,0-1.69c0.06-0.2,0.14-0.36,0.24-0.51c0.06-0.07,0.12-0.14,0.2-0.16c0.34-0.26,0.85-0.38,1.54-0.36
		c2.91,0.08,3.32,0.8,3.33,0.82c0.01,0.02,0.01,0.06,0.01,0.1C95.16,59.44,95.08,59.78,94.74,60.34z"/>
	<path style="fill:#99DAFF;" d="M93.98,127.71c-0.11,0-0.22-0.02-0.33-0.09c-0.91-0.51-1.54-1.49-1.67-2.64
		c-0.13-1.15,0.26-2.25,1.04-2.95c0.07-0.07,0.15-0.14,0.22-0.2c-0.02-0.01-0.03-0.02-0.05-0.02c-0.1-0.06-0.21-0.12-0.3-0.18
		c-0.86-0.6-0.86-1.61-0.86-2.43c0-0.3,0.01-0.61-0.04-0.89c-0.06-0.33-0.22-0.67-0.4-1.02l-0.16-0.34
		c-1.39-3.02-0.97-6.48-0.4-9.77c-0.36-0.44-0.59-1.01-0.65-1.62c-0.15-1.46,0.63-2.73,1.31-3.85c0.12-0.2,0.25-0.41,0.36-0.61
		c0.6-1.04,1.03-2.53,0.27-3.31c-0.26-0.27-0.25-0.69,0.01-0.95c0.27-0.26,0.69-0.25,0.95,0.01c1.28,1.32,0.81,3.41-0.07,4.93
		c-0.12,0.21-0.25,0.43-0.38,0.64c-0.59,0.96-1.14,1.88-1.13,2.82c0.41-0.61,0.94-0.94,1.62-0.91c0.56,0.01,1.08,0.33,1.4,0.86
		c0.34,0.56,0.38,1.25,0.11,1.8c-0.44,0.9-1.58,1.33-2.58,1.04c-0.49,2.99-0.75,5.86,0.4,8.36l0.15,0.31
		c0.2,0.43,0.41,0.86,0.51,1.38c0.07,0.38,0.07,0.76,0.07,1.12c0,0.7,0.02,1.14,0.28,1.32c0.06,0.04,0.12,0.07,0.17,0.1
		c0.27,0.15,0.68,0.37,0.81,0.88c0.19,0.72-0.38,1.22-0.68,1.49c-0.5,0.44-0.73,1.12-0.65,1.83c0.08,0.72,0.44,1.32,0.98,1.61
		c0.33,0.18,0.44,0.59,0.27,0.91C94.44,127.58,94.21,127.71,93.98,127.71z M92.51,106.7c0.01,0,0.01,0.01,0.01,0.01
		c0.4,0.17,0.93,0.02,1.1-0.31c0.07-0.14,0.04-0.34-0.06-0.51c-0.03-0.05-0.14-0.2-0.28-0.21C92.94,105.68,92.69,106.13,92.51,106.7
		z"/>
</g>
</svg>
