<?xml version="1.0" encoding="utf-8"?>
<!-- Generator: Adobe Illustrator 23.0.2, SVG Export Plug-In . SVG Version: 6.00 Build 0)  -->
<svg version="1.1" id="레이어_1" xmlns="http://www.w3.org/2000/svg" xmlns:xlink="http://www.w3.org/1999/xlink" x="0px"
	 y="0px" viewBox="0 0 355 377" style="enable-background:new 0 0 355 377;" xml:space="preserve">
<style type="text/css">
	.st0{fill:#F2B630;}
	.st1{fill:#EF7430;}
	.st2{fill:#FFFFFF;}
	.st3{fill:#673101;}
	.st4{fill:#00A2E7;}
	.st5{fill:#008AC4;}
	.st6{fill:#FFB400;}
	.st7{fill:#DD9900;}
	.st8{fill:#FFE4A9;}
	.st9{fill:#FFC0BB;}
	.st10{fill:#353535;}
	.st11{fill:#EFE630;}
	.st12{fill:#C93C1B;}
	.st13{fill:#D34A20;}
	.st14{fill:#EDC932;}
	.st15{fill:#4D5B77;}
	.st16{fill:#384559;}
	.st17{fill:#BC3617;}
	.st18{fill:#7888A3;}
	.st19{fill:#8393AA;}
</style>
<title>자산 14</title>
<g>
	<polygon class="st0" points="233.3,166.4 250.9,184.7 250.9,157.2 299,174 278,129.2 325,123.9 277.4,108.4 314,67.1 261.1,83.4 
		267.4,29.8 227.3,72.3 212.8,37.8 202.7,75.2 146.5,42.4 157.9,89.7 124.8,94.3 148.7,105.9 137,117.3 150.3,117.7 133.7,161.2 
		171.3,154 166.8,177.4 187.8,173.2 202.5,207.9 	"/>
	<polygon class="st1" points="232.4,153 242.2,163.1 242.1,144.9 282.3,159 264.9,121.9 284.1,119.7 262.1,112.5 286.8,84.6 
		250.9,95.7 255.7,54.9 224.5,88 214.6,64.5 208.1,88.4 159.8,60.2 168.6,97 154.4,99 163.6,103.5 157.8,109.2 162.8,109.3 
		147.4,149.7 182.2,143 177.8,166.3 193.1,163.3 204.6,190.5 	"/>
</g>
<g>
	<path class="st2" d="M135.3,112.4c-0.1-0.1-0.2-0.1-0.3-0.2c-4.4-2.4-6.1-7.9-3.7-12.3c1.9-3.5,1.5-8.7,1.2-10.3
		c-0.4-1.5-1.3-3.7-2.6-4.2c-3-1.1-9.9,1.8-13.5,4.3c-4.1,2.9-9.8,1.9-12.7-2.3s-1.9-9.8,2.3-12.7l0,0c1.7-1.2,16.9-11.4,30.2-6.5
		c4.8,1.8,11.2,6.1,14.1,17l0.1,0.6c0.3,1.3,2.3,12.8-3,22.7C145,112.9,139.7,114.6,135.3,112.4z"/>
	<path class="st3" d="M118.9,84.1c-0.6-0.3-1.4-0.4-2.1-0.3c0.9-0.3,1.7-1,2.1-1.8c0.9-1.8,0.2-4-1.6-4.9c-0.8-0.4-1.8-0.5-2.7-0.2
		c0.8-0.3,1.5-0.9,1.8-1.7c0.9-1.8,0.1-4-1.7-4.9l0,0c-0.1-0.1-0.3-0.1-0.5-0.1c-3,1.3-5.8,2.8-8.4,4.6c-4.1,2.9-5.2,8.6-2.3,12.7
		s8.6,5.2,12.7,2.3l0,0c1.4-1,3-1.8,4.6-2.5C120.9,85.9,120.1,84.7,118.9,84.1z"/>
</g>
<g>
	<path class="st2" d="M166.9,112.7l0.3-0.1c4.9-1.1,8-6.1,6.9-11l0,0c-0.9-3.9,0.9-8.9,1.5-10.4c0.8-1.3,2.2-3.3,3.6-3.4
		c3.2-0.3,9.1,4.4,12,7.8c3.3,3.8,9.1,4.2,13,0.8c3.7-3.2,4.2-8.8,1.1-12.6c-1.3-1.6-13.4-15.5-27.6-14.3c-5.2,0.4-12.5,3-18.1,12.8
		l-0.3,0.5c-0.6,1.2-5.6,11.8-3.1,22.9C157.3,110.5,162,113.6,166.9,112.7z"/>
	<path class="st3" d="M190.2,89.5c0.7-0.1,1.4,0,2.1,0.3c-0.8-0.5-1.4-1.4-1.6-2.3c-0.4-2,0.9-3.9,2.9-4.4c0.9-0.2,1.9,0,2.7,0.5
		c-0.7-0.5-1.2-1.3-1.4-2.2c-0.4-2,0.9-4,2.9-4.4l0,0c0.1,0,0.3,0,0.4,0c2.6,2,4.9,4.3,7.1,6.8c3.2,4,2.5,9.7-1.4,12.9
		c-3.8,3.1-9.4,2.6-12.6-1.1c-1.2-1.3-2.4-2.6-3.8-3.7C187.8,90.7,188.9,89.7,190.2,89.5z"/>
</g>
<g>
	<path class="st4" d="M178.4,94c0,0,14.6,2.2,34.1,18.5l-3.1,89.7l-16.8,60.1c-5.6,20-34.6,29.4-64.7,21s-50.1-31.5-44.5-51.5
		l18-64.6l12.9-46.3C114.4,120.9,126,79.2,178.4,94z"/>
	<path class="st5" d="M176.6,252.6L176.6,252.6l7.6-27.1c2.7-9.6,12.6-15.2,22.1-12.5c0,0,0,0,0.1,0l-13.8,49.3
		c-1.2,4.3-3.5,8.2-6.6,11.3C178.2,269.8,174.3,261,176.6,252.6z"/>
</g>
<g>
	<path class="st6" d="M96.2,185.5l0.9-3.2l-10.2-2.9c-3.5-4,0.8-9.9,0.8-9.9l0,0c2.6-2.9,4.6-6.4,5.6-10.2
		c3.8-13.7-4.2-27.8-17.8-31.6s-27.8,4.2-31.6,17.8c-0.9,3.2-1.2,6.6-0.8,10l0,0v0.1l0,0c0.1,0.8,1.1,10.2,5.7,16.5
		c0,0-5,1.5-11.5,8.5c-0.2,0.2-0.3,0.4-0.5,0.5s-0.4,0.4-0.5,0.6l0,0c-9.3,10.7-8.2,26.9,2.4,36.2s26.9,8.2,36.2-2.4
		c5.3-6.1,7.5-14.4,5.8-22.3c0.2-2.5,0.3-6.5,4.4-7.4l10.2,2.9L96.2,185.5L96.2,185.5z M69.5,147c6.2,1.7,7.9,5.6,6.1,11.9
		s-5.3,9.4-11.6,7.7s-7.5-6.2-5.7-12.5S63.2,145.2,69.5,147z M53.6,204c-6.2-1.8-7.7-5.5-5.9-11.8s5.1-9.5,11.4-7.7
		s7.7,6.3,5.9,12.5S59.8,205.7,53.6,204z"/>
	<path class="st7" d="M95.8,193c-0.2,0.9-1.1,1.4-2,1.1l0,0c-0.9-0.2-1.4-1.1-1.1-2l4.1-14.7c0.2-0.9,1.1-1.4,2-1.1l0,0
		c0.9,0.2,1.4,1.1,1.1,2L95.8,193z"/>
	<path class="st8" d="M86.6,161.8L86.6,161.8c1.3,0.3,2.6-0.4,2.9-1.7l0,0c2.6-9.2-0.4-19.1-7.7-25.3c-1-0.8-2.5-0.6-3.3,0.4
		s-0.6,2.5,0.4,3.3l0,0l0,0c5.8,5.1,8.2,13.1,6.1,20.5C84.7,160.2,85.4,161.5,86.6,161.8z"/>
</g>
<path class="st2" d="M196.1,100.9c32.4,13.1,27.8,43.8,27,49.1c9.5,4.6,13.3,15.5,10.7,26.5l-0.6,2.3c-4,16.6-20.6,26.7-37.2,22.8
	l0,0l-11.5-2.8c-29.2-7-40.8-32.6-34.4-59.1S176.3,93.4,196.1,100.9z"/>
<path class="st9" d="M207.9,169.5c-2.3,9.5-11.8,15.3-21.3,13s-15.3-11.8-13-21.3s11.8-15.3,21.3-13l0,0
	C204.4,150.5,210.2,160,207.9,169.5z"/>
<g>
	<path d="M235.2,166.9c0.2,1.3-0.1,2.3-1.2,2.7s-2.5-1-2.7-2.3s0.5-2.9,1.8-2.8S235,165.8,235.2,166.9z"/>
	<path d="M219.2,149.8l-4.2,2.6l-2.6-4.2c-0.4-0.7-1.2-0.9-1.9-0.6c-0.7,0.4-0.9,1.2-0.6,1.9l0.1,0.1l2.6,4.2l-4.2,2.6
		c-0.7,0.4-0.9,1.3-0.5,1.9c0.4,0.7,1.3,0.9,1.9,0.5l0,0l0,0l4.2-2.6l2.6,4.2c0.4,0.6,1.2,0.8,1.9,0.5h0.1c0.7-0.4,0.9-1.3,0.5-2
		l0,0l-2.6-4.2l4.2-2.6c0.7-0.4,0.9-1.3,0.5-2l0,0C220.7,149.6,219.8,149.4,219.2,149.8z"/>
	<path d="M234.2,174.1l-3.9,2.7l-3.3-7.2l-6.7,4.7l-1.9-5.2c-0.3-0.7-1.1-1.1-1.8-0.8s-1.1,1.1-0.8,1.8l3.2,8.7l7-4.9l3.4,7.1
		l4.2-2.9l0.4-1.6C234,175.7,234.1,174.9,234.2,174.1z"/>
</g>
<path class="st10" d="M247.8,253.6l-21.5-20.4l9.5-10.1c1.4-1.5,1.4-3.9-0.1-5.3c-1.5-1.4-3.9-1.4-5.3,0.1l-23.5,24.8
	c-1.4,1.5-1.4,3.9,0.1,5.3c1.5,1.4,3.9,1.4,5.3-0.1l9.5-10l21.5,20.3L247.8,253.6z"/>
<path class="st11" d="M285.9,255.3c10.4,2.9,16.2,14.5,13,25.9s-14.2,18.3-24.6,15.4L285.9,255.3z"/>
<g>
	<path class="st12" d="M265.7,327.6c-0.6,2.6-3.3,4.2-5.9,3.6l-37-10.3c-2.6-0.8-4-3.6-3.2-6.1l27.8-99.5c0.6-2.6,3.3-4.2,5.9-3.6
		l37,10.3c2.6,0.8,4,3.6,3.2,6.1L265.7,327.6z"/>
	<path class="st13" d="M287.7,231.6l-37-10.3c-2.5-0.7-5.1,0.8-5.8,3.3L234.2,263L84,220.9l5.7-20.4c0.7-2.5-0.8-5.1-3.3-5.8l0,0
		l-3-0.8c-2.5-0.7-5.1,0.8-5.8,3.3l0,0l-5.7,20.4l-0.8,2.9l-15.6,55.6l165.2,46.2c0.5,0.3,1,0.6,1.5,0.8l37,10.3
		c0.6,0.1,1.1,0.2,1.7,0.1l2.9,0.8l1.2-4.2l15.2-54.3l10.7-38.4C291.7,234.9,290.2,232.3,287.7,231.6L287.7,231.6z"/>
</g>
<path class="st14" d="M61.8,235.7l4.7,1.3l-4.4,15.7l-4.7-1.3c-2.5-0.7-4-3.3-3.3-5.8L56,239C56.7,236.5,59.3,235,61.8,235.7z"/>
<g>
	<g>
		<path class="st15" d="M73.9,280.8c4.2-15.1,19.9-24,35.1-19.8c15.1,4.2,24,19.9,19.8,35.1c-4.2,15.1-19.9,24-35.1,19.8l0,0
			C78.5,311.6,69.6,295.9,73.9,280.8z"/>
		<path class="st16" d="M96.8,304.5c-8.9-2.5-14.1-11.7-11.6-20.6s11.7-14.1,20.6-11.6s14.1,11.7,11.6,20.6S105.7,307,96.8,304.5z"
			/>
	</g>
	<path class="st17" d="M110.4,255.6c-18.1-5.1-37.1,6.2-42.4,25.1l-1.7,6.3l4.7,1.3l1.8-6.2l0,0c4.5-16.1,20.8-25.8,36.3-21.4
		s24.4,21,19.9,37.1l0,0l-1.7,6.2l4.8,1.3l1.7-6.2C139,280.1,128.6,260.7,110.4,255.6z"/>
</g>
<g>
	<g>
		<path class="st15" d="M179.4,309.3c4.2-15.1,19.9-24,35.1-19.8c15.1,4.2,24,19.9,19.8,35.1c-4.2,15.1-19.9,24-35.1,19.8l0,0
			C184,340.2,175.2,324.5,179.4,309.3z"/>
		<path class="st16" d="M202.4,333.1c-8.9-2.5-14.1-11.7-11.6-20.6s11.7-14.1,20.6-11.6c8.9,2.5,14.1,11.7,11.6,20.6
			C220.4,330.3,211.2,335.5,202.4,333.1z"/>
	</g>
	<path class="st17" d="M216,284.2c-18.1-5.1-37.1,6.2-42.4,25.1l-1.8,6.3l4.8,1.3l1.8-6.3l0,0c4.5-16.1,20.8-25.8,36.3-21.4
		s24.4,21,19.9,37.1l0,0l-1.8,6.3l4.8,1.3l1.8-6.3C244.6,308.7,234.2,289.3,216,284.2z"/>
</g>
<g>
	<path class="st18" d="M275,320.5c-0.5,1.9-2,3.1-3.3,2.8l-13.8-3.9c-1.3-0.4-1.9-2.2-1.4-4l0,0c0.5-1.9,2-3.1,3.3-2.8l13.8,3.9
		C274.9,316.8,275.5,318.6,275,320.5L275,320.5z"/>
	
		<rect x="258.1" y="321.1" transform="matrix(0.2691 -0.9631 0.9631 0.2691 -121.8704 492.2052)" class="st19" width="10.6" height="10.5"/>
	<path class="st18" d="M268.9,333.4l-1.8-0.5l-10.1-2.8l-1.8-0.5c-1.3-0.4-2.7,0.9-3.3,2.8s0.1,3.7,1.4,4l13.8,3.9
		c1.3,0.4,2.7-0.9,3.3-2.8S270.2,333.8,268.9,333.4z"/>
</g>
<g>
	<path class="st18" d="M68.3,262.7c-0.5,1.9-2,3.1-3.3,2.8l-13.8-3.9c-1.3-0.4-1.9-2.2-1.4-4l0,0c0.5-1.9,2-3.1,3.3-2.8l13.8,3.9
		C68.3,259,68.9,260.8,68.3,262.7L68.3,262.7z"/>
	
		<rect x="51.4" y="263.4" transform="matrix(0.2691 -0.9631 0.9631 0.2691 -217.3129 251.0111)" class="st19" width="10.6" height="10.5"/>
	<path class="st18" d="M62.2,275.7l-1.8-0.5l-10.1-2.8l-1.8-0.5c-1.3-0.4-2.7,0.9-3.3,2.8s0.1,3.7,1.4,4l13.8,3.9
		c1.3,0.4,2.7-0.9,3.3-2.8S63.5,276,62.2,275.7z"/>
</g>
<g>
	<path class="st2" d="M230.2,227.1c-2.2-3.2-6.5-4.1-9.8-2.1c-10.9,6.6-16,6-20.3,4.7c-2.6-0.9-5.1-1.9-7.5-3.2
		c-15.1-7.8-15.9-18.6-15.9-19.3c-0.2-3.9-3.5-6.9-7.4-6.7c-3.7,0.2-6.6,3.2-6.7,6.9c0,0.9,0.4,21.1,26.2,32.9
		c2.4,1.1,4.8,2,7.2,2.9l0.2,0.1l0.3,0.1c11,2.6,22.5,0.2,31.6-6.5C231.4,234.7,232.3,230.4,230.2,227.1z"/>
	<path class="st5" d="M196.3,243.3l0.3,0.1c11,2.6,22.5,0.2,31.6-6.5c3.3-2.1,4.2-6.5,2.1-9.8s-6.5-4.2-9.8-2.1l0,0
		c-10.9,6.6-16,6-20.3,4.7c-2.6-0.9-5.1-1.9-7.5-3.2l-3.9,13.8c2.4,1.1,4.8,2,7.2,2.9L196.3,243.3z"/>
</g>
</svg>
