<?xml version="1.0" encoding="utf-8"?>
<!-- Generator: Adobe Illustrator 26.5.0, SVG Export Plug-In . SVG Version: 6.00 Build 0)  -->
<svg version="1.1" id="레이어_1" xmlns="http://www.w3.org/2000/svg" xmlns:xlink="http://www.w3.org/1999/xlink" x="0px"
	 y="0px" viewBox="0 0 304 86" style="enable-background:new 0 0 304 86;" xml:space="preserve">
<g>
	<g>
		<path style="fill:#7A7A7A;" d="M178.3,2.4c-0.6,0-1.2,0-1.8,0c-10.3,0.2-18.9,7.3-22.4,16.9c-0.6,1.6-2.6,1.6-3.2,0
			c-3.4-9.6-12-16.7-22.4-16.9c-0.6,0-1.2,0-1.8,0c-17.1,1-25.3,22.6-14.1,36.1l36,43.4c2,2.4,5.7,2.4,7.7,0l36-43.4
			C203.6,25,195.5,3.3,178.3,2.4z"/>
		<path d="M152.6,86c-2.1,0-4.2-1-5.6-2.6L111,40c-5.9-7.1-7.3-16.9-3.8-25.7C110.7,5.9,118,0.5,126.7,0c0.6,0,1.3,0,2,0
			c10.5,0.2,19.7,6.8,23.9,17.1C156.8,6.9,166,0.2,176.5,0c0.7,0,1.3,0,2,0c8.7,0.5,16,5.8,19.5,14.3c3.6,8.7,2.1,18.5-3.8,25.7
			l-36,43.4C156.7,85,154.7,86,152.6,86z M128.2,4.7c-0.4,0-0.8,0-1.2,0c-6.9,0.4-12.8,4.7-15.5,11.5c-2.9,7.1-1.7,15,3,20.7
			l36,43.4c1.1,1.3,3.2,1.3,4.3,0l36-43.4c4.8-5.7,5.9-13.7,3-20.7c-2.8-6.8-8.6-11.1-15.5-11.5h0c-0.5,0-1.1,0-1.6,0
			c-9,0.2-17,6.2-20.3,15.4c-0.6,1.6-2,2.7-3.7,2.7s-3.1-1.1-3.7-2.7c-3.3-9.2-11.2-15.2-20.3-15.4C128.5,4.7,128.3,4.7,128.2,4.7z"
			/>
	</g>
	<path style="fill:#C70000;" d="M152.6,20.5c-0.7,0-1.3-0.4-1.6-1.2c-3.4-9.6-12-16.7-22.4-16.9c-0.6,0-1.2,0-1.8,0
		c-17.1,1-25.3,22.6-14.1,36.1l36,43.4c1,1.2,2.4,1.8,3.8,1.8V20.5z"/>
	<path style="fill:#FF0000;" d="M152.6,75.9L117.8,34c-4.4-5.3-4.1-11.7-2.3-16c2.1-5.2,6.5-8.4,11.8-8.7c0.3,0,0.7,0,1,0l0.3,0
		c7.1,0.1,13.3,4.8,16,11.9c1.3,3.4,4.2,6.1,7.7,6.2"/>
	<path style="fill:#FF0000;" d="M177,9.2"/>
	<path style="fill:#FFFFFF;" d="M121.9,25c-0.2,0-0.3,0-0.5,0c-2-0.3-3.4-2.1-3.3-4.1c0.3-3.3,3.3-9.4,12.4-9.4
		c2.1,0,3.8,1.8,3.8,3.9s-1.7,3.9-3.8,3.9c-4.2,0-4.8,1.9-4.9,2.5C125.3,23.6,123.7,25,121.9,25z"/>
	<g>
		<g>
			<path style="fill:#C70000;" d="M73,2.4c-0.6,0-1.2,0-1.8,0C60.9,2.5,52.3,9.7,48.9,19.3c-0.6,1.6-2.6,1.6-3.2,0
				c-3.4-9.6-12-16.7-22.4-16.9c-0.6,0-1.2,0-1.8,0C4.4,3.3-3.8,25,7.4,38.5l36,43.4c2,2.4,5.7,2.4,7.7,0l36-43.4
				C98.3,25,90.1,3.3,73,2.4z"/>
			<path d="M47.3,86c-2.1,0-4.2-1-5.6-2.6L5.7,40c-5.9-7.1-7.3-16.9-3.8-25.7C5.4,5.9,12.7,0.5,21.4,0c0.6,0,1.3,0,2,0
				c10.5,0.2,19.7,6.8,23.9,17.1C51.5,6.9,60.7,0.2,71.2,0c0.6,0,1.3,0,2,0c8.7,0.5,16,5.8,19.5,14.3c3.6,8.7,2.1,18.5-3.8,25.7
				l-36,43.4C51.4,85,49.4,86,47.3,86z M22.9,4.7c-0.4,0-0.8,0-1.2,0C14.7,5.1,8.9,9.4,6.1,16.2c-2.9,7.1-1.7,15,3,20.7l36,43.4
				c1.1,1.3,3.2,1.3,4.3,0l36-43.4c4.8-5.7,5.9-13.7,3-20.7C85.6,9.4,79.8,5.1,72.9,4.7h0c-0.5,0-1.1,0-1.6,0
				c-9,0.2-17,6.2-20.3,15.4c-0.6,1.6-2,2.7-3.7,2.7h0c-1.7,0-3.1-1.1-3.7-2.7C40.3,10.9,32.3,4.9,23.3,4.7
				C23.1,4.7,23,4.7,22.9,4.7z"/>
		</g>
		<path style="fill:#FF0000;" d="M12.4,34c-4.4-5.3-4.1-11.7-2.3-16c2.1-5.2,6.5-8.4,11.8-8.7c0.3,0,0.7,0,1,0l0.3,0
			c7.1,0.1,13.3,4.8,16,11.9c1.3,3.4,4.2,6.1,7.7,6.2c3.7,0.2,6.9-2.1,8.2-5.7c2.6-7.4,9-12.3,16.3-12.4l0.3,0c0.3,0,0.7,0,1,0
			c5.2,0.3,9.6,3.5,11.8,8.7c1.8,4.3,2.1,10.7-2.3,16L47.3,75.9L12.4,34z"/>
		<path style="fill:#FFFFFF;" d="M16.6,25c-0.2,0-0.3,0-0.5,0c-2-0.3-3.4-2.1-3.3-4.1c0.3-3.3,3.3-9.4,12.4-9.4
			c2.1,0,3.8,1.8,3.8,3.9s-1.7,3.9-3.8,3.9c-4.2,0-4.8,1.9-4.9,2.5C20,23.6,18.4,25,16.6,25z"/>
	</g>
	<path d="M152.6,86c-2.1,0-4.2-1-5.6-2.6L111,40c-5.9-7.1-7.3-16.9-3.8-25.7C110.7,5.9,118,0.5,126.7,0c0.6,0,1.3,0,2,0
		c10.5,0.2,19.7,6.8,23.9,17.1C156.8,6.9,166,0.2,176.5,0c0.7,0,1.3,0,2,0c8.7,0.5,16,5.8,19.5,14.3c3.6,8.7,2.1,18.5-3.8,25.7
		l-36,43.4C156.7,85,154.7,86,152.6,86z M128.2,4.7c-0.4,0-0.8,0-1.2,0c-6.9,0.4-12.8,4.7-15.5,11.5c-2.9,7.1-1.7,15,3,20.7l36,43.4
		c1.1,1.3,3.2,1.3,4.3,0l36-43.4c4.8-5.7,5.9-13.7,3-20.7c-2.8-6.8-8.6-11.1-15.5-11.5h0c-0.5,0-1.1,0-1.6,0
		c-9,0.2-17,6.2-20.3,15.4c-0.6,1.6-2,2.7-3.7,2.7s-3.1-1.1-3.7-2.7c-3.3-9.2-11.2-15.2-20.3-15.4C128.5,4.7,128.3,4.7,128.2,4.7z"
		/>
	<g>
		<path style="fill:#7A7A7A;" d="M282.5,2.4c-0.6,0-1.2,0-1.8,0c-10.3,0.2-18.9,7.3-22.4,16.9c-0.6,1.6-2.6,1.6-3.2,0
			c-3.4-9.6-12-16.7-22.4-16.9c-0.6,0-1.2,0-1.8,0c-17.1,1-25.3,22.6-14.1,36.1l36,43.4c2,2.4,5.7,2.4,7.7,0l36-43.4
			C307.8,25,299.6,3.3,282.5,2.4z"/>
		<path d="M256.7,86c-2.1,0-4.2-1-5.6-2.6l-36-43.4c-5.9-7.1-7.3-16.9-3.8-25.7c3.5-8.5,10.8-13.8,19.5-14.3c0.6,0,1.3,0,2,0
			c10.5,0.2,19.7,6.8,23.9,17.1C260.9,6.9,270.2,0.2,280.6,0c0.6,0,1.3,0,2,0c8.7,0.5,16,5.8,19.5,14.3c3.6,8.7,2.1,18.5-3.8,25.7
			l-36,43.4C260.9,85,258.9,86,256.7,86z M232.3,4.7c-0.4,0-0.8,0-1.2,0c-6.9,0.4-12.8,4.7-15.5,11.4c-2.9,7.1-1.7,15,3,20.7
			l36,43.4c1.1,1.3,3.2,1.3,4.3,0l36-43.4c4.8-5.7,5.9-13.7,3-20.7c-2.8-6.8-8.6-11.1-15.5-11.5h0c-0.5,0-1.1,0-1.6,0
			c-9,0.2-17,6.2-20.3,15.4c-0.6,1.6-2,2.7-3.7,2.7h0c-1.7,0-3.1-1.1-3.7-2.7c-3.3-9.2-11.2-15.2-20.3-15.4
			C232.6,4.7,232.5,4.7,232.3,4.7z"/>
	</g>
	<path style="fill:#FF0000;" d="M281.1,9.2"/>
	<path d="M256.7,86c-2.1,0-4.2-1-5.6-2.6l-36-43.4c-5.9-7.1-7.3-16.9-3.8-25.7c3.5-8.5,10.8-13.8,19.5-14.3c0.6,0,1.3,0,2,0
		c10.5,0.2,19.7,6.8,23.9,17.1C260.9,6.9,270.2,0.2,280.6,0c0.6,0,1.3,0,2,0c8.7,0.5,16,5.8,19.5,14.3c3.6,8.7,2.1,18.5-3.8,25.7
		l-36,43.4C260.9,85,258.9,86,256.7,86z M232.3,4.7c-0.4,0-0.8,0-1.2,0c-6.9,0.4-12.8,4.7-15.5,11.4c-2.9,7.1-1.7,15,3,20.7l36,43.4
		c1.1,1.3,3.2,1.3,4.3,0l36-43.4c4.8-5.7,5.9-13.7,3-20.7c-2.8-6.8-8.6-11.1-15.5-11.5h0c-0.5,0-1.1,0-1.6,0
		c-9,0.2-17,6.2-20.3,15.4c-0.6,1.6-2,2.7-3.7,2.7h0c-1.7,0-3.1-1.1-3.7-2.7c-3.3-9.2-11.2-15.2-20.3-15.4
		C232.6,4.7,232.5,4.7,232.3,4.7z"/>
</g>
</svg>
