<?xml version="1.0" encoding="utf-8"?>
<!-- Generator: Adobe Illustrator 26.0.3, SVG Export Plug-In . SVG Version: 6.00 Build 0)  -->
<svg version="1.1" id="레이어_1" xmlns="http://www.w3.org/2000/svg" xmlns:xlink="http://www.w3.org/1999/xlink" x="0px"
	 y="0px" viewBox="0 0 390 390" style="enable-background:new 0 0 390 390;" xml:space="preserve">
<g>
	<rect x="114" y="276.5" style="fill:#FF7A00;" width="23.3" height="99.7"/>
	<path d="M139.4,378.3H112V274.5h27.4V378.3z M116.1,374.2h19.2v-95.6h-19.2C116.1,278.6,116.1,374.2,116.1,374.2z"/>
</g>
<g>
	<path style="fill:#FF7A00;" d="M147,370.4c0-16.3-13.8-29.4-30.3-28.3c-15.1,1-26.5,14.2-26.5,29.3l0,0c0,8.1,6.6,14.7,14.7,14.7
		h27.5c8.1,0,14.7-6.6,14.7-14.7L147,370.4L147,370.4z"/>
	<path d="M132.4,388.1h-27.5c-9.2,0-16.7-7.5-16.7-16.7c0-16.6,12.5-30.3,28.4-31.4c8.5-0.6,16.6,2.3,22.9,8.2
		c6.1,5.7,9.6,13.8,9.6,22.2v1C149.1,380.5,141.6,388.1,132.4,388.1z M118.7,344c-0.6,0-1.2,0-1.8,0.1
		c-13.8,0.9-24.6,12.9-24.6,27.3c0,7,5.7,12.6,12.6,12.6h27.5c7,0,12.6-5.7,12.6-12.6v-1c0-7.4-3-14.2-8.3-19.2
		C131.7,346.5,125.4,344,118.7,344z"/>
</g>
<g>
	<rect x="167.6" y="274.7" style="fill:#FF7A00;" width="23.3" height="99.9"/>
	<path d="M193,376.7h-27.4V272.6H193V376.7z M169.7,372.6h19.2v-95.8h-19.2V372.6z"/>
</g>
<g>
	<path style="fill:#FF7A00;" d="M214.3,370.4c0-16.3-13.8-29.4-30.3-28.3c-15.1,1-26.5,14.2-26.5,29.3l0,0c0,8.1,6.6,14.7,14.7,14.7
		h27.5c8.1,0,14.7-6.6,14.7-14.7L214.3,370.4L214.3,370.4z"/>
	<path d="M199.7,388.1h-27.5c-9.2,0-16.7-7.5-16.7-16.7c0-16.6,12.5-30.3,28.4-31.4c8.5-0.6,16.6,2.3,22.9,8.2
		c6.1,5.7,9.6,13.8,9.6,22.2v1C216.4,380.5,208.9,388.1,199.7,388.1z M185.9,344c-0.6,0-1.2,0-1.8,0.1
		c-13.8,0.9-24.6,12.9-24.6,27.3c0,7,5.7,12.6,12.6,12.6h27.5c7,0,12.6-5.7,12.6-12.6v-1c0-7.4-3-14.2-8.3-19.2
		C199,346.5,192.7,344,185.9,344z"/>
</g>
<g>
	<g>
		<g>
			<path id="SVGID_00000062898620325712184680000002031934583640652416_" style="fill:#A75D00;" d="M212.7,175.2
				c4.2-4.9,11-6.5,17.4-7.4c16.3-2.2,33-1.9,49.2,1.1c7.3,1.3,15.4,3.9,18.6,10.6c2.6,5.6,0.8,12.3-2.1,17.9
				c-8.8,17.1-27.7,28.6-46.9,28.6"/>
		</g>
		<g>
			<defs>
				<path id="SVGID_1_" d="M212.7,175.2c4.2-4.9,11-6.5,17.4-7.4c16.3-2.2,33-1.9,49.2,1.1c7.3,1.3,15.4,3.9,18.6,10.6
					c2.6,5.6,0.8,12.3-2.1,17.9c-8.8,17.1-27.7,28.6-46.9,28.6"/>
			</defs>
			<clipPath id="SVGID_00000072989562850225417700000014252930066427991729_">
				<use xlink:href="#SVGID_1_"  style="overflow:visible;"/>
			</clipPath>
			<path style="clip-path:url(#SVGID_00000072989562850225417700000014252930066427991729_);fill:#E0BC76;" d="M265.6,156.6
				c0,0,27.9,20,23.2,59.4L277,230c0,0,3.4-45.1-24.2-72.1L265.6,156.6z"/>
		</g>
		<g>
			<defs>
				<path id="SVGID_00000001654930466624612920000007377375087926664113_" d="M212.7,175.2c4.2-4.9,11-6.5,17.4-7.4
					c16.3-2.2,33-1.9,49.2,1.1c7.3,1.3,15.4,3.9,18.6,10.6c2.6,5.6,0.8,12.3-2.1,17.9c-8.8,17.1-27.7,28.6-46.9,28.6"/>
			</defs>
			<clipPath id="SVGID_00000078044717313236722420000016330707264849960841_">
				<use xlink:href="#SVGID_00000001654930466624612920000007377375087926664113_"  style="overflow:visible;"/>
			</clipPath>
			<path style="clip-path:url(#SVGID_00000078044717313236722420000016330707264849960841_);fill:#E0BC76;" d="M255.3,158.5
				c0,0,27.9,20,23.2,59.4l-11.8,14c0,0,3.4-45.1-24.2-72.1L255.3,158.5z"/>
		</g>
		<g>
			<defs>
				<path id="SVGID_00000074420950670818364220000012375330186594989457_" d="M212.7,175.2c4.2-4.9,11-6.5,17.4-7.4
					c16.3-2.2,33-1.9,49.2,1.1c7.3,1.3,15.4,3.9,18.6,10.6c2.6,5.6,0.8,12.3-2.1,17.9c-8.8,17.1-27.7,28.6-46.9,28.6"/>
			</defs>
			<clipPath id="SVGID_00000002358561906517715740000012876739518326096031_">
				<use xlink:href="#SVGID_00000074420950670818364220000012375330186594989457_"  style="overflow:visible;"/>
			</clipPath>
			<path style="clip-path:url(#SVGID_00000002358561906517715740000012876739518326096031_);fill:#4373C2;" d="M261,158.1
				c0,0,27.9,20,23.2,59.4l-11.8,14c0,0,3.4-45.1-24.2-72.1L261,158.1z"/>
		</g>
	</g>
	<path d="M248.9,228L248.9,228v-4.1l0,0c18.5,0,36.6-11,45.1-27.5c2.3-4.4,4.5-10.8,2-16c-2.9-6.2-11.1-8.4-17.1-9.4
		c-16-2.9-32.4-3.3-48.5-1.1c-5.9,0.8-12.4,2.2-16.1,6.6l-3.1-2.7c4.6-5.5,12.1-7.2,18.7-8.1c16.6-2.3,33.4-1.9,49.8,1.1
		c6.8,1.2,16.3,3.8,20,11.7c3.2,6.8,0.6,14.4-2.1,19.7C288.5,216.1,268.9,228,248.9,228z"/>
</g>
<g>
	<path style="fill:#009A38;" d="M223.9,51.1c20.9,22.2,27.9,55.4,21.4,85.2c-2.4,11-6.4,21.6-7.4,32.8c-0.2,2.8-0.3,5.6-0.1,8.3
		l-2.8,0.1c0,0-32.9,17.1-82.7,17.1s-82.7-17.1-82.7-17.1c-0.3-12.6-5.8-24.4-9.1-36.6c-6.6-24.9-3.8-52.4,9-74.8
		C100.2,12.9,182.4,7,223.9,51.1z"/>
	<path style="fill:#A75D00;" d="M244.4,217.7c4.2,25.2,1,53.8-17.5,71.5c-16,15.2-39.6,18.8-61.7,19.7c-15.1,0.5-30.4,0.1-45.1-3.6
		c-14.7-3.6-28.8-10.7-39.1-21.9c-18-19.6-21.6-49.1-16.4-75.3c0.7-3.5,1.5-7,2.3-10.5c13.4,4.9,44.2,14.2,85.3,14.2
		c44.2,0,76.5-10.8,88-15.2C241.6,203.6,243.2,210.6,244.4,217.7z"/>
	<path style="fill:#E0BC76;" d="M238.8,188.4c0.4,2.7,0.9,5.4,1.4,8.2c-11.5,4.5-43.8,15.2-88,15.2c-41.1,0-71.9-9.3-85.3-14.2
		c1.5-6.6,2.8-13.3,2.6-20c0,0,32.9,17.1,82.7,17.1s82.7-17.1,82.7-17.1l2.8-0.1C237.8,181.1,238.2,184.8,238.8,188.4z"/>
</g>
<path d="M152.2,21.7c26.5,0,53.2,9.7,71.7,29.4c20.9,22.2,27.9,55.5,21.4,85.2c-2.4,11-6.4,21.6-7.4,32.8
	c-0.6,6.5-0.1,12.9,0.9,19.3c1.5,9.8,4,19.5,5.7,29.3c4.2,25.2,1,53.8-17.5,71.4c-16,15.2-39.6,18.9-61.7,19.7
	c-3.3,0.1-6.7,0.2-10,0.2c-11.8,0-23.6-0.9-35.1-3.8c-14.7-3.7-28.8-10.7-39.1-21.9c-18-19.6-21.6-49.1-16.4-75.3
	c2-10.1,5.2-20.2,4.9-30.6c-0.4-12.6-5.8-24.4-9.1-36.6c-6.7-24.9-3.8-52.5,9-74.8C86.5,36.7,119.3,21.7,152.2,21.7 M152.2,17.6
	c-17.4,0-34.4,4-49.2,11.6c-15.8,8.1-28.6,20.2-37.1,34.9c-13.1,22.8-16.6,51.2-9.5,77.9c1,3.8,2.2,7.5,3.4,11.2
	c2.7,8.4,5.3,16.3,5.5,24.5c0.2,7.2-1.4,14.3-3.1,21.9c-0.6,2.5-1.2,5.2-1.7,7.8c-2.8,14.2-3,28.6-0.5,41.6
	c2.8,14.8,8.9,27.3,17.9,37.2c10,10.9,24.2,18.9,41.1,23.1c10.5,2.6,22.3,3.9,36.1,3.9c3.2,0,6.5-0.1,10.2-0.2
	c20.6-0.7,46.5-3.8,64.4-20.8c17.1-16.3,24-43.7,18.7-75.1c-0.8-4.6-1.7-9.2-2.7-13.6c-1.1-5.1-2.2-10.4-3-15.5
	c-1.1-7-1.3-12.9-0.9-18.3c0.6-6.9,2.4-13.5,4.3-20.6c1-3.8,2.1-7.7,3-11.7c7.1-32.6-1.5-66.7-22.4-88.9
	C208.6,28.8,181.3,17.6,152.2,17.6L152.2,17.6z"/>
<path style="fill-rule:evenodd;clip-rule:evenodd;" d="M153.9,97.2L153.9,97.2c-4.5,0-8.2-3.4-8.2-7.6v-1.1c0-4.2,3.7-7.6,8.2-7.6
	s8.2,3.4,8.2,7.6v1.1C162.1,93.8,158.4,97.2,153.9,97.2"/>
<path style="fill-rule:evenodd;clip-rule:evenodd;" d="M198.7,97.2L198.7,97.2c-4.5,0-8.2-3.4-8.2-7.6v-1.1c0-4.2,3.7-7.6,8.2-7.6
	s8.2,3.4,8.2,7.6v1.1C206.8,93.8,203.2,97.2,198.7,97.2"/>
<g>
	<rect x="167.7" y="110.8" style="fill:#A60918;" width="19.4" height="12"/>
	<path d="M189.1,124.9h-23.5v-16.1h23.5V124.9z M169.8,120.8H185v-7.9h-15.3v7.9H169.8z"/>
	<path style="fill:#FF7A00;" d="M186.6,120.3c2.2,0,3.5,2.4,2.4,4.2c-1.9,3.1-5.5,6.7-11.6,6.7c-6,0-10-3.5-12.3-6.5
		c-1.4-1.8,0-4.4,2.2-4.4C167.3,120.3,186.6,120.3,186.6,120.3z"/>
	<path d="M177.3,133.3c-6.9,0-11.4-4-13.9-7.4c-1.1-1.5-1.3-3.4-0.5-5c0.8-1.7,2.5-2.7,4.3-2.7h19.3c1.7,0,3.4,0.9,4.2,2.5
		c0.9,1.5,0.8,3.4-0.1,4.9C188.5,129.1,184.4,133.3,177.3,133.3z M167.3,122.3c-0.4,0-0.6,0.3-0.6,0.4c-0.1,0.2-0.1,0.4,0.1,0.7
		c2,2.6,5.4,5.7,10.6,5.7c4.2,0,7.5-1.9,9.8-5.8c0.2-0.3,0.1-0.6,0-0.7s-0.3-0.4-0.6-0.4L167.3,122.3L167.3,122.3z"/>
	<path style="fill:#FF7A00;" d="M163.1,117.5c-3.1,0-5-3.4-3.4-6.1c2.7-4.4,7.8-9.7,16.6-9.7c8.6,0,14.3,5,17.6,9.4
		c2,2.6,0.1,6.3-3.2,6.3c0,0-5.8-3.8-14.6-3.3C167.3,114.8,163.1,117.5,163.1,117.5z"/>
	<path d="M190.7,119.5h-0.6l-0.5-0.3c0,0-5.4-3.4-13.4-2.9c-8.1,0.5-12,2.9-12.1,2.9l-0.5,0.3H163c-2.2,0-4.2-1.2-5.3-3.1
		s-1-4.2,0.1-6.1c3-4.9,8.6-10.6,18.4-10.6c9.5,0,15.7,5.6,19.2,10.2c1.4,1.8,1.6,4.2,0.6,6.3C195.1,118.3,193.1,119.5,190.7,119.5z
		 M176.3,103.8c-7.9,0-12.4,4.7-14.9,8.7c-0.5,0.9-0.2,1.6,0,1.9c0.1,0.2,0.5,0.8,1.2,0.9c1.6-0.8,6-2.7,13.3-3.2
		c7.8-0.5,13.4,2.2,15.2,3.2c0.8-0.2,1.2-0.8,1.3-1c0.2-0.3,0.5-1.1-0.2-2C189.3,108.5,184.2,103.8,176.3,103.8z"/>
</g>
<g>
	<path style="fill:#009A38;" d="M132.4,24.3c0,0,7.4-18.2,19.9-14.2c16.6,5.3,20-6.1,20-6.1s5.4,20.3-12.7,27.9"/>
	<path d="M159.6,34c-0.8,0-1.6-0.5-1.9-1.3c-0.4-1,0.1-2.3,1.1-2.7c6.8-2.8,10.8-8,11.9-15.2c0.3-1.9,0.3-3.6,0.3-5.2
		c-0.8,0.8-1.8,1.5-3,2.2c-4.3,2.3-9.7,2.3-16.3,0.2c-10.6-3.4-17.3,12.9-17.4,13c-0.4,1.1-1.6,1.6-2.7,1.1
		c-1.1-0.4-1.6-1.6-1.1-2.7c0.1-0.2,2-4.9,5.6-9.2c5-6,10.9-8.2,16.8-6.2c5.4,1.7,9.8,1.8,13,0.1c3.4-1.7,4.3-4.7,4.4-4.8
		c0.3-0.9,1.1-1.4,2-1.4s1.7,0.6,1.9,1.5c0.1,0.2,5.7,22.2-13.9,30.4C160.1,33.9,159.8,34,159.6,34z"/>
</g>
<g>
	<g>
		<path style="fill:#A60918;" d="M279.6,206.2H269c-4.4,0-8-3.6-8-8v-49.6c0-4.4,3.6-8,8-8h10.6c4.4,0,8,3.6,8,8v49.6
			C287.6,202.6,284.1,206.2,279.6,206.2z"/>
		<path d="M279.6,208.3H269c-5.5,0-10-4.5-10-10v-49.6c0-5.5,4.5-10,10-10h10.6c5.5,0,10,4.5,10,10v49.6
			C289.7,203.8,285.2,208.3,279.6,208.3z M269.1,142.7c-3.3,0-5.9,2.7-5.9,5.9v49.6c0,3.3,2.7,5.9,5.9,5.9h10.6
			c3.3,0,5.9-2.7,5.9-5.9v-49.6c0-3.3-2.7-5.9-5.9-5.9L269.1,142.7L269.1,142.7z"/>
	</g>
	<g id="XMLID_00000040552572685607988650000016896259218326658490_">
		<path style="fill:#DF1024;" d="M352.4,124.9v48.5c-50-13.2-73.6-17-84.6-18c-15-33.1,0-61.1,0-61.1c11-0.9,34.7-4.8,84.6-17.9
			V124.9z"/>
		<path style="fill:#493D3D;" d="M258.6,94.2c0,0,1.6,0.8,9.2,0.1c0,0-15,28.1,0,61.1c-7.6-0.6-9.2,0.1-9.2,0.1
			c-7.6,0-13.7-13.7-13.7-30.7C244.8,108,251,94.2,258.6,94.2z"/>
		<g>
			<path d="M354.4,176.1l-2.6-0.7c-49.6-13.1-73.2-17-84.3-17.9c-5.7-0.5-7.7-0.1-8.2,0l-0.5,0.3l-0.4-0.2
				c-8.9,0-15.8-14.4-15.8-32.8S249.5,92,258.4,92h0.6l0.2,0.2c0.5,0.1,2.5,0.4,8.2,0c11.1-0.9,34.7-4.8,84.3-17.9l2.6-0.7
				L354.4,176.1L354.4,176.1z M262.5,153.2c1.4,0,3.2,0.1,5.4,0.3c11,0.9,34.3,4.7,82.4,17.3V79.1c-48.1,12.6-71.4,16.4-82.4,17.3
				l0,0c-5.9,0.5-8.5,0.2-9.7-0.1c-5.5,0.4-11.4,12-11.4,28.6s5.9,28.2,11.4,28.6C259,153.3,260.3,153.2,262.5,153.2z"/>
			<path d="M267.8,157.6c-0.8,0-1.5-0.5-1.9-1.2v-0.1l0,0c-15.3-33.6-0.5-61.8,0.1-63c0.5-1,1.8-1.4,2.8-0.8c1,0.5,1.4,1.8,0.8,2.8
				c-0.2,0.3-14.3,27.6,0,59.3c0.1,0.3,0.2,0.6,0.2,1C269.8,156.7,268.9,157.6,267.8,157.6z"/>
		</g>
	</g>
	<g>
		<ellipse style="fill:#424242;" cx="352.4" cy="124.9" rx="21.7" ry="48.5"/>
		<path d="M352.4,175.5c-13.3,0-23.7-22.2-23.7-50.6s10.4-50.6,23.7-50.6s23.7,22.2,23.7,50.6S365.7,175.5,352.4,175.5z M352.4,78.5
			c-10.6,0-19.6,21.3-19.6,46.4s9,46.4,19.6,46.4S372,150,372,124.9S363,78.5,352.4,78.5z"/>
	</g>
	<g>
		<ellipse style="fill:#640B11;" cx="352.4" cy="124.9" rx="15.9" ry="38.6"/>
		<path d="M352.4,165.5c-10.1,0-17.9-17.8-17.9-40.6s7.9-40.6,17.9-40.6c10.1,0,17.9,17.8,17.9,40.6S362.4,165.5,352.4,165.5z
			 M352.4,88.4c-8.2,0-13.8,19.2-13.8,36.5s5.7,36.5,13.8,36.5c8.2,0,13.8-19.2,13.8-36.5C366.2,107.6,360.5,88.4,352.4,88.4z"/>
	</g>
	<g>
		<path style="fill:#D9B4B4;" d="M357.1,114.7l-19.7-2.5c-0.8,4.4-0.9,12.7-0.9,12.7s0.1,8.3,0.9,12.7l19.7-2.5
			c0,0,4.7-1.9,4.7-10.2C361.8,116.6,357.1,114.7,357.1,114.7z"/>
		<path d="M335.7,139.9l-0.3-1.9c-0.8-4.5-0.9-12.7-0.9-13.1s0.1-8.6,0.9-13.1l0.3-1.9l21.9,2.8l0.2,0.1c0.2,0.1,6,2.6,6,12.1
			s-5.7,12-6,12.1l-0.2,0.1L335.7,139.9z M339.1,114.5c-0.5,4.4-0.6,10.4-0.6,10.5c0,0,0.1,6,0.6,10.4l17.3-2.2
			c0.7-0.4,3.3-2.4,3.3-8.2s-2.5-7.8-3.3-8.2L339.1,114.5z"/>
	</g>
</g>
<g>
	<path style="fill:#B15900;" d="M291.5,203.5c-2.1,1.1-4.6,1.4-6.9,1.3c-9.3-0.5-17.7-7.9-19.8-17c-0.9-4,0-8.1,1.9-11.7
		c2.9-5.6,9.7-10.2,17.3-8.1c0,0,6.2,1.2,10.4,6.6"/>
	<path d="M285.6,206.8c-0.4,0-0.8,0-1.2,0c-10-0.6-19.4-8.5-21.7-18.5c-1-4.2-0.3-8.7,2.1-13.2c3.2-6.1,10.7-11.6,19.6-9.1
		c0.9,0.2,7.2,1.7,11.5,7.4c0.7,0.9,0.5,2.2-0.4,2.9s-2.2,0.5-2.9-0.4c-3.6-4.7-9.1-5.8-9.1-5.9c-0.1,0-0.1,0-0.2,0
		c-6.7-1.9-12.5,2.3-14.9,7.1c-1.3,2.5-2.6,6.3-1.7,10.3c1.9,8.3,9.6,14.9,17.9,15.4c2.3,0.1,4.3-0.2,5.9-1c1-0.5,2.2-0.1,2.8,0.9
		c0.5,1,0.1,2.2-0.9,2.8C290.6,206.3,288.3,206.8,285.6,206.8z"/>
</g>
<g>
	<g>
		<g>
			<path id="SVGID_00000000942022835473656650000016955119113837936533_" style="fill:#A75D00;" d="M93,190.7
				c-3.5-9.3-12.1-17.2-22-17.5c-6.5-0.2-12.2,3.8-17.2,8c-12.6,10.6-23.5,23.2-32.2,37.2c-3.9,6.3-7.5,14-4.6,20.9
				c2.4,5.7,8.6,8.9,14.6,10.5c18.6,5,39.8-1.3,52.7-15.6c4.3-4.7,7.8-10.1,10.3-15.9"/>
		</g>
		<g>
			<defs>
				<path id="SVGID_00000112607573245085487710000006900380543121492104_" d="M93,190.7c-3.5-9.3-12.1-17.2-22-17.5
					c-6.5-0.2-12.2,3.8-17.2,8c-12.6,10.6-23.5,23.2-32.2,37.2c-3.9,6.3-7.5,14-4.6,20.9c2.4,5.7,8.6,8.9,14.6,10.5
					c18.6,5,39.8-1.3,52.7-15.6c4.3-4.7,7.8-10.1,10.3-15.9"/>
			</defs>
			<clipPath id="SVGID_00000158737360304298412010000001285330036376741559_">
				<use xlink:href="#SVGID_00000112607573245085487710000006900380543121492104_"  style="overflow:visible;"/>
			</clipPath>
			<path style="clip-path:url(#SVGID_00000158737360304298412010000001285330036376741559_);fill:#E0BC76;" d="M21.7,199.8
				c0,0-3.9,34.1,28.4,57.1l18.2,0.7c0,0-35.7-27.8-37.1-66.4L21.7,199.8z"/>
		</g>
		<g>
			<defs>
				<path id="SVGID_00000024704686349349313750000017216909400443245232_" d="M93,190.7c-3.5-9.3-12.1-17.2-22-17.5
					c-6.5-0.2-12.2,3.8-17.2,8c-12.6,10.6-23.5,23.2-32.2,37.2c-3.9,6.3-7.5,14-4.6,20.9c2.4,5.7,8.6,8.9,14.6,10.5
					c18.6,5,39.8-1.3,52.7-15.6c4.3-4.7,7.8-10.1,10.3-15.9"/>
			</defs>
			<clipPath id="SVGID_00000114768547323742934340000006160760192876027274_">
				<use xlink:href="#SVGID_00000024704686349349313750000017216909400443245232_"  style="overflow:visible;"/>
			</clipPath>
			<path style="clip-path:url(#SVGID_00000114768547323742934340000006160760192876027274_);fill:#E0BC76;" d="M30,193.5
				c0,0-3.9,34.1,28.4,57.1l18.2,0.7c0,0-35.7-27.8-37.1-66.4L30,193.5z"/>
		</g>
		<g>
			<defs>
				<path id="SVGID_00000033329875613437448870000007976421301964508600_" d="M93,190.7c-3.5-9.3-12.1-17.2-22-17.5
					c-6.5-0.2-12.2,3.8-17.2,8c-12.6,10.6-23.5,23.2-32.2,37.2c-3.9,6.3-7.5,14-4.6,20.9c2.4,5.7,8.6,8.9,14.6,10.5
					c18.6,5,39.8-1.3,52.7-15.6c4.3-4.7,7.8-10.1,10.3-15.9"/>
			</defs>
			<clipPath id="SVGID_00000093175166377683602800000013068851576145929637_">
				<use xlink:href="#SVGID_00000033329875613437448870000007976421301964508600_"  style="overflow:visible;"/>
			</clipPath>
			<path style="clip-path:url(#SVGID_00000093175166377683602800000013068851576145929637_);fill:#4373C2;" d="M25.9,197.4
				c0,0-3.9,34.1,28.4,57.1l18.2,0.7c0,0-35.7-27.8-37.1-66.4L25.9,197.4z"/>
		</g>
	</g>
	<path d="M44.6,253.3c-4.6,0-9.1-0.6-13.5-1.7c-5.7-1.5-13.1-4.8-16-11.7c-3.4-8.1,1.1-16.9,4.8-22.7c8.9-14.2,19.8-26.9,32.7-37.6
		c5.1-4.3,11.3-8.7,18.6-8.4c8.4,0.3,19,6.2,23.8,18.8c0.4,1.1-0.1,2.2-1.2,2.7c-1.1,0.4-2.2-0.1-2.7-1.2
		c-3.5-9.2-11.8-15.9-20.1-16.2c-5.8-0.2-11.2,3.7-15.8,7.5c-12.5,10.5-23.2,22.8-31.8,36.7c-3.2,5.1-7.1,12.6-4.5,19
		c2.2,5.4,8.4,8,13.2,9.3c17.9,4.8,38.2-1.3,50.7-15c4.2-4.6,7.5-9.7,10-15.3c0.5-1,1.7-1.5,2.7-1.1c1,0.5,1.5,1.7,1.1,2.7
		c-2.6,6-6.2,11.5-10.7,16.5C75.4,246.9,60,253.3,44.6,253.3z"/>
</g>
</svg>
