<?xml version="1.0" encoding="utf-8"?>
<!-- Generator: Adobe Illustrator 23.0.2, SVG Export Plug-In . SVG Version: 6.00 Build 0)  -->
<svg version="1.1" id="레이어_1" xmlns="http://www.w3.org/2000/svg" xmlns:xlink="http://www.w3.org/1999/xlink" x="0px"
	 y="0px" viewBox="0 0 250 390" style="enable-background:new 0 0 250 390;" xml:space="preserve">
<style type="text/css">
	.st0{fill:#D34A20;}
	.st1{fill:#008AC4;}
	.st2{fill:#FFFFFF;}
	.st3{fill:#0078AB;}
	.st4{fill:#00A2E7;}
	.st5{fill:#E2DC0A;}
	.st6{fill:#D3C909;}
	.st7{fill:#F7F70D;}
	.st8{fill:#E54A05;}
	.st9{fill:#C93F09;}
	.st10{fill:#673101;}
	.st11{fill:#FFB400;}
	.st12{fill:#FFE4A9;}
	.st13{fill:#FFC0BB;}
</style>
<title>자산 3</title>
<polygon class="st0" points="143.4,335.4 177.4,335.4 201.1,321.9 166.9,321.9 "/>
<g>
	<path class="st1" d="M102.7,312.9c-5.9-11.6-8.8-32.2-8.8-32.4c-0.1-1.4-0.1-2.7-0.1-4h-9.4c0,1.6,0,3.3,0.2,5.1
		c0.2,1.1,1,17.3,6.9,30C51.8,315.1,68,335.5,68,335.5h46C114,335.5,104.5,316.4,102.7,312.9z"/>
	<path class="st2" d="M93.2,276.6h-8.8c0-31.9,19.6-44.4,20.4-45c2.2-1.4,5.1-0.7,6.5,1.5s0.7,5.1-1.5,6.5c-0.2,0.1-16.1,10.3-16,37
		H93.2z"/>
	<g>
		<path class="st3" d="M79.2,322.7l2.8-3.1c-2.8-2.7-7.1-3.3-9.8-3.4c-1.6,0.8-3.1,1.8-4.4,3.1C72.4,318.6,79.2,322.7,79.2,322.7z"
			/>
		<path class="st3" d="M74.3,330.2l2.6-3.4c-6.5-4.3-9.8-4.6-11.2-4.4c-0.6,1.3-0.9,2.7-0.9,4.1C68.2,326,74.3,330.2,74.3,330.2z"/>
	</g>
</g>
<g>
	<path class="st4" d="M141.4,312.9c-5.9-11.6-8.8-32.2-8.8-32.4c-0.1-1.4-0.1-2.7-0.1-4h-9.4c0,1.6,0,3.3,0.2,5.1
		c0.2,1.1,1,17.3,6.9,30c-39.7,3.4-23.5,23.9-23.5,23.9h46C152.6,335.5,143.1,316.4,141.4,312.9z"/>
	<path class="st2" d="M131.9,276.6h-8.8c0-31.9,19.6-44.4,20.4-45c2.2-1.4,5.1-0.7,6.5,1.5s0.7,5.1-1.5,6.5l0,0
		c-0.2,0.1-16.1,10.3-16,37H131.9z"/>
	<g>
		<path class="st1" d="M117.9,322.7l2.8-3.1c-2.8-2.7-7.1-3.3-9.8-3.4c-1.6,0.8-3.1,1.8-4.4,3.1C111,318.6,117.9,322.7,117.9,322.7z
			"/>
		<path class="st1" d="M112.9,330.2l2.6-3.4c-6.5-4.3-9.8-4.6-11.2-4.4c-0.6,1.3-0.9,2.7-0.9,4.1C106.9,326,112.9,330.2,112.9,330.2
			z"/>
	</g>
</g>
<g>
	<g>
		<path class="st5" d="M69.4,344.3h15.4v14.9H69.4c-4.1,0-7.4-3.3-7.4-7.5C62,347.6,65.3,344.3,69.4,344.3z"/>
		<path class="st6" d="M77.3,351.7c0,4.1,3.3,7.5,7.5,7.5c4.1,0,7.5-3.3,7.5-7.4s-3.3-7.5-7.5-7.5l0,0
			C80.7,344.3,77.3,347.6,77.3,351.7L77.3,351.7z"/>
	</g>
	<g>
		<path class="st5" d="M92.2,344.3h15.3v14.9H92.2c-4.1,0-7.4-3.3-7.4-7.5C84.8,347.6,88.1,344.3,92.2,344.3z"/>
		<path class="st7" d="M100.1,351.7c0,4.1,3.3,7.4,7.5,7.4s7.4-3.3,7.4-7.5c0-4.1-3.3-7.4-7.5-7.4
			C103.4,344.3,100.1,347.6,100.1,351.7L100.1,351.7z"/>
	</g>
	<g>
		<path class="st5" d="M124.3,344.3h15.3v14.9h-15.3c-4.1,0-7.4-3.3-7.4-7.5C116.9,347.6,120.2,344.3,124.3,344.3z"/>
		<path class="st6" d="M132.2,351.7c0,4.1,3.3,7.4,7.5,7.4s7.4-3.3,7.4-7.5c0-4.1-3.3-7.4-7.4-7.4
			C135.6,344.3,132.3,347.6,132.2,351.7L132.2,351.7z"/>
	</g>
	<g>
		<path class="st5" d="M147.1,344.3h15.4v14.9h-15.4c-4.1,0-7.4-3.3-7.4-7.5C139.7,347.6,143,344.3,147.1,344.3z"/>
		<path class="st7" d="M155,351.7c0,4.1,3.3,7.4,7.5,7.4s7.4-3.3,7.4-7.5c0-4.1-3.3-7.4-7.4-7.4C158.3,344.3,155,347.6,155,351.7
			L155,351.7z"/>
	</g>
	<polygon class="st8" points="177.6,335.2 87.8,335.2 64.3,321.9 64.3,330.8 87.8,344.3 177.6,344.3 201.1,330.8 201.1,321.9 	"/>
	<polygon class="st9" points="87.8,344.3 53.9,344.3 30.2,330.8 64.3,330.8 	"/>
	<rect x="30.2" y="321.9" class="st0" width="34.1" height="8.9"/>
</g>
<g>
	<path class="st2" d="M102.2,76c-0.1,0-0.2-0.1-0.3-0.2c-4.4-2.4-6.1-8-3.7-12.5c1.9-3.5,1.6-8.8,1.3-10.4c-0.4-1.5-1.2-3.7-2.6-4.2
		c-3-1.2-10,1.8-13.7,4.2c-4.2,2.9-9.9,1.8-12.8-2.4s-1.8-9.9,2.4-12.8c1.7-1.2,17.1-11.3,30.4-6.3c4.8,1.8,11.2,6.3,14,17.2
		l0.1,0.6c0.2,1.3,2.2,12.9-3.2,22.8C112,76.5,106.6,78.2,102.2,76z"/>
	<path class="st10" d="M86,47.4c-0.7-0.3-1.4-0.4-2.1-0.3c0.9-0.3,1.7-1,2.1-1.8c0.9-1.8,0.3-4-1.5-5c-0.8-0.4-1.8-0.5-2.7-0.3
		c1.9-0.8,2.8-2.9,2-4.8c-0.3-0.8-1-1.5-1.8-1.9c-0.1,0-0.2-0.1-0.4-0.1c-3,1.3-5.9,2.8-8.6,4.6c-4.1,3-4.9,8.8-1.9,12.8
		c2.9,3.8,8.2,4.8,12.2,2.3c1.5-1,3-1.8,4.7-2.5C87.9,49.2,87.2,48,86,47.4z"/>
</g>
<g>
	<path class="st2" d="M155.6,76.5c0.1,0,0.2-0.1,0.3-0.1c4.7-1.8,7-7.1,5.2-11.8c-1.4-3.7-0.4-8.8,0-10.4c0.6-1.4,1.7-3.5,3.1-3.8
		c3.1-0.8,9.6,3,12.9,5.9c3.8,3.4,9.5,3,12.9-0.7c3.4-3.8,3-9.5-0.7-12.9l0,0c-1.5-1.4-15.4-13.3-29.2-10.1c-5,1.2-11.9,4.7-16,15.1
		l-0.2,0.5c-0.4,1.2-3.8,12.4,0.3,22.9C145.9,75.8,150.9,78.1,155.6,76.5z"/>
	<path class="st10" d="M175.2,50.4c0.7-0.2,1.4-0.2,2.1,0c-1.8-0.9-2.5-3.1-1.7-4.9c0.8-1.7,2.9-2.5,4.7-1.8
		c-0.8-0.4-1.3-1.1-1.6-1.9c-0.7-1.9,0.3-4,2.2-4.7l0,0c0.2,0,0.3-0.1,0.5-0.1c2.8,1.6,5.4,3.5,7.8,5.6c3.8,3.4,4.1,9.1,0.7,12.9
		c-3.4,3.8-9.1,4.1-12.9,0.7l0,0c-1.3-1.1-2.7-2.1-4.2-3C173.1,51.9,174,50.8,175.2,50.4z"/>
</g>
<g>
	<path class="st2" d="M61.6,244.8c-3.8,0-7.2-2.9-8.5-7.5c-16.3-61,15.2-89.8,16.4-91c3.8-3.9,8.6-6.8,11.1-4.2c3.9,4,0.7,12-3,15.9
		c-0.9,1-19.9,26.3-7.5,72.6c1.5,5.7-1.1,11.8-5.7,13.6C63.5,244.6,62.6,244.8,61.6,244.8z"/>
	<path class="st1" d="M64.4,244.3c-0.9,0.3-1.8,0.5-2.8,0.5c-3.8,0-7.2-2.9-8.5-7.5c-4.8-18-5.4-33.2-3.9-45.7
		c5.7-0.9,11.5-0.5,17,1.1c-0.9,12.8,0.4,25.6,3.9,37.9C71.7,236.3,69.1,242.4,64.4,244.3z"/>
</g>
<g>
	<path class="st11" d="M168.2,155.6v8.4l7-0.2c0,0,10.3-0.8,9.7,5.3c0,0-0.7,10.2-0.7,12.8c0,15.8,8,28.5,17.8,28.5
		s17.8-12.8,17.8-28.5c0-8.9-2.6-16.9-6.6-22.1c4-5.2,6.6-13.2,6.6-22.1c0-15.7-8-28.5-17.8-28.5s-17.8,12.8-17.8,28.5
		c0,2.7,0.2,5.4,0.7,8l0,0c0.2,0.9,0.4,1.8,0.6,2.6c0.3,3.4,0.2,7-10.3,7.5L168.2,155.6z M207.5,140.7c0,5.8-2.4,10.5-5.4,10.5
		s-5.4-4.7-5.4-10.5s2.4-10.5,5.4-10.5S207.5,134.9,207.5,140.7z M197.6,182.4c0-5.8,2.4-10.5,5.4-10.5s5.4,4.7,5.4,10.5
		S206,193,203,193S197.6,188.3,197.6,182.4z"/>
	<g>
		<path class="st12" d="M215.1,142.2c1.5,0,2.7-1.2,2.7-2.7c0-0.8-0.1-18.6-9.8-25.2c-1.2-0.9-2.9-0.7-3.7,0.5
			c-0.9,1.2-0.7,2.9,0.5,3.7c0.1,0.1,0.1,0.1,0.2,0.1c6.2,4.2,7.5,16.5,7.5,20.8C212.4,141,213.6,142.2,215.1,142.2L215.1,142.2z"/>
		<path class="st12" d="M214.7,182.5c1.5,0,2.7-1.2,2.7-2.6l0,0c0-9.2-4.5-14.5-4.6-14.7c-1-1.1-2.6-1.3-3.8-0.3
			c-1.1,1-1.3,2.6-0.3,3.8c0.2,0.2,3.4,4.2,3.4,11.3C212.1,181.3,213.2,182.5,214.7,182.5L214.7,182.5z"/>
	</g>
</g>
<g>
	<path class="st4" d="M120.8,49.8c0,0-14.7-1.8-37.8,8.6l-21.1,87.2V208c0,20.8,25.4,37.6,56.7,37.6s56.7-16.8,56.7-37.6V92.9
		C175.2,92.9,175.2,49.6,120.8,49.8z"/>
	<path class="st1" d="M70.1,174.9c0-10,8.1-18,18-18s18,8.1,18,18V203c0,9.9-8.1,18-18,18s-18-8.1-18-18V174.9L70.1,174.9z"/>
</g>
<g>
	<path class="st2" d="M175.5,244.8c3.8,0,7.2-2.9,8.5-7.5c16.3-61-15.2-89.8-16.4-91c-3.8-3.9-8.6-6.8-11.1-4.2
		c-3.9,4-0.7,12,3,15.9c0.9,1,19.9,26.3,7.5,72.6c-1.5,5.7,1.1,11.8,5.8,13.6C173.6,244.6,174.6,244.8,175.5,244.8z"/>
	<path class="st1" d="M172.7,244.3c0.9,0.3,1.8,0.5,2.8,0.5c3.8,0,7.2-2.9,8.5-7.5c4.8-18,5.4-33.2,3.9-45.7
		c-5.7-0.9-11.5-0.5-17,1.1c0.9,12.8-0.4,25.6-3.9,37.9C165.5,236.3,168.1,242.4,172.7,244.3z"/>
</g>
<path class="st2" d="M111.6,51.2c0,0-11.6,0.3-14.5,0.8c-34.4,5.2-38.3,32.6-38.8,38c-9.4,5.5-15.2,15.6-15.2,26.5v2.4
	c0,16.9,13.7,30.7,30.7,30.7l0,0h37.7c29.8,0,54-22,54-49.1S141.3,51.3,111.6,51.2z"/>
<g>
	<path d="M76.9,107.7c0.1,1.2,1.2,2.2,2.5,2.1s2.2-1.2,2.1-2.5c-0.1-1.2-1.1-2.1-2.3-2.1C77.9,105.3,76.9,106.4,76.9,107.7z"/>
	<path d="M71.9,97.8L71.9,97.8c2,0,3.6,1.6,3.6,3.6v0.3c0,2-1.6,3.6-3.6,3.6l0,0c-2,0-3.6-1.6-3.6-3.6v-0.3
		C68.3,99.4,69.9,97.8,71.9,97.8z"/>
	<path d="M96.9,97.8L96.9,97.8c2,0,3.6,1.6,3.6,3.6v0.3c0,2-1.6,3.6-3.6,3.6l0,0c-2,0-3.6-1.6-3.6-3.6v-0.3
		C93.3,99.4,94.9,97.8,96.9,97.8z"/>
	<path d="M89.9,122c-4.7,0-8.5-2.7-10.5-4.3c-1.7,2-4,3.4-6.6,3.7c-4.5,0.4-8-2.8-8.1-3c-0.7-0.6-0.7-1.7-0.1-2.4
		c0.6-0.7,1.7-0.7,2.4-0.1l0,0c0.1,0,2.6,2.3,5.5,2c1.9-0.2,3.7-1.5,5.4-3.8c0.3-0.4,0.8-0.6,1.2-0.6c0.5,0,1,0.2,1.3,0.5
		c0,0,4.5,4.7,9.8,4.6c2.8-0.1,5.5-1.6,7.9-4.5c0.6-0.7,1.7-0.8,2.4-0.2c0.7,0.6,0.8,1.7,0.2,2.4c-3,3.7-6.6,5.6-10.4,5.7L89.9,122z
		"/>
</g>
<g>
	<path class="st13" d="M137,113c-0.1,8.7-7.1,15.7-15.8,15.6c-8.7-0.1-15.7-7.1-15.6-15.8c0.1-8.6,7.1-15.6,15.7-15.6
		C130,97.2,137,104.3,137,113z"/>
	<path class="st13" d="M60.9,113c0-7.1-4.7-13.3-11.5-15.3c-4.1,5.3-6.4,11.9-6.4,18.7v2.4c0,3.4,0.6,6.8,1.7,10c0.1,0,0.3,0,0.4,0
		C53.9,128.8,60.9,121.7,60.9,113z"/>
</g>
</svg>
