<?xml version="1.0" encoding="utf-8"?>
<!-- Generator: Adobe Illustrator 26.5.0, SVG Export Plug-In . SVG Version: 6.00 Build 0)  -->
<svg version="1.1" id="레이어_5" xmlns="http://www.w3.org/2000/svg" xmlns:xlink="http://www.w3.org/1999/xlink" x="0px"
	 y="0px" viewBox="0 0 182 208" style="enable-background:new 0 0 182 208;" xml:space="preserve">
<g>
	<path style="fill:#C87912;" d="M95.1,199.5c1.8,0,3.4,1.1,4.9,2.1l0.3,0.2c1.2,0.8,2.2,1.9,3.1,3c0.5,0.6,1.1,1.3,1.7,1.9
		c0.6,0.6,1.4,1,2,0.6c0.3-0.2,0.4-0.6,0.4-1c0-0.4-0.2-0.8-0.4-1.2c-0.7-1.6-1.5-3.3-2.4-5c-2-3.9-1.9-7.4-1.7-11.5
		c0-0.5,0-0.9,0-1.4c0-1,0.4-1.7,1.1-2.2c3.1-2.3,11.6,0.1,16.2,1.3c0.9,0.3,1.6,0.4,2.1,0.5c4.2,0.9,8.5,1,12.8,0.5
		c-0.3-1-1.1-2-2.4-2.6c-0.7-0.4-1.5-0.6-2.3-0.8c-0.5-0.1-1-0.3-1.4-0.4c-2-0.7-3.8-1.9-5.6-3.1c-1.2-0.8-2.5-1.7-3.9-2.4
		c-1.4-0.7-2.8-1.1-4.2-1.5c-2-0.6-3.9-1.2-5.4-2.4c-3.8-3.1-4.2-8.3-4.4-13.8l-0.4-16.7c-0.1-5.1-0.2-11,2.4-15.9
		c1-1.8,2.2-3.4,3.5-4.9c0.8-0.9,1.5-1.9,2.2-2.9c1.6-2.3,3.3-5.6,2.4-9c-1.4-5.1-7.7-6.9-12.7-7.5c-11.2-1.4-27.3-0.8-39,5.2
		c4,8.2,8.9,15.8,14.8,22.7c0.4,0.5,0.9,1.1,1.4,1.6c2.3,2.7,4.8,5.5,6.4,8.8c2.3,4.7,2.8,10.2,3.2,15.1c0.1,0.7,0.1,1.5,0.2,2.3
		c0.6,5,1.2,10.7-2.6,14c-4.6,4-10.7,7.1-16.6,10.1c-1.8,0.9-3.5,1.8-5.1,2.6c-1.7,0.9-3.2,1.8-3.9,3.3c1-0.3,3.9-0.9,12.9-2.4
		c2-0.3,3.6-0.6,4.1-0.7c0.9-0.2,2-0.6,3.1-0.9c3.5-1.2,7.9-2.7,10.5,0c1.8,1.9,3.2,5.1-0.5,9.9c-1,1.4-2.3,2.6-3.4,3.8l-0.4,0.5
		c-0.5,0.5-1,0.9-1.6,1.3c-1,0.8-2,1.5-2.5,2.7c1.2,0.1,2.5,0.2,3.6-0.3c0.5-0.2,0.9-0.5,1.3-0.8c0.1-0.1,0.2-0.2,0.3-0.2
		c1.5-1,3.1-1.7,4.8-2.1C94.4,199.5,94.7,199.5,95.1,199.5z"/>
	<path style="fill:#B36700;" d="M89.6,154.7c0,0,2,2,5.8-1.1c0,0,3.4,4,10,0v-13.2c0,0-9-8.6-18.8-0.4
		C86.5,140,89.7,150.8,89.6,154.7z"/>
	<path d="M106.6,207.9c-0.6,0-1.2-0.3-1.8-0.9c-0.6-0.6-1.2-1.3-1.7-1.9c-0.9-1.1-1.8-2.1-3-2.9l-0.3-0.2c-1.5-1-3-2-4.7-2
		c-0.3,0-0.7,0-1,0.1c-1.7,0.4-3.2,1.1-4.6,2c-0.1,0.1-0.2,0.1-0.3,0.2l0,0c-0.4,0.3-0.9,0.6-1.4,0.8c-1.2,0.5-2.6,0.4-3.8,0.3
		l-0.6-0.1l0.2-0.6c0.5-1.3,1.6-2.1,2.6-2.9c0.5-0.4,1.1-0.8,1.5-1.3l0.4-0.5c1.2-1.2,2.4-2.4,3.4-3.8c2.8-3.6,3-6.8,0.6-9.3
		c-2.4-2.4-6.6-1-10,0.1c-1.2,0.4-2.3,0.8-3.2,1c-0.5,0.1-2.1,0.4-4.1,0.7c-8.3,1.4-11.8,2.1-12.8,2.4l-1,0.3l0.4-0.9
		c0.7-1.6,2.3-2.6,4.1-3.5c1.6-0.9,3.3-1.7,5.1-2.6l0,0c5.9-3,11.9-6,16.5-10c3.6-3.1,3-8.7,2.5-13.6c-0.1-0.8-0.2-1.6-0.2-2.3
		c-0.4-4.8-0.9-10.3-3.2-14.9c-1.6-3.2-4-6-6.3-8.7l-0.1-0.1c-0.4-0.5-0.9-1-1.3-1.5c-5.9-6.9-10.9-14.6-14.9-22.8l-0.2-0.4l0.4-0.2
		c11.8-6,28.1-6.7,39.3-5.2c5.2,0.7,11.7,2.6,13.1,7.9c0.9,3.5-0.8,7-2.4,9.3c-0.7,1-1.5,2-2.3,2.9c-1.2,1.5-2.5,3.1-3.5,4.9
		c-2.6,4.8-2.4,10.6-2.3,15.6l0.4,16.7c0.1,5.4,0.5,10.5,4.2,13.5c1.5,1.2,3.3,1.8,5.3,2.3c1.4,0.4,2.9,0.9,4.3,1.6
		c1.4,0.7,2.7,1.6,3.9,2.4c1.7,1.2,3.5,2.4,5.5,3.1c0.5,0.2,0.9,0.3,1.4,0.4c0.8,0.2,1.6,0.5,2.4,0.8c1.4,0.7,2.4,1.7,2.7,2.9
		l0.1,0.5l-0.5,0.1c-4.3,0.6-8.7,0.4-13-0.5c-0.4-0.1-1.2-0.3-2.1-0.5c-4.2-1.2-12.9-3.6-15.8-1.4c-0.6,0.4-0.9,1.1-0.9,1.9
		c0,0.4,0,0.9,0,1.3l0,0.1c-0.1,4-0.2,7.5,1.7,11.3c0.9,1.7,1.7,3.4,2.4,5c0.2,0.4,0.4,0.9,0.4,1.4c0,0.6-0.2,1.2-0.6,1.5
		C107.1,207.8,106.9,207.9,106.6,207.9z M95.1,199c1.9,0,3.6,1.1,5.2,2.2l0.3,0.2c1.3,0.8,2.2,2,3.2,3.1c0.5,0.6,1.1,1.3,1.7,1.8
		c0.4,0.4,1.1,0.8,1.4,0.6c0.1-0.1,0.2-0.3,0.2-0.6c0-0.3-0.2-0.7-0.4-1.1c-0.7-1.6-1.5-3.3-2.4-5c-2-4-1.9-7.6-1.8-11.7l0-0.1
		c0-0.4,0-0.8,0-1.3c0-1.1,0.5-2,1.3-2.6c3.2-2.4,11.9,0,16.6,1.3c0.9,0.2,1.6,0.4,2,0.5c4,0.8,8.1,1,12.1,0.5
		c-0.4-0.7-1.1-1.3-2-1.8c-0.7-0.3-1.5-0.6-2.2-0.8c-0.5-0.1-1-0.3-1.4-0.5c-2.1-0.7-3.9-2-5.7-3.2c-1.2-0.8-2.5-1.7-3.8-2.4
		c-1.3-0.7-2.7-1.1-4.1-1.5c-2-0.6-4-1.2-5.6-2.5c-4-3.3-4.4-8.5-4.5-14.1l-0.4-16.7c-0.1-5.2-0.2-11.1,2.4-16.1
		c1-1.8,2.3-3.4,3.5-5c0.8-0.9,1.5-1.9,2.2-2.9c1.5-2.2,3.2-5.4,2.3-8.6c-1.3-4.8-7.4-6.6-12.4-7.2c-11-1.4-26.7-0.8-38.4,4.9
		c3.9,8,8.8,15.4,14.5,22.2c0.4,0.5,0.9,1,1.3,1.5l0.1,0.1c2.4,2.7,4.8,5.6,6.4,8.9c2.4,4.8,2.8,10.4,3.3,15.3
		c0.1,0.7,0.1,1.5,0.2,2.3c0.6,5.2,1.2,11-2.8,14.4c-4.7,4.1-10.8,7.1-16.7,10.1l0,0c-1.8,0.9-3.5,1.7-5.1,2.6
		c-1.2,0.6-2.3,1.3-3.1,2.2c1.5-0.3,4.7-0.9,11.8-2.1c2-0.3,3.6-0.6,4.1-0.7c0.9-0.2,2-0.5,3.1-0.9c3.7-1.2,8.2-2.8,11,0.1
		c1.9,2,3.4,5.4-0.5,10.5c-1.1,1.4-2.3,2.6-3.5,3.8l-0.4,0.5c-0.5,0.5-1.1,0.9-1.6,1.4c-0.8,0.6-1.6,1.2-2,2c1,0.1,1.9,0.1,2.7-0.3
		c0.4-0.2,0.8-0.5,1.2-0.7l0,0c0.1-0.1,0.2-0.1,0.3-0.2c1.5-1,3.2-1.7,4.9-2.1C94.3,199.1,94.7,199,95.1,199z"/>
	<path style="fill:#B36700;" d="M72.8,186.8c0,0,8-8.9,17.6-7.3c0,0,9.7,2.5,3.6,10.9c0,0,1.5-4.3-2.9-6.6c0,0-2.3-1.7-7.7,0.4
		c0,0-6,1.7-8.8,2.2L72.8,186.8z"/>
	<path d="M106.6,208c-0.6,0-1.2-0.3-1.9-0.9c-0.6-0.6-1.2-1.3-1.7-1.9c-0.9-1-1.8-2.1-3-2.9l-0.3-0.2c-1.5-1-3-2-4.6-2
		c-0.3,0-0.7,0-1,0.1c-1.6,0.4-3.2,1.1-4.6,2c-0.1,0.1-0.2,0.1-0.3,0.2l0,0c-0.4,0.3-0.9,0.6-1.4,0.8c-1.2,0.5-2.6,0.4-3.9,0.3
		c-0.2,0-0.3-0.1-0.4-0.3c-0.1-0.2-0.1-0.3,0-0.5c0.5-1.4,1.6-2.2,2.7-3c0.5-0.4,1-0.8,1.5-1.3l0.4-0.5c1.2-1.2,2.4-2.4,3.4-3.7
		c2.8-3.6,3-6.7,0.6-9.1c-2.3-2.4-6.5-1-9.9,0.2c-1.2,0.4-2.3,0.8-3.2,1c-0.5,0.1-2.1,0.4-4.1,0.7c-8.3,1.4-11.8,2.1-12.8,2.4
		c-0.2,0.1-0.4,0-0.6-0.2c-0.1-0.2-0.2-0.4-0.1-0.6c0.7-1.6,2.4-2.6,4.1-3.5c1.6-0.9,3.3-1.7,5.1-2.6l0,0c5.9-3,11.9-6,16.5-10
		c3.6-3.1,3-8.6,2.4-13.5c-0.1-0.8-0.2-1.6-0.2-2.3c-0.4-4.8-0.9-10.3-3.2-14.9c-1.6-3.2-4-6-6.3-8.7l-0.1-0.1
		c-0.4-0.5-0.9-1-1.3-1.5c-5.9-6.9-10.9-14.6-14.9-22.8c-0.1-0.3,0-0.6,0.3-0.8c11.9-6,28.1-6.7,39.3-5.2c5.2,0.7,11.8,2.6,13.2,8
		c0.9,3.5-0.8,7.1-2.5,9.4c-0.7,1-1.5,2-2.3,2.9c-1.2,1.5-2.5,3.1-3.4,4.8c-2.5,4.8-2.4,10.5-2.3,15.6l0.4,16.7
		c0.1,5.4,0.5,10.4,4.1,13.4c1.4,1.2,3.3,1.7,5.2,2.3c1.4,0.4,2.9,0.9,4.3,1.6c1.4,0.7,2.7,1.6,4,2.4c1.7,1.2,3.5,2.4,5.4,3.1
		c0.5,0.2,0.9,0.3,1.4,0.4c0.8,0.2,1.6,0.5,2.4,0.8c1.4,0.7,2.4,1.8,2.7,2.9c0,0.2,0,0.3-0.1,0.5c-0.1,0.1-0.2,0.2-0.4,0.2
		c-4.3,0.6-8.7,0.4-13-0.5c-0.4-0.1-1.2-0.3-2.1-0.5c-4.2-1.2-12.8-3.5-15.7-1.4c-0.6,0.4-0.9,1-0.9,1.8c0,0.4,0,0.9,0,1.3l0,0.1
		c-0.1,4-0.2,7.4,1.7,11.2c0.9,1.7,1.7,3.4,2.4,5c0.2,0.4,0.4,0.9,0.4,1.4c0.1,0.6-0.2,1.2-0.7,1.6C107.2,207.9,106.9,208,106.6,208
		z M95.1,198.9c2,0,3.6,1.1,5.2,2.2l0.3,0.2c1.3,0.8,2.2,2,3.2,3.1c0.5,0.6,1.1,1.3,1.7,1.8c0.5,0.5,1,0.7,1.2,0.6
		c0.1-0.1,0.2-0.3,0.2-0.5c0-0.3-0.2-0.7-0.3-1c-0.7-1.6-1.5-3.3-2.4-5c-2.1-4-1.9-7.6-1.8-11.8l0-0.1c0-0.4,0-0.8,0-1.3
		c0-1.1,0.5-2,1.3-2.7c3.3-2.4,11.7-0.1,16.7,1.3c0.9,0.2,1.6,0.4,2,0.5c3.9,0.8,7.9,1,11.9,0.6c-0.4-0.6-1-1.2-1.9-1.6
		c-0.7-0.3-1.5-0.6-2.2-0.8c-0.5-0.1-1-0.3-1.5-0.5c-2.1-0.7-3.9-2-5.7-3.2c-1.2-0.8-2.5-1.7-3.8-2.4c-1.3-0.7-2.7-1.1-4.1-1.5
		c-2.1-0.6-4-1.2-5.6-2.5c-4-3.3-4.4-8.6-4.6-14.2l-0.4-16.7c-0.1-5.2-0.2-11.1,2.4-16.1c1-1.8,2.3-3.5,3.6-5
		c0.8-0.9,1.5-1.9,2.2-2.9c1.5-2.2,3.1-5.4,2.3-8.5c-1.3-4.8-7.4-6.5-12.3-7.1c-10.9-1.4-26.6-0.8-38.2,4.9
		c3.9,7.9,8.8,15.3,14.5,22.1c0.4,0.5,0.9,1,1.3,1.5l0.1,0.1c2.4,2.7,4.8,5.6,6.5,8.9c2.4,4.8,2.9,10.4,3.3,15.3
		c0.1,0.7,0.1,1.5,0.2,2.3c0.6,5.2,1.2,11.1-2.8,14.5c-4.7,4.1-10.8,7.1-16.7,10.1l0,0c-1.8,0.9-3.5,1.7-5.1,2.6
		c-1.1,0.6-2.1,1.1-2.8,1.9c1.7-0.4,4.9-0.9,11.4-2.1c2-0.3,3.6-0.6,4.1-0.7c0.9-0.2,1.9-0.5,3.1-0.9c3.7-1.2,8.3-2.8,11.1,0.1
		c3.7,3.8,1.3,8.3-0.5,10.6c-1.1,1.4-2.3,2.6-3.5,3.8l-0.4,0.5c-0.5,0.5-1.1,1-1.6,1.4c-0.8,0.6-1.4,1.1-1.9,1.8
		c0.9,0.1,1.7,0,2.5-0.3c0.4-0.2,0.8-0.4,1.2-0.7l0,0c0.1-0.1,0.2-0.1,0.3-0.2c1.5-1,3.2-1.7,5-2.2C94.3,199,94.7,198.9,95.1,198.9z
		"/>
	<g>
		<path style="fill:#8D5200;" d="M99,163.9c-0.2,0-0.3-0.2-0.3-0.3v-5.4c0-0.2,0.2-0.3,0.3-0.3s0.3,0.2,0.3,0.3v5.4
			C99.4,163.7,99.2,163.9,99,163.9z"/>
		<path style="fill:#8D5200;" d="M101.4,168.8c-0.2,0-0.3-0.1-0.3-0.3c-0.1-2.1-0.1-4.3,0-6.4c0-0.2,0.2-0.3,0.3-0.3
			c0.2,0,0.3,0.2,0.3,0.4c-0.1,2.1,0,4.3,0,6.4C101.8,168.6,101.6,168.7,101.4,168.8C101.5,168.8,101.5,168.8,101.4,168.8z"/>
		<path style="fill:#8D5200;" d="M108.3,180.1C108.3,180.1,108.3,180.1,108.3,180.1c-0.2,0-0.3-0.2-0.3-0.3c0-0.6,0.5-1,0.8-1.2
			c1.2-1,2.5-1.8,3.9-1.7c0.2,0,0.3,0.2,0.3,0.4c0,0.2-0.2,0.3-0.4,0.3c-1.2-0.1-2.4,0.7-3.4,1.6c-0.3,0.2-0.5,0.5-0.5,0.7
			C108.7,179.9,108.5,180.1,108.3,180.1z"/>
		<path style="fill:#8D5200;" d="M111,180.8c-0.1,0-0.1,0-0.1,0c-0.2-0.1-0.2-0.3-0.2-0.5c0.5-1.1,1.5-1.8,2.7-2.1
			c0.2,0,0.4,0.1,0.4,0.3c0,0.2-0.1,0.4-0.3,0.4c-0.9,0.2-1.8,0.8-2.2,1.7C111.2,180.8,111.1,180.8,111,180.8z"/>
		<path style="fill:#8D5200;" d="M99.1,188c-0.1,0-0.2-0.1-0.3-0.2c-0.3-0.6-0.6-1.3-1.1-1.8c-0.5-0.5-1.1-0.8-1.7-0.8
			c-0.2,0-0.4-0.1-0.4-0.3c0-0.2,0.1-0.4,0.3-0.4c0.8,0,1.6,0.3,2.2,1c0.5,0.6,0.9,1.3,1.2,2c0.1,0.2,0,0.4-0.2,0.5
			C99.2,188,99.1,188,99.1,188z"/>
	</g>
</g>
<g>
	<path style="fill:#51BD00;" d="M92.5,147.1C92.6,147.1,92.6,147.1,92.5,147.1c0.1,0,0.2,0.1,0.2,0.2c0,0.8,0.8,1.3,1.4,1.6
		c3,1.6,6.9,3.4,10.9,3.1c3.5-0.3,7.6-2.7,8.1-6.6c0-0.1,0.1-0.1,0.2-0.1c0.9,0.1,1.8,0.1,2.7,0.2c0.9,0.1,1.8,0.1,2.7,0.2
		c1.6,0.1,3.5,0.2,5.1-0.5c1.5-0.6,2.9-2.1,2.7-3.9c0,0,0-0.1,0-0.1c0,0,0.1-0.1,0.1-0.1c2.8,0.2,6.1,0.2,9-0.9
		c2.5-1,5.2-3.4,5.1-6.6c0-0.1,0-0.1,0.1-0.1c0.1,0,0.1,0,0.2,0c3.3,2,6.8,2.5,9.6,1.4c1.7-0.7,3.1-2.1,3.8-3.9
		c0.5-1.4,0.5-2.9-0.1-4.1c0,0,0-0.1,0-0.1c0,0,0.1-0.1,0.1-0.1c1.9-0.2,4.5-0.9,6.2-2.9c1.4-1.7,2-4.5,0.5-6.4c0-0.1,0-0.1,0-0.2
		c0-0.1,0.1-0.1,0.2-0.1c2.3,0.9,5.6-0.2,7.1-2.4c1.4-2.2,1.1-5.3-0.7-7.1c0,0-0.1-0.1,0-0.2c0-0.1,0.1-0.1,0.1-0.1
		c2.4-0.7,4.5-1.5,5.9-3.1c0.8-1,1.2-2.4,1.1-3.6c-0.1-0.7-0.4-1.6-1.3-2.2c0,0-0.1-0.1-0.1-0.1c0-0.1,0-0.1,0.1-0.1
		c3.5-2.7,6.7-5.7,6.3-9.4c-0.3-2.4-2.2-4.6-4.6-5c0,0-0.1,0-0.1-0.1c0,0,0-0.1,0-0.1c0.4-0.9,0.9-1.8,1.3-2.7
		c0.5-0.9,0.9-1.8,1.3-2.7c0.4-0.9,0.8-1.8,0.9-2.8c0.2-1.2-0.2-2.5-1.1-3.6s-2-1.7-3.2-1.9c-0.1,0-0.1-0.1-0.1-0.2
		c0-0.1,0.1-0.1,0.1-0.2c3-0.3,6.5-2.4,7.1-5.9c0.3-1.7-0.2-3.6-1.5-4.9c-1.1-1.2-2.4-1.8-3.8-1.6c-0.1,0.1-0.1,0.1-0.2,0.1
		c-0.1,0-0.2-0.1-0.3-0.6c-0.1-0.3-0.1-0.8,0.1-0.9c0,0,0.1,0,0.2,0c1-0.7,1.8-1.8,2.1-3.1c0.3-1.4,0.1-2.8-0.6-3.8
		c-0.7-1.1-1.9-1.8-3.2-2.1s-2.8,0-3.8,0.7c-0.1,0-0.2,0-0.2,0s0-0.2,0-0.2c2.2-1.6,3.1-4.8,1.8-7.1c-0.6-1.2-1.9-2-3.3-2.2
		c-1-0.2-1.9,0-2.7,0.3c-0.3,0.2-0.5,0.4-0.8,0.6c-0.1,0-0.2,0-0.2,0s0-0.2,0-0.2c0.3-0.2,0.5-0.4,0.8-0.6c1-0.8,1.7-2,2.1-3.4
		c0.4-1.7,0.1-3.5-0.8-4.8c-0.4-0.5-0.7-0.9-1.2-1.1c-0.5-0.2-1.1-0.2-1.6-0.2c-1.1,0-2.3,0-3.4,0s-2.3,0-3.4,0h0
		c-0.1,0-0.1,0-0.1-0.1s0-0.1,0-0.2c0.9-1.9,0.7-4.4-0.5-6.1c-1.2-1.7-3.5-2.8-5.6-2.5c-1.1,0.1-2.1,0.5-3.1,0.9c0,0-0.1,0-0.1,0
		c0,0-0.1-0.1-0.1-0.1c-0.2-2.4-1.9-4.6-4.2-5.4c-2.3-0.8-5-0.3-6.7,1.4c0,0-0.1,0.1-0.2,0c-0.1,0-0.1-0.1-0.1-0.2
		c0.2-2,0.4-3.9-0.5-5.4c-1.1-2-3.7-2.7-5.7-2.5c-2.2,0.2-3.8,1-5.8,2l-0.1,0c0,0-0.1,0-0.1,0c0,0-0.1-0.1-0.1-0.1
		c-0.5-1.2-1.5-2.2-2.9-2.7c-1.4-0.5-2.8-0.3-3.9,0.4c0,0-0.1,0-0.2,0c0,0-0.1-0.1-0.1-0.1C117,4.8,114.7,2.5,112,2
		c-2.8-0.5-5.7,1-7,3.5c0,0.1-0.1,0.1-0.2,0.1c-0.1,0-0.1-0.1-0.1-0.1c-0.8-2.6-3.3-4.7-6-4.9c-2.7-0.2-5.5,1.4-6.7,3.8
		c0,0-0.1,0.1-0.1,0.1c-0.1,0-0.1,0-0.1-0.1c-1.3-1.7-3.5-2.7-5.8-2.8c-2.4-0.1-4.6,0.7-6.1,2.2c0,0-0.1,0-0.1,0c0,0-0.1,0-0.1-0.1
		c-1.6-2.4-4.7-3.6-7.5-2.9c-2.8,0.7-5,3.2-5.4,6c0,0.1,0,0.1-0.1,0.1c0,0-0.1,0-0.1,0c-2.2-1.3-4.9-1.4-7.5-0.4s-4.6,2.9-5.4,5.3
		c0,0.1-0.1,0.1-0.2,0.1c-0.1,0-0.1-0.1-0.1-0.1C53,10.4,52,9.3,50.6,8.5c-1.7-0.8-3.7-0.9-5.3-0.2c-2.9,1.2-4.9,4.5-5,8.2
		c0,0.1,0,0.1-0.1,0.1c-0.1,0-0.1,0-0.2,0c-2-1.5-5-1.6-7.2-0.2c-2.1,1.4-3.2,4.2-2.6,6.7c0,0.1,0,0.2-0.1,0.2c-0.1,0-0.2,0-0.2-0.1
		c-0.5-1.4-1.6-2.5-3.1-3.2s-3.1-0.7-4.4-0.2c-1.4,0.5-2.6,1.9-3.3,3.6c-0.7,1.7-0.8,3.4-0.2,4.7c0,0.1,0,0.1,0,0.2
		s-0.1,0.1-0.2,0.1c-4-0.9-8.5,1.4-10.2,5.1s-0.4,8.6,2.9,11c0,0,0.1,0.1,0.1,0.1c0,0.1,0,0.1-0.1,0.1c-2.4,1.4-4.1,4-4.7,6.9
		c-0.1,0.5-0.4,6.6,0.4,7.2c0,0,0.1,0.1,0.2,0c0.1,0,0.2,0,0.2,0.1s0,0.2-0.1,0.2l0,0c-1.5,0.7-3,1.5-4.2,2.8
		c-1.5,1.5-2,3.8-2.5,5.9c-0.9,4.5,0.5,7.9,4.8,11.6c0,0,0.1,0.1,0.1,0.1c0,0,0,0.1-0.1,0.1c-3.7,3-5.2,5.2-4.3,9.7
		c0.9,4.3,4,8.7,8.9,8.2c0.1,0,0.1,0,0.1,0.1c0,0,0,0.1,0,0.2c-1.8,3.4-1.5,7.7,0.7,11.6s5.9,6.1,9.8,6.2c0.1,0,0.1,0,0.1,0.1
		s0,0.1,0,0.1c-1,2.7-0.2,5.9,2,8.4s5.3,3.6,8.1,3c0,0,0.1,0,0.1,0c0,0,0.1,0.1,0.1,0.1c-0.2,2-0.4,4.2,0.8,5.4
		c2.6,2.9,7.1,2.8,11.5,2.2c0.1,0,0.2,0,0.2,0.1c0.6,3.4,2.9,6.5,5.9,8.2c3,1.6,6.9,1.8,10.1,0.4c0.1,0,0.2,0,0.2,0.1
		c1.8,3.2,5.2,5.4,8.8,5.9s7.4-0.9,10-3.5c0.1-0.1,0.1-0.1,0.2,0c2,1.2,4.3,2.5,6.8,2.9c2.1,0.4,5,0.1,6.7-1.9
		C92.4,147.1,92.5,147.1,92.5,147.1z"/>
	<path style="fill:#439B00;" d="M165.1,38.5c3.2,2.3,0,9.2-3.9,10c2.7,1.4,4.3,4.7,3.7,7.7c-0.6,3-3.3,5.5-6.3,5.7
		c2.7,2.5,3.7,6.8,2.5,10.3c-1.3,3.5-4.7,6.1-8.4,6.3c3.1,5.7-2.5,13.8-8.8,12.9c2.4,2.5,2.9,6.7,1.2,9.8s-5.5,4.8-8.8,4
		c1.4,4.5-0.7,10-4.9,12.2s-9.7,1.1-12.7-2.6c-0.5,2.6-3.2,4.2-5.8,4.4c-2.6,0.1-5.1-0.9-7.5-1.9c-4.6,2.9-11.2,1.7-14.7-2.5
		c-0.2,3.9-3,7.5-6.7,8.6c-3.7,1.1-7.9-0.5-10.1-3.7c-1.5,3.3-5.1,5.4-8.7,5.1c-3.6-0.4-6.4-3.1-7.6-6.5c-1.8,4.4-7.7,4-10.9,1.2
		c-3-2.7-4.2-7-4.5-11.1c-2,2.9-5.4,5.5-8.6,4.3c-3.2-1.2-4.1-5.3-4.5-8.8c-3,2.4-7.1,3.2-10.7,2.2s-6.9-4.5-8.3-8
		c0,0-3.1,4.7,0.7,11.7c0,0,3.4,5.9,9.9,6.4c0,0-2.5,7,5.1,10.7c0,0,1.4,1.2,4.9,0.6c0,0-1.2,6.2,3.7,7.4c0,0,2,1.2,8.9,0.5
		c0,0,0.6,6.8,8.1,9.1c0,0,3.6,1.4,8-0.4c0,0,3,5.4,8.8,5.9c0,0,5.9,0.8,10.2-3.5c0,0,5.4,4.2,11.1,2.6c0,0,1.6-0.6,2.4-1.6
		c0,0-0.1,1.2,3.2,2.6c0,0,5.7,3.1,10.6,2c0,0,5.9-1.1,6.8-6.4c0,0,6.4,0.5,9.6,0.1c0,0,3.8-0.7,3.9-4.4c0,0,7.6,0.8,11.4-2.3
		c0,0,2.6-2,2.6-5.1c0,0,7,4,11.1,0.5c0,0,4.3-3.6,2.5-7.5c0,0,5-0.1,6.9-3.9c0,0,1.8-3.1-0.2-5.3c0,0,5.8,0.7,7.3-2.7
		c0,0,2.7-3.8-0.7-7.1c0,0,5.2-1.7,6.5-4.3c0,0,1.9-3.3-0.9-5.1c0,0,6.4-4.1,6.4-9.5c0,0-0.5-4.4-4.8-5.1c0,0,4.5-7.8,3.5-9.9
		c0,0-0.7-3.4-4.4-4.1c0,0,8.5-1.4,7.2-8.2c0,0-1.1-4.5-5.4-4.4c0,0-0.5-1.1-0.2-1.5c0,0,3.4-2.1,2.1-6.2c0,0-2.2-5-7.7-2.3
		c0,0,3.2-2.9,2.2-6.4C172.3,40.8,170.5,35.4,165.1,38.5z"/>
	<path d="M104.1,152.6c-3.8,0-7.4-1.7-10.2-3.2c-0.4-0.2-1.2-0.6-1.5-1.3c-1.9,1.7-4.6,1.9-6.7,1.6c-2.5-0.5-4.7-1.7-6.7-2.8
		c-2.7,2.6-6.6,3.9-10.2,3.4c-3.7-0.5-7.1-2.7-9.1-5.8c-3.3,1.3-7.1,1.1-10.2-0.6c-3.1-1.7-5.4-4.8-6.1-8.2
		c-4.5,0.6-8.9,0.6-11.6-2.4c-1.2-1.3-1.2-3.4-1-5.3c-2.8,0.4-5.9-0.8-8-3.3c-2.2-2.5-3-5.7-2.3-8.4c-3.9-0.3-7.4-2.6-9.7-6.5
		c-2.2-3.8-2.6-8-1-11.5c0,0,0,0-0.1,0c-4.8,0-7.9-4.4-8.8-8.7c-0.9-4.6,0.6-6.9,4.1-9.9c-4.2-3.7-5.6-7.2-4.6-11.8
		c0.5-2.2,1.1-4.6,2.6-6.2c1.1-1.1,2.4-1.9,3.7-2.5c-0.9-1.7-0.4-7.4-0.4-7.5c0.6-2.9,2.2-5.4,4.5-7c-3.2-2.7-4.3-7.5-2.6-11.3
		c1.7-3.8,6-6.1,10.1-5.6c-0.3-1.3-0.2-2.9,0.5-4.4c0.8-1.8,2.1-3.3,3.6-3.9c1.5-0.6,3.3-0.5,4.8,0.2c1,0.4,1.8,1.1,2.4,1.8
		c0.1-2.1,1.2-4.2,3-5.4c2.1-1.4,5-1.5,7.2-0.2c0.3-3.6,2.4-6.7,5.3-8C46.8,7.1,49,7.1,50.8,8c1.2,0.6,2.2,1.5,2.8,2.6
		c1-2.1,2.9-3.8,5.3-4.7c2.6-1,5.3-0.9,7.5,0.2c0.6-2.8,2.9-5.2,5.7-5.9c2.8-0.7,6,0.5,7.8,2.8c1.6-1.4,3.8-2.1,6.2-2
		c2.3,0.1,4.4,1.1,5.8,2.6c1.4-2.4,4.2-3.9,6.9-3.6c2.6,0.2,5.1,2,6.2,4.5c1.6-2.2,4.4-3.5,7.1-3c2.8,0.5,5.2,2.7,5.8,5.5
		c1.2-0.5,2.6-0.6,3.9-0.2c1.4,0.5,2.5,1.4,3.1,2.6c1.9-1,3.5-1.7,5.7-1.9c2.2-0.2,5,0.6,6.3,2.8c0.8,1.4,0.8,3,0.7,4.7
		c1.9-1.3,4.4-1.6,6.5-0.8c2.3,0.9,4,3,4.5,5.4c0.9-0.3,1.8-0.6,2.8-0.8c2.3-0.3,4.8,0.9,6.1,2.8c1.2,1.7,1.5,4.1,0.8,6.1
		c0.9,0,1.8,0,2.7,0h0.1c1.1,0,2.3,0,3.4,0c0.6,0,1.2,0,1.8,0.3c0.5,0.2,1,0.6,1.4,1.3c1,1.5,1.3,3.4,0.8,5.3
		c-0.2,1-0.6,1.8-1.2,2.6c0.5-0.1,1,0,1.5,0c1.6,0.3,3,1.2,3.7,2.5c1.1,1.9,0.8,4.5-0.6,6.4c0.8-0.1,1.6-0.1,2.3,0
		c1.5,0.3,2.8,1.2,3.6,2.4c0.8,1.2,1,2.8,0.7,4.3c-0.3,1.5-1.2,2.7-2.4,3.5l0,0c0,0.1,0,0.2,0,0.3c0,0,0,0,0,0.1
		c1.5-0.1,3,0.6,4.1,1.8c1.4,1.5,2,3.6,1.6,5.4c-0.6,3.1-3.3,5.2-6,6c0.7,0.4,1.4,0.9,2,1.6c0.9,1.2,1.4,2.6,1.2,4
		c-0.1,1.1-0.6,2-1,2.9c-0.4,0.9-0.9,1.8-1.3,2.7c-0.4,0.7-0.8,1.5-1.1,2.3c2.4,0.7,4.3,2.9,4.6,5.4c0.4,3.8-2.7,6.9-6.1,9.6
		c0.7,0.7,1,1.6,1.1,2.2c0.2,1.4-0.3,3-1.2,4.1c-1.4,1.6-3.3,2.4-5.5,3.1c1.6,2,1.8,5.1,0.4,7.3c-1.4,2.1-4.3,3.3-6.7,2.9
		c0.9,2,0.3,4.6-1.1,6.2c-1.7,1.9-4.1,2.7-6,3c0.5,1.2,0.4,2.7-0.1,4c-0.7,1.9-2.3,3.5-4.1,4.2c-2.8,1.1-6.2,0.7-9.4-1.1
		c-0.3,3.1-2.9,5.4-5.4,6.4c-2.8,1.1-6,1.1-8.8,1c0,1.8-1.5,3.3-3.1,4c-1.7,0.7-3.7,0.6-5.4,0.5c-0.9-0.1-1.8-0.1-2.7-0.2
		c-0.8,0-1.5-0.1-2.3-0.1c-0.8,4-5,6.4-8.6,6.7C104.7,152.6,104.4,152.6,104.1,152.6z M92.5,146.5c0.1,0,0.2,0,0.3,0
		c0.3,0.1,0.5,0.4,0.5,0.7c0,0.3,0.4,0.7,1.1,1.1c2.9,1.5,6.7,3.3,10.5,3c3.3-0.2,7.1-2.5,7.6-6.1c0.1-0.4,0.4-0.6,0.8-0.6
		c0.9,0.1,1.8,0.1,2.7,0.2c0.9,0.1,1.8,0.1,2.7,0.2c1.6,0.1,3.4,0.2,4.9-0.4c1.3-0.5,2.5-1.8,2.4-3.3c0-0.2,0-0.4,0.2-0.6
		c0.2-0.2,0.4-0.2,0.6-0.2c2.8,0.2,6,0.2,8.8-0.9c2.3-0.9,4.8-3.1,4.7-6c0-0.3,0.1-0.5,0.4-0.7c0.2-0.1,0.5-0.1,0.7,0
		c3.2,1.9,6.5,2.4,9.1,1.4c1.5-0.6,2.8-2,3.5-3.6c0.5-1.3,0.5-2.6-0.1-3.6c-0.1-0.2-0.1-0.5,0-0.7c0.1-0.2,0.3-0.4,0.6-0.4
		c1.8-0.2,4.3-0.9,5.9-2.7c1.3-1.5,1.8-4,0.5-5.7c-0.2-0.3-0.2-0.6,0-0.9s0.6-0.4,0.9-0.2c2,0.8,5.1-0.2,6.4-2.2
		c1.3-1.9,1-4.7-0.7-6.4c-0.2-0.2-0.3-0.4-0.2-0.7c0.1-0.2,0.2-0.4,0.5-0.5c2.3-0.7,4.3-1.4,5.6-2.9c0.7-0.9,1.1-2.1,0.9-3.2
		c-0.1-0.5-0.3-1.3-1-1.8c-0.2-0.1-0.3-0.3-0.3-0.6c0-0.2,0.1-0.5,0.3-0.6c3.4-2.6,6.5-5.5,6.1-8.9c-0.2-2.2-2-4.1-4.2-4.5
		c-0.2,0-0.4-0.2-0.5-0.4c-0.1-0.2-0.1-0.4,0-0.6c0.4-0.9,0.9-1.8,1.3-2.8c0.5-0.9,0.9-1.8,1.3-2.7c0.4-0.9,0.8-1.7,0.9-2.6
		c0.1-1.1-0.2-2.2-1-3.1c-0.7-0.9-1.8-1.5-2.8-1.7c-0.4,0-0.6-0.4-0.6-0.7c0-0.4,0.3-0.7,0.7-0.7c2.8-0.3,6-2.3,6.6-5.4
		c0.3-1.5-0.2-3.2-1.4-4.4c-0.9-1-2-1.5-3.2-1.5c-0.1,0.1-0.3,0.1-0.4,0.1c-0.6-0.1-0.8-0.8-0.8-1.1c-0.1-0.3-0.2-1.2,0.4-1.5
		c0.1,0,0.2-0.1,0.3-0.1c0.9-0.6,1.5-1.6,1.7-2.7c0.3-1.2,0.1-2.5-0.5-3.4c-0.6-0.9-1.6-1.6-2.9-1.9c-1.2-0.3-2.5,0-3.4,0.6
		c-0.3,0.2-0.8,0.1-1-0.2c-0.2-0.3-0.1-0.8,0.2-1c2-1.4,2.8-4.3,1.6-6.3c-0.6-1-1.7-1.7-2.9-2c-0.8-0.1-1.6,0-2.3,0.3
		c-0.3,0.2-0.6,0.4-0.9,0.6c-0.3,0.2-0.7,0.1-0.9-0.2c-0.2-0.3-0.2-0.7,0.1-1c0.3-0.2,0.6-0.4,0.9-0.6c0.9-0.7,1.5-1.8,1.8-3.1
		c0.4-1.6,0.1-3.2-0.7-4.4c-0.3-0.4-0.6-0.7-0.9-0.9c-0.4-0.2-0.9-0.2-1.4-0.2c-1.1,0-2.2,0-3.4,0h-0.1c-1.1,0-2.3,0-3.4,0
		c-0.3,0-0.5-0.1-0.6-0.3c-0.1-0.2-0.1-0.5,0-0.7c0.8-1.7,0.7-4-0.4-5.5s-3.2-2.5-5.1-2.3c-1,0.1-2,0.5-2.9,0.9
		c-0.2,0.1-0.5,0.1-0.6-0.1c-0.2-0.1-0.3-0.3-0.3-0.6c-0.2-2.2-1.7-4.2-3.8-5c-2.1-0.8-4.5-0.3-6.1,1.2c-0.2,0.2-0.6,0.3-0.8,0.1
		c-0.3-0.1-0.4-0.4-0.4-0.7c0.2-1.9,0.3-3.7-0.4-5c-1-1.8-3.3-2.4-5.2-2.2c-2.1,0.2-3.6,1-5.6,1.9l-0.1,0c-0.2,0.1-0.4,0.1-0.6,0
		c-0.2-0.1-0.3-0.2-0.4-0.4c-0.4-1-1.4-1.9-2.6-2.3c-1.2-0.4-2.5-0.3-3.4,0.3c-0.2,0.1-0.5,0.2-0.7,0c-0.2-0.1-0.4-0.3-0.4-0.6
		c-0.4-2.5-2.5-4.7-5-5.1c-2.5-0.4-5.2,0.9-6.4,3.2c-0.1,0.3-0.4,0.4-0.7,0.4c-0.3,0-0.6-0.2-0.6-0.5c-0.7-2.4-3-4.3-5.5-4.5
		c-2.5-0.2-5,1.3-6.1,3.5c-0.1,0.2-0.3,0.4-0.6,0.4c-0.3,0-0.5-0.1-0.7-0.3c-1.2-1.5-3.2-2.5-5.4-2.6c-2.2-0.1-4.3,0.6-5.7,2
		c-0.2,0.2-0.4,0.2-0.6,0.2c-0.2,0-0.4-0.1-0.5-0.3c-1.4-2.2-4.3-3.3-6.9-2.7s-4.6,2.9-4.9,5.5c0,0.2-0.2,0.5-0.4,0.6
		c-0.2,0.1-0.5,0.1-0.7,0c-2-1.2-4.6-1.3-7-0.4s-4.3,2.7-5,4.9c-0.1,0.3-0.4,0.5-0.7,0.5l0,0l0,0c-0.3,0-0.6-0.2-0.7-0.5
		c-0.3-1.2-1.2-2.3-2.5-2.9c-1.6-0.8-3.4-0.8-4.8-0.2c-2.7,1.1-4.6,4.2-4.6,7.7c0,0.3-0.2,0.5-0.4,0.6c-0.2,0.1-0.5,0.1-0.8-0.1
		c-1.8-1.4-4.6-1.5-6.5-0.2c-1.9,1.3-2.9,3.8-2.3,6.1c0.1,0.4-0.1,0.8-0.5,0.9c-0.4,0.1-0.8-0.1-0.9-0.4c-0.4-1.2-1.5-2.3-2.8-2.8
		c-1.3-0.6-2.8-0.7-4-0.2c-1.2,0.5-2.4,1.7-3,3.3c-0.6,1.5-0.7,3.1-0.2,4.2c0.1,0.3,0.1,0.5-0.1,0.7c-0.2,0.2-0.4,0.3-0.7,0.2
		c-3.8-0.8-7.9,1.3-9.5,4.8c-1.6,3.5-0.4,8,2.7,10.3c0.2,0.1,0.3,0.4,0.3,0.6c0,0.2-0.1,0.5-0.4,0.6c-2.3,1.4-3.9,3.7-4.5,6.6
		c-0.1,0.7-0.3,5.4,0.2,6.5c0.1,0,0.1,0,0.2,0c0.2,0.1,0.3,0.2,0.4,0.4c0.2,0.4,0,0.8-0.3,1c-1.4,0.7-2.9,1.5-4,2.6
		C2.4,63.8,1.8,66,1.4,68c-0.9,4.2,0.5,7.5,4.6,11c0.2,0.1,0.3,0.3,0.3,0.6c0,0.2-0.1,0.4-0.3,0.6c-3.6,2.9-4.9,4.9-4.1,9.1
		c0.8,4,3.7,8.2,8.3,7.8c0.3,0,0.5,0.1,0.7,0.3c0.1,0.2,0.2,0.5,0,0.7c-1.7,3.2-1.5,7.4,0.7,11c2.2,3.7,5.6,5.9,9.3,5.9
		c0.2,0,0.5,0.1,0.6,0.3c0.1,0.2,0.2,0.4,0.1,0.7c-0.9,2.5-0.2,5.5,1.9,7.8c2.1,2.3,4.9,3.4,7.5,2.8c0.2-0.1,0.5,0,0.7,0.2
		c0.2,0.2,0.3,0.4,0.2,0.6c-0.2,1.8-0.3,3.9,0.6,5c2.4,2.7,6.7,2.6,11,2c0.4-0.1,0.7,0.2,0.8,0.6c0.6,3.2,2.7,6.2,5.6,7.8
		c2.9,1.6,6.6,1.7,9.6,0.4c0.3-0.1,0.7,0,0.9,0.3c1.7,3,4.9,5.2,8.4,5.6c3.4,0.4,7.1-0.8,9.5-3.3c0.2-0.2,0.6-0.3,0.9-0.1
		c1.9,1.1,4.2,2.4,6.6,2.9c2,0.4,4.6,0.1,6.2-1.7C92.1,146.6,92.3,146.5,92.5,146.5z M113.3,145.8
		C113.3,145.8,113.3,145.8,113.3,145.8C113.3,145.8,113.3,145.8,113.3,145.8z M31.3,127.8C31.3,127.8,31.3,127.8,31.3,127.8
		C31.3,127.8,31.3,127.8,31.3,127.8z M10,97.6C10,97.6,10,97.6,10,97.6C10,97.6,10,97.6,10,97.6z M7.6,59.5
		C7.6,59.5,7.6,59.5,7.6,59.5C7.6,59.5,7.6,59.5,7.6,59.5z M11.2,45C11.2,45,11.2,45,11.2,45C11.2,45,11.2,45,11.2,45z M136.7,15.6
		C136.7,15.6,136.7,15.6,136.7,15.6C136.7,15.6,136.7,15.6,136.7,15.6z M66.9,6.4C66.9,6.4,66.9,6.4,66.9,6.4
		C66.9,6.4,66.9,6.4,66.9,6.4z"/>
	<g>
		<path style="fill:#E75371;" d="M126.1,54c-6.1,0-11,4.9-11,10.9s4.9,10.9,11,10.9h21.2c6.1,0,11-4.9,11-10.9s-5-10.9-11-10.9
			H126.1z"/>
		<path style="fill:#D63B5C;" d="M127.9,54c0,0-9.3,14.6,8.4,21.8h-10.2c0,0-10.6-0.6-11-10.9C115.1,64.9,115.6,53.2,127.9,54z"/>
		<path d="M147.3,76.2h-21.2c-6.3,0-11.5-5.1-11.5-11.4s5.2-11.4,11.5-11.4h21.2c6.3,0,11.5,5.1,11.5,11.4
			C158.8,71.1,153.6,76.2,147.3,76.2z M126.1,54.4c-5.8,0-10.6,4.7-10.6,10.4c0,5.8,4.7,10.4,10.6,10.4h21.2
			c5.8,0,10.6-4.7,10.6-10.4s-4.7-10.4-10.6-10.4H126.1z"/>
		<path style="fill:#008200;" d="M137,55c0.6,0.1,1.1,0.1,1.2,0.1c2.6-0.1,5-1.4,6.7-3.4c0.9-1.1,3.5-6.3,0.5-6.4
			c-3.8-0.2-7.7,1.8-10.4,4.5c-1.3,1.3-1.6,3.1-1.6,4.9C133.4,54.6,135.6,54.9,137,55z"/>
		<path d="M138.2,55.6c-0.1,0-0.4,0-1.2-0.1c-0.7-0.1-1.6-0.1-2.4-0.3c-1.5-0.2-1.5-0.2-1.6-0.4c-0.1-0.1-0.1-0.2-0.1-0.3l0,0
			c0.1-1.8,0.4-3.8,1.8-5.2c3-3,7-4.7,10.7-4.6c1,0.1,1.4,0.6,1.6,1c0.8,1.8-1.1,5.3-1.8,6.2C143.5,54.1,140.9,55.4,138.2,55.6
			L138.2,55.6z M133.8,54.6L133.8,54.6C133.8,54.7,133.8,54.7,133.8,54.6C133.8,54.7,133.8,54.6,133.8,54.6z M133.9,54.2
			c0.7,0.1,2.1,0.3,3.2,0.3l0,0c0.9,0.1,1.1,0.1,1.1,0.1c2.4-0.1,4.8-1.3,6.3-3.2c0.8-0.9,2.2-4,1.7-5.2c-0.1-0.2-0.3-0.4-0.8-0.4
			c-3.5-0.2-7.3,1.4-10,4.3C134.3,51.2,134,52.7,133.9,54.2z"/>
		<ellipse style="fill:#FF6285;" cx="132.9" cy="58.8" rx="2.9" ry="1.7"/>
		<circle style="fill:#BA2240;" cx="147.2" cy="64.9" r="8.6"/>
		<path style="fill:#E75371;" d="M149.9,60.4l2.5,2.5l-2.5,2.5l-2.5-2.5L149.9,60.4z M144.2,60.4l2.2,1.3v2.5l-2.2,1.3l-2.2-1.3
			v-2.5L144.2,60.4z M147.1,64.9c1.3,0,2.3,1,2.3,2.2c0,1.3-1,2.2-2.3,2.2c-1.3,0-2.3-1-2.3-2.2S145.8,64.9,147.1,64.9z"/>
	</g>
	<g>
		<path style="fill:#51BD00;" d="M115,53.6c0,1.4,1.5,2.5,2.9,2.7c0.4,0,0.8,0,1.2-0.1c1.2-0.5,1.4-2.1,1.4-3.4
			c-0.1,1.3,1.2,2.6,2.5,2.5c1.3-0.2,2.3-1.7,1.9-3c0.3,1.3,1.4,2.4,2.7,2.4c1.3,0,2.4-1.5,1.8-2.7"/>
		<path d="M118.2,57c-0.2,0-0.3,0-0.5,0c-1.7-0.2-3.5-1.5-3.5-3.4c0-0.4,0.3-0.7,0.7-0.7c0,0,0,0,0,0c0.4,0,0.7,0.3,0.7,0.7
			c0,1,1.2,1.9,2.3,2c0.4,0,0.7,0,0.9-0.1c0.6-0.3,0.9-1.1,1-2.5c0-0.1,0-0.2,0-0.4c0-0.4,0.3-0.6,0.7-0.6c0.4,0,0.7,0.3,0.6,0.7
			c0,0.1,0,0.2,0,0.3c0,0.4,0.2,0.7,0.5,1c0.4,0.4,0.8,0.5,1.2,0.5c0.4,0,0.8-0.3,1.1-0.8c0.2-0.4,0.3-0.8,0.3-1.1
			c0-0.1-0.1-0.2-0.1-0.3c-0.1-0.4,0.1-0.7,0.5-0.8c0.3-0.1,0.7,0.1,0.8,0.4c0,0.1,0.1,0.2,0.1,0.3c0.3,0.8,1,1.6,1.9,1.6
			c0,0,0,0,0,0c0.4,0,0.9-0.3,1.1-0.7c0.1-0.2,0.3-0.6,0.1-0.9c-0.2-0.3-0.1-0.7,0.3-0.9s0.7-0.1,0.9,0.3c0.4,0.7,0.3,1.5-0.1,2.3
			c-0.5,0.9-1.4,1.4-2.3,1.4c0,0,0,0,0,0c-0.8,0-1.6-0.4-2.3-1c0,0.1-0.1,0.1-0.1,0.2c-0.5,0.8-1.3,1.3-2.1,1.4
			c-0.8,0.1-1.6-0.2-2.3-0.8c-0.3,0.7-0.7,1.3-1.5,1.6C119,57,118.7,57,118.2,57z"/>
	</g>
	<g>
		<path style="fill:#51BD00;" d="M129,78.7c0.6-1.3-0.2-2.9-1.4-3.7c-0.4-0.2-0.7-0.4-1.2-0.4c-1.3-0.1-2.2,1.3-2.8,2.4
			c0.7-1.1,0.1-2.9-1.2-3.3s-2.8,0.5-3,1.9c0.3-1.3-0.2-2.8-1.3-3.4c-1.2-0.6-2.9,0.3-2.8,1.6"/>
		<path d="M129,79.4c-0.1,0-0.2,0-0.3-0.1c-0.3-0.2-0.5-0.6-0.3-0.9c0.5-0.9-0.2-2.2-1.2-2.8c-0.3-0.2-0.6-0.3-0.8-0.3
			c-0.6,0-1.3,0.5-2,1.8c0,0.1-0.1,0.2-0.2,0.3c-0.2,0.3-0.6,0.4-0.9,0.2s-0.4-0.6-0.3-0.9c0-0.1,0.1-0.2,0.1-0.2
			c0.1-0.3,0.1-0.8,0-1.1c-0.2-0.5-0.5-0.8-0.9-1c-0.4-0.1-0.9-0.1-1.3,0.2c-0.4,0.2-0.6,0.5-0.7,0.9c0,0.1,0,0.2-0.1,0.3
			c-0.1,0.4-0.4,0.6-0.8,0.5c-0.4-0.1-0.6-0.4-0.6-0.8c0-0.1,0-0.2,0.1-0.3c0.1-0.9-0.2-1.9-1-2.3c-0.4-0.2-0.9-0.1-1.3,0.2
			c-0.2,0.1-0.5,0.4-0.5,0.8c0,0.4-0.3,0.7-0.6,0.7c-0.4,0-0.7-0.3-0.7-0.6c0-0.8,0.4-1.5,1.1-2c0.8-0.5,1.9-0.6,2.7-0.3
			c0.8,0.4,1.3,1.1,1.6,1.9c0,0,0.1-0.1,0.2-0.1c0.8-0.5,1.7-0.6,2.5-0.3c0.8,0.3,1.4,0.9,1.7,1.7c0.5-0.5,1.2-0.9,2-0.8
			c0.5,0,1,0.2,1.5,0.5c1.5,0.9,2.5,2.9,1.7,4.6C129.5,79.3,129.2,79.4,129,79.4z"/>
	</g>
	<g>
		<path style="fill:#8D6AA9;" d="M41.6,86.7c-6,0-11,4.9-11,10.9s4.9,10.9,11,10.9h21c6,0,11-4.9,11-10.9s-4.9-10.9-11-10.9H41.6z"
			/>
		<path style="fill:#8350AA;" d="M53.5,108.5c-9.1-2.4-12.2-8.2-13.1-12.6c-1.1-4.8,0.1-9.1,0.1-9.2c0,0-9,0.8-9.8,11
			c0,0-0.9,7.7,8.4,10.6c0,0,1.1,0.5,3.7,0.2H53.5z"/>
		<ellipse style="fill:#AF83D3;" cx="45.4" cy="91.8" rx="2.9" ry="1.7"/>
		<path d="M62.7,109.1h-21c-6.4,0-11.5-5.2-11.5-11.5s5.2-11.5,11.5-11.5h21c6.4,0,11.5,5.2,11.5,11.5S69,109.1,62.7,109.1z
			 M41.6,87.3c-5.7,0-10.4,4.6-10.4,10.3S35.9,108,41.6,108h21c5.7,0,10.4-4.6,10.4-10.4c0-5.7-4.7-10.3-10.4-10.3H41.6z"/>
		<g>
			<circle style="fill:#673F93;" cx="62.1" cy="97.6" r="8.6"/>
			<g>
				<g>
					<g>
						<path id="SVGID_1_" style="fill:#8D6AA9;" d="M64.3,93.7c0.1-0.2,0.4-0.2,0.5-0.1l2.4,1.6l0.1,0.1c0.1,0.2,0.1,0.4-0.1,0.5
							l-2.4,1.6c-0.1,0.1-0.2,0.1-0.3,0.1c-0.2-0.1-0.3-0.3-0.3-0.5l0.2-0.8l-3.3,0.4c0,0,0,0-0.1,0h-0.1c-0.4,0-0.8-0.4-0.8-0.8
							v-0.7V95c0.1-0.4,0.5-0.7,0.9-0.7l3.3,0.4l-0.2-0.8C64.2,93.9,64.3,93.8,64.3,93.7L64.3,93.7z M59.9,97.9
							C60,98,60,98.1,60,98.2L59.8,99l3.3-0.4c0.4-0.1,0.8,0.2,0.9,0.7v0.1v0.7c0,0.4-0.4,0.8-0.8,0.8h-0.1l-3.3-0.4l0.2,0.8
							c0.1,0.2-0.1,0.4-0.3,0.5c-0.1,0-0.2,0-0.3-0.1l-2.4-1.6c-0.2-0.1-0.2-0.4-0.1-0.5l0.1-0.1l2.4-1.6
							C59.5,97.7,59.7,97.7,59.9,97.9z"/>
					</g>
				</g>
			</g>
		</g>
	</g>
	<g>
		<path style="fill:#51BD00;" d="M30.2,90.3c-0.1,0.7,0.7,1.2,1.4,1.2c1.6,0,2.8-1.9,2.2-3.3c0.5,1.4,1.9,2.4,3.4,2.4
			c0.2,0,0.4,0,0.6-0.1c0.3-0.2,0.5-0.5,0.7-0.9c0.4-1,0.9-2,0.8-3c0.7,0.9,1.5,1.8,2.6,2c0.9,0.2,1.9-0.2,2.5-1s0.6-1.9,0.1-2.7"/>
		<path d="M31.6,92.1c-0.6,0-1.3-0.3-1.7-0.7c-0.3-0.4-0.4-0.8-0.3-1.2c0.1-0.4,0.4-0.6,0.8-0.5c0.4,0.1,0.6,0.4,0.5,0.8
			c0,0,0,0,0,0.1c0.1,0.1,0.4,0.3,0.6,0.3c0.5,0,1-0.3,1.4-0.8c0.3-0.5,0.4-1.1,0.2-1.6c0,0,0,0,0,0c-0.1-0.4,0-0.8,0.4-0.9
			c0.4-0.1,0.7,0,0.9,0.4c0,0,0,0,0,0l0,0v0c0.4,1.1,1.6,1.9,2.8,2c0.2,0,0.3,0,0.3,0c0.1-0.1,0.3-0.4,0.3-0.5
			c0.4-0.8,0.8-1.8,0.8-2.7c0-0.3,0.2-0.6,0.4-0.7c0.3-0.1,0.6,0,0.8,0.2c0.6,0.8,1.3,1.6,2.2,1.7c0.7,0.1,1.4-0.2,1.8-0.7
			s0.4-1.4,0.1-1.9c-0.2-0.3-0.1-0.7,0.2-0.9c0.3-0.2,0.7-0.1,0.9,0.2c0.6,1,0.6,2.4-0.1,3.4c-0.7,1-2,1.5-3.2,1.3
			c-0.8-0.2-1.4-0.6-1.9-1.1c-0.2,0.6-0.4,1.2-0.7,1.7c-0.2,0.3-0.4,0.9-1,1.2c-0.3,0.2-0.7,0.2-1,0.2c-1,0-2-0.4-2.8-1.1
			c-0.1,0.2-0.2,0.4-0.3,0.6C33.5,91.6,32.6,92.1,31.6,92.1C31.6,92.1,31.6,92.1,31.6,92.1z"/>
	</g>
	<g>
		<path style="fill:#51BD00;" d="M64.3,84.8c-0.3,1.3,0.4,2.7,1.6,3.5c1.2,0.7,2.6,0.8,3.9,0.4c-0.7,0.5-0.9,1.4-0.8,2.2
			c0.1,0.8,0.7,1.5,1.4,2c1.4,1,3.5,0.9,4.8-0.3"/>
		<path d="M72.6,94.3c-0.9,0-1.9-0.3-2.6-0.8c-0.9-0.6-1.5-1.5-1.6-2.5c-0.1-0.5-0.1-1,0.1-1.5c-1.1,0-2.1-0.2-2.9-0.7
			c-1.5-0.9-2.3-2.7-1.9-4.2c0.1-0.4,0.5-0.6,0.8-0.5c0.4,0.1,0.6,0.5,0.5,0.8c-0.2,1,0.3,2.1,1.3,2.7c0.9,0.6,2.1,0.7,3.4,0.3
			c0.3-0.1,0.6,0.1,0.8,0.4s0.1,0.6-0.2,0.8c-0.4,0.3-0.7,1-0.5,1.6c0.1,0.6,0.5,1.2,1.1,1.6c1.2,0.8,2.9,0.7,4-0.2
			c0.3-0.2,0.7-0.2,1,0.1c0.2,0.3,0.2,0.7-0.1,1C74.8,93.9,73.7,94.3,72.6,94.3z"/>
	</g>
	<g>
		<path style="fill:#25A939;" d="M120.4,94.7c-6.7,0-12.1,5.4-12.1,12.1c0,6.7,5.4,12.1,12.1,12.1c2.4,0,4.7-0.7,6.7-2
			c0,0,0.1,0,0.1,0h13.6c5.1,0,9.2-4.1,9.2-9.2s-4.1-9.2-9.2-9.2h-11.6c0,0-0.1,0-0.1,0C126.7,96,123.7,94.7,120.4,94.7z"/>
		<g>
			<g>
				<ellipse style="fill:#FFFFFF;" cx="120.2" cy="106.8" rx="9.7" ry="9.7"/>
				<path style="fill:#C1C1C1;" d="M120.2,116.8c-5.5,0-10-4.5-10-10s4.5-10,10-10s10,4.5,10,10
					C130.2,112.3,125.7,116.8,120.2,116.8z M120.2,97.4c-5.2,0-9.4,4.2-9.4,9.4s4.2,9.4,9.4,9.4c5.2,0,9.4-4.2,9.4-9.4
					S125.4,97.4,120.2,97.4z"/>
			</g>
			<path style="fill:#25A939;" d="M123,105.8l-4-2.3c-0.7-0.4-1.7,0.1-1.7,1v4.6c0,0.9,0.9,1.4,1.7,1l4-2.3
				C123.7,107.3,123.7,106.2,123,105.8z"/>
		</g>
		<ellipse style="fill:#2AD247;" cx="135.1" cy="102.3" rx="2.4" ry="1.4"/>
		<path style="fill:#239332;" d="M129,116.8c0,0,15.7-2.7,15.7-17.5c0,0,6.3,2.4,5.3,10.7c0,0-2.7,8.1-11.7,6.9L129,116.8z"/>
		<path d="M120.4,119.4c-7,0-12.6-5.7-12.6-12.7s5.7-12.7,12.6-12.7c3.4,0,6.5,1.3,8.9,3.7h11.5c5.4,0,9.8,4.4,9.8,9.8
			s-4.4,9.8-9.8,9.8h-13.5C125.2,118.7,122.8,119.4,120.4,119.4z M120.4,95.3c-6.3,0-11.5,5.2-11.5,11.5s5.2,11.5,11.5,11.5
			c2.3,0,4.5-0.7,6.4-1.9c0.1-0.1,0.3-0.1,0.4-0.1h13.6c4.8,0,8.6-3.9,8.6-8.6c0-4.8-3.9-8.6-8.6-8.6h-11.6c-0.2,0-0.4-0.1-0.5-0.2
			C126.4,96.5,123.5,95.3,120.4,95.3z M127.4,117.3C127.4,117.3,127.4,117.3,127.4,117.3C127.4,117.3,127.4,117.3,127.4,117.3z
			 M129.4,98C129.4,98,129.4,98,129.4,98C129.4,98,129.4,98,129.4,98z"/>
		<g>
			<path style="fill:#008200;" d="M131.9,99.9c0.6,0.1,1,0.1,1.2,0.1c2.5-0.1,5-1.4,6.6-3.4c0.9-1.2,3.4-6.3,0.5-6.5
				c-3.8-0.2-7.7,1.8-10.3,4.5c-1.3,1.3-1.5,3.2-1.6,4.9C128.3,99.5,130.5,99.7,131.9,99.9z"/>
			<path d="M133,100.6c-0.1,0-0.4,0-1.2-0.1l0,0c-3.9-0.3-3.9-0.4-4.1-0.7c-0.1-0.1-0.2-0.3-0.1-0.5l0,0c0.1-1.8,0.4-3.9,1.8-5.4
				c3-3,7.1-4.8,10.8-4.7c0.9,0,1.5,0.4,1.8,1.1c0.9,1.9-1.1,5.5-1.8,6.4C138.5,99.1,135.8,100.5,133,100.6
				C133.1,100.6,133.1,100.6,133,100.6z M129,99.5C129,99.5,129,99.5,129,99.5C129,99.5,129,99.6,129,99.5
				C129,99.5,129,99.5,129,99.5z M129,98.9c0.7,0.1,2,0.2,3,0.3l0,0c0.9,0.1,1,0.1,1.1,0.1c2.3-0.1,4.6-1.3,6.1-3.2
				c0.3-0.4,0.9-1.4,1.3-2.5c0.4-1.1,0.6-2.1,0.4-2.6c0-0.1-0.1-0.3-0.6-0.3c-3.3-0.1-7.1,1.5-9.8,4.2C129.4,96,129.1,97.5,129,98.9
				z"/>
		</g>
	</g>
	<g>
		<path style="fill:#53B245;" d="M26.4,49.6c-6.4,0-11.6,5.1-11.6,11.4S20,72.4,26.4,72.4h22.3c6.4,0,11.6-5.1,11.6-11.4
			s-5.2-11.4-11.6-11.4H26.4z"/>
		<path style="fill:#34A324;" d="M26.4,49.6c0,0-9,15.8,6.9,22.9h-6.9c0,0-10.7,0.2-11.6-11.4C14.7,61,14.8,50.5,26.4,49.6z"/>
		<path d="M48.7,72.9H26.4c-6.7,0-12.1-5.3-12.1-11.9s5.4-11.9,12.1-11.9h22.3c6.7,0,12.1,5.3,12.1,11.9S55.4,72.9,48.7,72.9z
			 M26.4,50.1c-6.1,0-11.1,4.9-11.1,10.9s5,10.9,11.1,10.9h22.3c6.1,0,11.1-4.9,11.1-10.9s-5-10.9-11.1-10.9
			C48.7,50.1,26.4,50.1,26.4,50.1z"/>
		<g>
			<path style="fill:#008200;" d="M39,51.9c0.6,0.1,1.1,0.1,1.2,0.1c2.7-0.1,5.3-1.5,7-3.6c1-1.2,3.6-6.6,0.5-6.8
				c-4-0.2-8.2,1.9-10.9,4.7c-1.4,1.4-1.6,3.3-1.7,5.2C35.2,51.6,37.5,51.8,39,51.9z"/>
			<path d="M40.2,52.5c-0.1,0-0.4,0-1.2-0.1l0,0c-0.7-0.1-1.7-0.2-2.5-0.2c-1.6-0.2-1.6-0.2-1.7-0.4c-0.1-0.1-0.1-0.2-0.1-0.3l0,0
				c0.1-1.8,0.4-3.9,1.9-5.5c3.1-3.1,7.4-5,11.3-4.8c1,0,1.5,0.6,1.7,1c0.9,1.9-1.2,5.6-1.9,6.5C45.9,51,43.1,52.4,40.2,52.5
				C40.3,52.5,40.2,52.5,40.2,52.5z M35.7,51.5C35.7,51.5,35.7,51.6,35.7,51.5C35.7,51.6,35.7,51.6,35.7,51.5
				C35.7,51.6,35.7,51.6,35.7,51.5z M35.7,51.1c0.7,0.1,2.2,0.2,3.4,0.4l0,0c0.9,0.1,1.1,0.1,1.2,0.1c2.5-0.1,5-1.4,6.7-3.4
				c0.8-1,2.3-4.2,1.8-5.5c-0.1-0.2-0.3-0.4-0.8-0.5c-3.6-0.2-7.6,1.6-10.5,4.5C36.1,47.9,35.8,49.5,35.7,51.1z"/>
		</g>
		<ellipse style="fill:#68DE56;" cx="32.9" cy="54.8" rx="3.1" ry="1.8"/>
		<g>
			<circle style="fill:#188C3B;" cx="48.8" cy="60.5" r="8.6"/>
			<g>
				<g>
					<g>
						<path id="SVGID_00000054246102571901176040000002076672249320926623_" style="fill:#53B245;" d="M49.5,60.9
							c-0.8,0.2-1.8,0.1-2.2-0.2c-0.1-0.1-0.1-0.1-0.1-0.2v-4.4c0-0.2,0.1-0.3,0.3-0.3c0.1,0,0.1,0,0.2,0.1c0.5,0.3,1.1,0.4,1.9,0.2
							c1.2-0.2,2.2-1.1,4.2-0.2c0.1,0.1,0.1,0.1,0.1,0.2v4.4c0,0.2-0.1,0.3-0.3,0.3c-0.1,0-0.2-0.1-0.3-0.1
							C51.4,60,50.7,60.7,49.5,60.9z M44.4,65.8c-0.4,0-0.7-0.3-0.7-0.7s0.3-0.7,0.7-0.7h0.7v-8.6c0-0.4,0.3-0.7,0.7-0.7
							s0.7,0.3,0.7,0.7v8.6h0.7c0.4,0,0.7,0.3,0.7,0.7s-0.3,0.7-0.7,0.7C47.2,65.8,44.4,65.8,44.4,65.8z"/>
					</g>
				</g>
			</g>
		</g>
	</g>
	<g>
		<path style="fill:#44BDE4;" d="M101.3,47.6c6.4-0.2,11.4-5.5,11.3-11.7c-0.1-3-1.3-5.9-3.5-8s-5.1-3.2-8.2-3.1l-22.3,0.6
			c-3.1,0.1-5.9,1.3-8.1,3.6c-2.1,2.2-3.3,5.1-3.2,8.2c0.2,6.3,5.4,11.3,11.8,11.1L101.3,47.6z"/>
		
			<ellipse transform="matrix(0.9996 -2.930819e-02 2.930819e-02 0.9996 -0.8352 2.5192)" style="fill:#73DEFF;" cx="85.5" cy="29.7" rx="3" ry="1.8"/>
		<path style="fill:#1BA9D2;" d="M78.6,25.3c0,0-7.4,16.4,10,22.7l-11,0.2c0,0-10.2-1-10.1-12.2C67.3,35.9,67.8,26.2,78.6,25.3z"/>
		<path d="M104.7,47.5c-1.1,0.3-2.2,0.6-3.4,0.6l0,0l-22.2,0.6c-6.7,0.2-12.2-5-12.3-11.6c0-3.2,1.1-6.2,3.4-8.6
			c2.2-2.3,5.2-3.6,8.4-3.7l22.3-0.6c3.2-0.1,6.2,1.1,8.6,3.3s3.7,5.1,3.7,8.4C113.2,41.3,109.7,45.9,104.7,47.5z M101.3,47.1
			c6.1-0.2,10.9-5.2,10.8-11.2c0-2.9-1.2-5.6-3.4-7.6c-2.1-2-4.9-3.1-7.9-3l-22.2,0.5c-3,0-5.7,1.3-7.8,3.4c-2.1,2.1-3.1,4.9-3,7.8
			c0.1,6.1,5.2,10.8,11.3,10.7L101.3,47.1z"/>
		<path style="fill:#008200;" d="M92.5,27.2c0.6,0,1.1,0.1,1.2,0c2.7-0.2,5.3-1.6,6.9-3.7c1-1.2,3.5-6.7,0.4-6.8
			c-4,0-8.1,2.1-10.7,5c-1.4,1.4-1.6,3.3-1.6,5.2C88.7,26.9,91,27.1,92.5,27.2z"/>
		<path d="M96,27.3c-0.8,0.2-1.5,0.4-2.2,0.4c-0.1,0-0.2,0-1.3-0.1l0,0c-0.7-0.1-1.7-0.1-2.5-0.2c-1.6-0.1-1.6-0.1-1.7-0.4
			c-0.1-0.1-0.1-0.2-0.1-0.3l0,0c0.1-1.8,0.3-4,1.8-5.6c3-3.2,7.3-5.2,11.1-5.1c1,0,1.5,0.6,1.7,1c0.9,1.9-1,5.7-1.8,6.6
			C99.8,25.4,98,26.7,96,27.3z M89.2,26.4c0.7,0.1,2.2,0.2,3.3,0.2l0,0c1,0,1.1,0.1,1.1,0.1c2.5-0.2,5-1.5,6.6-3.6
			c0.8-1,2.2-4.3,1.6-5.5c-0.1-0.2-0.3-0.5-0.8-0.4c-3.6-0.1-7.5,1.7-10.3,4.7C89.6,23.2,89.3,24.8,89.2,26.4z M89.2,26.9L89.2,26.9
			L89.2,26.9z M89.2,26.8L89.2,26.8C89.2,26.9,89.2,26.9,89.2,26.8C89.2,26.9,89.2,26.8,89.2,26.8z"/>
		<circle style="fill:#0C7798;" cx="101.4" cy="36.3" r="9"/>
		<path style="fill:#44BDE4;" d="M101.9,31.2c0.9,0,1.7,0.7,1.7,1.6c0,0.4-0.1,0.7-0.3,1l1.9,2.9c0.1,0,0.1,0,0.1,0
			c0.9,0,1.7,0.7,1.7,1.6c0,0.9-0.7,1.7-1.6,1.7s-1.7-0.7-1.7-1.6c0-0.5,0.2-1,0.6-1.3l-1.7-2.6c-0.2,0.1-0.4,0.1-0.6,0.1
			s-0.4,0-0.6-0.1l-1.6,2.7c0.4,0.3,0.7,0.8,0.7,1.3c0,0.9-0.7,1.7-1.6,1.7s-1.8-0.7-1.9-1.7c0-0.9,0.7-1.7,1.6-1.7
			c0.1,0,0.1,0,0.1,0l1.8-2.9c-0.2-0.3-0.3-0.6-0.4-1C100.2,31.9,101,31.2,101.9,31.2z"/>
	</g>
</g>
<g>
	<g>
		<g>
			<path style="fill:#FFFFFF;" d="M150.8,89.2L150.8,89.2c0,4-3.3,7.3-7.3,7.3l0,0c4,0,7.3,3.3,7.3,7.3l0,0c0-4,3.3-7.3,7.3-7.3l0,0
				C154.1,96.5,150.8,93.3,150.8,89.2z"/>
			<path style="fill:#BBFF00;" d="M150.8,104.3c-0.2,0-0.4-0.2-0.4-0.4c0-3.8-3.1-6.9-6.9-6.9c-0.2,0-0.4-0.2-0.4-0.4
				s0.2-0.4,0.4-0.4c3.8,0,6.9-3.1,6.9-6.9c0-0.2,0.2-0.4,0.4-0.4c0.2,0,0.4,0.2,0.4,0.4c0,3.8,3.1,6.9,6.9,6.9
				c0.2,0,0.4,0.2,0.4,0.4s-0.2,0.4-0.4,0.4c-3.8,0-6.9,3.1-6.9,6.9C151.2,104.1,151,104.3,150.8,104.3z M146,96.5
				c2.2,0.8,4,2.5,4.8,4.8c0.8-2.2,2.5-4,4.8-4.8c-2.2-0.8-4-2.5-4.8-4.8C150,94,148.2,95.8,146,96.5z"/>
		</g>
	</g>
	<g>
		<g>
			<path style="fill:#FFFFFF;" d="M103.2,129L103.2,129c0,4-3.3,7.3-7.3,7.3l0,0c4,0,7.3,3.3,7.3,7.3l0,0c0-4,3.3-7.3,7.3-7.3l0,0
				C106.5,136.3,103.2,133,103.2,129z"/>
			<path style="fill:#BBFF00;" d="M103.2,144c-0.2,0-0.4-0.2-0.4-0.4c0-3.8-3.1-6.9-6.9-6.9c-0.2,0-0.4-0.2-0.4-0.4s0.2-0.4,0.4-0.4
				c3.8,0,6.9-3.1,6.9-6.9c0-0.2,0.2-0.4,0.4-0.4s0.4,0.2,0.4,0.4c0,3.8,3.1,6.9,6.9,6.9c0.2,0,0.4,0.2,0.4,0.4s-0.2,0.4-0.4,0.4
				c-3.8,0-6.9,3.1-6.9,6.9C103.6,143.8,103.4,144,103.2,144z M98.4,136.3c2.2,0.8,4,2.5,4.8,4.8c0.8-2.2,2.5-4,4.8-4.8
				c-2.2-0.8-4-2.5-4.8-4.8C102.4,133.7,100.7,135.5,98.4,136.3z"/>
		</g>
	</g>
	<g>
		<g>
			<path style="fill:#FFFFFF;" d="M67.5,164.3L67.5,164.3c0,4-3.3,7.3-7.3,7.3l0,0c4,0,7.3,3.3,7.3,7.3l0,0c0-4,3.3-7.3,7.3-7.3l0,0
				C70.8,171.6,67.5,168.3,67.5,164.3z"/>
			<path style="fill:#BBFF00;" d="M67.5,179.3c-0.2,0-0.4-0.2-0.4-0.4c0-3.8-3.1-6.9-6.9-6.9c-0.2,0-0.4-0.2-0.4-0.4
				s0.2-0.4,0.4-0.4c3.8,0,6.9-3.1,6.9-6.9c0-0.2,0.2-0.4,0.4-0.4s0.4,0.2,0.4,0.4c0,3.8,3.1,6.9,6.9,6.9c0.2,0,0.4,0.2,0.4,0.4
				s-0.2,0.4-0.4,0.4c-3.8,0-6.9,3.1-6.9,6.9C68,179.2,67.8,179.3,67.5,179.3z M62.8,171.6c2.2,0.8,4,2.5,4.8,4.8
				c0.8-2.2,2.5-4,4.8-4.8c-2.2-0.8-4-2.5-4.8-4.8C66.8,169.1,65,170.8,62.8,171.6z"/>
		</g>
	</g>
	<g>
		<g>
			<path style="fill:#FFFFFF;" d="M119.8,4L119.8,4c0,4-3.3,7.3-7.3,7.3l0,0c4,0,7.3,3.3,7.3,7.3l0,0c0-4,3.3-7.3,7.3-7.3l0,0
				C123.1,11.3,119.8,8,119.8,4z"/>
			<path style="fill:#BBFF00;" d="M119.8,19c-0.2,0-0.4-0.2-0.4-0.4c0-3.8-3.1-6.9-6.9-6.9c-0.2,0-0.4-0.2-0.4-0.4s0.2-0.4,0.4-0.4
				c3.8,0,6.9-3.1,6.9-6.9c0-0.2,0.2-0.4,0.4-0.4s0.4,0.2,0.4,0.4c0,3.8,3.1,6.9,6.9,6.9c0.2,0,0.4,0.2,0.4,0.4s-0.2,0.4-0.4,0.4
				c-3.8,0-6.9,3.1-6.9,6.9C120.2,18.8,120,19,119.8,19z M115,11.3c2.2,0.8,4,2.5,4.8,4.8c0.8-2.2,2.5-4,4.8-4.8
				c-2.2-0.8-4-2.5-4.8-4.8C119,8.7,117.3,10.5,115,11.3z"/>
		</g>
	</g>
	<g>
		<g>
			<path style="fill:#FFFFFF;" d="M54.7,116.6L54.7,116.6c0,4-3.3,7.3-7.3,7.3l0,0c4,0,7.3,3.3,7.3,7.3l0,0c0-4,3.3-7.3,7.3-7.3l0,0
				C58,123.9,54.7,120.6,54.7,116.6z"/>
			<path style="fill:#BBFF00;" d="M54.7,131.6c-0.2,0-0.4-0.2-0.4-0.4c0-3.8-3.1-6.9-6.9-6.9c-0.2,0-0.4-0.2-0.4-0.4
				s0.2-0.4,0.4-0.4c3.8,0,6.9-3.1,6.9-6.9c0-0.2,0.2-0.4,0.4-0.4s0.4,0.2,0.4,0.4c0,3.8,3.1,6.9,6.9,6.9c0.2,0,0.4,0.2,0.4,0.4
				s-0.2,0.4-0.4,0.4c-3.8,0-6.9,3.1-6.9,6.9C55.1,131.4,54.9,131.6,54.7,131.6z M49.9,123.9c2.2,0.8,4,2.5,4.8,4.8
				c0.8-2.2,2.5-4,4.8-4.8c-2.2-0.8-4-2.5-4.8-4.8C53.9,121.3,52.2,123.1,49.9,123.9z"/>
		</g>
	</g>
	<g>
		<g>
			<path style="fill:#FFFFFF;" d="M27.8,34.6L27.8,34.6c0,4-3.3,7.3-7.3,7.3l0,0c4,0,7.3,3.3,7.3,7.3l0,0c0-4,3.3-7.3,7.3-7.3l0,0
				C31.1,42,27.8,38.7,27.8,34.6z"/>
			<path style="fill:#BBFF00;" d="M27.8,49.7c-0.2,0-0.4-0.2-0.4-0.4c0-3.8-3.1-6.9-6.9-6.9c-0.2,0-0.4-0.2-0.4-0.4s0.2-0.4,0.4-0.4
				l0,0c0,0,0,0,0,0c3.8,0,6.8-3.1,6.8-6.9c0-0.2,0.2-0.4,0.4-0.4s0.4,0.2,0.4,0.4c0,3.8,3.1,6.9,6.9,6.9c0.2,0,0.4,0.2,0.4,0.4
				s-0.2,0.4-0.4,0.4l0,0c0,0,0,0,0,0c-3.8,0-6.8,3.1-6.8,6.9C28.2,49.5,28,49.7,27.8,49.7z M23,42c2.2,0.8,4,2.5,4.8,4.8
				c0.8-2.2,2.5-4,4.8-4.8c-2.2-0.8-4-2.5-4.8-4.8C27,39.4,25.2,41.2,23,42z"/>
		</g>
	</g>
	<g>
		<g>
			<path style="fill:#FFFFFF;" d="M81.5,46.9L81.5,46.9c0,4-3.3,7.3-7.3,7.3l0,0c4,0,7.3,3.3,7.3,7.3l0,0c0-4,3.3-7.3,7.3-7.3l0,0
				C84.7,54.2,81.5,50.9,81.5,46.9z"/>
			<path style="fill:#BBFF00;" d="M81.5,61.9c-0.2,0-0.4-0.2-0.4-0.4c0-3.8-3.1-6.9-6.9-6.9c-0.2,0-0.4-0.2-0.4-0.4s0.2-0.4,0.4-0.4
				c3.8,0,6.9-3.1,6.9-6.9c0-0.2,0.2-0.4,0.4-0.4s0.4,0.2,0.4,0.4c0,3.8,3.1,6.9,6.9,6.9c0.2,0,0.4,0.2,0.4,0.4s-0.2,0.4-0.4,0.4
				c-3.8,0-6.9,3.1-6.9,6.9C81.9,61.7,81.7,61.9,81.5,61.9z M76.7,54.2c2.2,0.8,4,2.5,4.8,4.8c0.8-2.2,2.5-4,4.8-4.8
				c-2.2-0.8-4-2.5-4.8-4.8C80.7,51.7,78.9,53.4,76.7,54.2z"/>
		</g>
	</g>
	<g>
		<g>
			<path style="fill:#FFFFFF;" d="M168,129.3L168,129.3c0,6.3-5.1,11.4-11.4,11.4l0,0c6.3,0,11.4,5.1,11.4,11.4l0,0
				c0-6.3,5.1-11.4,11.4-11.4l0,0C173.1,140.7,168,135.6,168,129.3z"/>
			<path style="fill:#97FF00;" d="M168,152.7c-0.4,0-0.7-0.3-0.7-0.7c0-5.9-4.8-10.7-10.7-10.7c-0.4,0-0.7-0.3-0.7-0.7
				s0.3-0.7,0.7-0.7c5.9,0,10.7-4.8,10.7-10.7c0-0.4,0.3-0.7,0.7-0.7s0.7,0.3,0.7,0.7c0,5.9,4.8,10.7,10.7,10.7
				c0.4,0,0.7,0.3,0.7,0.7s-0.3,0.7-0.7,0.7c-5.9,0-10.7,4.8-10.7,10.7C168.7,152.4,168.4,152.7,168,152.7z M160.6,140.7
				c3.5,1.2,6.2,4,7.4,7.4c1.2-3.5,4-6.2,7.4-7.4c-3.5-1.2-6.2-4-7.4-7.4C166.8,136.8,164.1,139.5,160.6,140.7z"/>
		</g>
	</g>
	<g>
		<g>
			<path style="fill:#FFFFFF;" d="M15.6,135.4L15.6,135.4c0,6.3-5.1,11.4-11.4,11.4l0,0c6.3,0,11.4,5.1,11.4,11.4l0,0
				c0-6.3,5.1-11.4,11.4-11.4l0,0C20.7,146.7,15.6,141.6,15.6,135.4z"/>
			<path style="fill:#97FF00;" d="M15.6,158.8c-0.4,0-0.7-0.3-0.7-0.7c0-5.9-4.8-10.7-10.7-10.7c-0.4,0-0.7-0.3-0.7-0.7
				s0.3-0.7,0.7-0.7c5.9,0,10.7-4.8,10.7-10.7c0-0.4,0.3-0.7,0.7-0.7c0.4,0,0.7,0.3,0.7,0.7c0,5.9,4.8,10.7,10.7,10.7
				c0.4,0,0.7,0.3,0.7,0.7s-0.3,0.7-0.7,0.7c-5.9,0-10.7,4.8-10.7,10.7C16.3,158.5,16,158.8,15.6,158.8z M8.2,146.7
				c3.5,1.2,6.2,4,7.4,7.4c1.2-3.5,4-6.2,7.4-7.4c-3.5-1.2-6.2-4-7.4-7.4C14.4,142.8,11.7,145.5,8.2,146.7z"/>
		</g>
	</g>
</g>
</svg>
