<?xml version="1.0" encoding="utf-8"?>
<!-- Generator: Adobe Illustrator 26.5.0, SVG Export Plug-In . SVG Version: 6.00 Build 0)  -->
<svg version="1.1" id="레이어_1" xmlns="http://www.w3.org/2000/svg" xmlns:xlink="http://www.w3.org/1999/xlink" x="0px"
	 y="0px" viewBox="0 0 390 390" style="enable-background:new 0 0 390 390;" xml:space="preserve">
<g>
	<path style="fill:#009CCD;" d="M84.6,102.8c0-44.3,31.9-74.4,82-74.4h57c50.1,0,82,30.1,82,74.4"/>
	<path d="M307.6,102.8h-4c0-44-31.4-72.4-80-72.4h-57c-48.6,0-80,28.4-80,72.4h-4c0-45.7,33.8-76.4,84-76.4h57
		C273.9,26.4,307.6,57.1,307.6,102.8z"/>
</g>
<g>
	<path style="fill:#4A4A4A;" d="M282.2,165.4l21-7c6.9-2.3,11.6-8.8,11.6-16v-24.3c0-7.3-4.7-13.7-11.6-16l-21-7V165.4z"/>
	<polygon style="fill:#737373;" points="314.7,118.2 282.2,110.2 282.2,126.8 314.7,128.2 	"/>
	<path d="M316.2,118.2h-3.1c0-6.6-4.2-12.5-10.5-14.6l-18.9-6.3v12.9h-3.1V93.1l23,7.6C311.1,103.2,316.2,110.2,316.2,118.2z"/>
	<path d="M280.6,167.5v-40.7h3.1v36.5l18.9-6.3c6.3-2.1,10.5-7.9,10.5-14.6v-14.2h3.1v14.2c0,7.9-5.1,15-12.6,17.5L280.6,167.5z"/>
</g>
<g>
	<path style="fill:#4A4A4A;" d="M107.8,165.4l-21-7c-6.9-2.3-11.6-8.8-11.6-16v-24.3c0-7.3,4.7-13.7,11.6-16l21-7V165.4z"/>
	<polygon style="fill:#737373;" points="75.3,118.2 107.8,110.2 107.8,126.8 75.3,128.2 	"/>
	<path d="M73.8,118.2h3.1c0-6.6,4.2-12.5,10.5-14.6l18.9-6.3v12.9h3.1V93.1l-23,7.6C78.9,103.2,73.8,110.2,73.8,118.2z"/>
	<path d="M109.4,167.5v-40.7h-3.1v36.5L87.4,157c-6.3-2.1-10.5-7.9-10.5-14.6v-14.2h-3.1v14.2c0,7.9,5.1,15,12.6,17.5L109.4,167.5z"
		/>
</g>
<g>
	<path style="fill:#4A4A4A;" d="M131.6,332l3,36.3c0,7.4,27.2,18.7,60.7,18.7s60.7-11.3,60.7-18.7l3-36.3H131.6z"/>
	<path d="M195.2,388.9c-31,0-62.7-10.4-62.7-20.7l-3.1-38.3H261l-3.1,38.5C257.8,378.5,226.2,388.9,195.2,388.9z M133.7,334
		l2.8,34.1c0,5,23.4,16.9,58.7,16.9s58.6-11.9,58.6-16.7l2.8-34.3H133.7z"/>
</g>
<g>
	<path style="fill:#E7E7E7;" d="M124.1,320.6c0,0.1,0,0.2,0,0.3v0.2c0,13.1,22.1,31.2,71.3,31.2c52,0,71.3-19,71.3-31v-0.4
		c0-0.1,0-0.2,0-0.3v-97.7c0-39.3-32-71.3-71.3-71.3s-71.3,32-71.3,71.3C124.1,222.9,124.1,320.6,124.1,320.6z"/>
	<path style="fill:#009CCD;" d="M266.7,239.2h-6.2c-17.9,0-34.5,10.5-42.1,26.9c-3.3,7-9.8,12-17.4,13.3c-1.9,0.3-3.7,0.5-5.6,0.5
		c-1.9,0-3.7-0.2-5.6-0.5c-7.6-1.3-14.1-6.3-17.4-13.3c-7.7-16.3-24.2-26.9-42.1-26.9h-6.2c-1.4,0-0.1-21.1,0.1-22.4
		c1.9-15.5,7.6-30.8,18.4-42.4c34.1-36.6,99.4-26.5,118,20.3C266.1,208.8,267.4,224.2,266.7,239.2z"/>
	<path style="fill:#006989;" d="M195.5,280.4c-1.8,0-3.6-0.2-5.8-0.5c-8.1-1.4-15-6.7-18.5-14.1c-7.5-15.8-23.5-26-40.7-26h-6.2v-3
		h6.2c18.4,0,35.5,10.9,43.5,27.8c3.1,6.6,9.2,11.2,16.3,12.5c4.2,0.7,6.5,0.7,10.7,0c7.1-1.2,13.2-5.9,16.3-12.5
		c7.8-16.9,24.9-27.8,43.5-27.8h6.2v3h-6.2c-17.4,0-33.4,10.2-40.7,26c-3.5,7.5-10.4,12.8-18.5,14.1
		C199.1,280.2,197.3,280.4,195.5,280.4z"/>
	<path d="M195.4,354.3c-53.4,0-73.3-20.4-73.3-33.2v-98.2c0-40.4,32.9-73.3,73.3-73.3s73.3,32.9,73.3,73.3v98.4
		c0,7.7-6.4,15.8-17.2,21.8C242.2,348.2,224.9,354.3,195.4,354.3z M195.4,153.6c-38.2,0-69.3,31.1-69.3,69.3v98.2
		c0,12.1,21.5,29.2,69.3,29.2c28.7,0,45.3-5.8,54.2-10.8c11.1-6.2,15.1-13.5,15.1-18.2v-98.4C264.7,184.7,233.6,153.6,195.4,153.6z"
		/>
</g>
<g>
	<g>
		<path style="fill:#ECECEC;" d="M85.2,307.4L85.2,307.4L85.2,307.4c-13.3-5.8-6.5-38.7-1.4-57.4c3.8-13.8,10.3-27,19.5-37.7
			c9-10.5,20.2-18.8,30-14.5"/>
		<path d="M84.4,309.3c-13.9-6.1-9.1-35.9-2.5-59.8c4-14.7,10.9-28,19.9-38.5c8.3-9.7,20.7-20.2,32.4-15.1l-1.6,3.7
			c-9.9-4.3-21.6,6.9-27.7,14c-8.6,10.1-15.2,22.8-19.1,36.9c-8.5,31.2-8.4,51.3,0.3,55.1L84.4,309.3z"/>
	</g>
	<g>
		<path style="fill:#009CCD;" d="M143,229.7c1.6-13.7,0.1-27.6-9.7-31.9L85.2,307.4l0,0c13.3,5.8,32.9-21.4,43.2-37.9
			C136.1,257.4,141.3,243.7,143,229.7z"/>
		<path style="fill:#006989;" d="M89.1,310.3c-1.6,0-3.2-0.3-4.7-1l-1.8-0.8l0.8-1.8l48.9-111.5l1.8,0.8c11.7,5.1,12.3,21.3,10.8,34
			c-1.6,13.8-6.8,27.9-14.8,40.7C118.4,289.4,102.3,310.3,89.1,310.3z M88,306.2c8.8,1.2,22.8-12.2,38.7-37.6
			c7.8-12.3,12.7-25.9,14.2-39l0,0c1-8.7,1.4-23.5-6.7-28.9L88,306.2z"/>
	</g>
	<path d="M89.1,310.3c-1.6,0-3.2-0.3-4.7-1c-13.9-6.1-9.1-35.9-2.5-59.8c4-14.7,10.9-28,19.9-38.5c8.3-9.7,20.7-20.2,32.4-15.1
		c11.7,5.1,12.3,21.3,10.8,34c-1.6,13.8-6.8,27.9-14.8,40.7C118.4,289.4,102.3,310.3,89.1,310.3z M127.8,198.7c-8.7,0-17.8,9-23,15
		c-8.6,10.1-15.2,22.8-19.1,36.9c-8.5,31.2-8.4,51.3,0.3,55.1c8.7,3.8,23.5-9.7,40.7-37.1c7.8-12.3,12.7-25.9,14.2-39l0,0
		c1.1-9.3,1.5-25.5-8.5-29.9C131,199,129.4,198.7,127.8,198.7z"/>
</g>
<g>
	<g>
		<path style="fill:#ECECEC;" d="M305,307.4L305,307.4L305,307.4c13.3-5.8,6.5-38.7,1.4-57.4c-3.8-13.8-10.3-27-19.5-37.7
			c-9-10.5-20.2-18.8-30-14.5"/>
		<path d="M305.9,309.3l-1.6-3.7c8.7-3.8,8.8-23.9,0.3-55.1c-3.8-14.1-10.4-26.8-19.1-36.9c-6.1-7.1-17.8-18.3-27.7-14l-1.6-3.7
			c11.7-5.1,24,5.4,32.4,15.1c9,10.5,15.9,23.8,19.9,38.5C314.9,273.4,319.8,303.2,305.9,309.3z"/>
	</g>
	<g>
		<path style="fill:#009CCD;" d="M247.3,229.7c-1.6-13.7-0.1-27.6,9.7-31.9l48,109.6l0,0c-13.3,5.8-32.9-21.4-43.2-37.9
			C254.2,257.4,248.9,243.7,247.3,229.7z"/>
		<path style="fill:#006989;" d="M301.2,310.3c-13.2,0-29.3-20.9-41-39.6c-8.1-12.9-13.2-26.9-14.8-40.7c-1.5-12.7-0.8-28.9,10.8-34
			l1.8-0.8l49.7,113.3l-1.8,0.8C304.3,309.9,302.8,310.3,301.2,310.3z M256,200.6c-8.1,5.4-7.7,20.2-6.7,28.9l0,0
			c1.6,13.2,6.5,26.7,14.2,39c16,25.4,29.9,38.9,38.8,37.6L256,200.6z"/>
	</g>
	<path d="M301.2,310.3c-13.2,0-29.3-20.9-41-39.6c-8.1-12.9-13.2-26.9-14.8-40.7c-1.5-12.7-0.8-28.9,10.8-34
		c11.7-5.1,24,5.4,32.4,15.1c9,10.5,15.9,23.8,19.9,38.5c6.5,23.9,11.4,53.7-2.5,59.8C304.3,309.9,302.8,310.3,301.2,310.3z
		 M262.4,198.7c-1.6,0-3.2,0.3-4.7,1c-9.9,4.4-9.6,20.6-8.5,29.9l0,0c1.6,13.2,6.5,26.7,14.2,39c17.2,27.4,32,40.9,40.7,37.1
		s8.8-23.9,0.3-55.1c-3.8-14.1-10.4-26.8-19.1-36.9C280.3,207.6,271.1,198.7,262.4,198.7z"/>
</g>
<g>
	<g>
		<path style="fill:#ECECEC;" d="M278.5,55.8c-17.7-33.2-54.3-49.7-83.4-49.7s-65.7,16.5-83.4,49.7c-8.8,16.7-14,50.3-14.2,71.4
			c-0.5,44.7,36.7,81.3,81.4,81.3h16.2l0,0h16.2c44.7,0,82-36.6,81.4-81.3C292.5,106.1,287.4,72.5,278.5,55.8z"/>
		<path d="M195.1,6.1c29.1,0,65.7,16.5,83.4,49.7c8.8,16.7,14,50.3,14.2,71.4c0.5,44.7-36.7,81.3-81.4,81.3h-16.2H179
			c-44.7,0-82-36.6-81.4-81.3c0.2-21.1,5.4-54.7,14.2-71.4C129.4,22.6,166.1,6.1,195.1,6.1 M195.1,2.1c-28.6,0-68,16.2-86.9,51.8
			c-8.9,16.7-14.4,50.3-14.7,73.2c-0.3,22.3,8.4,43.6,24.4,59.7c16.3,16.5,38,25.6,61.1,25.6h16.2h16.2c23.1,0,44.8-9.1,61.1-25.6
			c16-16.2,24.6-37.4,24.4-59.7c-0.3-22.9-5.8-56.5-14.7-73.2C263.2,18.3,223.8,2.1,195.1,2.1L195.1,2.1z"/>
	</g>
	<path style="fill:#CBCBCB;" d="M177.8,208.4c-44.3,0-80.3-36-80.3-80.3s36-80.3,80.3-80.3h34.7c44.3,0,80.3,36,80.3,80.3
		s-36,80.3-80.3,80.3H177.8z"/>
</g>
<g>
	<g>
		<path style="fill:#2A2C49;" d="M213.2,191.7h-36.1c-35.1,0-63.6-28.5-63.6-63.6l0,0c0-35.1,28.5-63.6,63.6-63.6h36.1
			c35.1,0,63.6,28.5,63.6,63.6l0,0C276.8,163.3,248.3,191.7,213.2,191.7z"/>
		<path d="M213.2,64.6c35.1,0,63.6,28.5,63.6,63.6l0,0c0,35.1-28.5,63.6-63.6,63.6h-36.1c-35.1,0-63.6-28.5-63.6-63.6l0,0
			c0-35.1,28.5-63.6,63.6-63.6L213.2,64.6 M213.2,60.5h-36.1c-37.3,0-67.6,30.3-67.6,67.6s30.3,67.6,67.6,67.6h36.1
			c37.3,0,67.6-30.3,67.6-67.6S250.5,60.5,213.2,60.5L213.2,60.5z"/>
	</g>
	<g>
		<g>
			<path style="fill:#00FFFF;" d="M167.2,111.4c6.2,2.8,10.6,9,10.6,16.3v11.2c0,9.9-8,17.9-17.9,17.9l0,0c-9.9,0-17.9-8-17.9-17.9
				v-11.2c0-1.4,0.2-2.7,0.4-4"/>
			<path style="fill:#0096C5;" d="M159.9,158.8c-11,0-19.9-8.9-19.9-19.9v-11.2c0-1.5,0.2-3,0.5-4.4l3.9,0.9
				c-0.3,1.2-0.4,2.3-0.4,3.5v11.2c0,8.7,7.1,15.8,15.8,15.8s15.8-7.1,15.8-15.8v-11.2c0-6.2-3.7-11.9-9.4-14.5l1.6-3.7
				c7.2,3.2,11.8,10.3,11.8,18.2v11.2C179.8,149.9,170.9,158.8,159.9,158.8z"/>
		</g>
		<g>
			<line style="fill:none;" x1="174.7" y1="106.2" x2="133.1" y2="129.4"/>
			
				<rect x="130.1" y="115.8" transform="matrix(0.8735 -0.4868 0.4868 0.8735 -37.8798 89.8206)" style="fill:#0096C5;" width="47.6" height="4"/>
		</g>
	</g>
	<g>
		<g>
			<path style="fill:#00FFFF;" d="M221,111.4c-6.2,2.8-10.6,9-10.6,16.3v11.2c0,9.9,8,17.9,17.9,17.9l0,0c9.9,0,17.9-8,17.9-17.9
				v-11.2c0-1.4-0.2-2.7-0.4-4"/>
			<path style="fill:#0096C5;" d="M228.3,158.8c11,0,19.9-8.9,19.9-19.9v-11.2c0-1.5-0.2-3-0.5-4.4l-3.9,0.9
				c0.3,1.2,0.4,2.3,0.4,3.5v11.2c0,8.7-7.1,15.8-15.8,15.8s-15.8-7.1-15.8-15.8v-11.2c0-6.2,3.7-11.9,9.4-14.5l-1.6-3.7
				c-7.2,3.2-11.8,10.3-11.8,18.2v11.2C208.4,149.9,217.3,158.8,228.3,158.8z"/>
		</g>
		<g>
			<line style="fill:none;" x1="213.6" y1="106.2" x2="255.1" y2="129.4"/>
			
				<rect x="232.4" y="94" transform="matrix(0.4868 -0.8735 0.8735 0.4868 17.4289 265.2209)" style="fill:#0096C5;" width="4" height="47.6"/>
		</g>
	</g>
</g>
<g>
	<path style="fill:#FFFFFF;" d="M139.2,155.8c1.4,0.6,2.8,1.4,4.4,1.5c1.9,0.1,3.7-0.9,5.4-1.8c13.5-6.9,30.8-5.6,43.2,3.2
		c7.4-5.3,15.7-9.7,24.7-10.8s18.8,1.4,24.9,8.1c13-9.7,38-3.8,38.9,14.5c0.3,6.8-3.2,13.6-8.9,17.3c3,5.6,4.6,12.2,2.8,18.3
		c-1.8,6.1-7.5,11.2-13.8,11c1.8,5.8,0.2,12.6-4,17c-4.2,4.4-10.9,6.3-16.8,4.7c1.2,5.6-1.6,11.7-6.6,14.5s-11.7,1.9-15.8-2
		c-3.5,8.4-11.6,13.2-20.6,13.1c-2.6,0-25.6-9.7-22.4-12.5c-10.1,8.9-26.9,3.9-24.1-11.4c-6.6,1.6-14.1-0.5-18.8-5.5
		c-4.7-4.9-6.5-12.5-4.6-19c-5.8,1.1-11.4-3.5-13.5-9c-0.8-2.2-3.5-22.6,3-21.6c-3.2-0.5-6.7-1.2-8.4-3.9c-0.6-1-0.9-2.2-1.1-3.4
		C103.9,158.2,121.4,147.7,139.2,155.8z"/>
	<path d="M197.3,266.3c-0.1,0-0.2,0-0.3,0c-2.2,0-18.7-6.4-23.4-11.2c-5.7,3.7-12.9,4.2-18.4,1.1c-4.7-2.7-7.2-7.5-7-13.3
		c-6.6,0.7-13.4-1.7-17.9-6.5c-4.6-4.8-6.7-11.7-5.7-18.2c-5.9-0.4-10.8-5.3-12.8-10.4c-0.7-1.8-2.8-15.3,0.1-21.3
		c-2-0.7-4-1.8-5.3-3.9c-0.8-1.3-1.2-2.8-1.4-4.1c-1.6-9.5,1.3-17.7,7.8-22.7c7.1-5.5,17.3-6.1,27.1-1.6l0,0l0.6,0.3
		c1.1,0.5,2.1,1,3,1c1.2,0.1,2.5-0.6,3.9-1.3l0.5-0.2c13.7-7,31.2-6,44.1,2.5c8.6-6,16.6-9.3,24.4-10.3c9.7-1.2,19.2,1.6,25.4,7.5
		c7.7-4.9,18.9-5.4,27.9-1.2c7.8,3.7,12.4,10.3,12.8,18.2c0.3,6.9-2.9,13.8-8.4,18c3,6.3,3.8,12.7,2.2,18.2
		c-1.9,6.4-7.3,11.3-13.2,12.3c1,5.9-0.9,12.2-5.1,16.5c-4.1,4.3-10.1,6.4-15.9,5.8c0.1,5.6-3,11.1-7.9,13.8c-5,2.8-11.3,2.4-16-0.7
		C214.2,261.8,206.3,266.3,197.3,266.3z M176.5,252.4c2.6,2.9,18.1,9.6,20.5,9.9c8.4,0,15.6-4.5,18.7-11.9c0.3-0.6,0.8-1.1,1.5-1.2
		c0.7-0.1,1.3,0.1,1.8,0.5c3.5,3.3,9.2,4.1,13.4,1.7c4.2-2.3,6.6-7.6,5.6-12.3c-0.2-0.7,0.1-1.4,0.6-1.9s1.2-0.7,1.9-0.5
		c5.2,1.4,11.1-0.3,14.8-4.2s5.1-9.9,3.5-15c-0.2-0.6-0.1-1.3,0.3-1.8s1-0.8,1.7-0.8c5.1,0.1,10.1-3.9,11.8-9.5
		c1.9-6.7-0.8-13.4-2.7-16.8c-0.5-0.9-0.2-2.1,0.7-2.7c5.1-3.2,8.3-9.5,8-15.5c-0.4-8.7-6.7-13-10.5-14.8
		c-8.2-3.9-18.6-3.2-25.2,1.8c-0.8,0.6-2,0.5-2.7-0.3c-5.2-5.7-14.1-8.6-23.1-7.4c-7.5,1-15.3,4.4-23.8,10.4c-0.7,0.5-1.6,0.5-2.3,0
		c-11.7-8.4-28.2-9.6-41.1-3.1l-0.5,0.2c-1.7,0.9-3.6,1.9-5.9,1.8c-1.7-0.1-3.2-0.8-4.6-1.4l-0.6-0.3c-8.4-3.8-17-3.4-23,1.1
		c-5.3,4.1-7.6,10.9-6.3,18.9c0.2,0.9,0.4,1.9,0.8,2.7c1.2,2,4.2,2.6,6.9,3l0,0c1.1,0.2,1.9,1.2,1.7,2.3c-0.2,1.1-1.2,1.8-2.3,1.7
		l0,0c-0.2,0-0.3,0-0.6,0.3c-2.5,3-1.1,16.4-0.3,18.6c1.7,4.5,6.4,8.6,11.2,7.8c0.7-0.1,1.4,0.1,1.9,0.6c0.5,0.5,0.6,1.2,0.4,1.9
		c-1.7,5.8-0.1,12.7,4.1,17c4.2,4.4,10.9,6.4,16.8,4.9c0.7-0.2,1.4,0,1.9,0.5s0.7,1.2,0.6,1.8c-1,5.4,0.7,9.6,4.7,11.9
		c4.8,2.7,11.4,1.7,16.1-2.4l0,0c0.8-0.7,2.1-0.6,2.8,0.2C176.6,251,176.8,251.8,176.5,252.4z"/>
</g>
<g>
	<g>
		<path style="fill:#DA0000;" d="M82.2,263.1c0.3,0.1,114.4,37.9,114.4,37.9v84.8c-3.5-0.9-11.2-6-13-6.7c-3.1-1.2-7-2.1-9.5-4.3
			c-2.2-1.9-4.1-4.4-6.2-6.4c-0.7-0.6-1.4-1.3-2.3-1.6c-4.5-1.6-9.5,0.9-14.1,0.2c-5.8-1-12-4.8-17.4-7c-6-2.5-10.3-5.7-15.4-9.7
			c-0.6-0.5-1.2-0.9-1.9-1.2c-0.6-0.2-1.2-0.2-1.9-0.2c-3.5,0-7.1,0.4-10.4-0.4c-3.6-0.9-7.2-2.5-10.6-4c-4.8-2.1-5.5-1.9-5.1-7.7
			c0.4-4.8,1.2-9.6,1-14.4c-0.2-4.5-6.2-7-6.8-11.5c-0.2-1.4,0.2-2.8,0.6-4.1c2.5-9.6,2.7-19.1,0.5-28.5
			C83.7,276.2,83.2,263.4,82.2,263.1z"/>
		<path d="M196.5,387.8c-0.2,0-0.3,0-0.5-0.1c-2.6-0.6-6.7-3-10-5c-1.4-0.8-2.8-1.6-3.2-1.8c-0.8-0.3-1.7-0.6-2.5-0.9
			c-2.5-0.9-5.4-1.8-7.6-3.7c-1.3-1.1-2.4-2.4-3.6-3.6c-0.9-1-1.8-1.9-2.7-2.8c-0.5-0.5-1.1-1-1.6-1.2c-2-0.7-4.4-0.4-6.9,0
			c-2.2,0.3-4.5,0.7-6.8,0.3c-4.3-0.7-8.6-2.8-12.7-4.8c-1.7-0.8-3.5-1.7-5.1-2.3c-6.1-2.5-10.4-5.7-15.9-10
			c-0.4-0.4-0.9-0.7-1.3-0.8c-0.3-0.1-0.8-0.1-1.3-0.1c-0.8,0-1.7,0-2.5,0.1c-2.8,0.1-5.6,0.2-8.4-0.5c-3.5-0.9-6.9-2.3-10.2-3.8
			l-1.7-0.7c-4.7-2-5.8-3.1-5.2-9.3c0.1-1.3,0.2-2.6,0.4-3.9c0.4-3.5,0.7-6.9,0.6-10.3c-0.1-1.6-1.4-3-2.8-4.6
			c-1.7-1.8-3.6-3.9-3.9-6.7c-0.2-1.7,0.2-3.2,0.6-4.6c2.5-9.8,2.7-19,0.5-27.8c-0.2-0.8-0.3-2.5-0.6-5.5c-0.2-2.7-0.6-7.5-1-8.9
			c-0.4-0.5-0.6-1.2-0.4-1.9c0.3-1.1,1.5-1.6,2.5-1.3l0,0l0,0l0,0c1.4,0.5,109.7,36.4,114.4,37.9c0.8,0.3,1.4,1,1.4,1.9v84.7
			c0,0.6-0.3,1.2-0.8,1.6C197.4,387.7,197,387.8,196.5,387.8z M162.1,364.1c1.4,0,2.7,0.2,4.1,0.7c1.3,0.5,2.3,1.4,3,2.1
			c1,1,2,2,2.9,3c1.1,1.2,2.1,2.4,3.2,3.3c1.5,1.4,3.9,2.2,6.2,3c0.9,0.3,1.9,0.6,2.8,1c0.7,0.3,1.8,0.9,3.8,2.1
			c1.9,1.1,4.4,2.6,6.4,3.6v-80.4c-11.5-3.8-91.7-30.4-109.5-36.3c0.2,1.6,0.4,3.8,0.6,6.8c0.2,2,0.3,4.3,0.5,4.8
			c2.3,9.5,2.1,19.4-0.5,29.5c-0.4,1.4-0.6,2.5-0.5,3.4c0.2,1.5,1.5,3,2.9,4.5c1.8,1.9,3.8,4.1,3.9,7.2c0.2,3.7-0.2,7.3-0.6,10.9
			c-0.1,1.3-0.3,2.5-0.4,3.8c-0.3,3.9-0.3,3.9,2.8,5.3l1.8,0.8c3.1,1.4,6.4,2.8,9.5,3.6c2.3,0.6,4.7,0.5,7.3,0.4
			c1,0,1.8-0.1,2.9-0.1c0.7,0,1.4,0,2.2,0.3c1.1,0.3,1.9,1,2.6,1.5c5.3,4.2,9.3,7.1,14.9,9.4c1.7,0.7,3.5,1.6,5.3,2.4
			c3.9,1.9,7.9,3.8,11.6,4.4c1.7,0.3,3.6,0,5.6-0.3C158.9,364.4,160.5,364.1,162.1,364.1z M81.5,265L81.5,265L81.5,265z"/>
	</g>
	<g>
		<path style="fill:#B60000;" d="M196.5,300.9c14.1-6.6,28.2-13.5,42.3-20.3c20.2-9.7,40.7-19.1,60.7-29.2
			c-1.1,0.6,0.4,10.2,0.3,11.3c-0.4,6.5-3.8,13.4-7.4,18.7c-0.6,0.8-1.2,1.7-1.3,2.7c-0.1,1.2,0.5,2.4,1.1,3.4
			c1.1,1.9,2.2,3.8,3.3,5.6c1.4,2.5,3,5.2,2.4,8c-0.5,2.6-3,5-2.9,7.8c0.1,2.9,3,4.4,3.9,7c1.5,4.2,0.4,10.3,0.4,14.9
			c0,0.5-8.3,4.8-9.2,5.1c-2.8,0.9-6.1,0.2-9.1,1c-4,1.2-4.6,3.6-7,6.3c-2.5,2.9-6,4.3-9.4,6.1c-7.7,4.1-15.3,8.2-23,12.3
			c-4.1,2.2-8.9,5.9-13.5,7.1c-5.3,1.4-8.9,1.4-13.8,4.9c-4,2.8-7.8,5.7-11.8,8.4c-0.6,0.4-6.3,3.4-6.3,3.8c0-3.8,0-7.7,0-11.5
			c0-5.4,1.2-13.1-0.7-18.2c-1-2.8-2.8-5.2-4.4-7.6c-0.8-1.2-1.7-2.6-1.8-4c-0.1-1.3,0.4-2.6,0.9-3.8c1.6-3.9,3.2-7.9,4.7-11.8
			c0.8-1.9,1.5-4.1,0.4-5.8c-0.5-0.8-1.3-1.4-1.7-2.3s-0.2-1.8-0.1-2.8C194.6,312.7,197,306.2,196.5,300.9z"/>
		<path d="M196.5,387.8c-1.1,0-2-0.9-2-2v-11.5c0-1.5,0.1-3.1,0.2-4.8c0.2-4.4,0.5-9.4-0.7-12.7c-0.8-2.2-2.2-4.2-3.7-6.4l-0.5-0.8
			c-1-1.5-2-3.1-2.2-5c-0.1-1.8,0.5-3.4,1-4.7l4.7-11.8c0.6-1.5,1.1-3.1,0.6-4c-0.2-0.2-0.4-0.4-0.6-0.7c-0.4-0.5-1-1-1.3-1.8
			c-0.6-1.4-0.4-2.9-0.3-3.9c0.3-1.9,0.7-3.8,1.2-5.8c0.9-3.7,1.8-7.5,1.5-10.7c-0.1-0.8,0.4-1.6,1.2-2c9.5-4.5,19.2-9.1,28.5-13.7
			c4.6-2.2,9.1-4.4,13.7-6.6c6.7-3.2,13.5-6.4,20.2-9.6c13.3-6.3,27.1-12.8,40.4-19.5l0,0c1-0.5,2.2-0.1,2.7,0.9
			c0.3,0.7,0.3,1.5-0.2,2.1c-0.2,1.3,0.3,5.4,0.5,7.2c0.2,1.8,0.3,2.6,0.2,3.1c-0.5,7.4-4.5,14.8-7.7,19.7c-0.5,0.7-0.9,1.3-0.9,1.8
			c-0.1,0.6,0.4,1.4,0.9,2.2l3.3,5.6c1.3,2.3,3.4,5.7,2.7,9.4c-0.3,1.5-1,2.7-1.6,3.9c-0.7,1.2-1.3,2.4-1.3,3.4s0.6,1.7,1.6,2.9
			c0.8,0.9,1.7,2,2.2,3.4c1.2,3.4,1,7.7,0.7,11.4c-0.1,1.4-0.2,2.8-0.2,4.1c0,2.7-10.5,6.9-10.7,7c-1.7,0.5-3.4,0.6-5,0.6
			c-1.4,0-2.8,0.1-4,0.4c-2.2,0.7-3,1.7-4.2,3.4c-0.5,0.7-1.1,1.5-1.8,2.3c-2.3,2.6-5.2,4.1-8.1,5.5c-0.6,0.3-1.3,0.6-1.9,1
			l-23,12.3c-1.3,0.7-2.6,1.5-4,2.4c-3.2,2-6.5,4-9.9,4.9c-1.3,0.4-2.5,0.6-3.7,0.9c-3.4,0.7-6.1,1.3-9.4,3.7
			c-2,1.4-3.9,2.8-5.9,4.2c-2,1.4-3.9,2.9-5.9,4.2c-0.2,0.1-1,0.6-2,1.1c-1.1,0.6-3.3,1.8-4,2.3
			C197.7,387.5,197.2,387.8,196.5,387.8z M198.6,302.2c0,3.4-0.8,7-1.6,10.5c-0.5,2-0.9,3.8-1.1,5.5c-0.1,0.6-0.2,1.3,0,1.7
			c0.1,0.2,0.3,0.5,0.6,0.8c0.4,0.4,0.7,0.8,1,1.3c1.7,2.8,0.4,6.1-0.3,7.6l-4.7,11.8c-0.4,0.9-0.8,2-0.7,2.9c0.1,1,0.7,2,1.5,3
			l0.5,0.7c1.6,2.2,3.2,4.6,4.2,7.3c1.5,4.1,1.2,9.5,1,14.3c-0.1,1.6-0.2,3.2-0.2,4.6v7.9c0.5-0.3,1-0.6,1.6-0.9
			c0.8-0.4,1.4-0.7,1.6-0.9c1.9-1.4,3.9-2.8,5.8-4.2c2-1.4,3.9-2.8,5.9-4.2c4-2.8,7.4-3.6,10.9-4.3c1.1-0.2,2.3-0.5,3.5-0.8
			c2.8-0.7,5.9-2.6,8.8-4.5c1.5-0.9,2.9-1.8,4.2-2.5l23-12.3c0.6-0.3,1.3-0.7,2-1c2.6-1.3,5.1-2.6,6.9-4.6c0.6-0.7,1.1-1.3,1.5-2
			c1.4-1.9,2.8-3.9,6.4-4.9c1.7-0.5,3.4-0.6,5.1-0.6c1.4,0,2.8-0.1,3.9-0.4c0.9-0.3,6-3,7.8-4.1c0-1.1,0.1-2.2,0.2-3.4
			c0.2-3.5,0.5-7.2-0.5-9.8c-0.3-0.8-0.9-1.5-1.5-2.2c-1.1-1.3-2.4-2.9-2.5-5.3c-0.1-2.1,0.9-3.9,1.7-5.5c0.5-1,1-1.9,1.2-2.7
			c0.4-2-0.8-4.3-2.2-6.6l-3.3-5.6c-0.6-1.1-1.6-2.7-1.4-4.6c0.1-1.5,0.9-2.6,1.5-3.6c4.3-6.4,6.8-12.7,7.1-17.8
			c0-0.3-0.1-1.2-0.2-2.4c-0.2-2.2-0.4-4-0.5-5.4c-12.4,6.2-25,12.1-37.3,17.9c-6.7,3.2-13.5,6.4-20.2,9.6
			c-4.6,2.2-9.1,4.4-13.7,6.6C217,293.4,207.8,297.9,198.6,302.2z"/>
	</g>
	<g>
		<path style="fill:#E20000;" d="M82.2,263.1c2.5-1.1,11.6,4,13.6,5.6c2.2,1.8,3.4,4.2,6.3,5.1c4.4,1.4,8.9,0.8,13.4,1.1
			c4.7,0.3,9.2,2.2,13.6,3.7c9.3,3.1,18.5,6.4,27.8,9.2c6.5,2,11.9,7.3,18.7,8.1c7.4,0.8,13.7,2.7,21,5.1c0.5,0.2,3.2-1.3,4.1-1.5
			c3.1-0.6,6.8,0,10,0c1.1,0,2.3,0,3.3-0.5c1.1-0.6,1.8-1.6,2.5-2.5c3.3-4.4,8-7.9,13.2-9.8c3.9-1.4,5.9-4.1,9.5-6
			c4-2.2,8.3-4,12.4-6c4-1.9,8.2-4.7,12.4-6.1c4.1-1.3,9.1-0.7,13.5-0.7c-0.5,0,4-7.2,4.8-7.9c3-2.3,7.3-3.6,10.7-5.3
			c1-0.5,5.7-3.6,6.7-3.2c-6.2-2.1-12.4-4.2-18.5-6.2c-2.8-0.9-5-1.5-7.7-1.6c-2.4-0.1-4,0.4-6.4-0.8c-4.8-2.5-8-5.1-13.3-6.8
			c-5.5-1.9-11.1-3.7-16.6-5.6c-4.8-1.6-9.6-3.2-14.3-4.8c-2.1-0.7-4.5-1.9-6.7-2.1c-2.3-0.2-4.4,1.1-6.9,0.3
			c-2.3-0.7-2.5-2.8-4.2-4c-1.6-1.1-4.1-1.5-6-2.2c-1.1-0.4-5.8-2.8-6.9-2.3c-7.2,3.1-12.7,5.3-18.5,10.5c-0.5,0.5-1,0.9-1.7,1.2
			c-0.6,0.2-1.2,0.2-1.8,0.2c-10.8,0-21.7,7.1-31.5,11.4c-8.2,3.6-16.9,6-22.8,13c-1.2,1.5-2.4,3.1-4.2,3.7c-1,0.3-2,0.3-3,0.3
			c-7.6,0-11.6,1.1-18.5,4.1C87.4,260.8,84.8,261.9,82.2,263.1z"/>
		<path d="M196.6,303c-0.3,0-0.5,0-0.7-0.1c-7.8-2.6-13.7-4.2-20.6-5c-4.3-0.5-8-2.6-11.6-4.6c-2.5-1.4-4.9-2.8-7.4-3.5
			c-6.3-1.9-12.6-4-18.7-6.1c-3.1-1.1-6.2-2.1-9.2-3.1c-0.9-0.3-1.8-0.6-2.7-0.9c-3.6-1.2-6.9-2.4-10.5-2.7
			c-1.4-0.1-2.7-0.1-4.1-0.1c-3.2,0-6.4-0.1-9.7-1.1c-2.4-0.8-3.9-2.3-5.2-3.7c-0.6-0.6-1.1-1.2-1.8-1.7c-2.3-1.9-9.8-5.7-11.5-5.3
			c-1,0.4-2.2,0-2.6-1.1c-0.4-1,0.1-2.2,1.1-2.7l7.9-3.4c6.7-2.9,11.1-4.2,19-4.2c0.2,0,0.5,0,0.7,0c0.7,0,1.4,0,2-0.2
			c1.1-0.4,2-1.5,3-2.6l0.4-0.5c5.1-6.1,12.2-8.9,19-11.7c1.5-0.6,3.1-1.2,4.6-1.9c2.4-1.1,4.9-2.3,7.5-3.6c8-4,16.3-8,24.9-8
			c0.5,0,0.9,0,1.1-0.1c0.3-0.1,0.6-0.4,1-0.8c5.6-5,10.8-7.3,17.4-10.1l1.6-0.7c1.4-0.6,3.2,0,7.1,1.7c0.6,0.2,1,0.4,1.2,0.5
			c0.5,0.2,1.1,0.3,1.6,0.5c1.6,0.4,3.4,0.9,4.8,1.9c1,0.7,1.6,1.6,2.1,2.3c0.6,0.8,0.9,1.2,1.5,1.5c1,0.3,1.9,0.2,3.1-0.1
			c1-0.2,2.1-0.4,3.3-0.3c1.9,0.2,3.8,0.9,5.4,1.5c0.6,0.2,1.2,0.5,1.7,0.6l30.9,10.4c3.7,1.2,6.3,2.8,9.1,4.4
			c1.4,0.8,2.8,1.7,4.5,2.5c1.3,0.7,2.2,0.6,3.7,0.6c0.6,0,1.2,0,1.8,0c2.9,0.1,5.2,0.7,8.3,1.7l18.5,6.2c1.1,0.4,1.6,1.5,1.3,2.5
			c-0.3,0.9-1.2,1.5-2.1,1.4c-0.9,0.2-3.2,1.7-4.2,2.2c-0.7,0.4-1.2,0.7-1.5,0.8c-1.1,0.5-2.3,1-3.5,1.5c-2.5,1-5,2.1-6.9,3.5
			c-0.6,0.6-3.4,5.1-4,6.5c-0.1,1.1-1.1,1.8-2.1,1.8c-1.1,0-2.2,0-3.3-0.1c-3.3-0.1-6.7-0.2-9.4,0.7c-2.5,0.8-5.2,2.3-7.8,3.7
			c-1.5,0.8-2.9,1.6-4.3,2.3c-1.4,0.7-2.8,1.3-4.2,2c-2.7,1.3-5.5,2.5-8.1,4c-1.3,0.7-2.5,1.6-3.7,2.5c-1.7,1.3-3.6,2.7-6.1,3.6
			c-4.8,1.8-9.2,5-12.3,9.2l-0.2,0.3c-0.7,1-1.6,2.1-2.9,2.9c-1.5,0.8-3.1,0.8-4.3,0.8c-1,0.1-2.2-0.1-3.4-0.1
			c-2.2-0.1-4.4-0.2-6.3,0.1c-0.3,0.1-0.8,0.3-1.3,0.5C198.3,302.6,197.5,303,196.6,303z M196.4,299L196.4,299L196.4,299z
			 M88.7,262.4c4,1.7,7.8,4.3,8.3,4.7c0.8,0.7,1.5,1.4,2.1,2.1c1.1,1.2,2.1,2.2,3.5,2.6c2.7,0.8,5.6,0.9,8.6,0.9
			c1.5,0,2.9,0,4.4,0.1c4.1,0.3,7.8,1.6,11.5,2.9c0.9,0.3,1.7,0.6,2.6,0.9c3.1,1,6.2,2.1,9.3,3.1c6.1,2.1,12.3,4.2,18.5,6.1
			c3,0.9,5.6,2.4,8.2,3.9c3.4,1.9,6.6,3.7,10.1,4.1c7.1,0.8,13.3,2.5,21,5c0.4-0.1,0.8-0.4,1.3-0.6c1-0.4,1.7-0.7,2.2-0.8
			c2.3-0.4,4.8-0.3,7.2-0.2c1.1,0.1,2.1,0.1,3.1,0.1l0,0c0.8,0,1.8,0,2.4-0.3c0.5-0.3,1-1,1.6-1.7l0.2-0.3
			c3.6-4.7,8.6-8.5,14.1-10.5c1.9-0.7,3.4-1.9,5-3.1c1.3-1,2.6-2,4.2-2.8c2.7-1.5,5.6-2.8,8.3-4.1c1.4-0.6,2.8-1.3,4.1-1.9
			c1.4-0.7,2.8-1.4,4.2-2.2c2.7-1.5,5.6-3,8.5-4c3.4-1.1,7.2-1,10.8-0.9c0.7,0,1.3,0,2,0.1c1.4-3.1,4.6-7.2,4.9-7.4
			c2.2-1.7,5.1-2.9,7.8-4c1.1-0.5,2.3-0.9,3.3-1.4c0.2-0.1,0.6-0.4,1.2-0.7c0.3-0.2,0.6-0.3,0.9-0.5l-13.6-4.6
			c-2.8-0.9-4.7-1.4-7.1-1.5c-0.6,0-1.1,0-1.6,0c-1.7,0-3.4,0.1-5.6-1c-1.7-0.9-3.2-1.7-4.7-2.6c-2.6-1.5-5.1-3-8.4-4.1l-30.9-10.4
			c-0.6-0.2-1.3-0.5-1.9-0.7c-1.5-0.6-3-1.2-4.3-1.3c-0.7-0.1-1.4,0.1-2.3,0.2c-1.4,0.2-3.1,0.6-5.1-0.1c-2-0.6-3-2-3.6-3
			c-0.4-0.5-0.7-1-1.1-1.3c-0.9-0.6-2.3-1-3.6-1.4c-0.6-0.2-1.3-0.3-1.9-0.5c-0.3-0.1-0.9-0.4-1.6-0.7c-0.9-0.4-3.2-1.4-4.1-1.6
			l-1.3,0.6c-6.2,2.7-11.2,4.8-16.3,9.4c-0.6,0.5-1.3,1.2-2.3,1.5c-0.9,0.3-1.8,0.3-2.6,0.3c-7.6,0-15.4,3.9-23,7.6
			c-2.6,1.3-5.2,2.6-7.7,3.7c-1.6,0.7-3.1,1.3-4.7,1.9c-6.6,2.7-12.9,5.2-17.4,10.6L117,253c-1.2,1.5-2.6,3.1-4.8,3.9
			c-1.3,0.4-2.6,0.4-3.7,0.4c-7.4,0-11,1-17.7,3.9L88.7,262.4z M299.4,253.4L299.4,253.4z"/>
	</g>
	<g>
		<path style="fill:#008805;" d="M124.1,277c6.1-3,11.9-5.5,17.1-9.7c0.6-0.5,1.2-0.9,1.8-1.2c0.5-0.2,1.1-0.3,1.7-0.5
			c8.6-1.7,15.7-6,23.6-9.8c8.1-3.9,16.2-7.7,24.3-11.6c2.9-1.4,5.9-2.8,8.8-4.2c3.1-1.5,5.2-1.3,8.7-1.2c0.4,0,0.8,0,1.2-0.2
			c0.5-0.2,0.9-0.8,1.2-1.3c3.3-4.8,8.6-6.8,13.7-9.2c0.6-0.3,1.1-0.5,1.7-0.8l27.3,9.2c-0.1-0.1-0.8,0.4-0.9,0.4
			c-10.9,5-21.8,10-32.6,15c-8.4,3.8-16.7,7.7-25.1,11.5c-8.4,3.9-17.3,8.4-26.8,8.6c-0.8,0-1.6,0-2.3,0.4c-0.5,0.2-0.8,0.6-1.2,1
			c-3.4,3.4-6.2,6.9-10.6,8.9c-0.5,0.2-6.4,2.4-6.4,3c-0.1,6.8-1.6,10.8-4.3,16.9c-0.4,0.8-0.7,1.7-0.6,2.6c0,0.7,0.3,1.4,0.6,2.1
			c1.3,2.9,3.5,6.1,3.9,9.1c0.7,4.3-1.8,8.4-1.8,12.5c-0.6,2.1-1.2,4.2-1.1,6.3c0.1,1.8,0.8,3.5,1.2,5.2c1.3,5.4,0.7,11.4,0.6,16.9
			c0,0.6-0.6,8.3-0.2,8.5c-6.3-2.6-14.7-4.5-20-8.6c-3-2.3-4-6-4.2-9.6c-0.2-4.1,2.2-7.2,2.6-11.1c0.1-1.2-0.2-2.4-0.5-3.6
			c-0.6-2.6-1.3-5.2-1.9-7.8c-0.2-0.9-0.5-1.9-0.3-2.9c0.3-2,2.2-3.8,3-5.7c0.9-2.4,1.9-5.4,1.2-7.9c-0.5-1.9-2.3-3.5-3-5.4
			c-0.9-2.4-0.4-5.5-0.4-8.1C124.1,292.8,123,277.5,124.1,277z"/>
		<path d="M147.7,367.5c-0.3,0-0.5,0-0.8-0.2l0,0l0,0l0,0l0,0c-1.9-0.8-3.9-1.5-6.1-2.2c-5.1-1.8-10.4-3.6-14.4-6.6
			c-3-2.3-4.7-6.1-5-11.1c-0.1-2.7,0.7-5,1.4-7c0.5-1.5,1-2.9,1.2-4.3c0.1-0.9-0.2-2-0.4-3l-1.9-7.8c-0.3-1-0.6-2.3-0.3-3.7
			c0.3-1.6,1.1-2.9,1.9-4.1c0.5-0.7,0.9-1.4,1.2-2c0.8-2.1,1.7-4.8,1.2-6.7c-0.2-0.7-0.7-1.4-1.2-2.2c-0.6-0.9-1.3-1.8-1.7-3
			c-0.8-2.2-0.7-4.7-0.6-6.8c0-0.7,0.1-1.3,0.1-1.9c0-0.4-0.1-1.5-0.1-2.9c-0.8-15-0.3-15.9,1.3-16.7l2.5-1.2
			c5.1-2.4,9.9-4.8,14.2-8.3c0.6-0.5,1.4-1.1,2.3-1.5c0.7-0.3,1.5-0.5,2.1-0.6c6.4-1.2,12-4.1,17.9-7c1.7-0.9,3.4-1.7,5.2-2.6
			l27.4-13.1c1.9-0.9,3.8-1.8,5.7-2.7c3.2-1.5,5.5-1.5,8.5-1.4h1.1c0.1,0,0.4,0,0.4,0l0,0c-0.1,0,0.1-0.3,0.2-0.4
			c3.2-4.7,7.9-6.9,12.5-9l3.7-1.8c0.5-0.2,1-0.3,1.5-0.1l27.3,9.2l0,0l0,0c1.1,0.4,1.6,1.5,1.3,2.5c-0.2,0.7-0.8,1.2-1.5,1.3
			c-0.1,0-0.1,0.1-0.2,0.1c0,0-0.3,0.1-0.3,0.2l-59.9,27.5c-8,3.7-16.3,7.6-25.4,7.8c-0.7,0-1.2,0-1.5,0.2c-0.2,0.1-0.5,0.4-0.7,0.6
			c-0.6,0.6-1.2,1.3-1.8,1.9c-2.7,2.8-5.5,5.7-9.4,7.4l-0.7,0.3c-2.5,1-3.9,1.6-4.5,1.9c-0.3,6.8-1.9,11.1-4.4,16.7
			c-0.3,0.6-0.5,1.2-0.5,1.6s0.3,0.9,0.5,1.4c0.4,0.9,0.9,1.8,1.3,2.7c1.2,2.2,2.4,4.5,2.8,6.9c0.5,2.8-0.2,5.4-0.9,8
			c-0.4,1.7-0.9,3.4-0.9,4.9c0,0.2,0,0.4-0.1,0.6c-0.6,1.9-1.1,3.8-1,5.6c0.1,1,0.4,2.1,0.7,3.2c0.2,0.6,0.3,1.2,0.5,1.7
			c1.1,4.5,0.9,9.3,0.7,13.9c0,1.2-0.1,2.4-0.1,3.5c0,0.1,0,0.6-0.1,1.2c-0.2,3.6-0.3,5.7-0.3,6.5c0.2,0.5,0.2,1,0,1.6
			C149.2,367.1,148.4,367.5,147.7,367.5z M125.7,278.4c-0.3,2.4,0.1,10.1,0.3,13.2c0.1,1.5,0.1,2.7,0.1,3.1c0,0.7,0,1.4-0.1,2.1
			c-0.1,1.9-0.2,3.9,0.4,5.3c0.2,0.7,0.7,1.4,1.2,2.1c0.7,1,1.5,2.1,1.8,3.5c0.8,3-0.2,6.3-1.3,9.1c-0.4,1-1,1.9-1.6,2.8
			s-1.2,1.8-1.3,2.6c-0.1,0.6,0.1,1.3,0.3,2.1l1.9,7.8c0.3,1.3,0.7,2.7,0.5,4.3c-0.2,2-0.8,3.7-1.4,5.3c-0.7,1.8-1.3,3.6-1.2,5.4
			c0.2,3.8,1.3,6.5,3.4,8.1c3.5,2.7,8.4,4.4,13.3,6c1.1,0.4,2.3,0.8,3.3,1.2c0-1.2,0.1-2.7,0.3-4.6c0-0.5,0.1-0.9,0.1-1
			c0-1.2,0.1-2.4,0.1-3.6c0.2-4.3,0.3-8.8-0.6-12.8c-0.1-0.5-0.3-1-0.4-1.6c-0.4-1.3-0.7-2.6-0.8-4c-0.2-2.4,0.5-4.7,1.1-6.8
			c0-1.9,0.5-3.8,1-5.6c0.6-2.2,1.1-4.3,0.8-6.3c-0.3-1.8-1.3-3.8-2.3-5.7c-0.5-1-1-2-1.5-2.9c-0.3-0.7-0.7-1.7-0.8-2.8
			c-0.1-1.3,0.3-2.5,0.8-3.5c2.8-6.4,4-10,4.1-16.2c0-1.6,1.2-2.2,7.1-4.5l0.6-0.2c3.2-1.4,5.6-3.9,8.1-6.5c0.6-0.6,1.2-1.3,1.9-1.9
			c0.4-0.4,1-1,1.7-1.4c1.1-0.5,2.1-0.6,3-0.6c8.4-0.2,16.4-3.9,24-7.5l56.2-25.8l-21.8-7.3l-3.1,1.4c-4.2,2-8.3,3.8-10.8,7.5
			c-0.5,0.7-1,1.5-2.1,2c-0.8,0.3-1.5,0.3-2,0.3h-1.1c-2.7,0-4.3-0.1-6.7,1.1c-1.9,0.9-3.8,1.8-5.7,2.7l-27.4,13.1
			c-1.7,0.8-3.5,1.7-5.1,2.6c-6.1,3.1-12,6.1-18.9,7.4c-0.5,0.1-0.9,0.2-1.3,0.3c-0.4,0.2-0.9,0.6-1.4,0.9c-4.7,3.8-9.7,6.2-15,8.8
			L125.7,278.4z M125,278.8L125,278.8L125,278.8z M124.1,277L124.1,277L124.1,277z"/>
	</g>
	<g>
		<path style="fill:#008805;" d="M134.1,240.5c0.7-0.3,3.7,1.3,4.3,1.6c3.3,1.2,6.6,2.6,10.1,3.3c6.8,1.3,13.3,4.2,20.2,4.9
			c1.9,0.2,3.8,0.2,5.6,0.9c4.4,1.7,6.8,6.7,11.1,8.6c2.1,0.9,4.4,0.9,6.7,1.2c11.1,1.1,20,7.9,30.2,11.7c6.3,2.3,12.7,4.6,19,6.9
			c-0.6-0.2,2.7,9.7,3,10.3c0.4,0.9,0.8,1.8,0.8,2.8c0,2.9-2.6,6.1-3.1,9.1c-0.8,4.9-1.6,11.7,0,16.5c0.4,1.4,1.1,2.6,1.5,4
			c1.6,5.7-2,10.6-2.1,16.2c-0.2,7.8,0,15.7,0,23.5l23.3-12.4c1.9-1-1.2-10.2-1.9-11.6c-3.4-6.7,0.1-9.6,0.7-16.6
			c0.4-4.4-2.2-8.4-4.3-12.3c-0.9-1.8-1.8-3.8-1.5-5.8c0.2-1.4,1-2.6,1.7-3.8c3-5.7,3.3-12.4,3.6-18.7c0-0.7,0.3-11.2-0.3-11.3
			c-5.5-1.8-11-3.6-16.6-5.4c-4.9-1.6-10.2-2.7-14.4-5.5c-4.2-2.9-8.1-5.2-13.3-6c-3.6-0.5-7.3-0.3-10.9-1
			c-5.5-1.2-10.3-4.6-15.2-7.5c-4.1-2.4-8.9-5-13.8-4.7c-4,0.2-6.3,0.7-10.4-0.6c-4.2-1.3-8.4-2.7-12.7-4.1
			c-0.7-0.2-3.5-1.7-4.2-1.4C151,233.1,134.1,240.5,134.1,240.5z"/>
		<path d="M241.3,363.9c-0.4,0-0.7-0.1-1-0.3c-0.6-0.4-1-1-1-1.7c0-2.6,0-5.2,0-7.8c0-5.2-0.1-10.5,0-15.8c0.1-2.5,0.7-4.8,1.4-7
			c0.8-3,1.6-5.7,0.9-8.6c-0.2-0.7-0.5-1.4-0.7-2s-0.5-1.3-0.7-1.9c-1.3-4.1-1.3-10,0-17.5c0.3-1.6,1-3.1,1.7-4.6s1.4-3,1.4-4.1
			c0-0.6-0.3-1.3-0.6-2c0-0.1-2.5-5.9-3-9.7l-17.9-6.5c-3.8-1.4-7.3-3.1-10.8-4.9c-6.2-3.1-12.1-6-18.9-6.7h-1.4
			c-2-0.2-4.1-0.3-6.1-1.2c-2.5-1.1-4.3-2.9-6.1-4.7c-1.6-1.6-3.1-3.2-5-3.9c-1.2-0.5-2.6-0.6-4.1-0.7l-1-0.1
			c-4.3-0.4-8.3-1.6-12.3-2.8c-2.7-0.8-5.4-1.6-8.1-2.1c-3-0.6-5.7-1.6-8.4-2.6l-1.9-0.7c-0.2-0.1-0.6-0.2-1-0.4
			c-0.5-0.2-1.8-0.8-2.3-1c-0.8,0.1-1.7-0.3-2.1-1.1c-0.5-1-0.1-2.2,0.9-2.7c0,0,0,0,0.1,0l0,0h0.1c1.9-0.8,16.8-7.3,16.9-7.4
			c1.1-0.5,2.4,0,4.9,1c0.3,0.1,0.6,0.2,0.7,0.3l4.4,1.4c2.8,0.9,5.5,1.8,8.3,2.7c3.1,1,4.9,0.9,7.9,0.6l1.8-0.1
			c5.4-0.4,10.3,2.2,14.9,5c0.8,0.5,1.7,1,2.5,1.5c4,2.5,7.8,4.8,12.1,5.7c1.9,0.4,3.8,0.5,5.8,0.6c1.6,0.1,3.3,0.2,4.9,0.4
			c5.6,0.8,9.7,3.3,14.1,6.3c3,2,6.8,3.1,10.5,4.2c1.1,0.3,2.3,0.7,3.4,1l16.6,5.4c1.3,0.4,2.2,0.7,1.7,13.3
			c-0.2,6.3-0.5,13.4-3.8,19.6l-0.3,0.6c-0.5,0.9-1,1.8-1.1,2.6c-0.2,1.4,0.5,3,1.3,4.5l0.8,1.4c1.9,3.5,4.1,7.5,3.7,12
			c-0.2,2.5-0.8,4.5-1.3,6.3c-0.9,3.3-1.5,5.5,0.4,9.2c0.1,0.1,5.3,12.1,1.1,14.3l-23.3,12.4C241.9,363.8,241.6,363.9,241.3,363.9z
			 M243.2,279.8c0.4,1.8,2.5,8.2,2.9,9.1c0.4,1,1,2.2,1,3.6c0,2.1-0.9,4-1.8,5.9c-0.6,1.3-1.2,2.5-1.4,3.6
			c-1.2,6.7-1.2,12.1-0.1,15.6c0.2,0.6,0.4,1.1,0.6,1.6c0.3,0.8,0.6,1.6,0.9,2.5c1.1,4,0.1,7.4-0.9,10.8c-0.6,2.1-1.1,4-1.2,6
			c-0.1,5.2-0.1,10.5,0,15.6c0,1.5,0,3,0,4.5l19.9-10.6c0.2-1.8-1.6-7.8-2.3-9.2c-2.6-5.1-1.7-8.5-0.7-12.1c0.5-1.7,1-3.4,1.2-5.6
			c0.3-3.2-1.4-6.4-3.2-9.7l-0.8-1.5c-1.1-2.1-2.1-4.5-1.7-7c0.2-1.5,0.9-2.8,1.6-3.9l0.3-0.6c2.8-5.3,3.1-12,3.3-17.9
			c0.1-1.4,0.1-7.3,0-9.7l-15.5-5c-1.1-0.4-2.2-0.7-3.3-1c-4-1.2-8.1-2.4-11.6-4.8c-4.1-2.8-7.6-5-12.4-5.7c-1.5-0.2-3-0.3-4.6-0.4
			c-2.1-0.1-4.3-0.2-6.4-0.7c-5-1-9.2-3.7-13.4-6.2c-0.8-0.5-1.6-1-2.4-1.5c-4-2.4-8.4-4.6-12.6-4.4l-1.8,0.1
			c-3.1,0.2-5.6,0.4-9.4-0.8c-2.8-0.9-5.5-1.8-8.3-2.7l-4.4-1.4c-0.2-0.1-0.6-0.2-1.1-0.4s-1.6-0.7-2.1-0.8
			c-1.6,0.7-7.6,3.3-11.9,5.2l1.5,0.6c2.7,1,5.2,1.9,7.8,2.5c2.9,0.6,5.7,1.4,8.5,2.2c3.9,1.2,7.6,2.3,11.5,2.6l0.9,0.1
			c1.7,0.1,3.5,0.3,5.2,1c2.7,1,4.6,2.9,6.4,4.8c1.5,1.6,3,3.1,4.8,3.8c1.4,0.6,3.1,0.8,4.9,0.9l1.2,0.1c7.5,0.7,14,4,20.3,7.1
			c3.4,1.7,6.8,3.4,10.4,4.7l19,6.9l0,0C242.9,277.9,243.4,278.9,243.2,279.8z M240.6,281.3L240.6,281.3z M134.2,242.4L134.2,242.4
			L134.2,242.4z M134.9,242.3L134.9,242.3L134.9,242.3z M151.2,235.1L151.2,235.1L151.2,235.1z M151.9,235
			C151.9,235,151.8,235,151.9,235C151.8,235,151.9,235,151.9,235z"/>
	</g>
	<g>
		<line style="fill:none;" x1="246.2" y1="277.3" x2="255.2" y2="272.7"/>
		<path d="M246.2,279.3c-0.7,0-1.4-0.4-1.8-1.1c-0.5-1-0.1-2.2,0.9-2.7l9-4.6c1-0.5,2.2-0.1,2.7,0.9s0.1,2.2-0.9,2.7l-9,4.6
			C246.9,279.3,246.6,279.3,246.2,279.3z"/>
	</g>
	<g>
		<line style="fill:none;" x1="129.1" y1="278.6" x2="143.1" y2="283.2"/>
		<path d="M143.1,285.3c-0.2,0-0.4,0-0.6-0.1l-13.9-4.6c-1.1-0.3-1.6-1.5-1.3-2.5c0.3-1.1,1.5-1.6,2.5-1.3l13.9,4.6
			c1.1,0.3,1.6,1.5,1.3,2.5C144.7,284.7,143.9,285.3,143.1,285.3z"/>
	</g>
	<path d="M171.2,341.7c-0.9,0-1.7-0.6-1.9-1.5l-1.3-4.6c-0.1-0.5-0.3-1.2-0.3-2c0.1-0.8,0.4-1.5,0.6-2l2.1-4.5
		c0.1-0.1,0.1-0.3,0.2-0.4c0,0.1-0.1-0.2-0.2-0.3l-1.3-2.5c-0.5-1-0.1-2.2,0.9-2.7s2.2-0.1,2.7,0.9l1.3,2.5c0.3,0.5,0.6,1.3,0.6,2.2
		c0,0.8-0.3,1.5-0.5,1.9l-2.1,4.6c-0.1,0.2-0.2,0.5-0.2,0.6s0.1,0.4,0.1,0.6l1.3,4.6c0.3,1.1-0.3,2.2-1.4,2.5
		C171.6,341.7,171.4,341.7,171.2,341.7z"/>
	<path d="M106,315.8c-0.9,0-1.8-0.7-2-1.6l-1.6-8.1c-0.1-0.5-0.2-1-0.4-1.3c-0.2-0.3-0.6-0.7-1-1.1c-1.6-1.5-3.3-2.8-5.1-4
		c-0.9-0.6-1.2-1.9-0.5-2.8c0.6-0.9,1.9-1.2,2.8-0.5c2,1.3,3.8,2.8,5.6,4.4c0.6,0.6,1.3,1.2,1.8,2.2c0.4,0.8,0.6,1.7,0.7,2.3
		l1.6,8.1c0.2,1.1-0.5,2.2-1.6,2.4C106.3,315.8,106.1,315.8,106,315.8z"/>
	<path d="M218.9,347.3c-0.2,0-0.4,0-0.5-0.1c-1.1-0.3-1.7-1.4-1.4-2.5c0.7-2.4,0.5-5.1-0.4-7.5l-0.2-0.5c-0.3-0.8-0.7-1.7-0.8-2.7
		c-0.2-2.2,0.8-4.2,1.6-5.7c2.6-4.8,5.2-9.7,7.8-14.5c0.5-1,1.7-1.4,2.7-0.8c1,0.5,1.4,1.7,0.8,2.7c-2.6,4.9-5.2,9.7-7.8,14.6
		c-0.6,1-1.2,2.3-1.1,3.3c0,0.5,0.3,1,0.5,1.6l0.3,0.6c1.2,3.2,1.4,6.7,0.5,10C220.6,346.8,219.8,347.3,218.9,347.3z"/>
	<path d="M283.1,318.8c-0.8,0-1.6-0.5-1.9-1.4c-0.2-0.6-0.9-1.2-1.7-1.9c-1.2-1-2.7-2.3-3-4.3c-0.4-2.3,0.9-4.1,1.9-5.5
		c0.2-0.3,0.4-0.6,0.6-0.9c1-1.6,1.4-3.7,1.2-5.6c-0.2-1.1,0.6-2.1,1.7-2.3c1.1-0.2,2.1,0.6,2.3,1.7c0.4,2.9-0.2,5.8-1.7,8.2
		c-0.2,0.4-0.5,0.7-0.7,1.1c-0.7,1-1.3,1.9-1.2,2.6c0.1,0.6,0.9,1.2,1.7,1.9c1.1,0.9,2.3,2,2.9,3.6c0.4,1.1-0.2,2.2-1.2,2.6
		C283.5,318.8,283.3,318.8,283.1,318.8z"/>
</g>
<g>
	<g>
		<path style="fill:#006E08;" d="M138.5,199.9l72.5,24v74.6l-68.6-25c-0.2-3.3-0.3-6.7-0.5-10c-0.2-3.2-0.3-5.1,0.9-7.9
			c1-2.6,0.9-5.2,0.2-7.8c-0.8-3-1.9-6.1-1.3-9.2c0.5-2.5,2.1-4.7,2.1-7.3c0-2.7-1.7-5-2.9-7.3c-2.6-5.1-1.7-9.7-1.8-15.1
			C139,208.3,139,200.1,138.5,199.9z"/>
		<path d="M211,300.6c-0.2,0-0.5,0-0.7-0.1l-68.6-25c-0.8-0.3-1.3-1-1.3-1.8l-0.5-10c-0.2-3.2-0.3-5.5,1-8.8
			c0.8-1.9,0.8-3.9,0.1-6.6l-0.4-1.6c-0.8-2.7-1.5-5.5-0.9-8.5c0.2-1.2,0.7-2.3,1.1-3.4c0.5-1.2,1-2.4,1-3.5c0-1.5-0.9-3.1-1.8-4.8
			c-0.3-0.5-0.6-1.1-0.9-1.6c-2.3-4.5-2.2-8.7-2-12.8c0-1,0.1-2.1,0-3.1c0-5.8-0.2-7.6-0.3-8.1c-0.2-0.5-0.3-1-0.1-1.5
			c0.3-1.1,1.5-1.6,2.5-1.3l0,0l0,0l0,0c0.6,0.2,6.6,2.2,72.4,24c0.8,0.3,1.4,1,1.4,1.9v74.6c0,0.7-0.3,1.3-0.9,1.7
			C211.8,300.4,211.4,300.6,211,300.6z M144.3,272.1l64.7,23.6v-70.3c-8.7-2.9-55.6-18.4-68.1-22.5c0.1,1.4,0.1,3.3,0.1,5.8
			c0,1.3,0,2.4,0,3.5c-0.1,3.9-0.2,7.3,1.6,10.9c0.3,0.5,0.5,1,0.8,1.5c1.1,2,2.3,4.2,2.3,6.8c0,1.9-0.7,3.5-1.3,5
			c-0.4,0.9-0.7,1.8-0.9,2.7c-0.4,2.1,0.2,4.3,0.9,6.7c0.2,0.6,0.3,1.1,0.4,1.7c0.9,3.5,0.8,6.4-0.3,9.1c-1,2.4-0.9,4.1-0.7,7.1
			L144.3,272.1z"/>
	</g>
	<g>
		<path style="fill:#006609;" d="M211,223.9c2.5-1.1,5-2.4,7.4-3.5c19.3-9.3,38.8-18.1,57.8-27.8c-0.7,0.4,0.3,6.2,0.3,7
			c0.4,4.8,0.2,9.2-1.7,13.7c-0.7,1.7-1.6,3.3-1.8,5.1c-0.3,3.1,1.5,5.9,2.3,8.9c0.8,2.6,0.8,5.4,0.2,8.1c-0.4,1.6-1,3.1-1.2,4.7
			c-0.3,3.2,1.5,5.8,2,8.8c0.4,2.9-0.1,6.3-0.1,9.3c0,0.7,0.6,8.8,0,9.1l-65.3,31.4c0-5.1,0-10.2,0-15.4c0-3.7-0.2-6-2-9.2
			c-1.4-2.4-3.4-4.5-3.3-7.5c0.1-4.4,5-7.7,4.7-12.1c-0.1-2-1.3-3.7-1.8-5.6c-0.5-1.8-0.3-3.7-0.1-5.6
			C209.2,237.2,211.4,229.9,211,223.9z"/>
		<path d="M211,300.6c-0.4,0-0.7-0.1-1.1-0.3c-0.6-0.4-0.9-1-0.9-1.7v-5.1c0-3.4,0-6.8,0-10.3c0-3.6-0.1-5.4-1.7-8.2
			c-0.3-0.6-0.7-1.1-1-1.6c-1.2-1.9-2.6-4-2.6-6.9c0-2.7,1.5-4.9,2.7-6.9c1.1-1.8,2.1-3.4,2-5c-0.1-0.8-0.4-1.7-0.8-2.7
			c-0.3-0.8-0.7-1.7-0.9-2.5c-0.6-2.2-0.3-4.4-0.1-6.3c0.2-2.2,0.7-4.6,1.1-7c0.8-4.1,1.5-8.4,1.3-12c-0.1-0.8,0.4-1.6,1.2-2
			c1.7-0.8,3.4-1.6,5.2-2.5l2.2-1.1c6.4-3.1,12.9-6.1,19.4-9.2c12.7-6,25.8-12.2,38.4-18.6l0,0c1-0.5,2.2-0.1,2.7,0.9
			c0.3,0.6,0.3,1.3,0,1.9c0,0.7,0.1,2.3,0.4,4.7c0.1,0.5,0.1,0.9,0.1,1.1c0.3,4.3,0.4,9.4-1.9,14.6l-0.5,1.1
			c-0.5,1.2-1.1,2.3-1.2,3.4c-0.2,1.7,0.5,3.4,1.3,5.3c0.4,0.9,0.7,1.9,1,2.8c0.9,3,0.9,6.1,0.2,9.1c-0.1,0.6-0.3,1.2-0.5,1.8
			c-0.3,0.9-0.6,1.8-0.7,2.7c-0.2,1.5,0.3,2.9,0.9,4.6c0.4,1.2,0.8,2.4,1,3.7c0.3,2.1,0.2,4.3,0.1,6.5c-0.1,1.1-0.1,2.1-0.1,3.1
			c0,0.1,0,0.5,0.1,1.1c0.4,7.9,0.3,9.1-1.2,9.8c-0.5,0.2-65.3,31.4-65.3,31.4C211.6,300.5,211.3,300.6,211,300.6z M213.1,225.2
			c0,3.7-0.7,7.7-1.4,11.6c-0.4,2.4-0.8,4.6-1.1,6.7c-0.2,1.7-0.4,3.4,0,4.9c0.2,0.7,0.4,1.3,0.7,2c0.5,1.2,1,2.5,1.1,4
			c0.2,2.9-1.3,5.3-2.6,7.4c-1.1,1.7-2,3.3-2.1,4.8c0,1.6,0.9,3,1.9,4.6c0.4,0.6,0.8,1.2,1.1,1.8c2.1,3.7,2.3,6.5,2.2,10.2
			c0,3.4,0,6.8,0,10.2v1.9c44.8-21.6,57.6-27.7,61.5-29.5c0.1-1,0-3.2-0.2-6.4c0-0.7-0.1-1.2-0.1-1.3c0-1.1,0.1-2.2,0.1-3.3
			c0.1-2,0.2-4,0-5.6c-0.2-1-0.5-2-0.9-3c-0.6-1.8-1.4-3.9-1.1-6.3c0.1-1.2,0.5-2.4,0.8-3.4c0.2-0.5,0.3-1,0.4-1.5
			c0.6-2.3,0.5-4.7-0.2-7c-0.2-0.8-0.6-1.7-0.9-2.5c-0.8-2.1-1.8-4.5-1.5-7.2c0.2-1.7,0.9-3.3,1.5-4.7l0.4-1c1.5-3.6,2-7.3,1.5-12.7
			c0-0.1-0.1-0.5-0.1-0.9c-0.2-1.1-0.3-2.1-0.4-2.9c-11.8,5.9-23.8,11.6-35.5,17.1c-6.5,3-12.9,6.1-19.3,9.2l-2.2,1.1
			C215.8,223.9,214.4,224.6,213.1,225.2z M275.4,265.3c-0.2,0.1-0.3,0.2-0.5,0.3C275.1,265.6,275.3,265.5,275.4,265.3L275.4,265.3z"
			/>
	</g>
	<g>
		<path style="fill:#008805;" d="M138.5,199.9c6.8,2.1,6.8,11.1,13.7,12.5c1.8,0.4,3.7,0,5.5-0.4c4.3-0.8,8.9-1.3,13,0
			c3.4,1.1,6.4,3.4,8.2,6.5c1.3,2,2.1,4.5,4.2,5.7c1.5,0.8,3.3,0.8,5,0.7c4.7-0.5,10.3-4.6,14.6-3.6c1.4,0.3,6.9,3.3,8.2,2.7
			c2.1-1,4.3-2.1,6.4-3.1c4.2-1.9,8.6,0.1,12.8-1.6c1.4-0.6,2.6-1.5,3.8-2.5c3.6-3,7.1-6.6,11-9.2c4.5-3,10.3-4.9,15.1-7.3
			c5.4-2.6,10.8-5.2,16.1-7.8c-0.8,0.4-4.3-1.1-5-1.4c-4.3-1.2-8.7-2.3-13-3.5c-10.8-2.9-22.2-7.7-33.3-7.2c-0.8,0-1.6,0.1-2.4-0.1
			c-0.8-0.2-1.5-0.6-2.2-1c-4.2-2.6-8-3.9-12.8-5.2c-1.6-0.4-6.5,2.4-8.1,3c-2.3,0.9-5.3,1.5-7.4,2.8c-4.4,2.8-7.2,6.9-13,7.4
			c-2.3,0.2-4.6-0.3-6.8,0.2c-3.2,0.7-5.7,3.3-8.2,5.5c-1.4,1.3-2.9,2.5-4.7,3.2c-3.7,1.4-7.5,0.1-11.3,0.5c-1.6,0.2-3,0.9-4.6,1.4
			C142.6,198.4,139.4,200.2,138.5,199.9z"/>
		<path d="M186.7,227c-1.4,0-3-0.2-4.4-1c-2.1-1.2-3.2-3.2-4.1-5c-0.3-0.5-0.5-1-0.8-1.4c-1.6-2.6-4.2-4.7-7.1-5.6
			c-3.8-1.2-8-0.7-12.1,0.1c-2.1,0.4-4.2,0.8-6.3,0.3c-4.4-0.9-6.5-4.2-8.3-7.1c-1.6-2.5-3-4.7-5.6-5.5l0,0
			c-1.1-0.3-1.7-1.4-1.3-2.5c0.3-1,1.2-1.5,2.2-1.4c0.6-0.1,2-0.8,2.7-1.1c0.6-0.3,1.1-0.5,1.4-0.6l1-0.4c1.2-0.5,2.5-1,4.1-1.2
			c1.7-0.2,3.3-0.1,4.9,0c2.1,0.1,4.1,0.3,6-0.4c1.5-0.6,2.9-1.7,4.1-2.8l0.9-0.8c2.3-2.1,4.8-4.4,8.2-5.1c1.6-0.3,3.1-0.3,4.5-0.2
			c0.8,0,1.7,0.1,2.5,0c3.4-0.3,5.6-2.1,8.1-4.1c1.2-1,2.5-2,3.9-2.9c1.6-1,3.6-1.6,5.5-2.2c0.8-0.2,1.6-0.5,2.3-0.7
			c0.4-0.2,1.1-0.5,1.8-0.8c3.4-1.7,5.8-2.7,7.5-2.2c4.9,1.3,8.8,2.7,13.3,5.4c0.6,0.4,1.1,0.7,1.6,0.8s1.1,0.1,1.8,0.1
			c8.7-0.3,17.4,2.3,25.8,4.9c2.7,0.8,5.4,1.7,8.1,2.4l13,3.5c0.2,0.1,0.7,0.2,1.2,0.4c0.6,0.2,2.2,0.8,2.8,0.9
			c0.9-0.2,1.8,0.2,2.3,1.1c0.5,1,0.1,2.2-0.9,2.7l0,0l-16.1,7.7c-1.6,0.8-3.4,1.5-5.1,2.3c-3.4,1.5-6.9,3-9.8,4.9
			c-2.3,1.6-4.6,3.6-6.8,5.6c-1.3,1.2-2.6,2.4-4,3.4c-1.2,1-2.6,2.1-4.3,2.8c-2.4,0.9-4.8,0.9-7,0.8c-2,0-4-0.1-5.7,0.7
			c-1.4,0.6-2.8,1.3-4.1,2l-2.2,1.1c-1.6,0.7-3.5,0-7.4-1.7c-0.8-0.3-1.8-0.8-2.1-0.9c-1.9-0.4-4.5,0.6-7.1,1.7
			c-2.2,0.9-4.5,1.8-6.8,2C187.9,226.9,187.3,227,186.7,227z M165.2,209.2c2.1,0,4.2,0.3,6.3,0.9c3.8,1.2,7.2,3.9,9.3,7.3
			c0.3,0.5,0.6,1.1,0.9,1.6c0.8,1.4,1.5,2.8,2.6,3.4c1.1,0.6,2.6,0.5,3.8,0.4c1.7-0.2,3.8-1,5.7-1.8c3.1-1.2,6.4-2.5,9.5-1.8
			c0.6,0.1,1.4,0.5,2.8,1.1c1.1,0.5,3.4,1.5,4.3,1.6l2-1c1.4-0.7,2.8-1.4,4.2-2c2.6-1.2,5.2-1.1,7.5-1.1c1.9,0,3.7,0.1,5.4-0.6
			c1.1-0.4,2.2-1.3,3.3-2.2c1.3-1.1,2.6-2.2,3.8-3.3c2.3-2.1,4.7-4.2,7.3-5.9c3.2-2.1,6.9-3.7,10.4-5.2c1.7-0.7,3.4-1.4,5-2.2
			l11.2-5.4l-12.8-3.4c-2.7-0.7-5.4-1.6-8.2-2.4c-8.1-2.5-16.5-5.1-24.5-4.8c-0.9,0-1.9,0.1-3-0.2s-2-0.8-2.7-1.3
			c-4.1-2.5-7.7-3.7-12.3-4.9c-0.7,0-3.5,1.4-4.7,2c-0.9,0.4-1.7,0.8-2.2,1c-0.8,0.3-1.6,0.6-2.5,0.8c-1.6,0.5-3.3,1-4.5,1.8
			s-2.4,1.7-3.5,2.6c-2.8,2.3-5.7,4.7-10.3,5c-1,0.1-2,0-3,0c-1.3-0.1-2.4-0.1-3.5,0.1c-2.3,0.5-4.2,2.3-6.3,4.1l-0.9,0.8
			c-1.4,1.3-3.2,2.7-5.3,3.6c-2.7,1-5.2,0.9-7.7,0.7c-1.4-0.1-2.8-0.2-4.1,0c-1,0.1-2,0.5-3.1,0.9l-1,0.4c-0.2,0.1-0.5,0.2-0.9,0.4
			c1.5,1.4,2.6,3.1,3.7,4.8c1.6,2.5,3,4.7,5.7,5.3c1.3,0.3,2.9,0,4.5-0.3C159.8,209.6,162.5,209.2,165.2,209.2z"/>
	</g>
	<path d="M224.7,248.3c-0.5,0-1-0.2-1.4-0.6c-0.8-0.8-0.8-2.1,0-2.9l9.2-9.1c0.4-0.4,0.9-0.9,1.1-1.3c0.2-0.3,0.3-0.8,0.5-1.2l2.4-7
		c0.4-1.1,1.5-1.6,2.6-1.3c1.1,0.4,1.6,1.5,1.3,2.6l-2.4,7c-0.2,0.6-0.4,1.3-0.8,2c-0.5,0.9-1.2,1.5-1.7,2.1l-9.2,9.1
		C225.7,248.1,225.2,248.3,224.7,248.3z"/>
	<path d="M250.1,258.9c-0.7,0-1.3-0.3-1.7-0.9c-2-2.9-2.1-7-0.3-10c0.6-1,1.3-1.8,2-2.6l7.2-8.2c0.7-0.8,2-0.9,2.8-0.2
		c0.8,0.7,0.9,2,0.2,2.8l-7.2,8.2c-0.6,0.7-1.1,1.3-1.5,2c-1,1.7-0.9,4.1,0.2,5.8c0.6,0.9,0.4,2.2-0.6,2.8
		C250.8,258.8,250.5,258.9,250.1,258.9z"/>
	<path d="M236.3,271.8c-0.5,0-1-0.2-1.4-0.6c-2.3-2.3-5.9-3.1-9-2c-1,0.4-2.2-0.1-2.6-1.2s0.1-2.2,1.2-2.6c4.5-1.7,9.9-0.5,13.3,2.9
		c0.8,0.8,0.8,2.1,0,2.8C237.3,271.6,236.8,271.8,236.3,271.8z"/>
	<g>
		<path style="fill:#DA0000;" d="M244.6,181.6c-10.1,5.1-20.2,10.1-30.2,15.2c-3.1,1.6-4.1,5.1-6.6,7.4c-2.7,2.5-6.8,3-9.8,5.1
			c-2.7,2-4.2,5.2-6.7,7.4c-1.8,1.6-4.2,2.7-5,5c-0.6,1.6-0.2,3.4-0.8,5c-0.5,1.4-1.7,2.5-2.2,3.8c-0.5,1.2-0.4,2.5-0.3,3.8
			c0.2,3.3,0.5,6.6,1.4,9.8c0.8,2.6,1.9,5,2.6,7.6c0.7,2.8,0.9,5.8,0.9,8.7c0.2,9.8-0.4,19.6-1.8,29.3c-4.3-1.8-8.7-3.5-13-5.3
			c-0.7-0.3-1.4-0.6-1.7-1.2c-0.3-0.5-0.3-1-0.3-1.5c-0.2-4.8,0.6-9.6,0-14.4c-1-7.7-5.5-14.8-5.4-22.6c0-4,1.2-7.8,1.9-11.7
			c1-6.5,0.4-13.1,0.2-19.7c0-1.2,0-2.4,0.6-3.4c0.5-0.8,1.4-1.3,2.3-1.7c16.3-8.4,31.9-18.3,46.4-29.6
			C226,178.1,235.6,179.3,244.6,181.6z"/>
		<path d="M186.1,291.8c-0.3,0-0.5,0-0.8-0.1l-13-5.3c-0.7-0.3-2-0.8-2.7-2c-0.5-0.8-0.6-1.7-0.6-2.5c-0.1-2,0-3.9,0.1-5.9
			c0.1-2.9,0.2-5.6-0.1-8.3c-0.4-3.2-1.4-6.2-2.5-9.5c-1.4-4.3-2.9-8.7-2.9-13.4c0-2.9,0.6-5.6,1.1-8.2c0.3-1.3,0.5-2.5,0.7-3.8
			c0.8-5.1,0.5-10.4,0.3-15.5c-0.1-1.3-0.1-2.5-0.2-3.8c0-1.2-0.1-3,0.9-4.6c0.8-1.2,2.1-1.9,3-2.4c16.2-8.4,31.7-18.2,46.1-29.4
			c0.3-0.2,0.7-0.4,1.1-0.4c8.8-0.6,18.4,0.4,28.4,2.9c0.8,0.2,1.4,0.9,1.5,1.7s-0.3,1.6-1.1,2l-8.9,4.4
			c-7.1,3.6-14.3,7.1-21.3,10.8c-1.4,0.7-2.3,2-3.3,3.6c-0.8,1.2-1.6,2.4-2.8,3.5c-1.8,1.6-3.9,2.5-5.9,3.3c-1.5,0.6-2.9,1.2-4.1,2
			c-1.2,0.9-2.2,2.2-3.3,3.6c-1,1.3-2,2.6-3.3,3.7c-0.5,0.5-1.1,0.9-1.7,1.3c-1.3,0.9-2.4,1.8-2.8,2.8c-0.2,0.5-0.2,1.2-0.3,1.9
			c-0.1,0.9-0.1,2-0.5,3.1c-0.3,0.9-0.9,1.7-1.3,2.4c-0.4,0.5-0.7,1-0.9,1.5c-0.3,0.8-0.2,1.7-0.2,2.9c0.2,3.4,0.5,6.5,1.4,9.4
			c0.3,1.1,0.7,2.2,1.2,3.3c0.5,1.4,1.1,2.8,1.5,4.3c0.8,3.1,0.9,6.3,1,9.2c0.2,9.9-0.4,19.8-1.8,29.6c-0.1,0.6-0.4,1.2-1,1.5
			C186.8,291.7,186.4,291.8,186.1,291.8z M217.6,180.7c-14.5,11.1-30,21-46.2,29.4c-0.6,0.3-1.3,0.7-1.5,1c-0.3,0.5-0.3,1.5-0.3,2.2
			c0,1.2,0.1,2.5,0.2,3.7c0.2,5.3,0.5,10.9-0.4,16.3c-0.2,1.3-0.5,2.7-0.8,4c-0.5,2.6-1,5-1.1,7.4c0,4,1.3,7.9,2.7,12
			c1.1,3.3,2.3,6.7,2.7,10.3c0.4,3,0.3,6,0.1,9c-0.1,1.9-0.2,3.7-0.1,5.6c0,0.1,0,0.5,0.1,0.6c0.1,0,0.5,0.2,0.7,0.3l10.6,4.3
			c1.1-8.7,1.6-17.6,1.4-26.4c0-2.7-0.2-5.6-0.9-8.3c-0.3-1.3-0.8-2.6-1.3-3.9c-0.5-1.2-0.9-2.4-1.3-3.6c-1-3.3-1.3-6.6-1.5-10.2
			c-0.1-1.3-0.2-3,0.4-4.7c0.3-0.9,0.9-1.7,1.3-2.3c0.4-0.5,0.7-1,0.9-1.5s0.2-1.2,0.3-1.9c0.1-0.9,0.1-2,0.5-3.1
			c0.8-2.2,2.6-3.5,4.2-4.7c0.5-0.4,1-0.7,1.5-1.1c1-0.9,1.9-2,2.8-3.1c1.2-1.5,2.4-3.1,4.1-4.3c1.6-1.2,3.3-1.8,5-2.5
			c1.8-0.7,3.4-1.4,4.6-2.5c0.8-0.8,1.5-1.7,2.2-2.8c1.2-1.8,2.5-3.7,4.8-4.9c7.1-3.7,14.2-7.2,21.4-10.8l3.8-1.9
			C231.2,180.9,224.1,180.3,217.6,180.7z"/>
	</g>
	<g>
		<path style="fill:#DA0000;" d="M176.5,195c-5,2-10,4.9-13.1,9.3c-5,7.1-4.4,16.6-5.3,25.3c-0.5,5.5-2.1,10.6-3.5,15.9
			c-1.3,4.6,0.4,8,1.9,12.5c1,3,1.6,6.2,1.8,9.4c3.2-0.3,6.4-0.8,9.5-1.5c0.3-0.1,0.5-0.1,0.7-0.3c0.5-0.4,0.5-1.1,0.4-1.8
			c-0.2-1.2-0.5-2.4-1-3.6c-0.5-1.3-1.3-2.6-1.6-4c-0.3-1.4-0.3-2.8-0.3-4.2c0.1-5.8,0.8-10.8,1.8-16.4c1.2-6.7,2.1-13.5,4.4-19.9
			s6.3-12.5,12.2-15.8c6-3.3,14.1-3.2,19,1.6c1,1,2,2.2,3.4,2.4c3.3,0.5,4.4-4.5,7.3-6.2c0.1,0-7.7-5-8.5-5.3
			c-2.4-1-4.8-1.7-7.4-1.8C191.1,190.2,183.1,192.4,176.5,195z"/>
		<path d="M158.3,269.4c-0.5,0-1-0.2-1.3-0.5c-0.4-0.4-0.7-0.9-0.7-1.4c-0.1-3-0.7-6-1.7-8.8L154,257c-1.3-3.8-2.6-7.3-1.3-12
			l0.5-1.8c1.3-4.7,2.5-9,3-13.8c0.2-1.8,0.3-3.6,0.4-5.4c0.4-7.3,0.9-14.8,5.2-20.9c2.9-4.1,7.5-7.4,14-10l0,0
			c5.8-2.3,14.5-5.1,22.7-4.6c2.6,0.1,5.2,0.8,8.1,2c0.1,0,9.7,4.9,9.8,7.1c0.1,0.8-0.4,1.5-1,1.9c-0.8,0.4-1.6,1.5-2.3,2.5
			c-1.3,1.8-3.2,4.3-6.3,3.9c-1.8-0.3-3.1-1.5-4.1-2.5l-0.4-0.4c-3.9-3.8-11.1-4.3-16.6-1.3c-6.2,3.4-9.6,9.9-11.3,14.7
			c-1.8,4.9-2.7,10.3-3.6,15.5c-0.2,1.4-0.5,2.7-0.7,4.1c-1.2,6.3-1.7,11-1.8,16.1c0,1.2-0.1,2.5,0.2,3.6c0.2,0.8,0.5,1.5,0.9,2.3
			c0.2,0.5,0.4,0.9,0.6,1.4c0.5,1.3,0.9,2.7,1.1,4c0.3,2.1-0.5,3.1-1.2,3.7c-0.6,0.4-1.2,0.6-1.5,0.6c-3.2,0.7-6.5,1.3-9.8,1.6
			C158.4,269.4,158.3,269.4,158.3,269.4z M177.2,196.9L177.2,196.9c-5.7,2.3-9.7,5.1-12.2,8.6c-3.7,5.2-4.1,11.8-4.5,18.8
			c-0.1,1.9-0.2,3.7-0.4,5.6c-0.5,5.1-1.8,9.6-3.1,14.5l-0.5,1.8c-0.9,3.4,0,6,1.2,9.6l0.6,1.8c0.9,2.5,1.4,5.1,1.7,7.8
			c2.3-0.3,4.6-0.7,6.8-1.2c-0.2-1-0.4-2.1-0.8-3c-0.2-0.4-0.4-0.8-0.5-1.2c-0.4-0.9-0.9-1.9-1.2-3c-0.4-1.6-0.4-3.3-0.3-4.7
			c0.2-6.6,1-11.9,1.9-16.7c0.2-1.4,0.5-2.7,0.7-4.1c0.9-5.4,1.9-10.9,3.8-16.2c2-5.5,5.9-12.8,13.1-16.9c7.1-4,16.1-3.2,21.4,1.9
			l0.5,0.5c0.6,0.6,1.3,1.3,1.8,1.3c0.7,0.1,1.3-0.6,2.5-2.3c0.4-0.5,0.8-1.1,1.3-1.7c-2.2-1.4-5.5-3.4-6.1-3.7
			c-2.5-1-4.6-1.6-6.8-1.7C190.8,192.2,182.7,194.7,177.2,196.9z"/>
	</g>
	<g>
		<path style="fill:#DA0000;" d="M187.5,205.3c1.3,0,2.6-0.2,3.5-0.1c4.7,0.1,6.9-1.4,8.6-5.9c1.1-2.8,1.8-6.2,0-8.6
			c-1.4-1.9-4.2-3-6.5-2.9c-3.6,0.2-3.2,1.4-2.6,4.1c0.6,2.6-0.1,4.9-2.3,6.6c-1.7,1.4-7.3,2.2-4.9,5.6
			C184,205.1,185.7,205.3,187.5,205.3z"/>
		<path d="M187.2,207.3c-1.8,0-4.3-0.3-5.6-2c-1.1-1.5-1.1-2.9-0.9-3.7c0.6-2.1,2.8-3.1,4.6-3.9c0.6-0.3,1.3-0.6,1.6-0.8
			c1.6-1.2,2.1-2.6,1.6-4.6c-0.4-1.9-0.8-3.5,0.2-4.9c1-1.3,2.7-1.6,4.2-1.7c2.7-0.1,6.4,1.1,8.3,3.7c1.8,2.5,1.9,6.1,0.2,10.5
			c-2,5.3-5.1,7.4-10.5,7.2c-0.4,0-0.9,0-1.4,0.1c-0.6,0-1.3,0.1-2,0.1C187.5,207.3,187.3,207.3,187.2,207.3z M187.5,205.3
			L187.5,205.3L187.5,205.3z M184.7,202.6c0,0,0.1,0.1,0.2,0.3c0,0,0.5,0.4,2.6,0.4c0.6,0,1.2,0,1.8-0.1c0.7,0,1.2-0.1,1.7-0.1
			c3.8,0.1,5.3-0.9,6.7-4.6c1.2-3.1,1.3-5.4,0.3-6.7c-0.9-1.2-3-2.1-4.8-2c-0.5,0-0.9,0.1-1.1,0.1c0.1,0.4,0.2,0.9,0.3,1.4
			c0.8,3.6-0.2,6.6-3,8.8c-0.7,0.5-1.5,0.9-2.4,1.3C186.2,201.7,185,202.3,184.7,202.6z"/>
	</g>
	<path d="M222.3,207c-0.6,0-1.3-0.3-1.7-0.9c-0.6-0.9-0.4-2.2,0.5-2.8c4.5-3,10-4.7,15.5-4.7c0.1,0,0.1,0,0.2,0c1.1,0,2,0.9,2,2
		s-0.9,2-2,2c-0.1,0-0.1,0-0.2,0c-4.7,0-9.4,1.4-13.2,4C223.1,206.9,222.7,207,222.3,207z"/>
	<path d="M196.1,259.8c-0.4,0-0.9-0.1-1.3-0.4c-0.9-0.6-1.2-1.8-0.6-2.8c0.2-0.3,0.4-0.5,0.6-0.6c0.2-2.7,0.2-5-0.8-6.9
		c-0.2-0.4-0.5-0.8-0.8-1.1c-0.4-0.5-0.7-1-1-1.5c-1.3-2.2-1.6-4.9-0.9-7.3c0.3-1.1,1.4-1.7,2.5-1.4s1.7,1.4,1.4,2.5
		c-0.4,1.4-0.2,2.9,0.5,4.2c0.2,0.4,0.5,0.8,0.8,1.1c0.4,0.5,0.7,1,1,1.5c1.8,3.2,1.5,7,1.3,9.8c-0.1,0.8-0.5,2-1.6,2.6
		C196.9,259.7,196.5,259.8,196.1,259.8z"/>
</g>
</svg>
