<svg xml:space="preserve" style="enable-background:new 0 0 325.1 250;" viewBox="0 0 325.1 250" y="0px" x="0px" xmlns:xlink="http://www.w3.org/1999/xlink" xmlns="http://www.w3.org/2000/svg" version="1.1">
<g id="레이어_6">
</g>
<g id="레이어_5">
</g>
<g id="레이어_2">
	<g>
		<g>
			<path d="M79.9,170.6L79.9,170.6c-6.4-4.7-9.8-11-5.7-16.6l18.5-25.3c4.1-5.6,12.6-6.3,19-1.7l0,0
				c6.4,4.7,8.3,13,4.2,18.6L97.5,171C93.4,176.6,86.3,175.3,79.9,170.6z" style="fill:#ABABAB;"></path>
		</g>
		<g>
			<path d="M70.9,176.5L70.9,176.5c-2.8-4.2-1.7-9.9,2.6-12.7l3.1-2.1c4.2-2.8,9.9-1.7,12.7,2.6l0,0
				c2.8,4.2,1.7,9.9-2.6,12.7l-3.1,2.1C79.4,181.9,73.7,180.8,70.9,176.5z" style="fill:#143640;"></path>
		</g>
		<g>
			<path d="M49.1,195.2l-0.6-0.8c-4.2-5.4-3.1-13.2,2.3-17.4l11.7-9c5.4-4.2,13.2-3.1,17.4,2.3l0.6,0.8
				c4.2,5.4,3.1,13.2-2.3,17.4l-11.7,9C61.1,201.7,53.3,200.7,49.1,195.2z" style="fill:#ABABAB;"></path>
		</g>
		<g>
			<path d="M45.6,196.3l-1-1.6c-2.4-3.9-1.2-8.9,2.6-11.3h0c3.9-2.4,8.9-1.2,11.3,2.6l1,1.6
				c2.4,3.9,1.2,8.9-2.6,11.3l0,0C53,201.3,48,200.1,45.6,196.3z" style="fill:#143640;"></path>
		</g>
		<g>
			<path d="M49.8,187.3L35.4,187c-5.4-0.1-10,4.2-10.1,9.6l-0.1,6c-0.1,2.8,2.1,5,4.9,5.1l24.1,0.6
				c2.8,0.1,5-2.1,5.1-4.9l0.1-6C59.5,191.9,55.2,187.4,49.8,187.3z" style="fill:#757575;"></path>
		</g>
	</g>
	<g>
		<g>
			<path d="M160.7,165.6L160.7,165.6c-0.7-8.7,1.9-16.1,9.1-16.7l32.7-2.8c7.2-0.6,13.7,5.9,14.5,14.7v0
				c0.7,8.7-4.5,16.3-11.7,16.9l-32.7,2.8C165.3,181.1,161.5,174.3,160.7,165.6z" style="fill:#2D3C40;"></path>
		</g>
		<g>
			<path d="M217.2,198.3L217.2,198.3c-3.9,3.2-9.6,2.7-12.8-1.1l-1.6-1.9c-3.2-3.9-2.7-9.6,1.1-12.8l0,0
				c3.9-3.2,9.6-2.7,12.8,1.1l1.6,1.9C221.6,189.3,221.1,195.1,217.2,198.3z" style="fill:#2D3C40;"></path>
		</g>
		<g>
			<path d="M209.3,177.6l-1.1,13c-0.3,3.5-3.3,6.1-6.8,5.8l-20.2-1.7c-7.1-0.6-12.3-6.8-11.7-13.9v0
				c0.6-7.1,6.8-12.3,13.9-11.7l20.2,1.7C207,171,209.5,174.1,209.3,177.6z" style="fill:#2D3C40;"></path>
		</g>
		<g>
			<path d="M168.3,185.9L168.3,185.9c-5,0-9.1-4.2-9-9.2l0-3.7c0-5,4.2-9.1,9.2-9h0c5,0,9.1,4.2,9,9.2l0,3.7
				C177.4,181.9,173.3,186,168.3,185.9z" style="fill:#2D3C40;"></path>
		</g>
		<g>
			<path d="M217,193.7h-17.1c-6.5,0-11.7,4.4-11.7,9.8v6c0,2.7,2.7,5,5.9,5h28.7c3.3,0,5.9-2.2,5.9-5v-6
				C228.7,198.1,223.4,193.7,217,193.7z" style="fill:#2D3C40;"></path>
		</g>
	</g>
	<g>
		<path d="M236.4,111.4c0,0,19.2-6,28.8,4.4c6.6,7.2,4.2,11.7,10.2,19.5c3.3,4.4,7.2,6.7,12.5,7.8
			c5.6,1.2,10.6,1.8,12,8.4c1.5,7.5-14,5.1-17.4,4.5c-7.6-1.5-14.4-5.1-18.7-11.7c-4.3-6.6-4.3-17.2-11.5-21.6
			c-4.5-2.7-18.3,1.3-17.3-6.6C235.8,108.6,236.4,111.4,236.4,111.4z" style="fill:#143640;"></path>
	</g>
	<g>
		<g>
			<path d="M157.5,119.1l-28.5,9.5c-5.8,1.9-12-1.2-13.9-7l0,0c-1.9-5.8,1.2-12,7-13.9l28.5-9.5
				c5.8-1.9,12,1.2,13.9,7l0,0C166.4,110.9,163.3,117.1,157.5,119.1z" style="fill:#143640;"></path>
		</g>
		<g>
			<g>
				<circle r="39.1" cy="146" cx="218.9" style="fill:#6B6B6B;"></circle>
			</g>
			<g>
				<path d="M183.3,187.5h-12c-17.8,0-32.2-14.4-32.2-32.2v0c0-17.8,14.4-32.2,32.2-32.2h12
					c17.8,0,32.2,14.4,32.2,32.2v0C215.4,173.1,201,187.5,183.3,187.5z" style="fill:#919191;"></path>
			</g>
			<g>
				<path d="M160.8,194.4h-38.4c-14.5,0-26.2-11.7-26.2-26.2v-26.9c0-14.5,11.7-26.2,26.2-26.2h38.4
					c14.5,0,26.2,11.7,26.2,26.2v26.9C187,182.7,175.3,194.4,160.8,194.4z" style="fill:#6B6B6B;"></path>
			</g>
			<g>
				<path d="M144.5,172.1c0,0,0-5.1,0-27.3c0-18.7,16.5-26.8,21.8-29c-1.8-0.4-3.6-0.6-5.4-0.6h-25.7
					c0,0-23.5,7.3-23.5,29.6s0,27.3,0,27.3s1.3,20.9,8.7,22.3c0.6,0,1.2,0.1,1.8,0.1H154C145.9,194.4,144.5,172.1,144.5,172.1z" style="fill:#143640;"></path>
			</g>
		</g>
	</g>
	<g>
		<g>
			<g>
				<path d="M109,39.2c0,0-4.8-11.9-15.1-6.6c-17.7,8.9-35.1,21.7-40.2,44.7c-2.7,12.1,12.7,23,28.1-1.9
					C92.6,58.1,111.2,49.6,109,39.2z" style="fill:#143640;"></path>
			</g>
		</g>
		<g>
			<g>
				<path d="M128.2,39.2c0,0,4.8-11.9,15.1-6.6c17.7,8.9,35.1,21.7,40.2,44.7c2.7,12.1-12.7,23-28.1-1.9
					C144.6,58.1,126,49.6,128.2,39.2z" style="fill:#143640;"></path>
			</g>
		</g>
	</g>
	<g>
		<g>
			<path d="M166.6,87.4c0,25.7-23.6,45.4-46.5,45.4c-22.2,0-46.5-19.7-46.5-45.4s20.8-46.5,46.5-46.5
				S166.6,61.7,166.6,87.4z" style="fill:#ABABAB;"></path>
		</g>
		<g>
			<path d="M153,54.6c-8.4-8.5-14-16.5-32.9-16.5c-17.8,0-24.5,8-32.9,16.5c-2.8,7-4.5,15.3-1.3,22.1
				c6.8,14.6,15.7,14.8,15.3,23.3c-0.3,7.6,9.8,11.6,16.8,12.1c7.3,0.6,21.4-4,21-12.2c-0.4-8.5,8.5-8.7,15.3-23.3
				C157.6,69.9,155.8,61.6,153,54.6z" style="fill:#143640;"></path>
		</g>
		<g>
			<circle r="24.8" cy="103.1" cx="120.1" style="fill:#FFFBE3;"></circle>
		</g>
	</g>
	<g>
		<g>
			<path d="M123,83h-8.8c-2.5,0-3.8,2.9-2.1,4.8l4.4,4.9c1.1,1.3,3.1,1.3,4.2,0l4.4-4.9
				C126.8,86,125.5,83,123,83z" style="fill:#1C4059;"></path>
		</g>
		<g>
			<rect height="9.4" width="0.8" y="93.6" x="118.2"></rect>
		</g>
	</g>
	<g>
		<g>
			<path d="M190.1,165.6L190.1,165.6c-0.7-8.7,1.9-16.1,9.1-16.7l32.7-2.8c7.2-0.6,13.7,5.9,14.5,14.7l0,0
				c0.7,8.7-4.5,16.3-11.7,16.9l-32.7,2.8C194.7,181.1,190.9,174.3,190.1,165.6z" style="fill:#9E9E9E;"></path>
		</g>
		<g>
			<path d="M246.6,198.3L246.6,198.3c-3.9,3.2-9.6,2.7-12.8-1.1l-1.6-1.9c-3.2-3.9-2.7-9.6,1.1-12.8l0,0
				c3.9-3.2,9.6-2.7,12.8,1.1l1.6,1.9C251,189.3,250.5,195.1,246.6,198.3z" style="fill:#143640;"></path>
		</g>
		<g>
			<path d="M238.7,177.6l-1.1,13c-0.3,3.5-3.3,6.1-6.8,5.8l-20.2-1.7c-7.1-0.6-12.3-6.8-11.7-13.9v0
				c0.6-7.1,6.8-12.3,13.9-11.7l20.2,1.7C236.4,171,239,174.1,238.7,177.6z" style="fill:#ABABAB;"></path>
		</g>
		<g>
			<path d="M197.7,185.9L197.7,185.9c-5,0-9.1-4.2-9-9.2l0-3.7c0-5,4.2-9.1,9.2-9h0c5,0,9.1,4.2,9,9.2l0,3.7
				C206.8,181.9,202.7,186,197.7,185.9z" style="fill:#143640;"></path>
		</g>
		<g>
			<path d="M246.4,193.7h-17.1c-6.5,0-11.7,4.4-11.7,9.8v6c0,2.7,2.7,5,5.9,5h28.7c3.3,0,5.9-2.2,5.9-5v-6
				C258.1,198.1,252.9,193.7,246.4,193.7z" style="fill:#757575;"></path>
		</g>
	</g>
	<g>
		<g>
			<path d="M123.4,218.8H52.6c-1.9,0-3.5-1.4-3.7-3.3l-3-25.4c-0.3-2.2,1.5-4.2,3.7-4.2h76.8
				c2.3,0,4,2,3.7,4.2l-3,25.4C126.9,217.4,125.3,218.8,123.4,218.8z" style="fill:#E65959;"></path>
		</g>
		<g>
			<path d="M126.4,185.9H49.6c-2.3,0-4,2-3.7,4.2l1.1,8.1H129l1.1-8.1C130.4,187.9,128.7,185.9,126.4,185.9z" style="fill:#C93E3E;"></path>
		</g>
		<g>
			<path d="M129.9,192H46.1c-2.9,0-5.3-2.4-5.3-5.3l0,0c0-2.9,2.4-5.3,5.3-5.3h83.8c2.9,0,5.3,2.4,5.3,5.3
				l0,0C135.2,189.7,132.8,192,129.9,192z" style="fill:#E65959;"></path>
		</g>
		<g>
			<g>
				<path d="M80.9,213.9c-1.2,0-2.4-0.8-2.8-1.9c-0.4-1-0.2-2.2,0.5-3c-1-0.2-2-0.9-2.3-1.9
					c-0.6-1.6,0.2-3.3,1.7-3.9c0.3-0.1,0.7-0.2,1.1-0.2c1.1,0,2.1,0.6,2.6,1.6l10.5-4c-0.2-0.6-0.1-1.3,0.2-1.9
					c0.3-0.7,0.9-1.3,1.7-1.6c0.3-0.1,0.7-0.2,1.1-0.2c1.2,0,2.4,0.8,2.8,1.9c0.4,1,0.2,2.2-0.5,3c1.1,0.2,2,0.9,2.3,1.9
					c0.3,0.8,0.3,1.6-0.1,2.3c-0.3,0.7-0.9,1.3-1.7,1.6c-0.3,0.1-0.7,0.2-1.1,0.2c-1.1,0-2.1-0.6-2.6-1.6l-10.5,4
					c0.2,0.6,0.1,1.3-0.2,1.9c-0.3,0.7-0.9,1.3-1.7,1.6C81.6,213.8,81.2,213.9,80.9,213.9z" style="fill:#DED5D5;"></path>
			</g>
			<g>
				<path d="M95.1,197.3c1.1,0,2,0.6,2.4,1.7c0.5,1.2-0.1,2.6-1.2,3.2l0,0.1c0.2,0,0.4-0.1,0.6-0.1
					c1.1,0,2,0.6,2.4,1.7c0.5,1.3-0.2,2.9-1.5,3.4c-0.3,0.1-0.6,0.2-0.9,0.2c-1.1,0-2-0.6-2.4-1.7l-11.2,4.2
					c0.5,1.3-0.2,2.9-1.5,3.4c-0.3,0.1-0.6,0.2-0.9,0.2c-1.1,0-2-0.6-2.4-1.7c-0.4-1.2,0-2.5,1-3.1l0-0.1c-0.1,0-0.3,0-0.4,0
					c-1.1,0-2-0.6-2.4-1.7c-0.5-1.3,0.2-2.9,1.5-3.4c0.3-0.1,0.6-0.2,0.9-0.2c1.1,0,2,0.6,2.4,1.7l11.2-4.2
					c-0.5-1.3,0.2-2.9,1.5-3.4C94.5,197.3,94.8,197.3,95.1,197.3 M95.1,196.5L95.1,196.5c-0.4,0-0.8,0.1-1.2,0.2
					c-0.9,0.3-1.5,1-1.9,1.8c-0.3,0.6-0.4,1.2-0.3,1.8l-9.9,3.7c-0.6-0.9-1.7-1.5-2.8-1.5c-0.4,0-0.8,0.1-1.2,0.2
					c-1.8,0.7-2.6,2.6-2,4.4c0.4,1,1.1,1.7,2.1,2c-0.5,0.9-0.6,1.9-0.2,2.9c0.5,1.3,1.8,2.2,3.2,2.2c0.4,0,0.8-0.1,1.2-0.2
					c1.5-0.6,2.4-2.1,2.2-3.6l9.9-3.7c0.6,0.9,1.7,1.5,2.8,1.5c0.4,0,0.8-0.1,1.2-0.2c0.9-0.3,1.5-1,1.9-1.8
					c0.4-0.8,0.4-1.8,0.1-2.6c-0.4-1-1.1-1.7-2.1-2c0.5-0.9,0.6-1.9,0.2-2.9C97.8,197.3,96.5,196.5,95.1,196.5L95.1,196.5
					L95.1,196.5z" style="fill:#C93E3E;"></path>
			</g>
		</g>
	</g>
	<g>
		<g>
			<path d="M165.5,194L165.5,194c-8,0-14.4-3.5-14.4-11.5v-35.8c0-7.9,6.4-14.4,14.4-14.4h0
				c8,0,14.4,6.4,14.4,14.4v35.8C179.9,190.4,173.4,194,165.5,194z" style="fill:#ABABAB;"></path>
		</g>
		<g>
			<path d="M154.8,202.6L154.8,202.6c-4.2-2.7-5.5-8.4-2.7-12.7l2-3.1c2.7-4.2,8.4-5.5,12.7-2.7l0,0
				c4.2,2.7,5.5,8.4,2.7,12.7l-2,3.1C164.7,204.2,159.1,205.4,154.8,202.6z" style="fill:#143640;"></path>
		</g>
		<g>
			<path d="M125.3,186.6l0.5-0.8c3.6-5.8,11.2-7.7,17-4.1l12.6,7.7c5.8,3.6,7.7,11.2,4.1,17l-0.5,0.8
				c-3.6,5.8-11.2,7.7-17,4.1l-12.6-7.7C123.5,200,121.7,192.4,125.3,186.6z" style="fill:#ABABAB;"></path>
		</g>
		<g>
			<path d="M129.1,178.7l1.6,1c3.9,2.4,5.1,7.4,2.7,11.3l0,0c-2.4,3.9-7.4,5.1-11.3,2.7l-1.6-1
				c-3.9-2.4-5.1-7.4-2.7-11.3l0,0C120.2,177.6,125.2,176.3,129.1,178.7z" style="fill:#143640;"></path>
		</g>
		<g>
			<path d="M121.6,173.8l-12.3-7.5c-4.6-2.8-10.7-1.4-13.5,3.3l-3.1,5.1c-1.4,2.4-0.7,5.4,1.7,6.9l20.6,12.6
				c2.4,1.4,5.4,0.7,6.9-1.7l3.1-5.1C127.7,182.7,126.3,176.6,121.6,173.8z" style="fill:#757575;"></path>
		</g>
	</g>
	<g>
		<g>
			<path d="M97.6,79.1c-0.3,0-0.5-0.1-0.7-0.4c-0.2-0.4-0.1-0.9,0.3-1.1l9.2-5.3c0.4-0.2,0.9-0.1,1.1,0.3
				c0.2,0.4,0.1,0.9-0.3,1.1L98,79C97.9,79.1,97.7,79.1,97.6,79.1z" style="fill:#74DEFF;"></path>
		</g>
		<g>
			<path d="M139.6,79.1c-0.1,0-0.3,0-0.4-0.1l-9.2-5.3c-0.4-0.2-0.5-0.7-0.3-1.1c0.2-0.4,0.7-0.5,1.1-0.3
				l9.2,5.3c0.4,0.2,0.5,0.7,0.3,1.1C140.2,79,139.9,79.1,139.6,79.1z" style="fill:#74DEFF;"></path>
		</g>
	</g>
</g>
<g id="레이어_1">
</g>
</svg>
