<?xml version="1.0" encoding="utf-8"?>
<!-- Generator: Adobe Illustrator 24.1.1, SVG Export Plug-In . SVG Version: 6.00 Build 0)  -->
<svg version="1.1" id="Layer_1" xmlns="http://www.w3.org/2000/svg" xmlns:xlink="http://www.w3.org/1999/xlink" x="0px" y="0px"
	 viewBox="0 0 226.71 330" style="enable-background:new 0 0 226.71 330;" xml:space="preserve">
<path style="fill:#FFFFFF;" d="M147.35,68.89c-1.82,0.31-3.68,0.87-5.61,1.66c-1.59,0.65-3.11,1.54-4.54,2.48
	c-4.62,3-11.32,13.38-6.05,18.46c3.82,3.68,8.62-3.83,11.24-5.85c5.87-4.55,12.73,2.01,16.31,6.75c2.88,3.83,8.3,4.6,12.12,1.7
	c3.82-2.89,4.61-8.33,1.77-12.17c-3.53-4.78-8.05-9.03-13.54-11.42C154.96,68.71,151.22,68.24,147.35,68.89z"/>
<path style="fill:#673101;" d="M158.11,86.53c0.69-0.1,1.35,0.07,1.94,0.35c-0.7-0.54-1.2-1.33-1.33-2.28
	c-0.26-1.91,1.07-3.67,2.96-3.95c0.88-0.12,1.72,0.13,2.4,0.59c-0.59-0.53-1.03-1.24-1.14-2.08c-0.26-1.91,1.06-3.68,2.96-3.95
	c0.17-0.03,0.33,0.02,0.51,0.03c3.44,3.08,5.68,5.99,6.18,6.67c2.84,3.85,2.05,9.28-1.78,12.18c-3.81,2.89-9.23,2.13-12.11-1.7
	c-0.85-1.12-2.02-2.41-3.32-3.62C155.82,87.62,156.81,86.71,158.11,86.53"/>
<path style="fill:#FFFFFF;" d="M96.36,62.92c1.7,0.72,3.38,1.69,5.07,2.91c1.39,1,2.67,2.22,3.85,3.46
	c3.8,3.99,7.92,15.63,1.62,19.36c-4.56,2.7-7.5-5.71-9.58-8.29c-4.66-5.78-12.85-0.98-17.43,2.8c-3.68,3.07-9.14,2.56-12.18-1.14
	c-3.05-3.7-2.57-9.17,1.09-12.25c4.53-3.83,9.91-6.93,15.81-7.99C89,60.99,92.75,61.4,96.36,62.92z"/>
<path style="fill:#673101;" d="M81.82,77.6c-0.65-0.26-1.33-0.24-1.97-0.11c0.8-0.36,1.47-1.02,1.82-1.91
	c0.7-1.8-0.19-3.81-1.97-4.52c-0.83-0.32-1.7-0.27-2.47,0.02c0.7-0.38,1.29-0.97,1.59-1.76c0.7-1.8-0.19-3.82-1.97-4.52
	c-0.16-0.07-0.33-0.06-0.5-0.09c-4.06,2.2-6.91,4.52-7.55,5.06c-3.65,3.09-4.13,8.56-1.08,12.26c3.04,3.69,8.49,4.2,12.18,1.14
	c1.08-0.9,2.52-1.87,4.06-2.75C83.8,79.19,83.05,78.07,81.82,77.6"/>
<path d="M150.62,68.61c2.75,0,5.5,0.6,8.42,1.88c4.55,1.98,8.4,5.27,11.6,9.05c1.02,1.17,1.69,2.04,1.94,2.37
	c1.07,1.44,1.62,3.11,1.69,4.78c0.13,2.79-1.08,5.59-3.47,7.4c-1.56,1.18-3.39,1.76-5.21,1.76c-2.62,0-5.21-1.19-6.91-3.46
	c-0.01-0.01-0.01-0.02-0.02-0.02c-0.85-1.12-2.01-2.39-3.3-3.59c0.01-0.04,0.04-0.07,0.06-0.1c-2.53-2.47-5.64-4.56-8.76-4.56
	c-1.45,0-2.9,0.45-4.29,1.53c-2.12,1.64-5.66,6.85-8.95,6.85c-0.78,0-1.55-0.29-2.28-1c-5.27-5.08,1.43-15.46,6.05-18.46
	c1.44-0.93,2.96-1.83,4.54-2.48c1.93-0.79,3.78-1.35,5.61-1.66C148.45,68.71,149.54,68.61,150.62,68.61 M150.62,64.61
	c-1.29,0-2.62,0.11-3.94,0.34c-2.08,0.35-4.19,0.97-6.46,1.9c-1.6,0.66-3.25,1.55-5.21,2.83c-4.22,2.75-9.14,9.55-9.73,15.73
	c-0.34,3.58,0.73,6.68,3.09,8.96c1.44,1.39,3.19,2.12,5.06,2.12c4.05,0,7.17-3.31,9.67-5.96c0.64-0.67,1.36-1.44,1.73-1.73
	c0.8-0.62,1.44-0.7,1.84-0.7c1.41,0,3.33,1.03,5.35,2.85c0.17,0.27,0.38,0.52,0.62,0.74c1.11,1.04,2.12,2.13,2.84,3.09
	c2.42,3.22,6.1,5.07,10.12,5.07c2.77,0,5.41-0.89,7.62-2.57c3.35-2.54,5.23-6.56,5.04-10.76c-0.11-2.53-0.97-4.94-2.47-6.98
	c-0.37-0.49-1.1-1.44-2.15-2.63c-3.92-4.63-8.32-8.03-13.01-10.08C157.23,65.34,153.95,64.61,150.62,64.61L150.62,64.61z"/>
<path d="M88.82,61.39c2.67,0,5.14,0.52,7.55,1.54c1.7,0.72,3.38,1.69,5.07,2.91c1.39,1,2.67,2.22,3.85,3.46
	c3.8,3.99,7.92,15.63,1.62,19.36c-0.62,0.37-1.21,0.53-1.77,0.53c-3.58,0-6.02-6.59-7.82-8.82c-1.56-1.93-3.51-2.68-5.59-2.68
	c-2.57,0-5.34,1.15-7.8,2.62c0.01,0.04,0.02,0.08,0.03,0.11c-1.53,0.87-2.96,1.84-4.04,2.73c-0.01,0.01-0.02,0.01-0.02,0.02
	c-1.62,1.35-3.58,2.01-5.53,2.01c-2.48,0-4.95-1.07-6.66-3.14c-1.9-2.31-2.43-5.31-1.67-8c0.46-1.61,1.38-3.1,2.75-4.26
	c0.32-0.26,1.17-0.96,2.44-1.86c3.99-2.93,8.49-5.25,13.38-6.13C86.08,61.52,87.47,61.39,88.82,61.39 M88.82,57.39
	c-1.57,0-3.22,0.15-4.91,0.46c-5.04,0.91-10.1,3.21-15.04,6.84c-1.24,0.89-2.18,1.64-2.62,2c-1.96,1.66-3.35,3.81-4.05,6.24
	c-1.15,4.04-0.25,8.39,2.43,11.64c2.41,2.92,5.96,4.6,9.74,4.6c2.94,0,5.81-1.04,8.09-2.93c0.93-0.77,2.17-1.6,3.49-2.35
	c0.29-0.16,0.55-0.36,0.78-0.58c1.92-1.05,3.68-1.63,5.01-1.63c1.06,0,1.81,0.36,2.48,1.19c0.3,0.37,0.82,1.28,1.29,2.08
	c2,3.47,4.74,8.22,9.64,8.22c1.31,0,2.59-0.36,3.8-1.08c2.83-1.67,4.58-4.44,5.08-8.01c0.85-6.16-2.37-13.91-5.84-17.55
	c-1.61-1.69-3.01-2.95-4.42-3.95c-1.99-1.42-3.9-2.52-5.85-3.34C94.97,57.99,92,57.39,88.82,57.39L88.82,57.39z"/>
<g>
	<path style="fill:#FFFFFF;" d="M135.7,241.81v39.5c0,0-2.93,0.73-6.83,0.73c-3.9,0-6.87-0.73-6.87-0.73v-39.5
		c0-2.63,6.37-4.73,8.97-4.73C133.56,237.07,135.7,239.17,135.7,241.81z"/>
	<path style="fill-rule:evenodd;clip-rule:evenodd;fill:#009FF9;" d="M154.26,318.71c-2.63,3-6.47,3.37-10.2,3.37
		c-1.23,0-2.43-0.03-3.6-0.03H129.1l-1.17-0.13c-2.67-0.47-5.93-2.43-5.93-4.83v-35.77c0,0,2.97,0.73,6.87,0.73
		c3.9,0,6.83-0.73,6.83-0.73v15.03h0.27c0.37,0,0.77,0,1.17,0.03c0.27,0,0.53,0.03,0.8,0.07c0.7,0.07,1.43,0.13,2.2,0.3
		c0.07,0.03,0.33,0.07,0.33,0.07c6,1.3,11.2,5.33,14,10.8C155.96,310.57,156.63,316.01,154.26,318.71z"/>
	<path d="M158.03,305.81c-3.33-6.53-9.57-11.33-16.7-12.9l-0.27-0.07c-0.47-0.07-0.93-0.17-1.37-0.23v-50.8
		c0-4.83-3.93-8.73-8.73-8.73c-2.73,0-12.97,2.2-12.97,8.73v75.27c0,4.63,4.73,7.97,9.2,8.8c0.1,0,0.2,0.03,0.3,0.03l1.17,0.1
		c0.13,0.03,0.27,0.03,0.43,0.03h11.37c0.57,0,1.1,0,1.67,0.03h1.93c4.5,0,9.57-0.57,13.2-4.73
		C161.03,317.04,160,309.67,158.03,305.81z M154.26,318.71c-2.63,3-6.47,3.37-10.2,3.37c-1.23,0-2.43-0.03-3.6-0.03H129.1
		l-1.17-0.13c-2.67-0.47-5.93-2.43-5.93-4.83v-75.27c0-2.63,6.37-4.73,8.97-4.73c2.6,0,4.73,2.1,4.73,4.73v54.53h0.27
		c0.37,0,0.77,0,1.17,0.03c0.27,0,0.53,0.03,0.8,0.07c0.7,0.07,1.43,0.13,2.2,0.3c0.07,0.03,0.33,0.07,0.33,0.07
		c6,1.3,11.2,5.33,14,10.8C155.96,310.57,156.63,316.01,154.26,318.71z"/>
</g>
<g>
	<path style="fill:#FFFFFF;" d="M104.66,241.81v39.5c0,0-2.93,0.73-6.83,0.73S91,281.31,91,281.31v-39.5c0-2.63,2.1-4.73,4.7-4.73
		C98.3,237.07,104.66,239.17,104.66,241.81z"/>
	<path style="fill-rule:evenodd;clip-rule:evenodd;fill:#009FF9;" d="M104.66,281.31v35.77c0,2.4-3.27,4.37-5.9,4.83l-1.17,0.13
		H86.2c-4.67,0-10.3,0.67-13.77-3.33c-2.37-2.7-1.73-8.13-0.23-11.1c2.8-5.47,8-9.5,14-10.8c0,0,0.27-0.03,0.33-0.07
		c1.7-0.33,3.13-0.4,4.47-0.4v-15.03c0,0,2.93,0.73,6.83,0.73S104.66,281.31,104.66,281.31z"/>
	<path d="M95.7,237.07c2.6,0,8.97,2.1,8.97,4.73v75.27c0,2.4-3.27,4.37-5.9,4.83l-1.17,0.13H86.2c-1.17,0-2.39,0.04-3.63,0.04
		c-3.72,0-7.53-0.38-10.13-3.38c-2.37-2.7-1.73-8.13-0.23-11.1c2.8-5.47,8-9.5,14-10.8c0,0,0.27-0.03,0.33-0.07
		c1.7-0.33,3.13-0.4,4.47-0.4v-54.53C91,239.17,93.1,237.07,95.7,237.07L95.7,237.07z M95.7,233.07c-4.8,0-8.7,3.92-8.7,8.73v50.8
		c-0.4,0.06-0.81,0.13-1.24,0.21c-0.07,0.01-0.13,0.03-0.2,0.04c-0.08,0.01-0.16,0.03-0.21,0.04c-7.12,1.54-13.37,6.36-16.71,12.89
		c-1.96,3.87-3,11.24,0.79,15.56c3.62,4.17,8.67,4.74,13.14,4.74c0.65,0,1.3-0.01,1.94-0.02c0.57-0.01,1.14-0.02,1.69-0.02h11.4
		c0.15,0,0.3-0.01,0.45-0.03l1.17-0.13c0.08-0.01,0.16-0.02,0.24-0.04c4.46-0.79,9.2-4.13,9.2-8.77v-75.27
		C108.66,235.26,98.44,233.07,95.7,233.07L95.7,233.07z"/>
</g>
<path d="M185.96,244.87c0.97,0.3,2.17,0.33,3.63,0.03c-0.7,0.13-1.33,0.2-1.93,0.2C187.03,245.11,186.46,245.04,185.96,244.87z
	 M185.96,244.87c-0.73-0.2-1.37-0.6-1.87-1.07C184.56,244.31,185.2,244.67,185.96,244.87z M181.93,239.04c0.17,1.07,0.43,2.1,0.9,3
	C182.4,241.14,182.1,240.11,181.93,239.04z"/>
<g>
	<path style="fill:#FFFFFF;" d="M189.73,203.91c-2.4,2.93-7.37,6.67-12.37,6.87c-1.4-3-3.07-5.9-5.07-8.63
		c-2.07-2.83-18.73-18.17-9.6-20.93c2.43-0.73,5.5,1.43,7.47,2.57C178.96,188.84,185.4,195.81,189.73,203.91z"/>
	<path style="fill:#0088C5;" d="M195.93,240.97c-0.77,1.33-2.4,2.47-4.07,3.2c-0.77,0.33-1.53,0.57-2.27,0.73
		c-1.47,0.3-2.67,0.27-3.63-0.03c-0.77-0.2-1.4-0.57-1.87-1.07c-0.2-0.17-0.33-0.33-0.5-0.53c-0.3-0.37-0.53-0.77-0.77-1.2v-0.03
		c-0.47-0.9-0.73-1.93-0.9-3c-0.1-0.57-0.17-1.1-0.2-1.67c-0.07-0.53-0.1-1.1-0.1-1.63c-0.03-1.63-0.07-3.17-0.07-4.7
		c-0.07-3.87-0.2-7.5-1.17-11.3c-0.2-0.77-0.43-1.53-0.7-2.3c0-0.07-0.03-0.13-0.07-0.23c-0.2-0.67-0.67-2.37-1.2-4
		c-0.33-0.83-0.7-1.63-1.07-2.43c5-0.2,9.97-3.93,12.37-6.87h0.03c0.03-0.03,0.1,0,0.13,0.07c0.2,0.2,0.53,0.8,0.9,1.57
		c0.13,0.37,0.33,0.77,0.53,1.2c0.13,0.2,0.23,0.43,0.33,0.7c0.17,0.43,0.37,0.9,0.53,1.3c0.1,0.23,0.2,0.43,0.3,0.67
		c0.13,0.4,0.3,0.77,0.43,1.1c0.17,0.47,0.3,0.8,0.37,0.93c1.17,3.07,2.13,6.23,2.87,9.43C197.6,227.04,199.6,234.87,195.93,240.97z
		"/>
	<path d="M200.23,220.67l-0.17-0.7c-0.8-3.47-1.83-6.83-3.07-10c-1.8-4.6-2.9-7.33-4.2-8.77c-4.97-8.83-11.93-15.87-20.63-20.9
		l-0.73-0.43c-1.97-1.2-4.67-2.8-7.67-2.8c-0.77,0-1.53,0.1-2.23,0.3c-3.7,1.13-4.9,3.67-5.3,5.07
		c-1.57,5.77,4.27,12.67,10.87,19.83c0.83,0.9,1.73,1.9,1.97,2.23c2.2,2.97,4.07,6.37,5.6,10.07c0.33,1.07,0.63,2.13,0.87,2.9
		c0.17,0.63,0.3,1.1,0.37,1.27c1.6,4.57,1.63,8.87,1.7,13.83c0,1.07,0,2.13,0.03,3.23c0.27,11.6,6.4,13.3,10.03,13.3
		c0.9,0,1.83-0.1,2.8-0.3c0.97-0.2,2-0.53,3-0.97c1.53-0.7,4.37-2.2,5.9-4.8C203.73,235.77,201.7,227.04,200.23,220.67z
		 M195.93,240.97c-0.77,1.33-2.4,2.47-4.07,3.2c-0.77,0.33-1.53,0.57-2.27,0.73c-1.47,0.3-2.67,0.27-3.63-0.03
		c-0.77-0.2-1.4-0.57-1.87-1.07c-0.2-0.17-0.33-0.33-0.5-0.53c-0.3-0.37-0.57-0.77-0.77-1.2v-0.03c-0.47-0.9-0.73-1.93-0.9-3
		c-0.1-0.53-0.17-1.1-0.2-1.67c-0.07-0.53-0.1-1.1-0.1-1.63c-0.03-1.63-0.07-3.17-0.07-4.7c-0.07-3.87-0.2-7.5-1.17-11.3
		c-0.2-0.77-0.43-1.53-0.7-2.3c0-0.07-0.03-0.13-0.07-0.23c-0.2-0.67-0.67-2.37-1.2-4c-0.33-0.83-0.7-1.63-1.07-2.43
		c-1.4-3-3.07-5.9-5.07-8.63c-2.07-2.83-18.73-18.17-9.6-20.93c0.33-0.1,0.7-0.13,1.07-0.13c2.2,0,4.7,1.73,6.4,2.7
		c8.83,5.07,15.17,12.07,19.57,20.13h0.03c0.03-0.03,0.1,0,0.13,0.07c0.2,0.2,0.53,0.8,0.9,1.57c0.2,0.37,0.37,0.77,0.53,1.2
		c0.13,0.2,0.23,0.43,0.33,0.7c0.2,0.43,0.37,0.87,0.53,1.3c0.1,0.23,0.2,0.43,0.3,0.67c0.17,0.4,0.3,0.77,0.43,1.1
		c0.17,0.47,0.3,0.8,0.37,0.93c1.17,3.07,2.13,6.23,2.87,9.43C197.6,227.04,199.6,234.87,195.93,240.97z"/>
</g>
<g>
	<path style="fill:#FFFFFF;" d="M54.36,202.14c-2,2.73-3.67,5.63-5.07,8.63c-4.97-0.2-9.97-3.93-12.37-6.87
		c4.37-8.1,10.77-15.07,19.6-20.13c1.97-1.13,5-3.3,7.43-2.57C73.1,183.97,56.43,199.31,54.36,202.14z"/>
	<path style="fill:#0088C5;" d="M49.3,210.77c-0.37,0.8-0.73,1.6-1.07,2.43c-0.53,1.63-1,3.33-1.17,4c-0.03,0.1-0.07,0.17-0.07,0.23
		c-2.17,6.2-1.8,11.83-1.97,18.3c0,0.53-0.03,1.1-0.1,1.63c-0.03,0.57-0.1,1.1-0.2,1.67c-0.17,1.07-0.43,2.1-0.9,3v0.03
		c-0.2,0.43-0.47,0.83-0.77,1.2c-0.17,0.2-0.3,0.37-0.5,0.53c-0.47,0.5-1.1,0.87-1.87,1.07c-0.97,0.3-2.17,0.33-3.63,0.03
		c-0.73-0.17-1.5-0.4-2.27-0.73c-1.67-0.73-3.27-1.87-4.07-3.2c-3.67-6.1-1.67-13.93-0.23-20.1c0.73-3.2,1.7-6.37,2.9-9.43
		c0.03-0.13,0.2-0.47,0.37-0.93c0.13-0.33,0.3-0.7,0.43-1.1c0.77-1.87,1.87-4.43,2.43-5.23c0.13-0.23,0.23-0.33,0.3-0.27
		C39.33,206.84,44.33,210.57,49.3,210.77z"/>
	<path d="M44.73,239.04c-0.17,1.07-0.47,2.1-0.9,3C44.3,241.14,44.56,240.11,44.73,239.04z M42.56,243.81
		c-0.5,0.47-1.13,0.87-1.87,1.07C41.46,244.67,42.1,244.31,42.56,243.81z M37.06,244.91c1.47,0.3,2.67,0.27,3.63-0.03
		c-0.5,0.17-1.07,0.23-1.7,0.23C38.4,245.11,37.76,245.04,37.06,244.91z M36.63,204.17c0.13-0.17,0.23-0.27,0.3-0.27
		C36.86,203.84,36.76,203.94,36.63,204.17z"/>
	<path d="M70.43,182.44c-0.4-1.4-1.57-3.93-5.3-5.07c-0.7-0.2-1.43-0.3-2.2-0.3c-3,0-5.7,1.6-7.67,2.8l-0.73,0.43
		c-8.73,5.03-15.67,12.07-20.67,20.9c-1.3,1.43-2.4,4.13-4.2,8.77c-1.23,3.17-2.27,6.53-3.07,10l-0.17,0.7
		c-1.47,6.37-3.5,15.1,0.87,22.37c1.53,2.6,4.37,4.1,5.9,4.8c1,0.43,2.03,0.77,3.03,0.97c0.97,0.2,1.87,0.3,2.77,0.3
		c3.63,0,9.77-1.7,10.03-13.3c0.03-1.1,0.03-2.17,0.07-3.23c0.03-4.97,0.07-9.27,1.67-13.83c0.07-0.17,0.2-0.63,0.37-1.27
		c0.23-0.77,0.53-1.83,0.87-2.9c1.53-3.7,3.43-7.1,5.6-10.07c0.23-0.33,1.17-1.33,1.97-2.23C66.2,195.11,72,188.21,70.43,182.44z
		 M54.36,202.14c-2,2.73-3.67,5.63-5.07,8.63c-0.37,0.8-0.73,1.6-1.07,2.43c-0.53,1.63-1,3.33-1.17,4c-0.03,0.1-0.07,0.17-0.07,0.23
		c-2.17,6.2-1.8,11.83-1.97,18.3c0,0.53-0.03,1.1-0.1,1.63c-0.03,0.57-0.1,1.13-0.2,1.67c-0.17,1.07-0.43,2.1-0.9,3v0.03
		c-0.2,0.43-0.47,0.83-0.77,1.2c-0.17,0.2-0.3,0.37-0.5,0.53c-0.47,0.5-1.1,0.87-1.87,1.07c-0.97,0.3-2.17,0.33-3.63,0.03
		c-0.73-0.17-1.5-0.4-2.27-0.73c-1.67-0.73-3.27-1.87-4.07-3.2c-3.67-6.1-1.67-13.93-0.23-20.1c0.73-3.2,1.7-6.37,2.9-9.43
		c0.03-0.13,0.2-0.47,0.37-0.93c0.13-0.33,0.27-0.7,0.43-1.1c0.77-1.87,1.87-4.43,2.43-5.23c0.13-0.23,0.23-0.33,0.3-0.27h0.03
		c4.37-8.07,10.73-15.07,19.57-20.13c1.67-0.97,4.17-2.7,6.4-2.7c0.33,0,0.7,0.03,1.03,0.13C73.1,183.97,56.43,199.31,54.36,202.14z
		"/>
</g>
<g>
	<path style="fill-rule:evenodd;clip-rule:evenodd;fill:#009FF9;" d="M169.76,211.57c0.53,9.97-1.93,24.6-8.57,33.17
		c-7.83,10.1-22.13,16.7-39.2,18.1c-2.03,0.17-4.27,0.27-6.4,0.27h-4.53c-2.13,0-4.37-0.1-6.4-0.27c-17.07-1.4-31.37-8-39.2-18.1
		c-6.63-8.57-9.1-23.2-8.57-33.17c0.3-5.57,1.53-11.2,2.7-16.63c0.6-2.8,1.23-5.6,1.73-8.43c0.53-3.1,0.2-8.9,0.17-9.2
		c-0.4-4.37-1.67-8.4-2.9-11.8c-4.8-13.4-5.6-25.93-2.53-39.43c2.73-12.2,8.53-22.57,15.87-28.4c12.2-9.73,26.37-15.33,38.9-15.33h5
		c12.53,0,26.73,5.6,38.93,15.33c7.3,5.83,13.1,16.2,15.87,28.4c3.03,13.5,2.23,26.03-2.57,39.43c-1.2,3.4-2.5,7.43-2.9,11.87
		c-0.03,0.23-0.37,6.03,0.2,9.13c0.47,2.8,1.1,5.6,1.7,8.4C168.26,200.34,169.46,206.01,169.76,211.57z"/>
	<path style="fill-rule:evenodd;clip-rule:evenodd;fill:#FFFFFF;" d="M111.95,88.72c-5.43,0.08-10.84,0.89-15.85,2.36
		c-8.18,2.4-17.89,6.66-22.96,13.63c-2.24,3.08-3.92,6.55-5.09,10.18c-0.88,2.74-0.65,6.76-2.62,8.97
		c-3.99,4.48-5.09,7.15-6.74,13.12c-1.56,5.63-1.78,11.81,0.03,17.41c4.7,14.57,19.29,22.19,33.23,24.27
		c1.93,0.29,3.89,0.57,5.84,0.86c9.05,1.34,18.03,2.23,27.15,3c14.04,1.19,30-2.85,37.93-15.94c3.05-5.03,4.26-11.1,4.04-16.93
		c-0.23-6.2-0.69-9.04-3.53-14.33c-1.4-2.6-0.26-6.46-0.48-9.33c-0.29-3.8-1.13-7.56-2.6-11.08c-3.32-7.96-9.68-14.09-17.09-18.31
		c-3-1.71-6.17-3.13-9.42-4.29C127.44,90.04,118.7,88.63,111.95,88.72z"/>
	<path style="fill-rule:evenodd;clip-rule:evenodd;fill:#FDBDB8;" d="M133.69,147.93c-0.95,8.15,4.83,15.52,12.91,16.47
		c8.08,0.95,15.41-4.89,16.36-13.04c0.95-8.14-4.83-15.51-12.91-16.46C141.97,133.96,134.64,139.79,133.69,147.93"/>
	<path style="fill-rule:evenodd;clip-rule:evenodd;fill:#FDBDB8;" d="M62.14,139.56c-0.95,8.15,4.83,15.52,12.92,16.47
		c8.08,0.95,15.41-4.89,16.36-13.04c0.95-8.14-4.83-15.51-12.91-16.46C70.42,125.59,63.09,131.42,62.14,139.56"/>
	<path d="M170.96,194.04c-0.6-2.73-1.2-5.47-1.67-8.2c-0.4-2.2-0.23-6.7-0.13-8.17c0.33-3.9,1.53-7.67,2.67-10.83
		c5-13.97,5.87-27.57,2.7-41.67c-2.97-13.07-9.27-24.23-17.27-30.63c-12.93-10.3-28-16.2-41.43-16.2h-5c-13.43,0-28.5,5.9-41.4,16.2
		c-8.03,6.4-14.33,17.57-17.27,30.63c-3.2,14.1-2.33,27.7,2.67,41.67c1.13,3.17,2.33,6.93,2.7,10.77c0.03,0.73,0.1,2.17,0.1,3.7
		c0,1.63-0.07,3.37-0.27,4.53c-0.47,2.73-1.07,5.5-1.67,8.23c-1.23,5.6-2.5,11.4-2.8,17.3c-0.57,11.03,2.1,26.4,9.4,35.8
		c8.53,11,23.87,18.17,42.03,19.67c2.17,0.17,4.5,0.27,6.77,0.27h4.5c2.27,0,4.57-0.1,6.73-0.27c18.2-1.5,33.5-8.67,42.03-19.67
		c7.3-9.43,9.97-24.77,9.4-35.8C173.46,205.47,172.2,199.67,170.96,194.04z M115.6,263.11h-4.53c-2.13,0-4.37-0.1-6.4-0.27
		c-17.07-1.4-31.37-8-39.2-18.1c-6.63-8.57-9.1-23.2-8.57-33.17c0.3-5.57,1.53-11.2,2.7-16.63c0.6-2.8,1.23-5.6,1.73-8.43
		c0.53-3.1,0.2-8.9,0.17-9.2c-0.4-4.37-1.67-8.4-2.9-11.8c-4.8-13.4-5.6-25.93-2.53-39.43c2.73-12.2,8.53-22.57,15.87-28.4
		c12.2-9.73,26.37-15.33,38.9-15.33h5c12.53,0,26.73,5.6,38.93,15.33c7.3,5.83,13.1,16.2,15.87,28.4
		c3.03,13.5,2.23,26.03-2.57,39.43c-1.2,3.4-2.5,7.43-2.9,11.87c-0.03,0.23-0.37,6.03,0.2,9.13c0.47,2.8,1.1,5.6,1.7,8.4
		c1.2,5.43,2.4,11.1,2.7,16.67c0.53,9.97-1.93,24.6-8.57,33.17c-7.83,10.1-22.13,16.7-39.2,18.1
		C119.96,263.01,117.73,263.11,115.6,263.11z"/>
</g>
<g>
	<path style="fill-rule:evenodd;clip-rule:evenodd;" d="M110.6,140.43c-0.13,1.08,0.91,2.08,2.33,2.25s2.67-0.57,2.8-1.65
		c0.13-1.07-0.92-2.08-2.34-2.25S110.72,139.36,110.6,140.43"/>
	<g>
		<path style="fill-rule:evenodd;clip-rule:evenodd;fill:#D54848;" d="M115.33,154.37l-1,8.47c-0.1,0.8-0.7,1.73-1.5,2.37
			c-0.5,0.37-1.43,1-2.63,0.87c-0.9-0.1-1.8-0.67-2.43-1.57c-0.6-0.8-0.93-1.77-0.83-2.53l0.97-8.47c0.1-0.03,0.23-0.07,0.33-0.13
			c0.13,0.2,0.33,0.33,0.5,0.37l5.9,0.7c0.13,0,0.33-0.03,0.5-0.2C115.2,154.27,115.26,154.34,115.33,154.37z"/>
		<path style="fill-rule:evenodd;clip-rule:evenodd;fill:#FFFFFF;" d="M115.13,154.24c-0.17,0.17-0.37,0.2-0.5,0.2l-5.9-0.7
			c-0.17-0.03-0.37-0.17-0.5-0.37c0.3-0.1,0.57-0.23,0.8-0.37c1.2-0.67,2.13-1.73,3.07-3.2c0.6,1.63,1.2,2.9,2.2,3.83
			C114.56,153.84,114.83,154.07,115.13,154.24z"/>
		<path d="M120.76,152.61c-0.47-0.07-0.9,0.13-1.17,0.43c-0.13-0.03-0.27-0.07-0.4-0.1l-0.7-0.17c-2.87-0.67-3.27-1.7-4.73-6.53
			c-0.03-0.07-0.07-0.13-0.1-0.17c-0.03-0.1-0.07-0.2-0.13-0.27c-0.1-0.1-0.17-0.17-0.27-0.23c-0.03-0.03-0.07-0.1-0.13-0.1
			c-0.13-0.1-0.27-0.13-0.4-0.17h-0.1c-0.07-0.03-0.13,0-0.23,0c-0.1,0-0.2,0-0.3,0.03c-0.07,0.03-0.13,0.07-0.17,0.1
			c-0.1,0.03-0.2,0.07-0.27,0.13c-0.1,0.07-0.13,0.13-0.2,0.23c-0.07,0.03-0.1,0.07-0.13,0.13c-2.53,4.3-3.17,5.27-6.03,5.27h-0.1
			l-0.73,0.03h-0.4c-0.2-0.4-0.57-0.67-1.03-0.73c-0.7-0.07-1.4,0.47-1.47,1.2c-0.07,0.57,0.1,1.13,0.47,1.53
			c0.5,0.57,1.27,0.67,1.97,0.67h0.57l0.6-0.03c0,0,0,0,0.03,0l-0.93,7.8c-0.17,1.4,0.33,3.07,1.37,4.43c1.1,1.5,2.6,2.4,4.27,2.6
			c0.2,0.03,0.43,0.03,0.63,0.03c1.37,0,2.73-0.5,3.93-1.43c1.4-1.1,2.33-2.67,2.53-4.17l0.9-7.77l0.6,0.17c0.5,0.1,1,0.27,1.5,0.27
			c0.4,0,0.77-0.1,1.13-0.33c0.43-0.3,0.73-0.8,0.8-1.4C122.03,153.34,121.5,152.67,120.76,152.61z M114.33,162.84
			c-0.1,0.8-0.7,1.73-1.5,2.37c-0.5,0.37-1.43,1-2.63,0.87c-0.9-0.1-1.8-0.67-2.43-1.57c-0.6-0.8-0.93-1.77-0.83-2.53l0.97-8.47
			c0.1-0.03,0.23-0.07,0.33-0.13c0.3-0.1,0.57-0.23,0.8-0.37c1.2-0.67,2.13-1.73,3.07-3.2c0.6,1.63,1.2,2.9,2.2,3.83
			c0.27,0.2,0.53,0.43,0.83,0.6c0.07,0.03,0.13,0.1,0.2,0.13L114.33,162.84z"/>
	</g>
	<g>
		<path d="M95.1,136.22c-0.61,0-1.14-0.44-1.24-1.06c-0.1-0.68,0.37-1.32,1.05-1.42l2.91-0.44l-2.73-1.11
			c-0.64-0.26-0.95-0.99-0.69-1.63c0.26-0.64,0.99-0.94,1.63-0.69l6.97,2.82c0.52,0.21,0.84,0.75,0.77,1.31
			c-0.07,0.56-0.5,1.01-1.05,1.09l-7.43,1.12C95.22,136.21,95.16,136.22,95.1,136.22z"/>
	</g>
	<g>
		<path d="M132.78,140.63c-0.16,0-0.31-0.03-0.47-0.09l-6.97-2.81c-0.52-0.21-0.84-0.74-0.77-1.3c0.07-0.56,0.49-1.01,1.05-1.09
			l7.43-1.13c0.71-0.1,1.32,0.36,1.43,1.05c0.1,0.68-0.36,1.32-1.05,1.42l-2.92,0.44l2.73,1.1c0.64,0.26,0.95,0.99,0.69,1.63
			C133.74,140.33,133.27,140.63,132.78,140.63z"/>
	</g>
</g>
<g>
	<polygon style="fill-rule:evenodd;clip-rule:evenodd;fill:#AE7BFF;" points="175.77,48.68 170.27,50.58 168.77,56.15 165.23,51.55 
		159.47,51.82 162.77,47.05 160.7,41.65 166.27,43.32 170.77,39.68 170.9,45.49 	"/>
	<path style="fill:#5429A8;" d="M174.2,43.65l-0.23-10.77l-8.43,6.73l-10.33-3.1l3.83,10.1l-6.17,8.87l10.8-0.53l6.53,8.6l2.83-10.4
		l10.2-3.57L174.2,43.65z M165.23,51.55l-5.77,0.27l3.3-4.77l-2.07-5.4l5.57,1.67l4.5-3.63l0.13,5.8l4.87,3.2l-5.5,1.9l-1.5,5.57
		L165.23,51.55z"/>
</g>
<g>
	<polygon style="fill-rule:evenodd;clip-rule:evenodd;fill:#E8B21C;" points="84.83,27.8 87,32.07 82.27,31.2 78.87,34.6 
		78.23,29.84 73.93,27.67 78.3,25.57 79.03,20.84 82.37,24.3 87.1,23.54 	"/>
	<path style="fill:#E5861F;" d="M93.23,19.2l-9.67,1.53l-6.8-7.1l-1.5,9.7L66.4,27.6l8.77,4.43l1.3,9.73l6.93-6.97l9.67,1.77
		l-4.47-8.73L93.23,19.2z M78.87,34.6l-0.63-4.77l-4.3-2.17l4.37-2.1l0.73-4.73l3.33,3.47l4.73-0.77l-2.27,4.27L87,32.07l-4.73-0.87
		L78.87,34.6z"/>
</g>
<g>
	<circle style="fill-rule:evenodd;clip-rule:evenodd;fill:#F2D211;" cx="48.58" cy="55.92" r="1.67"/>
	<path style="fill:#E8AE1C;" d="M48.58,50.92c-2.77,0-5,2.27-5,5c0,2.77,2.23,5,5,5c2.77,0,5-2.23,5-5
		C53.58,53.18,51.34,50.92,48.58,50.92z M48.58,57.58c-0.93,0-1.67-0.73-1.67-1.67c0-0.9,0.73-1.67,1.67-1.67
		c0.93,0,1.67,0.77,1.67,1.67C50.24,56.85,49.51,57.58,48.58,57.58z"/>
</g>
</svg>
