<?xml version="1.0" encoding="utf-8"?>
<!-- Generator: Adobe Illustrator 26.5.0, SVG Export Plug-In . SVG Version: 6.00 Build 0)  -->
<svg version="1.1" id="레이어_1" xmlns="http://www.w3.org/2000/svg" xmlns:xlink="http://www.w3.org/1999/xlink" x="0px"
	 y="0px" viewBox="0 0 136 254" style="enable-background:new 0 0 136 254;" xml:space="preserve">
<g>
	<path style="fill:#7D7D7D;" d="M77.5,203.5c0,0,15.1,17.5,14,35l0.1,9.1c0,0,1.9,5.2,11.8,5.2s27.2,2,25-11.5
		c-2.2-13.5-11-13.8-15-13.1c0,0-0.8-26.7-10.3-36.6S77.5,203.5,77.5,203.5z"/>
	<path d="M111,254c-1.4,0-2.8,0-4.2-0.1c-1.2,0-2.4,0-3.4,0c-10.6,0-12.8-5.7-12.9-5.9c0-0.1-0.1-0.2-0.1-0.4l-0.1-9.1
		c1.1-16.9-13.6-34.1-13.7-34.3c-0.3-0.4-0.4-1-0.1-1.4c0.4-0.6,10.6-14.3,20-15c2.8-0.2,5.3,0.8,7.3,2.9c8.6,9,10.3,30.6,10.6,36.1
		c2.3-0.2,5.6,0,8.6,2.1c3.3,2.3,5.5,6.4,6.4,12.1c0.6,3.5-0.1,6.4-1.9,8.5C124.2,253.4,117.4,254,111,254z M92.7,247.4
		c0.4,0.8,2.6,4.3,10.7,4.3c1.1,0,2.3,0,3.5,0c6.9,0.1,15.6,0.3,19-3.6c1.4-1.6,1.8-3.8,1.4-6.6c-0.8-5.1-2.7-8.6-5.5-10.6
		c-3-2.1-6.4-1.9-8.2-1.6c-0.3,0.1-0.7,0-0.9-0.2c-0.3-0.2-0.4-0.5-0.4-0.8c0-0.3-0.9-26.4-10-35.9c-1.6-1.6-3.4-2.4-5.5-2.2
		c-7.2,0.5-15.6,10.6-17.7,13.3c2.8,3.5,14.7,19.1,13.7,35.1L92.7,247.4z"/>
</g>
<g>
	<path style="fill:#7D7D7D;" d="M58.5,203.5c0,0-15.1,17.5-14,35l-0.1,9.1c0,0-1.9,5.2-11.8,5.2s-27.2,2-25-11.5s11-13.8,15-13.1
		c0,0,0.8-26.7,10.3-36.6S58.5,203.5,58.5,203.5z"/>
	<path d="M25,254c-6.4,0-13.2-0.6-16.6-4.4c-1.8-2.1-2.5-5-1.9-8.5c0.9-5.7,3.1-9.7,6.4-12.1c3.1-2.1,6.4-2.3,8.6-2.1
		c0.3-5.5,1.9-27.1,10.6-36.1c2-2.1,4.5-3.1,7.3-2.9c9.4,0.6,19.5,14.4,20,15c0.3,0.4,0.3,1-0.1,1.4c-0.1,0.2-14.8,17.4-13.7,34.2
		l-0.1,9.2c0,0.1,0,0.3-0.1,0.4c-0.1,0.2-2.3,5.9-12.9,5.9c-1.1,0-2.2,0-3.4,0C27.8,254,26.4,254,25,254z M20.1,229.1
		c-1.7,0-3.9,0.4-5.9,1.8c-2.8,2-4.7,5.5-5.5,10.6c-0.5,2.9,0,5.1,1.4,6.6c3.4,3.9,12.1,3.8,19,3.6c1.2,0,2.4,0,3.5,0
		c8.1,0,10.3-3.5,10.7-4.3l0.1-8.9c-1-15.9,10.8-31.5,13.7-35c-2.2-2.8-10.5-12.9-17.7-13.3c-2.1-0.1-3.9,0.6-5.5,2.2
		c-9.1,9.5-10,35.6-10,35.9c0,0.3-0.2,0.6-0.4,0.8c-0.3,0.2-0.6,0.3-0.9,0.2C21.8,229.2,21,229.1,20.1,229.1z"/>
</g>
<g>
	<path style="fill:#7D7D7D;" d="M107.6,132.7c-1.7-3.1-7.7-11.2-7.7-11.2H34.2c0,0-0.6,1.3-5.8,11.2c-7.8,14.7-15.3,38.2-9.1,54.3
		c7.2,18.7,28.6,26.1,48.7,26.1s41.5-7.4,48.7-26.1C122.9,170.9,115.5,147.4,107.6,132.7z"/>
	<path d="M68,214.2c-24.7,0-43.3-10-49.8-26.8c-6.3-16.3,1-39.9,9.2-55.2c5.1-9.6,5.8-11.1,5.8-11.1c0.2-0.4,0.6-0.7,1-0.7H100
		c0.4,0,0.7,0.2,0.9,0.5c0.2,0.3,6.1,8.2,7.8,11.3l0,0c8.1,15.3,15.4,38.9,9.1,55.2C111.3,204.2,92.7,214.2,68,214.2z M34.9,122.6
		c-0.5,1.1-2,3.9-5.6,10.6c-7.9,14.9-15,37.8-9,53.3c6.1,15.9,23.9,25.3,47.7,25.3s41.6-9.5,47.7-25.3c6-15.6-1.1-38.5-9-53.3l0,0
		c-1.4-2.6-6-8.9-7.2-10.6H34.9z"/>
</g>
<g>
	<g>
		<path style="fill:#CC0016;" d="M22.1,126.8c0,0-0.3,21.9-3.5,32.5c-1.3,4.2-2.3,8.4-2.8,12.7c-0.6,5.7-1.2,13-0.7,18.2
			c0,0,25.5,5.9,46.3,3v-38.3L58,137.1L22.1,126.8z"/>
		<path d="M48.7,195.2c-17.2,0-33.7-3.8-33.9-3.8c-0.5-0.1-0.8-0.5-0.9-1c-0.5-5.4,0.1-13,0.7-18.4c0.4-4,1.3-8.2,2.8-12.9
			c3.2-10.3,3.5-32,3.5-32.2c0-0.4,0.2-0.7,0.5-0.9c0.3-0.2,0.6-0.3,1-0.2l35.9,10.3c0.4,0.1,0.7,0.5,0.8,0.9l3.4,17.8
			c0,0.1,0,0.1,0,0.2v38.3c0,0.6-0.4,1-1,1.1C57.4,194.9,53,195.2,48.7,195.2z M16.2,189.3c4.4,0.9,26,5.2,44.1,2.9v-37.2L57,138
			l-33.8-9.7c-0.1,5.1-0.7,22.2-3.6,31.4c-1.4,4.6-2.3,8.7-2.7,12.5C16.4,177.2,15.8,184.2,16.2,189.3z"/>
	</g>
	<g>
		<path style="fill:#3D3D3D;" d="M25.4,145.5c0,0.4,0,0.7,0.2,1.1c0.2,0.4,0.6,0.6,1,0.8c3.8,1.7,8,2.1,12.1,2.3
			c3.5,0.2,7,0.3,10.4,0.3c1.1,0,2.2,0,3.3-0.4c0.4-0.2,0.9-0.4,1.1-0.8c0.2-0.3,0.2-0.7,0.2-1.1c0.1-1.2,0.2-2.5,0.2-3.7
			c0-0.4,0-0.9-0.2-1.2c-0.3-0.4-0.8-0.5-1.3-0.6c-8.3-1-16.7-1.2-25-1.3c-0.5,0-1.1,0-1.5,0.2C24.8,141.7,25.4,144.4,25.4,145.5z"
			/>
		<path d="M49.4,151.1c-0.1,0-0.2,0-0.3,0c-3.5,0-7-0.1-10.5-0.3c-4.1-0.2-8.5-0.6-12.5-2.4c-0.4-0.2-1.1-0.5-1.5-1.2
			c-0.3-0.6-0.3-1.2-0.3-1.6l0,0c0-0.2,0-0.5-0.1-0.8c-0.2-1.6-0.4-3.8,1.2-4.6c0.7-0.4,1.5-0.4,2.1-0.4c8.2,0.1,16.8,0.2,25.1,1.3
			c0.5,0.1,1.5,0.2,2.1,1c0.5,0.7,0.4,1.5,0.4,1.9l-0.2,3.7c0,0.4-0.1,1-0.4,1.6c-0.3,0.6-0.9,1-1.7,1.3
			C51.7,151,50.5,151.1,49.4,151.1z M27.2,142c-0.3,0-0.6,0-0.7,0.1c-0.2,0.3-0.1,1.8,0,2.4c0,0.4,0.1,0.7,0.1,1l0,0
			c0,0.1,0,0.4,0,0.5c0,0,0.1,0.1,0.5,0.3c3.6,1.7,7.8,2,11.7,2.2c3.5,0.2,7,0.3,10.4,0.3c1.1,0,2.1,0,2.9-0.3
			c0.3-0.1,0.5-0.2,0.5-0.3c0.1-0.1,0.1-0.4,0.1-0.6l0.2-3.7c0-0.1,0-0.4,0-0.5c0,0-0.1,0-0.5-0.1c-8.3-1-16.7-1.1-24.9-1.3
			C27.4,142,27.3,142,27.2,142z"/>
	</g>
	<g>
		<path style="fill:#3D3D3D;" d="M15.1,190.3c0,0,0.4,4.6,1.9,7.7c0,0,32.5,4.3,43.7,2.9l0.7-7.7C61.4,193.2,22.8,194,15.1,190.3z"
			/>
		<path d="M55,202.3c-13.7,0-37.1-3-38.2-3.2c-0.4,0-0.7-0.3-0.9-0.6c-1.6-3.3-1.9-7.9-2-8.1c0-0.4,0.2-0.8,0.5-1s0.8-0.3,1.1-0.1
			c7.3,3.5,45.4,2.8,45.8,2.8c0.3,0,0.6,0.1,0.9,0.4c0.2,0.2,0.3,0.6,0.3,0.9l-0.7,7.7c-0.1,0.5-0.5,0.9-1,1
			C59.2,202.2,57.3,202.3,55,202.3z M17.7,197c4.5,0.6,31.1,3.8,41.9,2.9l0.5-5.5c-6.4,0.1-34.1,0.3-43.7-2.4
			C16.7,193.3,17.1,195.3,17.7,197z"/>
	</g>
	<path style="fill:#DFDFDF;" d="M45.2,147.1c-7.6,0-13.9-1.2-14.2-1.3c-0.6-0.1-1-0.7-0.9-1.3c0.1-0.6,0.7-1,1.3-0.9
		c0.1,0,8.3,1.6,17.1,1.2c0.6,0,1.2,0.4,1.2,1.1c0,0.6-0.4,1.2-1.1,1.2C47.5,147.1,46.3,147.1,45.2,147.1z"/>
	<g>
		<path style="fill:#3D3D3D;" d="M18.4,170.7c7.3,3,15.5,3.2,23.4,3.4c3.7,0.1,7.5,0.2,10.8-1.5c0.2-1.1,0.3-2.5-0.7-3.1
			c-0.3-0.2-0.6-0.2-1-0.3c-6.1-0.9-12.4-0.2-18.6-0.9c-2.9-0.3-5.7-1-8.6-1.3c-1.2-0.2-4.4-0.8-5.3,0.3
			C18.2,167.7,18.3,170.7,18.4,170.7z"/>
		<path d="M44.2,175.3c-0.9,0-1.7,0-2.5,0c-7.6-0.2-16.1-0.4-23.8-3.5l0,0c-0.3-0.1-0.6-0.5-0.7-0.8c0,0-0.4-3.4,0.3-4.3
			c1.1-1.3,3.5-1.1,5.8-0.8l0.5,0.1c1.4,0.2,2.7,0.4,4.1,0.6c1.5,0.3,3,0.5,4.5,0.7c2.8,0.3,5.8,0.3,8.6,0.4c3.3,0,6.7,0,10,0.5
			c0.4,0.1,0.9,0.1,1.4,0.4c1.2,0.7,1.6,2.1,1.3,4.2c-0.1,0.4-0.3,0.7-0.6,0.8C50.3,175.1,47.1,175.3,44.2,175.3z M19.4,169.9
			c7.1,2.7,14.8,2.9,22.4,3.1c3.2,0.1,6.7,0.2,9.7-1.1c0.1-0.8-0.1-1.2-0.2-1.3c-0.1-0.1-0.4-0.1-0.6-0.1c-3.2-0.5-6.5-0.5-9.7-0.5
			c-2.9,0-5.9,0-8.9-0.4c-1.6-0.2-3.1-0.4-4.6-0.7c-1.3-0.2-2.6-0.5-3.9-0.6l-0.5-0.1c-2.3-0.3-3.2-0.3-3.6-0.1
			C19.4,168.5,19.4,169.4,19.4,169.9z"/>
	</g>
	<path d="M33.5,182.4c-0.4,0-0.9,0-1.4-0.1c-1.7-0.3-3.1-0.9-4.1-1.9c-1-1.1-1.6-2.6-1.5-4.2c0.1-1.4,0.6-2.8,1.6-4
		c1.3-1.7,3.3-2.3,5.4-1.8c2.6,0.6,4.8,2.8,5.3,5.3c0.6,2.9-1.3,5.8-4,6.5C34.5,182.3,34,182.4,33.5,182.4z M32.2,172.5
		c-0.7,0-1.6,0.3-2.2,1.1h0c-0.7,0.8-1,1.8-1.1,2.7c0,0.9,0.3,1.9,0.9,2.5c0.6,0.6,1.5,1,2.8,1.2c0.8,0.1,1.3,0.1,1.8,0
		c1.5-0.4,2.6-2.2,2.3-3.9c-0.3-1.6-1.9-3.1-3.6-3.5C32.8,172.6,32.5,172.5,32.2,172.5z M29,173L29,173L29,173z"/>
</g>
<g>
	<g>
		<path style="fill:#CC0016;" d="M113.9,126.8c0,0,0.3,21.9,3.5,32.5c1.3,4.2,2.3,8.4,2.8,12.7c0.6,5.7,1.2,13,0.7,18.2
			c0,0-25.5,5.9-46.3,3v-38.3l3.4-17.8L113.9,126.8z"/>
		<path d="M87.3,195.2c-4.3,0-8.7-0.2-12.9-0.8c-0.6-0.1-1-0.6-1-1.1v-38.3c0-0.1,0-0.1,0-0.2l3.4-17.8c0.1-0.4,0.4-0.8,0.8-0.9
			l35.9-10.3c0.3-0.1,0.7,0,1,0.2c0.3,0.2,0.5,0.5,0.5,0.9c0,0.2,0.3,21.9,3.5,32.2c1.5,4.7,2.4,8.9,2.8,12.9
			c0.6,5.4,1.2,13.1,0.7,18.4c0,0.5-0.4,0.9-0.9,1C120.9,191.4,104.5,195.2,87.3,195.2z M75.7,192.2c18.1,2.3,39.7-2,44.1-2.9
			c0.4-5.1-0.2-12.1-0.7-17.2c-0.4-3.8-1.3-7.9-2.7-12.5c-2.8-9.1-3.4-26.2-3.6-31.4L79,138l-3.3,17V192.2z"/>
	</g>
	<g>
		<path style="fill:#3D3D3D;" d="M110.6,145.5c0,0.4,0,0.7-0.2,1.1c-0.2,0.4-0.6,0.6-1,0.8c-3.8,1.7-8,2.1-12.1,2.3
			c-3.5,0.2-7,0.3-10.4,0.3c-1.1,0-2.2,0-3.3-0.4c-0.4-0.2-0.9-0.4-1.1-0.8c-0.2-0.3-0.2-0.7-0.2-1.1c-0.1-1.2-0.2-2.5-0.2-3.7
			c0-0.4,0-0.9,0.2-1.2c0.3-0.4,0.8-0.5,1.3-0.6c8.3-1,16.7-1.2,25-1.3c0.5,0,1.1,0,1.5,0.2C111.2,141.7,110.6,144.4,110.6,145.5z"
			/>
		<path d="M86.6,151.1c-1,0-2.2,0-3.4-0.5c-0.8-0.3-1.4-0.7-1.7-1.3c-0.3-0.6-0.4-1.1-0.4-1.6l-0.2-3.7c0-0.5-0.1-1.3,0.4-1.9
			c0.6-0.8,1.6-1,2.1-1c8.4-1,16.9-1.2,25.2-1.3c0.6,0,1.4,0,2.1,0.4c1.5,0.8,1.3,3,1.2,4.6c0,0.3-0.1,0.6-0.1,0.8c0,0,0,0,0,0
			c0,0.4,0,1-0.3,1.6c-0.4,0.7-1.1,1.1-1.5,1.2c-4,1.8-8.4,2.2-12.5,2.4c-3.5,0.2-7,0.3-10.5,0.3C86.7,151.1,86.6,151.1,86.6,151.1z
			 M108.8,142c-0.1,0-0.2,0-0.3,0c-8.2,0.1-16.6,0.2-24.9,1.3c-0.4,0-0.5,0.1-0.6,0.1c0,0,0,0.3,0,0.5l0.2,3.7c0,0.2,0,0.5,0.1,0.6
			c0,0.1,0.2,0.2,0.5,0.3c0.8,0.3,1.7,0.3,2.9,0.3c3.4,0,6.9-0.1,10.4-0.3c3.9-0.2,8.1-0.6,11.7-2.2c0.4-0.2,0.5-0.2,0.5-0.3
			c0-0.1,0-0.4,0-0.5l0,0c0-0.3,0-0.6,0.1-1c0.1-0.6,0.2-2.1-0.1-2.5C109.3,142,109.1,142,108.8,142z M110.6,145.5L110.6,145.5
			L110.6,145.5z"/>
	</g>
	<g>
		<path style="fill:#3D3D3D;" d="M120.9,190.3c0,0-0.4,4.6-1.9,7.7c0,0-32.5,4.3-43.7,2.9l-0.7-7.7
			C74.6,193.2,113.2,194,120.9,190.3z"/>
		<path d="M81,202.3c-2.2,0-4.2-0.1-5.8-0.3c-0.5-0.1-0.9-0.5-1-1l-0.7-7.7c0-0.3,0.1-0.6,0.3-0.9c0.2-0.2,0.5-0.4,0.9-0.4
			c0.4,0,38.5,0.7,45.8-2.8c0.4-0.2,0.8-0.1,1.1,0.1s0.5,0.6,0.5,1c0,0.2-0.4,4.8-2,8.1c-0.2,0.3-0.5,0.6-0.9,0.6
			C118,199.3,94.7,202.3,81,202.3z M76.4,199.9c10.8,0.9,37.5-2.4,41.9-2.9c0.7-1.7,1.1-3.6,1.3-5c-9.6,2.7-37.3,2.5-43.7,2.4
			L76.4,199.9z"/>
	</g>
	<path style="fill:#DFDFDF;" d="M90.8,147.1c-1.1,0-2.3,0-3.5-0.1c-0.6,0-1.1-0.6-1.1-1.2c0-0.6,0.5-1.1,1.2-1.1
		c8.8,0.5,17-1.2,17.1-1.2c0.6-0.1,1.2,0.3,1.3,0.9c0.1,0.6-0.3,1.2-0.9,1.3C104.7,145.9,98.4,147.1,90.8,147.1z"/>
	<g>
		<path style="fill:#3D3D3D;" d="M117.6,170.7c-7.3,3-15.5,3.2-23.4,3.4c-3.7,0.1-7.5,0.2-10.8-1.5c-0.2-1.1-0.3-2.5,0.7-3.1
			c0.3-0.2,0.6-0.2,1-0.3c6.1-0.9,12.4-0.2,18.6-0.9c2.9-0.3,5.7-1,8.6-1.3c1.2-0.2,4.4-0.8,5.3,0.3
			C117.8,167.7,117.7,170.7,117.6,170.7z"/>
		<path d="M91.8,175.3c-2.9,0-6-0.3-8.8-1.6c-0.3-0.2-0.5-0.5-0.6-0.8c-0.4-2.1,0-3.6,1.3-4.3c0.5-0.3,1-0.4,1.4-0.4
			c3.3-0.5,6.7-0.5,10-0.5c2.8,0,5.8,0,8.6-0.4c1.5-0.2,3-0.4,4.5-0.7c1.3-0.2,2.7-0.5,4.1-0.6l0.5-0.1c2.3-0.3,4.7-0.6,5.8,0.8
			c0.7,0.9,0.3,4.2,0.3,4.3c-0.1,0.3-0.4,0.7-0.7,0.8l0,0c-7.6,3.1-16.2,3.3-23.8,3.5C93.5,175.3,92.6,175.3,91.8,175.3z
			 M84.5,171.9c3,1.3,6.6,1.2,9.7,1.1c7.5-0.2,15.3-0.4,22.4-3.1c0-0.6,0-1.4,0-1.9c-0.4-0.1-1.3-0.2-3.6,0.1l-0.5,0.1
			c-1.3,0.2-2.6,0.4-3.9,0.6c-1.5,0.3-3.1,0.5-4.6,0.7c-2.9,0.3-5.9,0.3-8.8,0.4c-3.2,0-6.5,0-9.7,0.5c-0.2,0-0.5,0.1-0.6,0.1
			C84.6,170.7,84.4,171.1,84.5,171.9z"/>
	</g>
	<path d="M102.5,182.4c-0.5,0-0.9,0-1.3-0.1c-2.7-0.6-4.5-3.6-4-6.5c0.5-2.5,2.7-4.7,5.3-5.3c2.1-0.5,4.1,0.2,5.4,1.8l0,0
		c0.9,1.2,1.5,2.6,1.6,4c0.1,1.6-0.5,3.1-1.5,4.2c-0.9,1-2.3,1.6-4.1,1.9C103.3,182.4,102.9,182.4,102.5,182.4z M103.8,172.5
		c-0.3,0-0.6,0-0.9,0.1c-1.7,0.4-3.3,1.9-3.6,3.5c-0.3,1.7,0.8,3.5,2.3,3.9c0.5,0.1,1.1,0.1,1.8,0c1.3-0.2,2.2-0.6,2.8-1.2
		c0.6-0.6,0.9-1.5,0.9-2.5c0-0.9-0.4-1.9-1.1-2.7l0,0C105.4,172.8,104.6,172.5,103.8,172.5z"/>
</g>
<g>
	<path style="fill:#7D7D7D;" d="M88,40.3c0,0-0.6-0.2-1.8-0.6c-11.9-3.7-24.5-3.7-36.4,0c-1.2,0.4-1.8,0.6-1.8,0.6S13,53,13,103.6
		c0,10.2,6.7,20.9,14.6,25.9c8.8,5.7,20,6.4,30,7.4c14.8,1.4,30.6,0.8,44.8-4.3c7.4-2.7,13.5-8.2,17.1-15.7
		c1.9-3.9,3.6-8.8,3.6-13.3C123,53,88,40.3,88,40.3z"/>
	<path d="M71,138.7c-4.3,0-8.8-0.2-13.6-0.7l-1.2-0.1c-9.6-0.9-20.5-1.9-29.2-7.4c-8.7-5.6-15.1-16.9-15.1-26.9
		c0-26.5,9.7-42.6,17.8-51.4c8.8-9.6,17.6-12.8,17.9-13l0,0c0,0,0.6-0.2,1.9-0.6c12.1-3.8,25-3.8,37.1,0c1.2,0.4,1.9,0.6,1.9,0.6
		c0.8,0.3,35.7,13.8,35.7,64.4c0,5-2,10.2-3.7,13.8c-3.7,7.6-10,13.4-17.8,16.2C93.4,137,83,138.7,71,138.7z M68,38.1
		c-6,0-12,0.9-17.9,2.7c-1.1,0.4-1.7,0.6-1.8,0.6c-0.4,0.1-34.2,13-34.2,62.2c0,10.5,7.1,20.5,14.1,25c8.2,5.3,18.8,6.2,28.2,7.1
		l1.3,0.1c17.5,1.6,32,0.2,44.3-4.3c7.2-2.6,13.1-8,16.5-15.1c2.2-4.7,3.5-9.2,3.5-12.8c0-49.2-33.9-62.1-34.2-62.2c0,0,0,0,0,0
		c0,0-0.6-0.2-1.8-0.6C80,39,74,38.1,68,38.1z"/>
</g>
<g>
	<g>
		<path style="fill:#959595;" d="M61.9,110.7c0,0,0.2,0.1,0.6,0.1c3.6,0.9,7.5,0.9,11.1,0c0.4-0.1,0.6-0.1,0.6-0.1
			s10.7-3.1,10.7-15.7c0,0-0.4-7.7-10.7-7.7H68h-6.1c-10.3,0-10.7,7.7-10.7,7.7C51.2,107.6,61.9,110.7,61.9,110.7z"/>
		<path d="M68,112.6c-2,0-3.9-0.2-5.8-0.7c-0.4-0.1-0.6-0.2-0.6-0.2c-0.2-0.1-11.5-3.6-11.5-16.7c0-0.1,0.6-8.9,11.8-8.9h12.2
			c11.2,0,11.8,8.7,11.8,8.8c0,13.3-11.4,16.8-11.5,16.8l0,0c0,0-0.2,0.1-0.6,0.2C71.9,112.4,70,112.6,68,112.6z M61.9,88.4
			c-9,0-9.5,6.4-9.5,6.7c0,11.5,9.8,14.5,9.9,14.5h0c0,0,0.2,0.1,0.5,0.1c3.5,0.9,7.1,0.9,10.6,0c0.3-0.1,0.5-0.1,0.5-0.1
			c0.4-0.1,9.9-3.1,9.9-14.6c0-0.2-0.5-6.6-9.5-6.6H61.9z"/>
	</g>
	
		<ellipse transform="matrix(0.9176 -0.3975 0.3975 0.9176 -34.2701 32.9678)" style="fill:#242424;" cx="62.4" cy="99.1" rx="2.3" ry="3.4"/>
	
		<ellipse transform="matrix(0.3975 -0.9176 0.9176 0.3975 -46.6267 127.2851)" style="fill:#242424;" cx="73.6" cy="99.1" rx="3.4" ry="2.3"/>
</g>
<g>
	<ellipse transform="matrix(0.7672 -0.6414 0.6414 0.7672 -41.6508 48.758)" cx="46.3" cy="81.8" rx="14.2" ry="11.6"/>
	<path d="M13.6,110.2c-0.3,0-0.6-0.1-0.9-0.4c-0.4-0.5-0.3-1.2,0.1-1.6l80.5-68c0.5-0.4,1.2-0.3,1.6,0.1c0.4,0.5,0.3,1.2-0.1,1.6
		l-80.5,68C14.1,110.2,13.9,110.2,13.6,110.2z"/>
</g>
<g>
	<g>
		<path style="fill:#7D7D7D;" d="M1.6,63.8c-0.7,3.3-0.9,7.1,1.5,9.5c1.6,1.6,4,2,6.3,2.1c9.4,0.5,18.7-3,26.8-7.7
			c6.6-3.8,13.2-9.1,15-16.5c0.4-1.6,0.5-3.4-0.1-5c-0.6-1.4-1.8-2.4-2.9-3.4c-8.3-7.4-17.8-15-28.2-7.9
			C10.6,41.3,3.9,52.9,1.6,63.8z"/>
		<path d="M11.3,76.6c-0.7,0-1.3,0-1.9-0.1c-2-0.1-5-0.5-7-2.4c-2.2-2.2-2.9-5.7-1.8-10.5l1.1,0.2l-1.1-0.2
			c2.6-12.1,9.8-23.5,18.9-29.7c11.6-7.9,22.4,1.7,29.6,8c1.1,1,2.5,2.2,3.2,3.8c0.7,1.6,0.7,3.4,0.2,5.7c-1.6,6.4-6.7,12-15.5,17.2
			C27.6,74,19.2,76.6,11.3,76.6z M28.5,33.2c-2.6,0-5.2,0.8-7.9,2.6C12,41.6,5.2,52.5,2.7,64.1l0,0c-0.8,4-0.4,6.8,1.2,8.4
			c1.5,1.4,3.9,1.7,5.6,1.8c8.1,0.4,16.6-2,26.2-7.6c8.3-4.8,13-10,14.4-15.8c0.4-1.8,0.4-3.2-0.1-4.3c-0.5-1.2-1.6-2.2-2.6-3
			C41.2,38.1,35,33.2,28.5,33.2z"/>
	</g>
	<g>
		<path style="fill:#7D7D7D;" d="M134.4,63.8c0.7,3.3,0.9,7.1-1.5,9.5c-1.6,1.6-4,2-6.3,2.1c-9.4,0.5-18.7-3-26.8-7.7
			c-6.6-3.8-13.2-9.1-15-16.5c-0.4-1.6-0.5-3.4,0.1-5c0.6-1.4,1.8-2.4,2.9-3.4c8.3-7.4,17.8-15,28.2-7.9
			C125.4,41.3,132.1,52.9,134.4,63.8z"/>
		<path d="M124.7,76.6c-7.9,0-16.3-2.6-25.5-7.9c-8.8-5.1-13.9-10.7-15.5-17.2c-0.6-2.3-0.5-4.1,0.2-5.7c0.7-1.6,2.1-2.9,3.2-3.8
			c7.1-6.4,17.9-16,29.6-8c9.1,6.2,16.3,17.6,18.9,29.7c1,4.8,0.4,8.3-1.8,10.5c-2,2-5,2.3-7,2.4C126,76.6,125.4,76.6,124.7,76.6z
			 M107.5,33.2c-6.5,0-12.7,4.9-18.9,10.5c-1,0.9-2.1,1.9-2.6,3c-0.5,1.1-0.5,2.5-0.1,4.3c1.4,5.8,6.2,11,14.4,15.8
			c9.4,5.5,18.2,8,26.2,7.6c1.7-0.1,4.1-0.4,5.6-1.8c1.7-1.6,2.1-4.4,1.2-8.4l0,0c-2.5-11.6-9.3-22.4-18-28.3
			C112.7,33.9,110.1,33.2,107.5,33.2z"/>
	</g>
</g>
<path d="M89.4,83c0,2.1-1.7,2.3-3.7,2.3c-2.1,0-3.8-0.2-3.8-2.2c0-2.1,0.6-4.2,3.7-4.3C88.5,78.7,89.4,80.9,89.4,83z"/>
<g>
	<g>
		<path style="fill:#C0A27D;" d="M8.3,38.6c-0.3,0.2-0.5,0.3-0.7,0.6c-0.2,0.4-0.1,0.9,0.1,1.4c2.7,7.2,10.6,11.4,18.2,12.9
			s15.5,1.1,23.2,2.5c5,0.9,9.9,2.7,14.9,3.7c12.3,2.6,25.5,0.9,36.7-4.8c1.8-0.9,3.6-1.9,5.5-2.4c2.3-0.6,4.6-0.4,6.9-0.7
			c6.2-0.7,11.9-4.8,14.6-10.4c-7.8-3.3-15-7.7-21.5-13c-0.9-0.8-1.9-1.6-3.1-1.8c-0.9-0.2-1.8,0-2.7,0.2
			c-10.8,2.2-21.8,3.2-32.8,3.5c-9.2,0.2-20.4,1.3-29.2-1.6c-2.4-0.8-4.2-1.8-6.7-1.5c-2.7,0.4-5.7,2.1-8.1,3.2
			C18.5,32.6,13.3,35.5,8.3,38.6z"/>
		<path d="M75.5,61.9c-3.9,0-7.8-0.4-11.7-1.2c-2.3-0.5-4.7-1.1-6.9-1.8c-2.6-0.7-5.3-1.5-7.9-2c-3.7-0.7-7.5-0.9-11.2-1.2
			c-3.9-0.3-8-0.5-12-1.3c-9.4-1.9-16.5-7-19-13.6c-0.1-0.4-0.5-1.4,0-2.3c0.3-0.5,0.8-0.8,1.1-1c6-3.6,10.9-6.3,15.6-8.4
			c0.6-0.2,1.1-0.5,1.7-0.8c2.1-1,4.4-2.1,6.7-2.5c2.2-0.4,4,0.3,5.8,1c0.4,0.2,0.9,0.3,1.4,0.5c7,2.4,16,2,23.9,1.7
			c1.7-0.1,3.3-0.1,4.9-0.2c11.8-0.3,22.4-1.4,32.6-3.4c1-0.2,2-0.4,3.1-0.2c1.5,0.3,2.6,1.2,3.6,2c6.5,5.3,13.6,9.6,21.3,12.9
			c0.3,0.1,0.5,0.4,0.6,0.6c0.1,0.3,0.1,0.6,0,0.9c-2.9,5.9-9,10.2-15.5,11c-0.9,0.1-1.8,0.2-2.7,0.2c-1.5,0.1-2.8,0.1-4.1,0.5
			c-1.5,0.4-2.9,1.1-4.4,1.9l-0.9,0.5C93.2,59.9,84.4,61.9,75.5,61.9z M8.6,39.7c0,0,0,0.1,0.2,0.4c2.2,5.9,8.7,10.5,17.4,12.2
			c3.8,0.8,7.8,1,11.7,1.3c3.8,0.2,7.7,0.5,11.5,1.2c2.8,0.5,5.5,1.3,8.1,2c2.2,0.6,4.5,1.2,6.8,1.7c12.1,2.6,24.9,0.9,36-4.7
			l0.9-0.4c1.5-0.8,3.1-1.6,4.9-2.1c1.5-0.4,3.1-0.5,4.6-0.5c0.8,0,1.7-0.1,2.5-0.2c5.4-0.7,10.5-4,13.2-8.7
			c-7.4-3.3-14.4-7.6-20.7-12.7c-0.9-0.7-1.7-1.4-2.6-1.5c-0.7-0.1-1.4,0-2.2,0.2c-10.3,2.1-21.1,3.2-33,3.5c-1.6,0-3.2,0.1-4.9,0.2
			c-8.1,0.3-17.2,0.7-24.7-1.9c-0.5-0.2-1-0.4-1.5-0.5c-1.7-0.6-3-1.1-4.6-0.9c-1.9,0.3-4.1,1.3-6,2.3c-0.6,0.3-1.2,0.6-1.8,0.8
			c-4.6,2-9.5,4.7-15.4,8.3l0,0C8.8,39.6,8.7,39.7,8.6,39.7L8.6,39.7z M8.3,38.6L8.3,38.6L8.3,38.6z"/>
	</g>
	<g>
		<path style="fill:#C0A27D;" d="M31.9,27.1l10-16.9c1-1.7,2.5-3.1,4.3-3.9C52.9,3.3,70-2.6,90.1,4.4c2.5,0.9,4.5,2.8,5.6,5.2
			l7.5,17C103.2,26.5,67.4,41.4,31.9,27.1z"/>
		<path d="M65.2,34.4c-10.5,0-22.1-1.6-33.7-6.2c-0.3-0.1-0.5-0.4-0.6-0.7c-0.1-0.3-0.1-0.7,0.1-0.9L41,9.5c1.1-1.9,2.8-3.4,4.8-4.3
			c6.6-2.9,24.1-9,44.7-1.9c2.8,1,5,3.1,6.3,5.8l7.5,17c0.1,0.3,0.1,0.6,0,0.9c-0.1,0.3-0.3,0.5-0.6,0.6
			C103.4,27.6,86.8,34.4,65.2,34.4z M33.6,26.5c30.8,11.8,62,1.6,68.1-0.6l-7-15.9c-1-2.2-2.7-3.8-4.9-4.6c-19.8-6.8-36.7-1-43,1.9
			C45.2,8,43.8,9.2,43,10.7L33.6,26.5z"/>
	</g>
	<g>
		<path style="fill:#C0A27D;" d="M47.9,10.4c0,0,16.2,8.1,40.2,0"/>
		<path d="M66.9,15.1c-11.8,0-19.1-3.5-19.5-3.7c-0.6-0.3-0.8-1-0.5-1.5c0.3-0.6,1-0.8,1.5-0.5c0.2,0.1,16.1,7.8,39.3-0.1
			c0.6-0.2,1.2,0.1,1.4,0.7s-0.1,1.2-0.7,1.4C80.3,14.2,73,15.1,66.9,15.1z"/>
	</g>
</g>
<g>
	<path style="fill:#B53737;" d="M79.2,115.7c-8.4-1.9-17.2-0.8-25.6,0.8c-1.7,0.3-3.5,0.7-4.8,1.8c-1.3,1.1-2.1,3.1-1.2,4.6
		c0.7,1.2,2.2,1.6,3.6,1.7c4.5,0.2,8.4-2.9,12.7-4.4c4.2-1.4,9-1.2,13,0.6c1.8,0.8,3.5,2,5.4,2.6c1.9,0.6,4.2,0.7,5.8-0.5
		C94.8,118,81.6,116.2,79.2,115.7z"/>
	<path d="M51.6,125.8c-0.1,0-0.3,0-0.4,0c-2-0.1-3.7-0.9-4.5-2.2c-1.3-2-0.3-4.7,1.4-6.1c1.5-1.2,3.4-1.7,5.3-2.1
		c7.9-1.5,17.2-2.8,26.1-0.8l0,0c0.2,0.1,0.6,0.1,1.1,0.2c4.7,0.9,9.9,2.1,10.5,5c0.3,1.4-0.4,2.7-2.2,4.1c-1.7,1.3-4.2,1.6-6.8,0.7
		c-1.3-0.4-2.4-1-3.5-1.6c-0.7-0.4-1.3-0.7-2-1c-3.8-1.7-8.3-1.9-12.2-0.6c-1.4,0.5-2.8,1.1-4.1,1.8
		C57.5,124.4,54.7,125.8,51.6,125.8z M69.6,115.8c-5.5,0-10.9,0.9-15.8,1.8c-1.7,0.3-3.2,0.7-4.3,1.6c-0.9,0.8-1.5,2.2-0.9,3.1
		c0.4,0.7,1.4,1.1,2.7,1.1c2.7,0.1,5.2-1.1,7.9-2.4c1.4-0.7,2.9-1.4,4.4-1.9c4.5-1.5,9.5-1.3,13.9,0.7c0.7,0.3,1.5,0.7,2.2,1.1
		c1.1,0.6,2.1,1.1,3.2,1.5c1.9,0.6,3.6,0.5,4.7-0.3c1.1-0.8,1.4-1.5,1.4-1.8c-0.2-0.8-1.8-2-8.7-3.3c-0.5-0.1-0.9-0.2-1.1-0.2l0,0
		C75.9,116.1,72.8,115.8,69.6,115.8z"/>
</g>
<g>
	<g>
		<path style="fill:#A6CEFF;" d="M88.2,83.3c-0.8,0-1.7,0-2.5,0.4c-0.8,0.4-1.4,1.2-1.2,2c0.1,0.6,0.6,1,1.2,1.3
			c0.6,0.2,1.2,0.3,1.8,0.3c1,0,2.1,0.1,3.1-0.1c0.7-0.1,1.4-0.5,1.7-1.1C93.9,83.5,89.5,83.3,88.2,83.3z"/>
		<path d="M88.8,88.4c-0.5,0-0.9,0-1.3,0c-0.6,0-1.4-0.1-2.2-0.4c-1-0.4-1.7-1.2-1.9-2.1c-0.3-1.4,0.6-2.7,1.8-3.3
			c1-0.5,2.1-0.5,3-0.5l0,1.1l0-1.1c1.2,0,4.4,0.1,5.3,1.8c0.3,0.5,0.5,1.4-0.2,2.6c-0.5,0.8-1.3,1.3-2.5,1.6
			C90.2,88.4,89.5,88.4,88.8,88.4z M88.2,84.4c-0.7,0-1.4,0-2,0.3c-0.4,0.2-0.6,0.6-0.6,0.8c0,0.2,0.3,0.4,0.5,0.5
			c0.4,0.2,0.9,0.2,1.4,0.2c0.9,0,1.9,0.1,2.8-0.1c0.5-0.1,0.9-0.3,1-0.5c0.2-0.3,0.1-0.4,0.1-0.4C91.4,84.8,90.1,84.4,88.2,84.4
			L88.2,84.4z"/>
	</g>
	<g>
		<path style="fill:#A6CEFF;" d="M91.9,91.5c0.7,1.8,1.2,3.7,1.4,5.7c0.1,1,0.2,2.1,0.7,3s1.6,1.6,2.6,1.2c0.9-0.4,1.2-1.4,1.3-2.3
			c0.2-1.9-0.3-3.8-1.5-5.3"/>
		<path d="M96,102.6c-1.2,0-2.4-0.8-3-1.9c-0.5-1-0.7-2.1-0.8-3l0-0.4c-0.2-1.9-0.7-3.7-1.4-5.4c-0.2-0.6,0-1.2,0.6-1.5
			c0.6-0.2,1.2,0,1.5,0.6c0.8,1.9,1.3,3.9,1.5,6l0,0.4c0.1,0.8,0.2,1.6,0.5,2.2c0.3,0.5,0.8,0.8,1.1,0.7c0.3-0.1,0.5-0.7,0.6-1.4
			c0.2-1.6-0.3-3.3-1.3-4.5c-0.4-0.5-0.3-1.2,0.2-1.6c0.5-0.4,1.2-0.3,1.6,0.2c1.3,1.7,1.9,4,1.7,6.1c-0.2,1.6-0.9,2.8-2,3.2
			C96.7,102.6,96.4,102.6,96,102.6z"/>
	</g>
	<g>
		<path style="fill:#A6CEFF;" d="M96.2,110.3c0.4,3.7,0.2,7.4-0.6,11c-0.2,0.7-0.3,1.4-0.3,2.1s0.5,1.4,1.2,1.7
			c0.6,0.2,1.3,0,1.8-0.5s0.8-1.1,1-1.7c0.7-1.9,1-4,0.7-6.1"/>
		<path d="M97,126.3c-0.3,0-0.6,0-0.9-0.1c-1-0.4-1.8-1.4-1.9-2.6c-0.1-0.8,0.1-1.6,0.3-2.3c0.8-3.6,1-7.2,0.6-10.8
			c-0.1-0.6,0.4-1.2,1-1.2c0.6-0.1,1.2,0.4,1.3,1c0.4,3.8,0.2,7.6-0.6,11.4c-0.2,0.7-0.3,1.3-0.2,1.7c0,0.3,0.2,0.7,0.4,0.7
			c0.2,0.1,0.5,0,0.7-0.2c0.3-0.3,0.6-0.8,0.7-1.3c0.7-1.8,0.9-3.7,0.7-5.5c-0.1-0.6,0.4-1.2,1-1.3c0.6-0.1,1.2,0.4,1.3,1
			c0.3,2.2,0,4.5-0.8,6.6c-0.3,0.7-0.6,1.5-1.3,2.1C98.5,126,97.8,126.3,97,126.3z"/>
	</g>
</g>
<g>
	<path style="fill:#7D7D7D;" d="M29.2,159.5c0.2,0.1,0.5,0.1,0.7,0.2c9.6,2.3,20-0.5,28.3-5.6c9.4-5.7,13.8-17.5,10.2-28
		c-1.1-3.2-3.5-6.1-6.7-7.1c-2.7-0.8-6.6-0.1-8.7,1.9c-1.8,1.7-1.9,5-3.4,7.3c-2,3.1-4.1,6.1-7.1,8.3c-2.8,2-6.4,3.4-9.6,1.8
		c-3.2-1.6-6.2-4.4-8.5-7.1c-2.9-3.4-5.8-5-9.6-1.6c-2.7,2.5-3.8,7.4-3.6,10.9C11.7,149.8,20.9,157.2,29.2,159.5z"/>
	<path d="M37.1,161.6c-2.5,0-5-0.3-7.4-0.9l-0.7-0.2c0,0,0,0,0,0c-8.7-2.4-18.3-10.2-18.9-20c-0.2-3.7,0.9-9,4-11.8
		c1.7-1.6,3.4-2.3,5.1-2.2c2.6,0.2,4.7,2.3,6.1,3.9c1.9,2.2,4.8,5.2,8.1,6.8c3.2,1.5,6.7-0.4,8.5-1.7c2.9-2.1,5-5.2,6.8-8
		c0.6-0.9,0.9-2,1.3-3.1c0.5-1.6,1.1-3.3,2.3-4.4c2.5-2.4,7-2.9,9.8-2.1c3.3,1,6.1,3.9,7.5,7.8c3.7,10.9-0.7,23.2-10.7,29.3
		C51.9,159.4,44.2,161.6,37.1,161.6z M29.5,158.4l0.7,0.2c8.5,2.1,18.5,0.1,27.5-5.4c9-5.5,13.1-16.7,9.7-26.6
		c-1.1-3.2-3.3-5.6-6-6.3c-2.5-0.7-6,0-7.6,1.6c-0.8,0.7-1.2,2.1-1.7,3.5c-0.4,1.2-0.8,2.5-1.5,3.6c-1.9,2.9-4.2,6.2-7.4,8.5
		c-2.2,1.6-6.6,4-10.8,1.9c-3.7-1.8-6.9-5-8.9-7.4c-1.7-2-3.1-3-4.5-3.1c-1.1-0.1-2.2,0.5-3.5,1.6c-2.4,2.2-3.5,6.7-3.3,10
		C12.8,149.2,21.6,156.3,29.5,158.4z"/>
</g>
<g>
	<path style="fill:#7D7D7D;" d="M106.8,159.5c-0.2,0.1-0.5,0.1-0.7,0.2c-9.6,2.3-20-0.5-28.3-5.6c-9.4-5.7-13.8-17.5-10.2-28
		c1.1-3.2,3.5-6.1,6.7-7.1c2.7-0.8,6.6-0.1,8.7,1.9c1.8,1.7,1.9,5,3.4,7.3c2,3.1,4.1,6.1,7.1,8.3c2.8,2,6.4,3.4,9.6,1.8
		c3.2-1.6,6.2-4.4,8.5-7.1c2.9-3.4,5.8-5,9.6-1.6c2.7,2.5,3.8,7.4,3.6,10.9C124.3,149.8,115.1,157.2,106.8,159.5z"/>
	<path d="M98.9,161.6c-7.2,0-14.8-2.3-21.8-6.5c-9.9-6.1-14.4-18.4-10.7-29.3c1.3-3.9,4.1-6.8,7.5-7.8c2.8-0.8,7.3-0.3,9.8,2.1
		c1.2,1.1,1.8,2.8,2.3,4.4c0.4,1.1,0.7,2.2,1.3,3.1c1.8,2.7,3.9,5.8,6.8,8c1.8,1.3,5.3,3.3,8.5,1.7c3.3-1.6,6.3-4.6,8.1-6.8
		c1.3-1.6,3.4-3.7,6.1-3.9c1.7-0.1,3.4,0.6,5.1,2.2c3.1,2.8,4.2,8.1,4,11.8c-0.6,9.8-10.2,17.6-18.9,20c0,0,0,0,0,0l-0.7,0.2
		C104,161.4,101.5,161.6,98.9,161.6z M106.8,159.5L106.8,159.5L106.8,159.5z M76.6,119.9c-0.7,0-1.4,0.1-2.1,0.3
		c-2.6,0.8-4.9,3.1-6,6.3c-3.4,9.9,0.7,21.1,9.7,26.6c9,5.5,19,7.5,27.5,5.4l0.7-0.2c8-2.2,16.7-9.2,17.2-17.9
		c0.2-3.3-0.9-7.8-3.3-10c-1.2-1.2-2.4-1.7-3.5-1.6c-1.3,0.1-2.8,1.1-4.5,3.1c-2,2.4-5.2,5.6-8.9,7.4c-4.2,2.1-8.6-0.3-10.8-1.9
		c-3.2-2.3-5.5-5.6-7.4-8.6c-0.7-1.1-1.1-2.4-1.5-3.6c-0.5-1.4-0.9-2.7-1.7-3.5C81,120.6,78.7,119.9,76.6,119.9z"/>
</g>
</svg>
