<?xml version="1.0" encoding="utf-8"?>
<!-- Generator: Adobe Illustrator 23.0.2, SVG Export Plug-In . SVG Version: 6.00 Build 0)  -->
<svg version="1.1" id="Layer_2" xmlns="http://www.w3.org/2000/svg" xmlns:xlink="http://www.w3.org/1999/xlink" x="0px" y="0px"
	 viewBox="0 0 200 200" style="enable-background:new 0 0 200 200;" xml:space="preserve">
<path style="fill:#D212EF;" d="M4.2,79l54.5,28.7l0.3-1.3l12.5-58l-29-21.6l-0.4,0.1c-0.8,0.1-1.5,0.3-2.2,0.7
	c-2,1.4-3.5,2.6-4.2,3.2c-0.1,0.1-0.2,0.2-0.3,0.4c-0.2,0.3-0.4,0.5-0.6,0.8c-0.2,0.3-0.4,0.6-0.6,0.8l-28.8,42
	c-0.2,0.3-0.3,0.5-0.4,0.8c0,0.1-0.1,0.2-0.1,0.3c-0.1,0.2-0.1,0.3-0.2,0.5c-0.1,0.4-0.2,0.8-0.3,1.2l0,0c0,0,0,0,0,0.1l0,0
	c0,0.1,0,0.2,0,0.3c0,0.2,0,0.3,0,0.5C4.3,78.7,4.2,78.8,4.2,79C4.2,78.9,4.2,79,4.2,79L4.2,79L4.2,79z"/>
<path style="fill:#9900B3;" d="M4.2,79c-0.1,2,0.5,4,1.6,5.5l90.4,104.8c1,1.3,2.3,1.9,3.7,1.9l-41.2-83.5L4.2,79z"/>
<polygon style="fill:#D515F6;" points="60.8,106.4 142.5,106.4 129.5,51.1 129.5,51.1 129.2,49.6 71.5,48.4 59,106.4 "/>
<path style="fill:#B903D2;" d="M142.5,106.4H60.8H59l0,0l40.9,84.8h0.1l41-82.2L142.5,106.4z"/>
<path style="fill:#B400C5;" d="M164.6,30.8c-0.1-0.1-0.2-0.2-0.3-0.3c-0.6-0.6-2.3-1.8-4.4-3.3c-0.4-0.1-0.8-0.3-1.2-0.4L129.4,51
	l13,55.3l53.2-27.2c0-0.3,0-0.7,0-1c0-0.2,0-0.3-0.1-0.5l0,0v-0.1l0,0c-0.1-0.4-0.2-0.8-0.3-1.2c-0.1-0.2-0.1-0.3-0.2-0.5
	c0-0.1-0.1-0.2-0.2-0.4c-0.1-0.3-0.3-0.6-0.5-0.9l-28.7-42.2C165.5,32,165.1,31.4,164.6,30.8L164.6,30.8z"/>
<path style="fill:#8700A3;" d="M100.5,191.2c1.2-0.1,2.3-0.7,3.2-1.9l90.4-105c1-1.3,1.6-3,1.7-4.7l-53.2,26.8L100.5,191.2z"/>
<path style="fill:#9B00BD;" d="M118.9,157.8l-18.2,32.7c1.2-0.1,2.3-0.7,3.2-1.9l63.4-73.6L118.9,157.8z"/>
<path style="fill:#A201C8;" d="M70.2,106.4H59.5h-1.8l40.9,84.8h0.1l24.7-45.7L70.2,106.4z"/>
<polygon style="fill:#EA5BFB;" points="130.2,54 129.5,51.1 129.2,49.6 71.5,48.4 59,106.4 60.8,106.4 77.8,106.4 "/>
<polygon style="fill:#DB51F4;" points="43.9,29.9 43.9,99.9 58.7,107.7 59,106.4 71.5,48.4 "/>
<polygon style="fill:#A600BD;" points="142.5,43.6 129.5,51.1 142.5,106.4 183.4,85.5 "/>
<path style="fill:#FF9FFE;" d="M102,190.7l41.9-82.3l51.9-28.6c0-0.1,0-0.1,0-0.2l0,0c0-0.3,0-0.6,0-0.9l-52.1,24.6l-19.5-73
	c-0.3-1.3,0.7-2.1-0.5-1.7c-1.3,0.3,0.3,1.6,0.6,2.9l14.8,72.9H61l14.8-72.9c0.3-1.3,1.9-2.6,0.6-2.9s-0.2,0.5-0.5,1.7l-19.5,73
	L4.3,78.7c0,0.1,0,0.1,0,0.2c0,0,0,0,0,0.1l0,0l0,0l0,0l0,0c0,0.3,0,0.5,0,0.8l51.9,28.6L98,190.7l0,0l0,0c0.3,0.1,0.5,0.2,0.8,0.3
	l0,0c0.1,0,0.3,0.1,0.4,0.1c0.2,0,0.4,0.1,0.7,0.1l0,0l0,0l0,0h0.1c0.2,0,0.3,0,0.5-0.1c0.3,0,0.6-0.1,0.8-0.2
	C101.5,190.9,101.8,190.8,102,190.7L102,190.7L102,190.7z M100,191l-38.4-82.3h76.8L100,191z"/>
<path style="fill:#E151E5;" d="M138.4,108.8L100,191l-38.4-82.2h-5.3l41.7,82c1.3,0.6,2.7,0.6,4,0l41.7-82H138.4z"/>
<path style="fill:#FED7FF;" d="M35.4,31.1C35.4,31.1,35.3,31.1,35.4,31.1c0.1,0.8,0.7,1.6,1.9,2.5l24.1,18C64,53.4,68.9,55,72.1,55
	h55.7c3.3,0,8.1-1.5,10.8-3.4l24.1-18c1.3-0.9,1.9-1.7,1.9-2.6c0,0,0-0.1-0.1-0.1c-0.2-0.8-19.4-13.5-19.4-13.5l-8.7-5.4
	c-0.3-0.2-0.7-0.4-1-0.6c-0.1-0.1-0.3-0.1-0.4-0.2c-0.2-0.1-0.5-0.2-0.7-0.3s-0.4-0.2-0.6-0.2c-0.2-0.1-0.4-0.2-0.6-0.2
	c-0.2-0.1-0.5-0.2-0.8-0.3c-0.1,0-0.3-0.1-0.4-0.1c-1.5-0.5-3.1-0.8-4.6-1h-0.1c-0.1,0-0.1,0-0.2,0c-0.2,0-0.3,0-0.5,0
	c-0.4,0-0.7-0.1-1.1-0.1H74.5c-3.3,0-8.2,1.4-11,3.1l-8.7,5.4C54.8,17.3,35.5,30.1,35.4,31.1z"/>
<path style="fill:#FDA1FE;" d="M54.8,17.3L54.8,17.3c0,0-14.1,9.3-18.3,12.6c0.1,0.7,0.6,1.4,1.4,2L62,48.4
	c2.5,1.7,7.1,3.1,10.1,3.1h55.7c3,0,7.7-1.4,10.1-3.1L162,31.9c0.9-0.6,1.4-1.3,1.4-2.1c-4.1-3.2-18.3-12.5-18.3-12.5l0,0l-9.4-5.7
	c-1.9-1.1-4.9-2.1-7.6-2.6c-0.1,0-0.3,0-0.5,0c-0.3,0-0.5-0.1-0.7-0.1c-0.1,0-0.2,0-0.3,0c-0.4,0-0.7-0.1-1.1-0.1h-51
	c-3,0-7.8,1.3-10.4,2.9L54.8,17.3z"/>
<path style="fill:#FFBAFF;" d="M129.3,51.4c0.3,0,0.6-0.1,0.9-0.1c0.1,0,0.2,0,0.4-0.1c0.4-0.1,0.8-0.2,1.2-0.3l0,0l-95-21.2
	c-0.1,0.1-0.2,0.1-0.3,0.2l0,0c0,0.2,0.1,0.3,0.1,0.5l0,0c0.1,0.2,0.2,0.3,0.3,0.5L37,31c0.1,0.1,0.2,0.2,0.3,0.3
	c0.2,0.2,0.4,0.3,0.6,0.5L62,48.4c2.5,1.7,7.1,3.1,10.1,3.1h55.7c0.3,0,0.7,0,1.1-0.1C129,51.5,129.2,51.4,129.3,51.4z"/>
<path style="fill:#FED0FF;" d="M132.8,10.3c-0.6-0.2-1.2-0.4-1.8-0.6h-0.1c-0.3-0.1-0.5-0.1-0.8-0.2c-0.1,0-0.3-0.1-0.4-0.1
	c-0.2,0-0.3-0.1-0.5-0.1c-0.3-0.1-0.6-0.1-0.8-0.2h-0.1C128,9,127.8,9,127.6,9c-0.3,0-0.5-0.1-0.7-0.1c-0.1,0-0.2,0-0.3,0
	c-0.4,0-0.7-0.1-1.1-0.1h-51c-3,0-7.8,1.3-10.4,2.9l-9.4,5.7l0,0c0,0-14.1,9.3-18.3,12.6l0,0c0,0.2,0.1,0.3,0.1,0.5l0,0
	c0.1,0.2,0.2,0.3,0.3,0.5l0.1,0.1c0.1,0.1,0.2,0.2,0.3,0.3c0.2,0.2,0.4,0.3,0.6,0.5l9.1,6.2L132.8,10.3z"/>
<polygon style="fill:#FFFFFF;" points="37.9,34 65.2,58.3 56.3,103.3 69.4,58 118.5,55 66.9,54.2 "/>
<ellipse transform="matrix(0.9706 -0.2406 0.2406 0.9706 -17.904 31.7832)" style="fill:#FF2AFF;" cx="121.2" cy="89.2" rx="2.8" ry="4.4"/>
<path style="fill:#D101E4;" d="M92.7,149.3c-0.1,1.9-0.9,3.3-1.7,3.3s-1.6-1.4-1.7-3.3c-0.1-2.3,0.6-4.4,1.7-4.4
	S92.9,147.1,92.7,149.3z"/>
<ellipse transform="matrix(0.9804 -0.1969 0.1969 0.9804 -25.3195 19.1415)" style="fill:#FF02FF;" cx="83.6" cy="136.9" rx="1.3" ry="2"/>
<ellipse transform="matrix(0.8924 -0.4513 0.4513 0.8924 -15.3621 79.4086)" style="fill:#FF00FF;" cx="158.8" cy="71.9" rx="2.4" ry="3.1"/>
<ellipse transform="matrix(0.7912 -0.6115 0.6115 0.7912 2.2842 112.8449)" style="fill:#FF00FF;" cx="166.4" cy="53.1" rx="1.5" ry="3"/>
<ellipse transform="matrix(0.5551 -0.8318 0.8318 0.5551 -46.9504 54.8371)" style="fill:#FF24FF;" cx="27.8" cy="71.3" rx="3.4" ry="1.3"/>
<ellipse style="fill:#FED0FF;" cx="129.5" cy="26.8" rx="5.5" ry="2.5"/>
<ellipse style="fill:#FFE8FF;" cx="79.5" cy="19.5" rx="4.6" ry="2"/>
<ellipse transform="matrix(0.1376 -0.9905 0.9905 0.1376 -21.6808 225.9147)" style="fill:#D304E3;" cx="118.9" cy="125.4" rx="2.7" ry="2"/>
<ellipse style="fill:#FDA1FE;" cx="108.9" cy="35.6" rx="3.4" ry="1.6"/>
<ellipse style="fill:#FDB6FE;" cx="135" cy="34.7" rx="3.4" ry="1.1"/>
<path style="fill:#FFB6FF;" d="M81,83.5c0,0,5.8-3.9,5.7-4.1c-0.1-0.2-6,3.5-6,3.5s3.8-12.5,3.4-12.6s-4.9,12.4-4.9,12.4
	S76,78,75.8,78.1s2.6,5.1,2.6,5.1s-6.9-0.5-7-0.1s6.5,1.6,6.5,1.6s-5.8,3.9-5.7,4.1c0,0.1,6-3.5,6-3.5S74,99.1,74.4,99.2
	s5.4-13.7,5.4-13.7s3.2,4.7,3.3,4.6c0.2-0.1-2.6-5.1-2.6-5.1s6.9,0.5,7,0.1C87.7,84.7,81,83.5,81,83.5z"/>
<path style="fill:#D102E4;" d="M106.8,156.7c0,0,4.8-3.2,4.7-3.4c-0.1-0.1-5,2.9-5,2.9s3.2-10.4,2.9-10.4c-0.3,0-4.1,10.3-4.1,10.3
	s-2.6-3.9-2.8-3.8c-0.2,0.1,2.2,4.2,2.2,4.2s-5.7-0.4-5.8-0.1c-0.1,0.3,5.4,1.3,5.4,1.3s-4.8,3.2-4.7,3.4c0,0.1,5-2.9,5-2.9
	s-3.6,11.5-3.2,11.6c0.3,0,4.5-11.4,4.5-11.4s2.7,3.9,2.8,3.8c0.2-0.1-2.2-4.2-2.2-4.2s5.7,0.4,5.8,0.1
	C112.3,157.7,106.8,156.7,106.8,156.7z"/>
</svg>
