<?xml version="1.0" encoding="utf-8"?>
<!-- Generator: Adobe Illustrator 26.0.3, SVG Export Plug-In . SVG Version: 6.00 Build 0)  -->
<svg version="1.1" id="레이어_1" xmlns="http://www.w3.org/2000/svg" xmlns:xlink="http://www.w3.org/1999/xlink" x="0px"
	 y="0px" viewBox="0 0 132 258" style="enable-background:new 0 0 132 258;" xml:space="preserve">
<style type="text/css">
	.st0{fill:#595959;}
	.st1{fill:#704A1C;}
	.st2{fill:#2C4F9E;}
	.st3{fill:#8A8A8A;}
	.st4{fill:#FFCE2E;}
	.st5{fill:#B87400;}
	.st6{fill:#FFFFFF;}
	.st7{fill:#9C2121;}
	.st8{fill:#FF8775;}
	.st9{fill:#C7DEFF;}
	.st10{fill-rule:evenodd;clip-rule:evenodd;fill:#FF8775;}
	.st11{fill-rule:evenodd;clip-rule:evenodd;}
	.st12{fill:#D4BC9F;}
	.st13{fill:#FFCA1C;}
	.st14{fill:#87ACFF;}
</style>
<g>
	<g>
		<path class="st0" d="M29.6,161.9c-10.7-1.1-9.5-22-10.9-31.4c-1.4-9.4-9.6-17.8-14.3-16.1S0,120,5.8,127.8s3,19,5.4,29.9
			c1.1,5.1,5.2,9,9.2,12c4.7,3.5,10.8,4.2,16.4,5c4.3,0.6,13.6-1.7,11.7-7.9c-0.5-1.7-2.2-2.9-3.9-3.4c-1.7-0.5-3.6-0.5-5.4-0.6
			C36.2,162.7,32.7,162.2,29.6,161.9z"/>
	</g>
	<g>
		<path d="M38.3,176c-0.6,0-1.1,0-1.6-0.1l-1.1-0.2c-5.5-0.8-11.2-1.6-15.8-5.1c-3.5-2.7-8.3-6.9-9.6-12.7
			c-0.9-4.2-1.1-8.3-1.2-12.4c-0.3-6.5-0.5-12.5-3.9-17.1c-4.1-5.4-5.5-9-4.7-11.6c0.5-1.6,1.8-2.7,3.8-3.4c1.7-0.6,3.7-0.2,5.9,1.1
			c4.1,2.5,8.8,8.7,9.9,15.9c0.3,1.9,0.5,4.4,0.7,7c0.7,9.6,1.7,22.7,9.3,23.4l0,0c1,0.1,2.1,0.2,3.2,0.3c2.2,0.2,4.4,0.5,6.4,0.6
			l1,0c1.5,0.1,3.1,0.1,4.6,0.6c2.3,0.7,4.1,2.3,4.6,4.2c0.6,2.1,0.2,4-1.1,5.6C46.2,174.9,41.6,176,38.3,176z M5.7,115.3
			c-0.3,0-0.7,0.1-1,0.2c-1.4,0.5-2.2,1.1-2.5,2c-0.5,1.8,0.9,5,4.4,9.7c3.9,5.1,4.1,11.6,4.4,18.4c0.2,3.9,0.3,8,1.2,12
			c0.9,3.9,3.7,7.5,8.8,11.4c4.1,3.1,9.6,3.9,14.8,4.7l1.1,0.2c2.7,0.4,7.7-0.5,9.8-3c0.9-1,1.1-2.2,0.7-3.6
			c-0.4-1.4-1.9-2.3-3.2-2.7c-1.3-0.4-2.6-0.4-4.1-0.5l-1-0.1c-2.1-0.1-4.3-0.4-6.5-0.6c-1.1-0.1-2.1-0.2-3.1-0.3l0,0
			c-9.4-0.9-10.5-15.1-11.2-25.5c-0.2-2.5-0.4-5-0.6-6.8c-1-6.5-5.2-12.1-8.9-14.3C7.7,115.7,6.6,115.3,5.7,115.3z"/>
	</g>
</g>
<g>
	<g>
		<g id="XMLID_190_">
			<g>
				<g>
					<path d="M28.4,149c-3,21.7,17.6,40.7,39,42c29.2,1.8,50.3-9.7,52.2-37.2C116.6,154.7,61.5,169.4,28.4,149z"/>
				</g>
				<g>
					<path class="st1" d="M29.1,145.5c-0.3,1.2-0.5,2.3-0.6,3.5c33.1,20.4,88.2,5.7,91.3,4.8c0.3-3.8,0.2-7.8-0.3-12.2
						c0,0-45.4,13.8-88.6-2.2C30.1,141.4,29.6,143.5,29.1,145.5z"/>
				</g>
				<g>
					<path class="st2" d="M39,113.1c-2.3,9.1-5.6,17.5-8.2,26.3c43.2,16,88.6,2.2,88.6,2.2c-3.1-28.7-15.7-56.8-15.7-56.8
						S48.2,91.8,46.9,92C48.1,92,39.4,111.7,39,113.1z"/>
				</g>
			</g>
			<g>
				<g>
					<path d="M73.4,192.3c-1.9,0-3.9-0.1-6-0.2c-12.1-0.8-24.1-6.9-31.9-16.5c-6.5-8-9.4-17.5-8.1-26.8c0.1-1.2,0.4-2.4,0.7-3.6
						c0.5-1.9,1-4,1.7-6.1c1.1-3.6,2.2-7.1,3.4-10.5c1.7-5.1,3.5-10.4,4.8-15.8c0.1-0.5,0.8-2.1,2.2-5.3c1.9-4.5,5.8-13.9,5.8-15.3
						c0,0.1,0,0.3,0.3,0.5l0.7-0.7l0-1.2c1.2-0.2,54.4-6.8,56.7-7.1l0.8-0.1l0.3,0.7c0.1,0.3,12.7,28.6,15.8,57.1
						c0.5,4.4,0.6,8.6,0.3,12.4C119,178.5,101.9,192.3,73.4,192.3z M48,92.9c-0.3,1.7-1.8,5.5-5.9,15.4c-1,2.3-1.9,4.7-2.1,5
						c-1.4,5.5-3.2,10.8-4.9,15.9c-1.1,3.4-2.3,7-3.4,10.5c-0.7,2.1-1.2,4.1-1.7,6c-0.3,1.1-0.5,2.2-0.6,3.3
						c-1.2,8.7,1.5,17.6,7.7,25.1c7.5,9.1,18.8,15,30.4,15.7c30.6,1.9,49.3-11.3,51.1-36.2c0.3-3.7,0.2-7.7-0.3-12
						C115.5,116.1,105,90.6,103,86C96.6,86.8,55,92,48,92.9z"/>
				</g>
				<g>
					<path d="M76.7,148.2c-14.2,0-30.5-1.9-46.4-7.7l0.4-1l0-1.1l0.4,0.1c42.3,15.7,87.5,2.3,87.9,2.2l0.6,2.1
						C119.4,142.8,101.1,148.2,76.7,148.2z"/>
				</g>
				<g>
					<path d="M74.5,160.9c-15.9,0-33-2.6-46.7-11l-0.5-0.3V149h1.1v-1.1l0.4,0.4l0.2-0.3c13.4,8.3,32.8,11.8,56.2,10.2
						c17.6-1.2,31.6-4.8,34.2-5.5l0.9,2l-0.4,0.1C116.4,155.8,96.8,160.9,74.5,160.9z"/>
				</g>
			</g>
		</g>
	</g>
	<g>
		<g>
			<path class="st3" d="M82.8,149l0.5,6.9c0.1,1.4,1.3,2.4,2.7,2.3l11.2-0.9c1.4-0.1,2.4-1.3,2.3-2.7l-0.5-6.9
				c-0.1-1.4-1.3-2.4-2.7-2.3l-11.2,0.9C83.7,146.5,82.7,147.7,82.8,149z M86.5,150.6c-0.1-0.7,0.5-1.2,1.3-1.3l6.4-0.5
				c0.7-0.1,1.4,0.4,1.4,1.1l0.2,3.1c0.1,0.7-0.5,1.2-1.3,1.3l-6.4,0.5c-0.7,0.1-1.4-0.4-1.4-1.1L86.5,150.6z"/>
		</g>
		<g>
			<path d="M85.8,159.3c-0.9,0-1.7-0.3-2.3-0.9c-0.7-0.6-1.2-1.5-1.2-2.4l-0.5-6.9l0,0c-0.1-1,0.2-1.9,0.9-2.6
				c0.6-0.7,1.5-1.2,2.4-1.2l11.2-0.9c1-0.1,1.9,0.2,2.6,0.9c0.7,0.6,1.2,1.5,1.2,2.4l0.5,6.9c0.1,1-0.2,1.9-0.9,2.6
				c-0.6,0.7-1.5,1.2-2.4,1.2L86,159.3C85.9,159.3,85.9,159.3,85.8,159.3z M83.8,148.9l0.5,6.9c0,0.4,0.2,0.7,0.5,1
				c0.3,0.2,0.7,0.4,1,0.3l11.2-0.9c0.4,0,0.7-0.2,1-0.5c0.2-0.3,0.4-0.6,0.3-1l-0.5-6.9c0-0.4-0.2-0.7-0.5-1
				c-0.3-0.2-0.7-0.4-1-0.3l-11.2,0.9C84.4,147.5,83.8,148.2,83.8,148.9L83.8,148.9z M88,155.9c-0.6,0-1.1-0.2-1.5-0.5
				c-0.5-0.4-0.8-1-0.9-1.6l-0.2-3.1l0,0c-0.1-1.2,0.9-2.3,2.3-2.5l6.4-0.5c1.4-0.1,2.5,0.8,2.6,2.1l0.2,3.1
				c0.1,1.2-0.9,2.3-2.3,2.5l-6.4,0.5C88.2,155.9,88.1,155.9,88,155.9z M87.6,150.6l0.2,3.1c0,0,0.1,0.1,0.3,0.1l6.4-0.5
				c0.2,0,0.2-0.1,0.3-0.1l-0.2-3.1c0,0-0.1-0.1-0.3-0.1l-6.4,0.5C87.7,150.5,87.6,150.5,87.6,150.6z"/>
		</g>
	</g>
	<g>
		<g>
			<path class="st3" d="M81.3,153.9l6.8-0.5c0.4,0,0.7-0.4,0.7-0.8l-0.1-1.2c0-0.4-0.4-0.7-0.8-0.7l-6.8,0.5c-0.4,0-0.7,0.4-0.7,0.8
				l0.1,1.2C80.5,153.7,80.9,154,81.3,153.9z"/>
		</g>
		<g>
			<path d="M81.8,155c-0.6,0-1.1-0.2-1.6-0.6c-0.5-0.4-0.8-1-0.8-1.7c0-0.6,0.2-1.3,0.6-1.8c0.4-0.5,1-0.8,1.7-0.8l5.6-0.4
				c0.7,0,1.3,0.2,1.8,0.6c0.5,0.4,0.8,1,0.8,1.7c0,0.6-0.2,1.3-0.6,1.8c-0.4,0.5-1,0.8-1.7,0.8L82,155C81.9,155,81.9,155,81.8,155z
				 M87.4,151.9C87.4,151.9,87.4,151.9,87.4,151.9l-5.6,0.4c-0.1,0-0.2,0.1-0.2,0.3c0,0.1,0,0.1,0.1,0.2c0,0,0.1,0.1,0.2,0.1l0,0
				l5.6-0.4c0.1,0,0.2-0.1,0.2-0.3c0-0.1,0-0.1-0.1-0.2C87.5,151.9,87.5,151.9,87.4,151.9z"/>
		</g>
	</g>
	<g>
		<g>
			<path d="M91.4,121.7c-0.2,0.2-0.4,0.5-0.5,0.8c-0.1,0.3,0.1,0.7,0.2,1c2.2,5,4.5,9.9,7.1,14.7c0.2,0.4,0.4,0.8,0.4,1.2
				c0,0.4-0.1,0.9-0.3,1.3c-1.4,3.3-3,6.6-4.8,9.7c-0.2,0.3-0.4,0.7-0.7,0.9c-2.5,1.7-6.2-4.2-7.4-5.7c-1.5-1.9-2.6-3.5-2.4-6
				c0.2-2.3,1.3-4.5,1.8-6.8c0.7-2.7,1.6-6.1,1.4-8.9c0-0.5-0.4-0.8-0.7-1.1c-1.1-1.1-2.3-2.1-3.2-3.4c-0.9-1.3-1.5-2.9-1.1-4.4
				c0.9-3.8,6-4.4,8.7-2.3c1.1,0.9,2.3,2.2,3.2,3.2C94.9,117.7,92.9,119.9,91.4,121.7z"/>
		</g>
	</g>
	<g>
		<g>
			<path class="st2" d="M104.1,99.5c1.3,6.1-0.8,13.6-5.1,17.5c-1.8,1.6-2.1,1.9-4.3,1.4c-2.8-0.7-5.7-2.7-8-4.2
				c-1.7,2-2.8,6.7-5.3,7.9c-3.2,1.6-11.4-3.1-13.8-4.9c-3.5-2.7-6.3-6.4-5.7-11.1c1.3-9.6,12.5-15,21.3-16.4
				c6.3-0.9,14.9,0,19.8,4.5C104.8,95.8,103.7,97.6,104.1,99.5z"/>
		</g>
		<g>
			<path d="M79.8,123.6c-4.6,0-11.4-4.4-12.8-5.5c-4.6-3.5-6.7-7.7-6.1-12.1c1.3-9.8,12.4-15.8,22.3-17.3c6.6-1,15.6,0.1,20.7,4.8
				c1.4,1.3,1.3,2.9,1.3,4.1c0,0.6-0.1,1.2,0,1.7l0,0c1.4,6.6-0.9,14.4-5.5,18.5c-2,1.8-2.7,2.3-5.3,1.6c-2.6-0.6-5.2-2.4-7.4-3.7
				c-0.4,0.6-0.8,1.4-1.1,2.2c-1,2.1-2.1,4.3-3.9,5.2C81.4,123.5,80.6,123.6,79.8,123.6z M88,90.6c-1.5,0-3,0.1-4.4,0.3
				c-9,1.4-19.3,6.8-20.4,15.4c-0.5,3.6,1.3,7,5.3,10.1c3,2.3,10.3,6,12.6,4.8c1.2-0.6,2.1-2.5,3-4.3c0.6-1.3,1.2-2.5,2-3.4l0.6-0.7
				l1.7,1.1c2,1.3,4.5,2.9,6.8,3.5c1.6,0.4,1.6,0.4,3.2-1c4.1-3.7,6.1-10.8,4.9-16.6c-0.2-0.8-0.1-1.6-0.1-2.3
				c0.1-1.2,0.1-1.8-0.6-2.4C98.9,91.9,93.2,90.6,88,90.6z"/>
		</g>
	</g>
</g>
<g id="XMLID_189_">
	<g>
		<g>
			<path d="M97.3,172.5L77.2,177c0,0,1.8,28.3,2.9,46.1c18.8,3.9,23.7-6,23.7-6L97.3,172.5z"/>
		</g>
		<g>
			<path class="st1" d="M80.1,223.1c0.5,7.7,0.8,13.4,0.8,14.1c0,2.3,3.5,4.7,3.5,4.7c14.1,6.2,33.5,0,33.5,0s6.9-3.3,3.7-13.4
				c-3.2-10.1-17.9-11.5-17.9-11.5S98.9,227,80.1,223.1z"/>
		</g>
	</g>
	<g>
		<g>
			<path d="M99.4,245.8c-5.1,0-10.6-0.7-15.4-2.9l-0.2-0.1c-0.4-0.3-3.9-2.9-3.9-5.6c0-0.8-0.6-10.8-0.8-14
				c-1.1-17.8-2.9-46.1-2.9-46.1l-0.1-0.9l22.1-4.9l6.5,44.9c3.3,0.5,15.1,2.8,18,12.1c3.4,10.8-4.2,14.7-4.3,14.7
				C117.8,243.1,109.2,245.8,99.4,245.8z M84.9,241c13.6,5.9,32.5,0,32.7-0.1c0.1-0.1,5.9-3.1,3-12c-2.9-9.2-16.8-10.7-17-10.7
				l-0.8-0.1l-6.4-44.2l-18,4c0.3,5,1.9,29.3,2.8,45.2l0,0c0.5,9.2,0.8,13.5,0.8,14.2C82,238.4,83.9,240.2,84.9,241z"/>
		</g>
		<g>
			<path d="M88.4,225.1c-2.5,0-5.3-0.3-8.5-0.9c-0.5-0.1-0.9-0.5-0.9-1.1c0-0.7,0.6-1.2,1.3-1.1c17.7,3.7,22.3-5.1,22.4-5.5
				c0.3-0.5,0.9-0.8,1.5-0.5c0.5,0.3,0.8,0.9,0.5,1.4C104.6,217.9,100.9,225.1,88.4,225.1z"/>
		</g>
	</g>
</g>
<g id="XMLID_188_">
	<g>
		<g>
			<path class="st1" d="M40.2,228.4c-2.7,7.7-5.8,16.9,1.6,21.6c2.1,1.4,4.5,2.2,7,2.8c8.7,2.3,19.4,3.9,28,0.4
				c7.3-2.9,10.6-9.2,7-16.6c-2.1-4.1-4.5-6.5-8.4-8.7c-2.5-1.4-4.3-2.4-7.1-2.9c0,0-8.8,7.4-27.7,3.5L40.2,228.4z"/>
		</g>
		<g>
			<path d="M40.2,228.4l0.4,0.2c18.9,3.9,27.7-3.5,27.7-3.5c0-6,0.6-12.1,1.2-18.1c1-9.7,2-19.3,3-29l-21.9,4.4
				c-0.9,3.6-6,30.2-8.5,40C41.8,224.2,41,226.3,40.2,228.4z"/>
		</g>
	</g>
	<g>
		<g>
			<path d="M65.2,256.4c-4.9,0-10.4-0.8-16.6-2.5c-2.1-0.5-4.9-1.4-7.3-2.9c-8.2-5.3-4.7-15.5-2.1-22.9l0-0.1
				c0.7-2.1,1.5-4.1,1.9-5.8c1.5-5.9,3.9-17.8,5.9-27.4c1.3-6.2,2.3-11.1,2.6-12.5l0.2-0.7l24-4.9l-3.3,31.9
				c-0.5,5.1-1.1,10.4-1.1,15.7c2.4,0.6,4.1,1.5,6.5,2.8c4.3,2.4,6.7,5,8.8,9.1c1.8,3.6,2.1,7.1,0.9,10.3c-1.3,3.4-4.3,6.1-8.4,7.8
				C73.7,255.7,69.7,256.4,65.2,256.4z M40.2,228.4l1,0.4c-2.6,7.5-5.6,16,1.2,20.4c2.2,1.4,4.7,2.2,6.7,2.7
				c11.6,3.1,20.5,3.2,27.3,0.4c3.6-1.5,6.2-3.8,7.2-6.6c1-2.6,0.7-5.5-0.8-8.5c-1.9-3.8-4.1-6-7.9-8.2c-2.5-1.4-4.1-2.3-6.7-2.8
				l-0.9-0.2l0-0.9c0-5.6,0.6-11.3,1.1-16.8l3-28.9l-19.8,4c-0.5,2-1.4,6.6-2.4,11.8c-1.9,9.6-4.4,21.6-5.9,27.5
				c-0.4,1.8-1.2,3.8-1.9,6L40.2,228.4z"/>
		</g>
		<g>
			<path d="M51.3,230.8c-3.2,0-6.8-0.3-10.8-1.2c-0.6-0.1-1-0.7-0.8-1.3c0.1-0.6,0.7-1,1.3-0.8c18.1,3.8,26.7-3.2,26.8-3.3
				c0.5-0.4,1.1-0.3,1.5,0.1c0.4,0.5,0.3,1.1-0.1,1.5C68.8,226.2,63.1,230.8,51.3,230.8z"/>
		</g>
	</g>
</g>
<g>
	<g>
		<path d="M62.6,134.6c-0.1,0-0.2,0-0.3-0.1l-8.5-2.8c-0.5-0.2-0.8-0.7-0.7-1.2l1.2-6.5c0.1-0.5,0.6-0.9,1.1-0.9l17,1.1
			c0.6,0,1,0.5,1,1l0.2,6.3c0,0.5-0.4,1-0.9,1.1l-9.9,1.8C62.7,134.6,62.6,134.6,62.6,134.6z M55.3,130l7.3,2.4l8.7-1.6l-0.2-4.4
			l-15-1L55.3,130z"/>
	</g>
</g>
<g>
	<g>
		<g>
			<path class="st4" d="M116.1,120.8c-7.5,0-9.6-3.4-9.6-3.4s-2.1,3.4-9.6,3.4c0,0-0.1,19.8,9.6,19.8S116.1,120.8,116.1,120.8z"/>
		</g>
		<g>
			<path d="M106.4,141.7c-2.1,0-3.9-0.8-5.5-2.3c-5.3-5.3-5.2-18-5.2-18.6c0-0.6,0.5-1.1,1.1-1.1c6.7,0,8.7-2.8,8.7-2.9
				c0.2-0.3,0.6-0.5,0.9-0.5c0.4,0,0.7,0.2,0.9,0.5c0,0,2,2.9,8.7,2.9c0.6,0,1.1,0.5,1.1,1.1c0,0.5,0,13.3-5.2,18.6
				C110.4,140.9,108.5,141.7,106.4,141.7z M97.9,121.9c0.1,3.1,0.8,12.1,4.6,16c1.1,1.1,2.4,1.7,3.9,1.7c1.5,0,2.8-0.6,3.9-1.7
				c3.8-3.9,4.5-12.9,4.6-16c-4.7-0.2-7.3-1.8-8.5-2.8C105.2,120.1,102.6,121.6,97.9,121.9z"/>
		</g>
	</g>
	<g>
		<g>
			<g>
				<path class="st5" d="M110.1,131.9c0,2-1.6,2.5-3.6,2.5s-3.6-0.5-3.6-2.5s1.6-3.6,3.6-3.6S110.1,129.9,110.1,131.9z"/>
			</g>
		</g>
		<g>
			<g>
				<g>
					<ellipse class="st5" cx="102" cy="128" rx="1.2" ry="1.5"/>
				</g>
			</g>
			<g>
				<g>
					<ellipse class="st5" cx="110.9" cy="128" rx="1.2" ry="1.5"/>
				</g>
			</g>
		</g>
		<g>
			<g>
				<g>
					<ellipse class="st5" cx="104.7" cy="125.9" rx="1.2" ry="1.5"/>
				</g>
			</g>
			<g>
				<g>
					<ellipse class="st5" cx="108.1" cy="125.9" rx="1.2" ry="1.5"/>
				</g>
			</g>
		</g>
	</g>
</g>
<g>
	<g>
		<g>
			<path class="st0" d="M25.2,87.5c8.2,17.2,28,25.7,48.8,28.3c12.5,1.6,26.2,0.1,37.5-6c15-8,25.2-24.2,11.2-38.9
				c4.8-21.7-13.5-37.3-13.5-37.3s7-16.6-4.1-26.7c0,0-1-1.6-2.9-0.2c-6,4.5-15.7,14.7-18,18.7c0,0-9.9-0.7-15.2,0.2
				c0,0-4.8-6.6-8.2-10.3s-13-13-15.3-12.6c-2.3,0.4-16.1,18.8-7.9,31c-0.6-0.9-10,12.1-10.4,12.8C19.2,61.7,19.6,75.8,25.2,87.5z"
				/>
		</g>
		<g>
			<path d="M83.2,117.5c-3.1,0-6.2-0.2-9.3-0.6C59.6,115.1,34.2,109,24.2,88c-6.2-13-5.5-27.5,2.1-41.9c0.1-0.1,6.6-9.8,9.9-12.7
				c-3.8-6.7-1.9-14.5,0.5-20c2.5-5.7,6.7-11.4,8.7-11.7c3.5-0.6,15.7,12.4,16.3,13c2.9,3.1,6.7,8.2,7.9,9.9
				c4.7-0.7,11.9-0.3,14.1-0.2c2.9-4.5,12.1-14.1,17.9-18.4c1.1-0.8,2-0.8,2.6-0.7c0.9,0.2,1.5,0.8,1.8,1.1
				c10.1,9.3,5.8,23.8,4.6,27.2c3.1,2.9,17.3,17.7,13.4,37.3c5.1,5.6,7.3,11.9,6.3,18.3c-1.3,8.3-8.1,16.5-18.2,21.9
				C103.7,115.2,93.8,117.5,83.2,117.5z M37.7,34.8c-1.8,1.4-9,11.3-9.5,12.3c-7.2,13.8-7.9,27.6-2,40c0,0,0,0,0,0
				c9.6,20.1,34.2,26,47.9,27.7c13.5,1.7,26.6-0.4,36.8-5.9c9.4-5.1,15.8-12.6,17-20.3c1-5.9-1.1-11.6-6.1-16.9
				c-0.2-0.3-0.4-0.6-0.3-1c4.6-20.8-12.9-36.1-13.1-36.2c-0.4-0.3-0.5-0.8-0.3-1.2c0.1-0.2,6.5-16-3.8-25.5
				c-0.1-0.1-0.1-0.1-0.2-0.2c0,0,0,0,0,0c0,0-0.2-0.2-0.4-0.3c-0.3,0-0.6,0.2-0.9,0.3C97.1,11.9,87.4,22,85.2,26
				c-0.2,0.4-0.6,0.6-1,0.6c-0.1,0-9.8-0.7-14.9,0.2c-0.4,0.1-0.8-0.1-1.1-0.4c0-0.1-4.8-6.6-8.1-10.2C54.8,10.6,47.3,3.8,45.7,3.8
				c-0.9,0.4-6,6.4-8.4,14.2c-1.3,4.1-2.1,10.1,1.2,15.1c0,0,0,0,0,0c0,0,0,0,0,0c0.3,0.5,0.2,1.2-0.3,1.5
				C38.1,34.7,37.9,34.8,37.7,34.8z M36.7,34.3C36.7,34.3,36.7,34.3,36.7,34.3C36.7,34.3,36.7,34.3,36.7,34.3z M36.7,34.3
				C36.7,34.3,36.7,34.3,36.7,34.3C36.7,34.3,36.7,34.3,36.7,34.3z"/>
		</g>
	</g>
	<g>
		<g>
			<path class="st6" d="M75.7,84.7c-0.7,7.6,2.5,15.9,19.4,16.5c11.6,0.4,20.1-6.9,19.9-14.6s-6.6-15.3-18.1-15
				C85.4,71.9,76.5,77.1,75.7,84.7z"/>
		</g>
	</g>
	<g>
		<g>
			<path class="st7" d="M102.3,88.8c0,0-0.1,5.2-4.2,5.2s-5.2-4.7-5.2-4.7s2.9-1.2,4.7-2.9L102.3,88.8z"/>
		</g>
	</g>
	<g>
		<g>
			<path class="st0" d="M89.9,35.1c2.2,1.9,9.7-0.4,8-5.3S90.3,29,90.3,29s5.3-7.3-0.3-9.7S83,24,83,24s1-4-2.2-5.1
				c-6.6-2.2-8,5.2-4.3,9.1"/>
		</g>
		<g>
			<path d="M92.1,36.8c-1.1,0-2.2-0.3-3-0.9c-0.5-0.4-0.5-1.1-0.1-1.5c0.4-0.5,1.1-0.5,1.5-0.1c0.8,0.7,3.2,0.5,4.9-0.6
				c0.9-0.6,1.9-1.7,1.3-3.5c-0.3-0.8-0.7-1.3-1.3-1.5c-1.5-0.5-3.8,0.8-4.6,1.3c-0.4,0.3-1,0.2-1.4-0.1c-0.4-0.4-0.4-1-0.1-1.4
				c0.7-1,2.5-4.1,2-6.2c-0.2-0.8-0.8-1.5-1.8-1.9c-1.2-0.5-2.1-0.6-3-0.1C85,21,84.3,23.4,84.1,24c0,0.1,0,0.2-0.1,0.3
				c-0.1,0.6-0.7,0.9-1.3,0.8c-0.6-0.1-0.9-0.7-0.8-1.3c0,0,0-0.1,0-0.2c0.1-0.6,0.4-3-1.5-3.6c-1.4-0.5-3.3-0.7-4.3,0.9
				c-1,1.5-0.8,4.4,1.1,6.4c0.4,0.4,0.4,1.1,0,1.5c-0.4,0.4-1.1,0.4-1.5,0c-2.4-2.5-3.1-6.5-1.4-9.1c0.6-1,2.6-3.2,6.8-1.8
				c1.2,0.4,2,1.1,2.4,2c0.5-0.7,1.1-1.3,1.9-1.7c1.4-0.7,3.1-0.7,4.8,0.1c1.6,0.7,2.6,1.8,3,3.3c0.4,1.7,0,3.5-0.6,5
				c1.1-0.3,2.3-0.4,3.4-0.1c0.9,0.3,2.1,1,2.7,2.9c0.8,2.3,0,4.5-2.2,6C95.4,36.3,93.7,36.8,92.1,36.8z"/>
		</g>
	</g>
	<g>
		<g>
			<path class="st8" d="M57.8,28.1c0,0-12.3-15-12.3-17.6c0-2.5-8.9,14.7-2.3,20.2c0,0,2.2-0.9,3.5-1c0,0-1-4.7,3.1-1.2
				C52.5,30.6,57.8,28.1,57.8,28.1z"/>
		</g>
		<g>
			<path d="M43.2,31.8c-0.3,0-0.5-0.1-0.7-0.3c-5.3-4.4-2-14.8,0.5-19.7c1.1-2.2,1.8-2.9,2.7-2.7c0.5,0.1,0.9,0.5,0.9,1.3
				c0.1,1.5,6.2,9.8,12,16.9c0.2,0.3,0.3,0.6,0.2,0.9c-0.1,0.3-0.3,0.6-0.6,0.7c-0.6,0.3-6,2.8-9.1,0.2c-0.8-0.6-1.2-0.9-1.4-1
				c0,0.3,0,0.8,0.1,1.1c0.1,0.3,0,0.6-0.2,0.9s-0.5,0.4-0.8,0.4c-0.9,0.1-2.7,0.7-3.2,1C43.5,31.8,43.4,31.8,43.2,31.8z M45.1,12.5
				c-1.3,2.5-3.4,7.8-3.2,12.2c0.1,2.1,0.6,3.7,1.6,4.7c0.5-0.2,1.3-0.5,2.1-0.6c0-0.9,0.1-1.9,1-2.5c1.3-0.8,2.9,0.3,4,1.3
				c1.3,1.1,3.8,0.6,5.5,0C52.7,23.5,47.1,16.3,45.1,12.5z"/>
		</g>
	</g>
	<g>
		<g>
			<path class="st8" d="M52.9,28.5c0,0-5.2-2.3-6.4-5.8"/>
		</g>
		<g>
			<path d="M52.9,29.6c-0.1,0-0.3,0-0.4-0.1c-0.2-0.1-5.7-2.5-7-6.5c-0.2-0.6,0.1-1.2,0.7-1.4c0.6-0.2,1.2,0.1,1.4,0.7
				c0.8,2.5,4.4,4.5,5.8,5.1c0.5,0.2,0.8,0.9,0.6,1.4C53.7,29.4,53.3,29.6,52.9,29.6z"/>
		</g>
	</g>
	<g>
		<g>
			<path class="st8" d="M105,11.5c0,0-1.5,16.4-4.2,18l5.1,2.7C105.8,32.2,110.1,17.3,105,11.5z"/>
		</g>
		<g>
			<path d="M105.8,33.3c-0.2,0-0.4,0-0.5-0.1l-5.1-2.7c-0.3-0.2-0.6-0.5-0.6-0.9c0-0.4,0.2-0.8,0.5-1c1.2-0.7,2.9-8.6,3.7-17.1
				c0-0.4,0.3-0.8,0.7-0.9c0.4-0.1,0.9,0,1.2,0.3c5.5,6.2,1.2,21.1,1.1,21.7c-0.1,0.3-0.3,0.6-0.6,0.7
				C106.1,33.2,106,33.3,105.8,33.3z M102.4,29.1l2.7,1.5c0.7-3,2.2-10.6,0.6-15.6C105.2,19.5,104.1,26.2,102.4,29.1z"/>
		</g>
	</g>
	<g>
		<g>
			<path class="st9" d="M78.3,69.2c-0.8,0.1-1.4,1-1.7,1.8s-0.4,1.7-0.9,2.4c-0.5,0.7-1.3,1.1-2,1.5c-3.8,2.5-5.3,7.2-6.5,11.5
				c-0.2,0.8-0.4,1.6-0.3,2.4c0.1,0.8,0.7,1.6,1.5,1.7c0.8,0.1,1.5-0.5,1.8-1.2s0.4-1.5,0.5-2.2c0.3-2,0.9-4,1.8-5.9
				c0.3-0.7,0.7-1.4,1.3-1.9c0.7-0.6,1.7-0.9,2.4-1.5c0.9-0.8,1.5-2.1,2.6-2.5c0.5-0.2,1-0.1,1.5-0.2c1.1-0.2,2.1-1,2.6-2"/>
		</g>
		<g>
			<path d="M68.6,91.6c-0.1,0-0.2,0-0.2,0C67,91.4,66,90.2,65.8,89C65.7,88,66,87,66.2,86.1c1.3-4.7,3-9.5,7-12.1l0.5-0.3
				c0.5-0.3,1-0.6,1.2-1c0.2-0.3,0.4-0.8,0.5-1.4c0.1-0.3,0.1-0.5,0.2-0.8c0.5-1.5,1.4-2.4,2.5-2.5c0.6-0.1,1.1,0.3,1.2,0.9
				c0.1,0.6-0.3,1.1-0.9,1.2c-0.3,0-0.6,0.5-0.8,1c-0.1,0.2-0.1,0.4-0.2,0.6c-0.2,0.7-0.4,1.4-0.8,2.1c-0.5,0.7-1.2,1.2-1.9,1.5
				l-0.4,0.3c-3.4,2.2-4.8,6.4-6.1,10.9c-0.2,0.7-0.4,1.3-0.3,1.9c0.1,0.4,0.3,0.7,0.6,0.8c0.2,0,0.6-0.2,0.7-0.6
				c0.2-0.4,0.3-1,0.4-1.6l0-0.3c0.3-2.2,0.9-4.2,1.9-6.2c0.4-0.7,0.8-1.6,1.6-2.2c0.5-0.4,1-0.7,1.4-0.9c0.4-0.2,0.7-0.4,1-0.6
				c0.3-0.2,0.5-0.5,0.8-0.9c0.5-0.7,1.2-1.4,2.2-1.8c0.4-0.1,0.8-0.2,1.2-0.2c0.2,0,0.3,0,0.5-0.1c0.8-0.1,1.5-0.7,1.8-1.4
				c0.3-0.5,0.9-0.8,1.4-0.5c0.5,0.3,0.8,0.9,0.5,1.4C83.3,75,82,76,80.5,76.2c-0.2,0-0.4,0.1-0.6,0.1c-0.3,0-0.5,0-0.7,0.1
				c-0.4,0.1-0.8,0.6-1.2,1.1c-0.3,0.4-0.7,0.8-1.1,1.2c-0.4,0.4-0.9,0.6-1.4,0.9c-0.4,0.2-0.8,0.4-1,0.6c-0.4,0.4-0.7,0.9-1,1.5
				c-0.8,1.7-1.4,3.6-1.7,5.5l0,0.3c-0.1,0.7-0.2,1.5-0.6,2.3C70.8,90.7,69.8,91.6,68.6,91.6z"/>
		</g>
	</g>
	<g>
		<g>
			<path class="st9" d="M107.1,71.5c0.3,1,0.9,2.2,1.9,2.4c1.4,0.2,2.2,0.4,3,1.5c0.8,1.2,1.6,2.9,2.2,4.3c1.4,3.4,3.1,0.5,2.4-1.9
				c-0.3-1-1-1.9-1.6-2.9c-1.4-2.2-1.2-7-3.6-8.3"/>
		</g>
		<g>
			<path d="M115.6,82.4c-0.7,0-1.6-0.4-2.4-2.2c-0.8-1.8-1.5-3.2-2.1-4.2c-0.5-0.7-0.8-0.8-2.1-1c-2-0.4-2.7-2.4-2.9-3.2
				c-0.2-0.6,0.1-1.2,0.7-1.4c0.6-0.2,1.2,0.1,1.4,0.7c0.1,0.4,0.5,1.6,1.1,1.7c1.5,0.3,2.7,0.5,3.7,2c0.7,1.1,1.5,2.6,2.3,4.5
				c0.1,0.3,0.2,0.5,0.3,0.6c0.1-0.4,0.2-1.1,0-1.7c-0.2-0.7-0.7-1.4-1.2-2.2l-0.3-0.5c-0.6-1-0.9-2.3-1.3-3.7
				c-0.4-1.8-0.9-3.7-1.9-4.2c-0.5-0.3-0.7-0.9-0.5-1.5c0.3-0.5,0.9-0.7,1.5-0.5c1.9,1,2.5,3.5,3.1,5.6c0.3,1.2,0.6,2.4,1,3l0.3,0.4
				c0.5,0.8,1.1,1.7,1.4,2.7c0.7,2,0,4.2-1.4,4.7C116.1,82.4,115.8,82.4,115.6,82.4z"/>
		</g>
	</g>
	<g>
		<g>
			<g>
				<g>
					<g>
						<path class="st10" d="M98.1,79.5c-1.9,0-3.4-1.2-3.5-2.8c0-0.8,0.3-1.7,1-2.3c0.6-0.5,1.5-0.9,2.4-0.9l0.2,0
							c1.9,0,3.4,1.2,3.5,2.8c0.1,1.7-1.4,3.1-3.4,3.2L98.1,79.5z"/>
					</g>
				</g>
				<g>
					<g>
						<path d="M98.3,74.6c1.3,0,2.4,0.8,2.4,1.8c0.1,1-1,2-2.4,2c-0.1,0-0.1,0-0.2,0c-1.3,0-2.4-0.8-2.4-1.8c-0.1-1,1-2,2.4-2
							C98.2,74.6,98.2,74.6,98.3,74.6 M98.3,72.4c-0.1,0-0.2,0-0.3,0c-2.6,0.1-4.6,2-4.4,4.3c0.1,2.2,2.1,3.8,4.6,3.8
							c0.1,0,0.2,0,0.3,0c2.6-0.1,4.6-2,4.4-4.3C102.7,74.1,100.8,72.4,98.3,72.4L98.3,72.4z"/>
					</g>
				</g>
			</g>
			<g>
				<g>
					<g>
						<g>
							<path class="st11" d="M107.4,72.1L107.4,72.1c-2,0-3.7-1.5-3.7-3.5l0-0.5c0-2,1.6-3.6,3.6-3.6s3.7,1.5,3.7,3.5l0,0.5
								C111,70.4,109.4,72,107.4,72.1"/>
						</g>
					</g>
				</g>
				<g>
					<g>
						<g>
							<path class="st11" d="M83.5,72.8L83.5,72.8c-2.1,0-3.9-1.6-3.9-3.6l0-0.5c0-2,1.7-3.7,3.8-3.7c2.1,0,3.9,1.6,3.9,3.6l0,0.5
								C87.4,71.1,85.7,72.7,83.5,72.8"/>
						</g>
					</g>
				</g>
			</g>
		</g>
		<g>
			<g>
				<path d="M91.1,90.5c-0.6,0-1.1-0.1-1.7-0.5c-0.5-0.3-0.6-1-0.3-1.5c0.3-0.5,1-0.6,1.5-0.3c0.2,0.1,0.2,0.1,1,0.1
					c0.3,0,0.7,0,1.3-0.1c2.6,0,3.8-3.1,3.8-3.1c0.2-0.4,0.5-0.7,1-0.7c0.5,0,0.8,0.2,1,0.6c1.7,3.4,5.7,2.9,5.7,2.9
					c0.6-0.1,1.1,0.3,1.2,0.9c0.1,0.6-0.3,1.1-0.9,1.2c-0.2,0-4.3,0.5-6.9-2.4c-0.9,1.3-2.5,2.8-4.9,2.8c-0.5,0-0.8,0-1.1,0
					C91.5,90.4,91.3,90.5,91.1,90.5z"/>
			</g>
		</g>
	</g>
</g>
<g>
	<g>
		<g>
			<path class="st0" d="M35.6,108.9c-0.1,0.8-0.2,1.6-0.3,2.4c-0.4,7.2,6.8,13.4,11.8,18c12.8,11.9,30,16.3,46.2,5.2
				c4.8-3.3,10.2-8,12.5-13.3c0.9-2.2,0.9-4.8,0.5-7.2c-0.7-4.4-3-9.1-7.1-10.2c-3.1-0.8-6.4,0.7-8.9,2.7c-3.4,2.7-6.2,6.3-9.4,9.2
				c-4.1,3.7-10,5.8-15.1,3.7c-5-2.1-7.8-5.3-12-8.8c-3.6-3-6.6-6.5-11.3-7.3C38.2,102.6,36.3,105.2,35.6,108.9z"/>
		</g>
		<g>
			<path d="M73.7,141.9c-9.4,0-18.9-4-27.4-11.9l-1-0.9c-4.9-4.5-11.6-10.7-11.2-17.9c0-0.9,0.1-1.8,0.3-2.6l0,0
				c0.9-4.9,3.8-7.2,8.2-6.4c4.1,0.8,7,3.3,9.8,5.8c0.7,0.6,1.3,1.2,2,1.8c1,0.8,1.9,1.6,2.8,2.4c2.8,2.5,5.3,4.7,9,6.2
				c4.2,1.7,9.6,0.4,13.9-3.5c1.4-1.2,2.7-2.6,3.9-3.9c1.7-1.8,3.5-3.7,5.6-5.3c2.4-1.9,6.1-4,9.9-2.9c4.7,1.3,7.2,6.6,7.9,11.1
				c0.5,3.1,0.3,5.6-0.6,7.8c-1.9,4.5-6.2,9.2-12.9,13.7C87.5,139.8,80.7,141.9,73.7,141.9z M36.6,109.1c-0.1,0.7-0.2,1.5-0.3,2.3
				c-0.3,6.3,5.7,11.8,10.5,16.2l1,0.9c14,12.9,30.7,14.8,44.8,5.1c6.2-4.3,10.4-8.7,12.1-12.8c0.7-1.7,0.9-3.9,0.5-6.6
				c-0.6-3.7-2.6-8.3-6.3-9.3c-2.9-0.8-5.9,0.9-8,2.5c-1.9,1.5-3.6,3.3-5.3,5.1c-1.3,1.4-2.6,2.8-4,4.1c-4.9,4.4-11.2,5.9-16.2,3.9
				c-4-1.7-6.6-4-9.6-6.6c-0.9-0.8-1.7-1.5-2.7-2.3c-0.7-0.6-1.4-1.2-2.1-1.8c-2.7-2.4-5.2-4.6-8.7-5.3
				C40.3,104.1,37.6,104.2,36.6,109.1L36.6,109.1z"/>
		</g>
	</g>
	<g>
		<g>
			<path class="st2" d="M98.9,130.1c-1,0.8-4.6,3.7-5.6,4.4c-16.2,11.2-33.4,6.7-46.2-5.2c-5-4.6-12.2-10.7-11.8-18
				c0-0.8,0.1-1.7,0.3-2.4c0.7-3.7,2.6-6.3,7-5.5c4.7,0.9,7.7,4.3,11.3,7.3c4.2,3.5,7,6.7,12,8.8c5,2.1,11,0,15.1-3.7
				c1.6-1.5,3.1-3.1,4.6-4.7L98.9,130.1z"/>
		</g>
		<g>
			<path d="M73.7,141.9c-9.4,0-18.9-4-27.4-11.9l-1-0.9c-4.9-4.5-11.6-10.7-11.2-17.9c0-0.9,0.1-1.8,0.3-2.6
				c0.9-4.9,3.8-7.2,8.2-6.4c4.1,0.8,7,3.3,9.8,5.8c0.7,0.6,1.3,1.2,2,1.8c1,0.8,1.9,1.6,2.8,2.4c2.8,2.5,5.3,4.7,9,6.2
				c4.2,1.7,9.6,0.4,13.9-3.5c1.4-1.2,2.7-2.6,3.9-3.9l1.6-1.7l14.7,20.9l-2.1,1.7c-1.5,1.2-3.6,2.9-4.4,3.4
				C87.5,139.8,80.7,141.9,73.7,141.9z M41,104.3c-1.8,0-3.7,0.9-4.4,4.8c-0.1,0.7-0.2,1.5-0.3,2.3c-0.3,6.3,5.7,11.8,10.5,16.2
				l1,0.9c14,12.9,30.7,14.8,44.8,5.1c0.7-0.5,2.8-2.2,4.3-3.3l0.5-0.4l-12-17c-1.2,1.3-2.5,2.6-3.8,3.8c-4.9,4.4-11.2,5.9-16.2,3.9
				c-4-1.7-6.6-4-9.6-6.6c-0.9-0.8-1.7-1.5-2.7-2.3c-0.7-0.6-1.4-1.2-2.1-1.8c-2.7-2.4-5.2-4.6-8.7-5.3
				C41.9,104.4,41.5,104.3,41,104.3z"/>
		</g>
	</g>
	<g>
		<g>
			<line class="st12" x1="81.8" y1="139.9" x2="73.1" y2="120"/>
		</g>
		<g>
			<path d="M81.8,140.9c-0.4,0-0.8-0.2-1-0.7l-8.7-19.9c-0.2-0.6,0-1.2,0.6-1.4c0.6-0.2,1.2,0,1.4,0.6l8.7,19.9
				c0.2,0.6,0,1.2-0.6,1.4C82,140.9,81.9,140.9,81.8,140.9z"/>
		</g>
	</g>
	<g>
		<g>
			<g>
				<path class="st13" d="M42.5,127c0,0,3.2,3.6,4.9,5l5-8.4l-4.5-4.6L42.5,127z"/>
			</g>
			<g>
				<path d="M47.5,133.1c-0.2,0-0.5-0.1-0.7-0.2c-1.8-1.4-4.9-5-5.1-5.1c-0.3-0.4-0.4-0.9-0.1-1.3l5.4-8.1c0.2-0.3,0.5-0.4,0.8-0.5
					c0.3,0,0.6,0.1,0.9,0.3l4.5,4.6c0.3,0.4,0.4,0.9,0.2,1.3l-5,8.4c-0.2,0.3-0.4,0.5-0.7,0.5C47.6,133.1,47.5,133.1,47.5,133.1z
					 M43.9,126.9c0.8,0.8,2.1,2.3,3.3,3.4l3.9-6.5l-3-3.1L43.9,126.9z"/>
			</g>
		</g>
		<g>
			<g>
				<line class="st13" x1="46.1" y1="127" x2="47.9" y2="124.2"/>
			</g>
			<g>
				<path d="M46.1,128.1c-0.2,0-0.4-0.1-0.6-0.2c-0.5-0.3-0.7-1-0.3-1.5l1.8-2.8c0.3-0.5,1-0.7,1.5-0.3c0.5,0.3,0.7,1,0.3,1.5
					l-1.8,2.8C46.9,127.9,46.5,128.1,46.1,128.1z"/>
			</g>
		</g>
		<g>
			<g>
				<path d="M42.5,127c0,0-6.5-5.6-7.6-10.1l5.4-7.8c0,0,5.6,7.9,7.5,9.9L42.5,127z"/>
			</g>
			<g>
				<path d="M42.5,128.1c-0.3,0-0.5-0.1-0.7-0.3c-0.3-0.2-6.8-5.8-7.9-10.7c-0.1-0.3,0-0.6,0.2-0.9l5.4-7.8c0.2-0.3,0.5-0.5,0.9-0.5
					c0,0,0,0,0,0c0.4,0,0.7,0.2,0.9,0.5c0.1,0.1,5.6,7.9,7.4,9.7c0.4,0.4,0.4,0.9,0.1,1.4l-5.4,8.1c-0.2,0.3-0.4,0.4-0.8,0.5
					C42.6,128.1,42.6,128.1,42.5,128.1z M36.2,117.1c1,3.1,4.5,6.7,6.2,8.2l4.2-6.3c-1.7-2-4.6-6-6.1-8.1L36.2,117.1z"/>
			</g>
		</g>
	</g>
	<g>
		<g>
			<polygon class="st13" points="87.2,137.9 76.7,118.7 80.9,115.8 91.8,135.5 			"/>
		</g>
		<g>
			<path d="M87.2,139c-0.4,0-0.8-0.2-1-0.6l-10.5-19.2c-0.3-0.5-0.1-1.1,0.3-1.4l4.3-2.9c0.3-0.2,0.6-0.2,0.9-0.2
				c0.3,0.1,0.6,0.3,0.7,0.5l10.9,19.6c0.1,0.3,0.2,0.6,0.1,0.8c-0.1,0.3-0.3,0.5-0.5,0.7l-4.6,2.5C87.5,139,87.4,139,87.2,139z
				 M78.1,119.1l9.5,17.4l2.7-1.4l-9.8-17.6L78.1,119.1z"/>
		</g>
	</g>
</g>
<g>
	<g>
		<path d="M98.1,95.1c-4,0-5.9-3.6-6.3-5.6l2.1-0.5c0,0.2,1,3.9,4.2,3.9c3,0,3.1-4,3.1-4.1l2.2,0C103.4,91,102.2,95.1,98.1,95.1z"/>
	</g>
</g>
<g>
	<g>
		<g>
			<path class="st2" d="M102.4,24.6c0,0,10.6,5.2,11.1,8.2c0.6,3-6.9-2.4-15.8,4s-28.2-9.3-28.2-9.3S89.7,16.4,102.4,24.6z"/>
		</g>
		<g>
			<path d="M92.5,39.5c-9.9,0-23-10.5-23.7-11c-0.3-0.2-0.4-0.6-0.4-0.9c0-0.4,0.2-0.7,0.6-0.9c0.8-0.5,20.8-11.4,33.9-3
				c2.7,1.3,11,5.7,11.7,9c0.1,0.7,0,1.3-0.4,1.7c-0.7,0.8-1.8,0.7-3.4,0.5c-2.8-0.3-7.4-0.7-12.4,2.9C96.7,39,94.6,39.5,92.5,39.5z
				 M71.5,27.8C76,31.1,90.3,40.9,97.1,36c5.7-4.1,11.1-3.6,13.9-3.3c0.4,0,0.9,0.1,1.3,0.1c-0.9-1.8-5.9-5-10.4-7.2
				c0,0-0.1,0-0.1-0.1C91.7,19,76.4,25.5,71.5,27.8z"/>
		</g>
	</g>
	<g>
		<g>
			<g>
				<path class="st2" d="M102.4,17.5c-2.8-7.3-7-10.8-19.1-12.2c-8.9-1-15.2,1-20.8,8.5c-3.4,4.6,0.5,11.7,4.9,13.2
					c6.1,2,15.7,0.1,22.1-0.3c6.9-0.5,16.4,1.4,12.9-8.9C102.5,17.7,102.5,17.6,102.4,17.5z"/>
			</g>
			<g>
				<path d="M74.6,29c-2.7,0-5.2-0.3-7.4-1c-2.8-0.9-5.5-3.8-6.5-7.2c-0.9-2.9-0.5-5.6,1.1-7.7c5.6-7.4,11.9-10,21.8-8.9
					c11.7,1.3,16.8,4.6,20,12.9l0,0l0.1,0.3c1.1,3.3,1.1,5.7-0.1,7.4c-1.9,2.7-6.2,2.8-10.3,2.8c-1.2,0-2.3,0-3.4,0.1
					c-1.5,0.1-3.2,0.3-5,0.5C81.5,28.6,77.9,29,74.6,29z M79.3,6.1c-6.9,0-11.5,2.5-15.9,8.3c-1.5,2.1-1.1,4.5-0.7,5.7
					c0.8,2.7,3,5.1,5.1,5.8c4.4,1.5,10.9,0.8,16.7,0.1c1.8-0.2,3.5-0.4,5.1-0.5c1.1-0.1,2.3-0.1,3.5-0.1c3.6,0,7.3-0.1,8.5-1.9
					c0.8-1.1,0.7-2.9-0.1-5.5l-0.1-0.2c-2.5-6.6-6-10.1-18.2-11.5C81.9,6.2,80.6,6.1,79.3,6.1z"/>
			</g>
		</g>
	</g>
	<g>
		<g>
			<path class="st14" d="M103.1,23c0,0-27.8-1.1-33.6,4.6C69.5,27.6,105.6,30.3,103.1,23z"/>
		</g>
		<g>
			<path d="M83.4,29.2c-6.2,0-11.9-0.4-14-0.5c-0.4,0-0.8-0.3-0.9-0.7c-0.1-0.4,0-0.9,0.3-1.2c6.1-5.9,33.3-4.9,34.4-4.9
				c0.4,0,0.8,0.3,1,0.7c0.4,1,0.2,2-0.4,2.9C101.4,28.5,91.9,29.2,83.4,29.2z M73.1,26.7c11.2,0.6,26.6,0.4,28.9-2.6
				c0,0,0.1-0.1,0.1-0.1C95,23.9,80.1,24.1,73.1,26.7z"/>
		</g>
	</g>
	<g>
		<g>
			<g>
				<path class="st4" d="M95.9,13.5c-3.4-0.3-4.2-1.8-4.2-1.8s-1.1,1.3-4.5,0.9c0,0-0.9,8.2,3.5,8.6C95.1,21.7,95.9,13.5,95.9,13.5z
					"/>
			</g>
			<g>
				<path d="M91.1,22.2c-0.1,0-0.3,0-0.4,0c-1.1-0.1-2.1-0.6-2.8-1.5c-2.1-2.6-1.6-7.9-1.6-8.1c0.1-0.5,0.5-0.8,1-0.8
					c2.8,0.3,3.7-0.6,3.7-0.6c0.2-0.2,0.5-0.3,0.8-0.3c0.3,0,0.5,0.2,0.7,0.4l0,0c0,0,0.8,1.1,3.5,1.4c0.5,0.1,0.9,0.5,0.8,1
					c0,0.2-0.5,5.5-3.2,7.6C92.9,21.9,92,22.2,91.1,22.2z M88,13.6c-0.1,1.7,0.1,4.5,1.2,5.9c0.4,0.5,0.9,0.8,1.5,0.9
					c0.6,0.1,1.2-0.1,1.7-0.5c1.4-1.1,2.1-3.9,2.4-5.5c-1.7-0.3-2.7-0.9-3.3-1.4C90.9,13.3,89.8,13.6,88,13.6z"/>
			</g>
		</g>
		<g>
			<g>
				<g>
					<path class="st5" d="M92.7,17.8c-0.1,0.8-0.8,0.9-1.7,0.8c-0.9-0.1-1.6-0.4-1.5-1.2c0.1-0.8,0.9-1.4,1.8-1.3
						C92.1,16.3,92.8,17,92.7,17.8z"/>
				</g>
			</g>
			<g>
				<g>
					<g>
						
							<ellipse transform="matrix(0.1025 -0.9947 0.9947 0.1025 64.3223 102.9715)" class="st5" cx="89.2" cy="15.8" rx="0.6" ry="0.5"/>
					</g>
				</g>
				<g>
					<g>
						
							<ellipse transform="matrix(0.1025 -0.9947 0.9947 0.1025 67.5403 107.3718)" class="st5" cx="93.3" cy="16.3" rx="0.6" ry="0.5"/>
					</g>
				</g>
			</g>
			<g>
				<g>
					<g>
						
							<ellipse transform="matrix(0.1025 -0.9947 0.9947 0.1025 66.272 103.6403)" class="st5" cx="90.6" cy="15.1" rx="0.6" ry="0.5"/>
					</g>
				</g>
				<g>
					<g>
						
							<ellipse transform="matrix(0.1025 -0.9947 0.9947 0.1025 67.4939 105.311)" class="st5" cx="92.1" cy="15.3" rx="0.6" ry="0.5"/>
					</g>
				</g>
			</g>
		</g>
	</g>
</g>
<g>
	<g>
		<path class="st0" d="M118.8,98.7C118.8,98.7,118.8,98.7,118.8,98.7c-6.8,0.6-10.2,7.9-10.9,13.8c-0.3,3.1,0.4,6.4,2.4,8.8
			c7.5,8.7,19.2-2.1,20.4-10.4C131.8,104.3,125.3,98.2,118.8,98.7z"/>
	</g>
	<g>
		<path d="M116.9,125.6c-2.8,0-5.3-1.2-7.3-3.6c-2.1-2.4-3.1-5.9-2.7-9.6c0.7-6.7,4.7-14.1,11.8-14.8c0,0,0.1,0,0.1,0
			c3.6-0.3,7.4,1.2,10.1,4.1c2.5,2.7,3.6,6.1,3.1,9.4c-0.9,6-6.5,12.5-12.2,14.1C118.7,125.5,117.8,125.6,116.9,125.6z M118.9,99.8
			C118.9,99.8,118.8,99.8,118.9,99.8c-5.9,0.5-9.3,7-9.9,12.8c-0.3,3.1,0.5,6,2.2,8c2.2,2.5,4.8,3.4,7.9,2.5
			c4.9-1.4,9.9-7.2,10.7-12.3c0.4-2.6-0.5-5.4-2.5-7.6C125,100.8,121.9,99.6,118.9,99.8L118.9,99.8z"/>
	</g>
</g>
</svg>
