<?xml version="1.0" encoding="utf-8"?>
<!-- Generator: Adobe Illustrator 24.1.1, SVG Export Plug-In . SVG Version: 6.00 Build 0)  -->
<svg version="1.1" id="Layer_1" xmlns="http://www.w3.org/2000/svg" xmlns:xlink="http://www.w3.org/1999/xlink" x="0px" y="0px"
	 viewBox="0 0 230 240" style="enable-background:new 0 0 230 240;" xml:space="preserve">
<g>
	<path d="M130.28,120.88c0.14,0,0.29,0.01,0.44,0.02c2.05,0.18,3.69,2.71,4.83,4.15c5.09,6.46,7.72,13.6,8.55,20.95
		c0.02,0,0.05,0,0.08,0.01c0.46,0.07,0.39,6.12,0.39,6.72c-0.03,2.66-0.26,5.31-0.67,7.93c-0.79,5.06-1.62,11.51-6.21,15
		c-0.99,0.75-2.54,1.11-4.01,1.15c-0.11,0-0.22,0.01-0.33,0.01c-0.56,0-1.1-0.04-1.58-0.13c-5.88-1.02-4.62-5.62-2.83-9.39
		c2.32-4.88,3.59-9.76,3.91-14.87c0.03-0.52,0.05-1.05,0.06-1.57c0.01-0.38,0.02-0.75,0.01-1.13c-0.01-0.94-0.04-1.89-0.1-2.83
		c-0.01-0.14-0.01-0.28-0.02-0.42c-0.18-2.35-0.56-4.7-1.14-7.01C130.96,136.76,123.38,120.88,130.28,120.88 M130.28,117.65
		c-2.08,0-3.83,0.87-4.91,2.44c-2.68,3.88-0.43,10.69,2.32,17.92c0.35,0.91,0.74,1.94,0.82,2.26c0.53,2.07,0.88,4.25,1.05,6.47
		l0.02,0.4c0.06,0.87,0.09,1.75,0.1,2.63c0,0.34-0.01,0.69-0.01,1.04c-0.01,0.5-0.03,0.99-0.06,1.48c-0.29,4.67-1.47,9.15-3.6,13.64
		c-1.27,2.67-2.75,6.6-1.02,9.95c1.11,2.13,3.2,3.48,6.21,4c0.68,0.12,1.39,0.17,2.13,0.17c0.14,0,0.29,0,0.44-0.01
		c1.35-0.04,3.92-0.33,5.86-1.81c5.45-4.15,6.56-11.29,7.36-16.5l0.09-0.57c0.44-2.84,0.68-5.66,0.71-8.39
		c0.04-3.87,0.07-6.49-0.6-8.07c-1.07-8.05-4.13-15.32-9.1-21.63l-0.42-0.55c-1.37-1.81-3.45-4.54-6.66-4.82
		C130.76,117.66,130.51,117.65,130.28,117.65L130.28,117.65z"/>
	<g>
		<path style="fill:#FFFFFF;" d="M144.11,146c-2.93-0.43-7.02-0.59-11.33,0.4c-0.16-2.34-0.54-4.65-1.13-6.94
			c-0.7-2.74-8.58-19.23-0.94-18.56c2.07,0.19,3.71,2.72,4.84,4.14C140.64,131.5,143.3,138.65,144.11,146z"/>
	</g>
	<path style="fill:#0088C5;" d="M144.16,146c-0.03,0-0.03,0-0.05,0c-2.93-0.43-7.02-0.59-11.33,0.4c0,0.08,0.03,0.16,0.03,0.24
		c0.05,0.48,0.08,0.97,0.08,1.45v0.22c0.03,0.62,0.03,1.24,0.03,1.86c0,0.24,0,0.51-0.03,0.75c-0.01,0.67-0.08,1.33-0.12,1.99
		c-0.38,4.93-1.61,9.65-3.84,14.39c-1.8,3.77-3.07,8.37,2.82,9.39c0.56,0.11,1.24,0.13,1.91,0.11c1.48-0.03,3.01-0.38,4.01-1.13
		c4.6-3.5,5.43-9.95,6.21-15.01c0.4-2.64,0.65-5.27,0.67-7.94C144.57,152.13,144.62,146.08,144.16,146z M132.75,153.38
		c-0.14,2.14-0.37,4.27-0.8,6.37C132.34,157.64,132.59,155.51,132.75,153.38z"/>
</g>
<g>
	<path style="fill:#FFFFFF;" d="M77.5,48.75c-0.56,0.43-1.1,0.59-1.64,0.59c-2.77,0-5.22-4.76-6.83-6.35
		c-1.21-1.18-2.56-1.67-3.95-1.67c-2.31,0-4.73,1.29-6.78,2.88c0,0.03-2.15,1.86-2.96,2.66v0.03c-1.37,1.43-3.23,2.15-5.06,2.15
		c-1.72,0-3.47-0.62-4.82-1.94c-1.75-1.67-2.45-4.04-2.1-6.24c0.22-1.35,0.83-2.61,1.83-3.69c0.22-0.24,0.83-0.86,1.78-1.72
		c2.91-2.72,6.29-5,10.14-6.16c1.8-0.54,3.52-0.81,5.17-0.81c1.48,0,2.93,0.22,4.36,0.62c1.43,0.43,2.85,1.05,4.33,1.86
		c1.21,0.67,2.34,1.53,3.42,2.42C77.8,36.21,82.18,45.17,77.5,48.75z"/>
	<path d="M76.45,30.89c-1.45-1.18-2.69-2.07-3.93-2.74c-1.72-0.94-3.36-1.64-5-2.13c-1.75-0.51-3.47-0.75-5.25-0.75
		c-1.99,0-3.98,0.3-6.11,0.94c-3.95,1.21-7.8,3.52-11.41,6.91c-0.91,0.81-1.59,1.51-1.91,1.83c-1.16,1.24-1.99,2.72-2.42,4.3
		c-0.11,0.35-0.19,0.73-0.24,1.1c-0.54,3.34,0.59,6.73,3.04,9.09c1.91,1.83,4.41,2.82,7.05,2.82c2.77,0,5.46-1.16,7.4-3.17
		c0.27-0.27,0.78-0.73,1.32-1.21c0.83-0.67,1.72-1.4,1.83-1.53c1.61-1.16,3.12-1.8,4.25-1.8c0.65,0,1.18,0.24,1.69,0.75
		c0.27,0.27,0.78,0.94,1.24,1.56c1.8,2.39,4.25,5.7,7.86,5.7c1.26,0,2.5-0.43,3.58-1.24c2.13-1.61,3.26-4.01,3.34-6.91
		C82.88,39.41,79.57,33.5,76.45,30.89z M77.5,48.75c-0.56,0.43-1.1,0.59-1.64,0.59c-2.77,0-5.22-4.76-6.83-6.35
		c-1.21-1.18-2.56-1.67-3.95-1.67c-2.31,0-4.73,1.29-6.78,2.88c0,0.03-2.15,1.86-2.96,2.66v0.03c-1.37,1.43-3.23,2.15-5.06,2.15
		c-1.72,0-3.47-0.62-4.82-1.94c-1.75-1.67-2.45-4.04-2.1-6.24c0.22-1.35,0.83-2.61,1.83-3.69c0.22-0.24,0.83-0.86,1.78-1.72
		c1.18-1.1,2.45-2.15,3.79-3.07c1.96-1.32,4.06-2.42,6.35-3.09c1.8-0.54,3.52-0.81,5.17-0.81c1.48,0,2.93,0.22,4.36,0.62
		c1.43,0.43,2.85,1.05,4.33,1.86c1.21,0.67,2.34,1.53,3.42,2.42C77.8,36.21,82.18,45.17,77.5,48.75z"/>
	<path style="fill:#673101;" d="M58.29,44.2c0,0.03-2.15,1.86-2.96,2.66v0.03c-1.37,1.43-3.23,2.15-5.06,2.15
		c-1.72,0-3.47-0.62-4.82-1.94c-1.75-1.67-2.45-4.04-2.1-6.24c0.22-1.35,0.83-2.61,1.83-3.69c0.22-0.24,0.83-0.86,1.78-1.72
		c1.18-1.1,2.45-2.15,3.79-3.07c0.13,0,0.24,0.03,0.35,0.05c0.03,0,0.03,0,0.05,0c0.03,0,0.03,0.03,0.05,0.03
		c1.08,0.3,1.56,1.13,1.56,1.13v0.03c0.43,0.65,0.59,1.45,0.4,2.26c-0.19,0.67-0.59,1.18-1.13,1.56c0.59-0.3,1.29-0.43,1.99-0.24
		c1.48,0.4,2.39,1.94,1.99,3.44c-0.19,0.73-0.65,1.32-1.26,1.69c0.48-0.16,1.05-0.24,1.59-0.11C57.35,42.51,58.03,43.29,58.29,44.2z
		"/>
</g>
<g>
	<path style="fill:#FFFFFF;" d="M129.23,47.11c-1.35,1.32-3.09,1.94-4.82,1.94c-1.86,0-3.69-0.73-5.06-2.15c0,0,0-0.03-0.03-0.03
		c-0.78-0.81-2.93-2.64-2.93-2.66c-2.07-1.59-4.47-2.88-6.78-2.88c-1.4,0-2.74,0.48-3.95,1.67c-1.61,1.59-4.06,6.35-6.83,6.35
		c-0.54,0-1.08-0.16-1.64-0.59c-4.71-3.58-0.3-12.54,3.12-15.36c1.08-0.89,2.21-1.75,3.42-2.42c1.48-0.81,2.91-1.43,4.33-1.86
		c1.43-0.4,2.88-0.62,4.36-0.62c1.64,0,3.36,0.27,5.17,0.81c3.85,1.16,7.24,3.44,10.14,6.16c0.94,0.86,1.56,1.48,1.78,1.72
		c1,1.08,1.59,2.34,1.83,3.69C131.68,43.07,130.98,45.44,129.23,47.11z"/>
	<path d="M134.51,40.33c-0.32-1.99-1.24-3.85-2.64-5.35c-0.35-0.35-1.02-1.05-1.96-1.91c-0.35-0.32-0.7-0.65-1.05-0.94
		c-3.28-2.82-6.75-4.82-10.33-5.92c-2.13-0.65-4.12-0.94-6.11-0.94c-1.78,0-3.5,0.24-5.27,0.75c-1.61,0.48-3.26,1.18-4.98,2.13
		c-1.24,0.67-2.47,1.56-3.93,2.74c-3.12,2.61-6.43,8.53-6.32,13.53c0.05,2.91,1.21,5.3,3.34,6.91c1.08,0.81,2.31,1.24,3.58,1.24
		c3.6,0,6.05-3.31,7.86-5.7c0.46-0.62,0.94-1.29,1.24-1.56c0.51-0.51,1.05-0.75,1.69-0.75c1.13,0,2.64,0.65,4.25,1.8
		c0.16,0.22,2.37,1.96,3.09,2.69c0.03,0.03,0.03,0.03,0.05,0.05c1.91,2.02,4.63,3.17,7.4,3.17c2.64,0,5.14-1,7.05-2.82
		C133.91,47.08,135.04,43.69,134.51,40.33z M129.23,47.11c-1.35,1.32-3.09,1.94-4.82,1.94c-1.86,0-3.69-0.73-5.06-2.15
		c0,0,0-0.03-0.03-0.03c-0.78-0.81-2.93-2.64-2.93-2.66c-2.07-1.59-4.47-2.88-6.78-2.88c-1.4,0-2.74,0.48-3.95,1.67
		c-1.61,1.59-4.06,6.35-6.83,6.35c-0.54,0-1.08-0.16-1.64-0.59c-4.71-3.58-0.3-12.54,3.12-15.36c1.08-0.89,2.21-1.75,3.42-2.42
		c1.48-0.81,2.91-1.43,4.33-1.86c1.43-0.4,2.88-0.62,4.36-0.62c1.64,0,3.36,0.27,5.17,0.81c2.29,0.67,4.38,1.78,6.35,3.12h0.03
		c1.35,0.91,2.58,1.94,3.77,3.04c0.94,0.86,1.56,1.48,1.78,1.72c1,1.08,1.59,2.34,1.83,3.69C131.68,43.07,130.98,45.44,129.23,47.11
		z"/>
	<path style="fill:#673101;" d="M129.23,47.11c-1.35,1.32-3.09,1.94-4.82,1.94c-1.86,0-3.69-0.73-5.06-2.15c0,0,0-0.03-0.03-0.03
		c-0.78-0.81-2.93-2.64-2.93-2.66c0.27-0.91,0.94-1.69,1.94-1.96c0.54-0.13,1.08-0.05,1.59,0.11c-0.62-0.38-1.08-0.97-1.26-1.69
		c-0.4-1.51,0.51-3.04,1.99-3.44c0.7-0.19,1.37-0.05,1.99,0.24c-0.54-0.38-0.94-0.89-1.13-1.56c-0.24-0.97,0.05-1.96,0.7-2.64
		c0.78-0.78,1.59-0.83,1.72-0.83h0.03c1.35,0.91,2.58,1.94,3.77,3.04c0.94,0.86,1.56,1.48,1.78,1.72c1,1.08,1.59,2.34,1.83,3.69
		C131.68,43.07,130.98,45.44,129.23,47.11z"/>
</g>
<g>
	<path style="fill:#FFFFFF;" d="M80.35,171.47v31.88c0,0-2.37,0.59-5.51,0.59s-5.54-0.59-5.54-0.59v-31.88
		c0-2.13,1.72-3.82,3.82-3.82C75.22,167.65,80.35,169.35,80.35,171.47z"/>
	<path style="fill-rule:evenodd;clip-rule:evenodd;fill:#009FF9;" d="M80.35,203.35v28.87c0,1.91-2.64,3.52-4.79,3.9l-0.91,0.11
		h-9.2c-0.94,0-1.91,0.03-2.91,0.03c-3.01,0-6.11-0.3-8.23-2.72c-1.91-2.18-1.37-6.56-0.16-8.96c2.26-4.41,6.46-7.67,11.3-8.72
		c0,0,0.22-0.03,0.27-0.05c0.65-0.13,1.24-0.19,1.78-0.24c0.22-0.03,0.43-0.05,0.65-0.05c0.32-0.03,0.65-0.03,0.94-0.03h0.22v-12.13
		c0,0,2.39,0.59,5.54,0.59S80.35,203.35,80.35,203.35z"/>
	<path d="M73.12,164.43c-3.87,0-7.05,3.15-7.05,7.05v41c-0.32,0.05-0.65,0.11-0.97,0.16l-0.38,0.11
		c-5.73,1.24-10.76,5.11-13.45,10.38c-1.56,3.09-2.42,9.07,0.62,12.54c2.93,3.36,7.02,3.82,10.65,3.82h1.56
		c0.46-0.03,0.91-0.03,1.35-0.03h9.2c0.11,0,0.22,0,0.32-0.03l0.94-0.08c0.08-0.03,0.16-0.03,0.24-0.05
		c3.6-0.65,7.42-3.36,7.42-7.08v-60.74C83.58,166.17,75.32,164.43,73.12,164.43z M80.35,232.22c0,1.91-2.64,3.52-4.79,3.9
		l-0.91,0.11h-9.2c-0.94,0-1.91,0.03-2.91,0.03c-3.01,0-6.11-0.3-8.23-2.72c-1.91-2.18-1.37-6.56-0.16-8.96
		c2.26-4.41,6.46-7.67,11.3-8.72c0,0,0.22-0.03,0.27-0.05c0.65-0.13,1.24-0.19,1.78-0.24c0.22-0.03,0.43-0.05,0.65-0.05
		c0.32-0.03,0.65-0.03,0.94-0.03h0.22v-44.01c0-2.13,1.72-3.82,3.82-3.82c2.1,0,7.24,1.69,7.24,3.82V232.22z"/>
</g>
<g>
	<path style="fill:#FFFFFF;" d="M105.37,171.47v31.88c0,0-2.37,0.59-5.51,0.59s-5.51-0.59-5.51-0.59v-31.88
		c0-2.13,5.14-3.82,7.24-3.82C103.68,167.65,105.37,169.35,105.37,171.47z"/>
	<path style="fill-rule:evenodd;clip-rule:evenodd;fill:#009FF9;" d="M120.38,233.54c-2.13,2.42-5.22,2.72-8.23,2.72
		c-1,0-1.96-0.03-2.91-0.03h-9.2l-0.94-0.11c-2.13-0.38-4.76-1.99-4.76-3.9v-28.87c0,0,2.37,0.59,5.51,0.59s5.51-0.59,5.51-0.59
		v12.13h0.24c0.3,0,0.62,0,0.94,0.03c0.22,0,0.43,0.03,0.65,0.05c0.54,0.05,1.13,0.11,1.78,0.24c0.05,0.03,0.27,0.05,0.27,0.05
		c4.84,1.05,9.04,4.3,11.3,8.72C121.75,226.97,122.29,231.36,120.38,233.54z"/>
	<path d="M123.42,223.12c-2.69-5.27-7.72-9.15-13.5-10.41l-0.19-0.05c-0.4-0.05-0.75-0.13-1.13-0.19v-41c0-3.9-3.15-7.05-7.02-7.05
		c-2.21,0-10.46,1.75-10.46,7.05v60.74c0,3.71,3.82,6.43,7.42,7.08c0.08,0.03,0.16,0.03,0.24,0.05l0.94,0.08
		c0.11,0.03,0.22,0.03,0.32,0.03h9.2c0.43,0,0.89,0,1.35,0.03h1.56c3.6,0,7.72-0.46,10.65-3.82
		C125.84,232.19,124.98,226.22,123.42,223.12z M120.38,233.54c-2.13,2.42-5.22,2.72-8.23,2.72c-1,0-1.96-0.03-2.91-0.03h-9.2
		l-0.94-0.11c-2.13-0.38-4.76-1.99-4.76-3.9v-60.74c0-2.13,5.14-3.82,7.24-3.82c2.1,0,3.79,1.69,3.79,3.82v44.01h0.24
		c0.3,0,0.62,0,0.94,0.03c0.19,0,0.43,0.03,0.65,0.05c0.54,0.05,1.13,0.11,1.78,0.24c0.05,0.03,0.27,0.05,0.27,0.05
		c4.84,1.05,9.04,4.3,11.3,8.72C121.75,226.97,122.29,231.36,120.38,233.54z"/>
</g>
<g>
	<g>
		<path style="fill:#FFFFFF;" d="M43.5,139.65c-0.78,2.61-1.32,5.25-1.59,7.91c-3.85,1.18-8.61-0.3-11.24-1.94
			c1.18-7.32,4.2-14.34,9.58-20.55c1.21-1.37,2.96-3.85,5.03-3.93C52.94,120.82,44.31,136.93,43.5,139.65z"/>
	</g>
	<path style="fill:#0088C5;" d="M41.64,176.83c-0.56,0.08-1.24,0.08-1.91,0.03c-1.45-0.11-2.99-0.54-3.95-1.32
		c-4.41-3.71-4.95-10.2-5.51-15.28c-0.27-2.64-0.38-5.3-0.3-7.96c0-0.08,0.03-0.24,0.03-0.46c0.03-0.56,0.08-1.51,0.13-2.5
		c0.11-1.4,0.24-2.85,0.38-3.44c0.03-0.08,0.05-0.16,0.08-0.19c0.03-0.05,0.05-0.08,0.08-0.08h0.03c2.64,1.64,7.37,3.12,11.22,1.94
		h0.03c-0.08,0.7-0.16,1.43-0.19,2.15c0.05,1.59,0.16,3.23,0.16,3.55c0.03,5.33,1.8,9.5,3.39,14.47
		C46.51,171.45,47.13,176.15,41.64,176.83z"/>
	<path d="M47.56,164.26c-1.29-3.82-2.39-7.1-2.42-11c0-0.16,0-0.54-0.03-1.08c-0.05-0.65-0.11-1.53-0.13-2.42
		c0.19-3.23,0.73-6.32,1.59-9.17c0.11-0.3,0.54-1.32,0.94-2.21c3.09-7.18,5.68-13.93,3.07-17.92c-1.08-1.64-2.91-2.56-5.08-2.56
		h-0.35c-3.23,0.13-5.43,2.77-6.89,4.52l-0.46,0.54c-5.3,6.13-8.72,13.34-10.17,21.41c-0.65,1.56-0.75,4.12-0.89,7.77
		c-0.08,2.77,0.03,5.6,0.32,8.45l0.05,0.59c0.56,5.25,1.35,12.43,6.59,16.81c1.88,1.56,4.44,1.96,5.78,2.07
		c0.35,0.03,0.7,0.05,1.05,0.05c0.51,0,1.02-0.05,1.51-0.11c3.47-0.43,5.22-2.13,6.08-3.47c1.53-2.39,1.61-5.62,0.24-9.82
		C48.1,165.88,47.83,165.07,47.56,164.26z M41.64,176.83c-0.35,0.05-0.7,0.08-1.1,0.08c-0.27,0-0.54-0.03-0.81-0.05
		c-1.45-0.11-2.99-0.54-3.95-1.32c-4.41-3.71-4.95-10.2-5.51-15.28c-0.27-2.64-0.38-5.3-0.3-7.96c0-0.08,0.03-0.24,0.03-0.46
		c0.03-0.56,0.05-1.51,0.13-2.5c0.08-1.37,0.22-2.85,0.38-3.44c0.03-0.08,0.05-0.16,0.08-0.19c0.03-0.08,0.05-0.11,0.08-0.08h0.03
		c1.18-7.32,4.17-14.34,9.55-20.55c1.21-1.37,2.96-3.85,5.03-3.93h0.22c7.29,0-1.18,15.82-1.99,18.51
		c-0.81,2.61-1.32,5.25-1.56,7.91c-0.08,0.7-0.16,1.43-0.19,2.15c0.05,1.59,0.16,3.23,0.16,3.55c0.03,5.33,1.8,9.5,3.39,14.47
		C46.51,171.45,47.13,176.15,41.64,176.83z"/>
</g>
<g>
	<g>
		<path style="fill-rule:evenodd;clip-rule:evenodd;fill:#009FF9;" d="M132.89,147.07c0.43,8.04-1.56,19.85-6.91,26.77
			c-6.32,8.15-17.86,13.48-31.64,14.61c-1.64,0.13-3.44,0.22-5.17,0.22h-3.66c-1.72,0-3.52-0.08-5.17-0.22
			c-13.77-1.13-25.31-6.46-31.64-14.61c-5.35-6.91-7.34-18.72-6.91-26.77c0.24-4.49,1.24-9.07,2.18-13.45c0.48-2.26,1-4.52,1.4-6.78
			c0.43-2.5,0.16-7.18,0.13-7.42c-0.32-3.52-1.37-6.78-2.34-9.52c-3.87-10.81-4.52-20.93-2.07-31.82
			c2.23-9.85,6.91-18.21,12.81-22.92c9.87-7.86,21.31-12.37,31.42-12.37h4.04c10.11,0,21.55,4.52,31.42,12.37
			c5.89,4.71,10.57,13.07,12.8,22.92c2.45,10.9,1.8,20.98-2.07,31.82c-0.97,2.72-2.02,6-2.34,9.58c-0.03,0.11-0.11,1.64-0.11,3.42
			c0,1.37,0.05,2.88,0.24,3.95c0.4,2.26,0.89,4.52,1.4,6.78C131.65,138.01,132.65,142.58,132.89,147.07z"/>
	</g>
	<g>
		<path d="M133.86,132.92c-0.48-2.21-0.97-4.41-1.35-6.64c-0.32-1.75-0.19-5.38-0.13-6.56c0.3-3.17,1.26-6.19,2.18-8.74
			c4.04-11.27,4.73-22.25,2.18-33.63c-2.39-10.55-7.48-19.56-13.96-24.72c-10.41-8.31-22.57-13.07-33.41-13.07h-4.04
			c-10.84,0-23,4.76-33.44,13.07c-6.46,5.17-11.54,14.18-13.93,24.72c-2.56,11.38-1.86,22.36,2.18,33.63
			c0.91,2.56,1.88,5.6,2.15,8.69c0.08,1.24,0.22,4.87-0.11,6.62c-0.38,2.23-0.86,4.44-1.35,6.64c-1,4.52-2.02,9.23-2.26,13.99
			c-0.46,8.9,1.69,21.28,7.59,28.89c6.89,8.88,19.26,14.66,33.92,15.84c1.75,0.16,3.6,0.22,5.43,0.22h3.66
			c1.8,0,3.69-0.05,5.43-0.22c14.66-1.18,27.04-6.97,33.92-15.84c5.89-7.61,8.04-19.99,7.59-28.89
			C135.88,142.15,134.86,137.44,133.86,132.92z M89.18,188.66h-3.66c-1.72,0-3.52-0.08-5.17-0.22
			c-13.77-1.13-25.31-6.46-31.64-14.61c-5.35-6.91-7.34-18.72-6.91-26.77c0.24-4.49,1.24-9.07,2.18-13.45c0.48-2.26,1-4.52,1.4-6.78
			c0.43-2.5,0.16-7.18,0.13-7.42c-0.32-3.52-1.37-6.78-2.34-9.52c-3.87-10.81-4.52-20.93-2.07-31.82
			c2.23-9.85,6.91-18.21,12.81-22.92c9.87-7.86,21.31-12.37,31.42-12.37h4.04c10.11,0,21.55,4.52,31.42,12.37
			c5.89,4.71,10.57,13.07,12.8,22.92c2.45,10.9,1.8,20.98-2.07,31.82c-0.97,2.72-2.02,6-2.34,9.58c-0.03,0.11-0.11,1.64-0.11,3.42
			c0,1.37,0.05,2.88,0.24,3.95c0.4,2.26,0.89,4.52,1.4,6.78c0.94,4.38,1.94,8.96,2.18,13.45c0.43,8.04-1.56,19.85-6.91,26.77
			c-6.32,8.15-17.86,13.48-31.64,14.61C92.7,188.58,90.9,188.66,89.18,188.66z"/>
	</g>
</g>
<g>
	<path style="fill:#F8716F;" d="M180.62,183.1l-0.48,1.13c-0.75,1.78-1.59,3.44-2.42,5.03c-0.24,0.51-0.51,0.97-0.81,1.45
		c-0.27,0.51-0.59,1.02-0.89,1.53c-0.35,0.59-0.7,1.16-1.08,1.69c-1.16,1.78-2.34,3.39-3.58,4.87c-0.32,0.4-0.65,0.81-1,1.18
		c-0.43,0.51-0.89,1-1.35,1.48c-0.46,0.46-0.89,0.91-1.32,1.35c-0.91,0.89-1.8,1.69-2.72,2.45c-4.49,3.82-8.88,6.11-12.32,7.48
		c-0.65,0.27-1.26,0.48-1.83,0.7c-2.47,0.83-4.25,1.16-4.84,1.26c-0.05,0-0.11,0-0.13,0.03c-0.19,0.05-0.54,0.13-1,0.22
		c-0.46,0.08-1.02,0.19-1.69,0.3c-2.74,0.38-7.24,0.67-12.8-0.3c-0.51-0.08-1.02-0.19-1.56-0.3c-2.23-0.43-4.6-1.1-7.08-2.04
		c-0.4-0.13-0.81-0.3-1.18-0.46c-4.84-1.91-10.09-4.9-15.39-9.39l21.25-21.92c0.4,0.13,0.81,0.27,1.26,0.38l-12.37,22.92
		c-0.35,0.65-0.11,1.48,0.54,1.83c0.22,0.11,0.43,0.16,0.65,0.16c0.48,0,0.94-0.27,1.18-0.73l12.37-22.92
		c0.13-0.24,0.19-0.48,0.13-0.73c0.78,0.13,1.61,0.24,2.47,0.32l-3.2,27.44c-0.08,0.75,0.46,1.4,1.18,1.51h0.16
		c0.67,0,1.26-0.51,1.35-1.18l3.2-27.71c1.13,0,2.31-0.11,3.52-0.32l6.27,26.87c0.13,0.62,0.7,1.02,1.32,1.02
		c0.08,0,0.19,0,0.3-0.03c0.73-0.16,1.18-0.89,1-1.61l-6.24-26.87c0.97-0.27,1.94-0.62,2.93-1.08l14.98,18.64
		c0.27,0.35,0.67,0.51,1.05,0.51c0.3,0,0.59-0.11,0.86-0.3c0.56-0.46,0.67-1.32,0.19-1.88l-14.66-18.27c0.54-0.3,1.1-0.67,1.64-1.08
		l20.18,11.27c0.22,0.13,0.43,0.19,0.67,0.19c0.46,0,0.91-0.24,1.16-0.7c0.38-0.65,0.13-1.45-0.51-1.83l-19.13-10.68l-0.08-0.05
		c0.73-0.65,1.45-1.35,2.15-2.13L180.62,183.1z"/>
	<path style="fill:#ECAA52;" d="M150.24,172.79c-7.83,7.88-16.54,7.32-21.76,5.92l2.02-2.07c0.94,0.11,1.96,0.19,3.01,0.19
		c1.13,0,2.31-0.08,3.55-0.27c0.51-0.08,1.08-0.16,1.61-0.3c0.13-0.03,0.24-0.05,0.35-0.08c0.43-0.08,0.83-0.22,1.26-0.35
		c0.08,0,0.13,0,0.22-0.05c0.27-0.08,0.51-0.16,0.75-0.24c0.19-0.05,0.38-0.13,0.54-0.19c0.32-0.13,0.65-0.24,0.97-0.4
		c0.67-0.27,1.32-0.59,1.96-0.94c0.32-0.16,0.65-0.35,1-0.56c0.32-0.19,0.65-0.38,0.97-0.62c0.46-0.3,0.89-0.59,1.35-0.94
		L150.24,172.79z"/>
	<path style="fill:#D57430;" d="M145.08,170.69c-4.25,2.74-8.53,3.5-12.13,3.42l5.78-6L145.08,170.69z"/>
	<path d="M187.15,176.15c-0.59-1.1-1.64-1.88-2.85-2.15l-41.91-9.85c0.4-0.62,0.56-1.35,0.54-2.13c-0.05-1.08-0.54-2.1-1.32-2.8
		c-0.4-0.35-0.86-0.59-1.32-0.78c-0.03-0.11-0.05-0.22-0.11-0.3c-0.13-0.35-0.43-0.59-0.78-0.73c-7.51-2.58-12.37,4.49-13.88,8.58
		c-0.13,0.32-0.11,0.73,0.05,1.05c0.13,0.32,0.43,0.56,0.78,0.7l0.46,0.16l-31.66,28.62c-0.83,0.75-1.29,1.8-1.29,2.93
		c0,1.1,0.46,2.15,1.29,2.91l2.66,2.45c0.75,0.7,1.72,1.02,2.66,1.02c1.02,0,2.02-0.4,2.8-1.16c13.32,11.33,26.31,13.59,34.57,13.59
		c4.57,0,7.69-0.7,8.61-0.94c2.82-0.46,24.67-4.82,36.37-32.58c1.86-0.08,3.52-1.26,4.09-3.12l0.62-1.94
		C187.91,178.52,187.77,177.23,187.15,176.15z M145.05,170.69c-0.16,0.11-0.35,0.22-0.51,0.3c-0.16,0.11-0.32,0.22-0.48,0.3
		c-0.78,0.48-1.56,0.86-2.34,1.18c-0.4,0.16-0.78,0.32-1.18,0.46c-0.08,0.03-0.19,0.05-0.27,0.08c-1.02,0.38-2.04,0.62-3.01,0.78
		c-0.38,0.05-0.73,0.11-1.08,0.16c-0.46,0.05-0.91,0.11-1.37,0.13c-0.65,0.03-1.26,0.03-1.86,0.03l2.5-2.61l0.3-0.3l1.72-1.78
		l1.26-1.32L145.05,170.69z M145.72,173.44c0.32-0.19,0.65-0.4,0.97-0.62c0.27-0.19,0.54-0.35,0.81-0.56
		c0.11-0.05,0.19-0.11,0.27-0.19c0.08-0.05,0.19-0.11,0.27-0.19l2.21,0.91c-0.03,0.03-0.05,0.05-0.08,0.08l-0.11,0.11
		c-0.81,0.78-1.61,1.48-2.42,2.1c-7.1,5.46-14.53,4.87-19.15,3.63l2.02-2.07c0.94,0.11,1.96,0.19,3.01,0.19
		c1.13,0,2.31-0.08,3.55-0.27c0.54-0.08,1.08-0.16,1.61-0.3c0.13-0.03,0.24-0.05,0.35-0.08c0.43-0.08,0.83-0.19,1.26-0.35
		c0.08,0,0.13,0,0.22-0.05c0.27-0.08,0.51-0.16,0.75-0.24c0.19-0.05,0.38-0.13,0.54-0.19c0.32-0.11,0.65-0.24,0.97-0.4
		c0.56-0.22,1.1-0.48,1.64-0.78c0.11-0.05,0.22-0.11,0.32-0.16C145.05,173.84,145.37,173.65,145.72,173.44z M130.87,162.3
		c0.13-0.16,0.3-0.32,0.43-0.46c0.35-0.35,0.73-0.67,1.1-0.94c0.16-0.11,0.32-0.22,0.48-0.32c0.13-0.08,0.3-0.16,0.43-0.24
		c0.19-0.11,0.4-0.19,0.62-0.3c0.16-0.05,0.35-0.13,0.54-0.16c0.24-0.08,0.51-0.16,0.78-0.19c0.24-0.05,0.48-0.08,0.73-0.08
		l-6.89,6.21l-0.48-0.16C129.07,164.75,129.83,163.46,130.87,162.3z M99.64,202.84l-2.69-2.45c-0.27-0.24-0.4-0.56-0.4-0.91
		s0.13-0.7,0.4-0.94l29.65-26.82l3.12-2.82l2.29-2.07l1.91-1.72l1.4-1.26l0.13-0.11l0.08-0.08l2.64-2.39
		c0.22-0.22,0.54-0.32,0.83-0.32c0.16,0,0.35,0.03,0.48,0.11c0.13,0.05,0.24,0.13,0.32,0.22c0.27,0.22,0.43,0.54,0.43,0.89
		c0.03,0.35-0.11,0.67-0.35,0.91l-0.4,0.43l-1.43,1.45l-0.3,0.3l-0.62,0.65l-1.1,1.16l-0.19,0.19v0.03l-1.48,1.51l-0.78,0.81
		l-0.4,0.4l-3.71,3.82l-2.21,2.26l-0.03,0.03l-1.61,1.67l-0.56,0.59l-0.05,0.05l-1.4,1.43l-20.47,21.14l-1.78,1.83
		c-0.05,0.05-0.11,0.08-0.16,0.11C100.74,203.27,100.07,203.24,99.64,202.84z M180.13,184.23c-0.75,1.78-1.59,3.44-2.42,5.03
		c-0.24,0.51-0.51,0.97-0.81,1.45c-0.27,0.51-0.59,1.02-0.89,1.53c-0.35,0.59-0.7,1.16-1.08,1.69c-1.16,1.78-2.34,3.39-3.58,4.87
		c-0.32,0.4-0.65,0.81-1,1.18c-0.43,0.51-0.89,1-1.35,1.48c-0.46,0.46-0.89,0.91-1.32,1.35c-0.91,0.89-1.8,1.69-2.72,2.45
		c-4.49,3.82-8.88,6.11-12.32,7.48c-0.65,0.27-1.26,0.48-1.83,0.7c-2.47,0.83-4.25,1.16-4.84,1.26c-0.05,0-0.11,0-0.13,0.03
		c-0.19,0.05-0.54,0.13-1,0.22c-0.46,0.11-1.02,0.19-1.69,0.3c-2.74,0.38-7.24,0.67-12.8-0.3c-0.51-0.08-1.02-0.19-1.56-0.3
		c-2.23-0.43-4.6-1.1-7.08-2.04c-0.38-0.13-0.78-0.27-1.18-0.46c-4.84-1.91-10.09-4.9-15.39-9.39l21.25-21.92
		c0.4,0.13,0.81,0.27,1.26,0.38l-12.37,22.92c-0.35,0.65-0.11,1.48,0.54,1.83c0.22,0.11,0.43,0.16,0.65,0.16
		c0.48,0,0.94-0.27,1.18-0.73l12.37-22.92c0.13-0.24,0.19-0.48,0.13-0.73c0.78,0.13,1.61,0.24,2.47,0.32l-3.2,27.44
		c-0.08,0.75,0.46,1.4,1.18,1.51h0.16c0.67,0,1.26-0.51,1.35-1.18l3.2-27.71c1.13,0,2.31-0.11,3.52-0.32l6.27,26.87
		c0.13,0.62,0.7,1.02,1.32,1.02c0.08,0,0.19,0,0.3-0.03c0.73-0.16,1.18-0.89,1-1.61l-6.24-26.87c0.97-0.27,1.94-0.62,2.93-1.08
		l14.98,18.64c0.27,0.35,0.67,0.51,1.05,0.51c0.3,0,0.59-0.11,0.86-0.3c0.56-0.46,0.67-1.32,0.19-1.88l-14.66-18.27
		c0.54-0.3,1.1-0.67,1.64-1.08l20.18,11.27c0.22,0.13,0.43,0.19,0.67,0.19c0.46,0,0.91-0.24,1.16-0.7c0.38-0.65,0.13-1.45-0.51-1.83
		l-19.13-10.68l-0.08-0.05c0.73-0.65,1.45-1.35,2.15-2.13l27.68,9.28L180.13,184.23z M184.97,178.87l-0.62,1.96
		c-0.13,0.4-0.38,0.73-0.7,0.94c0-0.03-0.03-0.05-0.03-0.08c-0.16-0.32-0.46-0.59-0.81-0.7l-29.78-9.98l-0.16-0.08l-4.55-1.83
		l-0.24-0.08l-4.52-1.83l40.11,9.42c0.48,0.11,0.89,0.43,1.13,0.86C185.08,177.9,185.11,178.41,184.97,178.87z"/>
	<path style="fill:#D49166;" d="M184.97,178.87l-0.62,1.96c-0.13,0.4-0.38,0.73-0.7,0.94c0-0.03-0.03-0.05-0.03-0.08
		c-0.16-0.32-0.46-0.59-0.81-0.7l-29.78-9.98l-0.16-0.08l-4.55-1.83l-0.24-0.08l-4.52-1.83l40.11,9.42
		c0.48,0.11,0.89,0.43,1.13,0.86C185.08,177.9,185.11,178.41,184.97,178.87z"/>
	<path style="fill:#BE723F;" d="M135.99,159.61l-6.89,6.21l-0.48-0.16c0.46-0.91,1.21-2.21,2.26-3.36c0.13-0.16,0.27-0.32,0.43-0.46
		c0.35-0.35,0.73-0.67,1.1-0.94c0.13-0.11,0.3-0.22,0.48-0.32c0.13-0.08,0.3-0.16,0.43-0.24c0.19-0.11,0.4-0.19,0.62-0.3
		c0.16-0.05,0.35-0.13,0.54-0.16c0.24-0.08,0.51-0.16,0.78-0.19C135.5,159.64,135.74,159.61,135.99,159.61z"/>
	<path style="fill:#ECAA52;" d="M140.24,162.14c0.03,0.35-0.11,0.67-0.35,0.91l-38.52,39.73c-0.46,0.48-1.24,0.51-1.72,0.05
		l-2.69-2.45c-0.27-0.24-0.4-0.56-0.4-0.91s0.13-0.7,0.4-0.94l41.21-37.29c0.22-0.22,0.54-0.32,0.83-0.32c0.3,0,0.59,0.11,0.81,0.32
		C140.07,161.47,140.24,161.79,140.24,162.14z"/>
</g>
</svg>
