<svg id="레이어_5" data-name="레이어 5" xmlns="http://www.w3.org/2000/svg" viewBox="0 0 240 240"><defs><style>.cls-1{fill:#f2c53f;}.cls-2{fill:#f6e298;}.cls-3{fill:#ffe89a;}.cls-4{fill:#02a0f4;}.cls-5,.cls-7{fill:#fff;}.cls-6{fill:#653109;}.cls-10,.cls-7,.cls-8,.cls-9{fill-rule:evenodd;}.cls-8{fill:#fabdb9;}.cls-10{fill:#d04a4c;}.cls-11{fill:#0088c5;}.cls-12{fill:#0085c9;}.cls-13{fill:#00e89a;}</style></defs><path d="M133.92,55.14a5.38,5.38,0,0,1-4.56-1.21A9.37,9.37,0,0,1,127,49.65q-.13-.42-.27-.78a219.21,219.21,0,0,0-9.42-21.55,4.66,4.66,0,0,1,1.59-6,72.54,72.54,0,0,1,9-4.7,9.3,9.3,0,0,1,1.64-.43c4.17-.65,5.08,3,5.62,5.15.07.29.15.59.23.91.5,1.9,1,3.77,1.48,5.64l2.45-.76c-.28-1-.53-2-.76-2.94-.08-.33-.19-.68-.3-1-.57-1.92-1.45-4.83.4-7.31,1.52-2,5-2.74,6.09-2.9,1.61-.25,3.87-.34,5.45.63,2,1.24,2.45,3.58,2.67,4.83.68,3.72,1.4,7.55,2.12,11.38s1.44,7.65,2.11,11.36a6.43,6.43,0,0,1-.39,4.39,6.52,6.52,0,0,1-2.59,2.34,11.13,11.13,0,0,1-3.72,1.53h0a4.53,4.53,0,0,1-2.58-.31,5.34,5.34,0,0,1-2.89-3.19c-.73-2.26-1.44-4.53-2.12-6.78l-.07,0a21.38,21.38,0,0,0-2.75.6c.66,2.49,1.41,5.25,2.21,8.08a4.4,4.4,0,0,1-.52,3.87,4.69,4.69,0,0,1-2.4,1.56c-.52.17-1.09.41-1.69.67A15.7,15.7,0,0,1,133.92,55.14Z"/><path class="cls-1" d="M154.81,41.57c-1.34-7.42-2.88-15.32-4.22-22.74-.23-1.24-.55-2.63-1.63-3.29-1.79-1.11-7.21,0-8.49,1.69-1.42,1.9-.23,4.41.28,6.43.42,1.64.86,3.32,1.33,5l-.2.08-6.65,2.08c-.69-2.64-1.38-5.28-2.09-8-.85-3.2-.93-5.32-4.51-4.06a73,73,0,0,0-8.48,4.45,2.37,2.37,0,0,0-.81,3,218.2,218.2,0,0,1,9.53,21.78c.48,1.29.94,3.22,2,4.12,2.12,1.84,5-.21,7.67-1.1a2.51,2.51,0,0,0,1.27-.74,2.22,2.22,0,0,0,.17-1.89c-1-3.44-1.89-6.82-2.78-10.2l.21-.08a25.22,25.22,0,0,1,5.94-1.42c.34,0,.7-.09,1.06-.16.87,2.88,1.77,5.77,2.68,8.63A3,3,0,0,0,148.74,47c1.24.57,3-.44,4.2-1.12a4.33,4.33,0,0,0,1.73-1.46A4.27,4.27,0,0,0,154.81,41.57Z"/><path d="M177.16,44.89c-1.33.21-3.71.07-4.85-3.14-.61-1.72-1.23-3.48-1.88-5.24-1.31.17-2.73.31-4.19.36-.43,1.81-.76,3.41-1.05,4.93-.44,2.37-1.69,3.68-3.83,4a15.44,15.44,0,0,1-1.86.12,5.26,5.26,0,0,1-4.27-1.51,5.25,5.25,0,0,1-.84-4.41c.38-2,.68-4.12,1-6.15.45-3.06.9-6.23,1.63-9.38l.53-2.28c1.54-6.73,1.73-7.6,5.18-10.28a5.85,5.85,0,0,1,2.74-1,9.78,9.78,0,0,1,4.28.23c5.07,1.83,6.47,6.32,7.6,9.93.25.8.49,1.55.74,2.23a81.52,81.52,0,0,1,2.45,8c.61,2.3,1.19,4.47,2,6.61.49,1.39,1.14,4.79-3.4,6.45a10.54,10.54,0,0,1-1.9.53Z"/><path class="cls-1" d="M180.29,38.67c-1.68-4.77-2.55-9.79-4.37-14.58-1.45-3.82-2-9-7-10.81-1.12-.4-3.88-.28-4.84.46-3.09,2.4-2.81,2.38-4.87,11.26-1.19,5.15-1.64,10.33-2.58,15.44-.41,2.21.27,3.28,2.71,3.21,2.11-.06,3.17-.06,3.58-2.26s.93-4.55,1.49-6.8a43.07,43.07,0,0,0,7.51-.61c.87,2.32,1.7,4.66,2.53,7,.75,2.12,2,1.87,3.8,1.22C179.74,41.67,181,40.79,180.29,38.67Z"/><path d="M167,22.48l-1.68,6a.71.71,0,0,0,.74.89l3.32-.29a.91.91,0,0,0,.74-1.28l-2.49-5.37A.34.34,0,0,0,167,22.48Z"/><path class="cls-1" d="M154.81,41.57c-1.34-7.42-2.88-15.32-4.22-22.74-.23-1.24-.55-2.63-1.63-3.29-1.79-1.11-7.21,0-8.49,1.69-1.42,1.9-.23,4.41.28,6.43.42,1.64.86,3.32,1.33,5l-.2.08-6.65,2.08c-.69-2.64-1.38-5.28-2.09-8-.85-3.2-.93-5.32-4.51-4.06a73,73,0,0,0-8.48,4.45,2.37,2.37,0,0,0-.81,3,218.2,218.2,0,0,1,9.53,21.78c.48,1.29.94,3.22,2,4.12,2.12,1.84,5-.21,7.67-1.1a2.51,2.51,0,0,0,1.27-.74,2.22,2.22,0,0,0,.17-1.89c-1-3.44-1.89-6.82-2.78-10.2l.21-.08a25.22,25.22,0,0,1,5.94-1.42c.34,0,.7-.09,1.06-.16.87,2.88,1.77,5.77,2.68,8.63A3,3,0,0,0,148.74,47c1.24.57,3-.44,4.2-1.12a4.33,4.33,0,0,0,1.73-1.46A4.27,4.27,0,0,0,154.81,41.57Z"/><path class="cls-2" d="M133.29,51.06a1.33,1.33,0,0,1-1.24-.26,7,7,0,0,1-1.15-2.47c-.11-.32-.21-.63-.32-.9a223,223,0,0,0-9.6-22,.51.51,0,0,1,.18-.67,69.88,69.88,0,0,1,8.09-4.26,5.23,5.23,0,0,1,.89-.24,1.2,1.2,0,0,1,.36,0,11.92,11.92,0,0,1,.62,2.08c.08.32.16.64.25,1,.71,2.67,1.4,5.32,2.09,8a1.8,1.8,0,0,0,.88,1.14,1.84,1.84,0,0,0,1.17.21l.27-.06,6.65-2.08.14,0,.19-.08a1.83,1.83,0,0,0,1.09-2.19c-.51-1.85-.94-3.47-1.32-5-.1-.39-.22-.8-.35-1.22-.51-1.72-.81-2.9-.24-3.67A6.75,6.75,0,0,1,145.35,17a5.26,5.26,0,0,1,2.65.06c.46.28.68,1.48.78,2.06.68,3.72,1.4,7.57,2.12,11.41S152.34,38.2,153,41.9a3.56,3.56,0,0,1,.06,1.64,3.43,3.43,0,0,1-1,.77,8.19,8.19,0,0,1-2.3,1h0a.65.65,0,0,1-.25,0,1.3,1.3,0,0,1-.65-.68c-.92-2.88-1.82-5.77-2.68-8.6a1.82,1.82,0,0,0-2-1.28l-.39.06c-.2,0-.41.06-.61.09s-.69.08-1,.14a27.2,27.2,0,0,0-5.32,1.38l-.21.08a1.82,1.82,0,0,0-1.13,2.19c.79,3,1.74,6.56,2.78,10.23a1.42,1.42,0,0,1,.06.28l-.31.11c-.69.23-1.35.51-2,.79A12.62,12.62,0,0,1,133.29,51.06Z"/><path class="cls-1" d="M180.29,38.67c-1.68-4.77-2.55-9.79-4.37-14.58-1.45-3.82-2-9-7-10.81-1.12-.4-3.88-.28-4.84.46-3.09,2.4-2.81,2.38-4.87,11.26-1.19,5.15-1.64,10.33-2.58,15.44-.41,2.21.27,3.28,2.71,3.21,2.11-.06,3.17-.06,3.58-2.26s.93-4.55,1.49-6.8a43.07,43.07,0,0,0,7.51-.61c.87,2.32,1.7,4.66,2.53,7,.75,2.12,2,1.87,3.8,1.22C179.74,41.67,181,40.79,180.29,38.67ZM167,23.3a6.13,6.13,0,0,1,.5-1.52c.25.06.35.45.43.67.15.4.3.81.46,1.21.45,1.13.92,2.25,1.36,3.39.19.47.35,1,.53,1.44s.29.68.43,1c-1.66.1-3.31.23-5,.43l-.65.05c.12-.52.34-1.11.41-1.34C166,26.86,166.46,25.13,167,23.3Z"/><path class="cls-3" d="M176.41,40.83a2.07,2.07,0,0,1-.21-.46c-.81-2.3-1.65-4.68-2.55-7-.31-.81-1.18-.89-2-.76a41.1,41.1,0,0,1-7.19.59,1.83,1.83,0,0,0-.33,0,1.61,1.61,0,0,0-1.5,1.16C162,37,161.52,39,161.13,41.05a2.08,2.08,0,0,1-.19.65h0l-.2,0c-.32,0-.79.06-1.34.08a3.14,3.14,0,0,1-1-.09,3,3,0,0,1,.06-1c.39-2.1.7-4.24,1-6.31.43-3,.87-6.06,1.56-9l.53-2.29C163,17,163,17,165.23,15.19a3.14,3.14,0,0,1,.84-.22,6,6,0,0,1,2.25,0c3.14,1.13,4.07,4.11,5.06,7.27.26.82.52,1.67.83,2.47a78.39,78.39,0,0,1,2.31,7.61c.61,2.28,1.23,4.63,2,6.93.21.61.26.75-.93,1.19a6.66,6.66,0,0,1-1.12.33ZM167.17,20c-1.26.2-1.52,1.14-2,2.85-.14.51-.28,1-.41,1.52-.34,1.29-.67,2.51-1.06,3.78l-.06.17c-.16.46-.64,1.42-.41,1.88a1.9,1.9,0,0,0,1.75.9h.16l.57,0c1.46-.17,3-.31,4.85-.42h.17a2.23,2.23,0,0,0,1.44-.95c.45-.71,0-1.11-.23-1.78l-.2-.55c-.11-.31-.22-.61-.34-.92-.24-.62-.49-1.24-.74-1.86s-.42-1-.62-1.54c-.15-.36-.28-.72-.42-1.08l0-.1a2.52,2.52,0,0,0-1.74-1.8A1.84,1.84,0,0,0,167.17,20Z"/><path d="M165.82,84.41a5.05,5.05,0,0,1-3.88-2.07A8.81,8.81,0,0,1,160.69,78c0-.27-.05-.53-.08-.77a200,200,0,0,0-4-21.54,4.35,4.35,0,0,1,2.71-5.09,66.13,66.13,0,0,1,9.14-2.36,8.65,8.65,0,0,1,1.58-.05c3.92.3,4,3.78,4,5.86,0,.28,0,.58,0,.88,0,1.83.1,3.63.15,5.43l2.38-.17c0-1-.05-1.94-.07-2.83,0-.32,0-.66,0-1-.11-1.87-.29-4.69,1.91-6.55,1.82-1.54,5.15-1.42,6.13-1.35a8,8,0,0,1,4.82,1.72c1.57,1.56,1.46,3.77,1.4,5-.17,3.51-.33,7.14-.49,10.77s-.31,7.24-.48,10.75a5,5,0,0,1-4.13,5.47,10.12,10.12,0,0,1-3.7.6h0a4.18,4.18,0,0,1-2.27-.82,5,5,0,0,1-2-3.51c-.18-2.2-.34-4.41-.49-6.59h-.07a20.8,20.8,0,0,0-2.62,0c.08,2.39.17,5.06.3,7.79a4.08,4.08,0,0,1-1.29,3.4,4.27,4.27,0,0,1-2.51.91c-.51,0-1.07.15-1.67.25A14.15,14.15,0,0,1,165.82,84.41Z"/><path class="cls-1" d="M187.64,76.51c.35-7,.63-14.5,1-21.52.06-1.17.06-2.5-.78-3.33-1.39-1.38-6.54-1.55-8.06-.26-1.69,1.43-1.14,4-1.1,5.89,0,1.58.08,3.19.14,4.82l-.19,0-6.47.48q-.1-3.81-.22-7.66c-.09-3.09.28-5-3.23-4.64a64.89,64.89,0,0,0-8.64,2.25,2.19,2.19,0,0,0-1.37,2.58,203.35,203.35,0,0,1,4,21.77c.17,1.28.18,3.12.93,4.16,1.54,2.11,4.59.87,7.2.63a2.26,2.26,0,0,0,1.3-.41,2.06,2.06,0,0,0,.56-1.68c-.16-3.32-.27-6.59-.36-9.84l.21,0a23.46,23.46,0,0,1,5.68,0c.32,0,.66.07,1,.08.18,2.8.38,5.61.6,8.39a2.94,2.94,0,0,0,1.13,2c1,.77,2.83.23,4.05-.13a4,4,0,0,0,1.88-1A4,4,0,0,0,187.64,76.51Z"/><path d="M207.21,84.25c-1.24-.09-3.38-.72-3.73-3.87-.19-1.69-.38-3.42-.6-5.16a38.59,38.59,0,0,1-3.88-.56c-.77,1.56-1.41,2.93-2,4.26-.9,2.06-2.31,3-4.32,2.83a14.28,14.28,0,0,1-1.72-.28A4.22,4.22,0,0,1,187.59,75c.77-1.76,1.49-3.6,2.18-5.37,1-2.69,2.14-5.47,3.47-8.17l.95-2c2.82-5.78,3.18-6.53,6.87-8.23a5.62,5.62,0,0,1,2.71-.36,9.08,9.08,0,0,1,3.84,1.12c4.21,2.72,4.53,7.09,4.79,10.61.06.77.11,1.5.21,2.18.35,2.63.43,5.25.52,7.79.06,2.21.13,4.31.37,6.41.15,1.36,0,4.59-4.45,5.13a9.21,9.21,0,0,1-1.84.08Z"/><path class="cls-1" d="M211.37,79.28c-.52-4.69-.24-9.43-.88-14.16-.51-3.77.08-8.61-4-11.28-.94-.61-3.47-1.08-4.49-.61-3.31,1.53-3.06,1.56-6.81,9.19-2.17,4.41-3.66,9-5.6,13.45-.84,1.92-.45,3,1.78,3.49,1.93.4,2.89.62,3.72-1.29s1.81-3.93,2.79-5.86a39.69,39.69,0,0,0,6.94,1c.31,2.29.56,4.59.82,6.89.23,2.07,1.44,2.12,3.19,1.91C210.24,81.87,211.6,81.36,211.37,79.28Z"/><path d="M202.72,61.77l-2.79,5.08a.66.66,0,0,0,.48,1l3.07.44a.84.84,0,0,0,.94-1l-1.12-5.39A.31.31,0,0,0,202.72,61.77Z"/><path class="cls-1" d="M187.64,76.51c.35-7,.63-14.5,1-21.52.06-1.17.06-2.5-.78-3.33-1.39-1.38-6.54-1.55-8.06-.26-1.69,1.43-1.14,4-1.1,5.89,0,1.58.08,3.19.14,4.82l-.19,0-6.47.48q-.1-3.81-.22-7.66c-.09-3.09.28-5-3.23-4.64a64.89,64.89,0,0,0-8.64,2.25,2.19,2.19,0,0,0-1.37,2.58,203.35,203.35,0,0,1,4,21.77c.17,1.28.18,3.12.93,4.16,1.54,2.11,4.59.87,7.2.63a2.26,2.26,0,0,0,1.3-.41,2.06,2.06,0,0,0,.56-1.68c-.16-3.32-.27-6.59-.36-9.84l.21,0a23.46,23.46,0,0,1,5.68,0c.32,0,.66.07,1,.08.18,2.8.38,5.61.6,8.39a2.94,2.94,0,0,0,1.13,2c1,.77,2.83.23,4.05-.13a4,4,0,0,0,1.88-1A4,4,0,0,0,187.64,76.51Z"/><path class="cls-2" d="M166.11,80.57a1.26,1.26,0,0,1-1.07-.49,6.8,6.8,0,0,1-.52-2.49c0-.31-.06-.61-.1-.89a205.31,205.31,0,0,0-4.06-22,.48.48,0,0,1,.3-.57A65.9,65.9,0,0,1,168.9,52a4.37,4.37,0,0,1,.86,0,1,1,0,0,1,.33.06,11.24,11.24,0,0,1,.13,2c0,.3,0,.61,0,.94q.1,3.85.21,7.65a1.67,1.67,0,0,0,.56,1.22,1.69,1.69,0,0,0,1,.44,1,1,0,0,0,.25,0l6.47-.48h.14l.19,0A1.71,1.71,0,0,0,180.53,62c-.07-1.78-.12-3.35-.14-4.78,0-.38,0-.78-.06-1.18-.1-1.67-.12-2.81.55-3.38a6.26,6.26,0,0,1,3.37-.44,5,5,0,0,1,2.39.61c.36.36.3,1.49.27,2-.17,3.52-.33,7.16-.49,10.79s-.31,7.23-.48,10.73a3.27,3.27,0,0,1-.29,1.5,3.07,3.07,0,0,1-1.12.48,7.51,7.51,0,0,1-2.29.45h0a.51.51,0,0,1-.23,0,1.15,1.15,0,0,1-.45-.75c-.22-2.81-.43-5.62-.61-8.37a1.71,1.71,0,0,0-1.58-1.59l-.36,0-.57-.06c-.32,0-.65-.07-1-.09a25.67,25.67,0,0,0-5.11.13l-.21,0a1.71,1.71,0,0,0-1.49,1.74c.08,2.89.2,6.32.36,9.87a1.07,1.07,0,0,1,0,.27l-.3,0c-.67.06-1.34.17-2,.29A11.27,11.27,0,0,1,166.11,80.57Z"/><path class="cls-1" d="M211.37,79.28c-.52-4.69-.24-9.43-.88-14.16-.51-3.77.08-8.61-4-11.28-.94-.61-3.47-1.08-4.49-.61-3.31,1.53-3.06,1.56-6.81,9.19-2.17,4.41-3.66,9-5.6,13.45-.84,1.92-.45,3,1.78,3.49,1.93.4,2.89.62,3.72-1.29s1.81-3.93,2.79-5.86a39.69,39.69,0,0,0,6.94,1c.31,2.29.56,4.59.82,6.89.23,2.07,1.44,2.12,3.19,1.91C210.24,81.87,211.6,81.36,211.37,79.28Zm-8.85-16.77a5.7,5.7,0,0,1,.78-1.27c.22.1.23.48.25.69,0,.4.11.8.16,1.2.17,1.12.36,2.24.52,3.36.07.47.11,1,.17,1.42s.12.68.18,1q-2.29-.39-4.59-.66l-.6-.09c.22-.44.54-.93.65-1.12C200.93,65.54,201.69,64.06,202.52,62.51Z"/><path class="cls-3" d="M207.39,80.41a3.28,3.28,0,0,1-.09-.46c-.25-2.26-.51-4.59-.82-6.93-.11-.8-.89-1.06-1.69-1.12a38.23,38.23,0,0,1-6.64-1,1,1,0,0,0-.3,0,1.51,1.51,0,0,0-1.61.73c-1.15,2.25-2,4-2.75,5.78a2.37,2.37,0,0,1-.31.55H193a11.44,11.44,0,0,1-1.24-.22,3.42,3.42,0,0,1-.89-.28,2.76,2.76,0,0,1,.26-.86c.8-1.83,1.53-3.7,2.24-5.51,1-2.62,2.08-5.32,3.34-7.88l1-2c2.58-5.29,2.58-5.29,5-6.41a2.7,2.7,0,0,1,.81,0,5.78,5.78,0,0,1,2,.51c2.61,1.69,2.82,4.6,3,7.67.06.8.12,1.63.23,2.41a70.7,70.7,0,0,1,.48,7.4c.07,2.19.14,4.46.39,6.71.07.61.09.75-1.09.89a5.81,5.81,0,0,1-1.08.07Zm-4-20.88c-1.18-.09-1.62.71-2.4,2.17-.24.43-.46.87-.69,1.29-.59,1.1-1.14,2.14-1.76,3.2l-.09.15c-.24.38-.89,1.15-.77,1.62a1.75,1.75,0,0,0,1.39,1.18l.16,0c.18,0,.36.06.52.07,1.36.16,2.83.37,4.49.65l.16,0a2.05,2.05,0,0,0,1.51-.56c.55-.54.23-1,.16-1.65l-.07-.54c0-.31-.06-.61-.11-.91-.09-.62-.18-1.24-.28-1.85l-.24-1.52c-.05-.36-.1-.72-.14-1.08v-.09a2.39,2.39,0,0,0-1.2-2A2,2,0,0,0,203.42,59.53Z"/><path d="M188,116.32a4.46,4.46,0,0,1-2.88-2.68,7.82,7.82,0,0,1-.07-4.07c0-.24.08-.47.11-.68a182.19,182.19,0,0,0,1.51-19.53,3.88,3.88,0,0,1,3.51-3.77,60.35,60.35,0,0,1,8.44.06A7.57,7.57,0,0,1,200,86c3.32,1.16,2.56,4.18,2.11,6-.06.24-.12.5-.18.77-.38,1.58-.75,3.16-1.12,4.72l2.1.4c.2-.87.39-1.69.58-2.46.07-.27.13-.57.19-.88.33-1.64.83-4.12,3.16-5.22,1.92-.91,4.78,0,5.61.25a7.06,7.06,0,0,1,3.76,2.6,5.53,5.53,0,0,1,.07,4.6c-1,3-1.93,6.1-2.9,9.2s-1.93,6.18-2.89,9.17a5.32,5.32,0,0,1-2,3.07,5.4,5.4,0,0,1-2.82.71,9.17,9.17,0,0,1-3.33-.34h0a3.72,3.72,0,0,1-1.78-1.23,4.54,4.54,0,0,1-.88-3.48c.36-1.94.73-3.89,1.1-5.81l-.05,0a20,20,0,0,0-2.26-.63c-.49,2.09-1,4.41-1.54,6.8a3.63,3.63,0,0,1-1.9,2.64,3.79,3.79,0,0,1-2.37.21c-.45-.07-1-.12-1.5-.17A12.53,12.53,0,0,1,188,116.32Z"/><path class="cls-1" d="M208.67,114.53c1.92-6,3.88-12.39,5.8-18.37a3.84,3.84,0,0,0,.09-3.06c-.88-1.51-5.29-2.85-6.9-2.08-1.79.84-1.89,3.15-2.31,4.83q-.51,2.07-1,4.2l-.17,0L198.49,99q.78-3.31,1.58-6.67c.63-2.69,1.4-4.28-1.73-4.75a59.69,59.69,0,0,0-8-.05,2,2,0,0,0-1.78,1.92,180.81,180.81,0,0,1-1.53,19.73c-.15,1.14-.57,2.74-.15,3.81.84,2.18,3.77,1.81,6.07,2.2a2,2,0,0,0,1.22-.05,1.85,1.85,0,0,0,.87-1.32c.63-2.91,1.29-5.76,1.95-8.59l.19,0a21.47,21.47,0,0,1,4.92,1.28l.84.3c-.49,2.45-1,4.93-1.41,7.39a2.6,2.6,0,0,0,.52,2c.69.9,2.39.86,3.53.82a2.7,2.7,0,0,0,3.07-2.45Z"/><path d="M223.79,125.72a3.48,3.48,0,0,1-2.33-4.21c.23-1.5.46-3,.67-4.59-1-.39-2.13-.84-3.22-1.38-1,1.17-1.9,2.21-2.7,3.22a3.64,3.64,0,0,1-4.39,1.45,13.2,13.2,0,0,1-1.42-.63,3.78,3.78,0,0,1-1.43-6.36c1.07-1.34,2.11-2.76,3.12-4.13,1.52-2.08,3.1-4.23,4.87-6.27l1.28-1.47c3.76-4.34,4.25-4.9,7.83-5.52a4.82,4.82,0,0,1,2.42.31A8,8,0,0,1,231.55,98c3,3.32,2.28,7.17,1.7,10.27-.13.68-.25,1.32-.33,1.93a69.74,69.74,0,0,1-1.34,6.85c-.45,1.93-.88,3.75-1.16,5.62-.18,1.21-1,4-5,3.41a9.15,9.15,0,0,1-1.61-.35Z"/><path class="cls-1" d="M228.53,122.38c.63-4.18,2-8.2,2.5-12.43.43-3.39,2.05-7.43-.9-10.68a5.84,5.84,0,0,0-3.74-1.56c-3.21.56-3,.64-8,6.37-2.89,3.31-5.24,7-7.94,10.33-1.16,1.47-1.08,2.52.74,3.43,1.57.78,2.35,1.2,3.51-.27s2.47-3,3.76-4.41a35.39,35.39,0,0,0,5.76,2.49c-.27,2-.57,4.1-.88,6.14-.28,1.85.75,2.17,2.31,2.39C227,124.36,228.25,124.23,228.53,122.38Z"/><path d="M225.08,105.26,221.5,109a.58.58,0,0,0,.2.94l2.55,1.09a.76.76,0,0,0,1.05-.65l.27-4.92A.29.29,0,0,0,225.08,105.26Z"/><path class="cls-1" d="M208.67,114.53c1.92-6,3.88-12.39,5.8-18.37a3.84,3.84,0,0,0,.09-3.06c-.88-1.51-5.29-2.85-6.9-2.08-1.79.84-1.89,3.15-2.31,4.83q-.51,2.07-1,4.2l-.17,0L198.49,99q.78-3.31,1.58-6.67c.63-2.69,1.4-4.28-1.73-4.75a59.69,59.69,0,0,0-8-.05,2,2,0,0,0-1.78,1.92,180.81,180.81,0,0,1-1.53,19.73c-.15,1.14-.57,2.74-.15,3.81.84,2.18,3.77,1.81,6.07,2.2a2,2,0,0,0,1.22-.05,1.85,1.85,0,0,0,.87-1.32c.63-2.91,1.29-5.76,1.95-8.59l.19,0a21.47,21.47,0,0,1,4.92,1.28l.84.3c-.49,2.45-1,4.93-1.41,7.39a2.6,2.6,0,0,0,.52,2c.69.9,2.39.86,3.53.82a2.7,2.7,0,0,0,3.07-2.45Z"/><path class="cls-2" d="M189.13,113.08a1.15,1.15,0,0,1-.81-.68,6.06,6.06,0,0,1,.12-2.27c.05-.27.09-.54.13-.79a183.94,183.94,0,0,0,1.54-19.9.43.43,0,0,1,.39-.43,59.89,59.89,0,0,1,7.61,0,4.24,4.24,0,0,1,.75.17.92.92,0,0,1,.28.13,10.25,10.25,0,0,1-.36,1.78c-.07.26-.13.53-.2.81-.53,2.24-1.05,4.46-1.58,6.66a1.55,1.55,0,0,0,.2,1.19,1.61,1.61,0,0,0,.78.61l.22.06,5.7,1.08H204l.18,0a1.52,1.52,0,0,0,1.65-1.18c.35-1.56.67-2.92,1-4.17.08-.32.15-.67.22-1,.3-1.47.54-2.45,1.26-2.79a5.57,5.57,0,0,1,3,.39,4.36,4.36,0,0,1,1.92,1.08c.23.39-.08,1.36-.23,1.82-1,3-1.93,6.11-2.91,9.22s-1.93,6.17-2.88,9.15a3,3,0,0,1-.6,1.23,2.81,2.81,0,0,1-1.07.16,7,7,0,0,1-2.09-.14h0a.73.73,0,0,1-.19-.09,1.11,1.11,0,0,1-.22-.76c.46-2.47.93-4.95,1.41-7.37a1.54,1.54,0,0,0-1-1.74l-.31-.1c-.16,0-.32-.12-.48-.18s-.54-.21-.82-.3a22.7,22.7,0,0,0-4.45-1.06l-.19,0a1.52,1.52,0,0,0-1.69,1.16c-.59,2.52-1.28,5.51-2,8.62,0,.09,0,.17-.07.22l-.28,0c-.59-.1-1.19-.15-1.77-.2A10.78,10.78,0,0,1,189.13,113.08Z"/><path class="cls-1" d="M228.53,122.38c.63-4.18,2-8.2,2.5-12.43.43-3.39,2.05-7.43-.9-10.68a5.84,5.84,0,0,0-3.74-1.56c-3.21.56-3,.64-8,6.37-2.89,3.31-5.24,7-7.94,10.33-1.16,1.47-1.08,2.52.74,3.43,1.57.78,2.35,1.2,3.51-.27s2.47-3,3.76-4.41a35.39,35.39,0,0,0,5.76,2.49c-.27,2-.57,4.1-.88,6.14-.28,1.85.75,2.17,2.31,2.39C227,124.36,228.25,124.23,228.53,122.38Zm-3.78-16.53a5.74,5.74,0,0,1,1-.92c.16.14.08.47.06.66-.05.36-.09.71-.14,1.07-.11,1-.2,2-.32,3-.05.42-.12.84-.18,1.26s-.06.62-.09.93c-1.25-.58-2.52-1.13-3.81-1.63l-.5-.22c.29-.33.68-.68.82-.82C222.68,108.1,223.67,107,224.75,105.85Z"/><path class="cls-3" d="M224.83,122.44a2.85,2.85,0,0,1,0-.42c.3-2,.61-4.09.88-6.18.1-.71-.52-1.11-1.2-1.35a34.35,34.35,0,0,1-5.51-2.38,1.12,1.12,0,0,0-.25-.11,1.36,1.36,0,0,0-1.56.26c-1.5,1.68-2.61,3-3.7,4.36a1.61,1.61,0,0,1-.4.4h0l-.16,0a10,10,0,0,1-1-.47,2.69,2.69,0,0,1-.71-.45,2.52,2.52,0,0,1,.43-.69c1.11-1.39,2.17-2.84,3.2-4.24,1.48-2,3-4.11,4.69-6l1.29-1.48c3.44-4,3.44-4,5.82-4.38a2.37,2.37,0,0,1,.7.16,5,5,0,0,1,1.64.91c1.86,2.06,1.38,4.62.87,7.33-.13.7-.27,1.43-.36,2.14a64.91,64.91,0,0,1-1.28,6.5c-.44,1.91-.9,3.88-1.21,5.89-.08.53-.1.66-1.15.52a6.36,6.36,0,0,1-1-.2Zm1.38-19c-1-.35-1.56.24-2.57,1.32q-.46.48-.9,1c-.76.81-1.47,1.58-2.26,2.35l-.11.11c-.29.27-1,.79-1,1.22a1.59,1.59,0,0,0,.93,1.35l.13.06.43.18c1.14.45,2.36,1,3.74,1.59l.13.06a1.84,1.84,0,0,0,1.43-.14c.61-.34.44-.81.52-1.39l.07-.48c0-.27.08-.54.11-.81.07-.56.13-1.11.18-1.67l.15-1.37.12-1v-.08a2.08,2.08,0,0,0-.57-2A1.4,1.4,0,0,0,226.21,103.49Z"/><path class="cls-4" d="M156,201.37a107.05,107.05,0,0,0-4.48-16.62c-.7-2.11-3.14-7.73-3.79-9.89-35,7.6-69.23,13-104.49,6.26-.31,2.85-.84,5.83-1.37,8.77a92.58,92.58,0,0,0-1.46,10.33c-.45,8.17-.48,18,2,27.76h112A64.4,64.4,0,0,0,156,201.37Z"/><path d="M157.43,200.13a106.86,106.86,0,0,0-5-16.71c-.92-2.57-1.87-5.22-2.69-7.83-.17-.57-.37-1.12-.57-1.67l-2.52.72c.21.58.41,1.15.6,1.73,2.53,8.06,6,15.89,7.58,24.23A62.26,62.26,0,0,1,153.62,228h2.73A65.67,65.67,0,0,0,157.43,200.13Z"/><path d="M41.87,202.29C42.05,196.15,44,188,44.33,181c-.87-.17-1.73-.36-2.6-.55a98.87,98.87,0,0,1-1.27,11.25,90.3,90.3,0,0,0-1.2,10.52c-.23,7.63,0,16.69,2.19,25.77h2.7C42,219.68,41.62,210.93,41.87,202.29Z"/><path class="cls-5" d="M74.83,92.17a2.77,2.77,0,0,1-1.83.57c-3-.21-5.46-5.85-7.13-7.77-1.24-1.45-2.33-2.07-3.33-2.14-1.46-.1-2.72,1-4,2.49a12.65,12.65,0,0,1-1.19,1.45c-.64.76-1.28,1.57-2,2.33a7.05,7.05,0,0,1-5.71,2.36,7.37,7.37,0,0,1-5-2.52,9.07,9.07,0,0,1-2.07-7.51,10.77,10.77,0,0,1,2.05-4.29c1.32-2,5.81-5.27,5.85-5.27a17,17,0,0,1,10.93-3.46,14.75,14.75,0,0,1,3.5.69,10.41,10.41,0,0,1,3.32,1.65,25.62,25.62,0,0,1,3.62,3C75.49,77.28,79.19,89.08,74.83,92.17Z"/><path d="M73.86,71.74a29.32,29.32,0,0,0-4-3.35,12.94,12.94,0,0,0-4-2,17.7,17.7,0,0,0-4.17-.82c-4.22-.29-8.48,1-12.68,3.93a25.11,25.11,0,0,0-2.69,2.07c-.74.61-1.4,1.19-2,1.72a13.28,13.28,0,0,0-2,2.23A13.82,13.82,0,0,0,39.84,81a11.92,11.92,0,0,0,2.74,9.86,10.12,10.12,0,0,0,6.87,3.46,9.85,9.85,0,0,0,8-3.27c.73-.78,1.39-1.6,2-2.39h0l.58-.66a9.67,9.67,0,0,0,.7-.9c1.11-1.24,1.53-1.38,1.61-1.39s.46.12,1.37,1.17a19.72,19.72,0,0,1,1.35,2c1.85,2.88,4.13,6.49,7.71,6.74a5.68,5.68,0,0,0,3.66-1.09c1.27-.91,2.85-2.72,3.12-6.29C80,82.43,76.93,74.74,73.86,71.74Zm1,20.43a2.77,2.77,0,0,1-1.83.57c-3-.21-5.46-5.85-7.13-7.77-1.24-1.45-2.33-2.07-3.33-2.14-1.46-.1-2.7,1-4,2.48h0a12.65,12.65,0,0,1-1.19,1.45c-.64.76-1.28,1.57-2,2.33a7.05,7.05,0,0,1-5.71,2.36,7.37,7.37,0,0,1-5-2.52,9.07,9.07,0,0,1-2.07-7.51,10.77,10.77,0,0,1,2.05-4.29c1.32-2,5.81-5.27,5.85-5.27s0,0,.06,0a16.92,16.92,0,0,1,10.87-3.43,14.75,14.75,0,0,1,3.5.69,10.41,10.41,0,0,1,3.32,1.65,25.62,25.62,0,0,1,3.62,3C75.49,77.28,79.19,89.08,74.83,92.17Z"/><path class="cls-6" d="M58.54,85.31h0a12.65,12.65,0,0,1-1.19,1.45c-.64.76-1.28,1.57-2,2.33a7.05,7.05,0,0,1-5.71,2.36,7.37,7.37,0,0,1-5-2.52,9.07,9.07,0,0,1-2.07-7.51,10.77,10.77,0,0,1,2.05-4.29c1.32-2,5.81-5.27,5.85-5.27s0,0,.06,0a3.27,3.27,0,0,1,2.08,1.33l0,0A3.11,3.11,0,0,1,53.31,76a3.14,3.14,0,0,1-1.24,1.8,2.63,2.63,0,0,1,2.15-.21,3.49,3.49,0,0,1,2.07,4.18,3.18,3.18,0,0,1-1.42,2,2.74,2.74,0,0,1,1.7,0C57.6,84,58.25,84.32,58.54,85.31Z"/><path class="cls-5" d="M139.46,85.19a8.34,8.34,0,0,1-6.07,2.6,8.49,8.49,0,0,1-5.91-2.41l0,0c-1-.95-3.61-3.13-3.61-3.28-1.84-1.46-3.63-2.5-5.23-2.5a3.46,3.46,0,0,0-2.54,1.13c-2,2-3.7,8.09-7.39,8.09a4.26,4.26,0,0,1-1.62-.36c-4.44-1.88-2.09-9.39-.83-12.55,2.34-5.75,4.86-9.93,11-11.47a17.06,17.06,0,0,1,4.29-.55,20.33,20.33,0,0,1,11.38,3.86h0a33.6,33.6,0,0,1,6.47,5.42,8.39,8.39,0,0,1,2.37,4.38A8.54,8.54,0,0,1,139.46,85.19Z"/><path d="M144.47,77a9.44,9.44,0,0,0-.59-1.94v0a11.27,11.27,0,0,0-2.54-3.86c-.1-.09-.17-.19-.29-.3a36.89,36.89,0,0,0-6.64-5.49,1.74,1.74,0,0,0-.26-.15A22.76,22.76,0,0,0,121.46,61a19.78,19.78,0,0,0-5,.64c-7.77,2-10.73,7.83-12.87,13.15C100.34,83,101.2,89,106,91a6.78,6.78,0,0,0,2.71.58c4.14,0,6.34-3.84,7.94-6.64a16.42,16.42,0,0,1,1.47-2.3c.28-.28.41-.28.52-.28.34,0,1.32.19,3.41,1.85.37.39.88.84,1.46,1.35l.14.11c.69.6,1.48,1.3,1.88,1.68a11.25,11.25,0,0,0,16-.23A11.39,11.39,0,0,0,144.47,77Zm-5,8.23a8.34,8.34,0,0,1-6.07,2.6,8.49,8.49,0,0,1-5.91-2.41l0,0c-1-.95-3.61-3.13-3.61-3.28l0,0c-1.84-1.44-3.61-2.48-5.21-2.48a3.46,3.46,0,0,0-2.54,1.13c-2,2-3.7,8.09-7.39,8.09a4.26,4.26,0,0,1-1.62-.36c-4.44-1.88-2.09-9.39-.83-12.55,2.34-5.75,4.86-9.93,11-11.47a17.06,17.06,0,0,1,4.29-.55,20.33,20.33,0,0,1,11.38,3.86h0a33.89,33.89,0,0,1,6.45,5.42,8.39,8.39,0,0,1,2.37,4.38A8.54,8.54,0,0,1,139.46,85.19Z"/><path class="cls-6" d="M139.46,85.19a8.34,8.34,0,0,1-6.07,2.6,8.49,8.49,0,0,1-5.91-2.41l0,0c-1-.95-3.61-3.13-3.61-3.28l0,0A3.32,3.32,0,0,1,126,79.8a3.15,3.15,0,0,1,1.92,0,3.39,3.39,0,0,1-1.62-2,3.44,3.44,0,0,1,2.26-4.27,3.33,3.33,0,0,1,2.41.23A3.4,3.4,0,0,1,129.59,72a2.58,2.58,0,0,1-.12-.77,3.3,3.3,0,0,1,1.06-2.29,3.76,3.76,0,0,1,1.15-.85,5,5,0,0,1,.69-.28,1.87,1.87,0,0,1,.47,0h0a33.89,33.89,0,0,1,6.45,5.42,8.39,8.39,0,0,1,2.37,4.38A8.54,8.54,0,0,1,139.46,85.19Z"/><path class="cls-4" d="M149.85,174.33c-.2-.49-.41-1-.6-1.47-.35-.9-.75-1.79-1.14-2.68a32.57,32.57,0,0,1-1.68-4.3l.36-.89c.6-1.45,1.22-3,1.67-4.41a68,68,0,0,0,.8-38C146,110.23,139.68,99.8,131.86,94c-12.69-9.46-27.33-14.62-40.14-14.16L87,80a47.35,47.35,0,0,0-4.84.4c-11.56,1.57-23.74,7.39-34.28,16.4-7.41,6.34-13.05,17.17-15.45,29.72-1.31,6.85-3.72,23.93,2.25,34.82,1.2,2.18,2.33,4,3.43,5.7,2.42,3.8,5.22,5.24,6.41,10.34.54,2.3-.21,6.51-.27,9.32C80,190.24,115.65,185.05,149.85,174.33Z"/><path d="M147.82,166l.18-.45c.61-1.48,1.24-3,1.71-4.53a69.47,69.47,0,0,0,.82-38.7c-3.32-12.65-9.84-23.35-17.89-29.35-12.93-9.63-27.86-14.89-41-14.42h-.21L87,78.66c-1.62,0-3.29.19-5,.41-11.81,1.61-24.23,7.54-35,16.7-7.63,6.53-13.43,17.64-15.89,30.48a100.2,100.2,0,0,0-1,13.16c.87,0,1.75-.12,2.63-.2.18-4.63.19-8.67.91-12.47,2-10.45,6.82-22,15-29,9.35-8,21.39-14.43,33.61-16.09a46.55,46.55,0,0,1,4.7-.4l4.43-.15h.25c13.79-.49,28.2,5.62,39.31,13.9,8.66,6.45,14.23,17.62,16.92,27.91a67.17,67.17,0,0,1-.78,37.27c-.56,1.8-1.39,3.69-2.15,5.59a38,38,0,0,0,2.26,5.85l2.48-.88c-.17-.38-.33-.75-.5-1.12A37.37,37.37,0,0,1,147.82,166Z"/><path class="cls-4" d="M87.08,81.27h0Z"/><path class="cls-7" d="M38.37,128.43c0,.61-.91,1.7-1.59,2.5a9.91,9.91,0,0,0-1.32,1.75c-2.81,5.32-3.31,8.19-3.5,14.66a31.64,31.64,0,0,0,4.31,17.3c7.16,11.58,21.61,17.54,38.66,15.93l5.81-.55c8.87-.85,13.59-1.6,22.17-3l.49-.07c1.33-.21,2.69-.48,4.06-.79h0c12.76-2.95,27.91-10.95,32.17-24.58,1.77-5.67,3-13.78,1.13-19.56-.5-1.54-.81-2.58-1.13-3.69-.42-1.44-.88-3-1.85-6-.3-.93-1-3.65-1.42-5-.57-2.1-1.22-4.27-1.77-5.95a36.56,36.56,0,0,0-5.28-10.32c-4.83-6.53-12.2-11.35-21.3-13.93a59.71,59.71,0,0,0-10.24-1.92,69.7,69.7,0,0,0-20.83,1.42c-.47.11-.93.22-1.37.34a60.4,60.4,0,0,0-14.92,6.13c-6.88,4-15.81,10.55-19.27,19a36.48,36.48,0,0,0-2.54,11.31c0,.41-.08.85-.13,1.31-.08.8-.17,1.68-.19,2.56Z"/><path class="cls-8" d="M97.36,142.48A14.56,14.56,0,1,0,110,126.1a14.62,14.62,0,0,0-12.62,16.38"/><path class="cls-8" d="M34.68,150.91c1.36,8,6.61,13.9,13,12.67,7.9-1.51,12.08-9.88,11.28-16.11-1-8-5.78-14.92-13.71-13.57S33.31,144.43,34.68,150.91Z"/><path class="cls-9" d="M70.21,138.76a2.25,2.25,0,0,0,2.71,1.6c1.39-.16,2.4-1.14,2.28-2.19a2.3,2.3,0,0,0-2.73-1.61c-1.38.17-2.39,1.15-2.26,2.2"/><path class="cls-10" d="M79.28,147.42c4.13,2,12-1.83,12-1.83.26,4.54-1.83,15.78-12.82,15.83-12,1-15-9-15.79-12.88a12,12,0,0,0,11.55-2.62"/><path d="M76.77,162.46c-7.76,0-13.08-4.87-15-13.71a1,1,0,0,1,.72-1.15l.22,0a1,1,0,0,1,.94.76c1.2,5.56,4.46,12.18,13.19,12.18.51,0,1,0,1.58-.07a10.73,10.73,0,0,0,8.09-3.26c3.37-3.58,4-9.12,3.85-11.55a1,1,0,0,1,.91-1h0a1,1,0,0,1,1,.91c.17,2.92-.56,8.93-4.36,13a11.93,11.93,0,0,1-6.11,3.5,15.16,15.16,0,0,1-3.3.37C77.91,162.43,77.33,162.46,76.77,162.46Z"/><path class="cls-7" d="M66.59,149.92l.27,1.58a1.44,1.44,0,0,0,1.61,1.25L86,151.14a1.44,1.44,0,0,0,1.38-1.5l.11-1.76c0-.66-.78-.08-1.5-.14-2-.16-6.84-.45-8.78-1.64a1.62,1.62,0,0,0-1.77,0,18.57,18.57,0,0,1-7.46,3C67.24,149.26,66.53,149.21,66.59,149.92Z"/><path d="M67.08,150.42a8.4,8.4,0,0,1-4.85-1.49c-2.36-1.64-3.29-3.43-2.49-4.81a1,1,0,0,1,.87-.51,1,1,0,0,1,.91,1.46.31.31,0,0,0,0,.21,5.07,5.07,0,0,0,1.88,2,6.43,6.43,0,0,0,3.71,1.13A8.38,8.38,0,0,0,73.7,145a1.58,1.58,0,0,1,.13-.13l.14-.12a.38.38,0,0,1,.17-.08l.17-.07.11,0h.23a.74.74,0,0,1,.23.06.86.86,0,0,0,.18.08,15.66,15.66,0,0,0,8.33,2.3A10,10,0,0,0,89.93,145a6.43,6.43,0,0,0,1.78-2.23.28.28,0,0,0-.06-.29,1,1,0,0,1,0-1.32,1,1,0,0,1,.78-.36,1,1,0,0,1,.64.23,2,2,0,0,1,.72,1.5c0,1.52-1.56,3.14-2.51,4a10.08,10.08,0,0,1-4.51,2.22,14.63,14.63,0,0,1-3.37.37h0A18.37,18.37,0,0,1,75,147a.4.4,0,0,0-.15,0,.31.31,0,0,0-.22.09,10.49,10.49,0,0,1-5.33,3.08A9.68,9.68,0,0,1,67.08,150.42Z"/><path class="cls-11" d="M55.42,167.38a12.69,12.69,0,0,0-12.14,7.3s-4.69,3.81-6.7,5.58a48.44,48.44,0,0,0-8.74,5s-5.79,4-4.33,10.64c0,0,1.48,7.84,9.26,8.49,0,0,10.64,1.66,20.23-7.31,0,0,17-13.66,9.79-25C62.79,172,58.59,167.72,55.42,167.38Z"/><path d="M34.31,205.36c-4.41,0-8.41-1.6-10.8-5.85a9.44,9.44,0,0,1-.84-7.93c1.73-5.12,7.57-9.2,12.49-11.33,2.05-1.39,7.34-5.3,8.57-7.62h0c3.38-6.17,9.39-6.28,13.5-4.5,5,2.17,9.24,8,7.12,14.55-2.44,7.52-9,14.85-17.23,19.14A28.86,28.86,0,0,1,34.31,205.36Zm11.36-31.69c-1.73,3.25-8.59,7.94-9.36,8.46l-.18.1c-4.3,1.84-9.86,5.58-11.38,10.06a7.24,7.24,0,0,0,.67,6.14c3.94,7,13.61,5.14,20.69,1.43C53.81,195.83,60,189,62.26,182c1.74-5.36-1.64-10-5.89-11.85C53,168.66,48.34,168.81,45.67,173.67Zm-10,7.55h0Z"/><path d="M90.59,135.15h-.17l-6-1a1,1,0,0,1-.46-1.77l5.14-4.13a1,1,0,0,1,1.41.15,1,1,0,0,1-.16,1.41L87,132.53l3.77.64a1,1,0,0,1-.16,2Z"/><path d="M59.49,137.3a1,1,0,0,1-.92-.6,1,1,0,0,1,.53-1.32L62,134.16l-3.09-1.95a1,1,0,1,1,1.06-1.69l4.71,3a1,1,0,0,1-.14,1.77l-4.63,2A.91.91,0,0,1,59.49,137.3Z"/><path class="cls-5" d="M150.5,187.79s-6.51-.12-4.89,4.83c0,0,21.73,7.45,48.49-10.1"/><path class="cls-5" d="M164.32,131.5s-6.93,21.32-18.77,30.16c0,0-8.22,6.13-10.12,11,0,0-.13,4.2,5,2,0,0,20.67-14.34,27.33-27.31Z"/><path class="cls-12" d="M213.55,154.46c-.16-.39-.33-.77-.53-1.15a15.91,15.91,0,0,0-1.76-2.7c-.32-.39-.66-.75-1-1.09-.5,1.1-1,2.17-1.6,3.22a70.08,70.08,0,0,1-23.43,25.34c2.82,2.73,6.3,5.32,10.05,5.64,5.84-3.79,12.45-8.78,16.77-15.23A15.13,15.13,0,0,0,213.55,154.46Z"/><path d="M213.55,154.46c-.16-.39-.33-.77-.53-1.15a15.91,15.91,0,0,0-1.76-2.7,14.29,14.29,0,0,0-1.25-1.32,16.74,16.74,0,0,1-.77,2.51c.08.09.16.17.23.26a13.74,13.74,0,0,1,1.51,2.31,10.63,10.63,0,0,1,.44,1,12.8,12.8,0,0,1-1.28,11.87c-4.69,7-12.36,12.28-18.51,16.09-1.48.92-3.1,1.83-4.79,2.71-.43.22-1.06.46-1.66.69l-1.05.41a65,65,0,0,1-28.34,5.47c-1.85-.07-3.76-.22-5.67-.45a12.13,12.13,0,0,1-3.27-.81.79.79,0,0,0-.48-.06l-.86.14a.9.9,0,0,0-.31,1.68,13.91,13.91,0,0,0,4.64,1.34c2,.23,3.94.39,5.86.46A67.5,67.5,0,0,0,185,189.24c.86-.36,2.06-.76,2.88-1.19,1.71-.87,3.37-1.81,5-2.79,6.35-3.94,14.28-9.4,19.21-16.77A15.13,15.13,0,0,0,213.55,154.46Z"/><path class="cls-12" d="M182.51,117.61a12.3,12.3,0,0,0-1-.74,15.59,15.59,0,0,0-2.79-1.52c-4.14-1.71-8.48-1.21-11.33,1.3a8.82,8.82,0,0,0-1.64,2,14.35,14.35,0,0,0-1.7,6.71c0,.48-.07,1-.13,1.41l0,.3a46.24,46.24,0,0,1-1.06,6c-.65,2.67-.69,5.52-1.9,8-.6,1.25-1.51,2.36-2.3,3.69l-.07.1a15.54,15.54,0,0,0,5.31,8A55.52,55.52,0,0,0,171,141.68a52,52,0,0,0,3.72-10.75,16.42,16.42,0,0,1,1.89-5.64,10.34,10.34,0,0,1,3.58-3.18,15.34,15.34,0,0,1,4.84-1.79A14.11,14.11,0,0,0,182.51,117.61Z"/><path d="M182.51,117.61a12.3,12.3,0,0,0-1-.74,15.59,15.59,0,0,0-2.79-1.52,12.38,12.38,0,0,0-5.95-.95,9.41,9.41,0,0,0-5.38,2.25,8.82,8.82,0,0,0-1.64,2,14.35,14.35,0,0,0-1.7,6.71c0,.48-.07,1-.13,1.41l0,.3a46.24,46.24,0,0,1-1.06,6,38.43,38.43,0,0,1-2.77,7.69,67.09,67.09,0,0,1-14,19.08c-3.81,3.66-9,7.21-11.24,12.14a2.91,2.91,0,0,0-.34,1.44,1.13,1.13,0,0,0,.92,1c.72.07,1.18-.7,1.49-1.34,2.8-5.67,8.35-9.07,12.57-13.6,4.85-5.21,9.59-11,12.61-17.81a43.73,43.73,0,0,0,4-14.43l0-.28c.06-.47.09-1,.13-1.43v-.08a12.49,12.49,0,0,1,1.38-5.73,6.76,6.76,0,0,1,1.21-1.48,7.19,7.19,0,0,1,4.08-1.69,10.32,10.32,0,0,1,4.85.78,14.72,14.72,0,0,1,2.38,1.3,9.94,9.94,0,0,1,.83.62,12,12,0,0,1,1.62,1.65,15.13,15.13,0,0,1,2.37-.65A14.11,14.11,0,0,0,182.51,117.61Z"/><polygon points="187.59 123.21 187.59 123.21 187.59 123.21 187.59 123.21"/><path class="cls-5" d="M168.85,155.41c-.44.41-.91.84-1.44,1.31-4.86,4.24-10.58,7.26-16.63,10.45l-1.1.58-.26.14c-5.12,2.7-10.49,6.08-11.5,10.79a7.28,7.28,0,0,0,1.41,6,10,10,0,0,0,1.4,1.45c3.12,2.65,7.16,1.45,10,1l.89-.13a54.94,54.94,0,0,0,15.49-4.82c5.27-2.37,10.91-4.7,15.67-8.75.72-.61,1.43-1.24,2.12-1.88C177.13,169.62,170.32,163.4,168.85,155.41Z"/><path class="cls-12" d="M201.13,131.84c-.26-.33-.54-.66-.83-1a16,16,0,0,0-2.45-2.18c-3.76-2.69-8.22-3.15-11.66-1.23a9.23,9.23,0,0,0-2.1,1.67,15.42,15.42,0,0,0-3.25,6.48c-.15.48-.29,1-.45,1.42l-.1.29a50.94,50.94,0,0,1-2.45,5.94,41.47,41.47,0,0,1-4.55,7.24c-.89,1.14-1.86,2.26-3,3.44-.44.48-.93,1-1.48,1.48,1.47,8,8.28,14.21,16.08,16.19,1.44-1.31,2.81-2.67,4.11-4,5.17-5.56,11.48-13,14.36-21.55A15.41,15.41,0,0,0,201.13,131.84Z"/><path d="M190.8,128.48a10,10,0,0,1,5.77,2,13.56,13.56,0,0,1,2.11,1.88c.24.27.48.55.7.83a13.17,13.17,0,0,1,1.93,12.11c-2.74,8.14-8.86,15.37-13.88,20.76-1.21,1.29-2.55,2.62-4,3.93a17.71,17.71,0,0,1-1.45,1.13l-.92.68c-10.19,7.93-20.08,12.25-32,14a14.64,14.64,0,0,1-2.12.16,7.13,7.13,0,0,1-4.74-1.48,7.59,7.59,0,0,1-1.08-1.13,5.1,5.1,0,0,1-1-4.21c.82-3.84,6-7,10.37-9.3l.26-.14,1.1-.58c6.18-3.26,12-6.33,17.06-10.75.53-.46,1-.91,1.5-1.36s1.11-1.08,1.58-1.58c1.14-1.22,2.15-2.39,3.08-3.59a42.37,42.37,0,0,0,4.79-7.62,51.81,51.81,0,0,0,2.56-6.19l.1-.28c.16-.46.3-.94.45-1.43l0-.08a13.45,13.45,0,0,1,2.74-5.6,7,7,0,0,1,1.59-1.27,7.17,7.17,0,0,1,3.53-.89m0-2.2a9.46,9.46,0,0,0-4.61,1.17,9.23,9.23,0,0,0-2.1,1.67,15.42,15.42,0,0,0-3.25,6.48c-.15.48-.29,1-.45,1.42l-.1.29a50.94,50.94,0,0,1-2.45,5.94,41.47,41.47,0,0,1-4.55,7.24c-.89,1.14-1.86,2.26-3,3.44-.44.48-.93,1-1.48,1.48s-.91.84-1.44,1.31c-4.86,4.24-10.58,7.26-16.63,10.45l-1.1.58-.26.14c-5.12,2.7-10.49,6.08-11.5,10.79a7.28,7.28,0,0,0,1.41,6,10,10,0,0,0,1.4,1.45,9.26,9.26,0,0,0,6.17,2,18,18,0,0,0,2.44-.18c12.61-1.86,22.95-6.57,33.08-14.45.75-.58,1.82-1.29,2.51-1.93,1.44-1.31,2.81-2.67,4.11-4,5.17-5.56,11.48-13,14.36-21.55a15.41,15.41,0,0,0-2.27-14.16c-.26-.33-.54-.66-.83-1a16,16,0,0,0-2.45-2.18,12.2,12.2,0,0,0-7-2.4Z"/><path d="M212.41,186.34a1.6,1.6,0,0,1-1.58-1.46c-.8-9.15-3.07-17-6.75-23.25-3.59-6.13-9.4-11.65-17.28-16.42a1.59,1.59,0,1,1,1.65-2.72c8.34,5,14.52,10.94,18.38,17.53s6.33,15,7.18,24.59a1.6,1.6,0,0,1-1.45,1.72Z"/><path class="cls-5" d="M187.63,142.25a1.56,1.56,0,0,1,.82.24c8.34,5,14.52,10.94,18.38,17.53s6.33,15,7.18,24.59a1.6,1.6,0,0,1-1.45,1.72h-.15a1.6,1.6,0,0,1-1.58-1.46c-.8-9.15-3.07-17-6.75-23.25-3.59-6.13-9.4-11.65-17.28-16.42a1.59,1.59,0,0,1,.83-3m0-1.5h0a3.11,3.11,0,0,0-2.65,1.5,3,3,0,0,0-.36,2.34,3.12,3.12,0,0,0,1.4,1.91c7.66,4.63,13.3,10,16.77,15.89,3.56,6.08,5.76,13.7,6.54,22.62a3.08,3.08,0,0,0,3.08,2.83h.28a3.08,3.08,0,0,0,2.81-3.35c-.86-9.85-3.34-18.34-7.37-25.22s-10.35-12.89-18.9-18.06a3.14,3.14,0,0,0-1.6-.45Z"/><path d="M197.82,184.64a1.59,1.59,0,0,1-1.57-1.37,31.71,31.71,0,0,0-13-21.17,1.59,1.59,0,1,1,1.82-2.61,34.85,34.85,0,0,1,14.36,23.33,1.58,1.58,0,0,1-1.35,1.8Z"/><path class="cls-5" d="M184.13,159.2a1.54,1.54,0,0,1,.91.29,34.85,34.85,0,0,1,14.36,23.33,1.58,1.58,0,0,1-1.35,1.8l-.23,0a1.59,1.59,0,0,1-1.57-1.37,31.71,31.71,0,0,0-13-21.17,1.59,1.59,0,0,1,.91-2.9m0-1.5h0a3.09,3.09,0,0,0-1.77,5.63,30.15,30.15,0,0,1,12.4,20.15,3.11,3.11,0,0,0,3.06,2.66,3.15,3.15,0,0,0,.44,0,3.11,3.11,0,0,0,2-1.21,3,3,0,0,0,.59-2.29,36.41,36.41,0,0,0-15-24.35,3,3,0,0,0-1.77-.56Z"/><path d="M43.8,175.07a1.36,1.36,0,0,1-.81-.27,36.72,36.72,0,0,1-11.93-16.58,34.14,34.14,0,0,1-.78-20.31A1.35,1.35,0,0,1,32,137a1.36,1.36,0,0,1,.88,1.7,32.08,32.08,0,0,0,.76,18.62c0,.14,3.07,9.34,11,15.29a1.35,1.35,0,0,1,.27,1.89A1.32,1.32,0,0,1,43.8,175.07Z"/><path class="cls-13" d="M14.8,134.38a59.5,59.5,0,0,0-1.88,7.08l-4.08-.72a1.51,1.51,0,1,0-.52,3l4.11.73a30.66,30.66,0,0,0-.12,7.74l-3.39.74a1.51,1.51,0,0,0,.64,3l3.34-.73a16.24,16.24,0,0,0,3.65,6.77,1.49,1.49,0,0,0,2.12.1,1.66,1.66,0,0,0,.35-.45,1.52,1.52,0,0,0-.25-1.68,13.2,13.2,0,0,1-2.89-5.39l2.7-.59a1.5,1.5,0,0,0,1-.82,1.55,1.55,0,0,0,.12-1,1.52,1.52,0,0,0-1.8-1.15l-2.63.58a27.87,27.87,0,0,1,.11-6.57l2.71.48a1.5,1.5,0,0,0,1.61-.82,1.34,1.34,0,0,0,.13-.4,1.51,1.51,0,0,0-1.22-1.75L15.9,142a57.57,57.57,0,0,1,1.76-6.68,1.5,1.5,0,1,0-2.86-.93Z"/><path d="M7.31,141.42a1.5,1.5,0,0,1,1.53-.68l4.08.72a59.5,59.5,0,0,1,1.88-7.08A1.39,1.39,0,0,1,15,134a1.51,1.51,0,0,1,2.7,1.28A57.57,57.57,0,0,0,15.9,142l2.75.48a1.51,1.51,0,0,1,1.22,1.75,1.34,1.34,0,0,1-.13.4,1.09,1.09,0,0,1-.08.15,1.5,1.5,0,0,1-1.53.67L15.42,145a27.87,27.87,0,0,0-.11,6.57l2.63-.58a1.52,1.52,0,0,1,1.8,1.15,1.55,1.55,0,0,1-.12,1l-.09.16a1.53,1.53,0,0,1-1,.66l-2.7.59a13.2,13.2,0,0,0,2.89,5.39,1.52,1.52,0,0,1,.25,1.68l-.09.15a1.48,1.48,0,0,1-.26.3,1.49,1.49,0,0,1-2.12-.1,16.24,16.24,0,0,1-3.65-6.77l-3.34.73A1.51,1.51,0,0,1,8,153.58a1.53,1.53,0,0,1,1-.66l3.39-.74a30.66,30.66,0,0,1,.12-7.74l-4.11-.73A1.52,1.52,0,0,1,7.09,142a1.43,1.43,0,0,1,.22-.54m-1.52-1h0a3.31,3.31,0,0,0,2.21,5l2.46.44a31.64,31.64,0,0,0-.08,4.84l-1.84.4A3.32,3.32,0,0,0,6,155.1,3.31,3.31,0,0,0,10,157.63l1.74-.38a17.74,17.74,0,0,0,3.52,5.87,3.32,3.32,0,0,0,4.68.22,2.93,2.93,0,0,0,.55-.66,2.79,2.79,0,0,0,.19-.33,3.3,3.3,0,0,0-.52-3.68,10.58,10.58,0,0,1-1.85-2.86l.71-.15a3.29,3.29,0,0,0,2.08-1.45,3.72,3.72,0,0,0,.19-.34,3.32,3.32,0,0,0,.25-2.15,3.3,3.3,0,0,0-3.93-2.53l-.59.13c0-.72,0-1.47.05-2.24l.79.14a3.31,3.31,0,0,0,3.36-1.47,2.27,2.27,0,0,0,.19-.34,3.42,3.42,0,0,0,.29-.87,3.3,3.3,0,0,0-.55-2.48A3.34,3.34,0,0,0,19,140.7l-.91-.16c.36-1.52.8-3.08,1.32-4.67a3.3,3.3,0,0,0-2.11-4.17,3.31,3.31,0,0,0-4.18,2.12q-.93,2.85-1.56,5.57L9.15,139a3.33,3.33,0,0,0-3.36,1.47Z"/></svg>