<?xml version="1.0" encoding="utf-8"?>
<!-- Generator: Adobe Illustrator 26.5.0, SVG Export Plug-In . SVG Version: 6.00 Build 0)  -->
<svg version="1.1" id="레이어_5" xmlns="http://www.w3.org/2000/svg" xmlns:xlink="http://www.w3.org/1999/xlink" x="0px"
	 y="0px" viewBox="0 0 518.7 586.8" style="enable-background:new 0 0 518.7 586.8;" xml:space="preserve">
<style type="text/css">
	.st0{fill:#94E8BA;}
	.st1{opacity:0.14;}
	.st2{fill:#AE7E4C;}
	.st3{fill:#FFFFFF;}
	.st4{fill:#F00000;}
	.st5{fill:#CA9866;}
	.st6{fill:#241F20;}
</style>
<g>
	<g>
		<g>
			<path class="st0" d="M3.1,3.2c0,0,29.8,379.4,0,580.5h512.5c0,0-37.1-430.7-19.3-580.5H3.1z"/>
			<path d="M515.6,586.8H3.1c-0.9,0-1.8-0.4-2.4-1.1c-0.6-0.7-0.9-1.6-0.7-2.5C29.4,384.7,0.3,7.2,0,3.4C-0.1,2.5,0.2,1.7,0.8,1
				c0.6-0.6,1.4-1,2.3-1h493.2c0.9,0,1.7,0.4,2.3,1.1c0.6,0.7,0.9,1.6,0.8,2.5c-17.6,147.7,18.9,575.5,19.3,579.8
				c0.1,0.9-0.2,1.8-0.8,2.4C517.3,586.4,516.5,586.8,515.6,586.8z M6.8,580.5h505.4c-3.4-40.7-35.2-429.9-19.4-574.2H6.5
				C9.3,44.4,33.9,390.6,6.8,580.5z"/>
		</g>
		<path class="st1" d="M41.9,137.6c-1.7,0-3.1-1.4-3.1-3.1c-0.1-1.7,1.3-3.2,3-3.2l405.7-11.5c1.8-0.2,3.2,1.3,3.2,3.1
			c0.1,1.7-1.3,3.2-3,3.2L41.9,137.6C41.9,137.6,41.9,137.6,41.9,137.6z"/>
		<path class="st1" d="M467.5,318.8c0,0-0.1,0-0.1,0l-422-14.9c-1.7-0.1-3.1-1.5-3-3.3c0.1-1.7,1.4-3,3.1-3c0,0,0.1,0,0.1,0
			l422,14.9c1.7,0.1,3.1,1.5,3,3.3C470.5,317.4,469.1,318.8,467.5,318.8z"/>
		<path class="st1" d="M48.6,488.3c-1.6,0-3-1.3-3.1-3c-0.1-1.7,1.2-3.2,2.9-3.3L470,457.2c1.6-0.2,3.2,1.2,3.3,3
			c0.1,1.7-1.2,3.2-2.9,3.3L48.8,488.3C48.7,488.3,48.6,488.3,48.6,488.3z"/>
	</g>
	<path class="st2" d="M190.9,372.9c0.1,0,0.1,0,0.2,0c0.7,0.1,1.2,0.6,1.1,1.3c0,0.8-0.9,77.1-1.5,105.3c0,0.2-0.1,0.4-0.2,0.6
		c-1.6,2.9-2.4,6.2-2.4,9.9c-0.5,24.1,15.6,26.4,27.3,28c6.8,1,16.8-0.6,23.8-6.2c4.5-3.6,7-8.3,7.5-14c0-0.2,0.1-0.3,0.1-0.4
		c8.7-18.5,14.8-26.3,29.5-26.3c8.8,0,22.3,4.4,33.2,7.9c7,2.3,13,4.2,16.2,4.5c0.8,0.1,1.8,0.2,2.8,0.3c9.6,1.3,25.6,3.4,34.5-13
		c5.6-10.3,6.6-22.3,2.7-31.4c-2.3-5.3-6-8.9-10.4-10l0,0c-12.7-3.3-42.9-17.6-44.2-18.2c-0.7-0.4-3.4-2.7-4.9-12.6
		c-1.5-9.7-6.1-34.1-6.2-34.4c-0.1-0.6,0.2-1.2,0.8-1.5c0.6-0.2,1.2,0,1.6,0.5c8.5,13.2,31.2,48.3,34.3,51.1c3.9,3.6,8.7,8,19.3,4.5
		c3.6-1.2,6-3.5,7-6.9c1.9-6-0.7-14.5-6.8-22.9c-2.5-3.3-6.1-9.5-10.7-17.2c-13.5-22.7-36.1-60.7-50.3-61.6
		c-19.4-1.3-109.2,8.8-110.1,8.9c0.1,0-5.2,2.7-20.6,32.7c-1.6,3.2-3.4,6.6-5.2,10c-12.3,23.6-27.7,52.9-22.8,67.1
		c1.2,3.3,3.4,5.6,6.7,7.1c4.7,2,9.2,1.9,13.7-0.4c20.5-10.4,32.4-61.3,32.5-61.8C189.8,373.3,190.3,372.9,190.9,372.9z"/>
	<g>
		<ellipse class="st3" cx="162.1" cy="141.1" rx="14.3" ry="14.4"/>
		<path d="M162.1,158.7c-2.7,0-5.4-0.6-7.8-1.9c-4.2-2.1-7.3-5.7-8.7-10.2c-1.5-4.5-1.1-9.2,1-13.4c2.1-4.2,5.7-7.3,10.1-8.8
			c4.4-1.5,9.2-1.1,13.3,1c4.2,2.1,7.3,5.7,8.7,10.2c3,9.2-1.9,19.2-11.1,22.2C165.8,158.4,164,158.7,162.1,158.7z M162.2,129.8
			c-1.2,0-2.4,0.2-3.5,0.6c-2.8,0.9-5.1,3-6.5,5.6c-1.3,2.7-1.6,5.8-0.6,8.6l0,0c0.9,2.9,2.9,5.2,5.6,6.5c2.7,1.4,5.7,1.6,8.6,0.6
			c5.9-2,9.1-8.4,7.1-14.3c-0.9-2.9-2.9-5.2-5.6-6.5C165.6,130.2,163.9,129.8,162.2,129.8z"/>
	</g>
	<g>
		<path class="st4" d="M254.8,131.6c-15.7-18.8-42.6-27.2-66-20.5c-5.9,1.7-11.6,4.2-16,8.5c-4.4,4.2-7.3,10.3-6.8,16.4
			c4.2-0.3,8-4.9,11.9-3.3c1.6,0.7,2.7,2.3,3.5,3.8c3.1,5.5,5.6,11.5,7.4,17.6c0.5,1.7,1,3.6,2.5,4.6c1.1,0.8,2.6,0.9,3.9,0.9
			c17.6,0.7,35.3-1.4,52.3-6.3c4.4-1.2,13.4-3.6,14.2-9.1C262.3,140.2,257.1,134.3,254.8,131.6z"/>
		<path d="M201.8,162.8c-2.2,0-4.4,0-6.7-0.1c-1.5-0.1-3.7-0.1-5.6-1.5c-2.3-1.6-3.1-4.3-3.7-6.2c-1.7-5.9-4.1-11.6-7.2-16.9
			c-0.6-1.1-1.3-2.2-2-2.5c-0.8-0.4-2.1,0.3-4.1,1.3c-1.9,1-3.9,2.1-6.4,2.2c-1.7,0.2-3.2-1.2-3.3-2.9c-0.6-6.7,2.3-13.8,7.7-19
			c4.3-4.1,10-7.2,17.3-9.2c24.5-6.9,52.9,2,69.3,21.6l0,0l0.4,0.4c3.9,4.6,7.9,9.9,7.2,14.7c-1.1,7.3-10.8,10.1-16,11.5
			C233.3,160.6,217.6,162.8,201.8,162.8z M176.2,129.2c0.9,0,1.9,0.2,2.9,0.6c2.8,1.1,4.3,3.8,5.1,5.2c3.3,5.8,5.9,11.9,7.7,18.3
			c0.3,1.1,0.7,2.5,1.3,2.9c0.4,0.3,1.6,0.3,2.3,0.4c17.3,0.7,34.6-1.4,51.3-6.1c3.5-1,11.4-3.2,11.9-6.5c0.2-1.6-1.7-4.8-5.8-9.7
			l-0.4-0.4c-14.8-17.7-40.6-25.8-62.8-19.5c-6.4,1.8-11.2,4.3-14.7,7.7c-2.9,2.8-4.8,6.2-5.5,9.6c0.1-0.1,0.2-0.1,0.3-0.2
			C171.6,130.3,173.8,129.2,176.2,129.2z"/>
	</g>
	<g>
		<path class="st3" d="M182.1,157.8c0.6-0.7,1.1-1.3,1.7-1.9c17.6-15.7,41.5-18.3,65.8-16c10.2,1,21,3.3,27.6,9.9
			c5.4,5.4,7.1,12.8,6.9,19.8c0,1.1-0.1,2.3-0.8,3.3c-0.8,1.2-2.4,2-3.9,2.6c-20.9,8.6-44.5,9.5-67.3,9.6c-6.4,0-26.5,3-31.3-0.4
			C173.3,179.3,176.7,164.6,182.1,157.8z"/>
		<path d="M190.9,189.5c-5.3,0-9.4-0.6-11.7-2.2c-3-2.2-5-5.6-5.6-9.8c-1.1-7.7,2.2-16.8,6-21.7c0,0,0,0,0,0
			c0.7-0.9,1.4-1.6,2.1-2.3c15.9-14.2,38.2-19.7,68.2-16.7c8.9,0.9,21.6,2.9,29.6,10.8c5.4,5.3,8.1,13,7.9,22.1c0,1.1-0.1,3.1-1.3,5
			c-1.3,2-3.4,3-5.3,3.7c-21.5,8.8-45.6,9.7-68.5,9.8c-1.6,0-4.1,0.2-7,0.4C199.9,189.2,195,189.5,190.9,189.5z M184.5,159.7
			c-3,3.8-5.6,11.1-4.7,16.8c0.4,2.6,1.4,4.4,3,5.6c2.6,1.9,15.7,0.8,22,0.3c3.1-0.2,5.8-0.5,7.5-0.5c22.3-0.1,45.7-0.9,66.1-9.4
			c0.6-0.2,2.1-0.9,2.5-1.4c0.2-0.3,0.2-1.2,0.2-1.6c0.1-5.1-0.8-12.3-6-17.5c-5-4.9-13.1-7.8-25.7-9c-28.1-2.7-48.9,2.2-63.5,15.2
			C185.4,158.7,185,159.2,184.5,159.7z"/>
	</g>
	<ellipse class="st5" cx="249" cy="385.5" rx="42.6" ry="42.9"/>
	<g>
		<path class="st4" d="M258.3,397c0,3.4,0,6.8,0.4,10.1c0.1,0.9,0.2,1.8,0.8,2.4c0.6,0.6,1.5,0.8,2.4,0.9c9.6,1.4,19.5,0.8,28.9-1.7
			c5.5-20.6,5.8-42.6,1-63.3c-0.5-2-1-4.1-2.3-5.7c-1.3-1.6-3.1-2.7-5-3.5c-10.8-4.4-24.9-1.1-26.1,11
			C256.7,363.4,258.3,380.7,258.3,397z"/>
		<path d="M272.1,414.3c-3.6,0-7.2-0.3-10.7-0.8c-1-0.1-2.8-0.4-4.2-1.9c-1.4-1.4-1.6-3.3-1.7-4.2c-0.4-3.5-0.4-7-0.4-10.3V397
			c0-5.4-0.2-10.8-0.3-16.3c-0.4-11.2-0.7-22.7,0.4-33.7c0.6-5.5,3.3-9.9,8-12.7c6.1-3.7,14.9-4,22.5-0.9c2.8,1.2,4.9,2.6,6.3,4.5
			c1.6,2.1,2.3,4.6,2.8,6.9c5,21.3,4.6,43.7-1,64.8c-0.3,1.1-1.1,1.9-2.2,2.2C285.3,413.4,278.7,414.3,272.1,414.3z M261.8,407.2
			c0.1,0,0.3,0.1,0.5,0.1c8.6,1.2,17.5,0.8,25.9-1.2c4.9-19.6,5.1-40.3,0.5-60c-0.4-1.7-0.8-3.4-1.7-4.5c-0.7-1-1.9-1.8-3.7-2.5
			c-5.7-2.3-12.5-2.1-16.9,0.5c-2.9,1.8-4.6,4.4-5,7.9c-1.1,10.6-0.7,21.9-0.4,32.9c0.2,5.6,0.4,11.1,0.3,16.6c0,0,0,0.1,0,0.1
			c0,3.3,0,6.5,0.3,9.6C261.8,406.9,261.8,407.1,261.8,407.2z M261.9,407.5L261.9,407.5L261.9,407.5z"/>
	</g>
	<path class="st5" d="M218.2,465.3c0,0-32.2-1.7-32.7,23.6c-0.5,25.2,16.5,27.6,28.4,29.3s31.3-4,32.9-21.4
		C248.3,479.5,243.1,466,218.2,465.3z"/>
	<path class="st5" d="M167,427.4c-16.2-1.9-32.2-14.7-32.2-14.7s-5.7,17.1,6,23.6c0,0,11.7,6.9,23.2-4.5L167,427.4z"/>
	<path class="st5" d="M357.9,430.7c-18.2-6.7-21.5,19.3-22.4,36.6c-1,17.3,7.7,17.4,7.7,17.4s20.9-0.7,23.9-29.7
		C367.1,455,369,434.8,357.9,430.7z"/>
	<path d="M219.4,521.3c-1.6,0-3.1-0.1-4.4-0.3c-11.4-1.6-30.4-4.3-29.9-31c0.1-4,1-7.7,2.6-10.9c0.4-20.7,1-66.6,1.3-91.8
		c-5.1,16.5-15.5,43.4-30.6,51.2c-5.3,2.7-10.8,2.8-16.3,0.5c-4.1-1.8-6.9-4.8-8.4-8.9c-5.4-15.4,9.6-44.1,22.9-69.5
		c1.8-3.4,3.5-6.7,5.2-10c11.1-21.7,17.3-29.6,20.1-32.5l-0.2-1.4l3-0.3c0.9-0.1,90.8-10.2,110.6-8.9c14.6,1,34,31.7,52.7,63.1
		l0.1,0.1c4.5,7.6,8.1,13.6,10.5,16.8c6.7,9.1,9.4,18.6,7.2,25.5c-1.3,4.3-4.4,7.3-8.9,8.8c-4.8,1.6-8.7,1.8-11.9,1.1
		c4.2,1.6,8,3,10.9,3.7c5.3,1.4,9.7,5.5,12.4,11.7c4.3,9.9,3.2,23-2.8,34c-9.9,18.2-27.9,15.8-37.6,14.6l-0.3,0
		c-0.9-0.1-1.7-0.2-2.5-0.3c-3.5-0.4-9.3-2.2-16.6-4.6l-0.2-0.1c-10.6-3.5-23.9-7.8-32.3-7.8c-12.8,0-18.2,6.4-26.6,24.3
		c-0.6,6.4-3.5,11.7-8.6,15.8C234.8,519.2,226.3,521.3,219.4,521.3z M190.9,369.9c0.1,0,0.3,0,0.4,0l0.1,0c2.2,0.3,3.8,2.1,3.8,4.3
		l0,1c-0.2,18.3-0.9,79.8-1.5,104.3c0,0.7-0.2,1.4-0.5,2c-1.3,2.4-2,5.3-2.1,8.5c-0.4,21.4,12.9,23.3,24.7,25
		c6,0.9,15.2-0.5,21.5-5.5c3.8-3.1,6-7.1,6.4-11.9c0.1-0.5,0.2-1,0.4-1.4c9.1-19.4,16-28,32.2-28c9.3,0,23.1,4.5,34.1,8.1l0.2,0.1
		c6.4,2.1,12.5,4.1,15.4,4.4c0.8,0.1,1.7,0.2,2.6,0.3l0.3,0c9.4,1.2,23.6,3.1,31.5-11.5c5.2-9.5,6.1-20.5,2.6-28.8
		c-1.9-4.4-4.9-7.4-8.4-8.3c-12.5-3.2-41.4-16.8-44.7-18.4l-0.4-0.2c-2-1.3-4.7-4.9-6.2-14.6c-1.3-8.4-5-28.2-6.1-34l0-0.2
		c-0.4-2,0.7-4,2.6-4.8c1.9-0.8,4.1-0.1,5.2,1.7c14.9,23.2,31.6,48.4,33.8,50.5c3.8,3.5,7.4,6.8,16.3,3.8c2.7-0.9,4.4-2.5,5.1-4.9
		c1.6-5-0.9-12.7-6.3-20.2c-2.5-3.4-6.2-9.6-10.8-17.3l-0.1-0.1c-11.5-19.2-35.3-59.3-48-60.2c-18-1.2-99.2,7.7-108.7,8.8
		c-1.7,1.6-7.3,7.9-19.2,31.1c-1.6,3.2-3.4,6.6-5.2,10c-11.4,21.9-27.1,51.8-22.6,64.7c0.9,2.5,2.5,4.2,5.1,5.3
		c3.9,1.7,7.4,1.6,11.2-0.3c15.1-7.7,26.9-42.5,31-59.8C187.2,371.3,188.9,369.9,190.9,369.9z M187.9,478.7
		C187.9,478.7,187.9,478.7,187.9,478.7C187.9,478.7,187.9,478.7,187.9,478.7z M312.8,408.7c2.8,1.3,15.5,7.2,27.1,12
		c-2.1-1.3-3.7-2.8-5.1-4.1c-3.1-2.8-21.1-30.5-30.1-44.4c1.6,8.4,3.7,20,4.6,26C310.5,406.1,312.4,408.3,312.8,408.7z M192.6,374.6
		C192.6,374.6,192.6,374.6,192.6,374.6C192.6,374.6,192.6,374.6,192.6,374.6z M303.1,363.8L303.1,363.8
		C303.1,363.8,303.1,363.8,303.1,363.8z"/>
	<g>
		<ellipse class="st2" cx="165.7" cy="199.5" rx="28.2" ry="28.4"/>
		<path d="M165.7,171.2c15.6,0,28.2,12.7,28.2,28.4c0,15.7-12.6,28.4-28.2,28.4c-15.6,0-28.2-12.7-28.2-28.4
			C137.6,183.9,150.2,171.2,165.7,171.2 M165.7,164.8c-19,0-34.4,15.6-34.4,34.7c0,19.1,15.4,34.7,34.4,34.7
			c19,0,34.4-15.6,34.4-34.7C200.2,180.4,184.7,164.8,165.7,164.8L165.7,164.8z"/>
	</g>
	<g>
		<path class="st4" d="M171.9,334.9c1.2,5.4,7,8.3,12.3,10.1c16.8,5.4,34.7,6.5,52.4,7c14.7,0.5,29.6,0.6,43.9-2.7
			c14.4-3.3,28.3-10.3,37.4-21.9c5.8-7.4,9.4-18.1,4.8-26.3c-2.2-4-6.1-6.8-10.1-8.8c-13.3-6.8-29.1-6.5-43.7-3.7
			c-14.6,2.8-28.8,7.8-43.6,9.9c-12.4,1.8-26.1,1.6-37.4,7.5C179.9,310.2,169.8,325.2,171.9,334.9z"/>
		<path d="M249.6,355.4c-4.4,0-8.8-0.1-13.2-0.2c-17.4-0.5-35.8-1.6-53.2-7.2c-8.3-2.7-13.2-6.9-14.4-12.4l0,0
			c-2.5-11.6,8.9-27.9,17.6-32.4c9.1-4.7,19.2-5.7,29.1-6.7c3.2-0.3,6.3-0.6,9.3-1.1c8.1-1.2,16.3-3.3,24.2-5.3
			c6.3-1.6,12.7-3.3,19.3-4.5c18.6-3.5,33.6-2.2,45.7,4c5.4,2.8,9.1,6.1,11.4,10.1c5.7,10.1,0.8,22.4-5.1,29.8
			c-11.1,14.2-27.5,20.3-39.2,23C270.8,354.8,260.1,355.4,249.6,355.4z M287.3,289.9c-5.5,0-11.4,0.6-17.8,1.8
			c-6.3,1.2-12.7,2.8-18.8,4.4c-8.1,2.1-16.4,4.3-24.8,5.5c-3.1,0.5-6.4,0.8-9.6,1.1c-9.3,0.9-18.8,1.9-26.9,6
			c-7.4,3.8-16.1,17.6-14.4,25.4c0,0,0,0,0,0c0.7,3.2,4.1,5.8,10.1,7.7c16.6,5.4,34.5,6.3,51.5,6.9c14.7,0.5,29.1,0.6,43.1-2.6
			c15.2-3.5,27.9-10.8,35.7-20.8c4.7-5.9,8.7-15.5,4.5-22.8c-1.6-2.9-4.6-5.4-8.8-7.6C304.4,291.7,296.5,289.9,287.3,289.9z"/>
	</g>
	<g>
		<ellipse class="st2" cx="306.7" cy="186.6" rx="28.2" ry="28.4"/>
		<path d="M306.7,158.2c15.6,0,28.2,12.7,28.2,28.4c0,15.7-12.6,28.4-28.2,28.4s-28.2-12.7-28.2-28.4
			C278.6,170.9,291.2,158.2,306.7,158.2 M306.7,151.9c-19,0-34.4,15.6-34.4,34.7c0,19.1,15.4,34.7,34.4,34.7s34.4-15.6,34.4-34.7
			C341.2,167.5,325.7,151.9,306.7,151.9L306.7,151.9z"/>
	</g>
	<g>
		<path class="st5" d="M233.7,163.3c0,0-80.3,0-80.3,91s107.3,74.7,126.8,64.5s76.2-44.4,33.1-120.2
			C313.3,198.6,292.4,157.8,233.7,163.3z"/>
		<path d="M244.3,162.8c50.7,0,69,35.8,69,35.8c43.2,75.9-13.5,110-33.1,120.2c-7,3.7-25.3,8.1-45.9,8.1c-36.8,0-81-14.2-81-72.6
			c0-91,80.3-91,80.3-91C237.4,162.9,240.9,162.8,244.3,162.8 M244.3,156.5c-3.6,0-7.2,0.2-10.9,0.5c-6.1,0.2-86.2,4.3-86.2,97.3
			c0,50.2,31.8,78.9,87.2,78.9c20.9,0,40.3-4.4,48.7-8.8c26.4-13.7,43-31.8,49.4-53.7c6.5-22.3,1.9-47.6-13.7-75.1
			C317.2,192.6,297,156.5,244.3,156.5L244.3,156.5z"/>
	</g>
	<ellipse class="st6" cx="206.7" cy="225.3" rx="9.6" ry="9.6"/>
	<ellipse class="st6" cx="270.9" cy="220.4" rx="9.6" ry="9.6"/>
	
		<ellipse transform="matrix(0.9975 -7.110339e-02 7.110339e-02 0.9975 -18.6842 17.9638)" class="st2" cx="243" cy="271.4" rx="44" ry="36.8"/>
	<path class="st6" d="M261.3,250.5c0.7,10.6-7.8,19.8-19,20.6s-20.9-7.2-21.6-17.8c-0.7-10.6,7.8-11.3,19-12.1
		S260.6,239.9,261.3,250.5z"/>
	<g>
		<path class="st2" d="M242.4,271.1l0.6,11.6c0,0-8.8,13.6-25.2,1.1"/>
		<path d="M231,292.2c-4.9,0-9.9-2-15.1-6c-1.4-1.1-1.7-3-0.6-4.4c1.1-1.4,3-1.7,4.4-0.6c4.8,3.7,9.3,5.2,13.2,4.5
			c3.6-0.6,5.9-2.9,7-4.1l-0.5-10.4c-0.1-1.7,1.2-3.2,3-3.3c1.8,0,3.2,1.2,3.3,3l0.6,11.6c0,0.7-0.1,1.3-0.5,1.9
			c-0.2,0.3-4.1,6.2-11.6,7.6C233,292.1,232,292.2,231,292.2z"/>
	</g>
	<g>
		<path class="st2" d="M243,282.7c0,0,14,12.2,25.2-2.6"/>
		<path d="M255.2,290.5c-7.9,0-14-5.3-14.3-5.5c-1.3-1.1-1.5-3.1-0.3-4.4c1.1-1.3,3.1-1.5,4.4-0.3l0,0c0.1,0,5.5,4.6,11.4,3.9
			c3.4-0.4,6.5-2.4,9.2-6c1.1-1.4,3-1.7,4.4-0.6c1.4,1.1,1.6,3,0.6,4.4c-3.8,5.1-8.4,7.9-13.6,8.5
			C256.4,290.5,255.8,290.5,255.2,290.5z"/>
	</g>
</g>
</svg>
