<svg xml:space="preserve" style="enable-background:new 0 0 250 250;" viewBox="0 0 250 250" y="0px" x="0px" xmlns:xlink="http://www.w3.org/1999/xlink" xmlns="http://www.w3.org/2000/svg" version="1.1">
<g id="레이어_6">
</g>
<g id="레이어_5">
</g>
<g id="레이어_2">
	<g>
		<g>
			<path d="M167,222.1h-1.8c-4.5,0-8.2-3.7-8.2-8.2v0c0-4.5,3.7-8.2,8.2-8.2h1.8c4.5,0,8.2,3.7,8.2,8.2v0
				C175.2,218.4,171.5,222.1,167,222.1z" style="fill:#2D3C40;"></path>
		</g>
		<g>
			<path d="M167.5,215.5h-17.1c-6.5,0-11.7,4.4-11.7,9.8v6c0,2.7,2.7,5,5.9,5h28.7c3.3,0,5.9-2.2,5.9-5v-6
				C179.3,219.9,174,215.5,167.5,215.5z" style="fill:#2D3C40;"></path>
		</g>
		<g>
			<path d="M174.1,209.6l-12.8,4.2c-3.2,1.1-6.6-0.7-7.7-3.9l-6.4-19.4c-2.2-6.7,1.4-14,8.1-16.2h0
				c6.7-2.2,14,1.4,16.2,8.1l6.4,19.4C179,205.1,177.3,208.6,174.1,209.6z" style="fill:#2D3C40;"></path>
		</g>
		<g>
			<path d="M156.6,173.1L156.6,173.1c-8.2-3-13.7-8.5-11.2-15.4l11.4-30.8c2.5-6.8,11.2-9.9,19.4-6.8l0,0
				c8.2,3,12.8,11,10.3,17.8l-11.4,30.8C172.6,175.5,164.8,176.1,156.6,173.1z" style="fill:#2D3C40;"></path>
		</g>
		<g>
			<path d="M158.6,185.1L158.6,185.1c-5,0.3-9.3-3.5-9.7-8.6l-0.2-3.7c-0.3-5,3.5-9.3,8.6-9.7h0
				c5-0.3,9.3,3.5,9.7,8.6l0.2,3.7C167.4,180.4,163.6,184.8,158.6,185.1z" style="fill:#2D3C40;"></path>
		</g>
	</g>
	<g>
		<path d="M185.5,107.9c0,0-3-19.9,8.8-27.8c8.2-5.5,12.2-2.4,20.8-7.1c4.8-2.6,7.7-6.1,9.6-11.1
			c2-5.3,3.4-10.3,10.1-10.5c7.6-0.3,2.9,14.6,1.8,17.9c-2.6,7.3-7.3,13.5-14.5,16.7c-7.2,3.3-17.6,1.6-23.1,8.1
			c-3.4,4-1.5,18.3-9.2,16.1C182.6,108.1,185.5,107.9,185.5,107.9z" style="fill:#143640;"></path>
	</g>
	<g>
		<g>
			<path d="M57.5,213.6h-1c-6.8,0-12.4-5.5-12.4-12.4v-14.8c0-6.8,5.5-12.4,12.4-12.4h1
				c6.8,0,12.4,5.5,12.4,12.4v14.8C69.9,208.1,64.4,213.6,57.5,213.6z" style="fill:#ABABAB;"></path>
		</g>
		<g>
			<path d="M57.9,174.7L57.9,174.7c-8,0-14.4-3.5-14.4-11.5v-35.8c0-7.9,6.4-14.4,14.4-14.4h0
				c8,0,14.4,6.4,14.4,14.4v35.8C72.3,171.1,65.8,174.7,57.9,174.7z" style="fill:#ABABAB;"></path>
		</g>
		<g>
			<path d="M57,186.2L57,186.2c-5.1,0-9.1-4.1-9.1-9.1v-3.7c0-5.1,4.1-9.1,9.1-9.1h0c5.1,0,9.1,4.1,9.1,9.1
				v3.7C66.2,182.1,62.1,186.2,57,186.2z" style="fill:#143640;"></path>
		</g>
		<g>
			<path d="M57.9,222.1h-1.8c-4.5,0-8.2-3.7-8.2-8.2v0c0-4.5,3.7-8.2,8.2-8.2h1.8c4.5,0,8.2,3.7,8.2,8.2v0
				C66.2,218.4,62.5,222.1,57.9,222.1z" style="fill:#143640;"></path>
		</g>
		<g>
			<path d="M63,215.4H48.6c-5.4,0-9.9,4.4-9.9,9.9v6c0,2.8,2.2,5,5,5h24.1c2.8,0,5-2.2,5-5v-6
				C72.8,219.8,68.4,215.4,63,215.4z" style="fill:#757575;"></path>
		</g>
	</g>
	<g>
		<g>
			<path d="M115,101.6l-28.5,9.5c-5.8,1.9-12-1.2-13.9-7l0,0c-1.9-5.8,1.2-12,7-13.9l28.5-9.5
				c5.8-1.9,12,1.2,13.9,7l0,0C123.9,93.5,120.8,99.7,115,101.6z" style="fill:#143640;"></path>
		</g>
		<g>
			<circle r="39.1" cy="132.6" cx="176.4" style="fill:#6B6B6B;"></circle>
		</g>
		<g>
			<path d="M138,169.5h-12c-17.8,0-32.2-14.4-32.2-32.2v0c0-17.8,14.4-32.2,32.2-32.2h12
				c17.8,0,32.2,14.4,32.2,32.2v0C170.2,155.1,155.7,169.5,138,169.5z" style="fill:#919191;"></path>
		</g>
		<g>
			<path d="M121.6,177h-45c-12.6,0-22.9-10.2-22.9-22.9v-33.5c0-12.6,10.2-22.9,22.9-22.9h45
				c12.6,0,22.9,10.2,22.9,22.9v33.5C144.5,166.8,134.2,177,121.6,177z" style="fill:#6B6B6B;"></path>
		</g>
		<g>
			<path d="M102,154.7c0,0,0-5.1,0-27.3c0-18.7,16.5-26.8,21.8-29c-1.8-0.4-3.6-0.6-5.4-0.6H92.8
				c0,0-23.5,7.3-23.5,29.6s0,27.3,0,27.3s1.3,20.9,8.7,22.3c0.6,0,1.2,0.1,1.8,0.1h31.7C103.4,177,102,154.7,102,154.7z" style="fill:#143640;"></path>
		</g>
	</g>
	<g>
		<g>
			<g>
				<path d="M66.5,21.7c0,0-4.8-11.9-15.1-6.6C33.7,24,16.3,36.8,11.2,59.8c-2.7,12.1,12.7,23,28.1-1.9
					C50.1,40.6,68.7,32.1,66.5,21.7z" style="fill:#143640;"></path>
			</g>
		</g>
		<g>
			<g>
				<path d="M85.7,21.7c0,0,4.8-11.9,15.1-6.6c17.7,8.9,35.1,21.7,40.2,44.7c2.7,12.1-12.7,23-28.1-1.9
					C102.1,40.6,83.5,32.1,85.7,21.7z" style="fill:#143640;"></path>
			</g>
		</g>
	</g>
	<g>
		<g>
			<path d="M124.1,70c0,25.7-23.6,45.4-46.5,45.4c-22.2,0-46.5-19.7-46.5-45.4s20.8-46.5,46.5-46.5
				S124.1,44.3,124.1,70z" style="fill:#ABABAB;"></path>
		</g>
		<g>
			<path d="M110.5,37.1c-8.4-8.5-14-16.5-32.9-16.5c-17.8,0-24.5,8-32.9,16.5c-2.8,7-4.5,15.3-1.3,22.1
				C50.1,73.8,59,74,58.6,82.6c-0.3,7.6,9.8,11.6,16.8,12.1c7.3,0.6,21.4-4,21-12.2c-0.4-8.5,8.5-8.7,15.3-23.3
				C115.1,52.5,113.3,44.1,110.5,37.1z" style="fill:#143640;"></path>
		</g>
		<g>
			<circle r="24.8" cy="85.6" cx="77.6" style="fill:#FFFBE3;"></circle>
		</g>
	</g>
	<g>
		<g>
			<path d="M80.5,65.6h-8.8c-2.5,0-3.8,2.9-2.1,4.8l4.4,4.9c1.1,1.3,3.1,1.3,4.2,0l4.4-4.9
				C84.3,68.5,83,65.6,80.5,65.6z" style="fill:#1C4059;"></path>
		</g>
		<g>
			<rect height="9.4" width="0.8" y="76.2" x="75.7"></rect>
		</g>
	</g>
	<g>
		<g>
			<path d="M129.2,213.6h-1c-6.8,0-12.4-5.5-12.4-12.4v-14.8c0-6.8,5.5-12.4,12.4-12.4h1
				c6.8,0,12.4,5.5,12.4,12.4v14.8C141.5,208.1,136,213.6,129.2,213.6z" style="fill:#ABABAB;"></path>
		</g>
		<g>
			<path d="M129.5,174.7L129.5,174.7c-8,0-14.4-3.5-14.4-11.5v-35.8c0-7.9,6.4-14.4,14.4-14.4h0
				c8,0,14.4,6.4,14.4,14.4v35.8C143.9,171.1,137.5,174.7,129.5,174.7z" style="fill:#ABABAB;"></path>
		</g>
		<g>
			<path d="M128.7,186.2L128.7,186.2c-5.1,0-9.1-4.1-9.1-9.1v-3.7c0-5.1,4.1-9.1,9.1-9.1h0
				c5.1,0,9.1,4.1,9.1,9.1v3.7C137.8,182.1,133.7,186.2,128.7,186.2z" style="fill:#143640;"></path>
		</g>
		<g>
			<path d="M129.6,222.1h-1.8c-4.5,0-8.2-3.7-8.2-8.2v0c0-4.5,3.7-8.2,8.2-8.2h1.8c4.5,0,8.2,3.7,8.2,8.2v0
				C137.8,218.4,134.1,222.1,129.6,222.1z" style="fill:#143640;"></path>
		</g>
		<g>
			<path d="M134.6,215.4h-14.4c-5.4,0-9.9,4.4-9.9,9.9v6c0,2.8,2.2,5,5,5h24.1c2.8,0,5-2.2,5-5v-6
				C144.5,219.8,140.1,215.4,134.6,215.4z" style="fill:#757575;"></path>
		</g>
	</g>
	<g>
		<g>
			<path d="M59.6,62.7c-2.9,0-5.3-2.4-5.3-5.3c0-2.9,2.4-5.3,5.3-5.3c2.9,0,5.3,2.4,5.3,5.3
				C64.9,60.3,62.6,62.7,59.6,62.7z M59.6,53.7c-2,0-3.7,1.7-3.7,3.7s1.7,3.7,3.7,3.7c2,0,3.7-1.7,3.7-3.7S61.7,53.7,59.6,53.7z" style="fill:#74DEFF;"></path>
		</g>
		<g>
			<path d="M95.5,62.7c-2.9,0-5.3-2.4-5.3-5.3c0-2.9,2.4-5.3,5.3-5.3c2.9,0,5.3,2.4,5.3,5.3
				C100.8,60.3,98.4,62.7,95.5,62.7z M95.5,53.7c-2,0-3.7,1.7-3.7,3.7s1.7,3.7,3.7,3.7c2,0,3.7-1.7,3.7-3.7S97.5,53.7,95.5,53.7z" style="fill:#74DEFF;"></path>
		</g>
	</g>
	<g>
		<g>
			<g>
				<path d="M49.7,115.7c-0.4,0-0.8-0.1-1.1-0.2c-0.7-0.3-1.2-0.9-1.5-1.6c-0.3-0.7-0.3-1.5,0-2.2l1.2-2.7
					c0.6-1.4,2.3-2.1,3.8-1.5c0.7,0.3,1.2,0.9,1.5,1.6c0.3,0.7,0.3,1.5,0,2.2l-1.2,2.7C51.9,115,50.8,115.7,49.7,115.7z M50.9,108.8
					c-0.5,0-1,0.3-1.2,0.8l-1.2,2.7c-0.1,0.3-0.1,0.7,0,1c0.1,0.3,0.4,0.6,0.7,0.7c0.6,0.3,1.4,0,1.7-0.7l1.2-2.7
					c0.3-0.6,0-1.4-0.7-1.7C51.3,108.9,51.1,108.8,50.9,108.8z" style="fill:#FFC870;"></path>
			</g>
			<g>
				<path d="M47.7,118.7c-0.2,0-0.5,0-0.7-0.2l0,0c-0.9-0.4-1.4-1.5-1-2.4l1.4-3.2c0.2-0.5,0.6-0.8,1-1
					c0.5-0.2,1-0.2,1.4,0c0.5,0.2,0.8,0.6,1,1c0.2,0.5,0.2,1,0,1.4l-1.4,3.2C49.1,118.3,48.4,118.7,47.7,118.7z M47.6,117.1
					c0.1,0.1,0.3,0,0.3-0.1l1.4-3.2c0-0.1,0-0.2,0-0.2c0,0-0.1-0.1-0.1-0.1c-0.1,0-0.2,0-0.2,0c0,0-0.1,0.1-0.1,0.1l-1.4,3.2
					C47.4,116.9,47.5,117,47.6,117.1z" style="fill:#FFC870;"></path>
			</g>
			<g>
				<path d="M50.9,146c-1.3,0-2.3-0.5-3-1c-5.7-4.2-3.2-21.5-2.8-23.8l0.3-5l2.8,0.2l-0.3,5.2
					c-1.1,6.9-1.6,18.7,1.7,21.1c0.3,0.2,1.3,0.9,3.6-0.2c5.3-2.6,7.3-15.9,9.1-27.7c1.6-10.6,3-20,6.7-23.8
					c-1.5-0.4-3.1-0.1-4.9,0.8c-6.1,3.1-7.4,22.2-7.4,29.4l-2.8,0c0-2.8,0.2-27.5,9-31.9c2.9-1.4,5.6-1.6,8-0.6
					c0.4,0.2,0.9,0.4,1.3,0.7c0,0,0.1,0,0.1,0c6.1-0.8,11.4,1.9,15.6,8.1c4.6,6.7,8.1,17.4,10.9,32.7c1.9,10.6,1.2,12.9-0.6,13.3
					c-1.7,0.4-3.1-1.4-4.8-4.2c-1.4-2.2-3-5.4-4.8-9.4c-3.2-6.9-6.7-15.7-8.5-21.3c-2-6-4.7-13-8.3-16.1c-3.4,2.2-5.1,13-6.5,22.7
					c-1.9,13-4,26.5-10.6,29.8C53,145.8,51.8,146,50.9,146z M75,92.1c2.6,3.1,5,8.1,7.4,15.7c1.7,5.1,4.9,13.3,7.9,19.8
					c3.3,7.4,5.5,11,6.7,12.5c0-1.3-0.1-3.9-1.1-9.4C91.3,105.5,84.5,92.8,75,92.1z" style="fill:#FFC870;"></path>
			</g>
			<g>
				<path d="M52.8,106.6c0,0-3.4,1.8-1.7,2.9c1.7,1.1,3.6-0.4,3.6-0.4S55.5,106.4,52.8,106.6z" style="fill:#FFC870;"></path>
			</g>
			<g>
				<path d="M76.5,94.3c10.5,0,19.3,6.3,22.5,12.1c0.8-1.5,1.4-5.2,1.4-6.8c0-8.2-10.7-14.8-23.8-14.8
					s-24.8,6-24.8,14.2c0,1.7,1,4.1,0.9,6.2C55.8,99.3,66,94.3,76.5,94.3z" style="fill:#964242;"></path>
			</g>
			<g>
				<path d="M99.1,102.2c-3.2,6.4-12.1,11-22.6,11c-18.9,0-24.8-14-24.8-14l1.4,11.4c2.2,7.4,11.8,13,23.4,13
					c10.9,0,20.1-5,23-11.8l1-12.5L99.1,102.2z" style="fill:#BD3B3B;"></path>
			</g>
			<g>
				<path d="M76.1,86.8c12.2,0,22.5,5.6,22.5,12.2c0,6.6-10.3,12.2-22.5,12.2c-12.2,0-22.5-5.6-22.5-12.2
					C53.6,92.4,63.9,86.8,76.1,86.8 M76.1,84.8c-13.5,0-24.5,6.4-24.5,14.2c0,7.8,11,14.2,24.5,14.2c13.5,0,24.5-6.4,24.5-14.2
					C100.6,91.2,89.6,84.8,76.1,84.8L76.1,84.8z" style="fill:#FF5757;"></path>
			</g>
		</g>
		<g>
			<g>
				<path d="M59.6,120.5l-5.9-3.4c0,0,3.7,17.4,1.4,20.3c-1,1.3-2.4,2.6-3.7,3.4c0.2,0.4,0.5,0.8,0.9,1.1
					C72,158.8,63.7,131.9,59.6,120.5z" style="fill:#D94343;"></path>
			</g>
			<g>
				<g>
					<path d="M51.8,139.6c-0.9-2.5-0.8-6.9,0.3-12.8c0.5-2.4,1-4.7,1.5-6.4c1.9,10.3,1.6,15.5,0.9,16.5
						C53.7,138,52.7,139,51.8,139.6z" style="fill:#AB3535;"></path>
				</g>
				<g>
					<path d="M53.5,124.5c0.1,0.6,0.2,1.2,0.3,1.9c1.2,8.6,0.2,10,0.2,10.1c-0.5,0.6-1.1,1.2-1.6,1.8
						C51.6,134.8,52.4,129.2,53.5,124.5 M53.8,117.1c0,0-5.6,17.7-2.3,23.7c1.3-0.7,2.7-2.1,3.7-3.4
						C57.4,134.5,53.8,117.1,53.8,117.1L53.8,117.1z" style="fill:#E67E7E;"></path>
				</g>
			</g>
		</g>
	</g>
	<g>
		<g>
			<path d="M199.3,222.1h-1.8c-4.5,0-8.2-3.7-8.2-8.2v0c0-4.5,3.7-8.2,8.2-8.2h1.8c4.5,0,8.2,3.7,8.2,8.2v0
				C207.5,218.4,203.8,222.1,199.3,222.1z" style="fill:#143640;"></path>
		</g>
		<g>
			<path d="M199.8,215.5h-17.1c-6.5,0-11.7,4.4-11.7,9.8v6c0,2.7,2.7,5,5.9,5h28.7c3.3,0,5.9-2.2,5.9-5v-6
				C211.5,219.9,206.3,215.5,199.8,215.5z" style="fill:#757575;"></path>
		</g>
		<g>
			<path d="M203.4,206.7l-11.7,6.7c-2.9,1.7-6.6,0.7-8.3-2.2l-10.2-17.7c-3.5-6.1-1.4-14,4.7-17.5l0,0
				c6.1-3.5,14-1.4,17.5,4.7l10.2,17.7C207.3,201.3,206.3,205,203.4,206.7z" style="fill:#ABABAB;"></path>
		</g>
		<g>
			<path d="M185.1,171.4L185.1,171.4c-7.7-4.2-12.4-10.4-8.9-16.8l15.7-28.8c3.5-6.4,12.5-8.1,20.2-4l0,0
				c7.7,4.2,11.1,12.8,7.6,19.1l-15.7,28.8C200.6,176.1,192.8,175.6,185.1,171.4z" style="fill:#ABABAB;"></path>
		</g>
		<g>
			<path d="M176.9,181.6L176.9,181.6c-4.2-2.7-5.4-8.4-2.7-12.6l2-3.1c2.7-4.2,8.4-5.4,12.6-2.7l0,0
				c4.2,2.7,5.4,8.4,2.7,12.6l-2,3.1C186.8,183.1,181.1,184.3,176.9,181.6z" style="fill:#143640;"></path>
		</g>
	</g>
</g>
<g id="레이어_1">
</g>
</svg>
