<?xml version="1.0" encoding="utf-8"?>
<!-- Generator: Adobe Illustrator 24.1.1, SVG Export Plug-In . SVG Version: 6.00 Build 0)  -->
<svg version="1.1" id="Layer_1" xmlns="http://www.w3.org/2000/svg" xmlns:xlink="http://www.w3.org/1999/xlink" x="0px" y="0px"
	 viewBox="0 0 226.71 305" style="enable-background:new 0 0 226.71 305;" xml:space="preserve">
<g>
	<path style="fill:#FFFFFF;" d="M152.98,32.53c-2.53,1.1-4.68,2.76-6.04,5.07c-2.33,3.96-3.36,10.97-1.05,15.1
		c0.8,1.44,2.5,0.27,4.54-0.22c2.41-0.58,1.56-2.77,3.19-5.02c2.34-3.22,5.23-0.28,9.88,2.6c3.75,2.33,8.85,1.34,11.39-2.22
		c2.54-3.56,1.6-8.32-2.13-10.68C165.57,32.62,160.77,29.14,152.98,32.53z"/>
	<path d="M142.42,54.63c1.02,1.86,2.91,2.86,5.06,2.71c1.02-0.07,1.93-0.36,2.74-0.65c0.36-0.12,0.75-0.25,1.14-0.34
		c3.69-0.88,4.52-3.82,4.92-5.21c0.11-0.31,0.19-0.58,0.28-0.78c0.69,0.35,1.66,1.02,2.43,1.53c0.35,0.24,0.73,0.48,1.11,0.72
		c0.42,0.27,0.87,0.54,1.32,0.84c2.22,1.38,4.78,2,7.42,1.82c3.76-0.25,7.16-2.11,9.28-5.11c1.88-2.62,2.56-5.75,1.96-8.86
		c-0.61-3.08-2.44-5.74-5.18-7.48l-0.52-0.33l-0.52-0.36c-5.34-3.39-9.95-6.3-15.99-5.89c-2.11,0.14-4.23,0.68-6.46,1.66
		c-3.51,1.53-6.18,3.77-7.88,6.67C140.55,40.62,139.33,49.13,142.42,54.63z M146.94,37.6c1.37-2.32,3.51-3.95,6.03-5.05
		c1.87-0.82,3.53-1.23,5.15-1.34c2.87-0.19,5.45,0.66,8.17,2.04c2.03,1.06,4.11,2.44,6.47,3.94c3.74,2.33,4.66,7.12,2.15,10.67
		c-1.52,2.09-3.89,3.28-6.34,3.45c-1.75,0.12-3.53-0.26-5.06-1.25c-1.59-0.99-2.95-1.96-4.2-2.74l-0.03,0
		c-1.32-0.81-2.45-1.33-3.47-1.26c-0.79,0.05-1.53,0.47-2.19,1.41c-1.64,2.23-0.76,4.43-3.18,5.03c-1.24,0.28-2.37,0.82-3.22,0.88
		c-0.56,0.04-1-0.1-1.34-0.67C143.57,48.58,144.59,41.58,146.94,37.6z"/>
	<path style="fill:#683100;" d="M159.31,47.32c1.25,0.78,2.61,1.75,4.2,2.74c1.53,0.99,3.31,1.37,5.06,1.25
		c2.44-0.17,4.82-1.35,6.34-3.45c2.51-3.55,1.59-8.34-2.15-10.67c-2.36-1.5-4.44-2.88-6.47-3.94c-0.29,0.09-0.89,0.13-1.8,0.82
		c-0.03,0-0.03,0-0.03,0.04c-1.17,0.91-1.86,2.41-1.18,3.7c0.34,0.64,0.97,1.1,1.65,1.38c-0.78-0.18-1.6-0.16-2.34,0.22
		c-1.6,0.81-2.28,2.64-1.44,4.18c0.38,0.74,1.08,1.25,1.89,1.5c-0.63-0.06-1.26-0.01-1.87,0.29
		C160.24,45.83,159.04,46.67,159.31,47.32z"/>
</g>
<g>
	<path style="fill:#FFFFFF;" d="M107.03,39.94c3.2,0.2,6.22,1.2,8.68,3.29c4.22,3.59,7.5,8.08,6.82,13.83
		c-0.24,2-3.38,3.95-5.77,4.25c-2.84,0.35-2.79-1.74-5.52-3.65c-3.91-2.73-5.73,1.89-9.47,7.19c-3.01,4.29-8.91,5.31-13.18,2.27
		c-4.27-3.03-5.32-8.94-2.35-13.24C91.98,45.57,97.2,39.32,107.03,39.94z"/>
	<path d="M102.74,63.43c0.84-1.18,1.8-2.57,2.16-3.11c0.08-0.09,0.12-0.2,0.15-0.31C104.33,60.99,103.59,62.18,102.74,63.43z
		 M97.13,68.3c0.26-0.09,0.53-0.17,0.78-0.28C97.66,68.13,97.39,68.21,97.13,68.3z M97.92,68.02c0.51-0.23,1-0.49,1.47-0.82
		C98.92,67.53,98.43,67.79,97.92,68.02z M94.44,68.84c-0.66,0.03-1.33,0-1.98-0.11C93.12,68.84,93.78,68.87,94.44,68.84z
		 M96.5,68.53c0.21-0.06,0.42-0.15,0.63-0.23c-0.25,0.09-0.51,0.18-0.77,0.25C96.41,68.54,96.46,68.54,96.5,68.53z M96.37,68.55
		c-0.53,0.13-1.08,0.21-1.62,0.26C95.29,68.76,95.83,68.69,96.37,68.55z M94.74,68.81c-0.1,0.01-0.2,0.03-0.3,0.04
		C94.54,68.84,94.64,68.81,94.74,68.81z"/>
	<path d="M118.28,40.22c-2.97-2.54-6.67-3.97-11.01-4.23c-2.51-0.18-4.93,0.07-7.16,0.67C92.42,38.74,87.6,44.92,83,51.63
		c-4.2,6.05-2.72,14.45,3.28,18.71c3.3,2.35,7.38,3.06,11.26,2.01c2.99-0.81,5.66-2.66,7.46-5.22c0.69-0.97,1.32-1.93,1.91-2.8
		c0.72-1.12,1.64-2.52,2.3-3.25c0.48,0.38,0.82,0.77,1.22,1.24c1.1,1.27,2.93,3.41,6.83,2.93c0.46-0.06,0.95-0.15,1.46-0.29
		c3.4-0.92,7.28-3.64,7.76-7.42C127.21,51.29,124.44,45.46,118.28,40.22z M122.52,57.06c-0.21,1.76-2.64,3.48-4.84,4.07
		c-0.32,0.09-0.64,0.14-0.94,0.19c-2.84,0.36-2.79-1.74-5.5-3.67c-1.09-0.76-2.02-0.92-2.85-0.7c-1.18,0.32-2.23,1.46-3.34,3.05
		c-0.04,0.11-0.08,0.23-0.15,0.31c-0.37,0.54-1.32,1.93-2.16,3.11c-0.37,0.54-0.71,1.04-0.98,1.43c-0.67,0.93-1.48,1.73-2.37,2.35
		c-2.01,1.4-4.53,1.94-6.92,1.53c-1.03-0.16-2.02-0.51-2.98-1.04c-0.28-0.16-0.61-0.35-0.91-0.57c-4.26-3.01-5.32-8.94-2.34-13.22
		c0.08-0.09,0.15-0.21,0.24-0.37c1.77-2.53,3.47-4.86,5.29-6.82c2.74-2.99,5.69-5.22,9.38-6.22c1.78-0.48,3.7-0.69,5.9-0.53
		c3.19,0.2,6.19,1.19,8.67,3.29C119.92,46.81,123.22,51.31,122.52,57.06z"/>
	<path style="fill:#683100;" d="M105.06,60.01c-0.04,0.11-0.08,0.23-0.15,0.31c-0.37,0.54-1.32,1.93-2.16,3.11
		c-0.37,0.54-0.71,1.04-0.98,1.43c-0.67,0.93-1.48,1.73-2.37,2.35c-0.47,0.32-0.96,0.59-1.47,0.82c-0.25,0.11-0.52,0.19-0.78,0.28
		c-0.21,0.07-0.41,0.17-0.63,0.23c-0.04,0.01-0.09,0.01-0.14,0.02c-0.53,0.14-1.08,0.22-1.62,0.26c-0.1,0.01-0.2,0.03-0.3,0.04
		c-0.66,0.03-1.32,0-1.98-0.11c-1.03-0.16-2.02-0.51-2.98-1.04c-0.28-0.16-0.61-0.35-0.91-0.57c-4.26-3.01-5.32-8.94-2.34-13.22
		c0.08-0.09,0.15-0.21,0.24-0.37c1.77-2.53,3.47-4.86,5.29-6.82c0.33-0.05,0.84-0.19,0.98-0.16c2.11,0.22,4.17,1.91,3.95,4.02
		c-0.13,0.92-0.56,1.72-1.19,2.3c0.71-0.53,1.62-0.81,2.6-0.74c2.08,0.26,3.58,2.14,3.36,4.21c-0.09,1.05-0.63,1.95-1.36,2.55
		c0.63-0.31,1.36-0.54,2.09-0.46C103.5,58.55,105.25,59.1,105.06,60.01z"/>
</g>
<g>
	<path style="fill:#FFFFFF;" d="M176.25,184.38c-0.23-7.29,1.26-14.18,2.75-21.59c0.66-3.27,3.26-15.13-3.86-13.74
		c-2.58,0.5-4.32,4.01-5.56,6.03c-2.7,4.39-4.71,9.12-6.02,14.01c-1.47,5.47-2.05,11.09-1.95,16.69
		C165.41,184.74,170.59,183.92,176.25,184.38z"/>
	<path style="fill:#0088C5;" d="M183.79,208.67c-0.05-0.08-0.1-0.16-0.15-0.24c-1.28-2.06-2.35-4.05-3.26-6.05
		c-1.3-2.85-2.26-5.72-2.96-8.82c-0.34-1.53-0.62-3.11-0.84-4.78c-0.2-1.49-0.29-2.95-0.34-4.41c-5.66-0.45-10.84,0.37-14.63,1.39
		c0.05,2.71,0.25,5.41,0.61,8.09c1.03,7.64,2.75,16.33,6.94,23c2.04,3.25,5.8,5.44,9.93,5.15c0.86-0.06,1.69-0.21,2.41-0.41
		c2.63-0.75,4.99-2.57,5.45-5.21c0.09-0.52,0.07-1.02,0.01-1.51C186.69,212.59,184.99,210.63,183.79,208.67z"/>
	<path d="M176.23,148.94c5.75,0,3.39,10.76,2.77,13.85c-1.49,7.41-2.98,14.3-2.75,21.59c0.05,1.45,0.14,2.92,0.34,4.41
		c0.22,1.67,0.5,3.26,0.84,4.78c0.7,3.1,1.66,5.97,2.96,8.82c0.91,2,1.97,3.99,3.26,6.05c0.05,0.08,0.1,0.16,0.15,0.24
		c1.2,1.96,2.9,3.92,3.18,6.21c0.06,0.49,0.08,0.99-0.01,1.51c-0.46,2.64-2.82,4.45-5.45,5.21c-0.72,0.21-1.55,0.35-2.41,0.41
		c-0.25,0.02-0.5,0.03-0.75,0.03c-3.83,0-7.27-2.12-9.18-5.17c-4.19-6.68-5.91-15.37-6.94-23c-0.36-2.68-0.56-5.38-0.61-8.09
		c-0.1-5.6,0.48-11.21,1.94-16.69c1.31-4.89,3.32-9.62,6.02-14.01c1.24-2.02,2.98-5.52,5.56-6.03
		C175.53,148.97,175.89,148.94,176.23,148.94 M176.23,144.98c-0.59,0-1.22,0.06-1.85,0.19c-3.99,0.78-6.23,4.56-7.7,7.06l-0.46,0.77
		c-2.86,4.66-5.04,9.72-6.47,15.05c-1.5,5.58-2.19,11.57-2.08,17.79c0.05,2.89,0.27,5.77,0.64,8.54c1.01,7.48,2.78,17.04,7.51,24.58
		c2.72,4.33,7.52,7.02,12.53,7.02c0.34,0,0.68-0.01,1.03-0.04c1.11-0.08,2.22-0.27,3.21-0.55c4.42-1.26,7.58-4.45,8.26-8.33
		c0.15-0.85,0.16-1.72,0.04-2.68c-0.33-2.69-1.77-4.84-2.93-6.56c-0.28-0.41-0.55-0.82-0.81-1.23l-0.16-0.26
		c-1.16-1.86-2.15-3.69-3.02-5.6c-1.18-2.59-2.06-5.22-2.7-8.04c-0.32-1.4-0.57-2.86-0.78-4.44c-0.16-1.17-0.25-2.45-0.3-4.01
		c-0.2-6.43,1.07-12.76,2.43-19.46l0.25-1.22l0.06-0.29c1.15-5.7,1.93-12.02-1.09-15.71C180.47,145.9,178.48,144.98,176.23,144.98
		L176.23,144.98z"/>
</g>
<g>
	<path style="fill-rule:evenodd;clip-rule:evenodd;fill:#009FF8;" d="M89.91,238.73v0.03c-0.33,0.4-0.69,0.76-1.05,1.12
		c-0.4,0.46-0.79,0.89-1.22,1.28c-2.34,2.41-4.91,4.74-7.68,6.99c-0.1,0.07-0.16,0.13-0.23,0.23c-0.66,0.72-0.66,1.78,0,2.5
		c0.03,0.1,0.13,0.16,0.2,0.23c1.32,1.05,2.97,3,4.15,6.39c0.16,0.49,0.33,0.99,0.49,1.55c0.03,0.07,0.1,0.3,0.1,0.3
		c1.42,5.57,0.26,11.6-3.13,16.24c-0.59,0.82-1.48,1.68-2.47,2.44c-0.66,0.49-1.42,0.96-2.17,1.32c-1.15,0.53-2.34,0.89-3.49,0.89
		c-0.4,0-0.82-0.07-1.22-0.16c-4.78-1.22-6.59-6.19-8.57-10.08L57,256.85l-2.17-4.28c-0.16-0.33-0.3-0.69-0.36-1.05
		c-0.33-1.42-0.03-2.93,0.79-4.09c0.16-0.3,0.43-0.56,0.69-0.79c0.16-0.16,0.36-0.3,0.56-0.46c0.16-0.13,0.33-0.23,0.53-0.33
		l9.36-4.71c0.03,0,0.03-0.03,0.07-0.03c1.68-1.25,3.76-2.83,5.83-4.51c0.72-0.56,1.42-1.15,2.11-1.75
		c0.43-0.33,0.82-0.66,1.22-0.99c0.96-0.86,1.91-1.68,2.77-2.5c0.53-0.53,1.05-1.05,1.58-1.55L89.91,238.73z"/>
	<path style="fill:#FFFFFF;" d="M93.08,234.94l-1.45,1.88l-0.82,0.96l-0.89,0.96l-9.95-8.93c0.56-0.63,1.09-1.22,1.55-1.78
		c7.12-8.7,10.74-18.22,10.74-28.34c0-0.89-0.03-1.78-0.1-2.67c-0.13-2.5,0.96-4.71,2.97-6.06c1.22-0.79,2.67-1.22,4.09-1.22
		c1.05,0,2.11,0.23,3.03,0.69c2.01,1.02,3.26,2.97,3.39,5.34C106.52,209.93,102.24,223.11,93.08,234.94z"/>
	<path d="M109.58,195.5c-0.23-3.76-2.31-6.99-5.57-8.6c-1.48-0.72-3.13-1.12-4.81-1.12c-2.24,0-4.42,0.66-6.26,1.88
		c-3.2,2.11-4.98,5.7-4.71,9.59c0.63,10.08-2.67,19.6-9.79,28.27c-2.31,2.83-7.31,7.18-14.1,12.22l-9.09,4.58
		c-2.14,1.09-3.72,2.93-4.45,5.21c-0.76,2.27-0.59,4.68,0.49,6.82l2.17,4.28l6.62,13.15c0.23,0.43,0.46,0.92,0.69,1.38
		c1.88,3.89,4.45,9.23,10.44,10.77c0.69,0.16,1.42,0.26,2.17,0.26c4.42,0,9.03-3.16,11.33-6.26c4.09-5.57,5.47-12.88,3.76-19.57
		l-0.07-0.26c-1.12-3.95-2.73-6.59-4.22-8.34c2.93-2.47,5.63-5.07,8.11-7.81c0.26-0.16,2.34-2.6,2.34-2.6s1.94-2.41,2.08-2.73
		C106.19,224.16,110.51,210.32,109.58,195.5z M93.08,234.94l-1.45,1.88l-0.82,0.96l-0.89,0.96v0.03c-0.33,0.4-0.69,0.76-1.05,1.12
		c-0.4,0.46-0.79,0.89-1.22,1.28c-2.34,2.41-4.91,4.74-7.68,6.99c-0.1,0.07-0.16,0.13-0.23,0.23c-0.66,0.72-0.66,1.78,0,2.5
		c0.03,0.1,0.13,0.16,0.2,0.23c1.32,1.05,2.97,3,4.15,6.39c0.16,0.49,0.33,0.99,0.49,1.55c0.03,0.07,0.1,0.3,0.1,0.3
		c1.42,5.57,0.26,11.6-3.13,16.24c-0.59,0.82-1.48,1.68-2.47,2.44c-0.66,0.49-1.42,0.96-2.17,1.32c-1.15,0.53-2.34,0.89-3.49,0.89
		c-0.4,0-0.82-0.07-1.22-0.16c-4.78-1.22-6.59-6.19-8.57-10.08L57,256.85l-2.17-4.28c-0.16-0.33-0.3-0.69-0.36-1.05
		c-0.4-1.42-0.1-2.93,0.79-4.09c0.16-0.3,0.43-0.56,0.69-0.79c0.16-0.2,0.36-0.33,0.56-0.46c0.16-0.13,0.33-0.23,0.53-0.33
		l9.36-4.71c0.03,0,0.03-0.03,0.07-0.03c1.68-1.25,3.76-2.83,5.83-4.51c0.72-0.56,1.42-1.15,2.11-1.75
		c0.43-0.33,0.82-0.66,1.22-0.99c0.96-0.86,1.91-1.68,2.77-2.5c0.53-0.53,1.05-1.05,1.58-1.55c0.56-0.63,1.09-1.22,1.55-1.78
		c7.12-8.7,10.74-18.22,10.74-28.34c0-0.89-0.03-1.78-0.1-2.67c-0.13-2.5,0.96-4.71,2.97-6.06c1.22-0.79,2.67-1.22,4.09-1.22
		c1.05,0,2.11,0.23,3.03,0.69c2.01,1.02,3.26,2.97,3.39,5.34C106.52,209.93,102.24,223.11,93.08,234.94z"/>
</g>
<g>
	<path style="fill:#00A0F4;" d="M161.94,234.15c-1.71,4.22-8.27,6.13-14.7,9.46c2.5,0.63,5.27,1.91,7.18,4.51
		c3.1,4.12,3.03,9.82,2.27,12.09c-0.86,2.7-3.72,6.36-6.75,6.56c-7.05,0.49-13.94-5.93-18.25-10.68
		c-3.03-3.29-10.68-9.06-5.67-14.07c0-0.03,8.47-6.23,8.47-6.23l0.07,0.07c2.24-1.48,4.81-3,7.38-4.38
		c6.75-3.66,13.74-6.52,15.98-6.16c3.33,0.56,4.22,3.1,4.32,5.34C162.37,232.53,161.94,234.15,161.94,234.15z"/>
	<path style="fill:#FFFFFF;" d="M162.24,230.65c-0.1-2.24-0.99-4.78-4.32-5.34c-2.24-0.36-9.23,2.5-15.98,6.16
		c-2.27-1.02-4.42-2.14-5.83-3.13c-3.33-2.31-6-5.8-1.48-10.15c6.23-4.38,9.13-0.49,16.8,3.13
		C156.57,223.73,162.99,226.04,162.24,230.65z"/>
	<path d="M139.79,216.26c3.37,0,6.4,2.59,11.63,5.06c5.13,2.42,11.52,4.71,10.82,9.27c0.12,1.89-0.32,3.56-0.32,3.56
		c-1.71,4.22-8.25,6.11-14.69,9.44c2.49,0.64,5.27,1.92,7.19,4.51c3.08,4.14,3.01,9.85,2.28,12.12c-0.87,2.68-3.73,6.33-6.77,6.54
		c-0.26,0.02-0.51,0.03-0.77,0.03c-6.79,0-13.31-6.12-17.48-10.69c-3.03-3.32-10.67-9.07-5.66-14.1c0,0,8.47-6.21,8.47-6.21
		l0.06,0.06c2.25-1.48,4.8-2.98,7.38-4.37c-2.26-1.04-4.42-2.14-5.82-3.12c-3.33-2.32-6.02-5.81-1.5-10.16
		C136.59,216.81,138.23,216.26,139.79,216.26 M139.79,212.3c-2.46,0-4.9,0.87-7.44,2.66c-0.17,0.12-0.32,0.25-0.47,0.39
		c-2.59,2.5-3.8,5.21-3.57,8.05c0.24,3.04,2.11,5.8,5.55,8.2c0,0,0,0,0,0c-0.28,0.17-0.55,0.35-0.81,0.52
		c-0.31,0.12-0.61,0.28-0.88,0.48c-8.67,6.36-8.67,6.36-8.86,6.54c-2.4,2.41-2.89,4.87-2.88,6.52c0.02,4.81,3.96,8.71,6.84,11.55
		c0.57,0.56,1.09,1.08,1.51,1.54c7.35,8.06,14.03,11.98,20.4,11.98c0.35,0,0.69-0.01,1.04-0.04c5.41-0.37,9.16-5.88,10.26-9.27
		c1.04-3.19,1.17-10.27-2.86-15.7c-0.5-0.68-1.07-1.31-1.69-1.89c4.29-2.05,8.08-4.27,9.67-8.21c0.06-0.16,0.12-0.32,0.16-0.48
		c0.06-0.22,0.53-2.12,0.46-4.4c0.71-6.7-6.26-9.88-11.38-12.21c-0.58-0.27-1.16-0.53-1.73-0.8c-1.59-0.75-2.96-1.51-4.28-2.25
		C145.75,213.78,143.09,212.3,139.79,212.3L139.79,212.3z"/>
</g>
<g>
	<path d="M146.28,48.54c3.33,0,6.62,0.32,9.81,1c0,0,0.1,0.02,0.24,0.05l4.24,0.9c13.2,2.75,25.44,11.91,34.05,22.36
		c6.7,8.13,9.38,20.03,9.54,30.42c0.01,0.63-0.03,1.23-0.04,1.86c0.05,1.07,0.08,2.14,0.08,3.19c-0.04,12.56-5.03,22.04-11.62,32.57
		c-1.43,2.28-10.03,12.98-10.28,13.54c-3.41,6.26-2.36,15.45-3.35,22.32c-1.84,12.78-5.22,25.54-13.75,35.6
		c-7.95,9.38-18.84,12.72-30.19,12.72c-5.24,0-10.58-0.71-15.78-1.87c-1.97-0.44-3.93-0.96-5.86-1.56
		c-0.08-0.02-0.15-0.05-0.23-0.07l-3.93-1.22c-1.93-0.6-3.92-1.3-5.79-2.05c-12.89-5.19-25.98-14.65-31.01-28.12
		c-3.64-9.74-2.02-23.62,1.54-33.27c2.78-7.53,7.33-14.25,10.99-21.35c1.43-2.78,3.39-5.33,4.04-8.39c0.14-0.64,0.23-1.29,0.32-1.94
		c-0.08-1.49-0.69-12.72-0.46-16.87c-0.07-9.64,1.94-19.12,6.06-28.1c4.34-9.44,11.59-19.25,21.01-23.98
		C125.09,51.63,135.86,48.54,146.28,48.54 M146.28,44.59c-10.31,0-21.73,2.88-32.14,8.12c-9.05,4.55-17.36,13.98-22.82,25.87
		c-4.32,9.42-6.49,19.39-6.43,29.66c-0.18,3.48,0.14,11.01,0.44,16.79c-0.07,0.46-0.13,0.88-0.22,1.29
		c-0.33,1.55-1.27,3.15-2.26,4.85c-0.49,0.85-0.99,1.69-1.43,2.56c-1.17,2.27-2.48,4.58-3.75,6.81c-2.69,4.74-5.47,9.64-7.44,14.98
		c-3.71,10.05-5.62,25.08-1.53,36.02c4.76,12.73,16.88,23.81,33.24,30.4c1.92,0.77,4.03,1.52,6.1,2.16l3.93,1.22l0.21,0.07
		c2.05,0.64,4.13,1.19,6.18,1.65c5.85,1.31,11.45,1.97,16.64,1.97c14.09,0,25.26-4.75,33.2-14.12c9.87-11.64,13.02-26.2,14.65-37.59
		c0.34-2.38,0.46-4.97,0.57-7.48c0.22-4.89,0.44-9.94,2.28-13.4c0.4-0.56,1.94-2.54,3.31-4.29c3.5-4.49,6.05-7.77,6.91-9.16
		c6.42-10.24,12.18-20.6,12.23-34.65c0-1.07-0.03-2.15-0.07-3.25l0.01-0.58c0.01-0.43,0.03-0.85,0.02-1.29
		c-0.2-13.08-4-25.07-10.44-32.88c-10.21-12.39-23.44-21.04-36.29-23.71l-4.22-0.89l-0.32-0.06
		C153.55,44.95,149.97,44.59,146.28,44.59L146.28,44.59z"/>
	<path style="fill:#009FF9;" d="M204.12,105.12c0.01-0.62,0.04-1.23,0.04-1.86c-0.15-10.39-2.83-22.29-9.54-30.42
		c-8.61-10.45-20.85-19.61-34.05-22.36l-4.24-0.9c-0.14-0.03-0.24-0.05-0.24-0.05c-13.19-2.81-28.08,0.62-40.18,6.7
		c-9.42,4.74-16.67,14.54-21.01,23.98c-4.12,8.98-6.14,18.46-6.06,28.1c-0.24,4.15,0.38,15.38,0.46,16.87
		c-0.09,0.65-0.18,1.3-0.32,1.94c-0.65,3.06-2.61,5.62-4.04,8.39c-3.66,7.1-8.21,13.82-10.99,21.35
		c-3.56,9.64-5.18,23.52-1.54,33.27c5.04,13.47,18.12,22.93,31.01,28.12c1.88,0.76,3.86,1.45,5.79,2.06l3.93,1.22
		c0.08,0.02,0.15,0.05,0.23,0.07c1.93,0.6,3.89,1.12,5.86,1.56c16.45,3.68,34.34,2.86,45.97-10.85
		c8.53-10.06,11.92-22.82,13.75-35.6c0.99-6.87-0.07-16.06,3.35-22.32c0.25-0.56,8.85-11.26,10.28-13.54
		c6.6-10.53,11.58-20,11.62-32.57C204.2,107.26,204.17,106.19,204.12,105.12z"/>
</g>
<path style="fill:#009FF8;" d="M151.63,51.28c0,0-0.1,0-0.25,0L151.63,51.28z"/>
<g>
	<g>
		<path style="fill-rule:evenodd;clip-rule:evenodd;" d="M219.07,101.56c-2.64-12.45-11.53-16.38-14.96-17.43
			c-1.42-6.16-9.42-31.6-44.41-31.6c-3.56,0-7.41,0.3-11.57,0.86c-14.37,2.01-25.14,7.81-32.09,17.3
			c-11.14,15.22-8.86,34.83-7.91,40.49c4.12,24.02,20.2,35.85,48.99,35.85c6.06,0,12.69-0.53,19.87-1.55
			c16.97-2.47,30.68-9.62,37.66-19.6C219.53,118.86,221.02,110.69,219.07,101.56z M112.06,110.49c-0.66-3.72-3.33-23.13,7.18-37.46
			c6.26-8.6,16.18-13.87,29.46-15.72c45.63-6.33,51.53,27.28,51.76,28.73c0.13,0.82,0.79,1.45,1.58,1.61
			c0.43,0.1,10.51,2.21,13.18,14.73c1.71,8.01,0.43,15.12-3.82,21.22c-6.26,8.96-19.31,15.68-34.96,17.96
			C137.62,147.19,116.57,137.05,112.06,110.49z"/>
		<path style="fill-rule:evenodd;clip-rule:evenodd;fill:#FFFFFF;" d="M211.4,123.6c-6.26,8.96-19.31,15.68-34.96,17.96
			c-38.81,5.63-59.87-4.51-64.38-31.07c-0.66-3.72-3.33-23.13,7.18-37.46c6.26-8.6,16.18-13.87,29.46-15.72
			c45.63-6.33,51.53,27.28,51.76,28.73c0.13,0.82,0.79,1.45,1.58,1.61c0.43,0.1,10.51,2.21,13.18,14.73
			C216.93,110.39,215.65,117.51,211.4,123.6z"/>
	</g>
	<path style="fill-rule:evenodd;clip-rule:evenodd;fill:#FFBEB8;" d="M169.84,110.07c0.76,8.04-4.81,15.14-12.44,15.87
		s-14.43-5.21-15.2-13.25c-0.76-8.03,4.81-15.14,12.44-15.86C162.27,96.1,169.08,102.03,169.84,110.07"/>
	<path style="fill-rule:evenodd;clip-rule:evenodd;fill:#FFBEB8;" d="M214.34,100.53c-0.88-2.69-4.77-11.62-9-8.02
		c-5.7,4.86-2.12,15.96,1.26,21.36c1.33,2.13,3.63,4.56,6.56,3.79c1.65-0.43,2.05-3.64,2.19-4.75
		C215.89,108.79,215.65,104.5,214.34,100.53z"/>
</g>
<g>
	<path style="fill:#FFFFFF;" d="M71.32,152.86c5.33-4.97,11.51-8.38,18.07-12.14c2.9-1.66,13.54-7.5,7.81-11.95
		c-2.08-1.61-5.86-0.61-8.19-0.22c-5.08,0.86-9.96,2.46-14.5,4.68c-5.09,2.5-9.7,5.75-13.85,9.51
		C63.91,144.94,67.94,148.3,71.32,152.86z"/>
	<path style="fill:#0088C5;" d="M57.99,174.52c0.03-0.09,0.05-0.18,0.08-0.26c0.71-2.32,1.51-4.43,2.41-6.43
		c1.29-2.86,2.82-5.46,4.69-8.03c0.93-1.26,1.94-2.52,3.05-3.78c0.99-1.13,2.03-2.16,3.1-3.15c-3.38-4.56-7.41-7.92-10.67-10.11
		c-2.01,1.82-3.91,3.75-5.69,5.78c-5.07,5.8-10.49,12.81-12.76,20.36c-1.1,3.68-0.28,7.95,2.66,10.86c0.61,0.61,1.27,1.14,1.9,1.54
		c2.3,1.49,5.22,2.07,7.51,0.68c0.45-0.28,0.82-0.62,1.15-0.99C56.94,179.29,57.3,176.72,57.99,174.52z"/>
	<path d="M93.95,127.89c1.22,0,2.38,0.22,3.24,0.89c5.73,4.45-4.91,10.29-7.81,11.95c-6.56,3.75-12.73,7.17-18.07,12.14
		c-1.06,0.99-2.11,2.02-3.1,3.15c-1.11,1.27-2.12,2.52-3.05,3.78c-1.88,2.56-3.4,5.17-4.69,8.03c-0.9,2-1.7,4.11-2.41,6.43
		c-0.03,0.09-0.05,0.18-0.08,0.26c-0.68,2.19-1.04,4.76-2.58,6.48c-0.33,0.37-0.69,0.71-1.15,0.99c-0.9,0.55-1.9,0.79-2.93,0.79
		c-1.57,0-3.19-0.57-4.58-1.47c-0.63-0.41-1.28-0.94-1.9-1.54c-2.94-2.91-3.76-7.19-2.66-10.86c2.27-7.55,7.68-14.56,12.76-20.36
		c1.78-2.04,3.69-3.96,5.69-5.78c4.15-3.76,8.76-7.02,13.85-9.52c4.54-2.23,9.43-3.83,14.51-4.68
		C90.36,128.33,92.22,127.89,93.95,127.89 M93.95,123.94c-1.72,0-3.38,0.31-4.72,0.56l-0.88,0.16c-5.39,0.91-10.64,2.6-15.59,5.03
		c-5.19,2.55-10.16,5.96-14.76,10.14c-2.14,1.94-4.17,4-6.01,6.11c-4.97,5.68-11,13.3-13.57,21.83c-1.6,5.32-0.19,10.99,3.66,14.81
		c0.79,0.78,1.67,1.49,2.53,2.05c2.1,1.36,4.49,2.1,6.73,2.1c1.81,0,3.49-0.46,4.98-1.36c0.73-0.45,1.4-1.01,2.04-1.73
		c1.81-2.02,2.48-4.52,3.01-6.52c0.13-0.48,0.25-0.96,0.4-1.42l0.09-0.29c0.64-2.1,1.37-4.05,2.23-5.96
		c1.17-2.59,2.57-4.99,4.28-7.32c0.85-1.16,1.78-2.31,2.83-3.51c0.78-0.89,1.68-1.8,2.82-2.87c4.71-4.38,10.32-7.59,16.25-10.98
		l1.08-0.62l0.25-0.15c5.34-3.04,10.84-6.83,11.19-11.85c0.1-1.43-0.18-4.17-3.18-6.51C98.14,124.52,96.24,123.94,93.95,123.94
		L93.95,123.94z"/>
</g>
<g>
	<path style="fill-rule:evenodd;clip-rule:evenodd;" d="M193.07,101.06c0.1,1.05-0.93,2-2.31,2.13c-1.38,0.13-2.58-0.61-2.68-1.66
		c-0.1-1.04,0.93-2,2.32-2.13C191.79,99.27,192.97,100.02,193.07,101.06"/>
	<path style="fill-rule:evenodd;clip-rule:evenodd;" d="M196.39,98.46L196.39,98.46c-1.43,0.14-2.73-1.16-2.9-2.9l-0.04-0.44
		c-0.16-1.74,0.86-3.26,2.3-3.39c1.43-0.14,2.73,1.16,2.9,2.9l0.04,0.44C198.85,96.81,197.82,98.33,196.39,98.46"/>
	<path style="fill-rule:evenodd;clip-rule:evenodd;" d="M174.16,100.57L174.16,100.57c-1.69,0.16-3.19-1.12-3.35-2.85l-0.04-0.44
		c-0.16-1.74,1.07-3.28,2.76-3.44c1.69-0.16,3.19,1.12,3.35,2.86l0.04,0.44C177.08,98.87,175.84,100.41,174.16,100.57"/>
	<path style="fill:#231815;" d="M202.07,104.45c-0.52-0.74-1.56-0.92-2.3-0.39c-0.74,0.53-0.91,1.56-0.39,2.3
		c0.07,0.1,0.21,0.3-0.3,1.01c-1.05,1.45-2.59,1.72-3.41,1.75c-1.63,0.04-3.11-0.59-4.02-1.68c-0.07-0.08-0.17-0.13-0.25-0.2
		c-0.06-0.05-0.11-0.12-0.18-0.16c-0.01-0.01-0.03-0.01-0.04-0.01c-0.12-0.07-0.25-0.1-0.38-0.13c-0.08-0.02-0.15-0.06-0.23-0.07
		c-0.12-0.01-0.23,0.01-0.35,0.02c-0.09,0.01-0.19,0-0.28,0.03c-0.09,0.03-0.17,0.08-0.26,0.13c-0.11,0.05-0.22,0.09-0.31,0.17
		c-0.01,0.01-0.03,0.01-0.04,0.02c-0.08,0.07-0.12,0.15-0.19,0.23c-0.06,0.07-0.13,0.12-0.18,0.2c-2.1,3.6-8.52,4.87-12.71,2.52
		c-0.98-0.55-1.55-1.04-1.8-1.33c0.26-0.66,0.07-1.43-0.51-1.89c-0.71-0.56-1.75-0.44-2.31,0.27c-0.49,0.61-0.67,1.37-0.52,2.13
		c0.25,1.26,1.44,2.5,3.53,3.68c1.98,1.11,4.25,1.63,6.51,1.63c3.64,0,7.22-1.37,9.47-3.8c1.38,0.97,3.08,1.53,4.85,1.53
		c0.11,0,0.22,0,0.32-0.01c2.43-0.09,4.6-1.23,5.97-3.12C203.4,107.01,202.66,105.28,202.07,104.45z"/>
</g>
</svg>
