<svg xmlns="http://www.w3.org/2000/svg" viewBox="0 0 275 280"><defs><style>.cls-1{fill:#ada187;}.cls-1,.cls-11,.cls-12,.cls-2,.cls-3,.cls-4,.cls-5,.cls-6,.cls-7,.cls-8,.cls-9{stroke:#000;stroke-linecap:round;stroke-linejoin:round;}.cls-1,.cls-11,.cls-12,.cls-2,.cls-3,.cls-4,.cls-5,.cls-6{stroke-width:2px;}.cls-2{fill:#c9bb9d;}.cls-3{fill:#ffda8c;}.cls-4,.cls-7{fill:#ed8237;}.cls-5,.cls-8{fill:#bf592a;}.cls-6{fill:#fff;}.cls-7,.cls-8,.cls-9{stroke-width:1.5px;}.cls-12,.cls-9{fill:#adffff;}.cls-10{fill:azure;}.cls-11{fill:none;}</style></defs><g id="레이어_3" data-name="레이어 3"><polygon class="cls-1" points="268.35 215.36 6.65 215.36 5.37 207.61 269.63 207.61 268.35 215.36"/><polygon class="cls-2" points="240.89 113.91 32.27 113.91 5.37 207.61 269.63 207.61 240.89 113.91"/><rect class="cls-3" x="25.81" y="102.51" width="75.09" height="86.31"/><rect class="cls-3" x="174.26" y="102.51" width="75.09" height="86.31"/><polygon class="cls-4" points="241.1 56.38 35.93 56.38 19.36 95.72 255.63 95.72 241.1 56.38"/><rect class="cls-5" x="19.36" y="95.71" width="236.27" height="10.36"/><polygon class="cls-3" points="180.09 191.75 94.16 191.75 94.16 82.05 137.02 46.28 180.09 82.05 180.09 191.75"/><polygon class="cls-5" points="137.12 42.83 137.13 42.65 137.02 42.74 136.91 42.65 136.91 42.83 81.34 89.72 94.16 89.72 137.02 53.95 179.87 89.72 192.69 89.72 137.12 42.83"/><polygon class="cls-4" points="81.34 89.72 92.12 56.38 137.13 21 137.13 42.65 81.34 89.72"/><polygon class="cls-4" points="192.91 89.72 182.13 56.38 137.13 21 137.13 42.65 192.91 89.72"/><circle class="cls-6" cx="137.13" cy="93.72" r="16.17"/><rect class="cls-7" x="34.7" y="113.91" width="19.68" height="22.87"/><polygon class="cls-7" points="34.7 136.77 32.82 139.84 55.81 139.84 54.37 136.77 34.7 136.77"/><rect class="cls-8" x="32.82" y="139.84" width="22.99" height="2.44"/><rect class="cls-9" x="37.6" y="116.53" width="13.86" height="17.62"/><path class="cls-10" d="M39.33,130.55a1.57,1.57,0,0,0,.06.53c.19.54.87.74,1.46.81.8.09,1.6.1,2.4.11l4.7.05a1.5,1.5,0,0,0,1.09-.28,1.3,1.3,0,0,0,.29-.69,7.47,7.47,0,0,0,.1-1.5.83.83,0,0,0-.11-.46,1.35,1.35,0,0,0-.41-.33,7,7,0,0,1-1.33-1.54,4.15,4.15,0,0,0-2.72-1.4,7.43,7.43,0,0,1-2.07-.23c-1.07-.45-2.45-1.41-3.24,0C38.85,126.85,39.33,129.18,39.33,130.55Z"/><rect class="cls-7" x="63.66" y="113.91" width="19.68" height="22.87"/><polygon class="cls-7" points="63.66 136.77 61.78 139.84 84.77 139.84 83.33 136.77 63.66 136.77"/><rect class="cls-8" x="61.78" y="139.84" width="22.99" height="2.44"/><rect class="cls-9" x="66.56" y="116.53" width="13.86" height="17.62"/><path class="cls-10" d="M68.28,130.55a1.57,1.57,0,0,0,.06.53c.2.54.88.74,1.47.81.8.09,1.6.1,2.4.11l4.7.05a1.5,1.5,0,0,0,1.09-.28,1.3,1.3,0,0,0,.29-.69,7.47,7.47,0,0,0,.1-1.5.92.92,0,0,0-.11-.46,1.49,1.49,0,0,0-.41-.33,7.35,7.35,0,0,1-1.34-1.54,4.13,4.13,0,0,0-2.72-1.4,7.4,7.4,0,0,1-2.06-.23c-1.07-.45-2.46-1.41-3.25,0C67.81,126.85,68.29,129.18,68.28,130.55Z"/><rect class="cls-7" x="34.7" y="150.06" width="19.68" height="22.87"/><polygon class="cls-7" points="34.7 172.93 32.82 175.99 55.81 175.99 54.37 172.93 34.7 172.93"/><rect class="cls-8" x="32.82" y="175.99" width="22.99" height="2.44"/><rect class="cls-9" x="37.6" y="152.69" width="13.86" height="17.62"/><path class="cls-10" d="M39.33,166.71a1.57,1.57,0,0,0,.06.53c.19.54.87.73,1.46.8a19.28,19.28,0,0,0,2.4.11l4.7,0a1.5,1.5,0,0,0,1.09-.27,1.3,1.3,0,0,0,.29-.69,7.52,7.52,0,0,0,.1-1.5.81.81,0,0,0-.11-.46,1.22,1.22,0,0,0-.41-.33,7,7,0,0,1-1.33-1.54,4.15,4.15,0,0,0-2.72-1.4,7.43,7.43,0,0,1-2.07-.23c-1.07-.45-2.45-1.41-3.24,0C38.85,163,39.33,165.34,39.33,166.71Z"/><rect class="cls-7" x="63.66" y="150.06" width="19.68" height="22.87"/><polygon class="cls-7" points="63.66 172.93 61.78 175.99 84.77 175.99 83.33 172.93 63.66 172.93"/><rect class="cls-8" x="61.78" y="175.99" width="22.99" height="2.44"/><rect class="cls-9" x="66.56" y="152.69" width="13.86" height="17.62"/><path class="cls-10" d="M68.28,166.71a1.57,1.57,0,0,0,.06.53c.2.54.88.73,1.47.8a19.28,19.28,0,0,0,2.4.11l4.7,0a1.5,1.5,0,0,0,1.09-.27,1.3,1.3,0,0,0,.29-.69,7.52,7.52,0,0,0,.1-1.5.9.9,0,0,0-.11-.46,1.33,1.33,0,0,0-.41-.33,7.35,7.35,0,0,1-1.34-1.54,4.13,4.13,0,0,0-2.72-1.4,7.4,7.4,0,0,1-2.06-.23c-1.07-.45-2.46-1.41-3.25,0C67.81,163,68.29,165.34,68.28,166.71Z"/><rect class="cls-7" x="189.59" y="113.91" width="19.68" height="22.87"/><polygon class="cls-7" points="189.59 136.77 187.71 139.84 210.7 139.84 209.26 136.77 189.59 136.77"/><rect class="cls-8" x="187.71" y="139.84" width="22.99" height="2.44"/><rect class="cls-9" x="192.49" y="116.53" width="13.86" height="17.62"/><path class="cls-10" d="M194.22,130.55a1.57,1.57,0,0,0,.06.53c.19.54.87.74,1.46.81.8.09,1.6.1,2.4.11l4.7.05a1.5,1.5,0,0,0,1.09-.28,1.3,1.3,0,0,0,.29-.69,6.8,6.8,0,0,0,.1-1.5.83.83,0,0,0-.11-.46,1.35,1.35,0,0,0-.41-.33,7,7,0,0,1-1.33-1.54,4.15,4.15,0,0,0-2.72-1.4,7.43,7.43,0,0,1-2.07-.23c-1.07-.45-2.45-1.41-3.24,0C193.74,126.85,194.22,129.18,194.22,130.55Z"/><rect class="cls-7" x="218.55" y="113.91" width="19.68" height="22.87"/><polygon class="cls-7" points="218.55 136.77 216.67 139.84 239.66 139.84 238.22 136.77 218.55 136.77"/><rect class="cls-8" x="216.67" y="139.84" width="22.99" height="2.44"/><rect class="cls-9" x="221.45" y="116.53" width="13.86" height="17.62"/><path class="cls-10" d="M223.17,130.55a1.36,1.36,0,0,0,.07.53c.19.54.87.74,1.46.81.8.09,1.6.1,2.4.11l4.7.05a1.5,1.5,0,0,0,1.09-.28,1.3,1.3,0,0,0,.29-.69,7.47,7.47,0,0,0,.1-1.5.83.83,0,0,0-.11-.46,1.49,1.49,0,0,0-.41-.33,7.35,7.35,0,0,1-1.34-1.54,4.11,4.11,0,0,0-2.72-1.4,7.4,7.4,0,0,1-2.06-.23c-1.07-.45-2.46-1.41-3.24,0C222.7,126.85,223.18,129.18,223.17,130.55Z"/><rect class="cls-7" x="189.59" y="150.06" width="19.68" height="22.87"/><polygon class="cls-7" points="189.59 172.93 187.71 175.99 210.7 175.99 209.26 172.93 189.59 172.93"/><rect class="cls-8" x="187.71" y="175.99" width="22.99" height="2.44"/><rect class="cls-9" x="192.49" y="152.69" width="13.86" height="17.62"/><path class="cls-10" d="M194.22,166.71a1.57,1.57,0,0,0,.06.53c.19.54.87.73,1.46.8a19.28,19.28,0,0,0,2.4.11l4.7,0a1.5,1.5,0,0,0,1.09-.27,1.3,1.3,0,0,0,.29-.69,6.84,6.84,0,0,0,.1-1.5.81.81,0,0,0-.11-.46,1.22,1.22,0,0,0-.41-.33,7,7,0,0,1-1.33-1.54,4.15,4.15,0,0,0-2.72-1.4,7.43,7.43,0,0,1-2.07-.23c-1.07-.45-2.45-1.41-3.24,0C193.74,163,194.22,165.34,194.22,166.71Z"/><rect class="cls-7" x="218.55" y="150.06" width="19.68" height="22.87"/><polygon class="cls-7" points="218.55 172.93 216.67 175.99 239.66 175.99 238.22 172.93 218.55 172.93"/><rect class="cls-8" x="216.67" y="175.99" width="22.99" height="2.44"/><rect class="cls-9" x="221.45" y="152.69" width="13.86" height="17.62"/><path class="cls-10" d="M223.17,166.71a1.36,1.36,0,0,0,.07.53c.19.54.87.73,1.46.8a19.28,19.28,0,0,0,2.4.11l4.7,0a1.5,1.5,0,0,0,1.09-.27,1.3,1.3,0,0,0,.29-.69,7.52,7.52,0,0,0,.1-1.5.81.81,0,0,0-.11-.46,1.33,1.33,0,0,0-.41-.33,7.35,7.35,0,0,1-1.34-1.54,4.11,4.11,0,0,0-2.72-1.4,7.4,7.4,0,0,1-2.06-.23c-1.07-.45-2.46-1.41-3.24,0C222.7,163,223.18,165.34,223.17,166.71Z"/><polygon class="cls-4" points="105.54 185.41 101.72 195.43 172.31 195.43 169.92 185.41 105.54 185.41"/><rect class="cls-5" x="101.72" y="195.43" width="70.59" height="5.66"/><polyline class="cls-11" points="130.08 89.39 137.13 93.72 145.39 87.3"/><rect class="cls-4" x="105.54" y="121.46" width="64.38" height="63.95"/><line class="cls-11" x1="137.5" y1="121.46" x2="137.5" y2="185.41"/><rect class="cls-12" x="109.54" y="127.21" width="22.81" height="22.19"/><path class="cls-10" d="M112.37,144.25a2,2,0,0,0,.1.77c.32.77,1.44,1,2.41,1.14,1.31.14,2.63.15,4,.16l7.74.07a2.7,2.7,0,0,0,1.78-.39,1.66,1.66,0,0,0,.48-1,9.14,9.14,0,0,0,.17-2.15,1.14,1.14,0,0,0-.18-.66,2.2,2.2,0,0,0-.68-.46,11.18,11.18,0,0,1-2.19-2.21,7.18,7.18,0,0,0-4.48-2,13.51,13.51,0,0,1-3.39-.34c-1.77-.64-4-2-5.35,0C111.59,139,112.37,142.3,112.37,144.25Z"/><rect class="cls-12" x="142.2" y="127.21" width="22.81" height="22.19"/><path class="cls-10" d="M145,144.25a2,2,0,0,0,.1.77c.31.77,1.44,1,2.41,1.14,1.31.14,2.63.15,3.95.16l7.73.07A2.71,2.71,0,0,0,161,146a1.66,1.66,0,0,0,.48-1,9.14,9.14,0,0,0,.17-2.15,1.14,1.14,0,0,0-.18-.66,2.2,2.2,0,0,0-.68-.46,11.23,11.23,0,0,1-2.2-2.21,7.15,7.15,0,0,0-4.47-2,13.59,13.59,0,0,1-3.4-.34c-1.77-.64-4-2-5.34,0C144.25,139,145,142.3,145,144.25Z"/></g></svg>