<?xml version="1.0" encoding="UTF-8"?>
<svg xmlns="http://www.w3.org/2000/svg" version="1.1" viewBox="0 0 390 390">
  <!-- Generator: Adobe Illustrator 28.7.1, SVG Export Plug-In . SVG Version: 1.2.0 Build 142)  -->
  <g>
    <g id="_레이어_1" data-name="레이어_1">
      <g>
        <path d="M178.9,316.2s50.3,60.8,106.2,62.6c55.9,1.8,61.3-17.8,48.8-23.2-12.5-5.4-78.2-19.7-87.9-79.8-9.7-60.1-94.8-11.4-67,40.4Z" style="fill: #67d21b;"/>
        <path d="M292,380.9c-2.3,0-4.6,0-7-.1-29.4-.9-57.2-18.1-75.3-32.4-19.5-15.4-32.3-30.8-32.4-30.9,0-.1-.2-.2-.2-.3-9.2-17.1-7.4-35.8,4.8-51.4,11.6-14.8,29.8-22.5,44.1-18.8,11.6,3,19.4,13.1,21.9,28.5,8.3,51.3,58.3,68.4,79.6,75.7,3.1,1,5.5,1.9,7.2,2.6,5,2.2,7.6,6.4,6.6,10.8-1.8,8.1-15.8,16.4-49.2,16.4ZM180.5,315c2.8,3.4,51.6,60,104.6,61.7,38.5,1.2,51-7.7,52.2-13.2.6-2.5-1-4.8-4.3-6.2-1.5-.7-3.9-1.5-6.9-2.5-22-7.5-73.6-25.1-82.3-78.8-2.3-13.9-8.8-22.6-18.9-25.3-12.7-3.3-29.5,4.1-40,17.4-11.1,14.2-12.8,31.2-4.5,46.8Z"/>
      </g>
      <g>
        <g>
          <g>
            <path d="M134.1,175.4c.7-5.1-1.5-8.5-9-8-22.4,1.5-36.2,32.5-52.1,45.1-7.6,6-14.1,13.6-18.4,22.3-4.4,8.9-8,23.2,4.6,27,8.8,2.7,28.5,4.9,34.9-3.1,4.1-5.2,3.7-13.3,4.8-19.2,2.4-13.4,11.6-23.6,19.2-34.3,2.9-4.2,14.7-20,16-29.8Z" style="fill: #67d21b;"/>
            <path d="M76.7,266.3c-6.9,0-13.8-1.3-18-2.5-4.3-1.3-7.3-3.8-8.8-7.4-3.4-7.8,1-18.3,3-22.4,4.2-8.5,10.7-16.4,18.9-23,5.3-4.2,10.3-10.5,15.7-17.2,10.8-13.4,21.9-27.3,37.5-28.4,4.2-.3,7.3.6,9.2,2.6,1.7,1.8,2.3,4.4,1.9,7.7-1.2,9.7-11.7,24.3-15.6,29.8l-.7,1c-1.4,1.9-2.8,3.9-4.2,5.8-6.3,8.5-12.8,17.2-14.7,27.8-.3,1.5-.4,3.1-.6,4.8-.5,5.2-1.2,11-4.6,15.3-3.8,4.8-11.4,6.3-19,6.3ZM126.5,169.3c-.4,0-.8,0-1.3,0-13.8,1-24.4,14.1-34.6,26.9-5.5,6.9-10.7,13.4-16.3,17.8-7.7,6.2-13.9,13.7-17.8,21.6-3.7,7.6-4.8,14.7-3,19,1.1,2.5,3.2,4.2,6.3,5.2,8.6,2.6,27.1,4.6,32.7-2.4,2.7-3.4,3.2-8.4,3.7-13.2.2-1.8.4-3.5.7-5.1,2.1-11.5,8.8-20.6,15.4-29.4,1.4-1.9,2.8-3.8,4.2-5.7l.7-1c3.4-4.8,13.8-19.3,14.9-27.9h0c.3-2,0-3.5-.9-4.4-.9-.9-2.5-1.4-4.7-1.4Z"/>
          </g>
          <g>
            <path d="M67.4,258.6c-2.7-1.8-6.5-2.5-10-2.6-3.6-.1-5-.1-5.5,3.8-.8,7.5,4.4,27,15.5,20.6,6.4-3.7,3.6-8.9,3.5-14.9,0-3.3-1.5-5.5-3.6-6.9Z" style="fill: #dbdbdb;"/>
            <path d="M63.2,283.7c-2,0-3.6-.7-4.8-1.5-6.7-4.4-9.1-17.1-8.5-22.7.6-5.8,4-5.7,7.5-5.6,4.7.1,8.4,1.1,11.1,2.9h0c2.9,2,4.4,4.9,4.5,8.6,0,1.3.2,2.6.3,3.9.5,4.4,1.1,9.3-4.9,12.8-1.9,1.1-3.7,1.5-5.2,1.5ZM56,258c-1.8,0-1.8.3-2,2-.6,5.3,2,15.8,6.7,18.9,1.7,1.1,3.6,1.1,5.8-.2,3.5-2,3.4-4.3,2.9-8.8-.2-1.4-.3-2.8-.4-4.4,0-2.3-.9-4-2.7-5.3h0c-2-1.4-5.1-2.1-8.9-2.2-.6,0-1,0-1.4,0Z"/>
          </g>
          <g>
            <path d="M70.8,256.7c-5.6-1.1-5.5,9.2-4.4,12.3,1.5,4.1,4.7,10.7,9.9,10.3,9.4-.6,9.6-15.9,3.4-20.4-2.6-1.9-5.7-2.2-9-2.2Z" style="fill: #dbdbdb;"/>
            <path d="M76,281.3c-4.6,0-8.6-4-11.4-11.7-1-2.7-1.4-9.8,1.4-13.2,1.3-1.5,3-2.1,5-1.8,3.2,0,6.9.4,9.9,2.6,4.7,3.4,5.9,11,4.4,16.3-1.3,4.6-4.6,7.4-8.9,7.7-.2,0-.3,0-.5,0ZM70,258.6c-.4,0-.7.2-.9.5-1.6,1.9-1.5,7.2-.7,9.2,1,2.8,3.9,9.2,7.9,9,3.2-.2,4.6-2.7,5.2-4.8,1.3-4.3,0-9.9-2.9-11.9-2-1.4-4.5-1.8-7.8-1.9-.1,0-.2,0-.3,0-.2,0-.3,0-.4,0Z"/>
          </g>
          <g>
            <path d="M86.7,247.2c-5.2-2.3-7.4,7.7-7,11s2.2,11.4,7.4,12.3c9.3,1.5,12.8-13.4,7.8-19.1-2.1-2.4-5.1-3.4-8.3-4.2Z" style="fill: #dbdbdb;"/>
            <path d="M88.4,272.6c-.5,0-1.1,0-1.6-.1-4.8-.8-7.9-5.6-9.1-14-.4-2.9.8-9.9,4.3-12.6,1.6-1.2,3.4-1.4,5.3-.6,3.1.8,6.6,1.9,9.1,4.8,3.8,4.4,3.4,12,.7,16.9-2,3.7-5.2,5.7-8.7,5.7ZM85.2,248.9c-.3,0-.5.1-.7.3-1.9,1.5-3,6.7-2.7,8.8.4,3,1.7,9.9,5.7,10.6,3.2.5,5.1-1.6,6.2-3.5,2.2-3.9,2.1-9.7-.2-12.3-1.6-1.8-4-2.7-7.2-3.5-.1,0-.2,0-.3-.1-.3-.1-.5-.2-.7-.2Z"/>
          </g>
        </g>
        <g>
          <path d="M104,173.6c-6.3,6-7.2,7.4-12.6,14.2,7.6,9.6,16,18.4,25.2,26.4,4.5-3.5,3.1-2.8,6.6-7.3,6.1-7.7,12.1-16.6,11.7-26.5-.3-6-4.5-16.3-11.1-18.2-6.7-1.9-15.5,7.2-19.9,11.3Z" style="fill: #fff;"/>
          <path d="M116.6,216.3c-.5,0-.9-.2-1.3-.5-9.3-8.1-17.8-17.1-25.5-26.7-.6-.7-.6-1.8,0-2.5l1.9-2.4c3.8-4.9,5.2-6.7,10.9-12h0l1-1c5.1-4.8,13.5-12.9,20.8-10.8,7.6,2.2,12.2,13.2,12.5,20.1.5,10.5-5.5,19.6-12.1,27.8-1.1,1.3-1.7,2.2-2.1,2.8-1.2,1.7-1.7,2.3-4.9,4.8-.4.3-.8.4-1.3.4ZM94,187.8c6.9,8.5,14.5,16.5,22.7,23.8,1.7-1.4,1.9-1.8,2.8-2.9.5-.7,1.1-1.6,2.2-3,6.1-7.7,11.7-16,11.2-25.1-.3-5.5-4.2-14.8-9.6-16.4-5.1-1.4-12.8,5.9-16.9,9.9l-1,1c-5.4,5.1-6.7,6.7-10.5,11.6l-.9,1.2Z"/>
        </g>
      </g>
      <g>
        <g>
          <g>
            <path d="M227.6,175.4c-.7-5.1,1.5-8.5,9-8,22.4,1.5,36.2,32.5,52.1,45.1,7.6,6,14.1,13.6,18.4,22.3,4.4,8.9,8,23.2-4.6,27-8.8,2.7-28.5,4.9-34.9-3.1-4.1-5.2-3.7-13.3-4.8-19.2-2.4-13.4-11.6-23.6-19.2-34.3-2.9-4.2-14.7-20-16-29.8Z" style="fill: #67d21b;"/>
            <path d="M285,266.3c-7.6,0-15.2-1.5-19-6.3-3.4-4.3-4-10.1-4.6-15.3-.2-1.7-.3-3.3-.6-4.8-1.9-10.6-8.4-19.3-14.7-27.8-1.4-1.9-2.8-3.8-4.2-5.8l-.7-1c-3.9-5.5-14.4-20.1-15.6-29.8h0c-.4-3.3.2-5.9,1.9-7.7,1.9-2,5-2.9,9.2-2.6,15.6,1.1,26.7,15,37.5,28.4,5.4,6.7,10.4,13,15.7,17.2,8.2,6.5,14.7,14.5,18.9,23,2,4.2,6.4,14.7,3,22.4-1.6,3.6-4.5,6.1-8.8,7.4-4.2,1.3-11.2,2.5-18,2.5ZM235.2,169.3c-2.3,0-3.9.5-4.7,1.4-.8.9-1.1,2.4-.9,4.4h0c1.1,8.7,11.5,23.2,14.9,27.9l.7,1c1.4,1.9,2.8,3.8,4.2,5.7,6.6,8.8,13.3,18,15.4,29.5.3,1.6.5,3.3.6,5.1.5,4.8,1,9.8,3.7,13.2,5.6,7,24.1,5.1,32.7,2.4,3.2-1,5.2-2.6,6.3-5.2,1.9-4.3.8-11.4-3-19-3.9-8-10.1-15.4-17.8-21.6-5.6-4.5-10.8-11-16.3-17.8-10.2-12.7-20.8-25.9-34.6-26.9-.4,0-.9,0-1.3,0Z"/>
          </g>
          <g>
            <path d="M294.3,258.6c2.7-1.8,6.5-2.5,10-2.6,3.6-.1,5-.1,5.5,3.8.8,7.5-4.4,27-15.5,20.6-6.4-3.7-3.6-8.9-3.5-14.9,0-3.3,1.5-5.5,3.6-6.9Z" style="fill: #dbdbdb;"/>
            <path d="M298.5,283.7c-1.5,0-3.3-.4-5.2-1.5-6-3.5-5.4-8.4-4.9-12.8.2-1.3.3-2.6.3-3.9,0-3.6,1.6-6.6,4.4-8.6h0c2.7-1.8,6.4-2.8,11.1-2.9,3.5-.1,6.9-.2,7.5,5.6.6,5.6-1.8,18.3-8.5,22.7-1.2.8-2.8,1.5-4.8,1.5ZM295.4,260.2c-1.8,1.2-2.7,3-2.7,5.3,0,1.5-.2,3-.4,4.3-.5,4.5-.7,6.7,2.9,8.8,2.2,1.3,4,1.3,5.8.2,4.7-3,7.3-13.5,6.7-18.9-.2-2.1-.2-2.1-3.4-2-3.9.1-6.9.9-8.9,2.2h0Z"/>
          </g>
          <g>
            <path d="M290.8,256.7c5.6-1.1,5.5,9.2,4.4,12.3-1.5,4.1-4.7,10.7-9.9,10.3-9.4-.6-9.6-15.9-3.4-20.4,2.6-1.9,5.7-2.2,9-2.2Z" style="fill: #dbdbdb;"/>
            <path d="M285.7,281.3c-.2,0-.3,0-.5,0-4.3-.3-7.5-3.1-8.9-7.7-1.6-5.3-.3-12.9,4.4-16.3,3.1-2.2,6.7-2.5,9.9-2.6,2-.3,3.7.3,5,1.8,2.9,3.4,2.4,10.5,1.4,13.2-2.8,7.6-6.8,11.7-11.4,11.7ZM291.7,258.6c-.1,0-.3,0-.4,0-.1,0-.2,0-.3,0-3.4,0-5.8.4-7.8,1.9-2.8,2-4.1,7.6-2.9,11.9.6,2.1,2,4.6,5.2,4.8,0,0,.2,0,.2,0,3.9,0,6.7-6.3,7.7-9,.7-2,.8-7.3-.7-9.2-.2-.3-.5-.5-.9-.5ZM290.8,256.7h0,0Z"/>
          </g>
          <g>
            <path d="M275,247.2c5.2-2.3,7.4,7.7,7,11-.6,4.3-2.2,11.4-7.4,12.3-9.3,1.5-12.8-13.4-7.8-19.1,2.1-2.4,5.1-3.4,8.3-4.2Z" style="fill: #dbdbdb;"/>
            <path d="M273.3,272.6c-3.6,0-6.7-2-8.7-5.7-2.7-4.9-3.2-12.5.7-16.9,2.5-2.9,6-4,9.1-4.8,1.9-.8,3.7-.5,5.3.6,3.5,2.6,4.7,9.7,4.3,12.6-1.1,8.4-4.3,13.2-9.1,14-.5,0-1.1.1-1.6.1ZM276.5,248.9c-.2,0-.4,0-.7.2-.1,0-.2,0-.3.1-3.3.8-5.6,1.7-7.2,3.5-2.3,2.6-2.4,8.3-.2,12.3,1,1.9,2.9,4.1,6.2,3.5,4-.6,5.3-7.6,5.7-10.6.3-2.1-.8-7.3-2.7-8.8-.2-.2-.4-.3-.7-.3ZM275,247.2h0,0Z"/>
          </g>
        </g>
        <g>
          <path d="M256.9,173.6c6.3,6,7.2,7.4,12.6,14.2-7.6,9.6-16,18.4-25.2,26.4-4.5-3.5-3.1-2.8-6.6-7.3-6.1-7.7-12.1-16.6-11.7-26.5.3-6,4.5-16.3,11.1-18.2,6.7-1.9,15.5,7.2,19.9,11.3Z" style="fill: #fff;"/>
          <path d="M244.3,216.3c-.4,0-.9-.1-1.3-.4-3.2-2.5-3.6-3.1-4.8-4.8-.5-.6-1.1-1.5-2.1-2.8-6.6-8.3-12.6-17.4-12.1-27.8.3-6.8,5-17.9,12.5-20.1,7.3-2.1,15.8,6,20.8,10.8l1,1h0c5.6,5.3,7,7.1,10.8,12l1.9,2.5c.6.7.6,1.8,0,2.5-7.6,9.6-16.2,18.6-25.5,26.7-.4.3-.9.5-1.3.5ZM239,164c-.5,0-.9,0-1.4.2-5.4,1.5-9.4,10.9-9.6,16.4-.4,9.1,5.2,17.5,11.2,25.1,1.1,1.4,1.8,2.3,2.2,3,.8,1.2,1.1,1.6,2.8,2.9,8.2-7.3,15.8-15.3,22.7-23.8l-.9-1.2c-3.8-4.8-5.1-6.5-10.4-11.6l-1-1c-3.8-3.6-10.5-10.1-15.5-10.1Z"/>
        </g>
      </g>
      <g>
        <g>
          <path d="M214.9,329.8c.7,1.2.7,2.6,0,3.8-1.9,3.4-3.1,7.8-5.1,10.9-2.5,4-5.2,7.9-7,12.2-2,4.6-1.9,9.1-2.4,14-.7,7,.1,12.7,8.6,12.7,13.3,0,39.6,0,39.6,0,0,0,13.8-1,11.6-12.4-3.8-20.1-11.8-20.1-25.5-20.1l8.3-27.1c.6-1.4.9-2.9.7-4.5" style="fill: #67d21b;"/>
          <path d="M209,385.4c-3.7,0-6.5-1-8.3-3-2.8-3-2.7-7.7-2.3-11.9,0-.9.2-1.8.2-2.7.3-4,.6-7.8,2.3-11.8,1.6-3.7,3.7-7,5.8-10.2l1.4-2.2c1-1.6,1.8-3.5,2.6-5.6.7-1.8,1.5-3.6,2.4-5.3.3-.6.3-1.2,0-1.8-.5-1-.2-2.2.8-2.7s2.2-.2,2.7.8c1,1.8,1,3.9,0,5.7-.8,1.5-1.5,3.2-2.2,4.9-.9,2.1-1.8,4.3-2.9,6.2l-1.4,2.3c-2,3.1-4,6.3-5.4,9.7-1.5,3.5-1.7,6.8-2,10.6,0,.9-.1,1.8-.2,2.8-.3,3.1-.4,6.9,1.3,8.8,1,1.1,2.8,1.7,5.3,1.7h39.6c0,0,5.8-.5,8.5-4,1.2-1.6,1.6-3.6,1.1-6-3.5-18.5-9.8-18.5-23.6-18.5s-1.2-.3-1.6-.8c-.4-.5-.5-1.2-.3-1.8l8.3-27.1c.6-1.3.7-2.5.6-3.6-.1-1.1.6-2.1,1.7-2.3,1.1-.2,2.1.6,2.3,1.7.2,1.9,0,3.8-.8,5.6l-7.4,24.2c12.2,0,20.9,1.5,24.8,21.8.7,3.6,0,6.7-1.9,9.3-3.8,4.9-11.2,5.5-11.5,5.5h-39.7Z"/>
        </g>
        <g>
          <path d="M250.3,380c-2.2-3.3-.8-8.4,2.1-10.9,2.5-2.2,7.6-2.9,10.4-.9,3.5,2.4,9.5,8.8,8.8,13-4.5,2.3-16,3.4-20.1,0-.5-.4-.9-.8-1.2-1.3Z" style="fill: #dbdbdb;"/>
          <path d="M260.2,385.4c-3.9,0-7.6-.7-9.9-2.5-.6-.5-1.2-1.1-1.6-1.7,0,0,0,0,0,0-2.9-4.3-1-10.6,2.5-13.5,3-2.6,9.1-3.7,12.8-1,3.4,2.4,10.5,9.4,9.7,15,0,.6-.5,1.2-1.1,1.5-2.5,1.3-7.5,2.4-12.4,2.4ZM252,378.9c.2.3.5.6.8.8,3.1,2.5,12.3,1.9,16.9.2-.6-3-4.8-7.9-8-10.1-2.1-1.4-6.1-.8-7.9.8-2.1,1.8-3.3,5.9-1.8,8.2Z"/>
        </g>
        <g>
          <path d="M241.5,381.7c-2.2-3.3-.8-8.4,2.1-10.9,2.5-2.2,7.6-2.9,10.4-.9,3.5,2.4,9.5,8.8,8.8,13-4.5,2.3-16,3.4-20.1,0-.5-.4-.9-.8-1.2-1.3Z" style="fill: #dbdbdb;"/>
          <path d="M251.4,387.1c-3.9,0-7.6-.7-9.9-2.5-.6-.5-1.2-1.1-1.6-1.8h0c-2.9-4.3-1-10.6,2.5-13.5,3-2.6,9.1-3.7,12.8-1,3.4,2.4,10.5,9.4,9.7,15,0,.6-.5,1.2-1.1,1.5-2.5,1.3-7.5,2.4-12.4,2.4ZM243.2,380.6c.2.3.5.6.8.8,3.1,2.5,12.3,1.9,16.9.2-.6-3-4.8-7.9-8-10.1-2.1-1.4-6.1-.8-7.9.8-2.1,1.8-3.3,5.9-1.8,8.2Z"/>
        </g>
        <g>
          <path d="M230.3,381.7c-2.2-3.3-.8-8.4,2.1-10.9,2.5-2.2,7.6-2.9,10.4-.9,3.5,2.4,9.5,8.8,8.8,13-4.5,2.3-16,3.4-20.1,0-.5-.4-.9-.8-1.2-1.3Z" style="fill: #dbdbdb;"/>
          <path d="M240.2,387.1c-3.9,0-7.6-.7-9.9-2.5-.6-.5-1.2-1.1-1.6-1.8h0c-2.9-4.3-1-10.6,2.5-13.5,3-2.6,9.1-3.7,12.8-1,3.4,2.4,10.5,9.4,9.7,15,0,.6-.5,1.2-1.1,1.5-2.5,1.3-7.5,2.4-12.4,2.4ZM238.6,370.7c-1.8,0-3.8.6-4.9,1.6-2.1,1.8-3.3,5.9-1.7,8.2,0,0,0,0,0,0,.2.3.5.6.8.8,3.1,2.5,12.3,1.9,16.9.2-.6-3-4.8-7.9-8-10.1-.8-.6-1.9-.8-3-.8Z"/>
        </g>
        <g>
          <path d="M241,281.7c.5,1,1.5,9,1.8,10.4,1,4.8.5,9.7,1.4,14.5,1.2,6.4,2.6,12.6,1.3,19s-5.3,14.2-8,19.9c-1.9,4.1-1.6,4.8-5.4,6.2-7,2.6-14.5.2-21.6,2.8-3.2,1.2-6.6,3.1-9.8,3.7,0-6.8,2.9-14.1,5.4-20.4,4.6-11.4-1.6-20.9-4.5-31.9" style="fill: #4c6599;"/>
          <path d="M200.7,360.2c-.5,0-.9-.2-1.3-.5s-.7-1-.7-1.6c0-7.3,3-15,5.5-21.1,3.2-7.9.8-14.7-2-22.6-.9-2.6-1.8-5.3-2.6-8-.3-1.1.3-2.2,1.4-2.5,1.1-.3,2.2.3,2.5,1.4.7,2.6,1.6,5.2,2.5,7.8,2.8,7.9,5.7,16.1,1.9,25.4-2,5-4.4,11.1-5.1,16.9,1.1-.4,2.3-.9,3.5-1.4,1.2-.5,2.4-1,3.5-1.5,3.9-1.4,7.8-1.5,11.5-1.5,3.5,0,6.9-.1,10-1.3,2.4-.9,2.4-1,3.5-3.4.2-.5.5-1.1.8-1.8l.9-2c2.6-5.4,5.8-12.1,6.9-17.4,1.1-5.6,0-11-1-16.7l-.3-1.5c-.5-2.5-.6-4.9-.7-7.3-.1-2.5-.2-4.8-.7-7.1-.1-.5-.3-1.7-.5-3.2-.3-2.1-.9-6.1-1.2-6.8-.5-1,0-2.2.9-2.7,1-.5,2.2,0,2.7,1,.4.8.7,2.8,1.5,7.9.2,1.4.4,2.5.5,3,.6,2.6.7,5.3.8,7.8,0,2.3.2,4.5.6,6.7l.3,1.5c1.1,5.9,2.3,11.9,1,18.3-1.1,5.8-4.5,12.8-7.2,18.4l-.9,1.9c-.3.7-.6,1.2-.8,1.7-1.3,3-2,4.1-5.8,5.5-3.8,1.4-7.6,1.4-11.4,1.5-3.6,0-7,.1-10.2,1.3-1.1.4-2.2.9-3.3,1.4-2.2,1-4.5,2-6.9,2.5-.1,0-.3,0-.4,0Z"/>
        </g>
      </g>
      <g>
        <g>
          <path d="M146,329.8c-.7,1.2-.7,2.6,0,3.8,1.9,3.4,3.1,7.8,5.1,10.9,2.5,4,5.2,7.9,7,12.2,2,4.6,1.9,9.1,2.4,14,.7,7-.1,12.7-8.6,12.7-13.3,0-39.6,0-39.6,0,0,0-13.8-1-11.6-12.4,3.8-20.1,11.8-20.1,25.5-20.1l-8.3-27.1c-.6-1.4-.9-2.9-.7-4.5" style="fill: #67d21b;"/>
          <path d="M151.9,385.4h-39.6c-.5,0-7.9-.6-11.7-5.5-1.9-2.5-2.6-5.6-1.9-9.3,3.9-20.3,12.6-21.7,24.8-21.8l-7.5-24.5c-.7-1.5-1-3.4-.7-5.3.1-1.1,1.2-1.9,2.3-1.7,1.1.1,1.9,1.2,1.7,2.3-.1,1.1,0,2.3.5,3.4l8.4,27.3c.2.6,0,1.3-.3,1.8-.4.5-1,.8-1.6.8-13.8,0-20,0-23.6,18.5-.5,2.5-.1,4.5,1.1,6,2.7,3.5,8.6,4,8.6,4h39.5c2.5,0,4.3-.6,5.3-1.7,1.7-1.9,1.6-5.7,1.3-8.8,0-.9-.2-1.9-.2-2.8-.3-3.8-.5-7.1-2-10.6-1.4-3.4-3.5-6.6-5.5-9.7l-1.4-2.2c-1.2-1.8-2.1-4.1-2.9-6.2-.7-1.7-1.4-3.4-2.2-4.9-1-1.8-.9-3.9,0-5.7.5-1,1.8-1.3,2.7-.8,1,.5,1.3,1.8.8,2.7-.3.6-.3,1.3,0,1.8.9,1.7,1.7,3.5,2.4,5.3.9,2.1,1.7,4,2.6,5.6l1.4,2.2c2.1,3.2,4.2,6.6,5.8,10.3,1.7,4.1,2,7.8,2.3,11.8,0,.9.1,1.8.2,2.7.4,4.2.4,8.9-2.3,11.9-1.8,2-4.6,3-8.3,3Z"/>
        </g>
        <g>
          <path d="M110.6,380c2.2-3.3.8-8.4-2.1-10.9-2.5-2.2-7.6-2.9-10.4-.9-3.5,2.4-9.5,8.8-8.8,13,4.5,2.3,16,3.4,20.1,0,.5-.4.9-.8,1.2-1.3Z" style="fill: #dbdbdb;"/>
          <path d="M100.7,385.4c-4.8,0-9.8-1.1-12.4-2.4-.6-.3-1-.8-1.1-1.5-.8-5.6,6.3-12.6,9.7-15,3.8-2.6,9.8-1.6,12.8,1,3.5,3,5.3,9.2,2.5,13.5h0c-.4.7-1,1.3-1.6,1.8-2.3,1.8-6.1,2.5-9.9,2.5ZM91.3,379.9c4.6,1.7,13.7,2.3,16.9-.2.3-.2.6-.5.8-.8,1.6-2.4.3-6.5-1.7-8.2-1.8-1.6-5.9-2.2-7.9-.8-3.2,2.2-7.4,7-8,10.1ZM110.6,380h0,0Z"/>
        </g>
        <g>
          <path d="M119.4,381.7c2.2-3.3.8-8.4-2.1-10.9-2.5-2.2-7.6-2.9-10.4-.9-3.5,2.4-9.5,8.8-8.8,13,4.5,2.3,16,3.4,20.1,0s.9-.8,1.2-1.3Z" style="fill: #dbdbdb;"/>
          <path d="M109.5,387.1c-4.8,0-9.8-1.1-12.4-2.4-.6-.3-1-.8-1.1-1.5-.9-5.6,6.3-12.6,9.7-15,3.8-2.6,9.8-1.6,12.8,1,3.5,3,5.3,9.2,2.5,13.5h0c-.4.7-1,1.3-1.6,1.8-2.3,1.8-6.1,2.5-9.9,2.5ZM100.1,381.6c4.6,1.7,13.7,2.3,16.9-.2.3-.2.6-.5.8-.8h0c1.6-2.4.3-6.5-1.7-8.2-1.8-1.6-5.8-2.2-7.9-.8-3.2,2.2-7.4,7-8,10.1ZM119.4,381.7h0,0Z"/>
        </g>
        <g>
          <path d="M130.6,381.7c2.2-3.3.8-8.4-2.1-10.9-2.5-2.2-7.6-2.9-10.4-.9s-9.5,8.8-8.8,13c4.5,2.3,16,3.4,20.1,0,.5-.4.9-.8,1.2-1.3Z" style="fill: #dbdbdb;"/>
          <path d="M120.7,387.1c-4.8,0-9.8-1.1-12.4-2.4-.6-.3-1-.8-1.1-1.5-.8-5.6,6.3-12.6,9.7-15,3.8-2.6,9.8-1.6,12.8,1,3.5,3,5.3,9.2,2.5,13.5h0c-.4.7-1,1.3-1.6,1.8-2.3,1.8-6.1,2.5-9.9,2.5ZM111.3,381.6c4.6,1.7,13.7,2.3,16.9-.2.3-.2.6-.5.8-.8,1.6-2.4.3-6.5-1.7-8.2-1.8-1.6-5.9-2.2-7.9-.8-3.2,2.2-7.4,7-8,10.1ZM130.6,381.7h0,0Z"/>
        </g>
        <g>
          <path d="M119.9,281.7c-.5,1-1.5,9-1.8,10.4-1,4.8-.5,9.7-1.4,14.5-1.2,6.4-2.6,12.6-1.3,19,1.2,6.3,5.3,14.2,8,19.9,1.9,4.1,1.6,4.8,5.4,6.2,7,2.6,14.5.2,21.6,2.8,3.2,1.2,6.6,3.1,9.8,3.7,0-6.8-2.9-14.1-5.4-20.4-4.6-11.4,1.6-20.9,4.5-31.9" style="fill: #4c6599;"/>
          <path d="M160.2,360.2c-.1,0-.3,0-.4,0-2.3-.5-4.6-1.5-6.8-2.5-1.1-.5-2.2-1-3.3-1.4-3.2-1.2-6.6-1.2-10.2-1.3-3.7,0-7.6-.1-11.4-1.5-3.8-1.4-4.4-2.5-5.8-5.5-.2-.5-.5-1.1-.8-1.7l-.9-1.9c-2.7-5.6-6-12.6-7.2-18.4-1.2-6.3,0-12.4,1-18.3l.3-1.5c.4-2.2.5-4.4.6-6.7.1-2.5.2-5.2.8-7.8,0-.4.3-1.6.5-3,.8-5.1,1.1-7.1,1.5-7.9.5-1,1.7-1.4,2.7-.9,1,.5,1.4,1.6,1,2.6-.3.8-.9,4.7-1.2,6.8-.2,1.5-.4,2.8-.5,3.3-.5,2.3-.6,4.7-.7,7.1-.1,2.4-.2,4.8-.7,7.3l-.3,1.5c-1.1,5.7-2.1,11.2-1,16.7,1,5.3,4.3,12,6.9,17.4l.9,2c.3.7.6,1.3.8,1.8,1.1,2.4,1.1,2.5,3.5,3.4,3.2,1.2,6.5,1.2,10,1.3,3.8,0,7.7.1,11.5,1.5,1.2.4,2.3.9,3.5,1.5,1.2.5,2.3,1,3.5,1.4-.6-5.8-3.1-11.9-5.1-16.9-3.7-9.3-.8-17.5,1.9-25.4.9-2.5,1.8-5.1,2.5-7.8.3-1.1,1.4-1.7,2.5-1.4,1.1.3,1.7,1.4,1.4,2.5-.7,2.8-1.7,5.5-2.6,8.1-2.8,7.9-5.2,14.7-2,22.6,2.5,6.2,5.5,13.8,5.5,21.1,0,.6-.3,1.2-.7,1.6-.4.3-.8.5-1.3.5Z"/>
        </g>
      </g>
      <g>
        <g>
          <g>
            <path d="M253.1,231.6c1.7,7.1,2,17.4-.2,28.3-85.7,25.8-144.8,0-144.8,0-2.3-10.8-1.9-21.1-.2-28.3,5.4-23.1,10.2-30.9,14.2-59,3.9-27.9,31.5-36.6,31.5-36.6,0,0,32.9-4.8,53.7,0,0,0,26.8,8.8,31.6,36.6,5.6,32.9,8.8,35.9,14.2,59Z" style="fill: #fff;"/>
            <path d="M252.8,259.9c-5.2,24.3-23.9,51.5-72.4,51.5s-67.3-27.1-72.4-51.5c0,0,59.1,25.8,144.8,0Z" style="fill: #4c6599;"/>
          </g>
          <g>
            <path d="M180.4,313.4c-19,0-64.3-5.2-74.4-53.1-2.1-10-2.2-20.7-.2-29.1,2-8.6,3.9-15,5.7-21.2,3.1-10.3,5.9-20,8.5-37.6,4.1-28.8,32.6-38.1,32.9-38.2,1.7-.3,33.8-4.8,54.8,0,1.3.4,28.2,9.6,33.1,38.2,3.5,20.7,6.1,29.5,8.9,38.9,1.6,5.6,3.3,11.4,5.3,20,2,8.5,1.9,19.1-.2,29.1h0c-10.1,47.9-55.4,53.1-74.4,53.1ZM184.3,136c-15.6,0-30.2,2.1-30.4,2.1,0,0-26.1,8.6-29.8,34.9-2.6,17.9-5.5,27.8-8.6,38.2-1.8,6.1-3.7,12.5-5.7,20.9-1.8,7.8-1.7,18,.3,27.4,3.9,18.6,18.3,49.9,70.4,49.9s66.5-31.3,70.4-49.9h0c2-9.4,2.1-19.6.3-27.4-2-8.5-3.7-14.2-5.3-19.7-2.8-9.5-5.4-18.4-9-39.3-4.5-26.3-30-34.9-30.2-35-6.6-1.5-14.6-2-22.4-2Z"/>
            <path d="M177,273.3c-11.1,0-20.9-.8-28.9-1.8-25.5-3.2-40.2-9.5-40.8-9.8-1-.4-1.5-1.6-1-2.6s1.6-1.5,2.6-1c.6.3,59.5,25.1,143.4,0,1.1-.3,2.2.3,2.5,1.3.3,1.1-.3,2.2-1.3,2.5-29.2,8.8-55.3,11.5-76.4,11.5Z"/>
          </g>
        </g>
        <g>
          <path d="M176.1,202.4c.4.3.7.7.9,1.1.1.5,0,1-.1,1.5-2.4,8-5.1,15.9-8,23.7-.2.6-.5,1.2-.4,1.9,0,.7.4,1.3.7,1.9,2.7,4.8,5.8,9.5,9.2,13.8.4.5.7.9,1.3,1.2,4.1,2.1,8.7-7.6,10.2-10.1,1.9-3.1,3.3-5.8,2.5-9.6-.8-3.5-2.8-6.7-4.1-10-1.5-4.1-3.6-9-3.7-13.3s.4-1.3.9-1.9c1.5-1.9,3.2-3.7,4.3-5.8,1.1-2.1,1.7-4.7.9-7-2-5.6-9.9-5.6-13.7-1.9-1.6,1.5-3,3.8-4.3,5.5-2.4,3.4,1,6.4,3.6,8.9Z" style="fill: #4c6599;"/>
          <path d="M180.8,249.9c-.7,0-1.4-.2-2.2-.5-.9-.5-1.5-1.3-1.9-1.8-3.5-4.4-6.6-9.2-9.4-14.1-.4-.6-.9-1.6-1-2.8,0-1.1.3-2,.5-2.7,2.9-7.7,5.6-15.7,8-23.6,0,0,0-.3.1-.4,0,0-.2,0-.3-.2,0,0,0,0,0,0l-.3-.3c-2.6-2.5-6.9-6.6-3.6-11.2l.6-.9c1.2-1.7,2.5-3.5,3.9-4.9,2.6-2.6,6.9-3.7,10.6-2.8,3.1.7,5.4,2.7,6.4,5.6.9,2.6.6,5.6-1,8.6-1,2-2.4,3.6-3.8,5.2l-.8.9c-.3.3-.4.5-.4.6.1,3.4,1.7,7.5,3.1,11.2l.5,1.4c.5,1.2,1,2.4,1.6,3.6,1,2.1,2,4.3,2.6,6.7,1,4.4-.7,7.6-2.7,11.1-.2.3-.4.7-.7,1.2-2.1,3.7-5.6,10.2-10,10.2ZM177.5,200.9c.4.4,1.1,1,1.4,2,.3,1.1,0,2.1-.1,2.7-2.4,8-5.1,16.1-8.1,23.9-.1.4-.3.8-.3,1,0,.2.3.7.5,1,2.7,4.7,5.7,9.3,9,13.6.1.2.4.6.6.6.7.4,2.5-.2,6.8-8,.3-.5.6-1,.8-1.3,1.8-2.9,2.9-5.1,2.2-8.1-.4-2-1.3-3.9-2.3-5.9-.6-1.3-1.2-2.6-1.7-3.9l-.5-1.4c-1.5-3.9-3.2-8.4-3.3-12.6,0-1.5.9-2.6,1.4-3.2l.8-1c1.3-1.5,2.4-2.9,3.3-4.5,1-1.9,1.3-3.9.7-5.4-.7-2-2.3-2.7-3.5-3-2.4-.6-5.2.2-6.9,1.8-1.2,1.1-2.4,2.8-3.4,4.4l-.6.9c-1.1,1.6,0,3.1,3.1,6l.3.3-1.4,1.5,1.4-1.4Z"/>
        </g>
        <g>
          <path d="M147.4,173.4c-.1,9.6,8.3,19.6,15.9,24.2,3.1,1.9,3.7,2.3,6.8.8,3.9-1.9,7.8-5.8,10.7-8.6,3.2,2.5,6.2,9.2,10.3,10.3,5.3,1.5,13.2-7.4,16.3-10.9,4.5-5.1,7.6-11.5,5.3-18.4-4.7-14-20.4-19.5-34-18.8-9.7.5-22.5,4.5-28.4,12.7-2,2.8-2.9,5.7-2.9,8.8Z" style="fill: #fff;"/>
          <path d="M192.4,202.3c-.6,0-1.2,0-1.8-.3-3.1-.9-5.4-3.9-7.6-6.8-.7-1-1.4-1.9-2.1-2.6-2.8,2.7-6.2,5.9-9.9,7.7-3.9,1.8-5.2,1.2-8.5-.8-8.7-5.2-17.2-15.8-17.1-26.1h0c0-3.6,1.1-7,3.3-9.9,6.3-8.7,19.6-13,30-13.5,14.3-.7,31,5.3,36,20.2,2.2,6.6.3,13.6-5.7,20.4-4.9,5.6-11.1,11.8-16.5,11.8ZM180.8,187.8c.4,0,.9.1,1.3.4,1.4,1.1,2.7,2.8,4,4.6,1.7,2.3,3.7,4.9,5.5,5.4,1.9.5,5.9-.8,14.2-10.3,5-5.7,6.6-11.2,4.9-16.4-4.4-12.9-19.2-18.1-32-17.5-9.1.4-21.4,4.3-26.9,11.8-1.6,2.3-2.5,4.8-2.5,7.6,0,8.7,7.6,18,14.9,22.5q2.8,1.7,4.9.7c3.2-1.5,6.4-4.7,9.1-7.2l1.1-1.1c.4-.4.9-.6,1.4-.6Z"/>
        </g>
        <path d="M223.1,223.6c-.5,0-1,0-1.5-.1-14.2-2-13-23.3-13-24.2,0-1,.9-1.9,2-1.9l21-.6s0,0,0,0c1,0,1.9.8,2,1.8.2,1.7,1.6,16.6-4.5,22.5-1.7,1.6-3.7,2.4-6.1,2.4ZM212.6,201.4c0,4.7,1,16.9,9.5,18.1,1.8.2,3.1-.1,4.3-1.2,3.5-3.4,3.7-12.4,3.4-17.3l-17.2.5Z"/>
      </g>
      <g>
        <g>
          <path d="M180.4,139.9h0c-58.9,0-61.8,7.2-61.8,7.2,0,0,2.8,33.9,61.8,33.9s61.8-33.9,61.8-33.9c0,0-2.8-7.2-61.8-7.2Z" style="fill: #67d21b;"/>
          <path d="M180.4,183c-60.1,0-63.7-34.3-63.8-35.7,0-.3,0-.6.1-.9.8-2,7.7-8.5,63.6-8.5h0c55.9,0,62.9,6.5,63.6,8.5.1.3.2.6.1.9-.1,1.5-3.7,35.7-63.8,35.7ZM120.8,147.8c.9,5.3,8.2,31.1,59.6,31.1s58.7-25.8,59.6-31.1c-2.1-1.3-12.7-5.9-59.6-5.9s-57.5,4.6-59.6,5.9Z"/>
        </g>
        <g>
          <path d="M253.6,77.6c-1.3-16.4-5.7-55.8-25.1-61.2-10.7-3-30.9.3-34,11.6-12.4-2-16-1.6-28.2,0-3-11.4-23.3-14.6-34-11.6-19.4,5.4-25.1,44.8-25.1,61.2,0,0-5.2,40.2,63.7,40.2s84.1-22.9,82.7-40.2Z" style="fill: #67d21b;"/>
          <path d="M170.9,119.9c-27.3,0-46.5-6.2-57.2-18.3-10-11.4-8.5-23.6-8.4-24.2,0-14.2,4.9-56.8,26.5-62.9,7.3-2,19.7-1.5,28.3,3.4,3.7,2.1,6.2,4.8,7.6,8,10.5-1.4,14.6-1.7,25.4,0,1.3-3.1,3.9-5.8,7.5-7.9,8.7-4.9,21-5.4,28.3-3.4,14.5,4.1,23.5,25.3,26.6,63h0c.5,5.6-.5,13.9-7.8,21.8-12.6,13.7-38.5,20.6-76.9,20.6ZM141,17.4c-3,0-5.8.3-8.1,1-17.7,4.9-23.6,42.8-23.6,59.3,0,.4-1.3,11.4,7.5,21.3,9.9,11.2,28.1,16.9,54.1,16.9,46.4,0,65.8-10.5,73.9-19.3,6.3-6.8,7.1-13.9,6.8-18.7h0c-3.7-44.7-14.9-57-23.6-59.5-6.6-1.8-17.8-1.2-25.2,3-3.4,1.9-5.5,4.4-6.3,7.2-.3,1-1.3,1.6-2.3,1.5-12.1-2-15.4-1.6-27.6,0-1,.1-1.9-.5-2.2-1.5-.8-2.8-2.9-5.2-6.3-7.2-4.9-2.8-11.4-4-17.1-4Z"/>
        </g>
        <g>
          <g>
            <path d="M162.8,47.1c-2.9,11-14.2,17.6-25.3,14.7-11-2.9-17.2-13.6-14.3-24.6,2.9-11,11.8-12.8,23.7-11.2,11.3,1.5,18.7,10,15.8,21.1Z" style="fill: #fff;"/>
            <path d="M142.8,64.6c-1.9,0-3.9-.3-5.8-.8-5.9-1.5-10.7-5.2-13.6-10.2-2.9-5-3.7-11-2.1-16.9,3.6-13.9,15.8-14,25.9-12.7,6.7.9,12.2,4,15.3,8.8,2.8,4.2,3.6,9.4,2.2,14.8-1.5,5.9-5.3,10.8-10.5,13.8-3.5,2-7.4,3.1-11.4,3.1ZM140,27.6c-8.5,0-13,3.2-14.8,10.2-1.3,4.8-.7,9.7,1.7,13.8,2.4,4.1,6.3,7.1,11.1,8.3,4.8,1.3,9.8.6,14.1-1.9,4.3-2.5,7.4-6.5,8.6-11.4h0c1.1-4.3.6-8.2-1.6-11.5-2.5-3.7-7.1-6.3-12.5-7.1-2.4-.3-4.7-.5-6.6-.5Z"/>
          </g>
          <circle cx="143.1" cy="44" r="10.2"/>
          <path d="M145.7,37.6c-1,0-2.1-.2-2.9.7-.7.9-.6,2.2,0,3,.8.9,2.3,1.2,3.1,2.1.8.9,1.9,2,3,.7,1.1-1.3.7-3.7-.3-4.9s-1.6-1.1-3.1-1.5Z" style="fill: #fff;"/>
        </g>
        <g>
          <g>
            <path d="M198.1,47.1c2.9,11,14.2,17.6,25.3,14.7,11-2.9,17.2-13.6,14.3-24.6-2.9-11-11.8-12.8-23.7-11.2-11.3,1.5-18.7,10-15.8,21.1Z" style="fill: #fff;"/>
            <path d="M218.1,64.6c-10.1,0-19.3-6.7-21.9-16.9h0c-1.4-5.4-.7-10.5,2.2-14.8,3.2-4.8,8.6-7.9,15.3-8.8,10.1-1.4,22.3-1.2,25.9,12.7,3.2,12.2-3.5,23.9-15.7,27.1-1.9.5-3.9.8-5.8.8ZM200.1,46.6c2.6,9.9,12.8,15.9,22.8,13.3,4.8-1.3,8.8-4.2,11.1-8.3,2.4-4.1,3-9,1.7-13.8-2.3-8.7-8.5-11.5-21.5-9.7-5.5.7-10,3.3-12.5,7.1-2.2,3.3-2.7,7.2-1.6,11.5h0Z"/>
          </g>
          <circle cx="217.8" cy="44" r="10.2"/>
          <path d="M220.3,37.6c-1,0-2.1-.2-2.9.7s-.6,2.2,0,3c.8.9,2.3,1.2,3.1,2.1.8.9,1.9,2,3,.7,1.1-1.3.7-3.7-.3-4.9s-1.6-1.1-3.1-1.5Z" style="fill: #fff;"/>
        </g>
        <g>
          <path d="M242.2,68.9c-19.1-9.3-40.7-11.9-61.7-11.9s-42.7,2.6-61.7,11.9c-18.5,9-25.2,27-24.8,49.4.3,16.8,12.3,30.3,25.9,32.3,11.1,1.7,32.5,4.1,60.6,4.1,28.1,0,49.5-2.4,60.6-4.1,13.6-2.1,25.6-15.5,25.9-32.3.4-22.4-6.3-40.4-24.8-49.4Z" style="fill: #67d21b;"/>
          <path d="M180.4,156.7c-29.3,0-50.7-2.6-60.9-4.2-15.2-2.3-27.3-17.4-27.6-34.3-.4-25.4,8.3-42.6,25.9-51.2,16.7-8.2,37.2-12.1,62.6-12.1s45.9,4,62.6,12.1h0c17.6,8.6,26.3,25.8,25.9,51.2-.3,16.9-12.4,32-27.6,34.3-10.2,1.6-31.6,4.2-60.9,4.2ZM180.4,59c-24.8,0-44.7,3.8-60.8,11.7-16.3,8-24.1,23.5-23.6,47.5.3,15,10.9,28.4,24.2,30.4,10.1,1.5,31.3,4.1,60.3,4.1s50.2-2.6,60.3-4.1c13.3-2,23.9-15.4,24.2-30.4.4-24-7.3-39.6-23.7-47.5h0c-16.1-7.9-36-11.7-60.8-11.7Z"/>
        </g>
        <g>
          <path d="M194.9,81.4s4.5-5.8,7.4-5.8" style="fill: #67d21b;"/>
          <path d="M194.9,83.4c-.4,0-.9-.1-1.2-.4-.9-.7-1-2-.3-2.8,1.2-1.5,5.4-6.5,8.9-6.5s2,.9,2,2-.9,2-2,2-3.8,2.4-5.8,5c-.4.5-1,.8-1.6.8Z"/>
        </g>
        <g>
          <path d="M166,81.4s-4.5-5.8-7.4-5.8" style="fill: #67d21b;"/>
          <path d="M166,83.4c-.6,0-1.2-.3-1.6-.8-2-2.6-4.8-5-5.8-5s-2-.9-2-2,.9-2,2-2c3.5,0,7.7,5,8.9,6.5.7.9.5,2.1-.3,2.8-.4.3-.8.4-1.2.4Z"/>
        </g>
      </g>
    </g>
  </g>
</svg>