<?xml version="1.0" encoding="utf-8"?>
<!-- Generator: Adobe Illustrator 26.5.0, SVG Export Plug-In . SVG Version: 6.00 Build 0)  -->
<svg version="1.1" id="레이어_5" xmlns="http://www.w3.org/2000/svg" xmlns:xlink="http://www.w3.org/1999/xlink" x="0px"
	 y="0px" viewBox="0 0 390 390" style="enable-background:new 0 0 390 390;" xml:space="preserve">
<g>
	<path style="fill:#704A1C;" d="M149.1,340.7c0,0.3-0.3,0.5-0.5,0.5s-20.1,2.1-24.6,15.6c-1.6,5-1.9,11.1,1.9,15.3
		c4.8,5.8,15.9,5.6,22.7,6.1c5.8,0.5,11.6,0.3,17.2-0.8c3.2-0.5,6.6-1.3,9.3-2.9c6.1-3.4,5-10.8,5.3-16.9c0-1.1,0.5-15.3,0.8-15.3
		C181.4,342.2,149.1,340.7,149.1,340.7z"/>
	<path d="M154.4,380c-2,0-4-0.1-6-0.3c-0.9-0.1-1.9-0.1-3-0.2c-6.9-0.4-16.2-0.9-20.8-6.4c-3.4-3.9-4.2-10.1-2.1-16.7
		c4.4-13.1,21.7-16.1,25.4-16.6c0.1-0.1,0.1-0.1,0.2-0.2c0.3-0.3,0.7-0.4,1.1-0.4l30.6,1.5c0.4,0,0.8,0,1.1,0.1c0.1,0,0.1,0,0.2,0
		l0,0c1,0.1,1.5,0.5,1.5,1.5c0,0.2,0,0.3-0.1,0.5c-0.2,1.7-0.7,13.7-0.7,14.8c0,1-0.1,2-0.1,3c-0.1,5.6-0.1,12-6,15.3
		c-3,1.8-6.8,2.6-9.7,3.1C162.3,379.6,158.4,380,154.4,380z M149.9,342.2c-0.4,0.3-0.8,0.5-1.3,0.5c-0.1,0-19,2-23.2,14.6
		c-0.8,2.7-2.4,9.4,1.6,13.9c3.7,4.5,12.3,5,18.6,5.4c1.1,0.1,2.1,0.1,3.1,0.2c5.7,0.5,11.4,0.3,16.8-0.8c2.7-0.5,6.2-1.2,8.8-2.7
		c4.4-2.5,4.5-7.5,4.5-12.7c0-1,0-2,0.1-3c0-0.5,0.1-4.4,0.3-8.1c0.1-1.9,0.2-3.7,0.3-5.1c0-0.3,0-0.5,0-0.7
		C174.5,343.4,159.2,342.7,149.9,342.2z M181.6,343.7c-0.1,0-0.3,0.1-0.5,0.1C181.3,343.7,181.4,343.7,181.6,343.7z M148.6,339.7
		c-0.1,0-0.1,0-0.2,0C148.5,339.7,148.6,339.7,148.6,339.7z"/>
</g>
<g>
	<path d="M181.1,347.5c0-3.2,4.8-57.7,5.3-65.6l-27.5-6.1l-9.3,63.5l-0.3,1.3c0,0,4.5,14.3,31.7,8.7v-1.8H181.1z"/>
	<path d="M169.5,352.2c-17.8,0-21.3-10.5-21.5-11.1c-0.1-0.2-0.1-0.5,0-0.7l0.3-1.3l9.2-63.4c0.1-0.4,0.3-0.8,0.6-1s0.8-0.3,1.2-0.2
		l27.5,6.1c0.7,0.2,1.2,0.8,1.2,1.6c-0.2,3.3-1.2,14.9-2.2,27.1c-1.4,16.3-3.1,36.6-3.1,38.3v1.9c0,0.7-0.5,1.3-1.2,1.5
		C176.9,351.8,172.9,352.2,169.5,352.2z M181.1,349.4L181.1,349.4L181.1,349.4z M150.9,340.5c0.8,2,6.2,11.8,28.7,7.6v-0.6
		c0-1.9,1.6-20.6,3.1-38.6c0.9-11,1.8-21.4,2.1-25.8l-24.7-5.5l-9,61.9L150.9,340.5z"/>
</g>
<g>
	<g>
		<path style="fill:#704A1C;" d="M212.1,342.2c0.3,0,0.8,14.3,0.8,15.3c0.3,6.1-0.8,13.5,5.3,16.9c2.9,1.6,6.1,2.4,9.3,2.9
			c5.8,1.1,11.6,1.1,17.2,0.8c6.9-0.5,18-0.5,22.7-6.1c3.7-4.2,3.4-10.3,1.9-15.3c-4.2-13.5-24.3-15.6-24.6-15.6s-0.5-0.3-0.5-0.5
			C244.3,340.7,212.1,342.2,212.1,342.2z"/>
		<path d="M239,379.9c-3.7,0-7.8-0.2-11.9-1c-2.7-0.5-6.3-1.2-9.7-3.1c-5.9-3.3-6-9.7-6-15.3c0-1,0-2-0.1-2.9
			c0-1.2-0.5-13.2-0.7-14.9c-0.1-0.1-0.1-0.3-0.1-0.5c0-0.8,0.6-1.5,1.4-1.5c10.7-0.5,31.1-1.5,31.9-1.6h0.1c0.5,0,0.9,0.2,1.2,0.6
			c3.7,0.5,21.2,3.4,25.4,16.6c2.1,6.7,1.3,12.8-2.2,16.8c-4.6,5.4-14.2,6-21.2,6.4c-0.9,0.1-1.8,0.1-2.6,0.2
			C243,379.8,241,379.9,239,379.9z M213.7,343.7c0,0.2,0,0.5,0,0.7c0.1,1.4,0.2,3.2,0.3,5.1c0.2,3.7,0.3,7.6,0.3,8.1
			c0,0.9,0,1.9,0.1,2.9c0,5.3,0.1,10.2,4.5,12.7c2.3,1.3,5,2.1,8.8,2.7c6.1,1.1,12.2,1,16.9,0.8c0.8-0.1,1.6-0.1,2.6-0.2
			c6.5-0.4,15.3-1,19.1-5.4c3.9-4.5,2.4-11.2,1.6-13.9c-3.9-12.5-23.1-14.5-23.3-14.6l0,0c-0.4,0-0.9-0.2-1.2-0.5
			c-0.2,0-0.3,0-0.5,0L213.7,343.7z M211.6,343.7c0.1,0.1,0.3,0.1,0.5,0.1C211.9,343.7,211.7,343.7,211.6,343.7z M244.6,339.7
			c0,0,0.1,0,0.2,0C244.7,339.7,244.7,339.7,244.6,339.7z"/>
	</g>
	<g>
		<path d="M212.3,347.5c0-3.2-4.8-57.7-5.3-65.6l27.5-6.1l9.3,63.5l0.3,1.3c0,0-4.5,14.3-31.7,8.7v-1.8H212.3z"/>
		<path d="M224,352.2c-3.4,0-7.4-0.4-12-1.3c-0.7-0.1-1.2-0.8-1.2-1.5v-1.9c0-1.8-1.7-22.1-3.1-38.4c-1-12.2-2-23.8-2.2-27.1
			c0-0.7,0.4-1.4,1.2-1.6l27.5-6.1c0.4-0.1,0.8,0,1.2,0.2c0.3,0.2,0.6,0.6,0.6,1l9.3,63.5l0.2,1.2c0,0.2,0,0.5,0,0.7
			C245.3,341.6,241.8,352.2,224,352.2z M213.8,348.1c22.3,4.2,27.8-5.7,28.7-7.6l-0.2-0.9l-9-62l-24.7,5.5
			c0.3,4.4,1.2,14.8,2.1,25.8c1.5,18,3.1,36.7,3.1,38.6L213.8,348.1L213.8,348.1z"/>
	</g>
</g>
<g>
	<g>
		<path style="fill:#2C4F9E;" d="M198.3,140.2c-13.8,0-26.7,1.9-26.7,1.9c-0.3,0-23.8,7.7-27.2,31.5c-2.1,15.6-4.8,24.3-7.4,33.3
			c-1.6,5.3-3.2,11.1-5,18.5c-2.9,12.7-0.8,33.1,10.8,47.9c11.1,14,28.8,21.2,52.1,21.2s41-7.1,52.1-21.2
			c11.6-14.8,14-35.2,10.8-47.9c-1.9-7.4-3.2-12.4-4.8-17.5c-2.4-8.2-4.8-16.1-7.9-34.4c-3.4-23.5-26.4-31.5-26.7-31.5
			C212.3,140.7,205.2,140.2,198.3,140.2z"/>
		<path d="M194.9,295.9c-23.9,0-41.9-7.3-53.3-21.7C129.7,259,127.5,238,130.5,225c1.8-7.3,3.4-13.2,5.1-18.6l0.2-0.8
			c2.6-8.9,5.1-17.3,7.1-32.3c3.5-23.9,26.1-32,28.5-32.7l0,0c0.1,0,13.2-1.9,26.9-1.9c7.7,0,14.7,0.7,20.4,1.9l0,0
			c3.2,0.7,24.6,10.1,27.9,32.7c3,17.5,5.4,25.6,7.6,33.3l0.2,0.8c1.6,5.1,2.9,10.1,4.8,17.5c3.2,12.8,1.1,33.6-11.1,49.2
			C236.7,288.6,218.8,295.9,194.9,295.9z M171.9,143.5c-1.1,0.4-22.8,8-26.1,30.2c-2.1,15.2-4.7,24.1-7.2,32.7l-0.2,0.8
			c-1.6,5.4-3.2,11.3-5,18.5c-2.8,12.3-0.7,32.2,10.6,46.6c10.8,13.7,28,20.6,50.9,20.6c23,0,40.1-6.9,50.9-20.6
			c11.1-14.1,13.7-34.1,10.6-46.6c-1.8-7.4-3.1-12.3-4.7-17.4l-0.3-0.9c-2.3-7.9-4.6-16-7.7-33.7c-3.2-22.2-24.8-30-25.6-30.3
			c-5.5-1.2-12.3-1.8-19.8-1.8C185.4,141.7,173,143.4,171.9,143.5z"/>
	</g>
	<g>
		<path d="M132.7,252.6c0,0,29.1,11.4,65.1,10c0,0,25.1-1.1,36.8-4.2c0,0,21.2-4.8,22.7-5.8c0,0-5,22-21.4,31.5
			c0,0-14.5,11.4-40.7,10.8c0,0-25.4,0.5-40.7-10.6C154.1,284.1,137.2,273.7,132.7,252.6z"/>
		<path d="M196.9,296.4c-0.6,0-1.2,0-1.8,0c-1,0-26,0.4-41.6-10.9l-0.2-0.1c-5.3-3.6-18.1-14.1-22.1-32.5l-0.6-2.7l2.6,1
			c0.3,0.1,29.2,11.2,64.5,9.9c0.2,0,25.1-1.1,36.4-4.2c8.5-1.9,21-4.9,22.3-5.6l3.1-2.1l-0.9,3.7c-0.2,0.9-5.3,22.6-22,32.4
			C235.4,286.3,221.5,296.4,196.9,296.4z M195.1,293.4c25.3,0.5,39.7-10.4,39.8-10.5l0.2-0.1c12.3-7.1,18-21.8,19.9-27.8
			c-5.2,1.5-15.2,3.8-20.2,4.9c-11.6,3.2-36,4.2-37,4.3c-29.7,1.1-55-6.5-63-9.2c4.4,16.2,16.4,25.4,20.2,28
			c0.1,0.1,0.2,0.1,0.3,0.2l0,0C170,293.8,194.8,293.4,195.1,293.4z"/>
	</g>
</g>
<g>
	<g>
		<path style="fill:#704A1C;" d="M258.6,252.1c-74.3,24.1-127.5,0-127.5,0c-1.9-4.2,0-17.2,0-17.2s53.2,24.3,127.5,0
			C258.6,234.9,259.4,251.8,258.6,252.1z"/>
		<path d="M192.3,264.2c-9.8,0-18.4-0.7-25.5-1.7c-22.5-3-35.7-8.9-36.3-9.1c-0.3-0.2-0.6-0.4-0.8-0.8c-2-4.5-0.3-16.6-0.1-18
			c0.1-0.5,0.4-0.9,0.8-1.1c0.4-0.2,0.9-0.2,1.3,0c0.5,0.2,53.5,23.8,126.4-0.1c0.4-0.1,0.9-0.1,1.3,0.2s0.6,0.7,0.6,1.2
			c0.8,18.1,0.2,18.3-1,18.7l0,0C233.7,261.7,210.9,264.2,192.3,264.2z M132.3,250.9c5.9,2.4,56.6,21.8,125.1-0.1
			c0.2-2,0.1-8.1-0.2-14c-24,7.6-45.9,10.2-64.4,10.2c-32,0-54.1-7.6-60.4-10.1C131.9,241.1,131.4,247.9,132.3,250.9z M258.6,252.1
			L258.6,252.1L258.6,252.1z"/>
	</g>
	<g>
		<path style="fill:#8A8A8A;" d="M202.5,244.4h-16.1c-1.9,0-3.7,1.6-3.7,3.7v9.8c0,1.9,1.6,3.7,3.7,3.7h16.1c1.9,0,3.7-1.6,3.7-3.7
			v-9.8C206,246,204.4,244.4,202.5,244.4z M201,255.2c0,1.1-0.8,1.6-1.9,1.6h-9.3c-1.1,0-1.9-0.8-1.9-1.6v-4.5
			c0-1.1,0.8-1.6,1.9-1.6h9.3c1.1,0,1.9,0.8,1.9,1.6V255.2z"/>
		<path d="M202.5,263.2h-16.1c-2.9,0-5.3-2.4-5.3-5.3v-9.8c0-2.9,2.4-5.3,5.3-5.3h16.1c2.9,0,5.3,2.4,5.3,5.3v9.8
			C207.6,260.8,205.2,263.2,202.5,263.2z M186.1,246c-1.1,0-2.1,0.8-2.1,2.1v9.8c0,1.1,0.8,2.1,2.1,2.1h16.1c1.1,0,2.1-0.8,2.1-2.1
			v-9.8c0-1.1-0.8-2.1-2.1-2.1L186.1,246L186.1,246z M198.8,258.7h-9.3c-1.9,0-3.4-1.6-3.4-3.2V251c0-1.9,1.6-3.2,3.4-3.2h9.3
			c1.9,0,3.4,1.6,3.4,3.2v4.5C202.5,257.1,201,258.7,198.8,258.7z M189.8,250.7c-0.3,0-0.3,0-0.3,0.3v4.5h0.3h9.3
			c0.3,0,0.3,0,0.3-0.3v-4.5h-0.3H189.8z"/>
	</g>
	<g>
		<path style="fill:#8A8A8A;" d="M207.8,255h-8.2c-1.1,0-1.9-0.8-1.9-1.9l0,0c0-1.1,0.8-1.9,1.9-1.9h8.2c1.1,0,1.9,0.8,1.9,1.9l0,0
			C209.7,254.2,208.9,255,207.8,255z"/>
		<path d="M207.8,256.6h-8.2c-1.9,0-3.4-1.6-3.4-3.4s1.6-3.4,3.4-3.4h8.2c1.9,0,3.4,1.6,3.4,3.4C211.3,255,209.7,256.6,207.8,256.6z
			 M199.6,252.6c-0.3,0-0.3,0.3-0.3,0.3c0,0.3,0.3,0.3,0.3,0.3h8.2c0.3,0,0.3-0.3,0.3-0.3c0-0.3-0.3-0.3-0.3-0.3H199.6z"/>
	</g>
</g>
<g>
	<path d="M191.2,204.2c0.3,0.3,0.5,0.5,0.8,1.1c0,0.5,0,0.8,0,1.3c-2.1,7.1-4.5,14-7.1,20.9c-0.3,0.5-0.5,1.1-0.3,1.6
		c0,0.5,0.3,1.1,0.5,1.6c2.4,4.2,5,8.2,7.9,12.2c0.3,0.5,0.5,0.8,1.1,1.1c3.7,1.9,7.7-6.6,9-9c1.6-2.6,2.9-5,2.1-8.5
		c-0.8-3.2-2.4-5.8-3.4-8.7c-1.3-3.4-3.2-7.9-3.2-11.6c0-0.5,0.3-1.1,0.8-1.6c1.3-1.6,2.9-3.2,3.7-5c0.8-1.9,1.6-4.2,0.8-6.1
		c-1.9-5-8.7-5-11.9-1.6c-1.3,1.3-2.6,3.2-3.7,4.8C185.9,199.4,188.8,202.1,191.2,204.2z"/>
	<g>
		<path style="fill:#2C4F9E;" d="M165.8,178.8c0,8.5,7.1,17.2,14,21.2c2.6,1.6,3.2,2.1,6.1,0.8c3.4-1.6,6.9-5,9.5-7.7
			c2.9,2.1,5.6,7.9,9,9c4.8,1.3,11.6-6.6,14.3-9.5c4-4.5,6.6-10,4.8-16.1c-4.2-12.2-18-17.2-29.9-16.7c-8.7,0.5-19.8,4.2-25.1,11.4
			C166.6,173.5,165.8,176.2,165.8,178.8z"/>
		<path d="M205.4,203.9c-0.5,0-1.1,0-1.6-0.3c-2.6-0.8-4.8-3.4-6.6-5.8c-0.8-0.8-1.3-1.9-1.9-2.4c-2.4,2.4-5.6,5.3-8.7,6.9
			c-3.2,1.6-4.5,1.1-7.4-0.8c-7.7-4.5-15.1-13.8-14.8-22.7l0,0c0-3.2,1.1-6.1,2.9-8.7c5.6-7.7,17.2-11.4,26.2-11.9
			c12.4-0.5,27,4.8,31.5,17.7c1.9,5.8,0.3,11.9-5,17.7C215.5,198.6,209.9,203.9,205.4,203.9z M195.1,191.2l1.1,0.8
			c1.3,1.1,2.4,2.4,3.4,4c1.6,2.1,3.2,4.2,5,4.8c2.4,0.8,6.9-2.4,12.7-9c4.5-5,5.8-10,4.2-14.5c-4-11.4-16.9-15.9-28.3-15.3
			c-8.2,0.3-18.8,3.7-23.8,10.6c-1.6,2.1-2.1,4.2-2.4,6.9c0,7.7,6.9,15.9,13.2,19.8c2.6,1.6,2.6,1.6,4.5,0.5
			c2.9-1.3,5.8-4.2,7.9-6.3L195.1,191.2z"/>
	</g>
</g>
<path d="M159.7,215.3c-0.3,0-0.3,0-0.5,0l-13-4.5c-0.8-0.3-1.3-1.1-1.1-1.9l2.1-9.3c0.3-0.8,0.8-1.3,1.6-1.3l26.2,2.4
	c0.8,0,1.3,0.8,1.3,1.6v9.3c0,0.8-0.5,1.6-1.3,1.6L159.7,215.3L159.7,215.3z M148.6,208.2l11.4,3.7l13.5-1.9v-6.3l-23.5-1.9
	L148.6,208.2z"/>
<g>
	<g>
		<path style="fill:#595959;" d="M245.3,169.4c1.1-0.3,2.3-0.5,3.6-0.7c10.8-1.3,20.7,8.9,28.1,15.8c19.1,17.9,27.6,43.3,12.6,68.7
			c-4.5,7.5-10.9,16.2-18.6,20.1c-3.2,1.6-7.1,1.9-10.7,1.6c-6.7-0.6-13.9-3.6-16-9.5c-1.6-4.6,0.4-9.6,3.2-13.7
			c3.7-5.4,8.8-9.9,12.9-15.1c5.1-6.5,7.6-15.6,3.9-22.9c-3.6-7.3-8.7-11.1-14.4-17.1c-4.9-5.1-10.4-9.2-12.1-16.2
			C236.1,174,239.8,170.8,245.3,169.4z"/>
		<path d="M263,276.6c-0.9,0-1.8,0-2.8-0.1c-6.8-0.6-15-3.7-17.4-10.6c-1.9-5.6,0.8-11.3,3.4-15.1c2.2-3.2,4.9-6.1,7.4-8.9
			c1.9-2,3.8-4.1,5.5-6.3c5.3-6.8,6.8-15.1,3.8-21.1c-2.7-5.4-6.2-8.8-10.3-12.8c-1.2-1.2-2.5-2.5-3.9-3.9c-0.9-1-1.9-1.9-2.8-2.8
			c-4-3.9-8.2-8-9.7-14.1c-1.7-6.5,1.4-11.2,8.7-13c1.2-0.3,2.4-0.5,3.8-0.7c10.9-1.3,20.8,8.1,28.1,14.9l1.4,1.3
			c22,20.7,26.8,47.1,12.9,70.7c-6.2,10.4-12.6,17.4-19.3,20.7C269.3,276,266.4,276.6,263,276.6z M250.8,170.3c-0.6,0-1.1,0-1.7,0.1
			c-1.2,0.1-2.4,0.4-3.4,0.6h0c-7.3,1.9-7.1,6-6.3,9c1.3,5.2,5,8.7,8.8,12.5c1,0.9,1.9,1.9,2.9,2.9c1.3,1.4,2.6,2.6,3.8,3.8
			c4.3,4.2,8,7.9,10.9,13.7c3.6,7.2,2,16.9-4.1,24.7c-1.8,2.3-3.7,4.4-5.7,6.5c-2.5,2.7-5.1,5.5-7.1,8.5c-2.2,3.2-4.5,7.9-3,12.2
			c1.9,5.5,9,7.9,14.5,8.4c4,0.3,7.3-0.1,9.8-1.4c6-3,12.1-9.7,17.9-19.4c6.9-11.7,9-23.7,6.3-35.9c-2.5-11-8.9-21.6-18.6-30.7
			l-1.4-1.3C267.8,178.1,259.5,170.3,250.8,170.3z"/>
	</g>
	<g>
		<path style="fill:#274DA3;" d="M283.6,262.1c1.1-1.6,5.1-7.3,6-8.9c15-25.4,6.5-50.7-12.6-68.7c-7.4-7-17.3-17.1-28.1-15.8
			c-1.3,0.2-2.5,0.4-3.6,0.7c-5.5,1.4-9.2,4.6-7.5,11c1.8,7,7.3,11.1,12.1,16.2c5.7,6,10.8,9.8,14.4,17.1c3.6,7.3,1.2,16.4-3.9,22.9
			c-2,2.6-4.3,5-6.6,7.4L283.6,262.1z"/>
		<path d="M284.1,264.4l-32.9-19.9l2.4-2.6c1.9-2,3.8-4.1,5.5-6.3c5.3-6.8,6.8-15.1,3.8-21.1c-2.7-5.4-6.2-8.8-10.3-12.8
			c-1.2-1.2-2.5-2.5-3.9-3.9c-0.9-1-1.9-1.9-2.8-2.8c-4-3.9-8.2-8-9.7-14.1c-1.7-6.5,1.4-11.2,8.7-13c1.2-0.3,2.4-0.5,3.8-0.7
			c10.9-1.3,20.8,8.1,28.1,14.9l1.4,1.3c22,20.7,26.8,47.1,12.9,70.7c-0.7,1.2-3,4.6-4.7,7c-0.6,0.8-1.1,1.5-1.3,2L284.1,264.4z
			 M256.4,243.7l26.7,16.2c0.1-0.2,0.3-0.4,0.5-0.7c1.6-2.3,3.9-5.7,4.6-6.8c6.9-11.7,9-23.7,6.3-35.9c-2.5-11-8.9-21.6-18.6-30.7
			l-1.4-1.3c-7.1-6.8-16-15.2-25.4-14c-1.2,0.1-2.4,0.4-3.4,0.6c-7.3,1.9-7.1,6-6.3,9c1.3,5.2,5,8.7,8.8,12.5c1,0.9,1.9,1.9,2.9,2.9
			c1.3,1.4,2.6,2.6,3.8,3.8c4.3,4.2,8,7.9,10.9,13.7c3.6,7.2,2,16.9-4.1,24.7C260,239.8,258.2,241.8,256.4,243.7z"/>
	</g>
	<g>
		<line style="fill:#D7BA9A;" x1="296.5" y1="235.4" x2="265.8" y2="224.5"/>
		<path d="M296.5,237.1c-0.2,0-0.4,0-0.6-0.1L265.2,226c-0.9-0.3-1.3-1.3-1-2.1c0.3-0.9,1.3-1.3,2.1-1l30.7,10.9
			c0.9,0.3,1.3,1.3,1,2.1C297.8,236.6,297.1,237.1,296.5,237.1z"/>
	</g>
	<g>
		<g>
			<path style="fill:#FFC800;" d="M273.1,178c0,0,5.7,4.4,8,6.9l-12,8.4l-7.4-6.3L273.1,178z"/>
			<path d="M269.1,194.9c-0.4,0-0.8-0.1-1.1-0.4l-7.4-6.3c-0.4-0.3-0.6-0.8-0.6-1.3c0-0.5,0.3-1,0.6-1.3l11.5-8.9
				c0.6-0.5,1.4-0.5,2,0c0.2,0.2,5.9,4.6,8.2,7c0.3,0.4,0.5,0.8,0.4,1.3c-0.1,0.5-0.3,0.9-0.7,1.2l-12,8.4
				C269.7,194.8,269.4,194.9,269.1,194.9z M264.3,186.9l4.9,4.2l9.3-6.5c-1.7-1.6-4.1-3.5-5.4-4.5L264.3,186.9z"/>
		</g>
		<g>
			<line style="fill:#FFC800;" x1="273.5" y1="183.4" x2="269.4" y2="186.3"/>
			<path d="M269.4,188c-0.5,0-1-0.2-1.4-0.7c-0.5-0.7-0.4-1.8,0.4-2.3l4.1-3c0.7-0.5,1.8-0.4,2.3,0.4c0.5,0.7,0.4,1.8-0.4,2.3
				l-4.1,3C270.1,187.9,269.8,188,269.4,188z"/>
		</g>
		<g>
			<path d="M273.1,178c0,0-9-9.2-15.9-10.3l-11.1,8.9c0,0,12.5,7.6,15.6,10.3L273.1,178z"/>
			<path d="M261.6,188.5c-0.4,0-0.8-0.1-1.1-0.4c-2.9-2.5-15.2-10-15.3-10.1c-0.5-0.3-0.8-0.8-0.8-1.3c0-0.5,0.2-1.1,0.6-1.4
				l11.1-8.9c0.4-0.3,0.8-0.4,1.3-0.3c7.4,1.2,16.5,10.4,16.8,10.8c0.3,0.3,0.5,0.8,0.5,1.3c0,0.5-0.3,0.9-0.6,1.2l-11.5,8.9
				C262.4,188.4,262,188.5,261.6,188.5z M249,176.4c3.3,2,9.6,6,12.7,8.3l8.9-6.9c-2.6-2.4-8.2-7.3-12.9-8.4L249,176.4z"/>
		</g>
	</g>
	<g>
		<polygon style="fill:#FFC800;" points="294.1,243.7 264.3,229.9 260.4,236.6 290.9,250.9 		"/>
		<path d="M290.9,252.6c-0.2,0-0.5-0.1-0.7-0.2l-30.6-14.3c-0.4-0.2-0.7-0.6-0.9-1c-0.1-0.4-0.1-0.9,0.2-1.3l3.9-6.7
			c0.4-0.7,1.4-1,2.1-0.7l29.9,13.8c0.8,0.4,1.2,1.4,0.8,2.2l-3.2,7.2c-0.2,0.4-0.5,0.7-0.9,0.9
			C291.3,252.5,291.1,252.6,290.9,252.6z M262.7,235.9l27.4,12.8l1.9-4.1l-27-12.5L262.7,235.9z"/>
	</g>
</g>
<g>
	<g>
		<g>
			<g>
				<path style="fill:#595959;" d="M275,115.1c-2.1-5-3.7-10.3-4-15.9c-2.4-29.6-13.2-40.2-25.1-49.7C230.6,37,207.3,37.8,198,38.6
					c-2.1,0.3-4,0.3-6.1,0c-9.3-0.5-32.5-1.6-47.9,10.8c-11.8,9.6-22.7,20.2-25,49.8c-0.5,5.6-1.9,10.8-4,15.9
					c-2.9,6.9-3.4,16.7-2.4,22c6.1,27,27.5,42.6,54.2,49.7c9,2.4,18.5,3.7,28,3.7c9.5-0.3,19-1.3,28-3.7
					c26.7-7.1,48.1-22.7,54.2-49.7C278.4,131.7,277.6,121.9,275,115.1z"/>
				<path d="M194.9,192c-10-0.3-19.6-1.3-28.6-3.7c-30.7-8.2-49.7-25.7-55.3-51c-1.3-5.6-0.5-15.6,2.4-23c2.4-5.6,3.4-10.6,4-15.3
					c2.4-29.6,13-40.5,25.7-50.8c11.1-9,27.5-12.7,49.2-11.4c1.9,0,4,0,5.8,0c21.4-1.3,38.1,2.4,49.2,11.4
					C260,58.5,270.6,69.4,273,99c0.3,4.8,1.6,9.8,4,15.3c3.2,7.4,3.7,17.5,2.4,23c-5.6,25.1-24.6,42.8-55.3,51
					C214.4,190.7,204.9,192,194.9,192z M183.5,40c-16.7,0-29.6,3.7-38.6,10.8c-12.2,9.8-22.2,20.1-24.3,48.7
					c-0.3,5.3-1.9,10.6-4.2,16.1c-2.6,6.6-3.4,16.1-2.1,21.2c6.6,30.1,32.5,43.1,52.9,48.4c8.7,2.4,18,3.4,27.8,3.7
					c9.8-0.3,19-1.3,27.8-3.7c20.6-5.6,46.3-18.2,53.2-48.7c1.1-5,0.5-14.3-2.1-21.2l0,0c-2.4-5.8-3.7-11.1-4.2-16.1
					c-2.1-28.3-12.4-38.9-24.3-48.7c-10.3-8.5-26.2-11.9-46.8-10.6c-2.1,0.3-4.2,0.3-6.3,0C188.8,40,186.1,40,183.5,40z"/>
			</g>
			<ellipse style="fill:#FFFFFF;" cx="194.9" cy="141.8" rx="35.2" ry="25.4"/>
			<g>
				<path style="fill-rule:evenodd;clip-rule:evenodd;fill:#FF8775;" d="M194.9,123.8c2.4,0,4.2,1.3,4.2,3.2s-1.9,3.2-4.2,3.4
					c-2.4,0-4.2-1.3-4.2-3.2S192.5,124.1,194.9,123.8z"/>
				<path d="M194.9,123.8c2.4,0,4,1.3,4.2,3.2c0,1.9-1.9,3.2-4.2,3.4c0,0,0,0-0.3,0c-2.4,0-4.2-1.3-4.2-3.2
					C190.6,125.4,192.5,124.1,194.9,123.8L194.9,123.8 M194.9,120.6L194.9,120.6c-2.1,0-3.7,0.8-5,1.9c-1.6,1.3-2.4,2.9-2.4,4.8
					c0,3.4,3.4,6.1,7.4,6.1h0.3c1.9,0,3.4-0.5,4.8-1.6c1.6-1.3,2.4-2.9,2.4-4.8C202.3,123.5,198.8,120.6,194.9,120.6L194.9,120.6z"
					/>
			</g>
			<g>
				<path style="fill:#595959;" d="M179,44.7c0,0-9.8-9.8-16.7-14.8s-25.4-18-29.1-16.7c-3.7,1.3-21.4,35.7-4.5,53.7"/>
				<path d="M128.8,68.5c-0.5,0-0.8-0.3-1.1-0.5c-9.5-10-8.5-24.3-5.8-34.6c2.4-10,7.9-20.9,11.1-21.7c5.6-1.9,30.1,16.9,30.4,16.9
					c6.9,5.3,16.4,14.5,16.7,15.1c0.5,0.5,0.5,1.6,0,2.1s-1.6,0.5-2.1,0c0,0-9.8-9.8-16.4-14.8c-10.4-8-25.2-17-27.6-16.4
					c-1.3,0.8-8.2,11.6-10,25.4c-1.1,7.7-1.1,18.2,6.3,25.9c0.5,0.5,0.5,1.6,0,2.1C129.5,68.5,129.3,68.5,128.8,68.5z"/>
			</g>
			<g>
				<path style="fill:#FF8775;" d="M160.5,48.2c0,0-24.6-21.7-25.4-25.9s-10.6,27,1.9,34.1c0,0,3.4-2.1,5.6-2.6c0,0-2.9-7.4,4.8-2.9
					C152.6,54,160.5,48.2,160.5,48.2z"/>
				<path d="M136.9,58.2c-0.3,0-0.5,0-0.8-0.3c-9.8-5.8-7.4-23.8-4.5-32.5c1.3-4.2,2.1-5,3.4-5c0.8,0,1.6,0.5,1.6,1.9
					c0.5,2.4,13,14.5,24.9,24.9c0.3,0.3,0.5,0.8,0.5,1.3s-0.3,1.1-0.8,1.3c-0.3,0.3-9,6.3-14.8,2.9c-2.4-1.3-3.2-1.3-3.2-1.3
					c0,0.3,0.3,1.3,0.5,2.1c0.3,0.5,0.3,0.8,0,1.3s-0.5,0.8-1.1,0.8c-1.6,0.5-4.2,2.1-5.3,2.6C137.5,58.2,137.2,58.2,136.9,58.2z
					 M135.1,25.4c-1.6,4.2-3.7,14-2.1,21.4c0.8,3.7,2.1,6.3,4.2,7.9c0.8-0.5,2.1-1.3,3.4-1.9c-0.3-1.3-0.5-3.2,0.8-4.2
					c1.9-1.6,4.8-0.3,6.9,1.1c2.6,1.6,6.9-0.3,9.8-1.6C151.8,42.6,139.3,31.2,135.1,25.4z"/>
			</g>
			<g>
				<path style="fill:#FF8775;" d="M144.4,49.7c0,0-7.1-6.6-7.1-12.7"/>
				<path d="M144.4,51.3c-0.3,0-0.8-0.3-1.1-0.5c-0.3-0.3-7.7-7.1-7.7-13.8c0-0.8,0.8-1.6,1.6-1.6s1.6,0.8,1.6,1.6
					c0,4.5,4.8,9.8,6.6,11.4c0.5,0.5,0.8,1.6,0,2.1C145.1,51.1,144.9,51.3,144.4,51.3z"/>
			</g>
			<g>
				<path style="fill:#595959;" d="M210.7,44.7c0,0,9.8-9.8,16.7-14.8s25.4-18,29.1-16.7s21.4,35.7,4.5,53.7"/>
				<path d="M261,68.5c-0.3,0-0.8-0.3-1.1-0.5c-0.5-0.5-0.8-1.6,0-2.1c7.1-7.7,7.4-18.2,6.3-25.9c-2.1-13.5-8.7-24.3-10.3-25.4
					C253.6,14,239,23.3,228.5,31c-6.6,5-16.4,14.5-16.4,14.8c-0.5,0.5-1.6,0.5-2.1,0s-0.5-1.6,0-2.1s10-9.8,16.7-15.1
					c0,0,24.6-18.8,30.1-16.9c3.2,1.1,8.5,11.9,11.1,21.7c2.6,10.3,3.7,24.6-5.8,34.6C261.8,68.3,261.2,68.5,261,68.5z"/>
			</g>
			<g>
				<path style="fill:#FF8775;" d="M229.2,48.2c0,0,24.6-21.7,25.4-25.9c0.8-4.2,10.6,27-1.9,34.1c0,0-3.4-2.1-5.6-2.6
					c0,0,2.9-7.4-4.8-2.9C237.2,54,229.2,48.2,229.2,48.2z"/>
				<path d="M252.8,58.2c-0.3,0-0.5,0-0.8-0.3c-0.8-0.5-3.7-2.1-5.3-2.6c-0.5,0-0.8-0.5-1.1-0.8s-0.3-0.8,0-1.3
					c0.3-0.8,0.5-1.9,0.5-2.4c0,0-1.1,0.3-2.9,1.3c-5.8,3.4-14.5-2.6-14.8-2.9c-0.3-0.3-0.5-0.8-0.8-1.3s0.3-1.1,0.5-1.3
					C240,36.3,252.4,24.1,253,21.7c0-0.8,0.8-1.3,1.6-1.3c1.3,0,2.1,0.8,3.4,5c2.6,8.7,5.3,26.7-4.5,32.5
					C253.3,58.2,253.1,58.2,252.8,58.2z M249.1,52.9c1.3,0.5,2.6,1.3,3.4,1.9c2.1-1.6,3.4-4.2,4.2-7.9c1.3-7.7-0.8-17.2-2.1-21.4
					c-4.2,5.8-16.9,17.5-23,22.7c2.6,1.6,6.9,3.2,9.8,1.6c2.1-1.1,5-2.6,6.9-1.1C249.6,49.7,249.3,51.6,249.1,52.9z"/>
			</g>
			<g>
				<path style="fill:#FF8775;" d="M245.4,49.7c0,0,7.1-6.6,7.1-12.7"/>
				<path d="M245.4,51.3c-0.5,0-0.8-0.3-1.1-0.5c-0.5-0.5-0.5-1.6,0-2.1c0,0,6.6-6.1,6.6-11.4c0-0.8,0.8-1.6,1.6-1.6l0,0
					c0.8,0,1.6,0.8,1.6,1.6c0,6.9-7.4,13.5-7.7,13.8C246.2,51.1,245.6,51.3,245.4,51.3z"/>
			</g>
			<g>
				<path style="fill:#595959;" d="M206.8,48.7c4.8,1.1,14-8.5,7.7-14.3s-11.9,5-11.9,5s2.1-15.1-8.2-14.3
					c-10.3,0.8-6.6,12.7-6.6,12.7s-1.6-6.6-7.4-5.8c-11.4,1.9-7.7,14.3,0.8,16.9"/>
				<path d="M181.4,50.5c-0.3,0-0.3,0-0.5,0c-5.6-1.9-9.5-7.1-9.3-12.2c0.3-1.9,1.3-6.6,8.5-7.9c2.1-0.3,4,0.3,5.3,1.3
					c0.3-1.6,0.5-3.2,1.6-4.5c1.6-2.1,4-3.4,7.1-3.7c2.9-0.3,5.3,0.5,6.9,2.4c2.1,2.1,2.9,5.6,3.2,8.5c1.3-1.3,3.2-2.6,5.3-3.2
					c1.6-0.3,3.7,0,6.1,2.1c2.9,2.6,3.4,6.6,1.6,10.3c-2.1,4-6.9,7.4-10.6,6.6c-0.8-0.3-1.3-1.1-1.1-1.9c0.3-0.8,1.1-1.3,1.9-1.1
					c1.9,0.5,5.3-1.6,7.1-5c1.1-1.9,1.6-4.2-0.8-6.6c-1.1-1.1-2.4-1.6-3.4-1.3c-2.6,0.5-5.3,4.2-6.1,5.8c-0.3,0.8-1.1,1.1-1.9,0.8
					c-0.8-0.3-1.3-1.1-1.1-1.9c0.3-2.1,0.5-8.2-2.1-11.1c-1.1-1.1-2.4-1.6-4.5-1.3c-2.1,0.3-3.7,0.8-4.8,2.4
					c-1.6,2.4-1.1,6.1-0.5,7.9c0,0.3,0,0.3,0.3,0.5c0.3,0.8-0.3,1.6-1.1,1.9c-0.8,0.3-1.6-0.3-1.9-1.1v-0.3c-0.3-1.1-1.9-5-5.3-4.2
					c-3.7,0.5-5.8,2.4-5.8,5c-0.3,3.2,2.4,7.4,6.9,8.7c0.8,0.3,1.3,1.1,1.1,2.1C182.7,50,181.9,50.5,181.4,50.5z"/>
			</g>
			<path d="M175.7,115.5c-0.4,0-0.8-0.1-1.1-0.4c-1.9-1.6-7.1-1.8-10-1.6c-0.9,0.1-1.7-0.6-1.8-1.5c-0.1-0.9,0.6-1.7,1.5-1.8
				c0.9-0.1,9-0.7,12.6,2.4c0.7,0.6,0.8,1.7,0.2,2.4C176.6,115.3,176.1,115.5,175.7,115.5z"/>
			<path d="M213.9,115.5c-0.5,0-0.9-0.2-1.3-0.6c-0.6-0.7-0.5-1.8,0.2-2.4c3.6-3.1,11.6-2.5,12.6-2.4c0.9,0.1,1.6,0.9,1.5,1.8
				c-0.1,0.9-0.9,1.6-1.8,1.5c-2.9-0.3-8.2-0.1-10,1.6C214.7,115.4,214.3,115.5,213.9,115.5z"/>
			<path style="fill:#CB2813;" d="M195.2,157.8c-13.1,0-15.2-14.1-15.2-14.2c0-0.2,0.1-0.5,0.3-0.6c0.2-0.2,0.5-0.2,0.7-0.1
				c0.1,0,8.3,3.1,13.1-1.1c0.2-0.2,0.6-0.2,0.8,0c6.4,4.4,14.5,1.2,14.5,1.1c0.2-0.1,0.4-0.1,0.6,0c0.2,0.1,0.3,0.3,0.3,0.5
				c0.2,1.6-0.3,6-3.4,9.6C204.3,156.1,200.2,157.8,195.2,157.8z"/>
			<path style="fill:#FF7F6E;" d="M182.2,149.7c0,0,11.9-5,26,0.8c0,0-5.1,8.3-14.8,6.9C193.4,157.4,184.2,156.3,182.2,149.7z"/>
			<g>
				<g>
					<path d="M186.5,146.2c-0.3,0-0.7,0-1,0c-6.1-0.4-10.2-3.8-10.7-9c-0.1-0.9,0.6-1.7,1.5-1.8c0.9-0.1,1.7,0.6,1.8,1.5
						c0.5,5.1,5.9,5.9,7.6,6c3.9,0.2,7.2-1.2,7.5-2.7c0.2-0.9,1.1-1.5,2-1.3c0.9,0.2,1.5,1.1,1.3,2
						C195.8,144.4,191,146.2,186.5,146.2z"/>
				</g>
				<g>
					<path d="M203.3,146.2c-4.5,0-9.2-1.8-10-5.4c-0.2-0.9,0.4-1.8,1.3-2c0.9-0.2,1.8,0.4,2,1.3c0.3,1.5,3.6,3,7.5,2.7
						c1.7-0.1,7.1-0.8,7.6-6c0.1-0.9,0.9-1.6,1.8-1.5c0.9,0.1,1.6,0.9,1.5,1.8c-0.5,5.2-4.6,8.6-10.7,9
						C203.9,146.2,203.6,146.2,203.3,146.2z"/>
				</g>
			</g>
			<path d="M194.9,158.3c-11.2,0-15.5-9.9-16.2-15.1c-0.1-0.9,0.5-1.8,1.4-1.9c0.9-0.1,1.8,0.5,1.9,1.4l0,0
				c0.1,0.5,1.8,12.2,12.9,12.2c4.3,0,7.7-1.4,10-4c2.6-3,3-6.7,2.8-7.7c-0.1-0.9,0.5-1.8,1.4-1.9c0.9-0.1,1.8,0.5,1.9,1.4
				c0.3,2-0.4,6.6-3.6,10.3C205.4,155.5,201.5,158.3,194.9,158.3z"/>
			<g>
				<path style="fill:#693300;" d="M221.4,150.6c-0.3,0.4-0.5,0.8-0.7,1.3c-0.4,0.8-1,1.5-1.8,1.9c-0.4,0.3-0.9,0.4-1.3,0.8
					c-0.4,0.3-0.7,0.9-0.5,1.4c0.1,0.3,0.3,0.5,0.6,0.7c1.3,0.9,3.1,1,4.6,0.5c1.5-0.5,2.8-1.6,3.8-2.8c0.5-0.6,1.1-1.3,1.1-2.1
					C227.4,149.5,222.8,149.2,221.4,150.6z"/>
				<path d="M220.3,159.1c-1.3,0-2.6-0.4-3.6-1.1c-0.6-0.4-1-1-1.2-1.6c-0.4-1.1,0.1-2.3,1.1-3.2c0.4-0.3,0.8-0.5,1.2-0.7
					c0.1-0.1,0.3-0.1,0.4-0.2c0.5-0.3,0.9-0.7,1.1-1.2c0-0.1,0.1-0.2,0.1-0.3c0.2-0.4,0.4-0.9,0.8-1.4c1.5-1.6,4.5-1.7,6.3-0.9
					c1.6,0.7,2.5,2.1,2.3,3.7c-0.1,1.3-0.9,2.4-1.5,3.1c-1.4,1.6-2.9,2.7-4.5,3.3C221.9,159,221.1,159.1,220.3,159.1z M219.2,155.6
					c0.7,0.3,1.6,0.3,2.5,0c1-0.4,2.1-1.1,3.1-2.3c0.3-0.3,0.7-0.8,0.7-1.2c0-0.1,0-0.2-0.4-0.4c-0.9-0.4-2.2-0.2-2.5,0.1
					c-0.1,0.1-0.1,0.3-0.2,0.4c-0.1,0.1-0.1,0.3-0.2,0.4c-0.5,1.1-1.4,2-2.5,2.6C219.6,155.4,219.4,155.5,219.2,155.6
					C219.2,155.6,219.2,155.6,219.2,155.6z M221.4,150.6L221.4,150.6L221.4,150.6z"/>
			</g>
			<g>
				<path style="fill:#BF823F;" d="M226.4,133.6c-0.6,0.4-1.3,0.7-1.8,0.9c-2,1-3.6-0.5-4.1-2.4c-0.5-1.9,1.1-3.2,2.9-3.6
					c0.7-0.2,1.5-0.1,2.1,0.3c0.8,0.5,1.3,1.4,1.6,2.3c0.2,0.6,0.2,1.2,0,1.8C227,133.2,226.7,133.4,226.4,133.6z"/>
				<path d="M223.4,136.5c-0.6,0-1.2-0.1-1.7-0.4c-1.3-0.6-2.3-2-2.7-3.6c-0.3-1.2-0.1-2.3,0.5-3.2c0.7-1.2,2.1-2,3.7-2.4
					c1.2-0.3,2.4-0.1,3.3,0.5c1.1,0.6,1.9,1.8,2.4,3.3c0.3,1.1,0.3,2.1-0.1,3c-0.3,0.5-0.7,1-1.3,1.4l0,0c-0.6,0.4-1.2,0.7-1.7,0.9
					l-0.3,0.2C224.7,136.4,224,136.5,223.4,136.5z M224.2,130.1c-0.1,0-0.3,0-0.4,0c-0.7,0.2-1.3,0.5-1.5,0.9
					c-0.1,0.1-0.2,0.3-0.1,0.7c0.2,0.6,0.5,1.2,0.9,1.4c0.1,0.1,0.4,0.1,0.8-0.1c0.1-0.1,0.2-0.1,0.4-0.2c0.4-0.2,0.8-0.4,1.2-0.6
					c0,0,0,0,0,0c0.1-0.1,0.2-0.1,0.2-0.2c0,0,0-0.2-0.1-0.5c-0.2-0.6-0.5-1.1-0.8-1.3C224.6,130.2,224.4,130.1,224.2,130.1z"/>
			</g>
		</g>
	</g>
	<g>
		<g>
			<path style="fill:#2C4F9E;" d="M159.7,52.4c-1.6,0,1.9,13.5,2.1,14.5c2.1,6.9,10.8,9.3,17.5,8.7c4.8-0.3,9.5-1.3,14-2.1
				c5-0.5,10.8,0,15.9,0.8c7.4,1.1,15.3,2.4,18.8-5.8c2.1-5.3,3.4-12.2,1.3-17.5C229.2,51.3,160,52.4,159.7,52.4z"/>
			<path d="M177.7,77.5c-7.4,0-15.1-2.9-17.5-10c0,0-4-13.5-2.1-15.9c0.3-0.5,1.1-0.8,1.6-0.8l0,0l69.6-1.1c0.5,0,1.3,0.3,1.6,1.1
				c2.1,5,1.6,11.9-1.3,18.8c-4,9-12.7,7.7-19.6,6.9h-0.8c-5.3-0.8-10.6-1.3-15.6-0.8c-1.9,0.3-3.4,0.5-5.3,0.8
				c-2.9,0.5-5.8,1.1-8.7,1.3C178.7,77.5,178.2,77.5,177.7,77.5z M160.8,54c0,2.9,2.1,11.1,2.4,12.7c2.1,6.6,10.8,7.9,15.9,7.7
				c2.9-0.3,5.8-0.8,8.5-1.1c1.9-0.3,3.7-0.5,5.6-0.8c5.3-0.8,10.8,0,16.4,0.8h0.8c6.9,1.1,13.5,1.9,16.4-5
				c2.4-5.6,2.9-11.1,1.6-15.1L160.8,54z"/>
		</g>
		<g>
			<path style="fill:#87ACFF;" d="M159.7,52.4c0,0,1.6,13,33.3,11.9c31.5-1.3,36-9.5,36.5-13L159.7,52.4z"/>
			<path d="M188.8,65.9c-28.6,0-30.7-12.7-30.7-13.2s0-0.8,0.3-1.3c0.3-0.3,0.8-0.5,1.1-0.5l69.8-1.1c0.5,0,0.8,0.3,1.3,0.5
				c0.3,0.3,0.5,0.8,0.5,1.3c-0.5,4.8-6.1,13.2-37.8,14.3C191.4,65.9,190.1,65.9,188.8,65.9z M162.1,54c1.9,3.2,8.7,9.5,30.7,8.7
				c25.7-1.1,32.5-6.3,34.4-9.8L162.1,54z M159.7,52.4L159.7,52.4L159.7,52.4z"/>
		</g>
		<g>
			<g>
				<path style="fill:#2C4F9E;" d="M156.3,35.7c5.6-13.5,22.5-16.7,35.7-17.2c16.7-0.8,29.6,2.9,39.9,17.2
					c6.3,8.7-1.9,16.9-10.3,19.6c-11.6,3.4-24.1,4.8-36,3.4c-13-1.3-36.5-3.4-29.4-22.7C156,36,156.3,35.7,156.3,35.7z"/>
				<path d="M194.3,60.8c-3.2,0-6.1-0.3-9.3-0.5c-10-1.1-24.9-2.4-30.1-10.8c-2.4-3.7-2.6-8.5-0.5-14c0-0.3,0.3-0.3,0.3-0.5
					c4.8-11.4,17.2-17.5,37-18.2c19.6-0.8,32,4.5,41.5,18c2.4,3.4,3.2,7.1,1.9,10.8c-1.6,4.8-6.9,9.3-13.2,11.1
					C213.1,59.5,203.9,60.8,194.3,60.8z M195.4,19.9c-1.1,0-2.4,0-3.4,0c-18.5,0.8-30.1,6.1-34.1,16.1l0,0l-0.3,0.5
					c-1.6,4.5-1.6,8.2,0.3,11.1c4.5,7.1,19,8.5,27.8,9.5c12.2,1.1,24.3,0,35.7-3.4c5.3-1.6,9.8-5.3,11.1-9.3
					c0.8-2.6,0.5-5.3-1.6-7.9C222.4,24.9,211.8,19.9,195.4,19.9z M156.3,35.7L156.3,35.7L156.3,35.7z"/>
			</g>
		</g>
		<g>
			<g>
				<path style="fill-rule:evenodd;clip-rule:evenodd;fill:#FFC300;" d="M195,53.6c-1.4,0-2.6-0.5-3.6-1.5
					c-3.1-3.2-3.1-10.2-3.1-10.5V41h0.6c4.3,0,5.6-1.7,5.6-1.7l0.5-0.7l0.5,0.7c0,0,1.3,1.7,5.6,1.7h0.6v0.6c0,0.3,0,7.3-3.1,10.5
					C197.6,53.1,196.3,53.6,195,53.6"/>
				<path d="M195,54.2c-1.5,0-2.9-0.6-4-1.7c-3.2-3.3-3.3-10.1-3.3-10.9V41c0-0.3,0.3-0.6,0.6-0.6h0.6c3.9,0,5.1-1.4,5.1-1.5
					l0.5-0.7c0.1-0.1,0.3-0.2,0.5-0.2l0,0c0.2,0,0.3,0.1,0.5,0.2l0.5,0.7l0,0c0,0,1.2,1.4,5.1,1.4h0.6c0.3,0,0.6,0.3,0.6,0.6v0.6
					c0,0.8,0,7.6-3.3,10.9C197.8,53.6,196.5,54.2,195,54.2z M188.8,41.5L188.8,41.5c0,0.3,0,7.2,2.9,10.1c0.9,0.9,2,1.3,3.2,1.3
					s2.3-0.5,3.2-1.3c3-3,2.9-9.8,2.9-10.1l0,0c-4.6,0-6-1.9-6-1.9l0,0v0.1C194.9,39.7,193.5,41.5,188.8,41.5L188.8,41.5z"/>
			</g>
			<path style="fill-rule:evenodd;clip-rule:evenodd;fill:#CC8025;" d="M197.3,48c0,1.1-1,1.4-2.3,1.4s-2.3-0.3-2.3-1.4
				s1-2.1,2.3-2.1S197.3,46.8,197.3,48"/>
			<path style="fill-rule:evenodd;clip-rule:evenodd;fill:#CC8025;" d="M192.1,46.7c-0.4,0-0.8-0.4-0.8-0.9s0.4-0.9,0.8-0.9
				s0.8,0.4,0.8,0.9C192.9,46.2,192.6,46.7,192.1,46.7"/>
			<path style="fill-rule:evenodd;clip-rule:evenodd;fill:#CC8025;" d="M197.9,44.7c-0.5,0-0.9,0.4-0.9,1c0,0.5,0.4,1,0.9,1
				s0.9-0.4,0.9-1C198.7,45.2,198.3,44.7,197.9,44.7"/>
			<path style="fill-rule:evenodd;clip-rule:evenodd;fill:#CC8025;" d="M193.9,45.4c-0.4,0-0.8-0.4-0.8-0.9s0.4-0.9,0.8-0.9
				c0.4,0,0.8,0.4,0.8,0.9S194.4,45.4,193.9,45.4"/>
			<path style="fill-rule:evenodd;clip-rule:evenodd;fill:#CC8025;" d="M196,43.7c-0.5,0-0.9,0.4-0.9,1c0,0.5,0.4,1,0.9,1
				s0.9-0.4,0.9-1C196.9,44.1,196.5,43.7,196,43.7"/>
		</g>
	</g>
</g>
<g>
	<g>
		<path style="fill-rule:evenodd;clip-rule:evenodd;fill:#FFC300;" d="M232,220.8c-2.6,0-4.8-0.9-6.7-2.8c-5.8-5.9-5.8-19-5.8-19.5
			v-1.1h1.1c7.9,0,10.3-3.1,10.4-3.1l0.9-1.3l0.9,1.3c0,0,2.4,3.1,10.4,3.1h1.1v1.1c0,0.6,0,13.7-5.8,19.5
			C236.8,219.8,234.6,220.8,232,220.8"/>
		<path d="M232,221.8c-2.9,0-5.4-1-7.4-3.1c-6-6.1-6.1-18.8-6.1-20.3v-1.1c0-0.6,0.5-1,1.1-1h1.1c7.2,0,9.5-2.7,9.5-2.7l0.9-1.2
			c0.2-0.3,0.5-0.4,0.8-0.4l0,0c0.3,0,0.6,0.2,0.8,0.4l0.9,1.3l0,0c0,0,2.3,2.7,9.5,2.7h1.1c0.6,0,1,0.5,1.1,1v1.1
			c0,1.4-0.1,14.2-6.1,20.3C237.4,220.8,234.9,221.8,232,221.8z M220.6,198.4L220.6,198.4c0,0.6,0,13.3,5.5,18.8
			c1.6,1.7,3.6,2.5,5.9,2.5s4.3-0.8,5.9-2.5c5.5-5.5,5.5-18.2,5.5-18.8l-0.1-0.1c-8.6,0-11.2-3.5-11.2-3.6l-0.1-0.1l-0.1,0.1
			C231.8,195,229.3,198.4,220.6,198.4L220.6,198.4z"/>
	</g>
	<path style="fill-rule:evenodd;clip-rule:evenodd;fill:#CC8025;" d="M236.3,210.3c0,2.1-1.9,2.6-4.3,2.6s-4.3-0.5-4.3-2.6
		s1.9-3.8,4.3-3.8S236.3,208.2,236.3,210.3"/>
	<path style="fill-rule:evenodd;clip-rule:evenodd;fill:#CC8025;" d="M226.8,207.9c-0.8,0-1.5-0.8-1.5-1.7c0-1,0.7-1.7,1.5-1.7
		s1.5,0.8,1.5,1.7C228.3,207.1,227.6,207.9,226.8,207.9"/>
	<path style="fill-rule:evenodd;clip-rule:evenodd;fill:#CC8025;" d="M237.4,204.3c-0.9,0-1.6,0.8-1.6,1.8s0.7,1.8,1.6,1.8
		s1.6-0.8,1.6-1.8S238.3,204.3,237.4,204.3"/>
	<path style="fill-rule:evenodd;clip-rule:evenodd;fill:#CC8025;" d="M230.1,205.6c-0.8,0-1.5-0.8-1.5-1.7c0-1,0.7-1.7,1.5-1.7
		s1.5,0.8,1.5,1.7S230.9,205.6,230.1,205.6"/>
	<path style="fill-rule:evenodd;clip-rule:evenodd;fill:#CC8025;" d="M234,202.3c-0.9,0-1.6,0.8-1.6,1.8s0.7,1.8,1.6,1.8
		s1.6-0.8,1.6-1.8S234.9,202.3,234,202.3"/>
</g>
<g>
	<g>
		<g>
			<path style="fill:#693300;" d="M173.4,146.8c0.1-0.2,0.2-0.3,0.4-0.4c0.2-0.1,0.5-0.1,0.8-0.1c1.6,0.3,3,1.8,3,3.4
				c0,0.6-0.1,1.3,0.1,1.9c0.3,1.1,1.5,1.8,2.6,2.2c0.5,0.2,1,0.4,1.3,0.8c0.2,0.3,0.3,0.8,0.4,1.2c0.3,1.1,1.1,2,2.1,2.5
				c-1.9,6.6-6,12.3-10.2,17.8c-2.4-1.7-4.4-3.9-6-6.4c-1.3-2-4-5.4-4.3-7.8c-0.2-2.1,3.1-5.5,4.3-7.3
				C169.7,152.2,171.5,149.5,173.4,146.8z"/>
			<path d="M173.8,178c-0.3,0-0.7-0.1-0.9-0.3c-2.4-1.6-4.5-3.9-6.5-6.8c-0.2-0.3-0.5-0.7-0.7-1.1c-1.6-2.3-3.5-5.1-3.8-7.5
				c-0.3-2.3,1.7-4.8,3.5-6.9c0.4-0.6,0.9-1.1,1.1-1.5l5.5-8c0.1-0.2,0.4-0.6,0.9-0.9c0.5-0.3,1.2-0.4,1.9-0.3
				c2.4,0.4,4.3,2.6,4.4,5c0,0.3,0,0.6,0,0.8c0,0.3,0,0.6,0,0.7c0.1,0.2,0.3,0.6,1.6,1.1c0.6,0.2,1.5,0.6,2.1,1.5
				c0.4,0.5,0.5,1.1,0.6,1.5c0,0.1,0,0.2,0.1,0.2c0.2,0.6,0.6,1.2,1.2,1.5c0.7,0.4,1.1,1.2,0.9,1.9c-2,7-6.5,13-10.4,18.4
				C174.8,177.7,174.3,178,173.8,178z M174.6,148.1l-5.3,7.7c-0.3,0.5-0.8,1.1-1.3,1.7c-0.9,1.2-2.9,3.6-2.8,4.5
				c0.2,1.5,2.1,4.3,3.2,6c0.3,0.4,0.5,0.8,0.8,1.1c1.4,2,2.8,3.7,4.3,5c3.4-4.6,6.8-9.4,8.5-14.8c-0.8-0.7-1.4-1.7-1.7-2.8
				c0-0.1-0.1-0.2-0.1-0.4c0-0.1,0-0.2-0.1-0.3c-0.1-0.1-0.4-0.2-0.5-0.2c-1.3-0.5-3.1-1.4-3.6-3.4c-0.2-0.6-0.1-1.2-0.1-1.7
				c0-0.2,0-0.4,0-0.5C175.9,149.1,175.3,148.4,174.6,148.1z M173.4,146.8L173.4,146.8L173.4,146.8z"/>
		</g>
		<g>
			<path style="fill:#6500FF;" d="M146.4,184c-0.4,0.7-0.7,1.4-0.6,2.2c0.1,0.7,0.6,1.3,1,1.9c2.1,2.4,4.6,4.3,7.1,6.3
				c1.4,1.1,3.1,2.3,4.9,2c1.7-0.3,3-1.8,4-3.2c4.5-6.3,8.8-12.7,12.7-19.4c0.4-0.6-8.6-7-9.5-7.6c-2.1-1.5-4.3-2.9-6.8-1.4
				c-2.7,1.6-4.6,5.6-6.3,8.1C150.7,176.4,148.5,180.1,146.4,184z"/>
			<path d="M158.3,198c-2.3,0-4.2-1.5-5.4-2.4c-2.5-2-5.2-4-7.4-6.5c-0.6-0.7-1.3-1.6-1.4-2.8c-0.2-1.3,0.5-2.5,0.8-3.2c0,0,0,0,0,0
				c2-3.9,4.3-7.7,6.7-11.3c0.4-0.5,0.7-1.2,1.1-1.8c1.5-2.5,3.2-5.4,5.7-6.9c3.4-2,6.3-0.1,8.5,1.5c0.4,0.3,2.9,2,5.3,3.9
				c4,3.1,5.7,4.3,4.7,6c-4,6.6-8.3,13.2-12.8,19.5c-1.2,1.7-2.7,3.6-5.1,3.9C158.9,198,158.6,198,158.3,198z M147.9,184.7
				c-0.2,0.3-0.5,0.9-0.5,1.2c0,0.3,0.5,0.8,0.6,1c2,2.3,4.5,4.2,6.9,6c1.2,0.9,2.5,1.8,3.6,1.7c1.1-0.2,2.1-1.4,2.9-2.6
				c4.2-5.9,8.3-12,12.1-18.3c-1.8-1.6-6.8-5.3-8.4-6.4c-2.4-1.6-3.5-2.2-5-1.4c-1.8,1-3.3,3.5-4.6,5.7c-0.4,0.7-0.8,1.3-1.2,1.9
				C152.1,177.2,149.9,181,147.9,184.7L147.9,184.7z"/>
		</g>
		<g>
			<path style="fill:#A6F9FF;" d="M178.3,171.2c-3.4-3.1-6.9-6.2-10.3-9.3c-1.8-1.6-3.7-3.3-6-3.8c-2.3-0.5-5.2,0.6-5.8,3
				c-0.5,2,0.9,4,2.4,5.3c1.5,1.3,3.4,2.4,4.5,4.2c1.2,1.9,1.4,4.4,3,6.1c1.8,1.8,4.8,1.9,6.4,3.8c0.4,0.5,0.8,1.2,1.4,1.5
				c1.1,0.5,2.3-0.6,3-1.6C178.9,177.2,181.5,174.1,178.3,171.2z"/>
			<path d="M174.4,183.7c-0.4,0-0.9-0.1-1.3-0.3c-0.9-0.4-1.4-1.1-1.8-1.6c-0.1-0.1-0.2-0.2-0.3-0.4c-0.6-0.7-1.6-1.1-2.6-1.6
				c-1.2-0.5-2.5-1.1-3.6-2.2c-1.2-1.2-1.7-2.7-2.2-4.1c-0.3-0.8-0.6-1.6-1-2.3c-0.6-1-1.6-1.8-2.7-2.6c-0.5-0.4-1-0.8-1.5-1.2
				c-2.4-2.1-3.5-4.6-3-7c0.8-3.4,4.6-4.9,7.8-4.2c2.8,0.6,5,2.6,6.8,4.2l10.3,9.3c4.1,3.7,1.2,7.8-0.6,10.5
				c-0.2,0.3-0.4,0.5-0.5,0.8C177.1,182.8,175.8,183.7,174.4,183.7z M160.8,159.7c-1.3,0-2.7,0.7-3,1.8c-0.4,1.6,1.4,3.2,1.9,3.7
				c0.4,0.4,0.8,0.7,1.3,1.1c1.3,1,2.6,2,3.5,3.5c0.6,1,1,2,1.3,3c0.4,1.1,0.8,2.2,1.4,2.8c0.6,0.6,1.5,1,2.5,1.4
				c1.3,0.6,2.8,1.2,3.9,2.5c0.1,0.2,0.3,0.3,0.4,0.5c0.1,0.2,0.3,0.4,0.4,0.5c0.2-0.1,0.6-0.4,1-1c0.2-0.3,0.4-0.5,0.5-0.8
				c2.4-3.4,2.8-4.7,1.2-6.1l-10.3-9.3c-1.5-1.4-3.3-3-5.3-3.4C161.3,159.7,161,159.7,160.8,159.7z"/>
		</g>
		<path style="fill:#BF823F;" d="M174.6,158c-0.3-0.2-0.6-0.4-1-0.4c-0.4,0-0.8,0.4-0.9,0.8c-0.1,0.4,0,0.9,0.2,1.3
			c0.2,0.7,0.6,1.3,1.2,1.7c1,0.7,2.8,0.5,2.8-1C177,159.3,175.3,158.6,174.6,158z"/>
		<path style="fill:#BF823F;" d="M173.8,152.7c-0.4-0.2-0.9-0.2-1,0.2c0,0.2,0,0.4,0.1,0.6c0.1,0.3,0.3,0.7,0.6,0.9
			c0.3,0.2,1.2,0.3,1.4-0.2c0.1-0.3-0.3-1-0.5-1.2C174.2,152.9,174,152.8,173.8,152.7z"/>
		<path style="fill:#BF823F;" d="M175.3,163.5c-0.4-0.1-0.8-0.2-0.8,0.2c0,0.2,0,0.4,0.1,0.6c0.1,0.3,0.3,0.6,0.5,0.8
			c0.3,0.2,1,0.3,1.2-0.1c0.1-0.3-0.3-0.9-0.5-1.1C175.7,163.7,175.5,163.6,175.3,163.5z"/>
		<path style="fill:#BF823F;" d="M179,158.2c-0.5-0.2-1.1-0.2-1.2,0.3c-0.1,0.3,0,0.6,0.1,0.8c0.2,0.4,0.4,0.8,0.8,1.1
			c0.4,0.3,1.5,0.4,1.7-0.2c0.1-0.4-0.4-1.3-0.7-1.6C179.5,158.4,179.3,158.3,179,158.2z"/>
	</g>
	<g>
		<g>
			<path style="fill:#274DA3;" d="M107.2,204.6c-2.9,5.4-3.8,11.2,1,17.4c12.8,16.4,37.5-2.9,47.7-13.1c1.9-1.9,2.3-6.3,3.2-8.9
				c1.6-4.9-0.9-10.1-3.7-14.4c-6.1-9.2-14.4-13.8-23-7.5c-7.1,5.1-13.5,11.2-19.1,17.9C111.1,198.7,108.8,201.6,107.2,204.6z"/>
			<path d="M121.1,230c-0.4,0-0.9,0-1.3,0c-5.2-0.3-9.5-2.7-12.9-7c-4.6-5.9-5-12.2-1.2-19.2l0,0c1.7-3.2,4-6.1,6.3-8.9
				c5.7-6.9,12.3-13,19.4-18.2c3.7-2.7,7.5-3.7,11.4-3c5,0.9,9.8,4.7,14,10.9c2.6,4,5.9,9.9,3.9,15.8c-0.2,0.7-0.4,1.6-0.6,2.5
				c-0.6,2.5-1.2,5.4-3,7.1c-2.9,2.9-9,8.5-16.4,13.1C133.4,227.7,126.8,230,121.1,230z M140.5,176.8c-2.4,0-4.7,0.9-7.1,2.6
				c-6.9,5-13.3,11-18.8,17.7c-2.2,2.6-4.4,5.4-5.9,8.3l0,0c-3.2,5.9-2.9,10.7,0.9,15.6c2.8,3.5,6.2,5.4,10.4,5.7
				c7.1,0.5,20-4.3,34.8-18.9c1-1,1.6-3.5,2.1-5.5c0.2-1,0.5-2,0.7-2.8c1.1-3.4,0-7.6-3.5-12.9c-3.6-5.5-7.7-8.8-11.8-9.5
				C141.7,176.9,141.1,176.8,140.5,176.8z"/>
		</g>
		<g>
			<path style="fill:#595959;" d="M160.2,168c-6.8-4-16-2.3-21,5.3c-6.8,10.4,0.8,25.8,9.6,31.1c10,6.1,22.6-5,23.1-15.4
				C172.3,181.8,167.4,172.3,160.2,168z"/>
			<path d="M154.9,207.8c-2.4,0-4.8-0.7-7-2c-5.8-3.5-10.8-10.7-12.4-18c-1.3-5.8-0.5-11.1,2.3-15.5c5.2-7.9,15.4-10.5,23.2-5.8l0,0
				c7.4,4.4,12.9,14.3,12.5,22.5c-0.3,6.5-4.9,13.4-11.2,16.7C159.9,207.1,157.4,207.8,154.9,207.8z M152.5,167.5
				c-4.6,0-9,2.4-11.9,6.7c-2.9,4.5-2.6,9.5-1.8,12.9c1.5,6.5,5.8,12.8,10.9,15.9c4.5,2.7,8.9,1.1,11.1-0.1
				c5.2-2.8,9.2-8.6,9.4-13.9c0.3-7-4.5-15.7-10.9-19.5l0,0C157.2,168.2,154.8,167.5,152.5,167.5z"/>
		</g>
		<path d="M150.4,214.4c-22.6-14.5-22.6-33.7-22.6-34.5l3.3,0c0,0.2,0.1,18.1,21.1,31.6L150.4,214.4z"/>
		<g>
			<path style="fill:#FFC800;" d="M123.6,185.2c0,0,2.2,21.6,22.8,31.4l-3.2,2.1c0,0-19.5-4.9-23.2-30.1L123.6,185.2z"/>
			<path d="M143.3,220.4c-0.1,0-0.3,0-0.4-0.1c-0.2-0.1-20.6-5.5-24.5-31.5c-0.1-0.5,0.1-1.1,0.5-1.5l3.6-3.4
				c0.5-0.4,1.1-0.6,1.7-0.4c0.6,0.2,1,0.8,1.1,1.4l0,0c0,0.2,2.4,20.8,21.9,30.1c0.5,0.3,0.9,0.8,1,1.4c0,0.6-0.2,1.2-0.7,1.5
				l-3.2,2.1C143.9,220.3,143.6,220.4,143.3,220.4z M121.9,189.2c3.4,20.7,17.8,26.6,21.2,27.7l0.2-0.1c-14.6-8.2-19.2-22-20.6-28.3
				L121.9,189.2z"/>
		</g>
		<path d="M136.6,223.7c-21-9.7-22.6-29.6-22.6-30.4l3.3-0.2c0.1,0.8,1.6,18.7,20.7,27.6L136.6,223.7z"/>
	</g>
</g>
</svg>
