<?xml version="1.0" encoding="utf-8"?>
<!-- Generator: Adobe Illustrator 26.0.3, SVG Export Plug-In . SVG Version: 6.00 Build 0)  -->
<svg version="1.1" id="레이어_1" xmlns="http://www.w3.org/2000/svg" xmlns:xlink="http://www.w3.org/1999/xlink" x="0px"
	 y="0px" viewBox="0 0 390 390" style="enable-background:new 0 0 390 390;" xml:space="preserve">
<style type="text/css">
	.st0{fill:#61CDF9;}
	.st1{fill:#E2E2E2;}
	.st2{fill:#242424;}
	.st3{fill:#D8D8D8;}
	.st4{fill:#005E8F;}
</style>
<g>
	<g>
		<path class="st0" d="M154.4,160.4c-1.1-0.5-2.5-1-3.8-1.4c-11.5-3.3-23.6,7.8-32.4,15.3c-11.3,9.5-19.7,22.4-24.6,37.5
			c-2.9,9.1-4.3,18.5-5.9,27.9c-1,5.8-2.1,14,4.1,16.4c9.5,3.5,19.8,3.1,29.8,2.8c1.8-0.1,4.6,0.4,5.4-2c0.4-1.1,0.3-2.3,0.3-3.5
			c-0.4-6.8-1-14.3-0.3-21c0.8-6.8,3.4-13.2,6-19.3c3.3-7.3,7.1-14.5,12.8-19.7c6-5.5,12.4-9.8,15.3-18.2
			C163.7,167.5,160.2,162.9,154.4,160.4z"/>
		<path d="M111.9,260.6c-6.9,0-14-0.6-20.7-3.1c-7.6-2.9-6-12.8-5.1-18c0.3-1.1,0.4-2.4,0.6-3.5c1.4-8.1,2.8-16.5,5.4-24.7
			c5-15.4,13.7-28.6,25.1-38.2c0.5-0.5,1.1-1,1.8-1.4c8.8-7.4,20.7-17.4,32.2-14.2c1.5,0.4,2.8,0.9,4,1.5l0,0
			c7.5,3.4,10,9.1,7.5,16.7c-2.4,7.1-7.4,11.5-12.3,15.7c-1.1,1-2.4,2-3.5,3.1c-5.8,5.4-9.6,13.2-12.4,19.3
			c-2.6,5.9-5.1,12.3-5.9,18.8c-0.6,5.8-0.3,12.2,0.1,18.3c0,0.9,0.1,1.8,0.1,2.5c0.1,1.3,0.1,2.6-0.4,4c-1,3-4.1,3-5.9,3l0,0
			c-0.3,0-0.5,0-0.8,0C118.6,260.5,115.3,260.6,111.9,260.6z M146.3,159.9c-8.9,0-17.9,7.8-25.6,14c-0.6,0.5-1.1,1-1.8,1.5
			c-11,9.1-19.3,21.9-24.1,36.7c-2.5,7.9-3.9,15.8-5.3,24.2c-0.3,1.1-0.4,2.4-0.6,3.5c-1,6.1-1.8,12.9,3.1,14.8
			c9.4,3.5,19.4,3,29.2,2.6c0.3,0,0.6,0,1,0c2,0,2.8-0.1,3.1-1c0.3-0.8,0.3-1.8,0.1-2.9c0-0.9-0.1-1.6-0.1-2.5
			c-0.4-6.3-0.8-12.8,0-18.8c0.8-7,3.4-13.7,6.1-19.7c2.9-6.4,6.9-14.4,13-20.2c1.1-1.1,2.4-2.1,3.5-3.1c4.8-4.1,9.1-8,11.4-14.4
			c2-6,0.1-10.1-5.9-12.9l0,0c-1.1-0.5-2.3-0.9-3.6-1.3C148.9,160,147.6,159.9,146.3,159.9z"/>
	</g>
	<g>
		<path class="st1" d="M99.8,257.6c0-1.8,0-3.5-0.3-5.3c-0.3-1.4-0.5-2.8-1.1-4c-1.1-2.3-3.6-3.9-5.8-3.1c-1.5,0.6-2.5,2.1-3,3.9
			c-0.5,1.8-0.4,3.6-0.3,5.4c0,0,1.1,1.3,4.9,2.3C97.9,257.9,99.8,257.6,99.8,257.6z"/>
		<path d="M99,259.2c-1,0-2.8-0.1-5.4-0.9c-4-1.1-5.3-2.5-5.5-2.8c-0.3-0.3-0.4-0.5-0.4-0.9c-0.1-1.9-0.3-3.9,0.3-5.9
			c0.6-2.4,2.1-4.3,3.9-4.9c3.1-1.3,6.3,1,7.8,3.8c0.6,1.3,1,2.6,1.4,4.4c0.3,1.8,0.3,3.4,0.3,5v0.5c0,0.8-0.5,1.4-1.3,1.5
			C99.9,259.1,99.5,259.2,99,259.2z M99.8,257.6L99.8,257.6L99.8,257.6z M90.8,253.8c0.5,0.4,1.6,1,3.8,1.6c1.6,0.5,2.9,0.6,3.8,0.8
			c0-1.3,0-2.4-0.3-3.5c-0.3-1.4-0.5-2.6-1-3.5c-0.8-1.5-2.5-2.9-3.9-2.4c-0.9,0.4-1.8,1.5-2.1,2.9
			C90.6,250.9,90.6,252.3,90.8,253.8z"/>
	</g>
	<g>
		<path class="st1" d="M112.2,259.1c0-1.8,0-3.5-0.3-5.3c-0.3-1.4-0.5-2.8-1.1-4c-1.1-2.3-3.6-3.9-5.8-3.1c-1.5,0.6-2.5,2.1-3,3.9
			c-0.5,1.8-0.6,6-0.4,7.9c0,0,0.5,0.4,4.3,0.6C109.9,259.3,112.2,259.1,112.2,259.1z"/>
		<path d="M109,260.7c-1,0-2.1,0-3.4-0.1c-4.1-0.4-4.8-0.8-5-0.9c-0.4-0.3-0.6-0.6-0.8-1.1c-0.1-2,0-6.4,0.5-8.4
			c0.6-2.4,2.1-4.3,3.9-4.9c3.1-1.3,6.3,1,7.8,3.8c0.6,1.3,1,2.6,1.4,4.4c0.3,1.8,0.3,3.4,0.3,5v0.5c0,0.8-0.5,1.4-1.3,1.5
			C112.4,260.6,111.2,260.7,109,260.7z M112.2,259.1L112.2,259.1L112.2,259.1z M103,257.2c0.6,0.1,1.5,0.3,2.9,0.4
			c2.1,0.1,3.8,0.1,4.8,0.1c0-1.3,0-2.5-0.3-3.6c-0.3-1.4-0.5-2.6-1-3.5c-0.8-1.5-2.5-2.9-3.9-2.4c-0.9,0.4-1.8,1.5-2.1,2.9
			C103.2,252.2,103,255.3,103,257.2z M102.2,257.1L102.2,257.1L102.2,257.1z"/>
	</g>
</g>
<g>
	<g>
		<path class="st0" d="M235.6,160.4c1.1-0.5,2.5-1,3.8-1.4c11.5-3.3,23.6,7.8,32.4,15.3c11.3,9.5,19.7,22.4,24.6,37.5
			c2.9,9.1,4.3,18.5,5.9,27.9c1,5.8,2.1,14-4.1,16.4c-9.5,3.5-19.8,3.1-29.8,2.8c-1.8-0.1-4.6,0.4-5.4-2c-0.4-1.1-0.3-2.3-0.3-3.5
			c0.4-6.8,1-14.3,0.3-21c-0.8-6.8-3.4-13.2-6-19.3c-3.3-7.3-7.1-14.5-12.8-19.7c-6-5.5-12.4-9.8-15.3-18.2
			C226.3,167.5,229.8,162.9,235.6,160.4z"/>
		<path d="M278,260.6c-3.4,0-6.6-0.1-9.8-0.3c-0.3,0-0.5,0-0.9,0l0,0c-1.9,0-4.9,0-5.9-3c-0.5-1.4-0.4-2.8-0.4-4
			c0-0.9,0.1-1.8,0.1-2.5c0.4-6.1,0.8-12.5,0.1-18.3c-0.8-6.6-3.3-12.9-5.9-18.8c-2.8-6.1-6.6-13.9-12.4-19.3
			c-1.1-1-2.3-2.1-3.5-3.1c-4.8-4.3-9.8-8.5-12.3-15.7c-2.6-7.5,0-13.3,7.5-16.7l0,0c1.3-0.5,2.5-1,4-1.5
			c11.5-3.3,23.4,6.8,32.2,14.2c0.6,0.5,1.1,1,1.8,1.4c11.4,9.5,20,22.8,25.1,38.2c2.6,8,4,16.5,5.4,24.7c0.3,1.1,0.4,2.4,0.6,3.5
			c0.9,5.3,2.6,15.2-5.1,18C292.1,260,284.9,260.6,278,260.6z M236.2,161.7L236.2,161.7c-6,2.8-7.9,6.9-5.9,12.9
			c2.1,6.4,6.6,10.3,11.4,14.4c1.1,1,2.4,2,3.5,3.1c6.1,5.8,10.3,13.8,13,20.2c2.8,6.1,5.4,12.7,6.1,19.7c0.8,6,0.4,12.5,0,18.8
			c0,0.9-0.1,1.8-0.1,2.5c0,1.1-0.1,2.1,0.1,2.9c0.3,0.9,1.1,1,3.1,1c0.4,0,0.6,0,1,0c9.8,0.4,19.9,0.9,29.2-2.6
			c4.9-1.9,4.3-8.5,3.1-14.8c-0.3-1.1-0.4-2.4-0.6-3.5c-1.4-8.4-2.8-16.4-5.3-24.2c-4.8-14.9-13.2-27.6-24.1-36.7
			c-0.5-0.5-1.1-1-1.8-1.5c-8.6-7.3-19.4-16.4-29.4-13.5C238.5,160.7,237.3,161.2,236.2,161.7z"/>
	</g>
	<g>
		<path class="st1" d="M290.3,257.6c0-1.8,0-3.5,0.3-5.3c0.3-1.4,0.5-2.8,1.1-4c1.1-2.3,3.6-3.9,5.8-3.1c1.5,0.6,2.5,2.1,3,3.9
			c0.5,1.8,0.4,3.6,0.3,5.4c0,0-1.1,1.3-4.9,2.3C292.2,257.9,290.3,257.6,290.3,257.6z"/>
		<path d="M291.1,259.2c-0.5,0-0.9,0-0.9,0c-0.8-0.1-1.3-0.8-1.3-1.5v-0.5c0-1.6,0-3.3,0.3-5c0.3-1.8,0.6-3.3,1.4-4.4
			c1.4-2.8,4.6-5,7.8-3.8c1.9,0.8,3.3,2.5,3.9,4.9c0.5,2,0.5,4,0.3,5.9c0,0.4-0.1,0.6-0.4,0.9c-0.3,0.3-1.6,1.6-5.5,2.8
			C293.8,259.1,291.9,259.2,291.1,259.2z M291.8,257.6L291.8,257.6L291.8,257.6z M290.3,257.6L290.3,257.6L290.3,257.6z
			 M296.3,246.5c-1.3,0-2.6,1.1-3.3,2.5c-0.5,0.9-0.8,2.1-1,3.5c-0.1,1.1-0.3,2.4-0.3,3.5c0.9-0.1,2.1-0.3,3.8-0.8
			c2.1-0.6,3.3-1.3,3.8-1.6c0.1-1.4,0.1-2.9-0.3-4.3c-0.4-1.4-1.3-2.5-2.1-2.9C296.8,246.5,296.6,246.5,296.3,246.5z"/>
	</g>
	<g>
		<path class="st1" d="M277.8,259.1c0-1.8,0-3.5,0.3-5.3c0.3-1.4,0.5-2.8,1.1-4c1.1-2.3,3.6-3.9,5.8-3.1c1.5,0.6,2.5,2.1,3,3.9
			c0.5,1.8,0.6,6,0.4,7.9c0,0-0.5,0.4-4.3,0.6C280.2,259.3,277.8,259.1,277.8,259.1z"/>
		<path d="M280.9,260.7c-2.1,0-3.3-0.1-3.4-0.1c-0.8-0.1-1.3-0.8-1.3-1.5v-0.5c0-1.6,0-3.3,0.3-5c0.3-1.8,0.6-3.3,1.4-4.4
			c1.4-2.8,4.6-5,7.8-3.8c1.9,0.8,3.3,2.5,3.9,4.9c0.5,2,0.6,6.4,0.5,8.4c0,0.5-0.3,0.9-0.8,1.1c-0.3,0.1-0.9,0.5-5,0.9
			C283.1,260.7,281.9,260.7,280.9,260.7z M279.3,259.1L279.3,259.1L279.3,259.1z M277.8,259.1L277.8,259.1L277.8,259.1z
			 M279.3,257.6c1,0,2.6,0.1,4.8-0.1c1.4-0.1,2.4-0.3,2.9-0.4c0-2-0.1-5-0.4-6.3c-0.4-1.4-1.3-2.5-2.1-2.9c-1.4-0.5-3.1,0.8-3.9,2.4
			c-0.5,0.9-0.8,2.1-1,3.5C279.3,255.2,279.3,256.3,279.3,257.6z"/>
	</g>
</g>
<g>
	<g>
		<path class="st0" d="M154.9,272c0.1,0-14.9,82.4-17,97.2c-0.3,2-0.5,4.1,0.3,6.1c2.3,5.6,18.7,7.4,23.8,7.4c6.4,0,19,0,26.6-2.8
			c2.1-0.8,3.6-2.6,4-4.9c0.5-2.3,1-5.4,1-7.4c0-3.6-0.1-88.6-0.1-88.6L154.9,272z"/>
		<path d="M162.8,384.1c-0.3,0-0.4,0-0.6,0h-0.4c-0.3,0-22.2-0.5-25.2-8.3c-0.9-2.3-0.6-4.5-0.3-6.9c1.5-10.6,9.8-56.6,14.3-81.3
			c1.5-8.6,2.8-15.4,2.9-15.9l1.5,0.3l0.3-1.5l39.6,7.4v1.3c0,0.9,0.1,84.9,0.1,88.6c0,1.8-0.4,4.4-1,7.8c-0.5,2.8-2.4,5-5,6
			C181.3,384.1,169.6,384.1,162.8,384.1z M156,273.7c-0.1,0.8-0.3,1.8-0.5,2.9c-0.5,2.8-1.3,6.8-2.1,11.5
			c-4.4,24.7-12.7,70.5-14.3,81.2c-0.3,1.9-0.5,3.8,0.1,5.4c1.6,4.3,15.4,6.4,22.4,6.4h0.4c6.5,0,18.5,0,25.7-2.6
			c1.6-0.6,2.8-2,3.1-3.8c0.6-3.1,0.9-5.6,0.9-7.1c0-3.4-0.1-76.7-0.1-87.3L156,273.7z"/>
	</g>
	<g>
		<path class="st1" d="M153.4,381.2c0-2,0-4-0.3-6c-0.3-1.6-0.6-3.1-1.4-4.5c-1.4-2.6-4.1-4.5-6.6-3.5c-1.8,0.6-2.9,2.5-3.4,4.5
			s-0.5,4.1-0.3,6.1c0,0,1.3,1.4,5.5,2.6C151.3,381.5,153.4,381.2,153.4,381.2z"/>
		<path d="M152.6,382.7c-1.1,0-3.1-0.1-6-1c-4.5-1.3-6-2.8-6.3-3c-0.3-0.3-0.4-0.5-0.4-0.9c-0.1-2.1-0.3-4.4,0.4-6.6
			c0.8-2.6,2.4-4.8,4.4-5.5c3.5-1.4,7,1.3,8.5,4.3c0.8,1.4,1.3,3,1.5,5s0.3,3.9,0.3,5.6v0.6c0,0.8-0.5,1.4-1.3,1.5
			C153.6,382.7,153.3,382.7,152.6,382.7z M153.4,381.2L153.4,381.2L153.4,381.2z M142.9,377c0.6,0.4,1.9,1.1,4.5,1.9
			c2,0.6,3.5,0.8,4.5,0.9c0-1.5,0-2.9-0.3-4.4c-0.3-1.6-0.6-3-1.1-4.1c-1-1.9-3-3.5-4.8-2.8c-1.1,0.4-2.1,1.8-2.5,3.5
			C142.7,373.6,142.7,375.2,142.9,377z"/>
	</g>
	<g>
		<path class="st1" d="M171.1,382.5c0-2,0-4,0.3-6c0.3-1.6,0.6-3.1,1.4-4.5c1.4-2.6,4.1-4.5,6.6-3.5c1.8,0.6,2.9,2.5,3.4,4.5
			c0.5,2,0.6,6.3,0.4,8.4c0,0-1,0.9-5.8,1C173.1,382.3,171.1,382.5,171.1,382.5z"/>
		<path d="M171.1,384c-0.4,0-0.8-0.1-1-0.4c-0.3-0.3-0.5-0.6-0.5-1.1v-0.6c0-1.9,0-3.8,0.3-5.6c0.3-2,0.8-3.6,1.5-5
			c1.5-3,5.1-5.6,8.5-4.3c2,0.8,3.6,2.9,4.4,5.5c0.6,2.3,0.6,6.9,0.5,8.9c0,0.4-0.3,0.8-0.5,1c-0.4,0.4-2,1.3-6.6,1.4
			C173.2,383.8,171.2,384,171.1,384C171.2,384,171.2,384,171.1,384z M172.6,382.5L172.6,382.5L172.6,382.5z M177.9,369.7
			c-1.5,0-3.1,1.4-3.9,3c-0.5,1.1-1,2.4-1.1,4.1c-0.3,1.4-0.3,2.8-0.3,4.3c1,0,2.6-0.1,4.8-0.1c2.4-0.1,3.6-0.4,4.4-0.5
			c0.1-2.1,0-5.4-0.4-7c-0.5-1.8-1.4-3-2.5-3.5C178.6,369.7,178.2,369.7,177.9,369.7z"/>
	</g>
	<g>
		<path class="st1" d="M167.9,382.5c0-2,0-4-0.3-6c-0.3-1.6-0.6-3.1-1.4-4.5c-1.4-2.6-4.1-4.5-6.6-3.5c-1.8,0.6-2.9,2.5-3.4,4.5
			c-0.5,2-0.6,6.9-0.5,9c0,0,0.6,0.4,4.9,0.8C165.3,382.8,167.9,382.5,167.9,382.5z"/>
		<path d="M164.4,384.1c-1.1,0-2.4,0-3.9-0.1c-4.6-0.4-5.4-0.8-5.5-0.9c-0.4-0.3-0.6-0.6-0.8-1.1c-0.3-2.3,0-7.4,0.5-9.5
			c0.8-2.6,2.4-4.8,4.4-5.5c3.5-1.4,7,1.3,8.5,4.3c0.8,1.4,1.3,3,1.5,5s0.3,3.9,0.3,5.6v0.6c0,0.8-0.5,1.4-1.3,1.5
			C168,384,166.8,384.1,164.4,384.1z M167.9,382.5L167.9,382.5L167.9,382.5z M157.2,380.6c0.6,0.1,1.8,0.3,3.5,0.4
			c2.6,0.3,4.5,0.1,5.6,0.1c0-1.5,0-3-0.3-4.5c-0.3-1.6-0.6-3-1.1-4.1c-1-1.9-3-3.5-4.8-2.8c-1.1,0.4-2.1,1.8-2.5,3.5
			C157.3,374.7,157.2,378.3,157.2,380.6z M156.4,380.5L156.4,380.5L156.4,380.5z"/>
	</g>
</g>
<g>
	<g>
		<path class="st0" d="M238.8,272c-0.1,0,14.9,82.4,17,97.2c0.3,2,0.5,4.1-0.3,6.1c-2.3,5.6-18.7,7.4-23.8,7.4c-6.4,0-19,0-26.6-2.8
			c-2.1-0.8-3.6-2.6-4-4.9c-0.5-2.3-1-5.4-1-7.4c0-3.6,0.1-88.6,0.1-88.6L238.8,272z"/>
		<path d="M230.9,384.1c-6.8,0-18.7-0.1-26.1-2.9c-2.6-1-4.5-3.3-5-6c-0.5-2.3-1-5.5-1-7.8c0-3.6,0.1-87.7,0.1-88.6v-1.3l39.6-7.4
			l0.3,1.5l1.5-0.1c0.1,0.5,1.3,7.3,2.9,15.9c4.4,24.7,12.7,70.7,14.3,81.3c0.4,2.4,0.6,4.6-0.3,6.9c-3,7.8-24.9,8.3-25.2,8.3h-0.4
			C231.3,384.1,231.1,384.1,230.9,384.1z M202,280.4c0,10.5-0.1,83.9-0.1,87.3c0,1.5,0.4,4,0.9,7.1c0.4,1.8,1.5,3.1,3.1,3.8
			c7.1,2.6,19.2,2.6,25.7,2.6h0.4c6.9,0,20.8-2.3,22.4-6.4c0.6-1.5,0.4-3.4,0.1-5.4c-1.5-10.6-9.8-56.5-14.3-81.2
			c-0.9-4.8-1.6-8.8-2.1-11.5c-0.3-1.3-0.4-2.1-0.5-2.9L202,280.4z"/>
	</g>
	<g>
		<path class="st1" d="M240.2,381.2c0-2,0-4,0.3-6c0.3-1.6,0.6-3.1,1.4-4.5c1.4-2.6,4.1-4.5,6.6-3.5c1.8,0.6,2.9,2.5,3.4,4.5
			c0.5,2,0.5,4.1,0.3,6.1c0,0-1.3,1.4-5.5,2.6C242.3,381.5,240.2,381.2,240.2,381.2z"/>
		<path d="M241,382.7c-0.6,0-1,0-1,0c-0.8-0.1-1.3-0.8-1.3-1.5v-0.6c0-1.9,0-3.8,0.3-5.6c0.3-2,0.8-3.6,1.5-5c1.5-3,5.1-5.6,8.5-4.3
			c2,0.8,3.6,2.9,4.4,5.5c0.6,2.3,0.5,4.5,0.4,6.6c0,0.4-0.1,0.6-0.4,0.9c-0.3,0.3-1.8,1.8-6.3,3C244.1,382.6,242.1,382.7,241,382.7
			z M241.7,381.2L241.7,381.2L241.7,381.2z M240.2,381.2L240.2,381.2L240.2,381.2z M247.1,368.3c-1.5,0-3.1,1.4-3.9,3
			c-0.5,1.1-1,2.4-1.1,4.1c-0.3,1.5-0.3,2.9-0.3,4.4c1-0.1,2.5-0.3,4.5-0.9c2.6-0.8,3.9-1.5,4.5-1.9c0.1-1.6,0.1-3.4-0.3-5
			c-0.5-1.8-1.4-3-2.5-3.5C247.6,368.3,247.3,368.3,247.1,368.3z"/>
	</g>
	<g>
		<path class="st1" d="M222.5,382.5c0-2,0-4-0.3-6c-0.3-1.6-0.6-3.1-1.4-4.5c-1.4-2.6-4.1-4.5-6.6-3.5c-1.8,0.6-2.9,2.5-3.4,4.5
			s-0.6,6.3-0.4,8.4c0,0,1,0.9,5.8,1C220.5,382.3,222.5,382.5,222.5,382.5z"/>
		<path d="M222.5,384C222.5,384,222.4,384,222.5,384c-0.1,0-2.1-0.1-6.4-0.3c-4.8-0.1-6.3-1-6.6-1.4c-0.3-0.3-0.5-0.6-0.5-1
			c-0.1-2-0.1-6.5,0.5-8.9c0.8-2.6,2.4-4.8,4.4-5.5c3.5-1.4,7,1.3,8.5,4.3c0.8,1.4,1.3,3,1.5,5c0.3,2,0.3,3.9,0.3,5.6v0.6
			c0,0.4-0.1,0.8-0.5,1.1C223.3,383.8,222.9,384,222.5,384z M211.9,380.2c0.6,0.3,2,0.5,4.4,0.5c2.1,0.1,3.8,0.1,4.8,0.1
			c0-1.5,0-2.9-0.3-4.3c-0.3-1.6-0.6-3-1.1-4.1c-1-1.9-3-3.5-4.8-2.8c-1.1,0.4-2.1,1.8-2.5,3.5C211.9,374.8,211.8,378.1,211.9,380.2
			z"/>
	</g>
	<g>
		<path class="st1" d="M225.7,382.5c0-2,0-4,0.3-6c0.3-1.6,0.6-3.1,1.4-4.5c1.4-2.6,4.1-4.5,6.6-3.5c1.8,0.6,2.9,2.5,3.4,4.5
			c0.5,2,0.6,6.9,0.5,9c0,0-0.6,0.4-4.9,0.8C228.3,382.8,225.7,382.5,225.7,382.5z"/>
		<path d="M229.3,384.1c-2.4,0-3.8-0.3-3.8-0.3c-0.8-0.1-1.3-0.8-1.3-1.5v-0.6c0-1.9,0-3.8,0.3-5.6c0.3-2,0.8-3.6,1.5-5
			c1.5-3,5.1-5.6,8.5-4.3c2,0.8,3.6,2.9,4.4,5.5c0.5,2.1,0.8,7.3,0.5,9.5c0,0.5-0.3,0.9-0.8,1.1c-0.3,0.1-0.9,0.6-5.5,0.9
			C231.7,384.1,230.3,384.1,229.3,384.1z M227.2,382.5L227.2,382.5L227.2,382.5z M225.7,382.5L225.7,382.5L225.7,382.5z
			 M227.2,381.1c1.1,0.1,3.1,0.1,5.6-0.1c1.8-0.1,2.9-0.3,3.5-0.4c0-2.3-0.1-5.9-0.5-7.4c-0.5-1.8-1.4-3-2.5-3.5
			c-1.8-0.6-3.8,0.9-4.8,2.8c-0.5,1.1-1,2.4-1.1,4.1C227.3,378.1,227.2,379.6,227.2,381.1z M237.3,380.5L237.3,380.5L237.3,380.5z"
			/>
	</g>
</g>
<g>
	<g>
		<path class="st2" d="M268.9,216.2c-5.4-22.8-8.5-25.6-14-58c-4.8-27.3-31.3-36-31.3-36c-20.7-4.6-53.2,0-53.2,0s-27.4,8.5-31.3,36
			c-4,27.7-8.8,35.3-14,58c-5.4,22.8,2.5,87.1,72,87.1S274.3,238.9,268.9,216.2z"/>
		<path d="M196.9,304.8c-25.6,0-45.3-8.5-58.5-25.2c-16.8-21.3-18.2-50.4-15-63.8c2-8.4,3.9-14.7,5.6-20.8c3-10.1,5.9-19.7,8.4-37.1
			c4-28.1,32.1-37.1,32.3-37.2h0.3c0.1,0,8.4-1.1,19-1.8c14.4-0.8,26.1-0.1,34.8,1.8h0.1c0.3,0.1,27.6,9.3,32.3,37.2
			c3.5,20.4,6.1,29.1,8.8,38.3c1.6,5.5,3.3,11.1,5.3,19.7c3.1,13.4,1.9,42.5-15,63.8C242.1,296.3,222.4,304.8,196.9,304.8z
			 M170.6,123.7c-1.9,0.6-26.6,9.4-30.2,34.7c-2.5,17.5-5.4,27.3-8.5,37.6c-1.8,6-3.6,12.3-5.6,20.7c-3,12.8-1.8,40.8,14.4,61.3
			c12.7,15.9,31.6,24.1,56.2,24.1s43.6-8.1,56.2-24.1c16.2-20.4,17.4-48.4,14.4-61.3c-2-8.4-3.6-14-5.3-19.4
			c-2.8-9.3-5.4-18.2-8.9-38.7c-4.4-25.6-28.8-34.3-30.2-34.8C203.5,119.3,172.8,123.3,170.6,123.7z"/>
	</g>
	<g>
		<g>
			<path class="st3" d="M164.8,194.6c-1.9,2-2,4.9-0.5,6.9c-2.1-1.4-5.1-1-6.9,1c-2.1,2.3-2,5.8,0.3,7.8c2.3,2.1,5.8,2,7.8-0.3
				c0.1-0.1,0.3-0.4,0.4-0.5l18.4,17.3l6-6.5l-18.5-17.4c0.4-0.3,0.8-0.5,1-0.9c2.1-2.3,2-5.8-0.3-7.8
				C170.4,192.2,166.9,192.3,164.8,194.6z"/>
			<path d="M184.3,228.3c-0.4,0-0.8-0.1-1-0.4l-17.4-16.3c-1.3,1-2.6,1.5-4.3,1.6c-1.9,0-3.6-0.6-5-1.9c-2.9-2.6-3-7.1-0.4-9.9
				c1.5-1.5,3.5-2.4,5.5-2.3c-0.3-2,0.4-4.1,1.9-5.6c2.6-2.9,7.1-3,9.9-0.4s3,7,0.5,9.8l17.3,16.3c0.6,0.6,0.6,1.5,0.1,2.1l-6,6.5
				C185.2,228.1,184.8,228.3,184.3,228.3L184.3,228.3z M165.9,208c0.4,0,0.8,0.1,1,0.4l17.4,16.3l4-4.3L170.9,204
				c-0.4-0.4-0.5-0.8-0.5-1.3c0-0.5,0.3-0.9,0.6-1.1s0.6-0.4,0.8-0.6c0.8-0.8,1.1-1.8,1.1-2.9c0-1.1-0.5-2.1-1.3-2.8
				c-1.6-1.5-4.1-1.4-5.6,0.1l0,0c-1.3,1.4-1.5,3.5-0.4,5c0.4,0.6,0.4,1.4-0.1,1.9c-0.5,0.5-1.3,0.6-1.9,0.3c-1.6-1-3.8-0.8-5,0.6
				c-1.5,1.6-1.4,4.1,0.1,5.6c1.6,1.5,4.1,1.4,5.6-0.1c0,0,0.1-0.1,0.1-0.3l0.1-0.1c0.3-0.4,0.6-0.5,1.1-0.6
				C165.8,208,165.8,208,165.9,208z M164.8,194.6L164.8,194.6L164.8,194.6z"/>
		</g>
		<g>
			<path class="st3" d="M228.8,194.6c1.9,2,2,4.9,0.5,6.9c2.1-1.4,5.1-1,6.9,1c2.1,2.3,2,5.8-0.3,7.8c-2.3,2.1-5.8,2-7.8-0.3
				c-0.1-0.1-0.3-0.4-0.4-0.5l-18.4,17.3l-6-6.5l18.5-17.4c-0.4-0.3-0.8-0.5-1-0.9c-2.1-2.3-2-5.8,0.3-7.8
				C223.2,192.2,226.7,192.3,228.8,194.6z"/>
			<path d="M209.3,228.3L209.3,228.3c-0.5,0-0.9-0.1-1.1-0.5l-6-6.5c-0.6-0.6-0.5-1.5,0.1-2.1l17.3-16.3c-1.3-1.4-1.9-3.1-1.8-4.9
				c0-1.9,0.9-3.6,2.3-4.9c2.9-2.6,7.3-2.5,9.9,0.4l0,0c1.5,1.5,2.1,3.6,1.9,5.6c2-0.1,4.1,0.6,5.5,2.3c2.6,2.9,2.5,7.3-0.4,9.9
				c-1.4,1.3-3.1,2-5,1.9c-1.6,0-3-0.6-4.3-1.6l-17.4,16.3C210,228.1,209.6,228.3,209.3,228.3z M205.4,220.4l4,4.3l17.4-16.3
				c0.3-0.3,0.8-0.4,1.1-0.4s0.9,0.3,1.1,0.6l0.1,0.1c0,0.1,0.1,0.1,0.1,0.1c0.8,0.8,1.8,1.3,2.8,1.3c1.1,0,2.1-0.4,2.9-1.1
				c1.6-1.5,1.8-4,0.1-5.6c-1.3-1.4-3.4-1.6-5-0.8c-0.6,0.4-1.4,0.3-1.9-0.3c-0.5-0.5-0.5-1.3-0.1-1.9c1.1-1.5,0.9-3.6-0.4-5
				c-1.5-1.6-4-1.8-5.6-0.1c-0.8,0.8-1.3,1.8-1.3,2.8c0,1.1,0.4,2.1,1.1,2.9c0.3,0.3,0.5,0.4,0.8,0.6c0.4,0.3,0.6,0.6,0.6,1.1
				c0,0.5-0.1,0.9-0.5,1.3L205.4,220.4z"/>
		</g>
		<g>
			<path class="st3" d="M164.8,266c-1.9-2-2-4.9-0.5-6.9c-2.1,1.4-5.1,1-6.9-1c-2.1-2.3-2-5.8,0.3-7.8c2.3-2.1,5.8-2,7.8,0.3
				c0.1,0.1,0.3,0.4,0.4,0.5l18.5-17.3l6,6.5l-18.5,17.3c0.4,0.3,0.8,0.5,1,0.9c2.1,2.3,2,5.8-0.3,7.8
				C170.4,268.3,166.9,268.2,164.8,266z"/>
			<path d="M168.9,269.2c-0.1,0-0.1,0-0.3,0c-1.9,0-3.6-0.9-4.9-2.3l0,0c-1.5-1.5-2.1-3.6-1.9-5.6c-2,0.1-4.1-0.6-5.5-2.3
				c-2.6-2.9-2.5-7.3,0.4-9.9c2.6-2.5,6.6-2.5,9.3-0.3l17.4-16.3c0.6-0.6,1.5-0.5,2.1,0.1l6,6.5c0.3,0.3,0.4,0.6,0.4,1.1
				c0,0.4-0.1,0.8-0.5,1l-17.3,16.3c1.3,1.4,1.9,3.1,1.8,4.9c0,1.9-0.9,3.6-2.3,4.9C172.3,268.6,170.7,269.2,168.9,269.2z
				 M164.3,257.6c0.4,0,0.8,0.1,1.1,0.5c0.5,0.5,0.5,1.3,0.1,1.9c-1.1,1.5-0.9,3.6,0.4,5l0,0c0.8,0.8,1.8,1.3,2.8,1.3
				c1.1,0,2.1-0.4,2.9-1.1c1.6-1.5,1.8-4,0.1-5.6c-0.3-0.3-0.5-0.4-0.8-0.6c-0.4-0.3-0.6-0.6-0.6-1.1s0.1-0.9,0.5-1.3l17.4-16.4
				l-4-4.3l-17.4,16.3c-0.4,0.3-0.8,0.5-1.1,0.4c-0.4,0-0.9-0.3-1.1-0.6l-0.1-0.1c0-0.1-0.1-0.1-0.1-0.3c-1.5-1.6-4.1-1.8-5.6-0.1
				c-1.6,1.5-1.8,4-0.1,5.6c1.3,1.4,3.4,1.6,5,0.6C163.8,257.6,164,257.6,164.3,257.6z"/>
		</g>
		<g>
			<path class="st3" d="M228.8,266c1.9-2,2-4.9,0.5-6.9c2.1,1.4,5.1,1,6.9-1c2.1-2.3,2-5.8-0.3-7.8c-2.3-2.1-5.8-2-7.8,0.3
				c-0.1,0.1-0.3,0.4-0.4,0.5l-18.5-17.3l-6,6.5l18.5,17.4c-0.4,0.3-0.8,0.5-1,0.9c-2.1,2.3-2,5.8,0.3,7.8
				C223.2,268.3,226.7,268.2,228.8,266z"/>
			<path d="M224.8,269.2c-1.8,0-3.5-0.6-4.8-1.9c-1.4-1.3-2.1-3-2.3-4.9c0-1.9,0.6-3.5,1.8-4.9l-17.3-16.3c-0.3-0.3-0.5-0.6-0.5-1
				s0.1-0.8,0.4-1.1l6-6.5c0.6-0.6,1.5-0.6,2.1-0.1l17.4,16.3c2.6-2.3,6.6-2.1,9.3,0.3c2.9,2.6,3,7.1,0.4,9.9
				c-1.5,1.5-3.5,2.4-5.5,2.3c0.3,2-0.4,4.1-1.9,5.6l0,0C228.6,268.5,226.7,269.2,224.8,269.2z M205.4,240.2l17.4,16.4
				c0.4,0.4,0.5,0.8,0.5,1.3c0,0.5-0.3,0.9-0.6,1.1c-0.4,0.3-0.6,0.4-0.8,0.6c-0.8,0.8-1.1,1.8-1.1,2.9c0,1.1,0.5,2.1,1.3,2.8
				c0.8,0.8,1.8,1.1,2.9,1.1c1.1,0,2.1-0.5,2.8-1.3l0,0c1.3-1.4,1.5-3.5,0.4-5c-0.4-0.6-0.4-1.4,0.1-1.9s1.3-0.6,1.9-0.3
				c1.6,1,3.8,0.8,5-0.8c1.5-1.6,1.4-4.1-0.1-5.6c-1.6-1.5-4.1-1.4-5.6,0.1l-0.1,0.1l-0.1,0.1c-0.3,0.4-0.6,0.5-1.1,0.6
				c-0.4,0-0.9-0.1-1.1-0.4l-17.4-16.3L205.4,240.2z M228.8,266L228.8,266L228.8,266z"/>
		</g>
		<g>
			<path class="st3" d="M216,243.9c0,10.5-8.6,18.9-19.2,18.9s-19.2-8.5-19.2-18.9V234h38.5v9.9H216z"/>
			<path d="M196.9,264.3c-11.4,0-20.7-9.1-20.7-20.4V234c0-0.9,0.6-1.5,1.5-1.5h38.5c0.9,0,1.5,0.6,1.5,1.5v9.9
				C217.5,255.2,208.3,264.3,196.9,264.3z M179.1,235.4v8.4c0,9.6,7.9,17.4,17.7,17.4c9.8,0,17.7-7.8,17.7-17.4v-8.4H179.1z"/>
		</g>
		<g>
			<path class="st3" d="M175.6,222.7c0-11.5,9.5-20.9,21.2-20.9s21.2,9.4,21.2,20.9v11h-42.3V222.7z"/>
			<path d="M218,235.3h-42.5c-0.9,0-1.5-0.6-1.5-1.5v-11c0-12.4,10.1-22.4,22.7-22.4c12.5,0,22.7,10,22.7,22.4v11
				C219.5,234.5,218.9,235.3,218,235.3z M177.1,232.3h39.3v-9.5c0-10.6-8.9-19.4-19.7-19.4s-19.7,8.6-19.7,19.4
				C177.1,222.7,177.1,232.3,177.1,232.3z"/>
		</g>
		<g>
			<g>
				<path class="st1" d="M187.3,255.6h-0.3c-1.6,0-3-1.4-3-3v-1.1c0-1.6,1.4-3,3-3h0.3c1.6,0,3,1.4,3,3v1.1
					C190.3,254.2,189.1,255.6,187.3,255.6z"/>
				<path d="M188.5,257.1H186c-1.9,0-3.4-1.5-3.4-3.4v-3.5c0-1.9,1.5-3.4,3.4-3.4h2.5c1.9,0,3.4,1.5,3.4,3.4v3.5
					C191.9,255.6,190.3,257.1,188.5,257.1z M186,249.9c-0.3,0-0.4,0.1-0.4,0.4v3.5c0,0.3,0.1,0.4,0.4,0.4h2.5c0.3,0,0.4-0.1,0.4-0.4
					v-3.5c0-0.3-0.1-0.4-0.4-0.4H186z"/>
			</g>
			<g>
				<path class="st1" d="M206.5,255.6h-0.3c-1.6,0-3-1.4-3-3v-1.1c0-1.6,1.4-3,3-3h0.3c1.6,0,3,1.4,3,3v1.1
					C209.5,254.2,208.1,255.6,206.5,255.6z"/>
				<path d="M207.6,257.1h-2.5c-1.9,0-3.4-1.5-3.4-3.4v-3.5c0-1.9,1.5-3.4,3.4-3.4h2.5c1.9,0,3.4,1.5,3.4,3.4v3.5
					C211,255.6,209.5,257.1,207.6,257.1z M205.1,249.9c-0.3,0-0.4,0.1-0.4,0.4v3.5c0,0.3,0.1,0.4,0.4,0.4h2.5c0.3,0,0.4-0.1,0.4-0.4
					v-3.5c0-0.3-0.1-0.4-0.4-0.4H205.1z"/>
			</g>
		</g>
		<g>
			<path class="st3" d="M224.9,238c0,11.1-12.5,13.4-28.1,13.4s-28.1-2.3-28.1-13.4c0-11.1,12.5-20.3,28.1-20.3
				S224.9,226.9,224.9,238z"/>
			<path d="M196.9,252.9c-9.3,0-15.8-0.9-20.4-2.6c-6.1-2.4-9.1-6.5-9.1-12.3c0-12,13.3-21.8,29.6-21.8s29.6,9.8,29.6,21.8
				C226.4,251.3,210.6,252.9,196.9,252.9z M196.9,219.2c-14.7,0-26.6,8.4-26.6,18.8c0,8.4,7.9,11.9,26.6,11.9s26.6-3.5,26.6-11.9
				C223.4,227.8,211.5,219.2,196.9,219.2z"/>
		</g>
		<circle cx="184.1" cy="224.2" r="1.8"/>
		<circle cx="209.5" cy="224.2" r="1.8"/>
		<ellipse transform="matrix(0.5 -0.866 0.866 0.5 -91.9865 269.6199)" cx="187.5" cy="214.5" rx="4.5" ry="5.4"/>
		<ellipse transform="matrix(0.866 -0.5 0.5 0.866 -79.6194 131.8151)" cx="206.2" cy="214.5" rx="5.4" ry="4.5"/>
	</g>
</g>
<g>
	<path class="st0" d="M253.1,71.9c0-32.1-25.9-58-58-58S137,39.8,137,71.9v33.2h116.1V71.9z"/>
	<path d="M254.6,106.6H135.5V71.9c0-32.8,26.7-59.5,59.5-59.5s59.5,26.7,59.5,59.5v34.7H254.6z M138.5,103.6h113.1V71.9
		c0-31.2-25.3-56.5-56.5-56.5s-56.6,25.3-56.6,56.5V103.6z"/>
</g>
<g>
	<path class="st0" d="M166.5,24.9c0,0-3.1-17.9-23.7-17.5c-20.5,0.4-5.3,25.3,8.3,28.8"/>
	<path d="M151.1,37.7c-0.1,0-0.3,0-0.4,0c-9.9-2.5-20.4-15.5-19.4-23.9c0.4-2.9,2.3-7.6,11.4-7.9c0.3,0,0.5,0,0.8,0
		c20.9,0,24.4,18.5,24.4,18.8c0.1,0.9-0.4,1.6-1.3,1.8c-0.9,0.1-1.6-0.4-1.8-1.3c-0.1-0.8-3.1-16.3-21.4-16.3c-0.3,0-0.5,0-0.8,0
		c-5.3,0.1-8.1,1.9-8.5,5.1c-0.9,7.1,8.6,18.5,17.2,20.7c0.8,0.3,1.3,1,1.1,1.9C152.4,37.3,151.9,37.7,151.1,37.7z"/>
</g>
<g>
	<path class="st4" d="M155.4,31.8c0,0-6.1-11.9-16.4-15.3C139,16.4,139.5,29.2,155.4,31.8z"/>
	<path d="M155.4,33.3c-0.1,0-0.1,0-0.3,0c-8.9-1.4-13.2-5.9-15.3-9.4c-2.3-3.8-2.5-7.3-2.5-7.4c0-0.5,0.3-1,0.6-1.3s0.9-0.4,1.4-0.3
		c10.9,3.5,17,15.5,17.4,16c0.3,0.5,0.3,1.1-0.1,1.6C156.4,33.1,155.9,33.3,155.4,33.3z M141,18.9c0.9,3.1,3.6,8.3,11.4,10.6
		C150.1,26.4,146.3,21.6,141,18.9z"/>
</g>
<g>
	<path class="st0" d="M223.5,24.9c0,0,3.1-17.9,23.7-17.5c20.5,0.4,5.3,25.3-8.3,28.8"/>
	<path d="M238.8,37.7c-0.6,0-1.3-0.5-1.5-1.1c-0.3-0.8,0.3-1.6,1.1-1.9c8.5-2.3,17.9-13.7,17.2-20.7c-0.4-3.4-3.3-5.1-8.5-5.1
		c-0.3,0-0.5,0-0.8,0c-18.4,0-21.3,15.5-21.4,16.3c-0.1,0.9-0.9,1.4-1.8,1.3c-0.9-0.1-1.4-0.9-1.3-1.8c0-0.3,3.5-19.2,25.2-18.8
		c9.1,0.3,11.1,5,11.4,7.9c1,8.4-9.5,21.4-19.4,23.9C239.1,37.7,239,37.7,238.8,37.7z"/>
</g>
<g>
	<path class="st4" d="M234.6,31.8c0,0,6.1-11.9,16.4-15.3C251.1,16.4,250.6,29.2,234.6,31.8z"/>
	<path d="M234.6,33.3c-0.5,0-0.9-0.3-1.3-0.6c-0.4-0.5-0.4-1.1-0.1-1.6c0.3-0.5,6.5-12.5,17.4-16c0.5-0.1,1-0.1,1.4,0.3
		c0.4,0.3,0.6,0.8,0.6,1.3c0,0.1-0.8,14-17.8,16.8C234.7,33.3,234.7,33.3,234.6,33.3z M249.1,18.9c-5.3,2.6-9.3,7.5-11.4,10.6
		C245.5,27.2,248.2,22.1,249.1,18.9z"/>
</g>
<g>
	<circle cx="177.3" cy="51.6" r="5"/>
	<circle cx="212.6" cy="51.6" r="5"/>
</g>
<path d="M185.2,38.3c-2.1,0-5.4-0.4-6.8-3.1c-0.5-1-0.6-2-0.6-3c-0.1-2.3-0.1-4.6,0-6.9c0-0.9,0.8-1.5,1.5-1.5
	c0.9,0,1.5,0.8,1.5,1.5c-0.1,2.3,0,4.4,0,6.6c0,0.8,0.1,1.4,0.4,1.9c0.5,1.1,2.3,1.6,5.1,1.4l1.3-4.1c0.1-0.6,0.6-1,1.3-1
	c0.6-0.1,1.1,0.3,1.5,0.8l2.4,4c0,0.1,0.3,0.4,0.3,0.4c0.1,0,0.3,0,0.4,0h4.3c0.1,0,0.3,0,0.4,0c0-0.1,0.1-0.3,0.1-0.4
	c0.4-1.1,0.8-2.4,1-3.5c0.1-0.6,0.6-1,1.1-1.1c0.6-0.1,1.1,0.1,1.5,0.6c0.9,1.3,1.6,2.3,2.5,3c0.9,0.8,2,1,2.9,0.8
	c1.8-0.4,2.5-2.8,2.8-4.8c0.1-1.5,0.1-3-0.1-4.5c-0.1-0.9,0.5-1.6,1.3-1.8c0.9-0.1,1.6,0.5,1.8,1.3c0.3,1.8,0.3,3.5,0.1,5.3
	c-0.4,4-2.3,6.8-5,7.4c-1.8,0.5-3.8,0-5.4-1.3c-0.5-0.4-0.9-0.8-1.3-1.1c-0.1,0.3-0.3,0.6-0.3,0.9c-0.1,0.5-0.5,1.4-1.3,1.9
	c-0.8,0.5-1.5,0.5-2.1,0.5h-4.3c-0.5,0-1.1,0-1.8-0.3c-0.9-0.4-1.3-1.1-1.5-1.6l-0.6-1l-0.3,0.9c-0.1,0.4-0.4,1.1-1,1.6
	c-0.6,0.5-1.4,0.5-1.8,0.5C186.2,38.3,185.7,38.3,185.2,38.3z M198,35.3L198,35.3L198,35.3z M186.6,35.2L186.6,35.2L186.6,35.2z
	 M198.1,35.2L198.1,35.2L198.1,35.2z"/>
<g>
	<path class="st0" d="M136.4,124.3c0,33.4,27.1,60.5,60.5,60.5s60.5-27.1,60.5-60.5H136.4z"/>
	<path d="M196.9,186.2c-34.2,0-62-27.8-62-62v-1.5h124v1.5C258.9,158.4,231.1,186.2,196.9,186.2z M137.9,125.8
		c0.8,31.8,26.9,57.5,59,57.5s58.1-25.7,59-57.5L137.9,125.8L137.9,125.8z"/>
</g>
<g>
	<g>
		<g>
			<path class="st1" d="M167.2,159.2h-0.5c-3.9,0-7-3.1-7-7v-2.6c0-3.9,3.1-7,7-7h0.5c3.9,0,7,3.1,7,7v2.6
				C174.2,156.1,171.1,159.2,167.2,159.2z"/>
			<path d="M169.8,160.7h-5.9c-3.3,0-5.9-2.6-5.9-5.9v-8c0-3.3,2.6-5.9,5.9-5.9h5.9c3.3,0,5.9,2.6,5.9,5.9v8
				C175.7,158.1,173.1,160.7,169.8,160.7z M163.9,144.1c-1.5,0-2.9,1.3-2.9,2.8v8c0,1.5,1.3,2.8,2.9,2.8h5.9c1.5,0,2.9-1.3,2.9-2.8
				v-8c0-1.5-1.3-2.8-2.9-2.8H163.9z"/>
		</g>
		<g>
			<path class="st1" d="M223.4,159.2h-0.5c-3.9,0-7-3.1-7-7v-2.6c0-3.9,3.1-7,7-7h0.5c3.9,0,7,3.1,7,7v2.6
				C230.4,156.1,227.3,159.2,223.4,159.2z"/>
			<path d="M226.1,160.7h-5.9c-3.3,0-5.9-2.6-5.9-5.9v-8c0-3.3,2.6-5.9,5.9-5.9h5.9c3.3,0,5.9,2.6,5.9,5.9v8
				C231.9,158.1,229.3,160.7,226.1,160.7z M220.2,144.1c-1.5,0-2.8,1.3-2.8,2.8v8c0,1.5,1.3,2.8,2.8,2.8h5.9c1.5,0,2.8-1.3,2.8-2.8
				v-8c0-1.5-1.3-2.8-2.8-2.8H220.2z"/>
		</g>
	</g>
	<g>
		<path class="st0" d="M242.5,78.9c1-1.5,2-12-6-15.2c-7.5-2.9-13.5,1.4-15.2,4.5c-8.8-3.6-16.2-4.5-26.3-4.5
			c-10.1,0-17.5,0.9-26.3,4.5c-1.5-3.1-7.6-7.4-15.2-4.5c-8,3-7,13.7-6,15.2c-16.3,12.3-24.4,30.3-24.4,48.6v7.9
			c0,8.5,6.9,15.4,15.4,15.4H195h56.5c8.5,0,15.4-6.9,15.4-15.4v-7.9C267,109.2,258.9,91.1,242.5,78.9z"/>
		<path d="M251.5,152.3h-113c-9.4,0-16.9-7.6-16.9-16.9v-7.9c0-19.4,8.8-37.2,24.2-49.1c-0.5-2-0.6-5.4,0.4-8.5
			c1.1-3.6,3.5-6.3,6.9-7.5c7.1-2.8,13.5,0.4,16.3,4.1c8.9-3.5,16.5-4.3,25.7-4.3s16.8,0.8,25.7,4.3c2.6-3.6,9.1-6.8,16.3-4.1
			c3.4,1.3,5.8,3.9,6.9,7.5c1,3.1,0.9,6.5,0.4,8.5c15.4,11.9,24.2,29.8,24.2,49.1v7.9C268.5,144.7,260.9,152.3,251.5,152.3z
			 M158.5,64.3c-1.4,0-2.9,0.3-4.4,0.9c-2.4,0.9-4,2.6-4.9,5.1c-1.3,3.5-0.8,7.1-0.4,7.8l0.8,1.1l-1.1,0.9
			c-15.2,11.3-23.8,28.6-23.8,47.4v7.9c0,7.6,6.3,13.9,13.9,13.9h113c7.6,0,13.9-6.3,13.9-13.9v-7.9c0-18.8-8.6-36.1-23.8-47.4
			l-1.1-0.9l0.8-1.1c0.4-0.6,0.9-4.4-0.4-7.8c-0.9-2.5-2.6-4.3-4.9-5.1c-6.6-2.5-12,1.3-13.2,3.8l-0.6,1.3l-1.3-0.5
			c-9-3.8-16.3-4.5-25.8-4.5c-9.5,0-17,0.9-25.9,4.5l-1.3,0.5l-0.6-1.3C166.4,67,163,64.3,158.5,64.3z"/>
	</g>
	<g>
		<circle class="st4" cx="157.8" cy="73.7" r="4.3"/>
		<path d="M157.8,79.4c-3.1,0-5.8-2.6-5.8-5.8s2.6-5.8,5.8-5.8c3.1,0,5.8,2.6,5.8,5.8C163.5,76.8,160.9,79.4,157.8,79.4z
			 M157.8,70.9c-1.5,0-2.8,1.3-2.8,2.8c0,1.5,1.3,2.8,2.8,2.8s2.8-1.3,2.8-2.8C160.5,72.2,159.3,70.9,157.8,70.9z"/>
	</g>
	<g>
		<circle class="st4" cx="232.2" cy="73.7" r="4.3"/>
		<path d="M232.2,79.4c-3.1,0-5.8-2.6-5.8-5.8s2.6-5.8,5.8-5.8s5.8,2.6,5.8,5.8C238,76.8,235.4,79.4,232.2,79.4z M232.2,70.9
			c-1.5,0-2.8,1.3-2.8,2.8c0,1.5,1.3,2.8,2.8,2.8s2.8-1.3,2.8-2.8C234.9,72.2,233.7,70.9,232.2,70.9z"/>
	</g>
</g>
</svg>
