<?xml version="1.0" encoding="utf-8"?>
<!-- Generator: Adobe Illustrator 24.1.1, SVG Export Plug-In . SVG Version: 6.00 Build 0)  -->
<svg version="1.1" id="Layer_1" xmlns="http://www.w3.org/2000/svg" xmlns:xlink="http://www.w3.org/1999/xlink" x="0px" y="0px"
	 viewBox="0 0 240 240" style="enable-background:new 0 0 240 240;" xml:space="preserve">
<path d="M51.62,135.77l0.51-0.74l-0.38-0.81c-1.14-2.49-2.2-5.07-3.13-7.68l-1.03-2.86l-1.75,2.47
	c-17.06,24.17-21.51,59.57-11.07,88.1c0.68,1.87,2.81,4.78,4.95,4.78c0.21,0,0.43-0.03,0.66-0.09c2.47-0.75,1.58-4.36,1.27-5.56
	c-2.3-9.29-3.5-19.32-3.5-28.69c0-5.01,0.35-9.81,1.04-14.21C41.49,156.04,45.54,144.68,51.62,135.77z M46.72,130.49
	c0.57,1.44,1.15,2.86,1.78,4.24c-3.03,4.61-5.57,9.78-7.63,15.63c-2.06,5.85-3.65,12.36-4.82,19.63
	c-2.06,13.01-1.12,29.52,2.52,44.17c0.08,0.28,0.12,0.51,0.17,0.72c-0.4-0.48-0.78-1.09-1.01-1.71
	C27.99,186.54,31.64,153.75,46.72,130.49z"/>
<path style="fill:#FF7B11;" d="M36.05,169.98c-2.06,13.01-1.12,29.52,2.52,44.17c0.08,0.28,0.12,0.51,0.17,0.72
	c-0.4-0.48-0.78-1.09-1.01-1.71c-9.74-26.63-6.08-59.42,9-82.68c0.57,1.44,1.15,2.86,1.78,4.24c-3.03,4.61-5.57,9.78-7.63,15.63
	C38.82,156.21,37.22,162.72,36.05,169.98z"/>
<g>
	<path style="fill:#FF733C;" d="M186.15,147.03c-4.04,4.22-11.63,10.76-17.69,14.33c-0.09-0.32-0.18-0.63-0.29-0.92
		c-0.22-0.58-0.46-1.11-0.74-1.58c-0.14-0.23-0.29-0.45-0.45-0.66v-0.02c-0.12-0.15-0.23-0.29-0.35-0.41
		c-0.05-0.05-0.09-0.11-0.14-0.15c-0.08-0.09-0.15-0.17-0.25-0.25c-0.08-0.09-0.17-0.15-0.26-0.23l-0.02-0.02
		c-0.08-0.06-0.14-0.11-0.22-0.15c-0.12-0.09-0.25-0.2-0.38-0.28c-0.02-0.02-0.05-0.02-0.06-0.03c-0.18-0.11-0.37-0.2-0.57-0.29
		c-0.08-0.03-0.15-0.05-0.23-0.08c-0.2-0.06-0.4-0.12-0.6-0.18c-0.17-0.06-0.6-0.11-0.68-0.12c-0.06-0.02-0.25-0.03-0.38-0.03
		c-0.12-0.02-0.22-0.02-0.23-0.02c-0.05,0-0.14,0-0.25,0.02c-0.17,0-0.35,0.01-0.41,0.03c-0.23,0.03-0.46,0.06-0.68,0.11
		c-0.08,0.01-0.17,0.03-0.26,0.06c-0.26,0.06-0.52,0.14-0.77,0.23c-0.08,0.02-0.14,0.05-0.2,0.08c-0.14,0.05-0.26,0.09-0.38,0.14
		l-2.52-3.36c-0.03-0.05-0.08-0.09-0.11-0.12c-0.05-0.05-0.08-0.08-0.12-0.12c1.95-2.32,5.64-7.06,6.86-11.1
		c0.08,0.06,0.14,0.09,0.22,0.14c0.05,0.03,0.11,0.06,0.15,0.09c0.26,0.17,0.52,0.35,0.8,0.52c0.28,0.17,0.55,0.32,0.83,0.49
		c0.23,0.14,0.46,0.29,0.69,0.43c0.41,0.23,0.84,0.45,1.27,0.66c0.84,0.43,1.72,0.8,2.61,1.15c0.45,0.17,0.89,0.32,1.34,0.48
		c0.08,0.03,0.14,0.05,0.21,0.06c0.41,0.14,0.81,0.26,1.23,0.38c0.41,0.11,0.83,0.21,1.24,0.31c0.18,0.05,0.37,0.08,0.55,0.12
		c0.72,0.15,1.44,0.29,2.17,0.38c0.25,0.05,0.49,0.08,0.72,0.09c0.69,0.09,1.37,0.14,2.06,0.17c0.26,0.01,0.52,0.03,0.78,0.03
		c0.2,0.02,0.41,0.03,0.61,0.03c0.57,0,1.14-0.03,1.7-0.06c0.12-0.02,0.23-0.02,0.35-0.02c0.45-0.03,0.91-0.06,1.35-0.12
		c0.46-0.05,0.91-0.11,1.35-0.18C186.08,147.04,186.11,147.03,186.15,147.03z"/>
	<path style="fill:#FF733C;" d="M66.14,152.48c0,0,0.06-0.28,0.15-0.78C66.4,152.22,66.14,152.48,66.14,152.48z"/>
	<path style="fill:#FF733C;" d="M117.37,84.89c0,4.56-3.59,8.26-8.8,11.92c-9.71,6.8-25,13.41-32.97,25
		c-4.67,6.79-8.52,25.82-9.31,29.88c-0.12-0.54-0.64-1.37-2.33-2.49c-0.4-0.28-0.72-0.4-0.98-0.4c-1.77,0-0.11,5.85-0.11,5.85
		s-17.43-17.45-21.79-53.41C36.71,65.26,69.41,29.3,69.41,29.3c4.3-3.76,10.46-5.47,16.92-5.47c2.81,0,5.68,0.32,8.48,0.95
		c8.78,1.95,16.89,6.82,20.43,13.79c3.15,6.27,5.91,16.82,2.13,23.42C113.01,69.63,117.37,71.81,117.37,84.89z"/>
	<path style="fill:#FF733C;" d="M160.8,66.2c-0.84,4.5-2.27,8.92-4.35,13.13c-4.82,9.74-12.38,16.66-19.26,17.64
		c-1.23,0.17-2.44,0.31-3.66,0.43c-0.12,0.01-0.23,0.01-0.35,0.03c-1.07,0.09-2.15,0.15-3.21,0.2c-5.77,0.26-11.01-0.28-15.31-1.57
		c3.59-3.24,5.88-6.79,5.88-11.18c0-5.54-0.74-9.2-1.32-12.13c-0.8-3.99-1.12-5.64,0.91-9.18c4.71-8.26,0.91-20.5-2.07-26.43
		c-3.06-6.05-9.28-10.96-16.86-13.81c5.47-2.18,15.66-5.54,26.12-5.54c9.91,0,20.06,3.02,26.68,12.93c0.03,0.03,0.03,0.08,0.05,0.11
		c0.17,0.26,0.34,0.52,0.51,0.78c0.15,0.25,0.32,0.51,0.48,0.77c0.11,0.18,0.22,0.35,0.32,0.54c2.3,4.13,3.96,8.52,5.01,13.02
		C161.89,52.58,162.03,59.47,160.8,66.2z"/>
	<path style="fill:#FF733C;" d="M163.24,155.98c-0.12-0.03-0.26-0.03-0.38-0.03C162.99,155.95,163.18,155.96,163.24,155.98z"/>
	<path style="fill:#FF733C;" d="M194.01,73.03c0,0.02-0.02,0.03-0.02,0.05c-0.02,5.53-1.23,10.55-3.62,15.02
		c-0.03,0.03-0.05,0.08-0.06,0.12c-0.46,0.84-0.97,1.67-1.52,2.47c-0.05,0.08-0.09,0.14-0.14,0.22c-0.55,0.8-1.15,1.6-1.8,2.37
		c-0.57,0.68-1.18,1.32-1.81,1.97c-0.25,0.25-0.48,0.49-0.72,0.72c-0.31,0.29-0.63,0.58-0.94,0.86c-0.4,0.35-0.78,0.69-1.2,1.03
		c-0.18,0.15-0.38,0.31-0.58,0.46c-9.72,7.59-23.27,10.54-32.86,10c-5.25-0.31-10.38-2.87-15.31-7.62c0.08,0,0.15-0.02,0.23-0.03
		c0.08,0,0.15-0.02,0.26-0.03c0.41-0.06,0.81-0.12,1.23-0.22c0.09,0,0.18-0.01,0.28-0.03c0.58-0.06,1.18-0.14,1.78-0.23
		c0.06,0,0.12-0.01,0.18-0.01c0.08,0,0.15-0.02,0.25-0.03c0.41-0.06,0.84-0.14,1.27-0.25c0.43-0.09,0.86-0.22,1.29-0.34
		c1.8-0.55,3.59-1.4,5.34-2.5c0.84-0.54,1.67-1.14,2.5-1.78c0.03-0.03,0.06-0.06,0.09-0.08c0.43-0.35,0.84-0.71,1.26-1.08
		c0.43-0.37,0.84-0.77,1.24-1.17c0.29-0.28,0.57-0.57,0.85-0.88c0.57-0.57,1.09-1.15,1.61-1.78c0.31-0.35,0.6-0.72,0.89-1.09
		c0.34-0.41,0.68-0.86,0.98-1.31c0.26-0.34,0.52-0.71,0.75-1.06c0.51-0.74,1-1.49,1.49-2.29c0.26-0.45,0.54-0.91,0.78-1.37
		c0.45-0.78,0.88-1.6,1.29-2.43c0.65-1.32,1.23-2.66,1.77-4.01c0.17-0.45,0.34-0.91,0.51-1.35c0.05-0.12,0.09-0.23,0.14-0.34
		c0.02-0.05,0.05-0.11,0.06-0.15c0.03-0.09,0.06-0.18,0.09-0.28c0.23-0.68,0.45-1.35,0.64-2.04c0.05-0.15,0.09-0.29,0.15-0.44
		c0.02-0.08,0.05-0.17,0.08-0.25c0.12-0.41,0.23-0.83,0.34-1.23c0.08-0.35,0.15-0.69,0.23-1.03c0.08-0.25,0.14-0.49,0.2-0.74
		c0-0.01,0.02-0.05,0.02-0.06c0.02-0.06,0.03-0.11,0.03-0.17c0.14-0.68,0.28-1.35,0.4-2.03c0.03-0.14,0.06-0.29,0.09-0.45
		c0.03-0.15,0.06-0.31,0.08-0.45c0.02-0.05,0.02-0.11,0.02-0.15c0.11-0.68,0.18-1.32,0.28-2c0.02-0.14,0.03-0.28,0.06-0.41
		c0.02-0.18,0.05-0.37,0.06-0.55c0.03-0.34,0.06-0.69,0.09-1.04c0.02-0.34,0.03-0.69,0.06-1.04c0.03-0.34,0.06-0.69,0.08-1.04
		c0.03-0.68,0.03-1.35,0.03-2.03c0.02-0.37,0.02-0.74,0.02-1.09c-0.02-0.68-0.05-1.32-0.08-1.98c-0.03-0.38-0.03-0.77-0.06-1.15
		c-0.05-0.64-0.12-1.29-0.2-1.94c-0.03-0.4-0.08-0.78-0.12-1.18c-0.09-0.63-0.2-1.26-0.31-1.89c-0.06-0.4-0.14-0.8-0.22-1.2
		c-0.06-0.32-0.12-0.63-0.18-0.94c-0.08-0.31-0.15-0.61-0.22-0.92c-0.09-0.4-0.18-0.8-0.29-1.21c-0.15-0.6-0.32-1.21-0.51-1.81
		c-0.12-0.4-0.23-0.8-0.37-1.2c-0.09-0.31-0.18-0.61-0.29-0.91c-0.11-0.31-0.21-0.61-0.32-0.91c-0.15-0.38-0.29-0.77-0.43-1.15
		c-0.25-0.6-0.49-1.21-0.75-1.81c-0.15-0.35-0.32-0.72-0.48-1.08c-0.29-0.61-0.58-1.23-0.89-1.84c-0.09-0.17-0.17-0.35-0.28-0.54
		h0.02c13.27,4.48,31.99,14.34,34.78,34.55C193.88,69.24,194.01,71.16,194.01,73.03z"/>
	<path style="fill:#FF733C;" d="M201.06,134.14c-2.73,4.25-7.09,7.42-12.27,9c-0.61,0.18-1.23,0.34-1.84,0.48
		c-0.22,0.05-0.43,0.09-0.64,0.14c-0.45,0.09-0.89,0.17-1.32,0.23c-0.61,0.08-1.23,0.15-1.84,0.2c-0.38,0.01-0.78,0.03-1.18,0.05
		c-0.41,0-0.83,0-1.24-0.02c-0.55,0-1.11-0.03-1.66-0.08c-0.45-0.05-0.89-0.09-1.32-0.14c-0.38-0.06-0.75-0.11-1.12-0.17
		c-0.64-0.12-1.29-0.26-1.94-0.41c-0.31-0.08-0.63-0.17-0.94-0.26c-0.58-0.17-1.15-0.35-1.72-0.57c-0.25-0.08-0.51-0.18-0.75-0.28
		c-0.66-0.26-1.32-0.55-1.97-0.88c-0.17-0.08-0.35-0.17-0.52-0.26c-0.74-0.37-1.46-0.78-2.17-1.23c-0.11-0.08-0.21-0.15-0.34-0.22
		c-0.74-0.49-1.46-1-2.17-1.57c-4.51-3.61-5.97-9.38-6.25-14.48c0.02,0.02,0.05,0.02,0.06,0.03c0.29,0.22,0.6,0.41,0.92,0.63
		c0.2,0.12,0.4,0.26,0.6,0.38c0.31,0.18,0.61,0.35,0.92,0.52c0.26,0.14,0.51,0.28,0.77,0.4c0.29,0.15,0.6,0.31,0.92,0.45
		c0.35,0.17,0.71,0.31,1.07,0.46c0.32,0.12,0.65,0.26,0.98,0.37c0.54,0.2,1.09,0.38,1.66,0.54c0.25,0.08,0.49,0.14,0.75,0.2
		c0.49,0.14,1,0.26,1.52,0.37c0.23,0.05,0.48,0.11,0.72,0.15c0.77,0.14,1.55,0.28,2.36,0.38h0.05c1.01,0.12,2.01,0.22,3.01,0.29
		c0.49,0.03,0.95,0.05,1.43,0.08c0.41,0.01,0.83,0.03,1.23,0.03c0.41,0.02,0.83,0.05,1.23,0.05c12.21,0,19.75-4.48,24.1-8.6
		c0.11-0.11,0.21-0.23,0.32-0.34l0.12-0.12c0.43-0.43,0.84-0.86,1.23-1.31l0.09-0.09C204.4,123.61,204.03,129.55,201.06,134.14z"/>
	<path style="fill:#FF733C;" d="M157.3,119.01c-1.97-2.04-3.47-4.53-4.5-7.49c8.95-0.29,19.49-3.01,28.09-8.77
		c0.11-0.06,0.21-0.14,0.34-0.22c0.54-0.38,1.09-0.77,1.61-1.17c0.2-0.14,0.38-0.29,0.57-0.43c0.46-0.37,0.92-0.74,1.37-1.12
		c0.25-0.18,0.46-0.4,0.69-0.6c0.41-0.35,0.81-0.72,1.2-1.11c0.09-0.08,0.18-0.15,0.26-0.25c0.12-0.11,0.23-0.25,0.35-0.37
		c0.28-0.28,0.57-0.55,0.84-0.85c0.28-0.29,0.52-0.6,0.78-0.89c0.08-0.11,0.17-0.2,0.25-0.29c0.61-0.72,1.2-1.47,1.75-2.23
		c0.05-0.08,0.09-0.15,0.15-0.22c0.54-0.78,1.06-1.57,1.54-2.38c0,0,0-0.02,0.02-0.02c2.53-4.33,4.02-9.14,4.44-14.37
		c6.05,5.31,9.94,13.28,10.55,21.9c0.05,0.63,0.06,1.24,0.06,1.86c0,4.94-1.4,9.67-4.02,13.68c-0.11,0.17-0.23,0.34-0.34,0.51
		c-0.4,0.58-0.81,1.15-1.27,1.69c-0.14,0.17-0.29,0.35-0.45,0.52c-0.45,0.51-0.89,1-1.38,1.46c-0.45,0.43-0.91,0.86-1.41,1.29
		c-0.12,0.11-0.25,0.2-0.37,0.29c-0.26,0.23-0.55,0.45-0.86,0.66c-0.18,0.14-0.37,0.29-0.58,0.43c-0.17,0.12-0.37,0.25-0.57,0.37
		c-0.55,0.37-1.14,0.72-1.77,1.07c-0.12,0.06-0.23,0.12-0.35,0.18c-0.4,0.22-0.81,0.43-1.26,0.63c-0.08,0.03-0.14,0.06-0.21,0.09
		c-1.4,0.64-2.95,1.21-4.65,1.67c-0.12,0.03-0.25,0.08-0.37,0.11c-0.51,0.12-1.03,0.25-1.57,0.35c-0.23,0.05-0.46,0.09-0.71,0.14
		c-0.51,0.09-1.01,0.18-1.55,0.26c-0.43,0.06-0.91,0.11-1.37,0.15c-0.63,0.08-1.29,0.12-1.95,0.17c-0.57,0.03-1.14,0.06-1.72,0.06
		c-0.37,0.01-0.75,0.01-1.14,0.01c-0.66-0.01-1.34-0.03-2.03-0.06c-0.34-0.01-0.66-0.03-1-0.05c-1.04-0.08-2.12-0.17-3.24-0.31
		c-0.02,0-0.02,0-0.02,0c-1.04-0.14-2.04-0.32-2.99-0.54c-0.28-0.06-0.54-0.12-0.78-0.18c-0.89-0.22-1.74-0.46-2.55-0.75
		c-0.29-0.11-0.58-0.23-0.86-0.34c-0.55-0.22-1.07-0.46-1.58-0.71c-0.31-0.15-0.64-0.31-0.95-0.48c-0.61-0.35-1.21-0.72-1.77-1.12
		c-0.34-0.23-0.66-0.48-0.97-0.74c-0.35-0.28-0.68-0.57-1-0.86c-0.21-0.22-0.45-0.4-0.66-0.61
		C157.36,119.06,157.33,119.04,157.3,119.01z"/>
	<path style="fill:#FF6730;" d="M156.8,158.04h-0.02c-4.05,2.06-14.21,7.71-23.11,16.85c-0.02,0-0.02,0-0.03,0.01
		c-15.56,9.8-37.67,3.64-43.6,1.7c1.21-2.33,5.02-7.8,16.62-15.54c14.76-9.83,43.74-6.08,48.34-5.41L156.8,158.04z"/>
	<path style="fill:#FF6730;" d="M165.45,176.23c-3.09,23.65-42.02,42.78-47.79,44.23c-0.83-2.49-0.75-14.59,9.54-32.08
		c2.44-4.15,5.45-7.88,8.65-11.15c10.86-11.13,23.87-17.08,24.03-17.15c0.06-0.02,0.11-0.05,0.15-0.08
		c0.03-0.01,0.05-0.03,0.06-0.05c0.02-0.02,0.02-0.02,0.03-0.02c0,0,0.02-0.01,0.05-0.03c0.15-0.09,0.81-0.49,1.61-0.69
		c0.03-0.01,0.08-0.01,0.12-0.03c0.12-0.02,0.25-0.05,0.37-0.06c0.06,0,0.12,0,0.18-0.01c0.11,0,0.21,0,0.31,0.01
		c0.11,0,0.2,0.02,0.29,0.03c0.11,0.01,0.2,0.05,0.31,0.08c0.08,0.03,0.17,0.08,0.25,0.11c0.37,0.2,0.69,0.51,0.98,0.94
		c0.02,0.02,0.02,0.03,0.03,0.05c0.54,0.83,0.94,2.06,1.17,3.67c0,0.03,0.02,0.05,0.02,0.08
		C166.17,166.59,166.2,170.41,165.45,176.23z"/>
	<path style="fill:#99463D;" d="M139.19,191.39c-0.09,0-0.18-0.01-0.26-0.02c-0.86-0.15-1.45-0.96-1.3-1.82
		c1.17-7.01,15.55-20.53,17.18-22.05c0.63-0.59,1.64-0.56,2.24,0.08c0.6,0.64,0.56,1.64-0.08,2.24
		c-4.22,3.92-15.37,15.21-16.21,20.25C140.62,190.84,139.95,191.39,139.19,191.39z"/>
	<path style="fill:#99463D;" d="M146.98,186.94c-0.37,0-0.74-0.13-1.04-0.39c-0.66-0.57-0.73-1.58-0.16-2.23l14.47-16.7
		c0.57-0.67,1.57-0.73,2.23-0.16c0.66,0.57,0.73,1.58,0.16,2.23l-14.47,16.7C147.86,186.75,147.42,186.94,146.98,186.94z"/>
	<path d="M166.43,157.53c-0.06-0.06-0.12-0.12-0.18-0.17c0.09,0.08,0.17,0.15,0.25,0.25C166.46,157.58,166.45,157.56,166.43,157.53z
		 M166.51,157.61h-0.02c0.05,0.05,0.09,0.11,0.14,0.15C166.6,157.7,166.56,157.65,166.51,157.61z"/>
	<path d="M210.75,98.82c-0.74-10.32-5.81-19.84-13.59-25.63c-0.03-1.78-0.15-3.61-0.41-5.47c-3.27-23.76-26.43-34.11-40.36-38.21
		c-7.53-10.98-20.03-15.68-36.38-13.59c-11.21,1.43-20.72,5.54-23.53,6.85c-3.26-0.8-6.68-1.23-10.15-1.23
		c-7.65,0-14.39,2.23-19.01,6.27c-0.09,0.08-0.17,0.15-0.25,0.25c-0.35,0.38-8.51,9.41-16.23,23.05
		c-10.32,18.24-14.77,36.03-12.92,51.42c4.44,36.63,21.96,54.52,22.7,55.27c0.61,0.6,1.43,0.92,2.24,0.92
		c0.55,0,1.11-0.14,1.61-0.43c0.69-0.41,1.17-1.04,1.41-1.77c0.08,0.01,0.17,0.01,0.25,0.01c0.83,0,1.64-0.32,2.24-0.92
		c0.6-0.6,1.14-1.61,1.11-2.86c1.98-10.14,5.41-23.43,8.72-28.26c5.39-7.83,14.74-13.45,22.99-18.41c3.84-2.3,7.48-4.48,10.55-6.76
		c4.35,1.61,9.64,2.44,15.56,2.44c0.61,0,1.24-0.01,1.89-0.03c6.08,6.63,12.59,10.23,19.37,10.63c0.29,0.01,0.61,0.01,0.92,0.03
		c0.92,3.09,2.52,6.39,5.18,9.29c-0.12,5.99,0.97,13.74,6.39,18.89c-0.2,2.92-4.36,8.83-7.59,12.5c-0.02,0.01-0.02,0.03-0.03,0.05
		c-8.42-1.09-34.11-3.41-48.51,6.2c-16.79,11.18-18.37,18.11-18.51,18.86c-0.12,0.75,0.29,1.47,1,1.75
		c0.75,0.28,11.93,4.48,24.94,4.48c5.24,0,10.78-0.69,16.05-2.6c-1.4,1.84-2.73,3.79-3.93,5.84c-9.72,16.52-11.21,29.93-9.86,34.49
		c0.34,1.12,0.88,1.87,1.61,2.24c0.22,0.11,0.49,0.17,0.86,0.17c1.92,0,5.91-1.61,11.9-4.79c8.58-4.56,36.86-21.12,39.61-42.23
		c0.64-4.88,0.8-8.88,0.48-12.01c8.15-4.48,19.63-14.83,22.31-19.03c5.16-1.93,9.52-5.33,12.36-9.75c3.35-5.22,4.32-12.29,2.9-20.98
		C209.73,110.8,211.2,104.9,210.75,98.82z M133.34,100.6c0.11,0,0.21-0.02,0.32-0.03c0.49-0.05,0.98-0.09,1.49-0.15
		c0.09,0,0.18-0.01,0.28-0.03c0.58-0.06,1.18-0.14,1.78-0.23c0.06,0,0.12-0.01,0.18-0.01c0.08,0,0.15-0.02,0.25-0.03
		c0.41-0.06,0.84-0.14,1.27-0.25c0.43-0.09,0.86-0.22,1.29-0.34c1.8-0.55,3.59-1.4,5.34-2.5c0.84-0.54,1.67-1.14,2.5-1.78
		c0.03-0.03,0.06-0.06,0.09-0.08c0.43-0.35,0.84-0.71,1.26-1.08c0.43-0.37,0.84-0.77,1.24-1.17c0.29-0.28,0.57-0.57,0.85-0.88
		c0.57-0.57,1.09-1.15,1.61-1.78c0.31-0.35,0.6-0.72,0.89-1.09c0.34-0.41,0.68-0.86,0.98-1.31c0.26-0.34,0.52-0.71,0.75-1.06
		c0.51-0.74,1-1.49,1.49-2.29c0.26-0.45,0.54-0.91,0.78-1.37c0.45-0.78,0.88-1.6,1.29-2.43c0.65-1.32,1.23-2.66,1.77-4.01
		c0.17-0.45,0.34-0.91,0.51-1.35c0.05-0.12,0.09-0.23,0.14-0.34c0.02-0.05,0.05-0.11,0.06-0.15c0.03-0.09,0.06-0.18,0.09-0.28
		c0.23-0.68,0.45-1.35,0.64-2.04c0.05-0.15,0.09-0.29,0.15-0.44c0.02-0.08,0.05-0.17,0.08-0.25c0.12-0.41,0.23-0.83,0.34-1.23
		c0.08-0.35,0.15-0.69,0.23-1.03c0.08-0.25,0.14-0.49,0.2-0.74c0-0.01,0.02-0.05,0.02-0.06c0.02-0.06,0.03-0.11,0.03-0.17
		c0.14-0.68,0.28-1.35,0.4-2.03c0.03-0.14,0.06-0.29,0.09-0.45c0.03-0.15,0.06-0.31,0.08-0.45c0.02-0.05,0.02-0.11,0.02-0.15
		c0.11-0.68,0.18-1.32,0.28-2c0.02-0.14,0.03-0.28,0.06-0.41c0.02-0.18,0.05-0.37,0.06-0.55c0.03-0.34,0.06-0.69,0.09-1.04
		c0.02-0.34,0.03-0.69,0.06-1.04c0.03-0.34,0.06-0.69,0.08-1.04c0.03-0.68,0.03-1.35,0.03-2.03c0.02-0.37,0.02-0.74,0.02-1.09
		c-0.02-0.68-0.05-1.32-0.08-1.98c-0.03-0.38-0.03-0.77-0.06-1.15c-0.05-0.64-0.12-1.29-0.2-1.94c-0.03-0.4-0.08-0.78-0.12-1.18
		c-0.09-0.63-0.2-1.26-0.31-1.89c-0.06-0.4-0.14-0.8-0.22-1.2c-0.06-0.32-0.12-0.63-0.18-0.94c-0.08-0.31-0.15-0.61-0.22-0.92
		c-0.09-0.4-0.18-0.8-0.29-1.21c-0.15-0.6-0.32-1.21-0.51-1.81c-0.12-0.4-0.23-0.8-0.37-1.2c-0.09-0.31-0.18-0.61-0.29-0.91
		c-0.11-0.31-0.21-0.61-0.32-0.91c-0.15-0.38-0.29-0.77-0.43-1.15c-0.25-0.6-0.49-1.21-0.75-1.81c-0.15-0.35-0.32-0.72-0.48-1.08
		c-0.29-0.61-0.58-1.23-0.89-1.84c-0.09-0.17-0.17-0.35-0.28-0.54h0.02c13.27,4.48,31.99,14.34,34.78,34.55
		c0.26,1.98,0.4,3.9,0.4,5.77c0,0.02-0.02,0.03-0.02,0.05c-0.02,5.53-1.23,10.55-3.62,15.02c-0.03,0.03-0.05,0.08-0.06,0.12
		c-0.46,0.84-0.97,1.67-1.52,2.47c-0.05,0.08-0.09,0.14-0.14,0.22c-0.55,0.8-1.15,1.6-1.8,2.37c-0.57,0.68-1.18,1.32-1.81,1.97
		c-0.25,0.25-0.48,0.49-0.72,0.72c-0.31,0.29-0.63,0.58-0.94,0.86c-0.4,0.35-0.78,0.69-1.2,1.03c-0.18,0.15-0.38,0.31-0.58,0.46
		c-9.72,7.59-23.27,10.54-32.86,10c-5.25-0.31-10.38-2.87-15.31-7.62L133.34,100.6z M108.57,96.81c-9.71,6.8-25,13.41-32.97,25
		c-4.67,6.79-8.52,25.82-9.31,29.88c0.11,0.52-0.15,0.78-0.15,0.78s0.06-0.28,0.15-0.78c-0.12-0.54-0.64-1.37-2.33-2.49
		c-0.4-0.28-0.72-0.4-0.98-0.4c-1.77,0-0.11,5.85-0.11,5.85s-17.43-17.45-21.79-53.41C36.71,65.26,69.41,29.3,69.41,29.3
		c4.3-3.76,10.46-5.47,16.92-5.47c2.81,0,5.68,0.32,8.48,0.95c8.78,1.95,16.89,6.82,20.43,13.79c3.15,6.27,5.91,16.82,2.13,23.42
		c-4.36,7.63,0,9.81,0,22.9C117.37,89.45,113.77,93.15,108.57,96.81z M114.66,96.07c3.59-3.24,5.88-6.79,5.88-11.18
		c0-5.54-0.74-9.2-1.32-12.13c-0.8-3.99-1.12-5.64,0.91-9.18c4.71-8.26,0.91-20.5-2.07-26.43c-3.06-6.05-9.28-10.96-16.86-13.81
		c5.47-2.18,15.66-5.54,26.12-5.54c9.91,0,20.06,3.02,26.68,12.93c0.03,0.03,0.03,0.08,0.05,0.11c0.17,0.26,0.34,0.52,0.51,0.78
		c0.15,0.25,0.32,0.51,0.48,0.77c0.11,0.18,0.22,0.35,0.32,0.54c2.3,4.13,3.96,8.52,5.01,13.02c1.54,6.63,1.67,13.53,0.45,20.26
		c-0.84,4.5-2.27,8.92-4.35,13.13c-4.82,9.74-12.38,16.66-19.26,17.64c-1.23,0.17-2.44,0.31-3.66,0.43
		c-0.12,0.01-0.23,0.01-0.35,0.03c-1.07,0.09-2.15,0.15-3.21,0.2C124.2,97.9,118.96,97.36,114.66,96.07z M157.3,119.01
		c-1.97-2.04-3.47-4.53-4.5-7.49c8.95-0.29,19.49-3.01,28.09-8.77c0.11-0.06,0.21-0.14,0.34-0.22c0.54-0.38,1.09-0.77,1.61-1.17
		c0.2-0.14,0.38-0.29,0.57-0.43c0.46-0.37,0.92-0.74,1.37-1.12c0.25-0.18,0.46-0.4,0.69-0.6c0.41-0.35,0.81-0.72,1.2-1.11
		c0.09-0.08,0.18-0.15,0.26-0.25c0.12-0.11,0.23-0.25,0.35-0.37c0.28-0.28,0.57-0.55,0.84-0.85c0.28-0.29,0.52-0.6,0.78-0.89
		c0.08-0.11,0.17-0.2,0.25-0.29c0.61-0.72,1.2-1.47,1.75-2.23c0.05-0.08,0.09-0.15,0.15-0.22c0.54-0.78,1.06-1.57,1.54-2.38
		c0,0,0-0.02,0.02-0.02c2.53-4.33,4.02-9.14,4.44-14.37c6.05,5.31,9.94,13.28,10.55,21.9c0.05,0.63,0.06,1.24,0.06,1.86
		c0,4.94-1.4,9.67-4.02,13.68c-0.11,0.17-0.23,0.34-0.34,0.51c-0.4,0.58-0.81,1.15-1.27,1.69c-0.14,0.17-0.29,0.35-0.45,0.52
		c-0.45,0.51-0.89,1-1.38,1.46c-0.45,0.43-0.91,0.86-1.41,1.29c-0.12,0.11-0.25,0.2-0.37,0.29c-0.26,0.23-0.55,0.45-0.86,0.66
		c-0.18,0.14-0.37,0.29-0.58,0.43c-0.17,0.12-0.37,0.25-0.57,0.37c-0.55,0.37-1.14,0.72-1.77,1.07c-0.12,0.06-0.23,0.12-0.35,0.18
		c-0.4,0.22-0.81,0.43-1.26,0.63c-0.08,0.03-0.14,0.06-0.21,0.09c-1.4,0.64-2.95,1.21-4.65,1.67c-0.12,0.03-0.25,0.08-0.37,0.11
		c-0.51,0.12-1.03,0.25-1.57,0.35c-0.23,0.05-0.46,0.09-0.71,0.14c-0.51,0.09-1.01,0.18-1.55,0.26c-0.43,0.06-0.91,0.11-1.37,0.15
		c-0.63,0.08-1.29,0.12-1.95,0.17c-0.57,0.03-1.14,0.06-1.72,0.06c-0.37,0.01-0.75,0.01-1.14,0.01c-0.66-0.01-1.34-0.03-2.03-0.06
		c-0.34-0.01-0.66-0.03-1-0.05c-1.04-0.08-2.12-0.17-3.24-0.31c-0.02,0-0.02,0-0.02,0c-1.04-0.14-2.04-0.32-2.99-0.54
		c-0.28-0.06-0.54-0.12-0.78-0.18c-0.89-0.22-1.74-0.46-2.55-0.75c-0.29-0.11-0.58-0.23-0.86-0.34c-0.55-0.22-1.07-0.46-1.58-0.71
		c-0.31-0.15-0.64-0.31-0.95-0.48c-0.61-0.35-1.21-0.72-1.77-1.12c-0.34-0.23-0.66-0.48-0.97-0.74c-0.35-0.28-0.68-0.57-1-0.86
		c-0.21-0.22-0.45-0.4-0.66-0.61C157.36,119.06,157.33,119.04,157.3,119.01z M90.05,176.6c1.21-2.33,5.02-7.8,16.62-15.54
		c14.76-9.83,43.74-6.08,48.34-5.41l1.8,2.38h-0.02c-4.05,2.06-14.21,7.71-23.11,16.85c-0.02,0-0.02,0-0.03,0.01
		C118.09,184.7,95.97,178.54,90.05,176.6z M165.45,176.23c-3.09,23.65-42.02,42.78-47.79,44.23c-0.83-2.49-0.75-14.59,9.54-32.08
		c2.44-4.15,5.45-7.88,8.65-11.15c10.86-11.13,23.87-17.08,24.03-17.15c0.06-0.02,0.11-0.05,0.15-0.08
		c0.03-0.01,0.05-0.03,0.06-0.05c0.02-0.02,0.02-0.02,0.03-0.02c0,0,0.02-0.01,0.05-0.03c0.15-0.09,0.81-0.49,1.61-0.69
		c0.03-0.01,0.08-0.01,0.12-0.03c0.12-0.02,0.25-0.05,0.37-0.06c0.06,0,0.12,0,0.18-0.01c0.11,0,0.21,0,0.31,0.01
		c0.11,0,0.2,0.02,0.29,0.03c0.11,0.01,0.2,0.05,0.31,0.08c0.08,0.03,0.17,0.08,0.25,0.11c0.37,0.2,0.69,0.51,0.98,0.94
		c0.02,0.02,0.02,0.03,0.03,0.05c0.54,0.83,0.94,2.06,1.17,3.67c0,0.03,0.02,0.05,0.02,0.08
		C166.17,166.59,166.2,170.41,165.45,176.23z M168.46,161.35c-0.09-0.32-0.18-0.63-0.29-0.92c-0.22-0.58-0.46-1.11-0.74-1.58
		c-0.14-0.23-0.29-0.45-0.45-0.66v-0.02c-0.12-0.15-0.23-0.29-0.35-0.41c-0.05-0.05-0.09-0.11-0.14-0.15
		c-0.08-0.09-0.15-0.17-0.25-0.25c-0.08-0.09-0.17-0.15-0.26-0.23l-0.02-0.02c-0.08-0.06-0.14-0.11-0.22-0.15
		c-0.12-0.09-0.25-0.2-0.38-0.28c-0.02-0.02-0.05-0.02-0.06-0.03c-0.18-0.11-0.37-0.2-0.57-0.29c-0.08-0.03-0.15-0.05-0.23-0.08
		c-0.2-0.06-0.4-0.12-0.6-0.18c-0.17-0.06-0.6-0.11-0.68-0.12c-0.06-0.02-0.25-0.03-0.38-0.03c-0.12-0.02-0.22-0.02-0.23-0.02
		c-0.05,0-0.14,0-0.25,0.02c-0.17,0-0.35,0.01-0.41,0.03c-0.23,0.03-0.46,0.06-0.68,0.11c-0.08,0.01-0.17,0.03-0.26,0.06
		c-0.26,0.06-0.52,0.14-0.77,0.23c-0.08,0.02-0.14,0.05-0.2,0.08c-0.14,0.05-0.26,0.09-0.38,0.14l-2.52-3.36
		c-0.03-0.05-0.08-0.09-0.11-0.12c-0.05-0.05-0.08-0.08-0.12-0.12c1.95-2.32,5.64-7.06,6.86-11.1c0.08,0.06,0.14,0.09,0.22,0.14
		c0.05,0.03,0.11,0.06,0.15,0.09c0.26,0.17,0.52,0.35,0.8,0.52c0.28,0.17,0.55,0.32,0.83,0.49c0.23,0.14,0.46,0.29,0.69,0.43
		c0.41,0.23,0.84,0.45,1.27,0.66c0.84,0.43,1.72,0.8,2.61,1.15c0.45,0.17,0.89,0.32,1.34,0.48c0.08,0.03,0.14,0.05,0.21,0.06
		c0.41,0.14,0.81,0.26,1.23,0.38c0.41,0.11,0.83,0.21,1.24,0.31c0.18,0.05,0.37,0.08,0.55,0.12c0.72,0.15,1.44,0.29,2.17,0.38
		c0.25,0.05,0.49,0.08,0.72,0.09c0.69,0.09,1.37,0.14,2.06,0.17c0.26,0.01,0.52,0.03,0.78,0.03c0.2,0.02,0.41,0.03,0.61,0.03
		c0.57,0,1.14-0.03,1.7-0.06c0.12-0.02,0.23-0.02,0.35-0.02c0.45-0.03,0.91-0.06,1.35-0.12c0.46-0.05,0.91-0.11,1.35-0.18
		c0.03,0,0.06-0.01,0.11-0.01C182.11,151.25,174.53,157.79,168.46,161.35z M201.06,134.14c-2.73,4.25-7.09,7.42-12.27,9
		c-0.61,0.18-1.23,0.34-1.84,0.48c-0.22,0.05-0.43,0.09-0.64,0.14c-0.45,0.09-0.89,0.17-1.32,0.23c-0.61,0.08-1.23,0.15-1.84,0.2
		c-0.38,0.01-0.78,0.03-1.18,0.05c-0.41,0-0.83,0-1.24-0.02c-0.55,0-1.11-0.03-1.66-0.08c-0.45-0.05-0.89-0.09-1.32-0.14
		c-0.38-0.06-0.75-0.11-1.12-0.17c-0.64-0.12-1.29-0.26-1.94-0.41c-0.31-0.08-0.63-0.17-0.94-0.26c-0.58-0.17-1.15-0.35-1.72-0.57
		c-0.25-0.08-0.51-0.18-0.75-0.28c-0.66-0.26-1.32-0.55-1.97-0.88c-0.17-0.08-0.35-0.17-0.52-0.26c-0.74-0.37-1.46-0.78-2.17-1.23
		c-0.11-0.08-0.21-0.15-0.34-0.22c-0.74-0.49-1.46-1-2.17-1.57c-4.51-3.61-5.97-9.38-6.25-14.48c0.02,0.02,0.05,0.02,0.06,0.03
		c0.29,0.22,0.6,0.41,0.92,0.63c0.2,0.12,0.4,0.26,0.6,0.38c0.31,0.18,0.61,0.35,0.92,0.52c0.26,0.14,0.51,0.28,0.77,0.4
		c0.29,0.15,0.6,0.31,0.92,0.45c0.35,0.17,0.71,0.31,1.07,0.46c0.32,0.12,0.65,0.26,0.98,0.37c0.54,0.2,1.09,0.38,1.66,0.54
		c0.25,0.08,0.49,0.14,0.75,0.2c0.49,0.14,1,0.26,1.52,0.37c0.23,0.05,0.48,0.11,0.72,0.15c0.77,0.14,1.55,0.28,2.36,0.38h0.05
		c1.01,0.12,2.01,0.22,3.01,0.29c0.49,0.03,0.95,0.05,1.43,0.08c0.41,0.01,0.83,0.03,1.23,0.03c0.41,0.02,0.83,0.05,1.23,0.05
		c12.21,0,19.75-4.48,24.1-8.6c0.11-0.11,0.21-0.23,0.32-0.34l0.12-0.12c0.43-0.43,0.84-0.86,1.23-1.31l0.09-0.09
		C204.4,123.61,204.03,129.55,201.06,134.14z"/>
</g>
<g>
	<path style="fill:#FFFFFF;" d="M77.15,99.42c-0.15,2.49-0.81,6.77-2.78,8.28c-0.48,0.35-1.27,0.78-2.79,0.35
		c-1.11-0.32-1.81-0.89-2.2-1.81c-1.03-2.44,0.37-6.66,1.52-9.29c0.06,0.03,0.12,0.06,0.18,0.11c0.32,0.2,0.66,0.38,1.01,0.58
		c0.15,0.08,0.31,0.15,0.46,0.23c0.08,0.03,0.15,0.06,0.21,0.11c-1.24,0.37-2.2,1.93-2.2,3.81c0,2.15,1.24,3.89,2.8,3.89
		c1.54,0,2.78-1.74,2.78-3.89c0-1.15-0.35-2.17-0.91-2.87c0.2,0.06,0.4,0.11,0.6,0.17c0.38,0.11,0.78,0.22,1.2,0.31
		C77.07,99.39,77.1,99.4,77.15,99.42z"/>
	<path d="M81.29,96.85c-0.83-0.08-1.58-0.18-2.3-0.31c-3.27-0.57-5.82-1.63-7.57-3.16c-0.03-0.03-0.09-0.06-0.12-0.09
		c-1.6-1.44-1.9-2.79-1.94-2.93c-0.17-0.85-0.98-1.44-1.83-1.27c-0.86,0.14-1.44,0.95-1.31,1.83c0.03,0.15,0.38,1.95,2.17,3.92
		c-1.2,2.47-3.67,8.49-1.94,12.64c0.75,1.8,2.21,3.06,4.24,3.62c0.75,0.21,1.44,0.31,2.06,0.31c1.6,0,2.76-0.6,3.53-1.18
		c3.06-2.32,3.81-7.48,4.01-10.29c0.25,0.03,0.46,0.06,0.72,0.09h0.14c0.81,0,1.51-0.61,1.58-1.44
		C82.81,97.71,82.17,96.95,81.29,96.85z M71.57,108.05c-1.11-0.32-1.81-0.89-2.2-1.81c-1.03-2.44,0.37-6.66,1.52-9.29
		c0.06,0.03,0.12,0.06,0.18,0.11c0.32,0.2,0.66,0.38,1.01,0.58c0.15,0.08,0.31,0.15,0.46,0.23c0.08,0.03,0.15,0.06,0.21,0.11
		c-1.24,0.37-2.2,1.93-2.2,3.81c0,2.15,1.24,3.89,2.8,3.89c1.54,0,2.78-1.74,2.78-3.89c0-1.15-0.35-2.17-0.91-2.87
		c0.2,0.06,0.4,0.11,0.6,0.17c0.38,0.11,0.78,0.22,1.2,0.31c0.03,0,0.06,0.01,0.11,0.03c-0.15,2.49-0.81,6.77-2.78,8.28
		C73.89,108.05,73.09,108.48,71.57,108.05z"/>
</g>
<g>
	<path d="M138.45,91.62c-3.44-4.78-9.44-1.38-12.68,0.45l-3.76,2.09c-3.72,2.03-7.51,4.12-11.18,6.45c0.92-1.54,1.98-3.27,2.98-4.91
		c2.53-4.16,5.42-8.86,7.95-13.38c1.74-3.1,2.61-6.34,2.61-9.55c0-4.09-1.41-8.12-4.21-11.78c-1.81-2.35-4.1-4.45-6.83-6.22
		l-0.43-0.29c-2.37-1.55-6.77-4.47-9.83-2.24c-1.55,1.14-1.78,2.47-1.7,3.41c0.03,0.4,0.14,0.81,0.29,1.21
		c-1.47-0.12-2.83-0.01-3.9,0.34c-2.1,0.71-2.63,2.12-2.75,2.9c-0.21,1.43,0.84,2.98,2.61,4.5c-2.5,0.29-4.21,1.14-5.1,2.55
		c-0.52,0.83-0.98,2.26-0.23,4.35c1.11,3.04,3.93,3.58,6.2,4.02c0.89,0.17,1.74,0.34,2.49,0.61c1.61,0.58,3.23,2.06,4.53,3.26
		c0.48,0.43,0.91,0.81,1.31,1.15c-4.22,5.07-15.68,19.93-12.98,29.15c0.95,3.27,3.47,5.48,7.48,6.59c1.14,0.31,2.3,0.44,3.47,0.44
		c4.91,0,9.86-2.4,13.36-4.1c5.18-2.52,10.01-5.67,14.94-8.97c3.89-2.6,5.99-5.07,6.43-7.59C139.82,94.49,139.45,93,138.45,91.62z
		 M136.41,95.5c-0.18,1.09-1.23,2.95-5.08,5.51c-4.82,3.23-9.57,6.31-14.56,8.74c-4.15,2.01-9.83,4.78-14.6,3.46
		c-2.92-0.81-4.64-2.24-5.28-4.41c-2.26-7.71,9.18-22.74,13.79-27.89V80.9c0.58-0.64,0.52-1.64-0.14-2.23
		c-0.4-0.35-0.92-0.49-1.4-0.37c-0.4-0.28-1.01-0.85-1.49-1.27c-1.5-1.37-3.38-3.07-5.57-3.89c-1-0.35-2-0.55-2.98-0.74
		c-2.37-0.46-3.38-0.77-3.82-2.01c-0.26-0.71-0.28-1.23-0.06-1.57c0.17-0.26,0.8-0.91,3.01-1.12c1.97-0.2,4.38,0.54,6.31,1.35
		c1.17,0.63,2.37,1.21,3.52,1.75c0.77,0.37,1.67,0.06,2.07-0.71c0.4-0.75,0.12-1.67-0.6-2.1c-0.77-0.43-1.97-1.08-3.39-1.7
		c-4.32-2.32-7.76-4.76-7.99-5.73c0.02-0.05,0.18-0.21,0.61-0.37c1.37-0.46,3.92-0.25,6.42,0.74c1.94,1.5,3.99,2.61,4.68,2.96
		c0.68,0.37,1.55,0.15,2.01-0.48c0.46-0.63,0.38-1.5-0.18-2.06c-1.41-1.38-3.12-2.46-4.9-3.21c-1.31-1.06-2.21-2.09-2.27-2.76
		c0-0.09-0.02-0.28,0.43-0.6c1.27-0.92,4.99,1.52,6.2,2.33l0.46,0.29c2.41,1.58,4.45,3.42,6.05,5.5c4.22,5.53,4.7,11.86,1.34,17.85
		c-2.5,4.45-5.38,9.14-7.89,13.28c-6.25,10.21-6.76,11.06-5.44,12.27c0.26,0.23,1.17,0.89,2.46-0.05c4.82-3.55,10.21-6.48,15.4-9.34
		l3.81-2.1c3.56-2.01,6.91-3.64,8.55-1.35C136.38,94.15,136.55,94.79,136.41,95.5z"/>
	<path style="fill:#FF7162;" d="M136.41,95.5c-0.18,1.09-1.23,2.95-5.08,5.51c-4.82,3.23-9.57,6.31-14.56,8.74
		c-4.15,2.01-9.83,4.78-14.6,3.46c-2.92-0.81-4.64-2.24-5.28-4.41c-2.26-7.71,9.18-22.74,13.79-27.89V80.9
		c0.58-0.64,0.52-1.64-0.14-2.23c-0.4-0.35-0.92-0.49-1.4-0.37c-0.4-0.28-1.01-0.85-1.49-1.27c-1.5-1.37-3.38-3.07-5.57-3.89
		c-1-0.35-2-0.55-2.98-0.74c-2.37-0.46-3.38-0.77-3.82-2.01c-0.26-0.71-0.28-1.23-0.06-1.57c0.17-0.26,0.8-0.91,3.01-1.12
		c1.97-0.2,4.38,0.54,6.31,1.35c1.17,0.63,2.37,1.21,3.52,1.75c0.77,0.37,1.67,0.06,2.07-0.71c0.4-0.75,0.12-1.67-0.6-2.1
		c-0.77-0.43-1.97-1.08-3.39-1.7c-4.32-2.32-7.76-4.76-7.99-5.73c0.02-0.05,0.18-0.21,0.61-0.37c1.37-0.46,3.92-0.25,6.42,0.74
		c1.94,1.5,3.99,2.61,4.68,2.96c0.68,0.37,1.55,0.15,2.01-0.48c0.46-0.63,0.38-1.5-0.18-2.06c-1.41-1.38-3.12-2.46-4.9-3.21
		c-1.31-1.06-2.21-2.09-2.27-2.76c0-0.09-0.02-0.28,0.43-0.6c1.27-0.92,4.99,1.52,6.2,2.33l0.46,0.29c2.41,1.58,4.45,3.42,6.05,5.5
		c4.22,5.53,4.7,11.86,1.34,17.85c-2.5,4.45-5.38,9.14-7.89,13.28c-6.25,10.21-6.76,11.06-5.44,12.27c0.26,0.23,1.17,0.89,2.46-0.05
		c4.82-3.55,10.21-6.48,15.4-9.34l3.81-2.1c3.56-2.01,6.91-3.64,8.55-1.35C136.38,94.15,136.55,94.79,136.41,95.5z"/>
</g>
<g>
	<path style="fill:#FF7162;" d="M84.2,23.91c0,0-25.31,21.1-34.52,52.01c0,0-3.93-5.16-1.11-9.95c2.83-4.81,0.66-6.22,1.4-9.66
		c0.74-3.44,1.8-13.41,9.29-16.48c7.49-3.09,8.58-1.78,9.08-7.43c0.48-5.44,3.89-12.22,8.19-12.22c0.17,0,0.35,0.01,0.54,0.05
		C81.6,20.84,84.2,23.91,84.2,23.91z"/>
	<path d="M86.62,21.86c-0.35-0.41-3.55-4.04-9.14-4.79c-0.32-0.05-0.66-0.06-0.97-0.06c-6.85,0-10.81,9.01-11.33,15.11
		c-0.15,1.75-0.34,2.18-0.38,2.27c-0.2,0.14-1.31,0.51-2.29,0.85c-1.17,0.4-2.61,0.91-4.45,1.66c-8.31,3.41-10.11,12.96-10.95,17.55
		c-0.09,0.46-0.17,0.86-0.23,1.2c-0.38,1.78-0.22,3.16-0.09,4.28c0.18,1.44,0.29,2.32-0.95,4.42c-3.09,5.24-0.63,10.95,1.32,13.48
		c0.6,0.8,1.54,1.26,2.52,1.26c0.18,0,0.38-0.03,0.57-0.06c1.18-0.22,2.13-1.06,2.47-2.21c8.81-29.59,33.26-50.28,33.51-50.49
		c0.64-0.54,1.04-1.32,1.12-2.15C87.42,23.34,87.16,22.51,86.62,21.86z M48.57,65.97c2.83-4.81,0.66-6.22,1.4-9.66
		c0.74-3.44,1.8-13.41,9.29-16.48c7.49-3.09,8.58-1.78,9.08-7.43c0.48-5.44,3.89-12.22,8.19-12.22c0.17,0,0.35,0.01,0.54,0.05
		c4.55,0.61,7.14,3.69,7.14,3.69s-25.31,21.1-34.52,52.01C49.67,75.92,45.74,70.76,48.57,65.97z"/>
</g>
<g>
	<path style="fill:#FF7B11;" d="M70.45,219.37c-0.18,0.2-0.4,0.38-0.65,0.55c6.42-7.59,12.93-27.87,12.93-52.48
		c0-11.29-3.01-22.31-8.72-31.9c-0.51-0.83-1.15-1.7-1.83-2.58c-0.98-1.29-2-2.64-2.43-3.86c-0.51-1.46-0.41-2.63,0.25-2.99
		c0.17-0.09,0.4-0.14,0.68-0.14c0.68,0,1.64,0.32,2.66,1.18c2.43,2.01,4.05,5.53,5.38,8.34c3.41,7.31,5.64,14.94,6.43,22.11
		C88.23,185.34,83.41,205.54,70.45,219.37z"/>
	<path d="M88.3,157.27c-0.83-7.49-3.15-15.48-6.71-23.1c-1.44-3.1-3.26-6.97-6.2-9.43c-2.32-1.93-4.95-2.46-6.91-1.4
		c-1.66,0.92-2.96,3.18-1.69,6.82c0.58,1.69,1.75,3.23,2.89,4.73c0.6,0.78,1.18,1.55,1.63,2.29c5.41,9.09,8.28,19.55,8.28,30.27
		c0,23.99-6.56,44.86-12.9,51.2c-1.8,1.81-2.43,3.07-2.1,4.21c0.2,0.74,0.77,1.26,1.55,1.46c0.21,0.05,0.43,0.06,0.69,0.06
		c1.86,0,4.61-1.41,5.94-2.84C86.41,206.99,91.49,185.97,88.3,157.27z M69.81,219.93c6.42-7.59,12.93-27.87,12.93-52.48
		c0-11.29-3.01-22.31-8.72-31.9c-0.51-0.83-1.15-1.7-1.83-2.58c-0.98-1.29-2-2.64-2.43-3.86c-0.51-1.46-0.41-2.63,0.25-2.99
		c0.17-0.09,0.4-0.14,0.68-0.14c0.68,0,1.64,0.32,2.66,1.18c2.43,2.01,4.05,5.53,5.38,8.34c3.41,7.31,5.64,14.94,6.43,22.11
		c3.09,27.72-1.74,47.91-14.7,61.75C70.27,219.57,70.05,219.76,69.81,219.93z"/>
</g>
</svg>
