<?xml version="1.0" encoding="utf-8"?>
<!-- Generator: Adobe Illustrator 24.1.1, SVG Export Plug-In . SVG Version: 6.00 Build 0)  -->
<svg version="1.1" id="Layer_1" xmlns="http://www.w3.org/2000/svg" xmlns:xlink="http://www.w3.org/1999/xlink" x="0px" y="0px"
	 viewBox="0 0 355 280" style="enable-background:new 0 0 355 280;" xml:space="preserve">
<g>
	<path style="fill:#FFFFFF;" d="M97.69,8.38c-2.48,1.19-4.56,2.9-5.84,5.25c-2.18,4.02-2.96,11.03-0.53,15.05
		c0.85,1.4,2.5,0.19,4.51-0.37c2.38-0.66,1.45-2.81,3-5.1c2.22-3.29,5.19-0.46,9.92,2.24c3.81,2.19,8.85,1.03,11.25-2.6
		c2.41-3.63,1.3-8.33-2.48-10.55C110.21,8.04,105.33,4.74,97.69,8.38z"/>
	<path d="M124.94,16.18c-0.53-2.34-1.81-4.41-3.62-5.96c-0.53-0.49-1.15-0.92-1.78-1.32l-1.09-0.63c-4.94-2.9-9.19-5.4-14.46-5.4
		c-2.64,0-5.24,0.63-8,1.94c-3.43,1.65-5.99,3.99-7.61,6.92c-2.77,5.11-3.69,13.6-0.43,19.01c0.99,1.61,2.64,2.57,4.51,2.57
		c1.25,0,2.34-0.43,3.33-0.79c0.33-0.13,0.72-0.3,1.12-0.4c3.62-1.02,4.38-3.95,4.71-5.37c0.1-0.33,0.16-0.59,0.23-0.79
		c0.69,0.33,1.68,0.96,2.47,1.45c0.2,0.1,0.36,0.23,0.56,0.33c0.63,0.36,1.25,0.76,1.91,1.15c1.84,1.05,3.99,1.61,6.16,1.61
		c0.36,0,0.72,0,1.05-0.07c0.82-0.03,1.61-0.2,2.37-0.4c2.83-0.79,5.27-2.54,6.92-5.01C125.07,22.37,125.66,19.24,124.94,16.18z
		 M120,22.86c-1.58,2.37-4.28,3.69-7.05,3.69c-1.45,0-2.9-0.33-4.18-1.09c-1.61-0.92-3-1.84-4.22-2.54c0,0,0-0.03-0.03-0.03
		c-1.25-0.69-2.34-1.15-3.26-1.15c-0.92,0-1.71,0.43-2.4,1.48c-1.55,2.27-0.63,4.41-3,5.07c-1.35,0.4-2.5,1.05-3.39,1.05
		c-0.46,0-0.86-0.2-1.12-0.66c-2.44-4.02-1.68-11.03,0.53-15.05c1.25-2.34,3.33-4.08,5.83-5.27c2.31-1.09,4.35-1.55,6.29-1.55
		c2.6,0,5.04,0.86,7.61,2.14c1.84,0.92,3.79,2.11,5.93,3.36C121.32,14.53,122.4,19.24,120,22.86z"/>
	<path style="fill-rule:evenodd;clip-rule:evenodd;fill:#683100;" d="M120,22.86c-1.58,2.37-4.28,3.69-7.05,3.69
		c-1.45,0-2.9-0.33-4.18-1.09c-1.61-0.92-3-1.84-4.22-2.54c0,0,0-0.03-0.03-0.03c-0.4-0.59,0.82-1.52,1.78-2.04
		c0.56-0.3,1.22-0.36,1.81-0.33c-0.79-0.23-1.48-0.72-1.91-1.45c-0.89-1.48-0.3-3.36,1.28-4.18c0.72-0.4,1.55-0.46,2.31-0.33
		c-0.69-0.23-1.32-0.66-1.68-1.32c-0.2-0.33-0.3-0.72-0.3-1.09c0,0,0-0.07,0-0.16c0-0.13,0-0.3,0.03-0.46
		c0.03-0.1,0.03-0.2,0.1-0.33c0.23-0.66,0.72-1.28,1.32-1.75c0.49-0.3,1.15-0.49,2.04-0.49h0.3c1.84,0.92,3.79,2.11,5.93,3.36
		C121.32,14.53,122.4,19.24,120,22.86z"/>
</g>
<g>
	<path d="M104.97,175.45c2.54,0,4.65,2.01,4.75,4.57l1.39,35.45l0.86,22.11c0,0,2.26-3.02,8.61-3.02c1.08,0,2.28,0.09,3.6,0.29
		c0.06,0.01,0.33,0.06,0.33,0.06c6.09,1.07,11.5,4.92,14.51,10.32c1.63,2.92,2.51,8.36,0.23,11.18c-3.33,4.13-9.05,3.7-13.75,3.89
		l-15.85,0.62l-3.43,0.13c-0.07,0-0.14,0-0.21,0c-2.77,0-7-2.03-7.1-4.72l-1.58-40.34l0,0l-1.39-35.45c-0.1-2.63,6.2-5,8.83-5.1
		C104.85,175.46,104.91,175.45,104.97,175.45 M104.98,171.5C104.98,171.5,104.98,171.5,104.98,171.5l-0.34,0.01
		c-1.95,0.08-4.71,0.87-7.03,2.01c-4.76,2.35-5.67,5.21-5.59,7.2l1.39,35.45l1.57,40.34c0.21,5.27,6.58,8.51,11.05,8.51l0.36-0.01
		l3.43-0.13l15.85-0.62c0.55-0.02,1.12-0.03,1.69-0.05c4.6-0.1,10.9-0.25,14.98-5.31c3.61-4.47,2.25-11.81,0.14-15.59
		c-3.58-6.42-10.04-11.01-17.27-12.28l-0.33-0.06c-1.54-0.24-2.95-0.35-4.29-0.35c-1.89,0-3.51,0.22-4.91,0.58l-0.62-15.87
		l-1.39-35.45C113.49,175.18,109.67,171.5,104.98,171.5L104.98,171.5z"/>
	<path style="fill:#FFFFFF;" d="M111.12,215.48L97.35,216l-1.38-35.44c-0.1-2.64,6.19-5.01,8.83-5.11c2.6-0.1,4.84,1.94,4.94,4.58
		L111.12,215.48z"/>
	<path style="fill-rule:evenodd;clip-rule:evenodd;fill:#0088C2;" d="M139.25,256.42c-3.33,4.15-9.03,3.72-13.74,3.89l-15.84,0.63
		l-3.43,0.13c-2.77,0.1-7.21-1.94-7.31-4.71l-1.42-36.03L97.35,216l13.77-0.53l0.16,4.31l0.69,17.79c0,0,3.1-4.12,12.22-2.7
		c0.03,0,0.33,0.03,0.33,0.03c6.09,1.09,11.5,4.94,14.49,10.34C140.67,248.15,141.55,253.59,139.25,256.42z"/>
</g>
<g>
	<path style="fill-rule:evenodd;clip-rule:evenodd;fill:#009FF8;" d="M92.54,224.2l-0.66,2.27c0.2-0.76,0.43-1.55,0.59-2.31
		L92.54,224.2z"/>
	<path style="fill-rule:evenodd;clip-rule:evenodd;fill:#009FF8;" d="M98.6,265.94c-0.66,3.06-3.36,7.38-6.69,7.97
		c-4.84,0.82-8.56-2.96-11.96-5.7l-11.43-9.26l-3.66-2.96c-2.17-1.78-2.5-4.97-0.76-7.15l6.55-8.1c2.73-4.87,7.02-12.98,8.4-18.12
		l-0.63,2.27l12.68,4.02c-1.28,4.15-3.03,8.33-5.14,12.55c-0.59,1.15,0.03,2.54,1.28,2.9c1.88,0.53,4.48,1.88,7.31,5.27
		c0.03,0.03,0.2,0.26,0.2,0.26C98.37,254.34,99.79,260.34,98.6,265.94z"/>
	<path style="fill:#FFFFFF;" d="M92.48,224.17c-0.16,0.76-0.4,1.55-0.59,2.31c-0.23,0.82-0.46,1.61-0.76,2.44l-12.68-4.02l0.63-2.27
		c3.2-11.83,2.17-22.83-3.03-32.68c-1.15-2.21-1.09-4.64,0.23-6.72c1.35-2.17,3.82-3.49,6.29-3.39c2.24,0.1,4.15,1.35,5.27,3.46
		C94.42,195.88,96,209.61,92.48,224.17z"/>
	<path style="fill:#FFFFFF;" d="M91.88,226.48l-0.69,2.47l-0.07-0.03C91.42,228.09,91.65,227.3,91.88,226.48z"/>
	<path d="M82.3,179.83c0.08,0,0.16,0,0.25,0c2.24,0.09,4.16,1.35,5.27,3.46c6.62,12.57,8.12,26.32,4.61,40.87l0.1,0.03l-0.63,2.29
		c0,0,0,0,0,0l-0.68,2.47l-0.08-0.03c-1.32,4.18-3.06,8.42-5.22,12.67c-0.55,1.09,0.02,2.38,1.2,2.7c1.88,0.5,4.57,1.85,7.49,5.34
		c0.03,0.04,0.19,0.25,0.19,0.25c3.59,4.47,5.01,10.46,3.81,16.06c-0.65,3.03-3.36,7.36-6.68,7.94c-0.47,0.08-0.93,0.12-1.38,0.12
		c-4.19,0-7.52-3.34-10.58-5.81l-11.43-9.26l-3.73-3.02c-2.14-1.74-2.48-4.88-0.74-7.03l6.59-8.14c0.01-0.02,0.02-0.03,0.03-0.05
		c2.74-4.89,7-12.97,8.38-18.1l0,0c3.18-11.81,2.16-22.8-3.02-32.65c-1.16-2.21-1.08-4.67,0.22-6.73
		C77.58,181.14,79.93,179.83,82.3,179.83 M82.3,175.87c-3.75,0-7.34,2.01-9.38,5.25c-2.04,3.24-2.18,7.23-0.37,10.68
		c4.71,8.94,5.62,18.96,2.71,29.78c-0.95,3.53-3.74,9.54-7.87,16.93l-6.4,7.9c-1.5,1.86-2.19,4.19-1.94,6.57
		c0.25,2.38,1.41,4.51,3.27,6.02l3.73,3.02l11.43,9.26c0.4,0.32,0.8,0.66,1.2,1c3.03,2.54,6.8,5.7,11.86,5.7
		c0.69,0,1.38-0.06,2.06-0.18c5.68-0.99,9.06-7.28,9.86-11.01c1.44-6.75-0.28-13.99-4.6-19.37l-0.17-0.22
		c-2.63-3.14-5.17-4.89-7.26-5.86c1.66-3.47,3.07-6.97,4.21-10.45c0.16-0.27,0.28-0.56,0.37-0.87l0.68-2.47c0-0.01,0-0.02,0.01-0.03
		l0.63-2.26c0.1-0.35,0.14-0.69,0.14-1.04c3.48-15.24,1.75-29.62-5.16-42.76c-1.76-3.35-4.98-5.43-8.61-5.57L82.3,175.87
		L82.3,175.87z"/>
</g>
<g>
	<path style="fill:#FFFFFF;" d="M156.12,137.03c-4.23-5.93-9.6-10.51-15.27-15.5c-2.51-2.2-11.76-10.06-5.26-13.26
		c2.36-1.16,5.86,0.57,8.07,1.42c4.8,1.85,9.27,4.4,13.27,7.49c4.48,3.46,8.35,7.58,11.66,12.09
		C164.96,130.76,160.34,133.24,156.12,137.03z"/>
	<path style="fill:#0088C5;" d="M164.84,160.92c-0.01-0.09-0.02-0.18-0.03-0.28c-0.23-2.41-0.59-4.64-1.07-6.78
		c-0.69-3.06-1.67-5.92-2.99-8.8c-0.65-1.42-1.39-2.85-2.23-4.32c-0.75-1.31-1.56-2.52-2.4-3.71c4.22-3.79,8.84-6.28,12.48-7.76
		c1.6,2.18,3.08,4.45,4.42,6.8c3.81,6.7,7.71,14.65,8.42,22.5c0.35,3.82-1.32,7.85-4.78,10.11c-0.72,0.47-1.47,0.86-2.17,1.13
		c-2.55,1-5.52,0.98-7.49-0.84c-0.39-0.36-0.68-0.77-0.93-1.2C164.91,165.79,165.08,163.2,164.84,160.92z"/>
	<path d="M137.44,107.88c2.11,0,4.55,1.16,6.23,1.81c4.8,1.85,9.27,4.4,13.27,7.49c4.48,3.46,8.35,7.58,11.66,12.09
		c1.6,2.18,3.08,4.45,4.42,6.8c3.81,6.7,7.71,14.65,8.42,22.5c0.35,3.82-1.32,7.84-4.78,10.11c-0.72,0.47-1.47,0.86-2.17,1.13
		c-1.08,0.42-2.23,0.66-3.35,0.66c-1.53,0-3-0.45-4.14-1.5c-0.39-0.36-0.68-0.77-0.93-1.2c-1.16-1.99-1-4.58-1.23-6.86
		c-0.01-0.09-0.02-0.18-0.03-0.28c-0.23-2.42-0.59-4.64-1.07-6.78c-0.69-3.06-1.67-5.92-2.99-8.8c-0.65-1.42-1.39-2.85-2.23-4.32
		c-0.75-1.31-1.56-2.52-2.4-3.71c-4.23-5.93-9.6-10.51-15.27-15.5c-2.51-2.2-11.76-10.06-5.26-13.26
		C136.15,107.99,136.78,107.88,137.44,107.88 M137.44,103.93c-1.31,0-2.52,0.27-3.59,0.8c-3.41,1.68-4.23,4.32-4.42,5.74
		c-0.66,4.99,3.98,9.8,8.59,13.85l0.22,0.19l0.93,0.82c5.14,4.51,9.99,8.77,13.72,14.01c0.91,1.27,1.6,2.34,2.19,3.37
		c0.79,1.39,1.47,2.7,2.07,4.01c1.21,2.63,2.1,5.25,2.73,8.03c0.46,2.04,0.79,4.09,0.99,6.28l0.03,0.29
		c0.05,0.49,0.08,0.98,0.11,1.48c0.12,2.07,0.28,4.65,1.64,6.99c0.49,0.83,1.03,1.52,1.65,2.1c1.81,1.67,4.17,2.55,6.83,2.55
		c1.57,0,3.23-0.32,4.79-0.93c0.96-0.38,1.96-0.9,2.89-1.51c4.54-2.97,7.05-8.25,6.55-13.77c-0.8-8.87-5.19-17.54-8.92-24.1
		c-1.38-2.43-2.95-4.85-4.67-7.19c-3.68-5.01-7.86-9.35-12.43-12.88c-4.37-3.37-9.16-6.08-14.26-8.05l-0.84-0.33
		C142.44,104.94,139.96,103.93,137.44,103.93L137.44,103.93z"/>
</g>
<g>
	<path style="fill:#FFFFFF;" d="M39.03,142.99c6.35-1.68,12.69-1.72,19.47-1.85c3-0.06,13.9-0.08,11.33-6.3
		c-0.93-2.25-4.34-3.14-6.34-3.86c-4.36-1.58-8.9-2.46-13.43-2.67c-5.08-0.23-10.12,0.37-15.02,1.59
		C36.66,133.16,38.36,137.72,39.03,142.99z"/>
	<path style="fill:#0088C5;" d="M19.14,154.78c0.06-0.06,0.12-0.12,0.18-0.18c1.56-1.59,3.11-2.96,4.69-4.2
		c2.26-1.77,4.59-3.22,7.18-4.48c1.28-0.62,2.62-1.2,4.04-1.74c1.27-0.48,2.54-0.86,3.81-1.2c-0.67-5.26-2.37-9.83-3.99-13.09
		c-2.37,0.59-4.7,1.32-6.99,2.19c-6.51,2.48-13.81,5.81-18.88,10.99c-2.47,2.52-3.68,6.4-2.64,10.11c0.22,0.77,0.5,1.5,0.82,2.12
		c1.16,2.25,3.2,4.04,5.6,3.93c0.48-0.02,0.91-0.14,1.33-0.29C16.25,158.23,17.65,156.28,19.14,154.78z"/>
	<path d="M47.89,128.25c0.72,0,1.44,0.02,2.17,0.05c4.54,0.21,9.07,1.09,13.43,2.67c2,0.73,5.41,1.61,6.34,3.86
		c2.57,6.22-8.33,6.24-11.33,6.3c-6.78,0.14-13.12,0.17-19.47,1.85c-1.27,0.34-2.53,0.71-3.81,1.2c-1.42,0.54-2.76,1.12-4.04,1.74
		c-2.59,1.26-4.92,2.72-7.18,4.48c-1.58,1.24-3.13,2.61-4.69,4.2c-0.06,0.06-0.12,0.12-0.18,0.18c-1.49,1.49-2.89,3.44-4.85,4.16
		c-0.42,0.15-0.85,0.27-1.33,0.29c-0.07,0-0.14,0-0.21,0c-2.31,0-4.26-1.75-5.39-3.93c-0.32-0.62-0.6-1.35-0.82-2.12
		c-1.04-3.71,0.17-7.59,2.64-10.11c5.07-5.18,12.37-8.51,18.88-10.99c2.28-0.87,4.62-1.6,6.99-2.19
		C39.24,128.85,43.55,128.25,47.89,128.25 M47.89,124.3c-4.5,0-9.14,0.59-13.81,1.76c-2.55,0.64-5.05,1.42-7.43,2.33
		c-6.42,2.45-14.52,6.02-20.29,11.92c-3.61,3.69-4.99,9.04-3.62,13.95c0.28,1.01,0.67,2,1.11,2.86c1.96,3.81,5.29,6.08,8.91,6.08
		c0.13,0,0.26,0,0.4-0.01c0.83-0.04,1.65-0.21,2.51-0.53c2.4-0.88,4.04-2.67,5.36-4.1c0.31-0.33,0.61-0.67,0.92-0.98l0.2-0.2
		c1.41-1.43,2.81-2.69,4.31-3.86c2.03-1.59,4.15-2.91,6.48-4.04c1.16-0.57,2.38-1.09,3.71-1.6c0.98-0.37,2.07-0.71,3.41-1.07
		c5.54-1.47,11.31-1.58,17.42-1.7l1.12-0.02l0.26-0.01c5.56-0.1,11.6-0.74,14.21-4.73c0.76-1.17,1.84-3.63,0.43-7.03
		c-1.5-3.62-5.35-4.94-7.89-5.81l-0.76-0.26c-4.68-1.69-9.59-2.67-14.6-2.9C49.46,124.32,48.67,124.3,47.89,124.3L47.89,124.3z"/>
</g>
<g>
	<path style="fill:#FFFFFF;" d="M51.9,17.94c3.2,0.03,6.27,0.86,8.84,2.81c4.41,3.35,7.93,7.66,7.56,13.43
		c-0.13,2.01-3.15,4.13-5.53,4.56c-2.82,0.51-2.88-1.59-5.71-3.34c-4.05-2.51-5.61,2.2-9.06,7.7c-2.77,4.44-8.61,5.78-13.03,2.99
		c-4.43-2.79-5.8-8.63-3.07-13.09C37.18,24.39,42.06,17.86,51.9,17.94z"/>
	<path d="M48.73,41.92c0.79-1.28,1.78-2.87,2.14-3.49c0.03-0.07,0.1-0.16,0.1-0.23C50.28,39.29,49.56,40.54,48.73,41.92z"/>
	<path d="M63.13,17.61c-3.1-2.37-6.88-3.59-11.2-3.62h-0.2c-11.83,0-17.72,8-23.19,16.93c-3.85,6.29-1.91,14.59,4.31,18.51
		c2.14,1.35,4.61,2.08,7.15,2.08c4.64,0,8.89-2.37,11.36-6.32c0.63-0.99,1.19-1.98,1.71-2.9c0.69-1.15,1.55-2.6,2.14-3.36
		c0.49,0.33,0.86,0.72,1.28,1.15c0.96,1.02,2.57,2.7,5.47,2.7c0.49,0,0.99-0.07,1.48-0.13c3.39-0.63,8.5-3.66,8.79-8.2
		C72.65,28.19,69.58,22.52,63.13,17.61z M62.77,38.76c-0.3,0.03-0.56,0.07-0.79,0.07c-2.08,0-2.37-1.84-4.91-3.43
		c-0.79-0.46-1.45-0.69-2.08-0.69c-1.55,0-2.73,1.38-4.02,3.46v0.03c0,0.07-0.07,0.16-0.1,0.23c-0.36,0.63-1.35,2.21-2.14,3.49
		c-0.26,0.46-0.53,0.86-0.72,1.19c-2.8,4.45-8.63,5.76-13.04,2.96c-4.41-2.77-5.8-8.63-3.06-13.08c1.68-2.73,3.33-5.27,5.07-7.44
		c3.79-4.61,8.14-7.61,14.76-7.61h0.16c3.2,0.03,6.29,0.86,8.86,2.8c4.38,3.36,7.91,7.67,7.54,13.44
		C68.17,36.19,65.14,38.33,62.77,38.76z"/>
	<path style="fill:#683100;" d="M50.97,38.17v0.03c0,0.07-0.07,0.16-0.1,0.23c-0.36,0.63-1.35,2.21-2.14,3.49
		c-0.26,0.46-0.53,0.86-0.72,1.19c-2.8,4.45-8.63,5.76-13.04,2.96c-4.41-2.77-5.8-8.63-3.06-13.08c1.68-2.73,3.33-5.27,5.07-7.44
		c0.3-0.07,0.89-0.26,1.05-0.23c2.08,0.1,4.22,1.68,4.12,3.79c-0.03,0.92-0.46,1.75-1.05,2.37c0.72-0.56,1.61-0.92,2.57-0.89
		c2.08,0.13,3.69,1.94,3.59,4.02c-0.07,1.05-0.53,1.98-1.22,2.64c0.59-0.36,1.32-0.63,2.08-0.56
		C49.42,36.75,51.24,37.21,50.97,38.17z"/>
</g>
<g>
	<path d="M92.77,27.06c10.62,0,21.61,3.26,30.91,8.08c9.36,4.85,16.48,14.74,20.7,24.23c0.25,0.57,0.46,1.15,0.7,1.72
		c0.47,0.97,0.91,1.94,1.32,2.9c4.89,11.57,4.02,22.24,2.09,34.51c-0.42,2.66-4.13,15.87-4.14,16.49
		c-0.68,7.1,3.89,15.13,5.68,21.84c3.32,12.47,5.21,25.53,1.32,38.13c-5.31,17.17-21.44,24.94-38.01,28.01
		c-1.99,0.37-3.99,0.65-6,0.86c-0.08,0.01-0.16,0.01-0.24,0.02l-4.09,0.42c-2.01,0.21-4.11,0.34-6.13,0.38
		c-0.51,0.01-1.01,0.02-1.52,0.02c-13.5,0-28.47-3.68-38.02-13.7c-7.17-7.53-11.13-20.93-11.63-31.19
		c-0.4-8.01,1.15-15.98,1.73-23.94c0.23-3.12,1.03-6.23,0.43-9.3c-0.13-0.65-0.3-1.28-0.47-1.91c-0.66-1.34-5.63-11.43-7.04-15.34
		c-3.85-8.83-5.72-18.35-5.45-28.22C35.17,70.67,38,58.8,44.8,50.76c8.74-10.34,21.08-19.34,34.31-21.93c0,0,0.1-0.02,0.24-0.05
		l4.25-0.84C86.59,27.34,89.66,27.06,92.77,27.06 M92.77,23.11c-3.44,0-6.79,0.32-9.95,0.96l-4.23,0.83l-0.32,0.07
		c-12.8,2.5-26.13,10.98-36.49,23.24c-6.53,7.73-10.48,19.66-10.84,32.74c-0.28,10.36,1.64,20.38,5.73,29.79
		c1.2,3.27,4.45,10.07,6.99,15.27c0.12,0.45,0.23,0.86,0.31,1.27c0.3,1.56,0.07,3.4-0.17,5.34c-0.12,0.97-0.24,1.94-0.32,2.92
		c-0.19,2.55-0.49,5.18-0.77,7.73c-0.61,5.41-1.25,11.01-0.96,16.7c0.53,10.7,4.67,25.27,12.72,33.72
		c12.37,12.99,30.93,14.93,40.88,14.93c0.54,0,1.07-0.01,1.6-0.02c2.07-0.04,4.3-0.18,6.45-0.4l4.09-0.42l0.23-0.02
		c2.13-0.22,4.26-0.52,6.33-0.91c21.9-4.06,36.1-14.69,41.07-30.73c4.51-14.58,1.69-29.2-1.27-40.31c-0.62-2.32-1.53-4.75-2.41-7.1
		c-1.72-4.58-3.49-9.31-3.16-13.22c0.15-0.68,0.79-3.09,1.36-5.24c1.46-5.5,2.51-9.52,2.76-11.13c1.88-11.93,3.12-23.72-2.35-36.66
		c-0.42-0.98-0.87-1.97-1.34-2.96l-0.21-0.54c-0.16-0.4-0.31-0.79-0.49-1.19c-5.31-11.95-13.51-21.48-22.5-26.14
		C114.9,26.14,103.27,23.11,92.77,23.11L92.77,23.11z"/>
	<path style="fill:#009FF9;" d="M150.02,136.82c-1.79-6.7-6.36-14.74-5.68-21.84c0.01-0.62,3.72-13.82,4.14-16.49
		c1.94-12.27,2.81-22.94-2.09-34.51c-0.41-0.96-0.85-1.93-1.32-2.9c-0.24-0.57-0.44-1.15-0.7-1.72
		c-4.22-9.49-11.35-19.38-20.7-24.23c-12.02-6.23-26.86-9.85-40.08-7.2l-4.25,0.84c-0.14,0.03-0.24,0.05-0.24,0.05
		C65.88,31.41,53.54,40.42,44.8,50.76c-6.8,8.05-9.63,19.91-9.91,30.29c-0.27,9.87,1.6,19.39,5.45,28.22
		c1.41,3.91,6.38,14,7.04,15.34c0.17,0.63,0.34,1.27,0.47,1.91c0.6,3.07-0.2,6.19-0.43,9.3c-0.58,7.96-2.13,15.93-1.73,23.94
		c0.51,10.26,4.46,23.66,11.63,31.19c9.91,10.41,25.66,13.97,39.55,13.69c2.02-0.04,4.12-0.18,6.13-0.38l4.09-0.42
		c0.08-0.01,0.16-0.01,0.24-0.02c2.01-0.21,4.01-0.49,6-0.86c16.57-3.07,32.7-10.84,38.01-28.01
		C155.23,162.35,153.34,149.29,150.02,136.82z"/>
</g>
<path style="fill:#009FF8;" d="M83.6,27.94c0,0-0.1,0.02-0.24,0.04L83.6,27.94z"/>
<g>
	<path style="fill-rule:evenodd;clip-rule:evenodd;fill:#FFFFFF;" d="M156.97,100.19c-5.83,9.26-18.58,16.57-34.09,19.53
		c-38.47,7.41-59.98-1.75-65.75-28.03c-0.79-3.72-4.35-22.99,5.47-37.75c5.86-8.89,15.55-14.62,28.69-17.06
		c45.26-8.43,52.73,24.87,53.03,26.32c0.16,0.79,0.86,1.42,1.68,1.55c0.1,0,10.54,1.61,13.8,14.1
		C161.88,86.75,160.92,93.93,156.97,100.19z"/>
	<path d="M163.62,77.86c-3.19-12.32-12.29-15.84-15.74-16.73c-1.65-5.9-10.28-29.58-42.62-29.58c-4.45,0-9.32,0.46-14.69,1.45
		c-14.23,2.64-24.77,8.96-31.26,18.74c-10.44,15.71-7.25,35.18-6.03,40.78c4.94,22.56,20.09,33.7,46.08,33.7
		c7.25,0,15.32-0.89,24.28-2.6c16.8-3.23,30.17-11,36.66-21.31C164.88,95.08,166,86.85,163.62,77.86z M57.13,91.69
		c-0.79-3.72-4.35-22.99,5.47-37.75c5.86-8.89,15.55-14.62,28.69-17.06c45.26-8.43,52.73,24.87,53.03,26.32
		c0.16,0.79,0.86,1.42,1.68,1.55c0.1,0,10.54,1.61,13.8,14.1c2.08,7.91,1.12,15.09-2.83,21.34c-5.83,9.26-18.58,16.57-34.09,19.53
		C84.41,127.13,62.9,117.98,57.13,91.69z"/>
	<path style="fill-rule:evenodd;clip-rule:evenodd;fill:#FFBEB8;" d="M114.85,88.59c1.13,7.99-4.11,15.34-11.69,16.42
		s-14.65-4.54-15.78-12.53c-1.13-7.99,4.11-15.34,11.69-16.41S113.72,80.6,114.85,88.59"/>
	<path style="fill-rule:evenodd;clip-rule:evenodd;fill:#FFBEB8;" d="M158.51,76.18c-1.1-2.61-5.7-11.19-9.62-7.26
		c-5.29,5.31-0.82,16.07,2.99,21.18c1.5,2.01,3.99,4.25,6.84,3.25c1.61-0.56,1.74-3.79,1.8-4.91
		C160.72,84.29,160.13,80.04,158.51,76.18z"/>
</g>
<g>
	<path style="fill-rule:evenodd;clip-rule:evenodd;" d="M137.63,78.53c0.15,1.04-0.83,2.04-2.21,2.24c-1.38,0.19-2.6-0.49-2.75-1.53
		c-0.15-1.03,0.84-2.04,2.21-2.24C136.27,76.8,137.48,77.49,137.63,78.53"/>
	<path style="fill-rule:evenodd;clip-rule:evenodd;" d="M140.82,75.78L140.82,75.78c-1.43,0.2-2.78-1.03-3.02-2.76l-0.06-0.44
		c-0.24-1.73,0.71-3.29,2.14-3.49s2.78,1.04,3.03,2.76l0.06,0.44C143.21,74.02,142.25,75.58,140.82,75.78"/>
	<path style="fill-rule:evenodd;clip-rule:evenodd;" d="M118.72,78.91L118.72,78.91c-1.68,0.24-3.24-0.97-3.48-2.7l-0.06-0.44
		c-0.24-1.73,0.92-3.32,2.6-3.56s3.24,0.97,3.48,2.7l0.06,0.44C121.56,77.08,120.4,78.67,118.72,78.91"/>
	<path style="fill:#231815;" d="M146.77,81.49c-0.56-0.72-1.59-0.84-2.31-0.28c-0.72,0.56-0.84,1.6-0.28,2.31
		c0.07,0.09,0.23,0.29-0.25,1.02c-0.98,1.5-2.51,1.84-3.33,1.91c-1.54,0.12-3.12-0.44-4.09-1.49c-0.07-0.07-0.15-0.11-0.23-0.16
		c-0.08-0.06-0.13-0.13-0.22-0.18c-0.01-0.01-0.03-0.01-0.05-0.01c-0.1-0.05-0.21-0.06-0.31-0.09c-0.11-0.03-0.21-0.07-0.32-0.07
		c-0.07,0-0.13,0.02-0.2,0.02c-0.15,0.01-0.29,0.02-0.43,0.07c-0.06,0.02-0.11,0.07-0.17,0.09c-0.13,0.06-0.26,0.13-0.37,0.22
		c-0.01,0.01-0.03,0.01-0.04,0.02c-0.07,0.07-0.11,0.15-0.16,0.23c-0.06,0.08-0.13,0.13-0.18,0.22c-1.93,3.69-8.28,5.26-12.58,3.1
		c-1-0.5-1.59-0.97-1.85-1.24c0.23-0.67,0-1.43-0.6-1.86c-0.74-0.53-1.77-0.36-2.3,0.38c-0.46,0.64-0.61,1.4-0.42,2.16
		c0.31,1.25,1.55,2.44,3.69,3.51c1.83,0.92,3.87,1.35,5.91,1.35c3.87,0,7.69-1.56,9.95-4.25c1.32,0.83,2.88,1.31,4.5,1.31
		c0.24,0,0.48-0.01,0.73-0.03c2.42-0.2,4.54-1.44,5.81-3.39C148.22,83.99,147.4,82.3,146.77,81.49z"/>
</g>
</svg>
