<?xml version="1.0" encoding="utf-8"?>
<!-- Generator: Adobe Illustrator 24.1.1, SVG Export Plug-In . SVG Version: 6.00 Build 0)  -->
<svg version="1.1" id="Layer_1" xmlns="http://www.w3.org/2000/svg" xmlns:xlink="http://www.w3.org/1999/xlink" x="0px" y="0px"
	 viewBox="0 0 181.18 280" style="enable-background:new 0 0 181.18 280;" xml:space="preserve">
<g>
	<path style="fill-rule:evenodd;clip-rule:evenodd;fill:#0088C5;" d="M98.56,262.94c-0.33,0.69-0.76,1.42-1.32,2.14
		c-0.3,0.36-0.59,0.72-0.92,1.05c-0.3,0.36-0.66,0.69-0.99,0.99c-1.45,1.22-3.16,2.11-4.81,2.11H90.3
		c-4.91-0.26-7.71-4.78-10.41-8.2l-9.09-11.56l-2.96-3.76c-0.36-0.46-0.63-0.96-0.79-1.45c-0.4-1.25-0.33-2.64,0.23-3.82
		c0.3-0.66,0.76-1.25,1.38-1.75l8.24-6.49c0-0.03,0.03-0.03,0.03-0.03c0.96-1.05,2.01-2.27,3.13-3.59c0.56-0.66,1.15-1.32,1.71-2.01
		c2.54-3.06,5.11-6.39,6.75-9.12l-0.53,0.99l11.46,6.75c-1.09,1.84-2.27,3.72-3.56,5.57c-1.32,1.84-2.73,3.72-4.22,5.53
		c-0.86,0.99-0.53,2.44,0.59,3.06c0.82,0.46,1.78,1.15,2.8,2.21c0.26,0.26,0.53,0.56,0.79,0.89c0.82,0.99,1.61,2.17,2.4,3.69
		c0.03,0.07,0.13,0.3,0.13,0.3C100.94,251.57,100.97,257.73,98.56,262.94z"/>
	<path style="fill:#FFFFFF;" d="M103.31,217.54c-0.46,1.09-0.99,2.17-1.52,3.26v0.03c-0.13,0.36-0.33,0.72-0.49,1.05l-0.56,1.05
		c0,0.03,0,0.03,0,0.03c-0.4,0.72-0.82,1.48-1.25,2.21h-0.03l-11.46-6.75l0.53-0.99c0.2-0.4,0.4-0.76,0.59-1.09
		c3.79-7.21,5.7-14.46,5.7-21.68c0-3.62-0.49-7.25-1.45-10.84c-0.63-2.44-0.03-4.81,1.71-6.52c1.38-1.38,3.26-2.14,5.14-2.14
		c0.59,0,1.15,0.07,1.71,0.23c2.17,0.56,3.79,2.21,4.38,4.51c0.72,2.67,1.22,5.34,1.55,7.97
		C109.07,197.84,107.56,207.76,103.31,217.54z"/>
	<path d="M91.68,236.29c-0.03,0.03-0.07,0.07-0.1,0.1c-0.79,0.96-0.53,2.34,0.56,2.9c0.03,0.03,0.1,0.03,0.13,0.07
		C91.15,238.72,90.82,237.28,91.68,236.29z"/>
	<path d="M105.71,221.76c6.79-14.1,8.27-28.49,4.41-42.86c-0.96-3.66-3.66-6.39-7.18-7.31c-0.86-0.26-1.78-0.36-2.73-0.36
		c-2.93,0-5.86,1.19-7.94,3.29c-2.7,2.7-3.72,6.59-2.73,10.34c2.64,9.75,1.28,19.73-3.92,29.65c-1.71,3.23-5.76,8.47-11.43,14.76
		l-7.97,6.29c-1.88,1.48-3.06,3.62-3.36,6c-0.26,2.37,0.4,4.71,1.88,6.59l2.96,3.76l9.09,11.56c0.33,0.4,0.63,0.82,0.96,1.25
		c2.64,3.43,6.23,8.14,12.39,8.43c0.13,0.03,0.26,0.03,0.4,0.03c5.6,0,10.11-5.27,11.63-8.56c2.9-6.29,2.83-13.74-0.2-19.93
		l-0.13-0.23c-1.84-3.66-3.95-5.93-5.76-7.31c2.37-3.03,4.51-6.13,6.39-9.29L105.71,221.76z M103.31,217.54
		c-0.46,1.09-0.99,2.17-1.52,3.26v0.03c-0.13,0.36-0.33,0.72-0.49,1.05l-0.56,1.05c0,0.03,0,0.03,0,0.03
		c-0.4,0.72-0.82,1.48-1.25,2.21h-0.03c-1.09,1.84-2.27,3.72-3.56,5.57c-1.32,1.84-2.73,3.72-4.22,5.53
		c-0.86,0.99-0.53,2.44,0.59,3.06c0.82,0.46,1.78,1.15,2.8,2.21c0.26,0.26,0.53,0.56,0.79,0.89c0.82,0.99,1.61,2.17,2.4,3.69
		c0.03,0.07,0.13,0.3,0.13,0.3c2.54,5.14,2.57,11.3,0.16,16.5c-0.33,0.69-0.76,1.42-1.32,2.14c-0.26,0.36-0.59,0.72-0.92,1.05
		c-0.3,0.36-0.66,0.69-0.99,0.99c-1.45,1.22-3.16,2.11-4.81,2.11H90.3c-4.91-0.26-7.71-4.78-10.41-8.2l-9.09-11.56l-2.96-3.76
		c-0.36-0.46-0.63-0.96-0.79-1.45c-0.46-1.25-0.36-2.64,0.23-3.82c0.3-0.66,0.76-1.25,1.38-1.75l8.24-6.49
		c0-0.03,0.03-0.03,0.03-0.03c0.96-1.05,2.01-2.27,3.13-3.59c0.56-0.66,1.15-1.32,1.71-2.01c2.54-3.06,5.11-6.39,6.75-9.12
		c0.2-0.4,0.4-0.76,0.59-1.09c3.79-7.21,5.7-14.46,5.7-21.68c0-3.62-0.49-7.25-1.45-10.84c-0.63-2.44-0.03-4.81,1.71-6.52
		c1.38-1.38,3.26-2.14,5.14-2.14c0.59,0,1.15,0.07,1.71,0.23c2.17,0.56,3.79,2.21,4.38,4.51c0.72,2.67,1.22,5.34,1.55,7.97
		C109.07,197.84,107.56,207.76,103.31,217.54z"/>
</g>
<g>
	<path style="fill:#FFFFFF;" d="M83.97,224.03l-13.77,0.43l-1.05-35.48c-0.1-2.64,6.23-4.94,8.86-5.04
		c2.64-0.07,4.81,2.01,4.91,4.61L83.97,224.03z"/>
	<path style="fill-rule:evenodd;clip-rule:evenodd;fill:#009FF9;" d="M111.74,265.24c-3.36,4.12-9.09,3.62-13.8,3.76l-15.84,0.49
		l-3.43,0.1c-2.77,0.07-7.18-2.04-7.28-4.78l-1.05-36.07l-0.13-4.28l13.77-0.43l0.13,4.32l0.53,17.82c0,0,3.13-4.12,12.22-2.64
		c0.07,0.03,0.33,0.07,0.33,0.07c6.09,1.12,11.46,5.04,14.43,10.48C113.22,257.01,114.05,262.44,111.74,265.24z"/>
	<path d="M78.16,183.96c2.56,0,4.68,2.04,4.75,4.61l1.06,35.47l0.66,22.12c0,0,2.25-2.94,8.46-2.94c1.13,0,2.38,0.1,3.78,0.33
		c0.06,0.01,0.33,0.07,0.33,0.07c6.08,1.13,11.45,5.03,14.41,10.45c1.6,2.94,2.43,8.38,0.13,11.19c-3.37,4.1-9.08,3.62-13.78,3.76
		l-15.85,0.47l-3.43,0.1c-0.05,0-0.1,0-0.16,0c-2.76,0-7.03-2.08-7.11-4.78l-1.2-40.35l0,0l-1.06-35.47
		c-0.08-2.63,6.25-4.94,8.87-5.02C78.06,183.96,78.11,183.96,78.16,183.96 M78.16,180C78.16,180,78.16,180,78.16,180
		c-0.04,0-0.22,0-0.26,0c-2.74,0.08-12.9,2.56-12.71,9.09l1.06,35.47l1.2,40.35c0.16,5.34,6.55,8.62,11.06,8.62
		c0.04,0,0.24,0,0.28,0l3.43-0.1l15.85-0.47c0.55-0.02,1.12-0.02,1.69-0.03c4.6-0.06,10.9-0.14,15.03-5.17
		c3.65-4.44,2.36-11.79,0.29-15.59c-3.52-6.45-9.94-11.1-17.16-12.44l-0.28-0.06c-1.67-0.28-3.16-0.4-4.56-0.4
		c-1.79,0-3.35,0.21-4.69,0.53l-0.47-15.87l-1.06-35.47C86.72,183.71,82.9,180,78.16,180L78.16,180z"/>
</g>
<g>
	<path style="fill:#FFFFFF;" d="M141.01,151.34c-1.64-7.1-1.51-14.16-1.48-21.71c0.01-3.34,0.27-15.47-6.45-12.73
		c-2.43,0.99-3.46,4.77-4.29,6.99c-1.8,4.83-2.85,9.86-3.19,14.9c-0.38,5.65,0.14,11.28,1.32,16.75
		C130.46,153.8,135.38,151.99,141.01,151.34z"/>
	<path style="fill:#0088C5;" d="M153.11,173.71c-0.06-0.07-0.13-0.13-0.19-0.2c-1.66-1.77-3.09-3.52-4.37-5.3
		c-1.83-2.55-3.33-5.17-4.61-8.08c-0.63-1.43-1.21-2.93-1.75-4.53c-0.48-1.42-0.86-2.84-1.18-4.26c-5.64,0.65-10.56,2.46-14.08,4.2
		c0.57,2.65,1.29,5.26,2.16,7.82c2.49,7.29,5.86,15.48,11.26,21.22c2.63,2.79,6.75,4.22,10.74,3.12c0.83-0.23,1.62-0.53,2.28-0.87
		c2.44-1.25,4.4-3.49,4.34-6.16c-0.01-0.53-0.13-1.02-0.28-1.49C156.72,177,154.67,175.4,153.11,173.71z"/>
	<path d="M134.9,116.51c4.85,0,4.64,10.13,4.63,13.13c-0.03,7.55-0.15,14.61,1.49,21.71c0.33,1.42,0.7,2.83,1.18,4.26
		c0.54,1.59,1.12,3.1,1.75,4.53c1.28,2.91,2.78,5.53,4.61,8.08c1.28,1.78,2.71,3.53,4.37,5.3c0.06,0.07,0.13,0.14,0.19,0.2
		c1.56,1.69,3.6,3.29,4.32,5.47c0.15,0.47,0.27,0.96,0.28,1.49c0.06,2.67-1.9,4.91-4.34,6.16c-0.67,0.34-1.45,0.64-2.28,0.87
		c-0.91,0.25-1.83,0.37-2.74,0.37c-3.06,0-5.97-1.34-8-3.49c-5.41-5.74-8.77-13.93-11.26-21.22c-0.87-2.56-1.59-5.17-2.16-7.82
		c-1.19-5.47-1.7-11.09-1.32-16.75c0.34-5.04,1.39-10.07,3.19-14.9c0.83-2.22,1.85-5.99,4.28-6.99
		C133.76,116.63,134.36,116.51,134.9,116.51 M134.9,112.55c-1.07,0-2.18,0.23-3.31,0.69c-3.77,1.54-5.22,5.68-6.19,8.42l-0.3,0.85
		c-1.91,5.12-3.06,10.51-3.43,16.02c-0.39,5.77,0.09,11.77,1.4,17.85c0.61,2.83,1.38,5.61,2.29,8.26
		c2.44,7.14,6.02,16.17,12.13,22.65c2.84,3.01,6.8,4.73,10.87,4.73c1.28,0,2.55-0.17,3.78-0.51c1.07-0.29,2.13-0.7,3.04-1.16
		c4.09-2.09,6.58-5.84,6.49-9.77c-0.02-0.86-0.18-1.72-0.48-2.63c-0.85-2.58-2.68-4.4-4.14-5.87c-0.35-0.35-0.7-0.7-1.03-1.05
		l-0.21-0.22c-1.5-1.6-2.82-3.21-4.04-4.91c-1.66-2.31-3.03-4.72-4.2-7.37c-0.58-1.32-1.11-2.69-1.63-4.21
		c-0.38-1.12-0.72-2.35-1.07-3.87c-1.45-6.27-1.42-12.73-1.39-19.56l0.01-1.24l0-0.29c0.03-5.47-0.37-11.49-3.57-14.7
		C138.55,113.28,136.81,112.55,134.9,112.55L134.9,112.55z"/>
</g>
<g>
	<path style="fill:#FFFFFF;" d="M125.54,27.74c-2.77,3.36-7.91,3.99-11.46,1.42c-0.13-0.1-0.26-0.2-0.43-0.33
		c-0.26-0.16-0.49-0.33-0.72-0.49c-0.1-0.1-0.23-0.16-0.33-0.23c-0.89-0.72-1.71-1.35-2.47-1.88v-0.03
		c-1.28-0.89-2.4-1.52-3.43-1.52c-0.79,0-1.52,0.36-2.27,1.25c-1.78,2.11-1.05,4.35-3.49,4.74c-1.25,0.23-2.4,0.69-3.26,0.69
		c-0.56,0-0.99-0.2-1.25-0.76c-2.04-4.25-0.53-11.17,2.04-14.92c1.52-2.21,3.76-3.72,6.36-4.64c1.88-0.66,3.59-0.96,5.17-0.96
		c0.69,0,1.35,0.07,2.01,0.16c0.56,0.1,1.09,0.23,1.61,0.4c1.52,0.43,2.93,1.15,4.41,2.08h0.03c1.91,1.19,3.85,2.67,6.06,4.25
		C127.68,19.57,128.31,24.38,125.54,27.74z"/>
	<path d="M110.36,26.45c0.4,0.3,1.35,0.99,2.24,1.65c-0.89-0.72-1.71-1.35-2.47-1.88C110.19,26.29,110.26,26.35,110.36,26.45z"/>
	<path d="M131.11,21.58c-0.4-3.13-2.04-5.9-4.64-7.77l-0.99-0.76c-5.07-3.72-9.45-6.92-15.48-6.92c-2.11,0-4.25,0.4-6.52,1.19
		c-3.59,1.28-6.36,3.36-8.27,6.13c-3.26,4.81-5.07,13.14-2.37,18.84c0.89,1.91,2.7,3.03,4.84,3.03c1.02,0,1.94-0.23,2.77-0.46
		c0.36-0.1,0.76-0.2,1.15-0.26c3.72-0.66,4.78-3.49,5.27-4.84c0.1-0.33,0.2-0.56,0.3-0.79c0.66,0.43,1.58,1.15,2.31,1.71
		c0.72,0.53,1.48,1.12,2.31,1.71c2.11,1.52,4.61,2.31,7.25,2.31c3.76,0,7.25-1.61,9.59-4.45C130.62,27.77,131.51,24.71,131.11,21.58
		z M125.54,27.74c-2.77,3.36-7.91,3.99-11.46,1.42c-0.13-0.1-0.26-0.2-0.43-0.33c-0.26-0.16-0.49-0.33-0.72-0.49
		c-0.1-0.1-0.23-0.16-0.33-0.23c-0.89-0.66-1.84-1.35-2.24-1.65c-0.1-0.1-0.16-0.16-0.23-0.23v-0.03c-1.28-0.89-2.4-1.52-3.43-1.52
		c-0.79,0-1.52,0.36-2.27,1.25c-1.78,2.11-1.05,4.35-3.49,4.74c-1.25,0.23-2.4,0.69-3.26,0.69c-0.56,0-0.99-0.2-1.25-0.76
		c-2.04-4.25-0.53-11.17,2.04-14.92c1.52-2.21,3.76-3.72,6.36-4.64c1.88-0.66,3.59-0.96,5.17-0.96c0.69,0,1.35,0.07,2.01,0.16
		c0.56,0.1,1.09,0.23,1.61,0.4c1.52,0.43,2.93,1.15,4.41,2.08h0.03c1.91,1.19,3.85,2.67,6.06,4.25
		C127.68,19.57,128.31,24.38,125.54,27.74z"/>
	<path style="fill:#683100;" d="M125.54,27.74c-2.77,3.36-7.91,3.99-11.46,1.42c-0.13-0.1-0.26-0.2-0.43-0.33
		c-0.23-0.13-0.46-0.33-0.72-0.49c-0.1-0.1-0.23-0.16-0.33-0.23c-0.89-0.66-1.84-1.35-2.24-1.65c-0.1-0.1-0.16-0.16-0.23-0.23v-0.03
		c-0.33-0.66,0.96-1.45,1.98-1.84c0.59-0.26,1.22-0.26,1.84-0.16c-0.79-0.3-1.42-0.86-1.78-1.61c-0.72-1.58,0.07-3.39,1.71-4.05
		c0.79-0.33,1.61-0.3,2.34-0.07c-0.66-0.33-1.25-0.82-1.55-1.52c-0.72-1.55,0.56-3.33,2.24-4.02c0.13-0.07,0.79-0.23,1.12-0.2h0.03
		c1.91,1.19,3.85,2.67,6.06,4.25C127.68,19.57,128.31,24.38,125.54,27.74z"/>
</g>
<g>
	<path style="fill:#FFFFFF;" d="M58.42,15.15c3.18,0.4,6.13,1.58,8.46,3.82c3.99,3.84,6.99,8.53,5.95,14.22
		c-0.36,1.98-3.61,3.73-6.02,3.88c-2.86,0.18-2.68-1.91-5.28-3.98c-3.74-2.97-5.83,1.54-9.9,6.59c-3.27,4.09-9.22,4.75-13.29,1.45
		c-4.07-3.29-4.76-9.25-1.53-13.36C43.06,19.85,48.65,13.93,58.42,15.15z"/>
	<path d="M52.74,38.24c0.92-1.12,1.91-2.34,2.31-2.87c0.1-0.13,0.16-0.26,0.2-0.4C54.49,35.94,53.67,37.03,52.74,38.24z"/>
	<path d="M69.61,16.11c-2.8-2.7-6.42-4.35-10.71-4.88c-0.99-0.13-2.01-0.2-2.96-0.2c-10.15,0-16.31,6.75-22.24,14.3
		c-4.55,5.8-3.59,14.26,2.14,18.88c2.37,1.94,5.37,3,8.4,3c4.08,0,7.91-1.84,10.48-5.04c0.72-0.92,1.42-1.84,2.08-2.7
		c0.79-1.05,1.81-2.4,2.47-3.1c0.46,0.4,0.79,0.82,1.15,1.32c0.96,1.25,2.54,3.36,6.06,3.36c0.2,0,0.36,0,0.56-0.03
		c3.43-0.2,8.86-2.6,9.68-7.12C77.84,27.74,75.47,21.74,69.61,16.11z M72.84,33.2c-0.36,1.98-3.62,3.72-6.03,3.85
		c-0.13,0.03-0.23,0.03-0.33,0.03c-2.54,0-2.47-2.01-4.94-3.99c-0.86-0.66-1.58-0.96-2.31-0.96c-1.38,0-2.6,1.12-3.99,2.83
		c-0.03,0.13-0.1,0.26-0.2,0.4c-0.4,0.53-1.38,1.75-2.31,2.87c-0.4,0.56-0.82,1.05-1.12,1.45c-3.26,4.08-9.22,4.74-13.28,1.45
		c-4.08-3.29-4.78-9.26-1.55-13.37c0.07-0.1,0.16-0.2,0.26-0.36c1.91-2.37,3.76-4.58,5.67-6.42c3.76-3.62,7.81-6,13.21-6
		c0.79,0,1.61,0.07,2.47,0.16c3.2,0.4,6.16,1.58,8.47,3.82C70.86,22.83,73.86,27.51,72.84,33.2z"/>
	<path style="fill:#683100;" d="M55.25,34.98c-0.03,0.13-0.1,0.26-0.2,0.4c-0.4,0.53-1.38,1.75-2.31,2.87
		c-0.4,0.56-0.82,1.05-1.12,1.45c-3.26,4.08-9.22,4.74-13.28,1.45c-4.08-3.29-4.78-9.26-1.55-13.37c0.07-0.1,0.16-0.2,0.26-0.36
		c1.91-2.37,3.76-4.58,5.67-6.42c0.3-0.03,0.89-0.16,1.05-0.13c2.04,0.36,4.02,2.17,3.66,4.25c-0.16,0.92-0.66,1.68-1.32,2.24
		c0.76-0.49,1.68-0.72,2.64-0.56c2.08,0.36,3.46,2.31,3.1,4.41c-0.16,1.02-0.72,1.88-1.52,2.44c0.66-0.3,1.38-0.46,2.14-0.33
		C53.7,33.5,55.38,34.13,55.25,34.98z"/>
</g>
<g>
	<path d="M92.32,28.62c12.37,0,25.18,5.03,35.41,11.95c8.73,5.9,14.66,16.56,17.75,26.47c0.19,0.6,0.32,1.19,0.49,1.79
		c0.35,1.02,0.68,2.03,0.97,3.03c3.52,12.06,1.42,22.55-1.93,34.52c-0.73,2.6-5.94,15.28-6.03,15.9c-1.5,6.97,2.11,15.48,3.11,22.35
		c1.85,12.77,2.22,25.96-3.12,38.02c-7.27,16.44-24.2,22.28-41.01,23.41c-1.66,0.11-3.32,0.17-4.97,0.17c-0.36,0-0.73,0-1.09-0.01
		c-0.08,0-0.16-0.01-0.24-0.01l-4.11-0.06c-2.02-0.03-4.12-0.14-6.13-0.33c-13.82-1.33-29.05-6.7-37.69-18.19
		c-6.25-8.31-8.62-22.08-7.94-32.33c0.54-8,2.99-15.74,4.5-23.58c0.59-3.07,1.74-6.07,1.5-9.19c-0.05-0.66-0.15-1.3-0.24-1.95
		c-0.5-1.41-4.26-12-5.21-16.05c-2.8-9.22-3.55-18.89-2.14-28.66c1.49-10.28,5.67-21.74,13.36-28.94
		c9.88-9.26,23.19-16.76,36.63-17.8c0,0,0.1-0.01,0.24-0.02l4.32-0.34C89.93,28.67,91.12,28.62,92.32,28.62 M92.32,24.67
		c-1.31,0-2.62,0.05-3.89,0.16l-4.3,0.34l-0.33,0.03c-13,1-27.23,7.87-38.94,18.84c-7.39,6.92-12.7,18.31-14.57,31.26
		c-1.48,10.25-0.73,20.43,2.23,30.26c0.65,2.72,2.39,8.09,5.17,15.98c0.07,0.46,0.12,0.88,0.16,1.3c0.12,1.58-0.32,3.38-0.79,5.29
		c-0.23,0.95-0.47,1.9-0.65,2.86c-0.48,2.51-1.08,5.09-1.67,7.59c-1.24,5.3-2.52,10.79-2.9,16.47c-0.71,10.69,1.7,25.64,8.72,34.97
		c8.17,10.86,22.92,18.06,40.47,19.75c2.06,0.2,4.29,0.32,6.46,0.35l4.11,0.06l0.22,0.01l1.16,0.01c1.75,0,3.51-0.06,5.24-0.17
		c22.23-1.49,37.57-10.4,44.36-25.75c6.17-13.95,5.07-28.81,3.42-40.19c-0.35-2.38-0.97-4.89-1.57-7.33
		c-1.17-4.75-2.39-9.66-1.61-13.5c0.23-0.65,1.14-2.98,1.96-5.05c2.09-5.29,3.6-9.16,4.04-10.74c3.26-11.63,5.86-23.2,1.92-36.69
		c-0.3-1.02-0.63-2.06-0.99-3.09l-0.15-0.56c-0.11-0.41-0.22-0.82-0.35-1.24c-3.89-12.49-10.93-22.91-19.31-28.58
		C117.9,29.15,104.54,24.67,92.32,24.67L92.32,24.67z"/>
	<path style="fill:#009FF9;" d="M145.01,106.38c3.35-11.96,5.45-22.46,1.93-34.52c-0.29-1.01-0.62-2.02-0.97-3.03
		c-0.17-0.6-0.3-1.19-0.49-1.79c-3.09-9.92-9.02-20.57-17.75-26.48c-11.22-7.58-25.54-12.9-38.98-11.81l-4.32,0.34
		c-0.15,0.01-0.24,0.02-0.24,0.02c-13.44,1.03-26.75,8.54-36.63,17.8c-7.69,7.21-11.87,18.66-13.36,28.94
		c-1.41,9.78-0.66,19.44,2.14,28.66c0.95,4.05,4.71,14.64,5.21,16.05c0.1,0.65,0.19,1.3,0.24,1.95c0.24,3.12-0.91,6.12-1.5,9.19
		c-1.51,7.84-3.96,15.58-4.5,23.58c-0.69,10.25,1.69,24.02,7.94,32.33c8.64,11.49,23.87,16.86,37.69,18.19
		c2.01,0.19,4.11,0.3,6.13,0.33l4.11,0.06c0.08,0,0.16,0.01,0.24,0.01c2.02,0.03,4.04-0.02,6.06-0.16
		c16.81-1.13,33.74-6.97,41.01-23.41c5.33-12.06,4.97-25.25,3.12-38.02c-1-6.87-4.61-15.38-3.11-22.35
		C139.06,121.67,144.28,108.98,145.01,106.38z"/>
</g>
<path style="fill:#009FF8;" d="M88.75,28.76c0,0-0.1,0.01-0.24,0.02L88.75,28.76z"/>
<g>
	<path style="fill-rule:evenodd;clip-rule:evenodd;fill:#FFFFFF;" d="M153.25,109.07c-6.85,8.5-20.36,14.26-36.14,15.45
		c-39.1,2.87-59.39-8.73-62.03-35.51c-0.4-3.79-1.68-23.32,9.78-36.86c6.88-8.14,17.13-12.72,30.5-13.6
		c45.95-3.1,49.48,30.83,49.61,32.28c0.07,0.82,0.66,1.52,1.45,1.75c0.43,0.1,10.34,2.93,12.12,15.61
		C159.67,96.25,157.89,103.3,153.25,109.07z"/>
	<path d="M162.44,87.62c-1.75-12.58-10.34-17.16-13.67-18.45c-1.02-6.56-7.84-34.79-47.53-34.79c-1.94,0-3.99,0.07-6.13,0.2
		c-14.46,0.99-25.66,6.03-33.24,14.99C49.68,63.97,50.57,83.7,51.13,89.4c2.64,26.52,20.59,39.5,54.72,39.5
		c3.66,0,7.51-0.16,11.56-0.46c17.06-1.25,31.26-7.41,38.9-16.9C161.68,104.88,163.76,96.85,162.44,87.62z M55.08,89.01
		c-0.4-3.79-1.68-23.32,9.78-36.86c6.88-8.14,17.13-12.72,30.5-13.6c45.95-3.1,49.48,30.83,49.61,32.28
		c0.07,0.82,0.66,1.52,1.45,1.75c0.43,0.1,10.34,2.93,12.12,15.61c1.12,8.07-0.66,15.12-5.3,20.88
		c-6.85,8.5-20.36,14.26-36.14,15.45C78.01,127.38,57.72,115.79,55.08,89.01z"/>
	<path style="fill-rule:evenodd;clip-rule:evenodd;fill:#FFBEB8;" d="M112.75,92.64c0.19,8.07-5.86,14.77-13.52,14.95
		S85.2,101.38,85,93.3c-0.19-8.06,5.86-14.76,13.52-14.94S112.55,84.57,112.75,92.64"/>
	<path style="fill-rule:evenodd;clip-rule:evenodd;fill:#FFBEB8;" d="M157.8,86.25c-0.69-2.74-3.94-11.93-8.41-8.63
		c-6.03,4.45-3.24,15.77-0.25,21.39c1.18,2.21,3.3,4.8,6.27,4.24c1.68-0.31,2.3-3.49,2.52-4.58
		C158.76,94.6,158.82,90.31,157.8,86.25z"/>
</g>
<g>
	<path style="fill-rule:evenodd;clip-rule:evenodd;" d="M136.55,85.28c0.03,1.05-1.06,1.93-2.45,1.96
		c-1.39,0.03-2.53-0.79-2.55-1.84c-0.03-1.04,1.07-1.93,2.46-1.96C135.39,83.41,136.52,84.24,136.55,85.28"/>
	<path style="fill-rule:evenodd;clip-rule:evenodd;" d="M140.04,82.93L140.04,82.93c-1.44,0.03-2.64-1.35-2.68-3.09l-0.01-0.44
		c-0.04-1.74,1.09-3.19,2.53-3.22c1.44-0.03,2.64,1.35,2.69,3.09l0.01,0.44C142.61,81.45,141.48,82.89,140.04,82.93"/>
	<path style="fill-rule:evenodd;clip-rule:evenodd;" d="M117.72,83.47L117.72,83.47c-1.69,0.04-3.1-1.34-3.14-3.08l-0.01-0.44
		c-0.04-1.74,1.3-3.19,2.99-3.23s3.1,1.34,3.15,3.08l0.01,0.44C120.75,81.98,119.41,83.43,117.72,83.47"/>
	<path style="fill:#231815;" d="M145.28,89.29c-0.48-0.78-1.5-1.02-2.26-0.55c-0.78,0.47-1.02,1.49-0.55,2.26
		c0.06,0.1,0.19,0.31-0.37,0.98c-1.15,1.38-2.71,1.54-3.53,1.51c-1.56-0.05-3.05-0.8-3.89-1.95c-0.05-0.07-0.13-0.12-0.2-0.18
		c-0.07-0.07-0.12-0.15-0.21-0.21c-0.01-0.01-0.03-0.01-0.04-0.02c-0.11-0.07-0.23-0.11-0.35-0.15c-0.08-0.03-0.16-0.07-0.24-0.09
		c-0.11-0.02-0.23-0.01-0.34,0c-0.1,0-0.19-0.01-0.29,0.01c-0.09,0.02-0.18,0.07-0.27,0.1c-0.11,0.04-0.22,0.08-0.32,0.15
		c-0.01,0.01-0.03,0.01-0.04,0.02c-0.08,0.06-0.12,0.14-0.19,0.21c-0.07,0.07-0.15,0.12-0.2,0.2c-2.35,3.44-8.83,4.26-12.85,1.61
		c-0.93-0.61-1.47-1.15-1.69-1.44c0.3-0.64,0.17-1.42-0.38-1.92c-0.67-0.61-1.71-0.56-2.33,0.11c-0.53,0.58-0.77,1.32-0.67,2.09
		c0.16,1.28,1.26,2.6,3.26,3.91c2.19,1.44,4.82,2.12,7.41,2.12c3.28,0,6.44-1.15,8.62-3.19c1.4,1.15,3.2,1.84,5.1,1.91
		c0.09,0,0.18,0,0.27,0c2.32,0,4.46-0.97,5.89-2.7C146.43,91.94,145.81,90.16,145.28,89.29z"/>
</g>
<g>
	<path style="fill:#FFFFFF;" d="M47.34,161.93c1.19-7.19,4-13.66,6.9-20.63c1.28-3.08,6.15-14.2-1.11-14.23
		c-2.63-0.01-5.02,3.09-6.62,4.82c-3.5,3.78-6.39,8.03-8.63,12.56c-2.51,5.08-4.17,10.48-5.16,15.99
		C36.64,160.17,41.88,160.38,47.34,161.93z"/>
	<path style="fill:#0088C5;" d="M50,187.22c-0.03-0.09-0.06-0.17-0.1-0.26c-0.86-2.27-1.51-4.43-2.02-6.56
		c-0.72-3.05-1.1-6.05-1.18-9.22c-0.04-1.57,0-3.18,0.1-4.86c0.1-1.5,0.29-2.95,0.53-4.39c-5.46-1.55-10.7-1.75-14.62-1.49
		c-0.48,2.66-0.81,5.35-0.98,8.05c-0.48,7.69-0.49,16.55,2.32,23.91c1.37,3.58,4.63,6.47,8.73,6.98c0.85,0.11,1.7,0.13,2.44,0.07
		c2.73-0.22,5.39-1.55,6.36-4.04c0.19-0.5,0.27-0.99,0.31-1.48C52.08,191.63,50.79,189.37,50,187.22z"/>
	<path d="M53.12,127.07C53.13,127.07,53.13,127.07,53.12,127.07c7.26,0.02,2.4,11.14,1.12,14.23c-2.9,6.97-5.71,13.44-6.9,20.63
		c-0.24,1.43-0.44,2.89-0.53,4.39c-0.11,1.68-0.14,3.29-0.1,4.86c0.08,3.18,0.46,6.17,1.18,9.22c0.5,2.14,1.16,4.29,2.02,6.56
		c0.03,0.09,0.06,0.17,0.1,0.26c0.8,2.15,2.08,4.41,1.91,6.71c-0.04,0.49-0.12,0.99-0.31,1.48c-0.97,2.49-3.63,3.82-6.36,4.04
		c-0.28,0.02-0.57,0.03-0.87,0.03c-0.51,0-1.04-0.03-1.58-0.1c-4.1-0.51-7.37-3.4-8.73-6.98c-2.81-7.36-2.8-16.22-2.32-23.91
		c0.17-2.7,0.5-5.39,0.98-8.05c0.99-5.51,2.66-10.9,5.16-15.99c2.24-4.53,5.13-8.78,8.63-12.56
		C48.12,130.16,50.5,127.07,53.12,127.07 M53.13,123.12L53.13,123.12c-4.07,0-6.99,3.26-8.92,5.42l-0.6,0.67
		c-3.72,4.01-6.84,8.55-9.28,13.5c-2.56,5.18-4.41,10.92-5.51,17.03c-0.51,2.85-0.86,5.71-1.03,8.5c-0.47,7.53-0.6,17.25,2.58,25.57
		c1.98,5.18,6.55,8.82,11.94,9.49c0.69,0.09,1.39,0.13,2.07,0.13c0.41,0,0.81-0.02,1.19-0.05c4.58-0.38,8.3-2.89,9.72-6.56
		c0.31-0.8,0.49-1.66,0.56-2.62c0.2-2.71-0.8-5.09-1.59-7c-0.19-0.46-0.38-0.92-0.55-1.37l-0.1-0.28c-0.78-2.06-1.39-4.04-1.87-6.08
		c-0.65-2.77-1.01-5.52-1.08-8.41c-0.04-1.44,0-2.91,0.1-4.51c0.07-1.18,0.23-2.45,0.49-3.99c1.05-6.34,3.54-12.3,6.17-18.61
		l0.48-1.15l0.11-0.27c2.37-5.66,4.42-12.02,1.63-16.22c-0.79-1.19-2.69-3.2-6.49-3.21C53.14,123.12,53.14,123.12,53.13,123.12
		L53.13,123.12z"/>
</g>
</svg>
