<?xml version="1.0" encoding="utf-8"?>
<!-- Generator: Adobe Illustrator 24.3.0, SVG Export Plug-In . SVG Version: 6.00 Build 0)  -->
<!DOCTYPE svg PUBLIC "-//W3C//DTD SVG 1.1//EN" "http://www.w3.org/Graphics/SVG/1.1/DTD/svg11.dtd" [
	<!ENTITY ns_extend "http://ns.adobe.com/Extensibility/1.0/">
	<!ENTITY ns_ai "http://ns.adobe.com/AdobeIllustrator/10.0/">
	<!ENTITY ns_graphs "http://ns.adobe.com/Graphs/1.0/">
	<!ENTITY ns_vars "http://ns.adobe.com/Variables/1.0/">
	<!ENTITY ns_imrep "http://ns.adobe.com/ImageReplacement/1.0/">
	<!ENTITY ns_sfw "http://ns.adobe.com/SaveForWeb/1.0/">
	<!ENTITY ns_custom "http://ns.adobe.com/GenericCustomNamespace/1.0/">
	<!ENTITY ns_adobe_xpath "http://ns.adobe.com/XPath/1.0/">
]>
<svg version="1.1" id="레이어_5" xmlns:x="&ns_extend;" xmlns:i="&ns_ai;" xmlns:graph="&ns_graphs;"
	 xmlns="http://www.w3.org/2000/svg" xmlns:xlink="http://www.w3.org/1999/xlink" x="0px" y="0px" viewBox="0 0 220 280"
	 style="enable-background:new 0 0 220 280;" xml:space="preserve">
<style type="text/css">
	.st0{fill:#CB8A55;}
	.st1{fill:#F9C6A0;}
	.st2{fill:#683B11;}
	.st3{fill:#FDF8F5;}
	.st4{fill:#463F3D;}
	.st5{fill:#F62524;}
	.st6{fill-rule:evenodd;clip-rule:evenodd;fill:#CB8A55;}
	.st7{fill:#070707;}
	.st8{fill-rule:evenodd;clip-rule:evenodd;}
	.st9{fill:#9E5C30;}
	
		.st10{fill-rule:evenodd;clip-rule:evenodd;fill:#FCBF65;stroke:#000000;stroke-width:3;stroke-linecap:round;stroke-linejoin:round;stroke-miterlimit:10;}
	.st11{fill-rule:evenodd;clip-rule:evenodd;fill:#FCBF65;}
	.st12{fill:none;stroke:#000000;stroke-width:3;stroke-miterlimit:10;}
	.st13{fill:#777777;}
	.st14{fill:#FEF7F0;}
	.st15{fill:#A5A5A5;}
</style>
<metadata>
	<sfw  xmlns="&ns_sfw;">
		<slices></slices>
		<sliceSourceBounds  bottomLeftOrigin="true" height="256.2" width="16383" x="-8051" y="-268.6"></sliceSourceBounds>
	</sfw>
</metadata>
<g>
	<g>
		<path class="st0" d="M119.7,231.5c-2.1-3.8-6.3-6.1-10.9-6.1c1.3-3.1,2.4-6.2,3.3-9.3c3.1-10.9,3.6-21.9,2.2-33
			c-1.2-9.2-7.4-14.9-10.7-8.5c-2.2,4.4-0.9,14-1.7,18.9c-2.3,15.6-8.2,32.8-15.4,46.8c-1.9,3.7-1.9,5.9,2.7,6.5
			c8.2,1.1,16.4,1.6,24.6,0.6c1.2-0.2,2.9-0.2,3.9-0.8c3-2,3.6-6.8,3.4-10.1C121,234.7,120.5,233,119.7,231.5z"/>
		<path d="M104.3,249.6c-4.7,0-9.7-0.4-15.4-1.2c-2.5-0.3-4-1.2-4.7-2.6c-1-1.9-0.1-4.2,0.9-6.1c7.5-14.7,13.1-31.6,15.2-46.4
			c0.2-1.7,0.2-4,0.2-6.5c0-4.8,0-9.7,1.6-12.8c1.8-3.6,4.3-3.8,5.6-3.5c3.7,0.6,7.1,5.9,7.9,12.5c1.5,11.7,0.8,23.1-2.2,33.6
			c-0.7,2.6-1.6,5.1-2.5,7.5c4.3,0.6,8,3.1,10.1,6.7l0,0c1,1.7,1.5,3.7,1.6,5.7c0.1,2.5-0.1,8.7-4.1,11.4c-1.1,0.7-2.6,0.9-3.8,1
			c-0.3,0-0.5,0.1-0.7,0.1C110.9,249.4,107.7,249.6,104.3,249.6z M107,173.4c-0.8,0-1.5,0.7-2.2,2c-1.3,2.5-1.2,7.3-1.2,11.5
			c0,2.6,0,5.1-0.3,6.9c-2.2,15.1-7.9,32.4-15.5,47.3c-1.1,2.2-1.1,3-0.9,3.4c0.1,0.2,0.6,0.7,2.5,1c9.5,1.3,17.2,1.5,24.2,0.6
			c0.2,0,0.5-0.1,0.8-0.1c0.8-0.1,2-0.2,2.5-0.5c2.2-1.5,2.9-5.5,2.8-8.8c-0.1-1.6-0.5-3-1.2-4.3l0,0c-1.8-3.3-5.5-5.3-9.5-5.3
			c0,0-0.1,0-0.1,0c-0.5,0-1-0.3-1.2-0.7c-0.3-0.4-0.3-1-0.1-1.4c1.2-2.9,2.3-6,3.2-9.1c2.9-10.2,3.6-21.1,2.1-32.4
			c-0.7-5.7-3.4-9.5-5.4-9.9C107.2,173.4,107.1,173.4,107,173.4z"/>
	</g>
</g>
<g>
	<g>
		<path class="st0" d="M108.1,235.5c-1.8-3.4-7.2-6-11.1-6c1.3-3.1,2.4-6.2,3.3-9.3c3.1-10.9,3.6-21.9,2.2-33
			c-1.2-9.2-7.4-14.9-10.7-8.5c-2.2,4.4-0.9,14-1.7,18.9c-2.3,15.6-8.2,32.8-15.4,46.8c-1.9,3.7-1.9,5.9,2.7,6.5
			c8.2,1.1,16.4,1.6,24.6,0.6c1.2-0.2,2.9-0.2,3.9-0.8C110.6,247.5,110.5,239.9,108.1,235.5z"/>
		<path d="M92.6,253.6c-4.7,0-9.7-0.4-15.4-1.2c-2.5-0.3-4-1.2-4.7-2.6c-1-1.9-0.1-4.2,0.9-6.1c7.5-14.7,13.1-31.6,15.2-46.4
			c0.2-1.7,0.2-4,0.2-6.5c0-4.8,0-9.7,1.6-12.8c1.8-3.6,4.3-3.8,5.6-3.5c3.7,0.6,7.1,5.9,7.9,12.5c1.5,11.7,0.8,23.1-2.2,33.6
			c-0.7,2.6-1.6,5.1-2.6,7.6c3.9,0.7,8.4,3.2,10.2,6.6c2.9,5.3,2.5,13.7-2.6,17.1c-1.1,0.7-2.6,0.9-3.8,1c-0.3,0-0.5,0.1-0.7,0.1
			C99.2,253.4,96,253.6,92.6,253.6z M95.3,177.4c-0.8,0-1.5,0.7-2.2,2c-1.3,2.5-1.2,7.3-1.2,11.5c0,2.6,0,5.1-0.3,6.9
			c-2.2,15.1-7.9,32.4-15.5,47.3c-1.1,2.2-1.1,3-0.9,3.4c0.1,0.2,0.6,0.7,2.5,1c9.5,1.3,17.2,1.5,24.2,0.6c0.2,0,0.5-0.1,0.8-0.1
			c0.8-0.1,2-0.2,2.5-0.5c4-2.7,3.6-9.5,1.7-13.2l0,0c-1.6-3-6.4-5.2-9.7-5.2c0,0,0,0-0.1,0c-0.5,0-1-0.3-1.2-0.7
			c-0.3-0.4-0.3-1-0.1-1.4c1.2-2.9,2.3-6,3.2-9.1c2.9-10.2,3.6-21.1,2.1-32.4c-0.7-5.7-3.4-9.5-5.4-9.9
			C95.5,177.4,95.4,177.4,95.3,177.4z"/>
	</g>
</g>
<g>
	<path class="st14" d="M85.1,165.5l31.1,2.6l-1.2-40.9c0,0-1-3.6-3.5-3.6c-2.6,0-7.6-2.1-12.3,3.5C99.2,127.1,85.4,157.1,85.1,165.5
		z"/>
	<g>
		<g>
			<g>
				<g>
					<path class="st0" d="M111.3,132.9c2.2,2.9,2.4,4.3,4.1,6.4c0,0,1-0.2,1-0.3c-2.1-5-2.1-10.4-4.3-13.4c-3.1-4.2-7.7-1.4-9.8-1.8
						c-0.6-0.1-1.1,0.1-1.4,0.7c-0.1,0.4-0.3,0.7-0.4,1.1c-0.3,0.8-0.5,1.7-0.7,2.6C103.4,131.3,107.2,132.9,111.3,132.9z"/>
					<path d="M86.2,163.1c10.2,0.8,20.4,1.7,30.4,2.1c0.5,9.2,2,14.9,4.3,24.9c0.2,1-0.9,1.8-1.8,1.3c-1.1-0.7-0.9-0.6-2.9-2.8
						c-0.6-0.6-1.6,2.6-1.9,3.3l-0.6,1.2c-0.4,0.8-1.5,0.9-2,0.2l-3.4-4.8c-0.5-0.7-1.5-0.7-1.9,0l-3.2,4.8c-0.5,0.7-1.5,0.7-2,0
						l-3.7-5.7c-0.4-0.7-1.4-0.7-1.9-0.1l-2.9,7.4c-0.5,0.8-1.7,0.6-2-0.3l-2.8-5.8c-0.3-0.8-1.4-1-2-0.4c-0.5,0.6-1.1,4.3-1.7,5
						c-0.7,0.9-2.1,0.4-2.1-0.7c0.1-5.7,1.1-15.8,1.1-15.8C83.8,172.2,84.9,167.7,86.2,163.1z"/>
				</g>
				<g>
					<polygon class="st2" points="93.2,142.5 93.2,142.5 93.2,142.5 					"/>
				</g>
			</g>
			<g>
				<path class="st4" d="M115.7,145l-20-1.1c0.5-1.2,1-2.5,1.5-3.7l18.3,1C115.6,142.8,115.7,143.5,115.7,145z"/>
				<path class="st4" d="M115.8,149.3c0.1,1.5,0.2,2,0.3,3.5L93,151.5c0.2-0.7,0.4-1.4,0.7-2.1c0.2-0.5,0.4-1.1,0.6-1.7l21.6,1.1
					C115.8,149,115.8,149.2,115.8,149.3z"/>
			</g>
		</g>
		<path class="st5" d="M116.3,156.9c0,0-13.3,1.3-28.9-1.6l-4,15c0,0,11.8,2.7,34.2,1.4L116.3,156.9z"/>
		<path d="M107.3,150.3c0.1-0.5,0.2-1.1,0.3-1.6c1.3-7.9,3-15.2,3-23.3l0-0.7l-2.2-2.2c-5.4-2-10,1.5-11.2,5.2
			c-3,9.1-5.6,18.2-9.4,27c-0.4,0.9-1.4,2.4-0.6,3.3c0.2,0.2,0.4,0.4,0.7,0.4c6,1.8,13,3.8,17.4-2
			C106.4,154.7,106.9,152.5,107.3,150.3z"/>
		<path d="M91.7,197.4c-0.1,0-0.2,0-0.3,0c-0.8-0.1-1.4-0.6-1.7-1.3l-2.8-6c-0.2,0.5-0.5,1.3-0.7,1.9c-0.6,1.7-1,2.8-1.5,3.5
			c-0.6,0.8-1.6,1.1-2.5,0.8c-0.9-0.3-1.5-1.2-1.5-2.1c0-6.9,0.9-18,2.5-24.9c2.7-11.7,6.2-22.4,10.4-31.8c1.5-3.4,4.4-9.6,7.1-13.2
			c1.4-1.8,3.5-2.7,6.4-2.8c2.6,0,6.5,0,8.1,3.2c0.9,1.9,1.1,4,1.2,5.9l0,0.5c0.6,8.9,0.9,16.5,1,25.4l0,0c0.1,3.9,0.2,7.1,0.5,9.9
			c0.8,7.4,2.6,14.9,4.3,22.1l0.5,2.3c0.2,0.9-0.1,1.8-0.9,2.3c-0.7,0.5-1.7,0.6-2.4,0.1l-0.6-0.3c-1.3-0.8-1.4-0.9-2.4-1.9
			c-0.2-0.2-0.4-0.4-0.7-0.7l-0.9,3.8c0,0.1-0.1,0.2-0.1,0.3c-0.3,0.7-1,1.2-1.8,1.2c-0.8,0.1-1.5-0.3-2-0.9l-3.6-5l-3.4,5
			c-0.4,0.6-1.1,1-1.9,1c-0.7,0-1.4-0.4-1.8-1l-3.6-5.6l-3.2,7.1c0,0.1-0.1,0.2-0.2,0.3C93.1,197.1,92.4,197.4,91.7,197.4z
			 M92.4,194.9C92.4,194.9,92.4,194.9,92.4,194.9C92.4,194.9,92.4,194.9,92.4,194.9z M89.3,188.3l2.3,5l3-6.9c0-0.1,0.1-0.2,0.2-0.3
			c0.4-0.6,1.1-0.9,1.8-0.9c0.7,0,1.4,0.4,1.8,1l3.7,5.8l3.3-4.9c0.4-0.6,1.1-1,1.8-1c0.7,0,1.4,0.3,1.8,0.9l3.2,4.5l0.8-3.5
			c0-0.1,0.1-0.2,0.1-0.3c0.3-0.6,0.9-1.1,1.6-1.2c0.7-0.1,1.4,0.1,1.9,0.7c0.8,0.9,1.3,1.4,1.7,1.8c0.3,0.3,0.5,0.6,0.7,0.7
			l-0.1-0.4c-1.7-7.3-3.5-14.9-4.3-22.5c-0.3-3-0.5-6.2-0.5-10.2l0,0c-0.1-8.9-0.4-16.4-1-25.3l0-0.5c-0.1-1.7-0.2-3.4-0.9-4.8
			c-0.7-1.5-3.4-1.5-5.3-1.5c-2,0-3.3,0.5-4,1.6c-1.9,2.5-4.3,6.9-6.8,12.6c-4.1,9.2-7.6,19.8-10.2,31.3c-1.2,5.3-2,13.3-2.3,19.7
			c0.4-1,0.7-1.7,1-2.1c0.6-0.7,1.5-1,2.5-0.9C88.3,186.9,89,187.5,89.3,188.3z M121,190.7L121,190.7C121,190.7,121,190.7,121,190.7
			z"/>
	</g>
</g>
<g>
	<g>
		<g>
			<path class="st0" d="M145.6,116.6c-1.6,0.6-3.3,1.2-4.9,1.9c-2.5,1-5,2-7.4,3c-1.9,0.7-3.7,1.4-5.6,2c-1.2,0.4-2.6,0.8-3.9,0.5
				c-1.1-0.3-1.7-1.2-2-2.2c-1.1-4.1,3.1-6.3,6.1-8.1c3.8-2.3,7.5-4.1,11.9-5.9c8.7-3.6,15.8-7.3,27-10.6c0.9-0.3,2.1-0.5,2.9-0.9
				c0.6-0.3,1.1-0.8,1.6-1.2c0.6-0.4,1.1-0.8,1.8-1.1c1.2-0.7,2.5-1.2,3.8-1.5c2.1-0.5,4.2-0.3,6.3,0.2c4.3,1.2,5.8,5.2,4.6,9.4
				c-1.3,4.8-7,6.6-11.5,6.5c-1.1,0-2,0-3-0.3c-1.8-0.5-4.2,0.5-6.1,1.2C159.8,111.8,152.6,114,145.6,116.6z"/>
			<path class="st7" d="M124.7,125.6c-0.5,0-0.9,0-1.4-0.2c-1.5-0.4-2.6-1.6-3.1-3.3c-1.3-4.9,3.2-7.6,6.2-9.4l0.6-0.4
				c3.5-2.1,7.1-3.9,12.1-6c2.3-0.9,4.4-1.9,6.6-2.8c6-2.7,12.2-5.4,20.6-7.8c0.3-0.1,0.6-0.2,0.9-0.2c0.6-0.1,1.3-0.3,1.7-0.5
				c0.2-0.1,0.5-0.3,0.8-0.6c0.2-0.2,0.4-0.3,0.6-0.5c0.6-0.5,1.3-0.9,1.9-1.3c1.3-0.7,2.7-1.3,4.2-1.6c2.2-0.5,4.6-0.5,7,0.3
				c4.9,1.4,7.1,5.9,5.6,11.3c-1.5,5.5-7.7,7.8-13,7.6l-0.3,0c-1.1,0-2-0.1-3.1-0.4c-1.1-0.3-2.8,0.3-4.3,0.8
				c-0.3,0.1-0.6,0.2-1,0.3c-1.9,0.6-3.9,1.3-5.8,1.9c-5.1,1.7-10.4,3.4-15.5,5.3l0,0c-1.7,0.6-3.3,1.2-4.8,1.9
				c-0.9,0.4-1.8,0.7-2.7,1.1c-1.6,0.6-3.2,1.3-4.8,1.9c-2.1,0.8-4,1.5-5.7,2.1C127.2,125.2,126,125.6,124.7,125.6z M179.3,93.6
				c-0.8,0-1.5,0.1-2.2,0.3c-1.2,0.3-2.4,0.8-3.5,1.3c-0.6,0.3-1.1,0.6-1.6,1c-0.2,0.1-0.3,0.2-0.4,0.4c-0.4,0.3-0.8,0.7-1.4,1
				c-0.7,0.4-1.6,0.6-2.3,0.7c-0.3,0.1-0.6,0.1-0.8,0.2c-8.1,2.4-14,5-20.2,7.7c-2.1,0.9-4.3,1.9-6.6,2.9c-4.9,2-8.4,3.8-11.7,5.8
				l-0.6,0.4c-3.3,2-5.5,3.6-4.8,6.1c0.3,1,0.8,1.1,0.9,1.2c0.9,0.2,2.2-0.2,3-0.5c1.7-0.5,3.5-1.2,5.6-2c1.6-0.6,3.2-1.3,4.8-1.9
				c0.9-0.4,1.8-0.7,2.7-1.1c1.6-0.6,3.2-1.2,4.9-1.9l0,0c5.2-1.9,10.5-3.6,15.6-5.3c1.9-0.6,3.8-1.3,5.8-1.9
				c0.3-0.1,0.6-0.2,0.9-0.3c1.8-0.6,4.1-1.4,6.1-0.9c0.8,0.2,1.4,0.2,2.4,0.3l0.3,0c4.1,0.1,9-1.5,10.1-5.4
				c0.8-2.9,0.3-6.5-3.6-7.6C181.5,93.7,180.4,93.6,179.3,93.6z M145.6,116.6L145.6,116.6L145.6,116.6z"/>
		</g>
	</g>
	<g>
		<path class="st3" d="M144.8,118.7c0.1,0.4,0.2,0.8-0.1,0.9c-7,2-9.7,2.5-16.7,5.3c-5.3,2.1-7-2.1-7-2.1c-2.5-4.4,1.9-6.7,1.9-6.7
			c6.7-4.5,10-6.7,16.9-9.7c0.4-0.2,0.9,0.4,0.7,0.8l2.4,5.8C142.8,112.9,144,116.5,144.8,118.7z"/>
		<path class="st4" d="M135.6,108c0,0,3.7,7.9,4.7,12.2l-3.3-0.1c0,0-3.4-9.4-4.9-10.7L135.6,108z"/>
		<path class="st4" d="M130,111.5c0,0,3.2,6.6,4.6,10.2l-2.5,1c0,0-3.5-8.4-4.5-9.2C126.5,112.7,130,111.5,130,111.5z"/>
		<path d="M125.2,126.3c-3.1,0-5-2.1-5.6-3.6c-0.9-1.6-1.2-3.2-0.7-4.8c0.7-2.3,2.7-3.6,3.2-3.8c6.7-4.5,10-6.7,17-9.8
			c0.8-0.3,1.7-0.2,2.3,0.5c0.4,0.4,0.6,1,0.6,1.5l2.3,5.5c0,0,1.1,3.6,1.9,5.7c0.3,0.7,0.3,1.4,0,1.9c-0.2,0.5-0.6,0.8-1.1,0.9
			c-1.4,0.4-2.6,0.7-3.6,1c-4.6,1.3-7.3,2-12.9,4.2C127.3,126.1,126.2,126.3,125.2,126.3z M139.3,107.6c-6.1,2.8-9.3,4.9-15.6,9.1
			l-0.2,0.1c0,0-1.4,0.8-1.8,2.1c-0.2,0.7-0.1,1.6,0.5,2.5l0.1,0.2c0.2,0.5,1.4,2.7,5.1,1.3c5.7-2.2,8.5-3,13.2-4.3
			c0.8-0.2,1.6-0.4,2.5-0.7c-0.7-2-1.5-4.6-1.7-5.1L139.3,107.6z"/>
	</g>
</g>
<g>
	<g>
		<g>
			<path class="st6" d="M145.4,118.6c-7,7.2-14.2,7.2-26.4,7.9c-30.2,1.5-41.4-8.3-42.9-30.4c-0.2-3.1-0.8-19.2,8.4-30.1
				c5.5-6.6,13.7-8.2,23.8-10.6c48-11.4,37.2,35.5,37.2,36.7c0.1,1.8,1.7,3,2.7,4.4C152.5,102.5,150.1,113.7,145.4,118.6z"/>
			<path class="st7" d="M113.2,128.1c-25.6,0-37.2-9.8-38.6-32C74.4,93,73.7,76.4,83.3,65c5.5-6.6,13.6-8.5,22.9-10.7l1.7-0.4
				c14.5-3.4,25.3-2,32.1,4.3c4.9,4.5,10.1,14,7.1,33.2c0,0.3-0.1,0.5-0.1,0.6c0.1,0.8,0.7,1.5,1.4,2.3c0.4,0.4,0.7,0.8,1,1.3
				c4.7,6.7,2.2,18.7-3,24l0,0c-7.1,7.3-14.5,7.7-25.7,8.2L119,128C117,128.1,115.1,128.1,113.2,128.1z M121.8,55.1
				c-3.9,0-8.3,0.6-13.2,1.7l-1.7,0.4c-9.2,2.2-16.5,3.9-21.3,9.7c-9,10.8-8.1,27.2-8,29.1c1.4,22.3,13,30.5,41.3,29l1.8-0.1
				c10.9-0.6,17.4-0.9,23.7-7.3c4.3-4.5,6.4-14.9,2.7-20.2c-0.2-0.3-0.5-0.7-0.8-1c-0.9-1-2-2.3-2.1-4.2c0-0.2,0-0.4,0.1-1.2
				c2.8-17.9-1.8-26.4-6.2-30.5C134.1,56.9,128.7,55.1,121.8,55.1z M145.4,118.6L145.4,118.6L145.4,118.6z"/>
		</g>
		<g>
			<g>
				<path class="st8" d="M141.6,97.8L141.6,97.8c-1,0-1.7-1.2-1.6-2.6l0-0.4c0-1.4,0.8-2.6,1.8-2.6s1.7,1.2,1.7,2.7l0,0.4
					C143.4,96.7,142.6,97.8,141.6,97.8"/>
				<path class="st8" d="M133.6,97.4L133.6,97.4c-1,0-1.7-1.2-1.6-2.6l0-0.4c0-1.4,0.8-2.6,1.8-2.6c1,0,1.7,1.2,1.7,2.7l0,0.4
					C135.3,96.3,134.5,97.4,133.6,97.4"/>
			</g>
		</g>
		<path class="st9" d="M144.3,100.7c-0.3,0-0.6-0.1-0.8-0.4c-1.5-1.7-3.5-2-5.6-0.7c-0.5,0.3-1.1,0.1-1.4-0.3
			c-0.3-0.5-0.1-1.1,0.3-1.4c2.9-1.8,6.1-1.4,8.2,1.2c0.4,0.4,0.3,1.1-0.1,1.4C144.7,100.6,144.5,100.7,144.3,100.7z"/>
		<path d="M142,114.8c-0.4,0-0.9-0.3-1-0.7c-1.3-5-8.4-7.8-14.5-8c-0.6,0-1-0.5-1-1c0-0.5,0.5-1,1-1c0,0,0,0,0,0
			c5.6,0.1,14.6,2.7,16.4,9.4c0.1,0.5-0.2,1.1-0.7,1.2C142.2,114.8,142.1,114.8,142,114.8z"/>
	</g>
	<g>
		<path class="st11" d="M75.5,108c0,0-6.4-8.8-5.1-22.8c0.7-8.4,3.6-15.4,9.9-21c7.9-7,15.7-5.6,22.8-7.3c6.2-1.5,9.8-6.6,15.3-9.7
			c1-0.6,2.2-1.1,3.2-0.6c1.1,0.6,3,1.7,2.3,4.3c-0.3,1.2-1.6,1.8-2.6,2.4c17.6-0.9,28.2,12.9,28.2,12.9c5.2,8.6-0.2,11.1-0.2,11.1
			c-2.1,0.9-4.7-0.6-6.4-1.7c-1-0.7-2-1.5-2.8-2.4c-0.4-0.4-2.4-2.6-2.3-3C133,85.2,123,71.7,123,71.7c-4.6,13.7-14.4,6.7-14.4,6.7
			s-4.8,14.3-4.9,18.4c0,0-4.2-5.6-10.5-2.8c-3.2,1.5-5,5.1-4.1,8.6c1.1,4.6,3.5,5.8,7.5,7.7c0.3,3.1-0.2,6.8-3.2,8.5
			C93.3,118.8,83.2,119.9,75.5,108z"/>
		<path d="M92.6,120.3c-2.7,0-11.5-0.9-18.4-11.5c-0.5-0.7-6.6-9.7-5.4-23.8c0.8-9.3,4.2-16.5,10.4-22c6.1-5.4,12.3-6.1,17.7-6.7
			c2-0.2,3.9-0.4,5.8-0.9c3.5-0.8,6.2-3,9-5.3c1.8-1.5,3.7-3,5.9-4.2c0.8-0.5,2.8-1.6,4.6-0.6c3.5,1.8,3.6,4.3,3,6.1
			c-0.1,0.2-0.1,0.4-0.2,0.5c15.8,1.1,25.1,12.9,25.5,13.4c0,0,0.1,0.1,0.1,0.1c2.3,3.7,3,6.9,2.1,9.6c-0.9,2.7-3,3.6-3.1,3.7
			c-2.7,1.2-5.7-0.5-7.8-1.9c-1.3-0.9-2.3-1.7-3.1-2.6l-0.1-0.1c-0.3-0.3-0.5-0.5-0.7-0.8c-1.4,3.1-3.3,4.9-5.6,5.3
			c-3.6,0.6-6.9-2.1-8.9-4.2c-1.6,3.6-3.9,5.8-6.6,6.7c-2.9,0.9-5.7,0.1-7.4-0.7c-1.5,4.7-4.2,13.5-4.3,16.3c0,0.6-0.4,1.2-1,1.4
			c-0.6,0.2-1.3,0-1.7-0.5c-0.1-0.2-3.6-4.6-8.7-2.3c-2.6,1.2-4,4.1-3.3,6.9c1,3.9,2.8,4.9,6.6,6.7c0.5,0.2,0.8,0.7,0.9,1.2
			c0.4,4.8-1,8.3-3.9,10c-0.2,0.1-0.4,0.2-0.6,0.2C93.4,120.3,93.1,120.3,92.6,120.3z M120.6,47.9c-0.3,0-0.7,0.1-1.5,0.6
			c-2,1.1-3.8,2.6-5.5,4c-3,2.4-6,4.9-10.2,5.9c-2,0.5-4.1,0.7-6.1,0.9c-5.2,0.6-10.6,1.2-16,6c-5.6,5-8.7,11.5-9.4,20
			c-1.2,13.2,4.8,21.7,4.9,21.8c0,0,0,0,0,0.1c6.4,9.9,14.4,10.2,16.1,10.1c1.9-1.3,2.3-3.8,2.2-6.1c-3.8-1.8-6.3-3.5-7.5-8.3
			c-1-4.2,1-8.6,5-10.3c4.1-1.9,7.7-0.6,10.1,1.1c1.1-5.6,4.2-14.6,4.6-15.8c0.2-0.5,0.5-0.8,1-0.9c0.5-0.1,0.9-0.1,1.3,0.2
			c0,0,3.3,2.3,6.5,1.2c2.4-0.8,4.3-3.2,5.6-7.2c0.2-0.5,0.6-0.9,1.2-1c0.5-0.1,1.1,0.1,1.4,0.6c1.2,1.6,4.8,5.5,7.7,5
			c2.2-0.4,3.5-3.4,4.3-5.9c0,0,0,0,0,0c0.2-0.8,1.1-1.2,1.9-1c0.5,0.2,0.9,0.6,1,1.1c0.1,0.2,0.6,0.8,1.9,2.2l0.1,0.1
			c0.7,0.7,1.5,1.4,2.6,2.1c2.3,1.5,3.9,2.1,4.9,1.6c0,0,1-0.5,1.5-1.9c0.5-1.7-0.1-4.1-1.8-6.9c-0.8-0.9-10.8-13-26.9-12.2
			c-0.7,0-1.3-0.4-1.5-1c-0.2-0.6,0.1-1.4,0.6-1.7c0.2-0.1,0.3-0.2,0.5-0.3c0.6-0.4,1.4-0.8,1.5-1.3c0.3-1,0.1-1.7-1.5-2.6
			C120.8,47.9,120.7,47.9,120.6,47.9z"/>
	</g>
	<g>
		<g>
			<path class="st5" d="M58.5,62.1c0.1,0,0.3-0.1,0.4-0.1c3.8-1.3,6.8-2.6,10.1-5.6c7-6.3,12.6-17.3,19.1-24.4
				c6.1-6.6,12.7-10.6,20.5-10.9c12.9-0.4,24.1,9.5,33.3,22.2c2.6,3.7,5,6.8,8.5,9c3.9,2.4,3.6-0.8,7.5,1.5c1.5,0.8,2.8,1.9,3.6,3.6
				c0.5-1.7,1-3.9,0.9-5.7c-0.1-3.2-2.1-4.9-4.2-6.1c-4-2.2-3.6,1.9-7.5-0.5c-3.5-2.2-6-6.3-8.7-9.9c-9.3-12.7-21.8-22.3-34.8-21.9
				c-7.9,0.3-15.6,4.1-21.8,10.7c-6.6,7-10.2,18-17.3,24.3c-3.3,2.9-6.7,3.3-10.6,4.6c-0.1,0-0.3,0.1-0.4,0.1
				c-2.7,0.9-5.4,3.4-6.1,7.1c-0.5,2.5,0.3,5.1,1.4,7.4C53.3,64.3,56,63,58.5,62.1z"/>
			<path d="M143,72.9c-3.1,0.5-1.6-6.2-2.6-9.1c-2.6-7.7-11.5-1-17.8-2.1c-6.7-1.2-12.8-1.1-19.5,3.4c-6.8,4.5-11,8.2-15.4,17.7
				c-0.7,1.6-1.8,3-2.8,4.3c-1.3,1.8-3.3,2-5.1,1.8c-9.3-0.6-21.3-9.5-27-20.1c-0.2-0.4-0.4-0.8-0.6-1.3c-0.2-0.4,0.9-2.2,1.1-2.5
				c0.5-0.8,1-1.4,1.6-1.9c1.3-1.1,2.8-1.7,4.3-2.2c3.3-1.2,6.8-1.9,9.7-4.5c7-6.3,12.6-17.3,19.1-24.3c6.1-6.6,13.8-10.8,21.5-11.4
				c15.4-1.3,24.1,9.5,33.3,22.2c2.6,3.7,4.5,6.4,7.9,8.6c3.9,2.4,5.7-2.8,9.8,2.3c1.1,1.3-0.3,2.1,0.4,3.8c0,0.1-0.8,2.1-0.9,2.2
				c-6.1,9.2-2.2,5-9,10.9C151.2,70.6,144.6,72.6,143,72.9z"/>
		</g>
		<path d="M80.3,90.4c-0.3,0-0.5,0-0.5,0C70.2,89.7,57.5,80.1,51.5,69c-0.2-0.4-0.4-0.9-0.7-1.3c-1.1-2.4-2-7.3-1.4-10.2
			c0.9-4.6,6.5-6.6,9.3-7.5l0.4-0.1c3.7-1.2,6.6-2.5,9.7-5.3c3.7-3.3,6-6.9,8.4-10.6c2-3.2,4.1-6.5,7.2-9.8
			c6.3-6.7,15.1-11.1,23.5-11.7c17-1.3,26.5,9.7,35.5,22c0.5,0.6,0.9,1.3,1.4,1.9c2.1,2.9,4.2,6,6.9,7.6c0.2,0.1,0.2,0.1,0.3,0.2
			c0.3,0.2,1.5,0.8,4.8,0.2c1-0.3,3-0.3,4.5,1.1c2,1.9,2.4,5.6,1.1,11.2c-0.2,0.6-3.4,11.9-12.1,18.4c-0.7,0.5-1.6,0.4-2.1-0.3
			c-0.5-0.7-0.4-1.6,0.3-2.1c7.8-5.9,10.9-16.7,11-16.8c1.3-6,0.3-7.8-0.3-8.3c-0.7-0.6-1.6-0.4-1.7-0.4c0,0-0.1,0-0.1,0
			c-4.7,0.9-6.8-0.3-7.4-0.9c-3.1-2-5.4-5.2-7.6-8.3c-0.5-0.6-0.9-1.3-1.4-1.9c-8.8-12.1-17.4-22-32.8-20.8
			c-7.7,0.6-15.7,4.6-21.6,10.8c-2.9,3.1-4.9,6.3-6.9,9.3c-2.4,3.8-4.9,7.7-8.9,11.2c-3.5,3.1-6.7,4.6-10.8,5.9l-0.4,0.1
			c-2.2,0.7-6.7,2.3-7.3,5.2c-0.4,2,0.2,6.2,1.2,8.3c0.2,0.4,0.4,0.8,0.6,1.2C59.7,77.9,71.3,86.8,80,87.4c0.3,0,6.8,0.5,9.8-12
			c0.2-0.8,1-1.3,1.8-1.1c0.8,0.2,1.3,1,1.1,1.8C89.5,89.4,82.3,90.4,80.3,90.4z M152,44.3L152,44.3L152,44.3z"/>
		<path class="st5" d="M80.9,59.2c-0.9,0-1.8-0.2-2.6-0.1c-0.7,0.1-1.5,0.3-1.8,1.1c-0.2,0.6,0.1,1.3,0.5,1.7
			c0.4,0.5,0.9,0.7,1.5,0.9c0.4,0.2,0.9,0.4,1.1,0.8c0.1,0.2,0.1,0.5,0.1,0.7c0,1-0.1,2.1,0.5,2.9c0.6,0.8,1.7,0.8,2.5,0.3
			c0.8-0.5,1.2-1.4,1.5-2.4s0.6-1.9,1.1-2.7c0.4-0.7,1-1.2,1.6-1.8c1.2-1.1,2.5-2.1,3.7-3.1c2.3-1.8,4.6-3.6,7.3-4.4
			c1.2-0.3,2.5-0.4,3.7-0.9c0.5-0.2,0.9-0.5,1.2-1c0.3-0.5,0.3-1.1,0-1.6c-0.5-0.7-1.7-0.4-2.2-1.1c-0.1-0.2-0.2-0.4-0.3-0.6
			c-0.2-0.8,0.1-1.6,0.1-2.5c0-0.8-0.3-1.8-1-2c-0.6-0.2-1.2,0.4-1.6,0.9c-0.6,0.9-1.1,1.9-1.4,3c-0.2,0.9-0.4,1.8-0.7,2.6
			c-0.6,1.6-1.9,2.8-3.2,3.8c-1.7,1.3-3.5,2.4-5.3,3.4C85.2,58.4,83.2,59.2,80.9,59.2z"/>
		<path class="st5" d="M81.8,44.1c-1.8,1.9-3.5,4.3-3.3,7.1c0.1,0.8,0.3,1.6,0.8,2.2c0.7,0.8,1.7,1,2.7,0.8c0.9-0.2,1.8-0.7,2.6-1.2
			c0.8,1.1,0.3,2.7,0.8,4c0.4,1.2,1.6,2,2.8,2c1.2,0.1,2.3-0.4,3.3-1c1.3-0.7,2.5-1.7,3.5-2.8c0.8-0.8,1.6-1.9,1.6-3.1
			c0.1-2.2-1.9-3.8-3.6-4.9c1.3-1.1,2.2-2.9,2-4.8C94,33.5,84.4,41.5,81.8,44.1z"/>
		<path d="M87,45.1c-0.1,1.2,0.6,2.4,1.6,2.8c1,0.4,2.2-0.2,2.6-1.3c0.3-0.7,0.2-1.5,0-2.3c0-0.2-0.1-0.4-0.2-0.6
			C89.9,41.9,87.2,43.4,87,45.1z"/>
		<path d="M86.3,48.3c0.3,0.8-0.2,1.6-0.8,2c-0.6,0.4-1.4,0.4-2.1,0.1c-0.4-0.2-0.7-0.5-0.9-0.9c-0.2-0.7,0.1-1.4,0.4-1.9
			c0.4-0.6,1-1.2,1.7-1.1C84.7,46.5,85.7,46.5,86.3,48.3z"/>
		<path d="M88.7,56.2c-1,0-2-0.5-2.4-1.4c-0.3-0.5-0.1-1.1,0.4-1.4c0.5-0.3,1.1-0.1,1.4,0.4c0.1,0.3,0.4,0.4,0.7,0.4
			c0.3,0,0.7-0.1,1.2-0.5c0.7-0.4,1.1-0.8,1.4-1.3c0.3-0.5,0.3-1.2,0.1-1.6c-0.3-0.5-0.1-1.1,0.4-1.4c0.5-0.3,1.1-0.1,1.4,0.4
			c0.5,1,0.5,2.3-0.1,3.5c-0.4,0.8-1.1,1.5-2.1,2.1C90.4,55.8,89.6,56.2,88.7,56.2C88.7,56.2,88.7,56.2,88.7,56.2z"/>
	</g>
	<g>
		<path class="st11" d="M108.1,77.9c0,0,9.7,7,14.4-6.7c0,0,10.1,13.5,14.6-1.4c-0.1,0.4,2,2.6,2.3,3c0.8,0.9,1.8,1.7,2.8,2.4
			c1.7,1.1,4.3,2.7,6.4,1.7c0,0,5.4-2.5,0.2-11.1c0,0-10.5-13.8-28.2-12.9c1-0.6,2.3-1.3,2.6-2.4c0.8-2.6-1.2-3.8-2.3-4.3
			c-1-0.5-2.2,0-3.2,0.6c-5.5,3.1-7.9,8.6-14.3,11.2c0,0-9,4.6-12.7,19.5"/>
		<path d="M113.7,81.2c-3.5,0-6.3-2-6.4-2.1c-0.7-0.5-0.8-1.4-0.3-2.1c0.5-0.7,1.4-0.8,2.1-0.3c0,0,3.3,2.3,6.5,1.2
			c2.4-0.8,4.3-3.2,5.6-7.2c0.2-0.5,0.6-0.9,1.2-1c0.5-0.1,1.1,0.1,1.4,0.6c1.2,1.6,4.8,5.5,7.7,5c2.2-0.4,3.5-3.4,4.3-5.9
			c0,0,0,0,0,0c0.2-0.8,1.1-1.2,1.9-1c0.5,0.2,0.9,0.6,1,1.1c0.1,0.2,0.6,0.8,1.9,2.2l0.1,0.1c0.7,0.7,1.5,1.4,2.6,2.1
			c2.3,1.5,3.9,2.1,4.9,1.6c0,0,1-0.5,1.5-1.9c0.5-1.7-0.1-4.1-1.8-6.9c-0.8-0.9-10.8-13-26.9-12.2c-0.7,0-1.3-0.4-1.5-1
			c-0.2-0.6,0.1-1.4,0.6-1.7c0.2-0.1,0.3-0.2,0.5-0.3c0.6-0.4,1.4-0.8,1.5-1.3c0.3-1,0.1-1.7-1.5-2.6c-0.2-0.1-0.6-0.1-1.7,0.6
			c-2.2,1.3-3.9,3-5.7,4.8c-2.4,2.4-4.8,4.9-8.6,6.4c-0.6,0.4-8.6,5-11.9,18.5c-0.2,0.8-1,1.3-1.8,1.1c-0.8-0.2-1.3-1-1.1-1.8
			c3.8-15.4,13.1-20.3,13.5-20.5c0,0,0.1,0,0.1-0.1c3.3-1.3,5.4-3.5,7.7-5.8c1.9-1.9,3.8-3.8,6.4-5.3c0.8-0.5,2.8-1.6,4.6-0.6
			c3.5,1.8,3.6,4.3,3,6.1c-0.1,0.2-0.1,0.4-0.2,0.5c15.8,1.1,25.1,12.9,25.5,13.4c0,0,0.1,0.1,0.1,0.1c2.2,3.7,3,6.9,2.1,9.5
			c-0.8,2.6-2.8,3.6-3.1,3.7c-2.7,1.2-5.8-0.5-7.8-1.9c-1.3-0.9-2.3-1.7-3.1-2.6l-0.1-0.1c-0.3-0.3-0.5-0.5-0.7-0.8
			c-1.4,3.1-3.3,4.9-5.6,5.3c-3.5,0.6-6.9-2.1-8.9-4.2c-1.6,3.6-3.9,5.8-6.6,6.7C115.4,81.1,114.5,81.2,113.7,81.2z M138.5,70.3
			L138.5,70.3L138.5,70.3z"/>
	</g>
</g>
<g>
	<g>
		<g>
			<path class="st0" d="M103.8,121c2.9-0.4,6.5,2.1,6.1,5.5c-0.2,2-1.8,3.6-3.7,4c-5.3,1.2-13,2.6-18.5,3.7c-0.6,0.1-0.8,1-0.2,1.3
				c2.5,1.4,10.5,3.7,10.5,3.7s16-0.4,13.6,10.7c-0.9,4.3-4.6,6.9-8.8,5.6c-5.7-1.7-6.5-2.9-9.2-5.6c-2.8-2.8-7.1-3.8-10.6-6
				c-4.3-2.8-9.1-5.2-8.2-10.7c0.5-2.8,2-5,4.4-6.3C79.4,126.9,88.5,123.1,103.8,121z"/>
			<path class="st7" d="M105,157.3c-0.8,0-1.7-0.1-2.5-0.4c-5.6-1.7-6.9-3-9.2-5.4l-0.6-0.6c-1.5-1.5-3.6-2.5-5.8-3.4
				c-1.5-0.7-3.1-1.4-4.6-2.3c-0.4-0.3-0.8-0.5-1.2-0.8c-4-2.5-8.6-5.4-7.6-11.5c0.6-3.3,2.4-5.9,5.2-7.4c0,0,0.1,0,0.1-0.1
				c0.4-0.2,9.5-3.8,24.8-6l0,0c2.1-0.3,4.3,0.5,6,2.1c1.4,1.4,2.1,3.2,1.9,5c-0.3,2.6-2.3,4.7-4.9,5.3c-2.8,0.6-6.2,1.3-9.5,1.9
				c-2.2,0.4-4.5,0.9-6.6,1.3c2.5,1,6.1,2.1,7.8,2.6c1.5,0,9.6,0.2,13.3,4.7c1.7,2.1,2.2,4.7,1.6,7.8c-0.6,2.7-2,4.8-4.1,6
				C107.8,156.9,106.4,157.3,105,157.3z M80,128.2c-1.9,1-3.2,2.8-3.6,5.2c-0.7,3.9,2,5.7,6.3,8.4c0.4,0.3,0.9,0.5,1.3,0.8
				c1.3,0.8,2.7,1.5,4.2,2.1c2.4,1.1,4.8,2.2,6.7,4.1l0.6,0.6c2.1,2.2,3,3.2,7.9,4.6c1.5,0.4,2.9,0.3,4.1-0.4
				c1.4-0.8,2.3-2.3,2.7-4.1c0.5-2.2,0.2-3.9-0.9-5.2c-3.1-3.7-11.1-3.6-11.2-3.6c-0.2,0-0.3,0-0.5-0.1c-0.3-0.1-8.1-2.4-10.8-3.8
				c-0.8-0.4-1.3-1.3-1.1-2.3c0.1-0.9,0.8-1.7,1.7-1.9c2.7-0.6,5.9-1.2,9-1.8c3.3-0.6,6.7-1.3,9.4-1.9c1.4-0.3,2.4-1.4,2.5-2.7
				c0.1-1.2-0.5-2-1-2.5c-0.9-0.9-2.3-1.4-3.4-1.3l0,0C89.8,124.5,80.8,127.9,80,128.2z"/>
		</g>
	</g>
	<g>
		<g>
			<path class="st3" d="M86.5,122.9c-0.1-0.4-0.1-0.8,0.2-0.8c7.2-1.3,9.9-1.6,17.1-3.7c5.5-1.6,6.8,2.8,6.8,2.8
				c2.1,4.6-2.5,6.5-2.5,6.5c-7.1,3.9-10.5,5.7-17.7,8.2c-0.4,0.2-0.9-0.5-0.7-0.9l-1.8-6C87.9,128.9,87.1,125.2,86.5,122.9z"/>
			<path class="st4" d="M94.6,134.4c0,0-3-8.2-3.6-12.6l3.2,0.4c0,0,2.5,9.7,3.9,11.1L94.6,134.4z"/>
			<path class="st4" d="M100.5,131.4c0,0-2.6-6.8-3.7-10.6l2.6-0.7c0,0,2.7,8.7,3.7,9.6C104.1,130.5,100.5,131.4,100.5,131.4z"/>
			<path d="M90.2,137.8c-0.6,0-1.2-0.3-1.6-0.8c-0.4-0.5-0.5-1-0.5-1.6l-1.8-5.7c0,0-0.8-3.7-1.4-5.9l0,0c-0.2-0.7-0.2-1.4,0.2-1.9
				c0.3-0.4,0.7-0.7,1.2-0.8c1.4-0.3,2.6-0.5,3.7-0.7c4.7-0.8,7.5-1.3,13.2-3c5.4-1.6,8,1.6,8.6,3.7c0.8,1.7,0.9,3.3,0.3,4.8
				c-0.9,2.2-3,3.3-3.5,3.5c-7.1,3.9-10.6,5.8-17.8,8.2C90.6,137.8,90.4,137.8,90.2,137.8z M89.3,129.1l1.7,5.4
				c6.3-2.2,9.7-4,16.3-7.7l0.2-0.1c0,0,1.5-0.6,2-1.9c0.3-0.7,0.2-1.6-0.3-2.5l-0.1-0.2c-0.2-0.5-1.2-2.9-5-1.8
				c-5.9,1.7-8.8,2.2-13.5,3.1c-0.8,0.1-1.6,0.3-2.5,0.5C88.6,126,89.2,128.6,89.3,129.1z"/>
		</g>
	</g>
</g>
<g>
	<path class="st13" d="M150.3,210.7c0.8,0.8,0.4,2.3-0.7,2.6s-2.2-0.6-2.4-1.7c-0.1-0.4,0-0.8,0.3-1
		C147.5,210.5,148.5,208.9,150.3,210.7z"/>
	<g>
		<path class="st15" d="M146.1,204.2c-1.5,1.8-1,4.9,1.4,5.5c-1.8,1.1-2.2,3.7-0.8,5.2c1.4,1.4,4.3,1.3,5.7-0.2
			c0.9,1.6,3.3,2.3,5.1,1.7c1.9-0.7,3.1-2.7,2.6-4.4c1.9,0.5,4.2-0.6,4.9-2.3s-0.1-3.8-1.9-4.6c0.7-1.4,0.2-3.2-1.1-4
			c-1.3-0.9-3.3-0.8-4.6,0.3c0.3-0.2-2.1-0.8-2.3-0.8c-3,0.3-2.9,2.2-3.9,2.2C148.9,202.8,147.7,202.4,146.1,204.2z"/>
		<path d="M156,218.1c-1.4,0-2.8-0.5-3.9-1.4c-0.8,0.4-1.7,0.7-2.6,0.7c-1.6,0-3-0.5-3.9-1.5c-1-1-1.4-2.4-1.3-3.8
			c0.1-0.7,0.3-1.4,0.7-2.1c-0.5-0.5-0.9-1.2-1.1-1.9c-0.5-1.7-0.1-3.6,1-4.9c1.8-2,3.5-2,5.1-2c0.3,0,0.5,0,0.8,0
			c0,0,0.1-0.1,0.1-0.1c0.5-0.6,1.5-1.8,4-2.1h0c0,0,1.3,0.1,2.4,0.5c1.7-0.9,3.9-0.8,5.4,0.3c1.5,1,2.3,2.9,2,4.6
			c1.7,1.4,2.4,3.8,1.5,5.8c-0.8,1.8-2.7,3.1-4.8,3.2c-0.3,1.9-1.7,3.6-3.6,4.3C157.3,218,156.7,218.1,156,218.1z M152.4,213.2
			c0,0,0.1,0,0.1,0c0.5,0,0.9,0.3,1.1,0.7c0.6,1,2.1,1.4,3.3,1c1.1-0.4,1.9-1.7,1.7-2.7c-0.1-0.5,0-1.1,0.4-1.4
			c0.4-0.4,0.9-0.5,1.4-0.4c1.2,0.3,2.7-0.4,3.1-1.4c0.4-0.9-0.1-2.2-1.1-2.6c-0.4-0.2-0.7-0.5-0.8-0.9c-0.1-0.4-0.1-0.8,0.1-1.2
			c0.4-0.7,0.1-1.6-0.6-2.1c-0.8-0.5-2.1-0.4-2.8,0.2c0,0,0,0,0,0c-0.6,0.5-1.5,0.4-2-0.1c-0.3-0.1-0.9-0.3-1.2-0.3
			c-1.1,0.2-1.5,0.6-1.9,1c-0.4,0.4-1,1.1-2,1.2c-0.4,0-0.8,0-1.2,0c-1.5,0-2,0-2.9,1l0,0c-0.5,0.5-0.6,1.3-0.4,2
			c0.1,0.4,0.4,0.9,1,1c0.6,0.2,1,0.6,1.1,1.2s-0.2,1.2-0.7,1.5c-0.5,0.3-0.8,0.8-0.9,1.5c-0.1,0.5,0.1,1,0.4,1.4
			c0.4,0.4,1,0.6,1.7,0.6c0.7,0,1.4-0.3,1.8-0.7C151.5,213.3,151.9,213.2,152.4,213.2z M146.1,204.2L146.1,204.2L146.1,204.2z
			 M155.3,202C155.3,202,155.3,202,155.3,202C155.3,202,155.3,202,155.3,202z"/>
	</g>
	<g>
		<path class="st15" d="M46.4,240.4c-2.1-0.7-4.6-1-6.6,0s-2.7,3.8-1,5.1c-2.7,0.6-5,3.1-4.6,5.6c0.3,2.5,3.7,4.5,6.2,3.3
			c0.3,2.1,2.5,3.8,4.8,3.8c2.3,0,4.5-1.8,4.7-3.8c2.3,1.6,6,1.2,7.8-0.8s1.3-5.4-1-7c1.3-1,1.6-2.9,0.8-4.3
			c-0.8-1.4-2.8-2.1-4.4-1.7c-0.6-1.4-1.9-2.6-3.5-2.8c-1.6-0.2-3.4,1-3.2,2.5c0-0.4,0.2-0.9,0.6-1.2"/>
		<path d="M45.2,259.6c-2.5,0-4.7-1.5-5.8-3.5c-1.2,0.1-2.5-0.1-3.6-0.7c-1.7-0.9-2.9-2.5-3.1-4.1c-0.3-2.5,1.3-5.2,3.8-6.5
			c-0.2-0.5-0.2-1-0.2-1.6c0.1-1.7,1.2-3.3,2.7-4.1c2-1,4.2-0.9,6.1-0.5c0.2-0.3,0.4-0.6,0.7-0.9c1-1,2.5-1.5,3.8-1.3
			c1.6,0.2,3.2,1.2,4.1,2.7c2-0.1,3.9,0.9,4.9,2.5c0.9,1.5,0.9,3.4,0,4.9c0.8,0.9,1.3,2.1,1.4,3.4c0.2,1.7-0.3,3.5-1.4,4.7
			c-1.9,2.2-5.3,2.9-8,1.9C49.8,258.3,47.6,259.6,45.2,259.6C45.3,259.6,45.3,259.6,45.2,259.6z M40.5,252.8c0.2,0,0.5,0.1,0.7,0.2
			c0.4,0.2,0.7,0.6,0.8,1.1c0.2,1.3,1.7,2.5,3.3,2.5c0,0,0,0,0,0c1.6,0,3.1-1.2,3.2-2.5c0.1-0.5,0.4-1,0.9-1.2
			c0.5-0.2,1-0.2,1.5,0.1c1.6,1.2,4.5,0.9,5.8-0.6c0.6-0.6,0.8-1.5,0.7-2.4c-0.1-1-0.6-1.8-1.4-2.4c-0.4-0.3-0.6-0.7-0.6-1.2
			s0.2-0.9,0.5-1.2c0.7-0.6,0.9-1.6,0.4-2.3c-0.5-0.8-1.8-1.3-2.8-1c-0.7,0.2-1.4-0.2-1.7-0.8c-0.4-0.8-1.2-1.8-2.3-1.9
			c-0.4,0-0.7,0.1-1.1,0.2c-0.1,0.2-0.2,0.4-0.4,0.6c-0.1,0.1-0.1,0.2-0.1,0.2c0,0.2,0,0.4-0.1,0.6c-0.3,0.8-1.1,1.2-1.9,0.9
			c-1.3-0.4-3.7-1-5.4-0.1c-0.6,0.3-1.1,1-1.1,1.7c0,0.6,0.3,0.8,0.4,0.9c0.5,0.3,0.7,0.9,0.6,1.5c-0.1,0.6-0.6,1-1.1,1.2
			c-2.1,0.5-3.7,2.3-3.5,3.9c0.1,0.7,0.7,1.4,1.5,1.9c0.9,0.5,1.8,0.5,2.6,0.2C40,252.9,40.2,252.8,40.5,252.8z"/>
	</g>
	<g>
		<path class="st15" d="M50.1,192.2c-1.3-1.1-3-1.9-4.6-1.6s-3,2.3-2.1,3.7c-2.1-0.2-4.3,1.1-4.8,3.2c-0.4,2,1.4,4.4,3.5,4
			c-0.4,1.7,0.7,3.6,2.3,4.1s3.6-0.3,4.4-1.8c1.2,1.8,3.9,2.4,5.7,1.3c1.8-1.1,2.4-3.8,1.2-5.6c1.2-0.5,1.9-1.9,1.7-3.1
			c-0.2-1.3-1.4-2.3-2.7-2.4c-0.1-1.2-0.6-2.5-1.7-3c-1.1-0.5-2.7,0-2.9,1.1c0.1-0.3,0.4-0.6,0.7-0.8"/>
		<path d="M45.5,207.3c-0.5,0-1.1-0.1-1.6-0.3c-1.8-0.6-3.1-2.3-3.4-4.2c-0.8-0.2-1.5-0.7-2.1-1.3c-1.1-1.2-1.6-2.9-1.3-4.4
			c0.5-2.1,2.3-3.7,4.5-4.2c0-0.4,0.1-0.8,0.3-1.2c0.6-1.3,1.9-2.4,3.2-2.6c1.4-0.3,3,0.1,4.5,1c0.2-0.2,0.5-0.4,0.8-0.5
			c1.1-0.5,2.3-0.5,3.3,0c1.2,0.6,2,1.7,2.4,3.1c1.4,0.5,2.5,1.8,2.8,3.3c0.2,1.4-0.3,2.9-1.3,3.9c0.3,0.9,0.3,1.9,0.1,2.9
			c-0.3,1.5-1.2,2.8-2.4,3.5c-1.9,1.2-4.6,1-6.4-0.3C48,206.9,46.8,207.3,45.5,207.3z M42.1,200c0.4,0,0.8,0.2,1.1,0.5
			c0.3,0.4,0.5,0.9,0.4,1.3c-0.2,0.9,0.4,2.1,1.4,2.4c0.9,0.3,2.1-0.2,2.5-1c0.2-0.5,0.7-0.8,1.3-0.8c0.5,0,1.1,0.2,1.4,0.7
			c0.7,1.1,2.5,1.5,3.6,0.8c0.5-0.3,0.9-0.9,1.1-1.6c0.2-0.7,0.1-1.4-0.3-1.9c-0.2-0.4-0.3-0.8-0.2-1.3s0.4-0.8,0.8-0.9
			c0.5-0.2,0.9-0.9,0.8-1.5c-0.1-0.6-0.7-1.1-1.3-1.1c-0.8-0.1-1.4-0.7-1.4-1.4c0-0.7-0.3-1.5-0.9-1.7c-0.1-0.1-0.2-0.1-0.4-0.1
			c-0.1,0.1-0.3,0.3-0.4,0.4c0,0.1-0.1,0.1-0.1,0.2c-0.1,0.1-0.1,0.2-0.2,0.4c-0.5,0.6-1.5,0.7-2.1,0.2c-0.7-0.6-2.1-1.6-3.4-1.3
			c-0.4,0.1-0.9,0.5-1.1,0.9c-0.1,0.2-0.1,0.4,0,0.6c0.3,0.5,0.3,1.1,0,1.6c-0.3,0.5-0.8,0.8-1.4,0.7c-1.4-0.1-2.9,0.8-3.2,2
			c-0.1,0.5,0.1,1.2,0.6,1.7c0.2,0.2,0.7,0.6,1.2,0.5C42,200,42,200,42.1,200z"/>
	</g>
	<path class="st13" d="M63.8,227.1c0.8,0.8,0.4,2.3-0.7,2.6c-1.1,0.3-2.2-0.6-2.4-1.7c-0.1-0.4,0-0.8,0.3-1
		C61,227,62,225.4,63.8,227.1z"/>
	<path class="st13" d="M72.7,256.7c0.5,0.7,0.5,1.9-0.2,2.4c-0.7,0.5-1.7,0-2.2-0.6c-0.4-0.6-0.6-1.4-0.2-2
		C70.1,256.4,71.4,254.7,72.7,256.7z"/>
	<path class="st13" d="M144.9,226.4c-0.5,0.5-0.9,1.6-0.5,2.2c0.3,0.6,1.2,0.9,1.8,0.7c1-0.5,1-1.4,0.7-2.5
		C146.8,226.8,145.8,225.3,144.9,226.4z"/>
	<path class="st13" d="M21.6,239.2c-0.2,0.2-0.5,0.2-0.8,0.1c-0.2,0-0.4-0.2-0.5-0.3c-0.3-0.2-0.6-0.4-0.9-0.6
		c-0.2-0.1-0.4-0.3-0.4-0.5c0-0.1,0.1-0.3,0.1-0.4c0,0,1-3,2.5-2.6c0,0,1.4,0.4,1.8,1.2C23.4,236.2,23.7,237.6,21.6,239.2z"/>
	<path class="st13" d="M134.5,242.3c-1.1,0.7-0.8,2.3,0.3,2.8c0.3,0.1,0.8,0.2,1.1-0.1c0.3-0.2,0.4-0.5,0.4-0.9c0-0.3-0.1-0.7-0.2-1
		c-0.1-0.4-0.3-0.7-0.6-0.9C135.3,242,134.8,242,134.5,242.3"/>
</g>
</svg>
