<?xml version="1.0" encoding="UTF-8"?>
<svg xmlns="http://www.w3.org/2000/svg" version="1.1" viewBox="0 0 390 390">
  <!-- Generator: Adobe Illustrator 28.7.1, SVG Export Plug-In . SVG Version: 1.2.0 Build 142)  -->
  <g>
    <g id="_레이어_1" data-name="레이어_1">
      <g>
        <g>
          <g>
            <path d="M280.3,269.6c.7-.8,5.7-.7,6.8-.9,2.4-.3,4.9-.6,7.3-.9,4.7-.6,9.4-1.1,14.1-1.6,4.9-.5,9.8-1,14.7-1.3,3.8-.3,7.8-.5,11.6-1.1,0,0,.2-12.9.3-14.3.3-5.1,2.4-9.9,4.6-14.4.3-.7.7-1.4,1.4-1.6.4-.1.9,0,1.4,0,2.5.6,6.3,1.9,7.4,4.5,4.2,10.1,3.7,26.2,1.3,36.6,0,.4-.2.8-.5,1-.3.3-.6.3-1,.4-20.6,4.7-42.6,1.3-63.6,1.5-1.8,0-3.7,0-5.2-.9-1.5-.9-1.7-5.8-.6-7.2Z" style="fill: #ffd174;"/>
            <path d="M323.5,280.1c-5.9,0-11.8-.2-17.6-.5-6.5-.3-13.3-.5-19.8-.5-1.7,0-4.1,0-6-1.1-1.2-.7-1.6-2.3-1.8-3.4-.3-1.9-.2-4.5.9-5.8.7-.9,2.3-1.1,6.2-1.3.6,0,1.2,0,1.4,0,2.4-.3,4.9-.6,7.3-.9,4.7-.6,9.4-1.1,14.2-1.6,5.3-.6,10.1-1,14.7-1.3l2.1-.2c2.7-.2,5.5-.4,8.2-.7-.2-3,0-8.4.3-13.1.3-5.2,2.4-10,4.8-14.9.3-.7.9-1.9,2.2-2.3.8-.2,1.5-.1,2.1,0,4.5,1.1,7.3,2.9,8.3,5.3,4.2,10.3,3.9,26.6,1.4,37.5,0,.4-.3,1.1-.8,1.7-.5.5-1.2.7-1.6.8-8.7,2-17.6,2.5-26.5,2.5ZM288.6,276.4c5.8,0,11.7.2,17.5.5,14.4.6,29.4,1.2,43.4-2,.1,0,.3,0,.4-.1h0s0-.2,0-.3c2.4-10.4,2.8-26.1-1.3-35.8-.6-1.5-2.9-2.8-6.4-3.7-.4-.1-.6-.1-.6,0,0,0-.3.2-.6.9-2.3,4.8-4.2,9.2-4.5,13.8,0,1.5-.3,13-.3,14.1,0,.2,0,.3,0,.5-.1.5-.6.9-1.1,1-3.2.5-6.4.7-9.5.9l-2.1.2c-4.6.3-9.4.8-14.6,1.3-4.7.5-9.4,1.1-14.1,1.6-2.4.3-4.9.6-7.3.9-.3,0-.9,0-1.7.1-1.1,0-3.6.2-4.3.4-.2.5-.4,1.7-.3,3.1.1,1.2.5,1.8.6,1.9,1.1.7,2.7.7,4.5.7.8,0,1.6,0,2.5,0ZM280.3,269.6h0,0Z"/>
          </g>
          <g>
            <path d="M283.7,326c.8.7,5.7,0,6.9,0,2.5,0,4.9,0,7.4,0,4.7,0,9.5,0,14.2,0,4.9,0,9.8-.2,14.7-.5,3.8-.2,7.8-.4,11.6-.4,0,0,1.8,12.7,2,14.1.9,5,3.6,9.5,6.3,13.7.4.6.9,1.3,1.6,1.4.5,0,.9,0,1.4-.2,2.4-.9,6-2.7,6.8-5.4,2.9-10.5.5-26.4-3.1-36.5-.1-.4-.3-.7-.6-1-.3-.2-.7-.3-1-.3-21-2.2-42.4,3.9-63.3,6.2-1.8.2-3.7.4-5.1,1.6-1.4,1.1-1,6,.3,7.2Z" style="fill: #ffd174;"/>
            <path d="M348.8,355.8c-.2,0-.3,0-.5,0-1.4-.3-2.1-1.4-2.5-2-2.9-4.6-5.6-9.1-6.5-14.2-.8-4.7-1.7-10-1.8-13-2.7,0-5.5.1-8.2.3h-2.1c-4.6.3-9.4.5-14.8.6-4.8,0-9.5,0-14.3,0-2.5,0-4.9,0-7.4,0h0c-.3,0-.8,0-1.4,0-3.8.3-5.5.3-6.4-.5h0c-1.2-1.1-1.7-3.7-1.6-5.6,0-1.2.3-2.8,1.4-3.6,1.8-1.4,4.1-1.7,5.8-1.9,6.5-.7,13.2-1.8,19.6-2.9,14.4-2.4,29.3-4.8,44-3.3.4,0,1.1.1,1.7.6.6.5.9,1.2,1,1.6,3.8,10.5,6.1,26.6,3.2,37.3-.7,2.5-3.2,4.6-7.6,6.3-.5.2-1,.4-1.6.4ZM339.9,325.2c0,1,1.7,12.4,2,13.9.8,4.6,3.2,8.7,6.1,13.2.4.7.6.8.7.8,0,0,.3,0,.6-.2,3.4-1.3,5.5-2.9,5.9-4.5,2.8-10.1.6-25.6-3.1-35.7,0,0-.1-.3-.2-.4,0,0-.2,0-.3,0-14.3-1.5-29,1-43.3,3.3-6.5,1.1-13.2,2.2-19.7,2.9-1.8.2-3.3.4-4.4,1.3-.1.1-.4.8-.4,2,0,1.4.4,2.6.7,3,.8.2,3.3,0,4.4-.1.7,0,1.3-.1,1.7,0,2.5,0,4.9,0,7.4,0,4.7,0,9.5,0,14.2,0,5.3,0,10.1-.2,14.7-.5h2.1c3.1-.3,6.4-.4,9.6-.4.5,0,1,.3,1.2.8,0,.2,0,.3.1.5ZM284.6,325h0s0,0,0,0c0,0,0,0,0,0Z"/>
          </g>
          <g>
            <path d="M273,257.6l25.8-1.5s5.6,17.7,1.8,30.3l-14.7.9" style="fill: #265176;"/>
            <path d="M285.9,288.7c-.7,0-1.3-.6-1.4-1.3,0-.7.5-1.4,1.3-1.4l13.7-.8c2.6-10.3-.7-23.8-1.8-27.6l-24.7,1.4c-.8,0-1.4-.5-1.4-1.3,0-.8.5-1.4,1.3-1.4l25.8-1.5c.6,0,1.2.4,1.4.9.2.7,5.7,18.3,1.9,31.1-.2.5-.7.9-1.2,1l-14.7.9s0,0,0,0Z"/>
          </g>
          <g>
            <path d="M277.9,338.8l25.8-1.7s3.4-18.3-1.8-30.3l-14.7.9" style="fill: #265176;"/>
            <path d="M277.9,340.2c-.7,0-1.3-.6-1.4-1.3,0-.7.5-1.4,1.3-1.4l24.7-1.6c.6-3.9,2.3-17.7-1.6-27.6l-13.7.8c-.7,0-1.4-.5-1.4-1.3,0-.7.5-1.4,1.3-1.4l14.7-.9c.6,0,1.1.3,1.3.8,5.3,12.3,2.1,30.4,1.9,31.1-.1.6-.6,1.1-1.3,1.1l-25.8,1.7s0,0,0,0Z"/>
          </g>
          <g>
            <path d="M201.8,230.2c12.6-10.4,27.5-20,43.8-19.5,2.6,0,5.4.5,7.4,2.2,2,1.7,2.8,5,1,6.9-.9.9-2.2,1.3-3,2.3-.9,1.2-.6,2.4-.7,3.8-.4,3.2-2.2,4.5-5.2,5.4,1.2,1.8,0,4.4-1.7,5.5-1.8,1.1-4.1,1.2-6.2,1.3-10,.5-21.6,2.9-30.5,7.5-7.6,3.9-13.1,11.2-21.2,14.2-3.2,1.2-8.8,1.3-9.3-3.3-.3-3.1,4.2-6.2,6.1-8.1,6.2-6.4,12.8-12.4,19.7-18Z" style="fill: #ffd174;"/>
            <path d="M181.5,261.8c-1.5,0-3-.3-4.2-1.1-1.5-.9-2.3-2.4-2.5-4.2-.3-3.1,2.8-5.9,5.1-7.9.5-.5,1-.9,1.4-1.3,6.2-6.4,12.9-12.5,19.8-18.1,11.5-9.5,26.9-20.4,44.7-19.9,2.5,0,5.8.4,8.2,2.5,1.4,1.2,2.4,3.1,2.5,4.9,0,1.5-.4,3-1.4,4-.5.5-1.1.9-1.6,1.2-.5.3-1,.6-1.2,1-.4.5-.4,1-.4,1.8,0,.4,0,.9,0,1.3-.5,3.6-2.5,5.1-4.8,6,.1.6.1,1.2,0,1.9-.3,1.6-1.4,3.1-2.8,3.9-2,1.2-4.4,1.4-6.5,1.5h-.4c-11.1.6-22.1,3.3-30,7.4-3.2,1.7-6.2,4-9,6.3-3.8,3-7.6,6.2-12.4,7.9-1.2.4-2.8.8-4.4.8ZM202.7,231.3c-6.8,5.6-13.4,11.7-19.6,17.9-.4.4-.9.9-1.5,1.4-1.7,1.6-4.4,3.9-4.2,5.6.1,1,.5,1.7,1.3,2.2,1.5,1,4.3.7,6.2,0,4.3-1.6,7.9-4.5,11.6-7.5,2.9-2.4,6-4.8,9.4-6.6,8.2-4.3,19.6-7.1,31.1-7.7h.4c2-.1,3.8-.2,5.2-1.1.8-.5,1.4-1.3,1.5-2.1.1-.5,0-1-.2-1.4-.3-.4-.3-.8-.2-1.2s.5-.7.9-.9c2.9-.9,3.9-1.9,4.3-4.2,0-.4,0-.7,0-1,0-1,0-2.2.9-3.4.6-.8,1.3-1.3,2-1.7.4-.3.8-.5,1.1-.8.6-.6.7-1.4.6-2,0-1.1-.6-2.3-1.5-3-1.8-1.5-4.4-1.8-6.5-1.8-16.9-.4-31.8,10-42.9,19.2h0ZM201.8,230.2h0,0Z"/>
          </g>
          <g>
            <path d="M203.6,370.1c-.9,1-2.4,1.2-3.6.5-5.2-3.2-18.7-12-18.1-18.9.7-7.6,18.5-1.3,30,3.6,1.8.8,2.3,3.1,1,4.6l-9.2,10.2Z" style="fill: #fff;"/>
            <path d="M201.5,372.4c-.7,0-1.5-.2-2.2-.6-7.3-4.4-19.4-12.9-18.8-20.2.1-1.7.9-3,2.3-3.8,4.2-2.5,14.1-.4,29.5,6.3,1.3.5,2.2,1.6,2.4,3,.3,1.3,0,2.7-1,3.8l-9.2,10.2c-.8.9-2,1.4-3.1,1.4ZM187.5,349.5c-1.4,0-2.5.2-3.2.7-.6.4-.9.9-1,1.7-.4,4.9,8.7,12.3,17.4,17.6.6.4,1.4.3,1.9-.3l9.2-10.2c.3-.4.5-.9.4-1.3-.1-.5-.4-.9-.9-1.1-10.8-4.6-19.1-7.1-23.8-7.1Z"/>
          </g>
          <g>
            <path d="M195.4,235.6c-1-.9-2.6-.9-3.6,0-4.8,3.8-17.1,14.2-15.7,21,1.6,7.5,18.5-.9,29.3-7.2,1.7-1,1.9-3.4.4-4.6l-10.4-9Z" style="fill: #fff;"/>
            <path d="M180.5,260.7c-1.2,0-2.2-.2-3-.5-1.5-.6-2.4-1.8-2.8-3.5-1.5-7.2,9.5-17.1,16.2-22.3,1.6-1.2,3.8-1.2,5.4.1l10.4,9c1,.9,1.6,2.2,1.5,3.6-.1,1.4-.9,2.6-2.1,3.3-11.8,6.9-20.4,10.4-25.6,10.4ZM193.5,236.2c-.3,0-.7.1-.9.3-8,6.3-16.2,14.8-15.2,19.6.2.8.5,1.3,1.2,1.5,3.4,1.5,12.9-2,26.1-9.7.4-.2.7-.7.7-1.1,0-.5-.1-1-.5-1.3l-10.4-9c-.3-.2-.6-.4-1-.4Z"/>
          </g>
          <path d="M248.1,381.2c-4.9,0-9.7-.8-14.3-2.4-.7-.2-1.1-1-.9-1.7.2-.7,1-1.1,1.7-.9,6.4,2.2,13.4,2.8,20.1,1.7.7-.1,1.4.4,1.6,1.1.1.7-.4,1.4-1.1,1.6-2.3.4-4.7.6-7.1.6Z" style="fill: #c48200;"/>
          <path d="M242.2,373.2c-.5,0-1,0-1.5,0-3-.2-5.6-.9-7.7-2.1-.7-.4-.9-1.2-.5-1.9s1.2-.9,1.9-.5c1.8,1,4,1.6,6.5,1.7,2.3.1,4.5,0,7.2-.4.7,0,1.4.5,1.5,1.2,0,.7-.5,1.4-1.2,1.5-1.8.2-3.9.4-6.1.4Z" style="fill: #c48200;"/>
          <g>
            <g>
              <path d="M101.1,374.7c40.1.8,65-11.2,79.7-17.6l-.2-.5-6.4-105.5c-15.4-4.6-41.5-13.3-81.1-7.7-50.2,7.2-42.8,68.5-42.8,68.5,0,0,0,61.8,50.8,62.8Z" style="fill: #67a9e4;"/>
              <path d="M180.8,357.1c3.9-1.7,7.1-3,9.6-3.6,6.2-1.4,13.4-.5,19.8-.4,10.2.2,20.4.4,30.6-.1,4-.2,8.3-.5,12.5-1l-6.4-104.6c-6.1,0-12.2.6-17.6,1.1-14.4,1.3-30.6,6.7-45,5.2-2.7-.3-6-1.2-10.2-2.4,2.1,7.8,2.9,13.4,8.1,19.9,6.9,8.7,12.3,19.3,12.5,30.6.2,10.6,5.9,20.1-.4,30.4-2.6,4.1-6.5,7.1-9.6,10.8-3.4,4.1-3,8.6-4.1,13.7l.2.5Z" style="fill: #67a9e4;"/>
              <path d="M253.3,352.2c0,0,0-.2,0-.2,0,0,0,0,0,0v.2Z" style="fill: #67a9e4;"/>
              <path d="M253.3,352s0,0,0,0c12.5-48.6-6.4-104.6-6.4-104.6l6.4,104.6Z" style="fill: #67a9e4;"/>
              <path d="M253.3,352c12-1.5,23.7-5.3,29.1-16.8,11.3-24.3,9.9-53.7-5.5-76-6.6-9.5-18.3-11.7-30-11.8,0,0,18.9,56,6.4,104.6Z" style="fill: #67a9e4;"/>
              <path d="M174.2,251.2l6.4,105.5c1.1-5.1.7-9.6,4.1-13.7,3.1-3.7,7-6.7,9.6-10.8,6.3-10.3.6-19.8.4-30.4-.2-11.3-5.6-21.9-12.5-30.6-5.1-6.5-6-12.1-8.1-19.9Z" style="fill: #67a9e4;"/>
            </g>
            <g>
              <path d="M180.6,358c0,0-.2,0-.3,0-.7-.2-1.2-.9-1.1-1.6.3-1.3.4-2.6.6-3.8.5-3.7,1-7.2,3.8-10.5,1.2-1.5,2.6-2.8,3.9-4.1,2.1-2.1,4.1-4.1,5.6-6.6,4-6.6,2.8-12.8,1.5-19.5-.6-3.3-1.3-6.7-1.3-10.2-.2-9.7-4.3-19.7-12.2-29.8-4.6-5.9-5.9-10.9-7.5-17.3-.2-1-.5-2-.8-3-.2-.7.2-1.5,1-1.7.7-.2,1.5.2,1.7,1,.3,1.1.5,2.1.8,3,1.6,6.1,2.8,10.9,7,16.3,8.3,10.6,12.6,21.2,12.8,31.4,0,3.3.7,6.6,1.3,9.7,1.3,6.9,2.7,14-1.9,21.4-1.7,2.7-3.9,4.9-6,7.1-1.3,1.3-2.6,2.6-3.7,3.9-2.3,2.7-2.7,5.7-3.2,9.2-.2,1.3-.4,2.6-.6,4-.1.6-.7,1.1-1.3,1.1Z"/>
              <path d="M180.6,358c-.7,0-1.3-.6-1.4-1.3l-6.4-105.5c0-.7.5-1.4,1.3-1.4.7,0,1.4.5,1.4,1.3l6.4,105.5c0,.7-.5,1.4-1.3,1.4,0,0,0,0,0,0Z"/>
              <path d="M253.3,353.5c-.1,0-.2,0-.3,0-.7-.2-1.2-.9-1-1.6,0,0,0,0,0,0,0,0,0-.1,0-.2,12.2-47.6-6.2-103.2-6.4-103.8-.2-.7.1-1.5.9-1.7.7-.2,1.5.1,1.7.9.2.6,18.9,56.9,6.5,105.3,0,.1,0,.2,0,.3-.2.6-.7,1-1.3,1ZM252,352h0Z"/>
            </g>
          </g>
          <path d="M120.2,309.7c-.5,0-.9-.3-1.2-.7-.4-.7-.1-1.5.5-1.8h0c.3-.2,7.5-4.3,8.4-15.7,0,0,.5-12-5.6-16.3-.6-.4-.7-1.3-.3-1.9.4-.6,1.3-.8,1.9-.3,7.2,5.2,6.7,18.2,6.7,18.7-1,12.9-9.4,17.7-9.8,17.9-.2.1-.4.2-.7.2Z" style="fill: #215c8d;"/>
          <path d="M128.3,360.2c-.4,0-.7-.1-1-.4-.5-.6-.5-1.4,0-1.9,5.5-5.1,3.5-16.8,3.5-16.9-2.2-11.2-10.1-14.5-10.2-14.5-.7-.3-1-1.1-.8-1.8s1.1-1,1.8-.8c.4.2,9.3,3.9,11.9,16.5,0,.6,2.2,13.3-4.3,19.4-.3.2-.6.4-.9.4Z" style="fill: #215c8d;"/>
          <g>
            <path d="M61,302.2c-.3-.3-.6-.6-1-.8-2.7-1.5-8.4-1.2-11.5-1.5-7.4-.8-14.9-1.2-22.4-1.3-2.9,0-6.2.2-7.7,2.7-1.2,1.9-.7,4.6.8,6.4s3.7,2.7,6,3.2c-3.6.8-7.3,1.7-10.1,3.9-2.9,2.3-4.6,6.4-3,9.7,1.1,2.2,3.4,3.6,5.9,4.1s4.9.1,7.4-.3c7.7-1.4,15.5-3,23-5.3,2.5-.8,8.6-1.9,10.2-4,1.3-1.6,2.3-6.3,3-8.4.9-2.5,1.3-6.3-.4-8.2Z" style="fill: #ffd174;"/>
            <path d="M20.5,330c-.9,0-1.9,0-2.8-.3-3.1-.6-5.7-2.4-6.8-4.9-2-4.1.2-8.8,3.4-11.3,1.9-1.5,4.2-2.5,6.5-3.1-1-.6-1.8-1.2-2.5-2-2-2.3-2.4-5.7-1-8,1.9-3,5.7-3.4,8.9-3.3,7.5,0,15.1.5,22.5,1.3.9,0,1.9.1,3,.2,3.1.1,6.7.3,9,1.5.5.3,1,.7,1.4,1.2,2,2.5,1.6,6.7.6,9.6-.2.6-.4,1.3-.6,2.1-.7,2.5-1.5,5.2-2.6,6.6-1.4,1.9-4.8,2.9-8.8,3.9-.8.2-1.5.4-2,.6-7.8,2.4-15.7,4-23.1,5.4-1.6.3-3.3.6-5.1.6ZM25.7,299.9c-2.4,0-5.1.3-6.2,2-.9,1.5-.3,3.5.7,4.7,1.1,1.3,2.8,2.2,5.2,2.8.6.1,1,.7,1,1.3,0,.6-.4,1.2-1.1,1.3-3.2.7-6.9,1.6-9.6,3.7-2.3,1.8-4,5.2-2.7,8,.8,1.7,2.6,2.9,4.9,3.4,2.3.4,4.8,0,6.9-.3,7.3-1.3,15.2-2.9,22.8-5.3.6-.2,1.3-.4,2.2-.6,2.4-.6,6.4-1.6,7.3-2.9.8-1,1.5-3.7,2.1-5.7.3-.9.5-1.7.7-2.3.8-2.4,1-5.5-.2-6.9h0c-.2-.2-.4-.4-.6-.5-1.7-.9-5.1-1-7.8-1.1-1.2,0-2.3,0-3.2-.2-7.4-.8-14.9-1.2-22.3-1.3-.1,0-.3,0-.4,0Z"/>
          </g>
          <path d="M224.9,225.8c-.5,0-1-.3-1.2-.8-.3-.7,0-1.5.6-1.8,6.5-3.1,13.8-4.7,21-4.4.8,0,1.3.7,1.3,1.4,0,.8-.6,1.3-1.4,1.3-6.8-.3-13.6,1.1-19.7,4.1-.2,0-.4.1-.6.1Z" style="fill: #c48200;"/>
          <path d="M225.2,233.5c-.4,0-.8-.2-1.1-.6-.4-.6-.3-1.5.3-1.9,2-1.4,4.5-2.4,7.4-3,2.6-.5,5.3-.5,7.6-.6.8,0,1.4.6,1.4,1.3,0,.8-.6,1.4-1.3,1.4-2.2,0-4.8,0-7.2.5-2.5.4-4.6,1.3-6.3,2.5-.2.2-.5.3-.8.3Z" style="fill: #c48200;"/>
          <path d="M50.1,310.2h0l-15.3-.4c-.8,0-1.3-.6-1.3-1.4,0-.7.6-1.3,1.4-1.3h0l15.3.4c.8,0,1.3.6,1.3,1.4,0,.7-.6,1.3-1.4,1.3Z" style="fill: #c48200;"/>
          <path d="M25,320.9c-.6,0-1.2-.5-1.3-1.1-.1-.7.3-1.5,1.1-1.6l17.9-3.4c.7-.1,1.5.3,1.6,1.1.1.7-.3,1.5-1.1,1.6l-17.9,3.4c0,0-.2,0-.3,0Z" style="fill: #c48200;"/>
          <path d="M245.1,323.2c0,0-.2,0-.3,0-.7-.2-1.2-.9-1.1-1.6,3.9-18.7-2.3-39-2.4-39.2-.2-.7.2-1.5.9-1.7.7-.2,1.5.2,1.7.9.3.9,6.5,21.1,2.5,40.5-.1.6-.7,1.1-1.3,1.1Z"/>
          <path d="M319.5,318.6c-.7,0-1.3-.5-1.4-1.3,0-.7.5-1.4,1.3-1.5,2.5-.2,24.2-1.7,28-.9.7.1,1.2.8,1.1,1.6s-.8,1.2-1.6,1.1c-2.9-.5-20.7.5-27.3,1,0,0,0,0,0,0Z" style="fill: #c48200;"/>
          <path d="M334.4,273.3c-.7,0-1.3-.6-1.4-1.3,0-.8.6-1.4,1.3-1.4,0,0,7.5-.3,9.8-.6.7,0,1.4.4,1.5,1.2,0,.7-.4,1.4-1.2,1.5-2.4.3-9.8.6-10.1.6h0Z" style="fill: #c48200;"/>
          <path d="M314.8,271.7c-.7,0-1.3-.6-1.4-1.3,0-.7.5-1.4,1.3-1.4l12.9-.8c.7,0,1.4.5,1.4,1.3,0,.7-.5,1.4-1.3,1.4l-12.9.8s0,0,0,0Z" style="fill: #c48200;"/>
          <path d="M200.7,339.7c-.3,0-.5,0-.7-.2-.6-.4-.8-1.3-.4-1.9,5.4-8.3,6.5-19.1,2.8-28.3-.2-.5-.4-1-.6-1.5-.6-1.5-1.3-3-1.6-4.6-.3-1.5-.4-3-.4-4.5,0-.4,0-.9,0-1.3-.3-6-2.1-11.9-5.4-17-.4-.6-.2-1.5.4-1.9.6-.4,1.5-.2,1.9.4,3.5,5.5,5.5,11.9,5.8,18.4,0,.5,0,.9,0,1.4,0,1.4,0,2.7.3,4,.3,1.4.9,2.7,1.4,4.1.2.5.4,1.1.7,1.6,3.9,10,2.8,21.8-3.1,30.8-.3.4-.7.6-1.1.6Z"/>
          <g>
            <ellipse cx="107.5" cy="345.5" rx="21" ry="18.1" transform="translate(-20.8 7.2) rotate(-3.5)" style="fill: #fff;"/>
            <path d="M107.1,365c-11.6,0-21.3-7.9-22-18.1-.3-5.2,1.7-10.3,5.8-14.2,4-3.9,9.5-6.2,15.4-6.6,5.9-.4,11.6,1.3,16.1,4.7,4.5,3.4,7.1,8.2,7.5,13.4.3,5.2-1.7,10.3-5.8,14.2-4,3.9-9.5,6.2-15.4,6.6-.5,0-1.1,0-1.6,0ZM106.5,328.8c-5.3.3-10.1,2.4-13.7,5.8-3.5,3.4-5.2,7.7-5,12.1.6,9.2,9.8,16.2,20.7,15.5,5.3-.3,10.1-2.4,13.7-5.8,3.5-3.4,5.2-7.7,5-12.1s-2.5-8.5-6.4-11.4c-3.9-3-9-4.4-14.3-4.1h0ZM106.4,327.5h0,0Z"/>
          </g>
          <g>
            <ellipse cx="104.1" cy="290.5" rx="21" ry="18.1" transform="translate(-17.5 6.9) rotate(-3.5)" style="fill: #fff;"/>
            <path d="M103.7,310c-11.6,0-21.3-7.9-22-18.1-.7-10.7,8.8-20.1,21.2-20.8,5.9-.4,11.6,1.3,16.1,4.7,4.5,3.4,7.1,8.2,7.5,13.4.3,5.2-1.7,10.3-5.8,14.2-4,3.9-9.5,6.2-15.4,6.6-.5,0-1.1,0-1.6,0ZM104.5,273.7c-.5,0-1,0-1.4,0-10.8.7-19.2,8.7-18.6,17.9.6,9.2,9.8,16.2,20.7,15.5,5.3-.3,10.1-2.4,13.7-5.8,3.5-3.4,5.2-7.7,5-12.1-.3-4.4-2.5-8.5-6.4-11.4-3.6-2.7-8.1-4.2-12.8-4.2Z"/>
          </g>
          <g>
            <path d="M133.9,300.8c2-2.7,4.8-4.8,7.7-6.9,4.3-3,9.3-5.9,14.7-5.6,6,.3,10.9,4.7,13.1,9.6,2.1,4.9,2.1,10.4,2,15.7,0,3.2-.1,6.5-.2,9.7,0,5.7-.8,12.3-6.3,15.4-1.9,1.1-4.2,1.5-6.4,1.7-10.2.9-20.4-4-25.5-11.6-4.7-7.1-4.3-21,.9-28Z" style="fill: #ffd174;"/>
            <path d="M156.1,341.9c-9.6,0-19.1-4.8-24.2-12.3-5-7.5-4.5-22.1.9-29.5,2.2-3,5.3-5.3,8-7.2,4.4-3.1,9.7-6.2,15.6-5.9,6,.3,11.6,4.4,14.2,10.4,2.3,5.3,2.2,11.1,2.1,16.2l-.2,9.7c-.1,6.3-1,13.2-7,16.6-1.8,1-4.1,1.7-7,1.9-.8,0-1.7.1-2.5.1ZM155.6,289.7c-4.8,0-9.4,2.7-13.2,5.4-2.5,1.8-5.4,3.9-7.4,6.5h0c-4.8,6.6-5.3,19.9-.9,26.4,4.9,7.3,14.9,11.9,24.3,11,2.5-.2,4.4-.7,5.9-1.6,4.7-2.7,5.5-8.4,5.6-14.2l.2-9.7c0-5.1.2-10.4-1.9-15.1-1.8-4.2-6.2-8.5-11.9-8.8-.2,0-.4,0-.7,0ZM133.9,300.8h0,0Z"/>
          </g>
          <g>
            <path d="M140.4,306.2c1.2-1.7,2.9-3,4.7-4.2,2.6-1.8,5.7-3.6,9-3.5,3.7.2,6.7,2.9,8,5.9,1.3,3,1.3,6.4,1.2,9.6,0,2,0,4,0,5.9,0,3.5-.5,7.5-3.8,9.4-1.2.7-2.6.9-3.9,1.1-6.2.5-12.5-2.5-15.6-7.1-2.9-4.3-2.6-12.8.6-17.1Z" style="fill: #e34c52;"/>
            <path d="M154,331.9c-6.1,0-12.1-3-15.3-7.8-3.2-4.8-2.9-13.9.6-18.7h0c1.4-1.9,3.3-3.3,5-4.5,2.8-1.9,6.1-3.9,9.9-3.7,3.9.2,7.5,2.8,9.2,6.7,1.4,3.3,1.4,7,1.3,10.2v5.9c-.2,4-.8,8.4-4.6,10.6-1.2.7-2.7,1.1-4.5,1.2-.5,0-1.1,0-1.6,0ZM153.7,299.9c-2.8,0-5.5,1.6-7.8,3.2-1.9,1.3-3.3,2.5-4.4,3.9h0c-2.8,3.9-3.1,11.7-.5,15.6,2.9,4.3,8.8,7,14.4,6.5,1.4-.1,2.5-.4,3.4-.9,2.7-1.5,3.1-4.9,3.1-8.3v-5.9c.2-3.1.2-6.2-1-9-1-2.4-3.5-4.9-6.8-5.1-.1,0-.3,0-.4,0ZM140.4,306.2h0,0Z"/>
          </g>
          <path d="M107.3,355.3c-2,0-3.8-.4-5.2-1.3-2-1.3-3.3-3.5-3.2-5.6,0-1.7,1-3.4,2.5-4.6,1.2-.9,2.6-1.5,4.4-1.9,2.1-.4,3.9-.2,5.2.6,1.8,1,3,3.4,2,5.5-1.3,2.6-4.9,2.4-6.1,2.4-.8,0-1.3-.7-1.3-1.4,0-.8.8-1.3,1.4-1.3,1.9.1,3.1-.2,3.5-.9.3-.6-.2-1.5-.9-1.9-.8-.4-1.9-.5-3.4-.3-1.4.3-2.5.7-3.3,1.3-.9.7-1.4,1.7-1.5,2.6,0,1.2.7,2.4,1.9,3.1,1.1.7,2.6,1,4.3.9,1.7,0,3.3-.5,4.8-1.2,2.3-1.1,4.7-3.3,4.6-5.9,0-.9-.3-1.9-.9-2.9-1.3-2.1-3.6-3.7-6-4-1.7-.2-3.9,0-6.8.7-3.1.8-5.1,2.5-6,5.2-.2.7-1,1.1-1.7.9-.7-.2-1.1-1-.9-1.7,1.2-3.5,3.9-5.9,7.9-7,3.3-.8,5.8-1.1,7.9-.8,3.3.5,6.3,2.5,7.9,5.3.8,1.4,1.3,2.9,1.3,4.3,0,4.1-3.3,7.1-6.2,8.5-1.8.8-3.8,1.3-5.8,1.4-.2,0-.5,0-.7,0Z" style="fill: #7d0680;"/>
          <path d="M103.9,300.3c-2,0-3.8-.4-5.2-1.3-2-1.3-3.3-3.5-3.2-5.6,0-1.7,1-3.4,2.5-4.6,1.1-.9,2.6-1.5,4.4-1.9,2.1-.4,3.9-.2,5.2.6,1.8,1,3,3.4,2,5.5-1.3,2.6-4.9,2.4-6.1,2.4-.8,0-1.3-.7-1.3-1.4,0-.8.7-1.4,1.4-1.3,1.9.1,3.1-.2,3.5-.9.3-.6-.1-1.5-.9-1.9-.8-.5-1.9-.5-3.4-.3-1.4.3-2.5.7-3.3,1.3-.9.7-1.4,1.7-1.5,2.6,0,1.1.7,2.4,1.9,3.1,1.1.7,2.6,1,4.3.9,1.7,0,3.3-.5,4.8-1.2,2.3-1.1,4.7-3.3,4.6-5.9,0-.9-.3-1.9-.9-2.9-1.3-2.1-3.6-3.7-6-4-1.7-.3-4,0-6.8.7-3.1.8-5.1,2.5-6,5.2-.2.7-1,1.1-1.7.9-.7-.2-1.1-1-.9-1.7,1.2-3.5,3.9-5.9,7.9-7,3.2-.8,5.9-1.1,7.9-.8,3.3.5,6.3,2.5,7.9,5.3.8,1.4,1.3,2.9,1.3,4.3,0,4.1-3.3,7.1-6.2,8.5-1.8.8-3.8,1.3-5.8,1.4-.2,0-.5,0-.7,0Z" style="fill: #7d0680;"/>
        </g>
        <path d="M126.2,369.6c-.4,0-.8-.2-1.1-.5-.5-.6-.3-1.5.3-1.9,3.3-2.5,6.2-5.5,8.6-8.9.2-.3.8-1.1.7-1.5-.1-.7.3-1.5,1.1-1.6.7-.2,1.5.3,1.6,1.1.3,1.4-.4,2.6-1.1,3.6-2.6,3.6-5.6,6.8-9.2,9.5-.2.2-.5.3-.8.3Z" style="fill: #215c8d;"/>
        <path d="M131.4,266.8c-.6,0-1.2-.4-1.3-1.1-.6-2.8-3.1-4.9-4.9-6.3-2.2-1.7-4.5-3.1-7-4.3-1-.5-1.9-.8-2.6-.7-.7.1-1.5-.3-1.6-1-.2-.7.3-1.5,1-1.6,1.6-.3,3,.2,4.4.9,2.6,1.3,5.1,2.8,7.4,4.6,2.1,1.6,5.1,4.2,5.9,7.8.2.7-.3,1.5-1,1.6-.1,0-.2,0-.3,0Z" style="fill: #215c8d;"/>
        <path d="M160.5,357.2c-.4,0-.8-.2-1-.5-.5-.6-.4-1.4.1-1.9l3.5-3.1c.9-.8,1.8-1.6,2.5-2.5,2.2-2.7,3.1-6.5,2.1-9.9-.2-.7.2-1.5,1-1.7.7-.2,1.5.2,1.7,1,1.2,4.2.1,8.9-2.7,12.3-.9,1-1.9,1.9-2.8,2.8l-3.5,3.1c-.3.2-.6.3-.9.3Z" style="fill: #215c8d;"/>
        <path d="M165,279.4c-.2,0-.4,0-.6-.1-.7-.3-1-1.1-.6-1.8.7-1.5.2-3.4-.6-4.6-1-1.6-2.5-2.8-4-4.1l-7.5-6.1c-.6-.5-.7-1.3-.2-1.9.5-.6,1.3-.7,1.9-.2l7.5,6.1c1.6,1.3,3.4,2.8,4.6,4.8,1.5,2.4,1.7,5.1.7,7.2-.2.5-.7.8-1.2.8Z" style="fill: #215c8d;"/>
        <g>
          <g>
            <g>
              <path d="M249.7,379.8h-.2c-18.1,0-59.1,5.1-58.8-23.9,0-6.2.1-12.4.2-18.6.1-9.3,6.9-13.5,7.8-21.9.8-8.2,1.9-21.3-2.1-28.8-1.5-2.8-5.5-4-7.3-6.9-1.6-2.6-2.1-5.9-2.5-8.9-.8-6.1-1.6-12.3-2.5-18.4-2.6-19.6,30.2-33.1,54.2-42.9,14.2-5.8,27-10.5,42.5-9.7,15.7.9,30.8,6.2,44.5,13.7,17.8,9.7,33.4,23.1,48.9,36.3,1.1,1,2.3,2,3,3.3,2,3.8-.6,8.3-1.2,12.6-1.7,11.6,11.2,21,11.3,32.7,0,8.6-6.8,16-7.3,24.6-.3,5,1.6,9.9,1.9,14.9.3,5-2,10.9-6.9,12,.2-.9.4-1.7.6-2.6-4.5,5-7,11.8-6.7,18.5.5,9.8-1.9,12.9-11.8,12.9-8.5,0-17.4,1.3-26.2,1.3h-81.6Z" style="fill: #2e2e2e;"/>
              <path d="M231.6,381.5c-13.3,0-28-1.4-36.2-9.4-4.1-4.1-6.2-9.5-6.1-16.3l.2-18.6c0-5.3,2.1-9,4.2-12.6,1.7-3,3.2-5.8,3.6-9.4.6-6.1,2-20.5-1.9-28.1-.6-1.1-1.8-2-3.1-3-1.5-1.1-3-2.2-4.1-3.9-1.8-3-2.3-6.7-2.7-9.4l-2.5-18.4c-2.8-20.7,30.6-34.4,55-44.4,14.4-5.9,27.5-10.7,43-9.8,14.6.8,29.8,5.5,45.1,13.9,18.1,9.9,33.9,23.4,49.1,36.4,1.2,1,2.5,2.1,3.3,3.7,1.6,3.1.7,6.5-.2,9.7-.4,1.3-.7,2.5-.9,3.7-.8,5.7,2.2,10.9,5.3,16.4,2.9,5.1,5.9,10.3,6,16.2,0,4.8-1.9,9.1-3.8,13.4-1.7,3.8-3.3,7.5-3.5,11.3-.2,2.7.4,5.4.9,8.2.4,2.1.8,4.3,1,6.5.3,5.7-2.3,12.2-8,13.4-.3,0-.7,0-1-.1-2.9,4.3-4.3,9.5-4.1,14.7.3,5.9-.5,9.1-2.5,11.3-2,2.1-5.2,3-10.6,3-4.2,0-8.6.3-12.8.6-4.4.3-8.9.6-13.4.6h-81.8c-2.1,0-4.6,0-7.3.2-3.3,0-6.9.2-10.6.2ZM277.3,200.9c-13.4,0-24.8,4.2-38.2,9.7-23.6,9.6-55.9,22.8-53.4,41.5l2.5,18.4c.4,3.2.9,6.1,2.3,8.4.7,1.2,2,2.1,3.3,3.1,1.5,1.1,3.1,2.2,4,3.9,3.8,7.3,3.3,19.1,2.2,29.6-.4,4.2-2.2,7.4-3.9,10.5-1.9,3.5-3.8,6.7-3.8,11.3l-.2,18.6c0,6,1.7,10.7,5.3,14.3,9.6,9.5,30.8,8.8,44.8,8.4,2.7,0,5.2-.2,7.3-.2h81.8c4.4,0,8.9-.3,13.2-.6,4.3-.3,8.7-.6,13-.6,4.5,0,7.2-.7,8.6-2.2,1.5-1.6,2-4.3,1.8-9.3-.3-7.1,2.2-14.2,7-19.5.4-.5,1.1-.6,1.6-.3.5.3.8.9.7,1.5h0c2.6-1.9,3.8-6,3.6-9.6-.1-2-.5-4.1-.9-6.2-.6-2.9-1.1-5.8-1-8.9.3-4.4,2-8.4,3.8-12.3,1.8-4.1,3.6-8,3.5-12.2,0-5.2-2.8-9.9-5.6-14.8-3.3-5.6-6.6-11.5-5.7-18.1.2-1.4.6-2.7.9-4,.8-2.8,1.5-5.5.4-7.7-.6-1.1-1.7-2-2.7-2.9-15.2-13-30.9-26.4-48.7-36.1-15-8.2-29.7-12.7-44-13.5-1.2,0-2.5-.1-3.7-.1Z"/>
            </g>
            <path d="M261.3,325c.4-.7,1.3-1.1,2-1.4,4.5-1.7,9.3-2.8,14.1-3.2,2.5-.2,6,.5,6.1,3.1.1,3-4.2,3.6-6.2,5.7,5.8,2.4,13.3-.9,18.2,2.9-3,1.6-5.9,3.3-8.9,4.9-1.1.6-2.3,1.4-2.4,2.6-.1,1.3,1,2.3,2.1,3,6.4,3.7,15.9,2,20.3,8-1,1.7-3.4,2-5.4,2.2-8.6.6-17.2,1.1-25.7,1.7,2.1,2.7,4.5,5,7.3,6.9-4.5,2.3-10.4,1.8-14.4-1.3,0,1.9,0,3.8,0,5.7-6.6,0-13-2.3-19.2-4.6-6.8-2.6-5-4.9-1.9-9.1,2.5-3.4,2.1-5.9,2-9.9-.1-3.4-.5-6,2.4-8.2,1.9-1.4,4.6-1.1,6.5-2.5,2.8-2.1,1.5-3.9,3-6.5Z" style="fill: #584e3a;"/>
            <path d="M311.4,341.7c-13.6,0-38.6-1.1-56.4-1.9-8.4-.4-15-.7-18-.7-.8,0-1.3-.6-1.3-1.4,0-.7.6-1.3,1.4-1.3h0c3,0,9.7.4,18.1.7,22.3,1,56.1,2.4,63.9,1.6.7,0,1.4.5,1.5,1.2,0,.7-.5,1.4-1.2,1.5-1.6.2-4.4.2-7.9.2Z"/>
            <path d="M264.3,378.7h0c-11-.6-22-3.3-32-7.8l-1.8-.8c-3-1.4-5.8-2.8-8.9-3.2-.7-.1-1.3-.8-1.1-1.5.1-.7.8-1.2,1.5-1.1,3.5.5,6.6,2,9.7,3.4l1.7.8c9.7,4.4,20.4,7.1,31,7.6.8,0,1.3.7,1.3,1.4,0,.7-.6,1.3-1.4,1.3Z"/>
            <g>
              <path d="M181.2,240.9c-1.6-3.8,3-7.9,7.1-7.3,4.1.6,7.1,4.1,9.5,7.5,6.7,10,12.7,23.6,14.6,35.6,2.5,15.5,9.9,31,8.3,47-.1,1.1-.3,2.2-1,3.1-.7.9-1.7,1.3-2.6,1.9-4.7,3.3-5.2,12.2-6.6,17.4-2.1,7.4-3.7,14.5-8,21.1-3,4.6-8.4,9-13.3,6.7-1.7-.8-3.1-2.3-4.9-2.9-4-1.2-8.6,2.6-12.1.4-2.1-1.3-2.6-4.4-1.8-6.8.8-2.4,2.6-4.3,4.2-6.2,12.6-15.5,16-36.9,13.3-56.7-2-14.7-7-28.7-12.7-42.3-1.6-3.7-7-11.7-5.7-16,1-3.6,9.7-7.3,11.8-2.5Z" style="fill: #2e2e2e;"/>
              <path d="M192,375.8c-1.1,0-2.2-.2-3.4-.7-.9-.4-1.6-.9-2.3-1.4-.8-.6-1.6-1.1-2.4-1.4-1.5-.4-3.2,0-5,.4-2.4.6-5.1,1.3-7.5-.2-2.8-1.8-3.3-5.6-2.3-8.4.8-2.3,2.3-4.1,3.8-5.9l.6-.8c11.2-13.7,15.9-34,13-55.7-2.1-15.5-7.6-29.9-12.7-42-.4-.9-1-2-1.7-3.4-2.3-4.4-5.2-9.8-4.1-13.5.8-2.8,5-5.5,8.7-5.7,1.1,0,2.1,0,2.9.4.2-.8.6-1.5,1.1-2.2,1.8-2.4,4.9-3.6,7.7-3.2,4.9.7,8.3,5,10.4,8.1,7.3,10.9,13,24.8,14.8,36.1.9,5.4,2.4,10.9,3.8,16.2,2.7,10.1,5.6,20.5,4.5,31.1-.1,1.3-.4,2.7-1.2,3.8-.6.8-1.4,1.3-2.2,1.7-.3.2-.5.3-.8.5-3.1,2.2-4.2,7.5-5.1,12.2-.3,1.6-.6,3.1-1,4.4l-.7,2.5c-1.8,6.6-3.5,12.9-7.5,19-2.8,4.3-7.2,8-11.7,8ZM182.6,369.4c.7,0,1.4,0,2.1.3,1.2.4,2.2,1.1,3.2,1.7.6.5,1.3.9,1.9,1.2,4,1.8,8.9-1.9,11.6-6.2,3.7-5.7,5.3-11.8,7.1-18.2l.7-2.5c.3-1.2.6-2.7.9-4.2,1-5.2,2.2-11.1,6.2-13.9.3-.2.6-.4.9-.6.6-.3,1.1-.7,1.4-1.1.5-.6.6-1.6.7-2.4,1-10.1-1.8-20.3-4.4-30.2-1.5-5.4-3-11-3.9-16.5-1.8-11-7.3-24.4-14.4-35.1-1.8-2.7-4.7-6.4-8.5-6.9-1.8-.3-3.9.7-5.1,2.2-.5.6-1.2,1.9-.6,3.2h0s-2.5,1.1-2.5,1.1c-.5-1.1-1.4-1.6-3-1.5-2.8.2-5.8,2.3-6.3,3.8-.8,2.7,2,8,3.9,11.5.7,1.4,1.4,2.6,1.8,3.6,5.1,12.2,10.7,26.8,12.8,42.6,3.1,22.4-1.9,43.5-13.5,57.7l-.7.8c-1.4,1.6-2.7,3.2-3.3,5-.6,1.8-.4,4.2,1.2,5.2,1.4.9,3.2.4,5.4-.1,1.3-.3,2.8-.7,4.3-.7Z"/>
            </g>
          </g>
          <path d="M324.2,303.7s0,0-.1,0c-7.5-.6-15.1-2.4-22.4-4.2-10.8-2.6-21.9-5.3-32.7-4.1-.7,0-1.4-.5-1.5-1.2,0-.7.5-1.4,1.2-1.5,11.2-1.3,22.6,1.5,33.6,4.1,7.2,1.7,14.7,3.5,22,4.2.7,0,1.3.7,1.2,1.5,0,.7-.7,1.2-1.4,1.2Z"/>
          <g>
            <path d="M90,198.7c-11.4,2.3-23.9,7-31.2,11.3-26.3,15.4-39.7,49.2-52,75.5-11.6,24.8,1.5,51.1,17.9,70.2,9,10.5,19.6,23,33,27.6,14.4,5,29.9,4.5,44.9,4.1,17.2-.5,38.7,2.5,54.4-6.1,14.4-7.8,28.2-14.8,31.8-32.1,1.7-8.1,1.8-15.9,1.9-24,.1-9.5,2.6-19,3.1-28.5.4-8.2-.3-16.8-3.9-24.3-1.4-3-3.9-5-5.4-7.7-7.2-12.4-8.1-24.8-19.6-35.4-12-11.1-29.2-17.9-43.4-25.8-4.7-2.6-9.6-5.3-15-6-4.5-.6-10.2,0-16.4,1.2ZM147.7,246.9c2.2,1,4.3,2,6.2,3.1-1.2.5-2.3,1-3.5,1.4.4-.2,14.6,7.9,16,9.2,4.9,4.5,7.4,11.3,8.8,17.6,4,18.8,4.5,36.9-.1,55.7-.1,0-3,7.7-3.6,8.5-1.6,1.9-3.5,2.8-5.2,5.1.7.4,1.6.4,2.4.2-1.9,2.4-3.9,4.8-5.8,7.2,1.5-.1,3.1-.1,4.6,0-2.5,3.8-5.5,7.4-8.8,10.6,0-2,.1-3.9.2-5.9-4,3.4-8.2,6.6-12.5,9.6.1-1.4.2-2.8.4-4.2-6.4,5.7-18.2,8.9-26.3,8-7.7-.8-15.9-1.1-21.1-7.9-3.7-4.9-2.3-13.8-2.7-20-.4-6.2-.5-12.5-.5-18.7,0-4.4,1.8-10.8.7-15-.9.9-5.1,3.8-5.3,4.8.6-3.1,1.6-6.1,3-8.9-1.8-.3-3.7-.5-5.5-.8-.4,0-.8-.1-1.1-.4-.6-.6,0-1.6.6-2.2,1.5-1.6,3-3.3,4.6-4.9-.8-1.6-3.5,0-4.3-1.2s3.4-5.1,4.3-6.2c1.2-1.6,2.4-3.2,2.9-5.1.4-1.4.4-2.8.5-4.3.3-3.9,1.5-7.6,1.5-11.4,0-4.6.1-9.2.6-13.8.4-3.5.9-7.1,2.9-10.1,3.8-5.7,11.9-5.4,17.9-4.8,4.5.5,16.1,5.9,19.7,3.4-.2-.5-.4-1-.6-1.5,2.9.6,5.9,1.7,8.8,3Z" style="fill: #2e2e2e;"/>
            <path d="M89.4,389c-10.9,0-21.8-.8-32.3-4.4-13.6-4.7-24-16.8-33.1-27.6l-.4-.5c-12.5-14.5-31.4-43.1-18.1-71.6,1.2-2.5,2.4-5.1,3.6-7.7,11.7-25.4,24.9-54.2,49-68.3,7.8-4.6,20.5-9.2,31.6-11.4h0c6.7-1.4,12.5-1.8,16.8-1.3,5.7.7,10.9,3.6,15.5,6.2,3.9,2.2,8,4.3,12.3,6.5,11.1,5.6,22.5,11.4,31.3,19.5,7.6,7,10.7,14.6,13.9,22.7,1.7,4.3,3.4,8.7,6,13,.7,1.2,1.5,2.2,2.3,3.3,1.1,1.4,2.3,2.8,3.1,4.6,3.2,6.8,4.5,14.9,4,24.9-.2,4.4-.9,8.9-1.5,13.1-.7,5-1.5,10.2-1.6,15.3,0,8.3-.2,16-1.9,24.3-3.6,17.4-16.9,24.6-31,32.3l-1.5.8c-12.3,6.7-28.4,6.5-42.6,6.2-4.3,0-8.5-.1-12.4,0-4.3.1-8.7.3-13.1.3ZM102.6,198.6c-3.5,0-7.7.5-12.3,1.4h0c-10.7,2.2-23.4,6.7-30.8,11.1-23.4,13.7-36.4,42.1-47.9,67.1-1.2,2.6-2.4,5.2-3.6,7.8-12.6,27.1,5.6,54.7,17.7,68.7l.4.5c9,10.4,19.1,22.3,32,26.8,14.2,4.9,29.6,4.5,44.4,4,4-.1,8.1,0,12.5,0,14.5.2,29.5.5,41.2-5.9l1.5-.8c13.5-7.3,26.2-14.3,29.6-30.4,1.7-8,1.7-15.6,1.8-23.7,0-5.3.8-10.6,1.6-15.7.6-4.2,1.3-8.6,1.5-12.9.5-9.5-.7-17.2-3.8-23.6-.7-1.5-1.7-2.7-2.8-4-.9-1.1-1.8-2.3-2.6-3.6-2.6-4.5-4.4-9-6.1-13.3-3.1-7.8-6-15.1-13.2-21.7-8.5-7.8-19.8-13.6-30.7-19.1-4.4-2.2-8.5-4.3-12.4-6.5-4.4-2.4-9.3-5.2-14.5-5.8-1.1-.1-2.3-.2-3.6-.2ZM90,198.7h0,0ZM123.2,374.5c-1,0-1.9,0-2.8-.1l-1.9-.2c-7.4-.7-15-1.5-20.1-8.3-3.1-4-3-10.2-2.9-15.7,0-1.8,0-3.5,0-5-.4-6.2-.5-12.6-.5-18.8,0-1.7.3-3.6.5-5.6.3-2.3.6-4.7.5-6.7-1,.8-2.7,2.2-3,2.7-.1.7-.8,1.1-1.6,1-.7-.2-1.2-1-1-1.7.5-2.6,1.3-5.1,2.4-7.6l-3.7-.5c-.5,0-1.3-.2-1.9-.8-.8-.8-1-2.3.6-4.1l3.2-3.4c-.9,0-2.3,0-3-1.1-1-1.6.7-3.7,3.4-6.7.4-.5.8-.8.9-1.1,1.1-1.5,2.2-3,2.7-4.7.3-1,.4-2.1.4-3.3v-.7c.2-1.8.5-3.5.8-5.1.4-2.1.8-4.2.8-6.2,0-5.4.2-9.9.7-14,.4-3.7,1-7.5,3.1-10.7,4.2-6.3,13-6.1,19.2-5.3,1.6.2,3.9.9,6.5,1.7,3.6,1.1,8.8,2.7,11.3,2.3,0,0,0-.1,0-.2-.2-.5-.1-1,.2-1.4.3-.4.8-.6,1.3-.5,2.7.5,5.7,1.5,9.1,3.1h0c2.2,1,4.3,2.1,6.3,3.1.5.2.8.7.7,1.3,0,.5-.4,1-.8,1.2l-.7.3c5.2,2.6,13.6,8,13.7,8.1,4.4,4.1,7.4,10.1,9.2,18.3,4.4,20.3,4.3,38.2-.1,56.3,0,.2-.1.3-.2.4-.2.4-.6,1.4-1,2.5-1.6,4-2.2,5.5-2.6,6-.8,1-1.7,1.7-2.6,2.5-.3.2-.5.4-.8.6.2,0,.4.3.6.5.4.5.3,1.2,0,1.6l-3.9,4.9c.6,0,1.2,0,1.8,0,.5,0,.9.3,1.1.8.2.4.2.9,0,1.3-2.6,3.9-5.6,7.5-9,10.8-.4.4-1,.5-1.5.3-.5-.2-.8-.7-.8-1.3v-2.8c-3.2,2.7-6.7,5.3-10.2,7.7-.4.3-1,.3-1.5,0-.5-.3-.7-.8-.7-1.3v-1.1c-6.2,4.3-15.1,6.6-22,6.6ZM97,310c.1,0,.2,0,.4,0,.5.1.8.5,1,1,.7,2.9.3,6.5-.2,10-.2,1.9-.5,3.7-.5,5.3,0,6.2.1,12.5.5,18.7,0,1.6,0,3.4,0,5.2,0,5-.2,10.7,2.3,14,4.4,5.8,11.1,6.5,18.2,7.2l1.9.2c7.3.8,18.8-1.9,25.3-7.7.4-.4,1-.5,1.5-.2.5.2.8.8.7,1.3v1.3c3.4-2.5,6.7-5.1,9.9-7.9.4-.4,1-.4,1.5-.2.5.2.8.7.8,1.3v2.4c1.6-1.9,3.2-3.8,4.7-5.9-.7,0-1.3,0-2,0-.5,0-1.1-.2-1.3-.7-.3-.5-.2-1.1.1-1.5l4.1-5.1c-.1,0-.2,0-.3-.2-.4-.2-.6-.5-.7-.9,0-.4,0-.8.2-1.1,1-1.3,2.1-2.2,3.1-3,.8-.7,1.5-1.3,2.2-2.1.3-.5,1.5-3.6,2.2-5.3.5-1.4.9-2.2,1.1-2.8,4.3-17.7,4.3-35.1,0-55-1.6-7.6-4.4-13.3-8.4-16.9-1.2-1.1-13.7-8.2-15.4-8.9-.4,0-.8-.4-1-.8-.3-.7,0-1.5.7-1.8h0l.7-.3c-1.2-.6-2.3-1.2-3.6-1.7h0c-2.3-1-4.4-1.8-6.4-2.4,0,.3-.3.6-.6.8-3,2-8.9.2-14.6-1.6-2.4-.7-4.6-1.4-6-1.6-5.5-.6-13.2-.9-16.6,4.2-1.8,2.6-2.3,6-2.7,9.5-.4,4-.7,8.4-.6,13.7,0,2.3-.4,4.6-.8,6.7-.3,1.6-.6,3.2-.7,4.8v.7c-.1,1.2-.2,2.5-.6,3.8-.6,2.1-1.9,3.9-3.1,5.6-.2.3-.6.7-1.1,1.3-.6.7-2,2.2-2.6,3.2,0,0,.1,0,.2,0,1.1,0,2.8-.1,3.7,1.5.3.5.2,1.1-.2,1.5l-4.6,4.9c-.1.1-.2.3-.3.4l5.4.8c.4,0,.8.3,1,.7.2.4.2.8,0,1.2-.6,1.3-1.2,2.6-1.6,4,0,0,.1-.1.2-.2.7-.5,1.3-1,1.5-1.3.3-.3.6-.4,1-.4Z"/>
          </g>
        </g>
        <path d="M52.8,266.1c.5-.5,1.3-.7,2-.8,2.2-.4,4.5-.1,6.6.7.8.3,1.6.7,2.4.5.9-.3,1.5-1.2,1.8-2.1.5-1.2.8-2.4,1.1-3.7.2-.8.3-1.7.8-2.3.5-.6,1.5-1,2.2-.4.3.3.5.7.6,1.2.8,3.1.9,6.3.5,9.4-.2,1.6-.6,3.4.2,4.8.6,1.1,1.8,1.8,2.6,2.8.7.9,1,2.1,1.2,3.2.5,2.1.9,4.8-.9,6.1-1.4.9-3.2.4-4.8.9-2.2.6-3.5,3-4.1,5.3-.6,2.3-.7,4.7-2,6.7-.6.9-1.6,1.8-2.7,1.5-1.3-.3-1.6-2-2-3.4-1.1-3.8-3.6-4.3-6.6-6-4.6-2.7-3-2-.6-6.3s-2.7-13.8,1.7-18Z" style="fill: #584e3a;"/>
        <path d="M84.6,367.6c1.9.5,3.8,1.3,5.8,1.4,1.1,0,2.2,0,3.1.5.5.3.8.8,1.2,1.3,1.3,1.7,3,3.1,5,4,2.6,1.2,5.7,1.6,8,3.3.7.5,1.3,1.4.9,2.1-.2.4-.7.6-1.2.8-2.5.7-5.2.7-7.7,0,1.2,1.3,2.8,2.3,4.6,2.6-2.2,1.4-5.2.5-7.4-.9-2.2-1.4-4.1-3.4-6.5-4.4-3.9-1.6-11.1-.3-13.5-4.9-2.7-5.2,3.6-7,7.6-5.9Z" style="fill: #584e3a;"/>
        <path d="M123.1,224.9c3.2-1.1,6.5,1.1,9.3,3.1.2.2.5.3.8.2.3-.1.4-.4.4-.7.2-.8.3-1.5.5-2.3,1.6.7,3.1,1.5,4.6,2.3,4.4,2.3,8.8,4.6,13.3,6.9.9.5,2,1.2,2,2.2,0,.9-.8,1.7-1.7,1.8s-1.8,0-2.7-.3c-3.4-1-6.6-2.4-9.7-4.1.1.9-.7,1.6-1.6,1.7s-1.7-.3-2.5-.6c-3.8-1.7-14.3-4.2-12.6-10.3Z" style="fill: #584e3a;"/>
        <path d="M192.8,279.7c.3-.6.8-1,1.2-1.6,1-1.7.5-3.8.1-5.7-.5-2.7-.5-5.5,0-8.3.8-.5,1.7.5,2.2,1.3,1.2,2.4,2.5,4.7,3.7,7.1.8-1.3,1.5-2.6,2.3-3.9,2,3.4,3,7.4,4,11.3,1.3,5.1,2.6,10.3,3.9,15.4-1.7-1.3-3-3.2-3.7-5.2-.6,2.3-1.2,4.6-1.9,6.8-.5,1.8-1.6,4-3.5,3.6.3,0-3.6-10.3-4.3-11.2-1.8-2.5-6.1-6.1-4-9.6Z" style="fill: #584e3a;"/>
        <path d="M205.7,320.3h0c-.8,0-1.3-.6-1.3-1.4.3-11.6-1.3-23-5-33.9-.2-.7.2-1.5.9-1.7.7-.2,1.5.2,1.7.9,3.7,11.3,5.4,23,5.1,34.9,0,.7-.6,1.3-1.4,1.3Z"/>
        <g>
          <g>
            <g>
              <path d="M57,166.5c-.6-.2-1.4-.4-1.9,0-.3.3-.3.7-.3,1.1,0,2.7,1.8,5.3,4.4,6.1-.9.4-1.8.4-2.7.7-.9.3-1.8,1-1.7,1.9,0,1.1,1.3,1.8,2.3,2.1,2.2.6,4.6.7,6.8.2,3.2-.7,3.1,1.4,5.2,3.1,2,1.7,4.4,3,6.9,3.9,1.4.5,2.9.8,4.4.8,3.9-.1,8-2.8,10.3-5.8,1.8-2.3,2.8-5,4.3-7.4.7-1.1,1.1-1.5,2.2-2.1.9-.5,2.1-2.3,3-2.5-.8.2-1.6,0-2.2-.5-.7-.4-1.3-.9-2-1.3-2-1.1-4.6-2-6.9-1.6-2.9.5-4.8,3.1-7.3,4.6-1.9,1.1-4.4,1.8-6.6,1.6-2.5-.2-5,.2-7.4-.2-3.6-.6-7.3-3.5-10.9-4.7Z" style="fill: #008eff;"/>
              <path d="M80.2,187.8c-1.4,0-2.9-.3-4.6-.8-2.7-.9-5.2-2.3-7.4-4.1-.8-.6-1.3-1.3-1.7-1.8-.8-1-1-1.3-2.4-1-2.4.5-5,.4-7.4-.2-2.1-.6-3.3-1.8-3.4-3.4,0-1.5,1.2-2.7,2.4-3.2-1.5-1.5-2.4-3.5-2.4-5.7,0-.3,0-1.3.7-2,.7-.8,1.8-.9,3.3-.4h0c1.5.5,3.1,1.3,4.6,2.1,2,1.1,4.1,2.2,6,2.5,1.3.2,2.6.2,4,.1,1.1,0,2.2,0,3.3,0,1.9.1,4.1-.4,5.8-1.4.8-.5,1.5-1.1,2.3-1.7,1.6-1.3,3.2-2.6,5.4-3,3.2-.6,6.5,1,7.8,1.7.4.2.8.5,1.2.8.3.2.5.4.8.6.5.3.9.4,1.2.3.7-.2,1.5.3,1.6,1,.2.7-.3,1.5-1,1.6-.2,0-.8.7-1.1,1-.5.5-1,1-1.6,1.3-.9.5-1.2.7-1.7,1.6-.6.9-1.1,1.9-1.6,2.9-.8,1.6-1.7,3.2-2.8,4.7-2.4,3.1-6.8,6.2-11.3,6.3,0,0-.2,0-.3,0ZM65,177.2c2,0,2.9,1.1,3.7,2.1.4.5.7,1,1.3,1.4,1.9,1.6,4.1,2.8,6.5,3.6,1.5.5,2.8.7,3.9.7,3.6,0,7.3-2.7,9.3-5.3,1-1.3,1.8-2.7,2.6-4.3.5-1,1.1-2,1.7-3,.8-1.3,1.5-1.9,2.7-2.5.2-.1.5-.4.8-.7-.3-.2-.7-.4-1-.7-.3-.2-.6-.4-.9-.6-2.1-1.2-4.4-1.7-6-1.4-1.5.3-2.8,1.3-4.2,2.4-.8.7-1.7,1.4-2.7,2-2.2,1.3-5,2-7.4,1.8-1,0-2,0-3.1,0-1.4,0-2.9,0-4.5-.2-2.3-.4-4.7-1.6-6.9-2.8-1.5-.8-2.9-1.5-4.2-2-.2,0-.3,0-.4-.1,0,0,0,0,0,0,0,2.1,1.5,4.2,3.5,4.8.5.2.9.7,1,1.2,0,.6-.3,1.1-.8,1.3-.6.3-1.3.4-1.8.5-.3,0-.7.1-1,.2-.5.2-.8.5-.8.6,0,.2.5.6,1.3.8,2,.5,4.1.6,6.2.2.5-.1,1-.2,1.4-.2Z"/>
            </g>
            <g>
              <path d="M84.6,173.1c-1.6-.2-3-1-4.1-2.1s-2.1-2.4-3-3.6c-.6-.7-1.2-1.5-2.1-1.8-.9-.3-1.9,0-2.9.2-2.1.3-4.2-.3-6.4-.6-.8-.1-1.6-.3-2.4,0s-1.5.8-1.7,1.6c-.2,1.1.7,2,1.5,2.6,1,.7,2,1.4,3.1,1.9-.8.9-1.4,1.9-1.7,3,0,.3-.1.5,0,.8,0,.3.3.5.6.6,1.7,1.2,3.8,1.7,5.9,1.5-.3.8-.7,1.8-.2,2.5.4.5,1,.7,1.6.8,1.5.2,3-.2,4.2-1-.1.6.3,1.2.9,1.4s1.2,0,1.8,0c1.4-.4,2.6-1.2,3.7-2.2" style="fill: #008eff;"/>
              <path d="M78.4,182.2c-.4,0-.7,0-1.1-.2-.5-.2-.9-.4-1.2-.8-1.1.4-2.4.6-3.6.5-1.2-.1-2.1-.6-2.6-1.3-.4-.6-.5-1.3-.5-1.9-1.7-.1-3.4-.7-4.9-1.8-.3-.2-.8-.6-1.1-1.3-.2-.7,0-1.3,0-1.6.2-.8.6-1.5,1-2.2-.6-.4-1.3-.8-1.9-1.3-2-1.5-2.2-3-2-4,.2-1.3,1.3-2.3,2.7-2.7,1.1-.3,2.1-.1,3,0l1,.2c1.7.3,3.3.6,4.9.4.2,0,.4,0,.6-.1.9-.2,1.8-.3,2.9,0,1.3.4,2.1,1.3,2.8,2.2l.7.9c.7,1,1.4,1.9,2.2,2.6.8.7,2,1.6,3.4,1.8.7,0,1.3.7,1.2,1.5,0,.7-.8,1.3-1.5,1.2-1.7-.2-3.4-1-4.9-2.5-1-.9-1.8-2-2.5-3l-.6-.8c-.4-.5-.9-1.1-1.5-1.3-.4-.1-1,0-1.6,0-.2,0-.5,0-.7.1-2,.3-3.9,0-5.8-.4l-1-.2c-.6-.1-1.3-.2-1.8,0-.4,0-.6.3-.7.5,0,.2.2.7,1,1.3.9.7,1.8,1.3,2.8,1.7.4.2.7.5.8,1,0,.4,0,.9-.3,1.2-.6.7-1.1,1.5-1.4,2.4,1.5,1,3.2,1.4,4.9,1.2.5,0,1,.1,1.3.5.3.4.4.9.2,1.3-.4,1-.3,1.2-.3,1.2h0s.1.1.7.2c1.1.1,2.3-.2,3.3-.8.5-.3,1.1-.3,1.5,0,.4.3.6.7.6,1.2.2,0,.5,0,.9,0,1.2-.3,2.2-1,3.1-1.8.5-.5,1.4-.5,1.9,0,.5.5.5,1.4,0,1.9-1.2,1.2-2.6,2-4.2,2.5-.4.1-.9.2-1.5.2Z"/>
            </g>
            <circle cx="91" cy="169.2" r=".8"/>
          </g>
          <g>
            <g>
              <path d="M184.6,134.3c.6-.1,1.4-.2,1.8.4.2.3.2.7.2,1.1-.3,2.7-2.6,5-5.3,5.4.8.5,1.7.7,2.6,1.1.8.4,1.6,1.3,1.4,2.2-.2,1.1-1.5,1.6-2.6,1.7-2.3.3-4.6,0-6.8-.8-3.1-1.1-3.3.9-5.6,2.3s-4.8,2.3-7.4,2.8c-1.5.3-3,.4-4.5.1-3.9-.7-7.5-4-9.3-7.3-1.4-2.5-2-5.3-3.2-8-.5-1.2-.9-1.6-1.8-2.4s-1.8-2.6-2.6-2.9c.7.3,1.6.1,2.3-.1s1.4-.7,2.1-1c2.1-.8,4.9-1.3,7-.6,2.8,1,4.3,3.8,6.5,5.6,1.7,1.4,4.1,2.4,6.3,2.6s4.9.9,7.4.9c3.6,0,7.8-2.3,11.4-3Z" style="fill: #008eff;"/>
              <path d="M160.2,152c-.7,0-1.4,0-2-.2-4.5-.8-8.4-4.6-10.3-8-.9-1.6-1.5-3.4-2.1-5-.4-1-.7-2.1-1.1-3-.4-.9-.7-1.2-1.5-1.9-.5-.4-.9-1-1.3-1.6-.3-.4-.8-1.1-1-1.2-.7-.3-1-1.1-.7-1.8.3-.7,1.1-1,1.8-.7.3.1.7,0,1.3-.1.3-.1.6-.3.9-.4.4-.2.8-.4,1.3-.6,1.4-.5,4.9-1.6,8-.6,2.1.7,3.5,2.3,4.9,3.8.7.8,1.3,1.5,2,2,1.6,1.3,3.7,2.1,5.6,2.3,1.1,0,2.2.3,3.3.4,1.4.2,2.6.4,4,.4,1.9,0,4.2-.8,6.4-1.6,1.6-.6,3.3-1.1,4.8-1.4,1.5-.3,2.5,0,3.2.9.6.8.5,1.8.4,2.1-.3,2.1-1.5,4-3.2,5.2,1.2.7,2.2,2,1.9,3.5-.3,1.5-1.7,2.6-3.8,2.8-2.5.3-5,0-7.4-.9-1.3-.5-1.5-.3-2.5.6-.5.5-1.1,1-1.9,1.6-2.4,1.5-5.1,2.5-7.9,3-1,.2-2,.3-2.9.3ZM144.3,131.1c.2.3.5.6.6.8,1.1.9,1.6,1.5,2.2,2.9.5,1.1.8,2.1,1.2,3.2.6,1.6,1.1,3.2,1.9,4.6,1.6,2.8,4.8,6,8.4,6.6,1.1.2,2.4.2,4-.1,2.5-.4,4.8-1.3,7-2.6.6-.4,1-.8,1.5-1.2,1.1-1.1,2.4-2.3,5.3-1.2,1.9.7,4.1,1,6.1.7.9-.1,1.4-.4,1.4-.6,0-.1-.2-.5-.7-.7-.3-.2-.6-.3-1-.4-.5-.2-1.1-.4-1.7-.8-.5-.3-.7-.9-.6-1.4s.6-1,1.1-1.1c2.1-.3,3.9-2.2,4.1-4.2,0,0,0,0,0,0,0,0-.2,0-.4,0h0c-1.4.3-2.9.8-4.5,1.3-2.4.8-4.9,1.7-7.2,1.7,0,0,0,0,0,0-1.5,0-3-.2-4.4-.5-1-.2-2-.3-3-.4-2.4-.2-5.1-1.2-7.1-2.9-.9-.7-1.6-1.5-2.3-2.3-1.2-1.3-2.3-2.5-3.7-3-1.5-.5-3.8-.3-6.1.5-.3.1-.7.3-1,.5-.4.2-.7.4-1.1.5ZM184.6,134.3h0,0Z"/>
            </g>
            <g>
              <path d="M155.9,136.3c1.5-.6,2.6-1.8,3.5-3.1.8-1.3,1.4-2.8,2-4.3.4-.9.8-1.8,1.6-2.2.8-.5,1.9-.5,2.9-.6,2.1-.2,4-1.3,6-2.2.7-.3,1.5-.7,2.3-.7.8,0,1.7.4,2,1.1.4,1-.1,2.1-.8,2.9-.7,1-1.6,1.8-2.5,2.6,1,.6,1.8,1.5,2.4,2.5.1.2.3.5.3.7,0,.3-.2.5-.4.8-1.3,1.6-3.2,2.6-5.3,2.9.5.7,1.1,1.6.8,2.4-.2.6-.8.9-1.4,1.1-1.4.5-2.9.6-4.3,0,.3.5,0,1.2-.5,1.6s-1.1.4-1.8.4c-1.4,0-2.8-.5-4.1-1.2" style="fill: #008eff;"/>
              <path d="M163,143.6c0,0-.2,0-.3,0-1.7,0-3.3-.5-4.7-1.4-.6-.4-.9-1.2-.5-1.9.4-.6,1.2-.9,1.9-.5,1,.6,2.2,1,3.4,1,.5,0,.8,0,.9-.1-.2-.5,0-1,.2-1.3.4-.4,1-.6,1.5-.4,1.1.4,2.3.3,3.4,0,.4-.2.6-.3.6-.3,0,0,0-.3-.6-1.1-.3-.4-.4-.9-.2-1.3.2-.4.6-.8,1.1-.8,1.7-.2,3.3-1.1,4.4-2.4-.6-.9-1.2-1.5-2-2-.4-.2-.6-.6-.6-1.1s.2-.9.5-1.1c.9-.7,1.6-1.5,2.3-2.4.6-.8.7-1.3.6-1.5,0-.2-.4-.4-.8-.3-.5,0-1.2.3-1.8.5l-.9.4c-1.7.8-3.5,1.7-5.5,1.9-.2,0-.5,0-.7,0-.6,0-1.2,0-1.6.3-.5.3-.8,1-1.1,1.6l-.4.9c-.5,1.2-1,2.4-1.7,3.5-1.1,1.8-2.5,3.1-4.1,3.7-.7.3-1.5,0-1.8-.8s0-1.5.8-1.8c1.3-.5,2.2-1.7,2.8-2.6.6-1,1-2,1.5-3.2l.4-1c.3-.7.9-2.1,2.2-2.9.9-.6,1.9-.6,2.8-.7.2,0,.4,0,.6,0,1.5-.2,3-.9,4.6-1.6l1-.5c.8-.4,1.8-.8,2.9-.8h0c1.4,0,2.7.7,3.2,1.9.4.9.6,2.4-1,4.3-.5.6-1,1.2-1.5,1.7.6.6,1.1,1.2,1.5,1.9.2.4.5.9.5,1.5,0,.8-.5,1.3-.7,1.6-1.1,1.3-2.6,2.4-4.3,2.9.2.6.3,1.2,0,1.9-.3.9-1.1,1.5-2.2,1.9-1.2.4-2.4.6-3.6.5-.2.4-.5.8-.9,1.1-.8.5-1.6.6-2.3.6Z"/>
            </g>
            <circle cx="150.6" cy="131.9" r=".8"/>
          </g>
          <g>
            <g>
              <path d="M52.7,132.2c.6-.4,1.3-.7,1.8-.4.3.2.5.6.6,1,.7,2.6-.5,5.6-2.9,7,.9.2,1.9,0,2.8,0s2,.6,2.2,1.5c.2,1.1-.8,2-1.8,2.6-2,1.1-4.3,1.7-6.6,1.8-3.3.1-2.7,2-4.3,4.2-1.6,2.1-3.6,4-5.8,5.4-1.3.8-2.6,1.5-4.1,1.8-3.8.8-8.4-.9-11.4-3.3-2.2-1.8-3.9-4.2-5.9-6.2-.9-.9-1.5-1.2-2.6-1.5-1-.3-2.6-1.7-3.5-1.7.8,0,1.5-.5,2.1-1s1-1.2,1.6-1.7c1.6-1.5,4-3,6.3-3.2,2.9-.2,5.4,1.9,8.1,2.8,2.1.7,4.7.7,6.8,0,2.3-.8,4.9-1,7.2-1.9,3.3-1.4,6.3-5.1,9.5-7.1Z" style="fill: #008eff;"/>
              <path d="M32.6,158.6c-3.8,0-7.7-1.7-10.2-3.8-1.5-1.2-2.7-2.6-3.8-3.9-.7-.8-1.4-1.6-2.2-2.4-.7-.7-1.1-.9-2-1.2-.6-.2-1.2-.6-1.8-.9-.4-.3-1.1-.7-1.4-.7-.8,0-1.3-.6-1.3-1.4,0-.7.6-1.4,1.4-1.4h0c.3,0,.7-.2,1.1-.6.2-.2.4-.5.7-.7.3-.4.6-.7,1-1,1.1-1,3.9-3.3,7.2-3.5,2.2,0,4.1.8,5.9,1.7.9.4,1.8.9,2.6,1.1,1.9.6,4.2.6,6,0,1.1-.4,2.2-.6,3.2-.8,1.4-.3,2.6-.6,3.8-1.1,1.8-.7,3.6-2.3,5.3-3.8,1.3-1.1,2.6-2.3,4-3.1h0c1.3-.8,2.4-.9,3.3-.4.8.5,1.1,1.5,1.2,1.8.5,2,.1,4.3-1,6.1,1.3.2,2.8,1,3.1,2.5.3,1.5-.6,3-2.5,4.1-2.2,1.2-4.7,1.9-7.2,1.9-1.4,0-1.5.3-2.1,1.5-.3.6-.6,1.4-1.2,2.2-1.7,2.3-3.8,4.2-6.2,5.7-1.6,1-3.1,1.6-4.5,1.9-.8.2-1.5.2-2.3.2ZM14.2,144.3c.3.2.7.4.9.5,1.3.4,2.1.8,3.2,1.9.8.8,1.6,1.7,2.3,2.5,1.1,1.3,2.2,2.5,3.5,3.6,2.5,2,6.7,3.7,10.2,3,1.1-.2,2.3-.8,3.7-1.6,2.1-1.3,4-3,5.5-5,.4-.6.7-1.1.9-1.7.6-1.4,1.4-3,4.5-3.1,2.1,0,4.1-.6,6-1.6.8-.4,1.2-.9,1.1-1.1,0-.1-.4-.4-.9-.4-.4,0-.7,0-1,0-.6,0-1.2,0-1.9,0-.6,0-1-.5-1.1-1.1,0-.6.2-1.1.7-1.4,1.8-1.1,2.8-3.4,2.2-5.5h0c0,0-.2,0-.4.2h0c-1.2.8-2.4,1.8-3.6,2.9-1.9,1.7-3.9,3.4-6.1,4.3-1.4.6-2.9.9-4.3,1.2-1,.2-2,.4-3,.7-2.3.8-5.2.8-7.7,0-1.1-.3-2.1-.8-3-1.3-1.6-.8-3.1-1.5-4.6-1.4-1.6,0-3.7,1.1-5.5,2.8-.3.3-.5.5-.8.8-.3.3-.5.6-.8.9Z"/>
            </g>
            <g>
              <path d="M26.9,144.8c1.2-1.1,1.8-2.6,2-4.2s.2-3.2.3-4.7c0-.9.1-1.9.7-2.7.6-.8,1.6-1.1,2.4-1.6,1.9-1,3.3-2.7,4.7-4.3.6-.6,1.2-1.2,1.9-1.5.8-.3,1.7-.3,2.3.3.8.7.6,2,.4,3-.3,1.2-.8,2.3-1.4,3.4,1.2.2,2.3.7,3.2,1.4.2.2.4.3.5.6,0,.3,0,.6,0,.8-.6,2-2,3.7-3.8,4.7.7.4,1.6,1,1.6,1.9,0,.6-.4,1.2-.8,1.6-1.1,1-2.5,1.6-4,1.7.5.4.5,1.2.1,1.7s-.9.8-1.5,1c-1.3.5-2.8.6-4.2.4" style="fill: #008eff;"/>
              <path d="M32.5,149.7c-.5,0-1,0-1.4-.1-.7-.1-1.3-.8-1.2-1.5.1-.7.8-1.2,1.5-1.2,1.2.2,2.4,0,3.6-.4.4-.2.7-.3.8-.5-.3-.4-.4-.9-.3-1.3.2-.5.7-.9,1.2-.9,1.1,0,2.3-.6,3.1-1.3.4-.4.4-.5.4-.5h0s0-.2-.9-.8c-.4-.2-.7-.7-.7-1.2s.3-.9.7-1.2c1.5-.8,2.6-2.3,3.2-3.9-.8-.6-1.7-.9-2.6-1.1-.4,0-.8-.4-1-.7-.2-.4-.2-.8,0-1.2.5-1,.9-2,1.2-3.1.3-1,.2-1.5,0-1.7-.1-.1-.5-.2-.8,0-.5.2-1,.7-1.4,1.2l-.7.8c-1.3,1.4-2.6,2.8-4.4,3.8-.2.1-.4.2-.7.3-.6.3-1.1.5-1.4.9-.3.4-.4,1.2-.4,1.9v1c0,1.3,0,2.6-.3,3.9-.4,2.1-1.2,3.8-2.5,5-.5.5-1.4.5-1.9,0-.5-.6-.5-1.4,0-1.9,1-.9,1.4-2.4,1.6-3.4.2-1.1.2-2.3.2-3.5v-1.1c0-1.2.2-2.4,1-3.5.7-.9,1.5-1.3,2.3-1.7.2,0,.4-.2.6-.3,1.4-.7,2.5-2,3.7-3.3l.7-.8c.6-.7,1.4-1.4,2.4-1.8,1.3-.6,2.8-.3,3.7.5.7.7,1.4,2,.7,4.4-.2.7-.5,1.4-.7,2.1.7.3,1.5.7,2.1,1.2.2.2.8.6,1,1.2.2.6,0,1.3,0,1.7-.5,1.7-1.5,3.2-2.9,4.3.4.5.7,1.1.7,1.8,0,.9-.4,1.8-1.3,2.6-.9.8-2,1.4-3.2,1.8,0,.5-.2.9-.5,1.3-.6.9-1.5,1.3-2.1,1.5-1.1.4-2.3.6-3.5.6Z"/>
            </g>
            <circle cx="20.3" cy="142.7" r=".8"/>
          </g>
          <g>
            <polygon points="95.8 113.9 98.7 119.8 105.3 120.8 100.5 125.4 101.6 131.9 95.8 128.8 89.9 131.9 91 125.4 86.3 120.8 92.8 119.8 95.8 113.9" style="fill: #ffc200;"/>
            <path d="M101.6,133.3c-.2,0-.4,0-.6-.2l-5.2-2.8-5.2,2.8c-.5.2-1,.2-1.4-.1-.4-.3-.6-.8-.5-1.3l1-5.8-4.2-4.1c-.4-.4-.5-.9-.3-1.4.2-.5.6-.9,1.1-.9l5.9-.9,2.6-5.3c.5-.9,2-.9,2.4,0l2.6,5.3,5.9.9c.5,0,.9.4,1.1.9.2.5,0,1-.3,1.4l-4.2,4.1,1,5.8c0,.5-.1,1-.5,1.3-.2.2-.5.3-.8.3ZM95.8,127.5c.2,0,.4,0,.6.2l3.4,1.8-.7-3.8c0-.4,0-.9.4-1.2l2.8-2.7-3.8-.6c-.4,0-.8-.3-1-.7l-1.7-3.5-1.7,3.5c-.2.4-.6.7-1,.7l-3.8.6,2.8,2.7c.3.3.5.8.4,1.2l-.7,3.8,3.4-1.8c.2-.1.4-.2.6-.2Z"/>
          </g>
          <g>
            <polygon points="148.4 160.4 151.3 166.4 157.9 167.3 153.2 171.9 154.3 178.5 148.4 175.4 142.5 178.5 143.7 171.9 138.9 167.3 145.5 166.4 148.4 160.4" style="fill: #ffc200;"/>
            <path d="M154.3,179.8c-.2,0-.4,0-.6-.2l-5.2-2.8-5.2,2.8c-.5.2-1,.2-1.4-.1-.4-.3-.6-.8-.5-1.3l1-5.8-4.2-4.1c-.4-.4-.5-.9-.3-1.4.2-.5.6-.9,1.1-.9l5.9-.9,2.6-5.3c.2-.5.7-.8,1.2-.8h0c.5,0,1,.3,1.2.8l2.6,5.3,5.9.9c.5,0,.9.4,1.1.9.2.5,0,1-.3,1.4l-4.2,4.1,1,5.8c0,.5-.1,1-.5,1.3-.2.2-.5.3-.8.3ZM148.4,174c.2,0,.4,0,.6.2l3.4,1.8-.7-3.8c0-.4,0-.9.4-1.2l2.8-2.7-3.8-.6c-.4,0-.8-.3-1-.7l-1.7-3.5-1.7,3.5c-.2.4-.6.7-1,.7l-3.8.6,2.8,2.7c.3.3.5.8.4,1.2l-.7,3.8,3.4-1.8c.2-.1.4-.2.6-.2Z"/>
          </g>
          <path d="M135.5,132.6c-.2,0-.4,0-.6-.1-7.8-3.9-27.7-4.4-27.9-4.4-.8,0-1.3-.6-1.3-1.4,0-.7.6-1.3,1.4-1.3h0c.8,0,20.7.5,29.1,4.7.7.3.9,1.2.6,1.8-.2.5-.7.7-1.2.7Z"/>
          <path d="M61.1,134.1c-.6,0-1.2-.4-1.3-1-.2-.7.3-1.5,1-1.6,10.4-2.6,19.6-3.7,19.7-3.7.7,0,1.4.4,1.5,1.2,0,.7-.4,1.4-1.2,1.5,0,0-9.2,1.2-19.4,3.7-.1,0-.2,0-.3,0Z"/>
          <path d="M49.7,179.8c0,0-.2,0-.2,0-.4,0-11.1-2-19.9-7.8-3.5-2.3-5.4-4.9-5.6-7.5-.2-3,2-5,2.1-5,.6-.5,1.4-.4,1.9.1.5.6.4,1.4-.1,1.9,0,0-1.3,1.2-1.1,2.8.1,1.7,1.6,3.6,4.4,5.4,8.4,5.5,18.8,7.4,18.9,7.4.7.1,1.2.8,1.1,1.6-.1.7-.7,1.1-1.3,1.1Z"/>
          <path d="M100.3,179c-.7,0-1.3-.6-1.4-1.3,0-.8.5-1.4,1.3-1.4.3,0,27.7-1.7,34.9-3.8.7-.2,1.5.2,1.7.9.2.7-.2,1.5-.9,1.7-7.6,2.3-34.4,3.9-35.5,4,0,0,0,0,0,0Z"/>
          <path d="M162.8,167.7c-.5,0-1-.3-1.2-.8-.3-.7,0-1.5.6-1.8,0,0,8.7-4.4,7.8-10.3-.1-.7.4-1.4,1.1-1.6.7-.1,1.4.4,1.6,1.1,1.2,7.8-8.9,12.9-9.3,13.1-.2,0-.4.1-.6.1Z"/>
        </g>
        <path d="M325.7,259.6c-1.3,0-2.3-.9-2.9-1.4-10.3-9.6-24.1-16.4-40.1-19.9-13.1-2.8-27.6-3.5-45.5-2.2-.7,0-1.4-.5-1.5-1.3,0-.8.5-1.4,1.3-1.5,18.2-1.4,32.8-.7,46.2,2.2,16.5,3.6,30.8,10.7,41.4,20.6,0,0,.3.2.4.4,0-.2,0-.5.2-.7.4-.6,1.2-.9,1.9-.5.8.4,1.1,1.3.9,2.2-.2,1.1-1.2,1.9-2.2,2,0,0-.1,0-.2,0Z"/>
      </g>
    </g>
  </g>
</svg>