<?xml version="1.0" encoding="utf-8"?>
<!-- Generator: Adobe Illustrator 23.0.3, SVG Export Plug-In . SVG Version: 6.00 Build 0)  -->
<svg version="1.1" id="Layer_1" xmlns="http://www.w3.org/2000/svg" xmlns:xlink="http://www.w3.org/1999/xlink" x="0px" y="0px"
	 viewBox="0 0 119 119" style="enable-background:new 0 0 119 119;" xml:space="preserve">
<style type="text/css">
	.st0{fill:#FFFFFF;}
	.st1{fill:#4F80FF;}
</style>
<title>toolbar / btn / print copy</title>
<desc>Created with Sketch.</desc>
<g>
	<g>
		<path id="Rectangle-11-Copy-2" class="st0" d="M59.5,0L59.5,0C92.4,0,119,26.6,119,59.5l0,0c0,32.9-26.6,59.5-59.5,59.5l0,0
			C26.6,119,0,92.4,0,59.5l0,0C0,26.6,26.6,0,59.5,0z"/>
		<path id="Shape" class="st1" d="M82.7,75.1v-7.6c0-4.2-3.4-7.6-7.6-7.6H44.9c-4.2,0-7.6,3.4-7.6,7.6v7.6H30c-2.2,0-4-1.8-4-4V56.6
			c0-4.4,3.5-7.9,7.9-7.9h52.2c4.4,0,7.9,3.5,7.9,7.9v14.6c0,2.2-1.8,4-4,4H82.7z M41.3,26h37.4c2.2,0,4,1.8,4,4v14.9H37.3V30
			C37.3,27.8,39.1,26,41.3,26z M44.9,63.8h30.2c2.1,0,3.8,1.7,3.8,3.8v22.7c0,2.1-1.7,3.8-3.8,3.8H44.9c-2.1,0-3.8-1.7-3.8-3.8V67.6
			C41.1,65.5,42.8,63.8,44.9,63.8z"/>
	</g>
</g>
</svg>
