<?xml version="1.0" encoding="utf-8"?>
<!-- Generator: Adobe Illustrator 26.0.3, SVG Export Plug-In . SVG Version: 6.00 Build 0)  -->
<svg version="1.1" id="레이어_1" xmlns="http://www.w3.org/2000/svg" xmlns:xlink="http://www.w3.org/1999/xlink" x="0px"
	 y="0px" viewBox="0 0 208 182" style="enable-background:new 0 0 208 182;" xml:space="preserve">
<style type="text/css">
	.st0{fill:#212121;}
	.st1{fill:#454545;}
	.st2{fill:#FFD000;}
	.st3{fill:#FFFFFF;}
	.st4{fill-rule:evenodd;clip-rule:evenodd;}
	.st5{fill:#850404;}
	.st6{fill:#CFBB70;}
</style>
<g>
	<g>
		<rect x="68.5" y="133.6" class="st0" width="10.1" height="43.2"/>
		<path d="M79.4,177.6H67.8v-44.7h11.6V177.6z M69.3,176h8.5v-41.6h-8.5V176z"/>
	</g>
	<g>
		<path class="st0" d="M79.3,174.2c0-7.1-7.3-12.7-16-12.3c-8,0.4-14,6.1-14,12.7v0c0,3.5,3.5,6.4,7.8,6.4h14.5
			c4.3,0,7.8-2.8,7.8-6.4V174.2z"/>
		<path d="M71.5,181.8H57c-4.7,0-8.5-3.2-8.5-7.1c0-7.1,6.5-13,14.7-13.5c5-0.3,9.7,1.4,12.9,4.4c2.5,2.4,3.9,5.4,3.9,8.6v0.4
			C80,178.6,76.2,181.8,71.5,181.8z M64.3,162.7c-0.3,0-0.6,0-1,0c-7.4,0.4-13.3,5.6-13.3,11.9c0,3.1,3.1,5.6,7,5.6h14.5
			c3.8,0,7-2.5,7-5.6v-0.4c0-2.7-1.2-5.4-3.4-7.5C72.3,164.2,68.4,162.7,64.3,162.7z"/>
	</g>
</g>
<g>
	<g>
		<rect x="87.8" y="133.6" class="st0" width="10.1" height="43.2"/>
		<path d="M98.7,177.6H87v-44.7h11.6V177.6z M88.6,176h8.5v-41.6h-8.5V176z"/>
	</g>
	<g>
		<path class="st0" d="M109.3,174.2c0-7.1-7.3-12.7-16-12.3c-8,0.4-14,6.1-14,12.7v0c0,3.5,3.5,6.4,7.8,6.4h14.5
			c4.3,0,7.8-2.8,7.8-6.4V174.2z"/>
		<path d="M101.5,181.8H87c-4.7,0-8.5-3.2-8.5-7.1c0-7.1,6.5-13,14.7-13.5c5-0.3,9.7,1.4,12.9,4.4c2.5,2.4,3.9,5.4,3.9,8.6v0.4
			C110,178.6,106.2,181.8,101.5,181.8z M94.3,162.7c-0.3,0-0.6,0-1,0c-7.4,0.4-13.3,5.6-13.3,11.9c0,3.1,3.1,5.6,7,5.6h14.5
			c3.8,0,7-2.5,7-5.6v-0.4c0-2.7-1.2-5.4-3.4-7.5C102.3,164.2,98.4,162.7,94.3,162.7z"/>
	</g>
</g>
<g>
	<path class="st1" d="M38,101.1c-6-4.3-11.6-9.1-16.6-14.4C14.2,79.2,8,70.6,4.3,61s-4.8-20.5-2-30.4c2-7.1,6-13.5,11-19
		c2.7-3,5.8-5.7,9.4-7.5c6.7-3.4,14.6-3.3,22.1-3.2c3,0,6.3,0.2,8.7,2.1c0.5,0.4,1,1,1,1.7c-0.1,0.8-0.8,1.3-1.6,1.7
		c-1.8,0.8-3.8,1.3-5.7,1.4c1.9,0.4,3.9,1,5.1,2.4s1.1,4.2-0.7,4.9"/>
	<path d="M38,101.9c-0.2,0-0.3,0-0.4-0.1c-6-4.3-11.6-9.2-16.7-14.5c-8-8.4-13.8-17.2-17.2-26c-4-10.4-4.7-21.4-2-30.9
		C3.6,23.5,7.4,16.9,12.8,11c3.2-3.5,6.4-6,9.6-7.7c7-3.6,15.2-3.4,22.5-3.3c2.7,0,6.5,0.1,9.2,2.3c1.1,0.9,1.3,1.8,1.2,2.3
		c-0.1,0.9-0.7,1.7-2,2.3c-0.8,0.4-1.7,0.7-2.6,0.9c0.8,0.4,1.6,0.9,2.3,1.7c0.9,1,1.2,2.6,0.9,3.9c-0.3,1.1-0.9,1.9-1.9,2.2
		c-0.4,0.2-0.8,0-1-0.4c-0.2-0.4,0-0.8,0.4-1c0.6-0.2,0.8-0.8,0.9-1.2c0.2-0.8,0-1.9-0.6-2.5C50.7,9.3,49,8.8,47,8.4
		c-0.4-0.1-0.6-0.4-0.6-0.8c0-0.4,0.4-0.7,0.7-0.7c1.9-0.1,3.7-0.5,5.4-1.3c0.7-0.3,1.1-0.7,1.1-1c0-0.3-0.2-0.6-0.7-1
		c-2.1-1.7-5-1.9-8.2-1.9c-7.1-0.1-15-0.2-21.7,3.1c-3.1,1.5-6,3.9-9.1,7.3C8.7,17.7,5,24.2,3.1,30.7c-2.6,9.2-1.9,19.8,1.9,29.9
		c3.3,8.6,9,17.2,16.8,25.5c5,5.3,10.6,10.1,16.5,14.3c0.3,0.2,0.4,0.7,0.2,1.1C38.4,101.8,38.2,101.9,38,101.9z"/>
</g>
<g>
	<path class="st1" d="M129.4,92c-5-0.3-9.4-3.4-13.3-6.6c-5.9-4.9-11.4-10.3-16.5-16.1c-6.6-7.6-9.6-12.8-13.2-22.1
		c-3.3-8.6-6.9-17.3-11.8-25.1c-6.6-10.6-19.6-12-30.6-8.6c-21,6.4-19.2,30.8-10.7,46.8c3.6,6.7,0.3,14.6,0.7,22.2
		c0.4,7.3,0.8,14.6,3,21.6c4.4,14,16,25.1,29.4,31.1c3.4,1.5,6.9,2.7,10.5,3.4c16.2,3,32.6-5.2,45.1-16.1c4.4-3.8,8.5-8.2,10.5-13.7
		S133.9,95.7,129.4,92z"/>
	<path d="M84.2,139.9c-2.3,0-4.7-0.2-7.1-0.6c-3.4-0.6-6.9-1.8-10.7-3.4c-14.5-6.4-25.6-18.2-29.8-31.6c-2.2-7.1-2.7-14.5-3.1-21.8
		c-0.2-2.8,0.2-5.5,0.5-8.2c0.6-4.9,1.1-9.5-1.1-13.7c-7.6-14.3-6.9-27.6-3.9-34.7c2.7-6.5,7.8-11,15.1-13.2
		c16.1-4.9,26.8,1.4,31.5,9c5.1,8.2,8.7,17,11.8,25.3c3.6,9.5,6.6,14.6,13,21.9c5,5.8,10.5,11.1,16.4,16c3.8,3.2,8.1,6.2,12.8,6.5
		c0.2,0,0.3,0.1,0.4,0.2c4.9,4,5.4,12,3.5,17.5c-2.1,5.9-6.8,10.6-10.7,14C115.1,129.6,100.7,139.9,84.2,139.9z M54.8,12.5
		c-3.6,0-7.1,0.6-10.4,1.6c-6.8,2.1-11.6,6.2-14.1,12.3c-3.7,8.9-2.2,22,3.9,33.3c2.4,4.6,1.8,9.6,1.3,14.6c-0.3,2.6-0.6,5.4-0.5,8
		c0.4,7.1,0.8,14.5,3,21.4c4.1,12.9,14.9,24.4,29,30.6c3.7,1.6,7.1,2.7,10.4,3.3c8.1,1.5,24.6,1.4,44.4-15.9
		c4-3.5,8.3-7.8,10.3-13.4c1.7-4.9,1.3-12-2.8-15.7c-5.1-0.4-9.5-3.5-13.5-6.8c-5.9-4.9-11.5-10.3-16.6-16.1
		c-6.5-7.5-9.6-12.7-13.3-22.4c-3.1-8.2-6.7-16.9-11.7-25C69.6,15.1,62.2,12.5,54.8,12.5z"/>
</g>
<g>
	<line class="st2" x1="62.4" y1="26.3" x2="56.9" y2="23.8"/>
	<path d="M62.4,27.1c-0.1,0-0.2,0-0.3-0.1l-5.5-2.6c-0.4-0.2-0.6-0.6-0.4-1c0.2-0.4,0.6-0.6,1-0.4l5.5,2.6c0.4,0.2,0.6,0.6,0.4,1
		C63,26.9,62.7,27.1,62.4,27.1z"/>
</g>
<g>
	<line class="st2" x1="38.7" y1="21.4" x2="44.8" y2="21.2"/>
	<path d="M38.7,22.2c-0.4,0-0.8-0.3-0.8-0.8c0-0.4,0.3-0.8,0.8-0.8l6.1-0.2c0.4,0,0.8,0.3,0.8,0.8c0,0.4-0.3,0.8-0.8,0.8L38.7,22.2
		C38.7,22.2,38.7,22.2,38.7,22.2z"/>
</g>
<g>
	<g>
		<path class="st3" d="M39.5,21.7c0.7,0.2,1.4,0.4,2.1,0.6c1.1,0.3,1.8,0.7,2.5,1.7c0.3,0.5,0.5,1,0.5,1.5c-0.1,1.5-1.8,1.5-2.9,1.3
			c-2-0.4-4-0.8-6-1.2c-0.6-0.1-1.1-0.2-1.5-0.6c-0.4-0.4-0.5-1-0.4-1.6c0.1-0.8,0.4-2,1.3-2.3c1-0.4,2.1,0,3,0.3
			C38.5,21.4,39,21.5,39.5,21.7z"/>
		<path d="M42.7,27.6c-0.4,0-0.9-0.1-1.2-0.1l-6-1.2c-0.6-0.1-1.4-0.3-1.9-0.9c-0.5-0.5-0.8-1.4-0.7-2.3c0.2-1.5,0.9-2.5,1.8-2.9
			c1.1-0.4,2.2-0.1,3.2,0.2l3.8,1c1.4,0.4,2.2,0.9,2.9,2.1c0.5,0.7,0.7,1.3,0.6,2c0,0.8-0.4,1.3-0.8,1.6
			C44,27.5,43.3,27.6,42.7,27.6z M35.9,21.7c-0.2,0-0.4,0-0.7,0.1c-0.4,0.1-0.6,0.7-0.8,1.6c-0.1,0.4,0,0.8,0.2,1
			c0.2,0.2,0.7,0.3,1.1,0.4l6,1.2c0.8,0.2,1.5,0.1,1.8-0.1c0.1-0.1,0.2-0.2,0.2-0.4c0-0.3-0.1-0.7-0.4-1.1c-0.5-0.8-1-1.1-2-1.4
			l-3.8-1C37,21.8,36.5,21.7,35.9,21.7z"/>
	</g>
	<g>
		<circle class="st4" cx="39.3" cy="23.6" r="1.5"/>
	</g>
	<g>
		<path class="st3" d="M61.2,26.2c-0.7-0.1-1.4-0.2-2.1-0.3c-1.2-0.2-2-0.1-3,0.6c-1,0.7-1.6,2.4-0.4,3.3c0.4,0.3,1,0.4,1.6,0.5
			c1.8,0.2,3.6,0.5,5.3,1c0.9,0.2,1.9,0.5,2.7,0c0.9-0.6,1.3-2.3,0.8-3.2c-0.7-1.2-2.1-1.3-3.3-1.5C62.1,26.4,61.7,26.3,61.2,26.2z"
			/>
		<path d="M64.1,32.2c-0.6,0-1.3-0.2-1.8-0.3c-1.7-0.4-3.5-0.8-5.2-1c-0.6-0.1-1.3-0.2-1.9-0.6c-0.6-0.5-1-1.2-0.9-2.1
			c0-1,0.6-1.9,1.4-2.5c1.1-0.7,2.1-0.9,3.5-0.7l3.8,0.6c1.2,0.2,2.7,0.4,3.6,1.8c0.8,1.3,0.2,3.5-1,4.3
			C65.1,32.1,64.6,32.2,64.1,32.2z M58.2,26.6c-0.6,0-1.1,0.2-1.7,0.5c-0.4,0.3-0.7,0.8-0.7,1.2c0,0.3,0.1,0.6,0.3,0.8
			c0.3,0.2,0.7,0.3,1.2,0.3c1.8,0.2,3.7,0.6,5.4,1c0.7,0.2,1.5,0.4,2.1,0.1c0.5-0.3,0.8-1.6,0.5-2.2c-0.5-0.7-1.3-0.9-2.5-1.1
			l-3.8-0.6C58.6,26.6,58.4,26.6,58.2,26.6z"/>
	</g>
	<g>
		<circle class="st4" cx="60.6" cy="28" r="1.5"/>
	</g>
</g>
<g>
	<path class="st5" d="M34.6,55.7c3.7,1.2,7.6,2,11.5,2.3c0.8-6.2,4.5-11.7,5.9-17.8c-3-1-6.1-1.9-9.3-2.3c-1.9-0.3-4.9-0.7-6.7,0.1
		c-1.7,0.8-1.4,2.3-1,3.9C36,46.6,36.3,51.1,34.6,55.7z"/>
	<path d="M46.7,58.8L46,58.7c-4-0.3-7.9-1.1-11.7-2.3l-0.8-0.2l0.3-0.8c1.5-3.9,1.6-8,0.4-13.4c-0.4-1.6-0.9-3.8,1.5-4.8
		c2-0.9,5-0.4,6.9-0.2l0.2,0c3.2,0.4,6.4,1.4,9.4,2.4l0.7,0.2l-0.2,0.7c-0.7,2.7-1.7,5.4-2.8,7.9c-1.4,3.3-2.7,6.4-3.1,9.8
		L46.7,58.8z M35.6,55.2c3.2,1,6.5,1.6,9.9,1.9c0.6-3.3,1.8-6.4,3.1-9.5c0.9-2.3,1.9-4.6,2.5-7c-2.8-0.9-5.6-1.7-8.5-2.1l-0.2,0
		c-1.8-0.2-4.5-0.6-6.1,0.1c-1.1,0.5-1,1.2-0.6,3C36.9,47,36.9,51.2,35.6,55.2z"/>
</g>
<g>
	<g>
		<path class="st6" d="M44.4,46.4c-1.8,0-3.8-0.4-6.1-1.1c-1.3-0.4-2.6-0.9-3.9-1.4c-3.6-1.3-7.2-2.6-10.8-2.6c-0.5,0-1,0-1.4,0.1
			c-0.1,0-0.1,0-0.2,0c-0.7,0-1.4-0.4-1.8-1c-0.4-0.6-0.4-1.4,0-2.1c2.4-4.5,6.7-8.2,11.9-10.4c2.5-1,7.3-2.8,11.9-2.8
			c3.2,0,5.8,0.9,7.6,2.6c2.6,2.5,3.7,6.4,3,10.3c-0.7,3.6-3,6.5-6,7.7C47.2,46.1,45.9,46.4,44.4,46.4L44.4,46.4z"/>
	</g>
	<g>
		<path d="M43.9,25.9c2.7,0,5.2,0.6,7,2.4c4.9,4.7,3.6,14.1-2.8,16.7c-1.2,0.5-2.5,0.7-3.7,0.7c-2,0-4-0.5-5.9-1.1
			c-4.9-1.6-9.9-4-14.9-4c-0.5,0-1,0-1.5,0.1c0,0-0.1,0-0.1,0c-1,0-1.6-1.1-1.1-1.9c2.5-4.5,6.7-8,11.5-10
			C35.4,27.3,39.9,25.9,43.9,25.9 M43.9,24.4c-4.7,0-9.6,1.8-12.2,2.8c-5.4,2.3-9.8,6.1-12.3,10.7c-0.5,0.9-0.5,1.9,0.1,2.8
			c0.5,0.9,1.4,1.4,2.4,1.4c0.1,0,0.2,0,0.3,0c0.4,0,0.9-0.1,1.3-0.1c3.4,0,7,1.3,10.5,2.6c1.3,0.5,2.6,1,3.9,1.4
			c2.4,0.8,4.5,1.1,6.4,1.1c1.6,0,3-0.3,4.3-0.8c3.3-1.3,5.8-4.4,6.5-8.3c0.8-4.1-0.4-8.3-3.2-11C50.1,25.3,47.4,24.4,43.9,24.4
			L43.9,24.4z"/>
	</g>
</g>
<g>
	<g>
		<path class="st6" d="M40,65.4c-0.9,0-1.8-0.1-2.8-0.3c-6-1.5-9.7-7-11.4-10.2c-0.3-0.5-0.3-1.1,0-1.6c0.3-0.5,0.8-0.8,1.4-0.8
			c0.2,0,0.4,0,0.6,0.1c5.9,2.4,18.2,4.6,18.3,4.6c1.8,0.2,2.4,1.3,2.4,2.4C48.5,62,45.1,65.4,40,65.4C40,65.4,40,65.4,40,65.4z"/>
	</g>
	<g>
		<path d="M27.3,53.3c0.1,0,0.2,0,0.3,0.1c6.1,2.5,18.4,4.6,18.4,4.6c4.1,0.3,0.5,6.7-6.1,6.7c-0.8,0-1.7-0.1-2.6-0.3
			c-5.7-1.4-9.2-6.7-10.9-9.8C26.2,53.9,26.7,53.3,27.3,53.3 M27.3,51.7c-0.8,0-1.6,0.5-2.1,1.2c-0.4,0.7-0.5,1.6-0.1,2.4
			c1.7,3.3,5.6,9,11.9,10.6c1,0.2,2,0.4,3,0.4c5.2,0,9.2-3.5,9.3-6.5c0.1-1.4-0.9-3-3.1-3.2c-0.9-0.2-12.4-2.2-18.1-4.5
			C27.9,51.8,27.6,51.7,27.3,51.7L27.3,51.7z"/>
	</g>
</g>
<g>
	<path class="st1" d="M115.6,86.8c10.8-2.6,24.4-8.3,33.9-14c12.8-7.7,26-16,40.8-17.5c2.4-0.3,4.9-0.3,7,0.8
		c2.1,1.1,3.6,3.7,2.7,5.9c-0.7,1.7-2.4,2.6-4.1,3.4c-4,1.8-8.1,3.3-12.3,4.4c4.7-1.8,9.8-2.4,14.8-1.7c2.6,0.4,5.7,1.8,5.6,4.4
		c-0.1,2-2,3.3-3.8,4.1c-5.7,2.7-11.9,4.2-18.2,4.5c5.1-0.8,10.3-1,15.4-0.6c3.5,0.3,7.5,1.2,9.1,4.3c1.4,2.7,0.3,6.2-1.8,8.4
		c-2.1,2.2-5.1,3.3-8,4.3c-8.9,2.8-18.2,4.3-27.4,5.7c-15.8,2.4-21.2,4.9-37.1,3"/>
	<path d="M142.3,107.4c-3,0-6.3-0.2-10.2-0.7c-0.4,0-0.7-0.4-0.7-0.9c0-0.4,0.4-0.7,0.9-0.7c12,1.4,18.1,0.3,27.2-1.4
		c2.8-0.5,6-1.1,9.6-1.7c9.1-1.4,18.4-2.9,27.3-5.7c2.8-0.9,5.7-2,7.7-4.1c1.8-1.8,3-5,1.7-7.5c-1.2-2.3-3.9-3.5-8.5-3.9
		c-2.9-0.2-5.8-0.2-8.7-0.1c-2.2,0.4-4.5,0.6-6.7,0.7c-0.4,0-0.8-0.3-0.8-0.7c0-0.4,0.2-0.8,0.6-0.8c2.2-0.4,4.4-0.6,6.7-0.7
		c3.9-0.7,7.7-2,11.3-3.7c2.2-1,3.3-2.2,3.4-3.5c0.1-2-2.5-3.2-4.9-3.6c-3.3-0.5-6.6-0.3-9.9,0.4c-1.5,0.5-3,1-4.6,1.4
		c-0.4,0.1-0.8-0.1-0.9-0.5c-0.1-0.4,0.1-0.8,0.5-1c1.5-0.6,3.1-1.1,4.7-1.4c2.6-0.9,5.1-1.8,7.6-3c1.6-0.7,3.1-1.6,3.7-2.9
		c0.7-1.8-0.6-4-2.3-4.9c-2-1-4.4-0.9-6.5-0.7c-14.2,1.5-26.9,9.2-39.2,16.6l-1.3,0.8c-9.6,5.8-23.3,11.5-34.1,14.1
		c-0.4,0.1-0.8-0.2-0.9-0.6c-0.1-0.4,0.2-0.8,0.6-0.9c10.6-2.6,24.2-8.2,33.7-13.9l1.3-0.8c12.4-7.5,25.3-15.3,39.8-16.8
		c2.4-0.3,5.1-0.3,7.4,0.9c2.3,1.2,4.2,4.2,3.1,6.9c-0.8,1.9-2.6,2.9-4.5,3.8c-0.7,0.3-1.3,0.6-2,0.9c1.4,0,2.9,0.1,4.3,0.3
		c3.2,0.4,6.4,2.2,6.3,5.2c-0.1,1.9-1.5,3.5-4.2,4.8c-1.8,0.8-3.6,1.6-5.5,2.2c0.8,0,1.7,0.1,2.5,0.1c5.1,0.4,8.3,1.9,9.8,4.7
		c1.7,3.3,0.2,7.1-2,9.3c-2.2,2.3-5.3,3.5-8.3,4.5c-9,2.9-18.4,4.3-27.5,5.8c-3.7,0.6-6.8,1.1-9.6,1.7
		C153.5,106.5,148.7,107.4,142.3,107.4z"/>
</g>
<g>
	<path class="st1" d="M89.4,81.6c-2.8-0.9-5.6-2.2-7-4.7s-0.3-6.5,2.5-7c-4-1.5-8-3.1-11-6.2c-2.9-3.1-4.4-8-2.2-11.6
		c1.9-3.2,5.8-4.4,9.4-5.4c-3-2.2-6-4.5-8.8-6.9c-1.2-1-2.4-2.2-3.1-3.6c-1-2-0.8-4.6,0.7-6.3s4.1-2.4,6.1-1.4
		c-3.8-2.2-7.3-5-10.3-8.3c-1.1-1.3-2.3-3.1-1.4-4.5c0.6-1.1,2.1-1.3,3.3-1.4c2.7-0.1,5.5,0.3,8.1,1.1c-1.4-2-3.8-3-5.7-4.6
		s-3.3-4.4-1.9-6.4c1.3-1.9,4.2-1.8,6.5-1.2c7.2,1.9,13.7,5.8,18.7,11.3c9.4,10.4,22.8,18,28.6,30.8c6.4,13.9,4.9,31.1-3.7,43.8
		c-1,1.5-2.3,3-4.1,3.3"/>
	<path d="M114.1,93.3c-0.4,0-0.7-0.3-0.8-0.7c-0.1-0.4,0.2-0.8,0.7-0.9c1.5-0.2,2.7-1.7,3.5-2.9c8.5-12.4,9.9-29.3,3.6-43
		c-3.7-8.2-10.8-14.4-17.7-20.3c-3.7-3.2-7.5-6.6-10.8-10.2C87.9,9.9,81.4,6,74.4,4.2c-1.6-0.4-4.5-0.9-5.6,0.9
		c-1.1,1.5,0.1,3.9,1.7,5.3c0.6,0.5,1.3,1,2,1.5c1.4,0.9,2.8,1.9,3.8,3.3c0.2,0.3,0.2,0.6,0,0.9c-0.2,0.3-0.6,0.4-0.9,0.3
		c-2.5-0.8-5.1-1.2-7.8-1.1c-1.4,0.1-2.3,0.4-2.7,1c-0.7,1.2,0.7,2.9,1.3,3.6c2.9,3.2,6.3,6,10.1,8.2c0.4,0.2,0.5,0.7,0.3,1
		c-0.2,0.4-0.7,0.5-1,0.3c-1.7-0.8-3.9-0.3-5.2,1.2c-1.2,1.4-1.4,3.7-0.6,5.5c0.6,1.3,1.8,2.3,3,3.3c2.8,2.4,5.7,4.7,8.7,6.9
		c0.2,0.2,0.4,0.5,0.3,0.8c-0.1,0.3-0.3,0.5-0.6,0.6c-3.7,1-7.2,2.2-8.9,5.1c-2.1,3.4-0.5,8,2.1,10.7c2.9,3,7.2,4.7,10.7,6
		c0.3,0.1,0.5,0.5,0.5,0.8c0,0.3-0.3,0.6-0.7,0.7c-1.2,0.2-1.8,1.1-2,1.6c-0.6,1.3-0.6,3,0.1,4.2c1.3,2.4,4.2,3.6,6.6,4.4
		c0.4,0.1,0.6,0.6,0.5,1c-0.1,0.4-0.6,0.6-1,0.5c-2.6-0.9-5.9-2.2-7.5-5.1c-0.9-1.6-1-3.8-0.1-5.6c0.3-0.7,0.8-1.2,1.3-1.7
		c-3.2-1.3-6.9-2.9-9.5-5.7c-3-3.1-4.7-8.4-2.3-12.5c1.7-2.9,4.9-4.3,8.3-5.3c-2.6-1.9-5.1-3.9-7.6-6c-1.3-1.1-2.6-2.3-3.3-3.8
		c-1.1-2.3-0.8-5.3,0.8-7.2c0.9-1.1,2.1-1.8,3.5-2c-2.8-1.9-5.3-4.1-7.6-6.6c-1.9-2-2.4-4-1.5-5.4c1-1.6,3.2-1.7,3.9-1.7
		c1.8-0.1,3.7,0.1,5.4,0.4c-0.4-0.3-0.9-0.6-1.4-0.9c-0.7-0.5-1.5-1-2.2-1.6c-2.2-1.8-3.7-5.1-2-7.4c1.3-1.9,3.9-2.4,7.3-1.5
		c7.3,1.9,14,6,19.1,11.6c3.2,3.6,7,6.9,10.7,10.1c7,6.1,14.2,12.4,18,20.9c6.5,14.2,5,31.7-3.8,44.5c-1,1.5-2.5,3.3-4.6,3.6
		C114.2,93.3,114.1,93.3,114.1,93.3z"/>
</g>
</svg>
