<?xml version="1.0" encoding="utf-8"?>
<!-- Generator: Adobe Illustrator 26.0.3, SVG Export Plug-In . SVG Version: 6.00 Build 0)  -->
<svg version="1.1" id="레이어_1" xmlns="http://www.w3.org/2000/svg" xmlns:xlink="http://www.w3.org/1999/xlink" x="0px"
	 y="0px" viewBox="0 0 390 390" style="enable-background:new 0 0 390 390;" xml:space="preserve">
<style type="text/css">
	.st0{fill:#595959;}
	.st1{fill:#2C4F9E;}
	.st2{fill:none;}
	.st3{fill:#FFCA1C;}
	.st4{fill:#704A1C;}
	.st5{fill:#8A8A8A;}
	.st6{fill:#FFCE2E;}
	.st7{fill:#B87400;}
	.st8{fill:#FFFFFF;}
	.st9{fill-rule:evenodd;clip-rule:evenodd;fill:#FF8775;}
	.st10{fill:#BD3824;}
	.st11{fill:#FF8775;}
	.st12{fill-rule:evenodd;clip-rule:evenodd;}
	.st13{fill:#87ACFF;}
</style>
<g>
	<g>
		<g>
			<path class="st0" d="M140.7,179.2c-1-0.3-2.2-0.4-3.4-0.6c-10.2-1.2-19.4,8.4-26.5,14.9c-17.9,16.9-26,40.7-11.8,64.6
				c4.2,7,10.2,15.2,17.5,18.8c3,1.5,6.6,1.8,10,1.5c6.3-0.6,13.2-3.4,14.9-9c1.5-4.3-0.3-9-3-12.9c-3.4-5.1-8.2-9.3-12.1-14.2
				c-4.8-6.1-7.2-14.6-3.7-21.5c3.4-6.9,8.2-10.5,13.6-16.1c4.6-4.8,9.7-8.7,11.4-15.2C149.4,183.5,146,180.5,140.7,179.2z"/>
		</g>
		<g>
			<path d="M124.1,279.9c-3.3,0-6-0.6-8.2-1.8c-6.3-3.1-12.3-9.7-18.1-19.4c-13.2-22.1-8.7-47.1,12.1-66.5l1.3-1.2
				c6.9-6.4,16.1-15.2,26.5-14.1c1.3,0.1,2.5,0.4,3.6,0.6l0,0c6.9,1.8,9.7,6.1,8.2,12.3c-1.5,5.7-5.4,9.6-9.1,13.3
				c-0.9,0.9-1.8,1.8-2.7,2.7c-1.2,1.3-2.4,2.5-3.6,3.6c-3.9,3.7-7.2,7-9.7,12.1c-2.8,5.7-1.5,13.5,3.6,19.9c1.6,2.1,3.4,4,5.1,5.8
				c2.4,2.7,4.9,5.4,7,8.4c2.4,3.6,4.9,9,3.1,14.2c-2.2,6.6-10,9.4-16.4,10C125.9,279.9,125,279.9,124.1,279.9z M135.7,180.1
				c-8.2,0-16,7.3-22.3,13.3l-1.3,1.2c-19.6,18.4-23.9,41.9-11.5,62.6c5.4,9.1,11.2,15.4,16.7,18.2c2.4,1.2,5.4,1.6,9.3,1.3
				c5.2-0.4,12-2.8,13.6-7.9c1.3-4-0.7-8.4-2.8-11.4c-1.9-2.8-4.3-5.4-6.7-7.9c-1.8-1.9-3.6-3.9-5.4-6.1c-5.8-7.3-7.3-16.4-3.9-23.2
				c2.7-5.5,6.3-9,10.3-12.9c1.2-1.2,2.4-2.2,3.6-3.6c0.9-0.9,1.8-1.8,2.7-2.7c3.6-3.6,7-6.9,8.2-11.8c0.7-2.8,0.9-6.7-6-8.4l0,0
				c-0.9-0.3-2.1-0.4-3.1-0.6C136.7,180.1,136.1,180.1,135.7,180.1z"/>
		</g>
	</g>
	<g>
		<g>
			<path class="st1" d="M104.7,266.3c-1-1.5-4.8-6.9-5.7-8.4c-14.2-23.8-6.1-47.7,11.8-64.6c7-6.6,16.3-16.1,26.5-14.9
				c1.2,0.1,2.4,0.3,3.4,0.6c5.2,1.3,8.7,4.3,7,10.3c-1.6,6.6-6.9,10.5-11.4,15.2c-5.4,5.7-10.2,9.3-13.6,16.1
				c-3.4,6.9-1,15.4,3.7,21.5c1.9,2.4,4,4.6,6.1,7L104.7,266.3z"/>
		</g>
		<g>
			<path d="M104.9,267.9c-0.4,0-1-0.3-1.3-0.7l-1.3-1.9c-1.6-2.2-3.7-5.4-4.3-6.6c-13.2-22.1-8.7-47.1,12.1-66.5l1.3-1.2
				c6.9-6.4,16.1-15.2,26.5-14.1c1.3,0.1,2.5,0.4,3.6,0.6c6.9,1.8,9.7,6.1,8.2,12.3c-1.5,5.7-5.4,9.6-9.1,13.3
				c-0.9,0.9-1.8,1.8-2.7,2.7c-1.2,1.3-2.4,2.5-3.6,3.6c-3.9,3.7-7.2,7-9.7,12.1c-2.8,5.7-1.5,13.5,3.6,19.9c1.6,2.1,3.4,4,5.2,5.8
				l0.9,1c0.3,0.3,0.4,0.7,0.4,1.3c0,0.4-0.3,0.9-0.7,1.2l-28,17C105.3,267.8,105,267.9,104.9,267.9z M135.7,180.1
				c-8.2,0-16,7.3-22.3,13.3l-1.3,1.2c-19.6,18.4-23.9,41.9-11.5,62.6c0.6,1,2.8,4.2,4.3,6.4l0.4,0.7l25.1-15.2
				c-1.6-1.8-3.4-3.7-4.9-5.7c-5.8-7.3-7.3-16.4-3.9-23.2c2.7-5.5,6.3-9,10.3-12.9c1.2-1.2,2.4-2.2,3.6-3.6c0.9-0.9,1.8-1.8,2.7-2.7
				c3.6-3.6,7-6.9,8.2-11.8c0.7-2.8,0.9-6.7-6-8.4c-0.9-0.3-2.1-0.4-3.1-0.6C136.7,180.1,136.1,180.1,135.7,180.1z"/>
		</g>
	</g>
	<g>
		<g>
			<line class="st2" x1="92.6" y1="241.2" x2="121.5" y2="230.9"/>
		</g>
		<g>
			<path d="M92.6,242.7c-0.6,0-1.2-0.4-1.5-1c-0.3-0.7,0.1-1.6,0.9-1.9l28.9-10.3c0.7-0.3,1.6,0.1,1.9,0.9s-0.1,1.6-0.9,1.9
				l-28.9,10.3C93.1,242.7,92.9,242.7,92.6,242.7z"/>
		</g>
	</g>
	<g>
		<g>
			<g>
				<path class="st3" d="M114.6,187.2c0,0-5.4,4.2-7.5,6.4l11.4,7.9l7-6L114.6,187.2z"/>
			</g>
			<g>
				<path d="M118.5,203.1c-0.3,0-0.6-0.1-0.9-0.3l-11.4-7.9c-0.3-0.3-0.6-0.6-0.6-1s0.1-0.9,0.4-1.2c2.1-2.4,7.5-6.4,7.6-6.6
					c0.6-0.4,1.3-0.4,1.9,0l10.8,8.4c0.4,0.3,0.6,0.7,0.6,1.2s-0.1,0.9-0.6,1.2l-7,6C119.2,202.9,118.8,203.1,118.5,203.1z
					 M109.5,193.5l8.8,6.1l4.6-3.9l-8.4-6.4C113.4,190.2,111.1,192,109.5,193.5z"/>
			</g>
		</g>
		<g>
			<g>
				<line class="st2" x1="114.3" y1="192.3" x2="118" y2="195"/>
			</g>
			<g>
				<path d="M118,196.6c-0.3,0-0.6-0.1-0.9-0.3l-3.9-2.8c-0.7-0.4-0.9-1.5-0.3-2.2c0.4-0.7,1.5-0.9,2.2-0.3l3.9,2.8
					c0.7,0.4,0.9,1.5,0.3,2.2C119.1,196.3,118.6,196.6,118,196.6z"/>
			</g>
		</g>
		<g>
			<g>
				<path d="M114.6,187.2c0,0,8.5-8.7,14.9-9.7l10.5,8.4c0,0-11.7,7.2-14.6,9.7L114.6,187.2z"/>
			</g>
			<g>
				<path d="M125.3,197.1c-0.3,0-0.7-0.1-0.9-0.3l-10.8-8.4c-0.3-0.3-0.6-0.7-0.6-1.2c0-0.4,0.1-0.9,0.4-1.2s9-9,15.8-10.2
					c0.4,0,0.9,0,1.2,0.3l10.5,8.4c0.4,0.3,0.6,0.7,0.6,1.3c0,0.4-0.3,1-0.7,1.2c-0.1,0-11.7,7.2-14.4,9.6
					C126.1,197.1,125.8,197.1,125.3,197.1z M117,187.1l8.4,6.6c3-2.2,8.8-6,12-7.8l-8.2-6.6C125,180.2,119.8,184.4,117,187.1z"/>
			</g>
		</g>
	</g>
	<g>
		<g>
			<polygon class="st3" points="94.8,249 122.9,236.1 126.7,242.4 97.8,255.8 			"/>
		</g>
		<g>
			<path d="M97.8,257.3c-0.1,0-0.3,0-0.6-0.1c-0.4-0.1-0.7-0.4-0.9-0.9l-3-6.7c-0.3-0.7,0-1.6,0.7-2.1l28.1-13
				c0.7-0.3,1.6,0,1.9,0.6l3.7,6.3c0.1,0.4,0.3,0.9,0.1,1.2c-0.1,0.4-0.4,0.7-0.9,0.9l-28.7,13.5C98.3,257.3,98.1,257.3,97.8,257.3z
				 M96.9,249.9l1.8,3.9l25.7-12l-2.1-3.6L96.9,249.9z"/>
		</g>
	</g>
</g>
<g id="XMLID_187_">
	<g>
		<g>
			<path d="M143.4,275.3l28.6,6.3c0,0-2.5,40.4-4.2,65.8c-26.9,5.7-33.6-8.7-33.6-8.7L143.4,275.3z"/>
		</g>
		<g>
			<path class="st4" d="M167.9,347.3c-0.6,10.9-1.2,19.1-1.2,20c0,3.3-4.9,6.7-4.9,6.7c-20.2,8.8-47.8,0-47.8,0s-9.9-4.8-5.4-19.1
				c4.5-14.4,25.6-16.4,25.6-16.4S141,353,167.9,347.3z"/>
		</g>
	</g>
	<g>
		<g>
			<path d="M140.4,379.8c-14.1,0-26.2-3.7-26.9-4c-0.3-0.1-11.2-5.7-6.3-21.1c4.2-13.3,20.9-16.6,25.7-17.3l9.3-64l31.5,7l-0.1,1.3
				c0,0-2.5,40.4-4.2,65.8c-0.7,12.4-1.2,19.1-1.2,20c0,3.9-5.1,7.6-5.7,8.1l-0.3,0.1C155.5,378.7,147.6,379.8,140.4,379.8z
				 M144.8,277.2l-9.1,62.9l-1.2,0.1c-0.1,0-20,2.1-24.2,15.2c-4,12.7,4.2,17,4.5,17.2c0,0,27.1,8.5,46.3,0c1.5-1,4.2-3.6,4.2-5.4
				c0-0.6,0.1-3.3,1.2-20.2l0,0c1.3-22.6,3.6-57.3,4-64.4L144.8,277.2z"/>
		</g>
		<g>
			<path d="M156.1,350.2c-17.8,0-23-10.3-23.3-10.9c-0.4-0.7,0-1.8,0.7-2.1c0.7-0.3,1.6,0,2.1,0.7c0.3,0.6,6.9,13,32,7.8
				c0.9-0.1,1.9,0.6,1.9,1.5c0,0.7-0.6,1.5-1.3,1.5C163.6,349.9,159.6,350.2,156.1,350.2z"/>
		</g>
	</g>
</g>
<g id="XMLID_186_">
	<g>
		<g>
			<path class="st4" d="M258.5,355.1c4.5,14.4-5.4,19.1-5.4,19.1s-27.7,8.8-47.8,0c0,0-4.9-3.6-4.9-6.7c0-0.9-0.4-9.1-1.2-20
				c26.9,5.7,33.8-8.7,33.8-8.7S253.9,340.7,258.5,355.1z"/>
		</g>
		<g>
			<path d="M223.7,275.3l9.3,63.4c0,0-6.9,14.2-33.8,8.7c-1.5-25.4-4.2-65.8-4.2-65.8L223.7,275.3z"/>
		</g>
	</g>
	<g>
		<g>
			<path d="M226.7,379.8c-7.3,0-15.1-1-22-4l-0.3-0.1c-0.6-0.4-5.7-4.2-5.7-8.1c0-0.7-0.4-7.5-1.2-20c-1.5-25.4-4.2-65.8-4.2-65.8
				l-0.1-1.3l31.5-7l9.3,64c4.8,0.7,21.5,4,25.7,17.3c4.9,15.4-6,20.9-6.1,20.9C253,375.9,240.7,379.8,226.7,379.8z M206.1,372.9
				c19.3,8.4,46.3,0,46.5-0.1c0.1-0.1,8.4-4.3,4.3-17.2c-4.2-13.2-24.1-15.2-24.2-15.2l-1.2-0.1l-9.1-62.9l-25.7,5.7
				c0.4,7.2,2.7,41.7,4,64.4l0,0c1,16.9,1.2,19.6,1.2,20.2C201.9,369.1,204.7,371.8,206.1,372.9z"/>
		</g>
		<g>
			<path d="M211,350.2c-3.6,0-7.6-0.4-12.1-1.3c-0.9-0.1-1.3-1-1.2-1.8c0.1-0.9,1-1.3,1.8-1.2c25.3,5.2,31.7-7.2,32-7.8
				c0.4-0.7,1.3-1,2.1-0.7c0.7,0.4,1,1.3,0.7,2.1C234.2,339.8,228.9,350.2,211,350.2z"/>
		</g>
	</g>
</g>
<g>
	<g id="XMLID_182_">
		<g>
			<g>
				<path class="st4" d="M247.8,242.1c0.3,5.1,0,10.9-1.2,17c-73.4,22.1-124.2,0.7-125.9,0c-1.3-6.1-1.6-12-1.2-17l1,0.1
					c0,0,52.6,23.9,126.3,0L247.8,242.1z"/>
			</g>
			<g>
				<path class="st1" d="M246.7,242.2c-73.5,23.9-126.3,0-126.3,0l-1-0.1c0.1-2.8,0.6-5.4,1-7.5c4.6-20.2,8.8-26.9,12.4-51.3
					c3.4-24.2,27.5-31.8,27.5-31.8s28.6-4.2,46.6,0c0,0,23.3,7.6,27.5,31.8c4.9,28.7,7.6,31.1,12.4,51.3c0.4,2.2,0.9,4.8,1,7.5
					L246.7,242.2z"/>
			</g>
			<g>
				<path d="M246.6,259.1c-4.5,21.2-20.8,44.8-62.9,44.8s-58.4-23.6-62.9-44.8C122.2,259.9,173.2,281.3,246.6,259.1z"/>
			</g>
		</g>
		<g>
			<g>
				<path d="M183.6,305.5c-16.4,0-55.8-4.5-64.4-46c-1.2-5.7-1.6-11.8-1.3-17.5c0.1-2.7,0.4-5.2,1-7.8c1.8-7.5,3.4-13.2,4.9-18.5
					c2.7-9,5.1-17.3,7.3-32.6c3.6-25,28.3-33,28.6-33c1.5-0.3,29.3-4.2,47.5,0c0.4,0.1,24.4,8.2,28.7,33c3.1,17.9,5.4,25.7,7.6,33.8
					c1.3,4.9,2.8,9.9,4.6,17.3c0.6,2.5,0.9,5.1,1,7.8c0.4,5.7,0,11.8-1.3,17.5C239.4,301,200.1,305.5,183.6,305.5z M186.9,151.2
					c-13.6,0-26.3,1.9-26.5,1.9c0,0-22.9,7.5-26.2,30.5c-2.2,15.5-4.8,24.1-7.5,33c-1.6,5.4-3.3,10.9-4.9,18.4
					c-0.6,2.4-0.9,4.8-1,7.3c-0.3,5.4,0,11.2,1.2,16.6c3.4,16.3,16,43.5,61.4,43.5s58-27.2,61.4-43.5c1.2-5.4,1.6-11.2,1.2-16.6l0,0
					c-0.1-2.4-0.4-4.9-1-7.3c-1.6-7.3-3.1-12.4-4.6-17.2c-2.4-8.2-4.6-16-7.8-34.2c-3.7-23-26-30.5-26.2-30.6
					C200.7,151.7,193.7,151.2,186.9,151.2z"/>
			</g>
			<g>
				<path d="M180.8,270.6c-36.2,0-58.9-9.3-60.7-10c-0.6-0.3-1-0.7-1-1.5c0-0.9,0.7-1.6,1.5-1.6l0,0c0.1,0,0.4,0,0.6,0.1
					c2.1,0.9,52.5,21.7,124.8,0c0.9-0.3,1.6,0.1,1.9,1c0.3,0.9-0.1,1.6-1,1.9C222.1,268.2,199.6,270.6,180.8,270.6z"/>
			</g>
			<g>
				<path d="M181.1,254.5c-9.7,0-18.2-0.7-25.3-1.6c-22.3-3-35.4-8.8-36-9.1c-0.7-0.3-1.2-1.3-0.7-2.1c0.3-0.7,1.3-1.2,2.1-0.7
					c0.6,0.3,53.1,23.5,125.1,0c0.9-0.3,1.6,0.1,1.9,1c0.3,0.9-0.1,1.6-1,1.9C222.1,252,199.5,254.5,181.1,254.5z"/>
			</g>
		</g>
	</g>
	<g>
		<g>
			<path class="st5" d="M191.1,252.3H175c-1.9,0-3.6,1.6-3.6,3.6v9.9c0,1.9,1.6,3.6,3.6,3.6h16c1.9,0,3.6-1.6,3.6-3.6v-9.9
				C194.5,253.9,193.1,252.3,191.1,252.3z M189.5,262.9c0,0.9-0.9,1.6-1.9,1.6h-9c-1,0-1.9-0.7-1.9-1.6v-4.5c0-0.9,0.9-1.6,1.9-1.6
				h9c1,0,1.9,0.7,1.9,1.6V262.9z"/>
		</g>
		<g>
			<path d="M191.1,270.6H175c-2.8,0-5.1-2.2-5.1-5.1v-9.9c0-2.8,2.2-5.1,5.1-5.1h16c2.8,0,5.1,2.2,5.1,5.1v9.9
				C196.2,268.4,194,270.6,191.1,270.6z M175,253.7c-1,0-1.9,0.9-1.9,1.9v9.9c0,1,0.9,1.9,1.9,1.9h16c1,0,1.9-0.9,1.9-1.9v-9.9
				c0-1-0.9-1.9-1.9-1.9H175z M187.5,266.2h-9c-1.9,0-3.4-1.5-3.4-3.3v-4.5c0-1.8,1.5-3.3,3.4-3.3h9c1.9,0,3.4,1.5,3.4,3.3v4.5
				C191.1,264.7,189.5,266.2,187.5,266.2z M178.6,258.4c-0.1,0-0.3,0.1-0.3,0.1v4.3c0,0,0.1,0.1,0.3,0.1h9c0.1,0,0.3-0.1,0.3-0.1
				v-4.3c0,0-0.1-0.1-0.3-0.1H178.6z"/>
		</g>
	</g>
	<g>
		<g>
			<path class="st5" d="M197.2,262.6h-9.7c-0.6,0-1-0.4-1-1v-1.6c0-0.6,0.4-1,1-1h9.6c0.6,0,1,0.4,1,1v1.6
				C198.3,262.1,197.8,262.6,197.2,262.6z"/>
		</g>
		<g>
			<path d="M196.3,264.2h-8.1c-1.9,0-3.4-1.5-3.4-3.4c0-1.9,1.5-3.4,3.4-3.4h8.1c1.9,0,3.4,1.5,3.4,3.4
				C199.8,262.6,198.3,264.2,196.3,264.2z M188.4,260.3c-0.1,0-0.3,0.1-0.3,0.3s0.1,0.3,0.3,0.3h8.1c0.1,0,0.3-0.1,0.3-0.3
				s-0.1-0.3-0.3-0.3H188.4z"/>
		</g>
	</g>
	<g>
		<g>
			<path d="M179.9,215c0.3,0.3,0.6,0.6,0.7,1c0.1,0.4,0,0.9-0.1,1.3c-2.1,7-4.3,13.9-7,20.6c-0.1,0.4-0.4,1-0.3,1.6
				c0,0.6,0.3,1.2,0.6,1.6c2.4,4.2,5.1,8.2,7.9,12c0.3,0.4,0.6,0.7,1,1c3.6,1.8,7.6-6.6,8.8-8.8c1.6-2.7,2.8-5.1,2.1-8.4
				c-0.6-3.1-2.4-5.8-3.6-8.7c-1.3-3.6-3.1-7.8-3.3-11.7c0-0.6,0.4-1.2,0.7-1.6c1.3-1.6,2.8-3.1,3.7-5.1c1-1.8,1.5-4,0.7-6.1
				c-1.8-4.9-8.7-4.9-12-1.6c-1.3,1.3-2.7,3.3-3.7,4.8C174.7,210.2,177.5,212.8,179.9,215z"/>
		</g>
	</g>
	<g>
		<g>
			<path class="st1" d="M154.8,189.8c-0.1,8.4,7.2,17,13.9,21.1c2.7,1.6,3.1,1.9,6,0.7c3.4-1.6,6.7-5.1,9.3-7.5c2.8,2.2,5.4,7.9,9,9
				c4.6,1.3,11.5-6.4,14.2-9.6c3.9-4.5,6.6-10,4.6-16c-4.2-12.1-17.8-16.9-29.6-16.4c-8.4,0.4-19.6,3.9-24.7,11.1
				C155.5,184.5,154.8,187.2,154.8,189.8z"/>
		</g>
		<g>
			<path d="M194,214.7c-0.6,0-1,0-1.5-0.1c-2.7-0.7-4.6-3.3-6.6-5.8c-0.7-0.9-1.3-1.8-1.9-2.4c-2.4,2.4-5.5,5.2-8.7,6.7
				c-3.3,1.5-4.3,1-7.3-0.7c-7.5-4.5-14.8-13.6-14.8-22.6l0,0c0-3.1,1-6,2.8-8.5c5.4-7.5,16.9-11.2,25.9-11.7
				c12.4-0.6,26.8,4.6,31.1,17.5c1.9,5.7,0.1,11.7-4.9,17.5C204,209.4,198.6,214.7,194,214.7z M183.8,202l1,0.9
				c1.2,1,2.4,2.4,3.4,3.9c1.5,1.9,3.3,4.3,4.9,4.8s5.2-0.7,12.6-9c4.3-5.1,5.8-9.9,4.3-14.5c-3.9-11.4-16.9-15.8-28.1-15.2
				c-8.2,0.4-18.7,3.7-23.5,10.3c-1.5,1.9-2.2,4.2-2.2,6.7c-0.1,7.6,6.7,15.8,13.2,19.7c2.5,1.5,2.5,1.5,4.5,0.6
				c2.8-1.3,5.7-4,7.9-6.3L183.8,202z"/>
		</g>
	</g>
	<g>
		<g>
			<path d="M148.7,225.8c-0.1,0-0.3,0-0.4-0.1l-12.9-4.3c-0.7-0.3-1.2-1-1-1.8l2.1-9.1c0.1-0.7,0.9-1.3,1.6-1.2l26,2.4
				c0.7,0.1,1.5,0.7,1.5,1.5v9.1c0,0.7-0.6,1.5-1.3,1.5l-15.2,2.1C148.8,225.8,148.7,225.8,148.7,225.8z M137.6,218.9l11.2,3.7
				l13.5-1.8v-6.3l-23.2-2.2L137.6,218.9z"/>
		</g>
	</g>
	<g>
		<g>
			<g>
				<path class="st6" d="M234.6,206.7c-11.8,0.4-15.4-4.2-15.4-4.2s-3.1,4.9-14.9,5.4c0,0,0.9,28.4,16.1,27.8
					C235.7,235.1,234.6,206.7,234.6,206.7z"/>
			</g>
			<g>
				<path d="M220.1,237.2c-3.3,0-6.1-1.2-8.5-3.4c-8.1-7.6-8.7-25.1-8.7-25.9c0-0.9,0.6-1.6,1.5-1.6c10.6-0.4,13.8-4.6,13.8-4.6
					c0.3-0.4,0.7-0.7,1.2-0.7s1,0.1,1.3,0.6c0,0,3.4,4,14.1,3.6c1,0,1.6,0.6,1.6,1.5c0,0.7,0.7,18.4-6.7,26.5
					c-2.4,2.5-5.4,4-8.8,4.2C220.4,237.2,220.3,237.2,220.1,237.2z M205.9,209.2c0.3,4.3,1.8,16.7,7.6,22.1c1.9,1.8,4.2,2.7,6.9,2.5
					s4.8-1,6.6-3.1c5.4-6,6-18.4,6-22.7c-7.6,0-11.8-2.2-13.8-3.6C217.6,206.2,213.5,208.6,205.9,209.2z"/>
			</g>
		</g>
		<g>
			<g>
				<g>
					<path class="st7" d="M225.8,223c0.1,2.8-2.4,3.6-5.5,3.7c-3.1,0.1-5.7-0.4-5.8-3.3c-0.1-2.8,2.4-5.2,5.5-5.4
						S225.6,220.1,225.8,223z"/>
				</g>
			</g>
			<g>
				<g>
					<g>
						
							<ellipse transform="matrix(0.9993 -3.796022e-02 3.796022e-02 0.9993 -8.1116 8.2344)" class="st7" cx="212.8" cy="217.7" rx="1.8" ry="2.1"/>
					</g>
				</g>
				<g>
					<g>
						
							<ellipse transform="matrix(0.9993 -3.796022e-02 3.796022e-02 0.9993 -8.0844 8.7676)" class="st7" cx="226.8" cy="217.3" rx="1.8" ry="2.1"/>
					</g>
				</g>
			</g>
			<g>
				<g>
					<g>
						
							<ellipse transform="matrix(0.9993 -3.796022e-02 3.796022e-02 0.9993 -7.9895 8.3911)" class="st7" cx="217" cy="214.6" rx="1.8" ry="2.1"/>
					</g>
				</g>
				<g>
					<g>
						
							<ellipse transform="matrix(0.9993 -3.796022e-02 3.796022e-02 0.9993 -7.9798 8.5953)" class="st7" cx="222.4" cy="214.4" rx="1.8" ry="2.1"/>
					</g>
				</g>
			</g>
		</g>
	</g>
</g>
<g>
	<g>
		<g>
			<path class="st0" d="M253.4,108.4c-2.8-4.6-5.2-9.6-6.4-14.8c-6.9-28.6-19.3-37.1-32.4-44.5c-17-9.7-39.8-5.1-48.7-3
				c-1.9,0.4-3.9,0.7-6,1c-9.1,0.9-32.1,3.7-45.1,18.4c-10,11.4-19,23.5-16.4,52.6c0.4,5.4-0.1,10.8-1.3,16
				c-1.6,7-0.7,16.7,1.3,21.7c10.2,25.4,33.6,37.2,61,39.9c9.3,0.9,18.7,0.6,28.1-0.9c9.4-1.6,18.5-4.3,26.9-8.2
				c25.1-11.2,43.5-30,45-57.3C259.6,124.1,257.3,114.7,253.4,108.4z"/>
		</g>
	</g>
	<g>
		<g>
			<path d="M169.6,198c-3.6,0-7-0.1-10.5-0.4c-31.4-3.3-52.9-17.3-62.3-41.1c-2.1-5.2-3.1-15.1-1.3-22.9c1.3-5.7,1.8-10.8,1.3-15.5
				c-2.5-29.4,6.1-41.7,16.9-53.8c9.3-10.5,24.8-16.9,46.2-19c1.9-0.1,3.9-0.4,5.7-0.9c20.9-4.8,37.7-3.7,49.8,3.3
				c14.1,7.9,26.2,16.9,33.2,45.6c1.2,4.6,3.1,9.4,6.3,14.4l0,0c4.2,6.7,6.3,16.4,6,22.1c-1.5,25.4-17.3,45.7-45.9,58.6
				c-8.4,3.7-17.5,6.6-27.4,8.2C181.4,197.4,175.4,198,169.6,198z M189.2,44.6c-6.9,0-14.5,0.9-22.7,2.8c-2.1,0.4-4,0.7-6.1,1
				c-20.6,1.9-35.4,8.1-44.2,17.9c-10.3,11.4-18.5,23.2-16.1,51.4c0.4,5.1,0,10.5-1.5,16.6c-1.6,7-0.6,16.3,1.2,20.9
				c11.4,28.4,38.7,36.9,59.6,39c8.8,0.9,18.1,0.6,27.8-0.9c9.6-1.6,18.4-4.3,26.5-8.1c19.1-8.7,42.3-25.3,44.1-55.9
				c0.3-4.9-1.8-14.1-5.5-20.2c-3.3-5.2-5.4-10.3-6.6-15.2c-6.7-27.5-18.2-36-31.7-43.6C207.1,46.6,198.9,44.6,189.2,44.6z"/>
		</g>
	</g>
</g>
<g>
	<g>
		<g>
			
				<ellipse transform="matrix(0.9869 -0.1614 0.1614 0.9869 -21.4248 30.8936)" class="st8" cx="179.4" cy="147.3" rx="35" ry="25.1"/>
		</g>
	</g>
</g>
<g>
	<g>
		<g>
			<g>
				<path class="st9" d="M176.8,137.7c-2.7,0-4.8-1.5-5.2-3.7c-0.3-1.3,0.1-2.7,1.2-3.7c0.9-1,2.2-1.6,3.6-1.9
					c0.4-0.1,0.9-0.1,1.3-0.1c2.7,0,4.8,1.5,5.2,3.7c0.3,1.3-0.1,2.7-1.2,3.7c-0.9,1-2.1,1.6-3.6,1.9
					C177.7,137.7,177.2,137.7,176.8,137.7z"/>
			</g>
		</g>
	</g>
	<g>
		<g>
			<g>
				<path d="M177.5,129.8c1.8,0,3.4,1,3.7,2.4c0.3,1.8-1.2,3.4-3.4,3.9c-0.3,0-0.7,0.1-1,0.1c-1.8,0-3.4-1-3.7-2.4
					c-0.3-1.6,1.2-3.4,3.4-3.9C176.9,129.8,177.2,129.8,177.5,129.8 M177.5,126.7L177.5,126.7c-0.6,0-1,0-1.6,0.1
					c-1.8,0.3-3.3,1.2-4.5,2.4c-1.3,1.5-1.8,3.3-1.5,5.1c0.6,3,3.3,4.9,6.7,4.9c0.6,0,1,0,1.6-0.1c4-0.7,6.7-4,6-7.6
					C183.8,128.6,180.9,126.7,177.5,126.7L177.5,126.7z"/>
			</g>
		</g>
	</g>
</g>
<g>
	<g>
		<g>
			<path class="st10" d="M186.6,150.9c0,0,0.7,12.9-4.2,13.8c-5.1,0.7-8.4-11.7-8.4-11.7s4.8-2.2,4.8-6.3
				C178.7,146.7,183.3,151.7,186.6,150.9z"/>
		</g>
	</g>
</g>
<g>
	<g>
		<g>
			<g>
				<path d="M171.5,154.9c-0.6,0-1.2,0-1.8-0.1c-0.9-0.1-1.5-0.9-1.3-1.8c0.1-0.9,0.9-1.5,1.8-1.3c1.9,0.3,3.6,0,4.8-1
					c1.5-1.2,2.4-3.4,2.5-6.3c0-0.9,0.7-1.5,1.6-1.5s1.5,0.7,1.5,1.6c-0.1,3.7-1.5,6.7-3.7,8.5C175.4,154.3,173.6,154.9,171.5,154.9
					z"/>
			</g>
		</g>
	</g>
</g>
<g>
	<g>
		<g>
			<g>
				<path d="M186.5,152.4c-0.9,0-1.9-0.1-2.8-0.4c-2.7-1-4.9-3.4-6.3-6.9c-0.3-0.7,0.1-1.8,0.9-2.1c0.7-0.3,1.8,0.1,2.1,0.9
					c1,2.7,2.5,4.5,4.3,5.1c1.5,0.6,3.1,0.3,4.9-0.6c0.7-0.4,1.6-0.1,2.1,0.6c0.4,0.7,0.1,1.8-0.6,2.1
					C189.6,152.1,188.1,152.4,186.5,152.4z"/>
			</g>
		</g>
	</g>
</g>
<g>
	<g>
		<g>
			<path class="st0" d="M148.5,55.1c0,0-11.1-7.9-18.5-12c-7.5-4-27.7-13.5-31.1-11.7c-3.4,1.8-15.4,38.4,4.2,53.2"/>
		</g>
	</g>
	<g>
		<g>
			<path d="M103.1,86.3c-0.3,0-0.6-0.1-0.9-0.3C91.3,77.7,90.1,63.6,91,53.1c0.9-10.2,4.5-21.5,7.3-23c5.1-2.7,32.1,11.5,32.4,11.7
				c7.5,4,18.4,11.7,18.8,12c0.7,0.4,0.9,1.5,0.3,2.2c-0.4,0.7-1.5,0.9-2.2,0.3c-0.1-0.1-11.1-7.9-18.4-11.8
				c-11.4-6-27.2-12.6-29.6-11.7c-1.2,1-6,12.9-5.8,26.3c0.1,7.6,1.9,17.9,10.3,24.4c0.7,0.6,0.9,1.5,0.3,2.2
				C104,86,103.5,86.3,103.1,86.3z"/>
		</g>
	</g>
</g>
<g>
	<g>
		<g>
			<path class="st11" d="M131,61.4c0,0-27.7-17.2-28.9-21.2c-1.3-4-6.1,28.1,7.2,33.2c0,0,3.1-2.5,4.9-3.6c0,0-4.2-6.9,4.3-3.6
				C124,68.2,131,61.4,131,61.4z"/>
		</g>
	</g>
	<g>
		<g>
			<path d="M109.3,75c-0.1,0-0.4,0-0.6-0.1c-10.5-4-10.9-22.1-9.7-31.1c0.6-4.5,1.3-5.4,2.5-5.5c0.6-0.1,1.5,0.3,1.9,1.5
				c0.9,2.2,15.1,12.1,28.3,20.3c0.4,0.3,0.7,0.7,0.7,1.2c0,0.4-0.1,0.9-0.4,1.3c-0.3,0.3-7.8,7.6-14.1,5.2c-2.5-1-3.3-0.7-3.3-0.7
				c0.1,0.1,0.4,1.3,0.9,2.1c0.1,0.4,0.3,0.9,0.1,1.2c-0.1,0.4-0.4,0.7-0.7,0.9c-1.5,0.7-3.9,2.7-4.6,3.3
				C110.1,74.8,109.6,75,109.3,75z M102.3,43.1c-0.7,4.3-1.3,14.2,1.3,21.4c1.2,3.4,3.1,5.8,5.4,7c0.7-0.6,1.9-1.5,3.1-2.4
				c-0.6-1.3-0.9-3.1,0.1-4.3c1.5-1.8,4.6-0.9,6.7-0.1c2.8,1,6.9-1.3,9.3-3.1C121.6,57.3,107.4,48.2,102.3,43.1z"/>
		</g>
	</g>
</g>
<g>
	<g>
		<g>
			<path class="st11" d="M115.3,65.4c0,0-8.1-5.2-9-11.2"/>
		</g>
	</g>
	<g>
		<g>
			<path d="M115.3,66.9c-0.3,0-0.6-0.1-0.9-0.3c-0.3-0.3-8.7-5.7-9.6-12.4c-0.1-0.9,0.4-1.6,1.3-1.8c0.9-0.1,1.6,0.4,1.8,1.3
				c0.7,5.2,8.2,10.2,8.2,10.2c0.7,0.4,0.9,1.5,0.4,2.2C116.4,66.7,115.9,66.9,115.3,66.9z"/>
		</g>
	</g>
</g>
<g>
	<g>
		<g>
			<path class="st0" d="M179.5,50c0,0,7.9-11.1,13.9-17.2c5.8-6.1,22-21.5,25.7-20.9c3.7,0.6,26.8,31.5,13,51.9"/>
		</g>
	</g>
	<g>
		<g>
			<path d="M232.1,65.2c-0.3,0-0.6-0.1-0.9-0.3c-0.7-0.4-0.9-1.5-0.4-2.2c5.8-8.7,4.3-19,1.9-26.3c-4-12.9-12.4-22.4-14.1-23.2
				c-2.4,0-15.2,11.4-24.1,20.6c-5.7,6-13.6,16.9-13.8,17c-0.4,0.7-1.5,0.9-2.2,0.3c-0.7-0.4-0.9-1.5-0.3-2.2
				c0.3-0.4,8.1-11.2,14.1-17.3c0.1-0.1,20.5-21.4,26.6-21.4c0.1,0,0.3,0,0.3,0c3.1,0.4,10.2,10.2,14.4,19.6
				c4.2,9.6,7.5,23.3-0.3,34.7C233.1,65,232.5,65.2,232.1,65.2z"/>
		</g>
	</g>
</g>
<g>
	<g>
		<g>
			<path class="st11" d="M198.1,50.5c0,0,20.6-25.1,20.6-29.3s14.8,24.7,3.7,33.8c0,0-3.7-1.5-5.8-1.8c0,0,1.6-7.8-5.2-2.1
				C207,54.8,198.1,50.5,198.1,50.5z"/>
		</g>
	</g>
	<g>
		<g>
			<path d="M222.5,56.4c-0.1,0-0.4,0-0.6-0.1c-1-0.4-3.9-1.5-5.5-1.6c-0.4,0-0.9-0.3-1-0.6c-0.3-0.3-0.3-0.7-0.3-1.2
				c0.1-0.9,0.1-1.9,0-2.4c-0.1,0.1-0.9,0.3-2.7,1.8c-5.2,4.3-14.6-0.3-14.9-0.4c-0.4-0.1-0.7-0.6-0.9-1c-0.1-0.4,0-0.9,0.3-1.3
				c9.9-12,20.2-25.9,20.3-28.3c0-1.2,0.7-1.8,1.3-1.9c1.2-0.3,2.2,0.3,4.2,4.3c4,8.1,9.4,25.4,0.7,32.6
				C223.1,56.3,222.8,56.4,222.5,56.4z M218.3,51.9c1.3,0.3,2.8,0.9,3.7,1.2c1.8-1.9,2.8-4.8,2.8-8.4C225,37,221.5,28,219.4,24
				c-3.1,6.4-13.8,19.6-18.7,25.9c2.8,1,7.3,2.1,9.7,0.1c1.8-1.5,4.3-3.3,6.4-2.1C218.2,48.7,218.5,50.5,218.3,51.9z"/>
		</g>
	</g>
</g>
<g>
	<g>
		<g>
			<path class="st11" d="M214.1,49.3c0,0,6-7.5,4.9-13.6"/>
		</g>
	</g>
	<g>
		<g>
			<path d="M214.1,50.7c-0.3,0-0.7-0.1-1-0.3c-0.7-0.6-0.7-1.5-0.3-2.2c0,0,5.5-7,4.6-12.3c-0.1-0.9,0.4-1.6,1.3-1.8
				c0.9-0.1,1.6,0.4,1.8,1.3c1.2,6.7-4.9,14.5-5.2,14.8C215,50.6,214.6,50.7,214.1,50.7z"/>
		</g>
	</g>
</g>
<g>
	<g>
		<g>
			<path class="st0" d="M176.2,54.3c4.9,0.3,12.4-10.5,5.2-15.1S170.5,46,170.5,46S170,31,160.2,33.4s-4.3,13.3-4.3,13.3
				s-2.7-6.3-8.1-4.5c-10.9,3.7-5.2,15.1,3.6,16.4"/>
		</g>
	</g>
	<g>
		<g>
			<path d="M151.3,60.3c-0.1,0-0.1,0-0.3,0c-5.7-0.9-10.5-5.4-10.9-10.3c-0.1-1.9,0.1-6.7,7-9.1c2.1-0.7,3.9-0.4,5.4,0.3
				c-0.1-1.5,0.1-3.1,0.7-4.5c1-2.4,3.3-3.9,6.3-4.8c2.8-0.7,5.2-0.3,7.2,1.3c2.4,1.8,3.6,4.9,4.3,7.6c1-1.6,2.5-3.1,4.6-3.9
				c1.3-0.4,3.6-0.7,6.3,1c3.3,2.2,4.5,5.8,3.1,9.9c-1.3,4.2-5.4,8.4-9.3,8.1c-0.9,0-1.5-0.7-1.5-1.6s0.7-1.5,1.6-1.5
				c1.8,0.1,4.9-2.5,6.1-6c0.6-1.9,0.7-4.5-1.8-6.3c-1.3-0.9-2.5-1-3.6-0.7c-2.5,0.9-4.5,5.1-4.9,6.6c-0.3,0.7-0.9,1.2-1.8,1
				c-0.7-0.1-1.3-0.7-1.3-1.5c0-2.1-0.9-8.1-3.9-10.5c-1.2-0.9-2.7-1.2-4.5-0.7c-2.1,0.6-3.6,1.5-4.2,3c-1.3,2.8,0.3,6.7,0.7,7.8
				c0,0.1,0.1,0.3,0.1,0.4c0.3,0.7,0,1.6-0.7,2.1c-0.7,0.3-1.6,0-2.1-0.7c0,0,0-0.1-0.1-0.3c-0.4-1-2.5-4.5-6-3.4
				c-3.4,1.2-5.2,3.3-4.9,5.8c0.3,3.1,3.6,6.9,8.2,7.5c0.9,0.1,1.5,0.9,1.3,1.8C152.8,59.7,152.1,60.3,151.3,60.3z"/>
		</g>
	</g>
</g>
<g>
	<g>
		<g>
			<path d="M181.8,166.1c-5.7,0-8.8-10.6-9.4-12.9c-0.3-0.9,0.3-1.6,1-1.9c0.9-0.3,1.6,0.3,1.9,1c1.2,4.6,4.2,10.9,6.6,10.5
				c2.4-0.4,3.1-7.5,3-12.1c0-0.9,0.6-1.6,1.5-1.6s1.6,0.6,1.6,1.5c0.1,2.4,0.6,14.4-5.5,15.4C182.3,166.1,182,166.1,181.8,166.1z"
				/>
		</g>
	</g>
</g>
<g>
	<g>
		<g>
			<g>
				<g>
					<g>
						<path class="st12" d="M198.3,122.9L198.3,122.9c-3.3,0.4-6.4-1.6-6.9-4.9l-0.1-0.9c-0.4-3.3,1.8-6.3,5.1-6.9
							c3.3-0.4,6.4,1.6,6.9,4.9l0.1,0.9C204,119.4,201.6,122.4,198.3,122.9"/>
					</g>
				</g>
			</g>
		</g>
	</g>
	<g>
		<g>
			<g>
				<g>
					<g>
						<path class="st12" d="M153.9,130.1L153.9,130.1c3.3-0.6,5.5-3.6,4.9-6.9l-0.1-0.7c-0.6-3.3-3.7-5.4-7-4.8
							c-3.3,0.6-5.5,3.6-4.9,6.9l0.1,0.7C147.5,128.6,150.6,130.7,153.9,130.1"/>
					</g>
				</g>
			</g>
		</g>
	</g>
</g>
<g>
	<g>
		<g>
			<path class="st1" d="M130.7,65.7c-1.5,0.3,3.9,12.9,4.5,13.9c3.3,6.4,12.1,7.2,18.4,5.8c4.6-1,9-3,13.5-4.2
				c4.9-1.5,10.6-1.6,15.7-1.8c7.3-0.1,15.2,0,17.5-8.7c1.3-5.4,1.5-12.4-1.5-17.2C198.6,53.4,131,65.5,130.7,65.7z"/>
		</g>
		<g>
			<path d="M148.2,87.7c-5.8,0-11.7-2.1-14.4-7.3c0-0.1-6-12.6-4.6-15.2c0.1-0.4,0.9-0.9,1.3-1l0,0c0.3,0,67.9-12.1,67.9-12.1
				c0.6-0.1,1.3,0.1,1.6,0.7c2.8,4.5,3.4,11.4,1.6,18.4c-2.4,9.4-11.1,9.6-18.1,9.9h-0.7c-5.2,0.1-10.6,0.4-15.2,1.8
				c-1.6,0.4-3.4,1-5.1,1.6c-2.7,0.9-5.5,1.9-8.5,2.5C152.1,87.4,150.2,87.7,148.2,87.7z M132.1,67c0.6,2.7,3.7,10.5,4.5,12
				c3.1,6.1,12,6.1,16.6,4.9c2.7-0.6,5.5-1.6,8.1-2.5c1.8-0.6,3.4-1.2,5.2-1.8c4.9-1.5,10.6-1.8,16.1-1.9h0.7
				c6.9-0.1,13.5-0.3,15.1-7.5c1.3-5.7,1-11.4-0.7-15.1C189.8,56.7,140.1,65.5,132.1,67z"/>
		</g>
	</g>
	<g>
		<g>
			<path class="st13" d="M130.7,65.7c0,0,3.7,12.6,34.4,6.3c30.6-6.3,33.6-14.9,33.5-18.4L130.7,65.7z"/>
		</g>
		<g>
			<path d="M149.9,75.3c-17.6,0-20.5-8.7-20.6-9.1c-0.1-0.4,0-0.9,0.1-1.3c0.3-0.4,0.6-0.6,1-0.7l67.9-12.1c0.4-0.1,0.9,0,1.2,0.3
				s0.6,0.7,0.6,1.2c0.3,4.8-3.9,13.8-34.7,20C159.3,74.7,154,75.3,149.9,75.3z M133.3,66.7c2.4,2.8,10,7.9,31.5,3.6
				c24.8-5.1,30.6-11.5,32-14.9L133.3,66.7z M130.7,65.7L130.7,65.7L130.7,65.7z"/>
		</g>
	</g>
	<g>
		<g>
			<g>
				<path class="st1" d="M124.7,49.7c3.3-14.2,19.4-19.9,32.1-22.6c16.4-3.3,29.6-1.9,42,10.6c7.5,7.6,0.7,16.9-7,20.8
					c-10.8,5.2-22.7,8.4-34.7,9.1c-12.9,0.9-36.2,2.5-32.4-17.5C124.6,50.2,124.7,50,124.7,49.7z"/>
			</g>
			<g>
				<path d="M146.7,69.7c-8.1,0-16.4-1.2-20.9-6.3c-2.8-3.3-3.9-7.8-2.7-13.5l0.1-0.6l0,0c2.8-11.8,14.1-19.7,33.3-23.8
					c19-3.9,32-0.6,43.3,11.1c3,3,4.2,6.6,3.6,10.3c-0.9,5.1-5.2,10.2-11.1,13c-10.9,5.2-23,8.5-35.3,9.3
					C153.9,69.6,150.3,69.7,146.7,69.7z M126.2,50.2l-0.1,0.4c-0.9,4.8-0.3,8.2,1.9,10.9c5.5,6.3,19.9,5.4,28.6,4.8
					c12-0.7,23.8-3.9,34.2-9c4.9-2.4,8.7-6.7,9.4-10.8c0.4-2.7-0.4-5.2-2.7-7.6C186.8,28,175.1,25.2,157,28.8
					C139.1,32.5,128.8,39.7,126.2,50.2z"/>
			</g>
		</g>
	</g>
	<g>
		<g>
			<g>
				<path class="st6" d="M169.4,50.2c-4.8,0.7-6.4-0.9-6.4-0.9s-1,2.2-5.8,3c0,0,1.8,11.5,8.1,10.6S169.4,50.2,169.4,50.2z"/>
			</g>
			<g>
				<path d="M164.4,64.1c-1.2,0-2.4-0.4-3.4-1.2c-3.9-2.8-5.1-10.3-5.2-10.6c-0.1-0.7,0.3-1.3,1-1.5c3.9-0.6,4.9-2.2,4.9-2.2
					c0.1-0.3,0.6-0.6,1-0.6c0.4,0,0.9,0,1,0.3l0,0c0,0,1.5,1.2,5.4,0.6c0.7-0.1,1.3,0.3,1.5,1c0,0.3,1.3,7.8-1.5,11.7
					c-0.9,1.3-2.2,2.1-3.9,2.4C165.1,64.1,164.7,64.1,164.4,64.1z M158.7,53.1c0.6,2.4,1.8,6.1,3.9,7.6c0.7,0.6,1.5,0.7,2.4,0.6
					c0.9-0.1,1.6-0.6,2.1-1.3c1.5-2.1,1.5-6.1,1.2-8.5c-2.4,0.1-4-0.3-5.1-0.7C162.4,51.6,161.1,52.5,158.7,53.1z"/>
			</g>
		</g>
		<g>
			<g>
				<g>
					<path class="st7" d="M166.6,57.2c0.1,1.2-0.7,1.6-2.1,1.8c-1.3,0.1-2.4,0.1-2.5-1c-0.1-1.2,0.7-2.2,1.9-2.5
						C165.3,55.4,166.4,56.1,166.6,57.2z"/>
				</g>
			</g>
			<g>
				<g>
					<g>
						
							<ellipse transform="matrix(0.9869 -0.1614 0.1614 0.9869 -6.9 26.7283)" class="st7" cx="161.1" cy="55.8" rx="0.7" ry="0.9"/>
					</g>
				</g>
				<g>
					<g>
						
							<ellipse transform="matrix(0.9869 -0.1614 0.1614 0.9869 -6.6817 27.6346)" class="st7" cx="166.8" cy="54.9" rx="0.7" ry="0.9"/>
					</g>
				</g>
			</g>
			<g>
				<g>
					<g>
						
							<ellipse transform="matrix(0.9869 -0.1614 0.1614 0.9869 -6.6352 26.9747)" class="st7" cx="162.7" cy="54.3" rx="0.7" ry="0.9"/>
					</g>
				</g>
				<g>
					<g>
						
							<ellipse transform="matrix(0.9869 -0.1614 0.1614 0.9869 -6.5378 27.3045)" class="st7" cx="164.8" cy="53.9" rx="0.7" ry="0.9"/>
					</g>
				</g>
			</g>
		</g>
	</g>
</g>
<g>
	<g>
		<g>
			<g>
				<path class="st1" d="M258.2,202c2.1,4.3,3.6,8.8,3.6,13.2c-0.1,4.6-2.2,9.3-6.4,11.4c-6.1,3-11.5-0.4-16.3-3.9
					c-9.6-6.6-20.2-14.5-27.1-23.9c-1.5-2.1-1.2-6.3-1.6-8.8c-0.7-4.8,2.4-9.3,5.7-12.7c7-7.6,15.4-10.6,22.4-3.4
					c5.8,5.8,10.8,12.4,14.9,19.6C254.9,195.9,256.7,198.9,258.2,202z"/>
			</g>
			<g>
				<path d="M250.6,229.2c-4.9,0-9.1-3-12.6-5.4c-9.6-6.6-20.3-14.5-27.5-24.4c-1.3-1.8-1.5-4.6-1.6-7c0-0.9-0.1-1.8-0.1-2.4
					c-0.9-5.8,3-10.8,6.1-14.1c4.8-5.2,9.9-7.9,14.6-8.1c3.7,0,7.2,1.5,10.2,4.5c5.8,6,10.9,12.7,15.2,19.9l0.1,0.3
					c1.5,2.5,3.3,5.5,4.6,8.7l0,0c2.5,5.4,3.7,9.9,3.7,13.9c-0.1,5.5-3,10.6-7.3,12.7C254.2,228.9,252.2,229.2,250.6,229.2z
					 M229.7,171.2C229.5,171.2,229.5,171.2,229.7,171.2c-4,0-8.4,2.5-12.6,7c-4.2,4.5-5.8,8.1-5.2,11.5c0.1,0.7,0.1,1.8,0.3,2.7
					c0.1,1.9,0.3,4.3,1,5.4c6.9,9.4,17.3,17.2,26.8,23.6c5.2,3.6,9.7,6.3,14.8,3.7c3.3-1.6,5.4-5.5,5.5-10c0-3.4-1-7.6-3.3-12.4l0,0
					c-1.3-3-3.1-5.8-4.6-8.4l-0.1-0.3c-4-7-9.1-13.6-14.6-19.3C234.9,172.4,232.4,171.2,229.7,171.2z"/>
			</g>
		</g>
		<g>
			<g>
				<path d="M216.1,204.7l-1.2-2.8c21.5-9.3,24.4-25.9,24.4-26l3.1,0.4C242.2,176.9,239.2,194.7,216.1,204.7z"/>
			</g>
		</g>
		<g>
			<g>
				<path class="st3" d="M245.5,181.7c0,0-5.4,19.7-26,25.6l2.7,2.5c0,0,18.8-1.5,26.2-24.4L245.5,181.7z"/>
			</g>
			<g>
				<path d="M222.1,211.3c-0.4,0-0.7-0.1-1-0.4l-2.7-2.4c-0.4-0.4-0.6-0.9-0.4-1.5c0.1-0.6,0.6-1,1-1.2c19.4-5.5,25-24.4,25-24.5
					c0.1-0.6,0.6-1,1.2-1.2c0.6-0.1,1.2,0.1,1.5,0.6l2.8,3.7c0.3,0.4,0.4,0.9,0.3,1.5C242.2,209.5,222.4,211.3,222.1,211.3
					C222.2,211.3,222.2,211.3,222.1,211.3z M222.5,208l0.1,0.1c3.3-0.4,17.5-3.7,23.9-22.4L246,185
					C243.7,190.5,237.3,202.6,222.5,208z"/>
			</g>
		</g>
		<g>
			<g>
				<path d="M227.4,215.5l-0.9-3c19.1-5.2,23.3-21.7,23.5-22.4l3,0.7C253,191.6,248.4,209.6,227.4,215.5z"/>
			</g>
		</g>
	</g>
	<g>
		<g>
			<path class="st0" d="M232.4,180.6c1.3-2.5,2.4-5.5,2.1-8.4c-0.3-3.1-2.1-5.8-3.9-8.4c-1.5-2.2-3.3-4.3-5.5-5.8
				c-2.2-1.5-5.2-1.9-7.6-0.6c-0.7,0.4-1.3,0.9-2.1,1.2c-1,0.3-2.1,0.1-3.1,0.1c-4.8-0.1-9.6,1.8-12.9,5.2
				c-3.3,3.4-5.2,8.2-5.4,12.9c-0.1,2.4,0.3,4.9,1.2,7.2c2.4,5.7,11.2,13.6,17.9,12.9C221,196.2,228.9,187.2,232.4,180.6z"/>
		</g>
		<g>
			<path d="M212.2,198.6c-7.3,0-16.1-8.1-18.5-13.9c-1-2.4-1.5-4.9-1.3-7.8c0.1-5.2,2.2-10.3,5.8-13.9c3.7-3.7,9-6,14.1-5.8h0.6
				c0.7,0,1.5,0.1,2.1-0.1c0.3-0.1,0.6-0.3,1-0.6c0.3-0.1,0.6-0.4,0.9-0.6c2.7-1.5,6.3-1.2,9.3,0.7c2.5,1.6,4.3,3.9,6,6.3
				c1.8,2.5,3.9,5.7,4.2,9.1c0.3,2.8-0.4,5.8-2.2,9.3l0,0c-3.3,6.4-11.5,16.4-20.6,17.2C212.8,198.6,212.5,198.6,212.2,198.6z
				 M211.4,160.3c-4,0-8.2,1.8-11.2,4.8c-3,3.1-4.8,7.3-4.9,11.8c-0.1,2.4,0.3,4.6,1,6.4c2.2,5.1,10.5,12.6,16.3,12
				c7-0.6,14.6-8.5,18.2-15.5l0,0c1.5-2.8,2.1-5.4,1.9-7.5c-0.3-2.7-1.9-5.2-3.6-7.6c-1.5-2.1-3-4-5.1-5.4c-2.1-1.3-4.5-1.5-6.1-0.6
				c-0.3,0.1-0.4,0.3-0.6,0.4c-0.4,0.3-1,0.7-1.6,0.9c-1.2,0.4-2.2,0.3-3.3,0.3H212C211.9,160.3,211.7,160.3,211.4,160.3z"/>
		</g>
	</g>
</g>
<g>
	<g>
		<g>
			<path class="st6" d="M263.8,36c-6.9,4.9-10.3,14.1-8.7,22.3c3.6,0.9,7.3,1,10.9,0.6c-0.3-3.9,2.2-7.9,5.8-9.3s8.2-0.1,10.5,3.1
				c2.2,3.1,1.9,7.9-0.7,10.8c-3.3,3.6-9.3,3.9-12.1,7.6c-3.3,4.3-1.2,10.3-1.8,15.7c0,0,6.4,0.1,6.9,0.1c2.2,0,4,0,6.3-0.7
				c0.1,0,0.3-0.1,0.4-0.3c0.1-0.1,0.1-0.4,0.1-0.6c-0.1-2.5-0.1-6.7,1.2-9.1c1.5-2.7,5.4-4.3,7.6-6.3c5.5-4.5,8.5-12,7.8-19
				C296.2,34.8,277.1,26.4,263.8,36z"/>
		</g>
		<g>
			<path d="M275.3,88.4c-0.3,0-0.4,0-0.7,0H273c-7-0.1-7-0.1-7-1.6c0.1-1.8,0.1-3.6,0-5.4c-0.1-3.9-0.4-7.9,2.1-11.4
				c1.8-2.4,4.3-3.4,6.9-4.6c2.1-0.9,4-1.8,5.4-3.1c2.1-2.2,2.4-6.3,0.6-8.8s-5.5-3.7-8.5-2.5c-3,1.2-5.1,4.5-4.8,7.6
				c0,0.9-0.6,1.5-1.3,1.6c-3.9,0.4-7.8,0.3-11.5-0.6c-0.6-0.1-1-0.6-1.2-1.2c-1.8-8.8,1.9-18.5,9.3-23.8l0,0
				c6.7-4.9,15.4-5.7,23.2-2.2c7.6,3.4,12.6,10.3,13.5,18.4c0.7,7.6-2.4,15.5-8.4,20.3c-0.7,0.7-1.8,1.3-2.7,1.9
				c-1.8,1.2-3.7,2.4-4.5,3.9c-0.9,1.8-1.2,5.4-0.9,8.2c0,0.3,0.1,1-0.4,1.6c-0.4,0.6-1,0.7-1.2,0.7
				C279.2,88.3,277.5,88.4,275.3,88.4z M269.3,85.3c1.2,0,2.7,0,3.9,0h1.5c1.9,0,3.4,0,5.2-0.4c-0.1-1.9-0.1-6.4,1.3-9.3
				c1.2-2.2,3.4-3.7,5.5-5.1c0.9-0.6,1.8-1.2,2.4-1.6c5.1-4.2,7.9-11.1,7.2-17.6c-0.7-7-5.1-12.9-11.7-15.8c-6.7-3-14.2-2.2-20,1.9
				c-6,4.3-9.3,12.3-8.2,19.6c2.7,0.6,5.4,0.6,8.1,0.4c0.3-4,3-7.8,6.9-9.3c4.3-1.6,9.6-0.1,12.3,3.6c2.7,3.7,2.4,9.4-0.7,12.7
				c-1.8,1.9-4.2,3-6.4,3.9c-2.2,1-4.3,1.9-5.7,3.6c-1.8,2.4-1.6,5.7-1.5,9.3C269.3,82.6,269.4,83.9,269.3,85.3z"/>
		</g>
	</g>
	<g>
		<g>
			<path class="st6" d="M269.7,92.8c-0.4,0-1,0-1.3,0.4c-0.3,0.3-0.3,0.6-0.3,1c-0.3,2.2-0.9,7.3,0.7,9.1c1.3,1.5,4.8,1.3,6.6,1.2
				c1.5-0.1,4-0.3,5.4-0.9c0.9-0.4,1.5-1.5,1.8-2.5c0.3-1,0.1-2.1,0.1-3.1c-0.1-2.4-0.6-4.8-3.1-5.1
				C276.5,92.3,272.9,92.6,269.7,92.8z"/>
		</g>
		<g>
			<path d="M273.6,106.1c-1.9,0-4.5-0.3-5.8-1.8c-1.9-2.1-1.6-6.4-1.2-10.3c0-0.4,0.1-1.2,0.7-1.8c0.7-0.9,1.9-0.9,2.4-0.9
				c0.9,0,1.8,0,2.8-0.1c2.4-0.1,4.8-0.3,7.2,0c4,0.6,4.3,4.6,4.5,6.6c0.1,1.2,0.1,2.4-0.1,3.7c-0.4,1.6-1.3,2.8-2.7,3.6
				c-1.3,0.7-3.4,0.9-5.1,1l-0.9,0.1C275.1,106.1,274.4,106.1,273.6,106.1z M269.7,94.2L269.7,94.2c-0.7,5.4-0.1,7.2,0.3,7.8
				c0.6,0.6,2.8,0.9,5.2,0.7l0.9-0.1c1.2-0.1,3.1-0.3,3.9-0.6c0.4-0.3,0.9-0.7,1-1.5s0.1-1.6,0-2.7c-0.1-3-0.7-3.4-1.8-3.6
				c-2.1-0.3-4.3-0.1-6.6,0c-1,0-1.9,0.1-3,0.1C269.9,94.2,269.9,94.2,269.7,94.2L269.7,94.2z M269.7,92.8L269.7,92.8L269.7,92.8z"
				/>
		</g>
	</g>
</g>
</svg>
