<svg xmlns="http://www.w3.org/2000/svg" viewBox="0 0 177.91 181.15"><defs><style>.cls-1{fill:#2b3036;}.cls-1,.cls-3,.cls-4,.cls-5,.cls-6,.cls-7,.cls-8{stroke:#000;stroke-linecap:round;stroke-linejoin:round;stroke-width:1.5px;}.cls-2{fill:#65717d;}.cls-3{fill:#0e7efd;}.cls-4{fill:#fddaac;}.cls-5{fill:#fdcc0e;}.cls-6{fill:#473904;}.cls-7{fill:none;}.cls-8{fill:#fff;}</style></defs><g id="레이어_3" data-name="레이어 3"><path class="cls-1" d="M83.37,164.8A7.82,7.82,0,0,1,78.53,169c-1.75.51-4,.59-4.81,2.21a3.07,3.07,0,0,0,1.12,3.69,6.27,6.27,0,0,0,4,1c1.4-.06,2.79-.34,4.2-.31,1.94,0,3.83.68,5.78.78s4.14-.54,5-2.27a5,5,0,0,0,.49-1.69,12.59,12.59,0,0,0-1.12-7.3"/><path class="cls-1" d="M108.1,157.71c1.62.3,2.64,2,3,3.59s.28,3.31.77,4.89,1.85,3.1,3.49,3,2.75-1.74,3.1-3.33.19-3.26.55-4.85c.33-1.43,1.09-2.75,1.33-4.2a6.42,6.42,0,0,0-5.91-7.17"/><path class="cls-2" d="M110.28,142.63c-1.53-1.55-4.88-5.14-7.45-8.32,1.91-5.55,4.28-11,5.69-16.64,1.27-5.17,1.69-10.8.14-16s-5.52-8.19-10.83-9.52C93.69,91.14,89,92,85,93.36c-2.71.93-6.69,1.76-7.72,4.84a21.15,21.15,0,0,0-.69,7.23c.21,11.39.65,23.51,7,32.94.21,0,.41.1.62.16-.59,6.07-1.3,12.12-2.22,18.15a10.4,10.4,0,0,0,.06,5.2c.84,2.28,3.24,3.7,5.65,4.06a20.85,20.85,0,0,0,7.23-.66,2.51,2.51,0,0,0,1.33-.58,2.36,2.36,0,0,0,.5-1.18c1.06-4.79,1.7-9.67,2.49-14.52l0,1.57,4.75,5.18a4,4,0,0,0,2,1.4,3.52,3.52,0,0,0,2-.3c2.51-.94,5-2.63,5.74-5.19C114.69,148.42,112.65,145,110.28,142.63Z"/><path class="cls-3" d="M93.26,100.68A26.86,26.86,0,0,0,103,99.35c1.72-.66,3.39-1.75,4-3.38.68-1.83-.17-3.86.16-5.77-7.73.71-20.62-3-26.55,2.86C73,100.61,88.36,100.67,93.26,100.68Z"/><path class="cls-4" d="M41.43,91.28c.22.73.75,1.48,1.51,1.53,1.1.07,1.69-1.24,2.52-2,1.17-1,3-.9,4.24-1.75,3.12-2.08.8-6.58-2.61-5.86S40.35,87.73,41.43,91.28Z"/><path class="cls-4" d="M134.9,93.89c.87,2.9,2.49,5.56,5.5,6.53a6.72,6.72,0,0,0,5-.69,3.4,3.4,0,0,0,1.48-2,3.62,3.62,0,0,0-1.15-2.61l-1.81-2.17a9.39,9.39,0,0,0-2.74-2.52,3.21,3.21,0,0,0-3.52.18"/><path class="cls-3" d="M49.16,80.46a8.07,8.07,0,0,0-1.91,1.25,1.14,1.14,0,0,0-.37.48A1.17,1.17,0,0,0,47,83a10.84,10.84,0,0,0,1.69,3.21,3.69,3.69,0,0,0,3.2,1.41,3,3,0,0,0,2.45-2.52A3.67,3.67,0,0,0,53,81.73a8.12,8.12,0,0,0-2.6-1.2"/><path class="cls-5" d="M107.23,43.11a19.58,19.58,0,0,1,8.13,4.65,17.19,17.19,0,0,1,4.07,4.92,19,19,0,0,1,1.68,7.71,61.23,61.23,0,0,1-3.65,24.21,9.53,9.53,0,0,1-1.58,3,7.67,7.67,0,0,1-5.15,2.28c-5.37.52-10.75-2.17-14.26-6.27s-5.32-9.45-6-14.81C89.32,58.93,93.32,39.74,107.23,43.11Z"/><path class="cls-3" d="M74.59,53.38c-7,7.62-13,16.82-21.89,22.15-1.56.94-3.29,2-3.75,3.77-.7,2.64,3.2,7.28,5.93,7.3s5.18-1.61,7.35-3.27C66,80.46,68.48,75.2,72,72.07a58.66,58.66,0,0,0,8.44-8.53"/><path class="cls-5" d="M71.17,60.52c.09,4.84,1.09,10.08,4.68,13.33a1.23,1.23,0,0,0,2.13-.2,18.57,18.57,0,0,0,2.66-5.48,83.48,83.48,0,0,0,2.61-9.31A16.37,16.37,0,0,0,83.74,53a6.36,6.36,0,0,0-3.1-4.78C73.94,44.82,71.09,56.29,71.17,60.52Z"/><path class="cls-3" d="M110.11,73.1c.19-10.6-.73-24-12.14-27.57-7.2-2.25-15.24-.06-18.89,6.89s-3.81,15.14-3.82,22.87c0,4.43-.62,8.79-.55,13.25.1,6.3,6.3,7.93,11.52,8.09,8,.24,14.12.9,21-3.95,2.18-1.53,1.77-3.08,1.8-5.52,0-3.56.85-7,1-10.53C110.05,75.5,110.09,74.32,110.11,73.1Z"/><path class="cls-4" d="M99.75,40.61a14,14,0,0,0-1,6,5.38,5.38,0,0,1-.18,2.53,3.43,3.43,0,0,1-.84,1.09,7.87,7.87,0,0,1-10.24.12"/><path class="cls-6" d="M117.14,14.59a10.7,10.7,0,0,1-.36,12.73c-1.1,1.33-2.54,2.4-3.4,3.9a6.47,6.47,0,0,0,2.29,8.49,8.23,8.23,0,0,1-7-8.32c.08-1.43.54-2.81.7-4.24.54-5.06-6.06-5.84-6.86-10.62a4.82,4.82,0,0,1,2-4.49C108.53,8.93,114.28,10.67,117.14,14.59Z"/><path class="cls-4" d="M90,48.21a16.56,16.56,0,0,1-12.29.93c-18.94-5.68-19.43-32.7-1-39.22,7.89-2.78,18.5-.06,23.14,6.91A24.61,24.61,0,0,1,102.63,22c2.24,6.16.23,12.92-3,18.74"/><circle cx="80.66" cy="27.27" r="1.2"/><circle cx="70.69" cy="27.27" r="1.2"/><path class="cls-7" d="M74.59,25.08a7.2,7.2,0,0,1-1.11,3.74,5,5,0,0,0-.74,1.34,1.19,1.19,0,0,0,.43,1.36"/><path class="cls-7" d="M73.1,36a6.39,6.39,0,0,0,6.57-2"/><path class="cls-6" d="M69.94,9.33a11.79,11.79,0,0,0-4.62,5.21,3.93,3.93,0,0,0-.2,2.46c.5,1.75,2.6,2.62,4.4,2.36A11.41,11.41,0,0,0,74.37,17a5.18,5.18,0,0,0,9.18,2.22,9.48,9.48,0,0,0,8.26,4.95c1.5,0,3.41-1.06,2.93-2.48,1.64,1.33,3.81,2.33,5.81,1.68,2.63-.86,3.65-4.34,2.66-6.92C101.07,10.78,95.48,8,90.1,6.16a20.87,20.87,0,0,0-13.93,0A29.08,29.08,0,0,0,69.94,9.33Z"/><path class="cls-5" d="M99.31,51.72c-2.11,4.05-2.46,10.46-2.14,13.5a34.65,34.65,0,0,0,4.37,13,13.3,13.3,0,0,0,3.61,4.55c4.62,3.34,6.32-1.13,7.2-5.13a54.94,54.94,0,0,0,1-17.44,18,18,0,0,0-2.51-8.29c-1.63-2.42-4.55-4.16-7.42-3.66C101.61,48.52,100.28,49.87,99.31,51.72Z"/><path class="cls-3" d="M108.56,73.41c.73.54,2.42,0,3.12.59,5.55,4.93,11.09,11.53,15.79,16.48,1.65,1.73,3.8,3.63,6.12,3s5.46-4.51,4.9-6.8c-1.15-4.66-5.16-7.58-8.47-10.69a154.13,154.13,0,0,1-11.86-12.78c-2.49-2.92-5.52-9.59-10.3-8a5,5,0,0,0-3.33,4.14c-.56,5.58-1.67,11.28.76,16.34.61,1.27,1.6,2.64,3,2.65C109.33,78.35,108.22,74.38,108.56,73.41Z"/><path class="cls-3" d="M136,89.06c-.85.9-3.7,2-3.59,3.28a2.58,2.58,0,0,0,2.35,2.43,3.44,3.44,0,0,0,1.37-.36A5.67,5.67,0,0,0,139.36,91C140.58,86.59,138.18,86.67,136,89.06Z"/><path class="cls-7" d="M106.27,96.57c4,6.06,4,14,2.25,21.1s-5,13.69-7,20.7c-2.32,8.21-2.87,16.82-4.72,25.15a2.36,2.36,0,0,1-.5,1.18,2.51,2.51,0,0,1-1.33.58,20.85,20.85,0,0,1-7.23.66c-2.41-.36-4.81-1.78-5.65-4.06a10.4,10.4,0,0,1-.06-5.2c2.18-14.23,3.18-28.61,4.19-43,.13-1.87-.75-3.49-.95-5.35"/><path class="cls-7" d="M77.3,98.2a21.15,21.15,0,0,0-.69,7.23c.21,11.39.65,23.51,7,32.94"/><path class="cls-7" d="M99.27,150.57l4.75,5.18a4,4,0,0,0,2,1.4,3.52,3.52,0,0,0,2-.3c2.51-.94,5-2.63,5.74-5.19,1-3.24-1.06-6.62-3.43-9s-5.25-4.5-6.62-7.59"/><path class="cls-8" d="M95.39,173.26c-2.39.46-4.59,1.28-7.07,1.41a63.41,63.41,0,0,1-7.27-.35c-.76-2.51-4.08-5.89-6.65-4.95-1.88.7-2.13,4.1-.93,5.48,1.77,2.05,6.29,3,8.87,3.16a19.37,19.37,0,0,0,11.24-2.49C94.38,175,95.47,174.27,95.39,173.26Z"/><path class="cls-8" d="M119.06,152.66c-.14,2,.1,3.94-.4,5.9a41.06,41.06,0,0,1-2.11,5.51c-2.57-.17-6.6,1.37-6.33,3.64.2,1.67,3.36,2.88,5,2.38,2.38-.75,4.42-4,5.18-5.91a13.42,13.42,0,0,0,.4-9.44C120.49,154,120,152.9,119.06,152.66Z"/><path class="cls-8" d="M83.2,166.67a7.56,7.56,0,0,0-2.38-.95,2.65,2.65,0,0,0-1.22,0,1.09,1.09,0,0,0-.79.85c-.08.67.71,1.16,1.39,1.12a7.14,7.14,0,0,0,1.92-.65,3.16,3.16,0,0,1,2.54.12,2,2,0,0,1,1,2.2.43.43,0,0,1-.2.29.36.36,0,0,1-.25,0c-1.44-.33-1.68-2.57-3.09-3"/><path class="cls-8" d="M110.89,157.71a7.66,7.66,0,0,0-2.15,1.4,2.48,2.48,0,0,0-.71,1,1.08,1.08,0,0,0,.23,1.13c.51.45,1.37.09,1.72-.49a7.92,7.92,0,0,0,.58-1.94,3.15,3.15,0,0,1,1.56-2,2,2,0,0,1,2.4.41.42.42,0,0,1,.13.33.36.36,0,0,1-.15.21c-1.09,1-3.06-.1-4.23.79"/></g></svg>