<?xml version="1.0" encoding="utf-8"?>
<!-- Generator: Adobe Illustrator 24.1.1, SVG Export Plug-In . SVG Version: 6.00 Build 0)  -->
<svg version="1.1" id="Layer_1" xmlns="http://www.w3.org/2000/svg" xmlns:xlink="http://www.w3.org/1999/xlink" x="0px" y="0px"
	 viewBox="0 0 226.71 330" style="enable-background:new 0 0 226.71 330;" xml:space="preserve">
<g>
	<path style="fill:#FFFFFF;" d="M77.37,77.5c-0.77,0.63-1.5,1.23-2.17,1.9c-0.23,0.2-0.47,0.43-0.7,0.63
		c-0.3,0.27-0.57,0.53-0.8,0.8c0,0,0,0-0.03,0c-1.7,1.8-3.97,2.7-6.23,2.7c-2.17,0-4.3-0.8-5.97-2.43c-1.8-1.73-2.7-4.03-2.7-6.33
		c0-0.4,0.03-0.83,0.1-1.23v-0.17c0.07-0.43,0.17-0.87,0.33-1.27c0.1-0.37,0.23-0.77,0.43-1.13c0-0.03,0.03-0.07,0.03-0.1
		c0.17-0.37,0.37-0.7,0.6-1.03c0.23-0.37,0.53-0.7,0.83-1.03c0.07-0.07,0.17-0.17,0.3-0.3c0.57-0.6,1.2-1.17,1.8-1.77
		c0.03,0,0.07-0.03,0.1-0.07c1.47-1.33,3-2.6,4.63-3.7c1.43,0.2,2.03,0.8,2.03,0.8c0.9,0.83,1.37,2.13,1.03,3.43
		c-0.2,0.83-0.73,1.47-1.37,1.93c0.73-0.37,1.6-0.53,2.47-0.3c1.83,0.5,2.97,2.4,2.47,4.27c-0.23,0.93-0.83,1.67-1.57,2.1
		c0.6-0.2,1.27-0.3,1.97-0.13C76.2,75.4,77.03,76.37,77.37,77.5z"/>
	<path style="fill:#FFFFFF;" d="M83.43,74.27c-0.73,0.2-1.43,0.47-2.17,0.8C82,74.74,82.7,74.44,83.43,74.27z"/>
	<path style="fill:#FFFFFF;" d="M86.06,73.97c-0.17,0-0.33-0.03-0.5,0H85.3c0.17-0.03,0.3-0.03,0.43-0.03
		C85.83,73.94,85.96,73.94,86.06,73.97z"/>
	<path style="fill:#673101;" d="M77.4,77.63c-0.77,0.57-1.53,1.17-2.2,1.77c-0.23,0.2-0.47,0.43-0.7,0.63
		c-0.3,0.27-0.57,0.53-0.8,0.8c0,0,0,0-0.03,0c-1.7,1.8-3.97,2.7-6.23,2.7c-2.17,0-4.3-0.8-5.97-2.43c-1.8-1.73-2.7-4.03-2.7-6.33
		c0-0.4,0.03-0.83,0.1-1.23v-0.17c0.07-0.43,0.17-0.87,0.33-1.27c0.1-0.37,0.23-0.77,0.43-1.13c0-0.03,0.03-0.07,0.03-0.1
		c0.17-0.37,0.37-0.7,0.6-1.03c0.23-0.37,0.53-0.7,0.83-1.03c0.07-0.07,0.17-0.17,0.3-0.3c0.57-0.6,1.2-1.17,1.8-1.77
		c0.03,0,0.07-0.03,0.1-0.07c1.47-1.33,3-2.6,4.63-3.7c1.43,0.2,2.03,0.8,2.03,0.8c0.9,0.83,1.37,2.13,1.03,3.43
		c-0.2,0.83-0.73,1.47-1.37,1.93c0.73-0.37,1.6-0.53,2.47-0.3c1.83,0.5,2.97,2.4,2.47,4.27c-0.23,0.93-0.83,1.67-1.57,2.1
		c0.6-0.2,1.27-0.3,1.97-0.13c1.23,0.33,2.07,1.3,2.4,2.43C77.37,77.53,77.4,77.6,77.4,77.63z"/>
	<path d="M73.7,80.8v0.03c0.23-0.27,0.5-0.53,0.8-0.8C74.2,80.3,73.93,80.57,73.7,80.8z"/>
	<path d="M85.73,73.94c-0.13,0-0.27,0-0.43,0.03h0.27c0.17-0.03,0.33,0,0.5,0C85.96,73.94,85.83,73.94,85.73,73.94z M81.27,75.07
		c0.73-0.33,1.43-0.6,2.17-0.8C82.7,74.44,82,74.74,81.27,75.07z"/>
	<path d="M99.83,61.04c-1.8-1.5-3.33-2.6-4.83-3.43c-2.13-1.17-4.17-2.03-6.2-2.63c-2.17-0.63-4.3-0.93-6.5-0.93
		c-2.47,0-4.93,0.37-7.57,1.17c-4.17,1.27-8.23,3.53-12.13,6.8c-0.7,0.53-1.37,1.13-2.03,1.77c-1.13,1-1.97,1.87-2.37,2.3
		c-1.73,1.87-2.87,4.17-3.27,6.67c-0.63,3.8,0.5,7.67,3.03,10.53c0.2,0.27,0.47,0.5,0.7,0.73c2.37,2.27,5.47,3.53,8.76,3.53
		c3.43,0,6.77-1.43,9.13-3.93c0.87-0.9,1.97-1.87,3.2-2.77c0.27-0.2,0.5-0.4,0.7-0.67c2.03-1.43,3.87-2.23,5.27-2.23
		c0.83,0,1.47,0.3,2.13,0.93c0.33,0.33,0.97,1.2,1.53,1.93c2.2,3,5.27,7.1,9.7,7.1c1.57,0,3.13-0.57,4.47-1.57
		c2.6-2,4.03-4.97,4.1-8.57C107.79,71.57,103.73,64.24,99.83,61.04z M101.13,83.13c-0.33,0.27-0.67,0.47-1.03,0.57
		c-0.17,0.07-0.33,0.13-0.5,0.13c-0.07,0-0.17,0.03-0.23,0.03c-0.1,0.03-0.2,0.03-0.27,0.03c-0.47,0-0.93-0.1-1.4-0.33
		c-0.17-0.07-0.33-0.13-0.47-0.23c-0.4-0.23-0.8-0.53-1.2-0.87c-0.2-0.17-0.37-0.33-0.57-0.53c-0.4-0.4-0.77-0.8-1.13-1.23
		c-0.7-0.87-1.37-1.8-2-2.63c-0.47-0.6-0.9-1.17-1.3-1.63c-0.13-0.13-0.23-0.27-0.37-0.4c-0.77-0.73-1.57-1.27-2.37-1.6
		c-0.2-0.07-0.4-0.17-0.63-0.2c-0.13-0.07-0.27-0.1-0.43-0.1C86.96,74.04,86.7,74,86.4,74c-0.1-0.03-0.23-0.03-0.33-0.03
		c-0.17,0-0.33-0.03-0.5,0H85.3c-0.13,0-0.27,0-0.4,0.03c-0.47,0.03-0.97,0.13-1.47,0.27c-0.73,0.2-1.43,0.47-2.17,0.8
		c-0.7,0.33-1.43,0.73-2.1,1.17c-0.53,0.33-1.03,0.7-1.53,1.07c-0.1,0.07-0.17,0.13-0.27,0.2c0,0.03,0.03,0.1,0.03,0.13
		c-0.77,0.57-1.53,1.17-2.2,1.77c-0.23,0.2-0.47,0.43-0.7,0.63c-0.3,0.27-0.57,0.53-0.8,0.8c0,0,0,0-0.03,0
		c-1.7,1.8-3.97,2.7-6.23,2.7c-2.17,0-4.3-0.8-5.97-2.43c-1.8-1.73-2.7-4.03-2.7-6.33c0-0.4,0.03-0.83,0.1-1.23v-0.17
		c0.07-0.43,0.17-0.87,0.33-1.27c0.1-0.37,0.23-0.77,0.43-1.13c0-0.03,0.03-0.07,0.03-0.1c0.17-0.37,0.37-0.7,0.6-1.03
		c0.23-0.37,0.53-0.7,0.83-1.03c0.07-0.07,0.17-0.17,0.3-0.3c0.57-0.6,1.2-1.17,1.8-1.77c0.03,0,0.07-0.03,0.1-0.07
		c1.47-1.33,3-2.6,4.63-3.7c1.83-1.27,3.77-2.37,5.83-3.2c0.7-0.27,1.4-0.53,2.1-0.73c0.47-0.13,0.93-0.27,1.4-0.37
		c0.3-0.1,0.6-0.17,0.9-0.2c0.27-0.1,0.53-0.13,0.8-0.17c0.1-0.03,0.23-0.07,0.33-0.07c1.53-0.23,3.07-0.3,4.53-0.13
		c0.43,0.03,0.87,0.1,1.3,0.13c0.43,0.07,0.87,0.13,1.3,0.23c0.43,0.1,0.83,0.2,1.27,0.33c1.77,0.53,3.53,1.3,5.37,2.3
		c1.5,0.83,2.9,1.9,4.23,3C101.53,67.64,106.96,78.7,101.13,83.13z"/>
	<path style="fill:#FFFFFF;" d="M97.3,64.1c-1.33-1.1-2.73-2.17-4.23-3c-1.83-1-3.6-1.77-5.37-2.3c-0.43-0.13-0.83-0.23-1.27-0.33
		c-0.43-0.1-0.87-0.17-1.3-0.23c-0.43-0.03-0.87-0.1-1.3-0.13c-1.47-0.17-3-0.1-4.53,0.13c-0.1,0-0.23,0.03-0.33,0.07
		c-0.27,0.03-0.53,0.07-0.8,0.17c-0.3,0.03-0.6,0.1-0.9,0.2c-0.47,0.1-0.93,0.23-1.4,0.37c-0.7,0.2-1.4,0.47-2.1,0.73
		c-2.07,0.83-4,1.93-5.83,3.2c1.43,0.2,2.03,0.8,2.03,0.8c0.9,0.83,1.37,2.13,1.03,3.43c-0.2,0.83-0.73,1.47-1.37,1.93
		c0.73-0.37,1.6-0.53,2.47-0.3c1.83,0.5,2.97,2.4,2.47,4.27c-0.23,0.93-0.83,1.67-1.57,2.1c0.6-0.2,1.27-0.3,1.97-0.13
		c1.23,0.33,2.07,1.3,2.4,2.43c0.1-0.07,0.17-0.13,0.27-0.2c0.5-0.37,1-0.73,1.53-1.07c0.67-0.43,1.4-0.83,2.1-1.17
		c0.73-0.33,1.43-0.63,2.17-0.8c0.5-0.13,1-0.23,1.47-0.27c0.13-0.03,0.27-0.03,0.4-0.03c0.17-0.03,0.3-0.03,0.43-0.03
		c0.1,0,0.23,0,0.33,0.03c0.1,0,0.23,0,0.33,0.03c0.3,0,0.57,0.03,0.83,0.13c0.1,0,0.2,0.03,0.3,0.03c0.03,0.03,0.1,0.03,0.13,0.07
		c0.23,0.03,0.43,0.13,0.63,0.2c0.8,0.33,1.6,0.87,2.37,1.6c0.13,0.13,0.23,0.27,0.37,0.4c0.4,0.47,0.83,1.03,1.3,1.63
		c0.63,0.83,1.3,1.77,2,2.63c0.37,0.43,0.73,0.83,1.13,1.23c0.2,0.2,0.37,0.37,0.57,0.53c0.4,0.33,0.8,0.63,1.2,0.87
		c0.13,0.1,0.3,0.17,0.47,0.23c0.53,0.23,1.1,0.33,1.67,0.3c0.07,0,0.17-0.03,0.23-0.03c0.17,0,0.33-0.07,0.5-0.13
		c0.37-0.1,0.7-0.3,1.03-0.57C106.96,78.7,101.53,67.64,97.3,64.1z"/>
</g>
<g>
	<path style="fill:#FFFFFF;" d="M139.01,58.82c-1.78,0.52-3.55,1.29-5.38,2.3c-1.5,0.83-2.91,1.89-4.22,2.99
		c-4.23,3.52-9.68,14.6-3.86,19.04c4.22,3.21,8.11-4.8,10.48-7.12c5.3-5.2,12.88,0.52,16.98,4.81c3.3,3.47,8.78,3.6,12.23,0.28
		c3.46-3.32,3.61-8.8,0.35-12.3c-4.06-4.33-9.04-8.03-14.77-9.77C146.55,57.76,142.78,57.72,139.01,58.82z"/>
	<path d="M171.78,72.74c-0.43-2.5-1.53-4.8-3.27-6.67c-0.43-0.43-1.27-1.3-2.47-2.37c-0.4-0.37-0.8-0.73-1.2-1.07
		c-4.1-3.57-8.4-6.07-12.86-7.43c-2.63-0.8-5.13-1.17-7.6-1.17c-2.2,0-4.33,0.3-6.5,0.93c-2.03,0.6-4.03,1.47-6.2,2.63
		c-1.5,0.83-3.03,1.93-4.83,3.43c-3.87,3.2-7.97,10.53-7.83,16.73c0.07,3.6,1.5,6.57,4.1,8.57c1.37,1,2.9,1.57,4.47,1.57
		c4.47,0,7.5-4.1,9.73-7.1c0.53-0.73,1.17-1.6,1.5-1.93c0.67-0.63,1.33-0.93,2.13-0.93c1.4,0,3.23,0.8,5.27,2.23
		c0.81,0.6,3.33,2.8,3.9,3.4c2.37,2.53,5.7,3.97,9.16,3.97c3.27,0,6.37-1.27,8.73-3.53C171.05,81.1,172.45,76.87,171.78,72.74z
		 M165.25,81.1c-1.7,1.63-3.83,2.43-5.97,2.43c-2.3,0-4.57-0.9-6.27-2.7l-0.03-0.03c-0.97-1-3.63-3.23-3.63-3.3
		c-2.57-1.97-5.57-3.57-8.4-3.57c-1.73,0-3.43,0.6-4.93,2.1c-1.97,1.93-5.03,7.87-8.43,7.87c-0.67,0-1.33-0.23-2.03-0.77
		c-5.83-4.43-0.37-15.5,3.87-19.03c1.3-1.1,2.7-2.17,4.2-3c1.83-1,3.6-1.77,5.4-2.3c1.77-0.5,3.53-0.77,5.37-0.77
		c2.07,0,4.17,0.33,6.43,1c2.77,0.87,5.37,2.17,7.77,3.83c1.7,1.1,3.3,2.4,4.8,3.8c1.13,1.07,1.93,1.83,2.2,2.13
		c1.23,1.33,1.97,2.9,2.23,4.57C168.28,76.13,167.42,79.03,165.25,81.1z"/>
	<path style="fill:#673101;" d="M165.25,81.1c-1.7,1.63-3.83,2.43-5.97,2.43c-2.3,0-4.57-0.9-6.27-2.7l-0.03-0.03
		c-0.97-1-3.63-3.23-3.63-3.3c0.3-1.13,1.17-2.1,2.4-2.43c0.67-0.17,1.33-0.07,1.97,0.13c-0.77-0.43-1.37-1.17-1.6-2.1
		c-0.47-1.87,0.63-3.77,2.5-4.27c0.83-0.23,1.7-0.07,2.43,0.3c-0.63-0.47-1.17-1.1-1.37-1.93c-0.5-1.87,0.63-3.77,2.47-4.27
		c0,0,0.13-0.03,0.43-0.07c1.7,1.1,3.3,2.4,4.8,3.8c1.13,1.07,1.93,1.83,2.2,2.13c1.23,1.33,1.97,2.9,2.23,4.57
		C168.28,76.13,167.42,79.03,165.25,81.1z"/>
</g>
<g>
	<path style="fill:#FFFFFF;" d="M104.68,235.18v39.49c0,0-2.93,0.73-6.83,0.73c-3.9,0-6.83-0.73-6.83-0.73v-39.49
		c0-2.6,2.1-4.73,4.73-4.73C98.35,230.44,104.68,232.58,104.68,235.18z"/>
	<path style="fill-rule:evenodd;clip-rule:evenodd;fill:#009FF9;" d="M104.68,274.67v35.76c0,2.4-3.27,4.37-5.9,4.87v0.1H86.21
		c-4.67,0-10.3,0.67-13.76-3.3c-2.37-2.73-1.7-8.17-0.2-11.13c2.77-5.47,8-9.46,13.96-10.76c0,0,0.3-0.07,0.33-0.1
		c1.7-0.33,3.17-0.4,4.47-0.4v-15.03c0,0,2.93,0.73,6.83,0.73C101.74,275.4,104.68,274.67,104.68,274.67z"/>
	<path d="M95.73,230.45c2.6,0,8.95,2.11,8.95,4.72v34.97h0v40.31c0,2.37-3.26,4.35-5.91,4.84v0.12h-1.16H94.2h-3.19h-4.78
		c-1.15,0-2.37,0.04-3.59,0.04c-3.73,0-7.58-0.37-10.19-3.36c-2.37-2.71-1.71-8.14-0.2-11.1c2.78-5.47,7.99-9.49,13.99-10.79
		c0,0,0.28-0.06,0.33-0.08c1.58-0.31,2.93-0.4,4.16-0.4c0.1,0,0.2,0,0.29,0v-15.05v-4.53v-34.97
		C91.01,232.56,93.13,230.45,95.73,230.45 M95.73,226.45c-4.81,0-8.72,3.91-8.72,8.72v34.97v4.53v11.31
		c-0.4,0.06-0.81,0.13-1.22,0.21l-0.47,0.11c-7.09,1.53-13.34,6.35-16.65,12.88c-1.96,3.85-3.02,11.22,0.76,15.54
		c3.64,4.17,8.71,4.73,13.2,4.73c0.64,0,1.29-0.01,1.92-0.02c0.57-0.01,1.13-0.02,1.68-0.02h4.78h3.19h3.41h1.16
		c0.65,0,1.27-0.16,1.81-0.43c4.1-1.12,8.1-4.29,8.1-8.52v-40.31l0-34.97C108.68,228.63,98.47,226.45,95.73,226.45L95.73,226.45z"/>
</g>
<g>
	<path style="fill:#FFFFFF;" d="M54.72,194.32c-1.77,2.87-3.2,5.9-4.33,9c-5,0.23-10.23-3.03-12.9-5.8
		c3.7-8.4,9.46-15.86,17.86-21.66c1.87-1.3,4.73-3.7,7.23-3.17C71.88,174.69,56.55,191.32,54.72,194.32z"/>
	<path style="fill:#0088C5;" d="M50.39,203.32c-0.33,0.83-0.6,1.7-0.87,2.57c-0.43,1.9-0.77,3.9-0.87,4.3
		c-1.67,6.37-0.83,11.93-0.43,18.4c0.17,3-0.03,6.43-1.87,8.33c-0.13,0.17-0.3,0.3-0.47,0.43c-0.37,0.3-0.77,0.5-1.2,0.7
		c-0.27,0.1-0.53,0.2-0.87,0.23c-0.17,0.07-0.37,0.1-0.57,0.1c-0.2,0.03-0.43,0.03-0.67,0.03c-0.1,0-0.17,0.03-0.27,0.03
		c-0.43,0-0.83-0.03-1.3-0.07c-0.73-0.1-1.53-0.3-2.3-0.57c-1.73-0.6-3.43-1.57-4.33-2.83c-4.17-5.8-2.8-13.73-1.9-20.03
		c0.47-3.23,1.17-6.47,2.1-9.63c0.07-0.23,0.33-1.07,0.67-2.13c0.13-0.4,0.27-0.83,0.43-1.3c0.37-1.23,0.83-2.5,1.23-3.37
		c0.1-0.3,0.2-0.53,0.3-0.7c0.1-0.2,0.2-0.3,0.27-0.3C40.16,200.28,45.39,203.55,50.39,203.32z"/>
	<path style="fill:#0088C5;" d="M50.42,203.32c-0.33,0.83-0.63,1.7-0.9,2.57c0.27-0.87,0.53-1.73,0.87-2.57H50.42z"/>
	<path d="M69.12,173.39c-0.5-1.37-1.9-3.8-5.7-4.6c-0.5-0.13-1.03-0.17-1.57-0.17c-3.27,0-6.03,1.97-8.07,3.43l-0.7,0.5
		c-8.3,5.73-14.63,13.3-18.86,22.56c-1.23,1.63-2.1,4.53-3.47,9.03c-0.97,3.3-1.7,6.7-2.2,10.23l-0.13,0.73
		c-0.93,6.47-2.23,15.3,2.7,22.2c1.77,2.47,4.7,3.73,6.3,4.3c1.03,0.33,2.1,0.6,3.1,0.73c0.6,0.07,1.2,0.1,1.8,0.1
		c3.57,0,5.77-1.53,6.97-2.8c2.27-2.43,3.23-6.13,2.93-11.33c-0.07-1.1-0.17-2.17-0.23-3.2c-0.37-4.97-0.67-9.26,0.53-13.96
		c0.03-0.17,0.13-0.63,0.27-1.27c0.17-0.8,0.37-1.9,0.6-2.97c1.23-3.83,2.83-7.37,4.77-10.5c0.2-0.33,1.03-1.43,1.77-2.37
		C65.92,186.35,71.15,178.99,69.12,173.39z M54.72,194.32c-1.73,2.87-3.13,5.9-4.3,9c-0.33,0.83-0.63,1.7-0.9,2.57
		c-0.43,1.9-0.77,3.9-0.87,4.3c-1.67,6.37-0.83,11.93-0.43,18.4c0.17,3-0.03,6.43-1.87,8.33c-0.13,0.17-0.3,0.3-0.47,0.43
		c-0.37,0.3-0.77,0.5-1.2,0.7c-0.27,0.1-0.53,0.2-0.87,0.23c-0.17,0.07-0.37,0.1-0.57,0.1c-0.2,0.03-0.43,0.03-0.67,0.03
		c-0.1,0-0.17,0.03-0.27,0.03c-0.43,0-0.83-0.03-1.3-0.07c-0.73-0.1-1.53-0.3-2.3-0.57c-1.73-0.6-3.43-1.57-4.33-2.83
		c-4.17-5.8-2.8-13.73-1.9-20.03c0.47-3.23,1.17-6.47,2.1-9.63c0.07-0.23,0.33-1.07,0.67-2.13c0.13-0.4,0.27-0.83,0.43-1.3
		c0.37-1.23,0.83-2.5,1.23-3.37c0.1-0.3,0.2-0.53,0.3-0.7c0.1-0.2,0.2-0.3,0.27-0.3c0.03,0,0.03,0,0.03,0
		c3.7-8.4,9.46-15.86,17.83-21.66c1.7-1.17,4.2-3.23,6.5-3.23c0.23,0,0.5,0,0.73,0.07C71.88,174.69,56.55,191.32,54.72,194.32z"/>
</g>
<g>
	<path style="fill:#FFFFFF;" d="M189.19,197.52c-2.63,2.77-7.9,6.07-12.86,5.8c-0.57-1.57-1.23-3.1-1.97-4.6
		c-0.7-1.5-1.5-2.97-2.37-4.4c-1.83-3-17.16-19.63-7.87-21.63c0.23-0.07,0.5-0.07,0.73-0.07c2.3,0,4.8,2.07,6.5,3.23
		c2.1,1.43,4.03,3,5.8,4.67c0.9,0.8,1.73,1.67,2.53,2.53c0.83,0.87,1.6,1.73,2.33,2.67c0.5,0.63,1,1.27,1.47,1.93
		c0.93,1.23,1.77,2.47,2.53,3.77c0.6,0.97,1.17,1.97,1.67,3C188.23,195.42,188.73,196.48,189.19,197.52z"/>
	<path style="fill:#0088C5;" d="M192.33,234.98c-0.9,1.27-2.6,2.23-4.33,2.83c-0.77,0.27-1.57,0.47-2.3,0.57
		c-0.47,0.03-0.87,0.07-1.3,0.07c-0.1,0-0.17-0.03-0.27-0.03c-0.23,0-0.47,0-0.67-0.03c-0.2,0-0.4-0.03-0.57-0.1
		c-0.33-0.03-0.6-0.13-0.87-0.23c-0.43-0.2-0.83-0.4-1.2-0.7c-0.17-0.13-0.33-0.27-0.47-0.43c-1.83-1.9-2.03-5.33-1.87-8.33
		c0.4-6.47,1.23-12.03-0.43-18.4c0-0.1-0.07-0.27-0.13-0.5c-0.13-0.8-0.4-2.33-0.73-3.8c-0.27-0.87-0.53-1.73-0.87-2.57
		c4.97,0.27,10.23-3.03,12.86-5.8c0.03,0,0.03,0,0.03,0c0.03,0,0.07,0,0.1,0.07c0.03,0.03,0.1,0.1,0.13,0.2
		c0.27,0.47,0.7,1.57,1.13,2.73c0.07,0.2,0.13,0.43,0.2,0.63c0.1,0.23,0.17,0.5,0.23,0.73c0.17,0.47,0.3,0.9,0.43,1.3
		c0.33,1.07,0.6,1.9,0.67,2.13c0.93,3.17,1.6,6.4,2.1,9.63C195.13,221.25,196.49,229.18,192.33,234.98z"/>
	<path style="fill:#0088C5;" d="M177.2,205.88c-0.27-0.87-0.57-1.73-0.9-2.57h0.03C176.66,204.15,176.93,205.02,177.2,205.88z"/>
	<path d="M183.35,238.36c-0.48-0.07-0.94-0.16-1.32-0.32C182.42,238.2,182.87,238.3,183.35,238.36z M185.7,238.38
		c-0.58,0.08-1.08,0.06-1.58,0.04c0.1,0,0.18,0.02,0.28,0.02C184.83,238.44,185.23,238.41,185.7,238.38z M184.12,238.42
		c-0.27-0.01-0.53-0.03-0.77-0.06C183.59,238.4,183.85,238.41,184.12,238.42z"/>
	<path d="M198.29,215.11l-0.13-0.73c-0.5-3.53-1.23-6.93-2.2-10.2c-1.37-4.53-2.23-7.47-3.47-9.1c-4.23-9.23-10.6-16.8-18.86-22.53
		l-0.7-0.5c-2.03-1.47-4.8-3.43-8.07-3.43c-0.53,0-1.07,0.03-1.57,0.17c-3.8,0.8-5.2,3.23-5.7,4.6c-2.03,5.6,3.2,12.96,9.2,20.66
		c0.73,0.93,1.57,2.03,1.77,2.37c1.93,3.13,3.53,6.67,4.77,10.5c0.23,1.07,0.43,2.17,0.6,2.97c0.13,0.63,0.23,1.1,0.27,1.27
		c1.2,4.7,0.9,9,0.53,13.96c-0.07,1.03-0.17,2.1-0.23,3.2c-0.3,5.2,0.67,8.9,2.93,11.33c1.2,1.27,3.4,2.8,6.97,2.8
		c0.6,0,1.2-0.03,1.8-0.1c1-0.13,2.07-0.4,3.1-0.73c1.6-0.57,4.53-1.83,6.3-4.3C200.53,230.41,199.23,221.58,198.29,215.11z
		 M192.33,234.98c-0.9,1.27-2.6,2.23-4.33,2.83c-0.77,0.27-1.57,0.47-2.3,0.57c-0.83,0.1-1.57,0.13-2.23,0c-0.2,0-0.4-0.03-0.57-0.1
		c-0.33-0.03-0.6-0.13-0.87-0.23c-0.43-0.2-0.83-0.4-1.2-0.7c-0.17-0.13-0.33-0.27-0.47-0.43c-1.83-1.9-2.03-5.33-1.87-8.33
		c0.4-6.47,1.23-12.03-0.43-18.4c-0.03-0.1-0.07-0.27-0.13-0.5c-0.13-0.8-0.4-2.33-0.73-3.8c-0.27-0.87-0.57-1.73-0.9-2.57
		c-0.57-1.57-1.23-3.1-1.93-4.6c-0.7-1.5-1.5-2.97-2.37-4.4c-1.83-3-17.16-19.63-7.87-21.63c0.23-0.07,0.5-0.07,0.73-0.07
		c2.3,0,4.8,2.07,6.5,3.23c2.1,1.43,4.03,3,5.8,4.67c0.9,0.8,1.73,1.67,2.53,2.53c0.83,0.87,1.6,1.73,2.33,2.67
		c0.53,0.63,1.03,1.27,1.47,1.93c0.93,1.23,1.77,2.47,2.53,3.77c0.6,0.97,1.17,1.97,1.67,3c0.53,1,1.03,2.07,1.5,3.1
		c0.03,0,0.03,0,0.03,0c0.03,0,0.07,0,0.1,0.07c0.03,0.03,0.1,0.1,0.13,0.2c0.27,0.47,0.7,1.57,1.13,2.73
		c0.07,0.2,0.13,0.43,0.2,0.63c0.1,0.23,0.17,0.5,0.23,0.73c0.17,0.47,0.3,0.9,0.43,1.3c0.33,1.07,0.6,1.9,0.67,2.13
		c0.93,3.17,1.6,6.4,2.1,9.63C195.13,221.25,196.49,229.18,192.33,234.98z"/>
</g>
<g>
	<path style="fill-rule:evenodd;clip-rule:evenodd;fill:#009FF9;" d="M169.77,204.95c0.53,9.96-1.93,24.6-8.57,33.16
		c-7.83,10.1-22.13,16.7-39.19,18.1c-2.03,0.17-4.23,0.27-6.4,0.27h-4.5c-2.17,0-4.37-0.1-6.43-0.27c-17.06-1.4-31.33-8-39.16-18.1
		c-6.67-8.57-9.1-23.2-8.6-33.16c0.3-5.57,1.53-11.2,2.7-16.66c0.63-2.8,1.23-5.57,1.73-8.4c0.53-3.1,0.2-8.9,0.2-9.2
		c-0.4-4.33-1.7-8.4-2.93-11.8c-4.8-13.4-5.6-25.93-2.53-39.43c2.77-12.2,8.53-22.56,15.86-28.39c12.2-9.73,26.36-15.33,38.89-15.33
		h5.03c12.5,0,26.69,5.6,38.89,15.33c7.33,5.83,13.1,16.2,15.86,28.39c3.07,13.5,2.23,26.03-2.57,39.43c-1.2,3.4-2.5,7.43-2.9,11.86
		c0,0.13-0.13,2.03-0.13,4.23c0,1.7,0.1,3.53,0.33,4.9c0.5,2.8,1.1,5.6,1.7,8.4C168.27,193.72,169.5,199.38,169.77,204.95z"/>
	<path style="fill-rule:evenodd;clip-rule:evenodd;fill:#FFFFFF;" d="M120.55,82.63c5.38,0.71,10.66,2.15,15.46,4.19
		c7.84,3.33,16.99,8.69,21.21,16.2c1.87,3.32,3.13,6.96,3.87,10.7c0.55,2.82-0.14,6.79,1.56,9.21c3.44,4.92,4.23,7.69,5.17,13.82
		c0.89,5.77,0.39,11.93-2.05,17.28c-6.36,13.92-21.74,19.79-35.81,20.24c-1.95,0.06-3.93,0.11-5.9,0.17
		c-9.14,0.28-18.16,0.12-27.31-0.17c-14.08-0.45-29.46-6.32-35.81-20.24c-2.44-5.35-2.94-11.51-2.05-17.28
		c0.95-6.13,1.73-8.9,5.17-13.82c1.69-2.42,1.01-6.39,1.56-9.21c0.73-3.74,2-7.38,3.87-10.7c4.22-7.51,11.25-12.87,19.1-16.2
		c3.18-1.35,6.49-2.39,9.85-3.16C105.01,82.13,113.85,81.75,120.55,82.63z"/>
	<path style="fill-rule:evenodd;clip-rule:evenodd;fill:#FDBDB8;" d="M92.08,138.9c0,8.2-6.6,14.85-14.74,14.85
		s-14.73-6.65-14.73-14.85c0-8.19,6.6-14.84,14.73-14.84S92.08,130.71,92.08,138.9"/>
	<path style="fill-rule:evenodd;clip-rule:evenodd;fill:#FDBDB8;" d="M164.1,138.9c0,8.2-6.6,14.85-14.74,14.85
		c-8.13,0-14.73-6.65-14.73-14.85c0-8.19,6.6-14.84,14.73-14.84C157.5,124.06,164.1,130.71,164.1,138.9"/>
	<path d="M170.96,187.42c-0.6-2.73-1.17-5.47-1.67-8.2c-0.4-2.2-0.23-6.7-0.13-8.17c0.33-3.9,1.57-7.67,2.67-10.83
		c5-13.93,5.9-27.56,2.7-41.66c-2.97-13.06-9.26-24.23-17.26-30.63c-12.93-10.33-27.99-16.13-41.53-16.2h-4.77
		c-13.4-0.17-28.59,5.87-41.53,16.2c-8.03,6.4-14.3,17.56-17.26,30.63c-3.2,14.1-2.3,27.73,2.67,41.66
		c1.13,3.17,2.33,6.93,2.7,10.76c0.1,1.53,0.23,6.03-0.13,8.23c-0.5,2.73-1.1,5.47-1.7,8.23c-1.2,5.6-2.47,11.4-2.8,17.3
		c-0.57,11.03,2.13,26.39,9.43,35.79c8.5,11,23.83,18.16,42.03,19.66c2.13,0.17,4.47,0.27,6.73,0.27h4.5c2.27,0,4.6-0.1,6.73-0.27
		c18.2-1.5,33.49-8.66,42.03-19.66c7.3-9.43,10-24.76,9.4-35.79C173.46,198.85,172.2,193.05,170.96,187.42z M115.61,256.47h-4.5
		c-2.17,0-4.37-0.1-6.43-0.27c-17.06-1.4-31.33-8-39.16-18.1c-6.67-8.57-9.1-23.2-8.6-33.16c0.3-5.57,1.53-11.2,2.7-16.66
		c0.63-2.8,1.23-5.57,1.73-8.4c0.53-3.1,0.2-8.9,0.2-9.2c-0.4-4.33-1.7-8.4-2.93-11.8c-4.8-13.4-5.6-25.93-2.53-39.43
		c2.77-12.2,8.53-22.56,15.86-28.39c12.2-9.73,26.36-15.33,38.89-15.33h5.03c12.5,0,26.69,5.6,38.89,15.33
		c7.33,5.83,13.1,16.2,15.86,28.39c3.07,13.5,2.23,26.03-2.57,39.43c-1.2,3.4-2.5,7.43-2.9,11.86c0,0.13-0.13,2.03-0.13,4.23
		c0,1.7,0.1,3.53,0.33,4.9c0.5,2.8,1.1,5.6,1.7,8.4c1.2,5.43,2.43,11.1,2.7,16.66c0.53,9.96-1.93,24.6-8.57,33.16
		c-7.83,10.1-22.13,16.7-39.19,18.1C119.97,256.37,117.78,256.47,115.61,256.47z"/>
</g>
<g>
	<path style="fill-rule:evenodd;clip-rule:evenodd;" d="M115.9,134.14c0,1.07-1.13,1.93-2.54,1.93s-2.55-0.86-2.55-1.93
		c0-1.06,1.14-1.93,2.55-1.93S115.9,133.07,115.9,134.14"/>
	<path style="fill-rule:evenodd;clip-rule:evenodd;" d="M127.97,131.83L127.97,131.83c-1.91,0-3.45-1.44-3.45-3.21v-0.45
		c0-1.77,1.54-3.21,3.45-3.21s3.45,1.44,3.45,3.21v0.45C131.42,130.39,129.87,131.83,127.97,131.83"/>
	<path style="fill-rule:evenodd;clip-rule:evenodd;" d="M98.74,131.83L98.74,131.83c-1.91,0-3.45-1.44-3.45-3.21v-0.45
		c0-1.77,1.54-3.21,3.45-3.21s3.45,1.44,3.45,3.21v0.45C102.19,130.39,100.65,131.83,98.74,131.83"/>
	<path style="fill:#231815;" d="M104.53,146.44c-2.73,0-5.47-0.69-7.74-2.27c-1.45-1-3.22-2.58-3.4-4.41
		c-0.09-0.88,0.2-1.72,0.81-2.37c0.76-0.8,2.03-0.83,2.83-0.07c0.6,0.58,0.77,1.44,0.48,2.17c0.27,0.34,0.83,0.88,1.56,1.38
		c3.78,2.62,9.97,1.65,12.97-0.98c0.76-0.66,1.88-0.66,2.64,0c2.99,2.63,9.18,3.61,12.97,0.98c0.73-0.51,1.28-1.04,1.56-1.38
		c-0.28-0.73-0.12-1.59,0.48-2.17c0.8-0.76,2.07-0.73,2.83,0.07c0.61,0.64,0.9,1.49,0.81,2.37c-0.19,1.82-1.95,3.4-3.4,4.41
		c-4.96,3.44-12.13,2.64-16.56-0.27C110.95,145.48,107.75,146.44,104.53,146.44z M129.62,140.16h0.03H129.62z"/>
</g>
<g>
	<path style="fill:#FFFFFF;" d="M135.71,238.24v7c0,0-3.03-2.27-6.93-2.27c-3.9,0-6.73,2.27-6.73,2.27v-7c0-2.63,3-4.73,5.6-4.73
		C130.24,233.51,135.71,235.61,135.71,238.24z"/>
	<path style="fill-rule:evenodd;clip-rule:evenodd;fill:#009FF9;" d="M154.27,284.93c-3.47,4-9.13,3.33-13.8,3.33h-12.53v-0.13
		c-2.67-0.47-5.9-2.43-5.9-4.83v-38.06c0,0,2.83-2.27,6.73-2.27c3.9,0,6.93,2.27,6.93,2.27v17.33c1.3,0,2.73,0.07,4.43,0.4
		c0.07,0.03,0.33,0.07,0.33,0.07c6,1.3,11.23,5.33,14,10.8C155.97,276.8,156.63,282.23,154.27,284.93z"/>
	<path d="M127.65,233.51c2.6,0,8.05,2.11,8.05,4.72V243v4.53v15.05c0.1,0,0.19,0,0.29,0c1.23,0,2.58,0.09,4.16,0.4
		c0.06,0.01,0.33,0.08,0.33,0.08c5.99,1.3,11.21,5.33,13.99,10.79c1.5,2.96,2.16,8.39-0.2,11.1c-2.61,2.99-6.46,3.36-10.19,3.36
		c-1.23,0-2.44-0.04-3.59-0.04h-4.78h-3.19h-3.41h-1.16v-0.12c-2.65-0.48-5.91-2.46-5.91-4.84V243h0v-4.77
		C122.03,235.62,125.04,233.51,127.65,233.51 M127.65,229.51c-4.55,0-9.62,3.58-9.62,8.72V243l0,40.31c0,4.26,4.06,7.45,8.2,8.55
		c0.52,0.26,1.1,0.41,1.71,0.41h1.16h3.41h3.19h4.78c0.55,0,1.11,0.01,1.68,0.02c0.63,0.01,1.27,0.02,1.92,0.02
		c4.49,0,9.57-0.56,13.2-4.73c3.77-4.32,2.71-11.69,0.76-15.54c-3.32-6.52-9.56-11.34-16.71-12.89l-0.26-0.06
		c-0.47-0.09-0.92-0.17-1.37-0.24v-11.32V243v-4.77C139.7,232.11,131.08,229.51,127.65,229.51L127.65,229.51z"/>
</g>
</svg>
