<?xml version="1.0" encoding="UTF-8"?>
<svg xmlns="http://www.w3.org/2000/svg" version="1.1" viewBox="0 0 390 390">
  <defs>
    <style>
      .cls-1 {
        fill: #582200;
      }

      .cls-2 {
        fill: #48649c;
      }

      .cls-3 {
        fill: #868686;
      }

      .cls-4 {
        fill: #c84600;
      }

      .cls-5 {
        fill: #ba162b;
      }

      .cls-6 {
        fill: #fa7920;
      }

      .cls-7 {
        fill: #a0a0a0;
      }

      .cls-8 {
        fill: #d7d7d7;
      }

      .cls-9 {
        fill: #fff;
      }

      .cls-10 {
        fill: #ca6100;
      }

      .cls-11 {
        fill: #23d600;
      }

      .cls-12 {
        fill: #00cf00;
      }

      .cls-13 {
        fill: #ffbc00;
      }

      .cls-14 {
        fill: #6b6b6b;
      }

      .cls-15 {
        fill: #a74200;
      }

      .cls-16 {
        fill: #dadada;
      }

      .cls-17 {
        fill: #ad4400;
      }

      .cls-18 {
        fill: #c97700;
      }
    </style>
  </defs>
  <!-- Generator: Adobe Illustrator 28.7.1, SVG Export Plug-In . SVG Version: 1.2.0 Build 142)  -->
  <g>
    <g id="_레이어_1" data-name="레이어_1">
      <g>
        <g>
          <path class="cls-15" d="M287.632,257.254c.28-.108.496-.323.755-.517,1.596-1.294,4.248-.992,5.541.625,1.941-1.833,5.175-2.07,7.374-.561.28.194.561.41.884.41.367,0,.668-.28.949-.517,1.897-1.617,5.024-2.458,7.374-1.337.108.043.216.108.302.172,3.083,6.533-2.846,11.535-9.293,11.665-5.045.108-19.534,2.523-21.647-3.752-.496-1.488-.474-3.083-.453-4.657,0-.496.022-1.013.043-1.509.647-.496,1.38-.862,2.178-1.056,1.337-.28,2.932-.108,4.161.539.561.302,1.207.712,1.833.496Z"/>
          <path class="cls-6" d="M285.799,256.758c-1.229-.647-2.825-.819-4.161-.539-.798.194-1.531.561-2.178,1.056.216-10.673.949-21.281.949-31.91,0-2.975-.755-8.085,1.445-10.436,1.876-1.984,6.662-.992,9.207,0,2.113,9.53,4.248,19.038,6.361,28.547.194.884.41,1.811.992,2.501.582.668,1.423,1.013,2.221,1.358,3.687,1.596,7.439,3.601,9.552,7.029.237.388.453.776.625,1.164-.086-.065-.194-.129-.302-.172-2.35-1.121-5.477-.28-7.374,1.337-.28.237-.582.517-.949.517-.323,0-.604-.216-.884-.41-2.199-1.509-5.433-1.272-7.374.561-1.294-1.617-3.946-1.919-5.541-.625-.259.194-.474.41-.755.517-.625.216-1.272-.194-1.833-.496Z"/>
        </g>
        <path d="M291.121,269.037c-5.564,0-11.047-.937-12.478-5.184-.567-1.701-.543-3.422-.52-5.087,0-.493.021-1.023.044-1.533.089-4.428.267-8.846.446-13.259.246-6.102.501-12.412.501-18.609,0-.55-.026-1.173-.055-1.838-.136-3.198-.304-7.18,1.848-9.484,2.435-2.577,7.822-1.415,10.622-.32l.644.251.149.674c1.157,5.222,2.322,10.437,3.486,15.651l2.875,12.897c.152.695.324,1.48.718,1.948.351.402.978.674,1.643.96,3.807,1.649,7.909,3.798,10.24,7.582.271.444.512.88.705,1.316,1.351,2.861,1.257,5.814-.276,8.285-1.906,3.074-5.899,5.114-10.173,5.199-.84.019-1.953.103-3.228.2-2.174.162-4.692.352-7.194.352ZM285.401,215.076c-1.159,0-2.117.223-2.608.741-1.407,1.503-1.257,5.028-1.149,7.601.031.705.058,1.367.058,1.948,0,6.247-.256,12.585-.504,18.714-.177,4.401-.356,8.806-.444,13.221v.032c-.023.476-.043.975-.043,1.453-.022,1.533-.042,2.965.386,4.247,1.428,4.245,11.571,3.485,17.023,3.072,1.331-.099,2.491-.185,3.37-.204,3.422-.069,6.572-1.63,8.026-3.975,1.071-1.727,1.113-3.748.124-5.845-.163-.364-.354-.703-.561-1.044-1.951-3.165-5.625-5.068-8.96-6.513-.959-.415-1.931-.836-2.681-1.695-.82-.973-1.086-2.188-1.28-3.076l-2.873-12.888c-1.113-4.984-2.227-9.97-3.334-14.962-1.495-.507-3.165-.825-4.549-.825Z"/>
      </g>
      <g>
        <g>
          <path class="cls-15" d="M260.125,257.254c-.302-.108-.517-.323-.755-.517-1.617-1.294-4.269-.992-5.563.625-1.941-1.833-5.175-2.07-7.374-.561-.28.194-.561.41-.884.41-.367,0-.668-.28-.949-.517-1.897-1.617-5.024-2.458-7.374-1.337-.108.043-.216.108-.302.172-3.083,6.533,2.846,11.535,9.293,11.665,5.045.108,19.534,2.523,21.647-3.752.496-1.488.474-3.083.453-4.657,0-.496-.022-1.013-.043-1.509-.647-.496-1.38-.862-2.178-1.056-1.337-.28-2.932-.108-4.14.539-.582.302-1.229.712-1.833.496Z"/>
          <path class="cls-6" d="M261.958,256.758c1.207-.647,2.803-.819,4.14-.539.798.194,1.531.561,2.178,1.056-.216-10.673-.949-21.281-.949-31.91,0-2.975.755-8.085-1.445-10.436-1.876-1.984-6.662-.992-9.207,0-2.113,9.53-4.248,19.038-6.361,28.547-.194.884-.41,1.811-.992,2.501-.582.668-1.423,1.013-2.221,1.358-3.687,1.596-7.439,3.601-9.552,7.029-.237.388-.453.776-.625,1.164.086-.065.194-.129.302-.172,2.35-1.121,5.477-.28,7.374,1.337.28.237.582.517.949.517.323,0,.604-.216.884-.41,2.199-1.509,5.433-1.272,7.374.561,1.294-1.617,3.946-1.919,5.563-.625.237.194.453.41.755.517.604.216,1.251-.194,1.833-.496Z"/>
        </g>
        <path d="M256.613,269.037c-2.501,0-5.018-.19-7.192-.352-1.275-.097-2.388-.181-3.23-.2-4.273-.084-8.267-2.125-10.172-5.199-1.532-2.472-1.627-5.424-.263-8.311.182-.411.423-.849.691-1.287,2.335-3.788,6.437-5.938,10.142-7.542.765-.331,1.395-.602,1.76-1.021.379-.451.552-1.236.703-1.927l2.86-12.84c1.169-5.232,2.337-10.469,3.499-15.712l.149-.674.644-.251c2.799-1.093,8.185-2.257,10.616.316,2.157,2.308,1.989,6.289,1.854,9.49-.028.665-.055,1.289-.055,1.836,0,6.197.255,12.507.501,18.609.179,4.413.357,8.831.446,13.261.022.507.044,1.04.044,1.55.022,1.653.045,3.373-.519,5.064-1.432,4.251-6.916,5.188-12.481,5.188ZM257.785,215.901c-1.113,5.013-2.23,10.018-3.347,15.023l-2.859,12.831c-.194.884-.46,2.099-1.265,3.055-.765.878-1.74,1.299-2.599,1.67-3.433,1.484-7.105,3.39-9.061,6.561-.205.337-.394.674-.545,1.013-1.001,2.122-.958,4.144.112,5.868,1.455,2.348,4.606,3.908,8.025,3.977.881.019,2.041.105,3.372.204,5.45.408,15.593,1.173,17.024-3.076.425-1.274.406-2.704.385-4.22,0-.501-.021-.998-.041-1.474l-.002-.034c-.088-4.415-.267-8.82-.444-13.221-.248-6.129-.504-12.467-.504-18.714,0-.581.027-1.24.058-1.946.108-2.573.257-6.098-1.155-7.607-1.072-1.135-4.405-.842-7.152.088Z"/>
      </g>
      <g>
        <path class="cls-2" d="M305.47,195.492c2.966,7.683,6.449,15.165,10.418,22.381-12.694,6.799-27.634,7.59-42.02,8.235-14.386-.645-29.325-1.436-42.02-8.235,3.969-7.216,7.452-14.699,10.418-22.381h63.203Z"/>
        <path d="M273.927,227.402c-13.886-.619-29.494-1.32-42.689-8.387-.305-.164-.532-.442-.63-.773-.098-.333-.06-.689.106-.992,3.927-7.138,7.407-14.617,10.346-22.224.193-.499.672-.827,1.206-.827h63.203c.535,0,1.014.328,1.206.827,2.934,7.599,6.415,15.078,10.345,22.224.166.303.204.659.106.992-.098.331-.324.609-.63.773-13.194,7.066-28.801,7.767-42.572,8.387ZM233.618,217.333c12.443,6.23,27.223,6.896,40.309,7.483,12.975-.587,27.752-1.253,40.192-7.483-3.585-6.633-6.787-13.535-9.534-20.548h-61.432c-2.75,7.02-5.952,13.922-9.535,20.548Z"/>
      </g>
      <g>
        <g>
          <g>
            <path class="cls-16" d="M196.389,96.325c.69,1.969,2.406,3.748,4.189,5.137,1.814,1.413,2.568,1.968,4.268.114,3.292-3.592,7.985-15.684-.19-16.573-4.701-.511-5.264,3.271-7.496,6.381-1.221,1.7-1.318,3.38-.771,4.942Z"/>
            <path d="M202.945,104.059c-1.137,0-2.133-.777-3.162-1.577-2.378-1.853-3.931-3.78-4.615-5.729h0c-.741-2.116-.416-4.234.941-6.123.49-.682.908-1.428,1.313-2.15,1.38-2.457,2.948-5.23,7.374-4.765,3.277.358,4.647,2.242,5.218,3.761,1.819,4.83-1.775,12.316-4.212,14.973-1.079,1.177-2.007,1.611-2.856,1.611ZM197.61,95.898c.508,1.451,1.81,3.022,3.763,4.542q1.613,1.257,2.52.261c2.325-2.535,4.96-8.966,3.698-12.313-.472-1.255-1.45-1.922-3.075-2.099-2.615-.293-3.415.92-4.839,3.459-.439.781-.894,1.592-1.468,2.39-.867,1.209-1.063,2.438-.6,3.761h0Z"/>
          </g>
          <g>
            <path class="cls-16" d="M193.88,96.007c2.494,2.708,6.34-2.644,6.925-4.706.76-2.676,1.604-7.323-1.216-9.129-5.071-3.248-10.995,4.607-9.505,9.266.623,1.949,2.131,3.287,3.796,4.569Z"/>
            <path d="M195.458,98.05c-.911,0-1.757-.371-2.449-1.08-1.631-1.261-3.412-2.807-4.157-5.138-1.143-3.571,1.1-7.955,3.929-10.13,2.449-1.878,5.185-2.106,7.505-.619,2.637,1.689,3.247,5.344,1.762,10.572-.508,1.792-3.002,5.637-5.756,6.294-.283.067-.562.101-.835.101ZM197.059,82.7c-1.05,0-1.995.512-2.7,1.055-2.298,1.767-3.72,5.171-3.043,7.29.48,1.497,1.638,2.617,3.353,3.937.058.046.113.095.162.149.32.343.57.368.862.301,1.522-.364,3.501-3.194,3.867-4.485.524-1.847,1.509-6.291-.67-7.687-.627-.402-1.245-.56-1.832-.56Z"/>
          </g>
          <g>
            <path class="cls-16" d="M182.064,94.883c1.835,3.192,6.767-1.179,7.793-3.06,1.332-2.442,3.181-6.788.83-9.172-4.228-4.288-11.741,2.066-11.316,6.939.178,2.038,1.352,3.677,2.693,5.294Z"/>
            <path d="M183.946,97.311c-1.238,0-2.278-.594-2.943-1.68-1.313-1.59-2.709-3.489-2.921-5.929-.326-3.735,2.83-7.515,6.068-9.01,2.809-1.293,5.524-.91,7.458,1.053,2.198,2.228,1.987,5.929-.615,10.698-.893,1.636-4.174,4.837-7.004,4.868h-.043ZM187.345,82.525c-.764,0-1.5.234-2.109.516-2.631,1.215-4.769,4.222-4.576,6.437.137,1.567,1.02,2.914,2.4,4.58.047.057.089.118.125.181.235.408.512.455.775.484,1.564-.017,4.119-2.341,4.762-3.518.919-1.684,2.86-5.803,1.044-7.645-.756-.766-1.604-1.034-2.421-1.034Z"/>
          </g>
          <g>
            <path class="cls-11" d="M157.813,151.953c-.031,3.279,1.591,5.334,6.358,4.43,14.166-2.687,20.608-23.459,29.784-32.762,4.373-4.433,7.948-9.731,10.02-15.626,1.28-3.643,2.924-8.318-.46-11.229-.757-.651-1.682-1.071-2.592-1.482-6.607-2.981-18.787-7.807-23.929.462-2.239,3.601-1.369,8.764-1.595,12.582-.518,8.755-5.612,15.937-9.659,23.373-1.566,2.877-7.867,13.877-7.927,20.252Z"/>
            <path d="M162.13,157.886c-1.583,0-2.857-.396-3.802-1.185-1.22-1.021-1.83-2.624-1.81-4.761h0c.059-6.273,5.621-16.377,7.714-20.18l.372-.678c.727-1.337,1.489-2.666,2.251-3.996,3.366-5.872,6.845-11.945,7.252-18.834.057-.96.041-2.007.026-3.091-.046-3.331-.098-7.106,1.762-10.096,6.064-9.753,20.737-3.135,25.56-.96.935.421,1.994.899,2.904,1.68,4.053,3.489,2.195,8.776.838,12.638-2.016,5.736-5.584,11.305-10.32,16.108-3.039,3.083-5.789,7.496-8.702,12.17-5.843,9.38-11.886,19.081-21.762,20.955-.82.154-1.581.232-2.281.232ZM159.107,151.965c-.013,1.324.284,2.251.882,2.75.73.613,2.095.747,3.941.396,8.761-1.661,14.5-10.871,20.049-19.778,2.99-4.801,5.815-9.334,9.055-12.619,4.47-4.535,7.832-9.772,9.721-15.15,1.49-4.241,2.43-7.656-.084-9.818-.625-.539-1.467-.918-2.279-1.284-7.483-3.375-17.935-7.047-22.3-.032-1.459,2.346-1.414,5.573-1.372,8.694.017,1.152.031,2.261-.029,3.278-.443,7.496-4.076,13.838-7.59,19.969-.754,1.314-1.505,2.628-2.225,3.948l-.377.686c-1.815,3.299-7.34,13.337-7.393,18.959h0Z"/>
          </g>
        </g>
        <g>
          <path class="cls-9" d="M157.804,139.205c3.268-4.551,4.087-5.208,7.984-9.234,6.734,4.007,13.104,8.627,19.004,13.785-1.863,3.139-1.543,2.221-4.071,4.855-4.39,4.575-9.542,9.159-15.858,9.717-3.86.341-10.794-1.46-12.558-5.481-1.793-4.087,3.232-10.485,5.499-13.642Z"/>
          <path d="M163.865,159.663c-4.426,0-10.876-2.036-12.745-6.296-1.962-4.472,2.462-10.555,5.106-14.189l.526-.726h0c2.899-4.036,3.942-5.106,6.728-7.963l1.377-1.415c.419-.432,1.077-.518,1.591-.213,6.792,4.041,13.249,8.726,19.194,13.922.47.413.579,1.099.26,1.636-1.33,2.24-1.643,2.573-2.631,3.495-.373.35-.865.809-1.617,1.592-4.705,4.902-9.98,9.519-16.678,10.111-.352.032-.724.046-1.112.046ZM158.854,139.959l-.535.739c-2.166,2.977-6.195,8.517-4.83,11.629,1.45,3.302,7.736,5.022,11.261,4.712,5.847-.516,10.684-4.786,15.038-9.324.8-.834,1.322-1.322,1.719-1.693.661-.617.894-.836,1.615-2.002-5.343-4.59-11.093-8.759-17.122-12.412l-.667.686c-2.763,2.834-3.693,3.788-6.479,7.664Z"/>
        </g>
      </g>
      <g>
        <g>
          <g>
            <path class="cls-16" d="M49.639,96.325c-.69,1.969-2.406,3.748-4.189,5.137-1.814,1.413-2.568,1.968-4.268.114-3.292-3.592-7.985-15.684.19-16.573,4.701-.511,5.264,3.271,7.496,6.381,1.221,1.7,1.318,3.38.771,4.942Z"/>
            <path d="M43.084,104.059c-.849,0-1.777-.434-2.856-1.611-2.437-2.657-6.031-10.143-4.212-14.973.571-1.518,1.94-3.403,5.217-3.761,4.427-.463,5.994,2.306,7.374,4.765.404.722.823,1.468,1.313,2.15,1.357,1.889,1.683,4.005.941,6.123-.683,1.95-2.236,3.878-4.615,5.729-1.029.8-2.023,1.577-3.16,1.577ZM42.214,86.248c-.219,0-.453.013-.703.04-1.624.177-2.602.844-3.074,2.099-1.261,3.348,1.374,9.778,3.698,12.313q.913.994,2.519-.261c1.953-1.52,3.254-3.089,3.763-4.542h0c.464-1.322.267-2.552-.6-3.758-.574-.8-1.029-1.611-1.468-2.394-1.287-2.293-2.065-3.497-4.135-3.497Z"/>
          </g>
          <g>
            <path class="cls-16" d="M52.149,96.007c-2.494,2.708-6.34-2.644-6.925-4.706-.76-2.676-1.604-7.323,1.216-9.129,5.071-3.248,10.995,4.607,9.505,9.266-.623,1.949-2.131,3.287-3.796,4.569Z"/>
            <path d="M50.569,98.05c-.273,0-.552-.034-.835-.101-2.754-.657-5.247-4.502-5.756-6.294-1.482-5.228-.874-8.883,1.762-10.572,2.321-1.489,5.058-1.261,7.505.619,2.829,2.175,5.072,6.559,3.93,10.13-.746,2.333-2.527,3.876-4.159,5.138-.692.71-1.538,1.08-2.449,1.08ZM48.969,82.7c-.585,0-1.204.158-1.832.56-2.176,1.396-1.193,5.841-.67,7.687.366,1.291,2.345,4.121,3.867,4.485.291.065.541.042.862-.301.049-.055.104-.105.162-.149,1.715-1.32,2.874-2.438,3.354-3.937.677-2.118-.745-5.525-3.043-7.29-.706-.543-1.652-1.055-2.701-1.055Z"/>
          </g>
          <g>
            <path class="cls-16" d="M63.964,94.883c-1.835,3.192-6.767-1.179-7.793-3.06-1.332-2.442-3.181-6.788-.83-9.172,4.228-4.288,11.741,2.066,11.316,6.939-.178,2.038-1.352,3.677-2.693,5.294Z"/>
            <path d="M62.083,97.311h-.043c-2.832-.032-6.112-3.232-7.004-4.868-2.601-4.771-2.814-8.471-.615-10.701,1.935-1.962,4.653-2.346,7.456-1.051,3.239,1.495,6.396,5.274,6.07,9.01-.213,2.44-1.609,4.34-2.923,5.929-.664,1.084-1.703,1.68-2.941,1.68ZM58.684,82.525c-.817,0-1.666.267-2.421,1.034-1.816,1.84.125,5.959,1.044,7.645.642,1.177,3.196,3.502,4.761,3.518.272-.021.539-.076.775-.484.036-.063.078-.124.125-.181,1.381-1.666,2.265-3.013,2.401-4.58.193-2.215-1.947-5.224-4.578-6.439-.609-.28-1.344-.514-2.108-.514Z"/>
          </g>
          <g>
            <path class="cls-11" d="M88.215,151.953c.031,3.279-1.591,5.334-6.358,4.43-14.166-2.687-20.608-23.459-29.784-32.762-4.373-4.433-7.948-9.731-10.02-15.626-1.28-3.643-2.924-8.318.46-11.229.757-.651,1.682-1.071,2.592-1.482,6.607-2.981,18.787-7.807,23.929.462,2.239,3.601,1.369,8.764,1.595,12.582.518,8.755,5.612,15.937,9.659,23.373,1.566,2.877,7.867,13.877,7.927,20.252Z"/>
            <path d="M83.898,157.886c-.7,0-1.461-.078-2.281-.232-9.875-1.874-15.918-11.574-21.763-20.955-2.911-4.674-5.662-9.088-8.7-12.17-4.735-4.801-8.304-10.37-10.319-16.106-1.358-3.864-3.216-9.151.836-12.64.911-.781,1.97-1.259,2.905-1.68,4.823-2.177,19.498-8.791,25.559.96,1.862,2.99,1.81,6.767,1.762,10.1-.015,1.084-.031,2.129.026,3.087.407,6.887,3.887,12.962,7.252,18.834.763,1.331,1.524,2.659,2.252,3.996l.377.686c2.092,3.803,7.649,13.903,7.707,20.171h0c.02,2.137-.59,3.74-1.81,4.761-.944.79-2.218,1.185-3.802,1.185ZM59.936,92.432c-4.582,0-9.944,2.066-14.299,4.03-.813.366-1.654.745-2.28,1.284-2.513,2.162-1.573,5.578-.083,9.818,1.891,5.378,5.251,10.616,9.721,15.15,3.24,3.285,6.064,7.818,9.054,12.617,5.549,8.909,11.288,18.119,20.049,19.78,1.848.35,3.212.215,3.941-.396.598-.499.895-1.425.882-2.75h0c-.052-5.618-5.572-15.651-7.386-18.948l-.382-.697c-.719-1.32-1.471-2.634-2.225-3.948-3.513-6.134-7.147-12.473-7.591-19.969-.06-1.015-.045-2.125-.029-3.274.043-3.123.088-6.353-1.372-8.698-1.823-2.933-4.711-3.998-8-3.998Z"/>
          </g>
        </g>
        <g>
          <path class="cls-9" d="M88.225,139.205c-3.268-4.551-4.087-5.208-7.984-9.234-6.734,4.007-13.104,8.627-19.004,13.785,1.863,3.139,1.543,2.221,4.071,4.855,4.39,4.575,9.542,9.159,15.858,9.717,3.86.341,10.794-1.46,12.558-5.481,1.793-4.087-3.232-10.485-5.499-13.642Z"/>
          <path d="M82.164,159.663c-.387,0-.759-.015-1.112-.046-6.7-.592-11.975-5.209-16.678-10.111-.752-.783-1.244-1.242-1.617-1.592-.989-.922-1.301-1.255-2.632-3.495-.319-.537-.21-1.225.26-1.636,5.946-5.197,12.404-9.881,19.194-13.922.511-.307,1.17-.219,1.591.211l1.375,1.415c2.788,2.857,3.831,3.927,6.73,7.965h0l.527.726c2.644,3.634,7.067,9.717,5.106,14.189-1.869,4.26-8.318,6.296-12.745,6.296ZM62.906,144.023c.721,1.166.954,1.383,1.616,2,.396.371.919.859,1.719,1.693,4.353,4.538,9.189,8.808,15.038,9.324,3.519.305,9.811-1.407,11.261-4.712,1.364-3.11-2.665-8.65-4.829-11.627l-.537-.741c-2.786-3.878-3.717-4.832-6.481-7.666l-.665-.684c-6.027,3.653-11.778,7.822-17.122,12.414Z"/>
        </g>
      </g>
      <g>
        <path class="cls-11" d="M122.441,240.197s32.297,39.064,68.237,40.215,39.394-11.423,31.334-14.922c-8.06-3.5-50.243-12.676-56.496-51.264-6.253-38.588-60.899-7.336-43.075,25.971Z"/>
        <path d="M195.156,281.778c-1.45,0-2.954-.023-4.52-.074-18.918-.604-36.738-11.654-48.356-20.816-12.53-9.881-20.756-19.769-20.837-19.868-.055-.065-.103-.137-.143-.213-5.885-10.997-4.761-23.031,3.087-33.015,7.467-9.502,19.124-14.467,28.354-12.092,7.459,1.927,12.449,8.431,14.052,18.319,5.345,32.986,37.434,43.939,51.136,48.616,1.978.676,3.541,1.209,4.598,1.668,3.212,1.396,4.88,4.116,4.247,6.936-1.174,5.226-10.157,10.541-31.617,10.541ZM123.519,239.469c1.82,2.154,33.129,38.559,67.2,39.65,24.783.779,32.742-4.938,33.53-8.45.359-1.596-.671-3.089-2.752-3.992-.962-.419-2.481-.937-4.404-1.594-14.142-4.826-47.261-16.133-52.854-50.652-1.449-8.938-5.648-14.55-12.144-16.226-8.124-2.108-18.929,2.605-25.673,11.185-7.155,9.105-8.21,20.062-2.903,30.078Z"/>
      </g>
      <g>
        <g>
          <path class="cls-11" d="M145.569,248.962c.423.75.447,1.663.034,2.418-1.205,2.201-2.021,5.031-3.275,7.036-1.595,2.552-3.326,5.056-4.51,7.836-1.27,2.982-1.242,5.819-1.538,8.97-.424,4.515.082,8.177,5.541,8.177,8.564,0,25.448,0,25.448,0,0,0,8.84-.629,7.447-7.964-2.453-12.921-7.572-12.941-16.407-12.941l5.32-17.39c.408-.902.558-1.886.431-2.868"/>
          <path d="M141.822,284.692c-2.367,0-4.156-.646-5.32-1.924-1.781-1.956-1.762-4.973-1.509-7.666.055-.59.099-1.166.142-1.735.195-2.575.379-5.007,1.493-7.622,1.004-2.356,2.376-4.51,3.703-6.593l.9-1.421c.626-1.002,1.146-2.259,1.697-3.59.471-1.141.958-2.318,1.539-3.382.195-.354.185-.787-.025-1.16-.352-.621-.132-1.411.491-1.762.62-.352,1.41-.133,1.762.491.654,1.158.67,2.531.041,3.676-.513.937-.972,2.049-1.417,3.125-.566,1.371-1.153,2.79-1.894,3.975l-.912,1.44c-1.271,1.994-2.585,4.055-3.504,6.216-.948,2.221-1.109,4.346-1.295,6.803-.044.583-.089,1.177-.146,1.779-.188,2.007-.262,4.466.847,5.685.661.726,1.775,1.08,3.406,1.08h25.447c-.046-.002,3.75-.316,5.466-2.556.78-1.017,1.013-2.285.711-3.874-2.257-11.89-6.294-11.89-15.136-11.89-.411,0-.796-.194-1.04-.524-.244-.328-.317-.754-.197-1.148l5.32-17.39c.367-.836.48-1.586.384-2.322-.092-.71.408-1.358,1.117-1.449.71-.107,1.357.406,1.45,1.116.157,1.215-.028,2.449-.536,3.569l-4.751,15.567c7.814.059,13.455.948,15.931,13.987.442,2.329.036,4.329-1.208,5.944-2.435,3.165-7.217,3.539-7.419,3.554l-25.539.002Z"/>
        </g>
        <g>
          <path class="cls-16" d="M168.333,281.228c-1.397-2.094-.487-5.423,1.361-6.998,1.632-1.392,4.852-1.852,6.668-.587,2.255,1.571,6.095,5.669,5.684,8.358-2.862,1.482-10.261,2.185-12.944.06-.309-.245-.564-.526-.769-.833Z"/>
          <path d="M174.686,284.688c-2.493,0-4.914-.446-6.387-1.615-.405-.32-.756-.699-1.041-1.126h0c-1.839-2.758-.634-6.799,1.598-8.702,1.955-1.666,5.82-2.348,8.245-.663,2.178,1.518,6.768,6.049,6.224,9.616-.063.408-.317.762-.684.954-1.636.846-4.851,1.537-7.955,1.537ZM169.409,280.511c.135.202.301.381.496.535,2.011,1.596,7.912,1.215,10.841.116-.359-1.956-3.097-5.045-5.124-6.458-1.334-.931-3.911-.497-5.088.51-1.344,1.148-2.146,3.765-1.124,5.298Z"/>
        </g>
        <g>
          <path class="cls-16" d="M162.684,282.31c-1.397-2.094-.487-5.423,1.361-6.998,1.632-1.392,4.852-1.852,6.668-.587,2.255,1.571,6.095,5.669,5.684,8.358-2.862,1.482-10.261,2.185-12.944.06-.309-.245-.564-.526-.769-.833Z"/>
          <path d="M169.038,285.77c-2.493,0-4.914-.446-6.388-1.613-.411-.326-.761-.707-1.043-1.135-1.837-2.756-.632-6.793,1.599-8.696,1.957-1.666,5.824-2.348,8.248-.663,2.177,1.516,6.768,6.045,6.223,9.616-.063.408-.317.762-.684.954-1.635.846-4.85,1.537-7.954,1.537ZM168.041,275.274c-1.171,0-2.43.402-3.157,1.023-1.344,1.145-2.146,3.763-1.123,5.293.001.002.002.004.004.006.131.198.296.377.492.531,2.013,1.594,7.911,1.211,10.841.116-.358-1.958-3.096-5.045-5.123-6.458-.511-.356-1.204-.512-1.933-.512Z"/>
        </g>
        <g>
          <path class="cls-16" d="M155.473,282.31c-1.397-2.094-.487-5.423,1.361-6.998,1.632-1.392,4.852-1.852,6.668-.587,2.255,1.571,6.095,5.669,5.684,8.358-2.862,1.482-10.261,2.185-12.944.06-.309-.245-.564-.526-.769-.833Z"/>
          <path d="M161.827,285.77c-2.493,0-4.914-.446-6.388-1.613-.406-.322-.758-.703-1.042-1.131h0c-1.839-2.756-.634-6.797,1.598-8.7,1.955-1.666,5.824-2.354,8.248-.663,2.177,1.516,6.768,6.045,6.223,9.616-.063.408-.317.762-.684.954-1.635.846-4.85,1.537-7.954,1.537ZM160.829,275.274c-1.171,0-2.43.402-3.156,1.021-1.344,1.148-2.146,3.765-1.124,5.296t.002.002c.135.204.297.379.493.535,2.015,1.594,7.913,1.211,10.843.116-.358-1.958-3.096-5.045-5.123-6.458-.511-.356-1.205-.512-1.934-.512Z"/>
        </g>
        <g>
          <path class="cls-2" d="M162.36,218.033c.32.659.979,5.807,1.169,6.698.654,3.06.303,6.204.887,9.307.77,4.086,1.669,8.064.853,12.218-.789,4.019-3.396,9.142-5.116,12.757-1.247,2.621-1.052,3.085-3.487,3.975-4.49,1.641-9.329.123-13.856,1.797-2.055.759-4.247,1.978-6.329,2.404-.002-4.379,1.842-9.077,3.445-13.1,2.93-7.351-1.001-13.432-2.905-20.521"/>
          <path d="M136.482,268.482c-.296,0-.585-.101-.818-.291-.301-.246-.476-.613-.476-1.002-.002-4.702,1.96-9.622,3.537-13.579,2.03-5.093.494-9.469-1.284-14.533-.584-1.663-1.188-3.384-1.669-5.173-.185-.689.224-1.398.914-1.583.685-.194,1.399.221,1.586.914.455,1.695,1.042,3.369,1.611,4.986,1.787,5.089,3.635,10.353,1.247,16.348-1.29,3.234-2.851,7.151-3.254,10.865.734-.27,1.485-.6,2.223-.922.764-.333,1.523-.665,2.265-.937,2.481-.918,4.985-.956,7.405-.992,2.276-.034,4.426-.067,6.455-.809,1.519-.554,1.547-.615,2.232-2.154.149-.335.32-.718.531-1.16l.613-1.278c1.663-3.462,3.734-7.77,4.402-11.172.703-3.579.037-7.066-.67-10.757l-.185-.973c-.298-1.588-.365-3.16-.431-4.683-.069-1.602-.134-3.114-.451-4.594-.066-.312-.19-1.124-.335-2.093-.204-1.358-.583-3.887-.754-4.356-.312-.642-.034-1.392.61-1.706.643-.31,1.428-.021,1.738.623.254.522.474,1.777.964,5.055.135.895.245,1.649.307,1.935.361,1.693.434,3.386.504,5.024.064,1.497.125,2.912.39,4.314l.183.966c.721,3.771,1.467,7.671.667,11.741-.732,3.729-2.881,8.203-4.609,11.798l-.607,1.268c-.201.421-.362.785-.504,1.101-.861,1.933-1.282,2.647-3.708,3.531-2.439.893-4.912.929-7.304.964-2.304.036-4.48.067-6.547.832-.696.257-1.407.569-2.125.882-1.429.625-2.906,1.272-4.393,1.575-.086.017-.173.025-.259.025Z"/>
        </g>
      </g>
      <g>
        <g>
          <path class="cls-11" d="M101.337,248.962c-.423.75-.447,1.663-.034,2.418,1.205,2.201,2.021,5.031,3.275,7.036,1.595,2.552,3.326,5.056,4.51,7.836,1.27,2.982,1.242,5.819,1.538,8.97.424,4.515-.082,8.177-5.541,8.177h-25.448s-8.84-.629-7.447-7.964c2.453-12.921,7.572-12.941,16.407-12.941l-5.32-17.39c-.408-.902-.558-1.886-.431-2.868"/>
          <path d="M105.085,284.692h-25.448c-.294-.017-5.075-.392-7.511-3.556-1.243-1.615-1.65-3.615-1.208-5.944,2.475-13.04,8.117-13.928,15.931-13.987l-4.81-15.722c-.448-.966-.634-2.2-.477-3.413.093-.71.743-1.223,1.45-1.116.709.091,1.209.739,1.117,1.449-.096.735.017,1.484.326,2.169l5.379,17.544c.12.394.047.819-.197,1.148-.244.331-.63.524-1.04.524-8.843,0-12.88,0-15.137,11.89-.302,1.594-.068,2.864.716,3.883,1.708,2.217,5.515,2.548,5.552,2.55l25.356-.002c1.631,0,2.745-.354,3.406-1.08,1.11-1.219,1.036-3.678.847-5.685-.058-.604-.103-1.2-.147-1.788-.186-2.455-.347-4.575-1.294-6.795-.92-2.16-2.233-4.222-3.504-6.214l-.913-1.442c-.741-1.185-1.328-2.605-1.894-3.975-.445-1.076-.904-2.188-1.418-3.127-.626-1.141-.611-2.514.041-3.674.351-.621,1.137-.846,1.762-.491.622.35.843,1.139.493,1.76-.211.375-.221.809-.027,1.16.582,1.065,1.07,2.242,1.54,3.384.551,1.331,1.071,2.588,1.697,3.59l.901,1.423c1.327,2.082,2.698,4.234,3.702,6.59,1.113,2.613,1.298,5.043,1.493,7.614.044.571.087,1.152.143,1.741.254,2.695.273,5.712-1.51,7.669-1.162,1.278-2.952,1.924-5.319,1.924Z"/>
        </g>
        <g>
          <path class="cls-16" d="M78.573,281.228c1.397-2.094.487-5.423-1.361-6.998-1.632-1.392-4.852-1.852-6.668-.587-2.255,1.571-6.095,5.669-5.684,8.358,2.862,1.482,10.261,2.185,12.944.06.309-.245.564-.526.769-.833Z"/>
          <path d="M72.221,284.688c-3.104,0-6.32-.691-7.956-1.537-.367-.192-.621-.545-.684-.954-.544-3.567,4.046-8.098,6.223-9.616,2.424-1.684,6.291-1.004,8.248.665,2.231,1.901,3.436,5.942,1.599,8.7h-.001c-.285.427-.637.809-1.044,1.129-1.472,1.166-3.892,1.613-6.384,1.613ZM66.16,281.161c2.931,1.101,8.829,1.48,10.841-.114.196-.156.362-.335.497-.537,1.02-1.533.22-4.15-1.124-5.296-1.178-1.006-3.761-1.434-5.09-.512-2.026,1.413-4.764,4.502-5.123,6.458ZM78.574,281.229h.021-.021Z"/>
        </g>
        <g>
          <path class="cls-16" d="M84.223,282.31c1.397-2.094.487-5.423-1.361-6.998-1.632-1.392-4.852-1.852-6.668-.587-2.255,1.571-6.095,5.669-5.684,8.358,2.862,1.482,10.261,2.185,12.944.06.309-.245.564-.526.769-.833Z"/>
          <path d="M77.869,285.77c-3.104,0-6.319-.691-7.955-1.537-.367-.192-.621-.545-.684-.954-.545-3.571,4.046-8.1,6.224-9.616,2.42-1.691,6.293-1.004,8.247.665,2.232,1.901,3.437,5.942,1.598,8.698-.284.427-.636.809-1.044,1.131-1.473,1.166-3.893,1.613-6.385,1.613ZM71.809,282.244c2.928,1.095,8.83,1.478,10.841-.116.198-.156.36-.331.495-.535t.002-.002c1.021-1.531.22-4.148-1.124-5.293-1.179-1.006-3.762-1.44-5.089-.512-2.028,1.413-4.766,4.5-5.124,6.458Z"/>
        </g>
        <g>
          <path class="cls-16" d="M91.434,282.31c1.397-2.094.487-5.423-1.361-6.998-1.632-1.392-4.852-1.852-6.668-.587-2.255,1.571-6.095,5.669-5.684,8.358,2.862,1.482,10.261,2.185,12.944.06.309-.245.564-.526.769-.833Z"/>
          <path d="M85.08,285.77c-3.104,0-6.319-.691-7.954-1.537-.367-.192-.621-.545-.684-.954-.545-3.571,4.046-8.1,6.224-9.616,2.418-1.684,6.288-1.002,8.247.663,2.231,1.903,3.436,5.94,1.599,8.696-.282.427-.633.809-1.043,1.135-1.474,1.166-3.895,1.613-6.388,1.613ZM79.021,282.244c2.929,1.095,8.829,1.478,10.841-.116.196-.154.361-.333.492-.531.002-.002.003-.004.004-.006,1.022-1.531.221-4.148-1.123-5.293-1.178-1.006-3.761-1.44-5.089-.512-2.028,1.413-4.766,4.5-5.124,6.458Z"/>
        </g>
        <g>
          <path class="cls-2" d="M84.546,218.033c-.32.659-.979,5.807-1.169,6.698-.654,3.06-.303,6.204-.887,9.307-.77,4.086-1.669,8.064-.853,12.218.789,4.019,3.396,9.142,5.116,12.757,1.247,2.621,1.052,3.085,3.487,3.975,4.49,1.641,9.329.123,13.856,1.797,2.055.759,4.247,1.978,6.329,2.404.002-4.379-1.842-9.077-3.445-13.1-2.93-7.351,1.001-13.432,2.905-20.521"/>
          <path d="M110.424,268.482c-.086,0-.173-.008-.259-.025-1.487-.303-2.963-.95-4.39-1.573-.719-.314-1.431-.627-2.127-.884-2.068-.764-4.244-.796-6.547-.832-2.392-.036-4.865-.072-7.305-.964-2.426-.884-2.847-1.598-3.708-3.533-.142-.316-.303-.68-.503-1.099l-.6-1.253c-1.73-3.598-3.884-8.079-4.618-11.812-.799-4.068-.054-7.965.667-11.734l.184-.973c.265-1.404.325-2.819.39-4.316.071-1.636.143-3.329.503-5.02.062-.288.173-1.042.307-1.937.491-3.278.711-4.533.964-5.055.312-.642,1.085-.912,1.729-.6.631.307.901,1.059.615,1.695-.173.497-.547,2.996-.75,4.344-.145.969-.268,1.781-.335,2.095-.316,1.478-.38,2.99-.45,4.59-.065,1.522-.133,3.097-.431,4.685l-.186.977c-.706,3.691-1.373,7.176-.67,10.753.67,3.407,2.744,7.721,4.41,11.187l.605,1.263c.21.442.38.825.53,1.158.685,1.541.713,1.6,2.232,2.156,2.03.741,4.18.775,6.456.809,2.42.036,4.923.074,7.405.992.741.274,1.501.604,2.267.939.737.322,1.488.651,2.221.92-.403-3.712-1.966-7.629-3.254-10.863-2.39-5.997-.541-11.261,1.245-16.35.569-1.617,1.156-3.291,1.611-4.986.185-.693.898-1.105,1.586-.914.69.185,1.099.895.914,1.583-.481,1.79-1.084,3.51-1.669,5.173-1.778,5.064-3.314,9.439-1.283,14.535,1.577,3.954,3.539,8.879,3.536,13.577,0,.39-.175.758-.476,1.002-.234.19-.522.291-.818.291Z"/>
        </g>
      </g>
      <g>
        <rect class="cls-3" x="124.585" y="203.74" width="8.724" height="2.814" rx="1.407" ry="1.407"/>
        <path d="M131.903,207.847h-5.91c-1.49,0-2.701-1.211-2.701-2.701s1.212-2.699,2.701-2.699h5.91c1.489,0,2.7,1.211,2.7,2.699s-1.212,2.701-2.7,2.701ZM125.992,205.032v.23h5.91c.063,0,.113-.051.113-.116l-6.023-.114Z"/>
      </g>
      <g>
        <g>
          <path class="cls-6" d="M357.809,167.464c.739.082,1.53.089,2.297-.032-1.999,6.709-5.157,13.085-9.36,18.669-10.265,13.684-29.732,25.525-47.474,23.514-18.502-2.089-11.825-24.338-5.105-35.148,4.999-8.034,12.46-14.618,21.341-18.044,6.237-2.431,12.877-3.401,19.422-4.881-.058.515-.052,1.018.149,1.508.687,1.693,2.997,1.965,4.822,1.758.386-.05.796-.082,1.132.075.823.417.685,1.561.723,2.475.046,1.548.961,3.045,2.325,3.779s3.129.669,4.447-.146c-.21,1.114-.433,2.273-.058,3.344.691,2.065,3.17,2.898,5.341,3.131Z"/>
          <path class="cls-9" d="M345.032,154.882c-.336-.157-.747-.124-1.132-.075-1.825.208-4.135-.065-4.822-1.758-.201-.489-.206-.992-.149-1.508,1.052-.239,2.125-.483,3.169-.764,7.508-1.965,15.116-5.396,19.492-11.824,1.838,9.417,1.258,19.284-1.485,28.478-.767.121-1.558.114-2.297.032-2.17-.233-4.65-1.066-5.341-3.131-.374-1.071-.151-2.231.058-3.344-1.318.815-3.082.88-4.447.146s-2.278-2.23-2.325-3.779c-.038-.914.1-2.058-.723-2.475Z"/>
        </g>
        <path d="M307.262,211.132c-1.383,0-2.764-.076-4.135-.232-5.664-.638-9.57-3.099-11.611-7.313-4.494-9.277,1.667-23.551,5.552-29.802,5.328-8.563,13.131-15.158,21.974-18.569,4.741-1.849,9.751-2.878,14.597-3.874,1.67-.341,3.341-.684,5.006-1.061,1.159-.265,2.151-.491,3.116-.752,8.937-2.339,15.245-6.14,18.761-11.303.296-.43.822-.634,1.33-.539.512.105.91.507,1.01,1.019,1.854,9.5,1.33,19.561-1.515,29.097-2.083,6.993-5.302,13.413-9.566,19.077-9.397,12.524-27.217,24.252-44.518,24.252ZM360.8,142.05c-4.039,4.491-10.203,7.841-18.374,9.978-.989.267-2.014.503-3.023.733-1.871.423-3.558.771-5.245,1.116-4.74.975-9.641,1.981-14.182,3.75-8.325,3.213-15.679,9.435-20.712,17.525-4.213,6.778-9.134,19.643-5.422,27.307,1.63,3.363,4.85,5.338,9.574,5.87,17.568,2.007,36.587-10.065,46.294-23.006,4.08-5.418,7.159-11.562,9.154-18.26v-.002c2.444-8.186,3.102-16.773,1.935-25.012Z"/>
      </g>
      <g>
        <g>
          <g>
            <path class="cls-9" d="M170.132,185.901c1.065,4.569,1.316,11.17-.155,18.139h-.019c-55.036,16.552-93.018,0-93.018,0-1.471-6.969-1.22-13.57-.155-18.139,3.465-14.867,6.563-19.843,9.118-37.904,2.555-17.926,20.288-23.482,20.288-23.482,0,0,21.12-3.059,34.516,0,0,0,17.229,5.633,20.288,23.482,3.62,21.178,5.672,23.037,9.137,37.904Z"/>
            <path class="cls-2" d="M169.958,204.04c-3.291,15.642-15.313,33.084-46.499,33.084s-43.228-17.423-46.519-33.084c0,0,37.981,16.552,93.018,0Z"/>
          </g>
          <g>
            <path d="M123.458,238.416c-12.212,0-41.315-3.323-47.785-34.11-1.36-6.447-1.414-13.263-.148-18.698,1.281-5.496,2.499-9.608,3.678-13.583,1.962-6.62,3.815-12.871,5.419-24.21,2.64-18.521,20.997-24.477,21.182-24.534,1.074-.173,21.715-3.106,35.191-.027.849.272,18.121,6.121,21.275,24.524,2.271,13.284,3.933,18.965,5.692,24.981,1.054,3.601,2.142,7.323,3.431,12.85,1.267,5.434,1.212,12.252-.151,18.7l-2.531-.535c1.268-6.001,1.328-12.572.161-17.579-1.272-5.456-2.351-9.142-3.393-12.709-1.781-6.089-3.465-11.84-5.76-25.269-2.893-16.883-19.249-22.416-19.414-22.471-12.888-2.939-33.721.017-33.929.051.034.008-16.786,5.506-19.191,22.384-1.631,11.526-3.511,17.866-5.501,24.581-1.168,3.94-2.375,8.016-3.638,13.434-1.166,5.007-1.106,11.579.16,17.579,2.516,11.972,11.741,32.057,45.253,32.057s42.715-20.085,45.234-32.055l2.531.531c-6.477,30.788-35.561,34.11-47.765,34.11Z"/>
            <path d="M121.241,212.671c-7.143,0-13.397-.484-18.593-1.141-16.371-2.068-25.83-6.131-26.225-6.304-.655-.284-.954-1.046-.669-1.701.284-.655,1.05-.958,1.701-.67.377.16,38.237,16.15,92.13-.053.804-.251,1.676.398,1.676,1.238,0,.627-.439,1.15-1.03,1.268-18.724,5.62-35.452,7.363-48.991,7.363Z"/>
          </g>
        </g>
        <g>
          <path class="cls-2" d="M120.685,167.083c.226.215.467.44.557.739.096.319.001.661-.094.98-1.534,5.145-3.252,10.235-5.148,15.258-.145.385-.294.783-.271,1.194.024.438.24.839.455,1.221,1.742,3.105,3.716,6.079,5.902,8.89.232.298.477.604.814.775,2.633,1.339,5.58-4.877,6.545-6.488,1.207-2.015,2.103-3.751,1.586-6.167-.487-2.274-1.798-4.293-2.606-6.454-.974-2.606-2.304-5.775-2.393-8.563-.014-.456.286-.856.576-1.208.986-1.195,2.045-2.353,2.765-3.724.721-1.371,1.074-3.023.551-4.481-1.3-3.628-6.363-3.611-8.807-1.246-1.011.978-1.952,2.419-2.76,3.56-1.538,2.172.647,4.109,2.328,5.713Z"/>
          <path d="M123.698,197.641c-.45,0-.913-.107-1.385-.347-.61-.31-.995-.806-1.25-1.137-2.221-2.857-4.244-5.902-6.008-9.05-.228-.404-.576-1.021-.618-1.781-.037-.689.188-1.287.353-1.722,1.876-4.969,3.598-10.073,5.118-15.173.019-.061.061-.2.076-.28-.025.011-.113-.055-.177-.118,0,0-.014-.013-.014-.015l-.191-.181c-1.656-1.573-4.427-4.209-2.3-7.214l.397-.566c.741-1.065,1.582-2.27,2.519-3.177,1.7-1.647,4.44-2.377,6.816-1.828,1.991.463,3.45,1.731,4.109,3.569.595,1.661.374,3.622-.625,5.519-.664,1.265-1.557,2.329-2.42,3.356l-.492.59c-.212.257-.273.364-.287.408.078,2.19,1.085,4.839,1.974,7.176l.344.91c.292.779.653,1.539,1.013,2.301.645,1.362,1.312,2.771,1.647,4.333.612,2.857-.426,4.908-1.741,7.104-.117.196-.265.463-.44.779-1.321,2.386-3.624,6.544-6.416,6.544ZM121.592,166.159c.279.267.701.67.889,1.289.213.71.02,1.345-.094,1.727-1.536,5.154-3.278,10.317-5.176,15.343-.088.234-.198.524-.191.667.008.156.185.47.291.655,1.702,3.038,3.652,5.974,5.796,8.732.094.12.285.368.377.415.436.225,1.598-.139,4.367-5.142.192-.347.355-.64.484-.857,1.135-1.895,1.848-3.283,1.43-5.23-.272-1.27-.845-2.485-1.454-3.771-.392-.827-.781-1.655-1.098-2.501l-.339-.895c-.961-2.527-2.05-5.39-2.135-8.081-.032-.977.578-1.716.872-2.07l.504-.606c.812-.966,1.577-1.878,2.114-2.897.646-1.23.821-2.485.478-3.443-.451-1.257-1.477-1.739-2.259-1.92-1.532-.36-3.351.124-4.43,1.169-.758.731-1.521,1.828-2.195,2.794l-.408.583c-.718,1.013-.006,1.965,1.971,3.845l.194.185-.893.935.906-.924Z"/>
        </g>
        <g>
          <path class="cls-9" d="M102.197,148.464c-.065,6.161,5.314,12.587,10.229,15.56,2.003,1.212,2.372,1.482,4.389.528,2.528-1.196,5.008-3.757,6.892-5.55,2.049,1.636,4.013,5.895,6.616,6.64,3.415.978,8.503-4.779,10.476-7.026,2.889-3.29,4.882-7.419,3.394-11.819-3.043-8.996-13.119-12.516-21.87-12.106-6.234.292-14.44,2.885-18.257,8.144-1.286,1.773-1.847,3.688-1.868,5.629Z"/>
          <path d="M131.144,167.047c-.4,0-.793-.053-1.178-.162-2.011-.577-3.487-2.514-4.913-4.388-.467-.613-.919-1.206-1.352-1.697-1.797,1.731-4.003,3.817-6.333,4.921-2.475,1.177-3.344.783-5.484-.514-5.572-3.371-11.049-10.157-10.981-16.756.024-2.333.736-4.479,2.115-6.376,4.036-5.563,12.573-8.365,19.244-8.677,9.203-.411,19.92,3.415,23.155,12.983,1.428,4.22.166,8.744-3.648,13.086-3.163,3.607-7.134,7.58-10.626,7.58ZM123.707,157.709c.285,0,.571.093.807.282.915.731,1.732,1.802,2.596,2.939,1.116,1.465,2.381,3.127,3.568,3.466,1.21.354,3.781-.52,9.147-6.635,3.215-3.659,4.272-7.21,3.142-10.551-2.804-8.292-12.378-11.625-20.583-11.227-5.857.272-13.758,2.771-17.272,7.612-1.057,1.455-1.602,3.097-1.62,4.881h0c-.058,5.571,4.905,11.598,9.605,14.44q1.821,1.105,3.165.467c2.03-.962,4.14-2.994,5.835-4.628l.72-.691c.248-.238.57-.356.892-.356ZM102.197,148.464h.021-.021Z"/>
        </g>
        <path d="M150.849,180.738c-.316,0-.64-.023-.972-.069-9.142-1.284-8.361-14.95-8.323-15.531.043-.667.587-1.19,1.255-1.209l13.524-.371c.683.006,1.248.48,1.321,1.15.12,1.078,1.061,10.637-2.873,14.463-1.064,1.034-2.41,1.567-3.932,1.567ZM144.115,166.481c.029,3.019.639,10.856,6.122,11.627,1.142.147,2.017-.091,2.738-.792,2.247-2.181,2.394-7.984,2.206-11.139l-11.066.303Z"/>
      </g>
      <path d="M123.433,226.05c-.258,0-.517-.076-.74-.232l-4.549-3.171c-.346-.242-.554-.638-.554-1.061v-9.096c0-.714.579-1.293,1.294-1.293s1.294.579,1.294,1.293v8.42l3.175,2.213,2.497-2.133v-9.7c0-.714.579-1.293,1.294-1.293s1.294.579,1.294,1.293v10.296c0,.379-.166.737-.454.983l-3.711,3.171c-.241.206-.54.31-.84.31Z"/>
      <g>
        <g>
          <path class="cls-9" d="M302.759,198.398c-1.431-5.962-2.419-12.136-5.267-17.565-2.848-5.43-8.082-10.114-14.211-10.267-2.557-.064-6.859,1.218-9.424,1.071-2.565.148-6.868-1.135-9.424-1.071-6.129.154-11.364,4.838-14.211,10.267-2.848,5.43-3.836,11.604-5.267,17.565-1.37,5.703-3.176,15.231-5.4,20.661-1.133,3.859,70.497,4.621,68.603-.003-2.223-5.427-4.029-14.955-5.399-20.658Z"/>
          <path d="M274.586,223.54c-16.169,0-32.541-.962-35.437-2.878-1.098-.726-.917-1.689-.835-1.967,1.697-4.163,3.155-10.707,4.327-15.967.377-1.691.729-3.27,1.056-4.632.277-1.156.538-2.318.798-3.481,1.086-4.847,2.209-9.86,4.582-14.383,2.717-5.182,8.171-10.781,15.324-10.96,1.358-.042,3.008.248,4.758.55,1.691.291,3.442.583,4.623.522,1.338.074,3.084-.232,4.772-.522,1.752-.301,3.425-.594,4.76-.55,7.154.179,12.607,5.778,15.324,10.96,2.371,4.521,3.493,9.528,4.579,14.373.262,1.166.523,2.333.801,3.491h0c.327,1.362.679,2.941,1.056,4.632,1.172,5.26,2.63,11.802,4.282,15.836.242.59.207,1.461-.614,2.135-2.309,1.895-18.132,2.84-34.156,2.84ZM241.062,218.762c6.897,2.872,59.575,3.022,65.656.168-1.632-4.247-3.033-10.536-4.17-15.638-.373-1.676-.722-3.243-1.046-4.594-.281-1.169-.545-2.348-.81-3.529-1.049-4.679-2.133-9.517-4.345-13.737-2.376-4.529-7.065-9.422-13.099-9.574-1.115-.011-2.706.248-4.256.514-1.833.316-3.72.651-5.21.554-1.318.099-3.226-.238-5.061-.554-1.549-.265-3.128-.516-4.254-.514-6.034.152-10.723,5.045-13.099,9.574-2.214,4.222-3.298,9.065-4.348,13.747-.263,1.177-.526,2.352-.806,3.518-.324,1.352-.674,2.918-1.046,4.592-1.122,5.034-2.501,11.225-4.105,15.472Z"/>
        </g>
        <g>
          <path class="cls-2" d="M271.846,190.502c.184.176.381.359.455.603.078.26,0,.539-.077.8-1.253,4.201-2.655,8.357-4.203,12.458-.119.314-.24.639-.221.975.02.357.196.685.371.997,1.422,2.535,3.034,4.964,4.819,7.258.189.244.389.493.665.633,2.15,1.093,4.556-3.982,5.344-5.297.985-1.645,1.717-3.063,1.295-5.035-.398-1.856-1.468-3.505-2.128-5.27-.795-2.127-1.881-4.715-1.954-6.992-.012-.372.233-.699.471-.986.805-.976,1.669-1.921,2.258-3.041s.877-2.468.45-3.659c-1.061-2.962-5.196-2.948-7.191-1.017-.825.799-1.594,1.975-2.253,2.907-1.256,1.774.528,3.355,1.901,4.664Z"/>
          <path d="M274.315,215.695c-.402,0-.819-.097-1.248-.314-.546-.282-.88-.71-1.1-.994-1.818-2.339-3.475-4.834-4.925-7.418-.198-.354-.497-.889-.535-1.56-.033-.611.161-1.126.303-1.503,1.531-4.053,2.935-8.216,4.173-12.37.005-.017.012-.034.017-.053-.011-.011-.022-.021-.033-.032l.061-.065c.002-.011.005-.023.007-.036l-.083.088.083-.088c.001-.011.003-.019.004-.029,0,0,.002.006.005.019l.8-.838-1.045.79c-1.41-1.339-3.767-3.579-1.911-6.201l.323-.461c.612-.878,1.305-1.872,2.086-2.628,1.445-1.4,3.764-2.03,5.786-1.554,1.707.398,2.957,1.484,3.523,3.064.508,1.419.323,3.087-.522,4.698-.556,1.059-1.296,1.937-2.011,2.788l-.396.474c-.109.135-.177.227-.196.27.079,1.655.894,3.798,1.613,5.691l.281.741c.236.63.527,1.242.819,1.857.532,1.126,1.083,2.289,1.362,3.596.519,2.415-.351,4.133-1.451,5.969-.096.158-.216.377-.357.632-1.106,1.998-3.029,5.468-5.436,5.468ZM272.759,189.583c.243.234.611.587.78,1.15.194.642.019,1.228-.075,1.543-1.257,4.211-2.68,8.433-4.232,12.543-.053.139-.141.373-.141.451.011.08.149.326.208.432,1.387,2.472,2.971,4.86,4.711,7.098.058.074.19.244.246.284.069.038.816.251,3.23-4.11.159-.286.294-.531.401-.71.898-1.499,1.462-2.594,1.14-4.097-.217-1.013-.681-1.992-1.172-3.03-.322-.68-.642-1.362-.903-2.059l-.276-.729c-.791-2.08-1.688-4.439-1.759-6.675-.027-.884.506-1.535.763-1.849l.413-.493c.655-.781,1.274-1.516,1.7-2.329.498-.945.635-1.901.377-2.621-.332-.924-1.093-1.28-1.674-1.417-1.171-.265-2.573.095-3.398.893-.601.583-1.218,1.468-1.763,2.249l-.334.478c-.441.623-.101,1.232,1.581,2.832.002.002.158.149.159.152l-.896.933.913-.918ZM271.046,191.339c.002.006.004.013.006.021l.794-.859-.8.838Z"/>
        </g>
        <g>
          <path class="cls-9" d="M256.751,175.299c-.053,5.03,4.339,10.277,8.351,12.704,1.635.989,1.937,1.21,3.583.431,2.064-.977,4.089-3.067,5.627-4.531,1.673,1.336,3.276,4.813,5.402,5.422,2.788.798,6.942-3.902,8.553-5.737,2.359-2.686,3.986-6.057,2.771-9.65-2.485-7.345-10.711-10.219-17.857-9.885-5.09.238-11.79,2.356-14.906,6.649-1.05,1.447-1.508,3.011-1.525,4.596Z"/>
          <path d="M280.379,190.708c-.345.002-.685-.044-1.02-.139-1.719-.493-3.003-2.179-4.135-3.668-.321-.421-.633-.83-.932-1.183-1.447,1.388-3.194,3.007-5.052,3.885-2.155,1.019-2.95.632-4.704-.43-4.606-2.788-9.135-8.412-9.078-13.886v-.002c.021-1.954.617-3.752,1.773-5.342,3.342-4.605,10.39-6.925,15.893-7.182,7.59-.337,16.459,2.836,19.142,10.764,1.194,3.531.148,7.304-3.025,10.915-2.617,2.984-5.909,6.268-8.861,6.268ZM274.312,182.61c.285,0,.571.093.807.282.771.615,1.447,1.503,2.161,2.442.889,1.166,1.896,2.491,2.789,2.746.762.217,2.703-.192,7.225-5.346,2.565-2.92,3.412-5.74,2.518-8.38-2.25-6.654-9.964-9.328-16.57-9.008-4.727.221-11.099,2.23-13.921,6.117-.833,1.148-1.263,2.442-1.278,3.851-.047,4.458,3.947,9.296,7.727,11.583,1.381.838,1.383.832,2.359.368,1.623-.769,3.332-2.415,4.704-3.737l.585-.562c.248-.236.57-.356.892-.356Z"/>
        </g>
        <g>
          <path class="cls-13" d="M290.463,206.046c8.084-.261,9.127-13.56,9.127-13.56l-9.127-5.227-9.127,5.227s1.043,13.299,9.127,13.56Z"/>
          <path class="cls-4" d="M290.463,203.165c5.604-.181,6.327-9.401,6.327-9.401l-6.327-3.624-6.327,3.624s.723,9.22,6.327,9.401Z"/>
          <path class="cls-9" d="M293.652,199.632c-.154.154-.307.247-.444.265-.145.034-.316.042-.522.025-.221-.017-.358-.094-.427-.214-.076-.112-.112-.265-.112-.471v-3.233c-.084.247-.179.504-.282.761-.101.265-.204.531-.307.786-.112.274-.215.539-.316.796-.103.265-.198.514-.282.753-.036.068-.061.137-.078.205-.034.068-.067.137-.103.188-.051.052-.101.094-.162.128-.067.034-.145.051-.24.051-.118,0-.204-.017-.238-.06-.044-.034-.078-.094-.112-.171l-1.352-3.618v3.448c0,.094-.017.171-.034.239-.036.068-.103.145-.206.214-.093.052-.179.103-.265.154-.093.06-.213.103-.35.128l-.343-.231c.008-.026.017-.06.034-.103.011-.025.019-.06.036-.111,0-.043.008-.095.008-.145v-5.449c0-.025-.017-.06-.044-.112-.034-.042-.059-.085-.084-.119l.299-.18c.12.017.257.043.394.068.128.035.257.068.385.112.12.051.221.119.324.187.086.077.154.172.206.292l1.436,3.969,1.489-4.124v.009c.008-.043.017-.086.017-.137,0-.035-.034-.086-.103-.146l.31-.231c.358.043.623.112.802.197.173.094.265.162.265.205v5.166c0,.068.019.128.053.18.034.06.095.077.187.043l.162.282Z"/>
        </g>
      </g>
      <g>
        <g>
          <rect class="cls-17" x="14.104" y="249.689" width="361.792" height="86.931"/>
          <path d="M377.19,337.913H12.81v-89.517h364.38v89.517ZM15.398,335.327h359.204v-84.345H15.398v84.345Z"/>
        </g>
        <g>
          <rect class="cls-17" x="3.294" y="260.374" width="383.412" height="21.753"/>
          <path d="M388,283.421H2v-24.338h386v24.338ZM4.588,280.835h380.824v-19.167H4.588v19.167Z"/>
        </g>
        <g>
          <rect class="cls-10" x="3.294" y="197.843" width="383.412" height="62.531"/>
          <path d="M388,261.668H2v-65.117h386v65.117ZM4.588,259.082h380.824v-59.946H4.588v59.946Z"/>
        </g>
      </g>
      <g>
        <g>
          <path class="cls-8" d="M57.237,187.918l20.144,51.622c.687,1.761,2.384,2.92,4.274,2.92h87.565c1.994,0,3.76-1.288,4.369-3.186l16.56-51.622c.95-2.961-1.259-5.989-4.369-5.989H61.511c-3.229,0-5.448,3.247-4.274,6.256Z"/>
          <path d="M169.221,243.754h-87.566c-2.44,0-4.591-1.468-5.48-3.742l-20.144-51.625c-.706-1.811-.474-3.851.623-5.456s2.912-2.562,4.857-2.562h124.269c1.9,0,3.632.88,4.751,2.415,1.12,1.535,1.43,3.453.85,5.264l-16.56,51.62c-.783,2.442-3.033,4.085-5.6,4.085ZM58.442,187.448l20.144,51.622c.497,1.274,1.702,2.097,3.069,2.097h87.566c1.437,0,2.697-.92,3.136-2.289l16.56-51.622c.325-1.013.152-2.089-.476-2.948s-1.597-1.354-2.661-1.354H61.511c-1.105,0-2.097.524-2.72,1.436-.623.914-.751,2.028-.348,3.057h0Z"/>
        </g>
        <path class="cls-7" d="M129.192,214.616h0l.21-1.896c.11-.992-.743-1.825-1.908-1.825h-2.377c-.075-1.422-1.385-2.602-3.037-2.602s-2.896,1.18-2.893,2.602h-2.377c-1.166,0-1.972.833-1.807,1.825l.316,1.896c1.535,0,2.892,1.016,3.025,2.213.126,1.14-.914,2.026-2.319,2.026l.247,1.481c.116.698.965,1.248,1.899,1.248h8.559c.934,0,1.752-.55,1.829-1.248l.164-1.481h0c1.405,0,2.692-.885,2.881-2.026.199-1.198-.876-2.213-2.411-2.213Z"/>
      </g>
      <g>
        <g>
          <g>
            <path class="cls-11" d="M123.016,129.938h-.002s-.001-4.312-.002-4.312v4.312c-37.859,0-39.688.323-39.688.323,0,0,1.825,26.079,39.69,26.079s39.69-26.079,39.69-26.079c0,0-1.829-.323-39.688-.323Z"/>
            <path d="M123.014,157.633c-38.624,0-40.961-27.01-40.98-27.282-.046-.661.414-1.251,1.066-1.364.196-.036,2.943-.335,38.618-.341v-3.019c0-.714.579-1.293,1.294-1.293s1.294.579,1.294,1.293v3.019c35.683.006,38.426.305,38.622.341.653.114,1.113.703,1.066,1.364-.019.272-2.357,27.282-40.981,27.282ZM84.797,131.484c.94,5.188,6.51,23.564,38.217,23.564s37.279-18.382,38.218-23.566c-2.789-.088-11.549-.251-38.216-.251h-.003c-26.587,0-35.376.162-38.216.253Z"/>
          </g>
          <g>
            <path class="cls-11" d="M170,89.929c-.861-10.507-3.636-35.848-16.124-39.343-6.847-1.916-19.887.163-21.835,7.481-7.971-1.3-10.271-1.008-18.094,0-1.948-7.318-14.989-9.397-21.835-7.481-12.488,3.495-16.124,28.801-16.124,39.343,0,0-3.368,25.843,40.903,25.843s54.02-14.728,53.109-25.843Z"/>
            <path d="M116.891,117.065c-17.528,0-29.898-3.965-36.766-11.785-6.407-7.298-5.464-15.188-5.42-15.518-.012-9.123,3.125-36.521,17.057-40.423,4.668-1.303,12.635-.981,18.2,2.196,2.353,1.343,4.014,3.095,4.864,5.114,6.761-.867,9.377-1.112,16.348-.029.854-2.007,2.51-3.748,4.851-5.085,5.565-3.177,13.532-3.502,18.2-2.196,9.337,2.615,15.079,16.238,17.065,40.484h0c.293,3.579-.339,8.911-5.015,13.985-8.105,8.797-24.721,13.257-49.383,13.257ZM97.673,51.205c-1.946,0-3.757.219-5.213.627-11.356,3.177-15.178,27.493-15.178,38.096-.019.234-.821,7.294,4.83,13.693,6.365,7.205,18.067,10.858,34.779,10.858,29.782,0,42.259-6.757,47.481-12.423,4.041-4.386,4.59-8.959,4.339-12.023h0c-2.351-28.72-9.554-36.627-15.182-38.202-4.224-1.185-11.446-.777-16.219,1.95-2.182,1.247-3.534,2.8-4.018,4.618-.172.644-.8,1.059-1.458.943-7.794-1.268-9.898-.996-17.719.006-.649.099-1.249-.322-1.415-.95-.484-1.817-1.836-3.371-4.018-4.618-3.128-1.786-7.308-2.577-11.006-2.577Z"/>
          </g>
          <g>
            <path class="cls-11" d="M162.673,84.295c-12.25-5.982-26.17-7.655-39.658-7.655s-27.408,1.673-39.658,7.655c-11.876,5.799-16.169,10.869-15.922,25.258.185,10.795,7.898,19.445,16.64,20.778,7.149,1.091,20.889,4.816,38.94,4.816,18.052,0,31.791-3.725,38.94-4.816,8.742-1.333,16.455-9.983,16.64-20.778.246-14.389-4.046-19.459-15.922-25.258Z"/>
            <path d="M123.014,136.441c-14.067,0-25.646-2.261-33.308-3.758-2.263-.442-4.214-.825-5.827-1.072-9.76-1.489-17.552-11.17-17.74-22.035-.265-15.539,4.922-20.717,16.65-26.442,10.73-5.241,23.888-7.786,40.225-7.786s29.496,2.548,40.226,7.786h0c11.728,5.725,16.914,10.903,16.649,26.442-.187,10.865-7.979,20.546-17.74,22.035-1.613.246-3.564.63-5.827,1.072-7.662,1.497-19.241,3.758-33.308,3.758ZM123.014,77.933c-15.935,0-28.722,2.461-39.09,7.525-11.424,5.578-15.437,10.054-15.197,24.071.165,9.644,6.992,18.22,15.541,19.525,1.642.251,3.629.638,5.934,1.089,7.564,1.478,18.995,3.712,32.812,3.712s25.248-2.234,32.812-3.712c2.304-.451,4.291-.838,5.934-1.089,8.55-1.305,15.376-9.881,15.541-19.525.24-14.019-3.772-18.493-15.196-24.071h0c-10.369-5.064-23.156-7.525-39.091-7.525Z"/>
          </g>
          <g>
            <path class="cls-11" d="M132.273,92.362s2.912-3.711,4.732-3.711"/>
            <path d="M132.272,93.655c-.279,0-.561-.091-.798-.276-.561-.44-.66-1.253-.219-1.815.775-.988,3.477-4.207,5.75-4.207.715,0,1.294.579,1.294,1.293s-.579,1.293-1.294,1.293c-.62,0-2.391,1.535-3.715,3.217-.255.326-.635.495-1.018.495Z"/>
          </g>
          <g>
            <path class="cls-11" d="M113.755,92.362s-2.912-3.711-4.732-3.711"/>
            <path d="M113.756,93.655c-.383,0-.763-.168-1.018-.495-1.324-1.682-3.095-3.217-3.715-3.217-.715,0-1.294-.579-1.294-1.293s.579-1.293,1.294-1.293c2.273,0,4.975,3.219,5.75,4.207.441.562.342,1.375-.219,1.815-.237.185-.519.276-.798.276Z"/>
          </g>
          <g>
            <path class="cls-5" d="M123.015,123.753h-.002c-16.545,0-26.01,7.528-26.01,7.528,0,0,1.196,13.108,26.012,13.108s26.012-13.108,26.012-13.108c0,0-8.754-7.528-26.01-7.528Z"/>
            <path d="M123.014,145.682c-25.701,0-27.246-13.699-27.3-14.282-.039-.434.142-.859.483-1.131.401-.318,10.012-7.81,26.816-7.81h.002c17.534,0,26.483,7.521,26.855,7.841.317.274.483.682.445,1.099-.054.583-1.599,14.282-27.301,14.282ZM98.427,131.853c.663,2.562,4.404,11.244,24.587,11.244s23.945-8.728,24.594-11.271c-2.178-1.564-10.492-6.78-24.593-6.78-13.533,0-22.265,5.232-24.588,6.807Z"/>
          </g>
        </g>
        <g>
          <path class="cls-11" d="M109.494,70.341s-4.614-11.309-18.175-6.142"/>
          <path d="M109.495,71.631c-.508,0-.991-.301-1.197-.798-.172-.411-4.343-10.058-16.517-5.424-.664.261-1.415-.078-1.67-.747-.255-.667.08-1.415.747-1.67,14.571-5.555,19.783,6.736,19.834,6.86.27.659-.047,1.411-.706,1.682-.161.067-.327.097-.491.097Z"/>
        </g>
        <g>
          <path class="cls-11" d="M136.534,70.341s4.614-11.309,18.175-6.142"/>
          <path d="M136.534,71.631c-.163,0-.33-.029-.491-.097-.659-.272-.976-1.023-.706-1.682.053-.122,5.263-12.412,19.834-6.86.667.255,1.002,1.002.747,1.67-.255.67-1.003,1.006-1.67.747-12.167-4.634-16.344,5.013-16.517,5.424-.206.497-.689.798-1.197.798Z"/>
        </g>
      </g>
      <g>
        <g>
          <path class="cls-12" d="M319.479,203.419h-9.019l-31.623,5.15-31.624-5.15h-9.019l-1.058,38.836h38.214s.873,1.664,3.487,1.664,3.487-1.664,3.487-1.664h38.213l-1.058-38.836Z"/>
          <path d="M278.837,245.211c-2.049,0-3.404-.863-4.133-1.663h-38.897l1.129-41.421h10.278l31.624,5.133,31.414-5.117,10.487-.017,1.129,41.421h-38.896c-.731.8-2.085,1.663-4.133,1.663ZM238.466,240.962h37.667l.363.693c.008.011.601.971,2.341.971s2.333-.96,2.357-1l.377-.632.753-.032h36.883l-.988-36.25h-7.76l-31.623,5.167-31.832-5.184-7.552.015-.988,36.252Z"/>
        </g>
        <g>
          <g>
            <path class="cls-9" d="M242.591,198.872s24.849-1.981,36.246,4.548v34.567h-38.113l1.867-39.115Z"/>
            <path d="M280.131,239.279h-40.764l1.986-41.608,1.135-.088c1.034-.086,25.383-1.933,36.993,4.714l.651.373v36.61ZM242.081,236.694h35.462v-32.506c-9.784-5.091-28.873-4.373-33.716-4.1l-1.747,36.605Z"/>
          </g>
          <path d="M278.301,239.163c-22.565-10.269-36.702-3.788-36.841-3.725l-1.12-2.333c.615-.291,15.284-7.104,39.033,3.704l-1.072,2.354Z"/>
        </g>
        <g>
          <g>
            <path class="cls-9" d="M315.083,198.872s-24.849-1.981-36.246,4.548v34.567s38.113,0,38.113,0l-1.867-39.115Z"/>
            <path d="M318.307,239.279h-40.764v-36.61l.651-.373c11.608-6.652,35.958-4.803,36.992-4.714l1.135.088,1.987,41.608ZM280.131,236.694h35.462l-1.748-36.605c-4.839-.272-23.93-.99-33.715,4.1v32.506Z"/>
          </g>
          <path d="M279.373,239.163l-1.072-2.354c23.752-10.81,38.422-3.996,39.032-3.702l-1.12,2.331c-.138-.067-14.277-6.546-36.84,3.725Z"/>
        </g>
        <g>
          <path class="cls-9" d="M284.511,227.1s15.562-4.964,26.587-2.318"/>
          <path class="cls-14" d="M284.512,228.396c-.549,0-1.057-.352-1.233-.901-.217-.682.159-1.409.84-1.626.649-.208,16.036-5.049,27.281-2.344.695.166,1.122.863.956,1.558-.165.695-.861,1.133-1.56.956-10.549-2.527-25.739,2.245-25.891,2.293-.131.042-.263.063-.393.063Z"/>
        </g>
        <g>
          <path class="cls-9" d="M284.511,221.159s15.562-4.964,26.587-2.318"/>
          <path class="cls-14" d="M284.512,222.454c-.549,0-1.057-.352-1.233-.901-.217-.682.159-1.409.84-1.626.65-.206,16.035-5.045,27.281-2.344.695.166,1.122.863.956,1.558-.165.695-.861,1.133-1.56.956-10.549-2.531-25.739,2.245-25.891,2.293-.131.042-.263.063-.393.063Z"/>
        </g>
        <g>
          <path class="cls-9" d="M284.511,215.218s15.562-4.964,26.587-2.318"/>
          <path class="cls-14" d="M284.512,216.514c-.549,0-1.057-.352-1.233-.901-.217-.682.159-1.409.84-1.626.649-.206,16.036-5.049,27.281-2.344.695.166,1.122.863.956,1.558-.165.697-.861,1.129-1.56.956-10.549-2.527-25.739,2.245-25.891,2.293-.131.042-.263.063-.393.063Z"/>
        </g>
        <g>
          <path class="cls-9" d="M284.511,209.277s15.562-4.964,26.587-2.318"/>
          <path class="cls-14" d="M284.512,210.572c-.549,0-1.057-.352-1.233-.901-.217-.682.159-1.409.84-1.626.65-.206,16.035-5.047,27.281-2.344.695.166,1.122.863.956,1.558-.165.697-.861,1.135-1.56.956-10.549-2.531-25.739,2.245-25.891,2.293-.131.042-.263.063-.393.063Z"/>
        </g>
        <g>
          <path class="cls-9" d="M273.163,227.1s-15.562-4.964-26.587-2.318"/>
          <path class="cls-14" d="M273.163,228.396c-.131,0-.262-.021-.393-.063-.154-.048-15.356-4.815-25.892-2.293-.697.175-1.393-.261-1.56-.956-.166-.695.261-1.392.956-1.558,11.246-2.708,26.635,2.135,27.282,2.344.681.217,1.057.943.84,1.626-.176.55-.684.901-1.233.901Z"/>
        </g>
        <g>
          <path class="cls-9" d="M273.163,221.159s-15.562-4.964-26.587-2.318"/>
          <path class="cls-14" d="M273.163,222.454c-.129,0-.262-.021-.393-.063-.154-.048-15.359-4.818-25.892-2.293-.697.175-1.393-.261-1.56-.956-.166-.695.261-1.392.956-1.558,11.253-2.701,26.633,2.137,27.282,2.344.681.217,1.057.943.84,1.626-.176.55-.684.901-1.233.901Z"/>
        </g>
        <g>
          <path class="cls-9" d="M273.163,215.218s-15.562-4.964-26.587-2.318"/>
          <path class="cls-14" d="M273.163,216.514c-.131,0-.262-.021-.393-.063-.154-.048-15.356-4.818-25.892-2.293-.697.173-1.393-.261-1.56-.956-.166-.695.261-1.392.956-1.558,11.246-2.704,26.635,2.137,27.282,2.344.681.217,1.057.943.84,1.626-.176.55-.684.901-1.233.901Z"/>
        </g>
        <g>
          <path class="cls-9" d="M273.163,209.277s-15.562-4.964-26.587-2.318"/>
          <path class="cls-14" d="M273.163,210.572c-.129,0-.262-.021-.393-.063-.154-.048-15.359-4.82-25.892-2.293-.697.179-1.393-.259-1.56-.956-.166-.695.261-1.392.956-1.558,11.253-2.701,26.633,2.137,27.282,2.344.681.217,1.057.943.84,1.626-.176.55-.684.901-1.233.901Z"/>
        </g>
      </g>
      <g>
        <g>
          <path class="cls-6" d="M256.191,199.098c-1.18-1.115-1.8-2.798-1.653-4.423.019-.198.06-.398.1-.599-.752.071-1.503.142-2.236.189-1.664.075-8.846,1.199-8.573-1.876.068-.856.634-1.555,1.162-2.207.898-1.175,1.74-2.452,2.106-3.888.369-1.414.187-3.064-.755-4.187-1.145-1.358-3.166-1.717-4.892-1.265-1.707.428-3.18,1.522-4.538,2.667-3.637,3.099-6.901,6.933-8.091,11.555-.91,3.545-.401,7.675,1.832,10.636,2.521,3.361,8.127,4.603,11.896,6.094,3.72,1.453,7.641,2.599,11.64,2.606.283.009.586-.007.867-.02-.778-1.555-.984-3.398-.449-5.05.406-1.288,1.36-2.536,2.708-2.702-1.248-.433-2.236-1.571-2.461-2.868-.246-1.295.275-2.706,1.3-3.549.155-.149.375-.307.391-.526-.008-.238-.181-.412-.355-.586Z"/>
          <path class="cls-15" d="M262.976,194.569c-2.606-1.047-5.481-.758-8.338-.493-.04.201-.081.401-.1.599-.147,1.626.473,3.309,1.653,4.423.174.174.347.348.355.586-.016.219-.236.377-.391.526-1.026.843-1.547,2.254-1.3,3.549.225,1.297,1.213,2.436,2.461,2.868-1.348.166-2.302,1.413-2.708,2.702-.535,1.652-.33,3.495.449,5.05,3.718-.154,7.448-1.439,10.084-4.024,2.848-2.806,4.184-7.294,2.664-10.995-.874-2.152-2.657-3.93-4.827-4.793Z"/>
        </g>
        <path d="M254.357,215.697c-.069,0-.139-.002-.206-.004-4.659-.006-9.122-1.541-12.073-2.695-.805-.318-1.692-.623-2.613-.941-3.578-1.234-7.634-2.632-9.846-5.58-2.33-3.089-3.116-7.586-2.05-11.734,1.103-4.285,3.885-8.281,8.504-12.219,1.463-1.234,3.085-2.44,5.061-2.937,2.374-.617,4.81.04,6.197,1.687,1.135,1.354,1.525,3.401,1.018,5.348-.438,1.716-1.424,3.16-2.331,4.346-.455.564-.862,1.07-.899,1.524.609.754,2.689.88,6.223.56.418-.038.763-.069,1.001-.08.638-.04,1.313-.103,1.991-.166l.304,1.272-.066,1.305c-.702.065-1.403.131-2.088.173-.234.011-.539.04-.91.074-3.156.288-6.662.461-8.243-1.122-.594-.592-.867-1.364-.791-2.232.099-1.242.844-2.165,1.442-2.904.727-.954,1.536-2.125,1.86-3.396.297-1.137.102-2.327-.493-3.036-.847-1.004-2.402-1.15-3.574-.846-1.477.373-2.809,1.377-4.03,2.407-4.195,3.573-6.706,7.138-7.672,10.888-.875,3.403-.257,7.056,1.612,9.534,1.738,2.316,5.394,3.577,8.621,4.689.96.331,1.882.651,2.717.981,4.374,1.71,7.924,2.51,11.166,2.516.273.004.529-.006.766-.017,3.751-.158,7.031-1.455,9.277-3.657,2.641-2.605,3.618-6.544,2.372-9.58-.743-1.83-2.278-3.354-4.107-4.081-2.277-.916-4.858-.676-7.592-.421l-.151.015-.119-1.289.031-1.301c2.919-.272,5.939-.552,8.791.594,2.467.979,4.541,3.038,5.543,5.506,1.632,3.975.418,9.077-2.954,12.404-2.708,2.651-6.592,4.211-10.94,4.394-.26.011-.511.023-.752.023Z"/>
        <g>
          <path class="cls-9" d="M235.769,172.571c-2.622,2.345-4.49,5.317-6.631,8.846,5.103,5.026,10.404,9.194,18.063,12.024,2.344-2.375.133-.293,1.877-3.138,3.028-4.941,5.887-10.557,4.918-16.27-1.101-6.492-7.054-7.118-12.278-5.068-2.429.953-4.332,2.161-5.948,3.606Z"/>
          <path d="M247.201,194.734c-.151,0-.302-.025-.448-.08-8.47-3.129-13.907-7.767-18.523-12.316-.427-.421-.51-1.08-.199-1.594,2.322-3.826,4.175-6.721,6.876-9.138h0c1.826-1.63,3.898-2.889,6.338-3.847,3.809-1.491,7.49-1.505,10.098-.029,2.096,1.185,3.454,3.289,3.929,6.085,1.033,6.1-1.836,11.854-5.091,17.165-.312.507-.455.794-.518.939.128.739-.332,1.206-1.54,2.432-.247.251-.581.383-.921.383ZM230.777,181.209c4.107,3.969,8.951,7.936,16.093,10.722.067-.069.125-.131.175-.183.044-.52.327-1.139.929-2.12,2.992-4.881,5.638-10.124,4.746-15.379-.344-2.032-1.236-3.468-2.65-4.268-1.898-1.072-4.845-1.004-7.88.187-2.149.844-3.967,1.946-5.559,3.367-2.234,2-3.891,4.472-5.854,7.675Z"/>
        </g>
      </g>
      <g>
        <g>
          <g>
            <path class="cls-9" d="M324.738,162.276l-.064-.012c.434.144-4.548,3.93-4.899,4.173-2.1,1.306-4.269,2.512-6.482,3.601-4.494,2.187-9.23,3.891-14.08,5.137-9.763,2.48-20.084,3.083-30.024,1.346-9.917-1.865-19.368-6.056-27.616-11.804-4.124-2.874-7.959-6.134-11.399-9.76-1.69-1.797-3.297-3.688-4.783-5.645-.264-.355-3.599-5.649-3.142-5.632l-.064-.012c3.841-1.604,7.939-2.57,12.091-2.868,7.129-.525,13.377-2.109,20.381-3.512,9.14-1.826,18.572,1.266,27.008,5.251,5.69,2.698,11.168,5.839,16.976,8.252,5.283,2.164,10.667,2.198,15.784,4.551,3.782,1.738,7.28,4.082,10.312,6.933Z"/>
            <path class="cls-15" d="M333.335,91.829c-.401,1.001-1.384,1.831-2.435,1.706-.75-.092-1.373-.644-1.811-1.249-.832-1.093-1.283-2.468-1.253-3.843-.895.583-1.814,1.183-2.869,1.32s-2.268-.302-2.658-1.293c-.448-1.155.329-2.417.244-3.637-1.014.517-2.079,1.069-3.224,1.102s-2.413-.591-2.716-1.698c-.168-.644.001-1.336.163-1.986.356-1.36.691-2.723,1.048-4.083l-.683-.825c3.372-2.763,6.8-5.472,10.008-8.418,5.404-5.024,6.903,1.45,7.282,6.361.36,4.536.391,9.077.011,13.588-.058.559-.094,1.122-.194,1.674l-.623-.069c-.038.453-.123.92-.289,1.35Z"/>
            <path class="cls-15" d="M238.908,74.696c-.021-.486.063-.953.19-1.412l-.608-.154c.121-.548.26-1.07.399-1.593,1.229-4.357,2.874-8.594,4.784-12.718,2.081-4.465,5.759-9.999,9.053-3.397,1.968,3.885,4.226,7.626,6.413,11.397l-.929.533c-.144,1.398-.309,2.793-.454,4.191-.056.669-.14,1.377-.545,1.917-.673.93-2.079,1.069-3.139.636s-1.863-1.324-2.631-2.165c-.509,1.113-.225,2.567-1.05,3.491-.713.791-2.003.776-2.943.277s-1.59-1.384-2.222-2.244c-.455,1.298-1.361,2.427-2.502,3.162-.644.409-1.421.706-2.135.533-1.049-.256-1.657-1.374-1.681-2.452Z"/>
            <path class="cls-6" d="M218.672,132.118c.925-.511,2.094-.431,3.08-.668-1.433-.435-2.438-2.02-2.161-3.548.075-.293.171-.582.366-.81.368-.459.987-.61,1.552-.704,3.205-.514,3.562.055,5.059-3.005,1.228-2.538,2.49-5.027,3.837-7.499,2.65-4.822,5.56-9.509,9.011-13.792-3.882-9.163-3.39-19.482-.925-28.962l.608.154c-.127.459-.212.926-.19,1.412.024,1.078.631,2.196,1.681,2.452.714.173,1.491-.124,2.135-.533,1.141-.735,2.047-1.864,2.502-3.162.633.86,1.283,1.745,2.222,2.244s2.23.514,2.943-.277c.825-.924.541-2.378,1.05-3.491.768.841,1.57,1.731,2.631,2.165s2.467.294,3.139-.636c.405-.54.489-1.248.545-1.917.144-1.398.309-2.793.454-4.191l.929-.533c.453.762.886,1.519,1.318,2.277,3.734,6.594,7.468,13.188,11.181,19.778,4.95.131,8.383.294,13.245,1.154,4.854.903,8.147,1.96,12.806,3.573,5.813-4.862,11.604-9.728,17.417-14.59.671-.558,1.342-1.115,2.034-1.669l.683.825c-.356,1.36-.691,2.723-1.048,4.083-.162.65-.331,1.342-.163,1.986.303,1.107,1.57,1.731,2.716,1.698s2.21-.585,3.224-1.102c.085,1.221-.691,2.482-.244,3.637.39.991,1.603,1.43,2.658,1.293s1.974-.737,2.869-1.32c-.03,1.375.421,2.75,1.253,3.843.438.605,1.061,1.157,1.811,1.249,1.051.125,2.034-.705,2.435-1.706.166-.43.25-.897.289-1.35l.623.069c-1.022,9.741-4.18,19.533-11.033,26.748,1.747,5.226,2.804,10.633,3.591,16.078.393,2.788.7,5.561.958,8.369.327,3.39.861,2.983,3.681,4.59.517.291,1.044.65,1.227,1.209.081.278.091.586.037.883-.256,1.531-1.775,2.658-3.27,2.562.86.572,1.962.904,2.648,1.708.666.8.697,2.077.061,2.925-1.091,1.424-2.883.551-4.325.289.353.349.685.694.963,1.095.808,1.22.738,2.939-.172,4.088-.867,1.157-2.491,1.652-3.853,1.186l-.021-.004c-3.033-2.851-6.53-5.195-10.312-6.933-5.117-2.353-10.501-2.387-15.784-4.551-5.808-2.412-11.286-5.554-16.976-8.252-8.437-3.985-17.868-7.077-27.008-5.251-7.004,1.403-13.251,2.986-20.381,3.512-4.152.299-8.25,1.264-12.091,2.868l-.021-.004c-1.439-.042-2.785-1.075-3.191-2.463-.448-1.396.111-3.026,1.296-3.884.38-.282.812-.488,1.265-.691-1.443-.262-3.427-.074-3.948-1.79-.276-1.014.18-2.202,1.085-2.718Z"/>
          </g>
          <path d="M280.793,178.801c-4.021,0-7.986-.335-11.827-1.006-9.764-1.836-19.486-5.99-28.134-12.017-4.264-2.971-8.165-6.313-11.596-9.93-1.742-1.851-3.381-3.786-4.875-5.752-.035-.048-2.262-3.091-3.086-5.247-1.646-.373-3.066-1.653-3.543-3.285-.444-1.383-.152-2.971.695-4.184-.89-.331-1.707-.943-2.078-2.167-.442-1.626.286-3.422,1.682-4.22.276-.152.554-.265.832-.352-.511-.886-.732-1.941-.545-2.971.119-.478.281-.983.657-1.421.605-.758,1.515-1.002,2.32-1.137.591-.095,1.082-.154,1.507-.204q1.679-.202,2.605-2.093c1.327-2.746,2.591-5.218,3.863-7.551,2.956-5.38,5.722-9.654,8.661-13.385-3.263-8.226-3.505-18.257-.692-29.076.115-.52.257-1.059.4-1.598,1.182-4.194,2.771-8.416,4.861-12.93,2.242-4.809,4.482-7.161,6.846-7.193h.047c1.735,0,3.245,1.265,4.491,3.763,1.569,3.095,3.366,6.169,5.104,9.145l1.27,2.179c.427.718.842,1.444,1.257,2.171l.672,1.185c3.413,6.026,6.824,12.052,10.218,18.074,4.461.126,7.895.305,12.703,1.154,4.814.895,8.22,1.977,12.312,3.386l16.856-14.12c.679-.566,1.356-1.129,2.056-1.689l1.955-1.594c2.668-2.171,5.427-4.415,7.985-6.765,2.055-1.912,3.93-2.565,5.564-1.92,2.203.859,3.474,3.849,3.883,9.136.378,4.752.381,9.395.009,13.796l-.042.44c-.042.453-.086.908-.167,1.356-1.168,11.16-4.818,20.214-10.84,26.84,1.43,4.445,2.516,9.42,3.405,15.571.37,2.626.685,5.384.966,8.437q.201,2.089,1.703,2.868c.378.196.817.425,1.33.716.43.242,1.452.817,1.816,1.931.147.503.171,1.013.08,1.514-.172,1.032-.746,1.946-1.541,2.6.221.173.435.371.631.6,1.058,1.272,1.102,3.219.114,4.542-.78,1.017-1.757,1.31-2.703,1.31h-.001c.362,1.434.068,3.026-.853,4.19-1,1.331-2.768,2.023-4.431,1.807-.727.815-2.103,2.015-4.685,3.798-2.18,1.358-4.399,2.59-6.646,3.695-4.47,2.177-9.29,3.935-14.328,5.23-6.21,1.577-12.543,2.373-18.743,2.373ZM223.522,143.625c.412.954,2.564,4.436,2.911,4.919,1.429,1.882,3.008,3.746,4.684,5.527,3.308,3.487,7.076,6.713,11.196,9.585,8.349,5.818,17.726,9.827,27.116,11.593,9.392,1.642,19.586,1.183,29.467-1.327,4.868-1.253,9.522-2.95,13.833-5.047,2.166-1.065,4.309-2.257,6.365-3.537.405-.284,3.573-2.729,4.371-3.531.221-.587.841-.954,1.464-.811.056.011.196.042.25.061.84.278,1.868-.032,2.399-.739.583-.737.63-1.842.128-2.596-.219-.318-.5-.6-.795-.893-.402-.398-.499-1.013-.237-1.516.261-.499.822-.769,1.378-.676.314.057.643.139.978.225,1.396.354,1.807.347,2.091-.027.263-.352.254-.971-.029-1.312-.273-.32-.767-.575-1.291-.846-.373-.192-.742-.387-1.08-.613-.487-.324-.696-.935-.508-1.491.188-.556.749-.922,1.309-.876.877.046,1.77-.636,1.911-1.484.022-.124.02-.23-.003-.307h0s-.086-.143-.619-.442c-.484-.278-.894-.488-1.247-.672-2.194-1.139-2.784-1.771-3.088-4.923-.277-3.017-.589-5.733-.952-8.313-.914-6.329-2.038-11.368-3.536-15.849-.153-.455-.041-.954.288-1.301,5.936-6.249,9.531-14.996,10.685-25.993.081-.47.115-.851.151-1.232l.043-.44c.357-4.236.353-8.738-.014-13.351-.356-4.603-1.393-6.597-2.245-6.929-.593-.232-1.647.278-2.867,1.413-2.621,2.407-5.411,4.676-8.11,6.871l-1.959,1.598c-.698.558-1.362,1.112-2.027,1.663l-17.414,14.587c-.347.293-.823.375-1.253.232-4.438-1.537-7.714-2.611-12.621-3.525-4.88-.861-8.333-1.009-13.042-1.133-.455-.013-.871-.261-1.094-.657-3.511-6.235-7.042-12.471-10.574-18.71l-.604-1.065c-.471-.825-.878-1.537-1.304-2.255l-1.273-2.183c-1.757-3.007-3.574-6.117-5.182-9.288-.743-1.489-1.536-2.337-2.182-2.337h-.009c-.914.011-2.586,1.514-4.534,5.696-2.031,4.384-3.572,8.481-4.711,12.522-.129.488-.263.994-.382,1.524-2.76,10.621-2.461,20.348.854,28.175.186.44.116.945-.183,1.316-3.023,3.752-5.846,8.075-8.884,13.604-1.25,2.293-2.495,4.727-3.806,7.439-1.395,2.851-2.17,3.234-4.623,3.531-.395.046-.853.101-1.396.19-.582.097-.717.196-.747.234-.032.04-.066.103-.122.322-.136.766.455,1.737,1.284,1.99.558.171.933.693.916,1.276s-.422,1.082-.99,1.219c-.397.097-.82.149-1.249.2-.582.069-1.133.135-1.508.343-.37.211-.589.785-.463,1.247.126.415.51.564,1.94.722.342.038.678.078.991.133.558.101.985.556,1.054,1.118.068.564-.239,1.108-.758,1.337-.437.196-.76.354-1.021.547-.755.547-1.109,1.598-.835,2.451.258.882,1.112,1.541,1.996,1.567.077.002.152.011.223.025.61.103,1.07.623,1.096,1.228Z"/>
        </g>
        <path d="M269.776,139.038c-.672,3.706-4.104,5.516-7.809,4.844-3.706-.672-6.282-3.573-5.61-7.278s3.836-4.043,7.542-3.371c3.706.672,6.55,2.1,5.877,5.806Z"/>
        <g>
          <g>
            <g>
              <path class="cls-18" d="M253.361,129.822c1.842.597,4.117-.831,4.141-2.777,1.367.314,2.768.568,4.158.754-.169,1.898-1.117,3.742-2.465,5.009-2.396,2.217-5.916,1.929-8.624.67-2.627-1.222-5.058-3.525-5.504-6.499-.164-1.147-.118-2.125.117-2.937l.23.064c1.867.339,3.734.677,5.597,1.037-.512,1.857.53,4.084,2.351,4.678Z"/>
              <path class="cls-1" d="M256.588,121.577c2.23.996,4.151,1.52,4.869,3.842.234.766.303,1.589.203,2.382-1.391-.187-2.791-.441-4.158-.754-.024,1.946-2.299,3.374-4.141,2.777-1.821-.593-2.863-2.82-2.351-4.678-1.863-.36-3.73-.699-5.597-1.037l-.23-.064c1.192-4.276,7.064-4.394,11.404-2.467Z"/>
            </g>
            <path d="M254.76,135.742c-1.683,0-3.349-.446-4.732-1.089-3.445-1.6-5.777-4.396-6.24-7.481-.188-1.314-.137-2.485.153-3.489.475-1.699,1.599-3.017,3.249-3.794,2.588-1.223,6.481-1.023,9.924.505l.823.358c1.943.83,3.953,1.689,4.757,4.283.285.935.372,1.937.254,2.901-.199,2.171-1.242,4.289-2.865,5.816-1.557,1.44-3.451,1.99-5.322,1.99ZM251.162,121.676c-1.088,0-2.081.181-2.869.554-.976.459-1.586,1.166-1.862,2.16-.191.659-.218,1.465-.083,2.407.392,2.609,2.721,4.559,4.77,5.51,2.16,1,5.19,1.413,7.199-.448,1.149-1.08,1.919-2.643,2.055-4.173.001-.017.003-.032.005-.048.078-.613.023-1.251-.157-1.842-.428-1.383-1.374-1.84-3.299-2.664l-.86-.373c-1.608-.714-3.349-1.082-4.899-1.082Z"/>
          </g>
          <circle class="cls-9" cx="255.165" cy="123.842" r="1.375"/>
          <path d="M244.128,123.626c-.557,0-1.149-.097-1.718-.366-.763-.362-1.758-1.179-2.163-3.011-.154-.699.286-1.39.984-1.543.686-.162,1.387.286,1.542.983.144.653.395,1.068.745,1.234.677.312,1.792-.105,2.034-.227.635-.316,1.417-.065,1.737.573.322.638.065,1.417-.573,1.739-.168.084-1.281.619-2.589.619Z"/>
        </g>
        <g>
          <g>
            <g>
              <path class="cls-18" d="M281.192,136.8c1.444,2.913,4.861,3.884,7.817,3.654,3.51-.262,8.282-3.011,8.554-6.928l-.432-.035c-1.867-.339-3.734-.677-5.583-.991-.194,1.915-1.931,3.638-3.865,3.55s-3.563-2.224-2.902-4.055c-1.391-.187-2.769-.437-4.137-.751-.603,1.512-.548,3.385.548,5.556Z"/>
              <path class="cls-1" d="M284.782,131.995c-.661,1.83.968,3.967,2.902,4.055s3.671-1.635,3.865-3.55c1.85.314,3.716.652,5.583.991l.432.035c.069-.623.011-1.269-.195-1.942-.4-1.3-1.773-1.943-2.892-2.782-1.834-1.363-4.226-1.95-6.525-1.841-3.228.159-6.288,1.686-7.307,4.284,1.367.314,2.746.564,4.137.751Z"/>
            </g>
            <path d="M288.173,141.78c-3.031,0-6.523-1.141-8.14-4.405-1.488-2.948-1.144-5.22-.592-6.607,1.14-2.901,4.455-4.904,8.448-5.1,2.753-.107,5.364.613,7.359,2.095.232.173.471.335.709.495,1.032.701,2.201,1.493,2.648,2.944.254.827.336,1.657.245,2.468-.333,4.801-5.874,7.786-9.744,8.075-.304.023-.616.036-.933.036ZM288.491,128.242c-.159,0-.318.004-.478.013-2.93.143-5.408,1.535-6.164,3.462-.001.002-.002.006-.003.008-.518,1.297-.35,2.809.501,4.493,1.218,2.459,4.2,3.158,6.562,2.946,2.858-.213,7.143-2.548,7.364-5.727.057-.518.008-.981-.142-1.474-.178-.579-.85-1.034-1.627-1.56-.272-.185-.544-.371-.804-.564-1.377-1.023-3.255-1.596-5.209-1.596ZM280.645,131.244h.021-.021Z"/>
          </g>
          <circle class="cls-9" cx="288.103" cy="129.819" r="1.375"/>
          <path d="M299.948,133.767c-1.957,0-3.468-1.575-3.642-1.764-.484-.524-.451-1.343.075-1.828.524-.484,1.338-.455,1.824.072.246.261,1.082.971,1.834.929.384-.034.763-.335,1.125-.891.392-.598,1.192-.766,1.79-.379.599.39.769,1.192.379,1.79-1.024,1.573-2.241,1.988-3.084,2.059-.101.008-.202.013-.302.013Z"/>
        </g>
        <path class="cls-9" d="M283.241,113.933c-2.185.713-4.119,2.294-5.051,4.394-.187.421-.336.873-.313,1.333.068,1.359,1.59,2.21,2.95,2.243,2.808.067,12.679-.596,12.051-4.929-.578-3.989-6.895-3.916-9.637-3.041Z"/>
        <path class="cls-9" d="M263.175,110.292c1.795,1.435,3.051,3.594,3.186,5.889.027.46.008.935-.175,1.357-.541,1.248-2.265,1.511-3.55,1.063-2.653-.924-11.661-5.012-9.551-8.848,1.942-3.531,7.831-1.244,10.091.539Z"/>
        <g>
          <path class="cls-9" d="M307.404,98.071s4.322-2.254,5.241-.315c.919,1.939-1.396,4.558-1.396,4.558,0,0,6.542.174,4.586,2.098l-1.956,1.924s3.277,2.874,4.28,4.322c1.003,1.448,11.448-18.434,9.061-26.211,0,0-1.003-1.448-2.697-.489-1.693.959-17.119,14.113-17.119,14.113Z"/>
          <path d="M318.297,112.024c-.473,0-.918-.221-1.201-.63-.749-1.082-3.191-3.316-4.069-4.087-.271-.238-.43-.577-.44-.935-.011-.36.129-.707.385-.96l1.439-1.417c-.781-.196-2.038-.358-3.196-.39-.501-.013-.949-.316-1.15-.775s-.117-.994.213-1.373c.547-.625,1.608-2.287,1.199-3.15-.334-.221-2.014.154-3.476.91-.585.303-1.303.118-1.67-.425-.367-.545-.267-1.28.234-1.706,1.589-1.356,15.571-13.265,17.322-14.257,1.997-1.126,3.723-.093,4.398.878.076.109.135.23.174.358,2.376,7.744-6.661,26.438-9.454,27.792-.232.114-.473.166-.706.166ZM315.766,106.293c.771.712,1.814,1.706,2.615,2.594,2.399-3.409,9.272-17.63,7.672-23.816-.34-.303-.735-.078-.893.013-.929.524-7.467,5.969-13.076,10.711.063.017.126.036.188.057.701.234,1.235.701,1.541,1.35.651,1.371.271,2.843-.284,3.986,2.166.286,3.453.922,3.838,1.899.139.354.356,1.28-.627,2.247l-.975.96Z"/>
        </g>
        <g>
          <path class="cls-9" d="M260.975,89.647s-3.255-3.629-4.797-2.136c-1.542,1.493-.294,4.758-.294,4.758,0,0-6.186-2.135-5.03.353l1.155,2.489s-4.078,1.539-5.526,2.543c-1.448,1.003-4.242-21.281.725-27.723,0,0,1.448-1.003,2.697.489,1.249,1.493,11.07,19.228,11.07,19.228Z"/>
          <path d="M246.39,98.978c-.403,0-.806-.171-1.119-.499-2.139-2.249-4.034-22.923.913-29.339.081-.105.178-.198.287-.274.974-.674,2.953-1.038,4.427.722,1.291,1.543,10.196,17.605,11.208,19.43.319.577.155,1.299-.381,1.68-.535.383-1.275.301-1.713-.187-1.102-1.225-2.547-2.162-2.952-2.068-.677.667-.263,2.588.033,3.363.179.47.071,1-.279,1.36-.348.36-.879.482-1.351.324-1.095-.377-2.327-.667-3.128-.758l.847,1.832c.151.326.16.701.024,1.034-.137.333-.404.594-.741.722-1.093.413-4.167,1.647-5.247,2.394-.254.177-.541.263-.829.263ZM248.077,70.932c-3.665,5.232-2.228,20.953-1.179,24.985,1.062-.55,2.388-1.114,3.359-1.508l-.577-1.242c-.58-1.251-.051-2.042.203-2.325.703-.781,2.13-.922,4.262-.432-.119-1.263.043-2.775,1.133-3.83.516-.499,1.165-.72,1.919-.724.064.004.129.008.195.015-3.585-6.409-7.794-13.804-8.479-14.623-.116-.137-.405-.486-.836-.316Z"/>
        </g>
        <path d="M269.597,154.134c-7.147,0-14.025-2.668-18.531-7.418-.492-.518-.47-1.337.048-1.83.517-.486,1.338-.47,1.83.048,5.126,5.403,13.748,7.778,21.969,6.064.831-.175,1.888-.442,2.714-.996.594-.4,1.397-.24,1.795.354s.239,1.396-.355,1.794c-1.197.804-2.566,1.16-3.625,1.379-1.94.406-3.903.604-5.845.604Z"/>
      </g>
      <g>
        <g>
          <path class="cls-15" d="M306.567,162.3c-2.251,1.493-3.877,3.927-5.245,6.472.15.177.32.364.509.513,1.25,1.05,2.986,1.503,4.575,1.172.242-.043.484-.086.674.063.181.12.184.39.208.622.116,1.305.976,2.539,2.179,3.077,1.212.567,2.711.407,3.779-.37-.653,1.191-.175,2.687.64,3.776,1.079,1.374,2.679,2.268,4.4,2.518,1.988-3.12,3.094-6.924,2.471-10.593-.675-3.94-3.604-7.583-7.481-8.46-2.284-.523-4.763-.076-6.711,1.212Z"/>
          <path class="cls-6" d="M301.322,168.772c-.874,1.562-1.652,3.175-2.436,4.614-4.023,7.482-4.452,19.934-1.493,27.86.619,1.692,1.489,3.322,2.812,4.557,1.313,1.254,3.148,2.027,4.918,1.767,1.712-.242,3.184-1.367,4.151-2.783.986-1.406,1.524-3.072,1.937-4.731.592-2.369.945-4.792,1.085-7.229.063-1.088.097-2.216.218-3.323.163-1.279.442-2.546,1.056-3.709,1.018-1.974,2.943-3.127,4.247-4.95.169-.228.319-.466.469-.703-1.721-.25-3.321-1.144-4.4-2.518-.815-1.089-1.293-2.584-.64-3.776-1.068.777-2.567.937-3.779.37-1.203-.538-2.063-1.772-2.179-3.077-.024-.232-.027-.502-.208-.622-.19-.149-.432-.106-.674-.063-1.589.331-3.325-.122-4.575-1.172-.19-.149-.359-.336-.509-.513Z"/>
        </g>
        <path d="M304.432,208.913c-1.794,0-3.656-.779-5.119-2.175-1.313-1.225-2.34-2.878-3.134-5.047-3.211-8.599-2.524-21.306,1.569-28.918.345-.634.685-1.295,1.034-1.969.451-.874.914-1.773,1.407-2.653,1.235-2.297,2.993-5.157,5.664-6.929,2.257-1.489,5.065-1.998,7.715-1.394,4.188.945,7.671,4.855,8.467,9.502.635,3.737-.307,7.822-2.655,11.507-.177.28-.339.535-.52.779-.611.855-1.332,1.56-2.029,2.242-.834.815-1.621,1.586-2.108,2.529-.461.874-.743,1.88-.922,3.28-.085.779-.125,1.594-.165,2.394l-.044.838c-.149,2.575-.527,5.087-1.123,7.471-.403,1.623-.973,3.506-2.132,5.161-1.252,1.83-3.088,3.045-5.029,3.318-.288.044-.58.063-.874.063ZM311.378,162.171c-1.449,0-2.903.419-4.097,1.209-2.193,1.455-3.727,3.973-4.819,6.005l-.011.019c-.48.859-.931,1.735-1.371,2.586-.357.693-.707,1.371-1.058,2.015-3.714,6.911-4.351,18.931-1.417,26.789.654,1.786,1.465,3.112,2.484,4.064,1.123,1.07,2.59,1.613,3.847,1.432,1.231-.173,2.42-.988,3.272-2.232.924-1.318,1.401-2.92,1.749-4.312.557-2.23.911-4.582,1.05-6.993l.043-.821c.043-.851.087-1.716.18-2.569.223-1.746.592-3.024,1.199-4.171.671-1.303,1.647-2.259,2.591-3.184.645-.632,1.256-1.228,1.748-1.914.155-.211.281-.413.41-.615,2.021-3.173,2.833-6.612,2.307-9.713-.624-3.643-3.293-6.694-6.49-7.416-.527-.12-1.071-.179-1.615-.179Z"/>
      </g>
    </g>
  </g>
</svg>