<?xml version="1.0" encoding="utf-8"?>
<!-- Generator: Adobe Illustrator 26.5.0, SVG Export Plug-In . SVG Version: 6.00 Build 0)  -->
<svg version="1.1" id="레이어_5" xmlns="http://www.w3.org/2000/svg" xmlns:xlink="http://www.w3.org/1999/xlink" x="0px"
	 y="0px" viewBox="0 0 390 390" style="enable-background:new 0 0 390 390;" xml:space="preserve">
<g>
	<g>
		<path style="fill:#F2B305;" d="M163.1,155.4c-0.9-0.3-1.8-0.6-2.7-0.8c-8.2-1.8-17.2,5.5-23.8,10.4
			c-16.8,12.5-27.2,32.1-20.5,55.4c2.2,7.7,4.7,16.6,10.5,22.5c8.1,8.3,26.2,6.7,25.2-7.4c-0.2-3.4-1.1-7-2.4-10.2
			c-2.2-5.4-5.6-10.1-8-15.3c-3-6.3-3.5-14.4,0.5-20.1c3.9-5.7,8.4-8.4,13.8-12.8c4.6-3.8,9.6-6.6,11.9-12.2
			C169.8,159.9,167.3,157,163.1,155.4z"/>
		<path d="M139.2,249.3c-5,0-10.2-1.9-13.6-5.4c-6-6.1-8.5-14.9-10.7-22.7l-0.1-0.4c-6.2-21.6,1.5-42.3,21-56.8l1.2-0.9
			c6.5-4.9,15.4-11.5,23.6-9.7c1.1,0.2,2,0.5,2.9,0.9l0,0c2.9,1.1,4.8,2.7,5.7,4.7c0.8,1.9,0.7,4.2-0.4,6.7
			c-2.1,4.9-5.9,7.8-9.7,10.7c-0.9,0.7-1.8,1.4-2.7,2.1c-1.2,1-2.4,1.9-3.6,2.8c-3.8,2.9-7.1,5.4-10,9.6c-3.3,4.8-3.5,12.2-0.4,18.7
			c1,2.1,2.2,4.1,3.4,6.3c1.7,2.9,3.4,5.8,4.7,9.1c1.4,3.4,2.3,7.2,2.5,10.6c0.4,5.8-2.2,10.3-7.1,12.5
			C144,248.9,141.6,249.3,139.2,249.3z M157.7,155.7c-6.4,0-13.3,5.2-19,9.5l-1.3,0.9c-18.6,13.9-25.9,33.5-20,53.9l0.1,0.4
			c2.1,7.5,4.6,15.9,10,21.5c4.3,4.4,11.9,5.9,17.4,3.5c2.7-1.2,5.9-3.9,5.5-9.9c-0.2-3.2-1-6.6-2.3-9.8c-1.2-3-2.9-5.9-4.5-8.7
			c-1.2-2.1-2.4-4.2-3.5-6.5c-3.5-7.4-3.3-15.8,0.6-21.4c3.1-4.5,6.6-7.2,10.6-10.3c1.1-0.9,2.3-1.8,3.5-2.8
			c0.9-0.7,1.8-1.4,2.7-2.1c3.6-2.8,7-5.4,8.8-9.6c0.8-1.8,0.9-3.3,0.4-4.5c-0.6-1.3-2-2.4-4.1-3.2l0,0c-0.8-0.3-1.6-0.5-2.6-0.7
			C159.3,155.8,158.5,155.7,157.7,155.7z"/>
	</g>
	<g>
		<path style="fill:#274DA3;" d="M119.1,229c-0.6-1.6-2.6-7.2-3-8.7c-6.7-23.3,3.7-42.8,20.5-55.4c6.6-4.9,15.6-12.2,23.8-10.4
			c1,0.2,1.9,0.5,2.7,0.8c4.2,1.6,6.7,4.4,4.5,9.5c-2.4,5.6-7.3,8.5-11.9,12.2c-8.6,7-19.9,21.2-14.3,32.8c1.2,2.5,2.7,5,4.1,7.5
			l-4.4,0.2c-7,0.3-13.7,3.2-18.7,8.1L119.1,229z"/>
		<path d="M119.1,230.4c-0.1,0-0.2,0-0.3,0c-0.4-0.1-0.8-0.4-1-0.9l-0.7-1.9c-0.9-2.4-2-5.7-2.4-6.8c-6.2-21.6,1.5-42.3,21-56.8
			l1.2-0.9c6.5-4.9,15.4-11.5,23.6-9.7c1.1,0.2,2,0.5,2.9,0.9c2.9,1.1,4.8,2.7,5.7,4.7c0.8,1.9,0.7,4.2-0.4,6.7
			c-2.1,4.9-5.9,7.8-9.7,10.7c-0.9,0.7-1.8,1.4-2.7,2.1c-7.2,5.8-19.3,19.9-13.9,31.2c1,2.1,2.2,4.1,3.4,6.3l0.6,1.1
			c0.2,0.4,0.2,0.9,0,1.3c-0.2,0.4-0.7,0.7-1.1,0.7l-4.4,0.2c-6.7,0.3-13,3-17.8,7.7l-3.3,3.2C119.8,230.3,119.5,230.4,119.1,230.4z
			 M157.7,155.7c-6.4,0-13.3,5.2-19,9.5l-1.3,0.9c-18.6,13.9-25.9,33.5-20,53.9c0.3,1,1.5,4.3,2.3,6.6l1.8-1.7
			c5.3-5.2,12.2-8.2,19.6-8.5l2.1-0.1c-1-1.8-2.1-3.7-3-5.6c-6.1-12.8,6.3-27.7,14.7-34.5c0.9-0.7,1.8-1.4,2.7-2.1
			c3.6-2.8,7-5.4,8.8-9.6c0.8-1.8,0.9-3.3,0.4-4.5c-0.6-1.3-2-2.4-4.1-3.2c-0.8-0.3-1.6-0.5-2.6-0.7
			C159.3,155.8,158.5,155.7,157.7,155.7z"/>
	</g>
	<path d="M114.1,205.7c-0.4,0-0.9-0.2-1.1-0.6c-0.4-0.6-0.3-1.5,0.4-1.9l2.1-1.4c7-4.8,15.6-6.3,23.8-4.3l0.2,0.1
		c0.7,0.2,1.2,0.9,1,1.6c-0.2,0.7-0.9,1.2-1.6,1l-0.2-0.1c-7.4-1.9-15.3-0.5-21.6,3.9l-2.1,1.4C114.6,205.6,114.3,205.7,114.1,205.7
		z"/>
	<g>
		<g>
			<path style="fill:#FFC800;" d="M140.5,160.1c0,0-4.9,3-7,4.8l7.8,7.7l6.6-4.5L140.5,160.1z"/>
			<path d="M141.3,174c-0.3,0-0.7-0.1-1-0.4l-7.8-7.7c-0.3-0.3-0.4-0.6-0.4-1c0-0.4,0.2-0.7,0.5-1c2.1-1.8,6.9-4.8,7.1-4.9
				c0.5-0.3,1.3-0.2,1.7,0.2l7.4,8.1c0.3,0.3,0.4,0.7,0.3,1.1c0,0.4-0.3,0.7-0.6,1l-6.6,4.5C141.8,173.9,141.6,174,141.3,174z
				 M135.6,165l5.9,5.9l4.4-2.9l-5.6-6.1C139.1,162.6,137.1,163.9,135.6,165z"/>
		</g>
		<g>
			<line style="fill:#FFC800;" x1="139.4" y1="164.3" x2="142.1" y2="167"/>
			<path d="M142.1,168.4c-0.4,0-0.7-0.1-1-0.4l-2.6-2.7c-0.5-0.5-0.5-1.4,0-1.9c0.5-0.5,1.4-0.5,1.9,0l2.6,2.7
				c0.5,0.5,0.5,1.4,0,1.9C142.7,168.3,142.4,168.4,142.1,168.4z"/>
		</g>
		<g>
			<path d="M140.5,160.1c0,0,8.1-6.6,13.6-6.9l7.4,8c0,0-10.8,5.1-13.6,7L140.5,160.1z"/>
			<path d="M147.9,169.5c-0.4,0-0.7-0.1-1-0.4l-7.4-8.1c-0.3-0.3-0.4-0.6-0.4-1c0-0.4,0.2-0.7,0.5-1c0.3-0.3,8.5-6.8,14.3-7.2
				c0.4,0,0.8,0.1,1.1,0.4l7.4,8c0.3,0.3,0.4,0.8,0.3,1.2c-0.1,0.4-0.4,0.8-0.7,1c-0.1,0.1-10.8,5.1-13.4,6.9
				C148.4,169.4,148.2,169.5,147.9,169.5z M142.5,160.3l5.7,6.1c2.8-1.6,8.3-4.3,11.1-5.7l-5.7-6.2
				C150,155.1,145.1,158.3,142.5,160.3z"/>
		</g>
	</g>
	<g>
		<path style="fill:#FFC800;" d="M114.3,211.6l3.4-1.9c5.8-3.3,12.3-5.3,19-5.8l2.7-0.2l2,6.3l-3.7,0.3c-6.4,0.6-12.5,2.4-18.1,5.6
			l-4,2.2L114.3,211.6z"/>
		<path d="M115.5,219.5c-0.2,0-0.4,0-0.6-0.1c-0.4-0.2-0.7-0.6-0.8-1l-1.2-6.6c-0.1-0.6,0.2-1.1,0.7-1.4l3.4-1.9
			c6-3.4,12.7-5.4,19.5-5.9l2.7-0.2c0.6-0.1,1.2,0.3,1.4,0.9l2,6.3c0.1,0.4,0.1,0.8-0.2,1.2c-0.2,0.3-0.6,0.6-1,0.6l-3.7,0.3
			c-6.2,0.5-12.1,2.4-17.6,5.4l-4,2.2C116,219.5,115.7,219.5,115.5,219.5z M115.8,212.3l0.7,3.7l2.4-1.3c5.8-3.2,12.1-5.1,18.7-5.7
			l2-0.2l-1.2-3.7l-1.6,0.1c-6.4,0.5-12.8,2.4-18.4,5.6L115.8,212.3z"/>
	</g>
</g>
<g>
	<g>
		<path style="fill:#F2B305;" d="M228.6,155.4c0.9-0.3,1.8-0.6,2.7-0.8c8.2-1.8,17.2,5.5,23.8,10.4c16.8,12.5,27.2,32.1,20.5,55.4
			c-2.2,7.7-4.7,16.6-10.5,22.5c-8.1,8.3-26.2,6.7-25.2-7.4c0.2-3.4,1.1-7,2.4-10.2c2.2-5.4,5.6-10.1,8-15.3
			c3-6.3,3.5-14.4-0.5-20.1c-3.9-5.7-8.4-8.4-13.8-12.8c-4.6-3.8-9.6-6.6-11.9-12.2C221.9,159.9,224.4,157,228.6,155.4z"/>
		<path d="M252.5,249.3c-2.4,0-4.7-0.4-6.8-1.4c-4.9-2.2-7.5-6.8-7.1-12.5c0.2-3.4,1.1-7.2,2.5-10.6c1.3-3.2,3-6.2,4.7-9.1
			c1.2-2.1,2.4-4.2,3.4-6.3c3.1-6.6,3-13.9-0.4-18.7c-2.9-4.2-6.2-6.7-10-9.6c-1.2-0.9-2.4-1.8-3.6-2.8c-0.9-0.7-1.8-1.4-2.7-2.1
			c-3.7-2.9-7.6-5.8-9.7-10.7c-1.1-2.5-1.2-4.7-0.4-6.7c0.9-2,2.8-3.6,5.7-4.7c0.9-0.3,1.9-0.6,2.9-0.9c8.3-1.9,17.1,4.8,23.6,9.7
			l1.3,0.9c19.6,14.6,27.2,35.3,21,56.8l-0.1,0.4c-2.2,7.8-4.8,16.6-10.7,22.7C262.7,247.4,257.5,249.3,252.5,249.3z M234,155.7
			c-0.8,0-1.6,0.1-2.4,0.3c-0.9,0.2-1.8,0.5-2.6,0.7l0,0c-2.2,0.8-3.5,1.9-4.1,3.2c-0.5,1.2-0.4,2.7,0.4,4.5
			c1.8,4.2,5.2,6.8,8.8,9.6c0.9,0.7,1.8,1.4,2.7,2.1c1.2,1,2.4,1.9,3.5,2.8c4,3.1,7.4,5.7,10.5,10.2c3.9,5.6,4.1,14,0.6,21.4
			c-1.1,2.2-2.3,4.4-3.5,6.5c-1.6,2.8-3.3,5.7-4.5,8.7c-1.3,3.1-2.1,6.6-2.3,9.8c-0.4,5.9,2.8,8.6,5.5,9.9
			c5.4,2.4,13.1,0.9,17.4-3.5c5.5-5.6,7.9-14.1,10.1-21.5l0.1-0.4c5.9-20.4-1.4-40.1-20-53.9l-1.3-0.9
			C247.3,160.9,240.4,155.7,234,155.7z M228.6,155.4L228.6,155.4L228.6,155.4z"/>
	</g>
	<g>
		<path style="fill:#274DA3;" d="M272.6,229c0.6-1.6,2.6-7.2,3-8.7c6.7-23.3-3.7-42.8-20.5-55.4c-6.6-4.9-15.6-12.2-23.8-10.4
			c-1,0.2-1.9,0.5-2.7,0.8c-4.2,1.6-6.7,4.4-4.5,9.5c2.4,5.6,7.3,8.5,11.9,12.2c8.6,7,19.9,21.2,14.3,32.8c-1.2,2.5-2.7,5-4.1,7.5
			l4.4,0.2c7,0.3,13.7,3.2,18.7,8.1L272.6,229z"/>
		<path d="M272.6,230.4c-0.4,0-0.7-0.1-0.9-0.4l-3.3-3.2c-4.8-4.7-11.1-7.4-17.8-7.7l-4.4-0.2c-0.5,0-0.9-0.3-1.1-0.7
			c-0.2-0.4-0.2-0.9,0-1.3l0.6-1.1c1.2-2.1,2.4-4.2,3.4-6.3c5.4-11.3-6.8-25.4-13.9-31.2c-0.9-0.7-1.8-1.4-2.7-2.1
			c-3.7-2.9-7.6-5.8-9.7-10.7c-1.1-2.5-1.2-4.7-0.4-6.7c0.9-2,2.8-3.6,5.7-4.7c0.9-0.3,1.9-0.6,2.9-0.9c8.3-1.9,17.1,4.8,23.6,9.7
			l1.3,0.9c19.6,14.6,27.2,35.3,21,56.8c-0.3,1.1-1.5,4.4-2.4,6.8l-0.7,1.9c-0.2,0.4-0.5,0.8-1,0.9
			C272.8,230.4,272.7,230.4,272.6,230.4z M248.5,216.3l2.1,0.1c7.4,0.3,14.3,3.3,19.6,8.5l1.8,1.7c0.8-2.2,2-5.5,2.3-6.6
			c5.9-20.4-1.4-40.1-20-53.9l-1.3-0.9c-6.4-4.8-14.4-10.8-21.4-9.2c-0.9,0.2-1.8,0.5-2.6,0.7c-2.2,0.8-3.5,1.9-4.1,3.2
			c-0.5,1.2-0.4,2.7,0.4,4.5c1.8,4.2,5.2,6.8,8.8,9.6c0.9,0.7,1.8,1.4,2.7,2.1c8.3,6.8,20.8,21.7,14.7,34.5
			C250.6,212.6,249.6,214.4,248.5,216.3z"/>
	</g>
	<path d="M277.7,205.7c-0.3,0-0.5-0.1-0.8-0.2l-2.1-1.4c-6.3-4.3-14.2-5.7-21.6-3.9l-0.2,0.1c-0.7,0.2-1.5-0.3-1.6-1
		c-0.2-0.7,0.3-1.5,1-1.6l0.2-0.1c8.2-2.1,16.8-0.5,23.8,4.3l2.1,1.4c0.6,0.4,0.8,1.3,0.4,1.9C278.5,205.5,278.1,205.7,277.7,205.7z
		"/>
	<g>
		<g>
			<path style="fill:#FFC800;" d="M251.2,160.1c0,0,4.9,3,7,4.8l-7.8,7.7l-6.6-4.5L251.2,160.1z"/>
			<path d="M250.4,174c-0.3,0-0.5-0.1-0.8-0.2l-6.6-4.5c-0.3-0.2-0.5-0.6-0.6-1c0-0.4,0.1-0.8,0.3-1.1l7.4-8.1
				c0.4-0.5,1.2-0.6,1.7-0.2c0.2,0.1,5.1,3.1,7.1,4.9c0.3,0.2,0.5,0.6,0.5,1c0,0.4-0.1,0.7-0.4,1l-7.8,7.7
				C251.1,173.8,250.8,174,250.4,174z M245.9,167.9l4.4,2.9l5.9-5.9c-1.5-1.1-3.5-2.4-4.7-3.1L245.9,167.9z"/>
		</g>
		<g>
			<line style="fill:#FFC800;" x1="252.3" y1="164.3" x2="249.7" y2="167"/>
			<path d="M249.7,168.4c-0.3,0-0.7-0.1-0.9-0.4c-0.5-0.5-0.5-1.4,0-1.9l2.6-2.7c0.5-0.5,1.4-0.5,1.9,0c0.5,0.5,0.5,1.4,0,1.9
				l-2.6,2.7C250.4,168.3,250,168.4,249.7,168.4z"/>
		</g>
		<g>
			<path d="M251.2,160.1c0,0-8.1-6.6-13.6-6.9l-7.4,8c0,0,10.8,5.1,13.6,7L251.2,160.1z"/>
			<path d="M243.8,169.5c-0.3,0-0.5-0.1-0.8-0.2c-2.6-1.8-13.3-6.8-13.4-6.9c-0.4-0.2-0.7-0.5-0.7-1c-0.1-0.4,0-0.9,0.3-1.2l7.4-8
				c0.3-0.3,0.7-0.4,1.1-0.4c5.8,0.4,14,7,14.3,7.2c0.3,0.2,0.5,0.6,0.5,1c0,0.4-0.1,0.7-0.4,1l-7.4,8.1
				C244.5,169.4,244.2,169.5,243.8,169.5z M232.5,160.7c2.8,1.3,8.3,4,11.1,5.7l5.6-6.1c-2.2-1.7-7.3-5.1-11-5.7L232.5,160.7z"/>
		</g>
	</g>
	<g>
		<path style="fill:#FFC800;" d="M277.4,211.6l-3.4-1.9c-5.8-3.3-12.3-5.3-19-5.8l-2.7-0.2l-2,6.3l3.7,0.3
			c6.4,0.6,12.5,2.4,18.1,5.6l4,2.2L277.4,211.6z"/>
		<path d="M276.2,219.5c-0.2,0-0.5-0.1-0.7-0.2l-4-2.2c-5.5-3-11.4-4.8-17.6-5.4l-3.7-0.3c-0.4,0-0.8-0.3-1-0.6
			c-0.2-0.3-0.3-0.8-0.2-1.2l2-6.3c0.2-0.6,0.7-1,1.4-0.9l2.7,0.2c6.8,0.5,13.6,2.6,19.5,5.9l3.4,1.9c0.5,0.3,0.8,0.9,0.7,1.4
			l-1.2,6.6c-0.1,0.4-0.4,0.8-0.8,1C276.6,219.5,276.4,219.5,276.2,219.5z M252.1,208.9l2,0.2c6.6,0.6,12.9,2.5,18.7,5.7l2.4,1.3
			l0.7-3.7l-2.5-1.4c-5.6-3.2-12-5.1-18.4-5.6l-1.6-0.1L252.1,208.9z"/>
	</g>
</g>
<path d="M215.3,238.5c-6-3.1-13.5-4.6-20.9-4.6c-7.4,0-14.9,1.5-20.9,4.6c-7.1,3.7-17.8,16.6-15,24.5c1.1,3,3.8,5.2,6.4,7.1
	c8.2,6.2,16.4,12.2,24.9,18c1.4,1,7.8,1,9.2,0c8.4-5.9,16.7-11.9,24.9-18c2.6-2,5.3-4.1,6.4-7.1
	C233.1,255.1,222.4,242.2,215.3,238.5z"/>
<g>
	<path style="fill:#274DA3;" d="M238.5,172.5c-2.2-6-4.4-12-6.6-18.1h-36.3h-36.3c-2.2,6-4.4,12-6.6,18.1c-2.7,7.3-5.4,15.1-4.5,23
		c0.6,5.6,3,16,5.3,20.8c6.3,13.1,8.4,9.5,14.8,22.5c0,0,10.5,6,27.2,7.1c16.7-1.1,27.2-7.1,27.2-7.1c6.3-13.1,8.4-9.5,14.8-22.5
		c2.3-4.8,4.7-15.2,5.3-20.8C243.8,187.5,241.1,179.7,238.5,172.5z"/>
	<path d="M195.7,247.4c-17-1.1-27.6-7-28-7.3l-0.4-0.2l-0.2-0.4c-3.1-6.4-5.1-8.6-7.2-11c-2.1-2.4-4.4-4.9-7.6-11.6
		c-2.5-5.1-4.8-15.8-5.5-21.3c-1-8.5,2.1-16.9,4.5-23.6l6.9-19h74.4l6.9,19c2.5,6.7,5.5,15.1,4.5,23.6c-0.6,5.4-3,16.2-5.5,21.3
		c-3.2,6.7-5.5,9.2-7.6,11.6c-2.1,2.4-4.1,4.6-7.2,11l-0.2,0.4l-0.4,0.2C223.1,240.3,212.5,246.2,195.7,247.4z M169.4,237.9
		c2,1,11.8,5.8,26.3,6.8c14.3-1,24.2-5.7,26.1-6.8c3.1-6.4,5.3-8.8,7.4-11.2c2.1-2.4,4.1-4.6,7.2-11c2.1-4.4,4.5-14.6,5.2-20.4
		c0.9-7.9-2-15.9-4.4-22.4l-6.3-17.2h-70.6l-6.3,17.2c-2.4,6.5-5.3,14.5-4.4,22.4c0.7,5.8,3.1,16,5.2,20.4c3.1,6.4,5.1,8.6,7.2,11
		C164.1,229.1,166.3,231.5,169.4,237.9z"/>
</g>
<path d="M190.8,185.5c0.2,0.3,0.5,0.5,0.6,0.9c0.1,0.4,0,0.8-0.1,1.1c-1.7,6-3.5,11.9-5.6,17.8c-0.2,0.4-0.3,0.9-0.3,1.4
	c0,0.5,0.3,1,0.5,1.4c1.9,3.6,4,7.1,6.4,10.4c0.3,0.3,0.5,0.7,0.9,0.9c2.9,1.6,6.1-5.7,7.1-7.6c1.3-2.4,2.3-4.4,1.7-7.2
	c-0.5-2.7-2-5-2.8-7.5c-1.1-3-2.5-6.7-2.6-10c0-0.5,0.3-1,0.6-1.4c1.1-1.4,2.2-2.7,3-4.3c0.8-1.6,1.2-3.5,0.6-5.2
	c-1.4-4.2-6.9-4.2-9.6-1.5c-1.1,1.1-2.1,2.8-3,4.2C186.6,181.4,188.9,183.7,190.8,185.5z"/>
<g>
	<path style="fill:#274DA3;" d="M170.7,161.5c-0.1,7.2,5.8,14.7,11.1,18.1c2.2,1.4,2.6,1.7,4.8,0.6c2.7-1.4,5.4-4.4,7.5-6.5
		c2.2,1.9,4.4,6.9,7.2,7.7c3.7,1.1,9.2-5.6,11.4-8.2c3.1-3.8,5.3-8.7,3.7-13.8c-3.3-10.5-14.2-14.6-23.8-14.1
		c-6.8,0.3-15.7,3.4-19.8,9.5C171.3,157.1,170.7,159.3,170.7,161.5z"/>
	<path d="M202.1,183.1c-0.4,0-0.9-0.1-1.3-0.2c-2.2-0.7-3.8-2.9-5.3-5.1c-0.5-0.7-1-1.4-1.5-2c-1.9,2-4.3,4.4-6.9,5.7
		c-2.7,1.4-3.7,0.9-6-0.6c-6-3.9-11.9-11.8-11.9-19.4c0-2.7,0.8-5.1,2.3-7.3c4.4-6.5,13.6-9.7,20.9-10.1c10-0.5,21.6,4,25.1,15.1
		c1.5,4.8,0.2,10-3.9,15.1C210.2,178.4,205.9,183.1,202.1,183.1z M194,172l1,0.8c1,0.8,1.9,2.1,2.8,3.4c1.2,1.7,2.6,3.7,3.9,4.1
		c1.3,0.4,4.1-0.6,9.9-7.8c3.5-4.3,4.7-8.5,3.4-12.5c-3.1-9.7-13.5-13.6-22.4-13.2c-6.6,0.3-14.9,3.2-18.8,8.9
		c-1.2,1.7-1.8,3.7-1.8,5.8l0,0c-0.1,6.6,5.4,13.7,10.5,17c2,1.3,2,1.3,3.4,0.5c2.2-1.1,4.5-3.5,6.4-5.4L194,172z"/>
</g>
<path d="M165.7,197.1c-0.2,0-0.3,0-0.5-0.1l-10.3-3.8c-0.6-0.2-1-0.9-0.9-1.6l1.7-7.9c0.1-0.7,0.8-1.1,1.5-1.1l20.8,2.1
	c0.7,0.1,1.2,0.7,1.2,1.3v7.8c0,0.7-0.5,1.2-1.2,1.3l-12.2,1.7C165.9,197.1,165.8,197.1,165.7,197.1z M157,191.2l8.9,3.2l10.7-1.5
	v-5.4l-18.4-1.9L157,191.2z"/>
<g>
	<g>
		<path style="fill:#F2B305;" d="M253,71.7c-2.2-5.9-4.6-11.8-8.5-16.6c-9.3-11.3-24.7-13-37.9-13c-3.6,0-7.2-0.1-10.8-0.1
			c-3.6,0-7.2,0.1-10.8,0.1c-13.2,0-28.6,1.7-37.9,13c-3.9,4.7-6.2,10.7-8.5,16.6c-6.2,16.2-16.5,40.3-6.8,57
			c11.8,20.6,29.2,33.2,48.2,37.7c5.2,1.2,10.4,1.8,15.8,1.8c5.3,0,10.6-0.6,15.8-1.8c19-4.5,36.4-17.1,48.2-37.7
			C269.5,112,259.3,87.9,253,71.7z"/>
		<path d="M195.9,169.6c-5.5,0-10.9-0.6-16.1-1.9c-20.2-4.8-37.6-18.4-49.1-38.4c-9.4-16.4-0.7-38.9,5.7-55.4l1.1-2.8
			c2.2-5.6,4.6-12,8.7-17c9.8-12,26-13.5,38.9-13.5c2.5,0,5,0,7.5-0.1l3.3,0l3.3,0c2.5,0,5,0.1,7.5,0.1c13,0,29.1,1.6,38.9,13.5
			c4.1,5,6.5,11.3,8.7,17l1.1,2.8c6.4,16.5,15.1,39,5.7,55.4c-11.5,20-28.9,33.6-49.1,38.4C206.8,169,201.4,169.6,195.9,169.6z
			 M195.9,43.4l-3.2,0c-2.5,0-5,0.1-7.5,0.1c-12.4,0-27.7,1.4-36.8,12.5c-3.8,4.6-6.1,10.5-8.2,16.2L139,75
			c-6.2,16-14.6,37.8-5.9,53.1c11.1,19.3,27.9,32.5,47.3,37.1c5,1.2,10.1,1.8,15.4,1.8c5.3,0,10.5-0.6,15.4-1.8
			c19.4-4.6,36.2-17.7,47.3-37.1c8.8-15.2,0.3-37.1-5.9-53.1l-1.1-2.8c0,0,0,0,0,0c-2.2-5.7-4.4-11.6-8.2-16.2
			c-9.1-11.1-24.5-12.5-36.8-12.5c-2.5,0-5,0-7.5-0.1L195.9,43.4z"/>
	</g>
	<g>
		<g>
			<path style="fill-rule:evenodd;clip-rule:evenodd;" d="M178.8,105.9L178.8,105.9c2.9,0,5.2-2.3,5.2-5.2l0-0.7
				c0-2.8-2.4-5.1-5.3-5.1c-2.9,0-5.2,2.3-5.2,5.2l0,0.7C173.5,103.6,175.9,105.9,178.8,105.9"/>
		</g>
	</g>
	
		<ellipse transform="matrix(7.726332e-03 -1 1 7.726332e-03 63.2251 325.844)" style="fill:#FFFFFF;" cx="195.8" cy="131.1" rx="26.9" ry="37.4"/>
	<g>
		<path style="fill-rule:evenodd;clip-rule:evenodd;fill:#FF7F6E;" d="M195.8,110.6c1.7,0,3.3-0.4,5,0c1,0.2,2,0.8,2.6,1.7
			c2,3.4-3.6,5.8-6,6.2c-3.6,0.6-6.9-1-8.7-4.1c-0.2-0.4-0.5-0.8-0.5-1.3c-0.1-0.9,0.7-1.8,1.5-2.2c0.9-0.4,1.8-0.4,2.8-0.4
			C193.6,110.6,194.7,110.6,195.8,110.6z"/>
		<path d="M199.1,110.4c0.6,0,1.2,0,1.7,0.2c1,0.2,2,0.8,2.6,1.7c2,3.4-3.6,5.8-6,6.2c-0.5,0.1-1,0.1-1.5,0.1c-3,0-5.7-1.6-7.2-4.2
			c-0.2-0.4-0.5-0.8-0.5-1.3c-0.1-0.9,0.7-1.8,1.5-2.2c0.9-0.4,1.8-0.4,2.8-0.4c1.1,0,2.3,0,3.4,0
			C196.9,110.6,198,110.4,199.1,110.4 M199.1,107.7L199.1,107.7c-0.6,0-1.2,0-1.9,0.1c-0.5,0-0.9,0.1-1.4,0.1l-0.9,0l-2.6,0
			c-1,0-2.5,0-3.8,0.6c-2,0.9-3.3,2.8-3.1,4.8c0.1,1,0.5,1.9,0.9,2.5c2.1,3.5,5.7,5.5,9.6,5.5c0.6,0,1.3-0.1,1.9-0.2
			c2.2-0.4,6.7-1.9,8.2-5.2c0.8-1.6,0.7-3.4-0.3-5c-0.9-1.5-2.4-2.6-4.3-3C200.7,107.8,200,107.7,199.1,107.7L199.1,107.7z"/>
	</g>
	<g>
		<path d="M184,134.7c-2.2,0-4.5-0.5-6.5-1.4c-2.3-1-6.2-2.7-7.5-6.1c-0.7-2-0.2-4.7,1.7-5.8c0.6-0.4,1.5-0.1,1.8,0.5
			c0.4,0.7,0.1,1.5-0.5,1.8c-0.6,0.4-0.9,1.6-0.5,2.5c0.8,2.3,4.1,3.7,6,4.6c2.2,0.9,4.5,1.3,6.9,1.1c3.6-0.4,8.1-2.5,9.1-7.3
			c0.2-0.7,0.9-1.2,1.6-1.1c0.7,0.2,1.2,0.9,1.1,1.6c-1.3,6.2-7,9-11.5,9.4C185.1,134.6,184.5,134.7,184,134.7z"/>
	</g>
	<g>
		<path d="M208.6,134.7c-0.6,0-1.2,0-1.8-0.1c-4.8-0.5-10.9-3.2-12.3-9.4c-0.2-0.7,0.3-1.5,1-1.6c0.7-0.2,1.5,0.3,1.6,1
			c1,4.5,5.7,6.9,9.9,7.3c2.5,0.3,5.1-0.1,7.5-1.1c2.1-0.8,5.6-2.3,6.5-4.6c0.3-0.9,0.2-2.1-0.6-2.5c-0.7-0.3-0.9-1.2-0.6-1.8
			c0.3-0.7,1.2-0.9,1.8-0.6c2.1,1.1,2.6,3.9,1.9,5.9c-1.3,3.4-5.5,5.1-8,6.1C213.4,134.2,211,134.7,208.6,134.7z"/>
	</g>
	<g>
		<path style="fill:#F2B305;" d="M183.3,44.9c0,0-7.8-10.6-13.2-15s-20.1-15.3-23-14.3c-2.9,1-17.1,30.5-3.6,45.9"/>
		<path d="M143.5,62.9c-0.4,0-0.7-0.2-1-0.5c-8.3-9.4-6.3-23.3-4.3-30.8c2.1-8.2,6.2-16.4,8.5-17.3c4.5-1.6,23.5,13.8,24.4,14.5
			c5.5,4.5,13.1,14.8,13.4,15.2c0.4,0.6,0.3,1.5-0.3,1.9c-0.6,0.4-1.4,0.3-1.9-0.3c-0.1-0.1-7.7-10.5-13-14.7
			c-8.1-6.6-19.7-14.3-21.8-14c-1.1,0.7-6.4,10.1-7.9,21.5c-0.9,6.5-0.8,15.7,5,22.2c0.5,0.6,0.4,1.4-0.1,1.9
			C144.1,62.8,143.8,62.9,143.5,62.9z"/>
	</g>
	<g>
		<path style="fill:#FCD177;" d="M168.6,45.6c0,0-19.6-18.4-20.2-22c-0.5-3.6-8.5,23,1.4,29.2c0,0,2.8-1.8,4.4-2.3
			c0,0-2.4-6.4,3.9-2.5C162.2,50.5,168.6,45.6,168.6,45.6z"/>
		<path d="M149.9,54.1c-0.2,0-0.5-0.1-0.7-0.2c-8.9-5.6-4.9-24.3-3.3-29c0.6-1.7,1.1-3.2,2.5-3.1c0.2,0,1.2,0.2,1.4,1.5
			c0.4,2.1,10.3,12.4,19.7,21.2c0.3,0.3,0.4,0.7,0.4,1.1c0,0.4-0.2,0.8-0.5,1c-0.3,0.2-7.3,5.4-12,2.5c-1.3-0.8-1.9-1-2.2-1
			c0,0.4,0.1,1.3,0.4,1.9c0.1,0.3,0.1,0.7-0.1,1.1c-0.2,0.3-0.5,0.6-0.8,0.7c-1.2,0.4-3.4,1.7-4.1,2.2
			C150.4,54.1,150.2,54.1,149.9,54.1z M148.4,26.2c-1.2,3.8-2.8,12.1-1.6,18.5c0.6,3,1.6,5.1,3.2,6.4c0.7-0.4,1.7-1,2.7-1.5
			c-0.3-1.2-0.3-2.9,0.8-3.8c1.5-1.2,3.8-0.1,5.4,0.9c2.1,1.3,5.5-0.2,7.6-1.4C161.7,40.9,151.8,31.3,148.4,26.2z"/>
	</g>
	<g>
		<path style="fill:#FF7F6E;" d="M155.8,46.8c0,0-5.7-5.5-5.6-10.8"/>
		<path d="M155.8,48.1c-0.3,0-0.7-0.1-0.9-0.4c-0.2-0.2-6.1-6-6-11.8c0-0.7,0.6-1.3,1.4-1.3c0,0,0,0,0,0c0.7,0,1.3,0.6,1.3,1.4
			c-0.1,4.6,5.2,9.8,5.2,9.8c0.5,0.5,0.5,1.4,0,1.9C156.5,48,156.1,48.1,155.8,48.1z"/>
	</g>
	<g>
		<path style="fill:#F2B305;" d="M208.6,44.9c0,0,7.8-10.6,13.2-15c5.4-4.4,20.1-15.3,23-14.3c2.9,1,17.1,30.5,3.6,45.9"/>
		<path d="M248.4,62.9c-0.3,0-0.6-0.1-0.9-0.3c-0.6-0.5-0.6-1.4-0.1-1.9c5.7-6.5,5.9-15.7,5-22.2c-1.6-11.4-6.9-20.8-8.1-21.5
			c-1.9-0.3-13.5,7.5-21.6,14.1c-5.2,4.3-12.9,14.6-13,14.7c-0.4,0.6-1.3,0.7-1.9,0.3c-0.6-0.4-0.7-1.3-0.3-1.9
			c0.3-0.4,7.9-10.7,13.4-15.2c0.8-0.7,19.9-16.1,24.4-14.5c2.3,0.8,6.4,9.1,8.5,17.3c1.9,7.5,3.9,21.4-4.3,30.8
			C249.1,62.8,248.8,62.9,248.4,62.9z"/>
	</g>
	<g>
		<path style="fill:#FCD177;" d="M223.2,45.6c0,0,19.6-18.4,20.2-22c0.5-3.6,8.5,23-1.4,29.2c0,0-2.8-1.8-4.4-2.3
			c0,0,2.4-6.4-3.9-2.5C229.6,50.5,223.2,45.6,223.2,45.6z"/>
		<path d="M241.9,54.1c-0.3,0-0.5-0.1-0.7-0.2c-0.7-0.5-2.9-1.8-4.1-2.2c-0.4-0.1-0.6-0.4-0.8-0.7c-0.2-0.3-0.2-0.7-0.1-1.1
			c0.2-0.7,0.4-1.5,0.4-1.9c-0.3,0-1,0.2-2.2,1c-4.7,3-11.7-2.2-12-2.5c-0.3-0.2-0.5-0.6-0.5-1c0-0.4,0.1-0.8,0.4-1.1
			c9.4-8.8,19.4-19.2,19.7-21.2c0.2-1.3,1.2-1.5,1.4-1.5c1.4-0.1,1.9,1.3,2.5,3.1c1.6,4.7,5.7,23.4-3.3,29
			C242.4,54.1,242.2,54.1,241.9,54.1z M239.1,49.7c1,0.5,2,1.1,2.7,1.5c1.6-1.3,2.7-3.5,3.2-6.4c1.2-6.5-0.4-14.8-1.6-18.5
			c-3.5,5.1-13.4,14.7-18.1,19.2c2.1,1.3,5.5,2.7,7.6,1.4c1.6-1,3.9-2.2,5.4-0.9C239.5,46.8,239.4,48.5,239.1,49.7z"/>
	</g>
	<g>
		<path style="fill:#FF7F6E;" d="M236.1,46.8c0,0,5.7-5.5,5.6-10.8"/>
		<path d="M236.1,48.1c-0.4,0-0.7-0.1-1-0.4c-0.5-0.5-0.5-1.4,0-1.9c0.1-0.1,5.3-5.2,5.2-9.8c0-0.7,0.6-1.4,1.3-1.4c0,0,0,0,0,0
			c0.7,0,1.3,0.6,1.4,1.3c0.1,5.8-5.8,11.6-6,11.8C236.7,48,236.4,48.1,236.1,48.1z"/>
	</g>
	<g>
		<g>
			<path style="fill-rule:evenodd;clip-rule:evenodd;" d="M213.1,105.9L213.1,105.9c-2.9,0-5.2-2.3-5.2-5.2l0-0.7
				c0-2.8,2.4-5.1,5.3-5.1c2.9,0,5.2,2.3,5.2,5.2l0,0.7C218.3,103.6,216,105.9,213.1,105.9"/>
		</g>
	</g>
	<path style="fill-rule:evenodd;clip-rule:evenodd;fill:#583820;" d="M193.2,70.7c-0.1,2.7-0.3,5.9,1.5,7.8c0.3,0.3,0.6,0.5,1,0.6
		c0.9,0.1,1.5-1,1.7-2c1.5-6.2-0.8-13.4,2.3-18.8c0.6-1,1.3-1.8,1.6-2.9c1.8-4.9-8.8-7-9.7-1.9c-0.3,1.9,0.9,4.4,1.2,6.3
		C193.4,63.4,193.4,67.1,193.2,70.7z"/>
	<path style="fill-rule:evenodd;clip-rule:evenodd;fill:#583820;" d="M145,99.9c1.8,0.1,3.2,1,3.9,3.1c0.5,1.7-0.4,3.8-2,4.3
		c-0.8,0.3-1.7,0.2-2.5,0.2c-1.5,0-3,0.5-4.3,1.3c-1.7,1.1-3.5,2.9-5.3,2.1c-1.4-0.6-1.8-2.5-1.4-4c0.4-1.5,1.6-2.6,2.7-3.6
		C138,101.7,142,99.7,145,99.9z"/>
	<path style="fill-rule:evenodd;clip-rule:evenodd;fill:#583820;" d="M138.9,115c-0.4,0.2-0.8,0.5-1.1,0.8c-1.1,1.1-2.8,3.6-2.1,5.3
		c0.2,0.4,0.5,0.7,0.8,0.9c0.8,0.4,1.9,0.7,2.8,0.3c0.7-0.3,1.2-0.9,1.8-1.2c0.6-0.4,1.3-0.6,1.9-0.8c1.3-0.5,2.8-1,3.7-2.3
		c0.2-0.3,0.4-0.7,0.5-1.2c0.3-2.6-2.2-3.2-4.1-3.1C141.6,113.9,140.2,114.2,138.9,115z"/>
	<path style="fill-rule:evenodd;clip-rule:evenodd;fill:#583820;" d="M182.6,55.7c-0.4,0-0.9,0.1-1.3,0.2c-1.4,0.4-4,1.8-4.1,3.7
		c0,0.4,0.1,0.8,0.4,1.2c0.5,0.8,1.4,1.6,2.3,1.6c0.7,0.1,1.4-0.2,2.1-0.2c0.7,0,1.4,0.1,2.1,0.2c1.4,0.2,2.9,0.5,4.3-0.2
		c0.4-0.2,0.7-0.4,0.9-0.8c1.4-2.2-0.6-3.9-2.4-4.7C185.6,56.1,184.1,55.7,182.6,55.7z"/>
	<path style="fill-rule:evenodd;clip-rule:evenodd;fill:#583820;" d="M141.4,126.8c-0.5,0.7-0.9,1.7-0.6,2.6
		c0.3,0.8,1.1,1.4,1.9,1.5c0.8,0.1,1.6-0.1,2.4-0.4c0.7-0.2,1.4-0.5,2-1c0.6-0.5,1.1-1.2,1.1-2c0.2-1.5-1.1-2.9-2.4-2.9
		C144.2,124.5,142.5,125.3,141.4,126.8z"/>
	<path style="fill-rule:evenodd;clip-rule:evenodd;fill:#583820;" d="M150.4,109.4c-0.5,0.7-0.9,1.7-0.6,2.6
		c0.3,0.8,1.1,1.4,1.9,1.5c0.8,0.1,1.6-0.1,2.4-0.4c0.7-0.2,1.4-0.5,2-1s1.1-1.2,1.1-2c0.2-1.5-1.1-2.9-2.4-2.9
		C153.2,107.2,151.5,108,150.4,109.4z"/>
	<path style="fill-rule:evenodd;clip-rule:evenodd;fill:#583820;" d="M246.9,99.9c-1.8,0.1-3.2,1-3.9,3.1c-0.5,1.7,0.4,3.8,2,4.3
		c0.8,0.3,1.7,0.2,2.5,0.2c1.5,0,3,0.5,4.3,1.3c1.7,1.1,3.5,2.9,5.3,2.1c1.4-0.6,1.8-2.5,1.4-4c-0.4-1.5-1.6-2.6-2.7-3.6
		C254,101.7,250,99.7,246.9,99.9z"/>
	<path style="fill-rule:evenodd;clip-rule:evenodd;fill:#583820;" d="M253.1,115c0.4,0.2,0.8,0.5,1.1,0.8c1.1,1.1,2.8,3.6,2.1,5.3
		c-0.2,0.4-0.5,0.7-0.8,0.9c-0.8,0.4-1.9,0.7-2.8,0.3c-0.7-0.3-1.2-0.9-1.8-1.2c-0.6-0.4-1.3-0.6-1.9-0.8c-1.3-0.5-2.8-1-3.7-2.3
		c-0.2-0.3-0.4-0.7-0.5-1.2c-0.3-2.6,2.2-3.2,4.1-3.1C250.3,113.9,251.8,114.2,253.1,115z"/>
	<path style="fill-rule:evenodd;clip-rule:evenodd;fill:#583820;" d="M250.6,126.8c0.5,0.7,0.9,1.7,0.6,2.6
		c-0.3,0.8-1.1,1.4-1.9,1.5c-0.8,0.1-1.6-0.1-2.4-0.4c-0.7-0.2-1.4-0.5-2-1c-0.6-0.5-1.1-1.2-1.1-2c-0.2-1.5,1.1-2.9,2.4-2.9
		C247.8,124.5,249.5,125.3,250.6,126.8z"/>
	<path style="fill-rule:evenodd;clip-rule:evenodd;fill:#583820;" d="M241.6,109.4c0.5,0.7,0.9,1.7,0.6,2.6
		c-0.3,0.8-1.1,1.4-1.9,1.5c-0.8,0.1-1.6-0.1-2.4-0.4c-0.7-0.2-1.4-0.5-2-1s-1.1-1.2-1.1-2c-0.2-1.5,1.1-2.9,2.4-2.9
		C238.8,107.2,240.5,108,241.6,109.4z"/>
	<path style="fill-rule:evenodd;clip-rule:evenodd;fill:#583820;" d="M211,53.1c0.6-0.1,1.1-0.2,1.7-0.3c0.3-0.1,0.5-0.2,0.7-0.4
		c0.3-0.3,0.3-0.8,0.2-1.3c-0.3-1.5-1.5-2.5-2.8-3.2c-1.5-0.7-3-0.9-4.5-0.8c-1.1,0-2.5-0.1-3.3,0.8c-0.8,0.9-0.5,2.4,0.2,3.2
		c0.8,0.9,1.9,1.3,3,1.5C207.8,53,209.4,53.2,211,53.1z"/>
	<path style="fill-rule:evenodd;clip-rule:evenodd;fill:#583820;" d="M210.5,62.6c-0.5-4.4-7.8-4.6-8.5-0.3
		c-0.1,0.3-0.1,0.7,0.1,0.9c0.1,0.3,0.3,0.4,0.5,0.6c0.9,0.8,2,1.4,3.2,1.7c1,0.3,2.2,0.3,3.1-0.2C209.8,64.9,210.6,63.8,210.5,62.6
		z"/>
	<path style="fill-rule:evenodd;clip-rule:evenodd;fill:#583820;" d="M189.1,53.2c1.3-0.5,2.6-2.3,1.9-3.7c-0.7-1.5-3.5-1.7-4.8-1.6
		c-1.1,0-2.2,0.3-2.9,1.2c-0.7,0.8-0.9,2.3-0.1,3.1c0.3,0.3,0.7,0.5,1.1,0.6c0.6,0.2,1.3,0.4,1.9,0.6
		C187.1,53.4,188.1,53.5,189.1,53.2z"/>
	<path style="fill-rule:evenodd;clip-rule:evenodd;fill:#583820;" d="M188.9,72.2c1-0.4,2.1-1.8,1.5-3.1c-0.6-1.2-2.9-1.4-3.9-1.3
		c-0.9,0-1.8,0.3-2.4,1c-0.6,0.7-0.7,1.9-0.1,2.5c0.2,0.2,0.6,0.4,0.9,0.5c0.5,0.2,1,0.3,1.6,0.4C187.3,72.4,188.1,72.5,188.9,72.2z
		"/>
</g>
<g>
	<g>
		<path style="fill:#76490D;" d="M223.7,237.5c0,3.8-0.3,7.3-0.3,11.1c-5,6.7-13.7,8.3-21.7,8.9c-9.8,0.7-20.1,0.4-28.9-4.3
			c-1.7-0.9-3.3-2-4.4-3.6c-2.4-3.5-1.8-8.3-1.1-12.6c15.1-0.6,30.8-1.7,45.9-2.3C216.6,234.6,220.6,236.1,223.7,237.5z"/>
		<path d="M194.3,259.1c-7.2,0-15.1-1-22.1-4.7c-1.6-0.8-3.5-2-4.9-4c-2.7-3.8-2.1-9-1.3-13.6l0.2-1.1l1.1,0
			c7.5-0.3,15.2-0.7,22.9-1.2c7.7-0.4,15.4-0.8,22.9-1.2c3.6-0.1,7.7,1.3,11.2,2.8l0.8,0.4v0.9c0,1.9-0.1,3.8-0.2,5.6
			c-0.1,1.8-0.2,3.6-0.2,5.5v0.4l-0.3,0.4c-5.5,7.3-15,8.9-22.7,9.4C199.5,259,197,259.1,194.3,259.1z M168.5,238.4
			c-0.6,3.9-0.9,7.7,1.1,10.5c1,1.5,2.7,2.4,4,3.1c9,4.8,19.8,4.7,28.2,4.1c7-0.5,15.6-1.9,20.4-8c0-1.7,0.1-3.4,0.2-5.1
			c0.1-1.5,0.1-3,0.2-4.6c-3-1.2-6.3-2.4-9.2-2.3c-7.5,0.3-15.2,0.7-22.9,1.2C183,237.6,175.7,238,168.5,238.4z"/>
	</g>
	<g>
		<path style="fill:#898989;" d="M200.9,243.4H188c-1.6,0-2.8,1.4-2.8,3.1v8.5c0,1.7,1.3,3.1,2.8,3.1h12.9c1.6,0,2.8-1.4,2.8-3.1
			v-8.5C203.7,244.8,202.5,243.4,200.9,243.4z M199.6,252.6c0,0.8-0.7,1.5-1.5,1.5h-7.3c-0.9,0-1.5-0.7-1.5-1.5v-3.8
			c0-0.8,0.7-1.5,1.5-1.5h7.3c0.9,0,1.5,0.7,1.5,1.5V252.6z"/>
		<path d="M200.9,259.4H188c-2.3,0-4.2-2-4.2-4.4v-8.5c0-2.4,1.9-4.4,4.2-4.4h12.9c2.3,0,4.2,2,4.2,4.4v8.5
			C205.1,257.4,203.2,259.4,200.9,259.4z M188,244.8c-0.8,0-1.5,0.8-1.5,1.7v8.5c0,0.9,0.7,1.7,1.5,1.7h12.9c0.8,0,1.5-0.8,1.5-1.7
			v-8.5c0-0.9-0.7-1.7-1.5-1.7H188z M198.1,255.4h-7.3c-1.6,0-2.9-1.3-2.9-2.8v-3.8c0-1.5,1.3-2.8,2.9-2.8h7.3
			c1.6,0,2.9,1.3,2.9,2.8v3.8C201,254.2,199.7,255.4,198.1,255.4z M190.8,248.7l-0.2,3.9l7.5,0.1l0.2-0.1v-3.8L190.8,248.7z"/>
	</g>
	<g>
		<path style="fill:#898989;" d="M206,252.4h-8.1c-0.4,0-0.7-0.3-0.7-0.7v-1.9c0-0.4,0.3-0.7,0.7-0.7h8.1c0.4,0,0.7,0.3,0.7,0.7v1.9
			C206.7,252,206.4,252.4,206,252.4z"/>
		<path d="M205.1,253.7h-6.3c-1.6,0-2.9-1.3-2.9-2.9c0-1.7,1.3-3.1,2.9-3.1h6.3c1.6,0,2.9,1.3,2.9,2.9
			C208,252.4,206.7,253.7,205.1,253.7z M198.8,250.4c-0.1,0-0.2,0.1-0.2,0.2c0,0.2,0.1,0.3,0.2,0.3h6.3c0.1,0,0.2-0.1,0.2-0.2
			c0-0.2-0.1-0.3-0.2-0.3H198.8z"/>
	</g>
</g>
<g>
	<path d="M160.1,312.6c1.4,5.9,3.1,11.7,4.1,17.7c1.8,11.4,0.6,23-0.5,34.5c7,2.1,14.5,2.7,21.7,1.6c1.7-22.5,3.4-44.9,5.1-67.4
		c0.6-8.5,1.3-17.1-0.4-25.5c-1.7-8.3-6.2-16.4-13.4-20.1C145.5,237.4,156.9,299.2,160.1,312.6z"/>
	<g>
		<path style="fill:#76490D;" d="M158.9,385.2c-4,0-6.9-3.9-6-8.1c1.8-8.6,6.8-21,20.1-21c12.9,0,19.3,11.7,22.2,20.3
			c1.4,4.3-1.6,8.8-5.8,8.8H158.9z"/>
		<path d="M189.5,386.6h-30.5c-2.2,0-4.3-1-5.7-2.8c-1.6-1.9-2.2-4.5-1.6-7c3.1-14.2,10.7-22,21.4-22c10.5,0,18.8,7.5,23.4,21.2
			c0.8,2.5,0.4,5.3-1.1,7.4C194,385.4,191.8,386.6,189.5,386.6z M173.1,357.5c-12,0-16.8,10.8-18.8,19.9c-0.4,1.7,0,3.4,1.1,4.7
			c0.9,1.1,2.2,1.8,3.6,1.8h30.5c1.5,0,2.9-0.7,3.8-2c1-1.4,1.3-3.3,0.7-5C191,368,184.9,357.5,173.1,357.5z"/>
	</g>
</g>
<g>
	<path d="M229.1,312.6c-1.4,5.9-3.1,11.7-4.1,17.7c-1.8,11.4-0.6,23,0.5,34.5c-7,2.1-14.5,2.7-21.7,1.6c-1.7-22.5-3.4-44.9-5.1-67.4
		c-0.6-8.5-1.3-17.1,0.4-25.5c1.7-8.3,6.2-16.4,13.4-20.1C243.7,237.4,232.3,299.2,229.1,312.6z"/>
	<g>
		<path style="fill:#76490D;" d="M232.8,385.2c4,0,6.9-3.9,6-8.1c-1.8-8.6-6.8-21-20.1-21c-12.9,0-19.3,11.7-22.2,20.3
			c-1.4,4.3,1.6,8.8,5.8,8.8H232.8z"/>
		<path d="M232.8,386.6h-30.5c-2.4,0-4.5-1.1-6-3.1c-1.5-2.1-1.9-4.9-1.1-7.4c4.6-13.7,12.9-21.2,23.4-21.2c10.8,0,18.4,7.8,21.4,22
			c0.5,2.5-0.1,5-1.6,7C237,385.6,235,386.6,232.8,386.6z M218.6,357.5c-11.8,0-17.9,10.5-20.9,19.4c-0.6,1.7-0.3,3.5,0.7,5
			c0.9,1.3,2.3,2,3.8,2h30.5c1.4,0,2.7-0.6,3.6-1.8c1-1.3,1.4-3,1.1-4.7C235.5,368.3,230.6,357.5,218.6,357.5z"/>
	</g>
</g>
<g>
	<g>
		<path style="fill:#FFCC00;" d="M237.5,179.7c-11,0.4-14.3-3.9-14.3-3.9s-3,4.6-13.9,5c0,0,0.8,26.5,15.1,25.9
			S237.5,179.7,237.5,179.7z"/>
		<path d="M223.9,208.1c-3,0-5.7-1.1-7.9-3.2c-7.5-7-8.1-23.4-8.1-24.1c0-0.7,0.6-1.4,1.3-1.4c10-0.4,12.8-4.4,12.9-4.4
			c0.2-0.4,0.7-0.6,1.1-0.6c0.4,0,0.9,0.2,1.1,0.5c0,0,3.2,3.8,13.2,3.4c0.8-0.1,1.4,0.6,1.4,1.3c0,0.7,0.7,17-6.3,24.6
			c-2.2,2.4-5,3.7-8.2,3.8C224.2,208.1,224.1,208.1,223.9,208.1z M210.7,182c0.3,3.9,1.6,15.7,7.2,20.9c1.9,1.7,4,2.5,6.5,2.4
			c2.5-0.1,4.5-1.1,6.3-2.9c5.1-5.6,5.6-17.4,5.6-21.3c-7.4,0-11.2-2.1-12.9-3.4C221.6,179.1,217.9,181.5,210.7,182z"/>
	</g>
	<g>
		<path style="fill:#C17100;" d="M229.2,194.9c0.1,2.7-2.3,3.4-5.2,3.5s-5.3-0.4-5.4-3.1s2.2-4.9,5.1-5S229.1,192.2,229.2,194.9z"/>
		<g>
			
				<ellipse transform="matrix(0.9993 -3.796101e-02 3.796101e-02 0.9993 -7.0605 8.3807)" style="fill:#C17100;" cx="217.2" cy="190.1" rx="1.7" ry="2"/>
			
				<ellipse transform="matrix(0.9993 -3.796101e-02 3.796101e-02 0.9993 -7.0321 8.8782)" style="fill:#C17100;" cx="230.3" cy="189.6" rx="1.7" ry="2"/>
		</g>
		<g>
			
				<ellipse transform="matrix(0.9993 -3.796101e-02 3.796101e-02 0.9993 -6.944 8.5289)" style="fill:#C17100;" cx="221.1" cy="187.1" rx="1.7" ry="2"/>
			
				<ellipse transform="matrix(0.9993 -3.796101e-02 3.796101e-02 0.9993 -6.9333 8.7178)" style="fill:#C17100;" cx="226.1" cy="186.9" rx="1.7" ry="2"/>
		</g>
	</g>
</g>
<g>
	<g>
		<g>
			<polygon style="fill:#ECE0C6;" points="246.8,208.2 195,208.2 143.2,208.2 111.4,244.5 195,244.5 278.6,244.5 			"/>
			<path d="M278.6,245.8H111.4c-0.5,0-1-0.3-1.2-0.8c-0.2-0.5-0.1-1.1,0.2-1.5l31.8-36.3c0.3-0.3,0.6-0.5,1-0.5h103.6
				c0.4,0,0.8,0.2,1,0.5l31.8,36.3c0.4,0.4,0.4,1,0.2,1.5C279.6,245.5,279.1,245.8,278.6,245.8z M114.4,243.1h161.2l-29.4-33.6
				H143.8L114.4,243.1z"/>
		</g>
		<g>
			<rect x="111.4" y="244.5" style="fill:#ECE0C6;" width="167.1" height="5.4"/>
			<path d="M278.6,251.2H111.4c-0.7,0-1.4-0.6-1.4-1.4v-5.4c0-0.7,0.6-1.4,1.4-1.4h167.1c0.7,0,1.4,0.6,1.4,1.4v5.4
				C279.9,250.6,279.3,251.2,278.6,251.2z M112.8,248.5h164.4v-2.7H112.8V248.5z"/>
		</g>
	</g>
	<g>
		<path d="M192.3,176.2c26.4,0,48,6.2,49.6,14c0.1-0.2,0.1-0.5,0.1-0.7v1.5v18.4v4.6v2.1v2.5v9.2c0,6.2-22.2,11.3-49.7,11.3
			c-27.4,0-49.7-5-49.7-11.3v-9.2v-2.4v-2.2v-4.6v-18.4v-1.5c0,0.2,0,0.5,0.1,0.7C144.3,182.4,165.9,176.2,192.3,176.2 M192.3,173.5
			c-24.2,0-49.9,5.5-52.2,16.1l-0.2,0v1.5v18.4v4.6v2.2v2.4v9.2c0,4.6,5.4,8.1,16.7,10.6c9.6,2.2,22.3,3.4,35.7,3.4
			c13.5,0,26.1-1.2,35.7-3.4c11.2-2.5,16.7-6,16.7-10.6v-9.2v-2.5v-2.1v-4.6v-18.4v-1.5h-0.2C242.2,179,216.6,173.5,192.3,173.5
			L192.3,173.5z"/>
		<g>
			<g id="Page-1_158_">
				<g>
					<g>
						<path style="fill:#FD6363;" d="M192.3,230c27.4,0,49.7-5,49.7-11.3v9.2c0,6.2-22.2,11.3-49.7,11.3c-27.4,0-49.7-5-49.7-11.3
							v-9.2C142.7,225,164.9,230,192.3,230z"/>
						<path style="fill:#FD6363;" d="M192.3,200.8c27.4,0,49.7-5,49.7-11.3v20c0,6.2-22.2,11.3-49.7,11.3c-27.4,0-49.7-5-49.7-11.3
							v-20C142.7,195.8,164.9,200.8,192.3,200.8z"/>
						<g>
							<path style="fill:#FD7F7F;" d="M192.3,220.8c-27.4,0-49.7-5-49.7-11.3v4.6c0,6.2,22.2,11.3,49.7,11.3
								c27.4,0,49.7-5,49.7-11.3v-4.6C242,215.7,219.8,220.8,192.3,220.8z"/>
							<path style="fill:#FDD2BB;" d="M192.3,225.4c-27.4,0-49.7-5-49.7-11.3v4.6c0,6.2,22.2,11.3,49.7,11.3
								c27.4,0,49.7-5,49.7-11.3v-4.6C242,220.3,219.8,225.4,192.3,225.4z"/>
						</g>
					</g>
					<path style="fill:#F5C4C4;" d="M192.3,204.3c27.4,0,49.7-5.9,49.7-13.2v25.1c-0.4,0.2-0.8,0.3-1.3,0.2
						c-1.5-0.2-2.6-1.4-3.2-2.6c-0.6-1.2-0.8-2.5-1.4-3.7c-0.6-1.2-1.8-2.3-3.3-2.4c-4.2-0.2-4.6,5.2-4.8,7.7
						c-0.4,5.1,0.7,12.7-6.2,15.1c-3.5,1.2-7.3-0.3-9.3-2.9c-1.7-2.2-2.1-4.5-2.6-7c-0.5-2.4-0.1-6.2-1-8.5c-0.6-1.6-2.8-2.4-5-2.5
						c-1.9-0.1-3.8,0.7-4.1,2.4c-0.7,3.7,0.7,9.6-4.3,11.5c-1.8,0.7-4.1,0-5.5-1.2c-1.4-1.3-2-3-2.4-4.7c-0.6-2.8-0.9-5.8-3.3-8
						c-1.4-1.3-3.5-2.1-5.5-1.9c-2.8,0.3-5.1,2.4-6.3,4.5c-1.6,2.6-2.2,5.6-3.9,8.1c-1.7,2.5-5.2,4.6-8.4,3.7c-3.2-0.9-4.6-4.1-5-7
						c-0.3-1.9-0.8-11.1-5.7-8.8c-1.4,0.6-2,2-2.3,3.3c-0.4,1.3-0.6,2.7-1.5,3.7c-0.6,0.7-1.7,1.1-2.7,1.1v-25.2
						C142.7,198.4,164.9,204.3,192.3,204.3z"/>
					<ellipse style="fill:#FFFFFF;" cx="192.3" cy="191.1" rx="49.7" ry="14.9"/>
				</g>
			</g>
		</g>
		<g>
			<g>
				<g>
					<path style="fill:#FD2B4E;" d="M173.8,185.1c0,0,12,1.1,12.3-6.8c0.3-7.9-7.7-18.1-11-18.3c-3.3-0.2-12.3,9.1-12.8,17
						C161.8,184.9,173.8,185.1,173.8,185.1z"/>
					<path d="M175.1,160C175.1,160,175.1,160,175.1,160c3.4,0.2,11.3,10.4,11.1,18.3c-0.2,6.2-7.6,6.9-10.8,6.9
						c-0.9,0-1.5-0.1-1.5-0.1s-12.1-0.2-11.5-8C162.9,169.2,171.7,160,175.1,160 M175.1,157.3c-5.3,0-14.8,10.9-15.4,19.5
						c-0.2,2.5,0.6,4.8,2.2,6.6c3.7,4,10.7,4.4,11.9,4.4c0.2,0,0.8,0.1,1.6,0.1c8.3,0,13.4-3.5,13.5-9.5c0.2-7.5-7.4-20.7-13.6-21
						l-0.1,0L175.1,157.3L175.1,157.3z"/>
				</g>
				<g>
					<path style="fill:#E72A47;" d="M178.2,161.7c-1.1-1-2.2-1.6-3-1.7c-3.3-0.2-12.3,9.1-12.8,17c-0.2,3.2,1.6,5.6,6.1,7.2
						c-0.2-0.4-0.4-0.9-0.4-1.4c-0.1-0.5,0-1.1,0-1.6c0,0,0,0,0,0C168,175.6,170.9,167.9,178.2,161.7z"/>
				</g>
				<g>
					<g>
						<path style="fill:#FD5C4F;" d="M182.2,174.7c0-0.4,0.2-0.8,0.5-0.7c0.3,0,0.4,0.4,0.4,0.8c0,0.4-0.2,0.8-0.5,0.7
							C182.4,175.5,182.2,175.2,182.2,174.7z"/>
						<path style="fill:#FD5C4F;" d="M176.6,174.5c0-0.4,0.2-0.8,0.5-0.7c0.3,0,0.4,0.4,0.4,0.8c0,0.4-0.2,0.8-0.5,0.7
							C176.8,175.3,176.6,174.9,176.6,174.5z"/>
						<path style="fill:#FD5C4F;" d="M171,174.2c0-0.4,0.2-0.8,0.5-0.7c0.3,0,0.4,0.4,0.4,0.8s-0.2,0.8-0.5,0.7
							C171.2,175,171,174.7,171,174.2z"/>
						<path style="fill:#FD5C4F;" d="M165.5,174c0-0.4,0.2-0.8,0.5-0.7c0.3,0,0.4,0.4,0.4,0.8c0,0.4-0.2,0.8-0.5,0.7
							C165.6,174.7,165.4,174.4,165.5,174z"/>
					</g>
					<g>
						<path style="fill:#FD5C4F;" d="M177,166.9c0-0.4,0.2-0.8,0.5-0.7c0.3,0,0.4,0.4,0.4,0.8s-0.2,0.8-0.5,0.7
							C177.2,167.7,177,167.4,177,166.9z"/>
						<path style="fill:#FD5C4F;" d="M171.4,166.7c0-0.4,0.2-0.8,0.5-0.7c0.3,0,0.4,0.4,0.4,0.8c0,0.4-0.2,0.8-0.5,0.7
							C171.6,167.5,171.4,167.1,171.4,166.7z"/>
					</g>
					<g>
						<path style="fill:#FD5C4F;" d="M179.3,178c0-0.4,0.2-0.8,0.5-0.7c0.3,0,0.4,0.4,0.4,0.8c0,0.4-0.2,0.8-0.5,0.7
							C179.4,178.7,179.3,178.4,179.3,178z"/>
						<path style="fill:#FD5C4F;" d="M173.7,177.7c0-0.4,0.2-0.8,0.5-0.7c0.3,0,0.4,0.4,0.4,0.8c0,0.4-0.2,0.8-0.5,0.7
							C173.8,178.5,173.7,178.1,173.7,177.7z"/>
						<path style="fill:#FD5C4F;" d="M168.1,177.5c0-0.4,0.2-0.8,0.5-0.7c0.3,0,0.4,0.4,0.4,0.8c0,0.4-0.2,0.8-0.5,0.7
							C168.3,178.3,168.1,177.9,168.1,177.5z"/>
					</g>
					<g>
						<path style="fill:#FD5C4F;" d="M179.6,171c0-0.4,0.2-0.8,0.5-0.7c0.3,0,0.4,0.4,0.4,0.8c0,0.4-0.2,0.8-0.5,0.7
							C179.8,171.8,179.6,171.4,179.6,171z"/>
						<path style="fill:#FD5C4F;" d="M174,170.7c0-0.4,0.2-0.8,0.5-0.7c0.3,0,0.4,0.4,0.4,0.8c0,0.4-0.2,0.8-0.5,0.7
							C174.2,171.5,174,171.2,174,170.7z"/>
						<path style="fill:#FD5C4F;" d="M168.4,170.5c0-0.4,0.2-0.8,0.5-0.7c0.3,0,0.4,0.4,0.4,0.8c0,0.4-0.2,0.8-0.5,0.7
							C168.6,171.3,168.4,170.9,168.4,170.5z"/>
					</g>
					<g>
						<path style="fill:#FD5C4F;" d="M174.4,163.2c0-0.4,0.2-0.8,0.5-0.7c0.3,0,0.4,0.4,0.4,0.8c0,0.4-0.2,0.8-0.5,0.7
							C174.6,164,174.4,163.6,174.4,163.2z"/>
					</g>
				</g>
			</g>
			<g>
				<g>
					<path style="fill:#FD2B4E;" d="M190.4,184.6c0,0,12,1.1,12.3-6.8c0.3-7.9-7.7-18.1-11-18.3c-3.3-0.2-12.3,9.1-12.8,17
						C178.3,184.4,190.4,184.6,190.4,184.6z"/>
					<path d="M191.6,159.5C191.6,159.5,191.7,159.5,191.6,159.5c3.4,0.2,11.3,10.4,11.1,18.3c-0.2,6.2-7.6,6.9-10.8,6.9
						c-0.9,0-1.5-0.1-1.5-0.1s-12.1-0.2-11.5-8C179.4,168.7,188.2,159.5,191.6,159.5 M191.6,156.8c-5.3,0-14.8,10.9-15.4,19.5
						c-0.2,2.5,0.6,4.8,2.2,6.6c3.7,4,10.7,4.4,11.9,4.4c0.2,0,0.8,0.1,1.6,0.1c8.3,0,13.4-3.5,13.5-9.5c0.2-7.5-7.4-20.7-13.6-21
						l-0.1,0L191.6,156.8L191.6,156.8z"/>
				</g>
				<g>
					<path style="fill:#E72A47;" d="M194.7,161.2c-1.1-1-2.2-1.6-3-1.7c-3.3-0.2-12.3,9.1-12.8,17c-0.2,3.2,1.6,5.6,6.1,7.2
						c-0.2-0.4-0.4-0.9-0.4-1.4c-0.1-0.5,0-1.1,0-1.6c0,0,0,0,0,0C184.6,175.1,187.4,167.4,194.7,161.2z"/>
				</g>
				<g>
					<g>
						<path style="fill:#FD5C4F;" d="M198.8,174.2c0-0.4,0.2-0.8,0.5-0.7c0.3,0,0.4,0.4,0.4,0.8c0,0.4-0.2,0.8-0.5,0.7
							C198.9,175,198.7,174.6,198.8,174.2z"/>
						<path style="fill:#FD5C4F;" d="M193.2,174c0-0.4,0.2-0.8,0.5-0.7c0.3,0,0.4,0.4,0.4,0.8c0,0.4-0.2,0.8-0.5,0.7
							C193.3,174.8,193.2,174.4,193.2,174z"/>
						<path style="fill:#FD5C4F;" d="M187.6,173.7c0-0.4,0.2-0.8,0.5-0.7c0.3,0,0.4,0.4,0.4,0.8c0,0.4-0.2,0.8-0.5,0.7
							C187.7,174.5,187.6,174.2,187.6,173.7z"/>
						<path style="fill:#FD5C4F;" d="M182,173.5c0-0.4,0.2-0.8,0.5-0.7c0.3,0,0.4,0.4,0.4,0.8c0,0.4-0.2,0.8-0.5,0.7
							C182.2,174.2,182,173.9,182,173.5z"/>
					</g>
					<g>
						<path style="fill:#FD5C4F;" d="M193.5,166.4c0-0.4,0.2-0.8,0.5-0.7c0.3,0,0.4,0.4,0.4,0.8c0,0.4-0.2,0.8-0.5,0.7
							C193.7,167.2,193.5,166.8,193.5,166.4z"/>
						<path style="fill:#FD5C4F;" d="M188,166.2c0-0.4,0.2-0.8,0.5-0.7c0.3,0,0.4,0.4,0.4,0.8c0,0.4-0.2,0.8-0.5,0.7
							C188.1,167,187.9,166.6,188,166.2z"/>
					</g>
					<g>
						<path style="fill:#FD5C4F;" d="M195.8,177.4c0-0.4,0.2-0.8,0.5-0.7c0.3,0,0.4,0.4,0.4,0.8c0,0.4-0.2,0.8-0.5,0.7
							C196,178.2,195.8,177.9,195.8,177.4z"/>
						<path style="fill:#FD5C4F;" d="M190.2,177.2c0-0.4,0.2-0.8,0.5-0.7c0.3,0,0.4,0.4,0.4,0.8c0,0.4-0.2,0.8-0.5,0.7
							C190.4,178,190.2,177.6,190.2,177.2z"/>
						<path style="fill:#FD5C4F;" d="M184.6,177c0-0.4,0.2-0.8,0.5-0.7c0.3,0,0.4,0.4,0.4,0.8c0,0.4-0.2,0.8-0.5,0.7
							C184.8,177.8,184.6,177.4,184.6,177z"/>
					</g>
					<g>
						<path style="fill:#FD5C4F;" d="M196.2,170.5c0-0.4,0.2-0.8,0.5-0.7c0.3,0,0.4,0.4,0.4,0.8c0,0.4-0.2,0.8-0.5,0.7
							C196.3,171.3,196.1,170.9,196.2,170.5z"/>
						<path style="fill:#FD5C4F;" d="M190.6,170.2c0-0.4,0.2-0.8,0.5-0.7c0.3,0,0.4,0.4,0.4,0.8c0,0.4-0.2,0.8-0.5,0.7
							C190.7,171,190.5,170.7,190.6,170.2z"/>
						<path style="fill:#FD5C4F;" d="M185,170c0-0.4,0.2-0.8,0.5-0.7c0.3,0,0.4,0.4,0.4,0.8c0,0.4-0.2,0.8-0.5,0.7
							C185.1,170.8,184.9,170.4,185,170z"/>
					</g>
					<g>
						<path style="fill:#FD5C4F;" d="M190.9,162.7c0-0.4,0.2-0.8,0.5-0.7s0.4,0.4,0.4,0.8c0,0.4-0.2,0.8-0.5,0.7
							C191.1,163.5,190.9,163.1,190.9,162.7z"/>
					</g>
				</g>
			</g>
			<g>
				<g>
					<path style="fill:#FD2B4E;" d="M208.2,183.6c0,0,12,1.1,12.3-6.8c0.3-7.9-7.7-18.1-11-18.3c-3.3-0.2-12.3,9.1-12.8,17
						C196.1,183.4,208.2,183.6,208.2,183.6z"/>
					<path d="M209.4,158.5C209.4,158.5,209.5,158.5,209.4,158.5c3.4,0.2,11.3,10.4,11.1,18.3c-0.2,6.2-7.6,6.9-10.8,6.9
						c-0.9,0-1.5-0.1-1.5-0.1s-12.1-0.2-11.5-8C197.2,167.7,206,158.5,209.4,158.5 M209.4,155.8c-5.3,0-14.8,10.9-15.4,19.5
						c-0.2,2.5,0.6,4.8,2.2,6.6c3.7,4,10.7,4.4,11.9,4.4c0.2,0,0.8,0.1,1.6,0.1c8.3,0,13.4-3.5,13.5-9.5c0.2-7.5-7.4-20.7-13.6-21
						l-0.1,0L209.4,155.8L209.4,155.8z"/>
				</g>
				<g>
					<path style="fill:#E72A47;" d="M212.5,160.2c-1.1-1-2.2-1.6-3-1.7c-3.3-0.2-12.3,9.1-12.8,17c-0.2,3.2,1.6,5.6,6.1,7.2
						c-0.2-0.4-0.4-0.9-0.4-1.4c-0.1-0.5,0-1.1,0-1.6c0,0,0,0,0,0C202.4,174.1,205.2,166.3,212.5,160.2z"/>
				</g>
				<g>
					<g>
						<path style="fill:#FD5C4F;" d="M216.6,173.2c0-0.4,0.2-0.8,0.5-0.7c0.3,0,0.4,0.4,0.4,0.8c0,0.4-0.2,0.8-0.5,0.7
							C216.7,174,216.6,173.6,216.6,173.2z"/>
						<path style="fill:#FD5C4F;" d="M211,173c0-0.4,0.2-0.8,0.5-0.7c0.3,0,0.4,0.4,0.4,0.8c0,0.4-0.2,0.8-0.5,0.7
							C211.1,173.7,211,173.4,211,173z"/>
						<path style="fill:#FD5C4F;" d="M205.4,172.7c0-0.4,0.2-0.8,0.5-0.7c0.3,0,0.4,0.4,0.4,0.8c0,0.4-0.2,0.8-0.5,0.7
							C205.5,173.5,205.4,173.1,205.4,172.7z"/>
						<path style="fill:#FD5C4F;" d="M199.8,172.4c0-0.4,0.2-0.8,0.5-0.7c0.3,0,0.4,0.4,0.4,0.8c0,0.4-0.2,0.8-0.5,0.7
							C200,173.2,199.8,172.9,199.8,172.4z"/>
					</g>
					<g>
						<path style="fill:#FD5C4F;" d="M211.4,165.4c0-0.4,0.2-0.8,0.5-0.7c0.3,0,0.4,0.4,0.4,0.8c0,0.4-0.2,0.8-0.5,0.7
							C211.5,166.2,211.3,165.8,211.4,165.4z"/>
						<path style="fill:#FD5C4F;" d="M205.8,165.2c0-0.4,0.2-0.8,0.5-0.7c0.3,0,0.4,0.4,0.4,0.8c0,0.4-0.2,0.8-0.5,0.7
							C205.9,165.9,205.7,165.6,205.8,165.2z"/>
					</g>
					<g>
						<path style="fill:#FD5C4F;" d="M213.6,176.4c0-0.4,0.2-0.8,0.5-0.7c0.3,0,0.4,0.4,0.4,0.8c0,0.4-0.2,0.8-0.5,0.7
							C213.8,177.2,213.6,176.9,213.6,176.4z"/>
						<path style="fill:#FD5C4F;" d="M208,176.2c0-0.4,0.2-0.8,0.5-0.7c0.3,0,0.4,0.4,0.4,0.8c0,0.4-0.2,0.8-0.5,0.7
							C208.2,177,208,176.6,208,176.2z"/>
						<path style="fill:#FD5C4F;" d="M202.4,175.9c0-0.4,0.2-0.8,0.5-0.7c0.3,0,0.4,0.4,0.4,0.8c0,0.4-0.2,0.8-0.5,0.7
							C202.6,176.7,202.4,176.4,202.4,175.9z"/>
					</g>
					<g>
						<path style="fill:#FD5C4F;" d="M214,169.5c0-0.4,0.2-0.8,0.5-0.7c0.3,0,0.4,0.4,0.4,0.8c0,0.4-0.2,0.8-0.5,0.7
							C214.1,170.2,213.9,169.9,214,169.5z"/>
						<path style="fill:#FD5C4F;" d="M208.4,169.2c0-0.4,0.2-0.8,0.5-0.7c0.3,0,0.4,0.4,0.4,0.8c0,0.4-0.2,0.8-0.5,0.7
							C208.5,170,208.3,169.6,208.4,169.2z"/>
						<path style="fill:#FD5C4F;" d="M202.8,169c0-0.4,0.2-0.8,0.5-0.7c0.3,0,0.4,0.4,0.4,0.8c0,0.4-0.2,0.8-0.5,0.7
							C202.9,169.8,202.7,169.4,202.8,169z"/>
					</g>
					<g>
						<path style="fill:#FD5C4F;" d="M208.7,161.7c0-0.4,0.2-0.8,0.5-0.7c0.3,0,0.4,0.4,0.4,0.8c0,0.4-0.2,0.8-0.5,0.7
							C208.9,162.5,208.7,162.1,208.7,161.7z"/>
					</g>
				</g>
			</g>
			<g>
				<g>
					<path style="fill:#FD2B4E;" d="M156.1,193.3c0,0,12,1.1,12.3-6.8c0.3-7.9-7.7-18.1-11-18.3c-3.3-0.2-12.3,9.1-12.8,17
						C144,193.1,156.1,193.3,156.1,193.3z"/>
					<path d="M157.3,168.2C157.4,168.2,157.4,168.2,157.3,168.2c3.4,0.2,11.3,10.4,11.1,18.3c-0.2,6.2-7.6,6.9-10.8,6.9
						c-0.9,0-1.5-0.1-1.5-0.1s-12.1-0.2-11.5-8C145.2,177.4,153.9,168.2,157.3,168.2 M157.3,165.5c-5.3,0-14.8,10.9-15.4,19.5
						c-0.2,2.5,0.6,4.8,2.2,6.6c3.7,4,10.7,4.4,11.9,4.4c0.2,0,0.8,0.1,1.6,0.1c8.3,0,13.4-3.5,13.5-9.5c0.2-7.5-7.4-20.7-13.6-21
						l-0.1,0L157.3,165.5L157.3,165.5z"/>
				</g>
				<g>
					<path style="fill:#E72A47;" d="M160.4,169.9c-1.1-1-2.2-1.6-3-1.7c-3.3-0.2-12.3,9.1-12.8,17c-0.2,3.2,1.6,5.6,6.1,7.2
						c-0.2-0.4-0.4-0.9-0.4-1.4c-0.1-0.5,0-1.1,0-1.6c0,0,0,0,0,0C150.3,183.8,153.1,176.1,160.4,169.9z"/>
				</g>
				<g>
					<g>
						<path style="fill:#FD5C4F;" d="M164.5,182.9c0-0.4,0.2-0.8,0.5-0.7c0.3,0,0.4,0.4,0.4,0.8c0,0.4-0.2,0.8-0.5,0.7
							C164.7,183.7,164.5,183.4,164.5,182.9z"/>
						<path style="fill:#FD5C4F;" d="M158.9,182.7c0-0.4,0.2-0.8,0.5-0.7c0.3,0,0.4,0.4,0.4,0.8s-0.2,0.8-0.5,0.7
							C159.1,183.5,158.9,183.1,158.9,182.7z"/>
						<path style="fill:#FD5C4F;" d="M153.3,182.4c0-0.4,0.2-0.8,0.5-0.7c0.3,0,0.4,0.4,0.4,0.8c0,0.4-0.2,0.8-0.5,0.7
							C153.5,183.2,153.3,182.9,153.3,182.4z"/>
						<path style="fill:#FD5C4F;" d="M147.7,182.2c0-0.4,0.2-0.8,0.5-0.7c0.3,0,0.4,0.4,0.4,0.8c0,0.4-0.2,0.8-0.5,0.7
							C147.9,183,147.7,182.6,147.7,182.2z"/>
					</g>
					<g>
						<path style="fill:#FD5C4F;" d="M159.3,175.1c0-0.4,0.2-0.8,0.5-0.7c0.3,0,0.4,0.4,0.4,0.8c0,0.4-0.2,0.8-0.5,0.7
							C159.5,175.9,159.3,175.6,159.3,175.1z"/>
						<path style="fill:#FD5C4F;" d="M153.7,174.9c0-0.4,0.2-0.8,0.5-0.7c0.3,0,0.4,0.4,0.4,0.8c0,0.4-0.2,0.8-0.5,0.7
							C153.9,175.7,153.7,175.3,153.7,174.9z"/>
					</g>
					<g>
						<path style="fill:#FD5C4F;" d="M161.6,186.2c0-0.4,0.2-0.8,0.5-0.7c0.3,0,0.4,0.4,0.4,0.8c0,0.4-0.2,0.8-0.5,0.7
							C161.7,187,161.5,186.6,161.6,186.2z"/>
						<path style="fill:#FD5C4F;" d="M156,185.9c0-0.4,0.2-0.8,0.5-0.7c0.3,0,0.4,0.4,0.4,0.8c0,0.4-0.2,0.8-0.5,0.7
							C156.1,186.7,155.9,186.4,156,185.9z"/>
						<path style="fill:#FD5C4F;" d="M150.4,185.7c0-0.4,0.2-0.8,0.5-0.7c0.3,0,0.4,0.4,0.4,0.8c0,0.4-0.2,0.8-0.5,0.7
							C150.5,186.5,150.3,186.1,150.4,185.7z"/>
					</g>
					<g>
						<path style="fill:#FD5C4F;" d="M161.9,179.2c0-0.4,0.2-0.8,0.5-0.7c0.3,0,0.4,0.4,0.4,0.8c0,0.4-0.2,0.8-0.5,0.7
							C162.1,180,161.9,179.6,161.9,179.2z"/>
						<path style="fill:#FD5C4F;" d="M156.3,179c0-0.4,0.2-0.8,0.5-0.7c0.3,0,0.4,0.4,0.4,0.8c0,0.4-0.2,0.8-0.5,0.7
							C156.5,179.7,156.3,179.4,156.3,179z"/>
						<path style="fill:#FD5C4F;" d="M150.7,178.7c0-0.4,0.2-0.8,0.5-0.7c0.3,0,0.4,0.4,0.4,0.8c0,0.4-0.2,0.8-0.5,0.7
							C150.9,179.5,150.7,179.1,150.7,178.7z"/>
					</g>
					<g>
						<path style="fill:#FD5C4F;" d="M156.7,171.4c0-0.4,0.2-0.8,0.5-0.7c0.3,0,0.4,0.4,0.4,0.8c0,0.4-0.2,0.8-0.5,0.7
							C156.9,172.2,156.7,171.8,156.7,171.4z"/>
					</g>
				</g>
			</g>
			<g>
				<path style="fill:#FFFFE2;" d="M175.9,182.4c0,2.9,2.4,5.3,5.3,5.3c2.9,0,5.3-2.4,5.3-5.3c0-2.9-2.4-5.3-5.3-5.3
					C178.3,177.1,175.9,179.5,175.9,182.4z"/>
				<path d="M181.2,177.1c2.9,0,5.3,2.4,5.3,5.3c0,2.9-2.4,5.3-5.3,5.3c-2.9,0-5.3-2.4-5.3-5.3C175.9,179.5,178.3,177.1,181.2,177.1
					 M181.2,174.4c-4.4,0-8,3.6-8,8c0,4.4,3.6,8,8,8c4.4,0,8-3.6,8-8C189.2,178,185.6,174.4,181.2,174.4L181.2,174.4z"/>
			</g>
			<g>
				<path style="fill:#FFFFE2;" d="M167.7,176.6c0,2.9,2.4,5.3,5.3,5.3c2.9,0,5.3-2.4,5.3-5.3s-2.4-5.3-5.3-5.3
					C170.1,171.3,167.7,173.7,167.7,176.6z"/>
				<path d="M173,171.3c2.9,0,5.3,2.4,5.3,5.3c0,2.9-2.4,5.3-5.3,5.3c-2.9,0-5.3-2.4-5.3-5.3C167.7,173.7,170.1,171.3,173,171.3
					 M173,168.6c-4.4,0-8,3.6-8,8c0,4.4,3.6,8,8,8c4.4,0,8-3.6,8-8C181,172.2,177.4,168.6,173,168.6L173,168.6z"/>
			</g>
			<path style="fill:#FFFFFF;" d="M204.3,183.7c-0.9-2.8-3.8-4.3-6.6-3.5c-2.8,0.9-4.3,3.8-3.5,6.6c0.9,2.8,3.8,4.3,6.6,3.5
				C203.6,189.4,205.2,186.5,204.3,183.7z"/>
			<g>
				<path style="fill:#FFFFE2;" d="M215.3,176.1c-0.9-2.8-3.8-4.3-6.6-3.5c-2.8,0.9-4.3,3.8-3.5,6.6c0.9,2.8,3.8,4.3,6.6,3.5
					C214.5,181.8,216.1,178.9,215.3,176.1z"/>
				<path d="M210.2,172.4c2.3,0,4.3,1.5,5,3.7c0.9,2.8-0.7,5.7-3.5,6.6c-0.5,0.2-1,0.2-1.5,0.2c-2.3,0-4.3-1.5-5-3.7
					c-0.9-2.8,0.7-5.7,3.5-6.6C209.2,172.4,209.7,172.4,210.2,172.4 M210.2,169.6c-0.8,0-1.6,0.1-2.3,0.4c-2,0.6-3.7,2-4.7,3.9
					c-1,1.9-1.2,4-0.6,6.1c1,3.4,4.1,5.6,7.6,5.6c0.8,0,1.6-0.1,2.3-0.4c2-0.6,3.7-2,4.7-3.9c1-1.9,1.2-4,0.6-6.1
					C216.8,171.9,213.8,169.6,210.2,169.6L210.2,169.6z"/>
			</g>
			<g>
				<path style="fill:#FFFFFF;" d="M195.1,178.5c1.2-2.6,0.1-5.8-2.6-7c-2.6-1.2-5.8-0.1-7,2.6c-1.2,2.6-0.1,5.8,2.6,7
					C190.8,182.3,193.9,181.2,195.1,178.5z"/>
				<path d="M190.4,171.1c0.7,0,1.5,0.2,2.2,0.5c2.6,1.2,3.8,4.3,2.6,7c-0.9,1.9-2.8,3.1-4.8,3.1c-0.7,0-1.5-0.2-2.2-0.5
					c-2.6-1.2-3.8-4.3-2.6-7C186.5,172.2,188.4,171.1,190.4,171.1 M190.4,168.3c-3.1,0-5.9,1.8-7.2,4.6c-0.9,1.9-1,4.1-0.2,6.1
					c0.7,2,2.2,3.6,4.1,4.5c1.1,0.5,2.2,0.7,3.3,0.7c3.1,0,5.9-1.8,7.2-4.6c0.9-1.9,1-4.1,0.2-6.1c-0.7-2-2.2-3.6-4.1-4.5
					C192.7,168.6,191.5,168.3,190.4,168.3L190.4,168.3z"/>
			</g>
			<g>
				<path style="fill:#FFFFFF;" d="M205.4,179c1.2-2.6,0.1-5.8-2.6-7c-2.6-1.2-5.8-0.1-7,2.6c-1.2,2.6-0.1,5.8,2.6,7
					C201,182.8,204.1,181.6,205.4,179z"/>
				<path d="M200.6,171.5c0.7,0,1.5,0.2,2.2,0.5c2.6,1.2,3.8,4.3,2.6,7c-0.9,1.9-2.8,3.1-4.8,3.1c-0.7,0-1.5-0.2-2.2-0.5
					c-2.6-1.2-3.8-4.3-2.6-7C196.7,172.6,198.6,171.5,200.6,171.5 M200.6,168.8c-3.1,0-5.9,1.8-7.2,4.6c-0.9,1.9-1,4.1-0.2,6.1
					c0.7,2,2.2,3.6,4.1,4.5c1.1,0.5,2.2,0.7,3.3,0.7c3.1,0,5.9-1.8,7.2-4.6c0.9-1.9,1-4.1,0.2-6.1c-0.7-2-2.2-3.6-4.1-4.5
					C202.9,169,201.7,168.8,200.6,168.8L200.6,168.8z"/>
			</g>
			<g>
				<g>
					<g>
						<path style="fill:#FD2B4E;" d="M168,199.9c0,0,12,1.1,12.3-6.8c0.3-7.9-7.7-18.1-11-18.3c-3.3-0.2-12.3,9.1-12.8,17
							C155.9,199.7,168,199.9,168,199.9z"/>
						<path d="M169.2,174.8C169.2,174.8,169.2,174.8,169.2,174.8c3.4,0.2,11.3,10.4,11.1,18.3c-0.2,6.2-7.6,6.9-10.8,6.9
							c-0.9,0-1.5-0.1-1.5-0.1s-12.1-0.2-11.5-8C157,184,165.8,174.8,169.2,174.8 M169.2,172.1c-5.3,0-14.8,10.9-15.4,19.5
							c-0.2,2.5,0.6,4.8,2.2,6.6c3.7,4,10.7,4.4,11.9,4.4c0.2,0,0.8,0.1,1.6,0.1c8.3,0,13.4-3.5,13.5-9.5c0.2-7.5-7.4-20.7-13.6-21
							l-0.1,0L169.2,172.1L169.2,172.1z"/>
					</g>
					<g>
						<path style="fill:#E72A47;" d="M172.3,176.5c-1.1-1-2.2-1.6-3-1.7c-3.3-0.2-12.3,9.1-12.8,17c-0.2,3.2,1.6,5.6,6.1,7.2
							c-0.2-0.4-0.4-0.9-0.4-1.4c-0.1-0.5,0-1.1,0-1.6c0,0,0,0,0,0C162.2,190.4,165,182.7,172.3,176.5z"/>
					</g>
					<g>
						<g>
							<path style="fill:#FD5C4F;" d="M176.4,189.5c0-0.4,0.2-0.8,0.5-0.7c0.3,0,0.4,0.4,0.4,0.8c0,0.4-0.2,0.8-0.5,0.7
								C176.5,190.3,176.3,190,176.4,189.5z"/>
							<path style="fill:#FD5C4F;" d="M170.8,189.3c0-0.4,0.2-0.8,0.5-0.7c0.3,0,0.4,0.4,0.4,0.8c0,0.4-0.2,0.8-0.5,0.7
								C170.9,190.1,170.7,189.7,170.8,189.3z"/>
							<path style="fill:#FD5C4F;" d="M165.2,189c0-0.4,0.2-0.8,0.5-0.7c0.3,0,0.4,0.4,0.4,0.8c0,0.4-0.2,0.8-0.5,0.7
								C165.3,189.8,165.1,189.5,165.2,189z"/>
							<path style="fill:#FD5C4F;" d="M159.6,188.8c0-0.4,0.2-0.8,0.5-0.7c0.3,0,0.4,0.4,0.4,0.8s-0.2,0.8-0.5,0.7
								C159.7,189.6,159.6,189.2,159.6,188.8z"/>
						</g>
						<g>
							<path style="fill:#FD5C4F;" d="M171.1,181.7c0-0.4,0.2-0.8,0.5-0.7c0.3,0,0.4,0.4,0.4,0.8c0,0.4-0.2,0.8-0.5,0.7
								C171.3,182.5,171.1,182.2,171.1,181.7z"/>
							<path style="fill:#FD5C4F;" d="M165.5,181.5c0-0.4,0.2-0.8,0.5-0.7c0.3,0,0.4,0.4,0.4,0.8c0,0.4-0.2,0.8-0.5,0.7
								C165.7,182.3,165.5,181.9,165.5,181.5z"/>
						</g>
						<g>
							<path style="fill:#FD5C4F;" d="M173.4,192.8c0-0.4,0.2-0.8,0.5-0.7c0.3,0,0.4,0.4,0.4,0.8c0,0.4-0.2,0.8-0.5,0.7
								C173.6,193.6,173.4,193.2,173.4,192.8z"/>
							<path style="fill:#FD5C4F;" d="M167.8,192.5c0-0.4,0.2-0.8,0.5-0.7c0.3,0,0.4,0.4,0.4,0.8c0,0.4-0.2,0.8-0.5,0.7
								C168,193.3,167.8,193,167.8,192.5z"/>
							<path style="fill:#FD5C4F;" d="M162.2,192.3c0-0.4,0.2-0.8,0.5-0.7c0.3,0,0.4,0.4,0.4,0.8c0,0.4-0.2,0.8-0.5,0.7
								C162.4,193.1,162.2,192.7,162.2,192.3z"/>
						</g>
						<g>
							<path style="fill:#FD5C4F;" d="M173.7,185.8c0-0.4,0.2-0.8,0.5-0.7c0.3,0,0.4,0.4,0.4,0.8c0,0.4-0.2,0.8-0.5,0.7
								C173.9,186.6,173.7,186.2,173.7,185.8z"/>
							<path style="fill:#FD5C4F;" d="M168.1,185.6c0-0.4,0.2-0.8,0.5-0.7c0.3,0,0.4,0.4,0.4,0.8c0,0.4-0.2,0.8-0.5,0.7
								C168.3,186.3,168.1,186,168.1,185.6z"/>
							<path style="fill:#FD5C4F;" d="M162.6,185.3c0-0.4,0.2-0.8,0.5-0.7c0.3,0,0.4,0.4,0.4,0.8c0,0.4-0.2,0.8-0.5,0.7
								C162.7,186.1,162.5,185.7,162.6,185.3z"/>
						</g>
						<g>
							<path style="fill:#FD5C4F;" d="M168.5,178c0-0.4,0.2-0.8,0.5-0.7c0.3,0,0.4,0.4,0.4,0.8c0,0.4-0.2,0.8-0.5,0.7
								C168.7,178.8,168.5,178.4,168.5,178z"/>
						</g>
					</g>
				</g>
				<g>
					<g>
						<path style="fill:#FD2B4E;" d="M224.3,192.3c0,0,12,1.1,12.3-6.8c0.3-7.9-7.7-18.1-11-18.3c-3.3-0.2-12.3,9.1-12.8,17
							C212.3,192.2,224.3,192.3,224.3,192.3z"/>
						<path d="M225.6,167.3C225.6,167.3,225.6,167.3,225.6,167.3c3.4,0.2,11.3,10.4,11.1,18.3c-0.2,6.2-7.6,6.9-10.8,6.9
							c-0.9,0-1.5-0.1-1.5-0.1s-12.1-0.2-11.5-8C213.4,176.5,222.2,167.3,225.6,167.3 M225.6,164.6c-5.3,0-14.8,10.9-15.4,19.5
							c-0.2,2.5,0.6,4.8,2.2,6.6c3.7,4,10.7,4.4,11.9,4.4c0.2,0,0.8,0.1,1.6,0.1c8.3,0,13.4-3.5,13.5-9.5c0.2-7.5-7.4-20.7-13.6-21
							l-0.1,0L225.6,164.6L225.6,164.6z"/>
					</g>
					<g>
						<path style="fill:#E72A47;" d="M228.7,168.9c-1.1-1-2.2-1.6-3-1.7c-3.3-0.2-12.3,9.1-12.8,17c-0.2,3.2,1.6,5.6,6.1,7.2
							c-0.2-0.4-0.4-0.9-0.4-1.4c-0.1-0.5,0-1.1,0-1.6c0,0,0,0,0,0C218.5,182.9,221.4,175.1,228.7,168.9z"/>
					</g>
					<g>
						<g>
							<path style="fill:#FD5C4F;" d="M232.7,182c0-0.4,0.2-0.8,0.5-0.7c0.3,0,0.4,0.4,0.4,0.8c0,0.4-0.2,0.8-0.5,0.7
								C232.9,182.7,232.7,182.4,232.7,182z"/>
							<path style="fill:#FD5C4F;" d="M227.1,181.7c0-0.4,0.2-0.8,0.5-0.7c0.3,0,0.4,0.4,0.4,0.8c0,0.4-0.2,0.8-0.5,0.7
								C227.3,182.5,227.1,182.1,227.1,181.7z"/>
							<path style="fill:#FD5C4F;" d="M221.5,181.5c0-0.4,0.2-0.8,0.5-0.7c0.3,0,0.4,0.4,0.4,0.8c0,0.4-0.2,0.8-0.5,0.7
								C221.7,182.3,221.5,181.9,221.5,181.5z"/>
							<path style="fill:#FD5C4F;" d="M216,181.2c0-0.4,0.2-0.8,0.5-0.7c0.3,0,0.4,0.4,0.4,0.8c0,0.4-0.2,0.8-0.5,0.7
								C216.1,182,215.9,181.6,216,181.2z"/>
						</g>
						<g>
							<path style="fill:#FD5C4F;" d="M227.5,174.2c0-0.4,0.2-0.8,0.5-0.7c0.3,0,0.4,0.4,0.4,0.8c0,0.4-0.2,0.8-0.5,0.7
								C227.7,174.9,227.5,174.6,227.5,174.2z"/>
							<path style="fill:#FD5C4F;" d="M221.9,173.9c0-0.4,0.2-0.8,0.5-0.7c0.3,0,0.4,0.4,0.4,0.8c0,0.4-0.2,0.8-0.5,0.7
								C222.1,174.7,221.9,174.4,221.9,173.9z"/>
						</g>
						<g>
							<path style="fill:#FD5C4F;" d="M229.8,185.2c0-0.4,0.2-0.8,0.5-0.7c0.3,0,0.4,0.4,0.4,0.8c0,0.4-0.2,0.8-0.5,0.7
								C229.9,186,229.8,185.6,229.8,185.2z"/>
							<path style="fill:#FD5C4F;" d="M224.2,185c0-0.4,0.2-0.8,0.5-0.7c0.3,0,0.4,0.4,0.4,0.8c0,0.4-0.2,0.8-0.5,0.7
								C224.3,185.7,224.2,185.4,224.2,185z"/>
							<path style="fill:#FD5C4F;" d="M218.6,184.7c0-0.4,0.2-0.8,0.5-0.7c0.3,0,0.4,0.4,0.4,0.8c0,0.4-0.2,0.8-0.5,0.7
								C218.8,185.5,218.6,185.1,218.6,184.7z"/>
						</g>
						<g>
							<path style="fill:#FD5C4F;" d="M230.1,178.2c0-0.4,0.2-0.8,0.5-0.7c0.3,0,0.4,0.4,0.4,0.8c0,0.4-0.2,0.8-0.5,0.7
								C230.3,179,230.1,178.7,230.1,178.2z"/>
							<path style="fill:#FD5C4F;" d="M224.5,178c0-0.4,0.2-0.8,0.5-0.7c0.3,0,0.4,0.4,0.4,0.8c0,0.4-0.2,0.8-0.5,0.7
								S224.5,178.4,224.5,178z"/>
							<path style="fill:#FD5C4F;" d="M218.9,177.7c0-0.4,0.2-0.8,0.5-0.7c0.3,0,0.4,0.4,0.4,0.8c0,0.4-0.2,0.8-0.5,0.7
								C219.1,178.5,218.9,178.2,218.9,177.7z"/>
						</g>
						<g>
							<path style="fill:#FD5C4F;" d="M224.9,170.4c0-0.4,0.2-0.8,0.5-0.7c0.3,0,0.4,0.4,0.4,0.8c0,0.4-0.2,0.8-0.5,0.7
								C225.1,171.2,224.9,170.9,224.9,170.4z"/>
						</g>
					</g>
				</g>
				<g>
					<g>
						<path style="fill:#FD2B4E;" d="M188.3,203.4c0,0,12,1.1,12.3-6.8c0.3-7.9-7.7-18.1-11-18.3c-3.3-0.2-12.3,9.1-12.8,17
							C176.2,203.2,188.3,203.4,188.3,203.4z"/>
						<path d="M189.6,178.3C189.6,178.3,189.6,178.3,189.6,178.3c3.4,0.2,11.3,10.4,11.1,18.3c-0.2,6.2-7.6,6.9-10.8,6.9
							c-0.9,0-1.5-0.1-1.5-0.1s-12.1-0.2-11.5-8C177.4,187.5,186.2,178.3,189.6,178.3 M189.6,175.6c-5.3,0-14.8,10.9-15.4,19.5
							c-0.2,2.5,0.6,4.8,2.2,6.6c3.7,4,10.7,4.4,11.9,4.4c0.2,0,0.8,0.1,1.6,0.1c8.3,0,13.4-3.5,13.5-9.5c0.2-7.5-7.4-20.7-13.6-21
							l-0.1,0L189.6,175.6L189.6,175.6z"/>
					</g>
					<g>
						<path style="fill:#E72A47;" d="M192.6,180c-1.1-1-2.2-1.6-3-1.7c-3.3-0.2-12.3,9.1-12.8,17c-0.2,3.2,1.6,5.6,6.1,7.2
							c-0.2-0.4-0.4-0.9-0.4-1.4c-0.1-0.5,0-1.1,0-1.6c0,0,0,0,0,0C182.5,193.9,185.4,186.2,192.6,180z"/>
					</g>
					<g>
						<g>
							<path style="fill:#FD5C4F;" d="M196.7,193c0-0.4,0.2-0.8,0.5-0.7c0.3,0,0.4,0.4,0.4,0.8c0,0.4-0.2,0.8-0.5,0.7
								C196.9,193.8,196.7,193.5,196.7,193z"/>
							<path style="fill:#FD5C4F;" d="M191.1,192.8c0-0.4,0.2-0.8,0.5-0.7c0.3,0,0.4,0.4,0.4,0.8c0,0.4-0.2,0.8-0.5,0.7
								C191.3,193.6,191.1,193.2,191.1,192.8z"/>
							<path style="fill:#FD5C4F;" d="M185.5,192.6c0-0.4,0.2-0.8,0.5-0.7c0.3,0,0.4,0.4,0.4,0.8c0,0.4-0.2,0.8-0.5,0.7
								C185.7,193.3,185.5,193,185.5,192.6z"/>
							<path style="fill:#FD5C4F;" d="M179.9,192.3c0-0.4,0.2-0.8,0.5-0.7c0.3,0,0.4,0.4,0.4,0.8c0,0.4-0.2,0.8-0.5,0.7
								C180.1,193.1,179.9,192.7,179.9,192.3z"/>
						</g>
						<g>
							<path style="fill:#FD5C4F;" d="M191.5,185.2c0-0.4,0.2-0.8,0.5-0.7c0.3,0,0.4,0.4,0.4,0.8c0,0.4-0.2,0.8-0.5,0.7
								C191.7,186,191.5,185.7,191.5,185.2z"/>
							<path style="fill:#FD5C4F;" d="M185.9,185c0-0.4,0.2-0.8,0.5-0.7c0.3,0,0.4,0.4,0.4,0.8c0,0.4-0.2,0.8-0.5,0.7
								C186.1,185.8,185.9,185.4,185.9,185z"/>
						</g>
						<g>
							<path style="fill:#FD5C4F;" d="M193.8,196.3c0-0.4,0.2-0.8,0.5-0.7c0.3,0,0.4,0.4,0.4,0.8c0,0.4-0.2,0.8-0.5,0.7
								C193.9,197.1,193.7,196.7,193.8,196.3z"/>
							<path style="fill:#FD5C4F;" d="M188.2,196c0-0.4,0.2-0.8,0.5-0.7c0.3,0,0.4,0.4,0.4,0.8c0,0.4-0.2,0.8-0.5,0.7
								C188.3,196.8,188.2,196.5,188.2,196z"/>
							<path style="fill:#FD5C4F;" d="M182.6,195.8c0-0.4,0.2-0.8,0.5-0.7c0.3,0,0.4,0.4,0.4,0.8c0,0.4-0.2,0.8-0.5,0.7
								C182.7,196.6,182.6,196.2,182.6,195.8z"/>
						</g>
						<g>
							<path style="fill:#FD5C4F;" d="M194.1,189.3c0-0.4,0.2-0.8,0.5-0.7c0.3,0,0.4,0.4,0.4,0.8s-0.2,0.8-0.5,0.7
								C194.3,190.1,194.1,189.7,194.1,189.3z"/>
							<path style="fill:#FD5C4F;" d="M188.5,189.1c0-0.4,0.2-0.8,0.5-0.7c0.3,0,0.4,0.4,0.4,0.8c0,0.4-0.2,0.8-0.5,0.7
								C188.7,189.8,188.5,189.5,188.5,189.1z"/>
							<path style="fill:#FD5C4F;" d="M182.9,188.8c0-0.4,0.2-0.8,0.5-0.7c0.3,0,0.4,0.4,0.4,0.8c0,0.4-0.2,0.8-0.5,0.7
								C183.1,189.6,182.9,189.2,182.9,188.8z"/>
						</g>
						<g>
							<path style="fill:#FD5C4F;" d="M188.9,181.5c0-0.4,0.2-0.8,0.5-0.7c0.3,0,0.4,0.4,0.4,0.8c0,0.4-0.2,0.8-0.5,0.7
								C189.1,182.3,188.9,181.9,188.9,181.5z"/>
						</g>
					</g>
				</g>
				<g>
					<g>
						<path style="fill:#FD2B4E;" d="M211.1,200.3c0,0,12,1.1,12.3-6.8c0.3-7.9-7.7-18.1-11-18.3c-3.3-0.2-12.3,9.1-12.8,17
							C199.1,200.1,211.1,200.3,211.1,200.3z"/>
						<path d="M212.4,175.2C212.4,175.2,212.4,175.2,212.4,175.2c3.4,0.2,11.3,10.4,11.1,18.3c-0.2,6.2-7.6,6.9-10.8,6.9
							c-0.9,0-1.5-0.1-1.5-0.1s-12.1-0.2-11.5-8C200.2,184.4,209,175.2,212.4,175.2 M212.4,172.5c-5.3,0-14.8,10.9-15.4,19.5
							c-0.2,2.5,0.6,4.8,2.2,6.6c3.7,4,10.7,4.4,11.9,4.4c0.2,0,0.8,0.1,1.6,0.1c8.3,0,13.4-3.5,13.5-9.5c0.2-7.5-7.4-20.7-13.6-21
							l-0.1,0L212.4,172.5L212.4,172.5z"/>
					</g>
					<g>
						<path style="fill:#E72A47;" d="M215.5,176.9c-1.1-1-2.2-1.6-3-1.7c-3.3-0.2-12.3,9.1-12.8,17c-0.2,3.2,1.6,5.6,6.1,7.2
							c-0.2-0.4-0.4-0.9-0.4-1.4c-0.1-0.5,0-1.1,0-1.6c0,0,0,0,0,0C205.3,190.8,208.2,183.1,215.5,176.9z"/>
					</g>
					<g>
						<g>
							<path style="fill:#FD5C4F;" d="M219.5,189.9c0-0.4,0.2-0.8,0.5-0.7c0.3,0,0.4,0.4,0.4,0.8c0,0.4-0.2,0.8-0.5,0.7
								C219.7,190.7,219.5,190.4,219.5,189.9z"/>
							<path style="fill:#FD5C4F;" d="M213.9,189.7c0-0.4,0.2-0.8,0.5-0.7c0.3,0,0.4,0.4,0.4,0.8c0,0.4-0.2,0.8-0.5,0.7
								C214.1,190.5,213.9,190.1,213.9,189.7z"/>
							<path style="fill:#FD5C4F;" d="M208.3,189.4c0-0.4,0.2-0.8,0.5-0.7c0.3,0,0.4,0.4,0.4,0.8c0,0.4-0.2,0.8-0.5,0.7
								C208.5,190.2,208.3,189.9,208.3,189.4z"/>
							<path style="fill:#FD5C4F;" d="M202.8,189.2c0-0.4,0.2-0.8,0.5-0.7c0.3,0,0.4,0.4,0.4,0.8c0,0.4-0.2,0.8-0.5,0.7
								C202.9,190,202.7,189.6,202.8,189.2z"/>
						</g>
						<g>
							<path style="fill:#FD5C4F;" d="M214.3,182.1c0-0.4,0.2-0.8,0.5-0.7c0.3,0,0.4,0.4,0.4,0.8c0,0.4-0.2,0.8-0.5,0.7
								C214.5,182.9,214.3,182.6,214.3,182.1z"/>
							<path style="fill:#FD5C4F;" d="M208.7,181.9c0-0.4,0.2-0.8,0.5-0.7c0.3,0,0.4,0.4,0.4,0.8c0,0.4-0.2,0.8-0.5,0.7
								C208.9,182.7,208.7,182.3,208.7,181.9z"/>
						</g>
						<g>
							<path style="fill:#FD5C4F;" d="M216.6,193.2c0-0.4,0.2-0.8,0.5-0.7c0.3,0,0.4,0.4,0.4,0.8c0,0.4-0.2,0.8-0.5,0.7
								C216.7,193.9,216.6,193.6,216.6,193.2z"/>
							<path style="fill:#FD5C4F;" d="M211,192.9c0-0.4,0.2-0.8,0.5-0.7c0.3,0,0.4,0.4,0.4,0.8c0,0.4-0.2,0.8-0.5,0.7
								C211.1,193.7,211,193.3,211,192.9z"/>
							<path style="fill:#FD5C4F;" d="M205.4,192.7c0-0.4,0.2-0.8,0.5-0.7c0.3,0,0.4,0.4,0.4,0.8c0,0.4-0.2,0.8-0.5,0.7
								C205.5,193.5,205.4,193.1,205.4,192.7z"/>
						</g>
						<g>
							<path style="fill:#FD5C4F;" d="M216.9,186.2c0-0.4,0.2-0.8,0.5-0.7c0.3,0,0.4,0.4,0.4,0.8c0,0.4-0.2,0.8-0.5,0.7
								C217.1,187,216.9,186.6,216.9,186.2z"/>
							<path style="fill:#FD5C4F;" d="M211.3,185.9c0-0.4,0.2-0.8,0.5-0.7c0.3,0,0.4,0.4,0.4,0.8c0,0.4-0.2,0.8-0.5,0.7
								C211.5,186.7,211.3,186.4,211.3,185.9z"/>
							<path style="fill:#FD5C4F;" d="M205.7,185.7c0-0.4,0.2-0.8,0.5-0.7c0.3,0,0.4,0.4,0.4,0.8c0,0.4-0.2,0.8-0.5,0.7
								C205.9,186.5,205.7,186.1,205.7,185.7z"/>
						</g>
						<g>
							<path style="fill:#FD5C4F;" d="M211.7,178.4c0-0.4,0.2-0.8,0.5-0.7c0.3,0,0.4,0.4,0.4,0.8c0,0.4-0.2,0.8-0.5,0.7
								C211.9,179.2,211.7,178.8,211.7,178.4z"/>
						</g>
					</g>
				</g>
			</g>
		</g>
	</g>
</g>
<g>
	<g>
		<path style="fill:#FCD177;" d="M233.7,54.9c-3-11.6-17.2-14.8-27.5-16.1c-9.6-1.1-18.9-0.7-28.2,1.9c-7.4,2.1-16.2,6-18.3,14.1
			c-0.6,2.4,2.4,4.1,4.2,2.4c4.8-4.6,14.5-10.5,32.8-10.5s28,5.9,32.8,10.5C231.4,59,234.4,57.3,233.7,54.9z"/>
		<path d="M162.2,59.3c-0.7,0-1.4-0.2-2-0.5c-1.5-0.9-2.2-2.6-1.8-4.2c1.8-6.9,8.3-12,19.3-15.1c9.1-2.6,18.5-3.2,28.7-2
			c16.8,2,26.1,7.6,28.6,17.1l0,0c0.4,1.7-0.3,3.3-1.8,4.2c-1.5,0.9-3.4,0.7-4.6-0.5c-4.8-4.6-14.2-10.1-31.9-10.1
			c-17.7,0-27.1,5.5-31.9,10.1C164.1,58.9,163.2,59.3,162.2,59.3z M196.7,45.4c18.6,0,28.6,5.9,33.8,10.8c0.5,0.4,1,0.4,1.4,0.1
			c0.2-0.1,0.7-0.5,0.5-1.2l0,0c-2.2-8.3-10.8-13.2-26.3-15c-9.9-1.2-18.9-0.6-27.6,1.9c-10,2.8-15.8,7.2-17.4,13.2
			c-0.2,0.7,0.3,1.1,0.5,1.2c0.4,0.2,0.9,0.3,1.4-0.1C168.1,51.3,178.2,45.4,196.7,45.4z"/>
	</g>
	<g>
		<path style="fill:#723707;" d="M184.5,39.3c1.3-2.7,0.1-7.2,1.8-10.2c0.6-1,1.3-1.8,1.9-2.9c0.6-1.2,0.8-2.7,0.3-3.9
			c-0.6-1.2-2-2.1-3.3-1.6c-1.5,0.5-2.2,2.3-3.6,2.8c0-4.4-0.7-9.3-0.7-13.7c0-0.8,0-1.6-0.2-2.4c-0.5-1.4-1.8-2.5-3.3-2.6
			s-3,0.7-3.6,2.1c-0.6,1.2-0.8,3-2.2,3.2c-0.8,0.1-1.5-0.5-2.1-1.1c-1.2-1.2-2.5-2.5-4-3.3c-1.6-0.7-3.6-0.8-4.9,0.3
			c-1,0.9-1.4,2.3-1.7,3.7c-0.1,0.6-0.3,1.2-0.2,1.8c0.3,1.5,2,2.3,3.4,3c4.9,2.3,9.2,6.3,10.4,11.6c-1.3-0.3-2.1-1.5-3.1-2.3
			c-1.5-1.3-3.6-2-5.5-1.4c-1.9,0.6-3.2,2.8-2.5,4.7c0.4,1,1.3,1.7,2.1,2.3c1.3,1,2.7,1.9,4,2.8c1.4,0.9,2.8,1.8,4,3
			c1.4,1.5,2.2,3.4,3.6,4.7c1.7,1.6,4.2,2,6.4,1.5C183.1,41.1,184,40.3,184.5,39.3z"/>
		<path d="M179.7,43c-2.2,0-4.2-0.7-5.6-2.1c-0.9-0.8-1.5-1.8-2.2-2.8c-0.5-0.7-1-1.4-1.5-2c-0.9-1-2-1.7-3.3-2.5l-0.4-0.3
			c-1.4-0.9-2.8-1.9-4.1-2.8c-1-0.7-2.1-1.6-2.6-2.9c-0.5-1.1-0.4-2.4,0.1-3.6c0.6-1.3,1.8-2.4,3.2-2.9c1.8-0.6,3.9-0.3,5.7,0.9
			c-1.7-2.5-4.4-4.7-7.7-6.3c-1.6-0.7-3.7-1.8-4.1-4c-0.2-0.9,0-1.7,0.2-2.4c0.3-1.3,0.7-3.2,2.1-4.4c1.6-1.4,4.1-1.6,6.4-0.6
			c1.6,0.8,2.9,2,4.1,3.2l0.3,0.3c0.7,0.7,0.9,0.7,0.9,0.7c0.2,0,0.5-0.9,0.7-1.3c0.1-0.4,0.3-0.8,0.5-1.1c0.9-1.8,2.9-3,5-2.8
			c2,0.1,3.9,1.6,4.5,3.5c0.3,1,0.3,2,0.3,2.8c0,2.1,0.2,4.5,0.3,6.7c0.1,1.4,0.2,2.8,0.3,4.1c0.5-0.5,1.1-1,1.9-1.3
			c1.9-0.6,4.1,0.5,5,2.4c0.7,1.5,0.6,3.4-0.3,5.1c-0.3,0.7-0.7,1.2-1.1,1.8c-0.3,0.4-0.5,0.7-0.8,1.1c-0.7,1.3-0.8,3.1-0.9,4.9
			c-0.1,1.8-0.1,3.7-0.9,5.2c0,0,0,0,0,0c-0.8,1.5-2.1,2.5-4,2.9C181,42.9,180.4,43,179.7,43z M165.2,23.6c-0.3,0-0.7,0-1,0.2
			c-0.6,0.2-1.2,0.8-1.5,1.4c-0.1,0.3-0.3,0.9-0.1,1.5c0.3,0.6,0.9,1.2,1.7,1.7c1.3,0.9,2.6,1.8,3.9,2.7l0.4,0.3
			c1.3,0.8,2.7,1.7,3.8,2.9c0.7,0.7,1.2,1.6,1.8,2.4c0.6,0.9,1.1,1.7,1.8,2.3c1.4,1.4,3.6,1.5,5.2,1.2c1.4-0.3,1.9-0.9,2.1-1.4l0,0
			c0.5-1,0.6-2.5,0.6-4.1c0.1-2,0.2-4.3,1.2-6.2c0.3-0.5,0.6-0.9,0.9-1.3c0.3-0.5,0.7-0.9,0.9-1.5c0.5-1,0.6-2,0.2-2.7
			c-0.3-0.7-1.1-1.1-1.7-0.9c-0.4,0.1-0.8,0.6-1.3,1c-0.6,0.7-1.3,1.4-2.4,1.7c-0.4,0.1-0.9,0.1-1.2-0.2c-0.4-0.3-0.6-0.7-0.6-1.1
			c0-2.1-0.2-4.5-0.3-6.7c-0.2-2.3-0.3-4.7-0.3-6.9c0-0.7,0-1.4-0.2-2c-0.3-0.9-1.2-1.6-2.1-1.7c-0.9-0.1-1.9,0.5-2.3,1.3
			c-0.1,0.3-0.2,0.6-0.4,0.9c-0.4,1.1-1.1,2.8-2.8,3c-1.6,0.2-2.7-0.9-3.2-1.4l-0.3-0.3c-1.1-1.1-2.1-2.1-3.3-2.7
			c-1-0.5-2.5-0.7-3.4,0.1c-0.7,0.6-1,1.7-1.3,3c-0.1,0.5-0.2,0.9-0.1,1.3c0.2,0.9,1.5,1.5,2.6,2c6,2.8,10,7.4,11.2,12.5
			c0.1,0.5,0,0.9-0.4,1.3c-0.3,0.3-0.8,0.4-1.3,0.3c-1.3-0.3-2.2-1.2-2.9-1.9c-0.2-0.2-0.5-0.4-0.7-0.6
			C167.4,24,166.2,23.6,165.2,23.6z M184.5,39.3L184.5,39.3L184.5,39.3z"/>
	</g>
	<g>
		<path style="fill:#723707;" d="M207.3,39.3c-1.3-2.7-0.1-7.2-1.8-10.2c-0.6-1-1.3-1.8-1.9-2.9c-0.6-1.2-0.8-2.7-0.3-3.9
			c0.6-1.2,2-2.1,3.3-1.6c1.5,0.5,2.2,2.3,3.6,2.8c0-4.4,0.7-9.3,0.7-13.7c0-0.8,0-1.6,0.2-2.4c0.5-1.4,1.8-2.5,3.3-2.6
			s3,0.7,3.6,2.1c0.6,1.2,0.8,3,2.2,3.2c0.8,0.1,1.5-0.5,2.1-1.1c1.2-1.2,2.5-2.5,4-3.3s3.6-0.8,4.9,0.3c1,0.9,1.4,2.3,1.7,3.7
			c0.1,0.6,0.3,1.2,0.2,1.8c-0.3,1.5-2,2.3-3.4,3c-4.9,2.3-9.2,6.3-10.4,11.6c1.3-0.3,2.1-1.5,3.1-2.3c1.5-1.3,3.6-2,5.5-1.4
			c1.9,0.6,3.2,2.8,2.5,4.7c-0.4,1-1.3,1.7-2.1,2.3c-1.3,1-2.7,1.9-4,2.8c-1.4,0.9-2.8,1.8-4,3c-1.4,1.5-2.2,3.4-3.6,4.7
			c-1.7,1.6-4.2,2-6.4,1.5C208.8,41.1,207.8,40.3,207.3,39.3z"/>
		<path d="M212.1,43c-0.7,0-1.3-0.1-2-0.2c-1.9-0.4-3.3-1.4-4-2.9c-0.8-1.5-0.8-3.4-0.9-5.2c-0.1-1.8-0.1-3.6-0.9-4.9
			c-0.2-0.4-0.5-0.8-0.8-1.1c-0.4-0.6-0.8-1.1-1.1-1.8c-0.9-1.7-1-3.6-0.3-5.1c0.9-1.9,3.1-3,5-2.4c0.8,0.3,1.4,0.8,1.9,1.3
			c0.1-1.4,0.2-2.8,0.3-4.1c0.2-2.3,0.3-4.6,0.3-6.7c0-0.9,0-1.9,0.3-2.8c0.6-1.9,2.5-3.4,4.5-3.5c2.1-0.2,4,1,5,2.8
			c0.2,0.3,0.3,0.7,0.5,1.1c0.2,0.4,0.5,1.3,0.7,1.3c0,0,0.2,0,0.9-0.7l0.3-0.3c1.2-1.2,2.4-2.4,4.1-3.2c2.3-1.1,4.8-0.9,6.4,0.6
			c1.4,1.2,1.8,3.1,2.1,4.4c0.2,0.7,0.3,1.5,0.2,2.4c-0.4,2.2-2.6,3.2-4.1,4c-3.3,1.5-6,3.8-7.7,6.3c1.8-1.1,3.9-1.5,5.7-0.9
			c1.4,0.4,2.5,1.5,3.2,2.9c0.6,1.2,0.6,2.5,0.1,3.6c-0.5,1.3-1.6,2.1-2.6,2.9c-1.3,1-2.7,1.9-4.1,2.8l-0.4,0.3
			c-1.2,0.8-2.4,1.5-3.3,2.5c-0.5,0.6-1,1.3-1.5,2c-0.6,1-1.3,1.9-2.2,2.8C216.3,42.2,214.3,43,212.1,43z M206,21.9
			c-0.5,0-1.1,0.4-1.4,1c-0.3,0.7-0.3,1.8,0.2,2.7c0.3,0.5,0.6,1,0.9,1.5c0.3,0.4,0.6,0.9,0.9,1.3c1.1,1.9,1.2,4.1,1.2,6.2
			c0.1,1.6,0.1,3.1,0.6,4.1v0c0.3,0.5,0.7,1.2,2.1,1.4c1.6,0.3,3.8,0.2,5.2-1.2c0.7-0.6,1.2-1.5,1.8-2.3c0.5-0.8,1.1-1.6,1.8-2.4
			c1.1-1.2,2.5-2.1,3.8-2.9l0.4-0.3c1.3-0.9,2.7-1.8,3.9-2.7c0.7-0.5,1.4-1.1,1.7-1.7c0.2-0.6,0-1.2-0.1-1.5
			c-0.3-0.7-0.9-1.2-1.5-1.4c-1.3-0.4-2.9,0-4.2,1.1c-0.2,0.2-0.5,0.4-0.7,0.6c-0.8,0.7-1.7,1.6-2.9,1.9c-0.5,0.1-0.9,0-1.3-0.3
			c-0.3-0.3-0.5-0.8-0.4-1.3c1.1-5.2,5.2-9.7,11.1-12.5c1.2-0.5,2.5-1.2,2.6-2c0.1-0.3,0-0.8-0.2-1.3c-0.3-1.3-0.6-2.4-1.3-3
			c-0.9-0.8-2.4-0.6-3.4-0.1c-1.2,0.6-2.3,1.6-3.3,2.7l-0.3,0.3c-0.5,0.5-1.7,1.6-3.2,1.4c-1.8-0.2-2.4-1.9-2.8-3
			c-0.1-0.3-0.2-0.6-0.4-0.9c-0.4-0.8-1.4-1.4-2.3-1.3c-0.9,0.1-1.8,0.8-2.1,1.7c-0.2,0.6-0.2,1.2-0.2,2c0,2.2-0.2,4.6-0.3,7
			c-0.2,2.3-0.3,4.6-0.3,6.7c0,0.4-0.2,0.9-0.6,1.1c-0.4,0.3-0.8,0.3-1.2,0.2c-1-0.4-1.7-1.1-2.4-1.7c-0.4-0.5-0.9-0.9-1.3-1
			C206.2,21.9,206.1,21.9,206,21.9z"/>
	</g>
</g>
</svg>
