<?xml version="1.0" encoding="utf-8"?>
<!-- Generator: Adobe Illustrator 26.5.0, SVG Export Plug-In . SVG Version: 6.00 Build 0)  -->
<svg version="1.1" id="레이어_1" xmlns="http://www.w3.org/2000/svg" xmlns:xlink="http://www.w3.org/1999/xlink" x="0px"
	 y="0px" viewBox="0 0 390 390" style="enable-background:new 0 0 390 390;" xml:space="preserve">
<g>
	<g>
		<path style="fill-rule:evenodd;clip-rule:evenodd;fill:#F8C400;" d="M137.7,17.9c-3,3.9-7.4,10.8-9.6,13.3
			c-2.2,2.5-2.2,6.7,1.1,8.3c4.7,2.2,5.3-2.5,8.9-4.2c1.7-0.9,3.5,0.6,4.9,1.7c1.9,1.3,4.4,3.1,6.4,1.3c1.7-1.4,2.4-4.2,1.3-6.3
			c-1.6-2.7-7.1-3.5-6.3-7.4c0.5-2.2,1.9-4.1,1.6-6.4c-0.2-1.7-1.4-3.5-3.1-3.5C140.7,14.9,139.1,16.2,137.7,17.9z"/>
		<path d="M142.6,15.1L142.6,15.1c1.9,0,3.1,1.7,3.3,3.5c0.3,2.4-1.1,4.2-1.6,6.4c-0.8,3.9,4.7,4.7,6.3,7.4c1.1,1.9,0.5,4.7-1.3,6.3
			c-0.6,0.5-1.3,0.8-1.9,0.8c-1.6,0-3.3-1.1-4.5-2c-1.3-0.8-2.5-2-3.9-2c-0.3,0-0.8,0.2-1.1,0.3c-2.8,1.4-3.8,4.9-6.6,4.9
			c-0.6,0-1.4-0.2-2.4-0.6c-3.1-1.6-3.1-5.8-1.1-8.3c2.2-2.7,6.4-9.4,9.6-13.3C139.1,16.2,140.7,15.1,142.6,15.1 M142.6,11
			c-3,0-5.8,1.6-8.2,4.5c-1.6,2-3.3,4.5-5,7.1c-1.7,2.5-3.5,5-4.4,6.1c-2,2.4-2.8,5.6-2.2,8.6c0.6,2.7,2.2,4.7,4.7,6
			c1.4,0.6,2.7,0.9,4.1,0.9c3.5,0,5.3-2.2,6.7-3.6c0.5-0.5,0.8-0.9,1.1-1.3c0.3,0.2,0.5,0.3,0.8,0.5s0.5,0.3,0.8,0.5l0.2,0.2
			c1.6,1.1,3.9,2.7,6.6,2.7c1.7,0,3.3-0.6,4.5-1.7c3.1-2.8,4.1-7.7,2-11.3c-1.1-1.9-2.8-3-4.2-3.9c-0.5-0.3-1.1-0.6-1.4-0.9
			c0.2-0.5,0.3-0.9,0.5-1.4c0.6-1.6,1.3-3.5,1.1-6c-0.3-3.9-3.5-6.9-6.9-7.1C142.9,11,142.7,11,142.6,11L142.6,11z"/>
	</g>
	<g>
		<path style="fill-rule:evenodd;clip-rule:evenodd;fill:#F8C400;" d="M156.7,17.9c-3,3.9-7.4,10.8-9.6,13.3
			c-2.2,2.5-2.2,6.7,1.1,8.3c4.7,2.2,5.3-2.5,8.9-4.2c1.7-0.9,3.5,0.6,4.9,1.7c1.9,1.3,4.4,3.1,6.4,1.3c1.7-1.4,2.4-4.2,1.3-6.3
			c-1.6-2.7-7.1-3.5-6.3-7.4c0.5-2.2,1.9-4.1,1.6-6.4c-0.2-1.7-1.4-3.5-3.1-3.5C159.8,14.9,158.1,16.2,156.7,17.9z"/>
		<path d="M161.7,15.1L161.7,15.1c1.9,0,3.1,1.7,3.3,3.5c0.3,2.4-1.1,4.2-1.6,6.4c-0.8,3.9,4.7,4.7,6.3,7.4c1.1,1.9,0.5,4.7-1.3,6.3
			c-0.6,0.5-1.3,0.8-1.9,0.8c-1.6,0-3.3-1.1-4.5-2c-1.3-0.8-2.5-2-3.9-2c-0.3,0-0.8,0.2-1.1,0.3c-2.8,1.4-3.8,4.9-6.6,4.9
			c-0.6,0-1.4-0.2-2.4-0.6c-3.1-1.6-3.1-5.8-1.1-8.3c2.2-2.7,6.4-9.4,9.6-13.3C158.1,16.2,159.7,15.1,161.7,15.1 M161.7,11
			c-3,0-5.8,1.6-8.2,4.5c-1.6,2-3.3,4.5-5,7.1c-1.7,2.5-3.5,5-4.4,6.1c-2,2.4-2.8,5.6-2.2,8.6c0.6,2.7,2.2,4.7,4.7,6
			c1.4,0.6,2.7,0.9,4.1,0.9c3.5,0,5.3-2.2,6.7-3.6c0.5-0.5,0.8-0.9,1.1-1.3c0.3,0.2,0.5,0.3,0.8,0.5s0.5,0.3,0.8,0.5l0.2,0.2
			c1.6,1.1,3.9,2.7,6.6,2.7c1.7,0,3.3-0.6,4.5-1.7c3.1-2.8,4.1-7.7,2-11.3c-1.1-1.9-2.8-3-4.2-3.9c-0.5-0.3-1.1-0.6-1.4-0.9
			c0.2-0.5,0.3-0.9,0.5-1.4c0.6-1.6,1.3-3.5,1.1-6c-0.3-3.9-3.5-6.9-6.9-7.1C161.8,11,161.7,11,161.7,11L161.7,11z"/>
	</g>
	<g>
		<path style="fill:#F8C400;" d="M206.2,40.3c0.2,1.3,0.2,2-0.2,2.2c-2,0.3-4.7-0.3-5.5,2c-0.6,1.9,0.5,4.2,0.5,6.1
			c0.2,3.1,3.8,2.2,5.8,2.5c0.9,0.2,0.6,10.5,1.7,11.8c1.7,2.2,5.8,1.6,7.7-0.2c1.9-1.7,1.9-7.7,1.9-10.2c-0.2-3.8-0.3-7.4-0.2-11
			c0-3.8,1.1-8.5-0.3-12.1c-0.8-1.9-8.5-1.3-10.2-0.6C204.8,31.8,205.9,37.2,206.2,40.3z"/>
		<path d="M213,30.3c2.2,0,4.2,0.3,4.5,1.3c1.4,3.6,0.3,8.3,0.3,12.1s0,7.4,0.2,11c0.2,2.4,0,8.3-1.9,10.2c-1.1,0.9-2.7,1.6-4.2,1.6
			c-1.3,0-2.5-0.5-3.3-1.4c-0.9-1.3-0.6-11.6-1.7-11.8c-2-0.3-5.6,0.6-5.8-2.5c0-1.9-1.1-4.2-0.5-6.1c0.8-2.4,3.5-1.7,5.5-2
			c0.3,0,0.3-0.9,0.2-2.2c-0.5-3.1-1.4-8.5,1.1-9.4C208.3,30.6,210.8,30.3,213,30.3 M213,26.2c-2.5,0-5.5,0.3-6.9,0.9
			c-5,1.7-4.5,7.5-4.1,11.8c-1.9,0.5-4.1,1.4-5.2,4.4c-0.8,2.2-0.3,4.4,0,6.1c0.2,0.6,0.3,1.1,0.3,1.6c0,2.7,1.3,5.8,6.6,6.3
			c0,0.6,0.2,1.4,0.2,2c0.3,4.7,0.5,6.9,1.7,8.3c1.6,1.9,3.8,3,6.6,3c2.7,0,5.3-0.9,7.1-2.7c2.4-2.2,3.5-6.6,3.1-13.3
			c-0.2-3.8-0.3-7.2-0.2-10.8c0-0.9,0.2-2,0.2-3.1c0.3-3.3,0.6-7.1-0.8-10.5C219.9,26.2,214.9,26.2,213,26.2L213,26.2z"/>
	</g>
	<g>
		<path style="fill:#F8C400;" d="M232,32.3c0-1.9,0.3-3.6-0.5-5.3c-1.4-3.6-6.9-1.7-9.1-0.6c-1.6,0.8-1.6-0.2-1.7,1.7
			c0,0.2,0,0.2,0,0.3c-0.5,13.3,0.9,27,1.7,40.3c0.2,2.8,0.2,3.6,2.4,4.9c2.2,1.4,5.8-0.2,6.7-3.1c0.6-1.6,0.3-1.9,0.5-3.6
			C232.6,55.4,232.1,43.9,232,32.3z"/>
		<path d="M227.9,24.9c1.6,0,3,0.5,3.6,2c0.6,1.7,0.5,3.5,0.5,5.3c0.2,11.6,0.6,23.1,0.2,34.7c-0.2,1.7,0.2,2-0.5,3.6
			c-0.8,2.2-3,3.6-5,3.6c-0.6,0-1.3-0.2-1.9-0.5c-2.2-1.4-2.2-2-2.4-4.9c-0.8-13.3-2.2-27-1.7-40.3c0-0.2,0-0.2,0-0.3
			c0-2,0-0.9,1.7-1.7C223.7,25.7,226,24.9,227.9,24.9 M227.9,20.9c-2.8,0-5.8,1.1-7.2,1.9c-3.8,0.6-3.9,3.9-3.9,5.2v0.3
			c-0.3,9.9,0.3,19.9,0.9,29.7c0.3,3.6,0.5,7.5,0.8,11.1v0.2c0.2,3.5,0.5,5.6,4.2,8c1.1,0.8,2.5,1.1,4.1,1.1c3.8,0,7.4-2.5,8.8-6.3
			c0.6-1.7,0.6-2.7,0.6-3.8c0-0.3,0-0.6,0-1.1c0.5-8.9,0.3-17.9,0.2-26.7c0-2.7-0.2-5.5-0.2-8.2c0-0.5,0-0.8,0-1.1
			c0-1.6,0.2-3.5-0.8-5.6C234,22.6,231.3,20.9,227.9,20.9L227.9,20.9z"/>
	</g>
	<g>
		<path style="fill:#F8C400;" d="M199.8,37.5c-4.2-3.8-22.6-6.3-23.1,1.4c0,1.4-1.4,5.2-0.3,6.3c0.6,0.6,3.3,0.3,4.2,0.5
			c2,0.2,7.8-0.9,8,1.9c0.2,6.3,0.6,12.6,0.9,18.8c5.2,2,10.7,2.8,11.5-3.6c0.3-3.1-0.3-14.7,0.2-17.9
			C201.5,42.2,202,39.4,199.8,37.5z"/>
		<path d="M186,33.9c5.3,0,11.6,1.6,13.8,3.6c2,1.9,1.7,4.7,1.3,7.2c-0.5,3.1,0.2,14.7-0.2,17.9c-0.3,3.8-2.5,5.2-5.2,5.2
			c-1.9,0-4.1-0.6-6.1-1.4c-0.3-6.3-0.9-12.6-0.9-18.8c0-1.7-2-2-4.2-2c-1.3,0-2.5,0.2-3.3,0.2c-0.2,0-0.3,0-0.5,0c0,0-0.2,0-0.3,0
			c-0.5,0-0.9,0-1.6,0c-0.9,0-2,0-2.4-0.5c-1.1-1.1,0.3-4.9,0.3-6.3C177.1,35.3,181.3,33.9,186,33.9 M186,29.8
			c-11.9,0-13.2,6.7-13.2,8.8c0,0.3-0.2,0.6-0.2,1.1c-0.5,2.5-1.3,6,0.9,8.3c1.4,1.4,3.3,1.7,5.2,1.7c0.3,0,0.8,0,1.1,0
			c0.2,0,0.3,0,0.5,0s0.5,0,0.6,0c0.5,0,0.9,0,1.6,0c0.6,0,1.3,0,1.7,0h0.2c0.2,4.2,0.3,8.5,0.6,12.6c0.2,1.6,0.2,3,0.3,4.5
			c0.2,1.6,1.1,2.8,2.5,3.5c3,1.3,5.5,1.7,7.7,1.7c5.2,0,8.6-3.3,9.3-8.8c0.2-1.7,0.2-4.9,0-8.5c0-3.3-0.2-7.8,0-9.3
			c0.5-2.8,1.1-7.5-2.7-10.8C199,31.5,191.7,29.8,186,29.8L186,29.8z"/>
	</g>
	<g>
		<path style="fill:#F8C400;" d="M97.4,15.1c-2,0-4.4,0.8-5.2,2.2c-0.8,1.4-0.2,4.2-0.2,6c0.3,4.5,1.3,9.1,1.4,13.6
			c0.2,5.2,0.2,10.5,0.5,15.7c0.2,2,0.2,4.1,1.6,5.6c5.5-2.2,8.8-1.3,8.5-8c0-2.2-1.6-8.9-0.5-10.7c0.6-0.9,2.2-0.9,3.3-1.3
			c3.6-1.1,6.3-2.2,4.2-6.4c-1.9-3.8-5.5,0.8-8.5,0.3c0.2,0,0.3-9.9,0.3-10.7c-0.2-1.7-0.5-3.6-1.6-5
			C100.5,15.5,98.9,15.1,97.4,15.1z"/>
		<path d="M97.2,15.1L97.2,15.1c1.7,0,3.1,0.5,3.9,1.4c1.1,1.3,1.4,3.3,1.6,5c0.2,0.8-0.2,10.7-0.3,10.7l0,0c0.2,0,0.3,0,0.5,0
			c2,0,4.2-1.9,6-1.9c0.8,0,1.6,0.3,2,1.6c2,4.2-0.6,5.2-4.2,6.4c-1.1,0.3-2.7,0.3-3.3,1.3c-1.1,1.9,0.3,8.6,0.5,10.7
			c0.2,6.6-3,5.8-8.5,8c-1.4-1.6-1.4-3.6-1.6-5.6c-0.5-5.2-0.3-10.5-0.5-15.7c-0.2-4.5-1.1-9.1-1.4-13.6c-0.2-1.6-0.8-4.4,0.2-6
			C93,15.7,95.2,15.1,97.2,15.1 M97.2,11c-3,0-6.7,1.1-8.5,4.2c-1.4,2.4-0.9,5.2-0.8,7.2c0,0.3,0.2,0.6,0.2,0.9c0.2,2,0.5,4.1,0.6,6
			c0.3,2.7,0.6,5,0.8,7.5c0,1.9,0.2,3.6,0.2,5.5c0,3.5,0.2,6.9,0.5,10.4v0.5c0.2,2.2,0.3,5,2.5,7.5c0.8,0.9,1.9,1.4,3,1.4
			c0.5,0,0.9-0.2,1.4-0.3c0.9-0.5,1.9-0.6,2.8-0.9c3.6-1.1,8.5-2.5,8.2-10.8c0-0.8-0.2-1.9-0.3-3.1c-0.2-1.1-0.5-3.3-0.5-4.7
			c0.3,0,0.6-0.2,0.9-0.2c2.7-0.8,5.8-1.9,7.2-5c0.8-2,0.6-4.4-0.6-6.9c-1.3-2.4-3.3-3.8-5.6-3.8c-0.8,0-1.6,0.2-2.2,0.3
			c0.2-4.7,0-5.3,0-5.6c-0.3-2.4-0.8-5-2.5-7.2c-1.6-1.7-3.9-2.8-6.7-2.8L97.2,11L97.2,11z"/>
	</g>
	<g>
		<path style="fill:#F8C400;" d="M76.2,22.1c-2.2-0.2-4.5,0.2-6,0.2c-3.8-0.2-7.5,0.8-10.8,2.8c-2,1.3-2.5,3.5-2.7,5.8
			c-0.3,2.7-0.5,3,1.7,3.5c4.1,0.9,11.8-4.5,7.7,2.8c-2,3.8-4.7,6.9-7.1,10.4c-1.1,1.4-2.8,3.8-2.7,5.6c0.2,2.5,2.8,5.8,5.3,5
			c2-0.6,3.9-4.5,5.2-6.1c0.6-0.8,3.6-6.9,4.9-7.1c1.3-0.2,1.9,1.6,2.4,2.2c1.3,1.6,3,2.7,4.5,3.9c0.8,0.6,1.6,1.3,2.4,1.9
			c0.3,0.2,1.1,1.3,1.4,1.3c2.4-0.8,5.3-6.3,5-8.6c-0.3-3.5-6.3-5.8-8.5-8.3c2.8-2.8,6.4-8.2,3.9-12.4
			C81.5,22.7,78.9,22.3,76.2,22.1z"/>
		<path d="M75.1,22.1c0.3,0,0.8,0,1.1,0c2.7,0.2,5.3,0.6,6.6,2.5c2.7,4.1-0.9,9.4-3.9,12.4c2,2.5,8,4.7,8.5,8.3
			c0.3,2.4-2.7,7.8-5,8.6l0,0c-0.5,0-1.1-0.9-1.4-1.3c-0.8-0.6-1.6-1.3-2.4-1.9c-1.6-1.3-3.3-2.2-4.5-3.9c-0.6-0.8-1.1-2.2-2.2-2.2
			h-0.2c-1.3,0.2-4.2,6.3-4.9,7.1c-1.1,1.7-3,5.5-5.2,6.1C61.3,58,61.1,58,60.8,58c-2.2,0-4.4-3-4.5-5c-0.2-1.9,1.6-4.2,2.7-5.6
			c2.5-3.5,5-6.6,7.1-10.4c1.7-3,1.4-3.9,0.2-3.9c-1.6,0-4.4,1.3-6.6,1.3c-0.3,0-0.8,0-1.1-0.2c-2.2-0.5-2-0.8-1.7-3.5
			c0.3-2.4,0.6-4.5,2.7-5.8c3.1-1.9,6.6-2.8,10.2-2.8c0.2,0,0.3,0,0.6,0c0.2,0,0.3,0,0.5,0C71.8,22.3,73.4,22.1,75.1,22.1
			 M75.1,18.2c-0.9,0-1.9,0-2.7,0c-0.6,0-1.3,0-1.7,0h-0.3c-0.2,0-0.5,0-0.6,0c-4.5,0-8.8,1.1-12.4,3.3c-3.9,2.4-4.4,6.6-4.5,8.8
			v0.5c-0.3,3-0.3,6.3,4.9,7.4c0.6,0.2,1.3,0.2,2,0.2c0.3,0,0.6,0,0.9,0c-0.9,1.3-1.9,2.5-2.8,3.9c-0.6,0.9-1.4,1.9-2,2.8l-0.5,0.2
			c-1.4,1.9-3.5,4.9-3.1,8c0.3,4.2,4.1,8.8,8.5,8.8c0.6,0,1.4-0.2,2-0.3c3-0.9,4.9-4.1,6.4-6.4c0.3-0.5,0.5-0.9,0.8-1.3
			c0.3-0.3,0.5-0.8,1.1-1.7c0.2-0.3,0.5-0.9,0.9-1.6c1.1,1.1,2.2,1.9,3.3,2.7c0.3,0.2,0.6,0.5,0.9,0.6c0.6,0.5,1.3,0.9,1.9,1.4l0,0
			c0.6,0.8,2,2.4,4.1,2.4c0.5,0,0.9,0,1.3-0.2c4.2-1.4,8.3-8.8,7.8-12.9s-3.9-6.4-6.7-8.5c3-4.2,4.4-9.4,1.6-14
			c-2.5-4.1-8-4.2-9.7-4.4C75.9,18.2,75.4,18.2,75.1,18.2L75.1,18.2z"/>
	</g>
	<g>
		<path style="fill:#F8C400;" d="M96.9,72.9c-2.4-1.1-4.7,0.5-7.1,0.2c1.6-2.4,6.4-4.7,6.6-7.2s0.3-6.7-2.4-8.6
			c-1.7-1.3-6.3-1.7-10.8-1.6c-6.1,0.3-12.4,1.9-13.6,3.9c-0.9,1.4,0,3.9,1.4,5c2.7,1.9,6.9-0.6,9.9-0.5c3.8,0.2,4.1,0.5,2.2,2.5
			c-2.5,2.7-7.7,1.7-9.3,5.2c-1.7,4.1,0.9,7.1,6,8c2.7,0.6,15.8,1.3,17.9-0.6C99.3,78.1,98.8,73.9,96.9,72.9z"/>
		<path d="M85.6,55.8c3.8,0,6.9,0.5,8.5,1.6c2.5,1.9,2.5,6.1,2.4,8.6c-0.2,2.5-5,4.9-6.6,7.2c0.2,0,0.5,0,0.6,0
			c1.6,0,3.1-0.6,4.5-0.6c0.6,0,1.3,0.2,1.9,0.5c1.9,0.9,2.5,5,0.9,6.4c-0.9,0.9-4.9,1.3-8.8,1.3s-7.8-0.3-9.3-0.6
			c-5.2-1.1-7.7-3.9-6-8c1.4-3.5,6.7-2.5,9.3-5.2c1.9-2,1.6-2.4-2.2-2.5c-0.2,0-0.2,0-0.3,0c-2.2,0-4.9,1.1-7.1,1.1
			c-0.9,0-1.7-0.2-2.5-0.8c-1.4-1.1-2.4-3.5-1.4-5c1.3-2.2,7.7-3.6,13.6-3.9C83.9,55.8,84.8,55.8,85.6,55.8 M85.6,51.8L85.6,51.8
			c-0.9,0-1.7,0-2.7,0c-4.2,0.2-14.1,1.3-16.9,6c-2,3.5-0.3,8.2,2.5,10.2c0.8,0.5,1.6,0.9,2.4,1.3c-0.3,0.3-0.5,0.8-0.8,1.3
			c-1.6,3.5-0.8,6.3,0,7.8c1.1,2,3.5,4.5,8.8,5.6c1.9,0.3,6.1,0.6,10,0.6c7.8,0,10.2-1.1,11.5-2.4c1.7-1.6,2.5-4.2,2-7.1
			c-0.3-2.4-1.6-4.4-3.3-5.5c0.6-0.9,1.1-2.2,1.3-3.5c0.2-2.2,0.6-8.6-3.9-12.1C94.2,52.6,90.6,51.8,85.6,51.8L85.6,51.8z"/>
	</g>
	<g>
		<path style="fill:#F8C400;" d="M163.6,72.5c-2.4-1.1-4.7,0.5-7.2,0.2c1.6-2.4,6.4-4.7,6.6-7.2c0.2-2.5,0.3-6.7-2.4-8.6
			c-1.7-1.3-6.3-1.7-11-1.6c-6.1,0.3-12.4,1.9-13.8,4.1c-0.9,1.4,0,3.9,1.4,5c2.7,1.9,6.9-0.6,10-0.5c3.8,0.2,4.1,0.5,2.2,2.5
			c-2.5,2.7-7.7,1.7-9.3,5.2c-1.7,4.1,0.9,7.1,6,8c2.7,0.6,16,1.3,17.9-0.6C166.1,77.7,165.6,73.4,163.6,72.5z"/>
		<path d="M152.3,55.2c3.8,0,7.1,0.5,8.5,1.6c2.5,1.9,2.5,6.1,2.4,8.6c-0.2,2.7-5,4.9-6.6,7.2c0.2,0,0.5,0,0.6,0
			c1.6,0,3.1-0.6,4.7-0.6c0.6,0,1.3,0.2,1.9,0.5c1.9,0.9,2.5,5,0.9,6.4c-0.9,0.9-4.9,1.3-8.8,1.3c-3.9,0-7.8-0.3-9.3-0.6
			c-5.2-1.1-7.8-3.9-6-8c1.4-3.5,6.7-2.5,9.3-5.2c1.9-2,1.6-2.4-2.2-2.5c-0.2,0-0.2,0-0.3,0c-2.2,0-4.9,1.1-7.1,1.1
			c-0.9,0-1.7-0.2-2.5-0.8c-1.4-1.1-2.4-3.5-1.4-5c1.3-2.2,7.7-3.6,13.8-4.1C150.7,55.2,151.5,55.2,152.3,55.2 M152.3,51.3
			L152.3,51.3c-0.9,0-1.7,0-2.7,0c-4.2,0.2-14.3,1.3-16.9,6c-2,3.5-0.3,8.2,2.5,10.2c0.8,0.5,1.6,0.9,2.4,1.3
			c-0.3,0.5-0.5,0.8-0.8,1.3c-1.6,3.5-0.8,6.3,0,7.8c1.1,2,3.5,4.5,8.8,5.6c1.9,0.3,6.1,0.6,10,0.6c7.8,0,10.2-1.1,11.5-2.4
			c1.7-1.6,2.5-4.2,2-7.1c-0.3-2.5-1.7-4.7-3.5-5.6c0.6-0.9,1.1-2.2,1.3-3.5c0.2-2.2,0.6-8.8-3.9-12.1
			C161.1,52.1,157.5,51.3,152.3,51.3L152.3,51.3z"/>
	</g>
	<g>
		<path style="fill:#F8C400;" d="M169.1,44.4c-1.4-2.4-4.5-2.7-7.5-2.5c-9.3,0.5-18.5,0.6-27.8,0.9c-4.7,0.2-5.3,3-5,6.3
			c0.3,2.8-0.6,6.3,4.1,6.1c5.3-0.3,10.8-0.9,16.2-1.4c4.4-0.3,9.3-0.6,13.8-1.1s6.9-0.3,7.1-4.2C170,47.1,169.9,45.5,169.1,44.4z"
			/>
		<path d="M162.9,41.9c2.5,0,4.9,0.5,6.1,2.5c0.8,1.3,0.8,2.7,0.8,4.2c-0.2,4.1-2.5,3.9-7.1,4.2c-4.5,0.5-9.4,0.8-13.8,1.1
			c-5.3,0.3-10.8,1.1-16.2,1.4c-0.2,0-0.3,0-0.5,0c-4.2,0-3.3-3.5-3.6-6.1c-0.3-3.3,0.3-6.3,5-6.3c9.3-0.3,18.5-0.5,27.8-0.9
			C162.2,41.9,162.6,41.9,162.9,41.9 M162.9,37.8c-0.5,0-1.1,0-1.6,0c-7.1,0.3-14.3,0.6-21.3,0.8c-2.2,0-4.2,0.2-6.4,0.2
			c-3,0.2-5.3,1.1-6.9,2.8c-2.2,2.5-2.2,5.6-2,7.8c0,0.3,0,0.8,0,1.3c0.2,5.6,2.7,8.6,7.5,8.6c0.2,0,0.5,0,0.6,0
			c3.1-0.2,6.3-0.5,9.4-0.8c2.4-0.2,4.5-0.5,6.7-0.6c5.2-0.3,9.9-0.8,14-1.1l0.9-0.2c3.8-0.3,9.4-0.8,9.7-8c0-1.9,0-4.2-1.3-6.4
			C170.8,39.2,167.7,37.8,162.9,37.8L162.9,37.8z"/>
	</g>
	<g>
		<path style="fill:#FFEA88;" d="M206.2,40.3c0.2,1.3,0.2,2-0.2,2.2c-2,0.3-4.7-0.3-5.5,2c-0.6,1.9,0.5,4.2,0.5,6.1
			c0.2,3.1,3.8,2.2,5.8,2.5c0.9,0.2,0.6,10.5,1.7,11.8c1.7,2.2,5.8,1.6,7.7-0.2c1.9-1.7,1.9-7.7,1.9-10.2c-0.2-3.8-0.3-7.4-0.2-11
			c0-3.8,1.1-8.5-0.3-12.1c-0.8-1.9-8.5-1.3-10.2-0.6C204.8,31.8,205.9,37.2,206.2,40.3z"/>
		<path style="fill:#FFCF00;" d="M213,32.9c1.3,0,1.9,0.2,2.4,0.2c0.5,1.9,0.3,4.4,0.2,6.9c-0.2,1.1-0.2,2.4-0.2,3.6
			c0,3.8,0,7.4,0.2,11.1c0.2,4.4-0.5,7.5-0.9,8.2c-0.6,0.5-1.6,0.9-2.5,0.9c-0.2,0-0.8,0-1.1-0.3c-0.2-0.9-0.3-3.3-0.5-4.9
			c-0.3-5.2-0.5-7.5-3-8c-0.8-0.2-1.6-0.2-2.2-0.2c-0.3,0-0.9,0-1.4,0c0-0.8-0.2-1.7-0.3-2.5c-0.2-0.9-0.5-1.9-0.3-2.5
			c0.3-0.2,1.1-0.2,1.6-0.2c0.6,0,1.3,0,2-0.2c2.8-0.5,2.5-3.8,2.4-5.2l-0.2-0.9c-0.2-1.3-0.6-4.5-0.3-5.6
			C209.2,33.3,211.1,32.9,213,32.9 M208.6,33.3L208.6,33.3L208.6,33.3 M203.3,45.3L203.3,45.3L203.3,45.3 M213,30.3
			c-2.4,0-4.7,0.3-5.6,0.6c-2.5,0.9-1.6,6.3-1.1,9.4c0.2,1.3,0.2,2-0.2,2.2c-2,0.3-4.7-0.3-5.5,2c-0.6,1.9,0.5,4.2,0.5,6.1
			c0.2,3.1,3.8,2.2,5.8,2.5c0.9,0.2,0.6,10.5,1.7,11.8c0.8,0.9,2,1.4,3.3,1.4c1.6,0,3.3-0.6,4.2-1.6C218,63,218,57,218,54.5
			c-0.2-3.8-0.3-7.4-0.2-11c0-3.8,1.1-8.5-0.3-12.1C217.2,30.6,215.2,30.3,213,30.3L213,30.3z"/>
	</g>
	<g>
		<path style="fill:#FFEA88;" d="M232,32.3c0-1.9,0.3-3.6-0.5-5.3c-1.4-3.6-6.9-1.7-9.1-0.6c-1.6,0.8-1.6-0.2-1.7,1.7
			c0,0.2,0,0.2,0,0.3c-0.5,13.3,0.9,27,1.7,40.3c0.2,2.8,0.2,3.6,2.4,4.9c2.2,1.4,5.8-0.2,6.7-3.1c0.6-1.6,0.3-1.9,0.5-3.6
			C232.6,55.4,232.1,43.9,232,32.3z"/>
		<path style="fill:#FFCF00;" d="M223.5,27.4L223.5,27.4L223.5,27.4 M227.9,27.6c0.9,0,1.1,0.3,1.1,0.5c0.3,0.8,0.3,1.7,0.3,3
			c0,0.5,0,0.9,0,1.4c0,2.8,0.2,5.5,0.2,8.3c0.2,8.6,0.3,17.6,0,26.2c0,0.6,0,1.1,0,1.4c0,0.6,0,0.8-0.3,1.4
			c-0.5,1.1-1.6,1.9-2.4,1.9c-0.2,0-0.3,0-0.5-0.2c-0.8-0.5-0.9-0.6-0.9-0.6c-0.2-0.2-0.2-1.3-0.2-2v-0.2c-0.2-3.8-0.5-7.5-0.8-11.3
			c-0.6-9.4-1.3-19.1-0.9-28.6c0,0,0.2,0,0.2-0.2C224.8,28.2,226.6,27.6,227.9,27.6 M227.9,24.9c-2,0-4.2,0.9-5.5,1.4
			c-1.6,0.8-1.6-0.2-1.7,1.7c0,0.2,0,0.2,0,0.3c-0.5,13.3,0.9,27,1.7,40.3c0.2,2.8,0.2,3.6,2.4,4.9c0.5,0.3,1.3,0.5,1.9,0.5
			c1.9,0,4.2-1.4,5-3.6c0.6-1.6,0.3-1.9,0.5-3.6c0.6-11.6,0.2-23.1-0.2-34.7c0-1.9,0.3-3.6-0.5-5.3
			C230.9,25.4,229.5,24.9,227.9,24.9L227.9,24.9z"/>
	</g>
	<g>
		<path style="fill:#FFEA88;" d="M199.8,37.5c-4.2-3.8-22.6-6.3-23.1,1.4c0,1.4-1.4,5.2-0.3,6.3c0.6,0.6,3.3,0.3,4.2,0.5
			c2,0.2,7.8-0.9,8,1.9c0.2,6.3,0.6,12.6,0.9,18.8c5.2,2,10.7,2.8,11.5-3.6c0.3-3.1-0.3-14.7,0.2-17.9
			C201.5,42.2,202,39.4,199.8,37.5z"/>
		<path style="fill:#FFCF00;" d="M186,36.5c5.3,0,10.7,1.7,12.1,3c0.9,0.8,0.8,2.5,0.5,4.9c-0.3,1.9-0.2,6-0.2,10.4
			c0,3.1,0.2,6.4,0,7.7c-0.3,2.5-1.3,2.7-2.5,2.7c-0.9,0-2.2-0.3-3.6-0.6c0-0.9-0.2-1.9-0.2-2.8c-0.3-4.7-0.6-9.6-0.6-14.3
			c0-1.7-0.9-4.5-6.9-4.5c-0.8,0-1.4,0-2,0c-0.5,0-0.9,0-1.3,0c-0.2,0-0.2,0-0.3,0c-0.2,0-0.3,0-0.5,0s-0.5,0-0.8,0s-0.6,0-0.9,0
			l0,0c0.2-0.6,0.3-1.4,0.3-1.9c0.2-0.8,0.3-1.6,0.3-2C179.6,37.2,183,36.5,186,36.5 M186,33.9c-4.9,0-9.1,1.3-9.3,4.9
			c0,1.4-1.4,5.2-0.3,6.3c0.3,0.3,1.4,0.5,2.4,0.5c0.6,0,1.3,0,1.6,0c0.2,0,0.2,0,0.3,0s0.3,0,0.5,0c0.9,0,2.2-0.2,3.3-0.2
			c2,0,4.1,0.3,4.2,2c0.2,6.3,0.6,12.6,0.9,18.8c2,0.8,4.2,1.4,6.1,1.4c2.7,0,4.9-1.3,5.2-5.2c0.3-3.1-0.3-14.7,0.2-17.9
			c0.3-2.5,0.8-5.3-1.3-7.2C197.6,35.6,191.5,33.9,186,33.9L186,33.9z"/>
	</g>
	<g>
		<path style="fill:#F8C400;" d="M250.8,20.1c-1.3,0.2-2.7,0.5-3.9,0.8c-7.2,2.5-12.9,10-9.7,18.7c1.4,4.2,4.1,8.3,8,10.5
			c3.5,2,8.9,2.4,12.9,0.9c0.6-0.2,1.3-0.5,1.7-0.8C274.2,42.5,267.1,18.5,250.8,20.1z M253.9,38.4c-0.6,0.8-1.3,1.3-1.9,1.4
			c-1.4,0.5-2.7-0.2-3.6-1.9c-0.9-1.9,0-4.2,2-5c0.3-0.2,0.6-0.2,1.1-0.2h0.2C254.6,32.8,255.7,36.4,253.9,38.4z"/>
		<path d="M252.4,20.1c15.1,0,21.3,22.7,7.5,30.4c-0.5,0.3-1.1,0.6-1.7,0.8c-1.6,0.6-3.5,0.8-5.3,0.8c-2.8,0-5.5-0.6-7.5-1.7
			c-3.9-2.4-6.6-6.3-8-10.5c-3.1-8.6,2.5-16.2,9.7-18.7c1.3-0.5,2.5-0.8,3.9-0.8C251.4,20.1,251.9,20.1,252.4,20.1 M251.3,40
			c0.3,0,0.6,0,0.8-0.2c0.6-0.2,1.3-0.8,1.9-1.4c1.7-2,0.5-5.6-2.4-5.6c0,0,0,0-0.2,0l0,0c-0.3,0-0.8,0-1.1,0.2c-2,0.6-3,3.1-2,5
			C249.2,39.2,250.2,40,251.3,40 M252.4,16c-0.6,0-1.3,0-1.9,0.2c-1.6,0.2-3.3,0.5-4.7,1.1c-5.2,1.7-9.4,5.5-11.6,10
			c-2,4.2-2.4,9.1-0.6,13.6c2,5.6,5.5,10,9.9,12.7c2.5,1.6,6,2.4,9.6,2.4c2.4,0,4.7-0.3,6.7-1.1c0.8-0.3,1.6-0.6,2.4-1.1
			c7.8-4.4,11.5-13.3,8.9-22.6C268.5,22.1,261.2,16,252.4,16L252.4,16z"/>
	</g>
	<g>
		<path style="fill:#F8C400;" d="M266.6,60.9c-1.9-0.3-1.1-6.9-1.6-8.2c-0.9-2.4-6,0-7.7,0.2c-0.2,0-0.3,0-0.5,0.2
			c-2.7,0.9,2.4,6.4-0.2,7.5c-0.2,0-0.2,0.2-0.3,0.2c-1.1,0.5-2,0.2-3.8,0.2c0.3-0.2-0.8-5.8-0.8-6.4c0-0.5-2.8-0.5-5,0.3
			c-1.4,0.5-2.5,1.4-2.4,2.7c0.3,1.6,0.8,3.5,0.2,3.8c0,0-0.2,0-0.3,0.2c-1.1,0.3-3.3,0.5-4.7,0.9c-0.6,0.2-1.1,0.5-1.3,0.9
			c-0.5,1.7,0.3,5.6,1.1,7.2c0.9,1.9,2,1.4,4.1,1.4c5,0.3,10,0.2,15.1,0.2c4.2,0,8.6,0.2,12.9-0.8c0.6-0.2,1.1-0.3,1.4-0.3
			c1.4-0.5,1.3-1.3,1.1-3.5c-0.2-2,0.2-5.2-2-6.1C270.4,60.4,268.2,61.2,266.6,60.9z"/>
		<path d="M263,51.6c0.9,0,1.7,0.3,2,1.1c0.5,1.3-0.5,7.7,1.6,8.2c0.3,0,0.6,0,0.9,0c0.8,0,1.7-0.2,2.5-0.2c0.6,0,1.4,0,1.9,0.3
			c2.2,0.9,1.9,4.1,2,6.1c0.2,2.4,0.3,3-1.1,3.5c-0.3,0.2-0.8,0.3-1.4,0.3c-3.1,0.6-6.4,0.8-9.6,0.8c-1.1,0-2.2,0-3.3,0
			c-0.3,0-0.5,0-0.8,0c-2.7,0-5.3,0-8.2,0c-2,0-4.1,0-6.1-0.2s-3.1,0.3-4.1-1.4c-0.8-1.6-1.6-5.5-1.1-7.2c0.2-0.5,0.6-0.8,1.3-0.9
			c1.4-0.5,3.6-0.6,4.7-0.9c0.2,0,0.2,0,0.3-0.2c0.5-0.3,0.2-2.2-0.2-3.8c-0.3-1.3,0.8-2.2,2.4-2.7c1.3-0.5,2.7-0.6,3.8-0.6
			c0.8,0,1.3,0.2,1.3,0.3c0,0.6,1.1,6.3,0.8,6.4c0.3,0,0.5,0,0.6,0c0.6,0,1.1,0,1.7,0c0.5,0,0.9,0,1.4-0.2c0.2,0,0.2,0,0.3-0.2
			c2.5-1.1-2.5-6.6,0.2-7.5c0.2,0,0.3-0.2,0.5-0.2C258.5,52.7,261.2,51.6,263,51.6 M263,47.7L263,47.7c-1.7,0-3.6,0.5-5,0.9
			c-0.5,0.2-0.9,0.3-1.1,0.3c-0.5,0-0.9,0.2-1.4,0.3c-0.8,0.3-1.6,0.8-2.2,1.4c-0.8-0.3-1.6-0.5-2.8-0.5c-1.7,0-3.6,0.3-5,0.8
			c-4.2,1.4-5.3,4.5-5,6.9c-0.6,0.2-1.4,0.3-2,0.5c-2.5,0.9-3.5,2.5-3.8,3.8c-0.9,3.1,0.5,8.2,1.4,10c1.7,3.8,5,3.8,6.4,3.8
			c0.3,0,0.6,0,0.9,0c1.9,0.2,3.9,0.2,6.4,0.2c1.4,0,2.7,0,4.1,0c1.3,0,2.7,0,3.9,0h0.8h1.1c0.8,0,1.4,0,2.2,0
			c3.3,0,6.9-0.2,10.4-0.8c0.9-0.2,1.4-0.3,2-0.5c4.2-1.6,3.9-5.2,3.8-7.2v-0.5c0-0.3,0-0.6,0-0.9c-0.2-2.2-0.3-6.7-4.5-8.6
			c-1.4-0.6-2.7-0.6-3.5-0.6c-0.3,0-0.5,0-0.8,0c0-0.6,0-1.1,0-1.6c0-1.7,0-2.8-0.5-3.9C267.9,48.9,265.7,47.7,263,47.7L263,47.7
			L263,47.7z"/>
	</g>
	<g>
		<path style="fill:#F8C400;" d="M309.6,48.3c-0.6-0.2-1.1,0-1.4,0c-1.4,0.5-1.9,2.2-2.7,3.5c-0.6,1.1-1.6,1.9-2.7,2.2
			c-1.4,0.5-2.8,0.2-3.3-1.9c-0.8-2.5,0.5-5.2-0.2-7.7c-0.9-3.9-4.4-6.6-8.3-7.2c-2.5-0.3-5.2-0.2-7.5,0.6c-1.6,0.6-3,1.4-4.1,2.4
			c-2.4,2.2-6.4,7.4-4.7,10.8c0.6,1.4,4.9,5.3,6.7,4.7c0.2,0,0.3-0.2,0.5-0.3c1.4-1.4,1.9-3.6,3.1-5.2c0.5-0.5,0.9-0.9,1.6-1.1
			c1.4-0.5,3,0.2,3.6,1.9c1.3,3.1,0.3,6.7,2.5,9.4c1.9,2.4,5.3,4.5,8.5,4.5c1.1,0,2.2-0.2,3.3-0.6c2.5-0.9,4.7-2.7,6.6-4.5
			c1.9-2,5.2-5.5,3.9-8.6C314.5,49.6,311.2,48.5,309.6,48.3z"/>
		<path d="M288.8,37c0.8,0,1.6,0,2.4,0.2c3.9,0.6,7.4,3.3,8.3,7.2c0.6,2.5-0.6,5.2,0.2,7.7c0.5,1.4,1.3,2,2.4,2c0.3,0,0.6,0,0.9-0.2
			c1.1-0.3,2-1.3,2.7-2.2c0.8-1.4,1.3-3,2.7-3.5c0.3-0.2,0.5-0.2,0.8-0.2c0.2,0,0.5,0,0.6,0c1.6,0.3,5,1.3,5.6,3.1
			c1.1,3.1-2,6.6-3.9,8.6c-1.7,1.9-3.9,3.8-6.6,4.5c-1.1,0.3-2.2,0.6-3.3,0.6l0,0c-3.1,0-6.6-2.2-8.5-4.5c-2.2-2.8-1.3-6.4-2.5-9.4
			c-0.5-1.3-1.6-2-2.7-2c-0.3,0-0.6,0-0.9,0.2c-0.6,0.2-1.1,0.6-1.6,1.1c-1.3,1.6-1.7,3.8-3.1,5.2c-0.2,0.2-0.3,0.3-0.5,0.3
			s-0.3,0.2-0.5,0.2c-2,0-5.6-3.5-6.3-4.9c-1.6-3.5,2.4-8.5,4.7-10.8c1.1-1.1,2.5-1.9,4.1-2.4C285.3,37.3,287,37,288.8,37
			 M288.8,33.1L288.8,33.1c-2.2,0-4.4,0.3-6.4,1.1c-2.2,0.8-4.1,1.9-5.5,3.3c-1.4,1.4-8.8,8.6-5.6,15.4c0.9,2,5.6,7.1,9.9,7.1
			c0.6,0,1.3-0.2,1.9-0.3c0.8-0.3,1.4-0.6,2-1.3c1.1-1.1,1.7-2.4,2.2-3.3c0,0.2,0,0.3,0,0.5c0.2,2.2,0.5,5,2.5,7.7
			c2.2,2.8,6.6,6.1,11.6,6.1c1.6,0,3.1-0.3,4.7-0.8c2.8-0.9,5.6-3,8.2-5.6c2.4-2.7,6.7-7.4,4.7-12.9c-1.4-3.9-6.4-5.2-8.6-5.6
			c-0.5-0.2-0.9-0.2-1.4-0.2c-0.8,0-1.4,0.2-2.2,0.3c-1.6,0.5-2.5,1.4-3.1,2.5c0-1.1,0-2.2-0.3-3.5c-1.3-5.3-5.8-9.4-11.6-10.2
			C290.8,33.1,289.9,33.1,288.8,33.1L288.8,33.1z"/>
	</g>
	<g>
		<path style="fill:#FFEA88;" d="M250.8,20.1c-8.9,0.9-17.1,9.4-13.6,19.6c1.4,4.2,4.1,8.3,8,10.5c3.9,2.4,10.7,2.4,14.6,0.2
			C274.2,42.5,267.1,18.5,250.8,20.1z M253.9,38.4c-1.9,2.4-4.2,2-5.6-0.5c-1.1-2.2,0.5-5.2,3.1-5.2h0.2
			C254.6,32.8,255.7,36.4,253.9,38.4z"/>
		<path style="fill:#FFCF00;" d="M252.4,22.7c6.9,0,10.8,5.5,12.1,10.4c1.3,4.7,0.5,11.6-5.8,15.1c-1.4,0.8-3.6,1.3-5.8,1.3
			c-2.4,0-4.5-0.5-6.1-1.4c-3-1.7-5.5-5-6.9-9.1c-1.6-4.4-0.3-7.7,0.9-9.7c2.2-3.5,6.1-5.8,10.4-6.3
			C251.6,22.7,251.9,22.7,252.4,22.7 M251.3,42.7c1.3,0,3.1-0.5,4.9-2.5c1.6-1.9,1.9-4.4,0.8-6.6c-0.9-2-3-3.5-5.2-3.5h-0.3
			c-2.2,0-4.1,1.3-5.2,3.1c-1.1,1.9-1.1,4.1-0.2,6C247.2,41.4,249.1,42.7,251.3,42.7 M252.4,20.1c-0.5,0-0.9,0-1.6,0
			c-8.9,0.9-17.1,9.4-13.6,19.6c1.4,4.2,4.1,8.3,8,10.5c2,1.3,4.7,1.7,7.5,1.7c2.7,0,5.2-0.5,7.1-1.6
			C273.7,42.7,267.6,20.1,252.4,20.1L252.4,20.1z M251.3,40c-1.1,0-2-0.6-2.8-2c-1.1-2.2,0.5-5.2,3.1-5.2l0,0c0,0,0,0,0.2,0
			c2.8,0,4.1,3.6,2.4,5.6C253.2,39.5,252.2,40,251.3,40L251.3,40z"/>
	</g>
	<g>
		<path style="fill:#FFEA88;" d="M244.5,57.4c-0.8-3.1,7.2-3.6,7.4-3c0,0.6,1.1,6.3,0.8,6.4c1.9-0.2,2.7,0.3,4.1-0.3
			c2.7-1.3-3.1-7.2,0.6-7.5c1.7-0.2,6.7-2.5,7.7-0.2c0.5,1.3-0.5,7.7,1.6,8.2c1.6,0.3,3.9-0.3,5.3,0.3c2.2,0.9,1.9,4.1,2,6.1
			c0.2,2.8,0.5,3.3-2.5,3.9c-4.2,0.9-8.6,0.8-12.9,0.8c-5,0-10,0.2-15.1-0.2c-2-0.2-3.1,0.3-4.1-1.4c-0.8-1.6-1.6-5.5-1.1-7.2
			c0.5-1.6,4.9-1.4,6.3-2C245.2,60.9,244.8,59,244.5,57.4z"/>
		<path style="fill:#FFCF00;" d="M262.6,54.4c0,0.3,0,0.6,0,0.9c0,3.1,0,7.5,3.6,8.2c0.5,0,0.9,0.2,1.4,0.2s0.9,0,1.4,0
			c0.3,0,0.8,0,1.1,0c0.6,0,0.8,0,0.9,0.2c0.3,0.3,0.5,2,0.5,2.8c0,0.5,0,0.8,0,1.1v0.5c0,0.2,0,0.3,0,0.5c-0.2,0-0.3,0-0.5,0.2
			c-3,0.6-6.1,0.6-9.1,0.6c-0.6,0-1.4,0-2,0h-1.1H258c-1.4,0-2.7,0-4.1,0c-1.4,0-2.7,0-4.1,0c-2.4,0-4.2,0-6-0.2c-0.5,0-0.9,0-1.4,0
			c-0.2,0-0.3,0-0.5,0c-0.5-1.1-0.9-3.3-0.9-4.5c0.5-0.2,1.3-0.3,1.7-0.3c1.3-0.2,2.2-0.3,3.1-0.8c2.2-1.1,1.9-3.9,1.4-6.1
			c0.5-0.2,1.3-0.5,2.2-0.6c0.2,0.9,0.5,2.8,0.5,3.5c0,0.3,0,0.8,0,1.1c0.3,1.1,1.4,1.9,2.5,1.9h0.2c0.2,0,0.3,0,0.5,0
			c0.3,0,0.6,0,0.8,0c0.3,0,0.6,0,0.8,0c0.6,0,1.6,0,2.8-0.6c3.6-1.6,2-5.5,1.4-7.2c0-0.2-0.2-0.3-0.2-0.5c0.3,0,0.5-0.2,0.8-0.2
			C260.7,54.7,261.8,54.4,262.6,54.4 M241.1,63.8L241.1,63.8L241.1,63.8 M263,51.6c-1.9,0-4.5,1.1-5.6,1.3c-3.8,0.5,2,6.4-0.6,7.5
			c-0.6,0.3-1.1,0.3-1.7,0.3c-0.5,0-0.9,0-1.7,0c-0.2,0-0.5,0-0.6,0c0.3-0.2-0.8-5.8-0.8-6.4c0-0.2-0.5-0.3-1.3-0.3
			c-2.2,0-6.6,0.9-6,3.3c0.3,1.6,0.8,3.5,0.2,3.8c-1.4,0.6-5.8,0.5-6.3,2c-0.5,1.7,0.3,5.6,1.1,7.2c0.9,1.9,2,1.4,4.1,1.4
			c2,0.2,4.1,0.2,6.1,0.2c2.7,0,5.3,0,8.2,0c0.3,0,0.5,0,0.8,0c1.1,0,2.2,0,3.3,0c3.3,0,6.4-0.2,9.6-0.8c3-0.6,2.8-0.9,2.5-3.9
			c-0.2-2,0.2-5.2-2-6.1c-0.6-0.3-1.3-0.3-1.9-0.3c-0.8,0-1.7,0.2-2.5,0.2c-0.3,0-0.6,0-0.9,0c-1.9-0.3-1.1-6.9-1.6-8.2
			C264.8,51.9,264,51.6,263,51.6L263,51.6z"/>
	</g>
	<g>
		<path style="fill:#FFEA88;" d="M291.1,37.3c-4.1-0.6-8.8,0.5-11.6,3.1c-2.4,2.2-6.4,7.4-4.7,10.8c0.8,1.6,5.6,6.1,7.2,4.4
			c1.4-1.4,1.9-3.6,3.1-5.2c1.6-1.9,4.2-1.6,5.2,0.8c1.3,3.1,0.3,6.7,2.5,9.4c1.9,2.4,5.3,4.5,8.5,4.5c3.9,0,7.2-2.4,9.9-5.2
			c1.9-2,5.2-5.5,3.9-8.6c-0.6-1.7-3.9-2.8-5.6-3.1c-2.5-0.5-3.1,1.7-4.1,3.6c-1.4,2.4-5,3.9-6,0.3c-0.8-2.5,0.5-5.2-0.2-7.7
			C298.5,40.5,295,37.8,291.1,37.3z"/>
		<path style="fill:#FFCF00;" d="M288.8,39.7c0.6,0,1.3,0,1.9,0.2c3.1,0.5,5.5,2.5,6.1,5.2c0.2,0.8,0.2,1.7,0,2.8
			c-0.2,1.6-0.3,3.1,0.2,5c0.8,2.5,2.5,3.9,4.9,3.9s4.7-1.6,6-3.8c0.2-0.3,0.5-0.8,0.6-1.1c0.2-0.3,0.5-0.9,0.6-1.1l0,0
			c1.9,0.3,3.3,1.1,3.6,1.4c0.6,1.6-2,4.5-3.5,6c-1.7,2-4.5,4.2-7.8,4.2c-2,0-4.9-1.6-6.4-3.6c-0.8-0.9-0.9-2.2-1.1-4.1
			c-0.2-1.4-0.3-3.1-0.9-4.7c-0.9-2.2-2.8-3.6-5.2-3.6c-1.7,0-3.3,0.8-4.5,2.2c-0.8,0.9-1.4,2-1.9,3.1c-0.3,0.5-0.5,0.9-0.8,1.4
			c-1.1-0.6-3-2.2-3.5-3c-0.8-1.6,1.6-5.3,4.1-7.7C283.1,40.8,285.9,39.7,288.8,39.7 M309.2,50.8L309.2,50.8L309.2,50.8 M288.8,37
			c-3.5,0-7.1,1.1-9.3,3.3c-2.4,2.2-6.4,7.4-4.7,10.8c0.6,1.3,4.2,4.9,6.3,4.9c0.3,0,0.8-0.2,0.9-0.3c1.4-1.4,1.9-3.6,3.1-5.2
			c0.8-0.8,1.6-1.3,2.5-1.3c1.1,0,2.2,0.6,2.7,2c1.3,3.1,0.3,6.7,2.5,9.4c1.9,2.4,5.3,4.5,8.5,4.5l0,0c3.9,0,7.2-2.4,9.9-5.2
			c1.9-2,5.2-5.5,3.9-8.6c-0.6-1.7-3.9-2.8-5.6-3.1c-0.3,0-0.5,0-0.6,0c-2,0-2.5,2-3.5,3.6c-0.8,1.4-2.4,2.5-3.6,2.5
			c-0.9,0-1.9-0.6-2.4-2c-0.8-2.5,0.5-5.2-0.2-7.7c-0.9-3.9-4.4-6.6-8.3-7.2C290.3,37.2,289.6,37,288.8,37L288.8,37z"/>
	</g>
	<g>
		<path style="fill:#FFEA88;" d="M97.4,15.1c-2,0-4.4,0.8-5.2,2.2c-0.8,1.4-0.2,4.2-0.2,6c0.3,4.5,1.3,9.1,1.4,13.6
			c0.2,5.2,0.2,10.5,0.5,15.7c0.2,2,0.2,4.1,1.6,5.6c5.5-2.2,8.8-1.3,8.5-8c0-2.2-1.6-8.9-0.5-10.7c0.6-0.9,2.2-0.9,3.3-1.3
			c3.6-1.1,6.3-2.2,4.2-6.4c-1.9-3.8-5.5,0.8-8.5,0.3c0.2,0,0.3-9.9,0.3-10.7c-0.2-1.7-0.5-3.6-1.6-5
			C100.5,15.5,98.9,15.1,97.4,15.1z"/>
		<path style="fill:#FFCF00;" d="M97.2,17.7L97.2,17.7c1.3,0,1.9,0.3,2,0.5c0.8,0.8,0.9,2.7,0.9,3.5c0,0.9-0.2,8.6-0.3,9.9
			c0,0.2,0,0.2,0,0.3c-0.2,1.4,0.8,2.7,2.2,2.8c0.3,0,0.6,0,0.9,0c1.6,0,3.1-0.6,4.2-1.3c0.5-0.2,0.9-0.5,1.4-0.6
			c0.5,0.9,0.5,1.3,0.5,1.3c-0.3,0.5-2.2,1.1-3.1,1.3c-0.2,0-0.5,0.2-0.8,0.2c-1.1,0.2-3,0.6-3.9,2.4c-1.3,2-0.9,5.2-0.3,9.7
			c0.2,1.1,0.3,2,0.3,2.5c0.2,3.1-0.2,3.3-3.5,4.2c-0.3,0.2-0.6,0.2-1.1,0.3c-0.2-0.6-0.2-1.3-0.2-2v-0.5c-0.3-3.3-0.3-6.7-0.5-10
			c0-1.9,0-3.8-0.2-5.6c-0.2-2.8-0.5-5.5-0.8-8.2c-0.2-1.9-0.5-3.8-0.6-5.6c0-0.3-0.2-0.8-0.2-1.3c-0.2-0.8-0.3-2.7-0.2-3.1
			C94.7,18.2,95.8,17.7,97.2,17.7 M109.1,34.4L109.1,34.4L109.1,34.4 M97.2,15.1c-2,0-4.2,0.8-5,2.2s-0.2,4.2-0.2,6
			c0.3,4.5,1.3,9.1,1.4,13.6c0.2,5.2,0.2,10.5,0.5,15.7c0.2,2,0.2,4.1,1.6,5.6c5.5-2.2,8.8-1.3,8.5-8c0-2.2-1.6-8.9-0.5-10.7
			c0.6-0.9,2.2-0.9,3.3-1.3c3.6-1.1,6.3-2.2,4.2-6.4c-0.6-1.1-1.3-1.6-2-1.6c-1.7,0-3.9,1.9-6,1.9c-0.2,0-0.3,0-0.5,0l0,0
			c0.2,0,0.3-9.9,0.3-10.7c-0.2-1.7-0.5-3.6-1.6-5c-0.8-0.9-2.4-1.4-3.8-1.4C97.4,15.1,97.4,15.1,97.2,15.1L97.2,15.1z"/>
	</g>
	<g>
		<path style="fill:#FFEA88;" d="M76.2,22.1c-2.2-0.2-4.5,0.2-6,0.2c-3.8-0.2-7.5,0.8-10.8,2.8c-2,1.3-2.5,3.5-2.7,5.8
			c-0.3,2.7-0.5,3,1.7,3.5c4.1,0.9,11.8-4.5,7.7,2.8c-2,3.8-4.7,6.9-7.1,10.4c-1.1,1.4-2.8,3.8-2.7,5.6c0.2,2.5,2.8,5.8,5.3,5
			c2-0.6,3.9-4.5,5.2-6.1c0.6-0.8,3.6-6.9,4.9-7.1c1.3-0.2,1.9,1.6,2.4,2.2c1.3,1.6,3,2.7,4.5,3.9c0.8,0.6,1.6,1.3,2.4,1.9
			c0.3,0.2,1.1,1.3,1.4,1.3c2.4-0.8,5.3-6.3,5-8.6c-0.3-3.5-6.3-5.8-8.5-8.3c2.8-2.8,6.4-8.2,3.9-12.4
			C81.5,22.7,78.9,22.3,76.2,22.1z"/>
		<path style="fill:#FFCF00;" d="M75.1,24.8c0.3,0,0.6,0,1.1,0c3.1,0.2,4.1,0.8,4.4,1.3c1.7,2.7-1.4,6.9-3.5,8.9
			c-0.9,0.9-1.1,2.5-0.2,3.6s2.4,2.2,3.8,3.1c1.6,1.1,3.9,2.7,3.9,3.8c0,0.9-1.1,3.5-2.2,4.9c-0.8-0.6-1.6-1.3-2.4-1.9
			c-0.3-0.3-0.6-0.5-0.9-0.8c-1.3-0.8-2.4-1.6-3.1-2.7c-0.2-0.2-0.2-0.3-0.3-0.5c-0.6-0.9-1.7-2.8-4.1-2.8c-0.2,0-0.3,0-0.5,0
			c-1.9,0.3-3.1,2-6,7.1c-0.3,0.5-0.5,0.9-0.6,1.1c-0.3,0.5-0.6,0.9-0.9,1.6c-0.6,0.9-2,3.3-2.7,3.6c-0.6,0-1.7-1.6-1.9-2.7
			c0-0.8,1.4-2.8,2-3.8l0.2-0.2c0.6-0.9,1.3-1.7,1.9-2.7c1.9-2.5,3.8-5,5.3-7.8c1.3-2,2.2-4.4,1.1-6.1c-0.3-0.6-1.3-1.7-3.3-1.7
			c-0.9,0-2.2,0.3-3.3,0.6c-1.1,0.3-2.4,0.6-3.3,0.6c-0.2,0-0.2,0-0.2,0v-0.2v-0.5c0.3-2.4,0.6-3.3,1.6-3.9c2.5-1.6,5.5-2.4,8.8-2.4
			h0.5h0.5c0.6,0,1.3,0,2,0C73.4,24.8,74.2,24.8,75.1,24.8 M75.1,22.1c-1.6,0-3.3,0.2-4.5,0.2c-0.2,0-0.3,0-0.5,0s-0.3,0-0.6,0
			c-3.6,0-7.2,0.8-10.2,2.8c-2,1.3-2.5,3.5-2.7,5.8c-0.3,2.7-0.5,3,1.7,3.5c0.3,0.2,0.8,0.2,1.1,0.2c2.4,0,5.2-1.3,6.6-1.3
			c1.3,0,1.6,0.8-0.2,3.9c-2,3.8-4.7,6.9-7.1,10.4c-1.1,1.4-2.8,3.8-2.7,5.6c0.2,2.2,2.4,5,4.5,5c0.3,0,0.5,0,0.8-0.2
			c2-0.6,3.9-4.5,5.2-6.1c0.6-0.8,3.6-6.9,4.9-7.1h0.2c1.1,0,1.7,1.6,2.2,2.2c1.3,1.6,3,2.7,4.5,3.9c0.8,0.6,1.6,1.3,2.4,1.9
			c0.2,0.2,0.9,1.3,1.4,1.3l0,0c2.4-0.8,5.3-6.3,5-8.6c-0.3-3.5-6.3-5.8-8.5-8.3c2.8-2.8,6.4-8.2,3.9-12.4c-1.1-1.9-3.8-2.4-6.6-2.5
			C75.7,22.1,75.4,22.1,75.1,22.1L75.1,22.1z"/>
	</g>
	<g>
		<path style="fill:#FFEA88;" d="M96.9,72.9c-2.4-1.1-4.7,0.5-7.1,0.2c1.6-2.4,6.4-4.7,6.6-7.2s0.3-6.7-2.4-8.6
			c-1.7-1.3-6.3-1.7-10.8-1.6c-6.1,0.3-12.4,1.9-13.6,3.9c-0.9,1.4,0,3.9,1.4,5c2.7,1.9,6.9-0.6,9.9-0.5c3.8,0.2,4.1,0.5,2.2,2.5
			c-2.5,2.7-7.7,1.7-9.3,5.2c-1.7,4.1,0.9,7.1,6,8c2.7,0.6,15.8,1.3,17.9-0.6C99.3,78.1,98.8,73.9,96.9,72.9z"/>
		<path style="fill:#FFCF00;" d="M85.6,58.5L85.6,58.5c4.2,0,6.3,0.6,6.9,1.1c0.8,0.5,1.6,2,1.3,6.1c-0.2,0.6-1.7,1.9-2.7,2.5
			c-1.3,1.1-2.7,2.2-3.5,3.5c-0.5,0.8-0.6,1.7-0.2,2.7c0.5,0.8,1.3,1.4,2.2,1.6c0.3,0,0.6,0,0.9,0c1.1,0,2-0.2,2.8-0.3
			c0.6-0.2,1.3-0.3,1.9-0.3c0.3,0,0.5,0,0.6,0.2c0.3,0.3,0.5,1.6,0.3,2c-0.8,0.3-2.8,0.6-6.9,0.6c-3.9,0-7.5-0.3-8.6-0.5
			c-2.2-0.5-3.8-1.3-4.2-2.2c-0.2-0.2-0.5-0.8,0.2-2.2c0.3-0.6,1.4-0.9,3-1.6c1.9-0.5,4.1-1.1,5.6-3c0.9-0.9,2.4-2.7,1.6-4.7
			c-0.8-2-3.1-2.2-5.6-2.4c-0.2,0-0.3,0-0.5,0c-1.4,0-2.8,0.3-4.1,0.6c-1.1,0.3-2.2,0.5-3,0.5c-0.6,0-0.8-0.2-0.9-0.2
			c-0.5-0.3-0.8-1.3-0.8-1.4c0.6-0.8,4.7-2.4,11.6-2.7C84,58.5,84.8,58.5,85.6,58.5 M85.6,55.8c-0.8,0-1.6,0-2.5,0
			c-6.1,0.3-12.4,1.9-13.6,3.9c-0.9,1.4,0,3.9,1.4,5c0.8,0.5,1.6,0.8,2.5,0.8c2.2,0,4.9-1.1,7.1-1.1c0.2,0,0.2,0,0.3,0
			c3.8,0.2,4.1,0.5,2.2,2.5c-2.5,2.7-7.7,1.7-9.3,5.2c-1.7,4.1,0.9,7.1,6,8c1.4,0.3,5.3,0.6,9.3,0.6s7.7-0.3,8.8-1.3
			c1.6-1.4,1.1-5.5-0.9-6.4c-0.6-0.3-1.3-0.5-1.9-0.5c-1.6,0-3.1,0.6-4.5,0.6c-0.2,0-0.5,0-0.6,0c1.6-2.4,6.4-4.7,6.6-7.2
			s0.3-6.7-2.4-8.6C92.5,56.3,89.2,55.8,85.6,55.8L85.6,55.8z"/>
	</g>
	<g>
		<path style="fill:#FFEA88;" d="M163.6,72.5c-2.4-1.1-4.7,0.5-7.2,0.2c1.6-2.4,6.4-4.7,6.6-7.2c0.2-2.5,0.3-6.7-2.4-8.6
			c-1.7-1.3-6.3-1.7-11-1.6c-6.1,0.3-12.4,1.9-13.8,4.1c-0.9,1.4,0,3.9,1.4,5c2.7,1.9,6.9-0.6,10-0.5c3.8,0.2,4.1,0.5,2.2,2.5
			c-2.5,2.7-7.7,1.7-9.3,5.2c-1.7,4.1,0.9,7.1,6,8c2.7,0.6,16,1.3,17.9-0.6C166.1,77.7,165.6,73.4,163.6,72.5z"/>
		<path style="fill:#FFCF00;" d="M152.3,57.9L152.3,57.9c4.2,0,6.4,0.6,6.9,1.1c0.8,0.5,1.6,2,1.3,6.1c-0.2,0.6-1.7,1.9-2.7,2.5
			c-1.3,1.1-2.7,2.2-3.5,3.5c-0.5,0.8-0.6,1.7-0.2,2.7c0.5,0.9,1.3,1.4,2.2,1.6c0.3,0,0.6,0,0.9,0c1.1,0,2-0.2,2.8-0.3
			c0.6-0.2,1.3-0.3,1.9-0.3c0.3,0,0.5,0,0.6,0.2c0.3,0.5,0.5,1.6,0.3,2c-0.6,0.3-2.8,0.6-6.9,0.6c-3.9,0-7.7-0.3-8.6-0.5
			c-2.2-0.5-3.8-1.3-4.2-2.2c-0.2-0.2-0.5-0.8,0.2-2.2c0.3-0.6,1.4-0.9,3-1.6c1.9-0.5,4.1-1.1,5.6-3c0.9-0.9,2.4-2.7,1.6-4.7
			c-0.8-2-3.1-2.2-5.6-2.4c-0.2,0-0.3,0-0.5,0c-1.4,0-2.8,0.3-4.1,0.6c-1.1,0.3-2.2,0.5-3,0.5c-0.6,0-0.8-0.2-0.9-0.2
			c-0.5-0.3-0.8-1.3-0.8-1.4c0.6-0.8,4.7-2.4,11.6-2.7C150.7,58,151.5,57.9,152.3,57.9 M152.3,55.2c-0.8,0-1.6,0-2.5,0
			c-6.1,0.3-12.4,1.9-13.8,4.1c-0.9,1.4,0,3.9,1.4,5c0.8,0.5,1.6,0.8,2.5,0.8c2.2,0,5-1.1,7.1-1.1c0.2,0,0.2,0,0.3,0
			c3.8,0.2,4.1,0.5,2.2,2.5c-2.5,2.7-7.7,1.7-9.3,5.2c-1.7,4.1,0.9,7.1,6,8c1.4,0.3,5.3,0.6,9.3,0.6c3.9,0,7.7-0.3,8.8-1.3
			c1.6-1.4,1.1-5.6-0.9-6.4c-0.6-0.3-1.3-0.5-1.9-0.5c-1.6,0-3.1,0.6-4.7,0.6c-0.2,0-0.5,0-0.6,0c1.6-2.4,6.4-4.7,6.6-7.2
			s0.3-6.7-2.4-8.6C159.3,55.7,156,55.2,152.3,55.2L152.3,55.2z"/>
	</g>
	<g>
		<path style="fill-rule:evenodd;clip-rule:evenodd;fill:#FFEA88;" d="M137.7,17.9c-3,3.9-7.4,10.8-9.6,13.3
			c-2.2,2.5-2.2,6.7,1.1,8.3c4.7,2.2,5.3-2.5,8.9-4.2c1.7-0.9,3.5,0.6,4.9,1.7c1.9,1.3,4.4,3.1,6.4,1.3c1.7-1.4,2.4-4.2,1.3-6.3
			c-1.6-2.7-7.1-3.5-6.3-7.4c0.5-2.2,1.9-4.1,1.6-6.4c-0.2-1.7-1.4-3.5-3.1-3.5C140.7,14.9,139.1,16.2,137.7,17.9z"/>
		<path style="fill:#FFCF00;" d="M142.6,17.7L142.6,17.7c0.3,0,0.6,0.5,0.6,1.1c0.2,0.9-0.3,1.7-0.6,2.8c-0.3,0.8-0.6,1.7-0.9,2.8
			c-0.8,4.2,2.5,6.4,4.5,7.7c0.8,0.5,1.7,1.1,2,1.6c0.5,0.8,0.2,2.2-0.6,2.8h-0.2c-0.6,0-2-0.9-2.8-1.4l-0.2-0.2
			c-0.2-0.2-0.3-0.3-0.6-0.5c-1.3-0.9-2.8-2-4.7-2c-0.8,0-1.6,0.2-2.4,0.5c-1.7,0.8-2.8,2-3.8,3.1c-0.8,0.9-1.3,1.4-1.7,1.4
			c-0.2,0-0.5,0-1.1-0.3c-0.5-0.3-0.8-0.6-0.9-1.3c-0.2-0.9,0.2-2,0.8-3c1.3-1.4,3-3.9,4.9-6.7c1.7-2.4,3.5-4.9,4.9-6.7
			C141.3,17.7,142.2,17.7,142.6,17.7 M142.6,15.1c-1.9,0-3.6,1.3-4.9,3c-3,3.9-7.4,10.8-9.6,13.3c-2.2,2.5-2.2,6.7,1.1,8.3
			c0.9,0.5,1.6,0.6,2.4,0.6c2.8,0,3.8-3.5,6.6-4.9c0.3-0.2,0.8-0.3,1.1-0.3c1.4,0,2.7,1.1,3.9,2s3,2,4.5,2c0.6,0,1.3-0.2,1.9-0.8
			c1.7-1.4,2.4-4.2,1.3-6.3c-1.6-2.7-7.1-3.5-6.3-7.4c0.5-2.2,1.9-4.1,1.6-6.4c-0.2-1.7-1.4-3.5-3.1-3.5
			C142.7,15.1,142.7,15.1,142.6,15.1L142.6,15.1z"/>
	</g>
	<g>
		<path style="fill-rule:evenodd;clip-rule:evenodd;fill:#FFEA88;" d="M156.7,17.9c-3,3.9-7.4,10.8-9.6,13.3
			c-2.2,2.5-2.2,6.7,1.1,8.3c4.7,2.2,5.3-2.5,8.9-4.2c1.7-0.9,3.5,0.6,4.9,1.7c1.9,1.3,4.4,3.1,6.4,1.3c1.7-1.4,2.4-4.2,1.3-6.3
			c-1.6-2.7-7.1-3.5-6.3-7.4c0.5-2.2,1.9-4.1,1.6-6.4c-0.2-1.7-1.4-3.5-3.1-3.5C159.8,14.9,158.1,16.2,156.7,17.9z"/>
		<path style="fill:#FFCF00;" d="M161.7,17.7L161.7,17.7c0.3,0,0.6,0.5,0.6,1.1c0.2,0.9-0.3,1.7-0.6,2.8c-0.3,0.8-0.6,1.7-0.9,2.8
			c-0.8,4.2,2.5,6.4,4.5,7.7c0.8,0.5,1.7,1.1,2,1.6c0.5,0.8,0.2,2.2-0.6,2.8h-0.2c-0.6,0-2-0.9-2.8-1.4l-0.2-0.2
			c-0.2-0.2-0.3-0.3-0.6-0.5c-1.3-0.9-2.8-2-4.7-2c-0.8,0-1.6,0.2-2.4,0.5c-1.7,0.8-2.8,2-3.8,3.1c-0.8,0.9-1.3,1.4-1.7,1.4
			c-0.2,0-0.5,0-1.1-0.3c-0.5-0.3-0.8-0.6-0.9-1.3c-0.2-0.9,0.2-2,0.8-3c1.3-1.4,3-3.9,4.9-6.7c1.7-2.4,3.5-4.9,4.9-6.7
			C160.3,17.7,161.4,17.7,161.7,17.7 M161.7,15.1c-1.9,0-3.6,1.3-4.9,3c-3,3.9-7.4,10.8-9.6,13.3c-2,2.5-2.2,6.7,1.1,8.3
			c0.9,0.5,1.6,0.6,2.4,0.6c2.8,0,3.8-3.5,6.6-4.9c0.3-0.2,0.8-0.3,1.1-0.3c1.4,0,2.7,1.1,3.9,2c1.3,0.9,3,2,4.5,2
			c0.6,0,1.3-0.2,1.9-0.8c1.7-1.4,2.4-4.2,1.3-6.3c-1.6-2.7-7.1-3.5-6.3-7.4c0.5-2.2,1.9-4.1,1.6-6.4c-0.2-1.7-1.4-3.5-3.1-3.5
			C161.8,15.1,161.7,15.1,161.7,15.1L161.7,15.1z"/>
	</g>
	<g>
		<path style="fill:#FFEA88;" d="M169.1,44.4c-1.4-2.4-4.5-2.7-7.5-2.5c-9.3,0.5-18.5,0.6-27.8,0.9c-4.7,0.2-5.3,3-5,6.3
			c0.3,2.8-0.6,6.3,4.1,6.1c5.3-0.3,10.8-0.9,16.2-1.4c4.4-0.3,9.3-0.6,13.8-1.1s6.9-0.3,7.1-4.2C170,47.1,169.9,45.5,169.1,44.4z"
			/>
		<path style="fill:#FFCF00;" d="M162.9,44.6c2.8,0,3.5,0.6,3.8,1.3c0.3,0.6,0.3,1.9,0.3,2.7c0,0.9-0.2,1.1-0.2,1.1l0,0
			c-0.3,0.3-2.2,0.5-3.5,0.5l-1.1,0.2c-4.1,0.3-8.6,0.8-13.8,1.1c-2.4,0.2-4.7,0.5-6.9,0.6c-3,0.3-6.1,0.6-9.1,0.8
			c-0.2,0-0.2,0-0.3,0c-0.3,0-0.6,0-0.6,0c-0.2-0.3-0.2-1.4-0.2-1.9c0-0.6,0-1.1,0-1.6c-0.2-1.9,0.2-2.7,0.3-2.8
			c0.3-0.3,1.1-0.5,2-0.6c2.2,0,4.2-0.2,6.4-0.2c7.1-0.2,14.3-0.5,21.5-0.8C162.2,44.6,162.6,44.6,162.9,44.6 M167,49.4L167,49.4
			L167,49.4 M162.9,41.9c-0.5,0-0.9,0-1.4,0c-9.3,0.5-18.5,0.6-27.8,0.9c-4.7,0.2-5.3,3-5,6.3c0.2,2.7-0.6,6.1,3.6,6.1
			c0.2,0,0.3,0,0.5,0c5.3-0.3,10.8-0.9,16.2-1.4c4.4-0.3,9.3-0.6,13.8-1.1s6.9-0.3,7.1-4.2c0-1.4,0-3-0.8-4.2
			C168,42.4,165.5,41.9,162.9,41.9L162.9,41.9z"/>
	</g>
</g>
<g>
	<path style="fill:#FF0000;" d="M266.2,204.6c-1.1-6.1-2.4-12.2-3.5-18.4c-0.8-3.8-1.6-7.8-4.1-10.7c-1.4-1.6-3.1-2.7-5-3.8
		c-5.3-3-11.5-5.2-17.4-4.4c-5.6,0-11.3-0.9-16.8-0.9c-1.4,0-3,0-4.2,0.8c-1.3,0.6-2,1.9-2.7,3.1c-2.2,4.5-2.5,9.7-2.4,14.7
		c0.6,23.5,10.8,45.5,21,66.7c1.1,2.4,2.4,4.9,4.1,6.7c2,2.2,4.7,3.8,7.5,5c9.1,4.4,23.8,8.9,33.9,5.3c5.5-2,7.7-8.5,9.1-14.1
		c5.3-21.8,8.5-44.1,9.6-66.5c0.6-12.1-4.9-26-17.4-29.5c-5-1.4-10.2-1.4-15.4-1.4c-6.4,0-12.9,0-19.1,1.4
		c-7.4,1.6-15.2,4.4-22.1,7.1"/>
	<path d="M268.1,272.3c-8.8,0-18.8-3.1-26.4-6.9c-2.7-1.3-5.8-3-8.2-5.5c-2-2.2-3.3-4.9-4.4-7.2c-9.7-20.2-20.6-43.1-21.2-67.5
		c-0.2-4.5,0.2-10.4,2.7-15.5c0.6-1.3,1.6-3,3.5-4.1c1.7-0.9,3.6-0.9,5.2-0.9h0.2c0.2-0.3,0.5-0.5,0.8-0.6c8-3,15.4-5.5,22.4-7.1
		c6.4-1.4,13.2-1.4,19.6-1.4c5.2,0,10.7,0,15.8,1.4c13.8,3.8,19.5,19,19,31.5c-1.1,22.4-4.2,45-9.6,66.8c-1.4,6-3.9,13.3-10.4,15.5
		C274.3,271.9,271.4,272.3,268.1,272.3z M219,168.6c-1.1,0-2.2,0-3,0.5c-0.6,0.3-1.3,1.1-1.7,2.4c-2.2,4.4-2.4,9.7-2.2,13.8
		c0.6,23.4,11.3,46,20.9,65.7c1.1,2.2,2.2,4.5,3.8,6.3c1.9,2,4.5,3.5,6.9,4.5c9.3,4.5,23.2,8.6,32.3,5.3c4.7-1.7,6.6-7.7,7.8-12.7
		c5.3-21.6,8.5-43.8,9.4-66c0.5-11-4.2-24.3-16-27.5c-4.7-1.3-9.9-1.3-14.9-1.3c-6.3,0-12.7,0-18.8,1.4c-4.7,0.9-9.4,2.5-14.6,4.2
		c2.4,0.2,4.7,0.3,6.9,0.3c5.6-0.8,11.8,0.8,18.5,4.5c1.9,1.1,3.9,2.4,5.5,4.1c3,3.5,3.9,8,4.5,11.6l3.5,18.4
		c0.2,1.1-0.5,2.2-1.6,2.4s-2.2-0.5-2.4-1.6l-3.5-18.4c-0.6-3.3-1.4-7.2-3.6-9.7c-1.3-1.4-2.8-2.4-4.4-3.3
		c-6.1-3.5-11.5-4.7-16.2-4.1c-0.2,0-0.2,0-0.3,0c-2.8,0-5.8-0.3-8.6-0.5C224.6,169,221.8,168.6,219,168.6
		C219.1,168.6,219,168.6,219,168.6z"/>
</g>
<g>
	<path style="fill:#DEFF00;" d="M229.8,168.6c0,0,6.7-4.9,15.2-0.9l0.5-4.4c1.1-9.6-6.4-17.9-16-17.9h-10.7L229.8,168.6z"/>
	<path d="M229,171.6l-13.2-28.2h13.8c5.2,0,10,2.2,13.5,6s5,8.9,4.5,14.1l-0.8,7.2l-2.5-1.3c-7.2-3.5-13,0.5-13.2,0.6L229,171.6z
		 M222.1,147.5l8.6,18.4c2.5-1.3,7.2-2.7,12.7-0.9l0.2-1.7c0.5-3.9-0.8-8-3.5-11s-6.4-4.7-10.5-4.7h-7.5V147.5z"/>
</g>
<g>
	<g>
		<g>
			<path style="fill-rule:evenodd;clip-rule:evenodd;fill:#00A2EC;" d="M167,279.2c-2.8-0.6-5.6,1.3-6.3,4.1l-8.9,43.8l15.1,3.1
				l8.9-43.8C176.6,283.6,170,279.9,167,279.2z"/>
			<path d="M166.1,279.1c0.3,0,0.8,0,1.1,0.2c2.8,0.6,9.4,4.4,8.8,7.2l-8.9,43.8l-15.1-3.1l8.9-43.8
				C161.4,280.8,163.6,279.1,166.1,279.1 M166.1,275c-4.4,0-8.3,3.1-9.1,7.5l-9.1,43.8l-0.8,3.9l3.9,0.8l15.1,3.1l3.9,0.8l0.8-3.9
				l8.9-43.8c1.3-6.3-8.2-11.1-11.9-11.9C167.3,275.2,166.7,275,166.1,275L166.1,275z"/>
		</g>
		<g>
			<path style="fill-rule:evenodd;clip-rule:evenodd;fill:#00A2EC;" d="M147.1,350c0,0-5-5.2-15.2-3.3c-6.7,1.4-12.7,6.1-16,12.2
				c-1.7,3.3-2.5,9.4,0.2,12.6c3.9,4.5,10.4,3.8,15.5,3.8h16.6h3.9c3.1,0,8-2.5,8-5.6l1.1-12.4l5.6-27.1l-15.1-3.1L147.1,350z"/>
			<path d="M151.8,327.1l15.1,3.1l-5.6,27.1l-1.1,12.4c0,3.1-4.9,5.6-8,5.6h-3.9h-16.5c-1.3,0-2.7,0-4.1,0c-4.2,0-8.6-0.5-11.5-3.8
				c-2.7-3.1-1.9-9.3-0.2-12.6c3.1-6.1,9.1-10.8,16-12.2c1.6-0.3,3.1-0.5,4.4-0.5c7.2,0,10.8,3.6,10.8,3.6L151.8,327.1 M148.7,322.4
				l-0.8,3.9l-3.6,17.4c-2-0.8-4.7-1.4-8-1.4c-1.7,0-3.5,0.2-5.2,0.5c-8.2,1.7-15.1,7.1-18.7,14.3c-2.2,4.2-3.3,12.2,0.8,16.9
				c3.9,4.5,9.6,5.2,14.6,5.2c0.8,0,1.4,0,2.2,0c0.6,0,1.3,0,1.9,0h16.6h3.9c4.9,0,11.8-3.6,12.1-9.4l1.1-12.1l5.5-26.8l0.8-3.9
				l-3.9-0.8l-15.1-3.1L148.7,322.4L148.7,322.4z"/>
		</g>
	</g>
	<g>
		<g>
			<path style="fill:#FFFFFF;" d="M167,279.2c2.8,0.6,9.4,4.4,8.8,7.2l-8.9,43.8l-15.1-3.1l8.9-43.8
				C161.4,280.5,164.2,278.6,167,279.2"/>
		</g>
		<g>
			<path style="fill-rule:evenodd;clip-rule:evenodd;fill:#00A2EC;" d="M161.4,357.4l-1.1,12.4c0,3.1-4.9,5.6-8,5.6h-3.9h-16.6
				c-5.3,0-11.6,0.8-15.5-3.8c-2.7-3.1-1.9-9.3-0.2-12.6c3.1-6.1,9.1-10.8,16-12.2l0,0c10.2-2,15.2,3.3,15.2,3.3l4.7-22.9l15.1,3.1
				L161.4,357.4z"/>
		</g>
	</g>
	<g>
		<g>
			<path style="fill-rule:evenodd;clip-rule:evenodd;fill:#00A2EC;" d="M223,317.2c0-0.2,0-0.2,0-0.2
				C222.9,317.1,222.9,317.2,223,317.2z"/>
			<path style="fill:#1D1D1B;" d="M222.9,317.1c0,0,0,0,0,0.2V317.1 M222.9,311.7c-2,0-3.9,1.1-4.9,3c-1.1,2.2-0.6,4.7,1.1,6.3
				c1.1,0.9,2.4,1.6,3.8,1.6c0.9,0,2-0.3,2.8-0.8c2-1.4,3-3.9,2.2-6.3c-0.2-0.3-0.2-0.5-0.2-0.5C227.1,313,225.1,311.7,222.9,311.7
				C223,311.7,223,311.7,222.9,311.7L222.9,311.7z"/>
		</g>
		<g>
			<path style="fill-rule:evenodd;clip-rule:evenodd;fill:#00A2EC;" d="M270.6,333.1l-5.8-15.7l-1.7-4.9c-0.6-3.3-5-8.5-9.9-6.9
				l-9.1,4.5l0,0c0,0,0,0-0.2,0.2l-3.1,1.6v0.2c-1.1,0.6-2,1.1-2.2,1.3c-3.3,2.2-8.5,4.2-13.2,4.7c-0.3,0-1.9-0.3-2.4-0.6
				c0.2,0.3,0.2,0.8,0.3,1.6l-0.6-2.7l0,0c-2-10.7,3-12.6-0.6-26.2c-5,2.5-12.4-3.1-17.3,0.3c3.5,21.2-0.6,38.1,10,42
				c-0.2,0-0.2,0-0.2,0c5,1.7,14.7-0.2,22.9-3.8c0,2,0.3,5.2,2.5,10l0.2,0.3c3,6.7,8.6,10.2,15.7,12.1c3.8,0.9,11.6-0.3,14.3-3.8
				C273.9,342,271.7,338.5,270.6,333.1z M217.4,331c-0.5,0.3-0.9,0.6-1.4,0.8L217.4,331z"/>
			<path d="M208.8,289c3.1,0,6.9,1.4,10,1.4c1.1,0,2.2-0.2,3.1-0.6c3.6,13.8-1.4,15.5,0.6,26.2l0,0l0.6,2.7c0-0.8-0.2-1.4-0.3-1.6
				c0.3,0.3,1.7,0.6,2.2,0.6l0,0c4.7-0.5,9.9-2.5,13.2-4.7c0.2-0.2,1.3-0.6,2.2-1.3v-0.2l3.1-1.6c0,0,0.2,0,0.2-0.2l0,0l9.1-4.5
				c0.6-0.2,1.3-0.3,1.7-0.3c4.1,0,7.5,4.4,8.2,7.2l1.7,4.9l5.8,15.7c1.1,5.5,3.3,9.1-0.5,14.3c-2,2.8-7.2,4.1-11.3,4.1
				c-1.1,0-2-0.2-3-0.3c-7.1-1.7-12.7-5.3-15.7-12.1l-0.2-0.3c-2-5-2.5-8.2-2.5-10c-6.1,2.7-13,4.4-18.4,4.4c-1.7,0-3.3-0.2-4.7-0.6
				c0,0,0,0,0.2,0c-10.7-4.1-6.6-20.9-10-42C205.9,289.3,207.3,289,208.8,289 M216,331.8c0.5-0.2,0.9-0.5,1.4-0.8L216,331.8
				 M208.8,285.1L208.8,285.1c-2.5,0-4.5,0.6-6.3,1.9c-1.3,0.9-1.9,2.4-1.6,3.9c1.1,6.6,1.4,12.9,1.7,18.5
				c0.6,11.8,1.1,22.1,9.6,26.2c0.3,0.3,0.8,0.5,1.3,0.6c1.7,0.6,3.6,0.9,6,0.9c4.2,0,9.6-1.1,14.9-2.8c0.5,1.9,1.1,3.9,2,6.1v0.2
				l0.2,0.3c3.3,7.2,9.4,11.9,18.4,14.3c1.1,0.3,2.5,0.5,3.9,0.5c5.2,0,11.6-1.7,14.6-5.8c4.2-5.8,3-10.5,1.9-14.7
				c-0.2-0.8-0.5-1.7-0.6-2.7c0-0.2-0.2-0.3-0.2-0.5l-5.8-15.7l-1.7-4.7c-1.1-4.2-5.8-10-11.9-10c-0.9,0-2,0.2-3,0.5
				c-0.2,0-0.3,0.2-0.6,0.3l-8.8,4.4c-0.2,0.2-0.5,0.2-0.6,0.3l-3,1.6c-0.2,0.2-0.5,0.3-0.6,0.3c-1.4,0.8-1.7,0.9-2,1.1
				c-2.4,1.6-6.1,3.3-9.9,3.9c-0.3-3.1,0-5.3,0.3-7.7c0.6-4.1,1.4-8.6-0.8-17.1c-0.3-1.1-1.1-2.2-2.2-2.7c-0.5-0.3-1.1-0.3-1.7-0.3
				c-0.6,0-1.3,0.2-1.7,0.5c-0.3,0.2-0.8,0.3-1.4,0.3c-1.3,0-2.7-0.3-4.2-0.6C212.7,285.4,210.8,285.1,208.8,285.1L208.8,285.1
				L208.8,285.1z"/>
		</g>
	</g>
	<g>
		<g>
			<path style="fill:#FFFFFF;" d="M222.7,316.1c-2-10.7,3-12.6-0.6-26.2c-5,2.5-12.4-3.1-17.3,0.3c3.5,21.3-0.6,38.4,10.4,42.2
				l10.2-5.6L222.7,316.1L222.7,316.1z"/>
		</g>
		<g>
			<path style="fill:#00A2EC;" d="M244.1,310.2c0,0.2-5.2,2.7-5.6,3c-3.3,2.2-8.5,4.2-13.2,4.7c-0.5,0-2.5-0.5-2.4-0.8
				c0,0,1.4,3-1.3,8.9c-2.7,5.8-7.1,6.4-7.1,6.4c5.5,1.9,16.3-0.5,24.9-4.7C247.4,320.3,245,315.6,244.1,310.2z"/>
		</g>
		<g>
			<path style="fill-rule:evenodd;clip-rule:evenodd;fill:#00A2EC;" d="M240.8,311.9l12.4-6.3c4.9-1.6,9.3,3.6,9.9,6.9l1.7,4.9
				l5.8,15.7c1.1,5.5,3.3,9.1-0.5,14.3c-2.5,3.5-10.4,4.9-14.3,3.8c-7.1-1.7-12.7-5.3-15.7-12.1l-0.2-0.3c-4.2-10-1.7-12.9-1.7-12.9
				l-3.3,0.8"/>
		</g>
	</g>
	<g>
		<path style="fill-rule:evenodd;clip-rule:evenodd;fill:#FFFFFF;" d="M109.3,220.6c0,0-8.6,1.6-9.9,23.7s22.9,17.6,22.9,17.6
			S138.8,211.2,109.3,220.6z"/>
		<path d="M117.5,264.3c-4.2,0-10.4-0.8-14.7-4.7c-3.9-3.5-5.8-8.6-5.3-15.5c1.3-22.1,9.7-25.1,11.3-25.6c6.9-2.2,12.1-1.4,15.5,2
			c9.9,9.9,0.9,38.6,0,41.7l-0.3,1.1l-1.1,0.2C122.6,263.9,120.4,264.3,117.5,264.3z M109.8,222.5c-0.3,0.2-7.2,2.5-8.3,21.8
			c-0.3,5.5,1.1,9.6,4.1,12.2c4.7,4.2,12.4,3.8,15.4,3.5c2.7-8.9,7.2-30,0.6-36.6c-2.4-2.4-6.3-2.7-11.6-1.1L109.8,222.5z"/>
	</g>
	<g>
		<g>
			<g>
				<g>
					<path style="fill:#FFFFFF;" d="M185.5,80c-7.5,2.5-10.4,7.8-12.7,15.4c-1.4,4.1-3.6,13.6,2,15.7c6.3,2.2,8-7.4,10.7-10.5
						c3.5-4.1,9.1,0.2,14.7,4.9c4.5,3.8,11.1,3.3,15.1-1.3c3.8-4.5,3.3-11.3-1.1-15.1C205.5,81.7,196.1,76.6,185.5,80z"/>
					<path d="M192.3,78.9c7.8,0,15.1,4.4,21.8,10.2c4.4,3.9,5,10.7,1.1,15.1c-2,2.5-5,3.8-8.2,3.8c-2.5,0-4.9-0.8-6.9-2.5
						c-4.1-3.5-8-6.6-11.3-6.6c-1.3,0-2.4,0.5-3.5,1.6c-2.4,2.8-4.1,10.8-8.9,10.8c-0.5,0-1.1-0.2-1.7-0.3c-5.8-2-3.5-11.6-2-15.7
						c2.5-7.4,5.3-12.9,12.7-15.4C187.9,79.2,190.1,78.9,192.3,78.9 M192.3,74.8c-2.7,0-5.3,0.5-8,1.3c-9.7,3.1-13,10.8-15.4,17.9
						c-3.6,10.7-1.9,18.5,4.5,20.7c1.1,0.3,2,0.5,3.1,0.5c5.8,0,8.6-5.5,10.4-9.3c0.6-1.1,1.3-2.4,1.6-3c0.2-0.2,0.3-0.2,0.3-0.2
						c2,0,6.9,4.1,8.6,5.6c2.7,2.2,6,3.5,9.6,3.5c4.4,0,8.5-1.9,11.1-5.2c5.2-6.1,4.5-15.5-1.6-20.7
						C207.8,78.4,200.1,74.8,192.3,74.8L192.3,74.8z"/>
				</g>
			</g>
			<g>
				<path style="fill:#6E2E00;" d="M197.9,98.5c0.8-0.3,1.6-0.3,2.4-0.2c-0.9-0.5-1.7-1.3-2.2-2.4c-0.8-2.2,0.3-4.7,2.5-5.5
					c1.1-0.3,2-0.3,3,0c-0.8-0.5-1.6-1.3-1.9-2.2c-0.8-2.2,0.9-4.7,3.1-5.5c0.2-0.2,0.5,0,0.6-0.2c5,2.8,7.8,5.6,8.6,6.3
					c4.4,3.9,5,10.7,1.1,15.1c-3.8,4.5-10.5,5-15.1,1.3c-1.3-1.1-3.1-2.4-5-3.5C195.4,100.6,196.4,99.1,197.9,98.5"/>
			</g>
		</g>
	</g>
	<g>
		<g>
			<g>
				<g>
					<path style="fill:#FFFFFF;" d="M125.5,88.5c2,0.3,2.4,0.5,4.2,1.4c1.7,0.8,3.3,1.9,4.9,3c4.9,3.6,11.3,17.3,6.6,21.6
						c-4.2,3.9-9.3-4.7-11.9-7.2c-6.3-5.5-8.3,1.3-12.1,6.7c-3,4.4-8.8,5-12.9,1.6s-5-9.9-2-14.3C107.7,93.5,115.4,86.6,125.5,88.5z
						"/>
					<path d="M122.2,88.2c1.1,0,2.2,0.2,3.3,0.3c2,0.3,2.4,0.5,4.2,1.4c1.7,0.8,3.3,1.9,4.9,3c4.9,3.6,11.3,17.3,6.6,21.6
						c-0.8,0.8-1.6,0.9-2.4,0.9c-3.6,0-7.4-6.3-9.7-8.2c-1.6-1.4-3-2-4.1-2c-3.3,0-5,4.7-7.8,8.8c-1.7,2.5-4.4,3.8-7.1,3.8
						c-2,0-4.1-0.8-5.8-2.2c-4.1-3.5-5-9.9-2-14.3C107.1,94.4,113.8,88.2,122.2,88.2 M122.2,84.1L122.2,84.1
						c-8.5,0-16.5,5.2-23.2,15.1c-4.2,6.1-3,14.7,2.7,19.6c2.4,2,5.3,3.1,8.5,3.1c4.1,0,7.8-2,10.4-5.5c0.8-1.1,1.4-2.2,2-3.3
						c0.8-1.3,1.9-3.1,2.7-3.8c0.2,0.2,0.6,0.3,1.4,0.9c0.5,0.3,1.3,1.3,1.9,2c2.7,3.1,6,7.1,10.4,7.1c1.9,0,3.6-0.8,5-2
						c1.4-1.4,3.1-3.9,3-8.5c-0.5-6.4-5.2-15.5-9.9-19.1c-2-1.6-3.8-2.7-5.5-3.5c-2.2-1.1-2.8-1.3-5.3-1.7
						C124.8,84.2,123.4,84.1,122.2,84.1L122.2,84.1z"/>
				</g>
			</g>
			<g>
				<path style="fill:#6E2E00;" d="M117.6,107.3c-0.8-0.2-1.4,0-2,0.3c0.8-0.6,1.3-1.6,1.4-2.7c0.3-2.2-1.1-4.2-3.1-4.7
					c-0.9-0.2-1.9,0.2-2.5,0.6c0.6-0.6,1.1-1.4,1.3-2.4c0.3-2.2-1.6-4.1-3.6-4.4c-0.2,0-0.3,0-0.5,0c-3.6,3.5-5.5,6.6-6.1,7.2
					c-3,4.4-2,10.7,2,14.3c4.1,3.5,9.9,2.8,12.9-1.6c0.9-1.3,2-3.5,3.3-4.9C120,107.9,119,107.6,117.6,107.3"/>
			</g>
		</g>
	</g>
	<g>
		<path style="fill-rule:evenodd;clip-rule:evenodd;fill:#FFFFFF;" d="M247,232.5c-3.1-8.8-10.2-18-14.1-27.8
			c-2.2-5.3-3.3-11-2.2-16.5c1.1-5,1.6-10.4,1.7-15.5c0.2-10-1.7-20.2-5.2-29.7c-4.5-12.2-12.6-25.3-23.8-32
			c-14.4-8.8-32.8-14.6-49.6-12.4c0,0-0.2,0-0.3,0l-5.3,0.6c-16.8,2.2-32.9,12.4-44.7,24.5c-9.3,9.6-13.6,24.2-14.9,37
			c-0.2,2-0.3,4.2-0.5,6.6c-1.9,3.5-3,7.2-3.1,11.6c-0.2,6.9,2,13.8,5.5,19.8c3.5,6.3,8.6,10.7,14.6,13.8c3,3,5.8,6.3,7.2,10.5
			c2.5,7.5,1.3,16.2,0.9,23.8c-0.5,11.1-0.2,24.9,5.2,35c22.6,42.2,86.3,39.8,116.4,10.5c5.2-5,10.5-15.2,13.2-22
			C253,258.5,251.6,245,247,232.5z"/>
		<path d="M161.2,98.4c14.6,0,29.8,5.3,42.2,12.9c11.3,6.9,19.5,19.8,23.8,32c3.5,9.4,5.3,19.6,5.2,29.7c0,5.2-0.6,10.4-1.7,15.5
			c-1.3,5.5,0,11,2.2,16.5c3.9,9.6,11.1,19,14.1,27.8c4.4,12.6,6,25.9,1.1,38.4c-2.7,6.7-8,16.9-13.2,22
			c-14.3,13.8-35.9,21.6-57.1,21.6c-23.8,0-47.4-9.9-59.3-32.2c-5.5-10.2-5.6-23.8-5.2-35c0.3-7.7,1.6-16.3-0.9-23.8
			c-1.4-4.2-4.2-7.5-7.2-10.5c-6-3.1-11.1-7.5-14.6-13.8c-3.5-6-5.6-12.9-5.5-19.8c0-4.4,1.3-8.2,3.1-11.6c0.2-2.4,0.2-4.5,0.5-6.6
			c1.3-13,5.8-27.6,14.9-37c11.8-12.2,27.9-22.4,44.7-24.5l5.3-0.6c0.2,0,0.3,0,0.3,0C156.4,98.5,158.9,98.4,161.2,98.4 M161.2,94.4
			c-2.7,0-5.3,0.2-7.8,0.5h-0.3l-5.5,0.6c-16.2,2-33.3,11.5-47.1,25.7c-8.6,8.9-14.6,23.4-16,39.5c-0.2,1.7-0.3,3.8-0.3,6
			c-2,4.1-3.1,8.2-3.1,12.6c-0.2,7.2,2,14.7,6,21.8c3.6,6.3,8.9,11.5,15.7,15.1c2.7,2.7,4.7,5.3,5.8,8.5c1.9,5.3,1.4,11.8,0.9,18
			c-0.2,1.4-0.2,2.8-0.3,4.2c-0.5,11.3-0.3,25.9,5.6,37c11.6,21.8,34.5,34.2,62.8,34.2c22.9,0,45.3-8.5,59.9-22.7
			c5.5-5.3,11.3-15.8,14.1-23.4c4.7-12.1,4.4-26-1.1-41.3c-1.7-4.9-4.5-9.9-7.4-14.7c-2.5-4.2-5-8.8-6.7-13.2
			c-2.2-5.5-2.8-9.9-1.9-14.1c1.1-5,1.7-10.5,1.7-16.3c0.2-10.5-1.7-21-5.3-31.1c-5.5-15.2-14.9-27.6-25.6-34
			C191.3,99.1,175.5,94.4,161.2,94.4L161.2,94.4z"/>
	</g>
	<g>
		<path style="fill:#00A2EC;" d="M232.9,204.9c-2.2-5.3-3.3-11-2.2-16.5c1.1-5,1.6-10.4,1.7-15.5c0.2-10-1.7-20.2-5.2-29.7
			c-4.5-12.2-12.6-25.3-23.8-32c-14.4-8.8-32.8-14.6-49.6-12.4c0,0-0.2,0-0.3,0l-5.3,0.6c-16.8,2.2-32.9,12.4-44.7,24.5
			c-9.3,9.6-13.6,24.2-14.9,37c-1.1,12.2-0.8,30.4,6.6,41.1c5.5,8,14.3,12.2,17.3,21.3c2.5,7.5,1.3,16.2,0.9,23.8
			c-0.5,11.1-0.2,24.9,5.2,35c22.6,42.2,86.3,39.8,116.4,10.5c5.2-5,10.5-15.2,13.2-22c4.9-12.6,3.3-25.9-1.1-38.4
			C243.9,223.9,236.8,214.5,232.9,204.9z"/>
	</g>
	<g>
		<path style="fill:#00A2EC;" d="M148.2,99.6h0.3C148.4,99.6,148.2,99.6,148.2,99.6z"/>
	</g>
	<path style="fill-rule:evenodd;clip-rule:evenodd;fill:#FFFFFF;" d="M210.3,167.4c-2.5-27.8-18-50.7-46.8-54.8
		c-24-3.5-57.9,7.4-66.4,32.3c-0.8,2.5-2.4,13.3-2.4,13.3s-1.9,2.5-2,2.7c-4.5,5.3-7.7,11.1-7.8,18.5c-0.2,6.9,2,13.8,5.5,19.8
		c15.4,27.1,60.4,21.3,85.3,14.3c12.6-3.6,25.1-11.1,31.2-23.1C210.3,184.2,211.1,176,210.3,167.4z"/>
	<g>
		<g>
			<path style="fill-rule:evenodd;clip-rule:evenodd;fill:#FFBCB8;" d="M160.6,177.1c0.8,9.3,8.9,16.2,18.2,15.4s16-8.9,15.2-18.4
				c-0.8-9.3-8.9-16.2-18.2-15.4C166.7,159.7,159.8,167.9,160.6,177.1"/>
		</g>
		<g>
			<path style="fill-rule:evenodd;clip-rule:evenodd;fill:#FFBCB8;" d="M88.3,184c1.3,9.3,7.1,16.3,14.4,15.2
				c9.1-1.4,14.3-10.8,13.6-18c-0.8-9.3-6-17.4-15.2-16.2C92,166.1,86.9,176.6,88.3,184z"/>
		</g>
	</g>
	<g>
		<path style="fill-rule:evenodd;clip-rule:evenodd;" d="M132.2,171.8c0.2,1.3,1.4,2,3,2c1.6-0.2,2.8-1.3,2.7-2.4
			c-0.2-1.3-1.4-2-3.1-2C133.3,169.4,132.2,170.5,132.2,171.8"/>
	</g>
	<g>
		<path style="fill-rule:evenodd;clip-rule:evenodd;fill:#E83841;" d="M152.8,181.7c0.2,4.5-2.4,15.5-13.3,15.2
			c-11.9,0.6-14.4-9.4-15.2-13.3"/>
		<path d="M142.7,197.8c-1.1,0.2-2.2,0.3-3.3,0.3c-8.8,0.5-14.6-4.7-16.3-14.4c-0.2-0.6,0.3-1.3,0.9-1.4l0,0
			c0.6-0.2,1.3,0.3,1.4,0.9c1.1,6,4.2,12.9,14,12.4c3.3,0.2,6-0.8,8-2.8c3.5-3.3,4.2-8.8,4.2-11.1c0-0.6,0.5-1.3,1.3-1.3
			c0.6,0,1.3,0.5,1.3,1.3c0,3-0.9,8.9-4.9,12.9C147.3,196.3,145.2,197.4,142.7,197.8z"/>
	</g>
	<g>
		<path style="fill-rule:evenodd;clip-rule:evenodd;fill:#FFFFFF;" d="M128.9,184.6v0.9c0,0.8,0.8,1.4,1.6,1.3L147,186
			c0.8,0,1.4-0.6,1.4-1.4V184c0-0.6-0.6-1.3-1.3-1.3c-1.9-0.3-5.8-0.8-7.7-2c-0.5-0.3-1.3-0.5-1.7,0c-1.4,0.8-4.1,2.4-7.5,2.7
			C129.4,183.4,128.9,184,128.9,184.6z"/>
	</g>
	<g>
		<path d="M149.8,184.2c-5.3,0.9-11.5-0.8-14.9-3.3c-0.6-0.5-0.8-1.4-0.3-2s1.4-0.8,2-0.3c3.8,2.8,12.2,4.5,16.6,0.9
			c1.3-0.9,1.9-2,2-2.4c-0.5-0.5-0.5-1.4,0-1.9c0.5-0.6,1.4-0.6,2-0.2c0.6,0.5,0.9,1.3,0.8,2c0,1.9-2,3.8-3.1,4.7
			C153.5,183.1,151.7,183.9,149.8,184.2z"/>
	</g>
	<g>
		<path d="M129.5,185.1c-2.8,0.5-5.8,0.2-8.3-1.7c-2.8-2-3.8-4.4-2.7-6c0.5-0.6,1.3-0.9,2-0.5c0.6,0.5,0.9,1.3,0.5,1.9
			c0,0.3,0.8,1.3,2,2.2c3.6,2.7,9.1,1.1,11.6-2c0.5-0.6,1.4-0.8,2-0.3s0.8,1.4,0.3,2C135.2,182.9,132.5,184.5,129.5,185.1z"/>
	</g>
	<g>
		<polyline style="fill-rule:evenodd;clip-rule:evenodd;fill:#FFFFFF;" points="157.6,161.1 150.7,164.4 157.9,165.5 		"/>
		<path d="M158.1,166.6c-0.2,0-0.3,0-0.5,0l-7.2-1.1c-0.5,0-0.9-0.5-0.9-0.9c-0.2-0.5,0.2-1.1,0.6-1.3l6.9-3.3
			c0.6-0.3,1.3,0,1.6,0.5c0.3,0.6,0,1.3-0.5,1.6l-3.3,1.7l3.3,0.5c0.6,0.2,1.1,0.8,0.9,1.4C159,166.1,158.7,166.6,158.1,166.6z"/>
	</g>
	<g>
		<polyline style="fill-rule:evenodd;clip-rule:evenodd;fill:#FFFFFF;" points="118.1,164.3 124.7,166.4 118.6,168.6 		"/>
	</g>
</g>
<circle style="fill-rule:evenodd;clip-rule:evenodd;" cx="121.1" cy="166.4" r="3.6"/>
<g>
	<path style="fill:#FF0000;" d="M211.6,189c9.7-5.5,23.5-6.1,33.9-1.6c0.6,0.3,1.3,0.6,1.7,1.1c0.5,0.5,0.6,1.3,0.2,1.9
		c-2.4,3.5-10.7,6.1-14.6,6.6c-5,0.6-9.1,2.2-13.5,5c-9.1,6-16,14.6-22.6,23.2c-1.1,1.4-2.2,3-2.4,4.7c-0.2,3,2.5,5.3,5,6.7
		c7.8,4.7,19.3,8.8,28.6,6.9c4.5-0.9,8.6-1.3,13.2-1.6c5.8-0.5,12.1-3.5,17.9-2c1.7,0.5,3.6,0.9,4.4,2.5c0.8,1.7,0,3.6-0.8,5.3
		c-5.6,10.2-12.1,13-23.5,13.2c-5,0-9.6,0.5-14.6-0.3c-8.5-1.3-16.9-3.1-25.1-5.6c-5.2-1.7-10.5-3.8-14.1-7.8
		c-6.4-7.4-8.8-24.5-2.2-32.3C191.2,205.2,200.3,195.5,211.6,189z"/>
	<path d="M231.2,263.1c-2.2,0-4.5-0.2-6.9-0.5c-8.6-1.3-17.1-3.1-25.4-5.8c-5.5-1.7-11.1-3.9-15.1-8.5c-7.1-8.2-9.6-26.2-2.4-34.8
		c7.7-9.3,17.3-19.6,29-26.4l0,0c10-5.8,24.8-6.4,35.8-1.6c0.8,0.3,1.7,0.8,2.4,1.7c1.1,1.3,1.1,3,0.3,4.2c-3,4.4-12.7,7.1-15.8,7.5
		c-4.7,0.6-8.5,2-12.6,4.7c-8.9,5.8-16,14.7-22.1,22.7c-1.1,1.3-1.9,2.5-1.9,3.6c-0.2,2.2,2.5,4.1,4.1,5c7.4,4.4,18.5,8.3,27.1,6.6
		c4.7-0.9,8.9-1.3,13.5-1.7c1.9-0.2,3.9-0.6,6.1-1.1c4.1-0.9,8.3-1.9,12.6-0.8c1.6,0.3,4.4,1.1,5.6,3.6c1.6,3-0.3,6.1-0.8,7.2
		c-6.4,11.6-14.1,14.1-25.3,14.1c-1.3,0-2.4,0-3.5,0.2C234.2,263.1,232.8,263.1,231.2,263.1z M212.5,190.8L212.5,190.8
		c-11.3,6.4-20.4,16.5-27.9,25.4c-5.8,7.1-3.6,22.9,2.2,29.7c3.3,3.8,8.3,5.6,13.2,7.2c8,2.5,16.5,4.4,24.8,5.6
		c3.6,0.5,7.1,0.5,10.7,0.3c1.1,0,2.4,0,3.6-0.2c11.6-0.2,16.8-3.1,21.8-12.1c0.9-1.6,1.1-2.8,0.8-3.5c-0.3-0.8-1.7-1.1-3-1.6
		c-3.3-0.8-6.7,0-10.5,0.8c-2.2,0.5-4.4,1.1-6.7,1.3c-4.4,0.3-8.5,0.6-12.9,1.6c-9.9,2-22-2.4-30-7.1c-5.3-3.1-6.3-6.4-6.1-8.6
		c0.2-2.5,1.7-4.4,2.8-6c6.4-8.2,13.5-17.4,23.1-23.5c4.5-3,8.8-4.5,14.3-5.3c3.9-0.5,10.8-3,12.9-5.3c-0.2-0.2-0.6-0.3-0.8-0.3
		C234.8,185,221.5,185.6,212.5,190.8z"/>
</g>
<g>
	<path style="fill:#FFFFFF;" d="M227.1,202.5c-4.4,0-8.3,3.3-10.4,8.9l-0.3,1.1c-1.4,4.2-5.3,15.2-9.6,15.2
		c-4.5-0.2-9.7-6.6-11.1-8.8c-0.2-0.2-0.3-0.5-0.5-0.6c-4.4-4.4-8.9-6.6-13.5-6.6c-5.2,0-9.9,3-12.6,8.2c-3,5.6-2.8,12.4,0.5,17.1
		c5.6,8.3,21.6,20.2,35.8,20.2c4.1,0,7.7-0.9,11-3c17.4-10.7,24.9-28.6,22.1-39.7C236.4,206.9,232.1,202.5,227.1,202.5L227.1,202.5z
		"/>
	<path style="fill:#0088CA;" d="M206.7,227.8c-4.5-0.2-9.7-6.6-11.1-8.8c-0.2-0.2-0.3-0.5-0.5-0.6c-4.4-4.4-8.9-6.6-13.5-6.6
		c-5.2,0-9.9,3-12.6,8.2c-3,5.6-2.8,12.4,0.5,17.1c5.6,8.3,21.6,20.2,35.8,20.2c4.1,0,7.7-0.9,11-3
		C222.1,234.8,206.7,227.8,206.7,227.8z"/>
	<path d="M227.1,206.5c2.8,0,5.8,2.8,7.4,8.9c3,11.5-7.1,27.3-20.4,35.3c-2.7,1.6-5.6,2.4-8.8,2.4c-12.6,0-27.3-11-32.5-18.5
		c-4.7-6.9,0.2-19,8.8-19c3.1,0,6.7,1.6,10.7,5.5c0,0,6.7,10.5,14.4,10.7h0.2c7.5,0,11.6-12.9,13.8-19
		C222.1,208.8,224.6,206.5,227.1,206.5 M227.1,202.5c-4.4,0-8.3,3.3-10.4,8.9l-0.3,1.1c-1.4,4.2-5.3,15.2-9.6,15.2
		c-4.5-0.2-9.7-6.6-11.1-8.8c-0.2-0.2-0.3-0.5-0.5-0.6c-4.4-4.4-8.9-6.6-13.5-6.6c-5.2,0-9.9,3-12.6,8.2c-3,5.6-2.8,12.4,0.5,17.1
		c5.6,8.3,21.6,20.2,35.8,20.2c4.1,0,7.7-0.9,11-3c17.4-10.7,24.9-28.6,22.1-39.7C236.4,206.9,232.1,202.5,227.1,202.5L227.1,202.5z
		"/>
</g>
<g>
	<g>
		<g>
			<g>
				<g>
					<path style="fill:#008C2E;" d="M65.2,219.2c-0.2,0-0.2-0.2-0.2-0.3l-2.2-6.6l0,0c-3.9-4.4-4.9-10.8-2.2-16.2
						c3.6-7.1,12.2-10,19.5-6.4c3.5,1.7,6,4.5,7.2,8.2l70.8,35.5c6,3,8.3,10.2,5.3,16c-3,6-10.2,8.3-16,5.3L72.3,217l-6.4,2.2
						C65.5,219.3,65.4,219.3,65.2,219.2z M63.6,212.3l2,6.1l6.3-2c0.2,0,0.2,0,0.3,0l75.3,37.7c5.5,2.8,12.2,0.5,14.9-5
						c2.8-5.5,0.5-12.2-5-14.9l-70.8-35.5c-0.2,0-0.2-0.2-0.2-0.3c-1.1-3.5-3.6-6.3-6.9-7.8c-6.7-3.3-14.9-0.6-18.4,6.1
						c-2.5,5-1.7,11.1,2.2,15.4C63.6,211.9,63.6,212.1,63.6,212.3z"/>
					<path d="M73.5,188.1c2.2,0,4.4,0.5,6.4,1.6c3.5,1.7,6,4.5,7.2,8.2l70.8,35.5c6,3,8.3,10.2,5.3,16c-2,4.2-6.3,6.6-10.7,6.6
						c-1.7,0-3.6-0.5-5.3-1.3L72.1,217l-6.4,2.2h-0.2h-0.2c-0.2,0-0.2-0.2-0.2-0.3l-2.2-6.6l0,0c-3.9-4.4-4.9-10.8-2.2-16.2
						C63.2,191.1,68.3,188.1,73.5,188.1 M65.7,218.4l6.3-2h0.2h0.2l75.3,37.7c1.6,0.8,3.3,1.3,5,1.3c4.1,0,8-2.2,10-6.1
						c2.8-5.5,0.5-12.2-5-14.9l-70.9-35.6c-0.2,0-0.2-0.2-0.2-0.3c-1.1-3.5-3.6-6.3-6.9-7.8c-1.9-0.9-4.1-1.4-6.1-1.4
						c-5,0-9.9,2.8-12.2,7.5c-2.5,5-1.7,11.1,2.2,15.4c0.2,0.2,0.2,0.2,0.2,0.3L65.7,218.4 M73.5,184.2c-7.1,0-13.3,3.9-16.5,10.2
						c-3.3,6.4-2.4,14.4,2.2,19.9l2,6c0.3,1.1,1.1,2,2.2,2.5c0.6,0.3,1.3,0.5,2,0.5c0.5,0,0.9-0.2,1.4-0.2l4.9-1.6l73.6,36.9
						c2.2,1.1,4.7,1.7,7.2,1.7c6.1,0,11.6-3.5,14.3-8.8c3.9-7.8,0.8-17.6-7.2-21.5l-69.3-34.7c-1.7-3.9-4.7-7.1-8.6-8.9
						C79.3,184.8,76.5,184.2,73.5,184.2L73.5,184.2z M67.6,211.3c-0.2-0.8-0.5-1.6-1.1-2.2c-2.7-3-3.3-7.2-1.6-10.8
						c1.6-3.3,4.9-5.3,8.6-5.3c1.6,0,3,0.3,4.2,0.9c2.4,1.1,4.1,3.1,4.9,5.5c0.3,1.1,1.1,2,2.2,2.5l70.9,35.8c3.5,1.7,4.9,6,3.1,9.6
						c-1.3,2.4-3.6,3.9-6.4,3.9c-1.1,0-2.2-0.3-3.1-0.8L74,212.7c-0.6-0.3-1.3-0.5-2-0.5c-0.5,0-0.9,0.2-1.4,0.2l-2.4,0.8
						L67.6,211.3L67.6,211.3z"/>
				</g>
			</g>
		</g>
	</g>
	<g>
		<g>
			<g>
				<path style="fill:#008C2E;" d="M65.2,219.2c-0.2,0-0.2-0.2-0.2-0.3l-2.2-6.6l0,0c-3.9-4.4-4.9-10.8-2.2-16.2
					c3.6-7.1,12.2-10,19.5-6.4c3.5,1.7,6,4.5,7.2,8.2l70.8,35.5c6,3,8.3,10.2,5.3,16c-3,6-10.2,8.3-16,5.3L72.3,217l-6.4,2.2
					C65.5,219.3,65.4,219.3,65.2,219.2z"/>
			</g>
		</g>
	</g>
	<circle style="fill:#FFFFFF;" cx="73.5" cy="202.4" r="11.6"/>
	<path style="fill:#00A922;" d="M70.1,200.3l1.9-3.1c0.5-0.8,1.7-0.8,2.2,0l1.9,3.1l1.9,3.1c0.5,0.9-0.2,1.9-1.1,1.9h-3.8h-3.8
		c-0.9,0-1.6-1.1-1.1-1.9L70.1,200.3z"/>
</g>
<path d="M267.7,208c-0.5,0-0.9-0.2-1.3-0.5c-0.8-0.8-0.9-2-0.2-2.8c3.8-4.2,6.7-8.9,9.1-14.1c1.9-4.1,4.4-11.5,0.8-16.6
	c-3-4.4-9.3-5.5-14.3-6c-4.7-0.5-10.5,0.2-16.2,0.8c-2.7,0.3-5.2,0.5-7.4,0.6c-1.1,0-2-0.8-2.2-1.9c0-1.1,0.8-2,1.9-2.2
	c2.2-0.2,4.7-0.5,7.2-0.6c5.8-0.6,11.9-1.3,16.9-0.8c6,0.6,13.3,2,17.3,7.7c3.5,5,3.3,12.4-0.5,20.7c-2.5,5.5-5.8,10.5-9.7,15.1
	C268.8,207.9,268.2,208,267.7,208z"/>
<g>
	<path style="fill-rule:evenodd;clip-rule:evenodd;fill:#0088CA;" d="M101.3,252.4c0.3,2.8,1.7,5.2,3.8,7.1
		c12.1,11.1,37.8,0,45.7-12.4c5.2-8.2-0.2-17.3-9.1-19.8c-6.4-1.9-11,0.5-15.8,4.4c-2.2,1.9-4.4,3.8-6.9,5.2
		c-3.5,2-7.5,2.4-11.3,4.1C103.6,242.7,100.8,248.2,101.3,252.4z"/>
	<path d="M118.2,266.1c-5.8,0-10.8-1.7-14.4-5c-2.5-2.4-4.1-5.3-4.4-8.3l0,0c-0.5-5.3,2.8-11.5,7.5-13.5c1.7-0.8,3.5-1.3,5.2-1.7
		c2-0.6,4.1-1.1,5.8-2.2c1.9-1.1,3.5-2.5,5.2-3.9l1.4-1.1c4.4-3.6,9.9-6.9,17.6-4.7c5.5,1.6,9.9,5.3,11.8,10.2
		c1.6,4.2,1.1,8.6-1.4,12.6c-5.5,8.5-18.4,16.2-30,17.6C121.1,265.9,119.6,266.1,118.2,266.1z M137.4,228.6c-3.8,0-6.9,1.9-10.2,4.5
		l-1.4,1.1c-1.7,1.4-3.6,3-5.8,4.2c-2.2,1.3-4.5,1.9-6.7,2.5c-1.7,0.5-3.1,0.9-4.7,1.6c-3.3,1.6-5.5,6.3-5.2,9.6l0,0
		c0.2,2,1.3,4.1,3.1,5.8c4.5,4.2,11,4.4,15.5,3.8c10.4-1.4,22.3-8.3,27.1-15.8c2.4-3.6,1.9-6.9,1.1-8.9c-1.4-3.6-4.7-6.6-9.1-7.8
		C139.7,228.7,138.5,228.6,137.4,228.6z"/>
</g>
<g>
	<path style="fill:#2EBCFF;" d="M265.2,199.4l8.3-62.9c1.1-7.7-4.2-14.9-11.9-16.2l0,0c-8.2-1.3-15.8,4.5-16.6,12.9l-3.3,34.4
		C241.7,167.7,260.7,172.4,265.2,199.4z"/>
	<path d="M265.2,201.4c-0.9,0-1.9-0.8-2-1.7c-4.1-25.3-21.2-30-22-30.1c-0.9-0.3-1.6-1.1-1.6-2.2L243,133c0.5-4.5,2.7-8.6,6.3-11.5
		s8.2-3.9,12.7-3.1c8.8,1.4,14.7,9.4,13.6,18.4l-8.3,62.9C267,200.6,266.2,201.3,265.2,201.4L265.2,201.4z M243.9,166.3
		c4.2,1.6,15.1,7.1,20.7,22.6l7.1-52.7c0.9-6.7-3.6-12.7-10.4-13.8c-3.5-0.6-6.7,0.3-9.6,2.4c-2.7,2-4.4,5.2-4.7,8.6L243.9,166.3z"
		/>
</g>
<g>
	<path style="fill:#FF780C;" d="M245.2,167.7c0,0,17.6,10.8,18.8,24l37.5-30.7c7.1-5.2,8.5-15.1,3-22l0,0
		c-5.3-6.6-14.9-7.5-21.3-2.2L245.2,167.7z"/>
	<path d="M263.8,193.7c-0.3,0-0.5,0-0.8-0.2c-0.6-0.3-1.1-0.9-1.3-1.7c-1.1-12.1-17.6-22.4-17.9-22.4c-0.6-0.3-0.9-0.9-0.9-1.6
		c0-0.6,0.2-1.3,0.8-1.7l37.7-30.9c3.6-3,8-4.2,12.7-3.8c4.5,0.5,8.6,2.7,11.6,6.3c3,3.8,4.4,8.3,3.8,13.2
		c-0.6,4.7-3.1,8.9-7.1,11.8l-37.3,30.7C264.8,193.6,264.3,193.7,263.8,193.7z M248.4,167.5c4.4,3.1,14,11,16.8,20.4l34.8-28.6
		c3.1-2.2,5-5.3,5.5-9.1c0.5-3.6-0.5-7.2-2.8-10c-2.2-2.7-5.3-4.4-8.9-4.9c-3.5-0.3-6.9,0.6-9.7,3L248.4,167.5z"/>
</g>
<g>
	<path style="fill:#FFEA88;" d="M303.4,117l9.6-9.1c2.5-2.4,6.4-2.2,8.8,0.3l0,0c2.4,2.5,2.2,6.3-0.2,8.6l-9.4,9.1
		c-2.4,2.2-6,2.4-8.3,0.3l-0.2-0.2C300.8,123.9,300.7,119.5,303.4,117z"/>
	<path style="fill:#FFCF00;" d="M317.2,109c0.9,0,1.9,0.5,2.5,1.1c1.3,1.4,1.3,3.6-0.2,4.9l-9.4,9.1c-0.6,0.6-1.6,0.9-2.5,0.9
		c-0.8,0-1.7-0.3-2.4-0.8L305,124c-0.8-0.6-1.3-1.6-1.3-2.5s0.3-1.9,1.1-2.7l9.6-9.1C315.4,109.3,316.2,109,317.2,109 M317.2,106.4
		c-1.6,0-3,0.6-4.2,1.7l-9.6,9.1c-2.7,2.5-2.5,6.7,0.2,9.1l0.2,0.2c1.1,0.9,2.7,1.6,4.1,1.6c1.6,0,3.1-0.6,4.2-1.7l9.4-9.1
		c2.4-2.4,2.5-6.1,0.2-8.6l0,0C320.5,107,318.7,106.4,317.2,106.4L317.2,106.4z"/>
</g>
<g>
	<path style="fill:#FFEA88;" d="M317.2,131.5l11.3-6.7c3-1.7,6.7-0.8,8.5,2.2l0,0c1.7,3,0.8,6.6-2.2,8.3l-11.1,6.9
		c-2.7,1.7-6.3,0.9-8.2-1.6l-0.2-0.2C313.1,137.6,314,133.3,317.2,131.5z"/>
	<path style="fill:#FFCF00;" d="M331.6,126.6c1.3,0,2.4,0.6,3,1.7c0.9,1.7,0.5,3.8-1.3,4.7l-11.1,6.9c-0.6,0.3-1.3,0.5-1.9,0.5
		c-1.1,0-2.2-0.5-2.8-1.4l-0.2-0.2c-0.6-0.8-0.8-1.7-0.6-2.8c0.2-0.9,0.8-1.9,1.6-2.4l11.3-6.7C330.3,126.8,331,126.6,331.6,126.6
		 M331.6,123.9c-1.1,0-2.2,0.3-3.1,0.9l-11.3,6.7c-3.1,1.9-3.9,6.1-1.9,8.9l0.2,0.2c1.3,1.6,3.1,2.5,5,2.5c1.1,0,2.2-0.3,3.3-0.9
		l11.1-6.9c2.8-1.7,3.8-5.5,2.2-8.3C335.8,125,333.6,123.9,331.6,123.9L331.6,123.9z"/>
</g>
<g>
	<path style="fill:#FFEA88;" d="M285.2,110l5.2-12.1c1.4-3.1,5-4.5,8.2-3.1l0,0c3.1,1.4,4.5,4.9,3.1,8l-5,12.1
		c-1.3,3-4.5,4.5-7.5,3.5H289C285.5,117.2,283.7,113.3,285.2,110z"/>
	<path style="fill:#FFCF00;" d="M296,96.8L296,96.8c0.5,0,0.9,0.2,1.4,0.3c1.7,0.8,2.5,2.8,1.9,4.5l-5,12.1
		c-0.5,1.3-1.9,2.2-3.3,2.2c-0.3,0-0.8,0-1.1-0.2h-0.2c-0.9-0.3-1.7-0.9-2.2-1.9c-0.5-0.9-0.5-1.9,0-2.8l5.2-12.1
		C293.3,97.6,294.7,96.8,296,96.8 M296,94.1c-2.4,0-4.7,1.4-5.6,3.8l-5.2,12.1c-1.4,3.3,0.3,7.2,3.8,8.3h0.2
		c0.6,0.2,1.3,0.3,1.9,0.3c2.5,0,4.7-1.4,5.6-3.8l5-12.1c1.3-3.1-0.2-6.6-3.1-8C297.7,94.3,296.9,94.1,296,94.1L296,94.1z"/>
</g>
</svg>
