<svg xml:space="preserve" style="enable-background:new 0 0 250 250;" viewBox="0 0 250 250" y="0px" x="0px" xmlns:xlink="http://www.w3.org/1999/xlink" xmlns="http://www.w3.org/2000/svg" id="레이어_1" version="1.1">
<g>
	<circle r="115.6" cy="125" cx="125" style="fill:#FBFF2B;"></circle>
	<path d="M125,9.4c63.8,0,115.6,51.7,115.6,115.6S188.8,240.6,125,240.6S9.4,188.8,9.4,125S61.2,9.4,125,9.4 M125,6
		c-16.1,0-31.6,3.1-46.3,9.4c-14.2,6-26.9,14.6-37.8,25.5C29.9,51.8,21.3,64.5,15.3,78.7C9.1,93.4,6,108.9,6,125s3.1,31.6,9.4,46.3
		c6,14.2,14.6,26.9,25.5,37.8c10.9,10.9,23.7,19.5,37.8,25.5c14.7,6.2,30.3,9.4,46.3,9.4s31.6-3.1,46.3-9.4
		c14.2-6,26.9-14.6,37.8-25.5c10.9-10.9,19.5-23.7,25.5-37.8c6.2-14.7,9.4-30.3,9.4-46.3s-3.1-31.6-9.4-46.3
		c-6-14.2-14.6-26.9-25.5-37.8c-10.9-10.9-23.7-19.5-37.8-25.5C156.6,9.1,141.1,6,125,6L125,6z"></path>
</g>
<g>
	<g>
		
			<ellipse ry="26.2" rx="18.6" cy="104.7" cx="103" style="fill:#FFFFFF;" transform="matrix(0.8832 -0.4689 0.4689 0.8832 -37.0629 60.5056)"></ellipse>
		<path d="M107.1,131.7c-2.4,0-4.8-0.5-7.1-1.5c-5.7-2.5-10.8-7.8-15.1-16c-4.3-8.1-5.9-15.3-4.8-21.4c1-5.6,4.4-10,9.7-12.8
			c5.3-2.8,10.8-3.1,16-0.8c5.7,2.5,10.8,7.8,15.1,16h0c4.3,8.1,5.9,15.3,4.8,21.4c-1,5.6-4.4,10-9.7,12.8
			C113.1,130.9,110.1,131.7,107.1,131.7z M98.8,81.1c-2.4,0-4.9,0.6-7.3,1.9c-9.5,5-10.7,15.8-3.5,29.5
			c7.3,13.7,16.9,18.7,26.4,13.7c4.3-2.3,7-5.9,7.9-10.4c1-5.3-0.5-11.8-4.4-19.2c0,0,0,0,0,0c-3.9-7.4-8.4-12.3-13.4-14.4
			C102.7,81.5,100.7,81.1,98.8,81.1z"></path>
	</g>
	<ellipse ry="17" rx="12.1" cy="101.6" cx="108.7" transform="matrix(0.8832 -0.4689 0.4689 0.8832 -34.9576 62.8483)"></ellipse>
</g>
<g>
	<g>
		
			<ellipse ry="26.2" rx="18.6" cy="80.9" cx="147.8" style="fill:#FFFFFF;" transform="matrix(0.8832 -0.4689 0.4689 0.8832 -20.6713 78.745)"></ellipse>
		<path d="M152,107.9c-2.4,0-4.8-0.5-7.1-1.5c-5.7-2.5-10.8-7.8-15.1-16c-4.3-8.1-5.9-15.3-4.8-21.4c1-5.6,4.4-10,9.7-12.8
			c5.3-2.8,10.8-3.1,16-0.8c5.7,2.5,10.8,7.8,15.1,16l0,0c4.3,8.1,5.9,15.3,4.8,21.4c-1,5.6-4.4,10-9.7,12.8
			C157.9,107.1,154.9,107.9,152,107.9z M143.6,57.4c-2.4,0-4.8,0.6-7.3,1.9c-9.5,5-10.7,15.8-3.5,29.5c7.3,13.7,16.9,18.7,26.4,13.7
			c9.5-5,10.7-15.8,3.5-29.5l0,0C157.3,62.7,150.6,57.4,143.6,57.4z"></path>
	</g>
	<ellipse ry="17" rx="12.1" cy="77.8" cx="153.5" transform="matrix(0.8832 -0.4689 0.4689 0.8832 -18.566 81.0877)"></ellipse>
</g>
<g>
	<g>
		<path d="M185.8,134.1c-0.1-1.7-0.1-3.1,0.1-4.2c1.7-10.7,10.6-21,7.1-32.2c-0.1-0.2-0.1-0.4-0.2-0.5
			c-1.1-2.5-3.6-2.4-5.5-0.4c-1.5,1.6-1.6,3.6-2.1,5.5c-0.9,3.5-2.3,6.8-3.9,10c-2.1,4-4.6,7.7-7.5,11.1
			C178.4,126.2,182.5,129.9,185.8,134.1z" style="fill:#611010;"></path>
		<path d="M187.7,139.4l-3.3-4.3c-3.2-4.1-7.1-7.5-11.6-10.2l-1.8-1l1.3-1.6c2.9-3.5,5.4-7.1,7.3-10.8c1.8-3.4,3-6.6,3.8-9.6
			c0.1-0.4,0.2-0.8,0.3-1.1c0.4-1.7,0.8-3.6,2.3-5.2c1.5-1.6,3.3-2.3,4.9-2c1.5,0.3,2.7,1.3,3.4,2.9c0.1,0.2,0.2,0.4,0.3,0.7
			c2.4,7.7-0.5,14.9-3.3,21.8c-1.6,3.9-3.1,7.5-3.7,11.2c-0.1,0.9-0.2,2-0.1,3.8L187.7,139.4z M176.3,123.1c2.9,1.9,5.5,4.1,7.9,6.5
			c0.7-4.1,2.3-8.1,3.9-11.9c2.7-6.6,5.3-12.9,3.2-19.4c0-0.1-0.1-0.2-0.1-0.3c-0.2-0.3-0.4-0.8-0.8-0.8c-0.4-0.1-1.1,0.1-1.8,1
			c-0.9,0.9-1.1,2.1-1.4,3.5c-0.1,0.4-0.2,0.8-0.3,1.2c-0.8,3.3-2.1,6.7-4.1,10.4C181,116.6,178.8,119.9,176.3,123.1z"></path>
	</g>
	<g>
		<path d="M111.7,152.1c-5.5,0.2-11.1-0.1-16.6-0.8c-3.4-0.4-6.8-1-10.1-1.6c-3.3-0.7-5.3-0.9-6.7,2.7
			c-2.2,5.6,24.5,9.9,31.8,14.2c0.5,0.3,1,0.6,1.6,0.9c-0.5-2.5-0.7-5.1-0.7-7.8C111,157.1,111.2,154.5,111.7,152.1z" style="fill:#611010;"></path>
		<path d="M114.1,170.9l-3.3-1.9c-0.5-0.3-1-0.6-1.4-0.8l-0.2-0.1c-2.5-1.5-7.9-3.1-13.2-4.7c-10.9-3.2-17.6-5.4-19.2-8.8
			c-0.5-0.9-0.5-1.9-0.1-2.9c2-5.1,5.7-4.4,8.7-3.8c3.3,0.7,6.7,1.2,10,1.6c5.5,0.7,11,0.9,16.3,0.8l2.1-0.1l-0.4,2.1
			c-0.4,2.4-0.7,4.8-0.7,7.3c0,2.5,0.2,5,0.7,7.5L114.1,170.9z M82.1,151c-1.2,0-1.6,0.5-2.2,2c0,0,0.2,1.1,5,3.1
			c3.4,1.4,7.9,2.7,12.2,4c4.8,1.4,9.4,2.8,12.5,4.2c-0.2-1.5-0.2-3.1-0.2-4.6c0-1.9,0.1-3.9,0.4-5.8c-4.8,0-9.8-0.2-14.8-0.8
			c-3.4-0.4-6.8-1-10.2-1.7C83.5,151.1,82.7,151,82.1,151z"></path>
	</g>
	<g>
		<path d="M169.1,175.6c20.5-10.4,17.1-30.8,16.7-41.5c-3.3-4.3-7.4-7.9-12.1-10.6
			c-5.7,6.7-12.6,12.2-20.1,16.8c-11.6,7-24.8,10.8-38.2,11.6c-1.2,0.1-2.5,0.1-3.7,0.2c-0.4,2.5-0.7,5-0.7,7.6
			c0,2.7,0.3,5.3,0.7,7.8C120.9,172.8,146.9,186.9,169.1,175.6z" style="fill:#FF4747;"></path>
		<path d="M150.6,181.6c-14.4,0-28.7-6.2-39.7-12.6l-0.7-0.4l-0.1-0.8c-0.5-2.7-0.8-5.4-0.8-8.1c0-2.6,0.2-5.3,0.7-7.9l0.3-1.4
			l1.4,0c1.4,0,2.6-0.1,3.6-0.2c13.7-0.9,26.6-4.8,37.4-11.4c7.8-4.8,14.5-10.3,19.7-16.4l0.9-1.1l1.2,0.7c4.9,2.8,9.1,6.5,12.6,11
			l0.3,0.4l0,0.5c0,0.9,0.1,2,0.2,3.1c0.7,11.2,1.8,30-17.8,40l0,0C163.7,180.3,157.1,181.6,150.6,181.6z M113.3,166.4
			c21.6,12.4,40.6,15,55,7.7l0,0c17.6-9,16.6-25.7,15.9-36.7c-0.1-0.9-0.1-1.8-0.1-2.6c-2.8-3.6-6.2-6.6-10-9
			c-5.3,6-11.8,11.3-19.5,16c-11.3,6.8-24.8,10.9-39,11.9c-0.7,0-1.5,0.1-2.4,0.1c-0.3,1.9-0.4,3.9-0.4,5.9
			C112.7,161.9,112.9,164.2,113.3,166.4z"></path>
	</g>
	<g>
		<path d="M148.5,145.9c0,0,13.8,3.4,16.1,17" style="fill:#FF7575;"></path>
		<path d="M164.6,164.6c-0.8,0-1.5-0.6-1.7-1.4c-2.1-12.3-14.3-15.5-14.9-15.6c-0.9-0.2-1.5-1.2-1.2-2.1c0.2-0.9,1.2-1.5,2.1-1.2
			c0.6,0.2,14.9,3.9,17.4,18.4c0.2,0.9-0.5,1.8-1.4,2C164.8,164.6,164.7,164.6,164.6,164.6z"></path>
	</g>
</g>
</svg>
