<svg id="레이어_3" data-name="레이어 3" xmlns="http://www.w3.org/2000/svg" viewBox="0 0 220 280"><defs><style>.cls-1,.cls-8{fill:#fff;}.cls-2,.cls-4{fill:#0088c5;}.cls-10,.cls-2,.cls-3,.cls-8,.cls-9{fill-rule:evenodd;}.cls-3,.cls-6{fill:#009ff9;}.cls-5{fill:#683100;}.cls-7{fill:#009ff8;}.cls-9{fill:#ffbeb8;}</style></defs><path d="M114.16,171.87a4.09,4.09,0,0,1,4.09,4.08v49.46s1.88-2.32,6.84-2.32a19.54,19.54,0,0,1,3.72.38l.29.07a18,18,0,0,1,12.1,9.34c1.3,2.56,1.87,7.25-.18,9.6-2.25,2.59-5.58,2.9-8.81,2.9-1.06,0-2.11,0-3.11,0H112.53c-2.36,0-6.11-1.92-6.11-4.29V206.41h0V176c0-2.26,5.49-4.08,7.74-4.08m0-3.4c-2.36,0-11.13,1.87-11.13,7.48v65.11c0,4.69,5.64,7.68,9.51,7.68H129.1l1.45,0,1.66,0c3.86,0,8.24-.49,11.37-4.07s2.33-10.06.64-13.37a21.4,21.4,0,0,0-14.4-11.12l-.29-.06a23.18,23.18,0,0,0-4.44-.46,16.86,16.86,0,0,0-3.45.34V176a7.49,7.49,0,0,0-7.48-7.48Z"/><path class="cls-1" d="M118.26,175.94v30.48H106.41V175.94c0-2.24,5.49-4.07,7.75-4.07A4.09,4.09,0,0,1,118.26,175.94Z"/><path class="cls-2" d="M141,242.48c-3,3.45-7.89,2.88-11.93,2.88H112.55c-2.38,0-6.14-1.92-6.14-4.3V206.42h11.85v19s2.8-3.43,10.55-1.93a2.57,2.57,0,0,1,.28.06,17.9,17.9,0,0,1,12.1,9.36C142.49,235.43,143.06,240.13,141,242.48Z"/><path class="cls-1" d="M96.74,180.52V211H84.92V180.52c0-2.26,5.48-4.07,7.75-4.07A4.07,4.07,0,0,1,96.74,180.52Z"/><path class="cls-3" d="M119.53,247.06c-3,3.42-7.89,2.85-11.93,2.85H91c-2.35,0-6.11-1.89-6.11-4.27V211H96.74v19s2.8-3.45,10.57-1.93a2.35,2.35,0,0,1,.29.06,18,18,0,0,1,12.1,9.33C121,240,121.57,244.71,119.53,247.06Z"/><path d="M92.66,176.44a4.09,4.09,0,0,1,4.09,4.09V230s1.88-2.31,6.84-2.31a19.61,19.61,0,0,1,3.72.38l.29.06a18,18,0,0,1,12.1,9.34c1.3,2.56,1.87,7.26-.18,9.6-2.25,2.59-5.58,2.91-8.81,2.91-1.06,0-2.11,0-3.11,0H91c-2.36,0-6.11-1.92-6.11-4.29V211h0V180.53c0-2.26,5.49-4.09,7.74-4.09m0-3.39c-2.36,0-11.13,1.87-11.13,7.48v65.11c0,4.69,5.64,7.68,9.51,7.68h18l1.66,0c3.87,0,8.24-.48,11.37-4.07s2.33-10.05.64-13.37a21.39,21.39,0,0,0-14.4-11.11l-.24-.06a23.33,23.33,0,0,0-4.49-.47,16.15,16.15,0,0,0-3.45.35V180.53a7.49,7.49,0,0,0-7.48-7.48Z"/><path class="cls-1" d="M145.8,149.46c-.6-6.23.3-12.22,1.16-18.64.39-2.84,2-13.14-4.06-11.56-2.18.58-3.48,3.67-4.43,5.47a45.22,45.22,0,0,0-4.38,12.32,51.25,51.25,0,0,0-.75,14.4A37.61,37.61,0,0,1,145.8,149.46Z"/><path class="cls-4" d="M153.59,169.85l-.14-.2a45.32,45.32,0,0,1-3.12-5,38.39,38.39,0,0,1-3-7.38c-.37-1.3-.7-2.64-1-4.06a35.22,35.22,0,0,1-.53-3.75,37.61,37.61,0,0,0-12.46,2,59.35,59.35,0,0,0,1,6.9c1.3,6.48,3.25,13.83,7.21,19.32a9.38,9.38,0,0,0,8.79,3.86,10.16,10.16,0,0,0,2-.49c2.21-.78,4.13-2.47,4.38-4.75a4.3,4.3,0,0,0-.07-1.3C156.29,173.05,154.73,171.46,153.59,169.85Z"/><path d="M144.07,119.1c4.63,0,3.25,9.08,2.89,11.72-.86,6.42-1.76,12.41-1.16,18.64a35.22,35.22,0,0,0,.53,3.75c.28,1.42.61,2.76,1,4a38.22,38.22,0,0,0,3,7.39,45.32,45.32,0,0,0,3.12,5l.14.2c1.14,1.61,2.7,3.2,3.07,5.14a4.3,4.3,0,0,1,.07,1.3c-.25,2.28-2.17,4-4.38,4.75a10.16,10.16,0,0,1-2,.49,10,10,0,0,1-1.21.08,9.45,9.45,0,0,1-7.58-3.94c-4-5.49-5.91-12.84-7.21-19.32a59.35,59.35,0,0,1-1-6.9,51.25,51.25,0,0,1,.75-14.4,45.22,45.22,0,0,1,4.38-12.32c.95-1.8,2.25-4.89,4.43-5.47a4.68,4.68,0,0,1,1.17-.16m0-3.4a8.13,8.13,0,0,0-2,.28c-3.38.89-5.09,4.25-6.21,6.47l-.36.69a48.91,48.91,0,0,0-4.71,13.25,55.17,55.17,0,0,0-.8,15.34,63.64,63.64,0,0,0,1,7.29c1.28,6.35,3.31,14.44,7.79,20.63A12.81,12.81,0,0,0,149.1,185a11.71,11.71,0,0,0,1.67-.11,13.86,13.86,0,0,0,2.72-.65c3.71-1.32,6.25-4.23,6.61-7.59a7.47,7.47,0,0,0-.11-2.29,12.91,12.91,0,0,0-2.87-5.46c-.26-.34-.52-.67-.76-1l-.15-.21a43.2,43.2,0,0,1-2.89-4.63,35.17,35.17,0,0,1-2.75-6.74c-.35-1.18-.65-2.42-.92-3.76-.19-1-.35-2.08-.48-3.42-.52-5.49.22-11,1-16.8l.15-1.06,0-.25c.66-4.84,1-10.21-1.67-13.24a6,6,0,0,0-4.62-2.08Z"/><path class="cls-1" d="M117.4,28.33a10.85,10.85,0,0,0-5.44,4c-2.22,3.25-3.5,9.16-1.77,12.81.6,1.27,2.12.38,3.88.08,2.09-.36,1.49-2.27,3-4.09,2.19-2.61,4.47.06,8.28,2.78a7.33,7.33,0,0,0,9.83-1.23A6.31,6.31,0,0,0,134,33.42C128.12,29.13,124.24,25.89,117.4,28.33Z"/><path d="M121.85,27.49c4.35,0,7.67,2.66,12.15,5.93a6.31,6.31,0,0,1,1.19,9.23,7.34,7.34,0,0,1-9.83,1.23C122.65,42,120.71,40,119,40a2.52,2.52,0,0,0-2,1.07c-1.52,1.82-.92,3.73-3,4.09a24.93,24.93,0,0,1-2.79.59,1.09,1.09,0,0,1-1.09-.67c-1.73-3.65-.45-9.56,1.77-12.81a10.85,10.85,0,0,1,5.44-4,13.2,13.2,0,0,1,4.45-.84m0-3.39a16.41,16.41,0,0,0-5.59,1,14.08,14.08,0,0,0-7.1,5.25c-2.82,4.12-4.35,11.29-2,16.18a4.48,4.48,0,0,0,4.15,2.6,9,9,0,0,0,2.37-.4c.32-.08.65-.18,1-.23a5.64,5.64,0,0,0,4.52-4.16c.1-.27.18-.49.26-.67.57.37,1.36,1,2,1.45s1.27,1,2,1.48a10.73,10.73,0,0,0,14.44-1.84A9.67,9.67,0,0,0,140,37.38a9.77,9.77,0,0,0-4-6.7l-.86-.62c-4.35-3.2-8.11-6-13.29-6Z"/><path class="cls-5" d="M123.65,39.74a2.9,2.9,0,0,1,1.59-.14,2.69,2.69,0,0,1-1.52-1.39,2.61,2.61,0,0,1,1.48-3.48,3,3,0,0,1,2-.06,2.65,2.65,0,0,1-1.34-1.28c-.61-1.33.49-2.87,1.92-3.46.13-.05.74-.06.88-.1A20.4,20.4,0,0,1,134,33.42a6.31,6.31,0,0,1,1.19,9.23,7.34,7.34,0,0,1-9.83,1.23c-.91-.64-2.66-1.92-3.2-2.33-.78-.58.51-1.42,1.49-1.81"/><path class="cls-1" d="M77.58,31.85a12.47,12.47,0,0,1,7.26,3.29c3.43,3.29,6,7.32,5.11,12.2-.31,1.7-3.1,3.21-5.17,3.34-2.45.15-2.3-1.64-4.54-3.42-3.2-2.55-5,1.32-8.49,5.66a8.09,8.09,0,0,1-11.41,1.25A8.22,8.22,0,0,1,59,42.7C64.39,35.89,69.2,30.8,77.58,31.85Z"/><path d="M75.44,31.72a17.66,17.66,0,0,1,2.14.13,12.47,12.47,0,0,1,7.26,3.29c3.43,3.29,6,7.32,5.11,12.2-.31,1.7-3.1,3.21-5.17,3.34H84.5c-2.16,0-2.11-1.72-4.26-3.43a3.18,3.18,0,0,0-1.95-.81c-2.13,0-3.82,3.09-6.54,6.47a8.08,8.08,0,0,1-11.41,1.25A8.22,8.22,0,0,1,59,42.7c4.89-6.21,9.31-11,16.41-11m0-3.4h0c-8.69,0-14,5.81-19.08,12.28a11.66,11.66,0,0,0,1.85,16.21A11.48,11.48,0,0,0,74.4,55c.64-.79,1.23-1.58,1.78-2.31a26.79,26.79,0,0,1,2.14-2.66,8,8,0,0,1,1,1.12,6.06,6.06,0,0,0,5.2,2.89l.49,0c2.93-.18,7.59-2.24,8.3-6.11,1-5.3-1.08-10.44-6.09-15.26a15.7,15.7,0,0,0-9.2-4.2,20.38,20.38,0,0,0-2.56-.17Z"/><path class="cls-5" d="M72.47,47.45a3.18,3.18,0,0,0-1.83.27A3.21,3.21,0,0,0,72,45.62a3.28,3.28,0,0,0-2.66-3.79,3.16,3.16,0,0,0-2.26.49,3.23,3.23,0,0,0,1.13-1.92c.3-1.78-1.38-3.34-3.15-3.64a9.13,9.13,0,0,0-1,.12,23.48,23.48,0,0,0-5,5.82,8.22,8.22,0,0,0,1.31,11.47,8.09,8.09,0,0,0,11.41-1.25c.83-1,2.43-3.06,2.92-3.7.71-.92-1-1.57-2.2-1.77"/><path d="M106.68,43.42c10.61,0,21.61,4.32,30.39,10.25,7.5,5.07,12.59,14.22,15.24,22.73.16.52.28,1,.42,1.54.3.87.59,1.74.84,2.6,3,10.35,1.21,19.36-1.66,29.63-.63,2.23-5.1,13.12-5.18,13.65-1.29,6,1.81,13.29,2.67,19.18,1.59,11,1.9,22.29-2.68,32.64-6.24,14.12-20.77,19.13-35.2,20.1-1.42.09-2.85.14-4.27.14h-1.14l-3.53-.05c-1.73,0-3.54-.12-5.26-.29-11.87-1.14-24.94-5.75-32.36-15.61-5.36-7.13-7.4-18.95-6.81-27.76.46-6.87,2.57-13.51,3.86-20.24.51-2.63,1.5-5.21,1.29-7.89,0-.56-.12-1.12-.21-1.68-.42-1.2-3.65-10.3-4.47-13.77A56.38,56.38,0,0,1,56.79,84c1.28-8.82,4.86-18.66,11.47-24.84,8.48-8,19.9-14.39,31.44-15.28l.21,0,3.71-.29q1.51-.12,3.06-.12m0-3.4c-1.13,0-2.25,0-3.34.14l-3.69.29-.28,0C88.21,41.33,76,47.23,65.94,56.65,59.6,62.59,55,72.37,53.43,83.49a59.78,59.78,0,0,0,1.91,26c.7,2.9,2.79,9,4.44,13.71.06.4.11.76.14,1.12a15.54,15.54,0,0,1-.68,4.54c-.2.81-.4,1.63-.56,2.45-.41,2.16-.93,4.37-1.43,6.52a88.66,88.66,0,0,0-2.49,14.14c-.61,9.17,1.47,22,7.49,30,7,9.32,19.67,15.5,34.74,16.95,1.77.17,3.69.27,5.54.3l3.54,0h1.18c1.5,0,3-.05,4.5-.15,19.08-1.28,32.24-8.92,38.08-22.1,5.29-12,4.35-24.73,2.93-34.5-.3-2-.83-4.21-1.35-6.3-1-4.07-2-8.29-1.38-11.58.19-.56,1-2.56,1.68-4.34,1.79-4.54,3.09-7.86,3.47-9.21,2.79-10,5-19.91,1.65-31.5-.26-.88-.55-1.76-.85-2.65l-.13-.48c-.09-.35-.19-.71-.3-1.06-3.34-10.73-9.38-19.67-16.58-24.54-10.33-7-21.8-10.84-32.29-10.84Z"/><path class="cls-6" d="M151.91,110.17c2.87-10.27,4.68-19.28,1.66-29.63-.25-.86-.54-1.73-.84-2.6-.14-.52-.26-1-.42-1.54-2.65-8.51-7.74-17.66-15.24-22.73-9.62-6.51-21.92-11.07-33.45-10.13l-3.71.29-.21,0c-11.54.89-23,7.33-31.44,15.28-6.61,6.18-10.19,16-11.47,24.84a56.53,56.53,0,0,0,1.83,24.61c.82,3.47,4.05,12.57,4.47,13.77.09.56.17,1.12.21,1.68.21,2.68-.78,5.26-1.29,7.89-1.29,6.73-3.4,13.37-3.86,20.24C57.56,161,59.6,172.79,65,179.92c7.42,9.86,20.49,14.47,32.36,15.61,1.72.17,3.53.26,5.26.29l3.53.05h.21c1.73,0,3.47,0,5.2-.13,14.43-1,29-6,35.2-20.1C151.3,165.29,151,154,149.4,143c-.86-5.89-4-13.2-2.67-19.18C146.81,123.29,151.28,112.4,151.91,110.17Z"/><path class="cls-7" d="M103.62,43.54h0Z"/><path class="cls-1" d="M74.57,158.37c-.31-6.25.87-12.19,2-18.57.52-2.82,2.58-13-3.51-11.73-2.21.47-3.65,3.51-4.68,5.25a45.47,45.47,0,0,0-5,12.11A51.92,51.92,0,0,0,62,159.78,37.25,37.25,0,0,1,74.57,158.37Z"/><path class="cls-4" d="M81.39,179.1l-.12-.2a43.26,43.26,0,0,1-2.89-5.14,38.17,38.17,0,0,1-2.67-7.52c-.31-1.31-.57-2.66-.79-4.09a37.94,37.94,0,0,1-.35-3.78A37.25,37.25,0,0,0,62,159.78a59.49,59.49,0,0,0,.64,6.93c1,6.54,2.6,14,6.3,19.64a9.38,9.38,0,0,0,8.6,4.27,10.61,10.61,0,0,0,2.06-.39c2.25-.68,4.24-2.28,4.6-4.55a4.35,4.35,0,0,0,0-1.3C83.94,182.43,82.45,180.77,81.39,179.1Z"/><path d="M74.09,128c4.85,0,3,9.19,2.51,11.84-1.16,6.38-2.34,12.32-2,18.57a37.94,37.94,0,0,0,.35,3.78c.22,1.43.48,2.78.79,4.09a38.17,38.17,0,0,0,2.67,7.52,43.26,43.26,0,0,0,2.89,5.14l.12.2c1.06,1.67,2.55,3.33,2.83,5.28a4.35,4.35,0,0,1,0,1.3c-.36,2.27-2.35,3.87-4.6,4.55a10.46,10.46,0,0,1-2.06.39c-.27,0-.53,0-.8,0a9.43,9.43,0,0,1-7.8-4.3c-3.7-5.67-5.3-13.1-6.3-19.64a59.49,59.49,0,0,1-.64-6.93,51.92,51.92,0,0,1,1.42-14.35,45.47,45.47,0,0,1,5-12.11c1-1.74,2.47-4.78,4.68-5.25a4.56,4.56,0,0,1,1-.11m0-3.4a8.61,8.61,0,0,0-1.71.19c-3.42.73-5.28,4-6.51,6.18l-.38.67a48.71,48.71,0,0,0-5.33,13,55.11,55.11,0,0,0-1.52,15.29,64.4,64.4,0,0,0,.68,7.32c1,6.41,2.63,14.58,6.81,21a12.87,12.87,0,0,0,10.64,5.85c.37,0,.73,0,1.1-.05a14.88,14.88,0,0,0,2.75-.52c3.77-1.15,6.44-3.94,7-7.27a8,8,0,0,0,0-2.3A13,13,0,0,0,85,178.33c-.25-.36-.49-.7-.71-1.05l-.15-.22a43.42,43.42,0,0,1-2.67-4.76A35.14,35.14,0,0,1,79,165.44c-.29-1.2-.53-2.44-.74-3.8A32.69,32.69,0,0,1,78,158.2c-.28-5.51.73-11,1.79-16.73l.19-1.05,0-.25c.9-4.88,1.47-10.29-1.14-13.42a6.07,6.07,0,0,0-4.76-2.19Z"/><path class="cls-8" d="M159,112.46c-5.88,7.32-17.48,12.27-31,13.26-33.57,2.49-51-7.47-53.25-30.46-.34-3.25-1.44-20,8.4-31.67a30.73,30.73,0,0,1,11-8.14,44.09,44.09,0,0,1,15.18-3.51c1.73-.11,3.37-.17,4.95-.17,34.73,0,37.56,26.7,37.64,27.88a1.68,1.68,0,0,0,1.27,1.47c.34.12,8.85,2.52,10.38,13.44C164.49,101.48,163,107.51,159,112.46Z"/><path d="M166.9,94.08c-1.53-10.83-8.91-14.74-11.77-15.84-.87-5.63-6.76-29.86-40.8-29.86-1.67,0-3.42.06-5.26.17-12.42.82-22,5.17-28.53,12.86-10.47,12.36-9.7,29.3-9.22,34.19,2.26,22.74,17.67,33.91,47,33.91,3.14,0,6.44-.14,9.92-.4,14.68-1.07,26.84-6.36,33.4-14.51C166.22,108.89,168,102,166.9,94.08ZM74.71,95.26c-.34-3.25-1.44-20,8.4-31.67a30.73,30.73,0,0,1,11-8.14,44.09,44.09,0,0,1,15.18-3.51c1.73-.11,3.37-.17,4.95-.17,34.73,0,37.56,26.7,37.64,27.88a1.68,1.68,0,0,0,1.27,1.47c.34.12,8.85,2.52,10.38,13.44,1,6.92-.57,13-4.55,17.9-5.88,7.32-17.48,12.27-31,13.26C94.39,128.21,77,118.25,74.71,95.26Z"/><path class="cls-9" d="M124.22,98.37c.16,6.93-5,12.68-11.61,12.83s-12-5.33-12.21-12.25,5-12.67,11.6-12.83,12,5.33,12.22,12.25"/><path class="cls-9" d="M162.89,92.89c-.59-2.35-3.38-10.23-7.22-7.4-5.18,3.81-2.78,13.53-.21,18.36,1,1.9,2.83,4.12,5.38,3.64,1.44-.27,2-3,2.16-3.93A24.32,24.32,0,0,0,162.89,92.89Z"/><path class="cls-10" d="M144.65,92.06a2.23,2.23,0,0,1-4.3.1c0-.89.92-1.65,2.11-1.68a2,2,0,0,1,2.19,1.58"/><path d="M134.09,104.32a6.09,6.09,0,0,1-2.18-.36,1.54,1.54,0,0,1-.85-1.89,1.3,1.3,0,0,1,1.68-1,6.3,6.3,0,0,0,4.44-.52A17.79,17.79,0,0,0,141.69,97l.76-.75A1.21,1.21,0,0,1,144,96c.45.29.91.6,1.36.91,2,1.39,3.8,2.59,5.95,2a1.33,1.33,0,0,1,1.59,1.13,1.51,1.51,0,0,1-1,1.8c-3.2.83-5.71-.88-7.93-2.4l-.48-.32,0,0a20.17,20.17,0,0,1-5.19,4.12A9.71,9.71,0,0,1,134.09,104.32Z"/><path d="M130.89,86.82a2.83,2.83,0,0,1,.14.78V89a2.64,2.64,0,1,1-5.27.12V87.72A22.19,22.19,0,0,0,130.89,86.82Z"/><path d="M145.36,86.55a6.2,6.2,0,0,0,.59,2.58,1.93,1.93,0,0,0,1.68,1.16,2.51,2.51,0,0,0,2.17-2.77V86.13c-1.51-.17-3.28-.33-4.46-.58A7.91,7.91,0,0,0,145.36,86.55Z"/></svg>