<?xml version="1.0" encoding="utf-8"?>
<!-- Generator: Adobe Illustrator 26.0.3, SVG Export Plug-In . SVG Version: 6.00 Build 0)  -->
<svg version="1.1" id="레이어_1" xmlns="http://www.w3.org/2000/svg" xmlns:xlink="http://www.w3.org/1999/xlink" x="0px"
	 y="0px" viewBox="0 0 174 216" style="enable-background:new 0 0 174 216;" xml:space="preserve">
<g id="XMLID_00000116939624975632634640000003246623713809821832_">
	<path style="fill:#A75D00;" d="M167.8,184.2c1.6,7.3,0.5,15.5-4.4,21c-6.3,7-17,8-26.4,6.8c-20.5-2.7-39.1-13.4-56.5-24.6
		c-8.4-5.4-16.8-11.1-23.4-18.7c-0.9-1.1-1.8-2.2-2.7-3.4C74.9,163,94.3,152,112.1,141c5.6-3.5,11.2-7,16.8-10.5
		c0.3,0.1,0.5,0.1,0.8,0.3c1.7,0.7,3,2,4.2,3.4c8.9,9.4,17,19.5,24.3,30.2C162.3,170.5,166.2,177,167.8,184.2z"/>
	<path style="fill:#E0BC76;" d="M128.8,130.5c-5.6,3.5-11.1,7-16.8,10.5c-17.8,11-37.2,22-57.6,24.4c-4.2-5.6-7.6-12-10.9-18.2
		c-3.2-6.1-6.5-12.2-9.6-18.3c6.9-0.4,13.6-3.2,20-6.1c14.4-6.6,28.5-13.8,42.3-21.5c6.8,7.4,14.4,13.9,23.6,18.2
		c-5.8,4.9-11.7,9.7-17.5,14.6c6.5-1.1,13.1-2.3,19.7-3.4C124.3,130.2,126.7,129.8,128.8,130.5z"/>
	<path style="fill:#009A38;" d="M77.9,77.6c5.8,8,11.6,16.3,18.4,23.6c-13.8,7.7-27.9,14.9-42.3,21.5c-6.4,2.9-13.1,5.8-20,6.1
		c-1.5-2.8-3-5.6-4.4-8.4c-5.5-10.3-11-20.8-13.5-32.2c-2.5-11.4-1.7-24,4.7-33.7c6.1-9.2,21-17.7,31.4-10.6
		C62.9,51.3,70.5,67.2,77.9,77.6z"/>
</g>
<path style="fill:#D0D0D0;" d="M146.5,194.8c-0.5,0-1-0.1-1.4-0.4C43.8,137.2,5.9,8.5,5.6,7.2C5.1,5.7,6,4.1,7.6,3.6
	c1.6-0.4,3.2,0.5,3.6,2C11.5,6.9,48.8,133.3,148,189.3c1.4,0.8,1.9,2.6,1.1,4C148.5,194.2,147.5,194.8,146.5,194.8z"/>
<path style="fill:#5E5E5E;" d="M146.5,196.5c-0.8,0-1.6-0.2-2.3-0.6C42.3,138.4,4.2,9,3.9,7.7C3.2,5.2,4.6,2.7,7.1,1.9
	c2.5-0.7,5.1,0.7,5.8,3.2c0.4,1.3,37.5,127,136,182.6c2.2,1.3,3,4.1,1.8,6.4C149.8,195.6,148.2,196.5,146.5,196.5z M8.4,5.3
	c-0.1,0-0.2,0-0.3,0C7.7,5.4,7.5,5.6,7.3,5.9C7.2,6.1,7.2,6.5,7.2,6.8C7.6,8,45.3,136,145.9,192.9c0.5,0.3,1.3,0.1,1.6-0.4
	c0.3-0.6,0.1-1.3-0.4-1.6C47.4,134.5,9.9,7.4,9.5,6.1C9.3,5.6,8.9,5.3,8.4,5.3z"/>
<path d="M8.4,3.5c1.3,0,2.4,0.8,2.8,2.1c0.1,0.5,5.2,17.6,16.3,41.8c4.6-3.6,10.4-6.2,15.9-6.2c3.1,0,6.1,0.8,8.8,2.6
	c10.7,7.3,18.3,23.3,25.7,33.6c11.6,16.2,23.6,33.2,42,41.7c-5.8,4.9-11.7,9.7-17.5,14.6c6.6-1.1,13.1-2.2,19.7-3.3
	c1.4-0.2,2.8-0.5,4.1-0.5c1.2,0,2.3,0.2,3.4,0.6c1.7,0.7,3,2,4.2,3.4c8.9,9.4,17,19.5,24.3,30.2c4.2,6.2,8.2,12.7,9.8,19.9
	c1.6,7.3,0.5,15.5-4.5,21c-4.9,5.4-12.3,7.2-19.7,7.2c-2.2,0-4.5-0.2-6.6-0.5c-20.5-2.7-39.1-13.4-56.5-24.6
	c-8.4-5.4-16.8-11.1-23.4-18.7c-5.6-6.5-9.6-14.1-13.6-21.6c-4.7-8.9-9.4-17.8-14.1-26.7c-5.5-10.3-11-20.8-13.5-32.2
	c-2.5-11.4-1.7-24,4.7-33.7c0.6-1,1.4-1.9,2.2-2.9C11.1,26,5.7,7.7,5.6,7.2C5.1,5.7,6,4.1,7.6,3.6C7.8,3.5,8.1,3.5,8.4,3.5 M8.4,0
	C8.4,0,8.4,0,8.4,0C7.8,0,7.2,0.1,6.6,0.2c-1.7,0.5-3,1.6-3.9,3.1c-0.8,1.5-1,3.2-0.6,4.9c0,0.2,5.3,17.9,16.7,42.9
	c-0.4,0.5-0.7,1-1,1.5c-6.4,9.7-8.3,22.6-5.2,36.4c2.6,11.9,8.3,22.7,13.8,33.1l14.1,26.7c4,7.6,8.2,15.5,14,22.3
	c6.8,7.9,15.7,13.9,24.1,19.4c16.5,10.7,36,22.3,57.9,25.1c2.4,0.3,4.8,0.5,7.1,0.5c9.7,0,17.4-2.9,22.3-8.4
	c5.3-5.9,7.3-15,5.3-24.1c-1.7-7.8-6-14.8-10.3-21.2c-7.4-10.8-15.6-21.1-24.6-30.7c-1.3-1.3-3-3.2-5.4-4.2c-1.4-0.6-3-0.9-4.7-0.9
	c-1.6,0-3.2,0.2-4.7,0.5l-6.9,1.2l7.5-6.3c0.9-0.8,1.4-2,1.2-3.1s-0.9-2.2-2-2.7c-17.1-8-28.6-24-39.8-39.5l-0.8-1.1
	c-2.1-2.9-4.1-6.2-6.4-9.7c-5.6-9-12-19.1-20.2-24.8c-3.2-2.2-6.8-3.3-10.8-3.3c-4.7,0-9.7,1.5-14.5,4.4
	C19.1,20.1,14.6,4.8,14.5,4.7C13.8,1.9,11.2,0,8.4,0L8.4,0z"/>
</svg>
