<svg xml:space="preserve" style="enable-background:new 0 0 960 540;" viewBox="0 0 960 540" y="0px" x="0px" xmlns:xlink="http://www.w3.org/1999/xlink" xmlns="http://www.w3.org/2000/svg" id="레이어_1" version="1.1">
<rect height="540" width="960" style="fill:#202B47;"></rect>
<path d="M0,444.9c7-64.1,39.1-113.8,83.5-157S184,217.1,242,202.1c22.8-5.9,46.2-9.9,68.1-19.1
	c22.1-9.2,42-23.4,61.8-37.4c40.8-28.9,82.6-58.2,129.9-70.8c38.7-10.3,79.1-9,118.8-6.2c51.2,3.5,102.3,9.3,153.4,15
	c15,1.7,30.2,3.4,44.5,8.7c55.8,20.5,86.5,89.2,141.5,112.1V540H0V444.9z" style="fill:#182136;"></path>
<path d="M960,540c-56.4-84.2-139.9-158.4-241.1-171c-65.6-8.1-134,10.1-197.5-8.2c-23.9-6.9-46-18.7-69.8-26
	c-40.9-12.6-84.7-11.1-127.4-8.1C208.6,335,82.4,364.2,0,444.9V540H960z" style="fill:#151C2E;"></path>
<g>
	<g>
		<path d="M261.2,213.2l2.8,5.3c1,1.9,2.5,3.4,4.3,4.4l5.2,2.9c0.2,0.1,0.2,0.4,0,0.5l-5.2,2.9
			c-1.8,1-3.3,2.5-4.3,4.4l-2.8,5.3c-0.1,0.2-0.4,0.2-0.5,0l-2.8-5.3c-1-1.9-2.5-3.4-4.3-4.4l-5.2-2.9c-0.2-0.1-0.2-0.4,0-0.5
			l5.2-2.9c1.8-1,3.3-2.5,4.3-4.4l2.8-5.3C260.8,213,261.1,213,261.2,213.2z" style="fill:#D4F0FF;"></path>
	</g>
	<g>
		<path d="M751.5,114.9l2.8,5.3c1,1.9,2.5,3.4,4.3,4.4l5.2,2.9c0.2,0.1,0.2,0.4,0,0.5l-5.2,2.9
			c-1.8,1-3.3,2.5-4.3,4.4l-2.8,5.3c-0.1,0.2-0.4,0.2-0.5,0l-2.8-5.3c-1-1.9-2.5-3.4-4.3-4.4l-5.2-2.9c-0.2-0.1-0.2-0.4,0-0.5
			l5.2-2.9c1.8-1,3.3-2.5,4.3-4.4l2.8-5.3C751.1,114.7,751.4,114.7,751.5,114.9z" style="fill:#D4F0FF;"></path>
	</g>
	<g>
		<path d="M854.9,410.9l2.8,5.3c1,1.9,2.5,3.4,4.3,4.4l5.2,2.9c0.2,0.1,0.2,0.4,0,0.5L862,427
			c-1.8,1-3.3,2.5-4.3,4.4l-2.8,5.3c-0.1,0.2-0.4,0.2-0.5,0l-2.8-5.3c-1-1.9-2.5-3.4-4.3-4.4l-5.2-2.9c-0.2-0.1-0.2-0.4,0-0.5
			l5.2-2.9c1.8-1,3.3-2.5,4.3-4.4l2.8-5.3C854.5,410.7,854.8,410.7,854.9,410.9z" style="fill:#D4F0FF;"></path>
	</g>
	<g>
		<path d="M402.3,428.5c-0.3,0-0.6-0.3-0.6-0.6c-0.9-14.8-1.5-15.4-16.3-16.6c-0.3,0-0.6-0.3-0.6-0.7
			c0-0.3,0.3-0.6,0.6-0.6c14.8-0.9,15.4-1.5,16.6-16.3c0-0.3,0.3-0.6,0.7-0.6c0.3,0,0.6,0.3,0.6,0.6c0.9,14.8,1.5,15.4,16.3,16.6
			c0.3,0,0.6,0.3,0.6,0.7c0,0.3-0.3,0.6-0.6,0.6c-14.8,0.9-15.4,1.5-16.6,16.3C402.9,428.2,402.6,428.5,402.3,428.5z" style="fill:#D4F0FF;"></path>
	</g>
	<g>
		<path d="M670.7,256.9c-0.3,0-0.6-0.3-0.6-0.6c-0.9-14.8-1.5-15.4-16.3-16.6c-0.3,0-0.6-0.3-0.6-0.7
			c0-0.3,0.3-0.6,0.6-0.6c14.8-0.9,15.4-1.5,16.6-16.3c0-0.3,0.3-0.6,0.7-0.6c0.3,0,0.6,0.3,0.6,0.6c0.9,14.8,1.5,15.4,16.3,16.6
			c0.3,0,0.6,0.3,0.6,0.7c0,0.3-0.3,0.6-0.6,0.6c-14.8,0.9-15.4,1.5-16.6,16.3C671.3,256.6,671,256.9,670.7,256.9z" style="fill:#D4F0FF;"></path>
	</g>
	<g>
		<path d="M345,64.6c-0.3,0-0.6-0.3-0.6-0.6c-0.9-14.8-1.5-15.4-16.3-16.6c-0.3,0-0.6-0.3-0.6-0.7
			c0-0.3,0.3-0.6,0.6-0.6c14.8-0.9,15.4-1.5,16.6-16.3c0-0.3,0.3-0.6,0.7-0.6c0.3,0,0.6,0.3,0.6,0.6c0.9,14.8,1.5,15.4,16.3,16.6
			c0.3,0,0.6,0.3,0.6,0.7c0,0.3-0.3,0.6-0.6,0.6c-14.8,0.9-15.4,1.5-16.6,16.3C345.6,64.3,345.3,64.6,345,64.6z" style="fill:#D4F0FF;"></path>
	</g>
	<g>
		<circle r="5.4" cy="275.3" cx="140.9" style="fill:#D4F0FF;"></circle>
	</g>
	<g>
		<circle r="5.4" cy="83.5" cx="126.5" style="fill:#D4F0FF;"></circle>
	</g>
	<g>
		<circle r="5.4" cy="102.5" cx="420.1" style="fill:#D4F0FF;"></circle>
	</g>
	<g>
		<circle r="5.4" cy="61.2" cx="582.6" style="fill:#D4F0FF;"></circle>
	</g>
	<g>
		<circle r="5.4" cy="455.4" cx="248.3" style="fill:#D4F0FF;"></circle>
	</g>
	<g>
		<circle r="5.4" cy="460.8" cx="811.5" style="fill:#D4F0FF;"></circle>
	</g>
	<g>
		<circle r="5.4" cy="357.6" cx="71.7" style="fill:#D4F0FF;"></circle>
	</g>
	<g>
		<circle r="5.4" cy="93" cx="885.6" style="fill:#D4F0FF;"></circle>
	</g>
</g>
</svg>
