<?xml version="1.0" encoding="utf-8"?>
<!-- Generator: Adobe Illustrator 26.5.0, SVG Export Plug-In . SVG Version: 6.00 Build 0)  -->
<svg version="1.1" id="레이어_1" xmlns="http://www.w3.org/2000/svg" xmlns:xlink="http://www.w3.org/1999/xlink" x="0px"
	 y="0px" viewBox="0 0 155 235" style="enable-background:new 0 0 155 235;" xml:space="preserve">
<g>
	<path style="fill:#AE7E4C;" d="M44.7,142.3C44.7,142.3,44.8,142.3,44.7,142.3c0.4,0,0.6,0.3,0.6,0.6c0,0.5-0.5,46.6-0.9,63.6
		c0,0.1,0,0.2-0.1,0.3c-1,1.8-1.5,3.8-1.5,6.1c-0.3,14.8,9.6,16.1,16.8,17.1c4.2,0.6,10.4-0.3,14.7-3.8c2.8-2.2,4.4-5.1,4.7-8.6
		c0-0.1,0-0.1,0.1-0.2c5.3-11.1,8.9-15.7,17.7-15.7c5.3,0,13.5,2.6,20.1,4.8c4.2,1.4,7.9,2.6,9.9,2.8c0.5,0.1,1.1,0.1,1.7,0.2
		c5.9,0.8,15.8,2,21.2-8c3.4-6.3,4.1-13.6,1.6-19.2c-1.4-3.3-3.7-5.5-6.5-6.2c-7.7-2-26-10.6-26.8-11c-0.3-0.2-1.9-1.4-2.8-7.4
		c-0.9-5.8-3.7-20.6-3.8-20.8c-0.1-0.3,0.1-0.5,0.3-0.6c0.2-0.1,0.5,0,0.7,0.2c6.4,10,19.1,29.2,20.9,30.9c2.3,2.1,5.4,5,12,2.7
		c2.3-0.8,3.8-2.2,4.4-4.3c1.2-3.7-0.4-8.9-4.2-14c-1.5-2-3.7-5.7-6.5-10.4c-8.2-13.7-22-36.8-30.8-37.3c-11.7-0.8-66.5,5.3-67,5.4
		c0,0-3.2,1.5-12.7,19.9c-1,1.9-2.1,4-3.2,6c-7.9,15-16.9,32.1-13.9,40.7c0.7,2.1,2.1,3.5,4.2,4.4c2.9,1.2,5.7,1.2,8.5-0.2
		c12.5-6.3,19.8-37.2,19.9-37.5C44.2,142.5,44.5,142.3,44.7,142.3z"/>
	<circle style="fill:#CA9866;" cx="79.8" cy="153.7" r="25.9"/>
	<path style="fill:#CA9866;" d="M135.7,210.2L135.7,210.2c-0.1,0-1.6-0.2-2.8-1.9c-1.6-2.1-2-5.3-1.3-9.7c1.2-7.6,2.9-16.1,8-19.6
		c2.3-1.6,5.2-2.1,8.5-1.5c0,0,9.8,4.4,1.7,23.1C149.8,200.6,147.1,209.3,135.7,210.2z"/>
	<path style="fill:#CA9866;" d="M61.1,199.1c-2.3,0-10.2,0.3-14.9,4.7c-2.4,2.3-3.7,5.3-3.7,9c-0.3,14.8,9.6,16.1,16.8,17.1
		c4.2,0.6,10.4-0.3,14.7-3.8c2.8-2.2,4.4-5.1,4.7-8.6c0.5-6.2-0.5-10.6-3.1-13.6c-2.7-3.1-7.2-4.7-13.7-4.9
		C61.8,199.2,61.6,199.1,61.1,199.1z"/>
	<path style="fill:#CA9866;" d="M148.7,155.3c-6.2,8.2-17.9,9-18.4,9l0,0c0,0,6.5,10.1,15,5.8c0,0,6.3-2.4,4.3-10.3L148.7,155.3z"/>
	<path style="fill:#CA9866;" d="M30.3,174.6c-10.3,0.2-18.2-8.4-18.5-8.8l0,0c0,0-3.9,11.4,4.8,15.4c0,0,5.8,3.4,10.8-3.1
		L30.3,174.6z"/>
	<path style="fill:none;stroke:#000000;stroke-width:3;stroke-miterlimit:10;" d="M44.7,142.3C44.7,142.3,44.8,142.3,44.7,142.3
		c0.4,0,0.6,0.3,0.6,0.6c0,0.5-0.5,46.6-0.9,63.6c0,0.1,0,0.2-0.1,0.3c-1,1.8-1.5,3.8-1.5,6.1c-0.3,14.8,9.6,16.1,16.8,17.1
		c4.2,0.6,10.4-0.3,14.7-3.8c2.8-2.2,4.4-5.1,4.7-8.6c0-0.1,0-0.1,0.1-0.2c5.3-11.1,8.9-15.7,17.7-15.7c5.3,0,13.5,2.6,20.1,4.8
		c4.2,1.4,7.9,2.6,9.9,2.8c0.5,0.1,1.1,0.1,1.7,0.2c5.9,0.8,15.8,2,21.2-8c3.4-6.3,4.1-13.6,1.6-19.2c-1.4-3.3-3.7-5.5-6.5-6.2
		c-7.7-2-26-10.6-26.8-11c-0.3-0.2-1.9-1.4-2.8-7.4c-0.9-5.8-3.7-20.6-3.8-20.8c-0.1-0.3,0.1-0.5,0.3-0.6c0.2-0.1,0.5,0,0.7,0.2
		c6.4,10,19.1,29.2,20.9,30.9c2.3,2.1,5.4,5,12,2.7c2.3-0.8,3.8-2.2,4.4-4.3c1.2-3.7-0.4-8.9-4.2-14c-1.5-2-3.7-5.7-6.5-10.4
		c-8.2-13.7-22-36.8-30.8-37.3c-11.7-0.8-66.5,5.3-67,5.4c0,0-3.2,1.5-12.7,19.9c-1,1.9-2.1,4-3.2,6c-7.9,15-16.9,32.1-13.9,40.7
		c0.7,2.1,2.1,3.5,4.2,4.4c2.9,1.2,5.7,1.2,8.5-0.2c12.5-6.3,19.8-37.2,19.9-37.5C44.2,142.5,44.5,142.3,44.7,142.3z"/>
</g>
<g>
	<g>
		<circle style="fill:#F00000;" cx="18.5" cy="29.7" r="17.1"/>
		<path d="M18.5,48.2C8.3,48.2,0,39.9,0,29.7s8.3-18.5,18.5-18.5S37,19.5,37,29.7S28.7,48.2,18.5,48.2z M18.5,13.9
			C9.8,13.9,2.7,21,2.7,29.7s7.1,15.8,15.8,15.8s15.8-7.1,15.8-15.8S27.2,13.9,18.5,13.9z"/>
	</g>
	<g>
		<circle style="fill:#F00000;" cx="118.7" cy="19.1" r="17.1"/>
		<path d="M118.7,37.6c-10.2,0-18.5-8.3-18.5-18.5s8.3-18.5,18.5-18.5s18.5,8.3,18.5,18.5S128.9,37.6,118.7,37.6z M118.7,3.4
			c-8.7,0-15.8,7.1-15.8,15.8S110,35,118.7,35s15.8-7.1,15.8-15.8S127.4,3.4,118.7,3.4z"/>
	</g>
	<g>
		<path style="fill:#F00000;" d="M11.4,102.5c-5.4-8.6-6.8-19-7.5-29.1c-0.6-7.7-0.8-15.6,1.6-22.9c2.7-8.1,8.3-14.9,14-21.3
			c6.4-7.2,13.1-14.5,22-18.4C49,7.5,57.4,7,65.5,6.5C77.4,5.8,89.8,5.1,101,9.3c5.3,2,10.1,5,14.5,8.5c6.9,5.5,12.9,12.1,17.8,19.4
			c3.2,4.9,6,10.1,7.6,15.7c4.2,15-0.6,31.6-10.2,43.9c-7.9,10.2-18.3,20.3-30.7,23.7c-14.9,4.1-30.6,4-45.9,3.4
			C39.8,123.3,19.2,115,11.4,102.5z"/>
		<path d="M67.7,125.7c-4.4,0-9-0.1-13.8-0.3c-14.8-0.6-35.7-9.3-43.6-22.1l0,0c-5.5-8.8-7-19.5-7.7-29.8c-0.6-7.3-1-15.7,1.6-23.4
			c2.7-8.2,8.3-15,14.3-21.8C25.2,20.7,32,13.5,40.9,9.6c7.8-3.4,16.7-4,24.5-4.4c11.4-0.7,24.4-1.5,36,2.9c5,1.9,9.9,4.7,14.9,8.7
			c6.9,5.4,13,12.1,18.1,19.8c3.8,5.7,6.3,11,7.8,16.1c4.1,14.5,0.2,31.4-10.4,45.1c-10.2,13.1-20.8,21.3-31.5,24.2
			C90,124.7,79.4,125.7,67.7,125.7z M12.6,101.8c7.3,11.7,27.3,20.2,41.4,20.8c17.3,0.8,31.7,0.5,45.5-3.3
			c10.1-2.8,20.2-10.6,30-23.3c10.1-13,13.8-29,10-42.7c-1.4-4.9-3.8-9.9-7.4-15.3c-5-7.5-10.9-13.9-17.5-19.1
			c-4.8-3.8-9.5-6.5-14.2-8.2C89.3,6.4,76.7,7.2,65.5,7.9c-8,0.5-16.2,1-23.6,4.2c-8.4,3.7-15,10.6-21.5,18
			C14.7,36.7,9.3,43.2,6.8,50.9c-2.4,7.3-2,15.4-1.5,22.3C6,83.1,7.4,93.4,12.6,101.8L12.6,101.8z"/>
	</g>
</g>
<g>
	<g>
		<path style="fill:#F00000;" d="M30.9,121.7c-1.8,1.7-3.3,3.6-4.6,5.7c-5.4,8.5-9,18.2-10.4,28.3c12.1,5.8,26.6,5.3,38.9,0.1
			s22.5-14.8,29.7-26.1c15.3,15.2,40.9,18.7,59.7,8.1c-3.5-7.3-6.9-18.4-13.6-23.3c-6.7-5-15.5-8.5-23.8-9.5
			c-4.6-0.5-9.2-0.3-13.8-0.1C74.6,105.8,45.7,107.3,30.9,121.7z"/>
		<path d="M34.9,161.1c-6.9,0-13.7-1.4-19.6-4.3c-0.5-0.3-0.8-0.8-0.8-1.4c1.3-10.1,5-20.1,10.6-28.8c1.3-2.1,3-4.1,4.8-5.9l0,0
			c15.4-14.9,45.2-16.3,63.1-17.1c5.2-0.2,9.5-0.4,14,0.1c8.3,0.9,17.5,4.6,24.5,9.7c5.4,4,8.7,11.6,11.5,18.3
			c0.8,2,1.6,3.9,2.5,5.5c0.3,0.6,0.1,1.4-0.6,1.8c-18.8,10.6-44.4,7.5-60.1-7.2c-7.9,11.7-18,20.4-29.4,25.2
			C48.8,159.8,41.8,161.1,34.9,161.1z M17.4,154.8c11,4.9,24.7,4.8,36.9-0.4c11.3-4.8,21.4-13.6,29.1-25.5c0.2-0.3,0.6-0.6,1-0.6
			s0.8,0.1,1.1,0.4c14.5,14.5,38.8,18.1,57,8.5c-0.6-1.4-1.3-2.9-2-4.5c-2.7-6.4-5.8-13.6-10.6-17.1c-6.6-4.9-15.3-8.3-23.1-9.2
			c-4.6-0.5-9.4-0.3-13.6-0.1c-17.5,0.8-46.7,2.2-61.3,16.4l0,0c-1.7,1.7-3.2,3.5-4.4,5.4C22.2,136.2,18.7,145.4,17.4,154.8z"/>
	</g>
	<g>
		<path style="fill:#FFFFFF;" d="M73.6,135.8c-1.1,1-2.6,1.2-4,1.6c-8.1,2.5-12.6,12.6-21,13.8c-1.7,0.2-3.4,0.1-5.1,0
			c-3.9-0.2-7.8,0-11.7,0.2c-2.2,0.1-4.4,0.2-6.6,0.3c-3.7,0.2-7.5,0.4-10.6,2.3c-3.1,1.9-5.1,6.2-3.3,9.4c1.7,3,5.8,3.6,9.3,3.9
			c9.7,0.7,19.8,1.4,28.8-2.4c2.6-1.1,5-2.5,7.7-3c1.4-0.2,2.8-0.2,4.2-0.5c3.6-0.9,6-4.2,9-6.5c2.6-2,5.7-3.4,8.3-5.3
			c2.7-2,5-4.8,5-8.1c3.4,4.5,9.1,7.2,14.8,6.8c1.5-0.1,2.9-0.4,4.4-0.1c1.3,0.3,2.4,1,3.6,1.5c2.1,0.9,4.3,1.1,6.6,1.4
			c3.1,0.3,6.1,0.7,9.2,1c2.4,0.3,4.9,0.5,7.1-0.4c1.1-0.4,2-1.1,3.1-1.5c4.1-1.7,9.3-0.4,12.6-3.3c3.3-3,2-9.1-1.8-11.3
			c-3.8-2.3-9-1.1-12.4,1.8c-2.8-1.7-6-3.4-9.1-2.5c-2,0.6-3.6,2.2-5.6,2.7c-2.9,0.7-5.7-0.9-8.4-2.1c-2.7-1.2-6.3-1.8-8.2,0.5
			c1.1-1.3-13.4-6.2-14.7-6.4C78.8,128.6,77.5,132.2,73.6,135.8z"/>
		<path d="M32.2,169.2c-4,0-7.9-0.3-11.7-0.6c-2.6-0.2-8.1-0.6-10.3-4.6c-2.2-3.9,0.1-9,3.7-11.2c3.5-2.2,7.8-2.4,11.3-2.5l6.6-0.3
			c3.8-0.2,7.8-0.4,11.8-0.2h0.8c1.4,0.1,2.7,0.2,4,0c4-0.6,7.2-3.5,10.5-6.7c3.1-2.9,6.2-5.9,10.3-7.1c0.3-0.1,0.6-0.2,1-0.3
			c1-0.3,1.9-0.5,2.5-1.1c0.9-0.8,1.6-1.6,2.3-2.4c2.4-2.6,4.6-5.1,9.9-4.3c0.1,0,11.1,3.2,14.7,5.8c2.1-1.3,5.2-1.2,8.6,0.2
			l1.2,0.5c2.2,1,4.4,2,6.4,1.5c0.9-0.2,1.7-0.7,2.5-1.2c0.9-0.6,1.9-1.1,3-1.5c3.3-1,6.5,0.5,9.3,2.1c4.1-3,9.4-3.6,13.2-1.3
			c2.4,1.4,4,4.1,4.3,7c0.3,2.6-0.6,5-2.3,6.5c-2.2,2-5.1,2.3-7.9,2.6c-1.8,0.2-3.5,0.4-5,1c-0.5,0.2-0.9,0.4-1.3,0.6
			c-0.6,0.3-1.2,0.6-1.8,0.9c-2.6,1-5.5,0.7-7.7,0.4l-9.2-1c-2.3-0.3-4.7-0.5-7-1.5c-0.4-0.2-0.8-0.4-1.2-0.6
			c-0.8-0.4-1.5-0.7-2.2-0.9c-0.9-0.2-1.9-0.1-2.9,0c-0.4,0-0.7,0.1-1.1,0.1c-5.1,0.3-10.3-1.7-14-5.2c-1.1,2.9-3.4,5.1-5,6.2
			c-1.3,1-2.7,1.8-4,2.5c-1.5,0.9-3,1.7-4.3,2.8c-0.8,0.6-1.6,1.4-2.4,2.1c-2.1,1.9-4.2,3.9-7.1,4.6c-0.9,0.2-1.8,0.3-2.7,0.4
			c-0.5,0-1.1,0.1-1.6,0.2c-1.8,0.3-3.5,1.1-5.3,2c-0.7,0.3-1.4,0.6-2.1,0.9C44.3,168.5,38.2,169.2,32.2,169.2z M39.9,152.5
			c-2.7,0-5.4,0.1-8,0.2l-6.6,0.3c-3.3,0.2-7.1,0.3-10,2.1c-2.5,1.5-4.3,5-2.8,7.6c1.4,2.4,4.7,2.9,8.2,3.2c9,0.7,19.3,1.5,28.1-2.3
			c0.7-0.3,1.3-0.6,2-0.9c1.9-0.9,3.9-1.8,6-2.2c0.6-0.1,1.2-0.2,1.8-0.2c0.8-0.1,1.5-0.1,2.2-0.3c2.2-0.6,4-2.2,5.9-4
			c0.8-0.8,1.7-1.5,2.6-2.2c1.5-1.1,3-2.1,4.6-3c1.3-0.8,2.6-1.5,3.8-2.4c1.3-1,4.4-3.6,4.4-7c0-0.6,0.4-1.1,0.9-1.3s1.2,0,1.5,0.5
			c3.1,4.1,8.5,6.6,13.6,6.3c0.3,0,0.7-0.1,1-0.1c1.2-0.1,2.4-0.2,3.7,0c1,0.2,1.9,0.7,2.8,1.1c0.4,0.2,0.7,0.4,1.1,0.5
			c1.9,0.8,4.1,1,6.2,1.3l9.2,1c2.1,0.2,4.5,0.5,6.5-0.3c0.5-0.2,1-0.5,1.5-0.7c0.5-0.3,1-0.5,1.5-0.8c1.9-0.8,3.9-1,5.8-1.2
			c2.5-0.2,4.8-0.5,6.4-1.9c1.1-1,1.6-2.5,1.4-4.2c-0.2-2.1-1.4-4-3-5c-3.5-2-8.1-0.7-10.8,1.6c-0.4,0.4-1.1,0.4-1.6,0.1
			c-2.6-1.6-5.5-3.1-8-2.3c-0.8,0.2-1.6,0.7-2.4,1.2c-1,0.6-2,1.2-3.3,1.5c-2.9,0.7-5.7-0.5-8.2-1.7l-1.1-0.5
			c-2.3-1-5.3-1.5-6.7,0.1l0,0c-0.5,0.6-1.4,0.6-1.9,0.1c-0.3-0.2-0.4-0.5-0.4-0.8c-1.9-1.5-12.1-5-13.6-5.3
			c-3.8-0.6-5.2,0.9-7.4,3.4c-0.7,0.8-1.5,1.7-2.5,2.5l0,0c-1.1,1-2.5,1.4-3.7,1.7c-0.3,0.1-0.6,0.2-0.9,0.2
			c-3.5,1.1-6.3,3.7-9.2,6.5c-3.5,3.3-7,6.7-12,7.4c-1.5,0.2-3.1,0.1-4.6,0.1h-0.8C42.3,152.5,41.1,152.5,39.9,152.5z M73.6,135.8
			L73.6,135.8L73.6,135.8z M98.4,135L98.4,135L98.4,135L98.4,135L98.4,135z"/>
	</g>
</g>
<g>
	<g>
		<path style="fill:#CA9866;" d="M70.5,19.4c0,0-48.8,0-48.8,55s65.3,45.1,77.2,39s46.4-26.8,20.1-72.6
			C118.9,40.8,106.2,16.2,70.5,19.4z"/>
		<path d="M76.9,19.1c30.8,0,42,21.6,42,21.6c26.3,45.8-8.2,66.5-20.1,72.6c-4.3,2.2-15.4,4.9-27.9,4.9c-22.4,0-49.3-8.6-49.3-43.9
			c0-55,48.8-55,48.8-55C72.7,19.2,74.9,19.1,76.9,19.1 M76.9,16.4c-2.1,0-4.4,0.1-6.6,0.3c-3,0.1-51.3,2.2-51.3,57.7
			c0,42.1,36.4,46.6,52,46.6c12.5,0,24.2-2.6,29.1-5.2c15.8-8.2,25.7-18.9,29.5-31.8c3.9-13.2,1.1-28.2-8.3-44.6
			C120.5,37.9,108.5,16.4,76.9,16.4L76.9,16.4z"/>
	</g>
	<circle style="fill:#241F20;" cx="54.1" cy="56.9" r="5.8"/>
	<circle style="fill:#241F20;" cx="93.1" cy="54" r="5.8"/>
	
		<ellipse transform="matrix(0.9977 -6.847840e-02 6.847840e-02 0.9977 -5.6281 5.4175)" style="fill:#AE7E4C;" cx="76.2" cy="84.8" rx="26.7" ry="22.2"/>
	<path style="fill:#241F20;" d="M87.3,72.1c0.4,6.4-4.7,12-11.5,12.4s-12.7-4.3-13.1-10.8c-0.4-6.4,4.7-6.8,11.5-7.3
		C81,66.1,86.9,65.7,87.3,72.1z"/>
	<g>
		<path style="fill:#AE7E4C;" d="M75.8,84.6l0.4,7c0,0-5.3,8.2-15.4,0.6"/>
		<path d="M68.8,96.8c-2.8,0-5.8-1.2-8.9-3.5c-0.6-0.5-0.7-1.3-0.3-1.9c0.5-0.6,1.3-0.7,1.9-0.3c3.1,2.3,5.9,3.3,8.5,2.8
			c2.5-0.4,4.1-2.1,4.7-2.8l-0.3-6.5c0-0.8,0.5-1.4,1.3-1.4s1.4,0.5,1.4,1.3l0.4,7c0,0.3-0.1,0.6-0.2,0.8c-0.1,0.1-2.4,3.6-6.7,4.3
			C70,96.7,69.4,96.8,68.8,96.8z"/>
	</g>
	<g>
		<path style="fill:#AE7E4C;" d="M76.2,91.6c0,0,8.5,7.4,15.3-1.6"/>
		<path d="M83.6,95.8c-4.6,0-8.2-3-8.3-3.2c-0.6-0.5-0.6-1.3-0.1-1.9s1.3-0.6,1.9-0.1c0,0,3.4,2.9,7.4,2.5c2.2-0.2,4.2-1.5,6-3.8
			c0.5-0.6,1.3-0.7,1.9-0.3c0.6,0.5,0.7,1.3,0.3,1.9c-2.2,2.9-4.9,4.6-7.9,4.9C84.3,95.8,83.9,95.8,83.6,95.8z"/>
	</g>
</g>
<g>
	<path style="fill:#FFFFFF;" d="M103.5,33.1c3.3,3.9,6.6,7.8,9.9,11.6c1,1.1,2,2.3,2.4,3.7c0.4,1.3,0.4,2.7,0.5,4.1
		c0.4,5.5,2.9,10.6,2.8,16.1c0,1.2-0.9,11.8-0.2,11.4c-2.5,1.4-4.2,4.1-4.3,6.9c-0.1,1.8,0.4,3.7-0.6,5.2s-3,1.8-4.4,2.8
		c-3.2,2.1-3.5,6.5-3.6,10.2c0-1.5-12,2.8-13.1,3.5c-4,2.7-7.4,6.4-8.5,11.2c-0.3,1.4-0.5,2.9,0,4.3c3.2,9.4,14.4-2.6,17.8-4.9
		c3.8-2.6,8.1-2.8,11.9-4.8c3.5-1.9,4.8-5.2,7-8.3c2.6-3.6,7-3.7,9.5-7.5c1.5-2.4,2.1-5.4,2.2-8.3c0.2-3,0-6-0.5-9
		c0.1,0.3,4.8-5.2,5.1-6.3c0.9-3.1,0.6-8-0.4-11c-0.6-1.9-1.8-3.5-2.6-5.3c-1.2-2.8-1.3-5.9-1.9-8.9c-1.1-5.5-4.7-10.2-7.9-14.9
		c-4-5.8-8.3-12-14.8-14.8c-1.5-0.7-3.2-1.1-4.5-2.1c-1.1-0.8-2-1.9-3-2.8c-3.9-3.6-10.2-4.7-14.9-2.1c-6.2-4.5-14.7-3.9-22-2
		c-5.3,1.4-10.2,3.8-15.5,4.8c-5.2,1-9.6,1.9-14,5.2c-4.1,3.1-3.4,7.5-6.7,11c-3.5,3.7-6.3,8.1-8.1,12.9c-1,2.7-1.7,5.5-3,8
		c-2.2,4.3-1.6,9.5,0.1,13.9c0.5,1.3,1.1,2.5,1.2,3.8c0.1,1.4-0.3,2.8-0.6,4.2c-0.7,3.7-0.3,7.7,1.2,11.2c0.7,1.5,1.5,3,1.9,4.6
		c0.5,2,0.2,4.2,0.4,6.2c0.5,5,5.7,13.9,9.9,16.6c1,0.6,2.4,0.5,3.2,1c1,0.6,2.2,1.6,3.4,2.4c5.9,4,10.8,4.6,17.9,5.7
		c5.8,0.8,11.3,2.9,16.6,5.2c1.7,0.7,3.4,1.5,5.2,1.6c1.8,0.1,3.8-0.7,4.6-2.3c0.5-1,0.5-2.1,0.4-3.2c0-1.2-0.1-2.4-0.7-3.4
		c-0.5-0.8-1.4-1.4-2.2-1.9c-4.6-3-10.2-7.4-15.6-8.7c-2-0.5-3.6,0.5-5.7-0.4c-2.1-0.9-3.1-3.3-5.3-4.2c-0.8-0.3-8.2-1.4-8,0.5
		c-0.6-6.4-5.2-12.1-11.3-14.1c0.9-7.4,0.2-14.4-1.1-21.6c-0.6-5.6-1.6-10.7,0.8-16c1.8-3.9,4.4-7.3,5.9-11.3
		c0.8-2.2,1.3-4.5,2.5-6.5c1.9-3.2,5.4-5,8.7-6.7c5.6-2.8,11.2-5.7,17.2-7.3c6-1.6,12.6-1.8,18.4,0.5c1.5,0.6,3,1.4,4.6,1.8
		c1.3,0.4,2.7,0.5,4.1,0.9C98.3,26.3,101.8,31.1,103.5,33.1z"/>
	<path d="M79,130.8c-0.1,0-0.2,0-0.3,0c-2-0.1-3.8-0.9-5.5-1.6c-4.6-2-10.3-4.3-16.5-5.2l-0.4-0.1c-7-1-12-1.7-18.1-5.8
		c-0.6-0.4-1.1-0.8-1.6-1.2c-0.6-0.5-1.2-0.9-1.8-1.2c-0.1-0.1-0.6-0.2-0.9-0.2c-0.7-0.1-1.5-0.3-2.3-0.8
		c-4.5-2.9-10-12.1-10.5-17.6C21,96.3,21,95.4,21,94.6c0-1.3,0-2.4-0.3-3.5c-0.2-1-0.7-1.9-1.2-2.9c-0.2-0.5-0.5-0.9-0.7-1.4
		c-1.6-3.7-2.1-8-1.3-12c0.1-0.3,0.1-0.6,0.2-1c0.2-1,0.4-1.9,0.4-2.8c-0.1-0.9-0.4-1.8-0.8-2.7L17,67.6c-2.1-5.6-2.1-11,0-15
		c0.9-1.6,1.4-3.4,2.1-5.2c0.3-0.9,0.6-1.8,0.9-2.7c1.9-4.9,4.8-9.5,8.4-13.4c1.3-1.4,1.9-2.9,2.6-4.6c0.8-2.1,1.8-4.6,4.3-6.5
		c4.5-3.5,9.1-4.5,14.6-5.5c2.9-0.5,5.7-1.5,8.6-2.6c2.2-0.8,4.4-1.6,6.8-2.2c9.4-2.5,17-1.9,22.5,1.8c5-2.3,11.4-1.3,15.7,2.6
		c0.4,0.4,0.7,0.7,1.1,1.1c0.6,0.6,1.1,1.2,1.7,1.6c0.8,0.6,1.9,1,3,1.4c0.4,0.2,0.9,0.3,1.3,0.5c7.1,3,11.7,9.8,15.4,15.3l1.2,1.8
		c2.9,4.2,5.9,8.4,6.8,13.6c0.2,0.9,0.3,1.9,0.5,2.8c0.3,2.1,0.6,4,1.3,5.8c0.3,0.8,0.7,1.5,1.1,2.2c0.5,1,1.1,2,1.5,3.2
		c1.2,3.3,1.4,8.5,0.4,11.8c-0.1,0.3-2.9,4.6-4.9,6.5c0.5,2.8,0.6,5.7,0.4,8.5c-0.2,3.8-1,6.6-2.5,8.9s-3.5,3.4-5.4,4.4
		c-1.6,0.9-3.1,1.7-4.2,3.2c-0.6,0.8-1.1,1.6-1.6,2.4c-1.5,2.3-3,4.7-5.9,6.3c-1.8,0.9-3.6,1.5-5.4,2c-2.3,0.7-4.4,1.3-6.4,2.7
		c-0.6,0.4-1.4,1.1-2.3,1.8c-3.7,3.1-9.4,7.9-13.7,6.7c-1-0.3-1.8-0.8-2.5-1.6c-0.1,0.1-0.1,0.3-0.2,0.4
		C83.5,129.9,81,130.8,79,130.8z M75.7,11.2c-2.9,0-6.2,0.5-9.8,1.4c-2.2,0.6-4.4,1.4-6.5,2.1c-2.9,1-5.9,2.1-9,2.7
		c-5.3,1-9.4,1.9-13.4,5c-2,1.5-2.6,3.3-3.4,5.3c-0.7,1.8-1.4,3.7-3.1,5.5c-3.4,3.5-6.1,7.8-7.8,12.4c-0.3,0.8-0.6,1.7-0.9,2.6
		c-0.6,1.9-1.3,3.8-2.2,5.6c-2.4,4.5-1,10,0.1,12.8l0.3,0.7c0.4,1.1,0.9,2.2,1,3.5s-0.2,2.5-0.4,3.6c-0.1,0.3-0.1,0.6-0.2,0.9
		c-0.7,3.5-0.3,7.1,1.1,10.4c0.2,0.4,0.4,0.9,0.6,1.3c0.5,1.1,1.1,2.2,1.4,3.5c0.4,1.4,0.4,2.8,0.4,4.2c0,0.8,0,1.5,0.1,2.3
		c0.5,4.7,5.5,13.1,9.3,15.6c0.3,0.2,0.8,0.3,1.3,0.4c0.6,0.1,1.3,0.2,1.9,0.6c0.6,0.4,1.3,0.8,1.9,1.3c0.5,0.4,1,0.7,1.5,1.1
		c5.6,3.7,10.1,4.4,16.9,5.4l0.4,0.1c6.4,0.9,12.5,3.3,17,5.3c1.8,0.8,3.2,1.4,4.7,1.5c1.2,0.1,2.8-0.4,3.3-1.6
		c0.3-0.7,0.3-1.6,0.3-2.6c0-1.1-0.1-2.1-0.5-2.8c-0.4-0.6-1-1-1.8-1.5c-0.9-0.6-1.8-1.2-2.7-1.8c-3.9-2.7-8.3-5.7-12.4-6.7
		c-0.6-0.2-1.3-0.1-2,0c-1.1,0.1-2.4,0.2-4-0.5c-1.2-0.6-2.1-1.5-2.9-2.3c-0.7-0.8-1.4-1.5-2.3-1.8c-0.9-0.3-5-0.7-6.2-0.4
		c-0.2,0.5-0.6,0.9-1.2,0.9c-0.8,0.1-1.4-0.5-1.5-1.2l0,0c-0.5-5.8-4.8-11.1-10.4-12.9c-0.6-0.2-1-0.8-0.9-1.5
		c1-7.6,0.1-14.7-1-21.2l-0.1-0.3c-0.9-5.3-1.8-10.8,0.7-16.3c0.8-1.7,1.7-3.4,2.7-4.9c1.2-2.1,2.4-4.1,3.2-6.2
		c0.3-0.7,0.5-1.4,0.7-2.1c0.5-1.6,1-3.2,1.9-4.7c2.2-3.6,6.1-5.6,9.3-7.3c5.5-2.8,11.3-5.7,17.5-7.4c4.9-1.3,12.3-2.3,19.3,0.5
		c0.5,0.2,1,0.4,1.6,0.7c1,0.4,1.9,0.8,2.9,1.1c0.6,0.2,1.2,0.3,1.7,0.4c0.8,0.1,1.6,0.3,2.4,0.5c2.3,0.7,4.9,3.7,7.5,6.9
		c0.4,0.4,0.7,0.8,0.9,1.1l0,0l9.9,11.6c1,1.2,2.1,2.5,2.7,4.2c0.4,1.2,0.5,2.3,0.5,3.5l0.1,0.9c0.2,2.3,0.8,4.6,1.4,6.9
		c0.7,3,1.5,6,1.5,9.3c0,0.3,0,1-0.1,2c-0.1,2-0.4,7.1-0.3,8.6l0.1,0.1c0.4,0.7,0.1,1.5-0.5,1.8l0,0l0,0l0,0
		c-2.1,1.1-3.5,3.4-3.6,5.8c0,0.4,0,0.9,0,1.3c0.1,1.5,0.1,3.1-0.8,4.6c-0.9,1.3-2.2,1.9-3.3,2.4c-0.5,0.2-1,0.5-1.5,0.8
		c-2.5,1.6-2.9,5.3-2.9,9.1c0,0.7-0.6,1.3-1.4,1.3l0,0c-0.3,0-0.6-0.1-0.9-0.3c-2.1,0.1-10.4,2.9-11.5,3.6c-3,2-6.8,5.4-8,10.3
		c-0.3,1.5-0.4,2.6-0.1,3.5c0.7,2.1,1.7,2.4,2.1,2.5c2.9,0.8,8.3-3.7,11.2-6.2c1-0.8,1.8-1.6,2.5-2c2.3-1.6,4.8-2.3,7.2-3.1
		c1.7-0.5,3.4-1,4.9-1.8c2.3-1.2,3.5-3.1,4.9-5.3c0.5-0.8,1.1-1.7,1.7-2.5c1.4-2,3.3-3,5.1-4c1.7-0.9,3.3-1.8,4.4-3.5
		c1.2-1.9,1.8-4.3,2-7.6c0.2-2.9,0-5.8-0.5-8.6l0,0l0,0c-0.1-0.6,0.2-1.2,0.7-1.5c0.9-0.8,4.1-4.7,4.4-5.5c0.7-2.7,0.6-7.3-0.4-10.1
		c-0.3-0.9-0.8-1.8-1.3-2.7c-0.4-0.8-0.9-1.6-1.2-2.5c-0.9-2.1-1.2-4.3-1.5-6.5c-0.1-0.9-0.3-1.8-0.4-2.7c-0.9-4.6-3.7-8.6-6.4-12.5
		l-1.3-1.8c-3.5-5.1-7.9-11.6-14.2-14.3c-0.4-0.2-0.8-0.3-1.2-0.5c-1.2-0.5-2.4-0.9-3.6-1.7c-0.8-0.6-1.5-1.3-2.1-1.9
		c-0.3-0.3-0.6-0.7-1-1c-3.6-3.3-9.3-4.1-13.3-1.9c-0.5,0.3-1,0.2-1.5-0.1C83.9,12.2,80.2,11.2,75.7,11.2z M64,108.3
		c0.5,0,1,0,1.5,0.2c4.6,1.1,9.2,4.3,13.3,7.1c0.9,0.6,1.8,1.3,2.7,1.8c0.6,0.4,1.3,0.8,1.9,1.5c1.6-5.4,5.7-9.1,8.9-11.2
		c0.4-0.3,8.5-3.6,12.5-3.9c0.2-3.8,1-7.7,4.1-9.8c0.6-0.4,1.2-0.7,1.9-1c1-0.4,1.8-0.8,2.2-1.4c0.5-0.7,0.4-1.7,0.4-2.9
		c0-0.5,0-1.1,0-1.6c0.1-2.9,1.6-5.8,4-7.5c-0.1-1.4,0-3.9,0.3-9c0.1-0.9,0.1-1.7,0.1-1.9c0-2.9-0.7-5.7-1.4-8.6
		c-0.6-2.4-1.2-4.8-1.4-7.4c0-0.3,0-0.6-0.1-1c-0.1-1-0.1-1.9-0.4-2.8c-0.4-1.2-1.3-2.2-2.2-3.3L102.5,34c-0.3-0.3-0.6-0.7-1-1.2
		c-1.6-1.9-4.4-5.4-6.2-6c-0.7-0.2-1.4-0.3-2-0.5c-0.7-0.1-1.3-0.2-2-0.4c-1.2-0.3-2.2-0.8-3.3-1.2c-0.5-0.2-1-0.4-1.5-0.6
		c-6.3-2.5-13-1.6-17.6-0.4C63,25.3,57.4,28.1,52,30.9c-2.9,1.5-6.4,3.3-8.2,6.2c-0.7,1.2-1.2,2.6-1.6,4.1c-0.2,0.7-0.5,1.5-0.7,2.2
		c-0.9,2.4-2.2,4.6-3.4,6.7c-0.9,1.5-1.8,3.1-2.5,4.7c-2.2,4.7-1.3,9.6-0.5,14.7l0.1,0.3c1.1,6.4,2,13.4,1.2,21
		c5.4,2.2,9.6,7.1,10.8,12.8c2.7-0.5,7,0.3,7.5,0.5c1.4,0.6,2.4,1.6,3.3,2.5c0.7,0.7,1.3,1.4,2.1,1.7c0.9,0.4,1.6,0.3,2.6,0.3
		C63.1,108.4,63.5,108.3,64,108.3z M47.6,105.6L47.6,105.6L47.6,105.6L47.6,105.6z M104.9,105.3L104.9,105.3L104.9,105.3z
		 M120.2,79.6L120.2,79.6L120.2,79.6z"/>
</g>
<g>
	<g>
		<g>
			<path style="fill:#F00000;" d="M81,153.6L81,153.6c-0.8-0.1-1.4-0.7-1.3-1.5L82,127c0.1-0.6,0.5-1.1,1.1-1.2s1.2,0.2,1.5,0.7
				L95.4,148c0.3,0.7,0.1,1.5-0.6,1.8s-1.5,0.1-1.8-0.6L84.2,132l-1.9,20.3C82.3,153.1,81.7,153.6,81,153.6z"/>
			<path d="M83.3,125.8c0.5,0,1,0.3,1.2,0.8l10.8,21.5c0.3,0.7,0.1,1.5-0.6,1.8c-0.2,0.1-0.4,0.1-0.6,0.1c-0.5,0-1-0.3-1.2-0.8
				L84.2,132l-1.9,20.3c-0.1,0.7-0.7,1.2-1.4,1.2h-0.1c-0.7-0.1-1.3-0.7-1.2-1.5l2.4-25c0.1-0.6,0.5-1.1,1.1-1.2
				C83.2,125.8,83.2,125.8,83.3,125.8 M83.3,123.1c-0.2,0-0.5,0-0.7,0.1c-1.8,0.3-3.2,1.8-3.3,3.6L77,151.9
				c-0.2,2.2,1.4,4.2,3.7,4.4c0.1,0,0.2,0,0.4,0c2.1,0,3.9-1.6,4.1-3.7l1-10.8l4.4,8.7c0.7,1.4,2.1,2.3,3.7,2.3
				c0.6,0,1.2-0.1,1.8-0.4c2-1,2.8-3.5,1.9-5.5l-11-21.6C86.3,123.9,84.9,123.1,83.3,123.1L83.3,123.1z"/>
		</g>
	</g>
	<g>
		<path style="fill:#FFFFFF;" d="M83.7,152c-0.8-0.4-1.6-0.7-2.5-0.6c-0.9,0.1-1.7,0.6-2,1.4c-0.6-0.7-1.7-0.8-2.6-0.6
			s-1.6,0.9-2.1,1.7c-0.8,1.1-1.2,2.5-0.9,3.8c0.3,1.3,1.3,2.5,2.7,2.7c-0.9,0.9-0.9,2.5-0.2,3.5s2,1.7,3.2,1.8
			c1.5,0.1,3.1-0.4,3.9-1.7c0.8,1.3,2.8,1.5,3.9,0.5c1.2-0.9,1.5-2.7,1-4.1c1.2-0.8,1.8-2.4,1.4-3.8C89.1,154.8,85.3,152.8,83.7,152
			z"/>
		<path d="M79.8,167.1c-0.2,0-0.4,0-0.6,0c-1.8-0.2-3.4-1-4.3-2.4c-0.7-1.1-0.9-2.5-0.5-3.6c-1-0.7-1.8-1.8-2.1-3.1
			c-0.4-1.6,0-3.4,1.1-4.9c0.8-1.1,1.7-1.9,2.8-2.2c0.9-0.3,1.8-0.3,2.6,0c0.6-0.5,1.4-0.9,2.3-0.9c1-0.1,2,0.2,3.2,0.8l0,0
			c4,2,6.1,3.9,6.6,5.6c0.4,1.6,0,3.4-1.2,4.6c0.3,1.8-0.3,3.6-1.7,4.7c-0.9,0.7-2.1,1-3.3,0.8c-0.5-0.1-1-0.3-1.4-0.5
			C82.4,166.7,81.1,167.1,79.8,167.1z M77.5,153.4c-0.1,0-0.3,0-0.4,0.1c-0.5,0.2-1,0.6-1.4,1.2c-0.6,0.9-0.9,1.9-0.7,2.8
			c0.2,0.8,0.9,1.6,1.6,1.7c0.5,0.1,0.9,0.5,1.1,0.9c0.1,0.5,0,1-0.4,1.4s-0.4,1.2-0.1,1.8c0.4,0.6,1.3,1.1,2.2,1.2
			c0.9,0.1,2.1-0.2,2.6-1.1c0.2-0.4,0.7-0.7,1.1-0.7c0.6,0,0.9,0.2,1.2,0.6c0.2,0.2,0.4,0.4,0.8,0.5s0.9,0,1.2-0.3
			c0.7-0.5,0.9-1.6,0.6-2.5c-0.2-0.6,0-1.3,0.5-1.6c0.7-0.5,1.1-1.5,0.9-2.3c0-0.1-0.5-1.5-5.2-3.9c-0.7-0.4-1.3-0.5-1.7-0.5
			c-0.4,0-0.7,0.2-0.8,0.5c-0.2,0.4-0.5,0.8-1,0.9c-0.5,0.1-0.9,0-1.3-0.4C78.1,153.5,77.8,153.4,77.5,153.4z"/>
	</g>
	<g>
		<path style="fill:#FFFFFF;" d="M98.9,147.1c-0.8-0.4-1.6-0.7-2.5-0.6s-1.7,0.6-2,1.4c-0.6-0.7-1.7-0.8-2.6-0.6
			c-0.9,0.3-1.6,0.9-2.1,1.7c-0.8,1.1-1.2,2.5-0.9,3.8c0.3,1.3,1.3,2.5,2.7,2.7c-0.9,0.9-0.9,2.5-0.2,3.5c0.7,1.1,2,1.7,3.2,1.8
			c1.5,0.1,3.1-0.4,3.9-1.7c0.8,1.3,2.8,1.5,3.9,0.5c1.2-0.9,1.5-2.7,1-4.1c1.2-0.8,1.8-2.4,1.4-3.8C104.3,150,100.6,148,98.9,147.1
			z"/>
		<path d="M95,162.3c-0.2,0-0.4,0-0.5,0c-1.8-0.2-3.4-1-4.3-2.4c-0.7-1.1-0.9-2.5-0.5-3.6c-1-0.7-1.8-1.8-2.1-3.1
			c-0.4-1.6,0-3.4,1.1-4.9c0.8-1.1,1.7-1.9,2.8-2.2c0.9-0.3,1.8-0.3,2.6,0c0.6-0.5,1.4-0.9,2.3-0.9c1-0.1,2,0.2,3.2,0.8l0,0
			c4,2,6.1,3.9,6.6,5.6c0.4,1.6,0,3.4-1.2,4.6c0.3,1.8-0.3,3.6-1.7,4.7c-0.9,0.7-2.1,1-3.3,0.8c-0.5-0.1-1-0.3-1.4-0.5
			C97.6,161.8,96.4,162.3,95,162.3z M92.8,148.6c-0.1,0-0.3,0-0.4,0.1c-0.5,0.2-1,0.6-1.4,1.2c-0.6,0.9-0.9,1.9-0.7,2.8
			c0.2,0.9,0.9,1.6,1.6,1.7c0.5,0.1,0.9,0.5,1.1,0.9c0.1,0.5,0,1-0.4,1.4s-0.4,1.2-0.1,1.8c0.4,0.6,1.3,1.1,2.2,1.2
			c0.9,0.1,2.1-0.2,2.6-1.1c0.2-0.4,0.7-0.7,1.1-0.7c0.5,0,0.9,0.2,1.2,0.6c0.2,0.2,0.4,0.4,0.8,0.5s0.9,0,1.2-0.3
			c0.7-0.5,0.9-1.6,0.6-2.5c-0.2-0.6,0-1.3,0.5-1.6c0.7-0.5,1.1-1.5,0.9-2.3c-0.1-0.2-0.6-1.6-5.2-3.9l0,0c-0.7-0.4-1.3-0.5-1.7-0.5
			c-0.4,0-0.7,0.2-0.8,0.5c-0.2,0.4-0.5,0.8-1,0.9c-0.5,0.1-0.9,0-1.3-0.4C93.3,148.7,93.1,148.6,92.8,148.6z"/>
	</g>
</g>
</svg>
