<?xml version="1.0" encoding="utf-8"?>
<!-- Generator: Adobe Illustrator 23.1.1, SVG Export Plug-In . SVG Version: 6.00 Build 0)  -->
<!DOCTYPE svg PUBLIC "-//W3C//DTD SVG 1.1//EN" "http://www.w3.org/Graphics/SVG/1.1/DTD/svg11.dtd" [
	<!ENTITY ns_flows "http://ns.adobe.com/Flows/1.0/">
	<!ENTITY ns_extend "http://ns.adobe.com/Extensibility/1.0/">
	<!ENTITY ns_ai "http://ns.adobe.com/AdobeIllustrator/10.0/">
	<!ENTITY ns_graphs "http://ns.adobe.com/Graphs/1.0/">
	<!ENTITY ns_vars "http://ns.adobe.com/Variables/1.0/">
	<!ENTITY ns_imrep "http://ns.adobe.com/ImageReplacement/1.0/">
	<!ENTITY ns_sfw "http://ns.adobe.com/SaveForWeb/1.0/">
	<!ENTITY ns_custom "http://ns.adobe.com/GenericCustomNamespace/1.0/">
	<!ENTITY ns_adobe_xpath "http://ns.adobe.com/XPath/1.0/">
]>
<svg version="1.1" id="레이어_1" xmlns:x="&ns_extend;" xmlns:i="&ns_ai;" xmlns:graph="&ns_graphs;"
	 xmlns="http://www.w3.org/2000/svg" xmlns:xlink="http://www.w3.org/1999/xlink" xmlns:a="http://ns.adobe.com/AdobeSVGViewerExtensions/3.0/"
	 x="0px" y="0px" viewBox="0 0 500 600" style="enable-background:new 0 0 500 600;" xml:space="preserve">
<metadata>
	<sfw  xmlns="&ns_sfw;">
		<slices></slices>
		<sliceSourceBounds  bottomLeftOrigin="true" height="510" width="411.7" x="37.1" y="49.3"></sliceSourceBounds>
		<optimizationSettings>
			<targetSettings  fileFormat="PNG24Format" targetSettingsID="0">
				<PNG24Format  filtered="false" interlaced="false" matteColor="#FFFFFF" noMatteColor="false" transparency="true">
					</PNG24Format>
			</targetSettings>
		</optimizationSettings>
	</sfw>
</metadata>
<path style="fill:#88E9FF;" d="M302,40.7l2.4,4.8l3.8,7.4l0.8,3.3l1.9,4.9l7.1,14.1l5.6,14.8l0.9,1.6l2.9,3.6l1.1,3l13.5,19.2
	l5.2,7.6l6.3,6.9l0.9,0.7l4.2,4.9l0.2,2.1v2.5l0.5,2.1l2.9,1.6l0.8,1.7l2.4,7.7l1.1,1.8l1.3,0.8l1.1,1.1l3.7,7.2l2.2,2.8l0.8,1.5
	l0.3,1.6l0.6,1.6l3.9,4.3l1.2,3.5l1.1,7.7l1.5,4.2l4.1,5.8l0.3,1.2l-0.5,1.2l-0.8,1.1l-0.5,1.1v1l0.6,3.2l0.7,9l0.8,4.2l2.7,8.5
	l0.2,4.1l-0.8,3.8l-1.8,3.5l-1.5,4.1h-0.8l-2.7-0.6l-2.6,1.1l-5.6-2.1l0.9-2.4l-0.3-2.2l-0.7-2.5l-0.2-2.8l1.1-2.7l0.9-2.5l-0.6-0.7
	l-0.7-0.7l0.3-2.3l-5.9-0.4l-1.7-1l-1.9-0.8l-0.8-1.9l-0.6-2.1L363,217l-1.7-2.5l-0.4-3.3l0.6-2.5l1.4-1l1.5-0.6l2.4,0.9l1.9-1.4
	l-0.8-2.3l-2.5-1.5l-2.8-0.6l-2.2,1.2l-2.1,0.5l-3-1.4l-3.2-0.5l-1.1,0.4l-0.9-0.1l-0.7-0.9l-1-0.4l-2.3,1.8l-2.4,0.9l-0.2-1.8
	l0.2-1.8l-1.4-0.7l-1.6-0.4l-1.1-2l-2.2-0.2l-2.2,1l-1.5,1.8l0.5,2.5l-0.3,2.3l-0.5,2.2l-2.1-0.2l-2.4-0.5l-2-0.8l-2.1-1.1l-1.6-1
	l-1.6-0.7l-2.1-0.2l-2.1-0.4l-2.1-1.4l-1.9-1.5h-1.9l-1.9,0.6l-1.7,0.3l-1.5,0.1l-0.6-1.3l-1.6-1.7l0.1-1.4l-0.8-0.9l-3.9,0.4
	l-2.5,0.8l-0.7,0.3h-0.7l-1.1-0.6l-0.9-1l1.4-2.1l2.3-1.7l0.9-2.1l-1.5-0.4l-4.6-0.7l-4.5-1.6l-1.9,1.4l-1.6,0.8l-1.9-0.4l-1.6,1.2
	l-2.7,1.5l-2.7,0.6l-1-1.4v-2.2l-3.1-3.2l-4.1,1.4l-1.5,1.9l0.4,4.9l-1.6,1.1l-0.5,0.7l-0.6,0.5l-0.7-0.3l-0.7-0.4l-2.5-0.2
	l-2.5,0.6l0.7-4.9l-8.6,1.2l-8.5,2.3l4.4-8.1l3.6-8.8l5-10.6l0.6-2.3l-0.5-2.3l1.1-1.8l1.5-1.8l1.6-0.7l0.8-1.8l-0.9-1.6l-1.2-1
	l-1.9-0.2l-2-0.7l-2.7-0.4l-4.5-2.5l-2-0.8l-2-1.3l-2.2-0.3l-2.2,0.7l-1.8-1.5l0.1-1.6l0.9-1.7l0.3-2v-2.1l-2.1,0.7l-1-1.2l2.4-2.8
	l-0.4-1.8l-0.7-1.8l0.5-1.4v-1.7l-0.2-1.6l4.1-3l1.7-0.5l0.9-1.4l0.4-4.1l-1.9-2.9l-1.6-0.3l-1.5-0.7l-1.1-3l-1.8-0.1l-1.9,0.1
	l-2.1-1.5l-1-2.7l-0.4-4.8l-0.8-2.4l-0.5-0.5l-0.6,0.1l-0.4,0.4l-0.5,0.1l-1.4-1l-3.4,1.2l-3.1-0.8l-1.3-0.8l-1.3-1.2v-1.9l0.6-1.8
	l0.5-0.7l0.3-0.7l-0.5-0.4l-0.7-0.2l-0.7,0.1l-0.6,0.4l-1.1,1.4l-1.2,1.2l-1.8,0.3l-1.6-1.1l-0.3-1l-0.1-1l-0.6-0.4l-0.6,0.7l-0.2,1
	v3.4l-1.1,1.6l-3-1.4l-2.7-2.4l-1-1l-1,0.1l-0.9-1.3l-0.6-1.7l-0.7-0.9l-0.9-0.7l-0.7-1.6l-1.2-0.8l-2.8-1.8l-1.6-0.8l0.5-0.6
	l4.4-3.6l5.2-3.2l5.4-2.2l5.2-0.6L212,73l10-0.9l7.7,2.3l2.4-0.2l4.8-1.4l15.6-1.4l0.7,0.5l1,1.5l1,1l1.1,0.3l5.3-1.1l8.5,0.5
	l5.5-0.4l5.6-2l5.2-3.3l4.3-4.5l1.9-2.7l1.6-2.9l1.1-3.2l0.4-3.7l-0.7-3.5l-0.2-1.8l0.5-1.3l2.2-1.7L302,40.7z"/>
<path style="fill:#52B1FF;" d="M164.7,122.4l-0.6-8.8l0.4-2.4l1-0.7l1.5-0.2l2.1-0.8l3.2-2.6l6.9-10.5l1.4-1.4l3.1-2.4l1.3-1.5
	l1.6-4.1l1.1-2.7l1-1.3l1.6,0.8l2.8,1.8l1.2,0.8L195,88l0.9,0.7l0.7,0.9l0.6,1.7l0.9,1.3l1-0.1l1,1l2.7,2.4l3,1.4l1.1-1.6v-3.4
	l0.2-1l0.6-0.7l0.6,0.4l0.1,1l0.3,1l1.6,1.1l1.8-0.3l1.2-1.2l1.1-1.4l0.6-0.4l0.7-0.1l0.7,0.2l0.5,0.4l-0.3,0.7l-0.5,0.7l-0.6,1.8
	v1.9l1.3,1.2l1.3,0.8l3.1,0.8l3.4-1.2l1.4,1l0.5-0.1l0.4-0.4l0.6-0.1l0.5,0.5l0.8,2.4l0.4,4.8l1,2.7l2.1,1.5l1.9-0.1l1.8,0.1l1.1,3
	l1.5,0.7l1.6,0.3l1.9,2.9l-0.4,4.1l-0.9,1.4l-1.7,0.5l-4.1,3l0.2,1.6v1.7l-0.5,1.4l0.7,1.8l0.4,1.8l-2.4,2.8l1,1.2l2.1-0.7v2.1
	l-0.3,2l-0.9,1.7l-0.1,1.6l1.8,1.5l2.2-0.7l2.2,0.3l2,1.3l2,0.8l4.5,2.5l2.7,0.4l2,0.7l1.9,0.2l1.2,1l0.9,1.6l-0.8,1.8l-1.6,0.7
	l-1.5,1.8l-1.1,1.8l0.5,2.3l-0.6,2.3l-5,10.6l-3.6,8.8l-4.4,8.1l-0.6,1.1l-0.7,1l-0.7,0.5l-0.6,0.5l-0.5,0.8l-0.4,0.9l-3.9,7.2
	l-2,1.4l-0.5-0.6l-1.6-0.3l-1.3,1.3l-0.7,1.7l-1,1.3l-2.1,0.9l-1.3,1.4l-0.7,3l-2.7,0.9l-3.4,1.6l-3.6,1.1l-3.8-0.5l-3.1-2.6
	l-3.5-1.6l-6.7,2.9h-3.2l-3.8-0.8l0,0l1-0.8l1.2-0.6l0.9-1l0.6-2.4l-0.2-0.4l-0.8-0.8l-0.1-0.2l0.4-0.4l0.4-0.1h0.4l1.1-0.6l0.7-0.1
	l0.5-0.4l0.2-1.2l-4.8,1.4l-0.7,1l0.3,3.1l-0.6,0.7l-1.9,0.6l-2.7-0.4l-3.2-1.8l-2.9-2.8l-1.1-2.7l4.8-0.5v-0.6l-0.3-0.2l-0.8-0.6
	l0.9-0.1h0.9l0.8,0.3l0.7,0.5l-0.3-1.9l-1.1-1.7l-0.8-2l0.6-2.7l-0.9-0.4l-0.7,0.9l-0.4,1.6l-0.1,1.6l-0.4,1.8l-0.8,0.4l-0.8-0.8
	l-1.5,0.3l-1.6,0.4l-3.7-1.1v-1.1l-0.4-1l0.3-1.4l-0.2-1.7l0.9-1.7l1.1-1.5l1.3-0.6l1.4-0.5h2l2.2-0.6l0.5-0.7l0.1-1.9l-0.5-0.4
	l-1.1,0.6l-1.7,1.5l-1-0.2l-0.8-0.5l-0.4-0.8v-1.2l-1.9,1l-1.6,1.1l-2.9,3.1l-0.7,0.6l-0.9,0.3h-0.9l-0.5-0.5v-0.9l0.5-0.9l1.2-1.7
	l-2.4,0.5l-0.8-0.2l-0.3-1.4l0.4-1l1-0.6l1.1-0.4l0.8-0.5l1-1.3l-0.3-0.3l-2.2,0.3l-0.7-0.4l-0.6-1.1l-0.5-1.4l-0.7-1.3l0.4-0.1
	l0.2-0.2l0.5-0.5l0.6,0.5h0.9l1.6-0.4l1.3,0.4l1.1,0.7l1.1,0.3l1.2-0.6l-0.1,1.1l0.1,1.1l0.4,0.8l0.8,0.4l0.8-0.3l0.4-1l0.4-2.2
	l1.4-2l1.1,0.2l1.3,0.8l1.8-0.3l-0.4-0.8l-0.5-0.6l-0.6-0.4l-0.8-0.2H177l-0.5-0.8l-1.2-0.2l-1,0.3l-1-0.1l-1.5-0.3l-2.5-0.8
	l-3.5-2.7l-0.2-1.2l1.6-2.3l1.1-1.1l2.5-0.7l0.6-0.4l1.1-0.8l1.2-2.2l0.8-2.5l-0.8-1.3l-1.3-0.9l-0.9-2V155l-4.8-4.6l-4.1,0.1
	l-3.7,0.1l-0.4-0.9l-0.6-1.5l-0.7-1.2l-0.8-1.4l-0.9-0.9v-1.4l-0.3-2.1l-0.9-3.2l-1.2-8.4l0.3-1.4l1.1-0.2l4.5,1.6l1.4-0.3l1.2-0.6
	l1.1-0.2l1.1,0.7l0.4,1.2l0.2,1.9l-0.1,1.9l-0.4,1.3v2.4l2.5,2.1l3.1,1.3l2,0.1l-1.5-1.6l-4.7-3.4l1.4-3.6l0.4-2.2l-0.3-1.5
	l-0.8-1.6l-0.1-0.9l-0.1-1.2l0.4-2l0.8-1.6l-0.6-0.8l-0.8,0.1L164.7,122.4z M201,150.6l0.7-2.9l-0.1-2.5l-0.8-2.3l-0.5-3.2l-1.4-2.4
	l-2.9-0.2l-2.5,0.6l-1.6,1.7l-1.1,2.4l-1.9,2.4l-3.6,0.3l-0.5,1.6l-0.1,1.7l-1.7,1l-1.9,0.7l-2.6-1.6l-2.3-0.1l-1.2,2.6l1.9,2.3
	l1.6,2.3l0.4,2.9l1.6,1.1l2.3,0.7l2.4,3.1l3.5,0.1l1.5-0.2l1.4-0.8l2-0.6l2-0.5l0.9,2.1l2.4-1.2l2.3-0.5l2.1-1.2l0.8-1.3l1.4-1.9
	l-0.7-0.7v-1.8l1.2-0.8l1.1-0.6l0.2-1.5l-0.6-1.5h-1.6l-1.9,0.7L201,150.6z M134.6,125h1.6l1.5,0.2l0.8,0.8l-0.5,1.8l-1.4,1.2
	l-1.8,0.1l-3.4-0.7l-0.7,0.3l-0.9,0.5H129l-0.3-1.1l0.2-0.3l0.9-2.8l1-1l1.1-0.3l1.3,0.3L134.6,125z M139.6,135.9l1,0.8l0.8,0.9
	l0.2,1l-0.9,1.1l-1.6,0.1l-5.5-4.3l0.7-0.6l0.3-0.8l0.5-1.9l0.3-0.5l0.4-0.5l0.5-0.4l0.5-0.1l0.3,0.2l0.2,0.3l0.1,0.4l0.3,1.9
	l0.1,0.4l0.4,0.7l0.5,0.6L139.6,135.9z M151.8,145.9l-0.6,0.1l-0.5-0.2l-0.8-0.9l-0.6-0.4l-0.4,0.2l-0.3,0.3l-0.3,0.2l-4.3,0.2
	l-1.6-0.7l-1.7-2.2l2.5-0.6l0.6-0.4l0.7-1.1l-0.1-0.5l-0.5-0.3l-0.4-0.6l-2.9-5.5l-0.2-0.8l0.3-1.1l-0.1-4.8l0.3-1.1l0.8-0.3
	l1.9-2.2l1.5-0.4l1.3,0.9l1.2,1.4l1.2,1.1l2.6,1.3l1,1l0.4,1.6l-0.1,0.8l-0.4,1.4l-0.1,0.6l0.2,0.7l0.8,1.4l0.2,0.8l0.3,3.7
	l-0.3,0.9l0.4,0.5l0.5,1.1l0.3,0.4l-1,0.6l-0.9,2.1L151.8,145.9z M149.9,178.1l0.8,0.6l0.3,1.2l-0.4,0.4l-0.9,0.3l-0.3,0.7l-0.1,0.6
	l-0.7,0.8l-0.9,0.2l-0.6-0.5l-0.7,0.1l-0.5-0.3l-0.2-1.3l0.2-1.3l0.7-0.9l1.4-0.8L149.9,178.1z M160.4,180.5l0.2,0.5l0.2,0.9
	l-0.4,0.9l-4.1,3.3l-1.9,0.2v-0.5l0.9-1.2l0.1-0.7l-0.4-0.6l1.1-1.2v-1.2l-0.4-1.5l-0.6-1l-0.6-0.7l0.2-0.2l1.3,0.6l1.1-1l0.3,0.1
	l-0.2,0.9l0.3,0.8l0.9,0.5l1.5,0.6L160.4,180.5z"/>
<path style="fill:#CEEF45;" d="M143.5,260.7l0.6,1.9l1.1,1.7l0.5,1.6l-0.8-0.4l-3.6,0.2l-1.2-0.2l-0.2-1.5l0.4-0.5l0.6-0.6l0.3-0.9
	l-1.9,1.2l-0.9-0.4l0.3-1.5l1.5-2l-0.6-0.6l-1.1,1.3l-0.4-0.9l-0.8,0.5l0.4-2.4l-0.3-3.7l-0.4-2.2l-0.8-2.8l0.7-0.9l1.4-1.3l1.5-0.5
	l1.1,1.7l0.1,0.6l-0.4,0.7l-0.6,0.5l0.1,0.7l1.4,3.1l0.2,1l-0.4,0.8l0.4,0.7l0.9,0.5l0.7,1.3h-1.7v0.6l0.6,0.1l1.1,0.6l-0.1,0.6
	l-0.1,0.5L143.5,260.7z M176.4,301.8l-1.7,0.5l-1.6,1.1l-1.4,1.3l-1.5,0.7l-1.8,0.3l-1.7,0.7l-1.2-0.6l-0.4-0.7l-0.1-0.9l-0.4-1.3
	l-0.7-1.1l-1.4-1.8l-0.7-1.2l1.1-0.9l-0.5-0.6l-1.1-0.5l-1-0.3l-1.9-3.2l-1.4-0.6l-1.1,0.6h-0.5v-1.1l-1.8-1.2l-1.6,0.2l-0.5,1.9
	l-0.3,0.6l-0.6-0.5l0.3-2.9l2.7-1.4l2.4-0.8l3.4,1l-1.2-2l-0.7-0.8l-0.9-0.7l-0.5-0.1l-0.6,0.4l-0.5-0.3l-0.6-0.7l-0.5-0.7l1.7-4.7
	l1-2.1l1.2-0.8L157,276l-3.4-1l-1.2-0.7l1.2-1.1l3.6-0.9l0.8-1l-0.5-1.3l-1.3-0.3h-2.7l-0.6-0.4l-1-1.2l-0.7-0.6v-0.7h1.1l-1.2-2.2
	l1.5-0.8l1.7-0.5l1.6-2.3l3.3-0.9l1.6-0.8H156l-1.1,0.6l-1.7,2.6l-1.3,0.2l-0.8-1l-0.7-1.8l-0.5-1.9l0.1-1.1l1.7-2l0.8-1.2l-0.3-0.5
	l-1.6,0.6l-0.7-0.7l-0.6-0.4l-0.4-0.1l-0.4-0.9l0.4-0.8l-0.1-0.9l-0.4-1.7l-0.5-0.7v-0.4l1.1-0.1l1.6-0.7l1.7,0.1l0.1-1.2l0.5-1.1
	l-0.7-0.9l-1-0.2l-1.3-1.3l0.8-1.2l1.1-0.9l-0.8-1.4l-1.9-0.4l-0.4-1.7l0.6-1.2l1.9-0.3l-1.1-1.2l-0.4-0.6l-0.3-0.9l-0.7,0.6
	l-1.1,1.2l-1.3,0.5L146,235v0.7l0.6,0.9l0.1,1.7l-0.6,2l0.4,2.6l-0.9,2.2l-0.7,0.9l-1.5-1.2l-1.6-0.1l-1.6-1l0.4-5.4l0.5-2l-0.9-0.4
	l0.3-2.5l-0.9-1l-1.3,0.2l-0.7,1.3l-0.2,1.6l-0.6,1.2H135l0.8,1.5l1.5,2.3l0.5,1.7l-0.9,0.8l0.1,0.8l1.4,1.8l-1.2,0.2l-1,0.6
	l-0.9,0.9l-0.7,1v-0.7l-0.1-0.7l-0.2-0.7l-0.3-0.6l1.1-2.4l-2.4-3.9l0.7-1.9l-0.6-2.7l-1.5,0.8l-2.1,2.7l-1.6,0.6l-0.9,0.2l-0.8,0.3
	l-0.8,0.1l-1-0.6l-0.2-0.5l-0.3-0.9l-0.1-0.9l0.4-0.4h3.3l0.8-0.6V234l-0.9-1.6l-1.2-0.6l-1.3-0.4l-1-0.9l-0.4,1.2l-0.2,2.5
	l-0.5,1.2l-0.9,0.9l-0.3-0.8l0.1-2.5l-0.2-2.4l0.2-0.7l2.1-2.6l0.4-0.9l0.3-1.3l0.3,1l0.3,0.9l0.4,0.8l0.6,0.8l0.4-0.4h0.5l0.6,0.2
	l0.7,0.1l-0.8-1.2l-0.9-1.5l2.3,0.7l0.9-0.2l0.6-1.2L128,225l-1.3-0.6l-0.2-1.3l1.3-2.1l-1.8-1.5l0.1-1.4l1.4-1.1l2-0.7l-0.5,2.5
	l0.2,0.7l1.1,0.2h2l0.5-0.4l0.5-0.9l0.1-2.3l-0.2-3l0.4-2.5l1.9-0.6l-0.2,1.4l0.1,2.2l0.4,2.2l1,2.7l-0.5,0.9l-0.8,0.8l-0.5,0.9v0.9
	l0.5,1.5l0.1,0.4l-0.4,0.5l-1.5,0.9l-0.3,0.3l0.1,0.9l0.3,0.9l0.4,0.5l0.6-0.3l1.4-1.3h1l2.3,1.6l-1.7-3.6l-0.6-2.2l0.9-1l1.3,1.7
	l0.8,0.5l0.4-1.1l0.3-0.3l0.8-0.3l1.6-0.4v-0.6l-0.6-0.1l-1.6-0.7v-0.6l1.9-0.5l1.1-1.9l0.3-2.3l-0.6-1.7l-0.7-0.2H141l-1-0.4
	l-0.8-1l-0.3-0.9l0.4-0.3l1.2,0.8l0.5-1.6l-0.6-0.9l-1.2-0.4l-1.5,0.1l0.6-0.8l0.8-0.6l0.9-0.1l0.8,0.4l0.8,0.6l0.7,0.1l0.3-0.3
	l-0.4-0.8v-0.8h3l1.4,0.5l0.6,1.3l-0.4,0.8l-0.8,0.9l-0.5,1.1l0.5,1.6l0.7-0.7l0.9-0.5h0.8l0.3,0.8l0.1,0.7l0.4,0.6l0.1,0.7
	l-0.1,0.3l-0.7,0.9l-0.2,0.6v4.5l0.3,1.3l0.6,0.9l0.6,0.3l0.3-0.5l0.3-2.5l1.5-4.8l0.3-2.4l0.4-0.6l1,0.7l1.4,1.5l0.6,1.1l0.4,1
	l0.6,0.7h1.2V216l-0.6-0.8l-0.7-2.1l-0.6-1l-5-5.2l-0.4-0.3l0.3-1.1l0.7,0.1l0.8,0.8l1.3,1.6l0.7,0.6l0.8,0.4h1l0.8-0.4l0.1-0.7
	l-0.6-0.6l-1.1-0.3l-1.5-0.7l-1.7-1.6l-0.8-2.3l-0.2-1.6h1.5l1.3,0.6l1.2,1l1.6,1.2l1.5,1.1l0.6,0.6l1.2,0.8l1.2,0.7l0.8,1.4
	l-0.4,1.4l-0.8,0.9l0.2,0.7l0.8,1.5l0.1,0.9l-0.3,1.7l0.9-0.6l0.4-0.7l0.2-0.8l-0.3-2.5l0.3-0.8l0.5-0.9l0.7-1.4l1.3-0.6h1.3
	l1.4,0.2l1.6,0.6l2,0.5l1.4,0.9l1.7,1.7l0.1,2.2l-1.3,4.4l1-0.6l1.5-2l0.8-0.2l0.6,0.8l0.3,1.5l0.2,2.9l-0.1,0.6l-0.4,1.4l-0.1,0.8
	l0.2,0.8l0.7,1.2l0.7,3.1l-0.2,0.9l-1.3,0.4l0.2,0.8l0.3,0.6l0.5,0.4l0.7,0.3l0.5-2.3l0.8-1.3l0.4-1.4l-0.7-2.5l1.6,0.5l1.7,0.2
	l-2.8-3.1l-0.8-1.7l1.7-0.7l1.5-0.2l3.5-1.4l1.6-1.2l0,0l3.8,0.8h3.2l6.7-2.9l3.5,1.6l3.1,2.6l3.8,0.5l0.6,1.5l1,1l1.1,0.6l1.4,2.8
	l1.1,0.7l-0.1,2.1l0.7,0.6l0.5,1l0.2,1.1l-0.2,1.1l-0.4,1.1l-0.3,1.1l-0.1,0.9l-0.4,0.8l-0.8,0.2l-0.8-0.1l-0.7,0.7l-1.7,3l-2.2,3.2
	l-11.5-4.6l-1.9,5.2l0.3,15.2l-1.2,1.2l-0.7,2.1l7.4,1.4l5.5-1.5l4.3,6.8l1.5,2.8l0.4,7.2l1.7,5.4l4-1l3.5-2.6l1.2-0.4l2.1-1.7
	l1.2-4.3l1.1-1.7l0.4-2.3l1.1-1.4l1.4-1l1.1,0.5l1,0.3l-0.3,1.7l-1.3,1l-0.8,1.5l-0.7,1.7l-1.8,3.3l-1,3.9l-0.1,2.8l0.2,2.8l2.6-0.5
	l2.4,0.8l2.5,1.5l0.8,3l-0.1,3.4l0.7,3.4l1.6,2.9l1.8,2.8l-1.9,1.9l-2,1.7l-2.4,0.7l-2.5,0l-1.7,0.4l-4.7-0.6l-0.3-0.8l0.6-1.1
	l-0.5-1l-1-0.3l-2.7-1.3l-3.6-6.5l-2.6-2.3l-1.4,1.4l-1.1,1.7l-1.7,0.4l-1.1,0.5l-1.2,0.4l-4.5,0.9l-2.3,0.9l-2.4,0.4l-1.7-2.7
	l0.7-4.4l-3-0.6l-8.4,2.6l-4.5,1l-3.9,0.4L176.4,301.8z"/>
<path style="fill:#FF981D;" d="M169,168.2l-0.2-0.7l-4.2-0.5l-2,2.5l-2-1.6l0.8-1.8l1.1-1.6l-0.7-1.1l-1.4-0.8l-1.3-0.7l0.2-1.9
	l-0.3-1.5l0.8-1.4l2.3-0.7l0.7-0.4l0.2-0.8l-1.1-0.3l-0.3,0.9l-1.7,0.2l-0.4-1l-0.2-1.9l0.4-2.5l3.7-0.1l4.1-0.1l4.8,4.6v2.4l0.9,2
	l1.3,0.9l0.8,1.3l-0.8,2.5l-1.2,2.2l-1.1,0.8l-0.6,0.4L169,168.2z M156.3,154.3l0.3,0.3l0.3,0.5l0.4,0.4l0.3,0.7l0.2,0.5l-0.4,0.2
	l-0.7,0.5l-0.3,0.4l-1.4,0.3l-0.6-0.1l-0.9,0.4l-1.9,0.8l-1,0.9l-0.6,1l-3.5,2.7l-0.8-0.2l-0.7,0.1l-0.3-0.1l-0.3-1.2l-0.6-0.4
	l-0.3,0.3l-0.3,0.1l-0.1-0.2l0.1-0.4l-0.2-0.5l-0.5-0.1l-0.3,0.4l-0.5,0.4l-0.6-0.3l-0.9-0.2l0.5-0.5l-0.2-0.6l-0.9-0.8l-0.2-0.5
	l0.3-0.8l0.5-0.1l0.7,0.3l3.7-2.6l2.6-0.3h1.8l1.6-0.9l0.6-2.3l1.1-0.4l0.9,0.9l0.5,0.2l0.5,0.3l0.5,0.2h0.5l0.5,0.1L156.3,154.3z"
	/>
<path style="fill:#47B73B;" d="M146.1,368.9l-1.1-1.3l-0.4-1.1l0.6-2.3l1.4-2.9l2.2-5.1l1.8-2.7l2.6-0.9l3-0.6l2.6-0.1l1.2-0.9
	l1.1-1.6l1.6-0.4l1.4,1.6l1.5,1.8l1.1,0.4l-1.1-3.7l-0.8-1.7l-1.2-0.7l-11.5,1.9l-4-2.5l0.2-2.7l0.1-1.1l1.9-0.9l1.7-1.6l1.5-1.7
	l2.4-1.4l3-1.6l2.3-3.1l0.3-3l1.2-0.7l0.9-0.6l0.5-0.4l2.9-0.3l2.8,0.3l1.8,1.4l1.3,0.3l0.9,1.5l0.3-0.8l0.3-1.1l0.1-1.2l-1.1-0.9
	l-0.7-0.5l-1.5-0.8l-1.8-1.2l-1.4-1.1l-0.8-0.4l0.2-0.9l0.7-0.9l0.7-0.5l0.7-0.2l4.5,0.3l1-0.1l0.7-0.4l0.5-0.9l0.2-0.7l0.4-0.5
	l1.1-0.2l0.4-0.3l-0.4-0.7l-0.9-0.7l-1-0.4l-0.3,0.2l-5.9,2.4l-2,0.1l-3.9-0.3l-3.9-0.3v-1.7l-0.2-2.4l-0.7-0.6l-2.4-0.8l-3.6,0.6
	l-0.3-3l7.3-0.8l4-0.5l4-0.2l1.3-0.8l1.4,0.4l1.7-0.9l3-2.3l3.8-1.5l1.6-1.1l0.1-1.4l-4.7,1.5l3.6-4.5l3.9-0.4l4.5-1l8.4-2.6l3,0.6
	l-0.7,4.4l1.7,2.7l2.4-0.4l2.3-0.9l4.5-0.9l1.2-0.4l1.1-0.5l1.7-0.4l1.1-1.7l1.4-1.4l2.6,2.3l3.6,6.5l2.7,1.3l1,0.3l0.5,1l-0.6,1.1
	l0.3,0.8l4.7,0.6l1.7-0.4l2.4-0.1l2.4-0.7l2-1.7l1.9-1.9l0.7,0.8l0.8,0.7l0.7-0.2l0.5-0.7l1.4,0.8l1.2,1.4l3.6,1.2l0.8,0.9l1.3,0.4
	l2.6-1.6l3-1.3l1.2,1.1l1.2,0.6l1-0.9l1-1.1l3.3,5.6l-0.4,6.3l-3,3.2l-0.8,2.1l-4,2.1l-2,0.6l-1.1-0.1l-0.8,0.5l-1.5,3.3l-1.7,1.8
	l-1.8,1.6l-0.9,2.6l-0.2,3l-1,2.2l-1.3,2.3l-0.9,3l-0.7,3.1l-1.1,2.3l-0.1,2.5l2.1,0.9l0.3,1.1l0.2,1.2l0.9,2.3l-0.1,2.5l0.8,1.9
	l1.2,0.8l-0.5,2.7l-3.4,4l-0.5,2.6l-0.1,2.4l-1.7,1.7l-4.6-3.7l-5.2-1.9l-2.9,1.6l-2.4,2.5l-2.5,0.4h-2.7l-2.9,0.4l-3-0.1l-1.4-0.8
	l-1.2-0.9l-1.4,0.4h-1.7l-2.4,0.4l-2.3,1.4l-3-0.4l-1.9-2.1l0.1-3.3l-1.6-1.9l-0.5-1.8l0.7-2.8l-1.6-2.5l-2.4,0.1l-0.6,1l-0.8,0.8
	l-0.5,1.3l-0.2,1.4h-2.5l-3.8-5.1l-2.5-2l-1.4-0.6l-1.5-0.1l-1.3,1.6l-2.7-0.3l-2,1.8v1.3l0.1,1.3l-0.7,1.1l-1,0.7l0.1,1.1l0.2,1
	l-0.7,1.4l-1.1,0.9l-1.3,0.6l-1.4,0.4l-1.2,0.7l-1.1,0.8l-2.7,0.4l-2.6,0.9l-2.4,0.6l-2-0.7l0.1-2.7l0.5-2.7l0.5-3.6l-2.3-0.6
	l-7.9,2.2L146.1,368.9L146.1,368.9z M131.6,349.1l-0.4-0.4l-0.3-0.7l0.2-0.6l0.8-0.4l-0.1-0.2l-0.4-0.3l0.2-0.2l0.4-0.2l0.3-0.4
	l0.5-0.1l0.3-0.1L133,345h0.3l0.9,0.2l0.6-0.5l0.3-0.3l0.3,0.3l0.2,0.6l-0.3,0.7l-1.5,1.3l-1,1.1l-0.6,0.5l-0.3,0.2H131.6z"/>
<path style="fill:#FFDE3E;" d="M256.7,409.6l-0.5-0.1h-3.3l-1.1-0.2l-0.4-0.5l-0.2-0.7l-0.5-1l-0.9-0.7l-0.2,0.8l0.1,1.2l0.2,0.5
	l-0.6,1.8l-0.3,0.6l-0.8,0.9l-3.1,2.4l-1.7,0.8l-1.2-1l-1.5-3.1l-1.3-0.5l-0.9,1.3l-0.4,2l0.1,1.6l0.8,1.7l1.3,2.2l1.4,2l1.3,0.8
	l0.9,1.2l0.8,0.4l1-0.6l2.5-2.3l1.7-0.2l1.5,0.3l1.4,0.1l1.5-0.8l-0.1,1.9l-0.3,1.4l-0.8,2.8l-0.9,4.9l-0.7,1.1l-2.8,0.9l-2.3-1.1
	l-1.8-0.4l-1.5,3.2l-0.5-0.3h-0.1l-0.1,0.2l-0.4,0.1l0.6,1.3l0.5,1.4l0.6,4.4l-0.4,0.8l-0.8-0.5l-1.3-1.4l-1.9-0.2l-1.4-0.8
	l-0.9-1.4l-0.4-2.2l0.5-2.1l1.1-2l0.8-1.9l-0.4-1.7l-0.7-0.9l-1.3-2.8l-0.3-0.2h-0.5l-0.5-0.1l-0.4-0.4V424l0.1-0.6l0.2-0.4
	l-1.2-2.6l-0.2-1l0.1-0.6l0.4-1l0.1-0.5l-0.2-0.6l-0.4-0.4l-0.4-0.1l-0.2,0.4l-0.3,0.2l-1.4,3.5L231,421l-0.3,0.2h-0.4l-2.8,1
	l-1.6,0.2l-3.5-0.1l-1.3,0.4l1.1,0.9l2.1,0.9l1.7,0.5v0.6l-3.4,1.1l-1.7,1l-0.3,1.3l0.7,0.6l1.5-0.6l0.8,0.3l0.6,0.9l-0.2,0.3
	l-0.4,0.1l-0.2,0.3l1.1,3.9l2.3,2.1l2.5,1.6l1.7,2.5l-0.8-0.1h-1.4l-0.6,0.1l3.5,1.3l0.4,1.1l0.2,2l-0.7,0.7l-0.8,0.7l-1.6-0.1
	l-1,0.3l-3.7-2.3l-1.2-0.4l-1,0.2l-1.3,0.6l-1.1,0.8l-0.5,0.7l0.2,0.3l1,2l1.1,0.2l0.7,0.5l3.1-0.8l1.7,1.4l-3.8,3.5l-1.4,1.9
	l-1.5-0.7l-2.3,1.8l0.2,1.7l1,1.1h-2.2l-3.3-4.4l-1.1-2.3l-3-3.3l-0.9,0.2l-3.2,1.7l0.3,1l0.2,0.4l-1.3-0.5l-1.3-0.2l-1.1-0.6
	l-0.8-1.4l-0.1-1.4l0.5-0.8l1.8-1.1l0.6-0.5l1.6-2.2l1-2.1l0.6-0.7l1.2-0.6l-0.1,1.6l-0.4,1.6l-1.2,2.9l2.4-0.2l2-0.7l1.2-1.6v-2.9
	l-0.5-1.1l-0.6-0.6l-0.5-0.8l-0.1-1.5l0.4-0.8l2.3-2.6l0.8,0.4l0.6,0.6l0.1,0.8l-0.4,0.9l0.5,1.3l0.7,0.9l0.9,0.3l1.3-0.5l0.5-0.7
	l1.1-2.4l0.6-1l-1.1-1.7l-0.4-1.7l-0.6-0.8l-1.5,1.2l-1.8,0.7l-1.5-1.2l-2-3.2l-1.1,1.8l-1.6,4.2l-1.1,1.4l-1.2,0.5l-1-0.1l-2-0.4
	l-1,0.3l-0.9,0.8l-1.5,1.9l-0.7,0.5l-3,1.7l-1.6,1.2l-1,0.6l-1,0.3l-0.6,0.3l-0.1,0.8v1.1l-0.2,1.1l-0.5,0.8l-0.8,0.9l-0.4,1
	l0.6,1.3l-4.5,4.4l0.1,4l-0.8,0.7l-2.2-1.1l-0.7,0.9l-0.3,1v1l0.5,1.1l-1-0.3l-2.3-1.6l-3.1-0.9l-0.7-0.4l-0.6-1.9l0.3-4.9l-0.3-1.9
	l0.4-1.2l-0.1-1.5l-0.5-1.3l-0.9-0.7l-0.9,0.3l-0.9,0.8l-0.7,1.1l-0.3,0.9l0.3,1.4l0.5,1.2v0.8l-2.5,0.8l0.3,1.2l1.8,2.3l-3.1,1.8
	l-1.2,1.1l1.2,0.5l0.3,0.2l0.1,0.5l-0.1,0.5l-0.3,0.2l-0.5-0.1l-0.8-0.5l-0.4-0.1l-1.1,0.2l-0.2,0.4v0.7l-0.4,1l-0.6,0.4l-2.4,0.6
	l-0.9,0.8l-0.3,0.6l-2,6.6l-0.2,0.9v1.1l-2-0.4l-3.7,1.2l-0.9-0.2l-0.1-1.2l0.8-2.3l-0.2-1.1l-0.7-0.6l-1-0.2l-2.1,0.1v-0.6l0.4-0.6
	l0.1-0.4l0.2-1.5l0.3-0.1l0.4,0.1l0.3-0.2l1.1-2.1l0.2-1l-0.3-1l-0.4-0.3l-0.6-0.2l-1.2-0.1l-0.9-0.2l-0.1-0.5l0.2-0.5l0.2-0.1v-1.3
	l0.3-1.2l-0.1-0.6l-1.3,0.4l0.4-2.4l1.6-1.2l2.2-0.4h2l-0.4-0.8l-0.5-0.6l-0.6-0.4l-0.8-0.3l1.3-0.9l0.8-1v-0.9l-1-0.5l-0.4,0.1
	l-0.7,0.9l-0.5,0.3h-0.7l-1-0.6H149l-0.5,0.4l-0.3,0.7l-0.3,0.9l-0.7,0.2h-0.7l-0.8-0.1H144l-0.9,0.2l-1.2,0.5l-0.2-1.6l-0.7-0.9
	l-1.9-0.9v-0.3l-0.4-0.8l-0.5-0.5l-0.2,0.6l-0.2,0.4l-0.6,0.3l-0.7,0.1l-0.5-0.2l-1.7-1.6l-0.2-0.1l-0.3-1l0.1-0.3l0.3-0.1l0.3-0.5
	l0.3,0.5h0.8l0.6-0.5l-0.3-1l-2.2-1.1l-1.7-1.2l-0.1-2.8l0.7-3.1l0.8-2.2l0.1-0.7l-0.1-0.9l0.1-0.8l0.7-0.3l0.6,0.1l0.6,0.2l0.5,0.3
	l0.5,1.2l2.5,3.7l-0.8,1l-0.2,1l0.1,1l0.3,1.1l1.7,4.7l1,0.6l4,0.7l1.7,1.2l0.9-0.1l0.7-1.7l-0.9,0.1l-0.5-0.2l-1.7-0.4l-0.8-1.2
	l-1-1l0.3-2.2l-1.1,0.2l-0.5,1.4l-0.8,0.1l-0.5-1.8l-0.2-2.4l0.6-1.4l-0.5-1.7l2.2-0.2l3.4,0.7l0.4,0.8l-0.2,1.3v0.4v0.4l0.2,0.6
	l0.8,0.5l0.5,0.7l1.1,0.7l1.5,0.6l0.9,0.8l1.1,0.8l0.9,0.6l0.4-0.4l-1.7-2.2l1-0.2l1.5,0.9l1.9,1l2.3,0.7l1.7-0.4l-1.7-0.3l-1.4-0.9
	l-2.4-2.1l0.6-0.7l-1.8-1.3l-2.6-3.4l-1.5-0.7l-2-0.4l-2.4,0.2l-1.6-1.1l-2,0.5l-1.9-0.6l-0.2-0.9l1.2-1.4l1.1-0.5l2.4,0.4l3.1-1.4
	l3.7,2.7l1.2-0.2l0.3,0.2l0.2,0.2l0.2,0.2l0.4,0.1l-0.4-1.9l0.2-1.7l1-1.3l2-0.5l3.7,1.1l1.9,0.1l-0.6-1.2l1.3-0.6l0.7-0.1h0.8
	l-1.2-1.4l-1.8-0.3l-4.2,0.4l0.3-0.9l-0.1-0.6l-0.2-0.7v-1l0.3-0.6l0.4-0.5l0.4-0.6v-1l-0.7-1.5l-1.1-0.3l-1.2,0.6l-0.9,1.2
	l-0.1,0.8l0.5,1.7l0.1,0.9l-0.1,0.1l-1,1.9l-0.9,3.3l-0.8,1.1l-1.6,0.1V427l-0.5-0.4l0.3-0.5l0.4-1l0.3-0.5l-1.1-0.6l-0.7,0.3
	l-0.7,0.6l-1.1,0.3l-2.2-0.5l-0.7,0.3l-0.1,1H143l-1.7,0.6l-0.8-0.4l-0.3-1l0.6-1l1.7-1.6l0.6-0.9l0.3-0.7l0.1-0.7v-0.8l-0.2-1.5
	l0.3-0.7l1-0.9l-1-0.8l-0.9-1.6l-0.5-1.9l0.2-1.6l1.1-1l1.5-1l0.5-0.9l-2-0.5l-0.9,0.2l-0.5,0.5l-0.4,0.5l-0.6,0.2l-0.8,0.4l0.1,1
	l0.4,1.1v0.9l-1.1,1l-1.5,0.1l-1.4-0.5l-1-0.7l0.8-0.5l0.3-0.1l-0.7-0.5l-0.6-0.6l-0.5-0.7l-0.4-0.9l0.9-0.5h0.9l2,0.4l-0.2-2.1
	l2.3-2.2L140,402l-2.3-3.2l-1.4-1.3l-1.5-0.5l0.6,2.2l-0.6,1.3h-1.1l-1.1-1.5l0.8-1l-2.1-2.8l-0.3-1.6l1.2-1.4l1.7-0.2l1.5,0.7
	l0.6,1.6l1-0.7l0.6-1.1l0.7-2.3l0.6,1.1l0.1,0.9l-0.2,1.8l-0.4,0.9l-0.1,0.6l0.2,0.6h0.3l0.4-0.1l0.3,0.2l0.3,1.3l0.1,0.6l0.3,0.3
	l1,0.6l0.8,0.3h1.4l0.6,0.3l-0.5,1.1l0.1,1.1l0.6,1l0.9,0.9l2-4.6l0.2-1.6v-1.8l-0.4-0.6l-1.5-0.4l-0.6-0.4l-0.5-0.5l-0.8-2.2
	l-2.7-3.1l-0.6-1.4l0.2-0.5l0.4-0.4l0.4-0.5l0.2-0.9l-0.9-0.6l-0.4-0.8l0.2-1.4l-1,0.4l-1.1,0.2h-2.3l0.9-1.1l1.5-0.3l1.7-0.1
	l1.5-0.4l-0.5-0.2l-0.3-0.2l-0.3-0.2l-0.6-0.1l0.4-0.9l0.5-0.5l0.5-0.4l0.5-0.6l0.3-0.7l-0.1-0.6l-0.3-0.6l-0.1-0.7l0.3-1.5l0.7-1.5
	l1.8-2.7l0.5,0.5l1.2,1.5l1.4,0.4h0.7l-0.2-0.7l-1.6-1.8l0,0l1.7-0.5l7.9-2.2l2.3,0.6l-0.5,3.6l-0.5,2.7l-0.1,2.7l2,0.7l2.4-0.6
	l2.6-0.9l2.7-0.4l1.1-0.8l1.2-0.7l1.4-0.4l1.3-0.6l1.1-0.9l0.7-1.4l-0.2-1l-0.1-1.1l1-0.7l0.7-1.1l-0.1-1.3v-1.3l2-1.8l2.7,0.3
	l1.3-1.6l1.5,0.1l1.4,0.6l2.5,2l3.8,5.1h2.5l0.2-1.4l0.5-1.3l0.8-0.8l0.6-1l2.4-0.1l1.6,2.5L198,369l0.5,1.8l1.6,1.9L200,376
	l1.9,2.1l3,0.4l2.3-1.4l2.4-0.4h1.7l1.4-0.4l1.2,0.9l1.4,0.8l3,0.1l2.9-0.4h2.7l2.5-0.4l2.4-2.5l2.9-1.6l5.2,1.9l4.6,3.7l-0.4,2.2
	l1.7,2l0.8,2.5l0.3,5.2l1.1,2l2,1.4l1.8,1.9l0.7,2.1l0.9,1.8l5,5.5l1.1,2.7v1.8L256.7,409.6z M190.4,381.9l-4.2-1.6L184,381
	l-2.1,0.5l-2.9-0.8l-1.7,1.6l2.2,4.8l4.4,2.6l5,0.8l3.2-4.2L190.4,381.9z M205.6,456l2.5-0.3l1.3,0.1l1.1,0.5l0.9,1.6l-0.3,1.8
	l-1.1,1.5l-1.5,0.6l-3.3,0.6l-1.3-0.2l-0.9-0.5l-1.9-1.3v-0.7l0.4-0.5l0.1-0.5l-0.3-0.4l-0.8-0.5l1.1-0.8l1.3-0.5L205.6,456z
	 M141.5,454.6l0.1,1.3l-0.2,1.5l-0.4,1.5l-1.6,3.4l-0.6,1l-0.8,0.5l-0.1-0.3l-1.4-1.3l-0.6-0.4v0.6l-0.3,1.6l-7.7,4.2l-0.9,0.3
	l-3.4,0.3l-0.9-0.2l-0.2-0.8l0.5-0.7l0.6-0.6l0.2-0.5l-0.4-0.6l-2.3-1.5v2.1l-1.7-2l1-3.3l2.3-2.6l2.3-0.2l0.7-2.1l0.5-0.8l0.8-0.8
	l0.9-0.5l0.8-0.1l0.6-0.4l0.2-1.4l0.9,1.2l1.3,0.1l1.1-0.8l0.5-1.5l-0.6-1.2l-2.1-1.6l0.5-0.8l1.3-0.1l1.3,0.7l1.2,0.9l0.9,0.5
	l0.2,0.3l0.2,0.6l0.4,0.7l0.5,0.4l0.4-0.1l1.8-1.1l0.1,0.8L141.5,454.6z M254.9,436.4l0.8,0.2l0.7,1.2l0.6,1.4l0.7,2.5l0.1,1.4
	l-0.2,1.4l-0.6,1.3l-0.8,0.8l-0.9,0.1l-0.9-0.5l-2.9-2.9l-0.3-1.1l0.5-1.8l0.4-0.5l1.5-1.1l0.3-0.6l0.6-2.5l-1.2-1.3l0.1-0.8
	l0.9-0.4l1-0.1l0.9,0.4l0.2,0.9l-0.4,1.1L254.9,436.4z M109.8,433.6l1,0.9l0.3,0.4l0.1,0.7l-0.2,0.8l-0.3,0.7l-1.2,1.6l-0.6,0.4
	h-0.6l-0.8-0.1v-0.3l-1.2-0.7l-1.3-0.5l-0.4,0.1l-0.7-1.6l0.6-0.8l2.4-1l1.5-2l0.5-0.3l0.3,0.2L109.8,433.6z M111.3,426.9v2.1
	l-0.4-0.2l-0.9-0.3l-0.4-0.2l-0.7,0.9h-1.1l-1-0.2l-0.4,0.3l-0.2,1.3l-0.4,1.2l-0.7,0.9l-1,0.4l-0.9-0.1l-0.7-0.7l-0.4-1L102,430
	l0.2-1.2l0.6-0.9l0.9-0.6l1-0.4l1.1,0.4l1.4-0.3l2.6-1l0.5-0.1l0.4,0.1l0.3,0.3L111.3,426.9z M115.3,413.9l0.3-1.3l0.8-0.2l0.9,0.6
	l0.6,1.1l0.2,1.4l-0.3,1.4l-0.6,1.2l-0.9,0.8l-1.2,0.3l-0.7-0.3l-0.5-0.5l-0.7-0.2l-2.6,0.6h-1v-0.6l0.8-0.7l1.5-2.3l1.1-1h0.5
	l0.8,0.2h0.7L115.3,413.9z M119.7,400.4l-0.4,0.1l-2.2-0.6l-0.8,0.1l-0.3-0.2l-0.2-0.2l-0.2-0.2l-0.4-0.1l0.6-3.1l0.4-0.9l0.6-0.3
	l1-0.3l0.9-0.4l0.4-0.6l0.6-1.3l1.5-0.9l1.7-0.4l1.2,0.3l-2.5,1.4l-0.6,0.8l-0.1,1l0.4,1l1.1,1.7l-0.9,0.4l-0.9,0.9l-0.7,1
	L119.7,400.4z M216.6,501.2l0.5,0.4l0.6,0.2l0.2,0.3l-0.1,0.5l-1.1-0.6l-1.1-0.3l-0.2-0.3l-0.3-0.7l-0.2-0.8l-0.3-0.2l-0.3-0.3
	l-0.2-0.7l0.1-0.4v-0.5l0.1-0.4l0.3-0.1l0.3,0.1l0.4-0.1l0.2-0.3h0.1l0.2,0.4l-0.3,0.9l0.1,1L216.6,501.2z M234.6,459.3l0.4,1v0.6
	l-0.6,0.7l-1.5,1l-1.3,0.4l-0.5-0.3v-0.8l-0.5-0.6l-0.8-0.3l-0.4-0.5l0.2-0.4l-0.9-0.6l-0.5-0.4l0.3-0.7l-0.1-0.5l-0.1-0.4l0.4-0.2
	l0.6,0.2l0.6,0.3l1.1,0.3v0.3l0.4-0.1l0.7-0.7h0.7L234.6,459.3z M254.9,453.8l0.5,0.3l0.4,0.6l-0.2,0.6l-1,0.3h-0.7l-0.2-0.2
	l-0.3-0.4l-0.8-0.4l-1.2-0.4l-0.8-0.6l-0.4-0.8l-0.4-0.6l-0.7-0.4l-0.6-0.7l0.4-0.8l1.4-0.6l1.5-0.2l1.1,0.8l1.2,2.4l-0.1,0.7v0.3
	L254.9,453.8z M118.8,445l0.2,0.2l0.2,0.5l-0.1,1l-0.3,1.1l-0.1,0.9l-0.5,0.5l-0.7,0.5l-0.7,0.6l-1.6,0.9l-0.9,0.1l-0.9-0.3
	l-0.3-0.5l0.5-0.2h0.5l0.4-0.4l0.5-0.4l-0.1-0.3l-1.8-0.4l0.4-0.5l1.1-0.2h1.2l0.9-0.7l0.4-1l-0.4-1l-0.8-1.3l-0.5-1.6l0.6-0.5
	l1,0.8l0.6,0.6l1,0.6L118.8,445z M113.8,447.6L113,448l-0.7-0.5l-0.3-3.4l0.3-1.9l0.7-0.9l1,2.3l0.9,1.3l0.7,1.4l-0.2,1.1l-0.7,0.2
	H113.8z M65.9,436l0.9-0.2l0.2,0.4l-0.7,0.7l-0.4,0.4l-0.2,0.6l-1.3,1.5l-0.3,0.7l-0.5,0.9l-0.4,0.6l-0.3,0.4l-0.8-0.3l-0.5-1.4
	l0.1-1.3l0.4-1.2l0.5-1.1l0.6-0.9l0.7-0.5l0.7-0.1l0.4,0.3l0.3,0.7L65.9,436z M124.8,431.7l0.3,0.9v1l-0.5,0.9l-1,0.1l-0.9-0.9
	l-0.8-1.1H121l-0.4,0.4l-0.3,0.1l-0.6,0.1l-0.6-0.4L119,432l-0.7-1.3l-1.6-1.7l-0.3-0.8l0.8,0.2h0.6l0.6-0.3l0.9-0.1l1,0.2l0.8,0.3
	l0.5,0.5l0.7,0.4l1,0.1l0.8,0.2l0.5,0.5l0.3,0.5l-0.1,0.5L124.8,431.7z M124.4,425.8l-0.3,0.3l-0.3,0.6l0.2,1.3l-0.5,0.5l-1,0.3
	l-0.9-0.5l-1.1-0.9l-1.4-0.5l-1-0.6l0.8-0.7l2-0.3l1.2-0.5l0.6-0.5l0.8,0.3l0.6,0.8L124.4,425.8z M117.2,422.8l-0.7-0.9l-0.6-1
	l0.2-0.8l1.2-0.6l1-0.1l0.8,0.4h0.8l0.2-0.6l-0.2-1.2l0.8-0.8h1.1l0.5-0.1l0.4,0.2l0.4,0.6l0.1,0.6l-1.1,0.7l0.4,1.5l-0.2,0.9
	l-0.6,0.4h-0.8l-0.5,0.6v1.1l-0.3,0.9l-0.9,0.5l-0.7-0.1l-0.2-0.6V424L117.2,422.8z M130.7,413.7L130,414h-1l-0.4-0.9l0.2-0.9
	l0.6-0.3h1.4l0.5,0.2v0.4l-0.3,1L130.7,413.7z M125.2,400.7l0.2,0.4l0.1,0.5v1l-0.3,0.3l-0.4,0.2l-0.4-0.2l-0.7-0.8l-0.3-0.2
	l-0.4,0.2h-0.4l-0.1-0.4l-0.3-0.2h-0.4l-0.1-0.2l0.6-0.4l-0.2-0.1l-0.4,0.1l-0.3-0.1l0.2-0.4l0.6-0.4l0.5-0.1l0.7,0.3l1-0.1l0.7,0.2
	L125.2,400.7z M40.2,498.4l-0.4-0.3l-1.6-1.4l-0.9-0.6l-0.2-0.8l0.4-1l0.6-0.6L39,494l0.7,0.9l1.2,2.4l0.1,0.8l-0.3,0.4L40.2,498.4
	L40.2,498.4z M159.2,486.7l0.7,0.3l0.7,0.8l-0.2,0.4L160,488h-0.3l-0.1,0.4l-0.3-0.1l-0.7-0.4h-0.8l-0.4,0.4l-0.3,0.5l-0.9,0.6
	l-0.8,0.7l-1.2,0.7l-1.5-0.1l-0.9-1.1l-0.1-1.5l0.7-1.4l1.4-1h1.2l1.6,1l0.5,0.1l0.7-0.2h0.9L159.2,486.7z M165.1,488.2l0.3,0.2
	l0.3,0.5l-0.3,0.3l-0.4,0.1l-0.1,0.6v1l-0.4,0.8l-0.8,0.2l-0.4-0.2l-0.1-0.5l-0.4-0.3l-0.4-0.1l-0.2-1.3l0.5-2.2l0.2-1.3l-0.5-0.5
	l-0.2-0.4l0.7-0.6v-0.3h0.7l1.4,0.7l0.2,1l-0.8,0.7l-0.1,0.7L165.1,488.2z M184.3,483.9l0.8,0.7l0.5,0.5l-0.2,1.2l-0.2,0.5l-0.5,0.9
	l-0.9,0.5l-1.2,0.1l-0.9-0.5l-0.7-0.7l-0.5,0.1l-0.3,0.5l-0.3-0.2l-0.3-1.5l0.5-1l0.1-0.9l0.3-0.7l0.6-0.5l1.2-0.6l1.4,0.4
	L184.3,483.9z M160.2,481.9l0.3,0.5l0.1,0.9l-0.6,0.5l-0.3,1.1l-1.2,0.1H158l0.4,0.7L158,486l-1.2-0.3l-0.6-0.6l-0.2-0.4l-0.3-0.1
	l-0.4-0.1l-0.1-0.3l0.4-1.2l0.2-0.4v-0.3l-0.2-0.2l0.1-0.2l0.3-0.1l0.2-0.2l-0.1-0.3l-0.4-0.7l0.3-0.2l0.6,0.2l0.6,0.3l1.7,0.3
	l0.9,0.5L160.2,481.9z M117.9,473.2l-0.1,1.1l0.1,0.7l-0.4,0.6l-0.8,0.1l-0.5,0.4l-0.4-0.2l-0.3-0.5h-0.3l-0.1,0.5l-0.5,0.1
	l-1.7-0.7l-0.6-0.8l-0.1-0.5l0.3-0.5V473l0.6-0.4l2.8,0.6l1.2-0.2L117.9,473.2z M179.8,473.1l-0.3,0.4l-0.7,0.2l-0.4-0.6l-0.2-0.7
	l-0.4-0.6l-0.6-0.3l-0.8,0.1l-1,0.3h-0.8l-0.3-0.2l-0.3-0.2l-1.8-0.8l-0.1-0.3l0.8-0.1l0.8-0.2l0.4-0.2l0.3-0.1l0.6,0.1l0.7,0.3
	l0.9-0.4l1.1-0.9l0.8-0.2l0.5,0.4l0.6,0.2h0.3l0.3-0.1l0.9,0.1l1.1,0.3l0.7,0.4l-0.2,0.7l-0.5,0.5l-0.1,0.3l-0.1,0.7l-0.5,0.6
	l-0.7-0.1l-0.8,0.1L179.8,473.1z M199,469.6l0.3,0.2l0.2,0.5l-0.5,0.1l-0.7-0.3l-0.8-0.2l-0.6,0.2l0.2,0.3l0.5,0.3l-0.6,0.6
	l-1.4,1.1l-0.8,0.4l-0.1-0.9l0.4-0.6l0.5-0.3l-0.3-0.4l-1.8-0.4l0.2-0.4l-0.2-0.5L193,469l-1.4-0.1l-0.5-0.2l-0.2-0.2l0.2-0.2
	l0.6-0.1l0.5-0.3l0.8-0.9l0.8-0.7l-0.1-0.3l0.3,0.1l0.6,0.6l0.5,0.8l0.3,0.9l0.6,0.3l1.1-0.3l0.8-0.1l0.4,0.3l0.3,0.4L199,469.6z
	 M172.5,473.1l0.2,0.6l0.5,1.1l-0.3,0.3l-0.4-0.1l-0.4-0.1l-0.7-0.3l-0.6-0.4l-0.3,0.1l-0.1,0.6l-0.4,0.2l-0.7-0.3l-1.2-0.3
	l-1.5-0.5v-0.6l0.8-0.6l-0.2-0.7l-0.7-0.2l-0.8,0.2l-1.1-0.3l-0.9-0.6l-0.6-0.7l-0.2-1.1l-0.1-1.2l0.1-1.2l0.3-1.2l0.6-0.9l0.9-0.4
	l0.5-0.1l1.4-0.1l0.9,0.3l0.9,0.6l1,1.1l0.8,1.9l0.2,1.5l0.3,0.7l0.4,0.6l0.3,0.8L172.5,473.1z M172.4,465.9H172l-0.4-0.4l0.3-0.6
	l0.4-0.6l0.6-1.2l1.1-1.5l1.6-0.9l1.7-0.4l1,0.2l0.4,0.6l0.1,0.6l-0.4,0.4l0.1,0.2l0.8,0.5l0.6,0.7l0.5,0.8l0.1,0.6l-0.6,0.1
	l-1.7-0.5l-0.7,0.2l-0.4,0.6l-2.1,1l-0.8,1l-0.2,1l-0.4,0.3l-0.5-0.6v-1l-0.2-0.8L172.4,465.9z M138.3,418.8l1.5,0.5l0.2,2.1
	l-1.6,1.5l-0.9-0.3l0.5-0.6l0.3-0.6l-0.2-0.4l-2.3-1.2l-0.3-0.2l-2.4,0.4l-1.1,0.5l-1.2,0.2l-1-0.3l-0.5-0.6l0.4-0.5l1.3-0.1
	l1.6-0.6l0.3-0.4l0.3-0.3l0.1-0.4l1-0.3l0.4-0.6v-0.7l-0.6-0.9l-0.3-1l0.9-0.5l1.4,0.3l1.4,0.7l1,1l-0.1,0.6l-0.7,0.1l-1.2,0.8
	l-0.2,0.5v0.6l0.1,0.5l0.5,0.2L138.3,418.8z M129.7,400.8l0.2-0.5l-0.6-0.2l-2.1-0.3l-0.5-0.4l-0.7-0.1l-0.3-0.1l-0.3-0.3l-0.5-0.2
	l-0.4-0.5l-0.9-2l0.5-0.8l1-0.3l0.9,0.3l0.8,0.5l0.7-0.2l0.8-0.4l0.5,0.2l0.2,0.4h0.4l0.5-0.1l0.2,0.6l-0.6,0.6h-0.7l-0.3,0.4v0.5
	l0.9,0.9l0.8,0.3l0.8,0.1l0.5,0.7l0.2,0.9l0.4,0.6l0.1,0.8l-0.3,1l-0.3,0.3l-0.2-0.3l-0.9-0.2l-0.4-0.5l-0.3-0.6L129.7,400.8z"/>
<path style="fill:#5277FF;" d="M350.4,392.3L350,392l-0.7,1.1l-2.5,4.3l-1.1,0.1l-0.1-2l0.1-1.9l-0.5-0.1l-0.7,1.6l-0.6,2.4l-2-0.2
	l-5.3,0.1l-0.3-1.8l-0.5-1l-0.7,2.7l-0.8,0.4l-1.9-0.8l-0.9-1.6l-1-0.1l-1.2,1v-4.3l-0.3-0.4l-0.7,0.3l-0.6,0.9v1.5l-1.3-1l-1-1.4
	l-1.1-0.9l-1.6,0.6l0.4-1.4l-0.7-2l0.3-0.7l-0.8-2.6l-0.5-0.3l-0.9,0.8l-1,1.6v1.1l1,2.1l0.6,2.6l0.3,0.9l0.7,1.2l1.3,1.8l0.2,0.9
	l-0.4,1.3l0.6,0.1l1,0.4l0.6,0.2l-0.7,0.5l-0.7,0.2h-1.6l-0.9-0.2l-0.2-0.5v-0.7l-0.3-0.6l-0.8-0.8l-0.6-0.4l-4.4-1.5l-1.2-0.1
	l-2.7,0.5l-0.7,0.4l0.1,0.7l0.9,1.3l-1.5,0.3l-2.8,1.4l-3.2,0.9l-0.4,1.2l-0.2,1.4l-0.9,0.9v0.7l8.1-4.3l1.4-0.1l0.3,1.7l0.5,1.3
	l0.2,1.1l-0.7,1.3l-1,0.6l-1.6,0.3l-1.6-0.1l-1-0.4l-0.5,1l0.4,0.5l0.7,0.4l0.5,0.8l0.1,0.5v0.7l-0.1,2l-0.6,4l0.7,0.7l0.7-0.2
	l0.6-0.8l0.3-1l1.1,1.3l-1.1,2l-2,2.7l-1.8,0.5l-2.4-0.2v-1.5h1.6l0.7-0.1l0.4-0.7l-5-0.6l-1-0.4l-1.2-1.6l-0.2-0.8l0.8-0.5l1.9-0.7
	l-1.8-3.7l-1.3,1.3l-1.3,2.6l-1.9,0.1l-1.7-2.3l-0.9-0.6l-1.8-0.2l-0.8,0.5l-0.4,1.2l-0.2,1.5v1.5l-1.7-0.3l-3.8,0.2l-1.5-0.8
	l-0.2-0.5v-1.4l-0.1-0.4l-0.4-0.1l-0.9,0.2l-1.2-0.3l-1.9-0.2l-0.7-0.4l-0.4-0.8v-0.8l0.2-0.7l0.1-0.7l-0.1-7.3l0.1-1.2l0.2-0.5
	l0.4-0.7l0.4-0.9l0.1-1.2l-1.3,1.5l-1,1.8l-1.3,1.3l-1.9,0.2l1.5,3.5l-1,0.7h-2.2l-2.1,1.3l-0.8-2.4l-0.5-1l-0.9-0.7l-0.2,3.2
	l-0.9,2.5L264,411l-2.2,0.2l-0.9-0.3l-0.8-0.2l-0.6,0.1l-0.5,0.5l-1.2-1l-0.8-0.2l-0.2-0.4v-1.8l-1.1-2.7l-5-5.5l-0.9-1.8l-0.7-2.1
	l-1.8-1.9l-2-1.4l-1.1-2l-0.3-5.2l-0.8-2.5l-1.7-2l0.4-2.2l1.7-1.7l0.1-2.4l0.5-2.6l3.4-4l0.5-2.7l-1.2-0.8l-0.8-1.9l0.1-2.5
	l-0.9-2.3l-0.2-1.2l-0.3-1.1l-2.1-0.9l0.1-2.5l1.1-2.3l0.7-3.1l0.9-3l1.3-2.3l1-2.2l0.2-3l0.9-2.6l1.8-1.6l1.7-1.8l1.5-3.3l0.8-0.5
	l1.1,0.1l2-0.6l4-2.1l0.8-2.1l3-3.2l0.7,2.2l1.6,0.9l0.8,0.6l0.7,0.6l0.1,0.8l0.3,0.8l0.7,0.3l0.7,0.2l2.4,0.2l1.1,0.9l1.3,0.9
	l2.3,0.2h2.3l2.1,0.7l1.5,1.7l1.1,2l1.8,1.3l0.5,0.9l0.3,0.9l1.2,0.8l1.1,1.3l-0.1,2.3l-1,2.2l1.3,4.6l5,0.2l2.4-0.3l2.3,0.4l2.2,1
	l2.1,1.6l2.3,0.5l4.3-2.2l2.2,0.4l2-2.8l1.9-1.4l0.7,5.5l2,2.5l2.5,1.6l2.9-0.3l3-0.5l2.6,0.8l2.5,1.3l3,0.1l2.6-2.1l1.2-0.4
	l1.2-0.2l1.1-1l0.9-1.2l2.9-1.2l3.1,0.8l2.4,1.1l2.3-0.8l0.3,3.9l-2,4.1l1.2,2.4l5,0.8l2.1,1.6l3.5,4l4.2,2.3l1.9,1.4l0.5,2.7
	l1.8,1.7l2.3,0.8l0.3,0.3l-0.4,1.3l-0.1,1.8l-0.5,0.9l-0.5,0.8l0.5,1.3v0.6l-0.9,1.8l-1.3,2.7l-1.4,1.7l-0.8,1.6l-0.1,0.3l-0.2-0.4
	l-1.6-1.7l-1.5-1.9l-1.8-1.5l-1.4-2l-0.5-2.2l-1.6-1l-2-0.1l-1.9,0.8l-1.5,1.1l-1.2,1.4l-0.8,5.8l-1.2,1.8l-1.2,1.5L350.4,392.3z
	 M278.1,423.6l0.4,1.1l-0.2,1l-0.4,1l-0.2,1.3l0.2,2l-0.1,1.2l-0.5,0.5l-0.6,0.4l0.7,2l-0.3,1l-1.2,0.2l-1.2-0.7l-1.3-0.6l-1.5,0.7
	l-1.3,0.2l-0.8-1.9l-0.9-4l-1.3-0.7l-1.1,0.7l-0.7,1.7l-0.3,2l-0.5,0.9h-1.1l-1.2-0.4l-0.7-0.5l-0.5-0.9l-0.1-0.7v-0.9L261,429
	l-2.2-7.2l-0.3-1.7l0.2-1.7l0.9-1.8l0.6-0.5l0.6-0.1l0.5-0.3l0.4-2.2l0.5-0.6l1.3-1l1.1-0.5l1.2,0.4l1.1,1l0.6,1.2l-0.1,1.3
	l-0.7,1.2l-1.8,1.9l0.3,0.7l0.4,1.7l0.5,0.9l0.7,0.5l1.7,0.6l1,1.7l1.6-0.3l2-0.8l1.9-0.4l2.7,0.5L278.1,423.6z M333.1,418.3
	l-0.1,1.2l-0.4,1.2l-0.7,0.7l-1.1-0.5l0.4,1.3l1,2.2l0.2,1.5l-0.6,0.2l-1.4-0.5l-1.5-0.8l-0.9-0.7l-0.3,1.4l-0.3,0.7l-1.4,1.6
	l-0.5,1.3l1,0.7l1.3,0.6l0.7,0.8l-1.3,1.1l-5.9,1.8l-1.8,0.1l2.8-2l-1.1-0.5l-0.4-0.9l0.1-1.2l0.4-1.4l-2.5,1.3l-0.7-0.5l-0.4-1.1
	v-1.1l0.5-0.5l2-0.4l0.6-1.1v-1.5l0.4-1.7l-1.1-0.7l-0.8,1l-2.9,1.3l-1.3,1l-0.9-1.4l-1.2-1.3l-0.9-1.4l-0.3-1.9l0.5-1.1l1.1-1
	l1.2-0.8l1.1-0.4l3-0.6h0.8l1.3,0.6l1.1,0.7l1.1,0.5l1.5,0.1v-0.6l-1.5-1l-0.9-1.5l-0.4-1.7l-0.1-1.6l1.1,0.1l5.7-3.2l-1-1.8
	l0.5-1.8l1.2-1l1.4,0.6l0.4,0.8v1l-0.5,3.6v0.6l0.4,1.2l0.5,0.9l0.4,1v1.3l-0.3,1.2l-1.3,3.3l1.6-0.6l0.8-0.5l0.3,0.2L333.1,418.3z
	 M278.4,420.6l0.3,0.3l0.4,0.7l-0.9,0.2l-3.7-1l-2,0.6l-1.2-0.1l-1.2-0.7l-0.7-1.4l0.6-1.5l1.1-1.4l0.7-1.3l0.7-0.9l1.3-0.3l0.4,1.1
	l-0.6,1.6l-0.3,1.1l0.1,0.9l0.4,0.3l0.5-1.1l0.9-1.5l0.8-0.1l0.2,0.7l0.4,0.4l0.4,0.2l0.2,1.2l0.5,1.6L278.4,420.6z M340.7,403.3
	l-0.4,2l-0.5,0.7l-0.4,0.1l-0.2-0.4l-0.4-1.7l-0.6-0.6l-0.2-0.5l0.1-0.7l-0.3-0.8l-0.4-0.8l0.2-0.7l0.9-0.5l0.9-0.1l0.8,0.2l0.6,1.2
	L340.7,403.3z M296.3,440.8l0.2,0.2l-0.1,0.5l-0.8,1l-0.3,0.2l-0.5,0.1l-0.8-0.2l-0.6,0.1l-0.9,0.4l-0.4,0.4l-0.5,0.1l-0.1-0.4
	l0.3-0.6l-0.1-0.5l-0.4-0.4l-0.3-0.1l-0.4-0.3v-0.5l0.2-0.4v-0.5l0.3-0.3l0.5-0.1l2.6,1.4v0.6h0.4L296.3,440.8z M303.7,423.1
	l0.8-0.3l1.2-0.3l1.4-0.1l0.8,0.8l0.2,1.3l-0.4,0.8l0.3,0.5l-0.4,0.6l-0.8-0.3l-0.3,0.2v0.2l0.7,0.1l0.7,0.5l-0.3,0.6l-0.8,1h-1.3
	l-0.6-0.7l-0.3-0.8h-0.7l0.2-0.6l-0.2-0.6l-1-0.2l-0.4-0.3l0.8-0.6l0.1-0.7l-0.8-0.6l-1.5-0.5l-0.9,0.3h-0.5l-0.2-0.6l0.7-0.7
	l0.9-0.2l1.2,0.5l1,0.7L303.7,423.1z M291.9,421.5l1.2,1.3l0.5,0.8l-0.3,0.5h-0.9l-0.4,0.2l0.1,0.7l-0.2,0.3l-0.8-0.2l-0.5-0.2
	l-0.9-0.6l-0.5-0.8l0.1-0.5l0.6-0.9l1.1-0.8L291.9,421.5z"/>
<path style="fill:#47B73B;" d="M369.5,389.3l-0.4,0.8h-1.2H367l-1.1,0.2h-0.8l-0.9,0.4l-1,0.1l-0.1,1.4l0.6,1l0.1,1.1l-0.4,1.3
	l-1.8,0.8l-1.5-1.3l-0.9-0.7l-0.7-0.8l-2.1,2.3l-1,1.8l-0.3,1.9l-0.7,0.5l-0.4-1l-1-1l0.1,0.9l0.2,2h-0.6l-0.3-0.7l-0.3-0.2
	l-0.8,0.6l-0.8,0.5l-0.5-0.7l-0.7-2.2l0.3-2l0.6-2.5l0.1-1.4l0.7-1.2l1.2-1.5l1.2-1.8l0.8-5.8l1.2-1.4l1.5-1.1l1.9-0.8l2,0.1l1.6,1
	l0.5,2.2l1.4,2l1.8,1.5l1.5,1.9l1.6,1.7L369.5,389.3z"/>
<path style="fill:#CEEF45;" d="M390.5,345.2l0.1,0.1l0.5,1l-0.3,2.2l-0.2,2.6l-0.5,3.8l-0.8,1.6l-1.3,1.8l-1.2,0.7l-0.5-1.7
	l-0.5-2.3l-1-1.7l-1.1-0.3l-0.7,1.9l1.1,0.3l0.7,0.8l0.3,1.2l0.1,1.4l-0.4,1.3l-0.8,0.3l-0.9,0.1l-0.6,0.6l0.1,0.7l0.1,1.8l0.3,1.9
	l-0.8,1.2l-0.7,1.2l0.7,0.9l0.5,0.5l-0.1,1.3l-1.7,0.5l-1.6,0.9l-2.2,2.2l-1.9-0.1v0.1l-0.3-0.3l-2.3-0.8l-1.8-1.7l-0.5-2.7
	l-1.9-1.4l-4.2-2.3l-3.5-4l-2.1-1.6l-5-0.8l-1.2-2.4l2-4.1l-0.3-3.9l1.9-1.6l2.1-1.2h1.2l0.5-1l-0.8-1.3l-0.4-1.4l2.7-2.1l3.4-1.2
	l2.8-0.4l2.7,0.6l2.9,1.2l0.7,1.2v1.5l0.2,1.3l1,0.7l1.4,0.4l7.5-1.4L390.5,345.2L390.5,345.2z"/>
<path style="fill:#FF981D;" d="M387.6,244.9v0.2l0.4,3.9l1.1,4.1l0.4,4.1l-0.5,8.5l-0.5,1.8l-2.5,3l-1,1.7l-0.4,2l-0.3,12.1l0.3,1.6
	l0.5,0.9l0.5,0.4l0.4,0.5l0.5,3.4l0.6,2.6l0.7,0.5l0.4,0.6l-0.3,1.6l-0.7,0.9l-0.8,0.4l-0.8,0.3l-1.3,1.1l-0.1,1.4l1.7,1.6l1.2,1.4
	l1.3,1.6l1.6,0.3l2.1-1.6l5.1-5.6l1-1.7l1.3,1.1l0.3,1.7l0.6,1.8l0.4,2l-1.3,2l-2.9,5.8l-0.2,2.6l-0.9,6.8l-2.1,5.9l0.1,3.7
	l-2.1,6.4l-1.6,3.1l-0.7,1.6l0.7,1.8l0.6,0.7h-0.1l-6.4-1.6l-7.5,1.4l-1.4-0.4l-1-0.7l-0.2-1.3v-1.5l-0.7-1.2l-2.9-1.2l-2.7-0.6
	l-2.8,0.4l-3.4,1.2l-2.7,2.1l0.4,1.4l0.8,1.3l-0.5,1h-1.2L356,347l-1.9,1.6l-2.3,0.8l-2.4-1.1l-3.1-0.8l-2.9,1.2l-0.9,1.2l-1.1,1
	l-1.2,0.2l-1.2,0.4l-2.6,2.1l-3-0.1l-2.5-1.3l-2.6-0.8l-3,0.5l-2.9,0.3l-2.5-1.6l-2-2.5l-0.7-5.5l-1.9,1.4l-2,2.8l-2.2-0.4l-4.3,2.2
	l-2.3-0.5l-2.1-1.6l-2.2-1l-2.3-0.4l-2.4,0.3l-5-0.2l-1.3-4.6l1-2.2l0.1-2.3l-1.1-1.3L288,334l-0.3-0.9L287,332l-1.8-1.3l-1.1-2
	l-1.5-1.7l-2.1-0.7h-2.3l-2.3-0.2l-1.3-0.9l-1.1-0.9l-2.4-0.2l-0.7-0.2l-0.7-0.3l-0.3-0.8l-0.1-0.8l-0.7-0.6l-0.8-0.6l-1.6-0.9
	l-0.7-2.2l0.4-6.3l-3.3-5.6l2-1l2-0.7l1.3-2.4l0.7-2.6l0.6-1.1l0.8-0.9l0.2-1.6v-1.4l-0.5-2.7l2-1.7l1.9,0.4l1.7,0.1l-0.9-5.2
	l-1.8-1.3l-4.1,1l-1.6-0.7l-2.3-1.9l-2-0.6l-3.3,0.8l-0.5-4.7l1.8-1.5l1.2-2.3l-0.9-1.6l-0.5-1.7l0.5-2.4l0.3-5.5l0.8-2.3l1.5-1.4
	l-4-5.7l-3.2-0.5l-0.9-2.3l1.2-0.6l1.2-0.2l1.2-1.2l1.8-2.4l0.5-1l-0.1-0.9l0.2-1.2l2.5-1.7l2.8-1.3l1.8-2.6l3.1,1.3l5.7,0.9
	l-1.2-2.3l-1.5-2l0.5-2.1l1-2.2l1-1.7l1.3,0.9l1.6-0.1l1.3-1.8l1.4-0.9l1.3,0.8l2.5,0.9l2.3,0.2l0.6-1.7l0.4-1.6l0.8-1.3l1.1-1
	l1.1,1.2l1.3,1l1.9,1.6l1.2,2.4l2.9,0.9l6.8-2.8l1.2-3.9l-1.1-1l-0.6-1l1-1.9l0.8-1.9l1.8-2.5l2.5-1.8l0.7-1.3l1-0.8l1.7-0.5
	l1.3-1.3l2.1-1.7l1.9-2l0.8-0.5l1,0.4l1.1-0.6l1-1.1l2.1,1.1l2,0.8l2.4,0.5l2.1,0.2l0.5-2.2l0.3-2.3l-0.5-2.5l1.5-1.8l2.2-1l2.2,0.2
	l1.1,2l1.6,0.4l1.4,0.7l-0.2,1.8l0.2,1.8l2.4-0.9l2.3-1.8l1,0.4l0.7,0.9l0.9,0.1l1.1-0.4l3.2,0.5l3,1.4l2.1-0.5l2.2-1.2l2.8,0.6
	l2.5,1.5l0.8,2.3l-1.9,1.4l-2.4-0.9l-1.5,0.6l-1.4,1l-0.6,2.5l0.4,3.3l1.7,2.5l2.7,1.3l0.6,2.1l0.8,1.9l1.9,0.8l1.7,1l5.9,0.4
	l-0.3,2.3l0.7,0.7l0.6,0.7l-0.9,2.5l-1.1,2.7l0.2,2.8l0.7,2.5l0.3,2.2l-0.9,2.4l5.6,2.1l2.6-1.1l2.7,0.6L387.6,244.9z M332.5,321.6
	l1.3-1.3l0.4-1.6V317l-0.2-1.6l-0.9-0.7l-0.7-1v-2.5l0.4-0.7v-0.8l-1-1.8l-3.2-2.4l-4.3,0.3l-5.1,0.7l-3.8,3.1l0.5,4.5l-1.4,1.5
	l-0.9,2l0.8,0.1l0.7,0.3l-0.2,1l-0.3,0.9l-1.3,0.2h-1.2l-1.1,1.6l0.5,1.8l1.3,0.5l1.2,1.2l1,1.9l1.4,1.2l1,0.6l0.7,0.6l0.6-0.5
	l1.2-2l1.2-0.9l2.6,0.3l4.7,1.2l1.8-1.1l0.2-0.9V325l0.8-2l0.1-0.8v-0.7l0.8-0.1L332.5,321.6z M447.4,151.1l1.4,1l-0.1,2.6l-0.9,2.9
	l-0.9,1.9l-1.5,0.8l-2.1-0.4l-2-1.2l-1.3-1.6l-0.4-2.1l0.7-1.5l1.5-1l2.9-0.5l1.9-0.7L447.4,151.1z"/>
<path style="fill:#A148FF;" d="M187.3,523.7l0.6,1.3l-0.4,0.4l-0.8,0.2l-0.6,0.7v0.6l0.5,0.9v0.5l-0.3,0.5l-0.7,0.9l-0.1,0.3
	l-1.5,1.7l-2.7,2.2l-0.9,1.8l-1.2,2.1l-0.1,0.9l-0.5,1.3l-2,0.2l-0.8,0.4l-2.1-0.2l-3.1,2.4l-8.2,1.5l-2.7,2.3l-3.3,0.7l-3.6-0.4
	l-4.1,0.8l-3.4-1l-7.7,0.1l-2.4,1.1l-1.4,2.5l-1.3,0.3l-1.3-0.6l-1.8-3l-2.5-0.8l-2.4-2.5l-0.8-3l1.4-3.9l1.4-2.4l0.8-0.9l2.8-1.7
	l2.4-4.2l2.2-0.6l1-2.2l3.8-1.3l8.3-2.4l2.1-1.8l7.9-0.8l5.4-2.3l1.3,0.4l6.5-1.1l3.8-0.3l2.5,0.4l1,1.4l1.2,0.9l3.9,1.5l1.2,1.2
	l0.8,2.9l0.8,1.1l0.4-0.4l0.5-0.4L187.3,523.7z"/>
<path style="fill:#FFDE3E;" d="M201,150.6h2.2l1.9-0.7h1.6l0.6,1.5l-0.2,1.5l-1.1,0.6l-1.2,0.8v1.8l0.7,0.7l-1.4,1.9l-0.8,1.3
	l-2.1,1.2l-2.3,0.5l-2.4,1.2l-0.9-2.1l-2,0.5l-2,0.6l-1.4,0.8l-1.5,0.2l-3.5-0.1l-2.4-3.1l-2.3-0.7l-1.6-1.1l-0.4-2.9l-1.6-2.3
	l-1.9-2.3l1.2-2.6l2.3,0.1l2.6,1.6l1.9-0.7l1.7-1l0.1-1.7l0.5-1.6l3.6-0.3l1.9-2.4l1.1-2.4l1.6-1.7l2.5-0.6l2.9,0.2l1.4,2.4l0.5,3.2
	l0.8,2.3l0.1,2.5L201,150.6z"/>
<path style="fill:#47B73B;" d="M209.3,261l3.7-1l5.3-1.4l1.8,0.2l-0.2,0.8l0.3,0.7l0.6,0.6l0.7,0.3l0.5,1.1l-0.3,1.8l2.4,0.7
	l2.6-0.6l0.9-1.4l1.1,0.3l-0.1,1.1l1,0.5l0.1,1.8l0.8,2.7l-0.4,2.3l-1.1,1.7l-1.2,4.3l-2.1,1.7l-1.2,0.4l-3.5,2.6l-4,1l-1.7-5.4
	l-0.4-7.2l-1.5-2.8L209.3,261z"/>
<path style="fill:#FF981D;" d="M211.6,241.9l-1.6,3.4l0.2,1.7l-1,2.9l-0.4,3.1l6-1.2l6.2,0.4l-0.1,1.1l-0.4,0.9l-0.2,0.8l0.3,0.6
	l0.1,0.5l0.1,0.5l-0.2,1l-0.3,1l-1.8-0.2L213,260l-3.7,1l-5.5,1.5l-7.4-1.4l0.7-2.1l1.2-1.2l-0.3-15.2l1.9-5.2L211.6,241.9z"/>
<path style="fill:#A148FF;" d="M240.7,193.1l8.5-2.3l8.6-1.2l-0.7,4.9l2.5-0.6l2.5,0.2l0.7,0.4l0.7,0.3l0.6-0.5l0.5-0.7l1.6-1.1
	l-0.4-4.9l1.5-1.9l4.1-1.4l3.1,3.2v2.2l1,1.4l2.7-0.6l2.7-1.5l1.6-1.2l1.9,0.4l1.6-0.8l1.9-1.4l4.5,1.6l4.6,0.7l1.5,0.4l-0.9,2.1
	l-2.3,1.7l-1.4,2.1l0.9,1l1.1,0.6h0.7l0.7-0.3l2.5-0.8l3.9-0.4l0.8,0.9l-0.1,1.4l1.6,1.7l0.6,1.3l1.5-0.1l1.7-0.3l1.9-0.6h1.9
	l1.9,1.5l2.1,1.4l2.1,0.4l2.1,0.2l1.6,0.7l1.6,1l-1,1.1l-1.1,0.6l-1-0.4l-0.8,0.5l-1.9,2l-2.1,1.7l-1.3,1.3l-1.7,0.5l-1,0.8
	l-0.7,1.3l-2.5,1.8l-1.8,2.5l-0.8,1.9l-1,1.9l0.6,1l1.1,1l-1.2,3.9l-6.8,2.8l-2.9-0.9l-1.2-2.4l-1.9-1.6l-1.3-1l-1.1-1.2l-1.1,1
	l-0.8,1.3l-0.4,1.6l-0.6,1.7l-2.3-0.2l-2.5-0.9l-1.3-0.8l-1.4,0.9l-1.3,1.8l-1.6,0.1l-1.3-0.9l-1,1.7l-1,2.2l-0.5,2.1l1.5,2l1.2,2.3
	l-5.7-0.9l-3.1-1.3l-1.8,2.6l-2.8,1.3l-2.5,1.7l-0.2,1.2l0.1,0.9l-0.5,1l-1.8,2.4l-1.2,1.2l-1.2,0.2l-1.2,0.6l0.9,2.3l3.2,0.5l4,5.7
	l-1.5,1.4l-0.8,2.3l-0.3,5.5l-0.5,2.4l0.5,1.7l0.9,1.6l-1.2,2.3l-1.8,1.5l0.5,4.7l3.3-0.8l2,0.6l2.3,1.9l1.6,0.7l4.1-1l1.8,1.3
	l0.9,5.2l-1.7-0.1l-1.9-0.4l-2,1.7l0.5,2.7v1.4l-0.2,1.6l-0.8,0.9l-0.6,1.1l-0.7,2.6l-1.3,2.4l-2,0.7l-2,1l-1,1.1l-1,0.9l-1.2-0.6
	l-1.2-1.1l-3,1.3l-2.6,1.6l-1.3-0.4l-0.8-0.9l-3.6-1.2l-1.2-1.4l-1.4-0.8l-0.5,0.7l-0.7,0.2l-0.8-0.7l-0.7-0.8l-1.8-2.8l-1.6-2.9
	l-0.7-3.4l0.1-3.4l-0.8-3l-2.5-1.5l-2.4-0.8l-2.6,0.5l-0.2-2.8l0.1-2.8l1-3.9l1.8-3.3l0.7-1.7l0.8-1.5l1.3-1l0.3-1.7l-1-0.3
	l-1.1-0.5l-1.4,1l-1.1,1.4l-0.8-2.7l-0.1-1.8l-1-0.5l0.1-1.1l-1.1-0.3l-0.9,1.4l-2.6,0.6l-2.4-0.7l0.3-1.8l-0.5-1.1l-0.7-0.3
	l-0.6-0.6l-0.3-0.7l0.2-0.8l0.3-1l0.2-1l-0.1-0.5l-0.1-0.5L220,255l0.2-0.8l0.4-0.9l0.1-1.1l-6.2-0.4l-6,1.2l0.4-3.1l1-2.9l-0.2-1.7
	l1.6-3.4l2.2-3.2l1.7-3l0.7-0.7l0.8,0.1l0.8-0.2l0.4-0.8l0.1-0.9l0.3-1.1l0.4-1.1l0.2-1.1l-0.2-1.1l-0.5-1l-0.7-0.6l0.1-2.1
	l-1.1-0.7l-1.4-2.8L214,221l-1-1l-0.6-1.5l3.6-1.1l3.4-1.6l2.7-0.9l0.7-3l1.3-1.4l2.1-0.9l1-1.3l0.7-1.7l1.3-1.3l1.6,0.3l0.5,0.6
	l2-1.4l3.9-7.2l0.4-0.9l0.5-0.8l0.6-0.5l0.7-0.5l0.7-1L240.7,193.1z"/>
<path style="fill:#47B73B;" d="M190.4,381.9l1.6,4.5l-3.2,4.2l-5-0.8l-4.4-2.6l-2.2-4.8l1.7-1.6l2.9,0.8l2.1-0.5l2.2-0.7
	L190.4,381.9z"/>
<path style="fill:#88E9FF;" d="M332.5,321.6l-0.6-0.2l-0.8,0.1v0.7L331,323l-0.8,2v0.6l-0.2,0.9l-1.8,1.1l-4.7-1.2l-2.6-0.3
	l-1.2,0.9l-1.2,2l-0.6,0.5l-0.7-0.6l-1-0.6l-1.4-1.2l-1-1.9l-1.2-1.2l-1.3-0.5l-0.5-1.8l1.1-1.6h1.2l1.3-0.2l0.3-0.9l0.2-1l-0.7-0.3
	l-0.8-0.1l0.9-2l1.4-1.5l-0.5-4.5l3.8-3.1l5.1-0.7l4.3-0.3l3.2,2.4l1,1.8v0.8l-0.4,0.7v2.5l0.7,1l0.9,0.7l0.2,1.6v1.7l-0.4,1.6
	L332.5,321.6z"/>
</svg>
