<?xml version="1.0" encoding="utf-8"?>
<!-- Generator: Adobe Illustrator 23.0.6, SVG Export Plug-In . SVG Version: 6.00 Build 0)  -->
<svg version="1.1" id="Layer_1" xmlns="http://www.w3.org/2000/svg" xmlns:xlink="http://www.w3.org/1999/xlink" x="0px" y="0px"
	 viewBox="0 0 188 120" style="enable-background:new 0 0 188 120;" xml:space="preserve">
<style type="text/css">
	.st0{fill:#FFFFFF;}
	.st1{fill:#4F80FF;}
</style>
<g>
	<path class="st0" d="M60,0h68c33.1,0,60,26.9,60,60s-26.9,60-60,60H60C26.9,120,0,93.1,0,60S26.9,0,60,0z"/>
	<path class="st1" d="M60,0h68c33.1,0,60,26.9,60,60s-26.9,60-60,60H60C26.9,120,0,93.1,0,60S26.9,0,60,0z M60,4C29.1,4,4,29.1,4,60
		s25.1,56,56,56h68c30.9,0,56-25.1,56-56S158.9,4,128,4H60z"/>
	<path class="st1" d="M128.6,10c27.3,0,49.5,22.2,49.5,49.5v1.1c0,27.3-22.2,49.5-49.5,49.5S79.1,87.8,79.1,60.5v-1.1
		C79.1,32.2,101.2,10,128.6,10z"/>
</g>
</svg>
