<?xml version="1.0" encoding="utf-8"?>
<!-- Generator: Adobe Illustrator 26.5.0, SVG Export Plug-In . SVG Version: 6.00 Build 0)  -->
<svg version="1.1" id="레이어_1" xmlns="http://www.w3.org/2000/svg" xmlns:xlink="http://www.w3.org/1999/xlink" x="0px"
	 y="0px" viewBox="0 0 138 252" style="enable-background:new 0 0 138 252;" xml:space="preserve">
<g>
	<g>
		<g>
			<path style="fill:#F4BA76;" d="M101.1,187.1c0.6,5.8,1.1,12-1.7,17.1c-1.3,2.3-3.1,4.1-4.6,6.3c-4.5,6.8-4.3,15.4-4,23.5
				c3.9-0.4,7.7,0.8,10.6,3.4c3.4,3,4,9.5-0.3,12.3c-4.1,2.6-13.8,0.7-18.7,0.7c-6,0-7.8-5.7-8.1-10.5c-0.4-7.9,0.4-16.5,1.9-24.2
				c0.3-1.5,0.6-3,1.1-4.4c0.8-2.1,2-4,3.1-5.9c2.6-4.1-0.2-9.7-0.7-14.5c-0.3-2.5-0.5-5.3,1.2-7.1c1.2-1.2,2.9-1.6,4.6-1.8
				c4.3-0.5,8.6,0,12.6,1.5c0.9,0.3,1.9,0.8,2.6,1.5C101.5,185.6,101,186.1,101.1,187.1z"/>
			<path d="M94,252c-2.3,0-4.7-0.2-6.9-0.4c-1.8-0.1-3.5-0.3-4.7-0.3c-5.3,0-8.7-4.3-9-11.4c-0.4-9.2,0.8-18.4,1.9-24.4
				c0.3-1.5,0.6-3,1.1-4.6c0.8-2.2,2-4.2,3.2-6.1c1.6-2.6,0.8-6.1,0-9.4c-0.3-1.5-0.7-3-0.8-4.4c-0.3-2.4-0.6-5.7,1.5-7.8
				c1.4-1.5,3.5-1.9,5.2-2.1c4.4-0.5,8.9,0,13.1,1.6c1,0.4,2.1,0.9,2.9,1.7c0.8,0.8,0.7,1.5,0.6,2.1c0,0.2-0.1,0.4,0,0.7l0,0
				c0.7,6.6,1,12.5-1.8,17.7c-0.8,1.4-1.7,2.6-2.7,3.8c-0.7,0.8-1.3,1.7-1.9,2.6c-4,6-4.2,13.5-3.9,21.9c3.8-0.1,7.4,1.2,10.3,3.7
				c2.1,1.8,3.3,4.9,3,7.8c-0.2,2.5-1.4,4.7-3.4,5.9C99.8,251.7,97,252,94,252z M88.7,182.7c-1,0-2,0.1-3.1,0.2
				c-1.3,0.2-3,0.5-4,1.5c-1.4,1.4-1.3,3.7-1,6.3c0.1,1.3,0.5,2.7,0.8,4.2c0.9,3.8,1.7,7.6-0.3,10.8c-1.1,1.8-2.3,3.7-3.1,5.7
				c-0.5,1.4-0.8,2.9-1,4.3c-1.1,6-2.3,15-1.8,24c0.1,2.9,1.1,9.6,7.1,9.6c1.4,0,3.1,0.1,4.9,0.3c4.7,0.4,10.6,0.9,13.3-0.8
				c1.5-1,2.4-2.5,2.6-4.5c0.2-2.3-0.8-4.8-2.4-6.3c-2.8-2.5-6.3-3.6-9.9-3.2c-0.3,0-0.5-0.1-0.7-0.2c-0.2-0.2-0.3-0.4-0.3-0.7
				c-0.3-9.2-0.3-17.3,4.2-24c0.6-0.9,1.3-1.8,2-2.7c0.9-1.2,1.8-2.3,2.5-3.5c2.6-4.6,2.3-10.2,1.6-16.5l0,0c0-0.4,0-0.8,0-1.1
				c0-0.4,0-0.4-0.1-0.5c-0.6-0.6-1.4-0.9-2.2-1.3C95,183.3,91.9,182.7,88.7,182.7z"/>
		</g>
		<path d="M98.3,251.1C98.3,251.1,98.3,251.1,98.3,251.1c-0.6,0-1-0.5-1-1c0.2-7.1-2.3-9.5-2.3-9.5c-0.4-0.4-0.4-1,0-1.3
			c0.4-0.4,1-0.4,1.4-0.1c0.1,0.1,3.2,2.9,2.9,11C99.2,250.7,98.8,251.1,98.3,251.1z"/>
		<path d="M88.2,251.7c-0.1,0-0.2,0-0.3,0c-0.5-0.1-0.8-0.7-0.7-1.2c1.4-5-1.4-10.1-1.4-10.1c-0.3-0.5-0.1-1,0.4-1.3
			c0.5-0.3,1.1-0.1,1.3,0.4c0.1,0.2,3.2,5.8,1.6,11.6C89,251.4,88.6,251.7,88.2,251.7z"/>
	</g>
	<g>
		<g>
			<path style="fill:#F4BA76;" d="M36.9,187.1c-0.6,5.8-1.1,12,1.7,17.1c1.3,2.3,3.1,4.1,4.6,6.3c4.5,6.8,4.3,15.4,4,23.5
				c-3.9-0.4-7.7,0.8-10.6,3.4c-3.4,3-4,9.5,0.3,12.3c4.1,2.6,13.8,0.7,18.7,0.7c6,0,7.8-5.7,8.1-10.5c0.4-7.9-0.4-16.5-1.9-24.2
				c-0.3-1.5-0.6-3-1.1-4.4c-0.8-2.1-2-4-3.1-5.9c-2.6-4.1,0.2-9.7,0.7-14.5c0.3-2.5,0.5-5.3-1.2-7.1c-1.2-1.2-2.9-1.6-4.6-1.8
				c-4.3-0.5-8.6,0-12.6,1.5c-0.9,0.3-1.9,0.8-2.6,1.5C36.5,185.6,37,186.1,36.9,187.1z"/>
			<path d="M44,252c-3,0-5.8-0.3-7.6-1.5c-2-1.3-3.2-3.4-3.4-5.9c-0.2-2.9,1-6,3-7.8c2.9-2.6,6.6-3.9,10.3-3.7
				c0.3-8.4,0.1-15.9-3.9-21.9c-0.6-0.9-1.3-1.7-1.9-2.6c-0.9-1.2-1.9-2.4-2.7-3.8c-3.1-5.5-2.4-12.3-1.8-17.7c0-0.2,0-0.4,0-0.7
				c-0.1-0.5-0.1-1.3,0.6-2.1c0.8-0.8,1.9-1.3,2.9-1.7c4.2-1.5,8.7-2.1,13.1-1.6c1.7,0.2,3.8,0.6,5.2,2.1c2.1,2.2,1.7,5.4,1.5,7.8
				c-0.2,1.4-0.5,3-0.8,4.4c-0.8,3.4-1.6,6.9,0,9.4c1.2,1.9,2.4,3.9,3.2,6.1c0.5,1.5,0.8,3.1,1.1,4.6c1.1,6.1,2.3,15.2,1.9,24.4
				c-0.3,7.1-3.7,11.4-9,11.4c-1.3,0-3,0.1-4.7,0.3C48.7,251.8,46.3,252,44,252z M45.7,234.8c-3.1,0-6,1.1-8.5,3.3
				c-1.6,1.5-2.6,3.9-2.4,6.3c0.2,1.9,1.1,3.5,2.6,4.5c2.7,1.7,8.6,1.2,13.3,0.8c1.8-0.1,3.5-0.3,4.9-0.3c5.8,0,6.9-6,7.1-9.6
				c0.4-9-0.8-18-1.8-24c-0.3-1.4-0.5-2.9-1-4.3c-0.7-2-1.9-3.9-3.1-5.7c-2-3.2-1.1-7.1-0.3-10.8c0.3-1.5,0.7-2.9,0.8-4.2
				c0.3-2.6,0.4-4.9-1-6.3c-1-1.1-2.7-1.4-4-1.5c-4.1-0.5-8.3,0-12.2,1.4c-0.8,0.3-1.7,0.7-2.2,1.3c-0.1,0.1-0.1,0.1-0.1,0.5
				c0,0.3,0.1,0.6,0,1.1l0,0c-0.7,6.3-1,11.9,1.6,16.5c0.7,1.2,1.6,2.4,2.5,3.5c0.7,0.9,1.4,1.8,2,2.7c4.5,6.7,4.5,14.9,4.2,24
				c0,0.3-0.1,0.5-0.3,0.7c-0.2,0.2-0.5,0.3-0.7,0.2C46.7,234.9,46.2,234.8,45.7,234.8z M36.9,187.1L36.9,187.1L36.9,187.1z"/>
		</g>
		<path d="M39.8,251.1c-0.5,0-1-0.4-1-0.9c-0.3-8.1,2.8-10.9,2.9-11c0.4-0.4,1-0.3,1.4,0.1c0.4,0.4,0.3,1-0.1,1.3
			c-0.1,0.1-2.5,2.5-2.3,9.5C40.8,250.7,40.4,251.1,39.8,251.1C39.8,251.1,39.8,251.1,39.8,251.1z"/>
		<path d="M49.9,251.7c-0.4,0-0.8-0.3-0.9-0.7c-1.7-5.7,1.4-11.3,1.6-11.6c0.3-0.5,0.8-0.6,1.3-0.4c0.5,0.3,0.6,0.8,0.4,1.3
			c0,0.1-2.8,5.2-1.4,10.1c0.1,0.5-0.2,1-0.7,1.2C50,251.7,50,251.7,49.9,251.7z"/>
	</g>
	<g>
		<path style="fill:#FFE37D;" d="M106.9,167l-38.9-3l-38.9,3c0,0-5.7,33.1-0.9,49.4c0,0,24.5,4.1,39.7,4.1s39.7-4.1,39.7-4.1
			C112.6,200,106.9,167,106.9,167z"/>
		<path d="M68,221.4c-15.1,0-39.6-4-39.9-4.1c-0.4-0.1-0.7-0.3-0.8-0.7c-4.9-16.4,0.6-48.5,0.9-49.9c0.1-0.4,0.4-0.8,0.9-0.8l38.8-3
			l39,3c0.4,0,0.8,0.4,0.9,0.8c0.2,1.4,5.7,33.5,0.9,49.9c-0.1,0.3-0.4,0.6-0.8,0.7C107.7,217.4,83.1,221.4,68,221.4z M29.1,215.6
			c3.9,0.6,25.3,4,39,4s35.1-3.3,39-4c4.1-14.8-0.2-42.8-0.9-47.7l-38.1-3l-37.9,3C29.2,172.7,25,200.8,29.1,215.6z"/>
	</g>
	<g>
		<g>
			<g>
				<path style="fill:#F4BA76;" d="M108.4,121.3c0,0,20.6,32.2,14.9,49.4s-10.5,17.9-14.3,16c-3.4-1.7-4.8-5.7-5.3-9.2
					c-0.6-3.7,1.2-7.3,3-10.6c0.9-1.6,2.4-3.1,2.8-4.8c0.2-0.7,0.2-1.5,0.1-2.3c-0.6-7.4-4.1-14.7-6.8-21.5
					c-1.9-4.8-3.8-9.6-5.7-14.4L108.4,121.3z"/>
				<path d="M111.7,188.4c-1,0-2.1-0.3-3.2-0.8c-3-1.5-5.1-4.9-5.8-9.9c-0.6-3.9,1.1-7.5,3.1-11.2c0.3-0.6,0.8-1.2,1.2-1.8
					c0.7-1,1.3-1.9,1.5-2.8c0.1-0.6,0.2-1.2,0.1-2c-0.4-6-2.9-11.9-5.3-17.7c-0.5-1.2-1-2.4-1.5-3.6c-1.9-4.8-3.8-9.6-5.7-14.4
					c-0.1-0.3-0.1-0.5,0-0.8c0.1-0.2,0.4-0.4,0.6-0.5l11.2-2.6c0.4-0.1,0.8,0.1,1,0.4c0.9,1.3,20.8,32.8,15,50.2
					c-3.3,10.1-6.6,15.4-10.3,16.9C113.2,188.2,112.5,188.4,111.7,188.4z M98.5,124.6c1.7,4.5,3.5,8.9,5.3,13.4
					c0.5,1.2,1,2.4,1.5,3.6c2.4,5.9,4.9,11.9,5.4,18.2c0.1,1,0,1.8-0.1,2.5c-0.3,1.3-1.1,2.4-1.9,3.5c-0.4,0.5-0.8,1.1-1,1.6
					c-1.9,3.5-3.4,6.6-2.9,10c0.5,3,1.7,7,4.8,8.5c1.4,0.7,2.6,0.8,3.8,0.3c3-1.2,6.1-6.6,9.2-15.8c5.1-15.4-11.7-43.7-14.4-48
					L98.5,124.6z"/>
			</g>
			<g>
				<g>
					<path style="fill:#FFE37D;" d="M91.5,109.7c0.5,3.8,2.5,7.1,4.1,10.6c6.4,13.6,8.1,28.6,8.8,43.4c0,0.4,19.9-2.4,21.6-2.8
						c-0.3,0.1-5.4-28.5-6-30.3c-2.5-7.4-5.7-14.9-9-22.1c-1.5-3.4-3.3-7-6.6-8.7C97.5,96,90.6,102.8,91.5,109.7z"/>
					<path d="M104.8,164.6c-0.5,0-0.8,0-0.9-0.1c-0.2-0.2-0.4-0.4-0.4-0.7c-0.6-13.3-2-28.9-8.7-43c-0.3-0.7-0.7-1.4-1-2.1
						c-1.4-2.8-2.8-5.6-3.2-8.8l0,0c-0.5-4,1.3-8.2,4.7-10.4c3-2,6.5-2.2,9.7-0.5c3.6,1.9,5.4,5.6,7,9.2c3,6.7,6.3,14.4,9,22.2
						c0.3,0.9,1.5,7,3.2,16.2c1.2,6.1,2.5,13,2.7,14c0,0.1,0.1,0.1,0.1,0.2c0.1,0.5-0.2,1-0.7,1.1c0,0-0.1,0-0.1,0
						C124.7,162,108.9,164.6,104.8,164.6z M92.5,109.6c0.4,2.9,1.7,5.5,3,8.2c0.3,0.7,0.7,1.4,1,2.1c6.6,14.1,8.2,29.5,8.8,42.8
						c3.3-0.3,15.7-2,19.5-2.6c-0.4-1.7-1.1-5.2-2.6-13.3c-1.3-6.7-2.9-15.1-3.2-16c-2.6-7.7-6-15.4-8.9-22
						c-1.5-3.3-3.2-6.7-6.2-8.3c-3.5-1.8-6.3-0.6-7.7,0.4C93.6,102.8,92,106.3,92.5,109.6L92.5,109.6z"/>
				</g>
			</g>
			<path d="M106.4,178.1c-0.3,0-0.5,0-0.8-0.1c-1-0.2-1.7-0.8-2.1-1.6c-1-2,0.1-5,1.4-7.9l0.2-0.4c0.2-0.5,0.8-0.7,1.3-0.5
				c0.5,0.2,0.7,0.8,0.5,1.2l-0.2,0.4c-0.7,1.6-2.2,4.9-1.4,6.3c0.1,0.2,0.3,0.4,0.8,0.6c1.6,0.4,3.2-2.1,4.1-4.6
				c0.2-0.5,0.7-0.7,1.2-0.6s0.8,0.7,0.6,1.2C110.5,176,108.5,178.1,106.4,178.1z"/>
		</g>
		<g>
			<g>
				<path style="fill:#F4BA76;" d="M25.9,120.6c0,0-20.7,32.1-15,49.4s10.4,17.9,14.3,16c3.4-1.7,4.8-5.7,5.3-9.2
					c0.6-3.7-1.2-7.3-3-10.6c-0.9-1.6-2.4-3.1-2.8-4.8c-0.2-0.7-0.2-1.5-0.1-2.3c0.6-7.4,4.1-14.7,6.8-21.5
					c1.9-4.8,3.8-9.6,5.7-14.4L25.9,120.6z"/>
				<path d="M25.6,186.9C25.6,186.9,25.6,186.9,25.6,186.9c-2,1-3.7,1.1-5.4,0.4c-3.7-1.5-6.9-6.9-10.2-17
					c-5.8-17.5,14.2-48.9,15.1-50.2c0.2-0.3,0.6-0.5,1-0.4l11.2,2.6c0.3,0.1,0.5,0.2,0.6,0.5c0.1,0.2,0.1,0.5,0,0.8
					c-1.9,4.8-3.8,9.6-5.7,14.4c-0.5,1.2-1,2.4-1.5,3.6c-2.4,5.7-4.8,11.7-5.3,17.6c-0.1,0.8,0,1.4,0.1,2c0.2,0.9,0.9,1.9,1.5,2.8
					c0.4,0.6,0.8,1.2,1.2,1.8c2,3.7,3.7,7.3,3.1,11.2C30.6,182,28.6,185.4,25.6,186.9z M26.3,121.7c-2.7,4.4-19.6,32.6-14.5,48
					c3.1,9.2,6.1,14.5,9.1,15.8c1.2,0.5,2.3,0.4,3.8-0.3c0,0,0,0,0,0c3.1-1.5,4.3-5.4,4.8-8.5c0.5-3.3-1-6.5-2.9-10
					c-0.3-0.5-0.7-1-1-1.6c-0.8-1.1-1.6-2.2-1.8-3.5c-0.2-0.7-0.2-1.5-0.1-2.5c0.5-6.3,3-12.4,5.4-18.2c0.5-1.2,1-2.4,1.5-3.6
					c1.8-4.5,3.5-8.9,5.3-13.4L26.3,121.7z"/>
			</g>
			<g>
				<g>
					<path style="fill:#FFE37D;" d="M42.8,109c-0.5,3.8-2.5,7.1-4.2,10.6c-6.4,13.6-8.2,28.6-8.9,43.4c0,0.4-19.9-2.5-21.6-2.9
						c0.3,0.1,5.5-28.5,6.1-30.3c2.6-7.4,5.8-14.9,9-22.1c1.5-3.4,3.3-7,6.6-8.7C36.8,95.4,43.7,102.1,42.8,109z"/>
					<path d="M30.2,163.8c-1.4,0.7-20.6-2.4-22.3-2.7c0,0-0.1,0-0.1,0c-0.5-0.1-0.8-0.6-0.7-1.2c0-0.1,0-0.1,0.1-0.2
						c0.3-0.9,1.6-7.9,2.8-14c1.8-9.2,2.9-15.3,3.3-16.2c2.7-7.7,6.1-15.5,9-22.1c1.6-3.6,3.5-7.3,7-9.1c3.2-1.7,6.7-1.5,9.7,0.5
						c3.3,2.3,5.2,6.5,4.7,10.5l0,0c-0.4,3.2-1.9,6-3.2,8.8c-0.3,0.7-0.7,1.4-1,2.1c-6.7,14.1-8.2,29.7-8.8,43
						C30.7,163.3,30.5,163.6,30.2,163.8C30.3,163.8,30.3,163.8,30.2,163.8z M9.3,159.4c3.8,0.7,16.2,2.4,19.5,2.7
						c0.6-13.3,2.2-28.7,8.9-42.8c0.3-0.7,0.7-1.4,1-2.1c1.4-2.8,2.7-5.4,3.1-8.2c0.5-3.3-1.1-6.8-3.9-8.6c-1.4-0.9-4.2-2.2-7.7-0.4
						c-3,1.6-4.7,4.9-6.2,8.2c-3,6.6-6.3,14.3-9,22c-0.3,0.9-1.9,9.2-3.2,16C10.4,154.1,9.7,157.7,9.3,159.4z M42.8,109L42.8,109
						L42.8,109z"/>
				</g>
			</g>
			<path d="M29.3,177c-0.2,0.1-0.5,0.2-0.8,0.3c-2.4,0.6-4.8-1.5-6.4-5.8c-0.2-0.5,0.1-1.1,0.6-1.2c0.5-0.2,1.1,0.1,1.2,0.6
				c0.9,2.5,2.5,5,4.1,4.6c0.5-0.1,0.7-0.4,0.8-0.6c0.7-1.4-0.7-4.7-1.4-6.3l-0.2-0.4c-0.2-0.5,0.1-1.1,0.5-1.2
				c0.5-0.2,1.1,0,1.3,0.5l0.2,0.4c1.3,2.9,2.4,5.9,1.4,7.9C30.4,176.3,29.9,176.8,29.3,177z"/>
		</g>
		<g>
			<path style="fill:#FFE37D;" d="M37.2,100.3c0,0-10.8,12.6-7.9,37.4s-0.2,29.1-0.2,29.1s26.4,6.8,31.3,7.7
				c4.8,0.9,7.6-2.6,7.6-2.6s2.8,3.5,7.6,2.6c4.8-0.9,28-4.6,28-4.6s0.2-7.4,3.1-32.2c2.9-24.8-7.9-37.4-7.9-37.4"/>
			<path d="M62,175.6c-0.6,0-1.1-0.1-1.8-0.2c-4.8-0.9-30.3-7.5-31.3-7.8c-0.3-0.1-0.6-0.3-0.7-0.6c-0.1-0.3-0.1-0.6,0.1-0.9
				c0.1-0.2,2.7-4.7,0-28.4c-2.9-24.9,7.7-37.6,8.1-38.1c0.3-0.4,1-0.5,1.4-0.1c0.4,0.3,0.5,0.9,0.1,1.3
				c-0.1,0.1-10.5,12.6-7.7,36.7c2.2,18.9,1,26,0.2,28.5c5,1.3,25.9,6.7,30.1,7.5c4.2,0.8,6.6-2.3,6.6-2.3c0.2-0.2,0.5-0.4,0.8-0.4
				l0,0c0.3,0,0.6,0.1,0.8,0.4c0.1,0.1,2.5,3.1,6.6,2.3c4.3-0.8,23.2-3.8,27.3-4.5c0.1-2.5,0.7-11,3-31.5
				c2.8-24.1-7.6-36.6-7.7-36.7c-0.3-0.4-0.3-1,0.1-1.3c0.4-0.3,1-0.3,1.4,0.1c0.5,0.5,11,13.2,8.1,38.1
				c-2.8,24.5-3.1,32.1-3.1,32.1c0,0.5-0.4,0.8-0.8,0.9c-0.2,0-23.3,3.7-28,4.6c-3.9,0.7-6.5-1.1-7.8-2.2
				C67,174.2,64.9,175.6,62,175.6z"/>
		</g>
		<path d="M75.6,150.2c-0.4,0-0.7-0.2-0.9-0.5c-0.2-0.5,0-1,0.5-1.3c7.6-3.5,16.5-14.7,18.3-17l-4-9.6c-0.2-0.4,0-0.9,0.4-1.2l6-3.9
			c-0.5-5.7-2.4-16.3-2.4-16.4c-0.1-0.5,0.3-1,0.8-1.1c0.5-0.1,1,0.2,1.1,0.8c0.1,0.5,2.1,11.5,2.5,17.1c0,0.3-0.1,0.7-0.4,0.9
			l-5.8,3.8l3.9,9.4c0.1,0.3,0.1,0.7-0.1,0.9c-0.4,0.6-10.4,13.9-19.3,18.1C75.9,150.1,75.7,150.2,75.6,150.2z"/>
		<path d="M61,150.2c-0.1,0-0.3,0-0.4-0.1c-8.9-4.1-18.9-17.5-19.3-18.1c-0.2-0.3-0.2-0.6-0.1-0.9l3.9-9.4l-5.8-3.8
			c-0.3-0.2-0.5-0.5-0.4-0.9c0.4-5.6,2.4-16.7,2.5-17.1c0.1-0.5,0.6-0.9,1.1-0.8c0.5,0.1,0.9,0.6,0.8,1.1c0,0.1-2,10.7-2.4,16.4
			l6,3.9c0.4,0.2,0.5,0.7,0.4,1.2l-4,9.6c1.8,2.3,10.6,13.5,18.3,17c0.5,0.2,0.7,0.8,0.5,1.3C61.7,150,61.3,150.2,61,150.2z"/>
		<g>
			<g>
				<path style="fill:#FFFFFF;" d="M47.4,102.7c0,0,8.4,32.1,20.9,43.2c12.5-11.1,20.9-43.2,20.9-43.2"/>
				<path d="M68.3,146.9c-0.2,0-0.5-0.1-0.6-0.2c-12.6-11.1-20.8-42.3-21.2-43.7c-0.1-0.5,0.2-1,0.7-1.2c0.5-0.1,1,0.2,1.2,0.7
					c0.1,0.3,8.2,30.8,20,42.1c11.8-11.3,19.9-41.8,20-42.1c0.1-0.5,0.6-0.8,1.2-0.7c0.5,0.1,0.8,0.6,0.7,1.2
					c-0.3,1.3-8.6,32.5-21.2,43.7C68.8,146.8,68.5,146.9,68.3,146.9z"/>
			</g>
			<g>
				<path style="fill:#FFFFFF;" d="M85.4,114.9c0,0-7.4,7.8-12.5,7l-4.9-7"/>
				<path d="M73.6,122.9c-0.3,0-0.6,0-0.9-0.1c-0.3,0-0.5-0.2-0.7-0.4l-4.9-7c-0.3-0.4-0.2-1,0.3-1.3c0.4-0.3,1-0.2,1.3,0.3l4.6,6.7
					c3.7,0.1,9.4-4.8,11.3-6.8c0.4-0.4,1-0.4,1.4-0.1c0.4,0.4,0.4,1,0.1,1.3C85.8,115.8,79.1,122.9,73.6,122.9z"/>
			</g>
			<g>
				<path style="fill:#FFFFFF;" d="M50.6,114.9c0,0,7.4,7.8,12.5,7l4.9-7"/>
				<path d="M62.4,122.9c-5.5,0-12.2-7.1-12.5-7.4c-0.4-0.4-0.3-1,0.1-1.3c0.4-0.4,1-0.3,1.4,0c1.9,2,7.5,6.9,11.3,6.8l4.6-6.7
					c0.3-0.4,0.9-0.5,1.3-0.3c0.4,0.3,0.6,0.9,0.3,1.3l-4.9,7c-0.2,0.2-0.4,0.4-0.7,0.4C63,122.9,62.7,122.9,62.4,122.9z"/>
			</g>
		</g>
	</g>
	<g>
		<g>
			<g>
				<path style="fill:#F4BA76;" d="M109.6,25.4C98.5,12.7,83.8,5,69,5.9c-14.8-1-29.5,6.8-40.6,19.5C13.1,42.8,10.1,71,31.8,91.2
					c7.1,6.6,13.5,12.8,21.8,17.3c3.8,2.1,10.4,3,15.5,3.2c5.1-0.2,11.6-1.2,15.5-3.2c8.2-4.5,14.5-10.9,21.8-17.3
					C126.5,73.4,125,42.8,109.6,25.4z"/>
				<path d="M69.1,112.6c-3.3-0.2-11.2-0.8-16-3.4C45.2,105,39,99.2,32.4,93l-1.3-1.2c-22.6-21-18.8-49.6-3.5-67.1
					C39.6,11.3,54.6,4.1,69.1,5c14.3-0.9,29.4,6.3,41.3,19.8l0,0c7.8,8.8,12.1,21,11.9,33.4c-0.3,13.3-5.7,25.2-15.3,33.7
					c-1.5,1.3-2.9,2.6-4.3,3.9c-5.6,5.1-11,9.9-17.6,13.6C80.2,111.9,72.3,112.5,69.1,112.6z M66.7,6.8C53.5,6.8,40,13.7,29.1,26
					c-14.8,16.8-18.4,44.3,3.3,64.5l1.3,1.2c6.5,6.1,12.7,11.8,20.3,16c3,1.7,8.7,2.8,15,3.1c6.3-0.3,11.9-1.5,14.9-3.1
					c6.5-3.5,11.7-8.3,17.3-13.3c1.4-1.3,2.8-2.6,4.3-3.9c16.3-14.4,21.6-43.7,3.3-64.4l0,0C97.4,13,82.9,6,69.1,6.9
					C68.3,6.8,67.5,6.8,66.7,6.8z"/>
			</g>
			<path d="M78.9,80.4c0,5.3-4.4,9.6-9.8,9.6s-9.8-4.3-9.8-9.6s4.4-6.7,9.8-6.7S78.9,75.1,78.9,80.4z"/>
			<path d="M82.2,77.5c-0.2,0-0.4-0.1-0.6-0.2c-14.3-11.2-24.5-0.6-24.9-0.1c-0.4,0.4-1,0.4-1.4,0.1c-0.4-0.4-0.4-1-0.1-1.3
				c0.1-0.1,11.8-12.5,27.5-0.1c0.4,0.3,0.5,0.9,0.2,1.3C82.7,77.3,82.5,77.5,82.2,77.5z"/>
			<g>
				<g>
					<path style="fill:#F4BA76;" d="M41.9,16c0,0-6.2-7.8-39.6-15c0,0-8.6,25.6,17.9,41.6"/>
					<path d="M20.2,43.5c-0.2,0-0.3,0-0.5-0.1C5.7,34.9,1.4,23.8,0.4,15.9c-1.2-8.5,0.9-15,1-15.2C1.5,0.2,2-0.1,2.5,0
						c33.3,7.2,39.9,15,40.2,15.4c0.3,0.4,0.3,1-0.2,1.3c-0.4,0.3-1,0.3-1.4-0.2C41.1,16.5,34.5,9,3,2.1C1.8,6.6-2.5,27.8,20.7,41.8
						c0.5,0.3,0.6,0.9,0.3,1.3C20.8,43.4,20.5,43.5,20.2,43.5z"/>
				</g>
				<g>
					<path style="fill:#FA835D;" d="M28.3,25.2c0,0-11.9-4.3-23-16.3c0,0-2,19.2,15.7,28.4C21,37.4,23.3,30.1,28.3,25.2z"/>
					<path d="M21,38.3c-0.2,0-0.3,0-0.5-0.1C2.5,28.8,4.3,9.1,4.4,8.9c0-0.4,0.3-0.7,0.7-0.8c0.4-0.1,0.8,0,1,0.3
						c10.8,11.7,22.5,16,22.6,16c0.3,0.1,0.5,0.4,0.6,0.7c0.1,0.3,0,0.6-0.3,0.9c-4.8,4.6-7,11.7-7,11.7c-0.1,0.3-0.3,0.5-0.6,0.6
						C21.3,38.3,21.1,38.3,21,38.3z M6.2,11.3C6.4,16.4,8,28.9,20.5,36c0.8-2.1,2.8-6.7,6.1-10.4C23.4,24.2,14.8,20,6.2,11.3z"/>
				</g>
				<path d="M22.8,29.1c-2.7,0-6.5-0.7-8.8-3.8c-0.3-0.4-0.2-1,0.2-1.3c0.4-0.3,1-0.2,1.4,0.2c3.2,4.3,10.2,2.8,10.2,2.7
					c0.5-0.1,1,0.2,1.2,0.7c0.1,0.5-0.2,1-0.7,1.1C26.1,28.8,24.7,29.1,22.8,29.1z"/>
			</g>
			<g>
				<g>
					<path style="fill:#F4BA76;" d="M96.2,15.8c0,0,6.2-7.6,39.6-14.8c0,0,8.6,25.6-17.9,41.6"/>
					<path d="M117.9,43.5c-0.3,0-0.6-0.2-0.8-0.5c-0.3-0.4-0.1-1,0.3-1.3c23.2-14,18.9-35.2,17.7-39.7C103.5,9,97,16.3,96.9,16.4
						c-0.3,0.4-0.9,0.5-1.4,0.1c-0.4-0.3-0.5-0.9-0.1-1.3c0.3-0.3,6.8-7.9,40.1-15.1c0.5-0.1,1,0.2,1.1,0.6
						c0.1,0.3,8.5,26.5-18.3,42.7C118.2,43.5,118,43.5,117.9,43.5z"/>
				</g>
				<g>
					<path style="fill:#FA835D;" d="M109.8,25.2c0,0,11.9-4.3,23-16.3c0,0,2,19.2-15.7,28.4C117.1,37.4,114.8,30.1,109.8,25.2z"/>
					<path d="M117.1,38.3c-0.1,0-0.3,0-0.4-0.1c-0.3-0.1-0.5-0.3-0.6-0.6c0-0.1-2.3-7.1-7-11.7c-0.2-0.2-0.3-0.6-0.3-0.9
						c0.1-0.3,0.3-0.6,0.6-0.7c0.1,0,11.8-4.3,22.6-16c0.3-0.3,0.7-0.4,1-0.3c0.4,0.1,0.6,0.4,0.7,0.8c0,0.2,1.9,19.9-16.2,29.3
						C117.4,38.3,117.2,38.3,117.1,38.3z M111.4,25.6c3.4,3.7,5.4,8.3,6.1,10.4c12.5-7.1,14.1-19.6,14.2-24.7
						C123.3,20,114.7,24.2,111.4,25.6z"/>
				</g>
				<path d="M115.2,29.1c-1.9,0-3.3-0.3-3.4-0.3c-0.5-0.1-0.8-0.6-0.7-1.1c0.1-0.5,0.6-0.8,1.2-0.7c0.1,0,7,1.5,10.2-2.7
					c0.3-0.4,0.9-0.5,1.4-0.2c0.4,0.3,0.5,0.9,0.2,1.3C121.7,28.4,117.9,29.1,115.2,29.1z"/>
			</g>
			<path d="M77.2,61C77.2,61,77.2,61,77.2,61c-0.6,0-1-0.5-1-1c0-0.4,0.5-9.6,13-13.4c0.5-0.2,1.1,0.1,1.2,0.6
				c0.2,0.5-0.1,1-0.6,1.2c-11.2,3.4-11.6,11.3-11.7,11.6C78.1,60.6,77.7,61,77.2,61z"/>
			<path d="M60.9,61c-0.5,0-0.9-0.4-1-0.9l0,0c0-0.3-0.5-8.3-11.7-11.6c-0.5-0.2-0.8-0.7-0.6-1.2c0.2-0.5,0.7-0.8,1.2-0.6
				c12.6,3.8,13,13,13,13.4C61.9,60.6,61.4,61,60.9,61C60.9,61,60.9,61,60.9,61z"/>
			<g>
				<path d="M69,100.5c-4.4,0-8.7-1.1-12.6-3.2c-2-1.1-3.6-2.6-5-4.2c-1.4-1.4-2.7-2.9-4-4.5c-0.8-1-1.7-2.1-1.8-3.5
					c0-0.5,0.4-1,0.9-1c0.5,0,1,0.4,1,0.9c0.1,0.8,0.7,1.7,1.3,2.5c1.2,1.5,2.5,3,3.9,4.4c1.6,1.6,2.9,2.9,4.6,3.8
					c7.1,3.9,16.2,3.9,23.2,0c1.6-0.9,3-2.2,4.6-3.8c1.3-1.4,2.6-2.9,3.9-4.4c0.7-0.8,1.3-1.6,1.3-2.5c0-0.5,0.5-0.9,1-0.9
					c0.5,0,0.9,0.5,0.9,1c-0.1,1.4-0.9,2.5-1.8,3.5c-1.3,1.5-2.6,3-4,4.5c-1.5,1.5-3.1,3.1-5,4.2C77.8,99.4,73.4,100.5,69,100.5z"/>
			</g>
			<path style="fill:#FFDDB2;" d="M111.8,57.7c-0.9-0.9-1.8-1.7-2.6-2.2c-3.5-2-7.7-1.4-11.4-0.1c-2.4,0.8-4.5,2.5-5.5,4.8
				c-0.2,0.5-0.4,1.2-0.1,1.7c0.2,0.3,0.6,0.5,1,0.6c4.1,1.4,8.7,0.5,12.8,1.7c1.2,0.3,2.3,0.8,3.5,1s2.6,0,3.4-0.9
				C114.9,62.3,113.6,59.7,111.8,57.7z"/>
			<path style="fill:#FFDDB2;" d="M26.2,57.7c0.9-0.9,1.8-1.7,2.6-2.2c3.5-2,7.7-1.4,11.4-0.1c2.4,0.8,4.5,2.5,5.5,4.8
				c0.2,0.5,0.4,1.2,0.1,1.7c-0.2,0.3-0.6,0.5-1,0.6c-4.1,1.4-8.7,0.5-12.8,1.7c-1.2,0.3-2.3,0.8-3.5,1c-1.2,0.2-2.6,0-3.4-0.9
				C23.1,62.3,24.5,59.7,26.2,57.7z"/>
			<path d="M54.7,67.4c-0.3,0-0.6-0.1-0.8-0.4c-0.1-0.1-5.3-6.9-26.2-4.4c-0.5,0.1-1-0.3-1.1-0.8c-0.1-0.5,0.3-1,0.8-1.1
				c22.3-2.7,27.8,4.9,28,5.3c0.3,0.4,0.2,1-0.3,1.3C55.1,67.4,54.9,67.4,54.7,67.4z"/>
			<path d="M83.4,67.4c-0.2,0-0.4-0.1-0.5-0.2c-0.4-0.3-0.6-0.9-0.3-1.3c0.2-0.3,5.7-7.9,28-5.3c0.5,0.1,0.9,0.5,0.8,1.1
				c-0.1,0.5-0.6,0.9-1.1,0.8c-21-2.5-26.1,4.4-26.2,4.4C84,67.3,83.7,67.4,83.4,67.4z"/>
		</g>
		<g>
			<path style="fill:#302210;" d="M36.5,22.6c-1.4,3.5-2.6,7.2-1.6,10.8c1,3.6,5,6.7,9,5.8c4.1-1,6.9-5.8,11.1-5.1
				c2.3,0.4,3.8,2.3,5.6,3.7c4.1,3,11.8,1.9,13-2.8c3.2,3.5,8.7,4.6,13.7,5.1c4.1,0.3,8.5,0.3,11.7-2c4.6-3.2,4.7-9.4,3-14.4
				C99.1,15.1,91.9,7.7,82.7,4.2C73.2,0.5,63,1.6,53.2,3.7C44,5.7,39.4,15.3,36.5,22.6z"/>
			<path d="M90.6,41.1c-1.2,0-2.3-0.1-3.4-0.2c-4-0.3-9.6-1.2-13.3-4.4c-0.8,1.4-2.2,2.5-4.1,3.1c-3.3,1.1-7.2,0.6-9.8-1.3
				c-0.5-0.4-1.1-0.8-1.6-1.3c-1.2-1-2.3-2-3.7-2.2c-2-0.3-3.7,0.9-5.6,2.3c-1.6,1.1-3.2,2.3-5.1,2.8c-4.6,1.1-9-2.5-10.1-6.5
				c-1.1-3.9,0.3-7.9,1.7-11.4l0,0c3.2-8,8-17.4,17.4-19.5c9.2-2,19.9-3.5,30,0.5C92.5,7,100,14.5,103,23.3
				c1.7,5.1,1.8,11.9-3.3,15.5C97,40.6,93.7,41.1,90.6,41.1z M73.6,34c0.3,0,0.5,0.1,0.7,0.3c3.3,3.6,9,4.4,13.1,4.8
				c3.5,0.3,8,0.4,11.1-1.8c4.3-3,4.2-8.8,2.6-13.3c-2.8-8.3-9.9-15.4-18.8-18.9c-9.7-3.8-20-2.3-28.9-0.4
				c-8.5,1.8-13.1,10.8-16,18.3c-1.2,3.2-2.5,6.8-1.6,10.2c0.8,3.1,4.4,5.9,7.8,5.1c1.6-0.4,3-1.4,4.4-2.5c2.1-1.5,4.3-3.1,7.1-2.7
				c1.9,0.3,3.3,1.5,4.6,2.7c0.5,0.4,0.9,0.8,1.4,1.2c2.1,1.5,5.4,1.9,8,1c1.1-0.4,2.9-1.3,3.5-3.2c0.1-0.3,0.4-0.6,0.7-0.7
				C73.4,34,73.5,34,73.6,34z"/>
		</g>
	</g>
</g>
</svg>
