<?xml version="1.0" encoding="utf-8"?>
<!-- Generator: Adobe Illustrator 26.0.3, SVG Export Plug-In . SVG Version: 6.00 Build 0)  -->
<svg version="1.1" id="레이어_1" xmlns="http://www.w3.org/2000/svg" xmlns:xlink="http://www.w3.org/1999/xlink" x="0px"
	 y="0px" viewBox="0 0 214 176" style="enable-background:new 0 0 214 176;" xml:space="preserve">
<style type="text/css">
	.st0{fill:#DB4B4A;}
	.st1{fill:#F2F2F2;}
	.st2{fill:#5F656E;}
	.st3{fill:#FFFFFF;}
	.st4{fill:#373B3C;}
	.st5{fill:#415B65;}
	.st6{fill:#B6B7B4;}
	.st7{opacity:0.18;}
	.st8{fill:#38393A;}
	.st9{fill:#566D77;}
	.st10{fill:#EEEEEF;}
	.st11{fill:#F3F5F8;}
	.st12{fill:#CC5463;}
	.st13{fill:#F6F6F9;}
	.st14{fill:#425A62;}
</style>
<g>
	<g>
		<g>
			<path class="st0" d="M94.5,166.5c-0.9-4.8-3.9-8.4-8.9-8.4c-0.8,0-1.5,0.1-2.2,0.2c-2.1,0.5-3.8,2-4.6,4.1
				c-1.1,2.7-2.5,3.8-5.2,3.8c-2.1,0-5.5-1.6-5.5-4.9v5.3c0,0.8,0.7,1.5,1.5,1.6l5.8,0.1h0.1h17.5C93.9,168.4,94.6,167.5,94.5,166.5
				z"/>
		</g>
		<g>
			<path class="st1" d="M87.2,158.3L87.2,158.3c-0.5-0.1-1.1-0.1-1.6-0.1c-0.8,0-1.5,0.1-2.2,0.2c-2.1,0.5-3.8,2-4.6,4.1
				c-1.1,2.7-2.5,3.8-5.2,3.8c-2.1,0-5.5-1.5-5.5-4.7l0-3.2c0-5.2,4.2-9.3,9.3-9.3h0.5C83,148.9,87.2,153.1,87.2,158.3z"/>
		</g>
		<g>
			<circle class="st2" cx="73.1" cy="160.8" r="2.4"/>
		</g>
		<g>
			<path class="st3" d="M68,123.1l0,22.2c0,5.3,4.3,9.6,9.6,9.6h0c5.3,0,9.6-4.3,9.6-9.6v-22.1H68z"/>
		</g>
		<g>
			<path class="st2" d="M77.6,152.3c-3.7,0-6.8-3-6.8-6.8s3-6.8,6.8-6.8s6.8,3,6.8,6.8S81.3,152.3,77.6,152.3z M77.6,140.5
				c-2.8,0-5,2.3-5,5c0,2.8,2.3,5,5,5s5-2.3,5-5C82.6,142.7,80.4,140.5,77.6,140.5z"/>
		</g>
		<g>
			<g>
				<path class="st4" d="M74,136.7c1.1,0.3,2.3,0.4,3.6,0.4c1.2,0,2.4-0.1,3.6-0.4v-30c-1.1-0.3-2.3-0.4-3.6-0.4
					c-1.2,0-2.4,0.1-3.6,0.4V136.7z"/>
			</g>
			<g>
				<g>
					<path class="st5" d="M74,106.2c0-1.4-1.4-2.4-2.7-1.9c-7.1,2.6-12.2,9.4-12.2,17.4c0,9,6.4,16.5,14.9,18.1V106.2z"/>
				</g>
				<g>
					<path class="st5" d="M81.2,106.2v33.6c8.5-1.7,14.9-9.1,14.9-18.1c0-8-5.1-14.8-12.2-17.4C82.6,103.8,81.2,104.8,81.2,106.2z"
						/>
				</g>
			</g>
			<g>
				<path class="st0" d="M94.5,166.5c-0.9-4.8-3.9-8.4-8.9-8.4c-0.8,0-1.5,0.1-2.2,0.2c-2.1,0.5-3.8,2-4.6,4.1
					c-1.1,2.7-2.5,3.8-5.2,3.8c-2.1,0-5.5-1.6-5.5-4.9v5.3c0,0.8,0.7,1.5,1.5,1.6l5.8,0.1h0.1h17.5
					C93.9,168.4,94.6,167.5,94.5,166.5z"/>
			</g>
			<g>
				<path class="st1" d="M87.2,158.3L87.2,158.3c-0.5-0.1-1.1-0.1-1.6-0.1c-0.8,0-1.5,0.1-2.2,0.2c-2.1,0.5-3.8,2-4.6,4.1
					c-1.1,2.7-2.5,3.8-5.2,3.8c-2.1,0-5.5-1.5-5.5-4.7l0-3.2c0-5.2,4.2-9.3,9.3-9.3h0.5C83,148.9,87.2,153.1,87.2,158.3z"/>
			</g>
			<g>
				<circle class="st2" cx="73.1" cy="160.8" r="2.4"/>
			</g>
			<g>
				<path class="st3" d="M68,123.1l0,22.2c0,5.3,4.3,9.6,9.6,9.6h0c5.3,0,9.6-4.3,9.6-9.6v-22.1H68z"/>
			</g>
			<g>
				<path class="st2" d="M77.6,152.3c-3.7,0-6.8-3-6.8-6.8s3-6.8,6.8-6.8s6.8,3,6.8,6.8S81.3,152.3,77.6,152.3z M77.6,140.5
					c-2.8,0-5,2.3-5,5c0,2.8,2.3,5,5,5s5-2.3,5-5C82.6,142.7,80.4,140.5,77.6,140.5z"/>
			</g>
			<g>
				<circle class="st6" cx="77.6" cy="121.6" r="10.3"/>
			</g>
			<g>
				<circle class="st3" cx="77.6" cy="121.6" r="2.6"/>
			</g>
		</g>
		<g class="st7">
			<path d="M87.2,158.3C87.2,158.3,87.2,158.3,87.2,158.3c0-2.5-1-4.8-2.6-6.5c1.6-1.7,2.6-4,2.6-6.6v-7.8c5.3-3.2,8.9-9.1,8.9-15.8
				c0-8-5.1-14.8-12.2-17.4c-1.3-0.5-2.7,0.5-2.7,1.9v0.4c-1.1-0.3-2.3-0.4-3.6-0.4c-1.2,0-2.4,0.1-3.6,0.4v-0.4
				c0-1.4-1.4-2.4-2.7-1.9c-7.1,2.6-12.2,9.4-12.2,17.4c0,6.7,3.6,12.6,8.9,15.8l0,7.8c0,2.6,1,4.9,2.6,6.6c-1.6,1.7-2.6,4-2.6,6.5
				l0,3.2v5.1c0,0.8,0.7,1.5,1.5,1.6l5.8,0.1h0.1h17.5c1,0,1.7-0.9,1.5-1.8C93.7,162.3,91.2,159,87.2,158.3z"/>
		</g>
	</g>
	<g>
		<g>
			<path class="st0" d="M158.1,166.5c-0.9-4.8-3.9-8.4-8.9-8.4c-0.8,0-1.5,0.1-2.2,0.2c-2.1,0.5-3.8,2-4.6,4.1
				c-1.1,2.7-2.5,3.8-5.2,3.8c-2.1,0-5.5-1.6-5.5-4.9v5.3c0,0.8,0.7,1.5,1.5,1.6l5.8,0.1h0.1h17.5
				C157.6,168.4,158.3,167.5,158.1,166.5z"/>
		</g>
		<g>
			<path class="st1" d="M150.9,158.3L150.9,158.3c-0.5-0.1-1.1-0.1-1.6-0.1c-0.8,0-1.5,0.1-2.2,0.2c-2.1,0.5-3.8,2-4.6,4.1
				c-1.1,2.7-2.5,3.8-5.2,3.8c-2.1,0-5.5-1.5-5.5-4.7l0-3.2c0-5.2,4.2-9.3,9.3-9.3h0.5C146.7,148.9,150.9,153.1,150.9,158.3z"/>
		</g>
		<g>
			<circle class="st2" cx="136.8" cy="160.8" r="2.4"/>
		</g>
		<g>
			<path class="st3" d="M131.7,123.1l0,22.2c0,5.3,4.3,9.6,9.6,9.6h0c5.3,0,9.6-4.3,9.6-9.6v-22.1H131.7z"/>
		</g>
		<g>
			<path class="st2" d="M141.3,152.3c-3.7,0-6.8-3-6.8-6.8s3-6.8,6.8-6.8s6.8,3,6.8,6.8S145,152.3,141.3,152.3z M141.3,140.5
				c-2.8,0-5,2.3-5,5c0,2.8,2.3,5,5,5c2.8,0,5-2.3,5-5C146.3,142.7,144.1,140.5,141.3,140.5z"/>
		</g>
		<g>
			<g>
				<path class="st4" d="M137.7,136.7c1.1,0.3,2.3,0.4,3.6,0.4c1.2,0,2.4-0.1,3.6-0.4v-30c-1.1-0.3-2.3-0.4-3.6-0.4
					c-1.2,0-2.4,0.1-3.6,0.4V136.7z"/>
			</g>
			<g>
				<g>
					<path class="st5" d="M137.7,106.2c0-1.4-1.4-2.4-2.7-1.9c-7.1,2.6-12.2,9.4-12.2,17.4c0,9,6.4,16.5,14.9,18.1V106.2z"/>
				</g>
				<g>
					<path class="st5" d="M144.9,106.2v33.6c8.5-1.7,14.9-9.1,14.9-18.1c0-8-5.1-14.8-12.2-17.4
						C146.3,103.8,144.9,104.8,144.9,106.2z"/>
				</g>
			</g>
			<g>
				<path class="st0" d="M158.1,166.5c-0.9-4.8-3.9-8.4-8.9-8.4c-0.8,0-1.5,0.1-2.2,0.2c-2.1,0.5-3.8,2-4.6,4.1
					c-1.1,2.7-2.5,3.8-5.2,3.8c-2.1,0-5.5-1.6-5.5-4.9v5.3c0,0.8,0.7,1.5,1.5,1.6l5.8,0.1h0.1h17.5
					C157.6,168.4,158.3,167.5,158.1,166.5z"/>
			</g>
			<g>
				<path class="st1" d="M150.9,158.3L150.9,158.3c-0.5-0.1-1.1-0.1-1.6-0.1c-0.8,0-1.5,0.1-2.2,0.2c-2.1,0.5-3.8,2-4.6,4.1
					c-1.1,2.7-2.5,3.8-5.2,3.8c-2.1,0-5.5-1.5-5.5-4.7l0-3.2c0-5.2,4.2-9.3,9.3-9.3h0.5C146.7,148.9,150.9,153.1,150.9,158.3z"/>
			</g>
			<g>
				<circle class="st2" cx="136.8" cy="160.8" r="2.4"/>
			</g>
			<g>
				<path class="st3" d="M131.7,123.1l0,22.2c0,5.3,4.3,9.6,9.6,9.6h0c5.3,0,9.6-4.3,9.6-9.6v-22.1H131.7z"/>
			</g>
			<g>
				<path class="st2" d="M141.3,152.3c-3.7,0-6.8-3-6.8-6.8s3-6.8,6.8-6.8s6.8,3,6.8,6.8S145,152.3,141.3,152.3z M141.3,140.5
					c-2.8,0-5,2.3-5,5c0,2.8,2.3,5,5,5c2.8,0,5-2.3,5-5C146.3,142.7,144.1,140.5,141.3,140.5z"/>
			</g>
			<g>
				<circle class="st6" cx="141.3" cy="121.6" r="10.3"/>
			</g>
			<g>
				<circle class="st3" cx="141.3" cy="121.6" r="2.6"/>
			</g>
		</g>
		<g class="st7">
			<path d="M150.9,158.3C150.9,158.3,150.9,158.3,150.9,158.3c0-2.5-1-4.8-2.6-6.5c1.6-1.7,2.6-4,2.6-6.6v-7.8
				c5.3-3.2,8.9-9.1,8.9-15.8c0-8-5.1-14.8-12.2-17.4c-1.3-0.5-2.7,0.5-2.7,1.9v0.4c-1.1-0.3-2.3-0.4-3.6-0.4s-2.4,0.1-3.6,0.4v-0.4
				c0-1.4-1.4-2.4-2.7-1.9c-7.1,2.6-12.2,9.4-12.2,17.4c0,6.7,3.6,12.6,8.9,15.8l0,7.8c0,2.6,1,4.9,2.6,6.6c-1.6,1.7-2.6,4-2.6,6.5
				l0,3.2v5.1c0,0.8,0.7,1.5,1.5,1.6l5.8,0.1h0.1h17.5c1,0,1.7-0.9,1.5-1.8C157.4,162.3,154.9,159,150.9,158.3z"/>
		</g>
	</g>
	<g>
		<path class="st4" d="M74,136.7c1.1,0.3,2.3,0.4,3.6,0.4c1.2,0,2.4-0.1,3.6-0.4v-30c-1.1-0.3-2.3-0.4-3.6-0.4
			c-1.2,0-2.4,0.1-3.6,0.4V136.7z"/>
	</g>
	<g>
		<g>
			<path class="st5" d="M74,106.2c0-1.4-1.4-2.4-2.7-1.9c-7.1,2.6-12.2,9.4-12.2,17.4c0,9,6.4,16.5,14.9,18.1V106.2z"/>
		</g>
		<g>
			<path class="st5" d="M81.2,106.2v33.6c8.5-1.7,14.9-9.1,14.9-18.1c0-8-5.1-14.8-12.2-17.4C82.6,103.8,81.2,104.8,81.2,106.2z"/>
		</g>
	</g>
	<g>
		<circle class="st6" cx="77.6" cy="121.6" r="10.3"/>
	</g>
	<g>
		<circle class="st3" cx="77.6" cy="121.6" r="2.6"/>
	</g>
	<g id="XMLID_1_">
		<g>
			<polygon class="st8" points="189.5,99.1 183.5,105.9 109.5,105.9 82.1,74.8 91.8,74.8 			"/>
			<path class="st3" d="M183.5,105.9l-30.9,35.6c-1.7,2-4.2,3.1-6.8,3.1c-13.9,0-58.7,0.2-59.7,0.1c-12.1-0.3-15.6,1.9-15.6,1.9
				s-20.4,6.9-31.7,1.9s-11.7-22.3-11.7-22.3V91.6l-1.5-12.3c0,0-2.4-7.2-16.5-12.9C-4.9,60.7-1,45.7,9.2,44.5
				c10.2-1.2,12.6,10.2,13.8,13.2c1.2,3,10.5,13.8,10.5,13.8l10.2,3.3h38.5l27.4,31.1H183.5z"/>
		</g>
	</g>
	<g>
		<path class="st3" d="M191,12.5h-37.7h-37.7l-21.7,57c-1.2,3.2-0.6,6.9,1.7,9.5l15.7,17.7c1.3,1.5,3.2,2.3,5.2,2.3h36.7H190
			c2,0,3.9-0.8,5.2-2.3L210.9,79c2.3-2.6,3-6.3,1.7-9.5L191,12.5z"/>
	</g>
	<g>
		<polygon class="st9" points="25.6,79.3 33.4,71.5 43.6,74.8 27.1,91.6 		"/>
	</g>
	<g>
		<path class="st10" d="M130.3,51.3c-0.7,0-1.4-0.6-1.4-1.3l-1.8-19.3c-0.1-0.8,0.5-1.5,1.3-1.6c0.8-0.1,1.5,0.5,1.6,1.3l1.8,19.3
			c0.1,0.8-0.5,1.5-1.3,1.6C130.4,51.3,130.3,51.3,130.3,51.3z"/>
	</g>
	<g>
		<circle cx="130.3" cy="54.9" r="5"/>
	</g>
	<g>
		<circle class="st11" cx="128.8" cy="53.3" r="1.1"/>
	</g>
	<g>
		<circle cx="153.2" cy="72.8" r="5"/>
	</g>
	<g>
		<path class="st12" d="M148.3,89.8c-4.6,0-6.9-4-7.5-6.1c-0.2-0.8,0.2-1.6,1-1.8c0.8-0.2,1.6,0.2,1.8,1c0,0.2,1.2,3.9,4.7,3.9
			c3.2,0,3.5-4.3,3.5-4.5c0-0.8,0.7-1.4,1.5-1.4c0.8,0,1.4,0.7,1.4,1.5C154.6,85,153.1,89.8,148.3,89.8z"/>
	</g>
	<g>
		<path class="st12" d="M158.2,89.8c-4.8,0-6.3-4.7-6.4-7.2c0-0.8,0.6-1.5,1.4-1.5c0.8,0,1.5,0.6,1.5,1.4l0,0c0,0.2,0.3,4.5,3.5,4.5
			c3.5,0,4.6-3.8,4.7-3.9c0.2-0.8,1-1.2,1.8-1c0.8,0.2,1.2,1,1,1.8C165.1,85.8,162.8,89.8,158.2,89.8z"/>
	</g>
	<g>
		<rect x="151.8" y="76.7" width="2.9" height="5.8"/>
	</g>
	<g>
		<path class="st4" d="M109.8,144.3c1.1,0.3,2.3,0.4,3.6,0.4s2.4-0.1,3.6-0.4v-30c-1.1-0.3-2.3-0.4-3.6-0.4s-2.4,0.1-3.6,0.4V144.3z
			"/>
	</g>
	<g>
		<g>
			<path class="st5" d="M109.8,113.8c0-1.4-1.4-2.4-2.7-1.9c-7.1,2.6-12.2,9.4-12.2,17.4c0,9,6.4,16.5,14.9,18.1V113.8z"/>
		</g>
		<g>
			<path class="st5" d="M116.9,113.8v33.6c8.5-1.7,14.9-9.1,14.9-18.1c0-8-5.1-14.8-12.2-17.4C118.3,111.4,116.9,112.4,116.9,113.8z
				"/>
		</g>
	</g>
	<g>
		<path class="st0" d="M130.2,174.2c-0.9-4.8-3.9-8.4-8.9-8.4c-0.8,0-1.5,0.1-2.2,0.2c-2.1,0.5-3.8,2-4.6,4.1
			c-1.1,2.7-2.5,3.8-5.2,3.8c-2.1,0-5.5-1.6-5.5-4.9v5.3c0,0.8,0.7,1.5,1.5,1.6l5.8,0.1h0.1h17.5C129.6,176,130.4,175.1,130.2,174.2
			z"/>
	</g>
	<g>
		<path class="st1" d="M122.9,165.9L122.9,165.9c-0.5-0.1-1.1-0.1-1.6-0.1c-0.8,0-1.5,0.1-2.2,0.2c-2.1,0.5-3.8,2-4.6,4.1
			c-1.1,2.7-2.5,3.8-5.2,3.8c-2.1,0-5.5-1.5-5.5-4.7l0-3.2c0-5.2,4.2-9.3,9.3-9.3h0.5C118.7,156.6,122.9,160.8,122.9,165.9z"/>
	</g>
	<g>
		<circle class="st2" cx="108.8" cy="168.5" r="2.4"/>
	</g>
	<g>
		<path class="st3" d="M103.7,130.7l0,22.2c0,5.3,4.3,9.6,9.6,9.6h0c5.3,0,9.6-4.3,9.6-9.6v-22.1H103.7z"/>
	</g>
	<g>
		<path class="st2" d="M113.3,159.9c-3.7,0-6.8-3-6.8-6.8s3-6.8,6.8-6.8s6.8,3,6.8,6.8S117.1,159.9,113.3,159.9z M113.3,148.1
			c-2.8,0-5,2.3-5,5c0,2.8,2.3,5,5,5c2.8,0,5-2.3,5-5C118.4,150.4,116.1,148.1,113.3,148.1z"/>
	</g>
	<g>
		<circle class="st6" cx="113.3" cy="129.3" r="10.3"/>
	</g>
	<g>
		<circle class="st3" cx="113.3" cy="129.3" r="2.6"/>
	</g>
	<g>
		<path class="st4" d="M46.7,144.3c1.1,0.3,2.3,0.4,3.6,0.4c1.2,0,2.4-0.1,3.6-0.4v-30c-1.1-0.3-2.3-0.4-3.6-0.4
			c-1.2,0-2.4,0.1-3.6,0.4V144.3z"/>
	</g>
	<g>
		<g>
			<path class="st5" d="M46.7,113.8c0-1.4-1.4-2.4-2.7-1.9c-7.1,2.6-12.2,9.4-12.2,17.4c0,9,6.4,16.5,14.9,18.1V113.8z"/>
		</g>
		<g>
			<path class="st5" d="M53.9,113.8v33.6c8.5-1.7,14.9-9.1,14.9-18.1c0-8-5.1-14.8-12.2-17.4C55.3,111.4,53.9,112.4,53.9,113.8z"/>
		</g>
	</g>
	<g>
		<path class="st0" d="M67.1,174.2c-0.9-4.8-3.9-8.4-8.9-8.4c-0.8,0-1.5,0.1-2.2,0.2c-2.1,0.5-3.8,2-4.6,4.1
			c-1.1,2.7-2.5,3.8-5.2,3.8c-2.1,0-5.5-1.6-5.5-4.9v5.3c0,0.8,0.7,1.5,1.5,1.6L48,176h0.1h17.5C66.6,176,67.3,175.1,67.1,174.2z"/>
	</g>
	<g>
		<path class="st1" d="M59.9,165.9L59.9,165.9c-0.5-0.1-1.1-0.1-1.6-0.1c-0.8,0-1.5,0.1-2.2,0.2c-2.1,0.5-3.8,2-4.6,4.1
			c-1.1,2.7-2.5,3.8-5.2,3.8c-2.1,0-5.5-1.5-5.5-4.7l0-3.2c0-5.2,4.2-9.3,9.3-9.3h0.5C55.7,156.6,59.9,160.8,59.9,165.9z"/>
	</g>
	<g>
		<circle class="st2" cx="45.8" cy="168.5" r="2.4"/>
	</g>
	<g>
		<path class="st3" d="M40.7,130.7l0,22.2c0,5.3,4.3,9.6,9.6,9.6h0c5.3,0,9.6-4.3,9.6-9.6v-22.1H40.7z"/>
	</g>
	<g>
		<path class="st2" d="M50.3,159.9c-3.7,0-6.8-3-6.8-6.8s3-6.8,6.8-6.8s6.8,3,6.8,6.8S54,159.9,50.3,159.9z M50.3,148.1
			c-2.8,0-5,2.3-5,5c0,2.8,2.3,5,5,5s5-2.3,5-5C55.3,150.4,53.1,148.1,50.3,148.1z"/>
	</g>
	<g>
		<circle class="st6" cx="50.3" cy="129.3" r="10.3"/>
	</g>
	<g>
		<circle class="st3" cx="50.3" cy="129.3" r="2.6"/>
	</g>
	<g>
		<path class="st13" d="M110.6,25.4"/>
	</g>
	<g id="XMLID_2_">
		<g>
			<path class="st13" d="M110.6,25.4c-5.2,1.1-6.5-1.1-6.7-2.9c0,0,0.4,1.7,5.4,0.3c5-1.4,13.4-4.7,14.4-6.2
				c0.8-1.2,1.3-10.5,2.8-14.7c0.4-0.1,0.7-0.2,1-0.3c3.8-1.3,5.5,0.7,5.5,0.7l8.3,10.7c0,0,2.4,7.5-2.5,12.8
				c-4.9,5.3-14.3,6.6-21,5C112.5,29.5,110.6,25.4,110.6,25.4z M124.4,20.2l-8.9,3.3c0,0,3.7,4.4,8,4.4c7.9,0,13.6-4.6,13.6-7.7
				c0-3.9-4.5-11.4-6.5-15.3c-0.3-0.6-1.3-0.6-1.5,0.1c-0.7,1.9-1.8,5.3-2.1,9.6C126.5,19.5,124.4,20.2,124.4,20.2z"/>
			<path class="st14" d="M130.5,4.9c2.1,3.9,6.6,11.4,6.5,15.3c0,3.1-5.7,7.7-13.6,7.7c-4.3,0-8-4.4-8-4.4l8.9-3.3
				c0,0,2.1-0.8,2.5-5.6c0.4-4.4,1.4-7.7,2.1-9.6C129.3,4.3,130.2,4.3,130.5,4.9z"/>
			<path class="st3" d="M126.4,1.9c-1.5,4.2-2,13.4-2.8,14.7c-1,1.5-9.4,4.8-14.4,6.2c-5,1.4-5.4-0.3-5.4-0.3
				c-0.1-0.8,0-1.7,0.3-2.5c0.9-2.4,3.8-9.9,5-11.6c1.5-2,4-2.2,4-2.2S122.1,3.3,126.4,1.9z"/>
		</g>
	</g>
	<g>
		<path class="st10" d="M176.2,51.3c0,0-0.1,0-0.1,0c-0.8-0.1-1.4-0.8-1.3-1.6l1.8-19.3c0.1-0.8,0.8-1.4,1.6-1.3
			c0.8,0.1,1.4,0.8,1.3,1.6L177.7,50C177.6,50.8,177,51.3,176.2,51.3z"/>
	</g>
	<g id="XMLID_3_">
		<g>
			<path class="st13" d="M195.9,25.4c5.2,1.1,6.5-1.1,6.7-2.9c0,0-0.4,1.7-5.4,0.3c-5-1.4-13.4-4.7-14.4-6.2
				c-0.8-1.2-1.3-10.5-2.8-14.6c-0.4-0.1-0.7-0.2-1-0.3c-3.8-1.3-5.5,0.7-5.5,0.7L165.2,13c0,0-2.4,7.5,2.5,12.8
				c4.9,5.3,14.3,6.6,21,5C194,29.5,195.9,25.4,195.9,25.4z M182.1,20.2l8.9,3.3c0,0-3.7,4.4-8,4.4c-7.9,0-13.6-4.6-13.6-7.7
				c0-3.9,4.5-11.4,6.5-15.3c0.3-0.6,1.2-0.6,1.5,0.1c0.7,1.9,1.8,5.3,2.1,9.6C180,19.5,182.1,20.2,182.1,20.2z"/>
			<path class="st14" d="M175.9,4.9c-2.1,3.9-6.6,11.4-6.5,15.3c0,3.1,5.7,7.7,13.6,7.7c4.3,0,8-4.4,8-4.4l-8.9-3.3
				c0,0-2.1-0.8-2.5-5.6c-0.4-4.4-1.4-7.7-2.1-9.6C177.2,4.3,176.3,4.3,175.9,4.9z"/>
			<path class="st3" d="M180.1,1.9c1.5,4.2,2,13.4,2.8,14.6c1,1.5,9.4,4.8,14.4,6.2c5,1.4,5.4-0.3,5.4-0.3c0.1-0.8,0-1.7-0.3-2.5
				c-0.9-2.4-3.8-9.9-5-11.6c-1.5-2-4-2.2-4-2.2S184.4,3.3,180.1,1.9z"/>
		</g>
	</g>
	<g>
		<g>
			<circle cx="176.1" cy="54.9" r="5"/>
		</g>
		<g>
			<circle class="st11" cx="174.6" cy="53.3" r="1.1"/>
		</g>
	</g>
</g>
</svg>
