<svg id="레이어_3" data-name="레이어 3" xmlns="http://www.w3.org/2000/svg" viewBox="0 0 220 280"><defs><style>.cls-1,.cls-8{fill:#fff;}.cls-2,.cls-4{fill:#0088c5;}.cls-11,.cls-2,.cls-3,.cls-8,.cls-9{fill-rule:evenodd;}.cls-3,.cls-6{fill:#009ff9;}.cls-5{fill:#683100;}.cls-7{fill:#009ff8;}.cls-9{fill:#ffbeb8;}.cls-10{fill:#5fd9ff;}</style></defs><path d="M114.36,171.87a4.08,4.08,0,0,1,4.09,4.08v49.46s1.88-2.32,6.84-2.32a19.71,19.71,0,0,1,3.73.38,2.83,2.83,0,0,0,.28.07,17.93,17.93,0,0,1,12.1,9.34c1.3,2.56,1.87,7.25-.17,9.6-2.26,2.59-5.59,2.9-8.82,2.9-1.06,0-2.11,0-3.11,0H112.74c-2.37,0-6.12-1.92-6.12-4.29V206.41h0V176c0-2.26,5.49-4.08,7.74-4.08m0-3.4c-2.35,0-11.13,1.87-11.13,7.48v65.11c0,4.69,5.63,7.68,9.51,7.68H129.3l1.45,0,1.66,0c3.87,0,8.24-.49,11.37-4.07s2.33-10.06.65-13.37A21.42,21.42,0,0,0,130,220.22l-.28-.06a23.36,23.36,0,0,0-4.45-.46,16.93,16.93,0,0,0-3.45.34V176a7.49,7.49,0,0,0-7.48-7.48Z"/><path class="cls-1" d="M118.46,175.94v30.48H106.61V175.94c0-2.24,5.49-4.07,7.75-4.07A4.09,4.09,0,0,1,118.46,175.94Z"/><path class="cls-2" d="M141.22,242.48c-3,3.45-7.89,2.88-11.93,2.88H112.75c-2.38,0-6.14-1.92-6.14-4.3V206.42h11.85v19s2.8-3.43,10.55-1.93a2.57,2.57,0,0,1,.28.06,17.9,17.9,0,0,1,12.1,9.36C142.69,235.43,143.26,240.13,141.22,242.48Z"/><path class="cls-1" d="M96.94,180.52V211H85.12V180.52c0-2.26,5.49-4.07,7.75-4.07A4.07,4.07,0,0,1,96.94,180.52Z"/><path class="cls-3" d="M119.73,247.06c-3,3.42-7.89,2.85-11.93,2.85H91.23c-2.35,0-6.11-1.89-6.11-4.27V211H96.94v19s2.8-3.45,10.58-1.93a2.57,2.57,0,0,1,.28.06,18,18,0,0,1,12.1,9.33C121.2,240,121.77,244.71,119.73,247.06Z"/><path d="M92.86,176.44A4.09,4.09,0,0,1,97,180.53V230s1.88-2.31,6.84-2.31a19.71,19.71,0,0,1,3.73.38l.28.06a18,18,0,0,1,12.1,9.34c1.3,2.56,1.87,7.26-.18,9.6-2.25,2.59-5.58,2.91-8.81,2.91-1.06,0-2.11,0-3.11,0H91.24c-2.37,0-6.12-1.92-6.12-4.29V211h0V180.53c0-2.26,5.49-4.09,7.74-4.09m0-3.39c-2.35,0-11.13,1.87-11.13,7.48v65.11c0,4.69,5.63,7.68,9.51,7.68h18l1.66,0c3.87,0,8.24-.48,11.37-4.07s2.33-10.05.65-13.37a21.41,21.41,0,0,0-14.41-11.11l-.24-.06a23.33,23.33,0,0,0-4.49-.47,16.22,16.22,0,0,0-3.45.35V180.53a7.48,7.48,0,0,0-7.48-7.48Z"/><path class="cls-1" d="M146,149.46c-.6-6.23.3-12.22,1.17-18.64.38-2.84,2-13.14-4.07-11.56-2.18.58-3.48,3.67-4.43,5.47a45.22,45.22,0,0,0-4.38,12.32,52,52,0,0,0-.75,14.4A37.65,37.65,0,0,1,146,149.46Z"/><path class="cls-4" d="M153.79,169.85l-.13-.2a44,44,0,0,1-3.13-5,37.72,37.72,0,0,1-3-7.38c-.38-1.3-.71-2.64-1-4.06-.25-1.26-.41-2.51-.53-3.75a37.65,37.65,0,0,0-12.46,2,59.35,59.35,0,0,0,1,6.9c1.3,6.48,3.25,13.83,7.21,19.32a9.38,9.38,0,0,0,8.79,3.86,10,10,0,0,0,2-.49c2.21-.78,4.13-2.47,4.38-4.75a4.3,4.3,0,0,0-.07-1.3C156.49,173.05,154.93,171.46,153.79,169.85Z"/><path d="M144.27,119.1c4.64,0,3.25,9.08,2.9,11.72-.87,6.42-1.77,12.41-1.17,18.64.12,1.24.28,2.49.53,3.75.28,1.42.61,2.76,1,4a37.56,37.56,0,0,0,3,7.39,44,44,0,0,0,3.13,5l.13.2c1.14,1.61,2.7,3.2,3.07,5.14a4.3,4.3,0,0,1,.07,1.3c-.25,2.28-2.17,4-4.38,4.75a9.77,9.77,0,0,1-3.25.57,9.46,9.46,0,0,1-7.58-3.94c-4-5.49-5.91-12.84-7.21-19.32a59.35,59.35,0,0,1-1-6.9,52,52,0,0,1,.75-14.4,45.22,45.22,0,0,1,4.38-12.32c1-1.8,2.25-4.89,4.43-5.47a4.74,4.74,0,0,1,1.17-.16m0-3.4a8.19,8.19,0,0,0-2,.28c-3.38.89-5.08,4.25-6.21,6.47l-.35.69A48.6,48.6,0,0,0,131,136.39a55.17,55.17,0,0,0-.8,15.34,65.94,65.94,0,0,0,1,7.29c1.28,6.35,3.32,14.44,7.79,20.63A12.81,12.81,0,0,0,149.3,185a11.62,11.62,0,0,0,1.67-.11,13.52,13.52,0,0,0,2.72-.65c3.71-1.32,6.25-4.23,6.62-7.59a7.81,7.81,0,0,0-.12-2.29,12.91,12.91,0,0,0-2.87-5.46c-.26-.34-.52-.67-.75-1l-.16-.21a43.2,43.2,0,0,1-2.89-4.63,35.17,35.17,0,0,1-2.75-6.74c-.35-1.18-.64-2.42-.91-3.76a34,34,0,0,1-.48-3.42c-.53-5.49.21-11,1-16.8l.15-1.06,0-.25c.66-4.84,1-10.21-1.66-13.24a6,6,0,0,0-4.63-2.08Z"/><path class="cls-1" d="M117.61,28.33a10.83,10.83,0,0,0-5.45,4c-2.21,3.25-3.49,9.16-1.76,12.81.6,1.27,2.11.38,3.88.08,2.09-.36,1.48-2.27,3-4.09,2.18-2.61,4.47.06,8.27,2.78a7.34,7.34,0,0,0,9.84-1.23,6.32,6.32,0,0,0-1.2-9.23C128.33,29.13,124.44,25.89,117.61,28.33Z"/><path d="M122.05,27.49c4.35,0,7.67,2.66,12.15,5.93a6.32,6.32,0,0,1,1.2,9.23,7.35,7.35,0,0,1-9.84,1.23C122.85,42,120.91,40,119.23,40a2.51,2.51,0,0,0-1.94,1.07c-1.53,1.82-.92,3.73-3,4.09a25.52,25.52,0,0,1-2.8.59,1.08,1.08,0,0,1-1.08-.67c-1.73-3.65-.45-9.56,1.76-12.81a10.85,10.85,0,0,1,5.44-4,13.2,13.2,0,0,1,4.45-.84m0-3.39a16.46,16.46,0,0,0-5.59,1,14.08,14.08,0,0,0-7.1,5.25c-2.81,4.12-4.34,11.29-2,16.18a4.48,4.48,0,0,0,4.15,2.6,9.1,9.1,0,0,0,2.38-.4,9,9,0,0,1,1-.23,5.62,5.62,0,0,0,4.51-4.16c.1-.27.18-.49.26-.67.57.37,1.36,1,2,1.45s1.27,1,2,1.48A10.73,10.73,0,0,0,138,44.8a9.7,9.7,0,0,0-1.82-14.12l-.86-.62c-4.35-3.2-8.11-6-13.29-6Z"/><path class="cls-5" d="M123.85,39.74a2.9,2.9,0,0,1,1.59-.14,2.69,2.69,0,0,1-1.52-1.39,2.61,2.61,0,0,1,1.48-3.48,3,3,0,0,1,2-.06,2.59,2.59,0,0,1-1.33-1.28c-.61-1.33.49-2.87,1.91-3.46.13-.05.74-.06.88-.1a20.2,20.2,0,0,1,5.34,3.59,6.31,6.31,0,0,1,1.19,9.23,7.34,7.34,0,0,1-9.83,1.23c-.9-.64-2.65-1.92-3.2-2.33-.78-.58.52-1.42,1.49-1.81"/><path class="cls-1" d="M77.79,31.85a12.52,12.52,0,0,1,7.26,3.29c3.42,3.29,6,7.32,5.1,12.2-.31,1.7-3.1,3.21-5.17,3.34-2.45.15-2.3-1.64-4.53-3.42-3.21-2.55-5,1.32-8.5,5.66a8.09,8.09,0,0,1-11.41,1.25A8.23,8.23,0,0,1,59.23,42.7C64.59,35.89,69.4,30.8,77.79,31.85Z"/><path d="M75.64,31.72a17.94,17.94,0,0,1,2.15.13,12.52,12.52,0,0,1,7.26,3.29c3.42,3.29,6,7.32,5.1,12.2-.31,1.7-3.1,3.21-5.17,3.34H84.7c-2.16,0-2.11-1.72-4.25-3.43a3.18,3.18,0,0,0-2-.81c-2.13,0-3.82,3.09-6.54,6.47a8.08,8.08,0,0,1-11.41,1.25A8.23,8.23,0,0,1,59.23,42.7c4.89-6.21,9.32-11,16.41-11m0-3.4h0c-8.69,0-14,5.81-19.07,12.28a11.58,11.58,0,0,0,9.05,18.76,11.44,11.44,0,0,0,9-4.32c.64-.79,1.23-1.58,1.78-2.31a28.3,28.3,0,0,1,2.14-2.66,7.42,7.42,0,0,1,1,1.12,6.09,6.09,0,0,0,5.2,2.89l.49,0c2.93-.18,7.6-2.24,8.3-6.11,1-5.3-1.08-10.44-6.09-15.26a15.7,15.7,0,0,0-9.19-4.2,20.53,20.53,0,0,0-2.57-.17Z"/><path class="cls-5" d="M72.67,47.45a3.14,3.14,0,0,0-1.82.27,3.25,3.25,0,0,0,1.31-2.1,3.3,3.3,0,0,0-2.66-3.79,3.2,3.2,0,0,0-2.27.49,3.18,3.18,0,0,0,1.13-1.92c.3-1.78-1.38-3.34-3.15-3.64a8.69,8.69,0,0,0-1,.12,23.39,23.39,0,0,0-5,5.82,8.23,8.23,0,0,0,1.32,11.47A8.08,8.08,0,0,0,72,52.92c.83-1,2.43-3.06,2.93-3.7.7-.92-1-1.57-2.21-1.77"/><path d="M106.88,43.42c10.62,0,21.62,4.32,30.4,10.25,7.49,5.07,12.58,14.22,15.23,22.73.16.52.28,1,.42,1.54.31.87.59,1.74.84,2.6,3,10.35,1.22,19.36-1.66,29.63-.62,2.23-5.1,13.12-5.17,13.65-1.29,6,1.81,13.29,2.66,19.18,1.59,11,1.9,22.29-2.68,32.64-6.24,14.12-20.77,19.13-35.2,20.1-1.42.09-2.84.14-4.27.14h-1.13l-3.53-.05c-1.74,0-3.54-.12-5.27-.29-11.87-1.14-24.94-5.75-32.36-15.61-5.36-7.13-7.4-18.95-6.81-27.76.46-6.87,2.57-13.51,3.86-20.24.51-2.63,1.5-5.21,1.29-7.89,0-.56-.12-1.12-.2-1.68-.43-1.2-3.66-10.3-4.48-13.77A56.53,56.53,0,0,1,57,84c1.28-8.82,4.87-18.66,11.47-24.84,8.48-8,19.9-14.39,31.44-15.28l.21,0,3.71-.29q1.52-.12,3.06-.12m0-3.4c-1.12,0-2.25,0-3.34.14l-3.69.29-.28,0c-11.16.86-23.37,6.76-33.43,16.18-6.34,5.94-10.9,15.72-12.51,26.84a59.63,59.63,0,0,0,1.92,26c.69,2.9,2.79,9,4.44,13.71,0,.4.1.76.13,1.12a15.21,15.21,0,0,1-.68,4.54c-.2.81-.4,1.63-.56,2.45-.41,2.16-.93,4.37-1.43,6.52A87.55,87.55,0,0,0,55,151.94c-.62,9.17,1.46,22,7.48,30,7,9.32,19.68,15.5,34.75,16.95,1.76.17,3.68.27,5.54.3l3.53,0h1.18c1.51,0,3-.05,4.5-.15C131,197.84,144.2,190.2,150,177c5.3-12,4.35-24.73,2.93-34.5-.3-2-.83-4.21-1.35-6.3-1-4.07-2.05-8.29-1.38-11.58.19-.56,1-2.56,1.68-4.34,1.79-4.54,3.09-7.86,3.47-9.21,2.8-10,5-19.91,1.65-31.5-.26-.88-.54-1.76-.85-2.65l-.13-.48c-.09-.35-.19-.71-.3-1.06-3.33-10.73-9.38-19.67-16.57-24.54-10.34-7-21.81-10.84-32.3-10.84Z"/><path class="cls-6" d="M152.11,110.17c2.88-10.27,4.68-19.28,1.66-29.63-.25-.86-.53-1.73-.84-2.6-.14-.52-.26-1-.42-1.54-2.65-8.51-7.74-17.66-15.23-22.73-9.63-6.51-21.93-11.07-33.46-10.13l-3.71.29-.21,0c-11.54.89-23,7.33-31.44,15.28C61.86,65.31,58.27,75.15,57,84a56.53,56.53,0,0,0,1.83,24.61c.82,3.47,4,12.57,4.48,13.77.08.56.16,1.12.21,1.68.2,2.68-.79,5.26-1.3,7.89-1.29,6.73-3.4,13.37-3.86,20.24-.59,8.81,1.45,20.63,6.81,27.76,7.42,9.86,20.49,14.47,32.36,15.61,1.73.17,3.53.26,5.27.29l3.53.05h.2c1.73,0,3.47,0,5.2-.13,14.43-1,29-6,35.2-20.1,4.58-10.35,4.27-21.67,2.68-32.64-.85-5.89-3.95-13.2-2.66-19.18C147,123.29,151.49,112.4,152.11,110.17Z"/><path class="cls-7" d="M103.82,43.54h0Z"/><path class="cls-1" d="M74.77,158.37c-.31-6.25.87-12.19,2-18.57.51-2.82,2.57-13-3.52-11.73-2.21.47-3.65,3.51-4.68,5.25a45.44,45.44,0,0,0-5,12.11,51.55,51.55,0,0,0-1.43,14.35A37.28,37.28,0,0,1,74.77,158.37Z"/><path class="cls-4" d="M81.6,179.1l-.13-.2a46.27,46.27,0,0,1-2.89-5.14,38.15,38.15,0,0,1-2.66-7.52c-.32-1.31-.58-2.66-.8-4.09a37.94,37.94,0,0,1-.35-3.78,37.28,37.28,0,0,0-12.54,1.41,64.19,64.19,0,0,0,.64,6.93c1,6.54,2.61,14,6.3,19.64a9.38,9.38,0,0,0,8.6,4.27,10.32,10.32,0,0,0,2.06-.39c2.25-.68,4.25-2.28,4.6-4.55a4.35,4.35,0,0,0,0-1.3C84.14,182.43,82.66,180.77,81.6,179.1Z"/><path d="M74.29,128c4.85,0,3,9.19,2.52,11.84-1.17,6.38-2.35,12.32-2,18.57a37.94,37.94,0,0,0,.35,3.78c.22,1.43.48,2.78.8,4.09a38.15,38.15,0,0,0,2.66,7.52,46.27,46.27,0,0,0,2.89,5.14l.13.2c1.06,1.67,2.54,3.33,2.82,5.28a4.35,4.35,0,0,1,0,1.3c-.35,2.27-2.35,3.87-4.6,4.55a10.32,10.32,0,0,1-2.06.39l-.79,0a9.43,9.43,0,0,1-7.81-4.3c-3.69-5.67-5.3-13.1-6.29-19.64a61.77,61.77,0,0,1-.65-6.93,51.55,51.55,0,0,1,1.43-14.35,45.44,45.44,0,0,1,5-12.11c1-1.74,2.47-4.78,4.68-5.25a4.63,4.63,0,0,1,1-.11m0-3.4a8.61,8.61,0,0,0-1.71.19c-3.41.73-5.27,4-6.51,6.18l-.38.67a48.71,48.71,0,0,0-5.33,13,55.11,55.11,0,0,0-1.52,15.29,64.4,64.4,0,0,0,.68,7.32c1,6.41,2.63,14.58,6.81,21A12.87,12.87,0,0,0,77,194.05c.36,0,.72,0,1.09-.05a14.72,14.72,0,0,0,2.75-.52c3.77-1.15,6.44-3.94,7-7.27a7.39,7.39,0,0,0,0-2.3,12.92,12.92,0,0,0-2.61-5.58c-.25-.36-.49-.7-.71-1.05l-.14-.22a40.35,40.35,0,0,1-2.67-4.76,33.88,33.88,0,0,1-2.43-6.86c-.3-1.2-.54-2.44-.74-3.8a32.45,32.45,0,0,1-.32-3.44c-.27-5.51.73-11,1.79-16.73l.2-1.05,0-.25c.9-4.88,1.47-10.29-1.14-13.42a6.07,6.07,0,0,0-4.76-2.19Z"/><path class="cls-8" d="M159.18,112.46c-5.88,7.32-17.47,12.27-31,13.26-33.57,2.49-51-7.47-53.25-30.46-.34-3.25-1.44-20,8.4-31.67a30.82,30.82,0,0,1,11-8.14,44.15,44.15,0,0,1,15.19-3.51c1.72-.11,3.36-.17,5-.17,34.72,0,37.55,26.7,37.63,27.88a1.69,1.69,0,0,0,1.28,1.47c.33.12,8.85,2.52,10.37,13.44C164.69,101.48,163.17,107.51,159.18,112.46Z"/><path d="M167.1,94.08c-1.53-10.83-8.91-14.74-11.77-15.84-.87-5.63-6.75-29.86-40.8-29.86-1.67,0-3.42.06-5.26.17-12.41.82-22,5.17-28.53,12.86C70.28,73.77,71,90.71,71.52,95.6c2.26,22.74,17.67,33.91,47,33.91,3.14,0,6.45-.14,9.92-.4,14.68-1.07,26.84-6.36,33.4-14.51C166.42,108.89,168.2,102,167.1,94.08ZM74.91,95.26c-.34-3.25-1.44-20,8.4-31.67a30.82,30.82,0,0,1,11-8.14,44.15,44.15,0,0,1,15.19-3.51c1.72-.11,3.36-.17,5-.17,34.72,0,37.55,26.7,37.63,27.88a1.69,1.69,0,0,0,1.28,1.47c.33.12,8.85,2.52,10.37,13.44,1,6.92-.56,13-4.55,17.9-5.88,7.32-17.47,12.27-31,13.26C94.59,128.21,77.2,118.25,74.91,95.26Z"/><path class="cls-9" d="M124.42,98.37c.17,6.93-5,12.68-11.61,12.83s-12-5.33-12.21-12.25,5-12.67,11.61-12.83,12,5.33,12.21,12.25"/><path class="cls-9" d="M163.09,92.89c-.59-2.35-3.38-10.23-7.22-7.4-5.18,3.81-2.78,13.53-.21,18.36,1,1.9,2.83,4.12,5.38,3.64,1.44-.27,2-3,2.16-3.93A24,24,0,0,0,163.09,92.89Z"/><path class="cls-10" d="M122.35,92.86A9.61,9.61,0,0,0,119,97.33c-1.42,4.42,5.86,5.36,7.48,1.33a10.78,10.78,0,0,0,.57-4.19c0-.81.33-3.89-.35-4.17S122.92,92.42,122.35,92.86Z"/><path class="cls-11" d="M144.93,92c0,.91-.91,1.66-2.1,1.69a1.7,1.7,0,1,1,2.1-1.69"/><path d="M134.38,104.26a6.27,6.27,0,0,1-2.18-.36,1.55,1.55,0,0,1-.85-1.9,1.3,1.3,0,0,1,1.68-1,6.33,6.33,0,0,0,4.43-.52A18,18,0,0,0,142,96.9l.75-.75a1.23,1.23,0,0,1,1.52-.18c.46.29.91.6,1.37.91,2,1.4,3.79,2.6,5.95,2a1.33,1.33,0,0,1,1.59,1.12,1.51,1.51,0,0,1-1,1.8c-3.2.84-5.71-.88-7.92-2.39l-.48-.33,0,0a20.21,20.21,0,0,1-5.19,4.12A9.66,9.66,0,0,1,134.38,104.26Z"/><path d="M131.61,88.09a2.69,2.69,0,0,1-2.71,2.56,2.84,2.84,0,0,1-2.2-.94A3.55,3.55,0,0,1,126,88a.29.29,0,0,1,.29-.34,12.19,12.19,0,0,0,4.84-1.28.29.29,0,0,1,.44.19A15.34,15.34,0,0,1,131.61,88.09Z"/><path d="M145.58,87.23a2.45,2.45,0,0,0,2.22,2.56,2.13,2.13,0,0,0,1.8-.94,4,4,0,0,0,.58-1.74.28.28,0,0,0-.25-.35,8.65,8.65,0,0,1-4-1.27.23.23,0,0,0-.36.19C145.59,86.09,145.57,86.71,145.58,87.23Z"/></svg>