<?xml version="1.0" encoding="utf-8"?>
<!-- Generator: Adobe Illustrator 23.0.2, SVG Export Plug-In . SVG Version: 6.00 Build 0)  -->
<svg version="1.1" id="레이어_1" xmlns="http://www.w3.org/2000/svg" xmlns:xlink="http://www.w3.org/1999/xlink" x="0px"
	 y="0px" viewBox="0 0 264 364" style="enable-background:new 0 0 264 364;" xml:space="preserve">
<style type="text/css">
	.st0{fill:#FFFFFF;}
	.st1{fill:#00A2E7;}
	.st2{fill:#008AC4;}
	.st3{fill:#0078AB;}
	.st4{fill:#673101;}
	.st5{fill:#FFB400;}
	.st6{fill:#DD9900;}
	.st7{fill:#FFE4A9;}
	.st8{fill:#FFC0BB;}
</style>
<title>자산 20</title>
<path class="st0" d="M150.2,294.2c0.2-1.1,0.6-3.5,0.9-6.4C150.9,290,150.6,292.1,150.2,294.2z"/>
<path class="st0" d="M151.7,279.8l0.1-1.4h-0.1C151.7,278.9,151.7,279.4,151.7,279.8z"/>
<path class="st1" d="M160.4,289.8c-0.3,2.7-0.7,5.4-1.3,8.1C159.6,295,160.1,292.3,160.4,289.8z"/>
<g>
	<path class="st2" d="M193.4,326.6L193.4,326.6c-0.2-1.7-0.5-3.3-1-4.9c-1.6-4.4-4.6-8.2-8.4-10.8c-2.2-1.5-4.8-2.6-7.4-3.2l0,0
		h-0.2h-0.2c-7.5-1.5-16.7,0.9-20.3,1.9c0.2-0.6,0.4-1.2,0.6-1.8l0.4-1.2c0.9-2.8,1.6-5.6,2.1-8.5c0-0.1,0-0.1,0-0.2
		c0.6-2.7,1-5.4,1.3-8.1c0.1-0.8,0.2-1.6,0.3-2.3c0.3-2.6,0.4-5.3,0.5-8c0-0.2,0-0.4,0-0.6s0-0.3,0-0.5c-5.9,0.2-9.3,0-9.3,0v0.4
		c0,2.2-0.1,4.4-0.4,6.6c-0.1,0.8-0.2,1.6-0.3,2.4c-0.4,2.8-0.7,5.2-0.9,6.4c0,0.2,0,0.4-0.1,0.5c-0.5,2.4-1.1,4.9-1.8,7.2
		c-0.2,0.6-0.4,1.2-0.6,1.9c-0.7,2.2-1.5,4.4-2.5,6.5v0.1c-0.2,0.7-0.5,1.3-0.8,1.9v21.8h48.5c0.5-1.8,0.7-3.6,0.8-5.4
		C193.5,328.1,193.5,327.3,193.4,326.6z"/>
	<path class="st0" d="M161.1,278.5c0.2-12.3-1.7-24.6-5.6-36.3c-2.1-6.3-11.2-3.6-9.1,2.8c3.6,10.8,5.3,22.2,5.2,33.6h0.1l0,0
		C151.8,278.5,155.3,278.7,161.1,278.5z"/>
	<g>
		<path class="st3" d="M188.7,315.2c-1.4-1.7-3-3.1-4.8-4.3c-6.5-0.7-10.1,1.2-10.7,1.6l2.1,3C179.6,313.8,184.3,313.7,188.7,315.2z
			"/>
		<path class="st3" d="M193.4,326.6c-0.1-1.6-0.5-3.3-1-4.9c-9.6-2.5-14.2,0.3-14.9,0.7l2.4,3.6C180,326,184.1,323.6,193.4,326.6z"
			/>
	</g>
	<path class="st1" d="M161.1,278.9v-0.4l0,0C161.1,278.6,161.1,278.8,161.1,278.9L161.1,278.9z"/>
	<path class="st1" d="M161.1,279.5c-0.1,2.7-0.3,5.3-0.5,8C161,283.9,161.1,281,161.1,279.5z"/>
</g>
<path class="st1" d="M144.3,278.9c0-0.3,0-0.4,0-0.4l0,0C144.3,278.6,144.3,278.8,144.3,278.9L144.3,278.9z"/>
<path class="st1" d="M143.5,289.8c-0.3,2.7-0.7,5.4-1.3,8.1C142.8,295,143.2,292.3,143.5,289.8z"/>
<path class="st1" d="M144.3,279.5c-0.1,2.7-0.3,5.3-0.5,8C144.2,283.9,144.3,281,144.3,279.5z"/>
<g>
	<path class="st0" d="M133.4,294.2c0.2-1.1,0.6-3.5,0.9-6.4C134.1,290,133.8,292.1,133.4,294.2z"/>
	<path class="st1" d="M176.6,326.6L176.6,326.6c-0.2-1.7-0.5-3.3-1-4.9c-1.6-4.4-4.6-8.2-8.4-10.8c-2.2-1.5-4.8-2.6-7.4-3.2l0,0
		c-0.1,0-0.1,0-0.2,0h-0.2c-7.5-1.5-16.7,0.9-20.3,1.9c0.2-0.6,0.4-1.2,0.6-1.8c0.1-0.4,0.2-0.8,0.4-1.2c0.9-2.8,1.6-5.6,2.2-8.4
		c0-0.1,0-0.1,0-0.2c0.6-2.7,1-5.4,1.3-8.1c0.1-0.8,0.2-1.6,0.3-2.3c0.3-2.6,0.5-5.3,0.5-8c0-0.2,0-0.4,0-0.6s0-0.3,0-0.5
		c-5.9,0.2-9.3,0-9.3,0v0.4c0,2.2-0.1,4.4-0.4,6.6c-0.1,0.8-0.2,1.6-0.3,2.4c-0.3,2.8-0.7,5.2-0.9,6.4c0,0.2-0.1,0.4-0.1,0.5
		c-0.5,2.5-1.1,4.9-1.8,7.2c-0.2,0.6-0.4,1.2-0.6,1.9c-0.7,2.2-1.5,4.4-2.5,6.5v0.1c-0.2,0.7-0.5,1.3-0.8,1.9v21.8H176
		c0.5-1.8,0.7-3.6,0.8-5.4C176.7,328.1,176.7,327.3,176.6,326.6z"/>
	<path class="st0" d="M135,278.5c0,0,3.5,0.2,9.3,0c0.2-12.3-1.7-24.6-5.5-36.3c-2.1-6.3-11.2-3.6-9.1,2.8c4.3,13.1,6,26.8,4.9,40.6
		c0.2-2.2,0.4-4.4,0.4-6.6L135,278.5L135,278.5z"/>
	<g>
		<path class="st2" d="M171.9,315.2c-1.4-1.7-3-3.1-4.8-4.3c-6.5-0.7-10.1,1.2-10.7,1.6l2.1,3C162.8,313.8,167.5,313.7,171.9,315.2z
			"/>
		<path class="st2" d="M176.6,326.6c-0.1-1.6-0.5-3.3-1-4.9c-9.6-2.5-14.2,0.3-14.9,0.7l2.5,3.6C163.2,326,167.3,323.6,176.6,326.6z
			"/>
	</g>
</g>
<g>
	<path class="st0" d="M131.1,75c-0.1,0-0.2-0.1-0.3-0.1c-4.5-2.3-6.3-7.7-4-12.2l0,0c1.8-3.5,1.3-8.7,1-10.3
		c-0.4-1.5-1.3-3.7-2.7-4.1c-3-1-9.8,2-13.4,4.6c-4.3,2.6-9.9,1.2-12.5-3.1c-2.3-3.8-1.5-8.7,1.9-11.6c1.7-1.2,16.6-11.7,29.9-7
		c4.9,1.7,11.3,5.9,14.3,16.6l0.2,0.6c0.3,1.3,2.5,12.7-2.6,22.7C140.8,75.3,135.5,77.1,131.1,75z"/>
	<path class="st4" d="M114.2,47.2c-0.6-0.3-1.3-0.4-2-0.3c0.9-0.3,1.6-1,2-1.8c0.9-1.8,0.1-3.9-1.6-4.8c-0.8-0.4-1.8-0.5-2.7-0.2
		c1.8-0.8,2.6-2.9,1.9-4.7c-0.4-0.8-1-1.5-1.8-1.8c-0.2-0.1-0.3-0.1-0.5-0.1c-2.9,1.3-5.6,2.9-8.2,4.7c-4,3.1-4.7,8.8-1.6,12.7
		c2.9,3.8,8.3,4.6,12.3,1.9c1.4-1,2.9-1.8,4.4-2.6C116.2,48.9,115.4,47.7,114.2,47.2z"/>
</g>
<g>
	<path class="st0" d="M162.6,73.9c0.1,0,0.2-0.1,0.3-0.1c4.8-1.2,7.8-6.2,6.6-11c-1-3.8,0.6-8.8,1.3-10.3s2.1-3.3,3.5-3.4
		c3.2-0.4,9.1,4.2,12,7.4c3.3,3.8,9.1,4.1,12.8,0.8s4.1-9.1,0.8-12.8c-1.3-1.5-13.6-15-27.6-13.5c-5.1,0.5-12.3,3.2-17.7,13
		l-0.3,0.5c-0.6,1.2-5.3,11.8-2.5,22.7C153,72,157.8,74.9,162.6,73.9z"/>
	<path class="st4" d="M185.2,50.5c0.7-0.1,1.4-0.1,2.1,0.2c-1.7-1.1-2.2-3.3-1.1-5c1-1.6,3.2-2.2,4.9-1.2c-0.7-0.5-1.2-1.2-1.4-2.1
		c-0.4-2,0.8-3.9,2.8-4.3l0,0c0.2,0,0.4,0,0.5,0c2.5,1.9,4.9,4.1,7,6.4c3.3,3.8,2.9,9.5-0.8,12.8s-9.5,2.9-12.8-0.8
		c-1.1-1.3-2.4-2.4-3.8-3.5C182.9,51.7,183.9,50.7,185.2,50.5z"/>
</g>
<g>
	<path class="st0" d="M151.2,157.8c0,0-8.9,32.2,12.2,61.5c0,0,10.7,15.3,26.4,17.4c0,0,8.6,0.2,10.3-8.2c0,0,0-3.6-4.3-6
		c-1.3-0.6-2.6-1.1-4-1.3c0,0-22.7-6.1-27.8-33c0,0-2.9-14.9-0.8-27.4c0.2-2.1-0.2-4.1-1-6c0,0-1.6-2.4-6.3-1.4
		C155.9,153.4,151.9,154.7,151.2,157.8z"/>
	<path class="st3" d="M159.4,212.9c0,0,5.2,0,13.3-5.1c0,0,4.4,5.6,9,8.4c0,0,6.5,3.9,10,5c0,0,7,0.4,8.3,6.1c0.8,3.5-2.8,9-9.6,9.3
		c-4,0.2-5.8,0.2-14.8-5.7C168.8,226.3,163.3,220.1,159.4,212.9z"/>
</g>
<g>
	<path class="st1" d="M200.6,66.4C198.7,61.1,174,55,174,55c-51.8-13-62.1,28.2-62.1,28.2L100.5,129L84,195.3l0,0
		c-4.9,19.8,15.3,41.9,45.1,49.2s58-2.6,62.9-22.4l15.4-61.9L200.6,66.4z"/>
	<path class="st2" d="M183.1,184.8l-6.6,26.8l0,0c-2.1,8.3,3.1,17.1,10.5,20.6c3.2-3.4,4.5-7.7,5.6-12.2c0.2-0.7,0.3-1.4,0.4-2.1
		h0.1l11.4-46.1C195.1,169.5,185.5,175.3,183.1,184.8C183.2,184.8,183.1,184.8,183.1,184.8z"/>
</g>
<g>
	<path class="st5" d="M95.8,148.2l0.8-3.2l-10.3-2.6c-3.6-3.9,0.5-9.9,0.5-9.9l0,0c9.1-10.8,7.8-27-3.1-36.1s-27-7.8-36.1,3.1
		c-4.8,5.6-6.9,13.1-5.7,20.4l0,0v0.1c0,0,0,0,0,0.1c0.1,0.8,1.3,10.1,6.2,16.3c0,0-4.9,1.7-11.2,8.8c-0.2,0.2-0.3,0.4-0.5,0.6
		s-0.3,0.4-0.5,0.6l0,0c-2.4,2.9-4.2,6.4-5.1,10.1c-3.4,13.7,5,27.6,18.7,31s27.6-5,31-18.7c1-4.1,1-8.3,0-12.4
		c0.1-2.5,0.1-6.5,4.2-7.6l10.3,2.6L95.8,148.2L95.8,148.2z M68,110.5c6.3,1.6,8,5.4,6.4,11.7c-1.6,6.3-5,9.6-11.3,8
		s-7.6-6-6.1-12.3S61.8,108.9,68,110.5z M53.8,167.8c-6.3-1.6-7.8-5.3-6.2-11.6s4.8-9.6,11.1-8s7.8,6.1,6.3,12.4
		S60.1,169.4,53.8,167.8z"/>
	<path class="st6" d="M95.7,155.6c-0.2,0.9-1.1,1.4-2,1.2l0,0l0,0c-0.9-0.2-1.4-1.1-1.2-2l0,0l3.7-14.8c0.2-0.9,1.1-1.4,2-1.2l0,0
		l0,0c0.9,0.2,1.4,1.1,1.2,1.9c0,0,0,0,0,0.1L95.7,155.6z"/>
	<path class="st7" d="M86.1,124.8c-0.2,0-0.3,0-0.5-0.1c-1.3-0.3-2-1.5-1.8-2.8c1.8-7.5-0.7-15.3-6.7-20.2c-1-0.8-1.3-2.3-0.5-3.3
		S79,97.2,80,98c7.4,6,10.7,15.7,8.4,25C88.2,124.1,87.2,124.9,86.1,124.8z"/>
</g>
<g>
	<path class="st0" d="M172.6,251.4c-3.5,1.3-7.7-0.1-10.5-3.9c-37-50.3-18.3-88.2-17.7-89.8c2.1-4.9,5.5-9.3,8.7-7.9
		c5,2.3,5,10.8,3,15.7c-0.5,1.3-8.9,31.4,19.2,69.6c3.4,4.7,3.3,11.2-0.4,14.6C174.3,250.5,173.5,251,172.6,251.4z"/>
	<path class="st2" d="M172.6,251.4c0.9-0.4,1.7-0.9,2.4-1.5c3.6-3.4,3.8-9.9,0.4-14.6c-7.6-10.1-13.4-21.4-17.2-33.4
		c-5.8,0.1-11.4,2.1-16,5.7c3.2,11.9,9.2,25.4,19.9,40C164.9,251.3,169.1,252.7,172.6,251.4z"/>
</g>
<path class="st0" d="M191.5,60.5c33.2,12.1,29.7,43.3,29.1,48.7c9.8,4.3,14,15.2,11.7,26.5l-0.5,2.4c-3.4,16.9-19.9,27.8-36.8,24.4
	l0,0l-11.6-2.4c-29.8-6.1-42.5-31.5-37-58.6S171.2,53.5,191.5,60.5z"/>
<path class="st8" d="M205.9,129.4c-2,9.7-11.4,15.9-21.1,14c-9.7-2-15.9-11.4-14-21.1c2-9.7,11.4-15.9,21.1-14l0,0
	C201.6,110.3,207.8,119.8,205.9,129.4z"/>
<g>
	<path d="M233.9,123.8c0.2,1.3-0.1,2.3-1.1,2.8s-2.6-0.9-2.8-2.2s0.4-2.9,1.7-2.9S233.7,122.8,233.9,123.8z"/>
	<path d="M210.9,112.7l0.1-0.4c0.4-2,2.3-3.3,4.3-2.9l0,0c2,0.4,3.3,2.3,2.9,4.3l-0.1,0.4c-0.4,2-2.3,3.3-4.3,2.9l0,0
		C211.8,116.7,210.5,114.7,210.9,112.7z"/>
	<path d="M220.8,137.5c4.6,0.9,9.1-0.9,11.4-2.2c0.6,1.2,1.2-0.7,1.3-1.7c0-0.8,0-1.5-0.3-2.2c-0.1-0.1-0.2-0.2-0.3-0.3
		c-0.4,0-0.7,0.1-1,0.4c-0.1,0-5.4,3.8-10.6,2.6c-2.8-0.7-5.2-2.7-7-6.1c-0.6-0.8-1.6-1-2.4-0.4c-0.6,0.5-0.9,1.3-0.6,2
		c2.3,4.3,5.4,6.9,9.3,7.8L220.8,137.5z"/>
</g>
</svg>
