<?xml version="1.0" encoding="utf-8"?>
<!-- Generator: Adobe Illustrator 23.0.2, SVG Export Plug-In . SVG Version: 6.00 Build 0)  -->
<svg version="1.1" id="레이어_1" xmlns="http://www.w3.org/2000/svg" xmlns:xlink="http://www.w3.org/1999/xlink" x="0px"
	 y="0px" viewBox="0 0 231 346" style="enable-background:new 0 0 231 346;" xml:space="preserve">
<style type="text/css">
	.st0{fill:#FFFFFF;}
	.st1{fill:#008AC4;}
	.st2{fill:#00A2E7;}
	.st3{fill:none;}
	.st4{fill:#673101;}
	.st5{fill:#FFC0BB;}
	.st6{fill:#A9DEEA;}
</style>
<g>
	<path class="st0" d="M188.4,245.2c3.8-0.1,7.2-3,8.4-7.7c15.6-61.9-16.4-90.6-17.6-91.8c-3.8-3.9-8.7-6.7-11.2-4.1
		c-3.9,4.1-0.6,12.1,3.2,16c0.9,1,20.3,26.3,8.5,73.4c-1.5,5.8,1.2,11.9,5.9,13.7C186.4,245,187.4,245.2,188.4,245.2z"/>
	<path class="st1" d="M183,192.6c1.1,12.9-0.1,25.9-3.4,38.4c-1.5,5.8,1.2,11.9,5.9,13.7c0.9,0.3,1.9,0.5,2.8,0.5
		c3.8-0.1,7.2-3,8.4-7.7c4.6-18.2,5-33.5,3.4-46.1C194.4,190.2,188.5,190.6,183,192.6z"/>
</g>
<title>자산 6</title>
<g>
	<path class="st0" d="M100.8,216.4c1.5-6.1-4.3-8.7-7.3-4.1c-5,13.5-8.6,29.9-8,46l9.2,0.5C94.1,245.4,97.2,231.3,100.8,216.4z"/>
	<path class="st2" d="M65.3,292c-1.7,1.1-3.2,2.5-4.6,4.1l-0.5,0.6l0,0c-1.5,1.9-2.7,4-3.5,6.3c0.6-0.2,1.2-0.3,1.8-0.4
		c-0.6,0.1-1.1,0.2-1.8,0.4l0,0c-0.5,1.6-0.9,3.3-1.1,5l0,0c-0.1,0.8-0.2,1.5-0.2,2.3c0,1.9,0.3,3.7,0.8,5.5h49.2l-0.5-20.7
		c0-0.3-9.4-20.7-10.2-36.4l-9.2-0.5c0.4,10.9,4.4,22.4,7.8,32.1c-3.9-1.1-12.8-3.2-20.1-1.8c-0.1,0-0.1,0-0.2,0h-0.2l0,0
		C70.2,289.3,67.6,290.4,65.3,292"/>
	<g>
		<path class="st3" d="M63,295.8c-0.2,0-0.4,0.2-0.7,0.2C62.6,295.9,62.8,295.8,63,295.8z"/>
		<path class="st3" d="M71.9,303.8l-2.5,3.7l0,0L71.9,303.8c-0.5-0.3-4.1-2.6-11.3-1.5C67.8,301.2,71.4,303.4,71.9,303.8z"/>
		<path class="st3" d="M67.8,295.3L67.8,295.3z"/>
		<path class="st3" d="M62,306.6l-0.6,0.1L62,306.6z"/>
		<path class="st1" d="M62.4,296c0.2-0.1,0.4-0.2,0.7-0.2c1.6-0.4,3.2-0.6,4.8-0.5H68c2.1,0.1,4.2,0.6,6.2,1.5l2.2-3.2
			c-0.5-0.3-4.2-2.4-10.9-1.6c-1.7,1.1-3.2,2.5-4.6,4.1c-0.2,0.2-0.3,0.4-0.5,0.6l0,0C61,296.4,61.7,296.2,62.4,296z"/>
		<path class="st1" d="M62,306.6c5-0.5,7.4,0.8,7.4,0.8l2.5-3.7c-0.5-0.3-4.1-2.6-11.3-1.5c-1.3,0.2-2.5,0.4-3.8,0.8l0,0
			c-0.5,1.6-0.9,3.3-1.1,5c0.3-0.1,0.6-0.2,0.9-0.2c1.5-0.5,3.1-0.8,4.7-1.1L62,306.6z"/>
		<path class="st2" d="M60.3,296.7L60.3,296.7l0.5-0.6L60.3,296.7z"/>
		<path class="st2" d="M60.8,296l-0.5,0.6l0,0C60.5,296.5,60.6,296.2,60.8,296z"/>
		<path class="st2" d="M60.3,296.7L60.3,296.7c0.7-0.3,1.3-0.5,2-0.7C61.6,296.2,61,296.4,60.3,296.7z"/>
		<path class="st2" d="M67.8,295.3c-1.6-0.1-3.2,0.1-4.8,0.5C64.6,295.4,66.2,295.2,67.8,295.3z"/>
		<path class="st2" d="M67.9,295.3c2.1,0.1,4.2,0.6,6.2,1.5l0,0C72.1,295.9,70,295.4,67.9,295.3z"/>
		<path class="st2" d="M56.6,307.8c1.5-0.5,3.1-0.8,4.7-1.1C59.7,307,58.2,307.3,56.6,307.8z"/>
		<path class="st2" d="M60.5,302.2c-1.3,0.2-2.5,0.4-3.8,0.8l0,0C58,302.7,59.3,302.4,60.5,302.2z"/>
		<path class="st2" d="M62,306.6c5-0.5,7.4,0.8,7.4,0.8l0,0C69.4,307.5,67,306.1,62,306.6z"/>
	</g>
</g>
<g>
	<path class="st0" d="M128.5,216.4c-1.5-6.1,4.3-8.7,7.3-4.1c5,13.5,8.6,29.9,7.9,46l-9.1,0.5C135.3,245.4,132.1,231.3,128.5,216.4z
		"/>
	<path class="st2" d="M173.6,308L173.6,308c-0.2-1.7-0.5-3.4-1.1-5l0,0c-0.8-2.3-2-4.4-3.5-6.3l0,0l-0.5-0.6
		c-1.3-1.6-2.9-2.9-4.5-4.1l0,0c-2.3-1.5-4.8-2.7-7.5-3.3l0,0h-0.2c-0.1,0-0.1,0-0.2,0c-7.3-1.4-16.2,0.7-20.1,1.8
		c3.3-9.7,7.3-21.2,7.8-32.1l-9.1,0.5c-0.8,15.6-10.2,36-10.2,36.4L124,316h49.2c0.8-2.5,1-5.2,0.6-7.9L173.6,308z"/>
	<g>
		<path class="st3" d="M166.3,295.8c0.2,0,0.4,0.2,0.6,0.2C166.8,295.9,166.5,295.8,166.3,295.8z"/>
		<path class="st3" d="M157.4,303.8l2.5,3.7l0,0L157.4,303.8c0.5-0.3,4-2.6,11.4-1.5C161.5,301.2,157.9,303.4,157.4,303.8z"/>
		<path class="st3" d="M161.5,295.3L161.5,295.3z"/>
		<path class="st3" d="M167.4,306.6l0.6,0.1L167.4,306.6z"/>
		<path class="st1" d="M167,296c-0.2-0.1-0.4-0.2-0.6-0.2c-1.6-0.4-3.2-0.6-4.8-0.5h-0.1c-2.1,0.1-4.2,0.6-6.2,1.5l-2.2-3.2
			c0.5-0.3,4.2-2.4,10.9-1.6c1.7,1.1,3.2,2.5,4.6,4.1c0.2,0.2,0.3,0.4,0.5,0.6l0,0C168.4,296.4,167.7,296.2,167,296z"/>
		<path class="st1" d="M167.4,306.6c-5-0.5-7.4,0.8-7.4,0.8l-2.5-3.7c0.5-0.3,4-2.6,11.4-1.5c1.3,0.2,2.5,0.4,3.8,0.8l0,0
			c0.5,1.6,0.9,3.3,1.1,5c-0.3-0.1-0.6-0.2-0.9-0.2c-1.5-0.5-3.1-0.8-4.7-1.1L167.4,306.6z"/>
		<path class="st2" d="M169,296.7L169,296.7l-0.5-0.6L169,296.7z"/>
		<path class="st2" d="M168.6,296l0.5,0.6l0,0C168.9,296.5,168.7,296.2,168.6,296z"/>
		<path class="st2" d="M169,296.7L169,296.7c-0.7-0.3-1.3-0.5-2-0.7C167.7,296.2,168.3,296.4,169,296.7z"/>
		<path class="st2" d="M161.5,295.3c1.6-0.1,3.2,0.1,4.8,0.5C164.7,295.4,163.1,295.2,161.5,295.3z"/>
		<path class="st2" d="M161.4,295.3c-2.1,0.1-4.2,0.6-6.2,1.5l0,0C157.2,295.9,159.3,295.4,161.4,295.3z"/>
		<path class="st2" d="M172.7,307.8c-1.5-0.5-3.1-0.8-4.7-1.1C169.6,307,171.2,307.3,172.7,307.8z"/>
		<path class="st2" d="M168.8,302.2c1.3,0.2,2.5,0.4,3.8,0.8l0,0C171.3,302.7,170.1,302.4,168.8,302.2z"/>
	</g>
</g>
<g>
	<path class="st0" d="M100.9,74l-0.3-0.1c-5-1.3-7.9-6.4-6.6-11.4c1-3.9-0.6-9-1.2-10.5c-0.8-1.4-2.1-3.4-3.6-3.5
		c-3.3-0.4-9.3,4.2-12.3,7.5c-3.4,3.8-9.2,4.1-13,0.7l0,0c-3.8-3.4-4.2-9.3-0.8-13.1C64.5,42,77,28.3,91.3,30
		c5.2,0.6,12.5,3.5,17.9,13.5l0.3,0.5c0.6,1.2,5.3,12.1,2.4,23.3C110.7,72.2,105.8,75.1,100.9,74z"/>
	<path class="st4" d="M78.1,49.8c-0.7-0.1-1.4,0-2.1,0.2c0.8-0.5,1.4-1.3,1.6-2.3c0.4-2-0.8-4-2.8-4.5c-0.9-0.2-1.8,0-2.6,0.4
		c1.7-1.2,2.1-3.4,0.9-5.1c-0.6-0.8-1.4-1.4-2.4-1.5c-0.2,0-0.4,0-0.5,0c-2.6,1.9-5,4.1-7.2,6.5c-3.4,3.8-3,9.7,0.8,13.1
		c3.8,3.4,9.6,3.1,13-0.7l0,0c1.2-1.3,2.5-2.5,3.8-3.5C80.4,51.1,79.4,50.1,78.1,49.8z"/>
</g>
<g>
	<path class="st0" d="M137.4,76.2l0.3-0.1c4.9-1.3,7.9-6.4,6.6-11.4c-1-3.9,0.6-9,1.2-10.6c0.8-1.4,2.1-3.4,3.6-3.5
		c3.3-0.4,9.3,4.2,12.3,7.5c3.4,3.8,9.2,4.1,13,0.7l0,0c3.8-3.4,4.1-9.3,0.8-13.1c-1.4-1.6-13.9-15.2-28.2-13.5
		c-5.2,0.6-12.5,3.5-17.9,13.5l-0.3,0.5c-0.6,1.2-5.3,12.1-2.4,23.3C127.6,74.4,132.5,77.4,137.4,76.2z"/>
	<path class="st4" d="M160.2,52c0.7-0.1,1.4-0.1,2.1,0.2c-1.7-1.1-2.3-3.4-1.2-5.1c1-1.7,3.2-2.2,5-1.3c-0.7-0.5-1.2-1.3-1.4-2.1
		c-0.5-2,0.8-4,2.8-4.5c0.2,0,0.4,0,0.6,0c2.6,1.9,5,4.1,7.2,6.5c3.4,3.8,3,9.7-0.8,13.1c-3.8,3.4-9.6,3.1-13-0.7
		c-1.2-1.3-2.5-2.5-3.9-3.5C157.9,53.4,158.9,52.3,160.2,52z"/>
</g>
<g>
	<path class="st0" d="M42.7,245.2c-3.8-0.1-7.2-3-8.4-7.7c-15.6-61.9,16.4-90.6,17.6-91.8c3.8-3.9,8.7-6.7,11.2-4.1
		c3.9,4.1,0.6,12.1-3.2,16c-0.9,1-20.3,26.3-8.5,73.4c1.5,5.8-1.2,11.9-5.9,13.7C44.6,245,43.6,245.2,42.7,245.2z"/>
	<path class="st1" d="M48,192.6c-1.1,12.9,0.1,25.9,3.4,38.4c1.5,5.8-1.2,11.9-5.9,13.7c-0.9,0.3-1.9,0.5-2.8,0.5
		c-3.8-0.1-7.2-3-8.4-7.7c-4.6-18.2-5-33.5-3.4-46.1C36.6,190.2,42.5,190.6,48,192.6z"/>
</g>
<g>
	<path class="st2" d="M115.8,46.8c-54.2-0.1-56.5,43.3-56.5,43.3v113.3h0.2c-0.1,0.7-0.2,1.5-0.2,2.2c0,20.9,25.3,37.7,56.5,37.7
		s56.5-16.9,56.5-37.7c0-0.7-0.1-1.5-0.2-2.2h0.2V90.6C173.5,45.2,115.8,46.8,115.8,46.8z"/>
	<path class="st1" d="M133.8,172.4c0.2-9.9-7.6-18.1-17.5-18.4c-9.9-0.2-18.1,7.6-18.4,17.5c0,0.3,0,0.6,0,0.8v28.2l0,0
		c-0.7,9.9,6.7,18.6,16.6,19.3s18.6-6.7,19.3-16.6c0.1-0.9,0.1-1.8,0-2.7V172.4L133.8,172.4z"/>
</g>
<path class="st0" d="M171.3,90.4c-0.9-25.6-20-35.8-35.9-39.5c-2-0.5-8.4-1.6-9.9-1.7c-3.8-0.4-7.6-0.6-11.4-0.5
	C85,49,61.4,70.3,60.7,96.7l0,0c0,0-5.1,42,42.6,49.5c3.8,0.6,7.6,0.8,11.5,0.8h34.1c16.9,0,31.6-16.1,31.6-33.1l0,0
	C180.5,104.2,178.5,96,171.3,90.4z"/>
<g>
	<path class="st5" d="M99.1,109.3C99,118,91.9,125,83.3,124.9s-15.7-7.2-15.6-15.8s7.1-15.6,15.7-15.6
		C92.1,93.5,99.1,100.6,99.1,109.3z"/>
	<path class="st5" d="M176,109.3c-0.1,8.7-7.2,15.7-15.8,15.6c-8.7-0.1-15.7-7.2-15.6-15.8c0.1-8.6,7.1-15.6,15.7-15.6
		C169,93.5,176,100.6,176,109.3z"/>
</g>
<g>
	<path d="M123.3,104.5c-0.1,1.2-1.2,2.1-2.4,2s-2.1-1.2-2-2.4c0.1-1.1,1.1-2,2.2-2C122.4,102.2,123.4,103.2,123.3,104.5L123.3,104.5
		z"/>
	<path d="M132,95.6l6,2.4c0,0.1,0,0.2,0,0.2v0.5c0.1,2-1.4,3.7-3.4,3.8c-2,0.1-3.7-1.4-3.8-3.4c0-0.1,0-0.3,0-0.4v-0.5
		C130.8,97.2,131.3,96.3,132,95.6z"/>
	<path d="M109.4,119.1c-1,0-2-0.1-2.9-0.2c-0.8-0.2-1.3-1.1-1.1-1.9c0.2-0.8,1-1.3,1.8-1.2c5.1,0.9,10.2-1.5,12.7-6.1
		c0.4-0.8,1.4-1,2.2-0.6c0.3,0.2,0.5,0.4,0.7,0.8c0.1,0.2,2.6,5.6,13.2,5.4c0.9,0,1.6,0.7,1.6,1.6s-0.7,1.6-1.6,1.6
		c-8.4,0.2-12.7-2.9-14.7-5.1C118.4,116.9,114,119.1,109.4,119.1z"/>
	<path d="M108.4,95.6l-6,2.4c0,0.1,0,0.2,0,0.2v0.5c0,2,1.6,3.6,3.6,3.6s3.6-1.6,3.6-3.6v-0.5C109.6,97.2,109.2,96.3,108.4,95.6z"/>
</g>
<path class="st6" d="M90.7,79.9l-0.1-4.7c0-0.9-0.7-1.6-1.6-1.6s-1.6,0.7-1.6,1.6l0.1,4.3c0.1,0.9-0.6,1.6-1.4,1.7
	c-0.9,0.1-1.6-0.6-1.7-1.4c0-0.1,0-0.2,0-0.2l-0.1-4.3c0-0.9-0.7-1.6-1.6-1.6s-1.6,0.7-1.6,1.6l0,0l0.1,4.7c0,0.1,0,0.2,0.1,0.3
	c0.4,2.6,2.8,4.3,5.4,3.9c2.1-0.3,3.7-2,3.9-4.1C90.7,80.1,90.7,80,90.7,79.9z"/>
</svg>
