<?xml version="1.0" encoding="utf-8"?>
<!-- Generator: Adobe Illustrator 24.1.1, SVG Export Plug-In . SVG Version: 6.00 Build 0)  -->
<svg version="1.1" id="Layer_1" xmlns="http://www.w3.org/2000/svg" xmlns:xlink="http://www.w3.org/1999/xlink" x="0px" y="0px"
	 viewBox="0 0 960 540" style="enable-background:new 0 0 960 540;" xml:space="preserve">
<path style="fill:#666666;" d="M0,0v540h960V0H0z M643.19,208.45c0.43-0.14,0.94-0.21,1.52-0.22c13.84-0.2,66.93,42.58,100.4,62.04
	c-19.19,6.01-50.82,14.23-73.26,19.48c-22.11-25.12-51.81-51.48-63.89-64.76c-3.58-3.95-5.72-6.22-5.72-6.22L643.19,208.45z
	 M446.56,404.46c-16.69,4.13-36.63,6.18-58.42,6.49c-110.79,1.59-269.25-41.72-289.97-84.94c-7.89-16.49,1.51-52.24,12.91-64.81
	c1.2-1.34,2.24-2.45,3.07-3.32c57.63,104.69,252.63,99.19,284.1,103.62c1.05,0.15,2.06,0.21,3.02,0.2
	c27.84-0.4,18.82-66.04,18.82-66.04l37.32-15.31c0,0,14.45,21.01,38.77,55.67c13.67,19.43,24.81,43.39,24.81,43.39
	S495.35,392.38,446.56,404.46z M687.66,336.48c0,0-121.91,36.35-145.92,36.69c-2.64,0.04-4.1-0.36-4.08-1.29
	c0.21-9.35-62.38-98.03-62.38-98.03l113.14-51.96c0,0,36.52,39.91,72.77,68.24c0.77,0.62,1.5,1.2,2.22,1.8
	c-19.97,3.87-39.03,6.43-54.83,6.66c-14.14,0.2-25.67-1.46-32.93-5.74c-4.63-2.74-7.18-6.44-7.79-11.31
	c-1.83-14.87,6.25-27.9,13.32-36.23c2.1-2.45,2.06-5.82-0.1-8.42c-1.57-1.9-3.91-2.93-6.28-2.9c-0.88,0.01-1.76,0.17-2.62,0.49
	c-13.28,4.83-31.69,12.51-44.11,21.7l-0.42,0.32c-2.33,1.99-22.84,20.03-20.17,40.3c1.36,10.38,8.43,19.36,20.96,26.68
	c1.02,0.6,2.01,1.17,3.06,1.69c17.48,9.27,38.47,12.76,60.83,12.44c30.76-0.44,64.09-8.09,94.29-17.79
	C690.92,330.43,687.66,336.48,687.66,336.48z M723.56,343.65c-9.38,0.13-15.11-2.57-14.12-9.83c0.67-4.75-1.14-10.56-4.63-17
	c32.49-11.84,64.6-24.85,77.05-31.21c2.34,0.4,4.66,0.56,6.93,0.52c22.56-0.32,50.26-30.28,50.26-30.28l19.32,51.33
	C858.38,307.19,754.8,343.21,723.56,343.65z"/>
<path style="fill:#FFFFFF;" d="M672.71,166.82c5.12,1.1,10.38,1.71,15.82,1.66c20.95-0.21,41.4-5.33,61.73-9.96
	c13.57-3.09,51.74-10.12,50.62-30.52c-1.92-35.07,18.87-41.92,30.7-38.96c11.83,2.96,25.61,144.5,5.72,152.16
	c-7.46,7.84-26.12,26.16-46.31,26.45c-12.71,0.18-27.13-3.47-42.19-13.91c-30.84-21.37-77.64-48.07-101.96-55.12
	C649.66,190.61,661.41,177.82,672.71,166.82z"/>
<path style="fill:#FFFFFF;" d="M591.36,61.42c1.12-0.49,2.26-0.73,3.42-0.74c18.94-0.27,42.75,59.12,49.03,71.06
	c3.25,6.16,3.29,8.63,1.28,8.66c-2.12,0.03-6.54-2.66-11.89-6.58c-3.51-2.57-8.45-3.73-14.17-3.65
	c-11.22,0.16-25.43,5.1-37.61,13.52c-12.24,8.47-17.89,9.93-20.3,9.97c-1.21,0.02-1.6-0.33-1.6-0.33s-20.75-10.25-31.51-23.72
	c-6.97-8.76-4.73-20.95-7-25.49C515.2,92.64,591.36,61.42,591.36,61.42z"/>
<path style="fill:#FFFFFF;" d="M569.21,194.28c-0.28,0.19-0.65,0.28-1.09,0.29c-6.79,0.1-31.88-19.81-39.1-25.64
	c-1.26-1.03-2.04-2.44-2.21-3.92l-1.66-14.5c-0.4-3.54,2.54-6.05,5.83-6.09c1.4-0.02,2.87,0.4,4.16,1.38
	c14.5,10.95,38.08,28.82,43.15,32.95C585.7,184.77,574.41,190.72,569.21,194.28z"/>
<path style="fill:#FFFFFF;" d="M477.56,118.08c4.4-5.42,12.41-12.84,18.95-12.94c1.75-0.02,3.4,0.48,4.84,1.68
	c0,0,30.58,93.65,25.26,102.76c-2.67,4.56-5.98,7.19-9.04,7.23c-3.06,0.04-5.87-2.5-7.56-8.31
	C506.63,196.91,471.96,124.95,477.56,118.08z"/>
<path style="fill:#FFFFFF;" d="M460.17,130.39c2.28-2.92,4.32-3.87,5.99-3.9c2.97-0.04,4.79,2.84,4.79,2.84l8.96,30.15
	c0,0-12.93-12.61-23.1-14.63C446.64,142.84,453.86,138.51,460.17,130.39z"/>
<path style="fill:#FFFFFF;" d="M438.35,145.88c3.28-0.05,6.03,0.23,6.88,0.69c0,0,27.92,5.9,31.78,23.4
	c3.86,17.47,9.04,51.12,4.85,52.4c-0.97,0.3-2.56,0.44-4.41,0.46c-6.1,0.09-15.14-0.99-15.14-0.99s-25.23-57.28-36.11-66.79
	C418.43,148.23,430.05,146,438.35,145.88z"/>
<path style="fill:#FFFFFF;" d="M403.96,163.94l8.76-4.33c0.8-0.39,1.65-0.59,2.48-0.6c1.98-0.03,3.88,0.98,4.9,2.77l30.36,53.76
	l-11.38,15.89l-37.56-59.28C399.73,169.32,400.87,165.47,403.96,163.94z"/>
<path style="fill:#FFFFFF;" d="M367.53,161.08c0.12,0,0.25,0.01,0.38,0.02c1.41,0.2,4.11,0.23,6.88,0.19
	c4.33-0.06,8.84-0.29,8.84-0.29s53.13,56.39,43.43,86.36c0,0-4.55,2.14-9.61,2.21c-3.82,0.05-7.92-1.07-10.56-5.19
	c-6.15-9.58-43.04-76.31-43.04-76.31S364.26,161.13,367.53,161.08z"/>
<path style="fill:#FFFFFF;" d="M338.61,170.9c0.03,0,0.07,0,0.1,0c0.04,0,0.08,0,0.12,0c2.66-0.04,4.92-0.87,6.86-1.71
	c1.96-0.83,3.59-1.66,5.03-1.68c1.27-0.02,2.39,0.6,3.43,2.44c3.35,5.98,3.35,5.98,3.35,5.98s34.93,79.75,31.18,86.17
	c-1.33,2.29-4.34,3.06-7.67,3.11c-6.06,0.09-13.17-2.23-13.17-2.23l-34.13-83.52C333.69,179.47,330.88,171.01,338.61,170.9z"/>
<path style="fill:#FFFFFF;" d="M311.37,186.46c0.22,0,0.66,0.21,1.32,0.85c0.08,0,0.16,0.01,0.24,0.01c1.1-0.02,2.74-0.51,4.94-2.2
	c3.52-2.68,6.18-3.37,7.96-3.4c1.8-0.02,2.71,0.63,2.71,0.63l24.32,60.76l-13.65,9.62l-26.01-64.89c-0.18-0.21-0.36-0.38-0.52-0.54
	c-0.62-0.03-1.04-0.22-1.28-0.41C311.17,186.68,311.15,186.46,311.37,186.46z"/>
<path style="fill:#FFFFFF;" d="M279.19,200.54c10.98-5.41,27.05-8.81,27.05-8.81s17.73,60.63,35.36,69.29
	c17.65,8.66,33.92,10.26,33.92,10.26s6.67,5.48,12.32,5.4c3.35-0.05,6.33-2.05,7.36-8.29c2.78-16.79-6.06-15.15-0.25-16.99
	c0.49-0.16,1.03-0.23,1.61-0.24c6.18-0.09,16.8,7.73,24.78,10.02c0.34,0.1,0.7,0.14,1.08,0.14c9.06-0.13,26.21-29.9,26.21-29.9
	s8.46-3.39,12.39-3.45c0.46-0.01,0.86,0.03,1.17,0.13c2.99,0.88,10.6,9.83,10.6,9.83s23.33-0.29,24.15-11.06
	c0.85-10.78-1.81-14.31-1.81-14.31l9.04-2.08l6.83,8.4l21.06,2.04l7.14-22.17l9.46-6.24l23.2,13.02L589.9,187l-6.69-12.5
	c-3.79-7.1-1.11-15.44,6.15-18.98c8.51-4.15,20.1-8.64,30.66-8.79c5.11-0.07,9.99,0.87,14.15,3.36c7.05,4.21,14.21,8.13,21.61,11.27
	c-12.97,15.63-19.08,35.48-19.08,35.48c-1.52,0.02-2.77,0.27-3.71,0.75c-19.17,9.91-39.68,13.76-59.05,22.55
	c-21.61,9.8-43.05,19.92-64.82,29.4c-44.37,19.31-94.9,38.7-124.66,39.12c-0.91,0.01-1.8,0.01-2.68-0.02
	c-58.54-1.55-60.01-3.05-69.96-18.16C301.87,255.39,268.18,205.95,279.19,200.54z"/>
<path style="fill:#FFFFFF;" d="M873.8,397.68c-8.08,28.58-84.55,33.52-122.11,34.06c-31.44,0.45-64.86-4.2-86.26-6.03
	c-2.28-0.2-4.77-0.27-7.47-0.23c-52.82,0.76-182.53,44.26-275.53,47.84c-2.3,0.09-4.62,0.15-6.97,0.18
	c-96.25,1.38-231.6-42.21-254.78-58.39c-23.75-16.58-31.02-72.29-31.02-72.29C154,389.3,138.48,382.1,236.1,407.29
	c56.68,14.63,104.5,19.35,144.37,18.77c83.97-1.2,132.7-25.88,154.86-30.95c12.13-2.77,127.44-33.76,170.26-34.37
	c3.59-0.05,6.68,0.11,9.14,0.52c2.02,0.34,4.27,0.48,6.72,0.44c36.04-0.52,140.5-39.88,140.5-39.88S888.68,345.2,873.8,397.68z"/>
<path style="fill:#FFFFFF;" d="M675.3,317.72c-30.17,8.84-56.72,13.43-79.51,13.75c-23.87,0.34-43.62-3.99-59.06-13.01
	c-10.13-5.91-15.79-12.86-16.8-20.66c-2.21-16.81,16.84-33.2,17.66-33.87c10.63-7.84,26.24-14.66,38.56-19.33
	c-7.36,9.43-14.67,23.13-12.71,38.95c0.93,7.41,4.91,13.23,11.92,17.36c8.89,5.24,22.43,7.19,38.41,6.96
	c18.32-0.26,39.86-3.4,61.24-7.73c0,0,76.36-19.55,90.65-24.13c2.35,1.28,4.51,2.43,6.48,3.4
	C741.26,294.64,708.87,307.87,675.3,317.72z"/>
<path style="fill:#FFFFFF;" d="M399.21,335.78c-1.69,4.2-10.57,6.05-23.8,6.24c-46.9,0.67-148.43-19.5-177.44-29.4
	c-37.16-12.7-56.73-30.07-63.59-62.49c-5.21-24.63,71.97-36.41,109.32-40.63c0.81-0.09,1.62-0.14,2.43-0.15
	c9.48-0.14,18.45,5.18,22.55,13.47c8.94,18.04,27.24,43.12,42.23,62.63c9.54,12.45,29.96,15.44,48.69,15.17
	c20.48-0.29,38.95-4.49,38.95-4.49S406.85,316.68,399.21,335.78z"/>
<path style="fill:#CBCBCB;" d="M646.9,137.82c-0.26-0.31-0.53-0.61-0.81-0.91c0.75,2.42,0.31,3.47-1,3.49
	c-2.12,0.03-6.54-2.66-11.89-6.58c-3.51-2.57-8.45-3.73-14.17-3.65c-11.22,0.16-25.43,5.1-37.62,13.52
	c-12.24,8.47-17.89,9.94-20.29,9.97c-1.21,0.02-1.61-0.33-1.61-0.33s-20.75-10.24-31.51-23.71c-6.97-8.77-4.73-20.96-7-25.49
	c-0.27-0.54-0.36-1.12-0.3-1.73l-19.02,5.44c3.28,10.13,29.92,93.2,24.93,101.75c-2.67,4.56-5.98,7.19-9.04,7.24
	c-3.06,0.04-5.88-2.51-7.56-8.32c-3.03-10.38-31.14-69.17-32.96-86.28c-2.35,2.16-4.47,4.53-6.11,7.09
	c0.01,0.01,0.01,0.01,0.01,0.01l8.96,30.15c0,0-12.93-12.61-23.1-14.63c-1.65-0.33-2.84-0.71-3.65-1.17
	c-2.54,1.23-5.24,2.25-8.01,2.85c0.03,0.01,0.05,0.03,0.08,0.04c0,0,27.92,5.9,31.78,23.4c3.87,17.48,9.04,51.12,4.86,52.4
	c-0.98,0.3-2.56,0.44-4.41,0.46c-6.1,0.09-15.14-0.99-15.14-0.99s-25.23-57.28-36.11-66.79c-0.62-0.54-1.12-1.05-1.5-1.54
	c-1.46,0.97-5.48,3.63-8.56,5.57c1.62,0.25,3.09,1.2,3.95,2.7l30.36,53.76l-11.38,15.89l-37.56-59.28c-0.42-0.66-0.67-1.37-0.78-2.1
	l-9.86-0.81c14.19,16.75,43.6,55.18,36.18,78.13c0,0-4.56,2.14-9.61,2.21c-3.82,0.06-7.92-1.07-10.56-5.19
	c-5.63-8.76-36.97-65.34-42.28-74.93l-9.42,2.35c2.3,4.12,2.3,4.12,2.3,4.12s34.94,79.75,31.18,86.18
	c-1.33,2.29-4.34,3.06-7.67,3.11c-6.06,0.09-13.17-2.23-13.17-2.23l-34.14-83.52c0,0-0.01-0.03-0.03-0.1l-4.95,3.4l24.16,60.34
	l-13.66,9.62l-25.45-63.47l-7.3,2.73l-0.13,0.04c1.37,4.59,18.37,60.69,35.27,68.99c17.64,8.66,33.92,10.26,33.92,10.26
	s6.67,5.48,12.32,5.4c3.34-0.05,6.33-2.05,7.36-8.29c2.78-16.79-6.06-15.15-0.25-16.99c0.49-0.16,1.03-0.24,1.61-0.25
	c6.18-0.08,16.8,7.73,24.78,10.03c0.34,0.09,0.7,0.14,1.07,0.13c9.06-0.13,26.21-29.9,26.21-29.9s8.46-3.39,12.4-3.44
	c0.46-0.01,0.85,0.03,1.17,0.13c3,0.88,10.6,9.83,10.6,9.83s23.33-0.29,24.15-11.07c0.85-10.78-1.81-14.3-1.81-14.3l9.04-2.08
	l6.83,8.39l21.07,2.04l7.13-22.17l9.46-6.24l23.2,13.03l18.04-18.52l-6.69-12.51c-3.8-7.1-1.11-15.43,6.15-18.98
	c8.51-4.15,20.1-8.64,30.66-8.79c5.11-0.07,9.98,0.87,14.15,3.36c4.34,2.59,8.72,5.07,13.18,7.33
	C647.44,156.77,649.54,140.94,646.9,137.82z M569.21,194.29c-0.28,0.18-0.64,0.28-1.09,0.28c-6.79,0.1-31.88-19.81-39.1-25.64
	c-1.26-1.03-2.04-2.43-2.21-3.92l-1.66-14.5c-0.41-3.54,2.54-6.05,5.83-6.1c1.4-0.02,2.86,0.41,4.16,1.39
	c14.5,10.95,38.08,28.82,43.15,32.95C585.7,184.77,574.41,190.72,569.21,194.29z"/>
<path style="fill:#CBCBCB;" d="M858.28,307.23c-3.61,1.25-104.04,35.99-134.72,36.43c-9.38,0.13-15.11-2.58-14.12-9.84
	c0.67-4.74-1.14-10.55-4.63-17c32.49-11.84,64.6-24.85,77.05-31.2c2.34,0.39,4.66,0.56,6.93,0.52
	c22.56-0.32,50.26-30.28,50.26-30.28s3.3-15.33,4.71-24.94c-1.56,5.54-3.68,9.21-6.45,10.28c-7.47,7.84-26.13,26.16-46.32,26.45
	c-12.71,0.18-27.12-3.47-42.19-13.9c-30.84-21.37-77.64-48.07-101.96-55.12c2.82-8.01,14.57-20.81,25.87-31.81
	c0.84,0.18,1.68,0.35,2.53,0.5l-0.93-0.7c0,0-10.07-3.85-16.95-5.07l-9.79-4.02c2.71,1.37,5.44,2.66,8.21,3.83
	c-12.96,15.63-19.08,35.48-19.08,35.48c-1.52,0.02-2.77,0.27-3.71,0.75c-19.17,9.92-39.68,13.76-59.05,22.55
	c-21.61,9.81-43.05,19.92-64.82,29.4c-44.37,19.3-94.91,38.7-124.67,39.12c-0.91,0.01-1.8,0.01-2.67-0.01
	c-58.55-1.56-60.01-3.05-69.96-18.17c-9.67-14.66-41.75-61.76-33.46-69.38l-33.08,8.27c0.28-0.02,0.56-0.03,0.84-0.03
	c9.49-0.13,18.46,5.18,22.56,13.47c8.94,18.04,27.23,43.12,42.22,62.63c9.54,12.45,29.96,15.44,48.69,15.17
	c20.48-0.29,38.95-4.49,38.95-4.49s8.31,20.56,0.67,39.66c-1.69,4.21-10.57,6.05-23.8,6.24c-46.91,0.68-148.44-19.49-177.44-29.4
	c-37.16-12.7-56.73-30.07-63.59-62.49c-0.96-4.56,0.89-8.68,4.8-12.39c-18.65,14.21-25.03,20.15-25.03,20.15
	c57.63,104.69,252.63,99.18,284.1,103.61c1.05,0.15,2.05,0.21,3.02,0.2c27.84-0.4,18.81-66.04,18.81-66.04l37.32-15.3
	c0,0,14.45,21.01,38.77,55.67c13.67,19.43,24.81,43.39,24.81,43.39s-25.63,12.97-74.42,25.04c-16.69,4.13-36.63,6.18-58.42,6.49
	c-110.79,1.59-269.25-41.72-289.97-84.94c-2.91-6.07-3.47-14.76-2.44-23.93c-2.26,7.1-4.99,19.68-6.07,40.75
	C154,389.3,138.48,382.1,236.1,407.29c56.68,14.62,104.49,19.34,144.36,18.77c83.97-1.2,132.71-25.88,154.87-30.95
	c12.13-2.76,127.43-33.75,170.25-34.36c3.59-0.06,6.68,0.11,9.15,0.52c2.02,0.33,4.27,0.47,6.71,0.44
	c36.05-0.52,140.51-39.88,140.51-39.88L858.28,307.23z M765.66,276.03c2.36,1.28,4.51,2.42,6.48,3.39
	c-30.88,15.22-63.27,28.45-96.84,38.31c-30.18,8.84-56.72,13.42-79.51,13.75c-23.87,0.34-43.62-3.99-59.06-13.01
	c-10.13-5.91-15.79-12.86-16.81-20.66c-2.21-16.81,16.85-33.2,17.67-33.87c10.63-7.84,26.24-14.66,38.56-19.33
	c-7.36,9.43-14.67,23.14-12.71,38.95c0.92,7.41,4.91,13.24,11.92,17.36c8.89,5.24,22.43,7.19,38.41,6.97
	c18.32-0.27,39.85-3.4,61.24-7.74C675.01,300.15,751.37,280.6,765.66,276.03z M643.19,208.45c0.43-0.14,0.94-0.21,1.52-0.22
	c13.84-0.19,66.93,42.58,100.4,62.04c-19.19,6.01-50.82,14.23-73.26,19.48c-22.11-25.12-51.81-51.48-63.89-64.75
	c-3.58-3.96-5.72-6.22-5.72-6.22L643.19,208.45z M687.66,336.48c0,0-121.91,36.35-145.92,36.69c-2.64,0.04-4.1-0.36-4.08-1.29
	c0.2-9.35-62.38-98.03-62.38-98.03l113.14-51.96c0,0,36.52,39.9,72.77,68.24c0.77,0.62,1.5,1.2,2.22,1.8
	c-19.97,3.87-39.03,6.43-54.83,6.66c-14.14,0.2-25.68-1.47-32.93-5.74c-4.63-2.74-7.19-6.44-7.79-11.32
	c-1.82-14.86,6.26-27.9,13.33-36.22c2.09-2.45,2.05-5.82-0.1-8.42c-1.58-1.91-3.91-2.94-6.28-2.9c-0.88,0.01-1.76,0.17-2.62,0.48
	c-13.27,4.83-31.69,12.52-44.11,21.7l-0.42,0.33c-2.33,1.99-22.83,20.03-20.17,40.3c1.36,10.38,8.43,19.36,20.96,26.68
	c1.02,0.6,2.01,1.17,3.05,1.69c17.48,9.27,38.48,12.76,60.83,12.44c30.77-0.44,64.09-8.09,94.3-17.79
	C690.92,330.43,687.66,336.48,687.66,336.48z"/>
</svg>
