<?xml version="1.0" encoding="utf-8"?>
<!-- Generator: Adobe Illustrator 25.0.0, SVG Export Plug-In . SVG Version: 6.00 Build 0)  -->
<svg version="1.1" id="Layer_1" xmlns="http://www.w3.org/2000/svg" xmlns:xlink="http://www.w3.org/1999/xlink" x="0px" y="0px"
	 viewBox="0 0 200 250" style="enable-background:new 0 0 200 250;" xml:space="preserve">
<g>
	<g>
		<g>
			<g>
				<path style="fill:#181F41;" d="M161.6,219.3c-5.9,0.7-5.3,8.3-5.2,11.8c0.1,2.2,0.7,5.3-1.4,7c-1.2,1-2.9,1.4-4.6,1.2
					c-1.8-0.3-3.3-1.4-4.3-2.7c-2.5-3.5-3.1-8.3-2.9-12.2c0.1-2.1,0.5-4.2,1.2-6.2c0.3-1,0.7-2,1.2-3c0.2-0.4,1.2-2.8,1.6-2.8l9-0.8
					C155.9,211.6,161.4,214.5,161.6,219.3z"/>
			</g>
			<g>
				<path style="fill:#181F41;" d="M161.6,219.3c7.4-0.5,5.5,8.3,3.7,11.2c-2,3.2-6.6,3.7-7.9,7.5c-0.7,2-0.1,4.3,1.3,5.8
					c1.4,1.6,3.7,1.9,5.7,1.8c6.3-0.4,10.5-6,13.1-11.2c2.4-4.8,3.5-10.2,2.9-17.6l-2.4-14l-32.4,1
					C145.6,203.8,139.1,219.7,161.6,219.3z"/>
			</g>
			
				<path style="fill:none;stroke:#31458C;stroke-width:1.2387;stroke-linecap:round;stroke-linejoin:round;stroke-miterlimit:10;" d="
				M167.1,224.2c3.3,0.3,9.9,0.4,13.3-0.2"/>
		</g>
		<g>
			<g>
				<path style="fill:#181F41;" d="M38.4,219.3c5.9,0.7,5.3,8.3,5.2,11.8c-0.1,2.2-0.7,5.3,1.4,7c1.2,1,2.9,1.4,4.6,1.2
					c1.8-0.3,3.3-1.4,4.3-2.7c2.5-3.5,3.1-8.3,2.9-12.2c-0.1-2.1-0.5-4.2-1.2-6.2c-0.3-1-0.7-2-1.2-3c-0.2-0.4-1.2-2.8-1.6-2.8
					l-9-0.8C44.1,211.6,38.6,214.5,38.4,219.3z"/>
			</g>
			
				<line style="fill:none;stroke:#31458C;stroke-width:1.2387;stroke-linecap:round;stroke-linejoin:round;stroke-miterlimit:10;" x1="43.5" y1="224.1" x2="56.3" y2="222.8"/>
			<g>
				<path style="fill:#181F41;" d="M38.4,219.3c-7.4-0.5-5.5,8.3-3.7,11.2c2,3.2,6.6,3.7,7.9,7.5c0.7,2,0.1,4.3-1.3,5.8
					c-1.4,1.6-3.7,1.9-5.7,1.8c-6.3-0.4-10.5-6-13.1-11.2c-2.4-4.8-3.5-10.2-2.9-17.6l2.4-14l32.4,1
					C54.4,203.8,60.9,219.7,38.4,219.3z"/>
			</g>
			
				<path style="fill:none;stroke:#31458C;stroke-width:1.2387;stroke-linecap:round;stroke-linejoin:round;stroke-miterlimit:10;" d="
				M32.9,224.2c-3.3,0.3-9.9,0.4-13.3-0.2"/>
		</g>
		<g>
			<g>
				<path style="fill:#FFFFFF;" d="M150.2,140.9c0,0-7.4,41.5-7.4,75.9c5.7,0,26.8,0,38.3,0C181,158.5,173.7,140.9,150.2,140.9z"/>
				<g>
					<path style="fill:#B8D0FF;" d="M160.5,216.8C160,177,161,144.3,150.2,141c-0.3,1.5-7.4,42.1-7.4,75.8
						C145.7,216.8,152.8,216.8,160.5,216.8z"/>
				</g>
				<g>
					<g>
						<defs>
							<path id="SVGID_1_" d="M150.2,140.9c0,0-7.4,41.5-7.4,75.9c5.7,0,26.8,0,38.3,0C181,158.5,173.7,140.9,150.2,140.9z"/>
						</defs>
						<clipPath id="SVGID_2_">
							<use xlink:href="#SVGID_1_"  style="overflow:visible;"/>
						</clipPath>
						
							<path style="clip-path:url(#SVGID_2_);fill:none;stroke:#181F41;stroke-width:1.2387;stroke-linecap:round;stroke-linejoin:round;stroke-miterlimit:10;" d="
							M142.1,190.2l32.4,0.4c0,0,3.7-4.7,7.3-6"/>
					</g>
				</g>
				<g>
					<g>
						<defs>
							<path id="SVGID_3_" d="M150.2,140.9c0,0-7.4,41.5-7.4,75.9c5.7,0,26.8,0,38.3,0C181,158.5,173.7,140.9,150.2,140.9z"/>
						</defs>
						<clipPath id="SVGID_4_">
							<use xlink:href="#SVGID_3_"  style="overflow:visible;"/>
						</clipPath>
						<rect x="137.8" y="209.8" style="clip-path:url(#SVGID_4_);fill:#00E7AE;" width="48.1" height="7.7"/>
					</g>
					<g>
						<defs>
							<path id="SVGID_5_" d="M150.2,140.9c0,0-7.4,41.5-7.4,75.9c5.7,0,26.8,0,38.3,0C181,158.5,173.7,140.9,150.2,140.9z"/>
						</defs>
						<clipPath id="SVGID_6_">
							<use xlink:href="#SVGID_5_"  style="overflow:visible;"/>
						</clipPath>
						<g style="clip-path:url(#SVGID_6_);">
							<path style="fill:#10C6B9;" d="M160.5,216.8c0-2.4-0.1-4.8-0.1-7h-17.5c-0.1,2.4-0.1,4.7-0.1,7
								C145.7,216.8,152.8,216.8,160.5,216.8z"/>
						</g>
					</g>
				</g>
			</g>
			<g>
				<path style="fill:#FFFFFF;" d="M49.8,140.9c0,0,7.4,41.5,7.4,75.9c-5.7,0-26.8,0-38.3,0C19,158.5,26.3,140.9,49.8,140.9z"/>
				<g>
					<path style="fill:#B8D0FF;" d="M39.5,216.8C40,177,39,144.3,49.8,141c0.3,1.5,7.4,42.1,7.4,75.8
						C54.3,216.8,47.2,216.8,39.5,216.8z"/>
				</g>
				<g>
					<g>
						<defs>
							<path id="SVGID_7_" d="M49.8,140.9c0,0,7.4,41.5,7.4,75.9c-5.7,0-26.8,0-38.3,0C19,158.5,26.3,140.9,49.8,140.9z"/>
						</defs>
						<clipPath id="SVGID_8_">
							<use xlink:href="#SVGID_7_"  style="overflow:visible;"/>
						</clipPath>
						
							<path style="clip-path:url(#SVGID_8_);fill:none;stroke:#181F41;stroke-width:1.2387;stroke-linecap:round;stroke-linejoin:round;stroke-miterlimit:10;" d="
							M57.9,190.2l-32.4,0.4c0,0-3.7-4.7-7.3-6"/>
					</g>
					<g>
						<defs>
							<path id="SVGID_9_" d="M26.4,286.3c0,0-7.4-41.5-7.4-75.9c5.7,0,26.8,0,38.3,0C57.2,268.7,49.9,286.3,26.4,286.3z"/>
						</defs>
						<clipPath id="SVGID_10_">
							<use xlink:href="#SVGID_9_"  style="overflow:visible;"/>
						</clipPath>
						<rect x="14.1" y="209.7" style="clip-path:url(#SVGID_10_);fill:#00E7AE;" width="48.1" height="7.7"/>
					</g>
					<g>
						<defs>
							<path id="SVGID_11_" d="M49.8,140.9c0,0,7.4,41.5,7.4,75.9c-5.7,0-26.8,0-38.3,0C19,158.5,26.3,140.9,49.8,140.9z"/>
						</defs>
						<clipPath id="SVGID_12_">
							<use xlink:href="#SVGID_11_"  style="overflow:visible;"/>
						</clipPath>
						<g style="clip-path:url(#SVGID_12_);">
							<path style="fill:#10C6B9;" d="M39.5,216.8c0-2.4,0.1-4.8,0.1-7h17.5c0.1,2.4,0.1,4.7,0.1,7
								C54.3,216.8,47.2,216.8,39.5,216.8z"/>
						</g>
					</g>
				</g>
			</g>
			<g>
				<g>
					<g>
						<g>
							<g>
								<g>
									<g>
										<circle style="fill:#181F41;" cx="100" cy="86.1" r="72.2"/>
										<path style="fill:#181F41;" d="M49.8,140.9c0,0,15.2,17.1,15.2,26.7h35h35c0-9.6,15.2-26.7,15.2-26.7H49.8z"/>
										<g>
											<path style="fill:#FFFFFF;" d="M42.8,130.2c10.8,20.6,32.4,34.7,57.2,34.7s46.4-14.1,57.2-34.7H42.8z"/>
										</g>
										<path style="fill:#B8D0FF;" d="M144.2,147.4c5.2-4.9,9.7-10.7,13-17.2h-4.1c-3.1,5.9-7.1,11.3-11.8,16
											C142.3,146.6,143.3,147,144.2,147.4z"/>
										<path style="fill:#B8D0FF;" d="M55.8,147.4c-5.2-4.9-9.7-10.7-13-17.2h4.1c3.1,5.9,7.1,11.3,11.8,16
											C57.7,146.6,56.7,147,55.8,147.4z"/>
									</g>
									<path style="fill:#FFFFFF;" d="M100,140.9H49.8c0,0,0,45.2,19.5,73.2c4.7,7.4,12.6,13.8,15,15.7c0.5,0.4,1,0.6,1.6,0.6H100
										h14.1c0.6,0,1.2-0.2,1.6-0.6c2.4-1.9,10.3-8.3,15-15.7c19.5-28,19.5-73.2,19.5-73.2H100z"/>
									
										<line style="fill:none;stroke:#B8D0FF;stroke-width:1.2387;stroke-linecap:round;stroke-linejoin:round;stroke-miterlimit:10;" x1="49.8" y1="140.9" x2="150.2" y2="140.9"/>
									<path style="fill:#B8D0FF;" d="M145.3,140.9c0,0,0,45.2-19.5,73.2c-4.7,7.4-12.6,13.8-15,15.7c-0.5,0.4-1,0.6-1.6,0.6h5
										c0.6,0,1.2-0.2,1.6-0.6c2.4-1.9,10.3-8.3,15-15.7c19.5-28,19.5-73.2,19.5-73.2H145.3z"/>
									<polygon style="fill:#FFFFFF;" points="181.6,71.1 167.5,60.3 167.5,86.1 167.5,111.9 181.6,101.1 									"/>
									<polygon style="fill:#B8D0FF;" points="167.5,111.9 181.6,101.1 181.6,92.3 167.5,103.1 									"/>
									<polygon style="fill:#FFFFFF;" points="18.4,71.1 32.5,60.3 32.5,86.1 32.5,111.9 18.4,101.1 									"/>
									<polygon style="fill:#B8D0FF;" points="32.5,111.9 18.4,101.1 18.4,92.3 32.5,103.1 									"/>
								</g>
							</g>
							<g>
								<circle style="fill:#FFFFFF;" cx="81.7" cy="29.4" r="3.6"/>
							</g>
						</g>
						<g>
							<g>
								
									<circle style="fill:none;stroke:#FFFFFF;stroke-width:2.8904;stroke-linecap:round;stroke-linejoin:round;stroke-miterlimit:10;" cx="76" cy="81.9" r="9.7"/>
								<g>
									<g>
										
											<line style="fill:none;stroke:#FFFFFF;stroke-width:2.8904;stroke-linecap:round;stroke-linejoin:round;stroke-miterlimit:10;" x1="114.5" y1="82.9" x2="130.4" y2="73.4"/>
										
											<line style="fill:none;stroke:#FFFFFF;stroke-width:2.8904;stroke-linecap:round;stroke-linejoin:round;stroke-miterlimit:10;" x1="114.5" y1="82.9" x2="131.5" y2="89"/>
									</g>
								</g>
							</g>
						</g>
					</g>
				</g>
				<g>
					<circle style="fill:#181F41;" cx="100" cy="168.5" r="14.2"/>
					<g>
						<path style="fill:#181F41;" d="M100,154.3c-7.8,0-14.2,6.4-14.2,14.2c0,3.9,1.6,7.5,4.2,10l20.1-20.1
							C107.5,155.9,103.9,154.3,100,154.3z"/>
					</g>
					<circle style="fill:#00E7AE;" cx="100" cy="168.5" r="10.8"/>
					<path style="fill:#10C6B9;" d="M104.3,158.7c1.8,1.9,2.9,4.5,2.9,7.3c0,5.9-4.8,10.8-10.8,10.8c-1.5,0-3-0.3-4.3-0.9
						c2,2.1,4.8,3.4,7.9,3.4c5.9,0,10.8-4.8,10.8-10.8C110.8,164.1,108.1,160.4,104.3,158.7z"/>
					<path style="fill:none;stroke:#FFFFFF;stroke-width:4.955;stroke-linecap:round;stroke-miterlimit:10;" d="M99.9,161.3
						c-3.2,0.8-5.9,3.3-7,6.4"/>
				</g>
				<g>
					<path style="fill:#00E7AE;" d="M76.4,222.8c3.3,3.4,6.5,6,7.9,7c0.5,0.4,1,0.6,1.6,0.6H100h14.1c0.6,0,1.2-0.2,1.6-0.6
						c1.4-1.1,4.6-3.6,7.9-7H100H76.4z"/>
				</g>
			</g>
			<g>
				<path style="fill:#10C6B9;" d="M110.8,229.8c-0.5,0.4-1,0.6-1.6,0.6h5c0.6,0,1.2-0.2,1.6-0.6l0,0c0.1-0.1,0.2-0.1,0.3-0.2
					c0,0,0.1,0,0.1-0.1c0.1-0.1,0.1-0.1,0.2-0.2l0.1-0.1c0.1-0.1,0.2-0.1,0.2-0.2l0.1-0.1c0.1-0.1,0.2-0.2,0.3-0.2
					c0,0,0.1,0,0.1-0.1c0.1-0.1,0.2-0.2,0.4-0.3l0,0c1.6-1.3,3.8-3.3,6.1-5.6l0,0h-5C115.4,226.2,112.2,228.7,110.8,229.8z"/>
			</g>
			<path style="fill:#B8D0FF;" d="M54.7,140.9c0,0,0,45.2,19.5,73.2c4.7,7.4,12.6,13.8,15,15.7c0.5,0.4,1,0.6,1.6,0.6h-5
				c-0.6,0-1.2-0.2-1.6-0.6c-2.4-1.9-10.3-8.3-15-15.7c-19.5-28-19.5-73.2-19.5-73.2H54.7z"/>
			<g>
				<path style="fill:#10C6B9;" d="M89.2,229.8c0.5,0.4,1,0.6,1.6,0.6h-5c-0.6,0-1.2-0.2-1.6-0.6l0,0c-0.1-0.1-0.2-0.1-0.3-0.2
					c0,0-0.1,0-0.1-0.1c-0.1-0.1-0.1-0.1-0.2-0.2l-0.1-0.1c-0.1-0.1-0.2-0.1-0.2-0.2l-0.1-0.1c-0.1-0.1-0.2-0.2-0.3-0.2
					c0,0-0.1,0-0.1-0.1c-0.1-0.1-0.2-0.2-0.4-0.3l0,0c-1.6-1.3-3.8-3.3-6.1-5.6l0,0h5C84.6,226.2,87.8,228.7,89.2,229.8z"/>
			</g>
			
				<path style="fill:none;stroke:#181F41;stroke-width:1.2387;stroke-linecap:round;stroke-linejoin:round;stroke-miterlimit:10;" d="
				M144.7,182.1c4.2-16.8,5.2-29.3,5.5-36.8c0.1-2.7,0.1-4.3,0.1-4.3"/>
			
				<path style="fill:none;stroke:#181F41;stroke-width:1.2387;stroke-linecap:round;stroke-linejoin:round;stroke-miterlimit:10;" d="
				M55.4,182.4c-5.7-23-5.7-41.4-5.7-41.4"/>
		</g>
		
			<line style="fill:none;stroke:#31458C;stroke-width:1.2387;stroke-linecap:round;stroke-linejoin:round;stroke-miterlimit:10;" x1="156.5" y1="224.1" x2="143.7" y2="222.8"/>
	</g>
	<g>
		<g>
			<g>
				<path style="fill:#C2DEFF;" d="M6.5,76.2c0,0,9.4-12.1,22.2-12.9l-4.3,18L6.5,76.2z"/>
				<path style="fill:#FFFFFF;" d="M41.9,32.7c0,0-15.5,8.4-17.1,36.4c-1.7,27.9,0.9,36.6,0.9,36.6l18.2-7c0,0,0.6-32.5,5.5-49.9
					L41.9,32.7z"/>
				<path style="fill:#FFFFFF;" d="M24,70.2C17.1,67.6,7.9,72.3,4.8,79s-5,18.2,1.6,28.8s18.8,11.3,25.3,8.6
					c6.5-2.7,11.4-8.8,12-15.9C44.4,93.3,39.1,76.1,24,70.2z"/>
				
					<path style="fill:none;stroke:#C2DEFF;stroke-width:1.6517;stroke-linecap:round;stroke-linejoin:round;stroke-miterlimit:10;" d="
					M23.1,68.8c0,0,13.3,6.2,11.4,21c-2,16-19.8,7.9-16.4-1.6"/>
			</g>
			<g>
				<path style="fill:#C2DEFF;" d="M193.5,76.2c0,0-9.4-12.1-22.2-12.9l4.3,18L193.5,76.2z"/>
				<path style="fill:#FFFFFF;" d="M158.1,32.7c0,0,15.5,8.4,17.1,36.4s-0.9,36.6-0.9,36.6l-18.2-7c0,0-0.6-32.5-5.5-49.9
					L158.1,32.7z"/>
				<path style="fill:#FFFFFF;" d="M176,70.2c6.9-2.7,16.1,2.1,19.2,8.7c3.1,6.6,5,18.2-1.6,28.8c-6.7,10.5-18.8,11.3-25.3,8.6
					c-6.5-2.7-11.4-8.8-12-15.9C155.6,93.3,160.9,76.1,176,70.2z"/>
				
					<path style="fill:none;stroke:#C2DEFF;stroke-width:1.6517;stroke-linecap:round;stroke-linejoin:round;stroke-miterlimit:10;" d="
					M176.4,69c0,0-12.8,6-11,20.8c2,16,19.8,7.9,16.4-1.6"/>
			</g>
		</g>
		<path style="fill:#FFFFFF;" d="M100,4.4c-32.3,0-66.3,5.4-58.5,33.2C47.4,58.3,67.7,45,100,45s52.6,13.3,58.5-7.4
			C166.3,9.8,132.3,4.4,100,4.4z"/>
		<g>
			<g>
				<defs>
					<path id="SVGID_13_" d="M100,4.4c-32.3,0-66.3,5.4-58.5,33.2C47.4,58.3,67.7,45,100,45s52.6,13.3,58.5-7.4
						C166.3,9.8,132.3,4.4,100,4.4z"/>
				</defs>
				<clipPath id="SVGID_14_">
					<use xlink:href="#SVGID_13_"  style="overflow:visible;"/>
				</clipPath>
				<g style="clip-path:url(#SVGID_14_);">
					<path style="fill:#C2DEFF;" d="M38.2,30.4L38.2,30.4C38.2,30.3,38.2,30.3,38.2,30.4z"/>
					<path style="fill:#C2DEFF;" d="M161.8,30.4C161.8,30.3,161.8,30.3,161.8,30.4L161.8,30.4z"/>
					<path style="fill:#C2DEFF;" d="M161.8,30.4c0.1,0.6,1.1,6.2-13.4,6.1c-6.3-0.1-17.2-3.1-29.5-5.1c-5.1-0.8-12.3-1-18.9-1
						s-13.8,0.2-18.9,1c-12.3,2-23.3,5-29.5,5.1C37.1,36.6,38,31,38.2,30.4l-5.6,21.2H100h67.5L161.8,30.4z"/>
				</g>
			</g>
		</g>
		<path style="fill:#B8D0FF;" d="M62.2,18.4c0.3,1.8,0.5,3.5,0.7,5.1s0.5,3.3,0.8,4.8c0.3,1.6,0.7,3.1,1.3,4.6c0.5,1.5,1.2,3,2,4.7
			c-1.6-0.8-3-2.1-4-3.6s-1.7-3.3-2.1-5.1c-0.4-1.8-0.4-3.6-0.2-5.4S61.3,20,62.2,18.4z"/>
		<path style="fill:#B8D0FF;" d="M74.5,12.8c0.6,2.3,1,4.5,1.3,6.7s0.6,4.4,0.9,6.6s0.5,4.4,0.7,6.6s0.5,4.4,0.6,6.8
			c-1.3-2-2.1-4.1-2.8-6.3c-0.6-2.2-1.1-4.5-1.4-6.7c-0.3-2.3-0.4-4.6-0.3-6.8C73.7,17.4,73.9,15.1,74.5,12.8z"/>
		<path style="fill:#B8D0FF;" d="M136.1,18.4c0.4,0.9,0.6,1.7,0.8,2.6s0.3,1.8,0.3,2.7c0.1,1.8,0,3.6-0.4,5.4
			c-0.3,1.8-0.9,3.5-1.8,5.2c-0.2,0.4-0.4,0.8-0.7,1.2c-0.2,0.4-0.5,0.8-0.8,1.1l-0.4,0.5c-0.1,0.2-0.3,0.3-0.5,0.5
			c-0.3,0.3-0.7,0.6-1,0.9c0.4-1.8,0.9-3.4,1.2-5.1c0.4-1.7,0.7-3.3,1.1-4.9l1-5C135.3,21.9,135.6,20.2,136.1,18.4z"/>
	</g>
	<g>
		<path style="fill:#FFFFFF;" d="M65,103c-0.4-0.3-0.1-1,0.5-0.9c2,0.5,5,1,8.7,0.1C80.5,100.6,85,91,90.7,90.1
			c5.8-0.9,11.5,0.6,11.3,9s-11.9,10.6-18.2,10.6C78.3,109.8,69.6,106.8,65,103z"/>
		<path style="fill:#FFFFFF;" d="M135,103c0.4-0.3,0.1-1-0.5-0.9c-2,0.5-5,1-8.7,0.1c-6.3-1.6-10.8-11.2-16.5-12.1
			c-5.8-0.9-11.5,0.6-11.3,9s11.9,10.6,18.2,10.6C121.7,109.8,130.4,106.8,135,103z"/>
	</g>
</g>
</svg>
