<?xml version="1.0" encoding="utf-8"?>
<!-- Generator: Adobe Illustrator 26.5.0, SVG Export Plug-In . SVG Version: 6.00 Build 0)  -->
<svg version="1.1" id="레이어_5" xmlns="http://www.w3.org/2000/svg" xmlns:xlink="http://www.w3.org/1999/xlink" x="0px"
	 y="0px" viewBox="0 0 390 390" style="enable-background:new 0 0 390 390;" xml:space="preserve">
<g>
	<path style="fill:#595959;" d="M297,214.7c15.9-1.6,14.1-32.6,16.2-46.5c2.1-13.9,14.2-26.3,21.3-23.8c7.1,2.5,6.5,8.2-2.1,19.8
		s-4.4,28.2-8,44.4c-1.7,7.5-7.7,13.4-13.7,17.8c-6.9,5.2-16,6.2-24.3,7.4c-6.3,0.9-20.1-2.5-17.4-11.8c0.8-2.6,3.2-4.3,5.8-5.1
		c2.6-0.8,5.3-0.7,8-0.9C287.3,215.9,292.5,215.2,297,214.7z"/>
	<path d="M284.2,235.6c-4.9,0-11.7-1.7-15.1-5.6c-2-2.4-2.6-5.3-1.7-8.4c0.9-2.8,3.4-5.2,6.9-6.2c2.3-0.7,4.6-0.8,6.9-0.9
		c0.5,0,1,0,1.5-0.1c3-0.2,6.3-0.5,9.5-0.9c1.6-0.2,3.2-0.4,4.7-0.5c11.3-1.1,12.7-20.5,13.7-34.7c0.3-3.8,0.5-7.5,1-10.3
		c1.6-10.6,8.6-19.9,14.7-23.5c3.2-1.9,6.2-2.5,8.8-1.6c3.1,1.1,5,2.8,5.7,5.1c1.2,3.8-1,9.2-7,17.2c-5.1,6.8-5.5,15.8-5.8,25.4
		c-0.2,6-0.5,12.2-1.8,18.4c-1.9,8.6-9.1,14.9-14.3,18.8c-6.8,5.1-15.3,6.3-23.5,7.5l-1.6,0.2C285.9,235.6,285.1,235.6,284.2,235.6z
		 M332.5,145.7c-1.3,0-2.9,0.5-4.6,1.5c-5.4,3.3-11.7,11.6-13.1,21.2c-0.4,2.8-0.7,6.3-0.9,10.1c-1.1,15.3-2.7,36.3-16.7,37.7l0,0
		c-1.5,0.1-3,0.3-4.6,0.5c-3.3,0.4-6.6,0.7-9.7,0.9c-0.5,0-1,0.1-1.5,0.1c-2.1,0.1-4.2,0.2-6.1,0.7c-1.9,0.6-4.1,1.9-4.7,4
		c-0.6,2-0.3,3.8,1,5.3c3.1,3.6,10.5,5,14.5,4.4l1.6-0.2c7.8-1.1,15.8-2.3,22-6.9c7.6-5.8,11.8-11.1,13-16.9
		c1.3-5.9,1.5-11.9,1.8-17.8c0.4-10.1,0.8-19.6,6.5-27.2c5.2-6.9,7.3-11.6,6.5-14.3c-0.4-1.3-1.6-2.2-3.6-3
		C333.5,145.8,333,145.7,332.5,145.7z M297,214.7L297,214.7L297,214.7z"/>
</g>
<g>
	<path style="fill:#2C4F9E;" d="M169.9,198.8c-2.2,2.8-4.3,5.7-6.5,8.7c-10.2,13.8-20.7,28.1-35.2,36.4c-0.8,0.5-1.6,0.9-2.5,1.4
		c-6.3,3.7-13.1,7.6-20.1,10.3c-6.4,2.5-12.9,4-19.6,3.5c-6.9-0.5-12.9-8.2-13.4-17c-0.2-3.5,0.4-15.2,15.5-17.9
		c9.7-1.7,24.5-7.6,39.3-25.8c2-2.5,5.5-7.1,9.1-12.1c7.3-9.9,15.5-21.1,18.5-23.2"/>
	<path style="fill:#595959;" d="M92,223.6c0,0,12.9,31.8,13.6,32c0.6,0.2-16.6,9.2-26.9,0.1c0,0-12.7-12.9-1.4-26.3
		C77.3,229.4,84.7,223.5,92,223.6z"/>
	<path d="M106.1,257c-7.4,2.9-14,4.1-20.2,3.6c-7.7-0.6-14.3-8.8-14.8-18.5c-0.2-3.8,0.4-16.6,16.8-19.4c9.5-1.7,23.9-7.4,38.4-25.3
		c2-2.5,5.4-7.1,9-11.9l1.3,0.8l-1.2-0.9c9.2-12.5,15.9-21.5,18.8-23.5c0.7-0.5,1.6-0.3,2.1,0.4s0.3,1.6-0.4,2.1
		c-2.7,1.9-11.2,13.5-18.1,22.8l-0.1,0.1c-3.6,4.9-7,9.5-9,12C113.5,218,98.4,224,88.4,225.7c-13.5,2.4-14.5,12.2-14.3,16.3
		c0.4,8.2,5.8,15.2,12,15.6c5.7,0.4,11.9-0.7,18.9-3.4c6.9-2.7,13.5-6.5,19.9-10.2l2.5-1.4c14.3-8.2,24.7-22.3,34.8-36
		c2.1-2.9,4.3-5.9,6.5-8.7c0.5-0.7,1.4-0.8,2.1-0.3c0.7,0.5,0.8,1.4,0.3,2.1c-2.2,2.8-4.3,5.7-6.5,8.7
		c-10.3,13.9-20.9,28.3-35.7,36.8l-2.5,1.4C119.9,250.4,113.2,254.2,106.1,257z"/>
	<g>
		<path style="fill:#FFC800;" d="M112.6,251.2l5.4-2.2c0,0-15.7-19.7-13.3-29.9l-5,2.1C99.7,221.2,96.5,231.5,112.6,251.2z"/>
		<path d="M113,252.8c-0.6,0.1-1.2-0.1-1.6-0.6c-16.5-20.1-13.4-31-13.2-31.5c0.1-0.5,0.5-0.8,0.9-1l5-2.1c0.6-0.2,1.2-0.1,1.7,0.3
			c0.5,0.4,0.7,1,0.5,1.6c-1.8,7.8,8.7,23.2,12.9,28.6c0.3,0.4,0.4,0.9,0.3,1.4s-0.5,0.9-1,1.1l-5.4,2.2
			C113.1,252.7,113.1,252.8,113,252.8z M101.1,222.4c-0.3,2.5-0.2,11.6,12,26.8l2.3-0.9c-3.4-4.6-12.3-17.5-12.5-26.7L101.1,222.4z"
			/>
	</g>
	<g>
		<path style="fill:#2C4F9E;" d="M92,223.6c0,0-1,14.5,13.6,32"/>
		<path d="M104.4,256.6c-14.8-17.8-13.9-32.5-13.9-33.1l3,0.2l-1.5-0.1l1.5,0.1c0,0.1-0.8,14.1,13.2,30.9L104.4,256.6z"/>
	</g>
	<g>
		<path style="fill:#2C4F9E;" d="M108.9,215.7c0,0,4.7,20.2,16.8,29.6"/>
		<path d="M124.8,246.5c-12.4-9.7-17.2-29.6-17.4-30.5l2.9-0.7c0,0.2,4.7,19.8,16.3,28.8L124.8,246.5z"/>
	</g>
</g>
<g>
	<path style="fill:#274DA3;stroke:#000000;stroke-width:4;stroke-miterlimit:10;" d="M157.7,163.2c-0.2,5.1-1.4,47.8,8.9,86.1
		c6.1,22.7,17.2,37.9,33,45.2c17.2,8,39.5,6.1,64.4-5.5c16.7-7.8,30.1-23.8,34.8-41.8c3.9-14.7,1.5-29.2-6.7-40.7
		c-5-7-10.5-13.7-15.9-20.1c-5.1-6.2-10.5-12.5-15.3-19.3c-0.3-0.5-2.7-2.9-5.5-5.8c-12.1-12.5-16-16.9-16.8-18.7
		C230.9,144.7,164.2,161.6,157.7,163.2z"/>
	<path d="M170.1,259.8c0,0,45.6,0.1,128-45c0,0,16.4,57-47.7,79.9c0,0-50.9,17.5-73.1-20.3L170.1,259.8z"/>
	<g>
		<path style="fill:#76490D;stroke:#000000;stroke-width:3;stroke-linecap:round;stroke-linejoin:round;stroke-miterlimit:10;" d="
			M165.3,244.1c0,0,69.1-11,121-45.4c0,0,8.2,9.8,10.4,15.8c0,0-76.1,41.1-126.7,45.3C170.1,259.8,166.3,248.2,165.3,244.1z"/>
		<g>
			<path style="fill:#898989;" d="M219.2,231.1l-16,4.9c-1.9,0.6-3,2.7-2.5,4.6l3,9.8c0.6,1.9,2.7,3,4.6,2.5l16-4.9
				c1.9-0.6,3-2.7,2.5-4.6l-3-9.8C223.2,231.6,221.1,230.5,219.2,231.1z M220.8,242.2c0.3,0.9-0.3,1.9-1.4,2.3l-9,2.8
				c-1.1,0.3-2.1-0.2-2.4-1.1l-1.3-4.4c-0.3-0.9,0.3-1.9,1.4-2.3l9-2.8c1.1-0.3,2.1,0.2,2.4,1.1L220.8,242.2z"/>
			<path d="M225.1,249.3c-0.1,0-0.3,0.1-0.4,0.1l-16,4.9c-1.4,0.4-2.8,0.3-4.1-0.4s-2.2-1.8-2.6-3.1l-3-9.8
				c-0.9-2.8,0.7-5.8,3.5-6.6l16-4.9c2.8-0.9,5.8,0.7,6.6,3.5l3,9.8C229.1,245.5,227.7,248.3,225.1,249.3z M203.5,237.6
				c-1,0.4-1.5,1.5-1.2,2.5l3,9.8c0.2,0.5,0.5,1,1,1.2c0.5,0.3,1,0.3,1.6,0.2l16-4.9c1.1-0.3,1.7-1.5,1.4-2.6l-3-9.8
				c-0.3-1.1-1.5-1.7-2.6-1.4l0,0l-16,4.9C203.6,237.5,203.6,237.6,203.5,237.6z M220.2,245.9c-0.1,0-0.2,0.1-0.3,0.1l-9,2.8
				c-0.9,0.3-1.8,0.2-2.7-0.2s-1.5-1.1-1.8-2l-1.3-4.4c-0.5-1.8,0.6-3.7,2.5-4.3l9-2.8c0.9-0.3,1.8-0.2,2.7,0.2s1.5,1.1,1.8,2
				l1.3,4.4l0,0C222.9,243.4,221.9,245.2,220.2,245.9z M220.8,242.2L220.8,242.2L220.8,242.2z M208.5,241c-0.2,0.1-0.3,0.2-0.3,0.2
				l1.3,4.4c0,0,0.2,0.1,0.4,0l9-2.8c0.2-0.1,0.3-0.2,0.3-0.2l-1.3-4.4c0,0-0.2-0.1-0.4,0L208.5,241L208.5,241z"/>
		</g>
		<g>
			<path style="fill:#898989;" d="M227.6,239.8l-8,2.4c-1,0.3-2.2-0.3-2.5-1.3l0,0c-0.3-1,0.3-2.2,1.3-2.5l8-2.4
				c1-0.3,2.2,0.3,2.5,1.3l0,0C229.2,238.4,228.6,239.5,227.6,239.8z"/>
			<path d="M228.3,241.3c-0.1,0-0.2,0.1-0.3,0.1l0,0l-8,2.4c-1.9,0.6-3.9-0.5-4.5-2.4s0.5-3.9,2.4-4.5l8-2.4
				c0.9-0.3,1.9-0.2,2.8,0.3c0.9,0.5,1.5,1.2,1.8,2.1c0.3,0.9,0.2,1.9-0.3,2.8C229.8,240.4,229.1,240.9,228.3,241.3z M227.1,238.2
				c0.2-0.1,0.3-0.2,0.2-0.4c0-0.1-0.1-0.2-0.2-0.2c-0.1,0-0.1-0.1-0.3,0l-8,2.4c-0.2,0.1-0.3,0.2-0.2,0.4s0.2,0.3,0.4,0.2
				L227.1,238.2z"/>
		</g>
	</g>
	<g>
		<path d="M197.1,200.5c0.4,0.2,0.8,0.5,1.1,0.9s0.2,1,0.2,1.5c-0.3,8.1-0.9,16.1-1.8,24.1c-0.1,0.6-0.1,1.3,0.1,1.8
			c0.2,0.6,0.7,1.1,1.1,1.6c3.7,3.9,7.7,7.5,11.9,10.7c0.4,0.3,0.9,0.7,1.5,0.8c4.3,1,6.3-9.2,7.1-11.9c1-3.4,1.7-6.2,0-9.6
			c-1.6-3.1-4.2-5.6-6.2-8.4c-2.4-3.4-5.5-7.6-6.7-11.6c-0.2-0.7,0.1-1.4,0.4-2c1-2.1,2.1-4.2,2.6-6.5s0.4-4.8-0.9-6.7
			c-3.2-4.8-10.6-2.9-13.3,1.5c-1.1,1.8-1.9,4.3-2.7,6.2C190.1,196.8,194,198.8,197.1,200.5z"/>
		<g>
			<path style="fill:#274DA3;" d="M167.5,176.8c1.5,9.1,8.5,18.3,16.5,21.4c3.3,1.3,3.9,1.6,6.6-0.4c3.4-2.4,6.4-6.9,8.7-10
				c3.5,1.9,7.5,7.7,11.5,8.1c5.3,0.5,14-10.4,16.4-14.2c3.4-5.6,5.3-12.3,1.9-18.4c-6.9-12.5-25.4-14-38.3-11.1
				c-9.1,2.1-20.6,8.1-24.9,16.9C164.7,172,167.1,173.9,167.5,176.8z"/>
			<path d="M214.1,196.9c-1.1,0.4-2.2,0.6-3.2,0.5c-3-0.3-5.7-2.8-8.3-5.1c-1-0.9-1.9-1.7-2.7-2.4c-2.2,3.1-5,6.9-8.2,9.1
				c-3.2,2.3-4.5,2-8,0.7l-0.2-0.1c-8.5-3.3-15.9-12.8-17.6-22.6l0,0c-0.1-0.8-0.5-1.6-0.8-2.4c-0.8-1.7-1.7-3.8-0.4-6.4
				c4.5-9.2,16.3-15.6,26-17.8c14.4-3.3,33-0.9,40.1,11.9c3.2,5.8,2.5,12.7-1.9,20C227.4,184.7,220.4,194.4,214.1,196.9z M199,185.6
				l1.3,0.7c1.5,0.8,3,2.2,4.6,3.6c2.1,1.9,4.4,4.1,6.4,4.3c3.8,0.4,11.9-8.6,14.8-13.4c3.9-6.4,4.5-12,1.9-16.8
				c-4.4-7.9-17.7-14.5-36.5-10.3c-12.4,2.8-20.9,10.1-23.8,16c-0.6,1.2-0.2,2,0.5,3.6c0.4,0.9,0.9,2,1.1,3.2l0,0
				c1.4,8.6,8.1,17.3,15.5,20.1l0.2,0.1c2.9,1.1,2.9,1.1,4.9-0.3c2.8-2,5.4-5.6,7.5-8.5c0.3-0.4,0.6-0.8,0.9-1.2L199,185.6z"/>
		</g>
	</g>
	<path d="M179.3,223c-0.2,0.1-0.4,0.1-0.7,0.1l-13.2-0.7c-0.8,0-1.5-0.7-1.5-1.5l-0.9-9.7c-0.1-0.8,0.5-1.6,1.3-1.7l24.8-5
		c0.8-0.2,1.6,0.3,1.9,1.1l2.8,9c0.2,0.8-0.1,1.6-0.9,2l-13.4,6.3C179.4,223,179.4,223,179.3,223z M167,219.3l11.4,0.6l11.8-5.6
		l-1.9-6.2l-21.9,4.4L167,219.3z"/>
	<g>
		<g>
			<path style="fill:#FFCC00;" d="M246.3,182.4c-8.3,3.2-12.1,0.5-12.1,0.5s-0.9,4.6-9.2,7.9c0,0,8.4,22,19.2,17.7
				C255.1,204.2,246.3,182.4,246.3,182.4z"/>
			<path d="M244.9,210c-2.4,0.9-4.9,0.9-7.3-0.2c-8.2-3.6-13.8-17.8-14-18.4c-0.3-0.8,0.1-1.8,0.9-2.1c7.2-2.8,8.2-6.7,8.2-6.7
				c0.1-0.5,0.5-1,1-1.2l0,0c0.5-0.2,1.1-0.1,1.5,0.2c0,0,3.4,2.1,10.5-0.7c0.8-0.3,1.8,0.1,2.1,0.9c0.2,0.6,5.8,14.8,2.2,23
				C249,207.3,247.3,209,244.9,210z M227.2,191.6c1.6,3.6,6,12.7,11.6,15.2c1.7,0.7,3.2,0.8,4.8,0.2s2.7-1.7,3.4-3.4
				c2.4-5.6-0.5-15.4-1.7-19.1c-5,1.6-8.4,1.1-10.3,0.5C234.1,186.8,231.9,189.4,227.2,191.6z"/>
		</g>
		<g>
			<path style="fill:#C17100;" d="M244.5,197.3c0.9,2.2-0.7,3.4-3,4.3c-2.2,0.9-4.2,1.1-5.1-1.1c-0.9-2.2,0.2-4.7,2.5-5.5
				C241.2,194,243.7,195.1,244.5,197.3z"/>
			<g>
				
					<ellipse transform="matrix(0.9313 -0.3642 0.3642 0.9313 -55.4958 98.6851)" style="fill:#C17100;" cx="233.9" cy="196.5" rx="1.4" ry="1.8"/>
				
					<ellipse transform="matrix(0.9313 -0.3642 0.3642 0.9313 -53.3955 102.0178)" style="fill:#C17100;" cx="243.8" cy="192.6" rx="1.4" ry="1.8"/>
			</g>
			<g>
				
					<ellipse transform="matrix(0.9313 -0.3642 0.3642 0.9313 -54.0495 99.1981)" style="fill:#C17100;" cx="236" cy="192.9" rx="1.4" ry="1.8"/>
				
					<ellipse transform="matrix(0.9313 -0.3642 0.3642 0.9313 -53.2693 100.4923)" style="fill:#C17100;" cx="239.8" cy="191.5" rx="1.4" ry="1.8"/>
			</g>
		</g>
	</g>
</g>
<g>
	<g>
		<path style="fill:#595959;" d="M261.6,153.7c1.1,0.4,2.2,0.9,3.3,1.5c9.4,5.1,11.7,18.9,13.7,28.8c5.2,25.3-2.4,50.6-29,62.5
			c-7.9,3.5-18,6.8-26.4,5.6c-3.5-0.5-6.8-2.5-9.5-4.8c-5.1-4.3-9.2-10.8-7.4-16.8c1.3-4.6,5.8-7.5,10.3-9.2
			c6.1-2.3,12.7-2.9,18.9-4.8c7.8-2.3,15-8.3,16.2-16.2s-0.6-13.9-1.9-22c-1-6.9-3.1-13.3-0.6-20
			C251.6,152.2,256.4,151.7,261.6,153.7z"/>
		<path d="M216.2,251.1c-1.2-0.7-2.4-1.6-3.6-2.7c-5.2-4.4-10-11.5-8-18.5c1.6-5.6,7.1-8.7,11.3-10.3c3.6-1.3,7.4-2.1,11.1-2.9
			c2.7-0.6,5.4-1.1,8-1.9c8.2-2.4,14.1-8.3,15.1-14.9c0.9-5.8,0-10.6-1-16.2c-0.3-1.7-0.6-3.4-0.9-5.3c-0.2-1.3-0.4-2.6-0.7-3.9
			c-1-5.4-2-11.1,0.2-16.9c2.4-6.2,7.5-8.2,14.4-5.5l0,0c1.1,0.4,2.3,1,3.5,1.6c9.5,5.1,12.2,18.4,14.1,28l0.4,1.9
			c6,29.2-5.2,53.3-29.9,64.3c-10.9,4.9-20.1,6.8-27.3,5.7C220.7,253.4,218.5,252.5,216.2,251.1z M261,155.2
			c-6.9-2.6-9.2,0.8-10.2,3.6c-1.9,4.9-1,9.9,0,15.1c0.2,1.3,0.5,2.6,0.7,4c0.3,1.8,0.6,3.6,0.9,5.2c1,5.8,2,10.9,1,17.2
			c-1.2,7.9-8,14.8-17.4,17.5c-2.7,0.8-5.5,1.4-8.2,2c-3.6,0.8-7.2,1.5-10.6,2.8c-3.6,1.3-8.1,3.8-9.3,8.1
			c-1.6,5.5,2.7,11.5,6.9,15.1c3,2.6,6,4.1,8.7,4.5c6.5,1,15.3-0.9,25.5-5.5c12.2-5.5,20.8-14,25.6-25.3c4.3-10.2,5.1-22.5,2.5-35.3
			c-0.1-0.6-0.3-1.2-0.4-1.9c-1.9-9.5-4.3-21.4-12.5-25.8C263.1,156.1,262,155.6,261,155.2L261,155.2z"/>
	</g>
	<g>
		<path style="fill:#274DA3;" d="M239.7,250.2c1.8-0.7,8.3-3,9.9-3.7c26.6-11.9,34.2-37.2,29-62.5c-2-9.8-4.2-23.7-13.7-28.8
			c-1.1-0.6-2.2-1.1-3.3-1.5c-5.2-2-10-1.5-12.3,4.6c-2.5,6.7-0.5,13.1,0.6,20c1.2,8.1,3.1,14.1,1.9,22c-1.2,8-8.4,13.9-16.2,16.2
			c-3.1,0.9-6.3,1.6-9.5,2.3L239.7,250.2z"/>
		<path d="M238.8,252.3l-15.1-34.8l3.4-0.7c2.7-0.6,5.4-1.1,8-1.9c8.2-2.4,14.1-8.3,15.1-14.9c0.9-5.8,0-10.6-1-16.2
			c-0.3-1.7-0.6-3.4-0.9-5.3c-0.2-1.3-0.4-2.6-0.7-3.9c-1-5.4-2-11.1,0.2-16.9c2.4-6.2,7.5-8.2,14.4-5.5c1.1,0.4,2.3,1,3.5,1.6
			c9.5,5.1,12.2,18.4,14.1,28l0.4,1.9c6,29.2-5.2,53.3-29.9,64.3c-1.3,0.6-5,1.9-7.8,3c-0.9,0.3-1.7,0.6-2.2,0.8L238.8,252.3z
			 M228.2,219.9l12.3,28.3c0.2-0.1,0.5-0.2,0.8-0.3c2.6-0.9,6.4-2.4,7.6-2.9c12.2-5.5,20.8-14,25.6-25.3c4.3-10.2,5.1-22.5,2.5-35.3
			c-0.1-0.6-0.3-1.2-0.4-1.9c-1.9-9.5-4.3-21.4-12.5-25.8c-1.1-0.6-2.1-1.1-3.1-1.4c-6.9-2.6-9.2,0.8-10.2,3.6
			c-1.9,4.9-1,9.9,0,15.1c0.2,1.3,0.5,2.6,0.7,4c0.3,1.8,0.6,3.6,0.9,5.2c1,5.8,2,10.9,1,17.2c-1.2,7.9-8,14.8-17.4,17.5
			C233.4,218.8,230.8,219.3,228.2,219.9z"/>
	</g>
	<g>
		<line style="fill:none;" x1="265.3" y1="236" x2="246.8" y2="209.7"/>
		<path d="M264.4,237.4c-0.2-0.1-0.3-0.3-0.5-0.5l-18.5-26.3c-0.5-0.7-0.3-1.8,0.4-2.3s1.8-0.3,2.3,0.4l18.5,26.3
			c0.5,0.7,0.3,1.8-0.4,2.3C265.7,237.7,265,237.7,264.4,237.4z"/>
	</g>
	<g>
		<g>
			<path style="fill:#FFC800;" d="M278.4,161.7c0,0,4.4,5.6,6,8.5l-13.5,5.2l-5.6-7.8L278.4,161.7z"/>
			<path d="M270.6,176.9c-0.4-0.1-0.8-0.3-1-0.7l-5.6-7.8c-0.3-0.4-0.4-0.9-0.2-1.4c0.1-0.5,0.5-0.9,0.9-1.1l13.1-5.8
				c0.7-0.3,1.5-0.1,1.9,0.5c0.2,0.2,4.6,5.8,6.2,8.7c0.2,0.4,0.3,0.9,0.1,1.4c-0.2,0.4-0.5,0.8-1,1l-13.5,5.2
				C271.2,177,270.9,177,270.6,176.9z M267.8,168.2l3.7,5.2l10.5-4c-1.3-1.9-3.1-4.3-4.1-5.6L267.8,168.2z"/>
		</g>
		<g>
			<line style="fill:none;" x1="277.5" y1="167" x2="272.9" y2="168.8"/>
			<path d="M272.6,170.4c-0.5-0.1-1-0.5-1.2-1c-0.3-0.8,0.1-1.8,0.9-2.1l4.6-1.9c0.8-0.3,1.8,0.1,2.1,0.9c0.3,0.8-0.1,1.8-0.9,2.1
				l-4.6,1.9C273.2,170.5,272.9,170.5,272.6,170.4z"/>
		</g>
		<g>
			<path d="M278.4,161.7c0,0-6.4-11-12.8-13.6l-12.8,5.9c0,0,10.1,10.3,12.5,13.5L278.4,161.7z"/>
			<path d="M265,169.1c-0.4-0.1-0.8-0.3-1-0.7c-2.2-3.1-12.2-13.2-12.3-13.3c-0.4-0.4-0.5-0.9-0.4-1.4s0.4-1,0.9-1.2l12.8-5.9
				c0.4-0.2,0.9-0.2,1.3,0c6.8,2.9,13.3,13.9,13.6,14.3c0.2,0.4,0.3,0.9,0.1,1.3c-0.1,0.4-0.5,0.8-0.9,1L266,169
				C265.6,169.1,265.3,169.2,265,169.1z M255.6,154.5c2.6,2.7,7.8,8,10.2,11L276,161c-1.9-2.9-6.2-8.9-10.4-11.1L255.6,154.5z"/>
		</g>
	</g>
	<g>
		<polygon style="fill:#FFC800;" points="258.7,241.4 242.4,213.3 235.5,216.4 252,245.4 		"/>
		<path d="M251.1,246.7c-0.2-0.1-0.4-0.3-0.6-0.6L234,217.2c-0.2-0.4-0.3-0.9-0.1-1.3c0.1-0.4,0.5-0.8,0.9-1l7-3.2
			c0.8-0.3,1.7-0.1,2.1,0.7l16.2,28.2c0.4,0.8,0.2,1.8-0.6,2.2l-6.7,3.9c-0.4,0.2-0.8,0.3-1.2,0.2
			C251.4,246.9,251.2,246.8,251.1,246.7z M237.8,217.2l14.8,25.9l3.9-2.3l-14.7-25.5L237.8,217.2z"/>
	</g>
</g>
<g>
	<g>
		<g>
			<g>
				<path style="fill:#595959;" d="M273.7,126.4c-7.2,27.3-33.7,45.1-63.3,54.7c-17.8,5.7-38.1,7.3-56.2,1.6
					c-24-7.6-43.3-28.3-27-53.5c-12.9-30.3,9.3-58,9.3-58s-14.7-22.3-1.4-40.1c0,0,1.1-2.6,4.1-1.1c10,4.9,27,17.1,31.3,22.3
					c0,0,14.2-3.8,22.2-3.8c0,0,5.1-11,9.1-17.3c4.1-6.3,15.4-22.5,18.8-22.6c3.4-0.1,28.6,23,20.1,42.9
					c0.7-1.5,17.9,14.8,18.7,15.8C275.3,87.2,278.6,107.8,273.7,126.4z"/>
				<path d="M197.5,186c-15.4,2.9-30.6,2.3-43.7-1.8c-16.1-5.1-28.2-15.1-32.5-26.9c-3.2-9-1.8-18.8,4.1-28.4
					c-11.2-27.4,5.5-52.8,9.2-57.9c-1.2-2-3.7-6.7-5.3-12.9c-2.7-10.6-1.2-20.3,4.5-28c0.3-0.5,0.9-1.5,2.3-2c0.8-0.3,2.2-0.5,4,0.4
					c9.6,4.7,25.7,16.1,31.1,21.9c3.2-0.8,13.6-3.3,20.6-3.6c1.3-2.8,5.4-11.2,8.8-16.6c0.6-0.9,14.9-23.2,20.1-23.4
					c3-0.1,10.7,7.1,15.9,14.7c8.7,12.7,8.5,22.5,6.3,28.8c1.5,0.9,4,2.9,8.7,7.2c4.1,3.7,8.5,7.9,9.1,8.6
					c15,18.9,20,39.9,14.6,60.5l0,0c-3.8,14.3-17.2,40.6-64.3,55.8C206.5,184,202,185.2,197.5,186z M137.3,31.2h-0.1
					c-0.4,0.1-0.6,0.5-0.6,0.5c-0.1,0.1-0.1,0.2-0.2,0.3c-12.5,16.6,1.3,38,1.4,38.2c0.4,0.6,0.4,1.4-0.1,1.9
					c-0.2,0.3-21.5,27.3-9.1,56.3c0.2,0.5,0.2,1.1-0.1,1.5c-5.8,9.1-7.3,17.9-4.3,26.2c3.9,10.8,15.3,20.1,30.4,24.9
					c16.4,5.2,36,4.6,55.2-1.6c45.7-14.7,58.6-39.8,62.2-53.5l0,0c5.2-19.6,0.4-39.6-14-57.7c-1-1.2-14.2-13.6-17.2-15.2
					c-0.3,0-0.6,0-0.8-0.1c-0.8-0.4-1.2-1.3-0.9-2.1l0,0c2.8-6.5,2-14-2.3-22.2c-5.5-10.5-14.4-17.8-16.3-18.4
					c-2.3,0.7-11.4,12.4-17.4,21.8c-3.9,6.2-9,17-9,17.1c-0.3,0.6-0.8,0.9-1.5,0.9c-7.7,0-21.6,3.7-21.8,3.8c-0.6,0.2-1.3,0-1.7-0.5
					c-3.9-4.7-20.5-16.8-30.8-21.9C138.2,31.3,137.7,31.1,137.3,31.2z M242.3,52.1L242.3,52.1L242.3,52.1L242.3,52.1L242.3,52.1z
					 M220.6,10.2L220.6,10.2L220.6,10.2z"/>
			</g>
			<path style="fill:#FFFFFF;" d="M199.3,136.2c3.1,10.9,0.8,23.9-23.8,29.3c-16.7,3.7-31.2-4.6-33-15.8s5.4-24.1,22.3-26.8
				S196.2,125.4,199.3,136.2z"/>
			<g>
				<g>
					<g>
						<path style="fill-rule:evenodd;clip-rule:evenodd;fill:#FF7F6E;" d="M164,127.7c-2,0.3-3.5,1.7-3.3,3.3c0.2,1.5,2,2.6,4,2.3
							s3.5-1.7,3.3-3.3C167.8,128.5,166,127.4,164,127.7z"/>
						<path d="M163.7,127.7c0.1,0,0.2,0,0.3,0c2-0.3,3.8,0.8,4,2.3s-1.1,2.9-3,3.2c-0.1,0-0.2,0-0.3,0c-2,0.3-3.8-0.8-4-2.3
							C160.5,129.5,161.8,128.1,163.7,127.7 M163.1,124.5c-3.7,0.7-6.1,3.6-5.7,6.9c0.5,3.4,3.8,5.6,7.7,5.1c0.1,0,0.3,0,0.4-0.1
							c3.7-0.7,6.1-3.6,5.7-6.9c-0.2-1.8-1.3-3.3-3-4.2c-1.4-0.8-3.1-1.1-4.8-0.9C163.4,124.5,163.3,124.5,163.1,124.5L163.1,124.5z
							"/>
					</g>
					<g>
						<g>
							<path style="fill-rule:evenodd;clip-rule:evenodd;" d="M149.7,126.5L149.7,126.5c2.9-0.5,4.9-3.2,4.4-6.1l-0.1-0.7
								c-0.5-2.9-3.3-4.8-6.2-4.3s-4.9,3.2-4.4,6.1l0.1,0.7C144,125.1,146.7,127,149.7,126.5"/>
						</g>
						<g>
							<path style="fill-rule:evenodd;clip-rule:evenodd;" d="M184.7,121L184.7,121c3.1-0.5,5.3-3.3,4.8-6.3l-0.1-0.7
								c-0.5-2.9-3.4-4.9-6.6-4.3c-3.1,0.5-5.3,3.3-4.8,6.3l0.1,0.7C178.6,119.6,181.6,121.5,184.7,121"/>
						</g>
					</g>
				</g>
				<path d="M178.6,148.8c-0.3,0.1-0.6,0.1-1,0.1c-0.5,0.1-1,0.1-1.7,0.2c-3.6,0.7-6.3-1.1-7.9-2.8c-3,5.1-9.1,5.4-9.4,5.4
					c-0.9,0-1.7-0.7-1.7-1.6c0-0.9,0.7-1.7,1.6-1.7c0.2,0,6-0.4,7.5-5.7c0.2-0.6,0.7-1.1,1.4-1.2c0.6-0.1,1.3,0.2,1.6,0.8
					c0,0,2.6,4.2,6.3,3.5c0.8-0.1,1.4-0.2,1.9-0.3c1.1-0.1,1.1-0.2,1.4-0.4c0.6-0.6,1.7-0.7,2.3,0s0.7,1.7,0,2.3
					C180.1,148.4,179.4,148.7,178.6,148.8z"/>
			</g>
			<g>
				<path style="fill:#595959;" d="M165.1,67.9c-2.7,3.4-14.2,2.1-13.1-5.5s10.8-3.3,10.8-3.3s-9.7-9.1-2.3-14.3s11.4,5,11.4,5
					s-2.6-5.5,1.8-8c8.9-5,13.1,5.4,8.7,12.1"/>
				<path d="M162.3,71.1c-2.3,0.4-5,0.1-7.1-0.8c-3.6-1.5-5.4-4.6-4.8-8.1c0.4-2.9,2-4.3,3.2-5c1.5-0.8,3.3-1,4.9-0.8
					c-1.3-2-2.5-4.6-2.3-7.1c0.2-2.3,1.4-4.2,3.5-5.7c2.4-1.7,4.8-2.1,7.1-1.4c1.3,0.4,2.4,1.1,3.3,2c0.4-1.4,1.4-2.6,3-3.6
					c5.8-3.3,9.3-0.6,10.5,0.7c3.1,3.3,3.3,9.3,0.4,13.6c-0.5,0.8-1.5,1-2.3,0.5s-1-1.5-0.5-2.3c2.3-3.4,1.7-7.7-0.1-9.6
					c-1.9-2-4.6-1.2-6.5-0.1c-2.6,1.5-1.5,4.8-1.2,5.7c0.1,0.2,0.1,0.3,0.1,0.3c0.3,0.8-0.1,1.8-0.9,2.1c-0.8,0.3-1.8,0-2.1-0.8
					c-0.1-0.1-0.1-0.3-0.2-0.4c-0.6-1.4-2.3-4.2-4.6-4.9c-1.3-0.4-2.7-0.1-4.2,1c-1.3,0.9-2,2-2.1,3.2c-0.2,3.2,3.2,7.2,4.5,8.5
					c0.6,0.5,0.7,1.4,0.2,2.1c-0.4,0.7-1.3,0.9-2,0.6c-1.3-0.6-5-1.7-7.1-0.6c-0.8,0.5-1.3,1.3-1.5,2.6c-0.4,2.7,1.4,4,2.9,4.7
					c2.8,1.2,6.3,0.8,7.3-0.4c0.6-0.7,1.6-0.8,2.3-0.3c0.7,0.6,0.8,1.6,0.3,2.3C165.4,70,164,70.8,162.3,71.1z"/>
			</g>
			<g>
				<path style="fill:#FF7F6E;" d="M209.8,48.8c0,0,13.8-25.3,13-29s17,19,8.9,28.8c0,0-3.5-0.7-5.4-0.5c0,0,0.2-7.1-4.9-0.9
					C218.2,51.1,209.8,48.8,209.8,48.8z"/>
				<path d="M232.1,50.2c-0.2,0-0.4,0-0.6,0c-0.9-0.2-3.6-0.6-5-0.5c-0.5,0-0.9-0.1-1.2-0.5c-0.3-0.3-0.5-0.8-0.5-1.2
					c0-0.6-0.1-1.2-0.2-1.6c-0.3,0.2-0.9,0.7-1.8,1.8c-3.8,4.6-12.4,2.5-13.4,2.2c-0.5-0.1-0.9-0.5-1.1-0.9c-0.2-0.5-0.2-1,0.1-1.4
					c8.3-15.2,13-26.1,12.9-27.9c-0.2-1.2,0.4-1.9,1-2.2c1.3-0.6,2.5,0.2,4.7,3.2c4.9,6.4,12.6,20.7,6.1,28.5
					C232.8,50,232.5,50.2,232.1,50.2z M227.9,46.5c1.1,0.1,2.3,0.2,3.1,0.4c1.1-1.8,1.5-4.3,1-7.3c-1-6.5-5.5-13.6-8.1-16.9
					c-1.8,6.1-8,18-11.7,25c2.6,0.4,6.3,0.4,7.9-1.5c1.4-1.6,3.4-3.7,5.5-3C227.2,43.7,227.7,45.2,227.9,46.5z M209.8,48.8
					L209.8,48.8L209.8,48.8z M224.4,19.5L224.4,19.5L224.4,19.5z"/>
			</g>
			<g>
				<path style="fill:#FF7F6E;" d="M217.2,48.1c0,0,7-4.8,7.7-10.2"/>
				<path d="M217.5,49.7c-0.6,0.1-1.3-0.1-1.7-0.7c-0.5-0.7-0.3-1.8,0.4-2.3l0,0c1.8-1.2,6.5-5.2,7-9c0.1-0.9,0.9-1.5,1.8-1.4
					c0.9,0.1,1.5,0.9,1.4,1.8c-0.8,6.1-8.1,11.1-8.4,11.3C217.9,49.6,217.7,49.7,217.5,49.7z"/>
			</g>
			<g>
				<path style="fill:#FF7F6E;" d="M136.5,37.6c0,0,6.8,23.5,11.1,25L141,68C141,68,130.7,47.5,136.5,37.6z"/>
				<path d="M141.3,69.6c-0.2,0-0.4,0-0.6,0c-0.5-0.1-0.9-0.4-1.1-0.9c-0.4-0.9-10.7-21.4-4.5-32c0.3-0.6,1-0.9,1.6-0.8
					c0.6,0.1,1.2,0.5,1.4,1.2c3.5,12.3,8.2,23.2,10.1,23.9c0.6,0.2,1,0.7,1.1,1.3s-0.1,1.2-0.6,1.5l-6.6,5.4
					C141.9,69.5,141.6,69.6,141.3,69.6z M136.5,43.1c-0.4,3.4,0.1,7.8,1.6,13c1.1,3.9,2.6,7.4,3.5,9.4l3.4-2.8
					c-1.5-1.7-3.4-5.2-6.1-12.5C138,47.6,137.2,45.1,136.5,43.1z"/>
			</g>
		</g>
		<path d="M187.4,112.1c-0.1,0-0.1,0-0.2,0c-0.6,0-6.3,0.4-8.7-0.2c-0.9-0.2-1.4-1.1-1.2-2s1.1-1.4,2-1.2c1.4,0.3,5.5,0.2,7.7,0.1
			c0.9-0.1,1.7,0.6,1.7,1.5C188.7,111.3,188.2,112,187.4,112.1z"/>
		<path d="M143.6,119.6c-0.8,0.2-1.6-0.3-1.9-1.1c-0.3-0.9,0.2-1.8,1.1-2.1c2.1-0.7,5.9-2.1,7.1-2.9c0.7-0.5,1.8-0.3,2.3,0.4
			c0.5,0.7,0.3,1.8-0.4,2.3c-2,1.4-7.4,3.1-8,3.3C143.8,119.5,143.7,119.5,143.6,119.6z"/>
	</g>
	<g>
		<g>
			<path style="fill:#274DA3;" d="M144,56.1c0,0-13.9,10.5-14,15s9.5-5.4,24.1,1.5c14.7,6.9,38.5-21.3,38.5-21.3
				S160.3,40.6,144,56.1z"/>
			<path d="M162.5,75c-3.2,0.6-6.2,0.4-9-0.9c-8.4-3.9-15-2-18.9-0.8c-2.3,0.7-3.9,1.1-5.1,0.2c-0.7-0.5-1-1.3-1-2.4
				c0-5,11-13.7,14.5-16.3c7-6.6,17.9-9.6,31.6-8.6c10.2,0.8,18.3,3.4,18.6,3.5c0.5,0.2,0.9,0.6,1.1,1.1c0.1,0.5,0,1.1-0.3,1.5
				C193.1,53.4,176.9,72.3,162.5,75z M138.2,69c4.2-0.8,10-1,16.7,2.2c11.2,5.3,29.3-12.9,34.9-19c-7.7-2.1-31.8-7.2-44.6,5.1
				l-0.1,0.1c-6,4.5-12.5,10.6-13.2,13.3c0.5-0.1,1.3-0.3,1.9-0.5C134.9,69.8,136.4,69.3,138.2,69z M131.7,71.3L131.7,71.3
				L131.7,71.3z M144,56.1L144,56.1L144,56.1z"/>
		</g>
		<g>
			<g>
				<path style="fill:#274DA3;" d="M141.9,45.7c2.1-11.3,7.2-17.7,24.4-23c12.7-3.9,22.3-2.7,32.6,6.6c6.3,5.7,2.5,17.2-3.6,20.6
					c-8.4,4.6-22.8,4.5-32.3,5.6c-10.1,1.2-23.4,6.5-21.2-9.4C141.9,46,141.9,45.9,141.9,45.7z"/>
				<path d="M185.6,54.8c-4.8,0.9-10.1,1.3-15,1.7c-2.7,0.2-5.2,0.4-7.4,0.7c-1.6,0.2-3.3,0.5-5,0.8c-6,1.1-12.2,2.1-15.8-1.3
					c-2.2-2.2-3-5.7-2.2-10.8c0-0.2,0.1-0.3,0.1-0.5l0,0c2.4-13,8.8-19.1,25.5-24.3c14.1-4.3,24-2.3,34.2,7
					c2.9,2.6,4.2,6.5,3.7,10.9c-0.6,5.2-3.6,10.2-7.5,12.3C193.2,53,189.6,54.1,185.6,54.8z M172.5,22.8c-1.8,0.3-3.7,0.8-5.7,1.4
					c-17.3,5.3-21.4,11.5-23.3,21.7l0,0c0,0.1,0,0.2-0.1,0.4c-0.6,3.9-0.1,6.6,1.3,8c2.3,2.3,7.7,1.3,12.9,0.4
					c1.7-0.3,3.5-0.6,5.2-0.8c2.3-0.3,4.8-0.5,7.5-0.7c8.5-0.7,18.1-1.4,24.2-4.8c3-1.7,5.4-5.7,5.9-9.8c0.2-1.9,0.2-5.6-2.6-8.1
					C190,23.3,182.5,20.9,172.5,22.8z M142,45.7L142,45.7L142,45.7z"/>
			</g>
		</g>
		<g>
			<path style="fill:#80AAFF;" d="M142.5,53.9c0,0,40.2-9.2,50.2-2.6C192.7,51.4,140.8,65.2,142.5,53.9z"/>
			<path d="M172.9,57.5c-0.6,0.1-1.3,0.2-2,0.4c-23.7,4.3-27.4,1-28.6-0.1c-1.2-1.1-1.7-2.5-1.4-4.1c0.1-0.7,0.6-1.2,1.3-1.4
				c0.1,0,10.3-2.3,21.5-3.8c15.4-2,25.5-1.5,30,1.5c0.5,0.4,0.8,1,0.7,1.6s-0.6,1.1-1.2,1.3C193,53,183.5,55.5,172.9,57.5z
				 M144.4,55.2l0.1,0.1c1.1,1,5.9,2.9,25.9-0.7c6.4-1.2,12.5-2.6,16.7-3.6C176.1,49.2,154.5,53,144.4,55.2z"/>
		</g>
		<g>
			<g>
				<path style="fill:#FFCC00;" d="M150.4,38.1c4.8-1.4,5.6-3.8,5.6-3.8s2,1.6,6.8,0.1c0,0,3.6,11.6-2.7,13.5
					C153.7,49.8,150.4,38.1,150.4,38.1z"/>
				<path d="M159.8,49.4c-1.4,0.3-2.7,0-4-0.7c-4.4-2.4-6.6-9.9-6.7-10.2c-0.2-0.7,0.2-1.5,0.9-1.7c4-1.2,4.7-3,4.7-3
					c0.1-0.4,0.5-0.7,0.9-0.9c0.4-0.1,0.9,0,1.2,0.3l0,0c0,0,1.6,1.1,5.6-0.1c0.7-0.2,1.5,0.2,1.7,0.9c0.1,0.3,2.3,7.8,0,12.2
					c-0.8,1.5-2,2.5-3.6,3C160.2,49.3,160,49.4,159.8,49.4z M152.1,39c0.9,2.3,2.6,6.1,5,7.4c0.8,0.5,1.7,0.6,2.6,0.3
					c0.9-0.3,1.6-0.8,2-1.7c1.3-2.4,0.7-6.5,0.2-8.9c-2.5,0.5-4.2,0.3-5.3,0C155.8,36.9,154.5,38.1,152.1,39z"/>
			</g>
			<g>
				<path style="fill:#C17100;" d="M156.2,43.5c0.3,1.2,1.5,1.1,2.8,0.7s2.3-1,1.9-2.1c-0.3-1.2-1.7-1.8-3-1.4
					S155.8,42.4,156.2,43.5z"/>
				<g>
					
						<ellipse transform="matrix(0.9584 -0.2854 0.2854 0.9584 -4.6474 47.5183)" style="fill:#C17100;" cx="160.7" cy="39.7" rx="0.8" ry="0.9"/>
					
						<ellipse transform="matrix(0.9584 -0.2854 0.2854 0.9584 -5.3639 45.9587)" style="fill:#C17100;" cx="155" cy="41.4" rx="0.8" ry="0.9"/>
				</g>
				<g>
					
						<ellipse transform="matrix(0.9584 -0.2854 0.2854 0.9584 -4.5033 46.8775)" style="fill:#C17100;" cx="158.6" cy="38.9" rx="0.8" ry="0.9"/>
					
						<ellipse transform="matrix(0.9584 -0.2854 0.2854 0.9584 -4.7939 46.2826)" style="fill:#C17100;" cx="156.4" cy="39.6" rx="0.8" ry="0.9"/>
				</g>
			</g>
		</g>
	</g>
</g>
<g>
	<path style="stroke:#000000;stroke-width:5;stroke-linecap:round;stroke-linejoin:round;stroke-miterlimit:10;" d="M170.2,376.4
		c0.6,0.2,7,2.1,15.5,3.1c8.1,0.9,19.8,1.2,29.5-3.1c1.3-0.9,4.4-3.7,4.4-5.9c0-3,4.5-73.8,5-81.3l-26.1-5.8l-8.7,59.8
		c0,0.3-0.3,0.5-0.6,0.5c0,0-5,0.5-10.4,2.7c-4.9,2-11.2,5.7-13.4,12.5C161.5,371.6,169.5,376,170.2,376.4z"/>
	<path style="fill:#704A1C;" d="M189.8,343.3c0,0.3-0.3,0.5-0.6,0.5c0,0-5,0.5-10.4,2.7c-4.9,2-11.2,5.7-13.4,12.5
		c-4,12.6,4,17.1,4.7,17.4c0.6,0.2,7,2.1,15.5,3.1c8.1,0.9,19.8,1.2,29.5-3.1c1.3-0.9,4.4-3.7,4.4-5.9c0,0,1.1-19.8,1.3-22
		C220.9,348.5,199.3,352.6,189.8,343.3z"/>
</g>
<g>
	<path style="stroke:#000000;stroke-width:5;stroke-linecap:round;stroke-linejoin:round;stroke-miterlimit:10;" d="M239.6,288
		l3.8,36.7c0.7,7,1.5,14.2,1.4,21.3c0,0.3-0.2,0.5-0.5,0.6c-3.4,0.6-5.4,1.7-8.6,3.5c-4.9,2.8-7.8,5.7-10.2,10.6
		c-2,4-2.3,7.9-1.1,11.3c1.4,3.7,4.7,6.7,9.5,8.7c8.6,3.5,19.9,3.3,34.5-0.5c2.7-0.7,5.8-1.7,8.6-3.4c9-5.8,5.1-16.9,1.7-26.7
		c-0.9-2.6-1.8-5-2.3-7.2c-1.9-7.3-4.9-22.2-7.3-34.1c-1.4-7.1-2.7-13.3-3.2-15.4L239.6,288z"/>
	<path style="fill:#704A1C;" d="M244.8,346c-0.2-0.1-0.2,0.5-0.5,0.6c-3.4,0.6-5.4,1.7-8.6,3.5c-4.9,2.8-7.8,5.7-10.2,10.6
		c-2,4-2.3,7.9-1.1,11.3c1.4,3.7,4.7,6.7,9.5,8.7c8.6,3.5,19.9,3.3,34.5-0.5c2.7-0.7,5.8-1.7,8.6-3.4c9-5.8,5.1-16.9,1.7-26.7
		l-2.1-6.5C276.5,343.5,258.5,352.7,244.8,346z"/>
</g>
</svg>
