<?xml version="1.0" encoding="utf-8"?>
<!-- Generator: Adobe Illustrator 25.3.1, SVG Export Plug-In . SVG Version: 6.00 Build 0)  -->
<svg version="1.1" id="레이어_1" xmlns="http://www.w3.org/2000/svg" xmlns:xlink="http://www.w3.org/1999/xlink" x="0px"
	 y="0px" viewBox="0 0 240 240" style="enable-background:new 0 0 240 240;" xml:space="preserve">
<style type="text/css">
	.st0{fill:#FF7676;}
	.st1{fill:#FFFFFF;}
</style>
<g>
	<g>
		<path class="st0" d="M224.4,116c0,0-6.7-1.8-6.1-17.3c0.6-15.4-16.5-36.3-50.9-43.2c-18.4-3.7-34.2,1.7-34.2,1.7s-1.1,2.2-10-1.5
			s-39.4-17.6-57.5-7.9c-1.5,0.8,16.4,2.6,23.7,11.2c3.9,4.6,5.7,8.5,4.3,10.9c-1.4,2.3-27.3,26.6-47.6,61.2
			c-3.2,5.4-5.3,6.5-5.3,6.5s-26.3,16.7-35,31.2c-2.2,3.7,7.5,2.5,13.8,2.5s19.3-7.4,21.6-5.6s10.2,28.5,12.2,29.6
			c1.9,1.1,2.7-5,2.7-5s4.7-19.1,0.3-47.4c-1.6-10.5,2.1-13.3,2.1-13.3s44.6-45.6,89.8-20.7s63.2,30.6,66.1,28.6
			c2.9-1.9,1-2.4,1-2.4s-15.7-14.4-18.8-18s24.4,17.1,30.1,17s7.6-2.6,7.6-6C234.5,124.9,234.3,121.5,224.4,116z"/>
		<path d="M53.9,196.5c-0.3,0-0.7-0.1-1-0.3c-1.1-0.6-2.4-3.9-6.3-14.8c-2.1-5.9-5-14-6-14.9c-0.8-0.5-5.5,1.2-8.7,2.4
			c-4.5,1.7-9.1,3.4-12.3,3.4c-1.2,0-2.6,0-4,0.1c-6,0.2-9.8,0.2-10.9-1.6c-0.3-0.5-0.5-1.3,0.2-2.5c8.7-14.6,34.3-30.9,35.4-31.6
			l0.1-0.1c0,0,2-1.1,4.9-6.1c16.2-27.6,35.7-48.4,44-57.3c1.8-1.9,3.3-3.5,3.5-3.9c1.1-1.8-0.5-5.3-4.2-9.7
			c-4.9-5.8-15.3-8.5-20.2-9.8c-3.1-0.8-3.7-1-3.8-1.9c0-0.4,0.1-0.8,0.6-1.1c17.4-9.4,45.9,2.6,56.6,7.1c0.6,0.3,1.2,0.5,1.7,0.7
			c6.7,2.8,8.5,2,8.7,1.9l0.1-0.2l0.4-0.1c0.7-0.2,16.3-5.5,34.7-1.8c34.5,6.9,52.4,27.9,51.7,44.2c-0.6,14.3,5.3,16.2,5.4,16.3
			l0.2,0.1c9.8,5.4,10.6,9,10.6,13.2c0,3.1-1.5,6.8-8.6,7h-0.1c-3.6,0-13.2-6.2-23.6-13.1c-0.2-0.1-0.4-0.2-0.5-0.3
			c5.2,5,12.2,11.5,13.4,12.5c0.5,0.2,1,0.6,1.1,1.3c0.2,1.2-1.1,2.2-2,2.9c-4.4,2.9-28.9-7.5-67.2-28.6c-23-12.6-45.8-6.4-60.9,1
			c-16.5,8.1-27.6,19.4-27.7,19.5l-0.1,0.1c0,0-3.2,2.7-1.7,12.3c4.2,27.4-0.1,46.5-0.3,47.7c-0.2,1.5-0.8,5-2.5,5.8
			C54.4,196.5,54.2,196.5,53.9,196.5z M40.2,164.5c0.7,0,1.3,0.2,1.7,0.5c1.2,1,3.1,5.8,6.6,15.8c1.9,5.3,4.4,12.4,5.4,13.7
			c0.4-0.5,1-2.4,1.3-4.2v-0.1c0-0.2,4.6-19.3,0.3-47c-1.6-10.3,1.8-13.6,2.4-14.2c0.8-0.8,11.9-11.8,28.2-19.8
			c22.3-11,44-11.3,62.8-1c58.6,32.2,64.9,28.8,65.1,28.7c0.5-0.3,0.8-0.6,1-0.8l-0.1-0.1c-0.6-0.6-15.8-14.5-18.8-18
			c-0.7-0.8-0.5-1.4-0.2-1.7c0.8-0.9,0.9-0.8,8.5,4.3c6.7,4.5,19.2,12.7,22.4,12.7c0,0,0,0,0.1,0c5.9-0.2,6.6-2.9,6.6-5
			c0-3,0-6.1-9.5-11.4c-1-0.4-7.3-3.2-6.7-18.2c0.6-15.5-16.7-35.5-50.1-42.2c-16.6-3.3-31.3,0.9-33.4,1.6
			c-0.9,0.9-3.4,1.7-10.9-1.4c-0.5-0.2-1.1-0.5-1.8-0.7c-10.1-4.2-36.2-15.3-52.9-8.1c0.3,0.1,0.6,0.1,0.9,0.2
			c5.2,1.3,15.9,4.1,21.2,10.4c4.4,5.2,6,9.4,4.4,12c-0.3,0.6-1.3,1.6-3.8,4.3c-8.3,8.8-27.7,29.5-43.8,57c-3,5.2-5.2,6.6-5.7,6.8
			c-1.1,0.7-26.3,16.9-34.7,30.9c-0.2,0.3-0.2,0.5-0.2,0.5c0.5,0.9,6.1,0.7,9.1,0.6c1.4,0,2.8-0.1,4-0.1c2.9,0,7.5-1.7,11.6-3.3
			C35.4,165.5,38.3,164.5,40.2,164.5z"/>
	</g>
	<g>
		<path class="st0" d="M208,94.5c0,0-1.3-2.5-6.8,1"/>
		<path d="M201.2,96.3c-0.2,0-0.5-0.1-0.6-0.3c-0.2-0.3-0.1-0.8,0.2-1c2.6-1.6,4.7-2.3,6.3-1.9c1.1,0.3,1.6,1,1.6,1.1
			c0.2,0.4,0.1,0.8-0.3,1c-0.4,0.2-0.8,0.1-1-0.3c0-0.1-1.2-1.6-5.8,1.3C201.4,96.3,201.3,96.3,201.2,96.3z"/>
	</g>
	<g>
		<ellipse transform="matrix(0.5486 -0.8361 0.8361 0.5486 3.3883 215.0641)" cx="200.9" cy="104.4" rx="3.3" ry="1.7"/>
	</g>
	<g>
		<path class="st0" d="M155.4,107.5c0,0-2.8,15.7-4.7,20.1c-6.1,14.2,21-13.2,21.8-19.4"/>
		<path d="M150.6,132.6c-0.6,0-1-0.3-1.3-0.5c-0.8-0.8-0.6-2.3,0.5-4.9c1.8-4.3,4.6-19.7,4.6-19.9c0.1-0.5,0.6-0.9,1.2-0.8
			c0.5,0.1,0.9,0.6,0.8,1.2c-0.1,0.6-2.8,15.8-4.7,20.3c-0.6,1.5-0.8,2.3-0.8,2.6c3.3-0.7,20.1-17.7,20.7-22.5
			c0.1-0.5,0.6-0.9,1.1-0.9c0.5,0.1,0.9,0.6,0.9,1.1c-0.7,5.3-17.2,22.6-22,24.1C151.2,132.5,150.9,132.6,150.6,132.6z M150.9,130.8
			L150.9,130.8L150.9,130.8z"/>
	</g>
	<g>
		<path class="st1" d="M58.6,129.8c0,0,44.6-45.6,89.8-20.7s63.2,30.6,66.1,28.6c2.9-1.9,1-2.4,1-2.4s-14.7-14-18.7-18.4
			c-31.9-10.7-33.1-20.3-45.6-24.9c-45.1-16.4-91,30.3-92.9,31.7c-1.9,1.4-13,13-10.1,14C49.5,138.3,55,132.4,58.6,129.8L58.6,129.8
			z"/>
		<path d="M213,139c-7.8,0-30.9-10.3-65-29.1c-23-12.6-45.8-6.4-60.9,1c-16.5,8.1-27.6,19.4-27.7,19.5l-0.1,0.1
			c-1.4,1-3,2.5-4.6,3.9c-4,3.5-5.4,4.7-6.7,4.3c-0.6-0.2-1-0.7-1.1-1.4C46.3,134,56.3,124,57.7,123c0.1-0.1,0.6-0.5,1-0.9
			c10.9-10,22.1-18,33.3-23.8c21.6-11.2,41.6-13.6,59.5-7.1c4.9,1.8,8.1,4.3,11.9,7.3c6.2,4.9,14,11,33.7,17.6
			c0.2,0.1,0.3,0.1,0.4,0.3c3.8,4,16.9,16.7,18.5,18.2c0.5,0.2,1,0.6,1.1,1.3c0.2,1.2-1.1,2.2-2,2.9C214.7,138.9,213.9,139,213,139z
			 M119.8,100.7c10.2,0,20,2.5,29.1,7.5c58.6,32.2,64.9,28.8,65.1,28.7c0.5-0.3,0.8-0.6,1-0.8l-0.1-0.1
			c-0.6-0.6-14.3-13.7-18.6-18.2c-19.9-6.7-27.7-12.9-34.1-17.8c-3.8-3-6.8-5.3-11.4-7c-17.3-6.3-36.8-4-57.9,7
			c-11.1,5.7-22.1,13.7-32.8,23.5c-0.7,0.7-1,0.9-1.2,1.1c-2.2,1.6-9.3,9.6-10.1,12.1c1-0.6,2.9-2.3,4.4-3.7c1.6-1.4,3.3-2.9,4.7-4
			c0.9-0.9,12-11.9,28.1-19.8C97.6,103.6,108.9,100.7,119.8,100.7z M58.6,129.8L58.6,129.8L58.6,129.8z"/>
	</g>
	<g>
		<path class="st0" d="M138.3,88.6c0,0,1.8,0.3,1.2,3.6c-0.6,3.3-2.6,14.9-16.9,25.6c-1.8,1.3,8.6-0.8,13.1-1.8
			c1.5-0.3,2.9-0.8,4.3-1.4c6-2.5,18.6-9,18.8-20.9l-0.6-21.4L138.3,88.6z"/>
	</g>
	<g>
		<path class="st0" d="M138.3,88.6c0,0,1.8,0.3,1.2,3.6c-0.6,3.3-2.6,14.9-16.9,25.6c-1.8,1.3,27.9,1.8,36.8-22.2"/>
		<path d="M125.1,119.2c-0.2,0-0.3,0-0.5,0c-1.9,0-2.7-0.3-2.9-1.1c-0.1-0.5,0-0.9,0.4-1.2c13.8-10.3,15.8-21.2,16.5-24.8v-0.2
			c0.3-1.7-0.2-2.3-0.4-2.4c-0.5-0.1-0.9-0.6-0.8-1.1c0.1-0.5,0.6-0.9,1.2-0.8c0.2,0,1,0.2,1.6,1c0.6,0.9,0.8,2.1,0.5,3.7v0.2
			c-1.8,9.5-7,17.8-15.6,24.7l0,0c3.1,0,9.4-0.7,15.8-3.6c8.7-3.9,14.7-10.1,17.8-18.4c0.2-0.5,0.8-0.8,1.3-0.6
			c0.5,0.2,0.8,0.8,0.6,1.3C153.2,115.1,133,119.2,125.1,119.2z"/>
	</g>
	<g>
		<path class="st1" d="M199.9,73.9c0,0,10.3,4.8,13.6,18.2C213.4,92.1,210.7,82.3,199.9,73.9z"/>
	</g>
	<g>
		<path class="st1" d="M122.8,58.9c0,0-18.2-7.5-20.2-8.3s-12.6-2.9-16.8-3c-4-0.1,6.9-0.2,20.4,5.6C116,57.4,122.8,58.9,122.8,58.9
			z"/>
	</g>
</g>
</svg>
