<svg id="레이어_1" data-name="레이어 1" xmlns="http://www.w3.org/2000/svg" xmlns:xlink="http://www.w3.org/1999/xlink" viewBox="0 0 960 540"><defs><style>.cls-1,.cls-7{fill:none;}.cls-2{fill:#ebca9b;}.cls-3{fill:#e5cd8f;}.cls-4{fill:#7f4e31;}.cls-5{clip-path:url(#clip-path);}.cls-6{fill:#73462e;}.cls-7{stroke:#73462e;stroke-linecap:round;stroke-width:5.91px;}.cls-38,.cls-7{stroke-miterlimit:10;}.cls-8{opacity:0.1;}.cls-9{fill:#fff8f7;}.cls-10{fill:#eee;}.cls-11{fill:#ecf1f1;}.cls-12{opacity:0.15;}.cls-13{fill:#ff7648;}.cls-14{fill:#ff8962;}.cls-15{fill:#edda82;}.cls-16{fill:#faec9b;}.cls-17{fill:#a694ff;}.cls-18{opacity:0.5;}.cls-19{clip-path:url(#clip-path-2);}.cls-20{fill:#8c78f4;}.cls-21{fill:#715ce5;}.cls-22{fill:#fb9d12;}.cls-23{fill:#ffb812;}.cls-24{fill:#d57e00;}.cls-25{fill:#12c1a6;}.cls-26{fill:#12e0bf;}.cls-27{fill:#00b488;}.cls-28{fill:#301600;opacity:0.2;}.cls-29{fill:#f27600;}.cls-30{fill:#f0a11c;}.cls-31{fill:#ffc94b;}.cls-32{fill:#a16532;}.cls-33{fill:#5981a1;}.cls-34{fill:#6489af;}.cls-35{fill:#345363;}.cls-36{fill:#606060;}.cls-37{fill:#fff;}.cls-38{fill:#ffb030;stroke:#ffdb38;stroke-width:6px;}</style><clipPath id="clip-path"><rect class="cls-1" x="-88.34" y="21.39" width="1143.59" height="548.1" transform="translate(7.48 -11.91) rotate(1.42)"/></clipPath><clipPath id="clip-path-2"><rect class="cls-1" x="816.67" y="30.84" width="107.76" height="137.63" rx="14.18" transform="translate(113.72 541.24) rotate(-36.79)"/></clipPath></defs><rect class="cls-2" width="957.61" height="540"/><rect class="cls-3" x="-37.82" y="28.01" width="925.26" height="261.82" transform="translate(-7.22 20.82) rotate(-2.78)"/><g id="table"><rect class="cls-4" x="-87.92" y="-12.01" width="1143.59" height="581.5" transform="translate(7.07 -11.93) rotate(1.42)"/><rect class="cls-1" x="-90.43" y="246.78" width="1021.88" height="264.14" transform="translate(9.53 -10.32) rotate(1.42)"/><path class="cls-1" d="M-102.7,316.89l1081.11,25.8"/><path class="cls-1" d="M749.81,408.71a1002.83,1002.83,0,0,0,257.41-5"/><path class="cls-1" d="M393.93,302.5,756.35,315"/><path class="cls-1" d="M998.89,280l-224.33,2.07c-20.16.19-40.95.51-59.41,8.6a1415.48,1415.48,0,0,0,324,5.64"/><path class="cls-1" d="M628.9,268.84,857.41,257"/><g class="cls-5"><path class="cls-6" d="M994.09,299.22h0c-86.92-3-150.64-6.41-189.38-10.26-15.73-1.56-27.44-3.21-34.8-4.89-6.72-1.53-11.23-3.28-11.4-6.85-.2-4.13,5.54-5.65,8.29-6.38a78.29,78.29,0,0,1,8.72-1.7c29.1-3.85,213.33.29,221.15.47h0a2.91,2.91,0,1,1-.14,5.82c-1.91,0-191.6-4.31-220.25-.52a61.08,61.08,0,0,0-10,2.14,65.53,65.53,0,0,0,9,2.19c8.3,1.55,20.63,3.09,36.62,4.55,39.07,3.59,100.43,6.82,182.36,9.61a2.92,2.92,0,0,1-.17,5.83Z"/><path class="cls-6" d="M967.35,354.25h-.05c-7.3-.3-730.92-30-794.92-33.65s-241.82-9-243.61-9.07a2.93,2.93,0,0,1-2.83-3,2.92,2.92,0,0,1,3-2.83h0c1.79.05,179.77,5.38,243.78,9.08s787.52,33.34,794.82,33.64a2.92,2.92,0,0,1-.19,5.83Z"/><path class="cls-6" d="M32.33,57.47A845.84,845.84,0,0,1-86.29,46.16a2.9,2.9,0,0,1-2.33-3.39,2.92,2.92,0,0,1,3.39-2.34A840.52,840.52,0,0,0,40.56,51.81c40.45.57,77.29-2.12,109.5-8,40.08-7.31,73-19.6,97.92-36.53a2.92,2.92,0,0,1,3.28,4.82C225.68,29.5,192,42.1,151.05,49.56c-32.59,5.94-69.82,8.66-110.66,8.07Q36.33,57.57,32.33,57.47Z"/><path class="cls-6" d="M100.39,32.82c-3.86-.1-7.8-.31-11.81-.66C63.86,30,44.65,25.42,31.47,18.5,21.29,13.16,18.52,8.29,18.23,7.76L23.39,5l0,0c.09.16,10.13,16.54,65.71,21.35a198.94,198.94,0,0,0,71.79-7.25c17.71-5.14,28.51-11,28.62-11a2.91,2.91,0,0,1,2.79,5.11c-.45.25-11.33,6.14-29.61,11.47A206.9,206.9,0,0,1,100.39,32.82Z"/><path class="cls-6" d="M755.6,321.37c-19.45-.48-66.59-3.42-116-6.5-47.36-2.95-96.33-6-121.07-6.89-55-2-126-2.54-126.72-2.54a2.92,2.92,0,1,1,.05-5.83c.71,0,71.83.58,126.88,2.55,24.81.88,73.82,3.94,121.22,6.89,57.3,3.57,116.56,7.27,123.47,6.47a2.91,2.91,0,0,1,.67,5.79A83.59,83.59,0,0,1,755.6,321.37Z"/><path class="cls-6" d="M720.76,255.88a2.92,2.92,0,0,1,.11-5.83c1.72,0,172.31,1.82,198.21-1.1a2.92,2.92,0,0,1,.65,5.8c-26.25,3-191.89,1.21-198.93,1.13Z"/><path class="cls-6" d="M757.61,410.68a2.91,2.91,0,0,1,.11-5.82c1.72,0,172.31,1.82,198.21-1.1a2.91,2.91,0,1,1,.65,5.79c-26.25,3-191.89,1.21-198.92,1.13Z"/><path class="cls-7" d="M1133.73,181.8l-861.63-7"/><path class="cls-7" d="M-100,152.52l718-15"/><path class="cls-7" d="M660.13,14.86,537.84,34.43c-10.44,1.68-23.49,6.08-23.94,16.65-.25,5.81,4,11.07,9.14,13.77s11.09,3.38,16.88,4c116,12.49,234.47,24.84,348.15-1.19,14.84-3.4,29.87-7.6,42.29-16.38s21.95-23,21.32-38.23c-.59-14.47-10.22-27.35-22.16-35.55S903.46-35,889.59-39.17"/><path class="cls-7" d="M690.11,24.18,628.74,39.09c-5.88,1.43-13.37,5.56-11.37,11.27,1.38,3.94,6.41,4.92,10.57,5.23a856.16,856.16,0,0,0,195.69-7.75c8.52-1.32,17.37-2.91,24.34-8s11.39-14.72,7.81-22.57c-4-8.79-15.2-11.15-24.82-12a395,395,0,0,0-66.51-.51"/><path class="cls-7" d="M65.16,275.82c22.63-3.58,46.9-1,66.37-10.93,7.48-3.8,14.29-9.26,16.55-16.35,3-9.53-3.08-19.89-12.22-26.21s-20.8-9.38-32.24-11.9c-23.67-5.21-48.06-8.75-72.46-8.07s-48.93,5.73-69.44,16.69C-55.57,228.3-69.8,242-77,258c-2.66,5.85-.36,12.91,5,15.71C-58.12,280.87-22.51,289.67,65.16,275.82Z"/><path class="cls-7" d="M9.26,267.52a182.71,182.71,0,0,0,35.14-5l2.54-.65A102.89,102.89,0,0,0,69,253.73c2.17-1.14,4.27-2.46,5.36-4.21,2.15-3.47-1.53-6.56-5.11-8.71C52,230.45,29,225.16,6.73,226.46a109.54,109.54,0,0,0-36.49,8.43c-11.19,4.8-25.41,12.35-27.57,22.25a5.11,5.11,0,0,0,3,6.18,20.8,20.8,0,0,0,5.57,1.29C-30.22,267.12-10.18,268.52,9.26,267.52Z"/><path class="cls-7" d="M375.25,412.55l249.38,7.58"/><path class="cls-7" d="M97.3,98.84,244.61,96"/><path class="cls-7" d="M497.26,449.75c47.79,1.61,108,3,129.86,3.32"/><path class="cls-7" d="M-95.82,200.91A346.58,346.58,0,0,1,77.1,172.3c78.78,7.36,155,41.74,233.89,35.46"/><path class="cls-7" d="M265.71,237.39a1002.33,1002.33,0,0,0,203.91-6.28"/></g></g><path class="cls-8" d="M1038,368.83l-5.43,9.56a5.87,5.87,0,1,1-4.87-2.76l5.42-9.57-15.59-8.85-5.43,9.57a5.86,5.86,0,1,1-4.88-2.77l5.43-9.57L997.1,345.6l-5.43,9.56a5.86,5.86,0,1,1-4.88-2.77l5.43-9.56L976.63,334l-5.43,9.57a5.86,5.86,0,1,1-4.88-2.77l5.43-9.57-15.59-8.85-5.43,9.57a5.86,5.86,0,1,1-4.88-2.77l5.43-9.56-15.59-8.85-5.43,9.56a5.87,5.87,0,1,1-4.88-2.76l5.43-9.57-15.39-8.73L831.14,447.78l138,78.31,84.28-148.53Z"/><path class="cls-9" d="M1039.15,364.14l-5.42,9.57a5.87,5.87,0,1,1-4.88-2.77l5.43-9.56-15.6-8.85-5.42,9.56a5.88,5.88,0,1,1-4.88-2.76l5.43-9.57-15.6-8.85-5.42,9.57a5.87,5.87,0,1,1-4.88-2.77l5.43-9.57-15.6-8.84-5.43,9.56a5.86,5.86,0,1,1-4.87-2.77l5.43-9.56-15.6-8.85-5.43,9.57a5.86,5.86,0,1,1-4.87-2.77l5.42-9.57-15.59-8.85-5.43,9.57a5.86,5.86,0,1,1-4.87-2.77l5.42-9.56-15.39-8.74L832.25,443.09l138,78.31,84.28-148.52Z"/><line class="cls-10" x1="908.36" y1="343.66" x2="1016.59" y2="405.07"/><path class="cls-11" d="M1016.68,407a1.88,1.88,0,0,1-1-.25L907.4,345.35a2,2,0,0,1,1.93-3.39l108.22,61.42a1.94,1.94,0,0,1-.87,3.63Z"/><line class="cls-10" x1="899.23" y1="359.75" x2="1007.46" y2="421.16"/><path class="cls-11" d="M1007.55,423.11a2,2,0,0,1-1-.26L898.27,361.44a2,2,0,0,1,1.93-3.39l108.22,61.42a2,2,0,0,1-.87,3.64Z"/><line class="cls-10" x1="890.1" y1="375.84" x2="998.33" y2="437.25"/><path class="cls-11" d="M998.42,439.2a2,2,0,0,1-1-.26L889.14,377.53a2,2,0,0,1,1.93-3.39l108.22,61.42a2,2,0,0,1,.73,2.65A2,2,0,0,1,998.42,439.2Z"/><line class="cls-10" x1="880.97" y1="391.93" x2="989.2" y2="453.34"/><path class="cls-11" d="M989.29,455.29a2,2,0,0,1-1-.26L880,393.62a2,2,0,0,1,1.93-3.39l108.22,61.42a2,2,0,0,1,.73,2.65A2,2,0,0,1,989.29,455.29Z"/><line class="cls-10" x1="871.84" y1="408.02" x2="980.07" y2="469.43"/><path class="cls-11" d="M980.16,471.37a1.88,1.88,0,0,1-1-.25L870.88,409.71a2,2,0,0,1,1.93-3.39L981,467.74a1.94,1.94,0,0,1-.87,3.63Z"/><line class="cls-10" x1="862.71" y1="424.11" x2="970.94" y2="485.52"/><path class="cls-11" d="M971,487.46a1.88,1.88,0,0,1-1-.25L861.75,425.8a1.95,1.95,0,0,1,1.92-3.39L971.9,483.83a1.94,1.94,0,0,1-.87,3.63Z"/><g class="cls-12"><path d="M881.91,339.75l-.39-.74a3.87,3.87,0,0,0-5.24-1.63l.26-.14c-4.16-7.94-11-12.75-16.15-11.74l-.12,0-.25.06-.28.08-.17,0a2.74,2.74,0,0,0-.4.15l-.13.05a4.25,4.25,0,0,0-.43.21c-5.24,2.75-5.71,12.18-1,21.08l.26-.14a3.87,3.87,0,0,0-1.63,5.24l1.95,3.72h0l6.2,11.82h0l9.39,17.89h0l11.74,22.37h0l3.76,7.15h0l2,3.92a3.78,3.78,0,0,0,5.14,1.44l18.45-9.69a3.77,3.77,0,0,0,1.74-5l-34.71-66.13Z"/></g><path class="cls-13" d="M859.7,342.85c-4.67-8.89-4.21-18.33,1-21.08S874,324,878.67,332.89"/><path class="cls-14" d="M866.89,322c-.1-.18-.22-.35-.33-.53a7.66,7.66,0,0,0-5.83.34c-5.24,2.75-5.7,12.19-1,21.08l5.49-2.88C868.87,334.07,869.75,327.43,866.89,322Z"/><path class="cls-13" d="M918.75,401.53a3.77,3.77,0,0,1-1.74,5l-4.36,2.3-3.76-7.16,7.8-4.09Z"/><polygon class="cls-15" points="916.69 397.62 916.69 397.62 912.94 390.46 916.69 397.62"/><rect class="cls-15" x="906.51" y="392.05" width="8.81" height="8.08" transform="translate(-79.76 468.28) rotate(-27.67)"/><path class="cls-14" d="M912.65,408.87l-14.09,7.39a3.78,3.78,0,0,1-5.14-1.44l-2-3.91,17.52-9.2Z"/><rect class="cls-16" x="888.35" y="398.69" width="19.79" height="8.08" transform="translate(-84.27 463.53) rotate(-27.69)"/><rect class="cls-14" x="872.81" y="343.71" width="19.79" height="58.82" transform="translate(-72.29 452.92) rotate(-27.69)"/><polygon class="cls-13" points="884.04 335.4 912.94 390.46 905.14 394.56 877.8 342.48 885.6 338.38 884.04 335.4"/><rect class="cls-15" x="876.52" y="337.25" width="8.81" height="3.37" transform="translate(-56.61 448.17) rotate(-27.69)"/><path class="cls-15" d="M884,335.4l-7.8,4.09-2.19-4.17,4.36-2.29a3.88,3.88,0,0,1,5.24,1.63Z"/><rect class="cls-16" x="858.36" y="343.9" width="19.79" height="3.37" transform="translate(-61.21 442.5) rotate(-27.66)"/><path class="cls-16" d="M876.24,339.49l-17.53,9.2-.38-.73a3.89,3.89,0,0,1,1.63-5.25l14.09-7.39Z"/><rect class="cls-8" x="819.26" y="34.3" width="107.76" height="137.63" rx="14.18" transform="translate(112.17 543.49) rotate(-36.79)"/><rect class="cls-17" x="816.8" y="30.85" width="107.76" height="137.63" rx="14.18" transform="translate(113.75 541.33) rotate(-36.79)"/><g class="cls-18"><g class="cls-19"><rect class="cls-20" x="763.56" y="38.32" width="123.77" height="2.04" transform="translate(140.92 502.3) rotate(-36.8)"/><rect class="cls-20" x="773.4" y="51.49" width="123.77" height="2.04" transform="translate(135.01 510.84) rotate(-36.8)"/><rect class="cls-20" x="783.25" y="64.66" width="123.77" height="2.04" transform="translate(129.08 519.36) rotate(-36.8)"/><rect class="cls-20" x="793.1" y="77.83" width="123.77" height="2.04" transform="matrix(0.8, -0.6, 0.6, 0.8, 123.15, 527.88)"/><rect class="cls-20" x="802.95" y="90.99" width="123.77" height="2.04" transform="translate(117.22 536.4) rotate(-36.8)"/><rect class="cls-20" x="812.8" y="104.16" width="123.77" height="2.04" transform="translate(111.3 544.94) rotate(-36.8)"/><rect class="cls-20" x="822.65" y="117.33" width="123.77" height="2.04" transform="translate(105.37 553.45) rotate(-36.8)"/><rect class="cls-20" x="832.5" y="130.5" width="123.77" height="2.04" transform="translate(99.45 561.98) rotate(-36.8)"/><rect class="cls-20" x="842.35" y="143.67" width="123.77" height="2.04" transform="translate(93.51 570.48) rotate(-36.8)"/><rect class="cls-20" x="852.19" y="156.84" width="123.77" height="2.04" transform="translate(87.59 579.01) rotate(-36.8)"/><rect class="cls-20" x="914.83" y="-15.1" width="2.04" height="158.45" transform="translate(144.02 561.3) rotate(-36.79)"/><rect class="cls-20" x="901.66" y="-5.25" width="2.04" height="158.45" transform="translate(135.5 555.37) rotate(-36.79)"/><rect class="cls-20" x="888.49" y="4.6" width="2.04" height="158.45" transform="translate(126.98 549.45) rotate(-36.79)"/><rect class="cls-20" x="875.32" y="14.45" width="2.04" height="158.45" transform="translate(118.46 543.52) rotate(-36.79)"/><rect class="cls-20" x="862.16" y="24.3" width="2.04" height="158.45" transform="translate(109.94 537.6) rotate(-36.79)"/><rect class="cls-20" x="848.99" y="34.15" width="2.04" height="158.45" transform="translate(101.42 531.68) rotate(-36.79)"/><rect class="cls-20" x="835.82" y="44" width="2.04" height="158.45" transform="translate(92.9 525.75) rotate(-36.79)"/><rect class="cls-20" x="822.65" y="53.85" width="2.04" height="158.45" transform="translate(84.37 519.83) rotate(-36.79)"/></g></g><path class="cls-21" d="M891.83,69.27l-17,9.07a5.78,5.78,0,0,1-5.45,0l-17.82-9.5a2.34,2.34,0,0,0-3.25,2.44l4.08,19.77a5.78,5.78,0,0,1-1.55,5.23L837.38,110a2.25,2.25,0,0,0,1.26,3.79l19.8,3.1a5.79,5.79,0,0,1,4.23,3l9.54,18.29a2.25,2.25,0,0,0,4-.12l8-17.62a5.79,5.79,0,0,1,4.48-3.35l19.15-2.64a2.25,2.25,0,0,0,1.25-3.84L894.22,96.35a5.81,5.81,0,0,1-1.72-4.93l2.62-19.87a2.25,2.25,0,0,0-3.29-2.28Z"/><rect class="cls-22" x="40.5" y="140.47" width="67.83" height="67.83" rx="6.09" transform="translate(-49.51 30.89) rotate(-17.7)"/><rect class="cls-23" x="47.89" y="147.88" width="53" height="53" rx="4.04" transform="translate(-49.51 30.88) rotate(-17.7)"/><path class="cls-24" d="M59.25,170.62h0a4.89,4.89,0,0,1-6.15-3.16h0a4.89,4.89,0,0,1,3.17-6.14h0a4.87,4.87,0,0,1,6.14,3.16h0A4.88,4.88,0,0,1,59.25,170.62Z"/><path class="cls-24" d="M75.87,179.26h0a4.89,4.89,0,0,1-6.14-3.17h0A4.87,4.87,0,0,1,72.89,170h0A4.88,4.88,0,0,1,79,173.11h0A4.89,4.89,0,0,1,75.87,179.26Z"/><path class="cls-24" d="M92.47,187.69h0a4.88,4.88,0,0,1-6.14-3.16h0a4.89,4.89,0,0,1,3.16-6.15h0a4.89,4.89,0,0,1,6.14,3.17h0A4.87,4.87,0,0,1,92.47,187.69Z"/><rect class="cls-25" x="93.1" y="63.74" width="67.83" height="67.83" rx="6.09" transform="translate(-30.27 128.14) rotate(-48.52)"/><rect class="cls-26" x="100.52" y="71.12" width="53" height="53" rx="4.04" transform="translate(-30.25 128.12) rotate(-48.52)"/><path class="cls-27" d="M123,91.09h0a4.21,4.21,0,0,1-.48-5.92h0a4.2,4.2,0,0,1,5.92-.48h0a4.19,4.19,0,0,1,.48,5.92h0A4.2,4.2,0,0,1,123,91.09Z"/><path class="cls-27" d="M114,101.91h0a4.21,4.21,0,0,1-.48-5.92h0a4.2,4.2,0,0,1,5.92-.48h0a4.19,4.19,0,0,1,.48,5.92h0A4.2,4.2,0,0,1,114,101.91Z"/><path class="cls-27" d="M133.53,99.86h0a4.2,4.2,0,0,1-.48-5.92h0a4.2,4.2,0,0,1,5.92-.49h0a4.2,4.2,0,0,1,.48,5.92h0A4.2,4.2,0,0,1,133.53,99.86Z"/><path class="cls-27" d="M124.45,110.67h0a4.2,4.2,0,0,1-.48-5.92h0a4.21,4.21,0,0,1,5.92-.48h0a4.2,4.2,0,0,1,.48,5.92h0A4.19,4.19,0,0,1,124.45,110.67Z"/><path class="cls-28" d="M-63.15,396.55a35.65,35.65,0,0,1,23.53-20.43,74,74,0,0,1,12.83-54.54l11-15.66A8.81,8.81,0,0,1-.67,311.36c1.39,19.61,18,38.91,35.78,47.2l14.52,6.22a14.69,14.69,0,0,0,19.28-7.72L79.21,333c9.9-23.13,39.74-30,58.18-12.58a36.31,36.31,0,0,1,8.7,40.07l17.51,20.69c3.1,3.66,1.07,7.47-3.91,7.32l-25.24-.78-12,28.06c-4,9.47-9.17,18-15.49,24.7a35.74,35.74,0,1,1-67.34,7.34l-35-15Q2,431.7-.53,430.38a35.74,35.74,0,0,1-43.83,13.08,35.73,35.73,0,0,1-7-4A35.74,35.74,0,0,1-63.15,396.55Z"/><path class="cls-29" d="M157.87,371.42c3.17,3.75,1.09,7.65-4,7.49l-35.61-1.09,15.13-35.34Zm-24.49-28.94"/><path class="cls-30" d="M-46.7,380.33a75.67,75.67,0,0,1,9.48-70L-26,294.32a9,9,0,0,1,15.54,5.58C-9,320,7.94,339.76,26.21,348.26l14.88,6.37a15,15,0,0,0,19.75-7.91L71.4,322.05c10.14-23.7,40.71-30.69,59.61-12.89a37.2,37.2,0,0,1,8.7,41.58l-24,56.12c-13.94,32.59-40.07,53.94-84.54,33L-5,424.36a76.22,76.22,0,0,1-41.69-44Zm0,0"/><path class="cls-31" d="M-46.7,380.33a75.67,75.67,0,0,1,9.48-70L-26,294.32a9,9,0,0,1,15.54,5.58C-9,320,7.94,339.76,26.21,348.26l14.88,6.37a15,15,0,0,0,19.75-7.91L71.4,322.05c10.14-23.7,40.71-30.69,59.61-12.89a36.78,36.78,0,0,1-2.32,21.43l-24,56.12c-13.94,32.59-40.07,53.94-84.54,33L-16,404.21A76,76,0,0,1-46.7,380.33Zm0,0"/><path class="cls-32" d="M107.36,335.86a6.81,6.81,0,1,1,3.58,8.95,6.81,6.81,0,0,1-3.58-8.95Zm0,0"/><path class="cls-33" d="M32.93,433.14a36.59,36.59,0,1,1,12.1,44,36.61,36.61,0,0,1-12.1-44Zm0,0"/><path class="cls-34" d="M32.93,433.14a36.61,36.61,0,0,1,40.19-21.62A36.62,36.62,0,0,1,45,477.15a36.63,36.63,0,0,1-12.1-44Zm0,0"/><path class="cls-35" d="M52,441.32a15.84,15.84,0,1,1,8.33,20.79A15.86,15.86,0,0,1,52,441.32Zm0,0"/><path class="cls-36" d="M-192.48-266.85V660.79H1184.59V-266.85ZM962.06,540H0V-3.24H962.06Z"/><rect class="cls-37" x="280" y="60.99" width="400" height="400"/><rect class="cls-38" x="198.74" y="391.38" width="562.52" height="124.03" rx="26.34"/></svg>