<?xml version="1.0" encoding="utf-8"?>
<!-- Generator: Adobe Illustrator 26.0.3, SVG Export Plug-In . SVG Version: 6.00 Build 0)  -->
<svg version="1.1" id="레이어_1" xmlns="http://www.w3.org/2000/svg" xmlns:xlink="http://www.w3.org/1999/xlink" x="0px"
	 y="0px" viewBox="0 0 273 117" style="enable-background:new 0 0 273 117;" xml:space="preserve">
<g>
	<rect x="38.9" y="1.5" style="fill:#252626;" width="195.2" height="115"/>
	<path style="fill:#040000;" d="M234.1,117.5H38.9c-0.6,0-1-0.4-1-1V1.5c0-0.6,0.4-1,1-1h195.2c0.6,0,1,0.4,1,1v115
		C235.1,117,234.6,117.5,234.1,117.5z M39.9,115.5h193.2V2.5H39.9V115.5z"/>
</g>
<g>
	<rect x="57.7" y="16.1" style="fill:#6B6C6B;" width="157.6" height="85.8"/>
	<path style="fill:#040000;" d="M215.3,102.9H57.7c-0.6,0-1-0.4-1-1V16.1c0-0.6,0.4-1,1-1h157.6c0.6,0,1,0.4,1,1v85.8
		C216.3,102.5,215.8,102.9,215.3,102.9z M58.7,100.9h155.6V17.1H58.7V100.9z"/>
</g>
<g>
	<g>
		<path style="fill:#409ED3;" d="M15.7,116.5h23.3V1.5H15.7C7.7,1.5,1.3,7.9,1.3,15.8v86.3C1.3,110.1,7.7,116.5,15.7,116.5z"/>
		<path style="fill:#040000;" d="M38.9,117.5H16.2c-8.8,0-15.9-7.1-15.9-15.9V16.4c0-8.8,7.1-15.9,15.9-15.9h22.7c0.6,0,1,0.4,1,1
			v115C39.9,117,39.5,117.5,38.9,117.5z M16.2,2.5C8.5,2.5,2.3,8.7,2.3,16.4v85.2c0,7.7,6.2,13.9,13.9,13.9h21.7V2.5H16.2z"/>
	</g>
	<g>
		
			<ellipse transform="matrix(0.2298 -0.9732 0.9732 0.2298 -21.6261 48.9597)" style="fill:#252626;" cx="20.1" cy="38.1" rx="8.1" ry="8.1"/>
		<path style="fill:#040000;" d="M20.1,47.2c-5,0-9.1-4.1-9.1-9.1s4.1-9.1,9.1-9.1c5,0,9.1,4.1,9.1,9.1S25.1,47.2,20.1,47.2z
			 M20.1,31.1c-3.9,0-7.1,3.2-7.1,7.1s3.2,7.1,7.1,7.1c3.9,0,7.1-3.2,7.1-7.1S24,31.1,20.1,31.1z"/>
	</g>
	<g>
		<path style="fill:#252626;" d="M23.7,65.3c0,2-1.6,3.6-3.6,3.6s-3.6-1.6-3.6-3.6c0-2,1.6-3.6,3.6-3.6S23.7,63.3,23.7,65.3z"/>
		<path style="fill:#040000;" d="M20.1,69.9c-2.5,0-4.6-2-4.6-4.6c0-2.5,2-4.6,4.6-4.6c2.5,0,4.6,2,4.6,4.6
			C24.7,67.8,22.6,69.9,20.1,69.9z M20.1,62.7c-1.4,0-2.6,1.1-2.6,2.6c0,1.4,1.2,2.6,2.6,2.6c1.4,0,2.6-1.1,2.6-2.6
			C22.7,63.9,21.5,62.7,20.1,62.7z"/>
	</g>
	<g>
		<path style="fill:#252626;" d="M23.7,80.6c0,2-1.6,3.6-3.6,3.6s-3.6-1.6-3.6-3.6s1.6-3.6,3.6-3.6S23.7,78.6,23.7,80.6z"/>
		<path style="fill:#040000;" d="M20.1,85.1c-2.5,0-4.6-2-4.6-4.6c0-2.5,2-4.6,4.6-4.6c2.5,0,4.6,2,4.6,4.6
			C24.7,83.1,22.6,85.1,20.1,85.1z M20.1,78c-1.4,0-2.6,1.1-2.6,2.6c0,1.4,1.2,2.6,2.6,2.6c1.4,0,2.6-1.1,2.6-2.6
			C22.7,79.1,21.5,78,20.1,78z"/>
	</g>
	<g>
		<path style="fill:#252626;" d="M27.8,76.5c-2,0-3.6-1.6-3.6-3.6s1.6-3.6,3.6-3.6s3.6,1.6,3.6,3.6S29.7,76.5,27.8,76.5z"/>
		<path style="fill:#040000;" d="M27.8,77.5c-2.5,0-4.6-2-4.6-4.6c0-2.5,2-4.6,4.6-4.6c2.5,0,4.6,2,4.6,4.6
			C32.3,75.4,30.3,77.5,27.8,77.5z M27.8,70.4c-1.4,0-2.6,1.1-2.6,2.6c0,1.4,1.2,2.6,2.6,2.6s2.6-1.1,2.6-2.6
			C30.3,71.5,29.2,70.4,27.8,70.4z"/>
	</g>
	<g>
		<circle style="fill:#252626;" cx="12.5" cy="72.9" r="3.6"/>
		<path style="fill:#040000;" d="M12.5,77.5c-2.5,0-4.6-2-4.6-4.6c0-2.5,2-4.6,4.6-4.6c2.5,0,4.6,2,4.6,4.6
			C17,75.4,15,77.5,12.5,77.5z M12.5,70.4c-1.4,0-2.6,1.1-2.6,2.6c0,1.4,1.2,2.6,2.6,2.6c1.4,0,2.6-1.1,2.6-2.6
			C15,71.5,13.9,70.4,12.5,70.4z"/>
	</g>
</g>
<g>
	<g>
		<path style="fill:#E24242;" d="M257.5,1.5h-23.4v115h23.4c7.9,0,14.2-6.4,14.2-14.2V15.7C271.7,7.9,265.3,1.5,257.5,1.5z"/>
		<path style="fill:#040000;" d="M256.9,117.5h-22.8c-0.6,0-1-0.4-1-1V1.5c0-0.6,0.4-1,1-1h22.8c8.7,0,15.8,7.1,15.8,15.8v85.4
			C272.7,110.4,265.6,117.5,256.9,117.5z M235.1,115.5h21.8c7.6,0,13.8-6.2,13.8-13.8V16.3c0-7.6-6.2-13.8-13.8-13.8h-21.8V115.5z"
			/>
	</g>
	<g>
		
			<ellipse transform="matrix(0.2306 -0.9731 0.9731 0.2306 116.8894 307.5002)" style="fill:#252626;" cx="252.9" cy="79.8" rx="8.1" ry="8.1"/>
		<path style="fill:#040000;" d="M252.9,88.9c-5,0-9.1-4.1-9.1-9.1s4.1-9.1,9.1-9.1s9.1,4.1,9.1,9.1S257.9,88.9,252.9,88.9z
			 M252.9,72.8c-3.9,0-7.1,3.2-7.1,7.1c0,3.9,3.2,7.1,7.1,7.1c3.9,0,7.1-3.2,7.1-7.1C260,75.9,256.8,72.8,252.9,72.8z"/>
	</g>
	<g>
		<path style="fill:#252626;" d="M249.3,52.7c0-2,1.6-3.6,3.6-3.6c2,0,3.6,1.6,3.6,3.6s-1.6,3.6-3.6,3.6
			C250.9,56.3,249.3,54.7,249.3,52.7z"/>
		<path style="fill:#040000;" d="M252.9,57.2c-2.5,0-4.6-2-4.6-4.6c0-2.5,2-4.6,4.6-4.6c2.5,0,4.6,2,4.6,4.6
			C257.4,55.2,255.4,57.2,252.9,57.2z M252.9,50.1c-1.4,0-2.6,1.2-2.6,2.6c0,1.4,1.1,2.6,2.6,2.6s2.6-1.2,2.6-2.6
			C255.4,51.3,254.3,50.1,252.9,50.1z"/>
	</g>
	<g>
		<path style="fill:#252626;" d="M249.3,37.4c0-2,1.6-3.6,3.6-3.6c2,0,3.6,1.6,3.6,3.6c0,2-1.6,3.6-3.6,3.6
			C250.9,41,249.3,39.4,249.3,37.4z"/>
		<path style="fill:#040000;" d="M252.9,42c-2.5,0-4.6-2-4.6-4.6c0-2.5,2-4.6,4.6-4.6c2.5,0,4.6,2,4.6,4.6
			C257.4,39.9,255.4,42,252.9,42z M252.9,34.9c-1.4,0-2.6,1.2-2.6,2.6c0,1.4,1.1,2.6,2.6,2.6s2.6-1.2,2.6-2.6
			C255.4,36,254.3,34.9,252.9,34.9z"/>
	</g>
	<g>
		<path style="fill:#252626;" d="M245.2,41.5c2,0,3.6,1.6,3.6,3.6s-1.6,3.6-3.6,3.6c-2,0-3.6-1.6-3.6-3.6S243.3,41.5,245.2,41.5z"/>
		<path style="fill:#040000;" d="M245.2,49.6c-2.5,0-4.6-2-4.6-4.6c0-2.5,2-4.6,4.6-4.6s4.6,2,4.6,4.6
			C249.8,47.6,247.8,49.6,245.2,49.6z M245.2,42.5c-1.4,0-2.6,1.2-2.6,2.6c0,1.4,1.1,2.6,2.6,2.6s2.6-1.2,2.6-2.6
			C247.8,43.6,246.7,42.5,245.2,42.5z"/>
	</g>
	<g>
		<path style="fill:#252626;" d="M260.5,41.5c2,0,3.6,1.6,3.6,3.6s-1.6,3.6-3.6,3.6S257,47,257,45.1S258.5,41.5,260.5,41.5z"/>
		<path style="fill:#040000;" d="M260.5,49.6c-2.5,0-4.6-2-4.6-4.6c0-2.5,2-4.6,4.6-4.6s4.6,2,4.6,4.6
			C265.1,47.6,263,49.6,260.5,49.6z M260.5,42.5c-1.4,0-2.6,1.2-2.6,2.6c0,1.4,1.1,2.6,2.6,2.6s2.6-1.2,2.6-2.6
			C263.1,43.6,261.9,42.5,260.5,42.5z"/>
	</g>
</g>
</svg>
