<?xml version="1.0" encoding="utf-8"?>
<!-- Generator: Adobe Illustrator 26.5.0, SVG Export Plug-In . SVG Version: 6.00 Build 0)  -->
<svg version="1.1" id="레이어_5" xmlns="http://www.w3.org/2000/svg" xmlns:xlink="http://www.w3.org/1999/xlink" x="0px"
	 y="0px" viewBox="0 0 240 240" style="enable-background:new 0 0 240 240;" xml:space="preserve">
<g>
	<defs>
		<rect id="SVGID_1_" width="240" height="240"/>
	</defs>
	<clipPath id="SVGID_00000083788331585543560530000014978902665437824446_">
		<use xlink:href="#SVGID_1_"  style="overflow:visible;"/>
	</clipPath>
	<g style="clip-path:url(#SVGID_00000083788331585543560530000014978902665437824446_);">
		<g>
			<g>
				<g>
					<rect x="98.6" y="227.3" style="fill:#FC8200;" width="13.6" height="58"/>
					<path d="M113.4,286.4h-16v-60.4h16V286.4z M99.8,284H111v-55.6H99.8V284z"/>
				</g>
				<g>
					<path style="fill:#FC8200;" d="M117.8,281.8c0-9.5-8-17.1-17.6-16.5c-8.8,0.6-15.4,8.3-15.4,17v0c0,4.7,3.8,8.5,8.5,8.5h16
						c4.7,0,8.5-3.8,8.5-8.5V281.8z"/>
					<path d="M109.3,292.1h-16c-5.4,0-9.7-4.4-9.7-9.7c0-9.6,7.3-17.6,16.5-18.2c5-0.3,9.7,1.4,13.3,4.7c3.6,3.3,5.6,8.1,5.6,12.9
						v0.6C119,287.7,114.7,292.1,109.3,292.1z M101.3,266.5c-0.3,0-0.7,0-1,0C92.3,267,86,274,86,282.4c0,4,3.3,7.3,7.3,7.3h16
						c4,0,7.3-3.3,7.3-7.3v-0.6c0-4.3-1.7-8.3-4.8-11.2C108.9,267.9,105.2,266.5,101.3,266.5z"/>
				</g>
				<g>
					<rect x="129.8" y="226.2" style="fill:#FC8200;" width="13.6" height="58.1"/>
					<path d="M144.6,285.5h-16V225h16V285.5z M131,283.1h11.2v-55.7H131V283.1z"/>
				</g>
				<g>
					<path style="fill:#FC8200;" d="M157,281.8c0-9.5-8-17.1-17.6-16.5c-8.8,0.6-15.4,8.3-15.4,17v0c0,4.7,3.8,8.5,8.5,8.5h16
						c4.7,0,8.5-3.8,8.5-8.5V281.8z"/>
					<path d="M148.4,292.1h-16c-5.4,0-9.7-4.4-9.7-9.7c0-9.6,7.3-17.6,16.5-18.2c5-0.3,9.7,1.4,13.3,4.7c3.6,3.3,5.6,8.1,5.6,12.9
						v0.6C158.2,287.7,153.8,292.1,148.4,292.1z M140.5,266.5c-0.3,0-0.7,0-1,0c-8,0.5-14.3,7.5-14.3,15.9c0,4,3.3,7.3,7.3,7.3h16
						c4,0,7.3-3.3,7.3-7.3v-0.6c0-4.3-1.7-8.3-4.8-11.2C148.1,267.9,144.4,266.5,140.5,266.5z"/>
				</g>
			</g>
			<g>
				<path style="fill:#FCCF00;" d="M180.4,169.5c0.7-8.1,3.6-15.8,5.4-23.8c4.7-21.6-0.4-45.7-15.5-61.8
					c-30.1-32-89.8-27.7-112,10.9c-9.3,16.2-11.4,36.2-6.6,54.3c2.4,8.8,6.3,17.4,6.6,26.5"/>
				<path d="M57,175.7c-0.2-6.2-2.2-12.3-4.1-18.3c-0.8-2.6-1.7-5.3-2.4-8c-5.1-18.9-2.6-39,6.7-55.2C67.5,76.3,86.4,64.5,109,61.9
					c23.8-2.8,47.1,5.1,62.1,21.2c14.8,15.7,20.8,39.8,15.8,62.9c-0.6,2.8-1.4,5.7-2.1,8.4c-1.4,5-2.8,10.1-3.2,15.3l-2.4-0.2
					c0.5-5.4,1.9-10.6,3.3-15.7c0.7-2.7,1.5-5.5,2.1-8.3c4.9-22.3-1-45.6-15.2-60.8c-14.6-15.5-37-23.1-60.1-20.4
					c-21.9,2.5-40.1,13.9-50,31.1c-9,15.6-11.3,35.1-6.4,53.4c0.7,2.6,1.6,5.3,2.4,7.9c2,6.1,4,12.4,4.2,18.9L57,175.7z"/>
			</g>
			<g>
				<path style="fill:#FCCF00;" d="M72.8,169.7c0.2,6-1.7,11.9-2.8,17.8c-3,15.2-0.9,32.4,9.6,43.8c6,6.5,14.2,10.6,22.7,12.7
					c8.5,2.1,17.4,2.4,26.2,2.1c12.8-0.5,26.6-2.6,35.9-11.4c10.7-10.2,12.6-26.9,10.2-41.5c-0.9-5.7-2.4-11.3-3.3-17
					c-0.6-3.7-0.8-7.5-0.5-11.2"/>
				<path d="M122.6,247.3c-8.1,0-14.7-0.7-20.7-2.2c-9.6-2.4-17.6-6.9-23.3-13.1c-9.6-10.5-13.3-27.2-9.9-44.8c0.3-1.5,0.6-3,1-4.5
					c1-4.3,2-8.7,1.8-13l2.4-0.1c0.1,4.6-0.9,9.2-1.9,13.6c-0.3,1.5-0.7,2.9-1,4.4c-3.3,16.8,0.1,32.8,9.3,42.7
					c5.4,5.8,13,10.1,22.1,12.4c7.2,1.8,15.2,2.4,25.9,2c11.3-0.4,25.6-2,35.1-11.1c12.9-12.3,11.2-32.4,9.8-40.5
					c-0.4-2.6-1-5.2-1.5-7.8c-0.6-3-1.3-6.1-1.8-9.2c-0.7-4.4-0.8-8-0.5-11.5l2.4,0.2c-0.3,3.3-0.1,6.7,0.5,10.9
					c0.5,3,1.1,6.1,1.7,9.1c0.5,2.6,1.1,5.2,1.6,7.9c3,17.9-0.9,33.4-10.5,42.6c-10.1,9.6-24.9,11.3-36.7,11.8
					C126.4,247.3,124.5,247.3,122.6,247.3z"/>
			</g>
			<g>
				<path style="fill:#03B34B;" d="M69.7,160.8c0,0,58.6,49.3,106.7,53.8c0,0-0.6,9.1-3,12.7c0,0-72.6-18.2-104.2-54.8L69.7,160.8z"
					/>
				<path d="M173.3,228.5c-0.1,0-0.2,0-0.3,0c-0.7-0.2-73.4-18.7-104.8-55.2c-0.2-0.2-0.3-0.5-0.3-0.8l0.6-11.7c0-0.5,0.3-0.9,0.7-1
					c0.4-0.2,0.9-0.1,1.3,0.2c0.6,0.5,58.9,49.1,106,53.6c0.6,0.1,1.1,0.6,1.1,1.3c0,0.4-0.7,9.4-3.2,13.3
					C174.1,228.3,173.7,228.5,173.3,228.5z M70.3,172c29.3,33.5,94.1,51.7,102.4,53.9c1.3-2.6,2-7.5,2.3-10.2
					c-42.8-4.7-94-44.2-104.3-52.5L70.3,172z"/>
			</g>
			<g>
				<path style="fill:#5186FF;" d="M181.9,212.3c1.1,0,2.2,0,3.3,0.4c1.3,0.5,2.2,1.7,2.9,3c2.5,4.6,1.7,10.3,0.6,15.4
					c-1,4.5-2.3,9-4.7,13c-2.4,3.9-6.1,7.3-10.6,8.4c-4.5,1.1-9.7-0.3-12.4-4.1c-1.8-2.5-2.2-5.7-2.3-8.8c-0.3-8.3,1.9-17,7.4-23.3
					C170.3,211.1,175.7,212.2,181.9,212.3z"/>
				<path d="M170.2,254c-4.1,0-8.1-1.9-10.3-5c-2.1-3-2.4-6.6-2.5-9.5c-0.3-9.5,2.4-18.1,7.7-24.1c4.1-4.7,8.9-4.6,14.1-4.4
					c0.9,0,1.8,0.1,2.8,0.1l0,0c1.2,0,2.5,0,3.7,0.5c1.4,0.6,2.6,1.8,3.5,3.5c2.7,5,1.9,11.1,0.7,16.3c-0.9,4.2-2.3,9.1-4.9,13.3
					c-2.9,4.6-6.9,7.8-11.4,8.9C172.4,253.9,171.3,254,170.2,254z M176.4,213.3c-3.7,0-6.8,0.5-9.6,3.6c-4.8,5.6-7.4,13.6-7.1,22.5
					c0.1,2.5,0.4,5.7,2.1,8.2c2.2,3.2,6.9,4.7,11.1,3.7c3.8-1,7.4-3.8,9.9-7.9c2.4-4,3.7-8.6,4.6-12.6c1.1-4.8,1.8-10.3-0.5-14.6
					c-0.7-1.2-1.4-2.1-2.3-2.4c-0.8-0.3-1.8-0.3-2.8-0.3c-1,0-1.9,0-2.8-0.1C178.1,213.4,177.3,213.3,176.4,213.3z"/>
			</g>
			<g>
				<path style="fill:#FFFFFF;" d="M179.9,221.5c-2.5-0.3-6.7-1.3-8.7-0.4c-1.4,0.6-2.4,3.7-0.4,4.2c5,1.2,10.2,1.3,15.3,1
					c1.9-0.1,4.6-1.7,2.2-3.4c-1.8-1.3-5.7-1.2-7.8-1.3C180.3,221.5,180.1,221.5,179.9,221.5z"/>
				<path d="M181.3,227.6c-3.9,0-7.5-0.4-10.8-1.2c-1.1-0.3-1.9-1.2-2-2.4c-0.2-1.6,0.9-3.5,2.2-4.1c1.9-0.8,4.9-0.4,7.5,0
					c0.7,0.1,1.3,0.2,1.9,0.3l0,0c0.2,0,0.4,0,0.5,0.1c0.4,0,0.8,0,1.2,0.1c2.4,0.1,5.4,0.2,7.2,1.5c1.6,1.1,1.5,2.3,1.3,2.9
					c-0.4,1.5-2.5,2.5-4.2,2.6C184.5,227.5,182.9,227.6,181.3,227.6z M173.4,221.9c-0.7,0-1.3,0.1-1.7,0.3c-0.3,0.2-0.9,1-0.8,1.7
					c0,0.2,0.1,0.2,0.2,0.2c4.3,1,9.2,1.3,14.9,0.9c1-0.1,1.9-0.6,2-0.9c0,0-0.1-0.1-0.4-0.3c-1.2-0.9-4-1-5.9-1
					c-0.5,0-0.9,0-1.3-0.1c-0.2,0-0.4,0-0.7-0.1l0,0c-0.6-0.1-1.2-0.2-2-0.3C176.5,222.2,174.8,221.9,173.4,221.9z"/>
			</g>
			<g>
				<path style="fill:#5186FF;" d="M188.6,223.9c-0.3,0-0.6,0-0.8,0.1c-0.2,0.2-0.2,0.4-0.2,0.6c-0.4,4-0.3,8,0.3,12
					c0.1,0.4,0.2,0.9,0.5,1.2c0.3,0.2,0.6,0.2,0.9,0.2c0.8,0,1.6,0,2.4,0c0.5,0,1.1,0,1.5-0.3c1-0.6,1-1.9,0.8-3.1
					c-0.4-2.6-1-5.2-1.7-7.7C191.7,224.4,191.3,224.2,188.6,223.9z"/>
				<path d="M191.9,239.2c-0.1,0-0.1,0-0.2,0l-2.4,0c-0.4,0-1,0-1.6-0.4c-0.9-0.6-1-1.6-1.1-2c-0.6-4-0.7-8.2-0.3-12.2
					c0-0.3,0.1-0.9,0.6-1.4c0.6-0.6,1.4-0.5,1.7-0.5c0,0,0,0,0,0c3.2,0.3,4,1,4.9,3.9c0.8,2.6,1.3,5.3,1.7,7.9
					c0.3,2.1-0.2,3.6-1.4,4.3C193.2,239.2,192.5,239.2,191.9,239.2z M189.2,236.8c0.1,0,0.2,0,0.2,0l2.4,0c0.3,0,0.7,0,0.9-0.1
					c0.2-0.1,0.4-0.7,0.2-1.9c-0.4-2.5-0.9-5-1.7-7.5c-0.5-1.9-0.6-2-2.5-2.2c-0.3,3.8-0.2,7.6,0.3,11.3
					C189.1,236.6,189.1,236.7,189.2,236.8z"/>
			</g>
			<g>
				<path style="fill:#FCCF00;" d="M103.9,64.5c0,0,5.4-13.2,14.4-10.3c12,3.9,14.5-4.4,14.5-4.4s3.9,14.8-9.2,20.3"/>
				<path d="M123.6,71.2c-0.5,0-0.9-0.3-1.1-0.7c-0.3-0.6,0-1.3,0.6-1.6c8.6-3.6,9.3-11.4,9-15.7c-0.6,0.7-1.5,1.4-2.6,2
					c-3,1.6-6.9,1.7-11.6,0.2c-7.9-2.5-12.9,9.5-13,9.6c-0.3,0.6-1,0.9-1.6,0.7c-0.6-0.2-0.9-0.9-0.7-1.6c0.2-0.6,5.9-14.2,15.9-11
					c4,1.3,7.3,1.3,9.7,0c2.5-1.3,3.3-3.6,3.3-3.7c0.2-0.5,0.6-0.8,1.2-0.8c0.5,0,1,0.4,1.1,0.9c0,0.2,4.1,15.8-9.9,21.7
					C123.9,71.1,123.7,71.2,123.6,71.2z"/>
			</g>
			<g>
				<g>
					<g>
						<path style="fill:#FC8200;" d="M130.2,123.7c-2-3.2-5.6-4.6-11.9-4.5c-6.3,0-9.9,1.3-11.9,4.5c-1.2,1.9-0.2,3.8,2.3,5.2
							c3.7,2.1,8.6,2.1,12.7,1.8c2.3-0.2,4.6-0.6,6.6-1.8C130.4,127.5,131.4,125.6,130.2,123.7z"/>
						<path d="M117.8,132c-3.4,0-6.9-0.4-9.8-2.1c-1.8-1-2.9-2.3-3.2-3.6c-0.3-1.1-0.1-2.2,0.6-3.2c2.2-3.5,6.1-5.1,12.8-5.1
							c0.1,0,0.2,0,0.3,0c6.7,0,10.6,1.6,12.8,5.1h0c0.6,1,0.8,2.2,0.6,3.2c-0.4,1.4-1.5,2.6-3.2,3.6c-2,1.1-4.4,1.8-7.2,1.9
							C120.2,132,119,132,117.8,132z M118.1,120.4c-5.8,0-9,1.2-10.7,4c-0.3,0.5-0.4,0.9-0.3,1.4c0.2,0.7,0.9,1.5,2.1,2.2
							c3.4,1.9,8,1.9,12,1.6c2.4-0.2,4.5-0.7,6.1-1.6c1.2-0.7,1.9-1.4,2.1-2.2c0.1-0.4,0-0.9-0.3-1.4c-1.7-2.8-4.9-3.9-10.9-4
							C118.2,120.4,118.2,120.4,118.1,120.4z"/>
					</g>
				</g>
				<g>
					<path style="fill:#982121;" d="M108.6,128.9L108.6,128.9c0,0,2.3,18.7,9.7,18.7s9.7-18.7,9.7-18.7h0
						C121.7,126.4,114.8,126.4,108.6,128.9z"/>
					<path d="M118.3,148.8c-8.2,0-10.6-17.7-10.8-19.7l-0.1-0.9l0.9-0.3c6.5-2.6,13.7-2.6,20.2,0l0.9,0.3l-0.1,0.9
						C128.9,131.1,126.5,148.8,118.3,148.8z M109.9,129.7c0.8,5.2,3.5,16.7,8.3,16.7c4.8,0,7.6-11.5,8.3-16.7
						C121.2,127.7,115.4,127.7,109.9,129.7z"/>
				</g>
			</g>
			<g>
				<path style="fill:#FCCF00;" d="M88.1,189.7c8.6-11.6,12.6-28.1,9.2-39.1c-1.3-4.3-3.8-8.7-8-10.3c-5-1.9-10.5,0.9-15,3.9
					c-9.9,6.7-18.7,15-26.1,24.4c-2.9,3.7-5.6,8-5.3,12.7c0.7,9.1,6.8,18.5,15.8,21.1C70.6,205.7,80.9,199.5,88.1,189.7z"/>
				<path d="M65.1,204.5c-2.2,0-4.4-0.3-6.6-0.9c-10.1-2.9-16.1-13.3-16.7-22.1c-0.4-5.1,2.6-9.7,5.5-13.5
					c7.4-9.6,16.3-17.9,26.3-24.7c4.1-2.8,10.3-6.2,16.1-4.1c5,1.9,7.5,7,8.7,11.1c3.4,11.2-0.5,28.1-9.4,40.1l0,0
					C82.3,199.6,73.9,204.5,65.1,204.5z M85.9,140.9c-3.9,0-8,2.4-10.9,4.3c-9.8,6.7-18.5,14.8-25.8,24.2c-2.7,3.4-5.4,7.5-5,11.8
					c0.6,8,5.9,17.4,15,20c13.6,3.9,23.4-6,28-12.2l0,0c8.5-11.5,12.3-27.5,9.1-38c-1.1-3.5-3.2-8-7.3-9.5
					C88,141.1,86.9,140.9,85.9,140.9z M88.1,189.7L88.1,189.7L88.1,189.7z"/>
			</g>
			<g>
				<path style="fill:#FCCF00;" d="M149,189.7c-8.6-11.6-12.6-28.1-9.2-39.1c1.3-4.3,3.8-8.7,8-10.3c5-1.9,10.5,0.9,15,3.9
					c9.9,6.7,18.7,15,26.1,24.4c2.9,3.7,5.6,8,5.3,12.7c-0.7,9.1-6.8,18.5-15.8,21.1C166.6,205.7,156.2,199.5,149,189.7z"/>
				<path d="M172,204.5c-8.7,0-17.2-4.9-24-14.1l0,0c-8.9-12.1-12.9-29-9.4-40.1c1.2-4,3.8-9.2,8.7-11.1c5.8-2.2,12,1.3,16.1,4.1
					c10,6.8,18.9,15.1,26.3,24.7c3,3.8,5.9,8.4,5.5,13.5c-0.6,8.8-6.6,19.3-16.7,22.1C176.4,204.2,174.2,204.5,172,204.5z M150,189
					c4.6,6.2,14.3,16.1,28,12.2c9.1-2.6,14.4-12,15-20c0.3-4.3-2.4-8.4-5-11.8c-7.3-9.4-16-17.5-25.8-24.2
					c-3.7-2.5-9.1-5.6-13.9-3.8c-4.1,1.5-6.2,6-7.3,9.5C137.7,161.5,141.5,177.5,150,189L150,189z"/>
			</g>
		</g>
		<g>
			<g>
				<path style="fill:#FCCF00;" d="M103.9,64.5c0,0,5.4-13.2,14.4-10.3c12,3.9,14.5-4.4,14.5-4.4s3.9,14.8-9.2,20.3"/>
				<path d="M123.6,71.2c-0.5,0-0.9-0.3-1.1-0.7c-0.3-0.6,0-1.3,0.6-1.6c8.6-3.6,9.3-11.4,9-15.7c-0.6,0.7-1.5,1.4-2.6,2
					c-3,1.6-6.9,1.7-11.6,0.2c-7.9-2.5-12.9,9.5-13,9.6c-0.3,0.6-1,0.9-1.6,0.7c-0.6-0.2-0.9-0.9-0.7-1.6c0.2-0.6,5.9-14.2,15.9-11
					c4,1.3,7.3,1.3,9.7,0c2.5-1.3,3.3-3.6,3.3-3.7c0.2-0.5,0.6-0.8,1.2-0.8c0.5,0,1,0.4,1.1,0.9c0,0.2,4.1,15.8-9.9,21.7
					C123.9,71.1,123.7,71.2,123.6,71.2z"/>
			</g>
		</g>
		<g>
			<g>
				<g>
					<g>
						<g>
							<path style="fill-rule:evenodd;clip-rule:evenodd;" d="M135,117.4c-3.3,0-5.9-2.5-5.9-5.5c0,0,0-0.8,0-0.8
								c0-1.4,0.7-2.7,1.6-3.7c0.4-0.4,1-1.1,1.6-1.1c0.8-0.1,1.6,0.7,2.2,1.1c1.2,0.7,2.6,1.1,4,1.1c0.5,0,1.1-0.1,1.6,0.1
								c1.3,0.4,1,1.9,0.9,3c-0.1,1.3-0.4,2.6-1.2,3.6C138.6,116.6,136.8,117.4,135,117.4"/>
						</g>
					</g>
				</g>
			</g>
		</g>
		<g>
			<path style="fill:#FC8200;" d="M125.3,141c1.6,0,2.5,1.8,1.7,3.3c-1.4,2.4-4,5.2-8.4,5.2c-4.4,0-7.2-2.7-8.9-5.1
				c-1-1.4,0-3.4,1.6-3.4H125.3z"/>
			<path d="M118.6,150.4c-4.8,0-7.9-3-9.7-5.5c-0.7-1-0.8-2.3-0.2-3.3c0.5-1,1.5-1.7,2.6-1.7h14c1.1,0,2,0.6,2.6,1.5
				c0.6,1,0.6,2.2,0,3.2C126.3,147.3,123.5,150.4,118.6,150.4z M111.3,142c-0.5,0-0.8,0.4-0.9,0.6c-0.2,0.3-0.2,0.8,0.1,1.3
				c1.5,2.1,4.1,4.6,8.1,4.6c4,0,6.3-2.6,7.5-4.7c0.3-0.5,0.2-1,0-1.3c-0.1-0.2-0.4-0.5-0.9-0.5H111.3z"/>
		</g>
		<g>
			<path style="fill:#FCCF00;" d="M131.3,105.7c0,0,1.6,2.1,4.6,2.8c1.7,0.4,3.6,1.8,5.3,1.6"/>
			<path d="M141,111.4c-1.2,0-2.4-0.5-3.4-1c-0.7-0.3-1.3-0.6-1.9-0.7c-3.4-0.7-5.2-3.1-5.3-3.2c-0.4-0.5-0.3-1.3,0.2-1.7
				c0.5-0.4,1.3-0.3,1.7,0.2c0,0,1.4,1.8,3.9,2.3c0.8,0.2,1.6,0.5,2.3,0.9c1,0.4,1.9,0.9,2.6,0.8c0.7-0.1,1.2,0.4,1.3,1.1
				c0.1,0.7-0.4,1.2-1.1,1.3C141.2,111.4,141.1,111.4,141,111.4z"/>
		</g>
		<g>
			<g>
				<g>
					<g>
						<g>
							<path style="fill-rule:evenodd;clip-rule:evenodd;" d="M102.2,117.4c3.3,0,5.9-2.5,5.9-5.5c0,0,0-0.8,0-0.8
								c0-1.4-0.7-2.7-1.6-3.7c-0.4-0.4-1-1.1-1.6-1.1c-0.8-0.1-1.6,0.7-2.2,1.1c-1.2,0.7-2.6,1.1-4,1.1c-0.5,0-1.1-0.1-1.6,0.1
								c-1.3,0.4-1,1.9-0.9,3c0.1,1.3,0.4,2.6,1.2,3.6C98.5,116.6,100.3,117.4,102.2,117.4"/>
						</g>
					</g>
				</g>
			</g>
		</g>
		<g>
			<path style="fill:#FCCF00;" d="M105.8,105.7c0,0-1.6,2.1-4.6,2.8c-1.7,0.4-3.4,1.8-5.2,1.6"/>
			<path d="M96.4,111.4c-0.1,0-0.3,0-0.4,0c-0.7-0.1-1.1-0.7-1.1-1.3c0.1-0.7,0.6-1.1,1.3-1.1c0.7,0.1,1.6-0.3,2.5-0.7
				c0.7-0.3,1.5-0.7,2.3-0.9c2.5-0.5,3.9-2.3,3.9-2.3c0.4-0.5,1.2-0.6,1.7-0.2c0.5,0.4,0.6,1.1,0.2,1.7c-0.1,0.1-1.9,2.5-5.3,3.2
				c-0.6,0.1-1.2,0.4-1.8,0.7C98.7,110.8,97.6,111.4,96.4,111.4z"/>
		</g>
	</g>
	<g style="clip-path:url(#SVGID_00000083788331585543560530000014978902665437824446_);">
		<path d="M146.4,11.9c0.6,0,1.2,0.1,2.1,0.4c0.7,0.2,3,0.6,3.4,1.1c0.8,0.9,0.2,2.7,0.1,3.8c-0.3,3-0.7,6-1,9.1
			c2.4,0.5,4.9,0.9,7.3,1.4c0.2,0,0.4,0.1,0.5,0.2c0.3,0.3,0.3,0.8,0.2,1.2c-0.4,1.9-0.9,3.8-1.5,5.7c0,0,0,0,0,0
			c-0.1,0-3.8-0.8-5.8-0.8c-0.6,0-1,0.1-1.3,0.2c-1.2,0.9-2.3,12.4-3,12.4c0,0,0,0,0,0c-2.8-0.5-5.5-1-8.3-1.6
			c-0.2,0,4.4-24,4.7-26.1c0.4-2.6,0-5.4,1.2-6.5C145.2,12.1,145.7,11.9,146.4,11.9 M146.4,9.5c-1.5,0-2.5,0.6-3.1,1.1
			c-1.5,1.4-1.7,3.5-1.8,5.6c0,0.8-0.1,1.6-0.2,2.3c-0.1,0.7-0.7,4-1.4,7.8c-3.6,19.1-3.6,19.1-2.9,20.1c0.4,0.5,0.9,0.9,1.5,1
			l8.3,1.6c0.1,0,0.3,0,0.5,0c2.4,0,2.7-1.8,3.6-7.2c0.3-1.6,0.7-4.1,1.1-5.4c1.4,0.1,3.6,0.5,4.5,0.7c0.5,0.1,0.7,0.1,0.9,0.1
			c1,0,2-0.7,2.3-1.6c0.6-2,1.2-4,1.6-6c0.4-2.1-0.5-3.1-1.1-3.6c-0.6-0.5-1.2-0.6-1.5-0.6l-5.1-1l0.1-0.8c0.2-2,0.4-4,0.7-6
			c0-0.2,0.1-0.5,0.1-0.7c0.3-1.4,0.6-3.5-0.8-5c-0.7-0.8-1.9-1.1-3.7-1.6c-0.3-0.1-0.6-0.1-0.7-0.2C148.1,9.7,147.2,9.5,146.4,9.5
			L146.4,9.5z"/>
		<path d="M122.3,13.1c1,0,2.1,0.3,3.1,0.4c2.5,0.3,7,1.1,9.5,1.5c2.3,0.4,3.1,2.2,2.9,4.6c-0.1,1-0.4,3.2-1.4,3.6
			c-0.3,0.1-0.6,0.2-1,0.2c-0.7,0-1.3-0.2-2-0.2c-1.6-0.2-4.4-0.5-6-0.8c0,0,0,0,0,0c-0.7,0-1.2,6-0.8,6.8c1.5,3,6.8,0.2,8.4,3.1
			c1.2,2,0.5,6-1.9,6.9c-0.4,0.1-0.7,0.2-1.1,0.2c-1.4,0-2.8-0.7-4.1-0.9c-2.6-0.4-5.1-0.8-7.7-1.2c-0.5-0.1-1.1-0.2-1.6-0.5
			c-1.1-0.7-1.2-2.4-1.2-3.8c0-3.6,0.2-7.3,0.7-10.9c0.2-1.9,0.5-3.7,0.9-5.6c0.1-0.6,0.2-1.9,0.6-2.4c0.5-0.6,1.1-0.9,1.7-1
			C121.5,13.1,121.9,13.1,122.3,13.1 M122.3,10.7c-0.6,0-1.1,0.1-1.6,0.2c-1.2,0.3-2.2,0.9-3,1.8c-0.8,0.9-0.9,2.1-1,3.1
			c0,0.2,0,0.3-0.1,0.5c-0.4,1.9-0.7,3.8-0.9,5.7c-0.5,3.7-0.7,7.5-0.7,11.2c0,1.1,0,4.2,2.3,5.7c0.9,0.6,1.9,0.8,2.6,0.9l7.7,1.2
			c0.3,0.1,0.8,0.2,1.3,0.3c0.9,0.3,2,0.6,3.2,0.6c0.7,0,1.4-0.1,2-0.3c1.6-0.6,2.8-2,3.5-3.8c0.8-2.2,0.7-4.8-0.4-6.5
			c-1.5-2.6-4.4-2.7-6.3-2.8c-0.6,0-1.6,0-2-0.2c0-0.7,0.1-2.1,0.2-3.1c1.1,0.1,2.5,0.3,4.2,0.5c0.2,0,0.4,0.1,0.6,0.1
			c0.5,0.1,1,0.2,1.6,0.2c0.7,0,1.4-0.1,2-0.4c2.3-1,2.6-4.1,2.8-5.6c0.4-3.9-1.4-6.6-4.8-7.2c-1.5-0.3-6.7-1.1-9.6-1.5
			c-0.3,0-0.5-0.1-0.8-0.1C124.1,10.8,123.2,10.7,122.3,10.7L122.3,10.7z"/>
		<path d="M70,38.4c0.3,0,0.6,0.1,0.9,0.3c0.3,0.3,0.5,0.7,0.6,1.2c0.7,2.4,1.4,4.7,2.1,7.1c0,0.1-6.8,1.9-7.4,2.1
			c-1.5,0.4-2.4,0.4-2.5,2c-0.2,1.8,1.1,4.1,1.2,6c0,0.1,0,0.3-0.1,0.4c-0.1,0.1-0.2,0.2-0.4,0.2c-1.1,0.3-3.2,1.6-4.7,1.6
			c-0.3,0-0.5,0-0.7-0.1c-1.2-0.6-1.5-3.4-1.9-4.6c-0.8-2.4-1.8-3.1-3.1-3.1c-1.1,0-2.4,0.5-4.1,0.9c-1.3,0.3-2.3,0.8-3.1,0.8
			c-0.8,0-1.4-0.4-1.9-1.8c-0.1-0.4-0.3-0.7-0.5-1.2c-0.6-1.4-1.2-3.1-0.4-4.3c1.4-2,5.9-2.3,8-2.9c5.6-1.5,11.2-3,16.7-4.4
			C69.3,38.5,69.7,38.4,70,38.4 M70,36c-0.6,0-1.2,0.1-1.7,0.3L60,38.5l-8.4,2.2c-0.4,0.1-1,0.2-1.7,0.3c-2.7,0.5-6.2,1.2-7.8,3.6
			c-1.7,2.5-0.4,5.4,0.2,6.6c0.2,0.4,0.3,0.7,0.4,1c1,2.8,2.8,3.3,4.1,3.3c0.9,0,1.8-0.3,2.6-0.6c0.3-0.1,0.7-0.2,1.1-0.3
			c0.4-0.1,0.8-0.2,1.2-0.3c0.9-0.3,1.8-0.5,2.3-0.5c0.1,0,0.1,0,0.1,0c0,0,0.3,0.3,0.7,1.5c0.1,0.2,0.1,0.6,0.2,0.9
			c0.4,1.7,0.9,4.1,2.9,5.1c0.5,0.3,1.1,0.4,1.8,0.4c1.4,0,2.9-0.6,4.2-1.2c0.4-0.2,0.9-0.4,1.1-0.5c0.3-0.1,1.1-0.3,1.7-1.1
			c0.5-0.8,0.5-1.6,0.5-1.8c0-1.2-0.4-2.4-0.7-3.5c-0.2-0.7-0.4-1.5-0.5-2c0.1,0,0.1,0,0.2-0.1c0.2,0,0.4-0.1,0.6-0.1l0.8-0.2
			c7.5-2,7.5-2,8.1-3c0.3-0.6,0.4-1.2,0.2-1.9l-1.2-4.1l-0.9-3c-0.2-0.6-0.5-1.6-1.4-2.4C72,36.4,71.2,36,70,36L70,36z"/>
		<path d="M60.6,10.7c0.3,0,0.7,0.1,0.9,0.2c0.6,0.3,1.9,4.7,2.1,5.3c0.5,1.6,1,3.1,1.5,4.7c0.4,1.5,0.8,2.9,0.9,4.4
			c0.3,3.5,1.2,4.2,0.6,7.7c-0.5,2.9-3.8,3.4-6.1,4c-1.9,0.4-8.8,2.9-12.8,2.9c-1.2,0-2.1-0.2-2.6-0.7c-0.6-0.7-0.7-2.1-1-3.1
			c-0.6-2.4-0.3-1.5-1.1-3.9c-1.2-3.3-3-10.4-3.9-13.7C39,18.1,39,17.9,39,17.6c0.1-0.4,0.4-0.7,0.7-1c2-1.5,4-2.1,6.5-2.3
			c0.1,0,0.2,0,0.2,0c0.2,0,0.3,0,0.5,0.1c0.2,0.1,0.3,0.4,0.4,0.6c0.5,1.3,1.5,7.3,3.3,7.3c0,0,0.1,0,0.1,0
			c1.9-0.2,3.8-0.7,5.7-1.4c0.8-0.3-1.9-7.7-2-8C55.9,12.3,58.6,10.7,60.6,10.7 M52.9,31.8c1.8,0,4.5-1.2,5.6-1.5
			c0-0.2-0.1-0.3-0.1-0.5c-0.2-0.7-0.4-1.4-0.5-2c-1.3,0.2-2.6,0.6-3.8,0.9c-1.2,0.3-3.9,0.5-2.7,2.5C51.7,31.6,52.2,31.8,52.9,31.8
			 M60.6,8.3c-2.1,0-4.4,1.2-6.1,2c-0.4,0.2-0.7,0.4-1,0.5c-1.1,0.5-1.7,1.8-1.3,3c0,0,0,0.1,0,0.1c0.9,2.5,1.4,4.3,1.7,5.4
			c-0.9,0.2-1.7,0.4-2.6,0.6c-0.5-1-1.1-3.2-1.3-4c-0.2-0.7-0.3-1.2-0.5-1.6c-0.1-0.4-0.4-1.2-1.3-1.8c-0.5-0.3-1.1-0.5-1.8-0.5
			c-0.2,0-0.3,0-0.5,0c-2.4,0.2-5,0.7-7.7,2.8c-0.4,0.3-1.4,1.1-1.7,2.5c-0.1,0.8,0,1.4,0.1,1.8l0.2,0.6c1,3.8,2.6,10.1,3.8,13.3
			c0.5,1.4,0.5,1.5,0.6,2c0.1,0.3,0.2,0.8,0.4,1.7c0.1,0.2,0.1,0.4,0.1,0.7c0.2,1,0.4,2.3,1.3,3.4c0.9,1.1,2.4,1.6,4.4,1.6
			c3.4,0,8.3-1.4,11.5-2.4c0.8-0.2,1.5-0.5,1.9-0.5l0.5-0.1c2.5-0.6,6.7-1.6,7.5-5.8c0.5-2.6,0.2-4.1-0.1-5.6
			c-0.2-0.8-0.3-1.6-0.4-2.7c-0.1-1.5-0.4-3-1-4.9c-0.3-0.9-0.6-1.8-0.9-2.7c-0.2-0.7-0.4-1.4-0.7-2l-0.1-0.2
			c-1.5-5.1-2.2-6.1-3.3-6.6C61.9,8.4,61.3,8.3,60.6,8.3L60.6,8.3z"/>
		<path d="M103.7,31.4c0.6,0,1.2,0.1,1.6,0.4c0.5,0.3,0.6,1.5,0.6,2.1c0.1,1.4,0.3,2.8,0.4,4.3c0.1,1.3,0.1,2.6-0.1,3.9
			c-0.4,3,0.2,3.8-0.9,6.6c-0.9,2.3-3.8,2.2-5.9,2.2c-1.1,0-4.4,0.4-7.4,0.4c-2.8,0-5.3-0.3-5.9-1.4c-0.4-0.7-0.2-1.9-0.2-2.8
			c-0.1-2.2,0.1-1.3-0.2-3.5c-0.4-3-0.5-6.5-0.6-9.5c0-0.2,0-0.4,0.1-0.6c0.1-0.3,0.5-0.5,0.8-0.7c1.4-0.6,2.7-0.9,4-0.9
			c0.6,0,1.2,0,1.9,0.1c0.2,0,0.4,0.1,0.6,0.2c0.2,0.2,0.2,0.4,0.2,0.6c0.2,1.2-0.2,3.9,1.4,4c0.7,0.1,1.4,0.1,2.1,0.1
			c1,0,2-0.1,3-0.2c0.7-0.1,0-4.1-0.1-4.4C100.1,32,102.1,31.4,103.7,31.4 M95.6,42.7c-0.2,0-0.5,0-0.7,0c-1.1,0-2.4,0.1-1.9,1.6
			c0.2,0.7,1.2,0.9,2.3,0.9c1.4,0,3.1-0.3,3.9-0.4c0-0.1,0-0.3,0-0.4c0-0.6,0-1.2-0.1-1.8c-0.2,0-0.5,0-0.7,0
			C97.4,42.6,96.5,42.7,95.6,42.7C95.6,42.7,95.6,42.7,95.6,42.7 M103.7,29c-1.5,0-3.1,0.4-4.3,0.7c-0.3,0.1-0.7,0.2-0.9,0.2
			c-1.2,0.3-2,1.4-1.9,2.6c0,0.1,0,0.2,0.1,0.3c0.1,0.6,0.2,1.1,0.2,1.5c-0.3,0-0.5,0-0.8,0c-0.3,0-0.7,0-1,0c0-0.3,0-0.6,0-0.8
			c0-0.4,0-0.8-0.1-1.2c0-0.3-0.2-1.2-0.9-2c-0.7-0.7-1.7-0.9-2-0.9c-0.8-0.1-1.5-0.1-2.2-0.1c-1.8,0-3.4,0.4-5,1.1
			c-0.4,0.2-1.5,0.7-2,2c-0.3,0.7-0.2,1.3-0.2,1.6l0,1.2c0.1,2.7,0.2,5.9,0.6,8.6c0.2,1.2,0.2,1.3,0.2,1.7c0,0.3,0,0.7,0,1.5
			c0,0.2,0,0.4,0,0.6c0,0.9-0.1,2.1,0.6,3.3c1,1.9,3.4,2.7,8,2.7c2.1,0,4.2-0.2,5.8-0.3c0.7-0.1,1.3-0.1,1.7-0.1l0.4,0
			c2.2,0,6.2-0.1,7.7-3.7c0.9-2.2,0.9-3.5,0.9-4.9c0-0.7,0-1.4,0.1-2.3c0.2-1.3,0.2-2.7,0.1-4.4c-0.1-0.8-0.1-1.6-0.2-2.4
			c-0.1-0.6-0.1-1.2-0.2-1.8c-0.1-1.4-0.4-3-1.6-3.8C106,29.3,104.9,29,103.7,29L103.7,29z"/>
		<g>
			<path d="M105.6,2.4c0.1,0.4,0.1,0.8,0.2,1.2c0.8,5.6,1.2,11.3,1.5,16.9c0.1,1.9,1.3,7.9-1.1,8.9c-0.4,0.2-0.8,0.2-1.3,0.2
				c-0.1,0-0.2,0-0.3,0c-0.9,0-1.8,0-2.7-0.1c-0.5,0-0.9-0.1-1.3-0.3c-1.1-0.6-1.2-4.3-1.1-5.5c0-0.5-0.6-0.7-1.1-0.7
				c-1.3,0-2.6,0-3.9-0.1c-0.2,0-0.5,0-0.7-0.2c-0.3-0.2-0.4-0.6-0.4-0.9c-0.1-0.9-0.1-1.8-0.1-2.7c0-0.3,0.1-0.7,0.3-0.9
				c0.2-0.2,0.4-0.2,0.7-0.3c1.3-0.3,2.7-0.5,4-0.5c0.2,0,0.4,0,0.5-0.2c0-0.1,0-0.2,0-0.3c-0.2-2.9-0.6-5.8-0.7-8.7
				c0-0.8-0.4-4.1,0.6-4.4C100.8,3.2,103.3,2.5,105.6,2.4 M105.6,0C105.6,0,105.6,0,105.6,0c-2.7,0.1-5.3,0.9-7.8,1.8
				c-2.6,0.9-2.3,4.3-2.2,6.4c0,0.2,0,0.3,0,0.4c0.1,1.8,0.2,3.6,0.4,5.3c0.1,0.5,0.1,1.1,0.2,1.6c-0.8,0.1-1.7,0.2-2.5,0.4
				c-0.4,0.1-1.2,0.2-1.9,0.9c-0.9,0.9-1,2-1,2.4c-0.1,1.1,0,2.1,0.1,3.2c0.1,0.4,0.2,1.8,1.5,2.6c0.8,0.5,1.6,0.5,2,0.6l1.3,0
				l1.4,0c0.1,3.1,0.9,5,2.3,5.8c0.9,0.5,1.8,0.6,2.4,0.6c0.9,0,1.9,0.1,2.8,0.1l0.3,0c0.6,0,1.4,0,2.2-0.4c3.6-1.5,3-6.6,2.7-9.9
				c-0.1-0.5-0.1-1-0.1-1.3c-0.3-5.5-0.6-11.3-1.5-17.2c-0.1-0.4-0.1-0.8-0.2-1.3C107.8,0.9,106.8,0,105.6,0L105.6,0z"/>
		</g>
		<path d="M85.2,3.8c2.8,0,5.5,0.6,6.5,1.8c1.4,1.7,0.9,8.4,0.7,10.5c-0.2,2-0.6,2.4-1.8,3.9c-0.2,0.2-3,3.6-2.9,3.6
			c0.2,0,0.4,0.1,0.5,0.1c0.9,0,1.8-0.4,2.6-0.4c0.5,0,0.9,0.1,1.3,0.4c1.1,0.9,1.2,4.5,0.2,5.7c-0.5,0.6-1.9,0.8-3.6,0.8
			c-2.9,0-6.5-0.6-7.5-1c-3.1-1.1-4.6-3.8-3.2-7.2c1.1-2.9,4.3-1.9,6-4.1c1.3-1.7,1.2-3.4-1.1-3.8c-0.1,0-0.3,0-0.4,0
			c-1.2,0-2.8,0.7-4,0.7c-0.7,0-1.3-0.2-1.7-0.7c-0.8-1-1-6.1-0.4-7.3c0.9-1.8,5-2.9,8.7-2.9C85.1,3.8,85.2,3.8,85.2,3.8 M85.2,1.4
			C85.2,1.4,85.2,1.4,85.2,1.4l-0.2,0c-1.5,0-8.9,0.3-10.8,4.2c-0.9,1.9-0.9,8,0.7,10c0.6,0.7,1.7,1.6,3.6,1.6c1,0,1.9-0.2,2.7-0.4
			c0.3-0.1,0.6-0.2,0.9-0.2c-0.3,0.3-0.8,0.5-1.6,0.8c-1.4,0.5-3.6,1.2-4.6,3.8c-0.9,2.2-0.9,4.4,0,6.3c0.8,1.9,2.5,3.3,4.7,4.1
			c1.4,0.5,5.3,1.1,8.3,1.1c2.8,0,4.4-0.5,5.4-1.6c1.5-1.7,1.4-4.4,1.3-5.3c-0.1-1.2-0.5-2.9-1.8-3.9c-0.3-0.2-0.7-0.4-1-0.6
			c1.2-1.5,1.8-2.4,2.1-4.9c0.3-2.9,0.9-9.8-1.2-12.3C91.7,1.7,87.5,1.4,85.2,1.4L85.2,1.4z"/>
		<g>
			<path d="M175.1,16.7c1.3,0,2.7,0.9,3.8,1.4c4.1,1.7,5.3,1.8,3.3,6c-2.4,5.1-5.2,10-7.5,15.1c-1.1,2.6-2.9,4.4-5.2,4.4
				c-1,0-2-0.3-3.2-1c-1.8-1.1-2.3-2.4-2.3-3.8c0.1-2.2,1.7-4.7,2.5-7c1.3-3.5,3.3-12.8,7.4-14.8C174.4,16.7,174.7,16.7,175.1,16.7
				 M175.1,14.3c-0.7,0-1.4,0.2-2.1,0.5c-4.3,2-6.3,8.7-7.8,13.6c-0.3,1-0.6,1.9-0.8,2.5c-0.2,0.6-0.6,1.3-0.9,2.1
				c-0.8,1.8-1.7,3.7-1.8,5.6c0,1.7,0.5,4.1,3.4,5.9c1.5,0.9,3,1.4,4.5,1.4c3.1,0,5.8-2.1,7.4-5.8c1.2-2.8,2.6-5.5,4-8.2
				c1.1-2.2,2.3-4.5,3.4-6.8c1-2.2,1.5-3.8,0.9-5.4c-0.7-1.8-2.4-2.5-4.5-3.4c-0.3-0.1-0.6-0.3-1-0.4c-0.3-0.1-0.5-0.2-0.8-0.4
				C177.9,14.9,176.6,14.3,175.1,14.3L175.1,14.3z"/>
			<path d="M163.3,46.7c1.5,0,3.9,1.1,4.9,1.8c0.6,0.4,1.3,0.8,1.5,1.8c-1,1.7-1,4.6-3.1,5.1c-0.1,0-0.1,0-0.2,0
				c-1.3,0-5.6-1.5-5.9-2.1c-0.7-1.2,1.1-6,2.2-6.4C162.8,46.8,163,46.7,163.3,46.7 M163.3,44.3c-0.6,0-1.2,0.1-1.6,0.3
				c-0.4,0.2-1.8,0.7-3.1,4.2c-0.9,2.5-1,4.3-0.3,5.6c1.1,2,6.9,3.4,8,3.4c0.3,0,0.6,0,0.8-0.1c2.8-0.7,3.6-3.2,4.1-4.9
				c0.2-0.5,0.3-1.1,0.5-1.4c0.3-0.5,0.4-1.1,0.3-1.6c-0.3-1.8-1.6-2.7-2.3-3.2l-0.1-0.1C168.3,45.6,165.5,44.3,163.3,44.3
				L163.3,44.3z"/>
		</g>
		<g>
			<path d="M190.1,22.7c1.3,0,2.7,0.9,3.8,1.4c4.1,1.7,5.3,1.8,3.3,6c-2.4,5.1-5.2,10-7.5,15.1c-1.1,2.6-2.9,4.4-5.2,4.4
				c-1,0-2-0.3-3.2-1c-1.8-1.1-2.3-2.4-2.3-3.8c0.1-2.2,1.7-4.7,2.5-7c1.3-3.5,3.3-12.8,7.4-14.8C189.4,22.8,189.7,22.7,190.1,22.7
				 M190.1,20.3c-0.7,0-1.4,0.2-2.1,0.5c-4.3,2-6.3,8.7-7.8,13.6c-0.3,1-0.6,1.9-0.8,2.5c-0.2,0.6-0.6,1.3-0.9,2.1
				c-0.8,1.8-1.7,3.7-1.8,5.6c0,1.7,0.5,4.1,3.4,5.9c1.5,0.9,3,1.4,4.5,1.4c3.1,0,5.8-2.1,7.4-5.8c1.2-2.8,2.6-5.5,4-8.2
				c1.1-2.2,2.3-4.5,3.4-6.8c1-2.2,1.5-3.8,0.9-5.4c-0.7-1.8-2.4-2.5-4.5-3.4c-0.3-0.1-0.6-0.3-1-0.4c-0.3-0.1-0.5-0.2-0.8-0.4
				C193,21,191.6,20.3,190.1,20.3L190.1,20.3z"/>
			<path d="M178.3,52.8c1.5,0,3.9,1.1,4.9,1.8c0.6,0.4,1.3,0.8,1.5,1.8c-1,1.7-1,4.6-3.1,5.1c-0.1,0-0.1,0-0.2,0
				c-1.3,0-5.6-1.5-5.9-2.1c-0.7-1.2,1.1-6,2.2-6.4C177.8,52.8,178.1,52.8,178.3,52.8 M178.3,50.4c-0.6,0-1.2,0.1-1.6,0.3
				c-0.4,0.2-1.8,0.7-3.1,4.2c-0.9,2.5-1,4.3-0.3,5.6c1.1,2,6.9,3.4,8,3.4c0.3,0,0.6,0,0.8-0.1c2.8-0.7,3.6-3.2,4.1-4.9
				c0.2-0.5,0.3-1.1,0.5-1.4c0.3-0.5,0.4-1.1,0.3-1.6c-0.3-1.8-1.6-2.7-2.3-3.2l-0.1-0.1C183.3,51.7,180.5,50.4,178.3,50.4
				L178.3,50.4z"/>
		</g>
		<g>
			<path style="fill-rule:evenodd;clip-rule:evenodd;fill:#FDEB95;" d="M144.9,12.4c-1.2,1.1-0.8,3.9-1.2,6.5
				c-0.3,2.2-5,26.1-4.7,26.1c2.8,0.5,5.5,1,8.3,1.6c0.8,0.1,1.8-11.5,3-12.4c1-0.8,7.1,0.6,7.1,0.6c0.6-1.9,1.1-3.8,1.5-5.7
				c0.1-0.4,0.1-0.9-0.2-1.2c-0.1-0.1-0.3-0.1-0.5-0.2c-2.4-0.5-4.9-0.9-7.3-1.4c0.3-3,0.7-6,1-9.1c0.1-1.2,0.7-3-0.1-3.8
				c-0.4-0.5-2.7-0.9-3.4-1.1C146.6,11.7,145.5,11.8,144.9,12.4z"/>
			<path style="fill:#FCD11F;" d="M146.4,13.5c0.3,0,0.8,0.1,1.6,0.3c0.2,0.1,0.6,0.2,1.1,0.3c0.4,0.1,1.2,0.3,1.6,0.5
				c0,0.4-0.1,1.1-0.2,1.5c-0.1,0.4-0.1,0.7-0.2,1c-0.2,2-0.4,4-0.7,6l-0.3,3c-0.1,0.8,0.5,1.6,1.3,1.7l6.6,1.3
				c-0.3,1.3-0.6,2.5-1,3.8c-1.3-0.3-3.3-0.6-4.7-0.6c-1,0-1.7,0.2-2.2,0.6c-1,0.8-1.4,2.5-2.4,8.2c-0.2,1.2-0.5,2.7-0.7,3.7l-5.6-1
				c0.5-3.2,2.1-11.4,3.1-16.7c0.7-4,1.3-7.1,1.5-7.9c0.1-0.9,0.2-1.9,0.3-2.7c0.1-1,0.2-2.6,0.5-2.9
				C146,13.6,146.2,13.5,146.4,13.5 M146.4,11.9c-0.7,0-1.1,0.2-1.5,0.5c-1.2,1.1-0.8,3.9-1.2,6.5c-0.3,2.2-5,26.1-4.7,26.1
				c2.8,0.5,5.5,1,8.3,1.6c0,0,0,0,0,0c0.8,0,1.8-11.5,3-12.4c0.2-0.2,0.7-0.2,1.3-0.2c2.1,0,5.7,0.8,5.8,0.8c0,0,0,0,0,0
				c0.6-1.9,1.1-3.8,1.5-5.7c0.1-0.4,0.1-0.9-0.2-1.2c-0.1-0.1-0.3-0.1-0.5-0.2c-2.4-0.5-4.9-0.9-7.3-1.4c0.3-3,0.7-6,1-9.1
				c0.1-1.2,0.7-3-0.1-3.8c-0.4-0.5-2.7-0.9-3.4-1.1C147.6,12.1,146.9,11.9,146.4,11.9L146.4,11.9z"/>
		</g>
		<g>
			<path style="fill-rule:evenodd;clip-rule:evenodd;fill:#FDEB95;" d="M121.2,13.2c-0.6,0.2-1.2,0.5-1.7,1
				c-0.4,0.5-0.5,1.8-0.6,2.4c-0.4,1.8-0.7,3.7-0.9,5.6c-0.5,3.6-0.7,7.2-0.7,10.9c0,1.4,0.2,3,1.2,3.8c0.5,0.3,1,0.4,1.6,0.5
				c2.6,0.4,5.1,0.8,7.7,1.2c1.6,0.2,3.6,1.3,5.2,0.7c2.4-0.9,3.1-4.9,1.9-6.9c-1.7-2.9-6.9-0.2-8.4-3.1c-0.4-0.8,0.1-6.9,0.8-6.8
				c1.6,0.3,4.4,0.6,6,0.8c0.9,0.1,2,0.5,2.9,0.1c1-0.5,1.3-2.6,1.4-3.6c0.3-2.4-0.6-4.2-2.9-4.6c-2.5-0.4-7-1.1-9.5-1.5
				C124.1,13.3,122.5,12.9,121.2,13.2z"/>
			<path style="fill:#FCD11F;" d="M122.3,14.7c0.6,0,1.3,0.1,1.9,0.2c0.3,0.1,0.7,0.1,1,0.1c2.8,0.4,7.9,1.2,9.4,1.5
				c0.5,0.1,1.8,0.3,1.5,2.8c-0.2,1.6-0.4,2.2-0.5,2.4c-0.1,0-0.1,0-0.2,0c-0.3,0-0.6-0.1-1-0.1c-0.3,0-0.6-0.1-0.8-0.1
				c-2.7-0.3-4.7-0.5-5.9-0.7c-0.1,0-0.2,0-0.3,0c-0.3,0-1.1,0.1-1.6,0.9c-0.8,1.3-1.3,6.9-0.6,8.2c1.2,2.3,3.7,2.4,5.6,2.4
				c1.6,0,2.5,0.1,2.9,0.8c0.4,0.7,0.4,2.1,0.1,3.2c-0.3,0.7-0.7,1.3-1.2,1.4c-0.2,0.1-0.4,0.1-0.6,0.1c-0.6,0-1.3-0.2-2.1-0.4
				c-0.6-0.2-1.2-0.3-1.8-0.4l-7.7-1.2c-0.3-0.1-0.7-0.1-0.9-0.2c-0.2-0.1-0.5-0.6-0.5-2.4c0-3.5,0.2-7.1,0.7-10.7
				c0.2-1.8,0.5-3.7,0.9-5.5c0-0.2,0.1-0.4,0.1-0.7c0-0.3,0.1-0.9,0.2-1.1c0.2-0.2,0.5-0.4,0.8-0.4C121.8,14.7,122,14.7,122.3,14.7
				 M122.3,13.1c-0.4,0-0.7,0-1.1,0.1c-0.6,0.2-1.2,0.5-1.7,1c-0.4,0.5-0.5,1.8-0.6,2.4c-0.4,1.8-0.7,3.7-0.9,5.6
				c-0.5,3.6-0.7,7.2-0.7,10.9c0,1.4,0.2,3,1.2,3.8c0.5,0.3,1,0.4,1.6,0.5c2.6,0.4,5.1,0.8,7.7,1.2c1.3,0.2,2.7,0.9,4.1,0.9
				c0.4,0,0.8-0.1,1.1-0.2c2.4-0.9,3.1-4.9,1.9-6.9c-1.7-2.9-6.9-0.2-8.4-3.1c-0.4-0.8,0.1-6.8,0.8-6.8c0,0,0,0,0,0
				c1.6,0.3,4.4,0.6,6,0.8c0.6,0.1,1.3,0.2,2,0.2c0.3,0,0.7,0,1-0.2c1-0.5,1.3-2.6,1.4-3.6c0.3-2.4-0.6-4.2-2.9-4.6
				c-2.5-0.4-7-1.1-9.5-1.5C124.4,13.3,123.3,13.1,122.3,13.1L122.3,13.1z"/>
		</g>
		<g>
			<path style="fill:#FDEB95;" d="M45,51.4c1.1,2.8,2.5,1.6,5,0.9c3.7-1,5.7-2.2,7.2,2.2c0.4,1.2,0.6,4,1.9,4.6
				c1.3,0.7,4.1-1.1,5.4-1.4c0.1,0,0.3-0.1,0.4-0.2c0.1-0.1,0.1-0.3,0.1-0.4c0-1.9-1.3-4.2-1.2-6c0.1-1.6,1-1.6,2.5-2
				c0.6-0.2,7.5-2,7.4-2.1c-0.7-2.4-1.4-4.7-2.1-7.1c-0.1-0.4-0.3-0.9-0.6-1.2c-0.5-0.4-1.3-0.3-2-0.1c-5.6,1.5-11.2,3-16.7,4.4
				c-2.2,0.6-6.7,0.9-8,2.9c-0.8,1.3-0.3,2.9,0.4,4.3C44.7,50.7,44.9,51,45,51.4z"/>
			<path style="fill:#FCD11F;" d="M69.9,40c0,0.1,0.1,0.2,0.1,0.3l0.9,3l0.7,2.6c-1.1,0.3-2.8,0.8-5.1,1.4c-0.4,0.1-0.7,0.2-0.8,0.2
				c-0.2,0-0.3,0.1-0.5,0.1c-1.3,0.3-3,0.8-3.2,3.3c-0.1,1.3,0.3,2.5,0.6,3.8c0.2,0.6,0.4,1.2,0.5,1.7c-0.3,0.1-0.6,0.2-0.9,0.4
				c-0.8,0.4-1.9,0.8-2.5,0.9c-0.3-0.4-0.6-1.7-0.7-2.3c-0.1-0.5-0.2-0.9-0.3-1.3c-0.6-1.8-1.7-4.2-4.6-4.2c-1.1,0-2.1,0.3-3.4,0.7
				c-0.4,0.1-0.7,0.2-1.1,0.3c-0.5,0.1-0.9,0.3-1.3,0.4c-0.5,0.2-1.1,0.4-1.3,0.4c0,0-0.2-0.1-0.4-0.8c-0.1-0.4-0.3-0.8-0.5-1.2
				c-0.4-0.9-0.9-2.2-0.5-2.8c0.7-1,3.5-1.5,5.2-1.8c0.7-0.1,1.4-0.3,1.9-0.4l8.4-2.2l8.4-2.2C69.5,40.1,69.7,40,69.9,40 M70,38.4
				c-0.4,0-0.7,0.1-1.1,0.2c-5.6,1.5-11.2,3-16.7,4.4c-2.2,0.6-6.7,0.9-8,2.9c-0.8,1.3-0.3,2.9,0.4,4.3c0.2,0.4,0.3,0.8,0.5,1.2
				c0.5,1.4,1.1,1.8,1.9,1.8c0.8,0,1.8-0.5,3.1-0.8c1.7-0.5,3-0.9,4.1-0.9c1.3,0,2.3,0.7,3.1,3.1c0.4,1.2,0.6,4,1.9,4.6
				c0.2,0.1,0.5,0.1,0.7,0.1c1.4,0,3.6-1.3,4.7-1.6c0.1,0,0.3-0.1,0.4-0.2c0.1-0.1,0.1-0.3,0.1-0.4c0-1.9-1.3-4.2-1.2-6
				c0.1-1.6,1-1.6,2.5-2c0.6-0.2,7.5-2,7.4-2.1c-0.7-2.4-1.4-4.7-2.1-7.1c-0.1-0.4-0.3-0.9-0.6-1.2C70.7,38.5,70.4,38.4,70,38.4
				L70,38.4z"/>
		</g>
		<g>
			<path style="fill:#FDEB95;" d="M65.1,20.9c-0.5-1.6-1-3.2-1.5-4.7c-0.2-0.6-1.5-5-2.1-5.3c-1.8-0.8-5.4,1.4-7,2.1
				c0.1,0.3,2.8,7.7,2,8c-1.8,0.7-3.7,1.1-5.7,1.4c-1.9,0.2-3-6-3.4-7.3c-0.1-0.2-0.2-0.5-0.4-0.6c-0.2-0.1-0.5-0.1-0.7-0.1
				c-2.5,0.2-4.5,0.8-6.5,2.3c-0.3,0.3-0.7,0.6-0.7,1c0,0.2,0,0.5,0.1,0.7c0.9,3.4,2.7,10.4,3.9,13.7c0.8,2.4,0.5,1.5,1.1,3.9
				c0.2,0.9,0.3,2.3,1,3.1c2.1,2.3,13-1.5,15.4-2.1c2.4-0.6,5.6-1.1,6.1-4c0.6-3.4-0.3-4.2-0.6-7.7C65.8,23.8,65.5,22.3,65.1,20.9z
				 M58.4,29.8c0,0.2,0.1,0.3,0.1,0.5c-1.6,0.4-6.1,2.6-7.1,0.9c-1.2-2,1.4-2.2,2.7-2.5c1.3-0.3,2.5-0.7,3.8-0.9
				C58.1,28.4,58.3,29.1,58.4,29.8z"/>
			<path style="fill:#FCD11F;" d="M60.6,12.3c0.2,0.5,0.7,1.6,1.4,4.1l0.1,0.2c0.2,0.7,0.4,1.4,0.7,2.1c0.3,0.9,0.6,1.7,0.8,2.6
				c0.5,1.6,0.7,2.9,0.8,4.1c0.1,1.3,0.3,2.3,0.5,3.1c0.3,1.3,0.4,2.2,0.1,4.1c-0.3,1.5-2,2-4.4,2.6L60,35.4
				c-0.5,0.1-1.2,0.3-2.1,0.6c-2.8,0.8-7.5,2.2-10.3,2.2c-1.1,0-1.4-0.2-1.4-0.2c0,0,0,0,0,0c-0.2-0.2-0.3-1-0.4-1.5
				c-0.1-0.3-0.1-0.7-0.2-0.9c-0.2-0.8-0.3-1.3-0.4-1.6c-0.1-0.7-0.2-0.9-0.8-2.5c-1.1-3-2.8-9.5-3.7-13L40.6,18c0,0,0,0,0.1-0.1
				c1.7-1.3,3.3-1.7,5.3-2c0.1,0.2,0.1,0.6,0.2,0.9c0.8,3.2,1.8,7.1,4.5,7.1c0.1,0,0.2,0,0.3,0c2.1-0.2,4.1-0.7,6-1.4
				c1.8-0.7,1.5-2.7-0.6-8.7C57.7,13.1,59.5,12.3,60.6,12.3 M52.9,33.4c1.5,0,3.4-0.6,4.8-1.2c0.5-0.2,0.9-0.3,1.2-0.4
				c0.8-0.2,1.4-1.1,1.1-1.9L60,29.4L59.9,29l-0.4-1.6c-0.2-0.7-0.8-1.2-1.5-1.2c-0.1,0-0.2,0-0.3,0c-0.9,0.2-1.8,0.4-2.7,0.6
				c-0.4,0.1-0.8,0.2-1.2,0.3c-0.1,0-0.3,0.1-0.4,0.1c-1.2,0.2-2.9,0.6-3.6,2c-0.3,0.6-0.4,1.5,0.3,2.8
				C50.4,32.6,51.2,33.4,52.9,33.4 M60.6,10.7c-1.9,0-4.7,1.6-6.1,2.3c0.1,0.3,2.8,7.7,2,8c-1.8,0.7-3.7,1.1-5.7,1.4
				c0,0-0.1,0-0.1,0c-1.8,0-2.9-6-3.3-7.3c-0.1-0.2-0.2-0.5-0.4-0.6c-0.1-0.1-0.3-0.1-0.5-0.1c-0.1,0-0.2,0-0.2,0
				c-2.5,0.2-4.5,0.8-6.5,2.3c-0.3,0.3-0.7,0.6-0.7,1c0,0.2,0,0.5,0.1,0.7c0.9,3.4,2.7,10.4,3.9,13.7c0.8,2.4,0.5,1.5,1.1,3.9
				c0.2,0.9,0.3,2.3,1,3.1c0.5,0.5,1.4,0.7,2.6,0.7c4,0,10.9-2.4,12.8-2.9c2.4-0.6,5.6-1.1,6.1-4c0.6-3.4-0.3-4.2-0.6-7.7
				c-0.1-1.5-0.5-3-0.9-4.4c-0.5-1.6-1-3.2-1.5-4.7c-0.2-0.6-1.5-5-2.1-5.3C61.2,10.7,60.9,10.7,60.6,10.7L60.6,10.7z M52.9,31.8
				c-0.7,0-1.2-0.2-1.5-0.6c-1.2-2,1.4-2.2,2.7-2.5c1.3-0.3,2.5-0.7,3.8-0.9c0.2,0.7,0.4,1.4,0.5,2c0,0.2,0.1,0.3,0.1,0.5
				C57.4,30.6,54.7,31.8,52.9,31.8L52.9,31.8z"/>
		</g>
		<g>
			<path style="fill:#FDEB95;" d="M106.4,38.1c-0.1-1.4-0.3-2.9-0.4-4.3c0-0.6-0.2-1.8-0.6-2.1c-1.4-1-4.8,0.2-6.3,0.5
				c0,0.3,0.8,4.3,0.1,4.4c-1.7,0.2-3.4,0.3-5,0.1c-1.6-0.2-1.3-2.8-1.4-4c0-0.2-0.1-0.4-0.2-0.6C92.3,32,92,32,91.8,31.9
				c-2.2-0.3-3.9-0.2-5.9,0.8c-0.3,0.2-0.7,0.3-0.8,0.7C85,33.6,85,33.8,85,34c0.1,3,0.2,6.6,0.6,9.5c0.3,2.2,0.1,1.3,0.2,3.5
				c0,0.8-0.2,2,0.2,2.8c1.3,2.4,11.2,1.1,13.4,1c2.1,0,5,0.1,5.9-2.2c1.1-2.8,0.5-3.6,0.9-6.6C106.5,40.8,106.5,39.5,106.4,38.1z
				 M99.1,44.5c0,0.1,0,0.3,0,0.4c-1.4,0.1-5.7,1-6.2-0.6c-0.6-1.9,1.6-1.6,2.7-1.6c1.1,0,2.3-0.1,3.4,0
				C99.1,43.2,99.1,43.8,99.1,44.5z"/>
			<path style="fill:#FCD11F;" d="M103.7,33c0.2,0,0.4,0,0.5,0c0,0.2,0.1,0.5,0.1,1c0.1,0.6,0.1,1.3,0.2,1.9
				c0.1,0.8,0.2,1.5,0.2,2.3c0.1,1.4,0.1,2.6,0,3.6c-0.2,1.2-0.2,2-0.2,2.8c0,1.2,0,1.9-0.6,3.4c-0.5,1.1-2,1.2-4,1.2l-0.4,0
				c-0.4,0-1.1,0.1-1.9,0.1c-1.5,0.1-3.6,0.3-5.5,0.3c-3.5,0-4.4-0.5-4.6-0.6c-0.1-0.2-0.1-0.8,0-1.2c0-0.3,0-0.6,0-0.8
				c0-0.7,0-1.1,0-1.4c0-0.6,0-0.8-0.2-2.2c-0.3-2.5-0.4-5.6-0.6-8.2l0-1c1.1-0.5,2.1-0.7,3.3-0.7c0.3,0,0.7,0,1.1,0.1
				c0,0.1,0,0.2,0,0.3c0,1.4,0.1,4.4,2.8,4.6c0.7,0.1,1.5,0.1,2.2,0.1c1.1,0,2.1-0.1,3.2-0.2c0.5-0.1,0.9-0.3,1.2-0.7
				c0.5-0.7,0.6-1.8,0.3-4C101.7,33.2,102.9,33,103.7,33 M95.6,41.1l-0.3,0l-0.4,0c-0.7,0-2.3,0-3.1,1.2c-0.3,0.5-0.7,1.3-0.3,2.6
				c0.4,1.3,1.7,2,3.8,2c1,0,2-0.1,2.8-0.2c0.4-0.1,0.8-0.1,1.1-0.1c0.9,0,1.6-0.8,1.5-1.7l0-0.4l-0.1-1.8c0-0.8-0.7-1.5-1.5-1.5
				c-0.3,0-0.5,0-0.8,0c-0.5,0-1,0-1.6,0C96.4,41.1,96,41.1,95.6,41.1L95.6,41.1 M86.6,33.8L86.6,33.8L86.6,33.8 M103.7,31.4
				c-1.6,0-3.6,0.7-4.7,0.9c0,0.3,0.8,4.3,0.1,4.4c-1,0.1-2,0.2-3,0.2c-0.7,0-1.4,0-2.1-0.1c-1.6-0.2-1.3-2.8-1.4-4
				c0-0.2-0.1-0.4-0.2-0.6C92.3,32,92,32,91.8,31.9c-0.7-0.1-1.3-0.1-1.9-0.1c-1.4,0-2.6,0.2-4,0.9c-0.3,0.2-0.7,0.3-0.8,0.7
				C85,33.6,85,33.8,85,34c0.1,3,0.2,6.6,0.6,9.5c0.3,2.2,0.1,1.3,0.2,3.5c0,0.8-0.2,2,0.2,2.8c0.6,1.1,3.2,1.4,5.9,1.4
				c3,0,6.3-0.4,7.4-0.4c2.1,0,5,0.1,5.9-2.2c1.1-2.8,0.5-3.6,0.9-6.6c0.2-1.3,0.1-2.6,0.1-3.9c-0.1-1.4-0.3-2.9-0.4-4.3
				c0-0.6-0.2-1.8-0.6-2.1C104.9,31.5,104.4,31.4,103.7,31.4L103.7,31.4z M95.6,42.7C95.6,42.7,95.6,42.7,95.6,42.7
				c1,0,1.9-0.1,2.7-0.1c0.2,0,0.5,0,0.7,0c0,0.6,0,1.2,0.1,1.8c0,0.1,0,0.3,0,0.4c-0.8,0-2.5,0.4-3.9,0.4c-1.1,0-2.1-0.2-2.3-0.9
				c-0.5-1.5,0.8-1.6,1.9-1.6C95.1,42.7,95.4,42.7,95.6,42.7L95.6,42.7z"/>
		</g>
		<g>
			<g>
				<path style="fill-rule:evenodd;clip-rule:evenodd;fill:#FDEB95;" d="M105.8,3.6c0.8,5.6,1.2,11.3,1.5,16.9
					c0.1,1.9,1.3,7.9-1.1,8.9c-0.5,0.2-1,0.2-1.5,0.2c-0.9,0-1.8,0-2.7-0.1c-0.5,0-0.9-0.1-1.3-0.3c-1.1-0.6-1.2-4.3-1.1-5.5
					c0-0.5-0.6-0.7-1.1-0.7c-1.3,0-2.6,0-3.9-0.1c-0.2,0-0.5,0-0.7-0.2c-0.3-0.2-0.4-0.6-0.4-0.9c-0.1-0.9-0.1-1.8-0.1-2.7
					c0-0.3,0.1-0.7,0.3-0.9c0.2-0.2,0.4-0.2,0.7-0.3c1.3-0.3,2.7-0.5,4-0.5c0.2,0,0.4,0,0.5-0.2c0-0.1,0-0.2,0-0.3
					c-0.2-2.9-0.6-5.8-0.7-8.7c0-0.8-0.4-4.1,0.6-4.4c2.2-0.8,4.7-1.6,7-1.6C105.7,2.8,105.7,3.2,105.8,3.6z"/>
				<path style="fill:#FCD11F;" d="M104.3,4.1c0.8,5.6,1.2,11.3,1.4,16.5c0,0.4,0.1,0.9,0.1,1.5c0.6,4.9,0,5.7-0.2,5.8
					c-0.2,0.1-0.5,0.1-0.7,0.1l-0.2,0c-0.9,0-1.8,0-2.7-0.1c-0.1,0-0.3,0-0.5,0c-0.3-0.6-0.5-2.5-0.4-4.1c0-0.6-0.2-1.1-0.6-1.5
					c-0.7-0.7-1.6-0.8-2.1-0.8l-2.6,0l-1,0c-0.1-0.6-0.1-1.2,0-1.8c1.1-0.2,2.3-0.4,3.5-0.4c1.2-0.1,1.7-0.7,1.9-1.1
					c0.2-0.5,0.2-0.9,0.2-1c-0.1-1.2-0.2-2.5-0.3-3.7c-0.2-1.6-0.3-3.3-0.4-5c0-0.1,0-0.3,0-0.5c-0.1-1.4-0.1-2.1,0-2.5
					C101.2,4.8,102.7,4.4,104.3,4.1 M99.7,5.1L99.7,5.1L99.7,5.1 M94.9,19.3L94.9,19.3L94.9,19.3 M105.6,2.4c-2.3,0.1-4.8,0.8-7,1.6
					c-1,0.4-0.6,3.7-0.6,4.4c0.1,2.9,0.5,5.8,0.7,8.7c0,0.1,0,0.2,0,0.3c-0.1,0.2-0.3,0.2-0.5,0.2c-1.3,0.1-2.7,0.3-4,0.5
					c-0.2,0.1-0.5,0.1-0.7,0.3c-0.2,0.2-0.3,0.6-0.3,0.9c-0.1,0.9,0,1.8,0.1,2.7c0,0.3,0.1,0.7,0.4,0.9c0.2,0.1,0.5,0.1,0.7,0.2
					c1.3,0,2.6,0,3.9,0.1c0.5,0,1.1,0.2,1.1,0.7c0,1.1,0.1,4.8,1.1,5.5c0.4,0.2,0.9,0.3,1.3,0.3c0.9,0,1.8,0.1,2.7,0.1
					c0.1,0,0.2,0,0.3,0c0.4,0,0.9,0,1.3-0.2c2.4-1,1.1-7,1.1-8.9c-0.3-5.7-0.6-11.3-1.5-16.9C105.7,3.2,105.7,2.8,105.6,2.4
					L105.6,2.4z"/>
			</g>
		</g>
		<g>
			<path style="fill:#FDEB95;" d="M92.2,23.7c-1.5-1.1-3,0.2-4.5-0.1c-0.2,0,2.7-3.4,2.9-3.6c1.2-1.5,1.6-1.9,1.8-3.9
				c0.3-2.1,0.8-8.8-0.7-10.5c-1-1.2-3.7-1.8-6.6-1.8c-3.8,0-7.8,1-8.7,2.9c-0.6,1.2-0.4,6.3,0.4,7.3c1.5,1.8,4.3-0.2,6.2,0.1
				c2.3,0.3,2.4,2.1,1.1,3.8c-1.7,2.3-4.9,1.2-6,4.1c-1.3,3.5,0.1,6.1,3.2,7.2c1.7,0.6,9.8,1.7,11.1,0.2
				C93.4,28.2,93.4,24.6,92.2,23.7z"/>
			<path style="fill:#FCD11F;" d="M85.2,5.4L85.2,5.4c3.1,0,4.9,0.7,5.3,1.2c0.7,0.8,0.8,5.2,0.3,9.3c-0.2,1.5-0.3,1.6-1.4,3
				L89.3,19l-0.2,0.2c-3.2,3.8-3.3,4-3,4.9c0.2,0.5,0.6,0.9,1.2,1.1c0.3,0.1,0.6,0.1,0.9,0.1c0.6,0,1.2-0.1,1.7-0.2
				c0.4-0.1,0.7-0.2,1-0.2c0.2,0,0.3,0,0.3,0.1c0.4,0.5,0.4,2.7,0,3.3c-0.2,0.1-0.8,0.3-2.5,0.3c-2.7,0-6.1-0.6-7-0.9
				c-0.8-0.3-1.9-0.9-2.4-2c-0.4-0.9-0.4-2,0.1-3.2c0.3-0.8,0.9-1.1,2.1-1.5c1.2-0.4,2.6-0.8,3.7-2.3c1.1-1.5,1.4-3,0.9-4.2
				c-0.3-0.7-1-1.8-3.1-2.1c-0.2,0-0.4,0-0.6,0c-0.8,0-1.6,0.2-2.4,0.4c-0.6,0.2-1.2,0.3-1.7,0.3c-0.3,0-0.4-0.1-0.5-0.1
				c-0.4-0.9-0.6-4.8-0.2-5.6c0.4-0.8,3.2-2,7.3-2L85.2,5.4 M85.2,3.8c0,0-0.1,0-0.1,0c-3.8,0-7.8,1-8.7,2.9
				c-0.6,1.2-0.4,6.3,0.4,7.3c0.5,0.6,1.1,0.7,1.7,0.7c1.3,0,2.8-0.7,4-0.7c0.1,0,0.3,0,0.4,0c2.3,0.3,2.4,2.1,1.1,3.8
				c-1.7,2.3-4.9,1.2-6,4.1c-1.3,3.5,0.1,6.1,3.2,7.2c1,0.4,4.6,1,7.5,1c1.7,0,3.1-0.2,3.6-0.8c1-1.2,1-4.8-0.2-5.7
				c-0.4-0.3-0.9-0.4-1.3-0.4c-0.9,0-1.8,0.4-2.6,0.4c-0.2,0-0.4,0-0.5-0.1c-0.2,0,2.7-3.4,2.9-3.6c1.2-1.5,1.6-1.9,1.8-3.9
				c0.3-2.1,0.8-8.8-0.7-10.5C90.7,4.4,88.1,3.8,85.2,3.8L85.2,3.8z"/>
		</g>
		<g>
			<g>
				<path style="fill:#FDEB95;" d="M178.9,18c-1.5-0.6-3.4-1.9-4.9-1.1c-4.1,1.9-6.1,11.3-7.4,14.8c-0.8,2.3-2.5,4.8-2.5,7
					c0,1.4,0.5,2.7,2.3,3.8c3.8,2.4,6.8,0.4,8.4-3.3c2.2-5.1,5.1-10,7.5-15.1C184.2,19.8,183,19.8,178.9,18z"/>
				<path style="fill:#FCD11F;" d="M175.1,18.3c0.6,0,1.5,0.4,2.3,0.8c0.3,0.2,0.6,0.3,1,0.4c0.4,0.1,0.7,0.3,1,0.4
					c0.9,0.4,2.1,0.9,2.3,1.1c0,0.1,0,0.6-0.8,2.3c-1,2.2-2.2,4.5-3.3,6.6c-1.4,2.7-2.9,5.6-4.1,8.5c-0.6,1.3-1.8,3.4-3.7,3.4
					c-0.7,0-1.5-0.3-2.4-0.8c-1.4-0.9-1.5-1.7-1.5-2.4c0-1.2,0.7-2.6,1.4-4.1c0.4-0.8,0.7-1.6,1-2.4c0.3-0.7,0.5-1.6,0.9-2.7
					c1.1-3.7,3-9.9,5.7-11.2C174.8,18.3,174.9,18.3,175.1,18.3 M175.1,16.7c-0.4,0-0.7,0.1-1,0.2c-4.1,1.9-6.1,11.3-7.4,14.8
					c-0.8,2.3-2.5,4.8-2.5,7c0,1.4,0.5,2.7,2.3,3.8c1.1,0.7,2.2,1,3.2,1c2.3,0,4.1-1.8,5.2-4.4c2.2-5.1,5.1-10,7.5-15.1
					c1.9-4.2,0.8-4.2-3.3-6C177.7,17.5,176.3,16.7,175.1,16.7L175.1,16.7z"/>
			</g>
			<g>
				<path style="fill:#FDEB95;" d="M169.6,50.3c-0.2-0.9-0.9-1.3-1.5-1.8c-1.2-0.8-4.3-2.2-5.6-1.6c-1.1,0.4-2.8,5.2-2.2,6.4
					c0.4,0.7,5.2,2.3,6.1,2.1C168.7,54.9,168.7,51.9,169.6,50.3z"/>
				<path style="fill:#FCD11F;" d="M163.3,48.3c1.1,0,3.1,0.9,4,1.5l0.1,0.1c0.2,0.2,0.4,0.3,0.5,0.4c-0.2,0.4-0.3,0.9-0.5,1.4
					c-0.4,1.2-0.7,2-1.2,2.2c-0.8-0.1-3.4-0.9-4.4-1.4C161.9,51.4,162.7,49.1,163.3,48.3C163.3,48.3,163.3,48.3,163.3,48.3
					 M163.3,46.7c-0.3,0-0.5,0-0.7,0.1c-1.1,0.4-2.8,5.2-2.2,6.4c0.3,0.6,4.6,2.1,5.9,2.1c0.1,0,0.2,0,0.2,0
					c2.1-0.5,2.2-3.5,3.1-5.1c-0.2-0.9-0.9-1.3-1.5-1.8C167.2,47.8,164.8,46.7,163.3,46.7L163.3,46.7z"/>
			</g>
		</g>
		<g>
			<g>
				<path style="fill:#FDEB95;" d="M193.9,24.1c-1.5-0.6-3.4-1.9-4.9-1.1c-4.1,1.9-6.1,11.3-7.4,14.8c-0.8,2.3-2.5,4.8-2.5,7
					c0,1.4,0.5,2.7,2.3,3.8c3.8,2.4,6.8,0.4,8.4-3.3c2.2-5.1,5.1-10,7.5-15.1C199.2,25.9,198,25.8,193.9,24.1z"/>
				<path style="fill:#FCD11F;" d="M190.1,24.3c0.6,0,1.5,0.4,2.3,0.8c0.3,0.2,0.6,0.3,1,0.4c0.4,0.1,0.7,0.3,1,0.4
					c0.9,0.4,2.1,0.9,2.3,1.1c0,0.1,0,0.6-0.8,2.3c-1,2.2-2.2,4.5-3.3,6.6c-1.4,2.7-2.9,5.6-4.1,8.5c-0.6,1.3-1.8,3.4-3.7,3.4
					c-0.7,0-1.5-0.3-2.4-0.8c-1.4-0.9-1.5-1.7-1.5-2.4c0-1.2,0.7-2.6,1.4-4.1c0.4-0.8,0.7-1.6,1-2.4c0.3-0.7,0.5-1.6,0.9-2.7
					c1.1-3.7,3-9.9,5.7-11.2C189.8,24.4,189.9,24.3,190.1,24.3 M190.1,22.7c-0.4,0-0.7,0.1-1,0.2c-4.1,1.9-6.1,11.3-7.4,14.8
					c-0.8,2.3-2.5,4.8-2.5,7c0,1.4,0.5,2.7,2.3,3.8c1.1,0.7,2.2,1,3.2,1c2.3,0,4.1-1.8,5.2-4.4c2.2-5.1,5.1-10,7.5-15.1
					c1.9-4.2,0.8-4.2-3.3-6C192.7,23.6,191.4,22.7,190.1,22.7L190.1,22.7z"/>
			</g>
			<g>
				<path style="fill:#FDEB95;" d="M184.7,56.3c-0.2-0.9-0.9-1.3-1.5-1.8c-1.2-0.8-4.3-2.2-5.6-1.6c-1.1,0.4-2.8,5.2-2.2,6.4
					c0.4,0.7,5.2,2.3,6.1,2.1C183.7,60.9,183.7,58,184.7,56.3z"/>
				<path style="fill:#FCD11F;" d="M178.3,54.4c1.1,0,3.1,0.9,4,1.5l0.1,0.1c0.2,0.2,0.4,0.3,0.5,0.4c-0.2,0.4-0.3,0.9-0.5,1.4
					c-0.4,1.2-0.7,2-1.2,2.2c-0.8-0.1-3.4-0.9-4.4-1.4C176.9,57.4,177.7,55.1,178.3,54.4C178.3,54.4,178.3,54.4,178.3,54.4
					 M178.3,52.8c-0.3,0-0.5,0-0.7,0.1c-1.1,0.4-2.8,5.2-2.2,6.4c0.3,0.6,4.6,2.1,5.9,2.1c0.1,0,0.2,0,0.2,0
					c2.1-0.5,2.2-3.5,3.1-5.1c-0.2-0.9-0.9-1.3-1.5-1.8C182.2,53.9,179.8,52.8,178.3,52.8L178.3,52.8z"/>
			</g>
		</g>
	</g>
	<g style="clip-path:url(#SVGID_00000083788331585543560530000014978902665437824446_);">
		<g>
			<path style="fill:#FFFFFF;" d="M170.2,114.2c-0.4,0-0.8-0.2-1-0.5c-0.4-0.6-0.2-1.3,0.3-1.7l41.5-27.6c0.6-0.4,1.3-0.2,1.7,0.3
				c0.4,0.6,0.2,1.3-0.3,1.7L170.9,114C170.7,114.2,170.5,114.2,170.2,114.2z"/>
			<path style="fill:#FFFFFF;" d="M211.8,84.2c0.4,0,0.8,0.2,1,0.5c0.4,0.6,0.2,1.3-0.3,1.7L170.9,114c-0.2,0.1-0.4,0.2-0.7,0.2
				c-0.4,0-0.8-0.2-1-0.5c-0.4-0.6-0.2-1.3,0.3-1.7l41.5-27.6C211.3,84.3,211.6,84.2,211.8,84.2 M211.8,81.8
				C211.8,81.8,211.8,81.8,211.8,81.8c-0.7,0-1.4,0.2-2,0.6L168.2,110c-1.7,1.1-2.1,3.3-1,5c0.7,1,1.8,1.6,3,1.6
				c0.7,0,1.4-0.2,2-0.6l41.5-27.6c1.7-1.1,2.1-3.3,1-5C214.1,82.4,213,81.8,211.8,81.8L211.8,81.8z"/>
		</g>
		<g>
			<path style="fill:#FFFFFF;" d="M176.5,133c-0.6,0-1.1-0.4-1.2-1c-0.1-0.7,0.4-1.3,1-1.4l32.7-4.8c0.7-0.1,1.3,0.4,1.4,1
				c0.1,0.7-0.4,1.3-1,1.4l-32.7,4.8C176.6,133,176.6,133,176.5,133z"/>
			<path style="fill:#FFFFFF;" d="M209.2,125.8c0.6,0,1.1,0.4,1.2,1c0.1,0.7-0.4,1.3-1,1.4l-32.7,4.8c-0.1,0-0.1,0-0.2,0
				c-0.6,0-1.1-0.4-1.2-1c-0.1-0.7,0.4-1.3,1-1.4l32.7-4.8C209.1,125.8,209.2,125.8,209.2,125.8 M209.2,123.4c-0.2,0-0.3,0-0.5,0
				l-32.8,4.8c-2,0.3-3.3,2.1-3,4.1c0.3,1.8,1.8,3.1,3.6,3.1c0.2,0,0.3,0,0.5,0l32.8-4.8c2-0.3,3.3-2.1,3-4.1
				C212.5,124.8,211,123.4,209.2,123.4L209.2,123.4z"/>
		</g>
		<g>
			<path style="fill:#FFFFFF;" d="M215.3,185.9c-0.2,0-0.4,0-0.6-0.1l-52.9-28.3c-0.6-0.3-0.8-1-0.5-1.6c0.3-0.6,1-0.8,1.6-0.5
				l52.9,28.3c0.6,0.3,0.8,1,0.5,1.6C216.2,185.7,215.8,185.9,215.3,185.9z"/>
			<path style="fill:#FFFFFF;" d="M162.5,155.2c0.2,0,0.4,0,0.6,0.1l52.9,28.3c0.6,0.3,0.8,1,0.5,1.6c-0.2,0.4-0.6,0.6-1.1,0.6
				c-0.2,0-0.4,0-0.6-0.1l-52.9-28.3c-0.6-0.3-0.8-1-0.5-1.6C161.6,155.4,162,155.2,162.5,155.2 M162.5,152.8
				C162.5,152.8,162.5,152.8,162.5,152.8c-1.3,0-2.5,0.7-3.2,1.9c-0.5,0.8-0.6,1.8-0.3,2.7c0.3,0.9,0.9,1.7,1.7,2.1l52.9,28.3
				c0.5,0.3,1.1,0.4,1.7,0.4c1.3,0,2.5-0.7,3.2-1.9c0.5-0.8,0.5-1.8,0.3-2.7c-0.3-0.9-0.9-1.7-1.7-2.1l-52.9-28.3
				C163.6,153,163,152.8,162.5,152.8L162.5,152.8z"/>
		</g>
		<g>
			<path style="fill:#FFFFFF;" d="M77,107.5c-0.2,0-0.5-0.1-0.7-0.2l-38.1-27c-0.5-0.4-0.7-1.1-0.3-1.7c0.4-0.5,1.1-0.7,1.7-0.3
				l38.1,27c0.5,0.4,0.7,1.1,0.3,1.7C77.8,107.3,77.4,107.5,77,107.5z"/>
			<path style="fill:#FFFFFF;" d="M38.9,78c0.2,0,0.5,0.1,0.7,0.2l38.1,27c0.5,0.4,0.7,1.1,0.3,1.7c-0.2,0.3-0.6,0.5-1,0.5
				c-0.2,0-0.5-0.1-0.7-0.2l-38.1-27c-0.5-0.4-0.7-1.1-0.3-1.7C38.1,78.2,38.5,78,38.9,78 M38.9,75.6c-1.2,0-2.3,0.6-2.9,1.5
				c-1.1,1.6-0.8,3.9,0.9,5l38.1,27c0.6,0.4,1.3,0.7,2.1,0.7c1.2,0,2.3-0.6,2.9-1.5c1.1-1.6,0.8-3.9-0.9-5L41,76.3
				C40.4,75.9,39.6,75.6,38.9,75.6L38.9,75.6z"/>
		</g>
		<g>
			<path style="fill:#FFFFFF;" d="M61,129H28.2c-0.7,0-1.2-0.5-1.2-1.2c0-0.7,0.5-1.2,1.2-1.2H61c0.7,0,1.2,0.5,1.2,1.2
				C62.2,128.5,61.6,129,61,129z"/>
			<path style="fill:#FFFFFF;" d="M61,126.6c0.7,0,1.2,0.5,1.2,1.2S61.6,129,61,129H28.2c-0.7,0-1.2-0.5-1.2-1.2s0.5-1.2,1.2-1.2H61
				 M61,124.2H28.2c-2,0-3.6,1.6-3.6,3.6s1.6,3.6,3.6,3.6H61c2,0,3.6-1.6,3.6-3.6S63,124.2,61,124.2L61,124.2z"/>
		</g>
		<g>
			<path style="fill:#FFFFFF;" d="M24.7,184c-0.5,0-0.9-0.3-1.1-0.7c-0.3-0.6,0-1.3,0.6-1.6l50.3-22.1c0.6-0.3,1.3,0,1.6,0.6
				s0,1.3-0.6,1.6l-50.3,22.1C25,184,24.8,184,24.7,184z"/>
			<path style="fill:#FFFFFF;" d="M75,159.6c0.5,0,0.9,0.3,1.1,0.7c0.3,0.6,0,1.3-0.6,1.6l-50.3,22.1c-0.2,0.1-0.3,0.1-0.5,0.1
				c-0.5,0-0.9-0.3-1.1-0.7c-0.3-0.6,0-1.3,0.6-1.6l50.3-22.1C74.7,159.6,74.8,159.6,75,159.6 M75,157.1C75,157.1,75,157.1,75,157.1
				c-0.5,0-1,0.1-1.4,0.3l-50.3,22.1c-0.9,0.4-1.6,1.1-1.9,2c-0.3,0.9-0.3,1.9,0.1,2.8c0.6,1.3,1.9,2.2,3.3,2.2c0.5,0,1-0.1,1.4-0.3
				L76.4,164c0.9-0.4,1.6-1.1,1.9-2c0.3-0.9,0.3-1.9-0.1-2.8C77.7,158,76.4,157.1,75,157.1L75,157.1z"/>
		</g>
		<g>
			<line style="fill:#FCCF00;" x1="170.2" y1="113" x2="211.8" y2="85.4"/>
			<path d="M170.2,114.2c-0.4,0-0.8-0.2-1-0.5c-0.4-0.6-0.2-1.3,0.3-1.7l41.5-27.6c0.6-0.4,1.3-0.2,1.7,0.3c0.4,0.6,0.2,1.3-0.3,1.7
				L170.9,114C170.7,114.2,170.5,114.2,170.2,114.2z"/>
		</g>
		<g>
			<line style="fill:#FCCF00;" x1="176.5" y1="131.8" x2="209.2" y2="127"/>
			<path d="M176.5,133c-0.6,0-1.1-0.4-1.2-1c-0.1-0.7,0.4-1.3,1-1.4l32.7-4.8c0.7-0.1,1.3,0.4,1.4,1c0.1,0.7-0.4,1.3-1,1.4
				l-32.7,4.8C176.6,133,176.6,133,176.5,133z"/>
		</g>
		<g>
			<line style="fill:#FCCF00;" x1="162.5" y1="156.4" x2="215.3" y2="184.7"/>
			<path d="M215.3,185.9c-0.2,0-0.4,0-0.6-0.1l-52.9-28.3c-0.6-0.3-0.8-1-0.5-1.6c0.3-0.6,1-0.8,1.6-0.5l52.9,28.3
				c0.6,0.3,0.8,1,0.5,1.6C216.2,185.7,215.8,185.9,215.3,185.9z"/>
		</g>
		<g>
			<line style="fill:#FCCF00;" x1="38.9" y1="79.2" x2="77" y2="106.3"/>
			<path d="M77,107.5c-0.2,0-0.5-0.1-0.7-0.2l-38.1-27c-0.5-0.4-0.7-1.1-0.3-1.7c0.4-0.5,1.1-0.7,1.7-0.3l38.1,27
				c0.5,0.4,0.7,1.1,0.3,1.7C77.8,107.3,77.4,107.5,77,107.5z"/>
		</g>
		<g>
			<line style="fill:#FCCF00;" x1="28.2" y1="127.8" x2="61" y2="127.8"/>
			<path d="M61,129H28.2c-0.7,0-1.2-0.5-1.2-1.2c0-0.7,0.5-1.2,1.2-1.2H61c0.7,0,1.2,0.5,1.2,1.2C62.2,128.5,61.6,129,61,129z"/>
		</g>
		<g>
			<line style="fill:#FCCF00;" x1="24.7" y1="182.8" x2="75" y2="160.8"/>
			<path d="M24.7,184c-0.5,0-0.9-0.3-1.1-0.7c-0.3-0.6,0-1.3,0.6-1.6l50.3-22.1c0.6-0.3,1.3,0,1.6,0.6s0,1.3-0.6,1.6l-50.3,22.1
				C25,184,24.8,184,24.7,184z"/>
		</g>
	</g>
</g>
</svg>
