<?xml version="1.0" encoding="UTF-8"?>
<svg xmlns="http://www.w3.org/2000/svg" version="1.1" viewBox="0 0 390 390">
  <!-- Generator: Adobe Illustrator 28.7.1, SVG Export Plug-In . SVG Version: 1.2.0 Build 142)  -->
  <g>
    <g id="_레이어_1" data-name="레이어_1">
      <g>
        <g>
          <path d="M307.8,220.7c1.3.1,2.7.1,4,0-3.4,11.6-8.9,22.5-16.2,32.2-17.8,23.6-51.6,44-82.4,40.5-32.1-3.6-20.5-41.9-8.8-60.5,8.7-13.8,21.6-25.2,36.9-31.1,10.8-4.1,22.3-5.8,33.7-8.3-.1.8,0,1.8.2,2.5,1.2,3,5.2,3.4,8.4,3.1.6,0,1.4-.1,1.9.1,1.4.7,1.2,2.6,1.3,4.2,0,2.7,1.7,5.3,4,6.5,2.3,1.3,5.4,1.2,7.7-.2-.3,1.9-.7,3.9,0,5.8,1.2,3.6,5.5,5,9.2,5.4h0Z" style="fill: #ec7f3b;"/>
          <path d="M280.5,192.1c13.1-3.4,26.2-9.3,33.9-20.3,3.2,16.2,2.1,33.2-2.7,49-1.4.2-2.7.2-4,0-3.7-.4-8.1-1.8-9.2-5.4-.6-1.8-.2-3.8,0-5.8-2.3,1.4-5.3,1.5-7.7.2-2.3-1.3-3.9-3.8-4-6.5,0-1.6.2-3.5-1.3-4.2-.5-.3-1.3-.2-1.9-.1-3.2.3-7.2-.1-8.4-3.1-.3-.8-.3-1.7-.2-2.5h0c1.8-.4,3.6-.8,5.4-1.3h.2Z" style="fill: #fff;"/>
        </g>
        <path d="M220.1,295.9c-2.4,0-4.8-.1-7.1-.4-9.8-1.1-16.6-5.4-20.2-12.5-7.7-16,2.9-40.6,9.7-51.3,9.2-14.8,22.7-26.1,38.1-32,8.2-3.2,16.9-5,25.3-6.6,2.9-.6,5.8-1.2,8.7-1.8h.1c1.7-.4,3.5-.7,5.2-1.3,15.7-4.1,26.4-10.5,32.6-19.5.5-.7,1.4-1.1,2.3-.9.8.2,1.6.8,1.7,1.8,3.2,16.4,2.2,33.7-2.7,50.1-3.5,11.9-9.1,23-16.6,32.8-16.3,21.6-47.2,41.7-77.3,41.7h.1ZM275.6,195.5h0c-3,.6-5.8,1.3-8.8,1.9-8.2,1.7-16.7,3.4-24.5,6.4-14.4,5.6-27.2,16.3-35.9,30.3-7.3,11.7-15.8,33.8-9.4,47,2.9,5.8,8.4,9.2,16.6,10.1,30.5,3.5,63.5-17.3,80.3-39.6,7.1-9.4,12.4-20,15.8-31.4,4.2-14,5.4-28.8,3.4-43-7,7.7-17.5,13.4-31.8,17.2-1.8.4-3.6.8-5.3,1.3h-.2Z"/>
      </g>
      <g>
        <g>
          <path d="M219.1,363.8c3.1-2.6,8.2-4,12-2.2.2,0,.4.2.5.3,5,10.7-4.6,18.8-15.2,19-8.2.2-31.9,4.1-35.4-6.1-.8-2.4-.8-5-.7-7.6v-2.5c1.1-.8,2.3-1.4,3.6-1.7,2.2-.5,4.8-.2,6.8.8s2,1.2,3,.8.8-.5,1.2-.8c2.6-2.1,7-1.6,9.1,1,3.2-3,8.5-3.4,12-.9.5.3.9.7,1.4.7s1.1-.5,1.5-.8h.2Z" style="fill: #9d4810;"/>
          <path d="M230.6,360c.4.6.7,1.3,1,1.9-.1-.1-.3-.2-.5-.3-3.8-1.8-8.9-.5-12,2.2-.5.4-1,.8-1.5.8s-1-.4-1.4-.7c-3.6-2.5-8.9-2.1-12,.9-2.1-2.6-6.4-3.1-9.1-1-.4.3-.7.7-1.2.8-1,.4-2-.4-3-.8-2-1-4.6-1.3-6.8-.8-1.3.3-2.5.9-3.6,1.7.4-17.4,1.5-34.8,1.5-52.1s-1.2-13.2,2.4-17c3.1-3.2,10.9-1.6,15,0,3.5,15.6,6.9,31.1,10.4,46.6.3,1.4.7,3,1.6,4.1,1,1.1,2.3,1.7,3.6,2.2,6,2.6,12.1,5.9,15.6,11.4h0Z" style="fill: #ec7f3b;"/>
        </g>
        <path d="M199.5,384c-9.1,0-18-1.5-20.4-8.5-.9-2.8-.9-5.6-.9-8.3v-2.5c.1-7.2.4-14.4.7-21.6.4-10,.8-20.3.8-30.4s0-1.9,0-3c-.2-5.2-.5-11.7,3-15.5,4-4.2,12.8-2.3,17.3-.5l1.1.4.2,1.1c1.9,8.6,3.8,17.1,5.7,25.7l4.7,21c.2,1.1.5,2.4,1.2,3.2.6.7,1.6,1.1,2.7,1.6,6.2,2.7,12.9,6.2,16.7,12.3.4.7.8,1.5,1.2,2.2,2.2,4.7,2.1,9.5-.5,13.5-3.1,5-9.6,8.4-16.6,8.5-1.4,0-3.2.2-5.3.3-3.6.3-7.7.6-11.7.6h.1ZM190.1,295.9c-1.9,0-3.5.4-4.3,1.2-2.3,2.5-2.1,8.2-1.9,12.4v3.2c0,10.2-.4,20.6-.8,30.6-.3,7.2-.6,14.4-.7,21.6h0v2.4c0,2.5,0,4.8.6,6.9,2.3,6.9,18.9,5.7,27.8,5,2.2-.2,4.1-.3,5.5-.3,5.6-.1,10.7-2.7,13.1-6.5,1.7-2.8,1.8-6.1.2-9.5-.3-.6-.6-1.2-.9-1.7-3.2-5.1-9.2-8.2-14.6-10.6-1.6-.7-3.2-1.4-4.4-2.8-1.3-1.6-1.8-3.5-2.1-5l-4.7-21c-1.8-8.2-3.6-16.3-5.5-24.5-2.4-.8-5.2-1.3-7.4-1.3h0Z"/>
      </g>
      <g>
        <g>
          <path d="M123.5,363.8c-3.1-2.6-8.2-4-12-2.2-.2,0-.4.2-.5.3-5,10.7,4.6,18.8,15.2,19,8.2.2,31.9,4.1,35.4-6.1.8-2.4.8-5,.7-7.6v-2.5c-1.1-.8-2.3-1.4-3.6-1.7-2.2-.5-4.8-.2-6.8.8-.9.5-2,1.2-3,.8s-.8-.5-1.2-.8c-2.6-2.1-6.9-1.6-9,1-3.2-3-8.5-3.4-12-.9-.5.3-.9.7-1.4.7s-1.1-.5-1.5-.8h-.3Z" style="fill: #9d4810;"/>
          <path d="M112,360c-.4.6-.7,1.3-1,1.9,0-.1.3-.2.5-.3,3.8-1.8,8.9-.5,12,2.2.5.4,1,.8,1.5.8s1-.4,1.4-.7c3.6-2.5,8.9-2.1,12,.9,2.1-2.6,6.4-3.1,9-1,.4.3.8.7,1.2.8,1,.4,2.1-.4,3-.8,2-1,4.6-1.3,6.8-.8,1.3.3,2.5.9,3.6,1.7-.4-17.4-1.5-34.8-1.5-52.1s1.2-13.2-2.4-17c-3.1-3.2-10.9-1.6-15,0-3.5,15.6-6.9,31.1-10.4,46.6-.3,1.4-.7,3-1.6,4.1-1,1.1-2.3,1.7-3.6,2.2-6,2.6-12.1,5.9-15.6,11.4h0Z" style="fill: #ec7f3b;"/>
        </g>
        <path d="M143.1,384c-4.1,0-8.2-.3-11.7-.6-2.1-.2-3.9-.3-5.3-.3-7-.1-13.5-3.5-16.6-8.5-2.5-4-2.7-8.9-.4-13.6.3-.7.7-1.4,1.1-2.1,3.8-6.2,10.5-9.7,16.6-12.3,1.2-.5,2.3-1,2.9-1.7.6-.7.9-2,1.1-3.1l4.7-21.1c1.9-8.5,3.8-17,5.7-25.6l.2-1.1,1.1-.4c4.6-1.8,13.4-3.7,17.3.5,3.5,3.8,3.2,10.3,3,15.5v3c0,10.1.4,20.4.8,30.4.3,7.2.6,14.4.7,21.6v2.5c0,2.7,0,5.5-.8,8.3-2.3,6.9-11.3,8.5-20.4,8.5h0ZM145,297.2c-1.8,8.2-3.6,16.3-5.4,24.4l-4.7,21.1c-.3,1.4-.8,3.4-2.1,5-1.3,1.4-2.8,2.1-4.2,2.7-5.6,2.4-11.6,5.5-14.8,10.7-.3.5-.6,1.1-.9,1.7-1.6,3.5-1.6,6.8.2,9.6,2.4,3.8,7.5,6.4,13.1,6.5,1.4,0,3.3.2,5.5.3,8.9.7,25.5,1.9,27.8-5,.7-2.1.7-4.4.6-6.9v-2.4h0c-.1-7.3-.4-14.5-.7-21.6-.4-10-.8-20.4-.8-30.6s0-2,0-3.2c.2-4.2.4-10-1.9-12.4-1.7-1.8-7.2-1.4-11.7.1h0Z"/>
      </g>
      <g>
        <path d="M222.9,263.9c4.8,12.5,10.5,24.8,17,36.6-20.7,11.1-45.1,12.4-68.6,13.4-23.5-1.1-47.9-2.3-68.6-13.4,6.5-11.8,12.2-24,17-36.6h103.2Z" style="fill: #4c6599;"/>
        <path d="M171.4,316c-22.7-1-48.2-2.1-69.7-13.7-.5-.3-.9-.7-1-1.3-.2-.5,0-1.1.2-1.6,6.4-11.7,12.1-23.9,16.9-36.3.3-.8,1.1-1.4,2-1.4h103.2c.9,0,1.7.5,2,1.4,4.8,12.4,10.5,24.6,16.9,36.3.3.5.3,1.1.2,1.6-.2.5-.5,1-1,1.3-21.6,11.5-47,12.7-69.5,13.7h-.2ZM105.6,299.6c20.3,10.2,44.5,11.3,65.8,12.2,21.2-1,45.3-2,65.6-12.2-5.9-10.8-11.1-22.1-15.6-33.6h-100.3c-4.5,11.5-9.7,22.7-15.6,33.6h.1Z"/>
      </g>
      <g>
        <g>
          <g>
            <path d="M245.6,273.8c-2.1-1.7-4.9-2.4-7.5-1.8-.3,0-.6.1-.9.3,0-1.2,0-2.5-.2-3.7-1.1-15.2-9.4-28.9-13.5-43.6-1.6-5.8,1.5-9.3,7.4-9.8,4.5-.4,7.2,2.2,10.3,5.1,8.9,8.3,16.4,18.1,22.2,28.8,3.1,5.7,5.7,11.8,6.5,18.3,0,.5.1,1,.1,1.4-2.7-1-5.7-.9-8.3.3-2,.9-3.8,2.7-3.8,4.9-1-1.9-3-3.3-5.1-3.4s-4.3,1-5.5,2.8c-.2.3-.4.7-.8.7s-.7-.2-1-.5v.2Z" style="fill: #ec7f3b;"/>
            <path d="M261.9,269.2c2.6-1.2,5.6-1.2,8.3-.3.5,6.1-.8,12.4-4.5,17.1-3.9,5.2-11,8.2-17.3,6.5-3.7-1-6.9-3.6-8.7-6.9-2.2-4-2.3-8.8-2.5-13.5.3-.1.6-.2.9-.3,2.6-.6,5.5.1,7.5,1.8.3.2.6.5,1,.5s.6-.4.8-.7c1.2-1.8,3.4-3,5.5-2.8s4.2,1.5,5.1,3.4c0-2.2,1.8-4,3.8-4.9h.1Z" style="fill: #9d4810;"/>
          </g>
          <path d="M251.9,295.2c-1.4,0-2.8-.2-4.1-.5-4.3-1.2-7.9-4.1-10-7.9-2.4-4.4-2.6-9.4-2.7-14.2v-.2c0-1.2,0-2.4-.2-3.5-.7-9.3-4-17.8-7.6-26.9-2.1-5.3-4.2-10.7-5.8-16.3-1.1-4.2,0-6.9,1-8.5,1.6-2.3,4.5-3.7,8.3-4,5.4-.5,8.7,2.6,11.8,5.6,9.2,8.6,16.8,18.4,22.7,29.4,3.9,7.2,6.1,13.2,6.8,19.1,0,.4.1.9.1,1.4.5,7.2-1.2,13.8-5,18.7-3.7,4.9-9.7,7.8-15.4,7.8h.1ZM239.3,272.2v.2c.1,4.5.3,8.7,2.2,12.3,1.5,2.8,4.3,5,7.4,5.8,5.2,1.4,11.3-1,15-5.8,3.1-4,4.6-9.6,4.1-15.7,0-.5,0-.9-.1-1.2-.7-5.3-2.7-10.9-6.3-17.6-5.7-10.5-13.1-20-21.8-28.2-3-2.9-5.2-4.9-8.7-4.6-1.7.1-4,.6-5.2,2.2-.8,1.2-1,2.8-.4,4.9,1.5,5.3,3.6,10.7,5.6,15.8,3.5,9,7.2,18.2,7.9,28.1.1,1.2.1,2.5.2,3.7h-2.1,2.2Z"/>
        </g>
        <g>
          <path d="M233.1,202.7c4.5,3.6,7.8,8.3,11.6,13.8-7.9,8.6-16.6,16.6-25.9,23.6-4-3.7-2.8-2.9-5.9-7.4-5.4-7.8-10.5-16.7-9.4-26.1,1.2-10.7,10.9-12.2,19.6-9.3,4,1.3,7.3,3.1,10,5.4h0Z" style="fill: #fff;"/>
          <path d="M218.8,242.3c-.5,0-1-.2-1.4-.6-2.9-2.6-3.3-3.2-4.4-4.9-.4-.6-.9-1.5-1.8-2.8-5.8-8.4-11-17.5-9.8-27.5.5-4.6,2.6-8.2,5.9-10.3,4.1-2.6,10.1-2.9,16.5-.8,4.1,1.3,7.6,3.2,10.7,5.7h0c4.6,3.7,7.9,8.3,12,14.3.6.8.5,1.9-.2,2.6-8,8.7-16.8,16.8-26.2,23.9-.4.3-.8.4-1.3.4h0ZM215.7,198.2c-2.4,0-4.5.5-6.1,1.5-2.2,1.4-3.6,3.8-4,7.2-1,8.6,3.8,17,9.1,24.7,1,1.4,1.5,2.3,2,3,.7,1.1.9,1.5,2.3,2.8,8.2-6.4,16-13.4,23-21.1-3.5-5.1-6.4-8.9-10.2-12-2.7-2.2-5.8-3.8-9.4-5-2.3-.8-4.6-1.2-6.7-1.2h0Z"/>
        </g>
      </g>
      <g>
        <path d="M111,202.7c-4.5,3.6-7.8,8.3-11.6,13.8,7.9,8.6,16.6,16.6,25.9,23.6,4-3.7,2.8-2.9,5.9-7.4,5.4-7.8,10.5-16.7,9.4-26.1-1.2-10.7-10.9-12.2-19.6-9.3-4,1.3-7.3,3.1-10,5.4Z" style="fill: #fff;"/>
        <path d="M125.2,242.3c-.4,0-.9-.1-1.3-.4-9.4-7.1-18.2-15.2-26.1-23.9-.7-.7-.7-1.8-.2-2.6,4.1-6,7.4-10.6,12-14.3h0c3.1-2.5,6.6-4.4,10.7-5.7,6.3-2.1,12.3-1.8,16.5.8,3.3,2.1,5.3,5.7,5.9,10.3,1.2,10-4,19.2-9.8,27.5-.9,1.3-1.4,2.2-1.8,2.8-1.1,1.7-1.5,2.3-4.4,4.9-.4.4-.9.6-1.4.6h0ZM102.1,216.4c7.1,7.6,14.8,14.7,23,21.1,1.4-1.3,1.6-1.7,2.3-2.8.4-.7,1-1.6,2-3,5.3-7.7,10.1-16,9.1-24.7-.4-3.3-1.7-5.8-4-7.2-3-1.9-7.8-2.1-12.9-.4-3.6,1.2-6.6,2.8-9.4,5h0c-3.8,3.1-6.7,7-10.2,12h0Z"/>
      </g>
      <g>
        <g>
          <path d="M218.5,233.4c-2.3-9.7-4-19.8-8.6-28.7-4.7-8.9-13.2-16.5-23.2-16.8-4.2-.1-11.2,2-15.4,1.7-4.2.2-11.2-1.9-15.4-1.7-10,.3-18.6,7.9-23.2,16.8-4.7,8.9-6.3,18.9-8.6,28.7-2.2,9.3-5.2,24.9-8.8,33.7-1.9,6.3,115.1,7.5,112,0-3.6-8.9-6.6-24.4-8.8-33.7h0Z" style="fill: #fff;"/>
          <path d="M172.5,274.5c-26.4,0-53.2-1.6-57.9-4.7-1.8-1.2-1.5-2.8-1.4-3.2,2.8-6.8,5.2-17.5,7.1-26.1.6-2.8,1.2-5.3,1.7-7.6.5-1.9.9-3.8,1.3-5.7,1.8-7.9,3.6-16.1,7.5-23.5,4.4-8.5,13.3-17.6,25-17.9,2.2,0,4.9.4,7.8.9,2.8.5,5.6,1,7.5.9,2.2.1,5-.4,7.8-.9,2.9-.5,5.6-1,7.8-.9,11.7.3,20.6,9.4,25,17.9,3.9,7.4,5.7,15.6,7.5,23.5.4,1.9.9,3.8,1.3,5.7.5,2.2,1.1,4.8,1.7,7.6,1.9,8.6,4.3,19.3,7,25.8.4,1,.3,2.4-1,3.5-3.8,3.1-29.6,4.6-55.8,4.6h.1ZM117.7,266.7c11.3,4.7,97.3,4.9,107.2.3-2.7-6.9-4.9-17.2-6.8-25.5-.6-2.7-1.2-5.3-1.7-7.5h0c-.5-1.9-.9-3.8-1.3-5.8-1.7-7.6-3.5-15.6-7.1-22.4-3.9-7.4-11.5-15.4-21.4-15.6-1.8,0-4.4.4-7,.8-3,.5-6.1,1-8.5.9-2.2.1-5.3-.4-8.3-.9-2.5-.4-5.1-.9-7-.8-9.9.2-17.5,8.2-21.4,15.6-3.6,6.9-5.4,14.8-7.1,22.5-.4,1.9-.9,3.8-1.3,5.7-.5,2.2-1.1,4.8-1.7,7.5-1.8,8.2-4.1,18.3-6.7,25.3h0ZM225.3,268h0Z"/>
        </g>
        <g>
          <path d="M168,220.5c.3.3.6.6.7,1,.1.4,0,.9-.1,1.3-2,6.9-4.3,13.6-6.9,20.3-.2.5-.4,1-.4,1.6s.3,1.1.6,1.6c2.3,4.1,5,8.1,7.9,11.9.3.4.6.8,1.1,1,3.5,1.8,7.4-6.5,8.7-8.7,1.6-2.7,2.8-5,2.1-8.2-.6-3-2.4-5.7-3.5-8.6-1.3-3.5-3.1-7.7-3.2-11.4,0-.6.4-1.1.8-1.6,1.3-1.6,2.7-3.1,3.7-5,1-1.8,1.4-4,.7-6-1.7-4.8-8.5-4.8-11.7-1.7-1.3,1.3-2.6,3.2-3.7,4.7-2.1,2.9.9,5.5,3.1,7.6v.2Z" style="fill: #4c6599;"/>
          <path d="M172,261.7c-.7,0-1.3-.2-2-.5-.9-.4-1.4-1.1-1.8-1.6-3-3.8-5.7-7.9-8-12.1-.3-.6-.8-1.4-.9-2.5,0-1,.3-1.8.5-2.5,2.5-6.6,4.8-13.4,6.8-20.2h0l-.3-.2c-2.3-2.2-6.1-5.8-3.1-10.1l.5-.8c1-1.4,2.1-3.1,3.4-4.3,2.4-2.3,6.2-3.3,9.4-2.5,2.8.6,4.8,2.4,5.8,5,.8,2.3.5,5-.9,7.7-.9,1.7-2.1,3.1-3.3,4.5l-.7.8c-.2.3-.3.4-.3.4.1,2.7,1.5,6.2,2.6,9.3l.5,1.2c.4,1,.9,2,1.3,3,.9,1.8,1.8,3.7,2.2,5.9.8,4-.6,6.8-2.4,9.8-.2.3-.3.6-.6,1-1.8,3.3-4.9,8.9-8.9,8.9l.2-.2ZM169.5,219c.4.4,1,1,1.3,1.9.3,1.1,0,2-.1,2.5-2.1,6.9-4.4,13.8-6.9,20.5,0,.2-.2.6-.2.7s.2.5.3.7c2.3,4.1,4.9,8,7.7,11.6.1.1.3.4.4.5,0,0,1.3.4,5.3-6.7.3-.5.5-.9.7-1.1,1.5-2.4,2.4-4.2,1.9-6.7-.4-1.7-1.1-3.2-1.9-4.9-.5-1.1-1.1-2.2-1.5-3.4l-.5-1.2c-1.3-3.4-2.8-7.2-2.9-10.9,0-1.5.8-2.5,1.3-3l.7-.8c1.1-1.3,2.1-2.5,2.8-3.8.8-1.5,1-3.1.6-4.3-.5-1.5-1.8-2.1-2.7-2.3-1.9-.5-4.2.2-5.5,1.5s-2,2.4-2.9,3.7l-.5.8c-.7,1-.2,2,2.6,4.6l.3.3-1.5,1.5,1.5-1.5-.3-.2ZM166.8,222.3h0Z"/>
        </g>
        <g>
          <path d="M143.3,195.7c0,8.2,7.1,16.8,13.6,20.7,2.7,1.6,3.2,2,5.9.7,3.4-1.6,6.7-5,9.2-7.4,2.7,2.2,5.4,7.9,8.8,8.9,4.6,1.3,11.3-6.4,14-9.4,3.9-4.4,6.5-9.9,4.5-15.8-4.1-12-17.5-16.7-29.2-16.1-8.3.4-19.3,3.8-24.3,10.9-1.7,2.4-2.5,4.9-2.5,7.5h0Z" style="fill: #fff;"/>
          <path d="M181.9,220.9c-.6,0-1.1,0-1.7-.2-2.8-.8-4.9-3.6-6.8-6-.5-.7-1-1.4-1.5-1.9-2.4,2.3-5.2,4.9-8.3,6.3-3.5,1.7-4.8,1-7.7-.7-7.5-4.5-14.9-13.7-14.8-22.7h0c0-3.2,1-6.1,2.9-8.7,5.5-7.5,17-11.3,26-11.7,12.4-.6,26.9,4.6,31.3,17.6,1.9,5.8.2,11.9-4.9,17.8-4.3,4.9-9.7,10.2-14.5,10.2h0ZM172,207.7c.5,0,.9.2,1.3.5,1.3,1,2.4,2.5,3.5,4,1.5,1.9,3.1,4.1,4.6,4.5,1.2.4,4.4-.3,11.8-8.7,4.2-4.8,5.6-9.4,4.1-13.7-3.7-10.9-16.3-15.2-27.1-14.7-7.7.4-18.1,3.6-22.7,10-1.4,1.9-2.1,4-2.1,6.3h0c0,7.3,6.4,15.2,12.6,18.9,1.5.9,2.8,1.1,3.9.6,2.7-1.3,5.4-3.9,7.7-6.1l1-.9c.4-.4.9-.6,1.5-.6h-.1Z"/>
        </g>
        <g>
          <path d="M198.4,245.9c13.2-.4,14.9-22.1,14.9-22.1l-14.9-8.5-14.9,8.5s1.7,21.7,14.9,22.1Z" style="fill: #ffbf30;"/>
          <path d="M198.4,241.2c9.2-.3,10.3-15.4,10.3-15.4l-10.3-5.9-10.3,5.9s1.2,15.1,10.3,15.4Z" style="fill: #bb4e00;"/>
          <path d="M203.6,235.5c-.3.3-.5.4-.7.4h-.9c-.4,0-.6-.2-.7-.3-.1-.2-.2-.4-.2-.8v-5.3c-.1.4-.3.8-.5,1.2s-.3.9-.5,1.3c-.2.4-.4.9-.5,1.3-.2.4-.3.8-.5,1.2,0,.1,0,.2-.1.3,0,.1-.1.2-.2.3,0,0-.2.2-.3.2h-.8s-.1-.2-.2-.3l-2.2-5.9v6c0,.1-.2.2-.3.3-.2,0-.3.2-.4.3-.2,0-.3.2-.6.2l-.6-.4v-9.7s0-.1-.1-.2l.5-.3c.2,0,.4,0,.6.1.2,0,.4.1.6.2.2,0,.4.2.5.3s.3.3.3.5l2.3,6.5,2.4-6.7h0v-.2q0,0-.2-.2l.5-.4c.6,0,1,.2,1.3.3.3.2.4.3.4.3v8.7s.2.1.3,0l.3.5.5.3Z" style="fill: #fff;"/>
        </g>
      </g>
      <g>
        <g>
          <path d="M254.3,165.4h-.1c.7.1-6.2,7.6-6.7,8.1-3,2.7-6.1,5.3-9.3,7.7-6.6,4.9-13.7,9-21.2,12.4-14.9,6.8-31.3,10.8-47.8,10.9-16.5-.1-32.9-4.1-47.9-10.9-7.4-3.4-14.5-7.5-21.1-12.4-3.2-2.4-6.4-4.9-9.4-7.7-.5-.5-7.4-8-6.7-8.1h0c5.7-3.7,12-6.4,18.6-8.1,5.6-1.4,11.4-2.1,17.2-2.6,17.2-1.4,29-10.4,49.3-10.4s32.1,9,49.3,10.4c5.8.5,11.5,1.2,17.2,2.6,6.6,1.7,12.9,4.4,18.6,8.1h0Z" style="fill: #fff;"/>
          <path d="M247.6,47.4c0,.8,0,1.5-.1,2.3-.4,1.7-1.7,3.3-3.4,3.4-1.2,0-2.4-.6-3.3-1.4-1.6-1.5-2.7-3.6-3.1-5.8-1.2,1.2-2.5,2.4-4.2,3s-3.7,0-4.6-1.3c-1.1-1.7-.2-4-.7-6-1.5,1.2-3,2.4-4.9,2.7-1.9.4-4-.2-4.9-1.9-.5-1-.4-2.1-.3-3.2.1-2.3.3-4.6.5-6.9l-1.3-1.1c4.6-5.4,9.3-10.8,13.6-16.5,7.2-9.6,11.5.4,13.6,8.1,1.9,7.2,3.3,14.5,4,21.8,0,.9.1,1.8.2,2.7h-1.1Z" style="fill: #9d4810;"/>
          <path d="M115,44.3c-1.8-.4-3.4-1.6-4.9-2.7-.5,2,.4,4.2-.7,6-.9,1.4-3,1.8-4.6,1.3s-3-1.8-4.2-3c-.4,2.2-1.5,4.3-3.1,5.8-.9.8-2,1.5-3.3,1.4-1.7,0-3.1-1.7-3.4-3.4,0-.7-.2-1.5,0-2.3h-1c0-1,0-1.9.2-2.8.7-7.4,2.1-14.6,4-21.8,2-7.8,6.3-17.7,13.6-8.1,4.3,5.7,9,11.1,13.6,16.5l-1.3,1.1c0,2.3.3,4.6.5,6.9,0,1.1,0,2.3-.3,3.2-.8,1.7-3,2.3-4.9,1.9h-.2Z" style="fill: #9d4810;"/>
          <path d="M119.9,42.4c.5-1,.4-2.1.3-3.2-.2-2.3-.4-4.6-.5-6.9l1.3-1.1c1,1.1,1.9,2.2,2.8,3.3,7.9,9.5,15.8,19,23.7,28.5,8-1.2,13.6-2,21.6-2s13.6.8,21.6,2c7.9-9.5,15.8-19,23.7-28.5.9-1.1,1.8-2.2,2.8-3.3l1.3,1.1c-.2,2.3-.4,4.6-.5,6.9-.1,1.1-.2,2.3.3,3.2.8,1.7,3,2.3,4.9,1.9,1.8-.4,3.4-1.6,4.9-2.7.5,2-.4,4.2.7,6,.9,1.4,3,1.8,4.6,1.3s3-1.8,4.2-3c.4,2.2,1.5,4.3,3.1,5.8.9.8,2.1,1.5,3.3,1.4,1.8,0,3.1-1.7,3.4-3.4.2-.8.2-1.5.1-2.3h1c1.2,15.9-1,32.6-9.9,46.2,4.3,7.9,7.6,16.3,10.5,24.8,1.4,4.3,2.7,8.7,4,13.2,1.5,5.4,2.3,4.5,7.3,6.3.9.3,1.8.8,2.3,1.6.2.4.3.9.4,1.4,0,2.5-2.1,4.8-4.5,5.1,1.5.6,3.4.9,4.8,2,1.3,1.1,1.7,3.1,1,4.6-1.3,2.6-4.5,1.8-6.9,1.8.7.5,1.3.9,1.8,1.4,1.7,1.7,2.1,4.5,1,6.7-1.1,2.1-3.5,3.4-5.8,3h0c-5.7-3.7-12-6.4-18.6-8.1-5.6-1.4-11.4-2.1-17.2-2.6-17.2-1.4-29.1-10.4-49.3-10.4s-32.1,9-49.3,10.4c-5.8.5-11.6,1.2-17.2,2.6-6.6,1.7-12.9,4.4-18.6,8.1h0c-2.3.4-4.8-1-5.8-3-1.1-2.1-.7-4.9.9-6.7.6-.6,1.2-1,1.9-1.4-2.4,0-5.5.8-6.9-1.8-.8-1.5-.4-3.6,1-4.6,1.3-1.1,3.2-1.3,4.8-2-2.4-.3-4.5-2.5-4.5-5.1s0-1,.3-1.4c.5-.8,1.4-1.3,2.3-1.6,5-1.7,5.7-.9,7.3-6.3,1.2-4.4,2.5-8.8,4-13.2,2.9-8.5,6.1-16.9,10.5-24.8-8.9-13.6-11.1-30.3-9.9-46.2h1c0,.8,0,1.6,0,2.4.4,1.7,1.7,3.3,3.4,3.4,1.2,0,2.4-.6,3.3-1.4,1.7-1.5,2.8-3.6,3.1-5.8,1.2,1.2,2.6,2.4,4.2,3s3.7,0,4.6-1.3c1.1-1.7.2-4,.7-6,1.5,1.2,3,2.4,4.9,2.7s4-.2,4.9-1.9h-.4Z" style="fill: #ec7f3b;"/>
        </g>
        <g>
          <path d="M169.2,206.6c-16.2-.1-33.1-3.9-48.8-11.1-7.6-3.5-14.8-7.7-21.5-12.6-3.3-2.4-6.5-5.1-9.5-7.8-4.6-4.6-6.4-7.1-7.1-8.6-.2-.3-.4-.7-.4-1.1,0-1.2.9-2.1,2.1-2.1h0c1,0,1.9.7,2.1,1.7,1,1.5,5.4,6.3,6.1,7,2.9,2.6,6,5.1,9.1,7.5,6.4,4.7,13.4,8.8,20.7,12.1,15.2,6.9,31.4,10.6,47,10.7,15.6,0,31.8-3.8,46.9-10.7,7.3-3.3,14.3-7.4,20.8-12.1,3.2-2.4,6.3-4.9,9.2-7.5.6-.6,5-5.4,6-6.9.2-1,1-1.7,2.1-1.7s2.2.9,2.2,2.1-.2,1-.5,1.4c-1.6,3.3-6.8,8.2-6.9,8.3-3,2.7-6.2,5.4-9.5,7.8-6.7,4.9-14,9.1-21.5,12.6-15.7,7.2-32.5,11-48.7,11.1h0Z"/>
          <path d="M255.1,167.6h-1.1c-1.2-.2-1.9-1.3-1.8-2.4.2-1.2,1.3-1.9,2.4-1.8,1.5.2,3-.6,3.6-1.9.7-1.3.4-3.2-.6-4.2s-.9-.8-1.5-1.2c-.8-.5-1.1-1.5-.8-2.4s1.1-1.5,2-1.5h1.6c2.3.2,3,0,3.4-.7.3-.6.1-1.6-.5-2.1-.5-.4-1.4-.7-2.3-1-.7-.2-1.3-.4-1.9-.7-.9-.4-1.4-1.3-1.2-2.2.1-.9.9-1.7,1.8-1.8,1.4-.2,2.6-1.6,2.6-3v-.4c0-.1-.2-.3-1.2-.6-.8-.3-1.5-.5-2.1-.7-3.9-1.2-5-2-6.4-7s-2.7-9.2-3.9-13.1c-3.3-9.8-6.6-17.5-10.3-24.4-.4-.7-.3-1.5,0-2.2,7.7-11.8,10.9-26.9,9.6-45,0-.9-.1-1.8-.2-2.6-.7-6.9-1.9-13.9-3.9-21.5-1.9-7.3-4.2-10.2-5.6-10.5-1-.2-2.6.9-4.2,3.1-3.5,4.6-7.3,9.1-11,13.4l-2.7,3.2c-.9,1.1-1.8,2.1-2.7,3.1-8,9.6-15.9,19.1-23.8,28.6-.5.6-1.2.9-1.9.7-7.6-1.2-13.2-1.9-21.3-1.9s-13.7.8-21.3,1.9c-.7,0-1.5-.2-1.9-.7l-24.1-28.9c-.8-.9-1.6-1.9-2.4-2.8l-2.7-3.1c-3.7-4.3-7.5-8.8-11.1-13.4-1.6-2.2-3.1-3.3-4.2-3.1-1.5.3-3.7,3.2-5.6,10.5-1.9,7.3-3.2,14.5-3.9,21.5v.3c0,.8,0,1.5-.2,2.3-1.4,18.1,1.9,33.2,9.6,45,.4.7.5,1.5,0,2.2-3.7,6.8-7,14.5-10.3,24.4-1.3,3.9-2.5,8-3.9,13.1-1.4,5-2.6,5.9-6.4,7-.6.2-1.3.4-2.2.7-1,.3-1.1.5-1.2.6v.4c0,1.4,1.2,2.8,2.6,3,.9.1,1.7.8,1.8,1.8,0,.9-.4,1.9-1.3,2.2-.6.3-1.3.5-1.9.7-.9.3-1.8.6-2.3,1-.5.5-.7,1.4-.4,2.1.3.7,1,.8,3.3.6h1.6c.9,0,1.7.6,2,1.5s0,1.8-.8,2.4c-.6.4-1.1.8-1.6,1.2-1,1-1.2,2.9-.5,4.2s2.3,2.1,3.7,1.9c1.1-.2,2.2.6,2.4,1.8.2,1.2-.6,2.2-1.8,2.4-3.2.5-6.6-1.3-8-4.1-1.1-2.1-1.1-4.8,0-7-1.5-.3-3-1-3.9-2.9-1.2-2.4-.6-5.5,1.4-7.2.4-.3.8-.6,1.2-.8-1.1-1.3-1.8-2.9-1.7-4.7,0-.8.2-1.6.5-2.3.9-1.7,2.8-2.4,3.5-2.6.9-.3,1.7-.5,2.3-.7,1.8-.5,3-1.9,3.6-4.1,1.4-5.1,2.7-9.3,4-13.3,3.2-9.6,6.4-17.3,10-24-7.7-12.4-11-28-9.6-46.5,0-.7,0-1.5,0-2.4v-.4c.7-7.3,2.1-14.7,4.1-22.2,2.2-8.4,5.1-12.8,8.9-13.6,2.8-.6,5.6,1,8.4,4.7,3.4,4.5,7.2,9,10.9,13.2l2.7,3.1c.8.9,1.6,1.9,2.4,2.9l23.3,28c7.2-1.1,12.8-1.8,20.8-1.8s13.5.7,20.8,1.8c7.6-9.2,15.3-18.4,23-27.6,1-1.2,1.9-2.2,2.8-3.3l2.7-3.1c3.6-4.3,7.4-8.7,10.8-13.2,2.8-3.7,5.6-5.2,8.4-4.7,3.8.7,6.7,5.2,8.9,13.6,2,7.8,3.4,15.1,4,22.2,0,.9.1,1.9.2,2.8,1.4,18.4-1.9,34-9.6,46.4,3.6,6.8,6.8,14.5,10,24,1.3,4,2.6,8.2,4,13.3.6,2.2,1.8,3.6,3.6,4.1.7.2,1.4.4,2.3.7,1.3.5,2.7,1.1,3.5,2.6.4.7.6,1.6.6,2.3,0,1.8-.7,3.5-1.8,4.8.4.2.8.5,1.2.8,2.1,1.8,2.7,4.8,1.5,7.2-1,1.9-2.5,2.7-4,2.9,1,2.2,1,4.9-.1,7-1.3,2.5-4.1,4.2-6.9,4.2h.2Z"/>
        </g>
        <g>
          <path d="M207.7,67.3s6.3-4.9,8.3-2c2,2.8-.9,7.7-.9,7.7,0,0,10.6-1.6,8,2l-2.6,3.7s6.1,3.7,8.1,5.7,13-33,6.9-44.8c0,0-2-2-4.5,0s-23.4,27.7-23.4,27.7h0Z" style="fill: #fff;"/>
          <path d="M228.8,86.6c-.6,0-1.2-.2-1.7-.7-1.5-1.5-6.1-4.4-7.7-5.4-.5-.3-.9-.8-1-1.4s0-1.2.3-1.7l1.9-2.7c-1.3,0-3.4,0-5.3.3-.8,0-1.6-.2-2.1-.9-.5-.7-.5-1.6,0-2.3.7-1.2,1.9-4.1,1-5.4-.6-.3-3.2.8-5.3,2.5-.9.7-2.1.6-2.8-.2-.7-.8-.8-2-.1-2.8,2.2-2.6,21.2-25.9,23.7-28,2.9-2.4,5.9-1.2,7.3,0,.2.2.3.3.4.5,6.1,11.8-3,44.4-7.1,47.4-.5.3-1,.5-1.5.5v.2ZM223.5,78.1c1.4.9,3.4,2.2,5,3.4,2.9-6.2,9.8-31,5.4-40.5-.6-.4-1.2,0-1.4.3-1.3,1.1-10.3,11.8-17.9,21h.3c1.2.2,2.2.8,2.9,1.7,1.4,2,1.3,4.5.7,6.5,3.6-.2,5.8.5,6.7,1.9.3.5.9,2-.4,3.8l-1.3,1.8h0Z"/>
        </g>
        <g>
          <path d="M130.6,67.3s-6.3-4.9-8.3-2c-2,2.8.9,7.7.9,7.7,0,0-10.6-1.6-8,2l2.6,3.7s-6.1,3.7-8.1,5.7-13-33-6.9-44.8c0,0,2-2,4.5,0,2.4,2,23.4,27.7,23.4,27.7h0Z" style="fill: #fff;"/>
          <path d="M109.5,86.6c-.5,0-1.1-.2-1.5-.5-4.1-3-13.2-35.7-7.1-47.4,0-.2.2-.4.4-.5,1.4-1.4,4.4-2.5,7.3,0,2.5,2.1,21.5,25.3,23.7,28,.7.8.6,2-.1,2.8-.7.8-2,.9-2.8.2-2.1-1.6-4.7-2.7-5.3-2.5-.9,1.3.3,4.2,1,5.4.4.7.4,1.6,0,2.3-.5.7-1.3,1-2.1.9-1.9-.3-3.9-.4-5.2-.3l1.9,2.7c.3.5.5,1.1.3,1.7,0,.6-.5,1.1-1,1.4-1.6,1-6.2,3.9-7.7,5.4s-1.1.7-1.7.7v-.2ZM104.4,41c-4.4,9.5,2.5,34.3,5.4,40.5,1.5-1.2,3.5-2.5,5-3.4l-1.3-1.8c-1.3-1.8-.7-3.3-.4-3.8.9-1.5,3.2-2.1,6.7-1.9-.6-2-.7-4.5.7-6.5s1.7-1.5,2.9-1.7h.3c-7.6-9.3-16.5-19.9-17.9-21-.2-.2-.8-.7-1.4-.3h0Z"/>
        </g>
      </g>
      <path d="M180.3,144.1c0,6.2-5,10.1-11.1,10.1s-11.1-3.9-11.1-10.1,5-7.6,11.1-7.6,11.1,1.5,11.1,7.6Z"/>
      <g>
        <g>
          <g>
            <g>
              <path d="M189.4,124.7c-.6,1.2-1,2.5-1,3.8,2.3.1,4.6.1,6.9,0-.5,3.1,2.7,6.1,5.8,5.7s5.4-3.7,5.1-6.9h9.7c-.5-8-10-11.8-17.6-9.9-3.9,1-7.1,3.9-8.9,7.4h0Z" style="fill: #522500;"/>
              <path d="M188.4,128.4c-.3,3.1.7,6.3,2.5,8.7,3.2,4.3,9,4.8,13.7,3.6,4.6-1.2,9.2-4.2,10.7-8.9.6-1.7.8-3.3.7-4.8h-9.7c.3,3.2-2,6.4-5.1,6.9s-6.4-2.6-5.8-5.7c-2.3.1-4.6.1-6.9,0v.2Z" style="fill: #c07a00;"/>
            </g>
            <path d="M200.3,143.4c-4,0-8.3-1.3-11-5-2.1-2.9-3.2-6.7-2.9-10.2,0-1.6.5-3.2,1.2-4.6,2.2-4.3,6.1-7.4,10.3-8.5,5.2-1.3,11.1,0,15.2,2.8,3.1,2.3,4.8,5.4,5.1,9,.1,1.7-.1,3.6-.8,5.5-1.6,4.9-6.2,8.7-12.2,10.3-1.5.4-3.2.6-4.9.6h0ZM202.3,118.9c-1.2,0-2.3,0-3.4.4-3.1.8-5.9,3.1-7.6,6.3-.5.9-.7,1.9-.8,2.9h0c-.2,2.5.6,5.2,2.1,7.3,2.7,3.6,7.7,3.8,11.4,2.8,4.6-1.2,8.1-4,9.3-7.5.5-1.4.6-2.7.6-3.9-.2-2.9-1.9-4.8-3.3-5.9-2.2-1.6-5.2-2.5-8.2-2.5h-.1ZM188.4,128.4h0Z"/>
          </g>
          <circle cx="200" cy="124" r="2.2" style="fill: #fff;"/>
          <path d="M219.1,126.9c-2.7,0-5-1.6-5.3-1.9-.9-.7-1.1-2-.4-3,.7-.9,2-1.1,3-.4.5.3,2.1,1.3,3.2,1,.6-.2,1.1-.8,1.5-1.8.5-1.1,1.7-1.6,2.8-1.1s1.6,1.7,1.1,2.8c-1.2,2.8-3,3.8-4.4,4.2-.5,0-1.1.2-1.6.2h0Z"/>
        </g>
        <path d="M191.1,99.8c-3.3,1.8-5.9,4.9-6.8,8.5-.2.7-.3,1.5-.1,2.2.5,2.2,3.2,3.1,5.4,2.7,4.5-.7,20.2-4.7,17.9-11.4-2.1-6.2-12.2-4.3-16.4-2.1h0Z" style="fill: #fff;"/>
      </g>
      <g>
        <g>
          <g>
            <g>
              <path d="M149.9,128.4c.3,3.1-.7,6.3-2.5,8.7-3.2,4.3-8.9,4.8-13.6,3.6-4.6-1.2-9.2-4.2-10.7-8.9-.6-1.7-.8-3.3-.7-4.8h9.7c-.2,3.2,2,6.4,5.2,6.9s6.4-2.6,5.8-5.7c2.3.1,4.6.1,6.9,0v.2Z" style="fill: #c07a00;"/>
              <path d="M148.9,124.7c.6,1.2,1,2.5,1,3.8-2.3.1-4.6.1-6.9,0,.5,3.1-2.7,6.1-5.8,5.7s-5.4-3.7-5.2-6.9h-9.7c.5-8,10-11.8,17.6-9.9,3.9,1,7.1,3.9,8.9,7.4h.1Z" style="fill: #522500;"/>
            </g>
            <path d="M138.1,143.4c-1.7,0-3.3-.2-4.9-.6-6.1-1.6-10.6-5.4-12.2-10.3-.6-2-.9-3.8-.8-5.6.2-3.6,2-6.7,5.1-9,4-3,10-4.1,15.2-2.8,4.3,1,8.1,4.2,10.3,8.5.7,1.4,1.2,3,1.3,4.6.3,3.5-.8,7.3-3,10.2-2.7,3.7-6.9,5-11,5h0ZM136,118.9c-3,0-6,.9-8.2,2.5-1.4,1.1-3.2,2.9-3.3,5.9,0,1.2,0,2.5.6,4,1.4,4.1,5.7,6.5,9.3,7.5,3.8,1,8.8.7,11.4-2.8,1.6-2.1,2.4-4.8,2.1-7.3h0c0-1-.3-2-.8-2.9-1.7-3.2-4.5-5.6-7.6-6.3-1.1-.3-2.3-.4-3.4-.4v-.2Z"/>
          </g>
          <circle cx="138.3" cy="124" r="2.2" style="fill: #fff;"/>
          <path d="M119.2,126.9c-.5,0-1.1,0-1.6-.2-1.3-.4-3.2-1.4-4.4-4.2-.5-1.1,0-2.3,1.1-2.8s2.3,0,2.8,1.1c.4,1,.9,1.6,1.5,1.8,1.2.3,2.7-.6,3.2-1,.9-.7,2.3-.5,3,.4s.5,2.2-.4,2.9c-.3.2-2.6,1.9-5.3,1.9h.1Z"/>
        </g>
        <path d="M147.2,99.8c3.3,1.8,5.9,4.9,6.8,8.5.2.7.3,1.5.1,2.2-.5,2.2-3.2,3.1-5.4,2.7-4.5-.7-20.2-4.7-17.9-11.4,2.1-6.2,12.2-4.3,16.4-2.1h0Z" style="fill: #fff;"/>
      </g>
      <g>
        <path d="M185.4,167.7c-9.8-7.7-24.3-8.8-32.5,1.9.4,1.7,0,2.5.1,4.2.2,1.2,1.2,2.1,2.3,2.5s2.3.4,3.5.4h26.5c.4,0,.9,0,1.2-.3s.2-.6.3-.9c0-2.5.6-6.3-1.4-7.8h0Z" style="fill: #ad2b31;"/>
        <path d="M158.6,178.9c-1.2,0-2.6,0-4-.6-2-.7-3.4-2.4-3.6-4.2-.1-1,0-1.8,0-2.4v-1.7c-.1-.6,0-1.3.4-1.8,3.7-4.8,8.8-7.8,14.8-8.5,7-.9,14.6,1.4,20.7,6.2h0c2.5,2,2.4,5.7,2.2,8.4v1.2c0,.4,0,1.4-.8,2.3-.9,1-2.2,1.1-2.7,1.1h-27ZM155.1,170.2v3.3c0,.3.4.6.9.8.8.3,1.8.3,2.8.3h25.9v-.5c0-1.6.2-4.2-.6-4.9-5.2-4.1-11.8-6.1-17.6-5.3-4.5.6-8.4,2.7-11.4,6.2h0Z"/>
      </g>
      <g>
        <g>
          <path d="M75.9,227.9c-1.2-4.7-.9-10.7,3.3-13.2,3.7-2.2,8.4-.6,12.1,1.7-.8-4.8.8-10.2,4.9-12.7s10.7-.6,11.8,4.1c.8-4.9,7.2-7.3,11.6-5.3,4.5,2,6.9,7.1,7.4,12,1.9-3.1,6.5-3.7,9.6-1.8s4.7,5.7,4.6,9.3c0,3.6-1.5,7.1-3.4,10.1-7,11.5-20.2,18.7-33.5,19.2-13.8.6-25-10.2-28.4-23.4h0Z" style="fill: #9d4810;"/>
          <path d="M103.3,253.4c-13.4,0-25.7-10.3-29.5-25h0c-1.3-5.2-1-12.3,4.3-15.5,3-1.8,6.8-1.8,10.9,0,.3-4.2,2.1-8.6,6.1-11,2.7-1.7,6.4-1.9,9.6-.6,1.2.5,2.3,1.2,3.1,2.1.8-.9,1.7-1.7,2.9-2.3,3.1-1.6,6.8-1.8,9.8-.5,4.3,1.9,6.8,5.9,7.9,9.9,2.8-1.4,6.4-1.4,9.3.3,3.5,2.1,5.7,6.4,5.6,11.1,0,3.5-1.3,7.2-3.7,11.2-7.2,11.9-20.7,19.6-35.2,20.2h-1.1ZM77.9,227.4c2.9,11.2,12.8,22.4,26.3,21.8,12.9-.5,25.4-7.7,31.8-18.2,2-3.4,3.1-6.3,3.1-9.1s-1.3-6.1-3.6-7.4c-2.2-1.4-5.5-.8-6.7,1.1-.5.8-1.4,1.2-2.3.9-.9-.2-1.5-1-1.6-1.9-.3-3.6-2.1-8.4-6.1-10.3-1.8-.8-4.2-.7-6.1.3-.9.5-2.3,1.5-2.6,3.3-.2,1-1,1.7-2,1.8-1,0-1.9-.6-2.1-1.6-.4-1.8-2-2.7-2.9-3.1-1.9-.8-4.2-.7-5.8.3-3.6,2.2-4.6,7-3.9,10.6,0,.8-.2,1.6-.9,2.1-.7.5-1.6.5-2.3,0-1.9-1.2-6.6-3.6-9.9-1.7-3.1,1.8-3.4,6.8-2.3,10.8h0v.3Z"/>
        </g>
        <path d="M100.5,227.9c-1.3,1.9-1.9,4.3-1.8,6.7,0,2.3.7,4.8,2.4,6.4,1.7,1.7,4.2,2.2,6.6,2.3,3.7,0,7.6-1.4,9.5-4.6,6.3-10.2-10.1-20.5-16.8-10.8h.1Z" style="fill: #e18082;"/>
        <path d="M81.4,221.9c-.7,1-1,2.2-.9,3.4,0,1.2.4,2.4,1.2,3.3.9.8,2.2,1.1,3.4,1.1,1.9,0,3.9-.7,4.9-2.3,3.2-5.2-5.1-10.4-8.5-5.5h0Z" style="fill: #e18082;"/>
        <path d="M97.3,211.3c-.7,1-1,2.2-.9,3.4,0,1.2.4,2.4,1.2,3.3.9.8,2.2,1.1,3.4,1.1,1.9,0,3.9-.7,4.9-2.3,3.2-5.2-5.1-10.4-8.5-5.5h0Z" style="fill: #e18082;"/>
        <path d="M113.1,210.2c-.7,1-1,2.2-.9,3.4,0,1.2.4,2.4,1.2,3.3.9.8,2.2,1.1,3.4,1.1,1.9,0,3.9-.7,4.9-2.3,3.2-5.2-5.1-10.4-8.5-5.5h0Z" style="fill: #e18082;"/>
        <path d="M128.2,219.7c-.7,1-1,2.2-.9,3.4,0,1.2.4,2.4,1.2,3.3.9.8,2.2,1.1,3.4,1.1,1.9,0,3.9-.7,4.9-2.3,3.2-5.2-5.1-10.4-8.5-5.5h0Z" style="fill: #e18082;"/>
      </g>
    </g>
  </g>
</svg>