<svg id="레이어_1" data-name="레이어 1" xmlns="http://www.w3.org/2000/svg" viewBox="0 0 220 280"><defs><style>.cls-1{fill:#fff;}.cls-2,.cls-4{fill:#00a2fc;}.cls-2,.cls-5{fill-rule:evenodd;}.cls-3{fill:#ffbcb8;}.cls-6{fill:#6e2e00;}</style></defs><path class="cls-1" d="M194.06,159.12s-7-.39-11.36-3.62a90,90,0,0,0,0-16.9,8.82,8.82,0,0,1,6.65-9.25c4.4-1,10.29,1.76,12.8,4.55,3.51,3.9,5.1,10,5.75,14.94a41.92,41.92,0,0,1,.38,4.61C205.64,156.47,201.21,159.47,194.06,159.12Z"/><path class="cls-2" d="M200.92,169c-3.4,2.13-7.94,2-11.75.45-6.11-2.43-7.11-8-6.63-12.31.06-.54.11-1.07.16-1.61,4.36,3.23,11.36,3.62,11.36,3.62,7.15.35,11.58-2.65,14.21-5.67C208.41,159.36,207,165.18,200.92,169Z"/><path d="M194.88,171.84a16.6,16.6,0,0,1-6.21-1.26c-5.42-2.16-8.12-7.12-7.4-13.61a89.77,89.77,0,0,0,.15-18.25A10,10,0,0,1,189,128.14c4.82-1.06,11.15,1.69,14.06,4.92h0c3.88,4.31,5.43,10.87,6.06,15.62.89,6.56,1.08,15.93-7.58,21.35A12.49,12.49,0,0,1,194.88,171.84Zm-3.64-41.44a8.05,8.05,0,0,0-1.66.17,7.52,7.52,0,0,0-5.67,7.93,91.1,91.1,0,0,1-.16,18.75c-.34,3.1,0,8.66,5.85,11,3.77,1.53,7.84,1.4,10.63-.35,7.34-4.6,7.29-12.52,6.42-18.9-.47-3.6-1.81-10.24-5.44-14.27h0A15.1,15.1,0,0,0,191.24,130.4Z"/><path class="cls-1" d="M29.4,159.12s7-.39,11.36-3.62a90,90,0,0,1,0-16.9,8.82,8.82,0,0,0-6.65-9.25c-4.4-1-10.29,1.76-12.8,4.55-3.5,3.9-5.1,10-5.75,14.94a41.92,41.92,0,0,0-.38,4.61C17.82,156.47,22.25,159.47,29.4,159.12Z"/><path class="cls-2" d="M22.54,169c3.4,2.13,7.94,2,11.75.45,6.11-2.43,7.12-8,6.63-12.31-.06-.54-.11-1.07-.16-1.61-4.36,3.23-11.36,3.62-11.36,3.62-7.15.35-11.58-2.65-14.21-5.67C15.05,159.36,16.51,165.18,22.54,169Z"/><path d="M28.58,171.84A12.49,12.49,0,0,1,21.91,170c-8.66-5.42-8.47-14.79-7.58-21.36.62-4.73,2.18-11.28,6.06-15.61h0c2.91-3.23,9.24-6,14-4.93a10.07,10.07,0,0,1,7.63,10.57A89.24,89.24,0,0,0,42.19,157c.74,6.48-2,11.45-7.41,13.61A16.51,16.51,0,0,1,28.58,171.84Zm-6.33-37.1c-3.63,4-5,10.67-5.44,14.26-.87,6.39-.92,14.31,6.42,18.91,2.79,1.75,6.86,1.88,10.62.35,5.92-2.35,6.21-7.91,5.86-11a91.28,91.28,0,0,1-.15-18.77,7.54,7.54,0,0,0-5.71-7.92c-3.73-.82-9.22,1.53-11.6,4.18Z"/><g id="레이어_3" data-name="레이어 3"><path class="cls-1" d="M152.64,195.67a20,20,0,0,1,5.8.86,55.93,55.93,0,0,0,8.75-6.63c-17.78-9.92-40.89,4-61.19,2.1-17-2-34-10-51-3a5.05,5.05,0,0,0-2.3.69,55.83,55.83,0,0,0,9.39,7.08,19.82,19.82,0,0,1,6.48-1.1,19.29,19.29,0,0,1,17.11,10.08,121.47,121.47,0,0,0,24.43,2.39h0a120.19,120.19,0,0,0,25.58-2.67A19.27,19.27,0,0,1,152.64,195.67Z"/><path class="cls-3" d="M68.57,195.67a19.82,19.82,0,0,0-6.48,1.1,74.55,74.55,0,0,0,23.59,9A19.29,19.29,0,0,0,68.57,195.67Z"/><path class="cls-3" d="M152.64,195.67a19.28,19.28,0,0,0-16.95,9.78,73.68,73.68,0,0,0,22.75-8.92A20,20,0,0,0,152.64,195.67Z"/><path class="cls-4" d="M186.48,137.37c0-47.87-33.9-68.94-76.46-69h0c-42.51,0-76.37,21.13-76.37,69,0,24.32,7.2,41.16,19.05,52.3A4.91,4.91,0,0,1,55,189c17-7,34,1,51,3,20.3,1.93,43.41-12,61.19-2.1C179.19,178.76,186.48,161.86,186.48,137.37Z"/><path d="M110.14,209.1c-35.46-.14-77.72-12.75-77.72-72,0-44,29-70.25,77.62-70.25s77.71,26.33,77.71,70.25C187.75,184,160.91,208.86,110.14,209.1ZM110,69.35c-47,0-75.12,25.33-75.12,67.75,0,57.19,40.9,69.36,75.21,69.5,34.27-.16,75.12-12.35,75.12-69.5C185.25,94.74,157.13,69.42,110,69.35Z"/></g><g id="레이어_4" data-name="레이어 4"><path d="M111.19,192.7a108.19,108.19,0,0,0,13.09-1c3.84-.54,7.53-1.24,11.1-1.92,4.15-.78,8.43-1.6,12.88-2.13,7-.85,13.28-1.18,18.84,3a10.94,10.94,0,0,0,1.88-1.72c-6.38-5-13.59-4.62-21-3.72-4.53.54-8.86,1.36-13,2.16-3.54.67-7.21,1.36-11,1.89a105.51,105.51,0,0,1-12.68,1h-1.43a106.34,106.34,0,0,1-12.73-1c-3.77-.53-7.44-1.22-11-1.89-4.19-.8-8.51-1.62-13-2.16-7.43-.9-14.64-1.27-21,3.72A9.91,9.91,0,0,0,54,190.65c5.56-4.14,11.85-3.81,18.84-3,4.44.53,8.73,1.35,12.87,2.13,3.58.68,7.27,1.38,11.11,1.92a108.75,108.75,0,0,0,13,1Z"/><path class="cls-5" d="M113.69,209.91c0,1.62-1.7,2.92-3.83,2.92s-3.84-1.3-3.84-2.92,1.71-2.92,3.84-2.92,3.83,1.32,3.83,2.92"/></g><path class="cls-1" d="M97.87,139.88c1.71,10.34-11.23,17.28-28.19,19.38s-28.93,2.41-31.06-9.67c-2.42-13.69,11.51-18.91,28.46-21S96.3,130.43,97.87,139.88Z"/><path class="cls-6" d="M63,152.43a5.28,5.28,0,0,0-2.94-1,5,5,0,0,0,3.37-2.19,5.7,5.7,0,0,0-1.52-7.68,5.34,5.34,0,0,0-3.75-1,5,5,0,0,0,3-2c1.64-2.47.13-6.06-2.35-7.84a3.94,3.94,0,0,0-.72-.34,51.49,51.49,0,0,0-12.25,4.83c-6.53,3.24-9,11.39-5.61,18.25s11.5,9.82,18.07,6.62c1.94-.93,5.36-.93,8-1.66a6.68,6.68,0,0,0-3.31-6"/><path d="M55.57,161.64c-9.71,0-16.55-2.57-18.18-11.83a14.47,14.47,0,0,1,2.39-11.55c4.14-5.6,13-9.17,27.15-10.91,18.2-2.24,30.54,2.48,32.17,12.32h0A11.76,11.76,0,0,1,96.75,149c-4.29,5.75-14.1,9.95-26.92,11.54A120.28,120.28,0,0,1,55.57,161.64Zm20-32.35a69,69,0,0,0-8.32.54c-13.41,1.65-21.73,4.9-25.44,9.91a11.92,11.92,0,0,0-1.94,9.63c1.81,10.26,11,11,29.68,8.65,12.14-1.5,21.33-5.35,25.22-10.55a9.43,9.43,0,0,0,1.89-7.39h0C95.49,133.17,87.64,129.29,75.55,129.29Z"/><path class="cls-1" d="M152.53,128.59c16.95,2.09,30.88,7.31,28.46,21-2.13,12.08-14.1,11.77-31.06,9.67s-29.9-9-28.19-19.38C123.31,130.43,135.58,126.5,152.53,128.59Z"/><path class="cls-6" d="M156.61,152.43a6.68,6.68,0,0,0-3.31,6c2.65.73,6.07.73,8,1.66,6.57,3.2,14.68.24,18.07-6.62s.92-15-5.61-18.25a51.65,51.65,0,0,0-12.25-4.83,3.4,3.4,0,0,0-.72.34c-2.48,1.78-4,5.37-2.35,7.84a5,5,0,0,0,3,2,5.33,5.33,0,0,0-3.75,1,5.69,5.69,0,0,0-1.52,7.68,5,5,0,0,0,3.37,2.19,5.25,5.25,0,0,0-2.94,1"/><path d="M149.77,160.5c-12.81-1.59-22.62-5.79-26.92-11.54a11.8,11.8,0,0,1-2.35-9.28h0c1.64-9.84,14-14.56,32.18-12.32,14.12,1.74,23,5.31,27.14,10.91a14.47,14.47,0,0,1,2.4,11.55c-1.64,9.26-8.48,11.83-18.19,11.83A120.61,120.61,0,0,1,149.77,160.5ZM123,140.08h0a9.39,9.39,0,0,0,1.89,7.39c3.88,5.2,13.08,9.05,25.22,10.55,18.67,2.31,27.87,1.61,29.67-8.65a11.88,11.88,0,0,0-1.94-9.63c-3.71-5-12-8.26-25.44-9.91a68.93,68.93,0,0,0-8.31-.54C132,129.29,124.12,133.17,123,140.08Z"/></svg>