<?xml version="1.0" encoding="utf-8"?>
<!-- Generator: Adobe Illustrator 26.5.0, SVG Export Plug-In . SVG Version: 6.00 Build 0)  -->
<svg version="1.1" id="레이어_5" xmlns="http://www.w3.org/2000/svg" xmlns:xlink="http://www.w3.org/1999/xlink" x="0px"
	 y="0px" viewBox="0 0 360 30" style="enable-background:new 0 0 360 30;" xml:space="preserve">
<g>
	<path style="fill:#0085B7;" d="M352.8,1.9c-4.4-1-8.9-1.6-13.4-1.6H86.5H20.6c-4.5,0-9,0.5-13.4,1.6l0,0c-4,1-6.9,2.6-6.9,6.7v12.6
		c0,4.1,2.9,6,6.9,7l0,0c4.4,1,8.9,1.6,13.4,1.6h65.9h252.9c4.5,0,9-0.5,13.4-1.6l0,0c4-1,6.9-2.9,6.9-7V8.6
		C359.7,4.4,356.9,2.8,352.8,1.9L352.8,1.9z"/>
	<path style="fill:#0097BD;" d="M354.3,26.9H5.8c-3.1,0-5.5-2.5-5.5-5.5l0-12.7c0-3.1,2.5-5.5,5.5-5.5l348.4,0
		c3.1,0,5.5,2.5,5.5,5.5v12.7C359.8,24.4,357.3,26.9,354.3,26.9z"/>
	<path style="fill:#00CFFF;" d="M359,16.5H1c-0.5,0-0.9-0.4-0.9-0.9l0-7.7c0-0.5,0.4-0.9,0.9-0.9H359c0.5,0,0.9,0.4,0.9,0.9v7.7
		C359.8,16.1,359.5,16.5,359,16.5z"/>
	<g>
		<path d="M342.3,4.4c-4-0.7-8.2-1.1-12.3-1.1H86.4H29.8c-4.1,0-8.3,0.4-12.3,1.1l0,0c-3.7,0.7-6.3,3.2-6.3,6.1v8.9
			c0,2.9,2.6,5.5,6.3,6.1l0,0c4,0.7,8.2,1.1,12.3,1.1h56.6H330c4.1,0,8.3-0.4,12.3-1.1v0c3.7-0.7,6.3-3.2,6.3-6.1v-8.9
			C348.6,7.6,346,5.1,342.3,4.4L342.3,4.4z"/>
		<path d="M330,27H29.8c-4.2,0-8.3-0.4-12.4-1.1c-3.9-0.7-6.6-3.4-6.6-6.5v-8.9c0-3.1,2.7-5.8,6.6-6.5c4-0.7,8.2-1.1,12.4-1.1H330
			c4.2,0,8.3,0.4,12.4,1.1h0c3.9,0.7,6.6,3.4,6.6,6.5v8.9c0,3.1-2.7,5.8-6.6,6.5C338.3,26.7,334.2,27,330,27z M29.8,3.7
			c-4.1,0-8.2,0.4-12.2,1.1c-3.5,0.7-6,3-6,5.8v8.9c0,2.8,2.5,5.1,6,5.8c4,0.7,8.1,1.1,12.2,1.1H330c4.1,0,8.2-0.4,12.2-1.1
			c3.5-0.7,6-3,6-5.8v-8.9c0-2.8-2.5-5.1-6-5.8c-4-0.7-8.1-1.1-12.2-1.1H29.8z"/>
	</g>
	<path style="fill:#00BF00;" d="M27.3,24.6c-3.4,0-6.8-0.4-10.1-1.1c-2.2-0.5-3.8-2.1-3.8-3.9v-8.9c0-1.8,1.6-3.4,3.8-3.9
		c3.3-0.7,6.7-1.1,10.1-1.1h248c3.4,0,6.8,0.4,10.1,1.1c2.2,0.5,3.8,2.1,3.8,3.9v8.9c0,1.8-1.6,3.4-3.8,3.9
		c-3.3,0.7-6.7,1.1-10.1,1.1H27.3z"/>
	<path style="fill:#00E800;" d="M33.2,22.3c-3.2,0-6.3-0.3-9.4-0.8c-2-0.4-3.5-1.6-3.5-3v-6.7c0-1.4,1.5-2.6,3.5-3
		C26.9,8.3,30,8,33.2,8h236.3c3.2,0,6.3,0.3,9.4,0.8c2,0.4,3.5,1.6,3.5,3v6.7c0,1.4-1.5,2.6-3.5,3c-3.1,0.5-6.2,0.8-9.4,0.8H33.2z"
		/>
	<rect x="20.3" y="11.8" style="fill:#00FF00;" width="262.1" height="3.4"/>
	<path d="M339.4,30H20.6c-4.5,0-9.1-0.5-13.5-1.6C2.3,27.3,0,24.9,0,21.1V8.6c0-4.7,3.6-6.2,7.1-7c4.4-1,9-1.6,13.5-1.6h318.7
		c4.5,0,9.1,0.5,13.5,1.6c3.5,0.8,7.1,2.3,7.1,7v12.6c0,3.8-2.3,6.1-7.1,7.3C348.5,29.5,343.9,30,339.4,30z M20.6,0.6
		c-4.5,0-9,0.5-13.4,1.6c-4.7,1.1-6.7,3-6.7,6.4v12.6c0,3.5,2.1,5.6,6.7,6.7c4.4,1,8.9,1.6,13.4,1.6h318.7c4.5,0,9-0.5,13.4-1.6
		c4.6-1.1,6.7-3.2,6.7-6.7V8.6c0-3.4-1.9-5.3-6.7-6.4c-4.4-1-8.9-1.6-13.4-1.6H20.6z"/>
</g>
</svg>
