<?xml version="1.0" encoding="utf-8"?>
<!-- Generator: Adobe Illustrator 24.1.1, SVG Export Plug-In . SVG Version: 6.00 Build 0)  -->
<svg version="1.1" id="Layer_1" xmlns="http://www.w3.org/2000/svg" xmlns:xlink="http://www.w3.org/1999/xlink" x="0px" y="0px"
	 viewBox="0 0 90 240" style="enable-background:new 0 0 90 240;" xml:space="preserve">
<g>
	<path style="fill:#6B75C5;" d="M54.16,68.05c-0.54,0.44-1.19,0.56-1.8,0.3c-1.02-0.43-1.71-1.77-1.86-3.57
		c-0.3-3.86-2-6.94-3.5-8.98c0.54,0.23,1.01,0.41,1.35,0.54c0.74,0.32,1.41,0.44,2,0.44c0.96,0,1.73-0.32,2.27-0.68
		c0.5-0.33,0.92-0.75,1.26-1.23c0.2,1.71,0.57,4.02,1.25,7.12C56.03,66.1,54.61,67.66,54.16,68.05z"/>
	<g>
		<path style="fill:#6B75C5;" d="M39.22,51.53c-1.92,0.54-3.06,0.84-3.14,0.86c-0.02,0-0.02,0-0.03,0
			c-0.2,0.06-19.85,5.89-27.78-0.46c-2.4-1.92-3.5-4.87-3.21-8.74c0.38-5.23,2.18-8.66,5.38-10.24c1.5-0.74,3.23-1.04,5.08-1.04
			c9.68,0,22.64,8.5,22.81,8.6c0.32,0.21,0.72,0.15,0.98-0.14c0.24-0.27,0.26-0.69,0-0.98c-0.09-0.12-9.86-11.71-8.18-22.24
			c0.71-4.46,3.41-8.14,8-10.95c3.11-1.88,5.6-2.22,7.45-0.99c5.54,3.68,5.06,19.64,4.22,29.32c-0.81-2.73-2.43-5.23-5.69-5.6
			c-1.61-0.2-2.49,0.5-2.96,1.1c-2.1,2.73-0.03,10.02,1.31,13.89c-1.28-0.75-3.02-1.47-4.95-1.38c-2.04,0.1-3.89,1.11-5.45,3
			c-1.14,1.37-1.44,2.58-0.9,3.6C33.01,50.86,36.2,51.4,39.22,51.53z"/>
		<path style="fill:#6B75C5;" d="M59.2,41.73c-0.47,1.2-1.47,2.27-2.76,3.21c-0.04-0.07-0.07-0.16-0.14-0.26
			c-0.42-0.68-1.25-1.04-2.51-1.13c-3.38-0.24-4.88,3.02-5.51,5.23c0,0,0,0,0,0.02c0,0,0,0,0,0.01c-0.04,0.13-0.07,0.27-0.11,0.39
			c-0.09-0.09-0.2-0.16-0.3-0.26c0-0.01-0.01-0.01-0.03-0.03c-1.82-1.5-4.73-2.79-7.88-1.22c-1.25,0.62-1.47,1.43-1.44,1.98
			c0,0.09,0.02,0.2,0.05,0.29c-2.52-0.16-4.64-0.62-5.12-1.52c-0.29-0.54,0.24-1.35,0.74-1.94c1.28-1.55,2.75-2.37,4.37-2.46h0.29
			c3.02,0,5.62,2.49,5.63,2.51c0.26,0.26,0.65,0.29,0.95,0.09s0.42-0.57,0.29-0.9c-1.82-4.56-4.07-12.6-2.39-14.79
			c0.21-0.29,0.62-0.65,1.59-0.53c5.86,0.71,5.06,11.05,5.02,11.7c0,0.02,0,0.03,0,0.03c-0.02,0.12,0,0.24,0.05,0.34
			c0.09,0.23,0.3,0.42,0.56,0.47c0.11,0.03,0.21,0.02,0.32,0c0.02,0,0.02,0,0.02,0c0.11-0.04,0.21-0.09,0.29-0.16
			c0.04-0.03,0.09-0.07,0.12-0.12c0.02,0,0.02,0,0.02-0.01c0.03-0.05,0.06-0.11,0.08-0.17c0.02-0.01,0.03-0.03,0.03-0.04
			c0.02-0.03,0.02-0.07,0.03-0.1c0.86-2.78,2.87-7.16,4.71-7.4c0.95-0.12,1.8,0.99,2.37,1.94C59.56,38.67,59.79,40.24,59.2,41.73z"
			/>
		<path style="fill:#6B75C5;" d="M84.94,27.92c-0.98,6.38-14.13,12.73-26.55,17.37c0.99-0.9,1.77-1.91,2.21-3.02
			c0.75-1.91,0.48-3.98-0.81-6.14c-1.16-1.94-2.45-2.82-3.84-2.66c-1.13,0.13-2.13,1.01-2.97,2.15c1.79-5.98,5.3-14.2,11.62-17.15
			c4.4-2.04,9.61-1.23,15.5,2.42C83.68,23.11,85.31,25.48,84.94,27.92z"/>
		<path style="fill:#FFFFFF;" d="M59.2,41.73c-0.47,1.2-1.47,2.27-2.76,3.21c-0.04-0.07-0.07-0.16-0.14-0.26
			c-0.42-0.68-1.25-1.04-2.51-1.13c-3.38-0.24-4.88,3.02-5.51,5.23c0,0,0,0,0,0.02c0,0,0,0,0,0.01c-0.04,0.13-0.07,0.27-0.11,0.39
			c-0.09-0.09-0.2-0.16-0.3-0.26c0-0.01-0.01-0.01-0.03-0.03c-1.82-1.5-4.73-2.79-7.88-1.22c-1.25,0.62-1.47,1.43-1.44,1.98
			c0,0.09,0.02,0.2,0.05,0.29c-2.52-0.16-4.64-0.62-5.12-1.52c-0.29-0.54,0.24-1.35,0.74-1.94c1.28-1.55,2.75-2.37,4.37-2.46h0.29
			c3.02,0,5.62,2.49,5.63,2.51c0.26,0.26,0.65,0.29,0.95,0.09s0.42-0.57,0.29-0.9c-1.82-4.56-4.07-12.6-2.39-14.79
			c0.21-0.29,0.62-0.65,1.59-0.53c5.86,0.71,5.06,11.05,5.02,11.7c0,0.02,0,0.03,0,0.03c-0.02,0.12,0,0.24,0.05,0.34
			c0.09,0.23,0.3,0.42,0.56,0.47c0.11,0.03,0.21,0.02,0.32,0c0.02,0,0.02,0,0.02,0c0.11-0.04,0.21-0.09,0.29-0.16
			c0.04-0.03,0.09-0.07,0.12-0.12c0.02,0,0.02,0,0.02-0.01c0.03-0.05,0.06-0.11,0.08-0.17c0.02-0.01,0.03-0.03,0.03-0.04
			c0.02-0.03,0.02-0.07,0.03-0.1c0.86-2.78,2.87-7.16,4.71-7.4c0.95-0.12,1.8,0.99,2.37,1.94C59.56,38.67,59.79,40.24,59.2,41.73z"
			/>
		<path style="fill:#FACB75;" d="M55.18,51.46c0.03-0.18,0.05-0.34,0.03-0.51C55.21,50.95,55.18,51.1,55.18,51.46z"/>
		<path style="fill:#584EC6;" d="M55.1,45.81c0,0.2-0.06,0.45-0.15,0.72c-0.11,0.39-0.27,0.83-0.44,1.23
			c-0.02,0.05-0.03,0.08-0.05,0.12c-0.06,0.17-0.14,0.33-0.2,0.5c-0.23,0.59-0.44,1.2-0.51,1.82c-0.03,0.2-0.05,0.39-0.05,0.59
			c0,0.32-0.03,0.68-0.11,1.02c-0.24,1.17-0.86,2.4-1.83,3.05c-0.83,0.53-1.79,0.57-2.87,0.1c0-0.01-0.02-0.01-0.03-0.01
			c-0.92-0.35-1.85-0.74-2.73-1.16c-0.72-0.32-1.43-0.66-2.07-1.01c-0.45-0.24-0.89-0.48-1.28-0.72c-0.3-0.17-0.57-0.33-0.83-0.51
			c-0.32-0.2-0.59-0.39-0.83-0.57c-0.45-0.35-0.78-0.68-0.95-0.95c-0.12-0.15-0.18-0.3-0.18-0.42c-0.02-0.23,0.42-0.47,0.6-0.57
			c0.81-0.41,1.59-0.57,2.33-0.57c1.23,0,2.3,0.47,3.14,1.01c0.02,0.02,0.02,0.03,0.03,0.03c0.57,0.38,1.04,0.8,1.37,1.13
			c0.33,0.33,0.51,0.57,0.54,0.62c0.18,0.24,0.48,0.35,0.78,0.27h0.03c0.29-0.1,0.5-0.33,0.53-0.65c0-0.02,0.04-0.38,0.17-0.9
			l0.02-0.02c0.11-0.48,0.29-1.11,0.53-1.76c0-0.01,0.02-0.01,0.02-0.03c0.62-1.58,1.73-3.24,3.6-3.11
			c1.02,0.06,1.28,0.32,1.35,0.42C55.09,45.56,55.12,45.68,55.1,45.81z"/>
		<path style="fill:#FACB75;" d="M80.88,19.61c-6.35-3.93-12.04-4.77-16.92-2.51c-5.86,2.73-9.4,9.35-11.47,15.11
			C53.19,22.17,53.1,7.78,47.4,3.98c-2.37-1.58-5.42-1.26-9.07,0.96c-4.99,3.03-7.91,7.07-8.71,11.98
			c-1.26,7.87,3.24,15.99,6.19,20.32c-5.93-3.38-18.38-9.4-26.04-5.65c-3.71,1.83-5.8,5.69-6.22,11.49
			c-0.32,4.38,0.96,7.76,3.78,10.02c3.12,2.51,7.75,3.3,12.4,3.3c8,0,16.08-2.37,16.73-2.55c0.36-0.09,1.97-0.51,4.4-1.22
			c0.83,0.57,1.77,1.13,2.75,1.62c0.66,0.6,4.91,4.68,5.38,10.65c0.2,2.42,1.22,4.17,2.79,4.84c0.39,0.16,0.81,0.26,1.22,0.26
			c0.75,0,1.49-0.27,2.12-0.8c1.65-1.38,2.21-4.19,1.47-7.54c-1.34-6.1-1.46-9.04-1.41-10.15v-0.05c0-0.36,0.03-0.51,0.03-0.51
			c0.02-0.06,0.02-0.1,0.02-0.16c0-0.72,0.36-1.61,0.69-2.48l0.23-0.59c13.48-4.84,29.13-12.01,30.29-19.58
			C86.89,25.05,85.03,22.18,80.88,19.61z M36.08,52.39c-0.02,0-0.02,0-0.03,0c-0.2,0.06-19.85,5.89-27.78-0.46
			c-2.4-1.92-3.5-4.87-3.21-8.74c0.38-5.23,2.18-8.66,5.38-10.24c1.5-0.74,3.23-1.04,5.08-1.04c9.68,0,22.64,8.5,22.81,8.6
			c0.32,0.21,0.72,0.15,0.98-0.14c0.24-0.27,0.26-0.69,0-0.98c-0.09-0.12-9.86-11.71-8.18-22.24c0.71-4.46,3.41-8.14,8-10.95
			c3.11-1.88,5.6-2.22,7.45-0.99c5.54,3.68,5.06,19.64,4.22,29.32c-0.81-2.73-2.43-5.23-5.69-5.6c-1.61-0.2-2.49,0.5-2.96,1.1
			c-2.1,2.73-0.03,10.02,1.31,13.89c-1.28-0.75-3.02-1.47-4.95-1.38c-2.04,0.1-3.89,1.11-5.45,3c-1.14,1.37-1.44,2.58-0.9,3.6
			c0.89,1.7,4.07,2.24,7.09,2.37C37.29,52.08,36.15,52.38,36.08,52.39z M42.8,52.06c-0.3-0.17-0.57-0.33-0.83-0.51
			c-0.02,0-0.02-0.02-0.03-0.03c-0.3-0.18-0.57-0.36-0.8-0.54c-0.09-0.06-0.16-0.13-0.24-0.2c-0.33-0.27-0.57-0.53-0.71-0.75
			c-0.12-0.15-0.18-0.3-0.18-0.42c-0.02-0.23,0.42-0.47,0.6-0.57c0.81-0.41,1.59-0.57,2.33-0.57c1.23,0,2.3,0.47,3.14,1.01
			c0.02,0.02,0.02,0.03,0.03,0.03c0.26,0.18,0.48,0.36,0.71,0.53c0,0.02,0.02,0.02,0.02,0.02c0.26,0.2,0.47,0.4,0.65,0.59
			c0.33,0.33,0.51,0.57,0.54,0.62c0.18,0.24,0.48,0.35,0.78,0.27h0.03c0.29-0.1,0.5-0.33,0.53-0.65c0-0.02,0.04-0.38,0.17-0.9
			l0.02-0.02c0.06-0.26,0.14-0.57,0.23-0.89h0.02c0.08-0.29,0.18-0.57,0.29-0.87c0-0.01,0.02-0.01,0.02-0.03
			c0.62-1.58,1.73-3.24,3.6-3.11c1.02,0.06,1.28,0.32,1.35,0.42c0.05,0.07,0.08,0.2,0.06,0.33c0,0.2-0.06,0.45-0.15,0.72
			c-0.03,0.09-0.06,0.2-0.09,0.29c-0.06,0.21-0.14,0.42-0.23,0.62c-0.03,0.12-0.07,0.23-0.12,0.33c-0.02,0.05-0.03,0.08-0.05,0.12
			c-0.06,0.17-0.14,0.33-0.2,0.5c-0.23,0.59-0.44,1.2-0.51,1.82c-0.03,0.2-0.05,0.39-0.05,0.59c0,0.06,0,0.13-0.02,0.21
			c0,0.26-0.03,0.54-0.09,0.81c-0.24,1.17-0.86,2.4-1.83,3.05c-0.83,0.53-1.79,0.57-2.87,0.1c0-0.01-0.02-0.01-0.03-0.01
			c-0.92-0.35-1.85-0.74-2.73-1.16c-0.36-0.15-0.71-0.32-1.05-0.5c-0.35-0.16-0.69-0.33-1.02-0.51
			C43.63,52.54,43.19,52.3,42.8,52.06z M54.16,68.05c-0.54,0.44-1.19,0.56-1.8,0.3c-1.02-0.43-1.71-1.77-1.86-3.57
			c-0.3-3.86-2-6.94-3.5-8.98c0.54,0.23,1.01,0.41,1.35,0.54c0.74,0.32,1.41,0.44,2,0.44c0.96,0,1.73-0.32,2.27-0.68
			c0.5-0.33,0.92-0.75,1.26-1.23c0.2,1.71,0.57,4.02,1.25,7.12C56.03,66.1,54.61,67.66,54.16,68.05z M56.44,44.94
			c-0.04-0.07-0.07-0.16-0.14-0.26c-0.42-0.68-1.25-1.04-2.51-1.13c-3.38-0.24-4.88,3.02-5.51,5.23c0,0,0,0,0,0.02c0,0,0,0,0,0.01
			c-0.04,0.13-0.07,0.27-0.11,0.39c-0.09-0.09-0.2-0.16-0.3-0.26c0-0.01-0.01-0.01-0.03-0.03c-1.82-1.5-4.73-2.79-7.88-1.22
			c-1.25,0.62-1.47,1.43-1.44,1.98c0,0.09,0.02,0.2,0.05,0.29c-2.52-0.16-4.64-0.62-5.12-1.52c-0.29-0.54,0.24-1.35,0.74-1.94
			c1.28-1.55,2.75-2.37,4.37-2.46h0.29c3.02,0,5.62,2.49,5.63,2.51c0.26,0.26,0.65,0.29,0.95,0.09s0.42-0.57,0.29-0.9
			c-1.82-4.56-4.07-12.6-2.39-14.79c0.21-0.29,0.62-0.65,1.59-0.53c5.86,0.71,5.06,11.05,5.02,11.7c0,0.02,0,0.03,0,0.03
			c-0.02,0.12,0,0.24,0.05,0.34c0.09,0.23,0.3,0.42,0.56,0.47c0.11,0.03,0.21,0.02,0.32,0c0.02,0,0.02,0,0.02,0
			c0.11-0.04,0.21-0.09,0.29-0.16c0.04-0.03,0.09-0.07,0.12-0.12c0.02,0,0.02,0,0.02-0.01c0.03-0.05,0.06-0.11,0.08-0.17
			c0.02-0.01,0.03-0.03,0.03-0.04c0.02-0.03,0.02-0.07,0.03-0.1c0.86-2.78,2.87-7.16,4.71-7.4c0.95-0.12,1.8,0.99,2.37,1.94
			c1.07,1.77,1.29,3.35,0.71,4.84C58.73,42.93,57.73,44,56.44,44.94z M84.94,27.92c-0.98,6.38-14.13,12.73-26.55,17.37
			c0.99-0.9,1.77-1.91,2.21-3.02c0.75-1.91,0.48-3.98-0.81-6.14c-1.16-1.94-2.45-2.82-3.84-2.66c-1.13,0.13-2.13,1.01-2.97,2.15
			c1.79-5.98,5.3-14.2,11.62-17.15c4.4-2.04,9.61-1.23,15.5,2.42C83.68,23.11,85.31,25.48,84.94,27.92z"/>
	</g>
</g>
<g>
	<path style="fill:#7EA32C;" d="M51.77,77.24c-1.13,0.36-2.16,0.26-3.17-0.29c-3.44-1.89-5.26-8.47-5.84-10.98
		C51.18,67.21,51.77,75.15,51.77,77.24z"/>
	<path style="fill:#7EA32C;" d="M61.45,62.84c-0.47,2.61-1.82,7.51-4.43,8.78c-1.1,0.53-2.33,0.39-3.75-0.41
		c0-1.04,0.21-3.93,2.18-6.02C56.84,63.74,58.85,62.95,61.45,62.84z"/>
	<path style="fill:#7EA32C;" d="M62.22,102.77c-2.94-1.02-5.57-4.4-6.43-5.57c-0.18-0.26-0.29-0.41-0.29-0.41
		c-0.14-0.2-0.36-0.33-0.59-0.35c-0.24-0.02-0.48,0.09-0.63,0.27c-0.02,0.02-0.03,0.03-0.03,0.05c-2.39,2.88-5.06,5.06-6.7,6.29
		c1.49-4.59,6.13-6.31,6.68-6.5c0.01-0.01,0.03-0.01,0.04-0.01c0.36-0.12,0.59-0.5,0.51-0.87c-0.08-0.33-0.36-0.56-0.68-0.57
		c-0.02-0.02-0.05-0.02-0.06-0.02h-0.08c-2.9,0.29-6.01-3.93-7.6-6.67c2.64,0.96,6.16,4.55,7.72,6.31c0.06,0.09,0.14,0.16,0.2,0.24
		c0.14,0.16,0.35,0.26,0.57,0.27c0.15,0,0.42-0.11,0.57-0.27c0.06-0.06,0.11-0.12,0.17-0.18c3.17-3.62,5.63-5.04,6.95-5.57
		c-1.23,3.78-6.64,6.17-6.7,6.19c-0.08,0.03-0.14,0.08-0.2,0.12c-0.18,0.16-0.29,0.41-0.26,0.66c0.03,0.23,0.15,0.42,0.35,0.53
		c0.08,0.06,0.17,0.1,0.27,0.12C59.02,97.36,61.21,100.83,62.22,102.77z"/>
	<path style="fill:#FACB75;" d="M58.07,95.95c2.19-1.28,5.9-3.95,6.22-7.76c0.02-0.21-0.06-0.44-0.23-0.59
		c-0.15-0.16-0.36-0.24-0.59-0.23c-0.15,0.01-3.32,0.36-8.03,5.36c-0.78-9.8-1.64-16.91-2-19.77c0.75,0.3,1.49,0.48,2.19,0.48
		c0.71,0,1.38-0.16,2.03-0.47c4.29-2.07,5.36-10.45,5.41-10.81c0.02-0.21-0.05-0.42-0.18-0.59c-0.15-0.15-0.35-0.24-0.56-0.26
		c-3.47-0.05-6.14,0.9-7.99,2.85c-2.1,2.22-2.51,5.12-2.58,6.59c-1.44-3.02-4.28-5.96-9.9-6.41c-0.24-0.02-0.47,0.07-0.62,0.26
		c-0.15,0.16-0.23,0.41-0.18,0.63c0.07,0.42,1.91,10.35,6.8,13.03c0.83,0.45,1.7,0.68,2.6,0.68c0.69,0,1.4-0.15,2.12-0.42
		c0.39,3.48,0.86,8.17,1.31,13.77c-2.15-2.25-6.07-5.81-8.95-5.63c-0.26,0.02-0.48,0.17-0.6,0.38c-0.12,0.21-0.14,0.48-0.03,0.71
		c0.17,0.32,3.29,6.59,7.31,8.38c-2.22,1.28-5.41,3.89-5.93,8.54c-0.05,0.29,0.09,0.57,0.35,0.72c0.12,0.07,0.26,0.12,0.39,0.12
		c0.15,0,0.29-0.04,0.41-0.12c0.18-0.12,3.95-2.52,7.57-6.52c2.63,38.14,3.18,106.41-22.37,136.88c-0.26,0.33-0.23,0.8,0.11,1.07
		c0.14,0.12,0.3,0.18,0.48,0.18c0.21,0,0.42-0.09,0.57-0.27c25.62-30.57,25.33-98.35,22.78-136.89c1.68,1.95,4.47,4.52,7.52,4.7
		c0.26,0.03,0.51-0.09,0.66-0.3c0.15-0.21,0.18-0.48,0.09-0.72C64.14,103.26,61.95,97.89,58.07,95.95z M48.6,76.96
		c-3.44-1.89-5.26-8.47-5.84-10.98c8.42,1.23,9.01,9.17,9.01,11.26C50.64,77.6,49.61,77.5,48.6,76.96z M55.45,65.2
		c1.4-1.46,3.41-2.25,6.01-2.36c-0.47,2.61-1.82,7.51-4.43,8.78c-1.1,0.53-2.33,0.39-3.75-0.41C53.27,70.18,53.48,67.29,55.45,65.2z
		 M55.79,97.2c-0.18-0.26-0.29-0.41-0.29-0.41c-0.14-0.2-0.36-0.33-0.59-0.35c-0.24-0.02-0.48,0.09-0.63,0.27
		c-0.02,0.02-0.03,0.03-0.03,0.05c-2.39,2.88-5.06,5.06-6.7,6.29c1.49-4.59,6.13-6.31,6.68-6.5c0.01-0.01,0.03-0.01,0.04-0.01
		c0.36-0.12,0.59-0.5,0.51-0.87c-0.08-0.33-0.36-0.56-0.68-0.57c-0.02-0.02-0.05-0.02-0.06-0.02h-0.08c-2.9,0.29-6.01-3.93-7.6-6.67
		c2.64,0.96,6.16,4.55,7.72,6.31c0.06,0.09,0.14,0.16,0.2,0.24c0.14,0.16,0.35,0.26,0.57,0.27c0.15,0,0.42-0.11,0.57-0.27
		c0.06-0.06,0.11-0.12,0.17-0.18c3.17-3.62,5.63-5.04,6.95-5.57c-1.23,3.78-6.64,6.17-6.7,6.19c-0.08,0.03-0.14,0.08-0.2,0.12
		c-0.18,0.16-0.29,0.41-0.26,0.66c0.03,0.23,0.15,0.42,0.35,0.53c0.08,0.06,0.17,0.1,0.27,0.12c2.99,0.54,5.18,4.01,6.19,5.95
		C59.28,101.75,56.65,98.37,55.79,97.2z"/>
</g>
</svg>
