<?xml version="1.0" encoding="utf-8"?>
<!-- Generator: Adobe Illustrator 22.0.1, SVG Export Plug-In . SVG Version: 6.00 Build 0)  -->
<svg version="1.1" id="레이어_1" xmlns="http://www.w3.org/2000/svg" xmlns:xlink="http://www.w3.org/1999/xlink" x="0px"
	 y="0px" viewBox="0 0 228 390" style="enable-background:new 0 0 228 390;" xml:space="preserve">
<style type="text/css">
	.st0{fill:#FFFFFF;}
	.st1{fill:#00A2E7;}
	.st2{fill:#C93F09;}
	.st3{fill:#D34A20;}
	.st4{fill:#E2DC0A;}
	.st5{fill:#673101;}
	.st6{fill:#008AC4;}
	.st7{fill:#DD9900;}
	.st8{fill:#C18100;}
	.st9{fill:#FFB400;}
	.st10{fill:#FFE4A9;}
</style>
<title>자산 8</title>
<g>
	<path class="st0" d="M101.1,239.6c0-2.8-2.3-5-5-5s-5,2.3-5,5V277h10.1V239.6z"/>
	<path class="st1" d="M101.1,312.3V277H91.1v35.3c-8.6,1.2-13.3,5.8-13.3,11.1c0,6.3,6.6,11.5,18.4,11.5s18.4-5.1,18.4-11.5
		C114.4,318,109.7,313.5,101.1,312.3z"/>
</g>
<g>
	<path class="st0" d="M135.1,239.6c0-2.8-2.3-5-5-5c-2.8,0-5,2.3-5,5V277h10.1V239.6z"/>
	<path class="st1" d="M135.1,312.3V277h-10.1v35.3c-8.6,1.2-13.3,5.8-13.3,11.1c0,6.3,6.6,11.5,18.4,11.5s18.4-5.1,18.4-11.5
		C148.5,318,143.8,313.5,135.1,312.3z"/>
</g>
<g>
	<polygon class="st2" points="151.9,345.2 76.1,345.2 66.7,331.6 161.3,331.6 	"/>
	<rect x="66.7" y="322.6" class="st3" width="94.6" height="8.8"/>
	<path class="st4" d="M88.8,345.1h15.7c2.6,0,4.7,2.1,4.7,4.7v5.4c0,2.6-2.1,4.7-4.7,4.7H88.8c-2.6,0-4.7-2.1-4.7-4.7v-5.4
		C84.1,347.2,86.2,345.1,88.8,345.1z"/>
	<path class="st4" d="M123.6,345.1h15.7c2.6,0,4.7,2.1,4.7,4.7v5.4c0,2.6-2.1,4.7-4.7,4.7h-15.7c-2.6,0-4.7-2.1-4.7-4.7v-5.4
		C118.9,347.2,121,345.1,123.6,345.1z"/>
</g>
<g>
	<path class="st0" d="M141.6,75.8l0.3-0.1c4.5-2.4,6.2-8.1,3.8-12.6c-1.9-3.6-1.5-8.9-1.3-10.5c0.4-1.5,1.3-3.8,2.6-4.3
		c3.1-1.2,10,1.9,13.7,4.4c4.2,2.9,9.9,1.9,12.8-2.3c0,0,0,0,0,0c2.9-4.2,1.9-10-2.3-12.9c-1.7-1.2-17.1-11.6-30.6-6.6
		c-4.9,1.8-11.3,6.3-14.2,17.3l-0.1,0.6c-0.3,1.3-2.3,13,3.1,23.2C131.7,76.3,137.2,78,141.6,75.8z"/>
	<path class="st5" d="M158.2,47c0.6-0.3,1.4-0.4,2.1-0.3c-0.9-0.3-1.7-1-2.1-1.9c-0.9-1.8-0.2-4.1,1.7-5c0.8-0.4,1.8-0.5,2.6-0.2
		c-0.8-0.3-1.5-0.9-1.9-1.7c-0.9-1.8-0.2-4.1,1.6-5c0,0,0,0,0,0c0.2-0.1,0.3-0.1,0.5-0.2c3,1.3,5.8,2.8,8.5,4.7
		c4.2,2.9,5.2,8.7,2.3,12.9c-2.9,4.2-8.6,5.3-12.8,2.4c0,0,0,0,0,0c-1.4-1-3-1.8-4.6-2.5C156.2,48.8,157,47.6,158.2,47z"/>
</g>
<g>
	<path class="st0" d="M88.5,75.1c-0.1,0-0.2-0.1-0.3-0.1c-4.7-1.9-7-7.3-5.1-12.1c1.5-3.8,0.5-9,0.1-10.6c-0.6-1.4-1.7-3.6-3.1-4
		c-3.2-0.8-9.8,3-13.1,5.9c-3.8,3.3-9.6,3-13-0.8c0,0,0,0,0-0.1c-3.3-3.9-3-9.7,0.8-13.1c1.6-1.4,15.7-13.4,29.6-10
		c5.1,1.2,11.9,5,16,15.6l0.2,0.6c0.4,1.3,3.8,12.7-0.5,23.4C98.4,74.4,93.2,76.7,88.5,75.1z"/>
	<path class="st5" d="M68.9,48.3c-0.7-0.2-1.4-0.3-2.1-0.1c0.9-0.4,1.6-1.2,1.9-2.1c0.7-1.9-0.3-4-2.2-4.8c-0.9-0.3-1.8-0.3-2.6,0.1
		c0.8-0.4,1.3-1.1,1.7-1.9c0.7-1.9-0.3-4.1-2.2-4.8c-0.2,0-0.4-0.1-0.5-0.1c-2.8,1.6-5.5,3.5-7.9,5.6c-3.8,3.4-4.1,9.2-0.8,13.1
		c3.3,3.8,9.1,4.3,12.9,0.9c0,0,0,0,0.1,0c1.3-1.1,2.8-2.1,4.3-3C71.1,49.9,70.2,48.7,68.9,48.3z"/>
</g>
<g>
	<path class="st0" d="M43.3,244.1c-3.8,0-7.2-2.9-8.5-7.5c-16.3-61,15.2-89.8,16.4-91c3.8-3.9,8.6-6.8,11.1-4.2c3.9,4,0.7,12-3,15.9
		c-0.9,1-19.9,26.3-7.5,72.6c1.5,5.7-1.1,11.8-5.8,13.6C45.2,243.9,44.3,244.1,43.3,244.1z"/>
	<path class="st6" d="M46.1,243.6c-0.9,0.3-1.8,0.5-2.8,0.5c-3.8,0-7.2-2.9-8.5-7.5c-4.8-18-5.4-33.2-3.9-45.7
		c5.7-0.9,11.5-0.5,17,1c-0.9,12.8,0.4,25.6,3.9,38C53.4,235.7,50.8,241.8,46.1,243.6z"/>
</g>
<g>
	<path class="st0" d="M185.5,244.1c3.8-0.1,7.2-3.1,8.3-7.6c15.1-61.3-17-89.4-18.2-90.6c-3.8-3.8-8.7-6.6-11.2-4
		c-3.8,4.1-0.5,12,3.3,15.8c1,1,20.4,25.9,9,72.5c-1.4,5.7,1.3,11.8,6,13.5C183.6,243.9,184.5,244.1,185.5,244.1z"/>
	<path class="st6" d="M182.7,243.6c0.9,0.3,1.8,0.5,2.8,0.5c3.8-0.1,7.2-3.1,8.3-7.6c4.4-18.1,4.8-33.3,3-45.8
		c-5.7-0.7-11.5-0.2-17,1.4c1.2,12.8,0.1,25.6-3.1,38C175.2,235.8,178,241.8,182.7,243.6z"/>
</g>
<path class="st0" d="M168.7,93c-0.9-25.6-19.9-35.8-35.8-39.4c-2-0.5-8.4-1.6-9.9-1.7c-3.8-0.4-7.6-0.6-11.4-0.5
	C82.5,51.7,58.9,73,58.2,99.3l0,0c0,0-5.1,41.9,42.5,49.5c3.8,0.6,7.6,0.8,11.5,0.8h34.1c16.9,0,31.6-16.1,31.6-33l0,0
	C177.9,106.8,175.9,98.6,168.7,93z"/>
<path class="st1" d="M113.4,48c-54.3-0.1-56.5,43.4-56.5,43.4v115.7c0,20.9,25.3,37.8,56.5,37.8s56.6-16.9,56.6-37.8V91.8
	C171.2,46.3,113.4,48,113.4,48z"/>
<g>
	<g>
		<path class="st7" d="M121.2,159.6c0,5.2-4.2,9.3-9.3,9.3c-5.2,0-9.3-4.2-9.3-9.3c0-5.2,4.2-9.3,9.3-9.3c0,0,0,0,0,0
			C117,150.3,121.2,154.4,121.2,159.6z"/>
		<path class="st8" d="M111.8,166.6c-3.9,0-7-3.1-7-7s3.1-7,7-7s7,3.1,7,7S115.7,166.6,111.8,166.6z"/>
	</g>
	<path class="st9" d="M117.9,154.3c0,3.3-2.6,6-5.9,6c0,0,0,0-0.1,0l0,0c-3.3,0-6-2.7-6-6.1v-39.6c0-3.3,2.7-6,6-6l0,0
		c3.3,0,6,2.7,6,6V154.3z"/>
	<path class="st9" d="M117.9,203.6c0,3.3-2.7,6-6,6l0,0c-3.3,0-6-2.7-6-6V164c0-3.3,2.7-6,6-6l0,0c3.3,0,6,2.7,6,6V203.6z"/>
	<path class="st10" d="M110.2,130.3c-1.3,0-2.3-1-2.3-2.3c-0.4-14.5,1-15.1,2.3-15.6c1.2-0.5,2.6,0.1,3.1,1.3
		c0.3,0.7,0.2,1.6-0.3,2.2c-0.2,0.6-0.7,3.1-0.4,11.9C112.5,129.2,111.5,130.2,110.2,130.3L110.2,130.3z"/>
</g>
</svg>
