<?xml version="1.0" encoding="utf-8"?>
<!-- Generator: Adobe Illustrator 26.5.0, SVG Export Plug-In . SVG Version: 6.00 Build 0)  -->
<svg version="1.1" id="레이어_5" xmlns="http://www.w3.org/2000/svg" xmlns:xlink="http://www.w3.org/1999/xlink" x="0px"
	 y="0px" viewBox="0 0 390 390" style="enable-background:new 0 0 390 390;" xml:space="preserve">
<g>
	<g>
		<g>
			<path style="fill:#86D145;" d="M362.5,184.9c-2.4,2.1-6.1,2.3-9.1,1.1c-3.9-1.6-6.5-4.7-8.8-8.1c-5,4.4-8.8,9.6-13.4,14.2
				c-0.6,0.6-1.3,1.3-2.2,1.4c-2.7,0.6-7.5-1.7-9.9-2.6c-3.6-1.3-7.1-3-10.2-5.4c-4.9-3.7-8.6-9.4-8.6-15.5c0-1.8,0.3-3.7,1.3-5.3
				c0.8-1.4,2-2.5,3.3-3.5c1.7-1.4,3.4-2.7,5.1-4c1.6-1.2,3.5-2.3,5.5-2.1c1.8,0.2,3.2,1.5,4.4,2.8c2,2,3.9,4.1,5.7,6.3
				c1.2,1.4,2.1,3,3.2,4.5c1.1,1.5,2.5,2.9,3.8,4.2c2.4-2.4,5.5-4.8,9-5.2c3.5-0.4,6.6-2.6,10.3-2.9c2.9-0.3,6-0.5,8.5,1
				c1,0.6,1.9,1.5,3,2c1.6,0.7,3.5,0.5,5.1,1.2c2.5,1,3.9,4.1,3.4,6.8c-0.4,2.7-2.3,5-4.5,6.6C366.1,183.3,363.8,183.8,362.5,184.9z
				"/>
			<path d="M328.1,194.8c-2.4,0-5.5-1.2-7.9-2.2c-0.6-0.2-1.1-0.4-1.6-0.6c-4.3-1.5-7.7-3.4-10.5-5.5c-5.6-4.3-9-10.5-9-16.4
				c0-2.3,0.5-4.3,1.4-5.9c0.9-1.6,2.2-2.7,3.5-3.8c1.7-1.4,3.4-2.8,5.2-4.1c1.9-1.4,4-2.6,6.3-2.3c2.1,0.3,3.7,1.8,5.1,3.2
				c2,2,3.9,4.2,5.8,6.3c0.7,0.8,1.3,1.8,1.9,2.6c0.4,0.6,0.9,1.3,1.3,1.9c0.8,1,1.8,2.1,2.9,3.3c2.2-2,5.2-4.3,8.8-4.8
				c1.6-0.2,3-0.8,4.6-1.4c1.8-0.7,3.6-1.4,5.7-1.6c2.6-0.2,6.3-0.6,9.2,1.2c0.5,0.3,0.9,0.6,1.3,0.9c0.5,0.4,1,0.8,1.6,1
				c0.7,0.3,1.5,0.4,2.3,0.5c0.9,0.1,1.8,0.2,2.8,0.6c2.9,1.2,4.7,4.6,4.1,8c-0.4,2.7-2.2,5.4-5,7.4c-0.7,0.5-1.6,0.9-2.5,1.3
				c-0.9,0.4-1.8,0.8-2.3,1.2l0,0c-2.6,2.2-6.6,2.8-10.3,1.3c-3.9-1.5-6.5-4.5-8.5-7.4c-2.5,2.3-4.7,4.8-6.9,7.3
				c-1.8,2-3.6,4.1-5.5,6c-0.8,0.8-1.6,1.5-2.7,1.8C329,194.7,328.6,194.8,328.1,194.8z M314.9,156.3c-1.4,0-2.8,0.9-4.2,1.9
				c-1.7,1.3-3.4,2.6-5.1,4c-1.1,0.9-2.3,2-3,3.2c-0.7,1.3-1.1,2.8-1.1,4.7c0,5.3,3,10.7,8.1,14.6c2.6,2,5.9,3.7,9.9,5.2
				c0.5,0.2,1,0.4,1.6,0.6c2.3,0.9,5.9,2.3,7.7,1.9c0.5-0.1,1.1-0.6,1.6-1.1c1.9-1.9,3.7-3.9,5.4-5.9c2.5-2.8,5.1-5.8,8-8.4
				c0.3-0.2,0.6-0.3,0.9-0.3c0.3,0,0.6,0.2,0.8,0.5c2,3,4.5,6.2,8.2,7.7c2.4,0.9,5.7,1,7.9-0.9l0,0c0.8-0.7,1.9-1.2,2.9-1.6
				c0.8-0.3,1.5-0.6,2-1c1.3-1,3.6-3,4-5.9c0.3-2.1-0.6-4.7-2.7-5.5c-0.7-0.3-1.4-0.4-2.2-0.5c-1-0.1-2-0.3-3-0.7
				c-0.8-0.3-1.4-0.8-2-1.3c-0.4-0.3-0.7-0.5-1.1-0.8c-2.1-1.3-4.7-1.1-7.8-0.9c-1.7,0.2-3.4,0.8-5.1,1.4c-1.6,0.6-3.3,1.2-5.2,1.5
				c-3.4,0.4-6.4,3-8.3,4.9c-0.4,0.4-1.2,0.4-1.6,0c-1.6-1.5-2.9-3-3.9-4.3c-0.5-0.6-1-1.3-1.4-2c-0.6-0.9-1.2-1.7-1.8-2.4
				c-1.8-2.1-3.7-4.2-5.6-6.2c-1.1-1.2-2.3-2.3-3.7-2.5C315.2,156.3,315,156.3,314.9,156.3z M362.5,184.9L362.5,184.9L362.5,184.9z"
				/>
		</g>
		<g>
			<path style="fill:#182B57;" d="M298.9,135c-5.9-1.4-12.9,0.4-16,5.5c-2.3,3.9-2.1,8.7-1.4,13.2c2.4,14.9,9.4,28.9,19.8,39.8
				c10.7-6.6,20.5-14.7,29-23.9c0.5-0.5,1-1.1,1.1-1.8c0.1-0.7-0.2-1.5-0.5-2.2C324.7,153,313.4,138.5,298.9,135z"/>
			<path d="M301.2,195l-0.6-0.7c-10.6-11-17.7-25.3-20.2-40.4c-0.7-4.2-1.1-9.6,1.5-14c3.7-6.1,11.5-7.4,17.2-6.1l0,0
				c18.4,4.4,29.8,25,32.8,31.2c0.3,0.6,0.8,1.7,0.6,2.9c-0.2,1.1-0.9,1.9-1.4,2.4c-8.6,9.3-18.4,17.4-29.2,24.1L301.2,195z
				 M294.9,135.7c-4.3,0-8.8,1.6-11,5.4c-2.3,3.7-1.8,8.6-1.2,12.4c2.3,14.3,9,27.9,18.9,38.5c10.3-6.5,19.7-14.3,27.9-23.2
				c0.4-0.4,0.7-0.8,0.8-1.2c0.1-0.4-0.2-0.9-0.4-1.5c-2.9-6-13.9-25.9-31.3-30C297.4,135.9,296.2,135.7,294.9,135.7z"/>
		</g>
		<g>
			<path style="fill:#DEDEDE;" d="M378.7,162.9c-0.7-3.4-2.9-6.5-6-8.3c-0.8-0.5-1.8-0.9-2.7-0.4c-0.7,0.4-1,1.2-1,1.9
				s0.2,1.5,0.2,2.3c0.3,3.5-1.8,6.7-2.4,10.2c-0.1,0.8-0.2,1.6,0.1,2.4c0.3,0.8,0.9,1.4,1.6,1.8c2.2,1.5,6.3,1.1,8.3-0.6
				C379.2,170.2,379.3,165.6,378.7,162.9z"/>
			<path d="M372.1,174.9c-1.5,0-3-0.4-4.2-1.1c-1-0.6-1.7-1.5-2-2.4c-0.4-1.1-0.3-2.2-0.1-3c0.3-1.4,0.7-2.8,1.2-4.2
				c0.7-2,1.4-3.9,1.2-5.8c0-0.2-0.1-0.5-0.1-0.7c-0.1-0.5-0.2-1.1-0.1-1.7c0.1-1.3,0.7-2.4,1.6-2.9c1.1-0.6,2.3-0.4,3.8,0.4
				c3.3,1.9,5.7,5.3,6.5,9c0.6,2.9,0.5,8.1-2.3,10.5C376.2,174.3,374.1,174.9,372.1,174.9z M370.9,155.2c-0.1,0-0.2,0-0.3,0.1
				c-0.2,0.1-0.4,0.5-0.4,1c0,0.4,0,0.8,0.1,1.3c0,0.3,0.1,0.6,0.1,0.9c0.2,2.4-0.6,4.6-1.3,6.8c-0.5,1.3-0.9,2.5-1.1,3.8
				c-0.1,0.8-0.1,1.3,0,1.8c0.2,0.6,0.7,1,1.1,1.3c1.8,1.2,5.2,0.9,6.9-0.5c1.9-1.6,2-5.8,1.5-8.2c0,0,0,0,0,0
				c-0.7-3.1-2.7-5.9-5.4-7.5C371.7,155.3,371.3,155.2,370.9,155.2z"/>
		</g>
		<g>
			<path style="fill:#DEDEDE;" d="M369.4,162.3c-1.9-2.9-5.1-5-8.6-5.5c-0.9-0.1-2-0.1-2.6,0.6c-0.5,0.6-0.5,1.5-0.2,2.2
				c0.3,0.7,0.7,1.4,1.1,2c1.6,3.1,0.8,6.9,1.5,10.4c0.2,0.8,0.4,1.6,1,2.2c0.5,0.6,1.3,0.9,2.1,1.1c2.6,0.5,6.2-1.2,7.5-3.6
				C372.6,169,371,164.6,369.4,162.3z"/>
			<path d="M364.6,176.6c-0.4,0-0.8,0-1.2-0.1c-1.1-0.2-2.1-0.7-2.8-1.5c-0.8-0.9-1.1-2-1.2-2.7c-0.3-1.4-0.3-2.9-0.4-4.3
				c-0.1-2.1-0.1-4.1-1-5.8c-0.1-0.2-0.2-0.4-0.4-0.6c-0.3-0.5-0.6-1-0.8-1.5c-0.4-1.2-0.3-2.5,0.5-3.3c0.8-0.9,2-1.2,3.7-1
				c3.8,0.6,7.3,2.8,9.4,6c1.6,2.5,3.5,7.3,1.7,10.6C370.8,174.7,367.5,176.6,364.6,176.6z M360,157.9c-0.4,0-0.7,0.1-0.9,0.2
				c-0.2,0.2-0.2,0.6,0,1.1c0.1,0.4,0.3,0.7,0.6,1.1c0.1,0.3,0.3,0.5,0.4,0.8c1.1,2.2,1.2,4.5,1.3,6.8c0,1.4,0.1,2.7,0.3,3.9
				c0.2,0.8,0.4,1.3,0.7,1.6c0.4,0.5,1,0.7,1.5,0.8c2.1,0.4,5.2-1.1,6.2-3c1.2-2.2-0.2-6.1-1.6-8.2c0,0,0,0,0,0
				c-1.7-2.6-4.7-4.5-7.8-5C360.4,157.9,360.2,157.9,360,157.9z"/>
		</g>
		<g>
			<path style="fill:#DEDEDE;" d="M361.7,164.8c-1.9-2.9-5.1-5-8.6-5.5c-0.9-0.1-2-0.1-2.6,0.6c-0.5,0.6-0.5,1.5-0.2,2.2
				c0.3,0.7,0.7,1.4,1.1,2c1.6,3.1,0.8,6.9,1.5,10.4c0.2,0.8,0.4,1.6,1,2.2c0.5,0.6,1.3,0.9,2.1,1.1c2.6,0.5,6.2-1.2,7.5-3.6
				C364.8,171.5,363.3,167.2,361.7,164.8z"/>
			<path d="M356.9,179.1c-0.4,0-0.8,0-1.2-0.1c-1.1-0.2-2.1-0.7-2.8-1.5c-0.8-0.9-1.1-2-1.2-2.7c-0.3-1.4-0.3-2.9-0.4-4.3
				c-0.1-2.1-0.1-4.1-1-5.8c-0.1-0.2-0.2-0.4-0.4-0.6c-0.3-0.5-0.6-1-0.8-1.5c-0.4-1.2-0.3-2.5,0.5-3.3c0.8-0.9,2-1.2,3.7-1
				c3.8,0.6,7.3,2.8,9.4,6l0,0c1.6,2.5,3.5,7.3,1.7,10.6C363.1,177.3,359.8,179.1,356.9,179.1z M352.3,160.4c-0.4,0-0.7,0.1-0.9,0.2
				c-0.2,0.2-0.2,0.6,0,1.1c0.1,0.4,0.3,0.7,0.6,1.1c0.1,0.2,0.3,0.5,0.4,0.8c1.1,2.2,1.2,4.5,1.3,6.8c0,1.4,0.1,2.7,0.3,3.9
				c0.2,0.8,0.4,1.3,0.7,1.6c0.4,0.5,1,0.7,1.5,0.8c2.1,0.4,5.2-1.1,6.2-3c1.2-2.2-0.2-6.1-1.6-8.2l0,0c-1.8-2.6-4.7-4.5-7.8-5
				C352.7,160.5,352.5,160.4,352.3,160.4z"/>
		</g>
	</g>
	<g>
		<path style="fill:#182B57;stroke:#000000;stroke-width:2;stroke-linecap:round;stroke-linejoin:round;stroke-miterlimit:10;" d="
			M319.9,140.4c-0.8-1-1.6-2-1.8-2.2c-2-2-4.3-3.8-6.6-5.3l-0.6-0.4c-2.2-1.4-3.6-2.4-5.9-1.7c-1.8,0.6-3.6,1.7-5.3,2.9
			c-0.9,0.6-1.9,1.2-2.8,1.7l11.5,12c0.1,0.1,0.2,0.2,0.2,0.2c0.1,0,0.4-0.1,0.5-0.1c4.4-1.8,8.9-3.1,13.6-3.8
			C322.1,143.1,321.3,142.1,319.9,140.4z"/>
		<path style="fill:#850404;stroke:#000000;stroke-width:2;stroke-linecap:round;stroke-linejoin:round;stroke-miterlimit:10;" d="
			M316.1,136.3c0,0-8.7,1.6-13,5.7l5.3,5.6l14.1-4C322.6,143.6,318,137.6,316.1,136.3z"/>
	</g>
</g>
<g>
	<path d="M225.1,220.3c-1.7,2.6-2.6,5.6-3.2,8.7c-3.3,19,8.5,37.1,20.4,52.4c2.3,3,4.8,6.1,5.5,9.8c0.6,3.1,0.1,6.3-0.5,9.4
		c-3,16.1-8.1,34.5-5.3,50.8c6.6-1.7,13.5-2.6,20.3-2.5c-2.6,0,3.6-29.9,5.4-33.4c3.5-6.7,10.1-11.5,13.6-18.3
		c3.5-6.7,3.7-14.6,3.8-22.2c0.2-12.1,0.3-24.5-3.2-36.1c-3.3-10.9-11.4-24.2-23.2-27.4C248.6,208.8,231.3,211,225.1,220.3z"/>
	<g>
		<path style="fill:#3D3D3D;" d="M246.2,328.2c5.3-3.8,11.7-5.9,18.2-6.9c5.7-0.9,11.8-0.9,17.1,1.4c6.7,3,13.4,7.8,17.5,14
			c3,4.4,5.8,12,3.7,17.4c-1.9,4.8-7.7,5.7-12.4,5.7c-15.6,0-31.1,0-46.7,0.1c-1.9,0-4,0-5.6-1C227.3,352.4,240.1,332.6,246.2,328.2
			z"/>
		<path d="M243.3,361.1c-1.9,0-4.1,0-6-1.2c-2.9-1.8-4.5-4.6-4.6-8.3c-0.3-9.1,8.1-20.9,12.8-24.3l0,0c4.9-3.6,11.2-5.9,18.7-7.1
			c7.2-1.1,13-0.6,17.7,1.5c7.7,3.5,14.1,8.6,18,14.4c2.6,3.9,6.3,12.1,3.8,18.5c-1.7,4.3-6.2,6.5-13.4,6.5l-46.7,0.1
			C243.5,361.1,243.4,361.1,243.3,361.1z M271.1,321.9c-2,0-4.2,0.2-6.5,0.5c-7.1,1.1-13,3.3-17.7,6.7l0,0
			c-4.3,3.1-12.1,14.5-11.9,22.4c0.1,2.9,1.3,5,3.5,6.4c1.4,0.9,3.4,0.9,5,0.9l46.7-0.1c6.2,0,10-1.7,11.3-5
			c1.9-4.7-0.6-11.8-3.6-16.3c-3.7-5.5-9.7-10.3-17-13.6C278.1,322.5,274.9,321.9,271.1,321.9z"/>
	</g>
</g>
<path d="M156.6,222.2c0,0.2,0,0.3,0,0.5c0.2,8.5,3.1,16.8,6.6,24.5c19.2,42.3,90.5,29.6,113.5-0.8c6.2-8.2,11.7-18.6,4.9-27.2
	c-6.5-8.3-17.2-16.3-25.8-22.5c-9.3-6.6-16.2-16.8-24.9-24.4c-4.7-4.1-10-8.1-16.1-8.4c-5.6-0.3-10.9,2.6-15.7,5.6
	C180.4,180.9,156.3,197.9,156.6,222.2z"/>
<g>
	<g>
		<path style="fill:#3D3D3D;" d="M197.4,179.3c-0.1,0.8-0.2,1.7-0.2,2.7c-0.6,8.3,0.5,16.7,4.8,23.9c1.8,3,4.2,5.4,5.9,8.5
			c1.9,3.4,4.4,6.2,7.7,8.4c4.3,2.9,9.1,4.7,14,6.4c5.2,1.9,10.3,3.8,15.5,5.6c8.3,3,18.9,1.1,27.5-0.1c1.1-0.2,2.2-0.3,3.2-0.7
			c2.7-1,4.5-3.5,6.2-5.8c3.2-4.4,6.4-9,8.1-14.2c1.7-5.1,1.7-10.9,0-16c-1.7-5.2-7.4-9.2-11.4-12.6c-6.6-5.5-13.7-10.5-21.8-13.4
			c-6.8-2.4-14-3.3-21.1-3.7c-4-0.2-8.1-0.3-12.1-0.9c-3.7-0.5-7.2-1.4-11-1.5c-1.3,0-2.6,0-3.8,0.3c-1.2,0.3-2.4,0.8-3.5,1.4
			C199.6,170.8,198,173.9,197.4,179.3z"/>
		<path d="M255.8,237.8c-3.9,0-7.6-0.4-11.1-1.7l-15.5-5.6c-4.8-1.8-9.8-3.6-14.2-6.6c-3.4-2.3-6-5.2-8-8.8c-0.9-1.6-1.9-2.9-3-4.4
			c-1-1.3-2-2.6-2.9-4.1c-4-6.6-5.6-14.9-5-24.6c0.1-1,0.1-1.9,0.2-2.7l0,0c0.6-5.5,2.2-9.1,8.5-12.5c1.4-0.8,2.6-1.2,3.8-1.5
			c1.4-0.3,2.8-0.3,4.1-0.3c2.6,0.1,5.2,0.5,7.6,1c1.2,0.2,2.3,0.4,3.5,0.6c2.9,0.4,5.9,0.6,8.8,0.7c1.1,0.1,2.1,0.1,3.2,0.2
			c6.1,0.4,14.1,1.1,21.4,3.8c7.1,2.5,13.9,6.7,22.2,13.6c0.5,0.4,1.1,0.9,1.6,1.3c4,3.3,8.6,7,10.2,11.8c1.7,5.4,1.7,11.3,0,16.7
			c-1.7,5.4-5.1,10-8.3,14.5c-1.6,2.2-3.6,5-6.7,6.2c-1.1,0.4-2.3,0.6-3.4,0.8l-2.1,0.3C265.9,237,260.8,237.8,255.8,237.8z
			 M211.7,167.2c-0.9,0-1.9,0.1-2.8,0.3c-1,0.2-2,0.6-3.2,1.3c-5.5,3-6.7,5.9-7.3,10.8v0c-0.1,0.8-0.2,1.7-0.2,2.6
			c-0.6,9.4,0.9,17,4.7,23.2c0.8,1.4,1.8,2.7,2.8,3.9c1.1,1.4,2.2,2.9,3.2,4.6c1.9,3.3,4.3,6,7.3,8.1c4.2,2.8,9,4.6,13.7,6.3
			l15.5,5.6c7.4,2.7,16.7,1.3,24.9,0.2l2.1-0.3c1.1-0.2,2-0.3,2.9-0.6c2.4-0.9,4.2-3.4,5.6-5.4c3.1-4.3,6.3-8.8,7.9-13.9
			c1.6-5,1.6-10.4,0-15.3c-1.4-4.2-5.6-7.7-9.4-10.7c-0.6-0.5-1.1-0.9-1.7-1.4c-8.1-6.7-14.7-10.8-21.5-13.2
			c-7.1-2.6-14.8-3.3-20.8-3.6c-1-0.1-2.1-0.1-3.2-0.2c-3-0.1-6.1-0.3-9-0.7c-1.2-0.2-2.4-0.4-3.6-0.6c-2.5-0.4-4.8-0.9-7.3-0.9
			C212.2,167.2,212,167.2,211.7,167.2z"/>
	</g>
	<g>
		<path style="fill:#8A8A8A;" d="M258.6,225l-11.7-1.4c-1.4-0.2-2.7,0.8-2.9,2.3l-0.9,7.2c-0.2,1.4,0.8,2.7,2.3,2.9l11.7,1.4
			c1.4,0.2,2.7-0.8,2.9-2.3l0.9-7.2C261.1,226.5,260.1,225.2,258.6,225z M256.5,232.7c-0.1,0.7-0.8,1.2-1.6,1.1l-6.6-0.8
			c-0.8-0.1-1.3-0.7-1.3-1.4l0.4-3.2c0.1-0.7,0.8-1.2,1.6-1.1l6.6,0.8c0.8,0.1,1.3,0.7,1.3,1.4L256.5,232.7z"/>
		<path d="M257.4,238.5c-0.2,0-0.3,0-0.5,0l-11.7-1.4c-2.1-0.2-3.5-2.1-3.3-4.2l0.9-7.2c0.3-2.1,2.1-3.5,4.2-3.3l11.7,1.4
			c1,0.1,1.9,0.6,2.5,1.4c0.6,0.8,0.9,1.8,0.8,2.8l-0.9,7.2c-0.1,1-0.6,1.9-1.4,2.5C259.1,238.3,258.3,238.5,257.4,238.5z
			 M246.6,224.7c-0.7,0-1.4,0.5-1.4,1.3l-0.9,7.2c-0.1,0.8,0.5,1.5,1.3,1.6l11.7,1.4c0.4,0.1,0.8-0.1,1.1-0.3c0.3-0.2,0.5-0.6,0.5-1
			l0.9-7.2c0-0.4-0.1-0.8-0.3-1.1c-0.2-0.3-0.6-0.5-1-0.5l0,0l-11.7-1.4C246.7,224.7,246.6,224.7,246.6,224.7z M255.2,234.9
			c-0.1,0-0.2,0-0.3,0l-6.6-0.8c-0.7-0.1-1.4-0.4-1.8-1c-0.4-0.5-0.6-1.1-0.5-1.7l0.4-3.2c0.1-0.6,0.4-1.2,0.9-1.5
			c0.5-0.4,1.3-0.6,2-0.5l6.6,0.8c0.7,0.1,1.4,0.4,1.8,1c0.4,0.5,0.6,1.1,0.5,1.7l-0.4,3.2c0,0,0,0,0,0
			C257.5,234,256.4,234.9,255.2,234.9z M256.5,232.7L256.5,232.7L256.5,232.7z M248.8,228.4c-0.1,0-0.2,0.1-0.2,0.1l-0.4,3.2
			c0,0,0.1,0.1,0.2,0.1l6.6,0.8c0.1,0,0.2,0,0.3-0.1l0.4-3.2c0,0-0.1-0.1-0.2-0.1L248.8,228.4C248.9,228.4,248.8,228.4,248.8,228.4z
			"/>
	</g>
	<g>
		<path style="fill:#8A8A8A;" d="M262.2,233.1l-7.2-0.9c-0.4,0-0.7-0.4-0.6-0.8l0.2-1.3c0-0.4,0.4-0.7,0.8-0.6l7.2,0.9
			c0.4,0,0.7,0.4,0.6,0.8l-0.2,1.3C263,232.9,262.6,233.2,262.2,233.1z"/>
		<path d="M261.7,234.2c-0.1,0-0.2,0-0.3,0l-5.9-0.7c-0.7-0.1-1.3-0.4-1.7-1c-0.4-0.5-0.6-1.2-0.5-1.9c0.1-0.7,0.4-1.3,1-1.7
			s1.2-0.6,1.9-0.5l5.9,0.7c0.7,0.1,1.3,0.4,1.7,1c0.4,0.5,0.6,1.2,0.5,1.9c-0.1,0.7-0.4,1.3-1,1.7
			C262.9,234,262.3,234.2,261.7,234.2z M255.9,230.7c0,0-0.3,0.2-0.3,0.2l0.1,1.4l0.1-1.2l5.9,0.7l0,0c0.1,0,0.1,0,0.2,0l0-0.3
			L255.9,230.7z"/>
	</g>
</g>
<g>
	<g>
		<path style="fill:#182B57;" d="M312.1,180.4c-0.6,4.5-1.9,8.7-3.9,12.3c-3.9,7-7.9,13.9-12.2,20.7c-6.5,10.3-15.5,12.8-27.1,13.9
			c-20,1.9-39.7-4.9-52.9-20.9c-6.5-7.9-16.7-25.9-10.7-36c12.1-20.2,21.9-44.4,49.8-48.7c17.4-2.6,36.1,4.4,46.3,17.6
			C309.4,149.5,314,166.2,312.1,180.4z"/>
		<path d="M262.4,228.7c-18.9,0-35.9-7.7-47.3-21.7c-5.3-6.5-17.7-25.8-10.8-37.3c1.6-2.7,3.3-5.6,4.9-8.4
			c10.4-18.2,21.1-37.1,45.8-40.8c17.9-2.7,36.9,4.5,47.4,18c8.3,10.7,12.8,28,10.9,42c-0.7,4.8-2,9.1-4,12.7c-3.9,7-8,14-12.2,20.7
			c-6.6,10.5-15.6,13.3-28,14.5C266.8,228.6,264.6,228.7,262.4,228.7z M262.5,122.3c-2.4,0-4.8,0.2-7.2,0.5
			c-23.6,3.6-34,21.9-44.1,39.7c-1.6,2.9-3.2,5.7-4.9,8.5c-5.5,9.1,3.6,26.1,10.6,34.6c12.3,14.9,31.2,22.4,51.9,20.5
			c11.7-1.1,20.2-3.7,26.2-13.4c4.2-6.7,8.3-13.6,12.1-20.6c1.9-3.4,3.2-7.4,3.8-11.9l0,0c1.8-13.4-2.4-30-10.4-40.3
			C291.9,128.9,277.3,122.3,262.5,122.3z"/>
	</g>
	<g>
		<path style="fill:#182B57;" d="M262.2,171.3c-0.1,2.7-0.9,5.4-2.4,7.6c-1,1.2-5.2,2-6.7,2.6c-1.8,0.7-3.7,2-5.4,0.8
			c-3.8-2.6-7.6-5.3-11.5-7.9c-0.7-0.5-1.5-1-1.6-1.9c-0.1-0.6,0.3-1.2,0.6-1.8c0.6-1.1,0.9-2.4,1-3.6c0-0.2,0-0.5,0.2-0.6
			c0.2-0.1,0.4,0,0.5,0.1C244.7,170.2,253.6,171.4,262.2,171.3z"/>
		<path d="M249.2,184c-0.7,0-1.5-0.2-2.2-0.7c-1.5-1-2.9-2-4.4-3c-2.3-1.6-4.7-3.3-7.1-4.8c-0.6-0.4-1.9-1.2-2.1-2.7
			c-0.1-0.9,0.3-1.6,0.6-2.2l0.1-0.2c0.5-1,0.8-2.1,0.8-3.2c0-0.3,0.1-1.1,0.9-1.5c0.7-0.3,1.3-0.1,1.5,0c7,3.1,15.4,4.6,24.9,4.5
			l1.2,0l0,1.2c-0.1,2.9-1,5.9-2.6,8.3c-0.9,1.1-2.8,1.8-5.4,2.5c-0.7,0.2-1.3,0.4-1.8,0.6c-0.3,0.1-0.6,0.3-0.9,0.4
			C251.6,183.5,250.4,184,249.2,184z M237.2,168.1c-0.2,1.2-0.5,2.3-1,3.3l-0.1,0.2c-0.2,0.4-0.4,0.7-0.3,0.9c0,0.3,0.8,0.8,1,1
			c2.4,1.6,4.8,3.2,7.2,4.9c1.5,1,2.9,2,4.4,3c0.9,0.6,1.8,0.2,3.3-0.5c0.3-0.2,0.7-0.3,1-0.4c0.5-0.2,1.2-0.4,2-0.6
			c1.3-0.4,3.8-1.1,4.2-1.7c1.1-1.7,1.9-3.7,2.1-5.8C252,172.4,244,171,237.2,168.1z"/>
	</g>
	<path d="M258.9,224.9l-2-1.2c5.2-8.8,11-19.1,13.5-30.7c2.4-10.9,2.6-24.6,2.4-36.5l2.3,0c0.1,12.1,0,25.9-2.5,37
		C270.1,205.5,264.2,216,258.9,224.9z"/>
	<g>
		<g>
			<g>
				<path style="fill-rule:evenodd;clip-rule:evenodd;fill:#FFC300;" d="M301.2,189c-2,0.1-3.8-0.6-5.4-2
					c-4.8-4.4-5.2-14.8-5.3-15.2l0-0.9l0.9,0c6.3-0.3,8.1-2.8,8.1-2.8l0.7-1l0.8,1c0,0,2,2.4,8.3,2.1l0.9,0l0,0.9
					c0,0.4,0.5,10.8-3.9,15.6C304.9,188,303.2,188.9,301.2,189"/>
				<path d="M301.2,189.8c-2.3,0.1-4.3-0.6-6-2.2c-5-4.6-5.5-14.7-5.5-15.8l0-0.9c0-0.5,0.3-0.8,0.8-0.9l0.9,0
					c5.7-0.3,7.4-2.5,7.5-2.5l0.7-1c0.1-0.2,0.4-0.4,0.7-0.4c0,0,0,0,0,0c0.3,0,0.5,0.1,0.7,0.3l0.8,1l0,0c0,0,1.9,2,7.6,1.8l0.9,0
					c0.5,0,0.8,0.3,0.9,0.8l0,0.9c0.1,1.1,0.5,11.2-4.1,16.3C305.4,188.8,303.5,189.7,301.2,189.8z M291.3,171.6L291.3,171.6
					c0,0.5,0.5,10.5,5,14.7c1.4,1.3,3,1.8,4.8,1.8c1.8-0.1,3.3-0.8,4.6-2.2c4.1-4.6,3.7-14.6,3.6-15l-0.1-0.1c-6.8,0.3-9-2.4-9-2.4
					l0-0.1l-0.1,0.1C300.1,168.5,298.2,171.3,291.3,171.6L291.3,171.6z"/>
			</g>
			<path style="fill-rule:evenodd;clip-rule:evenodd;fill:#CC8025;" d="M304.1,180.5c0.1,1.7-1.4,2.1-3.3,2.2s-3.4-0.2-3.5-1.9
				c-0.1-1.7,1.4-3.1,3.2-3.2C302.5,177.6,304.1,178.9,304.1,180.5"/>
			<path style="fill-rule:evenodd;clip-rule:evenodd;fill:#CC8025;" d="M296.5,178.9c-0.7,0-1.2-0.6-1.2-1.3c0-0.8,0.5-1.4,1.1-1.4
				s1.2,0.6,1.2,1.3C297.7,178.3,297.2,178.9,296.5,178.9"/>
			<path style="fill-rule:evenodd;clip-rule:evenodd;fill:#CC8025;" d="M304.8,175.7c-0.7,0-1.2,0.7-1.2,1.5c0,0.8,0.6,1.4,1.3,1.4
				c0.7,0,1.2-0.7,1.2-1.5C306.1,176.3,305.5,175.7,304.8,175.7"/>
			<path style="fill-rule:evenodd;clip-rule:evenodd;fill:#CC8025;" d="M299.1,177c-0.7,0-1.2-0.6-1.2-1.3c0-0.8,0.5-1.4,1.1-1.4
				c0.7,0,1.2,0.6,1.2,1.3C300.2,176.4,299.7,177,299.1,177"/>
			<path style="fill-rule:evenodd;clip-rule:evenodd;fill:#CC8025;" d="M302,174.3c-0.7,0-1.2,0.7-1.2,1.5c0,0.8,0.6,1.4,1.3,1.4
				c0.7,0,1.2-0.7,1.2-1.5S302.7,174.3,302,174.3"/>
		</g>
	</g>
</g>
<g>
	<g>
		<path style="fill:#86D145;" d="M12.3,189.1c-2.6,2.4-0.8,6.4,0.9,8.6c2.4,3.2,6,5.6,9.6,7.5c47.5,24.6,99.9,41.2,153.3,41.6
			c3.6,0,7.4-0.1,10.5-1.8c3-1.7,5-4.7,6.7-7.7c4.4-7.7,7.6-16.3,7.1-25.1c-1.9-34.7-56.9-18.7-79.8-18.8c-21.1-0.1-42.1-1-63.2-2.3
			c-10.5-0.6-21-1.4-31.5-2.1C22.4,188.7,14.7,186.8,12.3,189.1z"/>
		<path d="M177,247.9c-0.3,0-0.6,0-0.9,0c-49.4-0.4-101.1-14.5-153.9-41.8c-4.4-2.3-7.8-4.9-10-7.8c-2.2-2.9-3.8-7.3-0.8-10.2
			c0,0,0,0,0,0c2.3-2.1,7.4-1.4,11.5-0.8c1.1,0.2,2.2,0.3,3,0.4c8.7,0.6,20.1,1.4,31.5,2.1c24.4,1.5,44.5,2.2,63.1,2.3
			c5,0.1,11.5-0.7,18.5-1.5c19.2-2.2,43.1-4.9,55,5.2c4.6,3.8,7.1,9.3,7.4,16.2c0.4,7.9-1.9,16.4-7.3,25.7c-1.8,3.1-3.9,6.3-7.1,8.1
			C184.1,247.7,180.6,247.9,177,247.9z M13.1,189.9c-2.5,2.3,0.7,6.6,1,7.1c2,2.6,5.1,5,9.2,7.1c52.4,27.1,103.8,41.1,152.8,41.5
			c3.6,0,7.1-0.1,9.9-1.7c2.8-1.6,4.6-4.4,6.3-7.3c5.1-9,7.4-17,7-24.5c-0.4-6.4-2.5-11.1-6.6-14.6c-11.2-9.4-34.5-6.8-53.2-4.6
			c-7.1,0.8-13.7,1.5-18.8,1.6c-18.7-0.1-38.8-0.8-63.2-2.3c-11.5-0.7-22.9-1.5-31.6-2.1c-0.8-0.1-1.9-0.2-3.2-0.4
			C19.4,189.3,14.5,188.5,13.1,189.9L13.1,189.9z"/>
	</g>
	<path style="fill:#5CAB18;" d="M108.1,215.8c-0.1,0-0.2,0-0.3,0c-0.6-0.1-1-0.8-0.9-1.4c1.7-7.4,6.4-14,12.9-18.1
		c0.5-0.3,1.3-0.2,1.6,0.4c0.3,0.5,0.2,1.3-0.4,1.6c-6,3.7-10.3,9.8-11.9,16.6C109.1,215.5,108.6,215.8,108.1,215.8z"/>
	<path style="fill:#5CAB18;" d="M118.3,224.4c-0.6,0-1.2-0.5-1.2-1.2c0-10.1,5.6-19.8,14.3-24.8c0.6-0.3,1.3-0.1,1.6,0.4
		c0.3,0.6,0.1,1.3-0.4,1.6c-8,4.6-13.2,13.6-13.1,22.8C119.5,223.8,118.9,224.4,118.3,224.4C118.3,224.4,118.3,224.4,118.3,224.4z"
		/>
</g>
<g>
	<path d="M170.5,221.3c-2,2.3-3.3,5.2-4.3,8.2c-5.7,18.5,3.6,37.9,13.5,54.6c1.9,3.3,3.9,6.7,4.2,10.5c0.2,3.1-0.8,6.2-1.7,9.2
		c-5.1,15.6-12.5,33.1-11.8,49.7c6.8-0.9,13.7-0.8,20.5,0.2c-2.6-0.4,7.4-29.2,9.7-32.4c4.4-6.2,11.5-10.1,15.8-16.4
		c4.4-6.2,5.5-14,6.6-21.5c1.7-12,3.4-24.2,1.5-36.2c-1.8-11.3-8.2-25.4-19.5-30.1C195.2,212.9,177.8,212.9,170.5,221.3z"/>
	<g>
		<path style="fill:#3D3D3D;" d="M171.9,333c5.3-3.8,11.7-5.9,18.2-6.9c5.7-0.9,11.8-0.9,17.1,1.4c6.7,3,13.4,7.8,17.5,14
			c3,4.4,5.8,12,3.7,17.4c-1.9,4.8-7.7,5.7-12.4,5.7c-15.6,0-31.1,0-46.7,0.1c-1.9,0-4,0-5.6-1C153,357.2,165.8,337.4,171.9,333z"/>
		<path d="M169.1,365.9c-1.9,0-4.2,0-6.1-1.2c-2.9-1.8-4.5-4.6-4.6-8.3c-0.3-9.1,8.1-20.9,12.8-24.3l0,0c4.9-3.6,11.2-5.9,18.7-7.1
			c7.2-1.1,13-0.6,17.7,1.5c7.7,3.5,14.1,8.6,18,14.4c2.6,3.9,6.3,12.1,3.8,18.5c-1.7,4.3-6.2,6.5-13.4,6.5l-46.6,0.1
			C169.3,365.9,169.2,365.9,169.1,365.9z M172.6,333.9c-4.3,3.1-12.1,14.5-11.9,22.4c0.1,2.9,1.3,5,3.5,6.4c1.4,0.9,3.4,0.9,5,0.9
			l46.7-0.1c6.2,0,10-1.7,11.3-5c1.9-4.7-0.6-11.8-3.6-16.3c-3.7-5.5-9.7-10.3-17-13.6c-4.3-1.9-9.7-2.4-16.4-1.4
			C183.2,328.3,177.2,330.6,172.6,333.9L172.6,333.9z"/>
	</g>
</g>
<g>
	<g>
		<path style="fill:#182B57;" d="M240.2,156.2c5.4,4,13.4,9.2,19.2,11.6c1.2,0.5,2.5,0.9,3.7,0.7c1.6-0.3,10.5-12.3,10.9-11.9
			c3.6,3.3,4.8,6.9,8.4,10.3c0.3,0.3,0.6,0.6,1,0.7c0.5,0.1,1,0,1.4-0.2c9.6-3.6,19.2-9.7,23.4-19.6c2.5-5.9,0.3-15-3.4-19.9
			c-5-6.7-13.8-9.5-22.1-10.6c-14.8-2.1-35.9-1.1-49.7,5.8c-8.8,4.4-9,15.8-3.4,23.1C232.5,149.7,236.2,153.1,240.2,156.2z"/>
		<path d="M262.4,169.6c-1.2,0-2.4-0.4-3.5-0.8c-6-2.4-14.2-7.8-19.4-11.7l0,0c-4.3-3.2-8-6.7-10.8-10.4c-3.4-4.4-4.7-10.3-3.6-15.4
			c1-4.2,3.6-7.6,7.4-9.5c14-7,35.3-8,50.3-5.9c11,1.5,18.4,5.2,22.9,11.1c3.8,5.1,6.2,14.6,3.5,21c-4.7,11.1-15.7,17.1-24,20.2
			c-0.6,0.2-1.3,0.4-2.1,0.3c-0.7-0.2-1.3-0.7-1.5-1c-1.8-1.7-3-3.5-4.2-5.2c-1-1.5-2-3-3.4-4.3c-0.7,0.8-2,2.3-3.1,3.6
			c-4.8,5.8-6.5,7.7-7.6,7.9C263,169.6,262.7,169.6,262.4,169.6z M240.9,155.2c5.1,3.8,13.1,9.1,18.9,11.4c1,0.4,2.1,0.8,3.1,0.6
			c0.7-0.4,4.2-4.6,6.3-7.1c3.7-4.5,4-4.8,4.8-4.9l0.5,0l0.4,0.3c1.9,1.8,3.2,3.6,4.5,5.4c1.2,1.7,2.3,3.3,3.9,4.8
			c0.1,0.1,0.4,0.3,0.5,0.4c0.2,0,0.6-0.1,0.7-0.2c8-3,18.4-8.6,22.7-19c2.3-5.5,0.2-14.1-3.2-18.7c-4-5.4-11-8.8-21.3-10.2
			c-14.6-2-35.5-1.1-49,5.7c-4.1,2-5.6,5.4-6.2,7.9c-1,4.4,0.2,9.6,3.2,13.4C233.3,148.8,236.7,152.1,240.9,155.2L240.9,155.2z"/>
	</g>
	<g>
		<path style="fill:#C4B78E;" d="M286,152.5c-0.1,0-0.2-0.1-0.3,0c-0.1,0.1-0.1,0.2-0.1,0.3c-0.1,0.8-0.1,1.6-0.1,2.4
			c-0.6,0.3-1.2,0.7-1.7,1.2c-0.1,0.1-0.2,0.2-0.2,0.4c0,0.2,0.2,0.3,0.4,0.3c0.6,0.2,1.5,0.3,1.8,0.9c0.2,0.4,0.1,0.8,0,1.3
			s0,0.9,0.3,1.2c0.4,0.3,0.9,0.1,1.2-0.2c0.3-0.3,0.5-0.7,0.7-1.1c0.1-0.1,0.1-0.2,0.3-0.3c0.1-0.1,0.3,0,0.4,0
			c0.4,0,0.7,0.1,1.1,0.1c0.6,0.1,1.3,0.1,1.5-0.4c0.2-0.4,0-0.8-0.3-1.1c-0.3-0.3-0.6-0.5-0.9-0.9c0.2-0.7,1.1-1.2,1.1-2
			c0-0.5-0.6-1-1.1-1c-0.6-0.1-1.2,0.3-1.8,0.2C287.5,153.5,286.7,152.8,286,152.5z"/>
		<path d="M285.8,152.5c0.1,0,0.1,0,0.2,0.1c0.7,0.3,1.5,1,2.2,1.1c0.1,0,0.1,0,0.2,0c0.5,0,0.9-0.3,1.4-0.3c0.1,0,0.1,0,0.2,0
			c0.5,0.1,1.1,0.5,1.1,1c0,0.8-0.9,1.2-1.1,2c0.3,0.3,0.6,0.6,0.9,0.9c0.3,0.3,0.5,0.8,0.3,1.1c-0.2,0.4-0.6,0.5-1,0.5
			c-0.2,0-0.3,0-0.5,0c-0.4,0-0.7-0.1-1.1-0.1c-0.1,0-0.1,0-0.2,0c-0.1,0-0.1,0-0.2,0c-0.1,0.1-0.2,0.2-0.3,0.3
			c-0.2,0.4-0.4,0.8-0.7,1.1c-0.2,0.2-0.5,0.3-0.8,0.3c-0.1,0-0.3,0-0.4-0.1c-0.3-0.3-0.4-0.8-0.3-1.2s0.2-0.9,0-1.3
			c-0.3-0.6-1.1-0.7-1.8-0.9c-0.2-0.1-0.3-0.2-0.4-0.3c0-0.2,0.1-0.3,0.2-0.4c0.5-0.5,1.1-0.9,1.7-1.2c0-0.8,0-1.6,0.1-2.4
			c0-0.1,0-0.2,0.1-0.3C285.7,152.5,285.8,152.5,285.8,152.5 M285.8,150.2c-0.5,0-0.9,0.1-1.3,0.4c-0.4,0.2-1.1,0.8-1.2,2
			c0,0.4-0.1,0.8-0.1,1.3c-0.4,0.2-0.7,0.5-1,0.8c-1,0.9-1,1.9-1,2.4c0.1,1,0.8,1.9,1.9,2.3c0.1,0,0.2,0.1,0.3,0.1
			c-0.1,1.3,0.4,2.3,1.3,3c0.5,0.4,1.1,0.6,1.8,0.6c0.9,0,1.8-0.4,2.4-1c0.2-0.2,0.4-0.4,0.5-0.6c0.2,0,0.5,0,0.7,0
			c2,0,2.9-1.2,3.1-1.8c0.5-1,0.4-2.3-0.3-3.3c0.3-0.5,0.5-1.1,0.5-1.8c0-1.6-1.4-3.1-3.1-3.3c-0.2,0-0.3,0-0.5,0
			c-0.6,0-1,0.1-1.3,0.2c0,0,0,0,0,0c-0.1-0.1-0.3-0.2-0.5-0.3c-0.3-0.2-0.7-0.4-1.1-0.6C286.6,150.3,286.2,150.2,285.8,150.2
			L285.8,150.2z"/>
	</g>
	<g>
		<path style="fill:#C4B78E;" d="M259.5,154c-0.1,0-0.2-0.1-0.3,0c-0.1,0.1-0.1,0.2-0.1,0.3c-0.1,0.8-0.1,1.6-0.1,2.4
			c-0.6,0.3-1.2,0.7-1.7,1.2c-0.1,0.1-0.2,0.2-0.2,0.4c0,0.2,0.2,0.3,0.4,0.3c0.6,0.2,1.5,0.3,1.8,0.9c0.2,0.4,0.1,0.8,0,1.3
			s0,0.9,0.3,1.2c0.4,0.3,0.9,0.1,1.2-0.2c0.3-0.3,0.5-0.7,0.7-1.1c0.1-0.1,0.1-0.2,0.3-0.3c0.1-0.1,0.3,0,0.4,0
			c0.4,0,0.7,0.1,1.1,0.1c0.6,0.1,1.3,0.1,1.5-0.4c0.2-0.4,0-0.8-0.3-1.1c-0.3-0.3-0.6-0.5-0.9-0.9c0.2-0.7,1.1-1.2,1.1-2
			c0-0.5-0.6-1-1.1-1c-0.6-0.1-1.2,0.3-1.8,0.2C260.9,155,260.1,154.3,259.5,154z"/>
		<path d="M259.3,154c0.1,0,0.1,0,0.2,0.1c0.7,0.3,1.5,1,2.2,1.1c0.1,0,0.1,0,0.2,0c0.5,0,0.9-0.3,1.4-0.3c0.1,0,0.1,0,0.2,0
			c0.5,0.1,1.1,0.5,1.1,1c0,0.8-0.9,1.2-1.1,2c0.3,0.3,0.6,0.6,0.9,0.9c0.3,0.3,0.5,0.8,0.3,1.1c-0.2,0.4-0.6,0.5-1,0.5
			c-0.2,0-0.3,0-0.5,0c-0.4,0-0.7-0.1-1.1-0.1c-0.1,0-0.1,0-0.2,0c-0.1,0-0.1,0-0.2,0c-0.1,0.1-0.2,0.2-0.3,0.3
			c-0.2,0.4-0.4,0.8-0.7,1.1c-0.2,0.2-0.5,0.3-0.8,0.3c-0.1,0-0.3,0-0.4-0.1c-0.3-0.3-0.4-0.8-0.3-1.2c0.1-0.4,0.2-0.9,0-1.3
			c-0.3-0.6-1.1-0.7-1.8-0.9c-0.2-0.1-0.3-0.2-0.4-0.3c0-0.2,0.1-0.3,0.2-0.4c0.5-0.5,1.1-0.9,1.7-1.2c0-0.8,0-1.6,0.1-2.4
			c0-0.1,0-0.2,0.1-0.3C259.2,154,259.2,154,259.3,154 M259.3,151.6c-0.5,0-0.9,0.1-1.3,0.4c-0.4,0.2-1.1,0.8-1.2,2
			c0,0.4-0.1,0.8-0.1,1.3c-0.4,0.2-0.7,0.5-1,0.8c-1,0.9-1,1.9-1,2.4c0.1,1,0.8,1.9,1.9,2.3c0.1,0,0.2,0.1,0.3,0.1
			c-0.1,1.3,0.4,2.3,1.3,3c0.5,0.4,1.1,0.6,1.8,0.6c0.9,0,1.8-0.4,2.4-1c0.2-0.2,0.4-0.4,0.5-0.6c0.2,0,0.5,0,0.7,0
			c2,0,2.9-1.2,3.1-1.8c0.5-1,0.4-2.3-0.3-3.3c0.3-0.5,0.5-1.1,0.5-1.8c0-1.6-1.4-3.1-3.1-3.3c-0.2,0-0.3,0-0.5,0
			c-0.6,0-1,0.1-1.3,0.2c0,0,0,0,0,0c-0.1-0.1-0.3-0.2-0.5-0.3c-0.3-0.2-0.7-0.4-1.1-0.6C260,151.7,259.7,151.6,259.3,151.6
			L259.3,151.6z"/>
	</g>
	<g>
		<path style="fill:#C4B78E;" d="M247.5,148.7c-0.1,0-0.2-0.1-0.2,0c-0.1,0-0.1,0.1-0.1,0.2c-0.1,0.6-0.1,1.2-0.1,1.9
			c-0.5,0.2-1,0.5-1.4,0.9c-0.1,0.1-0.2,0.2-0.2,0.3c0,0.1,0.2,0.2,0.3,0.3c0.5,0.2,1.2,0.2,1.4,0.7c0.1,0.3,0.1,0.7,0,1
			s0,0.7,0.2,0.9c0.3,0.2,0.7,0.1,0.9-0.2c0.2-0.2,0.4-0.6,0.6-0.9c0-0.1,0.1-0.2,0.2-0.2c0.1,0,0.2,0,0.3,0c0.3,0,0.6,0.1,0.8,0.1
			c0.4,0.1,1,0.1,1.2-0.3c0.1-0.3,0-0.7-0.2-0.9s-0.5-0.4-0.7-0.7c0.1-0.6,0.9-0.9,0.9-1.6c0-0.4-0.4-0.8-0.9-0.8
			c-0.5-0.1-1,0.3-1.4,0.2C248.7,149.5,248,148.9,247.5,148.7z"/>
		<path d="M247.4,148.7c0.1,0,0.1,0,0.2,0c0.5,0.2,1.2,0.8,1.7,0.9c0.1,0,0.1,0,0.2,0c0.4,0,0.7-0.2,1.1-0.2c0,0,0.1,0,0.1,0
			c0.4,0.1,0.9,0.4,0.9,0.8c0,0.6-0.7,1-0.9,1.6c0.2,0.3,0.5,0.4,0.7,0.7c0.2,0.2,0.4,0.6,0.2,0.9c-0.1,0.3-0.5,0.4-0.8,0.4
			c-0.1,0-0.3,0-0.4,0c-0.3,0-0.6-0.1-0.8-0.1c0,0-0.1,0-0.1,0c-0.1,0-0.1,0-0.2,0c-0.1,0-0.1,0.1-0.2,0.2c-0.2,0.3-0.3,0.6-0.6,0.9
			c-0.2,0.2-0.4,0.3-0.6,0.3c-0.1,0-0.2,0-0.3-0.1c-0.3-0.2-0.3-0.6-0.2-0.9c0-0.3,0.1-0.7,0-1c-0.2-0.5-0.9-0.5-1.4-0.7
			c-0.1,0-0.3-0.1-0.3-0.3c0-0.1,0.1-0.2,0.2-0.3c0.4-0.4,0.9-0.7,1.4-0.9c0-0.6,0-1.2,0.1-1.9C247.2,148.8,247.2,148.7,247.4,148.7
			C247.3,148.7,247.3,148.7,247.4,148.7 M247.4,146.3c-0.4,0-0.9,0.1-1.3,0.4c-0.4,0.2-1.1,0.8-1.2,1.9c0,0.3,0,0.5-0.1,0.8
			c-0.2,0.2-0.4,0.3-0.6,0.5c-0.9,0.8-1,1.8-0.9,2.3c0.1,1,0.7,1.7,1.7,2.1c0,1,0.5,1.8,1.2,2.4c0.5,0.4,1.1,0.5,1.7,0.5
			c0.8,0,1.6-0.3,2.3-0.9c0.1-0.1,0.2-0.2,0.3-0.3c0.1,0,0.2,0,0.4,0c1.9,0,2.7-1.2,2.9-1.7c0.4-0.9,0.4-1.9-0.1-2.8
			c0.2-0.4,0.3-0.8,0.3-1.4c0-1.5-1.3-2.9-2.9-3.1c-0.1,0-0.3,0-0.4,0c-0.4,0-0.7,0.1-1,0.1c-0.1,0-0.1-0.1-0.2-0.1
			c-0.3-0.2-0.6-0.4-0.9-0.5C248.1,146.4,247.7,146.3,247.4,146.3L247.4,146.3z"/>
	</g>
	<g>
		<path style="fill:#C4B78E;" d="M237.8,141.3c-0.1,0-0.2-0.1-0.2,0c-0.1,0-0.1,0.1-0.1,0.2c-0.1,0.6-0.1,1.2-0.1,1.9
			c-0.5,0.2-1,0.5-1.4,0.9c-0.1,0.1-0.2,0.2-0.2,0.3c0,0.1,0.2,0.2,0.3,0.3c0.5,0.2,1.2,0.2,1.4,0.7c0.1,0.3,0.1,0.7,0,1
			c0,0.3,0,0.7,0.2,0.9c0.3,0.2,0.7,0.1,0.9-0.2s0.4-0.6,0.6-0.9c0-0.1,0.1-0.2,0.2-0.2c0.1,0,0.2,0,0.3,0c0.3,0,0.6,0.1,0.8,0.1
			c0.4,0.1,1,0.1,1.2-0.3c0.1-0.3,0-0.7-0.2-0.9s-0.5-0.4-0.7-0.7c0.1-0.6,0.9-0.9,0.9-1.6c0-0.4-0.4-0.8-0.9-0.8
			c-0.5-0.1-1,0.3-1.4,0.2C238.9,142.1,238.3,141.6,237.8,141.3z"/>
		<path d="M237.6,141.3c0.1,0,0.1,0,0.2,0c0.5,0.2,1.2,0.8,1.7,0.9c0.1,0,0.1,0,0.2,0c0.4,0,0.7-0.2,1.1-0.2c0,0,0.1,0,0.1,0
			c0.4,0.1,0.9,0.4,0.9,0.8c0,0.6-0.7,1-0.9,1.6c0.2,0.3,0.5,0.4,0.7,0.7c0.2,0.2,0.4,0.6,0.2,0.9c-0.1,0.3-0.5,0.4-0.8,0.4
			c-0.1,0-0.3,0-0.4,0c-0.3,0-0.6-0.1-0.8-0.1c0,0-0.1,0-0.1,0c-0.1,0-0.1,0-0.2,0c-0.1,0-0.1,0.1-0.2,0.2c-0.2,0.3-0.3,0.6-0.6,0.9
			c-0.2,0.2-0.4,0.3-0.6,0.3c-0.1,0-0.2,0-0.3-0.1c-0.3-0.2-0.3-0.6-0.2-0.9c0-0.3,0.1-0.7,0-1c-0.2-0.5-0.9-0.5-1.4-0.7
			c-0.1,0-0.3-0.1-0.3-0.3c0-0.1,0.1-0.2,0.2-0.3c0.4-0.4,0.9-0.7,1.4-0.9c0-0.6,0-1.2,0.1-1.9C237.5,141.5,237.5,141.4,237.6,141.3
			C237.6,141.3,237.6,141.3,237.6,141.3 M237.6,139c-0.4,0-0.9,0.1-1.3,0.4c-0.4,0.2-1.1,0.8-1.2,1.9c0,0.3,0,0.5-0.1,0.8
			c-0.2,0.2-0.4,0.3-0.6,0.5c-0.9,0.8-1,1.8-0.9,2.3c0.1,1,0.7,1.7,1.7,2.1c0,1,0.5,1.8,1.2,2.4c0.5,0.4,1.1,0.5,1.7,0.5
			c0.8,0,1.6-0.3,2.3-0.9c0.1-0.1,0.2-0.2,0.3-0.3c0.1,0,0.2,0,0.4,0c1.9,0,2.7-1.2,2.9-1.7c0.4-0.9,0.4-1.9-0.1-2.8
			c0.2-0.4,0.3-0.8,0.3-1.4c0-1.5-1.3-2.9-2.9-3.1c-0.1,0-0.3,0-0.4,0c-0.4,0-0.7,0.1-1,0.1c-0.1,0-0.1-0.1-0.2-0.1
			c-0.3-0.2-0.6-0.4-0.9-0.5C238.3,139.1,238,139,237.6,139L237.6,139z"/>
	</g>
	<g>
		<path style="fill:#C4B78E;" d="M303.2,139c-0.1,0-0.2-0.1-0.2,0c-0.1,0-0.1,0.1-0.1,0.2c-0.1,0.6-0.1,1.2-0.1,1.9
			c-0.5,0.2-1,0.5-1.4,0.9c-0.1,0.1-0.2,0.2-0.2,0.3c0,0.1,0.2,0.2,0.3,0.3c0.5,0.2,1.2,0.2,1.4,0.7c0.1,0.3,0.1,0.7,0,1
			s0,0.7,0.2,0.9c0.3,0.2,0.7,0.1,0.9-0.2c0.2-0.2,0.4-0.6,0.6-0.9c0-0.1,0.1-0.2,0.2-0.2c0.1,0,0.2,0,0.3,0c0.3,0,0.6,0.1,0.8,0.1
			c0.4,0.1,1,0.1,1.2-0.3c0.1-0.3,0-0.7-0.2-0.9c-0.2-0.2-0.5-0.4-0.7-0.7c0.1-0.6,0.9-0.9,0.9-1.6c0-0.4-0.4-0.8-0.9-0.8
			c-0.5-0.1-1,0.3-1.4,0.2C304.4,139.8,303.8,139.2,303.2,139z"/>
		<path d="M303.1,139c0.1,0,0.1,0,0.2,0c0.5,0.2,1.2,0.8,1.7,0.9c0.1,0,0.1,0,0.2,0c0.4,0,0.7-0.2,1.1-0.2c0,0,0.1,0,0.1,0
			c0.4,0.1,0.9,0.4,0.9,0.8c0,0.6-0.7,1-0.9,1.6c0.2,0.3,0.5,0.4,0.7,0.7c0.2,0.2,0.4,0.6,0.2,0.9c-0.1,0.3-0.5,0.4-0.8,0.4
			c-0.1,0-0.3,0-0.4,0c-0.3,0-0.6-0.1-0.8-0.1c0,0-0.1,0-0.1,0c-0.1,0-0.1,0-0.2,0c-0.1,0-0.1,0.1-0.2,0.2c-0.2,0.3-0.3,0.6-0.6,0.9
			c-0.2,0.2-0.4,0.3-0.6,0.3c-0.1,0-0.2,0-0.3-0.1c-0.3-0.2-0.3-0.6-0.2-0.9c0-0.3,0.1-0.7,0-1c-0.2-0.5-0.9-0.5-1.4-0.7
			c-0.1,0-0.3-0.1-0.3-0.3c0-0.1,0.1-0.2,0.2-0.3c0.4-0.4,0.9-0.7,1.4-0.9c0-0.6,0-1.2,0.1-1.9C302.9,139.1,302.9,139,303.1,139
			C303,139,303.1,139,303.1,139 M303.1,136.6c-0.4,0-0.9,0.1-1.3,0.4c-0.4,0.2-1.1,0.8-1.2,1.9c0,0.3,0,0.5-0.1,0.8
			c-0.2,0.2-0.4,0.3-0.6,0.5c-0.9,0.8-1,1.8-0.9,2.3c0.1,1,0.7,1.7,1.7,2.1c0,1,0.5,1.8,1.2,2.4c0.5,0.4,1.1,0.5,1.7,0.5
			c0.8,0,1.6-0.3,2.3-0.9c0.1-0.1,0.2-0.2,0.3-0.3c0.1,0,0.2,0,0.4,0c1.9,0,2.7-1.2,2.9-1.7c0.4-0.9,0.4-1.9-0.1-2.8
			c0.2-0.4,0.3-0.8,0.3-1.4c0-1.5-1.3-2.9-2.9-3.1c-0.1,0-0.3,0-0.4,0c-0.4,0-0.7,0.1-1,0.1c-0.1,0-0.1-0.1-0.2-0.1
			c-0.3-0.2-0.6-0.4-0.9-0.5C303.8,136.7,303.4,136.6,303.1,136.6L303.1,136.6z"/>
	</g>
	<g>
		<path style="fill:#C4B78E;" d="M296.4,147.3c-0.1,0-0.2-0.1-0.2,0c-0.1,0-0.1,0.1-0.1,0.2c-0.1,0.6-0.1,1.2-0.1,1.9
			c-0.5,0.2-1,0.5-1.4,0.9c-0.1,0.1-0.2,0.2-0.2,0.3c0,0.1,0.2,0.2,0.3,0.3c0.5,0.2,1.2,0.2,1.4,0.7c0.1,0.3,0.1,0.7,0,1
			s0,0.7,0.2,0.9c0.3,0.2,0.7,0.1,0.9-0.2c0.2-0.2,0.4-0.6,0.6-0.9c0-0.1,0.1-0.2,0.2-0.2c0.1,0,0.2,0,0.3,0c0.3,0,0.6,0.1,0.8,0.1
			c0.4,0.1,1,0.1,1.2-0.3c0.1-0.3,0-0.7-0.2-0.9c-0.2-0.2-0.5-0.4-0.7-0.7c0.1-0.6,0.9-0.9,0.9-1.6c0-0.4-0.4-0.8-0.9-0.8
			c-0.5-0.1-1,0.3-1.4,0.2C297.6,148.1,296.9,147.5,296.4,147.3z"/>
		<path d="M296.3,147.2c0.1,0,0.1,0,0.2,0c0.5,0.2,1.2,0.8,1.7,0.9c0.1,0,0.1,0,0.2,0c0.4,0,0.7-0.2,1.1-0.2c0,0,0.1,0,0.1,0
			c0.4,0.1,0.9,0.4,0.9,0.8c0,0.6-0.7,1-0.9,1.6c0.2,0.3,0.5,0.4,0.7,0.7c0.2,0.2,0.4,0.6,0.2,0.9c-0.1,0.3-0.5,0.4-0.8,0.4
			c-0.1,0-0.3,0-0.4,0c-0.3,0-0.6-0.1-0.8-0.1c0,0-0.1,0-0.1,0c-0.1,0-0.1,0-0.2,0c-0.1,0-0.1,0.1-0.2,0.2c-0.2,0.3-0.3,0.6-0.6,0.9
			c-0.2,0.2-0.4,0.3-0.6,0.3c-0.1,0-0.2,0-0.3-0.1c-0.3-0.2-0.3-0.6-0.2-0.9c0-0.3,0.1-0.7,0-1c-0.2-0.5-0.9-0.5-1.4-0.7
			c-0.1,0-0.3-0.1-0.3-0.3c0-0.1,0.1-0.2,0.2-0.3c0.4-0.4,0.9-0.7,1.4-0.9c0-0.6,0-1.2,0.1-1.9C296.1,147.4,296.1,147.3,296.3,147.2
			C296.2,147.3,296.2,147.2,296.3,147.2 M296.3,144.9c-0.4,0-0.9,0.1-1.3,0.4c-0.4,0.2-1.1,0.8-1.2,1.9c0,0.3,0,0.5-0.1,0.8
			c-0.2,0.2-0.4,0.3-0.6,0.5c-0.9,0.8-1,1.8-0.9,2.3c0.1,1,0.7,1.7,1.7,2.1c0,1,0.5,1.8,1.2,2.4c0.5,0.4,1.1,0.5,1.7,0.5
			c0.8,0,1.6-0.3,2.3-0.9c0.1-0.1,0.2-0.2,0.3-0.3c0.1,0,0.2,0,0.4,0c1.9,0,2.7-1.2,2.9-1.7c0.4-0.9,0.4-1.9-0.1-2.8
			c0.2-0.4,0.3-0.8,0.3-1.4c0-1.5-1.3-2.9-2.9-3.1c-0.1,0-0.3,0-0.4,0c-0.4,0-0.7,0.1-1,0.1c-0.1,0-0.1-0.1-0.2-0.1
			c-0.3-0.2-0.6-0.4-0.9-0.5C297,145,296.6,144.9,296.3,144.9L296.3,144.9z"/>
	</g>
</g>
<g>
	<path style="fill:#850404;stroke:#000000;stroke-width:3;stroke-miterlimit:10;" d="M280.2,62.4c-5.7,0-11.5,1.3-16.7,3.9
		c-1.3,0.6-2.2,1.9-2.5,3.4c0,0,0,0,0,0c-0.5,2.8,1,5.6,2.4,8.1c4.6,7.9,10,15.5,16.1,22.4c2.1,2.4,4.6,5,7.7,6.6
		c3.3,1.7,7.2,2.1,10.6,2.5c9.2,1,18.6,2,28,2.7c0.7,0,1.3,0.1,1.8-0.2c0.2-0.1,0.4-0.4,0.5-0.7c0-0.1,0-0.3-0.1-0.4
		c-0.1-0.1-0.1-0.3-0.1-0.4c0-0.1,0.2-0.3,0.3-0.3c1.2-0.4,2-0.4,2.7-0.4c0.9,0,1.5,0,2.7-1c2.3-2,3.4-4.8,2.8-7.2
		c-0.3-1.3-1.1-2.4-1.9-3.5c-6.4-8.7-14.9-16.6-26.7-24.8c-4.7-3.3-9.9-6.6-15.7-8.6C288.4,63.1,284.3,62.4,280.2,62.4z"/>
	<path style="fill:#DB6565;" d="M266.4,89.6c12.1-4.7,25.5-6.6,38.1-3.3s23.9,12.3,28,24.6"/>
	<g>
		<g>
			<path style="fill:#FFE3CC;" d="M330.8,111.3c3-0.9,5.2-3.6,6.1-6.6s0.7-6.2,0.1-9.2c-0.2-0.8-0.4-1.7-1.1-2.1
				c-0.7-0.4-1.6-0.2-2.3,0.3c-0.7,0.5-1.1,1.2-1.5,1.9c-1.8,2.9-4.1,5.4-6.5,7.8c0.7-2.8,0.2-5.8-1.3-8.3c-0.1-0.2-0.3-0.5-0.6-0.6
				c-0.5-0.2-0.9,0.2-1.2,0.6c-1.3,1.6-2.2,3.5-3.4,5.2c-0.9,1.3-1.9,2.5-3.1,3.6c-0.7,0.6-1.8,0.9-2.4-0.1
				c-0.2-0.4-0.3-0.9-0.3-1.4c-0.3-2.2-1.2-4.2-2.6-5.9c-0.2-0.2-0.4-0.4-0.7-0.5c-0.2,0-0.5,0.1-0.7,0.2c-1.1,0.6-1.9,1.6-2.5,2.6
				c-0.7,1-1.3,2.1-2.2,3c-5.7,5-4.9-7.4-6.7-9.5c-0.3-0.4-0.8-0.8-1.3-0.7c-0.6,0.1-1,0.6-1.2,1.1c-1,2-1.6,4.1-1.8,6.4
				c-1.7-2.6-2.9-5.4-3.7-8.4c-0.4-1.4-0.8-2.9-2.1-3.4c-1.2-0.4-2.6,0.4-3.2,1.5c-0.6,1.1-0.7,2.4-0.7,3.7
				c-1.2-2.6-2.3-5.3-3.5-7.9c-0.3-0.8-0.7-1.6-1.3-2.1c-0.6-0.5-1.7-0.7-2.3-0.2c-0.5,0.4-0.7,1-0.8,1.6c-0.5,2.3-0.6,4.6-0.5,6.9
				c0.1,1.8-1,3.9-0.4,5.6"/>
			<path d="M330.8,112.5c-0.5,0-1-0.3-1.1-0.8c-0.2-0.6,0.2-1.3,0.8-1.4c2.4-0.7,4.5-2.9,5.4-5.8c0.7-2.4,0.8-5.2,0.1-8.7
				c-0.1-0.3-0.2-1.2-0.6-1.4c-0.2-0.1-0.7,0-1,0.2c-0.4,0.3-0.8,0.9-1.2,1.5c-1.7,2.7-3.8,5.2-6.7,8.2c-0.4,0.4-0.9,0.5-1.4,0.2
				c-0.5-0.3-0.7-0.8-0.6-1.3c0.6-2.4,0.2-5.1-1-7.2c-0.7,0.9-1.3,1.9-2,3c-0.4,0.7-0.8,1.4-1.3,2.1c-0.9,1.4-2.1,2.7-3.3,3.8
				c-0.7,0.6-1.7,0.9-2.5,0.8c-0.7-0.1-1.3-0.5-1.7-1.1c-0.3-0.6-0.4-1.2-0.5-1.7c-0.3-2.1-1.1-3.9-2.3-5.4c0,0,0,0,0,0
				c-0.9,0.5-1.5,1.4-2,2.2l-0.3,0.4c-0.6,1-1.2,1.9-2.1,2.8c-1.5,1.3-2.8,1.7-4,1.3c-2.2-0.8-2.8-4.1-3.4-7.3
				c-0.2-1.4-0.6-3.3-1-3.7c-0.2-0.2-0.3-0.3-0.3-0.3c0,0-0.1,0.2-0.3,0.5c-1,1.8-1.5,3.8-1.6,5.9c0,0.5-0.4,0.9-0.9,1.1
				c-0.5,0.1-1-0.1-1.3-0.5c-1.7-2.7-3-5.6-3.9-8.7c-0.4-1.3-0.7-2.4-1.4-2.6c-0.6-0.2-1.4,0.3-1.8,1c-0.5,0.9-0.5,2.1-0.6,3.2
				c0,0.5-0.4,1-0.9,1.1c-0.5,0.1-1.1-0.2-1.3-0.7l-3.5-7.9c-0.3-0.6-0.6-1.3-1-1.7c-0.3-0.2-0.7-0.3-0.8-0.2
				c-0.2,0.2-0.3,0.7-0.4,1c-0.4,2.2-0.6,4.4-0.5,6.6c0,0.9-0.1,1.8-0.3,2.6c-0.2,1-0.4,2-0.1,2.7c0.2,0.6-0.1,1.3-0.7,1.5
				c-0.6,0.2-1.3-0.1-1.5-0.7c-0.4-1.3-0.2-2.7,0.1-3.9c0.1-0.7,0.3-1.4,0.3-2c-0.1-2.4,0.1-4.8,0.5-7.2c0.2-0.8,0.4-1.7,1.2-2.3
				c1.2-0.9,2.8-0.6,3.8,0.2c0.9,0.7,1.3,1.7,1.6,2.5l1.9,4.4c0-0.1,0.1-0.2,0.2-0.3c0.8-1.5,2.7-2.7,4.6-2c1.9,0.7,2.5,2.8,2.9,4.2
				c0.5,1.8,1.2,3.6,2,5.3c0.3-1.2,0.8-2.4,1.4-3.5c0.2-0.4,0.8-1.6,2.1-1.7c0.6-0.1,1.4,0.1,2.3,1.1c0.7,0.9,1,2.4,1.5,4.8
				c0.3,1.8,0.9,5.2,1.9,5.5c0.2,0.1,0.8-0.1,1.7-0.9c0.7-0.6,1.2-1.4,1.7-2.2l0.3-0.5c0.7-1.1,1.6-2.3,2.9-3.1
				c0.2-0.1,0.8-0.4,1.5-0.3c0.7,0.1,1.2,0.7,1.4,0.9c1.5,1.8,2.5,4.1,2.8,6.5c0.1,0.5,0.1,0.8,0.2,0.9c0.1,0,0.4,0,0.6-0.2
				c1.1-1,2.1-2.1,2.9-3.4c0.4-0.7,0.8-1.3,1.2-2c0.6-1.1,1.3-2.3,2.2-3.3c1-1.2,2-1.1,2.5-1c0.7,0.2,1.1,0.8,1.2,1.1
				c1,1.7,1.6,3.7,1.7,5.7c1.7-1.9,3-3.6,4.1-5.3c0.5-0.8,1-1.6,1.8-2.2c1.1-0.8,2.5-1,3.6-0.4c1.1,0.6,1.5,1.8,1.7,2.9
				c0.8,3.8,0.7,7.1-0.2,9.8c-1.1,3.6-3.8,6.4-6.9,7.3C331,112.4,330.9,112.5,330.8,112.5z"/>
		</g>
		<g>
			<path style="fill:#FFE3CC;" d="M273.4,70.7c-0.5,4.3,0.9,8.8,3.9,12c0.3-2.9,0.6-5.7,0.9-8.6c0.1-0.8,0.2-1.5,0.6-2.2
				s1.2-1.1,1.9-0.8c0.6,0.3,0.9,1,1.1,1.7c0.7,2.5,0.9,5.1,1.7,7.6c0.8,2.5,2.4,4.9,4.9,5.7c1.1-2,1-4.4,1.2-6.6
				c0.2-2.2,0.9-4.7,2.8-5.9c0,4.7,1,9.5,2.9,13.8c0.4,1,1.1,2.1,2.2,2.2c0.9,0.1,1.7-0.5,2.1-1.3c0.4-0.8,0.6-1.6,0.8-2.5
				c0.6-2.5,1.7-5,3.1-7.2c1.4,1.3,2.2,3.1,2.7,4.9c0.6,2.2,1.1,4.5,1.4,6.9c0.1,0.7,0.2,1.5,0.6,2c0.5,0.6,1.5,0.8,2.3,0.6
				s1.5-0.8,2-1.4c2.7-3.1,2.7-7.6,3.7-11.6c1.3,0.8,2.4,1.8,3,3.2c1.2,2.7,1.8,5.6,1.8,8.6c0,0.4,0,0.9,0.1,1.3
				c0.3,1,1.6,1.5,2.7,1.2c1-0.3,1.8-1.1,2.5-1.9c2.5-3.4,3-7.8,3.4-12.1c0.6,0,1.2,0.4,1.5,0.9c1.8,2.5,2.6,5.6,2.5,8.6
				c-0.1,1.3-0.3,2.8,0.7,3.7c0.6,0.5,1.5,0.6,2.2,0.3c0.8-0.2,1.4-0.8,1.9-1.3c2-2.1,3.1-4.9,3.6-7.8c0.5-2.9,0.4-5.8,0.3-8.7"/>
			<path d="M323.1,95.6c-1.3,0-2.7-0.7-3.1-2c-0.2-0.6-0.2-1.1-0.2-1.6c0-2.9-0.5-5.6-1.7-8.2c-0.3-0.6-0.7-1.1-1.2-1.6
				c-0.1,0.5-0.2,1.1-0.3,1.6c-0.5,3.1-1.1,6.3-3.2,8.7c-0.8,0.9-1.7,1.5-2.6,1.8c-1.3,0.4-2.7,0-3.5-0.9c-0.7-0.8-0.8-1.8-0.9-2.6
				c-0.3-2.3-0.7-4.5-1.3-6.7c-0.4-1.3-0.9-2.4-1.5-3.2c-1,1.7-1.7,3.5-2.1,5.5l-0.1,0.3c-0.2,0.8-0.4,1.7-0.9,2.5
				c-0.7,1.3-2,2-3.3,1.8c-1.9-0.2-2.8-2.3-3.1-2.9c-1.5-3.5-2.5-7.3-2.8-11.1c-0.3,0.8-0.5,1.7-0.6,2.8c0,0.4-0.1,0.9-0.1,1.3
				c-0.1,1.9-0.3,3.9-1.3,5.7c-0.3,0.5-0.9,0.7-1.4,0.6c-2.5-0.9-4.5-3.2-5.6-6.5c-0.5-1.5-0.8-3-1-4.4c-0.2-1.1-0.4-2.2-0.7-3.2
				c-0.2-0.8-0.4-0.9-0.4-0.9c-0.1,0-0.3,0.1-0.5,0.3c-0.3,0.4-0.3,1.1-0.4,1.7l-0.9,8.6c0,0.5-0.4,0.8-0.8,1
				c-0.4,0.1-0.9,0-1.2-0.3c-3.2-3.4-4.8-8.3-4.2-12.9c0.1-0.6,0.7-1.1,1.3-1c0.6,0.1,1.1,0.7,1,1.3c-0.4,3.1,0.3,6.2,1.9,8.8
				l0.6-5.6c0.1-0.8,0.2-1.8,0.8-2.7c0.8-1.2,2.2-1.7,3.4-1.2c1.2,0.5,1.6,1.9,1.7,2.4c0.3,1.1,0.5,2.3,0.7,3.4
				c0.3,1.4,0.5,2.8,0.9,4.1c0.3,1,1.3,3.3,3.2,4.5c0.4-1.2,0.5-2.5,0.6-3.8c0-0.5,0.1-0.9,0.1-1.3c0.3-3.3,1.4-5.6,3.3-6.8
				c0.4-0.2,0.8-0.2,1.2,0c0.4,0.2,0.6,0.6,0.6,1c0,4.6,0.9,9.2,2.8,13.4c0.5,1.2,1,1.5,1.3,1.5c0.3,0,0.7-0.3,1-0.7
				c0.3-0.5,0.4-1.1,0.6-1.8l0.1-0.3c0.6-2.7,1.7-5.2,3.3-7.5c0.2-0.3,0.5-0.5,0.8-0.5c0.3,0,0.7,0.1,0.9,0.3c1.4,1.2,2.4,3.1,3,5.4
				c0.7,2.3,1.1,4.7,1.4,7c0.1,0.6,0.1,1.1,0.4,1.4c0.2,0.2,0.7,0.3,1.1,0.2c0.5-0.1,1-0.5,1.5-1.1c1.7-2,2.2-4.7,2.7-7.6
				c0.2-1.2,0.4-2.4,0.7-3.5c0.1-0.4,0.3-0.6,0.7-0.8c0.3-0.1,0.7-0.1,1,0.1c1.6,1,2.8,2.2,3.4,3.7c1.3,2.8,1.9,6,1.9,9.1
				c0,0.4,0,0.7,0.1,0.9c0.1,0.4,0.7,0.6,1.3,0.4c0.6-0.2,1.2-0.6,1.8-1.5c2.4-3.2,2.8-7.6,3.2-11.5c0.1-0.6,0.6-1.1,1.2-1
				c0.9,0.1,1.8,0.6,2.3,1.4c1.9,2.7,2.9,6,2.7,9.3l0,0.3c-0.1,0.9-0.1,2,0.3,2.4c0.2,0.2,0.7,0.3,1.1,0.1c0.5-0.1,0.9-0.5,1.5-1
				c1.7-1.7,2.8-4.2,3.3-7.2c0.5-2.8,0.4-5.7,0.3-8.5c0-0.6,0.5-1.2,1.1-1.2c0,0,0,0,0,0c0.6,0,1.1,0.5,1.2,1.1
				c0.1,2.9,0.2,5.9-0.4,8.9c-0.6,3.4-2,6.4-3.9,8.4c-0.8,0.8-1.6,1.4-2.4,1.6c-1.2,0.4-2.5,0.2-3.4-0.6c-1.3-1.2-1.2-3-1.1-4.3
				l0-0.3c0.2-2.5-0.5-5.1-1.8-7.2c-0.4,3.5-1.1,7.4-3.4,10.6c-1,1.3-2,2.1-3.1,2.4C323.7,95.6,323.4,95.6,323.1,95.6z"/>
		</g>
		<g>
			<path style="fill:#86D145;" d="M270.8,72.9c2.3,0.6,4.8,0.5,7.2,0.9c12.7,1.8,22.9,12.7,36.2,12.5c2.9,0,5.7-0.6,8.5-0.8
				c4.3-0.2,8.5,0.8,12.8,0.6c11.2-0.5,15.3-9.2,14.9-19.1c-0.2-7.9-5.7-20.2-14-22.3c-8.1-2.1-16.4-2-24.5-3.5
				c-1.1-0.2-2.8-0.5-3.7-1.2c-1.6-1.3-1.1-1.4-1.6-3.7c-0.6-3.1-2-6-4.2-8.3c-1.9-2-4.6-3-7.3-2.3c-1.3,0.3-1.8,0.8-2.6,1.8
				c-0.3,0.4-2,3.5-2.1,3.5c-2.4,0.4-4.8,0.7-7.2,1.1c-0.1,0-0.2,0-0.4,0c-0.1,0-0.2-0.2-0.3-0.3c-1.9-2.3-5.4-3.8-8.4-4.1
				c-3.5-0.3-7.2,1.1-9.3,4c-1.8,2.5-2,5.4-2.9,8c-7,2.1-13.2,6.5-18.1,12c-4.9,5.6-8.4,12.4-10.9,19.4c-3.7,10.5-6.5,18.8-5,30.2
				c0.8,5.6,2.4,11.1,4.2,16.5c1.5,4.5,1.1,9.7,3.7,13.7c3.8,6,10.2,9.6,16.8,11.7c6.8,2.2,15.2,0.8,20.6,6.1
				c5.4-5.6,14.1-3.3,20.8-7c4.2-2.3,7.7-6.3,8.3-11.1c0.5-4.3-1.2-8.2-3.2-12.1c4.1,0.7,8.3,1,12.5,1.3c5.4,0.4,11,0.7,16-1.3
				c6.4-2.7,10.6-9.6,9-16.4c-7.2,3.1-15.1,4.2-22.9,3.2c-13.9-1.8-27.2-7.8-37.6-17.2c-5.4-4.8-9-13.1-10.7-20
				C266.1,70.8,268.4,72.3,270.8,72.9z"/>
			<path d="M273.3,150.3c-0.3,0-0.6-0.1-0.8-0.3c-3.3-3.2-7.7-3.8-12.5-4.4c-2.5-0.3-5.2-0.7-7.6-1.4c-8.1-2.6-13.9-6.7-17.4-12.2
				c-1.7-2.7-2.2-5.8-2.7-8.8c-0.3-1.7-0.6-3.6-1.1-5.2c-1.8-5.6-3.5-11.1-4.2-16.7c-1.6-11.7,1.3-20.1,5-30.7
				c2.7-7.9,6.5-14.5,11.1-19.8c5-5.7,11.3-10,18-12.1c0.2-0.6,0.3-1.2,0.5-1.8c0.5-2,1-4,2.4-5.9c2.2-3.1,6.3-4.8,10.3-4.4
				c2.9,0.3,6.8,1.7,9.1,4.3l6.5-1c0.3-0.4,0.7-1.2,1-1.7c0.4-0.7,0.8-1.3,0.9-1.5c0.8-1.1,1.6-1.8,3.2-2.2c3-0.8,6.2,0.2,8.4,2.6
				c2.3,2.4,3.8,5.5,4.5,8.9c0.1,0.6,0.2,1.1,0.2,1.4c0.1,0.9,0.1,0.9,0.9,1.6c0.6,0.5,2.1,0.8,3,1l0.2,0c3.5,0.7,7,1,10.5,1.4
				c4.6,0.5,9.4,1,14.1,2.2c9.2,2.3,14.6,15.3,14.9,23.4c0.4,12.2-5.6,19.8-16,20.3c-2.3,0.1-4.5-0.1-6.7-0.3
				c-2-0.2-4.1-0.4-6.1-0.3c-1.3,0-2.6,0.2-3.9,0.4c-1.5,0.2-3.1,0.4-4.6,0.4c-7.6,0.1-14.3-3.2-20.7-6.5c-5.3-2.7-10.2-5.2-15.7-6
				c-0.9-0.1-1.8-0.2-2.7-0.3c-1.5-0.1-3.1-0.2-4.7-0.6c-0.9-0.2-1.7-0.5-2.4-0.9c2.2,6.1,5.4,11.3,8.9,14.5
				c10.2,9.2,23.3,15.2,37,16.9c7.7,1,15.4-0.1,22.3-3.1c0.3-0.1,0.7-0.1,1,0c0.3,0.2,0.5,0.4,0.6,0.8c1.6,7.1-2.6,14.8-9.7,17.7
				c-5.3,2.2-11.3,1.8-16.5,1.4c-3.7-0.3-7.1-0.5-10.3-1c1.5,3.2,2.8,6.9,2.3,10.8c-0.6,4.8-3.9,9.2-8.9,11.9
				c-3,1.6-6.4,2.1-9.6,2.6c-4.2,0.6-8.1,1.2-10.9,4.1C273.9,150.2,273.7,150.3,273.3,150.3C273.3,150.3,273.3,150.3,273.3,150.3z
				 M273.2,28.6c-2.9,0-5.8,1.4-7.4,3.5c-1.1,1.5-1.5,3.3-2,5.1c-0.2,0.9-0.4,1.7-0.7,2.6c-0.1,0.4-0.4,0.6-0.8,0.7
				c-6.5,2-12.7,6.1-17.5,11.6c-4.4,5.1-8,11.5-10.7,19.1c-3.6,10.3-6.4,18.5-4.9,29.6c0.7,5.4,2.4,10.8,4.1,16.3
				c0.6,1.8,0.9,3.7,1.2,5.5c0.5,2.9,0.9,5.7,2.4,7.9c3.2,5.1,8.6,8.8,16.2,11.2c2.3,0.7,4.7,1,7.2,1.4c4.6,0.6,9.3,1.2,13,4.3
				c3.3-2.8,7.4-3.4,11.4-4c3-0.5,6.2-0.9,8.8-2.4c4.3-2.3,7.2-6.2,7.7-10.2c0.5-4.1-1.3-8-3.1-11.4c-0.2-0.4-0.2-0.9,0.1-1.2
				c0.3-0.4,0.7-0.5,1.1-0.5c3.9,0.7,7.9,1,12.4,1.3c5,0.3,10.6,0.7,15.5-1.3c5.7-2.4,9.2-8.1,8.6-13.7c-6.9,2.7-14.6,3.7-22.2,2.7
				c-14.1-1.8-27.7-8-38.2-17.5c-4.8-4.3-8.9-12-11.1-20.6c-0.2-0.6,0.2-1.2,0.8-1.4c0.6-0.2,1.2,0.2,1.4,0.8c0.5,2,2.6,3.2,4.5,3.7
				c1.4,0.3,2.8,0.5,4.2,0.6c0.9,0.1,1.9,0.1,2.8,0.3c5.9,0.8,11.3,3.6,16.5,6.2c6.4,3.3,12.6,6.3,19.6,6.2c1.5,0,2.9-0.2,4.4-0.4
				c1.3-0.2,2.7-0.3,4.1-0.4c2.2-0.1,4.3,0.1,6.4,0.3c2.2,0.2,4.3,0.4,6.4,0.3c13-0.6,14-12.8,13.8-17.9
				c-0.2-7.5-5.4-19.2-13.1-21.2c-4.5-1.2-9.2-1.6-13.8-2.1c-3.5-0.4-7.1-0.7-10.7-1.4l-0.2,0c-1.2-0.2-2.9-0.5-4-1.4
				c-1.4-1.2-1.6-1.7-1.8-3.1c0-0.3-0.1-0.8-0.2-1.3c-0.6-3-1.9-5.6-3.9-7.7c-1.7-1.8-4-2.5-6.2-2c-1,0.3-1.3,0.5-1.9,1.3
				c-0.1,0.2-0.4,0.7-0.7,1.2c-1.4,2.4-1.5,2.6-2.2,2.7l-7.2,1.1c-0.2,0-0.5,0.1-0.9-0.1c-0.5-0.2-0.7-0.5-0.8-0.6
				c-1.5-1.9-4.6-3.4-7.6-3.7C273.8,28.7,273.5,28.6,273.2,28.6z"/>
		</g>
		<path d="M320.7,67.7c-0.4,0-0.7-0.2-0.9-0.5c-0.7-1-1.7-1.7-2.9-1.9c-0.6-0.1-1-0.8-0.9-1.4c0.1-0.6,0.8-1,1.4-0.9
			c1.7,0.4,3.2,1.4,4.3,2.8c0.4,0.5,0.3,1.2-0.3,1.6C321.2,67.7,321,67.7,320.7,67.7z"/>
		<path d="M337.9,60.4c-0.4,0-0.9-0.2-1.1-0.7c-0.7-1.4-0.4-3.2,0.6-4.4c0.4-0.5,1.2-0.5,1.6-0.1c0.5,0.4,0.5,1.2,0.1,1.6
			c-0.4,0.5-0.5,1.3-0.3,1.9c0.3,0.6,0,1.3-0.6,1.5C338.2,60.4,338,60.4,337.9,60.4z"/>
		<g>
			<path style="fill:#FFFFFF;" d="M270.2,33.6c-0.3-0.1-0.6-0.2-0.9,0c-0.2,0.1-0.2,0.3-0.3,0.5c-1.1,2.9,0.6,6.4,3.3,7.8
				c2.8,1.5,6.5,0.9,8.8-1.3c2.6-2.5-0.6-3.3-2.7-4C275.6,35.6,272.9,34.6,270.2,33.6z"/>
			<path d="M275.7,43.7c-1.3,0-2.7-0.3-3.9-0.9c-3.3-1.7-5-5.8-3.7-9c0.1-0.2,0.2-0.6,0.7-0.9c0.7-0.5,1.5-0.2,1.8-0.1l0,0
				c2.7,1,5.5,2,8.2,3l0.6,0.2c1.5,0.5,3.3,1.1,3.6,2.6c0.2,0.9-0.2,1.8-1.2,2.8C280.2,42.9,277.9,43.7,275.7,43.7z M269.8,34.5
				c-0.7,2.3,0.6,5.2,2.9,6.5c2.4,1.3,5.7,0.8,7.7-1.1c0.6-0.6,0.7-0.9,0.7-1c-0.1-0.4-1.7-1-2.4-1.2l-0.7-0.2
				C275.3,36.5,272.6,35.5,269.8,34.5L269.8,34.5C269.8,34.5,269.8,34.5,269.8,34.5z"/>
		</g>
		<circle cx="275.3" cy="39.1" r="3.5"/>
		<g>
			<path style="fill:#FFFFFF;" d="M301.2,30.6c0.3-0.1,0.5-0.3,0.8-0.1c0.1,0.1,0.2,0.3,0.3,0.4c1.3,2.7,0.7,8-2.2,8.2
				c-3.2,0.1-5.8,1.7-8-0.2c-2.6-2.2,0.2-3.3,2-4.3C296.5,33.2,298.8,31.9,301.2,30.6z"/>
			<path d="M294.8,40.7c-1.1,0-2.3-0.3-3.3-1.2c-1-0.9-1.5-1.7-1.4-2.6c0.2-1.5,1.7-2.3,3-3l0.5-0.3c2.4-1.3,4.7-2.6,7.1-3.9
				c0.2-0.1,1-0.6,1.7-0.1c0.4,0.2,0.6,0.7,0.7,0.8c1.1,2.3,1,5.8-0.2,7.8c-0.7,1.1-1.6,1.7-2.8,1.8c-0.9,0-1.8,0.2-2.7,0.4
				C296.6,40.5,295.7,40.7,294.8,40.7z M301.5,31.5c-2.3,1.3-4.6,2.6-6.9,3.8l-0.6,0.3c-0.7,0.4-1.9,1-2,1.5c0,0.1,0.2,0.5,0.7,0.9
				c1.1,1,2.4,0.8,4.4,0.4c0.9-0.2,1.9-0.4,2.9-0.4c0.2,0,0.7,0,1.2-0.8C302.1,35.8,302.2,33.2,301.5,31.5z"/>
		</g>
		
			<ellipse transform="matrix(3.970175e-02 -0.9992 0.9992 3.970175e-02 248.7719 332.0757)" cx="297.2" cy="36.6" rx="3.5" ry="3.1"/>
		<path d="M318,121.7c-2.2,0-4.3-0.1-6.3-0.3c-7.7-0.5-16.5-1.1-24.1-4.7c-3.9-1.8-7.5-4.4-10.9-6.9c-4.6-3.3-8.9-6.4-14.1-8
			c-0.8-0.3-1.7-0.5-2.6-0.7c-1.5-0.4-3.1-0.8-4.7-1.4c-10-4.2-9.5-12-8.9-19.6l0-0.6c0-0.6,0.6-1.1,1.2-1.1c0.6,0,1.1,0.6,1.1,1.2
			l0,0.6c-0.5,7.3-0.9,13.7,7.5,17.3c1.4,0.6,2.8,0.9,4.3,1.3c0.9,0.2,1.8,0.4,2.7,0.7c5.5,1.7,10.2,5,14.8,8.3
			c3.4,2.4,6.8,4.9,10.5,6.7c7.2,3.4,15.4,3.9,23.3,4.5c5,0.3,10.6,0.7,15.5-1.3c5.7-2.4,9.2-8.1,8.6-13.7
			c-6.9,2.7-14.6,3.7-22.2,2.7c-14.1-1.8-27.7-8-38.2-17.5c-4.8-4.3-8.9-12-11.1-20.6c-0.2-0.6,0.2-1.2,0.8-1.4
			c0.6-0.2,1.2,0.2,1.4,0.8c0.5,2,2.6,3.2,4.5,3.7c1.4,0.3,2.8,0.5,4.2,0.6c0.9,0.1,1.9,0.1,2.8,0.3c5.9,0.8,11.3,3.6,16.5,6.2
			c6.4,3.3,12.6,6.3,19.6,6.2c1.5,0,2.9-0.2,4.4-0.4c1.3-0.2,2.7-0.3,4.1-0.4c2.2-0.1,4.3,0.1,6.4,0.3c2.2,0.2,4.3,0.4,6.4,0.3
			c13-0.6,14-12.8,13.8-17.9c-0.2-7.5-5.4-19.2-13.1-21.2c-4.5-1.2-9.2-1.6-13.8-2.1c-3.5-0.4-7.1-0.7-10.7-1.4l-0.2,0
			c-1.2-0.2-2.9-0.5-4-1.4c-1.4-1.2-1.6-1.7-1.8-3.1c0-0.3-0.1-0.8-0.2-1.3c-0.6-3-1.9-5.6-3.9-7.7c-1.7-1.8-4-2.5-6.2-2
			c-1,0.3-1.3,0.5-1.9,1.3c-0.1,0.2-0.4,0.7-0.7,1.2c-1.4,2.4-1.5,2.6-2.2,2.7l-7.2,1.1c-0.2,0-0.5,0.1-0.9-0.1
			c-0.5-0.2-0.7-0.5-0.8-0.6c-1.5-1.9-4.6-3.4-7.6-3.7c-3.2-0.3-6.5,1.1-8.2,3.5c-1.1,1.5-1.5,3.3-2,5.1c-0.4,1.6-0.8,3.3-1.7,4.8
			c-1.2,2.1-3.4,3.5-5.6,4.9c-0.9,0.6-1.7,1.1-2.4,1.7c-0.5,0.4-1,0.7-1.5,1.1c-2.6,1.9-5.8,4.2-6.6,6.9c-0.7,2.4,0.1,5.4,1.1,8.7
			c0.2,0.6-0.1,1.3-0.8,1.5c-0.6,0.2-1.3-0.1-1.5-0.8c-0.9-2.8-2.1-6.7-1.1-10c1-3.4,4.6-6,7.4-8.1c0.5-0.4,1-0.7,1.5-1.1
			c0.8-0.6,1.7-1.2,2.6-1.8c1.9-1.2,3.9-2.5,4.8-4.1c0.7-1.2,1.1-2.7,1.4-4.2c0.5-2,1-4,2.4-5.9c2.2-3.1,6.3-4.8,10.3-4.4
			c2.9,0.3,6.8,1.7,9.1,4.3l6.5-1c0.3-0.4,0.7-1.2,1-1.7c0.4-0.7,0.8-1.3,0.9-1.5c0.8-1.1,1.6-1.8,3.2-2.2c3-0.8,6.2,0.2,8.4,2.6
			c2.3,2.4,3.8,5.5,4.5,8.9c0.1,0.6,0.2,1.1,0.2,1.4c0.1,0.9,0.1,0.9,0.9,1.6c0.6,0.5,2.1,0.8,3,1l0.2,0c3.5,0.7,7,1,10.5,1.4
			c4.6,0.5,9.4,1,14.1,2.2c9.2,2.3,14.6,15.3,14.9,23.4c0.4,12.2-5.6,19.8-16,20.3c-2.2,0.1-4.5-0.1-6.7-0.3c-2-0.2-4.1-0.4-6.1-0.3
			c-1.3,0-2.6,0.2-3.9,0.4c-1.5,0.2-3.1,0.4-4.6,0.4c-7.6,0.1-14.3-3.2-20.7-6.5c-5.3-2.7-10.2-5.2-15.7-6c-0.9-0.1-1.8-0.2-2.7-0.3
			c-1.5-0.1-3.1-0.2-4.7-0.6c-0.9-0.2-1.7-0.5-2.4-0.9c2.2,6.1,5.4,11.3,8.9,14.5c10.2,9.2,23.3,15.2,37,16.9
			c7.7,1,15.4-0.1,22.3-3.1c0.3-0.1,0.7-0.1,1,0c0.3,0.2,0.5,0.4,0.6,0.8c1.6,7.1-2.6,14.8-9.7,17.7
			C324.9,121.4,321.4,121.7,318,121.7z"/>
		<path style="fill:#5CAB18;" d="M257.4,115.3c-4.5,0-9.1-0.7-13.4-1.9c-0.6-0.2-1.2-0.4-1.8-0.6c-1.8-0.6-3.4-1.1-5.1-1.3
			c-0.6-0.1-1.1-0.7-1-1.3c0.1-0.6,0.7-1.1,1.3-1c1.9,0.3,3.8,0.9,5.5,1.4c0.6,0.2,1.2,0.4,1.8,0.6c5.8,1.8,12.1,2.3,18.2,1.5
			c0.6-0.1,1.2,0.4,1.3,1c0.1,0.6-0.4,1.2-1,1.3C261.2,115.2,259.3,115.3,257.4,115.3z"/>
		<path style="fill:#5CAB18;" d="M250,120.7c-0.1,0-0.2,0-0.3-0.1c-2.8-0.9-5.7-1.7-8.6-2.3c-0.6-0.1-1-0.8-0.9-1.4
			c0.1-0.6,0.7-1,1.4-0.9c3,0.6,5.9,1.4,8.8,2.3c0.6,0.2,0.9,0.8,0.8,1.5C251,120.4,250.5,120.7,250,120.7z"/>
		<path style="fill:#5CAB18;" d="M257.9,132.7c-6.9,0-13.7-2.2-19.3-6.3c-0.5-0.4-0.6-1.1-0.2-1.6c0.4-0.5,1.1-0.6,1.6-0.2
			c6.5,4.8,14.8,6.8,22.8,5.5c0.6-0.1,1.2,0.3,1.3,1c0.1,0.6-0.3,1.2-1,1.3C261.4,132.6,259.6,132.7,257.9,132.7z"/>
		<path d="M280.8,46.2c-0.3,0-0.7-0.1-0.9-0.4c-0.4-0.5-0.3-1.2,0.2-1.6c2.7-2.2,6.5-3.3,10.2-4.3c0.8-0.2,1.5-0.4,2.2-0.6
			c4.3-1.3,12.3-1.3,16.7-0.1c0.6,0.2,1,0.8,0.8,1.4c-0.2,0.6-0.8,1-1.4,0.8c-4.1-1.1-11.6-1.1-15.4,0.1c-0.7,0.2-1.5,0.4-2.3,0.6
			c-3.4,1-7,1.9-9.3,3.8C281.4,46.1,281.1,46.2,280.8,46.2z"/>
	</g>
</g>
<g>
	<g>
		<g>
			<path style="fill:#DEDEDE;" d="M175.3,210.3c-3,1.7-5.3,4.8-6.1,8.2c-0.2,0.9-0.3,2,0.4,2.7c0.5,0.5,1.4,0.6,2.2,0.4
				s1.4-0.6,2.1-0.9c3.2-1.4,7-0.3,10.5-0.7c0.8-0.1,1.6-0.3,2.2-0.8c0.6-0.5,1-1.3,1.3-2c0.7-2.5-0.8-6.3-3.1-7.7
				C182.2,207.6,177.8,208.9,175.3,210.3z"/>
			<path d="M171,222.7c-0.9,0-1.6-0.3-2.2-0.8c-0.9-0.8-1.1-2.1-0.7-3.8c0.9-3.7,3.3-7,6.7-8.9l0,0c2.6-1.5,7.5-2.9,10.7-1
				c2.7,1.7,4.4,6,3.6,9c-0.3,1.1-0.9,2-1.7,2.6c-0.9,0.7-2,0.9-2.8,1c-1.5,0.2-2.9,0.1-4.3,0.1c-2.1-0.1-4.1-0.2-5.9,0.6
				c-0.2,0.1-0.5,0.2-0.7,0.3c-0.5,0.2-1,0.5-1.6,0.6C171.7,222.7,171.4,222.7,171,222.7z M175.9,211.3L175.9,211.3
				c-2.8,1.6-4.8,4.3-5.5,7.4c-0.2,0.8-0.1,1.4,0.1,1.6c0.2,0.2,0.6,0.2,1.1,0.1c0.4-0.1,0.8-0.3,1.2-0.5c0.3-0.1,0.5-0.3,0.8-0.4
				c2.2-0.9,4.6-0.8,6.8-0.8c1.4,0.1,2.7,0.1,3.9-0.1c0.8-0.1,1.3-0.3,1.7-0.6c0.5-0.4,0.7-1,0.9-1.4c0.6-2-0.7-5.3-2.6-6.4
				C182.1,208.9,178.1,210,175.9,211.3z"/>
		</g>
		<g>
			<path style="fill:#DEDEDE;" d="M174.9,220.1c-2.2,2.7-3.2,6.4-2.7,9.8c0.1,0.9,0.5,2,1.3,2.3c0.7,0.3,1.5,0,2.2-0.4
				c0.6-0.5,1.1-1.1,1.6-1.6c2.5-2.5,6.4-2.8,9.5-4.5c0.7-0.4,1.4-0.9,1.8-1.6c0.4-0.7,0.5-1.6,0.4-2.4c-0.3-2.6-3.1-5.6-5.7-6.1
				C180.4,215.2,176.7,218,174.9,220.1z"/>
			<path d="M174.3,233.6c-0.4,0-0.8-0.1-1.1-0.2c-1.1-0.5-1.8-1.6-2-3.2c-0.6-3.8,0.5-7.8,2.9-10.7l0,0c1.9-2.3,5.9-5.5,9.6-4.8
				c3.2,0.6,6.3,3.9,6.6,7.1c0.1,1.2-0.1,2.2-0.6,3.1c-0.6,1-1.6,1.6-2.2,2c-1.3,0.7-2.7,1.2-4,1.7c-2,0.7-3.9,1.4-5.2,2.7
				c-0.2,0.2-0.3,0.4-0.5,0.5c-0.4,0.4-0.8,0.8-1.2,1.2C175.8,233.3,175,233.6,174.3,233.6z M175.8,220.9c-2,2.5-2.9,5.8-2.4,8.9
				c0.1,0.8,0.4,1.3,0.7,1.4c0.2,0.1,0.7,0,1-0.3c0.3-0.2,0.6-0.6,0.9-0.9c0.2-0.2,0.4-0.4,0.6-0.6c1.7-1.7,3.9-2.5,6.1-3.2
				c1.3-0.5,2.5-0.9,3.6-1.5c0.7-0.4,1.1-0.8,1.4-1.1c0.3-0.5,0.3-1.2,0.3-1.7c-0.2-2.1-2.6-4.6-4.8-5
				C180.7,216.4,177.4,218.9,175.8,220.9L175.8,220.9z"/>
		</g>
		<g>
			<path style="fill:#DEDEDE;" d="M179.7,226.7c-2.2,2.7-3.2,6.4-2.7,9.8c0.1,0.9,0.5,2,1.3,2.3c0.7,0.3,1.5,0,2.2-0.4
				c0.6-0.5,1.1-1.1,1.6-1.6c2.5-2.5,6.4-2.8,9.5-4.5c0.7-0.4,1.4-0.9,1.8-1.6c0.4-0.7,0.5-1.6,0.4-2.4c-0.3-2.6-3.1-5.6-5.7-6.1
				C185.1,221.8,181.4,224.6,179.7,226.7z"/>
			<path d="M179,240.2c-0.4,0-0.8-0.1-1.1-0.2c-0.8-0.3-1.7-1.1-2-3.2c-0.6-3.8,0.5-7.8,2.9-10.7c1.9-2.3,5.9-5.5,9.6-4.8
				c3.2,0.6,6.3,3.9,6.6,7.1c0.1,1.2-0.1,2.2-0.6,3.1c-0.6,1-1.6,1.6-2.2,2c-1.3,0.7-2.7,1.2-4,1.7c-2,0.7-3.9,1.4-5.2,2.7
				c-0.2,0.2-0.3,0.4-0.5,0.5c-0.4,0.4-0.8,0.8-1.2,1.2C180.5,239.9,179.7,240.2,179,240.2z M187.3,223.4c-2.4,0-5.3,2.3-6.7,4.1
				l0,0c-2,2.5-2.9,5.8-2.4,8.9c0.1,0.8,0.4,1.3,0.7,1.4c0.2,0.1,0.7,0,1-0.3c0.3-0.2,0.6-0.6,0.9-0.9c0.2-0.2,0.4-0.4,0.6-0.6
				c1.7-1.7,3.9-2.5,6.1-3.2c1.3-0.5,2.5-0.9,3.6-1.5c0.7-0.4,1.1-0.8,1.4-1.1c0.3-0.5,0.3-1.2,0.3-1.7c-0.2-2.1-2.6-4.6-4.8-5
				C187.7,223.4,187.5,223.4,187.3,223.4z M179.7,226.7L179.7,226.7L179.7,226.7z"/>
		</g>
		<g>
			<path style="fill:#86D145;" d="M182.9,220.2c-2-2.6-1.9-6.3-0.5-9.2c1.8-3.8,5.1-6.2,8.6-8.3c-4.1-5.2-9.1-9.3-13.4-14.2
				c-0.6-0.7-1.2-1.4-1.3-2.2c-0.4-2.7,2.1-7.3,3.2-9.8c1.5-3.5,3.4-7,5.9-9.9c4-4.6,9.9-8,16-7.6c1.8,0.1,3.7,0.6,5.2,1.6
				c1.3,0.9,2.4,2.2,3.3,3.5c1.3,1.7,2.5,3.5,3.7,5.4c1.1,1.7,2.1,3.6,1.7,5.6c-0.3,1.7-1.7,3.1-3.1,4.2c-2.1,1.9-4.3,3.6-6.6,5.3
				c-1.5,1.1-3.1,1.9-4.6,3c-1.5,1-3.1,2.3-4.4,3.6c2.2,2.6,4.5,5.8,4.7,9.3c0.2,3.6,2.2,6.8,2.3,10.4c0.1,2.9,0.1,6-1.5,8.4
				c-0.7,1-1.6,1.8-2.2,2.8c-0.8,1.6-0.7,3.5-1.4,5c-1.2,2.5-4.3,3.6-7,3c-2.7-0.6-4.9-2.6-6.3-4.9
				C184.3,223.8,183.9,221.5,182.9,220.2z"/>
			<path d="M193,231.4c-0.6,0-1.1-0.1-1.7-0.2c-2.7-0.6-5.2-2.5-7.1-5.4c-0.5-0.7-0.8-1.7-1.1-2.5c-0.3-0.9-0.6-1.8-1.1-2.4l0,0
				c-2.1-2.7-2.4-6.8-0.7-10.4c1.8-3.8,4.9-6.2,7.9-8.1c-2.1-2.6-4.5-5-6.9-7.3c-1.9-1.9-3.8-3.8-5.7-5.9c-0.7-0.8-1.4-1.7-1.6-2.8
				c-0.4-2.6,1.3-6.2,2.6-8.9c0.3-0.6,0.5-1.1,0.7-1.5c1.8-4.1,3.8-7.5,6.1-10.2c4.6-5.4,11-8.4,17-8c2.3,0.1,4.2,0.7,5.8,1.8
				c1.5,1,2.6,2.4,3.6,3.7c1.3,1.8,2.6,3.6,3.8,5.4c1.2,2,2.3,4.1,1.9,6.4c-0.4,2.1-2,3.6-3.4,4.9c-2.2,1.9-4.4,3.7-6.7,5.4
				c-0.9,0.7-1.8,1.2-2.7,1.8c-0.7,0.4-1.3,0.8-1.9,1.2c-1.1,0.7-2.2,1.6-3.5,2.7c1.9,2.3,4,5.5,4.2,9.1c0.1,1.6,0.6,3.1,1.1,4.7
				c0.6,1.8,1.2,3.7,1.2,5.8c0.1,2.7,0.2,6.3-1.7,9.1c-0.3,0.4-0.6,0.8-1,1.2c-0.4,0.5-0.8,1-1.1,1.5c-0.3,0.7-0.5,1.5-0.7,2.3
				c-0.2,0.9-0.3,1.8-0.8,2.7C198.5,229.9,195.8,231.4,193,231.4z M183.9,219.5c0.7,0.8,1,1.9,1.4,3c0.3,0.8,0.6,1.6,0.9,2.1
				c0.9,1.4,2.8,3.7,5.6,4.4c2,0.4,4.7-0.3,5.7-2.4c0.3-0.6,0.4-1.4,0.6-2.2c0.2-1,0.4-2,0.9-2.9c0.4-0.7,0.9-1.3,1.4-1.9
				c0.3-0.3,0.6-0.7,0.8-1c1.4-2,1.4-4.7,1.3-7.7c-0.1-1.8-0.6-3.4-1.1-5.2c-0.5-1.7-1.1-3.4-1.2-5.2c-0.2-3.4-2.6-6.5-4.4-8.6
				c-0.4-0.5-0.4-1.2,0.1-1.6c1.6-1.5,3.1-2.7,4.5-3.7c0.7-0.5,1.4-0.9,2.1-1.3c0.9-0.5,1.8-1.1,2.5-1.6c2.2-1.7,4.4-3.4,6.5-5.3
				c1.2-1.1,2.4-2.2,2.7-3.6c0.3-1.5-0.6-3.2-1.6-4.7c-1.1-1.8-2.4-3.6-3.7-5.3c-0.9-1.2-1.8-2.4-3-3.2c-1.2-0.8-2.8-1.3-4.6-1.4
				c-5.3-0.3-10.9,2.4-15.1,7.2c-2.2,2.5-4.1,5.7-5.8,9.6c-0.2,0.5-0.4,1-0.7,1.6c-1.1,2.3-2.7,5.7-2.4,7.6c0.1,0.5,0.5,1.1,1,1.6
				c1.8,2,3.7,3.9,5.6,5.8c2.7,2.7,5.5,5.4,7.9,8.5c0.2,0.3,0.3,0.6,0.2,0.9c-0.1,0.3-0.3,0.6-0.6,0.8c-3.1,1.8-6.4,4.1-8.2,7.8
				C182.4,213.8,182.1,217.2,183.9,219.5L183.9,219.5z"/>
		</g>
		<g>
			<path style="fill:#182B57;" d="M228.8,148.4c-0.6-6-4.6-12-10.5-13.2c-4.4-0.9-8.9,0.9-12.9,3.1c-13.2,7.2-24.1,18.6-30.8,32
				c9.8,7.9,20.7,14.4,32.2,19.3c0.7,0.3,1.4,0.6,2,0.4c0.7-0.1,1.3-0.7,1.9-1.2C220.5,178.8,230.4,163.2,228.8,148.4z"/>
			<path d="M208.4,191.2c-0.9,0-1.6-0.3-2.2-0.6c-11.7-5-22.6-11.5-32.5-19.5l-0.7-0.6l0.4-0.8c6.8-13.6,18-25.2,31.3-32.5
				c3.7-2,8.7-4.3,13.7-3.2c7,1.4,10.8,8.4,11.5,14.2l0,0c2,18.8-13.6,36.4-18.5,41.4c-0.5,0.5-1.3,1.4-2.5,1.6
				C208.8,191.2,208.6,191.2,208.4,191.2z M176,170c9.5,7.6,20,13.8,31.2,18.6c0.6,0.2,1,0.4,1.4,0.4c0.4-0.1,0.8-0.5,1.2-0.9
				c4.7-4.8,19.7-21.7,17.8-39.5l0,0c-0.6-5.2-4-11-9.6-12.2c-4.3-0.9-8.7,1.1-12.1,3C193.2,146.2,182.6,157.1,176,170z"/>
		</g>
		<g>
			<g>
				<path style="fill-rule:evenodd;clip-rule:evenodd;fill:#FFC300;" d="M194.1,166c-2.1-1.2-3.6-3-4.3-5.4
					c-2.1-7.5,3.9-18.4,4.1-18.8l0.5-0.9l0.9,0.5c6.6,3.6,10,2.2,10,2.2l1.4-0.6l0.2,1.5c0,0,0.6,3.7,7.2,7.3l0.9,0.5l-0.5,0.9
					c-0.2,0.5-6.2,11.4-13.7,13.6C198.5,167.4,196.3,167.1,194.1,166"/>
				<path d="M193.6,166.8c-2.4-1.3-4-3.3-4.7-6c-2.2-7.8,3.6-18.4,4.2-19.6l0.5-0.9c0.3-0.5,0.9-0.6,1.4-0.4l0.9,0.5
					c6,3.3,9.1,2.1,9.2,2.1l1.3-0.6c0.3-0.1,0.6-0.1,0.9,0c0,0,0,0,0,0c0.3,0.2,0.5,0.4,0.5,0.7l0.2,1.5l0,0c0,0,0.7,3.3,6.7,6.6
					l0.9,0.5c0.5,0.3,0.7,0.9,0.4,1.3l-0.5,0.9c-0.6,1.2-6.6,11.8-14.3,14.1C198.6,168.4,196,168.2,193.6,166.8z M194.9,142.2
					L194.9,142.2c-0.3,0.5-6.1,11-4.1,18.2c0.6,2.1,1.9,3.7,3.8,4.8s3.9,1.3,6.1,0.6c7.1-2.1,12.9-12.6,13.1-13.1l0-0.1
					c-7.2-3.9-7.7-8.1-7.7-8.1l0-0.1l-0.1,0.1C205.8,144.5,202.1,146.1,194.9,142.2L194.9,142.2z"/>
			</g>
			<path style="fill-rule:evenodd;clip-rule:evenodd;fill:#CC8025;" d="M202.4,159.3c-1,1.8-2.8,1.3-4.7,0.2c-2-1.1-3.3-2.4-2.3-4.1
				s3.3-2.3,5.3-1.2C202.6,155.2,203.4,157.5,202.4,159.3"/>
			<path style="fill-rule:evenodd;clip-rule:evenodd;fill:#CC8025;" d="M195.6,152.9c-0.7-0.4-0.9-1.3-0.4-2.1
				c0.4-0.8,1.3-1.1,2-0.8s0.9,1.3,0.4,2.1C197.2,152.9,196.3,153.2,195.6,152.9"/>
			<path style="fill-rule:evenodd;clip-rule:evenodd;fill:#CC8025;" d="M206.1,154.8c-0.7-0.4-1.7,0-2.2,0.8s-0.2,1.9,0.5,2.3
				s1.7,0,2.2-0.8S206.9,155.2,206.1,154.8"/>
			<path style="fill-rule:evenodd;clip-rule:evenodd;fill:#CC8025;" d="M199.4,152.5c-0.7-0.4-0.9-1.3-0.4-2.1
				c0.4-0.8,1.3-1.1,2-0.8s0.9,1.3,0.4,2.1C201,152.5,200.1,152.9,199.4,152.5"/>
			<path style="fill-rule:evenodd;clip-rule:evenodd;fill:#CC8025;" d="M204.2,151.5c-0.7-0.4-1.7,0-2.2,0.8s-0.2,1.9,0.5,2.3
				c0.7,0.4,1.7,0,2.2-0.8S204.9,151.9,204.2,151.5"/>
		</g>
	</g>
	<g>
		<path style="fill:#182B57;stroke:#000000;stroke-width:2;stroke-linecap:round;stroke-linejoin:round;stroke-miterlimit:10;" d="
			M205.6,135.7c3.9,2.7,7.4,5.9,10.6,9.4c0.1,0.1,0.3,0.3,0.4,0.3c0.1,0,0.2,0,0.3-0.1l15.6-5.8c-0.6-0.9-1.2-1.8-1.8-2.8
			c-1.1-1.8-2.2-3.6-3.6-4.9c-1.7-1.6-3.5-1.4-6-1.1l-0.7,0.1c-2.8,0.4-5.6,1-8.3,1.9c-0.3,0.1-1.4,0.6-2.6,1.2
			C207.5,134.8,206.3,135.4,205.6,135.7z"/>
		<path style="fill:#850404;stroke:#000000;stroke-width:2;stroke-linecap:round;stroke-linejoin:round;stroke-miterlimit:10;" d="
			M214.6,131.9c0,0,7.2,5.2,9.2,10.8l-7.2,2.7l-11-9.7C205.6,135.7,212.4,132.2,214.6,131.9z"/>
	</g>
</g>
</svg>
