<?xml version="1.0" encoding="utf-8"?>
<!-- Generator: Adobe Illustrator 23.0.2, SVG Export Plug-In . SVG Version: 6.00 Build 0)  -->
<svg version="1.1" id="레이어_1" xmlns="http://www.w3.org/2000/svg" xmlns:xlink="http://www.w3.org/1999/xlink" x="0px"
	 y="0px" viewBox="0 0 338 380" style="enable-background:new 0 0 338 380;" xml:space="preserve">
<style type="text/css">
	.st0{fill:#FFFFFF;}
	.st1{fill:#673101;}
	.st2{fill:#00A2E7;}
	.st3{fill:#008AC4;}
	.st4{fill:#FFB400;}
	.st5{fill:#FFE4A9;}
	.st6{fill:#C92114;}
	.st7{fill:#FFC0BB;}
</style>
<title>자산 1</title>
<g>
	<path class="st0" d="M135.4,78.8l0.2-0.2c3.2-3.9,2.7-9.8-1.3-13c-3.1-2.5-4.8-7.6-5.2-9.2c-0.2-1.5-0.2-4,0.8-4.9
		c2.4-2.2,10-2.1,14.3-1.2c5,1,9.9-2.2,10.9-7.2c1-4.9-2.1-9.7-6.9-10.9c-2-0.5-20.2-4.1-30.8,5.6c-3.8,3.5-8.1,10.1-6.6,21.3
		l0.1,0.6c0.2,1.3,2.8,12.9,11.6,20.1C126.5,83,132.2,82.5,135.4,78.8z"/>
	<path class="st1" d="M139.9,46c0.5-0.5,1.1-0.9,1.8-1.1c-2,0.2-3.8-1.3-4-3.3s1.3-3.8,3.3-4l0,0c-2,0-3.6-1.6-3.7-3.6
		c0-0.9,0.3-1.8,1-2.5c0.1-0.1,0.3-0.2,0.4-0.3c3.2,0,6.4,0.4,9.6,1c5,1.2,8,6.2,6.9,11.1c-1.2,4.9-6,7.9-10.9,6.9
		c-1.7-0.4-3.4-0.6-5.2-0.6C138.7,48.4,139,47,139.9,46z"/>
</g>
<g>
	<path class="st0" d="M86.8,100.2h-0.3c-5.1,0.1-9.3-4-9.3-9.1c0-4-2.9-8.5-3.9-9.8c-1.1-1.1-2.9-2.7-4.4-2.4
		c-3.2,0.5-7.9,6.5-9.9,10.4c-2.4,4.5-8,6.2-12.5,3.8c-4.3-2.3-6.1-7.5-4-12c0.9-1.9,9.4-18.3,23.6-20.5c5.2-0.8,12.9,0,20.8,8.2
		l0.4,0.4c0.8,1,8.3,10.2,8.4,21.7C95.6,95.9,91.7,100,86.8,100.2z"/>
	<path class="st1" d="M58.4,83.1c-0.7,0-1.4,0.3-2,0.7c0.7-0.7,1-1.6,1-2.6c-0.1-2-1.8-3.6-3.8-3.5c-0.9,0-1.8,0.4-2.4,1.1
		c1.3-1.6,1-3.8-0.5-5.1c-0.7-0.6-1.6-0.8-2.5-0.8c-0.2,0-0.4,0.1-0.5,0.1c-2,2.5-3.7,5.3-5.2,8.2c-2.1,4.6-0.1,10.1,4.6,12.2
		c4.4,2,9.7,0.3,12-4c0.8-1.5,1.7-3,2.8-4.4C61.1,83.7,59.8,83,58.4,83.1z"/>
</g>
<g>
	<path class="st0" d="M206.1,218.2c-1.8-2.1-5-2.4-7.1-0.6c-2.1,1.8-2.4,5-0.6,7.1l28.8,34.1l7.7-6.5L206.1,218.2z"/>
	<path class="st2" d="M304.8,273.2c-0.5-0.6-1.1-1.1-1.6-1.6c-1.2-1.2-2.5-2.3-4-3.1c-4.1-2.4-8.9-3.4-13.7-2.9
		c-2.7,0.3-5.4,1.1-7.9,2.4l0,0c-0.1,0-0.1,0.1-0.1,0.1l-0.2,0.1c-8.6,4.8-15.4,16.1-15.4,16.1l-8.9-10.5l-18.2-21.5l-7.7,6.5l0,0
		l43,50.9l5.1-4.3l19.8-16.8l12.7-10.7C307,276.2,306,274.6,304.8,273.2z"/>
	<g>
		<path class="st3" d="M278.2,273.9l3.7,1c2.2-4.2,5.9-7.5,10.4-9c-2.2-0.4-4.5-0.5-6.8-0.2C279.9,269.3,278.3,273.3,278.2,273.9z"
			/>
		<path class="st3" d="M288,278.8l4.3,1.2c0,0,1.8-4.6,10.8-8.4c-1.2-1.2-2.5-2.3-4-3.1C290.1,272.8,288.2,278.1,288,278.8z"/>
	</g>
</g>
<g>
	<path class="st0" d="M169,240.8c-1.2-2.6-4.2-3.7-6.7-2.5c-2.4,1.1-3.6,3.9-2.7,6.4l17,41.3l9.4-3.9L169,240.8z"/>
	<path class="st2" d="M246.2,323.3c-0.3-0.7-0.7-1.4-1.1-2c-0.8-1.5-1.8-2.9-2.9-4.2c-1.6-1.8-3.6-3.4-5.8-4.6
		c-2-1.1-4.2-1.9-6.4-2.3c-2.7-0.6-5.5-0.6-8.2-0.1l0,0c-0.1,0-0.1,0-0.2,0h-0.2c-9.6,2-19.6,10.7-19.6,10.7l-5.2-12.7l-10.7-26
		l-9.4,3.9l0,0l25.3,61.6l6.2-2.6l24-9.9l15.4-6.3C247.4,326.9,246.9,325.1,246.2,323.3z"/>
	<g>
		<path class="st3" d="M220.7,315.8l3.2,2.1c3.4-3.4,7.9-5.3,12.7-5.5c-2-1.1-4.2-1.9-6.4-2.3C223.6,312,221,315.4,220.7,315.8z"/>
		<path class="st3" d="M228.5,323.5l3.8,2.5c0,0,3.2-3.9,12.9-4.7c-0.8-1.5-1.8-2.9-2.9-4.2C232.3,318.5,228.9,322.9,228.5,323.5z"
			/>
	</g>
</g>
<g>
	<path class="st0" d="M194.1,132.3c-4.9,2.4-10.6,8.8-8.4,13.9c1.5,3.3,7.1,2.3,12,0c1.1-0.5,21.5-8.8,35.5-36.2
		c-5.9-0.3-11.6-2.5-16.1-6.3C207.5,123.8,194.9,131.8,194.1,132.3z"/>
	<path class="st3" d="M239.8,56.1c-0.9-0.3-1.9-0.5-2.8-0.5c-5.1,0.1-9.6,4.9-10.2,10.8c-1.1,12.9-4.4,25.4-9.8,37.2
		c4.5,3.8,10.2,6,16.1,6.3c5.7-11.2,10.3-25.5,12-43.8C245.6,61.4,243.3,57.4,239.8,56.1z"/>
</g>
<g>
	<path class="st4" d="M98.9,180c-9.9,3.6-11.4,0.2-12.4-3c-0.1-0.9-0.3-1.8-0.5-2.6l0,0c-0.6-2.6-1.4-5.2-2.4-7.6
		c-6-14.5-18.2-23.3-27.3-19.5s-11.6,18.6-5.6,33.1c3.4,8.2,8.8,14.6,14.5,17.9c-1.7,6.4-1,14.7,2.3,22.9
		c6,14.5,18.2,23.3,27.3,19.5s11.6-18.6,5.6-33.1c-1-2.4-5.5-11.6-5.5-11.6c-2.9-5.4,6.9-8.6,6.9-8.6l6.5-2.5l-3.2-7.7L98.9,180z
		 M64.4,166.7c2.8-1.1,6.8,2.3,9,7.7s1.8,10.6-1,11.8s-6.8-2.3-9-7.7S61.6,167.8,64.4,166.7z M87.4,225c-2.8,1.1-6.8-2.3-9-7.7
		s-1.8-10.6,1-11.8s6.8,2.3,9,7.6S90.2,223.9,87.4,225L87.4,225z"/>
	<g>
		<path class="st5" d="M56.9,182.7c-1.4,0.6-2.9-0.1-3.5-1.4c-0.3-0.7-7-17.2-0.5-27.1c0.8-1.3,2.4-1.7,3.7-0.9s1.7,2.4,0.9,3.7
			c0,0.1-0.1,0.1-0.1,0.2c-4.1,6.2-0.7,18.1,1,22.1C58.9,180.6,58.3,182.1,56.9,182.7z"/>
		<path class="st5" d="M72.6,219.8c-1.4,0.6-2.9-0.1-3.5-1.4c-3.5-8.5-1.4-15.1-1.3-15.4c0.5-1.4,2.1-2.1,3.5-1.5
			c1.3,0.5,2,1.9,1.6,3.2c-0.1,0.2-1.5,5.1,1.2,11.7C74.6,217.7,73.9,219.2,72.6,219.8z"/>
	</g>
</g>
<g>
	<path class="st2" d="M223.4,185.2l-23.8-57.6l-52.7-72.5c-25.3-0.9-38.2,6.4-38.2,6.4c-50.3,20.6-33.8,60.6-33.8,60.6l18.3,44.4
		l25.5,61.7v0.1c7.9,19.2,37.8,25.1,66.7,13.1S231.3,204.4,223.4,185.2z"/>
	<path class="st3" d="M203.2,157.7c-3.3-9.4-13.6-14.3-23-11s-14.3,13.6-11,23c0.2,0.6,0.4,1.2,0.7,1.7l10.7,26l0,0
		c3.6,9.3,14,13.9,23.2,10.4c9.3-3.6,13.9-14,10.4-23.2c-0.1-0.3-0.2-0.6-0.4-0.9L203.2,157.7C203.3,157.7,203.2,157.7,203.2,157.7z
		"/>
</g>
<g>
	<path class="st0" d="M105.4,168c-2.6-0.5-15.9-2.3-32.9-17c-1.1,2.3-2.4,4.4-4,6.3c-2.1,2.6-4.7,4.8-7.7,6.4
		c23.9,19.2,45.8,18.4,47,18.4c5.4,0.1,10.9-1.2,10.9-4.9C118.7,171.6,110.7,169,105.4,168z"/>
	<path class="st3" d="M68.5,157.4c1.6-1.9,2.9-4.1,4-6.3c-9.6-8.5-17.6-18.5-23.8-29.7c-2.9-5.1-9.1-7.7-13.8-5.7
		c-0.9,0.4-1.7,0.9-2.4,1.6c-2.7,2.7-3.1,7.2-0.8,11.3c9.2,16.1,19.2,27.3,29.1,35.2C63.8,162.1,66.4,159.9,68.5,157.4z"/>
</g>
<path class="st0" d="M117.5,59.1c0,0,10.8-4.1,13.7-4.7c33.6-8.3,47.7,15.5,50.1,20.2c10.8,1.5,20,8.6,24.1,18.6l0.9,2.2
	c6.4,15.6-1,33.5-16.6,39.9L155,149.6c-27.5,11.3-58.1,0.2-68.4-24.8S90.1,70.5,117.5,59.1z"/>
<g>
	<path d="M170.9,98.1c0.4,1.2-0.3,2.5-1.5,2.9s-2.5-0.3-2.9-1.5c-0.4-1.1,0.2-2.4,1.3-2.8C169.1,96.2,170.4,96.9,170.9,98.1z"/>
	<path d="M171.7,87L171.7,87c1.8-0.8,3.9,0.1,4.6,1.9l0.1,0.3c0.7,1.8-0.1,3.9-1.9,4.6l0,0c-1.8,0.7-3.9-0.1-4.6-1.9l-0.1-0.3
		C169,89.8,169.9,87.8,171.7,87z"/>
	<path d="M148.7,96.5L148.7,96.5c1.8-0.8,3.9,0.1,4.6,1.9l0.1,0.3c0.7,1.8-0.1,3.9-1.9,4.6l0,0c-1.8,0.7-3.9-0.1-4.6-1.9l-0.1-0.3
		C146,99.3,146.9,97.2,148.7,96.5z"/>
	<path class="st6" d="M181.6,114.4c-1.3-3.3-3-6.4-5.1-9.3c-1,0.9-2.2,1.7-3.5,2.2c-1.3,0.6-2.8,0.9-4.2,0.9c0.6,3.5,1.6,6.9,3,10.2
		c3.6,8.8,7.2,11.2,9.9,10.1S185.2,123.2,181.6,114.4z"/>
</g>
<g>
	<path class="st7" d="M117.5,125.7c3.3,8,12.5,11.7,20.5,8.4s11.7-12.5,8.4-20.5c-3.3-7.9-12.4-11.7-20.4-8.5
		C118,108.4,114.1,117.6,117.5,125.7C117.5,125.6,117.5,125.7,117.5,125.7z"/>
	<path class="st7" d="M187.6,96.8c-2.7-6.5-0.7-14,4.8-18.4c5.9,3.4,10.4,8.6,13,14.8l0.9,2.2c1.3,3.1,2,6.5,2.2,9.8
		c-0.1,0.1-0.3,0.1-0.4,0.2C200.1,108.7,190.9,104.9,187.6,96.8L187.6,96.8z"/>
</g>
</svg>
