<?xml version="1.0" encoding="utf-8"?>
<!-- Generator: Adobe Illustrator 23.0.2, SVG Export Plug-In . SVG Version: 6.00 Build 0)  -->
<svg version="1.1" id="레이어_1" xmlns="http://www.w3.org/2000/svg" xmlns:xlink="http://www.w3.org/1999/xlink" x="0px"
	 y="0px" viewBox="0 0 317 410" style="enable-background:new 0 0 317 410;" xml:space="preserve">
<style type="text/css">
	.st0{fill:#F4CE2F;}
	.st1{fill:#F2B630;}
	.st2{fill:#EF9D30;}
	.st3{fill:#C93C1B;}
	.st4{fill:#FFFFFF;}
	.st5{fill:#673101;}
	.st6{fill:#00A2E7;}
	.st7{fill:#DD9900;}
	.st8{fill:#C18100;}
	.st9{fill:#FFB400;}
	.st10{fill:#FFE4A9;}
	.st11{fill:#4D5B77;}
	.st12{fill:#C64224;}
	.st13{fill:#D34A20;}
	.st14{fill:#EFE630;}
	.st15{fill:#EDC932;}
	.st16{fill:#7888A3;}
	.st17{fill:#8393AA;}
</style>
<title>자산 15</title>
<g>
	<polygon class="st0" points="207.7,90.9 208.9,30.4 169.1,81.8 148.5,43.5 140.9,88.6 77.7,59.6 95.4,110.7 53.7,120.7 86.2,132.7 
		73,148.4 90.4,147.1 77.7,193.6 115.7,182.4 113.6,206.3 136.8,199.2 156.8,235.9 184.7,189.5 208.2,209.6 205.1,177.6 
		258.8,190.7 231.3,144.4 281.3,131.7 229.2,117.9 266.9,66.1 	"/>
	<polygon class="st1" points="183.6,182.8 202.9,199.3 200.2,171.9 249.8,184 224.4,141.4 260.8,131.6 221.8,120.8 254.2,76.1 
		203.2,97.5 204.3,43.5 168.5,89.7 150.7,56.8 144.3,94.9 85.2,67.8 101.1,113.8 68.6,121.6 93.5,130.8 82.9,143.3 96.2,142.3 
		83.9,187.3 120.6,176.4 118.5,200.2 138.9,194 156.9,227.1 	"/>
	<polygon class="st2" points="181.4,169.5 192.1,178.6 190.3,160.5 231.7,170.6 210.7,135.4 229.6,131.4 207,126.4 228.9,96.2 
		194.2,110.7 195,69.6 167.2,105.6 155.1,83.2 151,107.6 100.1,84.2 112.4,120 98.5,123.4 108.1,126.9 102.9,133.1 107.9,132.8 
		96.4,174.5 130.5,164.5 128.3,188.1 143.2,183.6 157.3,209.6 	"/>
</g>
<g>
	<path class="st3" d="M224.2,246.9c-8,0-15.8,2.1-22.8,6c-11.4-8.9-26.9-14.4-44.1-14.4c-16.6,0-31.7,5.2-43,13.6
		c-6-3.3-11.6-5.1-18.9-5.1c-23.2,0-42.1,18.9-42.1,42.1v50.6h213V289C266.4,265.7,247.5,246.9,224.2,246.9L224.2,246.9z"/>
</g>
<g>
	<path class="st4" d="M194.4,172l0.3-0.1c4.7-2,7-7.4,5.1-12.1c-1.5-3.7-0.6-9-0.1-10.6c0.6-1.5,1.7-3.6,3.1-4
		c3.2-0.8,9.8,2.9,13.2,5.8c3.8,3.3,9.6,2.9,13-1l0,0c3.3-3.9,2.9-9.7-0.9-13.1c-1.6-1.4-15.8-13.3-29.7-9.8
		c-5.1,1.3-11.9,5-16,15.7l-0.2,0.6c-0.4,1.3-3.7,12.7,0.6,23.4C184.5,171.4,189.7,173.7,194.4,172z"/>
	<path class="st5" d="M213.9,145c0.7-0.2,1.4-0.3,2.1-0.1c-0.9-0.4-1.6-1.2-1.9-2.1c-0.7-1.9,0.3-4,2.2-4.8c0.9-0.3,1.8-0.3,2.6,0.1
		c-0.8-0.4-1.4-1.1-1.7-1.9c-0.7-1.9,0.3-4.1,2.2-4.8c0.2-0.1,0.4-0.1,0.5-0.1c2.8,1.6,5.5,3.4,7.9,5.5c3.8,3.4,4.2,9.2,0.9,13.1
		c-3.3,3.9-9.1,4.3-13,1l0,0c-1.3-1.1-2.8-2.1-4.3-3C211.8,146.6,212.7,145.5,213.9,145z"/>
</g>
<g>
	<path class="st4" d="M141.7,165.6l-0.3-0.1c-4.5-2.4-6.2-8-3.9-12.6c1.9-3.6,1.5-8.9,1.2-10.5c-0.4-1.5-1.3-3.8-2.7-4.2
		c-3.1-1.1-10,2-13.7,4.5c-4.1,2.9-9.9,1.9-12.8-2.2c0,0,0,0,0-0.1c-2.9-4.2-1.9-9.9,2.2-12.9c1.7-1.2,17-11.7,30.5-6.8
		c4.9,1.8,11.4,6.2,14.3,17.2l0.1,0.6c0.3,1.3,2.4,13-2.9,23.2C151.6,166,146.2,167.8,141.7,165.6z"/>
	<path class="st5" d="M124.9,136.9c-0.6-0.3-1.4-0.4-2.1-0.3c0.9-0.3,1.7-1,2.1-1.9c0.9-1.9,0.1-4.1-1.7-5c-0.8-0.4-1.8-0.5-2.6-0.2
		c0.8-0.3,1.5-1,1.8-1.7c0.9-1.8,0.2-4.1-1.7-5l0,0c-0.2-0.1-0.3-0.1-0.5-0.1c-3,1.3-5.8,2.9-8.5,4.7c-4.1,3-5.1,8.7-2.2,12.9
		s8.6,5.2,12.8,2.3c0,0,0,0,0.1,0c1.4-1,3-1.8,4.6-2.6C126.9,138.7,126.1,137.5,124.9,136.9z"/>
</g>
<path class="st4" d="M212.3,291.3c-1-0.1-2-0.4-2.8-0.9c-3.3-1.9-4.5-6.2-2.6-9.6c0,0,0-0.1,0.1-0.1c5.4-9.3-1.4-18.5-1.7-18.9
	c-2.3-3.2-1.6-7.6,1.6-9.9c3-2.2,7.2-1.6,9.5,1.2c0.5,0.7,13.1,17,2.7,34.7C217.7,290.3,215,291.6,212.3,291.3z"/>
<path class="st4" d="M97.1,279.2c3.9,0.4,7.3-2.4,7.8-6.3c0.1-1,0-2-0.3-3c-3.4-10.2,5.2-17.8,5.6-18.1c3-2.5,3.4-7,0.9-10
	s-7-3.4-10-0.9c-0.7,0.6-16.3,13.9-9.9,33.3C92,277,94.3,278.9,97.1,279.2z"/>
<path class="st4" d="M219.5,191.9c1.8-25.5-16.1-37.7-31.5-43c-1.9-0.7-8.2-2.4-9.7-2.7c-3.7-0.8-7.5-1.4-11.3-1.7
	c-29-2.8-54.7,15.9-58.1,42l0,0c0,0-9.4,41.1,37.1,53.7c3.7,0.9,7.5,1.6,11.3,2l33.9,3.6c16.8,1.8,33.1-12.7,34.9-29.5l0,0
	C227.2,206.6,226.1,198.2,219.5,191.9z"/>
<path class="st6" d="M169.3,141.3c-54-5.8-60.8,37.2-60.8,37.2l-5.1,48.1l-7.1,67c-2.2,20.8,21.2,40.3,52.3,43.5s58-10.9,60.2-31.7
	l7.5-70.9l4.6-43.7C226.9,145.7,169.3,141.3,169.3,141.3z"/>
<g>
	<g>
		<path class="st7" d="M165.3,253.1c-0.5,5.1-5.1,8.8-10.3,8.3c-5.1-0.5-8.8-5.1-8.3-10.3s5.1-8.8,10.3-8.3l0,0
			C162.1,243.4,165.8,248,165.3,253.1z"/>
		<path class="st8" d="M155.3,259.1c-3.8-0.4-6.6-3.9-6.2-7.7c0.4-3.8,3.9-6.6,7.7-6.2s6.6,3.9,6.2,7.7l0,0
			C162.6,256.7,159.1,259.5,155.3,259.1z"/>
	</g>
	<path class="st9" d="M162.6,247.5c-0.3,3.3-3.3,5.7-6.6,5.4h-0.1l0,0c-3.3-0.3-5.7-3.2-5.4-6.5v-0.1l4.2-39.4
		c0.3-3.3,3.3-5.7,6.6-5.4h0.1l0,0c3.3,0.3,5.7,3.3,5.4,6.6v0.1L162.6,247.5z"/>
	<path class="st9" d="M157.4,296.6c-0.4,3.3-3.3,5.7-6.6,5.4l0,0c-3.3-0.4-5.7-3.3-5.4-6.6l4.1-39.4c0.4-3.3,3.3-5.7,6.6-5.4l0,0
		c3.3,0.4,5.7,3.3,5.4,6.6L157.4,296.6z"/>
	<path class="st10" d="M157.4,222.8c-1.3-0.1-2.2-1.2-2.1-2.5c1.1-14.4,2.6-14.9,3.9-15.2c1.3-0.3,2.5,0.4,2.9,1.6
		c0.2,0.8,0,1.6-0.5,2.2c-0.2,0.6-1,3-1.6,11.8C159.9,221.9,158.8,222.9,157.4,222.8L157.4,222.8z"/>
</g>
<g>
	<path class="st11" d="M284.4,376.6c-0.2,1.9-1.8,3.3-3.7,3.1h-26.3c-1.9,0.1-3.5-1.3-3.7-3.1v-41.1c0.2-1.9,1.8-3.3,3.7-3.1h26.3
		c1.9-0.1,3.5,1.3,3.7,3.1V376.6z"/>
	<path class="st12" d="M267.5,317.1c-10.5,0-19.1,4.5-19.1,10.1v34.1h38.1v-34.1C286.6,321.7,278.1,317.1,267.5,317.1z"/>
</g>
<g>
	<path class="st11" d="M66.3,376.5c-0.2,1.9-1.8,3.3-3.7,3.1H36.3c-1.9,0.1-3.5-1.3-3.7-3.1v-41.1c0.2-1.9,1.8-3.3,3.7-3.1h26.3
		c1.9-0.1,3.5,1.3,3.7,3.1L66.3,376.5z"/>
	<path class="st12" d="M49.5,317c-10.5,0-19.1,4.5-19.1,10.1v34.1h38.1v-34.1C68.5,321.5,60,317,49.5,317z"/>
</g>
<path class="st13" d="M262.1,273.7H57.5c-2.6,0-4.7,2.1-4.7,4.7l0,0v57.4h214v-57.4C266.8,275.8,264.7,273.7,262.1,273.7z"/>
<g>
	<path class="st14" d="M73.2,311.5H102c2.6,0,4.7,2.1,4.7,4.7v6.9c0,2.6-2.1,4.7-4.7,4.7H73.2c-2.6,0-4.7-2.1-4.7-4.7v-6.9
		C68.5,313.6,70.6,311.5,73.2,311.5z"/>
	<path class="st15" d="M102.1,311.5H87.7v16.3h14.4c2.6,0,4.7-2.1,4.7-4.7l0,0v-6.9C106.8,313.6,104.7,311.5,102.1,311.5
		L102.1,311.5z"/>
</g>
<g>
	<path class="st14" d="M222.7,311.5h28.8c2.6,0,4.7,2.1,4.7,4.7v6.9c0,2.6-2.1,4.7-4.7,4.7h-28.8c-2.6,0-4.7-2.1-4.7-4.7v-6.9
		C218,313.6,220.1,311.5,222.7,311.5z"/>
	<path class="st15" d="M251.5,311.5h-14.4v16.3h14.4c2.6,0,4.7-2.1,4.7-4.7l0,0v-6.9C256.2,313.6,254.1,311.5,251.5,311.5
		L251.5,311.5z"/>
</g>
<g>
	<path class="st16" d="M271.6,339.6c1.9,0,3.5-1.6,3.5-3.5s-1.6-3.5-3.5-3.5H53c-1.9,0-3.5,1.6-3.5,3.5s1.6,3.5,3.5,3.5l0,0H271.6z"
		/>
	<rect x="55.8" y="339.6" class="st17" width="213" height="10.6"/>
	<path class="st16" d="M271.6,350.2H53c-1.9-0.1-3.6,1.4-3.7,3.3c-0.1,1.9,1.4,3.6,3.3,3.7c0.1,0,0.3,0,0.4,0h218.6
		c1.9,0.1,3.6-1.4,3.7-3.3s-1.4-3.6-3.3-3.7C271.8,350.2,271.7,350.2,271.6,350.2z"/>
</g>
</svg>
