<?xml version="1.0" encoding="UTF-8"?>
<svg id="_레이어_1" data-name="레이어_1" xmlns="http://www.w3.org/2000/svg" version="1.1" viewBox="0 0 254 136">
  <!-- Generator: Adobe Illustrator 29.5.1, SVG Export Plug-In . SVG Version: 2.1.0 Build 141)  -->
  <defs>
    <style>
      .st0 {
        stroke-width: 1.29px;
      }

      .st0, .st1, .st2, .st3, .st4 {
        stroke-miterlimit: 10;
      }

      .st0, .st2, .st3, .st4 {
        stroke: #231815;
      }

      .st0, .st5 {
        fill: #b51e00;
      }

      .st1 {
        stroke: #376dc2;
        stroke-width: .32px;
      }

      .st1, .st6 {
        stroke-linecap: round;
      }

      .st1, .st7 {
        fill: #376dc2;
      }

      .st8 {
        fill: #0d50b2;
      }

      .st9 {
        fill: #f3edcf;
      }

      .st10 {
        fill: #474052;
      }

      .st11 {
        fill: #84d384;
      }

      .st6 {
        fill: none;
        stroke: #ffd557;
        stroke-linejoin: round;
        stroke-width: .54px;
      }

      .st12 {
        fill: #f28bc5;
      }

      .st13 {
        fill: #e2e2af;
      }

      .st14 {
        fill: #919191;
      }

      .st2, .st15 {
        fill: #5ba6eb;
      }

      .st16 {
        fill: #1d1a21;
      }

      .st17 {
        fill: #2d1a25;
      }

      .st18 {
        fill: #083f24;
      }

      .st19 {
        fill: #feffdf;
      }

      .st20 {
        fill: #43c549;
      }

      .st21 {
        fill: #231815;
      }

      .st22 {
        fill: #8e7c66;
      }

      .st3 {
        fill: #753730;
        stroke-width: 1.6px;
      }

      .st23 {
        opacity: .2;
      }

      .st24 {
        fill: #0d653b;
      }

      .st25 {
        fill: #d4c4a3;
      }

      .st26 {
        fill: #ffbe20;
      }

      .st4 {
        fill: #b15344;
      }
    </style>
  </defs>
  <path class="st23" d="M39.37,26.33s9.19,15.99,14.91,18.35c5.72,2.36,0,0,0,0l145.72-1.89s16.2-10.88,18.36-17.43c0,0-77.82,23.91-178.98.97Z"/>
  <polygon class="st3" points="127.13 109.27 44.72 109.27 44.72 77.02 127.13 77.02 209.55 77.02 209.55 109.27 127.13 109.27"/>
  <g>
    <path class="st19" d="M44.72,82.78c-.05,0-.1,0-.16-.02-5.58-1.83-34.4-24.44-35.62-25.4-.15-.12-.22-.32-.18-.51s.19-.34.38-.38l5.12-1.09.52-2.62c.03-.13.11-.25.22-.32.08-.05.17-.08.27-.08.04,0,.08,0,.12.01,4.79,1.17,20.74,1.35,29.82,1.35,5.2,0,9.01-.06,9.05-.06h145.73s3.86.06,9.05.06c9.08,0,25.03-.18,29.82-1.35.04,0,.08-.01.12-.01.09,0,.19.03.27.08.12.07.2.19.22.32l.52,2.62,5.12,1.09c.19.04.34.19.38.38s-.03.39-.18.51c-1.22.96-30.04,23.58-35.62,25.4-.05.02-.1.02-.16.02H44.72Z"/>
    <path class="st21" d="M238.99,52.86l.59,2.94,5.44,1.15s-29.9,23.5-35.47,25.32H44.72c-5.56-1.82-35.47-25.32-35.47-25.32l5.44-1.15.59-2.94c4.74,1.16,19.97,1.36,29.93,1.36,5.27,0,9.06-.06,9.06-.06h145.72s3.8.06,9.06.06c9.96,0,25.19-.2,29.93-1.36M238.99,51.86c-.08,0-.16,0-.24.03-3.51.86-14.06,1.33-29.69,1.33-5.2,0-9.01-.06-9.05-.06h-72.87s-72.86,0-72.86,0c-.05,0-3.87.06-9.06.06-15.64,0-26.18-.47-29.69-1.33-.08-.02-.16-.03-.24-.03-.19,0-.38.05-.54.16-.23.15-.39.38-.44.65l-.46,2.3-4.79,1.02c-.38.08-.68.37-.77.75-.09.38.05.77.36,1.01,1.23.96,30.11,23.63,35.78,25.49.1.03.21.05.31.05h164.82c.11,0,.21-.02.31-.05,5.67-1.85,34.55-24.52,35.78-25.49.31-.24.44-.63.36-1.01-.09-.38-.39-.67-.77-.75l-4.79-1.02-.46-2.3c-.05-.27-.21-.5-.44-.65-.16-.1-.35-.16-.54-.16h0Z"/>
  </g>
  <g>
    <path class="st18" d="M44.72,75.04c-.05,0-.1,0-.16-.02-4.05-1.32-20.39-13.64-29.77-20.86-.15-.12-.22-.31-.19-.49l.18-.9c.03-.13.11-.25.22-.32.08-.05.17-.08.27-.08.04,0,.08,0,.12.01,4.79,1.17,20.74,1.35,29.82,1.35,5.2,0,9.01-.06,9.05-.06h145.73s3.86.06,9.05.06c9.08,0,25.03-.18,29.82-1.35.04,0,.08-.01.12-.01.09,0,.19.03.27.08.12.07.2.19.22.32l.18.9c.04.19-.03.38-.19.49-9.38,7.22-25.73,19.54-29.77,20.86-.05.02-.1.02-.16.02H44.72Z"/>
    <path d="M238.99,52.86l.18.9c-9,6.93-25.62,19.47-29.62,20.78H44.72c-4.01-1.31-20.62-13.86-29.62-20.78l.18-.9c4.74,1.16,19.97,1.36,29.93,1.36,5.27,0,9.06-.06,9.06-.06h145.72s3.79.06,9.06.06c9.96,0,25.19-.2,29.93-1.36M238.99,51.86c-.08,0-.16,0-.24.03-3.51.86-14.06,1.33-29.69,1.33-5.2,0-9.01-.06-9.05-.06h-72.87s-72.86,0-72.86,0c-.05,0-3.86.06-9.06.06-15.64,0-26.18-.47-29.69-1.33-.08-.02-.16-.03-.24-.03-.19,0-.38.05-.54.16-.23.15-.39.38-.44.65l-.18.9c-.07.37.07.76.37.99,11.49,8.85,26.01,19.66,29.92,20.94.1.03.21.05.31.05h164.82c.11,0,.21-.02.31-.05,3.91-1.28,18.43-12.09,29.92-20.94.3-.23.45-.62.37-.99l-.18-.9c-.05-.27-.21-.5-.44-.65-.16-.1-.35-.16-.54-.16h0Z"/>
  </g>
  <g>
    <path class="st15" d="M152.31,66.02c-8.05,0-16.51-.16-25.16-.47-8.69.31-17.16.47-25.2.47-34.01,0-56.38-2.83-69.16-5.2-9.35-1.74-15.07-3.49-17.81-4.45.17-.09.3-.25.33-.45l.46-2.3c5.23,1.02,18.76,1.24,29.44,1.24,5.21,0,9.03-.06,9.06-.06h145.71s3.85.06,9.05.06c10.67,0,24.2-.22,29.44-1.24l.46,2.3c.04.19.16.36.33.45-2.74.96-8.45,2.71-17.8,4.45-12.77,2.37-35.14,5.2-69.16,5.2h0Z"/>
    <path class="st21" d="M237.98,54.37l.33,1.66c-2.96.99-8.47,2.59-17.05,4.18-12.74,2.36-35.04,5.17-68.95,5.17-8.04,0-16.49-.16-25.13-.47-.02,0-.03,0-.05,0s-.03,0-.05,0c-8.64.31-17.09.47-25.13.47-33.9,0-56.21-2.81-68.95-5.17-8.58-1.59-14.09-3.19-17.05-4.18l.33-1.66c5.69.93,18.63,1.14,28.92,1.14,5.21,0,9.04-.06,9.06-.06h145.7s3.87.06,9.08.06c10.29,0,23.23-.21,28.92-1.14M238.99,52.86c-4.74,1.16-19.97,1.36-29.93,1.36-5.27,0-9.06-.06-9.06-.06H54.27s-3.8.06-9.06.06c-9.96,0-25.19-.2-29.93-1.36l-.59,2.94-1.93.41s23.13,10.45,89.2,10.45c7.79,0,16.16-.14,25.18-.47,9.01.32,17.39.47,25.18.47,66.07,0,89.2-10.45,89.2-10.45l-1.93-.41-.59-2.94h0Z"/>
  </g>
  <path class="st2" d="M228.49,17.83v-3.36c-7.43,3.78-40.48,2.52-40.48,2.52-2.3-1.36-6.9-13.18-6.9-13.18-7.95,1.96-53.97,3.64-53.97,3.64,0,0-46.02-1.68-53.97-3.64,0,0-4.6,11.82-6.9,13.18,0,0-33.05,1.26-40.48-2.52v3.36l-5.96,1.15s25.09,16.37,107.32,16.37,107.32-16.37,107.32-16.37l-5.96-1.15Z"/>
  <g>
    <path class="st19" d="M54.27,54.67c-.28,0-.5-.22-.5-.5v-3.15c-6.22-.27-13.84-5.63-22.67-15.94-6.71-7.82-11.66-15.75-11.71-15.83-.12-.2-.09-.46.08-.62.1-.09.22-.14.35-.14.09,0,.19.03.27.08.25.16,25.99,16.29,107.04,16.29,42.36,0,69.2-4.43,84.27-8.15,16.32-4.03,22.71-8.11,22.77-8.15.08-.05.18-.08.27-.08.13,0,.25.05.35.14.17.16.2.42.08.62-.8,1.28-19.51,31.11-34.38,31.77v3.15c0,.28-.22.5-.5.5H54.27Z"/>
    <path class="st21" d="M234.45,18.99h0M234.45,18.99s-19.62,31.54-34.46,31.54v3.64H54.27v-3.64c-14.84,0-34.46-31.54-34.46-31.54,0,0,25.09,16.37,107.32,16.37s107.32-16.37,107.32-16.37M234.45,17.99s-.04,0-.06,0c0,0,0,0,0,0,0,0,0,0,0,0-.18.01-.34.07-.49.16-.56.35-26.43,16.21-106.76,16.21-23.31,0-56.82-1.41-84.05-8.11-16.28-4.01-22.66-8.06-22.72-8.11-.17-.11-.36-.16-.54-.16-.26,0-.51.1-.7.29-.33.33-.4.84-.15,1.24.8,1.28,19.25,30.69,34.31,31.97v2.68c0,.55.45,1,1,1h145.72c.55,0,1-.45,1-1v-2.68c14.9-1.27,33.14-30.11,34.28-31.93.11-.16.18-.36.18-.57,0-.55-.45-1-1-1h0s0,0,0,0h0ZM234.45,19.99h0,0Z"/>
  </g>
  <g>
    <path class="st18" d="M54.27,47.07c-.36,0-.64-.29-.64-.64v-3.01c-8.86-.51-19.09-11.25-26.18-20.31-.18-.23-.18-.55-.01-.78.12-.17.32-.26.52-.26.08,0,.15.01.23.04,12.5,4.71,41.98,12.61,98.95,12.61s86.45-7.9,98.95-12.61c.07-.03.15-.04.23-.04.2,0,.4.09.52.26.17.23.17.55-.01.78-7.1,9.05-17.32,19.8-26.18,20.31v3.01c0,.36-.29.64-.64.64H54.27Z"/>
    <path d="M226.31,22.71h0M226.31,22.71c-7.07,9.02-17.53,20.08-26.32,20.08v3.64H54.27v-3.64c-8.79,0-19.25-11.06-26.32-20.08,12.83,4.83,42.36,12.65,99.18,12.65s86.35-7.82,99.18-12.65M226.31,21.42c-.05,0-.1,0-.15,0-.12.01-.23.04-.33.08-12.48,4.69-41.87,12.56-98.7,12.56s-86.26-7.87-98.72-12.57c-.15-.06-.3-.08-.45-.08-.4,0-.79.19-1.04.53-.34.47-.33,1.1.02,1.56,12.27,15.65,20.78,19.92,26.04,20.5v2.42c0,.71.58,1.29,1.29,1.29h145.72c.71,0,1.29-.58,1.29-1.29v-2.42c5.26-.58,13.76-4.84,26.01-20.46.19-.23.31-.52.31-.84,0-.7-.56-1.28-1.26-1.29,0,0-.02,0-.03,0h0ZM226.31,24h0,0Z"/>
  </g>
  <g>
    <path class="st1" d="M81.12,10.47c-.24-.01-.47-.02-.7-.04-.62,4.32-2.85,17.71-7.26,21.23-.15.12-.18.34-.06.49.07.09.17.13.27.13.08,0,.15-.02.22-.08,2.31-1.85,4.31-6.3,5.94-13.23.82-3.5,1.34-6.77,1.58-8.52Z"/>
    <path class="st1" d="M94.32,11.1c-.23-.01-.47-.02-.7-.03-.17,3.71-1.11,17.78-5.67,21.43-.15.12-.18.34-.06.49.07.09.17.13.27.13.08,0,.15-.02.22-.08,2.32-1.85,4.03-6.28,5.08-13.14.57-3.73.78-7.21.85-8.8Z"/>
    <path class="st1" d="M88.42,10.83c-.24-.01-.47-.02-.7-.03-.46,3.7-2.45,17.24-6.99,20.87-.15.12-.18.34-.06.49.07.09.17.13.27.13.08,0,.15-.02.22-.08,2.31-1.85,4.26-6.17,5.77-12.84.82-3.62,1.29-6.99,1.48-8.54Z"/>
    <path class="st1" d="M91.62,10.98c-.23-.01-.47-.02-.7-.03-.36,3.88-1.92,17.14-6.41,20.72-.15.12-.18.34-.06.49.07.09.17.13.27.13.08,0,.15-.02.22-.08,2.32-1.85,4.16-6.18,5.47-12.85.69-3.5,1.05-6.77,1.2-8.38Z"/>
    <path class="st1" d="M85.1,10.67c-.24-.01-.47-.02-.7-.03-.63,4.07-3,17.46-7.46,21.03-.15.12-.18.34-.06.49.07.09.17.13.27.13.08,0,.15-.02.22-.08,2.31-1.85,4.34-6.23,6.03-13.03.88-3.54,1.43-6.84,1.69-8.51Z"/>
    <path class="st1" d="M77.37,10.27c-.25-.01-.48-.03-.7-.04-.57,4.09-2.81,17.85-7.29,21.43-.11.09-.15.23-.12.36.22.03.44.06.67.09,2.26-1.9,4.22-6.32,5.83-13.13.85-3.63,1.38-7.03,1.61-8.71Z"/>
    <path class="st1" d="M68.36,14.26h0c.04-.07.08-.14.12-.21-.04.07-.08.14-.12.21Z"/>
    <path class="st1" d="M68.04,19.62c-.25.04-.49.07-.75.11-1.01,4.27-2.56,8.97-4.83,11.34.27.04.55.08.83.13,1.86-2.16,3.43-5.96,4.69-11.33.02-.08.04-.16.06-.24Z"/>
    <path class="st1" d="M73.3,12.28c-.35.67-.69,1.29-1.04,1.87-1.07,5.81-3.18,14.54-6.53,17.4.29.04.59.08.89.12,2.07-2.11,3.88-6.44,5.4-12.9.56-2.4.99-4.71,1.29-6.5Z"/>
    <path class="st1" d="M106.65,11.56c.08,3.23.27,17.1-2.54,21-.11.16-.08.38.08.49.06.04.13.07.2.07.11,0,.21-.05.28-.14,2.96-4.11,2.76-18,2.67-21.38-.23,0-.47-.01-.7-.02Z"/>
    <path class="st1" d="M117.93,32.27c-.04.19.07.38.26.42.03,0,.05,0,.08,0,.16,0,.3-.11.34-.27.53-2.31.69-15.71.73-20.54-.23,0-.46,0-.7-.01-.04,4.79-.21,18.17-.71,20.39Z"/>
    <path class="st1" d="M120.95,32.08c-.04.19.07.38.26.42.03,0,.05,0,.08,0,.16,0,.3-.11.34-.27.56-2.46.71-16.64.73-20.31-.23,0-.46,0-.7,0-.03,3.62-.18,17.8-.72,20.16Z"/>
    <path class="st1" d="M97.26,11.22c-.23,0-.47-.02-.7-.03.02,2.34-.03,17.43-4.88,21.3-.15.12-.18.34-.06.49.07.09.17.13.27.13.08,0,.15-.02.22-.08,2.32-1.86,3.89-6.17,4.67-12.8.48-4.1.49-7.88.47-9.02Z"/>
    <path class="st1" d="M114.91,32.08c-.04.19.07.38.26.42.03,0,.05,0,.08,0,.16,0,.3-.11.34-.27.55-2.44.7-16.55.73-20.41-.23,0-.46-.01-.7-.02-.03,3.8-.18,17.93-.72,20.27Z"/>
    <path class="st1" d="M123.97,32.27c-.04.19.07.38.26.42.03,0,.05,0,.08,0,.16,0,.3-.11.34-.27.52-2.3.69-15.59.73-20.47-.23,0-.46,0-.7,0-.04,4.85-.21,18.11-.71,20.32Z"/>
    <path class="st1" d="M100.99,11.36c-.23,0-.47-.02-.7-.03.02,2.77-.13,17.36-4.88,21.15-.15.12-.18.34-.06.49.07.09.17.13.27.13.08,0,.15-.02.22-.08,2.32-1.86,3.89-6.17,4.67-12.8.46-3.94.48-7.58.48-8.87Z"/>
    <path class="st1" d="M111.89,33.18c-.04.19.07.38.26.42.03,0,.05,0,.08,0,.16,0,.3-.11.34-.27.53-2.35.69-16.71.73-21.57-.23,0-.47-.01-.7-.02-.04,4.81-.2,19.19-.71,21.44Z"/>
    <path class="st1" d="M104.08,11.48c-.23,0-.47-.02-.7-.02.11,3,.4,17.29-4.29,21.04-.15.12-.18.34-.06.49.07.09.17.13.27.13.08,0,.15-.02.22-.08,2.33-1.86,3.8-6.17,4.36-12.82.33-3.82.24-7.36.19-8.75Z"/>
    <path class="st1" d="M107.87,32.59c-.1.17-.04.38.12.48.06.03.12.05.18.05.12,0,.24-.06.3-.17,2.16-3.67,2.22-18.56,2.21-21.26-.23,0-.47-.01-.7-.02,0,2.54-.07,17.44-2.11,20.92Z"/>
    <path class="st1" d="M38.68,26.14c.22.06.45.12.68.18.69-1.89,1.3-4.16,1.83-6.8-.24-.02-.47-.04-.7-.06-.45,2.25-1.04,4.6-1.8,6.68Z"/>
    <path class="st1" d="M51.7,20.18c-.64,3-1.52,6.1-2.73,8.45.23.05.47.1.71.15,1.07-2.12,1.98-4.98,2.73-8.57-.24,0-.48-.02-.71-.02Z"/>
    <path class="st1" d="M45.55,27.87c.23.05.46.11.7.16.93-2.06,1.74-4.73,2.41-7.99-.24-.01-.47-.03-.71-.04-.57,2.74-1.35,5.58-2.4,7.87Z"/>
    <path class="st1" d="M55.46,20.27c-.7,3.28-1.7,6.66-3.09,9.04.24.05.48.09.72.14,1.22-2.16,2.25-5.23,3.08-9.18-.24,0-.48,0-.72,0Z"/>
    <path class="st1" d="M63.06,20.12c-.83,3.93-2.08,8.04-3.94,10.41.26.04.52.09.78.13,1.57-2.18,2.88-5.73,3.89-10.59-.24.02-.48.03-.73.05Z"/>
    <path class="st1" d="M59.25,20.26c-.76,3.58-1.88,7.29-3.49,9.69.25.04.5.09.75.13,1.38-2.18,2.54-5.47,3.46-9.83-.24,0-.48.01-.72.02Z"/>
    <path class="st1" d="M42.12,27.04c.23.06.46.11.69.17.81-1.99,1.51-4.46,2.11-7.4-.24-.02-.47-.03-.71-.05-.51,2.5-1.19,5.09-2.09,7.28Z"/>
    <path class="st1" d="M31.8,24.07c.22.07.44.15.67.22.44-1.47.83-3.11,1.19-4.93.04-.18.07-.37.11-.55-.24-.03-.47-.05-.7-.08-.33,1.76-.75,3.59-1.26,5.34Z"/>
    <path class="st1" d="M35.24,25.16c.22.07.45.13.67.2.57-1.72,1.08-3.72,1.52-6,.01-.06.02-.11.03-.17-.24-.02-.47-.05-.7-.07-.39,2.01-.89,4.11-1.53,6.03Z"/>
    <path class="st1" d="M28.35,22.86c.22.08.44.16.66.24.31-1.15.59-2.4.86-3.74.06-.33.13-.65.18-.97-.24-.03-.47-.06-.7-.09-.27,1.49-.6,3.04-1.01,4.56Z"/>
    <path class="st1" d="M173.85,10.44c-.23.01-.46.02-.7.04.25,1.74.76,5.02,1.58,8.52,1.63,6.93,3.63,11.38,5.94,13.23.06.05.14.08.22.08.1,0,.2-.05.27-.13.12-.15.1-.37-.06-.49-4.41-3.52-6.64-16.91-7.26-21.23Z"/>
    <path class="st1" d="M160.64,11.06c-.23.01-.46.02-.7.03.07,1.59.28,5.07.85,8.8,1.05,6.87,2.76,11.29,5.08,13.14.06.05.14.08.22.08.1,0,.2-.05.27-.13.12-.15.1-.37-.06-.49-4.56-3.64-5.5-17.72-5.67-21.43Z"/>
    <path class="st1" d="M166.55,10.8c-.23.01-.46.02-.7.03.19,1.55.66,4.92,1.48,8.54,1.52,6.67,3.46,10.99,5.77,12.84.06.05.14.08.22.08.1,0,.2-.05.27-.13.12-.15.1-.37-.06-.49-4.54-3.63-6.53-17.17-6.99-20.87Z"/>
    <path class="st1" d="M163.35,10.95c-.23.01-.46.02-.7.03.15,1.61.51,4.88,1.2,8.38,1.31,6.68,3.16,11,5.47,12.85.06.05.14.08.22.08.1,0,.2-.05.27-.13.12-.15.1-.37-.06-.49-4.48-3.58-6.04-16.84-6.41-20.72Z"/>
    <path class="st1" d="M169.86,10.64c-.23.01-.46.02-.7.03.25,1.66.81,4.97,1.69,8.51,1.69,6.8,3.72,11.19,6.03,13.03.06.05.14.08.22.08.1,0,.2-.05.27-.13.12-.15.1-.37-.06-.49-4.46-3.57-6.83-16.95-7.46-21.03Z"/>
    <path class="st1" d="M177.6,10.24c-.22.01-.45.02-.7.04.23,1.68.76,5.08,1.61,8.71,1.6,6.81,3.56,11.23,5.83,13.13.22-.03.45-.06.67-.09.03-.13,0-.27-.12-.36-4.48-3.58-6.71-17.34-7.29-21.43Z"/>
    <path class="st1" d="M185.9,14.26c-.04-.07-.08-.14-.12-.21.04.07.08.14.12.21h0Z"/>
    <path class="st1" d="M186.23,19.62c.02.08.04.16.06.24,1.26,5.37,2.84,9.17,4.69,11.33.28-.04.55-.08.83-.13-2.27-2.38-3.83-7.07-4.83-11.34-.25-.03-.5-.07-.75-.11Z"/>
    <path class="st1" d="M182,14.15c-.34-.58-.69-1.2-1.04-1.87.3,1.79.72,4.1,1.29,6.5,1.52,6.46,3.33,10.79,5.4,12.9.3-.04.59-.08.89-.12-3.35-2.87-5.46-11.59-6.53-17.4Z"/>
    <path class="st1" d="M147.61,11.56c-.23,0-.47.02-.7.02-.09,3.39-.29,17.28,2.67,21.38.07.09.17.14.28.14.07,0,.14-.02.2-.07.16-.11.19-.33.08-.49-2.81-3.9-2.62-17.77-2.54-21Z"/>
    <path class="st1" d="M134.93,11.89c.04,4.83.2,18.22.73,20.54.04.16.18.27.34.27.03,0,.05,0,.08,0,.19-.04.31-.23.26-.42-.5-2.22-.67-15.61-.71-20.39-.23,0-.47,0-.7.01Z"/>
    <path class="st1" d="M131.9,11.93c.03,3.67.18,17.85.73,20.31.04.16.18.27.34.27.03,0,.05,0,.08,0,.19-.04.31-.23.26-.42-.54-2.36-.69-16.55-.72-20.16-.23,0-.47,0-.7,0Z"/>
    <path class="st1" d="M157.7,11.19c-.23,0-.46.02-.7.03-.01,1.14,0,4.91.47,9.02.77,6.64,2.34,10.95,4.67,12.8.06.05.14.08.22.08.1,0,.2-.05.27-.13.12-.15.1-.37-.06-.49-4.84-3.87-4.9-18.96-4.88-21.3Z"/>
    <path class="st1" d="M137.94,11.83c.03,3.86.18,17.97.73,20.41.04.16.18.27.34.27.03,0,.05,0,.08,0,.19-.04.31-.23.26-.42-.53-2.34-.68-16.47-.72-20.27-.23,0-.47.01-.7.02Z"/>
    <path class="st1" d="M128.89,11.95c.04,4.88.2,18.17.73,20.47.04.16.18.27.34.27.03,0,.05,0,.08,0,.19-.04.31-.23.26-.42-.5-2.21-.67-15.47-.71-20.32-.23,0-.47,0-.7,0Z"/>
    <path class="st1" d="M153.98,11.34c-.23,0-.46.02-.7.03,0,1.29.02,4.93.48,8.87.77,6.64,2.34,10.95,4.67,12.8.06.05.14.08.22.08.1,0,.2-.05.27-.13.12-.15.1-.37-.06-.49-4.75-3.8-4.9-18.39-4.88-21.15Z"/>
    <path class="st1" d="M140.96,11.76c.04,4.86.2,19.23.73,21.57.04.16.18.27.34.27.03,0,.05,0,.08,0,.19-.04.31-.23.26-.42-.51-2.25-.67-16.63-.71-21.44-.23,0-.47.01-.7.02Z"/>
    <path class="st1" d="M150.89,11.45c-.23,0-.47.02-.7.02-.05,1.39-.14,4.92.19,8.75.57,6.64,2.03,10.95,4.36,12.82.06.05.14.08.22.08.1,0,.2-.05.27-.13.12-.15.1-.37-.06-.49-4.69-3.75-4.4-18.04-4.29-21.04Z"/>
    <path class="st1" d="M144.29,11.67c-.23,0-.47.01-.7.02,0,2.69.05,17.59,2.21,21.26.07.11.18.17.3.17.06,0,.12-.02.18-.05.17-.1.22-.31.12-.48-2.04-3.48-2.12-18.38-2.11-20.92Z"/>
    <path class="st1" d="M213.07,19.53c.53,2.64,1.14,4.91,1.83,6.8.23-.06.46-.12.68-.18-.76-2.08-1.35-4.42-1.8-6.68-.23.02-.47.04-.7.06Z"/>
    <path class="st1" d="M201.86,20.2c.75,3.59,1.67,6.45,2.73,8.57.24-.05.47-.1.71-.15-1.21-2.35-2.09-5.45-2.73-8.45-.24,0-.48.02-.71.02Z"/>
    <path class="st1" d="M205.61,20.04c.68,3.26,1.48,5.92,2.41,7.99.23-.05.47-.11.7-.16-1.05-2.28-1.83-5.12-2.4-7.87-.24.01-.47.03-.71.04Z"/>
    <path class="st1" d="M198.09,20.28c.83,3.95,1.87,7.02,3.08,9.18.24-.05.48-.09.73-.14-1.39-2.39-2.39-5.77-3.09-9.04-.24,0-.48,0-.72,0Z"/>
    <path class="st1" d="M190.48,20.07c1.01,4.86,2.31,8.41,3.89,10.59.26-.04.52-.09.78-.13-1.85-2.37-3.11-6.48-3.94-10.41-.24-.01-.49-.03-.73-.05Z"/>
    <path class="st1" d="M194.3,20.25c.92,4.37,2.08,7.66,3.46,9.83.25-.04.5-.09.75-.13-1.6-2.4-2.72-6.1-3.49-9.69-.24,0-.48,0-.72-.02Z"/>
    <path class="st1" d="M209.35,19.81c.6,2.94,1.31,5.42,2.11,7.4.23-.06.46-.11.69-.17-.9-2.19-1.58-4.79-2.09-7.28-.23.02-.47.03-.71.05Z"/>
    <path class="st1" d="M220.5,18.81c.03.18.07.37.11.55.36,1.82.76,3.46,1.19,4.93.23-.07.45-.15.67-.22-.52-1.74-.93-3.58-1.26-5.34-.23.03-.46.05-.7.08Z"/>
    <path class="st1" d="M216.79,19.19c.01.06.02.11.03.17.45,2.27.96,4.27,1.52,6,.23-.07.45-.13.67-.2-.64-1.93-1.14-4.03-1.53-6.03-.23.02-.47.05-.7.07Z"/>
    <path class="st1" d="M224.91,18.3c-.22.03-.46.06-.7.09.06.32.12.65.18.97.26,1.34.55,2.59.86,3.74.23-.08.45-.16.66-.24-.4-1.52-.73-3.07-1.01-4.56Z"/>
  </g>
  <g>
    <path class="st8" d="M54.66,45.93l-2.49-9.94c18.83,3.2,42.93,4.88,69.77,4.88,33.94,0,71.88-3.04,78.77-6.09l-1.17,11.15H54.66Z"/>
    <path class="st21" d="M200.13,35.57l-1.04,9.86H55.05l-2.21-8.83c18.74,3.12,42.59,4.76,69.1,4.76s45.56-1.48,55.16-2.35c14.24-1.31,20.36-2.52,23.03-3.44M201.33,33.69v.11s0-.07,0-.11h0ZM201.32,33.79c-.78,2.49-37.59,6.57-79.38,6.57-23.78,0-49.16-1.32-70.44-5l2.77,11.07h145.72l1.33-12.63h0Z"/>
  </g>
  <rect class="st0" x="54.27" y="43.22" width="145.72" height="10.95"/>
  <g>
    <g>
      <path class="st5" d="M109.07,44.42c-.66,0-1.2-.54-1.2-1.2v-8.14c0-.66.54-1.2,1.2-1.2s1.2.54,1.2,1.2v8.14c0,.66-.54,1.2-1.2,1.2Z"/>
      <path class="st21" d="M109.07,34.38c.39,0,.7.31.7.7v8.14c0,.39-.31.7-.7.7s-.7-.31-.7-.7v-8.14c0-.39.31-.7.7-.7M109.07,33.38c-.94,0-1.7.76-1.7,1.7v8.14c0,.94.76,1.7,1.7,1.7s1.7-.76,1.7-1.7v-8.14c0-.94-.76-1.7-1.7-1.7h0Z"/>
    </g>
    <g>
      <path class="st5" d="M101.72,44.42c-.66,0-1.2-.54-1.2-1.2v-8.42c0-.66.54-1.2,1.2-1.2s1.2.54,1.2,1.2v8.42c0,.66-.54,1.2-1.2,1.2Z"/>
      <path class="st21" d="M101.72,34.09c.39,0,.7.31.7.7v8.42c0,.39-.31.7-.7.7s-.7-.31-.7-.7v-8.42c0-.39.31-.7.7-.7M101.72,33.09c-.94,0-1.7.76-1.7,1.7v8.42c0,.94.76,1.7,1.7,1.7s1.7-.76,1.7-1.7v-8.42c0-.94-.76-1.7-1.7-1.7h0Z"/>
    </g>
    <g>
      <path class="st5" d="M94.38,44.42c-.66,0-1.2-.54-1.2-1.2v-8.82c0-.66.54-1.2,1.2-1.2s1.2.54,1.2,1.2v8.82c0,.66-.54,1.2-1.2,1.2Z"/>
      <path class="st21" d="M94.38,33.7c.39,0,.7.31.7.7v8.82c0,.39-.31.7-.7.7s-.7-.31-.7-.7v-8.82c0-.39.31-.7.7-.7M94.38,32.7c-.94,0-1.7.76-1.7,1.7v8.82c0,.94.76,1.7,1.7,1.7s1.7-.76,1.7-1.7v-8.82c0-.94-.76-1.7-1.7-1.7h0Z"/>
    </g>
    <g>
      <path class="st5" d="M87.03,44.42c-.64,0-1.17-.5-1.2-1.14l-.44-9.39c-.03-.66.48-1.22,1.14-1.25h0c.7,0,1.22.5,1.25,1.14l.44,9.39c.03.66-.48,1.22-1.14,1.25,0,0-.05,0-.06,0Z"/>
      <path class="st21" d="M86.59,33.13c.37,0,.68.29.7.67l.44,9.39c.02.39-.28.71-.66.73-.01,0-.02,0-.03,0-.37,0-.68-.29-.7-.67l-.44-9.39c-.02-.39.28-.71.66-.73.01,0,.02,0,.03,0M86.59,32.13s-.07,0-.08,0c-.93.04-1.66.84-1.61,1.78l.44,9.39c.04.91.79,1.62,1.69,1.62.02,0,.07,0,.08,0,.93-.04,1.66-.84,1.61-1.78l-.44-9.39c-.04-.91-.79-1.62-1.69-1.62h0Z"/>
    </g>
    <g>
      <path class="st5" d="M79.68,44.42c-.63,0-1.14-.47-1.19-1.1l-.86-10.1c-.06-.66.43-1.24,1.09-1.3.01,0,.09,0,.1,0,.63,0,1.14.47,1.19,1.1l.86,10.1c.06.66-.43,1.24-1.09,1.3-.01,0-.09,0-.1,0Z"/>
      <path class="st21" d="M78.82,32.42c.36,0,.66.27.69.64l.86,10.1c.03.38-.25.72-.64.76-.02,0-.04,0-.06,0-.36,0-.66-.28-.69-.64l-.86-10.1c-.03-.38.25-.72.64-.76.02,0,.04,0,.06,0M78.82,31.42s-.1,0-.14,0c-.93.08-1.63.9-1.55,1.84l.86,10.1c.07.87.82,1.56,1.69,1.56.05,0,.1,0,.15,0,.93-.08,1.63-.9,1.55-1.84l-.86-10.1c-.08-.89-.8-1.56-1.69-1.56h0Z"/>
    </g>
    <g>
      <path class="st5" d="M71.36,44.42c-.62,0-1.14-.48-1.19-1.1l-.97-11.36c-.06-.66.43-1.24,1.09-1.3.01,0,.09,0,.1,0,.62,0,1.14.48,1.19,1.1l.97,11.36c.06.66-.43,1.24-1.09,1.3-.01,0-.09,0-.1,0Z"/>
      <path class="st21" d="M70.4,31.16c.36,0,.66.27.69.64l.97,11.36c.03.38-.25.72-.64.76-.02,0-.04,0-.06,0-.36,0-.66-.28-.69-.64l-.97-11.36c-.03-.38.25-.72.64-.76.02,0,.04,0,.06,0M70.4,30.16s-.1,0-.14,0c-.93.08-1.63.9-1.55,1.84l.97,11.36c.07.87.82,1.56,1.69,1.56.05,0,.1,0,.15,0,.93-.08,1.63-.9,1.55-1.84l-.97-11.36c-.07-.87-.82-1.56-1.69-1.56h0Z"/>
    </g>
    <g>
      <path class="st5" d="M63.6,44.42c-.61,0-1.12-.46-1.19-1.06l-1.38-12.19c-.07-.66.4-1.25,1.05-1.33.02,0,.12,0,.14,0,.61,0,1.12.46,1.19,1.06l1.38,12.19c.07.66-.4,1.25-1.05,1.33-.02,0-.12,0-.14,0Z"/>
      <path class="st21" d="M62.22,30.33c.35,0,.65.26.69.62l1.38,12.19c.04.38-.23.73-.61.77-.03,0-.05,0-.08,0-.35,0-.65-.26-.69-.62l-1.38-12.19c-.04-.38.23-.73.61-.77.03,0,.05,0,.08,0M62.22,29.33c-.06,0-.13,0-.19.01-.93.11-1.6.95-1.49,1.88l1.38,12.19c.1.86.82,1.51,1.69,1.51.06,0,.13,0,.19-.01.93-.11,1.6-.95,1.49-1.88l-1.38-12.19c-.1-.86-.82-1.51-1.69-1.51h0Z"/>
    </g>
    <g>
      <path class="st5" d="M54.57,44.42c-.55,0-1.03-.38-1.16-.92l-3.45-14.15c-.16-.64.24-1.29.88-1.45.09-.02.19-.03.29-.03.55,0,1.03.38,1.16.91l3.45,14.15c.16.64-.24,1.29-.88,1.45-.09.02-.19.04-.29.04Z"/>
      <path class="st21" d="M51.12,28.37c.31,0,.6.21.68.53l3.45,14.15c.09.38-.14.75-.51.85-.06.01-.11.02-.17.02-.31,0-.6-.21-.68-.53l-3.45-14.15c-.09-.38.14-.75.51-.85.06-.01.11-.02.17-.02M51.12,27.37c-.14,0-.27.02-.4.05-.91.22-1.47,1.14-1.25,2.05l3.45,14.15c.19.76.86,1.3,1.65,1.3.14,0,.27-.02.4-.05.91-.22,1.47-1.14,1.25-2.05l-3.45-14.15c-.19-.76-.86-1.3-1.65-1.3h0Z"/>
    </g>
    <g>
      <path class="st5" d="M145.2,44.42c-.66,0-1.2-.54-1.2-1.2v-8.14c0-.66.54-1.2,1.2-1.2s1.2.54,1.2,1.2v8.14c0,.66-.54,1.2-1.2,1.2Z"/>
      <path class="st21" d="M145.2,34.38c.39,0,.7.31.7.7v8.14c0,.39-.31.7-.7.7s-.7-.31-.7-.7v-8.14c0-.39.31-.7.7-.7M145.2,33.38c-.94,0-1.7.76-1.7,1.7v8.14c0,.94.76,1.7,1.7,1.7s1.7-.76,1.7-1.7v-8.14c0-.94-.76-1.7-1.7-1.7h0Z"/>
    </g>
    <g>
      <path class="st5" d="M152.54,44.42c-.66,0-1.2-.54-1.2-1.2v-8.14c0-.66.54-1.2,1.2-1.2s1.2.54,1.2,1.2v8.14c0,.66-.54,1.2-1.2,1.2Z"/>
      <path class="st21" d="M152.54,34.38c.39,0,.7.31.7.7v8.14c0,.39-.31.7-.7.7s-.7-.31-.7-.7v-8.14c0-.39.31-.7.7-.7M152.54,33.38c-.94,0-1.7.76-1.7,1.7v8.14c0,.94.76,1.7,1.7,1.7s1.7-.76,1.7-1.7v-8.14c0-.94-.76-1.7-1.7-1.7h0Z"/>
    </g>
    <g>
      <path class="st5" d="M159.89,44.42c-.66,0-1.2-.54-1.2-1.2v-8.14c0-.66.54-1.2,1.2-1.2s1.2.54,1.2,1.2v8.14c0,.66-.54,1.2-1.2,1.2Z"/>
      <path class="st21" d="M159.89,34.38c.39,0,.7.31.7.7v8.14c0,.39-.31.7-.7.7s-.7-.31-.7-.7v-8.14c0-.39.31-.7.7-.7M159.89,33.38c-.94,0-1.7.76-1.7,1.7v8.14c0,.94.76,1.7,1.7,1.7s1.7-.76,1.7-1.7v-8.14c0-.94-.76-1.7-1.7-1.7h0Z"/>
    </g>
    <g>
      <path class="st5" d="M167.18,44.42c-.66-.03-1.17-.59-1.14-1.25l.44-9.39c.03-.64.55-1.14,1.19-1.14.72.03,1.23.6,1.2,1.26l-.44,9.39c-.03.64-.55,1.14-1.2,1.14,0,0-.05,0-.06,0Z"/>
      <path class="st21" d="M167.68,33.13s.02,0,.04,0c.38.02.68.35.66.73l-.44,9.39c-.02.37-.33.67-.7.67-.01,0-.02,0-.03,0-.38-.02-.68-.35-.66-.73l.44-9.39c.02-.37.32-.67.69-.67M167.68,32.13c-.91,0-1.65.71-1.69,1.62l-.44,9.39c-.04.94.68,1.73,1.62,1.78.02,0,.06,0,.08,0,.91,0,1.65-.71,1.69-1.62l.44-9.39c.04-.94-.68-1.73-1.62-1.78-.02,0-.07,0-.08,0h0Z"/>
    </g>
    <g>
      <path class="st5" d="M174.48,44.41c-.31-.03-.6-.18-.81-.42s-.3-.56-.28-.88l.86-10.1c.05-.63.57-1.1,1.19-1.1.01,0,.09,0,.1,0,.66.06,1.15.64,1.09,1.3l-.86,10.1c-.05.62-.58,1.1-1.19,1.1-.02,0-.09,0-.11,0Z"/>
      <path class="st21" d="M175.45,32.42s.04,0,.06,0c.38.03.67.37.64.76l-.86,10.1c-.03.36-.34.64-.69.64-.02,0-.04,0-.06,0-.38-.03-.67-.37-.64-.76l.86-10.1c.03-.36.34-.64.69-.64M175.45,31.42c-.87,0-1.62.68-1.69,1.55l-.86,10.1c-.08.93.61,1.76,1.55,1.84.05,0,.1,0,.15,0,.87,0,1.62-.68,1.69-1.56l.86-10.1c.08-.93-.61-1.76-1.55-1.84-.05,0-.1,0-.14,0h0Z"/>
    </g>
    <g>
      <path class="st5" d="M182.8,44.41c-.31-.03-.6-.18-.81-.42-.21-.25-.3-.56-.28-.88l.97-11.36c.05-.61.58-1.1,1.19-1.1.01,0,.09,0,.1,0,.66.06,1.15.64,1.09,1.3l-.97,11.36c-.05.62-.58,1.1-1.19,1.1-.02,0-.09,0-.11,0Z"/>
      <path class="st21" d="M183.87,31.16s.04,0,.06,0c.38.03.67.37.64.76l-.97,11.36c-.03.36-.34.64-.69.64-.02,0-.04,0-.06,0-.38-.03-.67-.37-.64-.76l.97-11.36c.03-.37.34-.64.69-.64M183.87,30.16c-.87,0-1.62.68-1.69,1.55l-.97,11.36c-.08.93.61,1.76,1.55,1.84.05,0,.1,0,.15,0,.87,0,1.62-.68,1.69-1.56l.97-11.36c.08-.93-.61-1.76-1.55-1.84-.05,0-.1,0-.14,0h0Z"/>
    </g>
    <g>
      <path class="st5" d="M190.53,44.41c-.32-.04-.6-.19-.8-.45s-.29-.56-.25-.88l1.42-12.56c.07-.61.58-1.06,1.19-1.06.02,0,.12,0,.14,0,.32.04.6.19.8.44s.29.56.25.88l-1.42,12.56c-.07.61-.58,1.06-1.19,1.06-.02,0-.12,0-.13,0Z"/>
      <path class="st21" d="M192.09,29.96s.05,0,.08,0c.38.04.66.39.61.77l-1.42,12.56c-.04.36-.34.62-.69.62-.03,0-.05,0-.08,0-.38-.04-.66-.39-.61-.77l1.42-12.56c.04-.36.34-.62.69-.62M192.09,28.96c-.86,0-1.59.65-1.69,1.51l-1.42,12.56c-.11.93.56,1.77,1.49,1.88.06,0,.13.01.19.01.86,0,1.59-.65,1.69-1.51l1.42-12.56c.11-.93-.56-1.77-1.49-1.88-.06,0-.13-.01-.19-.01h0Z"/>
    </g>
    <g>
      <path class="st5" d="M199.7,44.42c-.09,0-.19-.01-.29-.04-.64-.16-1.04-.81-.88-1.45l3.7-15.19c.13-.54.61-.91,1.16-.91.1,0,.19.01.29.03.64.16,1.03.81.88,1.45l-3.71,15.19c-.13.54-.61.92-1.16.92Z"/>
      <path class="st21" d="M203.4,27.33c.05,0,.11,0,.17.02.37.09.6.47.51.85l-3.7,15.19c-.08.32-.36.53-.68.53-.05,0-.11,0-.17-.02-.37-.09-.6-.47-.51-.85l3.7-15.19c.08-.32.36-.53.68-.53M203.4,26.33c-.78,0-1.46.53-1.65,1.3l-3.7,15.19c-.22.91.34,1.83,1.25,2.05.13.03.27.05.4.05.78,0,1.46-.53,1.65-1.3l3.7-15.19c.22-.91-.34-1.83-1.24-2.05-.13-.03-.27-.05-.4-.05h0Z"/>
    </g>
  </g>
  <g>
    <g>
      <rect class="st26" x="119.56" y="48.06" width="6.36" height="5.12"/>
      <path class="st21" d="M125.6,48.39v4.48h-5.72v-4.48h5.72M126.24,47.74h-7.01v5.77h7.01v-5.77h0Z"/>
    </g>
    <g>
      <rect class="st26" x="111.31" y="48.06" width="6.36" height="5.12"/>
      <path class="st21" d="M117.35,48.39v4.48h-5.72v-4.48h5.72M117.99,47.74h-7.01v5.77h7.01v-5.77h0Z"/>
    </g>
    <g>
      <rect class="st26" x="136.54" y="48.06" width="6.36" height="5.12"/>
      <path class="st21" d="M142.59,48.39v4.48h-5.72v-4.48h5.72M143.23,47.74h-7.01v5.77h7.01v-5.77h0Z"/>
    </g>
    <g>
      <rect class="st26" x="128.29" y="48.06" width="6.36" height="5.12"/>
      <path class="st21" d="M134.33,48.39v4.48h-5.72v-4.48h5.72M134.98,47.74h-7.01v5.77h7.01v-5.77h0Z"/>
    </g>
    <g>
      <rect class="st26" x="88.13" y="48.06" width="6.36" height="5.12"/>
      <path class="st21" d="M94.17,48.39v4.48h-5.72v-4.48h5.72M94.82,47.74h-7.01v5.77h7.01v-5.77h0Z"/>
    </g>
    <g>
      <rect class="st26" x="79.88" y="48.06" width="6.36" height="5.12"/>
      <path class="st21" d="M85.92,48.39v4.48h-5.72v-4.48h5.72M86.57,47.74h-7.01v5.77h7.01v-5.77h0Z"/>
    </g>
    <g>
      <rect class="st26" x="64.73" y="48.06" width="6.36" height="5.12"/>
      <path class="st21" d="M70.77,48.39v4.48h-5.72v-4.48h5.72M71.42,47.74h-7.01v5.77h7.01v-5.77h0Z"/>
    </g>
    <g>
      <rect class="st26" x="56.48" y="48.06" width="6.36" height="5.12"/>
      <path class="st21" d="M62.52,48.39v4.48h-5.72v-4.48h5.72M63.16,47.74h-7.01v5.77h7.01v-5.77h0Z"/>
    </g>
    <g>
      <rect class="st26" x="96.87" y="48.06" width="6.36" height="5.12"/>
      <path class="st21" d="M102.91,48.39v4.48h-5.72v-4.48h5.72M103.55,47.74h-7.01v5.77h7.01v-5.77h0Z"/>
    </g>
    <g>
      <rect class="st26" x="106.65" y="46.71" width="3.6" height="7.78"/>
      <path class="st21" d="M109.92,47.03v7.13h-2.95v-7.13h2.95M110.56,46.39h-4.24v8.42h4.24v-8.42h0Z"/>
    </g>
    <g>
      <rect class="st26" x="72.98" y="46.71" width="3.6" height="7.78"/>
      <path class="st21" d="M76.26,47.03v7.13h-2.95v-7.13h2.95M76.9,46.39h-4.24v8.42h4.24v-8.42h0Z"/>
    </g>
    <g>
      <rect class="st26" x="159.77" y="48.06" width="6.36" height="5.12"/>
      <path class="st21" d="M165.81,48.39v4.48h-5.72v-4.48h5.72M166.45,47.74h-7.01v5.77h7.01v-5.77h0Z"/>
    </g>
    <g>
      <rect class="st26" x="168.02" y="48.06" width="6.36" height="5.12"/>
      <path class="st21" d="M174.06,48.39v4.48h-5.72v-4.48h5.72M174.7,47.74h-7.01v5.77h7.01v-5.77h0Z"/>
    </g>
    <g>
      <rect class="st26" x="183.17" y="48.06" width="6.36" height="5.12"/>
      <path class="st21" d="M189.21,48.39v4.48h-5.72v-4.48h5.72M189.85,47.74h-7.01v5.77h7.01v-5.77h0Z"/>
    </g>
    <g>
      <rect class="st26" x="191.42" y="48.06" width="6.36" height="5.12"/>
      <path class="st21" d="M197.46,48.39v4.48h-5.72v-4.48h5.72M198.1,47.74h-7.01v5.77h7.01v-5.77h0Z"/>
    </g>
    <g>
      <rect class="st26" x="151.03" y="48.06" width="6.36" height="5.12"/>
      <path class="st21" d="M157.07,48.39v4.48h-5.72v-4.48h5.72M157.72,47.74h-7.01v5.77h7.01v-5.77h0Z"/>
    </g>
  </g>
  <g>
    <rect class="st26" x="144.02" y="46.71" width="3.6" height="7.78"/>
    <path class="st21" d="M147.29,47.03v7.13h-2.95v-7.13h2.95M147.94,46.39h-4.24v8.42h4.24v-8.42h0Z"/>
  </g>
  <g>
    <rect class="st26" x="177.68" y="46.71" width="3.6" height="7.78"/>
    <path class="st21" d="M180.95,47.03v7.13h-2.95v-7.13h2.95M181.6,46.39h-4.24v8.42h4.24v-8.42h0Z"/>
  </g>
  <g>
    <path class="st7" d="M56.94,55.2c-.22-.06-.45.06-.52.28l-2.25,7.7c.28.03.56.06.85.09l2.2-7.55c.06-.22-.06-.46-.28-.52Z"/>
    <path class="st7" d="M53.09,54.58c-.22-.08-.46.03-.54.25l-2.91,7.86c.28.03.57.07.86.1l2.84-7.66c.08-.22-.03-.46-.25-.54Z"/>
    <path class="st7" d="M47.81,54.8l-3.3,7.24c.29.04.58.08.87.12l3.2-7.01c.1-.21,0-.46-.21-.56-.21-.1-.46,0-.55.21Z"/>
    <path class="st7" d="M70.16,55.19c-.22-.06-.45.08-.51.3l-2.27,8.8c.28.02.57.04.85.06l2.23-8.64c.06-.22-.08-.45-.3-.51Z"/>
    <path class="st7" d="M61.34,55.19c-.22-.06-.45.08-.51.3l-2.09,8.12c.28.03.56.05.85.07l2.06-7.99c.06-.22-.08-.45-.3-.51Z"/>
    <path class="st7" d="M65.75,55.19c-.22-.06-.45.08-.51.3l-2.19,8.48c.28.02.56.04.85.07l2.15-8.34c.06-.22-.08-.45-.3-.51Z"/>
    <path class="st7" d="M32.95,54.8l-2.27,4.99c.28.05.56.11.85.16l2.19-4.8c.1-.21,0-.46-.21-.56-.21-.1-.46,0-.55.21Z"/>
    <path class="st7" d="M22.84,54.8l-1.33,2.92c.27.07.54.14.82.21l1.27-2.78c.1-.21,0-.46-.21-.56-.21-.1-.46,0-.55.21Z"/>
    <path class="st7" d="M18.82,53.75l-1.42,2.81c.26.08.53.16.81.24l1.35-2.68c.1-.21.02-.46-.18-.56-.21-.1-.46-.02-.56.18Z"/>
    <path class="st7" d="M43.07,54.8l-3.01,6.61c.28.04.57.09.86.13l2.91-6.39c.1-.21,0-.46-.21-.56-.21-.1-.46,0-.55.21Z"/>
    <path class="st7" d="M124.64,55.46c-.23,0-.42.17-.43.41l-.31,9.15c.28,0,.56-.02.84-.03l.3-9.09c0-.23-.17-.43-.4-.43Z"/>
    <path class="st7" d="M38.01,54.8l-2.67,5.85c.28.05.57.1.85.15l2.57-5.64c.1-.21,0-.46-.21-.56-.21-.1-.46,0-.55.21Z"/>
    <path class="st7" d="M27.9,54.8l-1.83,4.02c.27.06.55.12.84.19l1.76-3.85c.1-.21,0-.46-.21-.56-.21-.1-.46,0-.55.21Z"/>
    <path class="st7" d="M74.08,55.19c-.23-.05-.45.1-.49.33l-1.86,9.05c.28.02.56.03.84.05l1.83-8.93c.05-.23-.1-.45-.33-.5Z"/>
    <path class="st7" d="M107.98,55.46c-.23,0-.42.17-.43.41l-.32,9.48c.28,0,.56,0,.84,0l.32-9.45c0-.23-.17-.43-.4-.43Z"/>
    <path class="st7" d="M111.31,55.46c-.23,0-.42.17-.43.41l-.32,9.45c.28,0,.56,0,.84-.01l.32-9.41c0-.23-.17-.43-.4-.43Z"/>
    <path class="st7" d="M101.98,55.47c-.23-.02-.43.15-.46.38l-.9,9.53c.28,0,.56,0,.84,0l.89-9.45c.02-.23-.15-.44-.38-.46Z"/>
    <path class="st7" d="M104.65,55.46c-.23,0-.42.17-.43.41l-.32,9.5c.28,0,.56,0,.84,0l.32-9.47c0-.23-.17-.43-.4-.43Z"/>
    <path class="st7" d="M114.64,55.46c-.23,0-.42.17-.43.41l-.32,9.4c.28,0,.56-.01.84-.02l.31-9.35c0-.23-.17-.43-.4-.43Z"/>
    <path class="st7" d="M121.31,55.46c-.23,0-.42.17-.43.41l-.31,9.24c.28,0,.56-.02.84-.02l.31-9.19c0-.23-.17-.43-.4-.43Z"/>
    <path class="st7" d="M117.97,55.46c-.23,0-.42.17-.43.41l-.31,9.33c.28,0,.56-.01.84-.02l.31-9.28c0-.23-.17-.43-.4-.43Z"/>
    <path class="st7" d="M99.21,55.47c-.23-.04-.44.12-.48.35l-1.49,9.54c.28,0,.56,0,.85,0l1.47-9.41c.04-.23-.12-.44-.35-.48Z"/>
    <path class="st7" d="M85.89,55.19c-.23-.05-.45.1-.49.33l-1.96,9.57c.28,0,.56.02.85.03l1.93-9.43c.05-.23-.1-.45-.33-.5Z"/>
    <path class="st7" d="M89.17,55.47c-.23-.04-.44.12-.48.35l-1.47,9.37c.28,0,.56.01.84.02l1.45-9.27c.04-.23-.12-.44-.35-.48Z"/>
    <path class="st7" d="M81.96,55.19c-.23-.05-.45.1-.49.33l-1.93,9.43c.28.01.56.02.85.03l1.91-9.29c.05-.23-.1-.45-.33-.5Z"/>
    <path class="st7" d="M95.86,55.47c-.23-.04-.44.12-.48.35l-1.49,9.5c.28,0,.56,0,.85.01l1.47-9.38c.04-.23-.12-.44-.35-.48Z"/>
    <path class="st7" d="M78.02,55.19c-.23-.05-.45.1-.49.33l-1.9,9.25c.28.01.56.03.85.04l1.87-9.12c.05-.23-.1-.45-.33-.5Z"/>
    <path class="st7" d="M92.51,55.47c-.23-.04-.44.12-.48.35l-1.48,9.45c.28,0,.56.01.84.02l1.46-9.33c.04-.23-.12-.44-.35-.48Z"/>
    <path class="st7" d="M197.33,55.2c-.22.07-.35.3-.28.52l2.2,7.55c.28-.03.57-.06.85-.09l-2.25-7.7c-.06-.22-.3-.35-.52-.28Z"/>
    <path class="st7" d="M201.17,54.58c-.22.08-.33.32-.25.54l2.84,7.66c.29-.03.57-.07.86-.1l-2.91-7.86c-.08-.22-.32-.33-.54-.25Z"/>
    <path class="st7" d="M205.9,54.59c-.21.1-.3.35-.21.56l3.2,7.01c.29-.04.58-.08.87-.12l-3.3-7.24c-.1-.21-.34-.3-.55-.21Z"/>
    <path class="st7" d="M184.11,55.19c-.22.06-.36.29-.3.51l2.23,8.64c.28-.02.57-.04.85-.06l-2.27-8.8c-.06-.22-.29-.36-.51-.3Z"/>
    <path class="st7" d="M192.93,55.19c-.22.06-.36.29-.3.51l2.06,7.99c.28-.02.56-.05.85-.07l-2.09-8.12c-.06-.22-.29-.36-.51-.3Z"/>
    <path class="st7" d="M188.52,55.19c-.22.06-.36.29-.3.51l2.15,8.34c.28-.02.57-.04.85-.07l-2.19-8.48c-.06-.22-.29-.36-.51-.3Z"/>
    <path class="st7" d="M220.76,54.59c-.21.1-.3.35-.21.56l2.19,4.8c.29-.05.57-.11.85-.16l-2.27-4.99c-.1-.21-.34-.3-.55-.21Z"/>
    <path class="st7" d="M230.88,54.59c-.21.1-.3.35-.21.56l1.27,2.78c.28-.07.56-.14.82-.21l-1.33-2.92c-.1-.21-.34-.3-.55-.21Z"/>
    <path class="st7" d="M235.45,53.75c-.1-.21-.36-.29-.56-.18-.21.1-.29.36-.18.56l1.35,2.68c.28-.08.55-.17.81-.24l-1.42-2.81Z"/>
    <path class="st7" d="M210.64,54.59c-.21.1-.3.35-.21.56l2.91,6.39c.29-.04.58-.09.86-.13l-3.01-6.61c-.1-.21-.34-.3-.55-.21Z"/>
    <path class="st7" d="M129.63,55.46c-.23,0-.41.2-.4.43l.3,9.09c.28,0,.56.02.84.03l-.31-9.15c0-.23-.2-.41-.43-.41Z"/>
    <path class="st7" d="M215.7,54.59c-.21.1-.3.35-.21.56l2.57,5.64c.29-.05.57-.1.85-.15l-2.67-5.85c-.1-.21-.34-.3-.55-.21Z"/>
    <path class="st7" d="M225.82,54.59c-.21.1-.3.35-.21.56l1.76,3.85c.28-.06.56-.12.84-.19l-1.83-4.02c-.1-.21-.34-.3-.55-.21Z"/>
    <path class="st7" d="M180.19,55.19c-.23.05-.37.27-.33.5l1.83,8.93c.28-.02.56-.03.84-.05l-1.86-9.05c-.05-.23-.27-.37-.49-.33Z"/>
    <path class="st7" d="M146.29,55.46c-.23,0-.41.2-.4.43l.32,9.45c.28,0,.56,0,.84,0l-.32-9.48c0-.23-.2-.41-.43-.41Z"/>
    <path class="st7" d="M142.95,55.46c-.23,0-.41.2-.4.43l.32,9.41c.28,0,.56,0,.84.01l-.32-9.45c0-.23-.2-.41-.43-.41Z"/>
    <path class="st7" d="M152.29,55.47c-.23.02-.4.23-.38.46l.89,9.45c.28,0,.56,0,.84,0l-.9-9.53c-.02-.23-.23-.4-.46-.38Z"/>
    <path class="st7" d="M149.62,55.46c-.23,0-.41.2-.4.43l.32,9.47c.28,0,.56,0,.84,0l-.32-9.5c0-.23-.2-.41-.43-.41Z"/>
    <path class="st7" d="M139.62,55.46c-.23,0-.41.2-.4.43l.31,9.35c.28,0,.56.01.84.02l-.32-9.4c0-.23-.2-.41-.43-.41Z"/>
    <path class="st7" d="M132.96,55.46c-.23,0-.41.2-.4.43l.31,9.19c.28,0,.56.02.84.02l-.31-9.24c0-.23-.2-.41-.43-.41Z"/>
    <path class="st7" d="M136.29,55.46c-.23,0-.41.2-.4.43l.31,9.28c.28,0,.56.01.84.02l-.31-9.33c0-.23-.2-.41-.43-.41Z"/>
    <path class="st7" d="M155.06,55.47c-.23.04-.38.25-.35.48l1.47,9.41c.28,0,.56,0,.85,0l-1.49-9.54c-.04-.23-.25-.39-.48-.35Z"/>
    <path class="st7" d="M168.37,55.19c-.23.05-.37.27-.33.5l1.93,9.43c.28,0,.57-.02.85-.03l-1.96-9.57c-.05-.23-.27-.37-.49-.33Z"/>
    <path class="st7" d="M165.1,55.47c-.23.04-.38.25-.35.48l1.45,9.27c.28,0,.56-.01.84-.02l-1.47-9.37c-.04-.23-.25-.39-.48-.35Z"/>
    <path class="st7" d="M172.31,55.19c-.23.05-.37.27-.33.5l1.91,9.29c.28-.01.57-.02.85-.03l-1.93-9.43c-.05-.23-.27-.37-.49-.33Z"/>
    <path class="st7" d="M158.4,55.47c-.23.04-.38.25-.35.48l1.47,9.38c.28,0,.56,0,.85-.01l-1.49-9.5c-.04-.23-.25-.39-.48-.35Z"/>
    <path class="st7" d="M176.25,55.19c-.23.05-.37.27-.33.5l1.87,9.12c.28-.01.57-.03.85-.04l-1.9-9.25c-.05-.23-.27-.37-.49-.33Z"/>
    <path class="st7" d="M161.75,55.47c-.23.04-.38.25-.35.48l1.46,9.33c.28,0,.56-.01.84-.02l-1.48-9.45c-.04-.23-.25-.39-.48-.35Z"/>
  </g>
  <polygon class="st14" points="127.02 114.67 113.26 114.67 113.26 134 127.02 134 140.79 134 140.79 114.67 127.02 114.67"/>
  <polygon class="st9" points="127.02 114.67 113.26 114.67 113.26 117.89 127.02 117.89 140.79 117.89 140.79 114.67 127.02 114.67"/>
  <g>
    <g>
      <rect class="st25" x="36.02" y="109.53" width="182.24" height="5.78"/>
      <path d="M217.61,110.18v4.49H36.66v-4.49h180.95M218.9,108.89H35.37v7.07h183.52v-7.07h0Z"/>
    </g>
    <g>
      <rect class="st25" x="112.61" y="117.24" width="28.82" height="17.4"/>
      <path d="M140.79,117.89v16.11h-27.53v-16.11h27.53M142.08,116.6h-30.11v18.69h30.11v-18.69h0Z"/>
    </g>
  </g>
  <g>
    <polygon class="st9" points="127.13 110.18 36.66 110.18 36.66 114.67 127.13 114.67 217.61 114.67 217.61 110.18 127.13 110.18"/>
    <polygon class="st25" points="127.02 117.89 113.26 117.89 113.26 121.11 127.02 121.11 140.79 121.11 140.79 117.89 127.02 117.89"/>
    <polygon class="st9" points="127.02 121.11 113.26 121.11 113.26 124.33 127.02 124.33 140.79 124.33 140.79 121.11 127.02 121.11"/>
    <polygon class="st25" points="127.02 124.33 113.26 124.33 113.26 127.56 127.02 127.56 140.79 127.56 140.79 124.33 127.02 124.33"/>
    <polygon class="st9" points="127.02 127.56 113.26 127.56 113.26 130.78 127.02 130.78 140.79 130.78 140.79 127.56 127.02 127.56"/>
    <polygon class="st25" points="127.02 130.78 113.26 130.78 113.26 134 127.02 134 140.79 134 140.79 130.78 127.02 130.78"/>
  </g>
  <g>
    <g>
      <path class="st5" d="M123.9,76.33c-.76,0-1.37-.53-1.37-1.18v-6.31c0-.65.62-1.18,1.37-1.18s1.37.53,1.37,1.18v6.31c0,.65-.62,1.18-1.37,1.18Z"/>
      <path class="st21" d="M123.9,68.16c.48,0,.87.31.87.68v6.31c0,.38-.39.68-.87.68s-.87-.31-.87-.68v-6.31c0-.38.39-.68.87-.68M123.9,67.16c-1.03,0-1.87.76-1.87,1.68v6.31c0,.93.84,1.68,1.87,1.68s1.87-.76,1.87-1.68v-6.31c0-.93-.84-1.68-1.87-1.68h0Z"/>
    </g>
    <g>
      <path class="st5" d="M108.89,76.33c-.76,0-1.37-.53-1.37-1.18v-6.31c0-.65.62-1.18,1.37-1.18s1.37.53,1.37,1.18v6.31c0,.65-.62,1.18-1.37,1.18Z"/>
      <path class="st21" d="M108.89,68.16c.48,0,.87.31.87.68v6.31c0,.38-.39.68-.87.68s-.87-.31-.87-.68v-6.31c0-.38.39-.68.87-.68M108.89,67.16c-1.03,0-1.87.76-1.87,1.68v6.31c0,.93.84,1.68,1.87,1.68s1.87-.76,1.87-1.68v-6.31c0-.93-.84-1.68-1.87-1.68h0Z"/>
    </g>
    <g>
      <path class="st5" d="M101.39,76.33c-.76,0-1.37-.53-1.37-1.18v-6.5c0-.65.62-1.18,1.37-1.18s1.37.53,1.37,1.18v6.5c0,.65-.62,1.18-1.37,1.18Z"/>
      <path class="st21" d="M101.39,67.97c.48,0,.87.31.87.68v6.5c0,.38-.39.68-.87.68s-.87-.31-.87-.68v-6.5c0-.38.39-.68.87-.68M101.39,66.97c-1.03,0-1.87.76-1.87,1.68v6.5c0,.93.84,1.68,1.87,1.68s1.87-.76,1.87-1.68v-6.5c0-.93-.84-1.68-1.87-1.68h0Z"/>
    </g>
    <g>
      <path class="st5" d="M93.88,76.33c-.76,0-1.37-.53-1.37-1.18v-6.59c0-.65.62-1.18,1.37-1.18s1.37.53,1.37,1.18v6.59c0,.65-.62,1.18-1.37,1.18Z"/>
      <path class="st21" d="M93.88,67.88c.48,0,.87.31.87.68v6.59c0,.38-.39.68-.87.68s-.87-.31-.87-.68v-6.59c0-.38.39-.68.87-.68M93.88,66.88c-1.03,0-1.87.76-1.87,1.68v6.59c0,.93.84,1.68,1.87,1.68s1.87-.76,1.87-1.68v-6.59c0-.93-.84-1.68-1.87-1.68h0Z"/>
    </g>
    <g>
      <path class="st5" d="M86.38,76.33c-.76,0-1.37-.53-1.37-1.18v-6.69c0-.65.62-1.18,1.37-1.18s1.37.53,1.37,1.18v6.69c0,.65-.62,1.18-1.37,1.18Z"/>
      <path class="st21" d="M86.38,67.77c.48,0,.87.31.87.68v6.69c0,.38-.39.68-.87.68s-.87-.31-.87-.68v-6.69c0-.38.39-.68.87-.68M86.38,66.77c-1.03,0-1.87.76-1.87,1.68v6.69c0,.93.84,1.68,1.87,1.68s1.87-.76,1.87-1.68v-6.69c0-.93-.84-1.68-1.87-1.68h0Z"/>
    </g>
    <g>
      <path class="st5" d="M78.88,76.33c-.76,0-1.37-.53-1.37-1.18v-6.83c0-.65.62-1.18,1.37-1.18s1.37.53,1.37,1.18v6.83c0,.65-.62,1.18-1.37,1.18Z"/>
      <path class="st21" d="M78.88,67.64c.48,0,.87.31.87.68v6.83c0,.38-.39.68-.87.68s-.87-.31-.87-.68v-6.83c0-.38.39-.68.87-.68M78.88,66.64c-1.03,0-1.87.76-1.87,1.68v6.83c0,.93.84,1.68,1.87,1.68s1.87-.76,1.87-1.68v-6.83c0-.93-.84-1.68-1.87-1.68h0Z"/>
    </g>
    <g>
      <path class="st5" d="M71.37,76.33c-.76,0-1.37-.53-1.37-1.18v-6.99c0-.65.62-1.18,1.37-1.18s1.37.53,1.37,1.18v6.99c0,.65-.62,1.18-1.37,1.18Z"/>
      <path class="st21" d="M71.37,67.48c.48,0,.87.31.87.68v6.99c0,.38-.39.68-.87.68s-.87-.31-.87-.68v-6.99c0-.38.39-.68.87-.68M71.37,66.48c-1.03,0-1.87.76-1.87,1.68v6.99c0,.93.84,1.68,1.87,1.68s1.87-.76,1.87-1.68v-6.99c0-.93-.84-1.68-1.87-1.68h0Z"/>
    </g>
    <g>
      <path class="st5" d="M63.87,76.33c-.76,0-1.37-.53-1.37-1.18v-7.19c0-.65.62-1.18,1.37-1.18s1.37.53,1.37,1.18v7.19c0,.65-.62,1.18-1.37,1.18Z"/>
      <path class="st21" d="M63.87,67.27c.48,0,.87.31.87.68v7.19c0,.38-.39.68-.87.68s-.87-.31-.87-.68v-7.19c0-.38.39-.68.87-.68M63.87,66.27c-1.03,0-1.87.76-1.87,1.68v7.19c0,.93.84,1.68,1.87,1.68s1.87-.76,1.87-1.68v-7.19c0-.93-.84-1.68-1.87-1.68h0Z"/>
    </g>
    <g>
      <path class="st5" d="M56.36,76.33c-.76,0-1.37-.53-1.37-1.18v-7.46c0-.65.62-1.18,1.37-1.18s1.37.53,1.37,1.18v7.46c0,.65-.62,1.18-1.37,1.18Z"/>
      <path class="st21" d="M56.36,67.01c.48,0,.87.31.87.68v7.46c0,.38-.39.68-.87.68s-.87-.31-.87-.68v-7.46c0-.38.39-.68.87-.68M56.36,66.01c-1.03,0-1.87.76-1.87,1.68v7.46c0,.93.84,1.68,1.87,1.68s1.87-.76,1.87-1.68v-7.46c0-.93-.84-1.68-1.87-1.68h0Z"/>
    </g>
    <g>
      <path class="st5" d="M48.86,76.33c-.76,0-1.37-.53-1.37-1.18v-7.77c0-.65.62-1.18,1.37-1.18s1.37.53,1.37,1.18v7.77c0,.65-.62,1.18-1.37,1.18Z"/>
      <path class="st21" d="M48.86,66.7c.48,0,.87.31.87.68v7.77c0,.38-.39.68-.87.68s-.87-.31-.87-.68v-7.77c0-.38.39-.68.87-.68M48.86,65.7c-1.03,0-1.87.76-1.87,1.68v7.77c0,.93.84,1.68,1.87,1.68s1.87-.76,1.87-1.68v-7.77c0-.93-.84-1.68-1.87-1.68h0Z"/>
    </g>
    <g>
      <path class="st5" d="M116.39,76.33c-.76,0-1.37-.53-1.37-1.18v-6.31c0-.65.62-1.18,1.37-1.18s1.37.53,1.37,1.18v6.31c0,.65-.62,1.18-1.37,1.18Z"/>
      <path class="st21" d="M116.39,68.16c.48,0,.87.31.87.68v6.31c0,.38-.39.68-.87.68s-.87-.31-.87-.68v-6.31c0-.38.39-.68.87-.68M116.39,67.16c-1.03,0-1.87.76-1.87,1.68v6.31c0,.93.84,1.68,1.87,1.68s1.87-.76,1.87-1.68v-6.31c0-.93-.84-1.68-1.87-1.68h0Z"/>
    </g>
    <g>
      <path class="st5" d="M130.37,76.33c-.76,0-1.37-.53-1.37-1.18v-6.31c0-.65.62-1.18,1.37-1.18s1.38.53,1.38,1.18v6.31c0,.65-.62,1.18-1.38,1.18Z"/>
      <path class="st21" d="M130.37,68.16c.48,0,.87.31.87.68v6.31c0,.38-.39.68-.87.68s-.87-.31-.87-.68v-6.31c0-.38.39-.68.87-.68M130.37,67.16c-1.03,0-1.87.76-1.87,1.68v6.31c0,.93.84,1.68,1.87,1.68s1.87-.76,1.87-1.68v-6.31c0-.93-.84-1.68-1.87-1.68h0Z"/>
    </g>
    <g>
      <path class="st5" d="M137.87,76.33c-.76,0-1.37-.53-1.37-1.18v-6.31c0-.65.62-1.18,1.37-1.18s1.37.53,1.37,1.18v6.31c0,.65-.62,1.18-1.37,1.18Z"/>
      <path class="st21" d="M137.87,68.16c.48,0,.87.31.87.68v6.31c0,.38-.39.68-.87.68s-.87-.31-.87-.68v-6.31c0-.38.39-.68.87-.68M137.87,67.16c-1.03,0-1.87.76-1.87,1.68v6.31c0,.93.84,1.68,1.87,1.68s1.87-.76,1.87-1.68v-6.31c0-.93-.84-1.68-1.87-1.68h0Z"/>
    </g>
    <g>
      <path class="st5" d="M145.38,76.33c-.76,0-1.37-.53-1.37-1.18v-6.31c0-.65.62-1.18,1.37-1.18s1.37.53,1.37,1.18v6.31c0,.65-.62,1.18-1.37,1.18Z"/>
      <path class="st21" d="M145.38,68.16c.48,0,.87.31.87.68v6.31c0,.38-.39.68-.87.68s-.87-.31-.87-.68v-6.31c0-.38.39-.68.87-.68M145.38,67.16c-1.03,0-1.87.76-1.87,1.68v6.31c0,.93.84,1.68,1.87,1.68s1.87-.76,1.87-1.68v-6.31c0-.93-.84-1.68-1.87-1.68h0Z"/>
    </g>
    <g>
      <path class="st5" d="M152.88,76.33c-.76,0-1.38-.53-1.38-1.18v-6.5c0-.65.62-1.18,1.38-1.18s1.37.53,1.37,1.18v6.5c0,.65-.62,1.18-1.37,1.18Z"/>
      <path class="st21" d="M152.88,67.97c.48,0,.87.31.87.68v6.5c0,.38-.39.68-.87.68s-.87-.31-.87-.68v-6.5c0-.38.39-.68.87-.68M152.88,66.97c-1.03,0-1.87.76-1.87,1.68v6.5c0,.93.84,1.68,1.87,1.68s1.87-.76,1.87-1.68v-6.5c0-.93-.84-1.68-1.87-1.68h0Z"/>
    </g>
    <g>
      <path class="st5" d="M160.38,76.33c-.76,0-1.37-.53-1.37-1.18v-6.59c0-.65.62-1.18,1.37-1.18s1.37.53,1.37,1.18v6.59c0,.65-.62,1.18-1.37,1.18Z"/>
      <path class="st21" d="M160.38,67.88c.48,0,.87.31.87.68v6.59c0,.38-.39.68-.87.68s-.87-.31-.87-.68v-6.59c0-.38.39-.68.87-.68M160.38,66.88c-1.03,0-1.87.76-1.87,1.68v6.59c0,.93.84,1.68,1.87,1.68s1.87-.76,1.87-1.68v-6.59c0-.93-.84-1.68-1.87-1.68h0Z"/>
    </g>
    <g>
      <path class="st5" d="M167.89,76.33c-.76,0-1.37-.53-1.37-1.18v-6.69c0-.65.62-1.18,1.37-1.18s1.37.53,1.37,1.18v6.69c0,.65-.62,1.18-1.37,1.18Z"/>
      <path class="st21" d="M167.89,67.77c.48,0,.87.31.87.68v6.69c0,.38-.39.68-.87.68s-.87-.31-.87-.68v-6.69c0-.38.39-.68.87-.68M167.89,66.77c-1.03,0-1.87.76-1.87,1.68v6.69c0,.93.84,1.68,1.87,1.68s1.87-.76,1.87-1.68v-6.69c0-.93-.84-1.68-1.87-1.68h0Z"/>
    </g>
    <g>
      <path class="st5" d="M175.39,76.33c-.76,0-1.37-.53-1.37-1.18v-6.83c0-.65.62-1.18,1.37-1.18s1.37.53,1.37,1.18v6.83c0,.65-.62,1.18-1.37,1.18Z"/>
      <path class="st21" d="M175.39,67.64c.48,0,.87.31.87.68v6.83c0,.38-.39.68-.87.68s-.87-.31-.87-.68v-6.83c0-.38.39-.68.87-.68M175.39,66.64c-1.03,0-1.87.76-1.87,1.68v6.83c0,.93.84,1.68,1.87,1.68s1.87-.76,1.87-1.68v-6.83c0-.93-.84-1.68-1.87-1.68h0Z"/>
    </g>
    <g>
      <path class="st5" d="M182.9,76.33c-.76,0-1.37-.53-1.37-1.18v-6.99c0-.65.62-1.18,1.37-1.18s1.37.53,1.37,1.18v6.99c0,.65-.62,1.18-1.37,1.18Z"/>
      <path class="st21" d="M182.9,67.48c.48,0,.87.31.87.68v6.99c0,.38-.39.68-.87.68s-.87-.31-.87-.68v-6.99c0-.38.39-.68.87-.68M182.9,66.48c-1.03,0-1.87.76-1.87,1.68v6.99c0,.93.84,1.68,1.87,1.68s1.87-.76,1.87-1.68v-6.99c0-.93-.84-1.68-1.87-1.68h0Z"/>
    </g>
    <g>
      <path class="st5" d="M190.4,76.33c-.76,0-1.37-.53-1.37-1.18v-7.19c0-.65.62-1.18,1.37-1.18s1.38.53,1.38,1.18v7.19c0,.65-.62,1.18-1.38,1.18Z"/>
      <path class="st21" d="M190.4,67.27c.48,0,.87.31.87.68v7.19c0,.38-.39.68-.87.68s-.87-.31-.87-.68v-7.19c0-.38.39-.68.87-.68M190.4,66.27c-1.03,0-1.87.76-1.87,1.68v7.19c0,.93.84,1.68,1.87,1.68s1.87-.76,1.87-1.68v-7.19c0-.93-.84-1.68-1.87-1.68h0Z"/>
    </g>
    <g>
      <path class="st5" d="M197.9,76.33c-.76,0-1.37-.53-1.37-1.18v-7.46c0-.65.62-1.18,1.37-1.18s1.37.53,1.37,1.18v7.46c0,.65-.62,1.18-1.37,1.18Z"/>
      <path class="st21" d="M197.9,67.01c.48,0,.87.31.87.68v7.46c0,.38-.39.68-.87.68s-.87-.31-.87-.68v-7.46c0-.38.39-.68.87-.68M197.9,66.01c-1.03,0-1.87.76-1.87,1.68v7.46c0,.93.84,1.68,1.87,1.68s1.87-.76,1.87-1.68v-7.46c0-.93-.84-1.68-1.87-1.68h0Z"/>
    </g>
    <g>
      <path class="st5" d="M205.41,76.33c-.76,0-1.37-.53-1.37-1.18v-7.77c0-.65.62-1.18,1.37-1.18s1.37.53,1.37,1.18v7.77c0,.65-.62,1.18-1.37,1.18Z"/>
      <path class="st21" d="M205.41,66.7c.48,0,.87.31.87.68v7.77c0,.38-.39.68-.87.68s-.87-.31-.87-.68v-7.77c0-.38.39-.68.87-.68M205.41,65.7c-1.03,0-1.87.76-1.87,1.68v7.77c0,.93.84,1.68,1.87,1.68s1.87-.76,1.87-1.68v-7.77c0-.93-.84-1.68-1.87-1.68h0Z"/>
    </g>
  </g>
  <rect class="st4" x="44.72" y="83.07" width="4.45" height="26.2"/>
  <rect class="st4" x="72.19" y="83.07" width="4.45" height="26.2"/>
  <rect class="st4" x="106.67" y="83.07" width="4.45" height="26.2"/>
  <rect class="st4" x="205.1" y="83.07" width="4.45" height="26.2" transform="translate(414.64 192.34) rotate(180)"/>
  <rect class="st4" x="177.63" y="83.07" width="4.45" height="26.2" transform="translate(359.71 192.34) rotate(180)"/>
  <rect class="st4" x="143.15" y="83.07" width="4.45" height="26.2" transform="translate(290.75 192.34) rotate(180)"/>
  <g>
    <rect class="st10" x="43.75" y="77.81" width="165.82" height="5.76" rx=".5" ry=".5"/>
    <path class="st21" d="M209.07,78.31v4.76H44.25v-4.76h164.82M209.07,77.31H44.25c-.55,0-1,.45-1,1v4.76c0,.55.45,1,1,1h164.82c.55,0,1-.45,1-1v-4.76c0-.55-.45-1-1-1h0Z"/>
  </g>
  <g>
    <rect class="st11" x="97.3" y="93.7" width="5.44" height="12.32"/>
    <path class="st20" d="M102.11,94.34v11.05h-4.17v-11.05h4.17M103.37,93.07h-6.71v13.58h6.71v-13.58h0Z"/>
  </g>
  <g>
    <rect class="st11" x="91.72" y="93.7" width="5.44" height="12.32"/>
    <path class="st20" d="M96.53,94.34v11.05h-4.17v-11.05h4.17M97.8,93.07h-6.71v13.58h6.71v-13.58h0Z"/>
  </g>
  <g>
    <rect class="st11" x="86.14" y="93.7" width="5.44" height="12.32"/>
    <path class="st20" d="M90.95,94.34v11.05h-4.17v-11.05h4.17M92.22,93.07h-6.71v13.58h6.71v-13.58h0Z"/>
  </g>
  <g>
    <rect class="st11" x="80.56" y="93.7" width="5.44" height="12.32"/>
    <path class="st20" d="M85.37,94.34v11.05h-4.17v-11.05h4.17M86.64,93.07h-6.71v13.58h6.71v-13.58h0Z"/>
  </g>
  <rect class="st16" x="54.54" y="94.11" width="12.27" height="15.15"/>
  <rect class="st16" x="117.23" y="94.11" width="19.81" height="15.15"/>
  <g>
    <rect class="st11" x="151.52" y="93.7" width="5.44" height="12.32"/>
    <path class="st20" d="M156.32,94.34v11.05h-4.17v-11.05h4.17M157.59,93.07h-6.71v13.58h6.71v-13.58h0Z"/>
  </g>
  <g>
    <rect class="st11" x="157.09" y="93.7" width="5.44" height="12.32"/>
    <path class="st20" d="M161.9,94.34v11.05h-4.17v-11.05h4.17M163.17,93.07h-6.71v13.58h6.71v-13.58h0Z"/>
  </g>
  <g>
    <rect class="st11" x="162.67" y="93.7" width="5.44" height="12.32"/>
    <path class="st20" d="M167.48,94.34v11.05h-4.17v-11.05h4.17M168.75,93.07h-6.71v13.58h6.71v-13.58h0Z"/>
  </g>
  <g>
    <rect class="st11" x="168.25" y="93.7" width="5.44" height="12.32"/>
    <path class="st20" d="M173.06,94.34v11.05h-4.17v-11.05h4.17M174.33,93.07h-6.71v13.58h6.71v-13.58h0Z"/>
  </g>
  <rect class="st16" x="187.44" y="94.11" width="12.27" height="15.15" transform="translate(387.15 203.38) rotate(180)"/>
  <g>
    <rect class="st26" x="131.99" y="86.44" width="6.47" height="2.94"/>
    <rect class="st26" x="124.18" y="86.44" width="6.47" height="2.94"/>
    <rect class="st26" x="116.37" y="86.44" width="6.47" height="2.94"/>
    <rect class="st26" x="96.23" y="86.44" width="6.47" height="2.94"/>
    <rect class="st26" x="88.42" y="86.44" width="6.47" height="2.94"/>
    <rect class="st26" x="80.61" y="86.44" width="6.47" height="2.94"/>
    <rect class="st26" x="61.35" y="86.44" width="6.47" height="2.94"/>
    <rect class="st26" x="53.54" y="86.44" width="6.47" height="2.94"/>
    <rect class="st26" x="151.56" y="86.44" width="6.47" height="2.94"/>
    <rect class="st26" x="159.37" y="86.44" width="6.47" height="2.94"/>
    <rect class="st26" x="167.18" y="86.44" width="6.47" height="2.94"/>
    <rect class="st26" x="186.44" y="86.44" width="6.47" height="2.94"/>
    <rect class="st26" x="194.25" y="86.44" width="6.47" height="2.94"/>
  </g>
  <g>
    <path class="st24" d="M127.13,35.86c-42.53,0-69.49-4.46-84.61-8.2-16.44-4.07-22.72-8.08-22.98-8.25-.17-.11-.26-.32-.22-.52s.2-.36.4-.39l5.96-1.15s.06,0,.1,0c.06,0,.12.01.18.03.36.14,36.94,13.78,100.93,13.78h.49c63.98,0,100.57-13.64,100.93-13.78.06-.02.12-.03.18-.03.03,0,.06,0,.09,0l5.96,1.15c.2.04.36.19.4.39.04.2-.05.4-.22.52-.26.17-6.53,4.19-22.98,8.25-15.13,3.74-42.09,8.2-84.61,8.2Z"/>
    <path d="M228.49,17.83l5.96,1.15s-25.09,16.37-107.32,16.37S19.82,18.99,19.82,18.99l5.96-1.15s36.27,13.81,101.11,13.81c.08,0,.16,0,.24,0,.08,0,.16,0,.24,0,64.84,0,101.11-13.81,101.11-13.81M228.49,16.83c-.12,0-.24.02-.36.07-.09.03-9.23,3.48-26.15,6.87-15.61,3.14-41.23,6.87-74.61,6.87h-.24s-.24,0-.24,0c-33.38,0-59-3.74-74.61-6.87-16.92-3.4-26.06-6.84-26.15-6.87-.11-.04-.23-.07-.36-.07-.06,0-.13,0-.19.02l-5.96,1.15c-.4.08-.71.39-.79.79s.09.81.43,1.03c.26.17,6.6,4.23,23.13,8.32,27.46,6.79,61.23,8.22,84.73,8.22s57.28-1.43,84.73-8.22c16.53-4.09,22.87-8.15,23.13-8.32.34-.22.51-.63.43-1.03s-.39-.71-.79-.79l-5.96-1.15c-.06-.01-.13-.02-.19-.02h0Z"/>
  </g>
  <g>
    <rect class="st19" x="53.77" y="42.72" width="146.72" height="4.81" rx=".5" ry=".5"/>
    <path class="st21" d="M199.99,43.22v3.81H54.27v-3.81h145.72M199.99,42.22H54.27c-.55,0-1,.45-1,1v3.81c0,.55.45,1,1,1h145.72c.55,0,1-.45,1-1v-3.81c0-.55-.45-1-1-1h0Z"/>
  </g>
  <rect class="st13" x="54.27" y="43.39" width="145.72" height="1.29"/>
  <g>
    <path class="st19" d="M118.87,57.69c-12.22,0-49.42,0-75.09-.5-16.8-.32-28.74-1.36-28.86-1.37-.14-.01-.27-.08-.36-.2-.09-.11-.12-.26-.09-.4l.59-2.94c.03-.13.11-.25.22-.32.08-.05.17-.08.27-.08.04,0,.08,0,.12.01,4.79,1.17,20.73,1.35,29.81,1.35,5.2,0,9.02-.06,9.06-.06h145.73s3.86.06,9.07.06c9.08,0,25.02-.17,29.81-1.35.04,0,.08-.01.12-.01.09,0,.19.03.27.08.12.07.2.19.22.32l.59,2.94c.03.14,0,.28-.09.4-.09.11-.21.19-.36.2-.12.01-12.06,1.04-28.86,1.37-25.67.5-62.86.5-75.09.5h-17.08Z"/>
    <path class="st21" d="M239.27,52.39l.59,2.94s-11.85,1.04-28.83,1.36c-23.8.46-56.71.49-75.06.49-3.4,0-6.3,0-8.55,0s-5.15,0-8.55,0c-18.36,0-51.27-.04-75.06-.49-16.98-.33-28.83-1.36-28.83-1.36l.59-2.94c4.74,1.16,19.97,1.36,29.93,1.36,5.27,0,9.06-.06,9.06-.06h145.72s3.8.06,9.06.06c9.96,0,25.19-.2,29.93-1.36M239.26,51.39c-.08,0-.16,0-.24.03-3.51.86-14.06,1.33-29.69,1.33-5.2,0-9.01-.06-9.05-.06h-72.87s-72.86,0-72.86,0c-.05,0-3.87.06-9.06.06-15.63,0-26.18-.47-29.69-1.33-.08-.02-.16-.03-.24-.03-.19,0-.38.05-.54.16-.23.15-.39.38-.44.65l-.59,2.94c-.06.28,0,.57.18.8.17.23.43.37.71.4.12.01,12.08,1.04,28.9,1.37,25.67.49,62.86.49,75.08.49h5.14s3.41,0,3.41,0h3.41s5.14,0,5.14,0c12.22,0,49.41,0,75.08-.49,16.82-.32,28.78-1.36,28.9-1.37.28-.02.54-.17.71-.4.17-.23.24-.52.18-.8l-.59-2.94c-.05-.27-.21-.5-.44-.65-.16-.1-.35-.16-.54-.16h0Z"/>
  </g>
  <path class="st13" d="M200.27,53.69H54.55s-31.74.47-38.99-1.3l-.08.41c2.41.2,13.37,1.03,28.32,1.32,28.2.54,69.21.49,83.61.49s55.41.05,83.61-.49c14.95-.29,25.91-1.13,28.32-1.32l-.08-.41c-7.25,1.77-38.99,1.3-38.99,1.3Z"/>
  <g>
    <path class="st24" d="M127.13,69.94c-.56,0-56.01-.23-77.02-1.87-21.31-1.67-40.9-10.57-41.08-10.66-.19-.1-.3-.3-.27-.51.03-.21.18-.38.39-.43l3.51-.74s.07-.01.1-.01c.07,0,.14.02.21.04.06.03,5.93,2.63,19.78,5.2,12.78,2.37,35.16,5.2,69.21,5.2,8.05,0,16.52-.16,25.16-.47,8.69.31,17.15.47,25.2.47,34.04,0,56.42-2.83,69.21-5.2,13.85-2.57,19.73-5.18,19.78-5.2.07-.03.14-.04.21-.04.04,0,.07,0,.1.01l3.51.74c.21.04.37.22.39.43s-.08.42-.28.51c-.18.09-19.72,8.99-41.08,10.66-21.01,1.64-76.46,1.87-77.02,1.87h0Z"/>
    <path d="M241.51,56.22l3.51.74s-19.67,8.95-40.9,10.61c-21.23,1.66-76.98,1.87-76.98,1.87,0,0-55.75-.21-76.98-1.87-21.23-1.66-40.89-10.61-40.9-10.61l3.51-.74s23.12,10.45,89.2,10.45c7.79,0,16.17-.15,25.18-.47,9.02.32,17.39.47,25.18.47,66.06,0,89.2-10.45,89.2-10.45M12.76,55.22c-.07,0-.14,0-.21.02l-3.51.74c-.42.09-.74.44-.79.87-.05.43.19.84.58,1.02.81.37,20.09,9.04,41.23,10.7,21.03,1.65,76.5,1.87,77.06,1.87.57,0,56.04-.23,77.07-1.87,21.27-1.66,41.04-10.61,41.23-10.7.39-.18.63-.59.58-1.02-.05-.43-.36-.78-.79-.87l-3.51-.74c-.07-.01-.14-.02-.21-.02-.14,0-.28.03-.41.09-.06.03-5.92,2.62-19.75,5.18-12.76,2.36-35.09,5.18-69.04,5.18-8.04,0-16.5-.16-25.14-.47-.01,0-.02,0-.04,0s-.02,0-.04,0c-8.64.31-17.1.47-25.14.47-33.96,0-56.29-2.82-69.05-5.18-13.82-2.56-19.68-5.15-19.74-5.18-.13-.06-.27-.09-.41-.09h0Z"/>
  </g>
  <g>
    <rect class="st8" x="45.03" y="74.98" width="163.98" height="3.04"/>
    <path class="st21" d="M208.51,75.48v2.04H45.53v-2.04h162.98M209.51,74.48H44.53v4.04h164.98v-4.04h0Z"/>
  </g>
  <g>
    <g>
      <path class="st9" d="M15.64,123.24v-15.73c0-.91.74-1.66,1.65-1.66s1.65.74,1.65,1.66v1.89h91.51v-1.89c0-.91.74-1.66,1.65-1.66s1.65.74,1.65,1.66v15.73H15.64ZM110.45,113.92v-2.59H18.94v2.59h91.51Z"/>
      <path d="M112.11,106.36c.64,0,1.15.52,1.15,1.16v15.23H16.14v-15.23c0-.64.52-1.16,1.15-1.16s1.15.52,1.15,1.16v2.39h92.51v-2.39c0-.64.52-1.16,1.15-1.16M18.44,114.42h92.51v-3.59H18.44v3.59M112.11,105.36c-1.19,0-2.15.97-2.15,2.16v1.39H19.44v-1.39c0-1.19-.97-2.16-2.15-2.16s-2.15.97-2.15,2.16v16.23h99.12v-16.23c0-1.19-.97-2.16-2.15-2.16h0ZM19.44,111.83h90.51v1.59H19.44v-1.59h0Z"/>
    </g>
    <g>
      <g>
        <rect class="st25" x="4.32" y="122.24" width="109.44" height="4.79"/>
        <path d="M113.26,122.74v3.79H4.82v-3.79h108.44M114.26,121.74H3.82v5.79h110.44v-5.79h0Z"/>
      </g>
      <g>
        <rect class="st25" x="6.63" y="117.72" width="107.13" height="1.92"/>
        <path d="M113.26,118.22v.92H7.13v-.92h106.13M114.26,117.22H6.13v2.92h108.13v-2.92h0Z"/>
      </g>
      <g>
        <path class="st25" d="M4.32,127.03v-11.21c0-.91.74-1.66,1.65-1.66s1.65.74,1.65,1.66v11.21h-3.3Z"/>
        <path d="M5.97,114.67c.64,0,1.15.52,1.15,1.16v10.71h-2.3v-10.71c0-.64.52-1.16,1.15-1.16M5.97,113.67c-1.19,0-2.15.97-2.15,2.16v11.71h4.3v-11.71c0-1.19-.97-2.16-2.15-2.16h0Z"/>
      </g>
      <g>
        <path class="st25" d="M110.45,127.03v-11.21c0-.91.74-1.66,1.65-1.66s1.65.74,1.65,1.66v11.21h-3.3Z"/>
        <path d="M112.11,114.67c.64,0,1.15.52,1.15,1.16v10.71h-2.3v-10.71c0-.64.52-1.16,1.15-1.16M112.11,113.67c-1.19,0-2.15.97-2.15,2.16v11.71h4.3v-11.71c0-1.19-.97-2.16-2.15-2.16h0Z"/>
      </g>
    </g>
    <g>
      <rect class="st22" x="4.32" y="126.03" width="109.44" height="8.47"/>
      <path d="M113.26,126.53v7.47H4.82v-7.47h108.44M114.26,125.53H3.82v9.47h110.44v-9.47h0Z"/>
    </g>
  </g>
  <g>
    <path class="st19" d="M197.05,18.97c-4.43,0-8.17-.24-11.11-.7-.1-.02-.2-.06-.27-.14-.14-.14-3.37-3.35-6.06-9.32-3.51.2-32.85,1.83-52.47,1.83s-48.96-1.63-52.47-1.83c-2.7,5.97-5.93,9.18-6.07,9.32-.07.07-.17.12-.27.14-2.94.47-6.68.7-11.11.7-14.2,0-31.33-2.43-31.5-2.46-.25-.04-.43-.25-.43-.5v-3.36c0-.17.09-.34.24-.43.08-.05.17-.07.26-.07.08,0,.16.02.23.05,4.33,2.2,17.69,2.67,28.14,2.66,6.13,0,11.08-.16,11.95-.2,1.61-1.17,4.81-8.28,6.59-12.87.08-.2.26-.32.47-.32.04,0,.08,0,.12.01,7.81,1.92,53.41,3.61,53.87,3.62.42-.02,46.03-1.7,53.84-3.62.04,0,.08-.01.12-.01.2,0,.39.12.47.32,1.79,4.59,4.98,11.7,6.59,12.87.88.03,5.82.2,11.95.2,10.45,0,23.81-.46,28.14-2.66.07-.04.15-.05.23-.05.09,0,.18.02.26.07.15.09.24.25.24.43v3.36c0,.25-.18.46-.43.5-.17.02-17.3,2.46-31.5,2.46Z"/>
    <path class="st21" d="M181.11,2s4.6,11.82,6.9,13.18c0,0,5.29.2,12.11.2,10.23,0,23.91-.45,28.37-2.72v3.36s-17.11,2.45-31.43,2.45c-4.05,0-7.88-.2-11.03-.7,0,0-3.38-3.32-6.1-9.48,0,0-31.77,1.85-52.79,1.85s-52.79-1.85-52.79-1.85c-2.72,6.15-6.1,9.48-6.1,9.48-3.16.5-6.98.7-11.03.7-14.33,0-31.43-2.45-31.43-2.45v-3.36c4.46,2.27,18.14,2.72,28.37,2.72,6.82,0,12.11-.2,12.11-.2,2.3-1.36,6.9-13.18,6.9-13.18,7.95,1.96,53.97,3.64,53.97,3.64,0,0,46.02-1.68,53.97-3.64M181.11,1c-.08,0-.16,0-.24.03-7.67,1.89-52.21,3.55-53.73,3.61-1.52-.06-46.07-1.72-53.73-3.61-.08-.02-.16-.03-.24-.03-.4,0-.78.25-.93.64-2.1,5.4-4.96,11.39-6.31,12.56-1.21.04-5.96.19-11.77.19-14.69,0-24.61-.93-27.92-2.61-.14-.07-.3-.11-.45-.11-.18,0-.36.05-.52.15-.3.18-.48.5-.48.85v3.36c0,.5.37.92.86.99.17.02,17.34,2.46,31.58,2.46,4.46,0,8.23-.24,11.19-.71.21-.03.4-.13.54-.27.14-.14,3.32-3.3,6.03-9.16,4.75.27,33.05,1.81,52.16,1.81s47.41-1.55,52.16-1.81c2.71,5.85,5.89,9.02,6.03,9.16.15.15.34.24.54.27,2.96.47,6.73.71,11.19.71,14.24,0,31.4-2.44,31.58-2.46.49-.07.86-.49.86-.99v-3.36c0-.35-.18-.67-.48-.85-.16-.1-.34-.15-.52-.15-.16,0-.31.04-.45.11-3.31,1.68-13.22,2.61-27.92,2.61-5.82,0-10.57-.15-11.77-.19-1.34-1.16-4.2-7.15-6.31-12.56-.15-.39-.53-.64-.93-.64h0Z"/>
  </g>
  <path class="st13" d="M188.01,15.18c-2.3-1.36-6.9-13.18-6.9-13.18-7.95,1.96-53.97,3.64-53.97,3.64,0,0-46.02-1.68-53.97-3.64,0,0-4.6,11.82-6.9,13.18,0,0-33.05,1.26-40.48-2.52v1.29c7.43,3.78,40.48,2.52,40.48,2.52,2.3-1.36,6.9-13.18,6.9-13.18,7.95,1.96,53.97,3.64,53.97,3.64,0,0,46.02-1.68,53.97-3.64,0,0,4.6,11.82,6.9,13.18,0,0,33.05,1.26,40.48-2.52v-1.29c-7.43,3.78-40.48,2.52-40.48,2.52Z"/>
  <g>
    <g>
      <rect class="st12" x="113.98" y="34.86" width="26.31" height="8.86"/>
      <path d="M139.79,35.36v7.86h-25.31v-7.86h25.31M140.79,34.36h-27.31v9.86h27.31v-9.86h0Z"/>
    </g>
    <rect class="st17" x="115.62" y="36.58" width="23.04" height="5.56"/>
    <g>
      <path class="st6" d="M126.75,39.9c-.03.06-.07.11-.11.17l.08.02c-.01-.06-.01-.12.02-.18Z"/>
      <path class="st6" d="M118.63,38.61l1.78.32c.1-.44.2-.88.3-1.32-.74.2-1.45.54-2.07.99Z"/>
      <path class="st6" d="M124.62,39.7l.11.02s-.02-.04-.02-.06c-.03.01-.06.03-.09.04Z"/>
      <path class="st6" d="M125.64,40.56c.39.05.79-.16,1.01-.49l-1.92-.35c.1.43.47.79.91.84Z"/>
      <path class="st6" d="M127.6,40.36c.08-.03.16-.05.24-.08l-1.11-.2c.06.25.54.39.86.28Z"/>
      <path class="st6" d="M122.4,38.26c-.09.33-.15.66-.22.99l-1.77-.32-.31,1.4c-.03.14-.06.3.02.42.13.19.42.15.64.08.44-.14.9-.29,1.27-.55-.03.28-.07.55-.09.83.89-.47,1.79-.94,2.68-1.4l-1.94-.35c.1-.4.04-.84-.29-1.09Z"/>
      <path class="st6" d="M127.84,40.28l.87.16c-.13-.31-.52-.26-.87-.16Z"/>
      <path class="st6" d="M133.47,39.47c-.08.08-.18.15-.26.22h1.35c-.37.02-.75-.06-1.09-.22Z"/>
      <path class="st6" d="M131.62,39.29c-.05-.02-.11-.02-.16-.01-.33.04-.65.19-.89.42h1.28c-.02-.08-.04-.16-.08-.24-.03-.07-.08-.13-.14-.16Z"/>
      <path class="st6" d="M131.91,39.95c.06.16.18.33.35.35.15.02.3-.07.43-.16.19-.13.35-.29.52-.45h-1.37c.02.08.04.17.07.25Z"/>
      <path class="st6" d="M135.7,38.67c.05.22.23.4.45.46l-.45-.46Z"/>
    </g>
  </g>
  <g>
    <g>
      <g>
        <path class="st9" d="M140.43,123.24v-15.73c0-.91.74-1.66,1.65-1.66s1.65.74,1.65,1.66v1.89h91.51v-1.89c0-.91.74-1.66,1.65-1.66s1.65.74,1.65,1.66v15.73h-98.12ZM235.25,113.92v-2.59h-91.51v2.59h91.51Z"/>
        <path d="M236.9,106.36c.64,0,1.15.52,1.15,1.16v15.23h-97.12v-15.23c0-.64.52-1.16,1.15-1.16s1.15.52,1.15,1.16v2.39h92.51v-2.39c0-.64.52-1.16,1.15-1.16M143.23,114.42h92.51v-3.59h-92.51v3.59M236.9,105.36c-1.19,0-2.15.97-2.15,2.16v1.39h-90.51v-1.39c0-1.19-.97-2.16-2.15-2.16s-2.15.97-2.15,2.16v16.23h99.12v-16.23c0-1.19-.97-2.16-2.15-2.16h0ZM144.23,111.83h90.51v1.59h-90.51v-1.59h0Z"/>
      </g>
      <g>
        <g>
          <rect class="st25" x="140.43" y="122.24" width="109.44" height="4.79"/>
          <path d="M249.36,122.74v3.79h-108.44v-3.79h108.44M250.36,121.74h-110.44v5.79h110.44v-5.79h0Z"/>
        </g>
        <g>
          <rect class="st25" x="140.43" y="117.72" width="107.13" height="1.92"/>
          <path d="M247.06,118.22v.92h-106.13v-.92h106.13M248.06,117.22h-108.13v2.92h108.13v-2.92h0Z"/>
        </g>
        <g>
          <path class="st25" d="M246.56,127.03v-11.21c0-.91.74-1.66,1.65-1.66s1.65.74,1.65,1.66v11.21h-3.3Z"/>
          <path d="M248.21,114.67c.64,0,1.15.52,1.15,1.16v10.71h-2.3v-10.71c0-.64.52-1.16,1.15-1.16M248.21,113.67c-1.19,0-2.15.97-2.15,2.16v11.71h4.3v-11.71c0-1.19-.97-2.16-2.15-2.16h0Z"/>
        </g>
        <g>
          <path class="st25" d="M140.43,127.03v-11.21c0-.91.74-1.66,1.65-1.66s1.65.74,1.65,1.66v11.21h-3.3Z"/>
          <path d="M142.08,114.67c.64,0,1.15.52,1.15,1.16v10.71h-2.3v-10.71c0-.64.52-1.16,1.15-1.16M142.08,113.67c-1.19,0-2.15.97-2.15,2.16v11.71h4.3v-11.71c0-1.19-.97-2.16-2.15-2.16h0Z"/>
        </g>
      </g>
      <g>
        <rect class="st22" x="140.43" y="126.03" width="109.44" height="8.47"/>
        <path d="M249.36,126.53v7.47h-108.44v-7.47h108.44M250.36,125.53h-110.44v9.47h110.44v-9.47h0Z"/>
      </g>
    </g>
    <g>
      <path class="st9" d="M17.4,106.03c-1.41,0-2.55-1.15-2.55-2.56s1.15-2.56,2.55-2.56,2.55,1.15,2.55,2.56-1.15,2.56-2.55,2.56Z"/>
      <path d="M17.4,101.41c1.13,0,2.05.92,2.05,2.06s-.92,2.06-2.05,2.06-2.05-.92-2.05-2.06.92-2.06,2.05-2.06M17.4,100.41c-1.68,0-3.05,1.37-3.05,3.06s1.37,3.06,3.05,3.06,3.05-1.37,3.05-3.06-1.37-3.06-3.05-3.06h0Z"/>
    </g>
    <g>
      <path class="st9" d="M236.99,106.03c-1.41,0-2.55-1.15-2.55-2.56s1.15-2.56,2.55-2.56,2.55,1.15,2.55,2.56-1.15,2.56-2.55,2.56Z"/>
      <path d="M236.99,101.41c1.13,0,2.05.92,2.05,2.06s-.92,2.06-2.05,2.06-2.05-.92-2.05-2.06.92-2.06,2.05-2.06M236.99,100.41c-1.68,0-3.05,1.37-3.05,3.06s1.37,3.06,3.05,3.06,3.05-1.37,3.05-3.06-1.37-3.06-3.05-3.06h0Z"/>
    </g>
    <g>
      <path class="st25" d="M5.79,114.53c-1.41,0-2.55-1.15-2.55-2.56s1.15-2.56,2.55-2.56,2.55,1.15,2.55,2.56-1.15,2.56-2.55,2.56Z"/>
      <path d="M5.79,109.91c1.13,0,2.05.92,2.05,2.06s-.92,2.06-2.05,2.06-2.05-.92-2.05-2.06.92-2.06,2.05-2.06M5.79,108.91c-1.68,0-3.05,1.37-3.05,3.06s1.37,3.06,3.05,3.06,3.05-1.37,3.05-3.06-1.37-3.06-3.05-3.06h0Z"/>
    </g>
    <g>
      <path class="st25" d="M248.21,114.53c-1.41,0-2.55-1.15-2.55-2.56s1.15-2.56,2.55-2.56,2.55,1.15,2.55,2.56-1.15,2.56-2.55,2.56Z"/>
      <path d="M248.21,109.91c1.13,0,2.05.92,2.05,2.06s-.92,2.06-2.05,2.06-2.05-.92-2.05-2.06.92-2.06,2.05-2.06M248.21,108.91c-1.68,0-3.05,1.37-3.05,3.06s1.37,3.06,3.05,3.06,3.05-1.37,3.05-3.06-1.37-3.06-3.05-3.06h0Z"/>
    </g>
  </g>
</svg>