<?xml version="1.0" encoding="utf-8"?>
<!-- Generator: Adobe Illustrator 24.1.1, SVG Export Plug-In . SVG Version: 6.00 Build 0)  -->
<svg version="1.1" id="Layer_1" xmlns="http://www.w3.org/2000/svg" xmlns:xlink="http://www.w3.org/1999/xlink" x="0px" y="0px"
	 viewBox="0 0 240 240" style="enable-background:new 0 0 240 240;" xml:space="preserve">
<g>
	<path style="fill:#FFFFFF;" d="M79.77,168.72c-4.46,10.26-13.17,21.96-23.13,23.11c-0.17,0.03-0.39,0.03-0.63,0.03
		c-1.25,0-3.06-0.29-4.04-0.44c-7-1.13-13.08-7.66-16.85-13.47c-0.42-0.64-0.88-1.32-1.34-1.98c-1.52,0-3.04-0.07-4.51-0.25
		c-4.06-0.52-7.78-3.21-9.2-7.37c-0.3-0.86-0.49-1.74-0.59-2.54c-0.66-5.61,2.57-9.28,7.52-10.4c1.62-0.37,3.09-0.54,4.41-0.54
		c3.96,0,6.75,1.52,9.25,4.09c0.29,0.27,0.56,0.57,0.83,0.9c0.54,0.63,1.08,1.28,1.61,1.99c0.54,0.71,1.07,1.45,1.61,2.23
		c0.54,0.79,1.08,1.61,1.66,2.47c1.25,1.89,2.54,3.85,4.14,5.44c0.03,0.03,0.08,0.08,0.12,0.1c1.37,1.34,2.64,2.15,3.8,2.52
		c0.22,0.07,0.44,0.14,0.64,0.17c0.36,0.08,0.71,0.12,1.05,0.12c3.3,0,5.9-3.25,8.35-6.96c2.13-3.21,4.55-6.51,8.08-7.64
		c0.15-0.05,0.3-0.1,0.47-0.15c0.49-0.14,1.01-0.29,1.56-0.41c0.81-0.17,1.66-0.29,2.45-0.25c0.08,0,0.17,0.02,0.25,0.02
		c0.19,0,0.37,0.03,0.54,0.07c0.12,0.02,0.22,0.05,0.34,0.07c0.1,0.02,0.2,0.05,0.3,0.1c0.19,0.05,0.36,0.12,0.52,0.24
		c0.3,0.15,0.57,0.37,0.81,0.64c0.15,0.17,0.27,0.37,0.39,0.57c0.22,0.44,0.39,0.96,0.44,1.61
		C80.84,164.76,80.52,166.97,79.77,168.72z"/>
	<path style="fill:none;" d="M53.59,187.6c0.03-0.08,0.05-0.17,0.08-0.24c0.19-0.57,0.37-1.17,0.52-1.74v-0.02 M53.59,187.6
		c0.03-0.08,0.05-0.17,0.08-0.24c0.19-0.57,0.37-1.17,0.52-1.74v-0.02c0.02-0.03,0.02-0.05,0.03-0.08 M54.92,181.55
		c0.03-0.2,0.03-0.39,0.05-0.59c0-0.03,0-0.08,0-0.12 M54.77,175.77c0.02,0.24,0.05,0.46,0.08,0.68c0.02,0.05,0.02,0.12,0.02,0.17
		c0.03,0.17,0.05,0.32,0.07,0.49 M54.87,176.61c0-0.05,0-0.12-0.02-0.17 M52.76,189.71c-0.24,0.57-0.51,1.15-0.78,1.71
		C52.25,190.86,52.52,190.29,52.76,189.71c0.22-0.52,0.44-1.07,0.64-1.61"/>
	<path style="fill:#0085C9;" d="M51.98,191.42c-7-1.13-13.08-7.66-16.85-13.47c-0.42-0.64-0.88-1.32-1.34-1.98
		c-1.52,0-3.04-0.07-4.51-0.25c-4.06-0.52-7.78-3.21-9.2-7.37c-0.3-0.86-0.49-1.74-0.59-2.54c-0.66-5.61,2.57-9.28,7.52-10.4
		c1.62-0.37,3.09-0.54,4.41-0.54c3.96,0,6.75,1.52,9.25,4.09c0.29,0.29,0.56,0.59,0.83,0.9c0.54,0.63,1.08,1.28,1.61,1.99
		c0.52,0.69,1.07,1.45,1.61,2.23c0.54,0.79,1.08,1.61,1.66,2.47c1.25,1.89,2.54,3.85,4.14,5.44c0.03,0.03,0.08,0.08,0.12,0.1
		c1.37,1.34,2.64,2.15,3.8,2.52c0.14,0.08,0.2,0.14,0.2,0.15C55.73,181.14,54.45,186.42,51.98,191.42z"/>
	<path d="M83.15,162.56c-0.34-3.52-2.72-5.63-6.37-5.63c-1.42,0-3.06,0.32-5,0.95c-4.33,1.4-7.13,5.21-9.42,8.66
		c-1.89,2.89-4.12,5.83-6.24,5.83c-1.07,0-2.37-0.73-3.82-2.18c-1.39-1.35-2.57-3.14-3.72-4.87l-0.12-0.17
		c-4.56-6.88-8.52-12.81-17.04-12.81c-1.54,0-3.18,0.2-4.97,0.59c-6.54,1.47-10.26,6.64-9.48,13.19c0.12,0.98,0.36,2.03,0.71,3.06
		c1.67,4.9,5.98,8.37,11.28,9.06c1.05,0.14,2.18,0.22,3.48,0.25c0.19,0.29,0.37,0.56,0.56,0.85c2.54,3.89,9.4,13.12,18.58,14.59
		c1.05,0.17,2.98,0.47,4.45,0.47c0.34,0,0.66-0.02,0.93-0.05c11.22-1.3,20.56-14.08,25.14-24.61C83.02,167.6,83.41,165,83.15,162.56
		z M79.77,168.72c-4.46,10.26-13.17,21.96-23.13,23.11c-0.17,0.03-0.39,0.03-0.63,0.03c-1.25,0-3.06-0.29-4.04-0.44
		c-7-1.13-13.08-7.66-16.85-13.47c-0.42-0.64-0.88-1.32-1.34-1.98c-1.52,0-3.04-0.07-4.51-0.25c-4.06-0.52-7.78-3.21-9.2-7.37
		c-0.3-0.86-0.49-1.74-0.59-2.54c-0.66-5.61,2.57-9.28,7.52-10.4c1.62-0.37,3.09-0.54,4.41-0.54c3.96,0,6.75,1.52,9.25,4.09
		c0.29,0.27,0.56,0.57,0.83,0.9c0.54,0.63,1.08,1.28,1.61,1.99c0.54,0.71,1.07,1.45,1.61,2.23c0.54,0.79,1.08,1.61,1.66,2.47
		c1.25,1.89,2.54,3.85,4.14,5.44c0.03,0.03,0.08,0.08,0.12,0.1c1.37,1.34,2.64,2.15,3.8,2.52c0.22,0.07,0.44,0.14,0.64,0.17
		c0.36,0.08,0.71,0.12,1.05,0.12c3.3,0,5.9-3.25,8.35-6.96c2.13-3.21,4.55-6.51,8.08-7.64c0.15-0.05,0.3-0.1,0.47-0.15
		c0.49-0.15,1.01-0.3,1.56-0.41c0.73-0.17,1.47-0.27,2.2-0.27c0.08,0,0.17,0,0.25,0.02c0.08,0,0.17,0.02,0.25,0.02
		c0.19,0,0.37,0.03,0.54,0.07c0.12,0,0.22,0.03,0.34,0.07c0.1,0.02,0.2,0.05,0.3,0.1c0.19,0.05,0.36,0.12,0.52,0.24
		c0.3,0.15,0.57,0.37,0.81,0.64c0.15,0.17,0.29,0.37,0.39,0.57c0.22,0.44,0.39,0.96,0.44,1.61
		C80.84,164.76,80.52,166.97,79.77,168.72z"/>
</g>
<g>
	<path style="fill:#FFFFFF;" d="M117.45,74.98c-0.56,0.29-1.08,0.42-1.59,0.42c-3.77,0-5.71-7.46-7.4-10.06
		c-1.4-2.21-2.74-3.04-4.07-3.04c-1.42,0-2.82,0.95-4.33,2.23c0.02,0.08,0.05,0.15,0.05,0.25c-0.56,0.3-1.1,0.73-1.64,1.17
		c-0.83,0.78-1.71,1.59-2.62,2.33c-1.59,1.28-3.41,1.91-5.21,1.91c-2.64,0-5.21-1.32-6.86-3.84c-1.74-2.65-2.06-5.98-1.12-8.89
		c0.56-1.74,1.57-3.33,3.03-4.53c0.68-0.54,3.21-2.82,7.4-5.02c0.03,0.02,0.07,0.02,0.1,0.03c3.08-1.54,6.31-2.5,9.59-2.5
		c2.4,0,4.83,0.52,7.25,1.72c1.72,0.86,1.94,1.03,3.5,2.42c1.34,1.18,2.52,2.59,3.62,4.02C120.67,58.21,122.9,72.21,117.45,74.98z"
		/>
	<path d="M119.16,52.07c-1.44-1.88-2.69-3.26-3.94-4.38c-1.71-1.52-2.11-1.83-4.06-2.79c-2.65-1.32-5.48-1.99-8.38-1.99
		c-3.3,0-6.75,0.85-10.24,2.54c-2.13,1.1-4.07,2.33-5.53,3.35c-1.81,1.25-2.92,2.18-2.92,2.18c-1.77,1.49-3.11,3.45-3.84,5.71
		c-1.22,3.74-0.68,7.88,1.42,11.06c2.05,3.13,5.41,4.99,8.98,4.99c2.47,0,4.82-0.85,6.8-2.47c0.95-0.78,1.83-1.59,2.67-2.37
		l0.03-0.03c0.17-0.14,0.54-0.44,0.95-0.78c0.49-0.42,1.03-0.9,1.3-1.2c0.91-0.69,1.57-1.05,1.99-1.05c0.35,0,1.07,0.49,1.94,1.88
		c0.36,0.54,0.79,1.52,1.27,2.57c1.64,3.65,3.87,8.66,8.27,8.66c0.91,0,1.84-0.24,2.74-0.69c1.45-0.74,3.36-2.42,4.21-6.15
		C124.25,64.82,122.07,55.86,119.16,52.07z M117.45,74.98c-0.56,0.29-1.08,0.42-1.59,0.42c-3.77,0-5.71-7.46-7.4-10.06
		c-1.4-2.21-2.74-3.04-4.07-3.04c-1.42,0-2.81,0.95-4.31,2.21l-0.02,0.02c0,0.1-1.05,0.98-1.59,1.42c-0.83,0.78-1.71,1.59-2.62,2.33
		c-1.59,1.28-3.41,1.91-5.21,1.91c-2.64,0-5.21-1.32-6.86-3.84c-1.74-2.65-2.06-5.98-1.12-8.89c0.56-1.74,1.61-3.28,3.03-4.53
		c3.11-2.72,7.44-4.99,7.51-4.99c0.03-0.02,0.05-0.03,0.08-0.03c3.04-1.52,6.25-2.47,9.5-2.47c2.4,0,4.83,0.52,7.25,1.72
		c1.72,0.86,1.94,1.03,3.5,2.42c1.34,1.18,2.52,2.59,3.62,4.02C120.67,58.21,122.9,72.21,117.45,74.98z"/>
	<path style="fill:#653109;" d="M100.08,64.51l-0.02,0.02c0,0.1-1.05,0.98-1.59,1.42c-0.83,0.78-1.71,1.59-2.62,2.33
		c-1.59,1.28-3.41,1.91-5.21,1.91c-2.64,0-5.21-1.32-6.86-3.84c-1.74-2.65-2.06-5.98-1.12-8.89c0.56-1.74,1.61-3.28,3.03-4.53
		c3.11-2.72,7.44-4.99,7.51-4.99c0.03-0.02,0.05-0.03,0.08-0.03c1.05,0.35,1.49,1.01,1.49,1.01c1.03,1.07,1.56,2.64,0.93,4.09
		c-0.36,0.85-0.98,1.45-1.69,1.84c0.78-0.29,1.66-0.29,2.47,0.12c1.71,0.88,2.47,3.14,1.64,5.07c-0.39,0.96-1.12,1.66-1.93,2.01
		c0.64-0.12,1.32-0.1,1.94,0.22C99.23,62.84,99.94,63.35,100.08,64.51z"/>
</g>
<g>
	<path style="fill:#FFFFFF;" d="M191.89,76.48c-0.05,3.25-1.64,6.41-4.53,8.33c-1.72,1.15-3.65,1.71-5.56,1.71
		c-3.25,0-6.44-1.59-8.37-4.5c-0.02-0.02-0.02-0.03-0.03-0.05c-0.9-1.35-3.43-4.58-3.36-4.7c-2.05-2.52-4.14-4.31-6.29-4.31
		c-0.78,0-1.57,0.24-2.37,0.76c-2.64,1.74-5.87,7.59-9.77,7.59c-0.85,0-1.71-0.27-2.6-0.9c-4.68-3.31-0.08-11.41,2.2-14.74
		c4.12-6.09,8.11-10.3,15.55-10.55c0.25-0.02,0.52-0.02,0.78-0.02c6.71,0,12.04,3.11,16.55,7.79c0.02,0,0.02,0,0.03,0
		c3.79,3.8,5.6,7.1,6.14,7.93C191.38,72.58,191.9,74.54,191.89,76.48z"/>
	<path style="fill:#653109;" d="M184.06,62.89c0.02,0,0.03,0,0.05,0.02c-0.02,0-0.02,0-0.03,0L184.06,62.89z"/>
	<path d="M192.36,69.45c-0.07-0.12-0.15-0.25-0.25-0.42c-0.15-0.25-0.35-0.57-0.59-0.93c0-0.02-0.02-0.02-0.02-0.03
		c-1.01-1.57-2.79-4.14-5.58-6.95c-0.08-0.07-0.17-0.14-0.25-0.2c-5.48-5.61-11.43-8.33-18.14-8.33c-0.29,0-0.57,0-0.86,0.02
		c-9.11,0.32-13.68,5.93-17.56,11.65c-5.56,8.18-6.15,15.01-1.57,18.24c1.28,0.91,2.65,1.37,4.07,1.37c3.69,0,6.47-3.09,8.72-5.58
		c0.88-0.98,1.81-2.01,2.45-2.43c0.46-0.3,0.78-0.34,0.96-0.34c0.52,0,1.66,0.36,3.58,2.52c0.63,0.74,3.13,4.12,3.97,5.38
		c0.49,0.74,1.05,1.42,1.66,2.01c2.33,2.32,5.49,3.65,8.84,3.65c2.48,0,4.9-0.74,6.96-2.13c3.48-2.33,5.6-6.22,5.66-10.41
		C194.46,74,193.75,71.56,192.36,69.45z M187.36,84.82c-1.72,1.15-3.65,1.71-5.56,1.71c-3.25,0-6.44-1.59-8.37-4.5
		c-0.02-0.02-0.02-0.03-0.03-0.05c-0.9-1.35-2.55-3.52-3.36-4.7l-0.02-0.02c-2.05-2.5-4.12-4.29-6.27-4.29
		c-0.78,0-1.57,0.24-2.37,0.76c-2.64,1.74-5.87,7.59-9.77,7.59c-0.85,0-1.71-0.27-2.6-0.9c-4.68-3.31-0.08-11.41,2.2-14.74
		c4.12-6.09,8.11-10.3,15.55-10.55c0.25-0.02,0.52-0.02,0.78-0.02c6.71,0,12.02,3.11,16.53,7.78l0.02,0.02c0.02,0,0.02,0,0.03,0
		c3.79,3.8,5.6,7.1,6.14,7.93c1.13,1.74,1.66,3.7,1.64,5.65C191.84,79.73,190.25,82.89,187.36,84.82z"/>
	<path style="fill:#653109;" d="M191.89,76.48c-0.05,3.25-1.64,6.41-4.53,8.33c-1.72,1.15-3.65,1.71-5.56,1.71
		c-3.25,0-6.44-1.59-8.37-4.5c-0.02-0.02-0.02-0.03-0.03-0.05c-0.9-1.35-2.55-3.52-3.36-4.7l-0.02-0.02
		c0.63-1.13,1.74-1.96,3.13-2.06c0.81-0.08,1.56,0.17,2.23,0.54c-0.78-0.68-1.3-1.64-1.39-2.74c-0.17-2.23,1.49-4.18,3.7-4.38
		c1.01-0.08,1.98,0.27,2.74,0.86c-0.64-0.66-1.12-1.52-1.18-2.5c0-0.08-0.02-0.15-0.02-0.24c0-1.05,0.54-1.96,1.34-2.65
		c0,0,0.73-0.78,2.08-1.1c0.07-0.02,0.12-0.02,0.19-0.03c0.07-0.02,0.15-0.02,0.22-0.03c0.17-0.03,0.32-0.07,0.49-0.08
		c0.15-0.02,0.3,0.02,0.46,0.05h0.07l0.02,0.02c0.02,0,0.02,0,0.03,0c3.79,3.8,5.6,7.1,6.14,7.93
		C191.38,72.58,191.9,74.54,191.89,76.48z"/>
</g>
<path style="fill:#00A2F6;" d="M129.49,66.57l0.27,0.04C129.6,66.58,129.49,66.57,129.49,66.57z"/>
<g>
	<g>
		<path d="M69.93,176.46c1.22-3.3,2.1-6.73,1.86-10.24C71.98,169.48,71.13,172.98,69.93,176.46z M69.19,90.56
			c-1.17,1.72-2.23,3.5-3.21,5.32C66.98,94.06,68.04,92.29,69.19,90.56z M61.01,107.3c1-2.96,2.18-5.85,3.55-8.66
			c-1.39,2.81-2.59,5.71-3.58,8.69C60.99,107.32,60.99,107.32,61.01,107.3z"/>
		<path d="M182.33,193.13c-1.27-4.85-2.49-9.43-3.09-12.93c-1.37-7.73,1.79-15.32,4.85-22.64l0.49-1.17
			c11.87-28.57,2.43-63.09-21.94-80.32c-12.27-8.67-28.32-13.64-43.99-13.64c-9.8,0-19.27,1.96-27.4,5.68
			c-14.81,6.78-26.34,20.2-32.47,37.87c-3.58,3.96-4.94,6.81-6.83,12.56c-4.34,13.17,0.81,27.47,13.76,38.32
			c1.84,3.06,3.14,5.75,3.5,8.76c0.59,5.02-1.66,10.21-3.63,14.77c-2.28,5.27-3.87,10.57-5.02,16.67
			c-2.54,13.63-2.45,26.47,0.27,38.21c0.42,1.86,0.9,3.41,1.45,4.7h2.82c-0.74-1.23-1.27-2.92-1.81-5.26
			c-0.17-0.76-0.34-1.52-0.49-2.28c-2.28-11.53-1.91-23.36,0.25-34.91c0.63-3.35,1.4-6.49,2.4-9.6c0.69-2.18,1.49-4.33,2.43-6.51
			c0.69-1.61,1.4-3.25,2.03-4.92c0-0.02,0.02-0.02,0.02-0.03c0.54-1.59,1.01-3.18,1.35-4.73c0.08-0.39,0.17-0.78,0.22-1.17
			c0.07-0.36,0.12-0.71,0.17-1.07c0.05-0.42,0.1-0.83,0.12-1.23c0.03-0.69,0.03-1.37,0-2.05c0-0.29-0.03-0.59-0.07-0.9
			c-0.22-1.89-0.78-3.67-1.52-5.36c-0.34-0.81-0.74-1.61-1.17-2.38c-0.22-0.41-0.44-0.79-0.68-1.2c-0.24-0.39-0.47-0.79-0.71-1.18
			c-0.56-0.47-1.1-0.93-1.64-1.42c-0.51-0.46-1-0.91-1.47-1.39c-0.47-0.46-0.93-0.93-1.37-1.4c-0.52-0.54-1.03-1.12-1.5-1.67
			c-0.49-0.57-0.96-1.15-1.4-1.74c-0.22-0.29-0.44-0.57-0.64-0.86c-1.69-2.3-3.09-4.75-4.18-7.3c-0.14-0.27-0.24-0.56-0.34-0.83
			c-0.22-0.54-0.42-1.06-0.59-1.61c-0.14-0.42-0.27-0.85-0.39-1.27c-0.15-0.54-0.3-1.1-0.42-1.66c-0.12-0.47-0.2-0.93-0.29-1.4
			c-0.07-0.3-0.12-0.61-0.15-0.91c-0.12-0.78-0.2-1.59-0.24-2.4c-0.03-0.51-0.05-1-0.05-1.5c0-0.44,0.02-0.88,0.03-1.3
			c0.02-0.44,0.05-0.88,0.1-1.32c0.03-0.44,0.08-0.88,0.15-1.32c0.07-0.46,0.15-0.9,0.24-1.34c0.2-1.07,0.49-2.15,0.85-3.21
			c0.71-2.13,1.32-3.82,1.99-5.29c0.12-0.25,0.24-0.49,0.36-0.73c0.1-0.24,0.22-0.47,0.36-0.69c0.19-0.34,0.37-0.66,0.57-1
			c0.2-0.32,0.42-0.64,0.64-0.98c0.24-0.32,0.47-0.64,0.71-0.96c0.24-0.32,0.49-0.64,0.79-0.98c0.35-0.44,0.76-0.9,1.2-1.37
			c0.24-0.69,0.47-1.39,0.73-2.06c0.15-0.44,0.32-0.86,0.49-1.28c0.03-0.08,0.07-0.19,0.12-0.27c0.14-0.35,0.27-0.69,0.42-1.05
			c0.2-0.51,0.44-1.01,0.66-1.52c0.37-0.85,0.76-1.67,1.17-2.5c0.44-0.93,0.91-1.86,1.42-2.76c0.98-1.83,2.05-3.6,3.21-5.32
			c0.56-0.86,1.17-1.71,1.79-2.54c0.59-0.83,1.22-1.62,1.88-2.42c1.32-1.59,2.7-3.13,4.18-4.56c0.32-0.32,0.64-0.64,0.98-0.95
			c1.91-1.81,3.96-3.48,6.14-4.99c0.36-0.27,0.73-0.51,1.1-0.74c2.23-1.49,4.58-2.81,7.07-3.94c2.03-0.93,4.12-1.74,6.25-2.42
			c1.07-0.35,2.13-0.66,3.23-0.95c5.43-1.42,11.12-2.1,16.85-2.1c3.79,0,7.59,0.3,11.36,0.88c1.88,0.29,3.75,0.64,5.6,1.07
			c6.83,1.57,13.41,4.06,19.37,7.39c1.34,0.71,2.64,1.49,3.91,2.32c0.78,0.49,1.54,1.01,2.28,1.54
			c24.22,17.11,32.15,50.6,21.06,77.26c-3.33,8.01-7.07,16.35-5.49,25.22c1.64,9.28,7.18,25.51,7.67,34.94
			c0.56,10.38-0.54,16.69-5.63,24.39h2.99c4.48-7.29,5.73-13.9,5.17-24.53C186.63,209.41,184.45,201.14,182.33,193.13z"/>
		<path style="fill:#00A2F6;" d="M184.41,215.58c0.56,10.38-0.54,16.69-5.63,24.39H65.1c-0.74-1.23-1.27-2.92-1.81-5.26
			c-0.17-0.76-0.34-1.52-0.49-2.28c-2.28-11.53-1.91-23.36,0.25-34.91c0.63-3.35,1.4-6.49,2.4-9.6c0.69-2.18,1.49-4.33,2.43-6.51
			c0.69-1.61,1.4-3.25,2.03-4.92c0-0.02,0.02-0.02,0.02-0.03c0.54-1.59,1.01-3.18,1.35-4.73c0.08-0.39,0.17-0.78,0.22-1.17
			c0.07-0.35,0.12-0.7,0.17-1.05c0.05-0.42,0.1-0.83,0.12-1.25c0.03-0.69,0.03-1.37,0-2.05c0-0.29-0.03-0.59-0.07-0.9
			c-0.22-1.89-0.78-3.67-1.52-5.36c-0.34-0.81-0.74-1.61-1.17-2.38c-0.22-0.41-0.44-0.79-0.68-1.2c-0.24-0.39-0.47-0.79-0.71-1.18
			c-0.56-0.47-1.1-0.93-1.64-1.42c-0.51-0.46-1-0.91-1.47-1.39c-0.47-0.46-0.93-0.93-1.37-1.4c-0.52-0.54-1.03-1.12-1.5-1.67
			c-0.49-0.57-0.96-1.15-1.4-1.74c-0.22-0.29-0.44-0.57-0.64-0.86c-1.69-2.3-3.09-4.75-4.18-7.3c-0.14-0.27-0.24-0.56-0.34-0.83
			c-0.22-0.54-0.42-1.06-0.59-1.61c-0.14-0.42-0.27-0.85-0.39-1.27c-0.15-0.54-0.3-1.1-0.42-1.66c-0.12-0.47-0.2-0.93-0.29-1.4
			c-0.07-0.3-0.12-0.61-0.15-0.91c-0.12-0.78-0.2-1.59-0.24-2.4c-0.03-0.51-0.05-1-0.05-1.5c0-0.44,0.02-0.88,0.03-1.3
			c0.02-0.44,0.05-0.88,0.1-1.32c0.03-0.44,0.08-0.88,0.15-1.32c0.07-0.46,0.15-0.9,0.24-1.34c0.2-1.07,0.49-2.15,0.85-3.21
			c0.71-2.13,1.32-3.82,1.99-5.29c0.12-0.25,0.24-0.49,0.36-0.73c0.1-0.24,0.22-0.47,0.36-0.69c0.19-0.34,0.37-0.66,0.57-1
			c0.2-0.32,0.42-0.64,0.64-0.98c0.24-0.32,0.47-0.64,0.71-0.96c0.25-0.32,0.51-0.66,0.79-0.98c0.35-0.44,0.76-0.9,1.2-1.37
			c0.24-0.69,0.47-1.39,0.73-2.06c0.15-0.44,0.32-0.86,0.49-1.28c0.03-0.08,0.07-0.19,0.12-0.27c0.14-0.35,0.27-0.69,0.42-1.05
			c0.2-0.51,0.44-1.01,0.66-1.52c0.37-0.85,0.76-1.67,1.17-2.5c0.46-0.93,0.93-1.84,1.42-2.76c0.98-1.83,2.05-3.6,3.21-5.32
			c0.56-0.86,1.17-1.71,1.79-2.54c0.61-0.81,1.23-1.62,1.88-2.42c1.32-1.59,2.7-3.13,4.18-4.56c0.32-0.32,0.64-0.64,0.98-0.95
			c1.91-1.81,3.96-3.48,6.14-4.99c0.36-0.25,0.73-0.51,1.1-0.74c2.23-1.49,4.58-2.81,7.07-3.94c2.03-0.93,4.12-1.74,6.25-2.42
			c1.07-0.35,2.13-0.66,3.23-0.95c5.43-1.42,11.12-2.1,16.85-2.1c3.79,0,7.59,0.3,11.36,0.88c1.88,0.29,3.75,0.64,5.6,1.07
			c6.83,1.57,13.41,4.06,19.37,7.39c1.34,0.73,2.64,1.5,3.91,2.32c0.78,0.49,1.54,1.01,2.28,1.54
			c24.22,17.11,32.15,50.6,21.06,77.26c-3.33,8.01-7.07,16.35-5.49,25.22C178.38,189.91,183.92,206.14,184.41,215.58z"/>
	</g>
	<g>
		<g>
			<path style="fill-rule:evenodd;clip-rule:evenodd;fill:#FFFFFF;" d="M66.96,101.96c6.47-19.17,21.77-27.53,41.07-30.22
				c14.55-2.03,30.56,2.09,42.71,10.17c21.47,14.27,25.9,53.76,11.88,74.55c-13.21,19.6-41.74,16.64-61.8,12.67
				c-7.66-1.52-15-3.72-22.12-6.98c-16.34-7.5-30.24-24.94-24.36-42.81c2.08-6.3,3.37-8.74,7.87-13.32
				C63.33,104.88,66,103.85,66.96,101.96z"/>
		</g>
		<path style="fill-rule:evenodd;clip-rule:evenodd;fill:#FCBFBB;" d="M124.49,133.53c-1.54,8.7,4.21,16.99,12.84,18.51
			c8.63,1.53,16.87-4.28,18.41-12.98c1.54-8.69-4.21-16.98-12.84-18.5C134.28,119.03,126.03,124.84,124.49,133.53L124.49,133.53z"/>
		<path style="fill-rule:evenodd;clip-rule:evenodd;fill:#FCBFBB;" d="M56.45,121.49c-1.54,8.7,3.5,16.86,11.24,18.23
			c7.75,1.37,15.27-4.57,16.81-13.26c1.54-8.69-3.49-16.85-11.24-18.22S57.98,112.8,56.45,121.49L56.45,121.49z"/>
	</g>
</g>
<g>
	<g>
		<path style="fill-rule:evenodd;clip-rule:evenodd;fill:#FFFFFF;" d="M123.93,120.42c0,0.14-0.03,0.27-0.05,0.37
			c-0.14,0.47-0.56,0.91-0.86,0.93c-0.22,0-0.52-0.12-0.85-0.25c-0.32-0.12-0.69-0.27-1.1-0.34c-0.05-0.02-0.1-0.02-0.15-0.03
			c-0.2-0.02-0.42-0.03-0.63-0.05c-0.32-0.02-0.61-0.03-0.79-0.1c-0.44-0.17-0.9-0.54-0.91-0.96c-0.02-0.34,0.2-0.73,0.54-0.95
			c0.64-0.39,1.61-0.56,2.45-0.41c0.9,0.15,2.03,0.64,2.3,1.47C123.91,120.2,123.93,120.32,123.93,120.42z"/>
		<path d="M125.92,119.46c-0.46-1.49-1.94-2.6-3.97-2.96c-1.37-0.24-2.86,0.02-3.97,0.71c-1,0.63-1.61,1.76-1.54,2.89
			c0.07,1.22,0.93,2.32,2.25,2.84c0.52,0.22,1.05,0.25,1.49,0.27c0.17,0,0.32,0.02,0.47,0.03c0.22,0.02,0.46,0.12,0.73,0.24
			c0.3,0.12,0.68,0.27,1.12,0.36c0.17,0.03,0.37,0.05,0.56,0.03c1.45-0.02,2.55-1.28,2.91-2.5
			C126.13,120.72,126.13,120.06,125.92,119.46z M123.88,120.79c-0.14,0.47-0.56,0.91-0.86,0.93c-0.22,0-0.52-0.12-0.85-0.25
			c-0.32-0.12-0.69-0.27-1.1-0.34c-0.05-0.02-0.1-0.02-0.15-0.03c-0.2-0.02-0.42-0.03-0.63-0.05c-0.32-0.02-0.61-0.03-0.79-0.1
			c-0.44-0.17-0.9-0.54-0.91-0.96c-0.02-0.34,0.2-0.73,0.54-0.95c0.64-0.39,1.61-0.56,2.45-0.41c0.9,0.15,2.03,0.64,2.3,1.47
			c0.03,0.1,0.05,0.22,0.05,0.32C123.93,120.55,123.89,120.69,123.88,120.79z"/>
	</g>
	<g>
		<path style="fill-rule:evenodd;clip-rule:evenodd;fill:#FFFFFF;" d="M95.07,115.91c-0.15,0.36-0.64,0.52-1.07,0.54
			c-0.19,0-0.46-0.08-0.73-0.17c-0.19-0.05-0.39-0.12-0.57-0.15c-0.44-0.1-0.88-0.1-1.25-0.08c-0.32,0.02-0.63,0.02-0.81-0.05
			c-0.22-0.1-0.42-0.54-0.42-0.96v-0.08c0.02-0.22,0.08-0.42,0.22-0.57c0.49-0.64,1.62-0.69,2.45-0.56
			c0.79,0.15,1.59,0.59,2.01,1.15C95.12,115.25,95.19,115.63,95.07,115.91z"/>
		<path d="M96.61,113.64c-0.76-0.98-2.01-1.71-3.33-1.94c-1.94-0.36-3.65,0.15-4.56,1.35c-0.37,0.49-0.59,1.08-0.64,1.72
			c-0.1,1.22,0.49,2.72,1.79,3.23c0.19,0.07,0.36,0.12,0.54,0.15c0.41,0.07,0.78,0.05,1.12,0.05c0.27-0.02,0.52-0.03,0.69,0.02
			c0.14,0.03,0.29,0.07,0.42,0.12c0.41,0.12,0.88,0.27,1.44,0.25c1.37-0.03,2.52-0.74,2.98-1.83
			C97.49,115.75,97.3,114.54,96.61,113.64z M93.28,116.28c-0.19-0.05-0.39-0.12-0.57-0.15c-0.44-0.1-0.88-0.1-1.25-0.08
			c-0.32,0.02-0.63,0.02-0.81-0.05c-0.22-0.1-0.42-0.54-0.42-0.96v-0.08c0.02-0.22,0.08-0.42,0.22-0.57
			c0.49-0.64,1.62-0.69,2.45-0.56c0.79,0.15,1.59,0.59,2.01,1.15c0.22,0.29,0.29,0.68,0.17,0.95c-0.15,0.36-0.64,0.52-1.07,0.54
			C93.82,116.45,93.55,116.36,93.28,116.28z"/>
	</g>
	<path style="fill:#8EA7B1;" d="M110.5,114.21c-0.41,0-0.78-0.27-0.9-0.68c-0.36-1.32,0.07-2.66,0.49-3.96
		c0.13-0.4,0.26-0.8,0.36-1.19c0.13-0.5,0.63-0.8,1.13-0.67c0.5,0.13,0.79,0.64,0.67,1.13c-0.11,0.43-0.25,0.87-0.39,1.3
		c-0.35,1.08-0.69,2.11-0.47,2.89c0.14,0.49-0.15,1.01-0.65,1.14C110.66,114.2,110.58,114.21,110.5,114.21z"/>
	<path style="fill:#8EA7B1;" d="M114.63,115.82c-0.29,0-0.58-0.13-0.77-0.37c-1.07-1.33,0.27-5.47,0.29-5.51
		c0.2-0.47,0.75-0.69,1.22-0.48c0.47,0.2,0.69,0.75,0.48,1.22c-0.23,0.7-0.72,3.14-0.51,3.67c0.32,0.4,0.24,0.95-0.16,1.28
		C115.03,115.76,114.83,115.82,114.63,115.82z"/>
	<path style="fill-rule:evenodd;clip-rule:evenodd;" d="M107.3,122.75c-0.2,1.14-1.56,1.84-3.05,1.57c-1.5-0.26-2.54-1.39-2.34-2.53
		c0.2-1.13,1.57-1.84,3.06-1.57C106.47,120.49,107.5,121.63,107.3,122.75"/>
	<g>
		<path style="fill-rule:evenodd;clip-rule:evenodd;fill:#D34A4C;" d="M115.59,141.38c-0.1,0.79-0.47,1.07-0.81,1.2
			c-1.52,0.64-4.68-0.36-6.29-1.61c-1.37-1.07-3.74-2.13-5.85-2.5c-0.66-0.12-1.28-0.17-1.86-0.14c-0.74,0.05-1.47,0.15-2.21,0.27
			c-0.69,0.1-1.4,0.2-2.1,0.24c-2.35,0.15-5.21-0.02-5.44-1.67c-0.08-0.56,0.05-0.81,0.17-0.96c0.66-0.86,2.94-1.1,4.29-1.23
			l0.76-0.08c1.28-0.12,2.6-0.24,3.84-0.71c0.17-0.07,1.86-0.95,3.13-1.94c1.49,1.93,3.43,3.6,5.73,4.89
			c0.83,0.47,1.83,0.83,2.77,1.18C114.48,139.3,115.75,139.93,115.59,141.38z"/>
		<path d="M112.62,135.87c-0.9-0.34-1.74-0.64-2.4-1.01c-2.47-1.37-4.46-3.25-5.76-5.39c-0.37-0.61-1.17-0.79-1.77-0.44
			c-0.3,0.19-0.51,0.47-0.59,0.79c-0.56,0.56-2.42,1.74-2.92,1.94c-0.9,0.34-2.05,0.46-3.14,0.56l-0.79,0.07
			c-2.48,0.27-4.83,0.64-6.07,2.23c-0.63,0.81-0.86,1.79-0.69,2.92c0.42,2.89,3.16,4.21,8.17,3.89c0.78-0.05,1.54-0.15,2.32-0.27
			c0.68-0.08,1.35-0.19,2.03-0.24c1.69-0.12,4.58,1.03,5.93,2.08c1.18,0.93,3.16,1.86,5.14,2.21c1.32,0.24,2.65,0.2,3.74-0.24
			c1.35-0.57,2.2-1.74,2.38-3.31C118.57,138.03,115.14,136.78,112.62,135.87z M108.49,140.98c-1.37-1.07-3.74-2.13-5.85-2.5
			c-0.66-0.12-1.28-0.17-1.86-0.14c-0.74,0.05-1.47,0.15-2.21,0.27c-0.69,0.1-1.4,0.2-2.1,0.24c-2.35,0.15-5.21-0.02-5.44-1.67
			c-0.08-0.56,0.05-0.81,0.17-0.96c0.66-0.86,2.94-1.1,4.29-1.23l0.76-0.08c1.28-0.12,2.6-0.24,3.84-0.71
			c0.17-0.07,1.86-0.95,3.13-1.94c1.49,1.93,3.43,3.6,5.73,4.89c0.83,0.47,1.83,0.83,2.77,1.18c2.76,1,4.02,1.62,3.87,3.08
			c-0.1,0.79-0.47,1.07-0.81,1.2C113.26,143.22,110.1,142.23,108.49,140.98z"/>
	</g>
</g>
<g>
	<path d="M168.63,168.09c1.98,0,4.27,0.96,5.92,1.76c3.89,1.89,6.12,5.91,8.01,9.78c1.25,2.55,2.64,7.77,5.87,8.77
		c1.14,0.35,2.19,0.51,3.16,0.51c0.4,0,0.79-0.03,1.17-0.08c0,0,0,0,0,0c0,0,0,0,0,0c0,0,0,0,0,0c0.08-0.14,4.69-1.87,5.25-2.24
		c2.13-1.42,3.95-3.3,5.74-5.13c5.7-5.81,9.08-10.12,15.17-10.12c2.08,0,4.47,0.5,7.38,1.62c5.54,2.12,8.64,6.7,6.9,12.66
		c-0.25,0.85-0.63,1.75-1.12,2.64c-2.26,4.09-5.16,6.29-9.64,6.29c-0.17,0-0.35,0-0.53-0.01c-1.74-0.07-1.76-0.28-3.52-0.56
		c-0.64,0.64-3.01,1.28-3.62,1.91c-5.33,5.57-13.42,11.47-21.65,11.47c-0.05,0-0.1,0-0.16,0c-1.38-0.01-4.11-0.04-5.48-0.41
		c-11.31-3.09-19.34-17.35-22.72-29.29c-0.57-2.03-0.55-4.48,0.01-6.56C165.39,168.83,166.89,168.09,168.63,168.09 M191.76,202.91
		c0,0,0,0.01,0,0.01C191.76,202.92,191.76,202.92,191.76,202.91c0,0,0-0.01,0-0.01C191.76,202.9,191.76,202.91,191.76,202.91
		 M168.63,165.55L168.63,165.55c-3.17,0-5.47,1.77-6.3,4.87c-0.7,2.58-0.7,5.46-0.01,7.92c3.45,12.18,11.93,27.61,24.49,31.05
		c1.49,0.41,3.82,0.48,6.13,0.5l0.18,0c10.49,0,19.76-8.4,23.37-12.14c0.23-0.13,0.75-0.35,1.08-0.49c0.47-0.2,0.92-0.39,1.34-0.61
		c0.13,0.03,0.24,0.06,0.35,0.08c0.64,0.15,1.24,0.29,2.55,0.34c0.21,0.01,0.42,0.01,0.62,0.01c5.15,0,9.03-2.49,11.86-7.6
		c0.57-1.03,1.03-2.12,1.34-3.16c2-6.83-1.31-13.01-8.43-15.73c-3.13-1.2-5.85-1.78-8.29-1.78c-6.49,0-10.32,3.97-15.17,9.01
		c-0.58,0.6-1.18,1.23-1.81,1.87l-0.16,0.17c-1.61,1.65-3.28,3.35-5.11,4.58c-0.4,0.2-1.84,0.78-2.71,1.13
		c-0.85,0.34-1.46,0.59-1.9,0.78c-0.15,0.01-0.31,0.02-0.46,0.02c-0.77,0-1.56-0.13-2.42-0.39c-1.4-0.44-2.63-3.43-3.44-5.41
		c-0.3-0.74-0.59-1.44-0.89-2.06c-2.01-4.11-4.55-8.69-9.18-10.94C172.83,166.19,170.6,165.55,168.63,165.55L168.63,165.55
		L168.63,165.55z"/>
	<path style="fill:#FFFFFF;" d="M164.78,171.08c-0.56,2.09-0.59,4.53-0.01,6.56c3.38,11.94,11.41,26.2,22.72,29.29
		c1.37,0.37,4.11,0.4,5.48,0.41c-2-5.87-2.58-11.83-0.2-18.53c-1.3,0.17-2.72,0.07-4.33-0.43c-3.23-1-4.62-6.22-5.87-8.77
		c-1.89-3.87-4.12-7.89-8.01-9.78C171.44,168.34,166.08,166.28,164.78,171.08z"/>
	<path style="fill:#0085C9;" d="M192.97,207.35c-2-5.87-2.58-11.83-0.2-18.53c0.04-0.13,4.69-1.87,5.25-2.24
		c2.13-1.42,3.95-3.3,5.74-5.13c7.64-7.79,11.12-12.88,22.55-8.5c5.54,2.12,8.64,6.7,6.9,12.66c-0.25,0.85-0.63,1.75-1.12,2.64
		c-2.35,4.24-5.39,6.46-10.17,6.28c-1.74-0.06-1.76-0.28-3.52-0.56c-0.64,0.64-3.01,1.28-3.62,1.91
		C209.4,201.48,201.25,207.43,192.97,207.35z"/>
</g>
<g>
	<path d="M59.3,69.96c6.69-8.38,7.37-16.13,1.98-23.02c-4.23-5.41-9.09-8.47-14.49-9.08c-1.1-0.12-2.23-0.19-3.38-0.19
		c-5.73,0-11.48,1.56-15.81,4.26c-5.65,3.55-8.64,8.76-8.66,15.06c0,2.28,0.27,5.14,2.45,6.9c1.08,0.88,2.35,1.3,3.91,1.3
		c1.22,0,2.45-0.25,3.75-0.52l0.47-0.1c3.96-0.81,5.16-1.32,6.81-4.02c0.27-0.46,0.56-0.95,1.12-1.72c0.12-0.17,0.25-0.34,0.34-0.46
		c0.15-0.07,0.41-0.14,0.63-0.2c0.37-0.12,0.73-0.19,1.05-0.19c0.96,0,1.74,0.47,2.28,1.34c1.1,1.77,0.15,3.36-2.4,6.8l-0.17,0.22
		c-0.29,0.41-0.57,0.78-0.85,1.17l-0.29,0.39c-1.42,1.99-3.38,4.72-2.43,8.64c1.05,4.34,3.52,8.82,6.41,11.7
		c0.22,0.22,0.47,0.41,0.74,0.56c-0.68,0.85-1.17,1.79-1.44,2.84c-0.51,2.01,0.17,4.36,1.84,6.44c0.64,0.81,3.01,3.43,6.12,3.43
		h0.17c2.72-0.08,6.58-2.23,8.44-4.68c0.73-0.95,1.15-1.94,1.23-2.94c0.37-3.45-1.2-6.39-4.19-7.83c-0.27-0.14-0.57-0.25-0.88-0.36
		c0.36-0.29,0.69-0.59,0.96-0.95c0.03-0.03,0.1-0.14,0.12-0.17c1.77-2.54,0.93-5.46,0.37-7.39c-0.19-0.61-0.47-1.62-0.46-2.01
		c0.37-0.9,1.71-2.35,2.59-3.31C58.29,71.16,58.83,70.55,59.3,69.96z M56.61,93.61c-0.05,0.56-0.32,1.12-0.74,1.67
		c-1.45,1.91-4.67,3.6-6.49,3.67h-0.08c-1.57,0-3.16-1.27-4.14-2.48c-1.18-1.45-1.67-2.99-1.37-4.23c0.41-1.56,1.57-2.86,3.26-3.69
		c0.51-0.17,1.15-0.37,1.57-0.51c0.25-0.08,0.46-0.15,0.69-0.22c0.49-0.08,1-0.15,1.49-0.15c1.1,0,2.15,0.22,3.04,0.64
		C55.85,89.28,56.87,91.22,56.61,93.61z M55.78,70.13c-1.25,1.35-2.65,2.91-3.14,4.24c-0.32,0.9,0.07,2.21,0.42,3.5
		c0.51,1.74,1.08,3.7,0,5.26c-0.02,0.02-0.03,0.05-0.05,0.07c-0.69,0.9-2.2,1.49-4.31,2.16c-0.9,0.17-1.79,0.44-2.62,0.83
		c-0.03,0.02-0.05,0.03-0.08,0.05c-0.35,0.12-0.66,0.25-0.85,0.35c-0.17,0.1-0.37,0.15-0.56,0.15c-0.29,0-0.57-0.1-0.78-0.32
		c-2.55-2.54-4.8-6.66-5.73-10.51c-0.68-2.77,0.69-4.7,2.03-6.56l0.29-0.39c0.3-0.44,0.64-0.88,0.98-1.34
		c2.38-3.21,4.63-6.22,2.54-9.65c-1.01-1.64-2.64-2.54-4.45-2.54c-0.57,0-1.18,0.1-1.81,0.3c-1.44,0.44-1.45,0.46-2.27,1.61
		c-0.61,0.86-0.95,1.42-1.22,1.86c-1.17,1.91-1.59,2.15-5.16,2.87l-0.47,0.1c-1.22,0.25-2.3,0.47-3.25,0.47
		c-0.88,0-1.64-0.19-2.3-0.73c-1.07-0.86-1.52-2.38-1.52-4.94c0.02-5.39,2.59-9.86,7.47-12.92c3.94-2.49,9.26-3.87,14.45-3.87
		c1.05,0,2.08,0.05,3.11,0.17c4.67,0.52,8.96,3.26,12.76,8.13c4.63,5.92,4.02,12.37-1.96,19.88C56.88,68.93,56.34,69.52,55.78,70.13
		z"/>
	<path style="fill:#FFE89A;" d="M55.78,67.15c-0.41,0.52-0.91,1.07-1.44,1.66c-1.37,1.49-2.92,3.2-3.55,4.9
		c-0.52,1.49-0.07,3.13,0.39,4.7c0.42,1.45,0.81,2.81,0.27,3.6c-0.41,0.59-2.67,1.28-4.16,1.74c-0.98,0.3-1.84,0.57-2.52,0.86
		c-2.15-2.32-3.99-5.85-4.8-9.16c-0.46-1.91,0.51-3.26,1.72-4.97l0.29-0.39c0.3-0.42,0.63-0.86,0.96-1.3
		c2.42-3.25,5.41-7.29,2.62-11.83c-1.37-2.23-3.63-3.47-6.1-3.47c-0.78,0-1.59,0.12-2.4,0.37l-0.2,0.07
		c-1.78,0.56-1.91,0.68-3.14,2.4c-0.57,0.79-0.93,1.4-1.22,1.88c-0.81,1.34-0.81,1.34-3.87,1.96l-0.49,0.1
		c-1.81,0.37-3.25,0.68-3.91,0.14c-0.54-0.42-0.79-1.57-0.79-3.41c0-2.96,0.9-5.31,2.16-7.15c1.25-1.84,2.91-3.16,4.4-4.11
		c4.38-2.76,10.62-4.06,16.3-3.41c4.19,0.47,7.93,2.89,11.44,7.39C61.84,54.95,61.25,60.34,55.78,67.15z"/>
	<path style="fill:#FDCD3A;" d="M59.28,48.51c-3.8-4.87-8.1-7.61-12.76-8.13c-1.03-0.12-2.06-0.17-3.11-0.17
		c-5.19,0-10.51,1.39-14.45,3.87c-4.89,3.06-7.46,7.52-7.47,12.92c0,2.55,0.46,4.07,1.52,4.94c0.66,0.54,1.42,0.73,2.3,0.73
		c0.95,0,2.03-0.22,3.25-0.47l0.47-0.1c3.57-0.73,3.99-0.96,5.16-2.87c0.27-0.44,0.61-1,1.22-1.86c0.81-1.15,0.83-1.17,2.27-1.61
		c0.63-0.2,1.23-0.3,1.81-0.3c1.81,0,3.43,0.9,4.45,2.54c2.1,3.43-0.15,6.44-2.54,9.65c-0.34,0.46-0.68,0.9-0.98,1.34l-0.29,0.39
		c-1.34,1.86-2.7,3.79-2.03,6.56c0.93,3.85,3.18,7.98,5.73,10.51c0.2,0.22,0.49,0.32,0.78,0.32c0.19,0,0.39-0.05,0.56-0.15
		c0.19-0.1,0.49-0.24,0.85-0.35c0.03-0.02,0.05-0.03,0.08-0.05c0.83-0.39,1.72-0.66,2.62-0.83c2.11-0.68,3.62-1.27,4.31-2.16
		c0.02-0.02,0.03-0.05,0.05-0.07c1.08-1.56,0.51-3.52,0-5.26c-0.35-1.28-0.74-2.6-0.42-3.5c0.49-1.34,1.89-2.89,3.14-4.24
		c0.56-0.61,1.1-1.2,1.54-1.74C63.31,60.88,63.92,54.42,59.28,48.51z M54.35,68.81c-1.37,1.49-2.92,3.2-3.55,4.9
		c-0.52,1.49-0.07,3.13,0.39,4.7c0.42,1.45,0.81,2.81,0.27,3.6c-0.41,0.59-2.67,1.28-4.16,1.74c-0.98,0.3-1.84,0.57-2.52,0.86
		c-2.15-2.32-3.99-5.85-4.8-9.16c-0.46-1.91,0.51-3.26,1.72-4.97l0.29-0.39c0.3-0.42,0.63-0.86,0.96-1.3
		c2.42-3.25,5.41-7.29,2.62-11.83c-1.37-2.23-3.63-3.47-6.1-3.47c-0.78,0-1.59,0.12-2.4,0.37l-0.2,0.07
		c-1.78,0.56-1.91,0.68-3.14,2.4c-0.57,0.79-0.93,1.4-1.22,1.88c-0.81,1.34-0.81,1.34-3.87,1.96l-0.49,0.1
		c-1.81,0.37-3.25,0.68-3.91,0.14c-0.54-0.42-0.79-1.57-0.79-3.41c0-2.96,0.9-5.31,2.16-7.15c1.25-1.84,2.91-3.16,4.4-4.11
		c4.38-2.76,10.62-4.06,16.3-3.41c4.19,0.47,7.93,2.89,11.44,7.39c4.09,5.24,3.5,10.63-1.96,17.45
		C55.38,67.68,54.87,68.22,54.35,68.81z"/>
	<path style="fill:#FFE89A;" d="M54.67,93.4c-0.1,1.1-3.5,3.53-5.36,3.58c-0.64,0.03-1.79-0.71-2.64-1.76
		c-0.76-0.93-1.13-1.91-1-2.5c0.27-1.03,1.08-1.89,2.32-2.47c0.88-0.42,1.88-0.63,2.82-0.63c0.79,0,1.56,0.15,2.18,0.44
		C54.28,90.7,54.84,91.82,54.67,93.4z"/>
	<path style="fill:#FDCD3A;" d="M53.84,88.32c-0.9-0.42-1.94-0.64-3.04-0.64c-0.49,0-1,0.07-1.49,0.15
		c-0.24,0.07-0.44,0.14-0.69,0.22c-0.42,0.14-1.06,0.34-1.57,0.51c-1.69,0.83-2.86,2.13-3.26,3.69c-0.3,1.23,0.19,2.77,1.37,4.23
		c0.98,1.22,2.57,2.48,4.14,2.48h0.08c1.83-0.07,5.04-1.76,6.49-3.67c0.42-0.56,0.69-1.12,0.74-1.67
		C56.87,91.22,55.85,89.28,53.84,88.32z M49.31,96.99c-0.64,0.03-1.79-0.71-2.64-1.76c-0.76-0.93-1.13-1.91-1-2.5
		c0.27-1.03,1.08-1.89,2.32-2.47c0.88-0.42,1.88-0.63,2.82-0.63c0.79,0,1.56,0.15,2.18,0.44c1.28,0.63,1.84,1.74,1.67,3.33
		C54.57,94.5,51.17,96.94,49.31,96.99z"/>
</g>
<g>
	<path d="M43.48,134.37c-0.95-2.18-2.84-3.52-5.09-3.6c0.17-2.35-1.44-3.94-2.4-4.89c-0.19-0.19-0.47-0.47-0.63-0.66
		c0.02-0.54,0.25-1.61,0.39-2.16c0.15-0.61,0.27-1.15,0.34-1.64c1.2-7.27-1.05-12.15-6.68-14.5c-2.37-1-4.67-1.49-6.8-1.49
		c-1.72,0-3.38,0.32-4.89,0.96c-4.14,1.74-7.95,5.09-9.92,8.72c-2.18,4.01-2.21,8.28-0.1,12.05c0.74,1.35,1.99,3.18,4.18,3.55
		c0.25,0.05,0.52,0.07,0.78,0.07c1.93,0,3.3-1.2,4.51-2.27l0.24-0.19c1.99-1.74,2.77-2.64,2.86-5.07c0-0.3,0.02-0.66,0.08-1.25
		v-0.07c0.03-0.02,0.05-0.05,0.08-0.08c0.15-0.17,0.41-0.36,0.68-0.36c0.15,0,0.3,0.03,0.46,0.14c0.61,0.34,0.68,1.01,0.34,3.65
		l-0.03,0.19c-0.03,0.3-0.07,0.63-0.1,0.93l-0.03,0.3c-0.19,1.64-0.46,4.12,1.59,6.32c2.03,2.18,4.92,3.99,7.57,4.77
		c0,0.51,0.05,1.01,0.19,1.52c0.42,1.57,1.72,2.89,3.6,3.63c0.64,0.25,1.64,0.56,2.77,0.56c1,0,1.88-0.22,2.64-0.68
		c1.72-1.05,3.36-3.72,3.69-5.93C43.9,135.97,43.8,135.11,43.48,134.37z M31.9,135.55c-0.07,0-0.15-0.02-0.22-0.03
		c-2.25-0.63-4.83-2.23-6.59-4.12c-1.3-1.39-1.13-2.94-0.96-4.43l0.03-0.3c0.03-0.34,0.08-0.69,0.14-1.07
		c0.37-2.92,0.47-4.94-1.56-6.07c-1.39-0.76-2.94-0.51-4.04,0.69c-0.64,0.68-0.64,0.68-0.74,1.54c-0.07,0.68-0.08,1.08-0.08,1.42
		c-0.05,1.52-0.3,1.83-2.03,3.33l-0.24,0.2c-1.13,1-2.11,1.84-3.31,1.64c-0.9-0.15-1.66-0.88-2.48-2.35
		c-1.72-3.08-1.67-6.44,0.12-9.74c0.86-1.59,2.13-3.11,3.63-4.45c1.52-1.32,3.26-2.45,5.11-3.21c2.82-1.2,6.14-1.01,9.82,0.52
		c4.53,1.89,6.24,5.78,5.24,11.92c-0.07,0.44-0.19,0.95-0.3,1.47c-0.27,1.13-0.57,2.43-0.42,3.31c0.08,0.56,0.71,1.17,1.3,1.76
		c0.85,0.83,1.81,1.78,1.69,3.04c-0.08,0.88-0.91,1.81-2.16,3.13c-0.49,0.52-1.01,1.07-1.2,1.37
		C32.47,135.4,32.19,135.55,31.9,135.55z M38.85,140.77c-0.41,0.24-0.88,0.34-1.39,0.34c-0.64,0-1.34-0.17-1.88-0.39
		c-1.17-0.46-1.96-1.2-2.18-2.03c-0.29-1.07-0.03-2.23,0.73-3.28c0.91-1.28,2.4-2.16,3.79-2.25h0.22c1.39,0,2.54,0.76,3.14,2.16
		C41.96,136.88,40.2,139.94,38.85,140.77z"/>
	<path style="fill:#FFE89A;" d="M34.3,130.48c-0.07,0.39-1.13,1.5-1.69,2.11c-0.39,0.41-0.76,0.78-1.03,1.13
		c-1.81-0.64-3.87-1.99-5.26-3.48c-0.73-0.78-0.68-1.64-0.51-3.09l0.03-0.3c0.03-0.34,0.07-0.68,0.12-1.03
		c0.34-2.67,0.78-6-2.42-7.76c-0.76-0.44-1.59-0.64-2.4-0.64c-1.35,0-2.7,0.59-3.79,1.74c-0.86,0.91-0.95,1.1-1.1,2.52
		c-0.07,0.63-0.08,1.08-0.08,1.45c-0.03,0.88-0.03,0.88-1.45,2.1l-0.24,0.22c-0.78,0.68-1.49,1.3-1.89,1.23
		c-0.17-0.02-0.59-0.22-1.32-1.5c-1.79-3.21-0.91-6.17,0.14-8.1c1.56-2.86,4.58-5.51,7.91-6.91c2.42-1.03,5.21-0.85,8.52,0.52
		c3.79,1.59,5.09,4.7,4.21,10.08c-0.07,0.42-0.17,0.88-0.29,1.37c-0.3,1.3-0.64,2.77-0.44,3.99c0.19,1.1,1.03,1.93,1.79,2.67
		C33.72,129.4,34.35,130,34.3,130.48z"/>
	<path style="fill:#FDCD3A;" d="M34.3,127.59c-0.59-0.59-1.22-1.2-1.3-1.76c-0.15-0.88,0.15-2.18,0.42-3.31
		c0.12-0.52,0.24-1.03,0.3-1.47c1-6.14-0.71-10.02-5.24-11.92c-3.69-1.54-7-1.72-9.82-0.52c-1.84,0.76-3.58,1.89-5.11,3.21
		c-1.5,1.34-2.77,2.86-3.63,4.45c-1.79,3.3-1.84,6.66-0.12,9.74c0.83,1.47,1.59,2.2,2.48,2.35c1.2,0.2,2.18-0.64,3.31-1.64l0.24-0.2
		c1.72-1.5,1.98-1.81,2.03-3.33c0-0.34,0.02-0.74,0.08-1.42c0.1-0.86,0.1-0.86,0.74-1.54c1.1-1.2,2.65-1.45,4.04-0.69
		c2.03,1.13,1.93,3.14,1.56,6.07c-0.05,0.37-0.1,0.73-0.14,1.07l-0.03,0.3c-0.17,1.49-0.34,3.04,0.96,4.43
		c1.76,1.89,4.34,3.5,6.59,4.12c0.07,0.02,0.15,0.03,0.22,0.03c0.29,0,0.57-0.15,0.73-0.42c0.19-0.3,0.71-0.85,1.2-1.37
		c1.25-1.32,2.08-2.25,2.16-3.13C36.11,129.36,35.14,128.41,34.3,127.59z M26.32,130.24c-0.73-0.78-0.68-1.64-0.51-3.09l0.03-0.3
		c0.03-0.34,0.07-0.68,0.12-1.03c0.34-2.67,0.78-6-2.42-7.76c-0.76-0.44-1.59-0.64-2.4-0.64c-1.35,0-2.7,0.59-3.79,1.74
		c-0.86,0.91-0.95,1.1-1.1,2.52c-0.07,0.63-0.08,1.08-0.08,1.45c-0.03,0.88-0.03,0.88-1.45,2.1l-0.24,0.22
		c-0.78,0.68-1.49,1.3-1.89,1.23c-0.17-0.02-0.59-0.22-1.32-1.5c-1.79-3.21-0.91-6.17,0.14-8.1c1.56-2.86,4.58-5.51,7.91-6.91
		c2.42-1.03,5.21-0.85,8.52,0.52c3.79,1.59,5.09,4.7,4.21,10.08c-0.07,0.42-0.17,0.88-0.29,1.37c-0.3,1.3-0.64,2.77-0.44,3.99
		c0.19,1.1,1.03,1.93,1.79,2.67c0.61,0.61,1.23,1.22,1.18,1.69c-0.07,0.39-1.13,1.5-1.69,2.11c-0.39,0.41-0.76,0.78-1.03,1.13
		C29.77,133.08,27.71,131.73,26.32,130.24z"/>
	<path style="fill:#FFE89A;" d="M37.97,139.32c-0.25,0.17-1,0.14-1.76-0.17c-0.69-0.27-1.12-0.66-1.17-0.9
		c-0.22-0.76,0.2-1.49,0.46-1.86c0.63-0.86,1.64-1.49,2.54-1.54c0.05-0.02,0.08-0.02,0.14-0.02c0.71,0,1.22,0.39,1.56,1.17
		C39.91,136.5,38.9,138.76,37.97,139.32z"/>
	<path style="fill:#FDCD3A;" d="M41.28,135.33c-0.61-1.4-1.76-2.16-3.14-2.16h-0.22c-1.39,0.08-2.87,0.96-3.79,2.25
		c-0.76,1.05-1.01,2.21-0.73,3.28c0.22,0.83,1.01,1.57,2.18,2.03c0.54,0.22,1.23,0.39,1.88,0.39c0.51,0,0.98-0.1,1.39-0.34
		C40.2,139.94,41.96,136.88,41.28,135.33z M37.97,139.32c-0.25,0.17-1,0.14-1.76-0.17c-0.69-0.27-1.12-0.66-1.17-0.9
		c-0.22-0.76,0.2-1.49,0.46-1.86c0.63-0.86,1.64-1.49,2.54-1.54c0.05-0.02,0.08-0.02,0.14-0.02c0.71,0,1.22,0.39,1.56,1.17
		C39.91,136.5,38.9,138.76,37.97,139.32z"/>
</g>
<g>
	<path d="M223.45,99.37c-2.77-3.52-7.02-6.29-11.04-7.24c-1.1-0.25-2.18-0.37-3.23-0.37c-3.2,0-6.12,1.2-8.42,3.48
		c-1.1,1.08-2.54,2.79-2.32,4.99c0.24,2.33,2.06,3.53,3.53,4.51l0.24,0.17c1.34,0.88,2.47,1.64,4.01,1.64c0.54,0,1.05-0.1,1.64-0.24
		c0.29-0.07,0.64-0.15,1.23-0.25c0.02,0,0.03,0,0.07-0.02c0.03,0.03,0.07,0.05,0.1,0.07c0.61,0.32,0.59,0.71,0.52,1.03
		c-0.17,0.68-0.81,0.91-3.45,1.28l-0.17,0.03c-0.32,0.05-0.63,0.08-0.93,0.14l-0.3,0.05c-1.64,0.27-4.11,0.66-5.68,3.23
		c-1.56,2.54-2.52,5.78-2.57,8.54c-0.49,0.14-0.98,0.34-1.42,0.61c-1.4,0.83-2.33,2.43-2.55,4.43c-0.24,2.1,0.35,4.04,1.57,5.19
		c1.4,1.34,3.97,2.03,5.78,2.03c0.3,0,0.61-0.02,0.91-0.07c0.93-0.12,1.72-0.44,2.35-0.95c1.86-1.5,2.62-3.7,2.11-5.88
		c2.32-0.46,3.43-2.42,4.09-3.62c0.12-0.22,0.32-0.56,0.46-0.76c0.54-0.14,1.62-0.19,2.18-0.2c0.64-0.02,1.2-0.05,1.67-0.1
		c7.34-0.79,11.44-4.26,12.21-10.31C226.64,106.15,225.76,102.31,223.45,99.37z M201.83,129.78c-0.44,0.34-1.07,0.49-1.77,0.49
		c-1.52,0-3.33-0.64-4.12-1.39c-0.78-0.74-0.93-2.11-0.83-3.16c0.15-1.23,0.64-2.2,1.39-2.64c0.95-0.56,2.13-0.61,3.36-0.17
		c1.47,0.54,2.72,1.74,3.18,3.06C203.52,127.38,203.08,128.79,201.83,129.78z M223.67,110.48c-0.61,4.87-3.91,7.56-10.08,8.23
		c-0.46,0.03-0.96,0.07-1.5,0.08c-1.17,0.05-2.5,0.1-3.31,0.47c-0.51,0.24-0.93,1-1.34,1.72c-0.59,1.05-1.25,2.23-2.5,2.45
		c-0.1,0.02-0.2,0.02-0.3,0.02c-0.81,0-1.84-0.51-3.26-1.27c-0.66-0.35-1.32-0.71-1.66-0.79c-0.37-0.1-0.63-0.44-0.63-0.81
		c0-2.33,0.88-5.26,2.21-7.46c1-1.62,2.54-1.86,4.02-2.1l0.29-0.05c0.35-0.07,0.71-0.12,1.06-0.17c2.94-0.41,4.9-0.86,5.44-3.11
		c0.37-1.54-0.29-2.96-1.74-3.72c-0.83-0.44-0.83-0.44-1.67-0.29c-0.68,0.1-1.08,0.2-1.4,0.29c-1.47,0.35-1.84,0.19-3.75-1.08
		l-0.25-0.17c-1.25-0.83-2.33-1.54-2.45-2.74c-0.1-0.91,0.41-1.84,1.61-3.04c2.49-2.47,5.75-3.31,9.4-2.47
		c1.78,0.41,3.58,1.23,5.26,2.33c1.69,1.1,3.23,2.5,4.46,4.06C223.46,103.28,224.17,106.51,223.67,110.48z"/>
	<path style="fill:#FFE89A;" d="M221.99,110.28c-0.51,4.07-3.16,6.15-8.59,6.75c-0.41,0.05-0.9,0.07-1.39,0.08
		c-1.34,0.05-2.84,0.12-3.96,0.64c-1.01,0.46-1.59,1.5-2.11,2.43c-0.41,0.74-0.85,1.5-1.3,1.59c-0.47,0.05-1.76-0.68-2.49-1.08
		c-0.51-0.25-0.96-0.51-1.37-0.68c0.14-1.93,0.88-4.26,1.94-6c0.57-0.91,1.42-1.08,2.86-1.32l0.3-0.05c0.32-0.05,0.68-0.1,1.01-0.15
		c2.67-0.37,5.98-0.85,6.85-4.38c0.56-2.3-0.46-4.5-2.7-5.68c-1.12-0.59-1.32-0.63-2.72-0.39c-0.63,0.1-1.08,0.2-1.42,0.29
		c-0.86,0.22-0.86,0.22-2.42-0.83l-0.27-0.17c-0.85-0.57-1.66-1.1-1.71-1.5c-0.02-0.15,0.07-0.63,1.12-1.67
		c1.79-1.76,3.8-2.3,5.6-2.3c0.81,0,1.57,0.12,2.25,0.27c3.16,0.74,6.53,2.96,8.76,5.8C221.88,103.99,222.45,106.71,221.99,110.28z"
		/>
	<path style="fill:#FDCD3A;" d="M221.57,100.88c-1.23-1.56-2.77-2.96-4.46-4.06c-1.67-1.1-3.48-1.93-5.26-2.33
		c-3.65-0.85-6.91,0-9.4,2.47c-1.2,1.2-1.71,2.13-1.61,3.04c0.12,1.2,1.2,1.91,2.45,2.74l0.25,0.17c1.91,1.27,2.28,1.44,3.75,1.08
		c0.32-0.08,0.73-0.19,1.4-0.29c0.85-0.15,0.85-0.15,1.67,0.29c1.45,0.76,2.11,2.18,1.74,3.72c-0.54,2.25-2.5,2.7-5.44,3.11
		c-0.35,0.05-0.71,0.1-1.06,0.17l-0.29,0.05c-1.49,0.24-3.03,0.47-4.02,2.1c-1.34,2.2-2.21,5.12-2.21,7.46
		c0,0.37,0.25,0.71,0.63,0.81c0.34,0.08,1,0.44,1.66,0.79c1.42,0.76,2.45,1.27,3.26,1.27c0.1,0,0.2,0,0.3-0.02
		c1.25-0.22,1.91-1.4,2.5-2.45c0.41-0.73,0.83-1.49,1.34-1.72c0.81-0.37,2.15-0.42,3.31-0.47c0.54-0.02,1.05-0.05,1.5-0.08
		c6.17-0.68,9.47-3.36,10.08-8.23C224.17,106.51,223.46,103.28,221.57,100.88z M221.99,110.28c-0.51,4.07-3.16,6.15-8.59,6.75
		c-0.41,0.05-0.9,0.07-1.39,0.08c-1.34,0.05-2.84,0.12-3.96,0.64c-1.01,0.46-1.59,1.5-2.11,2.43c-0.41,0.74-0.85,1.5-1.3,1.59
		c-0.47,0.05-1.76-0.68-2.49-1.08c-0.51-0.25-0.96-0.51-1.37-0.68c0.14-1.93,0.88-4.26,1.94-6c0.57-0.91,1.42-1.08,2.86-1.32
		l0.3-0.05c0.32-0.05,0.68-0.1,1.01-0.15c2.67-0.37,5.98-0.85,6.85-4.38c0.56-2.3-0.46-4.5-2.7-5.68c-1.12-0.59-1.32-0.63-2.72-0.39
		c-0.63,0.1-1.08,0.2-1.42,0.29c-0.86,0.22-0.86,0.22-2.42-0.83l-0.27-0.17c-0.85-0.57-1.66-1.1-1.71-1.5
		c-0.02-0.15,0.07-0.63,1.12-1.67c1.79-1.76,3.8-2.3,5.6-2.3c0.81,0,1.57,0.12,2.25,0.27c3.16,0.74,6.53,2.96,8.76,5.8
		C221.88,103.99,222.45,106.71,221.99,110.28z"/>
	<path style="fill:#FFE89A;" d="M200.76,128.47c-0.44,0.3-2.89-0.05-3.67-0.79c-0.22-0.2-0.41-0.95-0.3-1.76
		c0.08-0.73,0.34-1.23,0.56-1.37c0.29-0.17,0.61-0.22,0.91-0.22c0.39,0,0.76,0.1,1,0.19c1,0.37,1.88,1.18,2.16,2.03
		C201.67,127.27,201.45,127.91,200.76,128.47z"/>
	<path style="fill:#FDCD3A;" d="M203.03,125.98c-0.46-1.32-1.71-2.52-3.18-3.06c-1.23-0.44-2.42-0.39-3.36,0.17
		c-0.74,0.44-1.23,1.4-1.39,2.64c-0.1,1.05,0.05,2.42,0.83,3.16c0.79,0.74,2.6,1.39,4.12,1.39c0.71,0,1.34-0.15,1.77-0.49
		C203.08,128.79,203.52,127.38,203.03,125.98z M197.09,127.67c-0.22-0.2-0.41-0.95-0.3-1.76c0.08-0.73,0.34-1.23,0.56-1.37
		c0.29-0.17,0.61-0.22,0.91-0.22c0.39,0,0.76,0.1,1,0.19c1,0.37,1.88,1.18,2.16,2.03c0.25,0.73,0.03,1.37-0.66,1.93
		C200.32,128.77,197.87,128.41,197.09,127.67z"/>
</g>
</svg>
