<?xml version="1.0" encoding="utf-8"?>
<!-- Generator: Adobe Illustrator 24.1.1, SVG Export Plug-In . SVG Version: 6.00 Build 0)  -->
<svg version="1.1" id="Layer_1" xmlns="http://www.w3.org/2000/svg" xmlns:xlink="http://www.w3.org/1999/xlink" x="0px" y="0px"
	 viewBox="0 0 200 240" style="enable-background:new 0 0 200 240;" xml:space="preserve">
<g>
	<g>
		<path style="fill:#606227;" d="M106.45,168.67c-8.3-2.07-17.16-8.03-17.13-18.52l3.36,0.01c-0.03,8.55,7.51,13.48,14.58,15.25
			c4.1,1.02,6.04-3.58,8.87-11.18c0.87-2.35,1.78-4.78,2.85-7.11c4.54-9.85,14-14.58,14.4-14.78l1.49,3.02
			c-0.09,0.04-8.8,4.43-12.83,13.17c-1.02,2.21-1.9,4.58-2.75,6.87C116.53,162.81,113.68,170.48,106.45,168.67z"/>
		<path d="M133.38,132.35l1.49,3.02c-0.09,0.04-8.8,4.43-12.83,13.17c-1.02,2.21-1.9,4.58-2.75,6.87
			c-2.48,6.66-5.04,13.54-10.79,13.54c-0.64,0-1.32-0.09-2.05-0.27c-8.3-2.07-17.16-8.03-17.13-18.52l3.36,0.01
			c-0.03,8.55,7.51,13.48,14.58,15.25c0.38,0.1,0.74,0.14,1.09,0.14c3.38,0,5.22-4.43,7.78-11.32c0.87-2.35,1.78-4.78,2.85-7.11
			C123.53,137.28,132.98,132.54,133.38,132.35 M133.38,128.17c-0.62,0-1.25,0.14-1.84,0.43c-1.14,0.56-11.28,5.79-16.35,16.77
			c-1.15,2.48-2.08,4.98-2.98,7.4c-0.92,2.48-2.81,7.54-4,8.57c-2.25-0.58-11.39-3.4-11.37-11.17c0-1.11-0.43-2.17-1.21-2.96
			c-0.78-0.79-1.84-1.23-2.95-1.23l-3.36-0.01c0,0-0.01,0-0.01,0c-2.3,0-4.17,1.86-4.17,4.16c-0.04,12.91,10.45,20.13,20.29,22.59
			c1.04,0.26,2.07,0.39,3.06,0.39c8.65,0,12.01-9.01,14.7-16.25c0.82-2.21,1.67-4.5,2.63-6.58c3.36-7.28,10.84-11.15,10.92-11.19
			c2.04-1.04,2.88-3.52,1.87-5.57l-1.49-3.02C136.4,129.03,134.92,128.17,133.38,128.17L133.38,128.17z"/>
	</g>
</g>
<g>
	<g>
		<path style="fill:#6FA141;" d="M77.93,169.24c7.4-2.46,15.05-8.48,14.29-18.02l-3.06,0.24c0.62,7.77-5.9,12.78-12.2,14.87
			c-3.66,1.22-5.74-2.84-8.84-9.55c-0.96-2.08-1.95-4.22-3.08-6.26c-4.81-8.63-13.73-12.28-14.11-12.43l-1.14,2.85
			c0.08,0.03,8.31,3.42,12.57,11.08c1.08,1.94,2.05,4.03,2.98,6.06C68.36,164.61,71.49,171.38,77.93,169.24z"/>
		<path d="M50.93,138.08c0.38,0.15,9.3,3.8,14.11,12.43c1.14,2.04,2.13,4.19,3.08,6.26c2.73,5.91,4.67,9.76,7.59,9.76
			c0.39,0,0.81-0.07,1.24-0.21c6.3-2.09,12.81-7.1,12.2-14.87l3.06-0.24c0.76,9.54-6.88,15.56-14.29,18.02
			c-0.83,0.28-1.6,0.4-2.33,0.4c-4.92,0-7.63-5.87-10.26-11.58c-0.93-2.02-1.9-4.11-2.98-6.06c-4.27-7.66-12.49-11.05-12.57-11.08
			L50.93,138.08 M50.94,133.91c-1.65,0-3.22,0.99-3.88,2.62l-1.14,2.85c-0.86,2.14,0.18,4.57,2.31,5.43c0.04,0.02,7,2.98,10.49,9.24
			c1.01,1.81,1.94,3.82,2.83,5.77c2.88,6.24,6.46,14,14.05,14c1.19,0,2.41-0.21,3.65-0.62c8.91-2.96,18.08-10.37,17.13-22.31
			c-0.17-2.19-2-3.84-4.16-3.84c-0.11,0-0.22,0-0.33,0.01l-3.06,0.24c-1.1,0.09-2.13,0.61-2.85,1.45c-0.72,0.84-1.07,1.94-0.99,3.04
			c0.53,6.63-7,9.75-9.1,10.49c-1.13-1.07-3.03-5.19-3.98-7.25c-0.99-2.14-2.01-4.36-3.23-6.55c-5.43-9.74-15.12-13.84-16.2-14.28
			C51.98,134,51.45,133.91,50.94,133.91L50.94,133.91z"/>
	</g>
</g>
<g>
	<path style="fill:#458C18;" d="M145.36,215.63c-2.51-0.37-4.27,0.86-6.03,2.39c-1.58,1.38-3.1,2.71-6.34,2.6
		c-3.51-0.09-3.61-1.29-3.87-4.5c-0.2-2.49-0.47-5.89-3.68-7.81c-1.17-0.69-2.29-1.04-3.37-1.04c-0.4,0-0.8,0.05-1.2,0.15
		c-2.47,0.64-3.85,3-5.31,5.49c-0.99,1.68-2.01,3.42-3.37,4.72c-0.93,0.89-1.5,0.76-1.76,0.69c-1.43-0.33-2.97-2.54-3.35-3.41
		c-0.06-0.32-0.19-0.62-0.39-0.89c-4.41-5.73-8.15-8.26-11.8-7.95c-4.61,0.38-7.21,5.25-9.3,9.16c-0.86,1.59-1.66,3.1-2.42,3.98
		c-1.35,1.59-5.27,0.29-8.73-0.86c-2.38-0.79-4.87-1.58-7.11-1.61c0.89-2.08,2.18-4.36,3.62-5.39c0.49-0.36,0.84-0.44,1.08-0.44
		c0.15,0,0.26,0.03,0.33,0.05c1.62,0.48,2.72,1.22,3.68,1.88c1.22,0.83,2.61,1.76,4.36,1.32c2.23-0.56,3.9-2.79,8.16-10.85
		c1.33-2.53,2.88-3.91,4.6-4.09c2.8-0.34,6.73,2.29,10.97,7.34c0.61,0.73,1.65,0.95,2.51,0.52c0.87-0.42,1.33-1.38,1.12-2.31
		l-0.29-1.39c-0.9-4.48-1.5-6.11-9.14-13.83c-18.13-18.32,0.34-49.92,0.56-50.29c2.81-5.04,1.17-9.12-0.14-12.4
		c-0.48-1.18-0.92-2.29-1.14-3.36c-0.3-1.46,2.73-3.04,5.02-3.84c2,2.04,7,7.71,7.07,13.61c0.03,2.93-1.16,5.47-3.64,7.79
		c-11.93,11.16-10.05,24.32-9.43,28.65l0.08,0.57c0.57,4.3,2.05,10.11,8.53,16.83c5.73,5.95,5.96,14.69,5.96,14.78
		c0.02,0.78,0.46,1.48,1.16,1.83c0.69,0.35,1.52,0.28,2.15-0.18c2.56-1.85,5.16-2.53,7.75-1.99c2.51,0.52,4.45,2.11,5.26,3.46
		l0.49,0.84c2.01,3.44,5.37,9.21,11.88,6.68c0.01,0,0.42-0.14,1.56,0.38C142.7,213.49,144.07,214.49,145.36,215.63z"/>
	<path d="M153.75,218.81c-1.65-2.65-10.01-12.27-15.37-10.17c-2.75,1.06-4.24-0.57-6.77-4.9l-0.51-0.87c-1.24-2.08-3.99-4.58-8-5.41
		c-2.01-0.41-4.86-0.48-8.08,0.97c-0.61-3.65-2.27-9.54-6.78-14.21c-5.6-5.82-6.88-10.59-7.39-14.49l-0.09-0.61
		c-0.6-4.19-2.19-15.34,8.15-25.01c3.34-3.12,5.01-6.78,4.96-10.89c-0.11-9.17-8.91-17.14-9.29-17.47
		c-0.52-0.46-1.23-0.64-1.91-0.46c-1.07,0.27-10.43,2.87-9.15,9.05c0.29,1.44,0.83,2.78,1.35,4.07c1.24,3.08,2.22,5.52,0.41,8.77
		c-0.84,1.4-20.33,34.68,0.08,55.3c1.76,1.78,3.1,3.18,4.12,4.33c-2.36-1.38-4.61-1.96-6.76-1.74c-3.19,0.34-5.84,2.46-7.86,6.29
		c-1.07,2.04-4.34,8.23-5.28,8.75c-0.21-0.06-0.78-0.44-1.19-0.72c-1.1-0.75-2.61-1.77-4.84-2.43c-3.95-1.16-7.92,2.33-10.55,9.39
		c-1.29,3.45-1.71,5.77,0.21,6.64c0.89,0.41,2.21,0.43,3.41-1.78c0.48-0.9,4.25,0.35,6.5,1.1c4.48,1.49,10.05,3.34,13.23-0.39
		c1.05-1.23,1.96-2.92,2.92-4.72c1.61-3.02,3.62-6.78,5.96-6.97c1.37-0.13,3.88,0.86,7.96,6.1c0.69,1.95,2.85,4.18,3.77,4.86
		c2.71,1.98,5.66,1.78,8.1-0.53c1.8-1.71,3.02-3.8,4.1-5.64c0.92-1.57,1.96-3.35,2.75-3.56c0.41-0.1,1.04,0.23,1.39,0.44
		c1.3,0.77,1.48,2.23,1.66,4.55c0.25,3.05,0.66,8.15,7.93,8.34c0.13,0.01,0.27,0.01,0.4,0.01c4.61,0,7.01-2.09,8.78-3.63
		c1.96-1.7,2.63-2.28,6.33,0.48c1.51,1.13,3.79,2.82,5.47,1.28C154.9,221.98,154.86,220.6,153.75,218.81z M139.33,218.02
		c-1.58,1.38-3.1,2.71-6.34,2.6c-3.51-0.09-3.61-1.29-3.87-4.5c-0.2-2.49-0.47-5.89-3.68-7.81c-1.17-0.69-2.29-1.04-3.37-1.04
		c-0.4,0-0.8,0.05-1.2,0.15c-2.47,0.64-3.85,3-5.31,5.49c-0.99,1.68-2.01,3.42-3.37,4.72c-0.93,0.89-1.5,0.76-1.76,0.69
		c-1.43-0.33-2.97-2.54-3.35-3.41c-0.06-0.32-0.19-0.62-0.39-0.89c-4.41-5.73-8.15-8.26-11.8-7.95c-4.61,0.38-7.21,5.25-9.3,9.16
		c-0.86,1.59-1.66,3.1-2.42,3.98c-1.35,1.59-5.27,0.29-8.73-0.86c-2.38-0.79-4.87-1.58-7.11-1.61c0.89-2.08,2.18-4.36,3.62-5.39
		c0.49-0.36,0.84-0.44,1.08-0.44c0.15,0,0.26,0.03,0.33,0.05c1.62,0.48,2.72,1.22,3.68,1.88c1.22,0.83,2.61,1.76,4.36,1.32
		c2.23-0.56,3.9-2.79,8.16-10.85c1.33-2.53,2.88-3.91,4.6-4.09c2.8-0.34,6.73,2.29,10.97,7.34c0.61,0.73,1.65,0.95,2.51,0.52
		c0.87-0.42,1.33-1.38,1.12-2.31l-0.29-1.39c-0.9-4.48-1.5-6.11-9.14-13.83c-18.13-18.32,0.34-49.92,0.56-50.29
		c2.81-5.04,1.17-9.12-0.14-12.4c-0.48-1.18-0.92-2.29-1.14-3.36c-0.3-1.46,2.73-3.04,5.02-3.84c2,2.04,7,7.71,7.07,13.61
		c0.03,2.93-1.16,5.47-3.64,7.79c-11.93,11.16-10.05,24.32-9.43,28.65l0.08,0.57c0.57,4.3,2.05,10.11,8.53,16.83
		c5.73,5.95,5.96,14.69,5.96,14.78c0.02,0.78,0.46,1.48,1.16,1.83c0.69,0.35,1.52,0.28,2.15-0.18c2.56-1.85,5.16-2.53,7.75-1.99
		c2.51,0.52,4.45,2.11,5.26,3.46l0.49,0.84c2.01,3.44,5.37,9.21,11.88,6.68c0.01,0,0.42-0.14,1.56,0.38
		c1.25,0.58,2.62,1.58,3.91,2.72C142.85,215.26,141.09,216.49,139.33,218.02z"/>
</g>
<g>
	<path style="fill:#E22A24;" d="M92.07,48.46c-1.09,0.53-1.93,1.34-2.52,2.42c-2.19-0.47-4.53-0.31-6.95,0.47
		c-5.24,1.71-10.23,6.12-14.15,10.9c-1.11-1.52-2.77-3.12-5.27-4.51c-0.02-0.3-0.02-0.6-0.02-0.9c0.04-10.09,7.71-16.82,22.19-19.46
		c5.14-0.94,9.82-1.41,13.99-1.41c8.23,0,14.48,1.83,18.4,5.42c3.49,3.21,4.41,7.11,4.63,9.44c-0.03,0.01-0.05,0.03-0.08,0.04
		c-2.91,1.45-5.26,4.27-7.16,7.67l-0.02-0.02C112.46,56.26,98.9,45.15,92.07,48.46z"/>
	<path style="fill:#BEB577;" d="M74.69,112.56c-0.37,0.23-0.73,0.48-1.07,0.76c-0.1,0.08-0.2,0.16-0.29,0.24
		c-0.44,0.37-0.85,0.79-1.25,1.24c-0.08,0.09-0.16,0.19-0.24,0.29c-1.59,1.95-2.57,4.36-3.17,6.78c-4.13-1.05-7.46-3.46-9.96-7.22
		c-0.17-0.26-0.34-0.52-0.5-0.79c-0.12-0.2-0.24-0.4-0.35-0.61c-0.01-0.02-0.02-0.03-0.03-0.05c-0.02-0.04-0.05-0.09-0.07-0.13
		c-0.15-0.26-0.29-0.53-0.42-0.8c-0.03-0.03-0.04-0.07-0.05-0.1c-0.16-0.3-0.3-0.6-0.44-0.91c-0.31-0.66-0.59-1.35-0.84-2.05v-0.01
		c-0.13-0.34-0.24-0.68-0.35-1.02c-0.23-0.68-0.43-1.36-0.6-2.06c-0.1-0.36-0.19-0.73-0.27-1.1c0,0-0.01,0,0-0.01
		c-0.11-0.47-0.21-0.94-0.3-1.41c0-0.01,0-0.01,0-0.02c0-0.01,0-0.01,0-0.02c-0.09-0.45-0.16-0.9-0.23-1.35
		c-0.07-0.44-0.13-0.89-0.19-1.34v-0.03c-0.04-0.34-0.08-0.69-0.12-1.03c-0.03-0.24-0.05-0.49-0.07-0.74s-0.04-0.51-0.05-0.76
		c-0.01-0.03-0.01-0.07-0.01-0.1c0-0.06-0.01-0.11-0.01-0.17c-0.03-0.38-0.05-0.76-0.06-1.14c-0.02-0.24-0.02-0.48-0.02-0.72
		c-0.23-8.09,1.42-15.78,3.5-19.42c0.95-1.66,1.67-1.98,1.82-1.98c0.71,0.04,1.28,0.1,1.75,0.18c-0.02,0.06-0.04,0.12-0.06,0.18
		c-0.84,2.57-0.59,5.03,0.71,7.1c1.28,2.04,3.4,3.44,5.52,4.4c0.46,0.48,1.13,1.09,1.93,1.81c0.08,0.07,0.17,0.15,0.25,0.23
		c0.03,1.57,0.2,3.08,0.35,4.47c0.26,2.34,0.5,4.56,0.11,6.29C68.44,104.7,70.39,109.47,74.69,112.56z"/>
	<path style="fill:#CD805F;" d="M92,68.58c-4.54,0.13-9.37,1.6-14.05,4.4c-5.33,3.19-7.57,7.02-8.39,10.8
		c0.02-0.19,0.03-0.39,0.04-0.58c-0.06-0.02-0.13-0.04-0.19-0.07c-1.31-0.51-2.6-1.2-3.54-2.07c-0.35-0.32-0.65-0.67-0.89-1.05
		c-0.64-1.03-0.73-2.16-0.27-3.57c0.04-0.12,0.08-0.24,0.13-0.36c0.27-0.77,0.65-1.63,1.12-2.56c0.42-0.84,0.92-1.73,1.48-2.66
		c0.42-0.69,0.88-1.4,1.37-2.12c0.5-0.74,1.03-1.49,1.6-2.24c3.69-4.86,8.62-9.59,13.48-11.18c1.12-0.36,2.17-0.54,3.17-0.54
		c0.49,0,0.97,0.04,1.44,0.14c-0.03,0.54-0.03,1.12-0.01,1.72C88.66,60.92,90.08,64.89,92,68.58z"/>
	<path style="fill:#E80000;" d="M146.45,90.41c-4.51,18.82-9.09,29.11-13.61,30.57c0.29-0.76,0.62-1.54,0.94-2.31
		c1.51-3.63,3.07-7.38,1.37-10.4c-1.05-1.85-3.06-2.97-6.15-3.43c-1.58-0.23-3.07-0.23-4.48-0.02c0.22-0.6,0.43-1.19,0.62-1.79
		c2.89-8.86,5.55-25.51-7.07-41.17c1.65-3.34,3.67-6.04,6.09-7.25c2.18-1.09,4.59-0.84,7.36,0.78
		C132.19,55.81,151.71,68.46,146.45,90.41z"/>
	<g>
		<path style="fill:#D25D5B;" d="M97.55,124.39c0.21,0.31,0.46,0.63,0.75,0.93c-0.01,0-0.01,0-0.02,0.01
			c-0.18,0.06-0.35,0.11-0.53,0.15c-0.2,0.06-0.39,0.1-0.58,0.13c-0.08,0.02-0.16,0.03-0.24,0.04c-0.12,0.02-0.25,0.03-0.37,0.04
			c-0.19,0.02-0.39,0.03-0.58,0.03c-0.37,0-0.75-0.03-1.13-0.09c-1.91-0.31-4.22-0.29-6.69,0.02c-0.42,0.05-0.85,0.11-1.28,0.18
			c-0.9,0.14-1.82,0.32-2.74,0.53c-0.45,0.1-0.89,0.21-1.34,0.33c-0.44,0.11-0.89,0.24-1.34,0.38c-0.76,0.22-1.52,0.47-2.27,0.75
			c-0.39,0.13-0.77,0.28-1.14,0.43c-0.02,0-0.05,0.01-0.07,0.03c-0.39,0.15-0.78,0.31-1.16,0.48c-0.42,0.18-0.84,0.37-1.24,0.57
			c-0.02,0.01-0.05,0.03-0.08,0.04c-0.38,0.18-0.75,0.37-1.1,0.57c-0.86,0.45-1.67,0.94-2.42,1.46c-0.04-0.89-0.05-1.96,0-3.12
			c0.01-0.27,0.03-0.55,0.05-0.83c0.02-0.28,0.04-0.56,0.07-0.85c0.03-0.34,0.07-0.68,0.12-1.03c0.04-0.35,0.1-0.69,0.16-1.04
			c0.06-0.37,0.14-0.74,0.22-1.11c0.06-0.29,0.13-0.58,0.21-0.87c0.01-0.03,0.01-0.05,0.02-0.08c0.27-0.99,0.61-1.94,1.03-2.81
			c0.11-0.23,0.23-0.45,0.36-0.67c0.13-0.23,0.26-0.45,0.41-0.66c0.14-0.21,0.29-0.41,0.45-0.61c0.19-0.23,0.38-0.44,0.58-0.64
			c0.3-0.29,0.61-0.56,0.94-0.78c0.1-0.07,0.19-0.14,0.29-0.19c0.07-0.05,0.15-0.1,0.23-0.14c0.12-0.07,0.24-0.13,0.36-0.19
			c0.36-0.18,0.75-0.33,1.15-0.45c0.18-0.05,0.35-0.1,0.54-0.14c0,0,0.01,0,0.02,0c0.19-0.04,0.39-0.08,0.59-0.11
			c0.01,0,0.01,0,0.02,0c0.13-0.02,0.26-0.04,0.4-0.05c0.03,0,0.06-0.01,0.09-0.01c2.12-0.19,3.98,0.27,5.96,0.76
			c0.29,0.07,0.59,0.14,0.89,0.21c0.27,0.07,0.54,0.13,0.81,0.19c0.03,0.01,0.07,0.01,0.1,0.02c0.01,0,0.01,0,0.02,0
			c0.25,0.05,0.49,0.1,0.74,0.14c0.25,0.05,0.5,0.09,0.75,0.12c1.02,0.15,2.07,0.2,3.17,0.08c0.02,0,0.04-0.01,0.06,0
			c0.71-0.08,1.44-0.23,2.19-0.48c0.38-0.12,0.76-0.26,1.15-0.44C95.73,119.14,96.1,122.24,97.55,124.39z"/>
	</g>
	<path style="fill:#D53E2A;" d="M121.18,101.74c-0.55,1.7-1.18,3.31-1.87,4.83c-0.6,1.34-1.24,2.6-1.91,3.79
		c-0.39,0.7-0.79,1.37-1.2,2.01c-0.39,0.64-0.8,1.25-1.21,1.84c-3.69,5.24-7.71,8.39-10.22,8.85c-1.22,0.23-2.04,0.13-2.6-0.08
		c-0.71-0.25-1-0.7-1.16-0.93c-1.22-1.81-1.11-5.47,0.02-9.81c0.01-0.05,0.03-0.1,0.04-0.15c0.88-3.38,2.39-7.16,4.36-10.76
		c0.48-0.87,0.99-1.74,1.52-2.58c0.59-0.93,1.03-1.86,1.34-2.79c1.04-3.03,0.72-6.04-0.36-9.01c-1.13-3.16-3.12-6.29-5.22-9.38
		c-0.43-0.64-0.87-1.27-1.31-1.91c-0.19-0.28-0.39-0.56-0.58-0.84c-0.71-1.03-1.43-2.06-2.11-3.11c-0.59-0.91-1.17-1.82-1.71-2.73
		c-2.25-3.77-3.99-7.69-4.3-11.88c-0.02-0.21-0.03-0.42-0.04-0.63c-0.02-0.55-0.02-1.28,0.08-1.97c0.1-0.79,0.33-1.55,0.77-1.99
		c0.11-0.12,0.23-0.22,0.38-0.29c0.35-0.17,0.76-0.24,1.23-0.24c3.98,0,12.21,5.41,17.2,9.64c0.3,0.31,0.59,0.62,0.87,0.94
		c0.53,0.58,1.03,1.17,1.5,1.75c0.53,0.66,1.03,1.31,1.5,1.97C125.99,79.9,123.68,94.05,121.18,101.74z"/>
	<path style="fill:#C00000;" d="M129.92,117.06c-0.85,2.04-1.73,4.15-2.07,6.18c-0.41,2.45-1.96,5.4-3.65,7.97
		c-1.68,2.58-3.5,4.79-4.43,5.76c-12.28,12.81-23.68,15.36-40.63,9.09c-2.83-1.04-9.31-3.83-8.44-7.14
		c0.21-0.81,0.77-1.64,1.58-2.45c0.52-0.52,1.15-1.03,1.86-1.53c0.7-0.48,1.49-0.96,2.34-1.41c4.32-2.3,10.24-3.98,15.06-3.98
		c0.93,0,1.82,0.07,2.65,0.2c3.44,0.55,6.4-0.51,9.09-2.4c0.06,0.01,0.12,0.01,0.18,0.01c0.63,0,1.31-0.06,2.05-0.19
		c5.59-1.01,12.43-8.3,16.91-17.45c1.83-0.76,3.8-1.07,5.97-0.75c1.66,0.25,2.77,0.72,3.12,1.35
		C132.22,111.57,131,114.48,129.92,117.06z"/>
	<path style="fill:#D70000;" d="M65.75,65.81c-1.29,1.84-2.39,3.66-3.25,5.32c-0.88-0.27-1.94-0.45-3.22-0.52
		c-1.49-0.14-3.66,0.56-5.67,4.08c-2.79,4.87-4.58,13.88-4.05,23.04c-2.1,0.76-5.73,2.57-7.73,6.3c-1.75,3.25-1.87,7.15-0.37,11.6
		c-1.6-1.11-3.23-3.22-4.55-6.01c-2.71-5.71-3.07-12.09-0.79-13.95c2.85-2.32,4.75-8.2,7.14-15.65c2.99-9.31,6.68-20.76,11.83-20.76
		c0.31,0,0.62,0.04,0.94,0.12C62.21,61.04,64.73,63.82,65.75,65.81z"/>
	<g>
		<path style="fill:#C30000;" d="M68.38,134.61c-0.83,1.03-1.42,2.11-1.72,3.25c-0.02,0.07-0.03,0.13-0.05,0.2
			c-7.16-0.07-14.12-8.29-18.88-18.27c-0.3-0.63-0.59-1.27-0.88-1.92c-0.27-0.63-0.54-1.27-0.8-1.91c-0.09-0.22-0.18-0.45-0.27-0.67
			c-1.47-3.74-1.56-6.85-0.29-9.25c1.09-2.05,3.01-3.28,4.49-3.97c0.49,3.46,1.34,6.85,2.64,9.96c0.27,0.66,0.56,1.3,0.88,1.93
			c0.32,0.64,0.66,1.26,1.02,1.87c0.23,0.38,0.46,0.76,0.71,1.13c3.15,4.74,7.47,7.78,12.74,9.03c-0.41,3.91-0.06,7.11-0.03,7.36
			l0.13,1.09L68.38,134.61z"/>
	</g>
	<path d="M133.7,51.83l-0.04-0.02c-2.5-1.47-4.92-2.14-7.22-2.03c-0.4-3.07-1.72-7.6-5.81-11.4c-6.98-6.48-19.1-8.19-36.03-5.11
		C63.28,37.16,59.32,48.77,59,55.93c-0.6-0.21-1.23-0.4-1.89-0.58c-9.48-2.58-13.92,11.23-17.82,23.39
		c-1.83,5.7-3.91,12.16-5.8,13.69c-4.44,3.61-3.54,12.28-0.35,18.98c2.75,5.79,6.54,9.13,10.41,9.28
		c5.14,11.13,13.41,21.57,23.05,21.57c0.13,0,0.27,0,0.4-0.01c1.12,2.54,4.11,5.3,10.69,7.73c6.22,2.3,11.87,3.47,17.16,3.47
		c5.14,0,9.93-1.11,14.53-3.37c4.6-2.25,9.01-5.65,13.4-10.23c1.56-1.61,7.26-8.5,8.9-14.59c0.19,0.03,0.38,0.04,0.58,0.04
		c0.33,0,0.67-0.04,1.01-0.11c6.74-1.39,11.9-11.5,17.24-33.81C156.53,66.26,133.93,51.97,133.7,51.83z M85.35,37.38
		c5.14-0.94,9.82-1.41,13.99-1.41c8.23,0,14.48,1.83,18.4,5.42c3.49,3.21,4.41,7.11,4.63,9.44c-0.03,0.01-0.05,0.03-0.08,0.04
		c-2.91,1.45-5.26,4.27-7.16,7.67l-0.02-0.02c-2.65-2.26-16.21-13.37-23.04-10.06c-1.09,0.53-1.93,1.34-2.52,2.42
		c-2.19-0.47-4.53-0.31-6.95,0.47c-5.24,1.71-10.23,6.12-14.15,10.9c-1.11-1.52-2.77-3.12-5.27-4.51c-0.02-0.3-0.02-0.6-0.02-0.9
		C63.2,46.75,70.87,40.02,85.35,37.38z M88.49,56.64c0.17,4.28,1.59,8.25,3.51,11.94c-4.54,0.13-9.37,1.6-14.05,4.4
		c-2.41,1.45-4.19,3.02-5.49,4.67c-0.45,0.57-0.85,1.15-1.19,1.73c-0.38,0.64-0.7,1.28-0.96,1.93c-0.25,0.64-0.46,1.28-0.62,1.92
		c-0.03-0.01-0.06-0.02-0.09-0.03c-0.06-0.02-0.13-0.04-0.19-0.07c-1.31-0.51-2.6-1.2-3.54-2.07c-0.35-0.32-0.65-0.67-0.89-1.05
		c-0.64-1.03-0.73-2.16-0.27-3.57c0.04-0.12,0.08-0.24,0.13-0.36c0.1-0.29,0.22-0.6,0.36-0.92c0.21-0.52,0.47-1.06,0.76-1.64
		c0.08-0.17,0.17-0.34,0.26-0.52c0.35-0.65,0.73-1.33,1.15-2.03c0.03-0.04,0.05-0.07,0.07-0.11c0.42-0.69,0.88-1.4,1.37-2.12
		c0.5-0.74,1.03-1.49,1.6-2.24c3.69-4.86,8.62-9.59,13.48-11.18c1.12-0.36,2.17-0.54,3.17-0.54c0.49,0,0.97,0.04,1.44,0.14
		C88.47,55.46,88.47,56.04,88.49,56.64z M75.66,117.08c0.3-0.29,0.61-0.56,0.94-0.78c0.09-0.07,0.19-0.14,0.29-0.19
		c0.07-0.05,0.15-0.1,0.23-0.14c0.12-0.07,0.23-0.14,0.36-0.19c0.36-0.18,0.75-0.33,1.15-0.45c0.18-0.06,0.36-0.1,0.54-0.14
		c0,0,0.01,0,0.02,0c0.19-0.05,0.39-0.08,0.59-0.11c0.01,0,0.01,0,0.02,0c0.13-0.02,0.26-0.04,0.4-0.05c0.03,0,0.06-0.01,0.09-0.01
		c2.12-0.19,3.98,0.27,5.96,0.76c0.29,0.07,0.59,0.14,0.89,0.21c0.27,0.07,0.54,0.13,0.81,0.19c0.03,0.01,0.07,0.01,0.1,0.02
		c0.01,0,0.01,0,0.02,0c0.25,0.05,0.49,0.1,0.74,0.14c0.25,0.04,0.49,0.08,0.75,0.12c0.69,0.1,1.4,0.15,2.13,0.14
		c0.35,0,0.69-0.02,1.04-0.06c0.02,0,0.04-0.01,0.06,0c0.36-0.05,0.72-0.11,1.08-0.19c0.37-0.07,0.74-0.17,1.11-0.29
		c0.38-0.12,0.76-0.26,1.15-0.44c-0.4,3.52-0.03,6.62,1.42,8.77c0.21,0.31,0.46,0.63,0.75,0.93c-0.01,0-0.01,0-0.02,0.01
		c-0.18,0.06-0.35,0.11-0.53,0.15c-0.2,0.06-0.39,0.1-0.58,0.13c-0.08,0.02-0.16,0.03-0.24,0.04c-0.12,0.02-0.25,0.03-0.37,0.04
		c-0.19,0.02-0.38,0.03-0.58,0.03c-0.37,0-0.75-0.03-1.13-0.09c-1.91-0.31-4.22-0.29-6.69,0.02c-0.42,0.05-0.85,0.11-1.28,0.18
		c-0.9,0.14-1.82,0.32-2.74,0.53c-0.44,0.1-0.89,0.21-1.34,0.33s-0.89,0.25-1.34,0.38c-0.76,0.22-1.52,0.47-2.27,0.75
		c-0.38,0.13-0.76,0.28-1.14,0.43c-0.02,0-0.05,0.01-0.07,0.03c-0.39,0.15-0.78,0.31-1.16,0.48c-0.42,0.18-0.83,0.37-1.24,0.57
		c-0.02,0.01-0.05,0.03-0.08,0.04c-0.37,0.18-0.74,0.37-1.1,0.57c-0.86,0.45-1.67,0.94-2.42,1.46c-0.04-0.89-0.05-1.96,0-3.12
		c0.01-0.27,0.03-0.55,0.05-0.83c0.02-0.28,0.04-0.57,0.07-0.85c0.03-0.34,0.07-0.68,0.12-1.03c0.04-0.34,0.1-0.69,0.16-1.04
		c0.06-0.37,0.14-0.74,0.22-1.11c0.06-0.29,0.13-0.58,0.21-0.87c0.01-0.03,0.01-0.05,0.02-0.08c0.27-0.99,0.61-1.94,1.03-2.81
		c0.12-0.23,0.23-0.45,0.36-0.67c0.13-0.23,0.26-0.45,0.41-0.66c0.14-0.21,0.29-0.41,0.45-0.61
		C75.27,117.49,75.46,117.28,75.66,117.08z M101.01,122.05c-1.22-1.81-1.11-5.47,0.02-9.81c0.01-0.05,0.03-0.1,0.04-0.15v-0.01
		c0.88-3.38,2.39-7.15,4.36-10.75c0.48-0.87,0.99-1.74,1.52-2.58c0.59-0.93,1.03-1.86,1.34-2.79c1.04-3.03,0.72-6.04-0.36-9.01
		c-0.55-1.53-1.3-3.06-2.17-4.58c-0.35-0.61-0.71-1.21-1.09-1.82c-0.37-0.58-0.75-1.17-1.13-1.75c-0.28-0.41-0.55-0.82-0.83-1.23
		c-0.43-0.64-0.87-1.27-1.31-1.91c-0.19-0.28-0.39-0.56-0.58-0.84c-0.71-1.03-1.43-2.06-2.11-3.11c-0.59-0.91-1.17-1.82-1.71-2.73
		c-2.25-3.77-3.99-7.69-4.3-11.88c-0.02-0.21-0.03-0.42-0.04-0.63c-0.02-0.55-0.02-1.28,0.08-1.97c0.1-0.79,0.33-1.55,0.77-1.99
		c0.11-0.12,0.23-0.22,0.38-0.29c0.35-0.17,0.76-0.24,1.23-0.24c3.98,0,12.21,5.41,17.2,9.64c0.3,0.31,0.59,0.62,0.87,0.94
		c0.53,0.58,1.03,1.17,1.5,1.75c0.53,0.66,1.03,1.31,1.5,1.97c0.45,0.63,0.88,1.26,1.28,1.89c0.41,0.64,0.79,1.27,1.15,1.91
		c0.37,0.66,0.72,1.33,1.04,1.99c5.67,11.7,3.67,23.07,1.52,29.67c-0.55,1.7-1.18,3.31-1.87,4.83c-0.6,1.34-1.24,2.6-1.91,3.79
		c-0.39,0.7-0.79,1.37-1.2,2.01c-0.39,0.64-0.8,1.25-1.21,1.84c-3.69,5.24-7.71,8.39-10.22,8.85c-1.22,0.23-2.04,0.13-2.6-0.08
		C101.46,122.73,101.17,122.28,101.01,122.05z M41.83,104.03c-1.75,3.25-1.87,7.15-0.37,11.6c-1.6-1.11-3.23-3.22-4.55-6.01
		c-2.71-5.71-3.07-12.09-0.79-13.95c2.85-2.32,4.75-8.2,7.14-15.65c2.99-9.31,6.68-20.76,11.83-20.76c0.31,0,0.62,0.04,0.94,0.12
		c1.21,0.32,2.28,0.69,3.22,1.09c0.87,0.36,1.63,0.75,2.3,1.14c1.1,0.66,1.95,1.35,2.61,2.03c0.75,0.77,1.25,1.51,1.59,2.17
		c-0.19,0.27-0.37,0.53-0.54,0.8c-0.47,0.7-0.92,1.39-1.33,2.07c-0.45,0.74-0.86,1.46-1.23,2.16c-0.05,0.1-0.1,0.19-0.15,0.29
		c-0.88-0.27-1.94-0.45-3.22-0.52c-1.49-0.14-3.66,0.56-5.67,4.08c-2.79,4.87-4.58,13.88-4.05,23.04
		C47.46,98.49,43.83,100.3,41.83,104.03z M66.66,137.86c-0.02,0.07-0.03,0.13-0.05,0.2c-7.16-0.07-14.12-8.29-18.88-18.27
		c-0.3-0.63-0.59-1.27-0.88-1.92c-0.27-0.63-0.54-1.27-0.8-1.91c-0.09-0.22-0.18-0.45-0.27-0.67c-1.47-3.74-1.56-6.85-0.29-9.25
		c1.09-2.05,3.01-3.28,4.49-3.97c0.49,3.46,1.34,6.85,2.64,9.96c0.27,0.66,0.56,1.3,0.88,1.93c0.32,0.64,0.66,1.26,1.02,1.87
		c0.23,0.38,0.46,0.76,0.71,1.13c3.15,4.74,7.47,7.78,12.74,9.03c-0.41,3.91-0.06,7.11-0.03,7.36l0.13,1.09l0.31,0.17
		C67.55,135.64,66.96,136.72,66.66,137.86z M68.67,121.87c-4.13-1.05-7.46-3.46-9.96-7.22c-0.17-0.26-0.34-0.52-0.5-0.79
		c-0.12-0.2-0.24-0.4-0.35-0.61c-0.01-0.02-0.02-0.03-0.03-0.05c-0.02-0.04-0.05-0.09-0.07-0.13c-0.16-0.26-0.3-0.53-0.42-0.8
		c-0.03-0.03-0.04-0.07-0.05-0.1c-0.16-0.3-0.31-0.6-0.44-0.91c-0.31-0.66-0.59-1.35-0.84-2.05v-0.01
		c-0.13-0.33-0.25-0.68-0.35-1.02c-0.23-0.68-0.43-1.36-0.6-2.06c-0.1-0.36-0.19-0.73-0.27-1.1v-0.01c-0.11-0.47-0.21-0.94-0.3-1.41
		c0-0.01,0-0.01,0-0.02c0-0.01,0-0.01,0-0.02c-0.09-0.45-0.17-0.9-0.23-1.35c-0.08-0.44-0.14-0.89-0.19-1.34v-0.03
		c-0.04-0.34-0.08-0.69-0.12-1.03c-0.02-0.25-0.05-0.49-0.07-0.74s-0.04-0.5-0.05-0.76c-0.01-0.03-0.01-0.07-0.01-0.1
		c0-0.06-0.01-0.11-0.01-0.17c-0.03-0.38-0.05-0.76-0.06-1.14c-0.01-0.24-0.02-0.48-0.02-0.72c-0.23-8.09,1.42-15.78,3.5-19.42
		c0.95-1.66,1.67-1.98,1.82-1.98c0.71,0.04,1.28,0.1,1.75,0.18c-0.02,0.06-0.04,0.12-0.06,0.18c-0.84,2.57-0.59,5.03,0.71,7.1
		c1.28,2.04,3.4,3.44,5.52,4.4c0.46,0.48,1.13,1.09,1.93,1.81c0.08,0.07,0.17,0.15,0.25,0.23c0.03,1.57,0.2,3.08,0.35,4.47
		c0.26,2.34,0.5,4.56,0.11,6.29c-1.17,5.26,0.78,10.03,5.08,13.12c-0.37,0.23-0.73,0.48-1.07,0.76c-0.1,0.08-0.19,0.15-0.29,0.24
		c-0.44,0.37-0.85,0.79-1.25,1.24c-0.08,0.09-0.16,0.19-0.24,0.29C70.25,117.04,69.27,119.45,68.67,121.87z M129.92,117.06
		c-0.24,0.58-0.48,1.16-0.71,1.75c-0.3,0.73-0.57,1.47-0.8,2.2c-0.24,0.75-0.44,1.5-0.56,2.23c0,0.03-0.01,0.05-0.02,0.08
		c-0.42,2.43-1.96,5.35-3.63,7.89c-1.68,2.58-3.5,4.79-4.43,5.76c-12.28,12.81-23.68,15.36-40.63,9.09
		c-2.08-0.77-6.14-2.48-7.79-4.65c-0.48-0.62-0.75-1.28-0.72-1.96c0-0.17,0.03-0.35,0.07-0.53c0.21-0.81,0.77-1.64,1.58-2.45
		c0.52-0.52,1.15-1.03,1.86-1.53c0.7-0.48,1.49-0.96,2.34-1.41c0.31-0.17,0.64-0.33,0.97-0.48c0.88-0.44,1.81-0.84,2.78-1.2
		c3.65-1.4,7.78-2.3,11.31-2.3c0.93,0,1.82,0.07,2.65,0.2c3.44,0.55,6.4-0.51,9.09-2.4c0.06,0.01,0.12,0.01,0.18,0.01
		c0.63,0,1.31-0.06,2.05-0.19c4.41-0.8,9.61-5.51,13.8-11.97c0.38-0.58,0.75-1.17,1.1-1.78c0.36-0.59,0.7-1.2,1.03-1.81
		c0.34-0.62,0.67-1.25,0.98-1.89c1.83-0.76,3.8-1.07,5.97-0.75c1.66,0.25,2.77,0.72,3.12,1.35
		C132.22,111.57,131,114.48,129.92,117.06z M146.45,90.41c-4.51,18.82-9.09,29.11-13.61,30.57c0.29-0.76,0.62-1.54,0.94-2.31
		c1.51-3.63,3.07-7.38,1.37-10.4c-1.05-1.85-3.06-2.97-6.15-3.43c-1.58-0.23-3.07-0.23-4.48-0.02c0.22-0.6,0.43-1.19,0.62-1.79
		c2.49-7.64,4.81-21.07-2.69-34.66c-0.37-0.68-0.77-1.37-1.19-2.05c-0.42-0.66-0.85-1.31-1.31-1.97c-0.59-0.83-1.21-1.66-1.88-2.49
		c1.23-2.49,2.67-4.62,4.32-6.05c0.56-0.49,1.15-0.89,1.77-1.2c0.12-0.06,0.24-0.12,0.36-0.16c0.67-0.29,1.36-0.46,2.08-0.49
		c1.51-0.08,3.14,0.39,4.92,1.43C132.19,55.81,151.71,68.46,146.45,90.41z"/>
</g>
<g>
	<path style="fill:#738C3A;" d="M136.87,128.8c0.21,1.16,0.35,2.6,0.31,4.37c-0.01,1.18-0.09,2.51-0.28,4
		c-0.88,0.87-1.6,1.93-2.22,2.83c-2.22,3.25-4.52,6.6-10.21,5.63c-0.18-0.02-0.36-0.06-0.55-0.1c-1.39-0.29-2.47-0.86-3.3-1.62
		c-2.09-1.88-2.54-4.91-2.15-7.45c1.02-6.5,7.2-12.55,17.06-11.55C135.85,125.4,136.49,126.6,136.87,128.8z"/>
	<path style="fill:#576A2B;" d="M136.87,128.8c0.21,1.16,0.35,2.6,0.31,4.37c-5.24,2.01-10.95,5.71-12.71,12.46
		c-0.18-0.02-0.36-0.06-0.55-0.1c-1.39-0.29-2.47-0.86-3.3-1.62C123.15,135.28,130.57,130.95,136.87,128.8z"/>
	<path style="fill:#A5A61E;" d="M160.63,139.63c0.17,2.03-1.82,4.42-5.76,6.91c-1.73,1.09-2.78,2.67-3.03,4.57
		c-0.14,1.06-0.01,2.15,0.27,3.19c-5.44-3.74-11.38-9.23-11.27-14.72c0-0.31,0.03-0.62,0.07-0.92c0.16-1.15,0.28-2.22,0.36-3.23
		c0.32-4.4-0.17-7.53-0.83-9.69c-0.13-0.41-0.26-0.79-0.4-1.13c5.36-0.34,10.28,4.48,12.49,7.02c0.77,0.89,1.21,1.5,1.23,1.53
		c0.23,0.32,0.55,0.58,0.92,0.73C156.15,134.5,160.39,136.87,160.63,139.63z"/>
	<path style="fill:#787916;" d="M154.68,133.89c-0.37-0.15-0.69-0.41-0.92-0.73c-0.02-0.03-0.46-0.64-1.23-1.53
		c-0.16-0.19-0.34-0.38-0.53-0.59c0.01,1.5-0.13,5.04-1.57,7.42c-0.09,0.15-0.16,0.25-0.22,0.32c-0.42,0.01-1.14,0.11-1.74,0.76
		c-0.91,0.98-0.87,1.25,0,8.39l2.07-0.25l2.05-0.45c-0.25-2.03-0.45-3.62-0.54-4.63c0.63-0.32,1.3-0.91,1.95-1.98
		c1.14-1.89,1.69-4.15,1.95-6.1C155.44,134.24,155,134.02,154.68,133.89z"/>
	<path d="M157.1,150.06c5.43-3.42,8.01-7.06,7.69-10.8c-0.44-5.07-6.05-8.09-7.96-8.98c-1.81-2.39-9.93-12.23-19.68-9.39
		c-0.37-0.04-0.76-0.09-1.18-0.13c-12.46-1.33-20.3,6.6-21.62,15.06c-0.13,0.84-0.19,1.65-0.19,2.44c0,5.77,3.37,10.19,8.91,11.35
		c1.22,0.26,2.34,0.38,3.37,0.38c5.66,0,8.72-3.46,10.84-6.42c3.32,10.41,18.92,18.06,19.69,18.43c0.29,0.15,0.6,0.21,0.91,0.21
		c0.64,0,1.27-0.29,1.67-0.84c0.6-0.8,0.54-1.92-0.14-2.66c-1.47-1.61-3.71-4.95-3.43-7.06C156.04,151.2,156.22,150.62,157.1,150.06
		z M136.9,137.17c-0.88,0.87-1.6,1.93-2.22,2.83c-2.22,3.25-4.52,6.6-10.21,5.63c-0.18-0.02-0.36-0.06-0.55-0.1
		c-1.39-0.29-2.47-0.86-3.3-1.62c-2.09-1.88-2.54-4.91-2.15-7.45c1.02-6.5,7.2-12.55,17.06-11.55c0.32,0.49,0.96,1.69,1.34,3.89
		c0.21,1.16,0.35,2.6,0.31,4.37C137.17,134.35,137.09,135.68,136.9,137.17z M154.87,146.54c-1.73,1.09-2.78,2.67-3.03,4.57
		c-0.14,1.06-0.01,2.15,0.27,3.19c-5.44-3.74-11.38-9.23-11.27-14.72c0-0.31,0.03-0.62,0.07-0.92c0.05-0.39,0.1-0.76,0.14-1.13
		c0.1-0.73,0.17-1.43,0.22-2.1c0.09-1.29,0.12-2.48,0.08-3.56c-0.04-1.64-0.2-3.04-0.44-4.23c-0.14-0.71-0.3-1.34-0.47-1.9
		c-0.13-0.41-0.26-0.79-0.4-1.13c1.3-0.08,2.58,0.14,3.8,0.56c3.43,1.18,6.39,3.93,8.16,5.87c0.19,0.21,0.37,0.4,0.53,0.59
		c0.77,0.89,1.21,1.5,1.23,1.53c0.23,0.32,0.55,0.58,0.92,0.73c0.32,0.13,0.76,0.35,1.27,0.63c1.84,1.02,4.49,2.94,4.68,5.11
		C160.8,141.66,158.81,144.05,154.87,146.54z"/>
</g>
<g>
	<path style="fill:#738C3A;" d="M65.16,150.47c0,3.02-1.34,6.17-5.26,7.18c-6.03,1.55-8.55-1.81-10.99-5.06
		c-0.71-0.94-1.55-2.07-2.57-2.93c-0.03-0.26-0.07-0.53-0.12-0.8c-1.4-7.38,0.91-10.51,1.77-11.39c9.48-1.13,15.69,4.55,16.96,10.88
		C65.09,149.03,65.16,149.75,65.16,150.47z"/>
	<path style="fill:#434D2B;" d="M64.59,153.64c-0.5,1.28-1.37,2.42-2.72,3.21c-3.74-4.29-10.21-7.52-15.92-9.71
		c-0.22-1.77-0.21-3.25-0.06-4.49C52.19,144.94,59.86,148.54,64.59,153.64z"/>
	<path style="fill:#98AB1A;" d="M42.6,138.57c-0.84,2.28-1.34,5.48-0.69,9.83c0.06,0.4,0.13,0.82,0.21,1.24
		c0.05,0.27,0.09,0.54,0.11,0.8c0.08,0.85,0.02,1.68-0.16,2.47c-0.82,3.68-4.06,6.71-6.98,8.75c-0.2-1.28-0.99-2.97-3.4-4.35
		c-3.51-2.01-5.4-4.08-5.33-5.83c0.09-2.04,2.62-3.98,4.32-5c0.42-0.25,0.78-0.44,1.05-0.57c0.37-0.17,0.69-0.46,0.9-0.8
		c0.01-0.01,0.09-0.15,0.24-0.37c1.02-1.5,5.15-7.09,10.36-7.62C43.01,137.56,42.79,138.04,42.6,138.57z"/>
	<path style="fill:#577413;" d="M39.45,157.8c-1.29,1.52-2.87,2.82-4.36,3.86c-0.04-0.27-0.11-0.55-0.22-0.85
		c0.31-0.42,0.52-0.83,0.6-1.22c0.07-0.33,0.06-0.76-0.49-1.38c-2.92-3.33-4.63-7.98-5.48-10.95c0.41-0.3,0.81-0.56,1.18-0.78
		c0.42-0.25,0.78-0.44,1.05-0.57c0.37-0.17,0.69-0.46,0.9-0.8c0.01-0.01,0.09-0.15,0.24-0.37c0.06-0.09,0.13-0.19,0.21-0.3
		c0.48,2.06,2.01,7.56,5.04,11.01C38.82,156.25,39.23,157.05,39.45,157.8z"/>
	<path d="M69.04,147.53c-1.67-8.28-9.69-15.75-21.79-14.17c-9.27-2.67-16.24,6.65-17.84,9.04c-1.83,0.96-7.01,4.09-7.22,8.89
		c-0.15,3.49,2.35,6.73,7.42,9.64c0.6,0.34,1.31,0.86,1.37,1.45c0.07,0.79-0.84,1.98-1.48,2.53c-0.79,0.67-0.97,1.81-0.42,2.69
		c0.39,0.63,1.07,0.99,1.77,0.99c0.28,0,0.56-0.06,0.83-0.17c0.02-0.01,0.05-0.02,0.09-0.05c1.16-0.51,11.2-5.16,13.97-13.06
		c2.19,2.91,5.32,6.91,11.24,6.91c1.2,0,2.51-0.16,3.95-0.53C67.17,160.1,70.43,154.4,69.04,147.53z M42.6,138.57
		c-0.29,0.79-0.54,1.69-0.72,2.72c-0.21,1.25-0.32,2.69-0.24,4.33c0.03,0.87,0.12,1.8,0.27,2.78c0.06,0.4,0.13,0.82,0.21,1.24
		c0.05,0.27,0.09,0.54,0.11,0.8c0.08,0.85,0.02,1.68-0.16,2.47c-0.4,1.8-1.38,3.44-2.62,4.89c-1.29,1.52-2.87,2.82-4.36,3.86
		c-0.04-0.27-0.11-0.55-0.22-0.85c-0.38-1.12-1.27-2.41-3.18-3.5c-3.51-2.01-5.4-4.08-5.33-5.83c0.07-1.6,1.64-3.14,3.14-4.22
		c0.41-0.3,0.81-0.56,1.18-0.78c0.42-0.25,0.78-0.44,1.05-0.57c0.37-0.17,0.69-0.46,0.9-0.8c0.01-0.01,0.09-0.15,0.24-0.37
		c0.06-0.09,0.13-0.19,0.21-0.3c0.34-0.49,0.88-1.21,1.59-2.01c0.68-0.79,1.53-1.65,2.5-2.47c1.69-1.4,3.78-2.61,6.06-2.84
		C43.01,137.56,42.79,138.04,42.6,138.57z M64.59,153.64c-0.5,1.28-1.37,2.42-2.72,3.21c-0.57,0.33-1.22,0.61-1.97,0.8
		c-6.03,1.55-8.55-1.81-10.99-5.06c-0.71-0.94-1.55-2.07-2.57-2.93c-0.03-0.26-0.07-0.53-0.12-0.8c-0.11-0.6-0.2-1.17-0.27-1.72
		c-0.22-1.77-0.21-3.25-0.06-4.49c0.35-3.07,1.54-4.61,2.1-5.18c9.48-1.13,15.69,4.55,16.96,10.88c0.14,0.68,0.21,1.4,0.21,2.12
		C65.16,151.55,64.99,152.64,64.59,153.64z"/>
</g>
<g>
	<path style="fill:#EBFF68;" d="M98.3,90.73c-0.16,0.4-0.66,0.94-1.59,1.26c-0.45,0.15-0.91,0.22-1.34,0.22
		c-1.03,0-1.9-0.38-2.16-0.9c-0.06-0.12-0.12-0.29-0.01-0.56c0.17-0.4,0.67-0.94,1.6-1.26c0.45-0.15,0.91-0.22,1.34-0.22
		c1.02,0,1.9,0.39,2.16,0.91C98.36,90.3,98.41,90.47,98.3,90.73z"/>
	<path style="fill:#EBFF68;" d="M81.78,92.95c-0.15,0.37-0.66,0.91-1.61,1.23c-1.66,0.56-3.18,0.01-3.51-0.62
		c-0.05-0.09-0.08-0.22,0-0.43c0.15-0.36,0.66-0.91,1.61-1.23c0.49-0.16,0.96-0.23,1.4-0.23c1.05,0,1.88,0.41,2.11,0.85
		C81.83,92.62,81.87,92.74,81.78,92.95z"/>
</g>
</svg>
