<?xml version="1.0" encoding="utf-8"?>
<!-- Generator: Adobe Illustrator 24.1.1, SVG Export Plug-In . SVG Version: 6.00 Build 0)  -->
<!DOCTYPE svg PUBLIC "-//W3C//DTD SVG 1.1//EN" "http://www.w3.org/Graphics/SVG/1.1/DTD/svg11.dtd" [
	<!ENTITY ns_extend "http://ns.adobe.com/Extensibility/1.0/">
	<!ENTITY ns_ai "http://ns.adobe.com/AdobeIllustrator/10.0/">
	<!ENTITY ns_graphs "http://ns.adobe.com/Graphs/1.0/">
	<!ENTITY ns_vars "http://ns.adobe.com/Variables/1.0/">
	<!ENTITY ns_imrep "http://ns.adobe.com/ImageReplacement/1.0/">
	<!ENTITY ns_sfw "http://ns.adobe.com/SaveForWeb/1.0/">
	<!ENTITY ns_custom "http://ns.adobe.com/GenericCustomNamespace/1.0/">
	<!ENTITY ns_adobe_xpath "http://ns.adobe.com/XPath/1.0/">
]>
<svg version="1.1" id="Layer_1" xmlns:x="&ns_extend;" xmlns:i="&ns_ai;" xmlns:graph="&ns_graphs;"
	 xmlns="http://www.w3.org/2000/svg" xmlns:xlink="http://www.w3.org/1999/xlink" x="0px" y="0px" viewBox="0 0 240 240"
	 style="enable-background:new 0 0 240 240;" xml:space="preserve">
<metadata>
	<sfw  xmlns="&ns_sfw;">
		<slices></slices>
		<sliceSourceBounds  bottomLeftOrigin="true" height="196.8" width="196.8" x="21.6" y="-218.4"></sliceSourceBounds>
	</sfw>
</metadata>
<circle style="fill:#D2D2D2;" cx="120" cy="120" r="98.4"/>
<g>
	<path style="fill:#FFFFFF;" d="M163.69,81.86c-1.62,4.26-8.15,6.47-13.27,6.47c-1.66,0-3.17-0.23-4.31-0.7
		c-10.15-4.15-16.35-7.58-27.06-11.37c-3.76-1.33-3.96-3.36-6.56-3.97l29.98,80.94c1.6,4.34-1.36,9.37-2.86,12.98
		c-1.52,3.61-4.82,7.81-9.92,12.58c-5.1,4.77-10.69,8.22-16.76,10.33c-4.15,1.45-7.98,2.18-11.48,2.18c-3.25,0-6.22-0.63-8.91-1.88
		c-5.58-2.59-9.23-6.36-10.95-11.3c-2.12-6.07-0.85-12.59,3.8-19.57c4.65-6.98,11.22-11.95,19.72-14.91
		c5.68-1.98,12-2.97,18.96-2.97c2.07,0,4.2,0.09,6.39,0.26L100.28,60.2l3.52-1.23c5.11,1.12,10.86,3.03,17.25,5.73
		c0.37,0.15,0.75,0.32,1.15,0.49c6.75,2.92,14,4.32,20.69,7.43c4.76,2.21,8.6,3.32,13.42,3.32c1.06,0,2.16-0.06,3.34-0.16
		c0.28-0.03,0.55-0.04,0.8-0.04C166,75.74,163.69,81.86,163.69,81.86z"/>
	<path style="fill:#D9D9D9;" d="M166.78,74.84c-0.94-1.36-2.8-2.98-6.33-2.98c-0.36,0-0.75,0.02-1.15,0.05
		c-1.08,0.1-2.06,0.15-3,0.15c-3.93,0-7.13-0.8-11.77-2.96c-3.76-1.75-7.64-2.97-11.38-4.15c-3.17-1-6.42-2.03-9.4-3.31
		c-0.4-0.18-0.82-0.36-1.22-0.53c-6.58-2.78-12.62-4.78-17.9-5.93l-0.25-0.05l-0.82-0.18l-0.8,0.28l-4.61,1.6l-2.9,1.01l1.08,2.88
		l28.44,76.07h-0.7c-7.37,0-14.17,1.07-20.23,3.18c-9.28,3.24-16.57,8.76-21.68,16.43c-5.34,8.01-6.76,15.75-4.24,23
		c2.07,5.94,6.44,10.5,12.98,13.54c3.19,1.48,6.74,2.24,10.55,2.24c3.92,0,8.21-0.81,12.76-2.39c6.56-2.29,12.66-6.04,18.13-11.17
		c5.48-5.12,9.13-9.81,10.85-13.91c0.22-0.53,0.47-1.09,0.73-1.67l0.03-0.06c1.71-3.78,4.06-8.95,2.16-14.1l-26.4-71.26
		c5.44,2.01,9.73,3.94,14.25,5.97c3.31,1.48,6.69,3,10.68,4.63c1.58,0.65,3.58,0.99,5.78,0.99c6.71,0,14.66-3.08,16.9-8.97
		C167.63,82.42,169.06,78.14,166.78,74.84z M150.42,88.33c-1.66,0-3.17-0.23-4.31-0.7c-10.15-4.15-16.35-7.58-27.06-11.37
		c-3.76-1.33-3.96-3.36-6.56-3.97l29.98,80.94c1.6,4.34-1.36,9.37-2.86,12.98c-1.52,3.61-4.82,7.81-9.92,12.58
		c-5.1,4.77-10.69,8.22-16.76,10.33c-4.15,1.45-7.98,2.18-11.48,2.18c-3.25,0-6.22-0.63-8.91-1.88c-5.58-2.59-9.23-6.36-10.95-11.3
		c-2.12-6.07-0.85-12.59,3.8-19.57c4.65-6.98,11.22-11.95,19.72-14.91c5.68-1.98,12-2.97,18.96-2.97c2.07,0,4.2,0.09,6.39,0.26
		L100.28,60.2l3.52-1.23c5.11,1.12,10.86,3.03,17.25,5.73c0.37,0.15,0.75,0.32,1.15,0.49c6.75,2.92,14,4.32,20.69,7.43
		c4.76,2.21,8.6,3.32,13.42,3.32c1.06,0,2.16-0.06,3.34-0.16c0.28-0.03,0.55-0.04,0.8-0.04c5.55,0,3.24,6.12,3.24,6.12
		C162.07,86.12,155.54,88.33,150.42,88.33z"/>
</g>
</svg>
