<?xml version="1.0" encoding="utf-8"?>
<!-- Generator: Adobe Illustrator 23.0.2, SVG Export Plug-In . SVG Version: 6.00 Build 0)  -->
<svg version="1.1" id="Layer_1" xmlns="http://www.w3.org/2000/svg" xmlns:xlink="http://www.w3.org/1999/xlink" x="0px" y="0px"
	 viewBox="0 0 183 208" style="enable-background:new 0 0 183 208;" xml:space="preserve">
<g>
	<path style="fill:#FFFFFF;" d="M69.1,130.9c-1.3,1.5-2.2,3.1-2.9,4.6c1.4,0.1,3.2,0.5,4.4,2.2c0.6-1.8,1.4-3.4,2.4-4.6
		c2.5-3,6.6-3.7,9.6-3.7c-2.5-0.8-4.7-1.9-6.6-3.2C73.7,127,71.2,128.4,69.1,130.9z"/>
	<path style="fill:#00A2E7;" d="M66.2,135.5c-2.5,5.5-1.8,10.6-1.8,10.6s-5.5-1.9-9.8-1.1c0,0-0.2,0-0.2,0c-1.2,0.3-2.3,0.8-3.3,1.4
		c2.9-0.3,4.5,0.6,4.7,0.7l-1,1.4c0,0-2.7-1.4-5.9-0.1c-0.7,0.8-1.2,1.8-1.6,2.8c4.3-1.1,6.3,0.2,6.5,0.4l-1.1,1.6
		c0,0-1.8-1.1-5.9,0.2c0,0.3-0.1,0.7-0.1,1.1c0,0.8,0.1,1.6,0.3,2.4h7.3h11.4h3c0,0-0.9-11.5,1.8-19.3
		C69.4,136.1,67.6,135.6,66.2,135.5z"/>
	<path style="fill:#008BC7;" d="M49,148.6c3.2-1.3,5.9,0.1,5.9,0.1l1-1.4c-0.2-0.1-1.8-1-4.7-0.7C50.3,147.1,49.6,147.8,49,148.6z"
		/>
	<path style="fill:#008BC7;" d="M52.8,153.3l1.1-1.6c-0.2-0.2-2.3-1.4-6.5-0.4c-0.3,0.7-0.4,1.4-0.5,2.2
		C51,152.3,52.8,153.3,52.8,153.3z"/>
</g>
<g>
	<path style="fill:#FFFFFF;" d="M118.1,142.7c-1-8.8-4.3-15.5-5.5-17.7c-1.2,0.9-2.5,1.7-4,2.4c3.1,5.3,4.5,10.7,5,15.4
		C115.3,143.6,117.1,143.1,118.1,142.7z"/>
	<path style="fill:#00A2E7;" d="M112.7,157l-5,3.9l1.8,2.3l7.1,9l4.5,5.7c0.7-0.3,1.5-0.7,2.1-1.2c0.3-0.2,0.5-0.5,0.8-0.7
		c-1.5-4-3.5-4.8-3.5-4.8l0.6-1.9c0.3,0.1,2.5,0.9,4.3,4.9c0.6-0.9,1-1.9,1.2-3c-0.9-3.3-3.7-4.6-3.7-4.6l0.5-1.6
		c0.2,0.1,1.9,0.8,3.5,3.2c-0.1-1.2-0.4-2.4-0.9-3.5c-0.9-3-8.2-8.5-8.2-8.5c0.9-4.9,0.9-9.5,0.4-13.6c-0.9,0.4-2.8,0.8-4.5,0.1
		C114.4,150.9,112.7,157,112.7,157z"/>
	<path style="fill:#008BC7;" d="M123.4,165.2l-0.5,1.6c0,0,2.8,1.2,3.7,4.6c0.2-1,0.3-2,0.2-3C125.3,165.9,123.6,165.2,123.4,165.2z
		"/>
	<path style="fill:#008BC7;" d="M121.1,169.4l-0.6,1.9c0,0,2,0.8,3.5,4.8c0.5-0.5,1-1.1,1.4-1.8
		C123.6,170.3,121.4,169.5,121.1,169.4z"/>
</g>
<g>
	<path style="fill:#FFFFFF;" d="M119,90.9c0.2-0.4,3.8-5.9,12.8-10c-1.5-2.4-2.5-5.1-2.9-7c-5.5,2.7-9.2,6-11.7,8.9l0.9,9.5
		C118.4,91.8,118.7,91.3,119,90.9z"/>
	<path style="fill:#008AC4;" d="M148.2,76.9c2.6-0.2,4.8-2.2,4.8-4.4c0-0.4-0.1-0.9-0.2-1.2c-0.6-1.6-2.3-2.6-4.4-2.4
		c-8.2,0.7-14.5,2.6-19.5,5.1c0.4,1.9,1.4,4.7,2.9,7C136,79,141.4,77.4,148.2,76.9z"/>
</g>
<g>
	<path style="fill:#FFFFFF;" d="M67.1,85.3c-2.9-2.3-7-4.8-12.6-6.5c-0.1,2-0.6,4.8-1.7,7.4c9.5,2.6,14,7.4,14.3,7.8
		c0.3,0.4,0.6,0.7,0.9,1l-0.7-8.3L67.1,85.3z"/>
	<path style="fill:#008AC4;" d="M34.4,76.8c-2.1,0.2-3.6,1.5-3.9,3.1c-0.1,0.4-0.1,0.8,0,1.3c0.4,2.2,2.9,3.8,5.5,3.6
		c6.8-0.5,12.3,0.1,16.8,1.3c1.1-2.6,1.7-5.4,1.7-7.4C49.2,77.1,42.5,76.2,34.4,76.8z"/>
</g>
<g>
	<path style="fill:#FFFFFF;" d="M110.1,39.2c-0.3-0.5-0.4-1-0.2-1.6c0.1-0.3,0.4-0.5,0.6-0.7c-0.4,0.1-0.8,0.2-1.2,0
		c-0.8-0.4-1.2-1.3-0.9-2.2c0.2-0.4,0.5-0.7,0.8-0.8c-0.4,0.1-0.8,0.1-1.1-0.1c-0.8-0.4-1.2-1.3-0.8-2.2c0,0,0.1-0.1,0.1-0.3
		c-6.2,2-9.5,5.9-11.5,8.8c-1,1.5-1.6,2.7-1.8,3.6c2.4,0.1,5.3,0.5,8.1,1.4C103.4,42.6,106.7,40.1,110.1,39.2z"/>
	<path style="fill:#673101;" d="M108.1,33.8c0.4,0.2,0.8,0.2,1.1,0.1c-0.4,0.2-0.7,0.4-0.8,0.8c-0.4,0.8,0,1.8,0.9,2.2
		c0.4,0.2,0.9,0.2,1.2,0c-0.3,0.2-0.5,0.4-0.6,0.7c-0.2,0.5-0.1,1.1,0.2,1.6c0.2,0,0.3-0.1,0.5-0.1c5.3-1.1,5.4-3.3,5.1-5.3
		c-0.4-2.6-2.8-3.7-6.8-2.8c-0.5,0.1-1,0.3-1.5,0.4c-0.1,0.1-0.1,0.3-0.1,0.3C106.9,32.5,107.3,33.5,108.1,33.8z"/>
</g>
<g>
	<path style="fill:#FFFFFF;" d="M80.8,41c-2.6-2.3-6.7-5.4-13.2-5.9c0.1,0.1,0.2,0.2,0.2,0.2c0.5,0.7,0.4,1.8-0.3,2.3
		c-0.3,0.2-0.7,0.3-1.1,0.3c0.4,0.1,0.7,0.3,1,0.6c0.5,0.7,0.4,1.8-0.3,2.3c-0.4,0.3-0.8,0.4-1.2,0.3c0.3,0.1,0.6,0.3,0.8,0.5
		c0.4,0.5,0.4,1,0.2,1.6c3.6,0.1,7.5,1.9,9.1,4.1c2.1-1.2,4.7-2.2,7.7-2.8C83.3,43.8,82.5,42.5,80.8,41z"/>
	<path style="fill:#673101;" d="M66.6,41.8c-0.2-0.3-0.5-0.4-0.8-0.5c0.4,0.1,0.8,0,1.2-0.3c0.7-0.6,0.9-1.6,0.3-2.3
		c-0.3-0.3-0.6-0.5-1-0.6c0.4,0,0.8-0.1,1.1-0.3c0.7-0.6,0.9-1.6,0.3-2.3c0,0-0.1-0.1-0.2-0.2c-0.5,0-1-0.1-1.6-0.1
		c-4.1,0-6.1,1.6-5.9,4.2c0.1,2,0.8,4.1,6.2,4c0.2,0,0.3,0,0.5,0C67,42.8,67,42.2,66.6,41.8z"/>
</g>
<g>
	<path style="fill:#00A2E7;" d="M119.8,111.8L118,92.3l-0.9-9.5l-2-21.8c-0.6-9.6-6.7-13.9-12.9-15.8c-2.9-0.9-5.7-1.2-8.1-1.4
		c-3.3-0.2-5.7,0.1-5.7,0.1c-1.8,0.2-3.4,0.4-4.9,0.7c-3.1,0.7-5.6,1.6-7.7,2.8c-11.1,6.2-10.6,17.8-10.6,17.8l1.8,20l0.1,1.3
		l0.7,8.3l1.9,21.4c0.3,3.9,2.6,7.3,6.2,9.8c1.9,1.3,4.1,2.4,6.6,3.2c4,1.3,8.7,1.9,13.7,1.4c4.6-0.4,8.8-1.6,12.3-3.4
		c1.4-0.7,2.8-1.5,4-2.4C117.4,121.5,120.2,116.8,119.8,111.8z M96.6,66.4c-0.1-0.6,0.1-1.1,0.5-1.5c0.4-0.4,0.9-0.7,1.4-0.7
		c1.2-0.1,2.2,0.8,2.3,1.9l0,0.2c0.1,1.1-0.7,2.2-1.9,2.3c-0.1,0-0.1,0-0.2,0c-1.1,0-2-0.8-2.1-1.9L96.6,66.4z M93,68.7
		c0.5,0,1,0.4,1.1,1c0.1,0.6-0.3,1.1-0.9,1.2c-0.5,0-1-0.4-1.1-1C92.1,69.3,92.5,68.8,93,68.7z M84.2,68l0-0.2
		c-0.1-1.1,0.7-2.2,1.9-2.3c1.1-0.1,2.2,0.7,2.3,1.9l0,0.2c0.1,0.6-0.1,1.1-0.5,1.5c-0.4,0.4-0.9,0.7-1.4,0.7c-0.1,0-0.1,0-0.2,0
		C85.2,69.9,84.3,69.1,84.2,68z"/>
	<path style="fill:#008BC7;" d="M101.5,98.9L101.5,98.9c-0.4-4.4-4.3-7.7-8.7-7.3c-4.4,0.4-7.6,4.3-7.2,8.7l1.1,12.5c0,0,0,0,0,0
		c0.4,4.4,4.3,7.7,8.7,7.3c4.4-0.4,7.6-4.3,7.2-8.7L101.5,98.9z"/>
</g>
<path style="fill:#FFFFFF;" d="M119.7,71.6c-0.4-4-1.5-7.4-4.4-9.6c-0.2-0.2-0.4-0.3-0.6-0.5c-1.1-8.9-6.9-13.1-12.8-15
	c-1.6-0.5-3.1-0.8-4.6-1c-0.2,0-0.6-0.1-1.1-0.1c-1.2-0.1-2.9-0.2-3.4-0.2c-3-0.1-5,0.2-5,0.2C75,46.7,65.4,57.1,66.2,68.7l0,0
	c0,0-0.6,18.7,20.8,20.2c1.8,0.1,3.4,0.1,5.1-0.1l15.1-1.4c4.1-0.4,7.7-2.8,10-6.2C119,78.4,120,75,119.7,71.6z"/>
<g>
	<path style="fill:#D84848;" d="M101.4,80.1c0-0.2-0.7-3.9-3.7-5.6l0,0.1c0.1,0.3,0.1,0.6-0.1,0.8c-0.1,0.2-0.4,0.4-0.7,0.4
		l-6.8,0.7c-0.3,0-0.6-0.1-0.8-0.3c-0.2-0.2-0.3-0.5-0.2-0.8l0-0.1c-2.9,2.3-2.6,6-2.6,6.2c0,0.3-0.2,0.5-0.4,0.5c0,0,0,0,0.1,0
		c6-1.5,10.9-1.7,13.3-1.7c1.4,0,2.2,0.1,2.2,0.1c0,0,0,0,0.1,0c0,0,0,0,0,0C101.7,80.6,101.5,80.4,101.4,80.1z"/>
	<path style="fill:#FFFFFF;" d="M93.2,73.9c-1.7,0.2-3,0.8-3.9,1.6l0,0.1c-0.1,0.3,0,0.6,0.2,0.8c0.2,0.2,0.5,0.3,0.8,0.3l6.8-0.7
		c0.3,0,0.5-0.2,0.7-0.4c0.1-0.3,0.2-0.5,0.1-0.8l0-0.1C96.6,73.9,95.1,73.6,93.2,73.9z"/>
	<path d="M102.4,79.7c0,0,0-0.1,0-0.2c0-0.1-0.1-0.2-0.1-0.4c0,0,0-0.1,0-0.1c0-0.1-0.1-0.2-0.1-0.3c0-0.1,0-0.1-0.1-0.2
		c0-0.1-0.1-0.2-0.1-0.4c0-0.1-0.1-0.2-0.1-0.2c-0.1-0.1-0.1-0.3-0.2-0.4c0-0.1-0.1-0.2-0.1-0.3c-0.1-0.1-0.1-0.3-0.2-0.4
		c0-0.1-0.1-0.2-0.1-0.3c-0.1-0.2-0.2-0.3-0.3-0.5c0-0.1-0.1-0.1-0.1-0.2c-0.2-0.2-0.3-0.4-0.5-0.6c-0.1-0.1-0.1-0.1-0.2-0.2
		c-0.1-0.1-0.3-0.3-0.4-0.4c-0.1-0.1-0.2-0.2-0.3-0.2c-0.1-0.1-0.3-0.2-0.4-0.3c-0.1-0.1-0.2-0.2-0.3-0.2c-0.1-0.1-0.3-0.2-0.5-0.3
		c-0.1-0.1-0.3-0.1-0.4-0.2c-0.2-0.1-0.3-0.1-0.5-0.2c-0.1,0-0.2-0.1-0.4-0.1c0,0,0,0-0.1,0c-0.2-0.1-0.4-0.1-0.7-0.1
		c-0.1,0-0.3-0.1-0.4-0.1c-0.4,0-0.8-0.1-1.2-0.1c0,0-0.1,0-0.1,0c-0.4,0-0.9,0-1.3,0.1c-1.4,0.2-2.5,0.6-3.4,1.1
		c-4.4,2.5-3.9,7.7-3.9,7.8c0,0.1,0,0.1,0.1,0.2c0,0,0,0,0,0c0,0,0.1,0.1,0.1,0.1c0,0,0,0,0,0c0.1,0,0.2,0.1,0.3,0.1c0,0,0,0,0.1,0
		c0.3,0,0.5-0.3,0.4-0.5c0-0.2-0.3-4,2.6-6.2c0.9-0.7,2.2-1.3,3.9-1.6c1.9-0.3,3.4,0.1,4.5,0.7c3,1.6,3.7,5.4,3.7,5.6
		c0,0.3,0.3,0.4,0.5,0.4c0,0,0,0,0.1,0c0,0,0.1,0,0.1,0c0,0,0,0,0,0c0.1-0.1,0.2-0.3,0.2-0.5C102.4,80,102.4,79.9,102.4,79.7z"/>
	<path d="M93.2,70.9c0.5,0,0.9-0.6,0.9-1.2c-0.1-0.6-0.5-1-1.1-1c-0.5,0-0.9,0.6-0.9,1.2C92.2,70.5,92.7,70.9,93.2,70.9z"/>
	<path d="M86.4,69.9c0.6-0.1,1.1-0.3,1.4-0.7c0.4-0.4,0.5-1,0.5-1.5l0-0.2c-0.1-1.1-1.1-2-2.3-1.9c-1.1,0.1-2,1.1-1.9,2.3l0,0.2
		c0.1,1.1,1,1.9,2.1,1.9C86.3,69.9,86.4,69.9,86.4,69.9z M85.2,67.9l0-0.2c-0.1-0.6,0.4-1.1,1-1.2l0.1,0c0.6,0,1,0.4,1.1,1l0,0.2
		c0,0.3-0.1,0.6-0.2,0.8c-0.2,0.2-0.4,0.4-0.7,0.4l-0.1,0C85.7,68.9,85.2,68.5,85.2,67.9z"/>
	<path d="M98.7,68.5c0.1,0,0.1,0,0.2,0c1.1-0.1,2-1.1,1.9-2.3l0-0.2c-0.1-1.1-1.1-2-2.3-1.9c-0.6,0.1-1.1,0.3-1.4,0.7
		c-0.4,0.4-0.5,1-0.5,1.5l0,0.2C96.7,67.7,97.6,68.5,98.7,68.5z M97.8,65.5c0.2-0.2,0.4-0.4,0.8-0.4c0.6,0,1,0.4,1.1,1l0,0.2
		c0.1,0.6-0.4,1.1-1,1.2l-0.1,0c-0.6,0-1-0.4-1.1-1l0-0.2C97.6,66,97.7,65.8,97.8,65.5z"/>
</g>
<path style="fill:#FF7800;" d="M109.9,45.7c0,0.1,0,0.1,0,0.2c0,0,0.1,0.1,0.1,0.1c4.1,1.7,7.1,4.5,8.9,6.6c2.5,2.9,4,8.8,4.1,8.9
	c0,0,0,0,0,0c0,0,0,0,0,0c0,0,0,0,0,0c0,0,0,0,0,0c0,0,0,0,0,0c0,0,0,0,0,0v0h0h0c0,0.1,0.2,0.1,0.3,0.1c0.1-0.1,0.2-0.2,0.1-0.3
	c-0.6-1.7,4.6-6,6.3-7.1c0.1-0.1,0.1-0.2,0.1-0.3c0-0.1-0.1-0.1-0.2-0.1c-4.3,0.5-6.7-0.1-6.9-1.4c-0.5-3.1,4.4-6.9,4.5-7
	c0.1-0.1,0.1-0.2,0.1-0.3c-0.1-0.1-0.2-0.1-0.3-0.1c-5.3,2.7-8.4,2.8-9.5,1.2c-1-1.5,0.1-3.9,0.1-3.9c0-0.1,0-0.2-0.1-0.3
	c-0.1-0.1-0.2,0-0.3,0c-3.2,3-7.1,3.5-7.1,3.5C110,45.5,109.9,45.6,109.9,45.7z"/>
<g>
	<path style="fill:#FFC0BB;" d="M76,66.4c-3.8,0.3-6.7,3.8-6.3,7.6c0.3,3.9,3.7,6.7,7.6,6.4c3.8-0.3,6.7-3.8,6.3-7.6
		C83.3,68.9,79.9,66.1,76,66.4z"/>
	<path style="fill:#FFC0BB;" d="M117.5,69.7c-0.1-1.6-0.8-3.1-1.9-4.2c-1.4-1.5-3.5-2.4-5.7-2.2c-3.8,0.3-6.7,3.8-6.3,7.6
		c0.3,3.9,3.7,6.7,7.6,6.4c2.2-0.2,4.1-1.4,5.2-3.1C117.2,72.9,117.7,71.4,117.5,69.7z"/>
</g>
</svg>
