<?xml version="1.0" encoding="utf-8"?>
<!-- Generator: Adobe Illustrator 26.5.0, SVG Export Plug-In . SVG Version: 6.00 Build 0)  -->
<svg version="1.1" id="레이어_1" xmlns="http://www.w3.org/2000/svg" xmlns:xlink="http://www.w3.org/1999/xlink" x="0px"
	 y="0px" viewBox="0 0 390 390" style="enable-background:new 0 0 390 390;" xml:space="preserve">
<path d="M137,308.7c-7.9,7.1-7.1,20-9.4,30.6c-1.7,8.3-4.1,23.5-1.3,31.9c4.1,12.4,18.2,16,29.8,15c18.7-1.5,22.6-18.7,26.6-35.2
	c3.5-15,5.6-30.6-7.9-40.3c-9.3-6.8-21.8-10.2-33.2-5C139.6,306.5,138.1,307.5,137,308.7z"/>
<path d="M247.4,312.3c7.9,7.1,7.1,20,9.4,30.6c1.7,8.3,4.1,23.5,1.3,31.9c-4.1,12.4-18.2,16-29.8,15c-18.7-1.5-22.6-18.7-26.6-35.2
	c-3.5-15-5.6-30.6,7.9-40.3c9.3-6.8,21.8-10.2,33.2-5C244.6,310.2,246.1,311.2,247.4,312.3z"/>
<g>
	<g>
		<g>
			<path style="fill:#274DA3;" d="M140.1,25.1c7.4-17.9,29.9-22,47.3-22.6c22.5-0.8,39.7,3.8,53.2,22.8c8.3,11.6-2.6,22.5-13.9,25.8
				c-15.4,4.6-31.7,6.1-47.8,4.6c-17.2-1.7-48.4-4.5-39-29.9C140,25.6,140,25.2,140.1,25.1z"/>
			<path d="M190.9,58.6c-4.1,0-8.3-0.2-12.2-0.7c-13.4-1.3-33.2-3.1-40.3-14.4c-3.1-5-3.5-11.2-0.7-18.5l0.3-0.8
				c6.3-15,23-23.1,49.4-24.1c25.8-1.2,42.3,6.1,55,23.8c3.3,4.6,4.1,9.8,2.5,14.5c-2.3,6.4-9.1,12.4-17.7,14.9
				C215.7,56.8,203.3,58.6,190.9,58.6z M192,4.6c-1.5,0-3.1,0-4.6,0.2c-24.5,1-39.7,8.1-45.1,21.3l0,0l-0.2,0.7
				c-2.1,6-2.1,10.6,0.3,14.4c6,9.3,25.1,11.2,36.5,12.2c16,1.5,32.2,0,47.1-4.5c6.9-2.1,12.7-6.8,14.5-11.9c1.2-3.5,0.5-6.9-2-10.2
				C227.6,11.2,213.8,4.6,192,4.6z M140.1,25.1L140.1,25.1L140.1,25.1z"/>
		</g>
	</g>
	<g>
		<g>
			<path style="fill:#FFCC00;" d="M199.8,19.1c-6.4,0-8.4-2.6-8.4-2.6s-1.8,2.6-8.4,2.6c0,0-0.2,15.5,8.4,15.5
				S199.8,19.1,199.8,19.1z"/>
			<path d="M191.4,36.6c-2.1,0-4.1-0.8-5.8-2.5C181,29.5,181,19.5,181,19c0-1,0.8-2,2-2c5.1,0,6.8-1.8,6.8-1.8
				c0.3-0.5,1-0.8,1.7-0.7c0.7,0,1.2,0.3,1.5,0.8l0,0c0,0,1.7,1.8,6.8,1.8c1.2,0,2,0.8,2,2c0,0.5,0,10.6-4.6,15.2
				C195.5,35.8,193.7,36.6,191.4,36.6z M185.1,20.9c0.2,3.1,1,8.3,3.3,10.6c1.7,1.7,4.1,1.7,6,0c2.3-2.3,3.1-7.4,3.3-10.6
				c-3.1-0.3-5.1-1.2-6.3-2C190.2,19.8,188.2,20.8,185.1,20.9z"/>
		</g>
		<g>
			<path style="fill:#C17100;" d="M194.5,27.9c0,1.5-1.5,2-3.1,2c-1.8,0-3.1-0.3-3.1-2c0-1.7,1.5-2.8,3.1-2.8
				C193.2,25.1,194.5,26.4,194.5,27.9z"/>
			<g>
				<ellipse style="fill:#C17100;" cx="187.6" cy="24.7" rx="1" ry="1.2"/>
				<ellipse style="fill:#C17100;" cx="195.3" cy="24.7" rx="1" ry="1.2"/>
			</g>
			<g>
				<ellipse style="fill:#C17100;" cx="189.9" cy="23.1" rx="1" ry="1.2"/>
				<ellipse style="fill:#C17100;" cx="192.9" cy="23.1" rx="1" ry="1.2"/>
			</g>
		</g>
	</g>
	<g>
		<path style="fill:#274DA3;" d="M125.6,54.8c-3-2.3-5-8.8-3.5-12.2c3.6-7.8,21.3-6.8,28.8-5.8c9.6,1.2,17.5,4.3,27.3,4.3
			c12.7,0,24.6-0.3,37-3.1c16.2-3.8,44.6-11.4,44,10.2c-0.7,25.3-45,22-65.1,22c-17,0-32.7,0.7-48.4-5.1
			C139.6,62.9,127.4,60.3,125.6,54.8z"/>
		<path d="M209.2,72.8c-3.1,0-6,0-8.8,0c-2.3,0-4.5,0-6.4,0l0,0h-5c-15.2,0-29.8,0.2-44.3-5.3c-1.3-0.5-2.8-1-4.3-1.5
			c-6.4-2.1-14.5-4.6-16.9-9.6c-3.3-3.1-5.6-10.1-3.5-14.5c4.5-9.8,25-7.9,31.2-7.1c3.8,0.5,7.4,1.3,10.9,2c5.3,1.2,10.4,2.3,16,2.3
			l0,0c12.4,0,24.3-0.2,36.5-3l2.6-0.7c12.7-3,30.2-7.1,39,0c3.6,3,5.3,7.3,5.1,13.2C260.9,70.5,231.5,72.8,209.2,72.8z M194,68
			c2,0,4.1,0,6.4,0c20.8,0.3,55.7,0.8,56.2-19.7c0.2-4.3-1-7.4-3.5-9.4c-6.9-5.6-23.8-1.7-35,0.8l-2.6,0.7
			c-12.6,2.8-25,3.1-37.5,3.1l0,0c-6.3,0-11.7-1.2-17-2.5c-3.3-0.7-6.8-1.5-10.4-2c-11.4-1.5-24-0.7-26.3,4.5
			c-1.2,2.3,0.5,7.6,2.6,9.4c0.3,0.3,0.7,0.7,0.8,1.2c1,3.1,8.9,5.6,14,7.3c1.7,0.5,3.3,1,4.6,1.5c13.7,5.1,27.8,5.1,42.6,5.1
			L194,68L194,68z"/>
	</g>
</g>
<g>
	<path style="fill:#274DA3;" d="M197.8,179.1c-26.6-1.5-54.2,10.7-58,36.7c-2.3,16.7-5.1,25.9-8.1,35.7c-1.7,5.8-3.5,11.7-5.3,19.7
		c-3.1,13.6-0.8,35.4,11.7,51.2c12.1,15,30.9,22.6,56,22.6s44-7.6,56-22.6c12.6-15.9,14.9-37.7,11.7-51.2c-1.8-7.9-3.5-13.4-5-18.5
		c-2.6-8.9-5.1-17.2-8.4-36.7C244.6,192.7,221.6,180.3,197.8,179.1z"/>
	<g>
		<path d="M190.7,238c0.3,0.3,0.7,0.7,0.8,1.2c0.2,0.5,0,1-0.2,1.5c-2.3,7.4-4.8,14.9-7.6,22.3c-0.2,0.5-0.5,1.2-0.3,1.8
			c0,0.7,0.3,1.2,0.7,1.8c2.5,4.5,5.5,8.9,8.6,12.9c0.3,0.5,0.7,0.8,1.2,1.2c3.8,2,8.3-7.1,9.6-9.4c1.8-3,3.1-5.5,2.3-8.9
			c-0.7-3.3-2.6-6.3-3.8-9.4c-1.5-3.8-3.3-8.4-3.5-12.6c0-0.7,0.5-1.3,0.8-1.8c1.5-1.8,3-3.5,4.1-5.5c1-2,1.7-4.5,0.8-6.6
			c-2-5.3-9.4-5.3-12.9-1.8c-1.5,1.5-2.8,3.5-4.1,5.1C185.1,232.8,188.2,235.6,190.7,238z"/>
		<g>
			<path style="fill:#274DA3;" d="M163.6,210.7c-0.2,8.9,7.8,18.3,15,22.6c3,1.8,3.5,2.1,6.4,0.8c3.6-1.8,7.3-5.5,10.1-8.1
				c3,2.3,6,8.6,9.8,9.8c5,1.5,12.6-6.9,15.4-10.2c4.3-4.8,7.1-10.9,5-17.2c-4.5-13.1-19.3-18.3-32.1-17.7
				c-9.1,0.5-21.2,4.1-26.8,11.9C164.4,205.1,163.6,207.9,163.6,210.7z"/>
			<path d="M206.1,238c-0.7,0-1.2,0-1.7-0.2c-3-0.8-5.1-3.6-7.3-6.4c-0.7-0.8-1.3-1.8-2-2.5c-2.6,2.5-6,5.6-9.3,7.1
				c-3.6,1.7-5,1.2-8.1-0.8c-8.1-5-16.2-14.9-16-24.5l0,0c0-3.5,1.2-6.6,3.1-9.3c6-8.1,18.5-12.2,28.3-12.7c13.6-0.7,29.3,5,34,19
				c2.1,6.1,0.2,12.7-5.3,19.2C217,232,211.2,238,206.1,238z M195,223.6l1.3,1c1.3,1,2.5,2.6,3.8,4.3c1.7,2.1,3.5,4.6,5.3,5.1
				c1.8,0.5,5.6-0.8,13.4-9.8c4.8-5.3,6.3-10.6,4.6-15.4c-4.1-12.1-18.2-17-30.2-16.4c-8.9,0.5-20.2,4-25.3,11.1
				c-1.5,2.1-2.3,4.5-2.3,7.1c-0.2,8.1,7.3,16.9,14,21c2.6,1.7,2.6,1.7,4.6,0.7c3-1.3,6.1-4.3,8.6-6.8L195,223.6z"/>
		</g>
	</g>
	<g>
		<g>
			<path style="fill:#76490D;" d="M261.3,268.7c-77.7,25.8-134.2,0.3-134.2,0.3s-3.8,8.9-1.3,17.7c0,0,57,25.8,136.7,0
				c0,0,1.5-9.9-0.7-15.7L261.3,268.7z"/>
			<path d="M191.9,299.8c-40.7,0-66.4-11.4-66.8-11.6c-0.5-0.2-0.8-0.7-1-1.2c-2.6-9.3,1.3-18.3,1.5-18.8c0.2-0.5,0.5-0.8,1-1
				s0.8-0.2,1.3,0c0.5,0.3,56.9,25,132.9-0.5c0.5-0.2,1-0.2,1.3,0.2c0.5,0.2,0.7,0.7,0.8,1.2l0.5,2.3c2.1,6.1,0.7,16,0.7,16.4
				c-0.2,0.7-0.5,1.2-1.2,1.3C236.5,297,212.4,299.8,191.9,299.8z M127.2,285.6c6.9,2.8,61,23.1,133.7,0c0.3-2.6,0.8-9.6-0.7-13.9
				v-0.2l-0.2-0.5c-69.1,22.5-122,4.3-131.9,0.3C127.2,274,125.9,279.8,127.2,285.6z"/>
		</g>
		<g>
			<path style="fill:#898989;" d="M202.9,280.1h-17.5c-2.1,0-3.8,1.7-3.8,3.8v10.6c0,2.1,1.7,3.8,3.8,3.8h17.4
				c2.1,0,3.8-1.7,3.8-3.8v-10.6C206.7,281.8,204.9,280.1,202.9,280.1z M201.1,291.7c0,1-1,1.8-2.1,1.8h-9.9c-1.2,0-2.1-0.8-2.1-1.8
				v-4.8c0-1,1-1.8,2.1-1.8h9.9c1.2,0,2.1,0.8,2.1,1.8V291.7z"/>
			<path d="M202.9,300.3h-17.5c-3.1,0-5.8-2.6-5.8-5.8v-10.6c0-3.1,2.6-5.8,5.8-5.8h17.4c3.1,0,5.8,2.6,5.8,5.8v10.6
				C208.6,297.6,206.1,300.3,202.9,300.3z M185.4,282.1c-1.2,0-2,0.8-2,2v10.6c0,1,0.8,2,2,2h17.4c1.2,0,2-0.8,2-2v-10.6
				c0-1-0.8-2-2-2H185.4z M199.1,295.3h-9.9c-2.1,0-4-1.7-4-3.6v-4.8c0-2,1.8-3.6,4-3.6h9.9c2.1,0,4,1.7,4,3.6v4.8
				C203.1,293.7,201.3,295.3,199.1,295.3z M199.1,291.5h0.2v-4.8h-10.1l-0.2,4.6L199.1,291.5z"/>
		</g>
	</g>
	<path d="M194.2,346.5c-25.8,0-45-7.8-57.4-23.3c-13.1-16.2-15.4-38.7-12.1-52.6c1.8-7.9,3.6-14,5.5-19.8c2.8-9.8,5.6-18.8,7.9-35.4
		c1.8-12.6,9.1-23,21.3-29.9c10.7-6.1,24.5-9.1,38.5-8.3c34,1.8,49.4,21.7,52.4,38.2c3.3,19.5,5.8,27.8,8.4,36.5
		c1.5,5.3,3.1,10.7,5,18.7c3.3,13.9,0.8,36.4-12.1,52.6C239.1,338.8,219.8,346.5,194.2,346.5z M192.9,180.6
		c-31.7,0-48.8,17.9-51.4,35.4c-2.5,16.9-5.1,26.1-8.1,35.9c-1.7,5.8-3.5,11.7-5.3,19.7c-3.1,13.2-0.8,34.4,11.4,49.7
		c11.6,14.5,30.1,22,54.7,22s43-7.4,54.7-22c12.2-15.4,14.5-36.5,11.4-49.7c-1.8-7.9-3.5-13.2-5-18.5c-2.6-8.9-5.1-17.4-8.4-37
		c-2.6-15.2-17-33.6-49.1-35.2l0,0C196,180.6,194.3,180.6,192.9,180.6z"/>
	<g>
		<g>
			<path style="fill:#FFCC00;" d="M244.8,232.2c-12.6,2.3-17-2.1-17-2.1s-2.6,5.8-15.2,8.1c0,0,5.3,30.1,21.8,27.1
				C250.7,262.3,244.8,232.2,244.8,232.2z"/>
			<path d="M232,267.4c-2.8,0-5.5-0.8-7.8-2.5c-9.9-6.8-13.4-25.6-13.6-26.4c-0.2-1,0.5-2,1.5-2.1c11.2-2,13.9-6.9,13.9-7.1
				c0.3-0.5,0.8-1,1.3-1c0.7-0.2,1.2,0,1.7,0.5c0,0,4.3,3.6,15.4,1.7c1-0.2,2,0.5,2.1,1.5c0.2,0.8,3.6,19.5-3.1,29.4
				c-2.1,3.1-5.1,5.1-8.9,5.8C233.7,267.2,232.9,267.4,232,267.4z M214.8,239.6c1.2,4.6,4.6,17.4,11.6,22.1c2.3,1.7,4.8,2.1,7.6,1.7
				c2.8-0.5,5-2,6.4-4.3c4.8-6.9,3.5-20,2.8-24.8c-7.9,1.2-12.7-0.5-15-1.7C226.4,234.6,222.6,237.8,214.8,239.6z"/>
		</g>
		<g>
			<path style="fill:#C17100;" d="M238,250.8c0.5,3-2,4.3-5.5,4.8c-3.3,0.7-6.3,0.3-6.8-2.6c-0.5-3,1.7-6,5.1-6.6
				C234.3,245.7,237.3,247.9,238,250.8z"/>
			<g>
				
					<ellipse transform="matrix(0.9819 -0.1895 0.1895 0.9819 -42.8302 46.7882)" style="fill:#C17100;" cx="223.3" cy="247.4" rx="2" ry="2.3"/>
				
					<ellipse transform="matrix(0.9819 -0.1895 0.1895 0.9819 -42.0634 49.5643)" style="fill:#C17100;" cx="238.2" cy="244.7" rx="2" ry="2.3"/>
			</g>
			<g>
				
					<ellipse transform="matrix(0.9819 -0.1895 0.1895 0.9819 -42.0089 47.4727)" style="fill:#C17100;" cx="227.2" cy="243.4" rx="2" ry="2.3"/>
				
					<ellipse transform="matrix(0.9819 -0.1895 0.1895 0.9819 -41.6825 48.5435)" style="fill:#C17100;" cx="233" cy="242.2" rx="2" ry="2.3"/>
			</g>
		</g>
	</g>
	<path d="M125.7,286.7c0,0,56.4,25.5,136.7,0c0,0,5,55.5-71.7,59C190.7,345.7,127.4,341.4,125.7,286.7z"/>
	<path d="M154,256.8c-0.2,0-0.3,0-0.5-0.2l-13.9-4.6c-0.8-0.3-1.3-1.2-1.2-2l2.3-9.9c0.2-0.8,1-1.3,1.8-1.3l28.1,2.6
		c0.8,0.2,1.5,0.8,1.5,1.7v9.8c0,0.8-0.7,1.7-1.5,1.7l-16.5,2.1C154.2,256.8,154,256.8,154,256.8z M142.1,249.4l12.1,4.1l14.7-2
		v-6.8l-25.1-2.3L142.1,249.4z"/>
</g>
<g>
	<g>
		<g>
			<g>
				<path style="fill:#6AD419;" d="M145.4,220.6c-1.5-6.3-5.6-9.3-14.2-5.3c-25.8,11.9-27.9,54.4-40.8,76.5
					c-5.6,9.4-9.8,19.7-12.2,30.2c-2,7.9-4.5,21.5,2.3,27.8c7.1,6.9,18.2,7.4,27.8,7.4c8.3,0,18.8,2.6,25.8-3.1
					c8.4-6.9,2-21.8,0.3-30.7c-0.7-4.1-0.5-8.3-1.2-12.2c-0.8-5.5-2.1-9.8-1.7-15.5c1.3-11.4,6-22,8.6-32.9
					C141.8,256.6,148.4,232.7,145.4,220.6z"/>
				<path d="M120.8,360.3c-2.3,0-4.6-0.2-6.9-0.3c-2-0.2-4-0.3-6-0.3c0,0,0,0-0.2,0c-10.9,0-21.8-1-29.3-8.1
					c-8.3-7.9-4.3-24.6-3-30.1c2.6-10.9,6.8-21.3,12.6-30.9c4.3-7.3,7.4-17,10.7-27.3c6.6-20.5,13.4-41.8,31.2-50.1
					c4.8-2.3,8.8-2.6,11.9-1.2c2.8,1.3,4.6,4,5.6,8.1l0,0c3,11.9-2.8,33.7-5,41.8l-0.3,1.5c-1,4-2.1,7.8-3.5,11.6
					c-2.1,6.8-4.5,13.9-5.1,21.2c-0.5,4,0.2,7.3,0.8,10.9c0.2,1.3,0.5,2.6,0.7,4c0.3,2,0.5,4,0.5,6c0.2,2.1,0.2,4.1,0.7,6.3
					c0.3,1.8,0.8,3.8,1.3,6c2.3,9.3,5.3,20.7-2.6,27.1C131.2,359.4,125.9,360.3,120.8,360.3z M108.1,355c2,0,4.1,0.2,6.3,0.3
					c6.6,0.5,13.6,1,18-2.8c5.6-4.5,3.1-13.9,1-22.3c-0.7-2.3-1.2-4.5-1.5-6.3c-0.3-2.3-0.5-4.6-0.7-6.8c-0.2-2-0.2-3.8-0.5-5.5
					c-0.2-1.3-0.5-2.6-0.7-3.8c-0.8-4-1.5-7.6-1-12.2c0.8-7.6,3.1-14.9,5.5-22c1.2-3.6,2.3-7.6,3.3-11.2l0.3-1.5
					c1.8-7.1,7.4-28.9,4.8-39.7l0,0c-0.7-2.6-1.7-4.3-3.1-5c-2.1-1-5.5,0-7.9,1.2c-16,7.4-22.5,27.8-28.8,47.3
					c-3.3,10.6-6.6,20.5-11.1,28.3c-5.5,9.3-9.4,19.3-12.1,29.8c-1.2,4.8-4.6,19.5,1.7,25.6C88.4,354.5,98.6,355,108.1,355
					C107.9,355,107.9,355,108.1,355z"/>
			</g>
		</g>
		<g>
			<g>
				<path style="fill:#274DA3;" d="M131,215.3c-25.8,11.9-27.9,54.4-40.8,76.5c-2,3.5-3.8,6.9-5.5,10.7c11.1,2.8,34,7.9,47.8,5.8
					c-1.8-15.5,3.6-30.6,7.4-45.5c1.7-6.3,8.3-30.1,5.3-42.1C143.9,214.3,139.8,211.2,131,215.3z"/>
				<path d="M125.3,311.2c-13.6,0-30.9-3.8-41-6.4c-0.7-0.2-1.2-0.7-1.5-1.2c-0.3-0.7-0.3-1.3,0-2c1.7-3.8,3.5-7.6,5.5-10.9
					c4.3-7.3,7.4-17,10.7-27.3c6.6-20.5,13.4-41.8,31.2-50.1l0,0c4.8-2.3,8.8-2.6,11.9-1.2c2.8,1.3,4.6,4,5.6,8.1
					c3,11.9-2.8,33.7-5,41.8l-0.3,1.5c-0.7,2.8-1.5,5.6-2.3,8.4c-3.3,11.9-6.6,24.1-5.1,36.4c0.2,1.3-0.7,2.5-2,2.6
					C130.7,311,128.1,311.2,125.3,311.2z M88.2,300.9c10.1,2.5,29.3,6.6,42,5.5c-1-12.4,2.3-24.3,5.5-35.9c0.8-2.8,1.5-5.5,2.1-8.3
					l0.3-1.5c1.8-7.1,7.6-28.9,4.8-39.7c-0.7-2.6-1.7-4.3-3.1-5c-2.1-1-5.5,0-7.9,1.2l0,0c-16,7.4-22.5,27.8-28.8,47.3
					c-3.3,10.6-6.6,20.5-11.1,28.3C90.9,295.5,89.4,298.1,88.2,300.9z"/>
			</g>
			<g>
				<line style="fill:none;" x1="97" y1="276.8" x2="134.8" y2="282.9"/>
				<path d="M134.8,285.2c-0.2,0-0.3,0-0.3,0l-37.8-6.1c-1.3-0.2-2.1-1.5-2-2.6c0.2-1.3,1.5-2.1,2.6-2l37.8,6.1
					c1.3,0.2,2.1,1.5,2,2.6C136.8,284.4,135.8,285.2,134.8,285.2z"/>
			</g>
			<g>
				<polygon style="fill:#FFC800;" points="93.2,286.4 133.2,290.8 132.4,298.4 89.1,293.7 				"/>
				<path d="M132.4,300.8c-0.2,0-0.2,0-0.3,0L88.7,296c-0.8-0.2-1.5-0.5-1.8-1.3c-0.3-0.7-0.3-1.5,0-2.1l4.1-7.3
					c0.5-0.8,1.3-1.3,2.3-1.2l40,4.5c1.3,0.2,2.1,1.3,2.1,2.6l-0.8,7.6c0,0.7-0.3,1.2-0.8,1.7C133.5,300.6,132.9,300.8,132.4,300.8z
					 M92.9,291.8l37.4,4.1l0.3-3l-36-4.1L92.9,291.8z"/>
			</g>
			<g>
				<path style="fill:#FFC800;" d="M100.8,232c0,0-6,9.8-7.8,14.5l22.5,5.5l7.3-13.4L100.8,232z"/>
				<path d="M115.3,254.2c-0.2,0-0.3,0-0.5,0l-22.5-5.5c-0.7-0.2-1.2-0.7-1.5-1.2c-0.3-0.7-0.3-1.3-0.2-2c2-5,7.8-14.4,7.9-14.9
					c0.5-0.8,1.7-1.3,2.6-1l22,6.4c0.7,0.2,1.2,0.7,1.5,1.3c0.3,0.7,0.2,1.3-0.2,2l-7.3,13.4C117,253.8,116.2,254.2,115.3,254.2z
					 M96.3,244.9l17.9,4.3l5.1-9.3l-17.4-5.1C100.5,237,98,241.4,96.3,244.9z"/>
			</g>
			<g>
				<line style="fill:none;" x1="103.3" y1="240.1" x2="110.9" y2="242.1"/>
				<path d="M110.9,244.4c-0.2,0-0.3,0-0.7,0l-7.6-2c-1.3-0.3-2-1.7-1.7-2.8c0.3-1.3,1.7-2,2.8-1.7l7.6,2c1.3,0.3,2,1.7,1.7,2.8
					C112.9,243.7,112,244.4,110.9,244.4z"/>
			</g>
			<g>
				<path d="M100.8,232c0,0,7.9-18.5,17.5-24l21.5,6.8c0,0-14,18.2-17,23.6L100.8,232z"/>
				<path d="M122.6,240.8c-0.2,0-0.5,0-0.7-0.2l-22-6.4c-0.7-0.2-1.2-0.7-1.5-1.3c-0.3-0.7-0.3-1.3,0-2c0.3-0.8,8.4-19.3,18.5-25.1
					c0.5-0.3,1.3-0.3,2-0.2l21.5,6.8c0.7,0.2,1.3,0.8,1.5,1.5c0.2,0.7,0.2,1.5-0.3,2.1c-0.2,0.2-13.9,18-16.9,23.5
					C124.3,240.4,123.6,240.8,122.6,240.8z M104.1,230.5l17.5,5.1c3.3-5.1,10.6-15,14.2-19.7l-17.2-5.5
					C112.2,215,106.4,225.7,104.1,230.5z"/>
			</g>
		</g>
	</g>
	<g>
		<path style="fill:#DDDDDD;" d="M90.9,348.5c-2.5-2.5-6.6-3.5-10.7-1.8c-6.8,2.6-10.6,7.4-9.9,14.9c0.7,7.6,5.1,16.2,14.2,13.6
			c8.9-2.6,7.1-9.9,8.8-17.2C94,354,93,350.7,90.9,348.5z"/>
		<path d="M81.1,377.9c-2.3,0-4.3-0.7-6.3-1.8c-3.8-2.6-6.4-7.9-7.1-14.2c-0.7-8.1,3.1-14,11.4-17.4c4.8-2,9.9-1.2,13.4,2.3
			c3,3,4,7.1,3,11.7c-0.3,1.7-0.7,3.3-0.8,5c-0.7,5.5-1.3,11.6-9.8,13.9C83.6,377.8,82.4,377.9,81.1,377.9z M84.3,348.2
			c-1.2,0-2.1,0.2-3.3,0.7c-6.3,2.5-8.9,6.4-8.4,12.6c0.5,4.8,2.3,9.1,5.1,10.7c1.7,1.2,3.6,1.3,6.1,0.7c5.1-1.5,5.6-4.3,6.3-10.1
			c0.2-1.8,0.5-3.5,0.8-5.5c0.7-3,0-5.6-1.7-7.3l0,0C87.9,348.9,86.2,348.2,84.3,348.2z"/>
	</g>
	<g>
		<path style="fill:#DDDDDD;" d="M101,345.4c-11.7,1.5-14,25.1-2.1,28.1c14.9,3.8,20.3-25.8,5-28.1
			C102.8,345.2,101.8,345.2,101,345.4z"/>
		<path d="M101.3,376c-1,0-2-0.2-3.1-0.3c-6.3-1.7-10.1-7.9-9.6-16.4c0.3-7.1,4.3-15.4,12.1-16.4l0,0c1.2-0.2,2.1-0.2,3.3,0
			c4.8,0.7,8.4,3.6,10.2,8.4c2.3,6.6,0.7,15.4-4,20.3C107.7,374.6,104.8,376,101.3,376z M101.3,347.7c-4.8,0.7-7.6,6.4-7.9,11.9
			c-0.3,4.5,1.2,10.2,6,11.4c2.8,0.7,5.3,0,7.4-2.3c3.5-3.8,4.8-10.7,3-15.7c-1.2-3.1-3.3-5-6.4-5.5
			C102.6,347.5,101.9,347.5,101.3,347.7L101.3,347.7z"/>
	</g>
	<g>
		<path style="fill:#DDDDDD;" d="M124.8,349.2c-5.5-0.3-11.6,1.8-13.6,5.8c-2.6,5.1-1,16.4,4.5,19.2c10.1,5.1,19.5-7.8,19.3-16.9
			C135,352,130,349.4,124.8,349.2z"/>
		<path d="M120.3,377.6c-2,0-4-0.5-5.8-1.5c-3.1-1.7-5.6-5.3-6.6-10.2c-0.8-4.5-0.5-9.1,1-12.1c2.6-5.3,10.1-7.3,15.9-7.1l0,0
			c7.6,0.3,12.6,4.5,12.6,10.4c0,6.9-4.3,14.7-10.1,18.3C125.1,377,122.6,377.6,120.3,377.6z M123.8,351.5c-4.6,0-9.1,1.8-10.4,4.6
			c-1,2-1.3,5.6-0.7,8.9c0.7,3.5,2.3,6.1,4.1,7.1c2.6,1.3,5.5,1.2,8.1-0.5c4.5-2.6,7.9-9.1,7.9-14.4c0-5.1-6.8-5.6-8.1-5.8
			C124.3,351.5,123.9,351.5,123.8,351.5z"/>
	</g>
</g>
<g>
	<g>
		<g>
			<g>
				<path style="fill:#6AD419;" d="M244.6,220.6c1.5-6.3,5.6-9.3,14.2-5.3c25.8,11.9,27.9,54.4,40.8,76.5
					c5.6,9.4,9.8,19.7,12.2,30.2c2,7.9,4.5,21.5-2.3,27.8c-7.1,6.9-18.2,7.4-27.8,7.4c-8.3,0-18.8,2.6-25.8-3.1
					c-8.4-6.9-2-21.8-0.3-30.7c0.7-4.1,0.5-8.3,1.2-12.2c0.8-5.5,2.1-9.8,1.7-15.5c-1.3-11.4-6-22-8.6-32.9
					C248.2,256.6,241.6,232.7,244.6,220.6z"/>
				<path d="M269.2,360.3c-5.1,0-10.4-0.8-14.5-4.1c-7.9-6.4-5-17.9-2.6-27.1c0.5-2.1,1-4.1,1.3-6c0.3-2,0.5-4.1,0.7-6.3
					c0.2-2,0.2-4,0.5-6c0.2-1.3,0.5-2.6,0.7-4c0.7-3.8,1.3-6.9,0.8-10.9c-0.8-7.1-3-14.2-5.1-21.2c-1.2-3.8-2.5-7.6-3.5-11.6
					l-0.3-1.5c-2.1-8.3-7.8-30.1-5-41.8l0,0c1-4,3-6.8,5.6-8.1c3.1-1.5,7.1-1.2,11.9,1.2c17.9,8.3,24.6,29.6,31.2,50.1
					c3.3,10.2,6.4,20,10.7,27.3c5.6,9.8,9.9,20.2,12.6,30.9c1.3,5.5,5.3,22.1-3,30.1c-7.4,7.1-18.5,8.1-29.3,8.1c0,0,0,0-0.2,0
					c-1.8,0-3.8,0.2-6,0.3C273.8,360.1,271.5,360.3,269.2,360.3z M246.9,221.1c-2.6,10.7,3,32.4,4.8,39.7l0.3,1.5
					c1,3.8,2.1,7.6,3.3,11.2c2.3,7.1,4.6,14.4,5.5,22c0.5,4.6-0.2,8.4-1,12.2c-0.2,1.2-0.5,2.5-0.7,3.8c-0.3,1.8-0.3,3.6-0.5,5.5
					c-0.2,2.1-0.3,4.5-0.7,6.8c-0.3,1.8-0.8,4-1.5,6.3c-2.1,8.3-4.5,17.7,1,22.3c4.6,3.8,11.4,3.3,18,2.8c2.1-0.2,4.3-0.3,6.3-0.3
					c0,0,0,0,0.2,0c9.1,0,19.5-0.5,25.9-6.8c6.3-6.1,2.8-20.8,1.7-25.6c-2.5-10.4-6.6-20.5-12.1-29.8c-4.6-7.8-7.8-17.7-11.1-28.3
					c-6.3-19.7-12.7-39.8-28.8-47.3c-2.3-1.2-5.6-2.1-7.9-1.2C248.6,217,247.6,218.6,246.9,221.1L246.9,221.1z"/>
			</g>
		</g>
		<g>
			<g>
				<path style="fill:#274DA3;" d="M259,215.3c25.8,11.9,27.9,54.4,40.8,76.5c2,3.5,3.8,6.9,5.5,10.7c-11.1,2.8-34,7.9-47.8,5.8
					c1.8-15.5-3.6-30.6-7.4-45.5c-1.7-6.3-8.3-30.1-5.3-42.1C246.1,214.3,250.2,211.2,259,215.3z"/>
				<path d="M264.7,311.2c-2.8,0-5.5-0.2-7.8-0.5c-1.3-0.2-2.1-1.3-2-2.6c1.5-12.2-1.8-24.5-5.1-36.4c-0.8-2.8-1.5-5.6-2.3-8.4
					l-0.3-1.5c-2.1-8.3-7.8-30.1-5-41.8c1-4,3-6.8,5.6-8.1c3.1-1.5,7.1-1.2,11.9,1.2l0,0c17.9,8.3,24.6,29.6,31.2,50.1
					c3.3,10.2,6.4,20,10.7,27.3c2,3.5,3.8,7.1,5.5,10.9c0.3,0.7,0.2,1.3,0,2c-0.3,0.7-0.8,1-1.5,1.2
					C295.7,307.4,278.3,311.2,264.7,311.2z M260,306.2c12.7,1.2,31.7-3,42-5.5c-1.3-2.8-2.6-5.5-4.1-7.9
					c-4.6-7.8-7.8-17.7-11.1-28.3c-6.3-19.7-12.7-39.8-28.8-47.3c-2.3-1.2-5.6-2.1-7.9-1.2c-1.5,0.7-2.5,2.3-3.1,5
					c-2.6,10.7,3,32.4,4.8,39.7l0.3,1.5c0.7,2.8,1.5,5.5,2.1,8.3C257.6,282.1,260.8,294,260,306.2z"/>
			</g>
			<g>
				<line style="fill:none;" x1="293" y1="276.8" x2="255.2" y2="282.9"/>
				<path d="M255.2,285.2c-1.2,0-2.1-0.8-2.3-2c-0.2-1.3,0.7-2.5,2-2.6l37.8-6.1c1.3-0.2,2.5,0.7,2.6,2s-0.7,2.5-2,2.6l-37.8,6.1
					C255.5,285.2,255.3,285.2,255.2,285.2z"/>
			</g>
			<g>
				<polygon style="fill:#FFC800;" points="296.8,286.4 256.8,290.8 257.6,298.4 300.9,293.7 				"/>
				<path d="M257.6,300.8c-0.5,0-1-0.2-1.5-0.5c-0.5-0.3-0.8-1-0.8-1.7l-0.8-7.6c-0.2-1.3,0.8-2.5,2.1-2.6l40-4.5
					c1-0.2,1.8,0.3,2.3,1.2l4.1,7.3c0.3,0.7,0.3,1.5,0,2.1c-0.3,0.7-1,1.2-1.8,1.3l-43.5,5H257.6z M259.5,293l0.3,3l37.4-4.1
					l-1.7-2.8L259.5,293z"/>
			</g>
			<g>
				<path style="fill:#FFC800;" d="M289.2,232c0,0,6,9.8,7.8,14.5l-22.5,5.5l-7.3-13.4L289.2,232z"/>
				<path d="M274.7,254.2c-0.8,0-1.7-0.5-2.1-1.2l-7.3-13.4c-0.3-0.7-0.3-1.3-0.2-2c0.3-0.7,0.8-1.2,1.5-1.3l22-6.4
					c1-0.3,2.1,0.2,2.6,1c0.2,0.3,6,9.9,7.9,14.9c0.3,0.7,0.2,1.3-0.2,2c-0.3,0.7-0.8,1-1.5,1.2l-22.5,5.5
					C275,254.2,274.8,254.2,274.7,254.2z M270.7,239.9l5.1,9.3l17.9-4.3c-1.7-3.5-4.3-7.8-5.6-10.1L270.7,239.9z"/>
			</g>
			<g>
				<line style="fill:none;" x1="286.7" y1="240.1" x2="279.1" y2="242.1"/>
				<path d="M279.1,244.4c-1,0-2-0.7-2.3-1.8c-0.3-1.3,0.5-2.5,1.7-2.8l7.6-2c1.3-0.3,2.5,0.5,2.8,1.7c0.3,1.3-0.5,2.5-1.7,2.8
					l-7.6,2C279.5,244.4,279.3,244.4,279.1,244.4z"/>
			</g>
			<g>
				<path d="M289.2,232c0,0-7.9-18.5-17.5-24l-21.5,6.8c0,0,14,18.2,17,23.6L289.2,232z"/>
				<path d="M267.4,240.8c-0.8,0-1.7-0.5-2.1-1.2c-3-5.3-16.7-23.1-16.9-23.5c-0.5-0.7-0.7-1.3-0.3-2.1c0.2-0.7,0.8-1.3,1.5-1.5
					l21.5-6.8c0.7-0.2,1.3-0.2,2,0.2c10.1,5.8,18.2,24.3,18.5,25.1c0.3,0.7,0.3,1.3,0,2s-0.8,1-1.5,1.3l-22,6.4
					C267.7,240.8,267.6,240.8,267.4,240.8z M254.2,216c3.6,4.8,10.9,14.5,14.2,19.7l17.5-5.1c-2.3-4.8-8.1-15.5-14.5-20L254.2,216z"
					/>
			</g>
		</g>
	</g>
	<g>
		<path style="fill:#DDDDDD;" d="M299.1,348.5c2.5-2.5,6.6-3.5,10.7-1.8c6.8,2.6,10.6,7.4,9.9,14.9c-0.7,7.6-5.1,16.2-14.2,13.6
			c-8.9-2.6-7.1-9.9-8.8-17.2C296,354,297,350.7,299.1,348.5z"/>
		<path d="M308.9,377.9c-1.2,0-2.5-0.2-3.8-0.5c-8.3-2.5-9.1-8.6-9.8-13.9c-0.2-1.7-0.3-3.3-0.8-5c-1-4.5,0-8.8,3-11.7l0,0
			c3.3-3.3,8.4-4.3,13.4-2.3c8.1,3.3,12.1,9.3,11.4,17.4c-0.7,6.3-3.3,11.6-7.1,14.2C313.2,377.3,311.2,377.9,308.9,377.9z
			 M305.7,348.2c-1.8,0-3.6,0.7-5,2l0,0c-1.8,1.8-2.3,4.5-1.7,7.3c0.5,1.8,0.7,3.6,0.8,5.5c0.7,5.8,1.3,8.6,6.3,10.1
			c2.3,0.7,4.3,0.5,6.1-0.7c2.6-1.8,4.6-6,5.1-10.7c0.5-6-2.1-9.9-8.4-12.6C307.9,348.4,306.7,348.2,305.7,348.2z M299.1,348.5
			L299.1,348.5L299.1,348.5z"/>
	</g>
	<g>
		<path style="fill:#DDDDDD;" d="M289,345.4c11.7,1.5,14,25.1,2.1,28.1c-14.9,3.8-20.3-25.8-5-28.1
			C287.2,345.2,288.2,345.2,289,345.4z"/>
		<path d="M288.7,376c-3.3,0-6.4-1.5-8.9-4.1c-4.6-5.1-6.3-13.9-4-20.3c1.7-4.8,5.3-7.8,10.2-8.4c1.2-0.2,2.3-0.2,3.3,0l0,0
			c7.6,1,11.6,9.3,12.1,16.4c0.5,8.3-3.3,14.7-9.6,16.4C290.7,376,289.7,376,288.7,376z M287.7,347.5c-0.3,0-0.7,0-1.2,0
			c-3.1,0.5-5.3,2.3-6.4,5.5c-1.8,5-0.5,11.9,3,15.7c2.1,2.3,4.6,3.1,7.4,2.3c4.8-1.2,6.3-6.9,6-11.4c-0.3-5.5-3.1-11.4-7.9-11.9
			l0,0C288.4,347.5,288.1,347.5,287.7,347.5z"/>
	</g>
	<g>
		<path style="fill:#DDDDDD;" d="M265.2,349.2c5.5-0.3,11.6,1.8,13.6,5.8c2.6,5.1,1,16.4-4.5,19.2c-10.1,5.1-19.5-7.8-19.3-16.9
			C255,352,260,349.4,265.2,349.2z"/>
		<path d="M269.7,377.6c-2.3,0-4.8-0.7-6.9-2c-5.8-3.6-10.2-11.4-10.1-18.3c0-6,5-9.9,12.6-10.4l0,0c5.8-0.2,13.1,1.8,15.9,7.1
			c1.5,3,2,7.6,1,12.1c-1,5-3.5,8.6-6.6,10.2C273.5,377.1,271.7,377.6,269.7,377.6z M265.4,351.5c-1.3,0-8.1,0.7-8.1,5.8
			c0,5.1,3.5,11.6,7.9,14.4c2.6,1.7,5.5,1.8,8.1,0.5c1.8-1,3.3-3.6,4.1-7.1c0.7-3.3,0.5-6.9-0.7-8.9
			C275.3,353.2,270.5,351.2,265.4,351.5L265.4,351.5z"/>
	</g>
</g>
<g>
	<g>
		<g>
			<path style="fill:#6AD419;" d="M191.4,194L191.4,194L191.4,194L191.4,194L191.4,194c-69.1,0-72.4,8.4-72.4,8.4
				s3.3,47.3,72.4,47.3s72.4-47.3,72.4-47.3S260.5,194,191.4,194z"/>
			<path d="M191.4,252c-70.4,0-74.7-48.9-74.7-49.4c0-0.3,0-0.7,0.2-1c1-2.3,9.1-9.9,74.5-9.9l0,0c65.6,0,73.7,7.6,74.5,9.9
				c0.2,0.3,0.2,0.7,0.2,1C266.1,203.1,261.8,252,191.4,252z M121.5,203.2c1,6.9,8.9,44,69.9,44s68.9-37,69.9-44
				c-2.3-1.5-14.7-6.9-69.9-6.9S123.9,201.8,121.5,203.2z"/>
		</g>
		<g>
			<path style="fill:#6AD419;" d="M277.1,121.6c-1.5-19-6.6-65-29.4-71.2c-12.6-3.5-36.2,0.3-39.8,13.6c-14.5-2.3-18.7-1.8-33.1,0
				c-3.5-13.2-27.3-17-39.8-13.6c-22.8,6.3-29.4,52.1-29.4,71.2c0,0-6.1,46.8,74.5,46.8S278.8,141.6,277.1,121.6z"/>
			<path d="M180.3,170.7c-31.9,0-54.5-7.1-67.1-21.3c-11.7-13.2-9.9-27.4-9.9-28.1c0-16.5,5.6-66.1,31.1-73.2c8.6-2.3,23-1.8,33.2,4
				c4.3,2.5,7.3,5.6,8.9,9.3c12.4-1.7,17-2,29.8,0c1.5-3.6,4.6-6.8,8.9-9.3c10.1-5.8,24.6-6.3,33.2-4c17,4.8,27.4,29.4,31.1,73.4
				l0,0c0.5,6.4-0.7,16.2-9.1,25.3C255.5,162.6,225.2,170.7,180.3,170.7z M145.3,51.4c-3.5,0-6.8,0.3-9.6,1.2
				c-20.7,5.8-27.6,49.7-27.6,68.9c0,0.5-1.5,13.2,8.8,24.8c11.6,13.1,32.9,19.7,63.5,19.7c54.4,0,77-12.2,86.6-22.5
				c7.4-7.9,8.4-16.2,7.9-21.8c-4.3-52.1-17.4-66.3-27.8-69.3c-7.8-2.1-20.8-1.3-29.6,3.5c-4,2.3-6.4,5.1-7.3,8.4
				c-0.3,1.2-1.5,2-2.6,1.7c-14.2-2.3-18-1.8-32.4,0c-1.2,0.2-2.3-0.7-2.6-1.7c-0.8-3.3-3.3-6.1-7.3-8.4
				C159.5,52.8,151.9,51.4,145.3,51.4z"/>
		</g>
		<g>
			<path style="fill:#6AD419;" d="M263.8,111.4c-22.3-10.9-47.8-13.9-72.4-13.9s-49.9,3-72.4,13.9c-21.7,10.6-29.4,31.4-29.1,57.5
				c0.3,19.5,14.4,35.2,30.4,37.7c13.1,2,38,4.8,71.1,4.8s58-2.8,71.1-4.8c15.9-2.5,30.1-18,30.4-37.7
				C293.2,142.8,285.4,121.8,263.8,111.4z"/>
			<path d="M191.4,213.5c-34.2,0-59.5-3-71.4-4.8c-17.9-2.6-32.1-20.2-32.4-39.8c-0.5-29.6,9.8-49.6,30.4-59.7
				c19.5-9.4,43.6-14,73.4-14s53.7,4.6,73.4,14l0,0c20.7,10.1,30.9,30.1,30.4,59.7c-0.3,19.7-14.5,37.2-32.4,39.8
				C250.9,210.5,225.7,213.5,191.4,213.5z M191.4,99.8c-29.1,0-52.4,4.5-71.2,13.6c-19.2,9.3-28.3,27.4-27.8,55.4
				c0.3,17.5,12.7,33.1,28.4,35.4c11.7,1.8,36.7,4.8,70.7,4.8s58.8-3,70.7-4.8c15.5-2.3,28.1-17.9,28.4-35.4
				c0.5-27.9-8.6-46.1-27.8-55.4C243.8,104.2,220.5,99.8,191.4,99.8z"/>
		</g>
		<g>
			<path style="fill:#6AD419;" d="M208.2,125.9c0,0,5.3-6.8,8.6-6.8"/>
			<path d="M208.2,128.2c-0.5,0-1-0.2-1.5-0.5c-1-0.8-1.2-2.3-0.3-3.3c1.5-1.8,6.3-7.6,10.4-7.6c1.3,0,2.3,1,2.3,2.3s-1,2.3-2.3,2.3
				c-1.2,0-4.5,2.8-6.8,5.8C209.7,127.9,209,128.2,208.2,128.2z"/>
		</g>
		<g>
			<path style="fill:#6AD419;" d="M174.5,125.9c0,0-5.3-6.8-8.6-6.8"/>
			<path d="M174.5,128.2c-0.7,0-1.3-0.3-1.8-0.8c-2.3-3-5.6-5.8-6.8-5.8c-1.3,0-2.3-1-2.3-2.3s1-2.3,2.3-2.3c4.1,0,9.1,5.8,10.4,7.6
				c0.8,1,0.7,2.5-0.3,3.3C175.5,128,175,128.2,174.5,128.2z"/>
		</g>
		<g>
			<path style="fill:#6AD419;" d="M132.4,78.5c0,0,23.6,4.6,31.9,11.6c0,0-20-3-30.7-0.8"/>
			<path d="M164.3,92.3c-0.2,0-0.2,0-0.3,0s-19.7-3-29.9-0.8c-1.3,0.3-2.5-0.5-2.8-1.8c-0.3-1.3,0.5-2.5,1.8-2.8
				c5.3-1.2,12.7-1,19-0.5c-9.3-3.5-20-5.5-20.2-5.6c-1.3-0.2-2.1-1.5-1.8-2.8c0.3-1.3,1.5-2.1,2.8-1.8c1,0.2,24.3,4.8,33.1,12.1
				c0.8,0.7,1,1.8,0.7,2.8C166.1,91.7,165.3,92.3,164.3,92.3z"/>
		</g>
		<g>
			<path style="fill:#6AD419;" d="M250.4,78.5c0,0-23.6,4.6-31.9,11.6c0,0,20-3,30.7-0.8"/>
			<path d="M218.5,92.3c-1,0-1.8-0.5-2.1-1.3c-0.5-1-0.2-2.1,0.7-2.8c8.8-7.3,32.1-11.9,33.1-12.1c1.3-0.3,2.5,0.7,2.8,1.8
				c0.3,1.3-0.7,2.5-1.8,2.8c-0.2,0-10.9,2.1-20.2,5.6c6.3-0.5,13.7-0.5,19,0.5c1.3,0.3,2.1,1.5,1.8,2.8c-0.3,1.3-1.5,2.1-2.8,1.8
				c-10.2-2.1-29.8,0.8-29.9,0.8C218.6,92.3,218.6,92.3,218.5,92.3z"/>
		</g>
	</g>
	<g>
		<path style="fill:#AF2A31;" d="M191.4,195.3L191.4,195.3L191.4,195.3c-30.2,0-47.4,13.6-47.4,13.6s2.1,23.8,47.4,23.8
			s47.4-23.8,47.4-23.8S222.9,195.3,191.4,195.3z"/>
		<path d="M191.4,235.1c-46.9,0-49.7-24.8-49.7-25.9c0-0.8,0.3-1.5,0.8-2c0.7-0.5,18.2-14.2,48.9-14.2l0,0
			c31.9,0,48.3,13.6,48.9,14.2c0.5,0.5,0.8,1.2,0.8,2C241.1,210.4,238.3,235.1,191.4,235.1z M146.6,210c1.2,4.6,8.1,20.3,44.8,20.3
			c36.9,0,43.6-15.9,44.8-20.5c-4-2.8-19.2-12.2-44.8-12.2C166.7,197.8,150.7,207.2,146.6,210z"/>
	</g>
	<g>
		<path style="fill:#FFFFFF;" d="M259.3,88c-3.5-3.6-12.9-3-16.4-1.5c-6.8,3-0.2,10.2,4.6,10.7c4,0.3,12.6-0.2,13.1-5.5
			C260.8,90.4,260.3,89,259.3,88z"/>
		<path d="M249.7,99.8c-1.2,0-2,0-2.5-0.2c-4.3-0.3-8.9-4.5-9.6-8.4c-0.2-1.3-0.3-4.8,4.3-6.8c4.3-1.8,14.7-2.5,19,2l0,0
			c1.5,1.5,2.1,3.5,2,5.6c-0.2,1.8-1,3.5-2.5,4.8C257.5,99.3,252.7,99.8,249.7,99.8z M250.2,87.7c-2.5,0-5,0.3-6.3,1
			c-1.7,0.7-1.5,1.5-1.5,1.8c0.3,1.8,3.1,4.3,5.3,4.5c3.5,0.3,7.8-0.2,9.6-1.7c0.5-0.5,0.8-1,0.8-1.7c0-0.8-0.2-1.5-0.7-2l0,0
			C256.2,88.4,253.2,87.7,250.2,87.7z"/>
	</g>
</g>
</svg>
