<?xml version="1.0" encoding="utf-8"?>
<!-- Generator: Adobe Illustrator 23.0.2, SVG Export Plug-In . SVG Version: 6.00 Build 0)  -->
<svg version="1.1" id="Layer_1" xmlns="http://www.w3.org/2000/svg" xmlns:xlink="http://www.w3.org/1999/xlink" x="0px" y="0px"
	 viewBox="0 0 550 120" style="enable-background:new 0 0 550 120;" xml:space="preserve">
<g>
	<path style="fill:#91746F;" d="M550,60c0,33-27,60-60,60H60C27,120,0,93,0,60l0,0C0,27,27,0,60,0h430C523,0,550,27,550,60L550,60z"
		/>
	<path style="fill:#C19C9A;" d="M490,5H60C29.7,5,5,29.7,5,60s24.7,55,55,55h430c30.3,0,55-24.7,55-55S520.3,5,490,5z"/>
	<path style="fill:#2D1D1F;" d="M490,7.5H60C31.1,7.5,7.5,31.1,7.5,60s23.6,52.5,52.5,52.5h430c28.9,0,52.5-23.6,52.5-52.5
		S518.9,7.5,490,7.5z"/>
	<path d="M490,11.5c26.7,0,48.5,21.8,48.5,48.5s-21.8,48.5-48.5,48.5H60c-26.7,0-48.5-21.8-48.5-48.5S33.3,11.5,60,11.5H490
		 M490,7.5H60C31.1,7.5,7.5,31.1,7.5,60s23.6,52.5,52.5,52.5h430c28.9,0,52.5-23.6,52.5-52.5S518.9,7.5,490,7.5L490,7.5z"/>
</g>
<g>
	<path style="fill:#A53011;" d="M490,15c12,0,23.2,4.7,31.8,13.2C530.3,36.8,535,48,535,60s-4.7,23.2-13.2,31.8S502,105,490,105H60
		c-12,0-23.2-4.7-31.8-13.2C19.7,83.2,15,72,15,60s4.7-23.2,13.2-31.8C36.8,19.7,48,15,60,15H490"/>
	<path style="fill:#FF7D00;" d="M518.9,88.9c-7.8,7.8-18.1,12.1-28.9,12.1H60c-10.9,0-21.2-4.3-28.9-12.1C23.3,81.2,19,70.9,19,60
		s4.3-21.2,12.1-28.9C38.8,23.3,49.1,19,60,19h430c10.9,0,21.2,4.3,28.9,12.1c7.8,7.7,12.1,18,12.1,28.9S526.7,81.2,518.9,88.9z"/>
	<path style="fill:#FF9100;" d="M31.1,51.1C38.8,43.3,49.1,39,60,39h430c10.9,0,21.2,4.3,28.9,12.1c5.3,5.3,9,11.9,10.8,18.9
		c0.8-3.2,1.2-6.6,1.2-10c0-10.9-4.3-21.2-12.1-28.9C511.2,23.3,500.9,19,490,19H60c-10.9,0-21.2,4.3-28.9,12.1
		C23.3,38.8,19,49.1,19,60c0,3.4,0.4,6.8,1.2,10C22,62.9,25.7,56.4,31.1,51.1z"/>
	<g>
		<path style="fill:#F55D00;" d="M518.9,83.9c-7.7,7.8-18,12.1-28.9,12.1H60c-10.9,0-21.2-4.3-28.9-12.1c-7.2-7.2-11.4-16.5-12-26.4
			C19,58.3,19,59.2,19,60c0,10.9,4.3,21.2,12.1,28.9c7.7,7.8,18,12.1,28.9,12.1h430c10.9,0,21.2-4.3,28.9-12.1
			c7.8-7.7,12.1-18,12.1-28.9c0-0.8,0-1.7-0.1-2.5C530.3,67.5,526.1,76.8,518.9,83.9z"/>
	</g>
	<g>
		<path style="fill:#FF9600;" d="M471.2,101l56.6-56.6c-2-4.9-5.1-9.4-8.9-13.3c-3.5-3.5-7.5-6.3-11.9-8.3L428.8,101H471.2z"/>
		<polygon style="fill:#FF9600;" points="385.5,101 467.5,19 425.1,19 343.1,101 		"/>
		<polygon style="fill:#FF9600;" points="299.8,101 381.8,19 339.4,19 257.4,101 		"/>
		<polygon style="fill:#FF9600;" points="214.1,101 296.1,19 253.7,19 171.7,101 		"/>
		<polygon style="fill:#FF9600;" points="128.4,101 210.4,19 168,19 86,101 		"/>
		<path style="fill:#FF9600;" d="M82.3,19L23.2,78.1c2,4,4.6,7.6,7.8,10.9c4.2,4.2,9.1,7.3,14.4,9.4L124.7,19H82.3z"/>
	</g>
	<g>
		<polygon style="fill:#FFAE00;" points="104.7,39 124.7,19 82.3,19 62.3,39 		"/>
		<polygon style="fill:#FFAE00;" points="190.4,39 210.4,19 168,19 148,39 		"/>
		<polygon style="fill:#FFAE00;" points="276.1,39 296.1,19 253.7,19 233.7,39 		"/>
		<polygon style="fill:#FFAE00;" points="361.8,39 381.8,19 339.4,19 319.4,39 		"/>
		<polygon style="fill:#FFAE00;" points="447.5,39 467.5,19 425.1,19 405.1,39 		"/>
		<path style="fill:#FFAE00;" d="M517,29.2c-0.3-0.3-0.6-0.5-0.9-0.8c-0.3-0.2-0.5-0.4-0.8-0.6c-0.2-0.2-0.5-0.4-0.7-0.6
			c-0.3-0.2-0.6-0.4-0.9-0.7c-0.2-0.1-0.4-0.3-0.6-0.4c-0.3-0.2-0.7-0.5-1-0.7c-0.2-0.1-0.3-0.2-0.5-0.3c-0.4-0.2-0.8-0.5-1.1-0.7
			c-0.1-0.1-0.3-0.2-0.4-0.2c-0.4-0.2-0.8-0.5-1.3-0.7c-0.1,0-0.2-0.1-0.3-0.1c-0.5-0.2-1-0.5-1.4-0.7l0,0L490.8,39
			c10.6,0.2,20.6,4.5,28.1,12c0.4,0.4,0.7,0.8,1.1,1.2l7.9-7.9c0-0.1-0.1-0.2-0.1-0.3c-0.2-0.5-0.4-1-0.7-1.5c0-0.1-0.1-0.1-0.1-0.1
			c-1.1-2.3-2.5-4.6-4.1-6.7c-0.1-0.1-0.1-0.2-0.2-0.3c-0.3-0.4-0.7-0.9-1-1.3c-0.2-0.2-0.4-0.5-0.6-0.7c-0.2-0.3-0.5-0.6-0.7-0.8
			c-0.5-0.5-0.9-1-1.4-1.5s-0.9-0.9-1.4-1.3C517.3,29.5,517.1,29.4,517,29.2z"/>
	</g>
	<g>
		<g>
			<path style="fill:#FF7006;" d="M33,90.8c0.4,0.3,0.8,0.7,1.2,1c0.1,0.1,0.3,0.2,0.4,0.3c0.4,0.3,0.8,0.7,1.3,1
				c0.1,0.1,0.3,0.2,0.4,0.3c0.5,0.3,0.9,0.6,1.4,1c0.1,0.1,0.2,0.1,0.3,0.2c0.5,0.3,1,0.6,1.5,0.9c0.1,0,0.2,0.1,0.2,0.1
				c0.6,0.3,1.1,0.6,1.7,0.9c0,0,0.1,0,0.1,0.1c0.6,0.3,1.2,0.6,1.8,0.9c0,0,0,0,0.1,0c0.6,0.3,1.3,0.5,1.9,0.8l0,0l3.8-3.8
				c-6.8-1.9-13-5.5-18.1-10.6c-2.3-2.3-4.4-4.9-6-7.7L23.2,78c0.9,1.9,2,3.7,3.2,5.4c0.1,0.2,0.2,0.3,0.4,0.5
				c0.2,0.3,0.4,0.6,0.6,0.9c0.2,0.2,0.4,0.5,0.5,0.7c0.2,0.2,0.4,0.5,0.6,0.7c0.2,0.3,0.5,0.6,0.7,0.8c0.2,0.2,0.3,0.4,0.5,0.5
				c0.4,0.5,0.9,0.9,1.3,1.4c0.5,0.5,1,1,1.5,1.5C32.8,90.5,32.9,90.7,33,90.8z"/>
		</g>
		<g>
			<polygon style="fill:#FF7006;" points="91,96 86,101 128.4,101 133.4,96 			"/>
		</g>
		<g>
			<polygon style="fill:#FF7006;" points="176.7,96 171.7,101 214.1,101 219.1,96 			"/>
		</g>
		<g>
			<polygon style="fill:#FF7006;" points="262.4,96 257.4,101 299.8,101 304.8,96 			"/>
		</g>
		<g>
			<polygon style="fill:#FF7006;" points="348.1,96 343.1,101 385.5,101 390.5,96 			"/>
		</g>
		<g>
			<polygon style="fill:#FF7006;" points="433.8,96 428.8,101 471.2,101 476.2,96 			"/>
		</g>
	</g>
	<g>
		<path style="fill:#FFD00B;" d="M31.1,36.1C38.8,28.3,49.1,24,60,24h430c10.9,0,21.2,4.3,28.9,12.1c7.2,7.2,11.4,16.5,12,26.4
			c0.1-0.8,0.1-1.7,0.1-2.5c0-10.9-4.3-21.2-12.1-28.9c-7.7-7.8-18-12.1-28.9-12.1H60c-10.9,0-21.2,4.3-28.9,12.1
			C23.3,38.8,19,49.1,19,60c0,0.8,0,1.7,0.1,2.5C19.7,52.5,23.9,43.2,31.1,36.1z"/>
	</g>
</g>
</svg>
