<?xml version="1.0" encoding="utf-8"?>
<!-- Generator: Adobe Illustrator 23.0.2, SVG Export Plug-In . SVG Version: 6.00 Build 0)  -->
<svg version="1.1" id="레이어_1" xmlns="http://www.w3.org/2000/svg" xmlns:xlink="http://www.w3.org/1999/xlink" x="0px"
	 y="0px" viewBox="0 0 255 342" style="enable-background:new 0 0 255 342;" xml:space="preserve">
<style type="text/css">
	.st0{fill:#FFFFFF;}
	.st1{fill:#673101;}
	.st2{fill:#00A2E7;}
	.st3{fill:#B28C2B;}
	.st4{fill:#CEA759;}
	.st5{fill:#C49A3F;}
	.st6{fill:#4D5B77;}
	.st7{fill:#445166;}
</style>
<title>자산 8</title>
<g>
	<path class="st0" d="M155.1,77.4l0.3-0.2c4.5-2.5,6.2-8.1,3.8-12.6c-1.9-3.5-1.5-8.9-1.3-10.5c0.4-1.5,1.3-3.8,2.6-4.3
		c3.1-1.1,10,1.9,13.7,4.4c4.2,2.9,9.9,1.9,12.8-2.3c0,0,0,0,0-0.1c2.9-4.2,1.9-10-2.3-12.9c-1.7-1.2-17.1-11.6-30.6-6.6
		c-4.9,1.8-11.3,6.3-14.2,17.3l-0.1,0.6c-0.2,1.3-2.3,13,3.1,23.2C145.3,77.9,150.7,79.7,155.1,77.4z"/>
	<path class="st1" d="M171.7,48.6c0.6-0.3,1.4-0.4,2.1-0.3c-0.9-0.3-1.7-1-2.1-1.8c-0.9-1.8-0.2-4.1,1.7-5c0.8-0.4,1.8-0.5,2.6-0.2
		c-0.8-0.3-1.5-0.9-1.9-1.7c-0.9-1.8-0.2-4.1,1.7-5c0.2-0.1,0.3-0.1,0.5-0.1c3,1.3,5.8,2.8,8.5,4.7c4.2,2.9,5.2,8.8,2.3,13l0,0
		c-2.9,4.2-8.6,5.3-12.8,2.4c0,0,0,0-0.1,0c-1.5-1-3-1.8-4.6-2.5C169.7,50.5,170.5,49.2,171.7,48.6z"/>
</g>
<g>
	<path class="st0" d="M102,76.7c-0.1,0-0.2-0.1-0.3-0.1c-4.7-1.9-7-7.3-5.1-12.1c1.5-3.7,0.5-9,0.1-10.6c-0.6-1.5-1.7-3.6-3.1-4
		c-3.2-0.8-9.8,3-13.1,5.9c-3.8,3.3-9.6,3-13-0.8c0,0,0,0,0-0.1c-3.3-3.9-3-9.7,0.8-13.1C69.9,40.5,84,28.4,98,31.9
		c5.1,1.2,11.9,5,16.1,15.6l0.2,0.6c0.4,1.3,3.8,12.7-0.5,23.4C112,76.1,106.7,78.4,102,76.7z"/>
	<path class="st1" d="M82.4,49.9c-0.7-0.2-1.4-0.2-2.1-0.1c0.9-0.4,1.6-1.2,1.9-2.1c0.7-1.9-0.3-4-2.2-4.7c-0.9-0.3-1.8-0.3-2.6,0.1
		c0.8-0.4,1.3-1.1,1.6-2c0.7-1.9-0.3-4.1-2.2-4.8c-0.2,0-0.4-0.1-0.5-0.1c-2.8,1.6-5.5,3.5-7.9,5.6c-3.9,3.4-4.2,9.3-0.9,13.1
		c3.3,3.8,9.1,4.3,12.9,0.9c0,0,0,0,0.1,0c1.3-1.1,2.8-2.1,4.2-3C84.6,51.5,83.7,50.4,82.4,49.9z"/>
</g>
<path class="st0" d="M182.2,94.6c-0.9-25.6-19.9-35.8-35.8-39.5c-2-0.5-8.4-1.5-9.9-1.7c-3.8-0.4-7.6-0.6-11.4-0.5
	C96,53.3,72.4,74.6,71.7,101l0,0c0,0-5.1,41.9,42.5,49.5c3.8,0.5,7.6,0.8,11.5,0.8h34.1c16.9,0,31.6-16.1,31.6-33l0,0
	C191.4,108.4,189.4,100.2,182.2,94.6z"/>
<path class="st2" d="M127,49.6C72.7,49.5,70.4,93,70.4,93v115.6c0,20.9,25.3,37.8,56.5,37.8s56.5-16.9,56.5-37.8V93.4
	C184.7,48,127,49.6,127,49.6z"/>
<g>
	<rect x="52.2" y="160.7" class="st3" width="150.6" height="98.8"/>
	<rect x="52.2" y="160.7" class="st4" width="150.6" height="32.9"/>
	<rect x="52.2" y="193.7" class="st5" width="150.6" height="32.9"/>
</g>
<g>
	<path class="st6" d="M41.6,181.9h5.9c2.6,0,4.7,2.1,4.7,4.7v121.5c0,2.6-2.1,4.7-4.7,4.7h-5.9c-2.6,0-4.7-2.1-4.7-4.7V186.6
		C36.9,184,39,181.9,41.6,181.9z"/>
	<rect x="30.4" y="232.2" class="st7" width="6.5" height="30.3"/>
</g>
<g>
	<path class="st6" d="M207.5,182h5.9c2.6,0,4.7,2.1,4.7,4.7v121.5c0,2.6-2.1,4.7-4.7,4.7h-5.9c-2.6,0-4.7-2.1-4.7-4.7V186.7
		C202.8,184.1,204.9,182,207.5,182z"/>
	<rect x="218.1" y="232.2" class="st7" width="6.5" height="30.3"/>
</g>
</svg>
