<?xml version="1.0" encoding="utf-8"?>
<!-- Generator: Adobe Illustrator 26.0.3, SVG Export Plug-In . SVG Version: 6.00 Build 0)  -->
<svg version="1.1" id="레이어_1" xmlns="http://www.w3.org/2000/svg" xmlns:xlink="http://www.w3.org/1999/xlink" x="0px"
	 y="0px" viewBox="0 0 192 198" style="enable-background:new 0 0 192 198;" xml:space="preserve">
<style type="text/css">
	.st0{fill:#404040;}
	.st1{fill:#5E6578;}
	.st2{fill-rule:evenodd;clip-rule:evenodd;fill:#454545;}
	.st3{fill-rule:evenodd;clip-rule:evenodd;fill:#1C1C1C;}
	.st4{fill-rule:evenodd;clip-rule:evenodd;fill:#BFA895;}
	.st5{fill:#A1745F;}
	.st6{fill-rule:evenodd;clip-rule:evenodd;}
	.st7{fill:#F0B643;}
	.st8{fill:#179622;}
	.st9{fill:#0D5E15;}
	.st10{fill:#E3FFBA;}
	.st11{fill:#09400E;}
	.st12{fill-rule:evenodd;clip-rule:evenodd;fill:#613919;}
</style>
<g>
	<g>
		<g id="XMLID_125_">
			<g>
				<g>
					<path class="st0" d="M169.8,100.9l4.1,12.7L164,116C167.3,111.9,169.3,106.6,169.8,100.9z"/>
				</g>
				<g>
					<path class="st0" d="M162,76.7l7.8,24.2c-0.5,5.7-2.5,11-5.8,15.1l-9.8,2.3c-8.7-2.3-16.5-9.3-20.3-19.2s-2.5-20.3,2.4-27.7
						l10.3-4.4C152.4,68.4,157.8,71.8,162,76.7z"/>
				</g>
				<g>
					<path class="st0" d="M157.4,62.5l4.6,14.2c-4.2-4.9-9.6-8.3-15.4-9.6L157.4,62.5z"/>
				</g>
				<g>
					<path class="st1" d="M154.2,118.4l-17.9,4.3c-7.2-3.1-13.4-9.4-16.6-17.9c-3.6-9.6-2.6-19.6,2-27l14.6-6.2
						c-4.9,7.5-6.2,17.9-2.4,27.7C137.6,109.1,145.5,116.1,154.2,118.4z"/>
				</g>
				<g>
					<path class="st0" d="M136.3,122.7l-32.9,7.8L93.3,89.7l28.3-12c-4.6,7.4-5.6,17.4-2,27C122.9,113.2,129.1,119.6,136.3,122.7z"
						/>
				</g>
			</g>
			<g>
				<g>
					<path d="M102.5,132L91.8,89l66.3-28.1l17.3,53.7L102.5,132z M94.7,90.4l9.6,38.6l68-16.3l-15.7-48.6L94.7,90.4z"/>
				</g>
			</g>
		</g>
		<g>
			<g>
				
					<ellipse transform="matrix(0.9348 -0.3551 0.3551 0.9348 -20.1026 65.2784)" class="st2" cx="167.8" cy="87.4" rx="23.5" ry="27"/>
			</g>
			<g>
				<path d="M170.1,115.2c-10.5,0-20.9-7.4-25.3-19c-2.7-7-2.8-14.5-0.4-21.1c2.5-6.7,7.2-11.6,13.4-14c12.7-4.8,27.6,3.1,33.1,17.6
					l0,0c2.7,7,2.8,14.5,0.4,21.1c-2.5,6.7-7.2,11.6-13.4,14C175.3,114.8,172.7,115.2,170.1,115.2z M165.6,62.1
					c-2.3,0-4.7,0.4-6.9,1.3c-5.5,2.1-9.8,6.6-12,12.6c-2.2,6.1-2.1,13,0.3,19.4c5,13.3,18.5,20.5,30,16.2c5.5-2.1,9.8-6.6,12-12.6
					c2.2-6.1,2.1-13-0.3-19.4C184.6,68.9,175.1,62.1,165.6,62.1z"/>
			</g>
		</g>
		<g>
			<g>
				
					<ellipse transform="matrix(0.9348 -0.3551 0.3551 0.9348 -20.1026 65.2784)" class="st3" cx="167.8" cy="87.4" rx="17.7" ry="20.3"/>
			</g>
			<g>
				<path d="M169.5,108.7c-3,0-6-0.8-8.8-2.3c-4.7-2.5-8.5-6.9-10.5-12.2S148,83.1,149.9,78s5.5-8.9,10.3-10.7
					c4.7-1.8,10-1.4,14.8,1.2c4.7,2.5,8.5,6.9,10.5,12.2s2.1,11.1,0.3,16.1c-1.9,5.1-5.5,8.9-10.3,10.7
					C173.5,108.3,171.5,108.7,169.5,108.7z M166.2,68.6c-1.8,0-3.5,0.3-5.1,0.9c-4.1,1.5-7.2,4.9-8.9,9.3c-1.7,4.5-1.6,9.6,0.3,14.4
					c1.8,4.8,5.2,8.7,9.4,11c4.2,2.2,8.7,2.6,12.8,1.1s7.2-4.9,8.9-9.3c1.7-4.5,1.6-9.6-0.3-14.4c-1.8-4.8-5.2-8.7-9.4-11
					C171.4,69.3,168.7,68.6,166.2,68.6z"/>
			</g>
		</g>
		<g>
			<g>
				<path d="M153.9,119.6c-0.5-0.1-12.7-3.1-19-14.8c-4.8-8.9-4.7-20.2,0.2-33.7l2.3,0.8c-4.7,12.8-4.8,23.5-0.4,31.7
					c5.7,10.7,17.3,13.6,17.4,13.6L153.9,119.6z"/>
			</g>
		</g>
		<g>
			<g>
				<path d="M135.5,124.1c-0.4-0.1-10.4-3.2-16.2-14c-4.9-9.2-5.2-21-0.9-35.1l2.3,0.7c-4.1,13.5-3.9,24.6,0.7,33.2
					c5.3,9.9,14.6,12.8,14.7,12.8L135.5,124.1z"/>
			</g>
		</g>
	</g>
	<g>
		<g>
			<path class="st4" d="M67.5,145.5c-0.5-2.8-0.1-6.4,2.6-7.2c2.8-0.8,5.1,2.2,6.3,4.8c4.2,9.2,6.7,19,9.2,28.8
				c6.2,0.4,15.8,3.9,14.6,13.5c-1,8-11.2,6.7-15.4,6c-3.3-0.6-7-1.5-8.8-4.4c-2.2-3.7,0-7.9-0.3-11.9c-0.2-3.4-0.4-6.5-1.3-9.8
				C72.3,158.5,68.7,152.4,67.5,145.5z"/>
		</g>
		<g>
			<path d="M90.4,193.1c-1.8,0-3.7-0.2-6-0.6c-3.9-0.7-7.7-1.7-9.6-4.9c-1.7-2.8-1.2-5.7-0.8-8.4c0.2-1.4,0.4-2.8,0.3-4.1l-0.1-1.1
				c-0.2-2.9-0.4-5.7-1.2-8.5c-0.8-2.7-1.9-5.4-2.9-8c-1.5-3.8-3.1-7.7-3.8-11.8c-0.7-3.6,0.1-7.6,3.4-8.6c2.9-0.9,5.8,1.2,7.7,5.5
				c4.2,9,6.7,18.7,9.1,28.2c4.2,0.4,9.4,2.1,12.4,5.8c2,2.5,2.9,5.5,2.4,9c-0.3,2.4-1.3,4.2-3.1,5.5
				C96.3,192.4,93.7,193.1,90.4,193.1z M70.9,139.3c-0.2,0-0.4,0-0.6,0.1c-1.8,0.5-2.2,3.4-1.7,5.9l0,0c0.7,3.9,2.2,7.7,3.7,11.4
				c1.1,2.7,2.2,5.4,3,8.3c0.9,3.1,1.1,6,1.3,9l0.1,1c0.1,1.6-0.1,3.1-0.3,4.6c-0.4,2.4-0.7,4.7,0.5,6.8c1.4,2.4,4.7,3.2,7.9,3.8
				c5.6,1,9.6,0.6,11.9-1.1c1.2-0.9,1.9-2.2,2.1-3.9c0.4-2.8-0.3-5.2-1.9-7.1c-2.7-3.3-7.8-4.8-11.5-5l-0.9-0.1l-0.2-0.9
				c-2.4-9.6-4.9-19.5-9.1-28.6C74.3,141.5,72.7,139.3,70.9,139.3z"/>
		</g>
	</g>
	<g>
		<g>
			<path class="st4" d="M44.7,150.5c0.1-0.9,0.4-1.7,0.9-2.5c1.1-1.8,3.8-2.7,5.3-1.3c0.7,0.7,1,1.7,1.3,2.7
				c0.5,2.2,3.9,26.5,3.9,26.5c6.2,0.4,14.7,4.2,14.6,13.5c-0.1,8.1-11.2,6.7-15.4,6c-3.3-0.6-7-1.5-8.8-4.4
				c-2.2-3.7,0-7.9-0.3-11.9c0-8.3-1-16.8-1.4-25.1C44.6,152.9,44.5,151.6,44.7,150.5z"/>
		</g>
		<g>
			<path d="M61.1,197.1c-1.8,0-3.9-0.2-6.2-0.6c-3.9-0.7-7.7-1.7-9.6-4.9c-1.7-2.8-1.2-5.7-0.8-8.4c0.2-1.4,0.4-2.8,0.3-4.1
				c0-5-0.4-10.2-0.7-15.1c-0.2-3.3-0.5-6.7-0.6-10c-0.1-1.3-0.1-2.5,0.1-3.8c0.2-1.2,0.5-2.1,1-3c0.8-1.3,2.3-2.3,3.9-2.5
				c1.3-0.2,2.4,0.2,3.3,1c1,1,1.4,2.3,1.6,3.3c0.5,2,3.1,21,3.8,25.6c7.4,0.8,14.8,5.6,14.7,14.6c0,2.3-0.9,4.2-2.5,5.5
				C67.5,196.4,64.7,197.1,61.1,197.1z M49,147.2c-0.1,0-0.2,0-0.3,0c-0.8,0.1-1.7,0.7-2.1,1.4c-0.3,0.6-0.6,1.2-0.7,2.1l0,0
				c-0.1,1-0.1,2.1-0.1,3.3c0.1,3.3,0.4,6.7,0.6,9.9c0.4,5,0.7,10.2,0.7,15.2c0.1,1.5-0.1,3-0.4,4.5c-0.4,2.4-0.7,4.7,0.5,6.8
				c1.4,2.4,4.7,3.2,7.9,3.8c5.9,1,10.3,0.6,12.4-1.1c1-0.9,1.6-2.1,1.6-3.7c0.1-9-8.4-11.9-13.4-12.3l-1-0.1l-0.1-1
				c-0.9-6.7-3.4-24.6-3.8-26.3c-0.2-0.9-0.4-1.7-0.9-2.1C49.7,147.3,49.3,147.2,49,147.2z"/>
		</g>
	</g>
	<g>
		<g>
			<path class="st5" d="M48.3,71.5c0,0-47.7-1.3-46,42.2c0.9,23.1,30.5,47,75.8,42.6c45.6-4.5,54.5-34.9,57.1-64.3
				c1.2-13.2-3.1-83.4-47.7-81.7C43.9,12.1,48.3,71.5,48.3,71.5z"/>
		</g>
		<g>
			<path d="M67.4,158.1c-20.7,0-39.2-6-51.8-17.1c-9-7.8-14.2-17.5-14.5-27.2c-0.5-12.5,3-22.6,10.3-30c12-12.2,30.5-13.4,35.6-13.5
				c-0.3-6.3-0.5-33.1,13.9-49.2c6.7-7.5,15.6-11.5,26.6-11.9c11.1-0.4,20.6,3.5,28.3,11.6c10.4,10.9,15.5,27.6,17.9,39.7
				c2.8,13.9,3.1,26.6,2.7,31.7c-2.6,29.8-11.6,60.8-58.2,65.4C74.6,157.9,71,158.1,67.4,158.1z M47.9,72.7
				c-2.7,0-22.7,0.4-34.8,12.7c-6.9,7-10.1,16.5-9.6,28.3c0.3,9,5.2,18.1,13.7,25.5c14.4,12.5,36.5,18.3,60.8,16
				c44.8-4.4,53.4-34.4,56-63.2c1-11.4-1.9-50.6-19.9-69.6c-7.2-7.6-16.2-11.2-26.5-10.8C77.3,12,68.9,15.7,62.7,22.7
				C47.4,39.8,49.4,71.1,49.5,71.4l0.1,1.3h-1.3C48.2,72.7,48.1,72.7,47.9,72.7z"/>
		</g>
	</g>
	<g>
		<g>
			<g>
				<g>
					<g>
						<g>
							<path class="st6" d="M95.6,47.3L95.6,47.3c-2.3,0.1-4.3-1.6-4.4-3.8V43c-0.1-2.2,1.7-4,4.1-4.1s4.3,1.6,4.4,3.8v0.5
								C99.7,45.4,97.9,47.2,95.6,47.3"/>
						</g>
					</g>
				</g>
			</g>
		</g>
	</g>
	<g>
		<g>
			<g>
				<path class="st6" d="M114.2,46.6L114.2,46.6c-2.3,0.1-4.3-1.6-4.4-3.8v-0.5c-0.1-2.2,1.7-4,4.1-4.1c2.3-0.1,4.3,1.6,4.4,3.8v0.5
					C118.4,44.7,116.6,46.5,114.2,46.6"/>
			</g>
		</g>
	</g>
	<g>
		<g>
			<path class="st7" d="M155.2,48.6l-43.3-3c-2.1-0.4-4.3-0.4-6.4,0.2c-2.9,0.9-6,3-5.4,7.9c0.6,4.4,2.8,6.6,4.9,7.6
				c1.6,0.8,3.5,1,5.3,0.8l44.8-6.1C159,56.2,159.8,48.6,155.2,48.6z"/>
		</g>
		<g>
			<path d="M108.8,63.5c-1.6,0-3.1-0.3-4.4-1c-2.1-1.1-4.8-3.4-5.5-8.5c-0.6-4.6,1.6-7.9,6.2-9.3c2.1-0.6,4.4-0.7,6.9-0.3l43.1,3
				c1.7,0,2.7,0.8,3.3,1.5c0.7,0.8,1,1.9,1,3.2c0,2.6-1.7,5.3-4.4,5.3l-44.6,6C109.9,63.5,109.4,63.5,108.8,63.5z M109,46.6
				c-1.1,0-2.2,0.2-3.2,0.5c-3.5,1.1-5,3.2-4.5,6.6c0.4,3.3,1.9,5.5,4.2,6.7c1.3,0.7,2.9,0.9,4.6,0.6l44.9-6c1.4,0,2.2-1.5,2.2-2.9
				c0-0.7-0.2-2.3-1.9-2.3h-0.1l-43.3-3C110.8,46.7,109.9,46.6,109,46.6z"/>
		</g>
	</g>
	<g id="XMLID_124_">
		<g>
			<path class="st8" d="M132.9,35.4c-0.1-0.2-6.3-22.8-28.8-30.1l-0.2-0.1l-1,0.3c-1,0.2-2,0.1-3,0c-0.8-0.1-1.6-0.2-2.5-0.2
				c-1.3,0.1-2.5,0.5-3.7,1c-1.3,0.5-2.5,0.9-3.8,0.9l-0.1,1c1.7,0.3,4.8,0.7,5.3,0.7c0.8,0,1.4,0.2,2.1,0.4c1,0.3,2.1,0.6,3.6,0.1
				c1.4-0.5,1.7-0.5,2.9,0.2c0.7,0.4,1.4,0.5,2,0.6c0.2,0,0.4,0.1,0.6,0.1c2.3,0.6,4.7,2.2,5.8,3.9c0.1,0.1,0.2,0.3,0.3,0.4
				c0.2,0.3,0.4,0.7,0.7,0.9c0.7,0.7,1.5,0.8,2.3,0.9c0.2,0,0.4,0.1,0.6,0.1c1.5,0.4,2.8,1.6,3.4,3c0.1,0.2,0.1,0.5,0.2,0.7
				c0.2,0.6,0.4,1.3,0.8,1.8c0.3,0.4,0.7,0.7,1.1,1c0.2,0.2,0.5,0.3,0.7,0.5c0.6,0.6,1,1.6,1.3,2.5c0.1,0.2,0.1,0.4,0.2,0.7
				c0.7,1.9,1.9,3.6,3,5.3c0.3,0.5,0.7,1,1,1.5c0.8,1.3,1.7,2.9,2,4.5l0.2,0.9l0.7-0.7c0.7-0.7,1.5-1.5,2.3-2.4l0.2-0.2L132.9,35.4z
				"/>
			<g>
				<path class="st9" d="M130,37.9c-0.4,0.4-0.8,0.8-1.2,1.1c-4.2-11.1-13-21.2-13-21.2c-1.8-1.4-5-1.9-8.7-1.9
					c-0.6-0.2-1.1-0.4-1.7-0.4c-0.7,0-1.4,0-1.9-0.4c-0.3-0.2-0.5-0.6-0.7-0.9c-0.6-0.7-1.5-0.8-2.4-1c-1.8-0.4-3-1.5-4.6-2.4
					c-1.2-0.7-2.7-0.4-4.1-0.6c-0.9-0.1-2.1-0.6-2.7-1.5c-0.3-0.4-0.4-0.9-0.3-1.5c0,0.1,0.3,0.2,0.7,0.3v0.1c0.2,0,0.4,0,0.6,0
					c1.7,0.3,4.8,0.7,5.2,0.7c2,0.1,3.3,1.2,5.5,0.5c1.5-0.5,2-0.5,3.3,0.2c0.8,0.5,1.5,0.4,2.5,0.7c2.2,0.6,4.8,2.1,6.1,4.1
					c0.3,0.4,0.5,0.9,0.9,1.2c0.7,0.6,1.8,0.6,2.7,0.9c1.7,0.4,3.1,1.7,3.7,3.3c0.3,0.8,0.5,1.8,1,2.4s1.2,0.9,1.7,1.4
					c0.9,0.9,1.2,2.2,1.6,3.4c0.8,2.5,2.5,4.5,3.9,6.7C128.8,34.6,129.7,36.2,130,37.9z"/>
			</g>
			<g>
				<path class="st8" d="M105.4,15.4c0.6,0,1.2,0.2,1.7,0.4c-5.1,0.1-11.4,1.3-16.6,2.5l0,0v-0.1c-0.2-0.9,0.5-1.8,0.8-2.7
					c0.3-1-0.1-2.3-1-3c-0.4-0.3-0.8-0.5-1.1-0.9c-0.4-0.6-0.3-1.4-0.3-2.1c0-0.3-0.1-0.5-0.2-0.7l0.2-0.1c0.6,0.8,1.8,1.4,2.7,1.5
					c1.4,0.2,2.9-0.2,4.1,0.6c1.6,0.9,2.8,2,4.6,2.4c0.9,0.2,1.8,0.4,2.4,1c0.3,0.3,0.4,0.7,0.7,0.9C104,15.4,104.8,15.4,105.4,15.4
					z"/>
			</g>
			<g>
				<path class="st9" d="M103.8,5.6c-0.3,0.1-0.6,0.2-0.9,0.3c-1.8,0.4-3.7-0.3-5.6-0.2c-2.6,0.2-4.9,1.9-7.5,1.9
					c-0.2,0-0.4-0.1-0.6-0.1c0-1.1,0.6-2.1,1.6-2.6C91.4,4.6,92,4.4,92.3,4c0.2-0.2,0.3-0.4,0.3-0.6C96.8,3.7,100.5,4.5,103.8,5.6z"
					/>
			</g>
			<g>
				<path class="st8" d="M88.6,7.2c-0.2,0.6,0,1.1,0.3,1.5l-0.2,0.1c-0.5-0.9-1.7-0.9-2.1,0.1h-0.1c0.2-0.4,0.2-0.9,0-1.3
					c-0.2-0.2-0.6-0.3-1.1-0.2c0.2-0.1,0.4-0.2,0.5-0.3c0.7-0.7,0.2-2-0.7-2.4c-0.9-0.4-1.9-0.3-2.8-0.2c-0.2-0.4-0.5-0.6-0.8-0.8
					c4-0.4,7.6-0.5,11-0.2c-0.1,0.2-0.2,0.4-0.3,0.6c-0.4,0.4-1,0.6-1.5,0.8c-0.9,0.5-1.5,1.5-1.6,2.6C88.9,7.3,88.6,7.3,88.6,7.2z"
					/>
			</g>
			<g>
				<path class="st9" d="M90.3,12.5c0.8,0.7,1.2,1.9,1,3c-0.2,0.9-1,1.8-0.8,2.7v0.1c-2.4,0.6-4.6,1.1-6.3,1.6
					c-0.1-1.4,1.2-3.1,0.4-4.3c-0.2-0.4-0.6-0.6-0.8-1.1c-0.2-0.7,0.4-1.4,1-1.8c0.6-0.4,1.4-0.8,1.7-1.5c0.2-0.6,0-1.2,0-1.9
					c0-0.2,0-0.4,0.1-0.6c0.3-1,1.6-1,2.1-0.1c0.1,0.2,0.2,0.4,0.2,0.7c0,0.7-0.1,1.5,0.3,2.1C89.5,12,89.9,12.2,90.3,12.5z"/>
			</g>
			<g>
				<path class="st8" d="M89.9,7.6c-0.2,0-0.4,0-0.6,0V7.5C89.5,7.5,89.7,7.5,89.9,7.6z"/>
			</g>
			<g>
				<path class="st9" d="M86.5,7.6c0.2,0.4,0.2,0.9,0,1.3V9c-0.5,1.1-1.4,2.1-2.5,2.6c-1,0.4-2,0.5-3.1,0.8c-1,0.3-2.1,0.8-2.4,1.8
					c-0.2,0.5-0.2,1.2-0.5,1.7c-0.8,1.4-3.4,0.7-4.4,2c0.5,0.6,0.3,1.6-0.2,2.2s-1.3,1-1.9,1.4c-1,0.6-1.8,1.3-2.6,2.1
					c-0.2,0.3-0.5,0.6-0.6,0.9c-0.2,0.6,0.1,1.3,0,1.9c-0.1,1-0.9,1.8-1.7,2.3c-0.8,0.5-1.8,0.9-2.5,1.5c-0.7,0.7-1.2,1.8-0.7,2.6
					c0.3,0.5,0.9,0.9,0.9,1.5c0,0.3-0.1,0.6-0.3,0.8c-0.8,1.1-2.5,1.4-3.1,2.6c-0.3,0.5-0.3,1.1-0.4,1.6c-0.4,2.6-2.1,4.7-3.4,7
					c-1.9-0.6-3.7-1.4-5.1-2.2c0.2-0.3,0.4-0.6,0.6-0.9c1-1.3,2.1-2.4,2.8-3.9c0.7-1.4,0.9-3.3-0.1-4.5c1.5-0.3,2.8-1.7,2.8-3.3
					c0-0.6-0.1-1.2,0-1.8c0.3-1.8,2.4-2.8,3.1-4.5c0.4-0.9,0.3-1.9,0.5-2.9c0.6-3.1,3.6-5.2,6.4-6.6c0.6-0.3,1.3-0.6,1.8-1.1
					c0.4-0.4,0.6-0.8,1-1.2c1.2-1.2,3.3-1.2,4.7-2.3c-0.6-0.8-0.4-2,0.4-2.6C76.6,8,77.4,8,78.1,7.9c1.7-0.1,3.5-0.2,5.2-0.3
					c0.3,0,1-0.2,1.6-0.4c0.1,0,0.3,0,0.4,0l0,0C86,7.3,86.4,7.3,86.5,7.6z"/>
			</g>
			<g>
				<g>
					<path class="st8" d="M70.2,48.6c-4.8,0-9.2-0.7-13.1-2l-0.2-0.1l0.1-0.2c0.2-0.4,0.5-0.8,0.8-1.2c1.2-1.9,2.3-3.6,2.6-5.7
						c0-0.1,0-0.3,0.1-0.4c0.1-0.4,0.1-0.9,0.4-1.3c0.4-0.7,1.1-1.2,1.8-1.6c0.5-0.3,1-0.6,1.3-1c0.1-0.1,0.3-0.4,0.3-0.6
						c0-0.4-0.2-0.7-0.5-1c-0.1-0.2-0.3-0.3-0.4-0.5c-0.5-0.9-0.1-2.2,0.7-2.9c0.5-0.5,1.1-0.8,1.6-1c0.3-0.1,0.6-0.3,0.9-0.5
						c0.4-0.3,1.5-1,1.6-2.2c0-0.2,0-0.4,0-0.6c0-0.5-0.1-0.9,0.1-1.4c0.1-0.4,0.4-0.8,0.6-1c1-1,1.7-1.6,2.6-2.1
						c0.7-0.4,1.4-0.8,1.8-1.4c0.4-0.5,0.6-1.4,0.2-1.9L73.4,18l0.1-0.1c0.5-0.7,1.4-0.9,2.3-1c0.9-0.2,1.7-0.3,2.1-1
						c0.2-0.3,0.2-0.6,0.3-1c0-0.2,0.1-0.5,0.2-0.7c0.4-0.9,1.2-1.5,2.5-1.9c0.4-0.1,0.8-0.2,1.3-0.3c0.6-0.1,1.2-0.3,1.8-0.5
						c1.1-0.5,2-1.4,2.4-2.4c-0.1-0.1,0-0.2,0-0.3l0.4,0v0.6c0,0.2,0,0.4,0,0.6c0,0.5,0.1,0.9-0.1,1.4c-0.3,0.8-1.1,1.2-1.8,1.6
						c-0.3,0.2-1.2,0.9-0.9,1.5c0.1,0.2,0.2,0.4,0.4,0.6c0.2,0.2,0.3,0.3,0.4,0.5c0.5,0.8,0.2,1.7-0.1,2.6c-0.2,0.6-0.4,1.2-0.3,1.8
						l0,0.2l-0.2,0c-2.4,0.7-4.2,1.2-4.6,1.4l-9.4,27H70.2z"/>
					<path class="st8" d="M86.6,8.8c0,0.1,0,0.2,0,0.3C86.5,8.9,86.6,8.9,86.6,8.8 M86.6,9.1c0,0.1,0,0.2,0,0.3c0,0.6,0.2,1.3,0,1.9
						c-0.3,0.7-1,1.1-1.7,1.5c-0.6,0.4-1.3,1.1-1,1.8c0.1,0.4,0.6,0.7,0.8,1.1c0.8,1.3-0.6,2.9-0.4,4.3c-2.8,0.8-4.7,1.4-4.7,1.4
						l-9.4,27c-5.2,0-9.5-0.8-13-2c1.4-2.3,3-4.4,3.4-7c0.1-0.6,0.1-1.1,0.4-1.6c0.6-1.2,2.2-1.6,3.1-2.6c0.2-0.2,0.4-0.5,0.3-0.8
						c0-0.6-0.6-1-0.9-1.5c-0.5-0.8,0-2,0.7-2.6c0.7-0.7,1.7-1,2.5-1.5c0.8-0.5,1.6-1.3,1.7-2.3c0-0.6-0.2-1.3,0-1.9
						c0.1-0.4,0.4-0.7,0.6-0.9c0.8-0.8,1.6-1.5,2.6-2.1c0.7-0.4,1.4-0.8,1.9-1.4c0.5-0.6,0.7-1.6,0.2-2.2c1-1.3,3.6-0.6,4.4-2
						c0.3-0.5,0.3-1.1,0.5-1.7c0.4-1,1.4-1.5,2.4-1.8c1-0.3,2.1-0.4,3.1-0.8C85.2,11.2,86.2,10.3,86.6,9.1 M87,6.6l-0.7,2.2h-0.1
						c0-0.1,0-0.1,0-0.1c-0.1,0.1-0.1,0.3,0,0.4c-0.4,0.9-1.2,1.7-2.2,2.2c-0.5,0.2-1.2,0.3-1.8,0.5c-0.4,0.1-0.9,0.2-1.3,0.3
						c-1.4,0.4-2.3,1.1-2.7,2c-0.1,0.3-0.1,0.5-0.2,0.8c-0.1,0.3-0.1,0.6-0.3,0.9c-0.3,0.6-1.1,0.7-1.9,0.9
						c-0.9,0.2-1.9,0.3-2.4,1.1L73.2,18l0.2,0.2c0.4,0.4,0.2,1.2-0.2,1.7c-0.5,0.5-1.1,0.9-1.8,1.3c-0.9,0.5-1.7,1.2-2.7,2.2
						c-0.2,0.2-0.6,0.6-0.7,1.1c-0.2,0.5-0.1,1-0.1,1.4c0,0.2,0,0.4,0,0.6c-0.1,1-1.1,1.7-1.5,2c-0.3,0.2-0.6,0.3-0.9,0.5
						c-0.6,0.3-1.2,0.6-1.7,1.1c-0.8,0.7-1.4,2.1-0.8,3.1c0.1,0.2,0.3,0.4,0.4,0.5c0.2,0.3,0.4,0.5,0.4,0.8v0.1l0,0.1
						c0,0.1-0.1,0.2-0.2,0.4c-0.4,0.4-0.8,0.7-1.3,1c-0.7,0.5-1.5,0.9-1.9,1.7c-0.3,0.4-0.3,0.9-0.4,1.3c0,0.1,0,0.2-0.1,0.4
						c-0.3,2.1-1.4,3.8-2.6,5.6c-0.3,0.4-0.5,0.8-0.8,1.2l-0.3,0.4l0.5,0.2c3.9,1.3,8.3,2,13.1,2h0.3l0.1-0.3l9.3-26.8
						c0.5-0.2,2.2-0.7,4.5-1.3l0.3-0.1l0-0.3c-0.1-0.5,0.1-1.1,0.3-1.7c0.3-0.9,0.6-1.9,0-2.8c-0.1-0.2-0.3-0.4-0.4-0.6
						c-0.1-0.2-0.3-0.3-0.3-0.4l0,0l0,0c-0.2-0.4,0.3-1,0.9-1.3c0.7-0.4,1.5-0.9,1.8-1.7c0.2-0.5,0.1-1,0.1-1.5c0-0.2,0-0.4,0-0.6
						V9.1V6.6L87,6.6z"/>
				</g>
			</g>
			<g>
				<path class="st9" d="M85.3,4.7c0.9,0.5,1.4,1.7,0.7,2.4c-0.2,0.2-0.3,0.3-0.5,0.3l0,0c-0.1,0-0.2,0-0.4,0c-0.9,0-2-0.8-3-1
					c-0.5-0.1-1.1-0.1-1.7-0.1C76.1,6.6,71.8,8,68,10.1c-0.7,0.4-1.5,0.9-2.3,1.1c-0.8,0.3-1.6,0.3-2.4,0.5
					c-2.2,0.6-3.9,2.4-5.2,4.3c-0.6,0.8-1.2,1.7-2,2.3c-0.6,0.4-1.3,0.7-2,1.1c-0.7,0.3-2.2,1.2-3.5,1.6C60.8,6.9,78.5,4.1,78.5,4.1
					c1.1-0.2,2.1-0.3,3.2-0.4c0.3,0.2,0.6,0.5,0.8,0.8C83.4,4.4,84.5,4.2,85.3,4.7z"/>
			</g>
			<g>
				<path class="st9" d="M85.5,7.4c-0.1,0-0.2,0.1-0.4,0C85.2,7.4,85.3,7.4,85.5,7.4z"/>
			</g>
			<path class="st8" d="M85,6.9C84.6,7,84,6.7,83.4,6.4c-0.3-0.2-0.6-0.3-1-0.4c-0.6-0.1-1.2-0.1-1.8-0.1C76.2,6.2,72,7.5,68.1,9.8
				l-0.6,0.3c-0.6,0.3-1.1,0.6-1.6,0.8c-0.4,0.1-0.8,0.2-1.2,0.2c-0.4,0.1-0.8,0.2-1.2,0.3C61.1,12,59.4,14,58,15.8l-0.3,0.4
				c-0.5,0.7-1,1.4-1.6,1.8c-0.5,0.5-1.2,0.7-1.9,1.1c-0.5,0.3-2,1.1-3.4,1.6l-0.2,0.1l-0.1,0.1C47,25.9,44.8,31.5,44,37.9l0,0.2
				l0.1,0.2c0.1,0.1,2.4,3.5,7.9,6.5l0.4,0.2l0.8-1.3c0.3-0.5,0.7-0.9,1-1.4c0.6-0.8,1.3-1.7,1.8-2.6c0.7-1.3,0.9-3.1,0.2-4.4
				c1.4-0.6,2.4-2,2.5-3.6c0-0.2,0-0.4,0-0.6c0-0.4,0-0.7,0-1.1c0.1-0.9,0.8-1.6,1.5-2.3c0.6-0.6,1.2-1.3,1.6-2.1
				c0.3-0.6,0.3-1.3,0.4-2c0-0.3,0.1-0.7,0.1-1.1c0.5-3,3.5-4.9,6.1-6.2c0.8-0.3,1.4-0.7,2-1.3c0.3-0.4,0.6-0.8,0.9-1.1
				c0.6-0.5,1.4-0.8,2.3-1.1c0.8-0.3,1.7-0.6,2.4-1.2l0.3-0.3L76.2,11c-0.4-0.6-0.3-1.5,0.3-2c0.4-0.3,1-0.5,1.8-0.5
				c1.7-0.1,3.4-0.2,5.2-0.3l0.1,0c0.3-0.1,1-0.3,1.5-0.4L85,6.9z"/>
			<path class="st10" d="M128.9,39c-4.2-11.1-13-21.3-13.2-21.2c-1.8-1.5-4.7-2-8.4-1.9c-0.1,0-0.1-0.1-0.2-0.1
				c-5.1,0.1-11.4,1.3-16.6,2.5c0.2,0.5,0.5,0.9,0.8,1.2c-0.3-0.3-0.6-0.7-0.8-1.1c-2.3,0.5-4.6,1.1-6.4,1.6c0,0,0,0,0,0.1
				c-2.8,0.8-4.5,1.3-4.5,1.3l-9.4,27c1.1,0,2.3,0,3.5-0.1l8.8-24.1c0,0,1.6-0.5,4.2-1.1c0,0,0,0,0,0c1.7-0.4,3.7-0.9,5.9-1.3
				c0,0,0-0.1,0-0.1c7.3-1.5,16.6-2.7,21.5-0.9c0,0,9.6,11,12.5,19.9c0,0,0.5-0.4,1.2-1c0,0,0,0,0.1,0.1
				C128.2,39.6,128.6,39.3,128.9,39z M92,20.6c0,0,0,0.1,0.1,0.1C92.1,20.7,92,20.6,92,20.6z"/>
		</g>
	</g>
	<g>
		<g>
			<path d="M88.5,3.3c35.3,0,43.9,32.2,43.9,32.2c-2.8,3.2-5.8,5.3-5.8,5.3c-2.8-8.9-12.5-19.9-12.5-19.9c-1.7-0.6-4-0.9-6.6-0.9
				c-10.4,0-25,4.2-25,4.2l-8.8,24.1c-1.1,0.1-2.2,0.1-3.3,0.1c-18.8,0-26-10.5-26-10.5c3.5-29,34.1-33.8,34.1-33.8
				C82,3.5,85.4,3.3,88.5,3.3 M88.5,0.9c-3.3,0-6.8,0.3-10.4,0.8c-0.3,0.1-32.4,5.5-36.2,35.9c-0.1,0.6,0.1,1.2,0.4,1.7
				c0.3,0.5,8.2,11.5,28,11.5c1.1,0,2.3,0,3.4-0.1c1-0.1,1.8-0.7,2.1-1.6l8.4-22.9c3.6-1,15-3.8,23.2-3.8c2.1,0,3.9,0.2,5.2,0.6
				c1.9,2.2,9.3,11.3,11.6,18.6c0.2,0.7,0.8,1.3,1.5,1.6c0.3,0.1,0.5,0.1,0.8,0.1c0.5,0,1-0.1,1.4-0.4c0.1-0.1,3.3-2.3,6.2-5.7
				c0.5-0.6,0.7-1.4,0.5-2.2C134.6,34.5,125.2,0.9,88.5,0.9L88.5,0.9z"/>
		</g>
	</g>
	<g>
		<g>
			<path class="st11" d="M84.1,6.5c-0.5,0.4-1,1-0.8,1.6c0.2,0.7,1.1,0.9,1.8,1c1.3,0.1,2.7,0,4-0.1c0.8-0.1,1.8-0.2,2.1-1
				c0.2-0.5-0.1-1.2-0.5-1.5C89.1,5.1,85.7,5.4,84.1,6.5z"/>
		</g>
	</g>
	<g>
		<g>
			<path class="st12" d="M45.2,71.4c0,0,0.3-7.5,3.6-15.9c0,0,56.1,61.5,77.3,68.1c2,0.6,2.8,3,1.7,4.7c-1.6,2.4-3.6,5.5-5.3,7.6
				c-1,1.3-2.8,1.6-4.2,0.8C106.7,129.9,66.6,97.2,45.2,71.4z"/>
		</g>
		<g>
			<path d="M119.9,138.4c-0.8,0-1.6-0.2-2.3-0.6c-11.1-6.5-51.3-39-73.4-65.6l-0.3-0.4v-0.5c0-0.3,0.4-7.8,3.7-16.3l0.7-1.8l1.3,1.4
				c0.6,0.6,56.1,61.3,76.7,67.8c1.3,0.4,2.3,1.4,2.8,2.7c0.5,1.3,0.3,2.7-0.5,3.9c-1.5,2.3-3.6,5.5-5.4,7.7
				C122.5,137.8,121.2,138.4,119.9,138.4z M46.4,71c21.6,26,61.8,58.5,72.4,64.7c0.9,0.5,2,0.3,2.6-0.5c1.7-2.2,3.8-5.3,5.2-7.5
				c0.3-0.5,0.4-1.2,0.2-1.8c-0.2-0.6-0.6-1-1.2-1.2c-19.7-6.2-67.6-57.4-76.5-67C47.1,63.9,46.5,69.4,46.4,71z"/>
		</g>
	</g>
</g>
</svg>
