<?xml version="1.0" encoding="utf-8"?>
<!-- Generator: Adobe Illustrator 24.1.1, SVG Export Plug-In . SVG Version: 6.00 Build 0)  -->
<svg version="1.1" id="Layer_1" xmlns="http://www.w3.org/2000/svg" xmlns:xlink="http://www.w3.org/1999/xlink" x="0px" y="0px"
	 viewBox="0 0 220 240" style="enable-background:new 0 0 220 240;" xml:space="preserve">
<g>
	<g>
		<path style="fill:#BA8535;" d="M184.49,220.95c-7.41,11.06-84.69,8.12-115.03,4.95c-23.73-2.48-27.71-7.61-28.27-9.93
			c0.62,0,1.12-0.5,1.12-1.12c0-0.05,0-0.09-0.01-0.14c0-0.01,0-0.01,0-0.02c0-0.02,0.01-0.05,0.02-0.09
			c0.01-0.04,0.02-0.08,0.04-0.14c0.01-0.02,0.02-0.05,0.03-0.08c0.01-0.03,0.02-0.06,0.04-0.1c0.02-0.08,0.06-0.18,0.12-0.29
			c0.01-0.01,0.01-0.03,0.03-0.05c0.01-0.04,0.04-0.08,0.07-0.13c0.05-0.09,0.11-0.19,0.17-0.29c0.01-0.02,0.02-0.04,0.04-0.07
			c0.1-0.14,0.2-0.28,0.32-0.44c0.05-0.07,0.11-0.15,0.17-0.23c0.14-0.18,0.31-0.36,0.5-0.56c0.06-0.07,0.13-0.14,0.21-0.22
			c0.07-0.08,0.15-0.16,0.23-0.23c0.22-0.22,0.47-0.44,0.75-0.68c0.12-0.1,0.24-0.2,0.36-0.3c0.1-0.09,0.21-0.18,0.33-0.26
			c0.46-0.36,0.97-0.73,1.56-1.12c0.14-0.1,0.29-0.19,0.45-0.29c0.24-0.16,0.49-0.32,0.75-0.47c0.07-0.05,0.15-0.09,0.23-0.14
			c0.19-0.12,0.38-0.23,0.58-0.34c0.57-0.33,1.18-0.67,1.84-1.01c0.39-0.2,0.79-0.4,1.22-0.61c0.02-0.01,0.04-0.02,0.06-0.03
			c0.44-0.22,0.91-0.44,1.39-0.66c0.54-0.24,1.1-0.49,1.69-0.74c0.25-0.11,0.51-0.22,0.78-0.33c1.24-0.53,2.6-1.06,4.08-1.6
			c0.37-0.14,0.75-0.27,1.14-0.41c1.15-0.41,2.38-0.83,3.68-1.25c0.3-0.1,0.61-0.2,0.93-0.3c0.53-0.17,1.06-0.34,1.61-0.5
			c0.55-0.17,1.11-0.34,1.68-0.51c1.15-0.34,2.34-0.68,3.58-1.02c0.76-0.21,1.54-0.42,2.33-0.63c0.52-0.14,1.04-0.27,1.57-0.41
			c36.07-9.28,50.19-5.94,78.54,5.19c1.37,0.54,2.66,1.06,3.9,1.57c0.55,0.23,1.09,0.46,1.62,0.68c0.48,0.21,0.96,0.41,1.42,0.61
			c0.64,0.28,1.26,0.56,1.86,0.82c1.74,0.78,3.32,1.53,4.76,2.24c0.52,0.26,1.01,0.51,1.49,0.75c0.01,0,0.02,0.01,0.03,0.02
			l0.75,0.39c0.41,0.22,0.8,0.42,1.18,0.63c0.77,0.42,1.49,0.82,2.16,1.21c0.2,0.12,0.4,0.23,0.59,0.35
			c0.38,0.22,0.75,0.45,1.1,0.67c0.18,0.11,0.35,0.22,0.52,0.32c0.17,0.11,0.33,0.21,0.49,0.32c0.32,0.21,0.62,0.41,0.91,0.61
			c0.59,0.41,1.13,0.8,1.6,1.16c0.22,0.17,0.43,0.33,0.62,0.49c0.63,0.5,1.14,0.96,1.56,1.37c0.1,0.1,0.21,0.2,0.3,0.3
			c0.16,0.16,0.3,0.31,0.42,0.45c0.11,0.12,0.2,0.23,0.28,0.33c0.28,0.34,0.47,0.62,0.6,0.84c0.03,0.05,0.06,0.1,0.08,0.14
			c0.04,0.06,0.07,0.11,0.09,0.16c0.04,0.09,0.07,0.16,0.09,0.21V220c0,0.02,0,0.04,0.01,0.06c0,0.01,0,0.01,0.01,0.02
			C183.9,220.47,184.15,220.79,184.49,220.95z"/>
		<path d="M186.07,219.91c0,0.01,0,0.01,0,0.02c0,0.62-0.5,1.12-1.12,1.12c-0.17,0-0.32-0.04-0.46-0.1
			c-0.34-0.16-0.59-0.48-0.63-0.87c-0.01-0.01-0.01-0.01-0.01-0.02c-0.01-0.02-0.01-0.04-0.01-0.06v-0.01
			c-0.02-0.05-0.05-0.12-0.09-0.21c-0.02-0.05-0.05-0.1-0.09-0.16c-0.02-0.04-0.05-0.09-0.08-0.14c-0.13-0.22-0.32-0.5-0.6-0.84
			c-0.08-0.1-0.17-0.21-0.28-0.33c-0.12-0.14-0.26-0.29-0.42-0.45c-0.09-0.1-0.2-0.2-0.3-0.3c-0.42-0.41-0.93-0.87-1.56-1.37
			c-0.19-0.16-0.4-0.32-0.62-0.49c-0.47-0.36-1.01-0.75-1.6-1.16c-0.29-0.2-0.59-0.4-0.91-0.61c-0.16-0.11-0.32-0.21-0.49-0.32
			c-0.17-0.1-0.34-0.21-0.52-0.32c-0.35-0.22-0.72-0.45-1.1-0.67c-0.19-0.12-0.39-0.23-0.59-0.35c-0.67-0.39-1.39-0.79-2.16-1.21
			c-0.38-0.21-0.77-0.42-1.18-0.63l-0.75-0.39c-0.01-0.01-0.02-0.02-0.03-0.02c-0.48-0.25-0.98-0.5-1.49-0.75
			c-1.44-0.71-3.02-1.46-4.76-2.24c-0.6-0.27-1.22-0.54-1.86-0.82c-0.46-0.2-0.94-0.4-1.42-0.61c-0.53-0.22-1.07-0.45-1.62-0.68
			c-1.24-0.51-2.53-1.03-3.9-1.57c-28.35-11.13-42.47-14.47-78.54-5.19c-0.53,0.14-1.05,0.27-1.57,0.41
			c-0.79,0.21-1.57,0.42-2.33,0.63c-1.24,0.34-2.43,0.68-3.58,1.02c-0.57,0.17-1.13,0.34-1.68,0.51c-0.55,0.16-1.08,0.33-1.61,0.5
			c-0.32,0.1-0.63,0.2-0.93,0.3c-1.3,0.42-2.53,0.84-3.68,1.25c-0.39,0.14-0.77,0.27-1.14,0.41c-1.48,0.54-2.84,1.07-4.08,1.6
			c-0.27,0.11-0.53,0.22-0.78,0.33c-0.59,0.25-1.15,0.5-1.69,0.74c-0.48,0.22-0.95,0.44-1.39,0.66c-0.02,0.01-0.04,0.02-0.06,0.03
			c-0.43,0.21-0.83,0.41-1.22,0.61c-0.66,0.34-1.27,0.68-1.84,1.01c-0.2,0.11-0.39,0.22-0.58,0.34c-0.08,0.05-0.16,0.09-0.23,0.14
			c-0.26,0.15-0.51,0.31-0.75,0.47c-0.16,0.1-0.31,0.19-0.45,0.29c-0.59,0.39-1.1,0.76-1.56,1.12c-0.12,0.08-0.23,0.17-0.33,0.26
			c-0.12,0.1-0.24,0.2-0.36,0.3c-0.28,0.23-0.53,0.46-0.75,0.68c-0.08,0.07-0.16,0.15-0.23,0.23c-0.08,0.08-0.15,0.15-0.21,0.22
			c-0.19,0.2-0.36,0.38-0.5,0.56c-0.06,0.08-0.12,0.16-0.17,0.23c-0.13,0.16-0.23,0.31-0.32,0.44c-0.02,0.03-0.03,0.05-0.04,0.07
			c-0.07,0.1-0.13,0.2-0.17,0.29c-0.03,0.05-0.06,0.09-0.07,0.13c-0.02,0.02-0.02,0.04-0.03,0.05c-0.06,0.11-0.1,0.21-0.12,0.29
			c-0.02,0.04-0.03,0.07-0.04,0.1c-0.01,0.03-0.02,0.06-0.03,0.08c-0.02,0.06-0.03,0.1-0.04,0.14c-0.01,0.04-0.02,0.07-0.02,0.09
			c0,0.01,0,0.01,0,0.02c0.01,0.05,0.01,0.09,0.01,0.14c0,0.62-0.5,1.12-1.12,1.12c-0.62,0-1.12-0.5-1.12-1.12v-0.05
			c-0.04-1.24,1.02-9.73,36.26-18.79c36.71-9.44,51.07-6.05,79.9,5.28c26.71,10.49,29.56,16.79,29.82,18.4
			C186.06,219.76,186.07,219.84,186.07,219.91z"/>
	</g>
	<g>
		<g>
			<path d="M95.66,216.23c-0.1,0-0.2-0.02-0.3-0.05c-0.46-0.17-0.7-0.68-0.53-1.14c4.47-12.25,13.19-10.12,13.28-10.1
				c0.47,0.12,0.76,0.61,0.63,1.09c-0.12,0.47-0.61,0.76-1.08,0.64c-0.3-0.08-7.27-1.68-11.16,8.99
				C96.37,216.01,96.02,216.23,95.66,216.23z"/>
		</g>
		<g>
			<path d="M106.43,202.91c-0.25,0-0.51-0.11-0.68-0.32c-4.31-5.15-11.98-2.34-12.05-2.31c-0.46,0.17-0.97-0.06-1.15-0.52
				c-0.17-0.46,0.06-0.97,0.52-1.15c0.36-0.14,8.92-3.29,14.05,2.83c0.32,0.38,0.27,0.94-0.11,1.25
				C106.83,202.84,106.63,202.91,106.43,202.91z"/>
		</g>
		<path d="M114.6,206.44c-1.18,0-1.84-0.35-1.98-0.43c-0.42-0.25-0.56-0.79-0.31-1.22c0.25-0.42,0.78-0.56,1.2-0.32
			c0.08,0.04,2.41,1.09,7.14-2.42c6.03-4.49,12.91-0.02,13.2,0.17c0.41,0.27,0.52,0.82,0.25,1.23c-0.27,0.41-0.82,0.52-1.23,0.25
			c-0.25-0.16-6.13-3.96-11.15-0.22C118.48,205.87,116.11,206.44,114.6,206.44z"/>
		<path d="M115.74,199.4c-0.19,0-0.39-0.06-0.55-0.19c-0.38-0.31-0.45-0.87-0.14-1.25c0.15-0.19,3.82-4.7,8.3-4
			c0.49,0.07,0.82,0.53,0.74,1.01c-0.07,0.49-0.53,0.82-1.01,0.74c-3.48-0.54-6.61,3.32-6.64,3.36
			C116.26,199.29,116,199.4,115.74,199.4z"/>
	</g>
</g>
<g>
	<g>
		<path style="fill:#8CCD00;" d="M131.21,175.84c-0.71,0.51-1.3,1.32-1.94,2.18c-1.16,1.57-2.74,3.72-5.89,5.73
			c-5.62,3.59-10.7,0.95-10.92,0.84c-0.32-0.17-0.71-0.19-1.04-0.05c-0.34,0.14-0.59,0.43-0.7,0.78c-0.37,1.28-0.25,4.53,0,9.74
			c0.16,3.44,0.38,8.14,0.09,9.05c-0.1,0.16-0.2,0.21-0.32,0.23c-0.22,0.03-0.45-0.05-0.59-0.13c-0.08-1.76-0.04-10.83,0.03-19.41v0
			c0,0,0,0,0,0c0-0.06,0-0.11-0.01-0.16c-0.07-0.59-0.58-1.05-1.19-1.05h0c-0.32,0-0.61,0.12-0.82,0.32
			c-0.9,0.08-3.42-0.25-3.93-0.38c-1.36-0.4-2.73-1.14-3.94-2.16c-1.71-1.42-2.1-2.44-2.4-4.79c-0.03-0.22-0.06-0.65-0.11-1.23
			c-0.34-4.34-0.73-7.2-1.29-8.98c4.98,0.35,8.61,1.87,10.8,4.54c3.24,3.94,2.26,9.2,2.25,9.25c-0.13,0.64,0.28,1.27,0.91,1.42
			c0.64,0.15,1.28-0.24,1.44-0.86c0.41-1.55,3.26-3.67,5-4.68C125.67,172.26,129.66,174.33,131.21,175.84z"/>
		<path d="M134.29,176.03c-0.14-0.35-3.81-8.42-18.64-2.22c-0.04,0.02-0.09,0.04-0.14,0.06c-0.32,0.18-2.12,1.24-3.72,2.7
			c-0.21-2.15-0.92-4.82-2.86-7.19c-3-3.66-8.04-5.52-14.99-5.52c-0.66,0-1.19,0.53-1.21,1.18c-0.01,0.56,0.36,1.03,0.86,1.18
			c0.42,0.58,1,2.7,1.52,9.3c0.05,0.63,0.09,1.08,0.12,1.34c0.35,2.76,0.93,4.41,3.25,6.34c1.46,1.22,3.13,2.13,4.8,2.62
			c0.03,0.01,2.37,0.51,4.21,0.48c-0.15,17.83,0,18.44,0.05,18.64c0.26,1.03,1.43,1.64,2.41,1.77c0.15,0.02,0.29,0.03,0.44,0.03
			c1.08,0,2.01-0.55,2.55-1.51c0.57-1.02,0.5-3.78,0.19-10.3c-0.12-2.63-0.27-5.73-0.22-7.57c2.33,0.76,6.89,1.53,11.76-1.58
			c3.52-2.25,5.33-4.71,6.53-6.33c0.96-1.3,1.38-1.82,1.8-1.76c0.43,0.06,0.86-0.12,1.13-0.46
			C134.41,176.89,134.47,176.43,134.29,176.03z M129.27,178.03c-1.16,1.57-2.74,3.72-5.89,5.73c-5.62,3.59-10.7,0.95-10.92,0.84
			c-0.32-0.17-0.71-0.19-1.04-0.05c-0.34,0.14-0.59,0.43-0.7,0.78c-0.37,1.28-0.25,4.53,0,9.74c0.16,3.44,0.38,8.14,0.09,9.05
			c-0.1,0.16-0.2,0.21-0.32,0.23c-0.22,0.03-0.45-0.05-0.59-0.13c-0.08-1.76-0.04-10.83,0.03-19.41v0c0,0,0,0,0,0
			c0-0.06,0-0.11-0.01-0.16c-0.07-0.59-0.58-1.05-1.19-1.05h0c-0.32,0-0.61,0.12-0.82,0.32c-0.9,0.08-3.42-0.25-3.93-0.38
			c-1.36-0.4-2.73-1.14-3.94-2.16c-1.71-1.42-2.1-2.44-2.4-4.79c-0.03-0.22-0.06-0.65-0.11-1.23c-0.34-4.34-0.73-7.2-1.29-8.98
			c4.98,0.35,8.61,1.87,10.8,4.54c3.24,3.94,2.26,9.2,2.25,9.25c-0.13,0.64,0.28,1.27,0.91,1.42c0.64,0.15,1.28-0.24,1.44-0.86
			c0.41-1.55,3.26-3.67,5-4.68c9.02-3.74,13-1.68,14.56-0.16C130.51,176.36,129.91,177.16,129.27,178.03z"/>
	</g>
	<g>
		<path d="M107.89,182.77c-0.48,0-0.89-0.35-0.96-0.84c-0.75-5.51-6.9-10.39-6.97-10.44c-0.42-0.33-0.49-0.94-0.17-1.36
			s0.94-0.49,1.36-0.17c0.28,0.22,6.83,5.4,7.69,11.7c0.07,0.53-0.3,1.02-0.83,1.09C107.98,182.76,107.93,182.77,107.89,182.77z"/>
	</g>
	<g>
		<path d="M111.64,184.41c-0.23,0-0.45-0.08-0.63-0.24c-0.4-0.35-0.44-0.96-0.09-1.36c0.22-0.26,5.58-6.27,15.25-7.5
			c0.53-0.07,1.01,0.31,1.08,0.84c0.07,0.53-0.31,1.01-0.84,1.08c-8.95,1.14-13.99,6.8-14.04,6.86
			C112.18,184.3,111.91,184.41,111.64,184.41z"/>
	</g>
</g>
</svg>
