<?xml version="1.0" encoding="utf-8"?>
<!-- Generator: Adobe Illustrator 26.5.0, SVG Export Plug-In . SVG Version: 6.00 Build 0)  -->
<svg version="1.1" id="레이어_5" xmlns="http://www.w3.org/2000/svg" xmlns:xlink="http://www.w3.org/1999/xlink" x="0px"
	 y="0px" viewBox="0 0 390 390" style="enable-background:new 0 0 390 390;" xml:space="preserve">
<g>
	<g>
		<path style="fill:#A8A8A8;" d="M149.6,275.8c0.1,0-16.9,81.4-19.3,96c-0.3,2-0.6,4.1,0.2,6c2.5,5.6,21.1,7.3,26.9,7.3
			c7.2,0,21.5,0.1,30-2.7c2.4-0.8,4.1-2.6,4.6-4.8c0.5-2.3,1.1-5.3,1.1-7.3c0-3.6-0.1-87.3-0.1-87.3L149.6,275.8z"/>
		<path d="M158.7,386.7c-0.3,0-0.6,0-0.9,0h-0.4c-0.2,0-25-0.5-28.4-8.3c-1-2.3-0.7-4.7-0.4-7c1.7-10.5,11.1-55.8,16.1-80.1
			c1.5-7.2,2.7-13.2,3.1-15.1l-2-2.7l48.9,8v1.4c0,0,0.1,83.7,0.1,87.3c0,1.8-0.4,4.4-1.1,7.7c-0.6,2.8-2.8,5.1-5.7,6
			C179.6,386.6,166.4,386.7,158.7,386.7z M150.9,277.7c-0.4,2.2-1.2,6.4-2.9,14.3c-5,24.3-14.3,69.5-16.1,80c-0.3,1.9-0.5,3.6,0.1,5
			c1.8,4,17.7,6.2,25.3,6.2h0.4c7.3,0,21,0,29.1-2.6c1.8-0.6,3.1-1.9,3.5-3.5c0.7-3,1-5.4,1-6.9c0-3.3-0.1-74.8-0.1-85.9
			L150.9,277.7z"/>
	</g>
	<g>
		<path style="fill:#E0E0E0;" d="M148,383.6c0-2,0-4-0.3-6c-0.3-1.6-0.7-3.1-1.5-4.5c-1.5-2.6-4.7-4.4-7.5-3.5
			c-1.9,0.7-3.3,2.5-3.9,4.4s-0.5,4-0.3,6.1c0,0,1.4,1.4,6.3,2.6S148,383.6,148,383.6z"/>
		<path d="M147.1,385.3c-1.2,0-3.5-0.2-6.8-1c-5-1.3-6.7-2.7-7-3s-0.5-0.7-0.5-1.1c-0.2-2.2-0.3-4.5,0.4-6.7c0.8-2.7,2.7-4.8,5-5.6
			c3.8-1.3,7.8,1.2,9.5,4.2c0.8,1.4,1.4,3.1,1.7,5.1s0.3,3.8,0.3,5.7v0.6c0,0.9-0.6,1.6-1.5,1.7
			C148.1,385.3,147.7,385.3,147.1,385.3z M148,383.6L148,383.6L148,383.6z M136.1,379.2c0.7,0.4,2.2,1.1,5,1.8
			c2.3,0.6,4,0.8,5.1,0.8c0-1.4-0.1-2.7-0.3-4c-0.3-1.6-0.7-2.9-1.3-3.9c-1.1-1.9-3.5-3.4-5.5-2.7c-1.2,0.4-2.3,1.7-2.8,3.3
			C136,376,136,377.6,136.1,379.2z"/>
	</g>
	<g>
		<path style="fill:#E0E0E0;" d="M168,384.9c0-2,0-4,0.3-6c0.3-1.6,0.7-3.1,1.5-4.5c1.5-2.6,4.7-4.4,7.5-3.5
			c1.9,0.7,3.3,2.5,3.9,4.4s0.7,6.2,0.5,8.3c0,0-1.2,0.9-6.5,1C170.2,384.8,168,384.9,168,384.9z"/>
		<path d="M168,386.6c-0.4,0-0.9-0.2-1.2-0.5s-0.5-0.8-0.5-1.2v-0.6c0-1.8,0-3.7,0.3-5.7s0.9-3.7,1.7-5.1c1.8-3,5.7-5.5,9.5-4.2
			c2.3,0.8,4.2,2.9,5,5.5c0.7,2.3,0.7,7,0.5,8.9c0,0.5-0.3,0.9-0.7,1.2c-0.5,0.4-2.2,1.2-7.5,1.4C170.3,386.5,168.1,386.6,168,386.6
			L168,386.6z M169.7,384.9L169.7,384.9L169.7,384.9z M175.7,372.4c-1.8,0-3.5,1.3-4.5,2.9c-0.6,1-1,2.3-1.3,3.9
			c-0.2,1.3-0.3,2.6-0.3,3.9c1.2,0,3-0.1,5.4-0.2c2.6-0.1,4.1-0.3,4.9-0.5c0.1-2.1,0-5.2-0.5-6.6c-0.5-1.6-1.6-2.9-2.8-3.3
			C176.4,372.4,176.1,372.4,175.7,372.4z"/>
	</g>
	<g>
		<path style="fill:#E0E0E0;" d="M164.4,384.8c0-2,0-4-0.3-6c-0.3-1.6-0.7-3.1-1.5-4.5c-1.5-2.6-4.7-4.4-7.5-3.5
			c-1.9,0.7-3.3,2.5-3.9,4.4s-0.8,6.8-0.6,8.9c0,0,0.7,0.4,5.5,0.7C161.4,385.2,164.4,384.8,164.4,384.8z"/>
		<path d="M160.3,386.7c-1.2,0-2.7,0-4.3-0.2c-5.2-0.4-6-0.8-6.2-0.9c-0.5-0.3-0.8-0.8-0.9-1.3c-0.2-2.2,0-7.3,0.6-9.5
			c0.8-2.7,2.7-4.8,5-5.6c3.8-1.3,7.8,1.2,9.5,4.2c0.8,1.4,1.4,3.1,1.7,5.1s0.3,3.8,0.3,5.7v0.6c0,0.9-0.6,1.6-1.5,1.7
			C164.5,386.5,163,386.7,160.3,386.7z M164.4,384.8L164.4,384.8L164.4,384.8z M152.2,382.8c0.7,0.1,2,0.2,4,0.4
			c2.9,0.2,5.1,0.2,6.4,0.1c0-1.4,0-2.8-0.3-4.1c-0.3-1.6-0.7-2.9-1.3-3.9c-1.1-1.9-3.5-3.4-5.5-2.7c-1.2,0.4-2.3,1.7-2.8,3.3
			C152.4,377.2,152.2,380.6,152.2,382.8z"/>
	</g>
</g>
<g>
	<g>
		<path style="fill:#A8A8A8;" d="M260.6,78c0-36.3-29.4-65.6-65.6-65.6S129.4,41.8,129.4,78v37.5h131.3V78H260.6z"/>
		<path d="M262.4,117.2H127.6V78c0-37.1,30.2-67.4,67.4-67.4s67.4,30.2,67.4,67.4V117.2z M131.1,113.8H259V78
			c0-35.3-28.7-63.9-63.9-63.9s-64,28.7-64,63.9V113.8z"/>
	</g>
	<g>
		<g>
			<path style="fill:#A8A8A8;" d="M162.8,24.8c0,0-3.5-20.3-26.7-19.8s-5.9,28.7,9.4,32.6"/>
			<path d="M145.4,39.4c-0.1,0-0.3,0-0.4-0.1c-11.1-2.9-23-17.6-21.9-27.1c0.4-3.2,2.5-8.7,12.9-8.9c24.5-0.4,28.4,21,28.5,21.2
				c0.2,0.9-0.5,1.8-1.4,2s-1.8-0.5-2-1.4c-0.1-0.8-3.5-18.4-24.2-18.4c-0.3,0-0.5,0-0.8,0c-5.9,0.1-9.2,2.1-9.6,5.9
				c-0.9,8,9.8,20.9,19.4,23.4c0.9,0.2,1.5,1.2,1.2,2.1C146.9,38.8,146.2,39.4,145.4,39.4z"/>
		</g>
		<g>
			<path style="fill:#454545;" d="M150.3,32.6c0,0-6.9-13.5-18.6-17.3C131.6,15.3,132.2,29.7,150.3,32.6z"/>
			<path d="M153.3,34.8l-3.3-0.5c-19.2-3.1-20.1-18.8-20.1-19l-0.1-2.4l2.3,0.8c12.3,4,19.3,17.6,19.6,18.2L153.3,34.8z M133.9,18
				c1,3.5,4,9.4,12.8,12C144.3,26.5,139.9,21,133.9,18z"/>
		</g>
	</g>
	<g>
		<g>
			<path style="fill:#A8A8A8;" d="M227.2,24.8c0,0,3.5-20.3,26.7-19.8s5.9,28.7-9.4,32.6"/>
			<path d="M244.6,39.4c-0.8,0-1.5-0.5-1.7-1.3c-0.2-0.9,0.3-1.8,1.2-2.1c9.6-2.5,20.3-15.4,19.4-23.4c-0.4-3.8-3.7-5.7-9.6-5.9
				c-21.4-0.6-24.9,17.6-25,18.4c-0.2,0.9-1.1,1.6-2,1.4s-1.5-1-1.4-2c0-0.2,3.9-21.2,27.6-21.2c0.3,0,0.6,0,0.9,0
				c10.4,0.2,12.5,5.7,12.9,8.9c1.1,9.5-10.8,24.2-21.9,27.1C244.9,39.3,244.7,39.4,244.6,39.4z"/>
		</g>
		<g>
			<path style="fill:#454545;" d="M239.7,32.6c0,0,6.9-13.5,18.6-17.3C258.4,15.3,257.8,29.7,239.7,32.6z"/>
			<path d="M236.7,34.8l1.5-3c0.3-0.6,7.3-14.2,19.6-18.2l2.3-0.8l-0.1,2.4c0,0.2-0.8,15.8-20.1,19L236.7,34.8z M256.1,18
				c-6,3-10.4,8.5-12.8,12C252.1,27.4,255.1,21.5,256.1,18z"/>
		</g>
	</g>
	<path d="M202.2,39.1c-0.3,0-0.5,0-0.6,0c-8.5-0.7-16.6-4.8-22.2-11.2c-1.2-1.4-2.8-3.5-2.5-6c0.1-0.9,0.9-1.6,1.9-1.5
		c0.9,0.1,1.6,0.9,1.5,1.9c-0.1,0.9,0.4,2,1.7,3.4c5,5.7,12.3,9.4,19.9,10c0.2,0,0.4,0,0.4,0s0-0.1,0.1-0.2c0.5-1.4,0.4-3.1-0.2-4.5
		c-0.3-0.7-0.2-1.4,0.4-1.9c0.5-0.5,1.3-0.6,2-0.3c1.3,0.7,2.7,1.2,4.2,1.5c1.4,0.3,2.3,0.3,2.9-0.1c0.3-0.2,0.5-0.7,0.4-0.9
		c-0.7-0.6-0.8-1.7-0.2-2.4c0.6-0.7,1.7-0.8,2.4-0.2c0.8,0.7,1.3,1.8,1.1,3c-0.1,1.4-0.9,2.7-2.1,3.4c-1.9,1.1-4,0.8-5.5,0.4
		c-0.6-0.1-1.2-0.3-1.8-0.5c0,1.2-0.1,2.4-0.5,3.5c-0.2,0.6-0.6,1.4-1.4,1.9C203.6,39,202.8,39.1,202.2,39.1z"/>
	<circle cx="174.5" cy="48.6" r="5.8"/>
	<circle cx="215.5" cy="48.6" r="5.8"/>
</g>
<g>
	<g>
		<path style="fill:#A8A8A8;" d="M244.5,275.8c-0.1,0,16.9,81.4,19.3,96c0.3,2,0.6,4.1-0.2,6c-2.5,5.6-21.1,7.3-26.9,7.3
			c-7.2,0-21.5,0.1-30-2.7c-2.4-0.8-4.1-2.6-4.6-4.8c-0.5-2.3-1.1-5.3-1.1-7.3c0-3.6,0.1-87.3,0.1-87.3L244.5,275.8z"/>
		<path d="M235.4,386.7c-7.7,0-20.9-0.1-29.2-2.8c-2.9-1-5.1-3.2-5.7-6c-0.8-3.4-1.1-5.9-1.1-7.7c0-3.6,0.1-87.3,0.1-87.3v-1.4
			l48.9-8l-2,2.7c0.4,1.9,1.6,7.9,3.1,15.1c5,24.3,14.4,69.7,16.1,80.2c0.4,2.3,0.7,4.7-0.4,7c-3.5,7.8-28.2,8.3-28.4,8.3h-0.4
			C236,386.7,235.7,386.7,235.4,386.7z M202.8,284.3c0,11.1-0.1,82.6-0.1,85.9c0,1.5,0.4,3.9,1.1,6.9c0.4,1.6,1.7,3,3.5,3.5
			c8.1,2.6,21.8,2.6,29.1,2.6h0.4c7.6,0,23.5-2.2,25.3-6.2c0.6-1.4,0.4-3.1,0.1-5c-1.7-10.5-11.1-55.7-16.1-80.1
			c-1.6-7.9-2.5-12-2.9-14.2L202.8,284.3z"/>
	</g>
	<g>
		<path style="fill:#E0E0E0;" d="M246.1,383.6c0-2,0-4,0.3-6c0.3-1.6,0.7-3.1,1.5-4.5c1.5-2.6,4.7-4.4,7.5-3.5
			c1.9,0.7,3.3,2.5,3.9,4.4c0.6,2,0.5,4,0.3,6.1c0,0-1.4,1.4-6.3,2.6S246.1,383.6,246.1,383.6z"/>
		<path d="M247,385.3c-0.7,0-1,0-1.1-0.1c-0.8-0.1-1.5-0.8-1.5-1.7v-0.6c0-1.8,0-3.7,0.3-5.7s0.9-3.7,1.7-5.1c1.8-3,5.7-5.5,9.5-4.2
			c2.3,0.8,4.2,2.9,5,5.6c0.7,2.3,0.6,4.6,0.4,6.7c0,0.4-0.2,0.8-0.5,1.1c-0.3,0.3-2,1.7-7,3C250.5,385.2,248.2,385.3,247,385.3z
			 M247.8,383.6L247.8,383.6L247.8,383.6z M246.1,383.6L246.1,383.6L246.1,383.6z M253.8,371.1c-1.8,0-3.5,1.3-4.5,2.9
			c-0.6,1-1,2.3-1.3,3.9c-0.2,1.3-0.3,2.6-0.3,4c1.1-0.1,2.8-0.3,5.1-0.8c2.8-0.7,4.3-1.4,5-1.9c0.1-1.6,0.1-3.2-0.3-4.6
			c-0.5-1.6-1.6-2.9-2.8-3.3C254.5,371.1,254.2,371.1,253.8,371.1z"/>
	</g>
	<g>
		<path style="fill:#E0E0E0;" d="M226.1,384.9c0-2,0-4-0.3-6c-0.3-1.6-0.7-3.1-1.5-4.5c-1.5-2.6-4.7-4.4-7.5-3.5
			c-1.9,0.7-3.3,2.5-3.9,4.4s-0.7,6.2-0.5,8.3c0,0,1.2,0.9,6.5,1C223.9,384.8,226.1,384.9,226.1,384.9z"/>
		<path d="M226.1,386.6L226.1,386.6c-0.1,0-2.3-0.1-7.2-0.2c-5.3-0.1-7-1-7.5-1.4c-0.4-0.3-0.6-0.7-0.7-1.2
			c-0.2-1.9-0.2-6.6,0.5-8.9c0.8-2.7,2.7-4.8,5-5.5c3.8-1.3,7.8,1.2,9.5,4.2c0.8,1.4,1.4,3.1,1.7,5.1s0.3,3.8,0.3,5.7v0.6
			c0,0.5-0.2,0.9-0.5,1.2C227,386.4,226.5,386.6,226.1,386.6z M214.1,382.4c0.7,0.2,2.3,0.4,4.9,0.5c2.4,0.1,4.2,0.1,5.4,0.2
			c0-1.3-0.1-2.6-0.3-3.9c-0.3-1.6-0.7-2.9-1.3-3.9c-1.1-1.9-3.5-3.4-5.5-2.7c-1.2,0.4-2.3,1.7-2.8,3.3
			C214.1,377.2,214,380.3,214.1,382.4z"/>
	</g>
	<g>
		<path style="fill:#E0E0E0;" d="M229.7,384.8c0-2,0-4,0.3-6c0.3-1.6,0.7-3.1,1.5-4.5c1.5-2.6,4.7-4.4,7.5-3.5
			c1.9,0.7,3.3,2.5,3.9,4.4s0.8,6.8,0.6,8.9c0,0-0.7,0.4-5.5,0.7C232.7,385.2,229.7,384.8,229.7,384.8z"/>
		<path d="M233.8,386.7c-2.7,0-4.2-0.2-4.3-0.2c-0.8-0.1-1.5-0.8-1.5-1.7v-0.6c0-1.8,0-3.7,0.3-5.7s0.9-3.7,1.7-5.1
			c1.8-3,5.7-5.5,9.5-4.2c2.3,0.8,4.2,2.9,5,5.6c0.7,2.2,0.8,7.3,0.6,9.5c-0.1,0.6-0.4,1.1-0.9,1.3c-0.2,0.1-1,0.5-6.2,0.9
			C236.4,386.7,235,386.7,233.8,386.7z M231.4,384.8L231.4,384.8L231.4,384.8z M231.4,383.2c1.3,0.1,3.5,0.1,6.4-0.1
			c2-0.1,3.3-0.3,4-0.4c0-2.2-0.1-5.6-0.6-7c-0.5-1.6-1.6-2.9-2.8-3.3c-2-0.7-4.4,0.8-5.5,2.7c-0.6,1-1,2.3-1.3,3.9
			C231.5,380.5,231.4,381.8,231.4,383.2z"/>
	</g>
</g>
<g>
	<g>
		<path style="fill:#A8A8A8;" d="M240.9,165.6c1.3-0.5,2.8-1,4.3-1.4c13-3.2,26.6,7.7,36.7,15.1c12.8,9.4,22.3,22.1,27.8,37
			c3.3,9,4.8,18.2,6.7,27.6c1.1,5.7,2.4,13.9-4.7,16.2c-10.8,3.5-22.4,3.1-33.7,2.7c-2.1-0.1-5.2,0.3-6.1-2
			c-0.4-1.1-0.3-2.3-0.3-3.4c0.4-6.7,1.1-14.1,0.2-20.8s-3.8-13-6.8-19c-3.6-7.1-8.1-14.3-14.4-19.5c-6.7-5.5-14-9.7-17.3-17.9
			C230.4,172.7,234.4,168.2,240.9,165.6z"/>
		<path d="M288.9,264.8c-3.8,0-7.4-0.1-11-0.3c-0.3,0-0.6,0-1,0c-2.1,0-5.5,0-6.7-3c-0.6-1.4-0.5-2.9-0.4-4.1l0.2-2.5
			c0.4-6,0.8-12.3,0.1-18c-0.9-6.5-3.7-12.7-6.7-18.5c-3.1-6-7.4-13.6-14-18.9c-1.3-1.1-2.6-2.1-3.9-3c-5.5-4.2-11.1-8.5-13.9-15.6
			c-2.9-7.5,0.1-13.5,8.5-16.8l0,0c1.4-0.5,2.9-1,4.5-1.4c12.9-3.2,26.4,6.7,36.2,13.9l1.9,1.4c12.9,9.5,22.8,22.5,28.4,37.7
			c2.9,8,4.5,16.3,6.1,24.3l0.7,3.5c1,5,3,15.3-5.8,18.1C304.7,264.2,296.7,264.8,288.9,264.8z M241.5,167.2L241.5,167.2
			c-8.9,3.5-8,8.7-6.6,12.4c2.4,6.2,7.5,10,12.8,14.1c1.3,1,2.7,2,4,3.1c7,5.7,11.6,13.7,14.8,20c3.1,6,6.1,12.6,7,19.6
			c0.8,6,0.4,12.4-0.1,18.7l-0.2,2.5c-0.1,1-0.1,2,0.2,2.7c0.3,0.8,1.7,0.9,3.5,0.9c0.4,0,0.7,0,1.1,0c11.1,0.4,22.5,0.8,33.1-2.6
			c4.9-1.6,5-6.6,3.5-14.2l-0.7-3.5c-1.6-8.3-3.1-16.1-5.9-23.8c-5.4-14.6-14.8-27.1-27.2-36.2l-1.9-1.4c-9.8-7.2-22-16.2-33.4-13.4
			C244.1,166.3,242.8,166.8,241.5,167.2z"/>
	</g>
	<g>
		<path style="fill:#E0E0E0;" d="M302.8,261.6c0-1.8,0-3.5,0.3-5.2c0.2-1.4,0.6-2.7,1.3-3.9c1.3-2.3,4.1-3.9,6.6-3
			c1.7,0.6,2.9,2.2,3.4,3.9s0.4,3.5,0.3,5.3c0,0-1.2,1.2-5.5,2.2C304.9,261.9,302.8,261.6,302.8,261.6z"/>
		<path d="M303.6,263.4c-0.6,0-0.9,0-1-0.1c-0.8-0.1-1.5-0.8-1.5-1.7v-0.5c0-1.6,0-3.3,0.3-5c0.3-1.8,0.8-3.2,1.5-4.5
			c1.6-2.7,5.1-5,8.6-3.8c2.1,0.7,3.8,2.6,4.5,5c0.6,2,0.5,4.2,0.3,6c0,0.4-0.2,0.8-0.5,1.1c-0.3,0.2-1.8,1.6-6.2,2.7
			C306.6,263.2,304.7,263.4,303.6,263.4z M304.5,261.6L304.5,261.6L304.5,261.6z M302.8,261.6L302.8,261.6L302.8,261.6z
			 M309.5,250.9c-1.5,0-2.9,1.1-3.7,2.4c-0.5,0.9-0.9,2-1.1,3.3c-0.2,1.1-0.2,2.1-0.2,3.2c1-0.1,2.4-0.3,4.2-0.7
			c2.3-0.6,3.6-1.2,4.3-1.5c0.1-1.3,0.1-2.7-0.3-3.9c-0.4-1.3-1.3-2.4-2.3-2.7C310.1,251,309.8,250.9,309.5,250.9z"/>
	</g>
	<g>
		<path style="fill:#E0E0E0;" d="M288.6,263c0-1.8,0-3.5,0.3-5.2c0.2-1.4,0.6-2.7,1.3-3.9c1.3-2.3,4.1-3.9,6.6-3
			c1.7,0.6,2.9,2.2,3.4,3.9c0.5,1.7,0.7,6,0.5,7.8c0,0-0.6,0.3-4.8,0.6C291.2,263.4,288.6,263,288.6,263z"/>
		<path d="M292.1,264.9c-2.4,0-3.7-0.2-3.8-0.2c-0.8-0.1-1.5-0.8-1.5-1.7v-0.5c0-1.6,0-3.3,0.3-5c0.3-1.8,0.8-3.2,1.5-4.5
			c1.6-2.7,5.1-5,8.6-3.8c2.1,0.7,3.8,2.6,4.5,5c0.6,2,0.7,6.5,0.5,8.4c-0.1,0.6-0.4,1.1-0.9,1.3c-0.2,0.1-0.9,0.5-5.5,0.8
			C294.5,264.9,293.2,264.9,292.1,264.9z M290.3,263L290.3,263L290.3,263z M290.3,261.4c1.2,0.1,3,0.1,5.4-0.1
			c1.6-0.1,2.6-0.2,3.3-0.3c0-2-0.2-4.8-0.5-5.9c-0.4-1.3-1.3-2.4-2.3-2.7c-1.7-0.6-3.7,0.8-4.6,2.3c-0.5,0.9-0.9,2-1.1,3.3
			C290.4,259.2,290.3,260.3,290.3,261.4z"/>
	</g>
</g>
<g>
	<g>
		<path style="fill:#A8A8A8;" d="M149.1,165.6c-1.3-0.5-2.8-1-4.3-1.4c-13-3.2-26.6,7.7-36.7,15.1c-12.8,9.4-22.3,22.1-27.8,37
			c-3.3,9-4.8,18.2-6.7,27.6c-1.1,5.7-2.4,13.9,4.7,16.2c10.8,3.5,22.4,3.1,33.7,2.7c2.1-0.1,5.2,0.3,6.1-2c0.4-1.1,0.3-2.3,0.3-3.4
			c-0.4-6.7-1.1-14.1-0.2-20.8s3.8-13,6.8-19c3.6-7.1,8.1-14.3,14.4-19.5c6.7-5.5,14-9.7,17.3-17.9
			C159.6,172.7,155.6,168.2,149.1,165.6z"/>
		<path d="M101.1,264.8c-7.8,0-15.8-0.6-23.3-3c-8.8-2.9-6.8-13.2-5.8-18.1l0.7-3.5c1.5-8,3.1-16.4,6.1-24.3
			c5.6-15.2,15.4-28.3,28.4-37.7l1.9-1.4c9.8-7.2,23.3-17.1,36.2-13.9c1.6,0.4,3.1,0.9,4.5,1.4l0,0c8.4,3.3,11.4,9.3,8.5,16.8
			c-2.8,7.1-8.4,11.4-13.9,15.6c-1.3,1-2.6,2-3.9,3c-6.5,5.3-10.9,12.9-14,18.9c-2.9,5.8-5.8,12-6.7,18.5c-0.7,5.7-0.3,11.9,0.1,18
			l0.2,2.5c0.1,1.3,0.2,2.7-0.4,4.2c-1.2,3-4.6,3-6.7,3c-0.3,0-0.7,0-1,0C108.5,264.6,104.8,264.8,101.1,264.8z M139.9,165.4
			c-10.1,0-20.4,7.6-28.9,13.9l-1.9,1.4c-12.4,9.1-21.8,21.6-27.2,36.2c-2.8,7.7-4.3,15.5-5.9,23.8l-0.7,3.5
			c-1.5,7.6-1.4,12.6,3.5,14.2c10.6,3.5,22.1,3,33.1,2.6c0.3,0,0.7,0,1.1,0c1.8,0,3.2-0.1,3.5-0.9c0.3-0.7,0.2-1.7,0.2-2.7l-0.2-2.5
			c-0.4-6.2-0.9-12.6-0.1-18.7c0.9-7,3.9-13.5,7-19.6c3.2-6.3,7.8-14.3,14.8-20c1.3-1.1,2.7-2.1,4-3.1c5.3-4.1,10.3-7.9,12.8-14.1
			c1.4-3.6,2.3-8.9-6.6-12.4c-1.2-0.5-2.6-0.9-4.1-1.3C142.9,165.6,141.4,165.4,139.9,165.4z"/>
	</g>
	<g>
		<path style="fill:#E0E0E0;" d="M87.2,261.6c0-1.8,0-3.5-0.3-5.2c-0.2-1.4-0.6-2.7-1.3-3.9c-1.3-2.3-4.1-3.9-6.6-3
			c-1.7,0.6-2.9,2.2-3.4,3.9s-0.4,3.5-0.3,5.3c0,0,1.2,1.2,5.5,2.2C85.1,261.9,87.2,261.6,87.2,261.6z"/>
		<path d="M86.4,263.4c-1.1,0-3.1-0.1-6-0.9c-4.5-1.1-6-2.4-6.2-2.7c-0.3-0.3-0.5-0.7-0.5-1.1c-0.2-1.8-0.3-3.9,0.3-6
			c0.7-2.4,2.4-4.3,4.5-5c3.4-1.2,7,1.1,8.6,3.8c0.7,1.3,1.2,2.7,1.5,4.5c0.3,1.7,0.3,3.4,0.3,5v0.5c0,0.9-0.6,1.6-1.5,1.7
			C87.4,263.3,87,263.4,86.4,263.4z M87.2,261.6L87.2,261.6L87.2,261.6z M77,257.7c0.6,0.3,1.9,1,4.3,1.5c1.9,0.5,3.3,0.6,4.2,0.7
			c0-1.1-0.1-2.2-0.2-3.2c-0.2-1.4-0.6-2.5-1.1-3.3c-0.9-1.5-2.9-2.9-4.6-2.3c-1,0.3-1.9,1.4-2.3,2.7C76.9,255,76.9,256.4,77,257.7z
			"/>
	</g>
	<g>
		<path style="fill:#E0E0E0;" d="M101.4,263c0-1.8,0-3.5-0.3-5.2c-0.2-1.4-0.6-2.7-1.3-3.9c-1.3-2.3-4.1-3.9-6.6-3
			c-1.7,0.6-2.9,2.2-3.4,3.9c-0.5,1.7-0.7,6-0.5,7.8c0,0,0.6,0.3,4.8,0.6C98.8,263.4,101.4,263,101.4,263z"/>
		<path d="M97.9,264.9c-1.1,0-2.3,0-3.8-0.1c-4.6-0.3-5.3-0.7-5.5-0.8c-0.5-0.3-0.8-0.8-0.9-1.3c-0.2-2,0-6.4,0.5-8.4
			c0.7-2.4,2.4-4.3,4.5-5c3.5-1.2,7,1.1,8.6,3.8c0.7,1.3,1.2,2.7,1.5,4.5c0.3,1.7,0.3,3.4,0.3,5v0.5c0,0.9-0.6,1.6-1.5,1.7
			C101.5,264.7,100.2,264.9,97.9,264.9z M101.4,263L101.4,263L101.4,263z M91,261c0.6,0.1,1.7,0.2,3.3,0.3c2.4,0.2,4.2,0.1,5.4,0.1
			c0-1.1,0-2.2-0.2-3.4c-0.2-1.4-0.6-2.5-1.1-3.3c-0.9-1.6-2.9-2.9-4.6-2.3c-1,0.3-1.9,1.4-2.3,2.7C91.1,256.3,90.9,259.1,91,261z"
			/>
	</g>
</g>
<g>
	<g>
		<path style="fill:#242424;" d="M278.5,220.7c-6-22.5-9.6-25.3-15.9-57.3c-5.3-27-35.4-35.5-35.4-35.5c-23.4-4.6-60.3,0-60.3,0
			s-31,8.4-35.4,35.5c-4.5,27.3-9.9,34.8-15.9,57.3s2.8,86,81.5,86S284.6,243.2,278.5,220.7z"/>
		<path d="M197,308.4c-31,0-55.1-10.1-69.7-29.2c-15.9-20.7-16.7-46.6-13.4-59c2.2-8.3,4.4-14.5,6.4-20.5c3.4-10,6.7-19.4,9.5-36.5
			c4.6-27.9,35.3-36.5,36.7-36.9c1.8-0.2,37.6-4.7,61,0c1.4,0.4,31.3,9.2,36.8,36.8c4,20.1,6.9,28.7,9.9,37.8c1.8,5.4,3.7,11,6,19.4
			l0,0c3.3,12.3,2.5,38.2-13.4,59C252.2,298.3,228,308.4,197,308.4z M201.3,127.6c-17.6,0-33.9,2-34.2,2c-0.1,0-29.7,8.4-33.9,34.1
			c-2.9,17.4-6.1,27-9.6,37.1c-2,6-4.2,12.1-6.4,20.3c-3.1,11.7-2.3,36.2,12.8,56c14.1,18.5,36.7,27.8,67,27.8s52.9-9.4,67-27.8
			c15.1-19.8,16-44.3,12.8-56l0,0c-2.2-8.2-4.1-13.8-5.9-19.2c-3.1-9.2-6-17.9-10.1-38.2c-5.1-25.6-33.9-34.1-34.2-34.2
			C219.2,128.1,210.1,127.6,201.3,127.6z"/>
	</g>
	<g>
		<g>
			<path style="fill:#D6D6D6;" d="M158.8,191.6c-2.1,2.2-2.2,5.5-0.6,7.9c-2.5-1.5-5.7-1.1-7.8,1.1c-2.4,2.5-2.2,6.5,0.3,8.8
				c2.5,2.4,6.5,2.2,8.8-0.3c0.2-0.2,0.3-0.4,0.4-0.6l20.9,19.6l6.9-7.3l-21-19.7c0.4-0.3,0.8-0.6,1.2-1c2.4-2.5,2.2-6.5-0.3-8.8
				C165.1,188.9,161.2,189,158.8,191.6z"/>
			<path d="M180.9,229.8c-0.4,0-0.8-0.2-1.2-0.5l-19.6-18.4c-1.3,1.1-3,1.8-4.8,1.8c-2,0.1-4.1-0.7-5.7-2.1c-3.2-3-3.4-8.1-0.4-11.3
				c1.7-1.8,4-2.6,6.3-2.5c-0.3-2.3,0.4-4.7,2.1-6.4l0,0c3-3.2,8.1-3.4,11.3-0.4c1.6,1.5,2.4,3.4,2.5,5.6c0.1,2.1-0.6,4-2,5.6
				l19.6,18.4c0.7,0.6,0.7,1.7,0.1,2.4l-6.9,7.3C181.8,229.6,181.3,229.8,180.9,229.8z M160,206.8c0.4,0,0.8,0.2,1.2,0.5l19.6,18.4
				l4.5-4.8l-19.7-18.5c-0.4-0.4-0.6-0.9-0.5-1.4c0-0.5,0.3-1,0.8-1.3c0.4-0.2,0.6-0.5,0.9-0.7c0.8-0.9,1.3-2,1.2-3.3
				c0-1.2-0.5-2.3-1.4-3.2c-1.8-1.7-4.7-1.6-6.4,0.2l0,0c-1.5,1.6-1.6,4-0.4,5.7c0.5,0.7,0.4,1.6-0.2,2.1c-0.6,0.6-1.4,0.7-2.1,0.3
				c-1.8-1.1-4.2-0.8-5.7,0.8c-1.7,1.8-1.6,4.7,0.2,6.4c0.9,0.8,2,1.3,3.3,1.2c1.2,0,2.3-0.5,3.2-1.4l0.3-0.4
				C159.1,207,159.5,206.8,160,206.8C159.9,206.8,160,206.8,160,206.8z M158.8,191.6L158.8,191.6L158.8,191.6z"/>
		</g>
		<g>
			<path style="fill:#D6D6D6;" d="M231.2,191.6c2.1,2.2,2.2,5.5,0.6,7.9c2.5-1.5,5.7-1.1,7.8,1.1c2.4,2.5,2.2,6.5-0.3,8.8
				c-2.5,2.4-6.5,2.2-8.8-0.3c-0.2-0.2-0.3-0.4-0.4-0.6l-20.9,19.6l-6.9-7.3l21-19.7c-0.4-0.3-0.8-0.6-1.2-1
				c-2.4-2.5-2.2-6.5,0.3-8.8C224.9,188.9,228.8,189,231.2,191.6z"/>
			<path d="M209.1,229.8c-0.5,0-0.9-0.2-1.2-0.5L201,222c-0.6-0.7-0.6-1.8,0.1-2.4l19.6-18.4c-1.4-1.5-2.1-3.5-2-5.6s1-4.1,2.5-5.6
				c3.2-3,8.3-2.8,11.3,0.4c1.7,1.8,2.4,4.1,2.1,6.4c2.3-0.1,4.6,0.7,6.3,2.5c3,3.2,2.8,8.3-0.4,11.3c-1.6,1.5-3.6,2.2-5.7,2.1
				c-1.8-0.1-3.5-0.7-4.8-1.8l-19.6,18.4C210,229.6,209.5,229.8,209.1,229.8z M204.7,220.8l4.5,4.8l19.6-18.4
				c0.4-0.3,0.8-0.5,1.3-0.5s0.9,0.3,1.2,0.7l-0.9,1.5l0,0l1.2-1.1c0.8,0.9,2,1.4,3.2,1.4c1.3,0.1,2.4-0.4,3.3-1.2
				c1.8-1.7,1.9-4.6,0.2-6.4c-1.5-1.6-3.9-1.9-5.7-0.8c-0.7,0.4-1.6,0.3-2.1-0.3c-0.6-0.6-0.6-1.5-0.2-2.1c1.2-1.8,1.1-4.2-0.4-5.7
				l0,0c-1.7-1.8-4.6-1.9-6.4-0.2c-0.9,0.8-1.4,2-1.4,3.2s0.4,2.4,1.2,3.3c0.2,0.2,0.5,0.5,0.9,0.7c0.4,0.3,0.7,0.8,0.8,1.3
				c0,0.5-0.1,1-0.5,1.4L204.7,220.8z"/>
		</g>
		<g>
			<path style="fill:#D6D6D6;" d="M158.8,272.4c-2.1-2.2-2.2-5.5-0.6-7.9c-2.5,1.5-5.7,1.1-7.8-1.1c-2.4-2.5-2.2-6.5,0.3-8.8
				c2.5-2.4,6.5-2.2,8.8,0.3c0.2,0.2,0.3,0.4,0.4,0.6l20.9-19.6l6.9,7.3l-21,19.7c0.4,0.3,0.8,0.6,1.2,1c2.4,2.5,2.2,6.5-0.3,8.8
				C165.1,275,161.2,274.9,158.8,272.4z"/>
			<path d="M163.4,276.1c-2.1,0-4.2-0.8-5.8-2.5l0,0c-1.7-1.8-2.4-4.1-2.1-6.4c-2.3,0.1-4.6-0.7-6.3-2.5c-3-3.2-2.8-8.3,0.4-11.3
				c1.6-1.5,3.6-2.2,5.7-2.1c1.8,0.1,3.5,0.7,4.8,1.8l19.6-18.4c0.3-0.3,0.8-0.5,1.2-0.5c0.5,0,0.9,0.2,1.2,0.5l6.9,7.3
				c0.6,0.7,0.6,1.8-0.1,2.4l-19.6,18.4c2.9,3.2,2.7,8.2-0.5,11.1C167.3,275.4,165.3,276.1,163.4,276.1z M160.1,271.2
				c1.7,1.8,4.6,1.9,6.4,0.2c1.8-1.7,1.9-4.6,0.2-6.4c-0.2-0.2-0.5-0.5-0.9-0.7c-0.4-0.3-0.7-0.8-0.8-1.3c0-0.5,0.1-1,0.5-1.4
				l19.7-18.5l-4.5-4.8l-19.6,18.4c-0.4,0.3-0.8,0.5-1.3,0.5s-0.9-0.3-1.2-0.7l0.9-1.5l0,0l-1.2,1.1c-0.8-0.9-2-1.4-3.2-1.4
				c-1.3-0.1-2.4,0.4-3.3,1.2c-1.8,1.7-1.9,4.6-0.2,6.4c1.5,1.6,3.8,1.9,5.7,0.8c0.7-0.4,1.6-0.3,2.1,0.3c0.6,0.6,0.6,1.5,0.2,2.1
				C158.4,267.3,158.6,269.7,160.1,271.2L160.1,271.2z"/>
		</g>
		<g>
			<path style="fill:#D6D6D6;" d="M231.2,272.4c2.1-2.2,2.2-5.5,0.6-7.9c2.5,1.5,5.7,1.1,7.8-1.1c2.4-2.5,2.2-6.5-0.3-8.8
				c-2.5-2.4-6.5-2.2-8.8,0.3c-0.2,0.2-0.3,0.4-0.4,0.6l-20.9-19.6l-6.9,7.3l21,19.7c-0.4,0.3-0.8,0.6-1.2,1
				c-2.4,2.5-2.2,6.5,0.3,8.8C224.9,275,228.8,274.9,231.2,272.4z"/>
			<path d="M226.6,276.1c-2,0-3.9-0.7-5.4-2.1c-1.6-1.5-2.4-3.4-2.5-5.6c-0.1-2.1,0.6-4,2-5.6l-19.6-18.4c-0.7-0.6-0.7-1.7-0.1-2.4
				l6.9-7.3c0.3-0.3,0.7-0.5,1.2-0.5s0.9,0.1,1.2,0.5l19.6,18.4c1.4-1.1,3-1.8,4.8-1.8c2.1,0,4.2,0.7,5.7,2.1
				c3.2,3,3.4,8.1,0.4,11.3c-1.7,1.8-4,2.6-6.3,2.5c0.3,2.3-0.4,4.7-2.1,6.4l0,0C230.9,275.2,228.7,276.1,226.6,276.1z M204.7,243.1
				l19.7,18.5c0.4,0.4,0.6,0.9,0.5,1.4c0,0.5-0.3,1-0.8,1.3c-0.4,0.2-0.6,0.5-0.9,0.7c-0.8,0.9-1.3,2-1.2,3.3c0,1.2,0.5,2.3,1.4,3.2
				c1.8,1.7,4.7,1.6,6.4-0.2c1.5-1.6,1.6-4,0.4-5.7c-0.5-0.7-0.4-1.6,0.2-2.1c0.5-0.6,1.4-0.7,2.1-0.3c1.8,1.1,4.2,0.8,5.7-0.8
				c1.7-1.8,1.6-4.7-0.2-6.4c-0.9-0.8-2-1.3-3.3-1.2c-1.2,0-2.3,0.5-3.2,1.4c-0.1,0.1-0.1,0.1-0.2,0.2c-0.3,0.4-0.8,0.7-1.3,0.8
				c-0.5,0.1-1,0-1.4-0.4L209,238.4L204.7,243.1z M231.2,272.4L231.2,272.4L231.2,272.4z"/>
		</g>
		<g>
			<path style="fill:#D6D6D6;" d="M216.7,247.4c0,11.8-9.7,21.4-21.7,21.4s-21.7-9.6-21.7-21.4v-11.2h43.4L216.7,247.4L216.7,247.4z
				"/>
			<path d="M195,270.5c-12.9,0-23.4-10.4-23.4-23.1v-11.2c0-0.9,0.8-1.7,1.7-1.7h43.4c0.9,0,1.7,0.8,1.7,1.7v11.2
				C218.4,260.1,207.9,270.5,195,270.5z M175,237.8v9.5c0,10.9,9,19.7,20,19.7s20-8.8,20-19.7v-9.5H175z"/>
		</g>
		<g>
			<path style="fill:#D6D6D6;" d="M171,223.5c0-13.1,10.7-23.6,24-23.6s24,10.6,24,23.6v12.4h-48V223.5z"/>
			<path d="M219,237.6h-48c-0.9,0-1.7-0.8-1.7-1.7v-12.4c0-14,11.5-25.3,25.7-25.3s25.7,11.4,25.7,25.3v12.4
				C220.7,236.8,219.9,237.6,219,237.6z M172.7,234.2h44.5v-10.7c0-12.1-10-21.9-22.3-21.9s-22.3,9.8-22.3,21.9v10.7H172.7z"/>
		</g>
		<g>
			<g>
				<path style="fill:#E0E0E0;" d="M187,260.6h-5.6c-0.4,0-0.7-0.3-0.7-0.7v-6.7c0-0.4,0.3-0.7,0.7-0.7h5.6c0.4,0,0.7,0.3,0.7,0.7
					v6.7C187.7,260.3,187.4,260.6,187,260.6z"/>
				<path d="M185.6,262.3h-2.9c-2.1,0-3.8-1.7-3.8-3.8v-3.9c0-2.1,1.7-3.8,3.8-3.8h2.9c2.1,0,3.8,1.7,3.8,3.8v3.9
					C189.4,260.6,187.7,262.3,185.6,262.3z M182.8,254.2c-0.2,0-0.4,0.2-0.4,0.4v3.9c0,0.2,0.2,0.4,0.4,0.4h2.9
					c0.2,0,0.4-0.2,0.4-0.4v-3.9c0-0.2-0.2-0.4-0.4-0.4L182.8,254.2L182.8,254.2z"/>
			</g>
			<g>
				<path style="fill:#E0E0E0;" d="M208.6,260.6H203c-0.4,0-0.7-0.3-0.7-0.7v-6.7c0-0.4,0.3-0.7,0.7-0.7h5.6c0.4,0,0.7,0.3,0.7,0.7
					v6.7C209.4,260.3,209,260.6,208.6,260.6z"/>
				<path d="M207.2,262.3h-2.9c-2.1,0-3.8-1.7-3.8-3.8v-3.9c0-2.1,1.7-3.8,3.8-3.8h2.9c2.1,0,3.8,1.7,3.8,3.8v3.9
					C211.1,260.6,209.4,262.3,207.2,262.3z M204.4,254.2c-0.2,0-0.4,0.2-0.4,0.4v3.9c0,0.2,0.2,0.4,0.4,0.4h2.9
					c0.2,0,0.4-0.2,0.4-0.4v-3.9c0-0.2-0.2-0.4-0.4-0.4L204.4,254.2L204.4,254.2z"/>
			</g>
		</g>
		<g>
			<path style="fill:#D6D6D6;" d="M226.7,240.8c0,12.6-14.2,15.2-31.7,15.2s-31.7-2.5-31.7-15.2c0-12.6,14.2-22.9,31.7-22.9
				S226.7,228.1,226.7,240.8z"/>
			<path d="M195,257.7c-15.6,0-33.4-1.9-33.4-16.9c0-13.6,15-24.6,33.4-24.6s33.4,11,33.4,24.6C228.4,255.7,210.6,257.7,195,257.7z
				 M195,219.6c-16.6,0-30,9.5-30,21.2c0,9.4,9,13.5,30,13.5s30-4,30-13.5C225,229.1,211.6,219.6,195,219.6z"/>
		</g>
		<circle cx="180.6" cy="225.2" r="2"/>
		<circle cx="209.4" cy="225.2" r="2"/>
		<ellipse transform="matrix(0.5 -0.866 0.866 0.5 -93.2343 266.7852)" cx="184.4" cy="214.1" rx="5.1" ry="6"/>
		<ellipse transform="matrix(0.866 -0.5 0.5 0.866 -79.4915 131.4813)" cx="205.6" cy="214.1" rx="6" ry="5.1"/>
	</g>
</g>
<g>
	<g>
		<path style="fill:#A60918;" d="M151.6,174.2l43.4,17l43.4-14.2l10.8-35.3c-3.8-1.7-25.2-10.5-54.1-7.8H195
			c-28.9-2.7-50.3,6.1-54.1,7.8L151.6,174.2z"/>
		<path d="M194.9,193.3L150,175.7l-11.6-35.1l1.6-0.7c4-1.8,25.7-10.7,55-8c29.3-2.7,50.9,6.2,55,8l1.6,0.7l-11.6,38L194.9,193.3z
			 M153.2,172.7l41.9,16.4l41.7-13.7l10-32.6c-6.4-2.6-25.9-9.3-51.5-6.9l-0.4,0l-0.1,0c-25.5-2.4-45,4.3-51.4,6.9L153.2,172.7z"/>
	</g>
	<ellipse style="fill:#E85C61;" cx="196.2" cy="187.9" rx="35.1" ry="21"/>
</g>
<g>
	<path style="fill:#A8A8A8;" d="M141.9,175.1c-3.1,1.5-5,4-3.2,7.7c3.1,6.2,9.9,11.8,15.4,15.7c12.5,8.8,27.8,12.9,42.9,12.9
		c15.3,0,30.7-4.2,43.2-13.1c4.4-3.1,14.1-10,14.8-15.9c0.9-7.7-11.6-8.7-16.8-8c-5.4,0.7-10.5,2.7-15.7,4.4
		c-16.1,5.3-34,7.2-50,1.3c-6.3-2.3-12.2-5.7-18.8-6.8C150.5,172.9,145.4,173.4,141.9,175.1z"/>
	<path d="M197,213c-16.2,0-31.8-4.7-43.9-13.2c-8.1-5.7-13.3-11.1-15.9-16.3c-1-1.9-1.1-3.8-0.6-5.4c0.6-1.9,2.2-3.4,4.5-4.6l0,0
		c3.9-1.9,9.4-2.4,12.8-1.8c4.7,0.7,9,2.6,13.2,4.4c2,0.8,4,1.7,6,2.4c17.5,6.4,36.3,2.8,48.9-1.4c1-0.3,2.1-0.7,3.1-1.1
		c4.1-1.4,8.4-2.9,12.9-3.5c4.4-0.6,12.7,0,16.6,3.8c1.7,1.6,2.4,3.7,2.1,6.1c-0.7,6.5-10.6,13.6-15.4,17
		C229.1,208.3,213.4,213,197,213z M142.6,176.6c-1,0.5-2.4,1.4-2.8,2.6c-0.3,0.8-0.1,1.7,0.4,2.8c2.3,4.6,7.3,9.7,14.9,15
		c11.5,8.1,26.4,12.6,41.9,12.6c15.7,0,30.7-4.5,42.2-12.8c3.8-2.7,13.5-9.6,14.1-14.7c0.1-1.3-0.2-2.4-1.1-3.3
		c-2.8-2.8-9.9-3.4-13.8-2.9c-4.1,0.5-8.3,1.9-12.2,3.3c-1.1,0.4-2.1,0.7-3.2,1.1c-13.1,4.3-32.7,8-51.1,1.3
		c-2.1-0.8-4.2-1.7-6.1-2.5c-4.2-1.8-8.1-3.5-12.3-4.2C150.6,174.7,145.9,175,142.6,176.6L142.6,176.6z"/>
</g>
<g>
	<g>
		<g>
			<path style="fill:#E0E0E0;" d="M161.3,157.9h-13c-1,0-1.7-0.8-1.7-1.7v-15.4c0-1,0.8-1.7,1.7-1.7h13c1,0,1.7,0.8,1.7,1.7v15.4
				C163,157.2,162.2,157.9,161.3,157.9z"/>
			<path d="M158.1,159.6h-6.6c-3.6,0-6.6-3-6.6-6.6v-9c0-3.6,3-6.6,6.6-6.6h6.6c3.6,0,6.6,3,6.6,6.6v9
				C164.7,156.7,161.7,159.6,158.1,159.6z M151.5,140.8c-1.8,0-3.2,1.4-3.2,3.2v9c0,1.8,1.4,3.2,3.2,3.2h6.6c1.8,0,3.2-1.4,3.2-3.2
				v-9c0-1.8-1.4-3.2-3.2-3.2H151.5z"/>
		</g>
		<g>
			<path style="fill:#E0E0E0;" d="M246.2,157.9h-13c-1,0-1.7-0.8-1.7-1.7v-15.4c0-1,0.8-1.7,1.7-1.7h13c1,0,1.7,0.8,1.7,1.7v15.4
				C247.9,157.2,247.2,157.9,246.2,157.9z"/>
			<path d="M243.1,159.6h-6.6c-3.6,0-6.6-3-6.6-6.6v-9c0-3.6,3-6.6,6.6-6.6h6.6c3.6,0,6.6,3,6.6,6.6v9
				C249.7,156.7,246.7,159.6,243.1,159.6z M236.4,140.8c-1.8,0-3.2,1.4-3.2,3.2v9c0,1.8,1.4,3.2,3.2,3.2h6.6c1.8,0,3.2-1.4,3.2-3.2
				v-9c0-1.8-1.4-3.2-3.2-3.2H236.4z"/>
		</g>
	</g>
	<g>
		<path style="fill:#A8A8A8;" d="M247.2,76.5c0.3-1.2,0.6-2.5,0.6-3.8c0-7.6-6.2-13.7-13.7-13.7c-4.1,0-7.7,1.8-10.2,4.6
			c-9-3.3-18.7-5.1-28.8-5.1c-10.2,0-19.9,1.8-28.8,5.1c-2.5-2.8-6.1-4.6-10.2-4.6c-7.6,0-13.7,6.2-13.7,13.7c0,1.3,0.2,2.6,0.6,3.8
			c-18,13.8-29.3,22.5-29.3,42.7v3.2c0,12.6,13.1,18.2,23.4,21.1c25.7,7.3,52.7,9.7,79.2,6.7c13.7-1.6,27.2-4.6,40.3-8.9
			c9.4-3.1,19.7-7.4,19.7-18.9v-3.2C276.3,99,265,90.3,247.2,76.5z"/>
		<path d="M193.5,153.1c-19,0-38.1-2.7-56.9-8c-6.1-1.7-24.7-7-24.7-22.7v-3.2c0-20.7,11.5-29.9,28.9-43.4c-0.2-1.1-0.4-2.1-0.4-3.1
			c0-8.5,6.9-15.5,15.5-15.5c4,0,7.8,1.6,10.7,4.4c18.4-6.4,38.4-6.4,56.7,0c2.9-2.8,6.7-4.4,10.7-4.4c8.5,0,15.5,6.9,15.5,15.5
			c0,1-0.1,2-0.4,3.1c17.4,13.5,28.9,22.7,28.9,43.4v3.2c0,13.7-13.6,18.1-20.9,20.5c-13.3,4.4-27,7.4-40.7,8.9
			C208.9,152.7,201.2,153.1,193.5,153.1z M155.9,60.7c-6.6,0-12,5.4-12,12c0,1,0.2,2,0.5,3.3l0.3,1.1l-1.2,0.9
			c-17.6,13.7-28.2,21.9-28.2,41.2v3.2c0,8.9,7.3,15.2,22.2,19.5c26,7.4,52.4,9.6,78.6,6.6c13.4-1.5,26.9-4.5,40-8.8
			c9-2.9,18.5-6.9,18.5-17.3v-3.2c0-19.3-10.6-27.5-28.2-41.2l-1.2-0.9l0.3-1.1c0.4-1.2,0.5-2.3,0.5-3.3c0-6.6-5.4-12-12-12
			c-3.4,0-6.6,1.4-8.9,4.1l-0.8,0.9l-1.1-0.4c-18.3-6.6-38.2-6.6-56.5,0l-1.1,0.4l-0.8-0.9C162.6,62.1,159.4,60.7,155.9,60.7z"/>
	</g>
	<g>
		<g>
			<circle style="fill:#454545;" cx="155.5" cy="72.5" r="4.8"/>
			<path d="M155.5,79c-3.6,0-6.5-2.9-6.5-6.5s2.9-6.5,6.5-6.5s6.5,2.9,6.5,6.5S159,79,155.5,79z M155.5,69.5c-1.7,0-3.1,1.4-3.1,3.1
				s1.4,3.1,3.1,3.1s3.1-1.4,3.1-3.1C158.5,70.8,157.2,69.5,155.5,69.5z"/>
		</g>
		<g>
			<circle style="fill:#454545;" cx="234.5" cy="72.5" r="4.8"/>
			<path d="M234.5,79c-3.6,0-6.5-2.9-6.5-6.5s2.9-6.5,6.5-6.5s6.5,2.9,6.5,6.5S238.1,79,234.5,79z M234.5,69.5
				c-1.7,0-3.1,1.4-3.1,3.1s1.4,3.1,3.1,3.1s3.1-1.4,3.1-3.1C237.6,70.8,236.2,69.5,234.5,69.5z"/>
		</g>
	</g>
</g>
</svg>
