<?xml version="1.0" encoding="utf-8"?>
<!-- Generator: Adobe Illustrator 24.1.1, SVG Export Plug-In . SVG Version: 6.00 Build 0)  -->
<svg version="1.1" id="Layer_1" xmlns="http://www.w3.org/2000/svg" xmlns:xlink="http://www.w3.org/1999/xlink" x="0px" y="0px"
	 viewBox="0 0 155 240" style="enable-background:new 0 0 155 240;" xml:space="preserve">
<g>
	<path style="fill:#FFFFFF;" d="M96.2,156.11v33.46c0,0-2.48,0.62-5.79,0.62c-3.3,0-5.79-0.62-5.79-0.62v-33.46
		c0-2.2,5.36-4.01,7.6-4.01C94.42,152.1,96.2,153.91,96.2,156.11z"/>
	<path style="fill-rule:evenodd;clip-rule:evenodd;fill:#009FF9;" d="M111.93,221.28c-2.94,3.36-7.71,2.8-11.66,2.8H89.62v-0.08
		c-2.23-0.42-5-2.09-5-4.09v-30.32c0,0,2.48,0.62,5.79,0.62c3.3,0,5.79-0.62,5.79-0.62v12.76c1.13-0.03,2.34,0.06,3.78,0.34
		c0.03,0,0.28,0.06,0.28,0.06c5.08,1.1,9.49,4.52,11.83,9.15C113.4,214.39,113.93,218.96,111.93,221.28z"/>
	<path d="M92.21,152.12c2.21,0,4,1.79,4,4v29.62v3.84v12.75c0.08,0,0.16,0,0.25,0c1.04,0,2.19,0.08,3.52,0.34
		c0.05,0.01,0.28,0.06,0.28,0.06c5.08,1.1,9.5,4.51,11.85,9.14c1.27,2.51,1.83,7.11-0.17,9.41c-2.21,2.53-5.47,2.85-8.63,2.85
		c-1.04,0-2.07-0.03-3.04-0.03h-4.05H93.5h-2.89h-0.99v-0.1c-2.25-0.41-5.01-2.09-5.01-4.1v-34.15h0v-29.62
		C84.63,153.9,90,152.12,92.21,152.12 M92.21,148.73c-2.32,0-10.97,1.85-10.97,7.39v29.62l0,34.15c0,3.61,3.44,6.31,6.94,7.24
		c0.44,0.22,0.93,0.34,1.45,0.34h0.99h2.89h2.71h4.05c0.46,0,0.94,0.01,1.42,0.02c0.54,0.01,1.08,0.02,1.62,0.02
		c3.8,0,8.11-0.48,11.19-4.01c3.2-3.66,2.3-9.9,0.64-13.17c-2.81-5.53-8.1-9.61-14.15-10.92l-0.22-0.05
		c-0.4-0.08-0.78-0.14-1.16-0.2v-9.59v-3.84v-29.62C99.6,152.04,96.28,148.73,92.21,148.73L92.21,148.73z"/>
</g>
<g>
	<path style="fill:#FFFFFF;" d="M70.14,161.22v33.46c-0.28,0.08-2.68,0.62-5.79,0.62c-3.3,0-5.79-0.62-5.79-0.62v-33.46
		c0-2.2,1.81-4.01,4.01-4.01C64.77,157.21,70.14,159.02,70.14,161.22z"/>
	<path style="fill-rule:evenodd;clip-rule:evenodd;fill:#009FF9;" d="M70.17,194.68v30.32c0,2-2.77,3.67-5.03,4.09v0.08H54.52
		c-3.95,0-8.75,0.56-11.69-2.8c-2-2.32-1.44-6.89-0.17-9.4c2.34-4.63,6.78-8.05,11.86-9.15c0,0,0.23-0.06,0.28-0.06
		c1.44-0.28,2.65-0.37,3.76-0.34v-12.76c0,0,2.48,0.62,5.79,0.62c3.11,0,5.51-0.54,5.79-0.62
		C70.17,194.68,70.17,194.68,70.17,194.68z"/>
	<path d="M62.57,157.23c2.21,0,7.58,1.79,7.58,4v29.62h0V225c0,2.01-2.76,3.69-5.01,4.1v0.1h-0.99h-2.89h-2.71h-4.05
		c-0.98,0-2.01,0.03-3.04,0.03c-3.16,0-6.42-0.31-8.63-2.85c-2.01-2.3-1.45-6.9-0.17-9.41c2.35-4.63,6.77-8.04,11.85-9.14
		c0,0,0.23-0.05,0.28-0.06c1.34-0.26,2.48-0.34,3.52-0.34c0.08,0,0.17,0,0.25,0v-12.75v-3.84v-29.62
		C58.57,159.02,60.36,157.23,62.57,157.23 M62.57,153.84c-4.07,0-7.39,3.31-7.39,7.39v29.62v3.84v9.59
		c-0.34,0.05-0.68,0.11-1.03,0.18l-0.39,0.09c-6.01,1.3-11.3,5.38-14.11,10.91c-1.66,3.26-2.56,9.51,0.64,13.17
		c3.08,3.53,7.38,4.01,11.19,4.01c0.55,0,1.09-0.01,1.62-0.02c0.48-0.01,0.96-0.02,1.42-0.02h4.05h2.71h2.89h0.99
		c0.55,0,1.07-0.13,1.54-0.37c3.48-0.95,6.86-3.64,6.86-7.22v-34.15l0-29.62C73.54,155.69,64.89,153.84,62.57,153.84L62.57,153.84z"
		/>
</g>
<g>
	<path style="fill:#FFFFFF;" d="M135.52,123.81c-2.26,2.29-6.75,5-10.96,4.77c-0.06-0.11-0.11-0.25-0.17-0.4
		c-0.34-0.9-0.68-1.81-1.07-2.68c-0.31-0.71-0.62-1.41-0.99-2.09c-0.06-0.11-0.08-0.23-0.14-0.31c-0.4-0.73-0.79-1.47-1.21-2.2
		c-1.52-2.57-14.32-16.86-6.41-18.44c0.2-0.03,0.4-0.06,0.59-0.06c1.95,0,4.07,1.81,5.51,2.82c4.63,3.28,8.27,7.17,11.07,11.52
		c0.42,0.59,0.79,1.21,1.16,1.84C133.91,120.28,134.76,122.03,135.52,123.81z"/>
	<path style="fill:#0088C5;" d="M137.72,155.58c-0.79,1.07-2.23,1.86-3.7,2.34c-0.68,0.23-1.36,0.37-1.98,0.45
		c-0.34,0.03-0.68,0.06-0.99,0.06c-1.04,0-1.86-0.2-2.54-0.59c-0.34-0.2-0.62-0.42-0.88-0.68c-0.42-0.4-0.71-0.85-0.93-1.38
		c-0.06-0.17-0.14-0.34-0.2-0.54c-0.56-1.58-0.59-3.5-0.45-5.25c0.42-5.48,1.19-10.16-0.11-15.59c-0.08-0.34-0.37-2.03-0.71-3.67
		c-0.11-0.37-0.23-0.73-0.34-1.07c-0.11-0.37-0.23-0.73-0.34-1.07c4.21,0.23,8.7-2.48,10.96-4.77l0.11,0.06
		c0.45,0.59,1.69,4.72,2.12,6.13c0.08,0.23,0.11,0.4,0.14,0.45c0.76,2.68,1.3,5.42,1.67,8.19
		C140.24,143.97,141.31,150.72,137.72,155.58z"/>
	<path style="fill:#0088C5;" d="M124.9,129.66c-0.11-0.37-0.25-0.73-0.37-1.07h0.03C124.68,128.92,124.79,129.29,124.9,129.66z"/>
	<path d="M132.9,118.59c0.99,1.69,1.84,3.44,2.6,5.22c0.03,0,0.03,0,0.03,0C134.76,122.03,133.91,120.28,132.9,118.59z"/>
	<path d="M143,138.8l-0.08-0.59c-0.4-2.99-0.99-5.9-1.78-8.67c-1.07-3.87-1.78-6.35-2.82-7.76c-3.47-7.88-8.75-14.37-15.7-19.31
		l-0.56-0.42c-1.72-1.27-4.09-3.02-6.89-3.02c-0.42,0-0.85,0.06-1.24,0.11c-3.22,0.65-4.43,2.68-4.88,3.84
		c-1.78,4.72,2.54,11.04,7.54,17.62c0.62,0.82,1.3,1.75,1.47,2.03c1.61,2.68,2.91,5.7,3.9,8.95c0.2,0.93,0.37,1.84,0.48,2.51
		c0.11,0.54,0.2,0.93,0.23,1.1c0.96,3.98,0.65,7.6,0.28,11.8c-0.08,0.9-0.17,1.81-0.23,2.74c-0.34,4.4,0.45,7.57,2.37,9.66
		c1.02,1.1,2.91,2.43,5.99,2.43c0.42,0,0.9-0.03,1.38-0.08c0.85-0.08,1.75-0.31,2.63-0.59c1.36-0.42,3.84-1.47,5.36-3.53
		C144.7,151.82,143.71,144.31,143,138.8z M137.72,155.58c-0.79,1.07-2.23,1.86-3.7,2.34c-0.68,0.23-1.36,0.37-1.98,0.45
		c-0.34,0.03-0.68,0.06-0.99,0.06c-1.04,0-1.86-0.2-2.54-0.59c-0.34-0.17-0.65-0.42-0.88-0.68c-0.42-0.4-0.71-0.85-0.93-1.38
		c-0.08-0.17-0.17-0.34-0.2-0.54c-0.56-1.58-0.59-3.5-0.45-5.25c0.42-5.48,1.19-10.16-0.11-15.59c-0.08-0.34-0.37-2.03-0.71-3.67
		c-0.23-0.73-0.45-1.44-0.71-2.15c-0.06-0.14-0.82-2.2-1.21-3.08c-0.31-0.71-0.62-1.41-0.99-2.09c-0.06-0.11-0.08-0.23-0.14-0.31
		c-0.4-0.76-0.79-1.47-1.21-2.2c-1.52-2.57-14.32-16.86-6.41-18.44c0.2-0.03,0.4-0.06,0.59-0.06c1.95,0,4.07,1.81,5.51,2.82
		c4.63,3.28,8.27,7.17,11.07,11.52c0.42,0.59,0.82,1.21,1.16,1.84c1.02,1.69,1.86,3.44,2.63,5.22l0.11,0.06
		c0.28,0.31,0.76,1.64,1.21,3.05c0.4,1.19,0.73,2.43,0.9,3.08c0.08,0.23,0.11,0.4,0.14,0.45c0.76,2.68,1.3,5.42,1.67,8.19
		C140.24,143.97,141.31,150.72,137.72,155.58z"/>
</g>
<g>
	<path d="M37.68,110.06c0.14,0,0.28,0.01,0.42,0.03c7.99,1.16-4.03,16.1-5.41,18.75c-1.16,2.22-2.1,4.53-2.86,6.89
		c-0.05,0.14-0.08,0.28-0.12,0.43c-0.29,0.95-0.56,1.9-0.79,2.87c-0.09,0.39-0.18,0.77-0.26,1.16c-0.12,0.54-0.22,1.08-0.32,1.62
		c-0.91,5.29-0.78,10.58,0.42,16.13c0.89,4.13,1.09,8.93-4.5,8.93c-0.21,0-0.42-0.01-0.65-0.02c-0.62-0.04-1.3-0.15-1.98-0.34
		c-1.49-0.4-2.98-1.13-3.82-2.14c-3.85-4.67-3.15-11.47-2.74-16.82c0.21-2.78,0.61-5.54,1.23-8.26c0.14-0.61,1.52-6.77,2.01-6.77
		c0,0,0,0,0,0c0.02,0,0.05,0.01,0.08,0.01c2.62-7.31,7.02-13.97,13.77-19.35C33.57,112.05,35.66,110.06,37.68,110.06 M37.68,106.67
		c-2.96,0-5.43,2.04-7.06,3.39l-0.56,0.46c-6.61,5.27-11.5,11.99-14.53,19.98c-1.06,1.46-1.65,4.09-2.53,8.04
		c-0.63,2.79-1.07,5.74-1.3,8.74l-0.05,0.61c-0.43,5.52-1.03,13.08,3.55,18.63c1.63,1.98,4.18,2.89,5.55,3.26
		c0.89,0.24,1.81,0.39,2.66,0.44c0.3,0.02,0.58,0.03,0.85,0.03c3.59,0,5.57-1.51,6.59-2.78c2.43-3,1.86-7.29,1.22-10.25
		c-1.1-5.1-1.23-9.96-0.39-14.84c0.09-0.47,0.18-0.97,0.29-1.47c0.08-0.37,0.16-0.73,0.24-1.09c0.21-0.89,0.46-1.78,0.73-2.66
		l0.09-0.3c0.74-2.32,1.63-4.46,2.66-6.45c0.16-0.3,0.81-1.26,1.38-2.11c4.63-6.85,8.62-13.37,6.58-17.99
		c-0.5-1.13-1.82-3.1-5.07-3.57C38.28,106.69,37.98,106.67,37.68,106.67L37.68,106.67z"/>
	<path style="fill:#FFFFFF;" d="M32.69,128.84c-1.16,2.2-2.09,4.46-2.82,6.8c-4.15-2.03-8.36-2.88-11.49-3.13
		c2.63-7.31,7.06-13.95,13.81-19.34c1.5-1.19,3.78-3.39,5.93-3.08C46.07,111.25,34.07,126.18,32.69,128.84z"/>
	<path style="fill:#0088C5;" d="M28.76,157.92c0.93,4.29,1.1,9.29-5.14,8.92c-0.62-0.03-1.3-0.14-2-0.34
		c-1.47-0.4-2.96-1.13-3.81-2.15c-3.84-4.66-3.13-11.46-2.74-16.83c0.23-2.77,0.62-5.53,1.24-8.24c0.14-0.62,1.52-6.78,2-6.78
		c0.03,0,0.03,0,0.06,0c3.13,0.25,7.34,1.1,11.49,3.13c-0.59,1.81-1.04,3.61-1.38,5.39C27.41,146.6,27.49,152.1,28.76,157.92z"/>
</g>
<g>
	<path style="fill:#FFFFFF;" d="M56.15,14.64c1.5,0.44,3.01,1.09,4.55,1.95c1.27,0.7,2.46,1.6,3.58,2.53
		c3.59,2.98,8.21,12.37,3.27,16.13c-3.57,2.72-6.87-4.07-8.88-6.03c-4.49-4.4-10.91,0.44-14.39,4.07c-2.8,2.94-7.43,3.05-10.36,0.24
		c-2.93-2.81-3.06-7.46-0.29-10.42c3.44-3.67,7.66-6.8,12.52-8.28C49.77,13.74,52.96,13.71,56.15,14.64z"/>
	<path style="fill:#673101;" d="M45.37,28.43c-0.57-0.16-1.14-0.07-1.67,0.1c0.64-0.38,1.14-1,1.34-1.79
		c0.41-1.58-0.54-3.19-2.1-3.61c-0.73-0.19-1.46-0.06-2.08,0.26c0.55-0.39,0.99-0.94,1.17-1.64c0.41-1.58-0.53-3.2-2.1-3.61
		c-0.14-0.04-0.28-0.02-0.43-0.03c-3.2,2.25-5.37,4.48-5.86,5c-2.77,2.96-2.63,7.61,0.3,10.42c2.92,2.81,7.56,2.7,10.36-0.24
		c0.82-0.86,1.94-1.83,3.15-2.72C47.18,29.56,46.44,28.7,45.37,28.43"/>
	<path d="M51.59,13.98c1.55,0,3.06,0.23,4.56,0.66c1.5,0.44,3.01,1.09,4.55,1.95c1.27,0.7,2.46,1.6,3.58,2.53
		c3.59,2.98,8.21,12.37,3.27,16.13c-0.58,0.44-1.16,0.63-1.72,0.63c-2.89,0-5.48-5.02-7.16-6.66c-1.27-1.25-2.7-1.75-4.17-1.75
		c-2.41,0-4.94,1.35-7.1,3.02c0.01,0.03,0.03,0.06,0.04,0.09c-1.2,0.88-2.31,1.84-3.13,2.7c-0.01,0.01-0.01,0.01-0.02,0.02
		c-1.44,1.52-3.37,2.28-5.3,2.28c-1.82,0-3.64-0.68-5.06-2.04c-1.83-1.76-2.57-4.23-2.19-6.56c0.23-1.4,0.86-2.75,1.9-3.86
		c0.24-0.25,0.89-0.92,1.87-1.81c3.07-2.86,6.62-5.25,10.65-6.47C48.06,14.26,49.85,13.98,51.59,13.98 M51.59,10.59
		c-2.09,0-4.18,0.33-6.42,1.01c-4.15,1.26-8.18,3.69-11.98,7.24c-0.96,0.87-1.67,1.59-2.01,1.94c-1.49,1.59-2.44,3.53-2.79,5.65
		c-0.57,3.51,0.62,7.09,3.19,9.55c2,1.92,4.63,2.98,7.4,2.98c2.92,0,5.74-1.22,7.76-3.33c0.71-0.74,1.67-1.56,2.7-2.32
		c0.23-0.17,0.43-0.36,0.6-0.56c1.71-1.22,3.28-1.89,4.46-1.89c0.69,0,1.25,0.24,1.8,0.78c0.29,0.28,0.82,1,1.29,1.63
		c1.88,2.54,4.47,6.01,8.24,6.01c1.33,0,2.63-0.46,3.77-1.33c2.21-1.69,3.42-4.19,3.49-7.24c0.11-5.26-3.36-11.47-6.64-14.19
		c-1.52-1.26-2.82-2.18-4.1-2.89c-1.81-1-3.53-1.73-5.25-2.23C55.25,10.85,53.45,10.59,51.59,10.59L51.59,10.59z"/>
</g>
<g>
	<path style="fill:#FFFFFF;" d="M99.64,14.64c-1.5,0.44-3.01,1.09-4.55,1.95c-1.27,0.7-2.46,1.6-3.58,2.53
		c-3.59,2.98-8.21,12.37-3.27,16.13c3.57,2.72,6.87-4.07,8.88-6.03c4.49-4.4,10.91,0.44,14.39,4.07c2.8,2.94,7.43,3.05,10.36,0.24
		c2.93-2.81,3.06-7.46,0.29-10.42c-3.44-3.67-7.66-6.8-12.52-8.28C106.02,13.74,102.83,13.71,99.64,14.64z"/>
	<path style="fill:#673101;" d="M110.43,28.43c0.57-0.16,1.14-0.07,1.67,0.1c-0.64-0.38-1.14-1-1.34-1.79
		c-0.41-1.58,0.54-3.19,2.1-3.61c0.73-0.19,1.46-0.06,2.08,0.26c-0.55-0.39-0.99-0.94-1.17-1.64c-0.41-1.58,0.53-3.2,2.1-3.61
		c0.14-0.04,0.28-0.02,0.43-0.03c3.2,2.25,5.37,4.48,5.86,5c2.77,2.96,2.63,7.61-0.3,10.42c-2.92,2.81-7.56,2.7-10.36-0.24
		c-0.82-0.86-1.94-1.83-3.15-2.72C108.61,29.56,109.35,28.7,110.43,28.43"/>
	<path d="M104.2,13.98c1.73,0,3.53,0.28,5.43,0.86c4.03,1.22,7.58,3.61,10.65,6.47c0.97,0.88,1.63,1.55,1.87,1.81
		c1.04,1.11,1.67,2.46,1.9,3.86c0.38,2.33-0.36,4.81-2.19,6.56c-1.42,1.36-3.24,2.04-5.06,2.04c-1.93,0-3.86-0.76-5.3-2.28
		c-0.01-0.01-0.01-0.01-0.02-0.02c-0.82-0.86-1.93-1.81-3.13-2.7c0.01-0.03,0.03-0.06,0.04-0.09c-2.16-1.66-4.69-3.02-7.1-3.02
		c-1.47,0-2.9,0.51-4.17,1.75c-1.68,1.64-4.26,6.66-7.16,6.66c-0.56,0-1.14-0.19-1.72-0.63c-4.94-3.76-0.32-13.15,3.27-16.13
		c1.12-0.93,2.31-1.83,3.58-2.53c1.55-0.85,3.05-1.51,4.55-1.95C101.15,14.2,102.65,13.98,104.2,13.98 M104.2,10.59
		c-1.86,0-3.67,0.26-5.51,0.8c-1.72,0.5-3.43,1.23-5.25,2.23c-1.28,0.71-2.59,1.63-4.11,2.89c-3.28,2.73-6.75,8.93-6.64,14.19
		c0.07,3.05,1.27,5.55,3.48,7.24c1.14,0.87,2.44,1.33,3.77,1.33c3.78,0,6.36-3.47,8.24-6.01c0.47-0.63,1-1.34,1.29-1.63
		c0.55-0.54,1.11-0.78,1.8-0.78c1.18,0,2.74,0.67,4.46,1.89c0.17,0.21,0.37,0.4,0.6,0.56c1.04,0.76,1.99,1.58,2.69,2.32
		c2.02,2.13,4.85,3.34,7.77,3.34c2.77,0,5.4-1.06,7.4-2.99c2.57-2.46,3.76-6.04,3.18-9.55c-0.34-2.11-1.3-4.06-2.77-5.63
		c-0.36-0.37-1.07-1.1-2.07-2c-3.76-3.51-7.79-5.94-11.94-7.2C108.39,10.92,106.29,10.59,104.2,10.59L104.2,10.59z"/>
</g>
<g>
	<g>
		<g>
			<path style="fill-rule:evenodd;clip-rule:evenodd;fill:#009FF9;" d="M125.7,138.44c0.45,8.44-1.64,20.84-7.26,28.09
				c-6.64,8.58-18.75,14.17-33.2,15.33c-1.72,0.14-3.61,0.23-5.42,0.23h-3.84c-1.81,0-3.7-0.08-5.42-0.23
				c-14.46-1.16-26.57-6.75-33.2-15.33c-5.62-7.26-7.71-19.65-7.26-28.09c0.25-4.72,1.3-9.49,2.29-14.12
				c0.54-2.37,1.04-4.72,1.47-7.09c0.45-2.65,0.17-7.57,0.14-7.82c-0.34-3.67-1.41-7.12-2.46-10c-4.07-11.35-4.74-21.97-2.17-33.4
				c2.34-10.33,7.26-19.09,13.44-24.06C53.19,33.68,65.19,28.97,75.86,29l2.03-0.03L79.93,29h0.08c10.62,0,22.62,4.72,32.98,12.96
				c6.18,4.97,11.1,13.72,13.44,24.06c2.57,11.44,1.89,22.05-2.17,33.4c-1.02,2.88-2.12,6.32-2.46,10.05
				c-0.03,0.11-0.11,1.67-0.11,3.47c0,1.47,0.06,3.11,0.28,4.29c0.4,2.37,0.93,4.72,1.44,7.09
				C124.42,128.95,125.44,133.72,125.7,138.44z"/>
			<path d="M126.71,123.61c-0.51-2.34-1.02-4.66-1.41-6.97c-0.34-1.86-0.2-5.65-0.14-6.92c0.31-3.3,1.33-6.49,2.29-9.15
				c4.24-11.83,4.97-23.38,2.29-35.29c-2.51-11.07-7.85-20.53-14.63-25.95c-10.96-8.72-23.72-13.72-35.1-13.72h-0.08l-2.03-0.03
				l-2.03,0.03h-0.08c-11.38,0-24.14,5-35.07,13.72c-6.8,5.42-12.14,14.88-14.65,25.95c-2.68,11.92-1.95,23.46,2.29,35.29
				c0.96,2.68,1.98,5.84,2.29,9.09c0.06,1.33,0.2,5.11-0.14,6.97c-0.4,2.32-0.9,4.63-1.41,6.97c-1.04,4.74-2.12,9.66-2.37,14.65
				c-0.48,9.35,1.78,22.36,7.96,30.32c7.23,9.35,20.22,15.39,35.6,16.66c1.84,0.14,3.81,0.23,5.7,0.23h3.84
				c1.92,0,3.87-0.08,5.7-0.23c15.39-1.27,28.38-7.31,35.6-16.66c6.18-7.96,8.44-20.98,7.96-30.32
				C128.83,133.27,127.76,128.36,126.71,123.61z M79.81,182.09h-3.84c-1.81,0-3.7-0.08-5.42-0.23c-14.46-1.16-26.57-6.75-33.2-15.33
				c-5.62-7.26-7.71-19.65-7.26-28.09c0.25-4.72,1.3-9.49,2.29-14.12c0.54-2.37,1.04-4.72,1.47-7.09c0.45-2.65,0.17-7.57,0.14-7.82
				c-0.34-3.67-1.41-7.12-2.46-10c-4.07-11.35-4.74-21.97-2.17-33.4c2.34-10.33,7.26-19.09,13.44-24.06
				C53.19,33.68,65.19,28.97,75.86,29l2.03-0.03L79.93,29h0.08c10.62,0,22.62,4.72,32.98,12.96c6.18,4.97,11.1,13.72,13.44,24.06
				c2.57,11.44,1.89,22.05-2.17,33.4c-1.02,2.88-2.12,6.32-2.46,10.05c-0.03,0.11-0.11,1.67-0.11,3.47c0,1.47,0.06,3.11,0.28,4.29
				c0.4,2.37,0.93,4.72,1.44,7.09c1.02,4.63,2.03,9.4,2.29,14.12c0.45,8.44-1.64,20.84-7.26,28.09
				c-6.64,8.58-18.75,14.17-33.2,15.33C83.51,182,81.62,182.09,79.81,182.09z"/>
		</g>
		<path style="fill-rule:evenodd;clip-rule:evenodd;fill:#FFFFFF;" d="M83.99,34.81c4.56,0.6,9.03,1.82,13.1,3.55
			c6.64,2.82,14.39,7.36,17.97,13.73c1.58,2.82,2.66,5.9,3.28,9.06c0.47,2.39-0.12,5.75,1.32,7.8c2.91,4.17,3.58,6.51,4.38,11.71
			c0.75,4.89,0.33,10.11-1.74,14.64c-5.38,11.79-18.42,16.77-30.34,17.15c-1.65,0.05-3.33,0.1-5,0.15
			c-7.75,0.24-15.38,0.1-23.13-0.15c-11.93-0.38-24.96-5.35-30.34-17.15c-2.07-4.53-2.49-9.75-1.74-14.64
			c0.8-5.19,1.47-7.54,4.38-11.71c1.44-2.05,0.85-5.41,1.32-7.8c0.62-3.17,1.69-6.25,3.28-9.06c3.58-6.37,9.53-10.9,16.18-13.73
			c2.69-1.14,5.49-2.02,8.34-2.68C70.83,34.39,78.31,34.07,83.99,34.81z"/>
	</g>
	<g>
		<path style="fill-rule:evenodd;clip-rule:evenodd;fill:#FDBDB8;" d="M59.87,82.49c0,6.95-5.59,12.58-12.49,12.58
			S34.9,89.44,34.9,82.49c0-6.94,5.59-12.57,12.48-12.57S59.87,75.55,59.87,82.49"/>
		<path style="fill-rule:evenodd;clip-rule:evenodd;fill:#FDBDB8;" d="M120.89,82.49c0,6.95-5.59,12.58-12.49,12.58
			c-6.89,0-12.48-5.63-12.48-12.58c0-6.94,5.59-12.57,12.48-12.57C115.3,69.92,120.89,75.55,120.89,82.49"/>
	</g>
</g>
<g>
	<path style="fill-rule:evenodd;clip-rule:evenodd;" d="M80.05,78.45c0,0.91-0.96,1.64-2.15,1.64s-2.16-0.73-2.16-1.64
		c0-0.9,0.96-1.64,2.16-1.64S80.05,77.55,80.05,78.45"/>
	<g>
		<path style="fill-rule:evenodd;clip-rule:evenodd;" d="M90.28,76.5L90.28,76.5c-1.61,0-2.92-1.22-2.92-2.72V73.4
			c0-1.5,1.31-2.72,2.92-2.72c1.61,0,2.93,1.22,2.93,2.72v0.38C93.2,75.28,91.89,76.5,90.28,76.5"/>
		<path style="fill-rule:evenodd;clip-rule:evenodd;" d="M65.51,76.5L65.51,76.5c-1.61,0-2.92-1.22-2.92-2.72V73.4
			c0-1.5,1.31-2.72,2.92-2.72c1.61,0,2.93,1.22,2.93,2.72v0.38C68.44,75.28,67.13,76.5,65.51,76.5"/>
	</g>
	<path style="fill:#231815;" d="M85.37,88.87c-2.73,0-5.44-0.81-7.47-2.14c-3.76,2.47-9.83,3.14-14.03,0.22
		c-1.23-0.85-2.73-2.19-2.88-3.73c-0.08-0.75,0.17-1.46,0.69-2.01c0.64-0.68,1.72-0.7,2.39-0.06c0.51,0.49,0.65,1.22,0.41,1.84
		c0.23,0.29,0.7,0.74,1.32,1.17c3.21,2.23,8.45,1.4,10.99-0.83c0.64-0.56,1.59-0.56,2.23,0c2.54,2.23,7.78,3.06,10.99,0.83
		c0.62-0.43,1.09-0.88,1.32-1.17c-0.24-0.62-0.1-1.35,0.41-1.84c0.68-0.64,1.75-0.62,2.39,0.06c0.52,0.55,0.77,1.26,0.69,2.01
		c-0.16,1.54-1.66,2.88-2.88,3.73C90,88.29,87.68,88.87,85.37,88.87z M91.67,83.56h0.03H91.67z"/>
</g>
</svg>
