<?xml version="1.0" encoding="utf-8"?>
<!-- Generator: Adobe Illustrator 24.1.1, SVG Export Plug-In . SVG Version: 6.00 Build 0)  -->
<svg version="1.1" id="Layer_1" xmlns="http://www.w3.org/2000/svg" xmlns:xlink="http://www.w3.org/1999/xlink" x="0px" y="0px"
	 viewBox="0 0 230 240" style="enable-background:new 0 0 230 240;" xml:space="preserve">
<g>
	<path style="fill:#FFFFFF;" d="M134.72,35.67c-0.47,1.54-3.19,2.63-5.12,2.55l-0.26-0.03c-2.02-0.23-1.78-1.82-3.59-3.62
		c-0.59-0.6-1.17-0.9-1.72-0.96c-1.96-0.22-3.86,2.45-6.73,5.31c-1.7,1.69-3.99,2.41-6.19,2.16c-1.65-0.19-3.26-0.93-4.52-2.21
		c-2.92-2.98-2.93-7.79,0-10.74c5.19-5.24,9.77-9.21,16.35-8.46c0.65,0.07,1.3,0.2,1.97,0.36c2.48,0.6,4.73,1.81,6.38,3.8
		C134.11,27.25,136.07,31.24,134.72,35.67z"/>
	<path style="fill:#683100;" d="M120.75,35.35c-1.04,0.97-2.14,2.25-3.46,3.56c-1.7,1.69-3.99,2.41-6.19,2.16
		c-1.65-0.19-3.26-0.93-4.52-2.21c-2.92-2.98-2.93-7.79,0-10.74c1.83-1.89,3.62-3.57,5.45-4.98l0.03,0
		c0.16,0.02,0.29,0.03,0.44,0.08c0.03,0,0.05,0.01,0.05,0.01c0.39,0.1,0.72,0.21,0.97,0.32c0.1,0.06,0.2,0.13,0.27,0.16
		c0.17,0.13,0.32,0.22,0.46,0.37c0.07,0.06,0.12,0.12,0.19,0.18c0.03,0,0.02,0.03,0.02,0.03c0.69,0.71,1.08,1.66,0.81,2.64
		c-0.21,0.72-0.68,1.28-1.25,1.66c0.65-0.32,1.4-0.42,2.15-0.21c1.59,0.47,2.54,2.17,2.06,3.79c-0.22,0.8-0.77,1.42-1.42,1.8
		c0.41-0.14,0.84-0.2,1.29-0.14l0.05,0.01c0.1,0.01,0.26,0.03,0.36,0.07c0.76,0.09,1.3,0.47,1.68,0.83c0.1,0.06,0.17,0.15,0.21,0.21
		C120.59,35.12,120.71,35.27,120.75,35.35z"/>
	<path d="M133.72,21.82c-2-2.43-4.71-4.06-8.07-4.87c-0.8-0.2-1.58-0.34-2.36-0.43c-8.04-0.91-13.55,3.92-18.94,9.36
		c-4.16,4.19-4.14,11.01-0.01,15.2c1.71,1.76,3.97,2.87,6.41,3.14c3.25,0.37,6.45-0.75,8.76-3.06c0.69-0.66,1.32-1.34,1.89-1.96
		c0.72-0.77,1.66-1.75,2.27-2.23c0.33,0.38,0.55,0.73,0.8,1.15c0.65,1.08,1.71,2.9,4.51,3.22c0.13,0.01,0.29,0.03,0.45,0.02
		c2.74,0.15,7.25-1.27,8.32-4.78C139.22,31.78,137.85,26.8,133.72,21.82z M134.72,35.67c-0.47,1.54-3.19,2.63-5.12,2.55l-0.26-0.03
		c-2.02-0.23-1.78-1.82-3.59-3.62c-0.59-0.6-1.17-0.9-1.72-0.96c-1.07-0.12-2.11,0.61-3.28,1.75c-1.04,0.97-2.14,2.25-3.46,3.56
		c-1.7,1.69-3.99,2.41-6.19,2.16c-1.65-0.19-3.26-0.93-4.52-2.21c-2.92-2.98-2.93-7.79,0-10.74c1.83-1.89,3.62-3.57,5.45-4.98
		l0.03,0c3.26-2.52,6.66-3.96,10.87-3.48c0.65,0.07,1.3,0.2,1.97,0.36c2.48,0.6,4.73,1.81,6.38,3.8
		C134.11,27.25,136.07,31.24,134.72,35.67z"/>
</g>
<g>
	<path style="fill:#FFFFFF;" d="M177.01,27.31c-3.78-3.51-6.59-6.33-10.62-6.8c-1.26-0.15-2.62-0.06-4.2,0.28
		c-2.13,0.52-4.07,1.49-5.45,3.11c-2.42,2.77-4.23,8.1-3.02,11.66c0.18,0.5,0.51,0.67,0.95,0.72c0.68,0.08,1.61-0.18,2.62-0.23
		c1.98-0.12,1.63-1.96,3.24-3.47c0.66-0.64,1.29-0.86,1.92-0.79c1.54,0.18,3.14,2.17,5.42,4.23c1.08,1,2.42,1.55,3.81,1.71
		c1.94,0.22,3.97-0.36,5.43-1.78C179.63,33.55,179.57,29.68,177.01,27.31z"/>
	<path d="M182.14,31.59c-0.03-2.5-1.08-4.87-2.97-6.6l-0.29-0.27l-0.45-0.42c-3.66-3.42-6.85-6.36-11.66-6.92
		c-1.65-0.19-3.39-0.07-5.26,0.35c-2.97,0.69-5.39,2.08-7.13,4.11c-3.06,3.52-5.24,10-3.62,14.75c0.53,1.6,1.87,2.66,3.57,2.85
		c0.78,0.09,1.56,0,2.24-0.11c0.3-0.05,0.59-0.09,0.94-0.1c3.01-0.15,4.09-2.34,4.61-3.36c0.14-0.25,0.23-0.42,0.33-0.6
		c0.48,0.4,1.15,1.06,1.67,1.57c0.14,0.12,0.29,0.27,0.43,0.39c0.38,0.39,0.81,0.78,1.24,1.18c1.51,1.39,3.45,2.26,5.54,2.5
		c2.98,0.35,5.91-0.62,8-2.65C181.18,36.46,182.16,34.11,182.14,31.59z M177.12,35.97c-1.46,1.42-3.49,2.01-5.43,1.78
		c-1.39-0.16-2.73-0.71-3.81-1.71c-1.1-1-2.05-1.99-2.89-2.75c-0.91-0.82-1.72-1.39-2.53-1.49c-0.63-0.07-1.26,0.15-1.92,0.79
		c-1.61,1.51-1.26,3.35-3.24,3.47c-1.01,0.04-1.94,0.31-2.62,0.23c-0.44-0.05-0.77-0.22-0.95-0.72c-1.21-3.56,0.61-8.89,3.02-11.66
		c1.38-1.62,3.32-2.59,5.45-3.11c1.58-0.35,2.94-0.43,4.2-0.28c2.33,0.27,4.25,1.31,6.17,2.84c1.41,1.09,2.84,2.48,4.45,3.96
		C179.57,29.68,179.63,33.55,177.12,35.97z"/>
	<path style="fill:#683100;" d="M177.12,35.97c-1.46,1.42-3.49,2.01-5.43,1.78c-1.39-0.16-2.73-0.71-3.81-1.71
		c-1.1-1-2.05-1.99-2.89-2.75c0.14-0.73,0.97-1.03,1.76-1.25c0.5-0.15,1.02-0.09,1.48,0.04c-0.57-0.31-1.05-0.81-1.24-1.44
		c-0.43-1.32,0.36-2.66,1.73-3.06c0.63-0.19,1.28-0.09,1.86,0.16c-0.52-0.33-0.97-0.75-1.12-1.35c-0.07-0.27-0.07-0.54-0.04-0.77
		c0.06-0.52,0.32-0.97,0.74-1.37c0,0,0.67-0.77,2.38-0.89c1.41,1.09,2.84,2.48,4.45,3.96C179.57,29.68,179.63,33.55,177.12,35.97z"
		/>
</g>
<g>
	<path style="fill-rule:evenodd;clip-rule:evenodd;fill:#009FF8;" d="M127.43,216.67c-0.81,2.35-3.36,5.49-6.04,5.65
		c0,0-0.03,0-0.05,0c-3.92,0.19-6.51-3.19-8.93-5.68l-8.15-8.47l-2.68-2.77c-1.52-1.6-1.5-4.13,0.1-5.66c0,0,6.06-5.84,6.08-5.87
		c0.56-0.77,1.19-1.66,1.87-2.62c0.49-0.69,1-1.41,1.5-2.18c0.99-1.46,1.98-3,2.86-4.51c0.36-0.58,0.69-1.18,0.98-1.72
		c0.14-0.27,0.28-0.55,0.43-0.79l9.73,4.5c-1.47,3.18-3.25,6.38-5.38,9.55c-0.56,0.8-0.23,1.89,0.67,2.26
		c1.46,0.6,3.47,1.92,5.43,4.97c0.03,0.05,0.15,0.23,0.15,0.23C128.39,207.45,128.93,212.36,127.43,216.67z"/>
	<path style="fill:#FFFFFF;" d="M129.83,168.26c-0.02,0.58-0.06,1.14-0.13,1.72c-0.06,0.77-0.17,1.54-0.28,2.31
		c-0.25,1.86-0.64,3.71-1.16,5.59c-0.45,1.66-0.98,3.33-1.62,5.01l-0.81,1.92l-0.71,1.73l-9.73-4.5c0.28-0.55,0.54-1.09,0.75-1.6
		c0.02-0.03,0.02-0.08,0.05-0.11c2.27-5.61,3.22-11.1,2.89-16.44c-0.2-3.31-0.91-6.57-2.11-9.77c-0.7-1.88-0.39-3.83,0.83-5.33
		c0.12-0.17,0.27-0.31,0.42-0.45c0.42-0.42,0.9-0.77,1.44-1.04c0.18-0.09,0.36-0.18,0.54-0.24c0.13-0.06,0.28-0.12,0.44-0.16
		c0.41-0.13,0.86-0.21,1.31-0.24c0.39-0.02,0.79-0.02,1.19,0.06c1.76,0.29,3.15,1.47,3.84,3.25c0.25,0.64,0.48,1.29,0.67,1.94
		c0.3,0.93,0.56,1.84,0.81,2.78c0.48,1.84,0.86,3.7,1.08,5.58c0,0,0,0,0,0.03C129.92,162.92,130,165.58,129.83,168.26z"/>
	<path d="M129.55,160.3c0.32,2.62,0.43,5.28,0.28,7.96C130,165.58,129.92,162.92,129.55,160.3z M128.46,154.69
		c0.48,1.84,0.84,3.72,1.08,5.58C129.32,158.39,128.94,156.54,128.46,154.69z"/>
	<path d="M128.54,201.69c-1.78-2.74-3.62-4.37-5.16-5.36c1.76-2.78,3.32-5.62,4.63-8.44l1.53-3.79c4.56-12.08,4.68-23.89,0.39-35.22
		c-1.07-2.84-3.41-4.81-6.29-5.26c-0.61-0.12-1.25-0.13-1.88-0.1c-2.47,0.15-4.8,1.35-6.4,3.3c-1.94,2.36-2.43,5.51-1.33,8.43
		c2.84,7.56,2.6,15.6-0.79,23.92c-1.1,2.71-3.89,7.18-7.88,12.66c-1.02,0.96-5.88,5.67-5.88,5.67c-1.37,1.33-2.13,3.09-2.17,5.02
		c-0.04,1.9,0.68,3.71,2,5.1l2.65,2.74l8.18,8.47c0.28,0.3,0.56,0.6,0.85,0.92c2.37,2.52,5.6,5.99,10.52,5.74
		c4.66-0.29,7.93-4.93,8.92-7.76c1.79-5.23,1.13-11.16-1.77-15.84L128.54,201.69z M127.43,216.67c-0.81,2.35-3.36,5.49-6.04,5.65
		c0,0-0.03,0-0.05,0c-3.92,0.19-6.51-3.19-8.93-5.68l-8.15-8.47l-2.68-2.77c-1.52-1.6-1.5-4.13,0.1-5.66c0,0,6.06-5.84,6.08-5.87
		c0.56-0.77,1.19-1.66,1.87-2.62c0.49-0.69,1-1.41,1.5-2.18c0.99-1.46,1.98-3,2.86-4.51c0.36-0.58,0.69-1.18,0.98-1.72
		c0.14-0.27,0.28-0.55,0.43-0.79c0.28-0.55,0.54-1.09,0.75-1.6c0.02-0.03,0.02-0.08,0.05-0.11c2.27-5.61,3.22-11.1,2.89-16.44
		c-0.2-3.31-0.91-6.57-2.11-9.77c-0.7-1.88-0.39-3.83,0.83-5.33c0.12-0.17,0.27-0.31,0.42-0.45c0.42-0.42,0.9-0.77,1.44-1.04
		c0.18-0.09,0.36-0.18,0.54-0.24c0.13-0.06,0.28-0.12,0.44-0.16c0.41-0.13,0.86-0.21,1.31-0.24c0.39-0.02,0.79-0.02,1.19,0.06
		c1.76,0.29,3.15,1.47,3.84,3.25c0.25,0.64,0.48,1.29,0.67,1.94c0.3,0.93,0.56,1.84,0.81,2.78c0.48,1.84,0.86,3.7,1.08,5.58
		c0,0,0,0,0,0.03c0.37,2.62,0.46,5.28,0.28,7.96c-0.02,0.58-0.06,1.14-0.13,1.72c-0.06,0.77-0.17,1.54-0.28,2.31
		c-0.25,1.86-0.64,3.71-1.16,5.59c-0.45,1.66-0.98,3.33-1.62,5.01l-0.81,1.92l-0.71,1.73c-1.47,3.18-3.25,6.38-5.38,9.55
		c-0.56,0.8-0.23,1.89,0.67,2.26c1.46,0.6,3.47,1.92,5.43,4.97c0.03,0.05,0.15,0.23,0.15,0.23
		C128.39,207.45,128.93,212.36,127.43,216.67z"/>
</g>
<g>
	<polygon style="fill-rule:evenodd;clip-rule:evenodd;fill:#009FF8;" points="158.86,207.19 158.52,206.37 158.55,206.35 	"/>
	<path style="fill:#FFFFFF;" d="M162.42,185.82l-1.92,0.69c-2.08,0.74-4.45,1.58-6.46,2.27l-1.79,0.61
		c-0.42-1.11-0.69-1.79-0.69-1.79c-0.05-0.13-0.11-0.29-0.16-0.42c-0.18-0.5-0.4-0.98-0.58-1.5c-3-7.7-6.67-16.34-11.83-24.09
		c-1.11-1.63-1.24-3.56-0.4-5.3c0.9-1.79,2.74-3.06,4.74-3.19h0.32c1.69,0,3.21,0.82,4.24,2.35c5.69,8.54,9.62,17.84,13.07,26.7
		c0.21,0.5,0.4,0.98,0.58,1.45L162.42,185.82z"/>
	<path style="fill:#0088C5;" d="M189.96,204.13c-1.24,3.72-5.32,4.9-8.56,6.25l-10.86,4.51l-2.27,0.92
		c-0.13,0.05-0.26,0.11-0.37,0.13c-0.58,0.21-1.13,0.29-1.69,0.29c-0.37,0-0.71-0.03-1.05-0.13c-1.48-0.26-2.82-1.19-3.61-2.58
		c-0.13-0.18-0.24-0.4-0.32-0.61l-0.05-0.16l-2-4.72l-0.32-0.84l-0.32-0.84l-1.74-4.69c-0.53-1.45-1.13-3.06-1.71-4.64
		c-0.16-0.42-0.29-0.82-0.45-1.21c-0.18-0.47-0.37-0.98-0.55-1.48c-0.32-0.9-0.63-1.71-0.92-2.5c-0.08-0.13-0.13-0.26-0.16-0.4
		c-0.26-0.66-0.47-1.24-0.66-1.77c-0.05-0.11-0.08-0.21-0.11-0.29l1.79-0.61c2-0.69,4.37-1.53,6.46-2.27l1.92-0.69
		c0,0,0.58,1.5,1.32,3.35c0.26,0.74,0.58,1.5,0.9,2.27c0.16,0.45,0.32,0.9,0.5,1.32c0.16,0.45,0.32,0.84,0.47,1.21
		c0.05,0.13,0.11,0.26,0.16,0.4c0.03,0.08,0.05,0.16,0.08,0.21c0.26,0.66,0.9,1.03,1.55,1.03c0.34,0,0.74-0.11,1.05-0.34
		c0.03,0,0.03-0.03,0.05-0.05c0.21-0.13,0.42-0.29,0.69-0.42c0.08-0.08,0.18-0.13,0.32-0.21c0.18-0.11,0.37-0.21,0.58-0.29
		c0.29-0.16,0.63-0.32,1-0.45c0.82-0.32,1.77-0.61,2.85-0.82c0.03-0.03,0.24-0.05,0.24-0.05c0.9-0.16,1.79-0.24,2.71-0.24
		c3.64,0,7.25,1.29,10.04,3.69C188.83,198.02,190.83,201.58,189.96,204.13z"/>
	<path d="M188.98,193.99c-3.35-2.85-7.64-4.43-12.1-4.43c-1.11,0-2.21,0.08-3.27,0.29l-0.26,0.05c-2,0.4-3.74,1-5.24,1.82
		c-1.16-2.95-2.77-7.04-2.77-7.04l-1.42-3.69c-0.03-0.08-0.05-0.13-0.08-0.18c-3.27-8.38-7.27-18.05-13.31-27.12
		c-1.61-2.4-4.11-3.77-6.88-3.77h-0.53c-3.08,0.21-5.98,2.16-7.38,4.95c-1.34,2.71-1.11,5.88,0.61,8.46
		c5.4,8.12,9.17,17.37,12.25,25.4c0.03,0,3.11,8.22,5.24,14.02l2.37,6.38c0,0.03,0.03,0.08,0.05,0.13l2.03,4.88
		c1.34,3.19,4.43,5.24,7.91,5.24c1.11,0,2.21-0.21,3.27-0.66l2.27-0.92l10.86-4.53c0.4-0.16,0.76-0.29,1.16-0.45
		c3.22-1.29,7.64-3.03,9.2-7.7C194.44,200.76,191.3,195.99,188.98,193.99z M138.99,161.57c-1.11-1.63-1.24-3.56-0.4-5.3
		c0.9-1.79,2.74-3.06,4.74-3.19h0.32c1.71,0,3.24,0.84,4.24,2.35c5.69,8.54,9.62,17.81,13.07,26.7l0.58,1.45l0.87,2.24
		c0,0,0.58,1.5,1.32,3.35c0.26,0.74,0.58,1.5,0.9,2.27c0.16,0.45,0.32,0.9,0.5,1.32c0.16,0.45,0.32,0.84,0.47,1.21
		c0.05,0.13,0.11,0.26,0.16,0.4c0.03,0.08,0.05,0.16,0.08,0.21c0.26,0.66,0.9,1.03,1.55,1.03c0.34,0,0.74-0.11,1.05-0.34
		c0.03,0,0.03-0.03,0.05-0.05c0.21-0.13,0.42-0.29,0.69-0.42c0.08-0.08,0.18-0.13,0.32-0.21c0.18-0.11,0.37-0.21,0.58-0.29
		c0.29-0.16,0.63-0.32,1-0.45c0.82-0.32,1.77-0.61,2.85-0.82c0.03-0.03,0.24-0.05,0.24-0.05c0.9-0.16,1.79-0.24,2.71-0.24
		c3.64,0,7.25,1.29,10.04,3.69c1.9,1.61,3.9,5.17,3.03,7.72c-1.24,3.72-5.32,4.9-8.56,6.25l-10.86,4.51l-2.27,0.92
		c-0.13,0.05-0.26,0.11-0.37,0.13c-0.58,0.21-1.13,0.29-1.69,0.29c-0.37,0-0.71-0.03-1.05-0.13c-1.48-0.26-2.82-1.19-3.61-2.58
		c-0.13-0.18-0.24-0.4-0.32-0.61l-0.05-0.16l-2-4.72l-0.32-0.84l-0.32-0.84l-1.74-4.69c-0.53-1.45-1.13-3.06-1.71-4.64
		c-0.16-0.42-0.29-0.82-0.45-1.21c-0.18-0.47-0.37-0.98-0.55-1.48c-0.32-0.9-0.63-1.71-0.92-2.5c-0.08-0.13-0.13-0.26-0.16-0.4
		c-0.26-0.66-0.47-1.24-0.66-1.77c-0.05-0.11-0.08-0.21-0.11-0.29c-0.42-1.11-0.69-1.79-0.69-1.79c-0.05-0.13-0.11-0.29-0.16-0.42
		C148.3,179.1,144.47,169.85,138.99,161.57z"/>
</g>
<g>
	<path style="fill:#FFFFFF;" d="M168.62,144.86c-2.55-5.25-3.71-10.77-5.04-16.66c-0.59-2.61-2.56-12.11-7.3-8.77
		c-1.72,1.21-1.85,4.34-2.09,6.21c-0.54,4.08-0.46,8.2,0.18,12.19c0.72,4.48,2.12,8.77,4.02,12.82
		C160.83,148.67,164.34,146.38,168.62,144.86z"/>
	<path style="fill:#0088C5;" d="M182.05,160.14c-0.06-0.04-0.12-0.08-0.18-0.12c-1.61-1.08-3.03-2.19-4.35-3.35
		c-1.88-1.66-3.52-3.44-5.04-5.47c-0.75-1-1.47-2.07-2.18-3.22c-0.63-1.02-1.18-2.06-1.68-3.11c-4.28,1.51-7.79,3.8-10.23,5.79
		c0.92,1.96,1.95,3.87,3.08,5.71c3.24,5.24,7.33,11.03,12.58,14.53c2.55,1.71,6.01,2.08,8.93,0.52c0.61-0.33,1.17-0.7,1.63-1.09
		c1.68-1.41,2.8-3.51,2.28-5.58c-0.1-0.41-0.28-0.77-0.48-1.11C185.45,162.06,183.57,161.18,182.05,160.14z"/>
	<path d="M158.2,118.73c3.38,0,4.89,7.25,5.39,9.48c1.33,5.89,2.49,11.42,5.04,16.66c0.51,1.05,1.05,2.09,1.68,3.11
		c0.71,1.15,1.43,2.21,2.18,3.22c1.52,2.04,3.16,3.82,5.04,5.47c1.32,1.16,2.74,2.27,4.35,3.35c0.06,0.04,0.12,0.08,0.18,0.12
		c1.52,1.04,3.4,1.92,4.35,3.5c0.2,0.34,0.38,0.7,0.48,1.11c0.52,2.07-0.6,4.17-2.28,5.58c-0.46,0.39-1.02,0.76-1.63,1.09
		c-1.26,0.68-2.63,0.99-3.97,0.99c-1.77,0-3.51-0.54-4.96-1.51c-5.24-3.51-9.33-9.29-12.58-14.53c-1.14-1.84-2.17-3.75-3.08-5.71
		c-1.9-4.05-3.31-8.35-4.02-12.82c-0.64-3.99-0.71-8.11-0.18-12.19c0.25-1.88,0.37-5,2.09-6.21
		C156.98,118.94,157.61,118.73,158.2,118.73 M158.2,115.56c-1.27,0-2.53,0.43-3.73,1.28c-2.66,1.87-3.06,5.36-3.32,7.67l-0.09,0.71
		c-0.57,4.34-0.51,8.74,0.19,13.1c0.73,4.57,2.17,9.16,4.28,13.67c0.98,2.1,2.08,4.12,3.26,6.03c3.18,5.13,7.59,11.54,13.51,15.5
		c1.97,1.32,4.35,2.04,6.72,2.04c1.91,0,3.8-0.47,5.47-1.36c0.79-0.42,1.53-0.92,2.16-1.45c2.82-2.36,4.09-5.73,3.32-8.78
		c-0.17-0.67-0.44-1.31-0.84-1.97c-1.12-1.86-2.87-2.95-4.28-3.83c-0.34-0.21-0.67-0.42-0.99-0.64l-0.2-0.14
		c-1.45-0.98-2.77-2-4.03-3.1c-1.71-1.51-3.21-3.14-4.59-4.99c-0.69-0.92-1.35-1.9-2.02-2.99c-0.5-0.8-0.98-1.7-1.53-2.83
		c-2.25-4.63-3.38-9.67-4.58-15.01l-0.22-0.97l-0.05-0.23C165.84,123.77,164,115.56,158.2,115.56L158.2,115.56z"/>
</g>
<g>
	<path d="M143.01,33.39c0.38,0,0.76,0.01,1.14,0.02c0,0,0.08,0,0.2,0l3.46,0.11c10.78,0.31,21.7,5.79,29.96,12.81
		c6.42,5.46,10.21,14.45,11.79,22.61c0.1,0.49,0.15,0.98,0.23,1.47c0.19,0.84,0.36,1.67,0.51,2.5c1.74,9.9-0.85,18.06-4.57,27.28
		c-0.81,2-6.07,11.63-6.19,12.11c-1.81,5.41,0.32,12.5,0.51,18.04c0.35,10.32-0.52,20.84-5.82,29.96
		c-6.69,11.52-19.18,15.08-31.69,15.08c-0.99,0-1.99-0.02-2.98-0.07c-1.62-0.07-3.23-0.21-4.83-0.41c-0.06-0.01-0.13-0.02-0.19-0.03
		l-3.26-0.41c-1.61-0.2-3.27-0.47-4.85-0.8c-10.88-2.27-22.51-7.88-28.37-17.77c-4.24-7.16-4.92-18.31-3.47-26.41
		c1.13-6.32,3.76-12.25,5.65-18.35c0.74-2.39,1.92-4.68,2-7.18c0.02-0.53,0-1.05-0.02-1.58c-0.27-1.16-2.34-9.92-2.73-13.22
		c-1.41-7.58-1.16-15.33,0.82-22.98c2.09-8.04,6.42-16.79,13.16-21.84C121.83,38.08,132.58,33.39,143.01,33.39 M143.01,30.23
		c-10.15,0-21.61,4.22-31.44,11.58c-6.48,4.85-11.7,13.45-14.33,23.58c-2.08,8.02-2.38,16.18-0.88,24.25
		c0.35,2.76,1.66,8.65,2.71,13.16c0.01,0.37,0.02,0.71,0.01,1.05c-0.04,1.27-0.55,2.66-1.09,4.13c-0.27,0.74-0.54,1.47-0.77,2.22
		c-0.6,1.95-1.31,3.95-1.99,5.89c-1.45,4.11-2.95,8.36-3.75,12.84c-1.51,8.43-0.9,20.54,3.86,28.58
		c5.54,9.35,16.64,16.37,30.45,19.26c1.62,0.34,3.38,0.63,5.1,0.85l3.27,0.41l0.18,0.03c1.71,0.21,3.42,0.36,5.1,0.43
		c1.04,0.04,2.08,0.07,3.11,0.07c16.19,0,28.09-5.76,34.42-16.65c6.13-10.55,6.56-22.46,6.25-31.66c-0.07-1.92-0.34-3.98-0.61-5.97
		c-0.52-3.88-1.05-7.89-0.09-10.87c0.24-0.5,1.17-2.27,2-3.84c2.12-4.03,3.67-6.97,4.15-8.18c3.61-8.97,6.69-17.93,4.75-29.01
		c-0.15-0.84-0.32-1.69-0.51-2.54l-0.07-0.46c-0.05-0.34-0.1-0.67-0.17-1.02c-2-10.27-6.68-19.17-12.85-24.42
		c-9.79-8.32-21.42-13.26-31.91-13.56l-3.45-0.11l-0.26,0C143.84,30.23,143.43,30.23,143.01,30.23L143.01,30.23z"/>
	<path style="fill:#009FF9;" d="M185.73,100.18c3.71-9.22,6.31-17.38,4.57-27.28c-0.14-0.83-0.32-1.66-0.51-2.5
		c-0.08-0.49-0.14-0.97-0.23-1.47c-1.58-8.16-5.37-17.15-11.79-22.61c-8.25-7.02-19.17-12.5-29.96-12.81l-3.46-0.11
		c-0.12,0-0.2,0-0.2,0c-10.78-0.36-22.02,4.44-30.69,10.93c-6.75,5.05-11.08,13.79-13.16,21.84c-1.98,7.65-2.23,15.4-0.82,22.98
		c0.4,3.3,2.46,12.06,2.73,13.22c0.02,0.52,0.04,1.05,0.02,1.57c-0.08,2.5-1.26,4.79-2,7.18c-1.89,6.1-4.52,12.04-5.65,18.35
		c-1.45,8.09-0.77,19.25,3.47,26.41c5.86,9.89,17.5,15.5,28.37,17.77c1.58,0.33,3.24,0.6,4.85,0.8l3.26,0.41
		c0.06,0.01,0.12,0.02,0.19,0.03c1.6,0.2,3.22,0.34,4.83,0.41c13.47,0.58,27.44-2.58,34.66-15.01c5.3-9.12,6.17-19.64,5.82-29.96
		c-0.19-5.55-2.31-12.64-0.51-18.04C179.66,111.81,184.92,102.18,185.73,100.18z"/>
</g>
<path style="fill:#009FF8;" d="M147.81,33.52c0,0-0.08,0-0.2-0.01L147.81,33.52z"/>
<g>
	<path style="fill-rule:evenodd;clip-rule:evenodd;fill:#FFFFFF;" d="M198.08,86.89c0.21,6.54-1.84,11.96-6.03,16.15
		c-6.22,6.14-17.42,9.59-30.1,9.09c-31.33-1.13-46.43-12.15-46.2-33.68c0.03-3.03,0.71-18.68,11.02-28.43
		c5.74-5.46,13.52-8.2,23.19-8.2c0.74,0,1.48,0.03,2.27,0.05c36.81,1.58,36.63,28.86,36.6,30.02c0,0.66,0.4,1.26,1,1.53
		C190.17,73.53,197.79,76.64,198.08,86.89z"/>
	<path d="M191.96,70.92c-0.24-5.56-3.4-30.65-39.61-32.2c-11.62-0.5-20.95,2.53-27.75,9.01c-10.96,10.36-11.96,26.12-12.02,30.7
		c-0.26,23.61,15.84,35.66,49.25,36.87c0.82,0.03,1.63,0.05,2.45,0.05c12.65,0,23.48-3.61,29.96-10.07
		c4.88-4.82,7.22-11.04,6.98-18.47C200.95,76.64,194.49,72.26,191.96,70.92z M161.95,112.13c-31.33-1.13-46.43-12.15-46.2-33.68
		c0.03-3.03,0.71-18.68,11.02-28.43c5.74-5.46,13.52-8.2,23.19-8.2c0.74,0,1.48,0.03,2.27,0.05c36.81,1.58,36.63,28.86,36.6,30.02
		c0,0.66,0.4,1.26,1,1.53c0.34,0.11,7.96,3.21,8.25,13.47c0.21,6.54-1.84,11.96-6.03,16.15
		C185.82,109.18,174.62,112.63,161.95,112.13z"/>
	<path style="fill-rule:evenodd;clip-rule:evenodd;fill:#FFBEB8;" d="M161.28,86.42c-0.55,6.44-5.96,11.23-12.06,10.7
		c-6.11-0.53-10.61-6.17-10.06-12.6c0.55-6.43,5.95-11.22,12.06-10.69C157.33,74.35,161.84,79.99,161.28,86.42"/>
</g>
<g>
	<path style="fill-rule:evenodd;clip-rule:evenodd;" d="M180.85,82.66c-0.07,0.84-1.02,1.44-2.12,1.35s-1.94-0.85-1.87-1.69
		c0.07-0.83,1.02-1.44,2.13-1.35S180.92,81.83,180.85,82.66"/>
	<path style="fill-rule:evenodd;clip-rule:evenodd;" d="M183.83,81.09L183.83,81.09c-1.15-0.1-1.98-1.31-1.86-2.7l0.03-0.35
		c0.12-1.39,1.15-2.44,2.3-2.34c1.15,0.1,1.98,1.31,1.86,2.7l-0.03,0.35C186.01,80.15,184.98,81.19,183.83,81.09"/>
	<path style="fill-rule:evenodd;clip-rule:evenodd;" d="M166.04,79.56L166.04,79.56c-1.35-0.12-2.35-1.34-2.23-2.73l0.03-0.35
		c0.12-1.39,1.31-2.42,2.66-2.31c1.35,0.12,2.35,1.34,2.23,2.73l-0.03,0.35C168.58,78.65,167.39,79.68,166.04,79.56"/>
	<path style="fill:#231815;" d="M187.44,86.62c-0.31-0.66-1.1-0.94-1.75-0.63c-0.66,0.31-0.94,1.1-0.63,1.75
		c0.04,0.08,0.12,0.26-0.38,0.75c-1.03,0.99-2.29,0.98-2.94,0.89c-1.24-0.18-2.36-0.9-2.92-1.9c-0.04-0.08-0.11-0.13-0.17-0.19
		c-0.04-0.05-0.07-0.11-0.12-0.15c-0.01-0.01-0.02-0.01-0.03-0.02c-0.09-0.07-0.18-0.11-0.28-0.16c-0.06-0.03-0.11-0.07-0.17-0.08
		c-0.1-0.03-0.21-0.03-0.31-0.04c-0.06,0-0.12-0.02-0.18-0.01c-0.1,0.01-0.19,0.05-0.28,0.08c-0.07,0.02-0.15,0.04-0.22,0.07
		c-0.01,0.01-0.03,0.01-0.04,0.01c-0.07,0.04-0.12,0.11-0.18,0.16c-0.05,0.05-0.12,0.07-0.17,0.13c-2.17,2.53-7.4,2.61-10.36,0.16
		c-0.69-0.57-1.07-1.04-1.22-1.3c0.3-0.48,0.26-1.12-0.13-1.56c-0.48-0.55-1.32-0.6-1.86-0.12c-0.47,0.42-0.72,0.99-0.71,1.61
		c0.02,1.03,0.77,2.18,2.25,3.4c1.95,1.61,4.51,2.41,7,2.41c2.17,0,4.27-0.63,5.87-1.83c1.01,1.02,2.37,1.73,3.87,1.94
		c0.31,0.05,0.63,0.07,0.94,0.07c1.58,0,3.08-0.58,4.2-1.67C188.13,88.82,187.79,87.35,187.44,86.62z"/>
</g>
<g>
	<path style="fill:#F8716F;" d="M219.66,130.95c-0.11,0.61-0.21,1.21-0.34,1.82c-0.24,1.05-0.53,2.16-0.84,3.27
		c-0.13,0.4-0.24,0.76-0.37,1.13c-1.37,4.22-3.5,8.8-6.77,13.49c-0.32,0.42-0.61,0.87-0.95,1.29c-0.34,0.47-0.69,0.95-1.05,1.4
		c-0.32,0.4-0.63,0.79-0.98,1.19c-0.47,0.61-0.98,1.19-1.5,1.77l-20.9-21.4c0.13-0.37,0.26-0.79,0.4-1.24l22.11,12.73
		c0.21,0.13,0.45,0.18,0.66,0.18c0.47,0,0.9-0.24,1.16-0.66c0.34-0.63,0.13-1.45-0.5-1.82l-22.11-12.7
		c-0.24-0.13-0.47-0.18-0.71-0.18c0.16-0.76,0.29-1.55,0.4-2.4l26.77,3.85c0.05,0,0.13,0.03,0.18,0.03c0.63,0,1.21-0.47,1.29-1.13
		c0.11-0.74-0.4-1.4-1.11-1.5l-27.01-3.87c0-0.61-0.03-1.21-0.05-1.82c0-0.11-0.03-0.18-0.03-0.29c-0.05-0.45-0.11-0.9-0.16-1.34
		v-0.03l26.46-5.4c0.71-0.16,1.19-0.84,1.03-1.55c-0.13-0.71-0.84-1.16-1.55-1.03l-26.48,5.4c-0.03-0.11-0.05-0.21-0.08-0.32
		c-0.11-0.37-0.21-0.74-0.34-1.11c-0.16-0.47-0.34-0.95-0.55-1.45l18.66-14.2c0.58-0.45,0.69-1.27,0.26-1.84
		c-0.45-0.58-1.26-0.69-1.84-0.26l-18.26,13.89c-0.29-0.55-0.63-1.11-1.03-1.63v-0.03l11.6-19.45c0.37-0.61,0.16-1.42-0.47-1.79
		c-0.61-0.37-1.42-0.18-1.79,0.45l-11.02,18.5c-0.13-0.16-0.26-0.29-0.42-0.45c-0.18-0.21-0.37-0.42-0.55-0.61
		c-0.08-0.08-0.16-0.18-0.24-0.26c-0.26-0.26-0.53-0.55-0.82-0.82l9.8-26.88c0.37,0.16,0.74,0.34,1.11,0.53
		c0.79,0.37,1.55,0.74,2.32,1.13c0.69,0.34,1.37,0.71,2.03,1.08c0.11,0.03,0.24,0.11,0.34,0.18c0.63,0.37,1.27,0.71,1.87,1.11
		c0.66,0.4,1.32,0.82,1.95,1.24c0.55,0.37,1.08,0.74,1.61,1.11c1.66,1.19,3.16,2.42,4.53,3.66c0.4,0.34,0.79,0.71,1.16,1.05
		c0.79,0.74,1.53,1.5,2.19,2.24c0.4,0.4,0.74,0.82,1.08,1.21c0.29,0.32,0.55,0.63,0.82,0.98c0.37,0.45,0.71,0.9,1.05,1.34
		c0.37,0.47,0.69,0.92,1,1.37c0.32,0.45,0.61,0.87,0.9,1.32c1.58,2.42,2.74,4.74,3.61,6.8c0.26,0.58,0.47,1.13,0.69,1.66
		c0.26,0.69,0.47,1.34,0.66,1.98c0.05,0.13,0.11,0.26,0.13,0.4c0.13,0.45,0.26,0.87,0.34,1.24c0.42,1.58,0.61,2.69,0.66,3.14
		c0,0.05,0,0.11,0.03,0.13C219.92,117.88,221,123.33,219.66,130.95z"/>
	<path style="fill:#BE723F;" d="M171.35,131.87l-0.18,0.47c-1.98-1.08-5.72-3.58-5.77-7.41L171.35,131.87z"/>
	<path d="M222.24,116.22c-0.4-2.77-4.08-24.27-30.94-36.47c0-1.82-1.13-3.45-2.95-4.08l-1.9-0.66c-1.16-0.4-2.42-0.29-3.5,0.29
		c-1.05,0.55-1.84,1.55-2.16,2.74l-10.75,40.79c-0.61-0.42-1.34-0.63-2.06-0.61c-1.05,0.03-2.06,0.45-2.79,1.24
		c-0.34,0.37-0.61,0.79-0.76,1.26c-0.11,0-0.21,0.03-0.32,0.08c-0.34,0.13-0.61,0.4-0.71,0.74c-2.74,7.3,4.06,12.23,8.01,13.84
		c0.16,0.05,0.34,0.11,0.5,0.11c0.18,0,0.37-0.05,0.53-0.13c0.34-0.13,0.58-0.4,0.71-0.74l0.16-0.45l27.22,31.76
		c0.71,0.82,1.74,1.32,2.82,1.34h0.11c1.03,0,2.06-0.42,2.77-1.19l2.48-2.56c1.42-1.48,1.45-3.82,0.03-5.32
		C226.46,138.41,222.82,118.83,222.24,116.22z M183.34,78.69c0.11-0.47,0.42-0.84,0.84-1.08c0.26-0.13,0.55-0.21,0.82-0.21
		c0.21,0,0.4,0.03,0.58,0.11l1.9,0.66c0.18,0.05,0.34,0.16,0.5,0.26c0.05,0.03,0.11,0.08,0.16,0.16c0.11,0.08,0.18,0.18,0.24,0.29
		c-0.03,0-0.05,0.03-0.08,0.03c-0.32,0.13-0.58,0.42-0.71,0.74l-10.54,28.91l-0.08,0.18l-1.92,4.4l-1.98,4.53L183.34,78.69z
		 M182.19,126.42c0-0.84-0.08-1.71-0.21-2.61c-0.03-0.18-0.05-0.4-0.11-0.61c-0.08-0.55-0.21-1.08-0.34-1.63v-0.03
		c-0.05-0.29-0.13-0.55-0.21-0.84c-0.18-0.55-0.37-1.13-0.58-1.71c-0.11-0.29-0.24-0.58-0.34-0.87c-0.13-0.29-0.26-0.55-0.4-0.84
		c-0.05-0.05-0.08-0.13-0.11-0.18c0-0.03,0-0.03,0-0.03c-0.11-0.24-0.24-0.45-0.34-0.66c-0.13-0.29-0.32-0.58-0.47-0.9
		c-0.18-0.29-0.37-0.58-0.55-0.87c-0.13-0.21-0.29-0.42-0.42-0.63c-0.05-0.08-0.11-0.16-0.16-0.24c-0.05-0.11-0.11-0.18-0.18-0.29
		v-0.03l0.95-2.11c0.03,0.03,0.08,0.08,0.08,0.11c0.03,0.03,0.05,0.08,0.08,0.11c0.76,0.79,1.42,1.61,2,2.42
		c0.4,0.53,0.74,1.05,1.05,1.58c0.32,0.53,0.61,1.05,0.87,1.58c0.26,0.53,0.5,1.05,0.69,1.55c0.18,0.42,0.32,0.84,0.45,1.24
		c0.08,0.16,0.11,0.34,0.16,0.5c0.13,0.45,0.24,0.9,0.34,1.34c0.11,0.5,0.21,1,0.26,1.5c0.08,0.4,0.11,0.79,0.13,1.19
		c0.13,1.37,0.11,2.66-0.03,3.87c-0.05,0.42-0.11,0.82-0.16,1.21c0,0.03,0,0.03,0,0.05c-0.08,0.5-0.18,1-0.26,1.45
		c-0.16,0.63-0.32,1.21-0.47,1.77l-1.95-2v-0.11c0.03-0.11,0.05-0.21,0.05-0.32c0.03-0.16,0.05-0.32,0.05-0.47
		c0-0.08,0-0.13,0.03-0.21c0-0.21,0.03-0.45,0.05-0.66c0.03-0.13,0.03-0.29,0.03-0.42c0.03-0.47,0.05-0.95,0.05-1.45v-0.03
		C182.21,126.92,182.21,126.65,182.19,126.42z M179.42,124.7c0.05,0.26,0.05,0.53,0.08,0.76v0.18c0,0.08,0.03,0.16,0.03,0.21v0.08
		c0.03,0.08,0.03,0.18,0,0.26c0.03,0.26,0.05,0.5,0.05,0.76c0,0.45-0.03,0.9-0.05,1.34l-2.45-2.5l-0.29-0.29l-1.71-1.74l-1.24-1.29
		l2.69-6.11c0.11,0.16,0.18,0.34,0.29,0.5c0.08,0.16,0.18,0.32,0.26,0.47c0.03,0.03,0.03,0.05,0.05,0.08
		c0.05,0.11,0.13,0.24,0.18,0.34c0.05,0.13,0.13,0.26,0.18,0.4c0.18,0.34,0.34,0.69,0.47,1.03c0.21,0.47,0.37,0.92,0.53,1.4
		c0.05,0.16,0.11,0.32,0.16,0.47v0.03C179.05,122.33,179.29,123.54,179.42,124.7z M171.17,132.35c-1.98-1.08-5.72-3.58-5.77-7.41
		l5.96,6.93L171.17,132.35z M206.8,161.7l-2.48,2.56c-0.24,0.26-0.5,0.4-0.9,0.37c-0.37,0-0.69-0.16-0.9-0.42l-25.43-29.65
		l-2.74-3.24l-1.98-2.29l-1.61-1.87l-1.24-1.42l-0.13-0.16v-0.03l-0.03-0.03l-2.27-2.64c-0.34-0.37-0.4-0.9-0.18-1.32
		c0.05-0.11,0.13-0.21,0.21-0.32c0.21-0.26,0.53-0.34,0.9-0.4c0.32,0,0.63,0.13,0.87,0.37l0.4,0.4l1.4,1.45l0.29,0.29l0.66,0.66
		l1.05,1.08l0.18,0.18l1.45,1.5l0.76,0.79l0.4,0.4l3.64,3.72l2.19,2.21v0.03l1.58,1.63c0.03-0.03,0.03-0.03,0.03-0.05l0.4,0.47
		l1.58,1.58v0.03l20.16,20.63h0.03l1.71,1.77c0.03,0.03,0.08,0.08,0.08,0.13C207.25,160.6,207.22,161.28,206.8,161.7z
		 M208.35,154.54c-0.47,0.61-0.98,1.19-1.5,1.77l-20.9-21.4c0.13-0.37,0.26-0.79,0.4-1.24l22.11,12.73
		c0.21,0.13,0.45,0.18,0.66,0.18c0.47,0,0.9-0.24,1.16-0.66c0.34-0.63,0.13-1.45-0.5-1.82l-22.11-12.7
		c-0.24-0.13-0.47-0.18-0.71-0.18c0.16-0.76,0.29-1.55,0.4-2.4l26.77,3.85c0.05,0,0.13,0.03,0.18,0.03c0.63,0,1.21-0.47,1.29-1.13
		c0.11-0.74-0.4-1.4-1.11-1.5l-27.01-3.87c0-0.61-0.03-1.21-0.05-1.82c0-0.11-0.03-0.18-0.03-0.29c-0.05-0.45-0.11-0.9-0.16-1.34
		v-0.03l26.46-5.4c0.71-0.16,1.19-0.84,1.03-1.55c-0.13-0.71-0.84-1.16-1.55-1.03l-26.48,5.4c-0.03-0.11-0.05-0.21-0.08-0.32
		c-0.11-0.37-0.21-0.74-0.34-1.11c-0.16-0.47-0.34-0.95-0.55-1.45l18.66-14.2c0.58-0.45,0.69-1.27,0.26-1.84
		c-0.45-0.58-1.26-0.69-1.84-0.26l-18.26,13.89c-0.29-0.55-0.63-1.11-1.03-1.63v-0.03l11.6-19.45c0.37-0.61,0.16-1.42-0.47-1.79
		c-0.61-0.37-1.42-0.18-1.79,0.45l-11.02,18.5c-0.13-0.16-0.26-0.29-0.42-0.45c-0.18-0.21-0.37-0.42-0.55-0.61
		c-0.08-0.08-0.16-0.18-0.24-0.26c-0.26-0.26-0.53-0.55-0.82-0.82l9.8-26.88c0.37,0.16,0.74,0.34,1.11,0.53
		c0.79,0.37,1.55,0.74,2.32,1.13c0.69,0.34,1.37,0.71,2.03,1.08c0.11,0.03,0.24,0.11,0.34,0.18c0.63,0.37,1.27,0.71,1.87,1.11
		c0.66,0.4,1.32,0.82,1.95,1.24c0.55,0.37,1.08,0.74,1.61,1.11c1.66,1.19,3.16,2.42,4.53,3.66c0.4,0.34,0.79,0.71,1.16,1.05
		c0.79,0.74,1.53,1.5,2.19,2.24c0.4,0.4,0.74,0.82,1.08,1.21c0.29,0.32,0.55,0.63,0.82,0.98c0.37,0.45,0.74,0.9,1.05,1.34
		c0.37,0.47,0.69,0.92,1,1.37c0.32,0.45,0.63,0.9,0.9,1.32c1.58,2.42,2.74,4.74,3.61,6.8c0.26,0.58,0.47,1.13,0.69,1.66
		c0.26,0.69,0.47,1.34,0.66,1.98c0.05,0.13,0.11,0.26,0.13,0.4c0.13,0.45,0.26,0.87,0.34,1.24c0.42,1.58,0.61,2.69,0.66,3.14
		c0,0.05,0,0.11,0.03,0.13c0.26,1.13,1.34,6.59,0,14.2c-0.11,0.61-0.21,1.21-0.34,1.82c-0.24,1.05-0.53,2.16-0.84,3.27
		c-0.13,0.4-0.24,0.76-0.37,1.13c-1.37,4.22-3.5,8.8-6.77,13.49c-0.32,0.42-0.61,0.87-0.95,1.29c-0.34,0.47-0.69,0.95-1.05,1.4
		C209.01,153.75,208.7,154.14,208.35,154.54z"/>
	<path style="fill:#D49166;" d="M188.38,78.88c-0.03,0-0.05,0.03-0.08,0.03c-0.32,0.13-0.58,0.42-0.71,0.74l-10.54,28.91l-0.08,0.18
		l-1.92,4.4l-1.98,4.53l10.28-38.98c0.11-0.47,0.42-0.84,0.84-1.08c0.26-0.13,0.55-0.21,0.82-0.21c0.21,0,0.4,0.03,0.58,0.11
		l1.9,0.66c0.18,0.05,0.34,0.16,0.5,0.26c0.05,0.03,0.11,0.08,0.16,0.16C188.25,78.67,188.33,78.77,188.38,78.88z"/>
	<path style="fill:#ECAA52;" d="M184.79,128.34c-0.05,0.42-0.11,0.82-0.16,1.21c0,0.03,0,0.03,0,0.05c-0.08,0.5-0.18,1-0.26,1.45
		c-0.16,0.63-0.32,1.21-0.47,1.77l-1.95-2c0-0.05,0.03-0.08,0.03-0.13c0-0.08,0.03-0.18,0.03-0.29c0.03-0.16,0.05-0.32,0.05-0.47
		c0-0.08,0-0.13,0.03-0.21c0.03-0.13,0.03-0.26,0.05-0.4v-0.08c0-0.08,0-0.16,0.03-0.24v-0.37c0.03-0.47,0.05-0.95,0.05-1.45v-0.03
		c0-0.24,0-0.5-0.03-0.74c0-0.84-0.08-1.71-0.21-2.61c-0.03-0.18-0.05-0.4-0.11-0.61c-0.08-0.55-0.18-1.08-0.34-1.63v-0.03
		c-0.05-0.29-0.13-0.55-0.21-0.84c-0.18-0.55-0.37-1.13-0.58-1.71c-0.11-0.29-0.24-0.58-0.34-0.87c-0.13-0.29-0.26-0.55-0.4-0.84
		c-0.05-0.05-0.08-0.13-0.11-0.18c0-0.03,0-0.03,0-0.03c-0.11-0.24-0.24-0.45-0.34-0.66c-0.13-0.29-0.32-0.58-0.47-0.9
		c-0.18-0.29-0.37-0.58-0.55-0.87c-0.13-0.21-0.29-0.42-0.42-0.63c-0.05-0.08-0.11-0.16-0.16-0.24c-0.05-0.11-0.11-0.18-0.18-0.29
		v-0.03l0.95-2.11c0.03,0.03,0.08,0.08,0.08,0.11c0.03,0.03,0.05,0.08,0.08,0.11c0.76,0.79,1.42,1.61,2,2.42
		c0.4,0.53,0.74,1.05,1.05,1.58c0.32,0.53,0.61,1.05,0.87,1.58c0.26,0.53,0.5,1.05,0.69,1.55c0.18,0.42,0.32,0.84,0.45,1.24
		c0.08,0.16,0.11,0.34,0.16,0.5c0.13,0.45,0.24,0.9,0.34,1.34c0.11,0.5,0.21,1,0.26,1.5c0.05,0.4,0.11,0.79,0.13,1.19
		C184.95,125.84,184.93,127.13,184.79,128.34z"/>
	<path style="fill:#D57430;" d="M179.58,126.97c0,0.45-0.03,0.9-0.05,1.34l-2.45-2.5l-0.29-0.29l-1.71-1.74l-1.24-1.29l2.69-6.11
		c0.11,0.16,0.18,0.34,0.29,0.5c0.08,0.16,0.18,0.32,0.26,0.47c0.03,0.03,0.03,0.05,0.05,0.08c0.05,0.11,0.13,0.24,0.18,0.34
		c0.05,0.13,0.13,0.26,0.18,0.4c0.18,0.34,0.34,0.69,0.47,1.03c0.21,0.47,0.37,0.92,0.53,1.4c0.05,0.16,0.11,0.32,0.16,0.47v0.03
		c0.4,1.24,0.63,2.45,0.76,3.61c0.05,0.26,0.05,0.53,0.08,0.76v0.18c0,0.08,0.03,0.16,0.03,0.21v0.08c0.03,0.08,0.03,0.18,0,0.26
		C179.55,126.47,179.58,126.71,179.58,126.97z"/>
	<path style="fill:#ECAA52;" d="M206.8,161.7l-2.48,2.56c-0.24,0.26-0.5,0.4-0.9,0.37c-0.37,0-0.69-0.16-0.9-0.42l-25.43-29.65
		l-2.74-3.24l-1.98-2.29l-1.61-1.87l-1.24-1.42l-0.13-0.16v-0.03l-0.03-0.03l-2.27-2.64c-0.34-0.37-0.4-0.9-0.18-1.32
		c0.05-0.11,0.13-0.21,0.21-0.32c0.21-0.26,0.53-0.34,0.9-0.4c0.32,0,0.63,0.13,0.87,0.37l0.4,0.4l1.4,1.45l0.29,0.29l0.66,0.66
		l1.05,1.08l0.18,0.18l1.45,1.5l0.76,0.79l0.4,0.4l3.64,3.72l2.19,2.21v0.03l1.58,1.63l2,2v0.03l20.16,20.63h0.03l1.71,1.77
		c0.03,0.03,0.08,0.08,0.08,0.13C207.25,160.6,207.22,161.28,206.8,161.7z"/>
</g>
<g>
	<path style="fill:#FFFFFF;" d="M139.6,118.92c-6.8-1.55-12.72-4.4-19.11-7.38c-2.83-1.32-12.99-6.26-13.86-0.12
		c-0.31,2.22,2.4,4.47,3.88,5.97c3.24,3.24,7,6.01,11.11,8.24c4.61,2.5,9.62,4.31,14.83,5.56
		C136.66,127.85,137.47,123.43,139.6,118.92z"/>
	<path style="fill:#0088C5;" d="M164.32,118.56c-0.09,0.02-0.17,0.04-0.26,0.06c-2.29,0.56-4.45,0.95-6.57,1.22
		c-3.03,0.38-5.97,0.48-9.04,0.31c-1.52-0.08-3.07-0.24-4.67-0.45c-1.44-0.19-2.82-0.47-4.17-0.78c-2.13,4.5-2.94,8.92-3.15,12.26
		c2.52,0.6,5.07,1.09,7.66,1.43c7.37,0.98,15.91,1.65,23.35-0.18c3.62-0.89,6.78-3.44,7.76-6.87c0.2-0.72,0.32-1.43,0.35-2.06
		c0.1-2.32-0.86-4.68-3.16-5.68c-0.46-0.2-0.92-0.3-1.39-0.37C168.82,117.13,166.49,118.05,164.32,118.56z"/>
	<path d="M173.68,114.92c-0.67-0.29-1.37-0.48-2.21-0.6c-0.45-0.06-0.91-0.1-1.38-0.1c-1.82,0-3.54,0.47-5.06,0.89
		c-0.48,0.13-0.96,0.26-1.43,0.37l-0.28,0.07c-2.12,0.51-4.15,0.89-6.22,1.15c-1.96,0.25-3.85,0.37-5.79,0.37
		c-0.89,0-1.78-0.03-2.68-0.08c-1.42-0.08-2.87-0.22-4.43-0.43c-1.16-0.16-2.4-0.39-3.89-0.73c-6.1-1.39-11.6-3.95-17.42-6.67
		l-1.05-0.49l-0.25-0.12c-3.5-1.64-7.55-3.31-11.08-3.31c-3.88,0-6.49,2.14-7,5.73c-0.5,3.54,2.33,6.27,4.2,8.08
		c0.21,0.2,0.4,0.39,0.58,0.56c3.41,3.42,7.4,6.38,11.85,8.79c4.65,2.52,9.89,4.49,15.59,5.85c2.65,0.64,5.34,1.14,7.98,1.49
		c5.12,0.68,9.27,1,13.07,1c4.31,0,8.05-0.41,11.45-1.24c4.95-1.22,8.8-4.7,10.05-9.08c0.27-0.93,0.43-1.9,0.47-2.78
		C178.9,119.7,176.97,116.36,173.68,114.92z M175.22,125.56c-0.98,3.43-4.14,5.98-7.76,6.87c-3.41,0.84-7.05,1.15-10.7,1.15
		c-4.32,0-8.66-0.44-12.65-0.97c-2.58-0.34-5.14-0.83-7.66-1.43c-5.2-1.25-10.21-3.06-14.83-5.56c-4.12-2.23-7.88-4.99-11.12-8.24
		c-1.49-1.49-4.2-3.74-3.88-5.96c0.32-2.24,1.88-3.01,3.87-3.01c3.45,0,8.2,2.29,9.99,3.13c6.39,2.98,12.31,5.83,19.11,7.38
		c1.36,0.31,2.74,0.58,4.17,0.78c1.61,0.22,3.16,0.37,4.67,0.45c0.96,0.05,1.91,0.08,2.86,0.08c2.07,0,4.1-0.13,6.18-0.39
		c2.12-0.27,4.28-0.66,6.57-1.22c0.09-0.02,0.17-0.04,0.26-0.06c1.87-0.44,3.85-1.18,5.76-1.18c0.31,0,0.63,0.02,0.93,0.06
		c0.47,0.07,0.94,0.17,1.39,0.37c2.29,1,3.26,3.36,3.16,5.68C175.54,124.14,175.42,124.85,175.22,125.56z"/>
</g>
</svg>
