<?xml version="1.0" encoding="utf-8"?>
<!-- Generator: Adobe Illustrator 24.1.3, SVG Export Plug-In . SVG Version: 6.00 Build 0)  -->
<svg version="1.1" id="Layer_1" xmlns="http://www.w3.org/2000/svg" xmlns:xlink="http://www.w3.org/1999/xlink" x="0px" y="0px"
	 viewBox="0 0 395 250" style="enable-background:new 0 0 395 250;" xml:space="preserve">
<g>
	<g>
		<ellipse style="fill:#FFB83B;" cx="194.3" cy="18.1" rx="29.6" ry="11.6"/>
		<g>
			<path style="fill:#EF9D1B;" d="M166.4,24c4,5.7,15,5.7,27.9,5.7s23.9,0,27.9-5.7H166.4z"/>
		</g>
		<g>
			<path style="fill:#00E7AE;" d="M223.5,15.3H165c-0.2,0.8-0.3,1.8-0.3,2.8s0.1,2,0.3,2.8h58.5c0.2-0.8,0.3-1.8,0.3-2.8
				S223.7,16.2,223.5,15.3z"/>
		</g>
	</g>
	<g>
		<path style="fill:#719AFF;" d="M332.4,122.6c-12.3-75.6-9.9-93.9-130.1-93.9c-136.1,0-130.5,23.9-146,93.9"/>
		<path style="fill:#4370FF;" d="M166.5,31.1l-0.3-1.7c-99.1,4.4-96,30.1-110,93.2h24.3C93.2,65.1,91.7,38.6,166.5,31.1z"/>
		<path style="fill:#FFB83B;" d="M141.9,130.7l-3.3-18.8c-0.9-4.9-5.1-8.5-10.2-8.5h-68c-2.6,0-4.9,1.6-5.9,4l-10.3,26.3
			L141.9,130.7z"/>
		<path style="fill:#FFB83B;" d="M202.2,28.7c-73.1,0-105.3,6.9-121.9,24.1H313C298.5,34.5,269.6,28.7,202.2,28.7z"/>
		<g>
			<path style="fill:#EF9D1B;" d="M240.6,52.1c-0.1,0-0.2,0-0.3-0.1c-0.1-0.1-0.1-0.3,0.1-0.4l20.9-14.7c0.1,0,0.1-0.1,0.2-0.1h27.7
				c0.2,0,0.3,0.1,0.3,0.3s-0.1,0.3-0.3,0.3h-27.6L240.8,52C240.7,52.1,240.6,52.1,240.6,52.1z"/>
		</g>
		<g>
			<path style="fill:#EF9D1B;" d="M131.6,52.1c-0.1,0-0.2,0-0.3-0.1c-0.1-0.1-0.1-0.3,0.1-0.4l20.9-14.7c0.1,0,0.1-0.1,0.2-0.1h41.7
				l11.2-8.3c0.1-0.1,0.3-0.1,0.4,0.1c0.1,0.1,0.1,0.3-0.1,0.4l-11.3,8.3c-0.1,0-0.1,0.1-0.2,0.1h-41.7L131.8,52
				C131.7,52.1,131.7,52.1,131.6,52.1z"/>
		</g>
		<g>
			<path style="fill:#00E7AE;" d="M83.9,49.5c-2.4,2-4.5,4.2-6.4,6.6h238c-1.6-2.4-3.3-4.6-5.3-6.6H83.9z"/>
		</g>
		<path style="fill:#FFB83B;" d="M41.7,130.3l1.2-4.3c0,0,5.5-2,6.7-5.5l4.5,4.6l-7.6,7.6L41.7,130.3z"/>
		<path style="fill:#FFB83B;" d="M19.6,223.5h-5.1c-2.1,0-3.9-1.5-4.2-3.6C9.2,213.4,7,198.6,7,182.4c0-27.1,16.5-55.3,49.2-59.8
			h283.5c33.2,0,48.4,24.3,48.3,59c-0.1,23.7-4.7,36.8-6.3,40.7c-0.3,0.8-1.1,1.3-1.9,1.3h-1.5H91.9l-43-17.7"/>
		<g>
			<path style="fill:#EF9D1B;" d="M264.7,213.9c-0.1,0-0.1,0-0.2-0.1c-0.1-0.1-0.2-0.3-0.1-0.4l17-24.8c0.1-0.1,0.3-0.2,0.4-0.1
				c0.1,0.1,0.2,0.3,0.1,0.4L265,213.8C264.9,213.9,264.8,213.9,264.7,213.9z"/>
		</g>
		<g>
			<path style="fill:#EF9D1B;" d="M153.2,221.2c-0.2,0-0.3-0.1-0.3-0.3v-28.5c0-2.6-0.9-5.1-2.6-7l-9.9-11.4c-0.1-0.1-0.1-0.3,0-0.5
				c0.1-0.1,0.3-0.1,0.5,0l9.9,11.4c1.8,2.1,2.8,4.7,2.8,7.5v28.5C153.5,221,153.4,221.2,153.2,221.2z"/>
		</g>
		<g>
			<path style="fill:#EF9D1B;" d="M161,174c-0.2,0-0.3-0.1-0.3-0.3v-31.6c0-3.2,0.7-6.3,2.1-9.2l5.1-10.4c0.1-0.2,0.3-0.2,0.4-0.1
				c0.2,0.1,0.2,0.3,0.1,0.4l-5.1,10.4c-1.4,2.8-2.1,5.8-2.1,8.9v31.6C161.3,173.9,161.2,174,161,174z"/>
		</g>
		<g>
			<g>
				<path style="fill:#EF9D1B;" d="M60.6,153c-26.1,0-47.2,21.1-47.2,47.2c0,8.5,2.2,16.4,6.1,23.3h82.1c3.9-6.9,6.1-14.8,6.1-23.3
					C107.8,174.1,86.7,153,60.6,153z"/>
			</g>
			<g>
				<circle style="fill:#181F41;" cx="60.6" cy="200.2" r="43.3"/>
				<circle style="fill:#FFB83B;" cx="60.6" cy="200.2" r="37.2"/>
				<circle style="fill:#181F41;" cx="60.6" cy="200.2" r="31.6"/>
			</g>
			<g>
				<g>
					<path style="fill:#00E7AE;" d="M50.9,201.6l-1.1,0.4l-10.3,4.1l-3.5,1.4c-1.2,0.5-1.8,1.8-1.3,3c0.5,1.2,1.8,1.8,3,1.3l2.1-0.8
						l10.6-4.2l2.1-0.8c1.2-0.5,1.8-1.8,1.3-3C53.4,201.7,52.1,201.1,50.9,201.6z"/>
				</g>
				<g>
					<path style="fill:#00E7AE;" d="M66.7,207.9l0.9,0.7l8.7,6.9l2.9,2.3c1,0.8,2.4,0.6,3.2-0.4c0.8-1,0.6-2.4-0.4-3.2l-1.8-1.4
						l-8.9-7.1l-1.8-1.4c-1-0.8-2.4-0.6-3.2,0.4C65.5,205.7,65.7,207.1,66.7,207.9z"/>
				</g>
				<g>
					<path style="fill:#00E7AE;" d="M64.3,191.1l0.2-1.1l1.6-10.9l0.5-3.7c0.2-1.3-0.7-2.4-1.9-2.6c-1.3-0.2-2.4,0.7-2.6,1.9
						l-0.3,2.2l-1.7,11.2l-0.3,2.2c-0.2,1.3,0.7,2.4,1.9,2.6C63,193.2,64.1,192.4,64.3,191.1z"/>
				</g>
				<circle style="fill:#00E7AE;" cx="60.6" cy="200.2" r="3.9"/>
			</g>
		</g>
		<polygon style="fill:#EF9D1B;" points="101.6,223.5 134.7,213.6 264.7,213.6 296.2,223.5 		"/>
		<g>
			<path style="fill:#EF9D1B;" d="M356.2,158.8c0,0-0.1,0-0.1,0c-0.2-0.1-0.2-0.3-0.2-0.4l12.3-27.2c0.1-0.2,0.3-0.2,0.4-0.2
				c0.2,0.1,0.2,0.3,0.2,0.4l-12.3,27.2C356.4,158.7,356.3,158.8,356.2,158.8z"/>
		</g>
		<g>
			<g>
				<path style="fill:#EF9D1B;" d="M337.3,153c-26.1,0-47.2,21.1-47.2,47.2c0,8.5,2.2,16.4,6.1,23.3h82.1c3.9-6.9,6.1-14.8,6.1-23.3
					C384.5,174.1,363.3,153,337.3,153z"/>
			</g>
			<g>
				<circle style="fill:#181F41;" cx="337.3" cy="200.2" r="43.3"/>
				<circle style="fill:#FFB83B;" cx="337.3" cy="200.2" r="37.2"/>
				<circle style="fill:#181F41;" cx="337.3" cy="200.2" r="31.6"/>
			</g>
			<g>
				<g>
					<path style="fill:#00E7AE;" d="M345.6,195.1l0.8-0.8l7.8-7.8l2.6-2.6c0.9-0.9,0.9-2.3,0-3.2c-0.9-0.9-2.3-0.9-3.2,0l-1.6,1.6
						l-8,8l-1.6,1.6c-0.9,0.9-0.9,2.3,0,3.2C343.3,196,344.7,196,345.6,195.1z"/>
				</g>
				<g>
					<path style="fill:#00E7AE;" d="M328.6,195.5l-1.1-0.3l-10.7-2.9l-3.6-1c-1.2-0.3-2.5,0.4-2.8,1.6c-0.3,1.2,0.4,2.5,1.6,2.8
						l2.2,0.6l11,2.9l2.2,0.6c1.2,0.3,2.5-0.4,2.8-1.6C330.6,197.1,329.9,195.9,328.6,195.5z"/>
				</g>
				<g>
					<path style="fill:#00E7AE;" d="M337.5,210l0.3,1.1l2.9,10.7l1,3.6c0.3,1.2,1.6,1.9,2.8,1.6c1.2-0.3,1.9-1.6,1.6-2.8l-0.6-2.2
						l-2.9-11l-0.6-2.2c-0.3-1.2-1.6-1.9-2.8-1.6C337.9,207.5,337.2,208.8,337.5,210z"/>
				</g>
				<circle style="fill:#00E7AE;" cx="337.3" cy="200.2" r="3.9"/>
			</g>
		</g>
		<g>
			<path style="fill:#EF9D1B;" d="M200.4,139.2h-1.2h-12.1h-4c-1.4,0-2.5,1.1-2.5,2.5c0,1.4,1.1,2.5,2.5,2.5h2.4H198h2.4
				c1.4,0,2.5-1.1,2.5-2.5C202.9,140.3,201.8,139.2,200.4,139.2z"/>
		</g>
		<g>
			<path style="fill:#EF9D1B;" d="M290.2,196.6c-0.1,0-0.2,0-0.2-0.1L264.6,174H99.7c-0.2,0-0.3-0.1-0.3-0.3c0-0.2,0.1-0.3,0.3-0.3
				h165.1c0.1,0,0.2,0,0.2,0.1l25.5,22.6c0.1,0.1,0.1,0.3,0,0.5C290.4,196.6,290.3,196.6,290.2,196.6z"/>
		</g>
		<g>
			<path style="fill:#EF9D1B;" d="M362.3,145.2h-34.2c-0.1,0-0.1,0-0.2-0.1L313.7,135h-39.9c-0.1,0-0.1,0-0.2-0.1l-15-12.1
				c-0.1-0.1-0.2-0.3,0-0.5c0.1-0.1,0.3-0.2,0.5,0l14.9,12h39.9c0.1,0,0.1,0,0.2,0.1l14.2,10.1h34.1c0.2,0,0.3,0.1,0.3,0.3
				C362.6,145.1,362.5,145.2,362.3,145.2z"/>
		</g>
		<polygon style="fill:#EF9D1B;" points="236,176 213.1,176 210.2,173.7 238.8,173.7 		"/>
		<polygon style="fill:#EF9D1B;" points="333.9,142.6 352,142.6 354.9,144.9 331,144.9 		"/>
		<g>
			<path style="fill:#EF9D1B;" d="M264.7,174c-0.1,0-0.1,0-0.2-0.1c-0.1-0.1-0.2-0.3,0-0.5l10.8-13.3c8-9.9,20-15.6,32.8-15.6h20.1
				c0.2,0,0.3,0.1,0.3,0.3c0,0.2-0.1,0.3-0.3,0.3H308c-12.6,0-24.4,5.6-32.3,15.4L265,173.9C264.9,174,264.8,174,264.7,174z"/>
		</g>
		<g>
			<path style="fill:#EF9D1B;" d="M77.4,157.3c-0.1,0-0.1,0-0.2-0.1c-0.1-0.1-0.2-0.3-0.1-0.4l6.1-8c0.1-0.1,0.3-0.2,0.4-0.1
				c0.1,0.1,0.2,0.3,0.1,0.4l-6.1,8C77.6,157.2,77.5,157.3,77.4,157.3z"/>
		</g>
		<g>
			<path style="fill:#EF9D1B;" d="M90.2,151.6c-1.4,0-2.9-0.3-4.2-0.8c-5.7-2.4-8.5-8.9-6.2-14.7c2.4-5.7,8.9-8.5,14.7-6.2
				c5.7,2.4,8.5,8.9,6.2,14.7l0,0C98.8,148.9,94.6,151.6,90.2,151.6z M90.2,129.7c-4.2,0-8.2,2.5-9.8,6.6
				c-2.2,5.4,0.4,11.6,5.8,13.9c5.4,2.2,11.6-0.4,13.9-5.8l0,0c2.2-5.4-0.4-11.6-5.8-13.9C92.9,129.9,91.5,129.7,90.2,129.7z
				 M100.3,144.4L100.3,144.4L100.3,144.4z"/>
		</g>
		<g>
			<path style="fill:#DA478F;" d="M13.6,158.3h-2.1c-2.1,5.5-3.5,11.4-4.1,17.3h7.9c2.2,0,3.9-2,3.5-4.2l-1.7-10.1
				C16.8,159.6,15.3,158.3,13.6,158.3z"/>
			<path style="fill:#00E7AE;" d="M385.1,175.6h2.8c-0.3-6.2-1.2-11.9-2.5-17.3h-3.1c-2.4,0-4.1,2.3-3.5,4.6l2.8,10.1
				C382,174.5,383.4,175.6,385.1,175.6z"/>
		</g>
	</g>
	<g>
		<path style="fill:#EF9D1B;" d="M96.9,132c-0.1,0-0.1,0-0.2-0.1c-0.1-0.1-0.2-0.3-0.1-0.5l5.1-6.6c1.2-1.5,1.8-3.4,1.8-5.3v-13.8
			c0-0.9,0.3-1.8,1-2.6c0.1-0.1,0.3-0.1,0.5,0c0.1,0.1,0.1,0.3,0,0.5c-0.5,0.6-0.8,1.3-0.8,2.1v13.8c0,2.1-0.7,4.1-2,5.7l-5.1,6.6
			C97.1,131.9,97,132,96.9,132z"/>
	</g>
</g>
</svg>
