<?xml version="1.0" encoding="utf-8"?>
<!-- Generator: Adobe Illustrator 24.1.1, SVG Export Plug-In . SVG Version: 6.00 Build 0)  -->
<!DOCTYPE svg PUBLIC "-//W3C//DTD SVG 1.1//EN" "http://www.w3.org/Graphics/SVG/1.1/DTD/svg11.dtd" [
	<!ENTITY ns_extend "http://ns.adobe.com/Extensibility/1.0/">
	<!ENTITY ns_ai "http://ns.adobe.com/AdobeIllustrator/10.0/">
	<!ENTITY ns_graphs "http://ns.adobe.com/Graphs/1.0/">
	<!ENTITY ns_vars "http://ns.adobe.com/Variables/1.0/">
	<!ENTITY ns_imrep "http://ns.adobe.com/ImageReplacement/1.0/">
	<!ENTITY ns_sfw "http://ns.adobe.com/SaveForWeb/1.0/">
	<!ENTITY ns_custom "http://ns.adobe.com/GenericCustomNamespace/1.0/">
	<!ENTITY ns_adobe_xpath "http://ns.adobe.com/XPath/1.0/">
]>
<svg version="1.1" id="Layer_1" xmlns:x="&ns_extend;" xmlns:i="&ns_ai;" xmlns:graph="&ns_graphs;"
	 xmlns="http://www.w3.org/2000/svg" xmlns:xlink="http://www.w3.org/1999/xlink" x="0px" y="0px" viewBox="0 0 240 240"
	 style="enable-background:new 0 0 240 240;" xml:space="preserve">
<metadata>
	<sfw  xmlns="&ns_sfw;">
		<slices></slices>
		<sliceSourceBounds  bottomLeftOrigin="true" height="199.37" width="202.2" x="18.9" y="-219.68"></sliceSourceBounds>
	</sfw>
</metadata>
<g>
	<g>
		<path style="fill:#F7FF6A;" d="M183.25,122.85c0,34.87-28.37,63.24-63.25,63.24c-34.87,0-63.24-28.37-63.24-63.24
			c0-34.88,28.37-63.25,63.24-63.25C154.87,59.6,183.25,87.97,183.25,122.85z"/>
		<path style="fill:#BFF3FF;" d="M120,54.6c-37.63,0-68.24,30.62-68.24,68.25c0,37.63,30.61,68.24,68.24,68.24
			c37.63,0,68.25-30.61,68.25-68.24C188.25,85.22,157.62,54.6,120,54.6z M120,186.09c-34.87,0-63.24-28.37-63.24-63.24
			c0-34.88,28.37-63.25,63.24-63.25c34.88,0,63.25,28.37,63.25,63.25C183.25,157.72,154.87,186.09,120,186.09z"/>
	</g>
	<g>
		<path style="fill:#F7FF6A;" d="M184.24,50.09c0.08,0.92-0.21,1.81-0.8,2.51l-10.06,12c-0.66,0.78-1.63,1.23-2.65,1.23
			c-0.8,0-1.59-0.28-2.21-0.8c-1.46-1.22-1.65-3.4-0.43-4.86l10.07-12c0.68-0.81,1.66-1.23,2.65-1.23c0.78,0,1.57,0.27,2.21,0.81
			C183.72,48.34,184.15,49.18,184.24,50.09z"/>
		<path style="fill:#BFF3FF;" d="M188.72,49.7c-0.18-2.12-1.18-4.03-2.81-5.4c-3.35-2.81-8.38-2.37-11.19,0.98l-10.07,12
			c-2.82,3.35-2.38,8.38,0.98,11.2c1.43,1.19,3.24,1.85,5.1,1.85c2.36,0,4.58-1.03,6.09-2.84l10.07-11.99
			C188.25,53.88,188.89,51.82,188.72,49.7z M183.44,52.6l-10.06,12c-0.66,0.78-1.63,1.23-2.65,1.23c-0.8,0-1.59-0.28-2.21-0.8
			c-1.46-1.22-1.65-3.4-0.43-4.86l10.07-12c0.68-0.81,1.66-1.23,2.65-1.23c0.78,0,1.57,0.27,2.21,0.81c0.7,0.59,1.14,1.42,1.22,2.34
			C184.31,51.01,184.03,51.91,183.44,52.6z"/>
	</g>
	<g>
		<path style="fill:#BFF3FF;" d="M220.98,105.05c-0.76-4.3-4.89-7.19-9.21-6.44l-15.42,2.71c-4.32,0.77-7.21,4.9-6.45,9.21
			c0.67,3.81,3.96,6.57,7.82,6.57c0.46,0,0.93-0.04,1.39-0.12l15.42-2.72c2.09-0.37,3.92-1.53,5.13-3.27
			C220.87,109.24,221.35,107.14,220.98,105.05z M213.14,102.99c0.82,0,1.6,0.29,2.21,0.8c0.6,0.5,1.04,1.21,1.19,2.04
			c0.16,0.91-0.04,1.82-0.57,2.58c-0.53,0.75-1.32,1.26-2.23,1.41l-15.42,2.73c-1.86,0.32-3.67-0.95-3.99-2.8
			c-0.33-1.87,0.92-3.66,2.79-3.99l15.42-2.72C212.75,102.99,212.95,102.99,213.14,102.99z"/>
		<path style="fill:#F7FF6A;" d="M215.98,108.41c-0.53,0.75-1.32,1.26-2.23,1.41l-15.42,2.73c-1.86,0.32-3.67-0.95-3.99-2.8
			c-0.33-1.87,0.92-3.66,2.79-3.99l15.42-2.72c0.2-0.04,0.4-0.05,0.6-0.05c0.82,0,1.6,0.29,2.21,0.8c0.6,0.5,1.04,1.21,1.19,2.04
			C216.71,106.74,216.51,107.64,215.98,108.41z"/>
	</g>
	<g>
		<path style="fill:#F7FF6A;" d="M204.89,171.86c-0.61,1.07-1.76,1.73-2.99,1.73c-0.59,0-1.19-0.16-1.72-0.46l-13.56-7.84
			c-1.65-0.95-2.21-3.06-1.26-4.71c0.64-1.1,1.8-1.72,2.99-1.72c0.58,0,1.18,0.15,1.72,0.46l13.56,7.83
			C205.29,168.11,205.85,170.22,204.89,171.86z"/>
		<path style="fill:#BFF3FF;" d="M205.88,163.26l-13.57-7.84c-3.79-2.18-8.66-0.88-10.85,2.92c-2.19,3.79-0.88,8.66,2.91,10.85
			l13.57,7.84c1.21,0.69,2.58,1.06,3.96,1.06c2.84,0,5.47-1.52,6.89-3.98C210.99,170.32,209.69,165.45,205.88,163.26z
			 M185.36,160.59c0.64-1.1,1.8-1.72,2.99-1.72c0.58,0,1.18,0.15,1.72,0.46l13.56,7.83c1.65,0.96,2.21,3.07,1.26,4.71
			c-0.61,1.07-1.76,1.73-2.99,1.73c-0.59,0-1.19-0.16-1.72-0.46l-13.56-7.84C184.98,164.34,184.41,162.24,185.36,160.59z"/>
	</g>
	<g>
		<path style="fill:#BFF3FF;" d="M159.81,209.01l-5.36-14.72c-0.72-1.99-2.18-3.58-4.1-4.48c-1.93-0.9-4.09-0.99-6.08-0.27
			c-1.99,0.73-3.59,2.19-4.48,4.11c-0.9,1.93-1,4.09-0.27,6.08l5.36,14.72c1.14,3.12,4.14,5.23,7.47,5.23
			c0.92,0,1.84-0.16,2.71-0.48c2-0.73,3.59-2.19,4.49-4.11C160.45,213.17,160.54,211.01,159.81,209.01z M152.35,215.18
			c-1.45,0-2.75-0.91-3.24-2.27l-5.36-14.72c-0.32-0.86-0.27-1.8,0.11-2.64c0.39-0.83,1.08-1.46,1.95-1.78
			c0.38-0.14,0.78-0.21,1.18-0.21c0.5,0,0.99,0.11,1.45,0.33c0.84,0.39,1.47,1.08,1.79,1.94l5.35,14.72
			c0.32,0.87,0.28,1.8-0.11,2.64c-0.39,0.83-1.08,1.46-1.95,1.78C153.14,215.11,152.76,215.18,152.35,215.18z"/>
		<path style="fill:#F7FF6A;" d="M155.48,213.2c-0.39,0.83-1.08,1.46-1.95,1.78c-0.38,0.14-0.77,0.21-1.17,0.21
			c-1.45,0-2.75-0.91-3.24-2.27l-5.36-14.72c-0.32-0.86-0.27-1.8,0.11-2.64c0.39-0.83,1.08-1.46,1.95-1.78
			c0.38-0.14,0.78-0.21,1.18-0.21c0.5,0,0.99,0.11,1.45,0.33c0.84,0.39,1.47,1.08,1.79,1.94l5.35,14.72
			C155.9,211.43,155.86,212.35,155.48,213.2z"/>
	</g>
	<g>
		<path style="fill:#F7FF6A;" d="M96.25,198.2l-5.36,14.72c-0.49,1.36-1.79,2.27-3.24,2.27c-0.4,0-0.79-0.07-1.18-0.21
			c-0.86-0.32-1.55-0.95-1.94-1.78c-0.39-0.84-0.43-1.77-0.12-2.64l5.36-14.72c0.51-1.39,1.84-2.26,3.24-2.26
			c0.39,0,0.79,0.06,1.18,0.2c0.86,0.32,1.55,0.95,1.94,1.78C96.52,196.39,96.56,197.34,96.25,198.2z"/>
		<path style="fill:#BFF3FF;" d="M100.21,193.66c-0.9-1.92-2.49-3.38-4.48-4.11h-0.01c-4.11-1.49-8.68,0.64-10.18,4.75l-5.36,14.72
			c-0.72,2-0.63,4.15,0.27,6.08c0.9,1.92,2.49,3.38,4.49,4.11c0.87,0.32,1.79,0.48,2.71,0.48c3.33,0,6.33-2.11,7.47-5.23l5.36-14.72
			C101.2,197.74,101.1,195.59,100.21,193.66z M87.64,215.18c-0.4,0-0.79-0.07-1.18-0.21c-0.86-0.32-1.55-0.95-1.94-1.78
			c-0.39-0.84-0.43-1.77-0.12-2.64l5.36-14.72c0.51-1.39,1.84-2.26,3.24-2.26c0.39,0,0.79,0.06,1.18,0.2
			c0.86,0.32,1.55,0.95,1.94,1.78c0.39,0.84,0.43,1.78,0.12,2.64l-5.36,14.72C90.39,214.28,89.1,215.18,87.64,215.18z"/>
	</g>
	<g>
		<path style="fill:#F7FF6A;" d="M53.37,165.3l-13.56,7.83c-0.53,0.31-1.13,0.47-1.73,0.47c-1.23,0-2.37-0.66-2.99-1.73
			c-0.95-1.64-0.38-3.76,1.27-4.71l13.56-7.83c1.65-0.95,3.76-0.38,4.71,1.26C55.58,162.24,55.02,164.34,53.37,165.3z"/>
		<path style="fill:#BFF3FF;" d="M58.53,158.34c-2.18-3.79-7.05-5.1-10.85-2.92l-13.56,7.84c-3.8,2.19-5.1,7.06-2.91,10.85
			c1.41,2.45,4.05,3.98,6.88,3.98c1.39,0,2.76-0.37,3.97-1.07l13.57-7.83C59.41,167.01,60.73,162.14,58.53,158.34z M38.08,173.59
			c-1.23,0-2.37-0.66-2.99-1.73c-0.95-1.64-0.38-3.76,1.27-4.71l13.56-7.83c1.65-0.95,3.76-0.38,4.71,1.26
			c0.95,1.65,0.38,3.76-1.26,4.71l-13.56,7.83C39.29,173.43,38.69,173.59,38.08,173.59z"/>
	</g>
	<g>
		<path style="fill:#BFF3FF;" d="M43.65,101.32l-15.44-2.72c-4.31-0.74-8.43,2.15-9.19,6.45c-0.37,2.09,0.1,4.2,1.31,5.94
			c1.22,1.74,3.04,2.9,5.13,3.27l15.44,2.72c0.46,0.08,0.92,0.12,1.38,0.12c3.85,0,7.14-2.76,7.82-6.57
			C50.85,106.22,47.97,102.09,43.65,101.32z M27.45,103.03l15.43,2.72c1.87,0.33,3.12,2.12,2.79,3.99
			c-0.29,1.65-1.71,2.85-3.38,2.85c-0.21,0-0.41-0.02-0.61-0.05l-15.43-2.73c-0.9-0.15-1.69-0.66-2.22-1.41
			c-0.53-0.76-0.73-1.67-0.57-2.58c0.29-1.66,1.76-2.84,3.4-2.84C27.06,102.99,27.25,102.99,27.45,103.03z"/>
		<path style="fill:#F7FF6A;" d="M45.66,109.74c-0.29,1.65-1.71,2.85-3.38,2.85c-0.21,0-0.41-0.02-0.61-0.05l-15.43-2.73
			c-0.9-0.15-1.69-0.66-2.22-1.41c-0.53-0.76-0.73-1.67-0.57-2.58c0.29-1.66,1.76-2.84,3.4-2.84c0.2,0,0.39,0.01,0.59,0.05
			l15.43,2.72C44.75,106.09,46,107.88,45.66,109.74z"/>
	</g>
	<g>
		<path style="fill:#BFF3FF;" d="M75.35,57.28l-10.07-12c-2.81-3.35-7.83-3.79-11.19-0.98c-3.36,2.82-3.8,7.84-0.98,11.2
			l10.06,11.99c1.52,1.81,3.74,2.84,6.1,2.84c1.86,0,3.67-0.66,5.1-1.86C77.74,65.67,78.17,60.64,75.35,57.28z M69.28,65.84
			c-1.03,0-1.99-0.45-2.65-1.23l-10.07-12c-1.22-1.45-1.03-3.63,0.43-4.85c0.64-0.54,1.43-0.81,2.21-0.81
			c0.99,0,1.96,0.42,2.64,1.23l10.07,12c1.22,1.46,1.03,3.64-0.42,4.86C70.86,65.55,70.08,65.84,69.28,65.84z"/>
		<path style="fill:#F7FF6A;" d="M71.49,65.03c-0.62,0.52-1.41,0.8-2.21,0.8c-1.03,0-1.99-0.45-2.65-1.23l-10.07-12
			c-1.22-1.45-1.03-3.63,0.43-4.85c0.64-0.54,1.43-0.81,2.21-0.81c0.99,0,1.96,0.42,2.64,1.23l10.07,12
			C73.12,61.64,72.94,63.82,71.49,65.03z"/>
	</g>
	<g>
		<path style="fill:#BFF3FF;" d="M120,20.32c-4.38,0-7.94,3.57-7.94,7.95v15.66c0,4.38,3.56,7.95,7.94,7.95
			c4.38,0,7.95-3.57,7.95-7.95V28.26C127.95,23.89,124.37,20.32,120,20.32z M123.45,43.93c0,1.9-1.55,3.45-3.45,3.45
			s-3.44-1.55-3.44-3.45V28.26c0-1.9,1.54-3.45,3.44-3.45s3.45,1.55,3.45,3.45V43.93z"/>
		<path style="fill:#F7FF6A;" d="M123.45,28.26v15.66c0,1.9-1.55,3.45-3.45,3.45s-3.44-1.55-3.44-3.45V28.26
			c0-1.9,1.54-3.45,3.44-3.45S123.45,26.36,123.45,28.26z"/>
	</g>
</g>
</svg>
