<?xml version="1.0" encoding="utf-8"?>
<!-- Generator: Adobe Illustrator 26.0.3, SVG Export Plug-In . SVG Version: 6.00 Build 0)  -->
<svg version="1.1" id="레이어_1" xmlns="http://www.w3.org/2000/svg" xmlns:xlink="http://www.w3.org/1999/xlink" x="0px"
	 y="0px" viewBox="0 0 217 174" style="enable-background:new 0 0 217 174;" xml:space="preserve">
<g>
	
		<path style="fill:#197DFF;stroke:#000000;stroke-width:1.2158;stroke-linecap:round;stroke-linejoin:round;stroke-miterlimit:10;" d="
		M106.4,48.2c0,0,0.5-12.8-13.5-15.6l3-13.6c0,0,15.7,9,14.8,27.2L106.4,48.2z"/>
	
		<path style="fill:#19D1FF;stroke:#000000;stroke-width:1.2158;stroke-linecap:round;stroke-linejoin:round;stroke-miterlimit:10;" d="
		M86,18.9c0,0-11.9,3.6-9,14.5s11,8.4,11.3,5.6C88.6,36.3,84.1,22.5,86,18.9z"/>
	
		<path style="fill:#197DFF;stroke:#000000;stroke-width:1.2158;stroke-linecap:round;stroke-linejoin:round;stroke-miterlimit:10;" d="
		M107.7,10.4c0,0,13.6,0.7,16.8,14.7c3.3,14.1-3.4,25.3-3.4,25.3l-8.5-2.2c0,0,2.5-17.9-1.4-21s-9.3-5-13.6-3.3
		C93.2,25.6,97.9,10.1,107.7,10.4z"/>
	
		<path style="fill:#2E40C7;stroke:#000000;stroke-width:1.2158;stroke-linecap:round;stroke-linejoin:round;stroke-miterlimit:10;" d="
		M128.9,15.4c0,0,8.4,19-0.8,31.6l-8.2-0.9c0,0,4.8-23.4-4.7-25.3S123.6,7.2,128.9,15.4z"/>
	
		<path style="fill:#19D1FF;stroke:#000000;stroke-width:1.2158;stroke-linecap:round;stroke-linejoin:round;stroke-miterlimit:10;" d="
		M114.4,9.9c0,0-8.9,4.5-8.9,11.4s-0.5,10,5.5,11.1s8.1-6.9,9-11.3s5.8-8.8,9-5.8C128.9,15.4,126.6,6.3,114.4,9.9z"/>
	
		<path style="fill:#19A3FF;stroke:#000000;stroke-width:1.2158;stroke-linecap:round;stroke-linejoin:round;stroke-miterlimit:10;" d="
		M148.6,93.7c0,0,13.5,28.7,2.7,34.5s-22.1,5-20,15.3s36.6,3.8,37.3-18.7s-15.7-37.1-15.7-37.1L148.6,93.7z"/>
	
		<path style="fill:#19A3FF;stroke:#000000;stroke-width:1.2158;stroke-linecap:round;stroke-linejoin:round;stroke-miterlimit:10;" d="
		M153.9,90.9c0,0,20.2,18.3,13.3,42.7S137,155.5,137,155.5s13.4,14.6,28.1,6.3c14.8-8.2,19.5-34.3,13.8-48.9
		c-5.6-14.5-15.5-33.4-23.1-34.3C148.3,77.9,153.9,90.9,153.9,90.9z"/>
	
		<path style="fill:#19A3FF;stroke:#000000;stroke-width:1.2158;stroke-linecap:round;stroke-linejoin:round;stroke-miterlimit:10;" d="
		M152.8,72.5c0,0,15.4-7.8,30.5,9.7s10.1,34.6-3.6,34.3c-13.7-0.3-18.1-12.6-12.6-19.7c0,0-1.1-12.9-13.3-14.6
		C141.6,80.6,152.8,72.5,152.8,72.5z"/>
	
		<path style="fill:#19A3FF;stroke:#000000;stroke-width:1.2158;stroke-linecap:round;stroke-linejoin:round;stroke-miterlimit:10;" d="
		M167.1,96.8c0,0,9-4.3,12.9,2.2c3.9,6.5,4.7,6.6,7.2,5.7c2.4-0.8,1.1-7.4-0.7-9.3"/>
	
		<path style="fill:#19D1FF;stroke:#000000;stroke-width:1.2158;stroke-linecap:round;stroke-linejoin:round;stroke-miterlimit:10;" d="
		M137,155.5c0,0-8.2-12.5-19-6s-3,21,11.5,23.1s29.6-5.9,35.6-10.8C165.1,161.8,151.5,168,137,155.5z"/>
	
		<path style="fill:#FFD363;stroke:#000000;stroke-width:1.2158;stroke-linecap:round;stroke-linejoin:round;stroke-miterlimit:10;" d="
		M124.1,117.9c0,0,3.6,14.2,15.2,20.1c0,0-4.6,12.1,6,12.3c0,0,4.1,2,6.1-0.8c0,0,6.6-0.6,3.9-5.1c-2.7-4.5-3.6-3.4-4.8-10.9
		c-0.9-5.8-7.2-3.5-7.8-1.6c0,0-9.8-6.2-11-15.3C130.5,107.7,124.1,117.9,124.1,117.9z"/>
	
		<path style="fill:#FFD363;stroke:#000000;stroke-width:1.2158;stroke-linecap:round;stroke-linejoin:round;stroke-miterlimit:10;" d="
		M145.3,118c0,0-1,6,2.5,6.8c3.5,0.8,6-2.7,6-2.7l-5.2-7.9L145.3,118z"/>
	
		<path style="fill:#FFD363;stroke:#000000;stroke-width:1.2158;stroke-linecap:round;stroke-linejoin:round;stroke-miterlimit:10;" d="
		M148.1,116.6c0,0-2.4,8.3,5.8,8.1s1.1-10.4,1.1-10.4l-6.4-3.3L148.1,116.6z"/>
	
		<path style="fill:#FFD363;stroke:#000000;stroke-width:1.2158;stroke-linecap:round;stroke-linejoin:round;stroke-miterlimit:10;" d="
		M150.5,112.4c0,3.3-4.3,9-9.2,8.6c-4.9-0.4-5.8-5-5.8-5s-1-7.8,3.7-9.4c4.7-1.6,12.6-4.3,14.2-2.9s4,9.1,5.8,10.7s5.4,7.2-1.3,8.7
		C149.2,125.1,150.5,112.4,150.5,112.4z"/>
	
		<path style="fill:#2E40C7;stroke:#000000;stroke-width:1.2158;stroke-linecap:round;stroke-linejoin:round;stroke-miterlimit:10;" d="
		M21.2,82.2c0,0,2.5,6.9,13.5-3.9s15.5-27.6,15.5-27.6l-17.9-4.7L21.2,82.2z"/>
	
		<path style="fill:#2E40C7;stroke:#000000;stroke-width:1.2158;stroke-linecap:round;stroke-linejoin:round;stroke-miterlimit:10;" d="
		M14.1,58.8c0,0-23.6,28.6-7.5,35.7s18-39.8,30.9-43.2l-9.2-5.1L14.1,58.8z"/>
	
		<path style="fill:#197DFF;stroke:#000000;stroke-width:1.2158;stroke-linecap:round;stroke-linejoin:round;stroke-miterlimit:10;" d="
		M95.3,48.2c0,0-5-26-37.5-16.1S20.5,48.6,14.1,58.8c0,0,15.6-13.2,30.6-5.2S65,70.9,65,70.9L95.3,48.2z"/>
	<path style="fill:#19D1FF;" d="M40.4,42.1c-0.7,0-1.5,0.1-2,0.5c-1.5,1.1-0.1,3.6,1.6,4.2c1.8,0.5,3.7,0.1,5.5,0.5
		c4.2,1,5.9,6.5,10,7.7c2,0.6,4.3,0.1,6.3,1c1.3,0.6,2.4,1.8,3.9,1.9c3.2,0.2,4.1-4.7,6.9-6c1.5-0.7,3.2-0.3,4.9-0.4
		c1.1,0,2.6-0.3,3.4-1.3c0.8-1,0.2-2.7,1.3-3.5c2.3-1.9,5.1,2.5,7.4,1.4c0.7-0.4,0.9-1.4,0.6-2.2c-0.3-0.8-0.8-1.5-1.1-2.2
		c-0.2-0.6-0.2-1.3-0.4-1.9c-0.5-2.1-2.1-3.7-3.8-4.9c-1.8-1.2-3.8-2-5.6-3.1c-1-0.6-2-1.3-3-1.7c-1.6-0.7-3.4-0.8-5-0.3
		c-1.6,0.5-3.3,2-2.8,3.6c0.2,0.5,0.6,1,0.9,1.4c1.7,1.9,3.4,3.9,5.1,5.8c-2.3-0.8-4.4-1.9-6.3-3.3c-1.1-0.8-2.2-1.8-3.6-2.2
		c-1.9-0.5-3.8,0.1-5.7,0.8c-1.4,0.5-2.8,1.1-4.3,1.6c0.7,3.3,3.5,5.7,6.2,7.7c-2.8-2-6.5-4.5-9.9-5.3c-1.6-0.4-3.2,0.2-4.9,0.3
		C44.2,42.1,42.3,42,40.4,42.1z"/>
	<path style="fill:#FFFFFF;" d="M48.6,43.6c-1.6-0.2-3.3-0.1-4.9,0.2c-0.2,0-0.5,0.1-0.6,0.3c-0.3,0.4-0.1,1,0.3,1.2
		c0.4,0.2,0.9,0.2,1.4,0.2c2.4-0.1,4.9,0.6,6.9,1.9c1.2,0.8,2.3,1.8,3.7,2.1c0.8,0.2,1.7,0,2.5,0.3c2.2,0.8,3,4.5,5.4,4.3
		c-0.5-0.6,0.1-1.6,0.8-1.5c0.7,0,1.2,0.9,1.1,1.6c1.3,0.1,2.7-0.9,2.8-2.3c0.1-0.5,0-1.1,0.2-1.6c0.5-1,1.9-1.1,3-0.9
		s2.5,0.4,3.2-0.4c0.2-0.2,0.3-0.5,0.5-0.7c1.4-1.6,4.9-0.3,5.7-2.3c0.2-0.5,0.2-1,0.4-1.4c0.3-0.5,1-0.6,1.5-0.7
		c2.3-0.3,5.1,0.3,6,2.5c-0.2-1.3-0.4-2.6-1-3.8c-0.6-1.2-1.7-2.2-3-2.3c-0.5,0-1,0.1-1.5-0.1c-0.7-0.2-1.2-0.8-1.7-1.4
		c-1.1-1.4-2.3-2.7-3.9-3.5c-1.6-0.8-3.5-0.9-5,0c2.4,1.3,4.6,3.6,4.9,6.4c0.1,0.9,0,1.8-0.5,2.6s-1.5,1.2-2.3,1
		c-1.1-0.3-1.7-1.6-2.9-1.8c-1.4-0.2-2.6,1.5-3.9,1.2c-1-0.2-1.4-1.4-1.9-2.2c-0.8-1.3-2.3-2.1-3.9-2.2c-1.5,0-3.1,0.7-4,2
		c2.5,0.1,4.5,2.7,4,5.1c0.8,0.2,1.4,0.8,1.6,1.6c-0.4,0.6-1.4,0.4-1.9,0c-0.6-0.4-1-1.1-1.5-1.5c-1.5-1-3.8-1-5.4-1.9
		C53,44.6,50.9,43.9,48.6,43.6z"/>
	
		<path style="fill:#FFD363;stroke:#000000;stroke-width:1.2158;stroke-linecap:round;stroke-linejoin:round;stroke-miterlimit:10;" d="
		M72.4,76.5c0,0-15.7-7.6-14.9-12.1c0.9-4.6,9.9-2.1,9.9-2.1s-0.9-8,6.8-8.6c0,0-0.6-5.6,5.6-5.5c6.2,0.1,8.4,2.6,8.4,2.6
		s7.6,14.9-1.6,19.9C77.5,75.7,72.4,76.5,72.4,76.5z"/>
	
		<path style="fill:#2E40C7;stroke:#000000;stroke-width:1.2158;stroke-linecap:round;stroke-linejoin:round;stroke-miterlimit:10;" d="
		M100.8,116.9c0,0,14.7,7,32.2,1.1c17.4-5.9,27.2-25.3,22.2-43.5c-5-18.3-23.5-33.1-42.8-29.9c-19.3,3.1-28.2,12.9-29.1,18.9
		C82.6,69.5,100.8,116.9,100.8,116.9z"/>
	
		<path style="fill:#FFD363;stroke:#000000;stroke-width:1.2158;stroke-linecap:round;stroke-linejoin:round;stroke-miterlimit:10;" d="
		M52.5,120.7c0,0-1.8,9,6.4,15.7c0,0,9.7-5.4,10.3-14c0.6-8.6,0.6-8.6,0.6-8.6L52.5,120.7z"/>
	
		<path style="fill:#197DFF;stroke:#000000;stroke-width:1.2158;stroke-linecap:round;stroke-linejoin:round;stroke-miterlimit:10;" d="
		M78.7,102.7c-0.3,2.4-0.5,4.9,0.1,7.2c0.6,2.3,2.3,4.5,4.7,5.1c2,0.5,4.1-0.1,5.7-1.4c2.3-1.9,3.3-4.9,3.2-7.8
		c-0.2-2.9-1.5-5.7-3.4-7.9c-1.5-1.8-3.6-3.4-5.9-3.3C78.3,94.5,79.2,99.1,78.7,102.7z"/>
	
		<path style="fill:#197DFF;stroke:#000000;stroke-width:1.2158;stroke-linecap:round;stroke-linejoin:round;stroke-miterlimit:10;" d="
		M87.4,114.8c1.8,1.9,4.2,3.4,6.8,3.6c1,0.1,2.1-0.1,2.8-0.8c0.6-0.6,0.8-1.5,0.9-2.3c0.3-2.4-0.2-4.9-1.3-7.1
		c-1.5-3-4.1-5.4-6.7-7.6c-2.6-2.3-8.8-5.6-9,0.2C80.7,105,84.7,111.8,87.4,114.8z"/>
	
		<path style="fill:#197DFF;stroke:#000000;stroke-width:1.2158;stroke-linecap:round;stroke-linejoin:round;stroke-miterlimit:10;" d="
		M46.8,114.9c0,0,0.8,8.9,13.5,8.1c12.6-0.7,13.9-20.9,14-21.3c0.1-1.9,2.7-3.9,4.4-3.7c4,0.5,7.5,8.2,9.4,11.2
		c2.6,4.2,5.3,7.8,10.3,8.8c1.6,0.3,9.1,1.8,9.5-1.2c0.2-2-9.1-4.3-5.9-6.3s4.4,3.5,12.3,0c7.8-3.5,10.8-8.4,8.3-10.6
		c-2.5-2.2-5.4,1.2-8.6,0s14-3.2,16.2-8.8c2.2-5.6-5.2-5.2-12.1-5.6c-7-0.5-6.5-6.9-1.8-7c4.7-0.1,9.8-0.4,6.1-2.8
		c-3.7-2.4-8.8-4.4-12.7-1.9c-3.9,2.5-4.2-2.9,1.5-7.1c5.6-4.2,2-8-2.5-7.8c-4.4,0.3-3.7,10.7-7.8,11.2s1.3-9-3.2-9.1
		c-4.5-0.1-9.2,5.7-9.2,5.7s-2.1-7.1-5.2-5.7c-3.2,1.5-2.4,11.3-6.8,11.5s-4.2-3.9-9.6-4s-15.3-0.9-19.9,10S46.8,114.9,46.8,114.9z"
		/>
	
		<path style="fill:#19D1FF;stroke:#000000;stroke-width:1.2158;stroke-linecap:round;stroke-linejoin:round;stroke-miterlimit:10;" d="
		M52.5,118c0,0-19.8-5-21-20.8s5.2-21.6,5.2-21.6L52.5,118z"/>
	<g>
		
			<path style="fill:#19D1FF;stroke:#000000;stroke-width:1.2158;stroke-linecap:round;stroke-linejoin:round;stroke-miterlimit:10;" d="
			M52.5,118c0,0-11.5-23.8,0-46.2c11.5-22.4,19.8-18.7,22.4-30c2.6-11.3-2.5-23.6-13.8-22.9c-11.2,0.7-17,8.7-13.8,17.9
			s12.2,6.6,12.2,6.6s-1.7,6.8-8.5,10.9C39.3,61.6,34.5,76.8,35.6,90c0.6,6.6,2.8,13.9,6.3,19.6c1.3,2.1,2.9,4,4.9,5.4
			C47.8,115.7,52,117,52.5,118z"/>
		
			<path style="fill:none;stroke:#000000;stroke-width:1.2158;stroke-linecap:round;stroke-linejoin:round;stroke-miterlimit:10;" d="
			M59.6,43.5c0,0,7.5-2.1,7.1-8.5s-3.1-7.8-5.4-7.8s-5.9,2.3-1.7,8.2"/>
	</g>
	
		<path style="fill:#FFFFFF;stroke:#000000;stroke-width:1.2158;stroke-linecap:round;stroke-linejoin:round;stroke-miterlimit:10;" d="
		M62.8,113.4c0,0,7.2-0.3,7-7c-0.2-6.6-2.1-7.3-2.1-7.3S60,106.3,62.8,113.4z"/>
	<g>
		
			<path style="fill:#19D1FF;stroke:#000000;stroke-width:1.2158;stroke-linecap:round;stroke-linejoin:round;stroke-miterlimit:10;" d="
			M52.5,118c-0.4-0.7,0.7-4.1,0.8-5.1c0.3-2,0.6-4.1,0.8-6.1c0.6-3.9,1.2-7.9,2.5-11.7c2.7-7.8,8.7-14.8,16.9-16.7
			c9.1-2.1,29.2-6.7,30.5-19.5c1.3-12.8-10.5-17.9-16.2-14.5s-6.9,14.7,0.4,16c0,0-1.5,5.3-5.7,6.3c-4.2,1-29.3,4.4-33.2,21.6
			C45.6,105.6,52.5,118,52.5,118z"/>
		
			<path style="fill:none;stroke:#000000;stroke-width:1.2158;stroke-linecap:round;stroke-linejoin:round;stroke-miterlimit:10;" d="
			M88.3,60.6c0,0,10.2,2.5,9.1-5.4c-1.1-7.9-5.2-3.4-5.2-0.6"/>
	</g>
	
		<path style="fill:#FFD363;stroke:#000000;stroke-width:1.2158;stroke-linecap:round;stroke-linejoin:round;stroke-miterlimit:10;" d="
		M62.6,110.6c0,0,3.2,0.5,4.6-2.7s-2.3-5.6-2.3-5.6S61.9,107,62.6,110.6z"/>
	
		<ellipse style="fill:#FFFFFF;stroke:#000000;stroke-width:1.2158;stroke-linecap:round;stroke-linejoin:round;stroke-miterlimit:10;" cx="63.9" cy="106.5" rx="1.3" ry="1.3"/>
	
		<path style="fill:#19D1FF;stroke:#000000;stroke-width:1.2158;stroke-linecap:round;stroke-linejoin:round;stroke-miterlimit:10;" d="
		M62.8,113.4c0,0-1.7-11.6,7-14.4s15.5-6.9,15-12.3c-0.5-5.4-10.2,2.4-11.1,6.5c0,0,1-3-1-3c-2.2,0-4.7,1.9-6.3,3.2
		c-3.2,2.5-5.4,6.2-6.1,10.2C59.8,106.7,59.7,111.3,62.8,113.4z"/>
	
		<path style="fill:#197DFF;stroke:#000000;stroke-width:1.2158;stroke-linecap:round;stroke-linejoin:round;stroke-miterlimit:10;" d="
		M167.4,43.5c0,0-4.6,14.6-14.8,23.4s-41,18-40.4,5.6c0.6-12.4,1.9-61.4,33.8-69.4s73.7,8.3,69.3,26.8c0,0,3.9,14.5-7,20.9
		c0,0-1,9.8-12.2,12.9c0,0-5.6,23.8-18.7,21c0,0-1.9-1.6-1.2-9.1C176.9,68.1,172.1,45.2,167.4,43.5z"/>
	
		<path style="fill:#FFD363;stroke:#000000;stroke-width:1.2158;stroke-linecap:round;stroke-linejoin:round;stroke-miterlimit:10;" d="
		M109.7,64.3c-0.8,0.1-1.3,0.8-1,1.6c0.8,2.4,2.5,8.5,1.4,12.1c-1.3,4.7,0,9.6,5.8,9.6s10.5-5.4,10.5-5.4s-0.4,3.7,6,2.5
		c6.5-1.2,16.1-9.1,16.1-9.1s0.5,2.2,3.6,0.5c3.1-1.7,5.6-6.9,7.6-11.4c2-4.5,1.3-8.1-1.8-7.2c-3.1,0.9-10.5,6.3-10.7,8.3
		c0,0,1.6-6.8-3.8-7.1c-5.4-0.3-9.8,9.7-9.8,9.7s-0.7-8.4-6.5-7.5c-5.8,0.9-10.5,8.1-10.7,11.6C116.3,72.5,113.8,63.9,109.7,64.3z"
		/>
	<path style="fill:none;stroke:#000000;stroke-width:1.2158;stroke-linecap:round;stroke-linejoin:round;stroke-miterlimit:10;" d="
		M145.9,141.2c0,0-0.3,5.6,5.4,8.3"/>
	<path style="fill:none;stroke:#000000;stroke-width:1.2158;stroke-linecap:round;stroke-linejoin:round;stroke-miterlimit:10;" d="
		M142.1,142.6c0,0-1.4,4.5,3.1,7.7"/>
	<path style="fill:none;stroke:#000000;stroke-width:1.2158;stroke-linecap:round;stroke-linejoin:round;stroke-miterlimit:10;" d="
		M128.9,36.1c0,0,16.9-18.2,38.5,7.4"/>
	
		<path style="fill:#19D1FF;stroke:#000000;stroke-width:1.2158;stroke-linecap:round;stroke-linejoin:round;stroke-miterlimit:10;" d="
		M107.7,10.4c0,0-17.1-4.2-21.7,8.5c-4.6,12.7,2.4,19,6.9,19.1s7.6-2,7.6-14.2S107.7,10.4,107.7,10.4z"/>
	<path style="fill:none;stroke:#000000;stroke-width:1.2158;stroke-linecap:round;stroke-linejoin:round;stroke-miterlimit:10;" d="
		M190,41.3c0,0,7.1,9,6.2,22.4"/>
	<path style="fill:none;stroke:#000000;stroke-width:1.2158;stroke-linecap:round;stroke-linejoin:round;stroke-miterlimit:10;" d="
		M204.4,33.5c0,0,4.4,5.2,3.9,17.2"/>
	<path style="fill:none;stroke:#000000;stroke-width:1.2158;stroke-linecap:round;stroke-linejoin:round;stroke-miterlimit:10;" d="
		M211.7,25.3c0,0,2.5,1.5,3.6,4.6"/>
	<path style="fill:#19D1FF;" d="M156.6,26.3c9.4,2.7,18.3,10,19.6,19.8c0.5,3.5,0.4,8,3.6,9.5c0.9,0.4,2,0.6,2.8,1.2
		c2,1.6,0.8,4.6,0,7c-1.3,3.9-1,8.4,0.9,12.1c4.2-2.6,8.9-6.4,7.9-11.2c-0.3-1.4-1.1-2.6-1.6-3.9c-0.7-1.9-0.8-3.9-1.1-5.9
		c-1.2-9-5.2-17.6-5.6-26.7c5.2,2.8,9.3,7.3,12.4,12.2c3.1,4.8,5.4,10.1,6.7,15.6c4.5-2.3,4.5-9,2.6-13.7c-1.9-4.8-5.1-9.3-4.9-14.4
		c5.9,1.2,10.8,6.4,11.7,12.3c3.6-3.4,0.9-9.5-2.3-13.3c-0.8-0.9-1.6-1.9-1.7-3.1c-0.1-1.2,1-2.6,2.2-2.2c-1.7-0.5-4.8-5-6.8-6.2
		c-2.7-1.6-5.7-2.7-8.7-3.5c-6.3-1.6-12.8-2.9-19.3-2.4c0.4-1.2,0.9-2.5,1.1-3.7c-1.2-0.5-3.7,0.1-5,0.1c-2.3,0.1-4.7,0.4-7-0.1
		c-1.6-0.3-3.1-1-4.7-1.5c-6.3-1.6-12.6,1.5-18.6,4c-3.4,1.4-7.5,3.2-8.1,6.9c-0.2,1.3,0,2.8-0.9,3.8c-1,1-2.7,0.8-3.8,1.7
		c-1.3,1-1.2,2.8-1.8,4.3c-0.3,0.8-0.9,1.6-1.2,2.4c-0.3,0.8-0.5,1.9,0.1,2.6c1,1.4,2.9-0.1,4-0.8c1.8-1.1,3.4-2.5,5.3-3.3
		c3-1.3,6.5-0.1,9.7,0C148.3,26.1,152.4,26.3,156.6,26.3z"/>
	<path style="fill:#FFFFFF;" d="M149.4,15.5c-2.9,1.6-5.8,4.2-8.9,4.4c-0.9,0-1.3,1.1-0.7,1.7c2.4,2.3,6.8,2.6,10.3,1.4
		c4.2-1.4,8.1-4.2,12.6-4.2c2.9,0,5.8,1.1,7.8,3.2c0.3,0.3,0.6,0.7,0.7,1.2c0.2,1-0.9,1.8-1.7,2.5c-0.8,0.7-1.5,2-0.7,2.7
		c2.8-0.6,5.8,1,6.9,3.6c0.8,1.9,0.7,4.1,1.7,5.8c0.7,1.1,1.8,1.9,2.8,2.8c0.9,0.9,1.8,2.2,1.6,3.5c-0.2,1.3-1.9,2.3-2.9,1.4
		c1,1.9,2.8,3.3,4.9,3.9c3,4.4-1.1,10.6,1,15.6c0.4,0.9,1.2,1.5,2.2,1.5c1.6,0,2.2-1.7,1.9-3.1c-0.3-1.1-1-2.1-1.4-3.1
		c-1.3-2.7-1.1-5.9-1.5-8.9c-0.9-6.7-5-12.8-5.1-19.5c0-2.8,0.6-6-1.2-8.3c-1.2-1.5-3-2.1-4.8-2.6c4.5-2.4,11,0.4,12.2,5.4
		c1.3-0.2,2.7-0.3,3.7,0.4c1.2,0.9,1.3,2.7,1.6,4.2c1.4,6.8,10.1,11.2,9,18c1.4-1,1.9-3,1.6-4.8c-0.3-1.8-1.2-3.3-2.2-4.8
		c-2-3.3-4-6.5-6.1-9.7c-0.9-1.3-1.8-2.8-0.9-4.5c0.5-1.1,1.7-1.7,2.8-1.8c2.4-0.2,4.4,1.2,6.2,2.6c2.3,1.8,4.5,3.7,6.6,5.7
		c0-2.6-1.4-5.2-3.6-6.6c-0.9-0.6-2-1-2.8-1.9c-0.7-0.8-0.9-2.3-0.1-3c-0.3-1.2-2-1.4-3.2-1c-1.2,0.4-2.3,1.2-3.5,1.2
		c-1.5,0-2.6-1.1-4-1.6c-1.4-0.5-3.4,0.1-3.3,1.6c-0.7,0.8-2,0.2-2.5-0.8c-0.5-0.9-0.5-2-1-2.9c-0.8-1.5-2.7-2.1-4.5-2.1
		s-3.5,0.3-5.2,0c-2.7-0.5-4.7-2.1-7.5-1.7c-1.8,0.2-3.2,1.2-5,1.3C158.2,14.4,154.4,12.7,149.4,15.5z"/>
	<path style="fill:#19B2FF;" d="M129.2,42.1c-2.2,1.2-5.2,0.4-7.1,2c-1.9,1.7-1.3,4.8-1.7,7.4c-0.2,1.5-0.9,3-1.3,4.5
		c-0.5,2-0.5,4.2,0.2,6.3c1.8-3.9,7.3-5.5,10.9-3.2c0.2,0.2,0.5,0.3,0.8,0.3c0.2-0.1,0.4-0.3,0.5-0.4c2.7-4.2,2.4-10.1,6.1-13.4
		c0.5-0.4,1-0.8,1.3-1.3c0.2-0.4,0.2-0.9,0.2-1.3c0.1-2.9-0.1-6.4-1.5-8.9C133.9,35.1,132.6,40.2,129.2,42.1z"/>
	<path style="fill:#87E7FF;" d="M131.3,42.5c-0.7,1.2-1.2,2.7-2.4,3.3c-1.3,0.6-3,0.1-4.1,1.1c-1,0.9-0.7,2.6-0.7,4
		c0,1.4-0.3,2.7-0.9,3.9c-0.1,0.2-0.2,0.4-0.2,0.6c0.1,0.3,0.4,0.5,0.8,0.5c0.9,0,1.4-0.9,1.9-1.6c0.5-0.7,1.3-1.4,2.1-1.1
		c0.4,0.2,0.7,0.7,0.9,1.1c0.3,0.4,0.7,0.8,1.2,0.6c0.5-0.2,0.6-0.8,0.6-1.3c0.2-1.8,0.4-3.7,1.4-5.3c0.6-1,1.5-1.8,2.2-2.8
		c0.7-1,1.2-2.2,0.9-3.3c-1.1,0.4-2.1,1-2.9,1.8c-0.6-1.5,2-2.4,1.2-3.5C132.3,41,131.7,41.7,131.3,42.5z"/>
	<path style="fill:#19B2FF;" d="M143.5,36.7c-0.5,0.4-0.8,1-0.9,1.7c-0.4,2,0.6,4.1,0,6.1c-0.3,0.9-0.9,1.7-1.1,2.7
		c-0.2,0.7,0,1.5-0.2,2.2c-0.2,1-0.9,1.9-1.4,2.8c-1,1.8-1.3,3.9-0.8,5.9c0.3-1.5,1.9-2.3,3.5-2.4s3,0.4,4.5,0.4
		c0.6-1.9,1.2-3.8,1.8-5.8c0.2-0.7,0.5-1.5,1-2c0.4-0.4,0.9-0.6,1.3-1c0.8-0.7,1.1-1.7,1.5-2.7c0.4-1.2,0.8-2.5,0.8-3.8
		c0-1.3-0.4-2.7-1.4-3.5C150.4,36.1,145.1,35.4,143.5,36.7z"/>
	<path style="fill:#19B2FF;" d="M157.7,39.9c-0.3,0-0.6,0-0.8,0.2c-0.2,0.1-0.3,0.4-0.3,0.6c-0.3,0.9-0.3,1.9,0,2.9
		c0.2,0.8,0.7,1.5,0.7,2.4c0,0.9-0.6,1.7-1.2,2.5c-0.7,1.1-1.3,2.4-1.6,3.7c-0.2,0.9-0.4,1.8-0.9,2.6c-0.3,0.5-0.8,1-1.2,1.5
		s-0.6,1.2-0.4,1.8c0.6-1.5,1.9-2.6,3.4-3c1.4-0.3,2.9,0,4.4-0.1c0.2,0,0.5,0,0.7-0.1c0.2-0.1,0.4-0.4,0.5-0.6
		c0.9-1.8,0.7-4,1.7-5.7c0.8-1.4,2.3-2.4,2.5-4C165.6,41.1,160.1,39.8,157.7,39.9z"/>
	<path style="fill:#87E7FF;" d="M147.5,39.1c-0.4-0.3-0.8-0.6-1.3-0.6c-0.9,0.1-1.4,1.1-1.5,2c-0.1,0.9,0,1.9,0.2,2.8
		c0.1,0.5,0.3,1.1,0.3,1.6c0,1.5-1.5,2.9-0.8,4.2c0.4,0.3,0.9,0.3,1.3,0.2c0.2-0.7,0.5-1.4,0.7-2.1c0.1-0.3,0.2-0.5,0.4-0.7
		c0.3-0.3,0.8-0.2,1.2-0.3c1-0.2,1.8-1.1,2.2-2.1c0.3-1,0.3-2.1,0.2-3.2c0-0.3,0-0.7-0.2-1c-0.6-0.9-1.3,0.5-1.6,0.9
		C148.4,40.2,148,39.6,147.5,39.1z"/>
	<path style="fill:#FFFFFF;" d="M123.7,77.2c-0.1,1.6-1.8,2.5-3.3,3.1c-1.4,0.5-3.1,1-4.4,0.3c-1.2-0.6-1.8-1.9-2.1-3.2
		c-0.3-1.3-0.4-2.6-0.8-3.8c1.8,0.2,2.6,3.2,4.3,2.8c0.7-0.1,1.1-0.7,1.5-1.3c1.3-1.8,3-3.5,5.2-3.9c2.2-0.4,4.8,1.2,4.6,3.5
		c1.2-0.9,3.1-0.8,4.1,0.4c0.2,0.2,0.4,0.5,0.7,0.5c0.2,0,0.4-0.1,0.6-0.2c1.2-0.9,1.9-1.5,2.6-2.7c1-1.6,2.4-2.9,4-3.7
		c0.7-0.4,1.6-0.7,2.4-0.6c2,0.3,2.3,2.4,2.1,4.1c0.6-1.2,2-2.6,3.3-2.5c0.4,0,0.8,0.1,1.2,0c0.6-0.2,1-0.7,1.3-1.3
		c0.3-0.6,0.7-1.1,1-1.7c0.3-0.5,0.7-1,1.2-0.9c0.7,0.1,0.9,1,0.8,1.6c-0.2,1.2-0.8,2.3-1.5,3.4c-0.6,1-1.3,2-2.4,2.1
		c-0.8,0.1-1.7-0.3-2.4,0.2c-0.2,0.2-0.3,0.4-0.5,0.6c-0.6,0.8-1.7,0.9-2.5,1.5c-0.5,0.4-0.8,0.9-1.1,1.4c-1.7,2.1-5.2,2.6-7.4,0.9
		c-0.1-0.1-0.2-0.2-0.4-0.2c-0.4-0.1-0.7,0.2-0.9,0.5c-1,0.9-2.6,1.1-3.8,0.3c-0.2-0.1-0.3-0.2-0.5-0.2c-0.3,0-0.5,0.2-0.7,0.3
		c-0.6,0.4-1.5,0.3-2.1-0.2c-0.2-0.2-0.4-0.4-0.6-0.4c-0.5-0.1-0.9,0.3-1.4,0.2C125.3,77.9,124.4,77,123.7,77.2z"/>
	<path style="fill:#19B2FF;" d="M84.9,96.7c2.5,1.9,4.6,4.5,5.7,7.5c1.3,3.2,2.3,7.4,5.7,7.9c0-2.1,0.1-4.2,0.1-6.4
		c3.3,0.1,6.5,0.2,9.8,0.2c-0.6-2.5-2.1-4.8-4.2-6.2c4.3-2.4,8.7-4.7,13-7.1c-2.9-3.5-8.3-3.2-12.9-3c-0.6,0-1.2,0-1.8-0.2
		c-1.7-0.8-1.3-3.4-0.1-4.8c1.3-1.4,3.1-2.2,4.1-3.8c0.2-0.4,0.4-0.9,0.2-1.3c-0.2-0.5-0.9-0.6-1.4-0.7c-2.7-0.3-5.3-0.6-8-0.9
		c-1.6-0.2-3.2-0.4-4.8-0.1c-2.1,0.3-4,1.5-6.1,1.9c-1.6,0.3-3.3,0.2-4.9,0.6c-1.6,0.4-3.3,1.4-3.7,3c2.8,0.6,5.6-0.7,8.4-1.6
		c2.7-0.9,6.1-1.3,8.2,0.7c-2.4,1.1-3.6,4.2-2.8,6.6c0.8,2.3,6.1,6.1,4.2,8.9C92.6,99.7,86.2,97.7,84.9,96.7z"/>
	<path style="fill:#A8EEFF;" d="M41.3,74.6c-0.2,0.9-0.4,1.9-0.9,2.6c-0.5,0.7-1.2,1.3-1.6,2c-0.5,0.9-0.4,1.9-0.3,2.9
		c0.2,3.2,0.5,6.3,0.7,9.5c0,0.5,0.1,1.1,0.6,1.3c0.8,0.3,1.3-0.8,1.4-1.6c0.4,0.7,0.8,1.4,1.2,2.1c2.4-4.2,0-9.6,1.5-14.1
		c0.9-2.6,3.1-4.8,3.4-7.6c0.2-1.9-0.7-4.1,0.4-5.7c0.5-0.7,1.3-1.3,1.7-2c0.4-0.8,0.1-2.1-0.8-2c-0.4,0-0.7,0.3-1,0.5
		C44.3,65.5,42.3,70.4,41.3,74.6z"/>
	<path style="fill:#A8EEFF;" d="M57.8,79.9c-0.5,0.7-0.9,1.6-1.5,2.3c-0.7,0.9-1.7,1.6-2.5,2.5c-2.2,2.5-2.5,6.2-2.6,9.5
		c0.8,0.3,1.5-0.7,1.8-1.5c2.4-5.9,7-10.9,12.7-13.9c1.4-0.7,2.9-1.4,3.8-2.6c-2.2-0.3-4.2,0.6-5.9,1.9c-0.5-1.7-1-1.5-2.4-0.8
		C60,78,58.7,78.6,57.8,79.9z"/>
</g>
</svg>
