<?xml version="1.0" encoding="utf-8"?>
<!-- Generator: Adobe Illustrator 26.5.0, SVG Export Plug-In . SVG Version: 6.00 Build 0)  -->
<svg version="1.1" id="레이어_5" xmlns="http://www.w3.org/2000/svg" xmlns:xlink="http://www.w3.org/1999/xlink" x="0px"
	 y="0px" viewBox="0 0 960 540" style="enable-background:new 0 0 960 540;" xml:space="preserve">
<g>
	<defs>
		<rect id="SVGID_1_" width="960" height="540"/>
	</defs>
	<clipPath id="SVGID_00000125578180698520867350000001135767005582143887_">
		<use xlink:href="#SVGID_1_"  style="overflow:visible;"/>
	</clipPath>
	
		<linearGradient id="SVGID_00000116213358728284684620000015831394858870414988_" gradientUnits="userSpaceOnUse" x1="480" y1="530.7144" x2="480" y2="-24.74">
		<stop  offset="0" style="stop-color:#BCE5FF"/>
		<stop  offset="1" style="stop-color:#4BBAFF"/>
	</linearGradient>
	
		<rect style="clip-path:url(#SVGID_00000125578180698520867350000001135767005582143887_);fill:url(#SVGID_00000116213358728284684620000015831394858870414988_);" width="960" height="540"/>
	<path style="clip-path:url(#SVGID_00000125578180698520867350000001135767005582143887_);fill:#FFFFFF;" d="M965.3,183.1
		c-17.1-6.2-37.1-6.2-52.6,3.3c-15.5,9.5-25,29.4-19.4,46.7c-9.9-10.3-26-14.2-39.5-9.4s-23.6,17.9-24.8,32.1
		c-21.4-6.2-46.3,1.9-59.9,19.6c-3.6,4.7-6.5,10.5-5.2,16.2c2.2,9.6,14.2,12.7,24,13.8c84.2,9.5,169,12.4,253.7,8.9
		c14.7-0.6,31.3-2.4,40.2-14.1c14.2-18.8-6.2-46.2-24.1-53.9c-10-4.3-21.1-5.1-31.9-4.8c-7.4,0.2-15.2,0.9-21.5,5
		C1004.6,218.1,993.1,193.2,965.3,183.1z"/>
	<path style="clip-path:url(#SVGID_00000125578180698520867350000001135767005582143887_);fill:#FFFFFF;" d="M47.2,51.9
		c-15.9-5.1-34.4-4.4-48.3,4.9C-15,66-23,84.7-17.3,100.4c-9.5-9.2-24.4-12.1-36.6-7.3s-21.1,17.3-21.7,30.4
		c-19.9-5-42.5,3.4-54.4,20.1c-3.1,4.4-5.6,9.9-4.2,15.1c2.4,8.8,13.5,11.1,22.6,11.8c77.8,5.7,156,5.5,233.7-0.7
		c13.5-1.1,28.7-3.3,36.5-14.4c12.4-17.8-7.3-42.3-24.1-48.7c-9.3-3.6-19.6-3.9-29.5-3.3c-6.8,0.4-14,1.4-19.6,5.4
		C84.6,82.7,73.2,60.3,47.2,51.9z"/>
	<path style="clip-path:url(#SVGID_00000125578180698520867350000001135767005582143887_);fill:#FFFFFF;" d="M0,343.4
		c0,0,71.3,0,80.2,57.2c0,0,113.5-40.6,117,91.2c0,0,63.3-16,61.8,48.3H0V343.4z"/>
	<g style="clip-path:url(#SVGID_00000125578180698520867350000001135767005582143887_);">
		<g>
			<path style="fill:#1D3549;" d="M75,458.7H-0.1c-2.3,0-4.1,1.8-4.1,4.1v36.4c0,2.2,1.8,4.1,4.1,4.1H75c2.3,0,4.1-1.8,4.1-4.1
				v-36.4C79.1,460.5,77.3,458.7,75,458.7z"/>
			<path style="fill:#1B0D00;" d="M75,458.7c2.3,0,4.1,1.8,4.1,4.1v36.4c0,2.2-1.8,4.1-4.1,4.1H-0.1c-2.3,0-4.1-1.8-4.1-4.1v-36.4
				c0-2.2,1.8-4.1,4.1-4.1H75 M75,456.1H-0.1c-3.7,0-6.7,3-6.7,6.7v36.4c0,3.7,3,6.7,6.7,6.7H75c3.7,0,6.7-3,6.7-6.7v-36.4
				C81.7,459.1,78.7,456.1,75,456.1L75,456.1z"/>
		</g>
		<path style="fill:#323B4F;" d="M-0.1,503.2H75c2.3,0,4.1-1.8,4.1-4.1v-8.8c-13.1,3.6-40.4,0.4-40.4,0.4c-21.5-2.1-41.5-0.7-43-0.4
			v8.8C-4.2,501.4-2.4,503.2-0.1,503.2z"/>
		<path style="fill:#1F2634;" d="M73.7,499.5c-11.2,1.2-24.1-2.7-24.1-2.7c-9.7-2.9-19.9-0.4-19.9-0.4c-7.4,1.8-16.9,2.7-16.9,2.7
			c-8.4,0.8-13.8,0.4-17.1-0.9v0.9c0,2.2,1.8,4.1,4.1,4.1H75c2.3,0,4.1-1.8,4.1-4.1v-0.9C75.5,499.4,73.7,499.5,73.7,499.5z"/>
		<polygon style="fill:#434459;" points="66.5,491.3 65.6,492.1 67.1,492.1 		"/>
		<polygon style="fill:#434459;" points="60.6,497.3 60.9,496.4 61.9,496.4 61.4,497.3 		"/>
		<polygon style="fill:#434459;" points="58.6,493.6 58.6,494.5 59.6,493.5 		"/>
		<polygon style="fill:#434459;" points="34.6,492.2 35.5,491.5 35.5,492.6 34.4,492.8 		"/>
		<polygon style="fill:#434459;" points="49.7,492.5 48.8,491.9 50,491.7 50.5,492.5 		"/>
		<polygon style="fill:#434459;" points="27.4,491.3 27.4,492.2 28.6,491.3 		"/>
		<polygon style="fill:#434459;" points="17.4,496.3 18.4,496.3 17.3,495.3 		"/>
		<polygon style="fill:#434459;" points="72.6,496.5 72.8,495.6 71.5,496.2 		"/>
		<polygon style="fill:#434459;" points="23.9,488.8 23.9,489.9 24.5,489.7 24.6,488.8 		"/>
		<polygon style="fill:#434459;" points="9.8,490.4 9.5,491.8 8.5,491.3 		"/>
		<polygon style="fill:#434459;" points="4.1,496.7 4.4,497.3 5,497 4.5,496 		"/>
		<polygon style="fill:#434459;" points="-0.2,493.5 -0.2,494.7 0.6,494.1 0.6,493 		"/>
		<path style="fill:#4C9500;" d="M79.1,463.4c0-2.1-1.8-3.8-4.1-3.8H-0.1c-2.3,0-4.1,1.7-4.1,3.8v23c1.5,0.5,4.6,0,10.6-3.7
			c0,0-3.1,4.4,4.3,0.5c0,0-3.1,6.4,10.1,0c0,0-0.5,4.2,5.5-0.5c0,0-2.9,5.5,6.3,0.6c0,0-0.9,2.6,3.2,0.5c0,0-0.5,4.5,9.2-0.1
			c0,0-0.8,2.6,3.2,0.2c0,0-1.2,4.4,9.3,0.1c0,0-2.6,4.2,7.8,0.1c0,0-0.5,2.3,4.9-0.2c0,0-0.8,4,6.1-1.1c0,0-0.2,3.5,2.7,3.6V463.4z
			"/>
		<path style="fill:#7BAB00;" d="M79.1,483.9v-21.1c0-2.2-1.8-4.1-4.1-4.1H-0.1c-2.3,0-4.1,1.8-4.1,4.1v21.1
			c2.1,0.1,5.5-0.7,10.9-3.5c0,0-0.9,4.8,5.1,0c0,0-2.6,6.9,9.3,0.4c0,0,0.5,3.9,6-0.4c0,0-1.2,4.9,7.4,0c0,0-1.5,3.6,3.1,0.5
			c0,0-3.4,5.8,7.8-0.1c0,0-0.9,4.2,4,0.5c0,0-1.8,6,8.4,0.1c0,0-1.2,4.8,7.7,0.3c0,0,0.2,3.5,4.9-0.3c0,0,0.5,3.4,6.4-1
			C76.7,480.4,77.4,483.1,79.1,483.9z"/>
		<path style="fill:#4C9500;" d="M13.7,473.1c-0.1,0-0.1,0-0.2-0.1l-1.9-3l-2.2,2.6c0,0.1-0.1,0.1-0.2,0.1c-0.1,0-0.1,0-0.2-0.1
			L7.3,470l-2.5,2.9c-0.1,0.1-0.2,0.1-0.3,0c-0.1-0.1-0.1-0.2,0-0.3l2.7-3.1c0-0.1,0.1-0.1,0.2-0.1c0.1,0,0.1,0,0.2,0.1l1.8,2.5
			l2.2-2.6c0-0.1,0.1-0.1,0.2-0.1c0.1,0,0.1,0,0.2,0.1l2,3.3c0.1,0.1,0,0.2-0.1,0.3C13.8,473.1,13.7,473.1,13.7,473.1z"/>
		<path style="fill:#4C9500;" d="M27.3,468.7c-0.1,0-0.1,0-0.2-0.1l-1.9-3l-2.2,2.6c0,0.1-0.1,0.1-0.2,0.1c-0.1,0-0.1,0-0.2-0.1
			l-1.8-2.5l-2.5,2.9c-0.1,0.1-0.2,0.1-0.3,0c-0.1-0.1-0.1-0.2,0-0.3l2.7-3.1c0-0.1,0.1-0.1,0.2-0.1c0.1,0,0.1,0,0.2,0.1l1.8,2.5
			l2.2-2.6c0-0.1,0.1-0.1,0.2-0.1c0.1,0,0.1,0,0.2,0.1l2,3.3c0.1,0.1,0,0.2-0.1,0.3C27.4,468.7,27.4,468.7,27.3,468.7z"/>
		<path style="fill:#4C9500;" d="M59.2,473.5c-0.1,0-0.1,0-0.2-0.1l-1.9-3L55,473c0,0.1-0.1,0.1-0.2,0.1c-0.1,0-0.1,0-0.2-0.1
			l-1.8-2.5l-2.5,2.9c-0.1,0.1-0.2,0.1-0.3,0c-0.1-0.1-0.1-0.2,0-0.3l2.7-3.1c0,0,0.1-0.1,0.2-0.1c0.1,0,0.1,0,0.2,0.1l1.8,2.5
			l2.2-2.6c0-0.1,0.1-0.1,0.2-0.1c0.1,0,0.1,0,0.2,0.1l2,3.3c0.1,0.1,0,0.2-0.1,0.3C59.3,473.5,59.2,473.5,59.2,473.5z"/>
	</g>
	<g style="clip-path:url(#SVGID_00000125578180698520867350000001135767005582143887_);">
		<polyline style="fill:#FFFFFF;" points="136.5,473.1 139.3,470.1 141.2,472.8 143.6,470.1 145.6,473.3 		"/>
		<g>
			<path style="fill:#1D3549;" d="M161.4,458.7H86.3c-2.3,0-4.1,1.8-4.1,4.1v36.4c0,2.2,1.8,4.1,4.1,4.1h75.1c2.3,0,4.1-1.8,4.1-4.1
				v-36.4C165.5,460.5,163.7,458.7,161.4,458.7z"/>
			<path style="fill:#1B0D00;" d="M161.4,458.7c2.3,0,4.1,1.8,4.1,4.1v36.4c0,2.2-1.8,4.1-4.1,4.1H86.3c-2.3,0-4.1-1.8-4.1-4.1
				v-36.4c0-2.2,1.8-4.1,4.1-4.1H161.4 M161.4,456.1H86.3c-3.7,0-6.7,3-6.7,6.7v36.4c0,3.7,3,6.7,6.7,6.7h75.1c3.7,0,6.7-3,6.7-6.7
				v-36.4C168.1,459.1,165.1,456.1,161.4,456.1L161.4,456.1z"/>
		</g>
		<path style="fill:#323B4F;" d="M86.3,503.2h75.1c2.3,0,4.1-1.8,4.1-4.1v-8.8c-13.1,3.6-40.4,0.4-40.4,0.4
			c-21.5-2.1-41.5-0.7-43-0.4v8.8C82.2,501.4,84,503.2,86.3,503.2z"/>
		<path style="fill:#1F2634;" d="M160,499.5c-11.2,1.2-24.1-2.7-24.1-2.7c-9.7-2.9-19.9-0.4-19.9-0.4c-7.4,1.8-16.9,2.7-16.9,2.7
			c-8.4,0.8-13.8,0.4-17.1-0.9v0.9c0,2.2,1.8,4.1,4.1,4.1h75.1c2.3,0,4.1-1.8,4.1-4.1v-0.9C161.9,499.4,160,499.5,160,499.5z"/>
		<polygon style="fill:#434459;" points="152.9,491.3 152,492.1 153.5,492.1 		"/>
		<polygon style="fill:#434459;" points="147,497.3 147.3,496.4 148.2,496.4 147.8,497.3 		"/>
		<polygon style="fill:#434459;" points="145,493.6 145,494.5 145.9,493.5 		"/>
		<polygon style="fill:#434459;" points="121,492.2 121.9,491.5 121.9,492.6 120.8,492.8 		"/>
		<polygon style="fill:#434459;" points="136.1,492.5 135.2,491.9 136.4,491.7 136.9,492.5 		"/>
		<polygon style="fill:#434459;" points="113.8,491.3 113.8,492.2 115,491.3 		"/>
		<polygon style="fill:#434459;" points="103.8,496.3 104.8,496.3 103.7,495.3 		"/>
		<polygon style="fill:#434459;" points="159,496.5 159.2,495.6 157.8,496.2 		"/>
		<polygon style="fill:#434459;" points="110.2,488.8 110.2,489.9 110.9,489.7 111,488.8 		"/>
		<polygon style="fill:#434459;" points="96.1,490.4 95.8,491.8 94.9,491.3 		"/>
		<polygon style="fill:#434459;" points="90.5,496.7 90.8,497.3 91.4,497 90.9,496 		"/>
		<polygon style="fill:#434459;" points="86.2,493.5 86.2,494.7 87,494.1 87,493 		"/>
		<path style="fill:#4C9500;" d="M165.5,463.4c0-2.1-1.8-3.8-4.1-3.8H86.3c-2.3,0-4.1,1.7-4.1,3.8v23c1.5,0.5,4.6,0,10.6-3.7
			c0,0-3.1,4.4,4.3,0.5c0,0-3.1,6.4,10.1,0c0,0-0.5,4.2,5.5-0.5c0,0-2.9,5.5,6.3,0.6c0,0-0.9,2.6,3.2,0.5c0,0-0.5,4.5,9.2-0.1
			c0,0-0.8,2.6,3.2,0.2c0,0-1.2,4.4,9.3,0.1c0,0-2.6,4.2,7.8,0.1c0,0-0.5,2.3,4.9-0.2c0,0-0.8,4,6.1-1.1c0,0-0.2,3.5,2.7,3.6V463.4z
			"/>
		<path style="fill:#7BAB00;" d="M165.5,483.9v-21.1c0-2.2-1.8-4.1-4.1-4.1H86.3c-2.3,0-4.1,1.8-4.1,4.1v21.1
			c2.1,0.1,5.5-0.7,10.9-3.5c0,0-0.9,4.8,5.1,0c0,0-2.6,6.9,9.3,0.4c0,0,0.5,3.9,6-0.4c0,0-1.2,4.9,7.4,0c0,0-1.5,3.6,3.1,0.5
			c0,0-3.4,5.8,7.8-0.1c0,0-0.9,4.2,4,0.5c0,0-1.8,6,8.4,0.1c0,0-1.2,4.8,7.7,0.3c0,0,0.2,3.5,4.9-0.3c0,0,0.5,3.4,6.4-1
			C163.1,480.4,163.8,483.1,165.5,483.9z"/>
		<path style="fill:#4C9500;" d="M100.1,473.1c-0.1,0-0.1,0-0.2-0.1l-1.9-3l-2.2,2.6c0,0.1-0.1,0.1-0.2,0.1c-0.1,0-0.1,0-0.2-0.1
			l-1.8-2.5l-2.5,2.9c-0.1,0.1-0.2,0.1-0.3,0c-0.1-0.1-0.1-0.2,0-0.3l2.7-3.1c0-0.1,0.1-0.1,0.2-0.1c0.1,0,0.1,0,0.2,0.1l1.8,2.5
			l2.2-2.6c0-0.1,0.1-0.1,0.2-0.1c0.1,0,0.1,0,0.2,0.1l2,3.3c0.1,0.1,0,0.2-0.1,0.3C100.2,473.1,100.1,473.1,100.1,473.1z"/>
		<path style="fill:#4C9500;" d="M113.7,468.7c-0.1,0-0.1,0-0.2-0.1l-1.9-3l-2.2,2.6c0,0.1-0.1,0.1-0.2,0.1c-0.1,0-0.1,0-0.2-0.1
			l-1.8-2.5l-2.5,2.9c-0.1,0.1-0.2,0.1-0.3,0c-0.1-0.1-0.1-0.2,0-0.3l2.7-3.1c0-0.1,0.1-0.1,0.2-0.1c0.1,0,0.1,0,0.2,0.1l1.8,2.5
			l2.2-2.6c0-0.1,0.1-0.1,0.2-0.1c0.1,0,0.1,0,0.2,0.1l2,3.3c0.1,0.1,0,0.2-0.1,0.3C113.8,468.7,113.8,468.7,113.7,468.7z"/>
	</g>
	<g style="clip-path:url(#SVGID_00000125578180698520867350000001135767005582143887_);">
		<g>
			<path style="fill:#1D3549;" d="M247.8,458.7h-75.1c-2.3,0-4.1,1.8-4.1,4.1v36.4c0,2.2,1.8,4.1,4.1,4.1h75.1
				c2.3,0,4.1-1.8,4.1-4.1v-36.4C251.9,460.5,250.1,458.7,247.8,458.7z"/>
			<path style="fill:#1B0D00;" d="M247.8,458.7c2.3,0,4.1,1.8,4.1,4.1v36.4c0,2.2-1.8,4.1-4.1,4.1h-75.1c-2.3,0-4.1-1.8-4.1-4.1
				v-36.4c0-2.2,1.8-4.1,4.1-4.1H247.8 M247.8,456.1h-75.1c-3.7,0-6.7,3-6.7,6.7v36.4c0,3.7,3,6.7,6.7,6.7h75.1c3.7,0,6.7-3,6.7-6.7
				v-36.4C254.5,459.1,251.5,456.1,247.8,456.1L247.8,456.1z"/>
		</g>
		<path style="fill:#323B4F;" d="M172.6,503.2h75.1c2.3,0,4.1-1.8,4.1-4.1v-8.8c-13.1,3.6-40.4,0.4-40.4,0.4
			c-21.5-2.1-41.5-0.7-43-0.4v8.8C168.5,501.4,170.4,503.2,172.6,503.2z"/>
		<path style="fill:#1F2634;" d="M246.4,499.5c-11.2,1.2-24.1-2.7-24.1-2.7c-9.7-2.9-19.9-0.4-19.9-0.4c-7.4,1.8-16.9,2.7-16.9,2.7
			c-8.4,0.8-13.8,0.4-17.1-0.9v0.9c0,2.2,1.8,4.1,4.1,4.1h75.1c2.3,0,4.1-1.8,4.1-4.1v-0.9C248.3,499.4,246.4,499.5,246.4,499.5z"/>
		<polygon style="fill:#434459;" points="239.3,491.3 238.4,492.1 239.9,492.1 		"/>
		<polygon style="fill:#434459;" points="233.4,497.3 233.7,496.4 234.6,496.4 234.2,497.3 		"/>
		<polygon style="fill:#434459;" points="231.4,493.6 231.4,494.5 232.3,493.5 		"/>
		<polygon style="fill:#434459;" points="207.4,492.2 208.3,491.5 208.3,492.6 207.2,492.8 		"/>
		<polygon style="fill:#434459;" points="222.5,492.5 221.6,491.9 222.8,491.7 223.3,492.5 		"/>
		<polygon style="fill:#434459;" points="200.2,491.3 200.2,492.2 201.4,491.3 		"/>
		<polygon style="fill:#434459;" points="190.1,496.3 191.2,496.3 190.1,495.3 		"/>
		<polygon style="fill:#434459;" points="245.3,496.5 245.6,495.6 244.2,496.2 		"/>
		<polygon style="fill:#434459;" points="196.6,488.8 196.6,489.9 197.3,489.7 197.4,488.8 		"/>
		<polygon style="fill:#434459;" points="182.5,490.4 182.2,491.8 181.3,491.3 		"/>
		<polygon style="fill:#434459;" points="176.9,496.7 177.2,497.3 177.8,497 177.3,496 		"/>
		<polygon style="fill:#434459;" points="172.6,493.5 172.6,494.7 173.3,494.1 173.3,493 		"/>
		<path style="fill:#4C9500;" d="M251.9,463.4c0-2.1-1.8-3.8-4.1-3.8h-75.1c-2.3,0-4.1,1.7-4.1,3.8v23c1.5,0.5,4.6,0,10.6-3.7
			c0,0-3.1,4.4,4.3,0.5c0,0-3.1,6.4,10.1,0c0,0-0.5,4.2,5.5-0.5c0,0-2.9,5.5,6.3,0.6c0,0-0.9,2.6,3.2,0.5c0,0-0.5,4.5,9.2-0.1
			c0,0-0.8,2.6,3.2,0.2c0,0-1.2,4.4,9.3,0.1c0,0-2.6,4.2,7.8,0.1c0,0-0.5,2.3,4.9-0.2c0,0-0.8,4,6.1-1.1c0,0-0.2,3.5,2.7,3.6V463.4z
			"/>
		<path style="fill:#7BAB00;" d="M251.9,483.9v-21.1c0-2.2-1.8-4.1-4.1-4.1h-75.1c-2.3,0-4.1,1.8-4.1,4.1v21.1
			c2.1,0.1,5.5-0.7,10.9-3.5c0,0-0.9,4.8,5.1,0c0,0-2.6,6.9,9.3,0.4c0,0,0.5,3.9,6-0.4c0,0-1.2,4.9,7.4,0c0,0-1.5,3.6,3.1,0.5
			c0,0-3.4,5.8,7.8-0.1c0,0-0.9,4.2,4,0.5c0,0-1.8,6,8.4,0.1c0,0-1.2,4.8,7.7,0.3c0,0,0.2,3.5,4.9-0.3c0,0,0.5,3.4,6.4-1
			C249.5,480.4,250.2,483.1,251.9,483.9z"/>
		<path style="fill:#4C9500;" d="M186.5,473.1c-0.1,0-0.1,0-0.2-0.1l-1.9-3l-2.2,2.6c0,0.1-0.1,0.1-0.2,0.1c-0.1,0-0.1,0-0.2-0.1
			l-1.8-2.5l-2.5,2.9c-0.1,0.1-0.2,0.1-0.3,0c-0.1-0.1-0.1-0.2,0-0.3l2.7-3.1c0-0.1,0.1-0.1,0.2-0.1c0.1,0,0.1,0,0.2,0.1l1.8,2.5
			l2.2-2.6c0-0.1,0.1-0.1,0.2-0.1c0.1,0,0.1,0,0.2,0.1l2,3.3c0.1,0.1,0,0.2-0.1,0.3C186.6,473.1,186.5,473.1,186.5,473.1z"/>
		<path style="fill:#4C9500;" d="M200.1,468.7c-0.1,0-0.1,0-0.2-0.1l-1.9-3l-2.2,2.6c0,0.1-0.1,0.1-0.2,0.1c-0.1,0-0.1,0-0.2-0.1
			l-1.8-2.5l-2.5,2.9c-0.1,0.1-0.2,0.1-0.3,0c-0.1-0.1-0.1-0.2,0-0.3l2.7-3.1c0-0.1,0.1-0.1,0.2-0.1c0.1,0,0.1,0,0.2,0.1l1.8,2.5
			l2.2-2.6c0-0.1,0.1-0.1,0.2-0.1c0.1,0,0.1,0,0.2,0.1l2,3.3c0.1,0.1,0,0.2-0.1,0.3C200.2,468.7,200.1,468.7,200.1,468.7z"/>
		<path style="fill:#4C9500;" d="M232,473.5c-0.1,0-0.1,0-0.2-0.1l-1.9-3l-2.2,2.6c0,0.1-0.1,0.1-0.2,0.1c-0.1,0-0.1,0-0.2-0.1
			l-1.8-2.5l-2.5,2.9c-0.1,0.1-0.2,0.1-0.3,0c-0.1-0.1-0.1-0.2,0-0.3l2.7-3.1c0,0,0.1-0.1,0.2-0.1c0.1,0,0.1,0,0.2,0.1l1.8,2.5
			l2.2-2.6c0-0.1,0.1-0.1,0.2-0.1c0.1,0,0.1,0,0.2,0.1l2,3.3c0.1,0.1,0,0.2-0.1,0.3C232.1,473.5,232,473.5,232,473.5z"/>
	</g>
	<g style="clip-path:url(#SVGID_00000125578180698520867350000001135767005582143887_);">
		<g>
			<path style="fill:#1D3549;" d="M334.2,458.7H259c-2.3,0-4.1,1.8-4.1,4.1v36.4c0,2.2,1.8,4.1,4.1,4.1h75.1c2.3,0,4.1-1.8,4.1-4.1
				v-36.4C338.3,460.5,336.5,458.7,334.2,458.7z"/>
			<path style="fill:#1B0D00;" d="M334.2,458.7c2.3,0,4.1,1.8,4.1,4.1v36.4c0,2.2-1.8,4.1-4.1,4.1H259c-2.3,0-4.1-1.8-4.1-4.1v-36.4
				c0-2.2,1.8-4.1,4.1-4.1H334.2 M334.2,456.1H259c-3.7,0-6.7,3-6.7,6.7v36.4c0,3.7,3,6.7,6.7,6.7h75.1c3.7,0,6.7-3,6.7-6.7v-36.4
				C340.9,459.1,337.9,456.1,334.2,456.1L334.2,456.1z"/>
		</g>
		<path style="fill:#323B4F;" d="M259,503.2h75.1c2.3,0,4.1-1.8,4.1-4.1v-8.8c-13.1,3.6-40.4,0.4-40.4,0.4
			c-21.5-2.1-41.5-0.7-43-0.4v8.8C254.9,501.4,256.8,503.2,259,503.2z"/>
		<path style="fill:#1F2634;" d="M332.8,499.5c-11.2,1.2-24.1-2.7-24.1-2.7c-9.7-2.9-19.9-0.4-19.9-0.4c-7.4,1.8-16.9,2.7-16.9,2.7
			c-8.4,0.8-13.8,0.4-17.1-0.9v0.9c0,2.2,1.8,4.1,4.1,4.1h75.1c2.3,0,4.1-1.8,4.1-4.1v-0.9C334.7,499.4,332.8,499.5,332.8,499.5z"/>
		<polygon style="fill:#434459;" points="325.7,491.3 324.8,492.1 326.3,492.1 		"/>
		<polygon style="fill:#434459;" points="319.8,497.3 320.1,496.4 321,496.4 320.6,497.3 		"/>
		<polygon style="fill:#434459;" points="317.8,493.6 317.8,494.5 318.7,493.5 		"/>
		<polygon style="fill:#434459;" points="293.8,492.2 294.7,491.5 294.7,492.6 293.6,492.8 		"/>
		<polygon style="fill:#434459;" points="308.9,492.5 308,491.9 309.2,491.7 309.7,492.5 		"/>
		<polygon style="fill:#434459;" points="286.6,491.3 286.6,492.2 287.8,491.3 		"/>
		<polygon style="fill:#434459;" points="276.5,496.3 277.6,496.3 276.5,495.3 		"/>
		<polygon style="fill:#434459;" points="331.7,496.5 332,495.6 330.6,496.2 		"/>
		<polygon style="fill:#434459;" points="283,488.8 283,489.9 283.6,489.7 283.8,488.8 		"/>
		<polygon style="fill:#434459;" points="268.9,490.4 268.6,491.8 267.7,491.3 		"/>
		<polygon style="fill:#434459;" points="263.3,496.7 263.6,497.3 264.2,497 263.7,496 		"/>
		<polygon style="fill:#434459;" points="259,493.5 259,494.7 259.7,494.1 259.7,493 		"/>
		<path style="fill:#4C9500;" d="M338.3,463.4c0-2.1-1.8-3.8-4.1-3.8H259c-2.3,0-4.1,1.7-4.1,3.8v23c1.5,0.5,4.6,0,10.6-3.7
			c0,0-3.1,4.4,4.3,0.5c0,0-3.1,6.4,10.1,0c0,0-0.5,4.2,5.5-0.5c0,0-2.9,5.5,6.3,0.6c0,0-0.9,2.6,3.2,0.5c0,0-0.5,4.5,9.2-0.1
			c0,0-0.8,2.6,3.2,0.2c0,0-1.2,4.4,9.3,0.1c0,0-2.6,4.2,7.8,0.1c0,0-0.5,2.3,4.9-0.2c0,0-0.8,4,6.1-1.1c0,0-0.2,3.5,2.7,3.6V463.4z
			"/>
		<path style="fill:#7BAB00;" d="M338.3,483.9v-21.1c0-2.2-1.8-4.1-4.1-4.1H259c-2.3,0-4.1,1.8-4.1,4.1v21.1
			c2.1,0.1,5.5-0.7,10.9-3.5c0,0-0.9,4.8,5.1,0c0,0-2.6,6.9,9.3,0.4c0,0,0.5,3.9,6-0.4c0,0-1.2,4.9,7.4,0c0,0-1.5,3.6,3.1,0.5
			c0,0-3.4,5.8,7.8-0.1c0,0-0.9,4.2,4,0.5c0,0-1.8,6,8.4,0.1c0,0-1.2,4.8,7.7,0.3c0,0,0.2,3.5,4.9-0.3c0,0,0.5,3.4,6.4-1
			C335.9,480.4,336.6,483.1,338.3,483.9z"/>
		<path style="fill:#4C9500;" d="M272.9,473.1c-0.1,0-0.1,0-0.2-0.1l-1.9-3l-2.2,2.6c0,0.1-0.1,0.1-0.2,0.1c-0.1,0-0.1,0-0.2-0.1
			l-1.8-2.5l-2.5,2.9c-0.1,0.1-0.2,0.1-0.3,0c-0.1-0.1-0.1-0.2,0-0.3l2.7-3.1c0-0.1,0.1-0.1,0.2-0.1c0.1,0,0.1,0,0.2,0.1l1.8,2.5
			l2.2-2.6c0-0.1,0.1-0.1,0.2-0.1c0.1,0,0.1,0,0.2,0.1l2,3.3c0.1,0.1,0,0.2-0.1,0.3C272.9,473.1,272.9,473.1,272.9,473.1z"/>
		<path style="fill:#4C9500;" d="M286.5,468.7c-0.1,0-0.1,0-0.2-0.1l-1.9-3l-2.2,2.6c0,0.1-0.1,0.1-0.2,0.1c-0.1,0-0.1,0-0.2-0.1
			l-1.8-2.5l-2.5,2.9c-0.1,0.1-0.2,0.1-0.3,0c-0.1-0.1-0.1-0.2,0-0.3l2.7-3.1c0-0.1,0.1-0.1,0.2-0.1c0.1,0,0.1,0,0.2,0.1l1.8,2.5
			l2.2-2.6c0-0.1,0.1-0.1,0.2-0.1c0.1,0,0.1,0,0.2,0.1l2,3.3c0.1,0.1,0,0.2-0.1,0.3C286.6,468.7,286.5,468.7,286.5,468.7z"/>
		<path style="fill:#4C9500;" d="M318.4,473.5c-0.1,0-0.1,0-0.2-0.1l-1.9-3l-2.2,2.6c0,0.1-0.1,0.1-0.2,0.1c-0.1,0-0.1,0-0.2-0.1
			l-1.8-2.5l-2.5,2.9c-0.1,0.1-0.2,0.1-0.3,0c-0.1-0.1-0.1-0.2,0-0.3l2.7-3.1c0,0,0.1-0.1,0.2-0.1c0.1,0,0.1,0,0.2,0.1l1.8,2.5
			l2.2-2.6c0-0.1,0.1-0.1,0.2-0.1c0.1,0,0.1,0,0.2,0.1l2,3.3c0.1,0.1,0,0.2-0.1,0.3C318.5,473.5,318.4,473.5,318.4,473.5z"/>
	</g>
	<g style="clip-path:url(#SVGID_00000125578180698520867350000001135767005582143887_);">
		<g>
			<path style="fill:#1D3549;" d="M419.2,458.7h-75.1c-2.3,0-4.1,1.8-4.1,4.1v36.4c0,2.2,1.8,4.1,4.1,4.1h75.1
				c2.3,0,4.1-1.8,4.1-4.1v-36.4C423.3,460.5,421.5,458.7,419.2,458.7z"/>
			<path style="fill:#1B0D00;" d="M419.2,458.7c2.3,0,4.1,1.8,4.1,4.1v36.4c0,2.2-1.8,4.1-4.1,4.1h-75.1c-2.3,0-4.1-1.8-4.1-4.1
				v-36.4c0-2.2,1.8-4.1,4.1-4.1H419.2 M419.2,456.1h-75.1c-3.7,0-6.7,3-6.7,6.7v36.4c0,3.7,3,6.7,6.7,6.7h75.1c3.7,0,6.7-3,6.7-6.7
				v-36.4C426,459.1,422.9,456.1,419.2,456.1L419.2,456.1z"/>
		</g>
		<path style="fill:#323B4F;" d="M344.1,503.2h75.1c2.3,0,4.1-1.8,4.1-4.1v-8.8c-13.1,3.6-40.4,0.4-40.4,0.4
			c-21.5-2.1-41.5-0.7-43-0.4v8.8C340,501.4,341.8,503.2,344.1,503.2z"/>
		<path style="fill:#1F2634;" d="M417.9,499.5c-11.2,1.2-24.1-2.7-24.1-2.7c-9.7-2.9-19.9-0.4-19.9-0.4c-7.4,1.8-16.9,2.7-16.9,2.7
			c-8.4,0.8-13.8,0.4-17.1-0.9v0.9c0,2.2,1.8,4.1,4.1,4.1h75.1c2.3,0,4.1-1.8,4.1-4.1v-0.9C419.7,499.4,417.9,499.5,417.9,499.5z"/>
		<polygon style="fill:#434459;" points="410.7,491.3 409.8,492.1 411.3,492.1 		"/>
		<polygon style="fill:#434459;" points="404.9,497.3 405.2,496.4 406.1,496.4 405.6,497.3 		"/>
		<polygon style="fill:#434459;" points="402.9,493.6 402.9,494.5 403.8,493.5 		"/>
		<polygon style="fill:#434459;" points="378.8,492.2 379.7,491.5 379.7,492.6 378.7,492.8 		"/>
		<polygon style="fill:#434459;" points="394,492.5 393,491.9 394.3,491.7 394.7,492.5 		"/>
		<polygon style="fill:#434459;" points="371.6,491.3 371.6,492.2 372.8,491.3 		"/>
		<polygon style="fill:#434459;" points="361.6,496.3 362.7,496.3 361.6,495.3 		"/>
		<polygon style="fill:#434459;" points="416.8,496.5 417.1,495.6 415.7,496.2 		"/>
		<polygon style="fill:#434459;" points="368.1,488.8 368.1,489.9 368.7,489.7 368.8,488.8 		"/>
		<polygon style="fill:#434459;" points="354,490.4 353.7,491.8 352.8,491.3 		"/>
		<polygon style="fill:#434459;" points="348.3,496.7 348.6,497.3 349.2,497 348.8,496 		"/>
		<polygon style="fill:#434459;" points="344,493.5 344,494.7 344.8,494.1 344.8,493 		"/>
		<path style="fill:#4C9500;" d="M423.3,463.4c0-2.1-1.8-3.8-4.1-3.8h-75.1c-2.3,0-4.1,1.7-4.1,3.8v23c1.5,0.5,4.6,0,10.6-3.7
			c0,0-3.1,4.4,4.3,0.5c0,0-3.1,6.4,10.1,0c0,0-0.5,4.2,5.5-0.5c0,0-2.9,5.5,6.3,0.6c0,0-0.9,2.6,3.2,0.5c0,0-0.5,4.5,9.2-0.1
			c0,0-0.8,2.6,3.2,0.2c0,0-1.2,4.4,9.3,0.1c0,0-2.6,4.2,7.8,0.1c0,0-0.5,2.3,4.9-0.2c0,0-0.8,4,6.1-1.1c0,0-0.2,3.5,2.7,3.6V463.4z
			"/>
		<path style="fill:#7BAB00;" d="M423.3,483.9v-21.1c0-2.2-1.8-4.1-4.1-4.1h-75.1c-2.3,0-4.1,1.8-4.1,4.1v21.1
			c2.1,0.1,5.5-0.7,10.9-3.5c0,0-0.9,4.8,5.1,0c0,0-2.6,6.9,9.3,0.4c0,0,0.5,3.9,6-0.4c0,0-1.2,4.9,7.4,0c0,0-1.5,3.6,3.1,0.5
			c0,0-3.4,5.8,7.8-0.1c0,0-0.9,4.2,4,0.5c0,0-1.8,6,8.4,0.1c0,0-1.2,4.8,7.7,0.3c0,0,0.2,3.5,4.9-0.3c0,0,0.5,3.4,6.4-1
			C420.9,480.4,421.6,483.1,423.3,483.9z"/>
		<path style="fill:#4C9500;" d="M357.9,473.1c-0.1,0-0.1,0-0.2-0.1l-1.9-3l-2.2,2.6c0,0.1-0.1,0.1-0.2,0.1c-0.1,0-0.1,0-0.2-0.1
			l-1.8-2.5l-2.5,2.9c-0.1,0.1-0.2,0.1-0.3,0c-0.1-0.1-0.1-0.2,0-0.3l2.7-3.1c0-0.1,0.1-0.1,0.2-0.1c0.1,0,0.1,0,0.2,0.1l1.8,2.5
			l2.2-2.6c0-0.1,0.1-0.1,0.2-0.1c0.1,0,0.1,0,0.2,0.1l2,3.3c0.1,0.1,0,0.2-0.1,0.3C358,473.1,358,473.1,357.9,473.1z"/>
		<path style="fill:#4C9500;" d="M371.6,468.7c-0.1,0-0.1,0-0.2-0.1l-1.9-3l-2.2,2.6c0,0.1-0.1,0.1-0.2,0.1c-0.1,0-0.1,0-0.2-0.1
			l-1.8-2.5l-2.5,2.9c-0.1,0.1-0.2,0.1-0.3,0c-0.1-0.1-0.1-0.2,0-0.3l2.7-3.1c0-0.1,0.1-0.1,0.2-0.1c0.1,0,0.1,0,0.2,0.1l1.8,2.5
			l2.2-2.6c0-0.1,0.1-0.1,0.2-0.1c0.1,0,0.1,0,0.2,0.1l2,3.3c0.1,0.1,0,0.2-0.1,0.3C371.6,468.7,371.6,468.7,371.6,468.7z"/>
		<path style="fill:#4C9500;" d="M403.4,473.5c-0.1,0-0.1,0-0.2-0.1l-1.9-3l-2.2,2.6c0,0.1-0.1,0.1-0.2,0.1c-0.1,0-0.1,0-0.2-0.1
			l-1.8-2.5l-2.5,2.9c-0.1,0.1-0.2,0.1-0.3,0c-0.1-0.1-0.1-0.2,0-0.3l2.7-3.1c0,0,0.1-0.1,0.2-0.1c0.1,0,0.1,0,0.2,0.1l1.8,2.5
			l2.2-2.6c0-0.1,0.1-0.1,0.2-0.1c0.1,0,0.1,0,0.2,0.1l2,3.3c0.1,0.1,0,0.2-0.1,0.3C403.5,473.5,403.5,473.5,403.4,473.5z"/>
	</g>
	<g style="clip-path:url(#SVGID_00000125578180698520867350000001135767005582143887_);">
		<g>
			<polyline style="fill:#FFFFFF;" points="536.1,199.8 538.8,196.8 540.7,199.5 543.1,196.8 545.1,200 			"/>
			<g>
				<path style="fill:#1D3549;" d="M560.9,185.4h-75.1c-2.3,0-4.1,1.8-4.1,4.1v36.4c0,2.2,1.8,4.1,4.1,4.1h75.1
					c2.3,0,4.1-1.8,4.1-4.1v-36.4C565,187.2,563.2,185.4,560.9,185.4z"/>
				<path style="fill:#1B0D00;" d="M560.9,185.4c2.3,0,4.1,1.8,4.1,4.1v36.4c0,2.2-1.8,4.1-4.1,4.1h-75.1c-2.3,0-4.1-1.8-4.1-4.1
					v-36.4c0-2.2,1.8-4.1,4.1-4.1H560.9 M560.9,182.8h-75.1c-3.7,0-6.7,3-6.7,6.7v36.4c0,3.7,3,6.7,6.7,6.7h75.1
					c3.7,0,6.7-3,6.7-6.7v-36.4C567.6,185.8,564.6,182.8,560.9,182.8L560.9,182.8z"/>
			</g>
			<path style="fill:#323B4F;" d="M485.8,229.9h75.1c2.3,0,4.1-1.8,4.1-4.1v-8.8c-13.1,3.6-40.4,0.4-40.4,0.4
				c-21.5-2.1-41.5-0.7-43-0.4v8.8C481.7,228.1,483.5,229.9,485.8,229.9z"/>
			<path style="fill:#1F2634;" d="M559.6,226.2c-11.2,1.2-24.1-2.7-24.1-2.7c-9.7-2.9-19.9-0.4-19.9-0.4c-7.4,1.8-16.9,2.7-16.9,2.7
				c-8.4,0.8-13.8,0.4-17.1-0.9v0.9c0,2.2,1.8,4.1,4.1,4.1h75.1c2.3,0,4.1-1.8,4.1-4.1V225C561.4,226.1,559.6,226.2,559.6,226.2z"/>
			<polygon style="fill:#434459;" points="552.4,218 551.5,218.8 553,218.8 			"/>
			<polygon style="fill:#434459;" points="546.5,224 546.8,223.1 547.8,223.1 547.3,224 			"/>
			<polygon style="fill:#434459;" points="544.5,220.3 544.5,221.2 545.5,220.2 			"/>
			<polygon style="fill:#434459;" points="520.5,218.9 521.4,218.2 521.4,219.3 520.3,219.5 			"/>
			<polygon style="fill:#434459;" points="535.7,219.2 534.7,218.6 535.9,218.4 536.4,219.2 			"/>
			<polygon style="fill:#434459;" points="513.3,218 513.3,218.9 514.5,218 			"/>
			<polygon style="fill:#434459;" points="503.3,223 504.3,223 503.2,222 			"/>
			<polygon style="fill:#434459;" points="558.5,223.2 558.8,222.3 557.4,222.9 			"/>
			<polygon style="fill:#434459;" points="509.8,215.5 509.8,216.6 510.4,216.4 510.5,215.5 			"/>
			<polygon style="fill:#434459;" points="495.7,217.1 495.4,218.5 494.4,218 			"/>
			<polygon style="fill:#434459;" points="490,223.4 490.3,224 490.9,223.7 490.5,222.7 			"/>
			<polygon style="fill:#434459;" points="485.7,220.2 485.7,221.4 486.5,220.8 486.5,219.7 			"/>
			<path style="fill:#4C9500;" d="M565,190.1c0-2.1-1.8-3.8-4.1-3.8h-75.1c-2.3,0-4.1,1.7-4.1,3.8v23c1.5,0.5,4.6,0,10.6-3.7
				c0,0-3.1,4.4,4.3,0.5c0,0-3.1,6.4,10.1,0c0,0-0.5,4.2,5.5-0.5c0,0-2.9,5.5,6.3,0.6c0,0-0.9,2.6,3.2,0.5c0,0-0.5,4.5,9.2-0.1
				c0,0-0.8,2.6,3.2,0.2c0,0-1.2,4.4,9.3,0.1c0,0-2.6,4.2,7.8,0.1c0,0-0.5,2.3,4.9-0.2c0,0-0.8,4,6.1-1.1c0,0-0.2,3.5,2.7,3.6V190.1
				z"/>
			<path style="fill:#7BAB00;" d="M565,210.6v-21.1c0-2.2-1.8-4.1-4.1-4.1h-75.1c-2.3,0-4.1,1.8-4.1,4.1v21.1
				c2.1,0.1,5.5-0.7,10.9-3.5c0,0-0.9,4.8,5.1,0c0,0-2.6,6.9,9.3,0.4c0,0,0.5,3.9,6-0.4c0,0-1.2,4.9,7.4,0c0,0-1.5,3.6,3.1,0.5
				c0,0-3.4,5.8,7.8-0.1c0,0-0.9,4.2,4,0.5c0,0-1.8,6,8.4,0.1c0,0-1.2,4.8,7.7,0.3c0,0,0.2,3.5,4.9-0.3c0,0,0.5,3.4,6.4-1
				C562.6,207.1,563.3,209.8,565,210.6z"/>
			<path style="fill:#4C9500;" d="M499.6,199.8c-0.1,0-0.1,0-0.2-0.1l-1.9-3l-2.2,2.6c0,0.1-0.1,0.1-0.2,0.1c-0.1,0-0.1,0-0.2-0.1
				l-1.8-2.5l-2.5,2.9c-0.1,0.1-0.2,0.1-0.3,0c-0.1-0.1-0.1-0.2,0-0.3l2.7-3.1c0,0,0.1-0.1,0.2-0.1c0.1,0,0.1,0,0.2,0.1l1.8,2.5
				l2.2-2.6c0-0.1,0.1-0.1,0.2-0.1c0.1,0,0.1,0,0.2,0.1l2,3.3c0.1,0.1,0,0.2-0.1,0.3C499.7,199.8,499.6,199.8,499.6,199.8z"/>
			<path style="fill:#4C9500;" d="M513.2,195.4c-0.1,0-0.1,0-0.2-0.1l-1.9-3l-2.2,2.6c0,0.1-0.1,0.1-0.2,0.1c-0.1,0-0.1,0-0.2-0.1
				l-1.8-2.5l-2.5,2.9c-0.1,0.1-0.2,0.1-0.3,0c-0.1-0.1-0.1-0.2,0-0.3l2.7-3.1c0-0.1,0.1-0.1,0.2-0.1c0.1,0,0.1,0,0.2,0.1l1.8,2.5
				l2.2-2.6c0-0.1,0.1-0.1,0.2-0.1c0.1,0,0.1,0,0.2,0.1l2,3.3c0.1,0.1,0,0.2-0.1,0.3C513.3,195.4,513.3,195.4,513.2,195.4z"/>
		</g>
		<g>
			<g>
				<path style="fill:#1D3549;" d="M647.3,185.4h-75.1c-2.3,0-4.1,1.8-4.1,4.1v36.4c0,2.2,1.8,4.1,4.1,4.1h75.1
					c2.3,0,4.1-1.8,4.1-4.1v-36.4C651.4,187.2,649.6,185.4,647.3,185.4z"/>
				<path style="fill:#1B0D00;" d="M647.3,185.4c2.3,0,4.1,1.8,4.1,4.1v36.4c0,2.2-1.8,4.1-4.1,4.1h-75.1c-2.3,0-4.1-1.8-4.1-4.1
					v-36.4c0-2.2,1.8-4.1,4.1-4.1H647.3 M647.3,182.8h-75.1c-3.7,0-6.7,3-6.7,6.7v36.4c0,3.7,3,6.7,6.7,6.7h75.1
					c3.7,0,6.7-3,6.7-6.7v-36.4C654,185.8,651,182.8,647.3,182.8L647.3,182.8z"/>
			</g>
			<path style="fill:#323B4F;" d="M572.2,229.9h75.1c2.3,0,4.1-1.8,4.1-4.1v-8.8c-13.1,3.6-40.4,0.4-40.4,0.4
				c-21.5-2.1-41.5-0.7-43-0.4v8.8C568.1,228.1,569.9,229.9,572.2,229.9z"/>
			<path style="fill:#1F2634;" d="M646,226.2c-11.2,1.2-24.1-2.7-24.1-2.7c-9.7-2.9-19.9-0.4-19.9-0.4c-7.4,1.8-16.9,2.7-16.9,2.7
				c-8.4,0.8-13.8,0.4-17.1-0.9v0.9c0,2.2,1.8,4.1,4.1,4.1h75.1c2.3,0,4.1-1.8,4.1-4.1V225C647.8,226.1,646,226.2,646,226.2z"/>
			<polygon style="fill:#434459;" points="638.8,218 637.9,218.8 639.4,218.8 			"/>
			<polygon style="fill:#434459;" points="632.9,224 633.2,223.1 634.2,223.1 633.7,224 			"/>
			<polygon style="fill:#434459;" points="630.9,220.3 630.9,221.2 631.9,220.2 			"/>
			<polygon style="fill:#434459;" points="606.9,218.9 607.8,218.2 607.8,219.3 606.7,219.5 			"/>
			<polygon style="fill:#434459;" points="622,219.2 621.1,218.6 622.3,218.4 622.8,219.2 			"/>
			<polygon style="fill:#434459;" points="599.7,218 599.7,218.9 600.9,218 			"/>
			<polygon style="fill:#434459;" points="589.7,223 590.7,223 589.6,222 			"/>
			<polygon style="fill:#434459;" points="644.9,223.2 645.1,222.3 643.8,222.9 			"/>
			<polygon style="fill:#434459;" points="596.2,215.5 596.2,216.6 596.8,216.4 596.9,215.5 			"/>
			<polygon style="fill:#434459;" points="582.1,217.1 581.8,218.5 580.8,218 			"/>
			<polygon style="fill:#434459;" points="576.4,223.4 576.7,224 577.3,223.7 576.8,222.7 			"/>
			<polygon style="fill:#434459;" points="572.1,220.2 572.1,221.4 572.9,220.8 572.9,219.7 			"/>
			<path style="fill:#4C9500;" d="M651.4,190.1c0-2.1-1.8-3.8-4.1-3.8h-75.1c-2.3,0-4.1,1.7-4.1,3.8v23c1.5,0.5,4.6,0,10.6-3.7
				c0,0-3.1,4.4,4.3,0.5c0,0-3.1,6.4,10.1,0c0,0-0.5,4.2,5.5-0.5c0,0-2.9,5.5,6.3,0.6c0,0-0.9,2.6,3.2,0.5c0,0-0.5,4.5,9.2-0.1
				c0,0-0.8,2.6,3.2,0.2c0,0-1.2,4.4,9.3,0.1c0,0-2.6,4.2,7.8,0.1c0,0-0.5,2.3,4.9-0.2c0,0-0.8,4,6.1-1.1c0,0-0.2,3.5,2.7,3.6V190.1
				z"/>
			<path style="fill:#7BAB00;" d="M651.4,210.6v-21.1c0-2.2-1.8-4.1-4.1-4.1h-75.1c-2.3,0-4.1,1.8-4.1,4.1v21.1
				c2.1,0.1,5.5-0.7,10.9-3.5c0,0-0.9,4.8,5.1,0c0,0-2.6,6.9,9.3,0.4c0,0,0.5,3.9,6-0.4c0,0-1.2,4.9,7.4,0c0,0-1.5,3.6,3.1,0.5
				c0,0-3.4,5.8,7.8-0.1c0,0-0.9,4.2,4,0.5c0,0-1.8,6,8.4,0.1c0,0-1.2,4.8,7.7,0.3c0,0,0.2,3.5,4.9-0.3c0,0,0.5,3.4,6.4-1
				C649,207.1,649.7,209.8,651.4,210.6z"/>
			<path style="fill:#4C9500;" d="M586,199.8c-0.1,0-0.1,0-0.2-0.1l-1.9-3l-2.2,2.6c0,0.1-0.1,0.1-0.2,0.1c-0.1,0-0.1,0-0.2-0.1
				l-1.8-2.5l-2.5,2.9c-0.1,0.1-0.2,0.1-0.3,0c-0.1-0.1-0.1-0.2,0-0.3l2.7-3.1c0,0,0.1-0.1,0.2-0.1c0.1,0,0.1,0,0.2,0.1l1.8,2.5
				l2.2-2.6c0-0.1,0.1-0.1,0.2-0.1c0.1,0,0.1,0,0.2,0.1l2,3.3c0.1,0.1,0,0.2-0.1,0.3C586.1,199.8,586,199.8,586,199.8z"/>
			<path style="fill:#4C9500;" d="M599.6,195.4c-0.1,0-0.1,0-0.2-0.1l-1.9-3l-2.2,2.6c0,0.1-0.1,0.1-0.2,0.1c-0.1,0-0.1,0-0.2-0.1
				l-1.8-2.5l-2.5,2.9c-0.1,0.1-0.2,0.1-0.3,0c-0.1-0.1-0.1-0.2,0-0.3l2.7-3.1c0-0.1,0.1-0.1,0.2-0.1c0.1,0,0.1,0,0.2,0.1l1.8,2.5
				l2.2-2.6c0-0.1,0.1-0.1,0.2-0.1c0.1,0,0.1,0,0.2,0.1l2,3.3c0.1,0.1,0,0.2-0.1,0.3C599.7,195.4,599.7,195.4,599.6,195.4z"/>
			<path style="fill:#4C9500;" d="M631.5,200.2c-0.1,0-0.1,0-0.2-0.1l-1.9-3l-2.2,2.6c0,0.1-0.1,0.1-0.2,0.1c-0.1,0-0.1,0-0.2-0.1
				l-1.8-2.5l-2.5,2.9c-0.1,0.1-0.2,0.1-0.3,0c-0.1-0.1-0.1-0.2,0-0.3l2.7-3.1c0-0.1,0.1-0.1,0.2-0.1c0.1,0,0.1,0,0.2,0.1l1.8,2.5
				l2.2-2.6c0-0.1,0.1-0.1,0.2-0.1c0.1,0,0.1,0,0.2,0.1l2,3.3c0.1,0.1,0,0.2-0.1,0.3C631.6,200.2,631.5,200.2,631.5,200.2z"/>
		</g>
	</g>
	<g style="clip-path:url(#SVGID_00000125578180698520867350000001135767005582143887_);">
		<g>
			<g>
				<path style="fill:#1D3549;" d="M658.9,359.8h-75.1c-2.3,0-4.1,1.8-4.1,4.1v36.4c0,2.2,1.8,4.1,4.1,4.1h75.1
					c2.3,0,4.1-1.8,4.1-4.1v-36.4C663,361.6,661.1,359.8,658.9,359.8z"/>
				<path style="fill:#1B0D00;" d="M658.9,359.8c2.3,0,4.1,1.8,4.1,4.1v36.4c0,2.2-1.8,4.1-4.1,4.1h-75.1c-2.3,0-4.1-1.8-4.1-4.1
					v-36.4c0-2.2,1.8-4.1,4.1-4.1H658.9 M658.9,357.2h-75.1c-3.7,0-6.7,3-6.7,6.7v36.4c0,3.7,3,6.7,6.7,6.7h75.1
					c3.7,0,6.7-3,6.7-6.7v-36.4C665.6,360.1,662.6,357.2,658.9,357.2L658.9,357.2z"/>
			</g>
			<path style="fill:#323B4F;" d="M583.7,404.3h75.1c2.3,0,4.1-1.8,4.1-4.1v-8.8c-13.1,3.6-40.4,0.4-40.4,0.4
				c-21.5-2.1-41.5-0.7-43-0.4v8.8C579.6,402.4,581.5,404.3,583.7,404.3z"/>
			<path style="fill:#1F2634;" d="M657.5,400.6c-11.2,1.2-24.1-2.7-24.1-2.7c-9.7-2.9-19.9-0.4-19.9-0.4c-7.4,1.8-16.9,2.7-16.9,2.7
				c-8.4,0.8-13.8,0.4-17.1-0.9v0.9c0,2.2,1.8,4.1,4.1,4.1h75.1c2.3,0,4.1-1.8,4.1-4.1v-0.9C659.4,400.4,657.5,400.6,657.5,400.6z"
				/>
			<polygon style="fill:#434459;" points="650.4,392.4 649.4,393.2 651,393.2 			"/>
			<polygon style="fill:#434459;" points="644.5,398.3 644.8,397.4 645.7,397.4 645.3,398.3 			"/>
			<polygon style="fill:#434459;" points="642.5,394.7 642.5,395.6 643.4,394.6 			"/>
			<polygon style="fill:#434459;" points="618.5,393.3 619.4,392.6 619.4,393.7 618.3,393.9 			"/>
			<polygon style="fill:#434459;" points="633.6,393.6 632.7,392.9 633.9,392.7 634.4,393.6 			"/>
			<polygon style="fill:#434459;" points="611.2,392.4 611.2,393.3 612.5,392.4 			"/>
			<polygon style="fill:#434459;" points="601.2,397.4 602.3,397.3 601.2,396.3 			"/>
			<polygon style="fill:#434459;" points="656.4,397.5 656.7,396.7 655.3,397.3 			"/>
			<polygon style="fill:#434459;" points="607.7,389.9 607.7,390.9 608.3,390.8 608.5,389.9 			"/>
			<polygon style="fill:#434459;" points="593.6,391.4 593.3,392.9 592.4,392.4 			"/>
			<polygon style="fill:#434459;" points="588,397.8 588.3,398.3 588.9,398.1 588.4,397 			"/>
			<polygon style="fill:#434459;" points="583.7,394.6 583.7,395.7 584.4,395.2 584.4,394 			"/>
			<path style="fill:#4C9500;" d="M663,364.4c0-2.1-1.8-3.8-4.1-3.8h-75.1c-2.3,0-4.1,1.7-4.1,3.8v23c1.5,0.5,4.6,0,10.6-3.7
				c0,0-3.1,4.4,4.3,0.5c0,0-3.1,6.4,10.1,0c0,0-0.5,4.2,5.5-0.5c0,0-2.9,5.5,6.3,0.6c0,0-0.9,2.6,3.2,0.5c0,0-0.5,4.5,9.2-0.1
				c0,0-0.8,2.6,3.2,0.2c0,0-1.2,4.4,9.3,0.1c0,0-2.6,4.2,7.8,0.1c0,0-0.5,2.3,4.9-0.2c0,0-0.8,4,6.1-1.1c0,0-0.2,3.5,2.7,3.6V364.4
				z"/>
			<path style="fill:#7BAB00;" d="M663,384.9v-21.1c0-2.2-1.8-4.1-4.1-4.1h-75.1c-2.3,0-4.1,1.8-4.1,4.1v21.1
				c2.1,0.1,5.5-0.7,10.9-3.5c0,0-0.9,4.8,5.1,0c0,0-2.6,6.9,9.3,0.4c0,0,0.5,3.9,6-0.4c0,0-1.2,4.9,7.4,0c0,0-1.5,3.6,3.1,0.5
				c0,0-3.4,5.8,7.8-0.1c0,0-0.9,4.2,4,0.5c0,0-1.8,6,8.4,0.1c0,0-1.2,4.8,7.7,0.3c0,0,0.2,3.5,4.9-0.3c0,0,0.5,3.4,6.4-1
				C660.6,381.4,661.2,384.1,663,384.9z"/>
			<path style="fill:#4C9500;" d="M597.6,374.2c-0.1,0-0.1,0-0.2-0.1l-1.9-3l-2.2,2.6c0,0.1-0.1,0.1-0.2,0.1c-0.1,0-0.1,0-0.2-0.1
				l-1.8-2.5l-2.5,2.9c-0.1,0.1-0.2,0.1-0.3,0c-0.1-0.1-0.1-0.2,0-0.3l2.7-3.1c0-0.1,0.1-0.1,0.2-0.1c0.1,0,0.1,0,0.2,0.1l1.8,2.5
				l2.2-2.6c0-0.1,0.1-0.1,0.2-0.1c0.1,0,0.1,0,0.2,0.1l2,3.3c0.1,0.1,0,0.2-0.1,0.3C597.6,374.2,597.6,374.2,597.6,374.2z"/>
			<path style="fill:#4C9500;" d="M611.2,369.8c-0.1,0-0.1,0-0.2-0.1l-1.9-3l-2.2,2.6c0,0.1-0.1,0.1-0.2,0.1c-0.1,0-0.1,0-0.2-0.1
				l-1.8-2.5l-2.5,2.9c-0.1,0.1-0.2,0.1-0.3,0c-0.1-0.1-0.1-0.2,0-0.3l2.7-3.1c0-0.1,0.1-0.1,0.2-0.1c0.1,0,0.1,0,0.2,0.1l1.8,2.5
				l2.2-2.6c0-0.1,0.1-0.1,0.2-0.1c0.1,0,0.1,0,0.2,0.1l2,3.3c0.1,0.1,0,0.2-0.1,0.3C611.3,369.8,611.2,369.8,611.2,369.8z"/>
			<path style="fill:#4C9500;" d="M643.1,374.6c-0.1,0-0.1,0-0.2-0.1l-1.9-3l-2.2,2.6c0,0.1-0.1,0.1-0.2,0.1c-0.1,0-0.1,0-0.2-0.1
				l-1.8-2.5l-2.5,2.9c-0.1,0.1-0.2,0.1-0.3,0c-0.1-0.1-0.1-0.2,0-0.3l2.7-3.1c0-0.1,0.1-0.1,0.2-0.1c0.1,0,0.1,0,0.2,0.1l1.8,2.5
				l2.2-2.6c0-0.1,0.1-0.1,0.2-0.1c0.1,0,0.1,0,0.2,0.1l2,3.3c0.1,0.1,0,0.2-0.1,0.3C643.1,374.6,643.1,374.6,643.1,374.6z"/>
		</g>
		<g>
			<g>
				<path style="fill:#1D3549;" d="M745.3,359.8h-75.1c-2.3,0-4.1,1.8-4.1,4.1v36.4c0,2.2,1.8,4.1,4.1,4.1h75.1
					c2.3,0,4.1-1.8,4.1-4.1v-36.4C749.4,361.6,747.5,359.8,745.3,359.8z"/>
				<path style="fill:#1B0D00;" d="M745.3,359.8c2.3,0,4.1,1.8,4.1,4.1v36.4c0,2.2-1.8,4.1-4.1,4.1h-75.1c-2.3,0-4.1-1.8-4.1-4.1
					v-36.4c0-2.2,1.8-4.1,4.1-4.1H745.3 M745.3,357.2h-75.1c-3.7,0-6.7,3-6.7,6.7v36.4c0,3.7,3,6.7,6.7,6.7h75.1
					c3.7,0,6.7-3,6.7-6.7v-36.4C752,360.1,749,357.2,745.3,357.2L745.3,357.2z"/>
			</g>
			<path style="fill:#323B4F;" d="M670.1,404.3h75.1c2.3,0,4.1-1.8,4.1-4.1v-8.8c-13.1,3.6-40.4,0.4-40.4,0.4
				c-21.5-2.1-41.5-0.7-43-0.4v8.8C666,402.4,667.9,404.3,670.1,404.3z"/>
			<path style="fill:#1F2634;" d="M743.9,400.6c-11.2,1.2-24.1-2.7-24.1-2.7c-9.7-2.9-19.9-0.4-19.9-0.4c-7.4,1.8-16.9,2.7-16.9,2.7
				c-8.4,0.8-13.8,0.4-17.1-0.9v0.9c0,2.2,1.8,4.1,4.1,4.1h75.1c2.3,0,4.1-1.8,4.1-4.1v-0.9C745.8,400.4,743.9,400.6,743.9,400.6z"
				/>
			<polygon style="fill:#434459;" points="736.8,392.4 735.8,393.2 737.4,393.2 			"/>
			<polygon style="fill:#434459;" points="730.9,398.3 731.2,397.4 732.1,397.4 731.7,398.3 			"/>
			<polygon style="fill:#434459;" points="728.9,394.7 728.9,395.6 729.8,394.6 			"/>
			<polygon style="fill:#434459;" points="704.8,393.3 705.8,392.6 705.8,393.7 704.7,393.9 			"/>
			<polygon style="fill:#434459;" points="720,393.6 719.1,392.9 720.3,392.7 720.8,393.6 			"/>
			<polygon style="fill:#434459;" points="697.6,392.4 697.6,393.3 698.9,392.4 			"/>
			<polygon style="fill:#434459;" points="687.6,397.4 688.7,397.3 687.6,396.3 			"/>
			<polygon style="fill:#434459;" points="742.8,397.5 743.1,396.7 741.7,397.3 			"/>
			<polygon style="fill:#434459;" points="694.1,389.9 694.1,390.9 694.7,390.8 694.9,389.9 			"/>
			<polygon style="fill:#434459;" points="680,391.4 679.7,392.9 678.8,392.4 			"/>
			<polygon style="fill:#434459;" points="674.4,397.8 674.7,398.3 675.3,398.1 674.8,397 			"/>
			<polygon style="fill:#434459;" points="670.1,394.6 670.1,395.7 670.8,395.2 670.8,394 			"/>
		</g>
		<g>
			<g>
				<path style="fill:#1D3549;" d="M831.9,359.8h-75.1c-2.3,0-4.1,1.8-4.1,4.1v36.4c0,2.2,1.8,4.1,4.1,4.1h75.1
					c2.3,0,4.1-1.8,4.1-4.1v-36.4C836,361.6,834.2,359.8,831.9,359.8z"/>
				<path style="fill:#1B0D00;" d="M831.9,359.8c2.3,0,4.1,1.8,4.1,4.1v36.4c0,2.2-1.8,4.1-4.1,4.1h-75.1c-2.3,0-4.1-1.8-4.1-4.1
					v-36.4c0-2.2,1.8-4.1,4.1-4.1H831.9 M831.9,357.2h-75.1c-3.7,0-6.7,3-6.7,6.7v36.4c0,3.7,3,6.7,6.7,6.7h75.1
					c3.7,0,6.7-3,6.7-6.7v-36.4C838.6,360.1,835.6,357.2,831.9,357.2L831.9,357.2z"/>
			</g>
			<path style="fill:#323B4F;" d="M756.8,404.3h75.1c2.3,0,4.1-1.8,4.1-4.1v-8.8c-13.1,3.6-40.4,0.4-40.4,0.4
				c-21.5-2.1-41.5-0.7-43-0.4v8.8C752.7,402.4,754.5,404.3,756.8,404.3z"/>
			<path style="fill:#1F2634;" d="M830.6,400.6c-11.2,1.2-24.1-2.7-24.1-2.7c-9.7-2.9-19.9-0.4-19.9-0.4c-7.4,1.8-16.9,2.7-16.9,2.7
				c-8.4,0.8-13.8,0.4-17.1-0.9v0.9c0,2.2,1.8,4.1,4.1,4.1h75.1c2.3,0,4.1-1.8,4.1-4.1v-0.9C832.4,400.4,830.6,400.6,830.6,400.6z"
				/>
			<polygon style="fill:#434459;" points="823.4,392.4 822.5,393.2 824,393.2 			"/>
			<polygon style="fill:#434459;" points="817.5,398.3 817.9,397.4 818.8,397.4 818.3,398.3 			"/>
			<polygon style="fill:#434459;" points="815.6,394.7 815.6,395.6 816.5,394.6 			"/>
			<polygon style="fill:#434459;" points="791.5,393.3 792.4,392.6 792.4,393.7 791.3,393.9 			"/>
			<polygon style="fill:#434459;" points="806.7,393.6 805.7,392.9 807,392.7 807.4,393.6 			"/>
			<polygon style="fill:#434459;" points="784.3,392.4 784.3,393.3 785.5,392.4 			"/>
			<polygon style="fill:#434459;" points="774.3,397.4 775.4,397.3 774.2,396.3 			"/>
			<polygon style="fill:#434459;" points="829.5,397.5 829.8,396.7 828.4,397.3 			"/>
			<polygon style="fill:#434459;" points="780.8,389.9 780.8,390.9 781.4,390.8 781.5,389.9 			"/>
			<polygon style="fill:#434459;" points="766.7,391.4 766.4,392.9 765.5,392.4 			"/>
			<polygon style="fill:#434459;" points="761,397.8 761.3,398.3 761.9,398.1 761.5,397 			"/>
			<polygon style="fill:#434459;" points="756.7,394.6 756.7,395.7 757.5,395.2 757.5,394 			"/>
			<path style="fill:#4C9500;" d="M836,364.4c0-2.1-1.8-3.8-4.1-3.8h-75.1c-2.3,0-4.1,1.7-4.1,3.8v23c1.5,0.5,4.6,0,10.6-3.7
				c0,0-3.1,4.4,4.3,0.5c0,0-3.1,6.4,10.1,0c0,0-0.5,4.2,5.5-0.5c0,0-2.9,5.5,6.3,0.6c0,0-0.9,2.6,3.2,0.5c0,0-0.5,4.5,9.2-0.1
				c0,0-0.8,2.6,3.2,0.2c0,0-1.2,4.4,9.3,0.1c0,0-2.6,4.2,7.8,0.1c0,0-0.5,2.3,4.9-0.2c0,0-0.8,4,6.1-1.1c0,0-0.2,3.5,2.7,3.6V364.4
				z"/>
			<path style="fill:#7BAB00;" d="M836,384.9v-21.1c0-2.2-1.8-4.1-4.1-4.1h-75.1c-2.3,0-4.1,1.8-4.1,4.1v21.1
				c2.1,0.1,5.5-0.7,10.9-3.5c0,0-0.9,4.8,5.1,0c0,0-2.6,6.9,9.3,0.4c0,0,0.5,3.9,6-0.4c0,0-1.2,4.9,7.4,0c0,0-1.5,3.6,3.1,0.5
				c0,0-3.4,5.8,7.8-0.1c0,0-0.9,4.2,4,0.5c0,0-1.8,6,8.4,0.1c0,0-1.2,4.8,7.7,0.3c0,0,0.2,3.5,4.9-0.3c0,0,0.5,3.4,6.4-1
				C833.6,381.4,834.3,384.1,836,384.9z"/>
			<path style="fill:#4C9500;" d="M770.6,374.2c-0.1,0-0.1,0-0.2-0.1l-1.9-3l-2.2,2.6c0,0.1-0.1,0.1-0.2,0.1c-0.1,0-0.1,0-0.2-0.1
				l-1.8-2.5l-2.5,2.9c-0.1,0.1-0.2,0.1-0.3,0c-0.1-0.1-0.1-0.2,0-0.3l2.7-3.1c0-0.1,0.1-0.1,0.2-0.1c0.1,0,0.1,0,0.2,0.1l1.8,2.5
				l2.2-2.6c0-0.1,0.1-0.1,0.2-0.1c0.1,0,0.1,0,0.2,0.1l2,3.3c0.1,0.1,0,0.2-0.1,0.3C770.7,374.2,770.6,374.2,770.6,374.2z"/>
			<path style="fill:#4C9500;" d="M784.2,369.8c-0.1,0-0.1,0-0.2-0.1l-1.9-3l-2.2,2.6c0,0.1-0.1,0.1-0.2,0.1c-0.1,0-0.1,0-0.2-0.1
				l-1.8-2.5l-2.5,2.9c-0.1,0.1-0.2,0.1-0.3,0c-0.1-0.1-0.1-0.2,0-0.3l2.7-3.1c0-0.1,0.1-0.1,0.2-0.1c0.1,0,0.1,0,0.2,0.1l1.8,2.5
				l2.2-2.6c0-0.1,0.1-0.1,0.2-0.1c0.1,0,0.1,0,0.2,0.1l2,3.3c0.1,0.1,0,0.2-0.1,0.3C784.3,369.8,784.3,369.8,784.2,369.8z"/>
			<path style="fill:#4C9500;" d="M816.1,374.6c-0.1,0-0.1,0-0.2-0.1l-1.9-3l-2.2,2.6c0,0.1-0.1,0.1-0.2,0.1c-0.1,0-0.1,0-0.2-0.1
				l-1.8-2.5l-2.5,2.9c-0.1,0.1-0.2,0.1-0.3,0c-0.1-0.1-0.1-0.2,0-0.3l2.7-3.1c0-0.1,0.1-0.1,0.2-0.1c0.1,0,0.1,0,0.2,0.1l1.8,2.5
				l2.2-2.6c0-0.1,0.1-0.1,0.2-0.1c0.1,0,0.1,0,0.2,0.1l2,3.3c0.1,0.1,0,0.2-0.1,0.3C816.2,374.6,816.2,374.6,816.1,374.6z"/>
		</g>
		<g>
			<g>
				<path style="fill:#1D3549;" d="M918.3,359.8h-75.1c-2.3,0-4.1,1.8-4.1,4.1v36.4c0,2.2,1.8,4.1,4.1,4.1h75.1
					c2.3,0,4.1-1.8,4.1-4.1v-36.4C922.4,361.6,920.6,359.8,918.3,359.8z"/>
				<path style="fill:#1B0D00;" d="M918.3,359.8c2.3,0,4.1,1.8,4.1,4.1v36.4c0,2.2-1.8,4.1-4.1,4.1h-75.1c-2.3,0-4.1-1.8-4.1-4.1
					v-36.4c0-2.2,1.8-4.1,4.1-4.1H918.3 M918.3,357.2h-75.1c-3.7,0-6.7,3-6.7,6.7v36.4c0,3.7,3,6.7,6.7,6.7h75.1
					c3.7,0,6.7-3,6.7-6.7v-36.4C925.1,360.1,922,357.2,918.3,357.2L918.3,357.2z"/>
			</g>
			<path style="fill:#323B4F;" d="M843.2,404.3h75.1c2.3,0,4.1-1.8,4.1-4.1v-8.8c-13.1,3.6-40.4,0.4-40.4,0.4
				c-21.5-2.1-41.5-0.7-43-0.4v8.8C839.1,402.4,840.9,404.3,843.2,404.3z"/>
			<path style="fill:#1F2634;" d="M917,400.6c-11.2,1.2-24.1-2.7-24.1-2.7c-9.7-2.9-19.9-0.4-19.9-0.4c-7.4,1.8-16.9,2.7-16.9,2.7
				c-8.4,0.8-13.8,0.4-17.1-0.9v0.9c0,2.2,1.8,4.1,4.1,4.1h75.1c2.3,0,4.1-1.8,4.1-4.1v-0.9C918.8,400.4,917,400.6,917,400.6z"/>
			<polygon style="fill:#434459;" points="909.8,392.4 908.9,393.2 910.4,393.2 			"/>
			<polygon style="fill:#434459;" points="904,398.3 904.3,397.4 905.2,397.4 904.7,398.3 			"/>
			<polygon style="fill:#434459;" points="902,394.7 902,395.6 902.9,394.6 			"/>
			<polygon style="fill:#434459;" points="877.9,393.3 878.8,392.6 878.8,393.7 877.8,393.9 			"/>
			<polygon style="fill:#434459;" points="893.1,393.6 892.2,392.9 893.4,392.7 893.9,393.6 			"/>
			<polygon style="fill:#434459;" points="870.7,392.4 870.7,393.3 871.9,392.4 			"/>
			<polygon style="fill:#434459;" points="860.7,397.4 861.8,397.3 860.7,396.3 			"/>
			<polygon style="fill:#434459;" points="915.9,397.5 916.2,396.7 914.8,397.3 			"/>
			<polygon style="fill:#434459;" points="867.2,389.9 867.2,390.9 867.8,390.8 868,389.9 			"/>
			<polygon style="fill:#434459;" points="853.1,391.4 852.8,392.9 851.9,392.4 			"/>
			<polygon style="fill:#434459;" points="847.4,397.8 847.7,398.3 848.3,398.1 847.9,397 			"/>
			<polygon style="fill:#434459;" points="843.1,394.6 843.1,395.7 843.9,395.2 843.9,394 			"/>
			<path style="fill:#4C9500;" d="M922.4,364.4c0-2.1-1.8-3.8-4.1-3.8h-75.1c-2.3,0-4.1,1.7-4.1,3.8v23c1.5,0.5,4.6,0,10.6-3.7
				c0,0-3.1,4.4,4.3,0.5c0,0-3.1,6.4,10.1,0c0,0-0.5,4.2,5.5-0.5c0,0-2.9,5.5,6.3,0.6c0,0-0.9,2.6,3.2,0.5c0,0-0.5,4.5,9.2-0.1
				c0,0-0.8,2.6,3.2,0.2c0,0-1.2,4.4,9.3,0.1c0,0-2.6,4.2,7.8,0.1c0,0-0.5,2.3,4.9-0.2c0,0-0.8,4,6.1-1.1c0,0-0.2,3.5,2.7,3.6V364.4
				z"/>
			<path style="fill:#7BAB00;" d="M922.4,384.9v-21.1c0-2.2-1.8-4.1-4.1-4.1h-75.1c-2.3,0-4.1,1.8-4.1,4.1v21.1
				c2.1,0.1,5.5-0.7,10.9-3.5c0,0-0.9,4.8,5.1,0c0,0-2.6,6.9,9.3,0.4c0,0,0.5,3.9,6-0.4c0,0-1.2,4.9,7.4,0c0,0-1.5,3.6,3.1,0.5
				c0,0-3.4,5.8,7.8-0.1c0,0-0.9,4.2,4,0.5c0,0-1.8,6,8.4,0.1c0,0-1.2,4.8,7.7,0.3c0,0,0.2,3.5,4.9-0.3c0,0,0.5,3.4,6.4-1
				C920.1,381.4,920.7,384.1,922.4,384.9z"/>
			<path style="fill:#4C9500;" d="M857,374.2c-0.1,0-0.1,0-0.2-0.1l-1.9-3l-2.2,2.6c0,0.1-0.1,0.1-0.2,0.1c-0.1,0-0.1,0-0.2-0.1
				l-1.8-2.5l-2.5,2.9c-0.1,0.1-0.2,0.1-0.3,0c-0.1-0.1-0.1-0.2,0-0.3l2.7-3.1c0-0.1,0.1-0.1,0.2-0.1c0.1,0,0.1,0,0.2,0.1l1.8,2.5
				l2.2-2.6c0-0.1,0.1-0.1,0.2-0.1c0.1,0,0.1,0,0.2,0.1l2,3.3c0.1,0.1,0,0.2-0.1,0.3C857.1,374.2,857.1,374.2,857,374.2z"/>
			<path style="fill:#4C9500;" d="M870.7,369.8c-0.1,0-0.1,0-0.2-0.1l-1.9-3l-2.2,2.6c0,0.1-0.1,0.1-0.2,0.1c-0.1,0-0.1,0-0.2-0.1
				l-1.8-2.5l-2.5,2.9c-0.1,0.1-0.2,0.1-0.3,0c-0.1-0.1-0.1-0.2,0-0.3l2.7-3.1c0-0.1,0.1-0.1,0.2-0.1c0.1,0,0.1,0,0.2,0.1l1.8,2.5
				l2.2-2.6c0-0.1,0.1-0.1,0.2-0.1c0.1,0,0.1,0,0.2,0.1l2,3.3c0.1,0.1,0,0.2-0.1,0.3C870.7,369.8,870.7,369.8,870.7,369.8z"/>
			<path style="fill:#4C9500;" d="M902.5,374.6c-0.1,0-0.1,0-0.2-0.1l-1.9-3l-2.2,2.6c0,0.1-0.1,0.1-0.2,0.1c-0.1,0-0.1,0-0.2-0.1
				l-1.8-2.5l-2.5,2.9c-0.1,0.1-0.2,0.1-0.3,0c-0.1-0.1-0.1-0.2,0-0.3l2.7-3.1c0-0.1,0.1-0.1,0.2-0.1c0.1,0,0.1,0,0.2,0.1l1.8,2.5
				l2.2-2.6c0-0.1,0.1-0.1,0.2-0.1c0.1,0,0.1,0,0.2,0.1l2,3.3c0.1,0.1,0,0.2-0.1,0.3C902.6,374.6,902.6,374.6,902.5,374.6z"/>
		</g>
		<g>
			<g>
				<path style="fill:#777C8A;" d="M679.8,365.8l7-36.3c0.3-1.6,2.5-1.6,2.8,0l7.1,36.6c0.3,1.5-0.3,3.1-1.5,4.1
					c-2.5,1.9-7.3,4-13.7-0.2C680.2,369.2,679.5,367.5,679.8,365.8z"/>
				<path d="M688.9,373.7c-2.3,0-4.9-0.7-7.9-2.6c-1.8-1.2-2.7-3.3-2.3-5.5l7-36.3c0.2-1.3,1.3-2.1,2.6-2.1c0,0,0,0,0,0
					c1.3,0,2.3,0.9,2.6,2.1L698,366c0.4,2-0.4,4-2,5.2C694.5,372.4,692.1,373.7,688.9,373.7z M681,366.1c-0.2,1.2,0.3,2.4,1.3,3
					c5.6,3.7,9.8,2.2,12.3,0.2c0.9-0.7,1.3-1.8,1.1-2.9l-7.1-36.6c0-0.1,0-0.2-0.3-0.2c0,0,0,0,0,0c-0.2,0-0.2,0.1-0.3,0.2
					L681,366.1z"/>
			</g>
			<g>
				<path style="fill:#777C8A;" d="M700.9,365.8l7-36.3c0.3-1.6,2.5-1.6,2.8,0l7.1,36.6c0.3,1.5-0.3,3.1-1.5,4.1
					c-2.5,1.9-7.3,4-13.7-0.2C701.3,369.2,700.6,367.5,700.9,365.8z"/>
				<path d="M709.9,373.7c-2.3,0-4.9-0.7-7.9-2.6c-1.8-1.2-2.7-3.3-2.3-5.5l7-36.3c0.2-1.3,1.3-2.1,2.6-2.1c0,0,0,0,0,0
					c1.3,0,2.3,0.9,2.6,2.1L719,366c0.4,2-0.4,4-2,5.2C715.6,372.4,713.1,373.7,709.9,373.7z M702.1,366.1c-0.2,1.2,0.3,2.4,1.3,3
					c5.6,3.7,9.8,2.2,12.3,0.2c0.9-0.7,1.3-1.8,1.1-2.9l-7.1-36.6c0-0.1,0-0.2-0.3-0.2c0,0,0,0,0,0c-0.2,0-0.2,0.1-0.3,0.2
					L702.1,366.1z"/>
			</g>
			<g>
				<path style="fill:#777C8A;" d="M718,365.8l7-36.3c0.3-1.6,2.5-1.6,2.8,0l7.1,36.6c0.3,1.5-0.3,3.1-1.5,4.1
					c-2.5,1.9-7.3,4-13.7-0.2C718.4,369.2,717.7,367.5,718,365.8z"/>
				<path d="M727.1,373.7c-2.3,0-4.9-0.7-7.9-2.6c-1.8-1.2-2.7-3.3-2.3-5.5l7-36.3c0.2-1.3,1.3-2.1,2.6-2.1h0c1.3,0,2.3,0.9,2.6,2.1
					l7.1,36.6c0.4,2-0.4,4-2,5.2C732.7,372.4,730.3,373.7,727.1,373.7z M719.2,366.1c-0.2,1.2,0.3,2.4,1.3,3
					c5.6,3.7,9.8,2.2,12.3,0.2c0.9-0.7,1.3-1.8,1.1-2.9l-7.1-36.6c0-0.1,0-0.2-0.3-0.2l0,0c-0.2,0-0.2,0.1-0.3,0.2L719.2,366.1z"/>
			</g>
			<g>
				<path style="fill:#777C8A;" d="M670.2,374.6l7-36.3c0.3-1.6,2.5-1.6,2.8,0l7.1,36.6c0.3,1.5-0.3,3.1-1.5,4.1
					c-2.5,1.9-7.3,4-13.7-0.2C670.6,378,669.9,376.3,670.2,374.6z"/>
				<path d="M679.3,382.5c-2.3,0-4.9-0.7-7.9-2.6c-1.8-1.2-2.7-3.3-2.3-5.5l7-36.3c0.2-1.3,1.3-2.1,2.6-2.1c0,0,0,0,0,0
					c1.3,0,2.3,0.9,2.6,2.1l7.1,36.6c0.4,2-0.4,4-2,5.2C684.9,381.2,682.4,382.5,679.3,382.5z M671.4,374.9c-0.2,1.2,0.3,2.4,1.3,3
					c5.6,3.7,9.8,2.2,12.3,0.2c0.9-0.7,1.3-1.8,1.1-2.9l-7.1-36.6c0-0.1,0-0.2-0.3-0.2l0,0c-0.2,0-0.2,0.1-0.3,0.2L671.4,374.9z"/>
			</g>
			<g>
				<path style="fill:#777C8A;" d="M690.3,374.6l7-36.3c0.3-1.6,2.5-1.6,2.8,0l7.1,36.6c0.3,1.5-0.3,3.1-1.5,4.1
					c-2.5,1.9-7.3,4-13.7-0.2C690.7,378,690,376.3,690.3,374.6z"/>
				<path d="M699.3,382.5c-2.3,0-4.9-0.7-7.9-2.6c-1.8-1.2-2.7-3.3-2.3-5.5l7-36.3c0.2-1.3,1.3-2.1,2.6-2.1c0,0,0,0,0,0
					c1.3,0,2.3,0.9,2.6,2.1l7.1,36.6c0.4,2-0.4,4-2,5.2C704.9,381.2,702.5,382.5,699.3,382.5z M691.4,374.9c-0.2,1.2,0.3,2.4,1.3,3
					c5.6,3.7,9.8,2.2,12.3,0.2c0.9-0.7,1.3-1.8,1.1-2.9l-7.1-36.6c0-0.1,0-0.2-0.3-0.2c0,0,0,0,0,0c-0.2,0-0.2,0.1-0.3,0.2
					L691.4,374.9z"/>
			</g>
			<g>
				<path style="fill:#777C8A;" d="M710.3,374.6l7-36.3c0.3-1.6,2.5-1.6,2.8,0l7.1,36.6c0.3,1.5-0.3,3.1-1.5,4.1
					c-2.5,1.9-7.3,4-13.7-0.2C710.7,378,710,376.3,710.3,374.6z"/>
				<path d="M719.4,382.5c-2.3,0-4.9-0.7-7.9-2.6c-1.8-1.2-2.7-3.3-2.3-5.5l7-36.3c0.2-1.3,1.3-2.1,2.6-2.1c0,0,0,0,0,0
					c1.3,0,2.3,0.9,2.6,2.1l7.1,36.6c0.4,2-0.4,4-2,5.2C725,381.2,722.6,382.5,719.4,382.5z M711.5,374.9c-0.2,1.2,0.3,2.4,1.3,3
					c5.6,3.7,9.8,2.2,12.3,0.2c0.9-0.7,1.3-1.8,1.1-2.9l-7.1-36.6c0-0.1,0-0.2-0.3-0.2l0,0c-0.2,0-0.2,0.1-0.3,0.2L711.5,374.9z"/>
			</g>
			<g>
				<path style="fill:#777C8A;" d="M730.4,374.6l7-36.3c0.3-1.6,2.5-1.6,2.8,0l7.1,36.6c0.3,1.5-0.3,3.1-1.5,4.1
					c-2.5,1.9-7.3,4-13.7-0.2C730.8,378,730.1,376.3,730.4,374.6z"/>
				<path d="M739.4,382.5c-2.3,0-4.9-0.7-7.9-2.6c-1.8-1.2-2.7-3.3-2.3-5.5l7-36.3c0.2-1.3,1.3-2.1,2.6-2.1c0,0,0,0,0,0
					c1.3,0,2.3,0.9,2.6,2.1l7.1,36.6c0.4,2-0.4,4-2,5.2C745.1,381.2,742.6,382.5,739.4,382.5z M731.6,374.9c-0.2,1.2,0.3,2.4,1.3,3
					c5.6,3.7,9.8,2.2,12.3,0.2c0.9-0.7,1.3-1.8,1.1-2.9l-7.1-36.6c0-0.1,0-0.2-0.3-0.2l0,0c-0.2,0-0.2,0.1-0.3,0.2L731.6,374.9z"/>
			</g>
		</g>
	</g>
	<g style="clip-path:url(#SVGID_00000125578180698520867350000001135767005582143887_);">
		<g>
			<polyline style="fill:#FFFFFF;" points="175.6,281.6 178.3,278.5 180.2,281.3 182.6,278.5 184.6,281.8 			"/>
			<g>
				<path style="fill:#1D3549;" d="M200.5,267.2h-75.1c-2.3,0-4.1,1.8-4.1,4.1v36.4c0,2.2,1.8,4.1,4.1,4.1h75.1
					c2.3,0,4.1-1.8,4.1-4.1v-36.4C204.6,269,202.7,267.2,200.5,267.2z"/>
				<path style="fill:#1B0D00;" d="M200.5,267.2c2.3,0,4.1,1.8,4.1,4.1v36.4c0,2.2-1.8,4.1-4.1,4.1h-75.1c-2.3,0-4.1-1.8-4.1-4.1
					v-36.4c0-2.2,1.8-4.1,4.1-4.1H200.5 M200.5,264.6h-75.1c-3.7,0-6.7,3-6.7,6.7v36.4c0,3.7,3,6.7,6.7,6.7h75.1
					c3.7,0,6.7-3,6.7-6.7v-36.4C207.2,267.6,204.2,264.6,200.5,264.6L200.5,264.6z"/>
			</g>
			<path style="fill:#323B4F;" d="M125.3,311.7h75.1c2.3,0,4.1-1.8,4.1-4.1v-8.8c-13.1,3.6-40.4,0.4-40.4,0.4
				c-21.5-2.1-41.5-0.7-43-0.4v8.8C121.2,309.9,123,311.7,125.3,311.7z"/>
			<path style="fill:#1F2634;" d="M199.1,308c-11.2,1.2-24.1-2.7-24.1-2.7c-9.7-2.9-19.9-0.4-19.9-0.4c-7.4,1.8-16.9,2.7-16.9,2.7
				c-8.4,0.8-13.8,0.4-17.1-0.9v0.9c0,2.2,1.8,4.1,4.1,4.1h75.1c2.3,0,4.1-1.8,4.1-4.1v-0.9C200.9,307.9,199.1,308,199.1,308z"/>
			<polygon style="fill:#434459;" points="192,299.8 191,300.6 192.5,300.6 			"/>
			<polygon style="fill:#434459;" points="186.1,305.8 186.4,304.9 187.3,304.9 186.8,305.8 			"/>
			<polygon style="fill:#434459;" points="184.1,302.1 184.1,303 185,302 			"/>
			<polygon style="fill:#434459;" points="160,300.7 160.9,300 160.9,301.1 159.9,301.3 			"/>
			<polygon style="fill:#434459;" points="175.2,301 174.3,300.4 175.5,300.2 176,301 			"/>
			<polygon style="fill:#434459;" points="152.8,299.8 152.8,300.7 154,299.8 			"/>
			<polygon style="fill:#434459;" points="142.8,304.8 143.9,304.8 142.8,303.8 			"/>
			<polygon style="fill:#434459;" points="198,305 198.3,304.1 196.9,304.7 			"/>
			<polygon style="fill:#434459;" points="149.3,297.3 149.3,298.4 149.9,298.2 150.1,297.3 			"/>
			<polygon style="fill:#434459;" points="135.2,298.9 134.9,300.3 134,299.8 			"/>
			<polygon style="fill:#434459;" points="129.5,305.2 129.8,305.8 130.5,305.5 130,304.5 			"/>
			<polygon style="fill:#434459;" points="125.2,302 125.2,303.2 126,302.6 126,301.5 			"/>
			<path style="fill:#4C9500;" d="M204.6,271.9c0-2.1-1.8-3.8-4.1-3.8h-75.1c-2.3,0-4.1,1.7-4.1,3.8v23c1.5,0.5,4.6,0,10.6-3.7
				c0,0-3.1,4.4,4.3,0.5c0,0-3.1,6.4,10.1,0c0,0-0.5,4.2,5.5-0.5c0,0-2.9,5.5,6.3,0.6c0,0-0.9,2.6,3.2,0.5c0,0-0.5,4.5,9.2-0.1
				c0,0-0.8,2.6,3.2,0.2c0,0-1.2,4.4,9.3,0.1c0,0-2.6,4.2,7.8,0.1c0,0-0.5,2.3,4.9-0.2c0,0-0.8,4,6.1-1.1c0,0-0.2,3.5,2.7,3.6V271.9
				z"/>
			<path style="fill:#7BAB00;" d="M204.6,292.4v-21.1c0-2.2-1.8-4.1-4.1-4.1h-75.1c-2.3,0-4.1,1.8-4.1,4.1v21.1
				c2.1,0.1,5.5-0.7,10.9-3.5c0,0-0.9,4.8,5.1,0c0,0-2.6,6.9,9.3,0.4c0,0,0.5,3.9,6-0.4c0,0-1.2,4.9,7.4,0c0,0-1.5,3.6,3.1,0.5
				c0,0-3.4,5.8,7.8-0.1c0,0-0.9,4.2,4,0.5c0,0-1.8,6,8.4,0.1c0,0-1.2,4.8,7.7,0.3c0,0,0.2,3.5,4.9-0.3c0,0,0.5,3.4,6.4-1
				C202.2,288.9,202.8,291.6,204.6,292.4z"/>
			<path style="fill:#4C9500;" d="M139.1,281.6c-0.1,0-0.1,0-0.2-0.1l-1.9-3l-2.2,2.6c0,0.1-0.1,0.1-0.2,0.1c-0.1,0-0.1,0-0.2-0.1
				l-1.8-2.5l-2.5,2.9c-0.1,0.1-0.2,0.1-0.3,0c-0.1-0.1-0.1-0.2,0-0.3l2.7-3.1c0-0.1,0.1-0.1,0.2-0.1c0.1,0,0.1,0,0.2,0.1l1.8,2.5
				l2.2-2.6c0-0.1,0.1-0.1,0.2-0.1c0.1,0,0.1,0,0.2,0.1l2,3.3c0.1,0.1,0,0.2-0.1,0.3C139.2,281.6,139.2,281.6,139.1,281.6z"/>
			<path style="fill:#4C9500;" d="M152.8,277.2c-0.1,0-0.1,0-0.2-0.1l-1.9-3l-2.2,2.6c0,0.1-0.1,0.1-0.2,0.1c-0.1,0-0.1,0-0.2-0.1
				l-1.8-2.5l-2.5,2.9c-0.1,0.1-0.2,0.1-0.3,0c-0.1-0.1-0.1-0.2,0-0.3l2.7-3.1c0-0.1,0.1-0.1,0.2-0.1c0.1,0,0.1,0,0.2,0.1l1.8,2.5
				l2.2-2.6c0-0.1,0.1-0.1,0.2-0.1c0.1,0,0.1,0,0.2,0.1l2,3.3c0.1,0.1,0,0.2-0.1,0.3C152.9,277.2,152.8,277.2,152.8,277.2z"/>
		</g>
		<g>
			<polyline style="fill:#FFFFFF;" points="89.3,281.6 92,278.5 94,281.3 96.3,278.5 98.4,281.8 			"/>
			<g>
				<path style="fill:#1D3549;" d="M114.2,267.2H39c-2.3,0-4.1,1.8-4.1,4.1v36.4c0,2.2,1.8,4.1,4.1,4.1h75.1c2.3,0,4.1-1.8,4.1-4.1
					v-36.4C118.3,269,116.4,267.2,114.2,267.2z"/>
				<path style="fill:#1B0D00;" d="M114.2,267.2c2.3,0,4.1,1.8,4.1,4.1v36.4c0,2.2-1.8,4.1-4.1,4.1H39c-2.3,0-4.1-1.8-4.1-4.1v-36.4
					c0-2.2,1.8-4.1,4.1-4.1H114.2 M114.2,264.6H39c-3.7,0-6.7,3-6.7,6.7v36.4c0,3.7,3,6.7,6.7,6.7h75.1c3.7,0,6.7-3,6.7-6.7v-36.4
					C120.9,267.6,117.9,264.6,114.2,264.6L114.2,264.6z"/>
			</g>
			<path style="fill:#323B4F;" d="M39,311.7h75.1c2.3,0,4.1-1.8,4.1-4.1v-8.8c-13.1,3.6-40.4,0.4-40.4,0.4
				c-21.5-2.1-41.5-0.7-43-0.4v8.8C34.9,309.9,36.8,311.7,39,311.7z"/>
			<path style="fill:#1F2634;" d="M112.8,308c-11.2,1.2-24.1-2.7-24.1-2.7c-9.7-2.9-19.9-0.4-19.9-0.4c-7.4,1.8-16.9,2.7-16.9,2.7
				c-8.4,0.8-13.8,0.4-17.1-0.9v0.9c0,2.2,1.8,4.1,4.1,4.1h75.1c2.3,0,4.1-1.8,4.1-4.1v-0.9C114.7,307.9,112.8,308,112.8,308z"/>
			<polygon style="fill:#434459;" points="105.7,299.8 104.7,300.6 106.3,300.6 			"/>
			<polygon style="fill:#434459;" points="99.8,305.8 100.1,304.9 101,304.9 100.6,305.8 			"/>
			<polygon style="fill:#434459;" points="97.8,302.1 97.8,303 98.7,302 			"/>
			<polygon style="fill:#434459;" points="73.7,300.7 74.7,300 74.7,301.1 73.6,301.3 			"/>
			<polygon style="fill:#434459;" points="88.9,301 88,300.4 89.2,300.2 89.7,301 			"/>
			<polygon style="fill:#434459;" points="66.5,299.8 66.5,300.7 67.8,299.8 			"/>
			<polygon style="fill:#434459;" points="56.5,304.8 57.6,304.8 56.5,303.8 			"/>
			<polygon style="fill:#434459;" points="111.7,305 112,304.1 110.6,304.7 			"/>
			<polygon style="fill:#434459;" points="63,297.3 63,298.4 63.6,298.2 63.8,297.3 			"/>
			<polygon style="fill:#434459;" points="48.9,298.9 48.6,300.3 47.7,299.8 			"/>
			<polygon style="fill:#434459;" points="43.3,305.2 43.6,305.8 44.2,305.5 43.7,304.5 			"/>
			<polygon style="fill:#434459;" points="39,302 39,303.2 39.7,302.6 39.7,301.5 			"/>
			<path style="fill:#4C9500;" d="M118.3,271.9c0-2.1-1.8-3.8-4.1-3.8H39c-2.3,0-4.1,1.7-4.1,3.8v23c1.5,0.5,4.6,0,10.6-3.7
				c0,0-3.1,4.4,4.3,0.5c0,0-3.1,6.4,10.1,0c0,0-0.5,4.2,5.5-0.5c0,0-2.9,5.5,6.3,0.6c0,0-0.9,2.6,3.2,0.5c0,0-0.5,4.5,9.2-0.1
				c0,0-0.8,2.6,3.2,0.2c0,0-1.2,4.4,9.3,0.1c0,0-2.6,4.2,7.8,0.1c0,0-0.5,2.3,4.9-0.2c0,0-0.8,4,6.1-1.1c0,0-0.2,3.5,2.7,3.6V271.9
				z"/>
			<path style="fill:#7BAB00;" d="M118.3,292.4v-21.1c0-2.2-1.8-4.1-4.1-4.1H39c-2.3,0-4.1,1.8-4.1,4.1v21.1
				c2.1,0.1,5.5-0.7,10.9-3.5c0,0-0.9,4.8,5.1,0c0,0-2.6,6.9,9.3,0.4c0,0,0.5,3.9,6-0.4c0,0-1.2,4.9,7.4,0c0,0-1.5,3.6,3.1,0.5
				c0,0-3.4,5.8,7.8-0.1c0,0-0.9,4.2,4,0.5c0,0-1.8,6,8.4,0.1c0,0-1.2,4.8,7.7,0.3c0,0,0.2,3.5,4.9-0.3c0,0,0.5,3.4,6.4-1
				C115.9,288.9,116.5,291.6,118.3,292.4z"/>
			<path style="fill:#4C9500;" d="M52.9,281.6c-0.1,0-0.1,0-0.2-0.1l-1.9-3l-2.2,2.6c0,0.1-0.1,0.1-0.2,0.1c-0.1,0-0.1,0-0.2-0.1
				l-1.8-2.5l-2.5,2.9c-0.1,0.1-0.2,0.1-0.3,0c-0.1-0.1-0.1-0.2,0-0.3l2.7-3.1c0-0.1,0.1-0.1,0.2-0.1c0.1,0,0.1,0,0.2,0.1l1.8,2.5
				l2.2-2.6c0-0.1,0.1-0.1,0.2-0.1c0.1,0,0.1,0,0.2,0.1l2,3.3c0.1,0.1,0,0.2-0.1,0.3C52.9,281.6,52.9,281.6,52.9,281.6z"/>
			<path style="fill:#4C9500;" d="M66.5,277.2c-0.1,0-0.1,0-0.2-0.1l-1.9-3l-2.2,2.6c0,0.1-0.1,0.1-0.2,0.1c-0.1,0-0.1,0-0.2-0.1
				l-1.8-2.5l-2.5,2.9c-0.1,0.1-0.2,0.1-0.3,0c-0.1-0.1-0.1-0.2,0-0.3l2.7-3.1c0-0.1,0.1-0.1,0.2-0.1c0.1,0,0.1,0,0.2,0.1l1.8,2.5
				l2.2-2.6c0-0.1,0.1-0.1,0.2-0.1c0.1,0,0.1,0,0.2,0.1l2,3.3c0.1,0.1,0,0.2-0.1,0.3C66.6,277.2,66.5,277.2,66.5,277.2z"/>
		</g>
		<g>
			<g>
				<path style="fill:#1D3549;" d="M286.8,267.2h-75.1c-2.3,0-4.1,1.8-4.1,4.1v36.4c0,2.2,1.8,4.1,4.1,4.1h75.1
					c2.3,0,4.1-1.8,4.1-4.1v-36.4C291,269,289.1,267.2,286.8,267.2z"/>
				<path style="fill:#1B0D00;" d="M286.8,267.2c2.3,0,4.1,1.8,4.1,4.1v36.4c0,2.2-1.8,4.1-4.1,4.1h-75.1c-2.3,0-4.1-1.8-4.1-4.1
					v-36.4c0-2.2,1.8-4.1,4.1-4.1H286.8 M286.8,264.6h-75.1c-3.7,0-6.7,3-6.7,6.7v36.4c0,3.7,3,6.7,6.7,6.7h75.1
					c3.7,0,6.7-3,6.7-6.7v-36.4C293.6,267.6,290.5,264.6,286.8,264.6L286.8,264.6z"/>
			</g>
			<path style="fill:#323B4F;" d="M211.7,311.7h75.1c2.3,0,4.1-1.8,4.1-4.1v-8.8c-13.1,3.6-40.4,0.4-40.4,0.4
				c-21.5-2.1-41.5-0.7-43-0.4v8.8C207.6,309.9,209.4,311.7,211.7,311.7z"/>
			<path style="fill:#1F2634;" d="M285.5,308c-11.2,1.2-24.1-2.7-24.1-2.7c-9.7-2.9-19.9-0.4-19.9-0.4c-7.4,1.8-16.9,2.7-16.9,2.7
				c-8.4,0.8-13.8,0.4-17.1-0.9v0.9c0,2.2,1.8,4.1,4.1,4.1h75.1c2.3,0,4.1-1.8,4.1-4.1v-0.9C287.3,307.9,285.5,308,285.5,308z"/>
			<polygon style="fill:#434459;" points="278.4,299.8 277.4,300.6 278.9,300.6 			"/>
			<polygon style="fill:#434459;" points="272.5,305.8 272.8,304.9 273.7,304.9 273.2,305.8 			"/>
			<polygon style="fill:#434459;" points="270.5,302.1 270.5,303 271.4,302 			"/>
			<polygon style="fill:#434459;" points="246.4,300.7 247.3,300 247.3,301.1 246.3,301.3 			"/>
			<polygon style="fill:#434459;" points="261.6,301 260.7,300.4 261.9,300.2 262.4,301 			"/>
			<polygon style="fill:#434459;" points="239.2,299.8 239.2,300.7 240.4,299.8 			"/>
			<polygon style="fill:#434459;" points="229.2,304.8 230.3,304.8 229.2,303.8 			"/>
			<polygon style="fill:#434459;" points="284.4,305 284.7,304.1 283.3,304.7 			"/>
			<polygon style="fill:#434459;" points="235.7,297.3 235.7,298.4 236.3,298.2 236.5,297.3 			"/>
			<polygon style="fill:#434459;" points="221.6,298.9 221.3,300.3 220.4,299.8 			"/>
			<polygon style="fill:#434459;" points="215.9,305.2 216.2,305.8 216.8,305.5 216.4,304.5 			"/>
			<polygon style="fill:#434459;" points="211.6,302 211.6,303.2 212.4,302.6 212.4,301.5 			"/>
			<path style="fill:#4C9500;" d="M291,271.9c0-2.1-1.8-3.8-4.1-3.8h-75.1c-2.3,0-4.1,1.7-4.1,3.8v23c1.5,0.5,4.6,0,10.6-3.7
				c0,0-3.1,4.4,4.3,0.5c0,0-3.1,6.4,10.1,0c0,0-0.5,4.2,5.5-0.5c0,0-2.9,5.5,6.3,0.6c0,0-0.9,2.6,3.2,0.5c0,0-0.5,4.5,9.2-0.1
				c0,0-0.8,2.6,3.2,0.2c0,0-1.2,4.4,9.3,0.1c0,0-2.6,4.2,7.8,0.1c0,0-0.5,2.3,4.9-0.2c0,0-0.8,4,6.1-1.1c0,0-0.2,3.5,2.7,3.6V271.9
				z"/>
			<path style="fill:#7BAB00;" d="M291,292.4v-21.1c0-2.2-1.8-4.1-4.1-4.1h-75.1c-2.3,0-4.1,1.8-4.1,4.1v21.1
				c2.1,0.1,5.5-0.7,10.9-3.5c0,0-0.9,4.8,5.1,0c0,0-2.6,6.9,9.3,0.4c0,0,0.5,3.9,6-0.4c0,0-1.2,4.9,7.4,0c0,0-1.5,3.6,3.1,0.5
				c0,0-3.4,5.8,7.8-0.1c0,0-0.9,4.2,4,0.5c0,0-1.8,6,8.4,0.1c0,0-1.2,4.8,7.7,0.3c0,0,0.2,3.5,4.9-0.3c0,0,0.5,3.4,6.4-1
				C288.6,288.9,289.2,291.6,291,292.4z"/>
			<path style="fill:#4C9500;" d="M225.5,281.6c-0.1,0-0.1,0-0.2-0.1l-1.9-3l-2.2,2.6c0,0.1-0.1,0.1-0.2,0.1c-0.1,0-0.1,0-0.2-0.1
				l-1.8-2.5l-2.5,2.9c-0.1,0.1-0.2,0.1-0.3,0c-0.1-0.1-0.1-0.2,0-0.3l2.7-3.1c0-0.1,0.1-0.1,0.2-0.1c0.1,0,0.1,0,0.2,0.1l1.8,2.5
				l2.2-2.6c0-0.1,0.1-0.1,0.2-0.1c0.1,0,0.1,0,0.2,0.1l2,3.3c0.1,0.1,0,0.2-0.1,0.3C225.6,281.6,225.6,281.6,225.5,281.6z"/>
			<path style="fill:#4C9500;" d="M239.2,277.2c-0.1,0-0.1,0-0.2-0.1l-1.9-3l-2.2,2.6c0,0.1-0.1,0.1-0.2,0.1c-0.1,0-0.1,0-0.2-0.1
				l-1.8-2.5l-2.5,2.9c-0.1,0.1-0.2,0.1-0.3,0c-0.1-0.1-0.1-0.2,0-0.3l2.7-3.1c0-0.1,0.1-0.1,0.2-0.1c0.1,0,0.1,0,0.2,0.1l1.8,2.5
				l2.2-2.6c0-0.1,0.1-0.1,0.2-0.1c0.1,0,0.1,0,0.2,0.1l2,3.3c0.1,0.1,0,0.2-0.1,0.3C239.2,277.2,239.2,277.2,239.2,277.2z"/>
			<path style="fill:#4C9500;" d="M271,282c-0.1,0-0.1,0-0.2-0.1l-1.9-3l-2.2,2.6c0,0.1-0.1,0.1-0.2,0.1c-0.1,0-0.1,0-0.2-0.1
				l-1.8-2.5l-2.5,2.9c-0.1,0.1-0.2,0.1-0.3,0c-0.1-0.1-0.1-0.2,0-0.3l2.7-3.1c0-0.1,0.1-0.1,0.2-0.1c0.1,0,0.1,0,0.2,0.1l1.8,2.5
				l2.2-2.6c0-0.1,0.1-0.1,0.2-0.1c0.1,0,0.1,0,0.2,0.1l2,3.3c0.1,0.1,0,0.2-0.1,0.3C271.1,282,271.1,282,271,282z"/>
		</g>
		<g>
			<g>
				<path style="fill:#1D3549;" d="M373.2,267.2h-75.1c-2.3,0-4.1,1.8-4.1,4.1v36.4c0,2.2,1.8,4.1,4.1,4.1h75.1
					c2.3,0,4.1-1.8,4.1-4.1v-36.4C377.3,269,375.5,267.2,373.2,267.2z"/>
				<path style="fill:#1B0D00;" d="M373.2,267.2c2.3,0,4.1,1.8,4.1,4.1v36.4c0,2.2-1.8,4.1-4.1,4.1h-75.1c-2.3,0-4.1-1.8-4.1-4.1
					v-36.4c0-2.2,1.8-4.1,4.1-4.1H373.2 M373.2,264.6h-75.1c-3.7,0-6.7,3-6.7,6.7v36.4c0,3.7,3,6.7,6.7,6.7h75.1
					c3.7,0,6.7-3,6.7-6.7v-36.4C380,267.6,376.9,264.6,373.2,264.6L373.2,264.6z"/>
			</g>
			<path style="fill:#323B4F;" d="M298.1,311.7h75.1c2.3,0,4.1-1.8,4.1-4.1v-8.8c-13.1,3.6-40.4,0.4-40.4,0.4
				c-21.5-2.1-41.5-0.7-43-0.4v8.8C294,309.9,295.8,311.7,298.1,311.7z"/>
			<path style="fill:#1F2634;" d="M371.9,308c-11.2,1.2-24.1-2.7-24.1-2.7c-9.7-2.9-19.9-0.4-19.9-0.4c-7.4,1.8-16.9,2.7-16.9,2.7
				c-8.4,0.8-13.8,0.4-17.1-0.9v0.9c0,2.2,1.8,4.1,4.1,4.1h75.1c2.3,0,4.1-1.8,4.1-4.1v-0.9C373.7,307.9,371.9,308,371.9,308z"/>
			<polygon style="fill:#434459;" points="364.7,299.8 363.8,300.6 365.3,300.6 			"/>
			<polygon style="fill:#434459;" points="358.9,305.8 359.2,304.9 360.1,304.9 359.6,305.8 			"/>
			<polygon style="fill:#434459;" points="356.9,302.1 356.9,303 357.8,302 			"/>
			<polygon style="fill:#434459;" points="332.8,300.7 333.7,300 333.7,301.1 332.7,301.3 			"/>
			<polygon style="fill:#434459;" points="348,301 347.1,300.4 348.3,300.2 348.8,301 			"/>
			<polygon style="fill:#434459;" points="325.6,299.8 325.6,300.7 326.8,299.8 			"/>
			<polygon style="fill:#434459;" points="315.6,304.8 316.7,304.8 315.6,303.8 			"/>
			<polygon style="fill:#434459;" points="370.8,305 371.1,304.1 369.7,304.7 			"/>
			<polygon style="fill:#434459;" points="322.1,297.3 322.1,298.4 322.7,298.2 322.8,297.3 			"/>
			<polygon style="fill:#434459;" points="308,298.9 307.7,300.3 306.8,299.8 			"/>
			<polygon style="fill:#434459;" points="302.3,305.2 302.6,305.8 303.2,305.5 302.8,304.5 			"/>
			<polygon style="fill:#434459;" points="298,302 298,303.2 298.8,302.6 298.8,301.5 			"/>
			<path style="fill:#4C9500;" d="M377.3,271.9c0-2.1-1.8-3.8-4.1-3.8h-75.1c-2.3,0-4.1,1.7-4.1,3.8v23c1.5,0.5,4.6,0,10.6-3.7
				c0,0-3.1,4.4,4.3,0.5c0,0-3.1,6.4,10.1,0c0,0-0.5,4.2,5.5-0.5c0,0-2.9,5.5,6.3,0.6c0,0-0.9,2.6,3.2,0.5c0,0-0.5,4.5,9.2-0.1
				c0,0-0.8,2.6,3.2,0.2c0,0-1.2,4.4,9.3,0.1c0,0-2.6,4.2,7.8,0.1c0,0-0.5,2.3,4.9-0.2c0,0-0.8,4,6.1-1.1c0,0-0.2,3.5,2.7,3.6V271.9
				z"/>
			<path style="fill:#7BAB00;" d="M377.3,292.4v-21.1c0-2.2-1.8-4.1-4.1-4.1h-75.1c-2.3,0-4.1,1.8-4.1,4.1v21.1
				c2.1,0.1,5.5-0.7,10.9-3.5c0,0-0.9,4.8,5.1,0c0,0-2.6,6.9,9.3,0.4c0,0,0.5,3.9,6-0.4c0,0-1.2,4.9,7.4,0c0,0-1.5,3.6,3.1,0.5
				c0,0-3.4,5.8,7.8-0.1c0,0-0.9,4.2,4,0.5c0,0-1.8,6,8.4,0.1c0,0-1.2,4.8,7.7,0.3c0,0,0.2,3.5,4.9-0.3c0,0,0.5,3.4,6.4-1
				C374.9,288.9,375.6,291.6,377.3,292.4z"/>
			<path style="fill:#4C9500;" d="M311.9,281.6c-0.1,0-0.1,0-0.2-0.1l-1.9-3l-2.2,2.6c0,0.1-0.1,0.1-0.2,0.1c-0.1,0-0.1,0-0.2-0.1
				l-1.8-2.5l-2.5,2.9c-0.1,0.1-0.2,0.1-0.3,0c-0.1-0.1-0.1-0.2,0-0.3l2.7-3.1c0-0.1,0.1-0.1,0.2-0.1c0.1,0,0.1,0,0.2,0.1l1.8,2.5
				l2.2-2.6c0-0.1,0.1-0.1,0.2-0.1c0.1,0,0.1,0,0.2,0.1l2,3.3c0.1,0.1,0,0.2-0.1,0.3C312,281.6,312,281.6,311.9,281.6z"/>
			<path style="fill:#4C9500;" d="M325.6,277.2c-0.1,0-0.1,0-0.2-0.1l-1.9-3l-2.2,2.6c0,0.1-0.1,0.1-0.2,0.1c-0.1,0-0.1,0-0.2-0.1
				l-1.8-2.5l-2.5,2.9c-0.1,0.1-0.2,0.1-0.3,0c-0.1-0.1-0.1-0.2,0-0.3l2.7-3.1c0-0.1,0.1-0.1,0.2-0.1c0.1,0,0.1,0,0.2,0.1l1.8,2.5
				l2.2-2.6c0-0.1,0.1-0.1,0.2-0.1c0.1,0,0.1,0,0.2,0.1l2,3.3c0.1,0.1,0,0.2-0.1,0.3C325.6,277.2,325.6,277.2,325.6,277.2z"/>
			<path style="fill:#4C9500;" d="M357.4,282c-0.1,0-0.1,0-0.2-0.1l-1.9-3l-2.2,2.6c0,0.1-0.1,0.1-0.2,0.1c-0.1,0-0.1,0-0.2-0.1
				l-1.8-2.5l-2.5,2.9c-0.1,0.1-0.2,0.1-0.3,0c-0.1-0.1-0.1-0.2,0-0.3l2.7-3.1c0-0.1,0.1-0.1,0.2-0.1c0.1,0,0.1,0,0.2,0.1l1.8,2.5
				l2.2-2.6c0-0.1,0.1-0.1,0.2-0.1c0.1,0,0.1,0,0.2,0.1l2,3.3c0.1,0.1,0,0.2-0.1,0.3C357.5,282,357.5,282,357.4,282z"/>
		</g>
		<g>
			<g>
				<g>
					<path style="fill:#AFAFAF;" d="M308.3,269.3c-0.6,0-1.1-0.4-1.3-1c-0.2-0.7,0.2-1.4,0.9-1.6l54.6-13.8l-47-14
						c-0.6-0.2-1-0.7-0.9-1.4c0-0.6,0.5-1.1,1.1-1.2l47.8-6.5l-42.5-11.8c-0.6-0.2-1-0.8-0.9-1.4s0.6-1.1,1.2-1.2l52-1.9
						c0.7,0,1.3,0.5,1.4,1.3c0,0.7-0.5,1.3-1.3,1.4l-43.6,1.6l40.6,11.3c0.6,0.2,1,0.7,1,1.3c0,0.6-0.5,1.1-1.1,1.2l-48.1,6.5
						l45.8,13.6c0.6,0.2,0.9,0.7,0.9,1.3c0,0.6-0.4,1.1-1,1.2l-59.2,15C308.5,269.3,308.4,269.3,308.3,269.3z"/>
					<path d="M373.5,213.6c0.7,0,1.3,0.5,1.3,1.3c0,0.7-0.5,1.3-1.3,1.4l-43.6,1.6l40.6,11.3c0.6,0.2,1,0.7,1,1.3
						c0,0.6-0.5,1.1-1.1,1.2l-48.1,6.5l45.8,13.6c0.6,0.2,0.9,0.7,0.9,1.3c0,0.6-0.4,1.1-1,1.2l-59.2,15c-0.1,0-0.2,0-0.3,0
						c-0.6,0-1.1-0.4-1.3-1c-0.2-0.7,0.2-1.4,0.9-1.6l54.6-13.8l-47-14c-0.6-0.2-1-0.7-0.9-1.4c0-0.6,0.5-1.1,1.1-1.2l47.8-6.5
						l-42.5-11.8c-0.6-0.2-1-0.8-0.9-1.4s0.6-1.1,1.2-1.2L373.5,213.6C373.4,213.6,373.5,213.6,373.5,213.6 M373.5,210.6
						c0,0-0.1,0-0.1,0l0,0l0,0l-52,1.9c-2.2,0.1-3.9,1.7-4.2,3.8c-0.3,2.1,1.1,4.1,3.2,4.7l28.2,7.8l-33.1,4.5c-2,0.3-3.6,1.9-3.8,4
						c-0.2,2,1.1,3.9,3.1,4.5l36.4,10.8l-43.9,11.1c-1.1,0.3-2.1,1-2.7,2c-0.6,1-0.8,2.2-0.5,3.3c0.5,1.9,2.2,3.3,4.2,3.3
						c0.4,0,0.7,0,1.1-0.1l59.2-15c1.9-0.5,3.2-2.2,3.3-4.1c0-2-1.2-3.7-3.1-4.3l-32.2-9.6l34.1-4.6c2-0.3,3.6-2,3.8-4
						c0.1-2.1-1.2-3.9-3.2-4.5l-21.7-6l24-0.9c2.4-0.1,4.3-2.1,4.2-4.5C377.7,212.4,375.8,210.6,373.5,210.6L373.5,210.6z"/>
				</g>
			</g>
			<g>
				<path style="fill:#F13943;" d="M372,214.6l-51.2-11.3c-2.8-0.6-4.6-3.4-4-6.2v0c0.6-2.8,3.4-4.6,6.2-4l51.2,11.3
					c2.8,0.6,4.6,3.4,4,6.2l0,0C377.6,213.4,374.8,215.2,372,214.6z"/>
				<path style="fill:#1B0D00;" d="M374.3,216.3c-0.4,0-0.7,0-1.1-0.1l-54.2-12c-1.3-0.3-2.4-1.1-3.1-2.2c-0.7-1.1-1-2.5-0.7-3.8
					l0.7-3c0.3-1.3,1.1-2.4,2.2-3.1c1.1-0.7,2.5-1,3.8-0.7l54.2,12c1.3,0.3,2.4,1.1,3.1,2.2c0.7,1.1,1,2.5,0.7,3.8l-0.7,3
					c-0.3,1.3-1.1,2.4-2.2,3.1C376.2,216,375.2,216.3,374.3,216.3z M373.8,213.6c0.6,0.1,1.3,0,1.8-0.3c0.5-0.3,0.9-0.9,1-1.5l0.7-3
					c0.3-1.3-0.5-2.6-1.8-2.8l-54.2-12c-0.6-0.1-1.3,0-1.8,0.3c-0.5,0.3-0.9,0.9-1,1.5l-0.7,3c-0.1,0.6,0,1.3,0.3,1.8
					c0.3,0.5,0.9,0.9,1.5,1L373.8,213.6z"/>
			</g>
			<g>
				<path style="fill:#F13943;" d="M361.9,275.4h-52.5c-2.9,0-5.2-2.3-5.2-5.2l0,0c0-2.9,2.3-5.2,5.2-5.2h52.5
					c2.9,0,5.2,2.3,5.2,5.2l0,0C367.1,273,364.8,275.4,361.9,275.4z"/>
				<path style="fill:#1B0D00;" d="M363.4,276.7h-55.6c-2.7,0-5-2.2-5-5v-3.1c0-2.7,2.2-5,5-5h55.6c2.7,0,5,2.2,5,5v3.1
					C368.4,274.4,366.2,276.7,363.4,276.7z M307.9,266.2c-1.3,0-2.4,1.1-2.4,2.4v3.1c0,1.3,1.1,2.4,2.4,2.4h55.6
					c1.3,0,2.4-1.1,2.4-2.4v-3.1c0-1.3-1.1-2.4-2.4-2.4H307.9z"/>
			</g>
		</g>
		<g>
			<g>
				<rect x="76.6" y="237.3" style="fill:#B2761D;" width="13" height="36.1"/>
				<path style="fill:#714E20;" d="M90.2,274.1H75.9v-37.4h14.3V274.1z M77.2,272.8h11.7V238H77.2V272.8z"/>
			</g>
			<g>
				<polygon style="fill:#9D6100;" points="89.6,246.4 76.6,243.6 76.6,210.3 89.6,210.3 				"/>
				<path style="fill:#8E4B12;" d="M90.2,247.2l-14.3-3.1v-34.4h14.3V247.2z M77.2,243.1l11.7,2.6v-34.7H77.2V243.1z"/>
			</g>
			<path d="M90.9,274.8H75.3V236h15.6V274.8z M77.9,272.2h10.4v-33.5H77.9V272.2z"/>
			<g>
				<g>
					<polygon style="fill:#DBA016;" points="107.1,198.1 48.2,202.8 45.6,207.6 107.7,219.2 107.6,203.4 					"/>
					<path style="fill:#704720;" d="M105.9,199.5l0.4,4l0.1,14.2l-58.9-11L49,204L105.9,199.5 M107.1,198.1l-58.9,4.7l-2.6,4.8
						l62.1,11.6l-0.1-15.8L107.1,198.1L107.1,198.1z"/>
				</g>
				<g>
					<polygon style="fill:#DB8C1A;" points="123.6,215.5 107.2,198.7 107.6,203.4 107.7,219.2 126,222.1 					"/>
					<path style="fill:#704720;" d="M126,222.8C126,222.8,125.9,222.7,126,222.8l-18.4-2.9c-0.3,0-0.5-0.3-0.5-0.6l-0.1-15.7
						l-0.4-4.7c0-0.3,0.1-0.5,0.4-0.6c0.2-0.1,0.5-0.1,0.7,0.1l16.5,16.8c0.1,0.1,0.1,0.1,0.1,0.2l2.4,6.6c0.1,0.2,0,0.4-0.1,0.6
						C126.4,222.7,126.2,222.8,126,222.8z M108.4,218.7l16.7,2.7l-2-5.5l-15.1-15.4l0.3,2.9c0,0,0,0,0,0.1L108.4,218.7z"/>
				</g>
			</g>
			<g>
				<polygon style="fill:#B2761D;" points="107.6,240.8 50.1,237.3 46.1,207.6 107.6,203.4 126,222.1 				"/>
				<path style="fill:#704720;" d="M107.8,241.4l-0.3,0l-58-3.5L45.4,207l62.5-4.2l19.1,19.3L107.8,241.4z M50.7,236.7l56.7,3.4
					l17.8-18l-17.8-18l-60.5,4.1L50.7,236.7z"/>
			</g>
			<g>
				<polygon style="fill:#DBA016;" points="86,211.4 86,213.3 91.8,220.3 63.2,225 63.2,226.9 91.8,226.9 86.3,231.7 86,233.9 
					93.1,233.9 102.1,223.6 102.1,221.7 				"/>
				<g>
					<polygon style="fill:#DC2923;" points="92.7,210.3 86,211.4 91.8,218.4 62.7,218.9 63.2,225 91.8,225 86,232.1 93.1,232.1 
						102.1,221.7 					"/>
					<path style="fill:#863816;" d="M92.2,211.7l8.3,10l-7.9,9.1h-3.8l4.1-5c0.3-0.4,0.4-0.9,0.2-1.4c-0.2-0.4-0.7-0.7-1.1-0.7H64.4
						l-0.3-3.6l27.7-0.5c0.5,0,0.9-0.3,1.1-0.7c0.2-0.4,0.1-1-0.2-1.3l-4.4-5.3L92.2,211.7 M92.7,210.3l-6.7,1.1l5.8,7l-29.1,0.5
						l0.4,6.1h28.6l-5.8,7.1h7.1l9-10.4L92.7,210.3L92.7,210.3z"/>
				</g>
			</g>
			<g>
				<circle style="fill:#936B4E;" cx="80.4" cy="236" r="1.4"/>
				<path style="fill:#714E20;" d="M80.4,238c-1.1,0-2-0.9-2-2c0-1.1,0.9-2,2-2c1.1,0,2,0.9,2,2C82.4,237.1,81.5,238,80.4,238z
					 M80.4,235.3c-0.4,0-0.7,0.3-0.7,0.7c0,0.4,0.3,0.7,0.7,0.7c0.4,0,0.7-0.3,0.7-0.7C81.1,235.6,80.8,235.3,80.4,235.3z"/>
			</g>
			<g>
				<circle style="fill:#936B4E;" cx="79" cy="208.7" r="1.4"/>
				<path style="fill:#714E20;" d="M79,210.7c-1.1,0-2-0.9-2-2c0-1.1,0.9-2,2-2s2,0.9,2,2C81,209.8,80.1,210.7,79,210.7z M79,208
					c-0.4,0-0.7,0.3-0.7,0.7c0,0.4,0.3,0.7,0.7,0.7s0.7-0.3,0.7-0.7C79.8,208.3,79.4,208,79,208z"/>
			</g>
			<g>
				<circle style="fill:#936B4E;" cx="53.5" cy="233.7" r="1.3"/>
				<path style="fill:#714E20;" d="M53.5,235.6c-1,0-1.9-0.9-1.9-1.9c0-1,0.9-1.9,1.9-1.9s1.9,0.9,1.9,1.9
					C55.4,234.8,54.6,235.6,53.5,235.6z M53.5,233.1c-0.3,0-0.6,0.3-0.6,0.6s0.3,0.6,0.6,0.6s0.6-0.3,0.6-0.6S53.9,233.1,53.5,233.1
					z"/>
			</g>
			<g>
				<circle style="fill:#936B4E;" cx="51" cy="211.6" r="1.3"/>
				<path style="fill:#714E20;" d="M51,213.5c-1.1,0-1.9-0.9-1.9-1.9c0-1.1,0.9-1.9,1.9-1.9c1.1,0,1.9,0.9,1.9,1.9
					C52.9,212.7,52,213.5,51,213.5z M51,211c-0.4,0-0.6,0.3-0.6,0.6c0,0.4,0.3,0.6,0.6,0.6s0.6-0.3,0.6-0.6
					C51.6,211.3,51.3,211,51,211z"/>
			</g>
			<g>
				<circle style="fill:#936B4E;" cx="107.1" cy="207.4" r="1.3"/>
				<path style="fill:#714E20;" d="M107.1,209.3c-1.1,0-1.9-0.9-1.9-1.9c0-1.1,0.9-1.9,1.9-1.9c1.1,0,1.9,0.9,1.9,1.9
					C109,208.4,108.2,209.3,107.1,209.3z M107.1,206.7c-0.4,0-0.6,0.3-0.6,0.6s0.3,0.6,0.6,0.6s0.6-0.3,0.6-0.6
					S107.5,206.7,107.1,206.7z"/>
			</g>
			<g>
				<circle style="fill:#936B4E;" cx="117.8" cy="221.2" r="1.3"/>
				<path style="fill:#714E20;" d="M117.8,223.1c-1.1,0-1.9-0.9-1.9-1.9c0-1.1,0.9-1.9,1.9-1.9c1.1,0,1.9,0.9,1.9,1.9
					C119.7,222.2,118.9,223.1,117.8,223.1z M117.8,220.5c-0.4,0-0.6,0.3-0.6,0.6s0.3,0.6,0.6,0.6c0.4,0,0.6-0.3,0.6-0.6
					S118.2,220.5,117.8,220.5z"/>
			</g>
			<g>
				<circle style="fill:#936B4E;" cx="104.9" cy="236.6" r="1.3"/>
				<path style="fill:#714E20;" d="M104.9,238.5c-1.1,0-1.9-0.9-1.9-1.9c0-1.1,0.9-1.9,1.9-1.9c1.1,0,1.9,0.9,1.9,1.9
					C106.8,237.7,106,238.5,104.9,238.5z M104.9,236c-0.4,0-0.6,0.3-0.6,0.6s0.3,0.6,0.6,0.6s0.6-0.3,0.6-0.6S105.3,236,104.9,236z"
					/>
			</g>
			<path style="fill:#B46B00;" d="M57.3,216c0,0,25.5,0,25.3-0.8c-0.2-0.8-12-2.1-25.3-1.1C44,215.1,57.3,216,57.3,216z"/>
		</g>
		<path d="M107.6,242.1C107.6,242.1,107.5,242.1,107.6,242.1L50,238.6c-0.6,0-1.1-0.5-1.2-1.1l-4-29.7c0-0.2,0-0.5,0.1-0.7l2.1-4.8
			c0.2-0.4,0.6-0.8,1.1-0.8l59-4c0.4,0,0.8,0.1,1,0.4l16.5,16.8c0.1,0.1,0.2,0.3,0.3,0.5l2.4,6.6c0.2,0.5,0.1,1-0.3,1.4l-18.4,18.7
			C108.3,241.9,107.9,242.1,107.6,242.1z M51.3,236.1l55.8,3.3l17.4-17.7l-2-5.6l-15.8-16.1L49.1,204l-1.6,3.8L51.3,236.1z"/>
	</g>
	<g style="clip-path:url(#SVGID_00000125578180698520867350000001135767005582143887_);">
		<path style="fill:#A2A2A2;" d="M608,25.1c-2.2,0-3.9,1.8-3.9,3.9v166.2c0,1.9,1.5,3.4,3.4,3.4h1.1c1.9,0,3.4-1.5,3.4-3.4V29
			C611.9,26.8,610.1,25.1,608,25.1z"/>
		<path style="fill:#D8D8D8;" d="M607.4,198.6h1.1c1.9,0,3.4-1.5,3.4-3.4V29c0-2.2-1.8-3.9-3.9-3.9L607.4,198.6z"/>
		<path d="M608.5,199.4h-1.1c-2.3,0-4.2-1.9-4.2-4.2V29c0-2.6,2.1-4.7,4.7-4.7c2.6,0,4.7,2.1,4.7,4.7v166.2
			C612.7,197.5,610.8,199.4,608.5,199.4z M608,25.9c-1.7,0-3.1,1.4-3.1,3.1v166.2c0,1.4,1.2,2.6,2.6,2.6h1.1c1.4,0,2.6-1.2,2.6-2.6
			V29C611.1,27.3,609.7,25.9,608,25.9z"/>
		<g>
			<path style="fill:#FFE000;" d="M609.7,32.4v37.8c0,0,17.4-7.4,24.7-20.7c7.2-13.3,23.5-19.8,23.5-19.8S637.8,17.3,609.7,32.4z"/>
			<path style="fill:#FFEF8B;" d="M609.7,39.2c0,0,16.9-3.4,31.2,1.6c0,0,7.8-7.6,16.9-11.2c0,0-10.9-7-28.2-4.1
				c0,0-10.8,1.5-19.9,6.9V39.2z"/>
			<path d="M609.7,70.9c-0.2,0-0.3,0-0.4-0.1c-0.2-0.1-0.4-0.4-0.4-0.7V32.4c0-0.3,0.2-0.6,0.4-0.7c14.7-7.9,27.2-8.2,35.1-7.1
				c8.6,1.2,13.6,4.3,13.8,4.4c0.3,0.2,0.4,0.4,0.4,0.7s-0.2,0.6-0.5,0.7c-0.2,0.1-16.1,6.5-23.1,19.4c-7.3,13.4-24.3,20.8-25,21.1
				C609.9,70.9,609.8,70.9,609.7,70.9z M610.5,32.9v36c3.9-1.9,17.2-8.9,23.2-19.9c6.1-11.1,18.1-17.5,22.3-19.5
				c-2-1-6.2-2.6-11.9-3.4C636.5,25.1,624.6,25.4,610.5,32.9z"/>
		</g>
	</g>
</g>
</svg>
