<?xml version="1.0" encoding="utf-8"?>
<!-- Generator: Adobe Illustrator 24.1.1, SVG Export Plug-In . SVG Version: 6.00 Build 0)  -->
<svg version="1.1" id="Layer_1" xmlns="http://www.w3.org/2000/svg" xmlns:xlink="http://www.w3.org/1999/xlink" x="0px" y="0px"
	 viewBox="0 0 960 540" style="enable-background:new 0 0 960 540;" xml:space="preserve">
<path style="fill:#666666;" d="M0,0v540h960V0H0z M669.51,165.82c5.15,1.1,10.43,1.71,15.89,1.66c21.04-0.21,41.57-5.33,61.99-9.96
	c13.62-3.09,51.95-10.12,50.83-30.52c-1.93-35.07,18.95-41.92,30.83-38.96c11.88,2.96,25.71,144.5,5.75,152.16
	c-7.49,7.84-26.23,26.16-46.51,26.45c-12.77,0.18-27.24-3.47-42.37-13.91c-30.97-21.37-77.96-48.07-102.38-55.12
	C646.36,189.61,658.17,176.82,669.51,165.82z M744.21,270.27c-19.27,6.01-51.03,14.23-73.56,19.48
	c-22.2-25.12-52.03-51.48-64.16-64.76c-3.59-3.95-5.74-6.22-5.74-6.22l41.12-10.33c0.43-0.14,0.94-0.21,1.53-0.22
	C657.29,208.03,710.6,250.81,744.21,270.27z M587.83,60.42c1.12-0.49,2.27-0.73,3.43-0.74c19.02-0.27,42.93,59.12,49.24,71.06
	c3.27,6.16,3.31,8.63,1.29,8.66c-2.13,0.03-6.57-2.66-11.94-6.58c-3.52-2.57-8.49-3.73-14.23-3.65
	c-11.27,0.16-25.53,5.1-37.77,13.52c-12.29,8.47-17.96,9.93-20.38,9.97c-1.21,0.02-1.61-0.33-1.61-0.33S535,142.08,524.2,128.61
	c-7-8.76-4.75-20.95-7.03-25.49C511.34,91.64,587.83,60.42,587.83,60.42z M274.35,199.54c11.03-5.41,27.16-8.81,27.16-8.81
	s17.81,60.63,35.5,69.29c17.72,8.66,34.06,10.26,34.06,10.26s6.7,5.48,12.37,5.4c3.36-0.05,6.36-2.05,7.39-8.29
	c2.8-16.79-6.08-15.15-0.25-16.99c0.5-0.16,1.04-0.23,1.62-0.24c6.21-0.09,16.87,7.73,24.88,10.02c0.34,0.1,0.71,0.14,1.08,0.14
	c9.1-0.13,26.32-29.9,26.32-29.9s8.49-3.39,12.45-3.45c0.46-0.01,0.86,0.03,1.18,0.13c3.01,0.88,10.64,9.83,10.64,9.83
	s23.43-0.29,24.25-11.06c0.85-10.78-1.82-14.31-1.82-14.31l9.08-2.08l6.86,8.4l21.15,2.04l7.17-22.17l9.5-6.24l23.3,13.02
	L586.35,186l-6.72-12.5c-3.81-7.1-1.11-15.44,6.18-18.98c8.55-4.15,20.18-8.64,30.79-8.79c5.14-0.07,10.03,0.87,14.21,3.36
	c7.08,4.21,14.27,8.13,21.7,11.27c-13.02,15.63-19.16,35.48-19.16,35.48c-1.53,0.02-2.78,0.27-3.73,0.75
	c-19.25,9.91-39.84,13.76-59.3,22.55c-21.7,9.8-43.23,19.92-65.09,29.4c-44.55,19.31-95.3,38.7-125.18,39.12
	c-0.92,0.01-1.81,0.01-2.69-0.02c-58.79-1.55-60.26-3.05-70.25-18.16C297.13,254.39,263.3,204.95,274.35,199.54z M238.71,208.5
	c0.82-0.09,1.63-0.14,2.44-0.15c9.52-0.14,18.53,5.18,22.65,13.47c8.98,18.04,27.35,43.12,42.4,62.63
	c9.58,12.45,30.08,15.44,48.89,15.17c20.57-0.29,39.11-4.49,39.11-4.49s8.35,20.56,0.67,39.66c-1.69,4.2-10.61,6.05-23.9,6.24
	c-47.1,0.67-149.05-19.5-178.18-29.4c-37.31-12.7-56.97-30.07-63.86-62.49C123.71,224.49,201.21,212.72,238.71,208.5z
	 M444.42,404.46c-16.76,4.13-36.78,6.18-58.67,6.49c-111.25,1.59-270.37-41.72-291.18-84.94c-7.93-16.49,1.51-52.24,12.96-64.81
	c1.2-1.34,2.25-2.45,3.08-3.32C168.5,362.57,364.3,357.07,395.91,361.5c1.06,0.15,2.06,0.21,3.03,0.2
	c27.96-0.4,18.9-66.04,18.9-66.04l37.47-15.31c0,0,14.51,21.01,38.93,55.67c13.72,19.43,24.91,43.39,24.91,43.39
	S493.42,392.38,444.42,404.46z M686.53,336.48c0,0-122.42,36.35-146.53,36.69c-2.65,0.04-4.12-0.36-4.1-1.29
	c0.21-9.35-62.64-98.03-62.64-98.03l113.61-51.96c0,0,36.67,39.91,73.08,68.24c0.78,0.62,1.5,1.2,2.23,1.8
	c-20.06,3.87-39.19,6.43-55.06,6.66c-14.2,0.2-25.78-1.46-33.06-5.74c-4.65-2.74-7.21-6.44-7.82-11.31
	c-1.83-14.87,6.28-27.9,13.38-36.23c2.11-2.45,2.07-5.82-0.1-8.42c-1.58-1.9-3.92-2.93-6.3-2.9c-0.88,0.01-1.77,0.17-2.63,0.49
	c-13.33,4.83-31.82,12.51-44.29,21.7l-0.42,0.32c-2.34,1.99-22.93,20.03-20.26,40.3c1.37,10.38,8.47,19.36,21.05,26.68
	c1.02,0.6,2.02,1.17,3.07,1.69c17.55,9.27,38.63,12.76,61.08,12.44c30.89-0.44,64.36-8.09,94.69-17.79
	C689.8,330.43,686.53,336.48,686.53,336.48z M722.58,343.65c-9.42,0.13-15.17-2.57-14.18-9.83c0.67-4.75-1.15-10.56-4.65-17
	c32.62-11.84,64.87-24.85,77.37-31.21c2.35,0.4,4.68,0.56,6.96,0.52c22.65-0.32,50.47-30.28,50.47-30.28l19.4,51.33
	C857.95,307.19,753.94,343.21,722.58,343.65z"/>
<path style="fill:#FFFFFF;" d="M523.8,209.59c-2.69,4.56-6.01,7.19-9.08,7.24c-3.07,0.04-5.9-2.51-7.59-8.32
	c-0.65-2.2-2.43-6.59-4.85-12.29c-0.15-0.37-0.31-0.75-0.48-1.14c-1.55-3.63-3.33-7.75-5.23-12.15c-0.44-1.01-0.88-2.03-1.32-3.06
	c-1.92-4.44-3.92-9.11-5.9-13.82c-0.37-0.88-0.74-1.76-1.1-2.64c-0.13-0.29-0.25-0.59-0.37-0.88c-0.34-0.82-0.68-1.64-1.02-2.46
	c-0.63-1.53-1.25-3.05-1.87-4.56c-0.28-0.69-0.55-1.38-0.83-2.07c-0.37-0.92-0.73-1.82-1.09-2.72c-0.77-1.95-1.51-3.87-2.21-5.74
	c-0.48-1.25-0.93-2.47-1.37-3.66c-0.18-0.49-0.36-0.98-0.52-1.46c-0.1-0.27-0.2-0.54-0.29-0.81c-0.13-0.35-0.25-0.7-0.37-1.04
	c-0.05-0.16-0.11-0.31-0.16-0.46c-0.17-0.49-0.34-0.98-0.5-1.46c-0.33-0.96-0.64-1.9-0.93-2.81c-0.28-0.9-0.55-1.78-0.8-2.62
	c-0.38-1.28-0.71-2.49-0.99-3.62c-0.27-1.12-0.5-2.17-0.66-3.11c-0.06-0.32-0.11-0.63-0.15-0.92c-0.04-0.3-0.08-0.58-0.1-0.86
	c-0.02-0.2-0.04-0.4-0.05-0.59c-0.03-0.44-0.04-0.85-0.03-1.22c0.02-1.03,0.22-1.79,0.6-2.26c4.42-5.41,12.46-12.84,19.03-12.93
	c1.51-0.03,2.93,0.34,4.22,1.2c0.22,0.15,0.43,0.31,0.64,0.48C498.43,106.83,529.14,200.48,523.8,209.59z"/>
<path style="fill:#FFFFFF;" d="M566.58,194.29c-0.28,0.18-0.65,0.28-1.1,0.28c-6.82,0.1-32.01-19.81-39.26-25.64
	c-1.26-1.03-2.05-2.43-2.22-3.92l-1.67-14.5c-0.4-3.54,2.55-6.05,5.86-6.1c1.4-0.02,2.87,0.41,4.18,1.39
	c14.55,10.95,38.23,28.82,43.33,32.95C583.14,184.77,571.8,190.72,566.58,194.29z"/>
<path style="fill:#FFFFFF;" d="M476.9,159.48c0,0-12.98-12.61-23.19-14.63c-0.46-0.09-0.89-0.19-1.28-0.29
	c-0.16-0.04-0.32-0.08-0.47-0.13c-0.14-0.04-0.27-0.08-0.4-0.12c-0.39-0.12-0.73-0.25-1.03-0.39c-0.11-0.04-0.22-0.09-0.32-0.15
	c-0.1-0.05-0.2-0.1-0.29-0.16c-0.09-0.05-0.17-0.1-0.25-0.16c-0.08-0.05-0.16-0.11-0.23-0.17c-0.29-0.23-0.49-0.47-0.62-0.73
	c-0.04-0.07-0.07-0.13-0.09-0.2c-0.93-2.47,3.94-6.29,8.35-11.96c2.29-2.92,4.34-3.87,6.02-3.89c1.89-0.03,3.32,1.12,4.1,1.96
	c0.47,0.49,0.71,0.87,0.71,0.87L476.9,159.48z"/>
<path style="fill:#FFFFFF;" d="M478.87,222.37c-0.98,0.3-2.56,0.44-4.42,0.46c-6.13,0.09-15.21-0.99-15.21-0.99
	s-25.34-57.28-36.26-66.79c-0.23-0.2-0.44-0.39-0.63-0.58c-0.16-0.16-0.31-0.31-0.45-0.47c-0.05-0.05-0.11-0.11-0.15-0.17
	c-0.05-0.05-0.1-0.1-0.14-0.16c-0.18-0.22-0.35-0.43-0.48-0.64c-0.08-0.11-0.14-0.21-0.2-0.31c-0.06-0.1-0.11-0.2-0.16-0.3
	c-2.36-4.78,7.25-6.44,14.4-6.54h1.05c0.1,0,0.2,0,0.29,0.01c0.2,0,0.4,0,0.59,0.01c0.28,0.01,0.56,0.01,0.83,0.03
	c0.34,0.02,0.66,0.04,0.96,0.06c0.08,0.01,0.15,0.01,0.22,0.02c0.23,0.01,0.45,0.03,0.65,0.06c0.05,0.01,0.11,0.01,0.16,0.02
	c0.22,0.02,0.42,0.05,0.61,0.08c0.04,0.01,0.07,0.01,0.1,0.02c0.11,0.01,0.22,0.03,0.32,0.05c0.08,0.01,0.16,0.03,0.23,0.05
	c0.1,0.02,0.19,0.04,0.28,0.06c0.09,0.02,0.17,0.05,0.24,0.07c0.06,0.02,0.12,0.04,0.17,0.06c0.08,0.03,0.15,0.06,0.21,0.09
	c0,0,28.04,5.9,31.92,23.4C477.87,187.45,483.07,221.09,478.87,222.37z"/>
<path style="fill:#FFFFFF;" d="M425,238.53c0.03,1.17,0,2.32-0.1,3.44c-0.04,0.42-0.08,0.84-0.14,1.26
	c-0.06,0.42-0.12,0.84-0.2,1.25c-0.05,0.26-0.1,0.51-0.16,0.77c-0.03,0.16-0.07,0.32-0.11,0.48c-0.05,0.23-0.11,0.46-0.18,0.69
	c-0.08,0.32-0.18,0.64-0.28,0.95c0,0-4.57,2.14-9.65,2.21c-3.83,0.06-7.95-1.07-10.6-5.19c-0.1-0.15-0.2-0.31-0.31-0.49
	c-0.1-0.16-0.21-0.33-0.32-0.51c-0.94-1.52-2.3-3.81-3.95-6.65c-0.2-0.35-0.41-0.71-0.62-1.07c-0.46-0.8-0.95-1.64-1.45-2.51
	c-0.17-0.3-0.34-0.6-0.52-0.9c-0.17-0.3-0.34-0.61-0.52-0.92c-1.25-2.19-2.6-4.56-4.02-7.05c-0.2-0.35-0.4-0.71-0.61-1.07
	c-0.44-0.77-0.88-1.55-1.33-2.35c-0.9-1.58-1.81-3.2-2.74-4.84l-0.75-1.32c-1.39-2.46-2.8-4.96-4.2-7.47
	c-0.24-0.42-0.47-0.83-0.7-1.24c-0.24-0.42-0.47-0.85-0.71-1.27s-0.47-0.83-0.71-1.25c-1.72-3.08-3.43-6.12-5.08-9.07
	c-0.21-0.38-0.42-0.76-0.63-1.13c-0.38-0.68-0.76-1.37-1.14-2.04c-0.3-0.52-0.59-1.03-0.87-1.54c-0.05-0.1-0.1-0.19-0.15-0.28
	c-0.28-0.51-0.56-1.01-0.83-1.5c-0.24-0.41-0.46-0.82-0.69-1.22c-0.18-0.32-0.36-0.64-0.53-0.96c-0.14-0.24-0.27-0.47-0.4-0.71
	c-0.22-0.4-0.44-0.79-0.66-1.18c-0.24-0.43-0.48-0.85-0.71-1.27c-0.27-0.48-0.53-0.96-0.79-1.42c-0.12-0.22-0.24-0.43-0.36-0.65
	c-0.35-0.64-0.7-1.26-1.04-1.86c-0.13-0.24-0.27-0.49-0.4-0.73c-0.97-1.74-1.84-3.3-2.59-4.64c-0.15-0.27-0.3-0.53-0.44-0.79
	c-0.47-0.85-0.88-1.59-1.23-2.21c-0.08-0.15-0.16-0.29-0.24-0.43c-0.02-0.04-0.04-0.07-0.06-0.11c-0.1-0.18-0.19-0.35-0.27-0.5
	c-0.38-0.68-0.6-1.08-0.64-1.15c-0.01-0.01-0.01-0.01-0.01-0.01s0.41-6.95,3.69-6.99c0.12-0.01,0.25,0,0.38,0.02
	c1.42,0.2,4.13,0.23,6.91,0.19c4.35-0.06,8.87-0.29,8.87-0.29s2.5,2.64,6.32,7.08c1.23,1.44,2.6,3.06,4.07,4.85
	c0.31,0.36,0.61,0.74,0.92,1.12c1.66,2.04,3.43,4.27,5.26,6.64c0.73,0.95,1.47,1.92,2.21,2.91c0.38,0.5,0.75,1.01,1.13,1.52
	c0.27,0.36,0.54,0.72,0.8,1.09c0.27,0.36,0.54,0.73,0.8,1.1c3.21,4.44,6.44,9.22,9.43,14.14c0.25,0.41,0.5,0.82,0.74,1.23
	c0.25,0.42,0.5,0.83,0.74,1.24c0.24,0.42,0.48,0.84,0.71,1.25c0.24,0.42,0.48,0.83,0.71,1.25c0.24,0.41,0.47,0.83,0.7,1.25
	c0.46,0.84,0.91,1.67,1.34,2.51c0.88,1.68,1.71,3.36,2.48,5.04c0.2,0.41,0.38,0.82,0.56,1.22c0.19,0.41,0.36,0.82,0.54,1.23
	c0.79,1.84,1.52,3.67,2.15,5.47c0.05,0.14,0.11,0.28,0.15,0.42c0.05,0.14,0.1,0.28,0.14,0.41c0.33,0.97,0.64,1.94,0.91,2.89
	c0.1,0.32,0.19,0.64,0.27,0.95c0.1,0.36,0.2,0.71,0.29,1.06c0.09,0.37,0.18,0.74,0.26,1.11c0.11,0.43,0.2,0.86,0.28,1.29
	c0.08,0.37,0.15,0.73,0.22,1.1c0.01,0.06,0.02,0.12,0.04,0.18c0.12,0.71,0.23,1.42,0.32,2.13c0.06,0.42,0.1,0.85,0.14,1.27
	C424.94,236.83,424.99,237.69,425,238.53z"/>
<path style="fill:#FFFFFF;" d="M447.33,215.54l-11.43,15.89l-37.71-59.28c-0.29-0.46-0.5-0.94-0.64-1.43
	c-0.04-0.13-0.07-0.26-0.09-0.38c-0.04-0.17-0.07-0.34-0.08-0.51c-0.01-0.02-0.01-0.05-0.01-0.08c-0.02-0.15-0.03-0.3-0.03-0.45
	c0-0.1,0.01-0.21,0.01-0.31c0.07-2.05,1.26-4.04,3.29-5.05l8.8-4.33c0.59-0.29,1.21-0.47,1.84-0.55c0.01,0,0.01,0,0.02,0
	c0.21-0.03,0.42-0.05,0.63-0.05c1.99-0.03,3.89,0.98,4.92,2.77L447.33,215.54z"/>
<path style="fill:#FFFFFF;" d="M385.28,262.11c-1.33,2.29-4.35,3.06-7.7,3.11c-6.08,0.09-13.23-2.23-13.23-2.23l-34.27-83.52
	c0,0-0.02-0.05-0.04-0.14c-0.01-0.03-0.02-0.07-0.04-0.12c0-0.02-0.01-0.03-0.01-0.05c-0.02-0.07-0.04-0.15-0.06-0.23
	c-0.09-0.35-0.19-0.83-0.26-1.39c-0.33-2.5-0.02-6.55,5.35-6.63c0.03-0.01,0.06-0.01,0.1-0.01h0.12c2.67-0.04,4.93-0.86,6.89-1.71
	c1.96-0.83,3.6-1.66,5.04-1.68c1.28-0.02,2.4,0.61,3.45,2.44c0.1,0.18,0.2,0.35,0.29,0.51c0.3,0.54,0.57,1.02,0.82,1.46
	c0.08,0.13,0.14,0.25,0.21,0.37c0.06,0.12,0.13,0.24,0.2,0.35c0.01,0.03,0.03,0.06,0.04,0.08c0.07,0.12,0.13,0.24,0.2,0.36
	c0.17,0.29,0.31,0.54,0.44,0.77c0.43,0.78,0.71,1.27,0.88,1.58c0.04,0.07,0.07,0.13,0.1,0.18c0.18,0.32,0.18,0.32,0.18,0.32
	S389.06,255.68,385.28,262.11z"/>
<path style="fill:#FFFFFF;" d="M860.54,321.83c0,0-104.9,39.37-141.09,39.88c-2.45,0.04-4.71-0.1-6.75-0.44
	c-2.48-0.41-5.58-0.57-9.18-0.52c-43,0.61-158.79,31.6-170.97,34.37c-22.25,5.07-71.19,29.74-155.51,30.95
	c-40.04,0.57-88.05-4.15-144.97-18.77c-98.03-25.19-82.44-17.99-147.05-64.45c0,0,7.3,55.71,31.15,72.29
	c23.28,16.18,159.2,59.77,255.84,58.39c2.36-0.03,4.69-0.09,7-0.18c93.39-3.59,223.64-47.08,276.67-47.84
	c2.71-0.04,5.21,0.03,7.5,0.23c21.48,1.83,55.04,6.48,86.62,6.03c37.72-0.54,114.51-5.48,122.62-34.06
	C887.38,345.2,860.54,321.83,860.54,321.83"/>
<g>
	<g style="enable-background:new    ;">
		<g>
			<path style="fill:#FFFFFF;" d="M573.55,244.61c-12.37,4.67-28.04,11.48-38.72,19.33c-0.82,0.67-19.96,17.06-17.74,33.87
				c1.02,7.8,6.7,14.75,16.87,20.66c15.51,9.02,35.34,13.35,59.31,13.01c22.89-0.33,49.54-4.91,79.84-13.75
				c33.72-9.86,66.24-23.09,97.25-38.3c-1.97-0.97-4.14-2.11-6.5-3.4c-14.36,4.57-91.03,24.13-91.03,24.13
				c-21.47,4.34-43.1,7.47-61.5,7.73c-16.05,0.23-29.64-1.72-38.57-6.96c-7.03-4.12-11.04-9.95-11.97-17.36
				C558.82,267.74,566.16,254.04,573.55,244.61"/>
		</g>
	</g>
</g>
<path style="fill:#E3FF28;" d="M425,238.53c0.03,1.17,0,2.31-0.1,3.44C425,240.85,425.03,239.7,425,238.53z M425,238.53
	c-0.01-0.84-0.06-1.7-0.16-2.57C424.92,236.83,424.98,237.68,425,238.53z"/>
<path style="fill:#CBCBCB;" d="M642.89,138.89l-0.01,0.01c-0.03,0.06-0.08,0.12-0.14,0.17c-0.02,0.02-0.05,0.04-0.07,0.06
	c-0.05,0.05-0.12,0.09-0.19,0.11c-0.03,0.02-0.05,0.04-0.08,0.04c-0.06,0.03-0.13,0.06-0.21,0.06c-0.13,0.04-0.27,0.06-0.42,0.06
	c-2.13,0.03-6.56-2.66-11.94-6.58c-3.52-2.57-8.49-3.73-14.23-3.65c-11.27,0.16-25.53,5.1-37.77,13.52
	c-12.29,8.47-17.96,9.94-20.38,9.97c-1.22,0.02-1.61-0.33-1.61-0.33S535,142.09,524.2,128.62c-7-8.77-4.76-20.96-7.04-25.49
	c-0.22-0.42-0.32-0.87-0.32-1.34c0-0.14,0.01-0.29,0.03-0.43v-0.04c0.02-0.12,0.04-0.25,0.08-0.37c0-0.02,0-0.05,0.01-0.07
	l-19.17,5.47c0.22,0.15,0.43,0.31,0.64,0.48c0,0,30.71,93.65,25.37,102.76c-2.69,4.56-6.01,7.19-9.08,7.24
	c-3.07,0.04-5.9-2.51-7.59-8.32c-0.65-2.2-2.43-6.59-4.85-12.29c-0.16-0.38-0.32-0.76-0.48-1.14c-1.55-3.63-3.33-7.75-5.23-12.15
	c-0.44-1.01-0.88-2.03-1.32-3.06c-1.92-4.44-3.92-9.11-5.9-13.82c-0.37-0.88-0.74-1.76-1.1-2.64c-0.13-0.29-0.25-0.59-0.37-0.88
	c-0.35-0.82-0.69-1.65-1.02-2.46c-0.63-1.53-1.25-3.05-1.87-4.56c-0.28-0.69-0.56-1.38-0.83-2.07c-0.37-0.92-0.73-1.82-1.09-2.72
	c-0.77-1.95-1.51-3.87-2.21-5.74c-0.48-1.25-0.93-2.47-1.37-3.66c-0.18-0.49-0.36-0.98-0.52-1.46c-0.1-0.27-0.2-0.54-0.29-0.81
	c-0.13-0.35-0.25-0.7-0.37-1.04c-0.05-0.16-0.11-0.31-0.16-0.46c-0.17-0.5-0.34-0.98-0.5-1.46c-0.33-0.96-0.64-1.9-0.93-2.81
	c-0.28-0.9-0.55-1.78-0.8-2.62c-0.38-1.28-0.71-2.49-0.99-3.62c-0.27-1.12-0.5-2.17-0.66-3.11c-0.06-0.32-0.11-0.62-0.15-0.92
	c-0.04-0.3-0.08-0.58-0.1-0.86c-0.03-0.2-0.05-0.4-0.05-0.59c-0.03-0.44-0.04-0.85-0.03-1.22c-2.6,2.42-4.97,5.14-6.74,8.12
	c0.47,0.49,0.71,0.87,0.71,0.87l8.99,30.15c0,0-12.98-12.61-23.19-14.63c-0.46-0.09-0.89-0.19-1.28-0.29
	c-0.16-0.04-0.32-0.08-0.47-0.13c-0.14-0.04-0.27-0.08-0.4-0.12c-0.39-0.12-0.73-0.25-1.03-0.39c-0.11-0.04-0.22-0.09-0.32-0.15
	c-0.1-0.05-0.2-0.1-0.29-0.16c-0.09-0.05-0.17-0.1-0.25-0.16c-0.08-0.05-0.16-0.11-0.23-0.17c-0.29-0.23-0.49-0.47-0.62-0.73
	c-0.04-0.07-0.07-0.13-0.09-0.2c-3.81,1.81-7.91,3.2-11.94,3.53c0,0-0.21,0-0.57,0c0.1,0,0.2,0,0.29,0.01c0.2,0,0.4,0,0.59,0.01
	c0.28,0.01,0.56,0.01,0.83,0.03c0.34,0.02,0.66,0.04,0.96,0.06c0.08,0.01,0.15,0.01,0.22,0.02c0.23,0.01,0.45,0.03,0.65,0.06
	c0.05,0.01,0.11,0.01,0.16,0.02c0.22,0.02,0.42,0.05,0.61,0.08c0.04,0.01,0.07,0.01,0.1,0.02c0.11,0.01,0.22,0.03,0.32,0.05
	c0.08,0.01,0.16,0.03,0.23,0.05c0.1,0.02,0.2,0.04,0.28,0.06c0.09,0.02,0.17,0.05,0.24,0.07c0.06,0.02,0.12,0.04,0.17,0.06
	c0.08,0.03,0.15,0.06,0.21,0.09c0,0,28.04,5.9,31.92,23.4c3.87,17.48,9.07,51.12,4.87,52.4c-0.98,0.3-2.56,0.44-4.42,0.46
	c-6.13,0.09-15.21-0.99-15.21-0.99s-25.34-57.28-36.26-66.79c-0.23-0.2-0.44-0.39-0.63-0.58c-0.16-0.16-0.32-0.32-0.45-0.47
	c-0.06-0.06-0.11-0.12-0.15-0.17c-0.05-0.05-0.1-0.1-0.14-0.16c-0.18-0.22-0.35-0.43-0.48-0.64c-0.08-0.11-0.14-0.21-0.2-0.31
	c-0.06-0.1-0.11-0.2-0.16-0.3c-0.36,0.27-5.16,3.92-8.87,6.2l-0.62,0.44c0.01,0,0.01,0,0.02,0c0.21-0.03,0.42-0.04,0.63-0.05
	c1.99-0.03,3.89,0.98,4.92,2.77l30.48,53.76l-11.43,15.89l-37.71-59.28c-0.29-0.46-0.5-0.94-0.64-1.43
	c-0.04-0.13-0.07-0.26-0.09-0.38c-0.04-0.17-0.07-0.34-0.08-0.51c-0.01-0.02-0.01-0.05-0.01-0.08c-0.02-0.15-0.03-0.3-0.03-0.45
	c0-0.1,0.01-0.21,0.01-0.31l-10.82-0.9c1.23,1.44,2.6,3.06,4.07,4.85c0.31,0.36,0.61,0.74,0.92,1.12c1.66,2.04,3.43,4.27,5.26,6.64
	c0.73,0.95,1.47,1.92,2.21,2.91c0.38,0.5,0.75,1.01,1.13,1.52c0.27,0.36,0.54,0.72,0.8,1.09c0.27,0.36,0.54,0.73,0.8,1.1
	c3.21,4.44,6.44,9.22,9.43,14.14c0.25,0.41,0.5,0.82,0.74,1.23c0.25,0.42,0.5,0.83,0.74,1.24c0.24,0.42,0.48,0.83,0.71,1.25
	c0.24,0.42,0.48,0.83,0.71,1.25c0.24,0.41,0.47,0.83,0.7,1.25c0.46,0.84,0.91,1.67,1.34,2.51c0.88,1.68,1.71,3.36,2.48,5.04
	c0.2,0.41,0.38,0.81,0.56,1.22c0.19,0.41,0.37,0.82,0.54,1.23c0.79,1.84,1.52,3.67,2.15,5.47c0.05,0.14,0.11,0.28,0.15,0.42
	c0.05,0.14,0.1,0.27,0.14,0.41c0.33,0.97,0.64,1.94,0.91,2.89c0.1,0.32,0.19,0.63,0.27,0.95c0.1,0.36,0.2,0.71,0.29,1.06
	c0.09,0.38,0.18,0.74,0.26,1.11c0.11,0.43,0.2,0.86,0.28,1.29c0.09,0.37,0.16,0.74,0.22,1.1c0.01,0.06,0.02,0.12,0.04,0.18
	c0.13,0.72,0.24,1.43,0.32,2.13c0.06,0.42,0.1,0.85,0.14,1.27c0.1,0.87,0.15,1.73,0.16,2.57c0.03,1.17,0,2.32-0.1,3.44
	c-0.03,0.43-0.08,0.85-0.14,1.26c-0.05,0.42-0.12,0.84-0.2,1.25c-0.05,0.26-0.1,0.51-0.16,0.77c-0.03,0.16-0.07,0.32-0.11,0.48
	c-0.05,0.23-0.11,0.46-0.18,0.69c-0.09,0.32-0.18,0.64-0.28,0.95c0,0-4.57,2.14-9.65,2.21c-3.83,0.06-7.95-1.07-10.6-5.19
	c-0.1-0.15-0.2-0.31-0.31-0.49c-0.1-0.16-0.21-0.33-0.32-0.51c-0.94-1.52-2.3-3.81-3.95-6.65c-0.2-0.35-0.41-0.71-0.62-1.07
	c-0.46-0.8-0.95-1.64-1.45-2.51c-0.17-0.3-0.34-0.6-0.52-0.9c-0.17-0.3-0.34-0.61-0.52-0.92c-1.25-2.19-2.6-4.56-4.02-7.05
	c-0.21-0.36-0.41-0.71-0.61-1.07c-0.44-0.77-0.89-1.55-1.33-2.35c-0.9-1.58-1.81-3.2-2.74-4.84l-0.75-1.32
	c-1.39-2.46-2.8-4.96-4.2-7.47c-0.24-0.41-0.47-0.83-0.7-1.24c-0.24-0.42-0.47-0.85-0.71-1.27s-0.47-0.83-0.71-1.25
	c-1.72-3.08-3.43-6.12-5.08-9.07c-0.21-0.38-0.42-0.76-0.63-1.13c-0.38-0.68-0.76-1.37-1.14-2.04c-0.29-0.52-0.58-1.03-0.87-1.54
	c-0.05-0.1-0.1-0.19-0.15-0.28c-0.28-0.51-0.56-1.01-0.83-1.5c-0.24-0.41-0.46-0.82-0.69-1.22c-0.18-0.32-0.36-0.64-0.53-0.96
	c-0.14-0.24-0.27-0.47-0.4-0.71c-0.22-0.4-0.44-0.79-0.66-1.18c-0.24-0.43-0.48-0.85-0.71-1.27c-0.27-0.48-0.53-0.96-0.79-1.42
	c-0.12-0.22-0.24-0.43-0.36-0.65c-0.35-0.64-0.7-1.26-1.04-1.86c-0.13-0.24-0.27-0.49-0.4-0.73c-0.97-1.74-1.84-3.3-2.59-4.64
	c-0.15-0.27-0.3-0.53-0.44-0.79c-0.47-0.85-0.88-1.59-1.23-2.21c-0.08-0.15-0.16-0.29-0.24-0.43c-0.02-0.04-0.04-0.07-0.06-0.11
	c-0.1-0.18-0.19-0.35-0.27-0.5c-0.38-0.68-0.6-1.08-0.64-1.15l-9.46,2.37c0.3,0.54,0.57,1.02,0.82,1.46
	c0.08,0.13,0.14,0.25,0.21,0.37c0.07,0.12,0.13,0.24,0.2,0.35c0.01,0.03,0.03,0.06,0.04,0.08c0.07,0.13,0.14,0.25,0.2,0.36
	c0.17,0.29,0.31,0.54,0.44,0.77c0.43,0.78,0.71,1.27,0.88,1.58c0.04,0.07,0.07,0.13,0.1,0.18c0.18,0.32,0.18,0.32,0.18,0.32
	s35.08,79.75,31.3,86.18c-1.33,2.29-4.35,3.06-7.7,3.11c-6.08,0.09-13.23-2.23-13.23-2.23l-34.27-83.52c0,0-0.02-0.05-0.04-0.14
	c-0.01-0.03-0.02-0.07-0.04-0.12c0-0.02-0.01-0.03-0.01-0.05c-0.02-0.06-0.04-0.14-0.06-0.23c-0.09-0.35-0.19-0.83-0.26-1.39
	l-6.24,4.28c0.25,0.04,0.46,0.1,0.65,0.16c0.12,0.04,0.23,0.07,0.33,0.11c0.34,0.14,0.51,0.26,0.51,0.26l24.41,60.76l-13.7,9.62
	l-25.76-63.99c-0.03-0.07-0.06-0.13-0.08-0.19c-0.03-0.07-0.05-0.13-0.06-0.19c-0.03-0.08-0.04-0.15-0.05-0.22
	c-0.01-0.06-0.02-0.12-0.02-0.18c0-0.07,0-0.14,0.02-0.2l-8.15,3.05c0.08,0.28,0.4,1.33,0.91,2.98c0.11,0.33,0.22,0.68,0.34,1.06
	c1.08,3.42,2.82,8.7,5.05,14.83c0.08,0.23,0.16,0.46,0.25,0.69c0.93,2.55,1.94,5.23,3.03,7.98c0.1,0.25,0.2,0.5,0.3,0.75
	c0.99,2.5,2.04,5.06,3.15,7.61c0.22,0.51,0.44,1.02,0.67,1.53c0.22,0.51,0.45,1.02,0.68,1.53c0.22,0.51,0.45,1.01,0.69,1.52
	c0.23,0.5,0.46,1,0.7,1.51c0.81,1.73,1.64,3.44,2.49,5.11c0.38,0.74,0.76,1.47,1.15,2.2c0.5,0.95,1.01,1.87,1.52,2.78
	c0.25,0.45,0.51,0.9,0.77,1.34c0.25,0.44,0.51,0.88,0.77,1.31c0.26,0.43,0.52,0.86,0.79,1.28c0.78,1.26,1.58,2.46,2.38,3.59
	c0.19,0.27,0.38,0.54,0.58,0.8c0.61,0.84,1.22,1.64,1.85,2.39c0.23,0.28,0.46,0.55,0.69,0.82c0.86,0.99,1.73,1.89,2.59,2.67
	c0.27,0.25,0.55,0.49,0.82,0.72c0.28,0.23,0.56,0.45,0.83,0.66c0.83,0.63,1.66,1.14,2.49,1.55c17.71,8.66,34.06,10.26,34.06,10.26
	s6.7,5.48,12.37,5.4c3.36-0.05,6.36-2.05,7.39-8.29c2.79-16.79-6.08-15.15-0.25-16.99c0.49-0.16,1.04-0.24,1.62-0.25
	c6.2-0.08,16.87,7.73,24.88,10.03c0.34,0.09,0.7,0.14,1.08,0.13c9.1-0.13,26.32-29.9,26.32-29.9s8.49-3.39,12.44-3.44
	c0.46-0.01,0.86,0.03,1.18,0.13c3.01,0.88,10.65,9.83,10.65,9.83s23.42-0.29,24.25-11.07c0.85-10.78-1.82-14.3-1.82-14.3l9.08-2.08
	l6.86,8.39l21.15,2.04l7.17-22.17l9.49-6.24l23.3,13.03l18.11-18.52l-6.72-12.51c-3.81-7.1-1.11-15.43,6.18-18.98
	c8.55-4.15,20.18-8.64,30.79-8.79c5.13-0.07,10.02,0.87,14.21,3.36c1.05,0.62,2.1,1.24,3.15,1.84c0.88,0.52,1.77,1.02,2.66,1.52
	c0.97,0.55,1.95,1.09,2.93,1.62c0.98,0.52,1.96,1.04,2.95,1.55C642.82,153.1,643.88,143.65,642.89,138.89z M566.58,194.29
	c-0.28,0.18-0.65,0.28-1.1,0.28c-6.82,0.1-32.01-19.81-39.26-25.64c-1.26-1.03-2.05-2.43-2.22-3.92l-1.67-14.5
	c-0.4-3.54,2.55-6.05,5.86-6.1c1.4-0.02,2.87,0.41,4.18,1.39c14.55,10.95,38.23,28.82,43.33,32.95
	C583.14,184.77,571.8,190.72,566.58,194.29z"/>
<path style="fill:#CBCBCB;" d="M857.45,307.36c-0.39,0.13-0.99,0.34-1.79,0.61c-0.21,0.08-0.44,0.16-0.68,0.24
	c-1.07,0.36-2.4,0.81-3.97,1.34c-0.33,0.12-0.67,0.23-1.02,0.35c-1.13,0.37-2.35,0.79-3.67,1.23c-0.44,0.15-0.88,0.29-1.34,0.44
	c-0.16,0.05-0.31,0.11-0.47,0.16c-0.46,0.16-0.94,0.31-1.43,0.47c-0.62,0.21-1.26,0.42-1.92,0.64c-0.31,0.1-0.62,0.21-0.93,0.31
	c-3.27,1.08-6.9,2.26-10.8,3.52c-0.39,0.13-0.78,0.25-1.18,0.38c-0.79,0.26-1.59,0.51-2.4,0.77c-0.41,0.13-0.82,0.27-1.23,0.39
	c-2.05,0.66-4.16,1.33-6.32,2.01c-0.43,0.14-0.87,0.28-1.31,0.41c-0.49,0.16-0.98,0.31-1.47,0.47c-0.83,0.26-1.66,0.52-2.5,0.78
	c-6.71,2.09-13.78,4.24-20.93,6.34c-0.48,0.14-0.95,0.28-1.43,0.42c-8.62,2.52-17.33,4.95-25.63,7.1c-0.44,0.12-0.88,0.23-1.32,0.34
	c-0.46,0.12-0.92,0.24-1.37,0.35c-0.46,0.12-0.91,0.24-1.35,0.35c-0.21,0.05-0.42,0.1-0.62,0.15c-0.67,0.17-1.33,0.33-1.99,0.5
	c-0.63,0.15-1.25,0.3-1.87,0.45c-0.73,0.18-1.47,0.36-2.19,0.52c-0.44,0.11-0.87,0.21-1.3,0.31c-0.43,0.1-0.86,0.2-1.29,0.3
	c-2.63,0.6-5.17,1.16-7.62,1.67c-0.34,0.07-0.68,0.14-1.02,0.2c-1.47,0.3-2.9,0.58-4.29,0.83c-0.85,0.16-1.69,0.31-2.5,0.44
	c-1.08,0.19-2.13,0.35-3.14,0.5c-0.65,0.1-1.29,0.2-1.92,0.28c-0.35,0.05-0.7,0.09-1.04,0.13c-0.42,0.06-0.83,0.11-1.24,0.15
	c-0.95,0.11-1.86,0.2-2.74,0.26c-0.45,0.04-0.89,0.08-1.33,0.1c-0.03,0-0.06,0.01-0.1,0.01c-0.48,0.03-0.95,0.05-1.4,0.06
	c-0.28,0.01-0.55,0.02-0.82,0.02c-9.42,0.13-15.17-2.58-14.18-9.84c0.68-4.74-1.14-10.55-4.64-17
	c32.62-11.84,64.87-24.85,77.36-31.2c2.36,0.39,4.68,0.56,6.97,0.52c0.35-0.01,0.71-0.02,1.07-0.04c0.35-0.02,0.71-0.04,1.07-0.08
	c0.28-0.02,0.57-0.05,0.86-0.09c0.34-0.04,0.68-0.09,1.01-0.14c0.27-0.04,0.53-0.08,0.79-0.13c0.42-0.07,0.83-0.16,1.25-0.25
	c0.26-0.05,0.52-0.11,0.78-0.18c0.43-0.1,0.86-0.21,1.28-0.33c0.42-0.11,0.83-0.24,1.25-0.36c0.41-0.12,0.82-0.25,1.22-0.39
	c0.2-0.07,0.4-0.13,0.59-0.21c0.35-0.12,0.69-0.25,1.03-0.38c0.34-0.13,0.69-0.26,1.03-0.4c2.39-0.96,4.77-2.12,7.11-3.4
	c0.34-0.18,0.67-0.37,1-0.56c0.33-0.18,0.66-0.38,0.99-0.57c1.98-1.16,3.91-2.39,5.79-3.67c0.61-0.42,1.22-0.84,1.81-1.27
	c10.36-7.37,18.45-15.64,20.19-17.46c0.08-0.64,2.08-16.31,2.59-24.72c-0.09,0.29-0.19,0.58-0.29,0.85c-0.1,0.28-0.2,0.55-0.3,0.82
	c-0.09,0.23-0.18,0.46-0.27,0.68c-0.02,0.03-0.03,0.06-0.04,0.09c-0.11,0.26-0.21,0.5-0.32,0.74c-0.28,0.61-0.57,1.17-0.87,1.69
	c-0.17,0.3-0.34,0.58-0.53,0.85c-0.18,0.27-0.37,0.52-0.56,0.76c-0.09,0.12-0.18,0.23-0.28,0.34c-0.59,0.67-1.21,1.19-1.87,1.55
	c-0.1,0.06-0.19,0.11-0.29,0.16c-0.13,0.06-0.25,0.11-0.38,0.16c-7.49,7.84-26.23,26.16-46.51,26.45
	c-12.76,0.18-27.23-3.47-42.36-13.9c-30.97-21.37-77.97-48.07-102.39-55.12c2.83-8.01,14.63-20.81,25.97-31.81
	c0.18,0.04,0.35,0.07,0.53,0.11l-0.65-0.49c0,0-10-3.83-16.88-5.07c-3.8,4.57-7.02,9.5-9.66,14.19c-0.37,0.65-0.73,1.29-1.07,1.92
	c-5.69,10.52-8.42,19.36-8.42,19.36c-1.53,0.02-2.78,0.27-3.73,0.75c-19.25,9.92-39.84,13.76-59.3,22.55
	c-21.69,9.81-43.23,19.92-65.09,29.4c-44.55,19.3-95.3,38.7-125.18,39.12c-0.92,0.01-1.81,0.01-2.69-0.01
	c-58.78-1.56-60.26-3.05-70.25-18.17c-8.77-13.25-35.91-52.97-34.92-66.12c0.01-0.24,0.04-0.46,0.08-0.68
	c0.02-0.19,0.06-0.37,0.11-0.54c0.01-0.03,0.01-0.07,0.03-0.1c0.03-0.16,0.08-0.31,0.15-0.46c0.01-0.05,0.03-0.1,0.06-0.15
	c0.05-0.15,0.11-0.28,0.2-0.41c0.01-0.03,0.02-0.05,0.04-0.07c0.06-0.13,0.13-0.25,0.23-0.36c0.04-0.05,0.08-0.1,0.13-0.15
	c0.07-0.12,0.18-0.23,0.29-0.31c0.13-0.14,0.27-0.25,0.42-0.34l-0.06,0.02l-34.6,8.64c0.31-0.04,0.62-0.06,0.94-0.07
	c0.31-0.02,0.62-0.03,0.93-0.04c9.53-0.13,18.54,5.18,22.65,13.47c8.98,18.04,27.35,43.12,42.4,62.63
	c9.58,12.45,30.08,15.44,48.89,15.17c20.57-0.29,39.11-4.49,39.11-4.49s8.35,20.56,0.67,39.66c-1.69,4.21-10.61,6.05-23.89,6.24
	c-47.1,0.68-149.06-19.49-178.18-29.4c-37.31-12.7-56.97-30.07-63.86-62.49c-0.17-0.8-0.25-1.58-0.25-2.35
	c0-0.36,0.02-0.72,0.05-1.07c0.03-0.25,0.06-0.49,0.11-0.74c0.02-0.16,0.05-0.32,0.09-0.48c0.1-0.47,0.23-0.92,0.39-1.38
	c0.06-0.17,0.12-0.34,0.2-0.51c0.04-0.11,0.08-0.21,0.13-0.32c-16.16,12.32-18.6,15.24-18.95,15.76c0.43,0.77,0.86,1.53,1.3,2.28
	c0.3,0.52,0.61,1.04,0.93,1.55c1.32,2.22,2.73,4.39,4.2,6.51c0.31,0.47,0.64,0.95,0.98,1.41c5.33,7.51,11.43,14.38,18.16,20.66
	c0.67,0.63,1.35,1.25,2.04,1.87c4.07,3.66,8.36,7.13,12.84,10.39c0.75,0.55,1.51,1.1,2.27,1.63c9.19,6.49,19.13,12.2,29.55,17.22
	c1.41,0.68,2.82,1.34,4.25,2c2.08,0.95,4.17,1.88,6.28,2.78c2.44,1.04,4.89,2.04,7.37,3.02c1.45,0.57,2.9,1.13,4.36,1.67
	c1.48,0.56,2.95,1.1,4.44,1.63c0.13,0.05,0.25,0.09,0.37,0.13c1.51,0.54,3.01,1.07,4.53,1.58c5.79,1.97,11.65,3.77,17.54,5.44
	c1.64,0.46,3.29,0.92,4.94,1.36c8.88,2.38,17.81,4.45,26.66,6.24c1.34,0.28,2.68,0.54,4.02,0.8c3.15,0.61,6.28,1.19,9.4,1.73
	c2.52,0.44,5.03,0.86,7.53,1.26c3.04,0.49,6.06,0.95,9.05,1.39c1.78,0.26,3.56,0.51,5.32,0.75c0.08,0.01,0.16,0.02,0.23,0.03
	c1.55,0.21,3.09,0.41,4.62,0.61c2.2,0.28,4.39,0.55,6.55,0.81c1.21,0.14,2.41,0.28,3.6,0.41c10.83,1.23,21.11,2.14,30.54,2.85
	c1.83,0.13,3.62,0.26,5.38,0.39c2.49,0.17,4.91,0.33,7.26,0.48c1.11,0.07,2.2,0.14,3.27,0.21c16.63,1.01,29.2,1.5,35.42,2.37
	c1.06,0.15,2.07,0.21,3.03,0.2c27.96-0.4,18.9-66.04,18.9-66.04l37.47-15.3c0,0,14.51,21.01,38.93,55.67
	c13.73,19.43,24.92,43.39,24.92,43.39s-25.74,12.97-74.73,25.04c-16.76,4.13-36.78,6.18-58.67,6.49
	c-111.25,1.59-270.37-41.72-291.17-84.94c-2.05-4.25-2.93-9.77-2.93-15.85c0-0.61,0.01-1.23,0.03-1.85
	c0.01-0.49,0.03-0.99,0.06-1.48c0.02-0.44,0.04-0.88,0.08-1.33c0.03-0.49,0.06-0.97,0.11-1.46c0.05-0.65,0.12-1.3,0.2-1.95
	c0-0.05,0-0.1,0.01-0.15c-1.69,4.39-7.13,18.27-7.56,35.36c-0.05,1.85,0.11,3.71,0.45,5.53l0,0c64.6,46.47,49.02,39.27,147.05,64.46
	c56.92,14.62,104.93,19.34,144.97,18.77c84.31-1.2,133.25-25.88,155.5-30.95c12.18-2.76,127.97-33.75,170.97-34.36
	c3.6-0.06,6.7,0.11,9.18,0.52c2.03,0.33,4.29,0.47,6.75,0.44c34.47-0.5,131.27-36.23,140.4-39.62L857.45,307.36z M641.87,208.45
	c0.43-0.14,0.94-0.21,1.52-0.22c13.9-0.19,67.21,42.58,100.82,62.04c-19.27,6.01-51.03,14.23-73.56,19.48
	c-22.21-25.12-52.03-51.48-64.16-64.75c-3.6-3.96-5.74-6.22-5.74-6.22L641.87,208.45z M686.52,336.48c0,0-122.41,36.35-146.53,36.69
	c-2.65,0.04-4.12-0.36-4.1-1.29c0.21-9.35-62.63-98.03-62.63-98.03l113.6-51.96c0,0,36.68,39.9,73.08,68.24
	c0.78,0.62,1.5,1.2,2.23,1.8c-20.06,3.87-39.19,6.43-55.06,6.66c-14.2,0.2-25.78-1.47-33.07-5.74c-4.64-2.74-7.21-6.44-7.81-11.32
	c-1.84-14.86,6.28-27.9,13.37-36.22c2.11-2.45,2.07-5.82-0.1-8.42c-1.58-1.91-3.92-2.94-6.3-2.9c-0.88,0.01-1.77,0.17-2.63,0.48
	c-13.33,4.83-31.82,12.52-44.29,21.7l-0.42,0.33c-2.35,1.99-22.93,20.03-20.26,40.3c1.37,10.38,8.47,19.36,21.05,26.68
	c1.02,0.6,2.02,1.17,3.06,1.69c17.55,9.27,38.64,12.76,61.09,12.44c30.89-0.44,64.35-8.09,94.68-17.79
	C689.8,330.43,686.52,336.48,686.52,336.48z M673.1,317.73c-30.29,8.84-56.95,13.42-79.84,13.75c-23.96,0.34-43.79-3.99-59.3-13.01
	c-10.17-5.91-15.86-12.86-16.88-20.66c-2.21-16.81,16.92-33.2,17.74-33.87c10.68-7.84,26.35-14.66,38.72-19.33
	c-7.38,9.43-14.72,23.14-12.76,38.95c0.93,7.41,4.94,13.24,11.97,17.36c8.93,5.24,22.53,7.19,38.57,6.97
	c18.4-0.27,40.02-3.4,61.5-7.74c0,0,76.67-19.55,91.03-24.12c2.36,1.28,4.53,2.42,6.5,3.39
	C739.35,294.64,706.82,307.87,673.1,317.73z"/>
<path style="fill:#FFFFFF;" d="M324.92,182.35c0,0-0.17-0.12-0.51-0.26c-0.1-0.04-0.21-0.07-0.33-0.11
	c-0.19-0.06-0.4-0.12-0.65-0.16c-0.35-0.06-0.76-0.11-1.23-0.1c-1.8,0.03-4.47,0.72-8,3.4c-1.82,1.38-4.3,1.4-4.52,2.64
	c-0.02,0.06-0.02,0.13-0.02,0.2c0,0.06,0.01,0.12,0.02,0.18c0.01,0.07,0.03,0.15,0.05,0.22c0.02,0.06,0.03,0.12,0.06,0.19
	c0.02,0.06,0.05,0.12,0.08,0.19l25.76,63.99l13.7-9.62L324.92,182.35z"/>
</svg>
