<?xml version="1.0" encoding="utf-8"?>
<!-- Generator: Adobe Illustrator 26.5.0, SVG Export Plug-In . SVG Version: 6.00 Build 0)  -->
<svg version="1.1" id="레이어_1" xmlns="http://www.w3.org/2000/svg" xmlns:xlink="http://www.w3.org/1999/xlink" x="0px"
	 y="0px" viewBox="0 0 308 82" style="enable-background:new 0 0 308 82;" xml:space="preserve">
<g transform="translate(5815.30522,-902.93681) rotate(-176.35747) scale(3.31109,-3.31109) skewX(0)">
	<path style="fill:#00FFF2;" d="M1655.7,390.4c1.1,0,2.2,0.4,3,1h4.7c0.1,0,0.1,0,0.2,0h5.1c0.1,0,0.1,0,0.2,0h5.1
		c0.1,0,0.1,0,0.2,0h5.7c1.1,0,2.2,0.4,3,1h1.8c0.3,0,0.7,0,1,0.1c2.8,0.5,4.6,3.1,4.1,5.9c-0.4,2.5-2.6,4.2-5.1,4.2h-3.1l-6.5,0.5
		c-0.2,0-0.4,0-0.6,0h-6.6c-0.1,0-0.1,0-0.2,0h-5.2c-1.4,0-2.6-0.6-3.6-1.4h-0.7c-0.3,0-0.7,0-1-0.1c-0.5-0.1-1-0.3-1.5-0.5
		l-2.9,1.2c-0.6,0.3-1.3,0.4-2.1,0.4h-4.2c-0.3,0-0.7,0-1-0.1c-2.8-0.5-4.6-3.1-4.1-5.9c0.4-2.5,2.6-4.2,5.1-4.2h3.3l3.8-1.5
		C1654.3,390.5,1655,390.4,1655.7,390.4L1655.7,390.4z"/>
	<path style="fill:#7DFFF8;" d="M1660.8,398.8c0-2.6,1.9-4.7,4.4-5l6.6-0.9h0.1l5.6-0.9c0.1,0,0.1,0,0.2,0l5.1-0.9
		c0.4-0.1,0.7-0.1,1.1-0.1h2.2c0.3,0,0.7,0,1,0.1c2.8,0.5,4.6,3.1,4.1,5.9c-0.4,2.5-2.6,4.2-5.1,4.2h-1.9l-4.8,0.9
		c-0.1,0-0.2,0-0.3,0.1l-5.6,0.9c-0.1,0-0.2,0-0.3,0.1l-6.6,0.9c-0.3,0-0.5,0.1-0.8,0.1C1663.1,403.9,1660.8,401.6,1660.8,398.8
		L1660.8,398.8z"/>
	<path style="fill:#D4FFFD;" d="M1665.2,398.9c0.1-0.6,0.2-1.2,0.4-1.7c0.3-0.7,0.8-1.3,1.4-1.8s1.2-0.8,2-1
		c0.6-0.1,1.1-0.2,1.7-0.1c0.2,0,0.5,0.1,0.7,0.1l3.3-1.2c0.6-0.2,1.2-0.4,1.9-0.4c0.5,0,1.1,0.1,1.6,0.2c0.9-0.8,2-1.2,3.3-1.2
		c0.2,0,0.4,0,0.5,0l5,0.5h5c0.3,0,0.7,0,1,0.1c2.8,0.5,4.6,3.1,4.1,5.9c-0.4,2.5-2.6,4.2-5.1,4.2h-5.1c-0.2,0-0.4,0-0.6,0l-5.2-0.5
		c-0.4,0-0.8-0.1-1.1-0.2c-0.5,0.4-1,0.7-1.6,0.9l-3.7,1.4c-0.8,0.3-1.8,0.4-2.8,0.3c-0.1,0-0.2,0-0.3-0.1c-0.5,0.1-1.1,0.2-1.7,0.1
		s-1.2-0.2-1.7-0.4c-0.7-0.3-1.3-0.8-1.8-1.4s-0.8-1.2-1-2C1665.2,400,1665.1,399.5,1665.2,398.9L1665.2,398.9z"/>
</g>
<g>
	<g>
		<path style="fill:#949494;" d="M138.5,60.5l2.4-38.3l-78.5-5L60,55.6L138.5,60.5z"/>
		<path d="M140.4,62.7l-82.6-5.2l2.7-42.3l82.6,5.2L140.4,62.7z M62.1,53.7l74.5,4.7l2.2-34.2l-74.5-4.7L62.1,53.7z"/>
	</g>
	<g>
		<path style="fill:#949494;" d="M170,70.6l43.6-47.2L16.2,60.8L170,70.6z"/>
		<path d="M170.9,72.6L0,61.8l219.3-41.6L170.9,72.6z M32.4,59.8l136.8,8.7l38.7-42L32.4,59.8z"/>
	</g>
	<path style="fill:#00E1FF;" d="M61.5,32c0-2.8,2.3-5.1,5.1-5.1c0.4,0,0.7,0,1.1,0.1l4.7,0.9l4.6,0.5h4.7c0.2,0,0.4,0,0.6,0l4.8,0.5
		H92c0.2,0,0.5,0,0.7,0l4.5,0.5c0.1,0,0.2,0,0.4,0.1c2.8,0.5,4.6,3.1,4.1,5.9c-0.5,2.7-3,4.5-5.6,4.2l-4.3-0.5h-4.7
		c-0.2,0-0.4,0-0.6,0l-4.8-0.5H77c-0.2,0-0.4,0-0.6,0l-5-0.5c-0.1,0-0.3,0-0.4-0.1h-0.1l-5-1C63.3,36.6,61.5,34.5,61.5,32L61.5,32z"
		/>
	<polygon points="153.1,60.9 76.7,56.9 163.5,42.2 164.2,46.2 113.6,54.7 153.3,56.8 	"/>
	<polygon points="172.3,59.4 134.3,55.3 175,42.2 176.2,46.1 153.8,53.3 172.8,55.3 	"/>
	<polygon points="164.3,35 160.4,34.1 164.4,16.9 132.9,12.3 97.1,20.3 96.2,16.3 132.7,8.1 169.4,13.6 	"/>
	<polygon points="183.7,27.4 179.7,26.4 183.2,13.4 165,10.7 127.3,21.3 126.2,17.4 164.8,6.6 188.3,10 	"/>
	<polygon points="192.2,30.3 188.5,28.7 198.7,5.2 192.1,4.2 139.6,22.2 138.3,18.4 191.7,0 204.5,2 	"/>
	
		<rect x="120.7" y="12.3" transform="matrix(8.266991e-02 -0.9966 0.9966 8.266991e-02 84.9862 147.6743)" width="4.1" height="30.7"/>
	<rect x="121.6" y="28.9" width="11.2" height="4.1"/>
</g>
</svg>
