<?xml version="1.0" encoding="utf-8"?>
<!-- Generator: Adobe Illustrator 26.5.0, SVG Export Plug-In . SVG Version: 6.00 Build 0)  -->
<svg version="1.1" id="레이어_1" xmlns="http://www.w3.org/2000/svg" xmlns:xlink="http://www.w3.org/1999/xlink" x="0px"
	 y="0px" viewBox="0 0 960 540" style="enable-background:new 0 0 960 540;" xml:space="preserve">
<g>
	<defs>
		<rect id="SVGID_1_" width="960" height="540"/>
	</defs>
	<clipPath id="SVGID_00000152260100063516418450000000992829713164234667_">
		<use xlink:href="#SVGID_1_"  style="overflow:visible;"/>
	</clipPath>
	<g style="clip-path:url(#SVGID_00000152260100063516418450000000992829713164234667_);">
		<rect x="-72" y="12.5" style="fill-rule:evenodd;clip-rule:evenodd;fill:#3DC6FF;" width="1032" height="520.6"/>
		<path style="fill:#49B7FF;" d="M385-0.1c-49.3,3-96.2-9.5-144.9-4.2C189,1.2,128.3-3.2,76.8-6.3c-50.5-3-101-4.5-151.6-4.4
			c-3.8,0-8.1,0.2-10.5,3.1c-2,2.4-2.1,5.8-2.1,8.9c0,24.4,0,48.7,0,73.1c0,3.9,0.4,8.6,3.8,10.5c2.5,1.4,5.5,0.7,8.3,0
			c29.5-7.7,59-15.4,88.5-23.1c35.2-9.2,70.5-18.4,106.5-23.5c62.2-8.8,126.1-5.2,186.9,10.4c13.2,3.4,27.2,10.3,40.8,10.9
			c13.3,0.6,29.3-4.3,42.9-5.3c33.2-2.3,67-2.2,98.8,8.9c9.3,3.3,31.3,11.6,30.9,24.2c-0.3,10.6-20.7,18.9-28.5,23
			c-17.2,9.1-34.4,18.2-51.6,27.2c-12.4,6.6-25.8,14.2-30.8,27.3c52.1,0.3,110.5,8.1,162,0.2c35.7-5.4,68.1-7.6,104.6-4.4
			c65.8,5.6,146.4,24.3,173.6,92.8c1,2.6,2.1,5.3,4.1,7.2c2.1,1.9,5,2.7,7.8,3.2c21.9,4,47.3-5.2,65.1,8.1c4.4,3.3,7.9,7.8,12,11.5
			c12.6,11.3,33.9,17.1,50.6,15.6c20.2-1.8,27.7-17,36.9-35.1c17.5-34.3,23.1-73.7,25.2-111.7c1.2-21.8,1.3-44.1-4.6-65.1
			c-12.2-43.3-49.1-76.3-90.4-94.1s-87-22.5-131.8-25.3c-33.7-2.1-67.4-3.4-101.1-3.8c-18.7-0.2-39.1,0.4-53.6,12.2
			c-16.1,13.1-30.1,11.3-49.6,15.4C560.9,4.1,497.2-4.8,436.6-2.6C419.4-2,402.2-1.2,385-0.1z"/>
		<path style="fill:#68DFFF;" d="M32.5,89.6c33.1-10.7,68.9-20.2,102.2-10.3c25.8,7.6,50.3,26.6,76.5,21c5.9-1.3,14.5-2.4,15.9,3.5
			c1.2,5.3-5.4,8.6-10.6,9.9c-42.1,10.3-84,21.6-125.6,33.8c-8,2.4-18.1,9.8-13.3,16.7c31.7,3.1,63.4,6.2,95,9.3
			c30,2.9,57.2,3.2,86.7-3.1c22.1-4.8,45.8-0.9,65.8,10.2c19,10.5,42.4,19.5,64.3,18.8c24.1-0.9,46.1-5.4,70.2,3.1
			c4.1,1.4,8.2,3.3,11.1,6.5c2.9,3.2,4.3,8.1,2.4,12c-1.3,2.6-3.7,4.3-6.1,5.9C353.4,304.3,216.6,296,86,281.4
			c-34.9-3.9-70-7.8-103.9-17c-29.4-7.9-59.3-21-76.6-46C-151.8,135.1-19.2,106.2,32.5,89.6z"/>
		<path style="fill:#9FEEFF;" d="M830.4,69.3c-19.5-14.7-43.7-25.5-67.9-22.4c-24.3,3.1-47.2,23.6-46.7,48
			C705.7,85,690.5,79.2,677,83.5c-13.5,4.3-22.8,20.9-16.6,33.7c-28.5-4.3-52.6,20.1-79.8,29.5c-15.1,5.2-31.3,6.1-46.5,10.1
			c-17.5,4.6-34.9,12.7-51.2,20.5c-0.4,0.2-0.8,0.4-1.1,0.8c-1.1,1.5,1.5,2.9,3.4,3c31.6,1.7,63.2,3.3,94.8,5
			c30.1,1.6,60.9-2.1,90.9-3.6c63.5-3.2,127.1-6.5,190.6-9.7c20.2-1,44.2-4.4,53.3-22.4c2.7-5.4,3.7-11.5,3.5-17.5
			c-0.6-16.2-10.1-31.7-24.2-39.6c-4.4-2.5-46.4-4.8-40.1,7.9C847.3,87.7,842.4,78.3,830.4,69.3z"/>
		<g>
			<path style="fill:#FFE6F2;" d="M17.5,189.4c-3.2-8-1.5-17.3,3.3-24.3c2.3-3.3,7.5-5.4,9.4-8.4c1.9-3.1,0.8-6,0.6-9.9
				c-0.5-14.6,3.7-33.5,19.4-38.7c7.6-2.5,16.4-0.7,22.3,4.6c-0.5-6.1,4.3-12.2,10.3-13.1c6-0.9,12.4,3.5,13.7,9.4
				c-1.2-5.4,12.3-8.9,15.4-9.4c9.6-1.5,23.3,1.5,15.6,14.3c3.6-5.9,15.5-1.9,19.5,0.5c4.8,2.9,14.4,10,8.6,16.6
				c11.6-0.5,23.3,5.7,29.4,15.6s6.4,23.1,0.8,33.3c16.6,5.9,27.7,24.5,25,42c-2.5,16-15.2,29.1-29.9,36
				c-14.7,6.8-31.3,8.3-47.6,8.8c-17.5,0.5-35-0.2-52.5-2c-26.8-2.8-50-14-71.2-30.2c-3.1-2.3-6.2-4.8-7.8-8.3
				c-1.3-2.8-1.3-6-1.4-9.1c-0.1-6.2,0-12.5,2.5-18.1S11.4,188.6,17.5,189.4z"/>
			<path style="fill:#FFC8E1;" d="M188.6,181.3c-7.6-3.5-11.1-12.7-18-16.2c-6.9-3.4-15.5-3.3-21.1,2.8c-4.6-7.1-9.9-14.7-17.1-15.5
				c-7.2-0.8-14.5,10.7-9.6,17.4c-5.1-6.4-10.9-13.2-18.1-13c-7.2,0.2-13.3,12.5-7.9,18.3c-8.1-8.3-21.8-5.8-27.7,5.1
				s-2.7,27.8,6.4,34.2c-24.5-9.3-51.9-5.7-74.3,9.8c0,0,6.5,18.3,57,35.9c0,0,61.5,14.1,114.3,1c0,0,35.5-9.8,38.7-44.2
				C211.2,216.9,211.2,191.8,188.6,181.3z"/>
			<path d="M122.5,268.1c-13.9,0-28-0.7-41.8-2.1c-24.8-2.6-48.3-12.5-71.8-30.5c-2.9-2.2-6.4-4.9-8.2-8.8c-1.4-3.2-1.5-6.7-1.5-9.6
				c-0.1-6.6,0.1-13,2.6-18.7c2.3-5,7.4-10.1,13.7-10.3c-2.3-7.7-0.9-16.6,4-23.7c1.3-1.9,3.3-3.3,5.2-4.7c1.7-1.2,3.4-2.4,4.1-3.7
				c1.2-1.9,1-3.7,0.7-6.2c-0.1-0.9-0.2-1.9-0.3-3c-0.6-15.8,4.4-34.7,20.2-39.9c7.2-2.4,15.4-1.1,21.5,3.2
				c0.8-5.8,5.5-10.9,11.3-11.7c5.5-0.8,11.1,2.2,13.8,6.9c3.4-4.2,13.1-6.5,15.4-6.8c6.8-1,15,0,18.1,4.7c1.3,2,1.6,4.3,0.8,7
				c5.6-1.7,14,1.5,17,3.3c3.7,2.3,10.1,6.8,10.9,12.1c0.2,1.5,0,2.9-0.6,4.2c11.3,0.4,22.1,6.5,28.1,16.2
				c6.1,9.9,6.7,22.8,1.5,33.3c16.5,6.7,27.2,25.2,24.4,42.9c-2.3,15.1-14.1,29.2-30.6,36.9c-15.3,7.1-32.9,8.5-48.1,8.9
				C129.8,268,126.2,268.1,122.5,268.1z M16.2,190.6c-5.2,0-9.9,4.3-11.9,8.8c-2.4,5.2-2.5,11-2.4,17.6c0,3.4,0.2,6.1,1.3,8.6
				c1.5,3.3,4.6,5.7,7.4,7.8c23.1,17.7,46.2,27.5,70.5,30c17.3,1.8,34.9,2.5,52.3,2c26.6-0.7,38.7-4.8,47.1-8.7
				c15.8-7.3,27-20.7,29.2-35c1.3-8.1-0.5-16.8-5.1-24.5c-4.5-7.6-11.3-13.4-19.1-16.1c-0.4-0.1-0.6-0.4-0.8-0.8
				c-0.1-0.4-0.1-0.7,0.1-1.1c5.4-9.7,5.1-22.6-0.8-32c-5.8-9.4-17.2-15.4-28.3-15c-0.5,0-1-0.3-1.2-0.7c-0.2-0.5-0.1-1,0.2-1.4
				c1.2-1.4,1.7-2.8,1.4-4.3c-0.7-4.4-7-8.7-9.7-10.3c-3.7-2.2-14.7-5.9-17.7-1c0,0,0,0,0,0c-0.4,0.6-1.2,0.8-1.8,0.4
				c-0.6-0.4-0.8-1.2-0.4-1.8c0,0,0,0,0,0c2.3-3.7,2.7-6.7,1.3-8.8c-2.4-3.5-9.6-4.5-15.6-3.6c-3.2,0.5-11.7,2.9-14,6.2
				c-0.4,0.6-0.5,1.1-0.4,1.7c0,0,0,0,0,0c0.2,0.7-0.3,1.4-1,1.5c-0.7,0.2-1.4-0.3-1.5-1c0,0,0,0,0,0c-1.2-5.3-6.9-9.3-12.3-8.4
				c-5.4,0.8-9.7,6.3-9.2,11.7c0,0.5-0.2,1-0.7,1.3c-0.5,0.2-1,0.2-1.4-0.2c-5.6-5-13.9-6.8-21.1-4.4C41,112.5,31.2,124,32,146.7
				c0,1,0.1,1.9,0.2,2.8c0.3,2.6,0.6,5.1-1.1,7.8c-1,1.7-2.9,3-4.8,4.4c-1.7,1.3-3.6,2.5-4.6,4c-4.8,7-6,15.9-3.1,23.1
				c0.2,0.4,0.1,0.9-0.2,1.3c-0.3,0.4-0.7,0.5-1.2,0.5C16.9,190.6,16.5,190.6,16.2,190.6z"/>
		</g>
		<g>
			<path style="fill:#70D430;" d="M-147.4,213.2l25,376.8l1129.4-40.8l-31.2-163.8c0,0-456.4-88.7-564.7-111.3
				S-147.4,213.2-147.4,213.2z"/>
			<path d="M-147.4,213.2c0,0,450.2,38.4,558.5,61c108.3,22.6,564.7,111.3,564.7,111.3l31.2,163.8L-122.4,590L-147.4,213.2
				 M-150.8,209.6l0.2,3.7l25,376.8l0.2,3.1l3.1-0.1l1129.4-40.8l3.8-0.1l-0.7-3.7l-31.2-163.8l-0.4-2.1l-2.1-0.4
				c-4.6-0.9-457.6-89-564.7-111.3c-24.8-5.2-69.6-11.6-133.2-19.1c-50.8-6-113.7-12.7-187-19.9c-124.7-12.3-237.6-21.9-238.7-22
				L-150.8,209.6L-150.8,209.6z"/>
		</g>
		<path style="fill:#ECC86E;" d="M-40.1,222.7c0,0,426.6,225.4,548.2,345.6l410.2-13c0,0-532.8-295.3-787.5-316L-40.1,222.7z"/>
		<g>
			<path style="fill:#FFC9CA;" d="M803.6,201.3c-4.7,0.3-9.6,2-12.7,5.6c-2.1,2.4-3.2,5.4-4.8,8.1c-2.5,4.2-6.2,7.6-10.6,9.8
				c7.4,3.9,15.1,7.8,23.4,8.9s17.6-1.2,22.7-7.9c1.9-2.5,3.1-5.5,3.5-8.6C827,203.6,814.3,200.6,803.6,201.3z"/>
			<path d="M803.1,235.7c-1.4,0-2.8-0.1-4.3-0.3c-8.7-1.1-16.8-5.3-24-9c-0.6-0.3-0.9-0.9-0.9-1.6c0-0.7,0.4-1.2,1-1.5
				c4-2,7.6-5.2,9.9-9.1c0.5-0.9,1-1.8,1.5-2.8c1-1.9,2-3.9,3.5-5.6c3.1-3.7,8.1-5.9,13.9-6.2l0,0c5.2-0.3,14.8,0,20.1,5.7
				c2.9,3.1,4,7.2,3.3,12.2c-0.4,3.4-1.8,6.7-3.9,9.4C819.6,231.3,812.7,235.7,803.1,235.7z M779.2,224.7c6.4,3.3,13,6.3,20,7.2
				c10.4,1.4,17.7-2.9,21.1-7.3c1.7-2.3,2.8-4.9,3.2-7.7c0.5-4-0.3-7.1-2.4-9.4c-3.1-3.4-9.4-5-17.3-4.6l0,0c-4.8,0.3-9,2.1-11.5,5
				c-1.2,1.4-2.1,3.1-3,4.9c-0.5,1-1,2-1.6,3C785.5,219.4,782.6,222.5,779.2,224.7z"/>
		</g>
		<g>
			<path style="fill:#FFC9CA;" d="M148.2,317.8c-4,0.2-8,1.7-10.6,4.7c-1.7,2-2.7,4.5-4,6.8c-2.1,3.5-5.2,6.4-8.9,8.2
				c6.2,3.2,12.6,6.5,19.6,7.4s14.7-1,19-6.6c1.6-2.1,2.6-4.6,3-7.2C167.7,319.8,157.1,317.3,148.2,317.8z"/>
			<path d="M147.8,346.9c-1.2,0-2.4-0.1-3.7-0.2c-7.3-1-14.1-4.5-20.1-7.6c-0.6-0.3-0.9-0.9-0.9-1.6c0-0.7,0.4-1.2,1-1.5
				c3.3-1.7,6.2-4.3,8.1-7.5c0.4-0.7,0.8-1.5,1.2-2.3c0.8-1.6,1.7-3.3,2.9-4.7c2.7-3.1,6.9-5,11.8-5.3l0,0c4.4-0.3,12.5,0,17,4.8
				c2.4,2.6,3.4,6.1,2.8,10.4c-0.4,2.9-1.5,5.7-3.3,8C161.7,343.2,155.9,346.9,147.8,346.9z M128.3,337.4c5.2,2.6,10.5,5.1,16.2,5.8
				c8.6,1.1,14.6-2.3,17.4-6c1.4-1.8,2.3-4,2.6-6.3c0.4-3.3-0.2-5.8-1.9-7.6c-2.6-2.8-7.8-4.1-14.3-3.7l0,0c-4,0.2-7.4,1.7-9.4,4.1
				c-1,1.2-1.7,2.6-2.5,4.1c-0.4,0.8-0.9,1.7-1.3,2.5C133.4,333,131,335.5,128.3,337.4z"/>
		</g>
		<g>
			<path style="fill:#FFC8D4;" d="M730,447c-4.7-0.5-9.7,0-13.1,2c-2.3,1.3-3.7,3.2-5.5,4.8c-2.9,2.5-6.9,4.3-11.4,5.1
				c7,3.6,14.2,7.3,22.3,9.2c8.1,1.9,17.5,1.6,23.2-2.2c2.1-1.4,3.6-3.2,4.3-5.3C752.9,451.8,740.6,448.1,730,447z"/>
			<path d="M732.1,471c-3.6,0-7.1-0.5-10.2-1.2c-8.4-2-16-5.9-22.8-9.4c-0.7-0.3-1-1.1-0.9-1.8c0.1-0.7,0.7-1.3,1.4-1.4
				c4.2-0.8,8-2.5,10.6-4.7c0.6-0.5,1.1-1,1.7-1.6c1.2-1.2,2.4-2.4,4.1-3.4c4.6-2.7,10.8-2.6,14.1-2.2l0,0
				c6.1,0.6,16.8,2.5,20.6,8.3c1.5,2.3,1.7,4.9,0.7,7.7c-0.8,2.4-2.5,4.5-5,6.1C742.5,470.1,737.3,471,732.1,471z M704.7,459.5
				c5.6,2.8,11.5,5.5,17.9,7c8.6,2,17.1,1.2,21.9-1.9c1.8-1.2,3.1-2.7,3.6-4.4c0.6-1.8,0.5-3.3-0.4-4.7c-2.1-3.3-8.8-5.8-18-6.7
				c-4.9-0.5-9.3,0.2-12.1,1.8c-1.3,0.8-2.3,1.8-3.4,2.8c-0.6,0.6-1.2,1.2-1.9,1.8C710.4,457,707.7,458.4,704.7,459.5z"/>
		</g>
		<path style="fill:#CBA43F;" d="M504.4,438.4c-10.3,0.6-20.8,1.4-30.5,5c-4.8,1.7-10.1,5.6-9.1,10.6c0.6,2.9,3.2,5,5.7,6.5
			c10.1,5.9,22,7.7,33.6,8.8c34.1,3.2,68.8,1,102.2-6.5c3.5-0.8,7.1-1.7,9.9-4c2.8-2.3,4.4-6.4,2.8-9.6
			C607.2,425.6,523.1,437.3,504.4,438.4z"/>
		<path style="fill:#6FE6FF;" d="M638,8.9c-12.8,4-25.1,10.1-38.2,13c-11.3,2.6-24.4,3.5-31.5,12.7c49.8-7.3,99.7-14.5,149.5-21.8
			c-3,0.4-15.3-7.5-19.4-8.4c-7-1.4-13.7-0.7-20.7-0.3C664.3,5,650.9,4.8,638,8.9z"/>
		<g>
			<path style="fill:#ADA697;" d="M783.5,339.2c4.3-4.8,8.7-9.7,14.5-12.5c7.5-3.5,16.1-2.9,24.3-2.1c11,1.2,22,2.7,33,4.6
				c9.1,1.6,18.9,3.9,24.8,11.1c3.3,4.1,4.9,9.2,6.3,14.2c3.9,13.7,7,27.7,9.4,41.7c-41.1,10.3-84.4-0.1-125.2-11.4
				c-6.6-1.8-14.4-3.5-19.6-8C757.4,363.4,773.5,350.5,783.5,339.2z"/>
			<path d="M812.3,324c3.4,0,6.8,0.3,10.1,0.7c11,1.2,22,2.7,33,4.6c9.1,1.6,18.9,3.9,24.8,11.1c3.3,4.1,4.9,9.2,6.3,14.2
				c3.9,13.7,7,27.7,9.4,41.7c-11.9,3-23.9,4.2-36,4.2c-29.9,0-60.1-7.6-89.2-15.7c-6.6-1.8-14.4-3.5-19.6-8
				c6.4-13.5,22.5-26.4,32.5-37.7c4.3-4.8,8.7-9.7,14.5-12.5C802.5,324.6,807.4,324,812.3,324 M812.3,320.8v3.2V320.8
				c-6.1,0-11.2,1-15.6,3c-6.5,3.1-11.3,8.5-15.6,13.2c-3,3.3-6.4,6.8-10.1,10.4c-8.9,8.9-18.2,18-22.9,28l-1,2.2l1.8,1.6
				c5.2,4.5,12.2,6.4,18.5,8.1c0.8,0.2,1.6,0.4,2.3,0.6c28.8,8,59.5,15.8,90.1,15.8c13.2,0,25.2-1.4,36.8-4.3l2.9-0.7l-0.5-2.9
				c-2.4-14.1-5.5-28.3-9.4-42.1c-1.6-5.6-3.3-10.9-6.9-15.4c-6.6-8.1-17.2-10.6-26.7-12.2c-11-1.9-22.1-3.5-33.2-4.7
				C819.4,321.1,815.9,320.8,812.3,320.8L812.3,320.8z"/>
		</g>
		<g>
			<path style="fill:#00B351;" d="M890.3,362.5c-5.7-7.4-19.7-4.8-22.4,4.2c-6-3.2-12.8-5.6-19.5-4.3s-12.7,7.3-12.1,14.1
				c-5.8-0.9-12.1-0.1-16.8,3.4s-7.2,10.2-4.7,15.6c2.7,5.8,9.7,8,16,9.5c5.2,1.3,10.5,2.5,15.7,3.8c1.6,7.2,7.2,13.4,14.2,15.8
				s15.2,0.8,20.9-3.9c12,12.3,33,14.4,47.3,4.9c6.1,2.7,12.4,5.4,19.1,5.5c6.7,0.2,13.9-2.8,16.7-8.9c1.3-2.7,1.6-5.8,3.5-8.1
				c1.6-1.9,3.9-2.8,5.8-4.3c4.7-3.6,6.4-10.6,4-16c-2.4-5.4-8.8-8.7-14.6-7.6c3.1-7.4-0.5-16.9-7.7-20.4c-10-4.9-12.9,4.7-20,5
				c-6.9,0.4-1.7,0.9-7.4-5.5c-5.8-6.5-6.6-12.7-17.3-14C902.7,350.4,893.1,354.1,890.3,362.5z"/>
			<path d="M908.2,351.2c0.9,0,1.8,0.1,2.7,0.2c10.7,1.3,11.5,7.5,17.3,14c4.3,4.8,2.4,5.7,4.2,5.7c0.6,0,1.5-0.1,3.3-0.2
				c5.6-0.3,8.7-6.4,14.7-6.4c1.5,0,3.3,0.4,5.3,1.4c7.2,3.5,10.8,13,7.7,20.4c0.8-0.1,1.5-0.2,2.3-0.2c5.1,0,10.2,3.1,12.3,7.8
				c2.4,5.4,0.7,12.4-4,16c-1.9,1.5-4.3,2.5-5.8,4.3c-1.9,2.3-2.3,5.4-3.5,8.1c-2.8,5.9-9.6,8.9-16.1,8.9c-0.2,0-0.4,0-0.5,0
				c-6.7-0.2-13-2.9-19.1-5.5c-6,4-13.2,5.9-20.4,5.9c-9.9,0-19.9-3.7-26.9-10.8c-3.9,3.3-9,5-14.1,5c-2.3,0-4.6-0.4-6.8-1.1
				c-7-2.4-12.6-8.6-14.2-15.8c-5.2-1.3-10.5-2.5-15.7-3.8c-6.2-1.5-13.3-3.7-16-9.5c-2.5-5.3,0.1-12,4.7-15.6
				c3.5-2.6,8-3.7,12.4-3.7c1.5,0,3,0.1,4.4,0.3c-0.6-6.8,5.4-12.8,12.1-14.1c1.3-0.2,2.5-0.4,3.8-0.4c5.4,0,10.8,2,15.7,4.6
				c1.6-5.4,7.3-8.5,12.8-8.5c3.7,0,7.3,1.4,9.5,4.3C892.8,355,900.7,351.2,908.2,351.2 M908.2,348c-6.9,0-14.7,2.9-19,9.3
				c-2.4-1.5-5.3-2.3-8.5-2.3c-6.1,0-11.5,2.9-14.4,7.4c-5.1-2.3-9.8-3.5-14.2-3.5c-1.5,0-3,0.1-4.4,0.4
				c-6.6,1.3-13.2,6.6-14.5,13.7c-0.5,0-0.9,0-1.4,0c-5.6,0-10.5,1.5-14.3,4.4c-6.3,4.7-8.7,13.1-5.7,19.5c3.6,7.7,13,10,18.1,11.2
				l13.9,3.4c2.4,7.4,8.4,13.6,15.8,16.1c2.5,0.8,5.1,1.3,7.8,1.3c5,0,9.8-1.4,13.8-4c7.2,6.3,17,9.9,27.2,9.9
				c7.5,0,14.6-1.9,20.7-5.5c5.6,2.4,12,5,18.7,5.1c0.2,0,0.4,0,0.6,0c8.5,0,16-4.2,19.1-10.7c0.5-1.2,0.9-2.3,1.3-3.4
				c0.5-1.6,1-3,1.8-4c0.7-0.8,1.8-1.5,2.9-2.2c0.8-0.5,1.6-1,2.4-1.6c5.9-4.5,8-13.1,5-19.8c-2.4-5.2-7.6-8.9-13.4-9.6
				c1-7.9-3.1-16.4-10.5-20c-2.4-1.2-4.6-1.7-6.7-1.7c-4.2,0-7.2,2.1-9.6,3.9c-1.9,1.3-3.5,2.5-5.3,2.6c-0.7,0-1.2,0.1-1.7,0.1
				c-0.5-1.1-1.4-2.6-3.2-4.5c-1.4-1.6-2.5-3.2-3.6-4.7c-3.2-4.5-6.4-9.2-15.7-10.3C910.3,348,909.3,348,908.2,348L908.2,348z"/>
		</g>
		<g>
			<path style="fill:#FFC9CA;" d="M548.2,279.7c-4,4.5-9.6,7.6-15.5,8.9c-4.2,0.9-8.8,0.9-12.2,3.6c-4.1,3.3-4.5,9.7-1.8,14.2
				s7.9,6.9,13.1,7.4c3.7,0.4,7.7-0.3,10.5-2.8c2-1.8,3.2-4.3,4.1-6.8c3.2-8.7,4.1-18.2,2.6-27.3"/>
			<path d="M533.7,315.6c-0.7,0-1.4,0-2.1-0.1c-6.2-0.6-11.6-3.7-14.4-8.2c-3.3-5.4-2.3-12.8,2.2-16.4c2.9-2.3,6.5-2.9,9.9-3.4
				c1-0.2,2-0.3,3-0.5c5.6-1.1,10.7-4.1,14.6-8.3c0.2-0.2,0.3-0.3,0.5-0.4c0-0.4-0.1-0.7-0.2-1.1c-0.2-0.9,0.5-1.8,1.4-2
				c0.9-0.2,1.8,0.5,2,1.4c1.5,9.5,0.6,19.2-2.7,28.2c-0.9,2.5-2.2,5.4-4.6,7.5C541,314.4,537.6,315.6,533.7,315.6z M547.9,282.6
				c-4.1,3.9-9.3,6.6-14.8,7.7c-1,0.2-2.1,0.4-3.2,0.5c-3.1,0.5-6.1,0.9-8.3,2.7c-3.2,2.5-3.8,8-1.4,11.9c2.2,3.6,6.6,6.1,11.8,6.6
				c2.2,0.2,6.3,0.2,9.2-2.3c1.8-1.6,2.8-4,3.6-6.1C547.2,296.9,548.3,289.7,547.9,282.6z"/>
		</g>
		<g>
			<path style="fill:#FFC8E9;" d="M334.8,120.8c-4.7-0.5-9.7,0-13.1,2c-2.3,1.3-3.7,3.2-5.5,4.8c-2.9,2.5-6.9,4.3-11.4,5.1
				c7,3.6,14.2,7.3,22.3,9.2c8.1,1.9,17.5,1.6,23.2-2.2c2.1-1.4,3.6-3.2,4.3-5.3C357.7,125.6,345.4,121.8,334.8,120.8z"/>
			<path d="M337,144.8c-3.6,0-7.1-0.5-10.2-1.2c-8.4-2-16-5.9-22.8-9.4c-0.7-0.3-1-1.1-0.9-1.8c0.1-0.7,0.7-1.3,1.4-1.4
				c4.2-0.8,8-2.5,10.6-4.7c0.6-0.5,1.1-1.1,1.7-1.6c1.2-1.2,2.4-2.4,4.1-3.4c4.6-2.7,10.8-2.6,14.1-2.2c6.1,0.6,16.8,2.5,20.6,8.3
				c1.5,2.3,1.7,4.9,0.7,7.7c-0.8,2.4-2.5,4.5-5,6.1C347.4,143.8,342.2,144.8,337,144.8z M309.6,133.2c5.6,2.8,11.5,5.5,18,7
				c8.6,2,17.1,1.2,21.9-1.9c1.8-1.2,3.1-2.7,3.6-4.4c0.6-1.8,0.5-3.3-0.4-4.7c-2.1-3.3-8.8-5.8-18-6.7l0,0
				c-4.9-0.5-9.3,0.2-12.1,1.8c-1.3,0.8-2.3,1.8-3.4,2.8c-0.6,0.6-1.2,1.2-1.9,1.8C315.3,130.7,312.6,132.2,309.6,133.2z"/>
		</g>
		<g>
			<path style="fill:#FFC9CA;" d="M253.7,304.7c6,0.1,12,2.3,16.8,6c3.4,2.6,6.4,6.1,10.6,6.9c5.1,1,10.3-2.9,11.9-7.8
				c1.6-4.9,0.1-10.5-2.9-14.8c-2.1-3-5.2-5.7-8.9-6.2c-2.6-0.4-5.3,0.4-7.8,1.3c-8.7,3.3-16.5,8.8-22.4,15.8"/>
			<path d="M282.7,319.5c-0.6,0-1.2-0.1-1.9-0.2c-3.7-0.7-6.4-3-9-5.3c-0.8-0.7-1.6-1.3-2.3-1.9c-4.5-3.5-10.1-5.5-15.8-5.6
				c-0.2,0-0.4-0.1-0.6-0.1c-0.2,0.3-0.5,0.5-0.7,0.8c-0.6,0.7-1.7,0.8-2.4,0.2c-0.7-0.6-0.8-1.7-0.2-2.4c6.2-7.3,14.2-13,23.2-16.3
				c2.5-0.9,5.5-1.9,8.7-1.4c3.8,0.5,7.3,3,10.1,6.9c3.6,5.1,4.8,11.2,3.1,16.3C293,315.7,287.8,319.5,282.7,319.5z M256,303.1
				c5.6,0.6,11.1,2.7,15.5,6.2c0.8,0.7,1.7,1.4,2.5,2c2.4,2.1,4.7,4,7.4,4.5c4,0.7,8.6-2.3,10-6.7c1.3-4,0.3-9-2.7-13.2
				c-1.3-1.8-4-4.9-7.7-5.4c-2.4-0.3-4.9,0.5-7,1.2C267.3,294.3,261.2,298.2,256,303.1z"/>
		</g>
		<g>
			<path style="fill:#FFC9CA;" d="M42.7,243c-5-3.5-8.8-8.5-10.7-14.3c-1.4-4.1-2-8.7-5-11.6c-3.7-3.6-10.2-3.3-14.3-0.1
				S6.8,225.8,7,231c0.1,3.7,1.2,7.6,4,10.1c2,1.8,4.7,2.6,7.3,3.2c9,2.1,18.6,1.8,27.4-0.8"/>
			<path d="M30.5,247.4c-4.2,0-8.5-0.5-12.6-1.4c-2.6-0.6-5.6-1.5-8-3.6c-2.8-2.5-4.5-6.5-4.6-11.3c-0.2-6.3,2.2-12,6.4-15.3
				c5-4,12.4-3.9,16.6,0.2c2.7,2.6,3.7,6.1,4.6,9.4c0.3,1,0.6,2,0.9,2.9c1.8,5.4,5.4,10.2,10.1,13.4c0.2,0.1,0.3,0.3,0.5,0.5
				c0.3-0.1,0.7-0.2,1-0.3c0.9-0.3,1.9,0.3,2.1,1.2s-0.3,1.9-1.2,2.1C41.1,246.6,35.8,247.4,30.5,247.4z M20.1,216.3
				c-2.2,0-4.5,0.7-6.3,2.2c-3.3,2.7-5.2,7.3-5.1,12.5c0.1,2.2,0.6,6.3,3.4,8.8c1.8,1.6,4.3,2.3,6.5,2.8c7,1.6,14.2,1.8,21.2,0.5
				c-4.4-3.6-7.7-8.4-9.5-13.7c-0.3-1-0.6-2.1-0.9-3.1c-0.9-3.1-1.7-5.9-3.7-7.9C24.3,217,22.3,216.3,20.1,216.3z"/>
		</g>
		<g>
			<path style="fill:#FFE6F2;" d="M-29.2,278.9c24.9,1,52.7,16.5,54.1,41.4c16.8-12.9,46,1.2,46.4,22.4
				c17.6-1.8,35.2,12.8,36.6,30.4c33.5-8.2,71.4,16.2,77.8,50.1c29.8-0.7,60.5,11.2,78.8,34.7c18.3,23.5,21.6,58.9,4.7,83.4
				c-14.2,20.5-38.9,30.5-62.5,38.3C141.3,600.9,72.8,612.9,4,615c-34.9,1.1-70.3-0.5-103.7-10.7c-21-6.4-41.8-17-54.2-35.1
				c-12.8-18.8-14.6-42.8-15.2-65.5c-1.1-44.8,1.1-89.8,6.5-134.3c2.3-18.6,5.3-37.6,14.1-54.1C-128.1,277.3-67.8,277.4-29.2,278.9z
				"/>
			<path style="fill:#FFC8E1;" d="M-161.7,358.3c25.5-1.2,51.5-2.3,76,5.7c24.4,8.1,47.4,27.2,54.3,54.1
				c10.5-14.2,28.4-21.3,44.8-17.9s30.5,17.5,35.4,35c10.6-3.9,22.6-6.6,32.8-1.6s16.8,20.3,10.2,30.2c16.9-1.6,34.3-3.1,50.4,3
				c16,6,30.3,21.7,30.2,40.4c18.5-5.3,38.8-8,56.1,0.8s29.5,32.5,21.4,51.5c0,0-113.8,60.6-278.2,55.6c0,0-140.8,1.6-140.1-94.7
				c0,0-0.7-82.4,1.5-107.8L-161.7,358.3z"/>
			<path d="M-14.2,616.8c-26,0-56.4-2.1-85.9-11.1c-25.7-7.9-44.2-19.9-55-35.7c-13.2-19.4-14.9-44.4-15.4-66.3
				c-1.1-44.8,1.1-90,6.6-134.5c2.3-18.3,5.2-37.7,14.3-54.6c9.1-17,27.2-28.4,53.8-33.8c22-4.4,46.1-4.2,66.8-3.4
				c25.3,1,52.2,16.2,55.3,40.2c8.1-4.9,18.8-5,28.7-0.2c10.3,5,17,13.9,17.8,23.7c8.3-0.4,16.9,2.6,23.9,8.4
				c6.9,5.8,11.4,13.6,12.6,21.8c16-3.4,33.6,0.2,48.6,9.9c15.2,9.8,25.7,24.5,29.2,40.6c14.8-0.2,29.7,2.7,43.1,8.4
				c14.5,6.2,26.8,15.5,35.7,26.9c9.2,11.8,14.8,26.8,15.9,42.2c1.1,15.8-2.9,31.1-11.1,43c-14.3,20.6-38.9,30.8-63.3,38.8
				c-65.7,21.5-134,33.4-203.1,35.5C-1.7,616.7-7.8,616.8-14.2,616.8z M-50.1,280c-15,0-30.6,0.9-45.3,3.8
				c-25.7,5.2-43,16-51.7,32.2c-8.8,16.5-11.7,35.5-13.9,53.6c-5.4,44.3-7.6,89.4-6.5,134c0.5,21.5,2.2,46,14.9,64.7
				c10.4,15.3,28.3,26.9,53.4,34.5C-62.9,613.9-25,614.3,4,613.4c68.8-2.1,136.8-14,202.2-35.4c24-7.8,48-17.8,61.7-37.7
				c7.9-11.4,11.6-25.9,10.6-41.1c-1-14.7-6.4-29.1-15.2-40.5c-8.6-11-20.5-20-34.5-26c-13.4-5.7-28.3-8.5-43.1-8.1
				c-0.7,0-1.4-0.5-1.5-1.3c-3-15.8-13.2-30.3-28.1-39.8c-14.9-9.6-32.3-12.9-47.9-9.1c-0.4,0.1-0.9,0-1.3-0.2
				c-0.4-0.3-0.6-0.7-0.6-1.1c-0.7-8-4.9-15.8-11.7-21.4c-6.8-5.6-15.2-8.4-23.2-7.6c-0.4,0-0.9-0.1-1.2-0.4
				c-0.3-0.3-0.5-0.7-0.5-1.1c-0.2-9.2-6.3-17.9-16.1-22.6c-9.8-4.7-20.4-4.2-27.8,1.4c-0.5,0.3-1.1,0.4-1.6,0.2
				c-0.5-0.2-0.9-0.7-0.9-1.3c-0.8-14-10-23.2-17.6-28.5c-9.8-6.8-22.5-11-35-11.4C-35.9,280.2-42.9,280-50.1,280z"/>
		</g>
		<g>
			<path style="fill:#FFE6F2;" d="M773.5,81.4c-13,0.3-23.8,14.3-20.7,26.9c-0.1-0.3-12.6,4.9-13.5,5.5c-4.4,2.9-7.8,7.1-8.2,12.6
				c-0.2,2.1,1.8,14.5,5.6,13.7c-5.2,1.1-9.9,5.2-10.9,10.4c-2.5,13.4,15.3,13.4,23.9,16c10.4,16.3,35.9,20,50.5,7.5
				c15.9,14.6,39.2,20.7,60.3,15.7c3.1-0.7,21.1,10.7,26.3,11.7c10.8,2.2,20.8-1.8,31.1-0.6c19.6,2.3,38,15.3,58.5,18.2
				c6.5,0.9,13.7,1.3,19.1-2.5c6-4.2,8-12.2,8.8-19.5c2.2-19,0.3-38.3-2.1-57.3c-4.3-33-10.1-65.8-17.6-98.2
				c-6.7-28.9-20.8-42.9-51.3-44c-20.9-0.7-42.7-0.2-63.7,0.6c-22.8,0.9-95,5.2-71.7,45.3C778.1,43.2,762.1,62.9,773.5,81.4z"/>
			<path style="fill:#FFC8E1;" d="M996.7,104.6c-8.9-5.4-18.2-11-28.6-11.9c-10.4-0.9-22.1,4.4-25,14.5
				c-6.9-14.8-31.8-15.7-39.8-1.4c-8-11.5-20.9-19.4-34.7-21.3c-0.2,3.4-0.4,6.8-0.6,10.3c-11.9-0.5-23.9-0.9-35.8-1.4
				c3.5,2.6,7.2,5.4,9.2,9.4c2,3.9,1.6,9.4-2,12c-2.5,1.8-5.9,1.7-9.1,1.5c-10.1-0.8-20.1-2.4-29.9-4.8c-1.3,2.5-2.7,5.1-4,7.6
				c-5.6-3.9-13.5-1.8-19,2.1c-5.6,3.9-9.9,9.4-15.5,13.2c-8.1,5.5-18.9,6.8-28.1,3.6c0,0,2.6,2-5.1,6.8c0,0-11.1,13,6.4,18.4
				c0,0,10.6,3.1,14.5,3.4c0,0,16.4,20.1,36.7,14.2c0,0,9-2.6,13.8-6.7c0,0,27.4,24.2,60.3,15.7c0,0,20.1,9.2,26.3,11.7
				c0,0,18.7,0.6,28.1-0.8c0,0,22.5,3.7,30.4,8.5c0,0,40.5,19.1,52.3,5.7c0,0,8.4-7.4,7.7-29.6c0,0-2.3-48.7-5.1-59.8L996.7,104.6z"
				/>
			<path d="M983.6,221.1c-2.6,0-5.2-0.3-7.7-0.6c-10.3-1.5-20.1-5.4-29.7-9.3c-9.8-4-19.1-7.7-28.8-8.9c-4.5-0.5-8.9,0-13.6,0.5
				c-5.6,0.7-11.5,1.3-17.6,0.1c-2.6-0.5-7.6-3.1-12.9-5.9c-4.5-2.4-11.3-5.9-12.7-5.8c-5,1.2-10.2,1.8-15.3,1.8
				c-16.5,0-32.8-6-45.3-17c-7.2,5.7-17,8.1-27,6.6c-10.3-1.5-19.2-6.9-24.4-14.7c-1.5-0.4-3.4-0.8-5.3-1.2
				c-9-1.8-21.4-4.2-19.1-16.4c0.9-4.6,4.3-8.6,8.8-10.6c-2.6-3.7-3.6-11.7-3.5-13.4c0.5-5.4,3.5-10.1,8.9-13.7
				c0.8-0.6,6.6-2.9,7.2-3.2c2.7-1.1,4.3-1.8,5.4-2.1c-1-6.1,0.8-12.5,4.9-17.9c3.9-5.1,9.3-8.4,15.1-9.2
				c-3.9-7.6-3.8-16.1,0.4-23.4c4.7-8.4,13.9-13.9,23.7-14.7c-4.3-8.4-4.7-15.8-1.2-22.2c4.7-8.6,16.7-15,35.5-18.9
				c11.1-2.3,24.2-3.7,39.9-4.3c19.3-0.7,41.9-1.4,63.8-0.6c15.4,0.5,27,4.5,35.5,11.9c8.2,7.2,13.6,17.8,17.2,33.2
				c7.5,32.3,13.4,65.4,17.7,98.3c2.3,17.5,4.5,37.8,2.1,57.7c-0.8,6.5-2.6,15.8-9.5,20.6C992.4,220.3,988,221.1,983.6,221.1z
				 M913.5,199c1.4,0,2.9,0.1,4.3,0.2c10.1,1.2,20,5.2,29.6,9.1c9.3,3.8,19,7.7,28.9,9.1c6.1,0.9,13,1.3,18-2.2
				c2.8-2,6.7-6,8.2-18.4c2.3-19.5,0.1-39.6-2.1-56.9c-4.2-32.8-10.2-65.8-17.6-98C976,12.5,961.6,0.1,933-0.9
				c-21.8-0.8-44.4-0.1-63.6,0.6c-51.4,2-68,12.9-72.8,21.7c-3.2,5.9-2.4,13,2.4,21.4c0.3,0.5,0.3,1.1,0,1.5
				c-0.3,0.5-0.8,0.8-1.3,0.8c-9.7-0.1-19,5.1-23.6,13.2c-4,7.1-3.8,15.1,0.7,22.4c0.3,0.5,0.3,1.1,0,1.5c-0.3,0.5-0.8,0.8-1.3,0.8
				c-5.6,0.1-11.3,3.2-15.2,8.2c-3.9,5-5.4,11.3-4.1,16.8c0,0,0,0,0,0c0,0,0,0,0,0c0.2,0.8-0.3,1.7-1.1,1.9c-0.1,0-0.2,0-0.3,0
				c-1.7,0.5-11.8,4.7-12.7,5.2c-3.2,2.1-7.1,5.8-7.5,11.4c-0.1,1.5,1.2,10,3.4,11.9c0.1,0.1,0.3,0.2,0.4,0.2c0,0,0,0,0,0
				c0.8-0.2,1.6,0.4,1.8,1.2c0.2,0.8-0.4,1.6-1.2,1.8c0,0,0,0,0,0c-4.8,1-8.8,4.8-9.7,9.2c-1.6,8.5,5.9,10.7,16.6,12.8
				c2.3,0.4,4.4,0.9,6.2,1.4c0.4,0.1,0.7,0.3,0.9,0.6c4.7,7.4,12.9,12.4,22.6,13.9c9.6,1.4,19-1,25.6-6.7c0.6-0.5,1.5-0.5,2,0
				c7.6,7,17.2,12.1,27.6,14.9c10.4,2.7,21.2,2.9,31.3,0.5c2-0.5,6.1,1.5,14.8,6.1c4.7,2.4,10,5.2,12.1,5.6
				c5.6,1.1,11.2,0.5,16.6-0.1C906.8,199.4,910.1,199,913.5,199z M751.2,108.7c0.1,0.4,0.3,0.6,0.5,0.8
				C751.5,109.3,751.3,109,751.2,108.7z"/>
			<g>
				<path style="fill:#B77A5C;" d="M870.1,144.8l58.1,77c0,0,5.6,5.1,9.6,20.3c4,15.2,16.2,55.5,16.2,55.5l36.4-26.7l-24.2-69.1
					l-2-60.2H952c0,0,1.4,63.5-6.9,59.3c-8.3-4.2-52.4-59.3-52.4-59.3S886.2,151.5,870.1,144.8z"/>
				<path d="M954,299.2c-0.2,0-0.3,0-0.5-0.1c-0.5-0.2-0.9-0.6-1-1.1c-0.1-0.4-12.2-40.4-16.2-55.5c-3.8-14.5-9.1-19.5-9.2-19.5
					c-0.1-0.1-0.1-0.1-0.2-0.2l-58.1-77c-0.4-0.6-0.4-1.4,0-2c0.4-0.6,1.2-0.8,1.9-0.5c14.7,6.1,20.5-2.5,20.6-2.6
					c0.3-0.4,0.8-0.7,1.3-0.7c0.5,0,1,0.2,1.3,0.6c12.2,15.3,45.4,55.6,51.9,58.9c0,0,0,0,0,0c0.5-0.4,3.3-3.4,4.3-29.4
					c0.5-14.2,0.2-28.3,0.2-28.4c0-0.4,0.2-0.9,0.5-1.2c0.3-0.3,0.7-0.5,1.2-0.5h12.1c0.9,0,1.6,0.7,1.6,1.6l2,60l24.2,68.8
					c0.2,0.7,0,1.4-0.6,1.8L955,298.8C954.7,299.1,954.4,299.2,954,299.2z M929.4,220.7c0.9,0.9,6.1,6.5,10,21
					c3.4,13,12.9,44.6,15.5,53.2l33.6-24.6l-23.8-67.9c-0.1-0.2-0.1-0.3-0.1-0.5l-2-58.7h-8.9c0.1,4.1,0.2,15.2-0.2,26.5
					c-0.9,26.1-3.6,31.1-5.9,32.5c-1,0.6-2.1,0.7-3.1,0.1c-7.8-4-43.7-48.2-51.8-58.3c-1,0.9-2.5,2.1-4.5,3.1
					c-2.9,1.3-7.4,2.3-13.6,0.8L929.4,220.7z M945.9,199.5L945.9,199.5L945.9,199.5z"/>
			</g>
		</g>
		<g>
			<g>
				<path style="fill:#B77A5C;" d="M464.7,280c-0.7,5.6-2.6,12.5,1.9,15.9c1.3,1,2.9,1.4,4.5,1.8c6,1.3,12.3,1.3,18.3,0.1
					c-0.6-8.1-0.5-16.2,0.4-24.3c0.5-4.5,1.3-9.1,3.9-12.7c3.2-4.4,8.5-6.6,13.2-9.1c16.1-8.5,28.9-23.1,35.2-40.2
					c-2.6-3.3-7.3-6.9-10.5-4.2c-0.9,0.7-1.4,1.8-1.9,2.8c-7.3,14.4-18.8,26.7-32.7,35c-7.2,4.3-16.4,7.4-23.6,3.2
					c0.9-11.9,0.5-23.9-1-35.7c-2.9,0-5.7-0.1-8.6-0.1c1.1,4.4,0.6,9.1-1.4,13.2c-0.5,1.1-1.2,2.2-2.4,2.6c-1.8,0.6-3.5-0.7-4.9-2
					c-4.3-4.3-8-9.1-11-14.4c-12.9,2.4,3.4,25.3,7.6,32.1C458.5,254.8,466.4,266.6,464.7,280z"/>
				<path d="M480.7,300.3c-3.3,0-6.6-0.3-9.8-1c-1.8-0.4-3.6-0.9-5.1-2.1c-4.6-3.5-3.7-9.6-2.9-14.9c0.1-0.8,0.2-1.7,0.3-2.5l0,0
					c1.5-12.2-5.2-22.9-11.7-33.3l-1-1.6c-0.4-0.6-0.9-1.4-1.5-2.3c-6.6-10.2-13.4-21.7-10.6-28.2c0.6-1.5,2.1-3.4,5.5-4
					c0.7-0.1,1.4,0.2,1.7,0.8c2.9,5.2,6.5,9.9,10.7,14c1,0.9,2.3,2,3.2,1.7c0.5-0.2,1-0.7,1.4-1.8c1.8-3.7,2.3-8.1,1.3-12.1
					c-0.1-0.5,0-1,0.3-1.4c0.3-0.4,0.8-0.6,1.3-0.6l8.6,0.1c0.8,0,1.5,0.6,1.6,1.4c1.5,11.6,1.9,23.4,1.1,35
					c7.1,3.5,16.2-0.7,21.1-3.7c13.6-8.1,25-20.3,32.1-34.4l0-0.1c0.5-1.1,1.2-2.3,2.3-3.2c1.2-1,2.7-1.5,4.3-1.3
					c4,0.4,7.5,4.5,8.5,5.7c0.4,0.4,0.4,1,0.3,1.6c-6.4,17.4-19.5,32.4-35.9,41c-0.7,0.4-1.5,0.8-2.2,1.2c-3.9,2-8,4.1-10.4,7.5
					c-2.3,3.1-3.1,7-3.6,11.9c-0.9,7.9-1,16-0.4,24c0.1,0.8-0.5,1.5-1.3,1.7C486.8,300,483.7,300.3,480.7,300.3z M466.3,280.2
					c-0.1,0.8-0.2,1.7-0.4,2.5c-0.7,4.7-1.4,9.5,1.6,11.9c1,0.8,2.5,1.2,3.9,1.5c5.3,1.1,10.9,1.3,16.3,0.4
					c-0.5-7.7-0.3-15.5,0.5-23.1c0.5-4.7,1.4-9.6,4.2-13.5c2.9-4,7.3-6.3,11.6-8.4c0.7-0.4,1.5-0.8,2.2-1.1
					c15.4-8.2,27.8-22.1,34.1-38.4c-1.9-2.2-4.1-3.6-5.7-3.8c-0.7-0.1-1.3,0.1-1.9,0.6c-0.6,0.5-1,1.3-1.4,2.2l0,0.1
					c-7.4,14.6-19.2,27.3-33.3,35.7c-5.7,3.4-16.6,8.3-25.3,3.2c-0.5-0.3-0.8-0.9-0.8-1.5c0.8-11.3,0.5-22.8-0.8-34l-5.2-0.1
					c0.6,4.2-0.1,8.4-1.9,12.3c-0.6,1.2-1.5,2.8-3.3,3.4c-3,1.1-5.7-1.6-6.5-2.4c-4.1-4.1-7.7-8.7-10.6-13.7
					c-1.4,0.5-1.8,1.3-2.1,1.9c-2.3,5.5,6.6,19.3,10.4,25.2c0.6,0.9,1.1,1.7,1.5,2.3l1,1.6C460.6,255.1,468,266.9,466.3,280.2
					L466.3,280.2z"/>
			</g>
			<g>
				<path style="fill:#FFE6F2;" d="M440.3,90.1c-3.6,4.5-6.1,10.4-11.3,13.1c-2.7,1.4-5.7,1.8-8.7,2.6
					c-13.9,3.6-24.9,16.3-26.6,30.6c-0.1,1.1-12.2,0.3-13.6,0.6c-6.1,1.3-11.2,4.8-15.2,9.6c-1.8,2.2-10,15.4-3.3,17.4
					c-5.3-1.6-11.6-0.6-15.4,3.3c-3.9,4-4.6,10.9-1,15.1c-5.7-1.6-9.1,0.5-13.5,3.9c-4.2,3.3-7.6,8.5-6.3,13.7
					c1.3,5.2,9.1,7.9,12.2,3.6c-1.3,7.8,6.8,14.1,14.5,16.1c7.7,1.9,16.1,1.6,23,5.5c3.9,2.2,7,5.7,10.8,8.2
					c18.6,12.4,43.1-2,65.5-1.8c17.6,0.2,36.7,9.4,51.6,0c2.7-1.7,5-3.9,7.9-5.2c3.9-1.7,8.4-1.3,12.7-1.1
					c14.9,0.7,29.9-0.7,44.4-4.3c6.7-1.6,14.3-4.8,15.6-11.6c10,4,22.7,3.1,30-4.9c7.3-8,5.3-23.3-4.8-27c8.1-7.3,8.9-21.2,1.8-29.4
					s-21-9.4-29.4-2.5c-3.3-14.4-18.3-25.2-33-23.5c2.4-7.2,0.1-15.7-5.4-20.8c-5.6-5.1-14.2-6.6-21.2-3.6
					c3.8-1.6-11.6-16-13.1-16.9c-6.3-3.8-13.1-4.5-20.1-5C472.1,74.7,451.1,76.5,440.3,90.1z"/>
				<path style="fill:#FFC8E1;" d="M617.8,195c-14.8,5.4-31.4,3.1-46.5-1.7c-15-4.8-29.2-12-44.4-16.5c-5.8-1.7-12-3-18-1.7
					c-5.9,1.4-11.5,6-12.1,12.1c-5.3-0.9-9.3-5.1-13.4-8.7c-4-3.6-9.2-6.9-14.5-5.6s-7.8,9.7-3,12c-12.3-6.2-26.2-9.2-39.9-8.8
					c-0.8,5.2,2.5,10.7,7.4,12.5c-9.6-2.7-20.6,0.1-27.6,7.1c-3.2,3.2-5.6,7.1-8.8,10.3c-14.2,14.2-37.8,10-57.2,4.8
					c0,0,2.6,10.2,27.9,11.6c0,0,9.1,2.4,18.3,11c0,0,10.5,11,44.6,0.9c0,0,18.7-5.6,42.3,0c0,0,21.6,7.3,38.2-8
					c0,0,6.7-1.3,12.7-1.1c0,0,38.5,0.9,53.9-7.9c0,0,5.6-4.2,6.1-7.9c0,0,15.8,5.5,24.9-0.8c0,0,6.9-4.1,8.6-10.1L617.8,195z"/>
				<path d="M404.2,239.7c-6.7,0-13.1-1.3-19-5.2c-1.7-1.1-3.3-2.5-4.8-3.7c-1.9-1.6-3.8-3.2-5.9-4.4c-4.3-2.4-9.2-3.1-14.4-3.9
					c-2.7-0.4-5.6-0.8-8.3-1.5c-7.5-1.9-14.8-7.4-15.6-14.6c-1.3,0.6-2.9,0.8-4.6,0.5c-3.6-0.7-6.6-3.4-7.4-6.6
					c-1.5-6.1,2.7-11.9,6.7-15c3.7-2.9,7.1-5.1,11.7-4.7c-2-4.5-1-10.4,2.7-14.2c3.2-3.2,7.9-4.8,12.8-4.4c-1.6-5.4,5-15.1,5.9-16.3
					c4.4-5.2,9.9-8.7,15.9-10c0.6-0.1,1.7-0.1,4.6-0.1c2.4,0,6.6,0.1,8.1-0.1c2-14.6,13.2-27.3,27.5-31c0.8-0.2,1.6-0.4,2.3-0.6
					c2.2-0.5,4.2-1,6.1-1.9c3.3-1.8,5.5-5,7.8-8.4c1-1.5,2-3,3.1-4.3l0,0c11.3-14.2,33-15.9,49.2-14.8c6.9,0.4,14.1,1.2,20.7,5.2
					c1,0.6,12.5,10.9,14.1,16c7-2,15-0.3,20.4,4.6c5.5,5,7.9,13.1,6.3,20.3c14-0.6,28,9.3,32.1,22.8c9.1-6.1,22.4-4.5,29.6,3.9
					c7.2,8.3,6.8,21.8-0.6,29.9c3.7,2,6.5,5.7,7.6,10.4c1.6,6.4,0,13.4-4.1,17.9c-3.6,4-8.7,6.5-14.7,7.3c-5,0.7-10.4,0.1-15.3-1.6
					c-1.7,5.2-7.1,8.9-16.2,11.1c-14.6,3.5-29.7,5-44.7,4.3l-0.8,0c-3.9-0.2-7.9-0.4-11.3,1.1c-1.7,0.7-3.3,1.9-4.9,3.1
					c-0.9,0.7-1.9,1.4-2.9,2c-10.4,6.6-22.8,4.4-34.9,2.3c-5.8-1-11.7-2-17.4-2.1c-0.2,0-0.3,0-0.5,0c-7.7,0-15.8,1.8-23.6,3.4
					C419.6,238,411.7,239.7,404.2,239.7z M337.6,202.4c0.2,0,0.3,0,0.5,0.1c0.5,0.2,0.9,0.8,0.8,1.4c-1.1,6.7,6,12.7,13.6,14.6
					c2.6,0.7,5.4,1.1,8.1,1.4c5.2,0.7,10.6,1.5,15.3,4.2c2.3,1.3,4.3,3,6.3,4.7c1.5,1.2,3,2.5,4.6,3.6c11.5,7.7,25.4,4.7,40.1,1.5
					c8.1-1.8,16.6-3.6,24.7-3.5c5.9,0.1,12,1.1,17.8,2.1c12.1,2.1,23.5,4.1,33.1-2c0.9-0.6,1.8-1.2,2.7-1.9c1.7-1.2,3.4-2.5,5.4-3.4
					c4-1.7,8.3-1.5,12.4-1.3l0.8,0c14.8,0.7,29.6-0.7,44-4.2c8.8-2.1,13.7-5.7,14.6-10.6c0.1-0.4,0.3-0.7,0.6-0.9
					c0.3-0.2,0.7-0.2,1.1-0.1c12.3,4.9,23.5,1,28.6-4.6c3.5-3.9,4.9-10,3.5-15.5c-1.1-4.6-4-8-7.8-9.4c-0.4-0.2-0.7-0.5-0.8-1
					c-0.1-0.4,0.1-0.9,0.4-1.2c7.5-6.8,8.3-20,1.7-27.7c-6.6-7.7-19.8-8.8-27.6-2.4c-0.3,0.3-0.8,0.4-1.2,0.2
					c-0.4-0.1-0.7-0.5-0.8-0.9c-3.1-13.8-17.6-24.1-31.6-22.5c-0.4,0-0.9-0.1-1.1-0.5c-0.3-0.3-0.4-0.8-0.2-1.2
					c2.2-6.7,0.1-14.7-5.1-19.5c-5.2-4.8-13.4-6.2-19.8-3.4l0,0c-0.6,0.3-1.4,0-1.7-0.7c-0.3-0.6,0-1.3,0.5-1.6
					c-0.2-2.6-10.9-13.4-13.1-14.7c-6.1-3.7-12.7-4.4-19.5-4.8c-15.6-1-36.4,0.6-47,13.9c-1,1.3-2,2.8-3,4.2
					c-2.4,3.5-4.8,7.2-8.7,9.3c-2.1,1.1-4.5,1.7-6.7,2.2c-0.7,0.2-1.5,0.3-2.2,0.5c-13.3,3.5-24.1,15.9-25.7,29.5
					c-0.2,1.7-2.1,1.9-10.6,1.7c-1.6,0-3.6-0.1-4,0c-5.4,1.2-10.4,4.3-14.4,9.1c-1.8,2.2-6.5,10.3-5.5,13.9c0.2,0.8,0.7,1.2,1.5,1.5
					c0.7,0.2,1.1,0.9,0.8,1.6c-0.2,0.7-0.9,1.1-1.6,0.8c-5.1-1.6-10.8-0.4-14.2,3c-3.6,3.6-4,9.9-1,13.4c0.4,0.4,0.4,1.1,0.1,1.5
					c-0.3,0.5-0.9,0.7-1.4,0.5c-5.1-1.5-8.3,0.5-12.4,3.7c-3.4,2.7-7,7.5-5.8,12.4c0.6,2.5,3.2,4.3,5.4,4.7c0.9,0.2,3.2,0.4,4.5-1.5
					C336.8,202.6,337.2,202.4,337.6,202.4z M440.3,90.1L440.3,90.1L440.3,90.1z"/>
			</g>
		</g>
	</g>
</g>
</svg>
