<?xml version="1.0" encoding="utf-8"?>
<!-- Generator: Adobe Illustrator 24.3.0, SVG Export Plug-In . SVG Version: 6.00 Build 0)  -->
<!DOCTYPE svg PUBLIC "-//W3C//DTD SVG 1.1//EN" "http://www.w3.org/Graphics/SVG/1.1/DTD/svg11.dtd" [
	<!ENTITY ns_extend "http://ns.adobe.com/Extensibility/1.0/">
	<!ENTITY ns_ai "http://ns.adobe.com/AdobeIllustrator/10.0/">
	<!ENTITY ns_graphs "http://ns.adobe.com/Graphs/1.0/">
	<!ENTITY ns_vars "http://ns.adobe.com/Variables/1.0/">
	<!ENTITY ns_imrep "http://ns.adobe.com/ImageReplacement/1.0/">
	<!ENTITY ns_sfw "http://ns.adobe.com/SaveForWeb/1.0/">
	<!ENTITY ns_custom "http://ns.adobe.com/GenericCustomNamespace/1.0/">
	<!ENTITY ns_adobe_xpath "http://ns.adobe.com/XPath/1.0/">
]>
<svg version="1.1" id="레이어_1" xmlns:x="&ns_extend;" xmlns:i="&ns_ai;" xmlns:graph="&ns_graphs;"
	 xmlns="http://www.w3.org/2000/svg" xmlns:xlink="http://www.w3.org/1999/xlink" x="0px" y="0px" viewBox="0 0 960 540"
	 style="enable-background:new 0 0 960 540;" xml:space="preserve">
<style type="text/css">
	.st0{fill:#2E2D4C;}
	.st1{fill:#BDA577;}
	.st2{fill:#D0CBA5;}
	.st3{fill:#3E7C9E;}
	.st4{fill:#58A2CC;}
	.st5{fill:#457CB5;}
	.st6{opacity:0.72;fill:#53A0C1;enable-background:new    ;}
	.st7{fill:#AAB26F;}
	.st8{fill:#A3A84E;}
	.st9{fill:#737A59;}
	.st10{fill:#375D96;}
	.st11{fill:#7D4E77;}
	.st12{fill:#92638F;}
	.st13{fill:#6C4266;}
	.st14{fill:#BFA125;}
	.st15{fill:#D6BA32;}
	.st16{fill:#A77A91;}
	.st17{fill:#8B5974;}
	.st18{fill:#93637B;}
	.st19{fill:#7F8F4E;}
	.st20{fill:#355D97;}
	.st21{fill:#9A6A82;}
	.st22{fill:#CEBF57;}
	.st23{fill:#545C3B;}
	.st24{fill:#824D70;}
	.st25{fill:#7A8758;}
	.st26{fill:#8F5875;}
	.st27{fill:#98A032;}
	.st28{fill:#9C7743;}
	.st29{fill:#CC9E5C;}
	.st30{fill:#517261;}
	.st31{fill:#889656;}
	.st32{fill:#453B53;}
	.st33{fill:#352F3F;}
	.st34{fill:#A29453;}
	.st35{fill:#5F476A;}
	.st36{fill:#70547F;}
	.st37{fill:#7D8C3B;}
	.st38{fill:#87814D;}
	.st39{fill:#9E945C;}
	.st40{fill:#A1935B;}
	.st41{fill:#A1945B;}
	.st42{fill:#939E57;}
	.st43{fill:#A1935C;}
	.st44{fill:none;}
	.st45{fill:#F9BB69;}
	.st46{fill:#DDAC5E;}
	.st47{opacity:0.59;fill:#99764F;enable-background:new    ;}
	.st48{opacity:0.79;fill-rule:evenodd;clip-rule:evenodd;fill:#FFFFFF;enable-background:new    ;}
	.st49{fill:#E5D58C;}
</style>
<metadata>
	<sfw  xmlns="&ns_sfw;">
		<slices></slices>
		<sliceSourceBounds  bottomLeftOrigin="true" height="540" width="960.3" x="0" y="0"></sliceSourceBounds>
	</sfw>
</metadata>
<g>
	<rect class="st0" width="960" height="540"/>
	<path class="st1" d="M875,339.7l-0.3,65.8l-317.2,9c-7.6,0.2-15.3,0.5-22.6,2.5c-8.6,2.4-16.3,7.2-24.3,11.2
		c-17.9,9-37.4,14.4-56.9,19.1c-79,18.8-160.3,26.2-241.4,22.2c-29.3-1.5-60.4-4.1-86.6,9.1c-7.2,3.7-13.9,8.5-21.7,10.9
		c-8.7,2.7-18,2.3-27.1,1.8l-65.8-3.7c-4.1-0.2-7.8-0.4-11.2-0.5V516c16.5,0.2,33.5,1.6,47.5,1.2c30.3-0.8,60.8-1.7,90.4-8.2
		c22.3-4.9,43.9-12.9,66.2-18.1c34.3-8,69.8-9,105-10.6c68.8-3.1,139.4-9,201.5-39c13.3-6.4,26.2-14,40.5-18
		c18.3-5.1,37.8-4.1,56.8-3.3c82.2,3.7,165,3.5,246.1-10.7c35.2-6.1,71.5-14.9,106.2-7.6v-62L875,339.7z"/>
	<path class="st1" d="M124,388c20-1,39-9,57-20c18-10,39-9,60-11c37-4,73-5,109-16c1.4-0.4,2.7-0.8,4-1.3H0v49.1
		C41.4,387.8,82.9,389.9,124,388z"/>
	<path class="st2" d="M853.9,409.4c-81,14.2-163.9,14.4-246.1,10.7c-19-0.9-38.5-1.9-56.8,3.3c-14.2,4-27.2,11.5-40.5,18
		c-62,30-132.6,35.9-201.4,39c-35.2,1.6-70.6,2.6-105,10.6c-22.3,5.2-43.8,13.2-66.2,18.1c-29.6,6.5-60.1,7.4-90.4,8.2
		c-14.1,0.4-31-1-47.5-1.2V540h960l0.1-138.2C925.4,394.5,889.1,403.3,853.9,409.4z"/>
	<path class="st3" d="M875,339.7c0-1.8,0-3.6,0-5.4l0,0V339.7z"/>
	<path class="st3" d="M874.7,400.5l-317.2,9c-7.6,0.2-15.3,0.5-22.6,2.5c-8.6,2.4-16.3,7.2-24.3,11.2c-17.9,9-37.4,14.4-56.9,19.1
		c-79,18.8-160.3,26.2-241.4,22.2c-29.3-1.5-60.4-4.1-86.6,9.1c-7.2,3.7-13.9,8.5-21.7,10.9c-8.7,2.7-18,2.3-27.1,1.8l-65.8-3.7
		c-4.1-0.2-7.8-0.4-11.2-0.5v5c3.4,0.1,7.1,0.3,11.2,0.5l65.8,3.7c9.1,0.5,18.4,1,27.1-1.8c7.7-2.4,14.4-7.3,21.7-10.9
		c26.2-13.3,57.2-10.6,86.6-9.1c81.1,4.1,162.4-3.4,241.4-22.2c19.5-4.6,39-10,56.9-19.1c8-4,15.7-8.8,24.3-11.2
		c7.3-2,15-2.3,22.6-2.5l317.2-9l0.3-65.8l0,0L874.7,400.5z"/>
	<path class="st4" d="M376.9,335c43.9,0.8,88.4,6.5,132.1,3c122.9-7.2,244.2-5.5,366-3.6c0-1.7,0-3.3,0-5
		c-121.8-1.9-243.1-3.5-366,3.6c-43.7,3.5-88.2-2.2-132.1-3c-7.4,3.8-15,7.1-22.9,9.7h13C370.3,338.2,373.6,336.7,376.9,335z"/>
	<path class="st4" d="M241,357c-21,2-42,1-60,11c-18,11-37,19-57,20c-41.1,1.9-82.6-0.2-124,0.8v5c41.4-1,82.9,1.1,124-0.8
		c20-1,39-9,57-20c18-10,39-9,60-11c37-4,73-5,109-16c5.8-1.8,11.5-3.9,17-6.3h-13c-1.3,0.5-2.7,0.9-4,1.3C314,352,278,353,241,357z
		"/>
	<path class="st4" d="M509,338c-43.7,3.5-88.2-2.2-132.1-3c-3.2,1.7-6.5,3.2-9.9,4.7h508v-5.4C753.2,332.5,631.9,330.8,509,338z"/>
	<path class="st4" d="M11.2,482.7l65.8,3.7c9.1,0.5,18.4,1,27.1-1.8c7.7-2.4,14.4-7.3,21.7-10.9c26.2-13.3,57.2-10.6,86.6-9.1
		c81.1,4.1,162.4-3.4,241.4-22.2c19.5-4.6,39-10,56.9-19.1c8-4,15.7-8.8,24.3-11.2c7.3-2,15-2.3,22.6-2.5l317.2-9l0.3-60.8H367
		c-5.5,2.4-11.2,4.5-17,6.2c-36,11-72,12-109,16c-21,2-42,1-60,11c-18,11-37,19-57,20c-41.1,1.9-82.6-0.2-124,0.8v88.4
		C3.4,482.3,7.1,482.4,11.2,482.7z"/>
	<path class="st5" d="M272.5,299.6c-43.6,0.5-76.1,7.9-124.8,7.1c-32.2-0.5-64.4,0.8-96.6,1.1L0,308.5v14.1
		c64.4,1.9,128.7,5.6,192.7-1c25.9-2.6,52-2.7,77.9-0.4c16.7,1.4,33.1,5.7,48.4,12.7c-10.2,3.7-21.2,3.6-32,4.3
		c-15.8,1-31.4,3.6-47.1,5.4C160.4,352.3,79.3,337.4,0,342v46.8c41.4-1,82.9,1.1,124-0.8c20-1,39-9,57-20c18-10,39-9,60-11
		c37-4,73-5,109-16c24.3-7.4,46.1-20.7,65.1-37.5C369.6,304.1,318,299.1,272.5,299.6z"/>
	<path class="st5" d="M239.9,343.5c15.7-1.7,31.4-4.4,47.1-5.4c10.8-0.7,21.9-0.6,32-4.3c-15.3-7-31.6-11.4-48.4-12.8
		c-25.9-2.3-52-2.2-77.9,0.4c-64,6.7-128.3,2.9-192.7,1V342C79.3,337.4,160.4,352.3,239.9,343.5z"/>
	<path class="st6" d="M239.9,343.5c15.7-1.7,31.4-4.4,47.1-5.4c10.8-0.7,21.9-0.6,32-4.3c-15.3-7-31.6-11.4-48.4-12.8
		c-25.9-2.3-52-2.2-77.9,0.4c-64,6.7-128.3,2.9-192.7,1V342C79.3,337.4,160.4,352.3,239.9,343.5z"/>
	<path class="st7" d="M716,504.6c-1.1,2-3.1,3.5-5.3,4.1c-3.6,0.9-7.4,0.4-11.1,0.7c-1.9,0.2-3.8-0.4-5.3-1.7
		c-2.8-2.6-1.2-5.9,1-7.8c4.5-3.8,10.8-3.4,16.2-3c1,0,2.1,0.3,3,0.8C717.4,499.4,717.3,502.3,716,504.6z"/>
	<path class="st7" d="M520.7,477c-1.1,2-3.1,3.5-5.4,4.1c-3.6,0.9-7.4,0.4-11.1,0.7c-1.9,0.2-3.8-0.4-5.3-1.7
		c-2.8-2.6-1.2-5.9,1-7.8c4.5-3.8,10.8-3.4,16.2-3c1,0,2,0.3,3,0.8C522,471.8,522,474.6,520.7,477z"/>
	<path class="st7" d="M596.9,452.5c-0.9,1.5-2.3,2.6-4,3c-2.7,0.7-5.5,0.3-8.2,0.5c-1.4,0.1-2.8-0.3-3.9-1.2
		c-2.1-1.9-0.9-4.4,0.8-5.8c3.3-2.8,8-2.5,12-2.2c0.8,0,1.5,0.2,2.2,0.6C597.9,448.5,597.8,450.7,596.9,452.5z"/>
	<path class="st7" d="M486.8,486.6c-0.5,1.4-1.7,2.6-3.1,3.1c-2.1,0.7-4.4,0.3-6.5,0.5c-1.2,0.1-2.4-0.3-3.1-1.3
		c-1.6-2-0.7-4.5,0.6-6c2.6-2.9,6.3-2.6,9.5-2.3c0.6,0,1.2,0.3,1.7,0.6C487.6,482.6,487.5,484.8,486.8,486.6z"/>
	<path class="st7" d="M516.5,498.9c-0.4,1-1.1,1.7-2.1,2c-1.4,0.5-2.9,0.2-4.3,0.4c-0.8,0.1-1.6-0.2-2-0.9c-0.9-1.2-0.7-2.9,0.4-3.9
		c1.8-1.9,4.2-1.7,6.3-1.5c0.4,0,0.8,0.2,1.2,0.4C516.9,496.3,517.1,497.8,516.5,498.9z"/>
	<path class="st7" d="M771.9,493.9c-1,1.4-2.5,2.3-4.2,2.5c-2.4,0.3-4.8-0.1-7.1-0.4s-5.1-1.1-5.5-3.4c-0.3-1.6,0.9-3,2.2-3.9
		c3.5-2.3,7.8-1.6,11.6-0.9c1,0.1,1.9,0.5,2.7,1.1C773.3,490.4,773,492.3,771.9,493.9z"/>
	<path class="st7" d="M741.8,513.3c-0.8,1.5-2.2,2.5-3.9,2.9c-2.3,0.6-4.7,0.4-7,0.5s-5.2-0.5-5.8-2.7c-0.4-1.5,0.5-3.1,1.7-4.1
		c3.2-2.7,7.5-2.5,11.4-2.2c1,0,2,0.3,2.8,0.8C742.7,509.7,742.7,511.6,741.8,513.3z"/>
	<path class="st7" d="M841.4,516.6c-0.8,1.5-2.2,2.6-3.9,2.9c-2.3,0.6-4.7,0.4-7,0.5s-5.2-0.5-5.8-2.7c-0.4-1.5,0.5-3.1,1.7-4.1
		c3.2-2.7,7.5-2.5,11.4-2.2c1,0,2,0.3,2.8,0.8C842.4,513,842.3,515,841.4,516.6z"/>
	<path class="st5" d="M509,333c122.9-7.2,244.2-5.5,366-3.6c0-10.4,0.8-23.3,0.8-33.7c-129.2,1.5-218,6.3-346.5,3.2
		c-24.1-0.6-90.1,4.4-114.2,4.7c-11.6,10.4-24.5,19.3-38.2,26.5C420.8,330.8,465.3,336.5,509,333z"/>
	<path class="st5" d="M896.4,331.4c-1.3,3.9-55.6,2.7-61.8,2.8c-21.9,0.5-43.8,0.7-65.7,0.6c-43.4-0.2-86.8-1.3-130.2-1.6
		s-86.6,0-129.8,2.6c-30.2,1.9-66.1-2.3-85.7,24.1c-3.7,5-7.7,9.8-11.9,14.4c7.9,2.1,14.6,6.3,19.6,13.7c10,17-22,25-39,28
		c-12.7,2.3-26.5,1.1-39.6,2.1c-14.3,1-28.9,7.3-42.5,11.4c-37.5,11.4-58.3,11.8-87.2,21.2c-1.5,0.5-2.4,2.2-1.9,3.7
		c0.4,1.2,1.5,2,2.7,2c84.9,2.4,172.6,1.4,252.2-27.1c21.7-7.8,40.9-19.9,63.1-26.3c20.9-6,42.5-8.8,64.1-11.6
		c97-12.6,194-25.1,291.5-32.9C892.9,349.4,893.6,340.2,896.4,331.4z"/>
	<path class="st8" d="M192.5,228.1c7.6-8.5,14-18,18.9-28.3c2.1-4.2,3.7-8.7,4.8-13.3l-1,14.4c2.9-3.7,4.8-8.1,5.4-12.7
		c4.3,1.5,6.9,6,8.6,10c1.5-3.6,1.3-7.7-0.6-11.2c-0.4-0.7-4.3-6.1-5.1-5.6c0,0,4.4-2.9,14.5-0.1c-2.8-4.9-10.3-8.3-15.7-7.6
		c-1.9,0.1-3.5,1.1-4.4,2.8c0.6-5.1-4.2-10.3-9-11.4c2.7,3.8,4.4,8.2,4.8,12.8c-2.5-3.2-6.9-4.6-10.9-4.1c-4,0.7-7.8,2.6-10.7,5.5
		c7-1.3,14.3-0.4,20.8,2.6c-6.2,3.9-11.4,9.2-15.1,15.6c5.1-2.9,10-6,14.7-9.4c-0.3,0.9-0.7,1.8-1.1,2.6c-3,5.1-5.1,9-7.8,13.5
		c-5.8,9.5-13.9,17.3-23,24.2c2.4,1.9,4.7,4,6.9,6.1C189.3,232.2,190.8,230.1,192.5,228.1z"/>
	<path class="st8" d="M194,250.6c4.8-3.6,9.1-7.9,12.7-12.6c1.5-2,2.8-4.1,3.9-6.4c0,0-1.3,5.5-2.5,7.6c2-1.4,3.6-3.4,4.6-5.6
		c2.7,1.9,2.9,6.5,2.9,6.6c0-0.3,0.8-1.3,0.9-1.6c0.3-0.7,0.5-1.4,0.6-2.2c0.2-2.3-0.9-4.5-2.9-5.7c0,0,3.7-0.9,8.4,2
		c-0.7-2.9-4-5.8-6.8-6.2c-1-0.2-2,0.1-2.6,0.7c1.1-2.5-0.6-5.8-2.9-7.1c0.8,2.3,1,4.8,0.5,7.2c-0.9-2-2.8-3.4-4.9-3.7
		c-2.1-0.3-4.3,0.2-6.2,1.2c3.8,0.4,7.3,1.9,10.1,4.4c-3.7,1-7.2,3-10,5.6c2.9-0.7,5.7-1.5,8.5-2.4c-0.2,0.3-0.4,0.6-0.6,0.8
		c-2.1,2.3-3.6,4.1-5.4,6.2c-3.5,3.7-7.7,6.8-12.3,9.1c1.1,0.9,2.3,1.8,3.4,2.8C193.6,251,193.8,250.8,194,250.6z"/>
	<path class="st9" d="M396.1,27.5c-1.5-5.1-11.4-10.3-15-5c-3.1,4.6,3.1,8.4,7,9.1c-3.3,0.6-17.1,6.1-9.9,10.6
		c4.3,2.7,11.8-2.7,15.4-4.7c2.3,11.7,19.4,12.7,9.1-0.8c3.3,0.7,13.8,4,13.9-2c0.1-4.9-8.7-4-11.8-3.2c4.3-1.7,7.7-7.3,1.8-8.8
		c-2.2-0.5-5.3,0.7-7.1,1.8C398.5,25.1,395.9,27.8,396.1,27.5z"/>
	<path class="st10" d="M585.7,364.8c-8.8-3-17.9-4.7-27.1-5.2c-3-0.1-6-0.5-9-1.1c-0.2,0-0.4-0.1-0.6-0.3c-1.1-1.1,2.7-2,3.2-2.1
		c2.2-0.4,4.4-0.6,6.6-0.6c5.1-0.1,10.2,0.1,15.3,0.5c1.7,0.1,3.4,0.3,5.1,0.3c15.9,0.6,31.8,1.2,47.6,1.9
		c50.2,1.9,100.4,4.7,150.6,3.1c15.5-0.5,31-1.4,46.4-2.9c3.8-0.4,45.4-6,45.3-6.1c-2.6-9.9-3.8-20.1-3.8-30.4
		c0-6.8-491.8,5.7-536.4,8c-17.8,0.9-34.1,5.8-51.9,6.2c-25.2,0.5-50.1,2.8-74.7,8.5c-3.6,0.9-7,2.4-10,4.5c-3,2-7.1,6.9-2.3,9.7
		c1.8,1.1,4.2,1.2,6.2,1.6c1.8,0.4,3.6,0.7,5.4,1c6.1,0.9,12.6,2.4,18.8,2.4c9,0.7,18.1,1,27.1,1.3l8.1,0.3
		c21.7,0.7,43.5,1,65.2,0.8c13.4-0.1,26.8-0.4,40.2-1c0.9-0.1,1.7,0.6,1.8,1.5c0,0.7-0.4,1.4-1,1.6c-5,2.1-10.2,4.2-15.1,6.2
		c-2.4,1-3.6,3.8-2.6,6.2c0.5,1.3,1.6,2.3,3,2.7c8.6,2.8,17.5,4.6,26.6,5.4c9.1,0.7,18.3,1.3,27.4,1.9c8.2,0.5,16.4,1,24.7,1.5
		c7.5,0.4,14.9,0.7,22.4,1c6.9,0.2,13.9,0.4,20.9,0.4c6.7,0,13.3-0.1,20-0.3c6.7-0.2,13.3-0.5,19.8-1c6.9-0.5,13.9-1.2,20.8-2
		c2.5-0.3,5.1-0.4,7.7-1c1.2-0.2,2.4-0.6,3.5-1.2c3.6-2.4,4.5-7.2,2.2-10.8c-0.1-0.1-0.2-0.3-0.3-0.4c-0.5-0.6-0.4-1.4,0.2-1.9
		c0.1-0.1,0.3-0.2,0.4-0.2c1.3-0.3,2.7-0.4,4.1-0.4c9.5-0.8,19.1-0.9,28.7-1.9c1.6-0.2,3.3-0.6,4.9-0.6
		C585.5,371.1,593.7,368.4,585.7,364.8z"/>
	<path class="st11" d="M303,51.5c-2.1,3.2-3.7,6.7-4.8,10.3c-3.5,9.8-6.6,19.7-9.4,29.8c10.8,54,15.8,107.3,26.3,162.4
		c5.7,32.3,20.4,62.7,16.7,95.6c7.8,0.1,15.9,0.1,23.8,0c-1.4-44.9,5.2-96-26.6-129.6C315.4,164.7,306.7,108.3,303,51.5z"/>
	<path class="st12" d="M356,208c-13.9-57.4-8.9-117.3-12.1-175.8c-8,3-16,5.9-24,8.7c-5.4,1.9-11.1,4-15.1,8.2
		c-0.7,0.8-1.3,1.5-1.8,2.4c3.7,56.8,12.4,113.2,26,168.6c31.8,33.6,25.1,84.7,26.6,129.6c7.6-0.1,15.3-0.2,22.6-0.4
		C381.3,300.9,388.4,248.2,356,208z"/>
	<path class="st12" d="M290.4,91.5c-11.3,41.8-9.7,77.8-7.1,121c3.4-1.7-1,4.1,2.5,2.4c-8.2,41.8-16.5,86.6-24.7,128.4
		c11,4.2,39,5.9,70,6.2l0,0h0.7c3.6-32.9-11-63.4-16.7-95.6C304.5,198.9,301.1,145.6,290.4,91.5z"/>
	<path class="st13" d="M343.9,32.2c3.1,58.5-1.8,118.4,12.1,175.8c32.4,40.2,25.3,92.9,22.2,141.2c6.5-0.2,12.8-0.4,18.8-0.6
		c-2.4-35.9,2.8-71.9,8.6-107.4l48.5-231C443.2,10,433,7.8,426.2,0.8C398.8,11.1,371.2,22.1,343.9,32.2z"/>
	<path class="st14" d="M437,5c-4.3-10.7-23.8-0.4-33.2,2.4l-4.2,1.2c-29.3,18.3-54.4,43.9-52.3,79.6c0.9,0.9,2,1.6,3.2,2
		c4.2,1.2,8.8-1,11.9-4.2s5.1-7.1,7.6-10.7c13-18.4,37.3-24.1,59.8-27.5c1.2-0.2,2.2-1.1,2.5-2.3C435.1,34.6,440.8,14.4,437,5z"/>
	<path class="st15" d="M399.6,8.6c-25.9,7.7-52.4,16.3-76.6,28.3c-13,6.4-23.9,14.8-28.1,30.5c-3.3,12.5-7.9,24.5-10.5,37.3
		c-3.3,16.7-4.5,34-4.8,51c-0.3,13.2-0.5,26.4-0.8,39.7c-0.2,7.5,0.5,15,2.2,22.4c0,0.4,0.2,0.8,0.5,1.1c0.6,0.6,1.6,0.3,2.3-0.2
		c6.7-4.7,5-18.2,5.8-25.1c1-8.2,2-16.4,2.9-24.6c1-8.2,1.9-16.4,2.9-24.6l1.5-12.7c0.1-0.8,0.3-1.7,0.4-2.6
		c0.3-1.7,1.9-2.8,3.6-2.5c0.6,0.1,1.1,0.3,1.5,0.7c1.7,1.6,3.8,2.7,6,3.1c4.5,2,16.6-30.6,32.1-45.7c1.2-1.2,3.2-1.2,4.4,0
		c0.3,0.3,0.5,0.7,0.7,1.1c0.4,1,0.9,1.9,1.7,2.6C345.2,52.5,370.3,26.9,399.6,8.6z"/>
	<path class="st16" d="M420.5,63.7c-10.6,47.3-21.9,94.5-34,141.5c-2.3,8.8-4.6,17.7-5,26.9c-0.3,7.9,0.9,15.8,1.9,23.6
		c5.4,41.7,6.1,83.8,2.3,125.6c15.8,0.8,31.7,1.5,47.5,2c0.5-14.9,0.1-29.2,2.7-44.3C453.4,244.8,445.6,152.3,420.5,63.7z"/>
	<path class="st17" d="M478,152c0.8-49,3.1-98-4-146.4c-13.5,0.7-26.9-0.7-40.4-2.7c-4.2,20.3-8.6,40.6-13.1,60.8
		c25.1,88.6,32.9,181.1,15.5,275.3c-2.7,15.1-2.2,29.4-2.7,44.3c15.7,0.6,31.4,1,47.2,1.3C462.3,308.3,476,229.2,478,152z"/>
	<path class="st16" d="M473.9,5c7.3,48.6,5,97.8,4.1,147c-2,77.2-15.7,156.3,2.4,232.6c9.5,0.2,19.1,0.3,28.6,0.4
		c1.5,0,2.8-1.1,3.1-2.5c9.5-48,20.7-95.6,33.4-142.9c3.3-12.3,7-25,12.9-36.2c1.1-67.1-4.5-134.1-12.1-200.6
		C522.4,4.8,498.2,5,473.9,5z"/>
	<path class="st16" d="M628,62c3-19.7,6.3-38.7,9-57.7c-9.7,0.3-19.3,0.1-29-0.6c-9.5,51.9-19.7,104.9-7,157.2c0.1,0,0.2,0,0.3,0
		c0.2-0.3,0.5-0.5,0.7-0.7c6.8-7.7,11.4-17.6,20-23.1c2.7-1.6,5.5-3.1,8.3-4.4C626.6,109.2,623.3,86.5,628,62z"/>
	<path class="st18" d="M687.7,1.6l-50.6,2C634.4,22.8,631,42,628,62c-4.7,24.5-1.4,47.2,2.3,70.7c6.6-3.1,14.4-6.3,19.4-8
		c18-6.2,36.5-10.5,55.4-12.8C689.9,77.1,689.3,39.2,687.7,1.6z"/>
	<path class="st17" d="M608.2,2.2c-20.7-1.1-41.1,0.8-61.8,0.9c7.6,66.4,13.2,133.3,12,200.3c3.2-6.3,7.4-12.2,12.4-17.3
		c9.3-9.4,21.6-15.5,30.5-25.2c-0.1,0-0.2,0-0.3,0C588.2,108.2,598.7,54.6,608.2,2.2z"/>
	<path class="st15" d="M180,128.7c-1.2-0.5-2.1-1.4-2.6-2.6c-0.8-1.8-0.8-3.9-1.2-5.8c-0.2-1-0.1-2.1,0.5-2.9c1.2-1.7,3.1-1.1,4.3,0
		c2.4,2.1,2.6,5.5,2.8,8.4c0.1,0.6,0,1.1-0.2,1.6C182.9,129,181.4,129.2,180,128.7z"/>
	<path class="st15" d="M189.9,157.6c-0.8-0.4-1.4-1.2-1.6-2.1c-0.2-1.3-0.4-2.5-0.3-3.8c-0.1-1.3,0.2-2.8,1.4-3.2
		c0.9-0.2,1.7,0.2,2.3,0.9c1.5,1.7,1.4,4,1.3,6.1c0,0.5-0.1,1.1-0.4,1.5C191.9,158,190.7,158.2,189.9,157.6
		C189.9,157.7,189.9,157.7,189.9,157.6z"/>
	<path class="st15" d="M177.3,143c-0.8-0.3-1.5-1-1.9-1.9c-0.4-1.2-0.7-2.5-0.8-3.7c-0.2-1.2-0.1-2.8,1-3.3c0.8-0.3,1.7,0,2.3,0.6
		c1.6,1.5,1.9,3.8,2,5.9c0.1,0.5,0,1.1-0.2,1.6C179.3,143.1,178.2,143.5,177.3,143z"/>
	<path class="st15" d="M182.9,196.4c-0.8-0.3-1.5-1-1.9-1.9c-0.4-1.2-0.7-2.4-0.8-3.7c-0.2-1.2-0.1-2.8,1-3.3c0.8-0.3,1.7,0,2.3,0.6
		c1.6,1.5,1.9,3.8,2,5.9c0.1,0.5,0,1.1-0.2,1.6C184.9,196.5,183.8,196.8,182.9,196.4z"/>
	<path class="st15" d="M161.4,123.5c-1.4-0.6-2.6-1.7-3.2-3.2c-0.7-2.1-1.1-4.2-1.3-6.3c-0.4-2.1-0.2-4.8,1.7-5.6c1.4-0.5,3-0.1,4,1
		c2.8,2.5,3.2,6.5,3.4,10.1c0.1,0.9,0,1.8-0.4,2.7C164.8,124,163,124.1,161.4,123.5z"/>
	<path class="st15" d="M167.3,171.8c-1.4-0.8-2.5-2.2-2.9-3.8c-0.5-2.3-0.7-4.6-0.7-7c-0.2-2.3,0.2-5.2,2.3-5.9
		c1.4-0.5,2.9,0.4,3.9,1.6c2.6,3.1,2.5,7.4,2.4,11.3c0,1-0.2,2-0.6,2.8C170.7,172.7,168.9,172.7,167.3,171.8z"/>
	<path class="st10" d="M530.1,324.9c20.1-1.6,40.3-3.3,60.2-6.5c3.2-0.6,6.5-1,9.8-1c2.6,0.2,5.2,0.5,7.7,1.1l35.7,7
		c-34.8,1.8-69.7,3.5-104.3-0.6"/>
	<path class="st10" d="M650.3,325.1c20.1-1.6,40.3-3.3,60.2-6.5c3.2-0.6,6.5-1,9.8-1c2.6,0.2,5.2,0.5,7.7,1.1l35.7,7
		c-34.8,1.8-69.7,3.5-104.3-0.6"/>
	<path class="st19" d="M951.9,468.5c-5.1,0-9.9,2.4-13,6.4c-2.3,2.8-3.4,7.9-0.4,9.9c1.1,0.6,2.4,0.9,3.8,0.8c2.5,0,5-0.4,7.5-1
		c0.5-0.1,1.1,0.2,1.2,0.7c0.1,0.2,0,0.5-0.1,0.7c-0.8,2.1-0.9,5,0.9,6.7c2.2,2.1,5.2,2.5,8.2,2.5v-21.2
		C959.2,470.9,955.1,468.5,951.9,468.5z"/>
	<path class="st7" d="M817.9,413.8c-27.8,2.3-55.6,5.4-83.1,9.9c-13.2,2.1-26.2,4.8-39.3,7.4c-12.2,2.5-24.8,4.3-36.4,8.7
		c-1.4,0.5-2.8,1.1-4.1,1.7c-2.7,1.2-5.4,3.1-5.8,6.2c-0.7,5.4,6.3,9.5,10.2,11.8c29.8,17.6,63.9,26.6,98.5,26.1
		c22.5-0.4,46.5,0,69,1.5c44,3.1,89.7,31.5,133.1,28.8V410.5C912.6,408.9,865.1,410,817.9,413.8z"/>
	<path class="st20" d="M193.5,369.9c-1.4-0.2-2.7-0.4-4.1-0.5l-1.1-0.1c-9-0.5-18-0.4-27,0.3c-3.6,0.2-7.3,0.5-10.9,1
		c-3.5,0.4-6.9,1.4-10.4,1.6c-2.2,0-4.4-0.2-6.6-0.4l-2.5-0.2c-18.8-1.2-38-0.5-56.8,0.4c-13.4,0.5-26.7,1.8-40,3.8
		c-8.9,1.4-15.2,1.6-23.4,5c-5.7,2.4-6.9,7.5-0.6,10.5c6.7,3.3,16.3,2.8,23.6,3.6c9.7,1,19.4,1.7,29.1,2.3
		c19.4,1.1,38.9,1.1,58.3,0.1c11-0.6,25-2.9,32.8-10.3c0.7-0.7,1.3-1.4,1.9-2.2c0.7-1.1,1.9-1.7,3.2-1.6c8.2,0.6,16.4,0.6,24.6,0.1
		c5.1-0.3,11.6-1.6,15.3-5.6C202.9,373.5,197.6,370.5,193.5,369.9z"/>
	<path class="st17" d="M28,283c-4-39-5-76-9-115c-1.7-15.4-2-30.7-3.9-46.1c-4.5,3.9-8.8,8.1-12.9,12.5
		c10.4,44.7,5.5,90.4-2.2,135.4c2.7,4.5,5.7,8.8,8.4,13.1c6.3,9.9,11.9,20.3,16.8,31C27.5,303.9,29.2,293.8,28,283z"/>
	<path class="st21" d="M63,281c-3.7-60.7,10-120.5,4.5-180.3c-5.4,0.6-10.9,0.5-16.2,1.5c-11.8,2-24.9,10.1-36.1,19.8
		c1.9,15.4,2.2,30.7,3.9,46.1c4,39,5,76,9,115c1.2,10.8-0.5,20.9-2.7,31c10,22.1,12.1,45.8,14.7,69.9c0.2,2,1.9,3.6,3.9,3.8
		c9,0.8,21.1,1.1,29.2,1.1C76,352.3,65.7,316.7,63,281z"/>
	<path class="st17" d="M94,115c0.6-5.2,1.5-8.6,2.1-14.1c-2.2-0.7-4.5-0.1-6.8-0.3c-6.4-0.4-12.6-1.3-18.9-0.3c-1,0.2-2,0.3-3,0.4
		C73,160.5,59.3,220.3,63,281c2.7,35.7,13,71.3,10.2,107.7c7.4,0,14.8-0.3,22.1-1c3.1-0.3,6.4-0.7,8.8-2.8s3-5.7,4-8.8
		c3.3-11.1,4.8-19.8,7.8-27.2C98.3,315.6,90.9,277.9,90,241C89,199,92,157,94,115z"/>
	<path class="st21" d="M142,156c0-17.2-2-35.1-3.3-52.6c-10.7,1.3-21.6,2.3-32.2-1c-3.5-1.1-6.9-2.5-10.3-3.5
		c-0.7,5.4-1.6,10.9-2.1,16.1c-2,42-5,84-4,126c0.9,36.9,8.3,74.6,25.8,108c2.5-6.4,6.6-12,12-16.3c4.9-4,10.1-7.6,15.5-10.9
		C141.2,266.7,142,211,142,156z"/>
	<path class="st17" d="M177.9,106.1c-11.7-6.4-25.2-4.3-39.2-2.7c1.3,17.5,3.3,35.4,3.3,52.6c0,54.9-0.8,110.7,1.2,165.8
		c5.3-3.3,10.8-6.3,16.5-9c3.4-2.1,6.7-4.3,9.9-6.7C175.7,239.8,180,172.5,177.9,106.1z"/>
	<path class="st21" d="M196.4,255.4c2-35.1-3.8-76.7-5-111.6c-0.2-7.1,0.9-13.3-1.1-20.2c-1.7-5.1-4.8-9.7-9.1-13
		c-1.7-1.4-1.5-3.6-3.3-4.6c2.2,66.4-2.2,133.8-8.2,200c6.6-4.9,14.8-12.1,19.5-20.1l-0.8-10.2c1.6-2,4.2-3.1,5.9-5.1
		C197.8,266.7,196,260.7,196.4,255.4z"/>
	<path class="st8" d="M78.9,157.8c1.4,2.3,3.1,4.8,7,3.5c1.5-0.6,2.8-1.5,3.8-2.6c8.3-9.2,15.5-1.4,24,7.7c2.1,2.3,5.7,2.4,8,0.3
		c0.3-0.3,0.7-0.7,0.9-1.1l0.1-0.1c0.7-1,2-1.4,3.1-0.7c0.4,0.3,0.7,0.7,0.9,1.1c2.9,7.6,3.9,15.7,3,23.8c-0.9,7.7-3,17.1,3.1,21.9
		c1.4,1.1,3.1,1.8,4.4,3c2.5,2.4,2.8,6.3,3.3,9.8c0.8,6.9,2.9,14.1,7.9,19s13.6,6.6,19.1,2.2c1.7-1.4,3.3-3.4,5.9-2.7
		c2.4,0.7,4.1,2.8,4.2,5.3c0.8,11.4,0.4,17.6,9.7,22.5c1,0.6,2.2,0.9,3.4,0.9c5.2-0.2,6-6.2,6.3-10.8c2.7-43-0.7-85.4-2.8-130.2
		c-0.3-7.5-7.8-15.4-11.1-21.3c-2.5-4.6-7.1-7.7-12.3-8.3c-7.5-0.9-12.1-0.1-19.6,0.8c-16.1,1.8-31.4,0.3-47.6-1
		c-10.8-0.9-41.1-6.3-50.8-0.9C34.8,109.5,73.1,148.3,78.9,157.8z"/>
	<path class="st21" d="M2.3,134.4c-0.8,0.9-1.5,1.7-2.3,2.6v132.6c0,0.1,0.1,0.1,0.1,0.2C7.8,224.9,12.7,179.2,2.3,134.4z"/>
	<path class="st16" d="M724.3,20.2c-11.1,5.2-23.2,7.8-35.4,9.4c1.6,28.2,4.7,56.1,16.2,82.3c38.5-4.9,76.5-3.3,110.8-5.2l23.5,1.4
		L856.4,0H749.3C742.8,8.7,734.2,15.7,724.3,20.2z"/>
	<path class="st22" d="M424.3,0c-2.8,13.1-3.5,27.3-5,35.9l-13,74.6c-0.3,1.8,0.9,3.5,2.7,3.9c0.9,0.2,1.8-0.1,2.5-0.6
		c4.6-3.3,8-8.7,10.7-14.3c0.8-1.7,2.9-2.3,4.5-1.5c0.2,0.1,0.3,0.2,0.5,0.3c1.9,1.3,4.2,1.8,6.4,1.4c4-0.8,7.1-3.8,9.6-7
		c11.5-14.5,15.1-33.5,20-51.4c0.7-2.4,1.4-4.9,3-6.9c2-2.3,4.9-3.5,7.7-4.6L507.5,17c4.8-1.9,10.2,0.5,12.1,5.3
		c0.4,1,0.6,2.1,0.6,3.2l0.5,23c0.2,7.4,0.4,15.1,4.2,21.4c3.2,5.4,10,9.2,15.9,8c1.7-0.3,3.4,0.7,3.9,2.4c2.5,8.3,5,16.6,7.5,24.9
		c1,3.4,2.3,7.1,5.5,8.6c2.4,1.2,5.3,0.7,7.8-0.2c14.4-4.7,23.3-18.7,32.7-30.5C610,68.4,624,55.7,639.9,45.5c1.5-1,3.6-0.6,4.6,1
		c0.3,0.5,0.5,1.1,0.5,1.7c0,1.8,1.5,3.3,3.4,3.3c1,0,1.9-0.5,2.5-1.2c1.6-2,3.1-4.2,4.3-6.5c0.9-1.6,2.8-2.2,4.4-1.4
		c0,0,0.1,0,0.1,0.1c1.6,0.9,3.3,1.8,5.1,2.5c1.7,0.7,3.7-0.1,4.4-1.8c0.2-0.5,0.3-1,0.2-1.5c-0.2-2.1-0.4-4.3-0.8-6.4
		c-0.3-1.8,0.9-3.5,2.7-3.8c0.1,0,0.2,0,0.3,0c5.8-0.5,11.6-1,17.3-1.8c-0.5-9.9-0.9-19.7-1.3-29.6L424.3,0z"/>
	<path class="st22" d="M749.3,0h-61.7c0.4,9.9,0.8,19.7,1.3,29.6c12.2-1.6,24.3-4.2,35.4-9.4C734.2,15.7,742.8,8.7,749.3,0z"/>
	<path class="st23" d="M803.2,0c-2.7,3.2-4.7,6.9-5.7,11c-0.3,1.1-1.2,10.9-1.8,10.6c-5.5-2.8-25.5-2-35.4,1.9
		c-13.5,5.3-24.5,18.8-33.6,30.1c18.9-6.2,33-12.3,56-13.3c-15.9,15.4-23.3,39.3-23.6,61.4L795.4,53c5.1,21.7,15.8,41.7,31,57.9
		c3.5-23.5,1.1-47.5-7-69.9c13.2-2,26.2-5.1,38.8-9.4c-8.9-4.9-18.9-7.1-29-6.3c2.8-8.9,6.7-17.4,11.5-25.4H803.2z"/>
	<path class="st24" d="M821.4,374.4c-2.9-8.3-6.2-16.5-10-24.5c-8.5-17.2-19.9-32.8-32.4-47.3c-4.4-5.1-8.8-10.3-13.6-15
		c-2.8-2.8-5.9-5.3-9.1-7.6c-1.6-1.1-3.1-2.2-4.8-3.3c-0.3-0.2-3.2-2.6-3.5-2.5c2.1-0.9,19.3,4.8,24.3,7.1
		c-6.2-10.6-15.9-14.9-26.5-19.1c19.4-0.6,38.9,1.7,57.6,6.8c-7.8-12.4-20.1-22.6-34.5-25.1s-30.8-0.9-38.7,11
		c0.8-1.1-1.2-5.4-1.5-6.6c-3.7-14,5.5-27.3,13.4-37.9c1.6-1.9,3.5-3.6,5.6-5.1c-5.9,0.3-11.6,1.5-17.2,3.5
		c-6.5,2.4-13.2,5-17.9,10.3c-8.2,9.4-7.9,27.8,3.3,34.9c-11.4-7.9-32.7,1.2-40,12c11.9-3,24.4-2.8,36.2,0.6
		c-10.4,3-18.1,12.5-20.7,23s-0.8,21.7,3.2,31.7c3.5-18.7,12.9-35.8,26.8-48.8c0,19.1,11.7,37.3,23.8,52.5
		c-2.3-16.3-5.5-32.4-9.6-48.3l1.9,1.7c9.5,8.3,20.6,18.4,28.6,27.8c31.9,37.4,38.8,70.2,43.4,117c7.9-1.4,22.5,2,30.3,2.3
		C832.7,406,828.6,393.8,821.4,374.4z"/>
	<path class="st25" d="M730.3,438.3c-1.9-2.6-5.2-3.9-8.3-3.3c-0.8,0.1-1.5,0.5-2,1c-1.2,1.5-0.1,3.7,1.1,5.1
		c3.4,4,9.1,7.6,13.7,4.9c2.4-1.4,3.7-4.1,4.2-6.9c0.6-2.9,0.4-6.5-2.2-8.2c-2.1-1.4-4.9-0.8-6.3,1.3c-0.8,1.2-1,2.7-0.5,4.1"/>
	<path class="st25" d="M758.4,446.3c-1.9-2.6-5.1-3.8-8.3-3.3c-0.8,0.1-1.5,0.5-2,1c-1.2,1.5-0.1,3.7,1.1,5.1
		c3.4,4,9.1,7.5,13.7,4.9c2.4-1.4,3.7-4.1,4.2-6.9c0.6-2.9,0.4-6.5-2.2-8.2c-2.1-1.4-4.9-0.8-6.3,1.3c-0.8,1.2-1,2.7-0.5,4.1"/>
	<path class="st25" d="M759.9,426.9c-1.6-2.2-4.4-3.3-7.1-2.8c-0.6,0.1-1.2,0.4-1.7,0.9c-1,1.3-0.1,3.1,1,4.4
		c2.9,3.4,7.8,6.4,11.6,4.2c2-1.2,3.1-3.5,3.6-5.8c0.5-2.5,0.3-5.6-1.8-7c-1.8-1.2-4.2-0.7-5.4,1.1c-0.7,1-0.8,2.3-0.4,3.4"/>
	<path class="st26" d="M233,476.7l0.1-0.1c1.3-1.4,4.3-4.2,6.5-4.4c4.9-0.3-0.2,9.8-1.5,11.3c1.5-1.6,5.5-2.8,7.7-3.4
		c2.9-0.8,5.9-1.2,8.9-1.3c0.6,0.1,1.2,0.1,1.8,0.3c2,0.8-3.1,3.6-3.7,4c-2.7,1.5-7.4,3.5-10.7,3.2c5.4,0.5,10.4,3.5,12.9,7.7
		c0.3,0.4,0.4,0.9,0.3,1.4c-0.2,0.5-0.9,0.8-1.4,0.9c-3,0.7-6.2,0.2-9-1.2c-2.6-1.3-5-3-7.1-5c0.1,4.5,0.4,7.7-3.3,11.3
		c-0.6,0.7-1.5,1.1-2.4,1c-0.8-0.2-1.4-0.9-1.6-1.6c-1.6-3.9-1.5-8.5,1.8-11.7c-4.1,4.1-9.3,5.9-15.5,5.9c-1.4,0-3.3-0.4-3.4-1.7
		c-0.1-0.7,0.6-1.4,1.2-1.9c3.2-2.5,7.1-3.5,11.1-4.7c-2.8-0.1-5.4-0.1-7.9-1.3c-1.7-0.8-5.9-4.1-4.9-6.2s6.3-0.9,8.2-0.7
		c0,0,7.7,2.1,9.7,3.3C229.6,481.3,232.3,477.5,233,476.7z"/>
	<path class="st27" d="M851.6,426l0.1-0.1c0.9-1.4,3-4,4.6-4.2c3.4-0.3-0.2,9.4-1.1,10.7c1-1.5,3.8-2.7,5.4-3.3
		c2-0.7,4.1-1.1,6.2-1.2c0.1,0,0.2,0,0.4,0c0.2,0.2,0.3,0.5,0.2,0.8c-0.5,1.9-2.3,2.9-3.8,3.7s-4,2.7-5.7,2.5c4.1,0.7,7.5,3.5,9,7.3
		c0.2,0.4,0.3,0.8,0.2,1.3c-0.2,0.4-0.5,0.8-1,0.9c-2.1,0.6-4.5,0.2-6.3-1.1c-1.9-1.3-3.6-3-5-4.8c0.1,4.3,0.2,7.3-2.3,10.8
		c-0.4,0.6-1,1.2-1.7,1s-0.9-0.9-1.2-1.6c-1.1-3.7-1-8,1.3-11.2c-2.4,3.6-6.5,5.7-10.9,5.6c-1,0-2.3-0.4-2.4-1.6
		c0-0.7,0.3-1.3,0.8-1.8c2.3-2.4,5.3-4,8.6-4.6c-2.5,0.3-5-0.2-7.1-1.4c-1.6-1-2.9-2.2-3.9-3.8c-0.5-0.9-0.9-1.5-0.2-2
		c1.2-0.9,4.1-0.3,5.4-0.1c0,0,7,1.7,8.5,2.8C849.2,430.3,851.1,426.8,851.6,426z"/>
	<path class="st19" d="M923.8,469c2.1,0.6,3.8,1.8,5,3.6c3.2,5-0.3,9.7-4.5,11.6c-3,1.3-6.3,1.5-9.6,1.6s-6.9,0.1-9.3-2.1
		c-1.7-1.6-1.6-4.3-0.7-6.1c0.2-0.4,0-0.8-0.4-1c-0.2-0.1-0.3-0.1-0.5-0.1c-2.4,0.6-4.9,0.9-7.4,0.9c-1.9,0-3.9-0.1-4.9-2.3
		c-0.7-1.6-0.5-3.5,0.4-5c3-4.6,8.1-7.4,13.6-7.4c3.1,0,7,2.1,7.7,4.8c0.2,0.9,1.2,1.5,2.1,1.3C918.1,468.2,921.1,468.2,923.8,469z"
		/>
	<path class="st19" d="M952.6,442.8c3.7,0.6,6.7,3.4,7.5,7.1c0.7,3.7-1.2,7.4-4,9.6s-6.1,3.2-9.5,4.2s-7.1,1.8-10.2,0
		c-1.3-0.8-2.2-2.2-2.3-3.8c-0.1-0.9,0.7-3.8,0.3-4.4c-1.1-1.4-5.2-0.1-6.5,0.1c-2.4,0.5-5.6,2-8,0.9c-3.6-1.7-0.2-7.6,1.3-9.7
		c2.3-3.3,5.7-5.6,9.6-6.6c3.9-0.9,9.8,1.3,9.7,5.6C944,443.3,948.3,442.2,952.6,442.8z"/>
	<path class="st28" d="M899,502.6c-2.4-8.3-18.7-16.9-24.7-8.2c-5.2,7.6,5.1,13.8,11.5,14.9c-5.3,1-28,10.1-16.3,17.3
		c7.1,4.4,19.4-4.5,25.2-7.6c3.8,19.2,31.8,20.8,14.9-1.3c5.4,1.2,22.6,6.6,22.8-3.2c0.1-8.1-14.3-6.5-19.3-5.3
		c7.1-2.9,12.7-11.9,3-14.4c-3.6-0.9-8.7,1.1-11.6,2.9C902.9,498.7,898.6,503.2,899,502.6z"/>
	<path class="st29" d="M385.8,273.5c-7.7,1.6-19.8-5.8-14.3-13c4.8-6.3,13.1-2,15.9,1.8c-0.8-3.9,0-22.2,9.6-17.3
		c5.8,3,2.1,14.4,1.2,19.5c17.2-4.9,27,12.9,3.4,10.3c2.6,3.1,12.4,12.3,4.2,16.1c-6.7,3.2-9.8-6.9-10.2-10.6
		c-0.3,5.7-6.1,12.9-11.1,7.5c-1.8-2-1.7-6.1-1.1-8.8C383.7,277.5,386.2,273,385.8,273.5z"/>
	<path class="st29" d="M408.1,247.6c-5,1.1-12.9-3.7-9.3-8.5c3.1-4.1,8.5-1.3,10.4,1.2c-0.5-2.5,0-14.5,6.2-11.3
		c3.8,1.9,1.4,9.4,0.8,12.7c11.2-3.2,17.6,8.4,2.2,6.7c1.7,2,8,8,2.7,10.5c-4.4,2.1-6.4-4.5-6.7-6.9c-0.2,3.7-4,8.4-7.2,4.9
		c-1.2-1.3-1.1-4-0.7-5.7C406.7,250.3,408.3,247.3,408.1,247.6z"/>
	<path class="st29" d="M394.4,313.5c-3.6,0.8-9.2-2.7-6.6-6c2.2-2.9,6.1-0.9,7.4,0.9c-0.4-1.8,0-10.3,4.4-8c2.7,1.4,1,6.7,0.5,9
		c8-2.3,12.5,6,1.6,4.8c1.2,1.4,5.7,5.7,2,7.5c-3.1,1.5-4.5-3.2-4.8-4.9c-0.1,2.7-2.9,6-5.1,3.5c-0.9-0.9-0.8-2.8-0.5-4.1
		C393.4,315.4,394.6,313.3,394.4,313.5z"/>
	<path class="st30" d="M779.2,390c12.9,2.4,22.7,16,20.7,29c5.9-12.4,18.3-20.4,32-20.6c-9.7,6.2-18.1,14.3-24.5,23.9
		c12-4,20.4,0.4,24.8,9.9c-16.8,8.8-35.1-3.1-57.7,2.7c-5.8,1.5-14.4,5.5-18.7,9.6c0-12.9,10.7-23.9,23.5-23.5
		c-10.4-7.5-25.5-8.5-36.1-1.4c1.8-9.9,12-17.2,22.1-16.8c4,0.2,8,1.4,11.4,3.5c2.3,1.3,11,8,11,8S784.4,394.2,779.2,390z"/>
	<path class="st27" d="M802.9,428.4l0.1-0.1c1.3-1.7,4.3-5,6.5-5.1c4.9-0.4-0.2,11.5-1.5,13.2c1.5-1.9,5.5-3.3,7.7-4
		c2.9-0.9,5.9-1.4,8.9-1.5c0.6,0.1,1.2,0.2,1.8,0.3c2,0.9-3.1,4.2-3.7,4.7c-2.7,1.8-7.4,4.1-10.7,3.7c5.5,0.7,10.3,4,12.8,9
		c0.3,0.5,0.4,1,0.3,1.6c-0.3,0.6-0.8,1-1.5,1.1c-3,0.8-6.3,0.3-9-1.4c-2.6-1.6-5.1-3.6-7.2-5.9c0.2,5.3,0.3,9-3.3,13.3
		c-0.5,0.8-1.5,1.3-2.4,1.2c-0.8-0.2-1.3-1.1-1.6-1.9c-1.6-4.6-1.5-9.9,1.8-13.8c-4.1,4.8-9.3,6.9-15.5,6.9c-1.4,0-3.3-0.5-3.4-2
		c0.1-0.9,0.5-1.7,1.2-2.2c3.2-3,7.1-4.1,11.1-5.5c-2.8-0.1-5.4-0.1-7.9-1.5c-1.7-0.9-5.9-4.9-4.9-7.2s6.3-1,8.2-0.8
		c0,0,7.7,2.5,9.7,3.9C799.6,433.8,802.3,429.4,802.9,428.4z"/>
	<path class="st31" d="M877.6,29.8c-0.2,0.7-0.3,1.3-0.3,2C877.4,31.1,877.5,30.5,877.6,29.8z"/>
	<path class="st32" d="M931.8,183.2c1.4,4.4,3.3,8.6,5.6,12.6c0.2-2.3,0.4-4.5,0.6-6.7c2.7-28,9.2-57,22-83.1V71
		c-13.9,14.7-24.6,37.3-27.4,48.3C927.2,140.2,925,162.6,931.8,183.2z"/>
	<path class="st33" d="M937.4,195.7c5.4,9.6,13.2,17.6,22.6,23.4V105.9C947.2,132,940.7,161,938,189
		C937.8,191.3,937.6,193.5,937.4,195.7z"/>
	<path class="st33" d="M935.8,216.7c-5.3,70.6-7.9,140.8-13.6,210.8c12.5-0.3,25-0.7,37.8-1.3V232.4
		C950.7,229.4,942.3,224,935.8,216.7z"/>
	<path class="st34" d="M931.8,183.2c-6.8-20.6-4.6-43,0.8-63.9c2.8-10.9,13.5-33.5,27.4-48.2v-6.3c-18.3,12.9-33.9,43.5-37.7,57
		c-6,21.6-8.9,44.8-2.7,66.3c3.1,10.7,8.6,20.5,16.1,28.7c0.5-7,1.1-14,1.7-21C935.1,191.8,933.2,187.5,931.8,183.2z"/>
	<path class="st34" d="M937.4,195.7c-0.6,7-1.1,14-1.7,21c6.6,7.3,14.9,12.7,24.2,15.7v-13.3C950.6,213.4,942.8,205.3,937.4,195.7z"
		/>
	<path class="st7" d="M701.8,537.7c1.5-2.8,1.6-6.1-1.4-8.2c-1.4-0.9-3.1-1.4-4.8-1.4c-6.6-0.5-14-0.8-19.4,3.8
		c-2,1.7-3.7,4.4-2.9,7c0.1,0.4,0.3,0.8,0.5,1.1h26.3C700.8,539.3,701.4,538.5,701.8,537.7z"/>
	<path class="st7" d="M792.3,539c1.9-2.6,2.4-5.9-0.7-8.3c-1.5-1-3.2-1.7-5-1.9c-7.1-1.2-15.1-2.3-21.4,1.7c-2.4,1.5-4.4,4-3.9,6.7
		c0.2,1.1,0.9,2.2,1.8,2.9h28.4C791.7,539.7,792,539.4,792.3,539z"/>
	<path class="st32" d="M925,23c-1,3,0,6-1,9c-10.5,18-19.9,36.8-28,56c-2,3.8-2,8.3,0,12c9,19,14,41,10,62c-15,88-11,172-34,259
		c-0.8,2-1.3,4-1.5,6.1c18.2,0.7,35.1,0.8,51.7,0.4c5.7-70,8.3-140.1,13.6-210.8c-7.5-8.2-13-18-16.1-28.7
		c-6.2-21.6-3.3-44.7,2.7-66.3c3.8-13.5,19.3-44.1,37.7-57V0h-25.9C931.9,7.8,929.4,15.7,925,23z"/>
	<path class="st35" d="M847,351c-5-64-20-126-20-190c0-54.4,12.7-108.1,27.1-161h-23.8c-8.8,20.4-10.8,49-15.4,69.4
		c-6,26.7-11.7,53.4-17.1,80.2c-1.7,8.4-3.3,16.9-2.8,25.4c0.8,12.6,6.3,24.2,11.2,35.9c27.7,67.6,33.2,142.2,15.6,213.1
		c6.2,0.5,12.2,1,18.1,1.4C844.9,401.1,848.9,376.7,847,351z"/>
	<path class="st36" d="M856,375c-3-67-17-134-19-201c-1.7-58.8,13.6-116.2,27.4-174h-10.3C839.7,52.9,827,106.6,827,161
		c0,64,15,126,20,190c1.9,25.7-2.1,50.1-7.1,74.4c5.6,0.4,11,0.7,16.3,1C858.4,409.3,856.7,391.9,856,375z"/>
	<path class="st35" d="M906,162c4-21-1-43-10-62c-2-3.8-2-8.3,0-12c8.1-19.2,17.5-38,28-56c1-3,0-6,1-9c4.4-7.3,6.9-15.2,9.1-23
		h-69.7c-13.8,57.8-29.1,115.2-27.4,174c2,67,16,134,19,201c0.7,16.9,2.4,34.3,0.2,51.4c4.9,0.3,9.6,0.5,14.3,0.6
		c0.3-2.1,0.8-4.1,1.5-6.1C895,334,891,250,906,162z"/>
	<path class="st37" d="M890.2,108.3c-6.8-2.6-14.8-5.1-20.5,1.3c-1.6,1.8-2.7,3.9-3.4,6.2c-2,6.6-0.8,13.5,0.4,20.1l16.9-21.7
		c-3.1,9.6-3.9,19.9-2.3,29.9c4-7.6,6.7-15.8,8-24.2c4.1,6.3,9.5,11.6,15.9,15.6c-2.1-8-5.3-15.7-9.6-22.8c6.3,0,12.4,1.8,17.6,5.3
		c-1.2-4.1-2.5-8.2-4.8-11.7s-5.9-6.3-9.8-6.3c-4.2,0-7.7,3.3-8,7.5l1.7-4.6"/>
	<path class="st38" d="M888.8,177.4L888.8,177.4c-2.9-6.3-4-13.3-3.3-20.3c-5.1,6.2-10.7,12-16.8,17.2c0.4-6.5,1.9-13.2,5.5-18.3
		s9.7-8.6,15.6-7.4C889.8,148.6,895.8,162.8,888.8,177.4z"/>
	<path class="st39" d="M890.8,199.4c-4.5-4-8.5-8.7-11.6-13.9l-4.4,18.1c-6.5-8.6-5.1-22.9,2.8-29.6
		C877.6,174.1,887.3,176.7,890.8,199.4z"/>
	<path class="st40" d="M889.1,211.9c2.8,4.7,4.8,9.8,6,15.1c-4.9-3.3-9-7.7-11.9-12.8l-0.8,18.6c-2.8-4.1-5.6-8.3-6.4-13.3
		s1.2-10.8,5.6-12.4C881.6,207.3,885.8,206.2,889.1,211.9z"/>
	<path class="st41" d="M890.1,244.7c1.6,4.4,3.9,8.5,6.9,12.2c-0.1-5.1-0.6-10.2-1.5-15.3c3.6,5.1,8.5,9.1,14.3,11.4
		c-1.8-5.1-5.6-9.2-10.4-11.5c4.4,0.9,9,1.3,13.5,1.1c-5.1-5.5-12-8.9-19.5-9.6C893.3,233.1,886.1,232.6,890.1,244.7z"/>
	<path class="st42" d="M881,88c-2.5-3-6.2-4.9-10.1-5.1c3.3,12.4,6.9,24.7,12.3,36.8c3.9-13.6,7-27.4,9.3-41.3
		c0.3-1.9,0.6-3.8,0.8-5.7C887.8,76.5,883.5,81.8,881,88z"/>
	<path class="st42" d="M785,73.3c-0.8,6.9-0.8,13.9-0.2,20.9c7.7-11.9,15.6-24.1,26.4-33.3c4.5-3.9,9.5-7.1,14.9-9.6
		C810.8,44.9,794.5,59.3,785,73.3z"/>
	<path class="st42" d="M828,95c0-5.7,0-11.9-2.9-16.8c-0.9,2.5-1.6,5-2.2,7.6c-3.6,15.9-2.3,32.4-1.1,48.6c9-17.8,19.3-36,28.3-54.5
		C841.9,82.4,834.7,90.3,828,95z"/>
	<path class="st42" d="M919.3,29.9c-2.6,6.4-2.9,14.3-2.3,20.1h-1.4c6.2,5.1,11.4,11.5,16.2,18c-3.6-11.1-7.2-22.1-10.7-33.2
		C920.5,33.2,920,31.5,919.3,29.9z"/>
	<path class="st43" d="M812.8,154.3c-8.6-5.1-18.7-10.4-28.3-4.2c-2.6,1.7-4.7,4.1-6.3,6.8c-4.5,7.7-4.8,16.5-5,25.1l28.9-22.1
		c-6.9,10.9-10.8,23.5-11.4,36.4c7.5-8.1,13.4-17.5,17.5-27.8c4,9.1,9.9,17.2,17.3,23.8c-0.6-10.6-2.9-21.1-6.8-31
		c8.5,1.7,16.3,5.7,22.6,11.6c-0.5-5.4-1.1-10.9-3.3-15.9s-6.2-9.4-11.5-10.6c0,0-9.7-2.6-13.7,7.4L812.8,154.3z"/>
	<path class="st38" d="M806.4,202.6c-8.3-1-16.6,3.5-21.4,10.3s-6.7,15.3-7.1,23.6c8.3-6.9,15.9-14.5,22.8-22.8
		c-0.8,8.8,1.1,17.7,5.3,25.5c0.4-1,0.9-1.9,1.4-2.8c0.5-1,0.9-2,1.2-3c2.2-6.2,2.9-12.8,1.8-19.3c-0.3-2.2-0.8-4.4-1.4-6.5
		c-0.4-1.5-0.7-4.1-2.2-4.9C806.6,202.6,806.5,202.6,806.4,202.6z"/>
	<path class="st39" d="M797.6,275.5c-3.3-7.2-5.5-14.9-6.5-22.8l-15.8,17.8c-3.2-13.7,6.7-29,20.5-31.8
		C795.7,238.8,805.2,256,797.6,275.5z"/>
	<path class="st40" d="M800.3,284c2.1,6.7,3,13.7,2.6,20.7c-5.2-5.7-9.1-12.6-11.3-20c-2.6,7.5-5.2,14.9-7.8,22.4
		c-2.2-6-4.5-12.3-3.8-18.6s5.5-12.7,11.9-12.9C791.9,275.5,797.6,275.6,800.3,284z"/>
	<path class="st41" d="M798,343.5c-2.5-5.5-2.5-11.5-3.9-17.5c0.3,7-4,14.2-8.3,19.3c-0.6-8.2,0.9-16.5,4.3-24
		c-4.6,3.8-9.6,7.2-14.8,10.2c2.3-5.5,4.8-11.2,8.9-15.2s10.4-5.7,14.8-2.3C799.1,314,804.7,323.2,798,343.5z"/>
	<path class="st44" d="M877.6,29.8c-0.2,0.7-0.3,1.3-0.3,2C877.4,31.1,877.5,30.5,877.6,29.8z"/>
	<path class="st31" d="M862.6,0c-9.7,12.8-3.8,33.3-3.8,33.3c-22.2-18-53.3-2.9-53.3-2.9c-8.6,4.2-13.3,13.6-16.2,22.7
		c-2.1,6.6-3.5,13.4-4.2,20.2c9.5-14,25.8-28.4,41-22.1c7.6-3.4,15.9-5.1,24.2-3.9c-12.3,6-20.7,17.8-25.2,30.9
		C828,83.1,828,89.3,828,95c6.7-4.7,13.9-12.6,22.2-15.1c4.5-9.1,8.5-18.4,12.1-28c3.3,10.4,5.9,20.7,8.6,31c3.9,0.2,7.6,2,10.1,5.1
		c2.5-6.2,6.8-11.5,12.3-15.2c0.6-5.1,0.7-10.3-0.8-15.2c-2-6.7-7.9-12.8-14.9-12.8c9.1-6,21.5-4.8,31.1,0.4c2.5,1.4,4.8,3,7,4.7
		h1.3c-0.5-5.9-0.2-13.8,2.3-20.1c-1-2.8-2.4-5.5-4.2-7.8c-5.1-6.2-13.5-8.8-21.2-6.6c-6.9,2.1-14.6,7.5-16.3,14.4
		c-0.1,0.6-0.2,1.3-0.3,2c0.1-0.7,0.2-1.3,0.3-2c2.1-11,7-21.3,14.4-29.8H862.6z"/>
	<path class="st45" d="M877,443c-2.9,0.6-2.8-3.6-3.7-7.2c-0.9,0.9-1.8,1.9-2.7,2.8c-10.8,11.4-17.2,26.1-23.2,40.6
		c20.9-13.6,44.7-34.3,63.3-42.8C900.6,432.6,887.2,439.1,877,443z"/>
	<path class="st45" d="M841,418c0-4.6,2.3-10.3,0.8-14.5c-3.3,3.1-6.1,6.6-8.3,10.5c-5.5,9.1-9.7,19-12.3,29.3
		c0.8-3.1,11.2-8.4,14-10.2c5.1-3.4,10.5-6.4,16-9c6.1-2.9,12.5-5.3,19-7.2C863.6,409.4,848.5,413,841,418z"/>
	<path class="st46" d="M959.5,374.2c-34,1.9-35.8,26.1-35.8,26.1c-0.9-11.6-8.3-21.2-8.3-21.2c-6.2-8.8-14.8-15.7-24.8-19.9
		c-19.8-8.1-44-3.9-59.9,10.5c25.4,0.4,64.7,10.5,72.6,35.5c-15.5-7.5-44.5-13.5-58.8-3.9c-1,0.7-2,1.5-2.9,2.3
		c1.5,4.2-0.8,10-0.8,14.5c7.5-5,22.6-8.6,29.2-1c4.5-1.3,9-2.2,13.6-2.6c5.7-0.6,12.8-0.3,17.6,3c-12.4,3.7-19.6,9.6-28.2,18.4
		c1,3.6,0.8,7.8,3.7,7.2c10.2-3.9,23.6-10.4,33.7-6.5c2.9-1.4,5.9-2.4,9-3.2c2.6,2.9,5.3,5.8,8.1,8.5c6.9,0.7,13.3,4.1,20.2,6.2
		c2,0,6,0,5-1c-1-7.6-1-16,1.6-22.9c-5.1-5.7-11.4-9.5-18.6-8.7c7-8.2,15-15.4,24-21.4v-19.9L959.5,374.2z"/>
	<path class="st45" d="M954.6,424.1C952,431,952,439.4,953,447c1,1-3,1-5,1c-6.9-2.1-13.3-5.5-20.2-6.2c9.8,9.3,20.6,17.6,32.2,24.5
		v-34.9C958.4,428.8,956.6,426.4,954.6,424.1z"/>
	<path class="st47" d="M348.8,478.1c-1.1,0-2-0.9-2-2s0.9-2,2-2h2.7c1.8,0,3.5-0.1,5.2-0.4c1.1-0.1,2.1,0.7,2.2,1.8c0,0,0,0,0,0
		c0.1,1.1-0.7,2.1-1.8,2.2c-1.9,0.2-3.7,0.4-5.6,0.4L348.8,478.1L348.8,478.1z"/>
	<path class="st47" d="M393,490h-1l-2,0c-1.1,0-2-0.9-2-2s0.9-2,2-2l0,0l2.1,0.1c1.1,0.1,2.2,0,3.3-0.3l1.1-0.2
		c1.1-0.3,2.2,0.4,2.4,1.5c0.3,1.1-0.4,2.2-1.5,2.4c-0.1,0-0.1,0-0.2,0l-1.1,0.2C395.1,489.9,394.1,490,393,490z"/>
	<path class="st47" d="M419.3,472h-3.4c-1.1,0-2-0.9-2-2s0.9-2,2-2h3.4c1.1,0,2,0.9,2,2S420.4,472,419.3,472z"/>
	<path class="st47" d="M431.1,462.5c-1.1,0.1-2.1-0.7-2.2-1.8s0.7-2.1,1.8-2.2l0,0c2-0.4,3-0.5,4-0.7s1.9-0.3,3.8-0.6
		c1.1-0.2,2.1,0.6,2.3,1.7c0.2,1-0.5,2-1.5,2.3c-2,0.4-3,0.5-4,0.7s-1.9,0.3-3.8,0.6C431.4,462.5,431.3,462.5,431.1,462.5z"/>
	<path class="st47" d="M488.7,453.2L488.7,453.2c-2.2,0-2.6,0-3,0s-0.7,0-2.8,0c-1.1,0-2-0.9-2-2s0.9-2,2-2c2.2,0,2.6,0,3,0
		s0.7,0,2.8,0c1.1,0,2,0.9,2,2S489.9,453.2,488.7,453.2L488.7,453.2z"/>
	<path class="st47" d="M51.8,503.2c-1.1,0-2-0.9-2-2s0.9-2,2-2l2.7,0c1.8,0,3.5-0.1,5.2-0.4c1.1-0.1,2.1,0.7,2.2,1.8
		c0.1,1.1-0.7,2.1-1.8,2.2c-1.9,0.2-3.7,0.4-5.6,0.4L51.8,503.2L51.8,503.2z"/>
	<path class="st47" d="M96.1,515.1h-1L93,515c-1.1,0-2-0.9-2-2c0-1.1,0.9-2,2-2l0,0l2.1,0.1c1.1,0.1,2.2,0,3.3-0.3l1.1-0.2
		c1.1-0.3,2.2,0.4,2.4,1.5s-0.4,2.2-1.5,2.4c-0.1,0-0.1,0-0.2,0l-1.1,0.2C98.1,514.9,97.1,515.1,96.1,515.1z"/>
	<path class="st47" d="M122.3,497.1h-3.4c-1.1,0-2-0.9-2-2s0.9-2,2-2h3.4c1.1,0,2,0.9,2,2S123.4,497.1,122.3,497.1z"/>
	<path class="st47" d="M134.2,487.6c-1.1,0.1-2.1-0.7-2.2-1.8s0.7-2.1,1.8-2.2c2-0.4,3-0.5,4-0.7s1.9-0.3,3.8-0.6
		c1.1-0.2,2.1,0.6,2.3,1.7c0.2,1-0.5,2-1.5,2.3c-2,0.4-3,0.5-4,0.7s-1.9,0.3-3.8,0.6C134.4,487.5,134.3,487.6,134.2,487.6z"/>
	<path class="st47" d="M191.8,478.3L191.8,478.3c-2.2,0-2.6,0-3,0s-0.7,0-2.8,0c-1.1,0-2-0.9-2-2s0.9-2,2-2c2.2,0,2.6,0,3,0
		s0.7,0,2.8,0c1.1,0,2,0.9,2,2S192.9,478.3,191.8,478.3L191.8,478.3z"/>
	<path class="st47" d="M580,434.4c-1.1,0-2-0.9-2-2s0.9-2,2-2l2.7,0c1.8,0,3.5-0.1,5.2-0.4c1.1-0.1,2.1,0.7,2.2,1.8
		s-0.7,2.1-1.8,2.2c-1.9,0.2-3.7,0.4-5.6,0.4c-0.6,0-1.4,0-2.7,0L580,434.4z"/>
	<path class="st47" d="M624.3,446.4h-1c-0.5,0-1.1,0-2-0.1c-1.1,0-2-0.9-2-2s0.9-2,2-2l0,0l2.1,0.1c1.1,0.1,2.2,0,3.3-0.3l1.1-0.2
		c1.1-0.3,2.2,0.4,2.4,1.5c0.3,1.1-0.4,2.2-1.5,2.4c-0.1,0-0.1,0-0.2,0l-1.1,0.2C626.3,446.2,625.3,446.3,624.3,446.4z"/>
	<path class="st47" d="M650.5,428.3h-3.4c-1.1,0-2-0.9-2-2s0.9-2,2-2h3.4c1.1,0,2,0.9,2,2S651.6,428.3,650.5,428.3z"/>
	<path class="st47" d="M662.3,418.8c-1.1,0.1-2.1-0.7-2.2-1.8s0.7-2.1,1.8-2.2c2-0.4,3-0.5,4-0.7s1.9-0.3,3.8-0.6
		c1.1-0.2,2.1,0.6,2.3,1.7c0.2,1-0.5,2-1.5,2.3c-2,0.4-3,0.5-4,0.7s-1.9,0.3-3.8,0.6C662.6,418.8,662.5,418.8,662.3,418.8z"/>
	<path class="st48" d="M684.2,190.7c5.4,0.3,5.6,0.6,6,6.8c0.3-6,0.7-6.6,6-6.8c-5.3-0.3-5.8-0.8-6-6.7
		C689.9,190.2,689.6,190.4,684.2,190.7z"/>
	<path class="st48" d="M210.3,86.1c7.2,0.4,7.6,0.8,8.1,9.2c0.3-8.2,1.1-8.9,8.2-9.2c-7.2-0.4-8-1.1-8.2-9.1
		C218,85.3,217.6,85.6,210.3,86.1z"/>
	<path class="st48" d="M61.5,29.5c5.9,0.2,6.2,0.7,6.6,7.4c0.3-6.6,0.8-7.2,6.6-7.4c-5.9-0.3-6.4-1-6.6-7.4
		C67.7,28.9,67.3,29.1,61.5,29.5z"/>
	<path class="st48" d="M608.6,177.1c15.2,0.7,15.9,1.7,17,19.1c0.7-17,2.2-18.6,17-19.1c-15.1-0.9-16.5-2.4-17-19.1
		C624.6,175.5,623.7,176.1,608.6,177.1z"/>
	<path class="st48" d="M582.6,209.3c8.4,0.4,8.8,1,9.4,10.6c0.4-9.4,1.2-10.3,9.5-10.6c-8.4-0.5-9.2-1.3-9.5-10.6
		C591.4,208.4,590.9,208.7,582.6,209.3z"/>
	<path class="st48" d="M73.9,48.2c7.6,0.3,7.9,0.8,8.5,9.5c0.3-8.5,1.1-9.2,8.5-9.5c-7.5-0.4-8.3-1.2-8.5-9.5
		C81.8,47.4,81.4,47.7,73.9,48.2z"/>
	<path class="st48" d="M138.4,27.4c6.4,0.3,6.7,0.7,7.2,8.1c0.3-7.2,0.9-7.9,7.2-8.1c-6.4-0.4-7-1-7.2-8.1
		C145.2,26.7,144.8,27,138.4,27.4z"/>
	<path class="st48" d="M735.2,126.7c3.5,0.2,3.6,0.4,3.9,4.4c0.2-3.9,0.5-4.2,3.8-4.3c-3.4-0.2-3.7-0.5-3.8-4.3
		C738.8,126.3,738.6,126.4,735.2,126.7z"/>
	<path class="st48" d="M152.3,42.8c4.3,0.2,4.5,0.5,4.8,5.4c0.2-4.8,0.6-5.3,4.8-5.4c-4.3-0.2-4.7-0.6-4.8-5.3
		C156.8,42.3,156.5,42.5,152.3,42.8z"/>
	<path class="st48" d="M126.1,19.8c3.5,0.1,3.6,0.4,3.9,4.4c0.1-3.9,0.5-4.3,3.9-4.4c-3.4-0.2-3.8-0.5-3.9-4.4
		C129.7,19.5,129.5,19.6,126.1,19.8z"/>
	<path class="st48" d="M118.2,63.9c12.1,0.5,12.7,1.4,13.6,15.3c0.6-13.6,1.7-14.9,13.6-15.3c-12.1-0.7-13.3-1.9-13.6-15.3
		C131,62.7,130.3,63.1,118.2,63.9z"/>
	<path class="st48" d="M756.2,128.8c7.6,0.3,7.9,0.9,8.5,9.5c0.3-8.5,1.1-9.3,8.5-9.5c-7.6-0.5-8.3-1.3-8.5-9.6
		C764.2,127.9,763.7,128.2,756.2,128.8z"/>
	<path class="st48" d="M741.6,140.1c4.6,0.2,4.8,0.6,5.2,5.9c0.2-5.2,0.7-5.7,5.2-5.9c-4.6-0.3-5-0.7-5.2-5.8
		C746.4,139.6,746.2,139.8,741.6,140.1z"/>
	<path class="st49" d="M564,61.8c1,1.4,1.3,3.1,0.9,4.8c-0.7,3.1-2.7,5.8-3.6,8.7l0,0c-3.9,3.7-6.4,0.9-7-1.7
		c-1.1-4.4,1.7-8.6,3.8-12.2C560.3,58.8,562.7,59.8,564,61.8z"/>
	<path class="st49" d="M575.2,22.1c0.6,1.1,0.7,2.4,0.2,3.5c-0.7,1.6-1.5,3.1-2.5,4.5c-0.9,1.4-2.4,3-4,2.4
		c-1.1-0.5-1.8-1.5-1.8-2.7c-0.4-3,1.5-5.6,3.2-7.8c0.4-0.6,1-1.1,1.6-1.4C573.2,20.1,574.6,20.7,575.2,22.1
		C575.2,22,575.2,22,575.2,22.1z"/>
	<path class="st49" d="M580.7,54c0.7,1,0.9,2.3,0.6,3.5c-0.5,2.3-2,4.2-2.6,6.3c-2.8,2.7-4.7,0.7-5.1-1.2c-0.7-2.9,0.8-5.7,2.3-8.1
		c0.3-0.6,0.8-1.2,1.4-1.5C578.5,52.3,580,52.8,580.7,54C580.7,54,580.7,54,580.7,54z"/>
	<path class="st49" d="M649.7,27.7c0.7,1,0.9,2.3,0.7,3.5c-0.5,1.6-1.2,3.2-2,4.7c-0.7,1.5-2,3.2-3.6,2.9c-1.1-0.4-1.9-1.3-2.1-2.5
		c-0.7-2.9,0.8-5.7,2.3-8.1c0.3-0.6,0.8-1.2,1.4-1.6C647.5,26,649,26.4,649.7,27.7C649.7,27.6,649.7,27.7,649.7,27.7z"/>
	<path class="st49" d="M580.8,81.7c1.2,1.7,1.6,3.9,1.1,5.9c-0.6,2.9-2.2,5.4-3.4,8s-3.4,5.5-6.2,4.9c-1.9-0.4-3.2-2.3-3.6-4.2
		c-1.2-5,1.4-9.7,3.9-13.8c0.6-1.1,1.4-2,2.4-2.6C577.3,78.6,579.5,79.8,580.8,81.7z"/>
	<path class="st49" d="M611,23.5c1,2,1.1,4.3,0.3,6.4c-1,3-3,5.6-4.6,8.3s-4.2,5.6-7,4.8c-1.9-0.5-2.9-2.7-3.1-4.7
		c-0.5-5.3,2.8-10.2,5.9-14.4c0.7-1.1,1.7-2,2.9-2.7C608,20,610,21.4,611,23.5z"/>
	<path class="st49" d="M690.9,12.9c0.8,1.1,1,2.5,0.7,3.9c-0.5,2.5-2.2,4.7-2.9,7.1c-3.2,3-5.2,0.8-5.7-1.4c-0.8-3.3,1-6.3,2.5-9
		c0.4-0.7,0.9-1.3,1.6-1.7C688.6,10.9,690,11.6,690.9,12.9z"/>
	<path class="st49" d="M427.9,75.2c1,1.4,1.3,3.1,0.9,4.8c-0.7,3.1-2.7,5.8-3.6,8.7l0,0c-3.9,3.7-6.4,1-7-1.7
		c-1.1-4.4,1.7-8.6,3.8-12.2C424.3,72.3,426.6,73.3,427.9,75.2z"/>
	<path class="st49" d="M444.6,67.4c0.7,1,0.9,2.3,0.6,3.5c-0.5,2.3-2,4.2-2.6,6.3c-2.8,2.7-4.6,0.7-5.1-1.2
		c-0.7-2.9,0.9-5.7,2.3-8.1c0.3-0.6,0.8-1.2,1.4-1.6C442.5,65.7,444,66.1,444.6,67.4C444.6,67.4,444.6,67.4,444.6,67.4z"/>
</g>
</svg>
