<?xml version="1.0" encoding="utf-8"?>
<!-- Generator: Adobe Illustrator 26.0.3, SVG Export Plug-In . SVG Version: 6.00 Build 0)  -->
<svg version="1.1" id="레이어_1" xmlns="http://www.w3.org/2000/svg" xmlns:xlink="http://www.w3.org/1999/xlink" x="0px"
	 y="0px" viewBox="0 0 390 390" style="enable-background:new 0 0 390 390;" xml:space="preserve">
<style type="text/css">
	.st0{fill:#00A200;}
	.st1{fill:#006600;}
	.st2{fill:#FFCE00;}
	.st3{fill:#FF7C00;}
	.st4{fill:#00B839;}
	.st5{fill:#2F8BFF;}
	.st6{fill:#FFFFFF;}
	.st7{fill-rule:evenodd;clip-rule:evenodd;}
</style>
<g>
	<g>
		<path class="st0" d="M214.9,23.3c2-1.8,3.7-3.9,4.8-6.3c0.8-2,1.2-4.2,0.5-6.2c-1-2.5-3.7-4.1-6.5-4.2c-2.7-0.2-5.4,0.8-7.8,2
			c-3.8,1.9-7.4,4.6-9.7,8.2c-1.7,2.6-2.6,5.7-2.6,8.7c0.1,3.2,1.1,4,4.1,4.1C204,29.7,210.3,27.4,214.9,23.3z"/>
		<path d="M198.3,31.4c-0.2,0-0.4,0-0.6,0c-4.1-0.1-5.8-1.8-5.9-5.8c-0.1-3.3,1-6.8,2.9-9.7c2.3-3.6,5.8-6.5,10.4-8.9
			c3.3-1.7,6.1-2.4,8.7-2.2c3.6,0.2,6.9,2.4,8,5.4c1.1,2.8,0.3,5.7-0.5,7.6c-1.1,2.5-2.9,4.9-5.3,7l0,0
			C211.3,29,204.8,31.4,198.3,31.4z M213,8.4c-1.8,0-3.9,0.6-6.3,1.8c-4,2-7,4.6-9,7.6c-1.5,2.4-2.4,5.1-2.3,7.7
			c0,2.1,0.2,2.2,2.4,2.3c5.8,0.2,11.6-2,15.9-5.8l0,0c2-1.8,3.5-3.7,4.3-5.7c0.5-1.1,1.1-3.1,0.4-4.8c-0.7-1.7-2.7-2.9-4.9-3.1
			C213.4,8.4,213.2,8.4,213,8.4z"/>
	</g>
	<g>
		<path class="st1" d="M198.9,25.6c-0.3,0-0.7-0.1-1-0.3c-0.8-0.6-1-1.7-0.5-2.5c0.3-0.4,7-10.3,16.5-12.2c1-0.2,1.9,0.4,2.1,1.4
			c0.2,1-0.4,1.9-1.4,2.1c-8,1.6-14.1,10.5-14.2,10.6C200,25.3,199.5,25.6,198.9,25.6z"/>
	</g>
	<g>
		<path class="st0" d="M175.1,23.3c-2-1.8-3.7-3.9-4.8-6.3c-0.8-2-1.2-4.2-0.5-6.2c1-2.5,3.7-4.1,6.5-4.2c2.7-0.2,5.4,0.8,7.8,2
			c3.8,1.9,7.4,4.6,9.7,8.2c1.7,2.6,2.6,5.7,2.6,8.7c-0.1,3.2-1.1,4-4.1,4.1C186,29.7,179.7,27.4,175.1,23.3z"/>
		<path d="M191.7,31.4c-6.5,0-12.9-2.4-17.8-6.7c-2.4-2.1-4.2-4.5-5.3-7c-0.8-1.9-1.6-4.8-0.5-7.6c1.2-3,4.4-5.1,8-5.4
			c2.7-0.2,5.4,0.5,8.7,2.2c4.6,2.3,8.1,5.3,10.4,8.9c1.9,3,2.9,6.4,2.9,9.7c-0.1,4.1-1.8,5.7-5.9,5.8
			C192.1,31.4,191.9,31.4,191.7,31.4z M177,8.4c-0.2,0-0.4,0-0.5,0c-2.2,0.1-4.2,1.4-4.9,3.1s0,3.8,0.4,4.8c0.9,2,2.3,3.9,4.3,5.7
			l0,0c4.3,3.8,10.1,6,15.9,5.8c2.2,0,2.3-0.2,2.4-2.3c0-2.6-0.8-5.3-2.3-7.7c-1.9-3-5-5.6-9-7.6C180.8,8.9,178.8,8.4,177,8.4z"/>
	</g>
	<g>
		<path class="st1" d="M191.1,25.6c-0.6,0-1.2-0.3-1.5-0.8c-0.1-0.1-6.2-9-14.2-10.6c-1-0.2-1.6-1.1-1.4-2.1c0.2-1,1.2-1.6,2.1-1.4
			c9.5,1.9,16.2,11.7,16.5,12.2c0.6,0.8,0.3,2-0.5,2.5C191.8,25.5,191.5,25.6,191.1,25.6z"/>
	</g>
	<g>
		<path class="st2" d="M196.4,49.9c0,0-2.4-14.2-1.4-20.9"/>
		<path d="M194.6,50.2c-0.1-0.6-2.4-14.5-1.4-21.4l3.6,0.6c-1,6.3,1.3,20.2,1.4,20.3L194.6,50.2z"/>
	</g>
</g>
<g>
	<g>
		<rect x="161.3" y="274.4" class="st3" width="20.5" height="87.8"/>
		<path d="M183.6,364.1h-24.2v-91.5h24.2V364.1z M163.1,360.5H180v-84.2h-16.9V360.5z"/>
	</g>
	<g>
		<path class="st3" d="M190.4,357.1c0-14.4-12.1-25.9-26.7-25c-13.3,0.9-23.4,12.5-23.4,25.8l0,0c0,7.1,5.8,12.9,12.9,12.9h24.2
			c7.1,0,12.9-5.8,12.9-12.9v-0.8H190.4z"/>
		<path d="M177.4,372.7h-24.2c-8.1,0-14.7-6.6-14.7-14.7c0-14.6,11-26.7,25.1-27.6c7.5-0.5,14.7,2.1,20.1,7.2
			c5.4,5.1,8.5,12.2,8.5,19.6v0.9C192.2,366.1,185.6,372.7,177.4,372.7z M165.3,333.9c-0.5,0-1,0-1.6,0.1
			c-12.2,0.8-21.7,11.3-21.7,24c0,6.1,5,11.1,11.1,11.1h24.2c6.1,0,11.1-5,11.1-11.1v-0.9c0-6.5-2.6-12.5-7.3-16.9
			C176.8,336.1,171.3,333.9,165.3,333.9z"/>
	</g>
</g>
<g>
	<g>
		<rect x="208.5" y="272.8" class="st3" width="20.5" height="88.1"/>
		<path d="M230.8,362.7h-24.2V271h24.2V362.7z M210.3,359h16.9v-84.4h-16.9V359z"/>
	</g>
	<g>
		<path class="st3" d="M249.7,357.1c0-14.4-12.1-25.9-26.7-25c-13.3,0.9-23.4,12.5-23.4,25.8l0,0c0,7.1,5.8,12.9,12.9,12.9h24.2
			c7.1,0,12.9-5.8,12.9-12.9v-0.8H249.7z"/>
		<path d="M236.7,372.7h-24.2c-8.1,0-14.7-6.6-14.7-14.7c0-14.6,11-26.7,25.1-27.6c7.5-0.5,14.7,2.1,20.1,7.2
			c5.4,5.1,8.5,12.2,8.5,19.6v0.9C251.5,366.1,244.9,372.7,236.7,372.7z M224.6,333.9c-0.5,0-1,0-1.6,0.1
			c-12.2,0.8-21.7,11.3-21.7,24c0,6.1,5,11.1,11.1,11.1h24.2c6.1,0,11.1-5,11.1-11.1v-0.9c0-6.5-2.6-12.5-7.3-16.9
			C236.1,336.1,230.6,333.9,224.6,333.9z"/>
	</g>
</g>
<g>
	<path class="st2" d="M122.1,186.4c-5.7-0.2-10.8,3.4-15.1,7c-11.1,9.3-20.7,20.4-28.4,32.7c-3.5,5.5-6.6,12.4-4.1,18.4
		c2.1,5,7.6,7.8,12.9,9.2c16.4,4.4,35-1.1,46.4-13.7"/>
	<path d="M98.8,257c-4,0-8-0.5-11.9-1.5c-5-1.3-11.5-4.2-14.1-10.3c-3-7.1,1-14.8,4.2-20c7.8-12.5,17.5-23.7,28.8-33.2
		c4.5-3.8,10.1-7.7,16.3-7.4c1,0,1.8,0.9,1.7,1.9c0,1-0.8,1.8-1.9,1.7c-5.1-0.2-9.9,3.2-13.9,6.6c-11,9.2-20.4,20.1-28,32.3
		c-2.8,4.5-6.3,11.1-3.9,16.7c2,4.7,7.4,7.1,11.7,8.2c15.8,4.2,33.7-1.1,44.6-13.2c0.7-0.7,1.8-0.8,2.6-0.1c0.7,0.7,0.8,1.8,0.1,2.6
		C126,251.3,112.4,257,98.8,257z"/>
</g>
<g>
	<path class="st2" d="M267.9,186.4c5.7-0.2,10.8,3.4,15.1,7c11.1,9.3,20.7,20.4,28.4,32.7c3.5,5.5,6.6,12.4,4.1,18.4
		c-2.1,5-7.6,7.8-12.9,9.2c-16.4,4.4-35-1.1-46.4-13.7"/>
	<path d="M291.2,257c-13.6,0-27.2-5.7-36.3-15.8c-0.7-0.7-0.6-1.9,0.1-2.6c0.7-0.7,1.9-0.6,2.6,0.1c11,12.1,28.9,17.4,44.6,13.2
		c4.2-1.1,9.7-3.5,11.7-8.2c2.3-5.6-1.1-12.2-3.9-16.7c-7.6-12.2-17-23.1-28-32.3c-4-3.4-8.8-6.8-13.9-6.6c-1.1,0.1-1.8-0.7-1.9-1.7
		c0-1,0.7-1.8,1.7-1.9c6.4-0.2,11.8,3.6,16.3,7.4c11.3,9.5,21,20.6,28.8,33.2c3.2,5.2,7.2,12.9,4.2,20c-2.5,6.1-9.1,9-14.1,10.3
		C299.2,256.5,295.2,257,291.2,257z"/>
</g>
<g>
	<g>
		<path class="st2" d="M197.6,304.8c-12,0-22.3-1.1-31.4-3.4c-14.5-3.6-26.7-10.5-35.3-19.8c-14.6-15.9-20.2-41.2-14.9-67.9
			c0.4-2.3,1-4.5,1.5-6.8c1.5-6.5,3-13.1,2.8-19.7c-0.2-7.5-2.5-14.6-5-22.1c-1-3.2-2.1-6.5-3-9.7c-6.2-23-3.2-47.6,8.2-67.3
			C134.7,63.4,163.3,48,195,48c25.2,0,48.7,9.7,64.5,26.5c18,19.2,25.4,48.6,19.3,76.7c-0.7,3.5-1.7,6.9-2.6,10.2
			c-1.6,6-3.3,12.2-3.9,18.4c-0.4,5-0.2,10.2,0.8,16.6c0.7,4.6,1.7,9.3,2.6,13.8c0.8,3.9,1.7,7.9,2.3,11.9
			c4.5,27.1-1.3,50.6-16,64.6c-15.3,14.6-37.7,17.2-55.5,17.8C203.5,304.8,200.6,304.8,197.6,304.8L197.6,304.8z"/>
	</g>
	<g>
		<path d="M194.9,49.9c23.4,0,46.9,8.6,63.2,25.9c18.4,19.6,24.6,48.9,18.8,75.1c-2.1,9.7-5.7,19.1-6.5,28.9
			c-0.5,5.7-0.1,11.4,0.8,17c1.3,8.6,3.6,17.2,5,25.8c3.7,22.2,0.9,47.4-15.4,62.9c-14.1,13.4-34.9,16.6-54.3,17.3
			c-2.9,0.1-5.9,0.2-8.8,0.2c-10.4,0-20.8-0.8-30.9-3.3c-12.9-3.2-25.4-9.5-34.4-19.3c-15.9-17.3-19-43.3-14.5-66.3
			c1.8-8.9,4.6-17.8,4.3-26.9c-0.3-11.1-5.1-21.5-8-32.2c-5.9-21.9-3.4-46.2,8-65.9C137,63.1,165.9,49.9,194.9,49.9 M194.9,46.2
			c-32.3,0-61.5,15.7-76,41c-11.6,20.1-14.6,45.2-8.3,68.7c0.9,3.3,2,6.6,3,9.8c2.4,7.4,4.7,14.3,4.9,21.6
			c0.2,6.4-1.2,12.6-2.7,19.3c-0.5,2.3-1,4.6-1.5,6.9c-5.4,27.2,0.4,53.2,15.4,69.5c8.8,9.6,21.4,16.6,36.2,20.3
			c9.2,2.3,19.6,3.4,31.8,3.4c2.8,0,5.8-0.1,9-0.2c18.1-0.7,41-3.3,56.7-18.3c15.1-14.4,21.1-38.5,16.5-66.2c-0.7-4-1.5-8.1-2.4-12
			c-1-4.5-1.9-9.2-2.6-13.7c-0.9-6.2-1.2-11.3-0.8-16.1c0.5-6.1,2.1-11.9,3.8-18.1c0.9-3.4,1.9-6.8,2.6-10.3
			c6.2-28.7-1.3-58.7-19.7-78.4C244.6,56.1,220.6,46.2,194.9,46.2L194.9,46.2z"/>
	</g>
</g>
<g>
	<g>
		<path class="st4" d="M117.4,173.7c0,0,88.8,74.7,161.6,81.6c0,0-0.9,13.7-4.6,19.2c0,0-110-27.6-157.9-83.1L117.4,173.7z"/>
		<path d="M274.4,276.3c-0.1,0-0.3,0-0.4-0.1c-1.1-0.3-111.1-28.4-158.8-83.7c-0.3-0.4-0.5-0.8-0.4-1.3l0.9-17.7
			c0-0.7,0.5-1.3,1.1-1.6s1.4-0.2,1.9,0.3c0.9,0.7,89.2,74.4,160.6,81.2c1,0.1,1.7,0.9,1.6,1.9c0,0.6-1,14.3-4.9,20.1
			C275.5,276,275,276.3,274.4,276.3z M118.3,190.7c44.3,50.8,142.6,78.3,155.2,81.6c2-4,3.1-11.3,3.5-15.5
			c-64.9-7.1-142.4-67-158-79.5L118.3,190.7z"/>
	</g>
	<g>
		<path class="st5" d="M287.4,251.7c1.7,0,3.4,0,4.9,0.7c2,0.8,3.4,2.6,4.4,4.5c3.7,7,2.6,15.6,0.9,23.4c-1.5,6.8-3.5,13.7-7.2,19.7
			s-9.3,11-16.1,12.7c-6.8,1.7-14.8-0.5-18.7-6.3c-2.7-3.8-3.4-8.7-3.5-13.4c-0.4-12.6,2.9-25.7,11.2-35.3
			C269.9,250,278.1,251.7,287.4,251.7z"/>
		<path d="M269.6,315c-6.3,0-12.3-2.8-15.6-7.6c-3.1-4.5-3.7-10-3.8-14.4c-0.4-14.4,3.7-27.4,11.6-36.5c6.2-7.1,13.5-6.9,21.3-6.7
			c1.4,0,2.8,0.1,4.2,0.1l0,0c1.8,0,3.7,0,5.6,0.8c2.1,0.9,3.9,2.7,5.3,5.3c4.1,7.6,2.8,16.7,1.1,24.6c-1.4,6.4-3.4,13.8-7.4,20.2
			c-4.3,7-10.5,11.8-17.2,13.5C273,314.8,271.3,315,269.6,315z M279.1,253.4c-5.7,0-10.4,0.8-14.5,5.5c-7.3,8.5-11.2,20.6-10.8,34
			c0.1,3.8,0.6,8.7,3.2,12.4c3.3,4.8,10.4,7.1,16.8,5.5c5.7-1.4,11.2-5.8,15-11.9c3.7-6,5.6-13,6.9-19.1c1.6-7.3,2.8-15.6-0.7-22.2
			c-1-1.9-2.2-3.1-3.5-3.7c-1.2-0.5-2.8-0.5-4.2-0.5c-1.5,0-2.9,0-4.3-0.1C281.7,253.4,280.4,253.4,279.1,253.4z"/>
	</g>
	<g>
		<path class="st6" d="M284.4,265.7c-3.8-0.4-10.2-2-13.2-0.6c-2.1,0.9-3.6,5.6-0.6,6.3c7.5,1.8,15.4,2,23.1,1.5
			c2.9-0.2,6.9-2.6,3.4-5.1c-2.8-2-8.6-1.8-11.8-2C285,265.7,284.7,265.7,284.4,265.7z"/>
		<path d="M286.5,274.9c-6,0-11.4-0.6-16.4-1.8c-1.7-0.4-2.9-1.7-3-3.6c-0.2-2.4,1.3-5.3,3.3-6.2c2.8-1.3,7.4-0.6,11.4,0.1
			c1,0.2,2,0.3,2.8,0.4c0.3,0,0.6,0.1,0.8,0.1c0.5,0,1.2,0.1,1.9,0.1c3.6,0.1,8.1,0.3,10.8,2.2c2.3,1.7,2.3,3.5,2,4.4
			c-0.7,2.3-3.8,3.8-6.3,4C291.3,274.8,288.9,274.9,286.5,274.9z M274.5,266.3c-1.1,0-2,0.1-2.6,0.4c-0.5,0.2-1.3,1.6-1.2,2.5
			c0,0.3,0.1,0.3,0.3,0.4c6.6,1.6,14,2,22.6,1.4c1.5-0.1,2.9-0.9,3.1-1.3c0,0.1-0.2-0.2-0.6-0.5c-1.8-1.3-6.1-1.5-8.9-1.6
			c-0.7,0-1.4-0.1-2-0.1c-0.3,0-0.6-0.1-1-0.1l0,0c-0.9-0.1-1.9-0.3-3-0.4C279.2,266.7,276.6,266.3,274.5,266.3z"/>
	</g>
	<g>
		<path class="st5" d="M297.5,269.3c-0.4,0-0.9-0.1-1.2,0.2c-0.2,0.2-0.3,0.6-0.3,0.9c-0.6,6-0.4,12.1,0.5,18.1
			c0.1,0.7,0.3,1.4,0.8,1.8c0.4,0.3,0.9,0.3,1.4,0.3c1.2,0,2.4,0,3.6,0c0.8,0,1.6,0,2.3-0.4c1.5-0.9,1.5-3,1.2-4.6
			c-0.6-4-1.4-7.8-2.6-11.7C302.2,270.2,301.6,269.8,297.5,269.3z"/>
		<path d="M302.6,292.5c-0.1,0-0.2,0-0.3,0h-3.6c-0.6,0-1.5,0-2.4-0.6c-1.3-0.9-1.5-2.4-1.6-3.1c-0.9-6.1-1.1-12.4-0.5-18.5
			c0-0.4,0.1-1.3,0.9-2c0.9-0.9,2.2-0.8,2.6-0.7l0,0c4.9,0.5,6.1,1.5,7.4,6c1.2,4,2,8,2.6,11.9c0.5,3.2-0.2,5.4-2.1,6.5
			C304.6,292.5,303.5,292.5,302.6,292.5z M297.8,271.2c-0.5,5.8-0.3,11.5,0.5,17.1c0.1,0.3,0.1,0.5,0.1,0.6c0-0.1,0.2-0.1,0.3-0.1
			h3.6c0.5,0,1.1,0,1.4-0.1c0.3-0.2,0.6-1,0.3-2.8c-0.5-3.7-1.4-7.6-2.5-11.4C300.7,271.6,300.7,271.5,297.8,271.2z"/>
	</g>
</g>
<g>
	<g>
		<g>
			<g>
				<g>
					<path class="st7" d="M214.7,116.4L214.7,116.4c-4,0-7.2-3-7.2-6.7v-0.9c0-3.7,3.2-6.7,7.2-6.7s7.2,3,7.2,6.7v0.9
						C221.9,113.4,218.7,116.4,214.7,116.4"/>
				</g>
			</g>
			<g>
				<g>
					<path class="st7" d="M175.2,116.4L175.2,116.4c-4,0-7.2-3-7.2-6.7v-0.9c0-3.7,3.2-6.7,7.2-6.7s7.2,3,7.2,6.7v0.9
						C182.4,113.4,179.2,116.4,175.2,116.4"/>
				</g>
			</g>
		</g>
	</g>
</g>
<g>
	<path class="st3" d="M203.5,131.9c1.9,0,3.1,2.1,2.1,3.7c-1.7,2.7-4.8,5.9-10.2,5.9c-5.3,0-8.8-3.1-10.8-5.8c-1.2-1.6,0-3.9,2-3.9
		h16.9V131.9z"/>
	<path d="M195.3,143.3c-6.1,0-10-3.5-12.2-6.5c-1-1.3-1.1-3-0.4-4.4c0.7-1.5,2.2-2.4,3.8-2.4h17c1.5,0,3,0.8,3.7,2.2
		c0.8,1.4,0.7,3-0.1,4.3C205.2,139.7,201.6,143.3,195.3,143.3z M186.5,133.7c-0.3,0-0.5,0.2-0.6,0.4s-0.1,0.4,0.1,0.6
		c1.7,2.3,4.8,5,9.4,5c3.7,0,6.6-1.7,8.7-5.1c0.2-0.3,0.1-0.5,0-0.6s-0.2-0.3-0.5-0.3L186.5,133.7L186.5,133.7z"/>
</g>
<g>
	<path class="st3" d="M182.8,134.3c-2.7,0-4.4-3-3-5.3c2.4-3.9,6.9-8.5,14.7-8.5c7.6,0,12.6,4.4,15.5,8.3c1.7,2.3,0.1,5.6-2.8,5.6
		h-24.4V134.3z"/>
	<path d="M207.2,136.1h-24.4c-2,0-3.7-1-4.6-2.7c-0.9-1.7-0.9-3.7,0.1-5.4c2.6-4.3,7.6-9.4,16.2-9.4c8.4,0,13.9,4.9,17,9
		c1.2,1.6,1.4,3.7,0.5,5.5C211,135,209.2,136.1,207.2,136.1z M194.5,122.2c-6.9,0-11,4.2-13.1,7.7c-0.5,0.8-0.2,1.4,0,1.7
		c0.1,0.3,0.6,0.9,1.5,0.9h24.4c1,0,1.4-0.7,1.5-0.9c0.1-0.3,0.4-1-0.2-1.7C205.9,126.3,201.4,122.2,194.5,122.2z"/>
</g>
<g>
	<path class="st2" d="M177.5,52.2c0,0,6.5-16.1,17.5-12.5c14.6,4.7,17.6-5.4,17.6-5.4s4.8,17.9-11.2,24.6"/>
	<path d="M201.4,60.7c-0.7,0-1.4-0.4-1.7-1.1c-0.4-0.9,0.1-2,1-2.4c9.7-4.1,11-12.7,10.8-18c-0.7,0.7-1.6,1.4-2.7,1.9
		c-3.8,2-8.6,2.1-14.3,0.2c-9.3-3-15.2,11.3-15.3,11.5c-0.4,0.9-1.4,1.4-2.4,1c-0.9-0.4-1.4-1.4-1-2.4c0.3-0.7,7.2-17.6,19.8-13.6
		c4.8,1.5,8.6,1.6,11.5,0.1c3-1.5,3.8-4.2,3.8-4.3c0.2-0.8,1.1-1.3,1.8-1.3c0.8,0,1.5,0.6,1.7,1.3c0.1,0.2,5,19.5-12.2,26.7
		C201.9,60.6,201.6,60.7,201.4,60.7z"/>
</g>
</svg>
