<?xml version="1.0" encoding="utf-8"?>
<!-- Generator: Adobe Illustrator 25.0.0, SVG Export Plug-In . SVG Version: 6.00 Build 0)  -->
<svg version="1.1" id="레이어_1" xmlns="http://www.w3.org/2000/svg" xmlns:xlink="http://www.w3.org/1999/xlink" x="0px"
	 y="0px" viewBox="0 0 200 200" style="enable-background:new 0 0 200 200;" xml:space="preserve">
<g>
	<g>
		<g>
			<g>
				<g>
					<path style="fill:#181F41;" d="M61.5,170.2c0,0,23.2,3,26.1-0.2c-0.7-5.1-5.3-18.1-5.3-18.1L64,153.3
						C64,153.3,58.9,164.2,61.5,170.2z"/>
				</g>
				<g>
					<path style="fill:#181F41;" d="M69.5,167.5c-0.7,3.8-1.3,7.6,0.2,9.9c1.6,2.5,5.2,2.8,6.4,5.7c0.6,1.5,0.1,3.4-0.9,4.6
						c-1.1,1.3-2.9,1.6-4.5,1.5c-5-0.2-8.9-4.3-10.5-8.6c-1.1-2.9-3-10.8,0-17"/>
				</g>
				<g>
					<path style="fill:#181F41;" d="M68.1,165.4c-3.5,3.4-2.6,7.3-1.9,9.9c0.4,1.7,1.5,3.9,0.2,5.6c-0.7,0.9-2,1.6-3.3,1.7
						c-1.5,0.1-2.8-0.5-3.7-1.3c-2.6-2.2-3.8-5.8-4.4-8.8c-0.3-1.6-0.3-3.3-0.2-4.9c0.1-0.8,0.2-1.7,0.4-2.5
						c0.1-0.3,0.4-2.4,0.8-2.5l6.7-2.2C62.4,160.5,67.2,161.7,68.1,165.4z"/>
				</g>
				<g>
					<path style="fill:#181F41;" d="M84.6,165.6c-0.7,3.8-1.3,7.6,0.2,9.9c1.6,2.5,3.5,2.8,4.7,5.7c0.6,1.5,0.1,3.4-0.9,4.6
						c-1.1,1.3-2.9,1.6-4.5,1.5c-5-0.2-8.9-4.3-10.5-8.6c-1.1-2.9-1.4-6.1-1.5-9.2"/>
				</g>
				<g>
					<path style="fill:#181F41;" d="M75.9,167.1c-0.7,3.8-1.3,7.6,0.2,9.9c1.6,2.5,5.2,2.8,6.4,5.7c0.6,1.5,0.1,3.4-0.9,4.6
						c-1.1,1.3-2.9,1.6-4.5,1.5c-5-0.2-8.9-4.3-10.5-8.6c-1.1-2.9-1.4-6.1-1.5-9.2"/>
				</g>
				
					<path style="fill:none;stroke:#31458C;stroke-width:0.7511;stroke-linecap:round;stroke-linejoin:round;stroke-miterlimit:10;" d="
					M65.6,170.2c-3.9,1.5-9.2,0.4-10.9-1.7"/>
			</g>
			
				<path style="fill:none;stroke:#31458C;stroke-width:0.7511;stroke-linecap:round;stroke-linejoin:round;stroke-miterlimit:10;" d="
				M68.1,165.4c-3.5,3.4-2.6,7.3-1.9,9.9c0.4,1.7,1.5,3.9,0.2,5.6c-0.7,0.9-2,1.6-3.3,1.7c-0.8,0.1-1.5-0.1-2.2-0.4"/>
			
				<path style="fill:none;stroke:#31458C;stroke-width:0.7511;stroke-linecap:round;stroke-linejoin:round;stroke-miterlimit:10;" d="
				M68.8,172.4c-0.1,2,0.1,3.7,0.9,5c1.6,2.5,5.2,2.8,6.4,5.7c0.6,1.5,0.2,3.8-1.6,4.9"/>
			
				<path style="fill:none;stroke:#31458C;stroke-width:0.7511;stroke-linecap:round;stroke-linejoin:round;stroke-miterlimit:10;" d="
				M76.4,173.2c0.1,1,0.4,1.8,0.9,2.6c1.6,2.5,5.2,2.8,6.4,5.7c0.6,1.5,0.2,3.9-1.7,5.2"/>
		</g>
		<g>
			<path style="fill:#FFFFFF;" d="M55.6,123.3c0.6-9.3,4.9-17.1,15.9-16.9s15,8.2,15.1,17.5c0.3,26.9,0.5,42.8,0.5,42.8L52.9,166
				C52.9,166,53.9,150.1,55.6,123.3z"/>
			<g>
				<g>
					<defs>
						<path id="SVGID_1_" d="M55.6,123.3c0.6-9.3,4.9-17.1,15.9-16.9s15,8.2,15.1,17.5c0.3,26.9,0.5,42.8,0.5,42.8L52.9,166
							C52.9,166,53.9,150.1,55.6,123.3z"/>
					</defs>
					<clipPath id="SVGID_2_">
						<use xlink:href="#SVGID_1_"  style="overflow:visible;"/>
					</clipPath>
					<g style="clip-path:url(#SVGID_2_);">
						<path style="fill:#00E7AE;" d="M112,161.5c-0.1,3.7-0.1,5.6-0.1,5.6l-79.3-1.3c0,0,0-1.9,0.1-5.6L112,161.5z"/>
					</g>
				</g>
				<g>
					<defs>
						<path id="SVGID_3_" d="M55.6,123.3c0.6-9.3,4.9-17.1,15.9-16.9s15,8.2,15.1,17.5c0.3,26.9,0.5,42.8,0.5,42.8L52.9,166
							C52.9,166,53.9,150.1,55.6,123.3z"/>
					</defs>
					<clipPath id="SVGID_4_">
						<use xlink:href="#SVGID_3_"  style="overflow:visible;"/>
					</clipPath>
					<g style="clip-path:url(#SVGID_4_);">
						<path style="fill:#B8D0FF;" d="M87.5,161.1c-0.3-8.7-0.8-22.1-0.9-37.2c0-0.2,0-0.4,0-0.7c0-0.1,0-0.1,0-0.2
							c0-0.2,0-0.3,0-0.5c0-0.1,0-0.2,0-0.2c0-0.1,0-0.3,0-0.4s0-0.2,0-0.2c0-0.2,0-0.4-0.1-0.6c0-0.1,0-0.1,0-0.2
							c0-0.2,0-0.3-0.1-0.5c0-0.1,0-0.2,0-0.3c0-0.1,0-0.2-0.1-0.3c0-0.1,0-0.2,0-0.3c0-0.1,0-0.2-0.1-0.3c0-0.1,0-0.2-0.1-0.3
							c0-0.1,0-0.2-0.1-0.3c0-0.2-0.1-0.4-0.1-0.6c0-0.1,0-0.1-0.1-0.2c0-0.1-0.1-0.2-0.1-0.4c0-0.1,0-0.1-0.1-0.2
							c0-0.1-0.1-0.3-0.1-0.4s0-0.1,0-0.2c-0.2-0.6-0.4-1.2-0.7-1.8c0,0,0,0,0-0.1c-0.1-0.1-0.1-0.3-0.2-0.4l0,0
							c-1.6-3.4-4.3-6-8.4-7.2c-1.5,0.4-2.8,1.1-3.9,1.9H62.1c-3.2,2.3-5.1,5.9-6,10.1c0.8,8.4,2.7,20.8,7.3,32.6
							c0.3,0.7,0.4,1.4,0.3,2.1c-0.2,2.7-0.3,5.1-0.5,7.1l4.5,0.1c1,1.8,2.1,3.5,3.2,5.2c0.1,0.1,0.2,0.3,0.2,0.4l15.9,0.3
							c0,0,0-1.9-0.1-5.6L87.5,161.1z"/>
						<path style="fill:#10C6B9;" d="M63.3,160.7c-0.2,2.3-0.3,4.2-0.4,5.6l24.8,0.4c-0.1-1.5-0.1-3.4-0.2-5.6L63.3,160.7z"/>
					</g>
				</g>
				<g>
					<defs>
						<path id="SVGID_5_" d="M55.6,123.3c0.6-9.3,4.9-17.1,15.9-16.9s15,8.2,15.1,17.5c0.3,26.9,0.5,42.8,0.5,42.8L52.9,166
							C52.9,166,53.9,150.1,55.6,123.3z"/>
					</defs>
					<clipPath id="SVGID_6_">
						<use xlink:href="#SVGID_5_"  style="overflow:visible;"/>
					</clipPath>
					
						<path style="clip-path:url(#SVGID_6_);fill:none;stroke:#181F41;stroke-width:0.7511;stroke-linecap:round;stroke-linejoin:round;stroke-miterlimit:10;" d="
						M17.2,145.2l22.5,0.1c0,0,1.6-4.7,7.1-4.6s6.8,4.9,6.8,4.9l54.4,2.3"/>
				</g>
			</g>
		</g>
		<g>
			<g>
				<g>
					<g>
						<g>
							<g>
								<g>
									<g>
										<circle style="fill:#181F41;" cx="97.3" cy="65.6" r="57.1"/>
										<path style="fill:#181F41;" d="M57.6,108.9c0,0,12,13.5,12,21.1h27.6h27.6c0-7.6,12-21.1,12-21.1H57.6z"/>
										<g>
											<path style="fill:#FFFFFF;" d="M52.1,100.5c8.5,16.3,25.6,27.4,45.2,27.4s36.7-11.1,45.2-27.4H52.1z"/>
										</g>
										<path style="fill:#B8D0FF;" d="M126.2,100.5c-7.3,14-20.9,24.2-37.1,26.8c2.7,0.4,5.4,0.7,8.2,0.7
											c19.7,0,36.7-11.1,45.2-27.4L126.2,100.5L126.2,100.5z"/>
									</g>
									<path style="fill:#FFFFFF;" d="M97.3,108.9H57.6c0,0,0,34.9,15.4,57c3.7,5.9,9.9,10.9,11.8,12.4c0.4,0.3,0.8,0.4,1.3,0.4
										h11.2h11.2c0.5,0,0.9-0.2,1.3-0.4c1.9-1.5,8.1-6.5,11.8-12.4c15.4-22.1,15.4-57,15.4-57S97.3,108.9,97.3,108.9z"/>
									
										<line style="fill:none;stroke:#B8D0FF;stroke-width:0.7511;stroke-linejoin:round;stroke-miterlimit:10;" x1="57.6" y1="108.9" x2="137" y2="108.9"/>
								</g>
							</g>
							<g>
								<path style="fill:none;stroke:#FFFFFF;stroke-width:4.0057;stroke-linecap:round;stroke-miterlimit:10;" d="M59.5,32.7
									c5.2-6.1,10.6-10,18.1-13"/>
								<circle style="fill:#FFFFFF;" cx="84.7" cy="17.2" r="2.9"/>
							</g>
						</g>
					</g>
				</g>
				<g>
					<path style="fill:#00E7AE;" d="M78.6,172.8c2.6,2.7,5.1,4.7,6.2,5.6c0.4,0.3,0.8,0.4,1.3,0.4h11.2h11.2c0.5,0,0.9-0.2,1.3-0.4
						c1.1-0.9,3.6-2.9,6.2-5.6H97.3H78.6z"/>
				</g>
				<g>
					<path style="fill:#B8D0FF;" d="M137,108.9h-15.9c0.3,11.9-0.3,37.5-11.1,56.9c-1.3,2.5-2.9,4.9-4.5,7H116c2-2,4-4.4,5.6-6.9
						C137,143.9,137,108.9,137,108.9z"/>
					<path style="fill:#10C6B9;" d="M100.3,178.8h8.2c0.5,0,0.9-0.2,1.3-0.4l0,0c0.1,0,0.1-0.1,0.2-0.1c0,0,0.1,0,0.1-0.1
						c0.1,0,0.1-0.1,0.2-0.1c0,0,0.1,0,0.1-0.1c0.1,0,0.1-0.1,0.2-0.1c0,0,0.1,0,0.1-0.1c0.1-0.1,0.1-0.1,0.2-0.2c0,0,0,0,0.1-0.1
						s0.2-0.2,0.3-0.2l0,0c1.3-1.1,3-2.6,4.8-4.4l0,0h-10.5C103.6,175.4,101.6,177.5,100.3,178.8z"/>
				</g>
			</g>
			<g>
				<g>
					<path style="fill:#181F41;" d="M120.7,169.8c0,0,22.4,5.4,25.2,2.2c-0.7-5.1-5.3-18.1-5.3-18.1l-28.7,2.2
						C111.9,156.1,118.1,163.8,120.7,169.8z"/>
				</g>
				<g>
					<path style="fill:#181F41;" d="M133.9,167.9c1.5,3.5,2.9,7.1,1.9,9.7c-1.1,2.8-4.5,3.9-5,7c-0.2,1.6,0.6,3.3,1.9,4.3
						c1.4,1,3.1,0.9,4.7,0.5c4.8-1.3,7.8-6.1,8.4-10.6c0.4-3.1,0.6-11.2-3.7-16.6"/>
				</g>
				<g>
					<path style="fill:#181F41;" d="M125.8,173.4c-4.8,0.6-6.5,4.3-7.5,6.8c-0.7,1.6-1.2,4-3.2,4.6c-1.1,0.3-2.6,0.1-3.7-0.6
						c-1.2-0.8-1.9-2.1-2.2-3.3c-0.7-3.3,0.4-6.9,1.8-9.7c0.7-1.5,1.7-2.8,2.8-4.1c0.6-0.6,1.2-1.2,1.8-1.7c0.2-0.2,1.7-1.6,2.1-1.5
						l6.7,2.3C124.2,166,127.3,169.9,125.8,173.4z"/>
				</g>
				<g>
					<path style="fill:#181F41;" d="M120.7,169.8c1.5,3.5,2.9,7.1,1.9,9.7c-1.1,2.8-4.5,3.9-5,7c-0.2,1.6,0.6,3.3,1.9,4.3
						c1.4,1,3.1,0.9,4.7,0.5c4.8-1.3,7.8-6.1,8.4-10.6c0.4-3.1,0.1-6.2-0.5-9.3"/>
				</g>
				<g>
					<path style="fill:#181F41;" d="M127.8,169.8c1.5,3.5,2.9,7.1,1.9,9.7c-1.1,2.8-4.5,3.9-5,7c-0.2,1.6,0.6,3.3,1.9,4.3
						c1.4,1,3.1,0.9,4.7,0.5c4.8-1.3,7.8-6.1,8.4-10.6c0.4-3.1,0.1-6.2-0.5-9.3"/>
				</g>
				
					<path style="fill:none;stroke:#31458C;stroke-width:0.7511;stroke-linecap:round;stroke-linejoin:round;stroke-miterlimit:10;" d="
					M123.1,176.7c2.6,1.2,7.8,1.5,9.7,0.1"/>
				
					<path style="fill:none;stroke:#31458C;stroke-width:0.7511;stroke-linecap:round;stroke-linejoin:round;stroke-miterlimit:10;" d="
					M132.8,176.9c2.3,1.4,6.4,1.1,7.3,0"/>
				
					<path style="fill:none;stroke:#31458C;stroke-width:0.7511;stroke-linecap:round;stroke-linejoin:round;stroke-miterlimit:10;" d="
					M140.1,176.9c3,0.8,5.2,0.4,6-0.6"/>
				
					<path style="fill:none;stroke:#31458C;stroke-width:0.7511;stroke-linecap:round;stroke-linejoin:round;stroke-miterlimit:10;" d="
					M122.4,174.4c-4.8,1.1-9.3-0.8-10.4-4.6"/>
			</g>
			
				<path style="fill:none;stroke:#31458C;stroke-width:0.7511;stroke-linecap:round;stroke-linejoin:round;stroke-miterlimit:10;" d="
				M126.3,190.4c3.6-1.9,5.8-6,6.4-9.8c0.2-1.2,0.2-2.5,0.2-3.7"/>
			
				<path style="fill:none;stroke:#31458C;stroke-width:0.7511;stroke-linecap:round;stroke-linejoin:round;stroke-miterlimit:10;" d="
				M134.6,189.6c2.7-2,5-5.6,5.3-9.5c0.1-1,0.1-2.1,0.1-3.3"/>
			<g>
				<path style="fill:#FFFFFF;" d="M142.3,125c-0.7-9.2-5.2-17-16.2-16.6s-14.8,8.5-14.8,17.7c0.2,26.9,0.2,42.8,0.2,42.8l34.1-1.3
					C145.7,167.7,144.4,151.8,142.3,125z"/>
				<path style="fill:#B8D0FF;" d="M136.1,123.4c2.8,27.8,4.5,44.3,4.5,44.3l-5.7,0.3l10.8-0.4c0,0-1.3-15.8-3.4-42.7
					c-0.7-8.6-4.6-16-14.1-16.6C133.1,111.3,135.5,117,136.1,123.4z"/>
				<g>
					<g>
						<defs>
							<path id="SVGID_7_" d="M142.3,125c-0.7-9.2-5.2-17-16.2-16.6s-14.8,8.5-14.8,17.7c0.2,26.9,0.2,42.8,0.2,42.8l34.1-1.3
								C145.7,167.7,144.4,151.8,142.3,125z"/>
						</defs>
						<clipPath id="SVGID_8_">
							<use xlink:href="#SVGID_7_"  style="overflow:visible;"/>
						</clipPath>
						<g style="clip-path:url(#SVGID_8_);">
							<path style="fill:#00E7AE;" d="M86.5,164.2c0.1,3.7,0.2,5.6,0.2,5.6l79.3-2.7c0,0-0.1-1.9-0.2-5.6L86.5,164.2z"/>
						</g>
					</g>
					<g>
						<defs>
							<path id="SVGID_9_" d="M142.3,125c-0.7-9.2-5.2-17-16.2-16.6s-14.8,8.5-14.8,17.7c0.2,26.9,0.2,42.8,0.2,42.8l34.1-1.3
								C145.7,167.7,144.4,151.8,142.3,125z"/>
						</defs>
						<clipPath id="SVGID_10_">
							<use xlink:href="#SVGID_9_"  style="overflow:visible;"/>
						</clipPath>
						<g style="clip-path:url(#SVGID_10_);">
							<path style="fill:#10C6B9;" d="M142.3,176.4l3.3-8.8c0,0-0.1-1.9-0.4-5.4l-5.2,0.2c0.4,3.5,0.5,5.3,0.5,5.3L142.3,176.4z"/>
						</g>
					</g>
					<g>
						<defs>
							<path id="SVGID_11_" d="M142.3,125c-0.7-9.2-5.2-17-16.2-16.6s-14.8,8.5-14.8,17.7c0.2,26.9,0.2,42.8,0.2,42.8l34.1-1.3
								C145.7,167.7,144.4,151.8,142.3,125z"/>
						</defs>
						<clipPath id="SVGID_12_">
							<use xlink:href="#SVGID_11_"  style="overflow:visible;"/>
						</clipPath>
						<g style="clip-path:url(#SVGID_12_);">
							
								<ellipse transform="matrix(0.9755 -0.2201 0.2201 0.9755 -23.4932 32.5197)" style="fill:#00E7AE;" cx="134.2" cy="121.7" rx="5.9" ry="7.6"/>
							<g>
								<path style="fill:#10C6B9;" d="M136.3,123.5h-5.2c-0.9,0-1.6-0.7-1.6-1.6s0.7-1.6,1.6-1.6h5.2c0.9,0,1.6,0.7,1.6,1.6
									S137.1,123.5,136.3,123.5z"/>
							</g>
							<path style="fill:#181F41;" d="M140.1,121.7c-0.4-4.2-3.3-7.6-6.6-7.6c-1.9,0-3.5,1.1-4.4,2.9c0.9-0.8,2-1.3,3.2-1.3
								c3.3,0,6.2,3.4,6.6,7.6c0.2,1.8-0.2,3.4-0.9,4.7C139.5,126.6,140.3,124.3,140.1,121.7z"/>
						</g>
					</g>
					<g>
						<defs>
							<path id="SVGID_13_" d="M142.3,125c-0.7-9.2-5.2-17-16.2-16.6s-14.8,8.5-14.8,17.7c0.2,26.9,0.2,42.8,0.2,42.8l34.1-1.3
								C145.7,167.7,144.4,151.8,142.3,125z"/>
						</defs>
						<clipPath id="SVGID_14_">
							<use xlink:href="#SVGID_13_"  style="overflow:visible;"/>
						</clipPath>
						
							<path style="clip-path:url(#SVGID_14_);fill:none;stroke:#181F41;stroke-width:0.7511;stroke-linecap:round;stroke-linejoin:round;stroke-miterlimit:10;" d="
							M164.4,147.3l-22.5,0.1c0,0-1.6-4.7-7.1-4.6s-6.8,4.9-6.8,4.9l-22.5,0.9"/>
					</g>
				</g>
			</g>
			<g>
				<ellipse style="fill:#FFFFFF;" cx="143.7" cy="65.6" rx="16" ry="20.4"/>
				<path style="fill:#B8D0FF;" d="M154.1,50.1c1.8,3.3,2.9,7.4,2.9,11.7c0,11.3-7.2,20.4-16,20.4c-4,0-7.6-1.8-10.4-4.9
					c2.9,5.3,7.7,8.7,13.1,8.7c8.9,0,16-9.1,16-20.4C159.8,59.4,157.6,53.8,154.1,50.1z"/>
				
					<path style="fill:none;stroke:#181F41;stroke-width:0.7511;stroke-linecap:round;stroke-linejoin:round;stroke-miterlimit:10;" d="
					M143.7,86c5.6-3.1,6.2-12.7,6.2-20.4s-0.6-17.3-6.2-20.4"/>
				<ellipse style="fill:#00E7AE;" cx="148.1" cy="65.6" rx="9.3" ry="11.9"/>
				<path style="fill:#181F41;" d="M148.1,53.7c-0.5,0-0.9,0-1.3,0.1c4.5,0.8,8,5.8,8,11.7c0,6-3.5,10.9-8,11.7
					c0.4,0.1,0.9,0.1,1.3,0.1c5.1,0,9.3-5.3,9.3-11.9C157.4,59,153.2,53.7,148.1,53.7z"/>
				<g>
					<path style="fill:#10C6B9;" d="M149.8,67.5h-6.1c-1,0-1.9-0.8-1.9-1.9s0.8-1.9,1.9-1.9h6.1c1,0,1.9,0.8,1.9,1.9
						S150.9,67.5,149.8,67.5z"/>
				</g>
			</g>
			<g>
				<g>
					<ellipse style="fill:#181F41;" cx="75.4" cy="130.7" rx="7.8" ry="11.2"/>
				</g>
				<g>
					<g>
						<defs>
							<ellipse id="SVGID_15_" cx="75.4" cy="130.7" rx="7.8" ry="11.2"/>
						</defs>
						<clipPath id="SVGID_16_">
							<use xlink:href="#SVGID_15_"  style="overflow:visible;"/>
						</clipPath>
						<g style="clip-path:url(#SVGID_16_);">
							<circle style="fill:#00E7AE;" cx="78.4" cy="130.7" r="8.5"/>
							<path style="fill:#10C6B9;" d="M81.8,123c1.4,1.5,2.3,3.5,2.3,5.8c0,4.7-3.8,8.5-8.5,8.5c-1.2,0-2.4-0.3-3.4-0.7
								c1.6,1.7,3.8,2.7,6.2,2.7c4.7,0,8.5-3.8,8.5-8.5C86.9,127.3,84.8,124.3,81.8,123z"/>
							<path style="fill:none;stroke:#FFFFFF;stroke-width:4.0057;stroke-linecap:round;stroke-miterlimit:10;" d="M77.2,125
								c-1.9,0.5-3.6,2-4.2,3.9"/>
						</g>
					</g>
				</g>
			</g>
			
				<path style="fill:none;stroke:#181F41;stroke-width:0.7511;stroke-linecap:round;stroke-linejoin:round;stroke-miterlimit:10;" d="
				M122.1,108.9c-8,2-10.8,9.1-10.8,17.2c0.2,26.9,0.2,42.8,0.2,42.8"/>
			
				<path style="fill:none;stroke:#181F41;stroke-width:0.7511;stroke-linecap:round;stroke-linejoin:round;stroke-miterlimit:10;" d="
				M137,112c-2.5-2.4-6.1-3.8-11-3.6c-11,0.4-14.8,8.5-14.8,17.7"/>
		</g>
	</g>
	<g>
		<g>
			<g>
				
					<ellipse style="fill:none;stroke:#FFFFFF;stroke-width:2.5036;stroke-linecap:round;stroke-linejoin:round;stroke-miterlimit:10;" cx="59.5" cy="61.8" rx="5.5" ry="7.7"/>
				
					<ellipse style="fill:none;stroke:#FFFFFF;stroke-width:2.5036;stroke-linecap:round;stroke-linejoin:round;stroke-miterlimit:10;" cx="86.6" cy="61.8" rx="5.5" ry="7.7"/>
			</g>
		</g>
		
			<path style="fill:none;stroke:#FFFFFF;stroke-width:2.5036;stroke-linecap:round;stroke-linejoin:round;stroke-miterlimit:10;" d="
			M69,69.4c0.5,1.5,2.1,3.1,3.9,3.1s3.4-1.6,3.9-3.1"/>
	</g>
</g>
</svg>
