<?xml version="1.0" encoding="utf-8"?>
<!-- Generator: Adobe Illustrator 24.1.1, SVG Export Plug-In . SVG Version: 6.00 Build 0)  -->
<svg version="1.1" id="Layer_1" xmlns="http://www.w3.org/2000/svg" xmlns:xlink="http://www.w3.org/1999/xlink" x="0px" y="0px"
	 viewBox="0 0 200 240" style="enable-background:new 0 0 200 240;" xml:space="preserve">
<g>
	<path style="fill:#7FA1B5;" d="M143.78,15.1c-0.75,0.92-2.13,1.24-3.34,1.33c1.25-2.86,0.82-6.15-1.24-9.09
		c0.73-0.21,1.63-0.27,2.46,0.12c1.14,0.54,1.99,1.88,2.51,3.97C144.57,13.05,144.44,14.28,143.78,15.1z"/>
	<path style="fill:#7FA1B5;" d="M138.51,16.53c-1.52,2.55-4.49,4.11-7.5,4.04c2.61-6.57,0.78-12.46-4.96-16.17
		c3.02-1.14,7.55-1.55,11.43,3.43C139.71,10.69,140.09,13.87,138.51,16.53z"/>
	<path style="fill:#7FA1B5;" d="M128.1,22.72c-7.66-5.23-16.17-8.25-26.57-9.47c1.18-2.43,4.77-8.55,11.37-10.02
		c4.83-1.09,12.33,1.03,15.75,5.89C131.29,12.85,131.1,17.54,128.1,22.72z"/>
	<path d="M145.8,11.01c-0.65-2.6-1.81-4.31-3.42-5.07c-1.58-0.75-3.2-0.41-4.3,0c-5.1-5.7-11.07-3.91-13.85-2.58
		c-3.85-1.92-8.34-2.5-11.69-1.75c-9.07,2.01-13.09,11.78-13.09,12.37c0,0.44,0.33,0.8,0.75,0.84c10.98,1.12,19.77,4.23,27.67,9.81
		c0.15,0.1,0.31,0.15,0.48,0.15c0.06,0,0.11-0.01,0.17-0.02c0.22-0.04,0.42-0.18,0.55-0.38c0.47-0.75,0.86-1.47,1.21-2.18
		c0.31,0.03,0.63,0.05,0.94,0.05c3.21,0,6.33-1.57,8.21-4.11c0.06,0,0.12,0.01,0.19,0.01c1.89,0,4.17-0.39,5.47-1.98
		c0.66-0.81,0.99-1.83,0.99-3.05C146.08,12.47,145.98,11.76,145.8,11.01z M128.1,22.72c-7.66-5.23-16.17-8.25-26.57-9.47
		c1.18-2.43,4.77-8.55,11.37-10.02c3.29-0.74,7.82,0.01,11.45,2.1c0.07,0.04,0.15,0.08,0.22,0.13c0.23,0.13,0.45,0.28,0.67,0.42
		c0.13,0.08,0.26,0.17,0.38,0.27c0.19,0.13,0.37,0.27,0.55,0.41c0.11,0.08,0.22,0.17,0.32,0.26c0.18,0.15,0.35,0.3,0.52,0.46
		c0.09,0.08,0.18,0.16,0.26,0.25c0.21,0.21,0.42,0.43,0.62,0.65c0.03,0.03,0.06,0.07,0.09,0.1c0.23,0.27,0.45,0.55,0.66,0.84
		c1.81,2.56,2.29,5.58,1.43,8.9c0,0,0,0,0,0c-0.07,0.27-0.15,0.55-0.24,0.83c-0.01,0.04-0.03,0.09-0.04,0.13
		c-0.08,0.23-0.16,0.46-0.25,0.7c-0.03,0.08-0.06,0.16-0.09,0.25c-0.08,0.2-0.17,0.4-0.25,0.6c-0.05,0.11-0.09,0.22-0.15,0.34
		C128.78,21.48,128.46,22.1,128.1,22.72z M131.02,20.56c1.45-3.65,1.4-6.64,0.68-9.01c-0.04-0.15-0.1-0.3-0.15-0.45
		c-0.04-0.11-0.07-0.21-0.11-0.31c-0.75-2.02-2.09-3.84-3.97-5.36c-0.04-0.03-0.08-0.06-0.12-0.1c-0.22-0.17-0.45-0.34-0.68-0.51
		c-0.17-0.12-0.34-0.24-0.51-0.36c-0.04-0.03-0.08-0.05-0.12-0.08c2.94-1.11,7.32-1.52,11.13,3.08c0,0,0,0.01,0,0.01l0.29,0.34
		c0.28,0.35,0.52,0.71,0.74,1.08c0,0.01,0.01,0.01,0.01,0.02c0.22,0.36,0.41,0.73,0.57,1.1c0,0,0,0,0,0
		c0.32,0.74,0.53,1.48,0.62,2.22c0,0.01,0,0.02,0,0.02c0.04,0.35,0.05,0.7,0.04,1.05c0,0.03,0,0.06,0,0.08
		c-0.02,0.33-0.06,0.65-0.12,0.97c-0.01,0.05-0.02,0.11-0.03,0.16c-0.07,0.29-0.15,0.59-0.26,0.87c-0.03,0.07-0.06,0.15-0.09,0.22
		c-0.11,0.27-0.24,0.53-0.39,0.79c-0.05,0.08-0.1,0.17-0.15,0.25C136.88,19.12,133.97,20.63,131.02,20.56z M143.78,15.1
		c-0.74,0.92-2.13,1.24-3.34,1.33c0.48-1.08,0.72-2.21,0.72-3.36c0-1.9-0.65-3.85-1.94-5.7c-0.01-0.01-0.01-0.02-0.02-0.03
		c0.73-0.21,1.63-0.27,2.46,0.12c1.14,0.54,1.99,1.88,2.51,3.97C144.57,13.05,144.44,14.28,143.78,15.1z"/>
	<circle style="fill:#4F78A2;" cx="114.67" cy="7.31" r="0.98"/>
	<path style="fill:#4F78A2;" d="M122,6.82c0,0.54-0.44,0.98-0.98,0.98c-0.54,0-0.98-0.44-0.98-0.98c0-0.54,0.44-0.98,0.98-0.98
		C121.56,5.84,122,6.28,122,6.82z"/>
	<path style="fill:#4F78A2;" d="M118.09,10.24c0,0.27-0.21,0.49-0.49,0.49c-0.27,0-0.49-0.21-0.49-0.49c0-0.27,0.22-0.49,0.49-0.49
		C117.88,9.75,118.09,9.97,118.09,10.24z"/>
	<path style="fill:#4F78A2;" d="M124.2,10.12c0,0.33-0.27,0.61-0.61,0.61c-0.34,0-0.62-0.27-0.62-0.61c0-0.34,0.27-0.62,0.62-0.62
		C123.93,9.5,124.2,9.77,124.2,10.12z"/>
	<path style="fill:#4F78A2;" d="M127.87,10.85c0,0.33-0.27,0.61-0.61,0.61c-0.34,0-0.62-0.27-0.62-0.61c0-0.34,0.27-0.62,0.62-0.62
		C127.6,10.24,127.87,10.51,127.87,10.85z"/>
	<path style="fill:#4F78A2;" d="M122.98,13.17c0,0.27-0.21,0.49-0.49,0.49c-0.27,0-0.49-0.21-0.49-0.49c0-0.27,0.22-0.49,0.49-0.49
		C122.76,12.68,122.98,12.9,122.98,13.17z"/>
	<path style="fill:#4F78A2;" d="M134.36,6.49c-0.28,0.15-0.63,0.04-0.77-0.23c-0.15-0.27-0.04-0.63,0.23-0.77
		c0.27-0.15,0.63-0.04,0.77,0.23C134.74,6,134.64,6.35,134.36,6.49z"/>
	<path style="fill:#4F78A2;" d="M136.36,9.62c-0.28,0.15-0.63,0.04-0.77-0.23c-0.15-0.28-0.04-0.63,0.23-0.77
		c0.27-0.15,0.62-0.04,0.77,0.23C136.74,9.12,136.63,9.47,136.36,9.62z"/>
	<path style="fill:#4F78A2;" d="M142.98,14.16c-0.27,0.15-0.63,0.04-0.77-0.23c-0.15-0.28-0.04-0.63,0.23-0.77
		c0.28-0.15,0.63-0.04,0.77,0.23C143.36,13.67,143.26,14.01,142.98,14.16z"/>
	<path style="fill:#4F78A2;" d="M133.08,8.8c-0.14,0.08-0.31,0.03-0.39-0.11c-0.07-0.15-0.02-0.32,0.12-0.39
		c0.14-0.08,0.31-0.03,0.39,0.11C133.27,8.55,133.21,8.73,133.08,8.8z"/>
	<path style="fill:#4F78A2;" d="M143.64,12.5c-0.14,0.07-0.32,0.02-0.39-0.12c-0.08-0.14-0.03-0.31,0.11-0.39
		c0.15-0.07,0.32-0.02,0.39,0.12C143.82,12.25,143.77,12.42,143.64,12.5z"/>
	<path style="fill:#4F78A2;" d="M135.81,11.39c-0.17,0.09-0.39,0.03-0.48-0.15c-0.09-0.17-0.03-0.39,0.15-0.48
		c0.17-0.09,0.39-0.03,0.48,0.15C136.05,11.08,135.98,11.31,135.81,11.39z"/>
	<path style="fill:#4F78A2;" d="M142.88,9.43c-0.17,0.09-0.39,0.03-0.48-0.15c-0.09-0.17-0.03-0.39,0.15-0.48
		c0.17-0.09,0.39-0.03,0.48,0.15C143.12,9.12,143.06,9.34,142.88,9.43z"/>
	<path style="fill:#4F78A2;" d="M138.03,12.48c-0.21,0.11-0.46,0.03-0.57-0.17c-0.11-0.21-0.03-0.46,0.18-0.57
		c0.21-0.11,0.45-0.03,0.57,0.17C138.31,12.11,138.24,12.37,138.03,12.48z"/>
	<path style="fill:#4F78A2;" d="M135.49,13.27c-0.14,0.08-0.31,0.03-0.39-0.11c-0.08-0.14-0.03-0.31,0.12-0.39
		c0.14-0.08,0.31-0.03,0.38,0.12C135.68,13.03,135.63,13.2,135.49,13.27z"/>
	<path style="fill:#4F78A2;" d="M142.65,11.33c-0.14,0.08-0.31,0.03-0.39-0.12c-0.07-0.14-0.02-0.31,0.12-0.39
		c0.14-0.07,0.31-0.02,0.39,0.12C142.84,11.08,142.79,11.26,142.65,11.33z"/>
</g>
<g>
	<path style="fill:#36526F;" d="M80.48,152.15c-1.83,0-4.9-1.17-9.8-4.07c-15.45-9.13-16.27-25.83-15.51-34.51
		c7.45,4.27,15.69,7.89,23.49,11.73c0.09,2.85-0.16,5.67-0.16,8.12C78.5,138.7,86.66,152.15,80.48,152.15z"/>
	<path d="M82.16,140.59c-0.98-2.75-1.98-5.59-1.98-7.18c0-0.98,0.04-2.02,0.09-3.13c0.06-1.63,0.13-3.31,0.08-5.03
		c-0.02-0.63-0.38-1.18-0.93-1.46c-2.34-1.15-4.71-2.28-7.1-3.42c-5.47-2.61-11.13-5.3-16.3-8.26c-0.26-0.15-0.55-0.22-0.83-0.22
		c-0.27,0-0.53,0.06-0.78,0.19c-0.51,0.27-0.84,0.77-0.89,1.34c-1.93,21.88,9.39,32.01,16.32,36.11c4.96,2.93,8.35,4.29,10.65,4.29
		c1.79,0,2.75-0.82,3.23-1.51C85.44,149.87,83.92,145.57,82.16,140.59z M80.48,152.15c-1.83,0-4.9-1.17-9.8-4.07
		c-15.45-9.13-16.27-25.83-15.51-34.51c7.45,4.27,15.69,7.89,23.49,11.73c0.09,2.85-0.16,5.67-0.16,8.12
		C78.5,138.7,86.66,152.15,80.48,152.15z"/>
</g>
<g>
	<path style="fill:#36526F;" d="M128.36,188.15c6.84,7.83,4.89,23.47-0.98,28.35c-5.87,4.89,0,20.53,0,20.53
		c-41.06-11.73-22.49-44.97-22.49-44.97s-4.89,5.87-24.44,5.87s-24.44-14.67-24.44-14.67c18.57,0,8.79-1.95,24.44-8.79
		c3.78-1.65,7.21-2.28,10.25-2.28c9.54,0,15.17,6.19,15.17,6.19c5.03-11.08,3.09-30.75-5.79-39.33
		c-20.1-19.42-63.95-23.16-69.49-55.49C24.73,49.34,49.62,19.7,74.59,14.15c3.83-0.85,7.61-1.14,11.25-1.14
		c4.71,0,9.21,0.49,13.28,0.85c20.25,1.81,43.97,9.88,61.98,54.55C185.55,129.01,128.36,188.15,128.36,188.15z"/>
	<path style="fill:#4F78A2;" d="M118.94,183.69c-0.04,0.04-0.08,0.09-0.1,0.15l-12.32-7.04c4.19-11.29,2.04-29.55-6.43-37.75
		c-16.28-15.73-48.12-21.17-62.59-39.84c-1.14-2.2-3-4.68-3.72-7.23c0.25-0.15,0.41-0.43,0.4-0.75c0-0.04-0.13-4.27,2.97-9.35
		c2.88-4.71,9.2-11.17,23.01-15.11c24.16-6.9,54.68-8.86,76.23,37.67C154.52,143.54,119.29,183.29,118.94,183.69z"/>
	<path d="M162.66,67.78c-18.51-45.92-43.6-53.83-63.39-55.59l-1.72-0.15c-3.55-0.33-7.58-0.69-11.71-0.69
		c-4.25,0-8.05,0.39-11.62,1.17c-26.19,5.83-51.24,36.55-45.27,71.33c3.66,21.37,23.09,30.61,41.88,39.54
		c10.77,5.13,20.94,9.96,28.1,16.88c6.66,6.44,10.59,23.02,6.28,35.28c-2.55-2-7.55-5.02-14.5-5.02c-3.58,0-7.25,0.81-10.92,2.42
		c-6.39,2.79-8.78,4.88-10.35,6.26c-2.07,1.8-2.77,2.4-13.41,2.4c-0.54,0-1.05,0.27-1.36,0.7c-0.32,0.44-0.4,0.99-0.23,1.51
		c0.05,0.15,5.51,15.81,26.03,15.81c10.5,0,16.95-1.65,20.77-3.27c-1.89,5.37-3.76,14.23-0.18,22.9
		c3.73,9.03,12.44,15.57,25.88,19.41c0.15,0.04,0.31,0.07,0.46,0.07c0.45,0,0.91-0.2,1.23-0.54c0.44-0.47,0.57-1.14,0.34-1.73
		c-1.41-3.77-4.53-15.29-0.5-18.65c3.17-2.64,5.35-7.83,5.83-13.89c0.48-6.08-0.87-11.69-3.72-15.66
		c3.47-3.83,15.32-17.55,24.83-36.48C170.33,122.06,172.84,93.02,162.66,67.78z M127.38,216.51c-5.87,4.89,0,20.53,0,20.53
		c-41.06-11.73-22.49-44.97-22.49-44.97s-4.89,5.87-24.44,5.87s-24.44-14.67-24.44-14.67c18.57,0,8.79-1.95,24.44-8.79
		c3.78-1.65,7.21-2.28,10.25-2.28c9.54,0,15.17,6.19,15.17,6.19c5.03-11.08,3.09-30.75-5.79-39.33
		c-18.18-17.57-55.8-22.31-66.91-46.98c0.07,0.01,0.13,0.04,0.21,0.04c0.15-0.01,0.27-0.05,0.39-0.13c0.25-0.15,0.41-0.43,0.4-0.75
		c0-0.04-0.13-4.27,2.97-9.35c2.88-4.71,9.2-11.17,23.01-15.11c24.16-6.9,54.68-8.86,76.23,37.67c18.13,39.1-17.1,78.85-17.45,79.25
		c-0.04,0.04-0.08,0.09-0.1,0.15c-0.2,0.33-0.14,0.77,0.16,1.04c0.16,0.15,0.36,0.21,0.56,0.21c0.23,0,0.46-0.09,0.63-0.27
		c0.37-0.41,36.33-40.96,17.73-81.08c-9.63-20.79-21.59-33.59-36.57-39.15c-11.77-4.37-25.01-4.19-41.66,0.57
		c-24.44,6.98-26.92,21.87-27.16,25.39c-0.85-2.17-1.51-4.49-1.94-6.98C24.73,49.34,49.62,19.7,74.59,14.15
		c3.83-0.85,7.61-1.14,11.25-1.14c4.71,0,9.21,0.49,13.28,0.85c20.25,1.81,43.97,9.88,61.98,54.55
		c24.45,60.61-32.74,119.75-32.74,119.75C135.2,195.98,133.25,211.62,127.38,216.51z"/>
	<path style="fill:#7FA1B5;" d="M111.74,181.17c-0.18,0-0.35-0.06-0.5-0.17c-0.37-0.28-0.44-0.79-0.18-1.16
		c0.07-0.11,2.78-4.5,2.78-25.91c0-20.28-10.81-33-27.17-52.24c-16.63-19.56-16.82-32.27-16.82-32.8c0-0.46,0.37-0.84,0.84-0.84h0
		c0.46,0,0.84,0.37,0.84,0.84c0,0.12,0.25,12.69,16.42,31.72c16.6,19.53,27.57,32.44,27.57,53.33c0,22.15-2.78,26.48-3.1,26.9
		C112.24,181.06,111.99,181.17,111.74,181.17z"/>
	<path style="fill:#7FA1B5;" d="M98.05,134.25c-0.27,0-0.54-0.13-0.7-0.37c-0.07-0.11-7.43-11.04-21.31-21.3
		C53.53,95.93,51.36,77.57,51.27,76.8c-0.05-0.46,0.29-0.87,0.75-0.92c0.44-0.04,0.87,0.29,0.92,0.75
		c0.02,0.18,2.22,18.43,24.1,34.61c14.13,10.44,21.63,21.6,21.71,21.72c0.26,0.38,0.15,0.91-0.23,1.16
		C98.38,134.21,98.21,134.25,98.05,134.25z"/>
	<path style="fill:#7FA1B5;" d="M61.88,115.68c-0.12,0-0.24-0.03-0.36-0.08c-18.76-8.89-21.95-28.78-21.98-28.98
		c-0.07-0.46,0.25-0.88,0.7-0.95c0.45-0.06,0.88,0.25,0.95,0.7c0.03,0.19,3.1,19.22,21.04,27.72c0.42,0.2,0.6,0.7,0.4,1.12
		C62.5,115.5,62.2,115.68,61.88,115.68z"/>
	<path style="fill:#7FA1B5;" d="M117.6,182.15c-0.12,0-0.23-0.02-0.35-0.08c-0.42-0.19-0.61-0.69-0.42-1.11
		c6.2-13.63,6.76-29.8,1.67-48.06c-4.5-16.14-12.1-28.79-14.32-32.28c-6.85-10.76-10.71-30.73-10.87-31.58
		c-0.09-0.46,0.21-0.89,0.67-0.98c0.46-0.09,0.89,0.21,0.98,0.67c0.04,0.2,3.96,20.5,10.64,30.99c2.25,3.54,9.96,16.36,14.52,32.73
		c5.2,18.65,4.61,35.21-1.76,49.21C118.23,181.97,117.92,182.15,117.6,182.15z"/>
	<path style="fill:#7FA1B5;" d="M128.36,162.6c-0.08,0-0.16-0.01-0.24-0.03c-0.44-0.13-0.7-0.6-0.57-1.04
		c2.1-7.13,2.88-15.3,2.4-24.97c-0.34-6.75-0.98-13.9-3.38-20.43c-0.97-2.65-2.2-5.29-3.39-7.84c-1.54-3.29-3.12-6.69-4.19-10.18
		c-1.49-4.83-2.56-10.02-3.2-15.43c-0.06-0.46,0.27-0.88,0.73-0.93c0.44-0.06,0.88,0.28,0.93,0.73c0.63,5.31,1.68,10.4,3.14,15.14
		c1.04,3.38,2.6,6.72,4.11,9.96c1.21,2.59,2.45,5.26,3.45,7.97c2.48,6.74,3.14,14.04,3.48,20.92c0.49,9.86-0.32,18.21-2.47,25.53
		C129.06,162.36,128.72,162.6,128.36,162.6z"/>
</g>
<g>
	<g>
		<path style="fill:#3F2475;" d="M96.6,63.1c-4.25-1.11-8.69-1.65-13.43-1.65c-7.08,0-14.8,1.23-23.48,3.71
			c-1.65,0.47-3.26,0.99-4.81,1.58c2.46-3.1,7.48-8.42,14.01-9.73c2.2-0.44,4.59-0.68,7.07-0.68C83.08,56.33,90.84,58.31,96.6,63.1z
			"/>
		<path d="M100.29,64.32c-8.07-8.96-21.75-10.95-31.72-8.96c-10.03,2-16.48,12.33-16.75,12.77c-0.15,0.22-0.16,0.51-0.06,0.75
			c0.09,0.24,0.31,0.43,0.57,0.5c0.06,0.02,0.14,0.03,0.21,0.03c0.12,0,0.23-0.03,0.33-0.07c2.27-0.98,4.72-1.84,7.29-2.58
			c15.66-4.47,28.13-4.82,39.24-1.09c0.37,0.13,0.76-0.02,0.97-0.33C100.58,65.03,100.55,64.61,100.29,64.32z M54.89,66.73
			c2.46-3.1,7.48-8.42,14.01-9.73c2.2-0.44,4.59-0.68,7.07-0.68c7.11,0,14.88,1.98,20.64,6.77c-4.25-1.11-8.69-1.65-13.43-1.65
			c-7.08,0-14.8,1.23-23.48,3.71C58.05,65.63,56.44,66.15,54.89,66.73z"/>
	</g>
	<g>
		<path style="fill:#FFFFFF;" d="M103.1,44.31c-0.33,1.58-1.35,5.36-3.69,6.76c-1.05,0.63-2.23,0.69-3.62,0.19
			c-1.43-0.51-2.42-1.39-3-2.68c-1.15-2.56-0.39-5.99,0.11-7.7c0.48,0.33,1,0.64,1.57,0.95c-0.23,1.28-0.9,5.59,0.81,6.32
			c1.94,0.83,3.53,0.41,4.81-4.3C101.03,44.04,102.03,44.2,103.1,44.31z"/>
		<path d="M105.8,42.77c-0.79-0.01-1.53-0.05-2.25-0.11c-0.01,0-0.01,0-0.02,0c-0.53-0.05-1.05-0.11-1.56-0.19
			c-3.56-0.52-6.57-1.74-8.97-3.63c-0.03-0.03-0.06-0.03-0.09-0.04c-2.55-2.03-3.45-4.11-3.51-4.29c-0.18-0.43-0.67-0.63-1.1-0.46
			c-0.43,0.17-0.63,0.66-0.46,1.09c0.08,0.19,1.01,2.42,3.64,4.65c-0.53,1.6-1.76,6.05-0.21,9.47c0.77,1.7,2.1,2.91,3.96,3.57
			c0.8,0.28,1.57,0.43,2.31,0.43c0.98,0,1.89-0.26,2.74-0.76c3.05-1.83,4.19-6.45,4.51-8.09c0.33,0.02,0.65,0.03,0.99,0.03
			c0.01,0,0.01,0,0.02,0c0.45,0,0.83-0.37,0.83-0.83C106.63,43.16,106.26,42.77,105.8,42.77z M99.42,51.07
			c-1.05,0.63-2.23,0.69-3.62,0.19c-1.43-0.51-2.42-1.39-3-2.68c-1.15-2.56-0.39-5.99,0.11-7.7c0.48,0.33,1,0.64,1.57,0.95
			c-0.23,1.28-0.9,5.59,0.81,6.32c1.94,0.83,3.53,0.41,4.81-4.3c0.93,0.2,1.94,0.35,3.01,0.46
			C102.77,45.88,101.75,49.67,99.42,51.07z"/>
	</g>
	<g>
		<path style="fill:#FFFFFF;" d="M57.11,52.5c-0.82,2.23-2.43,3.72-4.54,4.2c-1.27,0.29-2.19,0.14-2.79-0.46
			c-1.38-1.38-1.09-4.84-0.79-6.52c0.49-0.1,1.01-0.24,1.56-0.41c-0.42,1.76-0.93,5.23,1.98,4.31c2.8-0.87,2.83-4.7,2.64-6.72
			c0.13-0.1,0.27-0.21,0.39-0.32c0.09-0.07,0.18-0.15,0.27-0.21c0.27-0.24,0.54-0.5,0.81-0.76c0.03-0.03,0.06-0.06,0.09-0.09
			C57.78,47.54,57.96,50.21,57.11,52.5z"/>
		<path d="M59.82,38.71c-0.44-0.16-0.92,0.05-1.09,0.48c-0.69,1.78-1.55,3.21-2.5,4.37c-0.01,0.02-0.03,0.02-0.03,0.03
			c-2.48,2.98-5.63,4.11-7.84,4.53c-0.03,0.01-0.06,0.03-0.09,0.04c-2.06,0.37-3.59,0.21-3.75,0.2c-0.47-0.06-0.87,0.27-0.93,0.73
			c-0.05,0.46,0.27,0.88,0.74,0.93c0.02,0.01,0.41,0.04,1.07,0.04c0.49,0,1.11-0.02,1.84-0.1c-0.28,1.85-0.55,5.56,1.35,7.45
			c0.73,0.74,1.68,1.11,2.84,1.11c0.47,0,0.98-0.06,1.52-0.19c2.64-0.6,4.73-2.52,5.74-5.25c1.1-2.97,0.76-6.39-0.81-8.9
			c0.93-1.21,1.77-2.65,2.43-4.39C60.47,39.36,60.25,38.88,59.82,38.71z M57.11,52.5c-0.82,2.23-2.43,3.72-4.54,4.2
			c-1.27,0.29-2.19,0.14-2.79-0.46c-1.38-1.38-1.09-4.84-0.79-6.52c0.49-0.1,1.01-0.24,1.56-0.41c-0.42,1.76-0.93,5.23,1.98,4.31
			c2.8-0.87,2.83-4.7,2.64-6.72c0.13-0.1,0.27-0.21,0.39-0.32c0.09-0.07,0.18-0.15,0.27-0.21c0.27-0.24,0.54-0.5,0.81-0.76
			c0.03-0.03,0.06-0.06,0.09-0.09C57.78,47.54,57.96,50.21,57.11,52.5z"/>
	</g>
</g>
<g>
	<path style="fill:#36526F;" d="M170.24,62.18c-0.71,21.72-12.99,21.75-13.58,21.75c-0.24,0.03-0.46,0.14-0.63,0.29l-22.28-19.99
		c6.57-0.65,11.73-6.76,14.01-12.74c3.06-8.02-3.19-16.09-7.18-20.19c-1.83-1.88-4.81-4.29-7.44-6.44
		c-0.62-0.51-1.22-0.99-1.77-1.45c8.17-3.35,15.49-0.46,20.28,2.66C162.88,33.37,170.7,48.56,170.24,62.18z"/>
	<path d="M171.92,62.24c-0.75,23.04-14.6,23.37-15.27,23.37c-0.02,0-0.02,0-0.03,0c-0.46-0.02-0.82-0.39-0.81-0.86
		c0.01-0.21,0.09-0.39,0.23-0.53c0.16-0.15,0.39-0.26,0.63-0.29c0.58,0,12.87-0.03,13.58-21.75c0.45-13.62-7.36-28.81-18.57-36.1
		c-4.79-3.12-12.11-6.01-20.28-2.66c0.55,0.45,1.15,0.94,1.77,1.45c2.63,2.14,5.61,4.56,7.44,6.44c3.99,4.1,10.24,12.16,7.18,20.19
		c-2.29,5.97-7.45,12.09-14.01,12.74c-0.28,0.03-0.57,0.04-0.85,0.05c-0.45,0.04-0.84-0.35-0.86-0.81
		c-0.01-0.46,0.35-0.85,0.81-0.86c6.19-0.16,11.16-6,13.34-11.72c2.73-7.15-3.1-14.61-6.81-18.41c-1.77-1.81-4.71-4.2-7.29-6.31
		c-1.05-0.85-2.02-1.65-2.83-2.32c-0.21-0.19-0.33-0.46-0.29-0.75c0.04-0.28,0.21-0.53,0.47-0.65c7.29-3.52,15.51-2.74,23.13,2.22
		C164.25,32.26,172.38,48.06,171.92,62.24z"/>
</g>
</svg>
