<?xml version="1.0" encoding="utf-8"?>
<!-- Generator: Adobe Illustrator 24.1.1, SVG Export Plug-In . SVG Version: 6.00 Build 0)  -->
<svg version="1.1" id="Layer_1" xmlns="http://www.w3.org/2000/svg" xmlns:xlink="http://www.w3.org/1999/xlink" x="0px" y="0px"
	 viewBox="0 0 170 240" style="enable-background:new 0 0 170 240;" xml:space="preserve">
<g>
	<path style="fill:#FFFFFF;" d="M57.49,32.35c-0.6,0.46-1.18,0.63-1.75,0.63c-2.96,0-5.57-5.08-7.3-6.78
		c-1.29-1.26-2.73-1.78-4.22-1.78c-2.47,0-5.06,1.38-7.24,3.07c0,0.03-2.3,1.98-3.16,2.84v0.03c-1.46,1.52-3.45,2.3-5.4,2.3
		c-1.84,0-3.71-0.66-5.14-2.07c-1.87-1.78-2.61-4.31-2.24-6.66C21.28,22.5,21.94,21.15,23,20c0.23-0.26,0.89-0.92,1.9-1.84
		c3.1-2.9,6.72-5.34,10.83-6.58c1.92-0.57,3.76-0.86,5.51-0.86c1.58,0,3.13,0.23,4.65,0.66c1.52,0.46,3.04,1.12,4.62,1.98
		c1.29,0.72,2.5,1.64,3.65,2.59C57.81,18.97,62.49,28.53,57.49,32.35z"/>
	<path d="M56.37,13.28c-1.55-1.26-2.87-2.21-4.19-2.93c-1.84-1.01-3.59-1.75-5.34-2.27c-1.87-0.55-3.71-0.8-5.6-0.8
		c-2.13,0-4.25,0.32-6.52,1.01c-4.22,1.29-8.33,3.76-12.18,7.38c-0.98,0.86-1.69,1.61-2.04,1.95c-1.24,1.32-2.13,2.9-2.59,4.6
		c-0.11,0.37-0.2,0.78-0.26,1.18c-0.57,3.56,0.63,7.18,3.25,9.71c2.04,1.95,4.71,3.02,7.53,3.02c2.96,0,5.83-1.24,7.9-3.39
		c0.29-0.29,0.83-0.78,1.41-1.29c0.89-0.72,1.84-1.49,1.95-1.64c1.72-1.24,3.33-1.92,4.54-1.92c0.69,0,1.26,0.26,1.81,0.8
		c0.29,0.29,0.83,1.01,1.32,1.67c1.92,2.56,4.54,6.09,8.39,6.09c1.35,0,2.67-0.46,3.82-1.32c2.27-1.72,3.48-4.28,3.56-7.38
		C63.24,22.39,59.71,16.07,56.37,13.28z M57.49,32.35c-0.6,0.46-1.18,0.63-1.75,0.63c-2.96,0-5.57-5.08-7.3-6.78
		c-1.29-1.26-2.73-1.78-4.22-1.78c-2.47,0-5.06,1.38-7.24,3.07c0,0.03-2.3,1.98-3.16,2.84v0.03c-1.46,1.52-3.45,2.3-5.4,2.3
		c-1.84,0-3.71-0.66-5.14-2.07c-1.87-1.78-2.61-4.31-2.24-6.66C21.28,22.5,21.94,21.15,23,20c0.23-0.26,0.89-0.92,1.9-1.84
		c1.26-1.18,2.61-2.3,4.05-3.27c2.1-1.41,4.34-2.59,6.78-3.3c1.92-0.57,3.76-0.86,5.51-0.86c1.58,0,3.13,0.23,4.65,0.66
		c1.52,0.46,3.04,1.12,4.62,1.98c1.29,0.72,2.5,1.64,3.65,2.59C57.81,18.97,62.49,28.53,57.49,32.35z"/>
	<path style="fill:#673101;" d="M36.99,27.5c0,0.03-2.3,1.98-3.16,2.84v0.03c-1.46,1.52-3.45,2.3-5.4,2.3
		c-1.84,0-3.71-0.66-5.14-2.07c-1.87-1.78-2.61-4.31-2.24-6.66C21.28,22.5,21.94,21.15,23,20c0.23-0.26,0.89-0.92,1.9-1.84
		c1.26-1.18,2.61-2.3,4.05-3.27c0.14,0,0.26,0.03,0.37,0.06c0.03,0,0.03,0,0.06,0c0.03,0,0.03,0.03,0.06,0.03
		c1.15,0.32,1.67,1.21,1.67,1.21v0.03c0.46,0.69,0.63,1.55,0.43,2.41c-0.2,0.72-0.63,1.26-1.21,1.67c0.63-0.32,1.38-0.46,2.13-0.26
		c1.58,0.43,2.56,2.07,2.13,3.68c-0.2,0.78-0.69,1.41-1.35,1.81c0.52-0.17,1.12-0.26,1.69-0.11C35.98,25.69,36.7,26.52,36.99,27.5z"
		/>
</g>
<g>
	<path style="fill:#FFFFFF;" d="M112.73,30.6c-1.44,1.41-3.3,2.07-5.14,2.07c-1.98,0-3.93-0.78-5.4-2.3c0,0,0-0.03-0.03-0.03
		c-0.83-0.86-3.13-2.81-3.13-2.84c-2.21-1.69-4.77-3.07-7.24-3.07c-1.49,0-2.93,0.52-4.22,1.78c-1.72,1.69-4.34,6.78-7.3,6.78
		c-0.57,0-1.15-0.17-1.75-0.63c-5.03-3.82-0.32-13.38,3.33-16.4c1.15-0.95,2.36-1.87,3.65-2.59c1.58-0.86,3.1-1.52,4.62-1.98
		c1.52-0.43,3.07-0.66,4.65-0.66c1.75,0,3.59,0.29,5.51,0.86c4.11,1.24,7.73,3.68,10.83,6.58c1.01,0.92,1.67,1.58,1.9,1.84
		c1.06,1.15,1.69,2.5,1.95,3.93C115.35,26.29,114.6,28.82,112.73,30.6z"/>
	<path d="M118.36,23.36c-0.34-2.13-1.32-4.11-2.81-5.72c-0.37-0.37-1.09-1.12-2.1-2.04c-0.37-0.34-0.75-0.69-1.12-1.01
		c-3.5-3.02-7.21-5.14-11.03-6.32c-2.27-0.69-4.39-1.01-6.52-1.01c-1.9,0-3.73,0.26-5.63,0.8c-1.72,0.52-3.48,1.26-5.31,2.27
		c-1.32,0.72-2.64,1.67-4.19,2.93c-3.33,2.79-6.86,9.1-6.75,14.45c0.06,3.1,1.29,5.66,3.56,7.38c1.15,0.86,2.47,1.32,3.82,1.32
		c3.85,0,6.46-3.53,8.39-6.09c0.49-0.66,1.01-1.38,1.32-1.67c0.55-0.55,1.12-0.8,1.81-0.8c1.21,0,2.81,0.69,4.54,1.92
		c0.17,0.23,2.53,2.1,3.3,2.87c0.03,0.03,0.03,0.03,0.06,0.06c2.04,2.15,4.94,3.39,7.9,3.39c2.81,0,5.49-1.06,7.53-3.02
		C117.73,30.57,118.94,26.95,118.36,23.36z M112.73,30.6c-1.44,1.41-3.3,2.07-5.14,2.07c-1.98,0-3.93-0.78-5.4-2.3
		c0,0,0-0.03-0.03-0.03c-0.83-0.86-3.13-2.81-3.13-2.84c-2.21-1.69-4.77-3.07-7.24-3.07c-1.49,0-2.93,0.52-4.22,1.78
		c-1.72,1.69-4.34,6.78-7.3,6.78c-0.57,0-1.15-0.17-1.75-0.63c-5.03-3.82-0.32-13.38,3.33-16.4c1.15-0.95,2.36-1.87,3.65-2.59
		c1.58-0.86,3.1-1.52,4.62-1.98c1.52-0.43,3.07-0.66,4.65-0.66c1.75,0,3.59,0.29,5.51,0.86c2.44,0.72,4.68,1.9,6.78,3.33h0.03
		c1.44,0.98,2.76,2.07,4.02,3.25c1.01,0.92,1.67,1.58,1.9,1.84c1.06,1.15,1.69,2.5,1.95,3.93C115.35,26.29,114.6,28.82,112.73,30.6z
		"/>
	<path style="fill:#673101;" d="M112.73,30.6c-1.44,1.41-3.3,2.07-5.14,2.07c-1.98,0-3.93-0.78-5.4-2.3c0,0,0-0.03-0.03-0.03
		c-0.83-0.86-3.13-2.81-3.13-2.84c0.29-0.98,1.01-1.81,2.07-2.1c0.57-0.14,1.15-0.06,1.69,0.11c-0.66-0.4-1.15-1.03-1.35-1.81
		c-0.43-1.61,0.55-3.25,2.13-3.68c0.75-0.2,1.46-0.06,2.13,0.26c-0.57-0.4-1.01-0.95-1.21-1.67c-0.26-1.03,0.06-2.1,0.75-2.81
		c0.83-0.83,1.69-0.89,1.84-0.89h0.03c1.44,0.98,2.76,2.07,4.02,3.25c1.01,0.92,1.67,1.58,1.9,1.84c1.06,1.15,1.69,2.5,1.95,3.93
		C115.35,26.29,114.6,28.82,112.73,30.6z"/>
</g>
<g>
	<path style="fill:#FFFFFF;" d="M60.54,163.39v34.04c0,0-2.53,0.63-5.89,0.63c-3.16,0-5.6-0.55-5.89-0.63v-34.04
		c0-2.27,1.81-4.08,4.05-4.08C55.06,159.31,60.54,161.12,60.54,163.39z"/>
	<path style="fill-rule:evenodd;clip-rule:evenodd;fill:#009FF9;" d="M60.54,197.43v30.82c0,2.04-2.81,3.76-5.08,4.16l-1.01,0.11
		h-9.82c-1.01,0-2.04,0.03-3.1,0.03c-3.22,0-6.52-0.32-8.79-2.9c-2.04-2.33-1.46-7.01-0.17-9.56c2.41-4.71,6.89-8.19,12.06-9.31
		c0,0,0.23-0.03,0.29-0.06c0.69-0.11,1.32-0.23,1.9-0.26c0.23-0.03,0.46-0.06,0.69-0.06c0.34-0.03,0.69-0.03,1.01-0.03h0.23v-12.95
		c0,0,0,0,0.03,0c0.29,0.09,2.73,0.63,5.89,0.63C58.01,198.06,60.54,197.43,60.54,197.43z"/>
	<path d="M48.74,197.43v12.95h0.03v-12.95C48.74,197.43,48.74,197.43,48.74,197.43z"/>
	<path d="M52.82,155.87c-4.14,0-7.53,3.36-7.53,7.53v43.77c-0.34,0.06-0.69,0.12-1.03,0.17l-0.4,0.09
		c-6.12,1.35-11.49,5.49-14.36,11.12c-1.67,3.3-2.58,9.68,0.66,13.38c3.13,3.59,7.53,4.08,11.37,4.08h1.67
		c0.49-0.03,0.98-0.03,1.44-0.03h9.82c0.12,0,0.23,0,0.34-0.03l1.01-0.09c0.09-0.03,0.17-0.03,0.26-0.06
		c3.85-0.69,7.93-3.59,7.93-7.55v-64.85C63.99,157.73,55.17,155.87,52.82,155.87z M60.54,228.25c0,2.04-2.81,3.76-5.08,4.16
		l-1.01,0.11h-9.82c-1.01,0-2.04,0.03-3.1,0.03c-3.22,0-6.52-0.32-8.79-2.9c-2.04-2.33-1.46-7.01-0.17-9.56
		c2.41-4.71,6.89-8.19,12.06-9.31c0,0,0.23-0.03,0.29-0.06c0.69-0.11,1.32-0.23,1.9-0.26c0.23-0.03,0.46-0.06,0.69-0.06
		c0.34-0.03,0.69-0.03,1.01-0.03h0.23v-12.95c0,0,0,0,0.03,0v-34.04c0-2.27,1.81-4.08,4.05-4.08c2.24,0,7.73,1.81,7.73,4.08V228.25z
		"/>
</g>
<g>
	<path style="fill:#FFFFFF;" d="M87.28,163.39v34.04c0,0-2.56,0.63-5.92,0.63c-3.36,0-5.89-0.63-5.89-0.63v-34.04
		c0-2.27,5.49-4.08,7.73-4.08C85.44,159.31,87.28,161.12,87.28,163.39z"/>
	<path style="fill-rule:evenodd;clip-rule:evenodd;fill:#009FF9;" d="M103.28,229.65c-2.27,2.59-5.57,2.9-8.79,2.9
		c-1.06,0-2.1-0.03-3.1-0.03h-9.82l-0.98-0.11c-2.3-0.4-5.11-2.13-5.11-4.16v-30.82c0,0,2.53,0.63,5.89,0.63
		c3.36,0,5.92-0.63,5.92-0.63v12.95h0.23c0.32,0,0.66,0,1.01,0.03c0.23,0,0.46,0.03,0.69,0.06c0.57,0.03,1.21,0.14,1.9,0.26
		c0.06,0.03,0.29,0.06,0.29,0.06c5.17,1.12,9.65,4.6,12.06,9.31C104.74,222.64,105.32,227.33,103.28,229.65z"/>
	<path d="M106.52,218.54c-2.87-5.63-8.24-9.77-14.42-11.12l-0.2-0.06c-0.4-0.06-0.8-0.14-1.18-0.2v-43.77
		c0-4.16-3.39-7.53-7.52-7.53c-2.36,0-11.17,1.87-11.17,7.53v64.85c0,3.96,4.08,6.86,7.93,7.55c0.09,0.03,0.17,0.03,0.26,0.06
		l1.01,0.09c0.11,0.03,0.23,0.03,0.34,0.03h9.82c0.46,0,0.95,0,1.44,0.03h1.67c3.88,0,8.24-0.49,11.37-4.08
		C109.11,228.22,108.19,221.84,106.52,218.54z M103.28,229.65c-2.27,2.59-5.57,2.9-8.79,2.9c-1.06,0-2.1-0.03-3.1-0.03h-9.82
		l-0.98-0.11c-2.3-0.4-5.11-2.13-5.11-4.16v-64.85c0-2.27,5.49-4.08,7.73-4.08c2.24,0,4.08,1.81,4.08,4.08v46.99h0.23
		c0.32,0,0.66,0,1.01,0.03c0.23,0,0.46,0.03,0.69,0.06c0.57,0.03,1.21,0.14,1.9,0.26c0.06,0.03,0.29,0.06,0.29,0.06
		c5.17,1.12,9.65,4.6,12.06,9.31C104.74,222.64,105.32,227.33,103.28,229.65z"/>
</g>
<g>
	<path style="fill:#FFFFFF;" d="M21.19,129.41c-0.83,2.79-1.41,5.6-1.69,8.44c-4.11,1.26-9.19-0.32-12.01-2.07
		c1.26-7.81,4.48-15.31,10.22-21.94c1.29-1.46,3.16-4.11,5.37-4.19C31.27,109.31,22.05,126.51,21.19,129.41z"/>
	<path style="fill:#0088C5;" d="M19.21,169.11c-0.6,0.09-1.32,0.09-2.04,0.03c-1.55-0.11-3.19-0.57-4.22-1.41
		c-4.71-3.96-5.28-10.89-5.89-16.31c-0.29-2.81-0.4-5.66-0.32-8.5c0-0.09,0.03-0.26,0.03-0.49c0.03-0.6,0.09-1.61,0.14-2.67
		c0.11-1.49,0.26-3.04,0.4-3.68c0.03-0.09,0.06-0.14,0.09-0.2c0.03-0.06,0.06-0.09,0.09-0.09h0.03c2.81,1.75,7.87,3.33,11.98,2.07
		h0.03c-0.09,0.75-0.17,1.52-0.2,2.3c0.06,1.69,0.17,3.45,0.17,3.79c0.03,5.69,1.92,10.14,3.62,15.45
		C24.41,163.36,25.07,168.39,19.21,169.11z"/>
	<path d="M25.53,155.67c-1.38-4.05-2.56-7.55-2.58-11.72c0-0.17,0-0.57-0.03-1.15c-0.06-0.69-0.11-1.64-0.14-2.59
		c0.2-3.45,0.78-6.75,1.69-9.79c0.11-0.32,0.57-1.41,1.01-2.36c3.3-7.67,6.06-14.88,3.27-19.13c-1.15-1.75-3.07-2.73-5.43-2.73
		h-0.37c-3.45,0.14-5.8,2.96-7.35,4.83l-0.46,0.57c-5.69,6.55-9.33,14.22-10.89,22.83c-0.69,1.67-0.8,4.39-0.95,8.33
		c-0.09,2.96,0.03,5.97,0.34,9.02l0.06,0.63c0.6,5.6,1.44,13.27,7.04,17.95c2.01,1.67,4.74,2.1,6.18,2.21
		c0.37,0.03,0.75,0.06,1.12,0.06c0.57,0,1.09-0.06,1.61-0.11c3.71-0.46,5.6-2.27,6.52-3.71c1.61-2.56,1.69-6,0.23-10.48
		C26.1,157.42,25.82,156.56,25.53,155.67z M19.21,169.11c-0.34,0.06-0.75,0.09-1.18,0.09c-0.29,0-0.57-0.03-0.86-0.06
		c-1.55-0.11-3.19-0.57-4.22-1.41c-4.71-3.96-5.28-10.89-5.89-16.31c-0.29-2.81-0.4-5.66-0.32-8.5c0-0.09,0.03-0.26,0.03-0.49
		c0.03-0.6,0.06-1.61,0.14-2.67c0.09-1.46,0.23-3.04,0.4-3.68c0.03-0.09,0.06-0.14,0.09-0.2c0.03-0.09,0.06-0.11,0.09-0.09h0.03
		c1.26-7.81,4.45-15.31,10.2-21.94c1.29-1.46,3.16-4.11,5.37-4.19h0.23c7.78,0-1.26,16.89-2.13,19.76c-0.86,2.79-1.41,5.6-1.67,8.44
		c-0.09,0.75-0.17,1.52-0.2,2.3c0.06,1.69,0.17,3.45,0.17,3.79c0.03,5.69,1.92,10.14,3.62,15.45
		C24.41,163.36,25.07,168.39,19.21,169.11z"/>
</g>
<g>
	<path d="M108.19,114.86c-3.56-6.93,15.59-6.59,18.55-7.13c2.51-0.46,4.95-1.13,7.32-2c0.14-0.05,0.28-0.11,0.42-0.17
		c0.94-0.36,1.88-0.74,2.8-1.15c0.37-0.17,0.73-0.34,1.09-0.52c0.5-0.24,1-0.5,1.5-0.76c4.82-2.57,8.99-5.97,12.71-10.39
		c2.87-3.41,6.77-6.68,10.37-1.41c0.21,0.31,0.41,0.65,0.6,1.02c0.13,0.25,0.25,0.51,0.36,0.78c0.61,1.45,0.95,3.11,0.66,4.4
		c-1.35,6-7.25,9.68-11.82,12.68c-2.37,1.56-4.84,2.96-7.41,4.17c-0.58,0.27-6.43,3.02-6.7,2.6c-0.01-0.02-0.03-0.05-0.04-0.07
		c-7.51,2.45-15.61,3.06-24.14,0.99c-1.9-0.46-5.09-0.94-6.17-2.85C108.27,114.99,108.23,114.92,108.19,114.86 M105.13,116.43
		c0.06,0.11,0.12,0.22,0.18,0.33c1.7,3,5.27,3.8,7.64,4.33l0.72,0.17c8.33,2.03,16.76,1.77,25.05-0.75c1.84-0.05,4.37-1.24,8.11-3
		c2.64-1.24,5.28-2.72,7.84-4.41l0.52-0.34c4.71-3.09,11.16-7.33,12.76-14.47c0.57-2.54-0.28-5.16-0.84-6.49
		c-0.15-0.35-0.31-0.7-0.48-1.03c-0.25-0.49-0.53-0.96-0.82-1.39c-1.84-2.7-4.08-4.13-6.64-4.26c-4.02-0.2-7.18,2.98-9.21,5.4
		c-3.42,4.07-7.24,7.19-11.65,9.55c-0.46,0.24-0.93,0.48-1.41,0.71c-0.34,0.16-0.67,0.32-1.01,0.48c-0.85,0.38-1.72,0.74-2.59,1.07
		l-0.39,0.16c-2.24,0.82-4.51,1.44-6.75,1.84c-0.34,0.06-1.52,0.14-2.55,0.2c-8.32,0.54-15.99,1.39-18.5,5.81
		C104.47,111.41,103.68,113.61,105.13,116.43L105.13,116.43z"/>
	<path style="fill:#FFFFFF;" d="M138.64,116.94c-1.74-2.69-3.73-6.58-4.67-11.16c-2.35,0.82-4.75,1.5-7.24,1.94
		c-2.97,0.56-22.49,0.22-18.44,7.34c1.09,1.93,4.29,2.38,6.18,2.86C123,120,131.13,119.41,138.64,116.94z"/>
	<path style="fill:#0088C5;" d="M145.34,114.4c2.57-1.22,5.05-2.62,7.42-4.16c4.55-3.02,10.45-6.69,11.82-12.69
		c0.27-1.3-0.07-2.97-0.68-4.4c-0.28-0.67-0.6-1.3-0.96-1.8c-3.61-5.28-7.52-2.01-10.39,1.4c-3.77,4.49-7.97,7.93-12.87,10.52
		c-0.64,0.33-1.28,0.66-1.97,0.95c-0.72,0.37-1.48,0.7-2.28,0.97c-0.47,0.21-0.96,0.4-1.47,0.59c0.94,4.59,2.93,8.47,4.67,11.16
		c0.01,0.03,0.01,0.03,0.03,0.05C138.91,117.41,144.77,114.66,145.34,114.4z"/>
</g>
<g>
	<g>
		<path style="fill-rule:evenodd;clip-rule:evenodd;fill:#009FF9;" d="M116.63,137.34c0.46,8.59-1.67,21.17-7.38,28.58
			c-6.75,8.7-19.07,14.39-33.78,15.6c-1.75,0.14-3.68,0.23-5.51,0.23l-1.95-0.03l-1.95,0.03c-1.84,0-3.76-0.09-5.51-0.23
			c-14.71-1.21-27.03-6.89-33.78-15.6c-5.72-7.38-7.84-19.99-7.38-28.58c0.26-4.8,1.32-9.68,2.33-14.36
			c0.52-2.41,1.06-4.83,1.49-7.24c0.46-2.67,0.17-7.67,0.14-7.93c-0.34-3.73-1.46-7.24-2.5-10.17c-4.14-11.55-4.83-22.35-2.21-33.98
			c2.38-10.51,7.38-19.44,13.67-24.47c10.54-8.39,22.75-13.21,33.55-13.21h4.31c10.8,0,23.01,4.83,33.55,13.21
			C110,44.22,115,53.16,117.38,63.67c2.61,11.63,1.92,22.43-2.21,33.98c-1.03,2.93-2.15,6.41-2.5,10.22
			c-0.03,0.11-0.11,1.75-0.11,3.65c0,1.46,0.06,3.07,0.26,4.22c0.43,2.41,0.98,4.83,1.49,7.24
			C115.34,127.66,116.38,132.54,116.63,137.34z"/>
		<path d="M117.67,122.23c-0.52-2.36-1.03-4.71-1.44-7.09c-0.34-1.87-0.2-5.74-0.14-7.01c0.32-3.36,1.35-6.61,2.33-9.33
			c4.31-12.01,5.06-23.75,2.33-35.9c-2.56-11.26-7.98-20.88-14.88-26.4c-11.14-8.87-24.13-13.96-35.67-13.96h-4.34
			c-11.57,0-24.56,5.08-35.67,13.96c-6.92,5.51-12.35,15.14-14.91,26.4c-2.73,12.15-1.98,23.9,2.33,35.9
			c0.98,2.73,2.01,5.97,2.33,9.28c0.06,1.32,0.2,5.2-0.14,7.07c-0.4,2.38-0.92,4.74-1.44,7.09c-1.06,4.83-2.15,9.82-2.41,14.94
			c-0.49,9.51,1.81,22.72,8.1,30.85c7.35,9.48,20.56,15.65,36.22,16.95c1.87,0.14,3.88,0.23,5.8,0.23l1.95-0.03l1.95,0.03
			c1.95,0,3.93-0.09,5.8-0.23c15.65-1.29,28.87-7.47,36.22-16.95c6.29-8.13,8.59-21.34,8.1-30.85
			C119.82,132.06,118.73,127.06,117.67,122.23z M69.96,181.74l-1.95-0.03l-1.95,0.03c-1.84,0-3.76-0.09-5.51-0.23
			c-14.71-1.21-27.03-6.89-33.78-15.6c-5.72-7.38-7.84-19.99-7.38-28.58c0.26-4.8,1.32-9.68,2.33-14.36
			c0.52-2.41,1.06-4.83,1.49-7.24c0.46-2.67,0.17-7.67,0.14-7.93c-0.34-3.73-1.46-7.24-2.5-10.17c-4.14-11.55-4.83-22.35-2.21-33.98
			c2.38-10.51,7.38-19.44,13.67-24.47c10.54-8.39,22.75-13.21,33.55-13.21h4.31c10.8,0,23.01,4.83,33.55,13.21
			C110,44.22,115,53.16,117.38,63.67c2.61,11.63,1.92,22.43-2.21,33.98c-1.03,2.93-2.15,6.41-2.5,10.22
			c-0.03,0.11-0.11,1.75-0.11,3.65c0,1.46,0.06,3.07,0.26,4.22c0.43,2.41,0.98,4.83,1.49,7.24c1.03,4.68,2.07,9.56,2.33,14.36
			c0.46,8.59-1.67,21.17-7.38,28.58c-6.75,8.7-19.07,14.39-33.78,15.6C73.72,181.66,71.8,181.74,69.96,181.74z"/>
	</g>
	<path style="fill-rule:evenodd;clip-rule:evenodd;fill:#FFFFFF;" d="M74.21,31.92c4.64,0.61,9.19,1.85,13.33,3.61
		c6.76,2.87,14.64,7.49,18.28,13.96c1.61,2.86,2.7,6,3.33,9.22c0.48,2.43-0.12,5.85,1.34,7.94c2.96,4.24,3.64,6.63,4.46,11.91
		c0.77,4.97,0.34,10.28-1.77,14.89c-5.48,12-18.73,17.06-30.87,17.44c-1.68,0.05-3.39,0.1-5.08,0.15
		c-7.88,0.24-15.65,0.1-23.53-0.15c-12.13-0.38-25.39-5.44-30.87-17.44c-2.1-4.61-2.53-9.92-1.77-14.89
		c0.82-5.28,1.49-7.67,4.46-11.91c1.46-2.09,0.87-5.51,1.34-7.94c0.63-3.22,1.72-6.36,3.33-9.22c3.64-6.48,9.7-11.09,16.46-13.96
		c2.74-1.16,5.59-2.06,8.49-2.73C60.82,31.49,68.43,31.16,74.21,31.92z"/>
	<path style="fill-rule:evenodd;clip-rule:evenodd;fill:#FDBDB8;" d="M49.67,80.42c0,7.07-5.69,12.8-12.7,12.8s-12.7-5.73-12.7-12.8
		c0-7.06,5.69-12.79,12.7-12.79S49.67,73.36,49.67,80.42"/>
	<path style="fill-rule:evenodd;clip-rule:evenodd;fill:#FDBDB8;" d="M111.75,80.42c0,7.07-5.69,12.8-12.71,12.8
		c-7.01,0-12.69-5.73-12.69-12.8c0-7.06,5.68-12.79,12.69-12.79C106.06,67.63,111.75,73.36,111.75,80.42"/>
</g>
<g>
	<path style="fill-rule:evenodd;clip-rule:evenodd;" d="M70.2,76.31c0,0.92-0.97,1.67-2.19,1.67c-1.22,0-2.19-0.74-2.19-1.67
		c0-0.91,0.98-1.67,2.19-1.67C69.23,74.64,70.2,75.39,70.2,76.31"/>
	<path style="fill-rule:evenodd;clip-rule:evenodd;" d="M80.6,74.32L80.6,74.32c-1.64,0-2.97-1.24-2.97-2.76v-0.39
		c0-1.53,1.33-2.77,2.97-2.77c1.64,0,2.98,1.24,2.98,2.77v0.39C83.58,73.08,82.25,74.32,80.6,74.32"/>
	<path style="fill-rule:evenodd;clip-rule:evenodd;" d="M55.41,74.32L55.41,74.32c-1.64,0-2.97-1.24-2.97-2.76v-0.39
		c0-1.53,1.33-2.77,2.97-2.77c1.64,0,2.98,1.24,2.98,2.77v0.39C58.39,73.08,57.06,74.32,55.41,74.32"/>
	<path style="fill:#231815;" d="M75.61,86.91c-2.77,0-5.53-0.82-7.6-2.18c-3.82,2.5-10,3.19-14.28,0.23
		c-1.25-0.87-2.77-2.23-2.93-3.8c-0.08-0.76,0.17-1.49,0.7-2.04c0.65-0.7,1.75-0.72,2.43-0.06c0.52,0.49,0.66,1.24,0.42,1.87
		c0.24,0.29,0.71,0.76,1.34,1.19c3.27,2.27,8.59,1.42,11.18-0.85c0.65-0.57,1.62-0.57,2.27,0c2.58,2.26,7.91,3.11,11.17,0.85
		c0.63-0.43,1.11-0.9,1.34-1.19c-0.24-0.63-0.1-1.37,0.42-1.87c0.69-0.66,1.78-0.64,2.43,0.06c0.53,0.55,0.78,1.28,0.7,2.04
		c-0.16,1.57-1.69,2.93-2.93,3.79C80.32,86.32,77.96,86.91,75.61,86.91z M82.03,81.5h0.03H82.03z"/>
</g>
</svg>
