<?xml version="1.0" encoding="utf-8"?>
<!-- Generator: Adobe Illustrator 24.1.1, SVG Export Plug-In . SVG Version: 6.00 Build 0)  -->
<svg version="1.1" id="Layer_1" xmlns="http://www.w3.org/2000/svg" xmlns:xlink="http://www.w3.org/1999/xlink" x="0px" y="0px"
	 viewBox="0 0 180 240" style="enable-background:new 0 0 180 240;" xml:space="preserve">
<g>
	<path style="fill:#FFFFFF;" d="M54.48,73.73h-29.8c-2.1-1.22-14.72-9.49-12.98-33.07c1.26-17.3,3.8-23.73,5.13-26
		c1.73,2.91,5.85,8.66,12.89,12.12l9.41,19.61c0.23,0.55,4.34,10.47-2.67,14.81c-0.64,0.4-0.84,1.22-0.45,1.87
		c0.26,0.42,0.71,0.65,1.16,0.65c0.25,0,0.49-0.07,0.72-0.21c6.46-4,5.85-11.9,4.33-16.64l9.55-1.72l2.67,27.96
		C54.43,73.33,54.46,73.53,54.48,73.73z"/>
	<path style="fill:#FFFFFF;" d="M79.22,106.73l-6.98,79.29c-13.08,0.52-21.04-7.74-22.45-9.38c-0.25-2.3-1.36-14.22,0.04-25.99
		c0.63-5.31,2.64-11.32,4.76-17.7c3.13-9.36,6.36-19.06,5.58-27.73c-1.16-12.77-5.03-53.27-5.74-60.63l27.33-7.16
		C72.28,57.42,78.69,103.08,79.22,106.73z"/>
	<path style="fill:#FFFFFF;" d="M134.89,131.82c6.23,15.56,13.98,34.95,11.97,42c-2.37,8.35-19.08,11.3-24.34,12.03
		c0.84-23.8-12.73-67.02-14.09-71.3c0.31-2.86,2.76-25.99,2.76-44.26c0-15.17-3.11-28.49-4.52-33.78l26.86,7.97
		c-1.05,3.99-4.12,16.31-5.01,26.11c-2.36,14.92-4.02,32.14-1.17,41.17C129.06,117.23,131.9,124.32,134.89,131.82z"/>
	<path style="fill:#FFFFFF;" d="M173.07,91.38c-0.76,6.15-21.16,16.81-34.29,22.3c-2.79-2.14-6-10.36-7.62-15.76l11.45-13.51v-0.02
		c0.02-0.02,0.02-0.02,0.02-0.02c0.04-0.07,4.27-5.39,8.96-3.72c0.71,0.26,1.49-0.12,1.74-0.82c0.26-0.71-0.12-1.5-0.83-1.74
		c-5.13-1.83-9.51,1.91-11.22,3.7l-10.29-5.91c-0.02-1.41,0.06-3.01,0.21-4.69c1.79-11.44,4-21.58,4.9-25.54
		C155.68,57.48,174.08,83.43,173.07,91.38z"/>
	<path style="fill:#CCCCCC;" d="M135.86,42.38c-0.04-0.02-0.08-0.02-0.12-0.04c-0.06-0.02-0.1-0.07-0.17-0.08l-30.5-9.05
		c-0.49-0.14-1.01,0-1.36,0.36c-0.36,0.36-0.48,0.88-0.33,1.36c0.06,0.17,5.07,16.28,5.07,35.38c0,19.25-2.75,44-2.78,44.24
		c-0.02,0.19,0,0.38,0.06,0.57c0.17,0.48,15.56,48.64,13.97,72.2c-0.02,0.41,0.12,0.79,0.41,1.07c0.26,0.25,0.6,0.38,0.95,0.38h0.14
		c1.01-0.11,24.95-2.56,28.28-14.2c2.26-7.95-5.03-26.15-12.06-43.77c-2.98-7.45-5.8-14.49-7.49-19.85
		c-0.98-3.13-1.37-7.38-1.36-12.22c1.01,3.38,4.88,15.36,9.46,17.69c0.21,0.11,0.41,0.15,0.63,0.15c0.17,0,0.34-0.02,0.52-0.1
		c3.62-1.5,35.38-14.88,36.61-24.75C177.05,81.56,156.24,53.81,135.86,42.38z M127.35,111.77c1.72,5.46,4.55,12.56,7.54,20.05
		c6.23,15.56,13.98,34.95,11.97,42c-2.37,8.35-19.08,11.3-24.34,12.03c0.84-23.8-12.73-67.02-14.09-71.3
		c0.31-2.86,2.76-25.99,2.76-44.26c0-15.17-3.11-28.49-4.52-33.78l7.05,2.09c0.04,0.2,0.1,0.39,0.23,0.56l8.24,11.13l-8.41,21.17
		c-0.15,0.38-0.13,0.8,0.07,1.16l6.15,11.2l-10.13,19.8c-0.34,0.67-0.08,1.49,0.59,1.83c0.2,0.1,0.41,0.15,0.62,0.15
		c0.49,0,0.97-0.27,1.22-0.74l10.47-20.44c0.21-0.41,0.2-0.88-0.02-1.28l-6.19-11.27l8.45-21.28c0.17-0.44,0.11-0.94-0.17-1.31
		l-7-9.45l15.69,4.65c-1.05,3.99-4.12,16.31-5.01,26.11C126.16,85.52,124.5,102.74,127.35,111.77z M128.6,96.72
		c0.12-5.62,0.72-11.93,1.54-18.18l9.32,5.35l-10.85,12.79C128.6,96.71,128.6,96.72,128.6,96.72z M173.07,91.38
		c-0.76,6.15-21.16,16.81-34.29,22.3c-2.79-2.14-6-10.36-7.62-15.76l11.45-13.51v-0.02c0.02-0.02,0.02-0.02,0.02-0.02
		c0.04-0.07,4.27-5.39,8.96-3.72c0.71,0.26,1.49-0.12,1.74-0.82c0.26-0.71-0.12-1.5-0.83-1.74c-5.13-1.83-9.51,1.91-11.22,3.7
		l-10.29-5.91c-0.02-1.41,0.06-3.01,0.21-4.69c1.79-11.44,4-21.58,4.9-25.54C155.68,57.48,174.08,83.43,173.07,91.38z"/>
	<path style="fill:#CCCCCC;" d="M85.59,34.51c-0.33-0.46-0.91-0.67-1.45-0.52l-31.46,8.24L41.14,44.3l-9.19-19.13
		c-0.14-0.29-0.36-0.52-0.64-0.64c-8.9-4.18-12.95-12.7-13-12.79c-0.3-0.64-1.05-0.95-1.72-0.69c-1.31,0.49-5.77,4.08-7.62,29.43
		c-2,27.04,14.06,35.47,14.73,35.83c0.19,0.1,0.41,0.15,0.63,0.15h30.4c1.1,11.59,2.21,23.2,2.72,29.03
		c0.74,8.08-2.4,17.51-5.45,26.61c-2.17,6.5-4.22,12.65-4.88,18.23c-1.6,13.37-0.02,26.9,0,27.04c0.02,0.25,0.12,0.48,0.27,0.67
		c0.37,0.46,8.52,10.74,23.51,10.74c0.87,0,1.77-0.02,2.69-0.11c0.67-0.06,1.18-0.57,1.25-1.24l7.11-80.61c0-0.11,0-0.21-0.02-0.31
		c-0.08-0.53-7.7-52.91,3.69-70.45C85.93,35.57,85.92,34.96,85.59,34.51z M24.67,73.73c-2.1-1.22-14.72-9.49-12.98-33.07
		c1.26-17.3,3.8-23.73,5.13-26c1.73,2.91,5.85,8.66,12.89,12.12l9.41,19.61c0.23,0.55,4.34,10.47-2.67,14.81
		c-0.64,0.4-0.84,1.22-0.45,1.87c0.26,0.42,0.71,0.65,1.16,0.65c0.25,0,0.49-0.07,0.72-0.21c6.46-4,5.85-11.9,4.33-16.64l9.55-1.72
		l2.67,27.96c0.02,0.21,0.04,0.41,0.06,0.61C54.48,73.73,24.67,73.73,24.67,73.73z M79.22,106.73l-6.98,79.29
		c-13.08,0.52-21.04-7.74-22.45-9.38c-0.25-2.3-1.36-14.22,0.04-25.99c0.63-5.31,2.64-11.32,4.76-17.7
		c1.56-4.67,3.14-9.43,4.25-14.1l7.86-20.74c0.26-0.71-0.09-1.49-0.79-1.76s-1.49,0.09-1.76,0.79l-3.88,10.23
		c-0.02-0.72-0.04-1.45-0.1-2.16c-1.16-12.77-5.03-53.27-5.74-60.63l18.01-4.72L61.99,50.1c-0.44,0.44-0.54,1.13-0.22,1.67
		l10.17,17.29l-6.73,13.5c-0.17,0.36-0.19,0.77-0.03,1.14l11.17,26.28c0.22,0.52,0.72,0.83,1.25,0.83c0.17,0,0.36-0.03,0.53-0.11
		c0.69-0.29,1.02-1.1,0.72-1.79L67.92,83.2l6.78-13.6c0.21-0.41,0.19-0.91-0.05-1.29L64.65,51.3l13.1-12.83l3.99-1.05
		C72.28,57.42,78.69,103.08,79.22,106.73z"/>
</g>
</svg>
