<?xml version="1.0" encoding="utf-8"?>
<!-- Generator: Adobe Illustrator 26.5.0, SVG Export Plug-In . SVG Version: 6.00 Build 0)  -->
<svg version="1.1" id="레이어_1" xmlns="http://www.w3.org/2000/svg" xmlns:xlink="http://www.w3.org/1999/xlink" x="0px"
	 y="0px" viewBox="0 0 222 168" style="enable-background:new 0 0 222 168;" xml:space="preserve">
<g>
	<g>
		<g>
			<path style="fill:#B3000C;" d="M48.1,155.8c-1.9,0-3.8-0.5-5.5-1.4c-2.4-1.4-4.2-3.7-5.1-6.4c-1.1,0.1-2.2-0.1-3.3-0.4
				c-3-0.8-5.5-2.9-6.9-5.6c-2.3,0.1-4.7-0.9-6.5-2.7c-1.9-1.8-2.8-4.3-2.7-6.7c0-0.1,0-0.3,0-0.4c-1.9-0.3-3.7-0.9-5.3-2.1
				c-0.4-0.3-0.7-0.8-0.8-1.4c-0.3-1.9-0.1-3.8,0.5-5.7c-1.6-1.3-2.6-3.3-2.9-5.5c-0.3-2.1,0.1-4.2,1-6c-2.5-1.2-4.7-3-5.2-6.1
				c-0.3-1.9,0.2-3.9,1.4-6c1.1-1.9,2.6-3.5,4.4-4.8c-0.3-1.1-0.5-2.1-0.5-3.2c0-6.6,4.3-12.2,7.4-16.4c0.7-1,2.1-1.2,3.1-0.4
				c1,0.7,1.2,2.1,0.4,3.1c-3.6,4.7-6.5,9-6.5,13.7c0,0.4,0,0.7,0.1,1.1c1.7-0.6,3.6-1,5.4-0.9c2.7,0,5.6,1.4,7,3.4
				c1,1.4,1.2,3,0.7,4.6c-0.6,1.6-2,2.9-3.8,3.5c-2.7,1-5.7,0.5-8.3-1.3c-1.2-0.8-2.2-1.9-3-3c-1,0.8-1.9,1.8-2.5,2.9
				c-0.5,0.8-1,2-0.8,3c0.2,1.3,1.4,2.3,3.7,3.2c2.9-2.3,7-3.4,11.5-3c1,0.1,1.8,0.8,2,1.8c0.6,3.3-2.1,6.1-5,6.8
				c-2.5,0.6-5,0-7-0.5c0,0-0.1,0-0.1,0c-0.7,1.2-1,2.6-0.9,4c0.1,0.5,0.3,1.4,0.8,2.1c2-2.4,4.7-3.9,7.6-4.3
				c1.2-0.1,2.2,0.6,2.4,1.7c0.5,2.6-0.7,5.1-3.1,6.8c-1.6,1-3.4,1.5-5.1,1.4c-0.3,0.8-0.4,1.6-0.4,2.4c1,0.6,2.3,0.8,3.7,0.9
				c0.5-0.6,1-1.1,1.7-1.6c2.1-1.6,4.6-2.2,7-1.7c0.7,0.1,1.3,0.6,1.6,1.2c0.6,1.2,0.5,2.5-0.2,3.7c-1.2,1.9-4.1,2.9-6.2,2.9
				c-0.4,0-0.8,0-1.2,0c0,0.2-0.1,0.3-0.1,0.5c-0.1,1.1,0.4,2.4,1.4,3.3c0.6,0.6,1.3,1,2.1,1.2c-0.1-2.6,1.1-5.3,3.1-6.8
				c1.5-1.2,3.4-1.4,5.1-0.8c0.7,0.3,1.2,0.9,1.4,1.6c0.5,2.4-0.2,4.9-1.8,7c-0.6,0.8-1.4,1.5-2.2,2.1c0.9,1.3,2.3,2.4,3.8,2.8
				c0.5,0.1,1,0.2,1.5,0.2c0.1-0.8,0.2-1.7,0.5-2.5c0.7-2.3,2.3-4,4.2-4.6c1.5-0.4,3.1-0.1,4.4,0.9c1.1,0.9,1.6,2.2,1.5,3.5
				c-0.1,1.1-0.6,1.9-1,2.4c-1.2,1.6-2.8,2.8-4.5,3.6c0.6,1.5,1.6,2.8,2.9,3.5c2.7,1.5,6.5,0.9,8.6-1.4c0.8-0.9,2.2-1,3.1-0.2
				c0.9,0.8,1,2.2,0.2,3.1C54.5,154.5,51.3,155.8,48.1,155.8z M42.7,141c-0.3,0.2-0.6,0.5-0.8,0.9C42.2,141.6,42.4,141.3,42.7,141z
				 M17.1,96.6c0.5,0.6,1.1,1.2,1.7,1.6c1,0.7,2.5,1.4,4.3,0.8c0.6-0.2,1-0.6,1.2-0.9c0-0.1,0.1-0.3-0.1-0.6
				C23.5,96.7,22,96,20.7,96C19.5,96,18.3,96.2,17.1,96.6z"/>
			<path d="M20,74.2c0.5,0,0.9,0.1,1.3,0.4c1,0.7,1.2,2.1,0.4,3.1c-3.6,4.7-6.5,9-6.5,13.7c0,0.4,0,0.7,0.1,1.1
				c1.7-0.6,3.5-0.9,5.3-0.9c0.1,0,0.1,0,0.2,0c2.7,0,5.6,1.4,7,3.4c1,1.4,1.2,3,0.7,4.6c-0.6,1.6-2,2.9-3.8,3.5
				c-0.9,0.3-1.9,0.5-2.9,0.5c-1.9,0-3.7-0.6-5.4-1.8c-1.2-0.8-2.2-1.9-3-3c-1,0.8-1.9,1.8-2.5,2.9c-0.5,0.8-1,2-0.8,3
				c0.2,1.3,1.4,2.3,3.7,3.2c2.5-2,6-3.1,9.7-3.1c0.6,0,1.2,0,1.7,0.1c1,0.1,1.8,0.8,2,1.8c0.6,3.3-2.1,6.1-5,6.8
				c-0.7,0.2-1.5,0.3-2.2,0.3c-1.7,0-3.4-0.4-4.8-0.8c0,0-0.1,0-0.1,0c-0.7,1.2-1,2.6-0.9,4c0.1,0.5,0.3,1.4,0.8,2.1
				c2-2.4,4.7-3.9,7.6-4.3c0.1,0,0.1,0,0.2,0c1.1,0,2,0.7,2.2,1.7c0.5,2.6-0.7,5.1-3.1,6.8c-1.4,0.9-3.1,1.4-4.6,1.4
				c-0.2,0-0.3,0-0.5,0c-0.3,0.8-0.4,1.6-0.4,2.4c1,0.6,2.3,0.8,3.7,0.9c0.5-0.6,1-1.1,1.7-1.6c1.6-1.2,3.5-1.9,5.4-1.9
				c0.5,0,1.1,0.1,1.6,0.2c0.7,0.1,1.3,0.6,1.6,1.2c0.6,1.2,0.5,2.5-0.2,3.7c-1.2,1.9-4.1,2.9-6.2,2.9c-0.4,0-0.8,0-1.2,0
				c0,0.2-0.1,0.3-0.1,0.5c-0.1,1.1,0.4,2.4,1.4,3.3c0.6,0.6,1.3,1,2.1,1.2c-0.1-2.6,1.1-5.3,3.1-6.8c1-0.7,2.1-1.1,3.2-1.1
				c0.6,0,1.2,0.1,1.8,0.3c0.7,0.3,1.2,0.9,1.4,1.6c0.5,2.4-0.2,4.9-1.8,7c-0.6,0.8-1.4,1.5-2.2,2.1c0.9,1.3,2.3,2.4,3.8,2.8
				c0.5,0.1,1,0.2,1.5,0.2c0.1-0.8,0.2-1.7,0.5-2.5c0.7-2.3,2.3-4,4.2-4.6c0.4-0.1,0.8-0.2,1.3-0.2c1.1,0,2.2,0.4,3.1,1.1
				c1.1,0.9,1.6,2.2,1.5,3.5c-0.1,1.1-0.6,1.9-1,2.4c-1.2,1.6-2.8,2.8-4.5,3.6c0.6,1.5,1.6,2.8,2.9,3.5c1,0.6,2.1,0.8,3.3,0.8
				c2,0,4-0.8,5.3-2.2c0.4-0.5,1-0.7,1.6-0.7c0.5,0,1.1,0.2,1.5,0.6c0.9,0.8,1,2.2,0.2,3.1c-2.2,2.4-5.4,3.7-8.6,3.7
				c-1.9,0-3.8-0.5-5.5-1.4c-2.4-1.4-4.2-3.7-5.1-6.4c-0.2,0-0.3,0-0.5,0c-0.9,0-1.9-0.1-2.8-0.4c-3-0.8-5.5-2.9-6.9-5.6
				c-0.1,0-0.1,0-0.2,0c-2.3,0-4.6-0.9-6.3-2.7c-1.9-1.8-2.8-4.3-2.7-6.7c0-0.1,0-0.3,0-0.4c-1.9-0.3-3.7-0.9-5.3-2.1
				c-0.4-0.3-0.7-0.8-0.8-1.4c-0.3-1.9-0.1-3.8,0.5-5.7c-1.6-1.3-2.6-3.3-2.9-5.5c-0.3-2.1,0.1-4.2,1-6c-2.5-1.2-4.7-3-5.2-6.1
				c-0.3-1.9,0.2-3.9,1.4-6c1.1-1.9,2.6-3.5,4.4-4.8c-0.3-1.1-0.5-2.1-0.5-3.2c0-6.6,4.3-12.2,7.4-16.4C18.6,74.5,19.3,74.2,20,74.2
				 M21.7,99.2c0.4,0,0.9-0.1,1.4-0.2c0.6-0.2,1-0.6,1.2-0.9c0-0.1,0.1-0.3-0.1-0.6C23.5,96.7,22,96,20.7,96c0,0-0.1,0-0.1,0
				c-1.2,0-2.3,0.2-3.5,0.6c0.5,0.6,1.1,1.2,1.7,1.6C19.5,98.7,20.5,99.2,21.7,99.2 M42.7,141c-0.3,0.2-0.6,0.5-0.8,0.9
				C42.2,141.6,42.4,141.3,42.7,141 M20,71.2c-1.6,0-3.2,0.8-4.2,2.1c-3.4,4.5-8,10.6-8,18.2c0,0.7,0,1.4,0.1,2
				c-1.4,1.3-2.7,2.8-3.6,4.4c-1.6,2.7-2.2,5.4-1.8,8c0.5,2.8,2,5.1,4.5,6.9c-0.4,1.7-0.5,3.4-0.3,5.1c0.3,2.3,1.2,4.3,2.5,6
				c-0.4,1.8-0.4,3.6-0.1,5.3c0.2,1.3,0.9,2.5,2,3.3c1.2,0.9,2.6,1.6,4.1,2.1c0.3,2.5,1.5,5,3.5,6.9c1.9,1.9,4.3,3.1,6.9,3.4
				c1.9,2.7,4.7,4.7,7.9,5.6c0.7,0.2,1.4,0.3,2,0.4c1.3,2.6,3.2,4.7,5.6,6c2.1,1.2,4.5,1.8,7,1.8c4.2,0,8.2-1.8,10.9-4.7
				c1.9-2.2,1.7-5.5-0.4-7.4c-1-0.9-2.2-1.3-3.5-1.3c-1.5,0-2.9,0.6-3.9,1.7c-0.7,0.7-1.8,1.2-3,1.2c-0.7,0-1.3-0.2-1.8-0.4
				c0,0,0,0,0,0c1-0.8,1.9-1.7,2.6-2.7c0.3-0.5,1.4-1.9,1.6-3.9c0.2-2.3-0.7-4.6-2.6-6.1c-1.4-1.2-3.2-1.8-5-1.8
				c-0.7,0-1.5,0.1-2.2,0.3c-0.7,0.2-1.4,0.5-2,0.9c0.2-1.2,0.1-2.4-0.1-3.6c-0.4-1.8-1.6-3.2-3.2-3.8c-0.6-0.2-1.1-0.4-1.7-0.5
				c-0.1-0.7-0.3-1.4-0.6-2c-0.7-1.5-2.1-2.6-3.7-2.9c-0.7-0.1-1.3-0.2-2-0.2c0.8-1.7,1-3.6,0.6-5.6c-0.1-0.6-0.4-1.2-0.7-1.8
				c2.2-1.9,3.5-4.8,2.9-8c-0.2-0.9-0.5-1.6-1-2.3c1-0.9,1.7-2,2.2-3.3c0.9-2.5,0.5-5.1-1-7.3c-1.9-2.8-5.7-4.6-9.4-4.7l-0.2,0
				c-0.6,0-1.2,0-1.9,0.1c0.9-2.9,3-5.9,5.4-9.1c0.8-1.1,1.2-2.5,1-3.9c-0.2-1.4-0.9-2.6-2.1-3.4C22.2,71.6,21.1,71.2,20,71.2
				L20,71.2z M12.9,104.1c0-0.1,0.1-0.4,0.4-0.8c0.3,0.2,0.6,0.5,0.8,0.7c-0.3,0.1-0.5,0.3-0.8,0.4C13.1,104.3,13,104.2,12.9,104.1
				L12.9,104.1z"/>
		</g>
	</g>
	<g>
		<path style="fill:#B3000C;" d="M169.9,55.3c-5.4-4.6-58.9-3.8-58.9-3.8s-53.4-0.8-58.9,3.8c-5.4,4.6-11.5,34-11.5,34v57
			c0,4.3,1.7,8.4,4.9,11.3c4.6,4.2,13.1,8.9,27.8,8.9c26.2,0,37.8,0,37.8,0s11.5,0,37.8,0c14.7,0,23.2-4.7,27.8-8.9
			c3.2-2.9,4.9-7,4.9-11.3v-57C181.4,89.3,175.3,59.9,169.9,55.3z"/>
		<path d="M148.8,168H73.3c-15.3,0-24.1-5.1-28.8-9.3c-3.4-3.1-5.4-7.6-5.4-12.4v-57c0-0.1,0-0.2,0-0.3c0.6-3.1,6.3-30.1,12-34.9
			c5.6-4.7,50.9-4.3,59.9-4.1c9-0.1,54.2-0.6,59.8,4.1c5.7,4.8,11.4,31.8,12,34.9c0,0.1,0,0.2,0,0.3v57c0,4.8-2,9.3-5.4,12.4
			C172.9,162.9,164.1,168,148.8,168z M42.2,89.5v56.9c0,3.9,1.6,7.6,4.4,10.1c4.3,3.9,12.4,8.5,26.7,8.5h75.5
			c14.3,0,22.4-4.6,26.7-8.5c2.8-2.5,4.4-6.2,4.4-10.1V89.5c-2.4-11.6-7.3-29.9-11-33c-3.6-3.1-37.4-3.7-57.9-3.4
			c-20.5-0.3-54.3,0.3-57.9,3.4C49.5,59.6,44.6,77.8,42.2,89.5z"/>
	</g>
	<g>
		<path style="fill:#EF2A37;" d="M45.5,130c4.6,4.2,13.1,8.9,27.8,8.9c26.2,0,37.8,0,37.8,0s11.5,0,37.8,0c14.7,0,23.2-4.7,27.8-8.9
			c3.2-2.9,4.9-7,4.9-11.3v-57c0,0-6.1-29.4-11.5-34c-5.4-4.6-58.9-3.8-58.9-3.8s-53.4-0.8-58.9,3.8c-5.4,4.6-11.5,34-11.5,34v57
			C40.6,123,42.3,127.1,45.5,130"/>
		<path style="fill:#FF8E92;" d="M148.8,140.4H73.3c-15.3,0-24.1-5.1-28.8-9.3l0,0c-3.4-3.1-5.4-7.6-5.4-12.4v-57c0-0.1,0-0.2,0-0.3
			c0.6-3.1,6.3-30.1,12-34.9c5.6-4.7,50.9-4.3,59.9-4.1c9-0.1,54.2-0.6,59.8,4.1c5.7,4.8,11.4,31.8,12,34.9c0,0.1,0,0.2,0,0.3v57
			c0,4.8-2,9.3-5.4,12.4C172.9,135.3,164.1,140.4,148.8,140.4z M46.5,128.8c4.3,3.9,12.4,8.5,26.7,8.5h75.5
			c14.3,0,22.4-4.6,26.7-8.5c2.8-2.5,4.4-6.2,4.4-10.1V61.8c-2.4-11.6-7.3-29.9-11-33c-3.6-3.1-37.4-3.7-57.9-3.4
			c-20.5-0.3-54.3,0.3-57.9,3.4c-3.7,3.1-8.6,21.4-11,33v56.9C42.2,122.6,43.8,126.3,46.5,128.8L46.5,128.8z"/>
	</g>
	<ellipse style="fill:#B3000C;" cx="111" cy="90.4" rx="39.1" ry="38.9"/>
	<g>
		<ellipse style="fill:#CECECE;" cx="111" cy="82.7" rx="39.1" ry="38.9"/>
		<path d="M111,123.1c-22.4,0-40.6-18.1-40.6-40.4c0-22.3,18.2-40.4,40.6-40.4s40.6,18.1,40.6,40.4C151.6,105,133.4,123.1,111,123.1
			z M111,45.3c-20.7,0-37.6,16.8-37.6,37.4s16.8,37.4,37.6,37.4s37.6-16.8,37.6-37.4S131.7,45.3,111,45.3z"/>
	</g>
	<g>
		<ellipse style="fill:#7A7A7A;" cx="111" cy="82.7" rx="24.6" ry="24.5"/>
		<path d="M111,108.7c-14.4,0-26.1-11.7-26.1-26s11.7-26,26.1-26s26.1,11.7,26.1,26S125.4,108.7,111,108.7z M111,59.7
			C98.3,59.7,88,70,88,82.7s10.3,23,23.1,23s23.1-10.3,23.1-23S123.7,59.7,111,59.7z"/>
	</g>
	<path d="M148.8,168H73.3c-15.3,0-24.1-5.1-28.8-9.3c-3.4-3.1-5.4-7.6-5.4-12.4V61.7c0-0.1,0-0.2,0-0.3c0.6-3.1,6.3-30.1,12-34.9
		c5.6-4.7,50.9-4.3,59.9-4.1c9-0.1,54.2-0.6,59.8,4.1c5.7,4.8,11.4,31.8,12,34.9c0,0.1,0,0.2,0,0.3v84.7c0,4.8-2,9.3-5.4,12.4
		C172.9,162.9,164.1,168,148.8,168z M42.2,61.8v84.5c0,3.9,1.6,7.6,4.4,10.1c4.3,3.9,12.4,8.5,26.7,8.5h75.5
		c14.3,0,22.4-4.6,26.7-8.5c2.8-2.5,4.4-6.2,4.4-10.1V61.8c-2.4-11.6-7.3-29.9-11-33c-3.6-3.1-37.4-3.7-57.9-3.4
		c-20.5-0.3-54.3,0.3-57.9,3.4C49.5,31.9,44.6,50.2,42.2,61.8z"/>
	<g>
		<path style="fill:#B3000C;" d="M179.8,17.5c0,0-17-3.8-68.8-3.8c-51.8,0-68.8,3.8-68.8,3.8C5.5,28.9,1.1,60.7,1.9,69.9
			c0.8,9.1,8,10.3,8,10.3s23.4,5.7,43.4,0c7.8-2.2,7.3-34.6,7.7-44.1c0.1-3,1.1-5.4,2.3-7.4c2.6-4.1,7.2-6.3,12-6.3H111h35.7
			c4.8,0,9.5,2.3,12,6.3c1.2,2,2.2,4.4,2.3,7.4c0.4,9.5-0.4,43,7.7,44.1c8,1.1,43.4,0,43.4,0s7.3-1.1,8-10.3
			C221,60.7,216.6,28.9,179.8,17.5z"/>
		<path d="M33.1,84.2c-12.7,0-22.9-2.4-23.6-2.6C6.7,81.2,1,78.2,0.3,70c0-0.4-2.1-40.4,41.4-54c0.8-0.2,17.9-3.9,69.2-3.9
			s68.4,3.7,69.1,3.8c0,0,0.1,0,0.1,0c43.6,13.6,41.5,53.6,41.4,54c-0.7,8.2-6.4,11.2-9.3,11.7c-1.6,0.1-35.8,1.2-43.9,0
			c-7.5-1.1-8.5-20.5-8.8-40.2c0-2.2-0.1-4-0.1-5.3c-0.1-2.4-0.8-4.6-2.1-6.7c-2.2-3.5-6.3-5.6-10.8-5.6H75.3
			c-4.5,0-8.6,2.1-10.8,5.6c-1.3,2-2,4.3-2.1,6.7c-0.1,1.3-0.1,3-0.1,4.9C62,60.4,61,79.6,53.8,81.6C46.9,83.5,39.7,84.2,33.1,84.2z
			 M111,15.2c-50.9,0-68.3,3.7-68.4,3.8C1.4,31.8,3.3,69.4,3.4,69.7c0.7,7.9,6.7,8.9,6.8,8.9c0.3,0.1,23.4,5.5,42.8,0
			c5.7-1.6,6.2-27.9,6.4-37.7c0-2,0.1-3.7,0.1-5c0.1-2.9,1-5.7,2.5-8.1c2.7-4.3,7.8-7,13.3-7h71.4c5.5,0,10.6,2.7,13.3,7
			c1.6,2.5,2.4,5.2,2.5,8.1c0.1,1.4,0.1,3.2,0.1,5.4c0.2,9,0.6,36.5,6.2,37.3c7.8,1.1,42.8,0,43.2,0c0.1,0,5.9-1.1,6.6-8.9
			c0-0.4,2-37.9-39.3-50.8C178.3,18.7,160.5,15.2,111,15.2z"/>
	</g>
	<g>
		<path style="fill:#EF2A37;" d="M179.8,5.3c0,0-17-3.8-68.8-3.8c-51.8,0-68.8,3.8-68.8,3.8C5.5,16.8,1.1,48.6,1.9,57.7
			c0.8,9.1,8,10.3,8,10.3s23.4,5.7,43.4,0c7.8-2.2,7.3-11.8,7.7-21.3c0.1-3,1.1-5.4,2.3-7.4c2.6-4.1,7.2-6.3,12-6.3H111h35.7
			c4.8,0,9.5,2.3,12,6.3c1.2,2,2.2,4.4,2.3,7.4c0.4,9.5-0.4,20.2,7.7,21.3c8,1.1,43.4,0,43.4,0s7.3-1.1,8-10.3
			C221,48.6,216.6,16.8,179.8,5.3z"/>
		<path style="fill:#5F0006;" d="M33.1,72.1c-12.7,0-22.9-2.4-23.6-2.6C6.7,69.1,1,66,0.3,57.9c0-0.4-2.1-40.4,41.4-54
			C42.6,3.7,59.6,0,111,0s68.4,3.7,69.1,3.8c0,0,0.1,0,0.1,0c43.6,13.6,41.5,53.6,41.4,54c-0.7,8.2-6.4,11.2-9.3,11.7
			c-1.6,0.1-35.8,1.2-43.9,0c-8.4-1.2-8.6-10.9-8.9-19.5c0-1.1-0.1-2.2-0.1-3.3c-0.1-2.4-0.8-4.6-2.1-6.7c-2.2-3.5-6.3-5.6-10.8-5.6
			H75.3c-4.5,0-8.6,2.1-10.8,5.6c-1.3,2-2,4.3-2.1,6.7c0,0.9-0.1,1.8-0.1,2.8c-0.3,8.7-0.5,17.7-8.7,20
			C46.9,71.4,39.7,72.1,33.1,72.1z M111,3C60.1,3,42.7,6.8,42.6,6.8C1.4,19.6,3.3,57.2,3.4,57.6c0.7,7.9,6.7,8.9,6.8,8.9
			c0.3,0.1,23.4,5.5,42.8,0c6-1.7,6.2-8.9,6.5-17.2c0-0.9,0.1-1.9,0.1-2.8c0.1-2.9,1-5.7,2.5-8.1c2.7-4.3,7.8-7,13.3-7h71.4
			c5.5,0,10.6,2.7,13.3,7c1.6,2.5,2.4,5.2,2.5,8.1c0,1.1,0.1,2.2,0.1,3.3c0.2,9.5,0.8,15.8,6.2,16.6c7.8,1.1,42.8,0,43.2,0
			c0.1,0,5.9-1.1,6.6-8.9c0-0.4,2-37.9-39.3-50.8C178.3,6.6,160.5,3,111,3z"/>
	</g>
	<path d="M33.1,84.2c-12.7,0-22.9-2.4-23.6-2.6C6.7,81.2,1,78.2,0.3,70c-0.5-6.5-0.6-16.1,0.9-23.5c1.1-5.3,2.9-10.3,5.5-15.1
		c6.9-12.9,19.4-22.7,35-27.5C42.6,3.7,59.6,0,111,0s68.4,3.7,69.1,3.8c24.7,7.7,39.9,27.3,41.7,53.8l0,0c0.3,4,0.2,8.2-0.1,12.4
		c-0.7,8.2-6.4,11.2-9.3,11.7c-1.6,0.1-35.8,1.2-43.9,0c-4.5-0.6-7-7.3-8.1-21.7c-0.6-2.9-0.7-6.5-0.7-10c0-1.1-0.1-2.2-0.1-3.2
		c-0.1-2.4-0.8-4.6-2.1-6.7c-2.2-3.5-6.3-5.6-10.8-5.6H75.3c-4.5,0-8.6,2.1-10.8,5.6c-1.3,2-2,4.3-2.1,6.7l-0.1,2.7
		c-0.1,3.8-0.2,7.3-0.9,10.5c-1.2,13.8-3.6,20.5-7.8,21.7C46.9,83.5,39.7,84.2,33.1,84.2z M111,3C60.1,3,42.7,6.8,42.6,6.8
		C27.8,11.4,16,20.7,9.5,32.9C7,37.3,5.3,42.1,4.3,47.1c-1.5,7.1-1.4,16.3-0.9,22.6c0.7,7.9,6.7,8.9,6.8,8.9
		c0.4,0.1,23.4,5.5,42.8,0c1.2-0.3,4.2-2.9,5.6-19.2c0.6-3.1,0.7-6.5,0.8-10.1l0.1-2.7c0.1-2.9,1-5.7,2.5-8.1c2.7-4.3,7.8-7,13.3-7
		h71.4c5.5,0,10.6,2.7,13.3,7c1.6,2.5,2.4,5.2,2.5,8.1c0,1.1,0.1,2.2,0.1,3.3c0.1,3.4,0.2,6.8,0.7,9.7c1.3,16.7,4.3,18.9,5.5,19.1
		c7.8,1.1,42.8,0,43.2,0c0.1,0,5.9-1.1,6.6-8.9c0.3-4.1,0.4-8.1,0.1-11.9l0,0c-1.7-25.2-16.1-43.8-39.4-51C179.3,6.8,161.9,3,111,3z
		"/>
	<path style="fill:#FF8E92;" d="M14.4,36.5c-1,1.4-2,2.9-2.6,4.5c-0.7,2-0.9,4.1-1.1,6.2c-0.1,1.5-0.1,3.1,0.5,4.5
		c0.6,1.4,2.1,2.5,3.6,2.2c1-0.2,1.8-0.9,2.4-1.8c2.6-3.5,2.8-8.2,5-11.9c0.6-1.1,1.4-2.1,2.2-3.1c0.9-1.2,1.9-2.4,2.8-3.7
		c2.3-3,2.8-8.9-2.5-7C20.8,27.9,16.8,33.3,14.4,36.5z"/>
</g>
</svg>
