<?xml version="1.0" encoding="utf-8"?>
<!-- Generator: Adobe Illustrator 24.1.1, SVG Export Plug-In . SVG Version: 6.00 Build 0)  -->
<!DOCTYPE svg PUBLIC "-//W3C//DTD SVG 1.1//EN" "http://www.w3.org/Graphics/SVG/1.1/DTD/svg11.dtd" [
	<!ENTITY ns_extend "http://ns.adobe.com/Extensibility/1.0/">
	<!ENTITY ns_ai "http://ns.adobe.com/AdobeIllustrator/10.0/">
	<!ENTITY ns_graphs "http://ns.adobe.com/Graphs/1.0/">
	<!ENTITY ns_vars "http://ns.adobe.com/Variables/1.0/">
	<!ENTITY ns_imrep "http://ns.adobe.com/ImageReplacement/1.0/">
	<!ENTITY ns_sfw "http://ns.adobe.com/SaveForWeb/1.0/">
	<!ENTITY ns_custom "http://ns.adobe.com/GenericCustomNamespace/1.0/">
	<!ENTITY ns_adobe_xpath "http://ns.adobe.com/XPath/1.0/">
]>
<svg version="1.1" id="Layer_1" xmlns:x="&ns_extend;" xmlns:i="&ns_ai;" xmlns:graph="&ns_graphs;"
	 xmlns="http://www.w3.org/2000/svg" xmlns:xlink="http://www.w3.org/1999/xlink" x="0px" y="0px" viewBox="0 0 240 240"
	 style="enable-background:new 0 0 240 240;" xml:space="preserve">
<metadata>
	<sfw  xmlns="&ns_sfw;">
		<slices></slices>
		<sliceSourceBounds  bottomLeftOrigin="true" height="178.84" width="176.3" x="31.85" y="-209.42"></sliceSourceBounds>
	</sfw>
</metadata>
<g>
	<path style="fill:#8DD3DE;" d="M171.81,176.1c1.59,3.66,4.87,12.98,0.9,20.32c-1.61,2.97-5.12,6.79-12.69,8.07
		c-1.1,0.18-2.18,0.28-3.22,0.28c-12.56,0-18.83-13.45-20.56-21.39l-23.77-65.51l-1.49,0.7c-9.92,4.67-16.86,11.99-20.65,21.76
		c-1.81-0.26-5.42-0.69-10.02-0.69c-12.03,0-32.54,3.06-41.24,22.5c-1.42-7.84-3.64-23.83-2.09-41.24
		c2.88-32.49,16.81-54.22,41.39-64.58c2.78-1.17,5.69-2.29,8.9-3.41l1.43-0.5l-4.56-12.56c-0.65-1.79,0.28-3.77,2.06-4.42
		c0.38-0.14,0.78-0.21,1.18-0.21c1.45,0,2.75,0.92,3.24,2.27l4.67,12.88l1.33-0.36c9.42-2.54,18.62-3.83,27.35-3.83
		c29.88,0,55.19,14.53,75.28,43.19c-8.65,0.33-33.54,3.18-44.05,24.29c-2.2-0.34-7.38-1-14.02-1c-7.48,0-14.43,0.84-20.66,2.48
		l-1.59,0.42l24.01,66.2c0.34,1.54,3.81,16.09,14.04,16.09c0.62,0,1.25-0.05,1.88-0.16c5.85-0.99,7.31-3.67,7.79-4.55
		c2.6-4.81-0.23-12.15-1.16-14.29c-0.76-1.74,0.04-3.78,1.78-4.54c0.44-0.19,0.9-0.28,1.37-0.28
		C170.02,174.03,171.26,174.84,171.81,176.1z"/>
	<path style="fill:#BFF3FF;" d="M204.69,89.08c-20.95-31.11-48.87-47.55-80.72-47.55c-8.26,0-16.92,1.1-25.75,3.26l-3.23-8.88
		c-1.16-3.19-4.22-5.33-7.61-5.33c-0.94,0-1.87,0.16-2.76,0.48c-4.2,1.52-6.37,6.18-4.85,10.37l2.97,8.17
		c-2.15,0.79-4.18,1.6-6.18,2.43c-54.62,23.04-45.3,93.5-41.94,111.51c0.49,2.57,2.55,9.26,2.55,9.26l7.24-11.61
		c10.81-16.56,25.66-16.9,35.9-16.9c6,0,10.35,0.8,10.41,0.81l2.65,0.51l0.91-2.55c2.87-8.08,8.11-14.36,15.61-18.68l21.85,60.2
		c2.08,9.27,9.67,24.84,25.06,24.84c1.3,0,2.65-0.12,3.99-0.35c9.42-1.59,13.9-6.55,16.01-10.43c4.94-9.15,1.14-20.11-0.73-24.4
		c-1.29-2.95-4.2-4.86-7.43-4.86c-1.11,0-2.2,0.22-3.23,0.67c-4.09,1.78-5.97,6.56-4.19,10.66c1.48,3.38,2.52,8.02,1.34,10.22
		c-0.57,1.04-2.07,1.77-4.47,2.18c-0.38,0.06-0.76,0.1-1.11,0.1c-6.65,0-9.49-12.39-9.51-12.52l-0.03-0.12l-22.37-61.72
		c4.95-1.02,10.37-1.54,16.11-1.54c8.19,0,14.26,1.09,14.32,1.1l2.4,0.45l1.02-2.22c9.99-21.58,37.04-22.67,42.36-22.67
		c0.37,0,0.6,0.01,0.69,0.01l6.18,0.23L204.69,89.08z M155.2,113.66c-2.2-0.34-7.38-1-14.02-1c-7.48,0-14.43,0.84-20.66,2.48
		l-1.59,0.42l24.01,66.2c0.34,1.54,3.81,16.09,14.04,16.09c0.62,0,1.25-0.05,1.88-0.16c5.85-0.99,7.31-3.67,7.79-4.55
		c2.6-4.81-0.23-12.15-1.16-14.29c-0.76-1.74,0.04-3.78,1.78-4.54c0.44-0.19,0.9-0.28,1.37-0.28c1.38,0,2.62,0.81,3.17,2.07
		c1.59,3.66,4.87,12.98,0.9,20.32c-1.61,2.97-5.12,6.79-12.69,8.07c-1.1,0.18-2.18,0.28-3.22,0.28c-12.56,0-18.83-13.45-20.56-21.39
		l-23.77-65.51l-1.49,0.7c-9.92,4.67-16.86,11.99-20.65,21.76c-1.81-0.26-5.42-0.69-10.02-0.69c-12.03,0-32.54,3.06-41.24,22.5
		c-1.42-7.84-3.64-23.83-2.09-41.24c2.88-32.49,16.81-54.22,41.39-64.58c2.78-1.17,5.69-2.29,8.9-3.41l1.43-0.5l-4.56-12.56
		c-0.65-1.79,0.28-3.77,2.06-4.42c0.38-0.14,0.78-0.21,1.18-0.21c1.45,0,2.75,0.92,3.24,2.27l4.67,12.88l1.33-0.36
		c9.42-2.54,18.62-3.83,27.35-3.83c29.88,0,55.19,14.53,75.28,43.19C190.6,89.7,165.71,92.55,155.2,113.66z"/>
</g>
</svg>
