<?xml version="1.0" encoding="utf-8"?>
<!-- Generator: Adobe Illustrator 24.1.1, SVG Export Plug-In . SVG Version: 6.00 Build 0)  -->
<!DOCTYPE svg PUBLIC "-//W3C//DTD SVG 1.1//EN" "http://www.w3.org/Graphics/SVG/1.1/DTD/svg11.dtd" [
	<!ENTITY ns_extend "http://ns.adobe.com/Extensibility/1.0/">
	<!ENTITY ns_ai "http://ns.adobe.com/AdobeIllustrator/10.0/">
	<!ENTITY ns_graphs "http://ns.adobe.com/Graphs/1.0/">
	<!ENTITY ns_vars "http://ns.adobe.com/Variables/1.0/">
	<!ENTITY ns_imrep "http://ns.adobe.com/ImageReplacement/1.0/">
	<!ENTITY ns_sfw "http://ns.adobe.com/SaveForWeb/1.0/">
	<!ENTITY ns_custom "http://ns.adobe.com/GenericCustomNamespace/1.0/">
	<!ENTITY ns_adobe_xpath "http://ns.adobe.com/XPath/1.0/">
]>
<svg version="1.1" id="Layer_1" xmlns:x="&ns_extend;" xmlns:i="&ns_ai;" xmlns:graph="&ns_graphs;"
	 xmlns="http://www.w3.org/2000/svg" xmlns:xlink="http://www.w3.org/1999/xlink" x="0px" y="0px" viewBox="0 0 240 240"
	 style="enable-background:new 0 0 240 240;" xml:space="preserve">
<metadata>
	<sfw  xmlns="&ns_sfw;">
		<slices></slices>
		<sliceSourceBounds  bottomLeftOrigin="true" height="163.09" width="191.06" x="24.47" y="-201.54"></sliceSourceBounds>
	</sfw>
</metadata>
<g>
	<path style="fill:#F7FF6A;" d="M160.04,108.75c0,36-29.29,65.29-65.29,65.29s-65.28-29.29-65.28-65.29s29.28-65.29,65.28-65.29
		S160.04,72.75,160.04,108.75z"/>
	<path style="fill:#BFF3FF;" d="M94.75,38.46C56,38.46,24.47,70,24.47,108.75c0,38.76,31.53,70.29,70.28,70.29
		c38.76,0,70.29-31.53,70.29-70.29C165.04,70,133.51,38.46,94.75,38.46z M94.75,174.03c-36,0-65.28-29.29-65.28-65.29
		s29.28-65.29,65.28-65.29s65.29,29.29,65.29,65.29S130.75,174.03,94.75,174.03z"/>
</g>
<g>
	<path style="fill:#BFF3FF;" d="M207.59,154.33c-7.38-6.66-17.86-7.66-23.46-7.66c-1.74,0-2.88,0.1-3.12,0.13l-0.78,0.07l-0.11-0.79
		c-0.23-1.58-6.03-38.73-43.68-38.73c-45.87,0-47.56,34.51-47.61,35.98l-0.03,0.78l-0.77,0.03c-0.99,0.05-24.34,1.38-25.81,24.93
		c-0.51,8.22,2.25,16.18,7.57,21.85c5.74,6.1,14.25,9.33,24.62,9.33c11.07,0,72.85,1.28,73.45,1.29h20.22
		c13.66,0,27.45-8.29,27.45-26.81C215.53,165.96,212.86,159.1,207.59,154.33z M188.08,196.54h-20.14
		c-1.59-0.03-62.51-1.29-73.53-1.29c-8.95,0-16.21-2.68-20.97-7.76c-4.39-4.66-6.66-11.26-6.23-18.11
		c1.19-19.12,20.24-20.2,21.04-20.24l5.39-0.23l0.19-5.41c0.04-1.27,1.52-31.15,42.61-31.15c33.37,0,38.53,33.04,38.73,34.44
		l0.78,5.55l5.56-0.57c0.1-0.01,1.07-0.1,2.62-0.1c4.88,0,13.97,0.83,20.11,6.37c4.18,3.77,6.29,9.39,6.29,16.69
		C210.53,190.83,198.44,196.54,188.08,196.54z"/>
	<path style="fill:#C4DADD;" d="M210.53,174.73c0,16.1-12.09,21.81-22.45,21.81h-20.14c-1.59-0.03-62.51-1.29-73.53-1.29
		c-8.95,0-16.21-2.68-20.97-7.76c-4.39-4.66-6.66-11.26-6.23-18.11c1.19-19.12,20.24-20.2,21.04-20.24l5.39-0.23l0.19-5.41
		c0.04-1.27,1.52-31.15,42.61-31.15c33.37,0,38.53,33.04,38.73,34.44l0.78,5.55l5.56-0.57c0.1-0.01,1.07-0.1,2.62-0.1
		c4.88,0,13.97,0.83,20.11,6.37C208.42,161.81,210.53,167.44,210.53,174.73z"/>
</g>
</svg>
