<?xml version="1.0" encoding="UTF-8"?>
<svg xmlns="http://www.w3.org/2000/svg" version="1.1" viewBox="0 0 201 189">
  <!-- Generator: Adobe Illustrator 28.7.1, SVG Export Plug-In . SVG Version: 1.2.0 Build 142)  -->
  <g>
    <g id="_레이어_1" data-name="레이어_1">
      <g id="_레이어_1-2" data-name="_레이어_1">
        <g id="_레이어_1-2">
          <g>
            <path d="M112.9,172.4c2.7.2,5.7.3,8.2-.9s4.4-3.9,3.8-6.6c-.2-1.1-.8-2-1.5-2.9-.8-1.2-1.7-2.3-3-3-1.2-.7-2.6-.9-4-1-4.2-.3-10.4,0-11.6,4.9-1.8,6.8,1.9,9,8.3,9.5" style="fill: #aaa; stroke: #000; stroke-miterlimit: 10; stroke-width: 1.6px;"/>
            <path d="M81.6,107c-2,2.5-1.8,8.8-1.4,11.2.8,5.4,5.5,10.4,10.8,11.6,2.1.5,4.3.3,6.5.5,6.5.4,6,3,6.9,8.3,1.1,6.4,1.2,12.9,1.5,19.4.3,5.4,6,4.2,10.1,4.5,2.2,0,5.2-.9,6.1-3.1.6-1.7.6-3.5.6-5.3,0-9.2.4-18.3,1.4-27.4s1.8-8.7,1.4-12.6-1.3-5.1-1.4-8c0-.2-25.3,0-27.7,0h-7c-2.3,0-5.5-.7-6.7,0-.3.2-.6.4-.8.7h-.2Z" style="fill: #978bf8; stroke: #000; stroke-miterlimit: 10; stroke-width: 1.6px;"/>
            <g>
              <path d="M153.3,21.7" style="fill: #68f5a3;"/>
              <path d="M36,18.5h0c-10.6,1.8-21.9,8.2-21.7,18,0,5.4,3.6,10.7,10.7,16.1,1,.8,2.1,1.6,3.2,2.4,4.9,3.7,10,7.4,13,12.9.2.4.3.9.2,1.4s-.5.9-.9,1.1c-.3.2-.6.2-.9.2-.7,0-1.3-.4-1.6-1-2.7-4.8-7.4-8.4-11.9-11.7-1.1-.8-2.2-1.6-3.2-2.4-8.1-6.2-12-12.4-12.1-19-.2-12,12.7-19.7,24.9-21.8,4.7-.8,9.5-1.2,14.6-1.2,13.8,0,27.8,2.8,41.2,5.5,13.2,2.7,27,5.4,40.4,5.4s10.3-.4,14.9-1.3l6.7-1.4c5-1.1,10.1-2.3,15.3-2.3h0c7,0,16.5,2.9,20.1,11,3.9,8.8-1,18.6-7,24.9-2.2,2.3-4.6,4.5-6.9,6.5-4.1,3.6-7.9,7-10.6,11.2-.3.5-.9.9-1.6.9h-.2c-.4,0-.7,0-1-.3-.4-.3-.7-.7-.8-1.2s0-1,.3-1.4c3-4.7,7.2-8.4,11.1-11.9,2.3-2,4.6-4.1,6.7-6.3,5.1-5.5,9.5-13.7,6.3-20.8-2.9-6.5-10.9-8.8-16.7-8.9h0c-4.9,0-9.8,1.1-14.5,2.2-2.2.5-4.5,1-6.8,1.5-5,.9-10.1,1.4-15.6,1.4-13.8,0-27.8-2.8-41.2-5.5-13.2-2.7-27-5-40.5-5.4-9.5-.2-14,1.1-14,1.1Z" style="fill: #68f5a3; stroke: #000; stroke-linecap: round; stroke-linejoin: round; stroke-width: 1.5px;"/>
            </g>
            <path d="M50.4,69.2c2,.4,3.7,1.9,4.3,3.8.3.7.3,1.6,0,2.3-.2.4-.6.6-1,.8-.9.5-1.9.6-3,.7-.7,0-1.5,0-2.1-.3-1.6-.7-3.5-2.8-3-4.6,0,0,.2-3.6,4.8-2.7Z" style="fill: #f9c3ad; stroke: #000; stroke-linecap: round; stroke-linejoin: round; stroke-width: 1.6px;"/>
            <path d="M152.7,69.3c-2,.4-3.7,1.8-4.3,3.7-.3.7-.3,1.6,0,2.3.2.4.6.6,1,.8.9.5,1.9.6,3,.7.7,0,1.5,0,2.1-.3,1.6-.7,3.5-2.8,3-4.6s-2.8-3-4.8-2.6h0Z" style="fill: #f9c3ad; stroke: #000; stroke-linecap: round; stroke-linejoin: round; stroke-width: 1.6px;"/>
            <path d="M36.2,69h0c1.2-2,3.8-2.5,5.8-1.3l12.9,8.3c2,1.2,2.5,3.8,1.3,5.8h0c-1.2,2-3.8,2.5-5.8,1.3l-12.9-8.3c-2-1.2-2.5-3.8-1.3-5.8Z" style="fill: #8ca1f7; stroke: #000; stroke-miterlimit: 10; stroke-width: 1.6px;"/>
            <path d="M146.8,81.7h0c-1.2-2-.7-4.6,1.3-5.8l12.9-8.3c2-1.2,4.6-.7,5.8,1.3h0c1.2,2,.7,4.6-1.3,5.8l-12.9,8.3c-2,1.2-4.6.7-5.8-1.3Z" style="fill: #8ca1f7; stroke: #000; stroke-miterlimit: 10; stroke-width: 1.6px;"/>
            <path d="M147,78.7c-.2-.7-.5-1.5-.6-2.2-1,0-11.2,2-13.4,2.9-1.9-3.7-3-6.5-6.1-9.2s-7.7-4.2-11.4-2.6v.2l-.4-.4c-8-8-23.8-7.4-28.4,0-3.6-1.1-7.7.4-10.6,2.9-3.1,2.7-4.2,5.5-6.1,9.2-2.1-.9-12.4-3-13.4-2.9,0,.8-.4,1.5-.6,2.2-.9,2.8-1.8,5.6-2.8,8.4.2-.5,5.8,2,6.3,2.2,1.4.5,2.8,1,4.2,1.4,2.4.7,5,1.1,7.5,1.3,5,.3,6.6-2.3,8.9-6.2,1-1.7,2-3.4,3-5.1-1.5,7.6-2.5,15.2-2.4,23,0,2.1.5,2.2,2.4,3s3.8,1.5,5.7,2c3.9,1.1,7.9,1.6,11.9,1.6s8.3-.6,12.3-1.4c4.1-.8,4-.9,6-1.4s3.3-1.3,4.7-1.2c0-2.4,0-4.9-.3-7.4-.2-2.5-.4-5-.7-7.5-.3-2.2,0-6.2-1.2-8.1.5.8.9,1.6,1.4,2.4,2.4,3.9,4,6.5,8.9,6.2,2.5,0,5.1-.6,7.5-1.3,1.4-.4,2.8-.9,4.2-1.4.5-.2,6.1-2.7,6.3-2.2-.9-2.8-1.8-5.6-2.8-8.4h.2Z" style="fill: #84bbf6; stroke: #000; stroke-linecap: round; stroke-linejoin: round; stroke-width: 1.6px;"/>
            <path d="M54.1,73.7c2.3,1.4,4.7,2.9,5.7,5.4,1,2.4.5,5.2-1.2,7.2s-4.5,2.8-7,2.1c-1.1-.3-2.1-.9-3.1-1.4-2.1-1.3-4.3-2.7-5.5-4.9-1.1-2-1.2-4.5,0-6.5,2.2-4.2,7.5-4,11-1.9h0" style="fill: #ffe5cb; stroke: #000; stroke-linecap: round; stroke-linejoin: round; stroke-width: 1.6px;"/>
            <path d="M133.3,31.7c-.5-7.5-6.2-19.9-12.1-24.5-6-4.6-13.9-7-21.3-5.6-1.9.4-5.4.7-6.9,1.8-1.5,1.1-1.5,3.3-1.3,5.2-4.4-2.9-11.7-.6-15.6,3-3.9,3.6-4.7,9-6,14.1-.7,2.8-1.3,5.7-1.1,8.6,9-3.2,18.5-3.8,28-4.5,11.4-.9,24.4,5,35.7,3.5-.2-1,.6-.5.6-1.5h0Z" style="fill: #d2826a;"/>
            <path d="M120.5,7.5c6,4.6,12.3,16.7,12.8,24.2h0c0,.5.2.9.3,1.4.2.8.3,1.6.4,2.4h.3c4.1,0,7.4,3.3,7.4,7.4s-3.3,7.4-7.4,7.4-1.1,0-1.6-.2c-4.2,13.2-16.6,22.9-31.3,22.9s-27.1-9.7-31.3-22.9c-.5,0-1,.2-1.5.2-4.1,0-7.4-3.3-7.4-7.4s3.3-7.4,7.4-7.4.2,0,.3,0c0-.4,0-.9.2-1.3h-.2c-.2-2.9.4-5.8,1.1-8.6,1.3-5.1,3.2-10.4,7.1-13.9,2.4-2.3,5.9-3.7,9.1-3.7s3,.3,4.4,1c.3,0,.7-.2,1.1-.4.2-1.6,1.2-3.1,2.4-4.1,1.5-1.2,3.4-1.8,5.2-2.1,0,0,12.4-2.6,21.2,5.1h0ZM98.9.9c-2.5.5-4.4,1.3-5.9,2.5-1.3,1-2.2,2.4-2.7,3.9-1.3-.5-2.7-.7-4.2-.7-3.6,0-7.4,1.5-10.2,4.1-4.5,4.2-6.4,10.1-7.6,14.7-.6,2.6-1.3,5.6-1.1,8.7-4.3.6-7.7,4.4-7.7,8.9s4,9,9,9,.3,0,.4,0c4.9,13.6,17.8,22.7,32.5,22.7s27.5-9.1,32.4-22.7h.4c5,0,9-4,9-9s-3.5-8.4-8-8.9c0-.4,0-.8-.2-1.2,0-.4-.2-.9-.3-1.3-.6-8-7.2-20.4-13.4-25.2C113.2-1.6,98.9.9,98.9.9Z"/>
            <circle cx="68.7" cy="42.8" r="7.4" style="fill: #ffe5cb;"/>
            <circle cx="134.4" cy="42.8" r="7.4" style="fill: #ffe5cb;"/>
            <g>
              <g>
                <path d="M134.2,43.5h0c0-1.1.2-2.1.2-3.2v-.3c0-1.6,0-3.1-.3-4.6h.3c4.1,0,7.4,3.3,7.4,7.4s-3.3,7.4-7.4,7.4-1,0-1.5-.2c.3-1.1.6-2.2.9-3.3h0c.2-.9.4-2,.5-3.1h0Z" style="fill: #ffe5cb;"/>
                <path d="M134.2,43.5c0-1.4.2-2.7.2-3.2,0,1.1,0,2.2-.2,3.2Z" style="fill: #ffe5cb;"/>
                <path d="M134.4,40v.3c0,.5.6,1.8.4,3.2h-.2c0,1.1-.3,2.1-.5,3.1v.3c0,1.1-.7,2.2-1.2,3.3-3.8-.7-7.1-4-7.1-7.5s3.6-7.2,8.2-7.4c.2,1.5.3,3,.3,4.6h0Z" style="fill: #ffe5cb;"/>
                <path d="M133.7,46.7c.2-1,.4-2,.5-3.1,0,1-.3,2.1-.5,3.1Z" style="fill: #ffe5cb;"/>
                <path d="M133.6,33.1c-.6,1.3-2.2,2.3-3.7,2.4-2.1,0-4-1.1-5.7-2.4-5.2,4.1-13.3,3.6-18-1-2.4,2.4-6.4,2.4-9.3.8-4.6-2.6-7.5-9.7-7.8-14.7.2,5.1-3.7,8.9-7.2,11.9-2.5,2.2-6.3,6-10,6.3-1-.5-2-.8-3.2-.9,2.2-15.9,15.9-28.3,32.6-28.3s28.9,11,32.1,25.9h0Z" style="fill: #d2826a;"/>
                <path d="M134.1,35.4c-3.9.2-7.1,3.4-7.1,7.4s2.5,6.5,5.8,7.2c-4.2,13.2-16.6,22.9-31.3,22.9s-27.1-9.7-31.4-22.9c3.3-.7,5.9-3.7,5.9-7.2s-1.6-5.3-3.9-6.5c3.7-.4,7.5-4.1,10-6.3,3.5-3.1,7.5-6.9,7.2-11.9.2,5.1,3.2,12,7.8,14.7,2.9,1.7,6.9,1.6,9.3-.8,4.7,4.6,12.8,5,18,1,1.6,1.3,3.6,2.5,5.7,2.4,1.5,0,3.1-1,3.7-2.4.2.8.3,1.6.4,2.4h0Z" style="fill: #ffe5cb;"/>
                <path d="M72.4,36.3c2.4,1.2,4.1,3.8,4.1,6.7s-2.6,6.7-6.2,7.4c-.3-1.1-.6-2.3-.9-3.4h0c-.2-1-.4-2.1-.5-3v-.2c0-1.4-.2-2.8-.2-3.3v-.3c0-1.5,0-3.1.3-4.5,1.1.6,2.2.8,3.4.7h0,0Z" style="fill: #ffe5cb;"/>
                <path d="M72.2,36.3c-1.1,0-2.2,0-3.2-.7v-.2c1.2,0,2.2.4,3.2.9Z" style="fill: #d2826a;"/>
                <path d="M68.9,43.5v.2c0,1,.2,2.1.5,2.9h0c.2,1.1.5,2.2.9,3.3-.5,0-1,.2-1.5.2-4.1,0-7.4-3.3-7.4-7.4s3.3-7.4,7.4-7.4.2,0,.3.2c-.2,1.4-.3,2.9-.3,4.4s0,.2,0,.3c0,1.1,0,2.2.2,3.2h0Z" style="fill: #ffe5cb;"/>
                <path d="M69,35.4v.2s-.2,0-.3-.2h.3Z" style="fill: #ffe5cb;"/>
                <path d="M68.9,43.7c0,1,.3,2,.5,2.9-.2-.9-.4-1.9-.5-2.9Z" style="fill: #ffe5cb;"/>
                <path d="M68.9,43.7v-.2h0v.2Z" style="fill: #ffe5cb;"/>
                <path d="M68.9,43.5h0c0-1.1-.2-2.1-.2-3.2,0,.5,0,1.8.2,3.2Z" style="fill: #ffe5cb;"/>
                <polygon points="73 33.6 69 32.4 69 34.9 70 36.1 72.1 36.3 73.6 35.7 74.2 34 73 33.6" style="fill: #d2826a;"/>
              </g>
              <g>
                <path d="M134.2,43.5h0c0,1-.3,2.1-.5,3.1" style="fill: none; stroke: #fcac88; stroke-linecap: round; stroke-linejoin: round; stroke-width: 1.6px;"/>
                <line x1="134.2" y1="43.5" x2="136.5" y2="43.5" style="fill: none; stroke: #fcac88; stroke-linecap: round; stroke-linejoin: round; stroke-width: 1.6px;"/>
                <path d="M68.9,43.7c0,1,.2,2.1.5,2.9" style="fill: none; stroke: #fcac88; stroke-linecap: round; stroke-linejoin: round; stroke-width: 1.6px;"/>
                <polyline points="68.9 43.5 68.9 43.5 66.6 43.5" style="fill: none; stroke: #fcac88; stroke-linecap: round; stroke-linejoin: round; stroke-width: 1.6px;"/>
                <path d="M133.9,31.6c0,.6,0,1.1-.3,1.6-.6,1.3-2.2,2.3-3.7,2.4-2.1,0-4-1.1-5.7-2.4-5.2,4.1-13.3,3.6-18-1-2.4,2.4-6.4,2.4-9.3.8-4.6-2.6-7.5-9.7-7.8-14.7.2,5.1-3.7,8.9-7.2,11.9-2.5,2.2-6.3,6-10,6.3-1.1,0-2.9-.7-3.9-1.4" style="fill: none; stroke: #000; stroke-linecap: round; stroke-linejoin: round; stroke-width: 1.6px;"/>
              </g>
            </g>
            <path d="M85.7,44.3s3.3-5.3,9.1-1.5" style="fill: none; stroke: #663f34; stroke-linecap: round; stroke-linejoin: round; stroke-width: 1.6px;"/>
            <path d="M117.4,44.3s-3.3-5.3-9.1-1.5" style="fill: none; stroke: #663f34; stroke-linecap: round; stroke-linejoin: round; stroke-width: 1.6px;"/>
            <ellipse cx="101.5" cy="48" rx="2.3" ry="1.3" style="fill: #fcac88;"/>
            <path d="M134.4,40s0,4.1-.7,6.7" style="fill: none; stroke: #fcac88; stroke-linecap: round; stroke-linejoin: round; stroke-width: 1.6px;"/>
            <line x1="134.2" y1="43.5" x2="136.5" y2="43.5" style="fill: none; stroke: #fcac88; stroke-linecap: round; stroke-linejoin: round; stroke-width: 1.6px;"/>
            <path d="M68.7,40s0,4.1.7,6.7" style="fill: none; stroke: #fcac88; stroke-linecap: round; stroke-linejoin: round; stroke-width: 1.6px;"/>
            <line x1="68.9" y1="43.5" x2="66.6" y2="43.5" style="fill: none; stroke: #fcac88; stroke-linecap: round; stroke-linejoin: round; stroke-width: 1.6px;"/>
            <path d="M149,73.6c-2.3,1.4-4.7,3-5.7,5.5-1,2.4-.5,5.2,1.2,7.2,1.7,1.9,4.5,2.8,7,2.1,1.1-.3,2.1-.9,3.1-1.4,2.1-1.3,4.3-2.7,5.5-4.9,1.1-2,1.2-4.5,0-6.5-2.2-4.2-7.6-4.1-11.1-2" style="fill: #ffe5cb; stroke: #000; stroke-miterlimit: 10; stroke-width: 1.6px;"/>
            <path d="M85.7,44.3s3.3-5.3,9.1-1.5" style="fill: none; stroke: #43211b; stroke-linecap: round; stroke-linejoin: round; stroke-width: 1.6px;"/>
            <path d="M117.4,44.3s-3.3-5.3-9.1-1.5" style="fill: none; stroke: #43211b; stroke-linecap: round; stroke-linejoin: round; stroke-width: 1.6px;"/>
            <ellipse cx="101.5" cy="48" rx="2.3" ry="1.3" style="fill: #fcac88;"/>
            <path d="M108,53.6s-1.4,6.4-6.5,6.4-6.8-6.4-6.8-6.4h13.2Z" style="fill: #bc393e; stroke: #96272c; stroke-miterlimit: 10; stroke-width: .5px;"/>
            <path d="M87.2,151.8c1.9,1.3,4.3,1.8,6.5,1.2s4.1-2.2,5.1-4.3c.6-1.3.8-2.8.9-4.2,0-1.6,0-3.1-.5-4.6-.4-1.2-1.2-2.4-2.2-3.3-3.3-3.2-11.3-4.6-13.4.8-1.7,4.4-.3,11.5,3.6,14.3h0Z" style="fill: #aaa; stroke: #000; stroke-miterlimit: 10; stroke-width: 1.6px;"/>
            <path d="M78.3,110.4c.7-3.1,2.4-5.6,5.9-6.9,1.5-.5,3.1-.6,4.6-.5,5.3.4,10.9,3.6,12,8.9.4,1.8.4,3.6.3,5.5-.3,6.8-.6,13.5-.9,20.3,0,1.4-.3,3-1.5,3.7-.6.3-1.4.3-2.1.3-3.5,0-12,.5-14.4-2.8-.7-.9-.9-2-1.1-3.1-.6-3.1-1.2-6.2-1.8-9.3-.9-4.4-2.2-11-1-16.1" style="fill: #978bf8; stroke: #000; stroke-miterlimit: 10; stroke-width: 1.6px;"/>
          </g>
        </g>
      </g>
    </g>
  </g>
</svg>