<?xml version="1.0" encoding="utf-8"?>
<!-- Generator: Adobe Illustrator 16.0.0, SVG Export Plug-In . SVG Version: 6.00 Build 0)  -->
<!DOCTYPE svg PUBLIC "-//W3C//DTD SVG 1.1//EN" "http://www.w3.org/Graphics/SVG/1.1/DTD/svg11.dtd" [
	<!ENTITY ns_flows "http://ns.adobe.com/Flows/1.0/">
	<!ENTITY ns_extend "http://ns.adobe.com/Extensibility/1.0/">
	<!ENTITY ns_ai "http://ns.adobe.com/AdobeIllustrator/10.0/">
	<!ENTITY ns_graphs "http://ns.adobe.com/Graphs/1.0/">
]>
<svg version="1.1" id="Layer_3" xmlns:x="&ns_extend;" xmlns:i="&ns_ai;" xmlns:graph="&ns_graphs;"
	 xmlns="http://www.w3.org/2000/svg" xmlns:xlink="http://www.w3.org/1999/xlink" xmlns:a="http://ns.adobe.com/AdobeSVGViewerExtensions/3.0/"
	 x="0px" y="0px" width="960px" height="540px" viewBox="0 0 960 540" style="enable-background:new 0 0 960 540;"
	 xml:space="preserve">
<metadata><?xpacket begin="﻿" id="W5M0MpCehiHzreSzNTczkc9d"?>
<x:xmpmeta xmlns:x="adobe:ns:meta/" x:xmptk="Adobe XMP Core 5.3-c011 66.145661, 2012/02/06-14:56:27        ">
   <rdf:RDF xmlns:rdf="http://www.w3.org/1999/02/22-rdf-syntax-ns#">
      <rdf:Description rdf:about=""
            xmlns:dc="http://purl.org/dc/elements/1.1/">
         <dc:format>image/svg+xml</dc:format>
         <dc:title>
            <rdf:Alt>
               <rdf:li xml:lang="x-default">Print</rdf:li>
            </rdf:Alt>
         </dc:title>
      </rdf:Description>
      <rdf:Description rdf:about=""
            xmlns:xmp="http://ns.adobe.com/xap/1.0/"
            xmlns:xmpGImg="http://ns.adobe.com/xap/1.0/g/img/">
         <xmp:MetadataDate>2019-12-21T13:22:44+09:00</xmp:MetadataDate>
         <xmp:ModifyDate>2019-12-21T13:22:44+09:00</xmp:ModifyDate>
         <xmp:CreateDate>2019-12-21T13:22:44+09:00</xmp:CreateDate>
         <xmp:CreatorTool>Adobe Illustrator CS6 (Windows)</xmp:CreatorTool>
         <xmp:Thumbnails>
            <rdf:Alt>
               <rdf:li rdf:parseType="Resource">
                  <xmpGImg:width>256</xmpGImg:width>
                  <xmpGImg:height>144</xmpGImg:height>
                  <xmpGImg:format>JPEG</xmpGImg:format>
                  <xmpGImg:image>/9j/4AAQSkZJRgABAgEBXgFeAAD/7QAsUGhvdG9zaG9wIDMuMAA4QklNA+0AAAAAABABXgAAAAEA&#xA;AQFeAAAAAQAB/+4ADkFkb2JlAGTAAAAAAf/bAIQABgQEBAUEBgUFBgkGBQYJCwgGBggLDAoKCwoK&#xA;DBAMDAwMDAwQDA4PEA8ODBMTFBQTExwbGxscHx8fHx8fHx8fHwEHBwcNDA0YEBAYGhURFRofHx8f&#xA;Hx8fHx8fHx8fHx8fHx8fHx8fHx8fHx8fHx8fHx8fHx8fHx8fHx8fHx8fHx8f/8AAEQgAkAEAAwER&#xA;AAIRAQMRAf/EAaIAAAAHAQEBAQEAAAAAAAAAAAQFAwIGAQAHCAkKCwEAAgIDAQEBAQEAAAAAAAAA&#xA;AQACAwQFBgcICQoLEAACAQMDAgQCBgcDBAIGAnMBAgMRBAAFIRIxQVEGE2EicYEUMpGhBxWxQiPB&#xA;UtHhMxZi8CRygvElQzRTkqKyY3PCNUQnk6OzNhdUZHTD0uIIJoMJChgZhJRFRqS0VtNVKBry4/PE&#xA;1OT0ZXWFlaW1xdXl9WZ2hpamtsbW5vY3R1dnd4eXp7fH1+f3OEhYaHiImKi4yNjo+Ck5SVlpeYmZ&#xA;qbnJ2en5KjpKWmp6ipqqusra6voRAAICAQIDBQUEBQYECAMDbQEAAhEDBCESMUEFURNhIgZxgZEy&#xA;obHwFMHR4SNCFVJicvEzJDRDghaSUyWiY7LCB3PSNeJEgxdUkwgJChgZJjZFGidkdFU38qOzwygp&#xA;0+PzhJSktMTU5PRldYWVpbXF1eX1RlZmdoaWprbG1ub2R1dnd4eXp7fH1+f3OEhYaHiImKi4yNjo&#xA;+DlJWWl5iZmpucnZ6fkqOkpaanqKmqq6ytrq+v/aAAwDAQACEQMRAD8A7Hm8eCdirsVdirsVdirs&#xA;VdirsVdirsVdirsVdirsVdirsVdirsVdirsVdirsVdirsVdirsVdirsVdirsVdirsVdirsVdirsV&#xA;dirsVdirsVbCOaEKTXYUHU42kRLRBBodiOoxQ7FUeLC14AtcqGPgRT9eU+Ie5zRpoVvML/0dZFKi&#xA;f5tVaYPEl3Nn5XHX1fc0NPs6V+sg+9V/rh8SXcx/K4/5yXuFDsFPJQaBvHLg4MgAdmsUOxV2Kqtt&#xA;byXEywxj426V6bZGUhEWWzFiOSQiOaNl0C/QVXjJ7KaH/hqZUNREuZPs3KOVFNbDSLWKBPWiDTEV&#xA;fnRqHw8Mx8mYk7HZ2Wm0UIxHELl5qtxpNjNGV9JY2psyAKQfoyMc0gebZk0WOQqgPclI8uXVd5Yw&#xA;vYipP6syPzUe51g7Kn3hDXuk3VovNqPF/OvaviMsx5hJx9Rop4hZ3CCy1xHYq7FXYq7FXYqoTX1p&#xA;CSskgDDqo3P4ZVPNGPMoJCvlqVC5vrS1p68oj5fZB6n6BlObUQx/UaSIkr4LiC4j9SFw6dKjxyeP&#xA;LGYuJsIIpUyauxV2KuxV2Ko2zu7SGOkkVX/nABr9+VThInYuXgzQiNxujIdSsiKf3dOgI/plUsUn&#xA;KhqsfuUZrvTHdi8Zcn9sClfxByUYTAasmbCSbFpa3HkeOy1+EHrTMgOAavZrFDsVdirsVdirsVdi&#xA;q6OR43DxsVdejDY4CL5pjIxNjYov9M6nSnrGn+qtfvplfgQ7nK/P5v533Lodb1CMEc+df5xWmCWC&#xA;JTDX5Y9b96tD5iulUiRFkPY/Z/VkTpo9G6HakwNwChrnVb6d+RkKAdFQlQMsjhiHHy6zJM3de5Sm&#xA;v7yaP05ZWZPA/wAcMccQbAa56jJIUTYUMm0pZeaysT8IAslOr12/DMPLq6NR3YGayDXVJAmjpU7s&#xA;p2+45GGt7wgTTVXV1DIQynoQajM0EHkzczKqlmIVRuSdhhJrmlLtU1GNYAkDhnk/aU9B9HjmHqc4&#xA;EaiebCUkkJJNSak9Sc1xLWj9X1/hSKxkHPYtKOLLTfYVrktd2nXpxnfv2LmQx96SX19NeSrLLTmq&#xA;hNuhoSa/jmn1GollkJS51TbGNKumapLYNIUUOJAAVJoKjvlmk1ksBNC7WULZRpupR3sCuQI5CSPT&#xA;qCdu4zpNJqxmjfI9zjyjSpcXsEDKrk1bw3p88jqu0MWGQEuZ7unvTHGSoQaoJbox8QIzXi1fDxzB&#xA;0/bAyZuCqhvRZyxULR+btpdirsVdirsVdirsVdiqkbiIMVJ6d+2UHUQBpNLzIgAJYAHplpyRHMop&#xA;cCCKjpkgVdirsVdirsVUDf2YcoZlDDY1P8cqOaF1aLDf1y0pX1kpWleQ64fFh3hbCsCCKjcHLEqZ&#xA;uIAaGRAR1HIZHjj3hFpbqOqj4oYCrqykO+/fbbMPUanpFhKST5r2DsVRljqclqOHEPGSSR0O47HM&#xA;jDqDDboyEqdfajJcmgqkVN0rsT1qcc2cz9yDK0HmOh2KpWSB1NM0Ts1E3NGpSq+OKaVgQRUdDihW&#xA;tLqW1nWeKnNelRXY9ctw5pY5CUeYQRabzzrLK8tfhdiQa9j0zG1WTjyyl3ks4igtyhknWnXqyqIe&#xA;JDRoN+taUGdd2XrxlAx1RjEfGtnEywrdG5uGp2KuxV2KuxVrmn8w2675HjHeqGuZW58VagA3pmFq&#xA;cp4qBZAIfMNk7CqrBN6Zod1OX4M3Bz5IIVWu1p8IJPvmRLVjoEcLaXaU+P4ffthx6oHnsghAza23&#xA;qMsMXNQaKxrv9Ayues32DAEnkEPd317c0VI3jTwWpJ+mmUZdTKfLYM/Ayy5Rl8ihBaXR39JvpH9c&#xA;x6ZjQZz/AAS+S4afeH/df4j+uNNo7K1B/h+0frVVt75V4erwQinHntTJiUqq22PY+oPcPip/Uqfa&#xA;niH+y3yFNg7DzdTH7f1LhYof93qf9UFv1YeFtHYM+sgqppRf7Pqyf6kLn+GPC2DsEdZ/Z+1culAn&#xA;+7nP+wp+vDwto7DxdZH7EQNBn5Kv1WUsxooZ41qT9OPC2DsXAP5x+P7FRPL9yzMotBVDxflKBQ/R&#xA;XHhbR2Tpx0+0uGiy1p6MK70qXZv+NclwNg7P04/gCIk0C5iALC2FTtRWb9fHERbRpcI/gj8g88uH&#xA;YuV7DoM515uIF7qAO+Rt3Obs+oRiPq4pAny7z5Vuqwu/IAHr2PTC6jIIiRETYRsaF3CDqelcSaa0&#xA;UyfV4SrsDX4mp0AGUylZbsUDIgDmWrad3nIJ+FWCg+O1T+vIkORnwiEYn+KQv7dk2tbh4JQymgJA&#xA;b3GZGj1UsMxIfH3OGYCWxTlL6J1DKrFT0YK1Nvemddj18ZixycqPZBkLjMEN/XYKVJoD0J2/Xln5&#xA;uPcUHsXL0Mft/U769a/78X7x/XD+bh5sf5Hzf0fn+x31yE/ZPL5b/qwfm49xZjsXJ1Mft/UtMs8g&#xA;YxxyFB1KxuaD3IGUT1MjybY9inrL7FOO2uJDRIZW8fgI/XTMam0djx6y+xclldvXjbvsKkkxqB86&#xA;tjRZjsjF1Mvx8FX9F6gH4GAKeIclnWgBrTcV8MabB2XhHeuXR75lDKIeJFS3qNt8/hw8LYOz8A/h&#xA;+0/rXQaPdzMVWSJSCOzHr92Jizjo8I/hC5dGmNw8JnUcCRyEXh41fHhbBgxDlGPyDpdIMcnBp2Yb&#xA;bhFH3V5YRFmBEcgFaXRIY4+ZnmatKD4BT/WouPCz4nRaNam3MjtKT6iLy5sNmIBG1MSN1B2a/RFq&#xA;0/EQkUP2Wd2H01Y4aCOIqsulaZwrBbxtxPx1HI/8NXbEBSVWGzsIFAlgiDN9kemtVHvtjS2rJbrB&#xA;azMVCgPEQ6gDbmDtgPNRyaf/AEoD09mXqh6UJ65Lkhb68cX7pBzT/dh8fljStmGOIeqfiQ/3a/Px&#xA;xVfaSmadFkFSGDKw7UP6sB5KFOWdo7mYKAP3hLE9/bEDZJ5rzGkamcIeVARGf2Se5xQsgd5WZH+N&#xA;G3Yn9n3wlWCxeRdfuCzNbekRt8bAV+VK5oo6WZ6OghoMp6UgU8p3jeYJdH5KJ409RSa0IIU9gezZ&#xA;AaY+IYW9HnxZJaQRB9WwPwTk/l3rEcasjQs3GpFWBrXpXjl/5GXeHQnszJXMIf8AwxqlrKRNbyMy&#xA;DlWNWZaEdagZiZsU4mqcaWlyRNEFpvL+oSFVW3l/fbICp38dzlIwz22O7PHjyAggG+iW6HYXN0JI&#xA;40aR0ehCgnt4/RiMcpGgLdr2vhkckeEc4/pJ/SyS28uahJCXdDCAQFVwan6B/HMjF2fknz9Pvddj&#xA;0OSQs7e9kGl6f9TsfSdg6GR2kahG9FAp75t9Jp/CjV7u102Dw40iipJ4ED6tSobw9/nmU3qhr9Tk&#xA;UAcA8XAncEcx1wHmyHJTK0p6BURAnmT/AB9sLFwZTDMIvhiEbV8a+JxKQ5x64pEeIBq21K/5W2KE&#xA;bNpgMZDTcQg5yEITWg3rSm+Q42fCufToJFj/AHjenJGqqwWgAjqak9vtdMRIqQFy2Fun7qrgAEsp&#xA;A3X+Yn6MbK0F0dhaAxLH6lG+NaECoHc7fhiSVoLZbCBjMAJUYtUkAHntU8fGmIJUgIeS0aBlQhpO&#xA;8bFD8NR+1khK0EIeK3ulkcyKxX9sUJ5fLDYY0VSe3mktGREIDNHwShBADb1wXuyrZxhmZDDxetKe&#xA;qR1p2+WNhFKcVrcQjmIy0h2CjoB74bC0W2sZJH9Qqyg7unU19seJeFU9C4ltZYmjKAtHwX/JDAnI&#xA;k7pA2U2tbqMBIYz4s+1SclYRRXCykb960X7zvHUUJ8cHEvC0ltflz6kfJH2YEilPvx4gtFUW0uI5&#xA;Y1jSkYYM7VFTQ4mQTRXCzl9SVmUGshaI7bVHU4BJSFBLG/EvPapPxEkUIw8QRwlUmsJ+PCEKqk1Y&#xA;V3OPEE8JQNvdWFwn1iCQSA1pDXcEdag70GV4s8Mg9JBaoZIy5Fid3eLB52Fy4ZIVi4ytGCN/TJA2&#xA;8dhmtz544tRZ7v0OVPNGGHc793VkWn+YbK8Mdv8AHFIaJ8Tbsx6EGuX6btDHlNcj5uDj1UZ7ckwl&#xA;mFooEkjlOrOXYAD23zPkQBZ2bzKuanaXtrLcRhb/ANSNiar6rA8QrbncEb5THUY5D0kMYZYnkWH/&#xA;AJeXixyakXdkjIR+IYjoWqSQR0rmB2dIeq3Y6zYAsjuvMlnbTKRcPcxvvSJyeI9/iG+XZu0cMK/i&#xA;9zqJ6uMetq8XmLTpBtdFamT7TOCAoBHXJQ1+E9WQ1UD1QUfnG35uzesiDZVB5Mw/m32BzHj2tiIN&#xA;ghqGuj1Ti21CO7sjcwzEpyjA5U5CrhW5DM/DmhkAMXKx5RMWFUy3LMrRykw/tMSO3Wu2XUGVlzzy&#xA;vFI0crFVRjWtCGHTGk21G08k0axSsyFgHPI1G/6sSAgEprO/qepEj8R9mff+7BrRh48u/wB2RA2Z&#xA;koaFnMIMbkhIUSSEFurOwL1+ggYhBVuUpZoUchhxjtp61qR9qvbqtPp98NLbbSgPQOwR3WKM1b4W&#xA;7jrsCFH3/PBS23MZVd35OwZgkSqD+7JFOex3Wv44x5JKHvUkkihkErfDVXZGNH2rUUPfEc0Hkl8c&#xA;8krsnKRa/ZIdtqeO+Tpja6UtFbs3OUujx1YyPuGbem+Ct026T1IkMnqStX7Kl2+GvjvhpFrYGkkT&#xA;95LIoB2f1GFfbriQtrS900/FWdafsl2pT33xoIsqs/A2c0kbsXVkHLmxIq4B6npg6suiyFuCAzsa&#xA;MfgBJr8+vTCQxtYyXPrcQx33BBPGnjh2XdfI3qIRC55L9oAmp9xvgpbdAoV4xOS7SMAqEk0BPU1x&#xA;KQpyQSNcyhNkDkA9gBiOSnmu525/c9B2l71/pjSLaSIwkvN9kbKvXkcVeWJrpjYOiMrjowahH4Zy&#xA;cdMQbBebGalra4zMWaIsx6sXqT28MMtMSbMlOcnm79Nb1EdPpr/TANL5o8Vf+nGKcCTw68STSo9s&#xA;l+X2qzTLxmhqdehT6a/1x/Kx71416ajMOXCg5Di1K7jrQ0OEacDkSz8Q1Vu+uy+C/j/XI/lR3sba&#xA;N9cdlT6a4/lR3rZWG+vP5Iz9+H8qO9HEVS21rUraUSRoooRyAJAYAg0O/TbLcOPw5CUSWUM04mwn&#xA;Y/MO/RQg0+P06fEvJjX3Jpmy/PS7nM/lI/zftcn5jTLG0bWKqrAhiGJrX54/nj3Mh2mOsft/Ymvl&#xA;fzkNQ1m1sUt/TaZySeuyqW8T4ZZDVmRqm/T66M5CNGyyddejlCPEjoJWYQCVHXdahvrIO4X+T6Pe&#xA;lwyHucsZLrY/JZDrkRYLCSWUyTKabFVqwjbevxFjSuHjLLjB71w1mAW6SFDDFIjyuzBi8cpIRaqB&#xA;y60Py+WPinnS8Yq9/kqJrcEKOJyHls4xLchakENQh0ahViKgnf38cBzfj8BJnAHnyVr2/wDS1AW6&#xA;emb64BWCNmorxqBVd6jnue3T54nKRtX2plKPFV7oe4vrefSZZ7XiIoGDRqGArRijMDv8Ph8iMfGN&#xA;XV/FRwkcxSVnWY5IyFjIdvtlKHl92RGqP80/YkQieUgvXVV+q+k0cnIOrKeIIAU18cB1X9GXyZjD&#xA;tzCyLVY1kYyLIVb7YIBr+OE62P8ANl8keAe8fNufU7Z2UKSsY2CkUp91cH5/H1v5J/LSVjqtk0Zi&#xA;9UjanqlTv7bCuEa7F3/YV/Lz7modRs0tJR6gLl4yqUO/FgT2w/ncRPP718Cdcmpbq0mZXWZQW2ZW&#xA;NKf2ZMavF/ODA4Z9yqL6z4+h6o9OlC9e/wDTCNRj/nD5r4Uu4tLJbwfH6qSP0QKwI+ZyfjQPUfNj&#xA;4ch0VYGjnnjlVgHVlMi122PUYeMVzXhLUlxwuJ04goZG5+9aZIckHm16ESfvWPKLqo7k+GG0NpJ9&#xA;YPpuOv2CB9n+zFXkpRT1APzznXnKUzbRHtT5YseALDZj9lvvxR4axrWQdKHFjwFTaKReqnFjwlbi&#xA;hsSSDox+/FNleLiYftV+eKeIrhdydwDinjK8Xg7r92KfEXi6iPiPmMWXGFwliPRhiniC4UqGXZhu&#xA;GHUfSMKR3qb20D05oGp0rjandYbG2P7NPuwMeBcsDp/dTPH/AKpI6fIjJCR70gyHIlU+sayg/dah&#xA;cAjoPWlpX5cqZIZZd5ZjNlH8R+bKbv8AMKeWV5o9GiEsn2zLcyyrWlNkAjA+jLzqvJzpdonpH7Ut&#xA;1Hz3r95BPA1va28dwvpytDAQ5SpNC7s/jlctRIuPl185AigLY8LmUdwfoyhwuMqiajcL0Yj5EjCJ&#xA;FkM0grprd8vSaVflI2SGSXe2DVTHU/NXTzJqC/8AHxJ9NG/XkvGl3tg12QdSrp5qvh9qVW/1o1/g&#xA;Bj4p618m6PaWUdVdPNVx+0kDfQQf14OMfzYt0e1svkrp5nB+1aq3+q5H8Dg9H837W+PbE+5WXzJZ&#xA;n7du6/6rA/rAwcGM9C2x7Z7wqrr+lt19VPmoP6jj4WPvLdHtiHUFVXVtJb/j54nwZGH8MHgR6S+x&#xA;uj2tiKql5YNut3F9Lcf14Py3dINo7QwnqrpKWFI51YeCuD/HD4GToftbRqMR6hVDXqV4u4rsaMf4&#xA;HDw5x/O+bO8Z7mB5F4l2KuxV2KuxVoqrdQD88VpTa2iPanyxY8AWNZj9lvvxYnGptbSjoAfligwK&#xA;myOvUEYsaaxQ7FXAkdNsVXCaUdGP68WXEV4upR1ocU8ZXi88V+44p8ReLqI9aj54suMKgljPRhim&#xA;wuxS0VU9QD88VpaYIj+yPo2xRwhYbSM9CRix4AsNmezfeMUeGsNrKOlD8jijgKwxSDqpxY8JW9MU&#xA;Nh3HRiPpxTa4TzD9rFPEV4upR1ocU8ZXC8PdfxxT4i4XcfcEYp4wqx3oX7EpT5EjCCQzGWuRQSSO&#xA;n2TT2wNAJCsl2f2x9IxZiask0bdG38MWYkCvxS7FXYq7FXYq7FXYqsaKNuqjFBiFNrRD0JH44sTA&#xA;KbWkg6EH8MWJgVNo3X7SkYsSCtxQ7FXYq7FWwzDoSPlim163Eo71+eKeMqi3Z/aX7sWXGvW6iPWo&#xA;+eLITCosiN0YHFIIXYpdiruPI0pyJ6ClcVpeulXEv2LWRv8AVRv4DJCJ7kjCT0VV8ravJ9iyuB/r&#xA;IR+sDJDFLuZDRzP8JVB5J8xNutsQP8tkX9bZIYJ9zIdn5T0VE8ia6T8foR+7Sr/CuEaabMdm5fJW&#xA;XyDqAFZby1QezO3/ABqMl+WPUhsHZWQ9QqL5Ita0k1eJSOoWMt+tlweDHrINsexpd/2MUzHdM7FX&#xA;YqvSaReh28DviyEiFZLsftCnuMWQmrLIj/ZNfbFmCCuxS7FXYq7FXYq7FXYqvSKWT7CM/b4QT+rC&#xA;AkRJ5Ko0TUJvs2Mz17rG/wCsDJDHLuZfl5H+E/JePJ+tyfYs5V/1gB+sjJDDPuZfkch5Ar18ieZW&#xA;62yqPFpE/rhGnn3JHZ2bu+0K6fl9rZ+3LbR/60h/gpyQ0smY7LynuV0/Ly5/3bqFuo78OT/805L8&#xA;qe9tHZM+pC//AALp0f8Af6woJ/ZEVN/mXxOCI5yDbHsc/wA77FZfJ3lpft388g/4r4D+DYPDxDnJ&#xA;tj2MOpkqR+W/KSjpdSf65I/4iowXg724djQ8/mrDSPKsZHHTHk/ymlf9RYYPFwjoW6PZGPu+0ohI&#xA;tFjH7rS4tunqDl0+ZbB+ZxDlFuj2bAdAqpdQp9iwto/9RF/5pwfnI9Ito0UB0HyXjVL5dozHGv8A&#xA;KE/oRg/PS6ANo00QtbUr9hvMV912/XXInWzZDBFZ9auyfjncjv0r+oZD83k72Xgx7lIs5avN6/6z&#xA;D9RyBzzPUp8OPc0w5CjVYf5Rr+vIGcjzLIRDQRB0UD6MilsCg61+eKvOgCTQbk9BmS+dq8dhfS/3&#xA;dtK/+qjH9QwiJ7mYxyPIFEx+Xdek+zp9xv0JjZRv8wMkMUu5sGlyn+E/JEx+TfM0n2bFh/rMi/8A&#xA;EmGSGCfc2DQ5j/D9yKj/AC/8xv8Aajjj/wBaQf8AGvLJDTTbB2blPQfNEJ+XOr9ZLm2j/wBk5P8A&#xA;xEZIaWXk2DsrJ1IRcPkCVTSTVYgPAJz/AFsuSGkPe3R7Ll1l9iIHk7SohWfUj7kIF+fUth/LxHMt&#xA;8eyx3n5L18ueVV3N5LIfAOgH/Ea4PDxD+L7W0dlx/pKi6V5RQ09KaXp1L0+9cF4B1bR2XDu+1UFv&#xA;5YjH7vTTJ7Euf+JnAcuEdGyPZsP5qos2kp/d6TED2LJGfxqcH5rEOUW0aCI6RVF1MoaRWUEa9BQA&#xA;H8FOD87Ecoto0gHd8m31rUW+yUT6OX9MideegbBpx3rDqmpHrKB/qqR/HInXT8mXgRUjd3xJrcua&#xA;9vhp+rIHV5O9PgxWFpZCA8rbnryK/wDEaZA6iZ6svDj3OkQqaGQuP9ZiPxyByS7ykRHcpmOFQWKq&#xA;O5NBkLZLlC0qtKe2Kt4FdirRAIoRUHscKt4FdirRVSQSKkdDhVvArQr3NcKt4FaoKg03HQ4qtkQt&#xA;SjlaeGFW+QBCk/FT6cVTAa5Mm0FrGg6dePTp0rmyOuA5BxI6amm1zUD0VF+mv8BkTrz0DP8AL+an&#xA;+ltUP2pU+hSP+Nsr/PT7gnwApte6ix3uWHstKfjXIHWZO9kMMVKSe5K/FLI/sKA/gBkTqch6p8KP&#xA;ctAag+OT6Xb+uQOafeWXAO5owxE1ZQx8Tv8AryBkSmmxHGOigfRgSvWN2HwqSB4DGlWO4TqGPyBO&#xA;Ktq3IA0Ir2IocVbwK7FXYqtRWC0ZuR8aUwquwK7FXYq7FXYq7FWmBPQkfKn8cKuqB1wKqrJEE4mI&#xA;Fv5qnDaqeBXYq7FXYq0pJFSKHw64VbUVIFQPc4q2y8TSob3HTFWsCuxVazogqzBR74VbAFeQ7jx2&#xA;xVvArsVdirQYGtDWmxwq3gVtXdfssRXrQ0wq1gV2KuxV2KtMSASBU+HTCrvi47bN7774qtQSgnmV&#xA;I7UBGKr8CuxV2KuxVTjlLkjgy07sKYaVUwKtZEanJQadKiuFW+K1BoKjocVca0NBU9hiq6OOWQDi&#xA;hZu4UE/qwiJPJBKJTSdSkG1s9D/MOP66ZbHT5D0LE5I96Jh8salQLwSIeDMP+NeWWjRZCwOeKJTy&#xA;pPSstwiePEFv18ctj2fLqWB1I7lZfLump/e3ZY+C8R/zVlo7Pj1JYHUnuc1r5YtiBK4J7c3I/wCa&#xA;cJwYIfUR8S1nUnvWnVvLMBokKMex4c/xAbKzqtLDqPlbVLU+bH81jtVpRCKFQR4Hf9eFV2BXYq7F&#xA;XYquKrwB5gt/LQ4VW4FdirsVaJoK4qsSeJzRTU/Ij9eGlVMCuxV2KuxV2KuxVfFbXcjHhGzqfshV&#xA;JP4ZMQkeQKDIDmUVHouqP0t2H+tRf1kZaNLkPRgc0R1RMfljUm+0Y4/m1f1A5bHQZD3MDqIolPKj&#xA;AVluQo9lr+JIy0dnHqWB1Pkqr5f0mP8AvLhmPgGUfgATlw7Ph1JYHUyc0Pli2I9Qry7c2P8AEgYn&#xA;Fgh9VfEsDqJd60635dtzSOJK+KpX8VDZWdZpYdR8BbSdR5qcnnGBTxjgYgdDQU/EqfwyqXbOEcgS&#xA;1nPFCSecL1q8IlUdjX+HH+OY8u3O6P2/sYHUeSEk8yas4IMirXoVBB/XTMaXbOY8hEMTnKEk1LUJ&#xA;BSS4c+4op+9QMxp9o55c5fo+5gcsu9QeSSQUkdpB4Oxb9eY0805fUSfixMiVoAHTbKmLeKonmn8w&#xA;+/N1Rek4497uafzD78aK8ce93NP5h9+NFeOPeplpfUqJE4eHfDS8Y7wqc0/mH34KK8ce93NP5h9+&#xA;NFeOPe7mn8w+/GivHHvdzT+YffjRXjj3u5p/MPvxorxx73c0/mH340V4497uafzD78aK8ce9Vjt5&#xA;5P7uNmHiAaZIQkeiDkj3oqPR79/2Ao8WdR/GuWx00z0YnPDvRMfly5YVeeFPblU/gMtjopdSGB1M&#xA;UTH5Zt/92Xg9woA/EnLY6GPWTA6nyV10LRY/tzM/j8Q/41GXR0OPzLA6iTbr5YtvtqgP+WT/AMbn&#xA;JHHghz4R7ywlnPUrG8w6FAaRRqD2KJt96BsgdZp4dR8B+pqlmHUqMnnKEMRHCxHZqCn4lT+GUy7Y&#xA;xDkJH4NZzBCSeb71qhIlUdjy/hx/jmNLto9Ifb+xic/khJPMmrPUGRVr/KCD+un4ZjS7YzHkAPgw&#xA;OaSEk1G/kFHuHPuKKfvUDMaXaGolzkfu+5icklB5JJBSR2kHg7Fv11zGnlyS+oksCSVoAHTbKqKK&#xA;LeNFadjRWnY0Vp2NFadjRWnY0Vp2NFadjRWn/9k=</xmpGImg:image>
               </rdf:li>
            </rdf:Alt>
         </xmp:Thumbnails>
      </rdf:Description>
      <rdf:Description rdf:about=""
            xmlns:xmpMM="http://ns.adobe.com/xap/1.0/mm/"
            xmlns:stRef="http://ns.adobe.com/xap/1.0/sType/ResourceRef#"
            xmlns:stEvt="http://ns.adobe.com/xap/1.0/sType/ResourceEvent#">
         <xmpMM:InstanceID>xmp.iid:CE86CE839A23EA1192BFD8E50015D5D6</xmpMM:InstanceID>
         <xmpMM:DocumentID>xmp.did:CE86CE839A23EA1192BFD8E50015D5D6</xmpMM:DocumentID>
         <xmpMM:OriginalDocumentID>uuid:5D20892493BFDB11914A8590D31508C8</xmpMM:OriginalDocumentID>
         <xmpMM:RenditionClass>proof:pdf</xmpMM:RenditionClass>
         <xmpMM:DerivedFrom rdf:parseType="Resource">
            <stRef:instanceID>xmp.iid:CD86CE839A23EA1192BFD8E50015D5D6</stRef:instanceID>
            <stRef:documentID>xmp.did:CD86CE839A23EA1192BFD8E50015D5D6</stRef:documentID>
            <stRef:originalDocumentID>uuid:5D20892493BFDB11914A8590D31508C8</stRef:originalDocumentID>
            <stRef:renditionClass>proof:pdf</stRef:renditionClass>
         </xmpMM:DerivedFrom>
         <xmpMM:History>
            <rdf:Seq>
               <rdf:li rdf:parseType="Resource">
                  <stEvt:action>saved</stEvt:action>
                  <stEvt:instanceID>xmp.iid:CD86CE839A23EA1192BFD8E50015D5D6</stEvt:instanceID>
                  <stEvt:when>2019-12-21T12:02:23+09:00</stEvt:when>
                  <stEvt:softwareAgent>Adobe Illustrator CS6 (Windows)</stEvt:softwareAgent>
                  <stEvt:changed>/</stEvt:changed>
               </rdf:li>
               <rdf:li rdf:parseType="Resource">
                  <stEvt:action>saved</stEvt:action>
                  <stEvt:instanceID>xmp.iid:CE86CE839A23EA1192BFD8E50015D5D6</stEvt:instanceID>
                  <stEvt:when>2019-12-21T13:22:44+09:00</stEvt:when>
                  <stEvt:softwareAgent>Adobe Illustrator CS6 (Windows)</stEvt:softwareAgent>
                  <stEvt:changed>/</stEvt:changed>
               </rdf:li>
            </rdf:Seq>
         </xmpMM:History>
      </rdf:Description>
      <rdf:Description rdf:about=""
            xmlns:illustrator="http://ns.adobe.com/illustrator/1.0/">
         <illustrator:StartupProfile>Print</illustrator:StartupProfile>
      </rdf:Description>
      <rdf:Description rdf:about=""
            xmlns:xmpTPg="http://ns.adobe.com/xap/1.0/t/pg/"
            xmlns:stDim="http://ns.adobe.com/xap/1.0/sType/Dimensions#"
            xmlns:xmpG="http://ns.adobe.com/xap/1.0/g/">
         <xmpTPg:HasVisibleOverprint>False</xmpTPg:HasVisibleOverprint>
         <xmpTPg:HasVisibleTransparency>False</xmpTPg:HasVisibleTransparency>
         <xmpTPg:NPages>1</xmpTPg:NPages>
         <xmpTPg:MaxPageSize rdf:parseType="Resource">
            <stDim:w>960.000000</stDim:w>
            <stDim:h>540.000000</stDim:h>
            <stDim:unit>Pixels</stDim:unit>
         </xmpTPg:MaxPageSize>
         <xmpTPg:PlateNames>
            <rdf:Seq>
               <rdf:li>Cyan</rdf:li>
               <rdf:li>Magenta</rdf:li>
               <rdf:li>Yellow</rdf:li>
               <rdf:li>Black</rdf:li>
            </rdf:Seq>
         </xmpTPg:PlateNames>
         <xmpTPg:SwatchGroups>
            <rdf:Seq>
               <rdf:li rdf:parseType="Resource">
                  <xmpG:groupName>Default Swatch Group</xmpG:groupName>
                  <xmpG:groupType>0</xmpG:groupType>
                  <xmpG:Colorants>
                     <rdf:Seq>
                        <rdf:li rdf:parseType="Resource">
                           <xmpG:swatchName>White</xmpG:swatchName>
                           <xmpG:mode>RGB</xmpG:mode>
                           <xmpG:type>PROCESS</xmpG:type>
                           <xmpG:red>255</xmpG:red>
                           <xmpG:green>255</xmpG:green>
                           <xmpG:blue>255</xmpG:blue>
                        </rdf:li>
                        <rdf:li rdf:parseType="Resource">
                           <xmpG:swatchName>Black</xmpG:swatchName>
                           <xmpG:mode>RGB</xmpG:mode>
                           <xmpG:type>PROCESS</xmpG:type>
                           <xmpG:red>35</xmpG:red>
                           <xmpG:green>31</xmpG:green>
                           <xmpG:blue>32</xmpG:blue>
                        </rdf:li>
                        <rdf:li rdf:parseType="Resource">
                           <xmpG:swatchName>CMYK Red</xmpG:swatchName>
                           <xmpG:mode>RGB</xmpG:mode>
                           <xmpG:type>PROCESS</xmpG:type>
                           <xmpG:red>237</xmpG:red>
                           <xmpG:green>28</xmpG:green>
                           <xmpG:blue>36</xmpG:blue>
                        </rdf:li>
                        <rdf:li rdf:parseType="Resource">
                           <xmpG:swatchName>CMYK Yellow</xmpG:swatchName>
                           <xmpG:mode>RGB</xmpG:mode>
                           <xmpG:type>PROCESS</xmpG:type>
                           <xmpG:red>255</xmpG:red>
                           <xmpG:green>242</xmpG:green>
                           <xmpG:blue>0</xmpG:blue>
                        </rdf:li>
                        <rdf:li rdf:parseType="Resource">
                           <xmpG:swatchName>CMYK Green</xmpG:swatchName>
                           <xmpG:mode>RGB</xmpG:mode>
                           <xmpG:type>PROCESS</xmpG:type>
                           <xmpG:red>0</xmpG:red>
                           <xmpG:green>166</xmpG:green>
                           <xmpG:blue>81</xmpG:blue>
                        </rdf:li>
                        <rdf:li rdf:parseType="Resource">
                           <xmpG:swatchName>CMYK Cyan</xmpG:swatchName>
                           <xmpG:mode>RGB</xmpG:mode>
                           <xmpG:type>PROCESS</xmpG:type>
                           <xmpG:red>0</xmpG:red>
                           <xmpG:green>174</xmpG:green>
                           <xmpG:blue>239</xmpG:blue>
                        </rdf:li>
                        <rdf:li rdf:parseType="Resource">
                           <xmpG:swatchName>CMYK Blue</xmpG:swatchName>
                           <xmpG:mode>RGB</xmpG:mode>
                           <xmpG:type>PROCESS</xmpG:type>
                           <xmpG:red>46</xmpG:red>
                           <xmpG:green>49</xmpG:green>
                           <xmpG:blue>146</xmpG:blue>
                        </rdf:li>
                        <rdf:li rdf:parseType="Resource">
                           <xmpG:swatchName>CMYK Magenta</xmpG:swatchName>
                           <xmpG:mode>RGB</xmpG:mode>
                           <xmpG:type>PROCESS</xmpG:type>
                           <xmpG:red>236</xmpG:red>
                           <xmpG:green>0</xmpG:green>
                           <xmpG:blue>140</xmpG:blue>
                        </rdf:li>
                        <rdf:li rdf:parseType="Resource">
                           <xmpG:swatchName>C=15 M=100 Y=90 K=10</xmpG:swatchName>
                           <xmpG:mode>RGB</xmpG:mode>
                           <xmpG:type>PROCESS</xmpG:type>
                           <xmpG:red>190</xmpG:red>
                           <xmpG:green>30</xmpG:green>
                           <xmpG:blue>45</xmpG:blue>
                        </rdf:li>
                        <rdf:li rdf:parseType="Resource">
                           <xmpG:swatchName>C=0 M=90 Y=85 K=0</xmpG:swatchName>
                           <xmpG:mode>RGB</xmpG:mode>
                           <xmpG:type>PROCESS</xmpG:type>
                           <xmpG:red>239</xmpG:red>
                           <xmpG:green>65</xmpG:green>
                           <xmpG:blue>54</xmpG:blue>
                        </rdf:li>
                        <rdf:li rdf:parseType="Resource">
                           <xmpG:swatchName>C=0 M=80 Y=95 K=0</xmpG:swatchName>
                           <xmpG:mode>RGB</xmpG:mode>
                           <xmpG:type>PROCESS</xmpG:type>
                           <xmpG:red>241</xmpG:red>
                           <xmpG:green>90</xmpG:green>
                           <xmpG:blue>41</xmpG:blue>
                        </rdf:li>
                        <rdf:li rdf:parseType="Resource">
                           <xmpG:swatchName>C=0 M=50 Y=100 K=0</xmpG:swatchName>
                           <xmpG:mode>RGB</xmpG:mode>
                           <xmpG:type>PROCESS</xmpG:type>
                           <xmpG:red>247</xmpG:red>
                           <xmpG:green>148</xmpG:green>
                           <xmpG:blue>30</xmpG:blue>
                        </rdf:li>
                        <rdf:li rdf:parseType="Resource">
                           <xmpG:swatchName>C=0 M=35 Y=85 K=0</xmpG:swatchName>
                           <xmpG:mode>RGB</xmpG:mode>
                           <xmpG:type>PROCESS</xmpG:type>
                           <xmpG:red>251</xmpG:red>
                           <xmpG:green>176</xmpG:green>
                           <xmpG:blue>64</xmpG:blue>
                        </rdf:li>
                        <rdf:li rdf:parseType="Resource">
                           <xmpG:swatchName>C=5 M=0 Y=90 K=0</xmpG:swatchName>
                           <xmpG:mode>RGB</xmpG:mode>
                           <xmpG:type>PROCESS</xmpG:type>
                           <xmpG:red>249</xmpG:red>
                           <xmpG:green>237</xmpG:green>
                           <xmpG:blue>50</xmpG:blue>
                        </rdf:li>
                        <rdf:li rdf:parseType="Resource">
                           <xmpG:swatchName>C=20 M=0 Y=100 K=0</xmpG:swatchName>
                           <xmpG:mode>RGB</xmpG:mode>
                           <xmpG:type>PROCESS</xmpG:type>
                           <xmpG:red>215</xmpG:red>
                           <xmpG:green>223</xmpG:green>
                           <xmpG:blue>35</xmpG:blue>
                        </rdf:li>
                        <rdf:li rdf:parseType="Resource">
                           <xmpG:swatchName>C=50 M=0 Y=100 K=0</xmpG:swatchName>
                           <xmpG:mode>RGB</xmpG:mode>
                           <xmpG:type>PROCESS</xmpG:type>
                           <xmpG:red>141</xmpG:red>
                           <xmpG:green>198</xmpG:green>
                           <xmpG:blue>63</xmpG:blue>
                        </rdf:li>
                        <rdf:li rdf:parseType="Resource">
                           <xmpG:swatchName>C=75 M=0 Y=100 K=0</xmpG:swatchName>
                           <xmpG:mode>RGB</xmpG:mode>
                           <xmpG:type>PROCESS</xmpG:type>
                           <xmpG:red>57</xmpG:red>
                           <xmpG:green>181</xmpG:green>
                           <xmpG:blue>74</xmpG:blue>
                        </rdf:li>
                        <rdf:li rdf:parseType="Resource">
                           <xmpG:swatchName>C=85 M=10 Y=100 K=10</xmpG:swatchName>
                           <xmpG:mode>RGB</xmpG:mode>
                           <xmpG:type>PROCESS</xmpG:type>
                           <xmpG:red>0</xmpG:red>
                           <xmpG:green>148</xmpG:green>
                           <xmpG:blue>68</xmpG:blue>
                        </rdf:li>
                        <rdf:li rdf:parseType="Resource">
                           <xmpG:swatchName>C=90 M=30 Y=95 K=30</xmpG:swatchName>
                           <xmpG:mode>RGB</xmpG:mode>
                           <xmpG:type>PROCESS</xmpG:type>
                           <xmpG:red>0</xmpG:red>
                           <xmpG:green>104</xmpG:green>
                           <xmpG:blue>56</xmpG:blue>
                        </rdf:li>
                        <rdf:li rdf:parseType="Resource">
                           <xmpG:swatchName>C=75 M=0 Y=75 K=0</xmpG:swatchName>
                           <xmpG:mode>RGB</xmpG:mode>
                           <xmpG:type>PROCESS</xmpG:type>
                           <xmpG:red>43</xmpG:red>
                           <xmpG:green>182</xmpG:green>
                           <xmpG:blue>115</xmpG:blue>
                        </rdf:li>
                        <rdf:li rdf:parseType="Resource">
                           <xmpG:swatchName>C=80 M=10 Y=45 K=0</xmpG:swatchName>
                           <xmpG:mode>RGB</xmpG:mode>
                           <xmpG:type>PROCESS</xmpG:type>
                           <xmpG:red>0</xmpG:red>
                           <xmpG:green>167</xmpG:green>
                           <xmpG:blue>157</xmpG:blue>
                        </rdf:li>
                        <rdf:li rdf:parseType="Resource">
                           <xmpG:swatchName>C=70 M=15 Y=0 K=0</xmpG:swatchName>
                           <xmpG:mode>RGB</xmpG:mode>
                           <xmpG:type>PROCESS</xmpG:type>
                           <xmpG:red>39</xmpG:red>
                           <xmpG:green>170</xmpG:green>
                           <xmpG:blue>225</xmpG:blue>
                        </rdf:li>
                        <rdf:li rdf:parseType="Resource">
                           <xmpG:swatchName>C=85 M=50 Y=0 K=0</xmpG:swatchName>
                           <xmpG:mode>RGB</xmpG:mode>
                           <xmpG:type>PROCESS</xmpG:type>
                           <xmpG:red>28</xmpG:red>
                           <xmpG:green>117</xmpG:green>
                           <xmpG:blue>188</xmpG:blue>
                        </rdf:li>
                        <rdf:li rdf:parseType="Resource">
                           <xmpG:swatchName>C=100 M=95 Y=5 K=0</xmpG:swatchName>
                           <xmpG:mode>RGB</xmpG:mode>
                           <xmpG:type>PROCESS</xmpG:type>
                           <xmpG:red>43</xmpG:red>
                           <xmpG:green>57</xmpG:green>
                           <xmpG:blue>144</xmpG:blue>
                        </rdf:li>
                        <rdf:li rdf:parseType="Resource">
                           <xmpG:swatchName>C=100 M=100 Y=25 K=25</xmpG:swatchName>
                           <xmpG:mode>RGB</xmpG:mode>
                           <xmpG:type>PROCESS</xmpG:type>
                           <xmpG:red>38</xmpG:red>
                           <xmpG:green>34</xmpG:green>
                           <xmpG:blue>98</xmpG:blue>
                        </rdf:li>
                        <rdf:li rdf:parseType="Resource">
                           <xmpG:swatchName>C=75 M=100 Y=0 K=0</xmpG:swatchName>
                           <xmpG:mode>RGB</xmpG:mode>
                           <xmpG:type>PROCESS</xmpG:type>
                           <xmpG:red>102</xmpG:red>
                           <xmpG:green>45</xmpG:green>
                           <xmpG:blue>145</xmpG:blue>
                        </rdf:li>
                        <rdf:li rdf:parseType="Resource">
                           <xmpG:swatchName>C=50 M=100 Y=0 K=0</xmpG:swatchName>
                           <xmpG:mode>RGB</xmpG:mode>
                           <xmpG:type>PROCESS</xmpG:type>
                           <xmpG:red>146</xmpG:red>
                           <xmpG:green>39</xmpG:green>
                           <xmpG:blue>143</xmpG:blue>
                        </rdf:li>
                        <rdf:li rdf:parseType="Resource">
                           <xmpG:swatchName>C=35 M=100 Y=35 K=10</xmpG:swatchName>
                           <xmpG:mode>RGB</xmpG:mode>
                           <xmpG:type>PROCESS</xmpG:type>
                           <xmpG:red>158</xmpG:red>
                           <xmpG:green>31</xmpG:green>
                           <xmpG:blue>99</xmpG:blue>
                        </rdf:li>
                        <rdf:li rdf:parseType="Resource">
                           <xmpG:swatchName>C=10 M=100 Y=50 K=0</xmpG:swatchName>
                           <xmpG:mode>RGB</xmpG:mode>
                           <xmpG:type>PROCESS</xmpG:type>
                           <xmpG:red>218</xmpG:red>
                           <xmpG:green>28</xmpG:green>
                           <xmpG:blue>92</xmpG:blue>
                        </rdf:li>
                        <rdf:li rdf:parseType="Resource">
                           <xmpG:swatchName>C=0 M=95 Y=20 K=0</xmpG:swatchName>
                           <xmpG:mode>RGB</xmpG:mode>
                           <xmpG:type>PROCESS</xmpG:type>
                           <xmpG:red>238</xmpG:red>
                           <xmpG:green>42</xmpG:green>
                           <xmpG:blue>123</xmpG:blue>
                        </rdf:li>
                        <rdf:li rdf:parseType="Resource">
                           <xmpG:swatchName>C=25 M=25 Y=40 K=0</xmpG:swatchName>
                           <xmpG:mode>RGB</xmpG:mode>
                           <xmpG:type>PROCESS</xmpG:type>
                           <xmpG:red>194</xmpG:red>
                           <xmpG:green>181</xmpG:green>
                           <xmpG:blue>155</xmpG:blue>
                        </rdf:li>
                        <rdf:li rdf:parseType="Resource">
                           <xmpG:swatchName>C=40 M=45 Y=50 K=5</xmpG:swatchName>
                           <xmpG:mode>RGB</xmpG:mode>
                           <xmpG:type>PROCESS</xmpG:type>
                           <xmpG:red>155</xmpG:red>
                           <xmpG:green>133</xmpG:green>
                           <xmpG:blue>121</xmpG:blue>
                        </rdf:li>
                        <rdf:li rdf:parseType="Resource">
                           <xmpG:swatchName>C=50 M=50 Y=60 K=25</xmpG:swatchName>
                           <xmpG:mode>RGB</xmpG:mode>
                           <xmpG:type>PROCESS</xmpG:type>
                           <xmpG:red>114</xmpG:red>
                           <xmpG:green>102</xmpG:green>
                           <xmpG:blue>88</xmpG:blue>
                        </rdf:li>
                        <rdf:li rdf:parseType="Resource">
                           <xmpG:swatchName>C=55 M=60 Y=65 K=40</xmpG:swatchName>
                           <xmpG:mode>RGB</xmpG:mode>
                           <xmpG:type>PROCESS</xmpG:type>
                           <xmpG:red>89</xmpG:red>
                           <xmpG:green>74</xmpG:green>
                           <xmpG:blue>66</xmpG:blue>
                        </rdf:li>
                        <rdf:li rdf:parseType="Resource">
                           <xmpG:swatchName>C=25 M=40 Y=65 K=0</xmpG:swatchName>
                           <xmpG:mode>RGB</xmpG:mode>
                           <xmpG:type>PROCESS</xmpG:type>
                           <xmpG:red>196</xmpG:red>
                           <xmpG:green>154</xmpG:green>
                           <xmpG:blue>108</xmpG:blue>
                        </rdf:li>
                        <rdf:li rdf:parseType="Resource">
                           <xmpG:swatchName>C=30 M=50 Y=75 K=10</xmpG:swatchName>
                           <xmpG:mode>RGB</xmpG:mode>
                           <xmpG:type>PROCESS</xmpG:type>
                           <xmpG:red>169</xmpG:red>
                           <xmpG:green>124</xmpG:green>
                           <xmpG:blue>80</xmpG:blue>
                        </rdf:li>
                        <rdf:li rdf:parseType="Resource">
                           <xmpG:swatchName>C=35 M=60 Y=80 K=25</xmpG:swatchName>
                           <xmpG:mode>RGB</xmpG:mode>
                           <xmpG:type>PROCESS</xmpG:type>
                           <xmpG:red>139</xmpG:red>
                           <xmpG:green>94</xmpG:green>
                           <xmpG:blue>60</xmpG:blue>
                        </rdf:li>
                        <rdf:li rdf:parseType="Resource">
                           <xmpG:swatchName>C=40 M=65 Y=90 K=35</xmpG:swatchName>
                           <xmpG:mode>RGB</xmpG:mode>
                           <xmpG:type>PROCESS</xmpG:type>
                           <xmpG:red>117</xmpG:red>
                           <xmpG:green>76</xmpG:green>
                           <xmpG:blue>41</xmpG:blue>
                        </rdf:li>
                        <rdf:li rdf:parseType="Resource">
                           <xmpG:swatchName>C=40 M=70 Y=100 K=50</xmpG:swatchName>
                           <xmpG:mode>RGB</xmpG:mode>
                           <xmpG:type>PROCESS</xmpG:type>
                           <xmpG:red>96</xmpG:red>
                           <xmpG:green>57</xmpG:green>
                           <xmpG:blue>19</xmpG:blue>
                        </rdf:li>
                        <rdf:li rdf:parseType="Resource">
                           <xmpG:swatchName>C=50 M=70 Y=80 K=70</xmpG:swatchName>
                           <xmpG:mode>RGB</xmpG:mode>
                           <xmpG:type>PROCESS</xmpG:type>
                           <xmpG:red>60</xmpG:red>
                           <xmpG:green>36</xmpG:green>
                           <xmpG:blue>21</xmpG:blue>
                        </rdf:li>
                     </rdf:Seq>
                  </xmpG:Colorants>
               </rdf:li>
               <rdf:li rdf:parseType="Resource">
                  <xmpG:groupName>Grays</xmpG:groupName>
                  <xmpG:groupType>1</xmpG:groupType>
                  <xmpG:Colorants>
                     <rdf:Seq>
                        <rdf:li rdf:parseType="Resource">
                           <xmpG:swatchName>C=0 M=0 Y=0 K=100</xmpG:swatchName>
                           <xmpG:mode>RGB</xmpG:mode>
                           <xmpG:type>PROCESS</xmpG:type>
                           <xmpG:red>35</xmpG:red>
                           <xmpG:green>31</xmpG:green>
                           <xmpG:blue>32</xmpG:blue>
                        </rdf:li>
                        <rdf:li rdf:parseType="Resource">
                           <xmpG:swatchName>C=0 M=0 Y=0 K=90</xmpG:swatchName>
                           <xmpG:mode>RGB</xmpG:mode>
                           <xmpG:type>PROCESS</xmpG:type>
                           <xmpG:red>65</xmpG:red>
                           <xmpG:green>64</xmpG:green>
                           <xmpG:blue>66</xmpG:blue>
                        </rdf:li>
                        <rdf:li rdf:parseType="Resource">
                           <xmpG:swatchName>C=0 M=0 Y=0 K=80</xmpG:swatchName>
                           <xmpG:mode>RGB</xmpG:mode>
                           <xmpG:type>PROCESS</xmpG:type>
                           <xmpG:red>88</xmpG:red>
                           <xmpG:green>89</xmpG:green>
                           <xmpG:blue>91</xmpG:blue>
                        </rdf:li>
                        <rdf:li rdf:parseType="Resource">
                           <xmpG:swatchName>C=0 M=0 Y=0 K=70</xmpG:swatchName>
                           <xmpG:mode>RGB</xmpG:mode>
                           <xmpG:type>PROCESS</xmpG:type>
                           <xmpG:red>109</xmpG:red>
                           <xmpG:green>110</xmpG:green>
                           <xmpG:blue>113</xmpG:blue>
                        </rdf:li>
                        <rdf:li rdf:parseType="Resource">
                           <xmpG:swatchName>C=0 M=0 Y=0 K=60</xmpG:swatchName>
                           <xmpG:mode>RGB</xmpG:mode>
                           <xmpG:type>PROCESS</xmpG:type>
                           <xmpG:red>128</xmpG:red>
                           <xmpG:green>130</xmpG:green>
                           <xmpG:blue>133</xmpG:blue>
                        </rdf:li>
                        <rdf:li rdf:parseType="Resource">
                           <xmpG:swatchName>C=0 M=0 Y=0 K=50</xmpG:swatchName>
                           <xmpG:mode>RGB</xmpG:mode>
                           <xmpG:type>PROCESS</xmpG:type>
                           <xmpG:red>147</xmpG:red>
                           <xmpG:green>149</xmpG:green>
                           <xmpG:blue>152</xmpG:blue>
                        </rdf:li>
                        <rdf:li rdf:parseType="Resource">
                           <xmpG:swatchName>C=0 M=0 Y=0 K=40</xmpG:swatchName>
                           <xmpG:mode>RGB</xmpG:mode>
                           <xmpG:type>PROCESS</xmpG:type>
                           <xmpG:red>167</xmpG:red>
                           <xmpG:green>169</xmpG:green>
                           <xmpG:blue>172</xmpG:blue>
                        </rdf:li>
                        <rdf:li rdf:parseType="Resource">
                           <xmpG:swatchName>C=0 M=0 Y=0 K=30</xmpG:swatchName>
                           <xmpG:mode>RGB</xmpG:mode>
                           <xmpG:type>PROCESS</xmpG:type>
                           <xmpG:red>188</xmpG:red>
                           <xmpG:green>190</xmpG:green>
                           <xmpG:blue>192</xmpG:blue>
                        </rdf:li>
                        <rdf:li rdf:parseType="Resource">
                           <xmpG:swatchName>C=0 M=0 Y=0 K=20</xmpG:swatchName>
                           <xmpG:mode>RGB</xmpG:mode>
                           <xmpG:type>PROCESS</xmpG:type>
                           <xmpG:red>209</xmpG:red>
                           <xmpG:green>211</xmpG:green>
                           <xmpG:blue>212</xmpG:blue>
                        </rdf:li>
                        <rdf:li rdf:parseType="Resource">
                           <xmpG:swatchName>C=0 M=0 Y=0 K=10</xmpG:swatchName>
                           <xmpG:mode>RGB</xmpG:mode>
                           <xmpG:type>PROCESS</xmpG:type>
                           <xmpG:red>230</xmpG:red>
                           <xmpG:green>231</xmpG:green>
                           <xmpG:blue>232</xmpG:blue>
                        </rdf:li>
                        <rdf:li rdf:parseType="Resource">
                           <xmpG:swatchName>C=0 M=0 Y=0 K=5</xmpG:swatchName>
                           <xmpG:mode>RGB</xmpG:mode>
                           <xmpG:type>PROCESS</xmpG:type>
                           <xmpG:red>241</xmpG:red>
                           <xmpG:green>242</xmpG:green>
                           <xmpG:blue>242</xmpG:blue>
                        </rdf:li>
                     </rdf:Seq>
                  </xmpG:Colorants>
               </rdf:li>
               <rdf:li rdf:parseType="Resource">
                  <xmpG:groupName>Brights</xmpG:groupName>
                  <xmpG:groupType>1</xmpG:groupType>
                  <xmpG:Colorants>
                     <rdf:Seq>
                        <rdf:li rdf:parseType="Resource">
                           <xmpG:swatchName>C=0 M=100 Y=100 K=0</xmpG:swatchName>
                           <xmpG:mode>RGB</xmpG:mode>
                           <xmpG:type>PROCESS</xmpG:type>
                           <xmpG:red>237</xmpG:red>
                           <xmpG:green>28</xmpG:green>
                           <xmpG:blue>36</xmpG:blue>
                        </rdf:li>
                        <rdf:li rdf:parseType="Resource">
                           <xmpG:swatchName>C=0 M=75 Y=100 K=0</xmpG:swatchName>
                           <xmpG:mode>RGB</xmpG:mode>
                           <xmpG:type>PROCESS</xmpG:type>
                           <xmpG:red>242</xmpG:red>
                           <xmpG:green>101</xmpG:green>
                           <xmpG:blue>34</xmpG:blue>
                        </rdf:li>
                        <rdf:li rdf:parseType="Resource">
                           <xmpG:swatchName>C=0 M=10 Y=95 K=0</xmpG:swatchName>
                           <xmpG:mode>RGB</xmpG:mode>
                           <xmpG:type>PROCESS</xmpG:type>
                           <xmpG:red>255</xmpG:red>
                           <xmpG:green>222</xmpG:green>
                           <xmpG:blue>23</xmpG:blue>
                        </rdf:li>
                        <rdf:li rdf:parseType="Resource">
                           <xmpG:swatchName>C=85 M=10 Y=100 K=0</xmpG:swatchName>
                           <xmpG:mode>RGB</xmpG:mode>
                           <xmpG:type>PROCESS</xmpG:type>
                           <xmpG:red>0</xmpG:red>
                           <xmpG:green>161</xmpG:green>
                           <xmpG:blue>75</xmpG:blue>
                        </rdf:li>
                        <rdf:li rdf:parseType="Resource">
                           <xmpG:swatchName>C=100 M=90 Y=0 K=0</xmpG:swatchName>
                           <xmpG:mode>RGB</xmpG:mode>
                           <xmpG:type>PROCESS</xmpG:type>
                           <xmpG:red>33</xmpG:red>
                           <xmpG:green>64</xmpG:green>
                           <xmpG:blue>154</xmpG:blue>
                        </rdf:li>
                        <rdf:li rdf:parseType="Resource">
                           <xmpG:swatchName>C=60 M=90 Y=0 K=0</xmpG:swatchName>
                           <xmpG:mode>RGB</xmpG:mode>
                           <xmpG:type>PROCESS</xmpG:type>
                           <xmpG:red>127</xmpG:red>
                           <xmpG:green>63</xmpG:green>
                           <xmpG:blue>152</xmpG:blue>
                        </rdf:li>
                     </rdf:Seq>
                  </xmpG:Colorants>
               </rdf:li>
            </rdf:Seq>
         </xmpTPg:SwatchGroups>
      </rdf:Description>
      <rdf:Description rdf:about=""
            xmlns:pdf="http://ns.adobe.com/pdf/1.3/">
         <pdf:Producer>Adobe PDF library 10.01</pdf:Producer>
      </rdf:Description>
   </rdf:RDF>
</x:xmpmeta>
                                                                                                    
                                                                                                    
                                                                                                    
                                                                                                    
                                                                                                    
                                                                                                    
                                                                                                    
                                                                                                    
                                                                                                    
                                                                                                    
                                                                                                    
                                                                                                    
                                                                                                    
                                                                                                    
                                                                                                    
                                                                                                    
                                                                                                    
                                                                                                    
                                                                                                    
                                                                                                    
                           
<?xpacket end="w"?>
	</metadata>
<rect y="1" style="fill:#7FE8F6;" width="960" height="540"/>
<g>
	<path style="fill:#C4F5FB;" d="M279.2,66.3c-3.7-4.7-27-3-30,3.3c-5.9,12.4,25.7,9.7,30.6,7.4c3.9,7.4,26.8,10.9,28.9,0.6
		c4.2,2,29.5,5.3,23.4-5.6c-2.9-5.2-19.7-6.1-24.8-4.8c1.9-4.5-4.7-8.6-8.7-8.4c-4,0.1-8.1,3.7-10,6.7c0,0-0.7-8.1-6-6.7
		S279.2,66.3,279.2,66.3z"/>
	<path style="fill:#C5F3FB;" d="M391.1,46.3c-8.8-0.5-22.1-5.5-29.2,3.5c-8.8,11.3,19.3,6.8,24.5,6.4c5.8-0.5,9.9,1,15.3,2.1
		c6.4,1.4,9.4,0.5,15.5-1.2c9.8-2.7,25.8,5,33.7-2.3c1.5-1.4,2.6-2.7,3.4-4.5c0-7.7-19.3-6-29.3-5c-5.2,0.5-9.2-0.4-14-1.2
		c-4.7-0.7-10.1-2.8-14.7-0.5L391.1,46.3z"/>
	<path style="fill:#E4FAFD;" d="M635.6,52.5C632,38,650,35.5,660.9,35.4c7.3-0.1,13.7,0.1,20.2,3.4c5.2,2.7,6.5,7,10.3,9.9
		c6.4,4.9,21.7-1.6,30.3,0c5.5,1,29.8,9.5,15.8,16.9c-9.8,5.2-20.8-5.9-30.2-1.4c-10.3,5-15.3,11.1-28.2,9.9
		c-4.9-0.5-9.1-4.5-12.6-5.1c-5-0.9-10.7,2.6-16.3,1.8c-5.3-0.8-7.9-4.8-13.1-5.2c-4.7-0.4-10.4,2-15.1,2.6
		c-6.1,0.8-38.1-0.7-28.4-13.3c11.1-14.4,29,5.2,42.1-2C635.6,52.7,635.6,52.6,635.6,52.5z"/>
</g>
<g>
	<path style="fill:#77E0BF;" d="M572.3,165c3.3-0.9,2.6-7-1.9-6.8c1.5-6.6-1-9.4-6.1-13.3c-0.6-0.4-2.9-0.9-3.5-1.3
		c-1-0.6-1.1-2.8-2.5-3.4c-2.6-1.1-4.2-1.7-6.5,0.5c-2.5-6-9.7-8.3-15.5-6.4c-1.6,0.5-4.5,2.3-6.6,3.3c-2.7,1.3-4.8,0.7-6.1,3.9
		c-6.4,0.7-9.8-3.2-15.2,2c-2.8-5.2-6.1-6.8-11.9-7.4c-0.2-2.6,0-5.2-0.2-7.8c-5.6-0.5-4.5-9.7-11.8-6.2c-3.8-8.3-11.5-7.6-18.1-3.8
		c-3.6,2.1-3,4.3-8,3.8c-5.2-0.5-4.2-2.9-7.5-6c-4-3.7-4.3-1.7-9-2.8c-2.8-0.7-4-3.4-7.5-3.2c-6.3,0.4-10.7,8.5-14.8,12.7
		c-3.3,3.2-1.9,2.1-6.5,2.8c-2.6,0.4-5.2-0.8-7.5,1c-1.1,0.9-2.5,4.9-3,6.4c-0.4,1-1.9,1.5-2.2,2.4c-0.4,1.3,1.4,3.6,1.3,4
		c-1.1,3.4-3.5,10.6-7.2,11.8c-3.1,1-4.8-1.4-7.3-1.7c-2.3-0.3-5.4,1.1-8,0.5c-5.4-1.1-7-3.7-12.8-2.2c-1.7,0.5-5.1,1.4-6.3,3
		c-1.4,1.8-0.4,6-1.6,7.2c-6,6.1-25.4-2.5-23.1,13.9c0.7,0.2,1.2,0,1.9,0.1L572.3,165z"/>
	<path style="fill:#54D3A5;" d="M960,52.5c-2.8,0.5-5.6,1.9-8.2,2.3c-6.2,1-17,1.8-17,11.4c-2.3-3.8-6.1-2.9-9.2-0.4
		c-3.6,2.9-3.2,3.2-1.5,7.7c-8.4,1.4-7.9,14.1-13.9,15.3c-4.2,0.8-7.2-3.9-12.7-1c-3.7,1.9-6.1,4.7-5.4,9.1c-7-5.1-13.4,6.1-12,12
		c-3.3,0.5-5-1.5-7.9-1.8c-2.4-0.2-5.5,1.5-8,0.6c-2.8-1-2.4-4.5-5.3-5.9c-1.9-0.9-5.8-0.1-7.9-0.2c0.4-7.1-4-14.6-12-14
		c-0.8-6-5.1-8.8-10.8-9.9c-2.3-0.5-4,0.9-6.2,0.2c-1.5-0.5-3.2-3-5-3.7c-6.1-2.4-31,0.2-26.9,11.4c-8.8-0.5-15.7,7.7-13.4,16
		c-6.4,2.1-17,1.3-13.4,10.7c-6.4,1.8-9.4,6.3-15.9,6.6c-11.6,0.6-20.9-2.5-30.8,4.7c-1.9,1.4-3.8,3.6-6.5,3.5
		c-2.7-0.1-3.6-2.9-5.5-3.2c-1.8-0.3-5.4,1.3-6.5,1.1c-2-0.4-4.1-3.1-6-4.4c-3.2-2.1-6.1-3.6-10-3.5c-2.7,0.1-6.2,3.2-7.5,3.2
		c-3.7,0-2.1-2.3-5.8-3.7c-3.3-1.2-4.5,1-7.5,1c-9.2,0.1-27.3-8.2-30,6.7c-11.3-2.7-12.4,4.9-19.9,9.6c-4.5,2.8-5.4,4.1-10.7,2.7
		c-1.5-0.4-3.1-3.3-4.6-3.4c-2.2-0.2-3.2,2.6-4.6,2.7c-5.1,0.1-7.6-2.2-12.7,1.1c-3.7,2.4-5.2,6.1-7.4,9c-3.3,4.3-4.2,3.2-8.7,5.2
		c-3.4,1.5-9.4,4.3-5.3,8.7L960,134.9V52.5z"/>
</g>
<g>
	<polygon style="fill:#CAD3DC;" points="0,274.9 960,296.8 960,131.5 288.1,175.6 0,161.1 	"/>
	<g>
		<path style="fill:#DFE5EA;" d="M942.1,146.8l15.1-15.1l-9.1,0.6l-10.3,10.3l-9-9l-8,0.5l12.7,12.7l-20.9,20.9l-16.9-16.9
			l16.2-16.1l-9.1,0.6l-11.3,11.3l-9.9-9.9l-8,0.5l13.6,13.6l-18.1,18.1l-18-18l13.1-13.1l-9.1,0.6l-8.3,8.3l-7.2-7.2l-8,0.5l11,11
			L821.6,172l-17.8-17.8l13.4-13.4l-9.1,0.6l-8.5,8.5l-7.5-7.5l-8,0.5l11.2,11.2l-21,21l-15.8-15.8l15.8-15.8l-9.1,0.6l-11,11
			l-9.6-9.6l-8,0.5l13.4,13.4l-18.8,18.8l-15.8-15.8l16-16l-9.1,0.6l-11.2,11.2l-9.8-9.8l-8,0.5l13.5,13.5l-19.3,19.3L672.1,166
			l16.7-16.7l-9.1,0.6l-11.9,11.9l-10.4-10.4l-8,0.5l14.1,14.1l-19.8,19.8L628.1,170l17.9-17.9l-9.1,0.6l-13.1,13.1l-11.5-11.5
			l-8,0.5l15.2,15.2l-19.3,19.3l-15.8-15.8l18.6-18.6l-9.1,0.6l-13.8,13.8l-12.1-12.1l-7.9,0.5l0,0l-9.1,0.6l-10.9,10.9l-9.6-9.6
			l-8,0.5v0l-6.8,0.4l-12.1,12.1l-10.6-10.6l-1.3,0.1v0l-9.1,0.6l-14.4,14.4l-10.8-10.8l2.2-2.2l-4.1,0.3l0,0l-8,0.5l1.4,1.4
			l-15.8,15.8l-10.8-10.8l5.1-5.1l-9.1,0.6l-0.2,0.2l-0.2-0.2l-8,0.5l3.9,3.9l-15.8,15.8l-10.8-10.8l8-8l-9.1,0.6l-3.1,3.1l-2.7-2.7
			l-8,0.5l6.5,6.5l-11.3,11.3L357.1,177l6.4-6.4l-9.1,0.6l-1.5,1.5l-1.3-1.3l-8,0.5l5.1,5.1l-14.8,14.8l-10.3-11.2l11-8.1l-9.1,0.6
			l-5.1,5.1l-4.5-4.5l-5.9,0.4l0,0l-1.4,0.1l-0.6,0l0,0l-7,0.5l-7.5,7.5l-6.7-6.7l-2-0.1v6.6l4.5,4.5l-1,1v8.5l4.9-9l8.6,10
			l-12.3,12.3l-4.7-4.7v8.5l3.5,3.5v2.4l1.2-1.2l9.3,9.3l-10.5,10.5v8.5l14.7-14.7l10.8,10.8l-25.5,25.5v9.2l20.1,0.8l-4.4,4.4
			l8.3,0.2l4.3-4.3l20.7,0.8l-4,4l8.3,0.2l3.9-3.9l5.3,0.2l4,4l8.7,0.2h0l7.5,0.2l3.5-3.5l8.6,0.3l3.5,3.5l6.4,0.1h0l8.3,0.2l3-3
			l11,0.4l3,3l8.4,0.2l6.8,0.2l2.5-2.5l18.7,0.7l2.4,2.4l7.2,0.2l0,0l8.3,0.2l2-2l12.4,0.5l1.9,1.9l8.7,0.2l-1.7-1.7l9.2,0.3
			l-1.5,1.5l8.3,0.2l1.4-1.4l15.4,0.6l1.2,1.2l8.7,0.2l-1.1-1.1l6.1,0.2l-1,1l8.3,0.2l0.8-0.8l18.5,0.7l0.6,0.6l8.7,0.2l-0.4-0.4
			l3.1,0.1l-0.4,0.4l8.3,0.2l0.3-0.3l17.3,0.7l10.8,0.2l2,0l0,0l32.3,0.7l0,0l5.9,0.1l87.1,2l4.7,0.1l0,0l46.2,1.1l3,0.1l0,0
			l39.4,0.9l0,0l7.4,0.2l97,2.2l3.1,0.1l0,0l13.9,0.3v-0.6l-14.8-0.6l-5.7-5.7l20.6-20.6v-1.1v-7.4v-1.1L942.4,242l17.6-17.6v-0.9
			v-7.5V215l-19.4-19.4l19.4-19.4v-3.1v-5.3v-3.1L942.1,146.8z M891.6,155l16.9,16.9l-18.1,18.1l-16.9-16.9L891.6,155z M821,267.9
			l18.8-18.8l19.4,19.4l-18.8,18.8L821,267.9z M351.8,214.7l11.8,11.8l-12.4,12.4L339.4,227L351.8,214.7z M334.7,222.4l-11.8-11.8
			l12.4-12.4l11.8,11.8L334.7,222.4z M540.3,209.3l-15.8-15.8l15.8-15.8l15.8,15.8L540.3,209.3z M560.3,197.8l15.8,15.8l-15.8,15.8
			l-15.8-15.8L560.3,197.8z M536.1,213.5l-15.8,15.8l-15.8-15.8l15.8-15.8L536.1,213.5z M500.3,209.3L488.1,197l15.8-15.8l12.3,12.3
			L500.3,209.3z M496.1,213.5l-15.8,15.8L468.1,217l15.8-15.8L496.1,213.5z M463.8,212.8l-11.3-11.3l15.8-15.8l11.3,11.3
			L463.8,212.8z M459.6,217l-15.8,15.8l-11.3-11.3l15.8-15.8L459.6,217z M428.3,217.3l-10.8-10.8l15.8-15.8l10.8,10.8L428.3,217.3z
			 M429.1,223.3L415,236l-12.8-13.3l14-12.3L429.1,223.3z M399.2,220.2l-13.7-12.4l14.5-14.3l12.6,13.3L399.2,220.2z M395,223.7
			l-14.8,14.8L368.1,226l14.8-14.8L395,223.7z M365.5,222.8L353.1,211l14.8-14.8l11.9,11.7L365.5,222.8z M346.3,241l-12.8,13.1
			L322.1,242l12.3-12.3L346.3,241z M349.3,244.8l10.8,10.8l-12.3,12.3L337.1,257L349.3,244.8z M354,242.5l12.4-12.4l11.8,11.8
			l-12.4,12.4L354,242.5z M381.8,245l14.9,14.5l-12.4,12.4l-15.6-15.3L381.8,245z M383.5,241.6l14.8-14.8l10.8,10.8l-14.8,14.8
			L383.5,241.6z M412.8,241.3l11.3,11.3l-14.8,14.8L398.1,256L412.8,241.3z M417.1,237l11.3-11.3l11.3,11.3l-11.3,11.3L417.1,237z
			 M443.8,241.3l12.3,12.3l-11.3,11.3l-12.3-12.3L443.8,241.3z M448.1,237l15.8-15.8l12.3,12.3l-15.8,15.8L448.1,237z M480.3,237.8
			l15.8,15.8l-15.8,15.8l-15.8-15.8L480.3,237.8z M484.6,233.5l15.8-15.8l15.8,15.8l-15.8,15.8L484.6,233.5z M520.3,237.8l15.8,15.8
			l-15.8,15.8l-15.8-15.8L520.3,237.8z M524.6,233.5l15.8-15.8l15.8,15.8l-15.8,15.8L524.6,233.5z M560.3,237.8l15.8,15.8
			l-15.8,15.8l-15.8-15.8L560.3,237.8z M564.6,233.5l15.8-15.8l15.8,15.8l-15.8,15.8L564.6,233.5z M584.6,213.5l15.8-15.8l15.8,15.8
			l-15.8,15.8L584.6,213.5z M600.3,237.8l15.8,15.8l-15.8,15.8l-15.8-15.8L600.3,237.8z M604.6,233.5l15.8-15.8l15.8,15.8
			l-15.8,15.8L604.6,233.5z M624.6,213.5l19.3-19.3l15.8,15.8l-19.3,19.3L624.6,213.5z M640.3,237.8l15.8,15.8l-15.8,15.8
			l-15.8-15.8L640.3,237.8z M644.6,233.5l19.3-19.3l15.8,15.8l-19.3,19.3L644.6,233.5z M668.1,210l19.8-19.8l15.8,15.8l-19.8,19.8
			L668.1,210z M683.8,234.3l15.8,15.8l-19.3,19.3l-15.8-15.8L683.8,234.3z M688.1,230l19.8-19.8l15.8,15.8l-19.8,19.8L688.1,230z
			 M712.1,206l19.3-19.3l15.8,15.8l-19.3,19.3L712.1,206z M727.8,230.3l17.8,17.8l-19.8,19.8L708.1,250L727.8,230.3z M732.1,226
			l19.3-19.3l17.8,17.8l-19.3,19.3L732.1,226z M755.6,202.5l18.8-18.8l17.8,17.8l-18.8,18.8L755.6,202.5z M773.3,228.8l18,18
			L772.1,266l-18-18L773.3,228.8z M777.6,224.5l18.8-18.8l18,18l-18.8,18.8L777.6,224.5z M860.8,219.7l-21,21l-16.9-16.9l21-21
			L860.8,219.7z M848.1,198.5l21.1-21.1l16.9,16.9L865,215.4L848.1,198.5z M818.6,219.5l-18-18l21-21l18,18L818.6,219.5z M818.6,228
			l16.9,16.9l-18.8,18.8l-16.9-16.9L818.6,228z M844,244.9l21-21l19.4,19.4l-21,21L844,244.9z M888.7,247.6l19.8,19.8l-21,21
			l-19.8-19.8L888.7,247.6z M892.9,243.3l21.1-21.1l19.8,19.8l-21.1,21.1L892.9,243.3z M888.7,239.1l-19.4-19.4l21.1-21.1l19.4,19.4
			L888.7,239.1z M894.6,194.3l18.1-18.1l19.4,19.4l-18.1,18.1L894.6,194.3z M847,155.1l18,18l-21.1,21.1l-18-18L847,155.1z
			 M799.6,158.5l17.8,17.8l-21,21l-17.8-17.8L799.6,158.5z M754.3,163.8l15.8,15.8l-18.8,18.8l-15.8-15.8L754.3,163.8z M711.3,166.8
			l15.8,15.8l-19.3,19.3L692.1,186L711.3,166.8z M667.8,170.3l15.8,15.8l-19.8,19.8L648.1,190L667.8,170.3z M623.8,174.3l15.8,15.8
			l-19.3,19.3l-15.8-15.8L623.8,174.3z M596.1,193.5l-15.8,15.8l-15.8-15.8l15.8-15.8L596.1,193.5z M560.3,157.8l15.8,15.8
			l-15.8,15.8l-15.8-15.8L560.3,157.8z M523.8,161.3l12.3,12.3l-15.8,15.8L508.1,177L523.8,161.3z M488.3,165.8l11.3,11.3
			l-15.8,15.8l-11.3-11.3L488.3,165.8z M453.3,170.8l10.8,10.8l-15.8,15.8l-10.8-10.8L453.3,170.8z M417.9,174.8l11.2,11.8
			l-15.8,15.8l-11.2-11.8L417.9,174.8z M384.2,178.4l11.8,11.8l-13.4,13.4l-11.8-11.8L384.2,178.4z M352.8,181.3l10.8,10.8
			l-14.8,14.8L338.1,196L352.8,181.3z M332,194.5l-12.8,12.3L308,195.7l12.4-12.4L332,194.5z M295.4,183l12.4-12.4l9.7,10
			l-12.8,11.9L295.4,183z M293.6,213.5l12.3-12.3l9.3,9.3l-12.3,12.3L293.6,213.5z M307.1,227l12.3-12.3l10.8,10.8l-12.3,12.3
			L307.1,227z M314,271.6l-20.7-0.8l24.6-24.6l10.8,10.8L314,271.6z M342.9,272.7l-20.7-0.8l10.7-10.7l10.8,10.8L342.9,272.7z
			 M362.8,282.8l-3.4-3.4l6.6,0.3L362.8,282.8z M371.8,273.8l-18.6-0.7l-1.1-1.1l11.3-11.3l10.8,10.8L371.8,273.8z M393.8,282.8
			l-2.2-2.2l4.2,0.2L393.8,282.8z M401.7,275l-16.3-0.6l-2.8-2.8l11.3-11.3l11.3,11.3L401.7,275z M425.8,283.8l-2-2l3.8,0.1
			L425.8,283.8z M433.4,276.2l-15.8-0.6l-4-4l14.8-14.8l12.3,12.3L433.4,276.2z M441.6,276.5l3.2-3.2l3.5,3.5L441.6,276.5z
			 M464.8,284.8l-1.5-1.5l2.8,0.1L464.8,284.8z M472,277.6l-14.9-0.6l-8-8l11.3-11.3l15.8,15.8L472,277.6z M480.2,277.9l0.2-0.2
			l0.2,0.2L480.2,277.9z M510.5,279.1l-21.2-0.8l-4.8-4.8l15.8-15.8l15.8,15.8L510.5,279.1z M518.7,279.4l1.6-1.6l1.8,1.8
			L518.7,279.4z M549.1,280.5l-18.1-0.7l-6.3-6.3l15.8-15.8l15.8,15.8L549.1,280.5z M557.2,280.9l3.1-3.1l3.3,3.3L557.2,280.9z
			 M587.6,282l-15.1-0.6l-7.9-7.9l15.8-15.8l15.8,15.8L587.6,282z M600.3,277.8l4.9,4.9l-9.5-0.4L600.3,277.8z M614.1,283l-9.5-9.5
			l15.8-15.8l15.8,15.8l-10,10L614.1,283z M634.3,283.8l6-6l6.5,6.5L634.3,283.8z M655.6,284.6l-11.1-11.1l15.8-15.8l15.8,15.8
			l-11.4,11.4L655.6,284.6z M680.3,277.8l8.1,8.1l-15.6-0.6L680.3,277.8z M697.2,286.2l-12.7-12.7l19.3-19.3l17.8,17.8l-14.5,14.5
			L697.2,286.2z M725.8,276.3l11.4,11.4l-22-0.8L725.8,276.3z M730.1,272l19.8-19.8l18,18L750,288.2l-3.9-0.1L730.1,272z
			 M772.1,274.5l15.1,15.1l-29-1.1L772.1,274.5z M776.3,270.3l19.3-19.3l16.9,16.9l-19.3,19.3L776.3,270.3z M798.9,290l17.8-17.8
			l19.3,19.3L798.9,290z M844.8,291.8l-0.2-0.2l18.8-18.8l19.8,19.8l-0.5,0.5L844.8,291.8z M892.6,293.6l-0.9-0.9l21-21l18.2,18.2
			l-5,5L892.6,293.6z M936.3,295.2l-2.2-0.1l1.1-1.1L936.3,295.2z M956.3,264.5l-21.1,21.1L917,267.4l21.1-21.1L956.3,264.5z
			 M956.2,219.7l-18.1,18.1L918.3,218l18.1-18.1L956.2,219.7z M936.4,191.4L917,172l20.9-20.9l19.4,19.4L936.4,191.4z"/>
		<polygon style="fill:#DFE5EA;" points="2,161.2 0,163.2 0,171.6 10.1,161.6 		"/>
		<path style="fill:#DFE5EA;" d="M289.6,175.5l-1.5,0.1l-0.5,0l-6.7,6.7l-7.4-7.4l-15.4-0.8l-4.2,4.2l-4.6-4.6l-8.9-0.5l9.3,9.3
			l-10.1,10.9L223.3,178l6.7-5.3l-8.1-0.4l-0.5,0.5l-0.6-0.6l-8.9-0.5l5.3,5.3l-10.8,10.8l-11.3-11.3l5.3-5.3l-8.1-0.4l-1.5,1.5
			l-1.7-1.7l-8.9-0.5l6.4,6.4l-10.8,10.8l-15.8-15.8l2.3-2.3l-13.7-0.7l3,3l-10.8,10.8L126,167.4l-9.8-0.5l-10.4,10.4l-11.5-11.5
			L78.2,165l-7.8,7.8l-8.6-8.6l-8.9-0.5L66.1,177l-12.3,12.3l-15.8-15.8l10-10l-8.1-0.4l-6.2,6.2l-6.9-6.9l-8.9-0.5l11.5,11.5
			l-15.8,15.8L0,175.4v8.5l9.6,9.6L0,203.2v8.5l13.9-13.9l15.8,15.8l-15.8,15.8L0,215.4v8.5l9.6,9.6L0,243.2v8.5l13.9-13.9
			l15.8,15.8l-15.8,15.8L0,255.4v8.5l9.6,9.6L8,275.1l12,0.3l-1.9-1.9l15.8-15.8l15.8,15.8l-2.5,2.5l13.8,0.3l-2.8-2.8l15.8-15.8
			l15.8,15.8l-3.4,3.4l15.6,0.4l-3.7-3.7l15.8-15.8l11.3,11.3l-8,8l-9,0.3l100.1,2.3l-0.1-0.1l6.6-0.3l-0.5,0.5l8.3,0.2l1-1l5.3-0.2
			l1.4,1.4l8.7,0.2l-1.9-1.9l20.7-0.8l3.2,3.2l8.7,0.2l-3.7-3.7l20.1-0.8v-9.2L260.6,242l10.8-10.8l14.7,14.7v-8.5L275.6,227
			l9.3-9.3l1.2,1.2v-2.4l3.5-3.5v-8.5l-5,6.5l-12.4-12.5l11.3-10.5l4.1,5.4l-1.5-5.9l-1-1l4.5-4.5V175.5z M253.9,185.7l12.4,12.4
			l-11.1,11.1l-12.4-12.4L253.9,185.7z M238.8,199.6l13.1,13.3l-13.2,12.7l-13.2-13.4L238.8,199.6z M145.9,225.8l11.3,11.3
			l-11.3,11.3L134.6,237L145.9,225.8z M130.4,232.8L114.6,217l11.3-11.3l15.8,15.8L130.4,232.8z M150.1,221.5l10.8-10.8l11.3,11.3
			l-10.8,10.8L150.1,221.5z M176.4,226.3l14.8,14.8l-10.8,10.8L165.6,237L176.4,226.3z M180.6,222l10.8-10.8l14.8,14.8l-10.8,10.8
			L180.6,222z M210.4,230.3l11.3,11.3l-10.8,10.8L199.6,241L210.4,230.3z M212.2,227.9l10.9-10.8l12.4,12.4l-10.9,10.8L212.2,227.9z
			 M240.9,230.8l11.3,11.3l-10.8,10.8l-11.3-11.3L240.9,230.8z M221.4,181.3l14.8,14.8l-10.8,10.8L210.6,192L221.4,181.3z
			 M221.1,211l-10.8,10.8L195.6,207l10.8-10.8L221.1,211z M190.9,180.8l11.3,11.3l-10.8,10.8l-11.3-11.3L190.9,180.8z M187.1,207
			l-10.8,10.8l-11.3-11.3l10.8-10.8L187.1,207z M155.9,175.8l15.8,15.8l-10.8,10.8l-15.8-15.8L155.9,175.8z M140.9,190.8l15.8,15.8
			l-10.8,10.8l-15.8-15.8L140.9,190.8z M120.9,170.8l15.8,15.8l-10.8,10.8l-15.8-15.8L120.9,170.8z M121.6,201.5l-11.3,11.3
			L94.6,197l11.3-11.3L121.6,201.5z M106.1,217l-12.3,12.3l-15.8-15.8l12.3-12.3L106.1,217z M85.9,165.8l15.8,15.8l-11.3,11.3
			L74.6,177L85.9,165.8z M70.4,181.3L86.1,197l-12.3,12.3l-15.8-15.8L70.4,181.3z M69.6,213.5l-15.8,15.8l-15.8-15.8l15.8-15.8
			L69.6,213.5z M18.1,193.5l15.8-15.8l15.8,15.8l-15.8,15.8L18.1,193.5z M18.1,233.5l15.8-15.8l15.8,15.8l-15.8,15.8L18.1,233.5z
			 M53.9,269.3l-15.8-15.8l15.8-15.8l15.8,15.8L53.9,269.3z M58.1,233.5l15.8-15.8l15.8,15.8l-15.8,15.8L58.1,233.5z M93.9,269.3
			l-15.8-15.8l15.8-15.8l15.8,15.8L93.9,269.3z M98.1,233.5l12.3-12.3l15.8,15.8l-12.3,12.3L98.1,233.5z M118.1,253.5l12.3-12.3
			l11.3,11.3l-12.3,12.3L118.1,253.5z M125.9,276.7l3.5-3.5l3.2,3.2L125.9,276.7z M156.6,275.6l-15.8,0.6l-7.1-7.1l12.3-12.3
			l14.8,14.8L156.6,275.6z M150.1,252.5l11.3-11.3l14.8,14.8l-11.3,11.3L150.1,252.5z M188.8,274.3l-16.3,0.6l-3.4-3.4l11.3-11.3
			l11.3,11.3L188.8,274.3z M184.6,256l10.8-10.8l11.3,11.3l-10.8,10.8L184.6,256z M221,273.1l-18.6,0.7l-2.3-2.3l10.8-10.8
			l11.3,11.3L221,273.1z M226.4,267.8l-11.3-11.3l10.8-10.8l11.3,11.3L226.4,267.8z M231.3,272.7l-0.7-0.7l10.8-10.8l10.7,10.7
			L231.3,272.7z M281,270.8l-20.7,0.8L245.6,257l10.8-10.8L281,270.8z M256.4,237.8l-11.3-11.3l9.9-10.6l11.3,11.3L256.4,237.8z
			 M281.7,213.4l-11.9,11.4l-11.3-11.3l11.9-11.4L281.7,213.4z M269,195l-11.4-12.1l9-9.5l12.4,12.4L269,195z"/>
	</g>
	<g>
		<g>
			<g>
				<rect x="216.6" y="175.6" style="fill:#B7BFC8;" width="5" height="78.5"/>
			</g>
			<g>
				<rect x="140.1" y="168.2" style="fill:#B7BFC8;" width="6" height="86.7"/>
			</g>
			<g>
				<rect x="62.6" y="164.5" style="fill:#B7BFC8;" width="7" height="91.7"/>
			</g>
		</g>
		<g>
			<g>
				<rect x="287.6" y="175.6" style="fill:#B7BFC8;" width="7" height="78.5"/>
			</g>
			<g>
				<rect x="869.5" y="137.6" style="fill:#B7BFC8;" width="9" height="147.6"/>
			</g>
			<g>
				<rect x="737.1" y="148.1" style="fill:#B7BFC8;" width="8" height="126.6"/>
			</g>
			<g>
				<rect x="617.5" y="153.9" style="fill:#B7BFC8;" width="7" height="112"/>
			</g>
			<g>
				<rect x="511" y="160.9" style="fill:#B7BFC8;" width="7" height="99.6"/>
			</g>
			<g>
				<rect x="427.5" y="166.5" style="fill:#B7BFC8;" width="6" height="89.1"/>
			</g>
			<g>
				<rect x="353" y="171.4" style="fill:#B7BFC8;" width="5" height="83.1"/>
			</g>
		</g>
		<g>
			<rect x="284.6" y="175.6" style="fill:#EDEDED;" width="7" height="78.5"/>
		</g>
		<g>
			<rect x="866.5" y="137.6" style="fill:#EDEDED;" width="9" height="147.6"/>
		</g>
		<g>
			<rect x="734.1" y="148.1" style="fill:#EDEDED;" width="8" height="126.6"/>
		</g>
		<g>
			<rect x="614.5" y="153.9" style="fill:#EDEDED;" width="7" height="112"/>
		</g>
		<g>
			<rect x="508" y="160.9" style="fill:#EDEDED;" width="7" height="99.6"/>
		</g>
		<g>
			<rect x="424.5" y="166.5" style="fill:#EDEDED;" width="6" height="89.1"/>
		</g>
		<g>
			<rect x="350" y="171.4" style="fill:#EDEDED;" width="5" height="83.1"/>
		</g>
		<g>
			<rect x="219.6" y="175.6" style="fill:#EDEDED;" width="5" height="78.5"/>
		</g>
		<g>
			<rect x="143.1" y="168.2" style="fill:#EDEDED;" width="6" height="86.7"/>
		</g>
		<g>
			<rect x="65.6" y="164.5" style="fill:#EDEDED;" width="7" height="91.7"/>
		</g>
	</g>
	<polygon style="fill:#B7BFC8;" points="0,214.1 284.6,219.1 291.6,219.1 960,214.1 960,204.1 291.6,214.1 284.6,214.1 0,206.1 	"/>
	<polygon style="fill:#EDEDED;" points="0,212.1 284.6,217.1 291.6,217.1 960,212.1 960,202.1 291.6,212.1 284.6,212.1 0,204.1 	"/>
	<polygon style="fill:#C2C2C4;" points="0,156 0,166.1 288.1,180.6 960,136.5 960,124.5 288.1,171.6 	"/>
	<polygon style="fill:#A7A7AA;" points="0,162.1 0,166.1 288.1,180.6 960,136.5 960,132.5 288.1,178.6 	"/>
</g>
<g>
	<g>
		<path style="fill:#75D66B;" d="M155.7,197c-2.8,4.8-24,20.5-21.4,6.1c-3.8,2.4-8,4.7-12.6,5.2c-3.6,0.4-11.2-0.5-6-5.7
			c-1.5,4-12.3,6.8-15.9,3.6c-3.8-3.4-2.2-13,4.4-11.9c-5.3,0.2-7.8-5.6-8.5-10.1c-1.1-7,2.3-8.3,8.6-11.4
			c-6.3-5.8-3.8-13.1,3.8-15.8c-4.7-3.7,0.9-11.4,6-7.4c-2.4-6.1,5.4-6.7,9.5-6.7c0.7-4.6,0.5-28.2,10.6-23.3
			c-0.4-13.1,11.9-11.3,16.8-2.2c0.7-5.5,5.9-14.7,12.6-13.8c7.8,1.1,8.4,10.4,8.8,16.6c13.8-3.4,10.1,7,10.7,18
			c15.1-5.4,18.2,8.8,12,20c10-3.2,14.1,7.9,11.3,16c4.6,0.3,9.5,0.9,12.6,4.8c2.3,2.9,4.5,9.3-0.6,10.2c8.6,10.4-20,9.7-24.5,7.8
			c2.2,5.3-2.8,7.7-7.4,8.6c-5.8,1.1-9.1-1.2-13.6-4.3c5.4,10.3-12,7.7-15.9,4.4L155.7,197z"/>
		<path style="fill:#6DC663;" d="M151.7,197c-3,1-5.8,2.9-9.2,2.6c-0.6-2.7,0.4-4.9,3-5.8c-0.9,1.1-1.9,1.2-3,1.8
			c-2.9-3.6-5.5,0.6-9.5-0.6c-5.3-1.5-4.2-6,1.3-4.5c-2.4,1.5-14.8,2.5-16.5-1c-3.3-6.9,10-7.2,13.1-8c-2-4.5,1.8-6.7,6-6.7
			c-0.9-3.6-2.1-11.6,4-10.7c0.2-3.4-1.7-16.3,2.7-17.3c3.9-0.8,7.7,8.6,8,11.1c2.2-6.1,7.5-6,8.1,0.9c3.3-4.7,10.3-9.6,14-2.1
			c2.3,4.8-1.4,16.2-3.5,20.6c3.5-7.1,8.3-1.1,3.6,5.5c3,0.2,11.6-2.7,11,2c-0.3,2.6-7.9,5.4-9.8,5.3c6-1.4,1.3,3.9-2.7,4.8
			c-3.9,0.9-9.1-0.1-12.7-0.7L151.7,197z"/>
		<path style="fill:#A88752;" d="M146.3,256.3c4.9-12.9,4.7-28.7,4.7-42.7c0-7,0.6-14.7-0.7-21.3c-0.9-4.4-7-15.8-2.1-18.6
			c2.2,6.4,5.6,12.8,6.9,19.2c1.7-2.4-0.4-37.1,9.1-28.4c-6.2,13.9-3.4,30-1.2,44.5c1.2,8,1.8,15.9,2.6,24c0.4,3.9,0.9,7.9,1.3,12
			c0.3,2.4,1.5,10.6,1.3,9.3L146.3,256.3z"/>
	</g>
	<g>
		<path style="fill:#5DC169;" d="M116.2,147.7c10.7-2.3,1.4-25.3-9.7-16.8c3.1-3.4,7.7-8.2,3.1-12.1c-3.3-2.7-10.2-1.4-13.2,1.1
			c12.5-12.8-14.1-20.8-20-11.1c4.5-15-10.4-27-24.8-23.7c-11.9,2.8-11.4,14.3-11.2,24.3c-4.6-12.4-26.8-16.2-21.3,1.3
			c-6.1-5-10.2,0.3-9.3,6.6c-2.2-1.3-6.5-1.6-9.7-0.7v87.1c8.7,2.4,19.6-0.4,16.3-6.5c5,6.8,14.6,5.5,16.2-2.7
			c5.5,5.1,14.8,13.4,14-0.8c3.4,5.5,20.6,9.7,21.3,1c1.3,5.7,10.7,5.4,12.3,1.8c3.5,7.5,23.5,7.5,21.5-5.2c11,9.4,17.6-15.4,8.3-23
			c7.1,3.2,21,1.9,23.3-7.3C135.4,152.1,123.9,146.8,116.2,147.7z"/>
		<path style="fill:#54B55D;" d="M35.7,189c-3.3,1.3-14.3,3.5-11.4-2.6c-2.4,4.8-8.4,4.6-12.5,2.4c0.7-0.4,1.4-1.3,2.6-1.8
			c-4.2,6.6-10.7-9.5,1.5-6.8c-8.6,1.3-13.7-10.9-4.8-12.6c-5.8-6.5,1.6-12.8,8.6-8.8c-1.4-3-3.3-7.6-0.4-10.6
			c4.7-4.8,7.3,1.2,10.5,4c3.6-7.1,4.4-15.7,13.5-17.8c7.2-1.7,17.4,3.6,16.6,11.8c0.5-0.7,2-1.4,2.6-2c2.4,2.8,2,7.5,2,11.2
			c6.9-3,22.5-1.6,10.1,5.4c3.7,0.1,13.5-0.7,13.8,4.1c0.3,4-8.1,5.8-11.1,7.4c5.1-0.2,8.7,5.2,5.2,9.3c-3.8,4.4-15.3,2.7-20.5,2.6
			c4.5,2,3.9,5.4,0.5,7.5c-3.7,2.3-8.3,0.2-11.9,0c-1.6,3.3-5,1-7.4-0.8L35.7,189z"/>
		<path style="fill:#A88752;" d="M56.3,257.7c-0.4,0.6-5.8-34.2-6.7-52c-0.5-9.4-0.8-15.3,3.8-23.5c2.5-4.4,14-13.6,11.3-17.8
			c-8.1,4.8-11,13.1-17,19.2c-1.9-7.6-2-32.6-6.4-27.4c-4,0-1.8,21.6-1,28.4c-5.9-2.3-5.1-15.3-10.8-19c-3.5,1.4,2.2,14.4,4.3,20
			c6,16.3,6.3,31.6,5.5,48.7c-0.3,6.6-2.8,17.7-5,24L56.3,257.7z"/>
	</g>
	<path style="fill:#79CC56;" d="M291.7,245.7c-0.1-0.1-3-1.1-3.4-1.3c-0.5-0.4-0.2-3.6-1.1-4.1c-2.3-1.1-4.6-0.8-6.7,1.2
		c-2.8-6.5-5-10.9-12.8-11.1c-5.4-0.1-9,4.3-12.5,2.5c-5-2.6-1.6-8.3-9.5-5c-4.3,1.8-8.3,7.2-8.1,11.8c-5.6-0.3-9-10.4-13.8-2
		c-3.9-1.3-6.2-9.6-10.2-2.2c-6.8-9.8-17.5-7.3-22,2.8c-6.4-2-13.1-4-15.8,5.2c-2.7-2-6.5-1.3-8.6,1.4c0-0.7-0.3-1.6-0.2-2.4
		c-2.1,0.8-3.5,0.7-5.2,2.4c-1.4-4.3-6.4-4.9-9.3-1.4c-2.2-4.2-9-5.8-10.8-0.5c-2.8-3.7-6.5-7.5-11.2-3.5
		c-4.7-6.7-16.3-3.4-10.9,2.2c-3.4-4.6-10.4-0.1-11.1,4.5c-3.6-2.7-9.1-6.4-11.4,0c-0.2-6-7.1-6.5-9.8-1.9
		c-0.1-3.8-6.1-12.1-8.8-6.2c-2.9-5.1-6.1-9.6-12.7-9.8c-5.9-0.1-13.4,4.7-12.7,11.1c-6.3-6.8-14.1,1.7-14.2,8.2
		c-0.7-4.1-8.6-6.3-8.5-0.2c-1-1.9-2.7-3-4-4.5c-0.9,1-2.5,1.8-2.6,2.2c-0.7-5.1-8.3-9.5-10.5-3c-1.6-4.7-8-8.3-13.2-7.9v32.5
		l294.3-10.4c1.2-1.9,1.9-4.4,1.3-6.7C294.6,245.2,293.9,247.9,291.7,245.7z"/>
</g>
<g>
	<path style="fill:#4EAF5D;" d="M0,257.8V540h960V286.6C561.3,241.9,78,255.5,0,257.8z"/>
	<g>
		<path style="fill:#D6BC83;" d="M960,303v-27.4c-230.5-12.5-467.8-21.6-657.4-22.4l365.7,20.6L960,303z"/>
		<path style="fill:#65B76B;" d="M960,325.5v-24.1c-100.9-9.2-297-35.4-504.3-42.3c-39.1-1.3-112.4-4.4-148.5-4.7
			C420.1,263.9,695.6,286.3,960,325.5z"/>
		<path style="fill:#65B76B;" d="M61.6,256.2C172,269.9,521.9,315.6,733.4,372L915.1,360c0,0-434.2-85.7-743.8-105.5
			C128,254.9,90.9,255.6,61.6,256.2z"/>
		<path style="fill:#65B76B;" d="M0,328.7c194.3,69.5,309.4,106.6,309.4,106.6l242.7-31.1C435.4,354.7,116.5,292.7,0,271V328.7z"/>
	</g>
	<polygon style="fill:#D6BC83;" points="0,433.9 0,540 960,540 960,354.4 	"/>
	<polygon style="fill:#9FD354;" points="960,465.5 421.6,540 960,540 	"/>
	<polygon style="fill:#95C148;" points="502.3,540 960,474.1 960,457 336,540 	"/>
	<polygon style="fill:#C0A976;" points="0,442.3 960,358.3 960,349.3 0,426.3 	"/>
	<g>
		<polygon style="fill:#EFEFEF;" points="478.4,540 960,471.1 960,454 333,540 		"/>
		<polygon style="fill:#E3E0DB;" points="0,437.3 960,355.3 960,346.3 0,423.3 		"/>
		<polygon style="fill:#D4D6D5;" points="478.4,540 960,471.1 960,467.1 445.4,540 		"/>
		<polygon style="fill:#CCC9C4;" points="0,437.3 960,355.3 960,352.3 0,434.3 		"/>
	</g>
	<path style="fill:#CCC9C4;" d="M406.9,255.5c-38.9-0.7-68.4-2.2-104.2-2.3c0,0,259.1,14.2,345.4,20.8c78.1,6,312,29,312,29v-6
		c0,0-224.5-21.6-297.5-27C597.2,265.1,406.9,255.5,406.9,255.5z"/>
	<g>
		<ellipse style="fill:#E5CE9E;" cx="262" cy="450.6" rx="9" ry="3.4"/>
		<ellipse style="fill:#C0A976;" cx="295.9" cy="444.8" rx="11.3" ry="2.5"/>
		<ellipse style="fill:#C0A976;" cx="456.7" cy="464.6" rx="11.3" ry="2.6"/>
		<ellipse style="fill:#C0A976;" cx="418.2" cy="469.6" rx="6.2" ry="2.4"/>
		<ellipse style="fill:#C0A976;" cx="424.4" cy="431.6" rx="6.1" ry="3.6"/>
		<ellipse style="fill:#C0A976;" cx="74" cy="455.5" rx="5" ry="1.5"/>
		<ellipse style="fill:#C0A976;" cx="33.7" cy="485" rx="5.3" ry="1"/>
		<ellipse style="fill:#C0A976;" cx="55" cy="480.5" rx="7.6" ry="3.5"/>
		<ellipse style="fill:#E5CE9E;" cx="192.9" cy="501" rx="8.1" ry="2.5"/>
		<ellipse style="fill:#C0A976;" cx="188.9" cy="478.8" rx="4" ry="1.8"/>
		<ellipse style="fill:#C0A976;" cx="339" cy="506.8" rx="11" ry="3.2"/>
		<ellipse style="fill:#E5CE9E;" cx="707.5" cy="431.6" rx="11.5" ry="3.6"/>
		<ellipse style="fill:#C0A976;" cx="653.2" cy="429.8" rx="6.8" ry="1.8"/>
		<ellipse style="fill:#C0A976;" cx="682.9" cy="452.3" rx="7.9" ry="1.7"/>
		<ellipse style="fill:#C0A976;" cx="568.7" cy="418" rx="5.6" ry="2"/>
		<ellipse style="fill:#C0A976;" cx="708.4" cy="452.3" rx="5.6" ry="1.7"/>
		<ellipse style="fill:#C0A976;" cx="551.7" cy="494" rx="4.7" ry="3"/>
		<ellipse style="fill:#C0A976;" cx="769.3" cy="393.8" rx="4.3" ry="2"/>
		<ellipse style="fill:#E5CE9E;" cx="838.3" cy="377.7" rx="3.3" ry="2.1"/>
		<ellipse style="fill:#C0A976;" cx="686.8" cy="393.3" rx="3.9" ry="1.5"/>
		<ellipse style="fill:#C0A976;" cx="813" cy="453.8" rx="6" ry="3.2"/>
		<ellipse style="fill:#C0A976;" cx="843.3" cy="439.8" rx="5" ry="2.5"/>
		<ellipse style="fill:#C0A976;" cx="750.1" cy="469.6" rx="5" ry="2.7"/>
		<ellipse style="fill:#C0A976;" cx="923.7" cy="400" rx="8.6" ry="3"/>
		<ellipse style="fill:#C0A976;" cx="946.7" cy="418" rx="5" ry="2"/>
		<ellipse style="fill:#C0A976;" cx="816.8" cy="403" rx="3.8" ry="1.7"/>
		<ellipse style="fill:#C0A976;" cx="935.3" cy="370" rx="3" ry="2"/>
		<ellipse style="fill:#C0A976;" cx="888" cy="393.3" rx="3" ry="1.5"/>
		<ellipse style="fill:#E5CE9E;" cx="901.7" cy="442.3" rx="7.3" ry="2.5"/>
		<ellipse style="fill:#E5CE9E;" cx="513.2" cy="413.1" rx="8.4" ry="2.9"/>
		<ellipse style="fill:#C0A976;" cx="608.5" cy="473.3" rx="9.5" ry="3.7"/>
		<ellipse style="fill:#C0A976;" cx="146.9" cy="442.3" rx="6.8" ry="2.5"/>
		<ellipse style="fill:#C0A976;" cx="106.4" cy="524.7" rx="10.9" ry="3.7"/>
	</g>
</g>
<g>
	<path style="fill:#40964A;" d="M384,270.7c-3,1.2-3,2.8-0.7,4c2.3,1.2,5.5,0.6,8,0.4c5.9-0.6,12.1-1.4,18-1.7
		c11.2-0.5,22.4-1.4,33.6-0.3c14.6,1.4,29.5,2.7,44.1,4c5.7,0.5,11.3,1.4,17,1.6c5.6,0.3,11.2-1.1,16.7,0c1.2,0.2,2.3,0.5,3.2,1
		c-3.8,1.8-13.8,0.7-16.2,4.4c-3.7,5.9,10.6,4.4,13.3,4.3c11.7-0.6,22.9-2.9,34.3-3.9c2.8-0.2,15-2.1,8.3-6.4
		c-1.8-1.2-5.2-0.8-7.3-1c-2.9-0.3-5.8-0.7-8.7-1c-14.1-1.4-28-3-42.2-3.7c-17.1-0.8-34-3.2-51.1-4c-12.4-0.6-25.1-1.5-37.4-0.9
		c-9.3,0.4-18.2,2-27.3,2.6L384,270.7z"/>
	<g>
		<path style="fill:#FFFFFF;" d="M562.8,270.7c-2.3-2.1-4.4-4.3-6.6-6.6c1.5-1.3,3-2.4,4.6-3.2c0.5-0.2,0.7-0.8,0.4-1.3
			c-0.2-0.5-0.8-0.7-1.3-0.4c-1.8,0.9-3.4,2.1-5,3.5c-0.8-0.9-1.5-1.7-2.3-2.6c-1.7-1.9-3.4-3.8-5.2-5.7c2.2-2.9,4.3-5.8,6.4-8.7
			c0.5,0.7,0.8,1.3,0.9,1.8c0.1,0.5,0.5,0.8,1,0.8c0.1,0,0.1,0,0.2,0c0.5-0.1,0.9-0.6,0.8-1.1c-0.1-0.9-0.7-1.9-1.6-3.1
			c0.5-0.7,1-1.3,1.5-2l0.6-0.8c0.3-0.4,0.2-1.1-0.2-1.4c-0.4-0.3-1.1-0.2-1.4,0.2l-0.6,0.8c-0.4,0.5-0.8,1.1-1.2,1.6
			c-2.4-2.6-5.9-5.7-10.1-9.2c-0.2-0.2-0.4-0.3-0.6-0.5c2.3-3.4,4.4-6.9,6-10.4c1.6,1.5,2.9,2.9,3,3.6c0,0.5,0.5,0.9,1,0.9
			c0,0,0.1,0,0.1,0c0.6,0,1-0.5,0.9-1.1c-0.1-1.4-1.6-3.1-4.1-5.4c0,0,0-0.1,0.1-0.1c0.2-0.5,0-1.1-0.6-1.3
			c-0.3-0.1-0.7-0.1-0.9,0.1c-1.1-1-2.4-2.1-3.8-3.2c-1.8-1.5-3.5-2.9-4.4-3.8c-0.1-0.1-0.2-0.2-0.3-0.3c2.7-3.3,5.5-6.5,8.4-9.1
			c0.4-0.4,0.4-1,0.1-1.4c-0.4-0.4-1-0.4-1.4-0.1c-3,2.7-5.8,5.8-8.4,9.1c-0.8-0.9-1.6-1.9-2.4-2.9c-1.8-2.2-3.7-4.5-5.7-6.5
			c0.8-0.7,1.6-1.2,2.1-1.4c0.5-0.1,0.9-0.7,0.7-1.2c-0.1-0.5-0.7-0.9-1.2-0.7c-0.9,0.2-1.9,0.9-3.1,1.9c-2.1-1.9-4.2-3.4-6.5-3.9
			c-0.5-0.1-1.1,0.2-1.2,0.7c-0.1,0.5,0.2,1.1,0.7,1.2c1.8,0.5,3.7,1.7,5.5,3.4c-2.3,2.3-4.8,5.6-7.2,8.9c-1.4-1.6-2.9-3.1-4.2-4.5
			l-3.1-3.4c-0.4-0.4-1-0.4-1.4-0.1c-0.4,0.4-0.4,1-0.1,1.4l3.1,3.4c1.4,1.5,2.9,3.2,4.5,4.8c-2.1,3-4,5.8-5.3,7.8
			c0-0.2,0-0.4-0.1-0.5c-1.5-3.3-4.2-7.4-7.4-11.3c1.6-3.8,3-7.6,3.5-11.4c0.1-0.5-0.3-1-0.9-1.1c-0.5-0.1-1,0.3-1.1,0.9
			c-0.4,3.2-1.6,6.6-3,10c-3.6-4.1-7.5-7.9-10.8-10c-0.5-0.3-1.1-0.2-1.4,0.3c-0.2,0.3-0.2,0.6-0.1,0.9c-1.5,3.4-2.9,6.9-4.3,10.4
			c-2.7-3.8-5.2-7.5-7.2-11.2c-0.3-0.5-0.9-0.7-1.4-0.4c-0.5,0.3-0.7,0.9-0.4,1.4c2.3,4.1,5.1,8.3,8.1,12.5
			c-1.4,3.6-2.8,7.2-4.1,10.9c-2.6-3.7-5.3-7.3-8-10.8c1.3-3.5,2.5-7,2.5-10.4c0-0.6-0.4-1-1-1c-0.5,0-1,0.4-1,1
			c-0.1,2.8-0.9,5.7-2,8.6c-3.1-3.7-6.3-7.1-9.7-10c-0.4-0.4-1.1-0.3-1.4,0.1c-0.4,0.4-0.3,1.1,0.1,1.4c3.6,3,6.9,6.7,10.2,10.6
			c-0.3,0.9-0.7,1.7-1,2.5c-0.8,2-1.6,3.9-2.2,5.7c-0.6,1.7-1.1,3.3-1.6,5c-1.7-2-3.5-4.2-5.4-6.6c-1.2-1.5-2.4-3-3.6-4.5
			c0.1-0.2,0.1-0.4,0.2-0.5c1.6-4.2,3.2-8.6,3.2-13.1c0-0.6-0.4-1-1-1c-0.6,0-1,0.4-1,1c0,4-1.5,8-2.9,11.9
			c-4.7-5.5-9.9-10.8-15.7-13.5c-0.5-0.2-1.1,0-1.3,0.5c-0.2,0.5,0,1.1,0.5,1.3c1.6,0.7,3.1,1.7,4.7,2.9c-0.1,0-0.1,0.1-0.2,0.1
			c-0.4,0.3-0.5,0.9-0.2,1.3c0,0.1-0.1,0.1-0.1,0.2c-0.3,0.7-0.7,1.5-0.9,2.3c-0.8,3-1.7,6.1-2.6,9.2c-2.7-2.9-5.6-5.6-8.5-8
			c0.5-1.9,0.9-3.7,1.2-5.4c0.1-0.5-0.3-1.1-0.8-1.2c-0.5-0.1-1.1,0.3-1.2,0.8c-0.2,1.3-0.5,2.8-0.9,4.3c-2.7-2.1-5.4-4.1-8.3-5.7
			c-0.5-0.3-1.1-0.1-1.4,0.4c-0.3,0.5-0.1,1.1,0.4,1.4c3,1.7,5.9,3.7,8.7,6.1c-0.7,2.6-1.5,5.5-2.4,8.4c-0.5,1.8-1.1,3.6-1.6,5.4
			c-1.8-1.8-3.7-3.4-5.8-4.4c-0.5-0.2-1.1,0-1.3,0.5c-0.2,0.5,0,1.1,0.5,1.3c2.1,1,4.1,2.8,6.1,4.8c-1.3,4.8-2.4,9.3-2.6,12.9
			c0,0.6,0.4,1,0.9,1.1c0,0,0,0,0.1,0c0.5,0,1-0.4,1-0.9c0.2-3.1,1.1-7,2.2-11.2c1.7,2,3.2,4.1,4.7,6.2c1.3,1.7,2.5,3.3,3.6,4.8
			c-0.2,0.9-0.4,1.8-0.6,2.6c-0.4,1.8-1.1,4.4-1.8,7.2c-0.1,0.2-0.1,0.5-0.2,0.7c-3.1-4.3-6.4-8.2-10-9.7c0-0.1,0-0.2,0-0.3
			c-0.6-2-2.3-4.5-4.3-7.1c1.2-1.6,2.3-3.3,3-4.8c0.2-0.5,0-1.1-0.5-1.3c-0.5-0.2-1.1,0-1.3,0.5c-0.6,1.3-1.4,2.7-2.4,4
			c-1-1.3-2.1-2.5-3.1-3.7c-0.8-0.9-1.5-1.8-2.1-2.6c-0.8-1-1.5-1.9-2.3-2.9c1.9-2,3.8-4,5.9-5.7c0.4,0.3,0.7,0.6,1.1,0.8
			c0.2,0.1,0.3,0.2,0.5,0.2c0.3,0,0.7-0.2,0.8-0.5c0.3-0.5,0.1-1.1-0.3-1.4c-0.2-0.1-0.4-0.3-0.6-0.4c0.2-0.2,0.5-0.4,0.7-0.6
			c0.4-0.3,0.5-1,0.2-1.4c-0.3-0.4-1-0.5-1.4-0.2c-0.3,0.3-0.6,0.5-0.9,0.8c-1.1-1.2-2.3-2.8-3.6-4.4c-0.3-0.5-0.7-0.9-1-1.4
			c1.5-1.6,3-3.2,4.3-4.9c0.3-0.4,0.2-1.1-0.2-1.4c-0.4-0.3-1.1-0.2-1.4,0.2c-1.2,1.6-2.5,3.1-4,4.6c-1.3-1.6-2.6-3-3.9-4.1
			c-0.4-0.3-1.1-0.3-1.4,0.2c-0.3,0.4-0.3,1.1,0.2,1.4c1.3,1,2.5,2.4,3.8,3.9c-1.1,1.1-2.2,2.1-3.3,3.1c-0.7,0.7-1.5,1.4-2.2,2.1
			c-2.4-3.2-4.9-6.4-7.6-9.3c-0.4-0.4-1-0.4-1.4-0.1c-0.4,0.4-0.4,1-0.1,1.4c2.7,3,5.2,6.2,7.6,9.4c-1,1-2,2.1-3,3.1
			c-1.4,1.6-2.8,3.3-4.1,4.9c-0.1,0.1-0.1,0.1-0.2,0.2c-1.1-1.6-2.3-3.2-3.4-4.8c-0.3-0.5-0.9-0.6-1.4-0.3c-0.5,0.3-0.6,0.9-0.3,1.4
			c1.2,1.8,2.5,3.6,3.8,5.3c-0.6,0.7-1.2,1.5-1.8,2.2c-0.2,0.2-0.5,0.6-0.9,1.1c-0.5,0.6-1.5,1.8-2.1,2.5c-0.4,0-0.8,0.2-0.9,0.5
			c-0.2,0.4-0.7,1.4,0.1,1.9c0.2,0.1,0.4,0.2,0.6,0.2c0.7,0,1.5-1,3.9-3.9c0.4-0.5,0.7-0.9,0.9-1.1c0.5-0.6,1-1.2,1.5-1.8
			c1.5,2.1,3.1,4.2,4.7,6.2c-1.4,1.7-2.7,3.5-4,5.2c-0.9,1.2-1.9,2.5-2.8,3.7c-1-1.1-1.9-2-2.6-2.7c-0.4-0.4-1-0.4-1.4,0
			c-0.4,0.4-0.4,1,0,1.4c0.7,0.8,1.7,1.8,2.8,2.9c-1.6,2-3.2,4-4.8,5.9c-0.2,0.2-0.3,0.6-0.2,0.9c0.1,0.2,0.2,1,0.9,1.2
			c0.1,0,0.2,0.1,0.3,0.1c0.5,0,0.8-0.3,1-0.5c0.1-0.1,0.2-0.2,0.2-0.2c0.5-0.1,0.9-0.7,0.8-1.2c0-0.2-0.1-0.3-0.2-0.4
			c1.1-1.4,2.3-2.8,3.4-4.3c1.9,2,4.1,4.3,6.4,6.7c-0.5,0.5-0.9,1-1.3,1.6c-1,1.2-2.1,2.6-3.3,4.1c-0.3,0.3-0.5,0.6-0.8,1
			c-0.5-0.6-0.9-1.2-1.4-1.8c-1.3-1.6-2.5-3.2-3.6-4.6c-0.3-0.4-1-0.5-1.4-0.1c-0.4,0.4-0.5,1-0.1,1.4c1.1,1.4,2.3,2.9,3.6,4.5
			c0.5,0.7,1.1,1.4,1.7,2.2c-3.5,4.3-6.9,8.7-8.1,11.6c-0.2,0.5,0,1.1,0.6,1.3c0.1,0,0.2,0.1,0.4,0.1c0.4,0,0.8-0.2,0.9-0.6
			c1-2.6,4.3-6.8,7.5-10.7c2,2.5,4.2,5.1,6.4,7.4c-2.1,2.3-3.6,4.1-4.6,5.5l2.7-0.3c0.9-1.2,2.1-2.5,3.4-3.9
			c1.2,1.2,2.5,2.2,3.9,3.1l3.2-0.3c-2-1.1-3.9-2.6-5.8-4.3c1.4-1.5,2.7-2.9,3.6-3.8c0.9-0.9,1.7-1.8,2.3-2.4
			c0.1-0.1,0.1-0.1,0.2-0.2c1.1,1.1,2.4,2.4,3.8,3.8c0.9,0.8,1.8,1.7,2.7,2.6c-1,1.3-1.9,2.6-2.8,3.9l2.6-0.3c0.5-0.7,1-1.5,1.6-2.2
			c0.6,0.6,1.2,1.3,1.7,1.9l2.4-0.2c-0.8-1-1.8-2.1-2.9-3.2c2-2.6,4.3-5,6.7-6.8c0.3,0.5,0.7,0.9,1,1.4c0,0-0.1,0.1-0.1,0.1
			c-0.3,0.5-0.2,1.1,0.3,1.4c0.2,0.1,0.4,0.3,0.6,0.5c0.3,0.3,0.7,0.7,1.2,1c0.1,0.1,0.3,0.1,0.5,0.1c0.3,0,0.5-0.1,0.7-0.3
			c0.3-0.3,0.4-0.8,0.2-1.2c-0.8-1.4-1.7-2.8-2.7-4.2c0.4-0.3,0.5-0.9,0.3-1.3c-0.3-0.5-0.9-0.6-1.4-0.3c0,0-0.1,0.1-0.1,0.1
			c-2-2.5-4.4-4.8-6.7-7.1c2.1-2.1,4.3-4.1,6.6-6c0.4-0.3,0.5-0.9,0.2-1.3c2.6,2.1,5.1,5.4,7.5,8.7c-2.2,8.3-3.6,14.7-2.6,17.5
			l1.8,0.1c0.1-0.3,0.2-0.6,0.1-0.9c-0.8-2.1,0.6-8.7,2.2-14.6c0.4,0.6,0.9,1.3,1.3,1.9c1.8,2.7,3.5,5.2,5,7
			c0.7,0.8,1.4,1.7,2.1,2.7c-0.5,1.6-1.1,3.1-1.7,4.1c-0.1,0.1-0.1,0.2-0.1,0.4l2.1,0.2c0.4-0.8,0.8-1.7,1.2-2.7
			c0,0.1,0.1,0.1,0.1,0.2c0.7,0.9,1.3,1.8,2,2.8l2.7,0.2c-1-1.3-2.1-2.8-3.1-4.1c-0.3-0.5-0.7-0.9-1-1.3c0.8-2.7,1.6-5.9,2.3-9
			c0.3-1.4,0.6-2.8,1-4.1c1.6,1.8,3.2,3.6,4.8,5.4c1.5,1.7,3.2,3.6,5,5.5c-0.7,2.8-1.4,5.5-2.2,8.1c0,0,0,0,0,0c0,0,0,0,0,0l2.1,0.2
			c0.7-2.1,1.3-4.3,1.8-6.6c2.2,2.3,4.5,4.8,6.5,7.2l4.7,0.4c0.9-4.1,1.8-8.3,2.9-12.6c2.4,3,4.8,6,7.2,8.9c0.7,0.9,1.6,1.9,2.4,2.8
			c-0.2,0.6-0.4,1.2-0.6,1.7l2.1,0.2c0-0.1,0.1-0.2,0.1-0.2c0.1,0.1,0.2,0.2,0.2,0.3l3,0.2c-0.2-0.2-0.4-0.4-0.5-0.6
			c-0.7-0.7-1.3-1.4-2-2.1c1.1-3.5,2.1-7.3,3.1-11.1c0.3-1.1,0.6-2.3,0.9-3.4c1.4,1.8,2.8,3.5,4.2,5.2c1.6,1.9,3.2,3.9,4.8,5.9
			c-0.1,0.4-0.3,0.8-0.5,1.2c-0.7,1.8-1.4,3.6-2,5.5l2.1,0.2c0.5-1.6,1.2-3.3,1.8-4.9c0,0,0-0.1,0-0.1c1.4,1.8,2.8,3.6,4.2,5.4
			l2.6,0.2c-1.9-2.6-4-5.3-6-7.8c0.5-1.5,1-2.9,1.4-4.3c0.7-2.5,1.5-4.9,2.3-7.4c2.2,3,4.5,6,7,8.6c0,0,0,0,0,0.1
			c-0.2,0.5,0,1.1,0.5,1.3c0.2,0.1,0.3,0.1,0.4,0.2c0.4,0.2,0.9,0.5,1.6,0.6c0.1,0,0.1,0,0.2,0c0.3,0,0.6-0.2,0.8-0.4
			c0.7,0.6,1.3,1.2,1.9,1.9c-1.4,2.6-2.9,5.1-4.4,7.4c-0.1,0.1-0.2,0.2-0.2,0.3l0.2,3.1c0.1-0.1,0.2-0.1,0.2-0.2c0,0,0-0.1,0.1-0.1
			c0.3-0.4,0.6-0.8,0.9-1.2l-0.2-0.9l0.8,0.1c1.5-2.2,2.8-4.5,4.1-6.9c1.3,1.5,2.5,3,3.7,4.6c0.8,1,1.6,2.1,2.5,3.1l2.8,0.2
			c-1.3-1.5-2.5-3-3.7-4.5c-1.4-1.7-2.8-3.5-4.3-5.2c1.6-2.9,3.3-5.9,5.1-8.7c1.7,1.8,3.4,3.5,5.1,5.2c0.9,0.9,1.8,1.8,2.6,2.7
			c0.8,0.8,1.8,1.9,2.8,3c-1.7,2.6-3.3,5.1-4.8,7.8l2.2,0.2c1.3-2.2,2.6-4.3,4-6.4c2.6,2.8,5,5.3,7.1,7c-0.5,0.7-0.9,1.4-1.4,2.2
			c-0.2,0.4-0.5,0.7-0.7,1.1l2.6-0.3c0.4-0.6,0.8-1.1,1.1-1.7c0.9,0.6,1.6,1.1,2.4,1.3l1.8-0.2c0.1-0.1,0.1-0.2,0.2-0.4
			c0.1-0.5-0.3-1.1-0.8-1.1c-0.6-0.1-1.4-0.6-2.4-1.2c2.5-3.8,5.1-7.4,8-10.3c1.3,1.4,2.6,2.8,4,4.1c-0.2,0.5,0,1,0.4,1.3
			c0.2,0.1,0.5,0.3,0.7,0.4c0.6,0.4,1.1,0.7,1.8,1c0.1,0.1,0.3,0.1,0.4,0.1c0.3,0,0.7-0.2,0.8-0.5
			C563.2,271.5,563.1,271,562.8,270.7z M411.6,223.3c0.6,0.8,1.4,1.7,2.2,2.6c1,1.2,2.2,2.6,3.3,4c-2.1,2.6-4.8,5.3-7.6,7.9
			c-2.4-2.9-4.8-5.8-7.1-8.7c2.3-2.9,4.6-5.8,7.1-8.5C410.2,221.5,410.9,222.4,411.6,223.3z M407.6,209.3c1-1,2.1-2,3.1-3
			c0.3,0.4,0.6,0.8,0.9,1.2c1.2,1.6,2.4,3.2,3.7,4.5c-2,1.7-3.8,3.6-5.7,5.5c-1-1.3-2-2.6-3-3.9c-0.5-0.6-1-1.3-1.5-1.9
			C406,210.8,406.8,210.1,407.6,209.3z M396.5,221.3c0.2-0.2,0.3-0.4,0.5-0.6c1.3-1.6,2.7-3.3,4.1-4.8c0.9-1,1.8-1.9,2.7-2.8
			c0.4,0.6,0.9,1.2,1.3,1.7c1,1.4,2.1,2.8,3.2,4.2c-2.5,2.7-4.8,5.6-7.1,8.5C399.5,225.4,398,223.4,396.5,221.3z M394.4,239.5
			c1-1.3,2-2.6,3-3.9c1.2-1.6,2.5-3.2,3.7-4.8c2.3,2.9,4.6,5.7,7,8.5c-0.1,0.1-0.2,0.2-0.4,0.3c-2.4,2.3-4.8,4.6-6.8,6.8
			C398.5,243.9,396.3,241.5,394.4,239.5z M407.7,257.3c-0.6,0.6-1.4,1.5-2.3,2.4c-1.3,1.4-2.5,2.7-3.6,3.8c-2.3-2.3-4.5-4.9-6.5-7.5
			c0.4-0.4,0.7-0.9,1.1-1.3c1.2-1.5,2.4-2.9,3.3-4.1c0.3-0.4,0.7-0.9,1.1-1.3c2.5,2.6,4.9,5.3,7.1,7.7
			C407.9,257.1,407.8,257.2,407.7,257.3z M409.4,255.5c-2.2-2.4-4.7-5.1-7.2-7.7c2-2.2,4.4-4.5,6.8-6.8c0.1-0.1,0.2-0.2,0.3-0.3
			c0.7,0.9,1.5,1.7,2.3,2.6c1.4,1.6,3,3.2,4.6,4.8c-1.8,1.9-3.6,3.8-5.3,5.7C410.4,254.4,409.9,255,409.4,255.5z M424,256.4
			c-2.5,1.9-4.8,4.3-6.9,7c-0.8-0.8-1.7-1.7-2.6-2.5c-1.4-1.4-2.8-2.7-3.9-3.8c0.6-0.6,1.1-1.2,1.7-1.8c1.8-1.9,3.5-3.8,5.2-5.7
			C419.9,251.7,422.1,254,424,256.4z M424.4,240.5c-2.4,1.9-4.6,4-6.8,6.1c-1.6-1.6-3.1-3.1-4.5-4.7c-0.8-0.9-1.5-1.8-2.3-2.7
			c2.7-2.6,5.3-5.2,7.5-7.8c1.8,2.3,3.2,4.5,3.7,6.1c0,0,0,0,0,0c0,0,0,0,0,0c-0.2,0.5,0.1,1.1,0.6,1.3c0.9,0.3,1.8,0.8,2.7,1.5
			C425,240.3,424.7,240.3,424.4,240.5z M552.5,244.1c-2.2,2.9-4.3,5.8-6.5,8.8c-0.8-0.8-1.6-1.6-2.4-2.3c-1.7-1.6-3.4-3.1-5.1-4.6
			c-1-0.9-2-1.8-3-2.8c2.2-2.9,4.4-5.8,6.5-8.7c0.1,0.1,0.3,0.2,0.4,0.4C545.6,237.6,549.9,241.3,552.5,244.1z M533.9,241.9
			c-1.8-1.7-3.6-3.4-5.3-5.3c-0.9-1-1.9-2.2-3-3.5c0-0.1-0.1-0.1-0.1-0.2l0.1-0.1c1.8-2.8,3.7-5.7,5.6-8.7c1.9,2,3.9,4,5.7,5.9
			c0.8,0.9,2.1,1.9,3.6,3.2C538.3,236.1,536.2,239,533.9,241.9z M538.7,213.5C538.7,213.5,538.7,213.5,538.7,213.5
			c1.1,1.1,2.7,2.5,4.6,4.1c1.2,1,2.7,2.3,4.2,3.5c-1.6,3.5-3.6,7.1-6,10.5c-1.4-1.2-2.5-2.2-3.3-2.9c-1.9-1.9-4-4-6-6.1
			C534.3,219.4,536.4,216.4,538.7,213.5z M529,202.4c2,2,3.9,4.3,5.6,6.4c0.9,1.1,1.8,2.2,2.7,3.2c-2.3,2.9-4.4,6-6.5,9
			c-3-3.2-6.1-6.5-9-9.6C524.3,208,526.9,204.6,529,202.4z M520.6,213.1c2.9,3.2,6,6.4,9.1,9.6c-1.9,2.9-3.8,5.8-5.6,8.7
			c-3.1-3.6-6.7-7.5-9.6-9.1C515.9,219.9,518.1,216.5,520.6,213.1z M494.3,198.3c3.1,2.3,6.7,5.8,9.9,9.5c-0.2,0.5-0.4,1-0.6,1.5
			c-1.1,2.5-2.1,5-3,7.4c-0.5,1.5-1,3-1.6,4.5c-0.2-0.3-0.5-0.6-0.7-0.9c-2.9-3.7-5.8-7.4-8.5-11.1
			C491.3,205.6,492.8,202,494.3,198.3z M488.9,211.5c2.5,3.4,5.2,6.8,7.8,10.2c0.5,0.6,1,1.3,1.5,1.9c-0.6,1.8-1.3,3.6-1.9,5.4
			c-0.7,2-1.4,4.1-2.2,6.1c-3.1-3.8-6.1-8-9.2-12.5c0,0,0,0,0-0.1C486.2,218.8,487.5,215.2,488.9,211.5z M471.8,219
			c0.6-1.8,1.4-3.6,2.2-5.6c0.2-0.5,0.4-1,0.6-1.5c2.8,3.5,5.4,7.3,8.1,11c-1.5,4.3-2.9,8.6-4.3,13c-2.7-3.6-5.5-7.2-8.5-10.6
			C470.5,223.1,471.1,221,471.8,219z M458.5,214.5c1,1.2,1.9,2.4,2.9,3.5c2,2.4,3.8,4.7,5.6,6.8c0.2,0.3,0.5,0.6,0.7,0.8
			c-0.8,2.9-1.6,5.9-2.4,8.7c-0.6,2.2-1.2,4.4-1.8,6.6c-0.9-1.2-1.9-2.4-2.9-3.7c-2-2.6-4.1-5.3-6.2-7.9c0.6-2.3,1.2-4.5,1.8-6.7
			l1.2-4.4C457.6,217,458,215.8,458.5,214.5z M443.8,215.6c0.9-3.1,1.8-6.3,2.6-9.4c0.2-0.7,0.5-1.5,0.8-2.1c0.2-0.4,0.3-0.7,0.4-1
			c3.3,2.7,6.4,6.1,9.3,9.6c-0.6,1.7-1.2,3.3-1.6,5l-1.2,4.4c-0.5,1.8-0.9,3.5-1.4,5.3c-3-3.7-6.1-7.3-9.3-10.8
			C443.6,216.3,443.7,215.9,443.8,215.6z M434.5,230.5c-1.8-2.4-3.7-5-5.7-7.3c0.6-2.2,1.2-4.4,1.9-6.6c0.8-2.6,1.5-5.2,2.2-7.6
			c2.9,2.5,5.7,5.2,8.4,8.1c-1.4,5.1-2.8,10.7-4.2,16.8C436.3,232.9,435.4,231.7,434.5,230.5z M445.7,253.5
			c-0.6,2.5-1.2,5.1-1.8,7.5c-0.4-0.6-0.9-1.1-1.3-1.6c-1.5-1.7-3.1-4.2-4.9-6.8c-0.7-1.1-1.5-2.2-2.3-3.4c0.2-0.8,0.4-1.6,0.6-2.3
			c0.8-2.9,1.5-5.4,1.9-7.3c0.1-0.4,0.2-0.8,0.3-1.2c2.4,2.8,4.8,5.4,7.2,8c0.5,0.6,1.1,1.2,1.6,1.7
			C446.6,249.8,446.1,251.6,445.7,253.5z M447.9,244.9c-0.1,0.3-0.2,0.6-0.3,0.9c-0.2-0.3-0.5-0.5-0.7-0.8c-2.6-2.8-5.3-5.8-7.9-8.8
			c-0.1-0.1-0.1-0.2-0.2-0.2c1.4-6.2,2.7-11.8,4.2-17.1c3.2,3.5,6.3,7.2,9.2,10.9C450.8,234.8,449.4,239.9,447.9,244.9z
			 M459.7,255.7c-0.2,1-0.4,1.9-0.7,2.9c-1.5-1.6-2.8-3.1-4.1-4.5c-1.9-2.2-3.8-4.4-5.8-6.5c0.2-0.7,0.4-1.4,0.6-2.1
			c1.4-4.5,2.7-9.1,3.9-13.7c1.8,2.3,3.6,4.5,5.3,6.8c1.3,1.7,2.6,3.3,3.8,4.8c-0.1,0.3-0.2,0.6-0.3,0.9
			C461.4,248,460.5,251.9,459.7,255.7z M469.3,270c-2.6-3.3-5.7-6.6-8.6-9.7c0.3-1.4,0.7-2.8,1-4.2c0.8-3.6,1.7-7.3,2.7-10.8
			c0.6,0.7,1.2,1.5,1.7,2.2c2.2,2.7,4.4,5.5,6.6,8.2C471.4,260.5,470.3,265.3,469.3,270z M473.3,253.3c-1.9-2.4-3.8-4.7-5.7-7.1
			c-0.9-1.1-1.7-2.2-2.6-3.3c0.8-2.7,1.5-5.4,2.2-8c0.7-2.4,1.3-4.9,2-7.4c2.9,3.5,5.7,7.1,8.4,10.7
			C476.1,243.2,474.6,248.3,473.3,253.3z M487.3,257.3c-0.9,3.3-1.8,6.8-2.7,9.9c-0.6-0.6-1.1-1.2-1.6-1.8c-2.5-3.1-4.9-6.2-7.4-9.3
			c-0.2-0.3-0.4-0.6-0.7-0.8c1.3-5,2.7-10.1,4.3-15.1c0.5,0.6,1,1.3,1.4,1.9c1.8,2.4,3.6,4.8,5.5,7.2c0.8,1.1,1.7,2.2,2.5,3.2
			C488.1,254.1,487.7,255.7,487.3,257.3z M489.2,250.1c-0.5-0.7-1.1-1.4-1.6-2.1c-1.8-2.4-3.6-4.8-5.4-7.2c-0.8-1-1.5-2.1-2.3-3.1
			c1.3-4.3,2.8-8.6,4.2-12.9c3.2,4.4,6.2,8.7,9.3,12.5c-1.1,3.2-2.2,6.4-3.2,9.6C489.9,247.9,489.6,249,489.2,250.1z M500.9,260.4
			c-0.3,1-0.6,1.9-1,3c-1.3-1.7-2.7-3.3-4-5c-1.7-2.1-3.4-4.2-5.1-6.3c0.4-1.6,0.9-3.2,1.4-4.6c0.9-2.8,1.8-5.5,2.7-8.3
			c2.1,2.7,4.1,5.5,6.1,8.6c0.9,1.3,1.8,2.6,2.7,3.9C502.7,254.5,501.7,257.5,500.9,260.4z M504.9,248.1c-0.1,0.4-0.3,0.8-0.4,1.2
			c-0.6-0.9-1.2-1.8-1.8-2.7c-2.2-3.3-4.6-6.6-7-9.7c0.9-2.5,1.7-4.9,2.6-7.3c0.5-1.4,1-2.8,1.5-4.2c3,3.9,6,7.9,8.8,11.9
			C507.4,241,506.1,244.6,504.9,248.1z M518.5,264c-1.9-2-4-3.7-6.4-4.9c0,0-0.1,0-0.2,0c-2.1-2.4-4.1-5.1-6.1-7.8
			c0.3-0.8,0.6-1.7,0.9-2.5c0.9-2.7,1.9-5.4,2.8-8.1c0.1,0.1,0.1,0.2,0.2,0.2c0.2,0.1,0.4,0.3,0.6,0.4c0.5,0.3,0.9,0.7,1.5,0.9
			c0.1,0,0.2,0.1,0.4,0.1c0.3,0,0.6-0.1,0.8-0.4c0.3-0.3,0.3-0.8,0.1-1.2c-0.8-1.2-1.6-2.5-2.4-3.7c0.9-3.1,1.6-6.3,2-9.5
			c0.1-0.5-0.3-1-0.9-1.1c-0.5-0.1-1,0.3-1.1,0.9c-0.3,2.6-0.9,5.1-1.5,7.6c-2.7-3.9-5.7-7.8-8.7-11.6c0.7-1.9,1.3-3.9,2-5.8
			c0.8-2.4,1.8-4.7,2.9-7.3c0.1-0.2,0.2-0.4,0.2-0.6c2.2,2.7,4.1,5.5,5.4,8c-0.5,0-0.9,0.3-1,0.8c-0.1,0.5,0.3,1.1,0.8,1.2
			c0.3,0,0.5,0.1,0.8,0.2c0.3,0.1,0.7,0.3,1.2,0.3c0.1,0,0.1,0,0.2,0c0.2,0,0.4-0.1,0.5-0.2c-0.8,1.3-1.3,2.1-1.3,2.1
			c0,0,0,0.1,0,0.1c0,0,0,0,0,0.1c0,0,0,0.1,0,0.1c0,0.1,0,0.1,0,0.2c0,0.1,0,0.1,0,0.2c0,0.1,0,0.1,0,0.2c0,0.1,0,0.1,0.1,0.2
			c0,0.1,0.1,0.1,0.1,0.2c0,0.1,0.1,0.1,0.1,0.1c0,0,0,0.1,0.1,0.1c0,0,0.1,0,0.1,0.1c0,0,0,0,0,0c2.8,1.1,7,5.7,10.3,9.5
			c-1.7,2.7-3.4,5.4-5.1,8.1l-1.4,2.3c-0.4-0.7-0.9-1.3-1.3-2c-0.3-0.5-0.9-0.6-1.4-0.4c-0.5,0.3-0.6,0.9-0.4,1.4
			c0.6,1,1.2,1.9,1.8,2.9c-0.4,0.7-0.9,1.6-1.4,2.6c-0.4,0.8-0.9,1.8-1.3,2.4c-0.3,0.1-0.6,0.4-0.7,0.7c-0.2,0.8,0,1.4,0.6,1.6
			c0.2,0.1,0.3,0.1,0.5,0.1c0.6,0,1.1-0.8,2.7-3.9c0.3-0.6,0.6-1.2,0.9-1.7c2.1,2.7,4.5,5.5,7,8.2
			C521.8,258.1,520.1,261.1,518.5,264z M524.8,253.7c-2.6-2.8-5.1-5.6-7.1-8.4l1.9-3c1.6-2.5,3.2-5.1,4.8-7.6c1,1.2,2,2.3,2.8,3.2
			c1.8,1.9,3.7,3.8,5.6,5.5c-0.4,0.6-0.9,1.1-1.3,1.7C529,248.1,526.8,250.9,524.8,253.7z M536.7,266c-0.9-1-1.8-1.9-2.5-2.7
			c-0.9-0.9-1.7-1.8-2.6-2.7c-1.8-1.8-3.6-3.6-5.4-5.5c2.1-2.8,4.3-5.7,6.7-8.8c0.4-0.5,0.8-1.1,1.2-1.6c1,0.9,2,1.8,2.9,2.7
			c1.7,1.5,3.4,3,5,4.6c0.9,0.8,1.7,1.7,2.6,2.5C542,258.3,539.3,262.1,536.7,266z M545.2,274.5c-2.3-1.9-4.9-4.7-7.1-7
			c2.6-3.9,5.3-7.7,8-11.5c1.7,1.8,3.3,3.6,4.9,5.4c0.8,0.9,1.6,1.7,2.4,2.6C550.5,267,547.8,270.7,545.2,274.5z"/>
	</g>
	<path style="fill:#D3D2D1;" d="M561.8,275l-131.1-9.6l-10.5-64.3c-0.2-1.1-1.2-1.8-2.3-1.7c-1.1,0.2-1.8,1.2-1.7,2.3l10.4,63.7
		l-39.8,2.7c-1.1,0.1-1.9,1-1.9,2.1c0.1,1.1,1,1.9,2.1,1.9l41.9-2.8l132.5,9.7c0,0,0.1,0,0.1,0c1,0,1.9-0.8,2-1.9
		C563.7,276,562.9,275.1,561.8,275z"/>
	<path style="fill:#F8F5F1;" d="M564.6,276.4l-16-78.3c-0.3-1.3-1.3-2.2-2.6-2.4l-32.3-4c-0.3,0-0.6,0-0.9,0c-0.2,0-0.4,0-0.7,0
		l-118,6c-1.5,0.1-2.7,1.2-2.8,2.7l-8,69c-0.2,1.6,1,3.1,2.6,3.3c1.6,0.2,3.1-1,3.3-2.6l7.7-66.5l112.3-5.7l1,85
		c0,0.9,0.4,1.7,1,2.2c0.5,0.5,1.3,0.7,2,0.7c0.1,0,0.2,0,0.4,0L562,280c0.8-0.1,1.6-0.5,2.1-1.2S564.8,277.2,564.6,276.4z
		 M516.3,279.4l-0.9-81.5l27.8,3.4l14.9,73L516.3,279.4z"/>
</g>
</svg>
