<?xml version="1.0" encoding="utf-8"?>
<!-- Generator: Adobe Illustrator 24.1.1, SVG Export Plug-In . SVG Version: 6.00 Build 0)  -->
<svg version="1.1" id="Layer_1" xmlns="http://www.w3.org/2000/svg" xmlns:xlink="http://www.w3.org/1999/xlink" x="0px" y="0px"
	 viewBox="0 0 230 240" style="enable-background:new 0 0 230 240;" xml:space="preserve">
<g>
	<path style="fill:#FFFFFF;" d="M80.35,171.47v31.88c0,0-2.37,0.59-5.51,0.59s-5.54-0.59-5.54-0.59v-31.88
		c0-2.13,1.72-3.82,3.82-3.82C75.22,167.65,80.35,169.35,80.35,171.47z"/>
	<path style="fill-rule:evenodd;clip-rule:evenodd;fill:#009FF9;" d="M80.35,203.35v28.87c0,1.91-2.64,3.52-4.79,3.9l-0.91,0.11
		h-9.2c-0.94,0-1.91,0.03-2.91,0.03c-3.01,0-6.11-0.3-8.23-2.72c-1.91-2.18-1.37-6.56-0.16-8.96c2.26-4.41,6.46-7.67,11.3-8.72
		c0,0,0.22-0.03,0.27-0.05c0.65-0.13,1.24-0.19,1.78-0.24c0.22-0.03,0.43-0.05,0.65-0.05c0.32-0.03,0.65-0.03,0.94-0.03h0.22v-12.13
		c0,0,2.39,0.59,5.54,0.59S80.35,203.35,80.35,203.35z"/>
	<path d="M73.12,164.43c-3.87,0-7.05,3.15-7.05,7.05v41c-0.32,0.05-0.65,0.11-0.97,0.16l-0.38,0.11
		c-5.73,1.24-10.76,5.11-13.45,10.38c-1.56,3.09-2.42,9.07,0.62,12.54c2.93,3.36,7.02,3.82,10.65,3.82h1.56
		c0.46-0.03,0.91-0.03,1.35-0.03h9.2c0.11,0,0.22,0,0.32-0.03l0.94-0.08c0.08-0.03,0.16-0.03,0.24-0.05
		c3.6-0.65,7.42-3.36,7.42-7.08v-60.74C83.58,166.17,75.32,164.43,73.12,164.43z M80.35,232.22c0,1.91-2.64,3.52-4.79,3.9
		l-0.91,0.11h-9.2c-0.94,0-1.91,0.03-2.91,0.03c-3.01,0-6.11-0.3-8.23-2.72c-1.91-2.18-1.37-6.56-0.16-8.96
		c2.26-4.41,6.46-7.67,11.3-8.72c0,0,0.22-0.03,0.27-0.05c0.65-0.13,1.24-0.19,1.78-0.24c0.22-0.03,0.43-0.05,0.65-0.05
		c0.32-0.03,0.65-0.03,0.94-0.03h0.22v-44.01c0-2.13,1.72-3.82,3.82-3.82c2.1,0,7.24,1.69,7.24,3.82V232.22z"/>
</g>
<g>
	<path style="fill:#FFFFFF;" d="M97.24,200.97c0,0,0.03,0.03,0.11,0.03c0.46,0.19,2.56,0.94,5.28,1.32c3.12,0.4,5.55,0.13,5.55,0.13
		l4.31-31.62c0.3-2.1-1.18-4.01-3.26-4.28c-2.1-0.3-7.41,0.7-7.68,2.8L97.24,200.97z"/>
	<path style="fill-rule:evenodd;clip-rule:evenodd;fill:#009FF9;" d="M93.33,229.62c-0.27,1.88,2.13,3.82,4.2,4.5l0.86,0.24h0.05
		l0.73,0.08l8.38,1.16c0.48,0.05,0.94,0.13,1.43,0.22c0.97,0.13,1.97,0.27,2.96,0.38c0.51,0.03,1,0.05,1.51,0.05
		c0.01,0,0.01,0,0.02,0c0.74,0,1.47-0.04,2.19-0.19c0.46-0.11,0.94-0.24,1.37-0.43c0.46-0.19,0.89-0.4,1.32-0.7
		c0.22-0.16,0.4-0.32,0.62-0.48c2.18-1.91,2.24-6.33,1.37-8.86c-1.64-4.69-5.39-8.48-10.02-10.18c0,0-0.22-0.08-0.27-0.11
		c-1.32-0.43-2.48-0.67-3.53-0.78l1.64-12.06c0,0-2.42,0.27-5.55-0.13c-2.72-0.38-4.82-1.13-5.28-1.32c-0.08,0-0.11-0.03-0.11-0.03
		L93.33,229.62z"/>
	<path d="M99.18,234.44l8.38,1.16l-3.82-0.54l-2.56-0.35L99.18,234.44z M115.66,236.06c-0.72,0.13-1.44,0.19-2.19,0.19
		C114.21,236.25,114.94,236.2,115.66,236.06z M113.47,236.25c-0.51,0-1.01-0.01-1.53-0.05c0.51,0.03,1,0.05,1.51,0.05
		C113.46,236.25,113.46,236.25,113.47,236.25z"/>
	<path d="M96.54,237.19c0.08,0.03,0.16,0.05,0.24,0.08l0.92,0.22c0.11,0.03,0.22,0.05,0.32,0.05l2.72,0.38l2.56,0.35l3.82,0.54
		c0.43,0.05,0.89,0.11,1.35,0.19c1.51,0.24,3.23,0.48,4.98,0.48c3.12,0,5.63-0.83,7.65-2.61c3.47-3.04,3.45-9.05,2.29-12.36
		c-1.94-5.57-6.41-10.13-11.93-12.12l-0.35-0.13c-0.32-0.11-0.65-0.22-0.97-0.3l1.24-9.08l0.48-3.61l3.82-28.01
		c0.27-1.86-0.24-3.72-1.37-5.22c-1.13-1.48-2.8-2.45-4.66-2.69c-0.35-0.05-0.78-0.08-1.24-0.08c-2.59,0-9.45,1-10.07,5.63
		l-3.82,28.01l-4.39,32.26C89.62,232.86,93.04,236.06,96.54,237.19z M93.33,229.62l3.9-28.65l0.48-3.64l3.82-27.98
		c0.24-1.86,4.47-2.85,6.87-2.85c0.3,0,0.57,0,0.81,0.05c2.07,0.27,3.55,2.18,3.26,4.28l-3.8,28.01l-0.51,3.61l-1.64,12.06
		c1.05,0.11,2.21,0.35,3.53,0.78c0.05,0.03,0.27,0.11,0.27,0.11c4.63,1.7,8.38,5.49,10.02,10.18c0.86,2.53,0.81,6.95-1.37,8.86
		c-0.22,0.16-0.4,0.32-0.62,0.48c-0.43,0.3-0.86,0.51-1.32,0.7c-0.43,0.19-0.92,0.32-1.37,0.43c-1.21,0.24-2.45,0.24-3.72,0.13
		c-1-0.08-1.99-0.24-2.96-0.38c-0.48-0.08-0.94-0.16-1.43-0.22l-8.38-1.16l-0.73-0.08H98.4l-0.86-0.24
		C95.46,233.45,93.06,231.51,93.33,229.62z"/>
</g>
<g>
	<path style="fill:#BE723F;" d="M155.44,106.68c2.99,2.53,7.43,1.34,9.59,0.52l-0.22-0.44L155.44,106.68z"/>
	<path style="fill:#ECAA52;" d="M153.9,87.21l1.01,2.14c0.08,0.02,0.16,0.01,0.25,0.03c0.03,0,0.05,0,0.08,0.02
		c0.11-0.01,0.22,0.01,0.3,0.03c0.22,0.01,0.44,0.05,0.63,0.09c0.33,0.03,0.66,0.08,0.99,0.17c0.3,0.06,0.63,0.14,0.94,0.2
		c0.36,0.05,0.72,0.16,1.05,0.27c0.25,0.06,0.5,0.12,0.75,0.21c0.61,0.17,1.22,0.39,1.78,0.62c0.56,0.23,1.09,0.46,1.6,0.71
		c0.31,0.14,0.62,0.3,0.91,0.47c0.42,0.21,0.82,0.48,1.22,0.72c0.54,0.34,1.06,0.68,1.55,1.04c0.38,0.3,0.75,0.56,1.1,0.86
		c0.35,0.3,0.67,0.6,0.99,0.9c0.32,0.3,0.64,0.6,0.94,0.9c0.21,0.2,0.41,0.43,0.57,0.63c0.21,0.2,0.38,0.4,0.54,0.61
		c0.03,0.05,0.09,0.1,0.15,0.15l-0.09-0.16l2.86-0.14c-1.27-2.04-3.17-4.44-5.88-6.43c-0.29-0.19-0.58-0.42-0.89-0.64
		c-1.86-1.21-4.05-2.23-6.65-2.84c-0.42-0.1-0.83-0.18-1.27-0.25c-0.17-0.04-0.36-0.05-0.55-0.09c-0.44-0.07-0.9-0.12-1.37-0.16
		c-0.33-0.03-0.66-0.06-1.01-0.06c-0.35-0.03-0.71-0.05-1.09-0.05c-0.08,0.01-0.16-0.01-0.27,0.02
		C154.66,87.18,154.28,87.18,153.9,87.21z"/>
	<path style="fill:#ECAA52;" d="M153.72,102.83c0.08,0.64,0.6,1.12,1.25,1.12l55.84,0.56c0.35,0.03,0.69-0.14,0.94-0.4
		c0.25-0.26,0.36-0.6,0.33-0.98l-0.31-3.64c-0.05-0.67-0.63-1.17-1.34-1.12l-55.53,3.08c-0.38,0.03-0.67,0.16-0.89,0.42
		C153.8,102.14,153.69,102.47,153.72,102.83z"/>
	<path d="M129.56,63.07l24.26,35.87c-0.72,0.19-1.36,0.6-1.86,1.18c-0.69,0.84-1.04,1.9-0.93,2.98c0.07,0.54,0.22,1.04,0.47,1.48
		c-0.07,0.09-0.12,0.17-0.17,0.28c-0.11,0.33-0.08,0.74,0.11,1.05c2.26,4.22,6.16,5.21,9.77,4.93c2.43-0.19,4.75-0.97,6.32-1.77
		c0.34-0.16,0.59-0.45,0.7-0.81c0.11-0.33,0.05-0.71-0.11-1.05l-0.22-0.42l42.89,0.44l0.35-0.03c1-0.08,1.91-0.53,2.59-1.26
		c0.78-0.79,1.15-1.91,1.06-3.01l-0.31-3.64c-0.2-2.15-2-3.72-4.14-3.61c-3.28-27.11-20.83-37.5-23.27-38.83
		c-2.4-1.57-21.5-13.22-49.07-0.71c-1.4-1.22-3.45-1.46-5.14-0.49l-1.79,1.01c-1.09,0.63-1.88,1.67-2.16,2.88
		C128.62,60.75,128.86,62.04,129.56,63.07z M154.17,87.19c0.3,0,0.6-0.02,0.87,0.01c0.11-0.04,0.19-0.01,0.27-0.02
		c0.38,0,0.73,0,1.09,0.05c0.35,0,0.68,0.03,1.01,0.06c0.46,0.04,0.93,0.09,1.37,0.16c0.19,0.04,0.38,0.05,0.55,0.09
		c0.44,0.07,0.85,0.15,1.27,0.25c2.6,0.61,4.79,1.63,6.65,2.84c0.29,0.22,0.6,0.41,0.89,0.64c2.71,1.98,4.6,4.38,5.88,6.43
		l-2.86,0.14l0.09,0.16c-0.06-0.05-0.12-0.1-0.15-0.15c-0.15-0.2-0.33-0.41-0.54-0.61c-0.15-0.2-0.36-0.43-0.57-0.63
		c-0.3-0.3-0.62-0.6-0.94-0.9c-0.32-0.3-0.64-0.6-0.99-0.9c-0.35-0.3-0.72-0.57-1.1-0.86c-0.49-0.37-1.01-0.71-1.55-1.04
		c-0.4-0.24-0.8-0.51-1.22-0.72c-0.28-0.17-0.6-0.33-0.91-0.47c-0.51-0.26-1.04-0.49-1.6-0.71c-0.56-0.23-1.17-0.42-1.78-0.62
		c-0.25-0.09-0.5-0.15-0.75-0.21c-0.33-0.11-0.69-0.19-1.05-0.27c-0.3-0.06-0.64-0.14-0.94-0.2c-0.33-0.06-0.66-0.14-0.99-0.17
		c-0.19-0.04-0.41-0.08-0.63-0.09c-0.08-0.02-0.19-0.04-0.3-0.03c-0.03-0.02-0.06-0.02-0.08-0.02c-0.08-0.02-0.16-0.01-0.25-0.03
		l-1.01-2.14L154.17,87.19z M161.05,98.42l-1.84,0.09l-2.93-6.22c0.06,0.02,0.11,0.02,0.17,0.04c0.16,0.01,0.3,0.03,0.44,0.07
		c0.19,0.04,0.36,0.08,0.55,0.12c0.06,0.02,0.11,0.02,0.17,0.04c0.55,0.12,1.08,0.27,1.58,0.42c0.25,0.09,0.47,0.15,0.7,0.24
		c0.08,0.02,0.14,0.04,0.2,0.07c0.48,0.18,0.92,0.36,1.35,0.57c0.06,0.02,0.11,0.05,0.17,0.07c0.22,0.09,0.48,0.21,0.7,0.32
		c0.7,0.32,1.36,0.71,1.99,1.15c0.29,0.19,0.6,0.39,0.89,0.61c0.29,0.22,0.58,0.42,0.84,0.64c0.58,0.44,1.1,0.92,1.6,1.39l-3.62,0.2
		l-0.4,0.03L161.05,98.42z M207.64,95.83l-30.66,1.69c-0.19-0.36-0.41-0.75-0.66-1.14l24.75-8.49c0.71-0.25,1.09-1.01,0.84-1.72
		c-0.25-0.71-1.01-1.09-1.72-0.84l-24.75,8.49c-0.26,0.1-0.5,0.26-0.64,0.46c-0.46-0.64-1-1.28-1.59-1.94l21.09-18.1
		c0.56-0.48,0.63-1.35,0.15-1.91c-0.51-0.56-1.35-0.63-1.91-0.15l-21.29,18.28c-0.85-0.75-1.8-1.49-2.83-2.14l13.72-24.14
		c0.38-0.65,0.15-1.48-0.5-1.86c-0.65-0.36-1.47-0.13-1.86,0.53l-13.72,24.14c-0.91-0.47-1.86-0.86-2.89-1.18l1.66-24.06
		c0.05-0.74-0.52-1.4-1.25-1.45c-0.74-0.05-1.4,0.52-1.45,1.25l-1.62,23.54c-0.64-0.17-1.27-0.28-1.95-0.33l0-0.03l-7.2-22.11
		c-0.24-0.69-1.01-1.09-1.72-0.87c-0.71,0.25-1.09,1.01-0.87,1.72l6.8,20.87l0.07,0.18c-0.98-0.06-1.98-0.01-3.03,0.08l-14.13-25.74
		c0.39-0.19,0.79-0.36,1.15-0.5c0.79-0.36,1.55-0.66,2.31-1c0.32-0.11,0.63-0.24,0.92-0.34c0.61-0.24,1.19-0.45,1.76-0.68
		c0.24-0.07,0.48-0.15,0.71-0.22c0.69-0.24,1.37-0.46,2.06-0.65c0.82-0.25,1.64-0.48,2.44-0.68c3.24-0.83,6.3-1.31,9.16-1.54
		c15.34-1.21,25.15,4.91,26.61,5.88c0.03,0.02,0.09,0.05,0.11,0.07c0.45,0.24,1.59,0.88,3.12,2.03c0.23,0.17,0.46,0.34,0.69,0.52
		c0.26,0.2,0.49,0.4,0.75,0.59l0.76,0.65c0.23,0.2,0.49,0.4,0.73,0.65c1.4,1.22,2.93,2.75,4.46,4.61c0.3,0.36,0.6,0.74,0.9,1.12
		c0.3,0.38,0.61,0.79,0.91,1.2c0.61,0.82,1.22,1.69,1.81,2.62c0.28,0.47,0.56,0.93,0.84,1.43c0.31,0.49,0.57,0.99,0.85,1.51
		C204.32,81.26,206.65,87.77,207.64,95.83z M155.46,106.68l9.31,0.08l0.03,0l0.22,0.44C162.87,108.02,158.46,109.21,155.46,106.68z
		 M154.92,101.46l0.6-0.02l2.03-0.11l0.38-0.03l1.03-0.05l0.03,0l1.51-0.09l0.22-0.02l2.19-0.12l1.13-0.06l0.54-0.04l5.35-0.29
		l3.19-0.2l2.35-0.13l0.7-0.03l0.11-0.01l2.08-0.11l29.6-1.63l2.51-0.14c0.08-0.01,0.13-0.01,0.19,0.04c0.62,0,1.09,0.46,1.14,1.08
		l0.31,3.64c0.03,0.38-0.08,0.71-0.33,0.98c-0.25,0.26-0.59,0.43-0.94,0.4l-39.99-0.4l-4.45-0.06l-3.07-0.03l-0.03,0l-2.55-0.02
		l-1.93-0.01l-0.16,0.01l-0.14-0.02l-0.03,0l-3.5-0.05c-0.52-0.01-0.95-0.31-1.14-0.75c-0.06-0.1-0.1-0.24-0.11-0.37
		c-0.03-0.35,0.08-0.68,0.3-0.95C154.25,101.62,154.54,101.49,154.92,101.46z M131.56,60.17c0.1-0.5,0.42-0.9,0.83-1.15l1.82-1.04
		c0.23-0.13,0.47-0.2,0.74-0.22c0.13-0.01,0.3,0,0.44,0.02c-0.02,0.03-0.05,0.06-0.05,0.09c-0.14,0.34-0.08,0.71,0.08,1.05l15.37,28
		l2.02,4.32l2.12,4.5L131.8,61.56C131.53,61.15,131.43,60.64,131.56,60.17z"/>
	<path style="fill:#D49166;" d="M131.8,61.56l23.12,34.17l-2.12-4.5l-2.02-4.32l-15.37-28c-0.16-0.34-0.22-0.72-0.08-1.05
		c0-0.03,0.02-0.06,0.05-0.09c-0.14-0.02-0.3-0.03-0.44-0.02c-0.27,0.02-0.51,0.09-0.74,0.22l-1.82,1.04
		c-0.41,0.25-0.73,0.65-0.83,1.15C131.43,60.64,131.53,61.15,131.8,61.56z"/>
	<path style="fill:#D57430;" d="M156.28,92.29l2.93,6.22l1.84-0.09l2.54-0.15l0.4-0.03l3.62-0.2c-0.5-0.48-1.02-0.95-1.6-1.39
		c-0.26-0.22-0.55-0.42-0.84-0.64c-0.29-0.22-0.6-0.41-0.89-0.61c-0.63-0.41-1.28-0.79-1.99-1.15c-0.23-0.12-0.48-0.23-0.7-0.32
		c-0.06-0.02-0.11-0.05-0.17-0.07c-0.42-0.21-0.87-0.39-1.35-0.57c-0.06-0.02-0.11-0.05-0.2-0.07c-0.22-0.09-0.45-0.15-0.7-0.24
		c-0.5-0.15-1.03-0.3-1.58-0.42c-0.06-0.02-0.11-0.02-0.17-0.04c-0.19-0.04-0.36-0.08-0.55-0.12c-0.14-0.04-0.28-0.06-0.44-0.07
		C156.39,92.31,156.34,92.31,156.28,92.29z"/>
	<path style="fill:#F8716F;" d="M138.48,58.86l14.13,25.74c1.05-0.08,2.05-0.13,3.03-0.08l-0.07-0.18l-6.8-20.87
		c-0.22-0.72,0.15-1.48,0.87-1.72c0.72-0.22,1.48,0.18,1.72,0.87l7.2,22.11l0,0.03c0.68,0.05,1.32,0.17,1.95,0.33l1.62-23.54
		c0.05-0.74,0.71-1.3,1.45-1.25c0.74,0.05,1.3,0.71,1.25,1.45l-1.66,24.06c1.03,0.33,1.98,0.71,2.89,1.18l13.72-24.14
		c0.38-0.65,1.21-0.88,1.86-0.53c0.65,0.38,0.88,1.21,0.5,1.86l-13.72,24.14c1.03,0.65,1.98,1.39,2.83,2.14l21.29-18.28
		c0.56-0.48,1.41-0.41,1.91,0.15c0.48,0.56,0.41,1.43-0.15,1.91l-21.09,18.1c0.59,0.66,1.13,1.29,1.59,1.94
		c0.15-0.2,0.38-0.36,0.64-0.46l24.75-8.49c0.71-0.25,1.47,0.13,1.72,0.84c0.25,0.71-0.13,1.47-0.84,1.72l-24.75,8.49
		c0.25,0.39,0.47,0.78,0.66,1.14l30.66-1.69c-0.99-8.06-3.32-14.58-6.08-19.7c-0.29-0.52-0.54-1.02-0.85-1.51
		c-0.28-0.49-0.56-0.96-0.84-1.43c-0.59-0.93-1.2-1.8-1.81-2.62c-0.3-0.41-0.61-0.82-0.91-1.2c-0.3-0.38-0.6-0.77-0.9-1.12
		c-1.53-1.86-3.06-3.39-4.46-4.61c-0.24-0.25-0.5-0.45-0.73-0.65l-0.76-0.65c-0.26-0.2-0.49-0.4-0.75-0.59
		c-0.23-0.17-0.46-0.34-0.69-0.52c-1.53-1.15-2.66-1.8-3.12-2.03c-0.03-0.02-0.09-0.05-0.11-0.07c-1.46-0.97-11.27-7.09-26.61-5.88
		c-2.86,0.23-5.91,0.71-9.16,1.54c-0.8,0.2-1.62,0.43-2.44,0.68c-0.69,0.19-1.38,0.41-2.06,0.65c-0.24,0.07-0.48,0.15-0.71,0.22
		c-0.58,0.24-1.16,0.44-1.76,0.68c-0.29,0.1-0.61,0.24-0.92,0.34c-0.76,0.33-1.52,0.64-2.31,1
		C139.27,58.5,138.87,58.67,138.48,58.86z"/>
</g>
<g>
	<path style="fill:#FFFFFF;" d="M77.46,51.27c-0.57,0.43-1.1,0.59-1.64,0.59c-2.77,0-5.22-4.77-6.84-6.36
		c-1.21-1.18-2.56-1.67-3.96-1.67c-2.32,0-4.74,1.29-6.79,2.88c0,0.03-2.15,1.86-2.96,2.67v0.03c-1.37,1.43-3.23,2.15-5.06,2.15
		c-1.72,0-3.47-0.62-4.82-1.94c-1.75-1.67-2.45-4.04-2.1-6.25c0.22-1.35,0.83-2.61,1.83-3.69c0.22-0.24,0.83-0.86,1.78-1.72
		c2.91-2.72,6.3-5.01,10.15-6.17c1.8-0.54,3.53-0.81,5.17-0.81c1.48,0,2.94,0.22,4.36,0.62c1.43,0.43,2.85,1.05,4.34,1.86
		c1.21,0.67,2.34,1.54,3.42,2.42C77.76,38.72,82.15,47.69,77.46,51.27z"/>
	<path d="M76.41,33.39c-1.45-1.18-2.69-2.07-3.93-2.75c-1.72-0.94-3.37-1.64-5.01-2.13C65.72,28,64,27.76,62.22,27.76
		c-1.99,0-3.99,0.3-6.11,0.94c-3.96,1.21-7.81,3.53-11.42,6.92c-0.92,0.81-1.59,1.51-1.91,1.83c-1.16,1.24-1.99,2.72-2.42,4.31
		c-0.11,0.35-0.19,0.73-0.24,1.1c-0.54,3.34,0.59,6.73,3.04,9.1c1.91,1.83,4.42,2.83,7.06,2.83c2.77,0,5.47-1.16,7.41-3.18
		c0.27-0.27,0.78-0.73,1.32-1.21c0.83-0.67,1.72-1.4,1.83-1.54c1.62-1.16,3.12-1.8,4.25-1.8c0.65,0,1.18,0.24,1.7,0.75
		c0.27,0.27,0.78,0.94,1.24,1.56c1.8,2.4,4.25,5.71,7.86,5.71c1.27,0,2.5-0.43,3.58-1.24c2.13-1.62,3.26-4.01,3.34-6.92
		C82.85,41.93,79.54,36,76.41,33.39z M77.46,51.27c-0.57,0.43-1.1,0.59-1.64,0.59c-2.77,0-5.22-4.77-6.84-6.36
		c-1.21-1.18-2.56-1.67-3.96-1.67c-2.32,0-4.74,1.29-6.79,2.88c0,0.03-2.15,1.86-2.96,2.67v0.03c-1.37,1.43-3.23,2.15-5.06,2.15
		c-1.72,0-3.47-0.62-4.82-1.94c-1.75-1.67-2.45-4.04-2.1-6.25c0.22-1.35,0.83-2.61,1.83-3.69c0.22-0.24,0.83-0.86,1.78-1.72
		c1.18-1.1,2.45-2.15,3.8-3.07c1.97-1.32,4.07-2.42,6.36-3.1c1.8-0.54,3.53-0.81,5.17-0.81c1.48,0,2.94,0.22,4.36,0.62
		c1.43,0.43,2.85,1.05,4.34,1.86c1.21,0.67,2.34,1.54,3.42,2.42C77.76,38.72,82.15,47.69,77.46,51.27z"/>
	<path style="fill:#673101;" d="M58.24,46.72c0,0.03-2.15,1.86-2.96,2.67v0.03c-1.37,1.43-3.23,2.15-5.06,2.15
		c-1.72,0-3.47-0.62-4.82-1.94c-1.75-1.67-2.45-4.04-2.1-6.25c0.22-1.35,0.83-2.61,1.83-3.69c0.22-0.24,0.83-0.86,1.78-1.72
		c1.18-1.1,2.45-2.15,3.8-3.07c0.13,0,0.24,0.03,0.35,0.05c0.03,0,0.03,0,0.05,0c0.03,0,0.03,0.03,0.05,0.03
		c1.08,0.3,1.56,1.13,1.56,1.13v0.03c0.43,0.65,0.59,1.45,0.4,2.26c-0.19,0.67-0.59,1.18-1.13,1.56c0.59-0.3,1.29-0.43,1.99-0.24
		c1.48,0.4,2.4,1.94,1.99,3.45c-0.19,0.73-0.65,1.32-1.27,1.7c0.48-0.16,1.05-0.24,1.59-0.11C57.29,45.02,57.97,45.81,58.24,46.72z"
		/>
</g>
<g>
	<path style="fill:#FFFFFF;" d="M129.25,49.63c-1.35,1.32-3.1,1.94-4.82,1.94c-1.86,0-3.69-0.73-5.06-2.15c0,0,0-0.03-0.03-0.03
		c-0.78-0.81-2.94-2.64-2.94-2.67c-2.07-1.59-4.47-2.88-6.79-2.88c-1.4,0-2.75,0.48-3.96,1.67c-1.62,1.59-4.07,6.36-6.84,6.36
		c-0.54,0-1.08-0.16-1.64-0.59c-4.71-3.58-0.3-12.55,3.12-15.38c1.08-0.89,2.21-1.75,3.42-2.42c1.48-0.81,2.91-1.43,4.34-1.86
		c1.43-0.4,2.88-0.62,4.36-0.62c1.64,0,3.37,0.27,5.17,0.81c3.85,1.16,7.24,3.45,10.15,6.17c0.94,0.86,1.56,1.48,1.78,1.72
		c1,1.08,1.59,2.34,1.83,3.69C131.7,45.59,131,47.96,129.25,49.63z"/>
	<path d="M134.53,42.84c-0.32-1.99-1.24-3.85-2.64-5.36c-0.35-0.35-1.02-1.05-1.97-1.91c-0.35-0.32-0.7-0.65-1.05-0.94
		c-3.29-2.83-6.76-4.82-10.34-5.92c-2.13-0.65-4.12-0.94-6.11-0.94c-1.78,0-3.5,0.24-5.28,0.75c-1.62,0.48-3.26,1.18-4.98,2.13
		c-1.24,0.67-2.48,1.56-3.93,2.75C95.1,36,91.79,41.93,91.9,46.94c0.05,2.91,1.21,5.31,3.34,6.92c1.08,0.81,2.32,1.24,3.58,1.24
		c3.61,0,6.06-3.31,7.86-5.71c0.46-0.62,0.94-1.29,1.24-1.56c0.51-0.51,1.05-0.75,1.7-0.75c1.13,0,2.64,0.65,4.25,1.8
		c0.16,0.22,2.37,1.97,3.1,2.69c0.03,0.03,0.03,0.03,0.05,0.05c1.91,2.02,4.63,3.18,7.41,3.18c2.64,0,5.14-1,7.06-2.83
		C133.94,49.6,135.07,46.21,134.53,42.84z M129.25,49.63c-1.35,1.32-3.1,1.94-4.82,1.94c-1.86,0-3.69-0.73-5.06-2.15
		c0,0,0-0.03-0.03-0.03c-0.78-0.81-2.94-2.64-2.94-2.67c-2.07-1.59-4.47-2.88-6.79-2.88c-1.4,0-2.75,0.48-3.96,1.67
		c-1.62,1.59-4.07,6.36-6.84,6.36c-0.54,0-1.08-0.16-1.64-0.59c-4.71-3.58-0.3-12.55,3.12-15.38c1.08-0.89,2.21-1.75,3.42-2.42
		c1.48-0.81,2.91-1.43,4.34-1.86c1.43-0.4,2.88-0.62,4.36-0.62c1.64,0,3.37,0.27,5.17,0.81c2.29,0.67,4.39,1.78,6.36,3.12h0.03
		c1.35,0.92,2.59,1.94,3.77,3.04c0.94,0.86,1.56,1.48,1.78,1.72c1,1.08,1.59,2.34,1.83,3.69C131.7,45.59,131,47.96,129.25,49.63z"/>
	<path style="fill:#673101;" d="M129.25,49.63c-1.35,1.32-3.1,1.94-4.82,1.94c-1.86,0-3.69-0.73-5.06-2.15c0,0,0-0.03-0.03-0.03
		c-0.78-0.81-2.94-2.64-2.94-2.67c0.27-0.92,0.94-1.7,1.94-1.97c0.54-0.13,1.08-0.05,1.59,0.11c-0.62-0.38-1.08-0.97-1.27-1.7
		c-0.4-1.51,0.51-3.04,1.99-3.45c0.7-0.19,1.37-0.05,1.99,0.24c-0.54-0.38-0.94-0.89-1.13-1.56c-0.24-0.97,0.05-1.97,0.7-2.64
		c0.78-0.78,1.59-0.83,1.72-0.83h0.03c1.35,0.92,2.59,1.94,3.77,3.04c0.94,0.86,1.56,1.48,1.78,1.72c1,1.08,1.59,2.34,1.83,3.69
		C131.7,45.59,131,47.96,129.25,49.63z"/>
</g>
<g>
	<path style="fill:#FFFFFF;" d="M43.26,139.66c-0.92,2.24-1.59,4.5-1.99,6.79c-3.88,1.05-8.54-0.16-11.07-1.54
		c1.59-6.3,4.96-12.33,10.66-17.72c1.27-1.21,3.15-3.31,5.2-3.42C53.71,123.42,44.23,137.31,43.26,139.66z"/>
	<path style="fill:#0088C5;" d="M39.39,171.54c-0.4,0.05-0.81,0.08-1.24,0.08c-0.22,0-0.46,0-0.67-0.03
		c-1.45-0.08-2.94-0.43-3.85-1.1c-4.2-3.12-4.36-8.67-4.63-13.03c-0.13-2.26-0.08-4.55,0.16-6.81c0.03-0.19,0.11-1.05,0.24-2.05
		c0.08-0.46,0.13-0.97,0.22-1.45c0.08-0.7,0.22-1.32,0.32-1.75c0.08-0.24,0.13-0.4,0.19-0.43c0.03-0.03,0.05-0.05,0.08-0.05
		c2.53,1.37,7.19,2.59,11.07,1.54c-0.11,0.62-0.22,1.24-0.3,1.86c-0.03,1.35,0,2.77-0.03,3.04c-0.27,4.55,1.24,8.13,2.56,12.36
		C44.5,166.88,44.85,170.9,39.39,171.54z"/>
	<path d="M29.93,145.39c0.08-0.19,0.13-0.35,0.19-0.43C30.07,144.99,30.01,145.15,29.93,145.39z"/>
	<path d="M45.9,160.61c-1.02-3.15-1.91-5.9-1.72-9.08c0-0.13,0.03-0.48,0.03-0.97c0-0.51-0.03-1.27,0-1.99
		c0.38-2.72,1.05-5.28,2.05-7.68c0.11-0.27,0.62-1.16,1.02-1.86c3.47-6.17,6.44-12.04,4.2-15.83c-0.59-1-2.02-2.67-5.14-2.67H45.9
		c-3.02,0.13-5.28,2.37-6.79,3.85l-0.48,0.46c-5.63,5.33-9.43,11.58-11.36,18.55c-0.75,1.43-1,3.74-1.35,6.87
		c-0.24,2.42-0.3,4.9-0.16,7.38l0.05,0.51c0.27,4.63,0.65,11.01,5.87,14.92c1.72,1.29,3.99,1.67,5.6,1.75
		c0.3,0.03,0.59,0.03,0.86,0.03c0.57,0,1.1-0.03,1.62-0.08c2.94-0.35,5.09-1.54,6.38-3.5c1.4-2.18,1.56-4.96,0.46-8.54
		C46.36,162.01,46.15,161.31,45.9,160.61z M39.39,171.54c-0.4,0.05-0.81,0.08-1.24,0.08c-0.22,0-0.46,0-0.67-0.03
		c-1.45-0.08-2.94-0.43-3.85-1.1c-4.2-3.12-4.36-8.67-4.63-13.03c-0.13-2.26-0.08-4.55,0.16-6.81c0.03-0.19,0.11-1.05,0.24-2.05
		c0.05-0.46,0.13-0.97,0.22-1.45c0.08-0.7,0.22-1.32,0.32-1.75c0.08-0.24,0.13-0.4,0.19-0.43c0.03-0.03,0.05-0.05,0.08-0.05
		c0-0.03,0.03-0.03,0.03-0.03c1.59-6.27,4.96-12.31,10.64-17.69c1.27-1.21,3.15-3.31,5.2-3.42h0.27c7.14,0-2.1,13.57-3.07,15.89
		c-0.94,2.24-1.59,4.5-1.99,6.79c-0.11,0.62-0.22,1.24-0.3,1.86c-0.03,1.35,0,2.77-0.03,3.04c-0.27,4.55,1.24,8.13,2.56,12.36
		C44.5,166.88,44.85,170.9,39.39,171.54z"/>
</g>
<g>
	<path d="M158.53,98.1c1.09,0,2.43,0.45,4.11,1.55c0.56,0.36,1.14,0.81,1.7,1.32c1.21,1.09,2.29,2.42,2.65,3.58
		c1.64,5.37-1.82,9.74-4.41,13.26c-1.35,1.83-2.86,3.54-4.55,5.11c-0.36,0.34-3.93,3.65-4.59,3.65c-0.03,0-0.05-0.01-0.07-0.02
		c-0.02-0.01-0.05-0.03-0.07-0.05c-5.44,3.68-12.27,5.94-20.74,6.01c-0.57,0.01-1.25,0.03-1.96,0.03c-1.65,0-3.51-0.16-4.8-1.12
		c-6.91-5.17,10.37-9.06,12.74-10.16c1.99-0.92,3.82-2.02,5.49-3.26c0.1-0.07,0.19-0.16,0.29-0.23c0.66-0.5,1.3-1.03,1.91-1.58
		c0.25-0.22,0.48-0.45,0.72-0.67c0.33-0.31,0.65-0.64,0.96-0.96c3.02-3.21,5.09-6.97,6.27-11.51
		C154.83,100.61,155.96,98.1,158.53,98.1 M158.53,94.87C158.53,94.87,158.53,94.87,158.53,94.87c-2.52,0-5.87,1.28-7.46,7.38
		c-1.04,3.98-2.84,7.29-5.5,10.11c-0.25,0.26-0.53,0.55-0.83,0.83c-0.22,0.21-0.43,0.42-0.65,0.61c-0.55,0.49-1.13,0.97-1.71,1.41
		l-0.23,0.19c-1.56,1.16-3.22,2.14-4.95,2.95c-0.26,0.12-1.27,0.44-2.09,0.7c-6.98,2.22-13.32,4.58-14.08,9.09
		c-0.21,1.25-0.12,3.67,2.85,5.89c2.09,1.56,4.7,1.76,6.73,1.76c0.44,0,0.87-0.01,1.28-0.02l0.71-0.01
		c8.25-0.07,15.55-2.1,21.71-6.03c1-0.24,2.4-1.15,5.93-4.43c1.78-1.66,3.45-3.53,4.95-5.56l0.29-0.4c2.65-3.59,6.65-9,4.6-15.72
		c-0.63-2.07-2.29-3.89-3.58-5.04c-0.67-0.6-1.39-1.16-2.09-1.62C162.27,95.55,160.35,94.87,158.53,94.87L158.53,94.87z"/>
	<path style="fill:#FFFFFF;" d="M153.3,126.51c-5.44,3.72-12.25,5.92-20.74,6.01c-1.89,0.03-4.9,0.3-6.76-1.08
		c-6.92-5.17,10.37-9.08,12.74-10.18c1.97-0.92,3.77-1.99,5.44-3.2C146.97,121.75,150.53,124.6,153.3,126.51z"/>
	<path style="fill:#0088C5;" d="M162.56,117.82c-1.35,1.83-2.85,3.53-4.52,5.12c-0.38,0.35-4.23,3.9-4.66,3.64
		c-0.03-0.03-0.05-0.03-0.08-0.05c-2.77-1.91-6.33-4.77-9.32-8.46c0.03-0.03,0.08-0.05,0.11-0.08c0.57-0.43,1.13-0.86,1.67-1.35
		c0.08-0.05,0.16-0.11,0.22-0.19c0.54-0.46,1.08-0.97,1.59-1.48c3.23-3.29,5.39-7.16,6.62-11.9c0.92-3.47,2.8-7.08,8.46-3.42
		c0.54,0.38,1.13,0.83,1.7,1.32c1.21,1.1,2.29,2.42,2.64,3.58C168.62,109.93,165.18,114.29,162.56,117.82z"/>
</g>
<g>
	<path style="fill-rule:evenodd;clip-rule:evenodd;fill:#009FF9;" d="M132.91,149.7c0.43,8.05-1.56,19.87-6.92,26.8
		c-6.33,8.16-17.88,13.49-31.67,14.62c-1.64,0.13-3.45,0.22-5.17,0.22h-3.66c-1.72,0-3.53-0.08-5.17-0.22
		c-13.79-1.13-25.34-6.46-31.67-14.62c-5.36-6.92-7.35-18.74-6.92-26.8c0.24-4.5,1.21-9.08,2.18-13.47c0.48-2.26,1-4.52,1.37-6.79
		c0.46-2.5,0.19-7.19,0.16-7.43c-0.32-3.53-1.37-6.81-2.34-9.53c-3.88-10.85-4.52-20.95-2.07-31.86
		c2.24-9.86,6.92-18.23,12.82-22.94c9.88-7.86,21.33-12.39,31.45-12.39h4.04c10.13,0,21.57,4.52,31.45,12.39
		c5.9,4.71,10.58,13.09,12.79,22.94c2.48,10.91,1.83,21.01-2.05,31.86c-1,2.72-2.02,6.01-2.34,9.59c-0.03,0.19-0.3,4.87,0.13,7.38
		c0.4,2.29,0.92,4.52,1.4,6.79C131.68,140.65,132.67,145.2,132.91,149.7z"/>
	<path d="M133.88,135.56c-0.48-2.24-0.97-4.44-1.35-6.68c-0.32-1.75-0.19-5.39-0.13-6.57c0.3-3.18,1.27-6.19,2.18-8.75
		c4.04-11.28,4.74-22.27,2.15-33.66c-2.37-10.56-7.46-19.58-13.95-24.75c-10.42-8.32-22.59-13.09-33.45-13.09H85.3
		c-10.85,0-23.03,4.77-33.47,13.09c-6.46,5.17-11.55,14.19-13.95,24.75c-2.56,11.39-1.86,22.38,2.18,33.66
		c0.92,2.56,1.88,5.57,2.15,8.7c0.08,1.24,0.22,4.87-0.11,6.62c-0.38,2.24-0.86,4.44-1.35,6.65c-1,4.52-2.02,9.24-2.26,14
		c-0.46,8.91,1.7,21.3,7.59,28.92c6.89,8.89,19.28,14.68,33.96,15.86c1.75,0.16,3.61,0.22,5.44,0.22h3.66c1.8,0,3.69-0.05,5.44-0.22
		c14.68-1.18,27.06-6.97,33.96-15.86c5.9-7.62,8.05-20.01,7.59-28.92C135.9,144.77,134.88,140.09,133.88,135.56z M89.15,191.34
		h-3.66c-1.72,0-3.53-0.08-5.17-0.22c-13.79-1.13-25.34-6.46-31.67-14.62c-5.36-6.92-7.35-18.74-6.92-26.8
		c0.24-4.5,1.21-9.08,2.18-13.47c0.48-2.26,1-4.52,1.37-6.79c0.46-2.5,0.19-7.19,0.16-7.43c-0.32-3.53-1.37-6.81-2.34-9.53
		c-3.88-10.85-4.52-20.95-2.07-31.86c2.24-9.86,6.92-18.23,12.82-22.94c9.88-7.86,21.33-12.39,31.45-12.39h4.04
		c10.13,0,21.57,4.52,31.45,12.39c5.9,4.71,10.58,13.09,12.79,22.94c2.48,10.91,1.83,21.01-2.05,31.86c-1,2.72-2.02,6.01-2.34,9.59
		c-0.03,0.19-0.3,4.87,0.13,7.38c0.4,2.29,0.92,4.52,1.4,6.79c0.94,4.42,1.94,8.97,2.18,13.47c0.43,8.05-1.56,19.87-6.92,26.8
		c-6.33,8.16-17.88,13.49-31.67,14.62C92.68,191.25,90.88,191.34,89.15,191.34z"/>
</g>
</svg>
