<?xml version="1.0" encoding="utf-8"?>
<!-- Generator: Adobe Illustrator 26.0.3, SVG Export Plug-In . SVG Version: 6.00 Build 0)  -->
<svg version="1.1" id="레이어_1" xmlns="http://www.w3.org/2000/svg" xmlns:xlink="http://www.w3.org/1999/xlink" x="0px"
	 y="0px" viewBox="0 0 232 158" style="enable-background:new 0 0 232 158;" xml:space="preserve">
<g>
	<polygon style="fill:#292929;" points="34.6,106 48.8,138.4 21.8,147.8 21.8,151 26.5,156.3 59.7,144.3 84,155.2 88.5,151 
		88.5,147.8 64.3,138 44.2,104.7 34.6,102.8 	"/>
	<path d="M26.5,157.3c-0.3,0-0.5-0.1-0.7-0.3l-4.7-5.3c-0.2-0.2-0.2-0.4-0.2-0.6v-3.2c0-0.4,0.3-0.8,0.6-0.9l26.1-9.1l-13.8-31.5
		c-0.1-0.1-0.1-0.3-0.1-0.4v-3.2c0-0.3,0.1-0.6,0.4-0.7c0.2-0.2,0.5-0.3,0.8-0.2l9.6,1.9c0.3,0.1,0.5,0.2,0.6,0.4l20,33l23.9,9.8
		c0.4,0.1,0.6,0.5,0.6,0.9v3.2c0,0.3-0.1,0.5-0.3,0.7l-4.5,4.2c-0.3,0.3-0.7,0.3-1,0.2l-24-10.7l-32.8,11.9
		C26.7,157.3,26.6,157.3,26.5,157.3z M22.8,150.7l4,4.5l32.6-11.8c0.2-0.1,0.5-0.1,0.7,0l23.7,10.6l3.8-3.4v-2.1L64,138.8
		c-0.2-0.1-0.4-0.2-0.5-0.4l-20-32.9l-8-1.6v1.8L49.7,138c0.1,0.2,0.1,0.5,0,0.8c-0.1,0.2-0.3,0.4-0.6,0.5l-26.4,9.2V150.7z"/>
</g>
<g>
	<polygon style="fill:#292929;" points="34.6,102.8 48.8,135.2 21.8,147.8 26.5,153.2 59.7,141.1 84,152 88.5,147.8 64.3,134.8 
		44.2,101.5 	"/>
	<path d="M26.5,154.1c-0.3,0-0.5-0.1-0.7-0.3l-4.7-5.3c-0.2-0.2-0.3-0.5-0.2-0.8c0.1-0.3,0.3-0.5,0.5-0.7l26.2-12.2l-13.9-31.6
		c-0.1-0.3-0.1-0.6,0-0.9c0.1-0.3,0.4-0.4,0.7-0.5l9.6-1.3c0.4,0,0.7,0.1,0.9,0.5l20,33L89,147c0.3,0.1,0.5,0.4,0.5,0.7
		c0,0.3-0.1,0.6-0.3,0.8l-4.5,4.2c-0.3,0.3-0.7,0.3-1,0.2l-24-10.7l-32.8,11.9C26.7,154.1,26.6,154.1,26.5,154.1z M23.4,148.2
		l3.4,3.9l32.6-11.8c0.2-0.1,0.5-0.1,0.7,0l23.7,10.6l3.1-2.8l-23-12.4c-0.1-0.1-0.3-0.2-0.4-0.3l-19.8-32.7l-7.7,1l13.7,31.3
		c0.2,0.5,0,1-0.5,1.3L23.4,148.2z"/>
</g>
<g>
	<polygon style="fill:#292929;" points="195.7,106 181.5,138.4 208.5,147.8 208.5,151 203.8,156.3 170.6,144.3 146.3,155.2 
		141.8,151 141.8,147.8 166,138 186.1,104.7 195.7,102.8 	"/>
	<path d="M203.8,157.3c-0.1,0-0.2,0-0.3-0.1l-32.8-11.9l-24,10.7c-0.3,0.2-0.8,0.1-1-0.2l-4.5-4.2c-0.2-0.2-0.3-0.4-0.3-0.7v-3.2
		c0-0.4,0.2-0.7,0.6-0.9l23.9-9.8l20-33c0.1-0.2,0.4-0.4,0.6-0.4l9.6-1.9c0.3-0.1,0.6,0,0.8,0.2c0.2,0.2,0.4,0.5,0.4,0.7v3.2
		c0,0.1,0,0.3-0.1,0.4l-13.8,31.5l26.1,9.1c0.4,0.1,0.6,0.5,0.6,0.9v3.2c0,0.2-0.1,0.5-0.2,0.6l-4.7,5.3
		C204.3,157.2,204.1,157.3,203.8,157.3z M170.6,143.4c0.1,0,0.2,0,0.3,0.1l32.6,11.8l4-4.5v-2.2l-26.4-9.2c-0.3-0.1-0.5-0.3-0.6-0.5
		c-0.1-0.2-0.1-0.5,0-0.8l14.2-32.2v-1.8l-8,1.6l-20,32.9c-0.1,0.2-0.3,0.3-0.5,0.4l-23.6,9.6v2.1l3.8,3.4l23.7-10.6
		C170.4,143.4,170.5,143.4,170.6,143.4z M195.7,106L195.7,106L195.7,106z"/>
</g>
<g>
	<polygon style="fill:#292929;" points="195.7,102.8 181.5,135.2 208.5,147.8 203.8,153.2 170.6,141.1 146.3,152 141.8,147.8 
		166,134.8 186.1,101.5 	"/>
	<path d="M203.8,154.1c-0.1,0-0.2,0-0.3-0.1l-32.8-11.9l-24,10.7c-0.3,0.2-0.8,0.1-1-0.2l-4.5-4.2c-0.2-0.2-0.3-0.5-0.3-0.8
		c0-0.3,0.2-0.6,0.5-0.7l23.9-13l20-33c0.2-0.3,0.6-0.5,0.9-0.5l9.6,1.3c0.3,0,0.6,0.2,0.7,0.5c0.1,0.3,0.2,0.6,0,0.9l-13.9,31.6
		l26.2,12.2c0.3,0.1,0.5,0.4,0.5,0.7c0.1,0.3,0,0.6-0.2,0.8l-4.7,5.3C204.3,154,204.1,154.1,203.8,154.1z M170.6,140.2
		c0.1,0,0.2,0,0.3,0.1l32.6,11.8l3.4-3.9L181,136.1c-0.5-0.2-0.7-0.8-0.5-1.3l13.7-31.3l-7.7-1l-19.8,32.7c-0.1,0.1-0.2,0.3-0.4,0.3
		l-23,12.4l3.1,2.8l23.7-10.6C170.4,140.2,170.5,140.2,170.6,140.2z"/>
</g>
<g>
	<circle style="fill:#D10D21;" cx="115.8" cy="74.2" r="44.2"/>
	<path d="M115.8,119.3c-24.9,0-45.2-20.3-45.2-45.2S90.9,29,115.8,29S161,49.3,161,74.2S140.7,119.3,115.8,119.3z M115.8,30.9
		c-23.8,0-43.2,19.4-43.2,43.2c0,23.8,19.4,43.2,43.2,43.2c23.8,0,43.2-19.4,43.2-43.2C159.1,50.3,139.7,30.9,115.8,30.9z"/>
</g>
<g>
	<circle style="fill:#D5D5D5;" cx="115.8" cy="74.2" r="39"/>
	<path d="M115.8,114.2c-22.1,0-40-17.9-40-40c0-22.1,17.9-40,40-40c22.1,0,40,17.9,40,40C155.8,96.2,137.9,114.2,115.8,114.2z
		 M115.8,36.1c-21,0-38.1,17.1-38.1,38.1c0,21,17.1,38.1,38.1,38.1c21,0,38.1-17.1,38.1-38.1C153.9,53.2,136.8,36.1,115.8,36.1z"/>
</g>
<g>
	<path style="fill:#868686;" d="M47.8,107.5c0,1-2.1,1.9-4.7,1.9s-4.7-0.8-4.7-1.9V22.7h9.3V107.5z"/>
	<path d="M43.2,110.3c-2.7,0-5.6-0.9-5.6-2.8V22.7c0-0.5,0.4-1,1-1h9.3c0.5,0,1,0.4,1,1v84.8C48.8,109.5,45.9,110.3,43.2,110.3z
		 M39.4,23.7v83.8c0.1,0.2,1.4,0.9,3.7,0.9c2.3,0,3.5-0.7,3.7-1V23.7H39.4z"/>
</g>
<g>
	<path style="fill:#292929;" d="M63.3,135.2c0,1-2.1,1.9-4.7,1.9s-4.7-0.8-4.7-1.9V63h9.3V135.2z"/>
	<path d="M58.7,138c-2.7,0-5.6-0.9-5.6-2.8V63c0-0.5,0.4-1,1-1h9.3c0.5,0,1,0.4,1,1v72.1C64.3,137.2,61.4,138,58.7,138z M54.9,64
		v71.2c0.1,0.2,1.4,0.9,3.7,0.9c2.3,0,3.5-0.7,3.7-1V64H54.9z"/>
</g>
<g>
	<path style="fill:#292929;" d="M178.6,135.2c0,1-2.1,1.9-4.7,1.9c-2.6,0-4.7-0.8-4.7-1.9V63h9.3V135.2z"/>
	<path d="M174,138c-2.7,0-5.6-0.9-5.6-2.8V63c0-0.5,0.4-1,1-1h9.3c0.5,0,1,0.4,1,1v72.1C179.6,137.2,176.7,138,174,138z M170.2,64
		v71.2c0.1,0.2,1.4,0.9,3.7,0.9c2.3,0,3.5-0.7,3.7-1V64H170.2z"/>
</g>
<g>
	<g>
		<path style="fill:#970E19;" d="M118.9,40.8c0,9.6-14.9,20.1-33.2,20.1S52.6,50.4,52.6,40.8V24h66.3V40.8z"/>
		<path d="M85.8,61.8c-19.5,0-34.1-11.1-34.1-21V23.1h68.3v17.7C119.9,50.7,105.3,61.8,85.8,61.8z M53.6,25v15.8
			c0,8.8,14.1,19.1,32.2,19.1c18.1,0,32.2-10.3,32.2-19.1V25H53.6z"/>
	</g>
	<g>
		<ellipse style="fill:#D10D21;" cx="85.8" cy="24" rx="33.2" ry="22.4"/>
		<path d="M85.8,47.4C67,47.4,51.7,36.9,51.7,24S67,0.7,85.8,0.7s34.1,10.5,34.1,23.3S104.6,47.4,85.8,47.4z M85.8,2.6
			C68,2.6,53.6,12.2,53.6,24S68,45.5,85.8,45.5S118,35.9,118,24S103.5,2.6,85.8,2.6z"/>
	</g>
	<g>
		<ellipse style="fill:#FFFFFF;" cx="85.8" cy="24" rx="28.8" ry="19.5"/>
		<path d="M85.8,44.5C69.3,44.5,56,35.3,56,24C56,12.7,69.3,3.5,85.8,3.5c16.4,0,29.8,9.2,29.8,20.5
			C115.6,35.3,102.2,44.5,85.8,44.5z M85.8,5.5c-15.4,0-27.9,8.3-27.9,18.6s12.5,18.6,27.9,18.6s27.9-8.3,27.9-18.6
			S101.2,5.5,85.8,5.5z"/>
	</g>
	<g>
		<path style="fill:#D5D5D5;" d="M85.8,50.3c-18.3,0-33.2-9.2-33.2-20.5V36c0,11.3,14.9,20.5,33.2,20.5c18.3,0,33.2-9.2,33.2-20.5
			v-6.2C118.9,41.1,104.1,50.3,85.8,50.3z"/>
		<path d="M85.8,57.5C67,57.5,51.7,47.9,51.7,36v-6.2h1.9c0,10.8,14.4,19.5,32.2,19.5S118,40.6,118,29.8h1.9V36
			C119.9,47.9,104.6,57.5,85.8,57.5z M53.6,37c0.8,10.3,14.9,18.6,32.2,18.6c17.2,0,31.4-8.3,32.2-18.6
			c-4.7,8.3-17.3,14.3-32.2,14.3S58.3,45.3,53.6,37z"/>
	</g>
</g>
<g>
	<g>
		<path style="fill:#970E19;" d="M186.3,40.8c0,9.6-14.9,20.1-33.2,20.1s-33.2-10.5-33.2-20.1V24h66.3V40.8z"/>
		<path d="M153.1,61.8c-19.5,0-34.1-11.1-34.1-21V23.1h68.3v17.7C187.2,50.7,172.6,61.8,153.1,61.8z M120.9,25v15.8
			c0,8.8,14.1,19.1,32.2,19.1c18.1,0,32.2-10.3,32.2-19.1V25H120.9z"/>
	</g>
	<g>
		<ellipse style="fill:#D10D21;" cx="153.1" cy="24" rx="33.2" ry="22.4"/>
		<path d="M153.1,47.4C134.3,47.4,119,36.9,119,24s15.3-23.3,34.1-23.3s34.1,10.5,34.1,23.3S171.9,47.4,153.1,47.4z M153.1,2.6
			c-17.8,0-32.2,9.6-32.2,21.4s14.4,21.4,32.2,21.4c17.8,0,32.2-9.6,32.2-21.4S170.9,2.6,153.1,2.6z"/>
	</g>
	<g>
		<ellipse style="fill:#FFFFFF;" cx="153.1" cy="24" rx="28.8" ry="19.5"/>
		<path d="M153.1,44.5c-16.4,0-29.8-9.2-29.8-20.5c0-11.3,13.4-20.5,29.8-20.5s29.8,9.2,29.8,20.5C182.9,35.3,169.5,44.5,153.1,44.5
			z M153.1,5.5c-15.4,0-27.9,8.3-27.9,18.6s12.5,18.6,27.9,18.6S181,34.3,181,24S168.5,5.5,153.1,5.5z"/>
	</g>
	<g>
		<path style="fill:#D5D5D5;" d="M153.1,50.3c-18.3,0-33.2-9.2-33.2-20.5V36c0,11.3,14.9,20.5,33.2,20.5c18.3,0,33.2-9.2,33.2-20.5
			v-6.2C186.3,41.1,171.4,50.3,153.1,50.3z"/>
		<path d="M153.1,57.5c-18.8,0-34.1-9.6-34.1-21.4v-6.2h1.9c0,10.8,14.4,19.5,32.2,19.5c17.8,0,32.2-8.8,32.2-19.5h1.9V36
			C187.2,47.9,171.9,57.5,153.1,57.5z M120.9,37c0.8,10.3,14.9,18.6,32.2,18.6c17.2,0,31.4-8.3,32.2-18.6
			c-4.7,8.3-17.3,14.3-32.2,14.3S125.6,45.3,120.9,37z"/>
	</g>
</g>
<g>
	<path style="fill:#868686;" d="M193.5,110.1c0,1-2.1,1.9-4.7,1.9c-2.6,0-4.7-0.8-4.7-1.9V22.7h9.3V110.1z"/>
	<path d="M188.8,112.9c-2.7,0-5.6-0.9-5.6-2.8V22.7c0-0.5,0.4-1,1-1h9.3c0.5,0,1,0.4,1,1v87.4C194.5,112,191.6,112.9,188.8,112.9z
		 M185.1,23.7v86.4c0.1,0.2,1.4,0.9,3.7,0.9c2.3,0,3.5-0.7,3.7-1V23.7H185.1z"/>
</g>
<g>
	<ellipse style="fill:#FFD000;" cx="188.8" cy="21.3" rx="42.2" ry="19.5"/>
	<path d="M188.8,41.8c-24.2,0-43.2-9-43.2-20.5s19-20.5,43.2-20.5s43.2,9,43.2,20.5S213,41.8,188.8,41.8z M188.8,2.8
		c-22.7,0-41.2,8.3-41.2,18.5c0,10.2,18.5,18.5,41.2,18.5s41.2-8.3,41.2-18.5C230.1,11.1,211.6,2.8,188.8,2.8z"/>
</g>
<g>
	<ellipse style="fill:#FFAB08;" cx="188.8" cy="12.6" rx="13.8" ry="7.4"/>
	<path d="M188.8,20.9c-8.3,0-14.7-3.7-14.7-8.3c0-4.7,6.5-8.3,14.7-8.3c8.3,0,14.7,3.7,14.7,8.3C203.6,17.3,197.1,20.9,188.8,20.9z
		 M188.8,6.2c-6.9,0-12.8,2.9-12.8,6.4s5.9,6.4,12.8,6.4c6.9,0,12.8-2.9,12.8-6.4S195.8,6.2,188.8,6.2z"/>
</g>
<g>
	<path style="fill:#616161;" d="M193.5,10.9c0,1.4-2.1,2.5-4.7,2.5c-2.6,0-4.7-1.1-4.7-2.5V5.3h9.3V10.9z"/>
	<path d="M188.8,14.3c-3.2,0-5.6-1.5-5.6-3.5V5.3c0-0.5,0.4-1,1-1h9.3c0.5,0,1,0.4,1,1v5.6C194.5,12.8,192.1,14.3,188.8,14.3z
		 M185.1,6.2v4.6c0,0.6,1.5,1.5,3.7,1.5c2.2,0,3.7-0.9,3.7-1.5V6.2H185.1z"/>
</g>
<g>
	<ellipse style="fill:#959595;" cx="188.8" cy="5.3" rx="4.7" ry="2.5"/>
	<path d="M188.8,8.7c-3.2,0-5.6-1.5-5.6-3.5s2.4-3.5,5.6-3.5c3.2,0,5.6,1.5,5.6,3.5S192.1,8.7,188.8,8.7z M188.8,3.7
		c-2.2,0-3.7,0.9-3.7,1.5s1.5,1.5,3.7,1.5c2.2,0,3.7-0.9,3.7-1.5S191.1,3.7,188.8,3.7z"/>
</g>
<g>
	<g>
		<path style="fill:#970E19;" d="M207.1,84.1c0,7.4-14.9,13.3-33.2,13.3s-33.2-6-33.2-13.3V65.7h66.3V84.1z"/>
		<path d="M174,98.4c-19.1,0-34.1-6.3-34.1-14.3V64.7h68.3v19.4C208.1,92.1,193.1,98.4,174,98.4z M141.7,66.6v17.4
			c0,6.7,14.8,12.4,32.2,12.4c17.5,0,32.2-5.7,32.2-12.4V66.6H141.7z"/>
	</g>
	<g>
		<ellipse style="fill:#D10D21;" cx="174" cy="65.7" rx="33.2" ry="13.3"/>
		<path d="M174,80c-19.1,0-34.1-6.3-34.1-14.3s15-14.3,34.1-14.3c19.1,0,34.1,6.3,34.1,14.3S193.1,80,174,80z M174,53.3
			c-17.5,0-32.2,5.7-32.2,12.4c0,6.7,14.8,12.4,32.2,12.4c17.5,0,32.2-5.7,32.2-12.4C206.2,59,191.4,53.3,174,53.3z"/>
	</g>
	<g>
		<ellipse style="fill:#FFFFFF;" cx="174" cy="65.7" rx="28.8" ry="10.1"/>
		<path d="M174,76.7c-16.7,0-29.8-4.9-29.8-11s13.1-11,29.8-11s29.8,4.9,29.8,11S190.7,76.7,174,76.7z M174,56.5
			c-16.7,0-27.9,4.7-27.9,9.1s11.2,9.1,27.9,9.1s27.9-4.7,27.9-9.1S190.6,56.5,174,56.5z"/>
	</g>
	<g>
		<path style="fill:#D5D5D5;" d="M174,85.3c-18.3,0-33.2-6-33.2-13.3v5.8c0,7.4,14.9,13.3,33.2,13.3c18.3,0,33.2-6,33.2-13.3V72
			C207.1,79.3,192.3,85.3,174,85.3z"/>
		<path d="M174,92c-19.1,0-34.1-6.3-34.1-14.3V72h1.9c0,6.7,14.8,12.4,32.2,12.4c17.5,0,32.2-5.7,32.2-12.4h1.9v5.8
			C208.1,85.8,193.1,92,174,92z M141.7,76.8v1c0,6.7,14.8,12.4,32.2,12.4c17.5,0,32.2-5.7,32.2-12.4v-1c-4.6,5.6-17.1,9.5-32.2,9.5
			S146.4,82.4,141.7,76.8z"/>
	</g>
</g>
<g>
	<g>
		<path style="fill:#970E19;" d="M91.8,84.1c0,7.4-14.9,13.3-33.2,13.3s-33.2-6-33.2-13.3V65.7h66.3V84.1z"/>
		<path d="M58.7,98.4c-19.1,0-34.1-6.3-34.1-14.3V64.7h68.3v19.4C92.8,92.1,77.8,98.4,58.7,98.4z M26.4,66.6v17.4
			c0,6.7,14.8,12.4,32.2,12.4s32.2-5.7,32.2-12.4V66.6H26.4z"/>
	</g>
	<g>
		<ellipse style="fill:#D10D21;" cx="58.7" cy="65.7" rx="33.2" ry="13.3"/>
		<path d="M58.7,80c-19.1,0-34.1-6.3-34.1-14.3s15-14.3,34.1-14.3c19.1,0,34.1,6.3,34.1,14.3S77.8,80,58.7,80z M58.7,53.3
			c-17.5,0-32.2,5.7-32.2,12.4c0,6.7,14.8,12.4,32.2,12.4s32.2-5.7,32.2-12.4C90.9,59,76.1,53.3,58.7,53.3z"/>
	</g>
	<g>
		<ellipse style="fill:#FFFFFF;" cx="58.7" cy="65.7" rx="28.8" ry="10.1"/>
		<path d="M58.7,76.7c-16.7,0-29.8-4.9-29.8-11s13.1-11,29.8-11c16.7,0,29.8,4.9,29.8,11S75.4,76.7,58.7,76.7z M58.7,56.5
			c-16.7,0-27.9,4.7-27.9,9.1s11.2,9.1,27.9,9.1c16.7,0,27.9-4.7,27.9-9.1S75.3,56.5,58.7,56.5z"/>
	</g>
	<g>
		<path style="fill:#D5D5D5;" d="M58.7,85.3c-18.3,0-33.2-6-33.2-13.3v5.8c0,7.4,14.9,13.3,33.2,13.3c18.3,0,33.2-6,33.2-13.3V72
			C91.8,79.3,77,85.3,58.7,85.3z"/>
		<path d="M58.7,92c-19.1,0-34.1-6.3-34.1-14.3V72h1.9c0,6.7,14.8,12.4,32.2,12.4S90.9,78.7,90.9,72h1.9v5.8
			C92.8,85.8,77.8,92,58.7,92z M26.4,76.8v1c0,6.7,14.8,12.4,32.2,12.4s32.2-5.7,32.2-12.4v-1c-4.6,5.6-17.1,9.5-32.2,9.5
			S31.1,82.4,26.4,76.8z"/>
	</g>
</g>
<g>
	<ellipse style="fill:#FFD000;" cx="43.2" cy="21.3" rx="42.2" ry="19.5"/>
	<path d="M43.2,41.8C19,41.8,0,32.8,0,21.3S19,0.9,43.2,0.9c24.2,0,43.2,9,43.2,20.5S67.4,41.8,43.2,41.8z M43.2,2.8
		c-22.7,0-41.2,8.3-41.2,18.5c0,10.2,18.5,18.5,41.2,18.5c22.7,0,41.2-8.3,41.2-18.5C84.4,11.1,65.9,2.8,43.2,2.8z"/>
</g>
<g>
	<ellipse style="fill:#FFAB08;" cx="43.2" cy="12.6" rx="13.8" ry="7.4"/>
	<path d="M43.2,20.9c-8.3,0-14.7-3.7-14.7-8.3c0-4.7,6.5-8.3,14.7-8.3S57.9,8,57.9,12.6C57.9,17.3,51.4,20.9,43.2,20.9z M43.2,6.2
		c-6.9,0-12.8,2.9-12.8,6.4S36.2,19,43.2,19c6.9,0,12.8-2.9,12.8-6.4S50.1,6.2,43.2,6.2z"/>
</g>
<g>
	<path style="fill:#616161;" d="M47.8,10.9c0,1.4-2.1,2.5-4.7,2.5s-4.7-1.1-4.7-2.5V5.3h9.3V10.9z"/>
	<path d="M43.2,14.3c-3.2,0-5.6-1.5-5.6-3.5V5.3c0-0.5,0.4-1,1-1h9.3c0.5,0,1,0.4,1,1v5.6C48.8,12.8,46.4,14.3,43.2,14.3z M39.4,6.2
		v4.6c0,0.6,1.5,1.5,3.7,1.5c2.2,0,3.7-0.9,3.7-1.5V6.2H39.4z"/>
</g>
<g>
	<ellipse style="fill:#959595;" cx="43.2" cy="5.3" rx="4.7" ry="2.5"/>
	<path d="M43.2,8.7c-3.2,0-5.6-1.5-5.6-3.5s2.4-3.5,5.6-3.5c3.2,0,5.6,1.5,5.6,3.5S46.4,8.7,43.2,8.7z M43.2,3.7
		c-2.2,0-3.7,0.9-3.7,1.5s1.5,1.5,3.7,1.5c2.2,0,3.7-0.9,3.7-1.5S45.4,3.7,43.2,3.7z"/>
</g>
</svg>
