<?xml version="1.0" encoding="utf-8"?>
<!-- Generator: Adobe Illustrator 26.5.0, SVG Export Plug-In . SVG Version: 6.00 Build 0)  -->
<svg version="1.1" id="레이어_1" xmlns="http://www.w3.org/2000/svg" xmlns:xlink="http://www.w3.org/1999/xlink" x="0px"
	 y="0px" viewBox="0 0 250 250" style="enable-background:new 0 0 250 250;" xml:space="preserve">
<g>
	<polygon style="fill:#FFF266;" points="249,103.4 149.6,212.9 136.5,103.4 220,2.5 235.8,54.3 	"/>
	<path d="M149.6,215.7c-0.1,0-0.3,0-0.4-0.2c-0.3-0.4-0.4-0.8-0.5-1.6l-13.2-109.5c-0.1-1.2,0.1-2.6,0.5-3.2L219.6,0.3
		c0.4-0.6,0.9-0.2,1.2,0.6l15.8,51.6c0,0,0,0,0.1,0.2l13.2,49c0.2,0.6,0.2,1.4,0.1,2.2c-0.1,0.8-0.3,1.4-0.6,1.8L150,215.5
		C149.9,215.5,149.7,215.7,149.6,215.7z M137.6,104.8l12.6,104.7l97.3-107.1l-12.4-46.2L219.8,5.9L137.6,104.8z"/>
</g>
<g>
	<path style="fill:#FFF266;" d="M102.4,192.2c0,0,3.5,48.9,24.2,54.9c20.7,6,33.6-25.7,32.6-68.3C158.3,136.2,133.7,29,95.5,67.5
		c0,0-21.6,0.5-20.7,47.2c0,0-11.1,12.3-3.9,35.6S95.4,170.8,102.4,192.2z"/>
	<path d="M131.3,250c-1.6,0-3.2-0.2-4.9-0.7c-11.1-3.2-17.3-18.4-20.5-30.7c-3.1-11.8-4.2-22.8-4.4-25.4
		c-3.2-9.7-8.7-14.1-14.5-18.7c-6.3-5.1-13-10.4-16.8-23c-2.3-7.5-3.1-14.7-2.3-21.5c1.1-9.2,4.7-14.8,6.1-16.7
		c-0.1-13.3,1.5-24,4.8-32.4c5.9-14.5,15.2-15.8,16.6-15.8c6.6-6.6,13.3-9.2,19.7-7.8c5.8,1.2,11.4,5.8,16.7,13.6
		c17.5,25.4,28,79.8,28.5,107.7c0.4,22-2.7,41.4-8.7,54.5C146.3,244.2,139.2,250,131.3,250z M103.3,191.7c0,0.2,0.9,12.1,4.2,24.5
		c4.4,16.5,10.9,26.1,19.1,28.5c9.5,2.7,17.6-2.6,23.5-15c5.6-12.3,8.5-30.3,8.1-51c-0.6-26.9-10.7-79.6-27.6-104.1
		C119.7,59,108,57.1,95.8,69.4c-0.1,0.2-0.2,0.2-0.4,0.2c-0.1,0-9.7,0.3-15.5,14.5c-3.1,7.5-4.5,17.7-4.2,30.3
		c0,0.9-0.2,1.7-0.6,2.2c-0.1,0-4.6,5.1-5.6,14.5c-0.6,5.5,0.1,11.4,2,17.7c3.5,11.4,9.8,16.4,15.9,21.3c5.9,4.8,12.1,9.7,15.6,20.6
		C103.2,191,103.3,191.4,103.3,191.7L103.3,191.7z"/>
</g>
<g>
	<g>
		<path style="fill:#3B3B3B;" d="M60.4,168.7l91.7-73.6c4-2.9,8.5,0.8,10.3,8.8l0,0c2.1,8.6,0.4,19.3-3.7,23.6l-89.4,87.3
			L60.4,168.7z"/>
		<path d="M69.3,217.5c-0.2,0-0.3,0-0.4-0.2c-0.4-0.2-0.5-0.8-0.7-1.3l-8.9-46.5c-0.1-0.6-0.1-1.3,0-1.9s0.4-1.1,0.7-1.3l91.7-73.6
			l0,0c4.6-3.2,9.6,1,11.8,9.9c2.4,9.9,0.5,21.9-4.2,27.1l0,0l-89.4,87.5C69.7,217.4,69.5,217.5,69.3,217.5z M62,170.1l7.9,41.4
			l88.3-86.4c3.5-3.8,4.9-12.8,3.2-20.2c-1.6-6.7-5.4-9.9-8.8-7.4L62,170.1z"/>
	</g>
	<g>
		<path style="fill:#9E5725;" d="M61.7,161.3c1.8,1.3,3.4,2.7,4.9,4c3.2,2.9,7.5,8.6,9.2,18.5c4.5,27.5-8.4,41.9-19.2,46.3
			c-7.1,2.9-14,1.5-20.9-2.5c-6.8-4.2-13.4-6.1-19.4-14.5c-3.5-4.8-8.8-13.2-7.4-23.5c3.1,4,7.4,7.6,11.3,6.7
			c5.8-1.3,9.4-12.8,12.4-21.5c3.1-8.6,7.2-14.1,12.2-17.5C49.8,154,56.3,157.1,61.7,161.3z"/>
		<path d="M48.8,234.1c-4.3,0-8.8-1.3-13.4-4.2c-1.6-1-3.2-1.7-4.7-2.7c-5.3-2.9-10.3-5.5-15.1-12.2c-2.6-3.6-9.6-13.3-7.9-26.1
			c0.1-0.8,0.4-1.3,0.7-1.5c0.4-0.2,0.7-0.2,1,0.2c3.7,4.8,7.6,7.1,10.6,6.3c4.9-1.1,8.1-10.3,10.9-18.5c0.3-0.8,0.5-1.3,0.7-2.1
			c3.1-8.8,7.2-14.7,12.7-18.3c4.5-3.1,10.3-1.7,17.7,3.8l0,0c1.5,1.1,3.2,2.5,4.9,4c3.5,3.2,8,9.2,9.8,20
			c1.6,9.5,1.2,18.3-0.9,25.9c-3.1,11.1-10.2,19.8-19.2,23.5C54.1,233.8,51.5,234.1,48.8,234.1z M9.7,193.5
			c0.1,7.1,3.8,13.2,7.1,17.7c4.5,6.3,9.4,8.8,14.4,11.6c1.5,0.8,3.2,1.7,4.8,2.7c7.1,4.4,13.9,5.1,20.4,2.5
			c8.3-3.4,14.9-11.2,17.7-21.2c1.8-6.5,2-13.9,0.7-22.1c-1.5-9.2-5.5-14.3-8.6-17.2c-1.7-1.5-3.3-2.9-4.8-4l0,0
			c-6.8-5.1-12.4-6.5-16.2-3.8c-5,3.2-8.8,8.8-11.6,16.6c-0.3,0.8-0.5,1.3-0.7,2.1c-3,8.4-6.7,18.9-12.5,20.4
			C16.3,199.6,12.3,196.4,9.7,193.5z"/>
	</g>
	<path style="fill:#F2B5B1;" d="M6.2,175.2c4.7,8,8.6,15.3,15.1,11.8c3.8-1.9,7.9-10.9,10.9-0.8c2.4,8.2-1.6,10.1-2.5,16.2
		c-0.9,6.5,2.7,9.5,4.1,14.5c1.2,4.6,0.3,13.9-3.3,11.4c-1.1,2.3-0.8,7.4-1.9,9c-2.1,2.9-5.1-3.4-6.7-5.3
		c-4.2-5.7-9.4-10.1-13.1-17.2c-2.6-5.1-5.1-13.2-5.8-20C2.6,190.1,2.3,176.2,6.2,175.2z"/>
	<path d="M6.2,175.2c3.9,6.7,7.2,12.8,11.9,12.8c1,0,2-0.2,3.2-0.8c2.5-1.3,5.1-5.5,7.4-5.5c1.2,0,2.4,1.1,3.4,4.8
		c2.4,8.2-1.6,10.1-2.5,16.2c-0.9,6.5,2.7,9.5,4.1,14.5c1.1,4,0.4,11.8-2.1,11.8c-0.4,0-0.7-0.2-1.1-0.4c-1.1,2.3-0.8,7.4-1.9,9
		c-0.4,0.6-0.8,0.8-1.2,0.8c-1.9,0-4.1-4.6-5.5-6.1c-4.2-5.9-9.4-10.3-13.1-17.4c-2.6-5.1-5.1-13.2-5.8-20
		C2.6,190.1,2.3,176.2,6.2,175.2 M7.1,169.3l-1.1,0.2c-1.7,0.4-3.1,2.1-4.1,5c-2.2,6.3-1.9,16.8-1.5,21.4c0.9,8.8,4,17.9,6.6,23.1
		c2.8,5.3,6.2,9.2,9.4,12.8c1.5,1.7,2.9,3.2,4.1,5c0.3,0.4,0.6,0.8,1,1.3c1.5,2.3,3.6,5.5,5.9,5.5c1,0,1.9-0.6,2.7-1.7
		c1.4-1.9,1.8-5.1,2.1-7.6c1.6-0.4,3-2.3,3.9-5.3c1.2-4.4,1.2-10.5,0.1-14.9c-0.6-2.3-1.5-4.2-2.4-5.9c-1.3-2.9-1.6-3.4-1.5-4.4
		s0.5-1.9,1.1-3.1c1.2-3.1,3.6-8.6,1.1-17.5c-1.8-6.1-4.1-7.4-5.7-7.4c-2,0-3.9,1.9-5.5,3.4c-1,1-1.9,1.9-2.6,2.3
		c-0.9,0.4-1.7,0.8-2.5,0.8c-3.5,0-6.2-4.6-9.6-10.5L8,170.8L7.1,169.3L7.1,169.3z"/>
</g>
<g>
	<path style="fill:#FFF266;" d="M137.3,162.2c0,0-25.9-26.6-29.6,3.9c-3.7,30.5,11.6,27.6,14.7,32.7"/>
	<path d="M122.4,201.1c-0.2,0-0.4-0.2-0.6-0.3c-0.6-1-2.1-1.7-3.7-2.6c-3.7-1.9-8.7-4.4-10.9-13.1c-1.3-5.1-1.5-11.6-0.6-19.6
		c0.7-6.1,2.3-10.6,4.8-13.3c8.7-9.7,25.4,7.2,26.1,7.8c0.5,0.5,0.7,1.9,0.5,2.9c-0.2,1.2-0.8,1.7-1.3,1.2
		c-0.1-0.2-16.6-16.7-24.5-8c-1.9,2.2-3.2,5.6-3.7,10.4c-0.8,6.6-0.7,11.9,0.4,16c1.8,7,6.1,9.2,9.7,11.1c1.9,1,3.5,1.7,4.4,3.2
		c0.4,0.7,0.6,2,0.2,3.1C123,200.7,122.7,201.1,122.4,201.1z"/>
</g>
<g>
	<path style="fill:#FFF266;" d="M125.4,113.3c0,0-8.2-18.2-12-0.5c-1.8,8.4-2.5,17.7-3.2,26.9c-1.1,13.6-1.8,31.4-9.7,30.3
		c-8.5-1.2-15.6-17.4-15.9-37.5c-0.3-22,3.5-51.6,11.7-64.6"/>
	<path d="M101,172.3c-0.3,0-0.5,0-0.8,0c-9.2-1.4-16.6-18.7-16.8-39.7c-0.1-11.8,0.8-25.1,2.7-36.6c2.2-13.3,5.4-23.7,9.4-30
		c0.4-0.7,1.1-0.5,1.3,0.5c0.3,1,0.2,2.4-0.3,3.1c-7.8,12.3-11.6,40.9-11.3,62.7c0.2,18.6,6.8,34.1,15,35.3c6,0.9,7.3-9.9,8.5-25.2
		c0.1-1,0.1-2.2,0.3-3.2l0.1-0.9c0.7-9,1.5-18.2,3.3-26.8c1.1-5.1,2.6-8,4.5-8.9c4.2-1.7,8.8,8.2,9,8.7c0.4,0.9,0.4,2.2,0,3.2
		c-0.4,0.9-1,1-1.3,0c-0.1-0.2-4.1-8.9-7.3-7.5c-1.3,0.5-2.3,2.6-3.1,6.3c-1.7,7.8-2.4,16.9-3.1,25.6l-0.1,0.9c-0.1,1-0.1,2-0.3,3.2
		C109.9,155.8,108.5,172.3,101,172.3z"/>
</g>
<path d="M81,148.4c-0.2,0-0.4-0.2-0.6-0.5c-6.3-12.8-6.5-32.4-6.5-33.2c0-1.2,0.4-2.2,1-2.2l0,0c0.6,0,1,1,1,2.2l0,0
	c0,0.2,0.2,18.4,5.9,29.8c0.4,0.9,0.4,2.2,0.1,3.2C81.5,148.1,81.2,148.4,81,148.4z"/>
<g>
	<path style="fill:#F2B5B1;" d="M44.4,112.5c-2.1-9.3-5.7-20.2-6.5-30.3C37.4,74.9,39.3,61.1,43,62c3.9,0.8,4.2,13.1,3.3,18.9
		C44.6,91.3,42.4,98.4,44.4,112.5z"/>
	<path d="M40.4,64.2c0.7-1.5,1.6-2.3,2.6-2.2c3.9,0.8,4.2,13.1,3.3,18.9c-1.7,10.3-3.8,17.5-1.8,31.6c-2.1-9.3-5.7-20.2-6.5-30.3
		C37.6,77,38.5,68.2,40.4,64.2 M38.4,58.9L38.4,58.9c-2.7,5.5-3.7,16.5-3.1,23.7c0.6,8.3,2.8,16.7,4.7,24.2c0.8,2.9,1.5,5.8,2,8.4
		c0.7,3.1,2.2,4.8,3.4,3.8c0.3-0.3,0.5-0.6,0.7-1c0.7-1.5,1-3.9,0.6-6.6c-1.4-9.4-0.4-14.7,1-22.4c0.3-1.5,0.6-3.1,0.8-4.7
		c0.9-5.7,0.9-14.8-0.8-21.2c-1.2-4.4-3-7-5.2-7.5C41.3,55.1,39.7,56.2,38.4,58.9L38.4,58.9z"/>
</g>
<g>
	<path style="fill:#F2B5B1;" d="M35.3,135.9c-5.2-4.6-16-0.5-17.7-16.2c-0.8-7.7,2.5-9.3,5.6-7C28,116.2,29.8,129.9,35.3,135.9z"/>
	<path d="M17.4,117c0.1-5.4,3-6.3,5.7-4.5c4.8,3.5,6.7,17.4,12.2,23.4c-5.2-4.6-16-0.5-17.7-16.2C17.4,118.7,17.4,117.8,17.4,117
		 M14.5,116.6L14.5,116.6c0,1.3,0,2.9,0.2,4.2c0.8,6.8,2.9,11.8,6.2,14.6c2.5,2.2,5.4,2.9,8,3.6c2.1,0.6,4,1,5.3,2.2
		c1.4,1.2,3.1-0.1,3.7-3c0.2-0.6,0.2-1.5,0.2-2.2c0.1-2.3-0.6-4.6-1.6-5.8c-2.1-2.3-3.7-6.4-5.3-10.6c-2-5.2-4.1-10.7-7.3-13.1
		c-2.7-2-5.4-1.7-7.2,0.9C15.4,109.8,14.6,112.9,14.5,116.6L14.5,116.6z"/>
</g>
</svg>
