<?xml version="1.0" encoding="utf-8"?>
<!-- Generator: Adobe Illustrator 26.5.0, SVG Export Plug-In . SVG Version: 6.00 Build 0)  -->
<svg version="1.1" id="레이어_5" xmlns="http://www.w3.org/2000/svg" xmlns:xlink="http://www.w3.org/1999/xlink" x="0px"
	 y="0px" viewBox="0 0 199 191" style="enable-background:new 0 0 199 191;" xml:space="preserve">
<g>
	<path style="fill:#C87912;" d="M77.2,0.3C84.9,14.1,96,26,109.4,34.9c2.9,1.9,6.1,3.5,9.3,5c3.7,1.8,7.5,3.7,10.7,6.1
		c3.1,2.3,6,5,8.8,7.6c3.4,3.2,7,6.5,11,9.2c2.7,1.8,5.1,3.9,4.9,6.7c-0.1,1.2-0.7,2.3-1.8,3.1c-1.4,1.1-3.3,1.6-5,1.3
		c-2.8-0.4-5.2-2.2-7.4-3.9l-0.1-0.1c-9.5-7.3-19.6-13.9-30.2-19.4c-1.2-0.6-2.4-1.2-3.4-0.7c-1,0.4-1.5,1.6-1.7,3.6
		c-0.7,7,0,11.1,2.9,16.9c9.5,19.5,20.3,38.7,32,57l0.1,0.1v0.1c0,2-1,3.8-2.9,5.1c-1.6,1-3.5,1.6-5.4,1.6c-1.1,0-2.3-0.2-3.3-0.6
		c-4.6-1.9-7.3-6.3-9.7-10.7c-1.7-3.2-3.4-6.4-5.1-9.6c-10.6-20-20.6-39-38.3-55.2c-2-1.9-3.7-2.5-4.9-1.9c-2.5,1.3-3,7.4-2.5,11.3
		c0.3,2.1,0.8,4.1,1.4,6.1c0.3,1.2,0.7,2.5,1,3.8c3.5,15.9-1.2,33.5-11.6,43.5c-2.2,2.1-6.2,4.1-9.3,3.5c-1.5-0.3-2.6-1.2-3.2-2.5
		c-0.8-1.9-0.1-4.1,0.4-5.8c9-28,4.7-80.4-4.8-110"/>
	<path d="M131.3,134.6c-1.2,0-2.5-0.2-3.5-0.6c-4.8-2-7.5-6.5-10-10.9l-5.2-9.7c-10.6-20-20.6-38.8-38.1-54.9
		c-1.8-1.7-3.3-2.3-4.3-1.8c-2.2,1.1-2.7,7-2.2,10.8c0.3,1.8,0.7,3.7,1.4,6c0.1,0.5,0.3,1,0.4,1.6c0.2,0.7,0.4,1.5,0.6,2.3
		c3.5,16.1-1.2,33.8-11.8,43.9c-2.4,2.3-6.5,4.2-9.8,3.6c-1.6-0.3-2.9-1.3-3.6-2.8c-0.8-2-0.2-4.2,0.3-5.9l0.1-0.2
		c9-27.9,4.7-80.2-4.8-109.7c-0.1-0.3,0.1-0.5,0.3-0.6c0.3-0.1,0.5,0.1,0.6,0.3c9.5,29.6,13.8,82.2,4.8,110.3l-0.1,0.2
		c-0.5,1.6-1.1,3.6-0.4,5.3c0.5,1.2,1.5,1.9,2.8,2.2c2.9,0.6,6.7-1.3,8.9-3.4c10.3-9.9,15-27.2,11.5-43c-0.2-0.7-0.4-1.5-0.6-2.2
		c-0.1-0.5-0.3-1.1-0.4-1.6c-0.7-2.3-1.1-4.2-1.4-6.1c-0.5-4,0-10.3,2.8-11.8c1-0.5,2.8-0.6,5.5,2c17.6,16.3,27.7,35.2,38.3,55.2
		l5.2,9.7c2.3,4.3,5,8.6,9.5,10.4c0.9,0.4,2,0.6,3.1,0.6c1.7,0,3.6-0.5,5.1-1.5c1.7-1.2,2.6-2.7,2.7-4.6c0,0,0,0,0,0
		c-12-18.7-22.8-37.9-32.1-57.1c-2.9-6-3.7-10.1-3-17.2c0.2-2.3,0.9-3.5,2-4c1.2-0.6,2.5,0.1,3.8,0.7c10.3,5.4,20.5,12,30.3,19.5
		l0.1,0.1c1.9,1.5,4.4,3.4,7.1,3.7c1.6,0.3,3.3-0.2,4.6-1.2c1-0.7,1.5-1.6,1.6-2.7c0.2-2.6-2.3-4.6-4.7-6.2c-4-2.7-7.7-6-11.1-9.2
		l-0.1-0.1c-2.8-2.6-5.6-5.2-8.7-7.5c-3.1-2.3-6.8-4.2-10.6-6c-2.9-1.4-6.3-3-9.4-5C95.7,26.4,84.5,14.4,76.8,0.6
		c-0.1-0.2,0-0.5,0.2-0.7c0.2-0.1,0.5,0,0.7,0.2c7.7,13.7,18.8,25.6,32.1,34.4c3,2,6.4,3.6,9.2,4.9c3.9,1.9,7.6,3.8,10.8,6.1
		c3.1,2.3,6,4.9,8.8,7.5l0.1,0.1c3.4,3.2,7,6.4,11,9.1c2.7,1.8,5.4,4,5.1,7.1c-0.1,1.4-0.8,2.6-2,3.5c-1.5,1.2-3.6,1.7-5.4,1.4
		c-3-0.4-5.6-2.4-7.6-4l-0.1-0.1c-9.7-7.4-19.9-14-30.1-19.3c-1.1-0.6-2.2-1.1-2.9-0.7c-0.8,0.3-1.2,1.3-1.4,3.2
		c-0.7,6.9,0,10.9,2.9,16.7c9.3,19.1,20.1,38.2,32,56.9l0.1,0.1c0.1,0.1,0.1,0.2,0.1,0.4c0,2.3-1.1,4.2-3.1,5.6
		C135.2,134,133.2,134.6,131.3,134.6z"/>
</g>
<g>
	<path style="fill:#51BD00;" d="M158.3,95.8c-3.4,0-6.8-1.1-9.5-3.2c-0.3-0.3-0.7-0.5-1-0.8c-0.9-0.8-1.9-1.6-3.1-2
		c-0.7-0.2-1.4-0.3-2.4-0.3c-0.5,0-1,0-1.5,0.1c-0.7,0-1.5,0.1-2.2,0c-2.9-0.1-5.7-1.8-7.5-4.5c-1.8-2.6-2.3-5.7-1.4-8.3
		c-4.9-0.4-9.3-4-10.7-8.7s0.4-10.1,4.3-13c-1.5-2.3-1.7-5.5-0.3-8c1.3-2.5,4-4.1,6.9-4.2c-0.1-3.4,1.2-6.3,3.6-8.2
		c2.4-1.9,5.7-2.5,9-1.7c0.8-3.8,1.9-6,5.3-7.8c1.5-0.8,3-1.4,4.8-1.1c0.5,0.1,3.5,1.8,4,2.4c3.2-2.3,6.8-2.9,9.9-1.6
		c3.3,1.3,5.6,4.6,5.9,8.1c3.8-2.3,9.1-1.8,12.4,1.1c3.3,3,4.3,8.1,2.4,12.1c4.3-0.8,9,1.7,10.6,5.7c1.6,4.1-0.1,9.2-4,11.4
		c2.7,3.2,3.4,7.8,1.7,11.6s-5.6,6.5-9.7,6.7c0.3,4.4-1.9,8.8-5.7,11.1s-8.8,2.4-12.7,0.2C164.9,94.8,161.6,95.8,158.3,95.8z
		 M193.6,63.4L193.6,63.4L193.6,63.4z M186.8,46.3L186.8,46.3L186.8,46.3z M172.1,33.2L172.1,33.2L172.1,33.2z"/>
	<path style="fill:#439B00;" d="M187,47.2c3.5,4.9,1.4,12.7-4,15.2c2.2,3,1.9,7.4-0.5,10.2c-2.4,2.8-6.8,3.6-10.1,1.8
		c1.9,4-0.5,9.2-4.5,11.2c-4,1.9-9.1,1-12.8-1.6c-2.6,2.6-6.7,3.7-10.2,2.7c-3.6-1-6.5-4-7.4-7.5c0,0-4,2.6-6.8-2.2
		c0,0-1.7,3.9,1.3,8.2c0,0,2,3.9,7.2,4.3c0,0,6-0.6,7.3,0.8c0,0,2.6,2.2,3.7,2.9c0,0,5,3.9,11.8,2.3c0,0,3.5-0.9,6-2.6
		c0,0,6,3.7,12.4-0.1c0,0,6.1-4,5.5-11.1c0,0,8.7-0.3,10.5-9.1c0,0,0.9-5.1-2.6-8.9c0,0,5.4-3.3,4.7-8.4c0,0-0.4-8.5-9.5-8.4
		L187,47.2z"/>
	<path d="M158.3,96.3c-3.6,0-7.1-1.2-9.8-3.3c-0.2-0.2-0.3-0.3-0.5-0.4c-0.2-0.1-0.4-0.3-0.6-0.5c-0.8-0.7-1.8-1.5-2.9-1.9
		c-0.7-0.2-1.3-0.3-2.2-0.3c-0.5,0-1,0-1.4,0.1c-0.3,0-0.6,0-0.8,0c-0.5,0-1.1,0-1.6,0c-3-0.1-6-1.9-7.9-4.7
		c-1.7-2.5-2.3-5.5-1.6-8.1c-4.9-0.6-9.1-4.3-10.5-9c-1.4-4.8,0.3-10.1,4.1-13.2c-1.4-2.5-1.5-5.7-0.1-8.1c1.3-2.5,3.9-4.2,6.8-4.4
		c0-3.3,1.4-6.2,3.8-8.1c2.4-1.9,5.6-2.6,8.9-1.9c0.8-3.5,2-5.8,5.5-7.6c1.5-0.8,3.1-1.5,5.1-1.1c0.5,0.1,3,1.4,4,2.2
		c3.3-2.2,6.9-2.7,10.1-1.4c3.2,1.2,5.6,4.3,6.1,7.7c3.9-2,9.1-1.4,12.3,1.5c3.2,2.9,4.4,7.8,2.9,11.8c4.3-0.4,8.7,2.2,10.3,6.1
		c1.7,4.2,0,9.2-3.7,11.7c2.6,3.3,3.1,7.8,1.4,11.6c-1.7,3.8-5.5,6.5-9.6,6.9c0.1,4.5-2.2,8.7-6,11c-3.9,2.3-8.9,2.5-12.9,0.4
		C164.9,95.3,161.7,96.3,158.3,96.3z M142.2,89c1,0,1.8,0.1,2.5,0.3c1.3,0.4,2.4,1.3,3.3,2.1c0.2,0.2,0.3,0.3,0.5,0.4
		c0.2,0.1,0.4,0.3,0.6,0.5c2.5,1.9,5.8,3,9.2,3c3.3,0,6.5-1,8.8-2.8c0.2-0.1,0.4-0.1,0.5,0c3.7,2.1,8.5,2,12.2-0.2
		c3.6-2.2,5.8-6.3,5.5-10.6c0-0.1,0-0.3,0.1-0.4c0.1-0.1,0.2-0.2,0.4-0.2c3.9-0.2,7.7-2.8,9.3-6.4c1.6-3.6,1-7.8-1.5-10.9
		c-0.2,0-0.4-0.2-0.4-0.5c0-0.3,0.2-0.5,0.5-0.5h0c0,0,0,0,0,0c3.5-2.1,5.2-6.8,3.7-10.7c-1.5-3.8-5.9-6.1-10.1-5.4
		c-0.1,0-0.3,0-0.4-0.1c-0.3,0-0.6-0.2-0.6-0.5c0-0.3,0.2-0.5,0.5-0.5h0c0,0,0.1,0,0.1,0c1.6-3.7,0.6-8.4-2.5-11.1
		c-3.1-2.8-8.2-3.2-11.8-1c-0.1,0.1-0.3,0.1-0.4,0.1c-0.3,0.1-0.6-0.2-0.6-0.5c0-0.2,0.1-0.3,0.2-0.4c-0.4-3.2-2.6-6-5.5-7.2
		c-2.9-1.2-6.4-0.7-9.4,1.5c-0.2,0.2-0.5,0.1-0.7-0.1c-0.4-0.5-3.3-2.1-3.7-2.2c-1.6-0.3-2.9,0.2-4.5,1c-3.3,1.7-4.3,3.9-5.1,7.4
		c0,0.1-0.1,0.2-0.2,0.3c-0.1,0.1-0.3,0.1-0.4,0.1c-3.2-0.8-6.3-0.2-8.6,1.6c-2.3,1.8-3.5,4.6-3.4,7.8c0,0.3-0.2,0.5-0.5,0.5
		c-2.7,0.1-5.3,1.6-6.5,3.9c-1.3,2.3-1.2,5.3,0.3,7.5c0.1,0.2,0.1,0.5-0.1,0.7c-3.7,2.8-5.5,8-4.1,12.4c1.4,4.5,5.6,7.9,10.3,8.3
		c0.2,0,0.3,0.1,0.4,0.2c0.1,0.1,0.1,0.3,0.1,0.4c-0.9,2.5-0.4,5.4,1.3,7.8c1.7,2.6,4.4,4.2,7.1,4.3c0.5,0.1,1,0,1.4,0
		c0.3,0,0.5,0,0.7,0C141.2,89,141.7,89,142.2,89z"/>
</g>
<g>
	<path style="fill:#51BD00;" d="M120.5,186.7c2.2,2.4,5.6,3.7,9.2,3.6c3.6-0.1,6.9-1.6,9-4.1c0.1-0.1,0.1-0.1,0.2-0.1
		c2.5,1.1,4.3,1.4,6.6,1c1.4-0.3,2.7-1.2,3.4-2.3c0.4-0.6,0.8-1.6,0.4-2.7c0-0.1,0-0.1,0-0.2c0-0.1,0.1-0.1,0.2-0.1
		c4.8,1.3,10,0.1,13-2.9c3.4-3.4,3.8-9.2,0.8-12.4c0-0.1-0.1-0.1,0-0.2c0-0.1,0.1-0.1,0.1-0.1c1.8-0.3,3.5-1.9,4.7-4.3
		c1.5-3,1.7-6.4,0.6-8.5c0-0.1,0-0.1,0-0.2s0.1-0.1,0.2-0.1c2,0.3,3.6-0.5,4.5-1.3c1.8-1.5,3.1-3.9,3.2-6.3c0.2-4.2-2.2-8.3-4-11.5
		c0-0.1,0-0.1,0-0.2s0.1-0.1,0.2-0.1c0.5,0,0.9-0.2,1.2-0.6c0.8-0.9,0.9-2.6,0.6-4c-1.3-7.9-4-12.1-8.2-13c-0.1,0-0.1-0.1-0.2-0.2
		c-0.2-3-0.4-6.4-2-9.1c-1.6-2.6-5.1-4.5-7.9-3.1c-0.1,0-0.1,0-0.2,0c-0.1,0-0.1-0.1-0.1-0.1c-0.5-2.8-2.6-5.3-5.4-6.2
		c-2.7-0.9-6-0.2-8.1,1.8c0,0-0.1,0.1-0.2,0c-0.1,0-0.1,0-0.1-0.1c-1.5-3.1-4.8-5.4-8.7-6c-3.9-0.6-7.7,0.5-10.1,3
		c0,0-0.1,0.1-0.2,0.1c-0.1,0-0.1,0-0.1-0.1c-1.2-1.9-3.9-3.2-7.1-3.3c-3.3-0.1-6.2,0.9-7.6,2.8l-0.1,0.1c-4.5,0.1-8.8,0.4-12.5,2.5
		c-3.6,2-6.3,6.5-4.8,10.5c0,0.1,0,0.1,0,0.2s-0.1,0.1-0.2,0.1c-3.6,0.1-7.1,2.1-8.9,5.2c-1.8,3.1-1.9,7-0.2,10.2c0,0.1,0,0.1,0,0.2
		c0,0.1-0.1,0.1-0.1,0.1c-3.4,0.7-6.4,3.2-7.8,6.3c-1.3,3.2-0.9,7.1,1.1,9.9c0.3,0.4,0.6,0.8,1,1.2c0.4,0.4,0.7,0.8,1.1,1.3
		c0,0,0,0.1,0,0.2c0,0.1-0.1,0.1-0.1,0.1c-4.4,1.8-7.4,6.4-6.8,10.8c0.3,2.3,1.7,4.5,3.7,5.9c1.9,1.3,4,1.8,6,1.3
		c0.1,0,0.2,0,0.2,0.1c0,0.1,0,0.1,0,0.2c-1.5,2.5-1.6,5.7-0.2,8.7c1.4,3,3.9,5.1,6.7,5.6c0.2,0,0.3,0.1,0.5,0.1
		c0.6,0.1,1.3,0.2,1.8,0.5c1.6,0.9,1.9,2.5,2.3,4.1c0.5,2.1,1,4.4,4.3,5.2c2.7,0.7,5.7-0.2,8.2-2.4c0.1-0.1,0.1-0.1,0.2,0
		c0.1,0,0.1,0.1,0.1,0.2c-0.7,4.3,1.9,5.1,5.9,5.8c0.7,0.1,9.5-0.2,10.4-1.8c0-0.1,0.2-0.4-0.2-0.8l0,0l0,0l0,0
		c-0.1-0.1-0.1-0.2,0-0.3C120.3,186.6,120.4,186.6,120.5,186.7L120.5,186.7L120.5,186.7z"/>
	<path style="fill:#439B00;" d="M168,116.9c-0.5,4.6-2.4,10.5-6.9,10.4c3.1,4.3-1,11.6-6.2,10.9c2.8,6.1-2.3,14.3-8.8,14.4
		c1.9,3.9,0.8,9.1-2.6,11.7s-8.6,2.5-11.7-0.5c0,3.6-3.4,6.6-6.9,6.9c-3.5,0.3-7-1.8-9.2-4.6c-1.1,3.8-4.9,6.6-8.7,6.5
		c-3.9-0.2-7.4-3.3-8.2-7.1c-1.2,3.7-5.5,5.5-9.2,5.1c-3.7-0.4-7.1-2.5-10.3-4.5c0,0-1,8.3,7.9,10.3c0,0,3.6,0,4.1,4.7
		c0,0,0.4,6.6,7.9,5.2c0,0,3.1-0.8,4.9-2.4c0,0-1.2,4.2,2.4,5.1c0,0,3.4,1.6,7.3,0.8c0,0,5.9-0.4,6.7-1.7c0,0-0.6-1,0-1.1
		c0,0,3.4,3.5,8.3,3.6c0,0,6.3,0.3,10.2-4.1c0,0,2.5,1.6,6.6,1c0,0,4.3-1.1,4.1-5.3c0,0,8.5,2.5,13.5-3.4c0,0,5-6.8,0.4-12.1
		c0,0,4.9-1.3,5.8-7.2c0,0,0.9-3.4-0.4-5.9c0,0,5.2,1.2,7.7-6.2c0,0,0.9-6.7-3.8-13c0,0,2.6-0.9,2-4.8c0,0-0.6-5.5-3.4-9.7
		L168,116.9z"/>
	<path d="M129.4,190.8c-3.3,0-6.4-1.1-8.6-3.1c0,0.2,0,0.3,0,0.4c0,0.1,0,0.1-0.1,0.2c-1.1,2-10.5,2.1-10.9,2
		c-3.8-0.7-6.8-1.5-6.4-5.6c-2.5,2-5.4,2.7-8,2c-3.5-0.9-4.2-3.4-4.6-5.5l-0.1-0.4c-0.4-1.5-0.7-2.7-2-3.5c-0.4-0.2-1-0.3-1.5-0.4
		l-0.1,0c-0.1,0-0.2,0-0.3-0.1c0,0-0.2,0-0.2,0c-3-0.5-5.6-2.7-7.1-5.9c-1.4-2.9-1.4-6-0.1-8.6c-1.9,0.3-3.9-0.2-5.7-1.5
		c-2.1-1.5-3.6-3.8-3.9-6.2c-0.6-4.4,2.3-9.1,6.8-11.1c-0.3-0.3-0.5-0.6-0.8-0.9c-0.4-0.4-0.8-0.9-1-1.2c-2.1-2.9-2.5-7-1.2-10.4
		c1.4-3.2,4.4-5.7,7.8-6.5c-1.6-3.3-1.5-7.2,0.4-10.3c1.8-3.1,5.3-5.2,9-5.4c-1.3-4.2,1.5-8.7,5.2-10.7c3.8-2.1,8.3-2.4,12.5-2.5
		c1.4-1.9,4.4-3,7.9-2.9c3.1,0.1,5.9,1.3,7.3,3.2c2.5-2.4,6.3-3.5,10.3-2.9c3.9,0.6,7.3,2.8,8.9,5.9c2.2-1.9,5.5-2.5,8.3-1.6
		c2.8,0.9,5,3.3,5.7,6.2c3-1.2,6.6,0.8,8.2,3.4c1.6,2.7,1.9,6.1,2.1,9.1c4.4,1,7.1,5.4,8.4,13.3c0.3,1.3,0.3,3.3-0.7,4.4
		c-0.3,0.4-0.7,0.6-1.1,0.7c1.8,3.2,4,7.2,3.8,11.3c-0.1,2.4-1.4,5-3.4,6.6c-0.4,0.4-2,1.6-4.4,1.5c0.9,2.3,0.6,5.6-0.8,8.4
		c-1.2,2.3-2.8,3.9-4.5,4.4c2.8,3.4,2.3,9.2-1.2,12.6c-3,3-8.2,4.3-13,3.2c0.2,1.2-0.3,2.2-0.6,2.7c-0.8,1.2-2.2,2.2-3.7,2.5
		c-2.3,0.4-4.1,0.2-6.7-0.9c-2.2,2.5-5.6,4-9.3,4.1C129.6,190.8,129.5,190.8,129.4,190.8z M120.4,186.2c0.2,0,0.3,0.1,0.5,0.2
		c0,0,0,0,0,0c2.1,2.3,5.3,3.5,8.8,3.4c3.5-0.1,6.6-1.5,8.6-3.9c0.2-0.2,0.3-0.3,0.6-0.3c0.1,0,0.1,0,0.2,0c2.5,1.1,4.2,1.3,6.3,1
		c1.2-0.3,2.4-1.1,3.1-2.1c0.3-0.4,0.7-1.3,0.4-2.3c0-0.1,0-0.1,0-0.2V182c0-0.1,0-0.6,0.7-0.6c0,0,0.1,0,0.1,0
		c4.6,1.2,9.6,0.1,12.5-2.8c3.2-3.2,3.6-8.7,0.8-11.7c-0.1-0.1-0.1-0.1-0.1-0.2c-0.1-0.2-0.1-0.4,0-0.5c0.1-0.2,0.3-0.4,0.6-0.4
		c1.5-0.3,3.1-1.7,4.3-4c1.4-2.8,1.7-6,0.6-8c0-0.1-0.1-0.1-0.1-0.2v-0.2c0-0.1,0-0.6,0.7-0.6c2.3,0.3,3.8-0.8,4.2-1.2
		c1.8-1.5,2.9-3.7,3-5.9c0.2-3.9-2-7.8-3.8-10.9l-0.2-0.3c0-0.1-0.1-0.2-0.1-0.2V134c0-0.1,0-0.6,0.7-0.6c0.3,0,0.6-0.1,0.8-0.4
		c0.7-0.8,0.8-2.4,0.5-3.6c-1.3-7.6-3.8-11.7-7.8-12.6c-0.2,0-0.4-0.1-0.5-0.3c-0.1-0.1-0.1-0.2-0.2-0.3l0-0.2
		c-0.2-2.9-0.4-6.1-1.9-8.7c-1.5-2.4-4.8-4.1-7.3-2.9c-0.1,0-0.1,0.1-0.2,0.1h-0.2c-0.4,0-0.6-0.3-0.6-0.6c-0.5-2.6-2.5-4.9-5.1-5.7
		c-2.5-0.8-5.7-0.2-7.6,1.7c0,0-0.4,0.3-0.7,0.1c-0.2-0.1-0.4-0.2-0.4-0.4c-1.5-2.9-4.6-5.1-8.3-5.6c-3.8-0.6-7.4,0.5-9.7,2.8
		c-0.1,0.1-0.3,0.3-0.6,0.3c-0.3,0-0.5-0.2-0.6-0.4c-1.2-1.7-3.7-2.9-6.6-3c-3.2-0.1-5.9,0.9-7.2,2.6l-0.2,0.2
		c-0.1,0.1-0.2,0.1-0.3,0.1c-4.2,0.1-8.6,0.4-12.3,2.4c-3.4,1.9-6,6.1-4.6,9.9c0,0.1,0,0.1,0,0.2v0.2c0,0.1,0,0.6-0.7,0.6
		c-3.5,0.1-6.8,2-8.5,4.9c-1.7,3-1.8,6.7-0.2,9.7c0,0.1,0.1,0.2,0.1,0.2v0.2c0,0.3-0.3,0.6-0.5,0.6c-3.2,0.7-6.1,3-7.4,6
		c-1.2,3.1-0.8,6.7,1.1,9.4c0.3,0.4,0.6,0.8,0.9,1.1c0.4,0.4,0.6,0.7,0.9,1.1l0.2,0.2c0.1,0.1,0.1,0.2,0.1,0.3v0.2
		c0,0.3-0.2,0.5-0.5,0.6c-4.2,1.8-7,6.1-6.5,10.2c0.3,2.1,1.6,4.2,3.5,5.5c1.8,1.3,3.8,1.7,5.6,1.2c0,0,0.1,0,0.1,0
		c0.7,0,0.7,0.5,0.7,0.6v0.2c0,0.1,0,0.2-0.1,0.3c-1.4,2.4-1.5,5.4-0.2,8.2c1.3,2.9,3.7,4.8,6.3,5.3c0.1,0,0.2,0,0.3,0.1
		c0,0,0.1,0,0.2,0l0.1,0c0.6,0.1,1.3,0.2,1.9,0.5c1.7,0.9,2.1,2.5,2.5,4.1l0.1,0.3c0,0,0,0.1,0,0.1c0.5,2.1,1,4,3.9,4.7
		c2.5,0.7,5.4-0.2,7.8-2.3c0.1-0.1,0.2-0.2,0.4-0.2c0.2,0,0.3,0.1,0.4,0.1c0.2,0.1,0.3,0.3,0.3,0.6c-0.6,3.8,1.3,4.6,5.5,5.3
		c1,0.1,9-0.3,9.9-1.5c0,0,0,0,0,0c0-0.1,0-0.1-0.1-0.2c-0.3-0.3-0.3-0.7,0-1C120,186.3,120.2,186.2,120.4,186.2z M104,184.2
		C104,184.2,104,184.2,104,184.2C104,184.2,104,184.2,104,184.2z M163.7,166.8C163.6,166.8,163.6,166.8,163.7,166.8
		C163.6,166.8,163.6,166.8,163.7,166.8z M163.8,166.3C163.8,166.3,163.8,166.3,163.8,166.3C163.8,166.3,163.8,166.3,163.8,166.3z
		 M156.6,103.8C156.6,103.8,156.6,103.8,156.6,103.8C156.6,103.8,156.6,103.8,156.6,103.8z M142.2,99.2
		C142.2,99.2,142.2,99.2,142.2,99.2C142.2,99.2,142.2,99.2,142.2,99.2z M142.7,99.2L142.7,99.2L142.7,99.2z"/>
</g>
<g>
	<path style="fill:#51BD00;" d="M23.8,133.4c0.9,0,1.7,0.1,2.5,0.4c1.2,0.4,2.2,1.3,3.2,2.1c0.3,0.3,0.6,0.6,1,0.8
		c5.2,4.1,13,4.1,18.3,0.2c0.1,0,0.1-0.1,0.2,0c3.7,2.2,8.7,2.2,12.4-0.1c3.7-2.3,5.9-6.7,5.5-11c0-0.1,0-0.1,0-0.1l0.1-0.1
		c4.1-0.2,8-2.8,9.6-6.5c1.6-3.7,0.9-8.3-1.8-11.4c0,0-0.1-0.1,0-0.2c0.1-0.1,0-0.1,0.1-0.1c3.8-2.1,5.6-7.1,4-11.1
		c-1.6-4-6.3-6.4-10.6-5.4c-0.1,0-0.1,0-0.2-0.1c0-0.1-0.1-0.1,0-0.2c2.1-3.9,1.2-9-2.1-12c-3.3-2.9-8.6-3.3-12.2-0.9
		c-0.1,0-0.1,0-0.2,0c-0.1,0-0.1-0.1-0.1-0.2c-0.1-3.5-2.4-6.8-5.6-8.1c-3.1-1.3-6.7-0.6-9.8,1.7c-0.1,0.1-0.2,0-0.3,0v-0.1
		c-0.3-0.4-3.4-2.2-3.8-2.3c-1.7-0.3-3,0.3-4.5,1c-3.4,1.7-4.4,3.9-5.2,7.7c0,0.1,0,0.1-0.1,0.1c0,0-0.1,0-0.2,0
		c-3.3-0.8-6.5-0.3-8.8,1.6c-2.3,1.8-3.6,4.7-3.5,8.1c0,0.1,0,0.1-0.1,0.1l-0.1,0.1c-2.7,0-5.4,1.6-6.7,4s-1.1,5.5,0.4,7.8
		c0.1,0.1,0,0.2,0,0.3c-3.9,2.8-5.7,8.2-4.3,12.7c1.4,4.6,5.8,8.1,10.6,8.4c0.1,0,0.1,0,0.1,0.1c0,0,0,0.1,0,0.2
		c-0.9,2.6-0.4,5.7,1.3,8.2c1.7,2.6,4.4,4.2,7.2,4.3c0.7,0,1.4,0,2.1,0C22.8,133.4,23.3,133.4,23.8,133.4z"/>
	<path style="fill:#439B00;" d="M75.8,92.5c0.5,3.1,1.1,7-0.3,10.3c-1.3,3.1-5.2,5.7-8.8,4.8c1.2,2.6,0.4,5.8-1.9,7.6
		c-2.3,1.9-6,2.1-8.6,0.7c0.2,3.6-2.3,7.3-6,8.7c-3.7,1.4-8.4,0.3-11-2.4c-1.5,2.3-4.5,3.3-7.3,3.3c-1.2,0-2.4-0.2-3.5-0.6
		c-4.2-1.5-6.8-4.9-8.3-7.7c-6.7,2.2-14.7-0.1-18.9-5.3c0,0,0.6,6.6,9.5,8.8c0,0,1.3-0.1,1.1,0.4c0,0-1.1,3.1,0.1,5.9
		c0,0,1.9,5.9,8.4,6.7c0,0,3.5-0.3,4.8,0c0,0,2.9,0.2,5.5,3.2c0,0,4.1,3.6,11.4,3.1c0,0,5.5-1.4,7.1-2.9c0,0,4.6,2.8,9.5,1.1
		c0,0,6.6-1.7,8.1-8.5c0,0,0.3-2.9,0.3-3.8c0,0,0-0.3,2.1-0.5c0,0,7.6-1.4,8.5-9.6c0,0,0.2-5.4-2.6-8c0,0-0.1-0.4,0.9-0.9
		c0,0,4-3.3,3.7-7.9c0,0-0.5-4.1-2.7-5.6L75.8,92.5z"/>
	<path d="M39.8,140.3c-3.4,0-6.8-1.1-9.5-3.1c-0.4-0.2-0.8-0.6-1.1-0.9l-0.4-0.3c-0.8-0.7-1.7-1.4-2.7-1.7c-0.7-0.3-1.4-0.4-2.3-0.4
		h-3.7c-3-0.1-5.8-1.8-7.6-4.5c-1.7-2.5-2.3-5.6-1.5-8.3c-4.9-0.5-9.2-4-10.6-8.7c-1.4-4.6,0.3-10.1,4.2-13C3.2,97,3,93.8,4.4,91.3
		c1.3-2.5,4.1-4.1,6.8-4.2c0-3.4,1.3-6.3,3.7-8.2c2.3-1.9,5.6-2.5,9-1.7c0.8-3.7,1.9-6,5.4-7.7c1.5-0.7,2.9-1.4,4.8-1
		c0.4,0.1,3.2,1.6,4,2.3c3.3-2.3,6.9-2.9,10.1-1.6c3.2,1.3,5.6,4.6,5.9,8c3.8-2.2,9-1.7,12.4,1.2c3.4,3,4.4,8,2.5,12
		c4.3-0.7,8.9,1.7,10.6,5.8c1.7,4.1-0.1,9.2-3.9,11.5c2.6,3.2,3.3,7.8,1.6,11.6c-1.6,3.7-5.5,6.4-9.7,6.8c0.3,4.3-2,8.8-5.8,11.1
		c-3.8,2.3-8.9,2.4-12.8,0.2C46.3,139.3,43.1,140.3,39.8,140.3z M22.2,132.9h1.6c1.1,0,1.9,0.1,2.7,0.4c1.1,0.4,2,1.1,2.9,1.9
		l0.4,0.3c0.3,0.3,0.6,0.6,0.9,0.7c0,0,0.1,0,0.1,0.1c4.9,3.9,12.6,4,17.7,0.2c0.1,0,0.1-0.1,0.2-0.1c0.2-0.1,0.4-0.1,0.6,0.1
		c3.6,2.1,8.3,2.1,11.9-0.1c3.5-2.2,5.7-6.4,5.3-10.5l0-0.1c0-0.1,0.1-0.3,0.1-0.4l0.1-0.1c0.1-0.1,0.2-0.1,0.3-0.1
		c4-0.2,7.7-2.7,9.2-6.2c1.5-3.5,0.8-7.9-1.7-10.8c0,0-0.2-0.2-0.2-0.4c0-0.2,0.1-0.3,0.2-0.4c0.1-0.1,0.2-0.2,0.3-0.2
		c3.6-2,5.3-6.7,3.7-10.4c-1.5-3.7-6-6-10-5.1c-0.3,0.1-0.5,0-0.7-0.2c-0.1-0.1-0.1-0.1-0.1-0.2c-0.1-0.2-0.1-0.4,0.1-0.6
		c1.9-3.6,1.1-8.5-2-11.3c-3.1-2.7-8.2-3.1-11.6-0.9c-0.1,0.1-0.2,0.1-0.3,0.1h-0.2c-0.1,0-0.6,0-0.6-0.7c-0.1-3.3-2.3-6.4-5.3-7.6
		c-2.9-1.2-6.3-0.6-9.3,1.6c-0.1,0.1-0.3,0.2-0.7,0.1c-0.2,0-0.4-0.2-0.4-0.4c-0.6-0.5-3-1.9-3.4-2c-1.5-0.3-2.7,0.3-4.2,1
		c-3.2,1.6-4.1,3.6-4.9,7.3c0,0.3-0.2,0.5-0.6,0.5H24c0,0-0.1,0-0.1,0c-3.3-0.8-6.2-0.3-8.4,1.5c-2.2,1.7-3.4,4.5-3.3,7.7
		c0,0.3-0.1,0.5-0.4,0.6c-0.1,0.1-0.2,0.1-0.3,0.1c-2.5,0-5.1,1.5-6.3,3.7c-1.2,2.2-1,5.1,0.4,7.2c0.1,0.1,0.2,0.3,0.1,0.7
		c0,0.2-0.1,0.3-0.2,0.3c-3.7,2.6-5.5,7.8-4.1,12.1c1.3,4.4,5.6,7.7,10.2,8c0,0,0,0,0,0c0.3,0,0.6,0.2,0.6,0.6v0.2
		c0,0.1,0,0.1,0,0.2c-0.8,2.4-0.4,5.4,1.2,7.7c1.6,2.5,4.2,4,6.8,4.1L22.2,132.9L22.2,132.9z M49.2,137.3
		C49.2,137.3,49.2,137.3,49.2,137.3C49.2,137.3,49.2,137.3,49.2,137.3z M11.5,121.2C11.5,121.2,11.5,121.2,11.5,121.2
		C11.5,121.2,11.5,121.2,11.5,121.2z M75.3,108C75.3,108,75.3,108,75.3,108C75.3,108,75.3,108,75.3,108z M74.5,107.4
		c0,0,0,0.1,0,0.1C74.5,107.5,74.5,107.5,74.5,107.4z M75.3,107.5C75.3,107.5,75.3,107.5,75.3,107.5
		C75.3,107.5,75.3,107.5,75.3,107.5z M68.6,91.1C68.6,91.1,68.6,91.1,68.6,91.1C68.6,91.1,68.6,91.1,68.6,91.1z M37.9,71
		C37.8,71,37.8,71,37.9,71C37.8,71,37.8,71,37.9,71L37.9,71z"/>
</g>
<g>
	<path style="fill:#25A939;" d="M119.1,114.8c-6.7,0-12.1,5.4-12.1,12c0,6.6,5.4,12,12.1,12c2.4,0,4.7-0.7,6.7-2c0,0,0.1,0,0.1,0
		h13.7c5.1,0,9.2-4.1,9.2-9.2s-4.1-9.2-9.2-9.2h-11.7c0,0-0.1,0-0.1,0C125.5,116.1,122.4,114.8,119.1,114.8z"/>
	<g>
		<g>
			<ellipse style="fill:#FFFFFF;" cx="119" cy="126.9" rx="9.7" ry="9.7"/>
			<path style="fill:#C1C1C1;" d="M119,136.8c-5.5,0-10-4.5-10-10s4.5-10,10-10s10,4.5,10,10C129,132.4,124.5,136.8,119,136.8z
				 M119,117.5c-5.2,0-9.4,4.2-9.4,9.3s4.2,9.3,9.4,9.3c5.2,0,9.4-4.2,9.4-9.3S124.1,117.5,119,117.5z"/>
		</g>
		<path style="fill:#25A939;" d="M121.8,125.9l-4-2.3c-0.7-0.4-1.7,0.1-1.7,1v4.6c0,0.9,0.9,1.4,1.7,1l4-2.3
			C122.5,127.4,122.5,126.3,121.8,125.9z"/>
	</g>
	<ellipse style="fill:#2AD247;" cx="133.9" cy="122.4" rx="2.4" ry="1.4"/>
	<path style="fill:#239332;" d="M127.7,136.8c0,0,15.8-2.7,15.7-17.5c0,0,6.3,2.4,5.3,10.6c0,0-2.7,8-11.7,6.8L127.7,136.8z"/>
	<path d="M119.1,139.5c-7,0-12.7-5.7-12.7-12.6c0-7,5.7-12.6,12.7-12.6c3.4,0,6.5,1.3,8.9,3.7h11.5c5.4,0,9.8,4.4,9.8,9.7
		c0,5.4-4.4,9.7-9.8,9.7H126C124,138.8,121.6,139.5,119.1,139.5z M119.1,115.4c-6.3,0-11.5,5.1-11.5,11.5c0,6.3,5.2,11.5,11.5,11.5
		c2.3,0,4.5-0.7,6.4-1.9c0.1-0.1,0.3-0.1,0.4-0.1h13.7c4.8,0,8.6-3.9,8.6-8.6s-3.9-8.6-8.6-8.6h-11.7c-0.2,0-0.4-0.1-0.5-0.2
		C125.2,116.6,122.3,115.4,119.1,115.4z M126.2,137.4C126.2,137.4,126.1,137.4,126.2,137.4C126.1,137.4,126.2,137.4,126.2,137.4z
		 M128.2,118.1C128.2,118.1,128.2,118.1,128.2,118.1C128.2,118.1,128.2,118.1,128.2,118.1z"/>
	<g>
		<path style="fill:#008200;" d="M130.7,120c0.6,0.1,1,0.1,1.2,0.1c2.6-0.1,5-1.4,6.6-3.4c0.9-1.2,3.4-6.3,0.5-6.4
			c-3.8-0.2-7.7,1.8-10.3,4.4c-1.3,1.3-1.5,3.2-1.6,4.9C127.1,119.6,129.3,119.9,130.7,120z"/>
		<path d="M131.8,120.7c-0.1,0-0.4,0-1.2-0.1l0,0c-3.9-0.3-3.9-0.4-4.1-0.7c-0.1-0.1-0.2-0.3-0.1-0.5l0,0c0.1-1.8,0.4-3.8,1.8-5.4
			c3-3,7.1-4.8,10.8-4.6c0.9,0,1.5,0.4,1.8,1.1c0.9,1.9-1.1,5.5-1.8,6.4C137.3,119.2,134.6,120.6,131.8,120.7
			C131.9,120.7,131.9,120.7,131.8,120.7z M127.7,119.6C127.7,119.6,127.7,119.6,127.7,119.6C127.7,119.6,127.7,119.7,127.7,119.6
			C127.7,119.7,127.7,119.6,127.7,119.6z M127.8,119c0.7,0.1,2,0.2,3,0.3l0,0c0.9,0.1,1,0.1,1.1,0.1c2.3-0.1,4.6-1.3,6.1-3.2
			c0.3-0.4,0.9-1.4,1.3-2.4c0.4-1.1,0.6-2.1,0.4-2.6c0-0.1-0.1-0.3-0.6-0.3c-3.3-0.1-7.1,1.5-9.8,4.2
			C128.2,116.2,127.9,117.6,127.8,119z"/>
	</g>
</g>
<g>
	<path style="fill:#E75371;" d="M27.2,92.1c-6.1,0-11,4.9-11,10.9s4.9,10.9,11,10.9h21.2c6.1,0,11-4.9,11-10.9s-5-10.9-11-10.9
		C48.4,92.1,27.2,92.1,27.2,92.1z"/>
	<path style="fill:#D63B5C;" d="M29,92.1c0,0-9.3,14.6,8.4,21.8H27.2c0,0-10.6-0.6-11-10.9C16.2,103,16.7,91.3,29,92.1z"/>
	<path d="M48.4,114.3H27.2c-6.3,0-11.5-5.1-11.5-11.4s5.2-11.4,11.5-11.4h21.2c6.3,0,11.5,5.1,11.5,11.4
		C59.9,109.2,54.7,114.3,48.4,114.3z M27.2,92.5c-5.8,0-10.6,4.7-10.6,10.4c0,5.8,4.7,10.4,10.6,10.4h21.2c5.8,0,10.6-4.7,10.6-10.4
		s-4.7-10.4-10.6-10.4H27.2z"/>
	<path style="fill:#008200;" d="M38.1,93.1c0.6,0.1,1.1,0.1,1.2,0.1c2.6-0.1,5-1.4,6.7-3.4c0.9-1.1,3.5-6.3,0.5-6.4
		c-3.8-0.2-7.7,1.8-10.4,4.5c-1.3,1.3-1.6,3.1-1.6,4.9C34.5,92.7,36.7,93,38.1,93.1z"/>
	<path d="M39.3,93.7c-0.1,0-0.4,0-1.2-0.1c-0.7-0.1-1.6-0.1-2.4-0.3c-1.5-0.2-1.5-0.2-1.6-0.4C34,92.8,34,92.7,34,92.6l0,0
		c0.1-1.8,0.4-3.8,1.8-5.2c3-3,7-4.7,10.7-4.6c1,0.1,1.4,0.6,1.6,1c0.8,1.8-1.1,5.3-1.8,6.2C44.6,92.2,42,93.5,39.3,93.7L39.3,93.7z
		 M34.9,92.7L34.9,92.7C34.9,92.8,34.9,92.8,34.9,92.7C34.9,92.8,34.9,92.7,34.9,92.7z M35,92.3c0.7,0.1,2.1,0.3,3.2,0.3l0,0
		c0.9,0.1,1.1,0.1,1.1,0.1c2.4-0.1,4.8-1.3,6.3-3.2c0.8-0.9,2.2-4,1.7-5.2c-0.1-0.2-0.3-0.4-0.8-0.4c-3.5-0.2-7.3,1.4-10,4.3
		C35.4,89.3,35.1,90.8,35,92.3z"/>
	<ellipse style="fill:#FF6285;" cx="34" cy="96.9" rx="2.9" ry="1.7"/>
	<circle style="fill:#BA2240;" cx="48.3" cy="103" r="8.6"/>
	<path style="fill:#E75371;" d="M51,98.5l2.5,2.5l-2.5,2.5l-2.5-2.5L51,98.5z M45.3,98.5l2.2,1.3v2.5l-2.2,1.3l-2.2-1.3v-2.5
		L45.3,98.5z M48.2,103c1.3,0,2.3,1,2.3,2.2c0,1.3-1,2.2-2.3,2.2s-2.3-1-2.3-2.2S46.9,103,48.2,103z"/>
</g>
<g>
	<path style="fill:#8D6AA9;" d="M103.7,149.8c-6,0-11,4.9-11,10.9s4.9,10.9,11,10.9h21c6,0,11-4.9,11-10.9s-4.9-10.9-11-10.9H103.7z
		"/>
	<path style="fill:#8350AA;" d="M115.6,171.6c-9.1-2.4-12.2-8.2-13.1-12.6c-1.1-4.8,0.1-9.1,0.1-9.2c0,0-9,0.8-9.8,11
		c0,0-0.9,7.7,8.4,10.6c0,0,1.1,0.5,3.7,0.2H115.6z"/>
	<ellipse style="fill:#AF83D3;" cx="107.5" cy="154.9" rx="2.9" ry="1.7"/>
	<path d="M124.8,172.2h-21c-6.4,0-11.5-5.2-11.5-11.5s5.2-11.5,11.5-11.5h21c6.4,0,11.5,5.2,11.5,11.5S131.1,172.2,124.8,172.2z
		 M103.7,150.4c-5.7,0-10.4,4.6-10.4,10.3s4.7,10.4,10.4,10.4h21c5.7,0,10.4-4.6,10.4-10.4c0-5.7-4.7-10.3-10.4-10.3H103.7z"/>
	<g>
		<circle style="fill:#673F93;" cx="124.2" cy="160.7" r="8.6"/>
		<g>
			<g>
				<defs>
					<path id="SVGID_1_" d="M126.4,156.8c0.1-0.2,0.4-0.2,0.5-0.1l2.4,1.6c0,0,0.1,0.1,0.1,0.1c0.1,0.2,0.1,0.4-0.1,0.5l-2.4,1.6
						c-0.1,0.1-0.2,0.1-0.3,0.1c-0.2-0.1-0.3-0.3-0.3-0.5l0.2-0.8l-3.3,0.4c0,0,0,0-0.1,0l-0.1,0c-0.4,0-0.8-0.4-0.8-0.8v-0.7
						c0,0,0-0.1,0-0.1c0.1-0.4,0.5-0.7,0.9-0.7l3.3,0.4l-0.2-0.8C126.3,157,126.4,156.9,126.4,156.8L126.4,156.8z M122,161
						c0.1,0.1,0.1,0.2,0.1,0.3l-0.2,0.8l3.3-0.4c0.4-0.1,0.8,0.2,0.9,0.7c0,0,0,0.1,0,0.1v0.7c0,0.4-0.4,0.8-0.8,0.8
						c0,0-0.1,0-0.1,0l-3.3-0.4l0.2,0.8c0.1,0.2-0.1,0.4-0.3,0.5c-0.1,0-0.2,0-0.3-0.1l-2.4-1.6c-0.2-0.1-0.2-0.4-0.1-0.5
						c0,0,0.1-0.1,0.1-0.1l2.4-1.6C121.6,160.8,121.8,160.8,122,161z"/>
				</defs>
				<use xlink:href="#SVGID_1_"  style="overflow:visible;fill:#8D6AA9;"/>
				<clipPath id="SVGID_00000165913863067588210720000003943381981468565670_">
					<use xlink:href="#SVGID_1_"  style="overflow:visible;"/>
				</clipPath>
			</g>
		</g>
	</g>
</g>
<g>
	<path style="fill:#53B245;" d="M144.6,45.1c-6.4,0-11.6,5.1-11.6,11.4s5.2,11.4,11.6,11.4h22.3c6.4,0,11.6-5.1,11.6-11.4
		s-5.2-11.4-11.6-11.4H144.6z"/>
	<path style="fill:#34A324;" d="M144.6,45.1c0,0-9,15.8,6.9,22.9h-6.9c0,0-10.7,0.2-11.6-11.4C132.9,56.5,133,46,144.6,45.1z"/>
	<path d="M166.9,68.4h-22.3c-6.7,0-12.1-5.3-12.1-11.9s5.4-11.9,12.1-11.9h22.3c6.7,0,12.1,5.3,12.1,11.9S173.6,68.4,166.9,68.4z
		 M144.6,45.6c-6.1,0-11.1,4.9-11.1,10.9s5,10.9,11.1,10.9h22.3c6.1,0,11.1-4.9,11.1-10.9s-5-10.9-11.1-10.9
		C166.9,45.6,144.6,45.6,144.6,45.6z"/>
	<g>
		<path style="fill:#008200;" d="M157.2,47.4c0.6,0.1,1.1,0.1,1.2,0.1c2.7-0.1,5.3-1.5,7-3.6c1-1.2,3.6-6.6,0.5-6.8
			c-4-0.2-8.2,1.9-10.9,4.7c-1.4,1.4-1.6,3.3-1.7,5.2C153.4,47.1,155.7,47.3,157.2,47.4z"/>
		<path d="M158.4,48c-0.1,0-0.4,0-1.2-0.1l0,0c-0.7-0.1-1.7-0.2-2.5-0.2c-1.6-0.2-1.6-0.2-1.7-0.4c-0.1-0.1-0.1-0.2-0.1-0.3l0,0
			c0.1-1.8,0.4-3.9,1.9-5.5c3.1-3.1,7.4-5,11.3-4.8c1,0,1.5,0.6,1.7,1c0.9,1.9-1.2,5.6-1.9,6.5C164.1,46.5,161.3,47.9,158.4,48
			C158.5,48,158.4,48,158.4,48z M153.9,47C153.9,47,153.9,47.1,153.9,47C153.9,47.1,153.9,47.1,153.9,47
			C153.9,47.1,153.9,47.1,153.9,47z M153.9,46.6c0.7,0.1,2.2,0.2,3.4,0.4l0,0c0.9,0.1,1.1,0.1,1.2,0.1c2.5-0.1,5-1.4,6.7-3.4
			c0.8-1,2.3-4.2,1.8-5.5c-0.1-0.2-0.3-0.4-0.8-0.5c-3.6-0.2-7.6,1.6-10.5,4.5C154.3,43.4,154,45,153.9,46.6z"/>
	</g>
	<ellipse style="fill:#68DE56;" cx="151.1" cy="50.3" rx="3.1" ry="1.8"/>
	<g>
		<circle style="fill:#188C3B;" cx="167" cy="56" r="8.6"/>
		<g>
			<g>
				<defs>
					<path id="SVGID_00000054246102571901176040000002076672249320926623_" d="M167.7,56.4c-0.8,0.2-1.8,0.1-2.2-0.2
						c-0.1-0.1-0.1-0.1-0.1-0.2v-4.4c0-0.2,0.1-0.3,0.3-0.3c0.1,0,0.1,0,0.2,0.1c0.5,0.3,1.1,0.4,1.9,0.2c1.2-0.2,2.2-1.1,4.2-0.2
						c0.1,0.1,0.1,0.1,0.1,0.2V56c0,0.2-0.1,0.3-0.3,0.3c-0.1,0-0.2-0.1-0.3-0.1C169.6,55.5,168.9,56.2,167.7,56.4z M162.6,61.3
						c-0.4,0-0.7-0.3-0.7-0.7c0-0.4,0.3-0.7,0.7-0.7l0.7,0l0-8.6c0-0.4,0.3-0.7,0.7-0.7s0.7,0.3,0.7,0.7l0,8.6l0.7,0
						c0.4,0,0.7,0.3,0.7,0.7c0,0.4-0.3,0.7-0.7,0.7H162.6z"/>
				</defs>
				<use xlink:href="#SVGID_00000054246102571901176040000002076672249320926623_"  style="overflow:visible;fill:#53B245;"/>
				<clipPath id="SVGID_00000152236716302252662880000008686422042974281371_">
					<use xlink:href="#SVGID_00000054246102571901176040000002076672249320926623_"  style="overflow:visible;"/>
				</clipPath>
			</g>
		</g>
	</g>
</g>
</svg>
