<?xml version="1.0" encoding="utf-8"?>
<!-- Generator: Adobe Illustrator 26.5.0, SVG Export Plug-In . SVG Version: 6.00 Build 0)  -->
<svg version="1.1" id="레이어_1" xmlns="http://www.w3.org/2000/svg" xmlns:xlink="http://www.w3.org/1999/xlink" x="0px"
	 y="0px" viewBox="0 0 150 240" style="enable-background:new 0 0 150 240;" xml:space="preserve">
<g>
	<g>
		<g style="opacity:0.56;">
			<path style="fill:#FFFFFF;" d="M92.1,123.4L92.1,123.4c0-5.1,3.1-9.6,7.7-11.6c19.1-8.5,32.2-27.6,32.2-47
				c0-27.1-25.5-37.5-57-37.5c-31.5,0-57,10.4-57,37.5c0,19.4,13.2,38.6,32.2,47c4.6,2.1,7.7,6.5,7.7,11.6v0c0,5.1-3.1,9.6-7.7,11.6
				C31.1,143.4,18,162.6,18,182c0,27.1,25.5,37.5,57,37.5c31.5,0,57-10.5,57-37.5c0-19.4-13.2-38.6-32.2-47
				C95.1,132.9,92.1,128.4,92.1,123.4z"/>
			<path d="M75,221.3c-37.4,0-58.8-14.3-58.8-39.3c0-20,13.7-40,33.3-48.7c4-1.8,6.6-5.7,6.6-9.9c0-4.3-2.6-8.2-6.6-9.9
				c-19.6-8.7-33.3-28.7-33.3-48.7c0-25,21.4-39.3,58.8-39.3s58.8,14.3,58.8,39.3c0,20-13.7,40-33.3,48.7c-4,1.8-6.6,5.7-6.6,9.9
				c0,4.3,2.6,8.2,6.6,9.9c19.6,8.7,33.3,28.7,33.3,48.7C133.8,207,112.4,221.3,75,221.3z M75,29.1c-48,0-55.2,22.4-55.2,35.7
				c0,18.6,12.8,37.2,31.2,45.4c5.3,2.4,8.8,7.6,8.8,13.3c0,5.7-3.4,10.9-8.8,13.3c-18.4,8.1-31.2,26.8-31.2,45.4
				c0,13.3,7.2,35.7,55.2,35.7s55.2-22.4,55.2-35.7c0-18.6-12.8-37.2-31.2-45.4c-5.3-2.4-8.8-7.6-8.8-13.3c0-5.7,3.4-10.9,8.8-13.3
				c18.4-8.1,31.2-26.8,31.2-45.4C130.2,51.4,123,29.1,75,29.1z"/>
		</g>
		<path style="fill:#FFFFFF;" d="M32.7,71.3c0.5,1,1,2,1.9,2.7c1.2,1,2.8,1.2,4.4,1c1.1-0.1,2.9-0.4,3.5-1.4c0.9-1.8-0.1-4-0.3-5.8
			c-0.3-2.3-0.3-4.6-0.1-6.9c0.2-2.4,0-7-3.4-7c-2.5,0-6.3,0.9-7.5,3.4C29.5,60.8,31.3,68.1,32.7,71.3z"/>
		<path style="fill:#FFFFFF;" d="M37.9,80.3c-0.3,0.1-0.7,0.2-1,0.4c-0.6,0.4-0.7,1.2-0.6,1.9c0.2,0.7,0.6,1.3,1,1.8
			c0.4,0.6,0.9,1.1,1.5,1.4c0.4,0.1,0.8,0.1,1.2,0.1c1.9-0.1,3.7-0.6,5.4-1.3c0.3-0.1,0.7-0.3,0.8-0.7c0.1-0.2,0-0.5-0.1-0.8
			c-0.4-1.1-1.2-3.7-2.6-4c-0.8-0.1-1.9,0.4-2.7,0.5C40,79.8,39,80.1,37.9,80.3z"/>
	</g>
	<g>
		<g>
			<g>
				<path style="fill:#E6B261;" d="M84.1,141.5c-0.1-1.9-0.3-3.8-0.5-5.6c-1.7-13.1-1.3-29.2,12.6-35.4c4.3-1.9,8.2-4.4,11.7-7.5
					c2-1.7,0.8-5-1.9-5H43.9c-2.7,0-3.9,3.3-1.9,5c3.5,3,7.4,5.6,11.7,7.5C70.6,108,70,134.2,63,148.3c-2.1,4.1-4.9,8-8.6,10.7
					c-4.7,3.4-10.6,4.8-16,7c-8.3,3.4-13.4,8.4-11.5,17.5c1.3,6.5,4.8,11.7,10.3,15.5c10.6,7.4,25.2,8.6,37.7,8.6
					c15.1,0,36.6-1.8,45.2-16.4c3.3-5.6,2.9-14-1.7-18.8c-4.1-4.3-10.8-4.1-15.9-6C92.6,162.8,84.9,151.9,84.1,141.5z"/>
				<path d="M75,209.4c-12.1,0-27.4-1-38.8-8.9c-5.9-4.1-9.6-9.7-11.1-16.7c-2.4-11.9,6-16.9,12.6-19.5c1.6-0.6,3.2-1.2,4.8-1.8
					c3.9-1.4,7.6-2.7,10.8-5c3.2-2.3,5.9-5.7,8.1-10c4.1-8.2,6.2-22.2,2.3-32.9c-2.1-5.9-5.8-10.1-10.8-12.3
					c-4.4-1.9-8.5-4.5-12.1-7.8c-1.5-1.3-2-3.3-1.3-5.2c0.7-1.8,2.4-3,4.4-3h62.2c2,0,3.7,1.2,4.4,3c0.7,1.8,0.2,3.9-1.3,5.2
					c-3.7,3.2-7.8,5.8-12.1,7.8c-10.1,4.5-13.9,15.5-11.6,33.5c0.2,1.3,0.3,2.7,0.4,4.2l0.1,1.5c0,0,0,0,0,0
					c0.8,10,8.2,20,17.3,23.3c1.5,0.6,3.2,0.9,5,1.3c3.9,0.8,8.4,1.8,11.6,5.1c5,5.2,5.8,14.4,1.9,20.9
					C111.6,209.4,84.1,209.4,75,209.4z M43.9,89.9c-0.7,0-0.9,0.5-1,0.7c-0.1,0.2-0.2,0.7,0.3,1.2c3.4,3,7.2,5.4,11.2,7.2
					c5.9,2.6,10.3,7.6,12.7,14.4c4.4,12.2,1.8,27.1-2.5,35.8c-2.4,4.9-5.5,8.7-9.2,11.3c-3.6,2.6-7.7,4-11.7,5.4
					c-1.6,0.6-3.1,1.1-4.7,1.7c-8.8,3.6-11.9,8.2-10.4,15.5c1.2,6,4.5,10.9,9.6,14.4c10.6,7.3,25.2,8.3,36.7,8.3
					c23.2,0,37.5-5.1,43.7-15.5c3-5.2,2.4-12.6-1.4-16.6c-2.4-2.5-6-3.3-9.7-4.1c-1.8-0.4-3.8-0.8-5.5-1.4
					c-10.3-3.7-18.8-15.1-19.7-26.5l-0.1-1.5c-0.1-1.4-0.2-2.7-0.4-4c-2.6-19.9,1.9-32.1,13.7-37.3c4-1.8,7.8-4.2,11.2-7.2
					c0.5-0.4,0.4-1,0.3-1.2c-0.1-0.2-0.3-0.7-1-0.7H43.9z"/>
			</g>
		</g>
		<g>
			<rect x="18" y="21.5" style="fill:#F09D00;" width="114" height="20.6"/>
			<path d="M132,44H18c-1,0-1.8-0.8-1.8-1.8V21.5c0-1,0.8-1.8,1.8-1.8h114c1,0,1.8,0.8,1.8,1.8v20.6C133.8,43.2,133,44,132,44z
				 M19.8,40.4h110.4v-17H19.8V40.4z"/>
		</g>
		<g>
			<path style="fill:#D46D02;" d="M135.5,27.2H14.5c-7,0-12.7-5.7-12.7-12.7v0c0-7,5.7-12.7,12.7-12.7h120.9c7,0,12.7,5.7,12.7,12.7
				v0C148.2,21.5,142.5,27.2,135.5,27.2z"/>
			<path d="M139.1,29.1H10.9C4.9,29.1,0,24.2,0,18.1v-7.2C0,4.9,4.9,0,10.9,0h128.1c6,0,10.9,4.9,10.9,10.9v7.2
				C150,24.2,145.1,29.1,139.1,29.1z M10.9,3.6c-4,0-7.3,3.3-7.3,7.3v7.2c0,4,3.3,7.3,7.3,7.3h128.1c4,0,7.3-3.3,7.3-7.3v-7.2
				c0-4-3.3-7.3-7.3-7.3H10.9z"/>
		</g>
		<g>
			<rect x="18" y="197.8" style="fill:#F09D00;" width="114" height="20.6"/>
			<path d="M132,220.3H18c-1,0-1.8-0.8-1.8-1.8v-20.6c0-1,0.8-1.8,1.8-1.8h114c1,0,1.8,0.8,1.8,1.8v20.6
				C133.8,219.5,133,220.3,132,220.3z M19.8,216.7h110.4v-17H19.8V216.7z"/>
		</g>
		<g>
			<path style="fill:#D46D02;" d="M138.2,212.8H11.8c-5.5,0-10,4.5-10,10v5.4c0,5.5,4.5,10,10,10h126.4c5.5,0,10-4.5,10-10v-5.4
				C148.2,217.2,143.7,212.8,138.2,212.8z"/>
			<path d="M139.1,240H10.9c-6,0-10.9-4.9-10.9-10.9v-7.2c0-6,4.9-10.9,10.9-10.9h128.1c6,0,10.9,4.9,10.9,10.9v7.2
				C150,235.1,145.1,240,139.1,240z M10.9,214.6c-4,0-7.3,3.3-7.3,7.3v7.2c0,4,3.3,7.3,7.3,7.3h128.1c4,0,7.3-3.3,7.3-7.3v-7.2
				c0-4-3.3-7.3-7.3-7.3H10.9z"/>
		</g>
	</g>
</g>
</svg>
