<?xml version="1.0" encoding="utf-8"?>
<!-- Generator: Adobe Illustrator 24.1.1, SVG Export Plug-In . SVG Version: 6.00 Build 0)  -->
<svg version="1.1" id="Layer_1" xmlns="http://www.w3.org/2000/svg" xmlns:xlink="http://www.w3.org/1999/xlink" x="0px" y="0px"
	 viewBox="0 0 270 240" style="enable-background:new 0 0 270 240;" xml:space="preserve">
<g>
	<path style="fill:#FFFFFF;" d="M128.14,29.37c-0.49,1.65-3.4,2.88-5.49,2.77c-0.08-0.01-0.17,0.01-0.26,0
		c-2.16-0.23-1.92-1.94-3.88-3.87c-0.65-0.61-1.26-0.93-1.85-0.99c-2.11-0.22-4.11,2.66-7.17,5.74c-1.81,1.82-4.25,2.59-6.61,2.34
		c-1.77-0.19-3.51-0.94-4.87-2.3c-3.16-3.17-3.21-8.32-0.09-11.54c5.51-5.64,10.39-9.92,17.44-9.17c0.7,0.07,1.4,0.18,2.12,0.37
		c2.66,0.62,5.08,1.9,6.87,4.02C127.42,20.35,129.55,24.64,128.14,29.37z"/>
	<path d="M126.96,14.54c-2.17-2.56-5.08-4.29-8.69-5.12c-0.86-0.2-1.7-0.35-2.54-0.44c-7.24-0.77-12.56,2.79-17.46,7.47
		c-0.94,0.87-1.84,1.79-2.76,2.72c-4.42,4.5-4.35,11.83,0.12,16.28c1.85,1.84,4.28,3.01,6.89,3.28c3.48,0.37,6.9-0.83,9.35-3.33
		c0.73-0.72,1.4-1.44,2.01-2.12c0.22-0.23,0.45-0.46,0.67-0.72c0.61-0.67,1.28-1.34,1.74-1.69c0.36,0.38,0.6,0.77,0.87,1.2
		c0.7,1.18,1.86,3.12,4.86,3.44c0.14,0.01,0.31,0,0.48,0.02c2.91,0.14,7.76-1.42,8.87-5.2C132.93,25.17,131.42,19.87,126.96,14.54z
		 M128.14,29.37c-0.49,1.65-3.4,2.88-5.49,2.77c-0.08-0.01-0.17,0.01-0.26,0c-2.16-0.23-1.92-1.94-3.88-3.87
		c-0.65-0.61-1.26-0.93-1.85-0.99c-1.1-0.12-2.14,0.6-3.33,1.72c-1.11,1.08-2.34,2.54-3.83,4.02c-1.81,1.82-4.25,2.59-6.61,2.34
		c-1.77-0.19-3.51-0.94-4.87-2.3c-3.16-3.17-3.21-8.32-0.09-11.54c1.94-2.01,3.84-3.82,5.76-5.3c3.5-2.75,7.13-4.36,11.68-3.88
		c0.7,0.07,1.4,0.18,2.12,0.37c2.66,0.62,5.08,1.9,6.87,4.02C127.42,20.35,129.55,24.64,128.14,29.37z"/>
	<path style="fill:#683100;" d="M113.33,29c-1.11,1.08-2.34,2.54-3.83,4.02c-1.81,1.82-4.25,2.59-6.61,2.34
		c-1.77-0.19-3.51-0.94-4.87-2.3c-3.16-3.17-3.21-8.32-0.09-11.54c1.94-2.01,3.84-3.82,5.76-5.3c1.13-0.15,2.68,1.19,2.68,1.19
		c0.74,0.76,1.15,1.77,0.87,2.79c-0.22,0.77-0.71,1.37-1.32,1.79c0.69-0.35,1.5-0.47,2.3-0.24c1.71,0.49,2.74,2.28,2.24,4.01
		c-0.23,0.86-0.78,1.51-1.46,1.95c0.12-0.04,0.44-0.12,0.84-0.17C110.74,27.45,112.2,27.6,113.33,29z"/>
</g>
<g>
	<path style="fill:#FFFFFF;" d="M173.59,29.78c-1.57,1.53-3.74,2.19-5.82,1.95c-1.49-0.17-2.92-0.79-4.08-1.83
		c-2.44-2.24-4.17-4.34-5.82-4.53c-0.67-0.08-1.35,0.16-2.06,0.85c-1.72,1.62-1.35,3.6-3.46,3.7c-1.09,0.07-2.09,0.36-2.82,0.28
		c-0.48-0.05-0.85-0.27-1.02-0.77c-1.3-3.84,0.64-9.56,3.22-12.51c1.48-1.74,3.53-2.81,5.84-3.34c1.69-0.38,3.15-0.49,4.5-0.34
		c4.32,0.49,7.33,3.54,11.39,7.27C176.2,23.06,176.27,27.18,173.59,29.78z"/>
	<path d="M178.95,25.1c-0.03-2.7-1.17-5.22-3.2-7.1l-0.21-0.17l-0.59-0.55c-3.96-3.66-7.35-6.83-12.51-7.42
		c-1.77-0.2-3.63-0.07-5.64,0.41c-3.18,0.75-5.77,2.24-7.64,4.42c-3.27,3.75-5.6,10.7-3.85,15.82c0.57,1.71,2.01,2.84,3.83,3.05
		c0.84,0.1,1.68-0.04,2.4-0.12c0.32-0.05,0.64-0.1,1.01-0.11c3.23-0.2,4.38-2.51,4.93-3.64c0.14-0.24,0.25-0.45,0.33-0.62
		c0.55,0.43,1.27,1.11,1.83,1.66c0.3,0.32,0.64,0.64,1,0.97c0.25,0.26,0.51,0.48,0.8,0.74c1.62,1.46,3.68,2.41,5.95,2.67
		c3.2,0.36,6.33-0.7,8.57-2.89C177.93,30.33,178.99,27.78,178.95,25.1z M173.59,29.78c-1.57,1.53-3.74,2.19-5.82,1.95
		c-1.49-0.17-2.92-0.79-4.08-1.83c-1.21-1.1-2.25-2.19-3.18-3.01c-0.95-0.85-1.8-1.43-2.64-1.52c-0.67-0.08-1.35,0.16-2.06,0.85
		c-1.72,1.62-1.35,3.6-3.46,3.7c-1.09,0.07-2.09,0.36-2.82,0.28c-0.48-0.05-0.85-0.27-1.02-0.77c-1.3-3.84,0.64-9.56,3.22-12.51
		c1.48-1.74,3.53-2.81,5.84-3.34c1.69-0.38,3.15-0.49,4.5-0.34c2.47,0.28,4.5,1.39,6.56,3.02c1.54,1.17,3.08,2.62,4.83,4.25
		C176.2,23.06,176.27,27.18,173.59,29.78z"/>
	<path style="fill:#683100;" d="M173.59,29.78c-1.57,1.53-3.74,2.19-5.82,1.95c-1.49-0.17-2.92-0.79-4.08-1.83
		c-1.21-1.1-2.25-2.19-3.18-3.01c0.08-0.16,0.18-0.32,0.31-0.48c0.35-0.36,1.11-0.73,1.66-0.83c0.55-0.08,1.09-0.07,1.58,0.07
		c-0.62-0.33-1.12-0.87-1.33-1.57c-0.47-1.39,0.38-2.85,1.85-3.28c0.67-0.18,1.38-0.1,2,0.17c-0.56-0.32-1.05-0.77-1.2-1.42
		c-0.26-1.22,0.62-2.2,0.62-2.2s0.66-1.06,2.63-1.09c1.54,1.17,3.08,2.62,4.83,4.25C176.2,23.06,176.27,27.18,173.59,29.78z"/>
</g>
<path style="fill-rule:evenodd;clip-rule:evenodd;fill:#009FF8;" d="M107.21,191.15h-0.03l0.37-0.76
	C107.46,190.64,107.32,190.89,107.21,191.15z"/>
<g>
	<path style="fill-rule:evenodd;clip-rule:evenodd;fill:#009FF8;" d="M116.83,230.73c-0.14,0.31-0.28,0.65-0.48,0.96
		c-0.17,0.31-0.37,0.65-0.62,0.96c-1.38,1.92-3.59,3.73-5.73,3.73c-0.03,0-0.03,0-0.06,0c-4.21-0.03-6.75-3.81-9.18-6.66l-8.19-9.6
		l-2.65-3.13c-0.14-0.2-0.28-0.4-0.4-0.59c-0.14-0.23-0.25-0.45-0.34-0.71c-0.48-1.36-0.25-2.91,0.62-4.09
		c0.14-0.23,0.37-0.45,0.59-0.65l6.83-5.82c0.03,0,0.03-0.03,0.03-0.03c0.99-1.19,2.17-2.65,3.39-4.21
		c0.42-0.54,0.82-1.04,1.21-1.58c0.03-0.03,0.06-0.06,0.08-0.08c0.71-0.93,1.38-1.89,2.06-2.82c0.45-0.68,0.88-1.33,1.3-1.95
		c0.34-0.51,0.65-1.02,0.93-1.52l10.11,5.45c0,0-0.14,0.23-0.34,0.56c-0.34,0.56-0.85,1.5-1.27,2.2c-0.31,0.51-0.56,0.93-0.62,1.04
		c-0.14,0.23-0.28,0.45-0.4,0.65c-0.11,0.17-0.23,0.34-0.28,0.42c-1.04,1.64-2.17,3.25-3.42,4.86c-0.03,0.03-0.06,0.08-0.08,0.11
		c-0.54,0.76-0.4,1.75,0.31,2.26c0.08,0.08,0.17,0.14,0.28,0.2c1.52,0.73,3.56,2.29,5.48,5.68c0.03,0.06,0.14,0.25,0.14,0.25
		C118.47,220.94,118.73,226.22,116.83,230.73z"/>
	<path style="fill:#FFFFFF;" d="M118.19,194.54v0.03l-1.84,3.81l-10.11-5.45c0.37-0.62,0.68-1.21,0.93-1.78h0.03
		c0.11-0.25,0.25-0.51,0.34-0.76c0.06-0.06,0.08-0.11,0.08-0.17c0.62-1.36,1.16-2.65,1.58-3.98c0.2-0.54,0.37-1.1,0.54-1.64
		c2.17-7.26,2.2-14.43,0.03-21.43c-0.62-2.06-0.17-4.09,1.24-5.65c1.19-1.27,2.91-2,4.57-2c0.42,0,0.85,0.06,1.24,0.14
		c1.89,0.42,3.3,1.78,3.9,3.76c0.54,1.75,0.99,3.53,1.33,5.28c0.08,0.4,0.17,0.82,0.23,1.21c0.11,0.76,0.23,1.55,0.31,2.32
		C123.61,176.97,122.11,185.78,118.19,194.54z"/>
	<path d="M119.01,214.81c-1.72-3.08-3.59-4.94-5.2-6.1c2.09-2.85,3.95-5.79,5.53-8.72l1.89-3.95c5.68-12.62,6.58-25.24,2.74-37.64
		c-0.96-3.11-3.33-5.36-6.38-6.04c-0.65-0.14-1.33-0.23-2-0.23c-2.65,0-5.22,1.13-7.06,3.11c-2.23,2.4-2.96,5.73-1.98,8.92
		c2.54,8.27,1.72,16.86-2.43,25.52c-1.36,2.82-4.63,7.45-9.29,13.04l-6.64,5.65c-1.55,1.33-2.51,3.19-2.65,5.22
		c-0.17,2.03,0.48,4.04,1.81,5.59l2.65,3.13l8.19,9.6c0.28,0.31,0.56,0.68,0.85,1.02c2.37,2.85,5.59,6.78,10.87,6.83
		c5,0,8.81-4.74,10.05-7.71c2.26-5.48,1.95-11.83-0.85-17.05L119.01,214.81z M116.83,230.73c-0.14,0.31-0.28,0.65-0.48,0.96
		c-0.17,0.31-0.37,0.65-0.62,0.96c-1.38,1.92-3.59,3.73-5.73,3.73c-0.03,0-0.03,0-0.06,0c-4.21-0.03-6.75-3.81-9.18-6.66l-8.19-9.6
		l-2.65-3.13c-0.14-0.2-0.28-0.4-0.4-0.59c-0.14-0.23-0.25-0.45-0.34-0.71c-0.48-1.36-0.25-2.91,0.62-4.09
		c0.14-0.23,0.37-0.45,0.59-0.65l6.83-5.82c0.03,0,0.03-0.03,0.03-0.03c0.99-1.19,2.17-2.65,3.39-4.21
		c0.42-0.54,0.82-1.04,1.21-1.58c0.03-0.03,0.06-0.06,0.08-0.08c0.71-0.93,1.38-1.89,2.06-2.82c0.45-0.68,0.88-1.33,1.3-1.95
		c0.34-0.51,0.65-1.02,0.93-1.52c0.37-0.62,0.68-1.21,0.93-1.78h0.03l0.42-0.93c0.62-1.36,1.16-2.65,1.58-3.98
		c0.2-0.54,0.37-1.1,0.54-1.64c2.17-7.26,2.2-14.43,0.03-21.43c-0.62-2.06-0.17-4.09,1.24-5.65c1.19-1.27,2.91-2,4.57-2
		c0.42,0,0.85,0.06,1.24,0.14c1.89,0.42,3.3,1.78,3.9,3.76c0.54,1.75,0.99,3.53,1.33,5.28c0.08,0.4,0.17,0.82,0.23,1.21
		c0.11,0.76,0.23,1.55,0.31,2.32c1.02,8.75-0.48,17.56-4.4,26.32v0.03l-1.84,3.81c0,0-0.14,0.23-0.34,0.56
		c-0.34,0.56-0.85,1.5-1.27,2.2c-0.31,0.51-0.56,0.93-0.62,1.04c-0.14,0.23-0.28,0.45-0.4,0.65c-0.11,0.17-0.23,0.34-0.28,0.42
		c-1.04,1.64-2.17,3.25-3.42,4.86c-0.03,0.03-0.06,0.08-0.08,0.11c-0.54,0.76-0.4,1.75,0.31,2.26c0.08,0.08,0.17,0.14,0.28,0.2
		c1.52,0.73,3.56,2.29,5.48,5.68c0.03,0.06,0.14,0.25,0.14,0.25C118.47,220.94,118.73,226.22,116.83,230.73z"/>
</g>
<g>
	<path style="fill-rule:evenodd;clip-rule:evenodd;fill:#009FF8;" d="M187.34,209.95c-1.33,4.01-5.7,5.25-9.18,6.69l-11.63,4.83
		l-2.26,0.93c-0.17,0.08-0.37,0.14-0.54,0.2c-0.2,0.08-0.4,0.14-0.59,0.14c-2.46,0.48-4.94-0.59-6.24-2.71
		c-0.14-0.2-0.25-0.45-0.34-0.68c-0.06-0.06-0.06-0.08-0.08-0.14l-2.09-5.08h-0.03l-0.17-0.51l-0.54-1.24l0.03-0.06l-1.86-5.03
		c-1.84-5-3.76-10.14-4.88-13.16l1.92-0.65c2.15-0.73,4.69-1.61,6.92-2.43l2.06-0.73l0.28,0.73c1.07,2.77,2.17,5.59,3.3,8.41
		c0.03,0.08,0.06,0.14,0.08,0.23c0.2,0.45,0.54,0.79,0.96,0.93c0.23,0.11,0.45,0.17,0.71,0.17c0.2,0,0.42-0.03,0.65-0.14
		c0.17-0.06,0.37-0.17,0.54-0.28c0.93-0.68,2.2-1.36,3.9-1.86c0.23-0.08,0.42-0.14,0.68-0.2c0.37-0.11,0.79-0.2,1.21-0.28
		c0.06-0.03,0.28-0.06,0.28-0.06c0.96-0.17,1.92-0.25,2.91-0.25c3.9,0,7.76,1.38,10.76,3.95
		C186.1,203.4,188.27,207.21,187.34,209.95z"/>
	<path style="fill:#FFFFFF;" d="M157.83,190.33l-2.06,0.73c-2.23,0.82-4.77,1.69-6.92,2.43l-1.92,0.65l-0.34-0.88
		c-0.14-0.4-0.28-0.73-0.4-1.02c-0.25-0.68-0.54-1.36-0.79-2.06c-3.25-8.27-7.14-17.53-12.68-25.84c-1.19-1.75-1.33-3.81-0.42-5.65
		c0.96-1.95,2.94-3.3,5.08-3.44h0.34c1.81,0,3.44,0.88,4.55,2.51c6.1,9.15,10.28,19.12,14,28.6c0.25,0.65,0.51,1.3,0.76,1.92
		L157.83,190.33z"/>
	<path d="M154.39,214.13l2.09,5.08c0.03,0.06,0.03,0.08,0.08,0.14L154.39,214.13z"/>
	<path d="M186.29,199.08c-3.61-3.05-8.22-4.74-12.96-4.74c-1.19,0-2.37,0.11-3.53,0.31l-0.25,0.06c-2.15,0.42-4.01,1.07-5.62,1.95
		c-0.9-2.29-1.81-4.55-2.65-6.8l-0.31-0.73l-0.76-2.03l-0.08-0.2l-0.06-0.17l-0.62-1.55c-0.03-0.06-0.06-0.14-0.08-0.2
		c-3.5-8.98-7.79-19.34-14.26-29.05c-1.72-2.57-4.4-4.04-7.37-4.04h-0.56c-3.3,0.23-6.41,2.32-7.91,5.31
		c-1.44,2.91-1.19,6.3,0.65,9.06c5.79,8.7,9.83,18.61,13.13,27.22c0.93,2.37,3.42,9.09,5.62,15.02l1.67,4.52
		c0.06,0.23,0.11,0.45,0.2,0.68l0.54,1.24l0.14,0.4c0.06,0.17,0.11,0.31,0.2,0.45l2.03,4.88c1.41,3.44,4.74,5.65,8.47,5.65
		c1.19,0,2.37-0.23,3.5-0.71l2.43-0.99l11.63-4.83c0.4-0.17,0.82-0.34,1.24-0.51c3.44-1.36,8.16-3.25,9.85-8.24
		C192.14,206.34,188.78,201.23,186.29,199.08z M187.34,209.95c-1.33,4.01-5.7,5.25-9.18,6.69l-11.63,4.83l-2.26,0.93l-0.17,0.08
		c-0.11,0.06-0.25,0.08-0.37,0.11c-0.2,0.08-0.4,0.14-0.59,0.14c-2.46,0.48-4.94-0.59-6.24-2.71c-0.14-0.2-0.25-0.45-0.34-0.68
		c-0.06-0.06-0.06-0.08-0.08-0.14l-2.09-5.08h-0.03l-0.17-0.51l-0.54-1.24l0.03-0.06l-1.86-5.03c-1.84-5-3.76-10.14-4.88-13.16
		c-0.28-0.73-0.51-1.36-0.68-1.81l-0.06-0.08c-3.39-8.78-7.48-18.89-13.47-27.9c-1.19-1.75-1.33-3.81-0.42-5.65
		c0.96-1.95,2.94-3.3,5.08-3.44h0.34c1.84,0,3.47,0.9,4.55,2.51c6.1,9.15,10.28,19.09,14,28.6l0.62,1.58
		c0.03,0.11,0.08,0.23,0.14,0.34l0.79,2.03l0.28,0.73c1.07,2.77,2.17,5.59,3.3,8.41c0.03,0.08,0.06,0.14,0.08,0.23
		c0.2,0.45,0.54,0.79,0.96,0.93c0.23,0.11,0.45,0.17,0.71,0.17c0.2,0,0.42-0.03,0.65-0.14c0.17-0.06,0.37-0.17,0.54-0.28
		c0.93-0.68,2.2-1.36,3.9-1.86c0.23-0.08,0.42-0.14,0.68-0.2c0.37-0.11,0.79-0.2,1.21-0.28c0.06-0.03,0.28-0.06,0.28-0.06
		c0.96-0.17,1.92-0.25,2.91-0.25c3.9,0,7.76,1.38,10.76,3.95C186.1,203.4,188.27,207.21,187.34,209.95z"/>
</g>
<g>
	<g>
		<g>
			<path style="fill:#FFFFFF;" d="M164.48,146.45c-2.73-5.62-3.97-11.54-5.4-17.85c-0.63-2.79-2.74-12.98-7.82-9.4
				c-1.84,1.3-1.98,4.65-2.24,6.66c-0.58,4.38-0.49,8.78,0.19,13.06c0.77,4.8,2.27,9.39,4.31,13.74
				C156.12,150.53,159.89,148.08,164.48,146.45z"/>
		</g>
		<g>
			<path style="fill:#0088C5;" d="M178.87,162.82c-0.06-0.04-0.13-0.09-0.2-0.13c-1.72-1.16-3.25-2.35-4.66-3.59
				c-2.02-1.78-3.77-3.68-5.4-5.87c-0.8-1.08-1.58-2.22-2.33-3.45c-0.68-1.1-1.26-2.21-1.8-3.33c-4.59,1.62-8.35,4.07-10.96,6.2
				c0.99,2.1,2.09,4.15,3.3,6.12c3.48,5.62,7.86,11.81,13.47,15.57c2.73,1.83,6.44,2.23,9.57,0.56c0.65-0.35,1.25-0.75,1.74-1.16
				c1.8-1.51,3-3.76,2.44-5.98c-0.11-0.44-0.3-0.83-0.52-1.19C182.51,164.88,180.49,163.94,178.87,162.82z"/>
		</g>
	</g>
	<path d="M153.3,118.45c3.62,0,5.24,7.77,5.78,10.15c1.42,6.31,2.67,12.23,5.4,17.85c0.54,1.12,1.13,2.23,1.8,3.33
		c0.76,1.23,1.53,2.37,2.33,3.45c1.63,2.18,3.38,4.09,5.4,5.87c1.41,1.24,2.94,2.43,4.66,3.59c0.07,0.04,0.13,0.09,0.2,0.13
		c1.62,1.11,3.64,2.05,4.66,3.74c0.22,0.36,0.41,0.75,0.52,1.19c0.56,2.22-0.65,4.47-2.44,5.98c-0.49,0.41-1.09,0.82-1.74,1.16
		c-1.35,0.72-2.81,1.06-4.26,1.06c-1.89,0-3.76-0.58-5.31-1.62c-5.62-3.76-10-9.96-13.47-15.57c-1.22-1.97-2.32-4.02-3.3-6.12
		c-2.04-4.34-3.55-8.94-4.31-13.74c-0.68-4.28-0.77-8.68-0.19-13.06c0.27-2.01,0.4-5.36,2.24-6.66
		C152,118.68,152.68,118.45,153.3,118.45 M153.3,115.06c-1.36,0-2.71,0.46-4,1.37c-2.85,2.01-3.28,5.75-3.56,8.22l-0.09,0.77
		c-0.61,4.65-0.54,9.37,0.2,14.04c0.78,4.89,2.33,9.82,4.59,14.64c1.05,2.25,2.23,4.42,3.49,6.46c3.4,5.5,8.13,12.36,14.47,16.6
		c2.11,1.41,4.66,2.19,7.19,2.19c2.05,0,4.07-0.51,5.86-1.46c0.84-0.45,1.64-0.99,2.32-1.55c3.02-2.53,4.38-6.14,3.55-9.4
		c-0.18-0.71-0.48-1.4-0.9-2.11c-1.2-1.99-3.08-3.16-4.59-4.11c-0.36-0.23-0.72-0.45-1.06-0.68l-0.22-0.15
		c-1.56-1.05-2.97-2.14-4.32-3.32c-1.83-1.61-3.44-3.36-4.92-5.35c-0.74-0.99-1.45-2.04-2.17-3.2c-0.53-0.86-1.05-1.83-1.64-3.03
		c-2.41-4.96-3.62-10.36-4.91-16.08l-0.23-1.04l-0.05-0.24C161.49,123.86,159.52,115.06,153.3,115.06L153.3,115.06z"/>
</g>
<g>
	<path d="M137.03,27.02c0.41,0,0.82,0.01,1.22,0.02c0,0,0.09,0,0.21,0l3.71,0.12c11.55,0.33,23.25,6.21,32.09,13.73
		c6.88,5.85,10.93,15.49,12.63,24.23c0.1,0.53,0.16,1.05,0.25,1.57c0.2,0.9,0.39,1.79,0.54,2.68c1.86,10.6-0.92,19.35-4.9,29.23
		c-0.86,2.14-6.5,12.46-6.63,12.97c-1.94,5.8,0.34,13.39,0.54,19.33c0.38,11.06-0.56,22.33-6.24,32.1
		c-7.17,12.34-20.55,16.15-33.95,16.15c-1.06,0-2.13-0.02-3.19-0.07c-1.73-0.07-3.46-0.22-5.18-0.44c-0.07-0.01-0.13-0.02-0.2-0.03
		l-3.5-0.44c-1.72-0.21-3.5-0.51-5.2-0.86c-11.65-2.43-24.12-8.44-30.4-19.04c-4.54-7.67-5.27-19.62-3.72-28.29
		c1.21-6.77,4.03-13.13,6.05-19.66c0.79-2.56,2.06-5.01,2.15-7.69c0.02-0.56,0-1.13-0.02-1.69c-0.29-1.25-2.5-10.63-2.93-14.17
		c-1.52-8.12-1.25-16.42,0.88-24.62c2.23-8.62,6.87-17.98,14.1-23.4C114.34,32.04,125.86,27.02,137.03,27.02 M137.03,23.63
		c-10.88,0-23.16,4.52-33.69,12.41C96.4,41.24,90.8,50.45,87.99,61.3c-2.23,8.6-2.55,17.34-0.95,25.99c0.37,2.96,1.78,9.27,2.9,14.1
		c0.01,0.4,0.02,0.76,0.01,1.12c-0.05,1.36-0.59,2.85-1.17,4.43c-0.29,0.79-0.58,1.58-0.82,2.38c-0.65,2.09-1.4,4.24-2.13,6.31
		c-1.55,4.4-3.16,8.96-4.02,13.76c-1.61,9.04-0.96,22.01,4.14,30.62c5.94,10.02,17.83,17.54,32.62,20.63
		c1.73,0.36,3.63,0.68,5.47,0.91l3.5,0.44l0.19,0.03c1.83,0.23,3.66,0.38,5.46,0.46c1.11,0.05,2.22,0.07,3.33,0.07
		c17.34,0,30.1-6.17,36.88-17.84c6.57-11.31,7.03-24.07,6.69-33.92c-0.07-2.06-0.36-4.26-0.65-6.39c-0.55-4.16-1.13-8.45-0.1-11.65
		c0.25-0.54,1.25-2.43,2.14-4.11c2.28-4.31,3.93-7.47,4.45-8.77c3.87-9.61,7.17-19.21,5.09-31.08c-0.16-0.9-0.35-1.81-0.55-2.73
		l-0.08-0.49c-0.05-0.36-0.11-0.72-0.18-1.09c-2.14-11.01-7.15-20.54-13.76-26.16c-10.48-8.91-22.95-14.21-34.19-14.53l-3.7-0.12
		l-0.28,0C137.92,23.63,137.48,23.63,137.03,23.63L137.03,23.63z"/>
	<path style="fill:#009FF9;" d="M182.8,98.58c3.98-9.88,6.76-18.62,4.89-29.23c-0.16-0.88-0.34-1.78-0.54-2.68
		c-0.09-0.52-0.15-1.04-0.25-1.57c-1.7-8.74-5.75-18.37-12.63-24.23c-8.84-7.52-20.54-13.4-32.1-13.72l-3.71-0.12
		c-0.12,0-0.21,0-0.21,0c-11.55-0.39-23.59,4.76-32.88,11.71c-7.23,5.42-11.87,14.78-14.1,23.4c-2.12,8.2-2.39,16.5-0.88,24.62
		c0.43,3.54,2.64,12.92,2.93,14.17c0.02,0.56,0.04,1.12,0.02,1.69c-0.09,2.68-1.36,5.13-2.15,7.69c-2.02,6.54-4.84,12.9-6.05,19.66
		c-1.55,8.67-0.82,20.63,3.72,28.29c6.28,10.6,18.75,16.61,30.4,19.04c1.7,0.35,3.48,0.65,5.2,0.86l3.5,0.44
		c0.07,0.01,0.13,0.02,0.2,0.03c1.72,0.21,3.45,0.36,5.18,0.44c14.43,0.62,29.4-2.76,37.14-16.08c5.68-9.77,6.61-21.05,6.23-32.1
		c-0.2-5.94-2.48-13.54-0.54-19.33C176.3,111.04,181.94,100.72,182.8,98.58z"/>
</g>
<g>
	<g>
		<g>
			<path style="fill:#FFFFFF;" d="M133.38,118.66c-7.29-1.66-13.63-4.72-20.47-7.91c-3.03-1.41-13.92-6.71-14.85-0.13
				c-0.34,2.38,2.57,4.79,4.16,6.39c3.47,3.48,7.5,6.44,11.91,8.83c4.94,2.68,10.31,4.62,15.88,5.96
				C130.23,128.22,131.09,123.49,133.38,118.66z"/>
		</g>
		<g>
			<path style="fill:#0088C5;" d="M159.86,118.27c-0.09,0.02-0.19,0.04-0.28,0.07c-2.45,0.6-4.77,1.02-7.04,1.3
				c-3.24,0.41-6.39,0.52-9.68,0.33c-1.62-0.09-3.28-0.25-5.01-0.48c-1.54-0.21-3.02-0.5-4.47-0.83c-2.29,4.83-3.15,9.56-3.37,13.13
				c2.7,0.65,5.43,1.16,8.2,1.53c7.89,1.05,17.05,1.76,25.02-0.2c3.88-0.95,7.27-3.68,8.31-7.36c0.22-0.77,0.34-1.53,0.37-2.21
				c0.11-2.49-0.93-5.01-3.38-6.09c-0.49-0.21-0.99-0.32-1.49-0.4C164.69,116.74,162.19,117.72,159.86,118.27z"/>
		</g>
	</g>
	<path d="M102.2,107.4c3.7,0,8.78,2.46,10.71,3.35c6.85,3.19,13.19,6.25,20.47,7.91c1.45,0.33,2.93,0.63,4.47,0.83
		c1.72,0.23,3.39,0.39,5.01,0.48c1.03,0.06,2.05,0.09,3.06,0.09c2.21,0,4.4-0.14,6.62-0.42c2.27-0.29,4.59-0.71,7.04-1.3
		c0.09-0.02,0.19-0.04,0.28-0.07c2-0.47,4.12-1.26,6.18-1.26c0.34,0,0.67,0.02,1,0.07c0.5,0.07,1,0.18,1.49,0.4
		c2.46,1.07,3.49,3.6,3.38,6.09c-0.03,0.68-0.16,1.44-0.37,2.21c-1.04,3.68-4.44,6.41-8.31,7.36c-3.65,0.9-7.55,1.23-11.46,1.23
		c-4.63,0-9.28-0.47-13.55-1.04c-2.77-0.37-5.51-0.88-8.2-1.53c-5.57-1.34-10.94-3.28-15.89-5.96c-4.41-2.39-8.44-5.35-11.91-8.83
		c-1.59-1.6-4.5-4.01-4.16-6.39C98.39,108.22,100.07,107.4,102.2,107.4 M102.2,104.01C102.2,104.01,102.2,104.01,102.2,104.01
		c-4.15,0-6.96,2.29-7.5,6.13c-0.54,3.79,2.49,6.72,4.5,8.66c0.22,0.21,0.43,0.41,0.62,0.6c3.66,3.66,7.93,6.83,12.69,9.41
		c4.98,2.7,10.6,4.81,16.71,6.27c2.84,0.68,5.72,1.22,8.55,1.6c5.49,0.73,9.93,1.07,14,1.07c4.61,0,8.63-0.44,12.27-1.33
		c5.31-1.31,9.43-5.03,10.76-9.73c0.28-1,0.46-2.03,0.5-2.98c0.19-4.22-1.89-7.8-5.41-9.34c-0.72-0.31-1.47-0.52-2.37-0.65
		c-0.48-0.07-0.98-0.1-1.48-0.1c-1.95,0-3.8,0.51-5.43,0.95c-0.52,0.14-1.03,0.28-1.53,0.4l-0.3,0.07
		c-2.27,0.55-4.45,0.95-6.67,1.23c-2.1,0.26-4.13,0.39-6.2,0.39c-0.95,0-1.9-0.03-2.87-0.08c-1.53-0.08-3.08-0.23-4.75-0.46
		c-1.25-0.17-2.57-0.41-4.17-0.78c-6.53-1.48-12.43-4.24-18.67-7.15l-1.13-0.53l-0.27-0.12
		C110.32,105.81,105.98,104.01,102.2,104.01L102.2,104.01L102.2,104.01z"/>
</g>
<g>
	<path style="fill:#91DCFF;" d="M228.31,127.48c-10.87,11.63-38.74,15.42-58.59,16.63c17-4.35,37.55-12.25,47.58-19.85
		c3.98-3.02,5.68-6.13,5.03-9.23c-0.65-3.08-3.56-5.53-6.92-7.43c7.45,1.61,15.28,4.46,17.11,9.06
		C233.67,119.63,232.26,123.27,228.31,127.48z"/>
	<path d="M235.14,115.62c-4.32-10.81-30.8-12.54-31.93-12.59c-0.79-0.06-1.36,0.48-1.47,1.21c-0.11,0.71,0.34,1.38,1.07,1.58
		c4.29,1.02,15.7,4.8,16.74,9.8c0.4,1.95-0.93,4.09-3.98,6.41c-15.39,11.66-52.29,22.48-66.18,22.59c-0.82-0.03-1.3-0.03-1.33-0.03
		c-0.93-0.06-1.44,0.56-1.47,1.36c-0.03,0.76,0.56,1.41,1.33,1.47c0.42,0.03,0.82,0.03,1.27,0.03c0.9,0.03,2.29,0.03,4.04,0.03
		c15.73,0,61.61-1.47,77.14-18.07C235.14,124.31,236.75,119.68,235.14,115.62z M169.72,144.11c17-4.35,37.55-12.25,47.58-19.85
		c3.98-3.02,5.68-6.13,5.03-9.23c-0.65-3.08-3.56-5.53-6.92-7.43c7.45,1.61,15.28,4.46,17.11,9.06c1.16,2.96-0.25,6.61-4.21,10.81
		C217.44,139.11,189.57,142.89,169.72,144.11z"/>
</g>
<g>
	<path style="fill-rule:evenodd;clip-rule:evenodd;fill:#FFFFFF;" d="M196.03,84.33c0.23,7-1.98,12.82-6.47,17.31
		c-6.64,6.58-18.66,10.25-32.24,9.74c-33.57-1.21-49.75-13.02-49.52-36.06c0.06-3.28,0.79-20.05,11.83-30.49
		c6.16-5.84,14.48-8.78,24.82-8.78c0.82,0,1.61,0.03,2.46,0.06c39.36,1.69,39.25,30.95,39.22,32.19c0,0.71,0.42,1.36,1.07,1.61
		C187.56,70.05,195.72,73.38,196.03,84.33z"/>
	<path d="M189.48,67.22c-0.14-2.99-1.07-11.18-6.8-18.86c-5.73-7.68-16.26-14.8-35.63-15.64c-12.4-0.54-22.42,2.71-29.76,9.66
		c-11.72,11.1-12.82,27.98-12.85,32.89c-0.28,25.3,16.97,38.23,52.77,39.5c0.88,0.03,1.75,0.06,2.63,0.06
		c13.55,0,25.16-3.87,32.1-10.79c5.22-5.17,7.74-11.83,7.48-19.79C199.11,73.35,192.19,68.66,189.48,67.22z M146.91,36.11
		c39.36,1.69,39.25,30.95,39.22,32.19c0,0.71,0.42,1.36,1.07,1.61c0.37,0.14,8.53,3.47,8.84,14.43c0.23,7-1.98,12.82-6.47,17.31
		c-6.64,6.58-18.66,10.25-32.24,9.74c-33.57-1.21-49.75-13.02-49.52-36.06c0.06-3.28,0.79-20.05,11.83-30.49
		c6.16-5.84,14.48-8.78,24.82-8.78C145.27,36.05,146.06,36.08,146.91,36.11z"/>
	<path style="fill-rule:evenodd;clip-rule:evenodd;fill:#FFBEB8;" d="M156.61,83.83c-0.59,6.9-6.38,12.03-12.93,11.46
		c-6.54-0.56-11.37-6.61-10.77-13.5c0.59-6.89,6.38-12.02,12.92-11.46C152.38,70.9,157.2,76.94,156.61,83.83"/>
	<path style="fill-rule:evenodd;clip-rule:evenodd;fill:#FFBEB8;" d="M196.38,85.69c0.01-2.42-0.75-10.74-5.16-8.95
		c-5.95,2.42-6.02,12.41-4.72,17.72c0.51,2.09,1.73,4.69,4.31,4.85c1.46,0.09,2.64-2.41,3.06-3.27
		C195.42,92.83,196.37,89.28,196.38,85.69z"/>
</g>
<g>
	<path style="fill-rule:evenodd;clip-rule:evenodd;" d="M177.58,79.81c-0.08,0.9-1.09,1.54-2.27,1.44s-2.08-0.91-2-1.81
		c0.08-0.89,1.09-1.54,2.28-1.44C176.77,78.1,177.66,78.92,177.58,79.81"/>
	<path style="fill-rule:evenodd;clip-rule:evenodd;" d="M180.77,78.13L180.77,78.13c-1.23-0.11-2.12-1.4-2-2.89l0.03-0.38
		c0.13-1.49,1.23-2.61,2.46-2.51s2.12,1.4,2,2.89l-0.03,0.38C183.11,77.11,182,78.24,180.77,78.13"/>
	<path style="fill-rule:evenodd;clip-rule:evenodd;" d="M161.71,76.49L161.71,76.49c-1.45-0.12-2.52-1.43-2.39-2.92l0.03-0.38
		c0.13-1.49,1.4-2.6,2.85-2.47c1.45,0.12,2.52,1.43,2.39,2.92l-0.03,0.38C164.43,75.51,163.15,76.61,161.71,76.49"/>
	<path style="fill:#231815;" d="M184.64,84.04c-0.33-0.71-1.18-1-1.88-0.67c-0.71,0.33-1.01,1.17-0.68,1.88
		c0.04,0.09,0.13,0.28-0.41,0.8c-1.1,1.06-2.44,1.06-3.14,0.95c-1.33-0.19-2.53-0.97-3.14-2.03c-0.04-0.07-0.1-0.11-0.14-0.16
		c-0.05-0.07-0.09-0.15-0.16-0.21c-0.01-0.01-0.03-0.01-0.04-0.02c-0.08-0.06-0.17-0.1-0.25-0.14c-0.08-0.04-0.15-0.09-0.23-0.11
		c-0.1-0.03-0.2-0.03-0.3-0.03c-0.08,0-0.15-0.02-0.22-0.02c-0.1,0.01-0.19,0.05-0.29,0.08c-0.08,0.03-0.16,0.04-0.24,0.08
		c-0.01,0.01-0.03,0.01-0.04,0.01c-0.08,0.04-0.13,0.11-0.19,0.17c-0.06,0.05-0.13,0.08-0.18,0.14c-2.32,2.71-7.92,2.8-11.1,0.17
		c-0.74-0.61-1.14-1.12-1.31-1.39c0.32-0.51,0.28-1.2-0.14-1.67c-0.51-0.58-1.41-0.64-1.99-0.13c-0.5,0.45-0.78,1.05-0.77,1.72
		c0.02,1.11,0.82,2.33,2.41,3.64c2.09,1.73,4.83,2.58,7.5,2.58c2.33,0,4.57-0.68,6.29-1.96c1.08,1.1,2.54,1.85,4.15,2.08
		c0.34,0.05,0.67,0.07,1,0.07c1.7,0,3.3-0.63,4.5-1.78C185.38,86.41,185.01,84.84,184.64,84.04z"/>
</g>
</svg>
