<?xml version="1.0" encoding="utf-8"?>
<!-- Generator: Adobe Illustrator 24.1.1, SVG Export Plug-In . SVG Version: 6.00 Build 0)  -->
<svg version="1.1" id="Layer_1" xmlns="http://www.w3.org/2000/svg" xmlns:xlink="http://www.w3.org/1999/xlink" x="0px" y="0px"
	 viewBox="0 0 230 240" style="enable-background:new 0 0 230 240;" xml:space="preserve">
<g>
	<path style="fill:#FFFFFF;" d="M83.95,42.65c-0.59,0.4-1.14,0.53-1.67,0.5c-2.77-0.15-4.95-5.05-6.48-6.72
		c-1.14-1.25-2.46-1.81-3.86-1.89c-2.31-0.13-4.8,1.03-6.94,2.5c0,0.03-2.25,1.74-3.11,2.5l0,0.03c-1.45,1.35-3.35,1.97-5.17,1.87
		c-1.72-0.1-3.43-0.81-4.7-2.2c-1.65-1.76-2.22-4.17-1.75-6.35c0.29-1.33,0.98-2.56,2.03-3.58c0.23-0.23,0.88-0.81,1.87-1.62
		c3.05-2.55,6.57-4.65,10.48-5.59c1.83-0.44,3.57-0.61,5.21-0.52c1.48,0.08,2.92,0.38,4.32,0.86c1.4,0.51,2.79,1.21,4.23,2.1
		c1.17,0.74,2.25,1.66,3.28,2.61C84.94,30.14,88.83,39.34,83.95,42.65z"/>
	<path d="M83.9,24.74c-1.39-1.26-2.57-2.22-3.77-2.96c-1.67-1.04-3.27-1.83-4.88-2.4c-1.72-0.61-3.43-0.95-5.2-1.04
		c-1.99-0.11-4,0.07-6.16,0.6c-4.02,0.99-7.99,3.09-11.78,6.28c-0.96,0.76-1.67,1.42-2.01,1.72c-1.22,1.17-2.14,2.6-2.66,4.17
		c-0.13,0.34-0.23,0.72-0.3,1.09c-0.72,3.3,0.22,6.75,2.53,9.26c1.81,1.93,4.25,3.07,6.89,3.21c2.77,0.15,5.52-0.85,7.57-2.76
		c0.28-0.25,0.82-0.68,1.38-1.14c0.87-0.63,1.8-1.3,1.91-1.43c1.68-1.07,3.22-1.63,4.35-1.57c0.65,0.04,1.17,0.31,1.65,0.85
		c0.25,0.28,0.73,0.98,1.15,1.63c1.67,2.49,3.93,5.94,7.53,6.14c1.26,0.07,2.52-0.29,3.64-1.04c2.21-1.49,3.48-3.82,3.72-6.72
		C89.85,33.62,86.87,27.52,83.9,24.74z M83.95,42.65c-0.59,0.4-1.14,0.53-1.67,0.5c-2.77-0.15-4.95-5.05-6.48-6.72
		c-1.14-1.25-2.46-1.81-3.86-1.89c-2.31-0.13-4.8,1.03-6.94,2.5c0,0.03-2.25,1.74-3.11,2.5l0,0.03c-1.45,1.35-3.35,1.97-5.17,1.87
		c-1.72-0.1-3.43-0.81-4.7-2.2c-1.65-1.76-2.22-4.17-1.75-6.35c0.29-1.33,0.98-2.56,2.03-3.58c0.23-0.23,0.88-0.81,1.87-1.62
		c1.24-1.04,2.57-2.01,3.96-2.85c2.04-1.21,4.19-2.19,6.52-2.74c1.83-0.44,3.57-0.61,5.21-0.52c1.48,0.08,2.92,0.38,4.32,0.86
		c1.4,0.51,2.79,1.21,4.23,2.1c1.17,0.74,2.25,1.66,3.28,2.61C84.94,30.14,88.83,39.34,83.95,42.65z"/>
	<path style="fill:#673101;" d="M65.01,37.04c0,0.03-2.25,1.74-3.11,2.5l0,0.03c-1.45,1.35-3.35,1.97-5.17,1.87
		c-1.72-0.1-3.43-0.81-4.7-2.2c-1.65-1.76-2.22-4.17-1.75-6.35c0.29-1.33,0.98-2.56,2.03-3.58c0.23-0.23,0.88-0.81,1.87-1.62
		c1.24-1.04,2.57-2.01,3.96-2.85c0.13,0.01,0.24,0.04,0.35,0.07c0.03,0,0.03,0,0.05,0c0.03,0,0.03,0.03,0.05,0.03
		c1.06,0.36,1.5,1.22,1.5,1.22l0,0.03c0.39,0.67,0.51,1.48,0.28,2.28c-0.23,0.66-0.66,1.15-1.22,1.5c0.61-0.26,1.31-0.36,2-0.13
		c1.46,0.49,2.29,2.07,1.8,3.55c-0.23,0.72-0.72,1.28-1.36,1.62c0.49-0.13,1.06-0.18,1.59-0.02C64.16,35.29,64.79,36.11,65.01,37.04
		z"/>
</g>
<g>
	<path style="fill:#FFFFFF;" d="M135.81,43.33c-1.4,1.26-3.17,1.8-4.89,1.72c-1.85-0.08-3.64-0.89-4.95-2.37c0,0,0-0.03-0.03-0.03
		c-0.74-0.84-2.81-2.76-2.81-2.78c-2-1.67-4.33-3.07-6.64-3.17c-1.4-0.06-2.76,0.36-4.02,1.49c-1.68,1.51-4.33,6.15-7.09,6.03
		c-0.54-0.02-1.07-0.21-1.61-0.66c-4.54-3.77,0.25-12.52,3.78-15.18c1.11-0.84,2.28-1.65,3.51-2.27c1.51-0.74,2.96-1.29,4.4-1.66
		c1.44-0.34,2.9-0.49,4.37-0.43c1.64,0.07,3.34,0.42,5.12,1.03c3.79,1.32,7.07,3.75,9.85,6.59c0.9,0.9,1.49,1.54,1.7,1.79
		c0.95,1.12,1.48,2.4,1.66,3.76C138.43,39.41,137.63,41.74,135.81,43.33z"/>
	<path d="M141.37,36.8c-0.23-2-1.07-3.89-2.4-5.45c-0.33-0.36-0.97-1.09-1.88-1.99c-0.33-0.34-0.67-0.67-1.01-0.99
		c-3.15-2.96-6.52-5.1-10.04-6.35c-2.09-0.74-4.06-1.12-6.05-1.21c-1.77-0.08-3.5,0.09-5.29,0.52c-1.63,0.41-3.3,1.04-5.06,1.9
		c-1.26,0.62-2.54,1.45-4.04,2.57c-3.23,2.47-6.79,8.22-6.9,13.22c-0.07,2.9,0.98,5.34,3.02,7.04c1.04,0.85,2.25,1.34,3.51,1.39
		c3.6,0.16,6.18-3.04,8.08-5.34c0.48-0.6,1-1.25,1.3-1.5c0.53-0.49,1.08-0.71,1.72-0.68c1.13,0.05,2.6,0.76,4.16,1.98
		c0.15,0.22,2.28,2.06,2.97,2.82c0.03,0.03,0.03,0.03,0.05,0.06c1.82,2.1,4.48,3.37,7.24,3.49c2.63,0.12,5.17-0.77,7.15-2.51
		C140.48,43.51,141.76,40.18,141.37,36.8z M135.81,43.33c-1.4,1.26-3.17,1.8-4.89,1.72c-1.85-0.08-3.64-0.89-4.95-2.37
		c0,0,0-0.03-0.03-0.03c-0.74-0.84-2.81-2.76-2.81-2.78c-2-1.67-4.33-3.07-6.64-3.17c-1.4-0.06-2.76,0.36-4.02,1.49
		c-1.68,1.51-4.33,6.15-7.09,6.03c-0.54-0.02-1.07-0.21-1.61-0.66c-4.54-3.77,0.25-12.52,3.78-15.18c1.11-0.84,2.28-1.65,3.51-2.27
		c1.51-0.74,2.96-1.29,4.4-1.66c1.44-0.34,2.9-0.49,4.37-0.43c1.64,0.07,3.34,0.42,5.12,1.03c2.25,0.77,4.3,1.96,6.2,3.39l0.03,0
		c1.3,0.97,2.49,2.04,3.62,3.2c0.9,0.9,1.49,1.54,1.7,1.79c0.95,1.12,1.48,2.4,1.66,3.76C138.43,39.41,137.63,41.74,135.81,43.33z"
		/>
	<path style="fill:#673101;" d="M135.81,43.33c-1.4,1.26-3.17,1.8-4.89,1.72c-1.85-0.08-3.64-0.89-4.95-2.37c0,0,0-0.03-0.03-0.03
		c-0.74-0.84-2.81-2.76-2.81-2.78c0.31-0.9,1.01-1.65,2.02-1.87c0.54-0.11,1.08-0.01,1.58,0.18c-0.6-0.4-1.03-1.01-1.19-1.75
		c-0.34-1.52,0.64-3.01,2.14-3.35c0.71-0.16,1.37,0.01,1.98,0.33c-0.52-0.4-0.9-0.93-1.06-1.61c-0.2-0.98,0.14-1.96,0.81-2.6
		c0.81-0.74,1.62-0.76,1.75-0.76l0.03,0c1.3,0.97,2.49,2.04,3.62,3.2c0.9,0.9,1.49,1.54,1.7,1.79c0.95,1.12,1.48,2.4,1.66,3.76
		C138.43,39.41,137.63,41.74,135.81,43.33z"/>
</g>
<g>
	<path style="fill:#FFFFFF;" d="M104.55,203.21c0,0-2.37,0.67-5.52,0.75c-3.15,0.08-5.52-0.46-5.52-0.46l-0.83-31.91
		c-0.05-2.1,5.04-3.93,7.14-3.99c2.1-0.05,3.85,1.59,3.9,3.69L104.55,203.21z"/>
	<path style="fill-rule:evenodd;clip-rule:evenodd;fill:#009FF9;" d="M120.3,233.05c-2.72,3.29-7.27,2.88-11.07,2.96l-3.85,0.11
		l-2.59,0.05l-2.75,0.08l-0.94-0.08c-2.15-0.32-4.82-1.86-4.87-3.77l-0.73-28.89c0,0,2.37,0.54,5.52,0.46
		c3.15-0.08,5.52-0.75,5.52-0.75l0.3,12.17c0.24-0.03,0.48-0.03,0.73-0.03c0.86,0,1.8,0.05,2.88,0.24c0.05,0,0.27,0.05,0.27,0.05
		c4.87,0.92,9.16,4.07,11.52,8.43C121.52,226.45,122.16,230.81,120.3,233.05z"/>
	<path d="M123.1,222.54c-2.83-5.2-7.97-8.97-13.79-10.07l-0.19-0.03c-0.4-0.08-0.75-0.13-1.13-0.16l-0.22-9.16l-0.11-3.66
		l-0.73-28.25c-0.08-3.85-3.18-6.84-7.03-6.84h-0.19c-2.21,0.05-10.42,2.02-10.29,7.3l0.73,28.25l0.83,32.55
		c0.11,3.72,3.99,6.33,7.59,6.89c0.11,0,0.19,0.03,0.27,0.03l0.94,0.08h0.32l2.75-0.08l2.58-0.05l3.88-0.11h1.35
		c3.69-0.05,8.78-0.08,12.12-4.12C125.77,231.54,124.75,225.61,123.1,222.54z M120.3,233.05c-2.72,3.29-7.27,2.88-11.07,2.96
		l-3.85,0.11l-2.59,0.05l-2.75,0.08l-0.94-0.08c-2.15-0.32-4.82-1.86-4.87-3.77l-0.83-32.55l-0.73-28.25
		c-0.05-2.1,5.04-3.93,7.14-3.99h0.11c2.05,0,3.74,1.62,3.8,3.69l0.73,28.25l0.11,3.66l0.3,12.17c0.24-0.03,0.48-0.03,0.73-0.03
		c0.86,0,1.8,0.05,2.88,0.24c0.05,0,0.27,0.05,0.27,0.05c4.87,0.92,9.16,4.07,11.52,8.43C121.52,226.45,122.16,230.81,120.3,233.05z
		"/>
</g>
<g>
	<path d="M158.03,131.18c-0.27-1.75-0.75-3.45-1.48-5.09c-1-2.21-1.83-3.9-3.04-4.74c-3.29-4.17-8.4-7.65-15.27-10.34l-0.59-0.24
		c-1.67-0.67-3.93-1.59-6.41-1.59h-0.62c-3.2,0.22-5.12,1.43-5.74,3.55c-1.08,3.72,2.8,6.89,7.97,10.64
		c0.51,0.38,1.16,0.86,1.32,1.02c0.97,0.89,1.8,1.88,2.45,2.91c0,0.03,0.05,0.11,0.11,0.19c0.24,0.38,0.46,0.75,0.65,1.16
		c0.05,0.13,0.13,0.3,0.19,0.43c0.11,0.24,0.19,0.46,0.27,0.67c0.62,1.88,0.48,3.74-0.46,5.82c-1.16,2.5-1.35,8.29,1.02,11.98
		c1.59,2.48,4.09,3.85,7.08,3.85l0.27-0.03c0.75,0,1.59-0.08,2.42-0.19c1.56-0.19,3.74-0.59,5.25-1.48
		C159.94,145.94,158.24,132.69,158.03,131.18z M151.81,146.91c-0.89,0.51-2.48,0.89-4.04,1.08c-0.73,0.11-1.45,0.16-2.1,0.16
		c-0.05,0.03-0.13,0.03-0.19,0.03c-1.67,0-2.91-0.62-3.77-1.59c-2.48-2.72-2.15-8.08-1.4-9.67c0.32-0.73,0.59-1.45,0.78-2.18
		c0.05-0.16,0.08-0.32,0.11-0.48c0.4-1.88,0.3-3.74-0.32-5.57c-0.08-0.3-0.19-0.57-0.32-0.83c-0.08-0.22-0.16-0.4-0.27-0.59
		c-0.24-0.48-0.48-0.97-0.78-1.43c0-0.03,0-0.03-0.03-0.05c-0.05-0.08-0.11-0.19-0.16-0.27c-0.13-0.22-0.27-0.4-0.43-0.62
		c-0.05-0.08-0.13-0.19-0.19-0.27c-0.3-0.4-0.65-0.81-1-1.21c-0.4-0.46-0.83-0.92-1.32-1.37c-1.43-1.37-13.97-9.05-5.55-9.61
		c1-0.05,2.02,0.11,2.96,0.4c0.46,0.11,0.92,0.27,1.32,0.43c0.48,0.16,0.94,0.35,1.35,0.51c0.22,0.08,0.4,0.16,0.59,0.24
		c0.81,0.32,1.56,0.65,2.29,0.97c5.71,2.53,9.56,5.55,11.96,8.81c0.05,0.05,0.08,0.13,0.13,0.19h0.08c0,0,0,0,0.03,0
		c0.38,0,1.27,1.78,1.72,2.8c0.16,0.32,0.3,0.57,0.32,0.65c0.62,1.4,1.02,2.83,1.24,4.23C155.2,134.39,155.9,144.54,151.81,146.91z"
		/>
	<path style="fill:#FFFFFF;" d="M143.76,147.9c0.57,0.16,1.21,0.27,1.91,0.24c-0.05,0.03-0.13,0.03-0.19,0.03
		C144.83,148.17,144.27,148.09,143.76,147.9z"/>
	<path style="fill:#FFFFFF;" d="M151.29,123.78c-4.25-3.72-9.8-1-11.98,1.72c-0.13-0.22-0.27-0.4-0.43-0.62
		c-0.05-0.08-0.13-0.19-0.19-0.27c-0.3-0.4-0.62-0.81-1-1.21c-0.4-0.46-0.83-0.92-1.32-1.37c-1.43-1.37-13.97-9.05-5.55-9.61
		c1-0.05,2.02,0.11,2.96,0.4c0.46,0.13,0.89,0.27,1.32,0.43c0.48,0.19,0.94,0.35,1.35,0.51c0.22,0.08,0.4,0.16,0.59,0.24
		c0.81,0.32,1.56,0.65,2.29,0.97C145.05,117.5,148.9,120.52,151.29,123.78z"/>
	<path style="fill:#FFFFFF;" d="M139.47,125.77c-0.19-0.3-0.38-0.59-0.59-0.89c0.16,0.22,0.3,0.4,0.43,0.62
		C139.37,125.58,139.42,125.69,139.47,125.77z"/>
	<path style="fill:#0088C5;" d="M151.81,146.91c-0.89,0.51-2.48,0.89-4.04,1.08c-0.73,0.11-1.45,0.16-2.1,0.16
		c-0.7,0.03-1.35-0.08-1.91-0.24c-0.32-0.11-0.62-0.24-0.92-0.4c-0.43-0.24-0.81-0.57-1.13-0.92c-2.48-2.72-2.15-8.08-1.4-9.67
		c0.32-0.73,0.59-1.45,0.78-2.18c0.05-0.16,0.08-0.32,0.11-0.48c0.3-1.27,0.32-2.53,0.11-3.8c-0.03-0.16-0.05-0.3-0.08-0.46
		c-0.03-0.16-0.05-0.32-0.11-0.48c-0.05-0.27-0.13-0.54-0.24-0.83c-0.08-0.27-0.19-0.54-0.32-0.83c-0.27-0.67-0.65-1.37-1.08-2.07
		c-0.05-0.08-0.11-0.19-0.16-0.27c2.18-2.72,7.73-5.44,11.98-1.72c0.05,0.05,0.08,0.13,0.13,0.19h0.08c0,0,0,0,0.03,0
		c0.38,0,1.27,1.78,1.72,2.8c0.16,0.32,0.3,0.57,0.32,0.65c0.62,1.4,1.02,2.83,1.24,4.23C155.2,134.39,155.9,144.54,151.81,146.91z"
		/>
	<path style="fill:#0088C5;" d="M151.51,123.97h-0.08c-0.05-0.05-0.08-0.13-0.13-0.19C151.38,123.83,151.43,123.91,151.51,123.97z"
		/>
</g>
<g>
	<path style="fill:#FFFFFF;" d="M42.54,130.67c-1.53,2.26-2.8,4.63-3.85,7.11c-4.01,0-8.1-2.8-10.15-5.14
		c3.29-6.65,8.19-12.47,15.16-16.86c1.56-0.97,3.96-2.8,5.95-2.29C57.11,115.43,44.13,128.33,42.54,130.67z"/>
	<path style="fill:#0088C5;" d="M31.2,165.84c0.51,0,0.97-0.05,1.37-0.16c-0.75,0.22-1.64,0.24-2.72,0.05
		C30.34,165.81,30.8,165.84,31.2,165.84z"/>
	<path style="fill:#0088C5;" d="M33.17,165.46c0.54-0.24,0.97-0.62,1.35-1.02C34.16,164.87,33.71,165.22,33.17,165.46z"/>
	<path d="M54.9,114.3c-0.35-1.13-1.4-3.15-4.42-3.93c-0.51-0.13-1.02-0.19-1.56-0.19c-2.53,0-4.74,1.43-6.35,2.48L42,113.03
		c-6.89,4.34-12.28,10.23-16.05,17.53c-1.05,1.27-1.86,3.58-3.12,7.19c-0.89,2.59-1.62,5.33-2.15,8.16l-0.11,0.57
		c-1.02,5.2-2.37,12.31,1.37,18.04c1.32,2.05,3.64,3.18,4.9,3.69c0.81,0.32,1.67,0.57,2.48,0.7c0.65,0.11,1.29,0.16,1.88,0.16
		c2.15,0,4.01-0.73,5.41-2.13c1.83-1.88,2.72-4.79,2.64-8.91c0-0.89-0.03-1.75-0.05-2.61c-0.11-4.04-0.22-7.51,0.94-11.23
		c0.03-0.13,0.13-0.51,0.24-1.05c0.16-0.62,0.38-1.48,0.62-2.34c1.13-3.04,2.53-5.84,4.2-8.32c0.19-0.27,0.92-1.1,1.53-1.83
		C51.85,124.64,56.35,118.88,54.9,114.3z M42.54,130.67c-1.53,2.26-2.77,4.66-3.82,7.11c-0.3,0.67-0.57,1.35-0.81,2.02
		c-0.35,1.35-0.67,2.72-0.81,3.26c-0.03,0.08-0.05,0.16-0.05,0.19c-1.56,5.09-1.1,9.61-1.02,14.84c0.03,2.26-0.22,4.79-1.51,6.35
		c-0.38,0.4-0.81,0.78-1.35,1.02c-0.19,0.08-0.38,0.13-0.59,0.22c-0.4,0.11-0.86,0.16-1.37,0.16c-0.4,0-0.86-0.03-1.35-0.11
		c-0.57-0.11-1.21-0.3-1.83-0.54c-1.37-0.54-2.72-1.4-3.39-2.42c-3.15-4.85-1.75-11.2-0.78-16.24c0.48-2.61,1.16-5.2,2.02-7.7
		c0.03-0.08,0.08-0.22,0.16-0.43c0.11-0.32,0.27-0.75,0.46-1.24c0,0-0.03,0,0-0.03c0.54-1.51,1.32-3.58,1.78-4.28
		c0.11-0.16,0.19-0.24,0.24-0.24c0,0,0,0,0,0.03h0.03c3.29-6.65,8.19-12.49,15.16-16.86c1.37-0.86,3.39-2.37,5.22-2.37
		c0.24,0,0.48,0.03,0.73,0.08C57.11,115.43,44.13,128.33,42.54,130.67z"/>
	<path style="fill:#0088C5;" d="M38.69,137.78c-0.27,0.67-0.54,1.35-0.78,2.02c-0.35,1.35-0.67,2.72-0.81,3.26
		c-0.03,0.08-0.05,0.16-0.05,0.19c-1.56,5.09-1.1,9.61-1.02,14.84c0.03,2.26-0.22,4.79-1.51,6.35c-0.38,0.4-0.81,0.78-1.35,1.02
		c-0.19,0.08-0.38,0.13-0.59,0.22c-0.4,0.11-0.86,0.16-1.37,0.16c-0.4,0-0.86-0.03-1.35-0.11c-0.57-0.11-1.21-0.3-1.83-0.54
		c-1.37-0.54-2.72-1.4-3.39-2.42c-3.15-4.85-1.75-11.2-0.78-16.24c0.48-2.61,1.16-5.2,2.02-7.7c0.03-0.08,0.08-0.22,0.16-0.43
		c0.11-0.3,0.27-0.75,0.46-1.24v-0.03c0.59-1.53,1.37-3.58,1.78-4.28c0.11-0.16,0.19-0.24,0.24-0.24c0,0,0,0,0,0.03h0.03
		C30.58,134.98,34.68,137.78,38.69,137.78z"/>
	<path style="fill:#0088C5;" d="M38.71,137.78c-0.3,0.67-0.57,1.35-0.81,2.02c0.24-0.67,0.51-1.35,0.78-2.02H38.71z"/>
</g>
<g>
	<path style="fill-rule:evenodd;clip-rule:evenodd;fill:#009FF9;" d="M132.53,115.65c-0.03,0.16-0.3,2.83-0.3,5.22
		c0,0.78,0.03,1.56,0.11,2.18c0.3,2.29,0.7,4.55,1.08,6.84c0.78,4.44,1.56,9.02,1.59,13.54c0.05,8.05-2.45,19.76-8.13,26.44
		c-6.68,7.89-18.44,12.68-32.29,13.19c-1.64,0.05-3.45,0.05-5.17-0.03l-3.66-0.16c-1.72-0.08-3.5-0.24-5.14-0.43
		c-13.73-1.75-25.01-7.59-30.97-16.05c-5.06-7.16-6.52-19.04-5.74-27.06c0.46-4.5,1.64-9.02,2.8-13.38c0.59-2.21,1.18-4.44,1.7-6.68
		c0.54-2.5,0.48-7.19,0.48-7.43c-0.16-3.53-1.08-6.84-1.94-9.64c-3.37-10.99-3.58-21.14-0.62-31.91
		c2.67-9.75,7.73-17.88,13.84-22.35c9.69-7.03,20.65-10.99,30.4-10.99c0.54,0,1.1,0.03,1.64,0.05l3.88,0.16
		c10.12,0.43,21.41,5.47,30.94,13.79c5.68,4.98,9.96,13.54,11.77,23.51c1.97,10.99,0.86,21.08-3.5,31.72
		C134.2,108.89,133.01,112.12,132.53,115.65z"/>
	<path style="fill-rule:evenodd;clip-rule:evenodd;fill:#FFFFFF;" d="M99.71,42.91c4.32,0.77,8.53,2.12,12.33,3.94
		c6.21,2.97,13.4,7.63,16.53,13.85c1.39,2.75,2.28,5.73,2.73,8.78c0.34,2.3-0.36,5.47,0.92,7.49c2.6,4.09,3.13,6.36,3.67,11.34
		c0.51,4.69-0.12,9.65-2.28,13.87c-5.64,11.01-18.26,15.19-29.64,15.03c-1.57-0.02-3.18-0.05-4.77-0.07
		c-7.39-0.11-14.66-0.57-22.03-1.13c-11.35-0.87-23.55-6.17-28.17-17.64c-1.78-4.4-1.95-9.4-1.03-14.02
		c0.99-4.91,1.72-7.12,4.68-10.96c1.46-1.89,1.04-5.12,1.59-7.38c0.73-2.99,1.88-5.88,3.51-8.5c3.68-5.91,9.55-9.98,16-12.38
		c2.61-0.97,5.32-1.69,8.06-2.2C87.19,41.95,94.33,41.96,99.71,42.91z"/>
	<path style="fill-rule:evenodd;clip-rule:evenodd;fill:#FDBDB8;" d="M74.69,87.3c-0.3,6.62-5.87,11.75-12.44,11.45
		c-6.57-0.3-11.65-5.9-11.35-12.52c0.3-6.61,5.86-11.74,12.43-11.44C69.9,75.08,74.99,80.69,74.69,87.3"/>
	<path style="fill-rule:evenodd;clip-rule:evenodd;fill:#FDBDB8;" d="M132.82,89.91c-0.3,6.62-5.87,11.75-12.44,11.45
		c-6.57-0.3-11.65-5.9-11.35-12.52c0.3-6.61,5.86-11.74,12.43-11.44C128.03,77.7,133.12,83.3,132.82,89.91"/>
	<path d="M138.29,107.41c4.55-11.07,5.76-22.03,3.69-33.52c-1.91-10.66-6.6-19.9-12.82-25.34c-10.07-8.81-22.08-14.14-32.93-14.59
		l-3.85-0.16C81.5,33.3,69.09,37.48,58.26,45.34c-6.7,4.87-12.17,13.68-15.05,24.1c-3.07,11.26-2.85,22.27,0.67,33.71
		c0.78,2.61,1.62,5.68,1.78,8.8c0,1.24-0.03,4.85-0.43,6.62c-0.48,2.18-1.05,4.36-1.64,6.54c-1.18,4.5-2.42,9.13-2.88,13.89
		c-0.86,8.89,0.73,21.38,6.3,29.24c6.46,9.18,18.58,15.54,33.2,17.39c1.72,0.22,3.61,0.38,5.41,0.46l3.64,0.16
		c1.05,0.05,2.1,0.05,3.12,0.05c0.81,0,1.59,0,2.32-0.03c14.76-0.54,27.36-5.76,34.65-14.32c6.22-7.35,8.94-19.63,8.89-28.57
		c-0.03-4.77-0.83-9.51-1.62-14.08c-0.4-2.21-0.78-4.44-1.08-6.68c-0.22-1.8,0.05-5.41,0.19-6.6
		C136.16,112.9,137.27,109.91,138.29,107.41z M89.42,183.04l-3.66-0.16c-1.72-0.08-3.5-0.24-5.14-0.43
		c-13.73-1.75-25.01-7.59-30.97-16.05c-5.06-7.16-6.52-19.04-5.74-27.06c0.46-4.5,1.64-9.02,2.8-13.38c0.59-2.21,1.18-4.44,1.7-6.68
		c0.54-2.5,0.48-7.19,0.48-7.43c-0.16-3.53-1.08-6.84-1.94-9.64c-3.37-10.99-3.58-21.14-0.62-31.91
		c2.67-9.75,7.73-17.88,13.84-22.35c9.69-7.03,20.65-10.99,30.4-10.99c0.54,0,1.1,0.03,1.64,0.05l3.88,0.16
		c10.12,0.43,21.41,5.47,30.94,13.79c5.68,4.98,9.96,13.54,11.77,23.51c1.97,10.99,0.86,21.08-3.5,31.72
		c-1.1,2.69-2.29,5.92-2.77,9.45c-0.03,0.16-0.3,2.83-0.3,5.22c0,0.78,0.03,1.56,0.11,2.18c0.3,2.29,0.7,4.55,1.08,6.84
		c0.78,4.44,1.56,9.02,1.59,13.54c0.05,8.05-2.45,19.76-8.13,26.44c-6.68,7.89-18.44,12.68-32.29,13.19
		C92.94,183.12,91.14,183.12,89.42,183.04z"/>
</g>
<g>
	<path style="fill:#ECAA52;" d="M135.68,119.25c-0.03,0.11-0.08,0.19-0.11,0.3c-0.27,0.75-0.48,1.51-0.7,2.23
		c-0.22,0.75-0.4,1.48-0.54,2.21c-0.16,0.67-0.27,1.32-0.38,1.99c-0.11,0.57-0.19,1.13-0.24,1.72c0,0.05-0.03,0.11-0.03,0.16
		c-0.11,0.94-0.19,1.88-0.22,2.8c-0.03,0.11-0.03,0.19-0.03,0.3c-0.05,1.21-0.03,2.37,0,3.47c0.05,1.05,0.13,2.05,0.24,3.02
		c0.08,0.75,0.16,1.48,0.3,2.15l-0.67,1.35c-0.13-0.62-0.24-1.27-0.35-1.97c-0.11-0.59-0.19-1.21-0.27-1.86
		c-0.67-5.33-0.51-12.17,2.42-19.14c0.03-0.05,0.05-0.13,0.08-0.19L135.68,119.25z"/>
	<path style="fill:#D57430;" d="M137.13,133.09l-0.94,1.97c-0.03-0.11-0.03-0.24-0.03-0.35c-0.03-0.62-0.05-1.29-0.05-1.97
		c0-0.03,0-0.03,0-0.05c0-0.75,0.03-1.56,0.08-2.34c0.03-0.59,0.08-1.21,0.13-1.83c0.03-0.13,0.03-0.3,0.05-0.46
		c0.08-0.59,0.16-1.21,0.27-1.8c0.03-0.08,0.03-0.19,0.05-0.27c0.13-0.78,0.3-1.56,0.48-2.37l1.88,5.52L137.13,133.09z"/>
	<path style="fill:#ECAA52;" d="M143.65,129.08l-21.76,51.24c-0.08,0.22-0.16,0.32-0.19,0.38c-0.03,0-0.05-0.03-0.08-0.08
		l-1.88-2.64c-0.43-0.62-0.48-1.88-0.11-2.67l23.61-48.6c0.08-0.19,0.16-0.27,0.22-0.27c0.03,0,0.03,0.03,0.03,0.08
		C143.89,127.12,143.97,128.3,143.65,129.08z"/>
	<path d="M147.07,127.09c-0.11-0.4-0.4-0.73-0.81-0.86c-0.11-0.46-0.3-0.86-0.57-1.24c-0.62-0.92-1.51-1.37-2.45-1.29
		c-0.4,0.03-0.81,0.16-1.16,0.38l-10.15-44.73c-0.38-1.62-1.24-2.75-2.4-3.18c-0.89-0.32-1.86-0.16-2.64,0.43l-1.27,0.97
		c-1.27,0.97-1.94,2.99-1.72,4.98c-17.93,16.99-18.93,41.92-19.01,44.97c-0.19,2.91-1.43,25.66,12.49,46.26l-0.19,0.35
		c-0.81,1.67-0.67,4.01,0.35,5.41l1.88,2.64c0.59,0.81,1.37,1.27,2.23,1.27c0.11,0,0.19,0,0.27-0.03c1.05-0.11,1.94-0.86,2.42-2.05
		l16.26-38.26c0.13,0.16,0.32,0.27,0.57,0.35c0.11,0.03,0.24,0.05,0.38,0.05c0.32,0,0.62-0.11,0.86-0.32
		C142.76,142.92,149.95,136.59,147.07,127.09z M135.57,119.55c-0.27,0.75-0.48,1.51-0.7,2.23c-0.19,0.73-0.38,1.48-0.54,2.21
		c-0.13,0.67-0.27,1.32-0.38,1.99c-0.11,0.57-0.19,1.16-0.24,1.72c0,0.05-0.03,0.11-0.03,0.16c-0.11,0.94-0.16,1.88-0.22,2.8
		c-0.03,0.11-0.03,0.19-0.03,0.3c-0.05,1.21-0.03,2.37,0,3.47c0.05,1.05,0.13,2.05,0.24,3.02c0.08,0.75,0.16,1.48,0.3,2.15
		l-0.67,1.35c-0.13-0.62-0.24-1.27-0.35-1.97c-0.11-0.59-0.22-1.21-0.27-1.86c-0.67-5.33-0.51-12.17,2.42-19.14
		c0.03-0.05,0.05-0.13,0.08-0.19l0.48,1.45C135.65,119.36,135.6,119.44,135.57,119.55z M136.19,135.06
		c-0.03-0.11-0.03-0.24-0.03-0.35c-0.03-0.62-0.05-1.29-0.05-1.97c0-0.03,0-0.03,0-0.05c0-0.75,0.03-1.56,0.08-2.34
		c0.03-0.59,0.08-1.21,0.13-1.83c0.03-0.13,0.03-0.3,0.05-0.46c0.08-0.59,0.16-1.21,0.27-1.8c0.03-0.08,0.03-0.19,0.05-0.27
		c0.08-0.54,0.19-1.05,0.3-1.56v-0.03c0.05-0.27,0.11-0.51,0.19-0.78l0.13,0.35l1.75,5.17l-0.27,0.57l-1.67,3.37v0.03L136.19,135.06
		z M126.71,80.75c0.03-0.19,0.08-0.35,0.16-0.48c0.05-0.11,0.11-0.22,0.19-0.32c0.05-0.08,0.11-0.16,0.19-0.22l1.29-0.97l0.08-0.05
		c0.11,0.03,0.48,0.38,0.67,1.24l8.43,36.89l-0.08-0.22l-0.81-2.37l-9.51-32.23c-0.11-0.35-0.38-0.67-0.73-0.83
		C126.63,81.02,126.66,80.88,126.71,80.75z M117.12,168.26c-0.32-0.54-0.62-1.05-0.89-1.59c-2.29-4.23-3.99-8.48-5.25-12.52
		c-0.16-0.51-0.32-1.02-0.46-1.51c-0.62-2.15-1.13-4.25-1.51-6.25c-0.13-0.59-0.24-1.16-0.32-1.7c-0.11-0.59-0.22-1.16-0.3-1.72
		c-0.08-0.48-0.16-0.97-0.22-1.45c-0.05-0.43-0.11-0.83-0.16-1.24c-0.05-0.43-0.11-0.86-0.13-1.29c-0.05-0.35-0.08-0.7-0.11-1.05
		c-0.05-0.54-0.11-1.05-0.13-1.56c-0.05-0.65-0.08-1.29-0.11-1.88c0-0.08,0-0.13-0.03-0.22c0-0.46-0.03-0.92-0.03-1.35
		c-0.05-2.75,0.05-4.6,0.11-5.25v-0.08c0-0.59,0.05-2.13,0.3-4.39c0.03-0.32,0.08-0.67,0.11-1c0.24-1.8,0.57-3.99,1.08-6.41
		c0.19-0.83,0.38-1.7,0.62-2.58c0.03-0.11,0.05-0.24,0.08-0.35c0.22-0.86,0.48-1.78,0.75-2.69c0.94-3.12,2.15-6.46,3.8-9.83
		c0.27-0.54,0.54-1.1,0.83-1.67c0.89-1.7,1.88-3.42,2.99-5.09c0.38-0.54,0.73-1.08,1.1-1.59c0.35-0.51,0.73-1,1.1-1.48
		c1.29-1.67,2.69-3.31,4.25-4.9c0.24-0.27,0.51-0.51,0.75-0.75l8.62,29.24c-0.32,0.65-0.65,1.27-0.92,1.91l-8.45-18.82
		c-0.32-0.67-1.1-0.97-1.78-0.67c-0.7,0.32-1,1.1-0.67,1.78l9.4,20.92c0.03,0.08,0.08,0.16,0.13,0.22c-0.22,0.57-0.38,1.13-0.54,1.7
		l-12.87-13.01c-0.54-0.54-1.37-0.54-1.91-0.03c-0.54,0.54-0.54,1.37-0.03,1.91l14.08,14.19c-0.3,1.27-0.46,2.5-0.59,3.72
		l-18.18-3.04c-0.7-0.13-1.43,0.38-1.56,1.1c-0.11,0.73,0.38,1.43,1.1,1.53l18.44,3.1c-0.05,1.59-0.03,3.1,0.08,4.52l-18.34,7.46
		c-0.67,0.27-1.02,1.05-0.73,1.75c0.22,0.51,0.7,0.83,1.24,0.83c0.16,0,0.35-0.03,0.51-0.11l17.61-7.16
		c0.13,1.02,0.3,1.99,0.48,2.88c-0.22,0.05-0.4,0.19-0.57,0.38l-14.49,17.07c-0.48,0.57-0.43,1.4,0.13,1.88
		c0.27,0.22,0.57,0.32,0.89,0.32c0.38,0,0.75-0.16,1.02-0.48l13.71-16.13c0.11,0.32,0.19,0.62,0.27,0.92l-12.74,26.17
		C118.15,170.04,117.61,169.15,117.12,168.26z M141.25,134.74l-0.03,0.05l-1.91,4.5l-1.78,4.2l-0.73,1.72l-0.92,2.13l-14,32.99
		c-0.08,0.22-0.16,0.32-0.19,0.38c-0.03,0-0.05-0.03-0.08-0.08l-1.88-2.64c-0.24-0.35-0.35-0.86-0.35-1.4v-0.03
		c0-0.43,0.08-0.89,0.24-1.24l0.86-1.78l8.67-17.85l0.05-0.08l3.53-7.3l2.13-4.36l1.88-3.9h0.03l1.7-3.53l1.83-3.77l1.67-3.45
		l0.16-0.3l0.73-1.53l0.38-0.75c0.08-0.19,0.16-0.27,0.22-0.27c0.03,0,0.03,0.03,0.03,0.08c0.16,0.24,0.27,0.57,0.3,0.94
		c0.11,0.54,0.05,1.16-0.13,1.62l-0.32,0.78l-0.65,1.48l-0.57,1.32L141.25,134.74z M144.78,133.96c-0.08,0.35-0.16,0.67-0.24,1
		c-0.11,0.32-0.22,0.65-0.32,0.94c-0.08,0.24-0.16,0.46-0.27,0.67c-0.24,0.54-0.51,1.05-0.78,1.51c-0.16,0.27-0.32,0.51-0.48,0.75
		c-0.16,0.24-0.32,0.46-0.48,0.67l-0.03-0.05v-0.03l2.77-6.52C144.89,133.26,144.83,133.63,144.78,133.96z"/>
	<path style="fill:#F8716F;" d="M122.16,98.3l9.4,20.92c0.03,0.08,0.08,0.16,0.13,0.22c-0.22,0.57-0.38,1.13-0.54,1.7l-12.87-13.01
		c-0.54-0.54-1.37-0.54-1.91-0.03c-0.54,0.54-0.54,1.37-0.03,1.91l14.08,14.19c-0.3,1.27-0.46,2.5-0.59,3.72l-18.18-3.04
		c-0.7-0.13-1.43,0.38-1.56,1.1c-0.11,0.73,0.38,1.43,1.1,1.53l18.44,3.1c-0.05,1.59-0.03,3.1,0.08,4.52l-18.34,7.46
		c-0.67,0.27-1.02,1.05-0.73,1.75c0.22,0.51,0.7,0.83,1.24,0.83c0.16,0,0.35-0.03,0.51-0.11l17.61-7.16
		c0.13,1.02,0.3,1.99,0.48,2.88c-0.22,0.05-0.4,0.19-0.57,0.38l-14.49,17.07c-0.48,0.57-0.43,1.4,0.13,1.88
		c0.27,0.22,0.57,0.32,0.89,0.32c0.38,0,0.75-0.16,1.02-0.48l13.71-16.13c0.11,0.32,0.19,0.62,0.27,0.92l-12.74,26.17
		c-0.57-0.89-1.1-1.78-1.62-2.67c-0.32-0.54-0.59-1.05-0.89-1.59c-2.29-4.23-3.99-8.48-5.25-12.52c-0.16-0.51-0.32-1.02-0.46-1.51
		c-0.62-2.15-1.13-4.25-1.51-6.25c-0.13-0.59-0.24-1.16-0.32-1.7c-0.13-0.59-0.22-1.16-0.3-1.72c-0.08-0.48-0.16-0.97-0.22-1.45
		c-0.05-0.43-0.11-0.83-0.16-1.24c-0.05-0.43-0.11-0.86-0.13-1.29c-0.05-0.38-0.08-0.7-0.11-1.05c-0.05-0.54-0.11-1.05-0.13-1.56
		c-0.05-0.65-0.08-1.29-0.11-1.88c0-0.08,0-0.13-0.03-0.22c0-0.46-0.03-0.92-0.03-1.35c-0.05-2.75,0.05-4.6,0.11-5.25v-0.08
		c0-0.59,0.05-2.13,0.3-4.39c0.05-0.32,0.08-0.65,0.11-1c0.24-1.8,0.57-3.99,1.08-6.41c0.19-0.83,0.4-1.7,0.62-2.58
		c0.03-0.11,0.05-0.24,0.08-0.35c0.22-0.86,0.48-1.78,0.75-2.69c0.94-3.12,2.15-6.46,3.8-9.83c0.27-0.54,0.54-1.1,0.83-1.67
		c0.89-1.7,1.88-3.42,2.99-5.09c0.38-0.54,0.73-1.08,1.1-1.59c0.35-0.51,0.73-1,1.1-1.48c1.29-1.67,2.69-3.31,4.25-4.9
		c0.24-0.27,0.51-0.51,0.75-0.75l8.62,29.24c-0.32,0.65-0.65,1.27-0.92,1.91l-8.45-18.82c-0.32-0.67-1.1-0.97-1.78-0.67
		C122.13,96.85,121.84,97.63,122.16,98.3z"/>
	<path style="fill:#D49166;" d="M137.64,116.61l-0.81-2.37l-9.51-32.23c-0.11-0.35-0.38-0.67-0.73-0.83
		c0.03-0.16,0.05-0.3,0.11-0.43c0.03-0.19,0.08-0.35,0.16-0.48c0.05-0.11,0.11-0.22,0.19-0.32c0.05-0.08,0.11-0.16,0.19-0.22
		l1.29-0.97l0.08-0.05c0.11,0.03,0.48,0.38,0.67,1.24L137.64,116.61z"/>
	<path style="fill:#BE723F;" d="M144.94,132.91c-0.05,0.35-0.11,0.73-0.16,1.05c-0.08,0.35-0.16,0.67-0.24,1
		c-0.11,0.32-0.22,0.65-0.32,0.94c-0.08,0.24-0.16,0.46-0.27,0.67c-0.24,0.54-0.51,1.05-0.78,1.51c-0.16,0.27-0.32,0.51-0.48,0.75
		c-0.16,0.24-0.32,0.46-0.48,0.67l-0.03-0.05v-0.03L144.94,132.91z"/>
</g>
<g>
	<path style="fill:#FFFFFF;" d="M81.79,182.94l-0.75,4.98c0,0-2.18-1.99-5.47-2.48c-3.31-0.51-6.11,0.7-6.11,0.7l0.78-4.95
		c0.27-1.86,5.12-2.64,7.32-2.32C79.75,179.22,82.09,181.11,81.79,182.94z"/>
	<path style="fill-rule:evenodd;clip-rule:evenodd;fill:#009FF9;" d="M81.04,187.92l-4.12,26.93c-0.24,1.7-3.2,2.67-5.52,2.67
		l-0.83-0.05l-2.75-0.4l-0.3-0.05l-2.69-0.4l-4.04-0.62c-3.96-0.59-8.81-0.86-11.31-4.12c-1.7-2.23-0.57-5.98,1.02-7.89
		c2.93-3.5,7.78-5.68,13.01-5.84c0,0,0.24,0,0.3,0h0.22c0.78,0,1.51,0.03,2.18,0.11c0.48,0.05,0.97,0.11,1.4,0.19l1.62-10.66
		l0.24-1.62c0,0,0,0,0.03,0c0.32-0.16,2.99-1.18,6.09-0.7C78.86,185.93,81.04,187.92,81.04,187.92z"/>
	<path d="M69.46,186.14l-0.24,1.62l0.27-1.62C69.46,186.14,69.46,186.14,69.46,186.14z"/>
	<path d="M82.79,177.96c-1.32-1.18-3.04-2.02-4.74-2.26c-0.48-0.08-1.05-0.11-1.64-0.11c-0.89,0-8.62,0.13-9.37,5.12l-0.51,3.37
		l-0.48,3.2l-1.16,7.62h-1.51c-6.06,0.19-11.82,2.8-15.35,7c-2.21,2.64-4.04,8.1-1.1,11.93c2.99,3.9,7.97,4.6,11.93,5.14
		c0.51,0.08,0.97,0.13,1.45,0.22l4.04,0.62l2.69,0.4l2.88,0.43c0.11,0.03,0.19,0.03,0.27,0.03l1,0.08h0.22
		c1.97,0,4.01-0.46,5.63-1.37c1.62-0.92,2.83-2.26,3.1-4.04l4.36-28.52l0.51-3.39C85.29,181.48,84.49,179.49,82.79,177.96z
		 M81.28,186.33l-0.24,1.59l-4.12,26.93c-0.24,1.7-3.2,2.67-5.52,2.67l-0.83-0.05H70.4l-2.59-0.4l-0.3-0.05l-2.69-0.4l-4.04-0.62
		c-3.96-0.59-8.81-0.86-11.31-4.12c-1.7-2.23-0.57-5.98,1.02-7.89c2.93-3.5,7.78-5.68,13.01-5.84c0,0,0.24,0,0.3,0h0.22
		c0.78,0,1.51,0.03,2.18,0.11c0.48,0.05,0.97,0.11,1.4,0.19l1.62-10.66l0.24-1.62c0,0,0,0,0.03,0l0.24-1.59l0.51-3.37
		c0.24-1.59,3.77-2.37,6.17-2.37c0.43,0,0.81,0,1.16,0.05c2.18,0.35,4.52,2.23,4.23,4.07L81.28,186.33z"/>
</g>
<g>
	<path style="fill-rule:evenodd;clip-rule:evenodd;" d="M94.09,84.32c-0.04,0.86-0.98,1.52-2.12,1.47
		c-1.14-0.05-2.02-0.79-1.98-1.65c0.04-0.86,0.99-1.52,2.13-1.47C93.25,82.71,94.12,83.46,94.09,84.32"/>
	<path style="fill-rule:evenodd;clip-rule:evenodd;" d="M103.91,82.89L103.91,82.89c-1.54-0.07-2.73-1.28-2.67-2.71l0.02-0.36
		c0.06-1.43,1.36-2.53,2.9-2.46c1.54,0.07,2.73,1.29,2.67,2.72l-0.02,0.36C106.75,81.86,105.45,82.96,103.91,82.89"/>
	<path style="fill-rule:evenodd;clip-rule:evenodd;" d="M80.32,81.83L80.32,81.83c-1.54-0.07-2.73-1.28-2.67-2.71l0.02-0.36
		c0.06-1.43,1.36-2.53,2.9-2.46c1.54,0.07,2.73,1.29,2.67,2.72l-0.02,0.36C83.16,80.8,81.86,81.9,80.32,81.83"/>
	<path style="fill:#231815;" d="M99.29,94.49c-2.8,0-5.59-0.92-7.61-2.38c-3.68,2.19-9.5,2.57-13.38-0.39
		c-1.14-0.87-2.51-2.21-2.59-3.68c-0.04-0.72,0.22-1.39,0.74-1.88c0.64-0.62,1.67-0.59,2.28,0.05c0.47,0.49,0.57,1.19,0.31,1.76
		c0.21,0.29,0.63,0.74,1.21,1.17c2.96,2.26,7.98,1.69,10.5-0.32c0.63-0.51,1.54-0.47,2.13,0.09c2.33,2.23,7.28,3.24,10.43,1.26
		c0.61-0.38,1.08-0.79,1.31-1.06c-0.2-0.6-0.04-1.29,0.47-1.73c0.67-0.59,1.69-0.52,2.28,0.16c0.47,0.54,0.68,1.23,0.57,1.94
		c-0.22,1.46-1.7,2.67-2.91,3.43C103.31,94.01,101.3,94.49,99.29,94.49z M104.94,89.68h0.03H104.94z"/>
</g>
</svg>
