<?xml version="1.0" encoding="UTF-8"?>
<svg xmlns="http://www.w3.org/2000/svg" version="1.1" viewBox="0 0 390 390">
  <!-- Generator: Adobe Illustrator 28.7.1, SVG Export Plug-In . SVG Version: 1.2.0 Build 142)  -->
  <g>
    <g id="_레이어_1" data-name="레이어_1">
      <g>
        <g>
          <g>
            <path d="M293.4,311.9c.2,8.3-4.9,24.1-14.7,25.6-9.1,1.4-18.1-9.3-18.5-17.4-.1-2.6.3-5.1,1-7.6,14,4.2,31.7-1,31.7-1h.5c0,.1,0,.3,0,.4Z" style="fill: #757575;"/>
            <path d="M281.2,260.4c7.3,15.1,10.7,27.7,11.8,42.9,0,0-16.7,5.5-29.7,1.6,3.7-14.6,1.3-30.1-1.2-45-.7-4.1-1.9-8.8,1.7-10.9,3.7-2,7.6-.5,10.9,2,3,2.3,4.8,5.9,6.4,9.3Z" style="fill: #424242;"/>
            <path d="M293,303.4c.2,2.6.3,5.3.4,8.1h-.5s-17.7,5.2-31.7,1c.6-2.5,1.5-5,2.1-7.6,13,3.9,29.7-1.6,29.7-1.6Z" style="fill: #fff;"/>
          </g>
          <g>
            <path d="M277.2,339.4c-3.4,0-7-1.4-10.2-4-4.7-3.9-8.1-9.9-8.4-15.1-.1-2.4.2-4.9,1-8.1.3-1.4.7-2.7,1.1-4.1.3-1.2.7-2.3,1-3.5,3.7-14.6,1.1-30.4-1.2-44.3l-.2-1.2c-.7-4-1.6-9,2.8-11.4,3.8-2.1,8.2-1.4,12.8,2.2,3.4,2.6,5.2,6.5,6.9,9.9,7.4,15.3,10.8,27.9,12,43.5.2,2.6.3,5.2.4,8.2l-1.7.4h1.7c.2,8.7-5.2,25.7-16.1,27.4-.6,0-1.2.1-1.8.1ZM267.5,249.8c-1,0-2,.2-2.8.7-2.1,1.2-1.8,3.8-1.1,7.9l.2,1.3c2.3,14.2,5,30.4,1.1,45.7-.3,1.2-.7,2.4-1,3.6-.4,1.3-.8,2.6-1.1,4-.7,2.9-1,5.1-.9,7.2.2,4.2,3.1,9.4,7.1,12.7,3.1,2.5,6.4,3.6,9.4,3.2,8.9-1.4,13.4-16.5,13.3-23.9l1.7-.4h-1.7c0-2.9-.2-5.5-.4-8h0c-1.1-15.2-4.5-27.4-11.6-42.4-1.5-3.1-3.2-6.6-5.9-8.7-2.3-1.8-4.3-2.6-6.2-2.6Z"/>
            <path d="M274.1,308.1c-3.7,0-7.6-.4-11.2-1.5-.9-.3-1.4-1.2-1.1-2.1.3-.9,1.2-1.4,2.1-1.1,12.3,3.7,28.5-1.5,28.7-1.5.9-.3,1.8.2,2.1,1.1s-.2,1.8-1.1,2.1c-.5.2-9.5,3.1-19.5,3.1Z"/>
            <path d="M273.7,315.8c-4.3,0-8.8-.5-13-1.7-.9-.3-1.4-1.2-1.1-2.1.3-.9,1.2-1.4,2.1-1.1,13.3,4,30.6-1,30.7-1,.9-.2,1.8.2,2.1,1.1.3.9-.3,1.8-1.1,2.1-.5.2-9.4,2.7-19.6,2.7Z"/>
          </g>
        </g>
        <g>
          <path d="M269.6,307.5c7,.5,11.3,8.8,14.1,15.2,2.8,6.4,2.3,14.6-2.7,19.6-11.7,11.6-35.5,6-49.1,2.9-6.5-1.5-13-3.3-19.3-5.5-6.7.9-18.9-.9-22.4-10.6-3.5-9.7,33.2-12,33.2-12,3.4,0,6.9,2.6,10,4,5.6,2.4,11.4,4.2,17.3,5.4,0,0,7.2-19.8,18.9-18.9Z" style="fill: #757575;"/>
          <path d="M259.6,350.9c-9.9,0-20.2-2.4-27.8-4.1h-.3c-6.8-1.6-13.2-3.4-19.1-5.5-7.7.9-20.1-1.5-23.8-11.7-.6-1.6-.4-3.3.6-4.8,4.9-7.5,31.1-9.3,34.1-9.5h0c2.9,0,5.7,1.5,8.1,2.7.9.5,1.9,1,2.7,1.4,5,2.2,10.3,3.9,15.6,5,1.9-4.7,9-19.5,20.1-18.6h0c7.8.6,12.4,9,15.5,16.2,3.3,7.6,2,16.4-3.1,21.4-5.7,5.7-14,7.5-22.6,7.5ZM212.6,337.9c.2,0,.4,0,.6,0,5.9,2,12.3,3.9,19.1,5.4h.3c13.6,3.2,36.3,8.4,47.3-2.4,4.1-4.1,5.1-11.4,2.4-17.7-2.5-5.9-6.6-13.7-12.7-14.2h0c-10.3-.9-17.1,17.6-17.2,17.8-.3.8-1.1,1.3-1.9,1.1-6.1-1.2-12-3.1-17.7-5.5-1-.4-2-1-3-1.5-2.2-1.2-4.4-2.4-6.4-2.4-10.5.7-28.3,3.4-31.4,8-.4.6-.5,1.1-.2,1.8,3,8.5,14,10.4,20.6,9.5,0,0,.1,0,.2,0Z"/>
        </g>
        <g>
          <path d="M262.7,300.5l11.9,8.8s-4.8.1-14,5.7c-9.2,5.6-6.5,12.2-6.5,12.2,0,0-36.4-8.5-42.3-10.9-5.9-2.4-13.4-22.1-13.4-22.1" style="fill: #0c5290;"/>
          <path d="M254.1,328.9c-.1,0-.3,0-.4,0-1.5-.3-36.6-8.6-42.5-11-6.4-2.6-13.5-21-14.3-23.1-.3-.9.1-1.8,1-2.2.9-.3,1.8.1,2.2,1,2.8,7.4,8.6,19.6,12.4,21.2,4.8,1.9,31.4,8.3,39.6,10.2,0-3.2,1.6-7.8,7.7-11.5,4.7-2.9,8.4-4.3,10.9-5.1l-8.9-6.6c-.7-.6-.9-1.6-.4-2.4.6-.7,1.6-.9,2.4-.4l11.9,8.8c.6.4.8,1.2.6,1.9s-.8,1.2-1.6,1.2c0,0-4.6.3-13.1,5.4-7.8,4.7-5.9,10-5.8,10.2.2.6,0,1.2-.3,1.7-.3.4-.8.6-1.3.6Z"/>
        </g>
        <g>
          <g>
            <path d="M40.3,236.8c1.7,8.3,6.2,16.2,13.7,22.6,11.6,9.8,28.5,7.5,41.7,13.9,16.4,8,22.3,25.1,33.8,38,7.7,8.6,19.6,14.1,31.7,15.7,8,1.1,16.1.4,23.1-2.3-9.4-29.4-26.9-56.6-52.1-74.2-26.4-18.5-61.8-25.1-91.9-13.7Z" style="fill: #757575;"/>
            <path d="M61.2,194.7c-16.7,8.9-24.1,26.1-20.9,42.1,30.1-11.4,65.5-4.7,91.9,13.7,25.3,17.6,42.7,44.8,52.1,74.2,11.2-4.3,19.5-13.9,19.8-29.6.3-20.9-9-44-21.3-60.6-7.6-10.1-17.3-18.5-27.7-25.6-27.5-18.9-64.5-30-93.8-14.2Z" style="fill: #474747;"/>
          </g>
          <path d="M168.4,329.1c-2.4,0-4.9-.2-7.4-.5-13.1-1.7-25-7.6-32.7-16.2-3.9-4.4-7.2-9.3-10.4-14.1-6.3-9.4-12.3-18.4-22.8-23.5-5.3-2.6-11.5-3.8-17.5-4.9-8.6-1.6-17.5-3.3-24.6-9.3-7.5-6.3-12.4-14.5-14.3-23.6-3.5-17.4,5.2-35.1,21.7-43.9,31-16.6,69.7-3.5,95.6,14.3,12,8.3,21.2,16.8,28.1,26,13.7,18.3,22,41.9,21.7,61.6-.2,15-7.6,26-20.8,31.1h0c-5,1.9-10.6,2.9-16.5,2.9ZM92.2,188.9c-10.4,0-20.7,2.2-30.2,7.3-15.2,8.2-23.3,24.3-20,40.3,1.7,8.3,6.2,15.8,13.2,21.7,6.4,5.4,14.5,6.9,23.1,8.5,6.2,1.2,12.6,2.4,18.3,5.2,11.3,5.5,17.8,15.2,24.1,24.6,3.1,4.7,6.4,9.5,10.1,13.7,7.2,8,18.3,13.5,30.6,15.2,8.1,1.1,15.8.3,22.3-2.2h0c11.9-4.6,18.5-14.5,18.7-28.1.3-19-7.7-41.8-21-59.5-6.7-8.9-15.6-17.2-27.3-25.2-17-11.7-39.8-21.4-61.9-21.4ZM184.3,324.7h0,0Z"/>
        </g>
        <path d="M216.1,343.7" style="fill: #fff; stroke: #000; stroke-linecap: round; stroke-linejoin: round; stroke-width: 3.4px;"/>
        <g>
          <g>
            <path d="M258.8,235.3c8.7,16.6,17,43.2,10.1,61.4-59.3,14.2-108.7,0-108.7,0-6.9-18.2,1.4-44.8,10.1-61.4,5.9-11.2.9-12.7.9-12.7h86.7s-5,1.5.9,12.7Z" style="fill: #424242;"/>
            <path d="M268.9,296.7c-8,21.2-31.8,29.5-54.3,29.5s-46.3-8.3-54.4-29.5c0,0,49.4,14.2,108.7,0Z" style="fill: #0c5290;"/>
          </g>
          <g>
            <path d="M214.6,327.9c-27.8,0-48.7-11.4-55.9-30.6-7.1-18.6,1.1-45.4,10.2-62.7,3-5.7,2.8-8.4,2.5-9.4-.2-.7-.6-.9-.7-.9l1-3.2c.2,0,1.8.6,2.7,2.6,1.2,2.8.3,7-2.5,12.4-8.8,16.7-16.7,42.5-10,60,6.8,17.8,26.5,28.4,52.8,28.4s46-10.6,52.8-28.4c6.7-17.5-1.2-43.3-10-60-2.9-5.4-3.7-9.6-2.5-12.4.9-2,2.5-2.6,2.7-2.6l1,3.2-.5-1.6.6,1.6s-.4.2-.7.9c-.4,1.1-.6,3.7,2.5,9.4,9.1,17.3,17.3,44.2,10.2,62.7-7.3,19.1-28.2,30.6-55.9,30.6Z"/>
            <path d="M214.5,304.6c-32.2,0-54.5-6.2-54.8-6.3l.9-3.2c.5.1,49.7,13.9,107.8,0l.8,3.3c-19.8,4.7-38.5,6.3-54.7,6.3Z"/>
          </g>
        </g>
        <g>
          <path d="M193.8,233.2s21.2,43.3,31.5,52.4c0,0,20.1-29.3,28.3-52.4h-59.8Z" style="fill: #fff;"/>
          <path d="M225.6,288.1l-1.4-1.3c-10.4-9.2-31-51.1-31.9-52.9l-1.2-2.4h64.8l-.8,2.2c-8.1,23-28.3,52.5-28.5,52.8l-1.1,1.6ZM196.5,234.9c4.4,8.7,19.6,38.6,28.5,48.1,4.2-6.3,18.9-29,26.1-48.1h-54.6Z"/>
        </g>
        <g>
          <path d="M198.4,240.4c-3.2,3.4-2.3,9.2.7,12.8,1.1,1.3,2.6,2.8,2.4,4.5,0,.7-.4,1.2-.6,1.9-.6,2.3,1.2,4.7,3.5,5.4,2.3.7,4.7,0,6.9-1,5.8-2.8,14.6-13.6,8.5-19.5-4.3-4.1-16.4-9.4-21.3-4Z" style="fill: #ffcf2e;"/>
          <path d="M206.4,266.8c-.8,0-1.6-.1-2.4-.3-3-.9-5.6-4.1-4.7-7.4,0-.3.2-.6.3-.9.1-.3.2-.5.2-.7.1-.8-.7-1.7-1.5-2.7l-.4-.5c-3.4-4-4.6-10.8-.7-15h0c1.6-1.8,3.9-2.7,6.9-2.8,5.8-.3,13.4,3.4,16.9,6.8,2.1,2,3,4.7,2.5,7.8-.9,5.8-6.6,12.1-11.4,14.4-2,1-3.9,1.5-5.7,1.5ZM199.7,241.5c-2.6,2.9-1.6,7.7.8,10.6l.4.5c1.2,1.4,2.7,3.1,2.3,5.4,0,.6-.3,1.1-.4,1.5,0,.2-.2.4-.2.6-.4,1.4,1,2.9,2.4,3.3,1.5.4,3.4.1,5.6-.9,3.9-1.9,8.8-7.3,9.5-11.9.3-2-.2-3.6-1.5-4.9-3-2.9-9.6-5.9-14.4-5.8-2,0-3.5.6-4.5,1.7h0Z"/>
        </g>
        <g>
          <path d="M253,240.4c3.2,3.4,2.3,9.2-.7,12.8-1.1,1.3-2.6,2.8-2.4,4.5,0,.7.4,1.2.6,1.9.6,2.3-1.2,4.7-3.5,5.4-2.3.7-4.7,0-6.9-1-5.8-2.8-14.6-13.6-8.5-19.5,4.3-4.1,16.4-9.4,21.3-4Z" style="fill: #ffcf2e;"/>
          <path d="M245.1,266.8c-1.7,0-3.6-.5-5.6-1.5-4.7-2.3-10.4-8.6-11.4-14.4-.5-3.1.3-5.8,2.5-7.8,3.5-3.4,10.9-7,16.9-6.8,2.9,0,5.2,1,6.9,2.8h0c3.9,4.3,2.7,11-.7,15l-.4.5c-.8.9-1.7,1.9-1.5,2.7,0,.2.1.5.2.7.1.3.2.6.3.9.9,3.3-1.7,6.5-4.7,7.4-.8.2-1.6.3-2.4.3ZM247,239.8c-4.8,0-11.2,3-14.1,5.8-1.3,1.3-1.8,2.9-1.5,4.9.7,4.6,5.6,10,9.5,11.9,2.2,1.1,4.1,1.4,5.6.9,1.4-.4,2.7-1.9,2.4-3.3,0-.2-.1-.4-.2-.6-.2-.4-.4-.9-.4-1.5-.3-2.3,1.1-4,2.3-5.4l.4-.5c2.4-2.9,3.4-7.7.8-10.6h0c-1-1.1-2.5-1.7-4.5-1.7-.1,0-.2,0-.3,0Z"/>
        </g>
        <g>
          <rect x="220.5" y="243.4" width="10.5" height="13.8" rx="5.2" ry="5.2" style="fill: #ffcf2e;"/>
          <path d="M225.7,258.9c-3.8,0-6.9-3.1-6.9-6.9v-3.3c0-3.8,3.1-6.9,6.9-6.9s6.9,3.1,6.9,6.9v3.3c0,3.8-3.1,6.9-6.9,6.9ZM225.7,245.1c-2,0-3.5,1.6-3.5,3.5v3.3c0,2,1.6,3.5,3.5,3.5s3.5-1.6,3.5-3.5v-3.3c0-2-1.6-3.5-3.5-3.5Z"/>
        </g>
        <g>
          <circle cx="248" cy="284.9" r="5.6" style="fill: #ffcf2e;"/>
          <path d="M248,292.2c-4,0-7.3-3.3-7.3-7.3s3.3-7.3,7.3-7.3,7.3,3.3,7.3,7.3-3.3,7.3-7.3,7.3ZM248,280.9c-2.2,0-3.9,1.8-3.9,3.9s1.8,3.9,3.9,3.9,3.9-1.8,3.9-3.9-1.8-3.9-3.9-3.9Z"/>
        </g>
        <g>
          <circle cx="203.5" cy="284.9" r="5.6" style="fill: #ffcf2e;"/>
          <path d="M203.5,292.2c-4,0-7.3-3.3-7.3-7.3s3.3-7.3,7.3-7.3,7.3,3.3,7.3,7.3-3.3,7.3-7.3,7.3ZM203.5,280.9c-2.2,0-3.9,1.8-3.9,3.9s1.8,3.9,3.9,3.9,3.9-1.8,3.9-3.9-1.8-3.9-3.9-3.9Z"/>
        </g>
        <g>
          <circle cx="314.7" cy="98.2" r="35.8" style="fill: #757575;"/>
          <path d="M314.6,135.7c-2.9,0-5.8-.3-8.8-1-9.7-2.3-18-8.3-23.2-16.9-5.2-8.5-6.8-18.6-4.5-28.3,4.8-20.1,25.1-32.5,45.2-27.7,20.1,4.8,32.5,25.1,27.7,45.2h0c-4.1,17.1-19.5,28.7-36.4,28.7ZM314.7,64.1c-15.4,0-29.4,10.5-33.2,26.1-2.1,8.9-.7,18,4.1,25.8,4.8,7.8,12.3,13.2,21.1,15.4,18.3,4.4,36.8-6.9,41.2-25.2,4.4-18.3-6.9-36.8-25.2-41.2-2.7-.6-5.4-1-8-1Z"/>
        </g>
        <g>
          <circle cx="309.3" cy="102.2" r="18.8" style="fill: #f2a29c;"/>
          <path d="M309.3,122.6c-1.6,0-3.2-.2-4.8-.6-5.3-1.3-9.8-4.5-12.6-9.2-2.8-4.7-3.7-10.1-2.4-15.4,2.6-11,13.7-17.7,24.7-15.1,5.3,1.3,9.8,4.5,12.6,9.2,2.8,4.7,3.7,10.1,2.4,15.4h0c-2.3,9.3-10.6,15.6-19.9,15.6ZM309.3,85.1c-3.1,0-6.2.9-8.9,2.5-3.9,2.4-6.6,6.1-7.7,10.6s-.3,9,2,12.9c2.4,3.9,6.1,6.6,10.6,7.7,9.2,2.2,18.4-3.4,20.6-12.6h0c1.1-4.4.3-9-2-12.9-2.4-3.9-6.1-6.6-10.6-7.7-1.3-.3-2.7-.5-4-.5Z"/>
        </g>
        <g>
          <circle cx="201.8" cy="71" r="35.8" style="fill: #757575;"/>
          <path d="M201.8,108.5c-2.9,0-5.8-.3-8.8-1-20.1-4.8-32.5-25.1-27.7-45.2h0c2.3-9.7,8.3-18,16.9-23.2,8.5-5.2,18.6-6.8,28.3-4.5,9.7,2.3,18,8.3,23.2,16.9,5.2,8.5,6.8,18.6,4.5,28.3-4.1,17.1-19.5,28.7-36.4,28.7ZM168.6,63h0c-4.4,18.3,6.9,36.8,25.2,41.2,18.3,4.4,36.8-6.9,41.2-25.2,2.1-8.9.7-18-4.1-25.8-4.8-7.8-12.3-13.2-21.1-15.4-8.9-2.1-18-.7-25.8,4.1-7.8,4.8-13.2,12.3-15.4,21.1Z"/>
        </g>
        <g>
          <circle cx="204.8" cy="76.9" r="18.8" style="fill: #f2a29c;"/>
          <path d="M204.8,97.4c-1.6,0-3.2-.2-4.8-.6-11-2.6-17.7-13.7-15.1-24.7,1.3-5.3,4.5-9.8,9.2-12.6,4.7-2.9,10.1-3.7,15.4-2.4,11,2.6,17.7,13.7,15.1,24.7-1.3,5.3-4.5,9.8-9.2,12.6-3.2,2-6.9,3-10.6,3ZM204.7,59.9c-3.1,0-6.2.9-8.9,2.5-3.9,2.4-6.6,6.1-7.7,10.6-1.1,4.4-.3,9,2,12.9,2.4,3.9,6.1,6.6,10.6,7.7,4.4,1.1,9,.3,12.9-2,3.9-2.4,6.6-6.1,7.7-10.6,1.1-4.4.3-9-2-12.9-2.4-3.9-6.1-6.6-10.6-7.7-1.3-.3-2.7-.5-4-.5Z"/>
        </g>
        <g>
          <path d="M326.3,190.5c-11.8,48.9-58.3,67.8-107.1,56-48.9-11.8-81.6-49.8-69.8-98.7,11.8-48.9,60.9-78.9,109.8-67.1s78.9,60.9,67.1,109.8Z" style="fill: #757575;"/>
          <path d="M246.8,251.6c-9.1,0-18.5-1.1-28-3.4-24.8-6-45.7-18.8-58.6-36.1-13.9-18.5-18.2-40.9-12.5-64.7,12-49.7,62.2-80.4,111.8-68.4,24.1,5.8,44.4,20.6,57.4,41.8,12.9,21.1,16.8,46,11,70.1-5.7,23.8-19.8,41.7-40.6,51.9-12,5.8-25.9,8.8-40.6,8.8ZM237.8,79.8c-40.3,0-77,27.5-86.8,68.4-5.5,22.8-1.4,44.2,11.9,61.8,12.5,16.6,32.6,29,56.7,34.8,24.1,5.8,47.6,4,66.3-5.1,19.9-9.7,33.3-26.9,38.8-49.6,5.6-23.2,1.8-47.2-10.6-67.5-12.4-20.4-32.1-34.7-55.3-40.2-7-1.7-14-2.5-20.9-2.5Z"/>
        </g>
        <ellipse cx="250.9" cy="208.8" rx="35.2" ry="48.4" transform="translate(-10.9 403.8) rotate(-76.4)" style="fill: #9b9b9b;"/>
        <g>
          <path d="M274.9,191.2c-1.2,5-7.9,7.7-15,6-7.1-1.7-11.8-7.2-10.6-12.2,1.2-5,7-3.8,14.1-2.1,7.1,1.7,12.8,3.3,11.6,8.3Z" style="fill: #595959;"/>
          <path d="M264.1,199.4c-1.5,0-3-.2-4.6-.6-8-1.9-13.3-8.3-11.9-14.2,1.7-6.8,9.3-5,16.1-3.4,6.8,1.6,14.5,3.5,12.8,10.3h0c-1.2,4.8-6.3,7.8-12.5,7.8ZM254.6,183.1c-2.2,0-3.3.7-3.7,2.3-1,4.1,3.3,8.7,9.4,10.2,6.1,1.5,12-.7,13-4.8.7-3.1-2.4-4.4-10.3-6.3-3.7-.9-6.4-1.4-8.3-1.4Z"/>
        </g>
        <path d="M245.2,167.5c-1.4,5.9-7.3,9.5-13.2,8.1-5.9-1.4-9.5-7.3-8.1-13.2,1.4-5.9,6.6-1.9,12.6-2.8,10.1-1.4,10.1,2,8.6,7.9Z"/>
        <path d="M279.5,174.2c-2.3,5.4.3,11.6,5.7,13.9,5.4,2.3,11.6-.3,13.9-5.7,2.3-5.4-4.1-5.3-8.3-9.4-7.1-6.9-9.1-4.2-11.3,1.2Z"/>
        <path d="M268.5,221.1c1,.6-.6,2.3-1.2,3.2s-1.8,1.6-2.9,1.5c-.6,0-1.2-.4-1.7-.8-4.2-2.7-8.3-6.2-13.3-6.6-3.5-.3-7.1,1-10.5.2-.5-.1-1-.3-1.4-.6-1.1-1-.7-2.8-.2-4.3,0,0,13.5.5,20.7-6.1,0,0,4.1,9.8,10.6,13.5Z" style="fill: #f85246;"/>
        <path d="M240.4,214.6c-5.7,0-10.2-1.4-10.6-1.5-.9-.3-1.4-1.2-1.1-2.1s1.2-1.4,2.1-1.1c.2,0,17.7,5.4,25.8-6,.5-.8,1.6-.9,2.3-.4.8.5.9,1.6.4,2.3-5,7.1-12.7,8.8-19,8.8Z"/>
        <path d="M275.1,224.3c0,0-.2,0-.3,0-.2,0-16-2.9-18.4-19.2-.1-.9.5-1.8,1.4-1.9.9-.1,1.8.5,1.9,1.4,2,13.9,15.5,16.4,15.6,16.4.9.2,1.5,1,1.4,1.9-.1.8-.9,1.4-1.7,1.4Z"/>
        <g>
          <path d="M250.8,81c-8,5.8-13.5,14.7-15.7,24.3-2.3,9.9-.6,21.8,7.7,27.6,3.1-2.7,5.8-5.8,8.2-9.2,3,8.5,9.3,15.8,17.3,20,5.2-2.4,9.9-5.8,13.7-10,1.1,3.5,2.3,7.1,3.4,10.6,20.4-1.4,28.6-26.1,25.3-43.6-1-5.5-3.8-10.4-6.9-15-10.9-15.9-37.8-15.7-53-4.8Z" style="fill: #474747;"/>
          <path d="M285.4,146.1c-.7,0-1.4-.5-1.6-1.2l-2.6-8c-3.6,3.5-7.8,6.3-12.3,8.4-.5.2-1,.2-1.5,0-7.4-3.9-13.5-10.4-16.9-18.1-2,2.5-4.2,4.9-6.6,7-.6.5-1.4.6-2.1.1-9.7-6.7-10.6-20-8.4-29.3,2.4-10.4,8.4-19.6,16.4-25.3h0c9.3-6.6,22.4-9.5,34.3-7.4,9.3,1.6,16.6,6,21.1,12.6,2.5,3.7,6,9.2,7.2,15.7,2.3,12-.8,26.1-7.7,35-4.9,6.4-11.5,10-19.1,10.5,0,0,0,0-.1,0ZM281.9,132.1c.1,0,.2,0,.4,0,.6.1,1.1.6,1.2,1.1l3,9.3c6.1-.8,11.4-3.9,15.4-9.1,6.3-8.2,9.2-21.2,7.1-32.3-.8-4.4-2.9-9-6.6-14.4-5.1-7.4-13.1-10.2-18.9-11.2-10.8-1.9-23.3.8-31.7,6.8h0c-7.3,5.3-12.8,13.8-15.1,23.4-2,8.5-.9,19.4,6,25,2.6-2.4,4.9-5.1,6.9-7.9.4-.5,1-.8,1.6-.7.6,0,1.2.5,1.4,1.1,2.7,7.9,8.5,14.6,15.7,18.7,4.7-2.2,8.9-5.4,12.4-9.3.3-.4.8-.6,1.2-.6ZM250.8,81h0,0Z"/>
        </g>
        <path d="M191.2,185.2c-.4,0-.8-.2-1.2-.5-.7-.6-.7-1.7,0-2.4.4-.4,9.2-9.6,14.2-12.2.8-.4,1.8-.1,2.3.7.4.8.1,1.8-.7,2.3-4.5,2.4-13.2,11.4-13.3,11.5-.3.3-.8.5-1.2.5Z" style="fill: #ff797e;"/>
        <path d="M203.9,188.2c-.4,0-.8-.2-1.2-.5-.7-.6-.7-1.7,0-2.4.4-.4,9.2-9.6,14.2-12.2.8-.4,1.8-.1,2.3.7.4.8.1,1.8-.7,2.3-4.5,2.4-13.2,11.4-13.3,11.5-.3.3-.8.5-1.2.5Z" style="fill: #ff797e;"/>
        <path d="M216.6,191.3c-.4,0-.8-.2-1.2-.5-.7-.6-.7-1.7,0-2.4.4-.4,9.2-9.6,14.2-12.2.8-.4,1.8-.1,2.3.7.4.8.1,1.8-.7,2.3-4.5,2.4-13.2,11.4-13.3,11.5-.3.3-.8.5-1.2.5Z" style="fill: #ff797e;"/>
        <path d="M278.6,206.2c-.4,0-.8-.2-1.2-.5-.7-.6-.7-1.7,0-2.4.4-.4,9.2-9.6,14.2-12.2.8-.4,1.8-.1,2.3.7.4.8.1,1.8-.7,2.3-4.5,2.4-13.2,11.4-13.3,11.5-.3.3-.8.5-1.2.5Z" style="fill: #ff797e;"/>
        <path d="M291.2,209.3c-.4,0-.8-.2-1.2-.5-.7-.6-.7-1.7,0-2.4.4-.4,9.2-9.6,14.2-12.2.8-.4,1.8-.1,2.3.7.4.8.1,1.8-.7,2.3-4.5,2.4-13.2,11.4-13.3,11.5-.3.3-.8.5-1.2.5Z" style="fill: #ff797e;"/>
        <path d="M303.9,212.4c-.4,0-.8-.2-1.2-.5-.7-.6-.7-1.7,0-2.4.4-.4,9.2-9.6,14.2-12.2.8-.4,1.8-.1,2.3.7.4.8.1,1.8-.7,2.3-4.5,2.4-13.2,11.4-13.3,11.5-.3.3-.8.5-1.2.5Z" style="fill: #ff797e;"/>
        <g>
          <path d="M232.7,313.1c7,.5,11.3,8.8,14.1,15.2,2.8,6.4,2.3,14.6-2.7,19.6-11.7,11.6-35.5,6-49.1,2.9-6.5-1.5-13-3.3-19.3-5.5-6.7.9-18.9-.9-22.4-10.6-3.5-9.7,33.2-12,33.2-12,3.4,0,6.9,2.6,10,4,5.6,2.4,11.4,4.2,17.3,5.4,0,0,7.2-19.8,18.9-18.9Z" style="fill: #757575;"/>
          <path d="M222.6,356.5c-9.9,0-20.2-2.4-27.8-4.1h-.3c-6.8-1.6-13.2-3.4-19.1-5.5-7.7.9-20.1-1.5-23.8-11.7-.6-1.6-.4-3.3.6-4.8,4.9-7.5,31.1-9.3,34.1-9.5h0c2.9,0,5.7,1.5,8.1,2.7.9.5,1.9,1,2.7,1.4,5,2.2,10.3,3.9,15.6,5,1.9-4.7,9-19.5,20.1-18.6h0c7.8.6,12.4,9,15.5,16.2,3.3,7.6,2,16.4-3.1,21.4-5.7,5.7-14,7.5-22.6,7.5ZM175.7,343.5c.2,0,.4,0,.6,0,5.9,2,12.3,3.9,19.1,5.4h.3c13.6,3.2,36.3,8.4,47.3-2.4,4.1-4.1,5.1-11.4,2.4-17.7-2.5-5.9-6.6-13.7-12.7-14.2h0c-10.3-.9-17.1,17.6-17.2,17.8-.3.8-1.1,1.2-1.9,1.1-6.1-1.2-12-3.1-17.7-5.5-1-.4-2-1-3-1.5-2.2-1.2-4.4-2.4-6.4-2.4-10.5.7-28.3,3.4-31.4,8-.4.6-.5,1.1-.2,1.8,3,8.5,13.9,10.4,20.6,9.5,0,0,.1,0,.2,0Z"/>
        </g>
        <g>
          <path d="M225.7,306.1l11.9,8.8s-4.8.1-14,5.7c-9.2,5.6-6.5,12.2-6.5,12.2,0,0-36.4-8.5-42.3-10.9-5.9-2.4-13.4-22.1-13.4-22.1" style="fill: #0c5290;"/>
          <path d="M217.2,334.5c-.1,0-.3,0-.4,0-1.5-.3-36.6-8.6-42.5-11-6.4-2.6-13.5-21-14.3-23.1-.3-.9.1-1.8,1-2.2.9-.3,1.8.1,2.2,1,2.8,7.4,8.6,19.6,12.4,21.2,4.8,1.9,31.4,8.3,39.6,10.2,0-3.2,1.6-7.8,7.7-11.5,4.7-2.9,8.4-4.3,10.9-5.1l-8.9-6.6c-.7-.6-.9-1.6-.4-2.4.6-.7,1.6-.9,2.4-.4l11.9,8.8c.6.4.8,1.2.6,1.9s-.8,1.2-1.6,1.2c0,0-4.6.3-13.1,5.4-7.8,4.7-5.9,10-5.8,10.2.2.6,0,1.2-.3,1.7-.3.4-.8.6-1.3.6Z"/>
        </g>
        <g>
          <polyline points="213.8 331.9 217.2 332.9 220.5 333.8" style="fill: #757575;"/>
          <path d="M220.5,335.5c-.1,0-.3,0-.4,0l-6.7-1.8c-.9-.2-1.4-1.2-1.2-2.1s1.2-1.4,2.1-1.2l6.7,1.8c.9.2,1.4,1.2,1.2,2.1-.2.7-.9,1.2-1.6,1.2Z"/>
        </g>
        <g>
          <path d="M196.9,123.5c.7,3.3,0,6.6.4,9.9s2.4,6.9,5.7,7.2c2.8.3,5.3-1.9,6.3-4.5,1-2.6.8-5.5.7-8.3" style="fill: #a5e1ff;"/>
          <path d="M203.5,142.3c-.2,0-.4,0-.7,0-4.3-.4-6.8-4.8-7.2-8.7-.2-1.6-.2-3.2-.1-4.7,0-1.8,0-3.5-.2-5.1-.2-.9.4-1.8,1.3-2,.9-.2,1.8.4,2,1.3.4,2,.4,4,.3,5.9,0,1.5,0,2.8,0,4.2.3,2.6,1.9,5.5,4.2,5.7,1.9.2,3.9-1.6,4.6-3.5.9-2.3.7-5,.6-7.6,0-.9.6-1.7,1.6-1.8.8,0,1.7.6,1.8,1.6.2,2.8.4,6-.8,9-1.1,2.9-4,5.6-7.4,5.6Z"/>
        </g>
        <g>
          <path d="M302.7,166.1c.7,3.3,0,6.6.4,9.9.4,3.3,2.4,6.9,5.7,7.2,2.8.3,5.3-1.9,6.3-4.5,1-2.6.8-5.5.7-8.3" style="fill: #a5e1ff;"/>
          <path d="M309.3,185c-.2,0-.4,0-.7,0-4.3-.4-6.8-4.8-7.2-8.7-.2-1.6-.1-3.2-.1-4.7,0-1.8,0-3.5-.2-5.1-.2-.9.4-1.8,1.3-2,.9-.2,1.8.4,2,1.3.4,2,.4,4,.3,5.9,0,1.5,0,2.8,0,4.2.3,2.6,1.9,5.5,4.2,5.7,2,.2,3.9-1.6,4.6-3.5.9-2.3.7-5,.6-7.6,0-.9.6-1.7,1.6-1.8.8,0,1.7.6,1.8,1.6.2,2.8.4,6-.8,9-1.1,2.9-4,5.6-7.4,5.6Z"/>
        </g>
        <g>
          <path d="M178.8,204.9c.7,3.3,0,6.6.4,9.9.4,3.3,2.4,6.9,5.7,7.2,2.8.3,5.3-1.9,6.3-4.5,1-2.6.8-5.5.7-8.3" style="fill: #a5e1ff;"/>
          <path d="M185.4,223.7c-.2,0-.4,0-.6,0-4.3-.4-6.8-4.8-7.2-8.7-.2-1.6-.2-3.2-.1-4.7,0-1.8,0-3.5-.2-5.1-.2-.9.4-1.8,1.3-2,.9-.2,1.8.4,2,1.3.4,2,.4,4,.3,5.9,0,1.5,0,2.8,0,4.2.3,2.6,1.9,5.5,4.2,5.7,2,.2,3.9-1.6,4.6-3.5.9-2.3.7-5.1.6-7.6,0-.9.6-1.7,1.6-1.8.8,0,1.7.6,1.8,1.6.2,2.8.4,6-.8,9-1.1,2.9-4,5.6-7.4,5.6Z"/>
        </g>
        <g>
          <g>
            <path d="M179,326.7c3.6,10,17.1,26.6,29.5,23.8,11.5-2.6,17.4-19.5,14-29.5-1-3.2-2.8-6-4.7-8.8-14.7,11.6-38.4,13.6-38.4,13.6l-.6.2c0,.2.2.4.2.6Z" style="fill: #757575;"/>
            <path d="M169.6,259.4c-1.7,21.5,0,38.1,5.8,56.9,0,0,22.6-1.2,36.3-12-11.3-15.8-15.6-35.4-19.6-54.4-1.1-5.3-1.8-11.5-7.2-12.2-5.3-.7-9.4,2.9-12.1,7.6-2.5,4.2-3,9.3-3.3,14.1Z" style="fill: #424242;"/>
            <path d="M211.8,304.3c-13.7,10.8-36.3,12-36.3,12,1,3.2,2.1,6.4,3.3,9.8l.6-.2s23.7-2,38.4-13.6c-1.9-2.7-4.1-5.3-6-8Z" style="fill: #fff;"/>
          </g>
          <g>
            <path d="M205.7,352.6c-12.6,0-24.8-15.7-28.3-25.3-.2-.4-.2-.6-.3-.7-1.2-3.2-2.3-6.6-3.3-9.7h0c-5.9-19.2-7.6-35.9-5.9-57.6.4-5.5,1-10.5,3.6-14.9,3.6-6.1,8.6-9.1,13.8-8.4,6,.8,7.2,6.9,8.2,11.9l.3,1.7c3.8,17.8,8,38,19.3,53.8,1,1.3,2,2.6,3,4,1,1.3,2.1,2.7,3.1,4.1,2.5,3.4,4,6.3,4.9,9.2,2.1,6.1.9,14.8-2.9,21.5-3,5.4-7.4,9-12.3,10.1-1.1.2-2.1.3-3.2.3ZM177.1,315.8c1,3.1,2.1,6.4,3.3,9.7.1.4.2.5.2.6,3.3,9,16,25.3,27.5,22.7,4-.9,7.6-3.9,10.1-8.5,3.4-6,4.4-13.5,2.7-18.8-.8-2.6-2.2-5.2-4.5-8.3-1-1.4-2-2.7-3-4-1-1.3-2.1-2.7-3-4-11.7-16.3-16-36.9-19.9-55l-.4-1.7c-1.1-5.3-2-8.8-5.4-9.2-4.9-.7-8.4,3.3-10.4,6.8-2.2,3.7-2.7,8.3-3.1,13.4-1.7,21.2,0,37.6,5.8,56.3h0Z"/>
            <path d="M175.5,318c-.9,0-1.6-.7-1.7-1.6,0-.9.7-1.7,1.6-1.8.2,0,22.2-1.3,35.4-11.7.7-.6,1.8-.4,2.4.3.6.7.4,1.8-.3,2.4-14,11-36.3,12.3-37.3,12.4,0,0,0,0,0,0Z"/>
            <path d="M179.4,327.6c-.9,0-1.6-.7-1.7-1.5,0-.9.6-1.7,1.5-1.8.2,0,23.4-2.1,37.5-13.2.7-.6,1.8-.4,2.4.3.6.7.4,1.8-.3,2.4-15,11.7-38.3,13.8-39.3,13.9,0,0,0,0-.1,0Z"/>
          </g>
        </g>
        <g>
          <g>
            <path d="M175.5,247c.5,3.6-1.6,8.9-2.7,11.2.2.3.3.4.3.4,0,0,0,.1,0,.2l3.2-11.9c-.3.2-.6.2-.9,0Z" style="fill: #b06d0d;"/>
            <path d="M161,254c.9-2.8,2.3-6.7,3.2-9.1l-.2-1.1-3.5,11.2c0,0,.2,0,.3,0,0-.3,0-.6.2-1Z" style="fill: #b06d0d;"/>
            <path d="M161.8,255.4c.1.1,3.4,3.9,8.7,3.2-1.8-2.3-5.1-7.8-6.2-13.7-.9,2.4-2.3,6.3-3.2,9.1-.1.3-.2.7-.2,1,.3,0,.7.1.9.4Z" style="fill: #b06d0d;"/>
            <path d="M175.5,247c-.1,0-.2-.1-.3-.2-3.9-3.4-7.4-3.4-9-3.1,1,6.6,5.4,12.9,6.7,14.5,1.1-2.2,3.2-7.6,2.7-11.2Z" style="fill: #b06d0d;"/>
            <path d="M172.7,260.3c0,0,.2,0,.2-.1l.4-1.3c0,0,0-.1,0-.2,0,0-.1-.2-.3-.4-.3.7-.5,1.1-.5,1.1,0,0-2.9.2-5.8-.4-2.9-.5-5.8-1.6-5.7-3.9,0,0-.2,0-.3,0l-.5,1.6c.1.2,2.2,2.6,5.9,3.7,1.9.6,4.2.7,6.7,0Z"/>
            <path d="M165,242.9s1.9-.4,4.1-.4c2.2,0,4.7.7,5.9,2.7.3.5.5,1.1.6,1.8.3.1.6,0,.9,0l.4-1.4c0-.1-.1-.2-.2-.3-5.9-5.3-11.4-3.6-12-3.4l-.6,1.9.2,1.1c.4-1.2.7-2.1.7-2.1Z"/>
            <path d="M166.1,243.7c1.6-.3,5.1-.3,9,3.1.1,0,.2.2.3.2,0-.7-.3-1.3-.6-1.8-1.2-2.1-3.7-2.6-5.9-2.7-2.2,0-4.1.4-4.1.4,0,0-.3.8-.7,2.1,1.1,5.8,4.5,11.3,6.2,13.7-5.3.7-8.5-3.1-8.7-3.2-.2-.3-.6-.4-.9-.4,0,2.3,2.8,3.4,5.7,3.9,2.9.5,5.8.4,5.8.4,0,0,.2-.4.5-1.1-1.3-1.6-5.7-7.9-6.7-14.5Z"/>
          </g>
          <g>
            <path d="M187.9,250.1c.7,3.6-1.3,9-2.3,11.3.2.3.4.4.4.4,0,0,0,.1,0,.2l2.7-12c-.3.2-.6.2-.9.1Z" style="fill: #b06d0d;"/>
            <path d="M173.7,257.7c.8-2.8,2.1-6.8,2.8-9.2l-.2-1.1-3,11.3c0,0,.2,0,.3,0,0-.3,0-.6.1-1Z" style="fill: #b06d0d;"/>
            <path d="M174.5,259c.1.2,3.5,3.8,8.8,2.9-1.8-2.4-5.4-7.5-6.7-13.4-.8,2.4-2,6.4-2.8,9.2,0,.3-.1.7-.1,1,.3,0,.7,0,.9.4Z" style="fill: #b06d0d;"/>
            <path d="M187.9,250.1c-.1,0-.2,0-.4-.2-4-3.4-7.6-3.1-9.1-2.8,1.3,6.6,5.9,12.7,7.3,14.3,1-2.3,2.9-7.7,2.3-11.3Z" style="fill: #b06d0d;"/>
            <path d="M185.6,263.5c0,0,.2,0,.2-.1l.3-1.3c0,0,0-.1,0-.2,0,0-.1-.2-.4-.4-.3.7-.5,1.1-.5,1.1,0,0-2.9.2-5.8-.2-2.9-.4-5.8-1.4-5.8-3.7,0,0-.2,0-.3,0l-.4,1.7c.1.1,2.3,2.6,6,3.5,1.9.4,4.2.6,6.7-.3Z"/>
            <path d="M177.2,246.4s1.9-.5,4.1-.5c2.2,0,4.7.5,6,2.5.3.5.5,1.1.6,1.7.3,0,.6,0,.9-.1l.3-1.4c0,0-.1-.2-.2-.3-6.1-5.1-11.5-3.1-12.1-2.9l-.5,2,.2,1.1c.4-1.2.7-2.1.7-2.1Z"/>
            <path d="M178.4,247.2c1.6-.3,5.1-.6,9.1,2.8.1,0,.2.1.4.2-.1-.6-.3-1.2-.6-1.7-1.3-2.1-3.8-2.5-6-2.5-2.2,0-4.1.5-4.1.5,0,0-.3.8-.7,2.1,1.3,5.9,4.9,11.1,6.7,13.4-5.2.9-8.6-2.7-8.8-2.9-.2-.3-.6-.4-.9-.4,0,2.3,2.9,3.4,5.8,3.7,2.9.4,5.8.2,5.8.2,0,0,.2-.4.5-1.1-1.3-1.6-6-7.7-7.3-14.3Z"/>
          </g>
          <g>
            <path d="M200.5,252.7c.8,3.6-.9,9.1-1.8,11.4.2.3.4.4.4.4,0,0,0,.1,0,.2l2.2-12.1c-.3.2-.6.3-.9.2Z" style="fill: #b06d0d;"/>
            <path d="M186.5,260.8c.7-2.8,1.8-6.9,2.5-9.3l-.3-1.1-2.6,11.4c0,0,.2,0,.3,0,0-.3,0-.6,0-1Z" style="fill: #b06d0d;"/>
            <path d="M187.4,262.1c.2.1,3.7,3.7,8.9,2.6-1.9-2.2-5.7-7.3-7.3-13.1-.7,2.4-1.8,6.4-2.5,9.3,0,.4-.1.7,0,1,.3,0,.7,0,1,.3Z" style="fill: #b06d0d;"/>
            <path d="M200.5,252.7c-.1,0-.3,0-.4-.2-4.2-3.2-7.7-2.8-9.3-2.4,1.5,6.6,6.4,12.4,7.8,14,.9-2.3,2.6-7.8,1.8-11.4Z" style="fill: #b06d0d;"/>
            <path d="M198.6,266.2c0,0,.2-.1.2-.2l.3-1.4c0,0,0-.1,0-.2,0,0-.1-.2-.4-.4-.3.7-.4,1.1-.4,1.1,0,0-2.9.3-5.8,0-2.9-.3-5.9-1.2-6-3.5,0,0-.2,0-.3,0l-.4,1.7c.1.1,2.4,2.4,6.2,3.3,1.9.4,4.2.3,6.7-.6Z"/>
            <path d="M189.6,249.4s1.9-.6,4.1-.7c2.2,0,4.7.3,6.1,2.3.3.5.6,1.1.7,1.7.3,0,.6,0,.9-.2l.3-1.4c0,0-.1-.2-.2-.3-6.3-4.8-11.7-2.7-12.2-2.4l-.4,2,.3,1.1c.4-1.3.6-2.1.6-2.1Z"/>
            <path d="M190.8,250.1c1.6-.4,5.1-.7,9.3,2.4.1,0,.2.1.4.2-.1-.6-.4-1.2-.7-1.7-1.4-2-3.9-2.3-6.1-2.3-2.2,0-4.1.7-4.1.7,0,0-.2.8-.6,2.1,1.6,5.8,5.3,10.9,7.3,13.1-5.2,1.1-8.7-2.4-8.9-2.6-.3-.3-.6-.4-1-.3.1,2.3,3.1,3.2,6,3.5,2.9.2,5.8,0,5.8,0,0,0,.2-.4.4-1.1-1.4-1.5-6.3-7.4-7.8-14Z"/>
          </g>
          <g>
            <path d="M213.1,254.9c1,3.5-.6,9.1-1.4,11.4.2.2.4.4.4.4,0,0,0,.1.1.2l1.8-12.2c-.3.2-.6.3-.9.2Z" style="fill: #b06d0d;"/>
            <path d="M199.5,263.5c.6-2.9,1.5-6.9,2.1-9.4l-.3-1.1-2.1,11.5c0,0,.2,0,.3,0,0-.3,0-.6,0-1Z" style="fill: #b06d0d;"/>
            <path d="M200.4,264.8c.1.2,3.8,3.5,9,2.2-2-2.2-6-7.1-7.8-12.9-.6,2.5-1.5,6.5-2.1,9.4,0,.4,0,.7,0,1,.3,0,.7,0,1,.3Z" style="fill: #b06d0d;"/>
            <path d="M213.1,254.9c-.1,0-.3,0-.4-.2-4.3-3-7.8-2.5-9.3-2,1.8,6.4,6.9,12.2,8.3,13.6.8-2.4,2.3-7.9,1.4-11.4Z" style="fill: #b06d0d;"/>
            <path d="M211.8,268.4c0,0,.2-.1.2-.2l.2-1.4c0,0,0-.1-.1-.2,0,0-.2-.2-.4-.4-.2.7-.4,1.1-.4,1.1,0,0-2.8.5-5.8.3-2.9-.2-5.9-.9-6.1-3.2,0,0-.2,0-.3,0l-.3,1.7c.1.2,2.5,2.4,6.3,3,1.9.3,4.2.2,6.7-.8Z"/>
            <path d="M202.1,252s1.9-.6,4-.8c2.2-.2,4.7.1,6.2,2,.4.5.6,1,.8,1.7.3,0,.6,0,.9-.2l.2-1.4c0,0-.1-.2-.2-.3-6.5-4.6-11.8-2.2-12.3-2l-.4,2,.3,1.1c.3-1.3.5-2.1.5-2.1Z"/>
            <path d="M203.4,252.7c1.5-.5,5.1-1,9.3,2,.1,0,.2.1.4.2-.2-.6-.4-1.2-.8-1.7-1.4-1.9-4-2.2-6.2-2-2.2.2-4,.8-4,.8,0,0-.2.8-.5,2.1,1.8,5.7,5.8,10.7,7.8,12.9-5.1,1.3-8.8-2-9-2.2-.3-.3-.6-.3-1-.3.2,2.3,3.2,3.1,6.1,3.2,2.9.2,5.8-.3,5.8-.3,0,0,.2-.4.4-1.1-1.5-1.4-6.6-7.2-8.3-13.6Z"/>
          </g>
          <g>
            <path d="M225.8,256.5c1.1,3.5-.2,9.1-.9,11.5.2.2.4.4.4.4,0,0,0,.1.1.2l1.3-12.3c-.2.2-.6.3-.9.2Z" style="fill: #b06d0d;"/>
            <path d="M212.5,265.6c.5-2.9,1.3-7,1.7-9.5l-.4-1.1-1.7,11.6c0,0,.2,0,.3,0,0-.3,0-.6,0-1Z" style="fill: #b06d0d;"/>
            <path d="M213.5,266.9c.2.2,4,3.4,9.1,1.9-2.1-2.1-6.2-6.9-8.3-12.5-.5,2.5-1.3,6.6-1.7,9.5,0,.4,0,.7,0,1,.3,0,.7,0,1,.2Z" style="fill: #b06d0d;"/>
            <path d="M225.8,256.5c-.1,0-.3,0-.4-.2-4.4-2.9-7.9-2.2-9.4-1.7,2,6.4,7.3,11.9,8.9,13.3.7-2.4,2-8,.9-11.5Z" style="fill: #b06d0d;"/>
            <path d="M225,270.1c0,0,.1-.1.2-.2v-1.4c.1,0,0-.1,0-.2,0,0-.2-.2-.4-.4-.2.7-.3,1.1-.3,1.1,0,0-2.8.5-5.7.5-2.9,0-5.9-.8-6.2-3,0,0-.2,0-.3,0l-.2,1.7c.2.1,2.6,2.3,6.4,2.8,1.9.2,4.2,0,6.6-1.1Z"/>
            <path d="M214.7,254s1.8-.7,4-1c2.2-.3,4.7-.1,6.2,1.8.4.5.6,1,.8,1.7.3,0,.6,0,.9-.2l.2-1.4c0,0-.2-.2-.3-.3-6.7-4.4-11.8-1.8-12.3-1.5l-.3,2,.4,1.1c.3-1.3.4-2.1.4-2.1Z"/>
            <path d="M216,254.6c1.5-.5,5-1.2,9.4,1.7.1,0,.2.1.4.2-.2-.6-.5-1.2-.8-1.7-1.5-1.9-4-2-6.2-1.8-2.2.2-4,1-4,1,0,0-.2.9-.4,2.1,2,5.7,6.2,10.4,8.3,12.5-5.1,1.5-8.9-1.7-9.1-1.9-.3-.2-.6-.3-1-.2.3,2.3,3.3,3,6.2,3,2.9,0,5.7-.5,5.7-.5,0,0,.1-.4.3-1.1-1.5-1.5-6.8-6.9-8.9-13.3Z"/>
          </g>
          <g>
            <path d="M238.5,257.6c1.2,3.4.1,9.1-.5,11.5.3.2.4.4.4.4,0,0,0,.1.1.2l.8-12.3c-.2.2-.6.3-.9.3Z" style="fill: #b06d0d;"/>
            <path d="M225.6,267.3c.4-2.9,1-7,1.4-9.5l-.4-1.1-1.2,11.6c0,0,.2,0,.3,0,0-.3,0-.6,0-1Z" style="fill: #b06d0d;"/>
            <path d="M226.6,268.5c.2.1,4.1,3.2,9.1,1.5-2.2-2-6.5-6.7-8.8-12.2-.4,2.5-1,6.6-1.4,9.5,0,.4,0,.7,0,1,.3,0,.7,0,1,.2Z" style="fill: #b06d0d;"/>
            <path d="M238.5,257.6c-.1,0-.3,0-.4-.1-4.5-2.6-8-1.9-9.5-1.3,2.3,6.3,7.8,11.6,9.4,13,.6-2.4,1.7-8.1.5-11.5Z" style="fill: #b06d0d;"/>
            <path d="M238.3,271.2c0,0,.1-.1.2-.2v-1.4c0,0,0-.1,0-.2,0,0-.2-.1-.4-.4-.2.7-.3,1.2-.3,1.2,0,0-2.8.7-5.7.8-2.9,0-6-.5-6.4-2.8,0,0-.2,0-.3,0l-.2,1.7c.2.1,2.7,2.1,6.5,2.5,1.9.2,4.2-.1,6.6-1.3Z"/>
            <path d="M227.3,255.6s1.8-.8,4-1.2c2.2-.3,4.7-.2,6.3,1.5.4.4.7,1,.9,1.6.3,0,.6,0,.9-.3v-1.4c0,0,0-.2-.2-.2-6.8-4-11.9-1.3-12.4-1l-.2,2,.4,1.1c.2-1.3.3-2.2.3-2.2Z"/>
            <path d="M228.6,256.2c1.5-.6,5-1.3,9.5,1.3.1,0,.3.1.4.1-.2-.6-.5-1.2-.9-1.6-1.6-1.8-4.1-1.9-6.3-1.5-2.2.3-4,1.2-4,1.2,0,0-.1.9-.3,2.2,2.3,5.5,6.6,10.2,8.8,12.2-5,1.7-9-1.4-9.1-1.5-.3-.2-.6-.3-1-.2.4,2.3,3.4,2.8,6.4,2.8,2.9,0,5.7-.8,5.7-.8,0,0,.1-.4.3-1.2-1.6-1.3-7.1-6.7-9.4-13Z"/>
          </g>
          <g>
            <path d="M251.3,258.3c1.4,3.4.5,9.1,0,11.5.3.2.4.3.4.3,0,0,0,.1.1.2l.3-12.3c-.2.2-.6.4-.9.3Z" style="fill: #b06d0d;"/>
            <path d="M238.8,268.4c.2-2.9.7-7.1,1-9.6l-.4-1-.8,11.7c0,0,.2,0,.3-.1,0-.3,0-.6,0-1Z" style="fill: #b06d0d;"/>
            <path d="M239.8,269.6c.2.2,4.2,3,9.2,1.2-2.2-2-6.8-6.3-9.2-11.9-.3,2.5-.8,6.6-1,9.6,0,.4,0,.7,0,1,.3,0,.7,0,1,.2Z" style="fill: #b06d0d;"/>
            <path d="M251.3,258.3c-.1,0-.3,0-.4-.1-4.6-2.6-8-1.6-9.5-1,2.5,6.2,8.2,11.3,9.9,12.6.5-2.4,1.4-8.1,0-11.5Z" style="fill: #b06d0d;"/>
            <path d="M251.6,271.9c0,0,.1-.1.2-.2v-1.4s0-.1,0-.2c0,0-.2-.1-.4-.3-.2.7-.3,1.2-.3,1.2,0,0-2.8.8-5.7.9-2.9.2-6-.3-6.5-2.5,0,0-.2,0-.3.1v1.7c0,.1,2.7,2.1,6.5,2.2,1.9,0,4.2-.2,6.5-1.6Z"/>
            <path d="M240,256.7s1.8-.8,3.9-1.3c2.2-.5,4.7-.5,6.4,1.3.4.4.7,1,1,1.6.3,0,.6,0,.9-.3v-1.4c0,0-.1-.2-.2-.2-7-3.8-11.9-.8-12.4-.5v2c-.1,0,.3,1,.3,1,.2-1.3.3-2.2.3-2.2Z"/>
            <path d="M241.4,257.2c1.5-.6,4.9-1.6,9.5,1,.1,0,.3.1.4.1-.2-.6-.6-1.1-1-1.6-1.7-1.8-4.2-1.8-6.4-1.3-2.2.5-3.9,1.3-3.9,1.3,0,0-.1.9-.3,2.2,2.5,5.5,7,9.9,9.2,11.9-5,1.9-9-1-9.2-1.2-.3-.2-.7-.3-1-.2.5,2.3,3.5,2.7,6.5,2.5,2.9-.2,5.7-.9,5.7-.9,0,0,0-.4.3-1.2-1.6-1.3-7.4-6.4-9.9-12.6Z"/>
          </g>
          <g>
            <path d="M264.1,258.4c1.5,3.3.8,9.1.4,11.5.3.2.4.3.4.3,0,0,0,.1.1.1v-12.3c-.4.2-.7.4-1,.3Z" style="fill: #b06d0d;"/>
            <path d="M252,269c.1-2.9.4-7.1.6-9.6l-.5-1-.3,11.7c0,0,.2,0,.3-.1,0-.3-.1-.6,0-1Z" style="fill: #b06d0d;"/>
            <path d="M253.1,270.1c.2.1,4.3,2.9,9.2.8-2.3-1.8-7-6.1-9.7-11.5-.2,2.5-.5,6.7-.6,9.6,0,.4,0,.7,0,1,.3-.1.7,0,1,.1Z" style="fill: #b06d0d;"/>
            <path d="M264.1,258.4c-.1,0-.3,0-.4-.1-4.7-2.3-8.1-1.3-9.5-.6,2.8,6.1,8.7,11,10.4,12.2.4-2.4,1.1-8.2-.4-11.5Z" style="fill: #b06d0d;"/>
            <path d="M264.9,272c0,0,.1-.1.2-.2v-1.4c0,0,0-.1-.1-.1,0,0-.2-.1-.4-.3-.1.7-.2,1.2-.2,1.2,0,0-2.7.9-5.6,1.2-2.9.3-6,0-6.5-2.3,0,0-.2,0-.3.1v1.7c.1.1,2.8,1.9,6.6,2,1.9,0,4.2-.5,6.5-1.9Z"/>
            <path d="M252.8,257.3s1.7-.9,3.9-1.4c2.1-.5,4.7-.7,6.4,1,.4.4.8.9,1,1.5.3,0,.6-.1.9-.3v-1.4c0,0-.2-.2-.3-.2-7.1-3.5-12-.4-12.4,0v2c0,0,.4,1,.4,1,.1-1.3.2-2.2.2-2.2Z"/>
            <path d="M254.1,257.7c1.5-.7,4.9-1.7,9.5.6.1,0,.3,0,.4.1-.3-.6-.6-1.1-1-1.5-1.7-1.7-4.3-1.5-6.4-1-2.1.5-3.9,1.4-3.9,1.4,0,0,0,.9-.2,2.2,2.7,5.4,7.4,9.7,9.7,11.5-4.9,2.1-9-.7-9.2-.8-.3-.2-.7-.2-1-.1.6,2.2,3.6,2.5,6.5,2.3,2.9-.3,5.6-1.2,5.6-1.2,0,0,0-.5.2-1.2-1.7-1.2-7.6-6.1-10.4-12.2Z"/>
          </g>
          <g>
            <path d="M276.8,258.1c1.6,3.3,1.2,9,.9,11.5.3.2.5.3.5.3,0,0,0,0,.1.1l-.6-12.3c-.2.2-.5.4-.8.4Z" style="fill: #b06d0d;"/>
            <path d="M265.2,269.2c0-2.9.2-7.1.2-9.6l-.5-1v11.7c.2,0,.3,0,.4-.1,0-.3-.1-.6-.1-1Z" style="fill: #b06d0d;"/>
            <path d="M266.3,270.2c.2.1,4.4,2.7,9.2.4-2.4-1.8-7.2-5.8-10.1-11.1,0,2.5-.2,6.7-.2,9.6,0,.4,0,.7.1,1,.3-.1.7,0,1,.1Z" style="fill: #b06d0d;"/>
            <path d="M276.8,258.1c-.1,0-.3,0-.4,0-4.8-2.1-8.1-1-9.6-.2,3,6,9.1,10.6,10.8,11.8.3-2.5.7-8.2-.9-11.5Z" style="fill: #b06d0d;"/>
            <path d="M278.2,271.6c0,0,.1-.1.2-.2v-1.4c-.1,0-.1-.1-.2-.1,0,0-.2-.1-.5-.3-.1.7-.2,1.2-.2,1.2,0,0-2.7,1-5.6,1.4-2.9.4-6,.2-6.6-2,0,0-.2,0-.3.1v1.7c.2.1,3,1.8,6.8,1.7,1.9,0,4.2-.6,6.4-2.1Z"/>
            <path d="M265.5,257.4s1.7-1,3.8-1.6c2.1-.6,4.6-.8,6.4.8.4.4.8.9,1.1,1.5.3,0,.6-.1.8-.4v-1.4c-.2,0-.2-.2-.4-.2-7.2-3.3-12,.1-12.4.5v2s.5,1,.5,1c0-1.3,0-2.2,0-2.2Z"/>
            <path d="M266.9,257.8c1.4-.8,4.8-1.9,9.6.2.1,0,.3,0,.4,0-.3-.6-.6-1.1-1.1-1.5-1.8-1.6-4.3-1.4-6.4-.8-2.1.6-3.8,1.6-3.8,1.6,0,0,0,.9,0,2.2,2.9,5.3,7.7,9.3,10.1,11.1-4.8,2.2-9.1-.3-9.2-.4-.3-.2-.7-.2-1-.1.7,2.2,3.7,2.4,6.6,2,2.9-.4,5.6-1.4,5.6-1.4,0,0,0-.5.2-1.2-1.7-1.1-7.8-5.8-10.8-11.8Z"/>
          </g>
          <g>
            <path d="M289.6,257.2c1.7,3.2,1.5,9,1.3,11.4.3.2.5.3.5.3,0,0,0,0,.1.1l-1.1-12.3c-.2.3-.5.4-.8.4Z" style="fill: #b06d0d;"/>
            <path d="M278.4,268.7c0-2.9-.1-7.1-.1-9.6l-.6-1,.6,11.7c0,0,.2,0,.3-.1,0-.3-.2-.6-.2-1Z" style="fill: #b06d0d;"/>
            <path d="M279.6,269.8c.2.1,4.5,2.5,9.2,0-2.5-1.6-7.5-5.5-10.5-10.7,0,2.5,0,6.7.1,9.6,0,.4,0,.7.2,1,.3-.1.7-.1,1,0Z" style="fill: #b06d0d;"/>
            <path d="M289.6,257.2c-.1,0-.3,0-.4,0-4.9-2-8.2-.6-9.6.2,3.2,5.9,9.5,10.2,11.3,11.4.2-2.5.4-8.2-1.3-11.4Z" style="fill: #b06d0d;"/>
            <path d="M291.5,270.7c0,0,.1-.1.2-.2v-1.4c-.2,0-.2-.1-.3-.1,0,0-.2-.1-.5-.3,0,.7-.1,1.2-.1,1.2,0,0-2.7,1.1-5.5,1.6-2.9.6-6,.4-6.7-1.8,0,0-.2,0-.3.1v1.7c.3,0,3.1,1.7,6.9,1.5,1.9-.1,4.1-.8,6.3-2.3Z"/>
            <path d="M278.3,256.9s1.7-1.1,3.7-1.7c2.1-.7,4.6-1,6.5.5.5.4.8.9,1.1,1.5.3,0,.6-.1.8-.4v-1.4c-.2,0-.3-.1-.4-.2-7.4-3-11.9.6-12.4.9v2c.1,0,.7,1,.7,1,0-1.3,0-2.2,0-2.2Z"/>
            <path d="M279.7,257.3c1.4-.8,4.7-2.1,9.6-.2.1,0,.3,0,.4,0-.3-.6-.7-1.1-1.1-1.5-1.8-1.6-4.4-1.2-6.5-.5-2.1.7-3.7,1.7-3.7,1.7,0,0,0,.9,0,2.2,3.1,5.2,8.1,9.1,10.5,10.7-4.7,2.5-9.1,0-9.2,0-.3-.2-.7-.2-1,0,.7,2.2,3.8,2.3,6.7,1.8,2.9-.5,5.5-1.6,5.5-1.6,0,0,0-.5.1-1.2-1.8-1.2-8.1-5.4-11.3-11.4Z"/>
          </g>
        </g>
        <g>
          <g>
            <path d="M168.5,285.8c1.2,3.4,0,9.1-.6,11.5.3.2.4.4.4.4,0,0,0,.1.1.2l.9-12.3c-.2.2-.6.3-.9.3Z" style="fill: #b06d0d;"/>
            <path d="M155.3,295.1c.5-2.9,1.3-7,1.8-9.5l-.3-1.1-1.8,11.6c0,0,.2,0,.3,0,0-.3,0-.6,0-1Z" style="fill: #b06d0d;"/>
            <path d="M156.3,296.3c0,0,1.1.9,2.8,1.5,1.7.6,4,1.1,6.6.2-2.2-1.9-6.5-6.9-8.5-12.4-.5,2.5-1.3,6.6-1.8,9.5,0,.4,0,.7,0,1,.3,0,.7,0,1,.2Z" style="fill: #b06d0d;"/>
            <path d="M168.5,285.8c-.1,0-.3,0-.4-.1-4.4-2.6-7.8-2.1-9.3-1.5,1,3.2,2.9,6.1,4.7,8.5,1.8,2.3,3.7,4,4.5,4.7.6-2.4,1.8-8.1.6-11.5Z" style="fill: #b06d0d;"/>
            <path d="M168.2,299.3c0,0,.1-.1.2-.2v-1.4c0,0,0-.1,0-.2,0,0-.2-.1-.4-.4-.2.7-.3,1.2-.3,1.2,0,0-.7.2-1.8.3-1.1.2-2.6.4-4.1.3-3,0-6.1-.7-6.4-3,0,0-.2,0-.3,0l-.3,1.7c.1.1,2.7,2.2,6.6,2.7,2,.3,4.4,0,6.8-1.2Z"/>
            <path d="M157.5,283.5s1.8-.7,4-1c2.1-.2,4.6-.1,6.2,1.7.4.4.7,1,.9,1.6.3,0,.6,0,.9-.3v-1.4c0,0,0-.2-.2-.2-3.4-2-6.2-2.4-8.4-2.3-2.1.2-3.6.9-3.8,1l-.3,2,.3,1.1c.3-1.3.4-2.1.4-2.1Z"/>
            <path d="M158.8,284.1c1.5-.6,4.9-1.1,9.3,1.5.1,0,.2.1.4.1-.2-.6-.5-1.2-.9-1.6-1.5-1.8-4-1.9-6.2-1.7-2.1.3-4,1-4,1,0,0-.2.9-.4,2.1,2,5.6,6.3,10.5,8.5,12.4-2.6.9-4.9.4-6.6-.2-1.7-.6-2.7-1.5-2.8-1.5-.3-.2-.7-.3-1-.2.3,2.3,3.4,2.9,6.4,3,1.5,0,3-.2,4.1-.3,1.1-.2,1.8-.3,1.8-.3,0,0,.1-.4.3-1.2-.8-.7-2.6-2.3-4.5-4.7-1.8-2.4-3.7-5.3-4.7-8.5Z"/>
          </g>
          <g>
            <path d="M181.2,286.3c1.4,3.3.8,9.1.3,11.5.3.2.5.3.5.3,0,0,0,0,.1.1v-12.3c-.3.2-.6.4-.9.4Z" style="fill: #b06d0d;"/>
            <path d="M168.7,296.6c.3-2.9.8-7.1,1.1-9.6l-.4-1-.9,11.7c0,0,.2,0,.3,0,0-.3,0-.6,0-1Z" style="fill: #b06d0d;"/>
            <path d="M169.8,297.7c.2.2,4.3,3,9.4,1.1-2.4-2-7-6.2-9.4-11.8-.3,2.5-.8,6.6-1.1,9.6,0,.4,0,.7,0,1,.3,0,.7,0,1,.2Z" style="fill: #b06d0d;"/>
            <path d="M181.2,286.3c-.1,0-.3,0-.4-.1-4.6-2.5-8-1.4-9.4-.8,2.5,6.2,8.4,11.2,10.1,12.4.5-2.5,1.1-8.2-.3-11.5Z" style="fill: #b06d0d;"/>
            <path d="M181.9,299.9c0,0,.1-.1.2-.2v-1.4c0,0,0-.1-.1-.1,0,0-.2-.1-.5-.3-.1.7-.2,1.2-.2,1.2,0,0-.7.3-1.8.5-1.1.2-2.5.5-4,.6-3,.3-6.2-.2-6.6-2.5,0,0-.2,0-.3,0v1.7c0,.1,2.7,2.2,6.7,2.2,2,0,4.3-.3,6.7-1.7Z"/>
            <path d="M170,284.8s.4-.2,1.1-.5c.7-.3,1.7-.6,2.7-.8,2.1-.5,4.6-.5,6.3,1.2.4.4.7.9,1,1.5.3,0,.6-.1.9-.4v-1.4c0,0-.2-.2-.3-.2-3.5-1.8-6.4-2-8.5-1.6-2.1.3-3.5,1.1-3.7,1.2v2c-.1,0,.3,1,.3,1,.2-1.3.3-2.2.3-2.2Z"/>
            <path d="M171.3,285.4c1.5-.6,4.8-1.6,9.4.8.1,0,.3,0,.4.1-.3-.6-.6-1.1-1-1.5-1.7-1.7-4.2-1.7-6.3-1.2-1.1.3-2,.6-2.7.8-.7.3-1.1.5-1.1.5,0,0-.1.9-.3,2.2,2.4,5.6,7.1,9.8,9.4,11.8-5.1,2-9.3-.9-9.4-1.1-.3-.2-.7-.3-1-.2.5,2.3,3.6,2.8,6.6,2.5,1.5-.1,3-.4,4-.6,1.1-.2,1.8-.5,1.8-.5,0,0,0-.5.2-1.2-1.7-1.2-7.7-6.2-10.1-12.4Z"/>
          </g>
          <g>
            <path d="M193.8,285.8c1.7,3.2,1.4,9,1.2,11.5.3.2.5.3.5.3,0,0,0,0,.1.1l-1-12.3c-.2.3-.5.4-.8.4Z" style="fill: #b06d0d;"/>
            <path d="M182.2,297c0-2.9.2-7.1.3-9.6l-.5-1v11.7c.1,0,.2,0,.3-.1,0-.3-.1-.6-.1-1Z" style="fill: #b06d0d;"/>
            <path d="M183.4,298.1c0,0,1.2.7,3,1.1,1.7.4,4.1.4,6.5-.8-2.5-1.6-7.5-5.7-10.3-11-.1,2.5-.3,6.7-.3,9.6,0,.4,0,.7.1,1,.3-.1.7-.1,1,0Z" style="fill: #b06d0d;"/>
            <path d="M193.8,285.8c-.1,0-.3,0-.4,0-4.8-2-8.1-.8-9.5-.1,2.9,6.1,9.2,10.5,11,11.7.3-2.5.5-8.2-1.2-11.5Z" style="fill: #b06d0d;"/>
            <path d="M195.6,299.3c0,0,.1-.1.2-.2v-1.4c-.2,0-.2-.1-.2-.1,0,0-.2-.1-.5-.3,0,.7-.1,1.2-.1,1.2,0,0-2.7,1-5.7,1.6-3,.4-6.2.2-6.8-2,0,0-.2,0-.3.1v1.7c.2.1,3,1.8,7,1.7,2-.1,4.3-.7,6.5-2.3Z"/>
            <path d="M182.6,285.2s1.7-1,3.8-1.6c2.1-.5,4.6-.9,6.4.7.4.4.8.9,1.1,1.5.3,0,.6-.1.8-.4v-1.4c-.2,0-.3-.2-.4-.2-7.2-3-11.8.2-12.3.6v2s.5,1,.5,1c0-1.3,0-2.2,0-2.2Z"/>
            <path d="M184,285.6c1.4-.7,4.7-1.9,9.5.1.1,0,.3,0,.4,0-.3-.6-.7-1.1-1.1-1.5-1.8-1.6-4.3-1.2-6.4-.7-2.1.6-3.8,1.6-3.8,1.6,0,0,0,.9,0,2.2,2.8,5.3,7.8,9.4,10.3,11-2.4,1.2-4.8,1.2-6.5.8-1.7-.4-2.9-1.1-3-1.1-.3-.2-.7-.2-1,0,.6,2.2,3.8,2.4,6.8,2,3-.5,5.7-1.6,5.7-1.6,0,0,0-.5.1-1.2-1.8-1.1-8.1-5.6-11-11.7Z"/>
          </g>
          <g>
            <path d="M206.5,284.4c1.9,3.1,2.1,8.8,2,11.3.3.2.5.3.5.3,0,0,0,0,.2.1l-1.9-12.2c-.2.3-.5.4-.8.5Z" style="fill: #b06d0d;"/>
            <path d="M195.7,296.5c-.2-2.9-.3-7.1-.4-9.6l-.6-1,.9,11.7c0,0,.2,0,.3-.1-.1-.3-.2-.6-.2-1Z" style="fill: #b06d0d;"/>
            <path d="M196.9,297.5c.2.1,4.7,2.3,9.5-.4-2.6-1.5-7.9-5.2-11.1-10.2,0,2.5.2,6.7.4,9.6,0,.4,0,.7.2,1,.3-.1.7-.1,1,0Z" style="fill: #b06d0d;"/>
            <path d="M206.5,284.4c-.1,0-.3,0-.4,0-4.9-1.6-8.1-.3-9.5.6,3.4,5.7,10,9.9,11.9,10.8,0-2.5,0-8.3-2-11.3Z" style="fill: #b06d0d;"/>
            <path d="M209.2,297.7c0,0,.1-.1.2-.2l-.2-1.4c0,0,0,0-.2-.1,0,0-.2-.1-.5-.3,0,.7,0,1.2,0,1.2,0,0-2.6,1.3-5.6,1.9-2.9.6-6.1.8-6.9-1.5,0,0-.2,0-.3.1v1.7c.3.1,3.3,1.6,7.2,1.2,2-.2,4.2-.9,6.3-2.7Z"/>
            <path d="M195.2,284.7s.4-.3,1.1-.6c.7-.4,1.6-.9,2.6-1.3,2-.8,4.5-1.1,6.4.3.5.3.9.8,1.2,1.4.3,0,.6-.2.8-.5l-.2-1.4c0,0-.2-.1-.3-.2-7.4-2.5-11.7,1.2-12.2,1.5l.2,2,.6,1c0-1.3,0-2.2,0-2.2Z"/>
            <path d="M196.6,285c1.4-.9,4.6-2.3,9.5-.6.1,0,.3,0,.4,0-.3-.6-.7-1-1.2-1.4-1.9-1.4-4.4-1.1-6.4-.3-1,.4-1.9.9-2.6,1.3-.7.4-1.1.6-1.1.6,0,0,0,.9,0,2.2,3.2,5.1,8.5,8.7,11.1,10.2-4.7,2.7-9.3.5-9.5.4-.3-.2-.7-.2-1,0,.8,2.2,4,2.1,6.9,1.5,3-.6,5.6-1.9,5.6-1.9,0,0,0-.5,0-1.2-1.9-.9-8.5-5.1-11.9-10.8Z"/>
          </g>
          <g>
            <path d="M219,282.1c2.2,3,2.7,8.7,2.8,11.2.3.1.5.2.5.2,0,0,.1,0,.2.1l-2.8-12c-.2.3-.4.5-.8.5Z" style="fill: #b06d0d;"/>
            <path d="M209.1,294.9c-.4-2.9-.8-7-1.1-9.5l-.6-.9,1.8,11.6c0,0,.2-.1.3-.2-.1-.3-.2-.6-.3-.9Z" style="fill: #b06d0d;"/>
            <path d="M210.4,295.8c.2.1,4.9,2.1,9.4-1.1-2.7-1.3-8.2-4.5-11.8-9.4.3,2.5.7,6.6,1.1,9.5,0,.4.1.7.3.9.3-.2.7-.2,1,0Z" style="fill: #b06d0d;"/>
            <path d="M219,282.1c-.1,0-.3,0-.4,0-5-1.3-8.1.4-9.4,1.3,3.8,5.6,10.7,9,12.6,9.9,0-2.5-.7-8.2-2.8-11.2Z" style="fill: #b06d0d;"/>
            <path d="M222.6,295.2c0,0,.1-.2.2-.2l-.3-1.3c0,0,0,0-.2-.1,0,0-.2,0-.5-.2,0,.7,0,1.2,0,1.2,0,0-2.6,1.4-5.4,2.3-2.9.9-6.1,1.1-7-1,0,0-.2,0-.3.2l.3,1.7c.2,0,3.3,1.4,7.1.7,2-.4,4.1-1.3,6.1-3.1Z"/>
            <path d="M207.8,283.2s1.5-1.2,3.5-2.1c2-.9,4.4-1.6,6.4-.3.5.3.9.8,1.3,1.3.3,0,.6-.2.8-.5l-.3-1.4c0,0-.2-.1-.3-.2-3.8-1.1-6.7-.5-8.7.3-2,.7-3.2,1.9-3.4,2.1l.3,2,.6.9c-.1-1.3-.2-2.2-.2-2.2Z"/>
            <path d="M209.2,283.4c1.3-.9,4.4-2.6,9.4-1.3.1,0,.3,0,.4,0-.4-.5-.8-1-1.3-1.3-2-1.3-4.4-.7-6.4.3-2,.9-3.5,2.1-3.5,2.1,0,0,0,.9.2,2.2,3.6,4.9,9.1,8.1,11.8,9.4-4.5,3.1-9.2,1.2-9.4,1.1-.3-.1-.7-.1-1,0,1,2.1,4.2,1.9,7,1,2.9-.9,5.4-2.3,5.4-2.3,0,0,0-.5,0-1.2-2-.9-8.8-4.3-12.6-9.9Z"/>
          </g>
          <g>
            <path d="M231.2,278.9c2.4,2.8,3.4,8.4,3.7,10.9.3.1.5.2.5.2,0,0,.1,0,.2.1l-3.6-11.8c-.1.3-.4.5-.7.6Z" style="fill: #b06d0d;"/>
            <path d="M222.3,292.4c-.6-2.9-1.4-7-1.8-9.4l-.7-.9,2.6,11.4c0,0,.2-.1.2-.2-.1-.3-.3-.6-.3-.9Z" style="fill: #b06d0d;"/>
            <path d="M223.7,293.2c.1,0,1.3.4,3.1.4,1.8,0,4.1-.4,6.2-2.2-2.8-1-8.6-4-12.5-8.5.5,2.5,1.2,6.6,1.8,9.4,0,.4.2.7.3.9.3-.2.7-.3,1-.1Z" style="fill: #b06d0d;"/>
            <path d="M231.2,278.9c-.1,0-.3,0-.4,0-5.1-.8-8.1.9-9.3,2,2.1,2.6,4.9,4.7,7.5,6.2,2.6,1.5,4.8,2.3,5.8,2.7-.3-2.5-1.3-8.1-3.7-10.9Z" style="fill: #b06d0d;"/>
            <path d="M235.9,291.6c0,0,0-.2.1-.2l-.4-1.3c0,0-.1,0-.2-.1,0,0-.2,0-.5-.2,0,.7.1,1.2.1,1.2,0,0-.6.4-1.6,1-1,.6-2.3,1.3-3.7,1.8-2.8,1-6,1.6-7.1-.4,0,0-.2.1-.2.2l.4,1.7c.2,0,3.3,1.1,7.1.1,2-.5,4-1.6,5.9-3.6Z"/>
            <path d="M220.1,280.8s1.4-1.4,3.3-2.4c1.9-1,4.3-1.8,6.4-.7.5.3,1,.7,1.4,1.2.3,0,.6-.3.7-.6l-.4-1.4c-.1,0-.2-.1-.3-.1-3.9-.6-6.7,0-8.6.9-1.9.9-3,2.2-3.2,2.4l.5,2,.7.9c-.2-1.3-.4-2.2-.4-2.2Z"/>
            <path d="M221.5,280.9c1.2-1.1,4.2-2.8,9.3-2,.1,0,.3,0,.4,0-.4-.5-.9-.9-1.4-1.2-2.1-1.1-4.5-.3-6.4.7-1.9,1-3.3,2.4-3.3,2.4,0,0,.2.9.4,2.2,3.9,4.4,9.7,7.5,12.5,8.5-2.1,1.8-4.4,2.1-6.2,2.2-1.8,0-3-.4-3.1-.4-.3-.1-.7,0-1,.1,1.1,2,4.3,1.5,7.1.4,1.4-.5,2.7-1.2,3.7-1.8,1-.6,1.6-1,1.6-1,0,0,0-.5-.1-1.2-1-.4-3.3-1.2-5.8-2.7-2.6-1.5-5.4-3.6-7.5-6.2Z"/>
          </g>
          <g>
            <path d="M243.2,274.8c2.6,2.6,4,8.2,4.5,10.6.3,0,.5.1.5.1,0,0,.1,0,.2,0l-4.5-11.5c-.1.3-.4.5-.7.6Z" style="fill: #b06d0d;"/>
            <path d="M235.4,288.8c-.8-2.8-1.9-6.8-2.5-9.3l-.8-.8,3.5,11.2c0,0,.1-.1.2-.2-.2-.3-.3-.5-.4-.9Z" style="fill: #b06d0d;"/>
            <path d="M236.8,289.5c.2.1,5.1,1.2,9.2-2.4-2.9-1-8.8-3.2-13.1-7.6.6,2.4,1.7,6.5,2.5,9.3.1.3.2.6.4.9.3-.2.6-.3,1-.2Z" style="fill: #b06d0d;"/>
            <path d="M243.2,274.8c-.1,0-.3,0-.4,0-5.2-.6-7.9,1.6-9.1,2.6,4.6,4.9,11.9,7.4,14,7.9-.5-2.5-1.9-8-4.5-10.6Z" style="fill: #b06d0d;"/>
            <path d="M248.8,287.1c0,0,0-.2.1-.3l-.5-1.3c0,0-.1,0-.2,0,0,0-.2,0-.5-.1.1.7.2,1.2.2,1.2,0,0-.6.5-1.5,1.1-.9.6-2.2,1.4-3.6,2-2.7,1.3-5.8,2-7.1,0,0,0-.2.1-.2.2l.5,1.6c.2,0,3.5,1,7.1-.4,1.9-.7,3.9-1.8,5.6-4Z"/>
            <path d="M232.3,277.4s.3-.4.9-.9c.6-.5,1.4-1.1,2.2-1.8,1.8-1.2,4.1-2.2,6.3-1.2.5.3,1,.6,1.5,1.1.3,0,.6-.3.7-.6l-.5-1.3c-.1,0-.2,0-.3,0-3.9-.4-6.7.4-8.5,1.6-1.9,1.1-2.9,2.3-3,2.5l.6,1.9.8.8c-.3-1.3-.5-2.1-.5-2.1Z"/>
            <path d="M233.7,277.5c1.2-1.1,3.9-3.3,9.1-2.6.1,0,.3,0,.4,0-.5-.5-1-.8-1.5-1.1-2.2-1-4.5,0-6.3,1.2-.9.6-1.7,1.3-2.2,1.8-.6.5-.9.9-.9.9,0,0,.2.8.5,2.1,4.3,4.3,10.2,6.6,13.1,7.6-4,3.7-8.9,2.5-9.2,2.4-.4,0-.7,0-1,.2,1.3,1.9,4.4,1.3,7.1,0,1.4-.6,2.6-1.4,3.6-2,.9-.6,1.5-1.1,1.5-1.1,0,0,0-.5-.2-1.2-2.1-.5-9.4-3-14-7.9Z"/>
          </g>
          <g>
            <path d="M254.9,269.7c2.8,2.4,4.6,7.9,5.2,10.3.3,0,.6.1.6.1,0,0,.1,0,.2,0l-5.3-11.1c-.1.3-.3.6-.6.7Z" style="fill: #b06d0d;"/>
            <path d="M248.1,284.4c-1-2.7-2.4-6.7-3.2-9.1l-.8-.8,4.3,10.9c0,0,.1-.1.2-.2-.2-.2-.3-.5-.5-.9Z" style="fill: #b06d0d;"/>
            <path d="M249.5,285c.1,0,1.4.2,3.2,0,1.8-.2,4-1.1,5.8-3.1-2.9-.6-9-2.6-13.6-6.5.8,2.4,2.2,6.3,3.2,9.1.1.3.3.6.5.9.3-.2.6-.4,1-.3Z" style="fill: #b06d0d;"/>
            <path d="M254.9,269.7c-.1,0-.3,0-.4,0-5.2-.1-7.8,2.1-8.9,3.3,4.9,4.6,12.4,6.5,14.5,6.9-.6-2.4-2.5-7.9-5.2-10.3Z" style="fill: #b06d0d;"/>
            <path d="M261.4,281.7c0,0,0-.2,0-.3l-.6-1.2c0,0-.1,0-.2,0,0,0-.2,0-.6-.1.2.7.3,1.2.3,1.2,0,0-2.2,2-4.8,3.5-2.6,1.4-5.7,2.4-7.1.6,0,0-.2.1-.2.2l.6,1.6c.2,0,3.5.6,7.1-.9,1.8-.8,3.7-2.2,5.3-4.5Z"/>
            <path d="M244.2,273.2s1.2-1.5,2.9-2.8c1.8-1.2,3.9-2.5,6.2-1.7.6.2,1.1.5,1.6,1,.3-.1.5-.4.6-.7l-.6-1.3c-.1,0-.2,0-.3,0-7.8-.2-10.9,4.4-11.2,5l.7,1.9.8.8c-.4-1.2-.7-2.1-.7-2.1Z"/>
            <path d="M245.6,273.1c1.1-1.2,3.7-3.4,8.9-3.3.1,0,.3,0,.4,0-.5-.4-1-.8-1.6-1-2.3-.8-4.4.4-6.2,1.7-1.7,1.3-2.9,2.8-2.9,2.8,0,0,.3.8.7,2.1,4.5,3.9,10.7,5.9,13.6,6.5-1.8,2-4,2.8-5.8,3.1-1.8.3-3,0-3.2,0-.4,0-.7,0-1,.3,1.4,1.8,4.4.9,7.1-.6,2.6-1.5,4.8-3.5,4.8-3.5,0,0-.1-.4-.3-1.2-2.1-.4-9.6-2.3-14.5-6.9Z"/>
          </g>
          <g>
            <path d="M266.1,263.9c2.9,2.2,5.2,7.5,6,9.8.3,0,.6,0,.6,0,0,0,.1,0,.2,0l-6.2-10.7c0,.3-.3.6-.6.7Z" style="fill: #b06d0d;"/>
            <path d="M260.5,279c-1.2-2.7-2.9-6.5-3.9-8.8l-.9-.7,5.1,10.5c0,0,.1-.2.2-.2-.2-.2-.4-.5-.5-.8Z" style="fill: #b06d0d;"/>
            <path d="M262,279.5c.2,0,5.3.4,8.7-3.8-3-.5-9.2-1.9-14.1-5.5,1,2.3,2.6,6.1,3.9,8.8.2.3.3.6.5.8.3-.2.6-.4,1-.3Z" style="fill: #b06d0d;"/>
            <path d="M266.1,263.9c-.1,0-.2,0-.4.1-5.2.3-7.6,2.7-8.6,4,5.2,4.1,12.9,5.6,15,5.7-.8-2.3-3.1-7.7-6-9.8Z" style="fill: #b06d0d;"/>
            <path d="M273.5,275.3c0,0,0-.2,0-.3l-.7-1.2c0,0-.1,0-.2,0,0,0-.2,0-.6,0,.2.7.4,1.1.4,1.1,0,0-2,2.2-4.5,3.8-2.5,1.7-5.4,2.9-7,1.2,0,0-.1.1-.2.2l.7,1.5c.2,0,3.5.4,7-1.5,1.8-.9,3.6-2.4,4.9-4.8Z"/>
            <path d="M255.8,268.2s.3-.4.8-1c.5-.6,1.1-1.4,1.9-2.1,1.6-1.5,3.8-2.7,6-2.1.6.2,1.1.4,1.6.8.3-.1.5-.4.6-.7l-.7-1.2c-.1,0-.2,0-.3,0-7.8.3-10.5,5.3-10.8,5.8l.9,1.8.9.7c-.5-1.2-.9-2-.9-2Z"/>
            <path d="M257.2,268c.9-1.3,3.4-3.8,8.6-4,.1,0,.3,0,.4-.1-.5-.4-1.1-.7-1.6-.8-2.3-.6-4.4.6-6,2.1-.8.7-1.5,1.5-1.9,2.1-.5.6-.8,1-.8,1,0,0,.3.8.9,2,4.8,3.6,11.1,5,14.1,5.5-3.4,4.2-8.5,3.8-8.7,3.8-.4,0-.7,0-1,.3,1.6,1.8,4.5.5,7-1.2,2.5-1.6,4.5-3.8,4.5-3.8,0,0-.1-.4-.4-1.1-2.1-.1-9.8-1.6-15-5.7Z"/>
          </g>
          <g>
            <path d="M276.9,257.2c3.1,2,5.8,7.1,6.8,9.3.3,0,.6,0,.6,0,0,0,.1,0,.2,0l-7-10.2c0,.3-.2.6-.5.7Z" style="fill: #b06d0d;"/>
            <path d="M272.4,272.6c-1.4-2.6-3.4-6.3-4.5-8.5l-.9-.6,5.9,10.1c0,0,.1-.2.2-.2-.2-.2-.4-.5-.6-.8Z" style="fill: #b06d0d;"/>
            <path d="M273.9,273c.2,0,5.3.1,8.4-4.4-1.5-.1-3.8-.4-6.4-1.1-2.6-.7-5.5-1.8-8-3.4,1.2,2.2,3.1,5.9,4.5,8.5.2.3.4.6.6.8.2-.3.6-.4.9-.4Z" style="fill: #b06d0d;"/>
            <path d="M276.9,257.2c-.1,0-.2.1-.4.1-5.2.6-7.4,3.3-8.3,4.6,5.6,3.9,13.2,4.5,15.4,4.6-1-2.3-3.7-7.4-6.8-9.3Z" style="fill: #b06d0d;"/>
            <path d="M285.1,268c0,0,0-.2,0-.3l-.8-1.1c0,0-.1,0-.2,0,0,0-.2,0-.6,0,.3.7.5,1.1.5,1.1,0,0-1.9,2.3-4.2,4.2-2.3,1.9-5.3,3.2-6.9,1.7,0,0-.1.2-.2.2l.9,1.5c.2,0,3.6.2,6.9-2,1.7-1.1,3.4-2.8,4.6-5.2Z"/>
            <path d="M266.9,262.2s1-1.7,2.5-3.2c1.5-1.6,3.5-3.1,5.8-2.6.6.1,1.2.4,1.7.7.3-.2.5-.4.5-.7l-.8-1.2c-.1,0-.2,0-.4,0-4,.4-6.4,2-8,3.4-1.6,1.4-2.3,2.9-2.4,3.1l1,1.8.9.6c-.6-1.2-1-1.9-1-1.9Z"/>
            <path d="M268.2,261.9c.9-1.3,3.1-4,8.3-4.6.1,0,.3,0,.4-.1-.6-.4-1.1-.6-1.7-.7-2.4-.5-4.4,1-5.8,2.6-1.5,1.5-2.5,3.2-2.5,3.2,0,0,.4.8,1,1.9,2.5,1.6,5.4,2.7,8,3.4,2.6.6,4.9.9,6.4,1.1-3,4.6-8.2,4.5-8.4,4.4-.4,0-.7.2-.9.4,1.6,1.6,4.6.3,6.9-1.7,2.3-1.9,4.2-4.2,4.2-4.2,0,0-.2-.4-.5-1.1-2.2-.1-9.8-.7-15.4-4.6Z"/>
          </g>
        </g>
        <g>
          <g>
            <path d="M165.9,290.6c-.5,3.6-3.9,8.2-5.6,10.1.1.3.2.5.2.5,0,0,0,.1,0,.2l6.2-10.7c-.3,0-.6,0-.9-.1Z" style="fill: #b06d0d;"/>
            <path d="M149.9,292.6c1.9-2.2,4.6-5.4,6.3-7.3l.2-1.1-7.3,9.1c.1,0,.2,0,.3,0,.1-.3.3-.6.5-.8Z" style="fill: #b06d0d;"/>
            <path d="M150.2,294.2c0,.1.5,1.3,1.7,2.7,1.1,1.5,3.2,2.8,5.9,3.4-.5-1.4-1.3-3.7-1.7-6.3-.4-2.7-.4-5.7.1-8.6-1.7,1.9-4.4,5-6.3,7.3-.2.3-.4.6-.5.8.3.1.6.4.8.7Z" style="fill: #b06d0d;"/>
            <path d="M165.9,290.6c-.1,0-.2-.2-.3-.3-1.3-2.2-2.7-3.5-4-4.3-1.2-.8-2.4-1.2-3.2-1.3-1.6,6.5.9,13.9,1.8,15.9,1.7-1.9,5.1-6.5,5.6-10.1Z" style="fill: #b06d0d;"/>
            <path d="M159.6,302.6c.1,0,.2,0,.3,0l.7-1.2c0,0,0-.1,0-.2,0,0,0-.2-.2-.5-.5.6-.8.9-.8.9,0,0-.8-.1-1.8-.5-1.1-.4-2.5-1-3.9-1.7-2.7-1.5-5.2-3.8-4.4-5.9,0,0-.2,0-.3,0l-1.1,1.3c0,.2,1.3,3.4,4.7,5.8,1.8,1.1,4,2.2,6.8,2.1Z"/>
            <path d="M157.6,283.7s1.9.2,3.8.9c1.9.8,4,1.8,4.4,4.2.1.6.1,1.2,0,1.8.3.2.6.2.9.1l.7-1.2c0-.1,0-.2-.1-.3-1-1.6-2-2.9-3-3.7-1-.9-2-1.5-2.9-1.9-1.8-.8-3.4-.9-3.7-.9l-1.3,1.6-.2,1.1c.9-1,1.4-1.6,1.4-1.6Z"/>
            <path d="M158.4,284.8c.8.1,1.9.4,3.2,1.3,1.3.8,2.7,2.1,4,4.3,0,.1.2.2.3.3,0-.6,0-1.2,0-1.8-.4-2.3-2.5-3.4-4.4-4.2-1.9-.7-3.8-.9-3.8-.9,0,0-.6.7-1.4,1.6-.6,2.9-.5,5.9-.1,8.6.4,2.6,1.2,4.9,1.7,6.3-2.7-.5-4.7-1.9-5.9-3.4-1.2-1.4-1.7-2.6-1.7-2.7-.1-.3-.4-.6-.8-.7-.9,2.1,1.6,4.4,4.4,5.9,1.4.7,2.8,1.3,3.9,1.7,1.1.4,1.8.5,1.8.5,0,0,.3-.3.8-.9-.9-2-3.5-9.4-1.8-15.9Z"/>
          </g>
          <g>
            <path d="M176.8,296.1c0,3.6-2.8,8.7-4.2,10.7.2.3.3.5.3.5,0,0,0,.1,0,.2l4.7-11.4c-.3.1-.6.1-.9,0Z" style="fill: #b06d0d;"/>
            <path d="M161.3,300.4c1.5-2.5,3.8-6,5.1-8.1v-1.1c0,0-5.8,10.1-5.8,10.1.1,0,.2,0,.3,0,0-.3.2-.6.4-.9Z" style="fill: #b06d0d;"/>
            <path d="M161.8,301.9c0,.1.7,1.3,2.1,2.5,1.4,1.1,3.5,2.4,6.2,2.5-1.5-2.7-4-8.6-3.7-14.6-1.4,2.1-3.6,5.6-5.1,8.1-.2.3-.3.6-.4.9.4,0,.7.3.9.6Z" style="fill: #b06d0d;"/>
            <path d="M176.8,296.1c-.1,0-.2-.1-.3-.2-3.2-3.9-6.4-4.4-8-4.5-.6,6.7,2.9,13.6,4.1,15.4,1.4-2.1,4.2-7.1,4.2-10.7Z" style="fill: #b06d0d;"/>
            <path d="M172.2,308.9c0,0,.2,0,.3-.1l.5-1.3c0,0,0-.1,0-.2,0,0-.1-.2-.3-.5-.4.6-.7,1-.7,1,0,0-3-.3-5.9-1.4-2.9-1-5.6-2.9-5.1-5.2-.1,0-.2,0-.3,0l-.9,1.5c.1.1,1.7,3.3,5.4,5,1.9.9,4.2,1.5,7,1.2Z"/>
            <path d="M167.6,290.4s1.9,0,3.9.4c2.1.4,4.2,1.4,5,3.5.2.5.3,1.1.3,1.8.3.1.6.1.9,0l.5-1.3c0-.1,0-.2-.2-.3-2.5-2.9-4.8-4.3-6.8-4.7-1.9-.6-3.5-.4-3.7-.4l-1,1.8v1.1c.6-1.1,1.1-1.8,1.1-1.8Z"/>
            <path d="M168.5,291.4c1.5,0,4.8.5,8,4.5,0,.1.2.2.3.2,0-.7,0-1.3-.3-1.8-.9-2.1-3-3.1-5-3.5-2-.4-3.9-.4-3.9-.4,0,0-.5.7-1.2,1.8-.4,6,2.2,11.9,3.7,14.6-2.7-.1-4.8-1.3-6.2-2.5-1.4-1.2-2-2.4-2.1-2.5-.2-.3-.5-.5-.9-.6-.5,2.2,2.2,4.2,5.1,5.2,2.9,1.1,5.9,1.4,5.9,1.4,0,0,.3-.4.7-1-1.2-1.8-4.7-8.8-4.1-15.4Z"/>
          </g>
          <g>
            <path d="M188.4,300.2c.4,3.6-1.8,8.9-2.9,11.1.2.3.3.5.3.5,0,0,0,.1,0,.2l3.4-11.9c-.3.2-.6.2-.9,0Z" style="fill: #b06d0d;"/>
            <path d="M173.6,306.4c1.2-2.7,2.9-6.5,4-8.7v-1.1c0,0-4.5,10.8-4.5,10.8.1,0,.2,0,.3,0,0-.3.1-.6.3-.9Z" style="fill: #b06d0d;"/>
            <path d="M174.2,307.8c0,.2,3.3,4.3,8.8,3.8-.9-1.2-2.1-3.2-3.2-5.7-1.1-2.5-2-5.3-2.3-8.3-1.1,2.3-2.8,6.1-4,8.7-.1.3-.2.6-.3.9.4,0,.7.2.9.5Z" style="fill: #b06d0d;"/>
            <path d="M188.4,300.2c-.1,0-.2-.1-.3-.2-3.7-3.5-7-3.7-8.6-3.5.2,3.3,1.3,6.6,2.6,9.3,1.3,2.6,2.7,4.7,3.4,5.5,1.1-2.2,3.3-7.5,2.9-11.1Z" style="fill: #b06d0d;"/>
            <path d="M185.3,313.5c0,0,.2,0,.3-.1l.4-1.3c0,0,0-.1,0-.2,0,0-.1-.2-.3-.5-.3.7-.6,1.1-.6,1.1,0,0-.7,0-1.9,0-1.1,0-2.6-.2-4.1-.6-3-.7-5.9-2.1-5.7-4.4-.1,0-.2,0-.3,0l-.7,1.6c.1.2,2.1,2.9,5.9,4.3,1.9.7,4.3.9,7,.3Z"/>
            <path d="M178.5,295.7s1.9-.2,4-.1c2.1.2,4.4.8,5.5,2.9.3.5.4,1.1.5,1.8.3.1.6,0,.9,0l.4-1.4c0-.1-.1-.2-.2-.3-2.8-2.7-5.4-3.6-7.4-4-2.1-.3-3.5,0-3.8.1l-.8,1.9v1.1c.6-1.2,1-2,1-2Z"/>
            <path d="M179.5,296.6c1.6-.2,4.9,0,8.6,3.5,0,0,.2.2.3.2,0-.7-.2-1.3-.5-1.8-1.1-2.1-3.4-2.7-5.5-2.9-2.1-.1-4,.1-4,.1,0,0-.4.8-.9,2,.2,3,1.2,5.9,2.3,8.3,1.1,2.5,2.3,4.5,3.2,5.7-5.5.5-8.7-3.6-8.8-3.8-.2-.3-.6-.5-.9-.5-.3,2.3,2.7,3.8,5.7,4.4,1.5.4,3,.5,4.1.6,1.1,0,1.9,0,1.9,0,0,0,.2-.4.6-1.1-.6-.9-2.1-2.9-3.4-5.5-1.3-2.7-2.4-6-2.6-9.3Z"/>
          </g>
          <g>
            <path d="M200.6,303.2c.8,3.5-.9,9-1.8,11.4.2.2.4.4.4.4,0,0,0,.1.1.2l2.2-12.1c-.3.2-.6.3-.9.2Z" style="fill: #b06d0d;"/>
            <path d="M186.4,310.8c.8-2.8,2.2-6.7,3-9.1l-.2-1.1-3.2,11.3c0,0,.2,0,.3,0,0-.3,0-.6.1-1Z" style="fill: #b06d0d;"/>
            <path d="M187.2,312.2c0,0,1,1,2.6,1.9,1.6.9,3.8,1.5,6.5,1-2-2.2-5.7-7.5-6.9-13.3-.8,2.4-2.1,6.3-3,9.1-.1.3-.1.7-.1,1,.3,0,.7.1,1,.4Z" style="fill: #b06d0d;"/>
            <path d="M200.6,303.2c-.1,0-.2,0-.4-.2-4-3.2-7.4-2.9-9-2.6,1.1,6.6,6,12.6,7.5,14.1.9-2.3,2.6-7.8,1.8-11.4Z" style="fill: #b06d0d;"/>
            <path d="M198.7,316.6c0,0,.2-.1.2-.2l.2-1.4c0,0,0-.1-.1-.2,0,0-.2-.2-.4-.4-.3.7-.4,1.1-.4,1.1,0,0-2.9.3-5.9,0-3-.4-6.1-1.4-6.1-3.8-.1,0-.2,0-.3,0l-.5,1.6c.1.2,2.4,2.6,6.3,3.6,2,.4,4.4.5,6.9-.4Z"/>
            <path d="M190.1,299.6s1.9-.5,4-.6c2.1,0,4.5.3,5.8,2.3.3.5.5,1.1.7,1.7.3,0,.6,0,.9-.2l.3-1.4c0,0-.1-.2-.2-.3-3.1-2.4-5.8-3.1-7.9-3.2-2.1,0-3.6.5-3.8.5l-.6,2,.2,1.1c.4-1.2.7-2.1.7-2.1Z"/>
            <path d="M191.2,300.4c1.6-.3,4.9-.6,9,2.6.1,0,.2.1.4.2-.1-.6-.4-1.2-.7-1.7-1.3-2-3.7-2.3-5.8-2.3-2.1,0-4,.6-4,.6,0,0-.3.8-.7,2.1,1.2,5.8,4.9,11.1,6.9,13.3-2.7.5-4.9-.1-6.5-1-1.6-.8-2.5-1.8-2.6-1.9-.3-.3-.6-.4-1-.4,0,2.3,3.1,3.3,6.1,3.8,3,.3,5.9,0,5.9,0,0,0,.2-.4.4-1.1-1.5-1.6-6.4-7.6-7.5-14.1Z"/>
          </g>
          <g>
            <path d="M213,305c1.1,3.5-.2,9.1-.9,11.5.3.2.4.4.4.4,0,0,0,.1.1.2l1.3-12.3c-.2.2-.6.3-.9.3Z" style="fill: #b06d0d;"/>
            <path d="M199.6,313.9c.6-2.9,1.5-6.9,2.1-9.4l-.3-1.1-2.1,11.5c0,0,.2,0,.3,0,0-.3,0-.6,0-1Z" style="fill: #b06d0d;"/>
            <path d="M200.5,315.1c.1.2,4,3.5,9.2,2.1-2.1-2.1-6.3-7-8.1-12.7-.6,2.5-1.5,6.5-2.1,9.4,0,.4,0,.7,0,1,.3,0,.7,0,1,.3Z" style="fill: #b06d0d;"/>
            <path d="M213,305c-.1,0-.3,0-.4-.1-4.3-2.9-7.7-2.3-9.2-1.8,1.7,6.5,7.1,12,8.7,13.4.7-2.4,2-8,.9-11.5Z" style="fill: #b06d0d;"/>
            <path d="M212.2,318.5c0,0,.1-.1.2-.2v-1.4c.1,0,0-.1,0-.2,0,0-.2-.1-.4-.4-.2.7-.4,1.1-.4,1.1,0,0-.7.2-1.8.3-1.1.1-2.6.2-4.1.2-3,0-6.1-.9-6.3-3.2,0,0-.2,0-.3,0l-.3,1.7c.1.1,2.6,2.4,6.5,2.9,2,.2,4.3.2,6.8-1Z"/>
            <path d="M202.2,302.4s1.8-.7,3.9-.9c2.1-.2,4.6,0,6.1,1.8.4.5.6,1,.8,1.6.3,0,.6,0,.9-.3v-1.4c0,0,0-.2-.1-.2-6.5-4.3-11.5-1.9-12-1.6l-.4,2,.3,1.1c.3-1.3.5-2.1.5-2.1Z"/>
            <path d="M203.4,303c1.5-.4,4.9-1,9.2,1.8.1,0,.2.1.4.1-.2-.6-.5-1.2-.8-1.6-1.5-1.9-3.9-2.1-6.1-1.8-2.1.2-3.9.9-3.9.9,0,0-.2.9-.5,2.1,1.8,5.7,5.9,10.6,8.1,12.7-5.2,1.5-9.1-1.9-9.2-2.1-.3-.2-.6-.3-1-.3.2,2.3,3.3,3.1,6.3,3.2,1.5,0,3,0,4.1-.2,1.1-.1,1.8-.3,1.8-.3,0,0,.1-.4.4-1.1-1.6-1.4-6.9-7-8.7-13.4Z"/>
          </g>
          <g>
            <path d="M225.6,305.9c1.3,3.4.4,9.1-.2,11.5.3.2.4.4.4.4,0,0,0,.1.1.2l.5-12.3c-.2.2-.6.3-.9.3Z" style="fill: #b06d0d;"/>
            <path d="M212.9,315.8c.4-2.9,1-7,1.3-9.5l-.4-1.1-1.2,11.6c0,0,.2,0,.3,0,0-.3,0-.6,0-1Z" style="fill: #b06d0d;"/>
            <path d="M213.9,316.9c.2.2,4.2,3.2,9.3,1.4-2.2-2-6.7-6.5-8.9-12.1-.4,2.5-1,6.6-1.3,9.5,0,.4,0,.7,0,1,.3,0,.7,0,1,.2Z" style="fill: #b06d0d;"/>
            <path d="M225.6,305.9c-.1,0-.3,0-.4-.1-4.5-2.6-7.9-1.7-9.4-1.2,2.3,6.3,8,11.5,9.6,12.8.5-2.4,1.5-8.1.2-11.5Z" style="fill: #b06d0d;"/>
            <path d="M225.7,319.5c0,0,.1-.1.2-.2v-1.4c0,0,0-.1,0-.2,0,0-.2-.1-.4-.4-.2.7-.3,1.2-.3,1.2,0,0-2.8.8-5.8.9-3,.1-6.1-.4-6.5-2.7,0,0-.2,0-.3,0l-.2,1.7c.2.1,2.8,2.2,6.7,2.4,2,.2,4.3-.2,6.6-1.5Z"/>
            <path d="M214.5,304.1s1.8-.8,3.9-1.2c2.1-.4,4.6-.3,6.2,1.4.4.4.7,1,.9,1.6.3,0,.6,0,.9-.3v-1.4c0,0-.1-.2-.2-.2-6.8-3.9-11.7-1.1-12.2-.8l-.2,2,.4,1.1c.2-1.3.3-2.2.3-2.2Z"/>
            <path d="M215.8,304.6c1.5-.6,4.9-1.4,9.4,1.2.1,0,.3.1.4.1-.2-.6-.5-1.2-.9-1.6-1.6-1.7-4.1-1.8-6.2-1.4-2.1.4-3.9,1.2-3.9,1.2,0,0-.1.9-.3,2.2,2.2,5.6,6.7,10.1,8.9,12.1-5.1,1.8-9.1-1.2-9.3-1.4-.3-.2-.7-.3-1-.2.4,2.3,3.5,2.9,6.5,2.7,3,0,5.8-.9,5.8-.9,0,0,.1-.4.3-1.2-1.6-1.3-7.3-6.5-9.6-12.8Z"/>
          </g>
          <g>
            <path d="M238.4,306.1c1.5,3.3.8,9.1.4,11.5.3.2.5.3.5.3,0,0,0,.1.1.1l-.2-12.3c-.2.2-.5.4-.9.3Z" style="fill: #b06d0d;"/>
            <path d="M226.2,316.7c.2-2.9.5-7.1.7-9.6l-.5-1-.5,11.7c0,0,.2,0,.3-.1,0-.3-.1-.6,0-1Z" style="fill: #b06d0d;"/>
            <path d="M227.3,317.8c.2.1,4.4,2.9,9.3.8-2.3-1.8-7-6.1-9.6-11.5-.2,2.5-.6,6.7-.7,9.6,0,.4,0,.7,0,1,.3,0,.7,0,1,.1Z" style="fill: #b06d0d;"/>
            <path d="M238.4,306.1c-.1,0-.3,0-.4-.1-4.7-2.3-8-1.3-9.5-.6,2.7,6.1,8.6,11,10.3,12.2.4-2.4,1.1-8.2-.4-11.5Z" style="fill: #b06d0d;"/>
            <path d="M239.2,319.7c0,0,.1-.1.2-.2v-1.4c0,0,0-.1-.1-.1,0,0-.2-.1-.5-.3-.1.7-.2,1.2-.2,1.2,0,0-2.7.9-5.7,1.2-2.9.3-6,0-6.6-2.3,0,0-.2,0-.3.1v1.7c0,.1,2.8,2,6.7,2,2,0,4.2-.5,6.5-1.8Z"/>
            <path d="M227.1,304.9s1.7-.9,3.8-1.4c2.1-.5,4.6-.6,6.4,1.1.4.4.8.9,1,1.5.3,0,.6-.1.9-.3v-1.4c0,0-.2-.2-.3-.2-7.1-3.5-11.9-.4-12.4,0v2c0,0,.4,1,.4,1,.1-1.3.2-2.2.2-2.2Z"/>
            <path d="M228.5,305.4c1.5-.7,4.8-1.7,9.5.6.1,0,.3,0,.4.1-.3-.6-.6-1.1-1-1.5-1.7-1.7-4.2-1.6-6.4-1.1-2.1.5-3.8,1.4-3.8,1.4,0,0,0,.9-.2,2.2,2.6,5.4,7.3,9.7,9.6,11.5-4.9,2.1-9.1-.7-9.3-.8-.3-.2-.7-.2-1-.1.5,2.3,3.7,2.6,6.6,2.3,2.9-.3,5.7-1.2,5.7-1.2,0,0,0-.5.2-1.2-1.7-1.2-7.6-6.1-10.3-12.2Z"/>
          </g>
          <g>
            <path d="M250.9,305.6c1.7,3.2,1.6,9,1.4,11.4.3.2.5.3.5.3,0,0,0,0,.1.1l-1.2-12.3c-.2.3-.5.4-.8.4Z" style="fill: #b06d0d;"/>
            <path d="M239.5,316.9c0-2.9.1-7.1.2-9.6l-.5-1v11.7c.2,0,.3,0,.4-.1,0-.3-.1-.6-.1-1Z" style="fill: #b06d0d;"/>
            <path d="M240.6,317.9c.2.1,4.5,2.7,9.4.3-2.5-1.6-7.5-5.7-10.4-10.9,0,2.5-.2,6.7-.2,9.6,0,.4,0,.7.1,1,.3-.1.7,0,1,0Z" style="fill: #b06d0d;"/>
            <path d="M250.9,305.6c-.1,0-.3,0-.4,0-4.7-2-7.9-.8-9.4,0,3,6,9.2,10.5,11.1,11.5.2-2.5.3-8.2-1.4-11.4Z" style="fill: #b06d0d;"/>
            <path d="M252.9,319c0,0,.1-.1.2-.2v-1.4c-.2,0-.2-.1-.3-.1,0,0-.2-.1-.5-.3,0,.7-.1,1.2-.1,1.2,0,0-2.8,1.1-5.7,1.6-3,.5-6.1.3-6.8-1.9,0,0-.2,0-.3.1v1.7c.2.1,3,1.9,6.9,1.7,2,0,4.3-.7,6.6-2.3Z"/>
            <path d="M239.8,305.1s1.7-1,3.7-1.6c2.1-.6,4.5-.9,6.3.7.4.4.8.9,1.1,1.5.3,0,.6-.2.8-.4v-1.4c-.2,0-.3-.1-.4-.2-7-3-11.6.3-12.1.7v2s.5,1,.5,1c0-1.3,0-2.2,0-2.2Z"/>
            <path d="M241.2,305.5c1.4-.7,4.7-1.9,9.4,0,.1,0,.3,0,.4,0-.3-.6-.7-1.1-1.1-1.5-1.8-1.5-4.2-1.3-6.3-.7-2.1.6-3.7,1.6-3.7,1.6,0,0,0,.9,0,2.2,2.9,5.3,7.8,9.3,10.4,10.9-4.9,2.4-9.3-.2-9.4-.3-.3-.2-.7-.2-1,0,.7,2.2,3.8,2.4,6.8,1.9,3-.5,5.7-1.6,5.7-1.6,0,0,0-.5.1-1.2-1.9-1-8.2-5.5-11.1-11.5Z"/>
          </g>
          <g>
            <path d="M262.9,303.7c2.1,2.9,2.9,8.6,3.1,11.1.3.1.5.2.5.2,0,0,.1,0,.2.1l-3.1-11.9c-.1.3-.4.5-.7.5Z" style="fill: #b06d0d;"/>
            <path d="M252.9,316.2c-.2-2.9-.5-7.1-.6-9.6l-.6-1,1.2,11.7c0,0,.2-.1.3-.1-.1-.3-.2-.6-.2-1Z" style="fill: #b06d0d;"/>
            <path d="M254.2,317.1c.1,0,1.3.6,3.1.8,1.8.2,4.2,0,6.6-1.6-2.8-1.2-8.3-4.7-11.6-9.7.1,2.5.4,6.7.6,9.6,0,.4.1.7.2,1,.3-.1.7-.2,1,0Z" style="fill: #b06d0d;"/>
            <path d="M262.9,303.7c-.1,0-.3,0-.4,0-4.7-1.3-7.7.1-9,1,3.4,5.8,10.3,9.4,12.4,10.1-.1-2.5-.9-8.2-3.1-11.1Z" style="fill: #b06d0d;"/>
            <path d="M266.9,316.7c0,0,.1-.2.2-.2l-.3-1.3c0,0-.1,0-.2-.1,0,0-.2,0-.5-.2,0,.7,0,1.2,0,1.2,0,0-.7.4-1.7.9-1,.5-2.5,1.1-4,1.5-3,.8-6.3.9-7.1-1.2,0,0-.2,0-.3.1l.2,1.7c.2,0,3.2,1.6,7.3.9,2.1-.3,4.4-1.3,6.5-3.2Z"/>
            <path d="M252.2,304.4s1.5-1.2,3.4-2c1.9-.8,4.1-1.4,6,0,.5.3.9.8,1.3,1.3.3,0,.6-.2.7-.5l-.4-1.4c0,0-.2-.1-.3-.2-3.5-.9-6.2-.6-8.1,0-1.9.7-3.1,1.7-3.3,1.9l.2,2,.6,1c0-1.3-.1-2.2-.1-2.2Z"/>
            <path d="M253.6,304.7c1.3-.9,4.2-2.3,9-1,.1,0,.3,0,.4,0-.4-.5-.8-1-1.3-1.3-1.9-1.3-4.1-.8-6,0-1.9.8-3.4,2-3.4,2,0,0,0,.9.1,2.2,3.2,5,8.7,8.4,11.6,9.7-2.3,1.6-4.8,1.8-6.6,1.6-1.8-.2-3-.7-3.1-.8-.3-.2-.7-.1-1,0,.9,2.2,4.1,2,7.1,1.2,1.5-.4,2.9-1,4-1.5,1-.5,1.7-.9,1.7-.9,0,0,0-.5,0-1.2-2.1-.7-9-4.3-12.4-10.1Z"/>
          </g>
          <g>
            <path d="M273.8,299.7c2.7,2.4,4.9,7.6,5.6,10.1.4,0,.6,0,.6,0,0,0,.1,0,.2,0l-5.9-10.8c0,.3-.3.5-.5.6Z" style="fill: #b06d0d;"/>
            <path d="M266.5,313.8c-.6-2.9-1.5-6.9-2.1-9.4l-.7-.9,2.9,11.3c0,0,.2-.1.2-.2-.2-.3-.3-.6-.4-.9Z" style="fill: #b06d0d;"/>
            <path d="M268,314.6c.1,0,1.4.4,3.3.2,1.9-.2,4.4-1,6.4-3-3.2-.5-9.4-2.8-13.2-7.3.5,2.5,1.4,6.5,2.1,9.4,0,.4.2.7.4.9.3-.2.7-.3,1.1-.2Z" style="fill: #b06d0d;"/>
            <path d="M273.8,299.7c-.1,0-.2,0-.4,0-4.7-.3-7.1,1.5-8.2,2.6,2.1,2.5,5,4.5,7.7,5.6,2.7,1.2,5.3,1.6,6.4,1.7-.7-2.4-2.9-7.7-5.6-10.1Z" style="fill: #b06d0d;"/>
            <path d="M280.8,311.4c0,0,0-.2.1-.3l-.7-1.2c0,0-.1,0-.2,0,0,0-.2,0-.6,0,.2.7.3,1.2.3,1.2,0,0-.6.5-1.5,1.3-1,.7-2.3,1.6-3.8,2.4-3,1.5-6.3,2.1-7.5.1,0,0-.2.1-.2.2l.4,1.7c.2,0,3.6,1.1,7.7-.5,2.1-.8,4.3-2.3,6-4.7Z"/>
            <path d="M264,302.3s1.3-1.4,2.9-2.4c1.6-1.1,3.5-2,5.5-1.2.5.2,1,.5,1.5,1,.3-.1.5-.3.5-.6l-.7-1.3c-.1,0-.2,0-.3,0-3.4-.2-5.7.5-7.4,1.5-1.7.9-2.6,2.2-2.7,2.3l.5,2,.7.9c-.3-1.3-.5-2.1-.5-2.1Z"/>
            <path d="M265.3,302.4c1.1-1.1,3.5-2.9,8.2-2.6.1,0,.2,0,.4,0-.5-.4-1-.8-1.5-1-2-.9-3.9,0-5.5,1.2-1.6,1.1-2.9,2.4-2.9,2.4,0,0,.2.9.5,2.1,3.9,4.5,10,6.8,13.2,7.3-2.1,2.1-4.5,2.8-6.4,3-1.9.1-3.2-.2-3.3-.2-.4,0-.8,0-1.1.2,1.2,2,4.6,1.3,7.5-.1,1.5-.7,2.8-1.7,3.8-2.4,1-.8,1.5-1.3,1.5-1.3,0,0-.1-.4-.3-1.2-1.1-.1-3.7-.6-6.4-1.7-2.8-1.2-5.6-3.1-7.7-5.6Z"/>
          </g>
          <g>
            <path d="M282.7,293.1c3.3,1.4,7.2,5.5,8.7,7.6.4,0,.6-.1.6-.1,0,0,.1,0,.2,0l-9.2-8.2c0,.3,0,.6-.3.7Z" style="fill: #b06d0d;"/>
            <path d="M279.8,308.7c-1.3-2.6-3.2-6.3-4.3-8.6l-.9-.7,5.6,10.3c0,0,.1-.2.2-.2-.2-.2-.4-.5-.6-.8Z" style="fill: #b06d0d;"/>
            <path d="M281.4,309c.1,0,1.5,0,3.4-.7.9-.4,1.9-.9,2.9-1.8.9-.9,1.9-1.9,2.5-3.3-1.6.2-4.1.5-6.8,0-2.7-.4-5.6-1.5-7.9-3.1,1.1,2.2,3,6,4.3,8.6.2.3.4.6.6.8.3-.3.6-.5,1-.5Z" style="fill: #b06d0d;"/>
            <path d="M282.7,293.1c0,0-.2.1-.3.2-1.1.3-2,.7-2.8,1-.8.4-1.3.8-1.9,1.2-1,.9-1.6,1.8-2,2.4,2.6,2,5.9,3,8.9,3.3,3,.3,5.6-.2,6.7-.5-1.4-2.1-5.3-6.2-8.7-7.6Z" style="fill: #b06d0d;"/>
            <path d="M293.1,301.8c0-.1,0-.2,0-.3l-1-.9c0,0-.1,0-.2,0,0,0-.2,0-.6.1.4.6.7,1,.7,1,0,0-1.6,3-4.1,5.4-2.5,2.4-5.9,4-7.5,2.4,0,0-.2.2-.2.2l.8,1.5c.2,0,3.9,0,7.7-2.8.9-.7,1.8-1.7,2.6-2.8.8-1.1,1.4-2.5,1.8-3.9Z"/>
            <path d="M274.5,298.2s.2-.4.5-1c.3-.6.8-1.3,1.3-2,1.1-1.4,2.5-2.7,4.6-2.5.5,0,1.1.2,1.7.5.2-.2.3-.5.3-.7l-1.1-.9c-.1,0-.2,0-.3,0-3.2.9-5,2-6.1,3.4-1.2,1.2-1.7,2.6-1.8,2.8l1,1.8.9.7c-.6-1.2-1-2-1-2Z"/>
            <path d="M275.7,297.9c.4-.6,1-1.5,2-2.4.5-.4,1.1-.8,1.9-1.2.8-.3,1.7-.7,2.8-1,.1,0,.2,0,.3-.2-.6-.3-1.2-.4-1.7-.5-2.1-.2-3.5,1.1-4.6,2.5-.5.8-1,1.4-1.3,2-.3.6-.5,1-.5,1,0,0,.4.8,1,2,2.4,1.7,5.3,2.8,7.9,3.1,2.7.5,5.2.2,6.8,0-.7,1.4-1.6,2.4-2.5,3.3-1,.8-2,1.4-2.9,1.8-1.8.7-3.3.7-3.4.7-.4,0-.7.2-1,.5,1.7,1.6,5,0,7.5-2.4,2.5-2.4,4.1-5.4,4.1-5.4,0,0-.3-.4-.7-1-1.1.2-3.7.8-6.7.5-3-.3-6.3-1.3-8.9-3.3Z"/>
          </g>
        </g>
        <g>
          <g>
            <path d="M169.5,261c0,3.7-3.1,8.5-4.5,10.6.1.3.2.5.2.5,0,0,0,.1,0,.2l5.1-11.2c-.3.1-.7,0-1,0Z" style="fill: #b06d0d;"/>
            <path d="M154.6,266.8c.9-2.8,2.2-6.7,3.1-9.1l-.2-1.1-3.3,11.2c0,0,.2,0,.3,0,0-.3,0-.6.2-1Z" style="fill: #b06d0d;"/>
            <path d="M155.3,268.1c.2.2,2.7,3.7,7.5,3.6-1.2-2.6-3.6-8.1-5-14-.9,2.4-2.2,6.3-3.1,9.1-.1.3-.2.7-.2,1,.3,0,.6,0,.8.4Z" style="fill: #b06d0d;"/>
            <path d="M169.5,261c-.1,0-.2-.2-.3-.3-3.6-4.2-7.7-4.4-9.4-4.2,1.3,6.7,4.4,13.3,5.3,15.1,1.4-2.1,4.5-6.9,4.5-10.6Z" style="fill: #b06d0d;"/>
            <path d="M164.5,273.6c0,0,.2,0,.2-.1l.6-1.3c0,0,0-.1,0-.2,0,0,0-.2-.2-.5-.4.6-.7,1-.7,1,0,0-2.7-.3-5.1-.9-2.5-.7-4.9-1.6-4.8-3.9,0,0-.2,0-.3,0l-.5,1.6c.1.2,1.8,2.4,4.8,3.6,1.6.6,3.5.9,6,.6Z"/>
            <path d="M158.5,255.7s2.1-.4,4.6,0c2.4.3,5.1,1.3,6.1,3.6.2.6.3,1.2.4,1.9.3.2.7.2,1,0l.6-1.3c0-.1,0-.2-.2-.3-2.7-3.2-5.9-4.5-8.3-5-2.5-.4-4.2,0-4.5.1l-.6,1.9.2,1.1c.4-1.2.7-2.1.7-2.1Z"/>
            <path d="M159.8,256.5c1.7-.2,5.8,0,9.4,4.2,0,.1.2.2.3.3,0-.7-.1-1.3-.4-1.9-1-2.3-3.7-3.3-6.1-3.6-2.4-.3-4.6,0-4.6,0,0,0-.3.8-.7,2.1,1.4,5.9,3.9,11.4,5,14-4.8.1-7.3-3.4-7.5-3.6-.2-.3-.5-.4-.8-.4,0,2.3,2.3,3.3,4.8,3.9,2.5.6,5.1.9,5.1.9,0,0,.3-.4.7-1-.9-1.8-4-8.4-5.3-15.1Z"/>
          </g>
          <g>
            <path d="M181.3,266.7c-.2,3.6-3.3,8.5-4.8,10.5.1.3.2.5.2.5,0,0,0,.1,0,.2l5.4-11.1c-.3.1-.6,0-.9,0Z" style="fill: #b06d0d;"/>
            <path d="M166,271.2c1.3-2.6,3.2-6.3,4.3-8.6v-1.1s-4.9,10.6-4.9,10.6c0,0,.2,0,.3,0,0-.3.1-.6.3-.9Z" style="fill: #b06d0d;"/>
            <path d="M166.5,272.6c.1.2,2.5,4.2,7.6,4.5-1.2-2.7-3.3-8.4-3.8-14.5-1.2,2.2-3.1,5.9-4.3,8.6-.2.3-.3.6-.3.9.3,0,.6.2.8.5Z" style="fill: #b06d0d;"/>
            <path d="M181.3,266.7c-.1,0-.2-.2-.3-.3-3.1-4.2-6.9-4.7-8.5-4.7.2,6.7,3.1,13.6,4,15.5,1.5-2,4.6-6.8,4.8-10.5Z" style="fill: #b06d0d;"/>
            <path d="M175.9,279.2c0,0,.2,0,.3,0l.6-1.2c0,0,0-.1,0-.2,0,0,0-.2-.2-.5-.4.6-.7,1-.7,1,0,0-2.8-.4-5.4-1.4-2.6-1-5.1-2.4-4.7-4.6,0,0-.2,0-.3,0l-.7,1.6c.1.2,1.6,2.8,4.8,4.4,1.6.8,3.8,1.4,6.4,1.1Z"/>
            <path d="M171.3,260.7s2-.1,4.3.3c2.2.5,4.6,1.5,5.4,3.8.2.6.3,1.2.2,1.8.3.2.6.2.9,0l.6-1.3c0-.1,0-.2-.2-.3-4.7-6.4-11-5.6-11.5-5.5l-.8,1.8v1.1c.7-1.2,1.1-1.9,1.1-1.9Z"/>
            <path d="M172.5,261.7c1.6,0,5.4.6,8.5,4.7,0,.1.2.2.3.3,0-.7,0-1.3-.2-1.8-.8-2.3-3.2-3.3-5.4-3.8-2.2-.5-4.3-.3-4.3-.3,0,0-.4.8-1,1.9.4,6,2.6,11.8,3.8,14.5-5.2-.3-7.5-4.3-7.6-4.5-.2-.3-.5-.5-.8-.5-.4,2.3,2,3.7,4.7,4.6,2.6.9,5.4,1.4,5.4,1.4,0,0,.3-.4.7-1-.9-1.9-3.9-8.7-4-15.5Z"/>
          </g>
          <g>
            <path d="M192.6,271.8c0,3.6-2.7,8.7-4.1,10.8.2.3.3.5.3.5,0,0,0,.1,0,.2l4.6-11.4c-.3.1-.6.1-.9,0Z" style="fill: #b06d0d;"/>
            <path d="M177.5,276.8c1.3-2.6,3.3-6.3,4.5-8.5v-1.1s-5.1,10.5-5.1,10.5c0,0,.2,0,.3,0,0-.3.2-.6.3-.9Z" style="fill: #b06d0d;"/>
            <path d="M178,278.2c0,.2,2.8,4.4,8.1,4.4-1.4-2.7-4-8.4-4.1-14.4-1.2,2.2-3.2,5.9-4.5,8.5-.2.3-.3.6-.3.9.3,0,.7.2.8.5Z" style="fill: #b06d0d;"/>
            <path d="M192.6,271.8c-.1,0-.2-.1-.3-.2-3.2-4-6.7-4.3-8.3-4.3,0,6.7,3.4,13.5,4.5,15.3,1.3-2.1,4.1-7.2,4.1-10.8Z" style="fill: #b06d0d;"/>
            <path d="M188.1,284.6c0,0,.2,0,.3-.1l.5-1.3c0,0,0-.1,0-.2,0,0-.1-.2-.3-.5-.4.6-.7,1-.7,1,0,0-.7,0-1.8-.2-1.1-.2-2.5-.5-3.9-.9-2.9-.9-5.5-2.5-5.1-4.7,0,0-.2,0-.3,0l-.7,1.5c.1.2,1.7,3,5.3,4.5,1.8.8,4.1,1.3,6.7.9Z"/>
            <path d="M183,266.4s1.9-.1,4,.2c2.1.3,4.4,1.2,5.2,3.4.2.5.3,1.1.3,1.8.3.1.6.1.9,0l.5-1.3c0-.1,0-.2-.2-.3-2.5-3-5-4.2-7.1-4.7-2.1-.5-3.7-.3-3.9-.2l-.9,1.8v1.1c.6-1.1,1.1-1.9,1.1-1.9Z"/>
            <path d="M184.1,267.3c1.6,0,5,.3,8.3,4.3,0,.1.2.2.3.2,0-.7-.1-1.3-.3-1.8-.9-2.2-3.1-3.1-5.2-3.4-2.1-.4-4-.2-4-.2,0,0-.4.8-1.1,1.9.1,6,2.7,11.7,4.1,14.4-5.4,0-8.1-4.2-8.1-4.4-.2-.3-.5-.5-.8-.5-.4,2.3,2.2,3.8,5.1,4.7,1.4.5,2.8.8,3.9.9,1.1.2,1.8.2,1.8.2,0,0,.3-.4.7-1-1.1-1.8-4.6-8.6-4.5-15.3Z"/>
          </g>
          <g>
            <path d="M204.3,276.1c.3,3.6-2.1,8.8-3.3,11.1.2.3.3.4.3.4,0,0,0,.1,0,.2l3.8-11.7c-.3.2-.6.2-.9,0Z" style="fill: #b06d0d;"/>
            <path d="M189.5,282.1c1.1-2.7,2.9-6.5,3.9-8.8v-1.1c0,0-4.5,10.9-4.5,10.9,0,0,.2,0,.3,0,0-.3.1-.6.3-.9Z" style="fill: #b06d0d;"/>
            <path d="M190.2,283.6c.1.2,3.1,4.2,8.5,3.8-.8-1.3-2-3.3-3-5.7-1-2.5-1.9-5.4-2.2-8.3-1,2.3-2.8,6.1-3.9,8.8-.1.3-.2.6-.3.9.3,0,.7.2.9.5Z" style="fill: #b06d0d;"/>
            <path d="M204.3,276.1c-.1,0-.2-.1-.3-.2-1.8-1.9-3.5-2.8-5-3.2-1.5-.5-2.7-.5-3.5-.4.4,6.7,4.4,13.1,5.6,14.9,1.2-2.2,3.6-7.4,3.3-11.1Z" style="fill: #b06d0d;"/>
            <path d="M200.8,289.2c0,0,.2,0,.3-.1l.4-1.3c0,0,0-.1,0-.2,0,0-.1-.2-.3-.4-.4.6-.6,1-.6,1,0,0-2.9,0-5.8-.7-2.9-.7-5.7-2.1-5.4-4.4,0,0-.2,0-.3,0l-.6,1.6c.1.1,2,2.8,5.7,4.2,1.9.6,4.2,1,6.8.4Z"/>
            <path d="M194.3,271.4s1.9-.3,4,0c2.1.2,4.5.8,5.5,3,.3.5.4,1.1.4,1.8.3.1.6,0,.9,0l.4-1.4c0-.1-.1-.2-.2-.3-5.4-5.5-10.7-4.2-11.3-4l-.8,1.9v1.1c.6-1.2,1-2,1-2Z"/>
            <path d="M195.4,272.3c.8,0,2,0,3.5.4,1.5.4,3.2,1.4,5,3.2,0,.1.2.2.3.2,0-.7-.2-1.3-.4-1.8-1-2.2-3.4-2.8-5.5-3-2.1-.2-4,0-4,0,0,0-.4.8-.9,2,.3,3,1.2,5.9,2.2,8.3,1,2.4,2.2,4.4,3,5.7-5.4.4-8.4-3.7-8.5-3.8-.2-.3-.5-.4-.9-.5-.2,2.3,2.5,3.7,5.4,4.4,2.9.7,5.8.7,5.8.7,0,0,.2-.4.6-1-1.2-1.8-5.3-8.2-5.6-14.9Z"/>
          </g>
          <g>
            <path d="M216.2,279.5c.6,3.6-1.4,9-2.4,11.3.2.3.4.4.4.4,0,0,0,.1,0,.2l2.9-12c-.3.2-.6.2-.9.1Z" style="fill: #b06d0d;"/>
            <path d="M202,286.7c.9-2.8,2.4-6.7,3.3-9l-.2-1.1-3.6,11.2c0,0,.2,0,.3,0,0-.3,0-.6.2-1Z" style="fill: #b06d0d;"/>
            <path d="M202.7,288c0,0,.9,1.1,2.4,1.9,1.5.9,3.7,1.6,6.3,1.2-1.8-2.3-5.2-7.7-6.2-13.6-.9,2.4-2.3,6.3-3.3,9-.1.3-.2.7-.2,1,.3,0,.7.1.9.4Z" style="fill: #b06d0d;"/>
            <path d="M216.2,279.5c-.1,0-.2-.1-.3-.2-3.8-3.4-7.2-3.2-8.8-3,.9,6.6,5.4,12.8,6.7,14.4,1-2.3,3-7.7,2.4-11.3Z" style="fill: #b06d0d;"/>
            <path d="M213.7,292.9c0,0,.2,0,.2-.1l.3-1.3c0,0,0-.1,0-.2,0,0-.1-.2-.4-.4-.3.7-.5,1.1-.5,1.1,0,0-2.9.2-5.8-.3-2.9-.5-5.8-1.7-5.7-4,0,0-.2,0-.3,0l-.5,1.6c.1.2,2.3,2.6,6,3.7,1.9.5,4.2.6,6.8-.1Z"/>
            <path d="M206,275.6s1.9-.4,4-.4c2.1.1,4.5.5,5.7,2.6.3.5.5,1.1.6,1.8.3.1.6,0,.9-.1l.3-1.4c0-.1-.1-.2-.2-.3-5.8-5.1-11-3.4-11.6-3.2l-.6,1.9.2,1.1c.5-1.2.8-2,.8-2Z"/>
            <path d="M207.1,276.3c1.6-.3,5-.4,8.8,3,.1,0,.2.2.3.2-.1-.7-.3-1.2-.6-1.8-1.2-2.1-3.6-2.5-5.7-2.6-2.1,0-4,.4-4,.4,0,0-.3.8-.8,2,1,5.9,4.4,11.3,6.2,13.6-2.6.4-4.8-.3-6.3-1.2-1.5-.9-2.3-1.9-2.4-1.9-.2-.3-.6-.4-.9-.4,0,2.3,2.8,3.4,5.7,4,2.9.4,5.8.3,5.8.3,0,0,.2-.4.5-1.1-1.3-1.6-5.8-7.8-6.7-14.4Z"/>
          </g>
          <g>
            <path d="M228.4,282c.8,3.5-.8,9.1-1.6,11.4.2.2.4.4.4.4,0,0,0,.1.1.2l2-12.2c-.3.2-.6.3-.9.2Z" style="fill: #b06d0d;"/>
            <path d="M214.7,290.2c.7-2.8,1.9-6.8,2.6-9.3l-.2-1.1-2.7,11.4c0,0,.2,0,.3,0,0-.3,0-.6.1-1Z" style="fill: #b06d0d;"/>
            <path d="M215.5,291.5c0,0,1,1,2.6,1.7,1.6.8,3.8,1.4,6.4.8-2-2.2-5.7-7.4-7.2-13.1-.7,2.4-1.8,6.4-2.6,9.3,0,.3-.1.7-.1,1,.3,0,.7,0,1,.3Z" style="fill: #b06d0d;"/>
            <path d="M228.4,282c-.1,0-.2,0-.4-.2-4.1-3-7.5-2.7-9-2.3.7,3.2,2.2,6.4,3.8,8.9,1.6,2.4,3.2,4.3,3.9,5,.8-2.3,2.4-7.9,1.6-11.4Z" style="fill: #b06d0d;"/>
            <path d="M226.9,295.5c0,0,.2-.1.2-.2l.2-1.4c0,0,0-.1-.1-.2,0,0-.2-.2-.4-.4-.3.7-.4,1.1-.4,1.1,0,0-2.9.4-5.8.1-2.9-.3-5.9-1.2-6-3.5,0,0-.2,0-.3,0l-.4,1.7c.1.2,2.4,2.4,6.2,3.3,1.9.4,4.3.3,6.7-.6Z"/>
            <path d="M217.9,278.9s1.8-.6,4-.7c2.1,0,4.5.2,5.9,2.2.3.5.6,1.1.7,1.7.3,0,.6,0,.9-.2l.2-1.4c0,0-.1-.2-.2-.3-3.1-2.3-5.9-2.9-8-3-2.1,0-3.6.6-3.8.7l-.5,2,.2,1.1c.4-1.3.6-2.1.6-2.1Z"/>
            <path d="M219.1,279.5c1.5-.4,4.9-.7,9,2.3.1,0,.2.1.4.2-.2-.6-.4-1.2-.7-1.7-1.3-1.9-3.8-2.2-5.9-2.2-2.1.1-4,.7-4,.7,0,0-.2.8-.6,2.1,1.5,5.7,5.2,10.9,7.2,13.1-2.6.6-4.8,0-6.4-.8-1.6-.8-2.5-1.7-2.6-1.7-.3-.3-.6-.3-1-.3,0,2.3,3.1,3.2,6,3.5,2.9.3,5.8-.1,5.8-.1,0,0,.2-.4.4-1.1-.7-.8-2.3-2.6-3.9-5-1.6-2.5-3.1-5.6-3.8-8.9Z"/>
          </g>
          <g>
            <path d="M240.7,283.6c1.1,3.5,0,9.1-.8,11.5.3.2.4.4.4.4,0,0,0,.1.1.2l1.1-12.3c-.2.2-.6.3-.9.3Z" style="fill: #b06d0d;"/>
            <path d="M227.7,292.8c.5-2.9,1.4-7,1.9-9.4l-.3-1.1-1.9,11.6c0,0,.2,0,.3,0,0-.3,0-.6,0-1Z" style="fill: #b06d0d;"/>
            <path d="M228.6,294c.1.1,4,3.4,9.1,1.9-2.1-2-6.3-6.9-8.1-12.5-.5,2.5-1.4,6.5-1.9,9.4,0,.4,0,.7,0,1,.3,0,.7,0,1,.3Z" style="fill: #b06d0d;"/>
            <path d="M240.7,283.6c-.1,0-.3,0-.4-.1-4.3-2.7-7.6-2.2-9.1-1.6,1.8,6.4,7.2,11.9,8.7,13.3.7-2.4,1.9-8,.8-11.5Z" style="fill: #b06d0d;"/>
            <path d="M240.2,297.2c0,0,.1-.1.2-.2v-1.4c0,0,0-.1,0-.2,0,0-.2-.1-.4-.4-.2.7-.3,1.1-.3,1.1,0,0-.7.2-1.8.3-1.1.2-2.5.3-4,.3-2.9,0-6-.7-6.3-3.1,0,0-.2,0-.3,0l-.3,1.7c.1.2,2.6,2.3,6.4,2.8,2,.3,4.3,0,6.7-1.1Z"/>
            <path d="M230,281.2s1.8-.7,3.9-1c2.1-.3,4.5,0,6,1.7.4.5.6,1,.8,1.6.3,0,.6,0,.9-.3v-1.4c0,0,0-.2-.1-.2-3.3-2.1-6.1-2.5-8.2-2.4-2.1.2-3.5.8-3.8,1l-.3,2,.3,1.1c.3-1.3.5-2.1.5-2.1Z"/>
            <path d="M231.2,281.9c1.5-.6,4.9-1.1,9.1,1.6.1,0,.2.1.4.1-.2-.6-.5-1.2-.8-1.6-1.5-1.8-3.9-2-6-1.7-2.1.3-3.9,1-3.9,1,0,0-.2.9-.5,2.1,1.9,5.7,6,10.5,8.1,12.5-5.1,1.5-9-1.7-9.1-1.9-.3-.2-.6-.3-1-.3.3,2.3,3.3,3,6.3,3.1,1.5,0,2.9,0,4-.3,1.1-.2,1.8-.3,1.8-.3,0,0,.1-.4.3-1.1-1.6-1.3-6.9-6.9-8.7-13.3Z"/>
          </g>
          <g>
            <path d="M253.2,284.4c1.4,3.4.6,9.1,0,11.5.3.2.4.3.4.3,0,0,0,.1.1.2l.2-12.3c-.2.2-.5.4-.8.3Z" style="fill: #b06d0d;"/>
            <path d="M240.8,294.4c.3-2.9.9-7,1.2-9.5l-.4-1.1-1,11.7c0,0,.2,0,.3,0,0-.3,0-.6,0-1Z" style="fill: #b06d0d;"/>
            <path d="M241.8,295.6c.1.2,4.2,3.1,9.2,1.2-2.3-2-6.8-6.4-9-11.9-.3,2.5-.9,6.6-1.2,9.5,0,.4,0,.7,0,1,.3,0,.7,0,1,.2Z" style="fill: #b06d0d;"/>
            <path d="M253.2,284.4c-.1,0-.3,0-.4-.1-4.5-2.5-7.8-1.6-9.2-1,2.3,6.2,8,11.4,9.7,12.6.5-2.4,1.3-8.2,0-11.5Z" style="fill: #b06d0d;"/>
            <path d="M253.6,297.9c0,0,.1-.1.2-.2v-1.4s0-.1-.1-.2c0,0-.2-.1-.4-.3-.2.7-.2,1.2-.2,1.2,0,0-2.8.9-5.7,1-2.9.2-6-.3-6.5-2.6,0,0-.2,0-.3,0l-.2,1.7c.2.1,2.8,2.2,6.6,2.3,2,.1,4.3-.2,6.6-1.6Z"/>
            <path d="M242.3,282.7s1.7-.8,3.8-1.2c2.1-.5,4.5-.4,6.1,1.3.4.4.7,1,.9,1.6.3,0,.6,0,.8-.3v-1.4c0,0-.1-.2-.2-.2-6.7-3.7-11.5-.8-12-.6l-.2,2,.4,1.1c.2-1.3.3-2.2.3-2.2Z"/>
            <path d="M243.5,283.3c1.5-.6,4.8-1.5,9.2,1,.1,0,.2,0,.4.1-.2-.6-.6-1.1-.9-1.6-1.6-1.7-4-1.8-6.1-1.3-2.1.5-3.8,1.2-3.8,1.2,0,0-.1.9-.3,2.2,2.3,5.6,6.8,10,9,11.9-5,1.9-9.1-1-9.2-1.2-.3-.2-.7-.3-1-.2.4,2.3,3.5,2.8,6.5,2.6,2.9-.1,5.7-1,5.7-1,0,0,0-.4.2-1.2-1.7-1.2-7.4-6.4-9.7-12.6Z"/>
          </g>
          <g>
            <path d="M265.6,284.2c1.6,3.2,1.2,9,.9,11.5.3.2.5.3.5.3,0,0,0,0,.1.1l-.7-12.3c-.2.3-.5.4-.8.4Z" style="fill: #b06d0d;"/>
            <path d="M254,295.1c0-2.9.3-7.1.5-9.6l-.5-1-.2,11.7c0,0,.2,0,.3-.1,0-.3-.1-.6-.1-1Z" style="fill: #b06d0d;"/>
            <path d="M255.1,296.2c0,0,1.2.8,2.9,1.2,1.7.4,4,.5,6.4-.6-2.4-1.8-7.2-5.8-9.9-11.3-.2,2.5-.4,6.7-.5,9.6,0,.4,0,.7.1,1,.3-.1.7,0,1,.1Z" style="fill: #b06d0d;"/>
            <path d="M265.6,284.2c-.1,0-.3,0-.4,0-4.6-2.2-7.9-1-9.3-.3,2.7,6.1,8.8,10.8,10.6,11.9.3-2.5.7-8.2-.9-11.5Z" style="fill: #b06d0d;"/>
            <path d="M267,297.7c0,0,.1-.1.2-.2v-1.4c-.1,0-.2-.1-.2-.1,0,0-.2-.1-.5-.3,0,.7-.2,1.2-.2,1.2,0,0-.7.3-1.7.6-1,.3-2.5.6-3.9.8-2.9.4-6,0-6.6-2.1,0,0-.2,0-.3.1v1.7c.1,0,2.9,2,6.8,1.8,2,0,4.2-.5,6.4-2.1Z"/>
            <path d="M254.6,283.3s1.7-.9,3.7-1.5c2-.6,4.5-.8,6.2.8.4.4.8.9,1.1,1.5.3,0,.6-.1.8-.4v-1.4c-.2,0-.3-.2-.4-.2-3.5-1.6-6.4-1.7-8.4-1.1-2.1.4-3.4,1.3-3.6,1.5v2s.4,1,.4,1c0-1.3.1-2.2.1-2.2Z"/>
            <path d="M255.9,283.8c1.4-.7,4.6-1.9,9.3.3.1,0,.3,0,.4,0-.3-.6-.6-1.1-1.1-1.5-1.7-1.6-4.2-1.5-6.2-.8-2,.6-3.7,1.5-3.7,1.5,0,0,0,.9-.1,2.2,2.7,5.4,7.5,9.5,9.9,11.3-2.4,1.1-4.7,1-6.4.6-1.7-.4-2.8-1.1-2.9-1.2-.3-.2-.7-.2-1-.1.6,2.2,3.7,2.6,6.6,2.1,1.5-.2,2.9-.5,3.9-.8,1-.3,1.7-.6,1.7-.6,0,0,0-.5.2-1.2-1.7-1.1-7.8-5.8-10.6-11.9Z"/>
          </g>
          <g>
            <path d="M278,283.1c1.8,3.1,1.9,8.9,1.8,11.4.3.2.5.3.5.3,0,0,0,0,.1.1l-1.6-12.2c-.2.3-.5.4-.8.5Z" style="fill: #b06d0d;"/>
            <path d="M267.2,294.8c-.1-2.9-.2-7.1-.2-9.6l-.5-1,.7,11.7c0,0,.2,0,.3-.1,0-.3-.2-.6-.2-1Z" style="fill: #b06d0d;"/>
            <path d="M268.4,295.8c.2.1,4.6,2.5,9.3-.1-2.5-1.6-7.6-5.3-10.7-10.5,0,2.5,0,6.7.2,9.6,0,.4,0,.7.2,1,.3-.1.7-.1,1,0Z" style="fill: #b06d0d;"/>
            <path d="M278,283.1c-.1,0-.3,0-.4,0-4.8-1.8-7.9-.4-9.3.4,3.2,5.9,9.6,10,11.4,11.1.1-2.5,0-8.3-1.8-11.4Z" style="fill: #b06d0d;"/>
            <path d="M280.4,296.4c0,0,.1-.1.2-.2l-.2-1.4c0,0,0,0-.1-.1,0,0-.2-.1-.5-.3,0,.7,0,1.2,0,1.2,0,0-2.6,1.2-5.5,1.8-2.9.7-6,.5-6.8-1.6,0,0-.2,0-.3.1v1.7c.3,0,3.2,1.7,7,1.3,2-.2,4.2-.9,6.3-2.6Z"/>
            <path d="M267,283s1.6-1.1,3.6-1.8c2-.7,4.4-1.1,6.2.4.5.4.8.9,1.2,1.4.3,0,.6-.2.8-.5l-.2-1.4c0,0-.2-.1-.3-.2-7.2-2.7-11.5.8-12,1.2v2c.1,0,.7,1,.7,1,0-1.3,0-2.2,0-2.2Z"/>
            <path d="M268.3,283.4c1.4-.8,4.5-2.2,9.3-.4.1,0,.3,0,.4,0-.3-.6-.7-1.1-1.2-1.4-1.9-1.5-4.3-1.1-6.2-.4-2,.7-3.6,1.8-3.6,1.8,0,0,0,.9,0,2.2,3.1,5.2,8.1,8.9,10.7,10.5-4.7,2.6-9.1.3-9.3.1-.3-.2-.7-.2-1,0,.8,2.1,3.9,2.3,6.8,1.6,2.9-.6,5.5-1.8,5.5-1.8,0,0,0-.5,0-1.2-1.8-1.1-8.2-5.2-11.4-11.1Z"/>
          </g>
          <g>
            <path d="M290.2,281c2.1,3,2.6,8.7,2.6,11.2.3.1.5.2.5.2,0,0,.1,0,.2.1l-2.5-12.1c-.2.3-.4.5-.8.5Z" style="fill: #b06d0d;"/>
            <path d="M280.4,293.6c-.3-2.9-.7-7.1-.9-9.6l-.6-.9,1.5,11.6c0,0,.2-.1.3-.2-.1-.3-.2-.6-.2-.9Z" style="fill: #b06d0d;"/>
            <path d="M281.6,294.5c.2,0,4.8,2.2,9.3-.8-1.3-.7-3.3-1.8-5.4-3.5-2.1-1.7-4.3-3.7-6-6.2.2,2.5.6,6.7.9,9.6,0,.4.1.7.2.9.3-.2.7-.2,1,0Z" style="fill: #b06d0d;"/>
            <path d="M290.2,281c-.1,0-.3,0-.4,0-4.9-1.4-7.9.2-9.2,1.1,3.6,5.7,10.3,9.3,12.2,10.2,0-2.5-.6-8.2-2.6-11.2Z" style="fill: #b06d0d;"/>
            <path d="M293.6,294.2c0,0,.1-.2.2-.2l-.3-1.3c0,0,0,0-.2-.1,0,0-.2,0-.5-.2,0,.7,0,1.2,0,1.2,0,0-2.5,1.4-5.4,2.2-2.8.8-6,1-6.9-1.1,0,0-.2,0-.3.2l.2,1.7c.2,0,3.2,1.4,7,.8,1.9-.4,4.1-1.2,6.1-3Z"/>
            <path d="M279.2,281.8s1.5-1.2,3.4-2c1.9-.8,4.3-1.5,6.3,0,.5.3.9.8,1.3,1.3.3,0,.6-.2.8-.5l-.3-1.4c0,0-.2-.1-.3-.2-7.4-2.2-11.4,1.7-11.8,2.1l.3,2,.6.9c-.1-1.3-.2-2.2-.2-2.2Z"/>
            <path d="M280.6,282.1c1.3-.9,4.3-2.5,9.2-1.1.1,0,.3,0,.4,0-.4-.5-.8-1-1.3-1.3-2-1.4-4.3-.7-6.3,0-1.9.8-3.4,2-3.4,2,0,0,0,.9.2,2.2,1.7,2.4,3.9,4.5,6,6.2,2.1,1.6,4.1,2.8,5.4,3.5-4.5,3-9.1.9-9.3.8-.3-.2-.7-.1-1,0,.9,2.1,4,1.9,6.9,1.1,2.8-.9,5.4-2.2,5.4-2.2,0,0,0-.5,0-1.2-1.9-.9-8.6-4.5-12.2-10.2Z"/>
          </g>
        </g>
        <path d="M154.7,269.4c-.4-4.7.7-9.7,2.9-13.8.6-1.2,1.3-2.8,2-4.6,1.3-3.4,2.8-7.2,4.9-9.2l1.4,1.5c-1.8,1.7-3.2,5.3-4.4,8.4-.7,1.8-1.4,3.5-2.1,4.8-2.1,3.8-3,8.3-2.7,12.7l-2.1.2Z"/>
        <path d="M291.2,272.2l-2-.7c1.6-4.7,1-10.2-1.4-14.5l1.8-1c2.8,4.9,3.3,10.9,1.6,16.2Z"/>
        <path d="M295,293.7l-2.1-.3c.6-4.3-.5-8.8-3.1-12.3l1.7-1.2c2.9,3.9,4.2,9,3.5,13.9Z"/>
        <path d="M291.3,302.1c-.7-2-1.9-3.9-3.4-5.5l1.5-1.4c1.7,1.8,3,3.9,3.8,6.2l-2,.7Z"/>
        <path d="M151.6,294h-2.1c0-2.6.2-5.4,1.3-7.9,1.1-2.5,3.8-4.8,6.9-4.8v2.1c-2.3-.1-4.1,1.8-5,3.5-1,2.2-1.1,4.6-1.1,7.1Z"/>
        <path d="M283.1,179.3c1.3,1,4,.9,4.6-.9.3-.9.1-2-.4-2.7-.6-.8-1.5-1.3-2.5-1.3-.4,0-.7,0-1.1.1-2.1.4-2.2,3.6-.6,4.8Z" style="fill: #fff;"/>
        <path d="M287.1,182.7c-.6.4-.8,1.3-.5,1.9.3.7,1,1.1,1.8,1.1.2,0,.4,0,.5,0,.2,0,.3-.2.4-.4,1.1-1.6-.4-3.7-2.2-2.6Z" style="fill: #fff;"/>
        <path d="M291.6,178.8c-.2,0-.4,0-.5.1-.1,0-.2.2-.3.4-.6,1.1-.3,2.7.6,3.5.4.4,1,.6,1.5.9.3.1.6.3.9.3s.7,0,.9-.3c.1-.1.2-.3.2-.5.6-2.3-.8-4.5-3.3-4.4Z" style="fill: #fff;"/>
        <path d="M229,166.7c1.3,1,4,.9,4.6-.9.3-.9.1-2-.4-2.7-.6-.8-1.5-1.3-2.5-1.3-.4,0-.7,0-1.1.1-2.1.4-2.2,3.6-.6,4.8Z" style="fill: #fff;"/>
        <path d="M233.7,169.7c-.6.4-.8,1.3-.5,1.9.3.7,1,1.1,1.8,1.1.2,0,.4,0,.5,0,.2,0,.3-.2.4-.4,1.1-1.6-.4-3.7-2.2-2.6Z" style="fill: #fff;"/>
        <path d="M238.2,164.8c-.2,0-.4,0-.5.1-.1,0-.2.2-.3.4-.6,1.1-.3,2.7.6,3.5.4.4,1,.6,1.5.9.3.1.6.3.9.3s.7,0,.9-.3c.1-.1.2-.3.2-.5.6-2.3-.8-4.5-3.3-4.4Z" style="fill: #fff;"/>
        <g>
          <path d="M284.3,185.6c-.7-.3-1.5-.7-2.3-.5-1.3.3-1.7,2.2-1.2,3.5.5,1.3,1.5,2.4,1.9,3.7.4,1.1.4,2.3.3,3.4-.2,4.2-1,8.3-1.8,12.4-1.9,9.8-3.8,19.6-6.9,29.1-.5,1.5-1.1,3.1-2,4.4-.7,1-1.6,1.8-2.3,2.8-.7,1-1.1,2.3-.8,3.4,1.9-.2,3.8-.5,5.7-.7,1.6-.2,3.1-.4,4.6-.9,2.2-.6,4.1-1.8,6.1-2.9,1.5-.9,3-1.7,4.2-3,2.4-2.4,3.2-6,3.9-9.3,1.5-7.1,3-14.2,4.5-21.2,1.4-6.7,2.9-13.6,1.9-20.5-.4-2.7-5.1-3-6.9-2.8-3.1.3-6,.4-9-.9Z" style="fill: #a5e1ff;"/>
          <path d="M269.3,249.4c-.7,0-1.4-.5-1.6-1.2-.5-1.5-.1-3.2,1-4.9.4-.6.9-1.1,1.3-1.6.3-.4.7-.8,1-1.2.8-1.1,1.3-2.5,1.8-3.9,3.1-9.4,5-19.3,6.8-28.9.8-4,1.6-8.1,1.7-12.2,0-.9,0-1.9-.2-2.8-.2-.5-.5-1-.8-1.5-.4-.6-.8-1.3-1.1-2.1-.5-1.3-.4-2.8.2-3.9.5-.9,1.3-1.5,2.2-1.7,1.3-.3,2.4.2,3.2.5l-.5,1.6.7-1.5c2.5,1.1,5,1.1,8.1.8,3.1-.3,8.2.5,8.7,4.3,1,7.2-.6,14.6-2,21l-4.5,21.2c-.7,3.2-1.5,7.3-4.3,10.1-1.4,1.4-3.1,2.4-4.6,3.2-1.9,1.1-4.1,2.3-6.4,3-1.6.5-3.3.7-4.9.9l-5.7.7c0,0-.1,0-.2,0ZM282.4,186.7s0,0,0,0c-.1,0-.3.7,0,1.3.2.5.5,1,.8,1.5.4.6.8,1.3,1.1,2.2.5,1.4.5,2.8.4,4-.2,4.3-1,8.5-1.8,12.6-1.9,9.7-3.8,19.8-7,29.3-.5,1.6-1.1,3.3-2.2,4.8-.4.5-.8,1-1.2,1.5-.4.4-.8.8-1.1,1.3-.1.2-.2.4-.3.5l3.6-.5c1.5-.2,3-.4,4.4-.8,2-.6,3.9-1.7,5.7-2.7,1.4-.8,2.8-1.6,3.8-2.7,2-2,2.7-4.9,3.4-8.5l4.5-21.2c1.4-6.5,2.8-13.3,1.9-19.9-.1-.9-3-1.6-5.1-1.4-2.9.3-6.2.5-9.8-1h0s-.2,0-.2,0c-.3-.1-.8-.4-1-.4Z"/>
        </g>
        <g>
          <path d="M225,172c-1.8,1-1.5,3.6-1.5,5.7,0,2.8-1.1,5.4-2.1,8-7.1,17.8-11.5,36.6-13.1,55.6-.1,1.2-.1,2.6.7,3.5.6.7,1.6.9,2.5,1.1,4.3.8,8.6,1.2,12.9,1.1.5,0,1.1,0,1.5-.4.4-.4.4-1,.4-1.6-.4-15.2,1.5-30.5,5.6-45.2,1-3.6,2.2-7.2,3.4-10.8,1.1-3.1,3.6-6.9,3.8-10.2s-1-4.2-3.7-5-8.8-2.8-10.6-1.8Z" style="fill: #a5e1ff;"/>
          <path d="M223.9,248.6c-4.2,0-8.5-.4-12.6-1.2-1.2-.2-2.5-.5-3.4-1.6-1.4-1.5-1.2-3.6-1.1-4.8,1.6-19.3,6-38.1,13.2-56.1v-.3c1.1-2.4,2-4.7,2-7v-.9c0-2.1-.1-5,2.3-6.3h0c1.7-.9,4.9-.5,11.5,1.6h.4c2.4.8,5.2,2.3,4.8,6.8-.2,2.5-1.4,5-2.5,7.4-.5,1.1-1,2.2-1.4,3.2-1.3,3.5-2.4,7.1-3.4,10.7-4.1,14.6-6,29.6-5.6,44.7,0,.6,0,1.9-.9,2.9-.9.9-2.1.9-2.6.9-.2,0-.4,0-.6,0ZM225.8,173.5c-.6.4-.6,1.9-.6,3.3v.9c0,3-1.1,5.7-2.1,8.3v.3c-7.2,17.6-11.5,36.2-13.1,55.1,0,.6-.1,1.8.2,2.2.3.3,1,.4,1.6.6,4.1.8,8.3,1.1,12.6,1.1,0,0,.2,0,.2,0,0,0,0-.2,0-.3-.4-15.4,1.5-30.7,5.7-45.7,1-3.7,2.2-7.3,3.5-10.9.4-1.1.9-2.3,1.5-3.5,1-2.2,2.1-4.4,2.2-6.3.1-2-.3-2.6-2.5-3.3h-.4c-6.8-2.2-8.5-2.1-8.9-1.9ZM225.8,173.4h0ZM225,172h0,0Z"/>
        </g>
        <path d="M264.7,227.5c-.2,0-.4,0-.6,0-1-.1-1.7-.6-2.4-1-.8-.5-1.6-1.1-2.4-1.6-3.4-2.3-6.5-4.5-10.2-4.8-1.3-.1-2.7,0-4.2.2-2.1.2-4.3.5-6.5,0-.6-.1-1.4-.4-2.1-1-2.2-1.9-1.1-5.1-.7-6.1.3-.9,1.3-1.3,2.1-1,.9.3,1.3,1.3,1,2.1-.5,1.5-.5,2.3-.3,2.4,0,0,.2.2.7.2,1.7.4,3.5.2,5.4,0,1.6-.2,3.2-.4,4.9-.2,4.5.4,8.2,2.9,11.8,5.4.8.5,1.5,1.1,2.3,1.5.3.2.7.5,1.1.5.4,0,.9-.3,1.3-.8.5-.7.7-1.6,1-2.6.2-.9,1.1-1.5,2-1.2.9.2,1.5,1.1,1.2,2-.3,1.2-.6,2.6-1.5,3.7-1,1.4-2.5,2.2-4,2.2Z"/>
        <path d="M241.2,238.7c-.1,0-.3,0-.4,0-.9,0-1.6-.9-1.5-1.8s.9-1.6,1.8-1.5c.8.1,1.8-.5,2.4-1.5.6-1,.9-2.3,1-4,0-.9.9-1.6,1.8-1.5.9,0,1.6.9,1.5,1.8-.2,1.8-.5,3.7-1.5,5.3-1.2,1.9-3.1,3.1-5.1,3.1Z"/>
        <path d="M257.7,237.2c-.2,0-.3,0-.5,0-1.2-.3-2.5-.7-3.7-1.6-1.5-1.1-2.4-2.7-2.3-4.4,0-.9.9-1.7,1.8-1.6.9,0,1.6.8,1.6,1.8,0,.5.3,1,.9,1.4.7.5,1.7.8,2.7,1.1.9.3,1.4,1.2,1.2,2.1-.2.7-.9,1.2-1.6,1.2Z"/>
        <path d="M254,242c-.5,0-.9-.2-1.3-.6-.9-1-2.6-1.3-3.8-.7-.8.4-1.8,0-2.3-.7-.4-.8-.1-1.8.7-2.3,2.6-1.3,5.9-.7,7.9,1.4.6.7.6,1.8-.1,2.4-.3.3-.7.4-1.1.4Z"/>
        <path d="M237.9,233c-.2,0-.4,0-.6-.1-.9-.3-1.3-1.3-1-2.2.5-1.5,1.8-2.6,3.4-2.8.9-.2,1.8.5,1.9,1.4.2.9-.5,1.8-1.4,1.9-.3,0-.7.3-.8.7-.2.7-.9,1.1-1.6,1.1Z"/>
      </g>
    </g>
  </g>
</svg>