<?xml version="1.0" encoding="utf-8"?>
<!-- Generator: Adobe Illustrator 26.0.3, SVG Export Plug-In . SVG Version: 6.00 Build 0)  -->
<svg version="1.1" id="레이어_1" xmlns="http://www.w3.org/2000/svg" xmlns:xlink="http://www.w3.org/1999/xlink" x="0px"
	 y="0px" viewBox="0 0 143 247" style="enable-background:new 0 0 143 247;" xml:space="preserve">
<path style="fill:#0082ED;" d="M80.5,175.4l-24.3,14.7h0c0,0-2,1.3-3.4,3.8l21.6,13.4l1.9-5.9l23.5-14.2L80.5,175.4z"/>
<path style="fill:#040000;" d="M74.4,208.5c-0.2,0-0.5-0.1-0.7-0.2L52.1,195c-0.6-0.4-0.8-1.1-0.4-1.7c1.6-2.8,3.8-4.2,3.9-4.3
	l24.3-14.7c0.4-0.2,0.9-0.2,1.3,0l19.3,11.7c0.4,0.2,0.6,0.6,0.6,1.1c0,0.4-0.2,0.8-0.6,1.1l-23.1,14l-1.7,5.4
	c-0.1,0.4-0.4,0.7-0.8,0.8C74.7,208.5,74.6,208.5,74.4,208.5z M54.5,193.5l19.2,11.8l1.4-4.3c0.1-0.3,0.3-0.5,0.5-0.7l21.7-13.2
	l-16.9-10.3l-23.6,14.3l0,0C56.9,191.1,55.7,191.9,54.5,193.5z"/>
<path style="fill:#0070CC;" d="M52.8,193.9c-0.8,1.4-1.4,3.2-1.4,5.5v7.5l19.3,11.7v-7.4l3.3-4.4L52.8,193.9z"/>
<path style="fill:#040000;" d="M70.7,219.9c-0.2,0-0.5-0.1-0.7-0.2L50.7,208c-0.4-0.2-0.6-0.6-0.6-1.1v-7.5c0-2.2,0.5-4.2,1.6-6.1
	c0.2-0.3,0.5-0.5,0.8-0.6c0.3-0.1,0.7,0,1,0.1l21.2,13c0.3,0.2,0.5,0.5,0.6,0.8c0.1,0.3,0,0.7-0.2,1l-3.1,4.1v6.9
	c0,0.5-0.2,0.9-0.6,1.1C71.1,219.9,70.9,219.9,70.7,219.9z M52.6,206.2l16.8,10.2v-5.1c0-0.3,0.1-0.5,0.3-0.8l2.5-3.3l-18.8-11.5
	c-0.5,1.2-0.7,2.4-0.7,3.7V206.2z"/>
<path style="fill:#0070CC;" d="M74.8,202.2c-0.9,0.5-1.6,1.2-2.2,2c-1,1.4-1.8,3.4-2,5.9v8.5L99.8,201v-13.9L74.8,202.2z"/>
<path style="fill:#040000;" d="M70.7,219.9c-0.2,0-0.4-0.1-0.6-0.2c-0.4-0.2-0.6-0.6-0.6-1.1v-8.5c0.1-2.4,0.8-4.6,2.2-6.6
	c0.6-0.9,1.5-1.7,2.6-2.4l25-15.1c0.4-0.2,0.9-0.2,1.3,0c0.4,0.2,0.6,0.6,0.6,1.1V201c0,0.4-0.2,0.9-0.6,1.1l-29.1,17.7
	C71.1,219.8,70.9,219.9,70.7,219.9z M71.9,218.6L71.9,218.6L71.9,218.6z M98.5,189.4l-23.1,14c0,0,0,0,0,0c-0.8,0.5-1.4,1-1.8,1.7
	c-1.1,1.6-1.7,3.3-1.7,5.2l0,6.2l26.6-16.1V189.4z M74.8,202.2L74.8,202.2L74.8,202.2z"/>
<polygon style="fill:#2877BD;" points="91,158.1 73.4,168.2 58.8,159.4 76.4,149.2 "/>
<path style="fill:#040000;" d="M73.4,169.5c-0.2,0-0.5-0.1-0.7-0.2l-14.6-8.9c-0.4-0.2-0.6-0.6-0.6-1.1c0-0.4,0.2-0.9,0.6-1.1
	l17.6-10.1c0.4-0.2,0.9-0.2,1.3,0l14.6,8.9c0.4,0.2,0.6,0.6,0.6,1.1c0,0.4-0.2,0.9-0.6,1.1L74,169.3
	C73.8,169.4,73.6,169.5,73.4,169.5z M61.3,159.4l12.1,7.4l15.1-8.7l-12.1-7.4L61.3,159.4z"/>
<polygon style="fill:#0070CC;" points="91,190.4 73.4,200.5 73.4,168.2 91,158.1 "/>
<path style="fill:#040000;" d="M73.4,201.8c-0.2,0-0.4-0.1-0.6-0.2c-0.4-0.2-0.6-0.6-0.6-1.1v-32.3c0-0.5,0.2-0.9,0.6-1.1L90.3,157
	c0.4-0.2,0.9-0.2,1.3,0c0.4,0.2,0.6,0.6,0.6,1.1v32.3c0,0.5-0.2,0.9-0.6,1.1L74,201.6C73.8,201.7,73.6,201.8,73.4,201.8z
	 M74.7,168.9v29.4l15-8.7v-29.4L74.7,168.9z M91,190.4L91,190.4L91,190.4z"/>
<polygon style="fill:#0082ED;" points="58.8,191.7 73.4,200.5 73.4,168.2 58.8,159.4 "/>
<path style="fill:#040000;" d="M73.4,201.8c-0.2,0-0.5-0.1-0.7-0.2l-14.6-8.8c-0.4-0.2-0.6-0.6-0.6-1.1v-32.3c0-0.5,0.2-0.9,0.6-1.1
	c0.4-0.2,0.9-0.2,1.3,0l14.6,8.9c0.4,0.2,0.6,0.6,0.6,1.1v32.3c0,0.5-0.2,0.9-0.6,1.1C73.8,201.7,73.6,201.8,73.4,201.8z M60.1,191
	l12,7.3v-29.4l-12-7.3V191z"/>
<g>
	<polygon style="fill:#186AB3;" points="91,122.9 73.4,133 58.8,124.2 76.4,114.1 	"/>
	<path style="fill:#040000;" d="M73.4,134.3c-0.2,0-0.5-0.1-0.7-0.2l-14.6-8.9c-0.4-0.2-0.6-0.6-0.6-1.1c0-0.4,0.2-0.9,0.6-1.1
		L75.8,113c0.4-0.2,0.9-0.2,1.3,0l14.6,8.9c0.4,0.2,0.6,0.6,0.6,1.1c0,0.4-0.2,0.9-0.6,1.1L74,134.1
		C73.8,134.2,73.6,134.3,73.4,134.3z M61.3,124.2l12.1,7.4l15.1-8.7l-12.1-7.4L61.3,124.2z"/>
</g>
<g>
	<polygon style="fill:#186AB3;" points="91,155.2 73.4,165.4 73.4,133 91,122.9 	"/>
	<path style="fill:#040000;" d="M73.4,166.6c-0.2,0-0.4-0.1-0.6-0.2c-0.4-0.2-0.6-0.6-0.6-1.1V133c0-0.5,0.2-0.9,0.6-1.1l17.6-10.1
		c0.4-0.2,0.9-0.2,1.3,0c0.4,0.2,0.6,0.6,0.6,1.1v32.3c0,0.5-0.2,0.9-0.6,1.1L74,166.4C73.8,166.6,73.6,166.6,73.4,166.6z
		 M74.7,133.8v29.4l15-8.7v-29.4L74.7,133.8z M91,155.2L91,155.2L91,155.2z"/>
</g>
<g>
	<polygon style="fill:#186AB3;" points="58.8,156.5 73.4,165.4 73.4,133 58.8,124.2 	"/>
	<path style="fill:#040000;" d="M73.4,166.6c-0.2,0-0.5-0.1-0.7-0.2l-14.6-8.9c-0.4-0.2-0.6-0.6-0.6-1.1v-32.3
		c0-0.5,0.2-0.9,0.6-1.1c0.4-0.2,0.9-0.2,1.3,0l14.6,8.9c0.4,0.2,0.6,0.6,0.6,1.1v32.3c0,0.5-0.2,0.9-0.6,1.1
		C73.8,166.6,73.6,166.6,73.4,166.6z M60.1,155.8l12,7.3v-29.4l-12-7.3V155.8z"/>
</g>
<path style="fill:#0082ED;" d="M83.6,153.7c-1.5-0.8-3.4-0.7-5.5,0.5c-1.9,1.1-5.2,5.3-5.2,5.3l-14.5-6.3c0,0-2.2,7.1-2.2,9.9
	c0,3.5,1.2,6,3.1,7l12.5,6.8"/>
<path style="fill:#040000;" d="M72,177.3c-0.2,0-0.4,0-0.6-0.2l-12.5-6.8c-2.4-1.3-3.7-4.2-3.7-8.1c0-3,2.2-10,2.3-10.3
	c0.1-0.3,0.4-0.6,0.7-0.8c0.3-0.1,0.7-0.2,1,0l13.6,6c1.1-1.3,3.3-3.9,4.9-4.9c2.4-1.4,4.8-1.6,6.8-0.5c0.6,0.3,0.8,1.1,0.5,1.7
	c-0.3,0.6-1.1,0.8-1.7,0.5c-1.5-0.8-3.2-0.2-4.3,0.5c-1.4,0.8-4,3.9-4.8,5c-0.4,0.5-1,0.6-1.5,0.4l-13.1-5.8
	c-0.7,2.4-1.7,6.4-1.7,8.2c0,2.9,0.9,5.1,2.4,5.9l12.5,6.8c0.6,0.3,0.8,1.1,0.5,1.7C72.9,177.1,72.5,177.3,72,177.3z"/>
<path style="fill:#0070CC;" d="M87.1,159.9c0,6.3-3.8,13.7-8.6,16.4c-4.7,2.7-8.6-0.2-8.6-6.5c0-6.3,3.8-13.7,8.6-16.4
	C83.3,150.7,87.1,153.6,87.1,159.9z"/>
<path style="fill:#040000;" d="M75.1,178.6c-1,0-2-0.2-2.8-0.7c-2.3-1.3-3.6-4.2-3.6-8c0-6.8,4-14.5,9.2-17.5
	c2.5-1.4,4.9-1.6,6.9-0.5c2.3,1.3,3.6,4.2,3.6,8c0,6.8-4,14.5-9.2,17.5C77.8,178.2,76.4,178.6,75.1,178.6z M81.9,153.6
	c-1,0-2,0.4-2.8,0.9c-4.4,2.5-8,9.4-8,15.3c0,2.9,0.9,5,2.3,5.8c1.5,0.9,3.2,0.2,4.4-0.5c4.4-2.5,8-9.4,8-15.3c0-2.9-0.9-5-2.3-5.8
	C83,153.7,82.5,153.6,81.9,153.6z"/>
<path style="fill:#FF4242;stroke:#000000;stroke-width:2.3713;stroke-linecap:round;stroke-linejoin:round;stroke-miterlimit:10;" d="
	M85.2,162.3c0.5,1.9,0.2,4.1-0.5,5.7c-1.2,2.6-3.9,4.8-6.9,4.7c-2.5-0.2-3.4-2.1-3.4-4.4c0-3.6,2.2-7.8,4.9-9.3
	C82,157.3,84.3,158.8,85.2,162.3z"/>
<path style="fill:#040000;" d="M78.2,173.9c-0.1,0-0.3,0-0.4,0c-2.9-0.2-4.6-2.3-4.6-5.7c0-4.1,2.4-8.7,5.5-10.4
	c1.9-1.1,3.4-0.8,4.3-0.5c1.6,0.7,2.8,2.3,3.5,4.7c0.6,2.1,0.3,4.5-0.6,6.5C84.6,171.2,81.7,173.9,78.2,173.9z M81.3,159.5
	c-0.4,0-0.9,0.1-1.4,0.4c-2.3,1.3-4.3,5.1-4.3,8.3c0,3,1.6,3.1,2.2,3.2c2.6,0.2,4.7-1.9,5.7-3.9c0.5-1.2,1-3,0.5-4.8l0,0
	c-0.4-1.6-1.2-2.6-2-3C81.8,159.6,81.6,159.5,81.3,159.5z"/>
<path style="fill:#0082ED;" d="M122.7,201.7l-24.3,14.7h0c0,0-2,1.3-3.4,3.8l21.6,13.4l1.9-5.9l23.5-14.2L122.7,201.7z"/>
<path style="fill:#040000;" d="M116.6,234.9c-0.2,0-0.5-0.1-0.7-0.2l-21.6-13.4c-0.6-0.4-0.8-1.1-0.4-1.7c1.6-2.8,3.8-4.2,3.9-4.3
	l24.3-14.7c0.4-0.2,0.9-0.2,1.3,0l19.3,11.7c0.4,0.2,0.6,0.6,0.6,1.1c0,0.4-0.2,0.9-0.6,1.1l-23.1,14l-1.7,5.4
	c-0.1,0.4-0.4,0.7-0.8,0.8C116.9,234.8,116.8,234.9,116.6,234.9z M96.8,219.8l19.2,11.8l1.4-4.3c0.1-0.3,0.3-0.5,0.5-0.7l21.7-13.2
	l-16.9-10.3l-23.6,14.3l0,0C99.1,217.5,97.9,218.3,96.8,219.8z"/>
<path style="fill:#0070CC;" d="M95,220.2c-0.8,1.4-1.4,3.2-1.4,5.5v7.5l19.3,11.7v-7.4l3.3-4.4L95,220.2z"/>
<path style="fill:#040000;" d="M112.9,246.3c-0.2,0-0.5-0.1-0.7-0.2l-19.3-11.7c-0.4-0.2-0.6-0.6-0.6-1.1v-7.5
	c0-2.2,0.5-4.2,1.6-6.1c0.2-0.3,0.5-0.5,0.8-0.6c0.3-0.1,0.7,0,1,0.1l21.2,13c0.3,0.2,0.5,0.5,0.6,0.8c0.1,0.3,0,0.7-0.2,1l-3.1,4.1
	v6.9c0,0.5-0.2,0.9-0.6,1.1C113.3,246.2,113.1,246.3,112.9,246.3z M94.8,232.5l16.8,10.2v-5.1c0-0.3,0.1-0.5,0.3-0.8l2.5-3.3
	l-18.8-11.5c-0.5,1.2-0.7,2.4-0.7,3.7V232.5z"/>
<path style="fill:#0070CC;" d="M117.1,228.6c-0.9,0.5-1.6,1.2-2.2,2c-1,1.4-1.8,3.4-2,5.9v8.5l29.1-17.7v-13.9L117.1,228.6z"/>
<path style="fill:#040000;" d="M112.9,246.3c-0.2,0-0.4-0.1-0.6-0.2c-0.4-0.2-0.6-0.6-0.6-1.1v-8.5c0.1-2.4,0.9-4.6,2.2-6.6
	c0.6-0.9,1.5-1.7,2.6-2.4h0l25-15.1c0.4-0.2,0.9-0.2,1.3,0c0.4,0.2,0.6,0.6,0.6,1.1v13.9c0,0.4-0.2,0.9-0.6,1.1l-29.1,17.7
	C113.3,246.2,113.1,246.3,112.9,246.3z M114.2,245L114.2,245L114.2,245z M117.7,229.7c-0.8,0.5-1.4,1-1.8,1.7
	c-1.1,1.6-1.7,3.3-1.7,5.2l0,6.2l26.6-16.1v-10.9L117.7,229.7z"/>
<polygon style="fill:#186AB3;" points="133.2,184.4 115.6,194.6 101.1,185.7 118.6,175.6 "/>
<path style="fill:#040000;" d="M115.6,195.8c-0.2,0-0.5-0.1-0.7-0.2l-14.6-8.8c-0.4-0.2-0.6-0.6-0.6-1.1c0-0.4,0.2-0.9,0.6-1.1
	l17.6-10.1c0.4-0.2,0.9-0.2,1.3,0l14.6,8.9c0.4,0.2,0.6,0.6,0.6,1.1c0,0.4-0.2,0.9-0.6,1.1l-17.6,10.1
	C116.1,195.8,115.9,195.8,115.6,195.8z M103.6,185.7l12.1,7.4l15.1-8.7l-12.1-7.4L103.6,185.7z"/>
<polygon style="fill:#0070CC;" points="133.2,216.8 115.6,226.9 115.6,194.6 133.2,184.4 "/>
<path style="fill:#040000;" d="M115.6,228.1c-0.2,0-0.4-0.1-0.6-0.2c-0.4-0.2-0.6-0.6-0.6-1.1v-32.3c0-0.5,0.2-0.9,0.6-1.1
	l17.6-10.1c0.4-0.2,0.9-0.2,1.3,0c0.4,0.2,0.6,0.6,0.6,1.1v32.3c0,0.5-0.2,0.9-0.6,1.1L116.3,228
	C116.1,228.1,115.9,228.1,115.6,228.1z M116.9,195.3v29.4l15-8.7v-29.4L116.9,195.3z M133.2,216.8L133.2,216.8L133.2,216.8z"/>
<polygon style="fill:#2877BD;" points="101.1,218 115.6,226.9 115.6,194.6 101.1,185.7 "/>
<path style="fill:#040000;" d="M115.6,228.1c-0.2,0-0.5-0.1-0.7-0.2l-14.6-8.9c-0.4-0.2-0.6-0.6-0.6-1.1v-32.3
	c0-0.5,0.2-0.9,0.6-1.1c0.4-0.2,0.9-0.2,1.3,0l14.6,8.8c0.4,0.2,0.6,0.6,0.6,1.1v32.3c0,0.5-0.2,0.9-0.6,1.1
	C116.1,228.1,115.9,228.1,115.6,228.1z M102.3,217.3l12,7.3v-29.4l-12-7.3V217.3z"/>
<polygon style="fill:#186AB3;" points="133.2,149.3 115.6,159.4 101.1,150.5 118.6,140.4 "/>
<path style="fill:#040000;" d="M115.6,160.7c-0.2,0-0.5-0.1-0.7-0.2l-14.6-8.9c-0.4-0.2-0.6-0.6-0.6-1.1c0-0.4,0.2-0.9,0.6-1.1
	l17.6-10.1c0.4-0.2,0.9-0.2,1.3,0l14.6,8.9c0.4,0.2,0.6,0.6,0.6,1.1c0,0.4-0.2,0.9-0.6,1.1l-17.6,10.1
	C116.1,160.6,115.9,160.7,115.6,160.7z M103.6,150.6l12.1,7.4l15.1-8.7l-12.1-7.4L103.6,150.6z"/>
<polygon style="fill:#0070CC;" points="133.2,181.6 115.6,191.7 115.6,159.4 133.2,149.3 "/>
<path style="fill:#040000;" d="M115.6,193c-0.2,0-0.4-0.1-0.6-0.2c-0.4-0.2-0.6-0.6-0.6-1.1v-32.3c0-0.5,0.2-0.9,0.6-1.1l17.6-10.1
	c0.4-0.2,0.9-0.2,1.3,0c0.4,0.2,0.6,0.6,0.6,1.1v32.3c0,0.5-0.2,0.9-0.6,1.1l-17.6,10.1C116.1,192.9,115.9,193,115.6,193z
	 M116.9,160.1v29.4l15-8.7v-29.4L116.9,160.1z M133.2,181.6L133.2,181.6L133.2,181.6z"/>
<polygon style="fill:#2877BD;" points="101.1,182.9 115.6,191.7 115.6,159.4 101.1,150.5 "/>
<path style="fill:#040000;" d="M115.6,193c-0.2,0-0.5-0.1-0.7-0.2l-14.6-8.9c-0.4-0.2-0.6-0.6-0.6-1.1v-32.3c0-0.5,0.2-0.9,0.6-1.1
	s0.9-0.2,1.3,0l14.6,8.9c0.4,0.2,0.6,0.6,0.6,1.1v32.3c0,0.5-0.2,0.9-0.6,1.1C116.1,192.9,115.9,193,115.6,193z M102.3,182.1l12,7.3
	v-29.4l-12-7.3V182.1z"/>
<path style="fill:#2877BD;" d="M126.1,179.3c-1.5-0.8-3.4-0.7-5.5,0.5c-1.9,1.1-5.2,5.3-5.2,5.3l-14.5-6.3c0,0-2.2,7.1-2.2,9.9
	c0,3.5,1.2,6,3.1,7l12.5,6.8"/>
<path style="fill:#040000;" d="M114.3,203.7c-0.2,0-0.4,0-0.6-0.2l-12.5-6.8c-2.4-1.3-3.7-4.2-3.7-8.1c0-2.9,2.2-10,2.3-10.3
	c0.1-0.3,0.4-0.6,0.7-0.8c0.3-0.1,0.7-0.2,1,0l13.6,6c1.1-1.3,3.3-3.9,4.9-4.9c2.4-1.4,4.8-1.6,6.8-0.5c0.6,0.3,0.8,1.1,0.5,1.7
	c-0.3,0.6-1.1,0.8-1.7,0.5c-1.5-0.8-3.2-0.2-4.3,0.5c-1.4,0.8-4,3.9-4.8,5c-0.4,0.5-1,0.6-1.5,0.4l-13.1-5.8
	c-0.7,2.4-1.7,6.4-1.7,8.2c0,2.9,0.9,5.1,2.4,5.9l12.5,6.8c0.6,0.3,0.8,1.1,0.5,1.7C115.1,203.5,114.7,203.7,114.3,203.7z"/>
<path style="fill:#0070CC;" d="M129.3,186.2c0,6.3-3.8,13.7-8.6,16.4c-4.7,2.7-8.6-0.2-8.6-6.5c0-6.3,3.8-13.7,8.6-16.4
	C125.5,177,129.3,179.9,129.3,186.2z"/>
<path style="fill:#040000;" d="M117.3,204.9c-1,0-2-0.2-2.8-0.7c-2.3-1.3-3.6-4.2-3.6-8c0-6.8,4-14.5,9.2-17.5
	c2.5-1.4,4.9-1.6,6.9-0.5c2.3,1.3,3.6,4.2,3.6,8c0,6.8-4,14.5-9.2,17.5C120,204.5,118.6,204.9,117.3,204.9z M124.2,180
	c-1,0-2,0.4-2.8,0.9c-4.4,2.5-8,9.4-8,15.3c0,2.9,0.9,5,2.3,5.8c1.5,0.9,3.2,0.2,4.4-0.5c4.4-2.5,8-9.4,8-15.3c0-2.9-0.9-5-2.3-5.8
	C125.2,180.1,124.7,180,124.2,180z"/>
<path style="fill:#FF4242;stroke:#000000;stroke-width:2.3713;stroke-linecap:round;stroke-linejoin:round;stroke-miterlimit:10;" d="
	M127.5,188.7c0.5,1.9,0.2,4.1-0.5,5.7c-1.2,2.6-3.9,4.8-6.9,4.7c-2.5-0.2-3.4-2.1-3.4-4.4c0-3.6,2.2-7.8,4.9-9.3
	C124.2,183.7,126.5,185.2,127.5,188.7z"/>
<path style="fill:#040000;" d="M120.4,200.3c-0.1,0-0.3,0-0.4,0c-2.9-0.2-4.6-2.3-4.6-5.7c0-4.1,2.4-8.7,5.5-10.4
	c1.9-1.1,3.4-0.8,4.3-0.5c1.6,0.7,2.8,2.3,3.5,4.7l0,0c0.6,2.1,0.3,4.5-0.6,6.5C126.8,197.5,123.9,200.3,120.4,200.3z M123.6,185.9
	c-0.4,0-0.9,0.1-1.4,0.4c-2.3,1.3-4.3,5.1-4.3,8.3c0,3,1.6,3.1,2.2,3.2c2.5,0.2,4.7-1.9,5.7-3.9c0.5-1.2,1-3,0.5-4.8l0,0
	c-0.4-1.6-1.2-2.6-2-3C124,185.9,123.8,185.9,123.6,185.9z"/>
<path style="fill:#186AB3;" d="M78,66.4l-4.5-2.8c-1.8-1-4.2-0.9-6.8,0.6c-5.8,3.3-10.5,12.3-10.5,20c0,4.3,1.5,7.3,3.8,8.6l4.9,3"
	/>
<path style="fill:#040000;" d="M64.8,97c-0.2,0-0.5-0.1-0.7-0.2l-4.9-3c-2.7-1.5-4.4-5-4.4-9.6c0-8.1,5-17.6,11.1-21.1
	c2.9-1.7,5.7-1.9,8-0.6l4.6,2.9c0.6,0.4,0.8,1.2,0.4,1.7c-0.4,0.6-1.2,0.8-1.7,0.4l-4.5-2.8c-1.4-0.8-3.4-0.6-5.5,0.6
	c-5.4,3.1-9.9,11.6-9.9,18.9c0,3.7,1.1,6.4,3.1,7.4l4.9,3.1c0.6,0.4,0.8,1.1,0.4,1.7C65.7,96.8,65.3,97,64.8,97z"/>
<ellipse transform="matrix(0.3915 -0.9202 0.9202 0.3915 -31.1557 114.9172)" style="fill:#186AB3;" cx="71.3" cy="81" rx="16.1" ry="9.1"/>
<path style="fill:#040000;" d="M67.1,97.5c-1.2,0-2.3-0.3-3.3-0.9c-2.7-1.6-4.3-5.1-4.3-9.6c0-8.1,5-17.6,11.1-21.1
	c2.9-1.7,5.8-1.9,8.1-0.6c2.7,1.6,4.3,5.1,4.3,9.6c0,8.1-5,17.6-11.1,21.1C70.3,97,68.7,97.5,67.1,97.5z M75.5,67
	c-1.1,0-2.3,0.4-3.5,1.1c-5.4,3.1-9.9,11.6-9.9,18.9c0,3.6,1.1,6.3,3,7.4c1.5,0.9,3.5,0.7,5.6-0.6c5.4-3.1,9.9-11.6,9.9-18.9
	c0-3.6-1.1-6.3-3-7.4C76.9,67.2,76.2,67,75.5,67z"/>
<path style="fill:#0082ED;stroke:#000000;stroke-width:2.3713;stroke-linecap:round;stroke-linejoin:round;stroke-miterlimit:10;" d="
	M57.8,119.1L71.3,95c-2.3,1.7-6.5,0.7-6.5,0.7c-3.4-2.2-4-7.5-4-7.5l-4.6-2.5L44,109"/>
<path style="fill:#040000;" d="M57.8,120.4c-0.2,0-0.4-0.1-0.6-0.2c-0.6-0.3-0.8-1.1-0.5-1.7l12-21.3c-2,0.2-3.8-0.2-4.1-0.2
	c-0.1,0-0.3-0.1-0.4-0.2c-3.1-2-4.1-6.1-4.4-7.7l-2.9-1.6l-11.7,22.1c-0.3,0.6-1.1,0.9-1.7,0.5c-0.6-0.3-0.9-1.1-0.5-1.7l12.3-23.3
	c0.2-0.3,0.4-0.5,0.7-0.6c0.3-0.1,0.7-0.1,1,0.1l4.6,2.5c0.4,0.2,0.6,0.6,0.7,1c0,0,0.5,4.5,3.2,6.4c1.2,0.2,3.9,0.4,5.2-0.6
	c0.5-0.4,1.1-0.3,1.6,0.1c0.4,0.4,0.6,1,0.3,1.6l-13.6,24.1C58.6,120.2,58.2,120.4,57.8,120.4z"/>
<path style="fill:#0082ED;stroke:#000000;stroke-width:2.3713;stroke-linecap:round;stroke-linejoin:round;stroke-miterlimit:10;" d="
	M54.9,107.7l-4.5-2.8c-1.8-1-4.2-0.9-6.8,0.6c-5.8,3.3-10.5,12.3-10.5,20c0,4.3,1.5,7.3,3.8,8.6l4.9,3"/>
<path style="fill:#040000;" d="M41.8,138.3c-0.2,0-0.5-0.1-0.7-0.2l-4.9-3c-2.7-1.5-4.4-5-4.4-9.6c0-8.1,5-17.6,11.1-21.1
	c2.9-1.7,5.7-1.9,8-0.6l4.6,2.9c0.6,0.4,0.8,1.2,0.4,1.7c-0.4,0.6-1.2,0.8-1.7,0.4l-4.5-2.8c-1.4-0.8-3.4-0.6-5.5,0.6
	c-5.4,3.1-9.9,11.6-9.9,18.9c0,3.7,1.1,6.4,3.1,7.4l4.9,3.1c0.6,0.4,0.8,1.1,0.4,1.7C42.6,138.1,42.2,138.3,41.8,138.3z"/>
<line style="fill:#186AB3;" x1="60.9" y1="88.2" x2="51.7" y2="105.6"/>
<path style="fill:#040000;" d="M51.7,106.9c-0.2,0-0.4,0-0.6-0.1c-0.6-0.3-0.9-1.1-0.5-1.7l9.2-17.4c0.3-0.6,1.1-0.9,1.7-0.5
	c0.6,0.3,0.9,1.1,0.5,1.7l-9.2,17.4C52.6,106.6,52.2,106.9,51.7,106.9z"/>
<polygon style="fill:#0082ED;" points="20.2,133.2 33.2,124.2 37.9,126.5 44.1,137.5 24.1,153.2 "/>
<path style="fill:#040000;" d="M24.1,154.4c-0.1,0-0.3,0-0.4-0.1c-0.4-0.2-0.7-0.5-0.8-0.9l-3.9-20c-0.1-0.5,0.1-1,0.5-1.3l13-8.9
	c0.4-0.3,0.9-0.3,1.3-0.1l4.7,2.3c0.2,0.1,0.4,0.3,0.5,0.5l6.2,11c0.3,0.5,0.2,1.2-0.3,1.6l-20,15.6
	C24.6,154.3,24.4,154.4,24.1,154.4z M21.6,133.7l3.3,17.2l17.5-13.7l-5.4-9.8l-3.6-1.8L21.6,133.7z"/>
<ellipse transform="matrix(0.3916 -0.9202 0.9202 0.3916 -83.1628 118.8509)" style="fill:#0070CC;stroke:#000000;stroke-width:2.3713;stroke-linecap:round;stroke-linejoin:round;stroke-miterlimit:10;" cx="48.3" cy="122.3" rx="16.1" ry="9.1"/>
<path style="fill:#040000;" d="M44.1,138.8c-1.2,0-2.3-0.3-3.3-0.9c-2.7-1.6-4.3-5.1-4.3-9.6c0-8.1,5-17.6,11.1-21.1
	c2.9-1.7,5.8-1.9,8.1-0.6c2.7,1.6,4.3,5.1,4.3,9.6c0,8.1-5,17.6-11.1,21.1C47.3,138.3,45.6,138.8,44.1,138.8z M52.4,108.3
	c-1.1,0-2.3,0.4-3.5,1.1c-5.4,3.1-9.9,11.6-9.9,18.9c0,3.6,1.1,6.3,3,7.4c1.5,0.9,3.5,0.7,5.6-0.6c5.4-3.1,9.9-11.6,9.9-18.9
	c0-3.6-1.1-6.3-3-7.4C53.9,108.5,53.2,108.3,52.4,108.3z"/>
<path style="fill:#0082ED;" d="M24.1,134.5l-4.5-2.8c-1.8-1-4.2-0.9-6.8,0.6c-5.8,3.3-10.5,12.3-10.5,20c0,4.3,1.5,7.3,3.8,8.6
	l4.9,3"/>
<path style="fill:#040000;" d="M11,165.1c-0.2,0-0.5-0.1-0.7-0.2l-4.9-3c-2.7-1.5-4.4-5-4.4-9.6c0-8.1,5-17.6,11.1-21.1
	c2.9-1.7,5.7-1.9,8-0.6l4.6,2.9c0.6,0.4,0.8,1.2,0.4,1.7c-0.4,0.6-1.2,0.8-1.7,0.4l-4.5-2.8c-1.4-0.8-3.4-0.6-5.5,0.6
	C8,136.5,3.6,145,3.6,152.3c0,3.7,1.1,6.4,3.1,7.4l4.9,3.1c0.6,0.4,0.8,1.1,0.4,1.7C11.8,164.9,11.4,165.1,11,165.1z"/>
<ellipse transform="matrix(0.3915 -0.9202 0.9202 0.3915 -126.6334 106.7957)" style="fill:#0070CC;stroke:#000000;stroke-width:2.3713;stroke-linecap:round;stroke-linejoin:round;stroke-miterlimit:10;" cx="17.4" cy="149.2" rx="16.1" ry="9.1"/>
<path style="fill:#040000;" d="M13.3,165.7c-1.2,0-2.3-0.3-3.3-0.9c-2.7-1.6-4.3-5.1-4.3-9.6c0-8.1,5-17.6,11.1-21.1
	c2.9-1.7,5.8-1.9,8.1-0.6c2.7,1.6,4.3,5.1,4.3,9.6c0,8.1-5,17.6-11.1,21.1C16.4,165.2,14.8,165.7,13.3,165.7z M21.6,135.2
	c-1.1,0-2.3,0.4-3.5,1.1c-5.4,3.1-9.9,11.6-9.9,18.9c0,3.6,1.1,6.3,3,7.4c1.5,0.9,3.5,0.7,5.6-0.6c5.4-3.1,9.9-11.6,9.9-18.9
	c0-3.6-1.1-6.3-3-7.4C23,135.3,22.3,135.2,21.6,135.2z"/>
<line style="fill:#186AB3;" x1="37.8" y1="128.4" x2="27.3" y2="135.8"/>
<path style="fill:#040000;" d="M27.3,137.1c-0.4,0-0.8-0.2-1-0.5c-0.4-0.6-0.3-1.4,0.3-1.8l10.5-7.5c0.6-0.4,1.4-0.3,1.8,0.3
	c0.4,0.6,0.3,1.4-0.3,1.8L28,136.9C27.8,137,27.6,137.1,27.3,137.1z"/>
<polygon style="fill:#0082ED;stroke:#000000;stroke-width:2.3713;stroke-linecap:round;stroke-linejoin:round;stroke-miterlimit:10;" points="
	139.6,79.7 103.4,100.6 55.3,72.8 91.5,52 "/>
<path style="fill:#040000;" d="M103.4,101.8c-0.2,0-0.4-0.1-0.6-0.2L54.7,73.9c-0.4-0.2-0.6-0.6-0.6-1.1c0-0.5,0.2-0.9,0.6-1.1
	l36.2-20.8c0.4-0.2,0.9-0.2,1.3,0l48.1,27.8c0.4,0.2,0.6,0.6,0.6,1.1c0,0.5-0.2,0.9-0.6,1.1L104,101.7
	C103.8,101.8,103.6,101.8,103.4,101.8z M57.8,72.8l45.6,26.3l33.7-19.4L91.5,53.4L57.8,72.8z"/>
<polygon style="fill:#0070CC;" points="139.6,146.3 103.4,167.2 103.4,100.6 139.6,79.7 "/>
<path style="fill:#040000;" d="M103.4,168.4c-0.2,0-0.4-0.1-0.6-0.2c-0.4-0.2-0.6-0.6-0.6-1.1v-66.6c0-0.5,0.2-0.9,0.6-1.1L139,78.6
	c0.4-0.2,0.9-0.2,1.3,0c0.4,0.2,0.6,0.6,0.6,1.1v66.6c0,0.5-0.2,0.9-0.6,1.1L104,168.3C103.8,168.4,103.6,168.4,103.4,168.4z
	 M104.7,101.3V165l33.7-19.4V81.9L104.7,101.3z M139.6,146.3L139.6,146.3L139.6,146.3z"/>
<polygon style="fill:#0070CC;" points="55.3,139.4 103.4,167.2 103.4,100.6 55.3,72.8 "/>
<path style="fill:#040000;" d="M103.4,168.4c-0.2,0-0.4-0.1-0.6-0.2l-48.1-27.8c-0.4-0.2-0.6-0.6-0.6-1.1V72.8
	c0-0.5,0.2-0.9,0.6-1.1c0.4-0.2,0.9-0.2,1.3,0L104,99.5c0.4,0.2,0.6,0.6,0.6,1.1v66.6c0,0.5-0.2,0.9-0.6,1.1
	C103.8,168.4,103.6,168.4,103.4,168.4z M56.6,138.7l45.6,26.3v-63.7L56.6,75V138.7z"/>
<polygon style="fill:#0082ED;" points="135.1,25 100.5,45.3 59.8,21.8 94.4,1.5 "/>
<path style="fill:#040000;" d="M100.5,46.6c-0.2,0-0.4-0.1-0.6-0.2L59.2,22.9c-0.4-0.2-0.6-0.6-0.6-1.1c0-0.4,0.2-0.9,0.6-1.1
	L93.8,0.4c0.4-0.2,0.9-0.2,1.3,0l40.7,23.5c0.4,0.2,0.6,0.6,0.6,1.1c0,0.4-0.2,0.9-0.6,1.1l-34.6,20.3
	C101,46.5,100.7,46.6,100.5,46.6z M62.3,21.8l38.2,22.1L132.6,25L94.4,3L62.3,21.8z"/>
<polygon style="fill:#0070CC;" points="135.1,70.4 100.5,90.7 100.5,45.3 135.1,25 "/>
<path style="fill:#040000;" d="M100.5,92c-0.2,0-0.4-0.1-0.6-0.2c-0.4-0.2-0.6-0.6-0.6-1.1V45.3c0-0.4,0.2-0.9,0.6-1.1l34.6-20.3
	c0.4-0.2,0.9-0.2,1.3,0c0.4,0.2,0.6,0.6,0.6,1.1v45.3c0,0.4-0.2,0.9-0.6,1.1l-34.6,20.3C101,91.9,100.7,92,100.5,92z M101.8,46.1
	v42.4l32.1-18.8V27.2L101.8,46.1z M135.1,70.4L135.1,70.4L135.1,70.4z"/>
<polygon style="fill:#0070CC;" points="59.8,67.2 100.5,90.7 100.5,45.3 59.8,21.8 "/>
<path style="fill:#040000;" d="M100.5,92c-0.2,0-0.4-0.1-0.6-0.2L59.2,68.3c-0.4-0.2-0.6-0.6-0.6-1.1V21.8c0-0.5,0.2-0.9,0.6-1.1
	c0.4-0.2,0.9-0.2,1.3,0l40.7,23.5c0.4,0.2,0.6,0.6,0.6,1.1v45.3c0,0.5-0.2,0.9-0.6,1.1C100.9,91.9,100.7,92,100.5,92z M61.1,66.5
	l38.2,22V46.1L61.1,24V66.5z"/>
<path style="fill:#B8B8B8;" d="M67.6,64.7l23,13.3c1.4,0.8,3.3-0.2,3.3-1.9v-7.9c0-0.8-0.4-1.5-1.1-1.9l-23-13.3
	c-1.4-0.8-3.3,0.2-3.3,1.9v7.9C66.5,63.6,66.9,64.3,67.6,64.7z"/>
<path style="fill:#040000;" d="M91.7,79.6c-0.6,0-1.2-0.2-1.7-0.5l-23-13.3c-1.1-0.6-1.7-1.7-1.7-3V55c0-1.2,0.6-2.4,1.7-3
	c1.1-0.6,2.4-0.6,3.4,0l23,13.3c1.1,0.6,1.7,1.8,1.7,3v7.9c0,1.2-0.6,2.4-1.7,3C92.8,79.4,92.2,79.6,91.7,79.6z M68.7,54.1
	c-0.2,0-0.4,0.1-0.5,0.1c-0.1,0.1-0.5,0.3-0.5,0.8v7.9c0,0.3,0.2,0.6,0.5,0.8c0,0,0,0,0,0l23,13.3c0.4,0.2,0.8,0.1,0.9,0
	c0.1-0.1,0.5-0.3,0.5-0.8v-7.9c0-0.3-0.2-0.6-0.5-0.8l-23-13.3C68.9,54.1,68.8,54.1,68.7,54.1z"/>
<path style="fill:#FF4242;" d="M93.5,55.7c0,3.7-2.2,5.4-5,3.8c-2.8-1.6-5-5.9-5-9.5c0-3.7,2.2-5.4,5-3.8
	C91.3,47.7,93.5,52,93.5,55.7z"/>
<path style="fill:#040000;" d="M90.5,61.3c-0.8,0-1.7-0.3-2.6-0.8c-3.2-1.8-5.6-6.5-5.6-10.6c0-2.4,0.9-4.3,2.4-5.1
	c1.3-0.8,2.9-0.7,4.5,0.3c3.2,1.8,5.6,6.5,5.6,10.6c0,2.4-0.9,4.3-2.4,5.1C91.8,61.2,91.2,61.3,90.5,61.3z M86.5,46.8
	c-0.2,0-0.5,0-0.7,0.2c-0.7,0.4-1.1,1.5-1.1,2.9c0,3.2,2,7.1,4.4,8.4c0.6,0.3,1.4,0.6,2,0.3c0.7-0.4,1.1-1.5,1.1-2.9
	c0-3.2-2-7.1-4.4-8.4C87.5,47,87,46.8,86.5,46.8z"/>
<ellipse transform="matrix(0.9202 -0.3916 0.3916 0.9202 -11.3106 31.4704)" style="fill:#FF4242;" cx="71.5" cy="43.5" rx="4.3" ry="7.7"/>
<path style="fill:#040000;" d="M73.5,52c-0.8,0-1.7-0.3-2.6-0.8c-3.2-1.8-5.6-6.5-5.6-10.6c0-2.4,0.9-4.3,2.4-5.1
	c1.3-0.8,2.9-0.7,4.5,0.3c3.2,1.8,5.6,6.5,5.6,10.6c0,2.4-0.9,4.3-2.4,5.1C74.8,51.8,74.2,52,73.5,52z M69.5,37.5
	c-0.2,0-0.5,0-0.7,0.2c-0.7,0.4-1.1,1.5-1.1,2.9c0,3.2,2,7.1,4.4,8.4c0.6,0.3,1.4,0.6,2,0.3c0.7-0.4,1.1-1.5,1.1-2.9
	c0-3.2-2-7.1-4.4-8.4C70.5,37.7,70,37.5,69.5,37.5z"/>
<ellipse transform="matrix(0.3915 -0.9202 0.9202 0.3915 18.7464 145.2566)" style="fill:#FF4242;" cx="119.2" cy="58.5" rx="16.1" ry="9.1"/>
<path style="fill:#040000;" d="M115,75c-1.2,0-2.3-0.3-3.3-0.9c-2.7-1.6-4.3-5.1-4.3-9.6c0-8.1,5-17.6,11.1-21.1
	c2.9-1.7,5.8-1.9,8.1-0.6c2.7,1.6,4.3,5.1,4.3,9.6c0,8.1-5,17.6-11.1,21.1C118.2,74.5,116.6,75,115,75z M123.4,44.5
	c-1.1,0-2.3,0.4-3.5,1.1c-5.4,3.1-9.9,11.6-9.9,18.9c0,3.6,1.1,6.3,3,7.4c1.5,0.9,3.5,0.7,5.6-0.6c5.4-3.1,9.9-11.6,9.9-18.9
	c0-3.6-1.1-6.3-3-7.4C124.8,44.7,124.1,44.5,123.4,44.5z"/>
<ellipse style="fill:#FF4242;" cx="96.1" cy="21.8" rx="14.3" ry="9.9"/>
<path style="fill:#040000;" d="M96.1,33c-8.6,0-15.5-5-15.5-11.2c0-6.2,7-11.2,15.5-11.2c8.6,0,15.5,5,15.5,11.2
	C111.6,28,104.6,33,96.1,33z M96.1,13.2c-7.2,0-13,3.9-13,8.7s5.8,8.7,13,8.7c7.2,0,13-3.9,13-8.7S103.2,13.2,96.1,13.2z"/>
<path style="fill:#0082ED;" d="M133.3,95.9l-4.5-2.8c-1.8-1-4.2-0.9-6.8,0.6c-5.8,3.3-10.5,12.3-10.5,20c0,4.3,1.5,7.3,3.8,8.6
	l4.9,3"/>
<path style="fill:#040000;" d="M120.2,126.6c-0.2,0-0.5-0.1-0.7-0.2l-4.9-3c-2.7-1.5-4.4-5-4.4-9.6c0-8.1,5-17.6,11.1-21.1
	c2.9-1.7,5.7-1.9,8-0.6l4.6,2.9c0.6,0.4,0.8,1.2,0.4,1.7c-0.4,0.6-1.2,0.8-1.7,0.4l-4.5-2.8c-1.4-0.8-3.4-0.6-5.5,0.6
	c-5.4,3.1-9.9,11.6-9.9,18.9c0,3.7,1.1,6.4,3.1,7.4l4.9,3.1c0.6,0.4,0.8,1.1,0.4,1.7C121,126.4,120.6,126.6,120.2,126.6z"/>
<ellipse transform="matrix(0.3916 -0.9202 0.9202 0.3916 -24.6949 183.8173)" style="fill:#0070CC;" cx="126.6" cy="110.6" rx="16.1" ry="9.1"/>
<path style="fill:#040000;" d="M122.5,127.1c-1.2,0-2.3-0.3-3.3-0.9c-2.7-1.6-4.3-5.1-4.3-9.6c0-8.1,5-17.6,11.1-21.1
	c2.9-1.7,5.8-1.9,8.1-0.6c2.7,1.6,4.3,5.1,4.3,9.6c0,8.1-5,17.6-11.1,21.1C125.6,126.6,124,127.1,122.5,127.1z M130.8,96.6
	c-1.1,0-2.3,0.4-3.5,1.1c-5.4,3.1-9.9,11.6-9.9,18.9c0,3.6,1.1,6.3,3,7.4c1.5,0.9,3.5,0.7,5.6-0.6c5.4-3.1,9.9-11.6,9.9-18.9
	c0-3.6-1.1-6.3-3-7.4C132.3,96.8,131.6,96.6,130.8,96.6z"/>
<path style="fill:#0082ED;" d="M113.1,148.7l13.6-24.1c-2.3,1.7-6.5,0.7-6.5,0.7c-3.4-2.2-4-7.5-4-7.5l-4.6-2.5l-12.3,23.3"/>
<path style="fill:#040000;" d="M113.1,150c-0.2,0-0.4-0.1-0.6-0.2c-0.6-0.3-0.8-1.1-0.5-1.7l12-21.3c-2,0.2-3.8-0.2-4.1-0.2
	c-0.1,0-0.3-0.1-0.4-0.2c-3.1-2-4.1-6.1-4.4-7.7l-2.9-1.6l-11.7,22.1c-0.3,0.6-1.1,0.9-1.7,0.5c-0.6-0.3-0.9-1.1-0.5-1.7l12.3-23.3
	c0.2-0.3,0.4-0.5,0.7-0.6c0.3-0.1,0.7-0.1,1,0.1l4.6,2.5c0.4,0.2,0.6,0.6,0.7,1c0,0,0.5,4.5,3.2,6.4c1.2,0.2,3.9,0.4,5.2-0.6
	c0.5-0.3,1.1-0.3,1.6,0.1c0.4,0.4,0.6,1,0.3,1.6l-13.6,24.1C114,149.7,113.5,150,113.1,150z"/>
<path style="fill:#0082ED;" d="M110.3,137.2l-4.5-2.8c-1.8-1-4.2-0.9-6.8,0.6c-5.8,3.3-10.5,12.3-10.5,20c0,4.3,1.5,7.3,3.8,8.6
	l4.9,3"/>
<path style="fill:#040000;" d="M97.1,167.9c-0.2,0-0.5-0.1-0.7-0.2l-4.9-3c-2.7-1.5-4.4-5-4.4-9.6c0-8.1,5-17.6,11.1-21.1
	c2.9-1.7,5.7-1.9,8-0.6l4.6,2.9c0.6,0.4,0.8,1.2,0.4,1.7c-0.4,0.6-1.2,0.8-1.7,0.4l-4.5-2.8c-1.4-0.8-3.4-0.6-5.5,0.6
	c-5.4,3.1-9.9,11.6-9.9,18.9c0,3.7,1.1,6.4,3.1,7.4l4.9,3.1c0.6,0.4,0.8,1.1,0.4,1.7C98,167.6,97.6,167.9,97.1,167.9z"/>
<line style="fill:#186AB3;" x1="116.2" y1="117.8" x2="107" y2="135.2"/>
<path style="fill:#040000;" d="M107,136.5c-0.2,0-0.4,0-0.6-0.1c-0.6-0.3-0.9-1.1-0.5-1.7l9.2-17.4c0.3-0.6,1.1-0.9,1.7-0.5
	c0.6,0.3,0.9,1.1,0.5,1.7l-9.2,17.4C107.9,136.2,107.5,136.5,107,136.5z"/>
<polygon style="fill:#0070CC;" points="75.7,131.5 93,140.9 97,144.8 95.2,165.1 67.1,150.2 "/>
<path style="fill:#040000;" d="M95.2,166.4c-0.2,0-0.4,0-0.6-0.1l-28.1-14.9c-0.6-0.3-0.8-1-0.6-1.6l8.5-18.7
	c0.1-0.3,0.4-0.6,0.7-0.7c0.3-0.1,0.7-0.1,1,0.1l17.3,9.4c0.1,0.1,0.2,0.1,0.3,0.2l4,3.9c0.3,0.3,0.4,0.6,0.4,1l-1.8,20.3
	c0,0.4-0.3,0.8-0.7,1C95.6,166.3,95.4,166.4,95.2,166.4z M68.8,149.6l25.3,13.5l1.6-17.8l-3.5-3.3l-16-8.7L68.8,149.6z"/>
<ellipse transform="matrix(0.3915 -0.9202 0.9202 0.3915 -76.7017 187.7521)" style="fill:#0070CC;" cx="103.6" cy="151.9" rx="16.1" ry="9.1"/>
<path style="fill:#040000;" d="M99.4,168.4c-1.2,0-2.3-0.3-3.3-0.9c-2.7-1.6-4.3-5.1-4.3-9.6c0-8.1,5-17.6,11.1-21.1
	c2.9-1.7,5.8-1.9,8.1-0.6c2.7,1.6,4.3,5.1,4.3,9.6c0,8.1-5,17.6-11.1,21.1C102.6,167.9,101,168.4,99.4,168.4z M107.8,137.9
	c-1.1,0-2.3,0.4-3.5,1.1c-5.4,3.1-9.9,11.6-9.9,18.9c0,3.6,1.1,6.3,3,7.4c1.5,0.9,3.5,0.7,5.6-0.6c5.4-3.1,9.9-11.6,9.9-18.9
	c0-3.6-1.1-6.3-3-7.4C109.2,138.1,108.5,137.9,107.8,137.9z"/>
<path style="fill:#0082ED;" d="M71.9,122.9l-4.5-2.8c-1.8-1-4.2-0.9-6.8,0.6c-5.8,3.3-10.5,12.3-10.5,20c0,4.3,1.5,7.3,3.8,8.6
	l4.9,3"/>
<path style="fill:#040000;" d="M58.7,153.5c-0.2,0-0.5-0.1-0.7-0.2l-4.9-3c-2.7-1.5-4.4-5-4.4-9.6c0-8.1,5-17.6,11.1-21.1
	c2.9-1.7,5.7-1.9,8-0.6l4.6,2.9c0.6,0.4,0.8,1.2,0.4,1.7c-0.4,0.6-1.2,0.8-1.7,0.4l-4.5-2.8c-1.4-0.8-3.4-0.6-5.5,0.6
	c-5.4,3.1-9.9,11.6-9.9,18.9c0,3.7,1.1,6.4,3.1,7.4l4.9,3.1c0.6,0.4,0.8,1.1,0.4,1.7C59.6,153.3,59.1,153.5,58.7,153.5z"/>
<path style="fill:#0070CC;" d="M75.7,131.5c0,7.7-4.7,16.7-10.5,20c-5.8,3.3-10.5-0.2-10.5-7.9c0-7.7,4.7-16.7,10.5-20
	C71,120.2,75.7,123.8,75.7,131.5z"/>
<path style="fill:#040000;" d="M61,154.1c-1.2,0-2.3-0.3-3.3-0.9c-2.7-1.6-4.3-5.1-4.3-9.6c0-8.1,5-17.6,11.1-21.1
	c2.9-1.7,5.8-1.9,8.1-0.6c2.7,1.6,4.3,5.1,4.3,9.6c0,8.1-5,17.6-11.1,21.1C64.2,153.6,62.6,154.1,61,154.1z M69.4,123.6
	c-1.1,0-2.3,0.4-3.5,1.1c-5.4,3.1-9.9,11.6-9.9,18.9c0,3.6,1.1,6.3,3,7.4c1.5,0.9,3.5,0.7,5.6-0.6c5.4-3.1,9.9-11.6,9.9-18.9
	c0-3.6-1.1-6.3-3-7.4C70.8,123.7,70.1,123.6,69.4,123.6z"/>
<line style="fill:#186AB3;" x1="75.6" y1="133.7" x2="97" y2="144.8"/>
<path style="fill:#040000;" d="M97,146.1c-0.2,0-0.4,0-0.6-0.1L75,134.9c-0.6-0.3-0.9-1.1-0.5-1.7c0.3-0.6,1.1-0.9,1.7-0.5
	l21.5,11.1c0.6,0.3,0.9,1.1,0.5,1.7C97.9,145.8,97.5,146.1,97,146.1z"/>
</svg>
