<?xml version="1.0" encoding="utf-8"?>
<!-- Generator: Adobe Illustrator 23.0.2, SVG Export Plug-In . SVG Version: 6.00 Build 0)  -->
<svg version="1.1" id="레이어_1" xmlns="http://www.w3.org/2000/svg" xmlns:xlink="http://www.w3.org/1999/xlink" x="0px"
	 y="0px" viewBox="0 0 352 317" style="enable-background:new 0 0 352 317;" xml:space="preserve">
<style type="text/css">
	.st0{fill:#FFFFFF;}
	.st1{fill:#673101;}
	.st2{fill:#00A2E7;}
	.st3{fill:#008AC4;}
	.st4{fill:#FFB400;}
	.st5{fill:#DD9900;}
	.st6{fill:#FFE4A9;}
	.st7{fill:#FFC0BB;}
	.st8{fill:#353535;}
	.st9{fill:#EFE630;}
	.st10{fill:#C93C1B;}
	.st11{fill:#D34A20;}
	.st12{fill:#EDC932;}
	.st13{fill:#4D5B77;}
	.st14{fill:#384559;}
	.st15{fill:#BC3617;}
	.st16{fill:#7888A3;}
	.st17{fill:#8393AA;}
</style>
<title>자산 8</title>
<g>
	<path class="st0" d="M118.5,85.1l-0.3-0.1c-4.9-1.1-8-6-6.9-10.9l0,0c0.9-3.9-0.9-8.8-1.6-10.3c-0.8-1.3-2.2-3.2-3.6-3.3
		c-3.2-0.3-9.1,4.5-11.9,7.8c-3.2,3.9-9,4.4-12.8,1.2s-4.4-9-1.2-12.8l0,0c1.3-1.6,13.2-15.5,27.3-14.4c5.1,0.4,12.4,2.9,18.1,12.5
		l0.3,0.5c0.6,1.2,5.7,11.7,3.2,22.7C128.1,82.9,123.4,86,118.5,85.1z"/>
	<path class="st1" d="M95.2,62.2c-0.7-0.1-1.4,0-2.1,0.3c1.7-1.1,2.2-3.4,1.1-5.1s-3.4-2.2-5.1-1.1c1.6-1.2,1.8-3.5,0.6-5.1
		c-0.6-0.7-1.3-1.2-2.2-1.3c-0.2,0-0.3,0-0.5,0c-2.5,2-4.8,4.3-6.9,6.7c-3.2,3.9-2.7,9.6,1.2,12.9c3.9,3.2,9.6,2.7,12.8-1.2
		c1.1-1.3,2.4-2.5,3.7-3.6C97.5,63.4,96.5,62.5,95.2,62.2z"/>
</g>
<g>
	<path class="st0" d="M149.1,76.8c0.1,0,0.2-0.1,0.3-0.2c4.5-2.4,6.1-8,3.7-12.4c-1.9-3.5-1.6-8.8-1.3-10.4c0.4-1.5,1.2-3.7,2.6-4.2
		c3-1.2,10,1.8,13.6,4.2c4.2,2.8,9.9,1.7,12.7-2.5s1.7-9.8-2.4-12.6c-1.7-1.2-17.1-11.3-30.4-6.3c-4.9,1.8-11.2,6.3-14,17.2
		l-0.1,0.6c-0.2,1.3-2.2,12.9,3.2,22.9C139.3,77.3,144.6,79,149.1,76.8z"/>
	<path class="st1" d="M165.2,48.2c0.7-0.3,1.4-0.4,2.1-0.3c-1.9-0.6-3-2.7-2.4-4.6c0.6-1.9,2.7-3,4.6-2.4c-1.9-0.8-2.8-2.9-2-4.8
		c0.3-0.8,1-1.5,1.8-1.9c0.1,0,0.2-0.1,0.4-0.1c3,1.3,5.9,2.8,8.6,4.6c4.2,2.9,5.2,8.6,2.3,12.8c-2.9,4.1-8.5,5.2-12.6,2.4
		c-1.5-1-3-1.8-4.6-2.5C163.3,50,164.1,48.8,165.2,48.2z"/>
</g>
<g>
	<path class="st2" d="M155.1,55.7c0,0,14.7-1.8,37.8,8.6l21.1,87.2V214c0,20.8-25.4,37.6-56.7,37.6s-56.7-16.8-56.7-37.6V98.9
		C100.7,98.9,100.7,55.6,155.1,55.7z"/>
	<path class="st3" d="M196.1,209L196.1,209v-28.1c0-9.9,8.1-18,18-18V214c0,4.4-1.2,8.8-3.3,12.7C202.2,225.1,196.1,217.7,196.1,209
		z"/>
</g>
<g>
	<path class="st4" d="M100.6,166v-3.3H90c-4.4-2.9-1.9-9.7-1.9-9.7l0,0c6.3-12.7,1-28.1-11.7-34.3s-28.1-1-34.3,11.7
		c-3.3,6.6-3.5,14.3-0.7,21.2l0,0v0.1l0,0c0.3,0.8,3.8,9.5,10,14.4c0,0-4.4,2.8-8.8,11.2c-0.1,0.2-0.2,0.4-0.3,0.6s-0.2,0.4-0.4,0.7
		l0,0c-6.1,12.8-0.7,28.1,12.1,34.2c12.8,6.1,28.1,0.7,34.2-12.1c3.5-7.3,3.3-15.9-0.5-23.1c-0.5-2.4-1.4-6.3,2.2-8.4h10.6
		L100.6,166L100.6,166z M64.5,136c6.5,0,9.1,3.3,9.1,9.8s-2.6,10.5-9.1,10.5s-8.9-4-8.9-10.5S58,136.1,64.5,136L64.5,136z
		 M64.5,195.2c-6.5,0-8.9-3.3-8.9-9.8S58,175,64.5,175s9.1,4,9.1,10.5S71,195.3,64.5,195.2L64.5,195.2z"/>
	<path class="st5" d="M102.2,173.3c0,0.9-0.7,1.6-1.6,1.6l0,0c-0.9,0-1.6-0.7-1.6-1.6l0,0v-15.2c0-0.9,0.7-1.6,1.6-1.6l0,0l0,0
		c0.9,0,1.6,0.7,1.6,1.6V173.3z"/>
	<path class="st6" d="M85,145.8L85,145.8c1.3,0,2.3-1.1,2.3-2.4c0-9.6-5.6-18.3-14.3-22.3c-1.2-0.5-2.6,0.2-3,1.4
		c-0.4,1.2,0.1,2.5,1.2,3l0,0c6.9,3.3,11.4,10.3,11.3,18C82.6,144.7,83.7,145.8,85,145.8L85,145.8z"/>
</g>
<path class="st0" d="M176,57.8c34.4,5.1,37.1,35.9,37.6,41.2c10.3,2.2,16.5,11.9,16.5,23.2v2.4c0,16.9-13.7,30.7-30.6,30.7h-11.7
	c-29.8,0-47-22-47-49.1S155.1,55,176,57.8z"/>
<path class="st7" d="M203.4,121.3c0,9.7-7.9,17.6-17.6,17.6s-17.6-7.9-17.6-17.6s7.9-17.6,17.6-17.6l0,0
	C195.5,103.8,203.4,111.6,203.4,121.3z"/>
<g>
	<path d="M229.2,110.4c0.4,1.2,0.4,2.2-0.5,2.9s-2.6-0.3-3.1-1.6s-0.2-2.9,1-3.1S228.8,109.4,229.2,110.4z"/>
	<path d="M208.5,100.2L208.5,100.2c2,0,3.6,1.6,3.6,3.6v0.5c0,2-1.6,3.6-3.6,3.6l0,0c-2,0-3.6-1.6-3.6-3.6v-0.5
		C204.9,101.8,206.6,100.2,208.5,100.2z"/>
	<path d="M230.8,119.9c-0.1-0.7-0.3-1.5-0.7-2.1c-0.1-0.1-0.2-0.2-0.4-0.2c-0.4,0.1-0.7,0.3-0.9,0.5c0,0-4.5,4.7-9.7,4.6l-4.9-0.1
		c-1,0.1-1.7,0.9-1.6,1.9c0.1,0.9,0.7,1.5,1.6,1.6h5.2c4.6,0,8.5-2.7,10.5-4.3C230.6,122.8,230.8,120.9,230.8,119.9z"/>
</g>
<path class="st8" d="M264.9,185.8L238.7,172l6.5-12.2c1-1.8,0.3-4.1-1.6-5.1s-4.1-0.3-5.1,1.6l-16,30.2c-1,1.8-0.3,4.1,1.6,5.1
	c1.8,1,4.1,0.3,5.1-1.6l6.5-12.3l26.2,13.8L264.9,185.8z"/>
<g>
	<path class="st0" d="M214.8,193h-0.3c-34.5,4-45-17.2-45.4-18.2c-1.7-3.5-0.2-7.7,3.3-9.4s7.7-0.2,9.4,3.3
		c0.4,0.7,7.2,12.9,30.7,10.3c7-1.7,13-6.4,16.4-12.9c1.8-3.5,6.4-4.3,9.7-2.3c3.2,2.1,4.2,6.4,2.3,9.7c-5.4,9.9-14.8,17-25.9,19.4
		L214.8,193L214.8,193z"/>
	<path class="st3" d="M206.9,193.6c2.5,0,5.1-0.2,7.6-0.5h0.3l0.3-0.1c11-2.3,20.5-9.4,25.9-19.3c2-3.3,1-7.6-2.3-9.7
		c-3.3-2-7.9-1.2-9.7,2.3c-3.4,6.4-9.3,11.1-16.4,12.9c-2.7,0.3-5.4,0.4-8.1,0.3L206.9,193.6z"/>
</g>
<path class="st9" d="M302.1,177.2c10.8,0,19.5,9.6,19.5,21.5s-8.7,21.5-19.5,21.5V177.2z"/>
<g>
	<path class="st10" d="M302.1,252.3c0.1,2.7-2,5-4.7,5H259c-2.7-0.1-4.8-2.4-4.7-5V149c-0.1-2.7,2-4.9,4.7-5h38.4
		c2.7,0.1,4.8,2.3,4.7,5V252.3z"/>
	<path class="st11" d="M297.4,153.8H259c-2.6,0-4.7,2.1-4.7,4.7l0,0v39.9h-156v-21.2c0-2.6-2.1-4.7-4.7-4.7l0,0h-3.1
		c-2.6,0-4.7,2.1-4.7,4.7l0,0v82h171.5c0.5,0.2,1.1,0.3,1.7,0.3h38.4c0.6,0,1.1-0.1,1.7-0.3h3V158.5
		C302.1,156,300,153.8,297.4,153.8z"/>
</g>
<path class="st12" d="M80.9,218.6h4.9v16.3h-4.9c-2.6,0-4.7-2.1-4.7-4.7l0,0v-6.9C76.2,220.7,78.3,218.6,80.9,218.6L80.9,218.6z"/>
<g>
	<g>
		<path class="st13" d="M104.7,258.7c0-15.7,12.7-28.5,28.5-28.5c15.7,0,28.5,12.7,28.5,28.5s-12.7,28.5-28.5,28.5l0,0
			C117.4,287.2,104.7,274.5,104.7,258.7z"/>
		<path class="st14" d="M133.2,275.5c-9.2,0-16.7-7.5-16.7-16.7c0-9.2,7.5-16.7,16.7-16.7s16.7,7.5,16.7,16.7l0,0
			C149.8,268,142.4,275.4,133.2,275.5z"/>
	</g>
	<path class="st15" d="M133.2,224.7c-18.8,0-34.1,15.9-34.1,35.6v6.5h4.9v-6.5l0,0c0-16.8,13.1-30.4,29.2-30.4s29.2,13.6,29.2,30.4
		l0,0v6.5h4.9v-6.5C167.3,240.6,152,224.7,133.2,224.7z"/>
</g>
<g>
	<g>
		<path class="st13" d="M214.1,257.8c0-15.7,12.7-28.5,28.5-28.5c15.7,0,28.5,12.7,28.5,28.5c0,15.7-12.7,28.5-28.5,28.5l0,0
			C226.8,286.3,214.1,273.6,214.1,257.8z"/>
		<path class="st14" d="M242.5,274.6c-9.2,0-16.7-7.5-16.7-16.7c0-9.2,7.5-16.7,16.7-16.7s16.7,7.5,16.7,16.7
			C259.2,267.1,251.7,274.6,242.5,274.6z"/>
	</g>
	<path class="st15" d="M242.5,223.8c-18.8,0-34.1,15.9-34.1,35.6v6.5h4.9v-6.5l0,0c0-16.8,13.1-30.4,29.2-30.4s29.2,13.6,29.2,30.4
		l0,0v6.5h4.9v-6.5C276.6,239.7,261.4,223.8,242.5,223.8z"/>
</g>
<g>
	<path class="st16" d="M309.1,242.9c0,1.9-1.1,3.5-2.4,3.5h-14.3c-1.3,0-2.4-1.6-2.4-3.5l0,0c0-2,1.1-3.5,2.4-3.5h14.3
		C308,239.3,309.1,240.9,309.1,242.9z"/>
	<rect x="294.3" y="246.4" class="st17" width="10.5" height="10.6"/>
	<path class="st16" d="M306.7,257h-14.3c-1.3,0-2.4,1.6-2.4,3.5s1.1,3.5,2.4,3.5h14.3c1.3,0,2.4-1.6,2.4-3.5S308,257,306.7,257z"/>
</g>
<g>
	<path class="st16" d="M94.5,242.9c0,1.9-1.1,3.5-2.4,3.5H77.8c-1.3,0-2.4-1.6-2.4-3.5l0,0c0-2,1.1-3.5,2.4-3.5h14.3
		C93.4,239.3,94.5,240.9,94.5,242.9L94.5,242.9z"/>
	<rect x="79.7" y="246.4" class="st17" width="10.5" height="10.6"/>
	<path class="st16" d="M92.1,257H77.8c-1.3,0-2.4,1.6-2.4,3.5s1.1,3.5,2.4,3.5h14.3c1.3,0,2.4-1.6,2.4-3.5S93.4,257,92.1,257z"/>
</g>
</svg>
