<?xml version="1.0" encoding="utf-8"?>
<!-- Generator: Adobe Illustrator 24.1.1, SVG Export Plug-In . SVG Version: 6.00 Build 0)  -->
<svg version="1.1" id="Layer_1" xmlns="http://www.w3.org/2000/svg" xmlns:xlink="http://www.w3.org/1999/xlink" x="0px" y="0px"
	 viewBox="0 0 180 240" style="enable-background:new 0 0 180 240;" xml:space="preserve">
<g>
	<path style="fill:#FFFFFF;" d="M100.37,171.47v31.88c0,0-2.37,0.59-5.51,0.59s-5.51-0.59-5.51-0.59v-31.88
		c0-2.13,5.14-3.82,7.24-3.82C98.68,167.65,100.37,169.35,100.37,171.47z"/>
	<path style="fill-rule:evenodd;clip-rule:evenodd;fill:#009FF9;" d="M115.38,233.54c-2.13,2.42-5.22,2.72-8.23,2.72
		c-1,0-1.96-0.03-2.91-0.03h-9.2l-0.94-0.11c-2.13-0.38-4.76-1.99-4.76-3.9v-28.87c0,0,2.37,0.59,5.51,0.59s5.51-0.59,5.51-0.59
		v12.13h0.24c0.3,0,0.62,0,0.94,0.03c0.22,0,0.43,0.03,0.65,0.05c0.54,0.05,1.13,0.11,1.78,0.24c0.05,0.03,0.27,0.05,0.27,0.05
		c4.84,1.05,9.04,4.3,11.3,8.72C116.75,226.97,117.29,231.36,115.38,233.54z"/>
	<path d="M118.42,223.12c-2.69-5.27-7.72-9.15-13.5-10.41l-0.19-0.05c-0.4-0.05-0.75-0.13-1.13-0.19v-41c0-3.9-3.15-7.05-7.02-7.05
		c-2.21,0-10.46,1.75-10.46,7.05v60.74c0,3.71,3.82,6.43,7.42,7.08c0.08,0.03,0.16,0.03,0.24,0.05l0.94,0.08
		c0.11,0.03,0.22,0.03,0.32,0.03h9.2c0.43,0,0.89,0,1.35,0.03h1.56c3.6,0,7.72-0.46,10.65-3.82
		C120.84,232.19,119.98,226.22,118.42,223.12z M115.38,233.54c-2.13,2.42-5.22,2.72-8.23,2.72c-1,0-1.96-0.03-2.91-0.03h-9.2
		l-0.94-0.11c-2.13-0.38-4.76-1.99-4.76-3.9v-60.74c0-2.13,5.14-3.82,7.24-3.82c2.1,0,3.79,1.69,3.79,3.82v44.01h0.24
		c0.3,0,0.62,0,0.94,0.03c0.19,0,0.43,0.03,0.65,0.05c0.54,0.05,1.13,0.11,1.78,0.24c0.05,0.03,0.27,0.05,0.27,0.05
		c4.84,1.05,9.04,4.3,11.3,8.72C116.75,226.97,117.29,231.36,115.38,233.54z"/>
</g>
<g>
	<path style="fill:#FFFFFF;" d="M77.26,195.85c-0.27,0.16-2.32,1.27-5.14,2.05c-3.04,0.83-5.49,0.89-5.49,0.89l-8.46-30.78
		c-0.57-2.02,0.65-4.12,2.67-4.69c2.02-0.57,7.43-0.27,8,1.78L77.26,195.85z"/>
	<path style="fill-rule:evenodd;clip-rule:evenodd;fill:#009FF9;" d="M81.36,228.76l-0.86,0.35l-2.67,0.73l-2.48,0.7l-3.74,1.02
		c-2.29,0.62-4.82,1.54-7.27,1.54c-1.45,0-2.85-0.32-4.17-1.18c-2.42-1.62-3.07-5.98-2.53-8.62c1-4.85,4.2-9.1,8.59-11.39
		c0,0,0.19-0.11,0.24-0.13c1.27-0.62,2.37-1,3.39-1.27l-3.23-11.71c0,0,2.45-0.05,5.49-0.89c2.83-0.78,4.87-1.89,5.14-2.05
		c0.03,0,0.03,0,0.03,0l7.65,27.87C85.45,225.58,83.32,227.82,81.36,228.76z"/>
	<path d="M88.06,222.89l-8.64-31.43l-7.49-27.23c-1.08-3.96-6.46-4.39-8.73-4.39c-0.86,0-2.13,0.05-3.23,0.35
		c-1.8,0.51-3.31,1.7-4.25,3.31c-0.92,1.64-1.16,3.55-0.67,5.36l7.49,27.25l0.97,3.53l2.42,8.81c-0.3,0.13-0.59,0.27-0.89,0.43
		l-0.35,0.16c-5.2,2.72-9.02,7.81-10.23,13.6c-0.7,3.42,0.05,9.4,3.93,11.96c1.72,1.13,3.72,1.72,5.95,1.72
		c2.42,0,4.77-0.67,6.84-1.29c0.43-0.13,0.86-0.24,1.29-0.38l3.74-1.02l2.48-0.67l2.67-0.73c0.11-0.03,0.19-0.08,0.3-0.11l0.89-0.35
		c0.08-0.03,0.16-0.05,0.24-0.11C86.07,230.08,89.03,226.47,88.06,222.89z M81.36,228.76l-0.86,0.35l-2.67,0.73l-2.48,0.7
		l-3.74,1.02c-2.29,0.62-4.82,1.54-7.27,1.54c-1.45,0-2.85-0.32-4.17-1.18c-2.42-1.62-3.07-5.98-2.53-8.62
		c1-4.85,4.2-9.1,8.59-11.39c0,0,0.19-0.11,0.24-0.13c1.27-0.62,2.37-1,3.39-1.27l-3.23-11.71l-0.97-3.53l-7.49-27.25
		c-0.57-2.02,0.65-4.12,2.67-4.69c0.59-0.16,1.43-0.24,2.37-0.24c2.34,0,5.22,0.57,5.63,2.02l7.46,27.23h0.03l0.97,3.53l7.65,27.87
		C85.45,225.58,83.32,227.82,81.36,228.76z"/>
</g>
<g>
	<g>
		<path style="fill:#FFFFFF;" d="M41.48,137.4c-0.92,2.24-1.59,4.5-1.99,6.79c-3.88,1.05-8.54-0.16-11.07-1.54
			c1.59-6.3,4.96-12.33,10.66-17.72c1.27-1.21,3.15-3.31,5.2-3.42C51.93,121.16,42.45,135.06,41.48,137.4z"/>
	</g>
	<path style="fill:#0088C5;" d="M37.6,169.29c-0.4,0.05-0.81,0.08-1.24,0.08c-0.22,0-0.46,0-0.67-0.03
		c-1.45-0.08-2.96-0.43-3.85-1.1c-4.2-3.12-4.36-8.67-4.63-13.03c-0.13-2.26-0.08-4.55,0.16-6.81c0-0.11,0.03-0.35,0.08-0.73
		c0.05-0.35,0.11-0.81,0.16-1.32c0.05-0.3,0.08-0.62,0.13-0.94c0.13-1.05,0.32-2.07,0.48-2.53c0.03-0.05,0.08-0.11,0.11-0.16
		c0.03-0.03,0.05-0.05,0.08-0.05c2.53,1.37,7.19,2.59,11.07,1.54c-0.11,0.62-0.22,1.24-0.3,1.86c-0.03,1.35,0,2.77-0.03,3.04
		c-0.27,4.55,1.24,8.13,2.56,12.36C42.72,164.63,43.07,168.64,37.6,169.29z"/>
	<path d="M44.12,158.35c-1.02-3.15-1.91-5.9-1.72-9.08c0-0.13,0.03-0.48,0.03-0.97c0-0.51-0.03-1.27,0-1.99
		c0.38-2.72,1.05-5.28,2.05-7.67c0.11-0.27,0.62-1.16,1.02-1.86c3.47-6.17,6.44-12.04,4.2-15.83c-0.59-1-2.02-2.67-5.14-2.67h-0.43
		c-3.02,0.13-5.28,2.37-6.79,3.85l-0.48,0.46c-5.63,5.33-9.43,11.58-11.36,18.55c-0.75,1.43-1,3.74-1.35,6.87
		c-0.24,2.42-0.3,4.9-0.16,7.38l0.05,0.51c0.27,4.66,0.65,11.01,5.87,14.92c1.72,1.29,3.99,1.67,5.6,1.75
		c0.3,0.03,0.59,0.03,0.86,0.03c0.57,0,1.1-0.03,1.62-0.08c2.94-0.35,5.09-1.54,6.38-3.5c1.4-2.18,1.56-4.96,0.46-8.54
		C44.58,159.75,44.36,159.05,44.12,158.35z M37.6,169.29c-0.4,0.05-0.81,0.08-1.24,0.08c-0.22,0-0.46,0-0.67-0.03
		c-1.45-0.08-2.96-0.43-3.85-1.1c-4.2-3.12-4.36-8.67-4.63-13.03c-0.13-2.26-0.08-4.55,0.16-6.81c0-0.08,0.03-0.35,0.08-0.73
		c0.03-0.35,0.08-0.81,0.16-1.32c0.03-0.3,0.08-0.62,0.13-0.94c0.13-1.05,0.32-2.07,0.48-2.53c0.05-0.08,0.08-0.16,0.11-0.16
		c0.03-0.03,0.05-0.05,0.08-0.05c0-0.03,0.03-0.03,0.03-0.03c1.59-6.27,4.96-12.31,10.64-17.69c1.27-1.21,3.15-3.31,5.2-3.42h0.27
		c7.14,0-2.1,13.57-3.07,15.89c-0.94,2.24-1.59,4.5-1.99,6.79c-0.11,0.62-0.22,1.24-0.3,1.86c-0.03,1.35,0,2.77-0.03,3.04
		c-0.27,4.55,1.24,8.13,2.56,12.36C42.72,164.63,43.07,168.64,37.6,169.29z"/>
</g>
<g>
	<path style="fill:#FFFFFF;" d="M76.22,47.87c-0.57,0.43-1.1,0.59-1.64,0.59c-2.77,0-5.22-4.77-6.84-6.36
		c-1.21-1.18-2.56-1.67-3.96-1.67c-2.32,0-4.74,1.29-6.79,2.88c0,0.03-2.15,1.86-2.96,2.67v0.03c-1.37,1.43-3.23,2.15-5.06,2.15
		c-1.72,0-3.47-0.62-4.82-1.94c-1.75-1.67-2.45-4.04-2.1-6.25c0.22-1.35,0.83-2.61,1.83-3.69c0.22-0.24,0.83-0.86,1.78-1.72
		c2.91-2.72,6.3-5.01,10.15-6.17c1.8-0.54,3.53-0.81,5.17-0.81c1.48,0,2.94,0.22,4.36,0.62c1.43,0.43,2.85,1.05,4.34,1.86
		c1.21,0.67,2.34,1.54,3.42,2.42C76.51,35.32,80.9,44.29,76.22,47.87z"/>
	<path d="M75.17,29.99c-1.45-1.18-2.69-2.07-3.93-2.75c-1.72-0.94-3.37-1.64-5.01-2.13c-1.75-0.51-3.47-0.75-5.25-0.75
		c-1.99,0-3.99,0.3-6.11,0.94c-3.96,1.21-7.81,3.53-11.42,6.92c-0.92,0.81-1.59,1.51-1.91,1.83c-1.16,1.24-1.99,2.72-2.42,4.31
		c-0.11,0.35-0.19,0.73-0.24,1.1c-0.54,3.34,0.59,6.73,3.04,9.1c1.91,1.83,4.42,2.83,7.06,2.83c2.77,0,5.47-1.16,7.41-3.18
		c0.27-0.27,0.78-0.73,1.32-1.21c0.83-0.67,1.72-1.4,1.83-1.54c1.62-1.16,3.12-1.8,4.25-1.8c0.65,0,1.18,0.24,1.7,0.75
		c0.27,0.27,0.78,0.94,1.24,1.56c1.8,2.4,4.25,5.71,7.86,5.71c1.27,0,2.5-0.43,3.58-1.24c2.13-1.62,3.26-4.01,3.34-6.92
		C81.6,38.53,78.29,32.6,75.17,29.99z M76.22,47.87c-0.57,0.43-1.1,0.59-1.64,0.59c-2.77,0-5.22-4.77-6.84-6.36
		c-1.21-1.18-2.56-1.67-3.96-1.67c-2.32,0-4.74,1.29-6.79,2.88c0,0.03-2.15,1.86-2.96,2.67v0.03c-1.37,1.43-3.23,2.15-5.06,2.15
		c-1.72,0-3.47-0.62-4.82-1.94c-1.75-1.67-2.45-4.04-2.1-6.25c0.22-1.35,0.83-2.61,1.83-3.69c0.22-0.24,0.83-0.86,1.78-1.72
		c1.18-1.1,2.45-2.15,3.8-3.07c1.97-1.32,4.07-2.42,6.36-3.1c1.8-0.54,3.53-0.81,5.17-0.81c1.48,0,2.94,0.22,4.36,0.62
		c1.43,0.43,2.85,1.05,4.34,1.86c1.21,0.67,2.34,1.54,3.42,2.42C76.51,35.32,80.9,44.29,76.22,47.87z"/>
	<path style="fill:#673101;" d="M56.99,43.32c0,0.03-2.15,1.86-2.96,2.67v0.03c-1.37,1.43-3.23,2.15-5.06,2.15
		c-1.72,0-3.47-0.62-4.82-1.94c-1.75-1.67-2.45-4.04-2.1-6.25c0.22-1.35,0.83-2.61,1.83-3.69c0.22-0.24,0.83-0.86,1.78-1.72
		c1.18-1.1,2.45-2.15,3.8-3.07c0.13,0,0.24,0.03,0.35,0.05c0.03,0,0.03,0,0.05,0c0.03,0,0.03,0.03,0.05,0.03
		c1.08,0.3,1.56,1.13,1.56,1.13v0.03c0.43,0.65,0.59,1.45,0.4,2.26c-0.19,0.67-0.59,1.18-1.13,1.56c0.59-0.3,1.29-0.43,1.99-0.24
		c1.48,0.4,2.4,1.94,1.99,3.45c-0.19,0.73-0.65,1.32-1.27,1.7c0.48-0.16,1.05-0.24,1.59-0.11C56.05,41.62,56.72,42.4,56.99,43.32z"
		/>
</g>
<g>
	<path style="fill:#FFFFFF;" d="M128.01,46.23c-1.35,1.32-3.1,1.94-4.82,1.94c-1.86,0-3.69-0.73-5.06-2.15c0,0,0-0.03-0.03-0.03
		c-0.78-0.81-2.94-2.64-2.94-2.67c-2.07-1.59-4.47-2.88-6.79-2.88c-1.4,0-2.75,0.48-3.96,1.67c-1.62,1.59-4.07,6.36-6.84,6.36
		c-0.54,0-1.08-0.16-1.64-0.59c-4.71-3.58-0.3-12.55,3.12-15.38c1.08-0.89,2.21-1.75,3.42-2.42c1.48-0.81,2.91-1.43,4.34-1.86
		c1.43-0.4,2.88-0.62,4.36-0.62c1.64,0,3.37,0.27,5.17,0.81c3.85,1.16,7.24,3.45,10.15,6.17c0.94,0.86,1.56,1.48,1.78,1.72
		c1,1.08,1.59,2.34,1.83,3.69C130.46,42.19,129.76,44.56,128.01,46.23z"/>
	<path d="M133.29,39.44c-0.32-1.99-1.24-3.85-2.64-5.36c-0.35-0.35-1.02-1.05-1.97-1.91c-0.35-0.32-0.7-0.65-1.05-0.94
		c-3.29-2.83-6.76-4.82-10.34-5.92c-2.13-0.65-4.12-0.94-6.11-0.94c-1.78,0-3.5,0.24-5.28,0.75c-1.62,0.48-3.26,1.18-4.98,2.13
		c-1.24,0.67-2.48,1.56-3.93,2.75c-3.12,2.61-6.44,8.54-6.33,13.55c0.05,2.91,1.21,5.31,3.34,6.92c1.08,0.81,2.32,1.24,3.58,1.24
		c3.61,0,6.06-3.31,7.86-5.71c0.46-0.62,0.94-1.29,1.24-1.56c0.51-0.51,1.05-0.75,1.7-0.75c1.13,0,2.64,0.65,4.25,1.8
		c0.16,0.22,2.37,1.97,3.1,2.69c0.03,0.03,0.03,0.03,0.05,0.05c1.91,2.02,4.63,3.18,7.41,3.18c2.64,0,5.14-1,7.06-2.83
		C132.7,46.2,133.83,42.81,133.29,39.44z M128.01,46.23c-1.35,1.32-3.1,1.94-4.82,1.94c-1.86,0-3.69-0.73-5.06-2.15
		c0,0,0-0.03-0.03-0.03c-0.78-0.81-2.94-2.64-2.94-2.67c-2.07-1.59-4.47-2.88-6.79-2.88c-1.4,0-2.75,0.48-3.96,1.67
		c-1.62,1.59-4.07,6.36-6.84,6.36c-0.54,0-1.08-0.16-1.64-0.59c-4.71-3.58-0.3-12.55,3.12-15.38c1.08-0.89,2.21-1.75,3.42-2.42
		c1.48-0.81,2.91-1.43,4.34-1.86c1.43-0.4,2.88-0.62,4.36-0.62c1.64,0,3.37,0.27,5.17,0.81c2.29,0.67,4.39,1.78,6.36,3.12h0.03
		c1.35,0.92,2.59,1.94,3.77,3.04c0.94,0.86,1.56,1.48,1.78,1.72c1,1.08,1.59,2.34,1.83,3.69C130.46,42.19,129.76,44.56,128.01,46.23
		z"/>
	<path style="fill:#673101;" d="M128.01,46.23c-1.35,1.32-3.1,1.94-4.82,1.94c-1.86,0-3.69-0.73-5.06-2.15c0,0,0-0.03-0.03-0.03
		c-0.78-0.81-2.94-2.64-2.94-2.67c0.27-0.92,0.94-1.7,1.94-1.97c0.54-0.13,1.08-0.05,1.59,0.11c-0.62-0.38-1.08-0.97-1.27-1.7
		c-0.4-1.51,0.51-3.04,1.99-3.45c0.7-0.19,1.37-0.05,1.99,0.24c-0.54-0.38-0.94-0.89-1.13-1.56c-0.24-0.97,0.05-1.97,0.7-2.64
		c0.78-0.78,1.59-0.83,1.72-0.83h0.03c1.35,0.92,2.59,1.94,3.77,3.04c0.94,0.86,1.56,1.48,1.78,1.72c1,1.08,1.59,2.34,1.83,3.69
		C130.46,42.19,129.76,44.56,128.01,46.23z"/>
</g>
<g>
	<path d="M131.07,121.62c0.28,0,0.59,0.04,0.94,0.12c1.84,0.44,3.31,2.87,4.33,4.28c4.56,6.32,6.93,12.89,7.68,19.4
		c0.02,0.01,0.05,0.01,0.07,0.02c0.41,0.12,0.36,5.37,0.35,5.89c-0.02,2.3-0.23,4.57-0.59,6.8c-0.7,4.28-1.45,9.78-5.56,12.17
		c-0.63,0.37-1.51,0.52-2.43,0.52c-0.38,0-0.77-0.03-1.16-0.07c-0.61-0.08-1.2-0.21-1.72-0.37c-5.28-1.7-4.14-5.53-2.54-8.55
		c2.08-3.92,3.22-7.98,3.49-12.38c0.02-0.45,0.05-0.9,0.05-1.36c0.01-0.33,0.01-0.65,0.01-0.98c-0.01-0.82-0.04-1.65-0.1-2.48
		c-0.01-0.12-0.01-0.25-0.02-0.37c-0.17-2.07-0.5-4.16-1.03-6.25C132.25,135.64,125.84,121.62,131.07,121.62 M131.07,118.39
		c-1.76,0-3.25,0.75-4.2,2.12c-2.36,3.39-0.44,9.35,2.11,16.23c0.3,0.8,0.66,1.79,0.73,2.07c0.47,1.86,0.79,3.78,0.94,5.72
		l0.02,0.34c0.05,0.75,0.08,1.51,0.09,2.26c0,0.29-0.01,0.58-0.01,0.87c-0.01,0.45-0.03,0.86-0.05,1.27
		c-0.25,3.92-1.27,7.54-3.12,11.04c-0.65,1.23-2.63,4.97-1.2,8.49c0.88,2.17,2.76,3.73,5.6,4.64c0.72,0.23,1.52,0.41,2.31,0.5
		c0.53,0.07,1.05,0.1,1.56,0.1c1.6,0,2.97-0.32,4.06-0.96c5.28-3.07,6.3-9.36,7.05-13.96l0.08-0.48c0.4-2.44,0.61-4.89,0.64-7.29
		c0.04-3.43,0.06-5.73-0.55-7.18c-0.97-7.15-3.71-13.89-8.16-20.05l-0.38-0.54c-1.2-1.72-3.02-4.32-5.82-4.99
		C132.18,118.46,131.61,118.39,131.07,118.39L131.07,118.39z"/>
	<path style="fill:#FFFFFF;" d="M144.03,145.44c-2.64-0.78-6.3-1.51-10.15-1.27c0.03,0.3,0.05,0.59,0.05,0.89
		c-0.13-2.34-0.48-4.69-1.08-7.06c-0.65-2.5-7.7-17.91-0.83-16.27c1.83,0.43,3.31,2.88,4.31,4.28
		C140.9,132.35,143.27,138.92,144.03,145.44z"/>
	<path style="fill:#0088C5;" d="M144.43,151.34c-0.03,2.29-0.22,4.58-0.59,6.79c-0.7,4.28-1.45,9.78-5.55,12.17
		c-0.89,0.51-2.29,0.62-3.61,0.46c-0.59-0.08-1.18-0.22-1.7-0.38c-5.28-1.7-4.15-5.52-2.56-8.56c2.1-3.96,3.26-8.05,3.53-12.5
		c0.03-0.67,0.05-1.35,0.05-2.02c0-0.73-0.03-1.48-0.08-2.24c0-0.3-0.03-0.59-0.05-0.89c3.85-0.24,7.51,0.48,10.15,1.27
		c0.03,0,0.03,0,0.05,0C144.49,145.55,144.43,150.83,144.43,151.34z"/>
</g>
<g>
	<path style="fill-rule:evenodd;clip-rule:evenodd;fill:#009FF9;" d="M131.67,146.3c0.43,8.05-1.56,19.87-6.92,26.8
		c-6.33,8.16-17.88,13.49-31.67,14.62c-1.64,0.13-3.45,0.22-5.17,0.22h-3.66c-1.72,0-3.53-0.08-5.17-0.22
		c-13.79-1.13-25.34-6.46-31.67-14.62c-5.36-6.92-7.35-18.74-6.92-26.8c0.24-4.5,1.24-9.05,2.18-13.47c0.51-2.26,1-4.52,1.4-6.76
		c0.43-2.53,0.16-7.22,0.13-7.46c-0.32-3.53-1.37-6.79-2.34-9.53c-3.88-10.83-4.52-20.95-2.07-31.86
		c2.24-9.86,6.92-18.2,12.82-22.94c9.88-7.86,21.33-12.39,31.45-12.39h4.04c10.13,0,21.57,4.52,31.45,12.39
		c5.9,4.74,10.58,13.09,12.82,22.94c2.45,10.91,1.8,21.03-2.07,31.86c-0.97,2.75-2.02,6.01-2.34,9.59c-0.03,0.19-0.3,4.87,0.16,7.41
		c0.38,2.26,0.89,4.52,1.37,6.79C130.46,137.25,131.43,141.81,131.67,146.3z"/>
	<path d="M132.64,132.16c-0.48-2.21-0.97-4.44-1.35-6.65c-0.32-1.78-0.19-5.41-0.13-6.6c0.3-3.15,1.27-6.19,2.18-8.75
		c4.04-11.26,4.74-22.27,2.18-33.66c-2.4-10.56-7.49-19.58-13.98-24.75c-10.42-8.32-22.59-13.09-33.45-13.09h-4.04
		c-10.85,0-23.03,4.77-33.45,13.09c-6.49,5.17-11.58,14.19-13.98,24.75c-2.56,11.39-1.86,22.41,2.18,33.66
		c0.92,2.56,1.89,5.6,2.18,8.7c0.05,1.24,0.19,4.87-0.13,6.65c-0.38,2.21-0.86,4.42-1.35,6.62c-1,4.55-2.02,9.24-2.26,14
		c-0.46,8.91,1.7,21.33,7.59,28.92c6.89,8.89,19.28,14.68,33.96,15.89c1.75,0.13,3.64,0.22,5.44,0.22h3.66
		c1.83,0,3.69-0.08,5.44-0.22c14.68-1.21,27.06-7,33.96-15.89c5.9-7.59,8.05-20.01,7.59-28.92
		C134.66,141.37,133.63,136.69,132.64,132.16z M87.91,187.94h-3.66c-1.72,0-3.53-0.08-5.17-0.22c-13.79-1.13-25.34-6.46-31.67-14.62
		c-5.36-6.92-7.35-18.74-6.92-26.8c0.24-4.5,1.24-9.05,2.18-13.47c0.51-2.26,1-4.52,1.4-6.76c0.43-2.53,0.16-7.22,0.13-7.46
		c-0.32-3.53-1.37-6.79-2.34-9.53c-3.88-10.83-4.52-20.95-2.07-31.86c2.24-9.86,6.92-18.2,12.82-22.94
		c9.88-7.86,21.33-12.39,31.45-12.39h4.04c10.13,0,21.57,4.52,31.45,12.39c5.9,4.74,10.58,13.09,12.82,22.94
		c2.45,10.91,1.8,21.03-2.07,31.86c-0.97,2.75-2.02,6.01-2.34,9.59c-0.03,0.19-0.3,4.87,0.16,7.41c0.38,2.26,0.89,4.52,1.37,6.79
		c0.97,4.39,1.94,8.94,2.18,13.44c0.43,8.05-1.56,19.87-6.92,26.8c-6.33,8.16-17.88,13.49-31.67,14.62
		C91.43,187.86,89.63,187.94,87.91,187.94z"/>
</g>
</svg>
