<?xml version="1.0" encoding="utf-8"?>
<!-- Generator: Adobe Illustrator 24.1.1, SVG Export Plug-In . SVG Version: 6.00 Build 0)  -->
<svg version="1.1" id="Layer_1" xmlns="http://www.w3.org/2000/svg" xmlns:xlink="http://www.w3.org/1999/xlink" x="0px" y="0px"
	 viewBox="0 0 200 240" style="enable-background:new 0 0 200 240;" xml:space="preserve">
<g>
	<path style="fill:#606227;" d="M111.02,168.7c-9.67-0.49-20.82-5.16-23.07-16.82l3.74-0.72c1.84,9.5,11.29,13.33,19.53,13.75
		c4.78,0.24,5.93-5.3,7.41-14.35c0.46-2.8,0.93-5.69,1.61-8.52c2.89-11.93,12.36-19.25,12.76-19.56l2.31,3.03
		c-0.09,0.07-8.8,6.85-11.37,17.43c-0.65,2.68-1.11,5.5-1.56,8.23C120.94,159.98,119.45,169.12,111.02,168.7z"/>
	<path d="M138.62,122.96l-2.31-3.03c-0.82-1.08-2.06-1.64-3.32-1.64c-0.88,0-1.77,0.28-2.53,0.86c-1.13,0.86-11.1,8.78-14.29,21.89
		c-0.72,2.99-1.21,5.96-1.68,8.83c-0.53,3.24-1.63,9.99-2.89,10.87c-2.3-0.12-14.04-1.17-15.82-10.38
		c-0.21-1.09-0.84-2.05-1.76-2.67c-0.7-0.47-1.51-0.72-2.34-0.72c-0.26,0-0.53,0.03-0.79,0.08l-3.74,0.72
		c-2.26,0.44-3.74,2.63-3.3,4.89c2.71,14.03,15.71,19.63,26.96,20.2c0.26,0.01,0.51,0.02,0.77,0.02c11.48,0,13.47-12.17,14.92-21.06
		c0.43-2.65,0.88-5.38,1.49-7.92c2.19-9.02,9.8-15.05,9.87-15.11C139.67,127.38,140.01,124.77,138.62,122.96z M123.94,142.92
		c-0.65,2.68-1.11,5.5-1.56,8.23c-1.41,8.63-2.87,17.56-10.8,17.56c-0.18,0-0.37,0-0.56-0.01c-9.67-0.49-20.82-5.16-23.07-16.82
		l3.74-0.72c1.84,9.5,11.29,13.33,19.53,13.75c0.1,0.01,0.2,0.01,0.29,0.01c4.54,0,5.67-5.49,7.11-14.36
		c0.46-2.8,0.93-5.69,1.61-8.52c2.89-11.93,12.36-19.25,12.76-19.56l2.31,3.03C135.22,125.56,126.5,132.34,123.94,142.92z"/>
</g>
<g>
	<path style="fill:#6FA141;" d="M66.53,163.26c8.83,0,19.19-3.75,21.78-14.26l-3.37-0.83c-2.11,8.57-10.89,11.62-18.41,11.62
		c-4.36,0-5.16-5.09-6.09-13.41c-0.29-2.57-0.59-5.23-1.08-7.83c-2.09-10.99-10.37-18.09-10.72-18.39l-2.24,2.65
		c0.08,0.07,7.7,6.64,9.55,16.39c0.47,2.47,0.76,5.06,1.04,7.57C57.9,154.88,58.84,163.26,66.53,163.26z"/>
	<path d="M48.64,120.16c0.35,0.3,8.63,7.4,10.72,18.39c0.49,2.6,0.79,5.26,1.08,7.83c0.93,8.31,1.72,13.41,6.09,13.41
		c7.52,0,16.3-3.05,18.41-11.62l3.37,0.83c-2.59,10.52-12.95,14.26-21.78,14.26c-7.69,0-8.63-8.38-9.54-16.49
		c-0.28-2.51-0.57-5.1-1.04-7.57c-1.85-9.75-9.48-16.32-9.55-16.39L48.64,120.16 M48.65,115.99c-1.19,0-2.36,0.5-3.19,1.48
		l-2.24,2.65c-1.49,1.76-1.27,4.39,0.49,5.88c0.04,0.04,6.6,5.81,8.15,13.98c0.44,2.33,0.72,4.83,0.99,7.25
		c0.96,8.53,2.26,20.2,13.69,20.2c10.41,0,22.67-4.58,25.83-17.44c0.55-2.24-0.82-4.5-3.05-5.05l-3.37-0.83
		c-0.33-0.08-0.66-0.12-1-0.12c-0.76,0-1.5,0.2-2.16,0.6c-0.95,0.57-1.63,1.5-1.89,2.57c-1.98,8.04-12.3,8.44-14.35,8.44
		c0,0-0.01,0-0.01,0c-0.98-1.23-1.62-6.92-1.93-9.7c-0.3-2.64-0.6-5.38-1.13-8.14c-2.32-12.21-11.13-19.96-12.13-20.8
		C50.56,116.31,49.6,115.99,48.65,115.99L48.65,115.99z"/>
</g>
<g>
	<path style="fill:#458C18;" d="M159.89,224.15c-0.89-0.53-2.2-1.4-4.1-2.82c-2.98-2.22-5.23-3.07-7.09-3.07
		c-2.22,0-3.91,1.21-5.66,2.73c-1.84,1.6-3.6,3.11-7.36,3.01c-4.23-0.11-4.36-1.75-4.65-5.35c-0.23-2.9-0.52-6.52-4.04-8.62
		c-1.75-1.04-3.41-1.37-4.95-0.97c-2.7,0.69-4.23,3.31-5.85,6.08c-1.13,1.92-2.29,3.91-3.87,5.41c-1,0.95-1.73,0.97-2.19,0.9
		c-1.56-0.23-3.16-2.09-4.04-3.35c0.11-0.58-0.03-1.19-0.4-1.68c-4.92-6.39-9.07-9.21-13.11-8.89c-5.06,0.42-7.97,5.86-10.31,10.23
		c-0.97,1.81-1.89,3.53-2.76,4.55c-1.24,1.46-2.66,0.97-6.27-1.22c-2.24-1.36-4.54-2.75-6.84-2.13c-1.2,0.32-2.17,1.14-2.86,2.43
		c-0.32,0.6-1.25,1.08-2.6,1.37c-2.84,0.62-6.62,0.21-9.24-0.38c2.44-1.49,4.53-3.42,6.44-5.19c3.73-3.44,6.16-5.52,9-4.66
		c1.87,0.56,3.13,1.41,4.24,2.17c1.4,0.94,2.85,1.92,4.71,1.45c2.4-0.6,4.35-3.21,9.06-12.15c1.55-2.94,3.38-4.55,5.42-4.77
		c0.43-0.05,0.88-0.04,1.34,0.02c3.37,2.8,5.94,3.89,7.81,4.64c1.14,1.07,2.31,2.32,3.5,3.74c0.62,0.74,1.67,0.96,2.52,0.53
		c0.86-0.42,1.32-1.38,1.12-2.32c-0.8-3.67-2.74-4.68-4.86-5.54c-2.87-2.6-5.61-4.24-8.2-4.92c-0.65-0.57-1.33-1.21-2.05-1.94
		c-20.65-20.86,4.77-61.42,5.1-61.93c3.12-5.6,1.29-10.15-0.18-13.81c-0.54-1.34-1.05-2.61-1.31-3.84c-0.37-1.83,3.1-3.7,5.81-4.64
		c2.86,4,11.37,17.75,1.26,27.2c-13.76,12.85-12.7,30.03-12.05,34.98c0.47,3.51,3.61,6.54,8.35,11.11c1.71,1.65,3.63,3.5,5.67,5.61
		c6.55,6.8,6.9,14.36,6.9,14.43c0.02,0.77,0.47,1.47,1.16,1.81c0.7,0.34,1.52,0.27,2.15-0.18c2.91-2.11,6.02-2.91,8.98-2.3
		c2.93,0.6,5.19,2.46,6.13,4.03l0.56,0.96c2.24,3.82,5.98,10.24,13.12,7.44c2.75-1.07,6.54-0.86,9.65,0.54
		c2.67,1.2,4.63,3.16,5.61,5.84C159.08,221.82,159.55,223.1,159.89,224.15z"/>
	<path d="M162.46,218.92c-1.26-3.41-3.99-6.21-7.7-7.88c-4.14-1.87-9.07-2.11-12.88-0.62c-3.27,1.27-5.1-0.71-7.99-5.66l-0.59-0.99
		c-1.37-2.29-4.42-5.07-8.87-5.98c-2.33-0.48-5.67-0.55-9.45,1.3c-0.75-3.37-2.68-8.78-7.58-13.87c-2.08-2.15-4.03-4.03-5.77-5.71
		c-3.82-3.68-6.84-6.59-7.11-8.65c-0.58-4.46-1.54-19.9,10.76-31.39c11.63-10.87,3.97-26.99-1.7-34c-0.52-0.63-1.35-0.9-2.14-0.7
		c-1.19,0.3-11.56,3.17-10.17,9.93c0.33,1.6,0.94,3.1,1.52,4.56c1.38,3.41,2.56,6.36,0.47,10.11c-1.12,1.76-26.87,42.82-5.25,66.2
		c-2.59,0.95-4.78,3.12-6.56,6.49c-1.25,2.37-5.05,9.57-6.28,10.03c-0.24-0.03-0.94-0.51-1.44-0.85c-1.23-0.83-2.91-1.97-5.41-2.71
		c-5.27-1.56-9.2,2.08-13.01,5.59c-2.54,2.36-5.18,4.79-8.3,5.93c-1.93,0.7-1.98,2.19-1.95,2.63c0.09,1.27,0.87,2.71,6.03,3.83
		c1.32,0.29,12.99,2.64,16.12-3.14c0.17-0.32,0.29-0.39,0.29-0.39c0.53-0.16,2.51,1.04,3.58,1.68c3.12,1.89,7.85,4.76,11.6,0.36
		c1.17-1.36,2.19-3.27,3.27-5.29c1.96-3.66,4.18-7.81,6.97-8.03c1.53-0.15,4.34,0.89,8.73,6.34c-0.05,0.43,0.04,0.86,0.25,1.25
		c0.32,0.57,3.26,5.63,7.6,6.29c1.41,0.2,3.54,0.04,5.7-2c2-1.91,3.38-4.26,4.59-6.33c1.12-1.91,2.28-3.89,3.29-4.15
		c0.41-0.1,1.01,0.07,1.77,0.52c1.59,0.95,1.8,2.65,2.02,5.36c0.29,3.58,0.72,8.99,8.71,9.2c5.35,0.09,8.18-2.28,10.2-4.03
		c2.28-1.99,3.14-2.74,7.51,0.53c4.25,3.17,6.66,4.53,8.36,4.53c0.65,0,1.2-0.21,1.71-0.59
		C165.46,227.05,164.38,224.11,162.46,218.92z M155.79,221.33c-2.98-2.22-5.23-3.07-7.09-3.07c-2.22,0-3.91,1.21-5.66,2.73
		c-1.84,1.6-3.6,3.11-7.36,3.01c-4.23-0.11-4.36-1.75-4.65-5.35c-0.23-2.9-0.52-6.52-4.04-8.62c-1.75-1.04-3.41-1.37-4.95-0.97
		c-2.7,0.69-4.23,3.31-5.85,6.08c-1.13,1.92-2.29,3.91-3.87,5.41c-1,0.95-1.73,0.97-2.19,0.9c-1.56-0.23-3.16-2.09-4.04-3.35
		c0.11-0.58-0.03-1.19-0.4-1.68c-4.92-6.39-9.07-9.21-13.11-8.89c-5.06,0.42-7.97,5.86-10.31,10.23c-0.97,1.81-1.89,3.53-2.76,4.55
		c-1.24,1.46-2.66,0.97-6.27-1.22c-2.24-1.36-4.54-2.75-6.84-2.13c-1.2,0.32-2.17,1.14-2.86,2.43c-0.32,0.6-1.25,1.08-2.6,1.37
		c-2.84,0.62-6.62,0.21-9.24-0.38c2.44-1.49,4.53-3.42,6.44-5.19c3.73-3.44,6.16-5.52,9-4.66c1.87,0.56,3.13,1.41,4.24,2.17
		c1.4,0.94,2.85,1.92,4.71,1.45c2.4-0.6,4.35-3.21,9.06-12.15c1.55-2.94,3.38-4.55,5.42-4.77c0.43-0.05,0.88-0.04,1.34,0.02
		c3.37,2.8,5.94,3.89,7.81,4.64c1.14,1.07,2.31,2.32,3.5,3.74c0.62,0.74,1.67,0.96,2.52,0.53c0.86-0.42,1.32-1.38,1.12-2.32
		c-0.8-3.67-2.74-4.68-4.86-5.54c-2.87-2.6-5.61-4.24-8.2-4.92c-0.65-0.57-1.33-1.21-2.05-1.94c-20.65-20.86,4.77-61.42,5.1-61.93
		c3.12-5.6,1.29-10.15-0.18-13.81c-0.54-1.34-1.05-2.61-1.31-3.84c-0.37-1.83,3.1-3.7,5.81-4.64c2.86,4,11.37,17.75,1.26,27.2
		c-13.76,12.85-12.7,30.03-12.05,34.98c0.47,3.51,3.61,6.54,8.35,11.11c1.71,1.65,3.63,3.5,5.67,5.61c6.55,6.8,6.9,14.36,6.9,14.43
		c0.02,0.77,0.47,1.47,1.16,1.81c0.7,0.34,1.52,0.27,2.15-0.18c2.91-2.11,6.02-2.91,8.98-2.3c2.93,0.6,5.19,2.46,6.13,4.03
		l0.56,0.96c2.24,3.82,5.98,10.24,13.12,7.44c2.75-1.07,6.54-0.86,9.65,0.54c2.67,1.2,4.63,3.16,5.61,5.84
		c0.42,1.13,0.89,2.41,1.23,3.46C159,223.62,157.69,222.75,155.79,221.33z"/>
</g>
<g>
	<path style="fill:#C30000;" d="M61.09,115.9c-1.45,0.76-2.65,1.7-3.52,2.85c-0.1,0.13-0.19,0.26-0.27,0.39
		c-8.02-3.18-12-15.47-12.67-28.65h0.08c2.52,0,5.84-0.43,9.56-1.36c0.08,0.65,0.18,1.29,0.31,1.93c1.29,6.46,4.61,11.61,9.76,15.24
		c-2.21,4.08-3.28,7.78-3.36,8.06l-0.29,1.06L61.09,115.9z"/>
	<path style="fill:#D70000;" d="M163.94,103.01c-13.6,18.85-23.31,27.89-28.86,26.84c-0.04-0.01-0.07-0.02-0.11-0.03
		c0.76-0.85,1.61-1.7,2.45-2.54c3.16-3.16,6.43-6.44,5.95-10.26c-0.29-2.34-1.9-4.34-4.92-6.14c-1.74-1.03-3.49-1.7-5.24-2.08
		c0.62-0.67,1.23-1.35,1.82-2.04c6.27-7.38,15.13-21.6,11.94-40.61c-0.36-2.11-0.86-4.28-1.53-6.51c2.74-2.43,5.57-4.28,8.28-5.01
		c0.6-0.16,1.2-0.27,1.79-0.31c0.2-0.01,0.4-0.02,0.59-0.02c0.01,0,0.01,0,0.02,0c0.73,0,1.44,0.1,2.12,0.31
		c1.84,0.56,3.52,1.86,5.11,3.93C164.19,59.7,179.42,81.54,163.94,103.01z"/>
	<path style="fill:#CA2620;" d="M155.2,50.16c-3.81,0.28-7.63,2.35-11.21,5.26c-0.02-0.07-0.05-0.15-0.08-0.22l-0.08-0.2
		c-1.8-3.5-11.1-20.73-19.56-20.73c-0.13,0-0.26,0-0.38,0.01c-1.41,0.09-2.67,0.62-3.77,1.57c-2.13-1.53-4.73-2.42-7.7-2.64
		c-7.09-0.52-15.35,2.72-22.09,6.71c-1.24,0.73-2.43,1.49-3.55,2.26c-0.03-1.81,0.07-3.63,0.33-5.41c0.15-1.02,0.34-2.04,0.6-3.04
		c0.21-0.84,0.46-1.67,0.75-2.49c0.13-0.39,0.28-0.78,0.44-1.16c3.45-8.32,10.8-12.57,21.52-12.57c3.4,0,7.14,0.43,11.19,1.29
		c17.73,3.76,29.19,10.24,33.17,18.74c2.44,5.21,1.58,10.01,0.74,12.6C155.42,50.15,155.31,50.15,155.2,50.16z"/>
	<path style="fill:#D70000;" d="M56.86,68.37c0,0-0.93,2.57-1.25,4.16c-1.08,4.11-1.69,8.32-1.64,12.4
		c-3.79,1.02-7.12,1.46-9.44,1.4c-2.99,0.05-4.15-1.73-4.15-1.73c-1.72-2.07-2.66-5.81-2.85-9.38c-0.41-7.58,2.07-14.58,5.52-15.63
		c3.99-1.2,8.8-6.91,14.38-13.52c6.68-7.91,14.74-17.46,20.46-17.46c1,0,1.93,0.28,2.76,0.92c1.22,0.93,2.25,1.85,3.13,2.74
		c-1.06,4.07-1.32,8.5-0.95,12.86c-0.21,0.17-0.41,0.34-0.61,0.51c-0.84-0.71-1.94-1.41-3.37-2.09c-1.47-0.69-3.96-0.95-7.53,1.84
		C66.19,49.39,60.29,58.29,56.86,68.37z"/>
	<path style="fill:#BEB577;" d="M66.56,102.76c-4.18-3-6.82-7.19-7.89-12.52c-0.15-0.75-0.26-1.51-0.34-2.29
		c-0.08-0.69-0.13-1.39-0.15-2.11c-0.03-0.73-0.04-1.47-0.01-2.21c0-0.01,0-0.01,0-0.01c0.08-2.59,0.45-5.26,1.04-7.92
		c0.2-0.89,0.42-1.78,0.67-2.67c0.23-0.86,0.49-1.71,0.76-2.55c3.1-9.48,8.54-18.13,13.25-21.8c1.42-1.11,2.37-1.41,2.86-1.41
		c0.14,0,0.23,0.02,0.3,0.05c0.93,0.45,1.63,0.84,2.15,1.22c-0.15,0.15-0.27,0.29-0.39,0.43c-1.96,2.3-2.76,4.94-2.29,7.64
		c0.46,2.65,2.09,5.03,3.91,6.96c0.31,0.77,1.49,3.25,1.54,3.35c-0.63,1.63-1.11,3.26-1.56,4.83c-0.02,0.08-0.05,0.16-0.07,0.24
		c-0.76,2.65-1.49,5.15-2.7,6.89C74,84.1,74.07,90.02,77.55,95.23c-0.6,0.07-1.2,0.2-1.79,0.36c-0.68,0.2-1.35,0.45-2.01,0.77
		c-0.24,0.1-0.48,0.22-0.71,0.35C70.43,98.13,68.28,100.36,66.56,102.76z"/>
	<path style="fill:#BEB577;" d="M80.63,55.89c-0.25-1.47,0.19-2.85,1.36-4.22c0.18-0.21,0.38-0.44,0.59-0.66
		c-0.1,1.95-1.12,4.16-1.15,7.01C81.04,57.32,80.76,56.61,80.63,55.89z"/>
	<path style="fill:#CD805F;" d="M112.11,37.37c2.2,0.17,4.03,0.76,5.52,1.81c-0.32,0.63-0.61,1.32-0.89,2.07
		c-1.74,4.77-1.92,9.77-1.43,14.7c-4.98-1.98-10.92-2.59-17.32-1.61c-4.2,0.63-7.31,1.95-9.66,3.68c-1.53,1.12-2.75,2.42-3.73,3.81
		l-0.56-0.53c-1.63-1.59-3.08-3.49-3.41-5.41c-0.25-1.47,0.19-2.85,1.36-4.22c0.42-0.5,0.94-1.03,1.52-1.58
		c0.31-0.3,0.64-0.6,0.99-0.9c0.79-0.69,1.69-1.41,2.66-2.14c0.89-0.66,1.84-1.33,2.85-1.99C96.56,40.77,105.3,36.88,112.11,37.37z"
		/>
	<path style="fill:#D25D5B;" d="M72.39,113.56c-2.48,0.04-4.87,0.3-7.03,0.82c0.44-1.29,1.3-3.55,2.58-5.94
		c0.64-1.18,1.38-2.41,2.22-3.56c1.36-1.83,2.98-3.47,4.88-4.5c0.38-0.21,0.77-0.39,1.16-0.54c0.72-0.28,1.45-0.45,2.19-0.52
		c0.86-0.08,1.75-0.02,2.67,0.18c0.16,0.03,0.31,0.06,0.47,0.1c0.17,0.05,0.35,0.1,0.52,0.15c2.4,0.74,4.22,2.08,6.15,3.49
		c0.55,0.4,1.11,0.81,1.69,1.2c0.59,0.41,1.2,0.8,1.85,1.16c1.2,0.67,2.51,1.22,4.01,1.51c1.06,0.21,2.22,0.3,3.49,0.21
		c-2.14,3.71-3.21,7.31-2.59,10.32c0.11,0.55,0.29,1.14,0.58,1.73c-1.59-0.01-3.1-0.38-4.51-1.24c-3.66-2.25-9.44-3.85-15.34-4.39
		c-0.81-0.07-1.62-0.12-2.43-0.15C74.09,113.56,73.23,113.54,72.39,113.56z"/>
	<path style="fill:#C00000;" d="M134.47,124.33c-0.64,0.64-1.28,1.28-1.91,1.94c-0.54,0.57-1.06,1.14-1.53,1.73
		c-0.52,0.62-0.99,1.26-1.4,1.91c-0.02,0.02-0.04,0.05-0.05,0.07c-3.08,4.95-11.96,10-14.85,11.28
		c-18.94,8.39-32.37,6.09-47.89-8.19c-2.45-2.26-5.95-5.94-6.5-9.01c-0.14-0.74-0.1-1.45,0.16-2.09c0.1-0.25,0.24-0.48,0.4-0.7
		c0.4-0.53,0.97-1,1.67-1.41c0.44-0.26,0.94-0.49,1.49-0.7c0.69-0.27,1.45-0.5,2.28-0.69c0.3-0.06,0.6-0.12,0.91-0.18
		c0.55-0.11,1.12-0.2,1.71-0.27c0.76-0.1,1.56-0.17,2.38-0.21c0.68-0.04,1.38-0.06,2.08-0.06c0.3,0,0.6,0,0.91,0.02
		c5.83,0.11,12.16,1.44,16.21,3.92c3.38,2.07,6.98,2.21,10.66,1.37c0.72,0.32,1.55,0.59,2.51,0.8c0.72,0.15,1.5,0.23,2.32,0.23
		c4.91,0,11.43-2.7,17.71-7.09c0.12-0.08,0.24-0.17,0.35-0.25c0.45-0.32,0.89-0.64,1.33-0.99c0.56-0.4,1.11-0.83,1.66-1.28
		c0.73-0.59,1.46-1.2,2.17-1.84c2.42-0.05,4.79,0.47,7.07,1.83c1.25,0.74,2.76,1.87,2.91,3.07
		C139.46,119.34,136.81,121.99,134.47,124.33z"/>
	<path style="fill:#D53E2A;" d="M131.85,104.05c-1.35,1.59-2.78,3.09-4.25,4.47c-1.25,1.17-2.52,2.26-3.81,3.27
		c-0.36,0.28-0.71,0.56-1.07,0.82c-0.9,0.67-1.8,1.3-2.69,1.88c-0.76,0.51-1.52,0.97-2.27,1.41c-1.79,1.04-3.53,1.89-5.17,2.53
		c-3.23,1.28-6.05,1.77-8.01,1.35c-1.34-0.28-2.2-0.72-2.77-1.19c-0.72-0.59-0.96-1.25-1.07-1.8c-0.54-2.61,1.22-6.61,4.42-10.87
		c0.02-0.03,0.05-0.06,0.07-0.09c0.89-1.18,1.9-2.39,3-3.59c1.62-1.75,3.44-3.49,5.4-5.14c1.23-1.05,2.52-2.05,3.86-3
		c1.61-1.15,2.84-2.43,3.76-3.83c1.21-1.83,1.89-3.85,2.2-6.02c0.63-4.35-0.24-9.31-1.34-14.48c-0.18-0.83-0.36-1.67-0.55-2.51
		c-0.31-1.41-0.62-2.83-0.91-4.25c-0.32-1.57-0.61-3.15-0.84-4.73c-0.81-5.36-0.94-10.67,0.85-15.6v-0.01
		c0.54-1.45,1.36-3.14,2.47-3.86c0.31-0.21,0.66-0.34,1.02-0.36c0.05-0.01,0.1-0.01,0.16-0.01c4.33,0,11.76,10.65,15.76,18.38
		c0.21,0.53,0.4,1.06,0.59,1.59c0.55,1.55,1.01,3.08,1.38,4.57C146.92,82.32,138.03,96.78,131.85,104.05z"/>
	<path d="M166.71,56.07l-0.03-0.04c-2.07-2.72-4.4-4.51-6.98-5.35c0.96-3.39,1.64-8.88-1.11-14.83
		c-4.58-9.91-16.73-17.02-36.11-21.14c-24.76-5.26-33.9,5.76-37.21,13.23c-0.64-0.58-1.33-1.15-2.09-1.73
		c-8.79-6.71-19.49,5.98-28.94,17.17c-4.71,5.59-9.59,11.37-12.39,12.22c-6.18,1.86-8.95,11.39-8.49,19.84
		c0.4,7.4,3,12.6,7.06,14.34c0.58,14.41,4.96,29.56,15.65,33.39c-0.01,3.16,1.9,7.41,7.95,12.97c10.35,9.53,20.11,14.16,30.89,14.16
		c3.33,0,6.75-0.44,10.32-1.32c3.57-0.87,7.29-2.18,11.19-3.9c2.39-1.07,11.68-6.01,15.98-11.86c0.56,0.35,1.2,0.61,1.91,0.74
		c0.52,0.1,1.06,0.15,1.61,0.15c7.41,0,17.21-8.99,31.4-28.66C184.69,81.38,166.89,56.32,166.71,56.07z M87.11,36.77
		c0.15-1.02,0.34-2.04,0.6-3.04c0.21-0.84,0.46-1.67,0.75-2.49c0.13-0.39,0.28-0.78,0.44-1.16c3.45-8.32,10.8-12.57,21.52-12.57
		c3.4,0,7.14,0.43,11.19,1.29c17.73,3.76,29.19,10.24,33.17,18.74c2.44,5.21,1.58,10.01,0.74,12.6c-0.1,0.01-0.21,0.01-0.32,0.02
		c-3.81,0.28-7.63,2.35-11.21,5.26c-0.02-0.07-0.05-0.15-0.08-0.22l-0.08-0.2c-1.8-3.5-11.1-20.73-19.56-20.73
		c-0.13,0-0.26,0-0.38,0.01c-1.41,0.09-2.67,0.62-3.77,1.57c-2.13-1.53-4.73-2.42-7.7-2.64c-7.09-0.52-15.35,2.72-22.09,6.71
		c-1.24,0.73-2.43,1.49-3.55,2.26C86.75,40.37,86.85,38.55,87.11,36.77z M122.92,73.89c-0.24-1.35-0.52-2.73-0.81-4.12
		c-0.18-0.83-0.36-1.67-0.55-2.51c-0.05-0.24-0.11-0.48-0.16-0.72c-0.25-1.17-0.51-2.35-0.75-3.53c-0.32-1.57-0.61-3.15-0.84-4.73
		c-0.81-5.36-0.94-10.67,0.85-15.6v-0.01c0.28-0.75,0.63-1.56,1.06-2.26c0.4-0.67,0.88-1.25,1.41-1.6c0.31-0.21,0.66-0.34,1.02-0.36
		c0.05-0.01,0.1-0.01,0.16-0.01c4.33,0,11.76,10.65,15.76,18.38c0.21,0.53,0.4,1.06,0.59,1.59c0.26,0.74,0.5,1.47,0.73,2.2
		c0.24,0.8,0.46,1.59,0.65,2.37c0.48,1.93,0.83,3.81,1.06,5.64c2.07,16.51-5.69,28.88-11.25,35.43c-1.35,1.59-2.78,3.09-4.25,4.47
		c-0.99,0.93-1.99,1.8-3.01,2.63c-0.26,0.22-0.53,0.43-0.8,0.64c-0.36,0.28-0.71,0.56-1.07,0.82c-0.27,0.2-0.55,0.4-0.82,0.59
		c-0.63,0.46-1.25,0.89-1.87,1.29c-0.76,0.51-1.52,0.97-2.27,1.41c-1.79,1.04-3.53,1.89-5.17,2.53c-3.18,1.26-5.97,1.76-7.92,1.36
		c-0.03,0-0.06,0-0.09-0.01c-1.34-0.28-2.2-0.72-2.77-1.19c-0.72-0.59-0.96-1.25-1.07-1.8c-0.54-2.61,1.22-6.61,4.42-10.87
		c0.02-0.03,0.05-0.06,0.07-0.09c0.89-1.18,1.9-2.39,3-3.59c1.62-1.75,3.44-3.49,5.4-5.14c1.23-1.05,2.52-2.05,3.86-3
		c1.61-1.15,2.84-2.43,3.76-3.83c1.21-1.83,1.89-3.85,2.2-6.02C123.91,81.07,123.57,77.57,122.92,73.89z M85.31,48.51
		c0.58-0.48,1.2-0.97,1.85-1.46c0.89-0.66,1.84-1.33,2.85-1.99c6.55-4.29,15.29-8.18,22.1-7.69c2.2,0.17,4.03,0.76,5.52,1.81
		c-0.32,0.63-0.61,1.32-0.89,2.07c-1.74,4.77-1.92,9.77-1.43,14.7c-4.98-1.98-10.92-2.59-17.32-1.61c-4.2,0.63-7.31,1.95-9.66,3.68
		c-0.08,0.06-0.16,0.12-0.23,0.18c-1.42,1.07-2.57,2.31-3.5,3.63l-0.56-0.53c-1.02-0.99-1.97-2.11-2.61-3.28
		c-0.39-0.7-0.67-1.41-0.8-2.13c-0.25-1.47,0.19-2.85,1.36-4.22c0.18-0.21,0.38-0.44,0.59-0.66c0.29-0.3,0.6-0.61,0.93-0.92
		c0.31-0.3,0.64-0.6,0.99-0.9C84.76,48.96,85.03,48.74,85.31,48.51z M96.65,117.64c0.11,0.55,0.29,1.14,0.58,1.73
		c-1.59-0.01-3.1-0.38-4.51-1.24c-3.66-2.25-9.44-3.85-15.34-4.39c-0.81-0.07-1.62-0.12-2.43-0.15c-0.86-0.03-1.72-0.05-2.56-0.03
		c-2.48,0.04-4.87,0.3-7.03,0.82c0.44-1.29,1.3-3.55,2.58-5.94c0.32-0.59,0.67-1.2,1.05-1.8c0.36-0.6,0.75-1.19,1.17-1.76
		c1.36-1.83,2.98-3.47,4.88-4.5c0.38-0.21,0.77-0.39,1.16-0.54c0.72-0.28,1.45-0.45,2.19-0.52c0.86-0.08,1.75-0.02,2.67,0.18
		c0.16,0.03,0.31,0.06,0.47,0.1c0.17,0.05,0.35,0.1,0.52,0.15c2.4,0.74,4.22,2.08,6.15,3.49c0.55,0.4,1.11,0.81,1.69,1.2
		c0.59,0.41,1.2,0.8,1.85,1.16c0.61,0.34,1.25,0.65,1.93,0.91c0.66,0.25,1.34,0.46,2.08,0.6c1.06,0.21,2.22,0.3,3.49,0.21
		C97.1,111.03,96.03,114.63,96.65,117.64z M77.55,95.23c-0.6,0.07-1.2,0.2-1.79,0.36c-0.68,0.2-1.35,0.45-2.01,0.77
		c-0.24,0.1-0.48,0.22-0.71,0.35c-2.61,1.42-4.76,3.65-6.48,6.05c-4.18-3-6.82-7.19-7.89-12.52c-0.15-0.75-0.26-1.51-0.34-2.29
		c-0.08-0.69-0.13-1.39-0.15-2.11c-0.03-0.73-0.04-1.47-0.01-2.21c0-0.01,0-0.01,0-0.01c0.08-2.59,0.45-5.26,1.04-7.92
		c0.2-0.89,0.42-1.78,0.67-2.67c0.23-0.86,0.49-1.71,0.76-2.55c3.1-9.48,8.54-18.13,13.25-21.8c1.42-1.11,2.37-1.41,2.86-1.41
		c0.14,0,0.23,0.02,0.3,0.05c0.93,0.45,1.63,0.84,2.15,1.22c-0.15,0.15-0.27,0.29-0.39,0.43c-1.96,2.3-2.76,4.94-2.29,7.64
		c0.46,2.65,2.09,5.03,3.91,6.96c0.31,0.77,1.49,3.25,1.54,3.35c-0.63,1.63-1.11,3.26-1.56,4.83c-0.02,0.08-0.05,0.16-0.07,0.24
		c-0.76,2.65-1.49,5.15-2.7,6.89C74,84.1,74.07,90.02,77.55,95.23z M42.44,86.02c-1.46-0.5-2.06-1.42-2.06-1.42
		c-1.72-2.07-2.66-5.81-2.85-9.38c-0.41-7.58,2.07-14.58,5.52-15.63c3.99-1.2,8.8-6.91,14.38-13.52
		c6.68-7.91,14.74-17.46,20.46-17.46c1,0,1.93,0.28,2.76,0.92c1.22,0.93,2.25,1.85,3.13,2.74c-1.06,4.07-1.32,8.5-0.95,12.86
		c-0.21,0.17-0.41,0.34-0.61,0.51c-0.84-0.71-1.94-1.41-3.37-2.09c-1.47-0.69-3.96-0.95-7.53,1.84c-5.13,4-11.03,12.9-14.46,22.98
		c0,0-0.34,0.95-0.68,2.06c-0.23,0.71-0.44,1.48-0.57,2.1c-1.08,4.11-1.69,8.32-1.64,12.4c-3.79,1.02-7.12,1.46-9.44,1.4
		C43.69,86.34,43,86.22,42.44,86.02z M57.57,118.75c-0.1,0.13-0.19,0.26-0.27,0.39c-8.02-3.18-12-15.47-12.67-28.65h0.08
		c2.52,0,5.84-0.43,9.56-1.36c0.08,0.65,0.18,1.29,0.31,1.93c1.29,6.46,4.61,11.61,9.76,15.24c-2.21,4.08-3.28,7.78-3.36,8.06
		l-0.29,1.06l0.4,0.48C59.64,116.66,58.44,117.6,57.57,118.75z M132.56,126.27c-0.54,0.57-1.06,1.14-1.53,1.73
		c-0.52,0.62-0.99,1.26-1.4,1.91c-0.02,0.02-0.04,0.05-0.05,0.07c-3.08,4.95-11.96,10-14.85,11.28
		c-18.94,8.39-32.37,6.09-47.89-8.19c-2.45-2.26-5.95-5.94-6.5-9.01c-0.14-0.74-0.1-1.45,0.16-2.09c0.1-0.25,0.24-0.48,0.4-0.7
		c0.4-0.53,0.97-1,1.67-1.41c0.44-0.26,0.94-0.49,1.49-0.7c0.69-0.27,1.45-0.5,2.28-0.69c0.3-0.06,0.6-0.12,0.91-0.18
		c0.55-0.11,1.12-0.2,1.71-0.27c0.76-0.1,1.56-0.17,2.38-0.21c0.68-0.04,1.38-0.06,2.08-0.06c0.3,0,0.6,0,0.91,0.02
		c5.83,0.11,12.16,1.44,16.21,3.92c3.38,2.07,6.98,2.21,10.66,1.37c0.72,0.32,1.55,0.59,2.51,0.8c0.72,0.15,1.5,0.23,2.32,0.23
		c4.91,0,11.43-2.7,17.71-7.09c0.12-0.08,0.24-0.17,0.35-0.25c0.45-0.32,0.89-0.64,1.33-0.99c0.56-0.4,1.11-0.83,1.66-1.28
		c0.73-0.59,1.46-1.2,2.17-1.84c2.42-0.05,4.79,0.47,7.07,1.83c1.25,0.74,2.76,1.87,2.91,3.07c0.23,1.8-2.42,4.45-4.76,6.79
		C133.83,124.97,133.19,125.61,132.56,126.27z M163.94,103.01c-13.6,18.85-23.31,27.89-28.86,26.84c-0.04-0.01-0.07-0.02-0.11-0.03
		c0.76-0.85,1.61-1.7,2.45-2.54c3.16-3.16,6.43-6.44,5.95-10.26c-0.29-2.34-1.9-4.34-4.92-6.14c-1.74-1.03-3.49-1.7-5.24-2.08
		c0.62-0.67,1.23-1.35,1.82-2.04c6.27-7.38,15.13-21.6,11.94-40.61c-0.36-2.11-0.86-4.28-1.53-6.51c2.74-2.43,5.57-4.28,8.28-5.01
		c0.6-0.16,1.2-0.27,1.79-0.31c0.2-0.01,0.4-0.02,0.59-0.02c0.01,0,0.01,0,0.02,0c0.73,0,1.44,0.1,2.12,0.31
		c1.84,0.56,3.52,1.86,5.11,3.93C164.19,59.7,179.42,81.54,163.94,103.01z"/>
</g>
<g>
	<path style="fill:#EBFF68;" d="M112.59,80.87c0,1.86-1.52,3.38-3.39,3.38c-1.86,0-3.38-1.52-3.38-3.38c0-1.87,1.52-3.38,3.38-3.38
		C111.07,77.49,112.59,79,112.59,80.87z"/>
	<path style="fill:#EBFF68;" d="M93.86,76.06c0,1.86-1.51,3.38-3.38,3.38c-1.86,0-3.38-1.52-3.38-3.38c0-1.87,1.52-3.39,3.38-3.39
		C92.35,72.67,93.86,74.19,93.86,76.06z"/>
</g>
<g>
	<path style="fill:#738C3A;" d="M133.87,113.44c0.81,0.8,3.71,4.27,4.37,13.65c-0.78,1.15-1.37,2.51-1.88,3.7
		c-1.85,4.3-3.66,8.61-10.99,8.66c-5.87-0.08-8.14-4.97-8.31-9.14c-0.3-7.59,5.34-15.81,16.69-16.86
		C133.79,113.45,133.83,113.44,133.87,113.44z"/>
	<path style="fill:#576A2B;" d="M136.44,117.88c0.43,1.14,0.83,2.53,1.16,4.22c-5.61,3.44-11.52,9-11.87,17.34
		c-0.12,0.01-0.24,0.01-0.36,0.01c-1.48-0.02-2.73-0.35-3.78-0.89C122.33,128.17,129.82,121.65,136.44,117.88z"/>
	<path style="fill:#A5A61E;" d="M160.16,133.72c-3.95,3.74-6.89,8.96-8.41,12.02c-3-2.67-8.52-8.65-9.24-17.14
		c-0.02-0.25-0.04-0.5-0.05-0.75c-0.06-1.21-0.16-2.35-0.28-3.41c-0.63-5.41-1.99-8.94-3.28-11.18c-0.21-0.37-0.42-0.71-0.63-1.01
		c5.62-1.75,11.79,1.87,15.16,4.36c1.56,1.15,2.53,2.07,2.56,2.1c0.29,0.27,0.66,0.46,1.04,0.54c1.94,0.39,7.17,2.1,8.08,5.27
		C165.78,126.84,164.06,130.02,160.16,133.72z"/>
	<path style="fill:#787916;" d="M157.44,127.05c-0.33,0.91-0.78,1.89-1.28,2.95c-1.55,3.29-3.39,7.19-2.85,12.82
		c-0.62,1.09-1.14,2.08-1.56,2.92c-0.75-0.67-1.65-1.53-2.59-2.59c-0.63-6.77,1.61-11.52,3.22-14.93c0.44-0.94,0.85-1.79,1.14-2.6
		c1.05-2.87,0.54-6.88,0.12-8.86c1.44,1.08,2.32,1.92,2.35,1.95c0.29,0.27,0.66,0.46,1.04,0.54c0.32,0.06,0.73,0.16,1.2,0.31
		C158.41,121.83,158.33,124.61,157.44,127.05z"/>
	<path d="M169.12,123.35c-1.57-5.44-8.46-7.52-10.67-8.06c-2.39-2.15-13.54-11.37-23.68-6.1c-0.44,0.03-0.91,0.06-1.41,0.11
		c-13.94,1.28-20.85,11.62-20.47,21.18c0.31,7.77,5.3,13.05,12.43,13.14h0.27c8.5,0,11.8-5.05,13.77-9.3
		c3.09,10.37,11.59,16.16,12.01,16.44c0.35,0.23,0.75,0.35,1.16,0.35c0.2,0,0.41-0.02,0.61-0.09c0.59-0.18,1.08-0.62,1.32-1.19
		c0.03-0.09,3.43-8.22,8.57-13.08C168.22,131.84,170.27,127.33,169.12,123.35z M136.36,130.79c-1.82,4.23-3.6,8.47-10.63,8.65
		c-0.12,0.01-0.24,0.01-0.36,0.01c-1.48-0.02-2.73-0.35-3.78-0.89c-3.1-1.61-4.4-5.13-4.53-8.25c-0.3-7.59,5.34-15.81,16.69-16.86
		c0.04,0,0.08-0.01,0.12-0.01c0.45,0.45,1.57,1.74,2.57,4.44c0.43,1.14,0.83,2.53,1.16,4.22c0.28,1.44,0.51,3.09,0.64,4.99
		C137.46,128.24,136.87,129.6,136.36,130.79z M160.16,133.72c-2.87,2.72-5.21,6.22-6.85,9.1c-0.62,1.09-1.14,2.08-1.56,2.92
		c-0.75-0.67-1.65-1.53-2.59-2.59c-2.86-3.21-6.11-8.17-6.65-14.55c-0.02-0.25-0.04-0.5-0.05-0.75c-0.02-0.44-0.05-0.88-0.08-1.3
		c-0.06-0.73-0.12-1.44-0.2-2.11c-0.19-1.63-0.45-3.1-0.75-4.41c-0.36-1.57-0.79-2.92-1.24-4.07c-0.42-1.06-0.86-1.95-1.29-2.7
		c-0.21-0.37-0.42-0.71-0.63-1.01c1.25-0.39,2.53-0.51,3.79-0.44c4.44,0.25,8.75,2.87,11.37,4.8c0.07,0.05,0.14,0.1,0.21,0.15
		c1.44,1.08,2.32,1.92,2.35,1.95c0.29,0.27,0.66,0.46,1.04,0.54c0.32,0.06,0.73,0.16,1.2,0.31c2.35,0.69,6.12,2.32,6.88,4.96
		C165.78,126.84,164.06,130.02,160.16,133.72z"/>
</g>
<g>
	<path style="fill:#738C3A;" d="M60.56,135.48c-0.82,3.68-3.45,7.64-8.22,7.64c-0.51,0-1.04-0.04-1.6-0.14
		c-7.13-1.21-8.21-5.93-9.26-10.49c-0.31-1.35-0.66-2.9-1.32-4.23c0.1-0.33,0.18-0.66,0.26-0.99c2.01-8.54,6.01-10.71,7.3-11.19
		C58.28,119.28,62.18,128.2,60.56,135.48z"/>
	<path style="fill:#434D2B;" d="M57.38,141.22c-1.03,0.91-2.3,1.58-3.82,1.81c-1.87-6.45-7.39-13.06-12.49-18.11
		c0.53-1.66,1.14-3.01,1.78-4.12C48.44,126.16,54.91,133.61,57.38,141.22z"/>
	<path style="fill:#98AB1A;" d="M43.54,113.72c-0.41,0.31-0.84,0.67-1.27,1.09c-2.03,1.94-4.22,5.14-5.63,10.38
		c-0.1,0.36-0.19,0.74-0.28,1.12c-0.23,1-0.53,1.96-0.87,2.87c-2.13,5.84-6.04,9.84-8.53,11.94c-0.92-3.07-2.66-7.83-5.41-11.58
		c-1.96-2.67-4.04-6.36-2.85-8.76c1.14-2.32,5.21-3.16,7.43-3.38c0.36-0.04,0.68-0.05,0.92-0.06c0.41-0.01,0.81-0.14,1.15-0.37
		c0.08-0.05,5.81-3.92,11.55-3.92C41.03,113.05,42.32,113.24,43.54,113.72z"/>
	<path style="fill:#577413;" d="M29.63,138.56c-0.96,1.04-1.89,1.9-2.67,2.56c-0.34-1.15-0.8-2.52-1.38-4
		c0.13-1.67,0.02-3.52-0.56-5.37c-1.53-4.92-1.07-10.71-0.56-14.1c0.61-0.12,1.19-0.2,1.67-0.25c0.36-0.04,0.68-0.05,0.92-0.06
		c0.41-0.01,0.81-0.14,1.15-0.37c0.02-0.02,0.26-0.18,0.68-0.43c-0.43,2.27-1.46,8.87,0.13,13.96
		C29.9,133.36,29.94,136.16,29.63,138.56z"/>
	<path d="M48.77,112.04c-8.3-7.04-19.8-0.5-22.42,1.15c-2.22,0.13-9.01,0.93-11.39,5.73c-1.71,3.44-0.62,7.84,3.22,13.09
		c3.79,5.17,5.5,12.97,5.52,13.05c0.14,0.66,0.59,1.21,1.2,1.48c0.27,0.12,0.55,0.17,0.84,0.17c0.37,0,0.74-0.1,1.07-0.3
		c0.34-0.2,6.71-4.11,10.86-11.89c1.13,4.72,3.23,11.02,12.38,12.57c0.77,0.14,1.54,0.2,2.29,0.2c5.98,0,10.78-4.15,12.29-10.9
		C66.69,127.17,61.89,115.93,48.77,112.04z M37.76,121.79c-0.41,1.02-0.79,2.15-1.12,3.4c-0.1,0.36-0.19,0.74-0.28,1.12
		c-0.07,0.3-0.14,0.59-0.23,0.88c-0.18,0.69-0.4,1.35-0.64,1.99c-1.46,4-3.75,7.13-5.86,9.38c-0.96,1.04-1.89,1.9-2.67,2.56
		c-0.34-1.15-0.8-2.52-1.38-4c-0.98-2.48-2.3-5.23-4.03-7.58c-1.96-2.67-4.04-6.36-2.85-8.76c0.89-1.81,3.57-2.72,5.76-3.13
		c0.61-0.12,1.19-0.2,1.67-0.25c0.36-0.04,0.68-0.05,0.92-0.06c0.41-0.01,0.81-0.14,1.15-0.37c0.02-0.02,0.26-0.18,0.68-0.43
		c0.12-0.07,0.25-0.15,0.39-0.23c0.67-0.39,1.63-0.9,2.77-1.4c0.57-0.26,1.19-0.51,1.85-0.74h0.01c0.3-0.11,0.61-0.21,0.93-0.31
		c0.72-0.22,1.48-0.41,2.25-0.56h0.03c0.87-0.16,1.75-0.25,2.64-0.25c1.28,0,2.57,0.19,3.79,0.67c-0.41,0.31-0.84,0.67-1.27,1.09
		c-0.84,0.8-1.71,1.82-2.54,3.12C39.03,119.01,38.37,120.29,37.76,121.79z M60.56,135.48c-0.46,2.08-1.5,4.25-3.18,5.74
		c-1.03,0.91-2.3,1.58-3.82,1.81c-0.39,0.06-0.8,0.09-1.22,0.09c-0.51,0-1.04-0.04-1.6-0.14c-7.13-1.21-8.21-5.93-9.26-10.49
		c-0.31-1.35-0.66-2.9-1.32-4.23c0.1-0.33,0.18-0.66,0.26-0.99c0.2-0.84,0.42-1.63,0.65-2.35c0.53-1.66,1.14-3.01,1.78-4.12
		c1.89-3.3,4-4.4,4.87-4.72C58.28,119.28,62.18,128.2,60.56,135.48z"/>
</g>
</svg>
