<?xml version="1.0" encoding="utf-8"?>
<!-- Generator: Adobe Illustrator 23.1.1, SVG Export Plug-In . SVG Version: 6.00 Build 0)  -->
<!DOCTYPE svg PUBLIC "-//W3C//DTD SVG 1.1//EN" "http://www.w3.org/Graphics/SVG/1.1/DTD/svg11.dtd" [
	<!ENTITY ns_flows "http://ns.adobe.com/Flows/1.0/">
	<!ENTITY ns_extend "http://ns.adobe.com/Extensibility/1.0/">
	<!ENTITY ns_ai "http://ns.adobe.com/AdobeIllustrator/10.0/">
	<!ENTITY ns_graphs "http://ns.adobe.com/Graphs/1.0/">
	<!ENTITY ns_vars "http://ns.adobe.com/Variables/1.0/">
	<!ENTITY ns_imrep "http://ns.adobe.com/ImageReplacement/1.0/">
	<!ENTITY ns_sfw "http://ns.adobe.com/SaveForWeb/1.0/">
	<!ENTITY ns_custom "http://ns.adobe.com/GenericCustomNamespace/1.0/">
	<!ENTITY ns_adobe_xpath "http://ns.adobe.com/XPath/1.0/">
]>
<svg version="1.1" id="레이어_1" xmlns:x="&ns_extend;" xmlns:i="&ns_ai;" xmlns:graph="&ns_graphs;"
	 xmlns="http://www.w3.org/2000/svg" xmlns:xlink="http://www.w3.org/1999/xlink" xmlns:a="http://ns.adobe.com/AdobeSVGViewerExtensions/3.0/"
	 x="0px" y="0px" viewBox="0 0 500 600" style="enable-background:new 0 0 500 600;" xml:space="preserve">
<metadata>
	<sfw  xmlns="&ns_sfw;">
		<slices></slices>
		<sliceSourceBounds  bottomLeftOrigin="true" height="202.5" width="193.4" x="255.4" y="246.4"></sliceSourceBounds>
	</sfw>
</metadata>
<path style="fill:#FF981D;" d="M387.6,244.9v0.2l0.4,3.9l1.1,4.1l0.4,4.1l-0.5,8.5l-0.5,1.8l-2.5,3l-1,1.7l-0.4,2l-0.3,12.1l0.3,1.6
	l0.5,0.9l0.5,0.4l0.4,0.5l0.5,3.4l0.6,2.6l0.7,0.5l0.4,0.6l-0.3,1.6l-0.7,0.9l-0.8,0.4l-0.8,0.3l-1.3,1.1l-0.1,1.4l1.7,1.6l1.2,1.4
	l1.3,1.6l1.6,0.3l2.1-1.6l5.1-5.6l1-1.7l1.3,1.1l0.3,1.7l0.6,1.8l0.4,2l-1.3,2l-2.9,5.8l-0.2,2.6l-0.9,6.8l-2.1,5.9l0.1,3.7
	l-2.1,6.4l-1.6,3.1l-0.7,1.6l0.7,1.8l0.6,0.7h-0.1l-6.4-1.6l-7.5,1.4l-1.4-0.4l-1-0.7l-0.2-1.3v-1.5l-0.7-1.2l-2.9-1.2l-2.7-0.6
	l-2.8,0.4l-3.4,1.2l-2.7,2.1l0.4,1.4l0.8,1.3l-0.5,1h-1.2L356,347l-1.9,1.6l-2.3,0.8l-2.4-1.1l-3.1-0.8l-2.9,1.2l-0.9,1.2l-1.1,1
	l-1.2,0.2l-1.2,0.4l-2.6,2.1l-3-0.1l-2.5-1.3l-2.6-0.8l-3,0.5l-2.9,0.3l-2.5-1.6l-2-2.5l-0.7-5.5l-1.9,1.4l-2,2.8l-2.2-0.4l-4.3,2.2
	l-2.3-0.5l-2.1-1.6l-2.2-1l-2.3-0.4l-2.4,0.3l-5-0.2l-1.3-4.6l1-2.2l0.1-2.3l-1.1-1.3L288,334l-0.3-0.9L287,332l-1.8-1.3l-1.1-2
	l-1.5-1.7l-2.1-0.7h-2.3l-2.3-0.2l-1.3-0.9l-1.1-0.9l-2.4-0.2l-0.7-0.2l-0.7-0.3l-0.3-0.8l-0.1-0.8l-0.7-0.6l-0.8-0.6l-1.6-0.9
	l-0.7-2.2l0.4-6.3l-3.3-5.6l2-1l2-0.7l1.3-2.4l0.7-2.6l0.6-1.1l0.8-0.9l0.2-1.6v-1.4l-0.5-2.7l2-1.7l1.9,0.4l1.7,0.1l-0.9-5.2
	l-1.8-1.3l-4.1,1l-1.6-0.7l-2.3-1.9l-2-0.6l-3.3,0.8l-0.5-4.7l1.8-1.5l1.2-2.3l-0.9-1.6l-0.5-1.7l0.5-2.4l0.3-5.5l0.8-2.3l1.5-1.4
	l-4-5.7l-3.2-0.5l-0.9-2.3l1.2-0.6l1.2-0.2l1.2-1.2l1.8-2.4l0.5-1l-0.1-0.9l0.2-1.2l2.5-1.7l2.8-1.3l1.8-2.6l3.1,1.3l5.7,0.9
	l-1.2-2.3l-1.5-2l0.5-2.1l1-2.2l1-1.7l1.3,0.9l1.6-0.1l1.3-1.8l1.4-0.9l1.3,0.8l2.5,0.9l2.3,0.2l0.6-1.7l0.4-1.6l0.8-1.3l1.1-1
	l1.1,1.2l1.3,1l1.9,1.6l1.2,2.4l2.9,0.9l6.8-2.8l1.2-3.9l-1.1-1l-0.6-1l1-1.9l0.8-1.9l1.8-2.5l2.5-1.8l0.7-1.3l1-0.8l1.7-0.5
	l1.3-1.3l2.1-1.7l1.9-2l0.8-0.5l1,0.4l1.1-0.6l1-1.1l2.1,1.1l2,0.8l2.4,0.5l2.1,0.2l0.5-2.2l0.3-2.3l-0.5-2.5l1.5-1.8l2.2-1l2.2,0.2
	l1.1,2l1.6,0.4l1.4,0.7l-0.2,1.8l0.2,1.8l2.4-0.9l2.3-1.8l1,0.4l0.7,0.9l0.9,0.1l1.1-0.4l3.2,0.5l3,1.4l2.1-0.5l2.2-1.2l2.8,0.6
	l2.5,1.5l0.8,2.3l-1.9,1.4l-2.4-0.9l-1.5,0.6l-1.4,1l-0.6,2.5l0.4,3.3l1.7,2.5l2.7,1.3l0.6,2.1l0.8,1.9l1.9,0.8l1.7,1l5.9,0.4
	l-0.3,2.3l0.7,0.7l0.6,0.7l-0.9,2.5l-1.1,2.7l0.2,2.8l0.7,2.5l0.3,2.2l-0.9,2.4l5.6,2.1l2.6-1.1l2.7,0.6L387.6,244.9z M332.5,321.6
	l1.3-1.3l0.4-1.6V317l-0.2-1.6l-0.9-0.7l-0.7-1v-2.5l0.4-0.7v-0.8l-1-1.8l-3.2-2.4l-4.3,0.3l-5.1,0.7l-3.8,3.1l0.5,4.5l-1.4,1.5
	l-0.9,2l0.8,0.1l0.7,0.3l-0.2,1l-0.3,0.9l-1.3,0.2h-1.2l-1.1,1.6l0.5,1.8l1.3,0.5l1.2,1.2l1,1.9l1.4,1.2l1,0.6l0.7,0.6l0.6-0.5
	l1.2-2l1.2-0.9l2.6,0.3l4.7,1.2l1.8-1.1l0.2-0.9V325l0.8-2l0.1-0.8v-0.7l0.8-0.1L332.5,321.6z M447.4,151.1l1.4,1l-0.1,2.6l-0.9,2.9
	l-0.9,1.9l-1.5,0.8l-2.1-0.4l-2-1.2l-1.3-1.6l-0.4-2.1l0.7-1.5l1.5-1l2.9-0.5l1.9-0.7L447.4,151.1z"/>
</svg>
