<?xml version="1.0" encoding="utf-8"?>
<!-- Generator: Adobe Illustrator 26.5.0, SVG Export Plug-In . SVG Version: 6.00 Build 0)  -->
<svg version="1.1" id="레이어_1" xmlns="http://www.w3.org/2000/svg" xmlns:xlink="http://www.w3.org/1999/xlink" x="0px"
	 y="0px" viewBox="0 0 390 390" style="enable-background:new 0 0 390 390;" xml:space="preserve">
<g>
	<path style="fill-rule:evenodd;clip-rule:evenodd;fill:#F7FF2E;" d="M54.3,138.1c-5.9-3.8-14.2-3.2-19.5,1.4
		c3.7-3.2-3.2-12.9-5.1-15.2c-4-4.8-9.4-8.5-15.3-10.5c6.2-1.9,11.3-7.4,12.9-13.7c1.6-6.4-0.2-13.6-4.8-18.2
		c3.5,3.7,11.8,2.1,15.3-0.6C42.6,77.6,46.3,70.6,48,65c-0.6,2.1,10.2,12,12.1,12.8c4.3,1.9,11.2,0.5,15.7,0"/>
	<path d="M34.8,141.6c-0.6,0-1.1-0.3-1.6-0.6c-0.8-1-0.8-2.2,0.2-3l0,0c1.6-1.4-2.1-8.5-5.3-12.1c-3.8-4.6-8.8-8-14.4-9.9
		c-0.8-0.3-1.4-1.1-1.4-2.1s0.6-1.8,1.4-2.1c5.6-1.8,10.1-6.6,11.5-12.1c1.4-5.6-0.2-12-4.3-16.3l0,0c-0.8-0.8-0.8-2.2,0-3
		s2.2-0.8,3,0l0,0c2.6,2.7,9.6,1.4,12.5-0.8c4.5-3.4,8-10.2,9.4-15.2l0,0c0.3-1.1,1.6-1.8,2.7-1.4c1,0.3,1.6,1.1,1.4,2.1
		c1,2.2,9.1,9.9,10.9,10.7c3,1.3,8.5,0.6,12.5,0.2c0.8-0.2,1.4-0.2,2.2-0.3c1.3-0.2,2.2,0.6,2.4,1.9c0.2,1.1-0.6,2.2-1.9,2.4
		c-0.6,0-1.4,0.2-2.1,0.3c-4.6,0.6-10.5,1.4-14.7-0.5c-1.6-0.6-5.4-4.2-7.7-6.4c-1.3-1.3-2.4-2.4-3.2-3.4c-2.1,4.8-5.3,9.9-9.4,12.9
		c-2.6,1.9-7,3.4-11.2,3.2c2.1,4.5,2.7,9.7,1.4,14.5c-1.4,5.4-5.1,10.2-9.7,13.1c4.5,2.2,8.3,5.4,11.7,9.3c0,0.2,5.4,6.4,6.4,12
		c5.6-2.6,12.5-2.2,17.6,1.1c1,0.6,1.3,1.9,0.6,3c-0.6,1-1.9,1.3-3,0.6c-5-3.4-12.5-2.7-16.9,1.3l0,0
		C35.8,141.5,35.3,141.6,34.8,141.6z M50.3,65.7L50.3,65.7L50.3,65.7L50.3,65.7L50.3,65.7z"/>
</g>
<g>
	<path style="fill:#FFFFFF;" d="M109.5,27.5c2.2,1.3,4.3,3,6.4,5c1.8,1.6,3.2,3.5,4.6,5.6c4.5,6.2,7.7,23.2-1.8,27
		c-6.9,2.7-9.1-9.4-11.5-13.4c-5.3-8.9-17.4-4-24.4,0.3c-5.8,3.5-13.1,1.6-16.5-4c-3.4-5.8-1.6-13.1,4-16.6c7-4.3,15-7.5,23.3-7.7
		C99.7,23.4,104.8,24.7,109.5,27.5z"/>
	<path style="fill:#6C2E00;" d="M86.3,44.5c-0.8-0.5-1.9-0.6-2.9-0.5c1.1-0.3,2.4-1.1,3-2.2c1.3-2.4,0.5-5.4-1.9-6.7
		c-1.1-0.6-2.4-0.8-3.5-0.5c1-0.3,2.1-1.1,2.7-2.1c1.3-2.4,0.5-5.4-1.9-6.7c0-0.3-0.3-0.3-0.5-0.3c-6.4,2.2-10.9,5-12,5.6
		c-5.9,3.5-7.7,11-4.2,16.9c3.5,5.9,11.3,7.7,17.3,4.2c1.6-1,4-2.1,6.4-2.9C88.9,47,88.1,45.4,86.3,44.5"/>
	<path d="M94.6,23.5c5.6,0,10.4,1.3,14.7,4c2.2,1.3,4.3,3,6.4,5c1.8,1.6,3.2,3.5,4.6,5.6c4.5,6.2,7.7,23.2-1.8,27
		c-0.6,0.3-1.3,0.5-1.9,0.5c-5.4,0-7.5-10.2-9.6-13.7c-2.1-3.7-5.4-5-9.1-5c-3,0-6.2,1-9.3,2.1v0.2c-2.2,0.8-4.3,1.9-6.1,2.9
		c0,0,0,0-0.2,0c-1.9,1.1-4.2,1.8-6.2,1.8c-4,0-8-2.1-10.2-5.8c-2.1-3.5-2.2-7.8-0.6-11.3c1-2.1,2.6-4,4.6-5.3
		c0.2-0.2,0.6-0.3,1.1-0.6c6.7-4,14.4-6.9,22.2-7C93.8,23.5,94.3,23.5,94.6,23.5 M94.6,19.2c-0.5,0-0.8,0-1.3,0
		c-7.8,0.3-16,2.9-24.3,7.7c-0.5,0.3-1,0.6-1.3,0.6c-2.9,1.8-5,4.2-6.4,7.2c-2.2,5-1.9,10.7,1,15.3c3,5,8.1,7.8,13.9,7.8
		c3,0,5.9-0.8,8.5-2.4c1.6-1,3.5-1.9,5.4-2.6c0.3-0.2,0.8-0.3,1.1-0.6c2.6-1,4.8-1.4,6.7-1.4c2.6,0,4.3,1,5.4,2.9
		c0.3,0.6,1,2.1,1.4,3.4c1.9,5,5,12.6,11.8,12.6c1.1,0,2.4-0.3,3.5-0.8c3.8-1.6,6.6-4.8,7.8-9.1c2.4-8-0.3-18.7-4.3-24.3
		c-1.8-2.6-3.5-4.5-5.1-6.1c-2.4-2.2-4.6-4.2-7.2-5.6C106.6,20.7,101,19.2,94.6,19.2L94.6,19.2z"/>
</g>
<g>
	<path style="fill:#FFFFFF;" d="M172.1,26.3c-2.4,1.4-4.5,3.4-6.7,5.6c-1.8,1.8-3.4,3.8-4.8,6.2c-4.8,6.9-8,25.7,1.8,30
		c7.2,3,9.6-10.5,12-14.9c5.4-9.9,18.2-4.5,25.6,0.3c6.1,3.8,13.7,1.8,17.3-4.5c3.5-6.4,1.6-14.5-4.2-18.5
		c-7.4-4.8-15.7-8.3-24.3-8.5C182.2,21.6,176.9,23.1,172.1,26.3z"/>
	<path style="fill:#6C2E00;" d="M195.8,44.3c0.8-0.5,1.8-0.6,2.9-0.5c-1.1-0.3-2.4-1.1-3-2.4c-1.3-2.6-0.5-5.4,1.8-6.9
		c1.1-0.6,2.4-0.8,3.5-0.5c-1-0.3-1.9-1.1-2.7-2.1c-1.3-2.6-0.5-5.4,1.8-6.9c0.2-0.2,0.5-0.2,0.6-0.2c6.2,2.4,10.7,5,11.8,5.6
		c5.8,3.7,7.7,11.3,4.2,17.3c-3.5,5.9-11.3,7.8-17.1,4.2c-1.6-1-4-2.1-6.2-3C193.2,46.9,194,45.3,195.8,44.3"/>
	<path d="M187.3,23.5c0.3,0,0.8,0,1.1,0c7.8,0.2,15.5,3,22.2,7c0.5,0.3,1,0.5,1.1,0.6c2.1,1.3,3.7,3.2,4.6,5.3
		c1.6,3.5,1.4,7.8-0.6,11.3c-2.2,3.7-6.2,5.8-10.2,5.8c-2.1,0-4.3-0.6-6.2-1.8c0,0,0,0-0.2,0c-1.6-1-3.8-2.1-6.1-2.9v-0.2
		c-3-1.3-6.2-2.1-9.3-2.1c-3.7,0-7,1.3-9.1,5c-2.1,3.5-4.2,13.7-9.6,13.7c-0.6,0-1.3-0.2-1.9-0.5c-9.4-3.8-6.1-20.6-1.8-27
		c1.4-1.9,2.9-3.8,4.6-5.6c2.1-2.1,4.2-3.7,6.4-5C176.9,24.8,181.7,23.5,187.3,23.5 M187.3,19.2L187.3,19.2c-6.4,0-12,1.4-16.9,4.6
		c-2.4,1.4-4.8,3.4-7.2,5.6c-1.6,1.6-3.4,3.5-5.1,6.1c-3.8,5.4-6.6,16.3-4.3,24.3c1.3,4.5,4,7.5,7.8,9.1c1.1,0.5,2.4,0.8,3.5,0.8
		c6.9,0,9.9-7.5,11.8-12.6c0.5-1.3,1.1-2.7,1.4-3.4c1.1-1.9,2.9-2.9,5.4-2.9c1.9,0,4.2,0.5,6.7,1.4c0.3,0.2,0.6,0.5,1.1,0.6
		c1.9,0.8,3.8,1.8,5.4,2.6h0.2c2.6,1.6,5.4,2.4,8.5,2.4c5.8,0,11-2.9,13.9-7.8c2.7-4.6,3.2-10.4,1-15.3c-1.3-3-3.5-5.4-6.2-7.2
		c-0.3-0.2-0.8-0.5-1.3-0.8c-8.1-4.8-16.3-7.4-24.1-7.7C188.1,19.2,187.8,19.2,187.3,19.2L187.3,19.2z"/>
</g>
<g>
	<path style="fill:#FFFFFF;" d="M55.5,189.1c-2.1,3.4-4,7-4.2,10.9c0,1.1,0,2.2,0.5,3.4c0.6,1.4,2.1,2.6,3.5,3.2
		c4.8,2.1,10.5,0.5,14.5-2.9s6.4-8.3,8-13.1c1.8-5.1,1.6-16.5-6.9-14.5C64.2,177.3,58.8,183.4,55.5,189.1z"/>
	<path d="M72.7,175.7c6.7,0,6.7,10.1,5.1,14.9c-1.6,5-4,9.7-8,13.1c-2.7,2.4-6.4,3.8-9.9,3.8c-1.6,0-3.2-0.3-4.6-1
		c-1.4-0.6-2.9-1.8-3.5-3.2c-0.5-1-0.5-2.2-0.5-3.4c0.2-4,2.1-7.5,4.2-10.9c3.4-5.8,8.6-11.7,15.5-13.3
		C71.6,175.7,72.2,175.7,72.7,175.7 M72.7,171.4c-0.8,0-1.8,0.2-2.6,0.3c-9.3,1.9-15.5,10.4-18.4,15.2c-2.1,3.7-4.5,7.8-4.8,12.8
		c-0.2,2.1,0.2,3.8,0.8,5.3c1.1,2.4,3,4.2,5.8,5.4c1.9,0.8,4.2,1.3,6.4,1.3c4.5,0,9.1-1.8,12.6-4.8c4-3.4,7-8.3,9.3-15
		c1.3-4,2.1-11.7-1.4-16.5C78.6,172.8,75.9,171.4,72.7,171.4L72.7,171.4z"/>
</g>
<g>
	<path style="fill:#FFFFFF;" d="M226.4,189.1c2.1,3.4,4,7,4.2,10.9c0,1.1,0,2.2-0.5,3.4c-0.6,1.4-2.1,2.6-3.5,3.2
		c-4.8,2.1-10.5,0.5-14.5-2.9s-6.4-8.3-8-13.1c-1.8-5.1-1.6-16.5,6.9-14.5C217.8,177.3,223.1,183.4,226.4,189.1z"/>
	<path d="M209.2,175.7c0.5,0,1.1,0,1.8,0.2c6.9,1.4,12.1,7.5,15.5,13.3c2.1,3.4,4,7,4.2,10.9c0,1.1,0,2.2-0.5,3.4
		c-0.6,1.4-2.1,2.6-3.5,3.2c-1.4,0.6-3,1-4.6,1c-3.5,0-7.2-1.4-9.9-3.8c-4-3.4-6.4-8.3-8-13.1C202.5,185.6,202.5,175.7,209.2,175.7
		 M209.2,171.4L209.2,171.4c-3.2,0-5.9,1.4-7.7,3.8c-3.5,4.8-2.7,12.5-1.4,16.5c2.2,6.7,5.3,11.7,9.3,15c3.7,3,8.1,4.8,12.6,4.8
		c2.2,0,4.3-0.5,6.4-1.3c2.7-1.3,4.8-3,5.8-5.4c0.6-1.6,1-3.4,0.8-5.3c-0.3-5-2.6-9.3-4.8-12.8c-2.9-4.8-9.1-13.3-18.4-15.2
		C210.9,171.5,210,171.4,209.2,171.4L209.2,171.4z"/>
</g>
<path style="fill:#FFFFFF;" d="M172.3,262c-3.5,1.1-11,6.6-9.9,9.9l16.3,52.4l18.2-5.6l-16.3-52.4
	C179.3,262.8,175.6,260.9,172.3,262"/>
<g>
	<path d="M107.7,261.7c0.6,0,1.3,0.2,1.9,0.3c3.5,1.1,11,6.6,9.9,9.9l-16.1,52.4l0,0l-14.7,47.5c-0.8,2.7-4.8,4-8.3,4
		c-1.1,0-2.2-0.2-3-0.5l-4.5-1.4l-21.1-6.4c-6.2-1.9-13.9-3.4-16.9-10.1c-2.1-4.6,1.1-11.5,4.3-14.9c5.4-5.6,12.9-8.6,20.6-8.6
		c0.8,0,1.6,0,2.4,0.2c0,0,0.3,0,0.5,0c12.6,1.4,15.3,8,15.3,8l7.4-23.5l16.1-52.3C102.4,263.4,105,261.7,107.7,261.7 M107.7,257.3
		c-4.8,0-8.9,3-10.4,7.7L81,317.4l-5.1,16.5c-2.9-1.9-7-3.5-12.8-4.2H63h-0.5c-1,0-1.8-0.2-2.7-0.2c-8.8,0-17.4,3.7-23.7,9.9
		c-4,4-8.1,12.8-5.1,19.5c3.4,7.7,11.2,9.9,17.3,11.8c0.8,0.2,1.6,0.5,2.2,0.6l20.9,6.6l4.5,1.4c1.3,0.3,2.7,0.6,4.3,0.6
		c5.1,0,10.9-2.2,12.5-7l14.7-47.5l16.3-52.4c0.6-2.2,0.5-5.9-4.5-10.4c-2.6-2.2-5.8-4.2-8.1-5C109.9,257.5,108.8,257.3,107.7,257.3
		L107.7,257.3z"/>
	<g>
		<path style="fill:#FFFFFF;" d="M109.8,262c3.5,1.1,11,6.6,9.9,9.9l-16.3,52.4l-18.2-5.6l16.3-52.4
			C102.6,262.8,106.3,260.9,109.8,262"/>
		<path style="fill-rule:evenodd;clip-rule:evenodd;fill:#00A2FC;" d="M62.2,334c0,0,0.3,0,0.5,0c12.6,1.4,15.3,8,15.3,8l7.4-23.5
			l18.2,5.6l-14.7,47.5c-1.1,3.7-7.8,4.8-11.5,3.7l-4.5-1.4l-21.1-6.4c-6.2-1.9-13.9-3.4-16.9-10.1c-2.1-4.6,1.1-11.5,4.3-14.9
			C45.1,336.4,53.7,333.2,62.2,334"/>
	</g>
</g>
<g>
	<path style="fill-rule:evenodd;clip-rule:evenodd;fill:#00A2FC;" d="M219.7,334c0,0-0.3,0-0.5,0c-12.6,1.4-15,7.4-15,7.4l-6.6-23.2
		l-19.3,5.9l14.7,47.5c1.1,3.7,7.8,6.1,11.5,5l5.4-1.6l21.7-7.4c6.2-1.9,13.1-3.7,16.1-10.4c2.1-4.6-2.1-11.7-5.3-15
		C236.8,336.4,228.4,333.2,219.7,334"/>
	<path d="M174.2,261.7c2.7,0,5.4,1.8,6.2,4.6l16.3,52.4l7.4,23.5c0,0,2.7-6.6,15.3-8h0.5c0.8,0,1.6-0.2,2.4-0.2
		c7.7,0,15.2,3.2,20.6,8.6c3.2,3.4,6.4,10.2,4.3,14.9c-3,6.7-10.7,8.1-16.9,10.1l-20.9,6.6l-4.5,1.4c-1,0.3-1.9,0.5-3,0.5
		c-3.5,0-7.5-1.3-8.3-4l-14.7-47.5l0,0l-16.3-52.4c-1.1-3.5,6.4-8.9,9.9-9.9C172.9,261.7,173.6,261.7,174.2,261.7 M174.2,257.3
		c-1.1,0-2.2,0.2-3.2,0.5c-2.4,0.8-5.6,2.7-8.1,5c-5,4.5-5.3,8.1-4.5,10.4l16.3,52.4l14.7,47.5c1.6,5,7.4,7,12.5,7
		c1.6,0,3-0.2,4.3-0.6l4.5-1.4l20.9-6.6c0.8-0.2,1.4-0.5,2.2-0.6c6.2-1.8,13.9-4.2,17.3-11.8c3-6.7-1.3-15.5-5.1-19.5
		c-6.2-6.4-14.7-9.9-23.7-9.9c-1,0-1.9,0-2.9,0.2h-0.5h-0.2c-5.9,0.6-10.1,2.4-12.8,4.2l-5.1-16.6L184.6,265
		C183.1,260.4,179,257.3,174.2,257.3L174.2,257.3z"/>
</g>
<g>
	<path style="fill-rule:evenodd;clip-rule:evenodd;fill:#00A2FC;" d="M216.4,171.8c-0.6,2.6-1.9,5.9-2.2,8.6
		c-0.5,4.6,0.8,8.3,1.6,12.9c2.1,11.7,5.6,23.2,6.2,35.2c0.8,15.2-3,35.6-12.5,47.9c-13.1,16.9-35.8,24.6-56.4,26.2
		c-3,0.3-6.1,0.3-9.1,0.3c-0.2,0,0.2,0,0,0h-6.1c-0.2,0-0.2,0-0.3,0c-3,0-6.1-0.2-8.9-0.3c-24.9-2.1-50-11-60.4-35.6
		c-7.7-18.1-6.9-37.7-3.8-56.6c1.6-10.2,7.2-22.7,5.1-33.1c-0.3-1.8-1-3.5-1.6-5.1"/>
	<g>
		<g>
			<path d="M138.1,48.8h6.2h0.2c19.3,0,39.3,9.3,54.5,21.4c11.8,9.4,19.2,25.4,22.5,40c4.3,19,3,36.6-3.5,55c-1,2.6-1.8,5.1-2.4,7.7
				c-1.3,4.6-2.1,9.1-1.1,13.9c0.5,2.2,1,4.5,1.4,6.7c2.1,11.7,5.6,23.2,6.2,35.2c0.8,15.2-3,35.6-12.5,47.9
				c-13.1,16.9-35.8,24.6-56.4,26.2c-3,0.3-6.1,0.3-9.1,0.3H138c-0.2,0-0.2,0-0.3,0c-3,0-6.1-0.2-8.9-0.3c-24.9-2.1-50-11-60.4-35.6
				c-7.7-18.1-6.9-37.7-3.8-56.6c1.6-10.2,7.2-22.7,5.1-33.1c-0.2-0.6-0.3-1.1-0.5-1.8c-1.4-4.3-3.8-8.8-5.3-12.8
				c-6.2-17.3-7.4-35.2-3.4-52.7C63.9,95.7,71,79.7,83,70.2c15.2-12.1,35.2-21.4,54.5-21.4h0.2C137.8,48.8,137.8,48.8,138.1,48.8
				 M138.1,44.5h-0.5c-18.5,0-39.3,8.1-57,22.4c-11.2,8.9-19.8,24.3-24,42.3c-4.2,18.5-3.2,36.9,3,54.7c0.8,2.1,1.8,4.3,2.6,6.2
				c1,2.2,1.9,4.5,2.7,6.4v0.2c0.2,0.5,0.2,0.8,0.3,1.1c1.3,6.1-0.8,13.6-2.7,20.9c-1,3.7-1.9,7.2-2.4,10.7
				c-2.7,16.6-4.6,38.5,4.2,59c9.6,22.4,31.6,35.6,64.1,38.4c3,0.3,6.2,0.3,9.4,0.3h0.3h6.2c3.2,0,6.4-0.2,9.4-0.3
				c25.7-2.1,47.3-12.3,59.4-27.8c10.4-13.4,14.2-35.2,13.4-50.8c-0.5-8.3-2.2-16.5-4-24.3c-0.8-3.7-1.6-7.7-2.4-11.3
				c-0.3-1.4-0.6-2.7-0.8-4.2c-0.5-2.1-1-4.3-1-6.4c0-2.2,0.6-4.5,1.1-6.7c0.6-2.9,1.6-5.8,2.6-8.6c6.9-19.2,8.1-38,3.7-57.4
				c-4.2-18.1-12.8-33.6-24-42.3c-17.7-14.2-38.5-22.4-57-22.4h-0.2L138.1,44.5z"/>
		</g>
	</g>
	<g>
		<path style="fill-rule:evenodd;clip-rule:evenodd;fill:#00A2FC;" d="M214,180.5c0.5-5.3,2.6-9.7,4.3-14.7
			c6.6-18.2,7.5-36.6,3.2-55.6c-3.4-14.5-10.7-30.5-22.7-40c-15.2-12.1-35.2-21.4-54.7-21.4c0,0-0.2,0-0.3,0h0.3h-6.2
			c-0.2,0-0.3,0-0.3,0c-19.3,0-39.3,9.3-54.5,21.4c-11.8,9.4-19.2,25.4-22.5,40c-4,17.6-3,35.5,2.9,52.3c1.8,5,5,10.4,6.1,15.5
			l73.2,22.1L214,180.5z"/>
		<path style="fill-rule:evenodd;clip-rule:evenodd;fill:#FFFFFF;" d="M151,55.8c7.5,1,14.9,3,21.4,5.8
			c10.9,4.6,23.7,12.1,29.4,22.5c2.6,4.6,4.3,9.7,5.4,14.9c0.8,4-0.2,9.4,2.2,12.8c4.8,6.9,5.9,10.7,7.2,19.2c1.3,8,0.5,16.6-2.9,24
			c-8.8,19.3-30.2,27.5-49.7,28.1c-2.7,0.2-5.4,0.2-8.1,0.3c-12.8,0.3-25.2,0.2-37.9-0.3c-19.5-0.6-40.9-8.8-49.7-28.1
			c-3.4-7.4-4.2-16-2.9-24c1.3-8.5,2.4-12.3,7.2-19.2c2.4-3.4,1.4-8.9,2.2-12.8c1-5.1,2.7-10.2,5.4-14.9
			c5.9-10.4,15.7-17.9,26.5-22.5c4.5-1.9,8.9-3.4,13.7-4.5C129.4,55.2,141.6,54.6,151,55.8z"/>
		<g>
			<path style="fill-rule:evenodd;clip-rule:evenodd;fill:#FFBBB7;" d="M111.4,134c0,11.3-9.1,20.6-20.5,20.6s-20.5-9.3-20.5-20.6
				s9.1-20.6,20.5-20.6S111.4,122.6,111.4,134"/>
			<path style="fill-rule:evenodd;clip-rule:evenodd;fill:#FFBBB7;" d="M211.4,134c0,11.3-9.1,20.6-20.5,20.6s-20.5-9.3-20.5-20.6
				s9.1-20.6,20.5-20.6C202.3,113.4,211.4,122.6,211.4,134"/>
		</g>
		<g>
			<path style="fill-rule:evenodd;clip-rule:evenodd;" d="M144.5,127.4c0,1.4-1.6,2.7-3.5,2.7s-3.5-1.3-3.5-2.7
				c0-1.4,1.6-2.7,3.5-2.7S144.5,126,144.5,127.4"/>
		</g>
		<path style="fill-rule:evenodd;clip-rule:evenodd;fill:#E73841;" d="M148,144.8v12.5c0,3-3.2,6.9-6.9,6.9c-3.8,0-6.9-3.8-6.9-6.9
			v-12.5"/>
		<g>
			<path d="M141,165.6c-4.6,0-8.3-4.5-8.3-8.3v-12.5c0-0.8,0.6-1.4,1.4-1.4s1.4,0.6,1.4,1.4v12.5c0,2.4,2.6,5.4,5.4,5.4
				s5.4-3,5.4-5.4v-12.5c0-0.8,0.6-1.4,1.4-1.4c0.8,0,1.4,0.6,1.4,1.4v12.5C149.3,161,145.6,165.6,141,165.6z"/>
			<path d="M141,166.4c-5.1,0-9.1-5-9.1-9.1v-12.5c0-1.3,1-2.2,2.2-2.2s2.2,1,2.2,2.2v12.5c0,2.1,2.2,4.6,4.6,4.6s4.6-2.6,4.6-4.6
				v-12.5c0-1.3,1-2.2,2.2-2.2s2.2,1,2.2,2.2v12.5C150.1,161.5,146.1,166.4,141,166.4z M134.1,144.2c-0.3,0-0.6,0.3-0.6,0.6v12.5
				c0,3.4,3.4,7.5,7.5,7.5c4,0,7.5-4.2,7.5-7.5v-12.5c0-0.3-0.3-0.6-0.6-0.6s-0.6,0.3-0.6,0.6v12.5c0,2.9-2.9,6.2-6.2,6.2
				c-3.4,0-6.2-3.4-6.2-6.2v-12.5C134.7,144.5,134.4,144.2,134.1,144.2z"/>
		</g>
		<path style="fill-rule:evenodd;clip-rule:evenodd;fill:#FFFFFF;" d="M135.5,143.2v1c0,0.8,0.8,1.6,1.3,1.6h8.1
			c0.5,0,1.3-0.6,1.3-1.6v-0.8c0-0.8-0.3-1.4-0.6-1.6c-1.1-0.3-3.2-0.2-4.2-1.8c-0.3-0.5-0.6-0.5-1-0.2c-0.8,1-2.2,1.3-4.2,1.6
			C135.8,141.6,135.5,142.4,135.5,143.2z"/>
		<path d="M131.5,146.9c-1.4,0-3.8-0.3-4.8-2.1c-0.6-1.1-0.3-2.2,0.5-3.2s2.1-1,3-0.2c0.5,0.3,0.6,0.8,0.8,1.3c0.3,0,0.6,0,1,0
			c3.7-0.3,5.6-2.4,7.2-7.7c0.3-1.1,1.6-1.8,2.7-1.4s1.8,1.6,1.4,2.7c-1.6,5.1-4,9.9-10.9,10.7C132,146.9,131.8,146.9,131.5,146.9z"
			/>
		<path d="M150.4,146.9c-0.3,0-0.5,0-0.6,0c-6.9-0.8-9.3-5.6-10.9-10.7c-0.3-1.1,0.3-2.4,1.4-2.7c1.1-0.3,2.4,0.3,2.7,1.4
			c1.6,5.3,3.5,7.4,7.2,7.7c0.3,0,0.6,0,1,0c0-0.5,0.3-1,0.8-1.3c1-0.8,2.2-0.6,3,0.2c0.8,1,1,2.2,0.5,3.2
			C154.4,146.6,151.8,146.9,150.4,146.9z"/>
		<g>
			<g>
				<g>
					<path style="fill-rule:evenodd;clip-rule:evenodd;fill:#FFFFFF;" d="M161.2,124.2L161.2,124.2c-2.7,0-4.8-1.9-4.8-4.5v-0.6
						c0-2.4,2.1-4.5,4.8-4.5s4.8,1.9,4.8,4.5v0.6C166,122.1,164,124.2,161.2,124.2"/>
					<path d="M161.2,125.7c-3.4,0-6.2-2.7-6.2-5.9v-0.6c0-3.2,2.7-5.9,6.2-5.9s6.2,2.7,6.2,5.9v0.6
						C167.5,122.9,164.8,125.7,161.2,125.7z M161.2,116.1c-1.9,0-3.4,1.4-3.4,3v0.6c0,1.6,1.4,3,3.4,3s3.4-1.3,3.4-3v-0.6
						C164.8,117.5,163.2,116.1,161.2,116.1z"/>
				</g>
				<g>
					<path style="fill-rule:evenodd;clip-rule:evenodd;fill:#FFFFFF;" d="M120.7,124.2L120.7,124.2c-2.7,0-4.8-1.9-4.8-4.5v-0.6
						c0-2.4,2.1-4.5,4.8-4.5c2.7,0,4.8,1.9,4.8,4.5v0.6C125.5,122.1,123.4,124.2,120.7,124.2"/>
					<path d="M120.7,125.7c-3.4,0-6.2-2.7-6.2-5.9v-0.6c0-3.2,2.7-5.9,6.2-5.9s6.2,2.7,6.2,5.9v0.6
						C126.9,122.9,124.2,125.7,120.7,125.7z M120.7,116.1c-1.9,0-3.4,1.4-3.4,3v0.6c0,1.6,1.4,3,3.4,3s3.4-1.3,3.4-3v-0.6
						C124,117.5,122.6,116.1,120.7,116.1z"/>
				</g>
			</g>
		</g>
	</g>
</g>
<path style="fill:#0083CB;" d="M82.8,186.7"/>
<g>
	<path style="fill:#0083CB;" d="M100,186.5c-2.9-2.1-6.6-2.9-10.1-2.9c-0.3-3-1-7.5-2.9-8.5c-5.4-2.6-4.3,5.9-3.8,9.4
		c-0.6,0.2-1.4,0.5-2.1,0.6c-6.7,2.4-14.5,1.6-21.1,4.2c-0.2,0.2-0.5,0.2-0.6,0.3c-5.8,2.4-9.9,9.6-9.7,16.1c0,5.9,6.2,8.9,11.3,9.6
		c6.1,0.6,12-0.3,17.9-0.8c8.8-0.6,20.6,4.3,26-6.2C108.7,200.9,106.8,191.5,100,186.5z"/>
	<path d="M85.2,174.7c0.5,0,1.1,0.2,1.8,0.5c1.9,1,2.7,5.6,2.9,8.5c0.2,0,0.2,0,0.3,0c3.5,0,6.9,0.8,9.7,2.9c6.7,5,8.6,14.5,5,21.7
		c-2.9,5.6-7.7,6.9-12.6,6.9c-3.8,0-7.8-0.6-11.5-0.6c-0.6,0-1.3,0-1.9,0c-4.6,0.3-9.1,1.1-13.7,1.1c-1.4,0-2.7,0-4.2-0.2
		c-5.3-0.6-10.2-3.8-10.2-9.7c0-6.6,3.5-12.5,9.3-14.9c0.2-0.2,0.5-0.2,0.6-0.3c6.6-2.6,13.7-2.9,20.5-5.3c0.6-0.2,1.4-0.5,2.1-0.6
		C82.8,181.4,82,174.7,85.2,174.7 M85.2,170.4c-1.8,0-3.5,0.8-4.6,2.1c-2.1,2.2-2.2,5.6-2.1,9.1c-2.6,0.8-5.1,1.3-8,1.9
		c-3.8,0.8-7.7,1.6-11.5,3c-0.3,0.2-0.5,0.2-0.8,0.3c-7.4,3-12,10.5-12,18.9c0,7.4,5.8,13.1,14.1,14.1c1.4,0.2,3,0.3,4.6,0.3
		c3.4,0,6.6-0.3,9.7-0.6c1.4-0.2,2.9-0.3,4.5-0.5c0.5,0,1,0,1.6,0c1.6,0,3.4,0.2,5.3,0.3c2.1,0.2,4.2,0.3,6.2,0.3
		c2.9,0,11.8,0,16.5-9.3c4.8-9.1,1.9-21.1-6.2-27.2c-2.6-1.9-5.4-3-8.8-3.5c-0.8-4.5-2.4-7.2-4.8-8.3
		C87.6,170.7,86.5,170.4,85.2,170.4L85.2,170.4L85.2,170.4L85.2,170.4z"/>
</g>
<g>
	<path style="fill:#0083CB;" d="M181.9,186.5c2.9-2.1,6.6-2.9,10.1-2.9c0.3-3,1-7.5,2.9-8.5c5.4-2.6,4.3,5.9,3.8,9.4
		c0.6,0.2,1.4,0.5,2.1,0.6c6.7,2.4,14.5,2.1,21.1,4.6c0.2,0.2,0.5,0.2,0.6,0.3c5.8,2.4,10.1,9.4,9.9,16c0,5.9-6.4,9.7-11.5,10.4
		c-6.1,0.6-11.8-1.6-17.7-2.1c-8.8-0.6-20.6,4.3-26-6.2C173.2,200.9,175.3,191.5,181.9,186.5z"/>
	<path d="M196.7,174.7c3.4,0,2.4,6.9,2.1,9.9c0.6,0.2,1.4,0.5,2.1,0.6c6.7,2.4,13.9,2.7,20.5,5.3c0.2,0.2,0.5,0.2,0.6,0.3
		c5.8,2.4,9.4,8.3,9.3,14.9c0,5.9-5.1,9.1-10.2,9.7c-1.4,0.2-2.7,0.2-4.2,0.2c-4.6,0-9.3-0.6-13.7-1.1c-0.6,0-1.3,0-1.9,0
		c-3.7,0-7.7,0.6-11.5,0.6c-5.1,0-9.7-1.3-12.6-6.9c-3.7-7.2-1.8-16.8,5-21.7c2.9-2.1,6.4-2.9,9.7-2.9c0.2,0,0.2,0,0.3,0
		c0.3-3,1-7.5,2.9-8.5C195.6,174.9,196.2,174.7,196.7,174.7 M196.7,170.4c-1.1,0-2.4,0.3-3.7,1c-2.4,1.1-4,3.8-4.8,8.3
		c-3.4,0.5-6.4,1.6-8.8,3.5c-8.1,6.1-10.9,17.9-6.2,27.2c4.8,9.3,13.6,9.3,16.5,9.3c2.1,0,4.2-0.2,6.2-0.3c1.9-0.2,3.7-0.3,5.3-0.3
		c0.5,0,1.1,0,1.6,0c1.4,0.2,2.9,0.3,4.5,0.5c3.2,0.3,6.4,0.6,9.7,0.6c1.6,0,3.2-0.2,4.6-0.3c8.3-1,14.1-6.6,14.1-14.1
		c0-8.3-4.6-15.7-12-18.9c-0.3-0.2-0.5-0.2-0.8-0.3c-3.8-1.4-7.7-2.2-11.5-3c-2.7-0.6-5.4-1.1-8-1.9c0.2-3.7,0-6.9-2.1-9.1
		C200.2,171,198.5,170.4,196.7,170.4L196.7,170.4z"/>
</g>
<g>
	<g>
		<path d="M286.1,189.7c1.1,0,2.2,0.3,3,1.3c1.9,2.2,2.4,6.6,2.6,9.4c1,5.8,0.5,14.7-2.1,20c-1,1.8-2.1,2.7-3.5,2.7
			c-1,0-1.9-0.5-2.9-1.3c-1.9-1.8-2.2-4-1.9-6.4c0-0.5,1-5.1,0.8-5.1c-1,0-1.9,0-2.9,0c-1.8,0-3.8-0.3-4.5-1.8
			c-0.6-1.4-0.5-4.2,0.8-5.3c1.3-1.3,3.5-0.6,4.8-2.1c0.2-0.2,0.3-0.5,0.5-0.6c1.1-2.4-0.3-5.4,1-8
			C282.4,190.9,284.3,189.7,286.1,189.7 M286.1,185.4c-3.5,0-6.9,1.9-8.5,5c-1.3,2.4-1.1,4.6-1,6.4c0,0.3,0,1,0,1.3
			c-1.1,0.2-2.9,0.6-4.3,2.1c-2.6,2.6-2.9,7.4-1.6,10.1c1.1,2.2,3.2,3.7,6.4,4.2c0,0.3-0.2,0.5-0.2,0.6c-0.3,2.9-0.2,6.9,3.4,10.1
			c2.2,1.9,4.3,2.2,5.8,2.2c3,0,5.6-1.8,7.4-5c3-5.9,3.7-15.8,2.6-22.4c-0.3-3.2-0.8-8.3-3.5-11.5
			C290.8,186.5,288.6,185.4,286.1,185.4L286.1,185.4z"/>
		<path d="M267.2,223.5c1.1,0,2.1,0.3,2.9,1.1c2.7,3-2.2,8.6,1.1,11c0.5,0.3,1,0.5,1.6,0.5c0.5,0,1,0,1.4-0.2
			c1.9-0.3,4.2-0.6,6.4-0.6c1.8,0,3.5,0.2,5,1c1.9,0.8,3.7,3.8,2.9,5.9c-0.2,0.6-0.6,1.3-1.3,1.8c-3,2.6-9.7,3.7-13.9,3.7
			c-0.8,0-1.4,0-2.1-0.2c-6.2-1-10.9-6.1-11.5-12.3c-0.3-2.7,0.2-6.7,1.9-8.9C262.7,224.7,265.1,223.5,267.2,223.5 M267.2,219.1
			c-3.4,0-7,1.8-8.9,4.3c-2.7,3.4-3.2,8.5-2.9,12c0.8,8.3,7,14.9,15.2,16.1c0.8,0.2,1.6,0.2,2.7,0.2c4.2,0,12.3-1,16.6-4.6
			c1.3-1.1,2.1-2.2,2.6-3.7c1.6-4.3-1.4-9.4-5.3-11.2c-1.9-0.8-4-1.3-6.7-1.3c-2.1,0-4.3,0.3-6.1,0.5c0-0.2,0-0.3,0.2-0.5
			c0.5-2.4,1.4-6.2-1.4-9.3C271.8,220.1,269.6,219.1,267.2,219.1L267.2,219.1z"/>
		<path d="M255.1,185.1c1.8,0,5.1,1.3,6.2,1.4c0.2,0,0.2,3.7,0.2,4c0.6,2.2,0.3,2.1,2.9,2.4c0.2,0,0.3,0,0.5,0c0.5,0,1,0,1.4-0.2
			c0.6-0.2,1.4-0.3,2.1-0.3c0.6,0,1.1,0.2,1.8,0.5c5.8,3.4-0.6,10.7-3.7,12.9c0,0,5.6,6.1,5.9,6.7c1,2.2-0.2,6.7-2.4,8
			c-0.6,0.5-1.3,0.6-1.9,0.6c-2.2,0-4-2.2-5.4-4c-1-1.3-2.6-5.3-4.2-5.3l0,0c-1.1,0-4.8,5.1-5.4,5.8c-1.3,1.3-3.7,4.6-5.6,5
			c-0.2,0-0.3,0-0.3,0c-2.2,0-4-3.2-3.8-5.4c0.2-1.8,2.1-3.7,3.2-4.8c2.7-2.9,5.6-5.3,8-8.5c2.4-3,0.8-3.7-1.8-3.7
			c-1.9,0-4.3,0.3-6.1,0.3c-0.5,0-1,0-1.3-0.2c-0.5-0.2-1-0.2-1.3-0.6c-0.2-0.3-0.3-0.6-0.3-1c-0.2-1.3,0-2.7,0.5-4
			c0.2-0.5,0.3-1,0.8-1.3s1-0.5,1.6-0.5c2.7-0.3,5.4-0.8,8-1.1c-1-1.4-2.6-5.9-0.5-7.2C254.4,185.3,254.7,185.1,255.1,185.1
			 M255.1,181L255.1,181c-1.1,0-2.2,0.3-3,0.8c-1.4,1-2.6,2.4-2.9,4.2c-0.2,1-0.2,2.1-0.2,3.2l-2.9,0.5c-0.8,0.2-2.2,0.3-3.7,1.4
			c-1.3,1.1-1.8,2.4-2.1,3.4c-0.5,1.8-0.8,3.7-0.6,5.6c0,0.8,0.3,1.9,1.1,3c1.3,1.8,3.2,2.1,3.8,2.2c0.6,0.2,1.3,0.2,2.1,0.2
			c0.3,0,0.8,0,1.3,0c-0.8,0.8-1.4,1.4-2.2,2.2s-1.4,1.4-2.2,2.2l-0.2,0.2c-1.6,1.6-4,4-4.3,7.4c-0.2,2.6,0.8,5.4,2.7,7.5
			c1.4,1.6,3.4,2.6,5.4,2.6c0.3,0,0.6,0,1.1-0.2c3.2-0.5,5.4-3.2,7.2-5.3c0.3-0.3,0.6-0.6,0.8-1c0.3-0.3,0.6-0.6,1.3-1.4
			c0.2-0.3,0.5-0.6,1-1.1c0.3,0.6,0.8,1.3,1.1,1.8c1.6,2.1,4.5,5.6,8.8,5.6c1.4,0,2.9-0.5,4.2-1.3c4-2.4,5.9-9.1,4-13.4
			c-0.3-0.8-1-1.6-3.8-4.8c2.2-2.6,4.5-6.2,4.3-9.9c-0.2-2.9-1.8-5.4-4.5-6.9c-1.1-0.6-2.6-1-4-1c-1,0-1.8,0.2-2.4,0.3H266
			c0-2.4-0.2-5.8-3.7-6.2c-0.3,0-0.8-0.2-1.3-0.3C258.4,181.4,256.6,181,255.1,181L255.1,181z"/>
		<path d="M313.1,194.4c0.5,0,1,0,1.4,0c1.4,0.2,3.5,0,5.6,0.2c2.6,0.2,5,0.8,5.9,2.6c2.2,4-1.3,8.8-4.2,11.3c0,0,6.2,5.3,6.6,6.1
			c1.3,2.1,0.6,6.6-1.4,8.1c-0.8,0.6-1.4,0.8-2.2,0.8c-2.1,0-4-1.9-5.4-3.4c-1.1-1.1-3-4.8-4.6-4.8c0,0,0,0-0.2,0
			c-1.1,0.2-4.2,5.8-4.8,6.4c-1.1,1.4-3,5-5.1,5.6c-0.2,0-0.5,0.2-0.6,0.2c-2.1,0-4-2.9-4.2-5c0-1.8,1.6-3.8,2.7-5.1
			c2.4-3,5-5.9,7-9.3c1.8-2.9,1.4-3.7,0.2-3.7c-1.4,0-3.8,0.8-5.9,0.8c-0.5,0-1,0-1.3-0.2c-2.1-0.5-1.9-0.8-1.4-3.4
			c0.3-2.2,0.8-4.2,2.7-5.4C307,195,310,194.4,313.1,194.4 M313.1,190.1c-4,0-7.7,1-10.9,2.7c-4,2.2-4.6,6.2-5,8.5v0.3
			c-0.3,2.1-1,6.1,4.6,7.7c0.6,0.2,1.1,0.3,1.8,0.3c-0.6,1-1.4,1.8-2.1,2.7c-0.6,0.8-1.3,1.6-2.1,2.6l-0.2,0.2
			c-1.4,1.8-3.5,4.5-3.4,7.8c0.2,4.2,3.8,9.1,8.5,9.1c0.6,0,1.3-0.2,1.8-0.3c3-0.8,5.1-3.8,6.6-6.1c0.3-0.5,0.5-0.8,0.8-1.1
			s0.5-0.8,1.1-1.6c0.2-0.3,0.5-0.8,0.8-1.3c0.5,0.6,0.8,1.1,1.3,1.6c1.9,1.9,4.6,4.6,8.5,4.6c1.8,0,3.4-0.6,4.8-1.8
			c3.7-2.9,4.8-9.7,2.4-13.7c-0.5-0.8-1.1-1.4-4.3-4.2c2.9-3.8,4.3-8.8,1.8-13.1c-2.4-4.2-7.7-4.6-9.4-4.6c-1.3-0.2-2.6-0.2-3.7-0.2
			c-0.8,0-1.4,0-1.9,0C314.2,190.1,313.7,190.1,313.1,190.1L313.1,190.1z"/>
		<path d="M350.5,192.8c1.3,0,2.4,0.5,3,1.4c1.6,2.6,0.2,7.4,0,10.1c-0.2,4.3,0.2,8.6,0.3,12.9c0.2,3-0.2,6.2,0,9.3
			c0.2,2.2-0.6,3.8-3.2,4.2c-0.2,0-0.3,0-0.5,0c-0.8,0-1.6-0.2-2.4-0.6c-2.6-1.6-2.1-7-2.2-9.6c-0.2-2.4,0.2-4.8-0.6-7
			c0,0,0,0-0.2,0c-1,0-1.9-0.2-2.9-0.2l0,0c-0.3,0,0.2,4.6,0.2,5c0.2,2.1,0.8,5.3-1.1,6.9c-0.6,0.5-1.6,0.8-2.4,0.8
			c-0.2,0-0.2,0-0.3,0c-1,0-1.9-0.5-2.9-1c-2.1-1.3-2.6-4.2-2.7-6.4c-0.3-5.9-0.8-12-0.6-17.9c0-2.1,0.8-4,3.4-4.6
			c0.8-0.2,2.2-0.5,3.5-0.5c0.8,0,1.4,0.2,1.9,0.5c1.1,1.1,0.8,2.9,0.8,4.3c0.2,2.1-0.5,4.3,1.6,4.3c0.3,0,0.6,0,1.1-0.2
			c1-0.3,0-7.7,0.3-8.6C345.5,194.1,348.2,192.8,350.5,192.8 M350.5,188.5L350.5,188.5c-2.7,0-5.9,1.1-8,3.2c-1-0.5-2.1-0.6-3.4-0.6
			c-1.8,0-3.5,0.5-4.5,0.6c-4.3,1-6.7,4.2-6.9,8.6c-0.2,6.4,0.3,13.1,0.6,18.4c0.2,2.1,0.5,7.2,4.8,9.7c1.6,1,3,1.4,4.6,1.6
			c0.2,0,0.5,0,0.6,0c1.3,0,2.4-0.3,3.5-0.8c0.6,1.8,1.6,3.4,3.4,4.3c1.3,0.8,2.9,1.3,4.6,1.3c0.3,0,0.6,0,1,0
			c4.5-0.5,7.2-3.8,7-8.6c-0.2-1.6,0-3.2,0-4.8c0-1.4,0-2.9,0-4.3c0-1.1-0.2-2.2-0.2-3.5c-0.2-3.2-0.3-6.2-0.2-9.1
			c0-0.6,0.2-1.4,0.3-2.2c0.5-3.2,1.1-7.2-1-10.4C355.7,189.6,353.3,188.5,350.5,188.5L350.5,188.5z"/>
		<g>
			<path style="fill:#FFEA88;" d="M280.1,201.1c-1.3,1.6-3.5,0.8-4.8,2.1c-1.1,1.1-1.4,3.8-0.8,5.3c0.8,1.6,2.7,1.8,4.5,1.8
				c1,0,1.9,0,2.9,0c0.3,0-0.6,4.6-0.8,5.1c-0.2,2.4,0,4.6,1.9,6.4c2.6,2.2,5,1.4,6.4-1.4c2.7-5.3,3-14.2,2.1-20
				c-0.3-2.9-0.8-7.2-2.6-9.4c-1.9-2.4-6.2-1.3-7.7,1.4c-1.3,2.4,0.2,5.4-1,8C280.3,200.6,280.3,200.9,280.1,201.1z"/>
			<path style="fill:#FFCF00;" d="M286.1,192.6c0.3,0,0.6,0,0.8,0.3c1.3,1.6,1.8,5.6,1.9,7.8v0.2c0.8,5.4,0.5,13.7-1.9,18.2
				c-0.5,1-1,1.1-1,1.1c-0.2,0-0.5-0.2-1-0.6c-0.8-0.6-1.1-1.6-1-3.8c0-0.2,0.2-0.5,0.2-1c0.8-4,1-5,0-6.2c-0.5-0.6-1.3-1.1-2.2-1.1
				h-0.2H279c-1.3,0-1.8-0.2-2.1-0.3c-0.2-0.5,0-1.4,0.2-1.9c0.2,0,0.5-0.2,0.8-0.2c1.1-0.2,2.9-0.6,4.2-2.2
				c0.3-0.3,0.5-0.8,0.8-1.3c0.8-1.8,0.8-3.7,0.6-5.3c0-1.1-0.2-2.1,0.2-2.6C284.3,193.1,285.3,192.6,286.1,192.6 M277.4,205.2
				L277.4,205.2L277.4,205.2 M286.1,189.7c-1.9,0-3.8,1.1-4.6,2.7c-1.3,2.4,0.2,5.4-1,8c-0.2,0.3-0.3,0.5-0.5,0.6
				c-1.3,1.6-3.5,0.8-4.8,2.1c-1.1,1.1-1.4,3.8-0.8,5.3c0.8,1.6,2.7,1.8,4.5,1.8c1,0,1.9,0,2.9,0c0.3,0-0.6,4.6-0.8,5.1
				c-0.2,2.4,0,4.6,1.9,6.4c1,0.8,1.9,1.3,2.9,1.3c1.4,0,2.6-1,3.5-2.7c2.7-5.3,3-14.2,2.1-20c-0.3-2.9-0.8-7.2-2.6-9.4
				C288.3,190.2,287.3,189.7,286.1,189.7L286.1,189.7z"/>
		</g>
		<g>
			<path style="fill:#FFEA88;" d="M287.2,243.8c-3.5,3-12.6,4-15.8,3.5c-6.2-1-10.9-6.1-11.5-12.3c-0.3-2.7,0.2-6.7,1.9-8.9
				c1.8-2.1,6.2-3.8,8.5-1.4c2.7,3-2.2,8.6,1.1,11c0.8,0.6,1.9,0.5,3,0.3c3.5-0.5,8-1.3,11.3,0.3c1.9,0.8,3.7,3.8,2.9,5.9
				C288.3,242.6,287.8,243.3,287.2,243.8z"/>
			<path style="fill:#FFCF00;" d="M267.2,226.3c0.3,0,0.6,0,0.8,0.2c0.3,0.3-0.2,2.1-0.3,3c-0.5,2.4-1.4,6.2,1.9,8.5
				c0.8,0.6,1.9,1,3.2,1c0.6,0,1.3-0.2,1.9-0.2h0.5c1.8-0.3,3.7-0.5,5.6-0.5c1.6,0,2.9,0.2,3.8,0.6c0.6,0.3,1.4,1.8,1.4,2.2
				c0,0-0.2,0.3-0.5,0.6c-2.1,1.8-7.8,3-12,3c-0.6,0-1.3,0-1.6-0.2c-4.8-0.6-8.6-4.8-9.1-9.7c-0.2-2.2,0.2-5.4,1.3-6.9
				C264.5,227.1,266.1,226.3,267.2,226.3 M267.2,223.5c-2.1,0-4.5,1.3-5.6,2.7c-1.8,2.2-2.2,6.2-1.9,8.9c0.6,6.2,5.3,11.3,11.5,12.3
				c0.5,0.2,1.3,0.2,2.1,0.2c4.2,0,10.9-1.1,13.9-3.7c0.6-0.5,1.1-1.1,1.3-1.8c0.6-2.1-1-5-2.9-5.9c-1.4-0.6-3.2-1-5-1
				c-2.2,0-4.5,0.3-6.4,0.6c-0.5,0-1,0.2-1.4,0.2s-1.1-0.2-1.6-0.5c-3.4-2.4,1.6-8.1-1.1-11C269.3,223.8,268.3,223.5,267.2,223.5
				L267.2,223.5z"/>
		</g>
		<g>
			<path style="fill:#FFEA88;" d="M266.2,192.9c-0.6,0.2-1.3,0.2-1.9,0.2c-2.6-0.3-2.2-0.3-2.9-2.4c-0.2-0.3,0-4-0.2-4
				c-1.3-0.2-5.9-2.1-7-1.3c-2.1,1.3-0.5,5.8,0.5,7.2c-2.7,0.3-5.4,0.8-8,1.1c-0.5,0-1.1,0.2-1.6,0.5c-0.3,0.3-0.6,0.8-0.8,1.3
				c-0.3,1.3-0.5,2.6-0.5,4c0,0.3,0,0.6,0.3,1c0.3,0.3,0.8,0.5,1.3,0.6c3.2,0.6,13.7-2.6,9.1,3.4c-2.4,3.2-5.3,5.6-8,8.5
				c-1.1,1.3-3,3-3.2,4.8c-0.2,2.2,1.8,5.8,4.2,5.4c2.1-0.3,4.3-3.7,5.6-5c0.6-0.6,4.3-5.9,5.4-5.8c1.8,0,3.2,4,4.2,5.3
				c1.8,2.2,4.3,5.3,7.4,3.5c2.2-1.4,3.4-5.8,2.4-8c-0.3-0.8-5.9-6.7-5.9-6.7c3.2-2.2,9.4-9.6,3.7-12.9
				C269,192.5,267.7,192.8,266.2,192.9z"/>
			<path style="fill:#FFCF00;" d="M256,187.3L256,187.3L256,187.3 M256,188.1c0.8,0.2,1.8,0.5,2.4,0.6v0.2c0,1.4,0,1.9,0.2,2.4
				l0.2,0.5c0.8,3.2,2.2,3.7,5.1,4c0.3,0,0.6,0,1,0c0.6,0,1.3-0.2,1.9-0.2h0.3c0.5,0,1-0.2,1.3-0.2s0.3,0,0.3,0
				c0.8,0.5,0.8,0.8,0.8,1.1c0.2,1.9-2.6,5.4-4.8,7c-0.6,0.5-1.1,1.3-1.1,2.1c-0.2,1.3,0.2,1.6,2.6,4.2c1,1.1,3,3.4,3.7,4.2
				c0.3,1.1-0.5,3.7-1.3,4.3c-0.2,0-0.3,0.2-0.3,0.2c-0.8,0-2.4-2.1-3.2-2.9c-0.2-0.2-0.5-0.8-0.8-1.3c-1.3-2.2-2.9-5-5.8-5.1
				c-2.1,0-3.7,1.8-6.7,5.8c-0.3,0.5-0.6,0.8-0.8,1c-0.3,0.3-0.6,0.8-1.1,1.3c-0.6,0.8-2.1,2.4-2.7,2.7c-0.5-0.3-1.1-1.6-1-2.2
				c0.2-0.6,1.6-2.2,2.2-2.9l0.2-0.2c0.8-0.8,1.4-1.4,2.2-2.2c2.1-2.1,4.2-4.2,6.1-6.6c0.6-0.8,2.6-3.4,1.4-5.8
				c-1.3-2.4-4.3-2.4-5.4-2.4c-1.1,0-2.2,0.2-3.4,0.2c-1,0-1.8,0.2-2.6,0.2c0-0.6,0.2-1.1,0.3-1.6l6.9-1l1.1-0.2
				c1-0.2,1.8-0.8,2.2-1.6c0.5-1,0.3-1.9-0.2-2.7C256.6,190.2,256.2,189.1,256,188.1 M255.1,185.1c-0.3,0-0.6,0-0.8,0.2
				c-2.1,1.3-0.5,5.8,0.5,7.2c-2.7,0.3-5.4,0.8-8,1.1c-0.5,0-1.1,0.2-1.6,0.5c-0.3,0.3-0.6,0.8-0.8,1.3c-0.3,1.3-0.5,2.6-0.5,4
				c0,0.3,0,0.6,0.3,1c0.3,0.3,0.8,0.5,1.3,0.6c0.3,0,0.8,0.2,1.3,0.2c1.8,0,4.2-0.3,6.1-0.3c2.6,0,4.2,0.6,1.8,3.7
				c-2.4,3.2-5.3,5.6-8,8.5c-1.1,1.3-3,3-3.2,4.8c-0.2,2.1,1.6,5.4,3.8,5.4c0.2,0,0.3,0,0.3,0c2.1-0.3,4.3-3.7,5.6-5
				c0.6-0.6,4.3-5.8,5.4-5.8l0,0c1.8,0,3.2,4,4.2,5.3c1.4,1.8,3.2,4,5.4,4c0.6,0,1.3-0.2,1.9-0.6c2.2-1.4,3.4-5.8,2.4-8
				c-0.3-0.8-5.9-6.7-5.9-6.7c3.2-2.2,9.4-9.6,3.7-12.9c-0.6-0.3-1.1-0.5-1.8-0.5s-1.4,0.2-2.1,0.3c-0.5,0-1,0.2-1.4,0.2
				c-0.2,0-0.3,0-0.5,0c-2.6-0.3-2.2-0.3-2.9-2.4c-0.2-0.3,0-4-0.2-4C260.2,186.5,256.8,185.1,255.1,185.1L255.1,185.1z"/>
		</g>
		<g>
			<path style="fill:#FFEA88;" d="M320.1,194.5c-2.1-0.2-4.2,0-5.6-0.2c-3.5-0.2-7.2,0.3-10.2,2.1c-2.1,1.1-2.4,3.2-2.7,5.4
				c-0.3,2.4-0.5,2.7,1.4,3.4c3.8,1.1,11.2-3.8,7,2.9c-2.1,3.4-4.6,6.2-7,9.3c-1.1,1.3-2.7,3.4-2.7,5.1c0,2.2,2.4,5.4,4.8,4.8
				c2.1-0.6,3.8-4.2,5.1-5.6c0.6-0.8,3.7-6.4,4.8-6.4c1.8-0.2,3.7,3.7,4.8,4.8c2.1,2.1,4.8,4.8,7.7,2.6c2.1-1.6,2.7-6.1,1.4-8.1
				c-0.5-0.6-6.7-5.9-6.6-6.1c2.7-2.6,6.4-7.4,4.2-11.3C325,195.3,322.6,194.9,320.1,194.5z"/>
			<path style="fill:#FFCF00;" d="M313.1,197.3c0.5,0,0.8,0,1.3,0c0.6,0,1.4,0,2.4,0c1.1,0,2.2,0,3.2,0.2c3,0.2,3.7,1,3.7,1.1
				c1.4,2.4-1.8,6.2-3.5,7.8c-0.6,0.5-1,1.3-1,2.1c0,1.3,0.3,1.6,3,3.8c1.1,1,3.5,3,4.2,3.7c0.5,1.1,0,3.7-0.8,4.3
				c-0.3,0.2-0.3,0.2-0.5,0.2c-0.8,0-2.6-1.8-3.4-2.6c-0.2-0.2-0.6-0.8-0.8-1.1c-1.4-1.9-3.2-4.5-5.9-4.5c-0.2,0-0.3,0-0.3,0
				c-2.1,0.2-3.5,2.1-6.2,6.6c-0.3,0.5-0.5,0.8-0.6,1c-0.3,0.3-0.6,0.8-1,1.4c-0.5,0.8-1.8,2.6-2.4,3c-0.5-0.3-1.3-1.4-1.3-2.1
				c0-0.6,1.4-2.4,1.9-3.2l0.2-0.2c0.6-0.8,1.3-1.6,1.9-2.4c1.8-2.2,3.7-4.5,5.3-7.2c1.3-2.1,2.2-4.2,1.1-6.1
				c-0.3-0.6-1.3-1.9-3.5-1.9c-1,0-1.9,0.2-3,0.5c-1,0.2-2.1,0.5-2.9,0.5V202c0.3-2.1,0.6-2.9,1.4-3.4
				C307.8,197.9,310.3,197.3,313.1,197.3 M313.1,194.4c-3,0-6.1,0.6-8.8,2.2c-2.1,1.1-2.4,3.2-2.7,5.4c-0.3,2.4-0.5,2.7,1.4,3.4
				c0.5,0.2,0.8,0.2,1.3,0.2c2.1,0,4.5-0.8,5.9-0.8c1.3,0,1.6,0.8-0.2,3.7c-2.1,3.4-4.6,6.2-7,9.3c-1.1,1.3-2.7,3.4-2.7,5.1
				c0,2.1,2.1,5,4.2,5c0.2,0,0.5,0,0.6-0.2c2.1-0.6,3.8-4.2,5.1-5.6c0.6-0.8,3.7-6.4,4.8-6.4c0,0,0,0,0.2,0c1.8,0,3.7,3.7,4.6,4.8
				c1.4,1.4,3.4,3.4,5.4,3.4c0.6,0,1.4-0.2,2.2-0.8c2.1-1.6,2.7-6.1,1.4-8.1c-0.5-0.6-6.7-5.9-6.6-6.1c2.7-2.6,6.4-7.4,4.2-11.3
				c-1-1.8-3.5-2.4-5.9-2.6c-2.1-0.2-4.2,0-5.6-0.2C314,194.4,313.5,194.4,313.1,194.4L313.1,194.4z"/>
		</g>
		<g>
			<path style="fill:#FFEA88;" d="M332.2,200.5c-0.2,5.9,0.2,12,0.6,17.9c0.2,2.2,0.5,5.1,2.7,6.4c0.8,0.5,1.8,1,2.9,1
				c1,0,2.1-0.2,2.9-0.8c1.9-1.6,1.3-4.6,1.1-6.9c0-0.3-0.5-5-0.2-5c1,0,1.9,0.2,2.9,0.2c0.8,2.2,0.6,4.6,0.6,7
				c0.2,2.7-0.5,8.1,2.2,9.6c0.8,0.5,1.9,0.6,2.9,0.6c2.4-0.3,3.2-1.9,3.2-4.2c-0.2-3,0-6.2,0-9.3c-0.2-4.3-0.5-8.6-0.3-12.9
				c0.2-2.9,1.6-7.5,0-10.1c-1.8-2.7-7.7-1-8.6,1.6c-0.3,1,0.6,8.3-0.3,8.6c-3.4,0.8-2.6-1.8-2.7-4.2c0-1.3,0.3-3.2-0.8-4.3
				c-1.1-1.1-4.2-0.3-5.4,0C333,196.5,332.2,198.2,332.2,200.5z"/>
			<path style="fill:#FFCF00;" d="M350.5,195.5L350.5,195.5c0.3,0,0.5,0,0.6,0l0,0c0.6,1,0.2,3.7,0,5.4c-0.2,1.1-0.3,2.1-0.3,3
				c-0.2,3.4,0,6.6,0.2,9.7c0,1.1,0.2,2.2,0.2,3.4c0,1.3,0,2.7,0,4c0,1.8,0,3.5,0,5.3c0,0.6,0,1-0.2,1c0,0-0.2,0.2-0.5,0.2
				c-0.2,0-0.2,0-0.3,0c-0.3,0-0.6,0-1-0.2c-0.5-0.3-0.8-2.2-0.8-5.6c0-0.6,0-1.1,0-1.8c0-0.5,0-1.1,0-1.6c0-1.9,0-4.2-0.8-6.2
				c-0.5-1.1-1.6-1.9-2.9-1.9c-0.5,0-0.8,0-1.3,0s-1-0.2-1.6-0.2c-0.8,0-1.6,0.3-2.1,1c-1,1.1-1,2.1-0.5,6.9v0.2c0,0.3,0,0.6,0.2,1
				c0.2,1,0.3,3-0.2,3.4c-0.2,0.2-0.3,0.2-0.8,0.2l0,0c-0.5,0-1-0.2-1.6-0.6c-1-0.5-1.1-2.4-1.3-4.2c-0.5-6.6-0.8-12.1-0.6-17.7
				c0-1.6,0.5-1.8,1.3-1.9c0.6-0.2,1.8-0.5,2.6-0.5c0,0.3,0,0.6,0,1c0,0.5,0,0.8,0,1.1s0,0.8,0,1.1c0,1.4,0,3.4,1.3,4.6
				c0.5,0.5,1.6,1.3,3,1.3c0.6,0,1.1-0.2,1.9-0.3c2.9-0.8,2.7-3.8,2.6-8.3c0-0.8-0.2-1.6,0-2.2C348.1,196.1,349.3,195.5,350.5,195.5
				 M347.7,196.3L347.7,196.3L347.7,196.3 M350.5,192.8c-2.2,0-5,1.3-5.6,3c-0.3,1,0.6,8.3-0.3,8.6c-0.5,0.2-0.8,0.2-1.1,0.2
				c-2.1,0-1.4-2.2-1.6-4.3c0-1.3,0.3-3.2-0.8-4.3c-0.5-0.5-1.1-0.5-1.9-0.5c-1.3,0-2.7,0.3-3.5,0.5c-2.6,0.6-3.4,2.4-3.4,4.6
				c-0.2,5.9,0.2,12,0.6,17.9c0.2,2.2,0.5,5.1,2.7,6.4c0.8,0.5,1.8,1,2.9,1c0.2,0,0.2,0,0.3,0c1,0,1.8-0.3,2.4-0.8
				c1.9-1.6,1.3-4.6,1.1-6.9c0-0.3-0.5-5-0.2-5l0,0c1,0,1.9,0.2,2.9,0.2c0,0,0,0,0.2,0c0.8,2.2,0.6,4.6,0.6,7
				c0.2,2.7-0.5,8.1,2.2,9.6c0.6,0.5,1.6,0.6,2.4,0.6c0.2,0,0.3,0,0.5,0c2.4-0.3,3.2-1.9,3.2-4.2c-0.2-3,0-6.2,0-9.3
				c-0.2-4.3-0.5-8.6-0.3-12.9c0.2-2.9,1.6-7.5,0-10.1C352.9,193.1,351.7,192.8,350.5,192.8L350.5,192.8z"/>
		</g>
		<g>
			<path d="M367.7,192.6c0.6,0,1.4,0.2,2.1,0.2c4.2,0,5.3-0.3,5,4c-0.3,5.3-1.1,10.5-1.3,15.7c-0.2,3.4-1.6,5.9-4.8,5.9
				c-0.3,0-0.8,0-1.3-0.2c-1.9-0.3-2.9-1.3-3.4-2.4c-0.8-1.9-0.2-4.6-0.3-6.9c-0.2-3.5-1.6-12.3,1.3-15.3
				C365.8,192.8,366.8,192.6,367.7,192.6 M367.7,188.3c-1,0-3.7,0-5.8,2.2c-3.7,3.8-3,11-2.6,16.1c0,1,0.2,1.8,0.2,2.4
				c0,0.6,0,1.3,0,1.9c-0.2,1.9-0.2,4.2,0.6,6.4c1,2.9,3.4,4.6,6.6,5.3c0.6,0.2,1.3,0.2,1.9,0.2c5.4,0,8.9-4,9.1-10.1
				c0-2.7,0.3-5.4,0.6-8.5c0.2-2.4,0.5-4.8,0.6-7.2c0.2-2.2,0-4.6-1.8-6.6s-4.2-1.9-6.6-1.9h-1c-0.2,0-0.5,0-0.8,0
				C368.8,188.3,368.2,188.3,367.7,188.3L367.7,188.3z"/>
			<path d="M369.2,223.9c0.8,0,1.6,0.2,2.2,0.2c0.6,0.2,1.4,0.3,1.9,1c-0.3,1.8,0.8,4.3-1,5.6c-0.5,0.3-2.6,0.5-4.2,0.5
				c-1,0-1.8,0-1.9-0.2c-1-0.8-1.1-5.6-0.3-6.4C366.4,224.3,367.7,223.9,369.2,223.9 M369.2,219.8c-2.9,0-5,0.6-6.2,1.9
				c-0.5,0.5-1.9,1.9-1.8,6.2c0.2,4.6,1.9,6.1,2.4,6.4c1.3,1,2.7,1.3,4.6,1.3c4.8,0,6.2-1,6.7-1.4c3-2.2,2.9-5.8,2.7-7.5
				c0-0.3,0-0.8,0-1c0.2-1-0.2-2.1-0.6-2.9c-1.4-2.2-3.5-2.7-4.5-2.9C371.4,219.8,370.3,219.8,369.2,219.8L369.2,219.8z"/>
		</g>
		<g>
			<g>
				<path style="fill:#FFE78D;" d="M369.9,192.6c-1.6,0-3.5-0.5-4.6,0.8c-2.9,3.2-1.4,12-1.3,15.3c0,2.2-0.5,5,0.3,6.9
					c0.5,1.3,1.4,2.1,3.4,2.4c4.2,0.8,6.1-2.1,6.1-5.9c0.2-5.3,1-10.4,1.3-15.7C375.1,192.3,374.1,192.8,369.9,192.6z"/>
				<path style="fill:#FFCB00;" d="M367.4,195.3L367.4,195.3L367.4,195.3 M367.7,195.3c0.3,0,0.6,0,1,0c0.3,0,0.6,0,1,0h1
					c0.3,0,0.8,0,1.1,0c0,0.3,0,0.5,0,1c-0.2,2.2-0.3,4.6-0.5,6.9c-0.3,2.9-0.6,5.9-0.6,8.9c0,3.2-1.4,3.2-2.1,3.2
					c-0.2,0-0.5,0-0.8,0c-1-0.2-1-0.5-1.1-0.6c-0.3-0.8-0.2-2.1-0.2-3.5c0-0.8,0.2-1.8,0-2.6c0-0.8-0.2-1.6-0.2-2.7
					c-0.2-2.7-0.8-8.8,0.6-10.5C367.4,195.5,367.6,195.3,367.7,195.3 M367.7,192.6c-1,0-1.9,0.2-2.6,0.8c-2.9,3.2-1.4,12-1.3,15.3
					c0,2.2-0.5,5,0.3,6.9c0.5,1.3,1.4,2.1,3.4,2.4c0.5,0,0.8,0.2,1.3,0.2c3.4,0,4.8-2.6,4.8-5.9c0.2-5.3,1-10.4,1.3-15.7
					c0.2-4.3-0.8-4-5-4C369.3,192.6,368.5,192.6,367.7,192.6L367.7,192.6z"/>
			</g>
			<g>
				<path style="fill:#FFE78D;" d="M373.1,225.2c-0.5-0.8-1.3-0.8-1.9-1c-1.3-0.3-4.5-0.3-5.4,0.5c-0.8,0.8-0.6,5.6,0.3,6.4
					c0.5,0.5,5.3,0.2,6.1-0.3C373.9,229.5,372.8,227,373.1,225.2z"/>
				<path style="fill:#FFCB00;" d="M368.2,226.2L368.2,226.2L368.2,226.2 M369.2,226.8c0.5,0,1,0,1.3,0c0,0.2,0,0.2,0,0.3
					c0,0.3,0,0.8,0,1.1c-0.5,0-1.3,0.2-2.1,0.2c0-0.5-0.2-1.1,0-1.6C368.4,226.8,368.7,226.8,369.2,226.8 M369.2,223.9
					c-1.3,0-2.7,0.2-3.2,0.8c-0.8,0.8-0.6,5.6,0.3,6.4c0.2,0.2,1,0.2,1.9,0.2c1.6,0,3.7-0.2,4.2-0.5c1.6-1.3,0.6-3.8,1-5.6
					c-0.5-0.8-1.3-0.8-1.9-1C370.7,224.1,369.9,223.9,369.2,223.9L369.2,223.9z"/>
			</g>
		</g>
	</g>
	<g>
		<path style="fill:#342F1D;" d="M249.1,162.6c-1.8,0-3.4-0.5-4.6-1.6c-2.1-1.8-3.2-4.8-2.9-8c0.3-3.5,2.1-6.6,4.8-8.1
			c3.2-1.9,7.7-1.3,9.9,1.3c0.5,0.6,0.6,1.4,0.3,2.1c1.6,3.5,1.4,7.7-0.5,10.7c-1.3,1.9-3.5,3.2-5.9,3.5
			C249.9,162.6,249.6,162.6,249.1,162.6z M250.7,147.9c-0.6,0-1.4,0.2-2.1,0.5c-1.6,1-2.6,2.9-2.7,5c-0.2,1.4,0.2,3.4,1.4,4.3
			c0.8,0.6,1.9,0.6,2.6,0.6c1.3-0.2,2.4-0.8,3-1.8c1.3-1.9,1.3-4.8-0.2-7c-0.2-0.3-0.3-0.8-0.3-1.3
			C251.9,148,251.2,147.9,250.7,147.9z"/>
		<path style="fill:#342F1D;" d="M264.8,163.9c-0.2,0-0.2,0-0.3,0c-1.1-0.2-1.9-1.1-1.8-2.4c0.8-6.2,0.2-12.6-1.6-18.7
			c-0.3-1.1,0.3-2.2,1.4-2.6c1.1-0.3,2.2,0.3,2.6,1.4c1.9,6.6,2.6,13.6,1.6,20.5C266.9,163.2,265.9,163.9,264.8,163.9z"/>
		<path style="fill:#342F1D;" d="M267,154.9c-1.1,0-2.1-1-2.1-2.1s1-2.1,2.1-2.2l6.2-0.2l0,0c1.1,0,2.1,1,2.1,2.1s-1,2.1-2.1,2.2
			L267,154.9L267,154.9z"/>
		<path style="fill:#342F1D;" d="M349.7,163.7c-1.8,0-3.4-0.5-4.6-1.6c-2.1-1.8-3.2-4.8-2.9-8c0.3-3.5,2.1-6.6,4.8-8.1
			c3.2-1.9,7.7-1.3,9.9,1.3c0.5,0.6,0.6,1.4,0.3,2.1c1.6,3.5,1.4,7.7-0.5,10.7c-1.3,1.9-3.5,3.2-5.9,3.5
			C350.5,163.7,350.1,163.7,349.7,163.7z M351.3,149c-0.6,0-1.4,0.2-2.1,0.5c-1.6,1-2.6,2.9-2.7,5c-0.2,1.4,0.2,3.4,1.4,4.3
			c0.8,0.6,1.9,0.6,2.6,0.6c1.3-0.2,2.4-0.8,3-1.8c1.3-1.9,1.3-4.8-0.2-7c-0.2-0.3-0.3-0.8-0.3-1.3C352.4,149.2,351.7,149,351.3,149
			z"/>
		<path style="fill:#342F1D;" d="M365.3,165c-0.2,0-0.2,0-0.3,0c-1.1-0.2-1.9-1.1-1.8-2.4c0.8-6.2,0.2-12.6-1.6-18.7
			c-0.3-1.1,0.3-2.2,1.4-2.6c1.1-0.3,2.2,0.3,2.6,1.4c1.9,6.6,2.6,13.6,1.6,20.5C367.4,164.2,366.4,165,365.3,165z"/>
		<path style="fill:#342F1D;" d="M356.4,155.5c-1.1,0-2.1-1-2.1-2.1s1-2.1,2.1-2.2l6.2-0.2c1.3-0.2,2.1,1,2.2,2.1
			c0,1.1-1,2.1-2.1,2.2L356.4,155.5L356.4,155.5z"/>
		<path style="fill:#342F1D;" d="M287.3,160.3c-0.8,0-1.6-0.2-2.4-0.3c-2.2-0.6-4-2.4-5-4.6c-1-2.1-0.8-4.5,0-6.4
			c1-2.1,3.2-3.5,5.6-4c1.9-0.3,3.7,0.2,5.1,1.1c0,0,0,0,0.2,0c1.1-0.3,2.2,0.5,2.6,1.6c0.5,1.8,0.8,3.7,0.8,5.6
			c-0.2,2.6-1.3,4.8-3.2,5.9C290,160,288.8,160.3,287.3,160.3z M287,149.2c-0.2,0-0.3,0-0.5,0c-1.1,0.2-2.1,0.8-2.4,1.6
			c-0.5,0.8-0.3,1.9,0,2.9c0.5,1.1,1.3,1.9,2.2,2.2c1,0.3,1.9,0.2,2.6-0.2c0.8-0.5,1.3-1.6,1.3-2.7c0-0.8,0-1.6-0.2-2.6
			c-0.3-0.2-0.6-0.3-1-0.6C288.4,149.5,287.8,149.2,287,149.2z"/>
		<path style="fill:#342F1D;" d="M302.7,164C302.7,164,302.5,164,302.7,164c-1.3,0-2.1-1-2.1-2.2c0.3-6.9,0.2-13.9-0.3-20.8
			c0-1.1,0.8-2.1,1.9-2.2c1.1-0.2,2.1,0.8,2.2,1.9c0.5,7,0.5,14.2,0.3,21.3C304.7,163.1,303.8,164,302.7,164z"/>
		<path style="fill:#342F1D;" d="M334.6,165.3L334.6,165.3c-1.3,0-2.1-1-2.1-2.2c0.3-6.9,0.2-13.9-0.3-20.8c0-1.1,0.8-2.1,1.9-2.2
			c1.1,0,2.1,0.8,2.2,1.9c0.5,7,0.5,14.2,0.3,21.3C336.7,164.5,335.8,165.3,334.6,165.3z"/>
		<path style="fill:#342F1D;" d="M321.7,161.9c-2.2,0-4.3-0.5-6.1-1.9c-4.3-3.4-3.5-11.2-2.9-14.4c0.2-1,1-1.8,2.1-1.8l9.7-0.2
			c1.1,0,2.1,1,2.1,2.1s-1,2.1-2.1,2.1l-8,0.2c-0.3,3.4-0.2,7.2,1.6,8.6c1.6,1.3,4.3,1,7,0.6c1.1-0.2,2.2,0.6,2.4,1.8
			s-0.6,2.2-1.8,2.4C324.6,161.8,323.1,161.9,321.7,161.9z"/>
	</g>
</g>
</svg>
