<?xml version="1.0" encoding="utf-8"?>
<!-- Generator: Adobe Illustrator 24.1.1, SVG Export Plug-In . SVG Version: 6.00 Build 0)  -->
<svg version="1.1" id="Layer_1" xmlns="http://www.w3.org/2000/svg" xmlns:xlink="http://www.w3.org/1999/xlink" x="0px" y="0px"
	 viewBox="0 0 180 240" style="enable-background:new 0 0 180 240;" xml:space="preserve">
<g>
	<path style="fill:#FFFFFF;" d="M76.06,200.32c0,0-0.03,0.03-0.11,0.03c-0.46,0.19-2.56,0.94-5.28,1.32
		c-3.12,0.4-5.55,0.13-5.55,0.13l-4.31-31.62c-0.3-2.1,1.18-4.01,3.26-4.28c2.1-0.3,7.41,0.7,7.68,2.8L76.06,200.32z"/>
	<path style="fill-rule:evenodd;clip-rule:evenodd;fill:#009FF9;" d="M79.97,228.98c0.27,1.88-2.13,3.82-4.2,4.5l-0.86,0.24h-0.05
		l-0.73,0.08l-8.38,1.16c-0.48,0.05-0.94,0.13-1.43,0.22c-0.97,0.13-1.97,0.27-2.96,0.38c-0.51,0.03-1,0.05-1.51,0.05
		c-0.01,0-0.01,0-0.02,0c-0.74,0-1.47-0.04-2.19-0.19c-0.46-0.11-0.94-0.24-1.37-0.43c-0.46-0.19-0.89-0.4-1.32-0.7
		c-0.22-0.16-0.4-0.32-0.62-0.48c-2.18-1.91-2.24-6.33-1.37-8.86c1.64-4.69,5.39-8.48,10.02-10.18c0,0,0.22-0.08,0.27-0.11
		c1.32-0.43,2.48-0.67,3.53-0.78l-1.64-12.06c0,0,2.42,0.27,5.55-0.13c2.72-0.38,4.82-1.13,5.28-1.32c0.08,0,0.11-0.03,0.11-0.03
		L79.97,228.98z"/>
	<path d="M72.13,234.07l-2.56,0.35l-3.82,0.54l8.38-1.16L72.13,234.07z M59.83,235.6c-0.75,0-1.47-0.05-2.19-0.19
		C58.36,235.56,59.09,235.6,59.83,235.6z M59.85,235.6c0.51,0,1-0.03,1.51-0.05c-0.51,0.04-1.02,0.05-1.53,0.05
		C59.84,235.6,59.85,235.6,59.85,235.6z"/>
	<path d="M83.17,228.52l-4.39-32.26l-3.82-28.01c-0.62-4.63-7.49-5.63-10.07-5.63c-0.46,0-0.89,0.03-1.24,0.08
		c-1.86,0.24-3.53,1.21-4.66,2.69c-1.13,1.51-1.64,3.37-1.37,5.22l3.82,28.01l0.48,3.61l1.24,9.08c-0.32,0.08-0.65,0.19-0.97,0.3
		l-0.35,0.13c-5.52,1.99-9.99,6.54-11.93,12.12c-1.16,3.31-1.18,9.32,2.29,12.36c2.02,1.78,4.52,2.61,7.65,2.61
		c1.75,0,3.47-0.24,4.98-0.48c0.46-0.08,0.92-0.13,1.35-0.19l3.82-0.54l2.56-0.35l2.72-0.38c0.11,0,0.22-0.03,0.32-0.05l0.92-0.22
		c0.08-0.03,0.16-0.05,0.24-0.08C80.27,235.41,83.69,232.21,83.17,228.52z M75.77,233.47l-0.86,0.24h-0.05l-0.73,0.08l-8.38,1.16
		c-0.48,0.05-0.94,0.13-1.43,0.22c-0.97,0.13-1.97,0.3-2.96,0.38c-1.27,0.11-2.5,0.11-3.72-0.13c-0.46-0.11-0.94-0.24-1.37-0.43
		c-0.46-0.19-0.89-0.4-1.32-0.7c-0.22-0.16-0.4-0.32-0.62-0.48c-2.18-1.91-2.24-6.33-1.37-8.86c1.64-4.69,5.39-8.48,10.02-10.18
		c0,0,0.22-0.08,0.27-0.11c1.32-0.43,2.48-0.67,3.53-0.78l-1.64-12.06l-0.51-3.61l-3.8-28.01c-0.3-2.1,1.18-4.01,3.26-4.28
		c0.24-0.05,0.51-0.05,0.81-0.05c2.4,0,6.62,1,6.87,2.85l3.82,27.98l0.48,3.64l3.9,28.65C80.24,230.86,77.84,232.8,75.77,233.47z"/>
</g>
<g>
	<path style="fill:#FFFFFF;" d="M100.35,171.4v31.91c0,0-2.37,0.59-5.52,0.59c-3.15,0-5.52-0.59-5.52-0.59V171.4
		c0-2.13,5.14-3.82,7.24-3.82C98.65,167.58,100.35,169.27,100.35,171.4z"/>
	<path style="fill-rule:evenodd;clip-rule:evenodd;fill:#009FF9;" d="M115.38,233.53c-2.13,2.42-5.22,2.72-8.24,2.72
		c-1,0-1.97-0.03-2.91-0.03h-9.21l-0.94-0.11c-2.13-0.38-4.77-1.99-4.77-3.9v-28.9c0,0,2.37,0.59,5.52,0.59
		c3.15,0,5.52-0.59,5.52-0.59v12.15h0.24c0.3,0,0.62,0,0.94,0.03c0.22,0,0.43,0.03,0.65,0.05c0.54,0.05,1.13,0.11,1.78,0.24
		c0.05,0.03,0.27,0.05,0.27,0.05c4.85,1.05,9.05,4.31,11.31,8.73C116.75,226.96,117.29,231.35,115.38,233.53z"/>
	<path d="M118.42,223.11c-2.69-5.28-7.73-9.16-13.52-10.42l-0.19-0.05c-0.4-0.05-0.75-0.13-1.13-0.19V171.4
		c0-3.9-3.15-7.06-7.03-7.06c-2.21,0-10.48,1.75-10.48,7.06v60.81c0,3.72,3.82,6.44,7.43,7.08c0.08,0.03,0.16,0.03,0.24,0.05
		l0.94,0.08c0.11,0.03,0.22,0.03,0.32,0.03h9.21c0.43,0,0.89,0,1.35,0.03h1.56c3.61,0,7.73-0.46,10.66-3.82
		C120.84,232.18,119.98,226.2,118.42,223.11z M115.38,233.53c-2.13,2.42-5.22,2.72-8.24,2.72c-1,0-1.97-0.03-2.91-0.03h-9.21
		l-0.94-0.11c-2.13-0.38-4.77-1.99-4.77-3.9V171.4c0-2.13,5.14-3.82,7.24-3.82c2.1,0,3.8,1.7,3.8,3.82v44.06h0.24
		c0.3,0,0.62,0,0.94,0.03c0.19,0,0.43,0.03,0.65,0.05c0.54,0.05,1.13,0.11,1.78,0.24c0.05,0.03,0.27,0.05,0.27,0.05
		c4.85,1.05,9.05,4.31,11.31,8.73C116.75,226.96,117.29,231.35,115.38,233.53z"/>
</g>
<g>
	<path style="fill:#FFFFFF;" d="M72.37,51.23c-0.57,0.43-1.1,0.59-1.64,0.59c-2.77,0-5.22-4.77-6.84-6.36
		c-1.21-1.18-2.56-1.67-3.96-1.67c-2.32,0-4.74,1.29-6.79,2.88c0,0.03-2.15,1.86-2.96,2.67v0.03c-1.37,1.43-3.23,2.15-5.06,2.15
		c-1.72,0-3.47-0.62-4.82-1.94c-1.75-1.67-2.45-4.04-2.1-6.25c0.22-1.35,0.83-2.61,1.83-3.69c0.22-0.24,0.83-0.86,1.78-1.72
		c2.91-2.72,6.3-5.01,10.15-6.17c1.8-0.54,3.53-0.81,5.17-0.81c1.48,0,2.94,0.22,4.36,0.62c1.43,0.43,2.85,1.05,4.34,1.86
		c1.21,0.67,2.34,1.54,3.42,2.42C72.67,38.68,77.06,47.65,72.37,51.23z"/>
	<path d="M71.32,33.35c-1.45-1.18-2.69-2.07-3.93-2.75c-1.72-0.94-3.37-1.64-5.01-2.13c-1.75-0.51-3.47-0.75-5.25-0.75
		c-1.99,0-3.99,0.3-6.11,0.94c-3.96,1.21-7.81,3.53-11.42,6.92c-0.92,0.81-1.59,1.51-1.91,1.83c-1.16,1.24-1.99,2.72-2.42,4.31
		c-0.11,0.35-0.19,0.73-0.24,1.1c-0.54,3.34,0.59,6.73,3.04,9.1c1.91,1.83,4.42,2.83,7.06,2.83c2.77,0,5.47-1.16,7.41-3.18
		c0.27-0.27,0.78-0.73,1.32-1.21c0.83-0.67,1.72-1.4,1.83-1.54c1.62-1.16,3.12-1.8,4.25-1.8c0.65,0,1.18,0.24,1.7,0.75
		c0.27,0.27,0.78,0.94,1.24,1.56c1.8,2.4,4.25,5.71,7.86,5.71c1.27,0,2.5-0.43,3.58-1.24c2.13-1.62,3.26-4.01,3.34-6.92
		C77.76,41.89,74.45,35.96,71.32,33.35z M72.37,51.23c-0.57,0.43-1.1,0.59-1.64,0.59c-2.77,0-5.22-4.77-6.84-6.36
		c-1.21-1.18-2.56-1.67-3.96-1.67c-2.32,0-4.74,1.29-6.79,2.88c0,0.03-2.15,1.86-2.96,2.67v0.03c-1.37,1.43-3.23,2.15-5.06,2.15
		c-1.72,0-3.47-0.62-4.82-1.94c-1.75-1.67-2.45-4.04-2.1-6.25c0.22-1.35,0.83-2.61,1.83-3.69c0.22-0.24,0.83-0.86,1.78-1.72
		c1.18-1.1,2.45-2.15,3.8-3.07c1.97-1.32,4.07-2.42,6.36-3.1c1.8-0.54,3.53-0.81,5.17-0.81c1.48,0,2.94,0.22,4.36,0.62
		c1.43,0.43,2.85,1.05,4.34,1.86c1.21,0.67,2.34,1.54,3.42,2.42C72.67,38.68,77.06,47.65,72.37,51.23z"/>
	<path style="fill:#673101;" d="M53.15,46.68c0,0.03-2.15,1.86-2.96,2.67v0.03c-1.37,1.43-3.23,2.15-5.06,2.15
		c-1.72,0-3.47-0.62-4.82-1.94c-1.75-1.67-2.45-4.04-2.1-6.25c0.22-1.35,0.83-2.61,1.83-3.69c0.22-0.24,0.83-0.86,1.78-1.72
		c1.18-1.1,2.45-2.15,3.8-3.07c0.13,0,0.24,0.03,0.35,0.05c0.03,0,0.03,0,0.05,0c0.03,0,0.03,0.03,0.05,0.03
		c1.08,0.3,1.56,1.13,1.56,1.13v0.03c0.43,0.65,0.59,1.45,0.4,2.26c-0.19,0.67-0.59,1.18-1.13,1.56c0.59-0.3,1.29-0.43,1.99-0.24
		c1.48,0.4,2.4,1.94,1.99,3.45c-0.19,0.73-0.65,1.32-1.27,1.7c0.48-0.16,1.05-0.24,1.59-0.11C52.2,44.98,52.88,45.76,53.15,46.68z"
		/>
</g>
<g>
	<path style="fill:#FFFFFF;" d="M124.17,49.59c-1.35,1.32-3.1,1.94-4.82,1.94c-1.86,0-3.69-0.73-5.06-2.15c0,0,0-0.03-0.03-0.03
		c-0.78-0.81-2.94-2.64-2.94-2.67c-2.07-1.59-4.47-2.88-6.79-2.88c-1.4,0-2.75,0.48-3.96,1.67c-1.62,1.59-4.07,6.36-6.84,6.36
		c-0.54,0-1.08-0.16-1.64-0.59c-4.71-3.58-0.3-12.55,3.12-15.38c1.08-0.89,2.21-1.75,3.42-2.42c1.48-0.81,2.91-1.43,4.34-1.86
		c1.43-0.4,2.88-0.62,4.36-0.62c1.64,0,3.37,0.27,5.17,0.81c3.85,1.16,7.24,3.45,10.15,6.17c0.94,0.86,1.56,1.48,1.78,1.72
		c1,1.08,1.59,2.34,1.83,3.69C126.62,45.55,125.92,47.92,124.17,49.59z"/>
	<path d="M129.45,42.8c-0.32-1.99-1.24-3.85-2.64-5.36c-0.35-0.35-1.02-1.05-1.97-1.91c-0.35-0.32-0.7-0.65-1.05-0.94
		c-3.29-2.83-6.76-4.82-10.34-5.92c-2.13-0.65-4.12-0.94-6.11-0.94c-1.78,0-3.5,0.24-5.28,0.75c-1.62,0.48-3.26,1.18-4.98,2.13
		c-1.24,0.67-2.48,1.56-3.93,2.75c-3.12,2.61-6.44,8.54-6.33,13.55c0.05,2.91,1.21,5.31,3.34,6.92c1.08,0.81,2.32,1.24,3.58,1.24
		c3.61,0,6.06-3.31,7.86-5.71c0.46-0.62,0.94-1.29,1.24-1.56c0.51-0.51,1.05-0.75,1.7-0.75c1.13,0,2.64,0.65,4.25,1.8
		c0.16,0.22,2.37,1.97,3.1,2.69c0.03,0.03,0.03,0.03,0.05,0.05c1.91,2.02,4.63,3.18,7.41,3.18c2.64,0,5.14-1,7.06-2.83
		C128.85,49.56,129.99,46.17,129.45,42.8z M124.17,49.59c-1.35,1.32-3.1,1.94-4.82,1.94c-1.86,0-3.69-0.73-5.06-2.15
		c0,0,0-0.03-0.03-0.03c-0.78-0.81-2.94-2.64-2.94-2.67c-2.07-1.59-4.47-2.88-6.79-2.88c-1.4,0-2.75,0.48-3.96,1.67
		c-1.62,1.59-4.07,6.36-6.84,6.36c-0.54,0-1.08-0.16-1.64-0.59c-4.71-3.58-0.3-12.55,3.12-15.38c1.08-0.89,2.21-1.75,3.42-2.42
		c1.48-0.81,2.91-1.43,4.34-1.86c1.43-0.4,2.88-0.62,4.36-0.62c1.64,0,3.37,0.27,5.17,0.81c2.29,0.67,4.39,1.78,6.36,3.12h0.03
		c1.35,0.92,2.59,1.94,3.77,3.04c0.94,0.86,1.56,1.48,1.78,1.72c1,1.08,1.59,2.34,1.83,3.69C126.62,45.55,125.92,47.92,124.17,49.59
		z"/>
	<path style="fill:#673101;" d="M124.17,49.59c-1.35,1.32-3.1,1.94-4.82,1.94c-1.86,0-3.69-0.73-5.06-2.15c0,0,0-0.03-0.03-0.03
		c-0.78-0.81-2.94-2.64-2.94-2.67c0.27-0.92,0.94-1.7,1.94-1.97c0.54-0.13,1.08-0.05,1.59,0.11c-0.62-0.38-1.08-0.97-1.27-1.7
		c-0.4-1.51,0.51-3.04,1.99-3.45c0.7-0.19,1.37-0.05,1.99,0.24c-0.54-0.38-0.94-0.89-1.13-1.56c-0.24-0.97,0.05-1.97,0.7-2.64
		c0.78-0.78,1.59-0.83,1.72-0.83h0.03c1.35,0.92,2.59,1.94,3.77,3.04c0.94,0.86,1.56,1.48,1.78,1.72c1,1.08,1.59,2.34,1.83,3.69
		C126.62,45.55,125.92,47.92,124.17,49.59z"/>
</g>
<g>
	<path style="fill:#BE723F;" d="M122.65,165.44c0,0,8.4-7.6,14.42-1.26l-6.23,5.32l-3.51,0.8L122.65,165.44z"/>
	<path d="M127.32,171.64c-0.36,0-0.71-0.14-0.97-0.41l-4.68-4.86c-0.25-0.26-0.39-0.62-0.38-0.98c0.01-0.36,0.17-0.71,0.44-0.95
		c3.24-2.93,10.82-6.96,16.29-1.19c0.26,0.27,0.39,0.63,0.37,1c-0.02,0.37-0.19,0.71-0.47,0.95l-6.23,5.32
		c-0.17,0.14-0.36,0.24-0.58,0.29l-3.51,0.8C127.52,171.63,127.42,171.64,127.32,171.64z M124.64,165.57l3.12,3.25l2.45-0.56
		l4.8-4.1C131.24,161.48,126.7,164.08,124.64,165.57z"/>
</g>
<g>
	<path d="M127.82,122.17c0.38,0,0.81,0.06,1.3,0.2c2.12,0.59,3.69,3.25,4.79,4.8c4.93,6.97,7.28,14.05,7.75,20.95
		c0.02,0.01,0.05,0.02,0.08,0.02c0.47,0.16,0.08,5.68,0.04,6.22c-0.17,2.42-0.55,4.8-1.12,7.11c-1.09,4.46-2.3,10.19-7.25,12.42
		c-0.61,0.28-1.41,0.4-2.27,0.4c-0.63,0-1.3-0.06-1.95-0.18c-0.7-0.12-1.38-0.3-1.98-0.51c-6.05-2.16-4.49-6.1-2.43-9.17
		c2.67-3.98,4.25-8.18,4.85-12.78c0.06-0.47,0.11-0.95,0.15-1.42c0.03-0.34,0.06-0.69,0.08-1.03c0.04-0.86,0.06-1.74,0.04-2.61
		c0-0.13,0-0.26,0-0.39c-0.07-2.19-0.33-4.41-0.81-6.65C128.53,137.04,122.08,122.17,127.82,122.17 M127.82,118.94
		c-1.83,0-3.39,0.77-4.39,2.18c-2.52,3.53-0.69,9.74,1.77,16.89c0.29,0.86,0.66,1.92,0.72,2.22c0.43,1.98,0.68,4.02,0.74,6.06
		l0,0.36c0.01,0.78,0,1.58-0.04,2.38c-0.02,0.31-0.04,0.62-0.07,0.93c-0.04,0.46-0.09,0.89-0.14,1.32
		c-0.53,4.08-1.95,7.81-4.33,11.36c-0.81,1.21-3.27,4.89-2.03,8.66c0.79,2.41,2.84,4.21,6.06,5.36c0.78,0.28,1.65,0.5,2.51,0.65
		c0.86,0.15,1.7,0.22,2.5,0.22c1.39,0,2.6-0.23,3.6-0.68c6.2-2.8,7.78-9.33,8.94-14.1l0.12-0.5c0.62-2.55,1.02-5.12,1.2-7.65
		c0.25-3.47,0.42-5.96-0.19-7.57c-0.68-7.62-3.46-14.92-8.26-21.72l-0.41-0.6c-1.26-1.84-3.16-4.62-6.14-5.45
		C129.22,119.05,128.49,118.94,127.82,118.94L127.82,118.94z"/>
	<g>
		<path style="fill:#FFFFFF;" d="M141.67,148.11c-3.04-0.97-7.27-1.99-11.8-1.99c-0.05-2.15-0.32-4.36-0.81-6.57
			c-0.57-2.67-7.86-19.39,0.05-17.18c2.1,0.59,3.69,3.26,4.77,4.82C138.82,134.16,141.19,141.21,141.67,148.11z"/>
	</g>
	<path style="fill:#0088C5;" d="M141.75,154.38c-0.16,2.42-0.54,4.79-1.1,7.11c-1.08,4.44-2.29,10.18-7.24,12.41
		c-1.08,0.48-2.69,0.48-4.23,0.22c-0.7-0.11-1.37-0.3-1.97-0.51c-6.06-2.15-4.5-6.09-2.45-9.16c2.61-3.9,4.2-7.97,4.82-12.41
		c0.08-0.46,0.13-0.92,0.13-1.37c0.16-1.48,0.22-2.99,0.16-4.55c4.52,0,8.75,1.02,11.8,1.99c0.03,0.03,0.03,0.03,0.05,0.03
		C142.18,148.29,141.81,153.82,141.75,154.38z"/>
</g>
<g>
	<g>
		<path style="fill:#FFFFFF;" d="M38.18,139.62c-0.92,2.24-1.59,4.5-1.99,6.79c-3.88,1.05-8.54-0.16-11.07-1.54
			c1.59-6.3,4.96-12.33,10.66-17.72c1.27-1.21,3.15-3.31,5.2-3.42C48.63,123.38,39.15,137.28,38.18,139.62z"/>
	</g>
	<path style="fill:#0088C5;" d="M34.3,171.51c-0.4,0.05-0.81,0.08-1.24,0.08c-0.22,0-0.46,0-0.67-0.03
		c-1.45-0.08-2.96-0.43-3.85-1.1c-4.2-3.12-4.36-8.67-4.63-13.03c-0.13-2.26-0.08-4.55,0.16-6.81c0-0.11,0.03-0.35,0.08-0.73
		c0.05-0.35,0.11-0.81,0.16-1.32c0.05-0.3,0.08-0.62,0.13-0.94c0.13-1.05,0.32-2.07,0.48-2.53c0.03-0.05,0.08-0.11,0.11-0.16
		c0.03-0.03,0.05-0.05,0.08-0.05c2.53,1.37,7.19,2.59,11.07,1.54c-0.11,0.62-0.22,1.24-0.3,1.86c-0.03,1.35,0,2.77-0.03,3.04
		c-0.27,4.55,1.24,8.13,2.56,12.36C39.42,166.85,39.77,170.86,34.3,171.51z"/>
	<path d="M40.82,160.57c-1.02-3.15-1.91-5.9-1.72-9.08c0-0.13,0.03-0.48,0.03-0.97c0-0.51-0.03-1.27,0-1.99
		c0.38-2.72,1.05-5.28,2.05-7.67c0.11-0.27,0.62-1.16,1.02-1.86c3.47-6.17,6.44-12.04,4.2-15.83c-0.59-1-2.02-2.67-5.14-2.67h-0.43
		c-3.02,0.13-5.28,2.37-6.79,3.85l-0.48,0.46c-5.63,5.33-9.43,11.58-11.36,18.55c-0.75,1.43-1,3.74-1.35,6.87
		c-0.24,2.42-0.3,4.9-0.16,7.38l0.05,0.51c0.27,4.66,0.65,11.01,5.87,14.92c1.72,1.29,3.99,1.67,5.6,1.75
		c0.3,0.03,0.59,0.03,0.86,0.03c0.57,0,1.1-0.03,1.62-0.08c2.94-0.35,5.09-1.54,6.38-3.5c1.4-2.18,1.56-4.96,0.46-8.54
		C41.28,161.98,41.06,161.28,40.82,160.57z M34.3,171.51c-0.4,0.05-0.81,0.08-1.24,0.08c-0.22,0-0.46,0-0.67-0.03
		c-1.45-0.08-2.96-0.43-3.85-1.1c-4.2-3.12-4.36-8.67-4.63-13.03c-0.13-2.26-0.08-4.55,0.16-6.81c0-0.08,0.03-0.35,0.08-0.73
		c0.03-0.35,0.08-0.81,0.16-1.32c0.03-0.3,0.08-0.62,0.13-0.94c0.13-1.05,0.32-2.07,0.48-2.53c0.05-0.08,0.08-0.16,0.11-0.16
		c0.03-0.03,0.05-0.05,0.08-0.05c0-0.03,0.03-0.03,0.03-0.03c1.59-6.27,4.96-12.31,10.64-17.69c1.27-1.21,3.15-3.31,5.2-3.42h0.27
		c7.14,0-2.1,13.57-3.07,15.89c-0.94,2.24-1.59,4.5-1.99,6.79c-0.11,0.62-0.22,1.24-0.3,1.86c-0.03,1.35,0,2.77-0.03,3.04
		c-0.27,4.55,1.24,8.13,2.56,12.36C39.42,166.85,39.77,170.86,34.3,171.51z"/>
</g>
<g>
	<g>
		<path style="fill-rule:evenodd;clip-rule:evenodd;fill:#009FF9;" d="M127.83,149.67c0.43,8.05-1.56,19.87-6.92,26.8
			c-6.33,8.16-17.88,13.49-31.67,14.62c-1.64,0.13-3.45,0.22-5.17,0.22h-3.66c-1.72,0-3.53-0.08-5.17-0.22
			c-13.79-1.13-25.34-6.46-31.67-14.62c-5.36-6.92-7.35-18.74-6.92-26.8c0.24-4.5,1.21-9.08,2.18-13.47c0.48-2.26,1-4.52,1.37-6.79
			c0.46-2.5,0.19-7.19,0.16-7.43c-0.32-3.53-1.37-6.81-2.34-9.53c-3.88-10.85-4.52-20.95-2.07-31.86
			c2.24-9.86,6.92-18.23,12.82-22.94c9.88-7.86,21.33-12.39,31.45-12.39h4.04c10.13,0,21.57,4.52,31.43,12.39
			c5.92,4.71,10.61,13.09,12.82,22.94c2.48,10.91,1.83,21.01-2.05,31.86c-1,2.72-2.02,6.01-2.34,9.59c-0.03,0.19-0.3,4.87,0.13,7.38
			c0.4,2.29,0.92,4.52,1.4,6.79C126.59,140.62,127.59,145.17,127.83,149.67z"/>
	</g>
	<g>
		<path d="M128.8,135.53c-0.48-2.24-0.97-4.44-1.35-6.68c-0.32-1.75-0.19-5.39-0.13-6.57c0.3-3.18,1.27-6.19,2.18-8.75
			c4.04-11.28,4.74-22.27,2.15-33.66c-2.37-10.56-7.46-19.58-13.95-24.75c-10.42-8.32-22.59-13.09-33.45-13.09h-4.04
			c-10.85,0-23.03,4.77-33.47,13.09c-6.46,5.17-11.55,14.19-13.95,24.75c-2.56,11.39-1.86,22.38,2.18,33.66
			c0.92,2.56,1.88,5.57,2.15,8.7c0.08,1.24,0.22,4.87-0.11,6.62c-0.38,2.24-0.86,4.44-1.35,6.65c-1,4.52-2.02,9.24-2.26,14
			c-0.46,8.91,1.7,21.3,7.59,28.92c6.89,8.89,19.25,14.68,33.96,15.86c1.75,0.16,3.61,0.22,5.44,0.22h3.66
			c1.8,0,3.69-0.05,5.44-0.22c14.68-1.18,27.06-6.97,33.96-15.86c5.9-7.62,8.05-20.01,7.59-28.92
			C130.82,144.74,129.8,140.05,128.8,135.53z M84.07,191.3h-3.66c-1.72,0-3.53-0.08-5.17-0.22c-13.79-1.13-25.34-6.46-31.67-14.62
			c-5.36-6.92-7.35-18.74-6.92-26.8c0.24-4.5,1.21-9.08,2.18-13.47c0.48-2.26,1-4.52,1.37-6.79c0.46-2.5,0.19-7.19,0.16-7.43
			c-0.32-3.53-1.37-6.81-2.34-9.53c-3.88-10.85-4.52-20.95-2.07-31.86c2.24-9.86,6.92-18.23,12.82-22.94
			c9.88-7.86,21.33-12.39,31.45-12.39h4.04c10.13,0,21.57,4.52,31.43,12.39c5.92,4.71,10.61,13.09,12.82,22.94
			c2.48,10.91,1.83,21.01-2.05,31.86c-1,2.72-2.02,6.01-2.34,9.59c-0.03,0.19-0.3,4.87,0.13,7.38c0.4,2.29,0.92,4.52,1.4,6.79
			c0.94,4.42,1.94,8.97,2.18,13.47c0.43,8.05-1.56,19.87-6.92,26.8c-6.33,8.16-17.88,13.49-31.67,14.62
			C87.6,191.22,85.79,191.3,84.07,191.3z"/>
	</g>
</g>
</svg>
