<?xml version="1.0" encoding="utf-8"?>
<!-- Generator: Adobe Illustrator 26.5.0, SVG Export Plug-In . SVG Version: 6.00 Build 0)  -->
<svg version="1.1" id="레이어_1" xmlns="http://www.w3.org/2000/svg" xmlns:xlink="http://www.w3.org/1999/xlink" x="0px"
	 y="0px" viewBox="0 0 195 195" style="enable-background:new 0 0 195 195;" xml:space="preserve">
<g>
	<g>
		<g>
			<g>
				<rect x="14.3" y="14.3" style="fill:#FFE100;" width="78.6" height="79.6"/>
			</g>
			<g>
				<path style="fill:#F1B800;" d="M92.8,99H14.3c-2.8,0-5-2.3-5-5.1c0-2.8,2.3-5.1,5-5.1h73.5V14.3c0-2.8,2.3-5.1,5-5.1
					c2.8,0,5,2.3,5,5.1v79.6C97.9,96.7,95.6,99,92.8,99z"/>
			</g>
			<g>
				<path style="fill:#FCFF00;" d="M14.3,99c-2.8,0-5-2.3-5-5.1V14.3c0-2.8,2.3-5.1,5-5.1h78.6c2.8,0,5,2.3,5,5.1s-2.3,5.1-5,5.1
					H19.3v74.5C19.3,96.7,17,99,14.3,99z"/>
			</g>
		</g>
		<g>
			<g>
				<rect x="102.2" y="14.3" style="fill:#FFE100;" width="78.6" height="79.6"/>
			</g>
			<g>
				<path style="fill:#F1B800;" d="M180.8,99h-78.6c-2.8,0-5-2.3-5-5.1c0-2.8,2.3-5.1,5-5.1h73.5V14.3c0-2.8,2.3-5.1,5-5.1
					s5,2.3,5,5.1v79.6C185.8,96.7,183.5,99,180.8,99z"/>
			</g>
			<g>
				<path style="fill:#FCFF00;" d="M102.2,99c-2.8,0-5-2.3-5-5.1V14.3c0-2.8,2.3-5.1,5-5.1h78.6c2.8,0,5,2.3,5,5.1s-2.3,5.1-5,5.1
					h-73.5v74.5C107.2,96.7,105,99,102.2,99z"/>
			</g>
		</g>
		<g>
			<g>
				<rect x="14.1" y="101.1" style="fill:#FFE100;" width="78.6" height="79.6"/>
			</g>
			<g>
				<path style="fill:#F1B800;" d="M92.6,185.8H14.1c-2.8,0-5-2.3-5-5.1s2.3-5.1,5-5.1h73.5v-74.5c0-2.8,2.3-5.1,5-5.1s5,2.3,5,5.1
					v79.6C97.7,183.6,95.4,185.8,92.6,185.8z"/>
			</g>
			<g>
				<path style="fill:#FCFF00;" d="M14.1,185.8c-2.8,0-5-2.3-5-5.1v-79.6c0-2.8,2.3-5.1,5-5.1h78.6c2.8,0,5,2.3,5,5.1
					s-2.3,5.1-5,5.1H19.1v74.5C19.1,183.6,16.8,185.8,14.1,185.8z"/>
			</g>
		</g>
		<g>
			<g>
				<rect x="102.4" y="101.1" style="fill:#FFE100;" width="78.6" height="79.6"/>
			</g>
			<g>
				<path style="fill:#F1B800;" d="M180.9,185.8h-78.6c-2.8,0-5-2.3-5-5.1s2.3-5.1,5-5.1h73.5v-74.5c0-2.8,2.3-5.1,5-5.1
					c2.8,0,5,2.3,5,5.1v79.6C186,183.6,183.7,185.8,180.9,185.8z"/>
			</g>
			<g>
				<path style="fill:#FCFF00;" d="M102.4,185.8c-2.8,0-5-2.3-5-5.1v-79.6c0-2.8,2.3-5.1,5-5.1h78.6c2.8,0,5,2.3,5,5.1
					s-2.3,5.1-5,5.1h-73.5v74.5C107.4,183.6,105.2,185.8,102.4,185.8z"/>
			</g>
		</g>
	</g>
	<path d="M180.8,9.2c2.8,0,5,2.3,5,5.1v79.6c0,1.4-0.5,2.6-1.4,3.5c1,0.9,1.6,2.2,1.6,3.7v79.6c0,2.8-2.3,5.1-5,5.1h-78.6
		c-2.5,0-4.5-1.9-4.9-4.3c-0.4,2.4-2.4,4.3-4.9,4.3H14.1c-2.8,0-5-2.3-5-5.1v-79.6c0-1.5,0.6-2.8,1.6-3.7c-0.9-0.9-1.4-2.1-1.4-3.5
		V14.3c0-2.8,2.3-5.1,5-5.1h78.6c2.2,0,4,1.4,4.7,3.3c0.7-1.9,2.5-3.3,4.7-3.3H180.8 M97.5,100.3c0.2-1,0.6-2,1.3-2.7
		c-0.6-0.5-1-1.2-1.2-1.9c-0.3,0.8-0.7,1.4-1.3,1.9C96.9,98.3,97.3,99.3,97.5,100.3 M180.8,0h-78.6c-1.6,0-3.2,0.3-4.7,0.8
		C96,0.3,94.5,0,92.8,0H14.3C6.5,0,0.2,6.4,0.2,14.3v79.6c0,1.1,0.1,2.2,0.4,3.2c-0.4,1.3-0.6,2.6-0.6,4v79.6
		c0,7.9,6.3,14.3,14.1,14.3h78.6c1.7,0,3.4-0.3,4.9-0.9c1.5,0.6,3.2,0.9,4.9,0.9h78.6c7.8,0,14.1-6.4,14.1-14.3v-79.6
		c0-1.3-0.2-2.7-0.6-3.9c0.3-1.1,0.4-2.2,0.4-3.3V14.3C194.8,6.4,188.5,0,180.8,0L180.8,0z"/>
</g>
</svg>
