<?xml version="1.0" encoding="utf-8"?>
<!-- Generator: Adobe Illustrator 26.0.3, SVG Export Plug-In . SVG Version: 6.00 Build 0)  -->
<svg version="1.1" id="레이어_1" xmlns="http://www.w3.org/2000/svg" xmlns:xlink="http://www.w3.org/1999/xlink" x="0px"
	 y="0px" viewBox="0 0 137 253" style="enable-background:new 0 0 137 253;" xml:space="preserve">
<g>
	<g>
		<path style="fill:#D8EBEB;" d="M41.6,224.8c0,0-2.5,7.5-7.9,9.8c-5.4,2.4-10.7,3.2-8.9,14.6c0,0,5.2,3.4,15.4,2.4
			c10.2-1,12.6-7.4,23.2-10.4c0,0,1.1-10.4,1.1-19L41.6,224.8z"/>
		<path style="fill:#4F4944;" d="M45.8,237.6c0,0-4.3-5.2-10.3-5.2s-13.6,4.3-12.3,16.5c0,0,5.3,6.7,21.4,2.8c0,0,7-3.9,10.5-5.9
			c3.5-2,9.2-4.3,9.2-4.3v-12.1C64.3,229.5,56.7,231.9,45.8,237.6z"/>
		<path style="fill:#322F2D;" d="M44.6,251.8c0,0,7-3.9,10.5-5.9c3.5-2,9.2-4.3,9.2-4.3v-3.2c0,0-5.7,2.3-9.2,4.3
			c-3.5,2-10.5,5.9-10.5,5.9c-16.1,3.9-21.4-2.8-21.4-2.8c0.1,1.3,0.2,2.5,0.4,3.7C25.2,250.8,31.1,255.1,44.6,251.8z"/>
	</g>
	<g>
		<path style="fill:#193D63;" d="M31.7,106.5c0,0-2.7,34.4-3,46.8c-0.4,12.4,2.6,24.4,1.5,34.8c-1.1,10.4-5.5,24.4,10.5,29.4
			l0.8,7.3c0,0,12,3.9,23-1.3l0.6-6.4c0,0,4.9-1,3.6-10.5c-1.7-13-0.5-46.5,0-59c0.5-12.4,5.1-37,5.1-37L31.7,106.5z"/>
		<path style="fill:#10314B;" d="M44.6,193.8c0,0-2.7-1.9-2.1,5.1c0.6,6.9,2.8,21.4,8.7,22.8h3.9c0,0,1.8-8.4,0-15.1
			c0,0-0.5,8.6-2.2,11.8c0,0-5.5-0.9-8.3-17.2C44.6,201.2,42.9,193.5,44.6,193.8z"/>
		<path style="fill:#092339;" d="M40.8,217.5l0.8,7.3c0,0,12,3.9,23-1.3l0.6-6.4C48.7,219.9,40.8,217.5,40.8,217.5z"/>
	</g>
</g>
<g>
	<g>
		<path style="fill:#D8EBEB;" d="M96.2,224.8c0,0,2.5,7.5,7.9,9.8c5.4,2.4,10.7,3.2,8.9,14.6c0,0-5.2,3.4-15.4,2.4
			c-10.2-1-12.6-7.4-23.2-10.4c0,0-1.1-10.4-1.1-19L96.2,224.8z"/>
		<path style="fill:#4F4944;" d="M91.9,237.6c0,0,4.3-5.2,10.3-5.2c6,0,13.6,4.3,12.3,16.5c0,0-5.3,6.7-21.4,2.8c0,0-7-3.9-10.5-5.9
			c-3.5-2-9.2-4.3-9.2-4.3v-12.1C73.4,229.5,81,231.9,91.9,237.6z"/>
		<path style="fill:#322F2D;" d="M93.1,251.8c0,0-7-3.9-10.5-5.9c-3.5-2-9.2-4.3-9.2-4.3v-3.2c0,0,5.7,2.3,9.2,4.3
			c3.5,2,10.5,5.9,10.5,5.9c16.1,3.9,21.4-2.8,21.4-2.8c-0.1,1.3-0.2,2.5-0.4,3.7C112.5,250.8,106.6,255.1,93.1,251.8z"/>
	</g>
	<g>
		<path style="fill:#193D63;" d="M105.9,106.5c0,0,2.7,34.4,3,46.8c0.4,12.4-2.6,24.4-1.5,34.8c1.1,10.4,5.5,24.4-10.5,29.4
			l-0.8,7.3c0,0-12,3.9-23-1.3l-0.6-6.4c0,0-4.8-1-3.6-10.5c1.7-13,0.5-46.5,0-59c-0.5-12.4-5.1-37-5.1-37L105.9,106.5z"/>
		<path style="fill:#10314B;" d="M93,193.8c0,0,2.7-1.9,2.1,5.1c-0.6,6.9-2.8,21.4-8.7,22.8h-3.9c0,0-1.8-8.4,0-15.1
			c0,0,0.5,8.6,2.2,11.8c0,0,5.5-0.9,8.3-17.2C93,201.2,94.7,193.5,93,193.8z"/>
		<path style="fill:#092339;" d="M96.9,217.5l-0.8,7.3c0,0-12,3.9-23-1.3l-0.6-6.4C88.9,219.9,96.9,217.5,96.9,217.5z"/>
	</g>
</g>
<g>
	<g>
		<path style="fill:#E0DD86;" d="M23,22.7c0,0-26.3,36.2-22.4,91.8c0,0,7.3,4.2,24.2,4.2c0,0,10.7-46.7,10.6-66.6
			C35.5,52.1,37.3,8.4,23,22.7z"/>
	</g>
</g>
<g>
	<g>
		<path style="fill:#E0DD86;" d="M114,22.9c0,0,26.3,36.2,22.4,91.8c0,0-7.3,4.2-24.2,4.2c0,0-9.6-49.4-10.6-66.6
			C101.5,52.3,99.7,8.6,114,22.9z"/>
	</g>
</g>
<g>
	<path style="fill:#31B1B1;" d="M102.9,56.2c2.7-17.2,11.3-33.5,11.3-33.5c-15-13.4-28-13.7-28-13.7L69.5,7.9V7.8l-0.1,0H69l-0.2,0
		l-0.2,0h-0.4l-0.1,0v0.1L51.3,9.1c0,0-13,0.2-28,13.7c0,0,8.6,16.3,11.3,33.5c0,0-3,27.9-9.6,54.3c5.3,1.5,21.6,5.7,43.1,6.2v0
		c0.2,0,0.5,0,0.7,0c0.2,0,0.5,0,0.7,0v0c21.4-0.5,37.8-4.7,43.1-6.2C106,84.1,102.9,56.2,102.9,56.2z"/>
	<path style="fill:#2C9491;" d="M55.5,116c1.2-18.7,3.7-68.4,3.7-69c0-0.4-0.3-0.8-0.8-0.8c-0.4,0-0.8,0.3-0.8,0.8
		c0,0.6-2.6,50.2-3.7,68.9C54.5,115.9,55,115.9,55.5,116z"/>
	<g>
		<polygon style="fill:#1E868F;" points="46.4,10.2 52,0 71.8,24.1 62.7,40.6 		"/>
		<polygon style="fill:#FFFFFF;" points="49.8,4 65.9,26.5 70.7,22.8 52,0 		"/>
	</g>
	<g>
		<path style="fill:#1E868F;" d="M87.1,0.8c0,0-23.3,24.6-33.2,33.4l4.2,18c0,0,18.3-23.6,32.1-41.2L87.1,0.8z"/>
		<path style="fill:#FFFFFF;" d="M62.7,34.2c5.5-5.5,19.6-22.4,25.7-29.8l-1.3-3.6c0,0-16.4,17.4-27.5,28.1L62.7,34.2z"/>
	</g>
	<g>
		<path style="fill:#B4AF54;" d="M53.9,57.7c0,0-0.2,11,1.2,20.6c1.4,9.6,5.6,48.4,1.6,61c0,0-10-1.6-13.2-6.8c0,0,5.9-31.8,3.8-47
			c-2.2-15.2,5.9-31.2,5.9-31.2L53.9,57.7z"/>
		<path style="fill:#E0DD86;" d="M52.4,52.2c0,0-7.6,4.8-8.8,23c-1.2,18.2,1,40-1,48.2c0,0,9.6,2.6,12.6,2.2c0,0-4.8-43.4-4.6-53.8
			C50.8,61.4,53.9,56,53.9,56L52.4,52.2z"/>
		<path style="fill:#E0DD86;" d="M56.9,51.2c0,0,7.1-6,19.6-1.6c0,0,3.2,16-2.6,17.8C68.1,69.1,54.4,54.6,56.9,51.2z"/>
		<path style="fill:#B4AF54;" d="M56.8,53.2c1.4,5.2,12.2,15.7,17.2,14.2c0.5-0.2,1-0.4,1.4-0.8C76.4,60.9,58.5,53.7,56.8,53.2z"/>
		<path style="fill:#D6D276;" d="M50.6,52.2c0,0,0.8-3.1,3.7-3.4c2.9-0.3,6.2,0.2,5.2,7C58.5,62.6,50.4,65.4,50.6,52.2z"/>
	</g>
</g>
</svg>
