<svg xml:space="preserve" style="enable-background:new 0 0 172 160;" viewBox="0 0 172 160" y="0px" x="0px" xmlns:xlink="http://www.w3.org/1999/xlink" xmlns="http://www.w3.org/2000/svg" id="레이어_1" version="1.1">
<g>
	<g>
		<path d="M22.1,53.2c-0.4-7.6,0.2-15.3,1.8-22.7c1.2-5.2,3-11.1,7.1-15c4.8-4.6,12.2-4.5,18.6-4.8
			c8.6-0.4,17.2-0.6,25.8-0.8c5.5-0.1,10.9-0.2,16.4-0.2c6-0.1,10.9-0.2,16.2,2.9c4.5,2.7,8.1,6.6,9.7,11.5
			c3.7,11.4,5.9,22.7,5.9,22.7c-0.8,2.8-2.2,2.6-2.2,2.6s-2.2,0.1-5.9,0.3c-11.9,0.6-39.6,2.1-61.1,3.2c-15.2,0.8-27.2,1.5-28.3,1.6
			C22.9,54.8,22.1,53.2,22.1,53.2z" style="fill:#528CB0;"></path>
		<path d="M25.5,55c-2.9,0-3.7-1.6-3.8-1.6l0-0.2c-0.4-8.1,0.2-15.8,1.9-22.8c1.1-5,3-11.2,7.2-15.2c4.6-4.3,11.3-4.6,17.3-4.9
			l1.6-0.1c8.5-0.4,17.1-0.6,25.8-0.8c5.5-0.1,10.9-0.2,16.4-0.2l0.6,0c5.7-0.1,10.6-0.1,15.8,3c4.9,2.9,8.4,7.1,9.9,11.8
			c3.7,11.3,5.9,22.7,5.9,22.8l0,0.1l0,0.1c-0.9,3.1-2.5,3-2.6,2.9l-5.8,0.3c-11.9,0.6-39.6,2.1-61.1,3.2c-17.8,1-27.3,1.5-28.3,1.6
			C26,55,25.7,55,25.5,55z M22.6,53c0.2,0.3,1.1,1.2,3.6,1c1-0.1,10.5-0.6,28.3-1.6c21.4-1.1,49.1-2.6,61.1-3.2l5.9-0.3
			c0.1,0,1,0,1.7-2.2c-0.2-1.2-2.4-12-5.9-22.6c-1.5-4.5-4.8-8.5-9.5-11.3c-5-3-9.5-2.9-15.3-2.8l-0.6,0c-5.5,0.1-10.9,0.1-16.4,0.2
			c-8.8,0.2-17.3,0.4-25.8,0.8L48,11.2c-5.8,0.2-12.4,0.5-16.7,4.6c-4.1,3.8-5.8,9.9-6.9,14.7C22.8,37.5,22.2,45.1,22.6,53z"></path>
	</g>
	<g>
		<g>
			<path d="M32.8,59c-1.1-4.2-0.1-8.5,0.1-12.7c0.1-2.3-0.3-5.6,1.4-7.6
				c2.2-2.6,8.3-3,11.6-3.1c4.5-0.1,9.3-0.3,13.6,0.8c1,0.3,2.2,0.4,2.9,1.2c1.2,1.3,1.5,4.1,1.8,5.7c1.1,4.7,2,10.2,1.2,15
				c-0.3,1.8-1.7,2.7-3.4,3.4c-4.1,1.9-10.4,2.7-15,2.8c-3.9,0-7.8-1-11.4-2.2C33.7,61.6,33.6,60.7,32.8,59z" style="fill-rule:evenodd;clip-rule:evenodd;fill:#ADA162;"></path>
			<path d="M46.9,64.9c-3.4,0-7-0.7-11.4-2.2c-1.8-0.6-2.2-1.5-2.8-2.7c-0.1-0.2-0.2-0.5-0.3-0.7l0-0.1c-0.8-3.2-0.5-6.6-0.2-9.8
				c0.1-1,0.2-2.1,0.3-3.1c0-0.5,0-1,0-1.6c0-2.2,0.1-4.6,1.5-6.3c2.2-2.7,7.9-3.2,11.9-3.3c4.4-0.1,9.4-0.3,13.8,0.8
				c0.2,0,0.4,0.1,0.5,0.1c0.9,0.2,2,0.5,2.6,1.2c1,1.2,1.4,3.2,1.7,4.8c0.1,0.4,0.1,0.8,0.2,1.1c0.9,4,2.1,9.9,1.2,15.2
				c-0.3,2.1-2.1,3.1-3.7,3.8c-4.5,2-11,2.8-15.2,2.8C47,64.9,46.9,64.9,46.9,64.9z M33.3,58.9c0.1,0.2,0.2,0.5,0.3,0.7
				c0.5,1.2,0.8,1.7,2.2,2.2c4.4,1.5,8,2.2,11.3,2.2c4.1,0,10.5-0.8,14.8-2.7c1.8-0.8,2.9-1.6,3.1-3.1c0.8-5.1-0.3-10.9-1.2-14.8
				c-0.1-0.3-0.2-0.7-0.2-1.1c-0.3-1.5-0.7-3.4-1.5-4.4c-0.5-0.5-1.3-0.7-2.1-0.9c-0.2,0-0.4-0.1-0.6-0.1c-4.3-1.1-9.2-0.9-13.5-0.8
				c-2.2,0.1-9,0.3-11.2,3c-1.2,1.4-1.2,3.7-1.2,5.7c0,0.6,0,1.1,0,1.6c-0.1,1-0.2,2.1-0.3,3.2C32.8,52.6,32.5,55.8,33.3,58.9z"></path>
		</g>
		<g>
			<path d="M35.1,31.4c-0.9-2.6-0.1-5.4,0.1-8c0.1-1.4-0.2-3.5,1.1-4.8
				c1.8-1.7,6.9-1.9,9.5-2c3.7-0.1,7.7-0.2,11.2,0.5c0.8,0.2,1.9,0.3,2.4,0.8c0.9,0.8,1.2,2.6,1.5,3.6c0.9,3,1.6,6.4,1,9.4
				c-0.2,1.1-1.4,1.7-2.8,2.2c-3.4,1.2-8.6,1.7-12.4,1.7c-3.2,0-6.5-0.6-9.4-1.4C35.8,33,35.7,32.5,35.1,31.4z" style="fill-rule:evenodd;clip-rule:evenodd;fill:#B5A866;"></path>
			<path d="M46.7,35.3c-2.8,0-5.8-0.5-9.4-1.4c-1.5-0.4-1.8-0.9-2.3-1.8c-0.1-0.1-0.2-0.3-0.3-0.4l0-0.1c-0.7-2.1-0.4-4.2-0.1-6.3
				c0.1-0.7,0.2-1.3,0.2-2c0-0.3,0-0.6,0-1c0-1.3,0-3,1.3-4.1c1.8-1.7,6.5-2,9.9-2.1c3.6-0.1,7.7-0.2,11.3,0.5l0.4,0.1
				c0.8,0.1,1.6,0.3,2.2,0.8c0.9,0.8,1.2,2.1,1.5,3.1c0.1,0.2,0.1,0.5,0.2,0.7c0.8,2.5,1.7,6.3,1,9.7c-0.3,1.4-1.8,2.1-3.1,2.5
				c-3.7,1.3-9.1,1.7-12.5,1.8C46.8,35.3,46.7,35.3,46.7,35.3z M35.5,31.2c0.1,0.1,0.2,0.3,0.2,0.4c0.4,0.8,0.6,1,1.7,1.3
				c3.6,1,6.6,1.4,9.3,1.4c3.7,0,8.9-0.6,12.2-1.7c1.4-0.5,2.3-1,2.5-1.8c0.7-3.1-0.2-6.8-1-9.2c-0.1-0.2-0.1-0.5-0.2-0.7
				c-0.2-0.9-0.5-2.1-1.2-2.7c-0.4-0.3-1.1-0.4-1.7-0.6L57,17.6c-3.5-0.7-7.6-0.6-11.1-0.5c-4.9,0.1-8.1,0.7-9.2,1.8
				c-0.9,0.9-0.9,2.2-1,3.5c0,0.4,0,0.7,0,1c-0.1,0.7-0.1,1.3-0.2,2C35.2,27.4,34.9,29.4,35.5,31.2z"></path>
		</g>
	</g>
	<g>
		<g>
			<path d="M78.1,59c-1.1-4.2-0.1-8.5,0.1-12.7c0.1-2.3-0.3-5.6,1.4-7.6
				c2.2-2.6,8.3-3,11.6-3.1c4.5-0.1,9.3-0.3,13.6,0.8c1,0.3,2.2,0.4,2.9,1.2c1.2,1.3,1.5,4.1,1.8,5.7c1.1,4.7,2,10.2,1.2,15
				c-0.3,1.8-1.7,2.7-3.4,3.4c-4.1,1.9-10.4,2.7-15,2.8c-3.9,0-7.8-1-11.4-2.2C78.9,61.6,78.9,60.7,78.1,59z" style="fill-rule:evenodd;clip-rule:evenodd;fill:#ADA162;"></path>
			<path d="M92.1,64.9c-3.4,0-7-0.7-11.4-2.2c-1.8-0.6-2.2-1.5-2.8-2.7c-0.1-0.2-0.2-0.5-0.3-0.7l0-0.1c-0.8-3.2-0.5-6.6-0.2-9.8
				c0.1-1,0.2-2.1,0.3-3.1c0-0.5,0-1,0-1.6c0-2.2,0.1-4.6,1.5-6.3c2.2-2.7,7.9-3.2,11.9-3.3c4.4-0.1,9.4-0.3,13.8,0.8
				c0.2,0,0.4,0.1,0.5,0.1c0.9,0.2,2,0.5,2.6,1.2c1,1.2,1.4,3.2,1.7,4.8c0.1,0.4,0.1,0.8,0.2,1.1c0.9,4,2.1,9.9,1.2,15.2
				c-0.3,2.1-2.1,3.1-3.7,3.8c-4.5,2-11,2.8-15.2,2.8C92.2,64.9,92.2,64.9,92.1,64.9z M78.5,58.9c0.1,0.2,0.2,0.5,0.3,0.7
				c0.5,1.2,0.8,1.7,2.2,2.2c4.3,1.5,7.9,2.2,11.1,2.2c0,0,0.1,0,0.1,0c4.4,0,10.7-0.9,14.8-2.7c1.8-0.8,2.9-1.6,3.1-3.1
				c0.8-5.1-0.3-10.9-1.2-14.8c-0.1-0.3-0.2-0.7-0.2-1.1c-0.3-1.5-0.7-3.4-1.5-4.4c-0.5-0.5-1.3-0.7-2.1-0.9c-0.2,0-0.4-0.1-0.6-0.1
				c-4.3-1.1-9.2-0.9-13.5-0.8c-2.2,0.1-9,0.3-11.2,3c-1.2,1.4-1.2,3.7-1.2,5.7c0,0.6,0,1.1,0,1.6c-0.1,1-0.2,2.1-0.3,3.1
				C78.1,52.6,77.7,55.8,78.5,58.9z"></path>
		</g>
		<g>
			<path d="M80.3,31.4c-1.2-2-1.1-4.5-0.8-6.7c0.3-2.1,0.4-4.6,2-6.1
				c1.8-1.7,6.9-1.9,9.5-2c3.7-0.1,7.7-0.2,11.2,0.5c0.8,0.2,1.9,0.3,2.4,0.8c0.9,0.8,1.2,2.6,1.5,3.6c0.9,3,1.6,6.4,1,9.4
				c-0.2,1.1-1.4,1.7-2.8,2.2c-3.4,1.2-8.6,1.7-12.4,1.7c-3.2,0-6.5-0.6-9.4-1.4C81,33,81,32.5,80.3,31.4z" style="fill-rule:evenodd;clip-rule:evenodd;fill:#ADA162;"></path>
			<path d="M91.9,35.3c-2.8,0-5.8-0.5-9.4-1.4c-1.5-0.4-1.8-0.9-2.3-1.8c-0.1-0.1-0.2-0.3-0.3-0.4l0,0c-1.3-2.2-1.1-4.8-0.8-7.1
				l0.1-0.7c0.2-2,0.5-4.2,2.1-5.7c1.8-1.7,6.5-2,9.9-2.1c3.6-0.1,7.7-0.2,11.3,0.5l0.4,0.1c0.8,0.1,1.6,0.3,2.2,0.8
				c0.9,0.8,1.2,2.1,1.5,3.1c0.1,0.2,0.1,0.5,0.2,0.7c0.8,2.5,1.7,6.3,1,9.7c-0.3,1.4-1.8,2.1-3.1,2.5c-3.7,1.3-9.1,1.7-12.5,1.8
				C92,35.3,92,35.3,91.9,35.3z M80.7,31.2c0.1,0.2,0.2,0.3,0.3,0.5c0.4,0.8,0.6,1,1.7,1.3c3.6,1,6.6,1.4,9.3,1.4
				c3.7,0,8.9-0.6,12.2-1.7c1.4-0.5,2.3-1,2.5-1.8c0.7-3.1-0.2-6.8-1-9.2c-0.1-0.2-0.1-0.5-0.2-0.7c-0.2-0.9-0.5-2.1-1.2-2.7
				c-0.4-0.3-1.1-0.4-1.7-0.6l-0.5-0.1c-3.5-0.7-7.6-0.6-11.1-0.5c-4.9,0.1-8.1,0.7-9.2,1.8c-1.3,1.2-1.6,3.3-1.8,5.1L80,24.7
				C79.8,26.9,79.6,29.3,80.7,31.2L80.7,31.2z"></path>
		</g>
	</g>
</g>
<g>
	
		<path d="M95.7,61.9c0,0-8.6,6.6-10.4,4.9c-1.9-1.7-6.7-2.1-7.4,1c-0.8,3.1,6.6,9.4,9.4,7.7c2.8-1.7,18.1-7.8,18.1-7.8" style="fill:#595959;stroke:#000000;stroke-width:0.6281;stroke-linecap:round;stroke-linejoin:round;stroke-miterlimit:10;"></path>
	<g>
		<path d="M83.5,74.1c-0.8,0-2.4-1-2.9-2c-0.6-1.1-0.8-1.6-0.6-2c0.1-0.1,0.2-0.3,0.5-0.3
			c0.2,0,0.4,0,0.6,0.2l0,0l0,0c1.2,1,3.1,2.8,2.9,3.6C84.1,73.9,83.8,74.1,83.5,74.1z" style="fill:#FF8775;"></path>
		<path d="M80.5,70.2c0.1,0,0.3,0,0.5,0.1c0,0,3,2.6,2.8,3.3c0,0.1-0.2,0.2-0.3,0.2c-0.7,0-2.1-0.9-2.6-1.8
			C80.3,71,79.9,70.2,80.5,70.2 M80.5,69.5L80.5,69.5c-0.3,0-0.6,0.2-0.8,0.4c-0.3,0.5,0,1.2,0.6,2.3c0.6,1.1,2.2,2.1,3.2,2.1
			c0.6,0,0.9-0.3,0.9-0.7c0.1-0.3,0.3-1.1-3-3.9l-0.1-0.1l-0.1,0C81,69.6,80.7,69.5,80.5,69.5L80.5,69.5z"></path>
	</g>
	<g>
		<path d="M79,69c-0.3,0-0.5-0.1-0.7-0.4c-0.3-0.4-0.2-0.9,0.1-1.2c0.1-0.1,0.2-0.1,0.4-0.1
			c0.3,0,0.5,0.2,0.7,0.4c0.3,0.4,0.3,0.9,0,1.1C79.3,69,79.1,69,79,69z" style="fill:#FF8775;"></path>
		<path d="M78.7,67.6c0.2,0,0.3,0.1,0.5,0.3c0.2,0.3,0.2,0.5,0,0.7c-0.1,0.1-0.2,0.1-0.3,0.1c-0.2,0-0.3-0.1-0.5-0.3
			c-0.2-0.3-0.2-0.6,0-0.7C78.6,67.7,78.6,67.6,78.7,67.6 M78.7,67c-0.2,0-0.4,0.1-0.6,0.2c-0.5,0.4-0.6,1.1-0.2,1.6
			c0.2,0.3,0.6,0.5,1,0.5c0.2,0,0.4-0.1,0.6-0.2c0.4-0.3,0.6-0.9,0.1-1.6C79.4,67.2,79.1,67,78.7,67L78.7,67z"></path>
	</g>
	<g>
		<path d="M80.9,68.6c-0.3,0-0.5-0.1-0.7-0.4c-0.3-0.4-0.2-0.9,0.1-1.2c0.1-0.1,0.2-0.1,0.4-0.1
			c0.3,0,0.5,0.2,0.7,0.4c0.1,0.2,0.2,0.4,0.2,0.5c0,0.2-0.1,0.4-0.3,0.6C81.2,68.5,81.1,68.6,80.9,68.6z" style="fill:#FF8775;"></path>
		<path d="M80.7,67.2c0.2,0,0.3,0.1,0.5,0.3c0.2,0.3,0.2,0.5,0,0.7c-0.1,0.1-0.2,0.1-0.3,0.1c-0.2,0-0.3-0.1-0.5-0.3
			c-0.2-0.3-0.2-0.6,0-0.7C80.6,67.2,80.6,67.2,80.7,67.2 M80.7,66.6c-0.2,0-0.4,0.1-0.6,0.2c-0.5,0.4-0.6,1.1-0.2,1.6
			c0.2,0.3,0.6,0.5,1,0.5c0.2,0,0.4-0.1,0.6-0.2c0.4-0.3,0.6-0.9,0.1-1.6C81.4,66.7,81,66.6,80.7,66.6L80.7,66.6z"></path>
	</g>
</g>
<path d="M125.4,57.5c0,0,4.2-4.2,3.5-8.1
	c-0.7-3.9-4.6-6.7-3.7-10.1c0.8-3.4,1.2-5-0.6-4.9s-3.3,4-2.5,7.3c0.8,3.3,5.4,8.2,3.3,10.9s-2.4,1.4-2.4,1.4" style="fill:#595959;stroke:#000000;stroke-width:0.6281;stroke-miterlimit:10;"></path>
<path d="M115.3,34.7
	c-0.5,0.1,2.7,7.4,2.9,7.8c3.3,5.3,9.6,6.7,10,13.9c0.4,6.3-2.9,12.8-11.7,14.6c-11.5,2.5-20.8-2.4-22.7-12.4
	c-1.9-10-0.2-20.8-0.2-20.8S115.3,34.7,115.3,34.7z" style="fill:#FFFFFF;stroke:#000000;stroke-width:0.6281;stroke-linecap:round;stroke-miterlimit:10;"></path>
<g>
	<path d="M104.4,36.4
		c-3.4-2-7.3,0.6-7.3,0.6s-6.1,4.3-11.4,5.8c2.2,3.4,1.6,7.1,1.6,7.1c1.5-0.5,3.5-1.3,6.2-2.4L104.4,36.4z" style="fill:#FFFFFF;stroke:#000000;stroke-width:0.6281;stroke-linecap:round;stroke-miterlimit:10;"></path>
	<path d="M82,43.2
		c0.9,0.2,1.6,0.1,2.2-0.1c-1.3,0.2-2.5,0.2-3.5-0.1c-5.4-1.9-6.8,5.4-4,7.1c2.8,1.6,4.3,1.2,6.6,0.9C85,47.7,82,43.2,82,43.2z" style="fill:#595959;stroke:#000000;stroke-width:0.6281;stroke-linecap:round;stroke-miterlimit:10;"></path>
	<path d="M87.2,49.8l-3.9,1
		C84.5,50.7,85.7,50.4,87.2,49.8z" style="fill:#595959;stroke:#000000;stroke-width:0.6281;stroke-linecap:round;stroke-miterlimit:10;"></path>
	<polygon points="87.2,49.8 
		87.2,49.8 87.2,49.8" style="fill:#FFFFFF;stroke:#000000;stroke-width:0.6281;stroke-linecap:round;stroke-miterlimit:10;"></polygon>
	<g>
		<path d="M85.6,42.7c-0.5,0.1-0.9,0.2-1.4,0.3c-0.6,0.2-1.3,0.3-2.2,0.1c0,0,3,4.5,1.3,7.7l3.9-1
			c0,0,0,0,0,0C87.2,49.8,87.8,46.1,85.6,42.7z" style="fill:#FFFFFF;"></path>
		<path d="M82.5,51.4l0.4-0.8c1.6-2.9-1.2-7.2-1.3-7.3l-0.5-0.8l0.9,0.2c0.7,0.1,1.3,0.1,2-0.1c0.5-0.1,0.9-0.2,1.4-0.3l0.3-0.1
			l0.2,0.2c2.2,3.4,1.7,7.2,1.6,7.4l0,0.3L82.5,51.4z M82.8,43.7c0.7,1.3,2,4.2,1.2,6.6l2.9-0.7c0.1-0.8,0.2-3.7-1.4-6.3
			c-0.4,0.1-0.8,0.2-1.1,0.2C83.8,43.6,83.3,43.7,82.8,43.7z"></path>
	</g>
</g>
<path d="M117.9,34.6" style="fill:#595959;stroke:#000000;stroke-width:0.6281;stroke-miterlimit:10;"></path>
<g>
	<path d="M108.3,13.8c0,0,1.9-0.7,2.4-1.9" style="fill:#FF8775;"></path>
	<path d="M108.3,14.2c-0.2,0-0.3-0.1-0.4-0.3c-0.1-0.2,0-0.4,0.2-0.5c0.5-0.2,1.8-0.8,2.2-1.7c0.1-0.2,0.3-0.3,0.5-0.2
		c0.2,0.1,0.3,0.3,0.2,0.5c-0.5,1.4-2.6,2.1-2.6,2.2C108.4,14.2,108.3,14.2,108.3,14.2z"></path>
</g>
<g>
	<g>
		<path d="M107.4,67.8c0,0-5.7,5.9-7.7,4.5s-6.9-1.1-7.2,2c-0.4,3.1,7.8,8.4,10.3,6.3
			c2.6-2,16.5-10.4,16.5-10.4" style="fill:#595959;"></path>
		<path d="M101.2,81.5c-1.2,0-2.6-0.5-4.2-1.3c-2.5-1.4-5.2-3.8-4.9-5.9c0.1-1.2,0.8-2.1,2-2.7c1.8-0.8,4.3-0.6,5.8,0.4
			c1.3,0.9,5.1-2.2,7.2-4.4c0.2-0.2,0.4-0.2,0.6,0c0.2,0.2,0.2,0.4,0,0.6c-0.6,0.6-6,6.1-8.3,4.5c-1.2-0.8-3.5-1-5-0.3
			c-0.7,0.3-1.5,0.9-1.6,2c-0.2,1.4,1.8,3.6,4.5,5.1c2.2,1.2,4.3,1.6,5.2,0.9c2.5-2,16-10.1,16.5-10.4c0.2-0.1,0.4-0.1,0.5,0.1
			c0.1,0.2,0.1,0.4-0.1,0.5C119.3,70.7,105.5,79,103,81C102.6,81.3,101.9,81.5,101.2,81.5z"></path>
	</g>
	<g>
		<path d="M96,76.4c0,0,3.3,2.1,3.2,2.8c-0.1,0.7-2.3-0.1-3.2-1.2C95.2,77,94.6,76.1,96,76.4z" style="fill:#FF8775;"></path>
		<path d="M95.5,76.3c0.1,0,0.3,0,0.4,0.1c0,0,3.3,2.1,3.2,2.8c0,0.2-0.2,0.3-0.4,0.3c-0.7,0-2.1-0.7-2.7-1.4
			C95.3,77.2,94.8,76.3,95.5,76.3 M95.5,75.5L95.5,75.5c-0.7,0-1,0.4-1,0.6c-0.3,0.7,0.1,1.4,0.9,2.4c0.8,1,2.4,1.7,3.3,1.7
			c0.8,0,1.2-0.5,1.2-1c0-0.4,0.2-1.2-3.6-3.6l-0.1-0.1l-0.1,0C95.9,75.6,95.7,75.5,95.5,75.5L95.5,75.5z"></path>
	</g>
	<g>
		<path d="M93.9,75c-0.2,0.2-0.5,0.2-0.7-0.1c-0.2-0.2-0.3-0.6-0.1-0.7c0.2-0.2,0.5-0.1,0.7,0.1
			S94.1,74.8,93.9,75z" style="fill:#FF8775;"></path>
		<path d="M93.3,74.1c0.1,0,0.3,0.1,0.5,0.2c0.2,0.2,0.3,0.5,0.1,0.7c-0.1,0.1-0.2,0.1-0.3,0.1c-0.1,0-0.3-0.1-0.4-0.2
			c-0.2-0.2-0.3-0.6-0.1-0.7C93.2,74.1,93.2,74.1,93.3,74.1 M93.3,73.3L93.3,73.3c-0.3,0-0.6,0.1-0.8,0.3c-0.5,0.5-0.5,1.3,0.1,1.9
			c0.3,0.3,0.6,0.4,1,0.4c0.3,0,0.6-0.1,0.9-0.4c0.3-0.3,0.4-0.7,0.3-1c-0.1-0.3-0.2-0.5-0.4-0.7C94,73.5,93.7,73.3,93.3,73.3
			L93.3,73.3z"></path>
	</g>
	<g>
		<path d="M95.8,74.3c-0.2,0.2-0.5,0.2-0.7-0.1c-0.2-0.2-0.3-0.6-0.1-0.7s0.5-0.1,0.7,0.1S96,74.1,95.8,74.3z" style="fill:#FF8775;"></path>
		<path d="M95.2,73.4c0.1,0,0.3,0.1,0.5,0.2c0.2,0.2,0.3,0.5,0.1,0.7c-0.1,0.1-0.2,0.1-0.3,0.1c-0.1,0-0.3-0.1-0.4-0.2
			c-0.2-0.2-0.3-0.6-0.1-0.7C95.1,73.4,95.1,73.4,95.2,73.4 M95.2,72.6L95.2,72.6c-0.3,0-0.6,0.1-0.8,0.3c-0.5,0.5-0.5,1.3,0.1,1.9
			c0.3,0.3,0.6,0.4,1,0.4c0.3,0,0.6-0.1,0.9-0.4c0.4-0.4,0.5-1.1-0.1-1.8C95.9,72.7,95.6,72.6,95.2,72.6L95.2,72.6z"></path>
	</g>
</g>
<g>
	<path d="M95.5,14.2c0,0-2.1-2.1-3.5-3.2
		s-5.4-3.8-6.1-3.6c-0.8,0.3-4.6,7.6-1,11.4" style="fill:#595959;stroke:#000000;stroke-width:0.6281;stroke-miterlimit:10;"></path>
	
		<path d="M91.5,14.9c0,0-5.2-4.6-5.3-5.5s-2.3,5.7,0.3,7.3c0,0,0.7-0.4,1.2-0.6c0,0-0.6-1.6,1-0.6C89.8,16.1,91.5,14.9,91.5,14.9z" style="fill:#FF8775;stroke:#000000;stroke-width:0.6281;stroke-linecap:round;stroke-linejoin:round;stroke-miterlimit:10;"></path>
	<g>
		<path d="M95.9,14c0,0,3.5,0,5.4,0.4l11.1,3.6c0.2-0.3,3.3,4.5,3.4,4.8c1.8,4.1,2.6,10.5,0.9,15.3
			c-0.4,1.3-1.1,2.4-1.9,3.4c-3.1,3.7-8.7,5.4-13.4,5.9c-5.6,0.5-11.9,0.3-16.9-2.8c-5.2-3.2-8.7-10.3-3.4-15.3
			c-1.2-7.9,5.7-13,5.7-13S92.7,12.6,95.9,14z" style="fill:#595959;"></path>
		<path d="M97,48.1c-5.2,0-9.4-1-12.7-3.1c-3.4-2.1-5.9-5.7-6.2-9.1c-0.2-2.5,0.6-4.8,2.6-6.7c-1.1-7.9,5.8-13.1,5.8-13.2
			c0.3-0.2,6-3.9,9.4-2.4c0.6,0,3.7,0,5.4,0.4l11,3.6c0.8,0.1,3.7,5,3.7,5.1c1.8,4,2.7,10.6,0.9,15.6c-0.5,1.4-1.1,2.6-1.9,3.5
			c-3.9,4.6-10.8,5.7-13.6,6C99.9,48,98.4,48.1,97,48.1z M94.2,14.1c-3,0-7.1,2.6-7.2,2.6c0,0-6.6,5.1-5.5,12.6l0,0.2l-0.2,0.1
			c-1.8,1.7-2.7,3.8-2.5,6.2c0.3,3.1,2.6,6.5,5.8,8.5c4.1,2.5,9.5,3.4,16.6,2.7c2.7-0.3,9.4-1.3,13.1-5.7c0.8-0.9,1.4-2,1.8-3.3
			c1.7-4.8,0.8-11.2-0.9-15.1c-0.2-0.5-2.5-4-3.1-4.6l-11.1-3.6c-1.8-0.4-5.3-0.4-5.3-0.4l-0.1,0l-0.1,0
			C95.3,14.2,94.7,14.1,94.2,14.1z"></path>
	</g>
	<g>
		<path d="M94.8,16.2c-0.9,0.4-3.3-1.1-2.2-2.6c1.1-1.5,2.7,0.5,2.7,0.5s-1.1-3,1.1-3.3s1.9,2.3,1.9,2.3
			s0.1-1.5,1.3-1.5c2.5-0.1,2.2,2.6,0.6,3.6" style="fill:#595959;"></path>
		<path d="M94.4,16.6c-0.7,0-1.5-0.5-2-1c-0.6-0.7-0.7-1.6-0.1-2.3c0.4-0.6,0.9-0.7,1.2-0.7c0.4,0,0.8,0.1,1.1,0.4
			c-0.1-0.6,0-1.3,0.3-1.8c0.3-0.5,0.8-0.8,1.4-0.8c0.7-0.1,1.3,0.1,1.7,0.5c0.2,0.2,0.4,0.5,0.5,0.8c0.2-0.2,0.6-0.4,1-0.4
			c1.6-0.1,2.1,0.9,2.2,1.3c0.3,1.1-0.3,2.4-1.4,3c-0.2,0.1-0.4,0-0.5-0.1c-0.1-0.2,0-0.4,0.1-0.5c0.9-0.5,1.2-1.5,1-2.1
			c-0.2-0.6-0.8-0.8-1.4-0.7c-0.7,0-0.8,0.9-0.9,1.1c0,0,0,0.1,0,0.1c0,0.2-0.2,0.4-0.4,0.4c-0.2,0-0.4-0.2-0.4-0.4c0,0,0-0.1,0-0.1
			c0-0.4,0-1.2-0.4-1.6c-0.2-0.2-0.6-0.3-1-0.2c-0.4,0.1-0.6,0.2-0.8,0.5c-0.4,0.7-0.1,1.9,0,2.3c0.1,0.2,0,0.4-0.2,0.5
			c-0.2,0.1-0.4,0.1-0.5-0.1c-0.2-0.3-0.9-0.9-1.5-0.9c-0.2,0-0.4,0.1-0.6,0.4c-0.4,0.5-0.1,1,0.1,1.3c0.5,0.6,1.3,0.9,1.6,0.7
			c0.2-0.1,0.4,0,0.5,0.2c0.1,0.2,0,0.4-0.2,0.5C94.8,16.6,94.6,16.6,94.4,16.6z"></path>
	</g>
	<g>
		<path d="M101.8,34.4c0.4,2.7-0.6,5.7-6.7,6.2c-4.1,0.3-7.3-2.2-7.3-4.9c-0.1-2.7,2.1-5.6,6.2-5.6
			S101.5,31.7,101.8,34.4z" style="fill:#FFFFFF;"></path>
		<g>
			<g>
				<g>
					<path d="M94.7,31.3c-0.5,0-0.9,0.2-1,0.6c0,0.4,0.3,0.7,0.8,0.8
						c0.5,0,0.9-0.2,1-0.6C95.6,31.7,95.2,31.3,94.7,31.3z" style="fill-rule:evenodd;clip-rule:evenodd;fill:#FF8775;"></path>
					<path d="M94.6,31.3c0,0,0.1,0,0.1,0c0.5,0,0.9,0.4,0.8,0.8c0,0.3-0.4,0.6-0.8,0.6c0,0-0.1,0-0.1,0c-0.5,0-0.9-0.4-0.8-0.8
						C93.8,31.5,94.2,31.3,94.6,31.3 M94.6,30.5c-0.9,0-1.6,0.6-1.6,1.3c-0.1,0.8,0.6,1.5,1.5,1.6c0.1,0,0.1,0,0.2,0
						c0.9,0,1.6-0.6,1.6-1.3c0-0.4-0.1-0.8-0.5-1.2c-0.3-0.3-0.7-0.4-1.1-0.5C94.7,30.5,94.7,30.5,94.6,30.5L94.6,30.5z"></path>
				</g>
				<g>
					<g>
						<path d="M90.6,30.3L90.6,30.3c0.7,0,1.3-0.5,1.4-1.2l0-0.2
							c0-0.7-0.5-1.3-1.2-1.3c-0.7,0-1.3,0.5-1.4,1.2l0,0.2C89.4,29.7,89.9,30.3,90.6,30.3" style="fill-rule:evenodd;clip-rule:evenodd;"></path>
					</g>
					<g>
						<path d="M100.2,30.6L100.2,30.6c0.8,0,1.4-0.5,1.5-1.2l0-0.2
							c0-0.7-0.5-1.3-1.3-1.4s-1.4,0.5-1.5,1.2l0,0.2C98.9,30,99.5,30.6,100.2,30.6" style="fill-rule:evenodd;clip-rule:evenodd;"></path>
					</g>
				</g>
			</g>
			<path d="M95.9,36.6c-0.7,0-1.1-0.4-1.4-0.8c-0.5,0.5-1.3,0.8-2,0.7c-0.9-0.1-1.4-0.8-1.4-1.7c0-0.2,0.2-0.4,0.4-0.4
				c0.2,0,0.4,0.2,0.4,0.4c0,0.6,0.4,0.8,0.7,0.9c0.6,0.1,1.4-0.2,1.6-0.9c0.1-0.2,0.2-0.3,0.4-0.3c0.2,0,0.3,0.2,0.4,0.3
				c0,0.1,0.2,1,1,1c0.6,0,1-0.2,1.2-0.5c0.1-0.2,0.2-0.4,0.1-0.7c-0.1-0.2,0.1-0.4,0.3-0.5c0.2,0,0.4,0.1,0.5,0.3
				c0.1,0.5,0,1-0.2,1.3c-0.3,0.5-1,0.8-1.8,0.8C96,36.6,96,36.6,95.9,36.6z"></path>
		</g>
	</g>
	<g>
		<path d="M101.3,15.1c0,0,1.8-2.3,3.2-3.5c1.3-1.2,5-4.3,5.8-4.2c0.8,0.2,5.3,7.1,2.1,11.2" style="fill:#595959;"></path>
		<path d="M112.7,18.9l-0.6-0.5c1-1.4,1.3-3.2,0.8-5.3c-0.7-2.8-2.4-5.1-2.7-5.3c0,0,0,0,0,0c-0.5,0-3.4,2.2-5.4,4.1
			c-1.3,1.2-3.1,3.4-3.1,3.5l-0.6-0.5c0.1-0.1,1.9-2.3,3.2-3.5c0.2-0.2,4.9-4.5,6.1-4.3c0.7,0.2,2.1,2.3,2.8,4.4
			C113.9,13.6,114.5,16.6,112.7,18.9z"></path>
	</g>
	<g>
		<path d="M105.2,15.4c0,0,4.7-5.1,4.8-6c0-0.9,2.8,5.5,0.4,7.3c0,0-0.8-0.4-1.2-0.4c0,0,0.5-1.7-1.1-0.5
			C107.1,16.5,105.2,15.4,105.2,15.4z" style="fill:#FF8775;"></path>
		<path d="M110.4,17.1c-0.1,0-0.1,0-0.2,0c-0.2-0.1-0.8-0.4-1.1-0.4c-0.1,0-0.2-0.1-0.3-0.2c-0.1-0.1-0.1-0.2,0-0.3
			c0-0.1,0.1-0.3,0-0.4c-0.1,0-0.3,0.1-0.5,0.3c-1.2,0.9-3-0.2-3.3-0.3c-0.1-0.1-0.2-0.2-0.2-0.3c0-0.1,0-0.2,0.1-0.3
			c2.2-2.4,4.6-5.2,4.7-5.8c0-0.3,0.2-0.4,0.4-0.4c0.3-0.1,0.6,0.2,0.9,1c0.8,1.8,1.7,5.6-0.3,7C110.6,17.1,110.5,17.1,110.4,17.1z
			 M109.6,16c0.3,0.1,0.5,0.2,0.7,0.3c0.4-0.4,0.6-0.9,0.7-1.6c0.1-1.6-0.5-3.5-0.9-4.4c-0.8,1.3-2.9,3.7-4.2,5.1
			c0.6,0.2,1.5,0.5,1.9,0.1c0.4-0.3,1-0.7,1.5-0.4C109.6,15.3,109.7,15.7,109.6,16z"></path>
	</g>
</g>
<g>
	<path d="M101.6,39.4c-9.6,0-17.3,7.8-17.3,17.3s7.8,17.3,17.3,17.3s17.3-7.8,17.3-17.3
		S111.1,39.4,101.6,39.4z M101.6,69.2c-6.9,0-12.5-5.6-12.5-12.5s5.6-12.5,12.5-12.5s12.5,5.6,12.5,12.5S108.5,69.2,101.6,69.2z" style="fill:#995C5C;"></path>
	<path d="M101.6,74.5c-9.8,0-17.7-8-17.7-17.7s8-17.7,17.7-17.7s17.7,8,17.7,17.7S111.3,74.5,101.6,74.5z M101.6,39.8
		c-9.3,0-16.9,7.6-16.9,16.9s7.6,16.9,16.9,16.9s16.9-7.6,16.9-16.9S110.9,39.8,101.6,39.8z M101.6,69.6c-7.1,0-12.9-5.8-12.9-12.9
		c0-7.1,5.8-12.9,12.9-12.9c7.1,0,12.9,5.8,12.9,12.9C114.4,63.8,108.7,69.6,101.6,69.6z M101.6,44.6c-6.7,0-12.1,5.4-12.1,12.1
		s5.4,12.1,12.1,12.1s12.1-5.4,12.1-12.1S108.2,44.6,101.6,44.6z"></path>
</g>
<g>
	<g>
		<path d="M108.6,37.3c-0.7-0.1-1.4-0.2-2.1-0.3l6.1,1.2C111.2,37.8,109.8,37.5,108.6,37.3z" style="fill:#595959;"></path>
		<path d="M112.6,38.6l-6.1-1.2l0.1-0.8c0.7,0.1,1.4,0.2,2.1,0.3l0.1,0c1.1,0.2,2.5,0.5,3.9,0.8L112.6,38.6z"></path>
	</g>
	<g>
		<path d="M121.8,47.1c2.3-3.4-1.8-5.7-4.1-7.1c-1.3-0.8-3.2-1.3-5-1.8c2.8,1.5,2,5.9,1.8,6.8
			c0.7,0.1,1.5,0.3,2,0.4" style="fill:#FFFFFF;"></path>
		<path d="M121.8,47.5c-0.1,0-0.2,0-0.2-0.1c-0.2-0.1-0.2-0.4-0.1-0.5c0.5-0.8,0.7-1.5,0.5-2.3c-0.4-1.8-2.9-3.3-4.5-4.2
			c-0.8-0.5-1.9-0.9-3.4-1.4c1.2,1.8,1,4.5,0.8,5.7c0.1,0,0.2,0,0.3,0.1c0.5,0.1,0.9,0.2,1.3,0.2c0.2,0,0.4,0.2,0.3,0.4
			c0,0.2-0.2,0.4-0.4,0.3c-0.4,0-0.8-0.1-1.3-0.2c-0.2,0-0.5-0.1-0.7-0.1l-0.4-0.1l0.1-0.4c0.2-0.8,0.9-5-1.6-6.3l-2.8-1.5l3.1,0.8
			c2.3,0.6,4,1.2,5.1,1.8c1.8,1,4.4,2.5,4.9,4.7c0.2,1,0,1.9-0.7,2.9C122.1,47.4,122,47.5,121.8,47.5z"></path>
	</g>
	<g>
		<path d="M106.6,37c-2.4-0.3-5.1-0.1-7,1.4c-3,2.2-4.3,7.7-0.9,9.9c2.6,1.7,7.9,2.4,10.3,0.2
			c0.8-0.8,1.6-2.8,2.3-3.3C112.7,38.4,107,37.1,106.6,37z" style="fill:#595959;"></path>
		<path d="M104.5,50.2c-2.3,0-4.7-0.7-6.2-1.7c-1.3-0.9-2.1-2.3-2.2-4.1c-0.1-2.4,1.2-5,3.1-6.4c1.7-1.3,4.2-1.8,7.3-1.4l0,0
			c0.3,0.1,2.8,0.6,4.2,2.8c1,1.5,1.2,3.5,0.7,5.8l0,0.1l-0.1,0.1c-0.3,0.2-0.7,0.9-1,1.5c-0.4,0.7-0.8,1.4-1.3,1.8
			C108,49.8,106.3,50.2,104.5,50.2z M104.8,37.3c-2.1,0-3.8,0.5-5.1,1.4c-1.7,1.2-2.8,3.6-2.7,5.7c0,1.1,0.4,2.5,1.8,3.5
			c2.3,1.5,7.6,2.3,9.8,0.3c0.4-0.3,0.7-1,1.1-1.6c0.4-0.7,0.7-1.3,1.1-1.6c0.4-2,0.2-3.7-0.6-5.1c-1.2-1.9-3.4-2.4-3.7-2.5
			C105.9,37.3,105.4,37.3,104.8,37.3z"></path>
	</g>
	<g>
		<path d="M106.5,37C106.5,37,106.5,37,106.5,37C106.6,37,106.6,37,106.5,37L106.5,37z" style="fill:#FFFFFF;"></path>
		<polygon points="106.6,37.4 106.4,37.4 106.6,36.6 106.6,36.6 106.6,36.6 106.6,36.6 106.6,36.7"></polygon>
	</g>
	<g>
		<path d="M112.7,38.2L112.7,38.2C112.6,38.2,112.7,38.2,112.7,38.2C112.7,38.2,112.7,38.2,112.7,38.2z" style="fill:#FFFFFF;"></path>
		<polygon points="116,39.4 112.6,38.6 112.6,38.6 112.6,38.6 112.6,38.4 112.5,38.6 112.6,38.4 112.7,37.8 112.9,37.8 112.9,37.8"></polygon>
	</g>
	<g>
		<path d="M112.7,38.2C112.7,38.2,112.6,38.2,112.7,38.2l-6.1-1.2c0,0,0,0,0,0c0.5,0.1,6.2,1.4,4.6,8.1
			c0.8-0.6,2.1-0.4,3.3-0.2C114.7,44.1,115.4,39.7,112.7,38.2z" style="fill:#FFFFFF;"></path>
		<path d="M110.6,46.1l0.2-1c0.5-2.1,0.3-3.9-0.6-5.2c-1.3-1.9-3.5-2.4-3.7-2.5l0.1-0.8l0.1,0l0,0c0,0,0.1,0,0.2,0l6,1.2
			c3,1.6,2.2,6.3,2,7.2l-0.1,0.4l-0.4-0.1c-1.1-0.2-2.3-0.4-3,0.1L110.6,46.1z M112.7,44.4c0.5,0,1,0.1,1.5,0.2
			c0.2-1.3,0.6-4.7-1.6-5.9l-3-0.6c0.5,0.4,0.9,0.8,1.3,1.4c0.9,1.4,1.2,3.1,0.9,5C112,44.4,112.4,44.4,112.7,44.4z"></path>
	</g>
</g>
<g>
	<g>
		<g>
			<path d="M162,108.5c0,0,5.4,21.8-4.3,32.9c-0.8,0.9-1.8,1.6-2.9,2c-3.6,1.4-12.7,4.3-19.1,1.3
				c-8.3-3.7-22.8-25.5-6.6-45.5S162,108.5,162,108.5z" style="fill:#424242;"></path>
			<path d="M142.3,146.4c-2.3,0-4.7-0.4-6.8-1.3c-4.8-2.2-11.1-10-13.3-19.2c-1.6-6.7-1.7-16.7,6.6-27c4.1-5.1,8.7-7.5,13.5-7.1
				c11.1,0.9,19.7,15.8,20.1,16.4l0,0.1c0,0.1,1.4,5.6,1.5,12.4c0.1,6.3-0.8,15.1-5.9,20.9c-0.8,0.9-1.9,1.7-3.1,2.1
				C152.4,144.7,147.3,146.4,142.3,146.4z M141.2,92.6c-4.2,0-8.2,2.3-11.9,6.8c-8.1,10-7.9,19.8-6.4,26.3c2.1,9,8.2,16.5,12.9,18.6
				c6.3,2.9,15.3,0,18.8-1.3c1.1-0.4,2-1.1,2.7-1.9c9.3-10.6,4.6-31.3,4.3-32.5c-0.6-0.9-9.1-15.2-19.4-16
				C141.9,92.6,141.6,92.6,141.2,92.6z"></path>
		</g>
		<g>
			<path d="M50.8,114.6c0,0,5.8,23.2-4.6,34.9c-0.8,0.9-1.9,1.7-3.1,2.1c-3.8,1.5-13.4,4.5-20.3,1.4
				c-8.8-4-24.2-27.1-7-48.4S50.8,114.6,50.8,114.6z" style="fill:#424242;"></path>
			<path d="M29.8,154.8c-2.5,0-5-0.4-7.2-1.4c-5.1-2.3-11.8-10.6-14.1-20.4c-1.7-7.1-1.8-17.8,7-28.6c4.4-5.4,9.2-7.9,14.3-7.5
				c11.8,0.9,20.9,16.8,21.3,17.4l0,0.1c0.1,0.2,5.7,23.5-4.7,35.3c-0.9,1-2,1.8-3.2,2.2C40.6,153,35.2,154.8,29.8,154.8z
				 M28.7,97.7c-4.5,0-8.7,2.4-12.6,7.3c-8.6,10.6-8.4,21-6.8,27.9c2.3,9.6,8.7,17.6,13.7,19.8c6.7,3.1,16.2,0,20-1.4
				c1.1-0.4,2.1-1.1,2.9-2c9.9-11.2,4.8-33.3,4.5-34.5c-0.6-1-9.7-16.1-20.7-17C29.4,97.7,29,97.7,28.7,97.7z"></path>
		</g>
	</g>
	<g>
		<g>
			<path d="M167.7,94.8c0,0,2.7,2.6,2.7,5.4c0,2.7-2.7,23.5-2.7,23.5s-0.9,1.6-2.2,2.2
				c-1.3,0.6-10.9,3.8-10.9,3.8L167.7,94.8z" style="fill:#666666;"></path>
			<path d="M153.9,130.3l13.6-36.2l0.4,0.4c0.1,0.1,2.9,2.8,2.8,5.6c0,2.7-2.6,22.7-2.7,23.6l0,0.1c0,0.1-1,1.7-2.4,2.4
				c-1.3,0.6-10.6,3.7-11,3.8L153.9,130.3z M167.8,95.5L155.2,129c2.3-0.8,9-3.1,10.1-3.5c1-0.5,1.8-1.7,2-2
				c0.2-1.4,2.6-20.8,2.7-23.4C170,98.2,168.6,96.4,167.8,95.5z"></path>
		</g>
		<g>
			<path d="M3.5,96c0,0-2.9,2.8-2.9,5.7c0,2.9,2.9,25,2.9,25s0.9,1.7,2.3,2.3c1.4,0.6,11.6,4,11.6,4L3.5,96z" style="fill:#666666;"></path>
			<path d="M18.2,133.7l-0.8-0.3c-0.4-0.1-10.2-3.4-11.6-4.1c-1.5-0.7-2.5-2.4-2.5-2.5l0-0.1c-0.1-0.9-2.8-22.1-2.9-25
				c0-3,2.9-5.9,3-6l0.4-0.4L18.2,133.7z M3.9,126.6c0.2,0.3,1,1.6,2.1,2.1c1.1,0.5,8.4,2.9,10.8,3.8L3.4,96.8
				c-0.8,0.9-2.3,2.9-2.3,4.9C1.1,104.5,3.7,125.2,3.9,126.6z"></path>
		</g>
	</g>
	<path d="M48.1,104c0,0,0-0.1,0-0.2
		C48.1,103.9,48.1,104,48.1,104z" style="fill:#F60000;stroke:#000000;stroke-width:0.7233;stroke-miterlimit:10;"></path>
	<g>
		<g>
			<g>
				<path d="M164.2,73.3c-1.1,4.8-3.9,9.1-8,12.1c-6.2,4.5-13.5,9.7-17.7,12.3c-8.5,5.1-90.3,6.1-90.3,6.1
					s-43-9-43.5-27.3v0c-0.3,1-0.5,1.9-0.5,2.7C2.5,89.5,2,97.8,6,116.1c4,18.3,38.2,25.7,68.1,27.7c31.2,2.2,74.8-8.6,81.6-15.1
					c6.7-6.5,14-33.1,14.8-42.3C171,81.1,167.3,76.3,164.2,73.3z" style="fill:#F60000;"></path>
				<path d="M82.6,144.6c-2.9,0-5.8-0.1-8.5-0.3c-19-1.3-63.8-6.7-68.5-28.1c-4.2-19.1-3.4-27.4-1.9-37c0-0.7,0.2-1.7,0.5-2.8
					L5,73.5l0.1,3c0.5,17.7,42.7,26.8,43.2,26.9c0.7,0,81.7-1.1,90-6.1c4.4-2.6,12-8.1,17.7-12.3c3.9-2.9,6.7-7.1,7.9-11.9l0.2-0.8
					l0.6,0.6c3.2,3.1,7,8,6.5,13.6c-0.8,8.9-8,35.9-14.9,42.6C149.4,135.4,112.3,144.6,82.6,144.6z M4.6,79.4C3,89,2.3,97.2,6.5,116
					c4.6,20.8,48.9,26.1,67.7,27.4c13.8,1,32-0.6,49.8-4.3c15.5-3.2,28.1-7.5,31.4-10.6c6.7-6.4,13.9-33.4,14.7-42
					c0.4-4.9-2.7-9.3-5.6-12.3c-1.3,4.7-4.1,8.8-8,11.6c-5.7,4.1-13.4,9.7-17.8,12.3c-8.5,5.1-87.2,6.1-90.5,6.2
					c-0.2,0-11-2.3-21.8-6.8C13.6,92.1,6.3,86,4.6,79.4z"></path>
			</g>
			<path d="M114.8,49.8c-0.2-0.1-0.2-0.3-0.2-0.5c0.1-0.2,0.2-0.3,0.4-0.3l5.9-0.3c0.1,0,1,0,1.7-2.2c-0.2-1.2-2.4-12-5.9-22.6
				c-1.5-4.5-4.8-8.5-9.5-11.3c-5-3-9.5-2.9-15.3-2.8l-0.6,0C85.9,9.9,80.4,9.9,75,10c-8.8,0.2-17.4,0.4-25.8,0.8l-1.6,0.1
				c-5.8,0.2-12.4,0.5-16.7,4.6c-4.1,3.8-5.8,9.9-6.9,14.7c-1.6,7-2.2,14.5-1.8,22.5c0.2,0.3,1.1,1.2,3.6,1
				c1.3-0.1,16.1-0.9,28.3-1.6c0.2,0,0.5,0.2,0.5,0.4s-0.2,0.5-0.4,0.5c-17.5,0.9-27.3,1.5-28.3,1.6c-3.5,0.3-4.4-1.5-4.5-1.6
				c0-0.1,0-0.1,0-0.2C20.8,44.8,21.4,37.1,23,30c1.1-5,3-11.2,7.2-15.2c4.6-4.3,11.3-4.6,17.3-4.9l1.6-0.1
				c8.5-0.4,17.1-0.6,25.8-0.8C80.4,9,85.9,8.9,91.3,8.9l0.6,0c5.7-0.1,10.6-0.1,15.8,3c4.9,2.9,8.4,7.1,9.9,11.8
				c3.7,11.3,5.9,22.7,5.9,22.8c0,0.1,0,0.1,0,0.2c-0.9,3.1-2.5,3-2.6,2.9l-4.6,0.2"></path>
			<g>
				<path d="M160.3,70.1c0,0-18.6-18.6-30.6-22.1c0,0-2.5-13.5-6.6-26.9c-1.8-5.8-5.8-10.4-10.8-13.6
					C106.4,3.8,100.9,4,94.2,4c-6.1,0.1-12.2,0.2-18.3,0.3c-9.6,0.2-19.3,0.4-28.9,0.9c-7.1,0.4-15.3,0.3-20.8,5.7
					c-4.6,4.6-6.6,11.6-7.9,17.7c-1.9,8.8-2.5,18-2.1,26.9c0,0-9.4,13-11.6,21c0.5,18.3,43.5,27.3,43.5,27.3c0,0.1,0,0.2,0,0.2
					s12.9,4.3,32.7,2.3c20.6-2.1,41.8-2.4,54.5-7.5c1.4-0.3,2.5-0.7,3.1-1.1c4.2-2.6,11.5-7.7,17.7-12.3c4.1-3,6.9-7.4,8-12.1
					C162.1,71.3,160.3,70.1,160.3,70.1z M21.6,52.9c-0.4-7.6,0.2-15.3,1.8-22.7c1.2-5.2,3-11.1,7.1-15c4.8-4.6,12.2-4.5,18.6-4.8
					c8.6-0.4,17.2-0.6,25.8-0.8c5.5-0.1,10.9-0.2,16.4-0.2c6-0.1,10.9-0.2,16.2,2.9c4.5,2.7,8.1,6.6,9.7,11.5
					c3.7,11.4,5.9,22.7,5.9,22.7c-0.8,2.8-2.2,2.6-2.2,2.6s-2.2,0.1-5.9,0.3C103.1,50,75.4,51.5,54,52.6
					c-15.2,0.8-27.2,1.5-28.3,1.6C22.4,54.5,21.6,52.9,21.6,52.9z M115.9,50.1C115.9,50.1,115.9,50.1,115.9,50.1
					C115.9,50.1,115.9,50.1,115.9,50.1z M115.5,49.7C115.4,49.7,115.4,49.7,115.5,49.7C115.4,49.7,115.4,49.7,115.5,49.7z
					 M115.2,49.5C115.2,49.5,115.1,49.5,115.2,49.5C115.1,49.5,115.2,49.5,115.2,49.5z M54,52.8" style="fill:#F60000;"></path>
				<path d="M70.4,107.3c-13.7,0-22.3-2.8-22.4-2.8l-0.3-0.1l0-0.1c-4.4-1-43.1-9.9-43.5-27.7l0-0.1l0-0.1
					c2.1-7.6,10.5-19.5,11.6-21c-0.4-9.5,0.3-18.5,2.1-26.9c1.3-5.9,3.3-13.2,8-17.9C31,5.5,38.5,5.2,45.1,4.9l1.8-0.1
					C56.4,4.3,66,4.1,75.8,3.9c5.9-0.1,12-0.2,18.3-0.3l0.7,0c6.4-0.1,11.9-0.1,17.7,3.5c5.4,3.4,9.3,8.3,11,13.9
					c3.8,12.3,6.2,24.7,6.5,26.7c11.8,3.6,29.3,21,30.5,22.1c0.3,0.2,2,1.3,3.9,3.2l0.2,0.2l-0.1,0.3c-1.2,5-4.1,9.4-8.2,12.4
					c-5.7,4.1-13.4,9.7-17.8,12.3c-0.7,0.4-1.7,0.8-3.2,1.1c-9.4,3.8-23.7,4.9-38.9,6.1c-5.1,0.4-10.4,0.8-15.6,1.4
					C77.1,107.1,73.6,107.3,70.4,107.3z M48.6,103.7c2,0.6,14.3,4,32.2,2.2c5.2-0.5,10.5-1,15.7-1.4c15.1-1.2,29.3-2.3,38.7-6.1
					c1.5-0.4,2.5-0.7,3.1-1.1c4.4-2.6,12-8.1,17.7-12.3c3.9-2.8,6.6-7,7.8-11.6c-2-1.9-3.6-3-3.6-3l-0.1-0.1
					c-0.2-0.2-18.6-18.5-30.4-22l-0.3-0.1l-0.1-0.3c0-0.1-2.5-13.6-6.6-26.9c-1.6-5.3-5.4-10.1-10.6-13.4
					c-5.6-3.5-10.7-3.4-17.2-3.4l-0.7,0c-6.3,0.1-12.5,0.2-18.3,0.3C66,5,56.5,5.2,47,5.7l-1.8,0.1c-6.5,0.3-13.8,0.6-18.7,5.5
					C22,15.8,20,23,18.7,28.7c-1.8,8.3-2.5,17.3-2.1,26.8l0,0.2l-0.1,0.1c-0.1,0.1-9.3,12.9-11.5,20.8c0.6,17.7,42.7,26.7,43.1,26.8
					l0.3,0.1L48.6,103.7z M114.9,49.9L114.9,49.9L114.9,49.9c-12,0.6-39.6,2.1-60.9,3.2c-17.5,0.9-27.3,1.5-28.3,1.6
					c-0.3,0-0.5,0-0.7,0c-2.9,0-3.7-1.6-3.8-1.6l0-0.2C20.8,44.8,21.4,37.1,23,30c1.1-5,3-11.2,7.2-15.2c4.6-4.3,11.3-4.6,17.3-4.9
					l1.6-0.1c8.5-0.4,17.1-0.6,25.8-0.8C80.4,9,85.9,8.9,91.3,8.9l0.6,0c5.7-0.1,10.6-0.1,15.8,3c4.9,2.9,8.4,7.1,9.9,11.8
					c3.7,11.3,5.9,22.7,5.9,22.8l0,0.1l0,0.1c-0.9,3.1-2.5,3-2.6,2.9l-4.6,0.2 M22.1,52.7c0.2,0.3,1.1,1.2,3.6,1
					c1.3-0.1,16.1-0.9,28.3-1.6c21.4-1.1,49.1-2.6,61.1-3.2l5.9-0.3c0.1,0,1,0,1.7-2.2c-0.2-1.2-2.4-12-5.9-22.6
					c-1.5-4.5-4.8-8.5-9.5-11.3c-5-3-9.5-2.9-15.3-2.8l-0.6,0C85.9,9.9,80.4,9.9,75,10c-8.8,0.2-17.4,0.4-25.8,0.8l-1.6,0.1
					c-5.8,0.2-12.4,0.5-16.7,4.6c-4.1,3.8-5.8,9.9-6.9,14.7C22.3,37.2,21.7,44.8,22.1,52.7z"></path>
			</g>
		</g>
		<g>
			<path d="M115,49.4L115,49.4C103.1,50,75.4,51.5,54,52.6c0,0-6.9,39.7-5.9,51.2c0,0.1,0,0.2,0,0.2
				s12.9,4.3,32.7,2.3c23.1-2.4,47-2.4,58.7-9.5C138.5,66.1,115,49.4,115,49.4z" style="fill:#F60000;"></path>
			<path d="M70.4,107.3c-13.7,0-22.3-2.8-22.4-2.8l-0.3-0.1l0-0.5c-1-11.4,5.6-49.7,5.9-51.3l0.1-0.4l0.4,0
				c21.4-1.1,49.1-2.6,61.1-3.2l0.2,0l0.1,0.1c0.2,0.2,23.6,17.1,24.7,47.7l0,0.3l-0.2,0.1c-9.1,5.5-25.7,6.9-43.2,8.2
				c-5.1,0.4-10.4,0.8-15.7,1.4C77.1,107.1,73.6,107.3,70.4,107.3z M48.6,103.7c2,0.6,14.3,4,32.2,2.2c5.2-0.5,10.6-1,15.7-1.4
				c17.3-1.4,33.6-2.7,42.6-8c-1.1-28.8-22.3-45.2-24.2-46.6c-12,0.6-39.2,2.1-60.5,3.2C53.7,57.1,47.7,92.8,48.6,103.7z"></path>
		</g>
	</g>
	<g>
		<g>
			<path d="M8.9,119.3c0,0,0.2,1.5,3.4,4.6c3.3,3.1,4.6,3.6,9.3,6.2c3.5,2,8.4,2.5,12.2,3.2
				c8.2,1.6,16.4,2.6,24.7,3.3c20,1.7,39.4,0.2,58.9-4.3c8.4-1.9,16.8-4,25.1-6.4c3.7-1.1,7.5-1.7,10.8-3.6c3.9-2.2,6-7.2,10.1-8.8
				c3.6-1.4,2.7,0,2.2,2.8c-0.4,2.8-5.2,11.4-8,12.9c-10,5.6-22.4,8.5-33.4,11c-20.9,4.8-42.8,5.4-64.2,4.9
				c-15.6-0.3-39.2-1.7-50.3-14.8c0,0-4.9-5.7-4.9-10.9c0-5.2,0.9-4.1,0.9-4.1L8.9,119.3z" style="fill:#D1D1D1;"></path>
			<path d="M71.9,145.7c-4,0-8-0.1-11.8-0.1c-17.9-0.4-39.9-2.4-50.6-14.9c-0.2-0.2-5-5.9-4.9-11.1c0-3.7,0.5-4.4,0.9-4.5
				c0.3-0.1,0.5,0,0.6,0.2l3.1,4l0,0.1c0,0.1,0.3,1.5,3.3,4.4c2.6,2.5,4,3.3,6.8,4.8c0.7,0.4,1.5,0.8,2.4,1.4
				c2.7,1.6,6.4,2.2,9.7,2.7c0.8,0.1,1.7,0.3,2.4,0.4c7.8,1.5,15.8,2.5,24.7,3.3c19.7,1.6,39,0.3,58.8-4.2
				c9.3-2.1,17.5-4.2,25.1-6.4c0.9-0.3,1.9-0.5,2.8-0.8c2.7-0.7,5.5-1.4,7.9-2.8c1.7-1,3.1-2.6,4.5-4.1c1.7-1.9,3.4-3.8,5.7-4.7
				c1.6-0.6,2.4-0.7,2.8-0.4c0.5,0.4,0.3,1.2,0.1,2.3c-0.1,0.4-0.2,0.8-0.2,1.2c-0.5,3-5.3,11.6-8.2,13.2
				c-10.2,5.6-23.1,8.6-33.5,11.1C106.9,144.8,88.6,145.7,71.9,145.7z M5.7,115.8c-0.1,0.3-0.4,1.1-0.4,3.8c0,5,4.7,10.6,4.8,10.6
				c10.5,12.3,32.3,14.3,50.1,14.7c19.5,0.4,42.4,0.2,64.1-4.9c10.3-2.4,23.2-5.4,33.3-11c2.6-1.5,7.4-10,7.9-12.7
				c0.1-0.5,0.2-0.9,0.2-1.3c0.1-0.7,0.3-1.5,0.1-1.6c-0.1-0.1-0.5-0.2-2.1,0.5c-2.2,0.9-3.8,2.7-5.4,4.6c-1.4,1.6-2.8,3.2-4.7,4.3
				c-2.5,1.5-5.4,2.2-8.1,2.9c-0.9,0.2-1.9,0.5-2.8,0.7c-7.6,2.2-15.8,4.3-25.1,6.4c-19.9,4.5-39.2,5.9-59,4.3
				c-8.9-0.7-17-1.8-24.7-3.3c-0.8-0.1-1.6-0.3-2.4-0.4c-3.3-0.6-7.1-1.2-9.9-2.8c-0.9-0.5-1.7-1-2.4-1.4c-2.8-1.6-4.3-2.4-6.9-4.9
				c-2.9-2.8-3.4-4.3-3.5-4.7L5.7,115.8z"></path>
		</g>
		<path d="M74,142.7c-7.5,0-14.6-0.4-21.4-1.1c-10.2-1.1-23-2.5-33.8-7.4c-1.5-0.7-3.1-1.8-4.5-2.8l-0.8-0.6
			c-1.2-0.8-2.1-1.9-2.9-2.9c-0.8-1-1.6-2-2.7-2.7c-0.3-0.2-0.4-0.6-0.2-0.9c0.2-0.3,0.6-0.4,0.9-0.2c1.2,0.8,2.1,1.9,3,2.9
			c0.8,1,1.6,2,2.6,2.7l0.8,0.6c1.4,1,2.9,2,4.3,2.6c10.6,4.8,23.3,6.2,33.4,7.3c12,1.3,24.9,1.5,39.6,0.4
			c19.5-1.4,38.7-6.6,55.2-11.5c4.1-1.2,9.9-4.1,12.9-8.2c0.2-0.3,0.6-0.3,0.9-0.1c0.3,0.2,0.3,0.6,0.1,0.9
			c-3.2,4.3-9.3,7.4-13.6,8.6c-16.5,4.9-35.8,10.2-55.5,11.6C85.9,142.5,79.8,142.7,74,142.7z" style="fill:#FFFFFF;"></path>
	</g>
	<g>
		<g>
			<circle r="13.2" cy="94.2" cx="25.3" style="fill:#D1D1D1;"></circle>
			<path d="M25.3,107.7c-7.4,0-13.5-6.1-13.5-13.5s6.1-13.5,13.5-13.5s13.5,6.1,13.5,13.5S32.7,107.7,25.3,107.7z M25.3,81.3
				c-7.1,0-12.8,5.7-12.8,12.8S18.2,107,25.3,107s12.8-5.7,12.8-12.8S32.3,81.3,25.3,81.3z"></path>
		</g>
		<g>
			<circle r="11.1" cy="94.2" cx="25.3" style="fill:#949494;"></circle>
			<path d="M25.3,105.6c-6.3,0-11.4-5.1-11.4-11.4S19,82.8,25.3,82.8c6.3,0,11.4,5.1,11.4,11.4S31.6,105.6,25.3,105.6z M25.3,83.4
				c-5.9,0-10.7,4.8-10.7,10.7c0,5.9,4.8,10.7,10.7,10.7S36,100.1,36,94.2C36,88.3,31.2,83.4,25.3,83.4z"></path>
		</g>
		<g>
			<path d="M29.2,94.4c-0.5-0.4-1.1-0.5-2-0.2c-0.7,0.2-1.2,0.9-2,0.9c-0.7,0-1.3-0.4-1.9-0.6
				c-0.4-0.1-1.3-0.6-1.7-0.6c-0.7,0.1-0.9,1.3-1,1.9c-0.2,1.3-0.2,3.7,1,4.5c1,0.7,2-0.2,2.9-0.5c0.8-0.2,1.3,0.2,2.1,0.3
				c1,0.2,2-0.1,2.7-0.9C30.5,97.9,30.5,95.4,29.2,94.4z" style="fill:#595959;"></path>
			<g>
				<path d="M20.3,89.9c-8.3-0.4-3.4,13.5-0.1,12.1C22.2,101.1,23.3,90.7,20.3,89.9z" style="fill:#DEDEDE;"></path>
				<path d="M19.7,102.4c-0.6,0-1.2-0.3-1.7-0.9c-2-2-3.3-6.8-2.1-9.6c0.5-1.2,1.7-2.5,4.4-2.4l0.1,0
					c1.1,0.3,1.9,1.9,2,4.3c0.2,3.4-0.6,7.8-2.1,8.4C20.2,102.4,20,102.4,19.7,102.4z M20,90.2c-1.7,0-2.8,0.7-3.4,2
					c-1.1,2.5,0.2,7.1,2,8.9c0.4,0.4,1,0.8,1.6,0.6c0.9-0.4,1.9-4.2,1.7-7.7c-0.1-2.1-0.7-3.4-1.5-3.7C20.2,90.2,20.1,90.2,20,90.2z" style="fill:#787878;"></path>
			</g>
			<g>
				<path d="M31.7,90.8c-3.8-0.2-5,10.3-1.8,10.9c2.9,0.5,5.3-5.1,5-7.7C34.7,92.3,33.6,91.1,31.7,90.8z" style="fill:#DEDEDE;"></path>
				<path d="M30.2,102.1c-0.1,0-0.3,0-0.4,0c-1.8-0.3-2.3-3.1-2-5.7c0.3-2.8,1.6-5.8,3.8-5.8c0,0,0.1,0,0.1,0
					l0,0c2,0.3,3.3,1.5,3.5,3.5c0.2,1.9-0.9,5.3-2.8,7.1C31.8,101.7,31,102.1,30.2,102.1z M31.6,91.2c-1.7,0-2.8,2.6-3.1,5.2
					c-0.3,2.3,0.2,4.7,1.5,5c0.7,0.1,1.4-0.2,2.1-0.8c1.7-1.6,2.7-4.8,2.5-6.5C34.4,92.4,33.4,91.4,31.6,91.2
					C31.6,91.2,31.6,91.2,31.6,91.2z" style="fill:#787878;"></path>
			</g>
			<g>
				<path d="M26.4,85.4c-0.4-0.1-0.7-0.2-1.1-0.2c-1.3-0.1-3.4,0.6-4,1.9c-0.9,2.2,1.3,2.4,2.7,2.7
					c1.3,0.3,2.9,1.1,4.1,0.4c1-0.5,1.4-1.7,0.9-2.7C28.4,86.6,27.5,85.8,26.4,85.4z" style="fill:#DEDEDE;"></path>
				<path d="M27.1,90.8c-0.7,0-1.5-0.2-2.1-0.4c-0.3-0.1-0.7-0.2-1-0.3l-0.4-0.1c-1-0.2-2.2-0.4-2.6-1.3
					c-0.3-0.5-0.2-1.1,0.1-1.8c0.6-1.5,2.9-2.2,4.3-2.1c0.4,0,0.8,0.1,1.2,0.2h0c1.2,0.4,2.2,1.3,2.8,2.3c0.3,0.5,0.4,1.1,0.2,1.7
					c-0.2,0.6-0.6,1.2-1.2,1.5C27.9,90.8,27.5,90.8,27.1,90.8z M25.1,85.5c-1.2,0-3,0.6-3.4,1.7c-0.2,0.5-0.3,1-0.1,1.3
					c0.3,0.6,1.3,0.7,2.1,0.9l0.4,0.1c0.3,0.1,0.7,0.2,1,0.3c1,0.3,2.1,0.6,2.9,0.2c0.4-0.2,0.7-0.6,0.9-1c0.1-0.4,0.1-0.8-0.1-1.2
					c-0.5-0.9-1.4-1.6-2.4-2c-0.3-0.1-0.7-0.2-1-0.2C25.2,85.5,25.1,85.5,25.1,85.5z" style="fill:#787878;"></path>
			</g>
			<g>
				<path d="M23.7,92.6c-0.2,0-0.3,0-0.5,0c-0.6,0.1-0.8,0.6-0.8,1.1c0,1,0.9,2.6,2.1,1.8
					c0.5-0.3,0.6-0.9,0.5-1.5C24.9,93.3,24.4,92.7,23.7,92.6z" style="fill:#DEDEDE;"></path>
				<path d="M23.9,96c-0.2,0-0.4-0.1-0.6-0.2c-0.7-0.4-1.2-1.4-1.2-2.2c0-0.8,0.4-1.3,1-1.5
					c0.2,0,0.4,0,0.6,0l0,0c0.8,0.1,1.4,0.8,1.6,1.7c0.2,0.8-0.1,1.4-0.6,1.8C24.5,96,24.2,96,23.9,96z M23.5,92.9
					c-0.1,0-0.1,0-0.2,0c-0.4,0.1-0.5,0.5-0.5,0.8c0,0.5,0.3,1.3,0.8,1.6c0.2,0.1,0.5,0.1,0.7-0.1c0.5-0.3,0.4-0.9,0.3-1.1
					c-0.1-0.5-0.5-1.1-1-1.2l0,0C23.6,92.9,23.6,92.9,23.5,92.9z" style="fill:#787878;"></path>
			</g>
			<g>
				<path d="M27.7,92.9c-0.1-0.1-0.2-0.2-0.4-0.3c-0.5-0.3-1,0-1.3,0.4c-0.6,0.8-0.8,2.6,0.6,2.7
					c0.6,0,1-0.4,1.3-0.9C28.1,94.3,28.1,93.5,27.7,92.9z" style="fill:#DEDEDE;"></path>
				<path d="M26.6,96.1c0,0-0.1,0-0.1,0c-0.6,0-1-0.3-1.2-0.8c-0.3-0.8-0.1-1.8,0.4-2.4
					c0.5-0.6,1.1-0.8,1.7-0.5c0.2,0.1,0.4,0.2,0.5,0.4c0.5,0.6,0.6,1.5,0.2,2.4C27.8,95.7,27.2,96.1,26.6,96.1z M26.9,92.9
					c-0.3,0-0.5,0.2-0.6,0.4c-0.3,0.4-0.5,1.3-0.3,1.7c0.1,0.2,0.3,0.4,0.6,0.4c0.6,0,0.9-0.5,1-0.7c0.2-0.5,0.3-1.2-0.1-1.6l0,0
					c-0.1-0.1-0.2-0.2-0.3-0.2C27,92.9,26.9,92.9,26.9,92.9z" style="fill:#787878;"></path>
			</g>
			<g>
				<path d="M28.9,102.6c-0.2-0.4-0.6-0.7-1.5-0.8c-1.4-0.2-2.8,0.3-4.2,0c-1.2-0.2-2,0.6-0.8,1.4
					c1.1,0.7,3.2,0.8,4.5,0.8C28.4,104.1,29.1,103.3,28.9,102.6z" style="fill:#DEDEDE;"></path>
				<path d="M26.5,104.4c-1.3,0-3.2-0.1-4.3-0.9c-0.9-0.6-0.8-1.2-0.7-1.4c0.2-0.5,0.9-0.8,1.7-0.6
					c0.6,0.1,1.3,0,2,0c0.7-0.1,1.4-0.1,2.2,0c0.9,0.1,1.5,0.5,1.7,1l0,0c0.1,0.3,0.1,0.7-0.1,1c-0.4,0.6-1.2,0.9-2.1,0.9
					C26.8,104.4,26.6,104.4,26.5,104.4z M22.8,102.2c-0.4,0-0.6,0.1-0.7,0.2c0,0.1,0.1,0.3,0.4,0.6c1.1,0.7,3.4,0.8,4.3,0.7
					c0.9,0,1.4-0.3,1.6-0.6c0.1-0.1,0.1-0.3,0-0.4c-0.1-0.3-0.6-0.5-1.2-0.6c-0.6-0.1-1.3,0-2,0c-0.7,0.1-1.5,0.1-2.2,0
					C23,102.2,22.9,102.2,22.8,102.2z" style="fill:#787878;"></path>
			</g>
		</g>
	</g>
	<g>
		<g>
			<circle r="11.8" cy="84.9" cx="154.9" style="fill:#D1D1D1;"></circle>
			<path d="M154.9,97.1c-6.7,0-12.2-5.5-12.2-12.2c0-6.7,5.5-12.2,12.2-12.2s12.2,5.5,12.2,12.2C167.1,91.7,161.6,97.1,154.9,97.1z
				 M154.9,73.4c-6.3,0-11.5,5.2-11.5,11.5c0,6.3,5.2,11.5,11.5,11.5s11.5-5.2,11.5-11.5C166.4,78.6,161.2,73.4,154.9,73.4z"></path>
		</g>
		<g>
			<circle r="9.9" cy="84.9" cx="154.9" style="fill:#949494;"></circle>
			<path d="M154.9,95.1c-5.6,0-10.2-4.6-10.2-10.2c0-5.6,4.6-10.2,10.2-10.2c5.6,0,10.2,4.6,10.2,10.2
				C165.1,90.6,160.5,95.1,154.9,95.1z M154.9,75.4c-5.2,0-9.5,4.3-9.5,9.5c0,5.2,4.3,9.5,9.5,9.5s9.5-4.3,9.5-9.5
				C164.4,79.7,160.1,75.4,154.9,75.4z"></path>
		</g>
		<g>
			<path d="M158.4,84.1c-0.4-0.3-1-0.4-1.7-0.1c-0.6,0.2-1,0.8-1.6,0.9c-0.6,0.1-1.1-0.3-1.7-0.4
				c-0.3-0.1-1.2-0.5-1.5-0.4c-0.6,0.1-0.7,1.2-0.7,1.6c-0.1,1.1,0,3.2,1.1,3.8c0.9,0.6,1.7-0.3,2.5-0.6c0.7-0.3,1.1,0.1,1.8,0.2
				c0.9,0.1,1.7-0.2,2.3-0.9C159.6,87,159.5,84.8,158.4,84.1z" style="fill:#595959;"></path>
			<g>
				<path d="M150.5,80.6c-7.1,0.1-2.2,11.8,0.6,10.4C152.7,90.2,153,81.2,150.5,80.6z" style="fill:#DEDEDE;"></path>
				<path d="M150.6,91.5c-0.5,0-1-0.2-1.5-0.7c-1.8-1.6-3.3-5.7-2.3-8.2c0.4-1,1.3-2.3,3.7-2.3l0.1,0
					c1.3,0.3,1.8,2.1,2,3.7c0.3,2.5,0,6.7-1.4,7.4C151,91.4,150.8,91.5,150.6,91.5z M150.4,81c-1.6,0-2.6,0.7-3,1.9
					c-0.8,2.2,0.5,6,2.1,7.5c0.4,0.3,0.9,0.6,1.3,0.4c0.8-0.4,1.4-3.7,1-6.7C151.7,82.3,151.1,81.2,150.4,81z" style="fill:#787878;"></path>
			</g>
			<g>
				<path d="M160.3,80.8c-3.3,0-3.7,9.1-1,9.4c2.5,0.3,4.3-4.7,3.9-6.9C162.9,82,162,81,160.3,80.8z" style="fill:#DEDEDE;"></path>
				<path d="M159.5,90.6c-0.1,0-0.2,0-0.2,0c-1.6-0.2-2.2-2.6-2.1-4.9c0.1-2.6,1.1-5.2,3.1-5.3l0,0
					c1.8,0.2,2.9,1.2,3.2,2.8c0.3,1.6-0.5,4.7-2,6.3C160.9,90.3,160.2,90.6,159.5,90.6z M160.2,81.2c-1.4,0-2.3,2.3-2.4,4.6
					c-0.1,2,0.4,4,1.5,4.1c0.6,0,1.1-0.2,1.7-0.8c1.3-1.4,2.1-4.2,1.8-5.7C162.6,82.1,161.7,81.3,160.2,81.2z" style="fill:#787878;"></path>
			</g>
			<g>
				<path d="M155.4,76.5c-0.3-0.1-0.6-0.1-0.9-0.1c-1.1,0-2.9,0.7-3.3,1.9c-0.7,2,1.2,2,2.5,2.2
					c1.1,0.2,2.5,0.8,3.5,0.2c0.8-0.5,1.1-1.6,0.6-2.4C157.3,77.4,156.4,76.7,155.4,76.5z" style="fill:#DEDEDE;"></path>
				<path d="M156.1,81.2c-0.6,0-1.1-0.1-1.7-0.3c-0.3-0.1-0.6-0.1-0.8-0.2l-0.4-0.1c-0.9-0.1-1.9-0.2-2.3-1
					c-0.3-0.4-0.3-1,0-1.6c0.5-1.4,2.4-2.1,3.6-2.1c0,0,0,0,0,0c0.3,0,0.7,0.1,1,0.1l0,0c1,0.3,2,1,2.6,1.8c0.3,0.4,0.4,1,0.3,1.5
					c-0.1,0.6-0.5,1-1,1.3C157,81.1,156.6,81.2,156.1,81.2z M154.5,76.7c-1,0-2.6,0.6-3,1.6c-0.2,0.5-0.2,0.8,0,1
					c0.3,0.4,1.1,0.6,1.9,0.7l0.4,0.1c0.3,0,0.6,0.1,0.9,0.2c0.9,0.2,1.8,0.4,2.4,0c0.3-0.2,0.6-0.5,0.7-0.9c0.1-0.3,0-0.7-0.2-1
					c-0.5-0.7-1.3-1.3-2.2-1.5h0C155,76.7,154.8,76.7,154.5,76.7C154.5,76.7,154.5,76.7,154.5,76.7z" style="fill:#787878;"></path>
			</g>
			<g>
				<path d="M153.5,82.8c-0.1,0-0.3,0-0.4,0c-0.5,0.1-0.6,0.6-0.6,1c0.1,0.9,0.9,2.1,1.9,1.4
					c0.4-0.3,0.5-0.8,0.3-1.3C154.6,83.3,154.1,82.8,153.5,82.8z" style="fill:#DEDEDE;"></path>
				<path d="M153.8,85.8c-0.2,0-0.3,0-0.5-0.1c-0.7-0.3-1.1-1.2-1.2-1.8c0-0.7,0.3-1.2,0.8-1.4
					c0.2,0,0.4-0.1,0.5,0h0c0.7,0.1,1.3,0.6,1.5,1.4c0.2,0.7,0,1.3-0.5,1.6C154.4,85.7,154.1,85.8,153.8,85.8z M153.4,83.1
					c-0.1,0-0.1,0-0.2,0c-0.3,0.1-0.3,0.4-0.3,0.7c0,0.5,0.4,1.1,0.8,1.3c0.2,0.1,0.4,0.1,0.6-0.1c0.4-0.3,0.3-0.8,0.2-0.9
					C154.3,83.6,154,83.2,153.4,83.1L153.4,83.1C153.5,83.1,153.4,83.1,153.4,83.1z" style="fill:#787878;"></path>
			</g>
			<g>
				<path d="M156.9,82.9c-0.1-0.1-0.2-0.2-0.4-0.2c-0.4-0.2-0.8,0.1-1.1,0.4c-0.5,0.7-0.6,2.3,0.6,2.3
					c0.5,0,0.9-0.4,1.1-0.8C157.4,84,157.4,83.3,156.9,82.9z" style="fill:#DEDEDE;"></path>
				<path d="M156.1,85.7C156.1,85.7,156.1,85.7,156.1,85.7c-0.5,0-0.9-0.2-1.1-0.6c-0.3-0.6-0.2-1.6,0.2-2.2
					c0.4-0.6,1-0.8,1.5-0.6c0.2,0.1,0.3,0.2,0.5,0.3l0,0c0.5,0.5,0.6,1.3,0.3,2.1C157.2,85.3,156.7,85.7,156.1,85.7z M156.3,82.9
					c-0.2,0-0.4,0.2-0.5,0.4c-0.3,0.4-0.4,1.1-0.2,1.5c0.1,0.2,0.3,0.3,0.5,0.3c0,0,0,0,0,0c0.5,0,0.7-0.5,0.7-0.6
					c0.2-0.4,0.2-1-0.2-1.3l0,0c-0.1-0.1-0.2-0.1-0.3-0.2C156.4,82.9,156.3,82.9,156.3,82.9z" style="fill:#787878;"></path>
			</g>
			<g>
				<path d="M158.5,91.1c-0.1-0.3-0.6-0.5-1.3-0.6c-1.2-0.1-2.4,0.4-3.6,0.3c-1.1-0.1-1.7,0.6-0.6,1.3
					c1,0.6,2.8,0.5,3.9,0.4C158.1,92.4,158.8,91.7,158.5,91.1z" style="fill:#DEDEDE;"></path>
				<path d="M155.6,92.9c-1,0-2.1-0.1-2.8-0.5c-0.8-0.5-0.8-1-0.7-1.2c0.2-0.5,0.8-0.7,1.5-0.7
					c0.6,0.1,1.1,0,1.7-0.1c0.6-0.1,1.2-0.2,1.9-0.1c0.8,0.1,1.4,0.3,1.6,0.8c0.1,0.3,0.1,0.6,0,0.9c-0.3,0.5-1,0.9-1.8,0.9
					C156.6,92.9,156.1,92.9,155.6,92.9z M153.4,91.1c-0.4,0-0.6,0.1-0.6,0.2c0,0,0.1,0.2,0.4,0.4c0.9,0.6,2.9,0.5,3.7,0.4
					c0.7-0.1,1.1-0.4,1.3-0.6c0.1-0.2,0-0.2,0-0.3l0,0c-0.1-0.2-0.4-0.4-1-0.4c-0.6,0-1.1,0-1.7,0.1c-0.6,0.1-1.3,0.2-1.9,0.1
					C153.5,91.1,153.4,91.1,153.4,91.1z" style="fill:#787878;"></path>
			</g>
		</g>
	</g>
	<g>
		<g>
			<path d="M44.2,106.9l-5.8,16.5l6.5,9.4c0,0,45.1,9,96.7-8.8l5.3-8.5L142,98.8c-0.5-1.6-2-2.7-3.7-2.5
				c-7.3,0.7-26.1,4.5-45.8,6.3c-18.2,1.7-37.4,1.5-44.4,1.5C46.3,104.1,44.7,105.2,44.2,106.9z" style="fill:#D1D1D1;"></path>
			<path d="M74.1,135.4c-17.7,0-29.1-2.2-29.3-2.2l-0.1,0l-6.7-9.7l5.9-16.6c0.6-1.8,2.3-3,4.3-3c0.9,0,2.1,0,3.4,0
				c8.8,0,25.2-0.1,40.9-1.5c12.7-1.2,25-3.1,34-4.5c5.1-0.8,9.2-1.4,11.8-1.7c1.8-0.2,3.5,1,4,2.7l4.9,16.9l-5.4,8.7l-0.1,0
				C116,133.2,91.9,135.4,74.1,135.4z M45,132.5c2.8,0.5,46.8,8.2,96.2-8.8l5.1-8.3l-4.8-16.6c-0.4-1.4-1.8-2.4-3.3-2.2
				c-2.6,0.3-6.6,0.9-11.8,1.7c-9,1.4-21.4,3.4-34.1,4.5c-15.8,1.4-32.2,1.5-41,1.5c-1.3,0-2.5,0-3.4,0c-1.6,0-3.1,1-3.6,2.6
				l-5.8,16.3L45,132.5z"></path>
		</g>
		<g>
			<path d="M48.6,107.8l-7.1,15.9l4.3,7c0,0,45.8,6.5,93.7-8l4.6-7.7l-3.8-14.8c0,0-20,3.9-46.7,6.1
				C79.8,107.4,64.2,107.5,48.6,107.8z" style="fill:#6E6E6E;"></path>
			<path d="M71.8,132.4c-15.6,0-25.8-1.4-26-1.4l-0.2,0l-4.5-7.3l7.2-16.2l0.2,0c2.8-0.1,5.7-0.1,8.5-0.2c13-0.2,25.2-0.4,36.5-1.4
				c26.4-2.2,46.5-6.1,46.7-6.1l0.3-0.1l3.9,15.3l-4.7,8l-0.1,0C114.4,130.6,89.6,132.4,71.8,132.4z M46,130.3
				c3,0.4,47.4,5.8,93.3-7.9l4.4-7.5l-3.7-14.4c-2.7,0.5-21.8,4-46.5,6.1c-11.3,1-23.6,1.2-36.5,1.4c-2.8,0-5.5,0.1-8.3,0.2
				l-6.9,15.5L46,130.3z"></path>
		</g>
		<g>
			<path d="M67.3,131c-14.7,0-23.7-1.1-23.9-1.1c-0.3,0-0.6-0.4-0.5-0.7c0-0.3,0.4-0.6,0.7-0.5
				c0.4,0.1,44.2,5.5,98-7.9c0.3-0.1,0.7,0.1,0.8,0.5c0.1,0.3-0.1,0.7-0.5,0.8C112.1,129.3,85.4,131,67.3,131z" style="fill:#D1D1D1;"></path>
			<path d="M66.2,127.9c-15.3,0-24.6-1.1-24.8-1.1c-0.3,0-0.6-0.4-0.5-0.7c0-0.3,0.4-0.6,0.7-0.5
				c0.5,0.1,46,5.5,102-7.9c0.3-0.1,0.7,0.1,0.8,0.5c0.1,0.3-0.1,0.7-0.5,0.8C112.8,126.2,85,127.9,66.2,127.9z" style="fill:#D1D1D1;"></path>
			<path d="M65.9,124.8c-15.1,0-24.2-1.1-24.5-1.1c-0.3,0-0.6-0.4-0.6-0.7c0-0.3,0.4-0.6,0.7-0.6
				c0.5,0.1,46.4,5.4,102.4-8.1c0.3-0.1,0.7,0.1,0.8,0.5c0.1,0.3-0.1,0.7-0.5,0.8C113,123.1,84.8,124.8,65.9,124.8z" style="fill:#D1D1D1;"></path>
			<path d="M66.2,121.8c-15.3,0-24.6-1.1-24.8-1.1c-0.3,0-0.6-0.4-0.5-0.7c0-0.3,0.4-0.6,0.7-0.5
				c0.5,0.1,46,5.5,102-7.9c0.3-0.1,0.7,0.1,0.8,0.5c0.1,0.3-0.1,0.7-0.5,0.8C112.8,120.1,85,121.8,66.2,121.8z" style="fill:#D1D1D1;"></path>
			<path d="M66.5,118.8c-11,0-19-0.6-23.1-1c-0.3,0-0.6-0.3-0.6-0.7c0-0.3,0.3-0.6,0.7-0.6
				c11.1,1,51,3.6,100-8.2c0.3-0.1,0.7,0.1,0.8,0.5c0.1,0.3-0.1,0.7-0.5,0.8C112.8,117,85.3,118.8,66.5,118.8z" style="fill:#D1D1D1;"></path>
			<path d="M66.3,115.7c-10.4,0-18.1-0.5-22.1-0.9c-0.3,0-0.6-0.3-0.6-0.7c0-0.3,0.3-0.6,0.7-0.6
				c10.9,1,50.2,3.3,97.7-7.9c0.3-0.1,0.7,0.1,0.8,0.5c0.1,0.3-0.1,0.7-0.5,0.8C111.8,114,84.8,115.7,66.3,115.7z" style="fill:#D1D1D1;"></path>
			<path d="M66.5,112.6c-9.1,0-16.2-0.4-20.8-0.8c-0.3,0-0.6-0.3-0.6-0.7c0-0.3,0.3-0.6,0.7-0.6
				c13.9,1.1,50.9,2.5,95.8-7.9c0.3-0.1,0.7,0.1,0.8,0.5c0.1,0.3-0.1,0.7-0.5,0.8C111.7,111,85,112.6,66.5,112.6z" style="fill:#D1D1D1;"></path>
			<path d="M66.3,109.6c-8.6,0-15.4-0.4-19.8-0.7c-0.3,0-0.6-0.3-0.6-0.7c0-0.3,0.3-0.6,0.7-0.6
				c13.7,1,50.2,2.3,94.1-7.8c0.3-0.1,0.7,0.1,0.8,0.5c0.1,0.3-0.1,0.7-0.5,0.8C111.1,108,84.6,109.6,66.3,109.6z" style="fill:#D1D1D1;"></path>
		</g>
	</g>
	<g>
		<g>
			<circle r="6.3" cy="117.4" cx="26.2" style="fill:#DEDEDE;"></circle>
			<path d="M26.2,124c-3.6,0-6.6-3-6.6-6.6c0-3.6,3-6.6,6.6-6.6c3.6,0,6.6,3,6.6,6.6C32.8,121.1,29.9,124,26.2,124z M26.2,111.5
				c-3.3,0-5.9,2.7-5.9,5.9c0,3.3,2.7,5.9,5.9,5.9s5.9-2.7,5.9-5.9C32.2,114.1,29.5,111.5,26.2,111.5z"></path>
		</g>
		<path d="M21.8,117.9c0,0.6,0.1,1.1,0.2,1.5c0.7,1.7,3.9,4,5.5,1.8c1.2-1.7-1.4-1.9-2-2.6
			c-0.9-1,0.4-3.1-1.1-3.5C22.6,114.6,21.8,116.4,21.8,117.9z" style="fill:#949494;"></path>
		<g>
			<path d="M28.7,113.4c-1.6,0-3.3,2.3-2.8,3.7c0.4,1.3,1.9,1.7,3.1,1.2c1.3-0.5,1.5-1.5,1.3-2.7
				c-0.2-0.9-0.3-2-1.3-2.2C28.8,113.4,28.7,113.4,28.7,113.4z" style="fill:#FAFAFA;"></path>
			<path d="M27.9,118.8c-0.4,0-0.8-0.1-1.2-0.3c-0.6-0.3-1-0.8-1.2-1.4c-0.2-0.7,0-1.7,0.7-2.6
				c0.7-0.9,1.6-1.5,2.5-1.5h0c0.1,0,0.1,0,0.2,0c1.2,0.1,1.4,1.3,1.6,2.2l0,0.2c0.2,1,0.2,2.4-1.5,3.1
				C28.7,118.8,28.3,118.8,27.9,118.8z M28.7,113.8c-0.6,0-1.4,0.5-1.9,1.2c-0.5,0.7-0.7,1.5-0.6,2c0.2,0.6,0.6,0.8,0.9,1
				c0.5,0.2,1.2,0.3,1.8,0c1-0.4,1.3-1.1,1.1-2.3l0-0.2c-0.2-1-0.3-1.6-1-1.7C28.8,113.8,28.7,113.8,28.7,113.8L28.7,113.8z" style="fill:#A1A1A1;"></path>
		</g>
	</g>
	<g>
		<g>
			<circle r="5.8" cy="107.3" cx="154.5" style="fill:#DEDEDE;"></circle>
			<path d="M154.5,113.5c-0.5,0-1-0.1-1.5-0.2c-3.3-0.8-5.3-4.2-4.5-7.5c0.4-1.6,1.4-3,2.8-3.8c1.4-0.8,3.1-1.1,4.7-0.7
				c1.6,0.4,3,1.4,3.8,2.8c0.8,1.4,1.1,3.1,0.7,4.7l0,0c-0.4,1.6-1.4,3-2.8,3.8C156.7,113.2,155.6,113.5,154.5,113.5z M154.4,101.8
				c-1,0-1.9,0.3-2.8,0.8c-1.3,0.8-2.2,2-2.5,3.4c-0.7,2.9,1,5.9,4,6.7c1.4,0.4,2.9,0.1,4.2-0.6c1.3-0.8,2.2-2,2.5-3.4v0
				c0.4-1.4,0.1-2.9-0.6-4.2c-0.8-1.3-2-2.2-3.4-2.5C155.4,101.8,154.9,101.8,154.4,101.8z"></path>
		</g>
		<path d="M150.3,106.7c-0.1,0.5-0.2,1-0.1,1.4c0.2,1.7,2.6,4.5,4.6,2.9c1.5-1.3-0.8-2-1.2-2.9
			c-0.6-1.1,1.1-2.8-0.2-3.4C151.8,103.9,150.7,105.3,150.3,106.7z" style="fill:#949494;"></path>
		<g>
			<path d="M157.6,104.2c-1.4-0.4-3.5,1.3-3.4,2.7c0.1,1.3,1.4,2,2.5,1.8c1.3-0.2,1.7-1,1.8-2.2
				c0.1-0.8,0.2-1.9-0.7-2.3C157.7,104.3,157.6,104.3,157.6,104.2z" style="fill:#FAFAFA;"></path>
			<path d="M156.3,109.1c-0.6,0-1.2-0.2-1.7-0.6c-0.5-0.4-0.8-0.9-0.8-1.6c0-0.7,0.4-1.6,1.2-2.2
				c0.8-0.7,1.8-1,2.6-0.8h0c0.1,0,0.1,0,0.2,0.1c1.1,0.4,1,1.6,1,2.4l0,0.2c-0.1,0.9-0.3,2.2-2.1,2.5
				C156.6,109.1,156.5,109.1,156.3,109.1z M157.2,104.5c-0.5,0-1.2,0.3-1.7,0.7c-0.6,0.5-1,1.1-1,1.6c0,0.5,0.3,0.9,0.5,1.1
				c0.4,0.3,1,0.5,1.6,0.4c1-0.1,1.4-0.7,1.5-1.9l0-0.2c0.1-0.9,0.1-1.5-0.5-1.7c0,0-0.1,0-0.1,0
				C157.4,104.5,157.3,104.5,157.2,104.5z" style="fill:#A1A1A1;"></path>
		</g>
	</g>
	<path d="M19.5,78.9c4.3-3.1,11.1-0.7,15.6,0.6c1.2,0.3,2.2,1.1,2.6-0.6c0.4-1.6-1.5-2.3-2.2-3.6
		c-1.4-2.3-0.3-5.5-0.1-7.9c0.2-2.7-0.7-10.5-5.1-8.6c-1.7,0.8-2.2,3-2.9,4.5c-1.1,2.4-2,4.8-3.1,7.2C23.3,73.1,19.3,76.3,19.5,78.9
		z" style="fill:#FF5454;"></path>
	<path d="M55,80.7c-0.5-0.3-0.9-0.8-1.1-1.8c-0.3-1.7,0.6-4.3,1-6c0.4-1.9,1.3-3.7,1.6-5.6
		c1.6,1.2,2.6,2.8,4.4,3.9c2.4,1.5,5.2,1.7,8,1.8c11.2,0.3,22.6-1.1,33.6-2.8c4.3-0.7,9.1-0.7,11.6-4.7c1.3-2.1,1.3-4.6,2.4-6.6
		c1.8,1.3,2.8,4.3,4.1,6.1c1,1.4,2,2.7,2.9,4.2c0.9,1.4,3.1,4.2,2.9,6c-2,1.1-4.5,0.5-6.7,0.5c-2.7,0.1-5.4,0.2-8.1,0.4
		c-5.2,0.3-10.4,0.7-15.6,0.7c-8.5,0-16.9,0.2-25.4,1.7c-2.4,0.4-4.8,0.8-7.2,1.2c-2,0.4-4.2,0.8-6,1.1C56.4,80.9,55.6,81,55,80.7z" style="fill:#FF5454;"></path>
	<path d="M52.4,90.6c-2.6,1.7-0.2,6.3,3.3,4.6c0.7-0.3,0.7-0.9,1.5-1.2c1.3-0.4,4.3,0.4,5.9,0.5
		c5.6,0.1,11.2-0.1,16.7-0.3c5.4-0.2,10.9,0.3,16.2-0.3c12.9-1.4,25.8-2.8,38.6-5.3c0.2,0,0.4-0.1,0.6-0.2c0.2-0.2,0.3-0.4,0.3-0.7
		c0.1-0.8,0.1-1.5,0-2.3c-0.1-0.3-0.1-0.7-0.4-0.9c-0.8-0.9-2.2-0.1-3.2,0.6c-4.6,3.5-10.1,3.8-15.7,3.9c-4.8,0.1-9.4,1.2-14.2,1.7
		c-10.9,1.1-22,0.9-33,0.9c-3,0-6,0.3-9,0c-2.2-0.2-5.2-2.1-7.3-1.3C52.7,90.4,52.6,90.5,52.4,90.6z" style="fill:#F64A4A;"></path>
</g>
</svg>
