<?xml version="1.0" encoding="utf-8"?>
<!-- Generator: Adobe Illustrator 26.5.0, SVG Export Plug-In . SVG Version: 6.00 Build 0)  -->
<svg version="1.1" id="레이어_5" xmlns="http://www.w3.org/2000/svg" xmlns:xlink="http://www.w3.org/1999/xlink" x="0px"
	 y="0px" viewBox="0 0 182 208" style="enable-background:new 0 0 182 208;" xml:space="preserve">
<g>
	<g>
		<path style="fill:#94E8BA;" d="M29.8,102.7c0,0-8.6-67.3,0-95c0,0,68.2-11.1,97.2-3.2c0,0,7.1,74.4,3.9,98.1l49.4,55.4L127,206.3
			l-47.8-49.1l-27.4,29.3L1.6,134.3L29.8,102.7z"/>
		<path d="M127,208c-0.4,0-0.8-0.2-1.2-0.5l-46.6-47.8l-26.3,28c-0.3,0.3-0.7,0.5-1.2,0.5l0,0c-0.5,0-0.9-0.2-1.2-0.5L0.5,135.5
			c-0.6-0.6-0.6-1.6,0-2.3l27.7-31.1c-1-7.8-8.1-68.4,0.1-94.9c0.2-0.6,0.7-1,1.3-1.1c2.8-0.5,68.9-11,97.9-3.1
			c0.7,0.2,1.1,0.7,1.2,1.4c0.3,3,6.9,73.4,4,97.8l48.9,54.9c0.3,0.3,0.4,0.7,0.4,1.2c0,0.4-0.2,0.8-0.5,1.1l-53.3,48.3
			C127.8,207.9,127.4,208,127,208z M79.2,155.6c0.4,0,0.8,0.2,1.2,0.5l46.7,47.9L178,158l-48.3-54.2c-0.3-0.4-0.5-0.8-0.4-1.3
			c2.9-21.7-3-87.1-3.8-96.6c-27-6.7-86,2-94.4,3.3c-7.9,27.6,0.3,92.6,0.4,93.3c0.1,0.5-0.1,1-0.4,1.3L3.9,134.3l47.9,49.9l26.3-28
			C78.3,155.8,78.7,155.7,79.2,155.6z"/>
	</g>
	<path d="M29.8,104.3c-0.4,0-0.8-0.1-1.1-0.4c-0.7-0.6-0.7-1.7-0.1-2.3c0.6-0.7,61.7-70.1,97.4-98.4c0.7-0.6,1.7-0.4,2.3,0.3
		c0.6,0.7,0.4,1.8-0.3,2.3c-35.5,28.1-96.4,97.2-97,97.9C30.8,104.1,30.3,104.3,29.8,104.3z"/>
	<path d="M79.2,158.9c-0.4,0-0.8-0.1-1.1-0.5c-0.6-0.6-0.7-1.7,0-2.3l50.7-53.5c-15.9-17.1-99.1-93-100-93.7
		c-0.7-0.6-0.7-1.7-0.1-2.3c0.6-0.7,1.6-0.7,2.3-0.1c3.6,3.3,88.2,80.5,101.2,95.1c0.6,0.6,0.6,1.6,0,2.3l-51.7,54.6
		C80.1,158.8,79.6,158.9,79.2,158.9z"/>
</g>
</svg>
