<?xml version="1.0" encoding="utf-8"?>
<!-- Generator: Adobe Illustrator 24.1.1, SVG Export Plug-In . SVG Version: 6.00 Build 0)  -->
<svg version="1.1" id="Layer_1" xmlns="http://www.w3.org/2000/svg" xmlns:xlink="http://www.w3.org/1999/xlink" x="0px" y="0px"
	 viewBox="0 0 226.71 330" style="enable-background:new 0 0 226.71 330;" xml:space="preserve">
<g>
	<g>
		<path style="fill:#FFFFFF;" d="M135.7,241.56v39.5c0,0-2.93,0.73-6.83,0.73c-3.9,0-6.87-0.73-6.87-0.73v-39.5
			c0-2.6,6.37-4.73,8.97-4.73S135.7,238.96,135.7,241.56z"/>
		<path style="fill-rule:evenodd;clip-rule:evenodd;fill:#009FF9;" d="M154.26,318.49c-3.47,3.97-9.13,3.3-13.8,3.3h-12.53v-0.1
			c-2.67-0.5-5.93-2.47-5.93-4.87v-35.77c0,0,2.97,0.73,6.87,0.73c3.9,0,6.83-0.73,6.83-0.73v15.03c1.3,0,2.73,0.07,4.43,0.4
			c0.07,0.03,0.33,0.1,0.33,0.1c6,1.3,11.2,5.3,14,10.77C155.96,310.32,156.63,315.76,154.26,318.49z"/>
	</g>
	<path d="M130.96,236.83c2.6,0,4.72,2.11,4.72,4.72v34.97v4.53v15.05c0.1,0,0.19,0,0.29,0c1.23,0,2.58,0.09,4.16,0.4
		c0.06,0.01,0.33,0.08,0.33,0.08c6,1.3,11.21,5.33,13.99,10.79c1.5,2.96,2.16,8.39-0.2,11.1c-2.61,2.99-6.46,3.36-10.19,3.36
		c-1.23,0-2.44-0.04-3.59-0.04h-4.78h-3.19h-3.41l-1.16-0.12c-2.65-0.49-5.91-2.46-5.91-4.84v-40.32h0v-34.97
		C122.01,238.94,128.36,236.83,130.96,236.83 M130.96,232.83c-2.74,0-12.95,2.18-12.95,8.72v34.97l0,40.32
		c0,4.61,4.74,7.96,9.19,8.77c0.1,0.02,0.21,0.03,0.31,0.04l1.16,0.12c0.14,0.01,0.27,0.02,0.41,0.02h3.41h3.19h4.78
		c0.55,0,1.11,0.01,1.68,0.02c0.63,0.01,1.27,0.02,1.92,0.02c4.49,0,9.57-0.56,13.21-4.73c3.77-4.32,2.71-11.69,0.76-15.54
		c-3.32-6.53-9.57-11.34-16.71-12.89l-0.26-0.06c-0.47-0.09-0.92-0.17-1.37-0.24v-11.32v-4.53v-34.97
		C139.68,236.74,135.77,232.83,130.96,232.83L130.96,232.83z"/>
</g>
<g>
	<g>
		<path style="fill:#FFFFFF;" d="M104.66,241.56v39.5c0,0-2.93,0.73-6.83,0.73S91,281.06,91,281.06v-39.5c0-2.6,2.1-4.73,4.7-4.73
			C98.3,236.82,104.66,238.96,104.66,241.56z"/>
		<path style="fill-rule:evenodd;clip-rule:evenodd;fill:#009FF9;" d="M104.66,281.06v35.77c0,2.4-3.27,4.37-5.9,4.87v0.1H86.2
			c-4.67,0-10.33,0.67-13.77-3.3c-2.4-2.73-1.73-8.17-0.23-11.13c2.8-5.47,8-9.47,14-10.77c0,0,0.27-0.07,0.33-0.1
			c1.7-0.33,3.13-0.4,4.47-0.4v-15.03c0,0,2.93,0.73,6.83,0.73S104.66,281.06,104.66,281.06z"/>
	</g>
	<path d="M95.7,236.83c2.6,0,8.95,2.11,8.95,4.72v34.97h0v40.32c0,2.37-3.26,4.35-5.91,4.84l-1.16,0.12h-3.41h-3.19H86.2
		c-1.15,0-2.37,0.04-3.59,0.04c-3.74,0-7.58-0.37-10.19-3.36c-2.37-2.71-1.71-8.14-0.2-11.1c2.78-5.47,8-9.5,13.99-10.79
		c0,0,0.28-0.06,0.33-0.08c1.58-0.31,2.93-0.4,4.16-0.4c0.1,0,0.2,0,0.29,0v-15.05v-4.53v-34.97
		C90.98,238.94,93.1,236.83,95.7,236.83 M95.7,232.83c-4.81,0-8.72,3.91-8.72,8.72v34.97v4.53v11.32c-0.4,0.06-0.81,0.13-1.22,0.21
		l-0.47,0.11c-7.09,1.54-13.34,6.35-16.66,12.88c-1.96,3.85-3.02,11.22,0.76,15.55c3.64,4.17,8.72,4.73,13.21,4.73
		c0.64,0,1.29-0.01,1.92-0.02c0.57-0.01,1.13-0.02,1.68-0.02h4.78h3.19h3.41c0.14,0,0.27-0.01,0.41-0.02l1.16-0.12
		c0.1-0.01,0.21-0.03,0.31-0.04c4.46-0.82,9.19-4.17,9.19-8.77v-40.32l0-34.97C108.66,235.01,98.45,232.83,95.7,232.83L95.7,232.83z
		"/>
</g>
<g>
	<path style="fill:#FFFFFF;" d="M155.46,73.45c-1.85,0.1-3.75,0.45-5.76,1.03c-1.65,0.47-3.26,1.19-4.79,1.96
		c-4.92,2.48-12.73,12.05-8.05,17.68c3.39,4.08,8.99-2.85,11.81-4.58c6.33-3.87,12.43,3.41,15.46,8.51
		c2.44,4.13,7.74,5.49,11.85,3.03c4.11-2.45,5.51-7.76,3.11-11.9c-2.98-5.14-7-9.86-12.2-12.85
		C163.04,74.12,159.38,73.23,155.46,73.45z"/>
	<path style="fill:#673101;" d="M164.2,92.17c0.7-0.03,1.33,0.22,1.89,0.56c-0.63-0.61-1.04-1.46-1.07-2.41
		c-0.05-1.93,1.47-3.53,3.37-3.6c0.89-0.02,1.69,0.32,2.32,0.86c-0.53-0.59-0.89-1.35-0.91-2.19c-0.05-1.93,1.46-3.54,3.38-3.59
		c0.17-0.01,0.33,0.06,0.5,0.08c3.08,3.44,4.98,6.58,5.41,7.31c2.4,4.14,1.01,9.45-3.11,11.91c-4.11,2.45-9.41,1.09-11.85-3.03
		c-0.72-1.21-1.74-2.62-2.9-3.96C161.81,93,162.89,92.2,164.2,92.17"/>
	<path d="M156.62,73.42c3.49,0,6.81,0.92,10.29,2.92c4.31,2.47,7.76,6.17,10.53,10.27c0.89,1.27,1.46,2.22,1.67,2.57
		c0.9,1.55,1.27,3.27,1.16,4.94c-0.18,2.78-1.69,5.43-4.26,6.97c-1.39,0.83-2.91,1.22-4.42,1.22c-2.95,0-5.82-1.52-7.44-4.26
		c0-0.01-0.01-0.02-0.02-0.03c-0.72-1.21-1.74-2.6-2.88-3.94c0.02-0.03,0.05-0.06,0.07-0.1c-2.42-2.95-5.56-5.54-8.94-5.54
		c-1.21,0-2.44,0.33-3.69,1.09c-2.2,1.34-6.08,5.84-9.29,5.84c-0.91,0-1.77-0.36-2.52-1.27c-4.68-5.63,3.13-15.21,8.05-17.68
		c1.53-0.77,3.14-1.49,4.79-1.96c2.01-0.57,3.91-0.92,5.76-1.03C155.85,73.43,156.23,73.42,156.62,73.42 M156.62,69.42
		C156.62,69.42,156.62,69.42,156.62,69.42c-0.46,0-0.92,0.01-1.39,0.04c-2.11,0.12-4.28,0.5-6.63,1.17
		c-1.66,0.47-3.41,1.18-5.49,2.23c-4.5,2.27-10.14,8.48-11.41,14.56c-0.74,3.52-0.01,6.72,2.08,9.25c1.47,1.77,3.41,2.71,5.6,2.71
		c3.7,0,6.9-2.72,9.47-4.9c0.71-0.6,1.51-1.28,1.91-1.53c0.56-0.34,1.08-0.5,1.6-0.5c1.45,0,3.36,1.24,5.3,3.44
		c0.14,0.29,0.32,0.56,0.54,0.81c0.99,1.15,1.87,2.35,2.48,3.38c0.02,0.03,0.04,0.07,0.06,0.1c2.21,3.75,6.38,6.13,10.83,6.13
		c2.27,0,4.51-0.62,6.47-1.79c3.61-2.15,5.93-5.94,6.2-10.14c0.17-2.52-0.42-5.02-1.69-7.21c-0.31-0.52-0.94-1.55-1.84-2.85
		c-3.39-5.03-7.38-8.9-11.82-11.46C164.86,70.55,160.84,69.42,156.62,69.42L156.62,69.42z"/>
</g>
<g>
	<path style="fill:#FFFFFF;" d="M105.44,61.89c1.61,0.9,3.17,2.05,4.72,3.45c1.27,1.15,2.41,2.5,3.44,3.86
		c3.33,4.38,6.15,16.41-0.53,19.42c-4.83,2.18-6.83-6.51-8.61-9.3c-3.99-6.26-12.67-2.4-17.63,0.86c-4,2.64-9.36,1.53-11.98-2.48
		c-2.62-4.01-1.54-9.39,2.43-12.06c4.93-3.31,10.62-5.79,16.6-6.19C98.33,59.16,102.01,59.97,105.44,61.89z"/>
	<path style="fill:#673101;" d="M89.37,74.87c-0.62-0.33-1.29-0.38-1.94-0.32c0.84-0.27,1.58-0.85,2.02-1.7
		c0.89-1.71,0.23-3.81-1.45-4.71c-0.79-0.41-1.66-0.46-2.46-0.25c0.73-0.3,1.39-0.82,1.78-1.57c0.89-1.71,0.24-3.82-1.46-4.71
		c-0.15-0.09-0.32-0.09-0.49-0.15c-4.28,1.74-7.36,3.73-8.07,4.19c-3.97,2.66-5.05,8.05-2.43,12.06c2.61,4.01,7.98,5.11,11.98,2.48
		c1.18-0.77,2.71-1.58,4.34-2.29C91.15,76.67,90.53,75.48,89.37,74.87"/>
	<path d="M95.64,59.4c3.68,0,6.83,0.83,9.79,2.49c1.61,0.9,3.17,2.05,4.72,3.45c1.27,1.15,2.41,2.5,3.44,3.86
		c3.33,4.38,6.15,16.41-0.53,19.42c-0.53,0.24-1.02,0.35-1.49,0.35c-3.78,0-5.53-7.16-7.12-9.64c-1.56-2.44-3.82-3.34-6.3-3.34
		c-2.28,0-4.74,0.76-7,1.8c0,0.04,0.02,0.08,0.02,0.12c-1.62,0.7-3.14,1.5-4.32,2.27c-0.01,0.01-0.02,0.01-0.02,0.02
		c-1.47,0.97-3.13,1.44-4.76,1.44c-2.81,0-5.57-1.38-7.22-3.91c-1.64-2.51-1.83-5.55-0.77-8.13c0.63-1.55,1.72-2.93,3.21-3.93
		c0.34-0.23,1.27-0.83,2.63-1.58c4.29-2.48,9.01-4.28,13.97-4.61C94.49,59.42,95.07,59.4,95.64,59.4 M95.64,55.4
		c-0.66,0-1.34,0.02-2.03,0.07c-5.11,0.34-10.39,2.07-15.7,5.14c-1.34,0.74-2.35,1.39-2.83,1.7c-2.13,1.43-3.75,3.41-4.71,5.76
		c-1.59,3.89-1.17,8.32,1.13,11.83c2.34,3.58,6.29,5.73,10.57,5.73c2.48,0,4.88-0.73,6.96-2.1c0,0,0.01,0,0.01-0.01v0
		c1-0.66,2.32-1.35,3.72-1.95c0.3-0.13,0.58-0.3,0.84-0.49c1.74-0.72,3.3-1.1,4.56-1.09c1.74,0,2.44,0.72,2.93,1.49
		c0.26,0.4,0.68,1.36,1.05,2.21c1.61,3.7,4.06,9.28,9.44,9.28c1.05,0,2.1-0.24,3.13-0.7c3-1.35,5.05-3.91,5.93-7.4
		c1.53-6.02-0.81-14.08-3.86-18.09c-1.41-1.86-2.67-3.26-3.95-4.42c-1.82-1.64-3.6-2.93-5.44-3.96
		C103.79,56.38,99.94,55.4,95.64,55.4L95.64,55.4z"/>
</g>
<g>
	<path style="fill:#FFFFFF;" d="M186.78,197.66c-1.53,3.53-5.27,8.43-10,9.97c-2.2-2.5-4.6-4.8-7.23-6.87
		c-2.77-2.17-23.03-12.3-15.03-17.47c2.17-1.37,5.7-0.13,7.9,0.4C172.28,186.12,180.35,191.06,186.78,197.66z"/>
	<path style="fill:#0088C5;" d="M202.98,231.59c-0.4,1.47-1.63,3-3.03,4.17c-0.67,0.53-1.33,1-1.97,1.33c-1.3,0.7-2.47,1-3.47,1
		c-1.17,0-2.13-0.4-3-1.03c-0.17-0.17-0.3-0.27-0.47-0.43c-0.3-0.3-0.6-0.63-0.87-0.97c-0.27-0.37-0.5-0.77-0.73-1.17
		c-0.7-1.23-1.23-2.63-1.67-4c-1.93-6.17-3.13-11.67-6.93-17.07c-0.03-0.03-0.07-0.1-0.13-0.2c-0.37-0.57-1.27-2.07-2.23-3.5
		c-0.57-0.7-1.13-1.4-1.73-2.1h0.03c4.73-1.53,8.47-6.43,10-9.97v-0.03h0.03c0.07-0.03,0.2,0.07,0.37,0.2c0.1,0.1,0.17,0.17,0.3,0.3
		c0.13,0.1,0.23,0.23,0.37,0.37c0.03,0,0.03,0.03,0.03,0.03c0.73,0.83,1.77,2.07,2.63,3.13c0.87,1.1,1.6,2.07,1.77,2.27
		c1,1.3,1.93,2.63,2.83,4.03c0.87,1.37,1.73,2.77,2.53,4.23C200.71,217.72,204.81,224.69,202.98,231.59z"/>
	<path d="M187.18,197.82c-0.17-0.13-0.3-0.23-0.37-0.2C186.88,197.62,187.01,197.69,187.18,197.82z"/>
	<path d="M201.48,210.86l-0.33-0.6c-1.73-3.13-3.63-6.07-5.7-8.77c-3.47-4.57-5.17-6.5-6.5-7.3c-7.23-7.13-15.83-11.97-25.57-14.37
		l-0.83-0.23c-1.57-0.4-3.47-0.93-5.5-0.93c-1.8,0-3.37,0.43-4.7,1.3c-3.23,2.1-3.7,4.87-3.67,6.3c0.07,5.97,7.57,11,15.9,16.07
		c1.03,0.63,2.2,1.37,2.5,1.6c2.93,2.27,5.67,5,8.17,8.13c0.6,0.93,1.2,1.87,1.63,2.57c0.33,0.53,0.6,0.93,0.7,1.1
		c2.8,3.97,4,8.07,5.43,12.83c0.3,1.03,0.6,2.07,0.93,3.1c2.17,6.93,5.7,10.43,10.57,10.43c1.73,0,3.53-0.5,5.33-1.47
		c0.9-0.47,1.8-1.1,2.63-1.8c1.3-1.07,3.6-3.3,4.37-6.2C209.01,224.42,204.68,216.59,201.48,210.86z M202.98,231.59
		c-0.4,1.47-1.63,3-3.03,4.17c-0.67,0.53-1.33,1-1.97,1.33c-1.3,0.7-2.47,1-3.47,1c-1.17,0-2.13-0.4-3-1.03
		c-0.17-0.13-0.33-0.3-0.47-0.43c-0.33-0.3-0.6-0.63-0.87-0.97c-0.27-0.37-0.5-0.77-0.73-1.17c-0.7-1.23-1.23-2.63-1.67-4
		c-1.93-6.17-3.13-11.67-6.93-17.07c-0.03-0.03-0.07-0.1-0.13-0.2c-0.37-0.57-1.27-2.07-2.23-3.5c-0.57-0.7-1.13-1.4-1.73-2.1
		c-2.17-2.5-4.57-4.8-7.2-6.87c-2.77-2.17-23.03-12.3-15.03-17.47c0.73-0.47,1.6-0.63,2.53-0.63c1.87,0,3.9,0.67,5.37,1.03
		c9.9,2.47,17.9,7.43,24.33,13.97c0.03,0,0.03,0,0.03,0v-0.03h0.03c0.07-0.03,0.2,0.07,0.37,0.2c0.1,0.1,0.17,0.17,0.3,0.3
		c0.1,0.1,0.23,0.23,0.37,0.37c0.03,0,0.03,0.03,0.03,0.03c0.77,0.8,1.77,2.03,2.63,3.13s1.6,2.07,1.77,2.27
		c1,1.3,1.93,2.63,2.83,4.03c0.87,1.37,1.73,2.77,2.53,4.23C200.71,217.72,204.81,224.69,202.98,231.59z"/>
</g>
<g>
	<path style="fill:#FFFFFF;" d="M57.11,200.76c-2.67,2.07-5.07,4.37-7.23,6.87c-4.73-1.53-8.47-6.43-9.97-9.97
		c6.37-6.57,14.43-11.53,24.33-13.97c2.2-0.53,5.77-1.77,7.9-0.4C80.15,188.46,59.91,198.59,57.11,200.76z"/>
	<path style="fill:#0088C5;" d="M49.91,207.62c-0.6,0.7-1.17,1.4-1.73,2.1c-0.97,1.43-1.87,2.93-2.23,3.5
		c-0.07,0.1-0.1,0.17-0.13,0.2c-3.8,5.4-5,10.9-6.9,17.07c-0.2,0.67-0.47,1.37-0.73,2.03c-0.17,0.4-0.37,0.8-0.53,1.2
		c-0.53,1.1-1.2,2.1-2.03,2.9c-0.17,0.17-0.33,0.3-0.5,0.43c-0.83,0.63-1.83,1.03-2.97,1.03c-1,0-2.17-0.3-3.47-1
		c-0.63-0.33-1.3-0.8-1.97-1.33c-1.4-1.17-2.63-2.7-3.03-4.17c-1.83-6.9,2.27-13.87,5.33-19.4c1.6-2.9,3.4-5.67,5.4-8.27
		c0.17-0.2,0.9-1.17,1.77-2.27c0.87-1.07,1.87-2.3,2.6-3.13c0.4-0.43,0.73-0.73,0.93-0.87c0.03-0.03,0.1-0.07,0.13-0.03h0.03
		c0,0.03,0.03,0.03,0.03,0.03c1.5,3.53,5.23,8.43,9.97,9.97H49.91z"/>
	<path d="M74.31,179.96c-1.3-0.87-2.9-1.3-4.7-1.3c-2,0-3.93,0.53-5.5,0.93l-0.8,0.23c-9.77,2.4-18.37,7.23-25.6,14.37
		c-1.33,0.8-3.03,2.73-6.5,7.3c-2.03,2.7-3.97,5.63-5.7,8.77l-0.33,0.6c-3.2,5.73-7.53,13.57-5.37,21.77c0.8,2.9,3.07,5.13,4.37,6.2
		c0.83,0.7,1.73,1.33,2.63,1.8c1.83,0.97,3.63,1.47,5.33,1.47c4.87,0,8.4-3.5,10.57-10.43c0.33-1.03,0.63-2.07,0.93-3.1
		c1.43-4.77,2.67-8.87,5.43-12.83c0.1-0.17,0.37-0.57,0.73-1.1c0.4-0.7,1-1.63,1.6-2.57c2.5-3.13,5.23-5.87,8.17-8.13
		c0.3-0.23,1.47-0.97,2.5-1.6c8.33-5.07,15.83-10.1,15.93-16.07C78.01,184.82,77.58,182.06,74.31,179.96z M57.11,200.76
		c-2.63,2.07-5.03,4.37-7.2,6.87c-0.6,0.7-1.17,1.4-1.73,2.1c-0.97,1.43-1.87,2.93-2.23,3.5c-0.07,0.1-0.1,0.17-0.13,0.2
		c-3.8,5.4-5,10.9-6.9,17.07c-0.2,0.67-0.47,1.37-0.73,2.03c-0.17,0.4-0.33,0.83-0.53,1.2c-0.53,1.1-1.2,2.1-2.03,2.9
		c-0.13,0.13-0.3,0.3-0.5,0.43c-0.83,0.63-1.83,1.03-2.97,1.03c-1,0-2.17-0.3-3.47-1c-0.63-0.33-1.3-0.8-1.97-1.33
		c-1.4-1.17-2.63-2.7-3.03-4.17c-1.83-6.9,2.27-13.87,5.33-19.4c1.6-2.9,3.4-5.67,5.4-8.27c0.17-0.2,0.9-1.17,1.77-2.27
		c0.83-1.1,1.83-2.33,2.6-3.13c0.4-0.43,0.73-0.73,0.93-0.87c0.03-0.03,0.1-0.07,0.13-0.03h0.03c0,0.03,0.03,0.03,0.03,0.03
		c6.43-6.53,14.47-11.5,24.33-13.97c1.47-0.37,3.53-1.03,5.37-1.03c0.93,0,1.8,0.17,2.53,0.63
		C80.15,188.46,59.91,198.59,57.11,200.76z"/>
</g>
<g>
	<path style="fill-rule:evenodd;clip-rule:evenodd;fill:#009FF9;" d="M169.78,211.32c0.5,9.97-1.93,24.6-8.6,33.17
		c-7.83,10.1-22.1,16.7-39.17,18.1c-2.07,0.17-4.27,0.27-6.43,0.27h-4.5c-2.17,0-4.37-0.1-6.4-0.27c-17.1-1.4-31.37-8-39.2-18.1
		c-6.63-8.57-9.1-23.2-8.57-33.17c0.27-5.57,1.5-11.2,2.7-16.67c0.6-2.8,1.2-5.6,1.7-8.4c0.57-3.1,0.2-8.9,0.2-9.2
		c-0.4-4.37-1.7-8.4-2.9-11.8c-4.8-13.4-5.63-25.93-2.57-39.43c2.77-12.2,8.53-22.57,15.87-28.4c12.2-9.73,26.37-15.33,38.93-15.33
		h5c12.53,0,26.7,5.6,38.9,15.33c7.33,5.83,13.1,16.2,15.87,28.4c3.07,13.5,2.27,26.03-2.53,39.43c-1.23,3.4-2.53,7.43-2.93,11.87
		c0,0.23-0.37,6.03,0.2,9.13c0.5,2.83,1.1,5.63,1.73,8.43C168.25,200.12,169.48,205.76,169.78,211.32z"/>
	<path d="M170.98,193.82c-0.6-2.73-1.2-5.5-1.7-8.27c-0.37-2.17-0.23-6.67-0.13-8.13c0.37-3.9,1.57-7.67,2.7-10.83
		c5-13.93,5.87-27.57,2.67-41.67c-2.93-13.07-9.23-24.23-17.27-30.63c-12.9-10.3-28-16.2-41.4-16.2h-5.03
		c-13.4,0-28.5,5.9-41.4,16.2c-8,6.4-14.3,17.57-17.27,30.63c-3.2,14.1-2.3,27.73,2.7,41.67c1.1,3.17,2.3,6.93,2.67,10.77
		c0.07,0.8,0.13,2.37,0.13,4.03c0,1.53-0.07,3.13-0.27,4.2c-0.5,2.73-1.07,5.47-1.67,8.2c-1.23,5.63-2.5,11.43-2.8,17.33
		c-0.6,11.03,2.1,26.4,9.4,35.8c8.53,11,23.83,18.17,42.03,19.67c2.13,0.17,4.47,0.27,6.73,0.27h4.5c2.27,0,4.6-0.1,6.73-0.27
		c18.2-1.5,33.53-8.67,42.03-19.67c7.3-9.4,10-24.77,9.43-35.8C173.45,205.22,172.18,199.42,170.98,193.82z M115.58,262.86h-4.5
		c-2.17,0-4.37-0.1-6.4-0.27c-17.1-1.4-31.37-8-39.2-18.1c-6.63-8.57-9.1-23.2-8.57-33.17c0.27-5.57,1.5-11.2,2.7-16.67
		c0.6-2.8,1.2-5.6,1.7-8.4c0.57-3.1,0.2-8.9,0.2-9.2c-0.4-4.37-1.7-8.4-2.9-11.8c-4.8-13.4-5.63-25.93-2.57-39.43
		c2.77-12.2,8.53-22.57,15.87-28.4c12.2-9.73,26.37-15.33,38.93-15.33h5c12.53,0,26.7,5.6,38.9,15.33
		c7.33,5.83,13.1,16.2,15.87,28.4c3.07,13.5,2.27,26.03-2.53,39.43c-1.23,3.4-2.53,7.43-2.93,11.87c0,0.23-0.37,6.03,0.2,9.13
		c0.5,2.83,1.1,5.63,1.73,8.43c1.17,5.43,2.4,11.07,2.7,16.63c0.5,9.97-1.93,24.6-8.6,33.17c-7.83,10.1-22.1,16.7-39.17,18.1
		C119.95,262.76,117.75,262.86,115.58,262.86z"/>
</g>
<g>
	<polygon style="fill-rule:evenodd;clip-rule:evenodd;fill:#AE7BFF;" points="61.03,54.29 51.79,53.86 46.19,61.19 43.76,52.29 
		35.03,49.26 42.76,44.19 42.96,34.93 50.16,40.73 59.03,38.06 55.76,46.69 	"/>
	<path style="fill:#5429A8;" d="M59.49,46.23l5.03-13.3l-13.63,4.1l-11.13-8.9l-0.3,14.23l-11.9,7.8l13.43,4.7l3.77,13.73
		l8.63-11.33l14.2,0.67L59.49,46.23z M46.19,61.19l-2.43-8.9l-8.73-3.03l7.73-5.07l0.2-9.27l7.2,5.8l8.87-2.67l-3.27,8.63l5.27,7.6
		l-9.23-0.43L46.19,61.19z"/>
</g>
<g>
	<polygon style="fill-rule:evenodd;clip-rule:evenodd;fill:#E8B21C;" points="144.99,27.39 139.06,30.42 138.19,36.99 133.49,32.29 
		126.93,33.49 129.96,27.56 126.79,21.72 133.36,22.76 137.96,17.96 138.99,24.52 	"/>
	<path style="fill:#E5861F;" d="M142.03,22.29l-1.8-11.53l-8.07,8.43l-11.5-1.83l5.53,10.27l-5.3,10.37l11.47-2.1l8.23,8.27
		l1.53-11.57l10.4-5.27L142.03,22.29z M138.19,36.99l-4.7-4.7l-6.57,1.2l3.03-5.93l-3.17-5.83l6.57,1.03l4.6-4.8l1.03,6.57l6,2.87
		l-5.93,3.03L138.19,36.99z"/>
</g>
<g>
	<circle style="fill-rule:evenodd;clip-rule:evenodd;fill:#F2D211;" cx="167.82" cy="55.67" r="4.17"/>
	<path style="fill:#E8AE1C;" d="M167.82,48.17c-4.13,0-7.5,3.37-7.5,7.5s3.37,7.5,7.5,7.5s7.5-3.37,7.5-7.5
		S171.95,48.17,167.82,48.17z M167.82,59.84c-2.3,0-4.17-1.87-4.17-4.17s1.87-4.17,4.17-4.17c2.3,0,4.17,1.87,4.17,4.17
		S170.12,59.84,167.82,59.84z"/>
</g>
</svg>
