<?xml version="1.0" encoding="utf-8"?>
<!-- Generator: Adobe Illustrator 24.1.1, SVG Export Plug-In . SVG Version: 6.00 Build 0)  -->
<svg version="1.1" id="Layer_1" xmlns="http://www.w3.org/2000/svg" xmlns:xlink="http://www.w3.org/1999/xlink" x="0px" y="0px"
	 viewBox="0 0 181.18 280" style="enable-background:new 0 0 181.18 280;" xml:space="preserve">
<g>
	<path style="fill:#FFFFFF;" d="M122.38,31.85c-2.77,3.36-7.91,3.99-11.46,1.42c-0.13-0.1-0.26-0.2-0.43-0.33
		c-0.26-0.16-0.49-0.33-0.72-0.49c-0.1-0.1-0.23-0.16-0.33-0.23c-0.89-0.72-1.71-1.35-2.47-1.88V30.3c-1.28-0.89-2.4-1.52-3.43-1.52
		c-0.79,0-1.52,0.36-2.27,1.25c-1.78,2.11-1.05,4.35-3.49,4.74c-1.25,0.23-2.4,0.69-3.26,0.69c-0.56,0-0.99-0.2-1.25-0.76
		c-2.04-4.25-0.53-11.17,2.04-14.92c1.52-2.21,3.76-3.72,6.36-4.64c1.88-0.66,3.59-0.96,5.17-0.96c0.69,0,1.35,0.07,2.01,0.16
		c0.56,0.1,1.09,0.23,1.61,0.4c1.52,0.43,2.93,1.15,4.41,2.08h0.03c1.91,1.19,3.85,2.67,6.06,4.25
		C124.52,23.68,125.15,28.49,122.38,31.85z"/>
	<path d="M107.19,30.57c0.4,0.3,1.35,0.99,2.24,1.65c-0.89-0.72-1.71-1.35-2.47-1.88C107.03,30.4,107.1,30.47,107.19,30.57z"/>
	<path d="M127.95,25.69c-0.4-3.13-2.04-5.9-4.64-7.77l-0.99-0.76c-5.07-3.72-9.45-6.92-15.48-6.92c-2.11,0-4.25,0.4-6.52,1.19
		c-3.59,1.28-6.36,3.36-8.27,6.13c-3.26,4.81-5.07,13.14-2.37,18.84c0.89,1.91,2.7,3.03,4.84,3.03c1.02,0,1.94-0.23,2.77-0.46
		c0.36-0.1,0.76-0.2,1.15-0.26c3.72-0.66,4.78-3.49,5.27-4.84c0.1-0.33,0.2-0.56,0.3-0.79c0.66,0.43,1.58,1.15,2.31,1.71
		c0.72,0.53,1.48,1.12,2.31,1.71c2.11,1.52,4.61,2.31,7.25,2.31c3.76,0,7.25-1.61,9.59-4.45C127.45,31.89,128.34,28.82,127.95,25.69
		z M122.38,31.85c-2.77,3.36-7.91,3.99-11.46,1.42c-0.13-0.1-0.26-0.2-0.43-0.33c-0.26-0.16-0.49-0.33-0.72-0.49
		c-0.1-0.1-0.23-0.16-0.33-0.23c-0.89-0.66-1.84-1.35-2.24-1.65c-0.1-0.1-0.16-0.16-0.23-0.23V30.3c-1.28-0.89-2.4-1.52-3.43-1.52
		c-0.79,0-1.52,0.36-2.27,1.25c-1.78,2.11-1.05,4.35-3.49,4.74c-1.25,0.23-2.4,0.69-3.26,0.69c-0.56,0-0.99-0.2-1.25-0.76
		c-2.04-4.25-0.53-11.17,2.04-14.92c1.52-2.21,3.76-3.72,6.36-4.64c1.88-0.66,3.59-0.96,5.17-0.96c0.69,0,1.35,0.07,2.01,0.16
		c0.56,0.1,1.09,0.23,1.61,0.4c1.52,0.43,2.93,1.15,4.41,2.08h0.03c1.91,1.19,3.85,2.67,6.06,4.25
		C124.52,23.68,125.15,28.49,122.38,31.85z"/>
	<path style="fill:#683100;" d="M122.38,31.85c-2.77,3.36-7.91,3.99-11.46,1.42c-0.13-0.1-0.26-0.2-0.43-0.33
		c-0.23-0.13-0.46-0.33-0.72-0.49c-0.1-0.1-0.23-0.16-0.33-0.23c-0.89-0.66-1.84-1.35-2.24-1.65c-0.1-0.1-0.16-0.16-0.23-0.23V30.3
		c-0.33-0.66,0.96-1.45,1.98-1.84c0.59-0.26,1.22-0.26,1.84-0.16c-0.79-0.3-1.42-0.86-1.78-1.61c-0.72-1.58,0.07-3.39,1.71-4.05
		c0.79-0.33,1.61-0.3,2.34-0.07c-0.66-0.33-1.25-0.82-1.55-1.52c-0.72-1.55,0.56-3.33,2.24-4.02c0.13-0.07,0.79-0.23,1.12-0.2h0.03
		c1.91,1.19,3.85,2.67,6.06,4.25C124.52,23.68,125.15,28.49,122.38,31.85z"/>
</g>
<g>
	<path style="fill-rule:evenodd;clip-rule:evenodd;fill:#0088C5;" d="M95.12,246.43c2.5,5.14,2.57,11.3,0.16,16.5
		c-1.28,2.83-4.91,6.46-8.27,6.29c-4.91-0.26-7.71-4.78-10.41-8.2l-9.09-11.56l-2.93-3.69c-1.71-2.21-1.35-5.4,0.86-7.15l8.17-6.46
		c3.52-3.89,8.99-10.24,11.69-14.89l-0.59,1.15l11.5,6.75c-2.17,3.72-4.81,7.44-7.84,11.1c-0.82,0.99-0.53,2.44,0.63,3.06
		c1.71,0.96,3.95,2.87,6,6.79C94.98,246.2,95.12,246.43,95.12,246.43z"/>
	<path style="fill-rule:evenodd;clip-rule:evenodd;fill:#0088C5;" d="M98.57,220.87l-1.12,2.11c0.4-0.72,0.76-1.42,1.05-2.14
		L98.57,220.87z"/>
	<path style="fill:#FFFFFF;" d="M98.51,220.84c-0.3,0.72-0.66,1.42-1.05,2.14c-0.4,0.72-0.82,1.48-1.25,2.21l-11.5-6.75l0.59-1.15
		l0.49-0.92c5.73-10.84,7.15-21.77,4.28-32.51c-0.66-2.44-0.03-4.81,1.68-6.52c1.81-1.81,4.51-2.57,6.88-1.91
		c2.17,0.56,3.76,2.21,4.38,4.51C106.68,193.66,105.2,207.4,98.51,220.84z"/>
	<path style="fill:#FFFFFF;" d="M97.45,222.98l-1.22,2.24l-0.03-0.03C96.63,224.46,97.06,223.7,97.45,222.98z"/>
	<path d="M96.93,175.17c0.58,0,1.15,0.07,1.71,0.22c2.17,0.58,3.76,2.24,4.38,4.54c3.68,13.73,2.11,27.46-4.53,40.88l0.09,0.05
		l-1.12,2.09c0,0,0,0,0,0l-1.21,2.26l-0.07-0.04c-2.21,3.78-4.85,7.53-7.89,11.21c-0.78,0.94-0.51,2.33,0.58,2.9
		c1.72,0.91,4.05,2.82,6.13,6.86c0.02,0.05,0.13,0.29,0.13,0.29c2.52,5.15,2.58,11.31,0.17,16.51c-1.27,2.75-4.74,6.28-8.04,6.28
		c-0.08,0-0.15,0-0.23-0.01c-4.92-0.24-7.71-4.77-10.41-8.2l-9.11-11.55l-2.97-3.77c-1.71-2.17-1.34-5.31,0.83-7.02l8.23-6.48
		c0.02-0.01,0.03-0.03,0.05-0.04c3.75-4.17,9.69-11.1,12.17-15.8l0,0c5.71-10.82,7.14-21.76,4.26-32.51
		c-0.65-2.42-0.03-4.79,1.7-6.52C93.15,175.94,95.05,175.17,96.93,175.17 M96.93,171.22c-2.96,0-5.86,1.21-7.96,3.31
		c-2.71,2.71-3.72,6.57-2.72,10.33c2.61,9.76,1.29,19.74-3.94,29.65c-1.71,3.23-5.75,8.47-11.41,14.78l-7.98,6.29
		c-1.88,1.48-3.07,3.6-3.35,5.98c-0.28,2.37,0.38,4.72,1.86,6.59l2.97,3.77l9.11,11.55c0.32,0.4,0.63,0.82,0.96,1.24
		c2.62,3.44,6.21,8.15,12.36,8.46c0.14,0.01,0.28,0.01,0.42,0.01c5.58,0,10.09-5.26,11.63-8.57c2.9-6.27,2.82-13.71-0.21-19.9
		l-0.12-0.25c-1.87-3.64-3.97-5.91-5.79-7.31c2.38-3.02,4.53-6.13,6.41-9.27c0.21-0.23,0.4-0.49,0.55-0.77l1.21-2.26
		c0-0.01,0.01-0.01,0.01-0.02l1.11-2.07c0.17-0.32,0.29-0.65,0.37-0.98c6.76-14.1,8.25-28.51,4.41-42.84
		c-0.98-3.65-3.66-6.4-7.17-7.34C98.78,171.34,97.86,171.22,96.93,171.22L96.93,171.22z"/>
</g>
<g>
	<path style="fill:#FFFFFF;" d="M80.65,224.03l-13.77,0.43l-1.05-35.48c-0.07-2.64,6.26-4.94,8.89-5.04
		c2.6-0.07,4.81,2.01,4.88,4.61L80.65,224.03z"/>
	<path style="fill-rule:evenodd;clip-rule:evenodd;fill:#009FF9;" d="M108.46,265.24c-3.39,4.12-9.09,3.62-13.8,3.76l-15.84,0.49
		l-3.43,0.1c-2.77,0.07-7.21-2.04-7.28-4.78l-1.09-36.07l-0.13-4.28l13.77-0.43h0.03l0.66,22.14c0,0,3.13-4.12,12.22-2.64
		c0.07,0.03,0.33,0.07,0.33,0.07c6.09,1.12,11.46,5.04,14.43,10.48C109.91,257.01,110.76,262.44,108.46,265.24z"/>
	<path d="M74.86,183.96c2.56,0,4.68,2.04,4.75,4.61l1.06,35.47l0.66,22.12c0,0,2.25-2.94,8.46-2.94c1.13,0,2.38,0.1,3.78,0.33
		c0.06,0.01,0.33,0.07,0.33,0.07c6.08,1.13,11.45,5.03,14.41,10.45c1.6,2.94,2.43,8.38,0.13,11.19c-3.37,4.1-9.08,3.62-13.78,3.76
		l-15.85,0.47l-3.43,0.1c-0.05,0-0.1,0-0.16,0c-2.76,0-7.03-2.08-7.11-4.78l-1.2-40.35l0,0l-1.06-35.47
		c-0.08-2.63,6.25-4.94,8.87-5.02C74.77,183.96,74.82,183.96,74.86,183.96 M74.86,180C74.86,180,74.86,180,74.86,180
		c-0.04,0-0.22,0-0.26,0c-1.95,0.06-4.72,0.82-7.05,1.95c-4.78,2.31-5.72,5.16-5.66,7.14l1.06,35.47l1.2,40.35
		c0.16,5.34,6.55,8.62,11.06,8.62c0.04,0,0.24,0,0.28,0l3.43-0.1l15.85-0.47c0.55-0.02,1.12-0.02,1.69-0.03
		c4.6-0.06,10.9-0.14,15.03-5.17c3.65-4.44,2.36-11.79,0.29-15.59c-3.52-6.45-9.94-11.1-17.16-12.44l-0.28-0.06
		c-1.67-0.28-3.15-0.4-4.56-0.4c-1.79,0-3.35,0.21-4.69,0.53l-0.47-15.87l-1.06-35.47C83.43,183.71,79.6,180,74.86,180L74.86,180z"
		/>
</g>
<g>
	<path style="fill:#FFFFFF;" d="M137.72,155.23c-1.64-7.1-1.51-14.16-1.48-21.71c0.01-3.34,0.27-15.47-6.45-12.73
		c-2.43,0.99-3.46,4.77-4.29,6.99c-1.8,4.83-2.85,9.86-3.19,14.9c-0.38,5.65,0.14,11.28,1.32,16.75
		C127.16,157.69,132.08,155.88,137.72,155.23z"/>
	<path style="fill:#0088C5;" d="M149.82,177.6c-0.06-0.07-0.13-0.13-0.19-0.2c-1.66-1.77-3.09-3.52-4.37-5.3
		c-1.83-2.55-3.33-5.17-4.61-8.08c-0.63-1.43-1.21-2.93-1.75-4.53c-0.48-1.42-0.86-2.84-1.18-4.26c-5.64,0.65-10.56,2.46-14.08,4.2
		c0.57,2.65,1.29,5.26,2.16,7.82c2.49,7.29,5.86,15.48,11.26,21.22c2.63,2.79,6.75,4.22,10.74,3.12c0.83-0.23,1.62-0.53,2.28-0.87
		c2.44-1.25,4.4-3.49,4.34-6.16c-0.01-0.53-0.13-1.02-0.28-1.49C153.42,180.88,151.38,179.28,149.82,177.6z"/>
	<path d="M131.6,120.39c4.85,0,4.64,10.13,4.63,13.13c-0.03,7.55-0.15,14.61,1.49,21.71c0.33,1.42,0.7,2.83,1.18,4.26
		c0.54,1.59,1.12,3.1,1.75,4.53c1.28,2.91,2.78,5.53,4.61,8.08c1.28,1.78,2.71,3.53,4.37,5.3c0.06,0.07,0.13,0.14,0.19,0.2
		c1.56,1.69,3.6,3.29,4.32,5.47c0.15,0.47,0.27,0.96,0.28,1.49c0.06,2.67-1.9,4.91-4.34,6.16c-0.67,0.34-1.45,0.64-2.28,0.87
		c-0.91,0.25-1.83,0.37-2.74,0.37c-3.06,0-5.97-1.34-8-3.49c-5.41-5.74-8.77-13.93-11.26-21.22c-0.87-2.56-1.59-5.17-2.16-7.82
		c-1.19-5.47-1.7-11.09-1.32-16.75c0.34-5.04,1.39-10.07,3.19-14.9c0.83-2.22,1.85-5.99,4.28-6.99
		C130.46,120.52,131.06,120.39,131.6,120.39 M131.6,116.44c-1.07,0-2.18,0.23-3.31,0.69c-3.77,1.54-5.22,5.68-6.19,8.42l-0.3,0.85
		c-1.91,5.12-3.06,10.51-3.43,16.02c-0.39,5.77,0.09,11.77,1.4,17.85c0.61,2.83,1.38,5.61,2.29,8.26
		c2.44,7.14,6.02,16.17,12.13,22.65c2.84,3.01,6.8,4.73,10.87,4.73c1.28,0,2.55-0.17,3.78-0.51c1.07-0.29,2.13-0.7,3.04-1.16
		c4.09-2.09,6.58-5.84,6.49-9.77c-0.02-0.86-0.18-1.72-0.48-2.63c-0.85-2.58-2.68-4.4-4.14-5.87c-0.35-0.35-0.7-0.7-1.03-1.05
		l-0.21-0.22c-1.5-1.6-2.82-3.21-4.04-4.91c-1.66-2.31-3.03-4.72-4.2-7.36c-0.58-1.32-1.11-2.69-1.63-4.21
		c-0.38-1.12-0.72-2.35-1.07-3.87c-1.45-6.26-1.42-12.72-1.39-19.56l0.01-1.24l0-0.29c0.03-5.47-0.37-11.49-3.57-14.7
		C135.25,117.17,133.52,116.44,131.6,116.44L131.6,116.44z"/>
</g>
<g>
	<path style="fill:#FFFFFF;" d="M55.13,19.03c3.18,0.4,6.13,1.58,8.46,3.82c3.99,3.84,6.99,8.53,5.95,14.22
		c-0.36,1.98-3.61,3.73-6.02,3.88c-2.86,0.18-2.68-1.91-5.28-3.98c-3.74-2.97-5.83,1.54-9.9,6.59c-3.27,4.09-9.22,4.75-13.29,1.45
		c-4.07-3.29-4.76-9.25-1.53-13.36C39.76,23.73,45.36,17.81,55.13,19.03z"/>
	<path d="M49.46,42.13c0.92-1.12,1.88-2.34,2.27-2.87c0.07-0.07,0.13-0.16,0.13-0.26C51.11,39.92,50.35,40.98,49.46,42.13z"/>
	<path d="M66.33,20c-2.8-2.7-6.42-4.35-10.71-4.88c-1.02-0.13-2.01-0.2-3-0.2c-10.11,0-16.27,6.75-22.2,14.3
		c-4.55,5.8-3.59,14.26,2.14,18.88c2.37,1.91,5.37,3,8.4,3c4.08,0,7.91-1.84,10.48-5.04c0.72-0.92,1.42-1.84,2.04-2.7
		c0.79-1.05,1.81-2.4,2.5-3.1c0.46,0.4,0.79,0.82,1.15,1.32c0.96,1.25,2.54,3.36,6.06,3.36c0.16,0,0.36,0,0.56-0.03
		c3.43-0.2,8.86-2.6,9.68-7.12C74.56,31.59,72.16,25.63,66.33,20z M69.52,37.09c-0.36,1.98-3.59,3.72-6,3.85
		c-0.13,0.03-0.23,0.03-0.33,0.03c-2.54,0-2.47-2.01-4.97-3.99c-0.82-0.66-1.58-0.96-2.27-0.96c-1.42,0-2.67,1.19-4.08,2.93
		C51.9,39,51.9,39,51.86,39c0,0.1-0.07,0.2-0.13,0.26c-0.4,0.53-1.35,1.75-2.27,2.87c-0.4,0.56-0.82,1.05-1.12,1.45
		c-3.29,4.08-9.22,4.74-13.31,1.45c-4.05-3.29-4.74-9.26-1.52-13.37c0.07-0.1,0.16-0.2,0.26-0.36c1.91-2.37,3.76-4.58,5.67-6.42
		c3.72-3.62,7.77-6,13.18-6c0.82,0,1.65,0.07,2.5,0.16c3.2,0.4,6.13,1.58,8.47,3.82C67.58,26.68,70.57,31.39,69.52,37.09z"/>
	<path style="fill:#683100;" d="M51.86,38.97C51.9,39,51.9,39,51.86,39c0,0.1-0.07,0.2-0.13,0.26c-0.4,0.53-1.35,1.75-2.27,2.87
		c-0.4,0.56-0.82,1.05-1.12,1.45c-3.29,4.08-9.22,4.74-13.31,1.45c-4.05-3.29-4.74-9.26-1.52-13.37c0.07-0.1,0.16-0.2,0.26-0.36
		c1.91-2.37,3.76-4.58,5.67-6.42c0.26-0.03,0.89-0.16,1.02-0.13c2.08,0.36,4.05,2.17,3.69,4.25c-0.16,0.92-0.66,1.68-1.32,2.24
		c0.76-0.49,1.68-0.72,2.64-0.56c2.04,0.36,3.46,2.31,3.1,4.41c-0.16,1.02-0.76,1.88-1.52,2.44c0.66-0.3,1.38-0.46,2.11-0.33
		C50.45,37.39,52.19,38.05,51.86,38.97z"/>
</g>
<g>
	<path d="M89.02,32.5c12.37,0,25.18,5.03,35.41,11.95c8.73,5.9,14.66,16.56,17.75,26.47c0.19,0.6,0.32,1.19,0.49,1.79
		c0.35,1.02,0.68,2.03,0.97,3.03c3.52,12.06,1.42,22.55-1.93,34.52c-0.73,2.6-5.94,15.28-6.03,15.9c-1.5,6.97,2.11,15.48,3.11,22.35
		c1.85,12.77,2.22,25.96-3.12,38.02c-7.27,16.44-24.2,22.28-41.01,23.41c-1.66,0.11-3.32,0.17-4.98,0.17c-0.36,0-0.72,0-1.09-0.01
		c-0.08,0-0.16-0.01-0.24-0.01l-4.11-0.06c-2.02-0.03-4.12-0.14-6.13-0.33c-13.82-1.33-29.05-6.7-37.69-18.19
		c-6.25-8.31-8.62-22.08-7.94-32.33c0.54-8,2.99-15.74,4.5-23.58c0.59-3.07,1.74-6.07,1.5-9.19c-0.05-0.66-0.15-1.3-0.24-1.95
		c-0.5-1.41-4.26-12-5.21-16.05c-2.8-9.22-3.55-18.89-2.14-28.66c1.49-10.28,5.67-21.74,13.36-28.94
		c9.88-9.26,23.19-16.76,36.63-17.8c0,0,0.1-0.01,0.24-0.02l4.32-0.34C86.64,32.55,87.83,32.5,89.02,32.5 M89.02,28.55
		c-1.31,0-2.62,0.05-3.89,0.16l-4.3,0.34l-0.33,0.03c-13,1-27.23,7.87-38.94,18.84c-7.39,6.92-12.7,18.31-14.57,31.26
		c-1.48,10.25-0.73,20.43,2.23,30.26c0.81,3.39,3.25,10.52,5.17,15.98c0.07,0.46,0.12,0.88,0.16,1.3c0.12,1.58-0.32,3.38-0.79,5.29
		c-0.23,0.95-0.47,1.9-0.65,2.86c-0.48,2.51-1.08,5.09-1.67,7.59c-1.24,5.3-2.52,10.79-2.9,16.47c-0.71,10.69,1.7,25.64,8.72,34.97
		c8.17,10.86,22.92,18.06,40.47,19.75c2.06,0.2,4.29,0.32,6.46,0.35l4.11,0.06l0.22,0.01l1.16,0.01c1.75,0,3.51-0.06,5.24-0.17
		c22.23-1.49,37.57-10.4,44.36-25.75c6.17-13.95,5.07-28.81,3.42-40.19c-0.35-2.38-0.97-4.89-1.57-7.33
		c-1.17-4.75-2.39-9.66-1.61-13.5c0.23-0.65,1.14-2.98,1.96-5.04c2.09-5.29,3.6-9.16,4.04-10.74c3.26-11.63,5.86-23.2,1.92-36.69
		c-0.3-1.02-0.63-2.06-0.99-3.09l-0.15-0.56c-0.11-0.41-0.22-0.82-0.35-1.24c-3.89-12.49-10.93-22.91-19.31-28.58
		C114.6,33.03,101.24,28.55,89.02,28.55L89.02,28.55z"/>
	<path style="fill:#009FF9;" d="M141.71,110.27c3.35-11.96,5.45-22.46,1.93-34.52c-0.29-1.01-0.62-2.02-0.97-3.03
		c-0.17-0.6-0.3-1.19-0.49-1.79c-3.09-9.92-9.02-20.57-17.75-26.47c-11.22-7.58-25.54-12.9-38.98-11.81l-4.32,0.34
		c-0.15,0.01-0.24,0.02-0.24,0.02c-13.44,1.03-26.75,8.54-36.63,17.8c-7.69,7.21-11.87,18.66-13.36,28.94
		c-1.41,9.78-0.66,19.44,2.14,28.66c0.95,4.05,4.71,14.64,5.21,16.05c0.1,0.65,0.19,1.3,0.24,1.95c0.24,3.12-0.91,6.12-1.5,9.19
		c-1.51,7.84-3.96,15.58-4.5,23.58c-0.69,10.25,1.69,24.02,7.94,32.33c8.64,11.49,23.87,16.86,37.69,18.19
		c2.01,0.19,4.11,0.3,6.13,0.33l4.11,0.06c0.08,0,0.16,0.01,0.24,0.01c2.02,0.03,4.04-0.02,6.06-0.16
		c16.81-1.13,33.74-6.97,41.01-23.41c5.33-12.06,4.97-25.25,3.12-38.02c-1-6.87-4.61-15.38-3.11-22.35
		C135.77,125.55,140.99,112.86,141.71,110.27z"/>
</g>
<path style="fill:#009FF8;" d="M85.45,32.65c0,0-0.1,0.01-0.24,0.02L85.45,32.65z"/>
<g>
	<path style="fill:#FFFFFF;" d="M44.04,165.81c1.19-7.19,4-13.66,6.9-20.63c1.28-3.08,6.15-14.2-1.11-14.23
		c-2.63-0.01-5.02,3.09-6.62,4.82c-3.5,3.78-6.39,8.03-8.63,12.56c-2.51,5.08-4.17,10.48-5.16,15.99
		C33.35,164.06,38.58,164.26,44.04,165.81z"/>
	<path style="fill:#0088C5;" d="M46.7,191.1c-0.03-0.09-0.06-0.17-0.1-0.26c-0.86-2.27-1.51-4.43-2.02-6.56
		c-0.72-3.05-1.1-6.05-1.18-9.22c-0.04-1.57,0-3.18,0.1-4.86c0.1-1.5,0.29-2.95,0.53-4.39c-5.46-1.55-10.7-1.75-14.62-1.49
		c-0.48,2.66-0.81,5.35-0.98,8.05c-0.48,7.69-0.49,16.55,2.32,23.91c1.37,3.58,4.63,6.47,8.73,6.98c0.85,0.11,1.7,0.13,2.44,0.07
		c2.73-0.22,5.39-1.55,6.36-4.04c0.19-0.5,0.27-0.99,0.31-1.48C48.78,195.51,47.5,193.26,46.7,191.1z"/>
	<path d="M49.83,130.95C49.83,130.95,49.84,130.95,49.83,130.95c7.26,0.02,2.4,11.14,1.12,14.23c-2.9,6.97-5.71,13.44-6.9,20.63
		c-0.24,1.43-0.44,2.89-0.53,4.39c-0.11,1.68-0.14,3.29-0.1,4.86c0.08,3.18,0.46,6.17,1.18,9.22c0.5,2.14,1.16,4.29,2.02,6.56
		c0.03,0.09,0.06,0.17,0.1,0.26c0.8,2.15,2.08,4.41,1.91,6.71c-0.04,0.49-0.12,0.99-0.31,1.48c-0.97,2.49-3.63,3.82-6.36,4.04
		c-0.28,0.02-0.57,0.03-0.87,0.03c-0.51,0-1.04-0.03-1.58-0.1c-4.1-0.51-7.37-3.4-8.73-6.98c-2.81-7.36-2.8-16.22-2.32-23.91
		c0.17-2.7,0.5-5.39,0.98-8.05c0.99-5.51,2.66-10.9,5.16-15.99c2.24-4.53,5.13-8.78,8.63-12.56
		C44.82,134.04,47.21,130.95,49.83,130.95 M49.84,127L49.84,127c-4.07,0-6.99,3.26-8.92,5.42l-0.6,0.67
		c-3.72,4.01-6.84,8.55-9.28,13.5c-2.56,5.18-4.41,10.92-5.51,17.03c-0.51,2.85-0.86,5.71-1.03,8.5c-0.47,7.53-0.6,17.25,2.58,25.57
		c1.98,5.18,6.55,8.82,11.94,9.49c0.69,0.09,1.39,0.13,2.07,0.13c0.41,0,0.81-0.02,1.19-0.05c4.58-0.38,8.3-2.89,9.72-6.56
		c0.31-0.8,0.49-1.66,0.56-2.62c0.2-2.71-0.8-5.09-1.59-7c-0.19-0.46-0.38-0.92-0.55-1.37l-0.1-0.28c-0.78-2.06-1.39-4.04-1.87-6.08
		c-0.65-2.77-1.01-5.52-1.08-8.41c-0.04-1.44,0-2.91,0.1-4.51c0.07-1.18,0.23-2.45,0.48-3.99c1.05-6.34,3.54-12.3,6.17-18.61
		l0.48-1.15l0.11-0.27c2.37-5.66,4.42-12.02,1.63-16.22c-0.79-1.19-2.69-3.2-6.49-3.21C49.85,127,49.84,127,49.84,127L49.84,127z"/>
</g>
<g>
	<path style="fill-rule:evenodd;clip-rule:evenodd;fill:#FFFFFF;" d="M149.96,112.96c-6.88,8.5-20.39,14.26-36.14,15.45
		c-39.1,2.87-59.39-8.73-62.06-35.51c-0.36-3.79-1.65-23.32,9.82-36.86c6.85-8.14,17.13-12.72,30.47-13.6
		c45.99-3.13,49.51,30.83,49.64,32.28c0.07,0.82,0.66,1.52,1.45,1.75c0.43,0.1,10.31,2.93,12.09,15.61
		C156.39,100.14,154.61,107.16,149.96,112.96z"/>
	<path d="M159.15,91.51c-1.78-12.62-10.41-17.16-13.7-18.45c-1.15-6.49-8.4-34.79-47.73-34.79c-1.88,0-3.89,0.07-5.93,0.2
		c-14.46,0.99-25.63,6.03-33.24,14.99c-12.19,14.4-11.27,34.13-10.71,39.83c2.64,26.52,20.56,39.5,54.72,39.5
		c3.66,0,7.51-0.16,11.56-0.46c17.06-1.25,31.26-7.41,38.9-16.9C158.4,108.77,160.47,100.73,159.15,91.51z M51.77,92.89
		c-0.36-3.79-1.65-23.32,9.82-36.86c6.85-8.14,17.13-12.72,30.47-13.6c45.99-3.13,49.51,30.83,49.64,32.28
		c0.07,0.82,0.66,1.52,1.45,1.75c0.43,0.1,10.31,2.93,12.09,15.61c1.15,8.07-0.63,15.09-5.27,20.88
		c-6.88,8.5-20.39,14.26-36.14,15.45C74.73,131.27,54.43,119.68,51.77,92.89z"/>
	<path style="fill-rule:evenodd;clip-rule:evenodd;fill:#FFBEB8;" d="M109.45,96.52c0.19,8.07-5.86,14.77-13.52,14.95
		s-14.03-6.21-14.22-14.28c-0.19-8.06,5.86-14.76,13.52-14.94S109.26,88.46,109.45,96.52"/>
	<path style="fill-rule:evenodd;clip-rule:evenodd;fill:#FFBEB8;" d="M154.5,90.14c-0.69-2.74-3.94-11.93-8.41-8.63
		c-6.03,4.45-3.24,15.77-0.25,21.39c1.18,2.21,3.3,4.8,6.27,4.24c1.68-0.31,2.3-3.49,2.52-4.58
		C155.47,98.48,155.52,94.19,154.5,90.14z"/>
</g>
<g>
	<path style="fill-rule:evenodd;clip-rule:evenodd;" d="M133.25,89.17c0.03,1.05-1.06,1.93-2.45,1.96
		c-1.39,0.03-2.53-0.79-2.55-1.84c-0.03-1.04,1.07-1.93,2.46-1.96C132.1,87.29,133.23,88.12,133.25,89.17"/>
	<path style="fill-rule:evenodd;clip-rule:evenodd;" d="M136.74,86.81L136.74,86.81c-1.44,0.03-2.64-1.35-2.68-3.09l-0.01-0.44
		c-0.04-1.74,1.09-3.19,2.53-3.22c1.44-0.03,2.64,1.35,2.69,3.09l0.01,0.44C139.32,85.34,138.18,86.78,136.74,86.81"/>
	<path style="fill-rule:evenodd;clip-rule:evenodd;" d="M114.42,87.35L114.42,87.35c-1.69,0.04-3.1-1.34-3.14-3.08l-0.01-0.44
		c-0.04-1.74,1.3-3.19,2.99-3.23s3.1,1.34,3.15,3.08l0.01,0.44C117.46,85.86,116.12,87.31,114.42,87.35"/>
	<path style="fill:#231815;" d="M141.99,93.18c-0.48-0.78-1.5-1.02-2.26-0.55c-0.78,0.47-1.02,1.49-0.55,2.26
		c0.06,0.1,0.19,0.31-0.37,0.98c-1.15,1.38-2.7,1.53-3.53,1.51c-1.56-0.05-3.05-0.8-3.89-1.95c-0.06-0.08-0.14-0.13-0.22-0.2
		c-0.06-0.06-0.11-0.14-0.19-0.19c-0.01-0.01-0.03-0.01-0.04-0.02c-0.13-0.08-0.27-0.13-0.41-0.17c-0.06-0.02-0.12-0.05-0.18-0.07
		c-0.14-0.03-0.27-0.01-0.41,0c-0.07,0.01-0.15-0.01-0.22,0.01c-0.11,0.02-0.2,0.08-0.31,0.12c-0.1,0.04-0.2,0.07-0.29,0.13
		c-0.01,0.01-0.03,0.01-0.05,0.02c-0.09,0.06-0.14,0.15-0.21,0.22c-0.06,0.06-0.14,0.11-0.19,0.18c-2.35,3.44-8.83,4.26-12.85,1.61
		c-0.93-0.61-1.47-1.15-1.69-1.44c0.3-0.64,0.17-1.42-0.38-1.92c-0.67-0.61-1.71-0.56-2.33,0.11c-0.53,0.58-0.77,1.32-0.67,2.09
		c0.16,1.28,1.26,2.6,3.26,3.91c2.19,1.44,4.82,2.12,7.41,2.12c3.28,0,6.44-1.15,8.62-3.19c1.4,1.15,3.2,1.84,5.1,1.91
		c0.09,0,0.19,0,0.28,0c2.32,0,4.46-0.97,5.89-2.7C143.14,95.83,142.52,94.05,141.99,93.18z"/>
</g>
</svg>
