<?xml version="1.0" encoding="utf-8"?>
<!-- Generator: Adobe Illustrator 24.1.1, SVG Export Plug-In . SVG Version: 6.00 Build 0)  -->
<!DOCTYPE svg PUBLIC "-//W3C//DTD SVG 1.1//EN" "http://www.w3.org/Graphics/SVG/1.1/DTD/svg11.dtd" [
	<!ENTITY ns_extend "http://ns.adobe.com/Extensibility/1.0/">
	<!ENTITY ns_ai "http://ns.adobe.com/AdobeIllustrator/10.0/">
	<!ENTITY ns_graphs "http://ns.adobe.com/Graphs/1.0/">
	<!ENTITY ns_vars "http://ns.adobe.com/Variables/1.0/">
	<!ENTITY ns_imrep "http://ns.adobe.com/ImageReplacement/1.0/">
	<!ENTITY ns_sfw "http://ns.adobe.com/SaveForWeb/1.0/">
	<!ENTITY ns_custom "http://ns.adobe.com/GenericCustomNamespace/1.0/">
	<!ENTITY ns_adobe_xpath "http://ns.adobe.com/XPath/1.0/">
]>
<svg version="1.1" id="Layer_1" xmlns:x="&ns_extend;" xmlns:i="&ns_ai;" xmlns:graph="&ns_graphs;"
	 xmlns="http://www.w3.org/2000/svg" xmlns:xlink="http://www.w3.org/1999/xlink" x="0px" y="0px" viewBox="0 0 240 240"
	 style="enable-background:new 0 0 240 240;" xml:space="preserve">
<metadata>
	<sfw  xmlns="&ns_sfw;">
		<slices></slices>
		<sliceSourceBounds  bottomLeftOrigin="true" height="225.42" width="1043.05" x="30.28" y="-229.62"></sliceSourceBounds>
	</sfw>
</metadata>
<g>
	<g>
		<path style="fill:#B63B00;" d="M45.57,198.55c0,0-1.37,29.43,22.26,28.69s31.69-24.36,20.11-31.9
			C76.36,187.81,52.97,177.26,45.57,198.55z"/>
		<path style="fill:#FFC800;" d="M82.79,208.83c-0.44,0.2-1.59,0.38-2.54,0.53c-2.77,0.43-6.97,1.08-11.94,3.91
			c-1.66,0.95-4.66,2.37-6.08,1.22c-2.05-1.66-1.95-8.52,0.21-15.3c0.3-0.95,0.8-1.5,1.63-1.79c0.49-0.17,1.06-0.25,1.7-0.25
			c4.15,0,10.98,3.39,15.13,6.04C82.56,206.98,82.83,208.35,82.79,208.83z"/>
		<path style="fill:#F89300;" d="M84.52,200.9c-0.16-0.37-0.43-0.68-0.76-0.9c-1.42-0.94-14.02-9.06-21.09-6.58
			c-2.08,0.73-3.54,2.29-4.25,4.49c-2.22,6.95-3.25,16.31,1.15,19.88c1.14,0.92,2.48,1.38,4.03,1.38c1.96,0,4.24-0.74,6.81-2.21
			c4.29-2.45,7.88-3.01,10.5-3.41c2.45-0.38,4.57-0.71,5.61-2.63C87.67,208.81,86.75,205.89,84.52,200.9z M82.79,208.83
			c-0.44,0.2-1.59,0.38-2.54,0.53c-2.77,0.43-6.97,1.08-11.94,3.91c-1.66,0.95-4.66,2.37-6.08,1.22c-2.05-1.66-1.95-8.52,0.21-15.3
			c0.3-0.95,0.8-1.5,1.63-1.79c0.49-0.17,1.06-0.25,1.7-0.25c4.15,0,10.98,3.39,15.13,6.04C82.56,206.98,82.83,208.35,82.79,208.83z
			"/>
	</g>
	<g>
		<path style="fill:#B63B00;" d="M19.79,56.94c0,0-0.37,7.97,6.03,7.77c6.4-0.2,8.58-6.6,5.44-8.64
			C28.12,54.04,21.79,51.18,19.79,56.94z"/>
		<path style="fill:#FFC800;" d="M27.91,59.09c-0.01,0.81-0.83,1.24-1.07,1.35c-0.71,0.31-1.49,0.27-1.91-0.11
			c-0.54-0.48-0.58-1.6-0.11-3.06c0.11-0.37,0.28-0.4,0.47-0.41h0.05c0.42,0,0.95,0.23,1.4,0.56c0.47,0.34,0.88,0.78,1.07,1.24
			C27.88,58.82,27.92,58.97,27.91,59.09z"/>
		<path style="fill:#F89300;" d="M29.76,57.83c-0.73-1.72-2.88-3.18-4.57-3.09c-1.15,0.06-2.02,0.74-2.39,1.88
			c-0.95,2.98-0.14,4.52,0.71,5.28c0.63,0.56,1.48,0.86,2.37,0.86c0.59,0,1.21-0.13,1.8-0.39c1.43-0.63,2.33-1.88,2.34-3.27
			C30.03,58.69,29.94,58.26,29.76,57.83z M24.93,60.33c-0.54-0.48-0.58-1.6-0.11-3.06c0.11-0.37,0.28-0.4,0.47-0.41h0.05
			c0.42,0,0.95,0.23,1.4,0.56c0.47,0.34,0.88,0.78,1.07,1.24c0.07,0.16,0.11,0.31,0.1,0.43c-0.01,0.81-0.83,1.24-1.07,1.35
			C26.12,60.75,25.35,60.7,24.93,60.33z"/>
	</g>
	<g>
		<g>
			<path style="fill:#B63B00;" d="M145.98,30.38c0,0-0.37,7.97,6.03,7.77c6.4-0.2,8.58-6.6,5.44-8.64S147.98,24.61,145.98,30.38z"/>
			<path style="fill:#FFC800;" d="M154.1,32.52c-0.01,0.81-0.83,1.24-1.08,1.34c-0.71,0.31-1.49,0.27-1.9-0.1
				c-0.54-0.49-0.58-1.6-0.11-3.06c0.12-0.37,0.28-0.4,0.47-0.42h0.06c0.42,0,0.94,0.23,1.4,0.56c0.47,0.35,0.88,0.8,1.07,1.24
				C154.06,32.25,154.1,32.4,154.1,32.52z"/>
			<path style="fill:#F89300;" d="M155.95,31.26c-0.73-1.72-2.88-3.17-4.57-3.08c-1.15,0.05-2.02,0.74-2.39,1.88
				c-0.95,2.98-0.13,4.51,0.71,5.28c0.63,0.56,1.47,0.85,2.36,0.85c0.59,0,1.21-0.13,1.81-0.39c1.43-0.63,2.33-1.88,2.34-3.26V32.5
				C156.22,32.09,156.12,31.68,155.95,31.26z M151.12,33.77c-0.54-0.49-0.58-1.6-0.11-3.06c0.12-0.37,0.28-0.4,0.47-0.42h0.06
				c0.42,0,0.94,0.23,1.4,0.56c0.47,0.35,0.88,0.8,1.07,1.24c0.06,0.16,0.1,0.3,0.1,0.43c-0.01,0.81-0.83,1.24-1.08,1.34
				C152.31,34.18,151.53,34.13,151.12,33.77z"/>
		</g>
		<path style="fill:#B63B00;" d="M124.81,32.29c0,0,17.55,3.02,18.87-11.21S131.44,0.26,126.06,6.64
			C120.67,13.02,112.6,26.26,124.81,32.29z"/>
		<path style="fill:#FFC800;" d="M134.13,22.29c-1.43,1.24-4.08,1.05-7.46-0.51c-1.08-0.5-1.18-1.16-1.13-1.74
			c0.16-2.1,2.75-4.95,5.12-5.63c0.45-0.13,0.87-0.17,1.23-0.12c2.15,0.29,2.98,2.51,3.18,3.19
			C135.63,19.38,135.26,21.31,134.13,22.29z"/>
		<path style="fill:#F89300;" d="M138.45,16.47c-0.93-3.12-3.27-5.29-6.09-5.68c-0.25-0.04-0.52-0.05-0.78-0.05
			c-0.61,0-1.24,0.09-1.88,0.28c-3.8,1.08-7.39,5.17-7.67,8.75c-0.18,2.3,0.97,4.2,3.17,5.21c2.6,1.21,4.72,1.66,6.42,1.66
			c2.26,0,3.8-0.8,4.83-1.68C138.63,23.06,139.42,19.73,138.45,16.47z M134.13,22.29c-1.43,1.24-4.08,1.05-7.46-0.51
			c-1.08-0.5-1.18-1.16-1.13-1.74c0.16-2.1,2.75-4.95,5.12-5.63c0.45-0.13,0.87-0.17,1.23-0.12c2.15,0.29,2.98,2.51,3.18,3.19
			C135.63,19.38,135.26,21.31,134.13,22.29z"/>
	</g>
	<g>
		<path style="fill:#402C24;" d="M196.36,128.9c-3.96,4.4-11.63,5.56-17.29,5.77c-0.03-0.37-0.06-0.74-0.11-1.11
			c14.45-0.95,19.28-15.56,12.04-20.27c-0.83-0.54-1.74-1.09-2.73-1.65c0.33-1.06,0.59-2.16,0.76-3.3c5.48,3.05,9.04,9.28,9.7,10.52
			C199.41,123.08,198.64,126.36,196.36,128.9z"/>
		<path style="fill:#402C24;" d="M137.55,170.86c-0.81,4.72-2.93,8.41-6.32,11.02c-8.04,6.17-20.89,4.6-22.82,4.33
			c-5.15-2.61-8.25-6.23-9.2-10.76c-0.28-1.37-0.37-2.77-0.3-4.21c1.12,0.13,2.24,0.21,3.37,0.21h0.05
			c1.12,3.35,3.66,6.35,8.26,8.61c0,0,19.04,3.28,24.85-9.52C136.14,170.67,136.84,170.78,137.55,170.86z"/>
		<path style="fill:#402C24;" d="M103.23,159.02c-1.11,2.97-1.74,6.01-1.57,8.89c-3.8-0.11-7.67-1.18-11.61-2.36
			c-7.52-2.28-16.13-5.13-23.02-10.24c-7.24-5.36-11.72-12.93-12-20.24c-0.2-5.22,8.41-16.43,18.44-23.97
			c0.61-0.46,0.85-1.26,0.61-1.98c-0.25-0.71-0.92-1.19-1.67-1.19c-0.01,0-0.01,0-0.01,0c-6.56,0.06-13.69-2.85-20.12-8.22
			c-3.62-3.02-5.23-6.24-4.91-9.85c0.94-10.68,18.2-20.99,19.51-21.77c5.5-2.37,10.5-2.1,14.48,0.78
			c5.77,4.18,9.01,13.68,8.08,23.64c-0.32,3.37-1.4,6.34-3.23,8.82c-0.42,0.56-0.46,1.33-0.11,1.93c0.35,0.61,1.02,0.95,1.73,0.87
			c0.44-0.05,0.86-0.08,1.26-0.08c2.17,0,3.84,0.73,5.05,2.21c-10.54,0.66-27.79,18.36-27.51,25.75c0.25,6.78,4.52,12.91,9.97,16.95
			c5.45,4.03,11.99,6.28,18.48,8.24C97.75,158,100.47,158.76,103.23,159.02z"/>
		<path style="fill:#402C24;" d="M129.75,93.22c-3.66-5.41-8.24-10.36-14.53-10.98c-6.32-0.64-12.48,3.83-14.97,9.68
			c-2.49,5.84-1.77,12.7,0.71,18.55c-0.56-1.31-1.29-2.28-2.18-2.96c-0.01-0.18-0.06-0.35-0.13-0.52c-3.3-7.77-3.62-15.88-0.9-22.26
			c3.08-7.23,10.35-11.96,17.28-11.27c0.28,0.03,0.55,0.06,0.82,0.11c0.2,0.03,0.41,0.06,0.61,0.11c0.15,0.03,0.3,0.06,0.45,0.1
			c0.15,0.03,0.29,0.06,0.44,0.11c0.07,0.01,0.14,0.04,0.2,0.06c0.18,0.04,0.36,0.1,0.54,0.16c0.06,0.02,0.13,0.04,0.19,0.06
			c0.18,0.05,0.35,0.11,0.52,0.18c1.01,0.36,1.98,0.83,2.91,1.38c0.14,0.08,0.29,0.18,0.43,0.27c0.15,0.08,0.29,0.18,0.42,0.28
			c0.23,0.15,0.45,0.3,0.67,0.46c0.22,0.16,0.42,0.31,0.64,0.48c0.9,0.68,1.76,1.45,2.6,2.29c0.2,0.2,0.41,0.42,0.61,0.63
			c0.21,0.23,0.42,0.45,0.64,0.68c0.19,0.21,0.38,0.42,0.56,0.64c0.2,0.23,0.39,0.46,0.59,0.69c0.39,0.47,0.77,0.95,1.14,1.43
			c0.37,0.49,0.75,1,1.12,1.5c0.25,0.34,0.49,0.68,0.73,1.03c0.3,0.43,0.59,0.87,0.88,1.31c0.17,0.25,0.34,0.51,0.51,0.77
			C131.88,89.8,130.72,91.49,129.75,93.22z"/>
		<path style="fill:#402C24;" d="M175.61,136.46c0,0.4-0.01,0.79-0.04,1.19c-0.01,0.19-0.03,0.39-0.04,0.58
			c0,0.04-0.01,0.07-0.01,0.11c-0.01,0.2-0.04,0.4-0.06,0.59c-0.02,0.2-0.04,0.4-0.08,0.59c-0.04,0.28-0.08,0.54-0.13,0.82
			c-0.03,0.17-0.06,0.35-0.09,0.52c-0.04,0.2-0.08,0.42-0.13,0.62c-0.05,0.25-0.11,0.49-0.17,0.73c-0.06,0.25-0.13,0.51-0.2,0.76
			c-0.02,0.09-0.05,0.19-0.08,0.28c-0.06,0.2-0.12,0.41-0.19,0.61c-0.08,0.28-0.18,0.55-0.28,0.83c-0.08,0.21-0.16,0.43-0.24,0.64
			c-0.11,0.28-0.21,0.54-0.33,0.82c-0.08,0.2-0.16,0.39-0.25,0.59c-0.05,0.11-0.1,0.23-0.16,0.34c-0.08,0.19-0.18,0.38-0.27,0.57
			c-0.07,0.14-0.13,0.28-0.21,0.42c-0.11,0.21-0.21,0.42-0.32,0.63c-0.01,0.03-0.03,0.06-0.05,0.09c-0.13,0.23-0.26,0.47-0.4,0.71
			c-0.07,0.12-0.14,0.24-0.21,0.36c-0.13,0.21-0.25,0.42-0.38,0.63c-0.16,0.25-0.32,0.49-0.47,0.73c-0.1,0.15-0.2,0.3-0.3,0.44
			c-0.14,0.2-0.28,0.41-0.43,0.61c-0.18,0.25-0.37,0.52-0.57,0.77c-0.4,0.52-0.82,1.03-1.25,1.53c-0.2,0.23-0.4,0.46-0.61,0.68
			c-0.9,0.99-1.86,1.93-2.88,2.83c-0.2,0.18-0.4,0.35-0.61,0.53c-0.31,0.27-0.64,0.53-0.96,0.78c-0.26,0.2-0.53,0.41-0.79,0.61
			c-0.3,0.23-0.61,0.45-0.92,0.66c-0.31,0.22-0.62,0.43-0.94,0.64c-0.32,0.21-0.64,0.42-0.97,0.61c-1.3,0.8-2.66,1.55-4.08,2.21
			c-0.6,0.28-1.21,0.55-1.81,0.8c-0.07,0.03-0.13,0.06-0.2,0.08c-0.4,0.16-0.79,0.32-1.18,0.46c-0.44,0.17-0.88,0.32-1.32,0.47
			c-0.91,0.3-1.82,0.56-2.72,0.78c-0.56,0.13-1.14,0.26-1.69,0.36c-0.06,0.01-0.13,0.03-0.2,0.04c-0.54,0.1-1.08,0.18-1.62,0.25
			c-0.28,0.04-0.57,0.07-0.87,0.1c-0.58,0.05-1.15,0.09-1.72,0.11c-0.25,0.01-0.49,0.01-0.73,0.01c-0.3,0.01-0.6,0-0.9-0.01
			c-0.26-0.01-0.52-0.02-0.78-0.04c-0.03,0-0.06-0.01-0.09-0.01c-0.3-0.01-0.59-0.04-0.88-0.07c-0.29-0.03-0.59-0.06-0.88-0.1
			c-0.23-0.03-0.44-0.06-0.67-0.08c-0.23-0.03-0.44-0.06-0.67-0.1v-0.01c0.2-0.87,0.35-1.79,0.44-2.77
			c0.18-1.98,0.16-3.83-0.04-5.59c3.61-0.2,7.17-1.24,10.46-2.78c8.71-4.07,15.97-12.35,16.55-21.95c0.1-1.64-0.05-3.29-0.42-4.9
			c0.37-0.07,0.76-0.15,1.13-0.23c0.58-0.12,1.16-0.25,1.74-0.38c0.3-0.07,0.59-0.14,0.88-0.22c1.69,2.51,4.24,4.53,8.08,5.1h0.01
			v0.02c0.04,0.19,0.06,0.39,0.08,0.59c0.02,0.13,0.04,0.27,0.04,0.4c0.03,0.25,0.05,0.49,0.06,0.73
			C175.6,135.61,175.61,136.03,175.61,136.46z"/>
		<path style="fill:#B63B00;" d="M163.98,134.07c-0.58,9.6-7.84,17.87-16.55,21.95c-3.29,1.54-6.85,2.58-10.46,2.78
			c0.19,1.76,0.22,3.61,0.04,5.59c-0.09,0.98-0.24,1.91-0.44,2.77v0.01c-0.28,1.24-0.66,2.36-1.13,3.39
			c-5.82,12.8-24.85,9.52-24.85,9.52c-4.6-2.27-7.14-5.27-8.26-8.61c-0.39-1.14-0.6-2.33-0.67-3.54c-0.18-2.89,0.46-5.92,1.57-8.89
			c-2.75-0.25-5.48-1.02-8.14-1.82c-6.49-1.96-13.03-4.21-18.48-8.24c-5.45-4.04-9.72-10.17-9.97-16.95
			c-0.28-7.39,16.97-25.09,27.51-25.75c1.77-0.11,3.35,0.26,4.63,1.24c0.89,0.68,1.62,1.65,2.18,2.96
			c-2.48-5.85-3.2-12.71-0.71-18.55c2.49-5.85,8.65-10.31,14.97-9.68c6.29,0.63,10.87,5.58,14.53,10.98
			c-0.2,0.35-0.39,0.7-0.57,1.05c-0.2,0.37-0.38,0.74-0.55,1.11c-0.08,0.17-0.17,0.34-0.24,0.51c-0.08,0.17-0.16,0.34-0.23,0.51
			c-0.12,0.27-0.23,0.54-0.35,0.81c-0.11,0.28-0.22,0.55-0.32,0.83c-0.02,0.06-0.05,0.13-0.07,0.2c-0.08,0.22-0.16,0.43-0.23,0.65
			c-0.01,0.01-0.01,0.02-0.01,0.04c-0.05,0.13-0.1,0.26-0.13,0.4c-0.08,0.25-0.16,0.49-0.23,0.73c-0.02,0.07-0.04,0.14-0.06,0.2
			c-0.06,0.2-0.12,0.4-0.17,0.61c0,0.01,0,0.01-0.01,0.01c-0.08,0.29-0.16,0.58-0.22,0.87c-0.07,0.28-0.13,0.55-0.19,0.82
			c-0.06,0.28-0.11,0.54-0.16,0.81c-0.04,0.16-0.06,0.32-0.09,0.48c-0.02,0.11-0.04,0.23-0.05,0.33c-0.07,0.43-0.13,0.86-0.18,1.28
			c-0.04,0.24-0.06,0.48-0.08,0.72c-0.03,0.28-0.05,0.54-0.07,0.82c-0.01,0.2-0.02,0.39-0.03,0.58c0,0.01,0,0.01,0,0.01
			c-0.01,0.2-0.02,0.39-0.02,0.59v0.01c-0.02,0.47-0.02,0.94,0,1.4c-0.01,0.13,0,0.25,0.01,0.38c0,0.16,0.01,0.32,0.02,0.49
			c0.01,0.31,0.04,0.61,0.06,0.92c0.02,0.27,0.05,0.53,0.08,0.8c0.03,0.26,0.06,0.52,0.1,0.78c0.04,0.26,0.08,0.52,0.13,0.78
			c0.08,0.51,0.19,1.01,0.31,1.5c2.09,8.7,8.15,14.44,15.83,14.96c0.61,0.04,1.28,0.08,2.01,0.11c0.36,0.01,0.73,0.03,1.11,0.04
			c0.26,0.01,0.53,0.02,0.8,0.03c0.33,0.01,0.67,0.01,1.02,0.02c0.59,0.01,1.19,0.02,1.81,0.02c0.26,0,0.52,0,0.79-0.01
			c0.27,0,0.54,0,0.81-0.01c0.28,0,0.56-0.01,0.85-0.01c0.27-0.01,0.54-0.01,0.82-0.03c0.28-0.01,0.57-0.02,0.86-0.04
			c0.28-0.01,0.58-0.02,0.87-0.04c0.29-0.01,0.59-0.03,0.88-0.05c0.3-0.01,0.61-0.04,0.91-0.06c0.44-0.04,0.88-0.07,1.33-0.11
			c0.12-0.01,0.25-0.02,0.37-0.04c0.12-0.01,0.25-0.02,0.37-0.04c0.39-0.04,0.78-0.08,1.18-0.13c0.32-0.04,0.65-0.07,0.97-0.12
			c0.12-0.01,0.23-0.03,0.35-0.04c0.04-0.01,0.08-0.01,0.12-0.01c0.37-0.05,0.75-0.1,1.12-0.16c0.53-0.08,1.06-0.16,1.6-0.25
			c0.2-0.04,0.4-0.07,0.6-0.11C163.93,130.78,164.08,132.43,163.98,134.07z"/>
		<path style="fill:#FFC800;" d="M127.3,171.22c-2.65,2.31-7.38,2.07-13.28-0.66c-1.8-0.83-2.61-2.11-2.47-3.9
			c0.3-3.87,4.81-8.87,9.11-10.09c0.88-0.25,1.69-0.32,2.44-0.23c2.8,0.37,5.06,2.6,6.06,5.94
			C130.19,165.76,129.45,169.35,127.3,171.22z"/>
		<path style="fill:#F89300;" d="M132.53,161.26c-1.38-4.64-4.82-7.87-8.97-8.43c-0.37-0.05-0.73-0.07-1.11-0.07
			c-0.9,0-1.82,0.13-2.77,0.4c-5.68,1.62-11.24,7.92-11.65,13.21c-0.26,3.3,1.34,5.92,4.5,7.38c4.06,1.88,7.33,2.58,9.94,2.58
			c3.36,0,5.63-1.16,7.14-2.46C132.84,171.09,133.99,166.13,132.53,161.26z M127.3,171.22c-2.65,2.31-7.38,2.07-13.28-0.66
			c-1.8-0.83-2.61-2.11-2.47-3.9c0.3-3.87,4.81-8.87,9.11-10.09c0.88-0.25,1.69-0.32,2.44-0.23c2.8,0.37,5.06,2.6,6.06,5.94
			C130.19,165.76,129.45,169.35,127.3,171.22z"/>
		<path style="fill:#B63B00;" d="M57.44,76.3c0,0-12.39,16.89,1.9,25.75s28.35-1.96,24.46-10.98S70.2,66.6,57.44,76.3z"/>
		<path style="fill:#FFC800;" d="M75.91,93.03c-0.33,1.88-0.6,2.8-0.78,3.26c-0.32-0.13-0.76-0.32-1.14-0.5
			c-1.86-0.85-4.66-2.15-8.82-2.43c-2.38-0.16-3.4-0.78-3.54-1.25c-0.42-1.34,1.92-5.09,5.94-8.31c0.32-0.26,0.58-0.35,0.82-0.35
			c0.11,0,0.21,0.01,0.32,0.04C71.03,84.08,74.21,89.23,75.91,93.03z"/>
		<path style="fill:#F89300;" d="M80.05,91.93c-0.78-1.86-4.98-11.2-10.31-12.54c-1.71-0.43-3.37-0.05-4.82,1.1
			c-1.52,1.22-9.01,7.55-7.33,12.89c0.78,2.51,3.24,3.92,7.29,4.2c3.39,0.23,5.67,1.28,7.34,2.05c1.14,0.52,2.24,1.03,3.33,1.03
			c0.52,0,1.04-0.11,1.57-0.39c1.74-0.92,2.4-3.13,3.08-7.16C80.26,92.71,80.21,92.31,80.05,91.93z M73.99,95.79
			c-1.86-0.85-4.66-2.15-8.82-2.43c-2.38-0.16-3.4-0.78-3.54-1.25c-0.42-1.34,1.92-5.09,5.94-8.31c0.32-0.26,0.58-0.35,0.82-0.35
			c0.11,0,0.21,0.01,0.32,0.04c2.33,0.59,5.51,5.74,7.21,9.53c-0.33,1.88-0.6,2.8-0.78,3.26C74.8,96.16,74.36,95.96,73.99,95.79z"/>
		<path style="fill:#FFC800;" d="M147.03,132.27c-0.32,5.41-4.36,10.69-10.28,13.47c-2.8,1.31-5.49,1.9-8.03,1.75
			c-1.45-0.08-2.93-0.42-4.49-0.77c-2.37-0.53-4.82-1.09-7.44-0.81c-1.48,0.16-2.84,0.56-4.16,0.95c-1.15,0.35-2.24,0.66-3.3,0.79
			c-2.36,0.27-4.88-0.41-7.45-1.19c-4.19-1.26-8.59-2.73-12.2-5.4c-3.67-2.72-5.94-6.52-6.08-10.16
			c-0.13-3.53,9.4-14.05,16.19-15.57c0.48-0.11,0.89-0.15,1.25-0.15c1.43,0,1.99,0.77,2.36,1.64c0,0,0,0,0.01,0.01
			c0.45,1.07,1.69,1.57,2.77,1.12c1.07-0.46,1.58-1.7,1.12-2.78c0,0,0,0-0.01-0.01c-1.67-3.95-1.85-8.04-0.49-11.23
			c1.46-3.43,5.01-5.78,8.25-5.45c4.28,0.43,7.43,4.72,10.18,9.29c0.08,0.14,0.17,0.28,0.26,0.43v0.01
			c-0.07,2.47,0.18,4.84,0.71,7.04c2.09,8.7,8.15,14.44,15.83,14.96c1.37,0.09,3.05,0.18,4.94,0.2
			C147.05,131.03,147.07,131.65,147.03,132.27z"/>
		<path style="fill:#F89300;" d="M151.22,130.39c-0.84,0.02-1.67,0.03-2.46,0.03c-0.62,0-1.22-0.01-1.81-0.02
			c0.09,0.63,0.11,1.25,0.08,1.86c-0.32,5.41-4.36,10.69-10.28,13.47c-2.8,1.31-5.49,1.9-8.03,1.75c-1.45-0.08-2.93-0.42-4.49-0.77
			c-2.37-0.53-4.82-1.09-7.44-0.81c-1.48,0.16-2.84,0.56-4.16,0.95c-1.15,0.35-2.24,0.66-3.3,0.79c-2.36,0.27-4.88-0.41-7.45-1.19
			c-4.19-1.26-8.59-2.73-12.2-5.4c-3.67-2.72-5.94-6.52-6.08-10.16c-0.13-3.53,9.4-14.05,16.19-15.57c0.48-0.11,0.89-0.15,1.25-0.15
			c1.43,0,1.99,0.77,2.36,1.64c0,0,0,0,0.01,0.01c0.45,1.07,1.69,1.57,2.77,1.12c1.07-0.46,1.58-1.7,1.12-2.78c0,0,0,0-0.01-0.01
			c-1.67-3.95-1.85-8.04-0.49-11.23c1.46-3.43,5.01-5.78,8.25-5.45c4.28,0.43,7.43,4.72,10.18,9.29c0.08,0.14,0.17,0.28,0.26,0.43
			c0.05-2.1,0.33-4.26,0.87-6.44c-2.82-3.9-6.2-7.02-10.89-7.49c-5.09-0.51-10.37,2.85-12.56,8c-1.12,2.61-1.48,5.62-1.09,8.72
			c-0.91-0.09-1.9-0.02-2.94,0.21c-8.07,1.8-19.73,13.68-19.5,19.86c0.18,4.91,3.09,9.92,7.79,13.4c4.16,3.08,9.15,4.74,13.5,6.06
			c2.51,0.76,4.98,1.43,7.56,1.43c0.53,0,1.07-0.04,1.61-0.09c1.43-0.17,2.75-0.56,4.02-0.93c1.19-0.35,2.31-0.68,3.4-0.8
			c1.93-0.2,3.95,0.25,6.08,0.73c1.65,0.37,3.37,0.76,5.17,0.87c3.24,0.19,6.63-0.53,10.07-2.15c7.31-3.42,12.3-10.11,12.71-17.05
			C151.3,131.81,151.29,131.11,151.22,130.39z"/>
		<path style="fill:#402C24;" d="M129.15,106.07c0.08-0.77,0.2-1.55,0.36-2.34C129.36,104.52,129.24,105.3,129.15,106.07z"/>
		<path style="fill:#402C24;" d="M131.11,98.46c-0.23,0.56-0.44,1.12-0.63,1.67C130.67,99.58,130.88,99.02,131.11,98.46z"/>
		<path d="M144.03,130.31c-0.73-0.04-1.4-0.07-2.01-0.11C142.63,130.24,143.3,130.28,144.03,130.31z"/>
		<path d="M202.16,117.99c-0.03-0.17-0.08-0.33-0.16-0.48c-0.2-0.42-4.76-9.4-12.66-12.96c0.03-1.94-0.15-3.98-0.52-6.12
			c-0.03-0.16-0.08-0.32-0.16-0.48c-0.36-0.72-8.99-17.77-23.77-22.09c-6.92-2.03-14.01-0.9-21.08,3.32
			c-3.16,1.89-5.86,4.02-8.14,6.3c-5.24-7.94-11.48-14.67-20.31-15.55c-8.43-0.85-17.21,4.79-20.88,13.4
			c-0.59,1.36-1.04,2.8-1.38,4.28c-0.33-9.25-3.89-17.41-9.68-21.59c-3.53-2.56-9.54-4.83-18.06-1.11
			c-0.06,0.02-0.11,0.05-0.17,0.08c-0.83,0.47-20.22,11.68-21.35,24.56c-0.42,4.78,1.64,9.11,6.16,12.88
			c5.71,4.77,11.8,7.72,17.82,8.69c-8.7,7.46-16.57,17.65-16.33,24.09c0.32,8.38,5.34,16.95,13.43,22.95
			c7.34,5.44,16.28,8.41,24.09,10.77c2.14,0.65,4.26,1.26,6.38,1.72c-0.13,1.86-0.04,3.72,0.35,5.53c1.19,5.72,5,10.2,11.33,13.32
			c0.16,0.08,0.32,0.13,0.48,0.16c0.26,0.05,2.94,0.49,6.68,0.49c5.47,0,13.24-0.95,19.11-5.45c4.23-3.24,6.83-7.8,7.73-13.59
			c5.13,0.04,10.48-1.24,15.92-3.78c12.58-5.89,21.21-17.29,22.07-29.11c6.5-0.21,15.11-1.61,19.91-6.95
			C202.04,127.86,203.11,123.4,202.16,117.99z M92.43,96c0.1,1.73,0.33,3.48,0.71,5.24c-0.74-0.3-1.53-0.5-2.38-0.61
			C91.49,99.18,92.05,97.63,92.43,96z M196.36,128.9c-3.96,4.4-11.63,5.56-17.29,5.77c-0.03-0.37-0.06-0.74-0.11-1.11
			c-0.25,0.02-0.51,0.04-0.77,0.04c-1.01,0.03-1.94-0.02-2.81-0.16c0.01,0.01,0.01,0.01,0.01,0.02c0.04,0.2,0.06,0.39,0.08,0.59
			c0.02,0.13,0.04,0.27,0.04,0.4c0.01,0.08,0.02,0.16,0.03,0.23c0.01,0.17,0.03,0.34,0.04,0.5c0.03,0.42,0.04,0.85,0.04,1.27
			c0,0.4-0.01,0.79-0.04,1.19c-0.01,0.19-0.03,0.39-0.04,0.58c0,0.04-0.01,0.07-0.01,0.11c-0.01,0.2-0.03,0.4-0.06,0.59
			c-0.02,0.2-0.04,0.4-0.08,0.59c-0.04,0.28-0.08,0.54-0.13,0.82c-0.02,0.17-0.06,0.35-0.09,0.52c-0.04,0.2-0.08,0.42-0.13,0.62
			c-0.05,0.25-0.11,0.49-0.17,0.73c-0.06,0.25-0.13,0.51-0.2,0.76c-0.02,0.09-0.05,0.19-0.08,0.28c-0.06,0.2-0.12,0.41-0.19,0.61
			c-0.08,0.28-0.18,0.55-0.28,0.83c-0.08,0.21-0.16,0.43-0.24,0.64c-0.11,0.28-0.21,0.54-0.33,0.82c-0.08,0.2-0.16,0.39-0.25,0.59
			c-0.05,0.11-0.1,0.23-0.16,0.34c-0.08,0.19-0.18,0.38-0.27,0.57c-0.07,0.14-0.13,0.28-0.21,0.42c-0.1,0.21-0.21,0.42-0.32,0.63
			c-0.01,0.03-0.03,0.06-0.05,0.09c-0.13,0.24-0.26,0.47-0.4,0.71c-0.07,0.12-0.14,0.24-0.21,0.36c-0.12,0.21-0.25,0.42-0.38,0.63
			c-0.16,0.25-0.32,0.49-0.47,0.73c-0.1,0.15-0.2,0.29-0.3,0.44c-0.13,0.2-0.28,0.41-0.43,0.61c-0.18,0.25-0.37,0.52-0.57,0.77
			c-0.4,0.52-0.82,1.03-1.25,1.53c-0.2,0.23-0.4,0.46-0.61,0.68c-0.9,0.99-1.86,1.93-2.88,2.83c-0.2,0.18-0.41,0.36-0.61,0.53
			c-0.31,0.27-0.64,0.53-0.96,0.78c-0.26,0.2-0.52,0.41-0.79,0.61c-0.3,0.23-0.61,0.45-0.92,0.66c-0.31,0.22-0.62,0.43-0.94,0.64
			c-0.32,0.21-0.64,0.42-0.97,0.61c-1.3,0.8-2.66,1.55-4.08,2.21c-0.61,0.28-1.21,0.55-1.81,0.8c-0.07,0.03-0.13,0.06-0.2,0.08
			c-0.4,0.16-0.79,0.32-1.18,0.46c-0.44,0.17-0.88,0.32-1.32,0.47c-0.91,0.3-1.82,0.56-2.72,0.78c-0.56,0.14-1.13,0.26-1.69,0.36
			c-0.06,0.01-0.13,0.03-0.2,0.04c-0.54,0.1-1.08,0.18-1.62,0.25c-0.28,0.04-0.57,0.07-0.87,0.1c-0.58,0.06-1.15,0.09-1.72,0.11
			c-0.25,0.01-0.49,0.01-0.73,0.01c-0.3,0.01-0.6,0-0.9-0.01c-0.26-0.01-0.52-0.02-0.78-0.04c-0.03,0-0.06-0.01-0.09-0.01
			c-0.3-0.01-0.59-0.04-0.88-0.07c-0.3-0.03-0.59-0.06-0.88-0.1c-0.22-0.02-0.44-0.05-0.67-0.08c-0.23-0.03-0.44-0.06-0.67-0.1
			c-0.28,1.24-0.66,2.36-1.13,3.39c0.7,0.12,1.4,0.23,2.1,0.31c-0.81,4.72-2.93,8.41-6.32,11.02c-8.04,6.17-20.89,4.6-22.82,4.33
			c-5.15-2.61-8.25-6.23-9.2-10.76c-0.28-1.37-0.37-2.77-0.3-4.21c1.12,0.13,2.24,0.21,3.37,0.21h0.05
			c-0.39-1.14-0.6-2.33-0.67-3.54c-0.76-0.02-1.52-0.08-2.29-0.18c-0.58-0.07-1.16-0.16-1.74-0.25c-0.58-0.11-1.16-0.23-1.74-0.35
			c-1.93-0.42-3.88-0.99-5.84-1.58c-7.52-2.28-16.13-5.13-23.02-10.24c-7.24-5.36-11.72-12.93-12-20.24
			c-0.2-5.22,8.41-16.43,18.44-23.97c0.61-0.46,0.85-1.26,0.61-1.98c-0.25-0.71-0.92-1.19-1.67-1.19c-0.01,0-0.01,0-0.01,0
			c-6.56,0.06-13.69-2.85-20.12-8.22c-3.62-3.02-5.23-6.24-4.91-9.85c0.94-10.68,18.2-20.99,19.51-21.77
			c5.5-2.37,10.5-2.1,14.48,0.78c5.77,4.18,9.01,13.68,8.08,23.64c-0.32,3.37-1.4,6.34-3.23,8.82c-0.42,0.56-0.46,1.33-0.11,1.93
			c0.35,0.61,1.02,0.95,1.73,0.87c0.44-0.05,0.86-0.08,1.26-0.08c2.17,0,3.84,0.73,5.05,2.21c1.77-0.11,3.35,0.26,4.63,1.24
			c-0.01-0.18-0.06-0.35-0.13-0.52c-3.3-7.77-3.62-15.88-0.9-22.26c3.08-7.23,10.35-11.96,17.28-11.27
			c0.28,0.03,0.55,0.06,0.82,0.11c0.2,0.03,0.41,0.06,0.61,0.11c0.16,0.03,0.3,0.06,0.45,0.1c0.15,0.03,0.29,0.06,0.44,0.11
			c0.07,0.01,0.14,0.04,0.2,0.06c0.18,0.04,0.36,0.1,0.54,0.16c0.06,0.02,0.13,0.04,0.19,0.06c0.18,0.05,0.35,0.11,0.52,0.18
			c1.01,0.36,1.98,0.83,2.91,1.38c0.15,0.08,0.29,0.18,0.43,0.27c0.15,0.08,0.29,0.18,0.42,0.28c0.23,0.14,0.45,0.3,0.67,0.46
			c0.21,0.16,0.42,0.31,0.64,0.48c0.9,0.68,1.76,1.45,2.6,2.29c0.21,0.2,0.42,0.42,0.61,0.63c0.21,0.23,0.42,0.45,0.64,0.68
			c0.19,0.21,0.38,0.42,0.56,0.64c0.2,0.23,0.4,0.46,0.59,0.69c0.39,0.47,0.77,0.95,1.14,1.43c0.38,0.49,0.76,1,1.12,1.5
			c0.25,0.34,0.49,0.68,0.73,1.03c0.3,0.43,0.59,0.87,0.88,1.31c0.17,0.25,0.34,0.51,0.51,0.77c-1.35,1.63-2.51,3.32-3.48,5.05
			c-0.2,0.35-0.39,0.7-0.57,1.05c-0.2,0.37-0.38,0.74-0.55,1.11c-0.08,0.17-0.17,0.34-0.24,0.51c-0.08,0.17-0.16,0.34-0.23,0.51
			c-0.12,0.27-0.23,0.54-0.35,0.81c-0.11,0.28-0.22,0.55-0.32,0.83c-0.02,0.06-0.05,0.13-0.07,0.2c-0.08,0.22-0.16,0.43-0.23,0.65
			c-0.01,0.01-0.01,0.02-0.01,0.04c-0.05,0.13-0.09,0.27-0.13,0.4c-0.08,0.25-0.16,0.49-0.23,0.73c-0.02,0.07-0.04,0.14-0.06,0.2
			c-0.06,0.2-0.12,0.4-0.17,0.61c0,0.01,0,0.01-0.01,0.01c-0.07,0.29-0.15,0.58-0.22,0.87c-0.07,0.28-0.13,0.54-0.19,0.82
			c-0.06,0.27-0.11,0.54-0.16,0.81c-0.04,0.16-0.06,0.32-0.09,0.48c-0.01,0.11-0.04,0.22-0.05,0.33c-0.07,0.43-0.13,0.86-0.18,1.28
			c-0.04,0.24-0.06,0.48-0.08,0.72c-0.03,0.28-0.05,0.54-0.07,0.82c-0.01,0.2-0.02,0.39-0.03,0.58c0,0.01,0,0.01,0,0.01
			c-0.01,0.2-0.01,0.4-0.02,0.59v0.01c-0.01,0.47-0.01,0.94,0,1.4c0,0.13,0.01,0.25,0.01,0.38c0,0.16,0.01,0.32,0.02,0.49
			c0.01,0.31,0.04,0.61,0.06,0.92c0.02,0.27,0.05,0.53,0.08,0.8c0.03,0.26,0.06,0.52,0.1,0.78c0.04,0.26,0.08,0.52,0.13,0.78
			c0.08,0.51,0.19,1.01,0.31,1.5c2.09,8.7,8.15,14.44,15.83,14.96c0.61,0.04,1.28,0.08,2.01,0.11c0.36,0.01,0.73,0.03,1.11,0.04
			c0.26,0.01,0.53,0.02,0.8,0.03c0.33,0.01,0.67,0.01,1.02,0.02c0.59,0.01,1.19,0.02,1.81,0.02c0.26,0,0.52,0,0.79-0.01
			c0.27,0,0.54,0,0.81-0.01c0.28,0,0.56-0.01,0.85-0.01c0.27-0.01,0.54-0.01,0.82-0.03c0.28-0.01,0.57-0.02,0.86-0.04
			c0.28-0.01,0.58-0.02,0.87-0.04c0.29-0.01,0.59-0.03,0.88-0.05c0.3-0.01,0.61-0.04,0.91-0.06c0.44-0.04,0.88-0.07,1.33-0.11
			c0.12-0.01,0.25-0.02,0.37-0.04c0.12-0.01,0.25-0.02,0.37-0.04c0.39-0.04,0.78-0.08,1.18-0.13c0.32-0.04,0.65-0.08,0.97-0.12
			c0.12-0.01,0.23-0.03,0.35-0.04c0.04-0.01,0.08-0.01,0.12-0.01c0.37-0.06,0.75-0.11,1.12-0.16c0.53-0.08,1.06-0.16,1.6-0.25
			c0.2-0.04,0.4-0.07,0.6-0.11c0.37-0.07,0.76-0.15,1.13-0.23c0.58-0.12,1.16-0.25,1.74-0.38c0.3-0.07,0.59-0.14,0.88-0.22
			c-0.69-1.03-1.24-2.13-1.67-3.25c-0.52,0.13-1.04,0.25-1.56,0.35c-0.09,0.02-0.19,0.04-0.28,0.06c-0.44,0.09-0.89,0.17-1.33,0.25
			c-0.04,0.01-0.08,0.01-0.13,0.02c-0.44,0.08-0.88,0.15-1.33,0.21c-0.18,0.04-0.36,0.06-0.54,0.08c-0.39,0.06-0.78,0.11-1.17,0.16
			c-0.23,0.03-0.45,0.06-0.67,0.08l-0.95,0.11c-1.09,0.11-2.15,0.2-3.19,0.28c-0.4,0.03-0.8,0.05-1.2,0.07
			c-0.97,0.05-1.92,0.08-2.83,0.1c-1.03,0.02-2,0.02-2.92,0.01c-0.31,0-0.62-0.01-0.92-0.01c-0.25,0-0.51-0.01-0.75-0.01
			c-0.37-0.01-0.71-0.02-1.04-0.04c-0.17-0.01-0.33-0.01-0.49-0.02c-0.56-0.02-1.09-0.05-1.55-0.08c-0.18-0.01-0.36-0.02-0.52-0.04
			c-0.23-0.01-0.44-0.04-0.66-0.06c-0.07-0.01-0.14-0.02-0.21-0.03c-0.16-0.02-0.32-0.05-0.48-0.08c-0.77-0.13-1.52-0.35-2.24-0.63
			c-0.2-0.07-0.4-0.16-0.6-0.24c-0.23-0.11-0.47-0.22-0.69-0.34c-0.2-0.1-0.4-0.21-0.59-0.32c-0.04-0.02-0.07-0.04-0.11-0.06
			c-0.17-0.1-0.33-0.2-0.49-0.31c-0.25-0.18-0.5-0.35-0.75-0.55c-0.16-0.12-0.32-0.25-0.48-0.39c-0.14-0.11-0.28-0.24-0.41-0.37
			c-0.43-0.4-0.85-0.83-1.24-1.29c-0.12-0.15-0.25-0.3-0.37-0.45c-0.18-0.23-0.35-0.47-0.52-0.71c-0.02-0.04-0.04-0.06-0.06-0.1
			c-0.13-0.19-0.27-0.39-0.39-0.59c-0.14-0.22-0.28-0.44-0.4-0.68c-0.16-0.28-0.3-0.55-0.44-0.84c-0.13-0.25-0.24-0.5-0.35-0.76
			c-0.1-0.23-0.2-0.45-0.28-0.68c-0.25-0.62-0.46-1.26-0.64-1.93c-0.08-0.28-0.16-0.56-0.23-0.85c-0.45-1.88-0.67-3.91-0.62-6.01
			c0-0.11,0.01-0.23,0.01-0.35c0.01-0.18,0.01-0.35,0.03-0.53c0.01-0.24,0.03-0.48,0.05-0.72c0-0.01,0-0.01,0-0.01
			c0.02-0.23,0.04-0.47,0.07-0.71c0.08-0.77,0.2-1.55,0.36-2.34c0.08-0.4,0.17-0.78,0.26-1.18c0.1-0.4,0.2-0.79,0.32-1.19
			c0.04-0.16,0.09-0.31,0.14-0.47c0.08-0.25,0.16-0.51,0.25-0.76c0.19-0.56,0.4-1.12,0.63-1.67c0.01-0.02,0.01-0.04,0.02-0.05
			c0.08-0.2,0.16-0.4,0.25-0.59c0.08-0.2,0.17-0.4,0.26-0.59c0.09-0.19,0.18-0.39,0.28-0.59c0.11-0.23,0.22-0.45,0.34-0.67
			c0.11-0.23,0.23-0.45,0.36-0.67c0.12-0.23,0.25-0.45,0.38-0.67c0.11-0.2,0.23-0.39,0.35-0.59c0.07-0.12,0.14-0.24,0.22-0.35
			c0.5-0.79,1.04-1.57,1.63-2.34c0.73-0.96,1.53-1.9,2.41-2.82c2.2-2.29,4.85-4.43,8-6.32c4.22-2.53,8.42-3.79,12.55-3.79
			c1.92,0,3.83,0.28,5.71,0.82c12.44,3.64,20.46,18.11,21.49,20.07c0.23,1.42,0.37,2.78,0.41,4.09c0.02,0.61,0.02,1.21,0,1.8
			c0,0.05-0.01,0.1-0.01,0.15c-0.01,0.25-0.03,0.5-0.05,0.76c-0.02,0.3-0.05,0.59-0.08,0.88c-0.04,0.31-0.08,0.62-0.13,0.92
			c-0.08,0.47-0.17,0.92-0.28,1.36c-0.06,0.25-0.12,0.49-0.19,0.73c1.13,0.52,2.2,1.07,3.21,1.64c0.33-1.06,0.59-2.16,0.76-3.3
			c5.48,3.05,9.04,9.28,9.7,10.52C199.41,123.08,198.64,126.36,196.36,128.9z"/>
		<path style="fill:#402C24;" d="M185.79,103.4c0.02,0.61,0.02,1.21,0,1.8c0,0.05-0.01,0.1-0.01,0.15c-0.01,0.25-0.03,0.5-0.05,0.76
			c-0.02,0.3-0.05,0.59-0.08,0.88c-0.04,0.31-0.08,0.62-0.13,0.92c-0.08,0.47-0.17,0.92-0.28,1.36c-0.06,0.25-0.12,0.49-0.19,0.73
			c-0.34-0.16-0.68-0.3-1.02-0.45c-0.28-0.12-0.57-0.24-0.86-0.35c-0.16-0.06-0.32-0.13-0.48-0.19c-0.27-0.1-0.54-0.2-0.81-0.3
			c-0.03-0.01-0.06-0.01-0.08-0.03c-0.37-0.13-0.74-0.25-1.12-0.36c-1.13-0.35-2.27-0.61-3.4-0.79c-0.23-0.04-0.44-0.06-0.66-0.08
			c-0.15-0.02-0.3-0.04-0.45-0.05c0.54-2.06,0.67-4.4,0.29-7.05c0,0-11-22.38-29.93-11.12c-18.93,11.26-15.76,32.39-3.23,32.7
			c5.85,0.15,14.08-0.39,20.9-2.95V119c0.02,0.19,0.05,0.4,0.08,0.6c0.04,0.31,0.08,0.63,0.14,0.95c0.06,0.32,0.12,0.66,0.19,1
			c0.08,0.37,0.16,0.74,0.26,1.12c0.05,0.21,0.11,0.42,0.17,0.63c0.02,0.06,0.04,0.13,0.06,0.18c0.08,0.26,0.16,0.53,0.25,0.8
			c0.08,0.27,0.18,0.54,0.29,0.8c-0.52,0.13-1.04,0.25-1.56,0.35c-0.09,0.02-0.19,0.04-0.28,0.06c-0.44,0.09-0.89,0.17-1.33,0.25
			c-0.04,0.01-0.08,0.01-0.13,0.02c-0.44,0.08-0.88,0.15-1.33,0.21c-0.18,0.04-0.36,0.06-0.54,0.08c-0.39,0.06-0.78,0.11-1.17,0.16
			c-0.23,0.03-0.45,0.06-0.67,0.08l-0.95,0.11c-1.09,0.11-2.15,0.2-3.19,0.28c-0.4,0.03-0.8,0.05-1.2,0.07
			c-0.97,0.05-1.92,0.08-2.83,0.1c-1.03,0.02-2,0.02-2.92,0.01c-0.31,0-0.62-0.01-0.92-0.01c-0.25,0-0.51-0.01-0.75-0.01
			c-0.37-0.01-0.71-0.02-1.04-0.04c-0.17-0.01-0.33-0.01-0.49-0.02c-0.56-0.02-1.09-0.05-1.55-0.08c-0.18-0.01-0.36-0.02-0.52-0.04
			c-0.23-0.01-0.44-0.04-0.66-0.06c-0.07-0.01-0.14-0.02-0.21-0.03c-0.16-0.02-0.32-0.05-0.48-0.08c-0.77-0.13-1.52-0.35-2.24-0.63
			c-0.2-0.07-0.4-0.16-0.6-0.24c-0.23-0.11-0.47-0.22-0.69-0.34c-0.2-0.1-0.4-0.21-0.59-0.32c-0.04-0.02-0.07-0.04-0.11-0.06
			c-0.17-0.1-0.33-0.2-0.49-0.31c-0.25-0.18-0.5-0.35-0.75-0.55c-0.16-0.12-0.32-0.25-0.48-0.39c-0.14-0.11-0.28-0.24-0.41-0.37
			c-0.43-0.4-0.85-0.83-1.24-1.29c-0.12-0.15-0.25-0.3-0.37-0.45c-0.18-0.23-0.35-0.47-0.52-0.71c-0.02-0.04-0.04-0.06-0.06-0.1
			c-0.13-0.19-0.27-0.39-0.39-0.59c-0.14-0.22-0.28-0.44-0.4-0.68c-0.16-0.28-0.3-0.55-0.44-0.84c-0.13-0.25-0.24-0.5-0.35-0.76
			c-0.1-0.23-0.2-0.45-0.28-0.68c-0.25-0.62-0.46-1.26-0.64-1.93c-0.08-0.28-0.16-0.56-0.23-0.85c-0.45-1.88-0.67-3.91-0.62-6.01
			c0-0.12,0.01-0.24,0.01-0.35c0.01-0.18,0.01-0.35,0.03-0.53c0.01-0.24,0.03-0.48,0.05-0.72c0-0.01,0-0.01,0-0.01
			c0.02-0.23,0.04-0.47,0.07-0.71c0.08-0.77,0.2-1.55,0.36-2.34c0.08-0.4,0.17-0.78,0.26-1.18c0.1-0.4,0.2-0.79,0.32-1.19
			c0.04-0.16,0.09-0.31,0.14-0.47c0.08-0.25,0.16-0.51,0.25-0.76c0.19-0.56,0.4-1.12,0.63-1.67c0.01-0.02,0.01-0.04,0.02-0.05
			c0.08-0.2,0.16-0.4,0.25-0.59c0.08-0.2,0.17-0.4,0.26-0.59c0.09-0.19,0.18-0.39,0.28-0.59c0.11-0.23,0.22-0.45,0.34-0.67
			c0.11-0.23,0.23-0.45,0.36-0.67c0.12-0.23,0.25-0.45,0.38-0.67c0.11-0.2,0.23-0.39,0.35-0.59c0.07-0.12,0.14-0.24,0.22-0.35
			c0.5-0.79,1.04-1.57,1.63-2.34c0.73-0.96,1.53-1.9,2.41-2.82c2.2-2.29,4.85-4.43,8-6.32c4.22-2.53,8.42-3.79,12.55-3.79
			c1.92,0,3.83,0.28,5.71,0.82c12.44,3.64,20.46,18.11,21.49,20.07C185.62,100.73,185.76,102.09,185.79,103.4z"/>
		<path style="fill:#B63B00;" d="M178.96,133.56c-0.25,0.02-0.51,0.04-0.77,0.04c-1.01,0.03-1.93-0.02-2.8-0.16h-0.01
			c-3.84-0.57-6.39-2.6-8.08-5.1c-0.69-1.03-1.24-2.13-1.67-3.25c-0.11-0.27-0.2-0.54-0.29-0.8c-0.09-0.27-0.18-0.53-0.25-0.8
			c-0.02-0.06-0.04-0.12-0.06-0.18c-0.06-0.21-0.11-0.42-0.17-0.63c-0.1-0.37-0.18-0.75-0.26-1.12c-0.07-0.35-0.13-0.68-0.19-1
			c-0.06-0.32-0.1-0.64-0.14-0.95c-0.03-0.2-0.06-0.4-0.08-0.6v-0.02c-6.83,2.56-15.05,3.1-20.9,2.95
			c-12.53-0.32-15.7-21.44,3.23-32.7c18.92-11.27,29.93,11.12,29.93,11.12c0.38,2.65,0.25,4.99-0.29,7.05
			c0.15,0.01,0.3,0.03,0.45,0.05c0.21,0.02,0.43,0.05,0.66,0.08c1.13,0.18,2.27,0.44,3.4,0.79c0.37,0.11,0.75,0.23,1.12,0.36
			c0.03,0.01,0.06,0.02,0.08,0.03c0.28,0.1,0.54,0.2,0.81,0.3c0.16,0.06,0.32,0.13,0.48,0.19c0.29,0.11,0.58,0.23,0.86,0.35
			c0.35,0.14,0.68,0.3,1.02,0.45c1.13,0.52,2.2,1.07,3.21,1.64c0.99,0.56,1.91,1.12,2.73,1.65
			C198.24,118,193.41,132.61,178.96,133.56z"/>
		<path style="fill:#FFC800;" d="M181.26,119.1c-0.02,2.25-1.57,4.27-4.14,5.39c-2.24,0.99-5.37,1.19-7.32-0.56
			c-2.1-1.88-2.36-5.7-0.76-10.76c0.28-0.76,0-1.6-0.66-2.05c-0.66-0.45-1.54-0.41-2.15,0.11c-5.56,4.74-17.63,6.08-22.58,3.61
			c-0.83-0.41-1.39-0.9-1.69-1.44c-1.06-1.98,0.01-5.14,2.85-8.46c4.77-5.58,13.5-10.27,18.89-8.38c3.15,1.1,4.84,4.43,5.02,9.9
			c0.03,0.8-0.14,1.57-0.52,2.34c-0.33,0.68-0.2,1.49,0.33,2.03c0.53,0.53,1.34,0.67,2.02,0.35c0.93-0.45,2.28-0.38,3.81,0.2
			c1.4,0.52,2.75,1.38,3.9,2.42c1.14,1.04,2.06,2.24,2.57,3.44C181.13,117.89,181.27,118.52,181.26,119.1z"/>
		<path style="fill:#F89300;" d="M184.09,115.83c-1.39-3.27-4.79-6.39-8.47-7.78c-1.18-0.44-2.32-0.68-3.38-0.71
			c0.03-0.33,0.04-0.67,0.03-1.01c-0.3-8.8-4.18-11.99-7.38-13.12c-7.07-2.48-17.11,2.84-22.74,9.42
			c-3.88,4.54-5.08,9.07-3.28,12.43c0.64,1.2,1.72,2.18,3.21,2.92c5.48,2.73,15.69,1.79,22.59-1.6c-0.8,5.49,0.95,8.53,2.77,10.17
			c1.63,1.48,3.84,2.23,6.2,2.23c1.6,0,3.28-0.35,4.89-1.06c3.82-1.67,6.21-4.97,6.25-8.59
			C184.8,118.06,184.57,116.95,184.09,115.83z M177.12,124.49c-2.24,0.99-5.37,1.19-7.32-0.56c-2.1-1.88-2.36-5.7-0.76-10.76
			c0.28-0.76,0-1.6-0.66-2.05c-0.66-0.45-1.54-0.41-2.15,0.11c-5.56,4.74-17.63,6.08-22.58,3.61c-0.83-0.41-1.39-0.9-1.69-1.44
			c-1.06-1.98,0.01-5.14,2.85-8.46c4.77-5.58,13.5-10.27,18.89-8.38c3.15,1.1,4.84,4.43,5.02,9.9c0.03,0.8-0.14,1.57-0.52,2.34
			c-0.33,0.68-0.2,1.49,0.33,2.03c0.53,0.53,1.34,0.67,2.02,0.35c0.93-0.45,2.28-0.38,3.81,0.2c1.4,0.52,2.75,1.38,3.9,2.42
			c1.14,1.04,2.06,2.24,2.57,3.44c0.28,0.67,0.42,1.31,0.42,1.88C181.24,121.35,179.69,123.37,177.12,124.49z"/>
	</g>
</g>
</svg>
