<?xml version="1.0" encoding="utf-8"?>
<!-- Generator: Adobe Illustrator 24.1.1, SVG Export Plug-In . SVG Version: 6.00 Build 0)  -->
<svg version="1.1" id="Layer_1" xmlns="http://www.w3.org/2000/svg" xmlns:xlink="http://www.w3.org/1999/xlink" x="0px" y="0px"
	 viewBox="0 0 240 240" style="enable-background:new 0 0 240 240;" xml:space="preserve">
<g>
	<g>
		<path style="fill:#FF2410;" d="M74.61,128.04c-1.18,2.24-5.26,2.52-7.22,2.64c-0.32,0.02-0.6,0.04-0.82,0.06
			c-0.28,0.02-0.56,0.18-0.72,0.44c-1.04,1.5-3.2,4.1-6.2,4.56c-2.02,0.3-4.2-0.42-6.42-2.2c-1.62-1.3-2.14-3.04-1.56-5.18
			c1.34-4.8,7.94-10.06,13.58-10.8c0.44-0.06,0.9-0.1,1.38-0.1c1.08,0,2.28,0.18,3.4,0.72c1.12,0.54,2.16,1.46,3.02,2.88
			C74.89,124.16,75.41,126.52,74.61,128.04z"/>
		<path d="M74.77,120.04c-2.06-3.44-5.54-5.02-9.78-4.46c-6.54,0.86-13.68,6.58-15.24,12.24c-0.8,2.9-0.02,5.48,2.24,7.28
			s4.52,2.72,6.74,2.72c0.4,0,0.82-0.04,1.22-0.1c3.48-0.52,5.96-3.22,7.28-5.02c0.08-0.02,0.18-0.02,0.28-0.02
			c2.32-0.16,7.16-0.48,8.88-3.72c0.38-0.74,0.58-1.56,0.58-2.5C76.97,124.66,76.23,122.52,74.77,120.04z M74.61,128.04
			c-1.18,2.24-5.26,2.52-7.22,2.64c-0.32,0.02-0.6,0.04-0.82,0.06c-0.28,0.02-0.56,0.18-0.72,0.44c-1.04,1.5-3.2,4.1-6.2,4.56
			c-2.02,0.3-4.2-0.42-6.42-2.2c-1.62-1.3-2.14-3.04-1.56-5.18c1.34-4.8,7.94-10.06,13.58-10.8c0.44-0.06,0.9-0.1,1.38-0.1
			c1.08,0,2.28,0.18,3.4,0.72c1.12,0.54,2.16,1.46,3.02,2.88C74.89,124.16,75.41,126.52,74.61,128.04z"/>
	</g>
	<g>
		<path style="fill:#FFFFFF;" d="M79.25,129.4c-1,0.62-2,0.48-2.68,0.28c-1.6-0.52-3.12-2.08-4.04-4.18
			c-1.54-3.6-0.92-7.84,1.38-9.24c1-0.62,2.02-0.48,2.68-0.28c1.62,0.52,3.12,2.08,4.04,4.18C82.2,123.76,81.56,128,79.25,129.4z"/>
		<path d="M82.84,119.22c-1.2-2.78-3.22-4.8-5.52-5.52c-0.6-0.2-1.22-0.3-1.8-0.3c-1,0-1.98,0.28-2.84,0.82
			c-3.38,2.06-4.42,7.44-2.34,12.24c1.2,2.76,3.22,4.78,5.52,5.5c0.6,0.2,1.2,0.3,1.8,0.3c1,0,1.98-0.28,2.84-0.8
			C83.89,129.38,84.91,124,82.84,119.22z M76.58,129.68c-1.6-0.52-3.12-2.08-4.04-4.18c-1.54-3.6-0.92-7.84,1.38-9.24
			c1-0.62,2.02-0.48,2.68-0.28c1.62,0.52,3.12,2.08,4.04,4.18c1.56,3.6,0.92,7.84-1.38,9.24C78.25,130.02,77.25,129.88,76.58,129.68
			z"/>
	</g>
	<g>
		<path d="M77.65,125.97c-0.31,0-0.62-0.14-0.81-0.42c-1.57-2.18-2.17-4.02-1.79-5.45c0.33-1.23,1.25-1.69,1.35-1.73
			c0.5-0.23,1.09-0.01,1.33,0.49c0.22,0.49,0.02,1.07-0.46,1.31c-0.04,0.03-0.23,0.16-0.3,0.5c-0.1,0.47-0.04,1.58,1.49,3.71
			c0.32,0.45,0.22,1.07-0.23,1.4C78.06,125.91,77.86,125.97,77.65,125.97z"/>
	</g>
</g>
<g>
	<g>
		<path style="fill:#FFFFFF;" d="M235.41,108.36l-2.1,3.18c-8.44,0.82-24.3-7.38-34.46-15.62c-5.46-4.42-8.8-8.52-8.96-10.94
			c-0.42-6.54-7.5-10.82-12.08-12.92c2.58-0.1,5.24,0.54,7.62,1.88c3.9,2.24,6.5,5.96,7.32,10.5
			C194.58,94.46,227.13,105.66,235.41,108.36z"/>
		<path d="M238.41,107.3c-0.12-0.36-0.42-0.64-0.76-0.74c-11.34-3.58-41.1-14.58-42.52-22.54c-0.94-5.18-4.04-9.62-8.52-12.16
			c-4.2-2.38-9.2-2.86-13.42-1.28c-0.48,0.18-0.78,0.64-0.78,1.14c0.02,0.52,0.36,0.96,0.84,1.12c0.14,0.04,13.74,4.42,14.24,12.3
			c0.26,4.06,5.5,9.12,9.84,12.64c10.24,8.32,25.5,16.22,34.86,16.22c0.7,0,1.36-0.06,2-0.14c0.34-0.06,0.64-0.24,0.82-0.54
			l3.28-4.96C238.49,108.04,238.53,107.64,238.41,107.3z M198.85,95.92c-5.46-4.42-8.8-8.52-8.96-10.94
			c-0.42-6.54-7.5-10.82-12.08-12.92c2.58-0.1,5.24,0.54,7.62,1.88c3.9,2.24,6.5,5.96,7.32,10.5c1.82,10.02,34.38,21.22,42.66,23.92
			l-2.1,3.18C224.87,112.36,209.01,104.16,198.85,95.92z"/>
	</g>
	<g>
		<polygon style="fill:#FF2410;" points="172.87,70.06 168.73,94.68 147.87,84.1 		"/>
		<path d="M174.79,67.36c-0.32-0.22-0.74-0.24-1.08-0.06l-28.46,15.96c-0.32,0.18-0.52,0.52-0.52,0.9c0.02,0.36,0.22,0.7,0.56,0.86
			l23.74,12.06c0.14,0.06,0.3,0.1,0.46,0.1c0.14,0,0.3-0.04,0.44-0.1c0.28-0.16,0.48-0.42,0.54-0.74l4.72-28
			C175.25,67.96,175.09,67.58,174.79,67.36z M147.87,84.1l25-14.04l-4.14,24.62L147.87,84.1z"/>
	</g>
</g>
<g>
	<g>
		<polygon style="fill:#FFFFFF;" points="169.39,135.6 118.15,209.94 66.61,171.56 112.49,105.02 		"/>
		<path d="M111.73,101.9l-48.4,70.2l55.38,41.26l54.18-78.62L111.73,101.9z M66.61,171.56l45.88-66.54l56.9,30.58l-51.24,74.34
			L66.61,171.56z"/>
	</g>
	<g>
		<g>
			<polygon style="fill:#FFFFFF;" points="160.82,137.82 116.65,201.88 73.97,170 113.51,112.66 			"/>
			<path style="fill:#E0B955;" d="M112.75,109.54l-42.06,61l46.52,34.76l47.1-68.34L112.75,109.54z M73.97,170l39.54-57.34
				l47.3,25.16l-44.16,64.06L73.97,170z"/>
		</g>
		<g>
			<g>
				<path style="fill:#FF2410;" d="M132.53,159.16c-4.04,4.54-19.24,3.68-25.94,2.84c0.28-1.9,0.54-3.7,0.78-5.44
					c1.96-13.88,3.08-20.5,9.28-20.24c1.28,0.06,2.2,0.54,2.8,1.44c2.04,3.08,0.1,10.4-0.84,12.96c-0.14,0.38-0.02,0.8,0.28,1.08
					c0.3,0.26,0.72,0.34,1.1,0.16c7.26-3.44,11.8-2.04,13.48,0.22C134.94,154.14,134.58,156.88,132.53,159.16z"/>
				<path style="fill:#D51E0E;" d="M135.08,150.98c-2.04-2.74-6.72-4.46-13.92-1.7c0.92-3.22,2.16-9.3-0.04-12.62
					c-0.96-1.46-2.42-2.24-4.36-2.34h-0.56c-7.7,0-8.94,8.8-10.8,21.96c-0.3,2.04-0.6,4.18-0.94,6.44
					c-0.04,0.26,0.02,0.52,0.18,0.74s0.4,0.36,0.66,0.4c0.46,0.06,5.94,0.82,12.1,0.82c6.46,0,13.66-0.84,16.64-4.2
					C136.7,157.5,137.09,153.68,135.08,150.98z M106.59,162c0.28-1.9,0.54-3.7,0.78-5.44c1.96-13.88,3.08-20.5,9.28-20.24
					c1.28,0.06,2.2,0.54,2.8,1.44c2.04,3.08,0.1,10.4-0.84,12.96c-0.14,0.38-0.02,0.8,0.28,1.08c0.3,0.26,0.72,0.34,1.1,0.16
					c7.26-3.44,11.8-2.04,13.48,0.22c1.46,1.96,1.1,4.7-0.94,6.98C128.49,163.7,113.29,162.84,106.59,162z"/>
			</g>
			<path style="fill:#E5241C;" d="M86.74,163.06c0,0-1.3,1.14-2.49-0.04c-1.19-1.18-0.11-3.62,6.07-2.93c0,0,0.22,7.66-3.23,6.01
				C85.15,165.17,86.74,163.06,86.74,163.06z"/>
			<path style="fill:#E0B955;" d="M82.14,168.57l-1.53,0.84l-0.31-0.5l0.83-1.42L82.14,168.57z M86.2,167.95l-1.83-1.72l-0.51,0.63
				l0.36,0.56l-1.42,0.79l-1.38-1.22l0.81-1.39l0.73,0.68l0.58-0.9l-1.9-1.66l-0.59,0.26l0.58,1.12l-2.07,3.98l0.68,1.08l4.7-2.17
				l0.43,0.49L86.2,167.95z"/>
			<path style="fill:#E5241C;" d="M150.48,144.48c0,0,1.03-1.37,2.43-0.46c1.39,0.91,0.83,3.5-5.31,4.08c0,0-1.76-7.41,1.93-6.5
				C151.6,142.11,150.48,144.48,150.48,144.48z"/>
			<path style="fill:#E0B955;" d="M153.84,138.19l1.32-1.12l0.41,0.42l-0.52,1.55L153.84,138.19z M150.02,139.61l2.12,1.3l0.37-0.71
				l-0.47-0.47l1.23-1.05l1.58,0.91l-0.51,1.51l-0.85-0.52l-0.38,0.99l2.19,1.23l0.52-0.37l-0.79-0.97l1.21-4.28l-0.88-0.91
				l-4.13,3.06l-0.51-0.39L150.02,139.61z"/>
		</g>
	</g>
</g>
<g>
	<g>
		<path style="fill:#FFFFFF;" d="M167.11,110.4c-1.38,11.9-12.16,20.44-24.1,19.1c-11.92-1.38-20.48-12.18-19.12-24.1
			c1.28-11.06,10.7-19.24,21.6-19.24c0.82,0,1.66,0.04,2.5,0.14C159.91,87.68,168.47,98.48,167.11,110.4z"/>
		<path d="M148.27,83.92c-13.24-1.52-25.24,7.98-26.76,21.22c-1.52,13.22,8,25.22,21.22,26.74c0.94,0.12,1.86,0.16,2.78,0.16
			c6.04,0,11.68-2.28,16-6.08c4.3-3.8,7.28-9.16,7.98-15.3C171.01,97.44,161.49,85.44,148.27,83.92z M167.11,110.4
			c-1.38,11.9-12.16,20.44-24.1,19.1c-11.92-1.38-20.48-12.18-19.12-24.1c1.28-11.06,10.7-19.24,21.6-19.24
			c0.82,0,1.66,0.04,2.5,0.14C159.91,87.68,168.47,98.48,167.11,110.4z"/>
	</g>
	<circle style="fill:#FFBFBA;" cx="155.69" cy="109.07" r="7.48"/>
	
		<ellipse transform="matrix(0.0884 -0.9961 0.9961 0.0884 12.0846 225.8755)" style="fill:#FFBFBA;" cx="129.45" cy="106.34" rx="7.48" ry="5.48"/>
</g>
<g>
	<g>
		<path style="fill:#FF2410;" d="M64.44,188.7c-1.26,0.64-2.66,1.36-4.22,2.2c-6.5,3.5-6.5,3.5-11.12-3.5l-0.34-0.52
			c-4.8-7.32-7.7-14.38-6.88-16.8c0.12-0.38,0.32-0.58,0.64-0.7c0.64-0.22,1.48-0.38,2.42-0.38c2.84,0,6.76,1.4,9.98,6.44
			c0.56,0.86,1.36,1.36,2.32,1.48c0.38,0.04,0.76,0.02,1.14-0.04c0.06,3.46,2.1,7.24,4.1,9.74
			C62.97,187.22,63.67,188.02,64.44,188.7z"/>
	</g>
	<path style="fill:#FFFFFF;" d="M73.23,185.24c-0.22,0.28-0.68,0.6-1.26,0.92c-1.42,0.84-3.6,1.7-4.98,1.8
		c-0.12-0.02-0.32-0.1-0.58-0.28c-0.72-0.46-1.9-1.56-3.18-3.4c-1.6-2.3-3.04-5.5-2.82-8.1c0.02-0.38,0.08-0.74,0.18-1.08
		c0.22-0.48,2.02-1.8,3.94-2.86c0.06-0.04,0.12-0.06,0.18-0.1c2.12-0.94,4.08,0.82,5.34,2.5C72.96,178.46,74.17,184.14,73.23,185.24
		z"/>
	<path d="M71.65,173.42c-2.42-3.18-5.2-4.28-7.8-3.08c-0.02,0-0.04,0.02-0.06,0.02c-1.4,0.76-4.66,2.66-5.1,4.16
		c-0.02,0.08-0.06,0.16-0.06,0.26c-0.42,0.14-0.82,0.2-1.16,0.16c-0.38-0.04-0.64-0.22-0.86-0.58c-5-7.8-11.64-7.98-14.76-6.86
		c-0.92,0.32-1.56,1-1.88,1.94c-1.64,4.86,5.64,16.3,7.12,18.54l0.34,0.52c2.96,4.5,4.48,6.64,7.06,6.64c1.6,0,3.64-0.84,6.68-2.48
		c2.04-1.1,3.8-2,5.32-2.78c0.18,0.06,0.34,0.08,0.5,0.08h0.14c2.36-0.18,6.42-2,7.62-3.42C76.7,184.24,74.67,177.4,71.65,173.42z
		 M73.23,185.24c-0.22,0.28-0.68,0.6-1.26,0.92c-1.42,0.84-3.6,1.7-4.98,1.8c-0.12-0.02-0.32-0.1-0.58-0.28
		c-0.72-0.46-1.9-1.56-3.18-3.4c-1.6-2.3-3.04-5.5-2.82-8.1c0.02-0.38,0.08-0.74,0.18-1.08c0.22-0.48,2.02-1.8,3.94-2.86
		c0.06-0.04,0.12-0.06,0.18-0.1c2.12-0.94,4.08,0.82,5.34,2.5C72.96,178.46,74.17,184.14,73.23,185.24z M60.22,190.9
		c-6.5,3.5-6.5,3.5-11.12-3.5l-0.34-0.52c-4.8-7.32-7.7-14.38-6.88-16.8c0.12-0.38,0.32-0.58,0.64-0.7
		c0.64-0.22,1.48-0.38,2.42-0.38c2.84,0,6.76,1.4,9.98,6.44c0.56,0.86,1.36,1.36,2.32,1.48c0.38,0.04,0.76,0.02,1.14-0.04
		c0.06,3.46,2.1,7.24,4.1,9.74c0.5,0.6,1.2,1.4,1.96,2.08C63.17,189.34,61.77,190.06,60.22,190.9z"/>
	<g>
		<path d="M70.89,184.75c-0.26,0-0.58-0.06-0.93-0.24c-1.83-0.95-3.94-4.94-4.69-7.35c-0.5-1.6-0.46-2.72,0.14-3.42
			c0.46-0.54,1.11-0.65,1.53-0.59c0.55,0.08,0.93,0.59,0.85,1.13c-0.07,0.45-0.42,0.79-0.85,0.85c-0.02,0.19-0.01,0.61,0.25,1.43
			c0.92,2.92,3.01,5.99,3.76,6.19c0.53-0.16,1.01,0.13,1.18,0.65c0.17,0.53-0.2,1.1-0.72,1.27
			C71.25,184.71,71.08,184.75,70.89,184.75z"/>
	</g>
</g>
<path d="M76.09,198.34c0,0-0.02,0.02-0.04,0.06c0.02-0.04,0.04-0.06,0.08-0.08C76.11,198.32,76.11,198.34,76.09,198.34z"/>
<g>
	<path style="fill:#FF2410;" d="M78.59,211.52c0.6,0.42,1.64,1.14,2.74,1.64c-1.1,1.02-2.34,2.14-3.72,3.44
		c-6.12,5.76-6.88,5.76-13.4,0.08c-10.16-8.82-11.12-12.38-11.06-13.5c0.02-0.4,0.18-0.7,0.52-0.94c0.5-0.34,3.48-2.32,7.3-2.32
		c2.34,0,5,0.74,7.58,3.06c0.74,0.66,1.62,0.94,2.58,0.8c0.42-0.06,0.82-0.2,1.22-0.4C73.23,206.6,75.97,209.58,78.59,211.52z"/>
	<path style="fill:#FFFFFF;" d="M89.29,207.22c-0.18,0.34-0.56,0.82-1.08,1.32c-0.7,0.7-1.64,1.48-2.58,2.1c-0.7,0.5-1.4,0.9-2,1.12
		c-0.12,0.02-0.34,0-0.64-0.1c-0.82-0.22-2.24-0.94-3.92-2.3c-2.2-1.78-4.5-4.52-4.9-7.2c-0.08-0.36-0.1-0.74-0.08-1.1
		c0.02-0.1,0.06-0.22,0.16-0.38c0.28-0.5,0.94-1.34,1.78-2.24c0-0.02,0-0.04,0.02-0.04c0.02-0.04,0.04-0.06,0.04-0.06
		c0.02,0,0.02-0.02,0.04-0.02c0.38-0.42,0.8-0.84,1.22-1.26c0.06-0.06,0.1-0.1,0.16-0.16c2-1.64,4.5-0.36,6.24,1.02
		C87.51,200.88,89.96,205.88,89.29,207.22z"/>
	<path d="M84.99,196.34c-3.24-2.54-6.44-2.9-8.78-0.94c-0.02,0-0.04,0.02-0.04,0.04c-1.2,1.12-4,3.94-4.08,5.5
		c0,0.1-0.02,0.24-0.02,0.34c-0.42,0.28-0.84,0.46-1.22,0.52c-0.36,0.06-0.66-0.04-0.96-0.3c-7.96-7.12-16.42-1.54-17.36-0.88
		c-0.86,0.58-1.32,1.44-1.38,2.46c-0.16,3.12,3.78,8.2,11.74,15.12c3.62,3.14,5.92,4.72,8.16,4.72c2.26,0,4.48-1.62,7.92-4.86
		c1.8-1.7,3.36-3.1,4.7-4.32c0.24,0,0.46-0.04,0.66-0.12c2.3-0.86,5.9-3.8,6.74-5.52C92.46,205.32,88.87,199.4,84.99,196.34z
		 M89.29,207.22c-0.18,0.34-0.56,0.82-1.08,1.32c-0.7,0.7-1.64,1.48-2.58,2.1c-0.7,0.5-1.4,0.9-2,1.12c-0.12,0.02-0.34,0-0.64-0.1
		c-0.82-0.22-2.24-0.94-3.92-2.3c-2.2-1.78-4.5-4.52-4.9-7.2c-0.08-0.36-0.1-0.74-0.08-1.1c0.02-0.1,0.06-0.22,0.16-0.38
		c0.28-0.5,0.94-1.34,1.78-2.24c0-0.02,0-0.04,0.02-0.04c0.02-0.04,0.04-0.06,0.04-0.06c0.02,0,0.02-0.02,0.04-0.02
		c0.38-0.42,0.8-0.84,1.22-1.26c0.06-0.06,0.1-0.1,0.16-0.16c2-1.64,4.5-0.36,6.24,1.02C87.51,200.88,89.96,205.88,89.29,207.22z
		 M77.61,216.6c-6.12,5.76-6.88,5.76-13.4,0.08c-10.16-8.82-11.12-12.38-11.06-13.5c0.02-0.4,0.18-0.7,0.52-0.94
		c0.5-0.34,3.48-2.32,7.3-2.32c2.34,0,5,0.74,7.58,3.06c0.74,0.66,1.62,0.94,2.58,0.8c0.42-0.06,0.82-0.2,1.22-0.4
		c0.88,3.22,3.62,6.2,6.24,8.14c0.6,0.42,1.64,1.14,2.74,1.64C80.23,214.18,78.99,215.3,77.61,216.6z"/>
	<path d="M86.3,207.5c-0.15,0-0.32-0.02-0.5-0.05c-2.07-0.45-5.13-3.73-6.45-5.82c-0.88-1.4-1.12-2.49-0.73-3.34
		c0.3-0.65,0.91-0.95,1.34-1.02c0.53-0.07,1.05,0.3,1.13,0.85c0.07,0.48-0.21,0.92-0.65,1.08c0.01,0.17,0.11,0.58,0.6,1.36
		c1.6,2.54,4.45,4.95,5.25,4.95c0.01,0,0.01,0,0.02,0c0.46-0.31,1.02-0.15,1.33,0.31c0.3,0.46,0.12,1.1-0.34,1.41
		C87.07,207.36,86.75,207.5,86.3,207.5z"/>
</g>
<g>
	<g>
		<path style="fill:#FFFFFF;" d="M179.47,224.66l-0.26,0.34c-0.14,0.18-0.32,0.28-0.52,0.3c-0.2,0.02-0.4-0.02-0.56-0.16
			L74.39,143.38c-0.24-0.18-0.28-0.44-0.3-0.56c0-0.14,0.04-0.4,0.26-0.6c0.28-0.24,0.68-0.24,0.98-0.02l104,81.4
			C179.65,223.86,179.72,224.34,179.47,224.66z"/>
		<path d="M180.82,221.72l-104-81.4c-1.2-0.96-2.9-0.9-4.04,0.1c-0.7,0.64-1.1,1.52-1.06,2.46c0.02,0.94,0.46,1.8,1.18,2.38
			l103.76,81.76c0.56,0.46,1.24,0.68,1.94,0.68c0.14,0,0.28,0,0.4-0.02c0.86-0.1,1.62-0.54,2.12-1.22l0.28-0.36
			C182.41,224.74,182.15,222.78,180.82,221.72z M178.13,225.14L74.39,143.38c-0.24-0.18-0.28-0.44-0.3-0.56
			c0-0.14,0.04-0.4,0.26-0.6c0.28-0.24,0.68-0.24,0.98-0.02l104,81.4c0.32,0.26,0.38,0.74,0.14,1.06l-0.26,0.34
			c-0.14,0.18-0.32,0.28-0.52,0.3C178.49,225.32,178.29,225.28,178.13,225.14z"/>
	</g>
	<g>
		<path style="fill:#E0B955;" d="M92.58,157.08h-1.58c-6.1,0.06-8.22-0.1-8.4-1.96c-0.04-0.42,0.1-0.56,0.18-0.64
			c0.42-0.38,1.38-0.52,2.4-0.52c0.88,0,1.8,0.1,2.48,0.24c0.48,0.1,0.96-0.1,1.24-0.5s0.28-0.94,0-1.34
			c-1.56-2.32-1.54-4.06-0.86-4.78c0.48-0.46,1.28-0.44,2.06,0.06C91.61,148.64,92.41,153.4,92.58,157.08z"/>
		<path d="M91.41,145.64c-1.74-1.14-3.78-1.04-5.08,0.26c-1.06,1.08-1.64,3.04-0.58,5.66c-1.56-0.06-3.44,0.12-4.58,1.14
			c-0.52,0.46-1.1,1.3-0.98,2.66c0.38,3.78,3.94,4.14,9.06,4.14c0.56,0,1.16,0,1.76-0.02h2.78c0,0,0,0,0.02,0
			c0.3,0,0.62-0.12,0.84-0.36c0.22-0.22,0.36-0.52,0.34-0.84C94.99,156.56,94.79,147.84,91.41,145.64z M90.99,157.08
			c-6.1,0.06-8.22-0.1-8.4-1.96c-0.04-0.42,0.1-0.56,0.18-0.64c0.42-0.38,1.38-0.52,2.4-0.52c0.88,0,1.8,0.1,2.48,0.24
			c0.48,0.1,0.96-0.1,1.24-0.5s0.28-0.94,0-1.34c-1.56-2.32-1.54-4.06-0.86-4.78c0.48-0.46,1.28-0.44,2.06,0.06
			c1.52,1,2.32,5.76,2.48,9.44H90.99z"/>
	</g>
	<g>
		<path style="fill:#FF2410;" d="M83.61,142.16c-1.4,1.26-5.98,0.5-8.54-0.26c-0.4-0.12-0.84,0.02-1.1,0.38
			c-0.24,0.34-0.24,0.8,0,1.16c3.08,4.34,3.26,7.48,2.08,8.68c-0.94,0.92-2.72,0.72-4.46-0.52c-3.56-2.52-13.72-17.88-19.78-27.52
			c1.24,0.48,2.44,0.94,3.62,1.38c16.68,6.4,27.72,10.62,28.52,15.18C84.11,141.58,83.84,141.96,83.61,142.16z"/>
		<path d="M85.91,140.3c-1-5.68-11.22-9.6-29.76-16.7c-2.06-0.78-4.18-1.6-6.42-2.46c-0.4-0.16-0.86-0.04-1.12,0.28
			c-0.28,0.34-0.32,0.8-0.08,1.18c0.68,1.1,16.72,26.96,21.9,30.64c1.36,0.96,2.78,1.44,4.08,1.44c1.14,0,2.18-0.38,2.96-1.16
			c1.5-1.5,2.02-4.62-0.52-9.12c2.5,0.5,6.2,0.84,7.98-0.74C85.56,143.1,86.23,142.08,85.91,140.3z M83.61,142.16
			c-1.4,1.26-5.98,0.5-8.54-0.26c-0.4-0.12-0.84,0.02-1.1,0.38c-0.24,0.34-0.24,0.8,0,1.16c3.08,4.34,3.26,7.48,2.08,8.68
			c-0.94,0.92-2.72,0.72-4.46-0.52c-3.56-2.52-13.72-17.88-19.78-27.52c1.24,0.48,2.44,0.94,3.62,1.38
			c16.68,6.4,27.72,10.62,28.52,15.18C84.11,141.58,83.84,141.96,83.61,142.16z"/>
	</g>
	<g>
		<path style="fill:#FFFFFF;" d="M95.47,159.26c-0.24,0.22-0.58,0.34-0.86,0.34c-0.32-0.02-0.6-0.14-0.84-0.36
			c-0.22-0.24-0.34-0.54-0.32-0.86c0-0.32,0.12-0.62,0.36-0.84c0.22-0.22,0.52-0.34,0.82-0.34c0.32,0,0.64,0.12,0.86,0.36
			C95.96,158.04,95.96,158.8,95.47,159.26z"/>
		<path d="M97.23,155.9h-0.02c-1.36-1.42-3.64-1.46-5.08-0.08c-0.68,0.66-1.08,1.56-1.08,2.52c-0.02,0.96,0.34,1.88,1,2.56
			c0.68,0.7,1.58,1.08,2.52,1.1h0.06c0.94,0,1.84-0.36,2.52-1.02C98.58,159.6,98.59,157.32,97.23,155.9z M95.47,159.26
			c-0.24,0.22-0.58,0.34-0.86,0.34c-0.32-0.02-0.6-0.14-0.84-0.36c-0.22-0.24-0.34-0.54-0.32-0.86c0-0.32,0.12-0.62,0.36-0.84
			c0.22-0.22,0.52-0.34,0.82-0.34c0.32,0,0.64,0.12,0.86,0.36C95.96,158.04,95.96,158.8,95.47,159.26z"/>
	</g>
	<g>
		<path style="fill:#FFFFFF;" d="M85.09,149.94c0,0.32-0.14,0.62-0.36,0.84c-0.24,0.24-0.58,0.34-0.84,0.34
			c-0.32,0-0.62-0.12-0.84-0.36c-0.24-0.22-0.36-0.52-0.34-0.84c0-0.32,0.12-0.62,0.36-0.84c0.22-0.24,0.52-0.34,0.82-0.34
			c0.32,0,0.64,0.12,0.86,0.36C84.97,149.32,85.09,149.64,85.09,149.94z"/>
		<path d="M86.49,147.42c-0.68-0.68-1.58-1.06-2.54-1.08c-0.92,0.02-1.86,0.34-2.56,1c-0.68,0.68-1.08,1.58-1.08,2.54
			c-0.02,0.96,0.34,1.86,1,2.56c0.72,0.72,1.66,1.08,2.6,1.08c0.9,0,1.8-0.34,2.48-1c0.7-0.68,1.08-1.58,1.1-2.54v-0.08
			C87.49,148.98,87.13,148.1,86.49,147.42z M84.73,150.78c-0.24,0.24-0.58,0.34-0.84,0.34c-0.32,0-0.62-0.12-0.84-0.36
			c-0.24-0.22-0.36-0.52-0.34-0.84c0-0.32,0.12-0.62,0.36-0.84c0.22-0.24,0.52-0.34,0.82-0.34c0.32,0,0.64,0.12,0.86,0.36
			c0.22,0.22,0.34,0.54,0.34,0.84C85.09,150.26,84.96,150.56,84.73,150.78z"/>
	</g>
</g>
<g>
	<path style="fill:#D21E0F;" d="M141.59,111.49c0,0-1.93-4.42-3.83-2.8c-1.9,1.62,0.27,4.01,3.2,8.22c0,0,5.45-3.86,5.37-6.34
		C146.25,108.09,143.16,107.42,141.59,111.49z"/>
	<path d="M137.97,104.18c-0.11,0-0.22-0.01-0.33-0.02c-0.75-0.09-1.43-0.46-1.9-1.05c-0.47-0.59-0.68-1.33-0.59-2.08
		c0.09-0.75,0.46-1.42,1.05-1.89c0.59-0.47,1.32-0.68,2.08-0.59c0.75,0.09,1.42,0.46,1.89,1.05s0.68,1.33,0.59,2.08
		c-0.09,0.75-0.46,1.42-1.05,1.89C139.22,103.97,138.61,104.18,137.97,104.18z M137.96,100.52c-0.19,0-0.37,0.06-0.51,0.18
		c-0.17,0.14-0.28,0.33-0.31,0.55c-0.03,0.22,0.04,0.44,0.17,0.61c0.14,0.17,0.34,0.29,0.56,0.31c0.21,0.02,0.44-0.04,0.61-0.17
		s0.28-0.33,0.31-0.56v0c0.03-0.22-0.04-0.44-0.17-0.61c-0.14-0.17-0.34-0.28-0.56-0.31C138.03,100.52,137.99,100.52,137.96,100.52z
		"/>
	<path d="M147.92,105.33c-0.11,0-0.22-0.01-0.33-0.02c-0.75-0.09-1.43-0.46-1.89-1.05c-0.47-0.59-0.68-1.33-0.59-2.08
		c0.09-0.75,0.46-1.42,1.05-1.89c0.59-0.47,1.32-0.68,2.08-0.59c0.75,0.09,1.42,0.46,1.89,1.05s0.68,1.33,0.59,2.08
		c-0.09,0.75-0.46,1.42-1.05,1.89C149.17,105.11,148.56,105.33,147.92,105.33z M147.91,101.66c-0.19,0-0.37,0.06-0.51,0.18
		c-0.17,0.14-0.28,0.33-0.31,0.55c-0.03,0.22,0.04,0.44,0.17,0.61c0.14,0.17,0.34,0.29,0.56,0.31c0.22,0.03,0.44-0.04,0.61-0.17
		c0.17-0.14,0.28-0.34,0.31-0.56v0c0.03-0.22-0.04-0.44-0.17-0.61c-0.14-0.17-0.34-0.28-0.56-0.31
		C147.98,101.67,147.94,101.66,147.91,101.66z"/>
	<g>
		<path d="M146.36,113.88c-0.02,0-0.04,0-0.06,0l-9.38-0.54c-0.55-0.03-0.97-0.5-0.94-1.06c0.03-0.55,0.43-0.97,1.06-0.94l9.38,0.54
			c0.55,0.03,0.97,0.5,0.94,1.06C147.33,113.47,146.89,113.88,146.36,113.88z"/>
	</g>
</g>
<g>
	<path style="fill:#FFFFFF;" d="M160.68,95.88c-0.4,0.2-0.76,0.44-1.1,0.72c-2.9-4.88-8.5-8.94-11.76-11.02
		c3.06-0.3,8.04-0.44,11.4,1.28c5.98,3.06,8.88,6.68,10.28,9.52l-2.96-0.68c0.02-0.22-0.04-0.44-0.18-0.62l-3.7-5.24
		c-0.32-0.46-0.94-0.56-1.4-0.24c-0.44,0.32-0.56,0.94-0.24,1.38l3.04,4.3c-0.46-0.06-0.92-0.04-1.38,0.02
		c-1.38-2.42-5.66-6.52-6.16-7.02c-0.4-0.38-1.04-0.38-1.42,0.02c-0.38,0.4-0.36,1.04,0.04,1.42
		C156.35,90.9,159.46,94.02,160.68,95.88z"/>
	<path style="fill:#FFFFFF;" d="M175.73,110.84c-0.02,1.3-0.88,2.48-2.06,2.78l-4.16,1.08c0.2-0.38,0.34-0.8,0.44-1.22
		c0.38-1.6,0.1-3.24-0.76-4.62c-0.18-0.3-0.4-0.6-0.64-0.86l4.8,0.18C174.7,108.24,175.73,109.4,175.73,110.84z"/>
	<path style="fill:#FFFFFF;" d="M168.11,112.04c0,0.34-0.04,0.66-0.12,0.98c-0.24,1.06-0.9,1.96-1.84,2.54
		c-0.04,0.02-0.06,0.04-0.1,0.06c-0.42,0.24-0.88,0.4-1.34,0.48c-0.32,0.06-0.66,0.08-1,0.06c-0.22,0-0.44-0.04-0.66-0.1
		c-1.08-0.24-1.98-0.9-2.56-1.84c-0.58-0.94-0.76-2.04-0.5-3.1c0.26-1.08,0.9-1.98,1.84-2.56c0.58-0.36,1.22-0.56,1.9-0.6
		c0.08-0.02,0.18-0.02,0.26-0.02c0.24,0,0.48,0.02,0.72,0.08c0.08,0,0.16,0.02,0.24,0.04c0.26,0.06,0.52,0.16,0.76,0.26
		c0.72,0.34,1.34,0.88,1.78,1.58C167.89,110.56,168.11,111.3,168.11,112.04z"/>
	<path style="fill:#383838;" d="M163.98,111.58c0.04,0,0.09,0.01,0.13,0.02c0.3,0.07,0.49,0.38,0.42,0.68
		c-0.07,0.28-0.33,0.43-0.55,0.43c-0.04,0-0.09-0.01-0.13-0.02c-0.3-0.07-0.49-0.38-0.42-0.68
		C163.5,111.73,163.76,111.58,163.98,111.58 M163.98,110.08c-0.93,0-1.78,0.64-2.01,1.59c-0.26,1.11,0.42,2.22,1.53,2.48
		c0.16,0.04,0.32,0.06,0.48,0.06c0.93,0,1.78-0.64,2.01-1.59c0.26-1.11-0.42-2.22-1.53-2.48
		C164.3,110.1,164.14,110.08,163.98,110.08L163.98,110.08z"/>
	<path style="fill:#FFFFFF;" d="M167.53,101.36v0.18c-0.02,0.52-0.14,1.02-0.36,1.5l-0.02,0.02c-0.12,0.32-0.3,0.6-0.56,0.86
		c-0.42,0.56-1.02,1-1.72,1.28c-0.04,0.02-0.08,0.04-0.14,0.04c-0.76,0.28-1.58,0.3-2.36,0.08h-0.02c-0.22-0.06-0.42-0.12-0.62-0.22
		c-1-0.44-1.78-1.26-2.16-2.28c-0.06-0.16-0.12-0.34-0.14-0.5c-0.12-0.38-0.14-0.76-0.14-1.14c0.02-0.52,0.14-1.04,0.36-1.52
		c0.2-0.42,0.46-0.82,0.8-1.14c0.02-0.04,0.06-0.06,0.08-0.08c0.38-0.4,0.86-0.72,1.42-0.94c0.48-0.18,0.96-0.26,1.46-0.26
		c0.16,0,0.32,0,0.5,0.02c0.4,0.06,0.8,0.16,1.18,0.34c0.26,0.12,0.5,0.26,0.72,0.42c0.66,0.46,1.16,1.1,1.44,1.86
		C167.44,100.36,167.53,100.86,167.53,101.36z"/>
	<path style="fill:#FFFFFF;" d="M175.15,102.36c-0.24,1.28-1.3,2.26-2.52,2.34l-4.34,0.3c0.28-0.34,0.52-0.72,0.7-1.14
		c0.12-0.26,0.22-0.54,0.28-0.8c0.1-0.28,0.16-0.58,0.2-0.88c0.06-0.42,0.08-0.86,0.04-1.3c-0.04-0.58-0.18-1.14-0.38-1.7
		c-0.12-0.32-0.28-0.64-0.46-0.94l1.68,0.38l1.92,0.44l0.28,0.06l0.78,0.18C174.63,99.6,175.44,100.94,175.15,102.36z"/>
	<g>
		<circle style="fill:#383838;" cx="163.38" cy="101.43" r="2.06"/>
	</g>
	<path d="M174.35,106.32c1.4-0.64,2.46-1.96,2.78-3.58c0.46-2.48-1-4.84-3.34-5.38l-1.9-0.44c-1.28-3.36-4.34-8.04-11.78-11.84
		c-5.76-2.94-15.06-1.18-15.44-1.1c-0.42,0.08-0.74,0.42-0.8,0.84c-0.06,0.4,0.14,0.82,0.5,1.02c0.14,0.08,10.22,5.68,13.82,12.38
		c-0.16,0.2-0.26,0.4-0.36,0.62c-1.36,3.04-0.04,6.6,2.94,8.02c-1.38,0.88-2.36,2.2-2.72,3.8c-0.38,1.58-0.12,3.22,0.74,4.62
		c0.86,1.38,2.2,2.36,3.8,2.74c0.46,0.1,0.94,0.16,1.42,0.16c0.96,0,1.9-0.22,2.76-0.7l7.4-1.92c2.08-0.54,3.54-2.48,3.56-4.72
		C177.73,108.66,176.29,106.82,174.35,106.32z M147.82,85.58c3.06-0.3,8.04-0.44,11.4,1.28c5.98,3.06,8.88,6.68,10.28,9.52
		l-2.96-0.68c0.02-0.22-0.04-0.44-0.18-0.62l-3.7-5.24c-0.32-0.46-0.94-0.56-1.4-0.24c-0.44,0.32-0.56,0.94-0.24,1.38l3.04,4.3
		c-0.46-0.06-0.92-0.04-1.38,0.02c-1.38-2.42-5.66-6.52-6.16-7.02c-0.4-0.38-1.04-0.38-1.42,0.02c-0.38,0.4-0.36,1.04,0.04,1.42
		c1.22,1.18,4.32,4.3,5.54,6.16c-0.4,0.2-0.76,0.44-1.1,0.72C156.68,91.72,151.08,87.66,147.82,85.58z M159.44,102.32
		c-0.12-0.38-0.14-0.76-0.14-1.14c0.02-0.52,0.14-1.04,0.36-1.52c0.2-0.42,0.46-0.82,0.8-1.14c0.02-0.04,0.06-0.06,0.08-0.08
		c0.38-0.4,0.86-0.72,1.42-0.94c0.48-0.18,0.96-0.26,1.46-0.26c0.16,0,0.32,0,0.5,0.02c0.4,0.06,0.8,0.16,1.18,0.34
		c0.26,0.12,0.5,0.26,0.72,0.42c0.66,0.46,1.16,1.1,1.44,1.86c0.18,0.48,0.28,0.98,0.28,1.48v0.18c-0.02,0.52-0.14,1.02-0.36,1.5
		l-0.02,0.02c-0.12,0.32-0.3,0.6-0.56,0.86c-0.42,0.56-1.02,1-1.72,1.28c-0.04,0.02-0.08,0.04-0.14,0.04
		c-0.76,0.28-1.58,0.3-2.36,0.08h-0.02c-0.22-0.06-0.42-0.12-0.62-0.22c-1-0.44-1.78-1.26-2.16-2.28
		C159.51,102.66,159.46,102.48,159.44,102.32z M167.99,113.02c-0.24,1.06-0.9,1.96-1.84,2.54c-0.04,0.02-0.06,0.04-0.1,0.06
		c-0.42,0.24-0.88,0.4-1.34,0.48c-0.32,0.06-0.66,0.08-1,0.06c-0.22,0-0.44-0.04-0.66-0.1c-1.08-0.24-1.98-0.9-2.56-1.84
		c-0.58-0.94-0.76-2.04-0.5-3.1c0.26-1.08,0.9-1.98,1.84-2.56c0.58-0.36,1.22-0.56,1.9-0.6c0.08-0.02,0.18-0.02,0.26-0.02
		c0.24,0,0.48,0.02,0.72,0.08c0.08,0,0.16,0.02,0.24,0.04c0.26,0.06,0.52,0.16,0.76,0.26c0.72,0.34,1.34,0.88,1.78,1.58
		c0.4,0.66,0.62,1.4,0.62,2.14C168.11,112.38,168.08,112.7,167.99,113.02z M169.13,99.18c-0.12-0.32-0.28-0.64-0.46-0.94l1.68,0.38
		l1.92,0.44l0.28,0.06l0.78,0.18c1.3,0.3,2.1,1.64,1.82,3.06c-0.24,1.28-1.3,2.26-2.52,2.34l-4.34,0.3c0.28-0.34,0.52-0.72,0.7-1.14
		c0.12-0.26,0.22-0.54,0.28-0.8c0.1-0.28,0.16-0.58,0.2-0.88c0.06-0.42,0.08-0.86,0.04-1.3C169.47,100.3,169.34,99.74,169.13,99.18z
		 M173.68,113.62l-4.16,1.08c0.2-0.38,0.34-0.8,0.44-1.22c0.38-1.6,0.1-3.24-0.76-4.62c-0.18-0.3-0.4-0.6-0.64-0.86l4.8,0.18
		c1.34,0.06,2.38,1.22,2.38,2.66C175.72,112.14,174.85,113.32,173.68,113.62z"/>
</g>
<g>
	<path style="fill:#FFFFFF;" d="M178.65,162.98c0.26,4.34-3.06,8.1-7.42,8.36c-4.36,0.24-8.1-3.06-8.36-7.4
		c-0.14-2.1,0.56-4.14,1.96-5.72c1.4-1.58,3.34-2.52,5.44-2.66h0.48c2.08,0,3.98,0.8,5.4,2.14
		C177.59,159.02,178.51,160.88,178.65,162.98z"/>
	<path d="M181.03,162.82c-0.34-5.66-5.32-10.02-10.9-9.66c-2.76,0.18-5.28,1.4-7.1,3.46c-1.82,2.06-2.74,4.72-2.56,7.46
		c0.16,2.76,1.4,5.26,3.46,7.08c1.9,1.7,4.3,2.6,6.8,2.6c0.22,0,0.44,0,0.64-0.02c5.46-0.32,9.68-4.86,9.68-10.26
		C181.06,163.26,181.06,163.04,181.03,162.82z M162.87,163.94c-0.14-2.1,0.56-4.14,1.96-5.72c1.4-1.58,3.34-2.52,5.44-2.66h0.48
		c2.08,0,3.98,0.8,5.4,2.14c1.44,1.32,2.36,3.18,2.5,5.28c0.26,4.34-3.06,8.1-7.42,8.36C166.87,171.58,163.13,168.28,162.87,163.94z
		"/>
	<g>
		<path style="fill:#FF2410;" d="M183.75,161.14c-1.14,2.76-3.4,5.98-7.96,5.62c-3.6-0.24-5.98-1.4-7.02-3.44
			c-1.54-2.94-0.24-7.18,0.96-9.98c0.94,3.28,2.62,6.46,5.28,8.12c1.26,0.78,2.62,1.18,4.06,1.18c1.24,0,2.54-0.28,3.9-0.84
			c0.5-0.22,0.76-0.8,0.54-1.3c-0.2-0.52-0.8-0.76-1.3-0.56c-2.34,0.98-4.4,0.9-6.14-0.18c-3.26-2.04-5-7.44-5.26-11.88
			c-0.34-5.44,5.72-6.66,5.98-6.72c0.02,0,0.06-0.02,0.08-0.02l0.02,0.04c0.08-0.06,0.14-0.1,0.22-0.14c1.66-0.98,3.1-0.92,4.4,0.2
			C185.25,144.5,186.41,154.72,183.75,161.14z"/>
		<path d="M182.82,139.74c-1.9-1.64-4.22-1.8-6.56-0.5c-2.8,0.58-7.66,3.06-7.44,8.58c0,0.02-0.02,0.06-0.02,0.08
			c-0.08,0.86,0.02,1.62,0.22,2.28c-1.26,2.36-4.5,9.28-2.02,14.06c1.4,2.7,4.3,4.22,8.66,4.52c0.24,0.02,0.5,0.04,0.76,0.04
			c4.1,0,7.34-2.42,9.18-6.88C188.58,154.7,187.18,143.5,182.82,139.74z M175.79,166.76c-3.6-0.24-5.98-1.4-7.02-3.44
			c-1.54-2.94-0.24-7.18,0.96-9.98c0.94,3.28,2.62,6.46,5.28,8.12c1.26,0.78,2.62,1.18,4.06,1.18c1.24,0,2.54-0.28,3.9-0.84
			c0.5-0.22,0.76-0.8,0.54-1.3c-0.2-0.52-0.8-0.76-1.3-0.56c-2.34,0.98-4.4,0.9-6.14-0.18c-3.26-2.04-5-7.44-5.26-11.88
			c-0.34-5.44,5.72-6.66,5.98-6.72c0.02,0,0.06-0.02,0.08-0.02l0.02,0.04c0.08-0.06,0.14-0.1,0.22-0.14c1.66-0.98,3.1-0.92,4.4,0.2
			c3.74,3.26,4.9,13.48,2.24,19.9C182.61,163.9,180.35,167.12,175.79,166.76z"/>
	</g>
</g>
</svg>
