<?xml version="1.0" encoding="utf-8"?>
<!-- Generator: Adobe Illustrator 26.5.0, SVG Export Plug-In . SVG Version: 6.00 Build 0)  -->
<svg version="1.1" id="레이어_1" xmlns="http://www.w3.org/2000/svg" xmlns:xlink="http://www.w3.org/1999/xlink" x="0px"
	 y="0px" viewBox="0 0 390 390" style="enable-background:new 0 0 390 390;" xml:space="preserve">
<style type="text/css">
	.st0{fill:#A887FD;}
	.st1{fill:#FFEC86;}
	.st2{fill:#FFFFFF;}
	.st3{fill:#FFF700;}
</style>
<g>
	<path class="st0" d="M224.3,304.1c-1.2,0.7-16,8.9-16.6,18.1c-0.3,3.6,1.7,7,5.9,10c18.1,13.1,68,9.3,87.2-11.4
		c7.3-7.8,13.9-23.3,17.7-41.5c3.7-17.8,3.7-34.1,0-42.5c-2-4.5-4.9-6.7-8.7-6.7c0,0-0.1,0-0.1,0c-6,0.1-10.8,1.9-14.3,5.6
		c-6.7,7-6.5,18.2-6.5,18.3c-1.4,20.1-8.1,34.6-20,43.2C250.6,310.1,226,304.6,224.3,304.1z"/>
	<path class="st1" d="M319.2,266.1c-0.5,2.6-2.4,5-4.8,6c-2.4,1.1-5.3,0.9-7.6-0.5c-1.6-1-3.2-2.7-5.1-2.4c-2.2,0.4-3.2,3.2-5.2,4.2
		c-2,0.9-4.4-0.4-5.6-2.3c-1.1-1.9-1.3-4.3-1.4-6.5c-0.1-2.2-0.2-4.6-1.2-6.6c0,0,0.1-22.9,14-26.8c0,0,10.8-4.4,14.9,3.4
		c0,0,4.8,12.7,3.9,22.8L319.2,266.1z"/>
	<path d="M245.3,341.3c-13.6,0-25.6-2.8-32.6-7.9c-4.6-3.3-6.8-7.1-6.5-11.3c0.7-9.9,15.7-18.4,17.4-19.3c0.3-0.2,0.7-0.2,1.1-0.1
		c1,0.3,25.4,6,43.3-6.9c11.5-8.3,18-22.4,19.4-42c0-1.1,0.1-12.2,6.9-19.3c3.8-4,9-6,15.3-6.1c0,0,0.1,0,0.1,0
		c3.1,0,7.3,1.3,10.1,7.6c3.8,8.7,3.9,25.3,0.1,43.5c-3.9,18.4-10.6,34.2-18,42.2c-9.1,9.8-25.5,16.7-44.9,18.8
		C252.9,341.1,249,341.3,245.3,341.3z M224.5,305.7c-2.6,1.5-14.8,8.9-15.3,16.6c-0.2,3.1,1.5,6,5.2,8.6c17.7,12.8,66.5,9,85.2-11.2
		c7.1-7.6,13.5-22.9,17.3-40.8c3.7-17.5,3.7-33.5,0.1-41.6c-1.7-3.9-4.1-5.8-7.3-5.8c-5.6,0.1-10.1,1.8-13.3,5.1
		c-6.2,6.5-6.1,17.1-6.1,17.2c0,0,0,0.1,0,0.1c-1.4,20.6-8.4,35.5-20.6,44.3C252.1,310.9,228.6,306.6,224.5,305.7z"/>
</g>
<g>
	<path class="st0" d="M241.4,308.1c-5.8,0-10.8,2.2-13.4,5.8c-3.2,4.4-2.9,11.1,0.5,16.3c2.8,4.2,7.6,7.6,14.1,9.8
		c11.9,4.2,29.9,9.1,48.6,8.5c19-0.5,34.1-6.5,44.9-17.8c7.4-7.7,14.3-23.1,18.4-41.2c4-17.8,4.3-34.1,0.8-42.5
		c-1.9-4.5-4.8-6.8-8.7-6.9c-0.1,0-0.1,0-0.2,0c-5.9,0-10.6,1.8-14.2,5.3c-6.8,6.9-6.8,18-6.8,18.2c-1.6,18.7-7.8,32.4-18.3,41
		c-13.2,10.7-35,8.8-46.9,6.7l0,0c-1.2-0.2-2.3-0.4-3.4-0.7c-1.2-0.2-2.3-0.5-3.5-0.8C249.4,309,245.4,308.1,241.4,308.1
		C241.4,308.1,241.4,308.1,241.4,308.1z"/>
	<path class="st1" d="M356.2,282.1c-0.6,2.7-2.6,5.1-5.2,6.2s-5.6,0.8-8-0.7c-1.7-1.1-3.3-2.8-5.3-2.5c-2.4,0.3-3.4,3.3-5.6,4.2
		c-2.1,0.9-4.7-0.5-5.8-2.5c-1.2-2-1.3-4.4-1.4-6.7c-0.1-2.3-0.1-4.7-1.1-6.8c0,0,0.1-27.4,13.2-31.2c0,0,11.6-5.5,16,1.2
		c0,0,6.5,5.5,4.6,23.7L356.2,282.1z"/>
	<path d="M288.4,350.1c-17.9,0-34.9-4.6-46.3-8.7c-6.8-2.4-11.8-5.9-14.8-10.4c-3.8-5.7-4-13.1-0.5-18c2.9-4,8.4-6.5,14.7-6.5h0.1
		c4.1,0,8.2,0.9,12.1,1.8c1.2,0.3,2.3,0.5,3.5,0.8c1.1,0.2,2.2,0.4,3.3,0.6c11.6,2.1,33,4,45.7-6.4c10.2-8.3,16.2-21.7,17.8-39.9
		c0-1.1,0.3-12.2,7.2-19.1c3.8-3.8,9-5.8,15.2-5.8l0.2,0c3.1,0,7.4,1.4,10.1,7.8c3.7,8.7,3.4,25.4-0.7,43.5
		c-4.2,18.3-11.2,34-18.8,41.9c-11.1,11.6-26.5,17.7-45.9,18.2C290.3,350.1,289.3,350.1,288.4,350.1z M241.4,308.1v1.5
		c-5.3,0-9.9,1.9-12.2,5.2c-2.8,3.9-2.6,9.9,0.6,14.5c2.7,4,7.1,7.1,13.3,9.3c11.7,4.1,29.6,9,48.1,8.5c18.6-0.5,33.3-6.3,43.8-17.3
		c7.2-7.5,13.9-22.6,18-40.5c4-17.5,4.3-33.4,0.8-41.6c-1.7-4-4.1-5.9-7.3-6l-0.2,0c-5.4,0-9.9,1.7-13.1,4.9
		c-6.3,6.4-6.4,17-6.4,17.1l0,0.1c-1.7,19.1-8,33.2-18.9,42c-13.7,11.1-36,9.1-48.1,7c-1.2-0.2-2.3-0.4-3.4-0.7
		c-1.2-0.2-2.3-0.5-3.5-0.8c-3.7-0.9-7.6-1.7-11.4-1.8L241.4,308.1z"/>
</g>
<path class="st0" d="M220,353.2C220,353.2,220.1,353.2,220,353.2c0.3,0.1,19.6,8.3,42.8,10.8c13.6,1.4,25.9,0.7,36.5-2.3
	c13.2-3.8,23.8-11,31.6-21.5c10.7-14.6,12.8-28,12.7-36.6c-0.1-9.9-3.4-19-8.5-23.9c-3.9-3.7-8.1-4.3-11.6-1.5
	c-7.5,6-8.7,14.3-10.1,23c-1,6.4-2,13.1-5.4,19.8c-2.8,5.6-9.4,9.8-18.5,11.7c-16.8,3.6-37.3-1-49.8-11.2l0,0
	c-1.5-1.2-1.9-3.4-0.9-5.1c4.3-7.5,18.3-34.3,20.4-63.7c2.4-34.4-35.6-85.7-55.6-98.3c-17.6-11.1-29.5-30.2-39.1-45.5
	c-0.9-1.4-1.7-2.7-2.5-4.1c-9.8-15.6-32.6-26.4-32.9-26.5c-0.1,0-0.1-0.1-0.1-0.2c-0.5-8.6-6.2-18-6.3-18.1c-0.1-0.1,0-0.2,0.1-0.3
	c2.6-2.2,6.7-7.5,7.8-9c-8.9,0.4-19.3-2.1-29.4-4.5c-9.4-2.2-19.1-4.5-27.4-4.4c-16.6,0.1-30.9,6.9-39.4,18.7
	c-9.5,13.1-12.7,32.1-8.5,50.8c2.1,9.5,6.7,17.5,11.1,25.2c3.2,5.6,6.4,11.4,8.9,17.7L61,194.2c3,7.9,7.4,14.5,12.1,21.5
	c2.6,3.8,5.2,7.8,7.6,12c0.1,0.1,0,0.2,0,0.3c-0.2,0.2-20.9,24.3-10.3,46.7c1.6,3.3,3,6.4,4.4,9.5c8,17.6,13.8,30.4,32.2,46.3
	c0.2,0.3,17.7,21.9,34.8,22.7C158.8,354.1,219.4,353.2,220,353.2C220,353.2,220,353.2,220,353.2z"/>
<path class="st1" d="M340.5,321.2c-1.8,1.8-4,3.3-6.6,3.4c-2.6,0.1-5.2-1.1-6.8-3.1c-1.1-1.4-2.3-3.3-4.1-2.9
	c-0.5,0.1-0.9,0.4-1.4,0.7c-1,0.5-2.3,0.5-3.4,0.5c-2.2,0-4.7-0.2-6.1-1.8c-1.3-1.5-1.1-3.8-0.9-5.8c0,0,2.6-26.4,12.2-34.1
	c0,0,5.8-4.4,11.6,1.5c0,0,10.7,9.2,8.3,28.4C343.4,308.1,342.3,319.5,340.5,321.2z"/>
<path d="M275.6,366.2c-4.2,0-8.5-0.2-13-0.7c-22-2.3-40.5-9.8-42.9-10.8c-4.2,0.1-61.5,0.8-78.2,0c-7.4-0.4-15.6-4.3-24.4-11.8
	c-6.2-5.2-10.6-10.5-11.4-11.4c-18.5-16.1-24.4-28.9-32.4-46.7c-1.4-3-2.8-6.2-4.4-9.5c-10-21.1,6.6-43.4,10-47.6
	c-2.3-3.9-4.7-7.6-7.1-11.2c-4.7-7.1-9.2-13.7-12.3-21.8l-15.2-40.2c-2.4-6.2-5.6-12-8.8-17.5c-4.4-7.8-9-15.9-11.2-25.6
	c-4.3-19.1-1-38.6,8.7-52c8.8-12.1,23.6-19.1,40.6-19.3c8.4,0,18.2,2.2,27.6,4.5l0.1,0c10,2.4,20.3,4.8,29,4.4
	c0.6,0,1.1,0.3,1.4,0.8c0.3,0.5,0.2,1.1-0.1,1.6c-1.4,1.9-4.7,6.1-7.3,8.6c1.4,2.6,5.2,10,5.9,17.1c3.9,1.9,23.8,12.3,32.8,26.7
	c0.8,1.3,1.7,2.7,2.5,4.1c9.5,15.2,21.3,34.1,38.6,45c20.2,12.7,58.7,64.8,56.3,99.6c-2.1,29.7-16.3,56.8-20.6,64.4
	c-0.6,1.1-0.4,2.5,0.6,3.2c12.2,9.9,32.2,14.4,48.6,10.9c8.6-1.8,14.8-5.7,17.5-10.9c3.3-6.5,4.3-13,5.2-19.3
	c1.4-9,2.7-17.5,10.6-23.9c4.1-3.3,9.1-2.7,13.6,1.6c5.4,5.1,8.8,14.7,9,24.9c0.1,8.9-2,22.6-13,37.5c-7.9,10.8-18.8,18.2-32.4,22.1
	C292.4,365.2,284.3,366.2,275.6,366.2z M220,351.7c0.2,0,0.5,0,0.7,0.1c0.2,0.1,19.3,8.2,42.3,10.7c13.4,1.4,25.5,0.7,35.9-2.3
	c12.9-3.7,23.2-10.7,30.8-21c10.5-14.3,12.5-27.3,12.4-35.7c-0.1-9.5-3.2-18.2-8-22.8c-1.9-1.8-5.8-4.5-9.6-1.4
	c-7,5.7-8.2,13.6-9.5,22c-1,6.5-2,13.3-5.5,20.2c-3,6-10,10.5-19.5,12.5c-17.2,3.7-38.2-1-51.1-11.5c-2.1-1.7-2.6-4.7-1.3-7
	c4.2-7.4,18.2-34,20.2-63.1c2.4-33.8-35.2-84.5-54.9-96.9c-17.9-11.3-29.9-30.5-39.6-46c-0.9-1.4-1.7-2.7-2.5-4
	c-9.6-15.1-32-25.9-32.2-26c-0.6-0.3-1-0.8-1-1.5c-0.5-8.2-6-17.3-6.1-17.4c-0.4-0.7-0.3-1.7,0.4-2.3c1.5-1.2,3.7-3.8,5.7-6.3
	c-8.4-0.2-17.7-2.4-26.7-4.5l-0.1,0c-9.2-2.2-18.8-4.4-26.9-4.4c-16.1,0.1-30,6.7-38.2,18c-9.3,12.8-12.3,31.4-8.2,49.6
	c2.1,9.3,6.6,17.1,10.9,24.8c3.2,5.6,6.5,11.5,8.9,17.9l15.2,40.2c2.9,7.8,7.3,14.3,11.9,21.2c2.6,3.9,5.3,7.9,7.7,12.1
	c0.4,0.6,0.3,1.5-0.2,2c-0.2,0.2-20.2,23.6-10.1,45c1.6,3.3,3,6.4,4.4,9.4c8,17.5,13.7,30.1,31.8,45.8c0.1,0.1,0.1,0.1,0.2,0.2
	c0.7,0.9,17.7,21.4,33.7,22.2C158.8,352.6,219.4,351.7,220,351.7C220,351.7,220,351.7,220,351.7z M220,354.7L220,354.7L220,354.7z
	 M219.5,354.6C219.5,354.6,219.5,354.6,219.5,354.6C219.5,354.6,219.5,354.6,219.5,354.6z M79.4,228.5
	C79.4,228.5,79.4,228.5,79.4,228.5C79.4,228.5,79.4,228.5,79.4,228.5z M79.5,227.1C79.5,227.1,79.5,227.1,79.5,227.1
	C79.5,227.1,79.5,227.1,79.5,227.1z M129.7,76.8C129.7,76.8,129.7,76.8,129.7,76.8C129.7,76.8,129.7,76.8,129.7,76.8z M123.9,59.1
	C123.9,59.1,123.9,59.1,123.9,59.1C123.9,59.1,123.9,59.1,123.9,59.1z"/>
<path class="st2" d="M80.5,227.9c0,0,18.5-14,37.6-8.2c0,0,14.4-72.7,6.8-89.4c0,0-8.7,19.4-25.6,13.6c0,0-11.1,13.8-30,6
	c0,0-8.6,13-5.2,23.4S80.5,227.9,80.5,227.9z"/>
<g>
	<path class="st0" d="M80.5,227.9c0,0,18.5-14,37.6-8.2"/>
	<path d="M80.5,229.4c-0.5,0-0.9-0.2-1.2-0.6c-0.5-0.7-0.4-1.6,0.3-2.1c0.8-0.6,19.4-14.4,38.9-8.4c0.8,0.2,1.2,1.1,1,1.9
		c-0.2,0.8-1.1,1.2-1.9,1c-18.1-5.5-36.1,7.8-36.3,8C81.1,229.3,80.8,229.4,80.5,229.4z"/>
</g>
<path d="M102.1,68.1c-4.6,0-7.7-0.9-8-0.9c-0.8-0.2-1.3-1.1-1-1.9c0.2-0.8,1.1-1.3,1.9-1c0.2,0,14,3.8,27-5.7
	c0.7-0.5,1.6-0.3,2.1,0.3s0.3,1.6-0.3,2.1C115.9,66.7,107.8,68.1,102.1,68.1z"/>
<g>
	<g>
		<path class="st2" d="M47.7,98.6c-15.4,0-25.9-2.6-26.4-2.7c-0.8-0.2-1.3-1-1.1-1.8c0.2-0.8,1-1.3,1.8-1.1
			c0.6,0.2,62.3,15.1,104.3-28.9c0.6-0.6,1.5-0.6,2.1,0c0.6,0.6,0.6,1.5,0,2.1c-22.7,23.6-50.6,30.5-70.1,32
			C54.6,98.5,51,98.6,47.7,98.6z"/>
		<path d="M127.4,63.6c0.4,0,0.7,0.1,1,0.4c0.6,0.6,0.6,1.5,0,2.1c-22.7,23.6-50.6,30.5-70.1,32c-3.8,0.3-7.4,0.4-10.7,0.4
			c-15.4,0-25.9-2.6-26.4-2.7c-0.8-0.2-1.3-1-1.1-1.8c0.2-0.7,0.8-1.1,1.5-1.1c0.1,0,0.2,0,0.4,0c0.3,0.1,10.6,2.6,25.6,2.6
			c21.9,0,53.8-5.3,78.8-31.4C126.6,63.8,127,63.6,127.4,63.6 M127.4,60.6C127.4,60.6,127.4,60.6,127.4,60.6c-1.2,0-2.4,0.5-3.3,1.4
			c-24.2,25.2-55,30.5-76.6,30.5c-14.7,0-24.7-2.4-24.8-2.5c-0.4-0.1-0.7-0.1-1.1-0.1c-2.1,0-3.9,1.4-4.4,3.4
			c-0.6,2.4,0.9,4.9,3.3,5.5c0.5,0.1,11.4,2.8,27.2,2.8c3.7,0,7.4-0.1,11-0.4c20-1.6,48.7-8.6,72-32.9c1.7-1.8,1.7-4.6-0.1-6.4
			C129.7,61,128.6,60.6,127.4,60.6L127.4,60.6z"/>
	</g>
</g>
<g>
	<path class="st2" d="M94.5,77.8c0,0-7.7,2.8-7.7,12s7.7,12.3,7.7,12.3S88.4,93.9,94.5,77.8z"/>
	<path d="M94.5,103.6c-0.2,0-0.4,0-0.6-0.1c-0.4-0.1-8.6-3.6-8.6-13.7c0-8.1,5.7-12.3,8.7-13.4c0.6-0.2,1.2-0.1,1.6,0.4
		c0.4,0.4,0.5,1,0.3,1.6c-5.7,15-0.3,22.8-0.2,22.9c0.4,0.5,0.4,1.3,0,1.8C95.4,103.4,95,103.6,94.5,103.6z M91.7,81.4
		c-1.7,1.6-3.4,4.3-3.4,8.4c0,3.5,1.3,6,2.7,7.8C90.1,94,89.7,88.6,91.7,81.4z"/>
</g>
<g>
	<polygon class="st2" points="111.1,74.8 113.2,68.2 116.2,74.8 122.9,76.9 117,80.6 114.7,87.4 111.1,81.2 105,77.8 	"/>
	<path d="M114.7,88.9c-0.5,0-1-0.3-1.3-0.7l-3.4-5.9l-5.7-3.2c-0.5-0.3-0.8-0.8-0.8-1.3c0-0.6,0.3-1.1,0.8-1.3l5.5-2.7l1.9-6
		c0.2-0.6,0.7-1,1.3-1c0.6,0,1.2,0.3,1.5,0.9l2.7,6l6,1.9c0.6,0.2,1,0.7,1,1.2c0.1,0.6-0.2,1.1-0.7,1.5l-5.4,3.4l-2.1,6.3
		c-0.2,0.6-0.7,1-1.3,1C114.8,88.9,114.7,88.9,114.7,88.9z M108.2,77.9l3.6,2c0.2,0.1,0.4,0.3,0.6,0.6l1.9,3.3l1.2-3.7
		c0.1-0.3,0.3-0.6,0.6-0.8l3.1-1.9l-3.5-1.1c-0.4-0.1-0.7-0.4-0.9-0.8l-1.4-3.1l-0.9,2.9c-0.1,0.4-0.4,0.7-0.8,0.9L108.2,77.9z
		 M111.1,74.8L111.1,74.8L111.1,74.8z"/>
</g>
<g>
	<polygon class="st2" points="59.4,94.1 61.6,87.4 64.6,94.1 71.2,96.2 65.3,99.9 63,106.7 59.4,100.5 53.4,97.1 	"/>
	<path d="M63,108.2c-0.5,0-1-0.3-1.3-0.7l-3.4-5.9l-5.7-3.2c-0.5-0.3-0.8-0.8-0.8-1.3c0-0.6,0.3-1.1,0.8-1.3l5.5-2.7l1.9-6
		c0.2-0.6,0.7-1,1.3-1c0.6,0,1.2,0.3,1.5,0.9l2.7,6l6,1.9c0.6,0.2,1,0.7,1,1.2c0.1,0.6-0.2,1.1-0.7,1.5l-5.4,3.4l-2.1,6.3
		c-0.2,0.6-0.7,1-1.3,1C63.1,108.2,63.1,108.2,63,108.2z M56.6,97.2l3.6,2c0.2,0.1,0.4,0.3,0.6,0.6l1.9,3.3l1.2-3.7
		c0.1-0.3,0.3-0.6,0.6-0.8l3.1-1.9l-3.5-1.1c-0.4-0.1-0.7-0.4-0.9-0.8l-1.4-3.1l-0.9,2.9c-0.1,0.4-0.4,0.7-0.8,0.9L56.6,97.2z
		 M59.4,94.1L59.4,94.1L59.4,94.1z"/>
</g>
<g>
	<path class="st0" d="M29.8,82.5c0,0,7.5,22.9,31.9,21.9c0,0-4.1-10.5-2.6-25.1"/>
	<path d="M60,105.9c-23.9,0-31.6-22.7-31.7-23c-0.3-0.8,0.2-1.6,1-1.9c0.8-0.3,1.6,0.2,1.9,1c0.3,0.9,7,20.6,28.4,20.9
		c-1.1-3.8-3.2-12.5-2-23.8c0.1-0.8,0.8-1.4,1.6-1.3c0.8,0.1,1.4,0.8,1.3,1.6c-1.5,14,2.5,24.3,2.5,24.4c0.2,0.5,0.1,1-0.1,1.4
		c-0.3,0.4-0.7,0.7-1.2,0.7C61.1,105.9,60.6,105.9,60,105.9z"/>
</g>
<path d="M80.8,154c-9.9,0-17.6-5.8-17.7-5.9c-0.7-0.5-0.8-1.5-0.3-2.1c0.5-0.7,1.5-0.8,2.1-0.3l0,0c0.7,0.6,17.7,13.4,33.2-2.9
	c0.4-0.4,1-0.6,1.6-0.4c0.1,0,8.8,2.7,15.8-2.5c8.7-6.4,11.9-19.8,13.1-30c1.4-12,0.6-24.6-0.9-31.7c-0.2-0.8,0.4-1.6,1.2-1.8
	c0.8-0.2,1.6,0.4,1.8,1.2c2.6,12.7,4.3,51.6-13.3,64.7c-6.9,5.1-14.9,3.8-17.6,3.2C93.4,152,86.7,154,80.8,154z"/>
<g>
	<circle cx="108.7" cy="115.9" r="3.7"/>
	<circle cx="78.2" cy="124.9" r="3.7"/>
	<path d="M99.3,143.9c0,0,6.4-7.8,3.5-7.8c-2.9,0-12.3,1.3-12.1,3.9C90.8,142.6,99.3,143.9,99.3,143.9z"/>
	<path d="M132.8,131.8c-0.3,0-0.6-0.1-0.8-0.3c-5.8-4-13.4-3.8-13.5-3.8c0,0,0,0,0,0c-0.8,0-1.5-0.6-1.5-1.5c0-0.8,0.6-1.5,1.5-1.5
		c0.3,0,8.6-0.2,15.3,4.4c0.7,0.5,0.9,1.4,0.4,2.1C133.8,131.6,133.3,131.8,132.8,131.8z"/>
	<path d="M128.9,143.5c-0.5,0-0.9-0.2-1.2-0.6c-3.6-4.9-14.2-9.1-14.3-9.1c-0.8-0.3-1.2-1.2-0.9-1.9c0.3-0.8,1.2-1.2,1.9-0.9
		c0.5,0.2,11.4,4.5,15.6,10.1c0.5,0.7,0.4,1.6-0.3,2.1C129.5,143.4,129.2,143.5,128.9,143.5z"/>
	<path d="M65.7,160.3C65.7,160.3,65.6,160.3,65.7,160.3c-0.9,0-1.5-0.8-1.5-1.6c0.4-7.9,8.9-15.6,9.3-15.9c0.6-0.6,1.6-0.5,2.1,0.1
		c0.6,0.6,0.5,1.6-0.1,2.1c-0.1,0.1-7.9,7.2-8.3,13.9C67.1,159.7,66.5,160.3,65.7,160.3z"/>
	<path d="M78.2,164.4c-0.8,0-1.5-0.6-1.5-1.5c-0.2-6.6,3.6-16.4,3.8-16.8c0.3-0.8,1.2-1.1,1.9-0.8c0.8,0.3,1.1,1.2,0.8,1.9
		c0,0.1-3.8,9.6-3.6,15.6C79.7,163.7,79.1,164.3,78.2,164.4C78.2,164.4,78.2,164.4,78.2,164.4z"/>
</g>
<g>
	<path class="st3" d="M108,195.4c-7.4,0-13.4-6-13.4-13.4c0-7.4,6-13.4,13.4-13.4c2.1,0,4.1,0.5,5.9,1.4c-3.1-3.1-7.4-5.1-12.2-5.1
		c-9.5,0-17.2,7.7-17.2,17.2s7.7,17.2,17.2,17.2c4.8,0,9.1-1.9,12.2-5.1C112.2,194.8,110.2,195.4,108,195.4z"/>
	<path d="M101.8,200.6c-10.3,0-18.7-8.4-18.7-18.7s8.4-18.7,18.7-18.7c5,0,9.7,2,13.2,5.5c0.5,0.5,0.6,1.3,0.2,1.9
		c-0.4,0.6-1.2,0.8-1.9,0.5c-1.7-0.8-3.4-1.2-5.2-1.2c-6.6,0-11.9,5.4-11.9,12s5.4,12,11.9,12c1.8,0,3.6-0.4,5.2-1.2
		c0.7-0.3,1.5-0.1,1.9,0.5c0.4,0.6,0.4,1.4-0.2,1.9C111.5,198.6,106.8,200.6,101.8,200.6z M101.8,166.3c-8.6,0-15.7,7-15.7,15.7
		s7,15.7,15.7,15.7c1.7,0,3.3-0.3,4.9-0.8c-7.6-0.7-13.5-7.1-13.5-14.9c0-7.8,6-14.2,13.5-14.9C105.1,166.5,103.4,166.3,101.8,166.3
		z"/>
</g>
<g>
	<g>
		<path class="st0" d="M72.9,319.7c-8.5,0-20.2,1.6-21.7,9.9c-0.9,4.7-0.3,8.4,1.6,10.9c2.3,3,5.7,3.4,5.8,3.4l58,0
			c-2.5-3.1-19-23.5-34.5-23.6c0,0,0,0,0,0C82,320.3,78,319.7,72.9,319.7z"/>
		<path class="st1" d="M75,344.6c1.1-0.1,2-0.4,2.8-1.5c0.8-1.1,1.3-2.4,1.5-3.7c0.3-2.8-1.1-5.5-3.3-7.2c-0.4-0.3-0.8-0.6-1.2-0.8
			c1.7-2.3,1.7-5.4-0.2-7.6c-1.9-2.3-5.5-3.7-9.1-3.6c0,0-10.5,0-14.1,8.6c0,0-2.3,6.9,1.3,11.9c0,0,3.2,5.6,14.1,4.1
			c1.6-0.2,3.3-0.3,4.9-0.2C72.9,344.5,74,344.6,75,344.6z"/>
		<path d="M58.6,345.4c0,0-0.1,0-0.1,0c0,0-4.1-0.4-6.8-4c-2.2-2.9-2.8-7-1.9-12.1c1.3-7.3,9.4-11.1,23.2-11.1
			c4.8,0,8.6,0.5,9.3,0.6c15.9,0.2,32.4,20.2,35.5,24.2c0.4,0.5,0.4,1.1,0.2,1.6c-0.3,0.5-0.8,0.8-1.3,0.8L58.6,345.4z M72.9,321.2
			c-7,0-18.8,1.1-20.2,8.6c-0.8,4.3-0.3,7.5,1.3,9.8c1.7,2.3,4.2,2.7,4.7,2.8l54.7,0c-5.2-6.1-18.8-20.6-31.3-20.6
			c-0.1,0-0.2,0-0.3,0C81.7,321.8,77.8,321.2,72.9,321.2z"/>
		<path d="M58.7,344.9c-0.6,0-1.2-0.5-1.3-1.1c-0.1-0.7-0.8-6.9,1.7-10.2c0.9-1.1,2-1.8,3.3-1.9c0.7-0.1,1.4,0.4,1.4,1.1
			c0.1,0.7-0.4,1.4-1.1,1.4c-0.7,0.1-1.2,0.4-1.6,0.9c-1.6,2.1-1.4,6.7-1.2,8.3c0.1,0.7-0.4,1.4-1.1,1.5
			C58.8,344.9,58.7,344.9,58.7,344.9z"/>
		<path d="M51.8,336.3c-0.1,0-0.3,0-0.4-0.1c-0.7-0.2-1-1-0.8-1.6c0.1-0.3,2.4-7.1,7.9-7.4c0.7,0,1.3,0.5,1.4,1.2
			c0,0.7-0.5,1.3-1.2,1.4c-3.7,0.2-5.6,5.6-5.6,5.6C52.8,336,52.3,336.3,51.8,336.3z"/>
	</g>
	<g>
		<path class="st0" d="M83,310.9c-7.8,0-18.5,1.4-19.9,9c-0.8,4.3-0.3,7.7,1.5,10c2.1,2.8,5.2,3.1,5.3,3.1l53.2,0
			c-2.2-2.9-17.4-21.6-31.6-21.7c0,0,0,0,0,0C91.3,311.4,87.6,310.9,83,310.9z"/>
		<path class="st1" d="M84.9,333.6c1-0.1,1.9-0.4,2.6-1.4c0.8-1,1.2-2.2,1.4-3.4c0.3-2.6-1-5.1-3-6.6c-0.4-0.3-0.7-0.5-1.1-0.8
			c1.6-2.1,1.5-4.9-0.2-7c-1.7-2.1-5-3.4-8.3-3.3c0,0-9.6,0-12.9,7.9c0,0-2.1,6.3,1.2,11c0,0,3,5.1,12.9,3.8c1.5-0.2,3-0.2,4.5-0.2
			C82.9,333.6,83.9,333.7,84.9,333.6z"/>
		<path d="M69.8,334.4c0,0-0.1,0-0.1,0c0,0-3.8-0.4-6.3-3.7c-2-2.7-2.6-6.4-1.7-11.1c1.2-6.7,8.6-10.2,21.3-10.2
			c4.4,0,7.9,0.4,8.5,0.5c14.6,0.2,29.7,18.5,32.6,22.2c0.3,0.4,0.4,1,0.2,1.4c-0.2,0.5-0.7,0.8-1.2,0.8L69.8,334.4z M83,312.2
			c-6.4,0-17.3,1-18.5,7.9c-0.7,3.9-0.3,6.9,1.2,8.9c1.5,2.1,3.9,2.5,4.3,2.6l50.2,0c-4.8-5.6-17.3-18.9-28.7-18.9
			c-0.1,0-0.2,0-0.3,0C91,312.7,87.4,312.2,83,312.2z"/>
		<path d="M69.9,333.9c-0.6,0-1.1-0.4-1.2-1c-0.1-0.6-0.8-6.3,1.6-9.3c0.8-1,1.8-1.6,3.1-1.8c0.7-0.1,1.2,0.4,1.3,1
			c0.1,0.7-0.4,1.2-1,1.3c-0.6,0.1-1.1,0.4-1.5,0.9c-1.5,1.9-1.3,6.1-1.1,7.6c0.1,0.6-0.4,1.2-1,1.3C70,333.9,69.9,333.9,69.9,333.9
			z"/>
		<path d="M63.6,326.1c-0.1,0-0.3,0-0.4-0.1c-0.6-0.2-1-0.9-0.7-1.5c0.1-0.3,2.2-6.5,7.2-6.8c0.6,0,1.2,0.5,1.2,1.1
			c0,0.7-0.5,1.2-1.1,1.2c-3.3,0.2-5.1,5.1-5.1,5.1C64.5,325.7,64.1,326.1,63.6,326.1z"/>
	</g>
	<g>
		<path class="st0" d="M98.9,328.7c-8.9,0-21,1.6-22.6,10.3c-0.9,4.9-0.3,8.7,1.7,11.4c2.4,3.2,6,3.6,6,3.6l60.4,0
			c-2.6-3.3-19.8-24.5-35.9-24.6c0,0,0,0,0,0C108.3,329.2,104.2,328.7,98.9,328.7z"/>
		<path class="st1" d="M101.1,354.5c1.1-0.1,2.1-0.4,2.9-1.5c0.9-1.1,1.4-2.5,1.6-3.9c0.3-2.9-1.1-5.7-3.4-7.5
			c-0.4-0.3-0.8-0.6-1.3-0.9c1.8-2.4,1.7-5.6-0.2-8s-5.7-3.9-9.4-3.8c0,0-10.9,0-14.6,8.9c0,0-2.4,7.1,1.4,12.4
			c0,0,3.4,5.8,14.6,4.3c1.7-0.2,3.4-0.3,5.1-0.2C98.9,354.4,100,354.6,101.1,354.5z"/>
		<path d="M84,355.4c0,0-0.1,0-0.1,0c0,0-4.3-0.4-7.1-4.2c-2.3-3-2.9-7.3-1.9-12.6c1.4-7.6,9.7-11.5,24.1-11.5c5,0,9,0.5,9.7,0.6
			c16.6,0.2,33.7,21,37,25.2c0.4,0.5,0.4,1.1,0.2,1.6c-0.3,0.5-0.8,0.9-1.4,0.9L84,355.4z M98.9,330.2c-7.2,0-19.6,1.2-21.1,9
			c-0.8,4.4-0.4,7.9,1.4,10.2c1.8,2.3,4.4,2.9,4.9,2.9l57,0c-5.4-6.3-19.6-21.4-32.6-21.5c-0.1,0-0.2,0-0.3,0
			C108.1,330.8,104,330.2,98.9,330.2z"/>
		<path d="M84,354.9c-0.7,0-1.2-0.5-1.3-1.2c-0.1-0.7-0.9-7.2,1.8-10.6c0.9-1.2,2.1-1.8,3.5-2c0.7-0.1,1.4,0.4,1.5,1.2
			c0.1,0.7-0.4,1.4-1.2,1.5c-0.7,0.1-1.2,0.4-1.7,1c-1.7,2.1-1.5,6.9-1.2,8.6c0.1,0.7-0.4,1.4-1.2,1.5
			C84.2,354.9,84.1,354.9,84,354.9z"/>
		<path d="M76.9,345.9c-0.1,0-0.3,0-0.4-0.1c-0.7-0.2-1.1-1-0.8-1.7c0.1-0.3,2.5-7.4,8.2-7.7c0.7,0,1.4,0.5,1.4,1.3
			c0,0.7-0.5,1.4-1.3,1.4c-3.8,0.2-5.8,5.8-5.8,5.8C78,345.6,77.5,345.9,76.9,345.9z"/>
	</g>
</g>
</svg>
