<?xml version="1.0" encoding="utf-8"?>
<!-- Generator: Adobe Illustrator 26.0.3, SVG Export Plug-In . SVG Version: 6.00 Build 0)  -->
<svg version="1.1" id="레이어_1" xmlns="http://www.w3.org/2000/svg" xmlns:xlink="http://www.w3.org/1999/xlink" x="0px"
	 y="0px" viewBox="0 0 167 223" style="enable-background:new 0 0 167 223;" xml:space="preserve">
<g>
	<g id="XMLID_00000181783189900289582290000017086089040460717233_">
		<g>
			<path style="fill:#8300DE;" d="M109.3,171.5c-3.6-5.1-8.7-9-14.6-11.1l-0.4-0.2l0.3,0.3c5.4,5.3,8.4,12.3,8.5,19.8
				c0,15.3-12.5,27.8-27.8,27.8c-7.6,0-14.6-3-19.9-8.4l-0.3-0.3l0.2,0.4c2.1,5.9,6,10.9,11.1,14.6c5.2,3.7,11.4,5.7,17.9,5.7
				c8.2,0,16-3.2,21.8-9c5.8-5.8,9-13.5,9-21.8C115,182.9,113,176.8,109.3,171.5z"/>
			<g>
				<path style="fill:#A700FF;" d="M94.7,160.5c5.2,5.1,8.4,12.1,8.4,20c0,15.4-12.5,27.9-27.9,27.9c-7.8,0-14.9-3.2-20-8.4l0,0
					c-1.2-3.3-1.9-6.8-1.9-10.5c0-16.9,13.8-30.7,30.7-30.7C87.9,158.6,91.4,159.3,94.7,160.5L94.7,160.5z"/>
			</g>
		</g>
		<g>
			<g>
				<path d="M53,200.7c-1.3-3.7-2-7.5-2-11.4c0-18.3,14.9-33.2,33.2-33.2c3.9,0,7.8,0.7,11.4,2l-1.7,4.6c-3.1-1.1-6.3-1.7-9.7-1.7
					c-15.6,0-28.3,12.7-28.3,28.3c0,3.3,0.6,6.6,1.7,9.7L53,200.7z"/>
			</g>
			<g>
				<path d="M84.1,222.5c-13.9,0-26.4-8.8-31.2-21.8l4.6-1.7c4.1,11.1,14.8,18.6,26.6,18.6c15.6,0,28.3-12.7,28.3-28.3
					c0-11.8-7.5-22.5-18.5-26.5l1.7-4.6c13,4.8,21.8,17.3,21.8,31.2C117.3,207.6,102.4,222.5,84.1,222.5z"/>
			</g>
		</g>
	</g>
	<g>
		<g>
			
				<ellipse transform="matrix(0.7071 -0.7071 0.7071 0.7071 -103.2593 105.8236)" style="fill:#D990FF;" cx="76.1" cy="177.6" rx="9.9" ry="6.1"/>
		</g>
	</g>
</g>
<g>
	<g id="XMLID_00000102541544314174146980000015958282177720349878_">
		<g>
			<path style="fill:#8300DE;" d="M108.3,15.8c-3.6-5.1-8.7-9-14.6-11.1l-0.4-0.2l0.3,0.3c5.3,5.1,8.4,12.3,8.5,19.8
				c0,15.3-12.5,27.8-27.8,27.8c-7.6,0-14.6-3-19.9-8.4L54,43.8l0.2,0.4c2.1,5.9,6,10.9,11.1,14.6c5.2,3.7,11.4,5.7,17.9,5.7
				c8.2,0,16-3.2,21.8-9c5.8-5.8,9-13.5,9-21.8C114,27.2,112,21.1,108.3,15.8z"/>
			<g>
				<path style="fill:#A700FF;" d="M93.7,4.8c5.2,5.1,8.4,12.1,8.4,20c0,15.4-12.5,27.9-27.9,27.9c-7.8,0-14.9-3.2-20-8.4l0,0
					c-1.2-3.3-1.9-6.8-1.9-10.5C52.3,16.9,66.1,3.1,83,3.1C86.9,2.9,90.4,3.6,93.7,4.8L93.7,4.8z"/>
			</g>
		</g>
		<g>
			<g>
				<path d="M52,45c-1.3-3.7-2-7.5-2-11.4C50,15.3,64.9,0.4,83.2,0.4c3.9,0,7.8,0.7,11.4,2L92.9,7c-3.1-1.1-6.3-1.7-9.7-1.7
					C67.6,5.3,54.9,18,54.9,33.6c0,3.3,0.6,6.6,1.7,9.7L52,45z"/>
			</g>
			<g>
				<path d="M83,66.7c-13.8,0-26.4-8.7-31.1-21.8l4.6-1.7c4.1,11.1,14.8,18.6,26.6,18.6c15.6,0,28.3-12.7,28.3-28.3
					c0-11.8-7.5-22.5-18.5-26.5l1.7-4.6c13,4.8,21.8,17.3,21.8,31.2C116.2,51.8,101.3,66.7,83,66.7z"/>
			</g>
		</g>
	</g>
	<g>
		<g>
			
				<ellipse transform="matrix(0.7071 -0.7071 0.7071 0.7071 6.5453 59.5136)" style="fill:#D990FF;" cx="75.1" cy="21.9" rx="9.9" ry="6.1"/>
		</g>
	</g>
</g>
<g>
	<g id="XMLID_00000094600465185373575120000008350176054137075130_">
		<g>
			<path style="fill:#8300DE;" d="M146.5,139c-3.6-5.1-8.7-9-14.6-11.1l-0.4-0.2l0.3,0.3c5.4,5.3,8.4,12.3,8.5,19.8
				c0,15.3-12.5,27.8-27.8,27.8c-7.6,0-14.6-3-19.9-8.4l-0.3-0.3l0.2,0.4c2.1,5.9,6,10.9,11.1,14.6c5.2,3.7,11.4,5.7,17.9,5.7
				c8.2,0,16-3.2,21.8-9c5.8-5.8,9-13.5,9-21.8C152.2,150.4,150.2,144.3,146.5,139z"/>
			<g>
				<path style="fill:#A700FF;" d="M131.9,128c5.2,5.1,8.4,12.1,8.4,20c0,15.4-12.5,27.9-27.9,27.9c-7.8,0-14.9-3.2-20-8.4l0,0
					c-1.2-3.3-1.9-6.8-1.9-10.5c0-16.9,13.8-30.7,30.7-30.7C125.1,126.2,128.6,126.8,131.9,128L131.9,128z"/>
			</g>
		</g>
		<g>
			<g>
				<path d="M90.2,168.3c-1.3-3.6-2-7.5-2-11.4c0-18.3,14.9-33.2,33.2-33.2c3.9,0,7.8,0.7,11.4,2l-1.7,4.6c-3.1-1.1-6.3-1.7-9.7-1.7
					c-15.6,0-28.3,12.7-28.3,28.3c0,3.3,0.6,6.6,1.7,9.7L90.2,168.3z"/>
			</g>
			<g>
				<path d="M121.3,190.1c-13.9,0-26.4-8.8-31.2-21.8l4.6-1.7c4.1,11.1,14.8,18.6,26.6,18.6c15.6,0,28.3-12.7,28.3-28.3
					c0-11.8-7.5-22.5-18.5-26.5l1.7-4.6c13,4.8,21.8,17.3,21.8,31.2C154.5,175.2,139.6,190.1,121.3,190.1z"/>
			</g>
		</g>
	</g>
	<g>
		<g>
			
				<ellipse transform="matrix(0.7071 -0.7071 0.7071 0.7071 -69.4086 122.5902)" style="fill:#D990FF;" cx="113.3" cy="145.1" rx="9.9" ry="6.1"/>
		</g>
	</g>
</g>
<g>
	<g id="XMLID_00000029724974841128997460000016026728225579982765_">
		<g>
			<path style="fill:#8300DE;" d="M71.1,137c-3.6-5.1-8.7-9-14.6-11.1l-0.4-0.2l0.3,0.3c5.3,5.1,8.4,12.3,8.5,19.8
				c0,15.3-12.5,27.8-27.8,27.8c-7.6,0-14.6-3-19.9-8.4l-0.3-0.3l0.2,0.4c2.1,5.9,6,10.9,11.1,14.6c5.2,3.7,11.4,5.7,17.9,5.7
				c8.2,0,16-3.2,21.8-9c5.8-5.8,9-13.5,9-21.8C76.8,148.4,74.8,142.3,71.1,137z"/>
			<g>
				<path style="fill:#A700FF;" d="M56.5,126c5.2,5.1,8.4,12.1,8.4,20c0,15.4-12.5,27.9-27.9,27.9c-7.8,0-14.9-3.2-20-8.4l0,0
					c-1.2-3.3-1.9-6.8-1.9-10.5c0-16.9,13.8-30.7,30.7-30.7C49.7,124.1,53.2,124.8,56.5,126L56.5,126z"/>
			</g>
		</g>
		<g>
			<g>
				<path d="M14.7,166.2c-1.3-3.7-2-7.5-2-11.4c0-18.3,14.9-33.2,33.2-33.2c3.9,0,7.8,0.7,11.4,2l-1.7,4.6c-3.1-1.1-6.3-1.7-9.7-1.7
					c-15.6,0-28.3,12.7-28.3,28.3c0,3.3,0.6,6.6,1.7,9.7L14.7,166.2z"/>
			</g>
			<g>
				<path d="M45.9,188c-13.9,0-26.4-8.8-31.2-21.8l4.6-1.7c4.1,11.1,14.8,18.6,26.6,18.6c15.6,0,28.3-12.7,28.3-28.3
					c0-11.8-7.5-22.5-18.5-26.5l1.7-4.6c13,4.8,21.8,17.3,21.8,31.2C79.1,173.1,64.2,188,45.9,188z"/>
			</g>
		</g>
	</g>
	<g>
		<g>
			
				<ellipse transform="matrix(0.7071 -0.7071 0.7071 0.7071 -90.1171 68.6759)" style="fill:#D990FF;" cx="37.8" cy="143.1" rx="9.9" ry="6.1"/>
		</g>
	</g>
</g>
<g>
	<g id="XMLID_00000180361152251508186580000000300391002281358773_">
		<g>
			<path style="fill:#8300DE;" d="M153.1,88.2c-3.6-5.1-8.7-9-14.6-11.1l-0.4-0.2l0.3,0.3c5.4,5.3,8.4,12.3,8.5,19.8
				c0,15.3-12.5,27.8-27.8,27.8c-7.6,0-14.6-3-19.9-8.4l-0.3-0.3l0.2,0.4c2.1,5.9,6,10.9,11.1,14.6c5.2,3.7,11.4,5.7,17.9,5.7
				c8.2,0,16-3.2,21.8-9s9-13.5,9-21.8C158.8,99.6,156.8,93.5,153.1,88.2z"/>
			<g>
				<path style="fill:#A700FF;" d="M138.5,77.2c5.2,5.1,8.4,12.1,8.4,20c0,15.4-12.5,27.9-27.9,27.9c-7.8,0-14.9-3.2-20-8.4l0,0
					c-1.2-3.3-1.9-6.8-1.9-10.5c0-16.9,13.8-30.7,30.7-30.7C131.7,75.4,135.2,76,138.5,77.2L138.5,77.2z"/>
			</g>
		</g>
		<g>
			<g>
				<path d="M96.8,117.5c-1.3-3.7-2-7.5-2-11.4c0-18.3,14.9-33.2,33.2-33.2c3.9,0,7.8,0.7,11.4,2l-1.7,4.6c-3.1-1.1-6.3-1.7-9.7-1.7
					c-15.6,0-28.3,12.7-28.3,28.3c0,3.3,0.6,6.6,1.7,9.7L96.8,117.5z"/>
			</g>
			<g>
				<path d="M128,139.3c-13.9,0-26.4-8.8-31.2-21.8l4.6-1.7c4.1,11.1,14.8,18.6,26.6,18.6c15.6,0,28.3-12.7,28.3-28.3
					c0-11.8-7.5-22.5-18.5-26.5l1.7-4.6c13,4.8,21.8,17.3,21.8,31.2C161.1,124.4,146.2,139.3,128,139.3z"/>
			</g>
		</g>
	</g>
	<g>
		<g>
			
				<ellipse transform="matrix(0.7071 -0.7071 0.7071 0.7071 -31.5593 112.38)" style="fill:#D990FF;" cx="119.9" cy="94.3" rx="9.9" ry="6.1"/>
		</g>
	</g>
</g>
<g>
	<g id="XMLID_00000110446064620231469830000006674298665943943607_">
		<g>
			<path style="fill:#8300DE;" d="M58.4,83.6c-3.6-5.1-8.7-9-14.6-11.1l-0.4-0.2l0.3,0.3c5.3,5.3,8.4,12.5,8.5,19.8
				c0,15.3-12.5,27.8-27.8,27.8c-7.6,0-14.6-3-19.9-8.4l-0.3-0.3l0.2,0.4c2.1,5.9,6,10.9,11.1,14.6c5.2,3.7,11.4,5.7,17.9,5.7
				c8.2,0,16-3.2,21.8-9s9-13.5,9-21.8C64.1,95,62.1,88.9,58.4,83.6z"/>
			<g>
				<path style="fill:#A700FF;stroke:#8300DE;stroke-width:0.2;stroke-miterlimit:10;" d="M43.8,72.6c5.2,5.1,8.4,12.1,8.4,20
					c0,15.4-12.5,27.9-27.9,27.9c-7.8,0-14.9-3.2-20-8.4l0,0c-1.2-3.3-1.9-6.8-1.9-10.5c0-16.9,13.8-30.7,30.7-30.7
					C36.9,70.8,40.5,71.4,43.8,72.6L43.8,72.6z"/>
			</g>
		</g>
		<g>
			<g>
				<path d="M2,112.9c-1.3-3.7-2-7.5-2-11.4c0-18.3,14.9-33.2,33.2-33.2c3.9,0,7.8,0.7,11.4,2l-1.7,4.6c-3.1-1.1-6.3-1.7-9.7-1.7
					c-15.6,0-28.3,12.7-28.3,28.3c0,3.3,0.6,6.6,1.7,9.7L2,112.9z"/>
			</g>
			<g>
				<path d="M33.2,134.7c-13.9,0-26.4-8.8-31.2-21.8l4.6-1.7c4.1,11.1,14.8,18.6,26.6,18.6c15.6,0,28.3-12.7,28.3-28.3
					C61.5,89.7,54,79,43,75l1.7-4.6c13,4.8,21.8,17.3,21.8,31.2C66.4,119.8,51.5,134.7,33.2,134.7z"/>
			</g>
		</g>
	</g>
	<g>
		<g>
			
				<ellipse transform="matrix(0.7071 -0.7071 0.7071 0.7071 -56.0879 44.0157)" style="fill:#D990FF;" cx="25.1" cy="89.7" rx="9.9" ry="6.1"/>
		</g>
	</g>
</g>
<g>
	<g id="XMLID_00000155122028499956118300000017990327790629278642_">
		<g>
			<path style="fill:#8300DE;" d="M106.2,111.3c-3.6-5.1-8.7-9-14.6-11.1l-0.4-0.2l0.3,0.3c5.4,5.3,8.5,12.5,8.5,19.8
				c0,15.3-12.5,27.8-27.8,27.8c-7.6,0-14.6-3-19.9-8.4l-0.3-0.3l0.2,0.4c2.1,5.9,6,10.9,11.1,14.6c5.2,3.7,11.4,5.7,17.9,5.7
				c8.2,0,16-3.2,21.8-9s9-13.5,9-21.8C111.9,122.7,109.9,116.6,106.2,111.3z"/>
			<g>
				<path style="fill:#A700FF;" d="M91.6,100.3c5.2,5.1,8.4,12.1,8.4,20c0,15.4-12.5,27.9-27.9,27.9c-7.8,0-14.9-3.2-20-8.4l0,0
					c-1.2-3.3-1.9-6.8-1.9-10.5c0-16.9,13.8-30.7,30.7-30.7C84.8,98.5,88.4,99.1,91.6,100.3L91.6,100.3z"/>
			</g>
		</g>
		<g>
			<g>
				<path d="M49.9,140.6c-1.3-3.7-2-7.5-2-11.4c0-18.3,14.9-33.2,33.2-33.2c3.9,0,7.8,0.7,11.4,2l-1.7,4.6c-3.1-1.1-6.3-1.7-9.7-1.7
					c-15.6,0-28.3,12.7-28.3,28.3c0,3.3,0.6,6.6,1.7,9.7L49.9,140.6z"/>
			</g>
			<g>
				<path d="M81,162.3c-13.9,0-26.4-8.8-31.2-21.8l4.6-1.7c4.1,11.1,14.8,18.6,26.6,18.6c15.6,0,28.3-12.7,28.3-28.3
					c0-11.8-7.5-22.5-18.5-26.5l1.7-4.6c13,4.8,21.8,17.3,21.8,31.2C114.1,147.4,99.3,162.3,81,162.3z"/>
			</g>
		</g>
	</g>
	<g>
		<g>
			
				<ellipse transform="matrix(0.7071 -0.7071 0.7071 0.7071 -61.6376 85.9949)" style="fill:#D990FF;" cx="73" cy="117.4" rx="9.9" ry="6.1"/>
		</g>
	</g>
</g>
<g>
	<g id="XMLID_00000181782999659467018450000018037358213719692693_">
		<g>
			<g>
				<path style="fill:#8300DE;" d="M44,25.7C55.8,30,64.2,41.3,64.2,54.5c0,17-13.7,30.7-30.7,30.7C20.2,85.2,8.9,76.8,4.6,65
					c5.1,5.2,12.2,8.4,20,8.4C40,73.5,52.4,61,52.4,45.6C52.4,37.8,49.2,30.7,44,25.7z"/>
			</g>
			<g>
				<path style="fill:#A700FF;" d="M44,25.7c5.2,5.1,8.4,12.1,8.4,20C52.4,61,40,73.5,24.6,73.5c-7.8,0-14.9-3.2-20-8.4l0,0
					c-1.2-3.3-1.9-6.8-1.9-10.5c0-16.9,13.8-30.7,30.7-30.7C37.2,23.8,40.7,24.5,44,25.7L44,25.7z"/>
			</g>
		</g>
		<g>
			<g>
				<path d="M2.3,65.9c-1.3-3.7-2-7.5-2-11.4c0-18.3,14.9-33.2,33.2-33.2c3.9,0,7.8,0.7,11.4,2L43.1,28c-3.1-1.1-6.3-1.7-9.7-1.7
					C17.8,26.3,5.1,39,5.1,54.6c0,3.3,0.6,6.6,1.7,9.7L2.3,65.9z"/>
			</g>
			<g>
				<path d="M33.3,87.7C19.4,87.7,6.9,79,2.1,65.9l4.6-1.7c4.1,11.1,14.7,18.6,26.6,18.6c15.6,0,28.3-12.7,28.3-28.3
					c0-11.8-7.5-22.5-18.5-26.5l1.7-4.6c13,4.8,21.8,17.3,21.8,31.2C66.4,72.8,51.6,87.7,33.3,87.7z"/>
			</g>
		</g>
	</g>
	<g>
		<g>
			
				<ellipse transform="matrix(0.7071 -0.7071 0.7071 0.7071 -22.7609 30.441)" style="fill:#D990FF;" cx="25.4" cy="42.7" rx="9.9" ry="6.1"/>
		</g>
	</g>
</g>
<g>
	<g id="XMLID_00000131359143941330800500000005357173205195285695_">
		<g>
			<path style="fill:#8300DE;" d="M103.2,52.6c-3.6-5.1-8.7-9-14.6-11.1l-0.4-0.2l0.3,0.3c5.4,5.2,8.5,12.4,8.5,19.8
				c0,15.3-12.5,27.8-27.8,27.8c-7.6,0-14.6-3-19.9-8.4l-0.3-0.3l0.2,0.4c2.1,5.9,6,10.9,11.1,14.6c5.2,3.7,11.4,5.7,17.9,5.7
				c8.2,0,16-3.2,21.8-9s9-13.5,9-21.8C108.9,64,106.9,57.9,103.2,52.6z"/>
			<g>
				<path style="fill:#A700FF;" d="M88.6,41.6c5.2,5.1,8.4,12.1,8.4,20C97,77,84.5,89.5,69.1,89.5c-7.8,0-14.9-3.2-20-8.4l0,0
					c-1.2-3.3-1.9-6.8-1.9-10.5c0-16.9,13.8-30.7,30.7-30.7C81.8,39.7,85.4,40.4,88.6,41.6L88.6,41.6z"/>
			</g>
		</g>
		<g>
			<g>
				<path d="M46.9,81.8c-1.3-3.7-2-7.5-2-11.4c0-18.3,14.9-33.2,33.2-33.2c3.9,0,7.8,0.7,11.4,2l-1.7,4.6c-3.1-1.1-6.3-1.7-9.7-1.7
					c-15.6,0-28.3,12.7-28.3,28.3c0,3.3,0.6,6.6,1.7,9.7L46.9,81.8z"/>
			</g>
			<g>
				<path d="M78,103.5c-13.9,0-26.4-8.8-31.2-21.8l4.6-1.7C55.5,91.1,66.2,98.6,78,98.6c15.6,0,28.3-12.7,28.3-28.3
					c0-11.8-7.5-22.5-18.5-26.5l1.7-4.6c13,4.8,21.8,17.3,21.8,31.2C111.2,88.6,96.3,103.5,78,103.5z"/>
			</g>
		</g>
	</g>
	<g>
		<g>
			
				<ellipse transform="matrix(0.7071 -0.7071 0.7071 0.7071 -20.9511 66.6436)" style="fill:#D990FF;" cx="70" cy="58.6" rx="9.9" ry="6.1"/>
		</g>
	</g>
</g>
<g>
	<g id="XMLID_00000046334152822724699960000000858341886660954505_">
		<g>
			<path style="fill:#8300DE;" d="M159,37.8c-3.6-5.1-8.7-9-14.6-11.1l-0.4-0.2l0.3,0.3c5.3,5.1,8.4,12.3,8.5,19.8
				c0,15.3-12.5,27.8-27.8,27.8c-7.6,0-14.6-3-19.9-8.4l-0.3-0.3l0.2,0.4c2.1,5.9,6,10.9,11.1,14.6c5.2,3.7,11.4,5.7,17.9,5.7
				c8.2,0,16-3.2,21.8-9c5.8-5.8,9-13.5,9-21.8C164.7,49.2,162.7,43.1,159,37.8z"/>
			<g>
				<path style="fill:#A700FF;" d="M144.4,26.8c5.2,5.1,8.4,12.1,8.4,20c0,15.4-12.5,27.9-27.9,27.9c-7.8,0-14.9-3.2-20-8.4l0,0
					c-1.2-3.3-1.9-6.8-1.9-10.5c0-16.9,13.8-30.7,30.7-30.7C137.6,24.9,141.1,25.6,144.4,26.8L144.4,26.8z"/>
			</g>
		</g>
		<g>
			<g>
				<path d="M102.6,67c-1.3-3.7-2-7.5-2-11.4c0-18.3,14.9-33.2,33.2-33.2c3.9,0,7.8,0.7,11.4,2l-1.7,4.6c-3.1-1.1-6.3-1.7-9.7-1.7
					c-15.6,0-28.3,12.7-28.3,28.3c0,3.3,0.6,6.6,1.7,9.7L102.6,67z"/>
			</g>
			<g>
				<path d="M133.7,88.7c-13.9,0-26.4-8.8-31.2-21.8l4.6-1.7c4.1,11.1,14.8,18.6,26.6,18.6c15.6,0,28.3-12.7,28.3-28.3
					c0-11.8-7.5-22.5-18.5-26.5l1.7-4.6c13,4.8,21.8,17.3,21.8,31.2C166.9,73.8,152,88.7,133.7,88.7z"/>
			</g>
		</g>
	</g>
	<g>
		<g>
			
				<ellipse transform="matrix(0.7071 -0.7071 0.7071 0.7071 5.7712 101.7771)" style="fill:#D990FF;" cx="125.7" cy="43.9" rx="9.9" ry="6.1"/>
		</g>
	</g>
</g>
</svg>
