<svg id="레이어_1" data-name="레이어 1" xmlns="http://www.w3.org/2000/svg" viewBox="0 0 500 600"><defs><style>.cls-1{fill:#ff981d;}</style></defs><path class="cls-1" d="M387.58,244.89l0,.17L388,249l1.11,4.11.44,4.15-.5,8.54-.5,1.84-2.5,3-1,1.7-.43,2-.34,12.07.28,1.64.49.9.54.37.43.5.47,3.4.6,2.59.65.46.44.56-.31,1.55-.65.88-.84.4-.8.26L384.27,301l-.07,1.37,1.7,1.57,1.23,1.37,1.29,1.58,1.64.28,2.08-1.63,5.14-5.61,1-1.65,1.33,1.06.3,1.71.57,1.78.42,2-1.26,2-2.92,5.78-.22,2.59-.86,6.81-2.1,5.9.12,3.7L391.5,338l-1.58,3.11-.69,1.56.67,1.77.62.74h-.07l-6.4-1.56L376.53,345l-1.36-.35-1-.72-.2-1.32,0-1.48-.75-1.22-2.85-1.23-2.74-.57-2.8.42-3.42,1.19-2.73,2.11.45,1.39.77,1.28-.51,1-1.24,0L356,346.69l-1.95,1.57-2.27.76-2.38-1.12-3.11-.77-2.93,1.2-.92,1.19-1.11,1-1.18.15-1.16.43-2.63,2.09-3-.09-2.52-1.33-2.65-.8-3,.54-2.94.33-2.53-1.6-2-2.48-.67-5.48-1.86,1.44-2,2.84-2.22-.45-4.33,2.22-2.29-.46-2.08-1.56-2.19-1-2.33-.39-2.44.34-5-.21L289,340.39l1-2.23,0-2.34-1.08-1.27-1.25-.77-.27-.85L287,332l-1.79-1.26-1.08-2L282.56,327l-2.09-.7-2.29,0-2.33-.18-1.31-.88-1.06-.89-2.45-.19-.66-.22-.65-.29-.33-.81-.06-.78-.75-.63-.75-.57-1.64-1-.65-2.21.37-6.33-3.31-5.64,2-.95,2-.68,1.25-2.44.68-2.56.63-1.11.78-.94.17-1.64,0-1.37-.45-2.68,2-1.67,1.94.36,1.72.1-.92-5.2-1.83-1.35-4.13,1-1.57-.74L264.52,282l-2-.63-3.25.76-.48-4.75,1.78-1.54,1.17-2.3-.9-1.58-.51-1.72.49-2.41.32-5.45.81-2.29,1.47-1.43-4-5.74-3.16-.53-.92-2.29,1.2-.56,1.19-.21,1.17-1.25,1.82-2.44.45-1-.05-.93.21-1.19,2.52-1.71,2.82-1.33,1.76-2.62,3.08,1.34,5.74.91-1.18-2.26-1.55-2,.55-2.06,1-2.2,1-1.65,1.29.85,1.61-.13,1.33-1.79,1.38-.88,1.31.84,2.5.87,2.33.18.57-1.66.4-1.56.84-1.33,1.06-1,1.05,1.18,1.35,1,1.9,1.64,1.21,2.43,2.88.95,6.77-2.84,1.2-4-1.07-1-.57-1,1-1.87.84-1.9,1.78-2.54,2.5-1.76.71-1.29,1-.83L316,211l1.34-1.31,2.06-1.71,1.86-2,.79-.5,1,.37,1.1-.63,1-1.12,2.08,1.1,2,.84,2.42.51,2.07.2.47-2.16.26-2.32-.53-2.48,1.47-1.79,2.2-1,2.2.18,1.14,2,1.56.35,1.41.7-.2,1.76.18,1.76,2.43-.95,2.29-1.78,1,.41.69.91.88.11,1.07-.43,3.17.53,3,1.36,2.11-.53,2.2-1.16,2.77.65,2.52,1.51.79,2.33-1.92,1.43-2.35-.93-1.52.56-1.38,1-.58,2.5.36,3.27L363,217l2.67,1.26.59,2.14.76,1.85,1.86.79,1.74,1,5.92.44-.32,2.29.69.65.64.75-.87,2.53-1.08,2.67.22,2.82.71,2.48.25,2.24-.9,2.39,5.6,2.06,2.6-1.14,2.7.62Zm-55.11,76.66,1.26-1.3.44-1.57-.05-1.68-.16-1.58-.87-.74-.65-1,0-2.52.39-.66,0-.79-1-1.78-3.25-2.37-4.27.28-5.15.69-3.8,3.14.51,4.54-1.39,1.52-.87,1.95.77.13.71.26-.15,1-.34.94-1.31.22h-1.21L311,321.81l.48,1.84,1.26.48,1.18,1.16,1,1.85,1.43,1.16,1,.64.75.61.62-.53,1.15-2,1.15-.91,2.62.27,4.67,1.21,1.81-1.09.24-.93v-.64l.76-2,.11-.84,0-.65.76-.07Zm114.9-170.47,1.38,1-.1,2.58-.89,2.87-.95,1.91-1.54.77-2.06-.4-2-1.2-1.33-1.6-.42-2.07.69-1.54,1.45-1,2.88-.49,1.92-.7Z"/><path class="cls-1" d="M459.67,164.25l-1.15,2.43a.2.2,0,0,0,.06.25l1.21.84a.21.21,0,0,0,.23,0l1.4-1.06a.18.18,0,0,0,.07-.1L462,165a.2.2,0,0,0-.13-.25l-1.95-.61A.21.21,0,0,0,459.67,164.25Z"/></svg>