<?xml version="1.0" encoding="utf-8"?>
<!-- Generator: Adobe Illustrator 26.5.0, SVG Export Plug-In . SVG Version: 6.00 Build 0)  -->
<svg version="1.1" id="레이어_1" xmlns="http://www.w3.org/2000/svg" xmlns:xlink="http://www.w3.org/1999/xlink" x="0px"
	 y="0px" viewBox="0 0 390 390" style="enable-background:new 0 0 390 390;" xml:space="preserve">
<g>
	<g>
		<path style="fill:#67D21B;" d="M282.8,241.1c0.5,3.7,1.7,7,4.6,7.9c4.1,1.4,10.2-0.7,13.9-2.7c3.4-1.8-0.5-7.7-1-10.4
			c-1-5.4,3.4-8.5,7-11.8c4.9-4.5,8.6-9.6,12.5-14.9c3.2-4.3,6.5-7.7,7.3-13.3c0.9-7-1.7-13.9-3.3-20.8c-1.6-6.7-3.9-13.5-7.5-19.5
			c-1.1-1.8-2.4-3.7-4.4-4.4c-1-0.4-2-0.5-3-0.5c-4.3,0-8.5,1.8-12.1,4.3c-3.5,2.5-6.4,5.8-9.1,9.3c-0.8,1-1.5,2.1-1.7,3.3
			c-0.5,3.3,2.9,5.4,4.5,7.9c1.7,2.6,2.3,5.7,3.7,8.5c1.7,3.4,5,6.9,6,10.5c0.9,3-0.7,4.2-1.6,7.1c-1.5,4.7-2.7,9.5-4.5,14.1
			c-1.9,4.7-5.7,7.1-9.2,10.7c-0.6,0.6-1.2,1.3-1.5,2c-0.3,0.6-0.4,1.4-0.4,2C282.7,233.1,282.3,237.3,282.8,241.1z"/>
		<path d="M290.3,250.7c-1.2,0-2.3-0.2-3.4-0.5c-3-1-4.8-4-5.4-8.9l0,0c-0.5-4.1-0.1-8.6,0.1-10.7c0.1-0.8,0.2-1.6,0.5-2.4
			c0.4-0.9,1.1-1.7,1.8-2.4c1-1,1.9-1.9,2.9-2.8c2.4-2.3,4.7-4.4,6-7.6c1.3-3.2,2.3-6.6,3.3-9.9c0.4-1.4,0.8-2.7,1.2-4.1
			c0.3-1,0.7-1.8,1-2.5c0.7-1.4,1.1-2.3,0.6-3.9c-0.6-2-2-4-3.3-6c-0.9-1.4-1.9-2.8-2.6-4.2c-0.6-1.2-1.1-2.5-1.5-3.7
			c-0.6-1.7-1.2-3.3-2.1-4.7c-0.4-0.6-1-1.3-1.6-2c-1.6-1.8-3.5-3.8-3-6.8c0.2-1.5,1.1-2.7,2-3.9c2.3-2.9,5.4-6.7,9.3-9.5
			c2.9-2.1,7.4-4.5,12.8-4.5c1.4,0,2.5,0.2,3.5,0.6c2.3,0.9,3.8,3,5,4.9c3.3,5.5,5.9,12.2,7.7,19.8c0.3,1.5,0.7,3,1.1,4.5
			c1.4,5.4,2.9,11.1,2.1,16.8c-0.7,5-3.3,8.3-6,11.9c-0.5,0.6-1,1.3-1.5,2l-0.8,1.1c-3.7,5-7.2,9.7-11.9,13.9
			c-0.4,0.4-0.9,0.8-1.3,1.1c-3.2,2.8-6.1,5.4-5.4,9.5c0.1,0.6,0.5,1.5,0.9,2.5c1.2,2.9,3,7.3-0.5,9.2
			C298.7,249.1,294.2,250.7,290.3,250.7z M308.9,152.1C308.9,152.1,308.9,152.1,308.9,152.1c-4.9,0-8.9,2.2-11.5,4.1
			c-3.7,2.7-6.7,6.2-8.8,9c-0.7,0.9-1.3,1.8-1.5,2.7c-0.3,1.8,1,3.2,2.4,4.8c0.6,0.7,1.3,1.5,1.8,2.3c1.1,1.7,1.7,3.5,2.4,5.2
			c0.4,1.2,0.9,2.4,1.4,3.5c0.6,1.3,1.5,2.6,2.4,4c1.5,2.1,3,4.4,3.6,6.7c0.7,2.5,0,4.1-0.7,5.7c-0.3,0.7-0.6,1.3-0.9,2.2
			c-0.4,1.3-0.8,2.7-1.2,4c-1,3.4-2,6.8-3.3,10.2c-1.5,3.7-4,6-6.6,8.5c-0.9,0.9-1.9,1.7-2.8,2.7c-0.6,0.6-1,1.1-1.3,1.7
			c-0.2,0.5-0.3,1.1-0.3,1.7c-0.2,2.1-0.6,6.4-0.1,10.2l0,0c0.5,3.9,1.7,6.2,3.7,6.9c3.5,1.1,9-0.5,12.9-2.6
			c1.4-0.7,0.5-3.2-0.6-6.1c-0.5-1.1-0.9-2.1-1-3c-1-5.5,2.8-8.9,6.2-11.8c0.4-0.4,0.8-0.7,1.3-1.1c4.5-4.1,7.9-8.7,11.5-13.6
			l0.8-1.1c0.5-0.7,1-1.4,1.5-2c2.6-3.4,4.9-6.3,5.5-10.7c0.7-5.2-0.7-10.6-2.1-15.8c-0.4-1.5-0.8-3-1.1-4.5
			c-1.7-7.4-4.2-13.8-7.4-19.1c-0.9-1.6-2.1-3.3-3.8-3.9C310.8,152.2,310,152.1,308.9,152.1z"/>
	</g>
	<g>
		<path style="fill:#152A5A;" d="M304.6,137.3c10.1,7.3,16.5,19,18.6,31.3c-6.4,2.1-13,3.5-19.2,6.1c-6.4,2.7-11.3,6.7-15.2,12.5
			c-5.2-2.4-8-17.3-9.7-22.6c-2.7-8.6-4.8-17.5-5.3-26.6c-0.3-4.9-1.3-7.1,3.4-8.2c3-0.7,7,0.3,9.9,0.8
			C293.1,131.8,299.7,133.7,304.6,137.3z"/>
		<path d="M289.3,188.7l-1-0.4c-4.7-2.2-7.3-12.1-9.2-19.3c-0.4-1.6-0.8-3-1.1-4c-3.2-10.1-4.9-18.7-5.4-26.9c0-0.7-0.1-1.3-0.1-1.9
			c-0.3-3.6-0.6-6.4,4.5-7.6c2.9-0.7,6.5,0.1,9.4,0.6l1.1,0.2c7.7,1.5,13.6,3.7,17.9,6.9l0,0c9.9,7.2,16.9,18.8,19.1,32.1l0.2,1
			l-1,0.3c-2.4,0.8-4.9,1.5-7.2,2.2c-4,1.1-8.1,2.3-11.9,3.9c-6.2,2.6-11,6.5-14.6,12L289.3,188.7z M279.6,130.8
			c-0.7,0-1.4,0.1-2,0.2c-3,0.7-2.9,1.4-2.6,4.9c0.1,0.6,0.1,1.3,0.2,2c0.5,8,2.2,16.3,5.3,26.3c0.3,1.1,0.7,2.5,1.1,4.1
			c1.5,5.5,3.8,14.4,7,17.1c3.9-5.4,8.8-9.3,15-11.9c4-1.7,8.1-2.9,12.2-4c2-0.6,4.1-1.2,6.1-1.8c-2.3-12.1-8.8-22.8-18-29.4
			c-4-2.9-9.6-5-16.9-6.4l-1.1-0.2C283.9,131.3,281.6,130.8,279.6,130.8z"/>
	</g>
	<g>
		<path style="fill:#DBDBDB;" d="M311.7,253.2c0.3,3.7-1,7.5-3.5,10.3c-0.7,0.7-1.6,1.5-2.6,1.3c-0.8-0.2-1.4-0.9-1.7-1.7
			s-0.3-1.6-0.5-2.4c-0.8-3.7-4-6.3-5.7-9.6c-0.4-0.8-0.7-1.6-0.7-2.5c0.1-0.9,0.5-1.7,1-2.3c1.8-2.2,6-3.1,8.6-2
			C309.9,245.6,311.5,250.3,311.7,253.2z"/>
		<path d="M306,266c-0.2,0-0.4,0-0.6-0.1c-1.1-0.2-2.1-1.1-2.6-2.5c-0.2-0.6-0.3-1.2-0.4-1.8c0-0.3-0.1-0.5-0.1-0.8
			c-0.4-2-1.7-3.7-3-5.5c-0.9-1.2-1.8-2.5-2.5-3.8c-0.4-0.7-0.9-1.8-0.8-3.1c0.1-1,0.5-2.1,1.3-3.1c2.1-2.6,6.9-3.7,10.1-2.3
			c3.6,1.6,5.3,6.8,5.6,10c0.4,4-1.1,8.2-3.8,11.2C308.1,265.5,307.1,266,306,266z M304.3,245c-1.9,0-4.1,0.8-5.1,2
			c-0.3,0.4-0.7,1-0.7,1.6c0,0.5,0.1,1.1,0.5,1.8c0.6,1.2,1.4,2.3,2.3,3.5c1.4,1.9,2.9,3.9,3.5,6.5c0.1,0.3,0.1,0.6,0.2,0.9
			c0.1,0.5,0.1,0.9,0.3,1.3c0.2,0.5,0.5,0.8,0.7,0.9c0.3,0,0.9-0.3,1.4-0.9c2.3-2.5,3.4-6,3.2-9.3l0,0c-0.2-2.6-1.7-6.8-4.1-7.9
			C305.8,245.2,305.1,245,304.3,245z"/>
	</g>
	<g>
		<path style="fill:#DBDBDB;" d="M305.1,256.3c0,3.7-1.6,7.4-4.3,10c-0.7,0.7-1.7,1.3-2.7,1c-0.8-0.2-1.3-1-1.5-1.8
			c-0.2-0.8-0.2-1.6-0.3-2.4c-0.4-3.7-3.4-6.6-4.8-10.1c-0.3-0.8-0.6-1.7-0.4-2.5c0.1-0.9,0.6-1.6,1.2-2.2c2-2,6.3-2.6,8.8-1.2
			C303.9,248.5,305.1,253.3,305.1,256.3z"/>
		<path d="M298.6,268.5c-0.3,0-0.5,0-0.8-0.1c-1.1-0.3-2-1.3-2.4-2.7c-0.2-0.6-0.2-1.2-0.2-1.8c0-0.3,0-0.5-0.1-0.8
			c-0.2-2-1.4-3.8-2.6-5.7c-0.8-1.3-1.6-2.6-2.2-4.1c-0.3-0.8-0.7-1.9-0.5-3.1c0.1-1,0.7-2,1.6-2.9c2.3-2.4,7.2-3.1,10.2-1.5
			c3.5,1.9,4.7,7.2,4.7,10.4l0,0c0,4.1-1.7,8.1-4.7,10.9C300.6,268.1,299.5,268.5,298.6,268.5z M297.7,247.4c-1.7,0-3.6,0.6-4.6,1.6
			c-0.3,0.4-0.8,0.9-0.9,1.6c-0.1,0.5,0,1.1,0.4,1.9c0.5,1.3,1.2,2.4,2,3.7c1.3,2.1,2.6,4.2,2.9,6.7c0,0.3,0.1,0.6,0.1,0.9
			c0,0.5,0.1,1,0.2,1.4c0.1,0.5,0.4,0.8,0.7,0.9c0.3,0.1,0.9-0.2,1.5-0.8c2.5-2.3,3.9-5.7,3.9-9l0,0c0-2.7-1.1-7-3.4-8.2
			C299.7,247.6,298.7,247.4,297.7,247.4z"/>
	</g>
	<g>
		<path style="fill:#DBDBDB;" d="M296.6,259.4c-1.5,3.4-4.4,6.2-7.9,7.4c-0.9,0.3-2.1,0.5-2.9-0.1c-0.6-0.5-0.8-1.4-0.7-2.2
			s0.5-1.6,0.7-2.3c1.1-3.6-0.5-7.4-0.4-11.2c0-0.9,0.1-1.7,0.6-2.5c0.5-0.7,1.2-1.3,2-1.6c2.6-1.1,6.8,0.1,8.5,2.3
			C298.6,251.8,297.8,256.7,296.6,259.4z"/>
		<path d="M287.1,268.4c-0.8,0-1.5-0.2-2.1-0.7c-0.9-0.7-1.3-2-1.1-3.4c0.1-0.6,0.3-1.2,0.5-1.8c0.1-0.2,0.2-0.5,0.3-0.7
			c0.6-1.9,0.3-4-0.1-6.3c-0.2-1.5-0.5-3-0.4-4.6c0-0.8,0.1-2,0.8-3.1c0.5-0.9,1.4-1.6,2.6-2.1c3.1-1.3,7.9,0,10,2.7
			c2.4,3.1,1.5,8.5,0.2,11.4c0,0,0,0,0,0c-1.6,3.7-4.8,6.7-8.6,8.1C288.4,268.3,287.7,268.4,287.1,268.4z M290.3,247.8
			c-0.6,0-1.2,0.1-1.8,0.3c-0.5,0.2-1.1,0.5-1.4,1.1c-0.3,0.4-0.4,1-0.4,1.9c0,1.4,0.2,2.7,0.4,4.2c0.4,2.4,0.7,4.9,0,7.3
			c-0.1,0.3-0.2,0.6-0.3,0.9c-0.2,0.5-0.3,0.9-0.4,1.3c-0.1,0.5,0,0.9,0.2,1.1c0.3,0.2,0.9,0.2,1.7-0.1c3.2-1.1,5.9-3.6,7.2-6.7l0,0
			c1-2.4,1.8-6.8,0.1-8.9C294.5,248.7,292.2,247.8,290.3,247.8z M296.6,259.4L296.6,259.4L296.6,259.4z"/>
	</g>
	<g>
		<path style="fill:#182B57;" d="M286,142c-0.3,0-0.5-0.2-0.6-0.2l-14.9-8.6c-0.1-0.1-0.2-0.2-0.2-0.3s0-0.3,0.1-0.4
			c0.9-0.8,1.7-1.8,2.6-2.8c1.4-1.6,2.8-3.3,4.5-4.4c2.3-1.6,4.3-1,6.9-0.2l0.7,0.2c2.8,0.8,5.5,1.9,8,3.3c0.3,0.2,1.2,0.7,2.4,1.7
			c1.3,0.9,3.5,2.5,4,2.7c0.2,0,0.3,0.1,0.4,0.3s0,0.5-0.2,0.6l0,0c-4.5,2.1-8.7,4.7-12.6,7.8c-0.2,0.1-0.4,0.3-0.7,0.4
			C286.3,142,286.2,142,286,142z"/>
		<path style="fill:#850404;" d="M289.7,126.9c0,0-6.9,2.2-12.1,10.3l8.4,4.7l13.9-8.8L289.7,126.9z"/>
		<path d="M285.9,143c-0.5,0-0.9-0.3-1-0.4L270,134c-0.4-0.2-0.7-0.6-0.7-1.1c-0.1-0.5,0.1-0.9,0.4-1.2c0.8-0.8,1.6-1.7,2.5-2.7
			c1.4-1.7,2.9-3.4,4.7-4.6c2.7-1.9,5.2-1.1,7.7-0.3l0.7,0.2c2.8,0.8,5.6,2,8.2,3.4c0.4,0.2,1.1,0.7,2.5,1.7
			c0.9,0.6,3.1,2.2,3.7,2.5c0.5,0.1,0.9,0.4,1.1,0.8c0.2,0.4,0.2,0.7,0,1.1c-0.1,0.3-0.4,0.6-0.7,0.8H300l0,0h-0.1
			c-4.4,2-8.5,4.6-12.3,7.6c-0.2,0.2-0.6,0.4-1,0.6C286.4,143,286.2,143,285.9,143z M294.9,131c-1-0.7-2-1.4-2.3-1.6
			c-2.5-1.3-5.1-2.4-7.8-3.2l-0.7-0.2c-2.5-0.8-4.1-1.3-6,0.1c-1.5,1-2.9,2.6-4.3,4.3c-0.7,0.8-1.4,1.6-2.1,2.3l14.3,8.2l0.2,0.1
			l0,0c0.1,0,0.3-0.1,0.4-0.2c3.6-2.9,7.6-5.4,11.8-7.4C297.6,132.9,296.6,132.2,294.9,131z"/>
		<g>
			<path style="fill:#850404;" d="M277.6,137.3c0,0,3.8-7.3,12.1-10.3"/>
			<path d="M278.5,137.8c0-0.1,3.8-7,11.5-9.9l-0.7-1.9c-8.5,3.2-12.4,10.5-12.6,10.8L278.5,137.8z"/>
		</g>
	</g>
</g>
<g>
	<g>
		<path style="fill:#67D21B;" d="M63,336.4c-0.4,1.4-0.4,2.8,0.5,4c2.8,4.2,13.8,2.4,17.7,1.5c55.6-12.2,109.9-34.3,154-70.3
			c3-2.4,6-5.1,7.4-8.6c1.3-3.4,0.9-7.3,0.2-10.9c-1.7-9.3-4.9-18.5-11.3-25.4c-25.2-27.1-59.4,23.4-78.2,39
			c-15.6,12.8-31.6,25.1-47.8,37.1c-8.1,6-16.3,11.9-24.5,17.8c-4.1,2.9-8.2,5.9-12.3,8.8C66.8,330.9,63.9,333.6,63,336.4z"/>
		<path d="M71.8,344.3c-3.8,0-7.6-0.7-9.3-3.2c-1-1.5-1.2-3.2-0.6-5.1v0c0.9-3,3.8-5.9,6.2-7.6c4.1-2.9,8.2-5.9,12.3-8.8
			c9.4-6.8,17.2-12.4,24.5-17.8c18.6-13.7,33.8-25.5,47.8-37.1c4.1-3.3,9-8.5,14.2-13.9c14.2-14.8,31.8-33.2,48.4-33.2
			c0.1,0,0.1,0,0.2,0c6.3,0,12.1,2.8,17.2,8.2c5.8,6.2,9.6,14.7,11.6,26c0.7,3.8,1.1,7.8-0.3,11.5c-1.5,3.8-4.5,6.5-7.7,9.2
			c-40.8,33.2-92.8,57-154.5,70.5C79.7,343.6,75.7,344.3,71.8,344.3z M64.2,336.8c-0.4,1.1-0.3,2.1,0.3,3c1.9,2.8,9.6,2.5,16.4,1
			c61.4-13.5,113.1-37,153.5-70c3-2.4,5.8-4.9,7-8.1c1.2-3.2,0.8-6.8,0.2-10.2c-1.9-10.8-5.5-18.9-11-24.8c-4.6-5-9.6-7.4-15.4-7.5
			c-0.1,0-0.1,0-0.2,0c-15.5,0-32.8,18-46.6,32.5c-5.2,5.5-10.2,10.7-14.4,14.1c-14.1,11.6-29.3,23.4-47.9,37.1
			c-7.3,5.4-15.1,11-24.5,17.8c-4.1,2.9-8.2,5.9-12.3,8.8C67.5,331.9,65,334.4,64.2,336.8z"/>
	</g>
	<path style="fill:#37AC00;" d="M157.6,292.9c-0.5,0-0.9-0.2-1.1-0.7c-3.7-7.3-4.3-15.9-1.7-23.6c0.2-0.6,0.9-1,1.6-0.8
		c0.6,0.2,1,0.9,0.8,1.6c-2.4,7.1-1.8,15,1.6,21.7c0.3,0.6,0.1,1.4-0.5,1.7C158,292.9,157.8,292.9,157.6,292.9z"/>
	<path style="fill:#37AC00;" d="M175.1,288c-0.4,0-0.7-0.1-0.9-0.4c-6.5-7.8-8.5-19-4.9-28.6c0.2-0.6,1-1,1.6-0.7
		c0.6,0.2,1,0.9,0.7,1.6c-3.2,8.7-1.5,19,4.5,26.1c0.4,0.5,0.4,1.3-0.2,1.7C175.7,287.9,175.4,288,175.1,288z"/>
</g>
<path d="M179.9,265.4c3.2,7.4,8.6,13.8,14.4,19.5c4.9,4.7,10.2,9,16,12.5c7.7,4.6,16.6,5.6,25.4,5.4c7.7-0.2,18.3-0.3,25.2-3.9
	c5.7-3,10.8-7,15.5-11.3c5.6-5.1,10.9-10.8,14.3-17.6c7.4-15.1,4.3-33.1-0.8-49.1c-3.5-10.9-8.1-21.9-16.6-29.5
	c-6.7-6-15.4-9.4-24.1-11.5c-20.4-5-51.9-3.3-64.1,17.4c-4.6,7.8-5.4,19.2-7,27.9C175.6,238.3,174.4,252.6,179.9,265.4z"/>
<g>
	<path style="fill:#3D3D3D;" d="M199.7,247.2c14.9,6,31.2,6,46.8,4.8c12.2-0.9,26.3-2.2,33.9-14.1c3.6-5.6,5.2-12.8,3.3-19.2
		c-1.9-6.6-7.2-11.4-12.9-14.8c-12.4-7.3-27-8.8-41.1-8.4c-6.9,0.2-13.8,0.7-20.4,2.9c-9.1,3-22.7,11.7-25.8,22.2
		c-3.1,10.3,2.9,20.3,11.5,24.6C196.6,245.8,198.2,246.5,199.7,247.2z"/>
	<path d="M232.1,253.8c-10.8,0-22.2-1.2-32.9-5.5l0,0c-1.6-0.7-3.3-1.4-4.8-2.2c-8.6-4.3-15.5-14.6-12.1-26
		c3.5-11.5,18.2-20.2,26.6-23c7.1-2.3,14.5-2.8,20.8-3c11.3-0.3,27.8,0.3,41.8,8.6c4.9,2.9,11.2,7.9,13.4,15.5
		c1.9,6.4,0.6,14-3.4,20.3c-8.2,12.7-23.6,13.9-34.9,14.7C242,253.6,237.1,253.8,232.1,253.8z M200.2,246
		c15.1,6.1,31.9,5.8,46.2,4.7c11.4-0.8,25.5-1.9,33-13.6c3.7-5.7,4.8-12.5,3.1-18.2c-2-6.8-7.8-11.4-12.3-14.1
		c-13.4-7.9-29.5-8.5-40.5-8.3c-6.1,0.1-13.3,0.6-20,2.8c-8.6,2.8-22,11.4-25.1,21.4c-3.1,10.1,3.1,19.2,10.8,23.1
		C197.1,244.7,198.6,245.4,200.2,246L200.2,246z"/>
</g>
<g>
	<g>
		<path style="fill:#152A5A;" d="M277.6,229.7c6.3-7.7,9.8-18.1,12.3-28.3c4.5-18,5.4-39.9-1.6-57.4c-4.8-11.9-16.9-18.7-29.4-18.7
			c-6.6,0-13.2-2.7-20-3.1c-7.9-0.5-15.8,0.1-23.6,1.8c-4.5,1-8.5,3.7-12.9,4.5c-4.2,0.8-7.2,0.1-11.3,2.6
			c-6.2,3.7-12.2,8-16.5,13.8c-6,7.9-3.7,23.4-2.1,32.6c1.9,10.8-0.2,21.5,5.3,31.6c4.6,8.5,10,16.6,16.1,24.2
			c6.2,7.7,15.7,7.8,25.3,8.3c8.8,0.4,17.7,0.6,26.6,0.5c4.7-0.1,9.4-0.2,14-1.2C267.5,239,273.2,235,277.6,229.7z"/>
		<path d="M240,243.2c-7,0-14-0.2-20.9-0.5l-1.4-0.1c-9.1-0.4-18.5-0.9-24.8-8.7c-6-7.4-11.4-15.6-16.2-24.3
			c-3.8-6.9-4.1-14.1-4.5-21.1c-0.2-3.6-0.4-7.2-1-10.8c-2-11.5-3.6-25.7,2.4-33.5c5-6.6,12-11.2,16.9-14.1c3.1-1.8,5.6-2,8.2-2.3
			c1.1-0.1,2.3-0.2,3.5-0.4c2.1-0.4,4.2-1.3,6.3-2.2c2.1-0.9,4.3-1.8,6.6-2.3c7.9-1.7,16-2.3,23.9-1.8c3.2,0.2,6.4,0.9,9.5,1.6
			c3.6,0.8,6.9,1.5,10.4,1.5c13.8,0.1,25.8,7.7,30.5,19.5c6.3,15.7,6.9,36.9,1.7,58.2c-2.2,9-5.7,20.4-12.6,28.7
			c-4.9,5.9-11.1,9.8-18.5,11.4c-4.7,1.1-9.6,1.2-14.3,1.3C243.8,243.2,241.9,243.2,240,243.2z M233.7,123.3c-6,0-12.1,0.6-18.1,1.9
			c-2.1,0.4-4,1.3-6.1,2.2c-2.2,0.9-4.4,1.9-6.8,2.4c-1.4,0.3-2.6,0.4-3.8,0.5c-2.5,0.2-4.6,0.4-7.2,1.9
			c-7.4,4.4-12.6,8.7-16.2,13.5c-6,8-3,25.2-1.9,31.6c0.7,3.8,0.8,7.5,1,11.1c0.3,7,0.7,13.6,4.2,20c4.7,8.6,10,16.6,15.9,24
			c5.6,6.9,14,7.3,23,7.7l1.4,0.1c8.8,0.4,17.7,0.6,26.5,0.5c4.7-0.1,9.3-0.2,13.8-1.2c6.9-1.6,12.5-5,17.1-10.6l0,0
			c6.6-8,9.9-19,12.1-27.8c5.1-20.7,4.6-41.4-1.6-56.6c-4.3-10.8-15.4-17.9-28.2-18c-3.7,0-7.3-0.8-10.9-1.6c-3-0.6-6.1-1.3-9.2-1.5
			C237.2,123.4,235.5,123.3,233.7,123.3z"/>
	</g>
	<path d="M239.8,240.9l-2.5-0.3c2-18.6,0.7-37.7-0.6-56.1c-0.8-10.7-1.5-21.9-1.6-32.8l2.5,0c0.1,10.9,0.9,21.9,1.6,32.7
		C240.5,202.9,241.9,222.1,239.8,240.9z"/>
</g>
<g>
	<g>
		<path style="fill:#878787;" d="M242.5,240.5l-12.6,0.4c-1.5,0.1-2.7,1.3-2.7,2.9l0.3,7.7c0.1,1.5,1.3,2.7,2.9,2.7l12.6-0.4
			c1.5-0.1,2.7-1.3,2.7-2.9l-0.3-7.7C245.3,241.6,244,240.4,242.5,240.5z M241.5,248.9c0,0.7-0.6,1.3-1.5,1.4l-7.1,0.2
			c-0.8,0-1.5-0.5-1.6-1.3l-0.1-3.5c0-0.7,0.6-1.3,1.5-1.4l7.1-0.2c0.8,0,1.5,0.5,1.6,1.3L241.5,248.9z"/>
		<path d="M230.2,255.4c-2.2,0-3.9-1.7-4-3.9l-0.3-7.7c-0.1-2.2,1.7-4.1,3.9-4.2l12.6-0.4l0,0c2.2-0.1,4.1,1.7,4.2,3.9l0.3,7.7
			c0.1,2.2-1.7,4.1-3.9,4.2l-12.6,0.4C230.3,255.4,230.3,255.4,230.2,255.4z M242.5,241.7l-12.6,0.4c-0.9,0-1.5,0.7-1.5,1.6l0.3,7.7
			c0,0.8,0.7,1.5,1.6,1.5c0,0,0,0,0.1,0l12.6-0.4c0.9,0,1.5-0.7,1.5-1.6l-0.3-7.7C244.1,242.4,243.4,241.7,242.5,241.7z
			 M232.9,251.7c-1.5,0-2.7-1.1-2.7-2.5l-0.1-3.5c0-1.4,1.1-2.6,2.7-2.7l7.1-0.2c1.5-0.1,2.8,1.1,2.8,2.5l0.1,3.5v0
			c0,1.4-1.1,2.6-2.7,2.6l-7.1,0.2C232.9,251.7,232.9,251.7,232.9,251.7z M239.9,245.4C239.9,245.4,239.9,245.4,239.9,245.4
			l-7.1,0.2c-0.2,0-0.3,0.1-0.3,0.1l0.1,3.4c0,0,0.1,0.1,0.3,0.1l7.1-0.2c0.2,0,0.2-0.1,0.3-0.1l-0.1-3.5
			C240.2,245.5,240.1,245.4,239.9,245.4z"/>
	</g>
	<g>
		<path style="fill:#878787;" d="M247.7,248.4l-7.8,0.3c-0.4,0-0.7-0.3-0.8-0.7l-0.1-1.5c0-0.4,0.3-0.7,0.7-0.8l7.8-0.3
			c0.4,0,0.7,0.3,0.8,0.7l0.1,1.5C248.4,248.1,248.1,248.4,247.7,248.4z"/>
		<path d="M240.6,249.9c-1.5,0-2.7-1.2-2.7-2.6c0-0.7,0.2-1.4,0.7-2c0.5-0.5,1.2-0.8,1.9-0.9l6.3-0.2c1.5-0.1,2.8,1.1,2.8,2.6
			c0.1,1.5-1.1,2.8-2.6,2.8L240.6,249.9C240.6,249.9,240.6,249.9,240.6,249.9z M246.8,246.7C246.8,246.7,246.8,246.7,246.8,246.7
			l-6.3,0.2c-0.1,0-0.3,0.1-0.3,0.3c0,0.1,0.1,0.3,0.3,0.3c0,0,0,0,0,0l6.3-0.2l0,0c0.1,0,0.3-0.1,0.3-0.3
			C247.1,246.8,247,246.7,246.8,246.7z"/>
	</g>
</g>
<g>
	<path d="M169.7,291.6c-1.6,9.5-2.6,19.5-0.2,28.8c3.2,12,11.6,21.5,16.8,32.6c2.2,4.7,2.5,13.4,8.3,14.1c4,0.5,11.7,0.5,15.4-0.6
		c1.6-0.5,3-1.3,4.4-2.1c0.6-0.3,1.2-0.7,1.6-1.3c0.6-0.9,0.6-2,0.5-3c-1.6-13.1-12.9-23.9-13.1-37.5c-0.1-7.2,5-13.3,8.3-19.7
		c5.4-10.6,5.6-23.7,0.5-34.5c-3.8-8.2-17.5-24.8-28.2-19.4C173.9,253.8,171.4,281.7,169.7,291.6z"/>
	<g>
		<path style="fill:#3D3D3D;" d="M170.4,352.7c5.4-3.9,11.8-6,18.4-7c5.8-0.9,11.9-0.9,17.2,1.5c6.8,3.1,13.5,7.9,17.7,14.1
			c3,4.5,5.9,12.1,3.8,17.6c-1.9,4.8-7.8,5.8-12.5,5.8c-15.7,0-31.5,0-47.2,0.1c-1.9,0-4,0-5.7-1
			C151.4,377.2,164.2,357.2,170.4,352.7z"/>
		<path d="M167.4,386c-1.9,0-4.1-0.1-6-1.2c-2.9-1.8-4.6-4.7-4.7-8.4c-0.3-9.2,8.2-21.2,13-24.7l0,0c5-3.6,11.3-6,18.9-7.2
			c7.3-1.1,13.1-0.6,17.9,1.6c7.8,3.5,14.2,8.7,18.2,14.6c2.6,3.9,6.4,12.3,3.9,18.7c-1.7,4.4-6.3,6.6-13.6,6.6l-47.2,0.1
			C167.7,386,167.5,386,167.4,386z M171.2,353.7L171.2,353.7c-4.4,3.2-12.2,14.6-11.9,22.6c0.1,2.9,1.3,5,3.5,6.4
			c1.3,0.8,3,0.9,5,0.9l47.2-0.1c6.2,0,10-1.7,11.3-5c1.9-4.8-0.6-11.9-3.6-16.4c-3.7-5.5-9.8-10.4-17.1-13.7
			c-4.4-2-9.8-2.4-16.5-1.4C181.8,348.1,175.8,350.4,171.2,353.7z"/>
	</g>
</g>
<g>
	<path d="M299.7,291.6c1.6,9.5,2.6,19.5,0.2,28.8c-3.2,12-11.6,21.5-16.8,32.6c-2.2,4.7-2.5,13.4-8.3,14.1c-4,0.5-11.7,0.5-15.4-0.6
		c-1.6-0.5-3-1.3-4.4-2.1c-0.6-0.3-1.2-0.7-1.6-1.3c-0.6-0.9-0.6-2-0.5-3c1.6-13.1,12.9-23.9,13.1-37.5c0.1-7.2-5-13.3-8.3-19.7
		c-5.4-10.6-5.6-23.7-0.5-34.5c3.8-8.2,17.5-24.8,28.2-19.4C295.5,253.8,298,281.7,299.7,291.6z"/>
	<g>
		<path style="fill:#3D3D3D;" d="M298.9,352.7c-5.4-3.9-11.8-6-18.4-7c-5.8-0.9-11.9-0.9-17.2,1.5c-6.8,3.1-13.5,7.9-17.7,14.1
			c-3,4.5-5.9,12.1-3.8,17.6c1.9,4.8,7.8,5.8,12.5,5.8c15.7,0,31.5,0,47.2,0.1c1.9,0,4,0,5.7-1C318,377.2,305.2,357.2,298.9,352.7z"
			/>
		<path d="M301.9,386c-0.1,0-0.2,0-0.3,0l-47.2-0.1c-7.3,0-11.9-2.2-13.6-6.6c-2.5-6.4,1.3-14.8,3.9-18.7
			c3.9-5.9,10.4-11.1,18.2-14.6c4.8-2.2,10.7-2.7,17.9-1.6c7.5,1.2,13.9,3.6,18.9,7.2l0,0c4.8,3.4,13.3,15.4,13,24.7
			c-0.1,3.7-1.8,6.6-4.7,8.4C306,386,303.8,386,301.9,386z M273.8,346.5c-3.8,0-7.1,0.6-9.9,1.9c-7.4,3.3-13.4,8.2-17.1,13.7
			c-3.1,4.6-5.5,11.7-3.6,16.4c1.3,3.3,5.1,5,11.3,5l47.2,0.1c2,0,3.7-0.1,5-0.9c2.3-1.4,3.4-3.5,3.5-6.4c0.3-8-7.6-19.4-11.9-22.6
			c-4.7-3.4-10.7-5.6-17.8-6.7C278,346.6,275.8,346.5,273.8,346.5z"/>
	</g>
</g>
<g>
	<g>
		<path style="fill:#152A5A;" d="M201.3,146.5c5.7,4.3,14.3,9.9,20.4,12.3c1.3,0.5,2.6,1,4,0.7c1.7-0.3,11.2-13.1,11.7-12.7
			c3.8,3.5,5.2,7.4,8.9,10.9c0.3,0.3,0.7,0.6,1.1,0.7c0.5,0.1,1,0,1.5-0.2c10.3-3.8,20.5-10.4,24.9-20.9c2.6-6.3,0.3-16-3.6-21.2
			c-5.3-7.2-14.7-10.1-23.5-11.3c-9.6-1.3-19.5-1.4-29.2-0.2c-10.8,1.3-15.8,4.5-22.6,13.2C185.5,130,190.4,138.4,201.3,146.5z"/>
		<path d="M225,160.9c-1.3,0-2.6-0.5-3.7-0.9c-6.4-2.6-15.2-8.3-20.7-12.5c-7.3-5.5-11.1-10.5-11.8-15.8c-0.6-4.6,1-9.4,5.1-14.5
			c7.2-9.2,12.7-12.4,23.5-13.7c10-1.2,19.9-1.1,29.5,0.2c11.7,1.6,19.6,5.5,24.4,11.8c4,5.4,6.6,15.5,3.7,22.4
			c-5,11.8-16.7,18.2-25.6,21.6c-0.6,0.2-1.4,0.5-2.2,0.3c-0.7-0.2-1.2-0.6-1.6-1c-1.9-1.8-3.2-3.7-4.5-5.5
			c-1.1-1.6-2.2-3.2-3.6-4.6c-0.8,0.9-2.1,2.5-3.3,3.9c-5.1,6.2-6.9,8.2-8.1,8.4C225.6,160.9,225.3,160.9,225,160.9z M231.3,105.1
			c-4.5,0-9.1,0.3-13.7,0.8c-10.1,1.2-15,4.1-21.8,12.8c-3.6,4.6-5.1,8.8-4.6,12.7c0.6,4.6,4.1,9.1,10.8,14.1l0,0
			c5.4,4.1,14,9.7,20.2,12.2c1.1,0.4,2.3,0.9,3.3,0.7c0.8-0.4,4.5-4.9,6.7-7.5c3.9-4.7,4.3-5.1,5.1-5.2l0.5,0l0.4,0.4
			c2.1,1.9,3.4,3.9,4.8,5.8c1.2,1.8,2.4,3.5,4.2,5.2c0.1,0.1,0.4,0.4,0.5,0.4c0.2,0,0.6-0.1,0.8-0.2c8.5-3.1,19.6-9.2,24.2-20.2
			c2.5-5.8,0.2-15-3.5-19.9c-4.3-5.8-11.7-9.3-22.7-10.9C241.5,105.5,236.4,105.1,231.3,105.1z"/>
	</g>
	<g>
		<path style="fill:#C3B486;" d="M250.1,142.7c-0.1,0-0.2-0.1-0.3,0c-0.1,0.1-0.1,0.2-0.1,0.3c-0.1,0.8-0.1,1.7-0.1,2.5
			c-0.7,0.3-1.3,0.7-1.9,1.2c-0.1,0.1-0.3,0.3-0.2,0.4c0,0.2,0.2,0.3,0.4,0.4c0.7,0.2,1.6,0.3,1.9,1c0.2,0.4,0.1,0.9,0,1.3
			s0,1,0.3,1.3c0.4,0.3,0.9,0.1,1.3-0.2s0.5-0.8,0.7-1.2c0.1-0.1,0.1-0.2,0.3-0.3c0.1-0.1,0.3,0,0.4,0c0.4,0.1,0.8,0.1,1.1,0.2
			c0.6,0.1,1.4,0.1,1.6-0.5c0.2-0.4,0-0.9-0.3-1.2s-0.7-0.6-1-0.9c0.2-0.8,1.2-1.3,1.2-2.1c0-0.6-0.6-1-1.2-1.1
			c-0.7-0.1-1.3,0.4-2,0.2C251.7,143.7,250.8,143,250.1,142.7z"/>
		<path d="M249.9,142.6c0.1,0,0.1,0,0.2,0.1c0.7,0.3,1.6,1,2.3,1.2c0.1,0,0.2,0,0.2,0c0.5,0,1-0.3,1.5-0.3c0.1,0,0.1,0,0.2,0
			c0.6,0.1,1.2,0.5,1.2,1.1c0,0.8-1,1.3-1.2,2.1c0.3,0.4,0.7,0.6,1,0.9c0.3,0.3,0.5,0.8,0.3,1.2c-0.2,0.4-0.7,0.5-1.1,0.5
			c-0.2,0-0.4,0-0.5,0c-0.4-0.1-0.8-0.1-1.1-0.2c-0.1,0-0.1,0-0.2,0c-0.1,0-0.1,0-0.2,0c-0.1,0.1-0.2,0.2-0.3,0.3
			c-0.2,0.4-0.4,0.9-0.7,1.2c-0.2,0.2-0.5,0.4-0.8,0.4c-0.2,0-0.3,0-0.4-0.1c-0.4-0.3-0.4-0.8-0.3-1.3c0.1-0.5,0.2-0.9,0-1.3
			c-0.3-0.7-1.2-0.7-1.9-1c-0.2-0.1-0.4-0.2-0.4-0.4c0-0.2,0.1-0.3,0.2-0.4c0.6-0.5,1.2-0.9,1.9-1.2c0-0.8,0-1.7,0.1-2.5
			c0-0.1,0-0.2,0.1-0.3C249.8,142.7,249.9,142.6,249.9,142.6 M249.9,140.2c-0.5,0-1,0.1-1.4,0.4c-0.4,0.3-1.2,0.9-1.3,2.1
			c0,0.4-0.1,0.9-0.1,1.3c-0.4,0.3-0.7,0.5-1.1,0.9c-1,0.9-1.1,2-1,2.5c0.1,1.1,0.9,2,2,2.4c0.1,0,0.2,0.1,0.3,0.1
			c-0.1,1.3,0.4,2.5,1.4,3.2c0.5,0.4,1.2,0.6,1.9,0.6c0.9,0,1.9-0.4,2.6-1.1c0.2-0.2,0.4-0.4,0.5-0.7c0.3,0,0.5,0.1,0.8,0.1
			c2.2,0,3.1-1.3,3.3-1.9c0.5-1.1,0.4-2.4-0.3-3.5c0.3-0.5,0.5-1.1,0.5-1.9c0-1.8-1.5-3.3-3.3-3.5c-0.2,0-0.3,0-0.5,0
			c-0.6,0-1.1,0.1-1.4,0.2c0,0,0,0,0,0c-0.1-0.1-0.3-0.2-0.5-0.3c-0.4-0.2-0.7-0.5-1.2-0.7C250.7,140.3,250.3,140.2,249.9,140.2
			L249.9,140.2z"/>
	</g>
	<g>
		<path style="fill:#C3B486;" d="M221.8,144.3c-0.1,0-0.2-0.1-0.3,0c-0.1,0.1-0.1,0.2-0.1,0.3c-0.1,0.8-0.1,1.7-0.1,2.5
			c-0.7,0.3-1.3,0.7-1.9,1.2c-0.1,0.1-0.3,0.3-0.2,0.4c0,0.2,0.2,0.3,0.4,0.4c0.7,0.2,1.6,0.3,1.9,1c0.2,0.4,0.1,0.9,0,1.3
			s0,1,0.3,1.3c0.4,0.3,0.9,0.1,1.3-0.2s0.5-0.8,0.7-1.2c0.1-0.1,0.1-0.2,0.3-0.3c0.1-0.1,0.3,0,0.4,0c0.4,0.1,0.8,0.1,1.1,0.2
			c0.6,0.1,1.4,0.1,1.6-0.5c0.2-0.4,0-0.9-0.3-1.2s-0.7-0.6-1-0.9c0.2-0.8,1.2-1.3,1.2-2.1c0-0.6-0.6-1-1.2-1.1
			c-0.7-0.1-1.3,0.4-2,0.2C223.4,145.3,222.5,144.6,221.8,144.3z"/>
		<path d="M221.6,144.2c0.1,0,0.1,0,0.2,0.1c0.7,0.3,1.6,1,2.3,1.2c0.1,0,0.2,0,0.2,0c0.5,0,1-0.3,1.5-0.3c0.1,0,0.1,0,0.2,0
			c0.6,0.1,1.2,0.5,1.2,1.1c0,0.8-1,1.3-1.2,2.1c0.3,0.4,0.7,0.6,1,0.9c0.3,0.3,0.5,0.8,0.3,1.2c-0.2,0.4-0.6,0.5-1.1,0.5
			c-0.2,0-0.4,0-0.5,0c-0.4-0.1-0.8-0.1-1.1-0.2c-0.1,0-0.1,0-0.2,0c-0.1,0-0.1,0-0.2,0c-0.1,0.1-0.2,0.2-0.3,0.3
			c-0.2,0.4-0.4,0.9-0.7,1.2c-0.2,0.2-0.5,0.4-0.8,0.4c-0.2,0-0.3,0-0.4-0.1c-0.4-0.3-0.4-0.8-0.3-1.3c0.1-0.5,0.2-0.9,0-1.3
			c-0.3-0.7-1.2-0.7-1.9-1c-0.2-0.1-0.4-0.2-0.4-0.4c0-0.2,0.1-0.3,0.2-0.4c0.6-0.5,1.2-0.9,1.9-1.2c0-0.8,0-1.7,0.1-2.5
			c0-0.1,0-0.2,0.1-0.3C221.6,144.2,221.6,144.2,221.6,144.2 M221.6,141.7c-0.5,0-1,0.1-1.4,0.4c-0.4,0.3-1.2,0.9-1.3,2.1
			c0,0.4-0.1,0.9-0.1,1.3c-0.4,0.3-0.7,0.5-1.1,0.9c-1,0.9-1.1,2-1,2.5c0.1,1.1,0.9,2,2,2.4c0.1,0,0.2,0.1,0.3,0.1
			c-0.1,1.3,0.4,2.5,1.4,3.2c0.5,0.4,1.2,0.6,1.9,0.6c0.9,0,1.9-0.4,2.6-1.1c0.2-0.2,0.4-0.4,0.5-0.7c0.3,0,0.5,0.1,0.8,0.1
			c2.2,0,3.1-1.3,3.3-1.9c0.5-1.1,0.4-2.4-0.3-3.5c0.3-0.5,0.5-1.1,0.5-1.9c0-1.8-1.5-3.3-3.3-3.5c-0.2,0-0.3,0-0.5,0
			c-0.6,0-1.1,0.1-1.4,0.2c0,0,0,0,0,0c-0.1-0.1-0.3-0.2-0.5-0.3c-0.4-0.2-0.7-0.5-1.2-0.7C222.4,141.8,222,141.7,221.6,141.7
			L221.6,141.7z"/>
	</g>
	<g>
		<path style="fill:#C3B486;" d="M209.1,138.6c-0.1,0-0.2-0.1-0.2,0c-0.1,0-0.1,0.1-0.1,0.2c-0.1,0.7-0.1,1.3-0.1,2
			c-0.5,0.2-1,0.6-1.5,1c-0.1,0.1-0.2,0.2-0.2,0.3c0,0.1,0.2,0.2,0.3,0.3c0.5,0.2,1.2,0.2,1.5,0.8c0.2,0.3,0.1,0.7,0,1.1
			c0,0.4,0,0.8,0.3,1c0.3,0.2,0.7,0.1,1-0.2s0.4-0.6,0.6-0.9c0.1-0.1,0.1-0.2,0.2-0.2c0.1,0,0.2,0,0.3,0c0.3,0,0.6,0.1,0.9,0.1
			c0.5,0.1,1.1,0.1,1.3-0.4c0.2-0.3,0-0.7-0.2-1s-0.5-0.5-0.8-0.7c0.2-0.6,0.9-1,0.9-1.7c0-0.5-0.5-0.8-0.9-0.9
			c-0.5-0.1-1,0.3-1.5,0.2C210.3,139.4,209.6,138.8,209.1,138.6z"/>
		<path d="M208.9,138.6c0.1,0,0.1,0,0.2,0c0.6,0.2,1.2,0.8,1.8,0.9c0.1,0,0.1,0,0.2,0c0.4,0,0.8-0.2,1.2-0.2c0,0,0.1,0,0.1,0
			c0.5,0.1,0.9,0.4,0.9,0.9c0,0.6-0.8,1-0.9,1.7c0.2,0.3,0.5,0.5,0.8,0.7c0.2,0.3,0.4,0.6,0.2,1c-0.2,0.3-0.5,0.4-0.9,0.4
			c-0.1,0-0.3,0-0.4,0c-0.3,0-0.6-0.1-0.9-0.1c-0.1,0-0.1,0-0.2,0c-0.1,0-0.1,0-0.2,0c-0.1,0-0.2,0.1-0.2,0.2
			c-0.2,0.3-0.3,0.7-0.6,0.9c-0.2,0.2-0.4,0.3-0.7,0.3c-0.1,0-0.2,0-0.4-0.1c-0.3-0.2-0.3-0.6-0.3-1c0-0.4,0.1-0.7,0-1.1
			c-0.3-0.5-0.9-0.6-1.5-0.8c-0.1,0-0.3-0.1-0.3-0.3c0-0.1,0.1-0.2,0.2-0.3c0.4-0.4,0.9-0.7,1.5-1c0-0.7,0-1.3,0.1-2
			C208.8,138.7,208.8,138.6,208.9,138.6C208.9,138.6,208.9,138.6,208.9,138.6 M208.9,136.1c-0.5,0-1,0.1-1.4,0.4
			c-0.4,0.3-1.1,0.9-1.3,2.1c0,0.3-0.1,0.5-0.1,0.8c-0.2,0.2-0.5,0.4-0.7,0.6c-1,0.9-1,1.9-1,2.4c0.1,1,0.8,1.9,1.8,2.3
			c0,1.1,0.5,2,1.3,2.5c0.5,0.4,1.1,0.6,1.8,0.6c0.9,0,1.8-0.4,2.4-1c0.1-0.1,0.2-0.2,0.3-0.3c0.1,0,0.2,0,0.4,0
			c2,0,2.8-1.2,3.1-1.8c0.5-0.9,0.4-2.1-0.1-3c0.2-0.4,0.3-0.9,0.3-1.5c0-1.6-1.4-3-3.1-3.3c-0.1,0-0.3,0-0.4,0
			c-0.4,0-0.8,0.1-1,0.1c-0.1,0-0.1-0.1-0.2-0.1c-0.3-0.2-0.6-0.4-1-0.5C209.7,136.2,209.3,136.1,208.9,136.1L208.9,136.1z"/>
	</g>
	<g>
		<path style="fill:#C3B486;" d="M198.7,130.8c-0.1,0-0.2-0.1-0.2,0c-0.1,0-0.1,0.1-0.1,0.2c-0.1,0.7-0.1,1.3-0.1,2
			c-0.5,0.2-1,0.6-1.5,1c-0.1,0.1-0.2,0.2-0.2,0.3c0,0.1,0.2,0.2,0.3,0.3c0.5,0.2,1.2,0.2,1.5,0.8c0.2,0.3,0.1,0.7,0,1.1
			s0,0.8,0.3,1c0.3,0.2,0.7,0.1,1-0.2c0.3-0.3,0.4-0.6,0.6-0.9c0.1-0.1,0.1-0.2,0.2-0.2c0.1,0,0.2,0,0.3,0c0.3,0,0.6,0.1,0.9,0.1
			c0.5,0.1,1.1,0.1,1.3-0.4c0.2-0.3,0-0.7-0.2-1s-0.5-0.5-0.8-0.7c0.2-0.6,0.9-1,0.9-1.7c0-0.5-0.5-0.8-0.9-0.9
			c-0.5-0.1-1,0.3-1.5,0.2C200,131.6,199.3,131,198.7,130.8z"/>
		<path d="M198.6,130.7c0.1,0,0.1,0,0.2,0c0.6,0.2,1.2,0.8,1.8,0.9c0.1,0,0.1,0,0.2,0c0.4,0,0.8-0.2,1.2-0.2c0,0,0.1,0,0.1,0
			c0.5,0.1,0.9,0.4,0.9,0.9c0,0.6-0.8,1-0.9,1.7c0.2,0.3,0.5,0.5,0.8,0.7c0.2,0.3,0.4,0.6,0.2,1c-0.2,0.3-0.5,0.4-0.9,0.4
			c-0.1,0-0.3,0-0.4,0c-0.3,0-0.6-0.1-0.9-0.1c-0.1,0-0.1,0-0.2,0c-0.1,0-0.1,0-0.2,0c-0.1,0-0.2,0.1-0.2,0.2
			c-0.2,0.3-0.3,0.7-0.6,0.9c-0.2,0.2-0.4,0.3-0.7,0.3c-0.1,0-0.2,0-0.4-0.1c-0.3-0.2-0.3-0.6-0.3-1c0-0.4,0.1-0.7,0-1.1
			c-0.3-0.5-0.9-0.6-1.5-0.8c-0.1,0-0.3-0.1-0.3-0.3c0-0.1,0.1-0.2,0.2-0.3c0.4-0.4,0.9-0.7,1.5-1c0-0.7,0-1.3,0.1-2
			C198.4,130.9,198.4,130.8,198.6,130.7C198.5,130.7,198.5,130.7,198.6,130.7 M198.6,128.3c-0.5,0-1,0.1-1.4,0.4
			c-0.4,0.3-1.1,0.9-1.3,2.1c0,0.3-0.1,0.5-0.1,0.8c-0.2,0.2-0.5,0.4-0.7,0.6c-1,0.9-1,1.9-1,2.4c0.1,1,0.8,1.9,1.8,2.3
			c0,1.1,0.5,2,1.3,2.5c0.5,0.4,1.1,0.6,1.8,0.6c0.9,0,1.8-0.4,2.4-1c0.1-0.1,0.2-0.2,0.3-0.3c0.1,0,0.3,0,0.4,0
			c2,0,2.8-1.2,3.1-1.8c0.5-0.9,0.4-2.1-0.1-3c0.2-0.4,0.3-0.9,0.3-1.5c0-1.6-1.4-3-3.1-3.3c-0.1,0-0.3,0-0.4,0
			c-0.4,0-0.8,0.1-1,0.1c-0.1,0-0.1-0.1-0.2-0.1c-0.3-0.2-0.6-0.4-1-0.5C199.3,128.3,199,128.3,198.6,128.3L198.6,128.3z"/>
	</g>
	<g>
		<path style="fill:#C3B486;" d="M268.5,128.3c-0.1,0-0.2-0.1-0.2,0c-0.1,0-0.1,0.1-0.1,0.2c-0.1,0.7-0.1,1.3-0.1,2
			c-0.5,0.2-1,0.6-1.5,1c-0.1,0.1-0.2,0.2-0.2,0.3c0,0.1,0.2,0.2,0.3,0.3c0.5,0.2,1.2,0.2,1.5,0.8c0.2,0.3,0.1,0.7,0,1.1
			c0,0.4,0,0.8,0.3,1c0.3,0.2,0.7,0.1,1-0.2c0.3-0.3,0.4-0.6,0.6-0.9c0.1-0.1,0.1-0.2,0.2-0.2c0.1,0,0.2,0,0.3,0
			c0.3,0,0.6,0.1,0.9,0.1c0.5,0.1,1.1,0.1,1.3-0.4c0.2-0.3,0-0.7-0.2-1c-0.2-0.3-0.5-0.5-0.8-0.7c0.2-0.6,0.9-1,0.9-1.7
			c0-0.5-0.5-0.8-0.9-0.9c-0.5-0.1-1,0.3-1.5,0.2C269.7,129.1,269,128.5,268.5,128.3z"/>
		<path d="M268.3,128.2c0.1,0,0.1,0,0.2,0c0.6,0.2,1.2,0.8,1.8,0.9c0.1,0,0.1,0,0.2,0c0.4,0,0.8-0.2,1.2-0.2c0,0,0.1,0,0.1,0
			c0.5,0.1,0.9,0.4,0.9,0.9c0,0.6-0.8,1-0.9,1.7c0.2,0.3,0.5,0.5,0.8,0.7c0.2,0.3,0.4,0.6,0.2,1c-0.2,0.3-0.5,0.4-0.9,0.4
			c-0.1,0-0.3,0-0.4,0c-0.3,0-0.6-0.1-0.9-0.1c-0.1,0-0.1,0-0.2,0c-0.1,0-0.1,0-0.2,0c-0.1,0-0.2,0.1-0.2,0.2
			c-0.2,0.3-0.3,0.7-0.6,0.9c-0.2,0.2-0.4,0.3-0.7,0.3c-0.1,0-0.2,0-0.4-0.1c-0.3-0.2-0.3-0.6-0.3-1c0-0.4,0.1-0.7,0-1.1
			c-0.3-0.5-0.9-0.6-1.5-0.8c-0.1,0-0.3-0.1-0.3-0.3c0-0.1,0.1-0.2,0.2-0.3c0.4-0.4,0.9-0.7,1.5-1c0-0.7,0-1.3,0.1-2
			C268.1,128.4,268.2,128.3,268.3,128.2C268.2,128.2,268.3,128.2,268.3,128.2 M268.3,125.8c-0.5,0-1,0.1-1.4,0.4
			c-0.4,0.3-1.1,0.9-1.3,2.1c0,0.3-0.1,0.5-0.1,0.8c-0.2,0.2-0.5,0.4-0.7,0.6c-1,0.9-1,1.9-1,2.4c0.1,1,0.8,1.9,1.8,2.3
			c0,1.1,0.5,2,1.3,2.5c0.5,0.4,1.1,0.6,1.8,0.6c0.9,0,1.8-0.4,2.4-1c0.1-0.1,0.2-0.2,0.3-0.3c0.1,0,0.2,0,0.4,0
			c2,0,2.8-1.2,3.1-1.8c0.5-0.9,0.4-2.1-0.1-3c0.2-0.4,0.3-0.9,0.3-1.5c0-1.6-1.4-3-3.1-3.3c-0.1,0-0.3,0-0.4,0
			c-0.4,0-0.8,0.1-1,0.1c-0.1,0-0.1-0.1-0.2-0.1c-0.3-0.2-0.6-0.4-1-0.5C269.1,125.8,268.7,125.8,268.3,125.8L268.3,125.8z"/>
	</g>
	<g>
		<path style="fill:#C3B486;" d="M261.2,137.1c-0.1,0-0.2-0.1-0.2,0c-0.1,0-0.1,0.1-0.1,0.2c-0.1,0.7-0.1,1.3-0.1,2
			c-0.5,0.2-1,0.6-1.5,1c-0.1,0.1-0.2,0.2-0.2,0.3c0,0.1,0.2,0.2,0.3,0.3c0.5,0.2,1.2,0.2,1.5,0.8c0.2,0.3,0.1,0.7,0,1.1
			c0,0.4,0,0.8,0.3,1c0.3,0.2,0.7,0.1,1-0.2c0.3-0.3,0.4-0.6,0.6-0.9c0.1-0.1,0.1-0.2,0.2-0.2c0.1,0,0.2,0,0.3,0
			c0.3,0,0.6,0.1,0.9,0.1c0.5,0.1,1.1,0.1,1.3-0.4c0.2-0.3,0-0.7-0.2-1c-0.2-0.3-0.5-0.5-0.8-0.7c0.2-0.6,0.9-1,0.9-1.7
			c0-0.5-0.5-0.8-0.9-0.9c-0.5-0.1-1,0.3-1.5,0.2C262.4,137.9,261.8,137.3,261.2,137.1z"/>
		<path d="M261.1,137.1c0.1,0,0.1,0,0.2,0c0.6,0.2,1.2,0.8,1.8,0.9c0.1,0,0.1,0,0.2,0c0.4,0,0.8-0.2,1.2-0.2c0,0,0.1,0,0.1,0
			c0.5,0.1,0.9,0.4,0.9,0.9c0,0.6-0.8,1-0.9,1.7c0.2,0.3,0.5,0.5,0.8,0.7c0.2,0.3,0.4,0.6,0.2,1c-0.2,0.3-0.5,0.4-0.9,0.4
			c-0.1,0-0.3,0-0.4,0c-0.3,0-0.6-0.1-0.9-0.1c-0.1,0-0.1,0-0.2,0c-0.1,0-0.1,0-0.2,0c-0.1,0-0.2,0.1-0.2,0.2
			c-0.2,0.3-0.3,0.7-0.6,0.9c-0.2,0.2-0.4,0.3-0.7,0.3c-0.1,0-0.2,0-0.4-0.1c-0.3-0.2-0.3-0.6-0.3-1c0-0.4,0.1-0.7,0-1.1
			c-0.3-0.5-0.9-0.6-1.5-0.8c-0.1,0-0.3-0.1-0.3-0.3c0-0.1,0.1-0.2,0.2-0.3c0.4-0.4,0.9-0.7,1.5-1c0-0.7,0-1.3,0.1-2
			C260.9,137.2,260.9,137.1,261.1,137.1C261,137.1,261,137.1,261.1,137.1 M261.1,134.6c-0.5,0-1,0.1-1.4,0.4
			c-0.4,0.3-1.1,0.9-1.3,2.1c0,0.3-0.1,0.5-0.1,0.8c-0.2,0.2-0.5,0.4-0.7,0.6c-1,0.9-1,1.9-1,2.4c0.1,1,0.8,1.9,1.8,2.3
			c0,1.1,0.5,2,1.3,2.5c0.5,0.4,1.1,0.6,1.8,0.6c0.9,0,1.8-0.4,2.4-1c0.1-0.1,0.2-0.2,0.3-0.3c0.1,0,0.2,0,0.4,0
			c2,0,2.8-1.2,3.1-1.8c0.5-0.9,0.4-2.1-0.1-3c0.2-0.4,0.3-0.9,0.3-1.5c0-1.6-1.4-3-3.1-3.3c-0.1,0-0.3,0-0.4,0
			c-0.4,0-0.8,0.1-1,0.1c-0.1,0-0.1-0.1-0.2-0.1c-0.3-0.2-0.6-0.4-1-0.5C261.8,134.7,261.4,134.6,261.1,134.6L261.1,134.6z"/>
	</g>
</g>
<g>
	<g>
		<path style="fill:#67D21B;" d="M203.7,114.9c0,0,0,0.1,0,0.1c0.2,1.9,0.4,3.8,1.2,5.6c3.1,6.3,11,8,17,9.9c6,1.8,12,6.8,16.6,10.9
			c-0.4-0.4,12.4-7.4,13.7-7.9c4.6-1.7,8.9-3.2,12.3-7c3.9-4.3,6.4-9.6,8.4-15c6.5-18,2.3-44.1-8.8-59.7
			c-7.3-10.3-20.1-17.6-32.6-15.4C193.8,42.8,200.9,86.8,203.7,114.9z"/>
		<path d="M238.6,142.5c-0.3,0-0.6-0.1-0.8-0.3c0,0,0,0,0,0l0,0c-4.5-4-10.4-8.9-16.1-10.6c-0.6-0.2-1.2-0.4-1.9-0.6
			c-5.7-1.7-12.9-3.8-15.9-9.9c-1-2-1.2-4.2-1.4-6l1.2-0.2l-1.2,0.1c-0.2-1.7-0.4-3.5-0.6-5.4c-3-28.8-7.1-68.3,29.4-74.5
			c12-2,25.5,4.4,33.8,15.9c11.5,16.2,15.5,43,9,60.9c-2.4,6.6-5.2,11.5-8.7,15.4c-3.5,3.9-7.9,5.5-12.5,7.2l-0.3,0.1
			c-1.1,0.4-11.5,6.1-13,7.3c0,0.1-0.1,0.2-0.2,0.2C239.2,142.4,238.9,142.5,238.6,142.5z M204.9,114.8
			C204.9,114.8,204.9,114.8,204.9,114.8c0.2,2.1,0.4,3.8,1.1,5.2c2.5,5.2,8.8,7,14.4,8.6c0.7,0.2,1.3,0.4,1.9,0.6
			c5.8,1.8,11.7,6.4,16.3,10.5c3.5-2.6,13.1-7.4,13.2-7.4l0.3-0.1c4.5-1.6,8.4-3,11.5-6.5c3.3-3.6,5.9-8.3,8.2-14.6
			c6.3-17.2,2.4-43-8.7-58.6c-7.7-10.8-20.3-16.8-31.3-14.9c-34.3,5.9-30.3,44-27.4,71.8C204.6,111.2,204.7,113,204.9,114.8
			L204.9,114.8z"/>
	</g>
	<path style="fill:#37AC00;" d="M222.4,115.3c-0.1,0-0.3,0-0.4-0.1c-3-1.1-6-2-9.1-2.8c-0.7-0.2-1.1-0.8-0.9-1.5
		c0.2-0.7,0.8-1.1,1.5-0.9c3.1,0.8,6.3,1.8,9.3,2.9c0.6,0.2,1,0.9,0.7,1.6C223.4,115,222.9,115.3,222.4,115.3z"/>
	<path style="fill:#37AC00;" d="M231.7,128.5c-7.9,0-15.6-2.7-21.8-7.6c-0.5-0.4-0.6-1.2-0.2-1.7c0.4-0.5,1.2-0.6,1.7-0.2
		c6.7,5.4,15.5,7.9,24,6.9c0.7-0.1,1.3,0.4,1.4,1.1c0.1,0.7-0.4,1.3-1.1,1.4C234.4,128.4,233,128.5,231.7,128.5z"/>
	<path style="fill:#37AC00;" d="M232.6,109.9c-5.5,0-11.1-0.9-16.3-2.7c-0.6-0.2-1.3-0.5-1.9-0.7c-1.8-0.7-3.6-1.3-5.4-1.7
		c-0.7-0.1-1.1-0.8-1-1.4c0.1-0.7,0.8-1.1,1.4-1c2,0.4,4,1.1,5.8,1.8c0.6,0.2,1.3,0.5,1.9,0.7c6.1,2.1,12.8,3,19.3,2.4
		c0.7,0,1.3,0.5,1.3,1.1c0.1,0.7-0.4,1.3-1.1,1.3C235.3,109.9,233.9,109.9,232.6,109.9z"/>
</g>
<g>
	<g>
		<path style="fill:#FFCA00;" d="M278.4,155c-12.5,2.3-17-2.1-17-2.1s-2.6,5.7-15.1,8.1c0,0,5.3,30.1,21.6,27.1S278.4,155,278.4,155
			z"/>
		<path d="M265.7,189.5c-2.6,0-5.1-0.8-7.4-2.4c-9.6-6.7-13-25.1-13.1-25.9c-0.1-0.7,0.3-1.3,1-1.4c11.5-2.1,14.2-7.3,14.2-7.4
			c0.2-0.4,0.5-0.6,0.9-0.7c0.4-0.1,0.8,0.1,1.1,0.3c0,0,4.4,3.9,15.9,1.8c0.7-0.1,1.3,0.3,1.4,1c0.2,0.8,3.6,19.2-3,28.9
			c-2.1,3-4.9,4.9-8.5,5.6C267.4,189.4,266.5,189.5,265.7,189.5z M247.8,161.9c0.9,4.1,4.4,17.9,11.9,23.1c2.5,1.7,5.1,2.3,8,1.8
			c2.9-0.5,5.2-2,6.9-4.5c5.1-7.5,3.4-21.7,2.8-25.9c-8.8,1.4-13.6-0.6-15.6-1.8C260.3,156.5,256.5,160.1,247.8,161.9z"/>
	</g>
	<g>
		<path style="fill:#BF7100;" d="M271.6,173.7c0.6,3-2,4.2-5.4,4.8s-6.2,0.4-6.7-2.6c-0.6-3,1.7-5.9,5-6.6
			C267.9,168.8,271,170.7,271.6,173.7z"/>
		<g>
			
				<ellipse transform="matrix(0.9832 -0.1823 0.1823 0.9832 -26.7332 49.6926)" style="fill:#BF7100;" cx="257" cy="170.3" rx="2" ry="2.3"/>
			
				<ellipse transform="matrix(0.9832 -0.1823 0.1823 0.9832 -25.9807 52.3603)" style="fill:#BF7100;" cx="271.9" cy="167.5" rx="2" ry="2.3"/>
		</g>
		<g>
			
				<ellipse transform="matrix(0.9832 -0.1823 0.1823 0.9832 -25.9229 50.3573)" style="fill:#BF7100;" cx="261" cy="166.2" rx="2" ry="2.3"/>
			
				<ellipse transform="matrix(0.9832 -0.1823 0.1823 0.9832 -25.6372 51.3702)" style="fill:#BF7100;" cx="266.7" cy="165.2" rx="2" ry="2.3"/>
		</g>
	</g>
</g>
<g>
	<g>
		<g>
			<path style="fill:#67D21B;" d="M249.5,187.3c-4,5.4-9.5,11-12.4,16.7c-4.4,8.8-10,16.9-16.6,24.2c-2.3,2.6-4.8,5.1-7.8,6.8
				s-6.6,2.7-10,2.1c-2.9-0.6-5.4-2.2-7.7-4c-8.3-6.1-13.4-14.1-18.6-22.8c-2.7-4.4-5.9-9.1-5.2-14.2c0.3-1.9,0.7-5.7,2.3-6.7
				c3.3-2.1,6.8-4.2,10.6-5.3c3.8-1.1,8.1-1.1,11.6,0.7c4.3,2.2,6.8,6.8,8.3,11.3c1,3.3,1.3,11.2,4,13.3c6-4,11.3-9.9,16.6-14.7
				c0.7-0.6,1.4-1.3,1.8-2.1c0.4-0.8,0.6-1.8,0.7-2.7c0.9-4.9,3.8-9.5,7.8-12.5c0.6-0.5,1.3-0.9,2.1-1c0.7-0.1,1.4,0.2,2,0.4
				c4.7,1.8,9,4.4,12.6,7.8C251.5,184.6,250.6,185.7,249.5,187.3z"/>
			<path d="M204.8,238.6c-0.8,0-1.6-0.1-2.4-0.2c-3.1-0.6-5.8-2.4-8.2-4.2c-8.4-6.2-13.5-14.2-18.9-23.2l-0.7-1.2
				c-2.5-4.1-5.3-8.7-4.6-13.8l0-0.2c0.4-3.1,1-6.1,2.9-7.4c3.3-2.1,6.9-4.3,10.9-5.4c4.6-1.3,9-1,12.5,0.8c3.9,2,7,6.2,8.9,12.1
				c0.4,1.1,0.6,2.7,0.9,4.3c0.4,2.6,1,6.1,2.1,7.7c3.7-2.6,7.1-5.9,10.5-9.2c1.7-1.6,3.4-3.3,5.1-4.8c0.6-0.5,1.2-1.1,1.6-1.7
				c0.3-0.5,0.4-1.2,0.5-1.9l0.1-0.5c1-5.2,4-10.1,8.3-13.2c0.7-0.6,1.7-1.1,2.8-1.2c1-0.1,1.8,0.2,2.6,0.5c4.8,1.8,9.3,4.6,13,8.1
				c0,0,0,0,0,0c0.5,0.5,0.5,1.2,0.1,1.7c-0.1,0.1-0.2,0.2-0.4,0.3c-0.2,0.2-0.6,0.7-1.7,2.2l0,0c-1.4,1.9-2.9,3.8-4.5,5.6
				c-2.9,3.6-6,7.3-7.9,10.9c-4.5,8.9-10.1,17.1-16.8,24.5c-2.3,2.6-4.9,5.2-8.1,7.1C210.5,237.8,207.6,238.6,204.8,238.6z
				 M189.2,184.6c-1.6,0-3.2,0.2-4.8,0.7c-3.7,1.1-7.1,3.1-10.3,5.1c-1.1,0.7-1.6,4.1-1.8,5.6l0,0.2c-0.6,4.2,1.9,8.3,4.3,12.2
				l0.8,1.3c5.3,8.8,10.3,16.5,18.3,22.5c2.2,1.6,4.6,3.2,7.2,3.7c2.8,0.5,6.1-0.1,9.1-1.9c2.9-1.7,5.3-4.2,7.5-6.6
				c6.5-7.2,12.1-15.3,16.5-24c2-3.9,5.1-7.7,8.1-11.4c1.6-1.9,3-3.7,4.4-5.5l0,0c0.6-0.8,1-1.3,1.3-1.8c-3.3-2.9-7.2-5.2-11.2-6.7
				c-0.5-0.2-1-0.4-1.5-0.3c-0.5,0-1,0.4-1.5,0.8c-3.8,2.8-6.5,7.1-7.3,11.7l-0.1,0.4c-0.1,0.8-0.3,1.8-0.8,2.6
				c-0.5,1-1.4,1.8-2.1,2.4c-1.7,1.5-3.4,3.1-5.1,4.7c-3.7,3.6-7.5,7.2-11.7,10c-0.4,0.3-1,0.3-1.4,0c-2.2-1.7-3-6.1-3.6-9.9
				c-0.3-1.6-0.5-3-0.8-4c-1.1-3.6-3.4-8.4-7.6-10.6C193.3,185.1,191.3,184.6,189.2,184.6z M249.5,187.3L249.5,187.3L249.5,187.3z"
				/>
		</g>
		<g>
			<path style="fill:#DBDBDB;" d="M236.6,169.4c1.6-3.4,4.7-6,8.2-7.1c1-0.3,2.1-0.4,2.9,0.2c0.6,0.5,0.7,1.5,0.6,2.3
				s-0.5,1.5-0.8,2.3c-1.2,3.5,0.2,7.4-0.1,11.2c-0.1,0.9-0.2,1.7-0.7,2.4c-0.5,0.7-1.3,1.2-2.1,1.5c-2.7,0.9-6.8-0.4-8.4-2.7
				C234.3,176.9,235.3,172.1,236.6,169.4z"/>
			<path d="M242.7,183.8c-2.8,0-6-1.4-7.5-3.5c-2.3-3.2-1.1-8.6,0.3-11.4l0,0c1.8-3.6,5.1-6.5,9-7.7c1.7-0.5,3.1-0.4,4,0.5
				c0.9,0.8,1.2,2.1,1,3.4c-0.1,0.6-0.4,1.2-0.6,1.7c-0.1,0.2-0.2,0.5-0.3,0.7c-0.7,1.9-0.4,4-0.2,6.3c0.2,1.5,0.3,3.1,0.2,4.6
				c-0.1,0.8-0.2,2-0.9,3.1c-0.6,0.9-1.5,1.5-2.7,2C244.3,183.7,243.5,183.8,242.7,183.8z M246.3,163.4c-0.3,0-0.7,0.1-1.1,0.2
				c-3.2,1-6,3.4-7.5,6.4l0,0c-1.2,2.4-2.1,6.7-0.5,8.9c1.4,1.9,4.9,3,7,2.3c0.5-0.2,1.1-0.5,1.5-1c0.3-0.4,0.4-1,0.5-1.8
				c0.1-1.3-0.1-2.7-0.2-4.2c-0.3-2.4-0.5-4.9,0.3-7.3c0.1-0.3,0.2-0.6,0.3-0.9c0.2-0.5,0.4-0.9,0.4-1.3c0.1-0.5,0-0.9-0.2-1.1
				C246.7,163.4,246.5,163.4,246.3,163.4z M236.6,169.4L236.6,169.4L236.6,169.4z"/>
		</g>
		<g>
			<path style="fill:#DBDBDB;" d="M244.7,172.6c3-2.2,7-3,10.6-2.2c1,0.2,2.1,0.6,2.4,1.6c0.3,0.8-0.1,1.6-0.6,2.3
				c-0.5,0.6-1.2,1.1-1.8,1.6c-2.8,2.5-3.4,6.6-5.5,9.8c-0.5,0.7-1,1.4-1.8,1.8c-0.8,0.4-1.7,0.4-2.5,0.3c-2.8-0.5-5.7-3.6-6.1-6.5
				C239,178.1,242.2,174.3,244.7,172.6z"/>
			<path d="M246.3,189.1c-0.3,0-0.7,0-1.1-0.1c-3.3-0.5-6.7-4.1-7.1-7.5c-0.5-3.9,3.2-8,5.8-9.9l0,0c3.3-2.3,7.6-3.2,11.6-2.4
				c1.8,0.4,2.9,1.2,3.3,2.4c0.4,1.1,0.1,2.4-0.8,3.5c-0.4,0.5-0.9,0.9-1.3,1.2c-0.2,0.2-0.4,0.3-0.6,0.5c-1.5,1.4-2.3,3.3-3.2,5.4
				c-0.6,1.4-1.2,2.8-2,4.1c-0.4,0.7-1.2,1.7-2.3,2.2C247.9,188.9,247.2,189.1,246.3,189.1z M245.4,173.6c-2.2,1.5-5.1,4.9-4.8,7.6
				c0.3,2.3,2.8,5,5,5.4c0.5,0.1,1.2,0.1,1.8-0.2c0.4-0.2,0.9-0.7,1.3-1.4c0.7-1.1,1.3-2.4,1.8-3.8c0.9-2.2,1.9-4.5,3.8-6.3
				c0.2-0.2,0.5-0.4,0.7-0.6c0.4-0.3,0.7-0.6,1-0.9c0.3-0.4,0.5-0.8,0.4-1.1c-0.1-0.3-0.7-0.6-1.5-0.8
				C251.7,170.9,248.1,171.7,245.4,173.6L245.4,173.6z"/>
		</g>
		<g>
			<path style="fill:#DBDBDB;" d="M252.1,177.7c3.6-0.8,7.6,0,10.6,2.2c0.8,0.6,1.6,1.4,1.6,2.4c-0.1,0.8-0.7,1.5-1.4,1.8
				c-0.7,0.4-1.6,0.5-2.3,0.8c-3.6,1.2-5.8,4.7-8.9,6.8c-0.7,0.5-1.5,0.9-2.4,0.9c-0.9,0.1-1.7-0.3-2.4-0.7c-2.4-1.5-3.8-5.6-3-8.3
				C244.8,180.4,249.2,178.3,252.1,177.7z"/>
			<path d="M249.1,193.9c-1,0-2-0.3-2.9-0.9c-2.8-1.8-4.5-6.4-3.5-9.7c1.1-3.8,6.1-6.1,9.2-6.8l0,0c4-0.8,8.3,0.1,11.6,2.4
				c1.8,1.3,2.1,2.6,2.1,3.5c-0.1,1.2-0.9,2.2-2.1,2.9c-0.6,0.3-1.2,0.5-1.7,0.6c-0.3,0.1-0.5,0.1-0.8,0.2c-1.9,0.6-3.5,2.1-5.1,3.7
				c-1.1,1-2.2,2.1-3.5,3c-0.7,0.5-1.7,1.1-3,1.2C249.3,193.9,249.2,193.9,249.1,193.9z M252.4,178.9L252.4,178.9
				c-2.6,0.6-6.6,2.5-7.4,5c-0.7,2.2,0.6,5.7,2.5,6.9c0.4,0.3,1.1,0.6,1.7,0.5c0.5,0,1-0.3,1.7-0.7c1.1-0.8,2.1-1.7,3.2-2.7
				c1.7-1.7,3.6-3.4,6-4.2c0.3-0.1,0.6-0.2,0.9-0.3c0.5-0.1,0.9-0.3,1.3-0.4c0.4-0.2,0.8-0.6,0.8-0.8c0-0.3-0.4-0.8-1-1.3
				C259.3,178.9,255.7,178.2,252.4,178.9z"/>
		</g>
		<g>
			<path style="fill:#152A5A;" d="M164.1,160.8c-4.4,11.6-3.4,25,1.5,36.4c6.5-1.7,12.8-4.2,19.4-5.4c6.9-1.2,13.2-0.6,19.5,2.1
				c3-4.9-2.8-18.9-4.3-24.2c-2.4-8.7-5.6-17.3-10.1-25.1c-2.4-4.2-2.8-6.7-7.4-5c-2.9,1.1-5.7,4.1-7.8,6.1
				C170.7,149.9,166.3,155.1,164.1,160.8z"/>
			<path d="M165,198.7l-0.4-1c-5.3-12.3-5.9-25.9-1.6-37.3l0,0c1.9-5,5.6-10.1,11.2-15.6l0.8-0.8c2.1-2.1,4.7-4.6,7.5-5.6
				c4.9-1.8,6.3,0.7,7.9,3.8c0.3,0.5,0.6,1.1,0.9,1.7c4.1,7.1,7.3,15.2,10.2,25.4c0.3,1,0.7,2.4,1.3,4c2.4,7.1,5.6,16.8,2.9,21.2
				l-0.6,0.9l-1-0.4c-6.1-2.6-12.2-3.2-18.8-2c-4.1,0.7-8.1,2-12.1,3.2c-2.4,0.7-4.8,1.5-7.3,2.2L165,198.7z M165.3,161.3
				L165.3,161.3c-4,10.5-3.6,23,1.1,34.4c2.1-0.6,4.1-1.2,6.1-1.8c4-1.3,8.1-2.5,12.4-3.3c6.7-1.2,12.9-0.6,19.1,1.7
				c1.2-4-1.7-12.8-3.5-18.2c-0.5-1.6-1-3-1.3-4.1c-2.8-10-6-17.9-10-24.9c-0.4-0.6-0.7-1.2-1-1.7c-1.7-3.1-2-3.8-4.9-2.7
				c-2.3,0.8-4.7,3.2-6.6,5.1l-0.8,0.8C170.5,151.8,167,156.6,165.3,161.3z"/>
		</g>
		<g>
			<path style="fill:#182B57;" d="M176.4,152.5c-0.3,0-0.6-0.2-0.8-0.3c-4.3-2.4-8.9-4.3-13.6-5.7l0,0c-0.2,0-0.4-0.3-0.3-0.5
				c0-0.2,0.2-0.3,0.3-0.3c0.5-0.2,2.3-2.2,3.5-3.3c1.2-1.1,1.8-1.8,2.2-2c2.3-1.7,4.7-3.3,7.4-4.5l0.7-0.3c2.4-1.1,4.3-2.1,6.8-0.9
				c1.8,0.8,3.5,2.2,5.1,3.7c1,0.9,2,1.8,3,2.3c0.1,0.1,0.2,0.3,0.2,0.4c0,0.1,0,0.3-0.2,0.4l-13.3,10.8c-0.1,0.1-0.3,0.3-0.5,0.3
				C176.7,152.6,176.5,152.6,176.4,152.5z"/>
			<path style="fill:#850404;" d="M170.9,138.3c0,0,7.1,1.1,13.5,8.3l-7.6,6l-15.2-6.5L170.9,138.3z"/>
			<path d="M176.3,153.6c-0.5-0.1-0.9-0.3-1.1-0.4c-4.2-2.4-8.7-4.3-13.4-5.6l-0.1,0l0,0l0,0c-0.3-0.1-0.6-0.4-0.8-0.7
				c-0.2-0.4-0.2-0.8-0.1-1.1c0.1-0.4,0.5-0.9,0.9-1c0.5-0.4,2.5-2.3,3.2-3.1c1.3-1.3,1.9-1.8,2.2-2.1c2.3-1.7,4.9-3.3,7.6-4.6
				l0.7-0.3c2.4-1.1,4.7-2.3,7.7-1c1.9,0.9,3.6,2.4,5.3,3.8c1,0.9,2,1.7,3,2.3c0.4,0.3,0.6,0.7,0.6,1.2c0,0.4-0.2,0.9-0.5,1.2
				l-13.3,10.8c-0.2,0.1-0.5,0.4-0.9,0.5C176.9,153.5,176.6,153.6,176.3,153.6z M163.3,145.9c4.5,1.3,8.8,3.2,12.8,5.5
				c0.1,0.1,0.2,0.1,0.4,0.2l0,0c0.1,0,0.2-0.1,0.2-0.1l12.8-10.4c-0.8-0.6-1.6-1.3-2.5-1.9c-1.6-1.3-3.3-2.8-4.9-3.5
				c-2.1-1-3.7-0.2-6,0.9l-0.7,0.3c-2.6,1.2-5,2.7-7.2,4.4c-0.3,0.2-1.2,1.1-2.1,2C164.9,144.6,164,145.4,163.3,145.9z"/>
			<g>
				<path style="fill:#850404;" d="M184.4,146.6c0,0-4.9-6.6-13.5-8.3"/>
				<path d="M183.6,147.2c0-0.1-4.8-6.3-12.9-7.9l0.4-2c8.8,1.8,13.9,8.4,14.1,8.7L183.6,147.2z"/>
			</g>
		</g>
	</g>
	<g>
		<g>
			<path style="fill:#FFCA00;" d="M187.6,161.6c-10.6-1-13.2-6.3-13.2-6.3s-3.5,4.7-14.1,3.7c0,0-3,29.4,10.8,30.8
				C185,191.1,187.6,161.6,187.6,161.6z"/>
			<path d="M172,191.1c-0.3,0-0.7,0-1-0.1c-2.8-0.3-5.2-1.6-7.1-3.9c-6.8-8.4-5-27.4-4.9-28.2c0.1-0.7,0.7-1.2,1.3-1.1
				c9.7,0.9,13-3.1,13-3.2c0.3-0.3,0.7-0.5,1.1-0.5c0.4,0,0.8,0.3,1,0.7c0,0,2.5,4.7,12.2,5.6c0.7,0.1,1.2,0.7,1.1,1.3
				c-0.1,0.8-1.9,19.9-10.2,26.8C176.6,190.2,174.4,191.1,172,191.1z M161.4,160.3c-0.3,4.3-0.9,18.8,4.4,25.2
				c1.5,1.8,3.2,2.8,5.4,3c2.1,0.2,4.1-0.4,5.9-1.9c6.4-5.3,8.6-19.7,9.2-23.9c-7.1-1-10.5-3.8-12-5.5
				C172.5,158.6,168.6,160.8,161.4,160.3z"/>
		</g>
		<g>
			<path style="fill:#BF7100;" d="M177.5,177.4c-0.3,2.9-2.7,3.4-5.5,3.1c-2.8-0.3-5.1-1.2-4.8-4.1c0.3-2.9,2.8-5.1,5.7-4.8
				C175.7,171.8,177.8,174.4,177.5,177.4z"/>
			<g>
				
					<ellipse transform="matrix(9.588064e-02 -0.9954 0.9954 9.588064e-02 -19.0556 319.8811)" style="fill:#BF7100;" cx="166.6" cy="170.4" rx="2.3" ry="1.7"/>
				
					<ellipse transform="matrix(9.588064e-02 -0.9954 0.9954 9.588064e-02 -8.798 333.6191)" style="fill:#BF7100;" cx="179.3" cy="171.7" rx="2.3" ry="1.7"/>
			</g>
			<g>
				
					<ellipse transform="matrix(9.588064e-02 -0.9954 0.9954 9.588064e-02 -12.4588 321.592)" style="fill:#BF7100;" cx="170.8" cy="167.7" rx="2.3" ry="1.7"/>
				
					<ellipse transform="matrix(9.588064e-02 -0.9954 0.9954 9.588064e-02 -8.5642 326.808)" style="fill:#BF7100;" cx="175.6" cy="168.1" rx="2.3" ry="1.7"/>
			</g>
		</g>
	</g>
</g>
<g>
	<g>
		<path style="fill:#67D21B;" d="M280.2,21.2c0.2,1.9,0.2,3.8,0.1,5.7c-0.1,1.5-1,3.9-0.5,5.3c0.5,1.7,2.8,3.6,3.6,5.2
			c0.9,1.7,1.7,3.5,2.7,5.2c2.1,3.8,4.4,7.5,6.7,11.2c3.2,5.2,5.2,11,6.1,17.1c0.9,5.9,1.2,12.7-0.7,18.5c-1.2,3.6-4.7,5.8-7.7,8.2
			c-2.5,2-0.6,5.9-2.1,8.4c-1.7,2.8-6.3,4.2-9.1,5.3c-9.1,3.5-19.2,4.2-28.7,2.4c-13.1-2.5-18.4-9.1-27.9-16.7
			c-2.7-2.2-5.8-3.8-8.5-6c-3.8-3.1-4.8-6.6-6.5-10.9c-3.2-8.6-5-17.7-5.1-26.9c-0.1-11.9,5.4-23.4,12.1-33.1
			c3-4.3,6.2-8.9,10.7-11.9c6.9-4.6,15.8-3.8,22.6,0.2c0.9,0.5,1.9,1.1,2.7,1.8c1.2,1,1.2,1.8,2.9,1.9c1.6,0.1,3.2,0.2,4.8,0.4
			c0.2,0,0.4,0.1,0.6,0c0.4-0.1,0.6-0.7,0.8-1.1c0.6-1.3,2.1-2.2,3.4-2.8c1.1-0.5,2.5-0.2,3.7-0.2c2.7,0.1,5.5,0.6,7.8,2.1
			c2.3,1.5,3.8,3.9,4.8,6.4C279.8,18.3,280.1,19.8,280.2,21.2z"/>
		<path d="M260.6,115.9c-3.4,0-6.9-0.3-10.3-1c-10.8-2-16.6-6.9-23.3-12.6c-1.6-1.4-3.3-2.8-5.2-4.3c-1.3-1-2.7-2-4-2.9
			c-1.5-1-3-2-4.4-3.2c-3.7-3-5-6.4-6.5-10.3l-0.4-1.1c-3.3-8.7-5-17.9-5.2-27.3c-0.1-10.5,4-21.9,12.3-33.8c2.9-4.2,6.3-9,11-12.2
			c6.7-4.5,16.1-4.4,23.9,0.2c1,0.6,2,1.2,2.9,1.9c0.4,0.3,0.7,0.7,1,0.9c0.5,0.5,0.6,0.6,1.2,0.7l1.1,0.1c1.2,0.1,2.5,0.2,3.7,0.3
			c0,0,0-0.1,0.1-0.1l0.1-0.2c0.6-1.3,1.9-2.5,4-3.5c1.2-0.6,2.4-0.5,3.5-0.4c0.3,0,0.5,0,0.7,0.1c2.3,0.1,5.6,0.5,8.5,2.4
			c2.3,1.5,4.2,4,5.2,7c0.5,1.4,0.8,2.9,1,4.5l0,0c0.2,1.8,0.2,3.7,0.1,5.9c0,0.5-0.2,1.2-0.3,1.9c-0.2,1-0.5,2.3-0.3,2.9
			c0.2,0.7,1.1,1.7,1.8,2.6c0.6,0.8,1.3,1.6,1.7,2.3c0.5,0.9,1,1.9,1.5,2.9c0.4,0.8,0.8,1.6,1.2,2.4c1.7,3.2,3.7,6.4,5.6,9.5l1,1.7
			c3.2,5.3,5.4,11.2,6.3,17.5c1.2,7.9,0.9,14.1-0.8,19c-1.2,3.5-4.1,5.7-6.9,7.8c-0.4,0.3-0.8,0.6-1.3,1c-0.9,0.7-0.9,1.8-1,3.6
			c0,1.4,0,3.1-0.9,4.5c-1.7,2.9-5.8,4.4-8.7,5.5l-1,0.4C273.7,114.7,267.2,115.9,260.6,115.9z M235.9,6.4c-3.6,0-7.1,1-10,2.9
			c-4.4,2.9-7.5,7.5-10.4,11.6c-8,11.5-12,22.4-11.8,32.4c0.1,9.1,1.8,18,5,26.4l0.4,1.1c1.4,3.7,2.5,6.7,5.7,9.3
			c1.3,1.1,2.8,2.1,4.3,3c1.4,0.9,2.9,1.9,4.2,3c1.9,1.5,3.6,3,5.2,4.3c6.7,5.7,12,10.2,22.2,12.1c9.5,1.8,19.4,0.9,28-2.4l1-0.4
			c2.6-1,6.2-2.3,7.5-4.4c0.5-0.8,0.5-2,0.5-3.2c0-1.9,0-4.1,1.9-5.5c0.4-0.3,0.9-0.7,1.3-1c2.5-1.9,5.1-3.9,6-6.6
			c1.6-4.6,1.8-10.4,0.7-17.9c-0.9-6-2.9-11.6-6-16.6l-1-1.7c-1.9-3.1-3.9-6.3-5.7-9.6c-0.4-0.8-0.8-1.6-1.2-2.5
			c-0.5-0.9-0.9-1.8-1.4-2.7c-0.3-0.6-0.9-1.3-1.5-1.9c-0.9-1.1-1.9-2.3-2.3-3.5c-0.3-1.2,0-2.7,0.2-4.1c0.1-0.6,0.2-1.1,0.3-1.6
			c0.2-2,0.1-3.8-0.1-5.5c0,0,0,0,0,0c-0.2-1.4-0.5-2.7-0.9-4c-0.9-2.5-2.4-4.6-4.3-5.8c-1.8-1.2-4.1-1.8-7.2-1.9
			c-0.3,0-0.6,0-0.8-0.1c-0.8-0.1-1.6-0.1-2.2,0.1c-1.5,0.7-2.4,1.5-2.8,2.2c-0.3,0.6-0.6,1.5-1.6,1.8c-0.4,0.1-0.8,0.1-1.1,0
			c-1.2-0.2-2.4-0.3-3.6-0.3l-1.1-0.1c-1.6-0.1-2.3-0.8-2.9-1.5c-0.2-0.2-0.4-0.5-0.7-0.7c-0.7-0.6-1.6-1.1-2.5-1.6
			C243.7,7.5,239.7,6.4,235.9,6.4z"/>
	</g>
	<path d="M269.1,96.8c-1.4,0-2.7,0-4.1-0.1c-9.1-0.6-17.4-1.5-25.9-6c-3.9-2.1-6.4-5.5-8.8-8.8c-0.5-0.7-1-1.4-1.5-2
		c-1.2-1.6-1.9-3.4-2.7-5.2c-1.2-3-2.3-5.6-5.2-6.7c-0.7-0.3-1.4-0.4-2.1-0.6c-0.9-0.2-1.8-0.4-2.7-0.8c-2-0.9-3.8-3-3.2-5.3
		c0.2-0.7,0.9-1,1.5-0.8c0.7,0.2,1,0.9,0.8,1.5c-0.2,0.9,0.7,1.9,1.8,2.4c0.7,0.3,1.4,0.5,2.2,0.6c0.8,0.2,1.7,0.4,2.5,0.7
		c3.9,1.6,5.3,5,6.5,8.1c0.7,1.7,1.3,3.3,2.3,4.6c0.5,0.7,1,1.4,1.5,2.1c2.3,3.2,4.5,6.2,8,8c8.1,4.3,16.1,5.2,24.9,5.7
		c3.5,0.2,7.1,0.1,10.6-0.1c1.1,0,2.3-0.1,3.5-0.1c5.5-0.1,11.8-0.3,16.3-2.8c0.6-0.3,1.3-0.1,1.7,0.5c0.3,0.6,0.1,1.3-0.5,1.7
		c-5.1,2.8-11.6,2.9-17.5,3.1c-1.2,0-2.3,0.1-3.4,0.1C273.7,96.7,271.4,96.8,269.1,96.8z"/>
	<path d="M248.6,35.3c-0.2,0-0.4,0-0.5-0.1c-0.6-0.3-0.9-1-0.6-1.6c5.8-12,21-8,25.5-6.5c2.6,0.9,5.3,3.2,7.5,5l1,0.8
		c0.5,0.4,0.6,1.2,0.2,1.7c-0.4,0.5-1.2,0.6-1.7,0.2l-1-0.8c-2-1.7-4.5-3.9-6.7-4.6c-4-1.3-17.6-4.9-22.5,5.2
		C249.5,35,249.1,35.3,248.6,35.3z"/>
	<path d="M268.5,76.9c-0.4,0-0.8-0.2-1-0.6c-0.9-1.3-2.3-2.3-3.8-2.6c-0.7-0.1-1.1-0.8-0.9-1.5c0.1-0.7,0.8-1.1,1.5-0.9
		c2.2,0.5,4.1,1.8,5.4,3.7c0.4,0.6,0.2,1.3-0.3,1.7C269,76.8,268.8,76.9,268.5,76.9z"/>
	<path d="M287.2,75.3c-0.3,0-0.5-0.1-0.8-0.3c-0.5-0.4-0.6-1.2-0.2-1.7c1.2-1.5,2.9-2.5,4.8-2.7c0.7-0.1,1.3,0.4,1.4,1.1
		c0.1,0.7-0.4,1.3-1.1,1.4c-1.2,0.2-2.4,0.8-3.1,1.8C288,75.1,287.6,75.3,287.2,75.3z"/>
	<g>
		<path style="fill:#FFFFFF;" d="M235.1,15.4c-0.4-0.1-0.8-0.3-1.1-0.1c-0.2,0.1-0.3,0.3-0.4,0.6c-1.6,3.6,0.3,8.1,3.7,10.1
			c3.5,2,8.2,1.5,11.2-1.1c3.4-3.1-0.6-4.2-3.2-5.2C241.9,18.2,238.5,16.8,235.1,15.4z"/>
		<path d="M242,28.4c-1.9,0-3.8-0.5-5.4-1.4c-4.1-2.4-6-7.6-4.2-11.7c0.1-0.2,0.3-0.8,0.9-1.1c0.9-0.6,1.9-0.2,2.2,0l0,0
			c3.4,1.4,6.8,2.8,10.2,4.2l0.8,0.3c1.9,0.8,4.1,1.6,4.5,3.5c0.2,1.1-0.3,2.3-1.7,3.5C247.3,27.5,244.7,28.4,242,28.4z M234.5,16.5
			c-1.1,2.9,0.4,6.7,3.4,8.4c3,1.7,7.2,1.3,9.8-1c0.8-0.7,0.9-1.1,0.9-1.2c-0.1-0.5-2.1-1.3-2.9-1.6l-0.8-0.3
			C241.4,19.3,238,17.9,234.5,16.5L234.5,16.5C234.6,16.5,234.6,16.5,234.5,16.5z"/>
	</g>
	<circle cx="241.2" cy="22.6" r="4.4"/>
	<g>
		<path style="fill:#FFFFFF;" d="M274.2,14.5c0.3-0.2,0.7-0.4,1.1-0.3c0.2,0.1,0.4,0.3,0.5,0.5c2.1,3.3,0.9,8.1-2.2,10.5
			c-2.7,2.2-5.9,1.9-8.6,0c-0.9-0.6-3.6-2.8-2.1-4C266.4,18.8,270.4,16.8,274.2,14.5z"/>
		<path d="M269.4,28.1c-1.7,0-3.5-0.6-5.2-1.7c-0.5-0.3-3-2.2-3.1-4.1c0-0.7,0.3-1.4,1-1.9c2.5-1.8,5.3-3.4,7.9-4.9
			c1.2-0.7,2.3-1.3,3.5-2l0,0c0.3-0.2,1.3-0.7,2.2-0.3c0.5,0.2,0.8,0.6,1,1c2.3,3.7,1.2,9.2-2.4,12.2
			C272.9,27.5,271.2,28.1,269.4,28.1z M274.8,15.6c-1.1,0.7-2.3,1.4-3.5,2c-2.6,1.5-5.3,3-7.7,4.8c0.1,0.2,1,1.2,2,1.9
			c2.5,1.7,5.1,1.7,7.2,0C275.5,22.2,276.3,18.2,274.8,15.6C274.8,15.6,274.8,15.6,274.8,15.6L274.8,15.6z"/>
	</g>
	<circle cx="269.2" cy="22.6" r="4.4"/>
	<path d="M249.7,22.6c-0.1,0-0.2,0-0.3,0c-0.7,0-1.2-0.6-1.1-1.3s0.7-1.2,1.3-1.1c0.6,0.1,1.4-0.3,1.9-0.8c0.5-0.6,0.8-1.3,0.8-1.9
		c-0.1-0.7,0.4-1.3,1.1-1.3c0.7-0.1,1.3,0.4,1.3,1.1c0.1,1.4-0.4,2.8-1.5,3.9C252.3,22,251,22.6,249.7,22.6z"/>
	<path d="M256.5,23.2c-0.1,0-0.3,0-0.4-0.1c-0.6-0.2-1-1-0.7-1.6l1.5-4.1c0.2-0.6,1-1,1.6-0.7c0.6,0.2,1,1,0.7,1.6l-1.5,4.1
		C257.5,22.9,257,23.2,256.5,23.2z"/>
</g>
</svg>
