<?xml version="1.0" encoding="utf-8"?>
<!-- Generator: Adobe Illustrator 26.5.0, SVG Export Plug-In . SVG Version: 6.00 Build 0)  -->
<svg version="1.1" id="레이어_1" xmlns="http://www.w3.org/2000/svg" xmlns:xlink="http://www.w3.org/1999/xlink" x="0px"
	 y="0px" viewBox="0 0 117 273" style="enable-background:new 0 0 117 273;" xml:space="preserve">
<g id="Group-58_00000154403896345716023540000003880350424859739067_" transform="translate(49.000000, 196.000000)">
	
		<path id="Fill-1_00000121958282100636393780000002178211356397871791_" style="fill-rule:evenodd;clip-rule:evenodd;fill:#522E00;" d="
		M-2.6-173.9c0,0,11-3.2,20.5,0v17.8H-1.9L-2.6-173.9z"/>
	<path d="M17.9-154.2H-1.9c-1.1,0-2-0.9-2-1.9l-0.7-17.8c0-0.9,0.6-1.7,1.5-2c0.5-0.1,11.7-3.4,21.7,0c0.8,0.3,1.4,1,1.4,1.9v17.8
		C20-155.1,19-154.2,17.9-154.2z M0.1-158.2h15.8v-14.3c-6.4-1.7-13.3-0.6-16.3,0.1L0.1-158.2z"/>
	
		<path id="Fill-5_00000103977353221172873930000014884610651318494885_" style="fill-rule:evenodd;clip-rule:evenodd;fill:#522E00;" d="
		M66,41c0,18.8-25.3,34-56.5,34C-21.7,75-47,59.8-47,41V28.7H66V41z"/>
	<path d="M9.5,77C-22.8,77-49,60.9-49,41V28.7c0-1.1,0.9-2,2-2H66c1.1,0,2,0.9,2,2V41C68,60.9,41.8,77,9.5,77z M-44.9,30.7V41
		C-44.9,58.6-20.5,73,9.5,73S63.9,58.6,63.9,41V30.7H-44.9z"/>
	
		<path id="Fill-9_00000145755114027731886680000005221234196027470215_" style="fill-rule:evenodd;clip-rule:evenodd;fill:#522E00;" d="
		M66,28.7c0,18.8-25.3,34-56.5,34c-31.2,0-56.5-15.2-56.5-34c0-18.8,25.3-34,56.5-34C40.7-5.3,66,9.9,66,28.7"/>
	<path d="M9.5,64.6c-32.3,0-58.5-16.1-58.5-36s26.2-36,58.5-36S68,8.8,68,28.7S41.8,64.6,9.5,64.6z M9.5-3.3
		c-30,0-54.4,14.3-54.4,31.9s24.4,31.9,54.4,31.9s54.4-14.3,54.4-31.9S39.5-3.3,9.5-3.3z"/>
	
		<path id="Fill-13_00000066515639529752639230000010902312674897079425_" style="fill-rule:evenodd;clip-rule:evenodd;fill:#522E00;" d="
		M49.7,17.8c0,13.3-18,24.2-40.2,24.2c-22.2,0-40.2-10.8-40.2-24.2s18-149.7,40.2-149.7C31.7-131.9,49.7,4.5,49.7,17.8"/>
	<path d="M9.5,44c-23.3,0-42.2-11.7-42.2-26.2c0-6.8,4.5-44.1,11.8-80.3c9.8-48.1,19.7-71.5,30.4-71.5s20.6,23.4,30.4,71.5
		c7.3,36.1,11.8,73.5,11.8,80.3C51.7,32.3,32.8,44,9.5,44z M9.5-129.9c-11.6,0-23.2,52.2-26.4,68.2c-7.2,35.3-11.7,73-11.7,79.5
		C-28.6,30.1-11.5,40,9.5,40c21,0,38.1-9.9,38.1-22.1c0-6.5-4.6-44.2-11.7-79.5C32.7-77.6,21.1-129.9,9.5-129.9z"/>
	
		<path id="Fill-17_00000013188323507500253630000001659083796324119205_" style="fill-rule:evenodd;clip-rule:evenodd;fill:#522E00;" d="
		M43.9-86.2c0,11.4-15.4,20.7-34.4,20.7s-34.4-9.3-34.4-20.7s15.4-20.7,34.4-20.7S43.9-97.7,43.9-86.2"/>
	<path d="M9.5-63.5C-10.6-63.5-27-73.7-27-86.2c0-12.5,16.4-22.7,36.5-22.7c20.1,0,36.5,10.2,36.5,22.7C46-73.7,29.6-63.5,9.5-63.5z
		 M9.5-104.9c-17.9,0-32.4,8.4-32.4,18.7c0,10.3,14.5,18.7,32.4,18.7c17.9,0,32.4-8.4,32.4-18.7C41.9-96.5,27.4-104.9,9.5-104.9z"/>
	
		<path id="Fill-21_00000144330487393997447940000009820920512306217617_" style="fill-rule:evenodd;clip-rule:evenodd;fill:#522E00;" d="
		M52.1-98.8c0,14.2-19.1,25.6-42.6,25.6c-23.5,0-42.6-11.5-42.6-25.6s19.1-25.6,42.6-25.6C33-124.4,52.1-112.9,52.1-98.8"/>
	<path d="M9.5-71.1c-24.6,0-44.7-12.4-44.7-27.7s20-27.7,44.7-27.7c24.6,0,44.7,12.4,44.7,27.7S34.1-71.1,9.5-71.1z M9.5-122.4
		c-22.4,0-40.6,10.6-40.6,23.6c0,13,18.2,23.6,40.6,23.6s40.6-10.6,40.6-23.6C50.1-111.8,31.9-122.4,9.5-122.4z"/>
	
		<path id="Fill-25_00000060022811633044184160000007207582388405425581_" style="fill-rule:evenodd;clip-rule:evenodd;fill:#945300;" d="
		M-20.9-97.7c-0.6-0.6-1.2-1.2-2-1.5c-0.8-0.4-1.7-0.4-2.4,0.1c-0.4,0.3-0.7,0.7-0.8,1.1c-0.5,1.2-0.2,2.6,0.4,3.7
		c0.6,1.1,1.6,2,2.7,2.7c2.3,1.6,5.2,2.5,8,2.3c1.3-0.1,2.8-0.7,3-1.9c0.2-2.1-2-2.1-3.2-2.6C-17.5-94.8-19.2-96.1-20.9-97.7"/>
	<g id="Group-33_00000136385820846390466180000018199549977446629783_" transform="translate(6.408377, 8.669733)">
		
			<polygon id="Fill-27_00000006703979511239443910000003300311372801206712_" style="fill-rule:evenodd;clip-rule:evenodd;fill:#381F00;" points="
			49,-162.6 40.3,-142.1 40.1,-142.2 10.4,-163 12.4,-190.1 		"/>
		
			<path id="Fill-29_00000117663035914183467980000010927428802029197184_" style="fill-rule:evenodd;clip-rule:evenodd;fill:#381F00;" d="
			M40.3-142.1l-5.4,12.8c-1.5,3.6-2.5,7.3-3.7,11c-2.4,8-14.1,14.1-28.1,14.1c-14,0-25.7-6.1-28.1-14.1c-1.1-3.7-2.2-7.4-3.7-11
			l-7.2-16.5l26.3-18.1l0.3-0.1l7.6,36.5l9.4,1l2.7-36.5l29.7,20.8L40.3-142.1z"/>
		
			<polygon id="Fill-31_00000070812400121949429960000008846861921535188649_" style="fill-rule:evenodd;clip-rule:evenodd;fill:#381F00;" points="
			-11.5,-174.8 -9.3,-164 -9.6,-163.9 -35.9,-145.8 -44,-164.3 		"/>
	</g>
	<path d="M9.5-93.6c-14.7,0-27.4-6.5-30.1-15.6l-0.2-0.8c-1-3.3-2-6.8-3.4-10.1l-15.2-34.9c-0.2-0.5-0.2-1.1,0-1.6
		c0.2-0.5,0.7-0.9,1.2-1.1L-5.7-168c0.6-0.2,1.2-0.1,1.7,0.2c0.5,0.3,0.9,0.8,1,1.3l9.5,45.8l5.8,0.6l4.5-61.5
		c0.1-0.7,0.5-1.4,1.2-1.7c0.7-0.3,1.5-0.2,2.1,0.2l36.6,27.6c0.7,0.6,1,1.5,0.6,2.4l-8.7,20.4v0l-5.4,12.8
		c-1.3,3.2-2.4,6.7-3.4,10.1l-0.2,0.7C36.9-100.1,24.2-93.6,9.5-93.6z M-34.8-154.4l14.4,32.9c1.4,3.5,2.5,7,3.5,10.5l0.2,0.7
		c2.2,7.2,13.4,12.7,26.2,12.7c12.7,0,24-5.4,26.2-12.7l0.2-0.7c1-3.4,2.1-7,3.5-10.4l13.5-31.8l-32.3-24.3l-4.4,59.9
		c0,0.5-0.3,1-0.7,1.4c-0.4,0.4-1,0.5-1.5,0.5l-9.4-1c-0.9-0.1-1.6-0.7-1.8-1.6l-9.4-45.1L-34.8-154.4z M46.7-133.5L46.7-133.5
		L46.7-133.5z"/>
	<path d="M-29.5-135.1c-0.6,0-1.3-0.3-1.7-0.9c-0.6-0.9-0.4-2.2,0.5-2.8l26.3-18.1c0.9-0.6,2.2-0.4,2.8,0.5c0.6,0.9,0.4,2.2-0.5,2.8
		l-26.3,18.1C-28.7-135.3-29.1-135.1-29.5-135.1z"/>
	<path d="M46.5-131.5c-0.4,0-0.8-0.1-1.2-0.4l-29.7-20.8c-0.9-0.6-1.1-1.9-0.5-2.8c0.7-0.9,1.9-1.1,2.9-0.5l29.7,20.8
		c0.9,0.6,1.1,1.9,0.5,2.8C47.8-131.8,47.1-131.5,46.5-131.5z"/>
	
		<path id="Fill-40_00000096050903018240396850000003937055308000950198_" style="fill-rule:evenodd;clip-rule:evenodd;fill:#381F00;" d="
		M33-180.7c-7.9-2-14.2-0.8-14.2-0.8l-2.4,20.4c-8.7-2.2-17.1,0.7-17.2,0.7l-2.7-20.4c0,0-5.4-2-13.3,0c-7.9,2-2.7,19.3-2.7,19.3
		l16,49.6l9.4,2.6l-3.9-29.8l11.4,2.8l-3.2,27l9.4-2.6l16-49.6C35.6-161.4,40.9-178.7,33-180.7"/>
	<path d="M6-107.2c-0.2,0-0.4,0-0.5-0.1l-9.4-2.6c-0.7-0.2-1.2-0.7-1.4-1.3l-16-49.6c-0.4-1.3-3.6-12.6-0.3-18.5
		c1-1.7,2.5-2.9,4.4-3.4c8.4-2.1,14.3,0,14.5,0.1c0.7,0.3,1.2,0.9,1.3,1.6L1-162.9c2.9-0.7,8.1-1.5,13.7-0.6l2.2-18.2
		c0.1-0.9,0.8-1.6,1.6-1.7c0.3-0.1,6.9-1.3,15.1,0.8c1.9,0.5,3.4,1.6,4.4,3.4c3.4,5.9,0.1,17.2-0.3,18.5l-16,49.6
		c-0.2,0.6-0.7,1.1-1.4,1.3l-9.4,2.6c-0.7,0.2-1.4,0-1.9-0.4c-0.5-0.4-0.8-1.1-0.7-1.8l3-25.2l-6.7-1.6L8-109.4
		c0.1,0.7-0.2,1.3-0.7,1.8C6.9-107.3,6.5-107.2,6-107.2z M19.7-111.8L19.7-111.8L19.7-111.8z M2.1-141c0.2,0,0.3,0,0.5,0.1l11.4,2.8
		c1,0.2,1.7,1.2,1.5,2.2l-2.8,24l5.4-1.5L33.7-162c0.9-3,2.8-11.6,0.6-15.3c-0.5-0.8-1-1.2-1.8-1.4l0,0c-5.1-1.3-9.6-1.1-11.8-0.9
		l-2.2,18.8c-0.1,0.6-0.4,1.1-0.9,1.4c-0.5,0.3-1.1,0.4-1.7,0.3c-7.9-2-15.7,0.6-16,0.7c-0.6,0.2-1.2,0.1-1.7-0.2
		c-0.5-0.3-0.9-0.9-0.9-1.5l-2.5-19c-1.9-0.4-5.9-0.9-11,0.4c-0.8,0.2-1.4,0.7-1.8,1.4c-2.1,3.7-0.3,12.3,0.6,15.3l15.6,48.5
		l5.4,1.5L0-138.7c-0.1-0.7,0.2-1.3,0.7-1.8C1.1-140.8,1.6-141,2.1-141z"/>
	
		<path id="Fill-44_00000010275832547508344520000003263207298381407401_" style="fill-rule:evenodd;clip-rule:evenodd;fill:#945300;" d="
		M-20.8,1c0,5.2,0.9,9,3.6,7.5c0.8-0.4,1.4-1.4,1.8-2.5C-9.1-9.5-9-26.8-4.5-43.1c1.4-5,4.1-13.6-1.4-16c-5.3-2.4-7.5,7.6-8.5,12.6
		c-1.7,9.1-3.1,18.5-4.5,27.7C-19.2-17-20.9-6.5-20.8,1"/>
	
		<path id="Fill-46_00000062175928957443701570000006273798113162881431_" style="fill-rule:evenodd;clip-rule:evenodd;fill:#945300;" d="
		M-36.7,37.2c1.2,1.9,2.4,3.9,4.1,5.5c1.7,1.6,3.8,2.7,6.1,2.8c1.1,0,2.3-0.2,3.1-0.9c0.8-0.7,1.3-1.9,0.9-2.9
		c-0.6-1.6-2.6-1.9-3.9-3c-0.7-0.6-1.2-1.5-1.7-2.4c-1-1.9-2-3.8-3.1-5.8c-1.2-2.2-3.9-4.7-6.4-2.4C-40.1,30.5-38.2,34.7-36.7,37.2"
		/>
	
		<path id="Fill-48_00000061464009894822359680000007601594561007381392_" style="fill-rule:evenodd;clip-rule:evenodd;fill:#522E00;" d="
		M34.2-126.3l3.1-14.7l-58.1-1.1l4.3,16.1c-5.2-2.3-11-7.6-11-7.6l9.6,25.7c1.6,4.6,8.3,7.8,8.3,7.8s4.6,4.2,19.1,4.4
		c0,0,13.8-0.6,19.1-4.4l0,0c0,0,6.7-3.2,8.3-7.8l9.6-25.7C46.5-133.5,39.6-128.2,34.2-126.3"/>
	<path d="M9.6-93.6c-13.7-0.2-19.1-3.7-20.3-4.7c-1.4-0.7-7.4-4-9.1-8.9l-9.6-25.7c-0.3-0.9,0-1.9,0.8-2.4c0.8-0.5,1.8-0.4,2.5,0.2
		c0,0,3,2.7,6.4,5l-3.1-11.5c-0.2-0.6,0-1.3,0.4-1.8c0.4-0.5,1-0.8,1.6-0.8l58.1,1.1c0.6,0,1.2,0.3,1.6,0.8c0.4,0.5,0.5,1.1,0.4,1.7
		L37-129.8c4.1-2.2,8.1-5.3,8.2-5.3c0.7-0.6,1.7-0.6,2.5-0.1c0.7,0.5,1,1.5,0.7,2.3l-9.6,25.7c-1.7,4.9-8,8.3-9.1,8.9
		C24-94.3,11.1-93.6,9.6-93.6z M-23-127.4l7.1,18.9c1.1,3.2,5.6,5.9,7.3,6.7c0.2,0.1,0.3,0.2,0.5,0.3c0,0,4.4,3.7,17.7,3.9
		c3.6-0.2,14-1.2,17.9-4c0.1,0,0.1-0.1,0.2-0.1c2.2-1.1,6.3-3.8,7.3-6.7l7.4-19.7c-2.3,1.4-5,2.9-7.4,3.8c-0.7,0.2-1.5,0.1-2-0.4
		c-0.6-0.5-0.8-1.2-0.7-1.9l2.6-12.3l-53-1l3.6,13.6c0.2,0.8-0.1,1.6-0.7,2.1c-0.6,0.5-1.4,0.6-2.2,0.3
		C-19.3-125-21.3-126.2-23-127.4z"/>
	
		<path id="Fill-52_00000028298875440735813550000009081039798005091733_" style="fill-rule:evenodd;clip-rule:evenodd;fill:#522E00;" d="
		M-12.4-193.3c-18.3,4.7-28.3,17.1-28.3,27.2c0,3.7,1.1,7.2,3.1,10.5l18.1-5.7c-0.9-1.5-1.3-3.1-1.3-4.7c0-6.4,7.1-12,17.3-14.6
		L-12.4-193.3z M-20.8-142.1c8.4,3.8,18.9,6.1,30.3,6.1c10.3,0,19.9-1.9,27.8-5.1L29-153.8c-6.3,2.6-10.6,3.8-19.5,3.8
		c-8.6,0-12.2-1-19.5-3.8L-20.8-142.1z M18.8-181.4c9.7,2.7,21,9.1,21,15.3c0,1-0.2,2-0.5,3l16.1,9.2c2.8-3.7,4.3-7.9,4.3-12.2
		c0-12.6-12.8-23.3-30.9-27.9L18.8-181.4z"/>
	<path d="M9.5-133.9c-11.3,0-22.1-2.2-31.2-6.3c-0.6-0.3-1-0.8-1.1-1.4c-0.1-0.6,0.1-1.3,0.5-1.8l10.8-11.7c0.6-0.6,1.5-0.8,2.3-0.5
		c7,2.7,10.4,3.7,18.8,3.7c8.6,0,12.6-1.1,18.7-3.6c0.9-0.4,2-0.1,2.5,0.8l8.3,12.8c0.3,0.5,0.4,1.1,0.2,1.7c-0.2,0.6-0.6,1-1.2,1.3
		C29.6-135.7,19.7-133.9,9.5-133.9z M-17.4-142.8c8,3.2,17.2,4.8,26.9,4.8c8.8,0,17.3-1.4,24.8-4l-6-9.3C22.5-149,18-148,9.5-148
		c-8.5,0-12.4-1-19-3.4L-17.4-142.8z M55.4-151.9c-0.3,0-0.7-0.1-1-0.3l-16.1-9.2c-0.8-0.5-1.2-1.5-0.9-2.4c0.3-0.8,0.4-1.5,0.4-2.3
		c0-4.3-8.9-10.5-19.5-13.4c-0.7-0.2-1.2-0.7-1.4-1.3c-0.2-0.6-0.1-1.3,0.3-1.9l9.9-12.5c0.5-0.6,1.3-0.9,2.1-0.7
		c19.7,4.9,32.5,16.6,32.5,29.8c0,4.7-1.6,9.2-4.7,13.4C56.6-152.2,56-151.9,55.4-151.9z M41.6-164.1l13.1,7.5
		c1.9-3.1,2.9-6.3,2.9-9.5c0-11-11-21-28.1-25.6l-7.3,9.2c8.7,3,19.6,9.1,19.6,16.4C41.8-165.4,41.8-164.8,41.6-164.1z M-37.6-153.6
		c-0.7,0-1.4-0.4-1.7-1c-2.3-3.7-3.4-7.5-3.4-11.5c0-10.6,10.2-24,29.8-29.1c0.8-0.2,1.7,0.1,2.2,0.8l8.9,12.6
		c0.4,0.5,0.5,1.2,0.2,1.9c-0.2,0.6-0.8,1.1-1.4,1.3c-9.6,2.4-15.8,7.4-15.8,12.6c0,1.3,0.4,2.5,1.1,3.7c0.3,0.5,0.4,1.2,0.1,1.7
		c-0.2,0.6-0.7,1-1.3,1.2l-18.1,5.7C-37.1-153.7-37.4-153.6-37.6-153.6z M-13.2-190.9c-16.7,4.8-25.4,16-25.4,24.8
		c0,2.7,0.7,5.4,2,8l14.4-4.5c-0.4-1.1-0.6-2.3-0.6-3.5c0-6.7,6.1-12.5,16-15.7L-13.2-190.9z"/>
	
		<path id="Fill-56_00000109746379557560383050000003707409788407840946_" style="fill-rule:evenodd;clip-rule:evenodd;fill:#945300;" d="
		M-15.8-120.9c1,3.6,2.5,7,4.4,10.2c1.2,2,2.9,4,5.2,4.1c0.9,0,1.8-0.4,2.2-1.1c0.5-1,0.1-2.1-0.3-3.2c-0.8-2.4-0.3-7.1-2.1-9
		C-7.7-121.3-15.7-120.4-15.8-120.9"/>
</g>
</svg>
