<?xml version="1.0" encoding="utf-8"?>
<!-- Generator: Adobe Illustrator 24.1.1, SVG Export Plug-In . SVG Version: 6.00 Build 0)  -->
<svg version="1.1" id="Layer_1" xmlns="http://www.w3.org/2000/svg" xmlns:xlink="http://www.w3.org/1999/xlink" x="0px" y="0px"
	 viewBox="0 0 200 240" style="enable-background:new 0 0 200 240;" xml:space="preserve">
<g>
	<path style="fill:#FFAB92;" d="M187.63,195.54c-4.2,2.73-24.9,13.54-87.63,13.54c-62.78,0-83.45-10.83-87.63-13.54
		c2.81-7.99,19.38-55.64,28.87-99.93c9.16-42.85,19.9-66.39,22.14-71.03l17.89,2.37c6.4,0.85,12.84,1.26,19.29,1.26
		c6.44,0,12.87-0.41,19.28-1.26l16.86-2.24c2.39,4.97,12.99,28.46,22.07,70.9C168.26,139.9,184.81,187.55,187.63,195.54z"/>
	<path style="fill:#FFAB92;" d="M135.27,21.6l-15.88,2.09c-12.5,1.67-25.19,1.67-37.69,0l-16.12-2.12l3.64-13.92L77,8.86
		c15.06,2.32,30.34,2.3,45.42-0.08l7.22-1.14L135.27,21.6z"/>
	<path d="M191.13,195.59c-0.2-0.52-18.87-52.6-29.16-100.67c-10.36-48.37-22.74-72.5-22.87-72.73c-0.03-0.07-0.1-0.11-0.13-0.18
		L132.18,5.2c-0.29-0.7-1.03-1.13-1.78-1l-8.51,1.34c-14.72,2.34-29.67,2.37-44.4,0.08L68.28,4.2c-0.83-0.13-1.62,0.39-1.83,1.19
		l-4.18,15.95c-0.56,0.03-1.08,0.33-1.36,0.85c-0.13,0.23-12.51,24.36-22.87,72.73C27.74,142.98,9.07,195.06,8.88,195.59
		c-0.21,0.62-0.05,1.32,0.46,1.76c0.67,0.62,17.53,15,90.67,15s90-14.38,90.67-15C191.16,196.91,191.34,196.21,191.13,195.59z
		 M100,209.08c-62.78,0-83.45-10.83-87.63-13.54c2.81-7.99,19.38-55.64,28.87-99.93c9.16-42.85,19.9-66.39,22.14-71.03l17.89,2.37
		c6.4,0.85,12.84,1.26,19.29,1.26c6.44,0,12.87-0.41,19.28-1.26l16.86-2.24c2.39,4.97,12.99,28.46,22.07,70.9
		c9.49,44.29,26.04,91.94,28.87,99.93C183.43,198.27,162.73,209.08,100,209.08z M69.22,7.65L77,8.86
		c15.06,2.32,30.34,2.3,45.42-0.08l7.22-1.14l5.64,13.97l-10.18,1.34l-5.7,0.75c-12.5,1.67-25.19,1.67-37.69,0L76,22.94l-10.42-1.37
		L69.22,7.65z"/>
	<g>
		<path d="M65.32,189.63c-0.08,0-0.15,0-0.23-0.02c-0.89-0.12-1.52-0.95-1.39-1.84c0.06-0.45,6.23-45.06,5.48-69.2
			c-0.76-24.54,10.27-61.84,10.74-63.42c0.26-0.87,1.17-1.36,2.03-1.1c0.86,0.26,1.36,1.17,1.1,2.03
			c-0.11,0.38-11.35,38.37-10.6,62.38c0.76,24.42-5.45,69.3-5.51,69.75C66.82,189.04,66.12,189.63,65.32,189.63z"/>
	</g>
	<g>
		<path d="M137.57,193.81c-0.8,0-1.5-0.59-1.62-1.41c-0.07-0.53-7.39-53.63-8.69-77.41c-1.28-23.57-9.16-58.67-9.24-59.02
			c-0.2-0.88,0.35-1.75,1.23-1.95c0.88-0.2,1.75,0.35,1.95,1.23c0.08,0.35,8.02,35.72,9.32,59.56c1.29,23.64,8.59,76.61,8.66,77.14
			c0.12,0.89-0.5,1.72-1.39,1.84C137.72,193.81,137.64,193.81,137.57,193.81z"/>
	</g>
</g>
</svg>
