<svg id="레이어_6" data-name="레이어 6" xmlns="http://www.w3.org/2000/svg" viewBox="0 0 250 250"><defs><style>.cls-1{fill:#eaa95d;}.cls-2{fill:#e09346;}.cls-3{fill:#7bbcff;}.cls-4{fill:#f04a32;}.cls-5{fill:#53bc63;}.cls-6{fill:#90eb9e;}.cls-7{fill:#5eb86b;opacity:0.63;}.cls-8{fill:#d83221;}.cls-9{fill:#221e1f;}.cls-10{fill:#f8c96a;}.cls-11{fill:#fff5e6;}.cls-12{fill:#ffa76c;}.cls-13{fill:#ea5e2d;}.cls-14{fill:#ff864a;}.cls-15{fill:#f46b2f;}</style></defs><path class="cls-1" d="M142.45,177.29a47.31,47.31,0,0,0-4.17,6.11c1.83,2.24,3.67,4.23,5.39,6,1.81-1.58,3.42-3.27,5.05-5A71.19,71.19,0,0,1,142.45,177.29Z"/><path class="cls-1" d="M129.45,169.87a69.63,69.63,0,0,0,5.85,9.65c1.76-1.76,3.42-3.39,5.1-5a70.87,70.87,0,0,1-4.92-8.22A38.72,38.72,0,0,0,129.45,169.87Z"/><path class="cls-1" d="M128.09,140.39a.33.33,0,0,0-.52-.08L123.74,143a.35.35,0,0,0-.07.41,50,50,0,0,0,.38,9,50.4,50.4,0,0,0,5.26-3.85A73.56,73.56,0,0,1,128.09,140.39Z"/><path class="cls-2" d="M124.05,152.36c.18,1.36.4,2.69.68,4,1.82-1.06,3.72-2.24,5.61-3.48-.39-1.41-.72-2.88-1-4.37A50.4,50.4,0,0,1,124.05,152.36Z"/><path class="cls-1" d="M124.73,156.36a55.7,55.7,0,0,0,3.08,9.9,57,57,0,0,0,6.23-3,69,69,0,0,1-3.7-10.35C128.45,154.12,126.55,155.3,124.73,156.36Z"/><path class="cls-2" d="M127.81,166.26c.52,1.23,1.07,2.44,1.64,3.61a38.72,38.72,0,0,1,6-3.6c-.49-1-1-2-1.44-3A57,57,0,0,1,127.81,166.26Z"/><path class="cls-2" d="M135.3,179.52c1,1.36,2,2.66,3,3.88a47.31,47.31,0,0,1,4.17-6.11c-.69-.89-1.37-1.83-2-2.8C138.72,176.13,137.06,177.76,135.3,179.52Z"/><path class="cls-2" d="M148.72,184.4c-1.63,1.7-3.24,3.39-5.05,5q1.34,1.33,2.55,2.46c1.81-1.6,3.66-3.14,5.49-4.64C150.77,186.36,149.76,185.42,148.72,184.4Z"/><path class="cls-1" d="M167.25,190.24l-.4-.67a2.07,2.07,0,0,0-3-.57l-4.18,3.84a.34.34,0,0,1-.5-.1,50.92,50.92,0,0,1-7.43-5.55c-1.83,1.5-3.68,3-5.49,4.64a66.92,66.92,0,0,0,6.87,5.68.34.34,0,0,1-.08.42L141.4,208a3,3,0,0,0-.84,3.28,2,2,0,0,0,3.2.71l8.83-8.58a.34.34,0,0,1,.55.39l-3.66,7.67a2.76,2.76,0,0,0,3.12,3.88l.37-.08a4.34,4.34,0,0,0,3.12-2.82l5.36-15.87a.34.34,0,0,1,.17-.2l4.95-3.68A1.71,1.71,0,0,0,167.25,190.24Z"/><path d="M152.6,217.4a4.26,4.26,0,0,1-4.12-6.09l.87-1.84-4.2,4.08a3.41,3.41,0,0,1-3.2.71,4.65,4.65,0,0,1-3.33-2.57c-.62-1.63-.58-4,.93-5.31l10.49-9c-6.33-4.5-31.1-24.18-27.79-54.59a1.52,1.52,0,0,1,.53-1l4.64-3.89a1.5,1.5,0,0,1,1.55-.23,1.52,1.52,0,0,1,.91,1.29c2,31.95,25.69,49.24,29.74,52l3.2-2.94.11-.1a3.58,3.58,0,0,1,5.22,1l.68,1a4.27,4.27,0,0,1,.45,3.25A3,3,0,0,1,168,195l-5.25,3.53-4.84,14.92a5.76,5.76,0,0,1-4.2,3.81l-.37.09A4.1,4.1,0,0,1,152.6,217.4Zm.45-15.1a1.81,1.81,0,0,1,1.2.34,1.84,1.84,0,0,1,.59,2.29l-3.66,7.67a1.27,1.27,0,0,0,1.43,1.78l.37-.09a2.78,2.78,0,0,0,2-1.84l5-15.28a1.78,1.78,0,0,1,.8-1l5.56-3.75,0,0a1.32,1.32,0,0,0-.06-.85l-.69-1a.59.59,0,0,0-.43-.33.55.55,0,0,0-.41.07l-3.85,3.55-.1.09a1.85,1.85,0,0,1-2.39-.14c-2.53-1.63-27.89-18.81-31.32-51.69l-2,1.64c-3.13,32.39,27.59,51.91,27.9,52.1a1.66,1.66,0,0,1,.54.58,1.85,1.85,0,0,1-.43,2.25l-11.67,10a2.21,2.21,0,0,0-.08,2,2,2,0,0,0,1.69.72l8.77-8.54A1.84,1.84,0,0,1,153.05,202.3Z"/><path class="cls-1" d="M161.49,176.82a47.16,47.16,0,0,0-2.49,7c2.34,1.71,4.61,3.18,6.72,4.42,1.35-2,2.49-4,3.63-6.08A72,72,0,0,1,161.49,176.82Z"/><path class="cls-1" d="M147.05,172.91a68.41,68.41,0,0,0,8.08,7.86l3.68-6.15a69.22,69.22,0,0,1-6.83-6.71A38.22,38.22,0,0,0,147.05,172.91Z"/><path class="cls-1" d="M138.31,144.72a.35.35,0,0,0-.53.05l-3,3.55a.35.35,0,0,0,0,.42,50,50,0,0,0,2.62,8.59,49.36,49.36,0,0,0,4.13-5.06A73.54,73.54,0,0,1,138.31,144.72Z"/><path class="cls-2" d="M137.41,157.33c.51,1.26,1.07,2.5,1.66,3.69,1.5-1.48,3-3.1,4.56-4.78-.73-1.27-1.42-2.6-2.09-4A49.36,49.36,0,0,1,137.41,157.33Z"/><path class="cls-1" d="M139.07,161a55.23,55.23,0,0,0,5.49,8.81,59.44,59.44,0,0,0,5.26-4.5,69.48,69.48,0,0,1-6.19-9.09C142.11,157.92,140.57,159.54,139.07,161Z"/><path class="cls-2" d="M144.56,169.83c.8,1.06,1.64,2.09,2.49,3.08a38.22,38.22,0,0,1,4.93-5q-1.09-1.24-2.16-2.58A59.44,59.44,0,0,1,144.56,169.83Z"/><path class="cls-2" d="M155.13,180.77q2,1.62,3.87,3a47.16,47.16,0,0,1,2.49-7c-.89-.69-1.78-1.43-2.68-2.2Z"/><path class="cls-2" d="M169.35,182.12c-1.14,2.06-2.28,4.1-3.63,6.08,1.08.64,2.11,1.22,3.09,1.75,1.34-2,2.74-4,4.14-5.88C171.83,183.5,170.62,182.85,169.35,182.12Z"/><path class="cls-1" d="M188.76,183.11l-.56-.55a2.08,2.08,0,0,0-3.08.21l-3.07,4.77a.35.35,0,0,1-.51,0,50.78,50.78,0,0,1-8.59-3.5c-1.4,1.91-2.8,3.87-4.14,5.88a68.15,68.15,0,0,0,8.08,3.76.35.35,0,0,1,0,.42l-8.71,12.64a3,3,0,0,0,0,3.38,2,2,0,0,0,3.28-.11l6.39-10.54a.34.34,0,0,1,.62.25l-1.6,8.34a2.76,2.76,0,0,0,4,3l.34-.17a4.33,4.33,0,0,0,2.3-3.52l1.2-16.71a.35.35,0,0,1,.12-.23l3.86-4.81A1.72,1.72,0,0,0,188.76,183.11Z"/><path d="M180.36,213.3a4.31,4.31,0,0,1-2.83-.84,4.25,4.25,0,0,1-1.64-4.23l.38-2-3,5a3.46,3.46,0,0,1-2.92,1.49,4.69,4.69,0,0,1-3.87-1.65c-1-1.43-1.57-3.72-.43-5.37l7.88-11.33c-7.26-2.76-36.18-15.57-40.63-45.84a1.52,1.52,0,0,1,.27-1.09l3.5-4.93a1.51,1.51,0,0,1,2.65.4c10,30.43,37.26,41.2,41.87,42.82l2.36-3.66A.83.83,0,0,1,184,182a3.58,3.58,0,0,1,2.56-1.35h0a3.56,3.56,0,0,1,2.73,1l.91.79a4.22,4.22,0,0,1,1.24,3,3,3,0,0,1-.83,2.07l-4.2,4.74-.92,15.65a5.81,5.81,0,0,1-3.11,4.76l-.33.17A4.24,4.24,0,0,1,180.36,213.3Zm-1.85-15a1.81,1.81,0,0,1,.79.11,1.84,1.84,0,0,1,1.14,2.07l-1.6,8.35a1.22,1.22,0,0,0,.48,1.25,1.24,1.24,0,0,0,1.34.11L181,210a2.8,2.8,0,0,0,1.5-2.29l.95-16a1.82,1.82,0,0,1,.53-1.17l4.43-5,0,0a1.26,1.26,0,0,0-.27-.81l-.91-.78a.65.65,0,0,0-.5-.22h0a.59.59,0,0,0-.38.18l-2.83,4.4a1,1,0,0,0-.08.11,1.81,1.81,0,0,1-1.32.7h0a1.89,1.89,0,0,1-1-.23c-2.87-.95-31.72-11.19-43.32-42.14l-1.48,2.08c5.12,32.14,39.76,43.29,40.11,43.4a1.49,1.49,0,0,1,.67.43,1.82,1.82,0,0,1,.15,2.28l-8.78,12.6a2.22,2.22,0,0,0,.42,1.94,2.07,2.07,0,0,0,1.82.27l6.34-10.47A1.81,1.81,0,0,1,178.51,198.27Zm4.33-12h0Z"/><path class="cls-3" d="M174.84,106.5A21.82,21.82,0,0,0,180,98.2c1.6-5,.9-10.33,1.17-15.54.62-11.76,7.32-23.83,18.43-27.76a23.75,23.75,0,0,1,15.85.05c5.59,2,10.59,6.74,11.22,12.65A12.06,12.06,0,0,1,208.2,79a.54.54,0,0,0-.82.58c1.84,7.25-1.12,15.11-5.15,21.54-6.7,10.71-16.87,19.68-29.1,22.87a29.49,29.49,0,0,1-14.78.24c-2.31-.62-11.26-4-9.37-7.33,1.31-2.36,8.36-1.33,12.62-2.59A27.9,27.9,0,0,0,174.84,106.5Z"/><path d="M165,126.58a27.57,27.57,0,0,1-7.05-.88c-.09,0-8.78-2.48-10.46-6.42a3.4,3.4,0,0,1,.16-3.09c1.19-2.14,4.33-2.35,8-2.59a27.21,27.21,0,0,0,5.53-.71,26.54,26.54,0,0,0,12.58-7.43h0a20.13,20.13,0,0,0,4.82-7.72c1-3.26,1-6.74,1-10.41,0-1.56,0-3.16.08-4.74.58-11.28,6.82-24.65,19.42-29.11a25,25,0,0,1,16.86.06c6.78,2.45,11.56,7.91,12.2,13.9a13.53,13.53,0,0,1-18.94,13.81c1.1,7.69-2.42,15.39-5.73,20.68-7.57,12.11-18.23,20.47-30,23.53A33.65,33.65,0,0,1,165,126.58Zm10.9-19a28.18,28.18,0,0,1-20.08,9.06c-1.93.12-5.16.34-5.55,1.05a.42.42,0,0,0,0,.45c.76,1.79,6,4,8.46,4.7a27.81,27.81,0,0,0,14-.24c10.86-2.83,21.15-10.93,28.21-22.22,3.29-5.26,6.82-13.06,5-20.37A2,2,0,0,1,209,77.75a10.55,10.55,0,0,0,16.19-10c-.58-5.52-5.56-9.7-10.23-11.39a22.41,22.41,0,0,0-14.84,0c-9.63,3.41-16.79,14.28-17.43,26.43-.08,1.5-.07,3.07-.07,4.58,0,3.75,0,7.62-1.17,11.34a23.13,23.13,0,0,1-5.52,8.88Z"/><path class="cls-4" d="M159.41,119.81c1.78.75,7.48,2,8.52,2.35,15.7,5.39,31.93-15.7,35.25-28.28,1.4-5.27,2.42-12.52,1.17-17.92a.73.73,0,0,1,1.06-.81,16.32,16.32,0,0,0,10.77,1.34c4-1.13,6.28-6.31,5.13-10.13s-5.16-6.47-8.81-7.77c-14.85-5.29-24.84,10.92-25.25,23.2-.24,7.32-.93,15.51-4.67,22a24.59,24.59,0,0,1-8.31,8.62s-10.38,6.47-19.05,5.43A22.71,22.71,0,0,0,159.41,119.81Z"/><path class="cls-5" d="M200.77,85a50.2,50.2,0,0,1-1.45,11.68c-1.61,6.31-5,10.86-9.58,15.48-6.84,6.87-17.68,7.76-27.25,9.3,14.14-2.87,25.19-11.9,28.5-28.52,1-5.24.57-11.62,1.46-16.89S195.9,65,200.78,62.76c4.21-1.9,10.56-1.66,14.17,1.49,2,1.71,3.49,5.18,2.19,7.68,0,0-1.75,3.47-5.16,2.24.63.24,1.75-1.28,1.9-1.76,1.26-4-4.67-5.22-7.29-4.71C198.72,69.23,200.88,79.18,200.77,85Z"/><path class="cls-3" d="M155.85,119.49a35.33,35.33,0,0,0,18.9-1.16,42.32,42.32,0,0,0,22.4-19,30.27,30.27,0,0,1,6.48-8.3c3.84-3.32,8.93-6.07,14.43-4.7A15,15,0,0,1,227.78,94c1.85,3.77,1.05,8.88-2.33,11.37-3.1,2.3-8.15,1.5-10.16-1.68a.26.26,0,0,0-.48.07c-.75,2.84-5.61,9.9-6.56,11.12-13.76,17.58-47,19.86-62.3,3.23a2.2,2.2,0,0,1-.66-1.93c.18-.68,1.31-1,1.56-.32Z"/><path d="M174.76,130.94c-12.15,0-23-4.24-29.91-11.78a3.59,3.59,0,0,1-1-3.33,2.48,2.48,0,0,1,2.3-1.8,2.14,2.14,0,0,1,1.67.63l8.48,3.39a33.72,33.72,0,0,0,18-1.13,41,41,0,0,0,21.6-18.3,31.43,31.43,0,0,1,6.81-8.71c5.25-4.55,10.7-6.29,15.77-5a16.51,16.51,0,0,1,10.71,8.49c2.25,4.61,1,10.42-2.79,13.24a9,9,0,0,1-10.87-.43,75.67,75.67,0,0,1-6,9.66c-7,8.89-19.12,14.52-32.55,15.06C176.17,130.92,175.46,130.94,174.76,130.94Zm-27-13.06c6.79,6.85,17.29,10.49,29,10,12.56-.51,23.89-5.71,30.31-13.91,1.13-1.45,5.65-8.15,6.29-10.58a1.76,1.76,0,0,1,3.2-.49,5.21,5.21,0,0,0,3.5,2.19,5.88,5.88,0,0,0,4.5-.91c2.64-2,3.48-6.22,1.88-9.51a13.7,13.7,0,0,0-8.74-6.9c-4.14-1-8.55.45-13.09,4.38a28.75,28.75,0,0,0-6.15,7.9,43.94,43.94,0,0,1-23.2,19.67A36.74,36.74,0,0,1,155.54,121l-.24-.08ZM214,104.53Z"/><path class="cls-4" d="M155,120.48c-.57-.2-1.66.56-1.3.93,2.78,2.84,8.57,4.55,12.42,5.35a38,38,0,0,0,4.22.62,42.24,42.24,0,0,0,5.51.12c17-.72,31-10.93,37.08-27,.26-.69,1.48-.68,2-.19a29.35,29.35,0,0,0,2.9,2.45,4.94,4.94,0,0,0,7.1-1.52,7,7,0,0,0-.54-7.77c-3.63-5.11-10.1-5.2-14.26-2.83-6.68,3.8-8.66,10.54-13.05,15.79-8.17,9.78-20.08,16.66-33.21,15.36C164,121.81,158.11,121.57,155,120.48Z"/><path class="cls-5" d="M220.92,93.63a10.25,10.25,0,0,0-4.37-1.69c-4-.3-7.49,2.69-9.78,5.64-2.06,2.64-3.11,5.25-5,8a36.1,36.1,0,0,1-6.33,7.33,58.47,58.47,0,0,1-16.4,8.93c-7.25,2.71-13.66,2.42-20,1.88-.42,0-2.56,1.22-2.74,1.16,5.55,1.86,24.09.2,29.73-1,13.06-2.83,19.79-13.76,23.73-22.58,1-2.21,2.79-4.39,5.25-5,2.28-.53,6.09.65,5.61,3.58,0,0-.06,1.63-1.59,1.19C224.22,102.59,224.76,96,220.92,93.63Z"/><path class="cls-3" d="M171.15,124.48c8.3,0,17-1.1,23.76-5.93,5-3.58,9-9.19,15-10.17a11,11,0,0,1,12,14.91,7.55,7.55,0,0,1-5.09,4.78c-2.37.51-5.18-1-5.55-3.38-3.3,4.57-8.63,9.66-14.67,11.49a34.24,34.24,0,0,1-17.8.7,60.37,60.37,0,0,1-29.24-15.29c-.75-.71-3.59-3.92-1.12-4.2.87-.09,5.32,3.8,6.51,4.33C160,124,165.7,124.48,171.15,124.48Z"/><path d="M186.49,139.23a38.56,38.56,0,0,1-8-.88,61.51,61.51,0,0,1-30-15.68c-.75-.71-3.12-3.21-2.45-5.19a2.41,2.41,0,0,1,2.2-1.58c1-.11,2.1.63,4.94,2.77a23.9,23.9,0,0,0,2.35,1.67c5.32,2.37,11.44,2.64,15.59,2.64h0c10.2,0,17.45-1.79,22.83-5.65a50.2,50.2,0,0,0,4.32-3.62c3.32-3,6.75-6.06,11.36-6.81a12.49,12.49,0,0,1,13.59,16.95,8.92,8.92,0,0,1-6.17,5.69,6.57,6.57,0,0,1-5-1,5.83,5.83,0,0,1-1.13-1c-2.71,3.29-7.61,8.2-14,10.12A35.92,35.92,0,0,1,186.49,139.23ZM150.4,120.31l.2.2a58.45,58.45,0,0,0,28.51,14.9,32.55,32.55,0,0,0,17.06-.67c4.8-1.45,10-5.54,13.88-10.93a1.52,1.52,0,0,1,1.57-.58,1.5,1.5,0,0,1,1.13,1.23,2.51,2.51,0,0,0,1.08,1.58,3.64,3.64,0,0,0,2.68.57,6.13,6.13,0,0,0,4-3.87,9.49,9.49,0,0,0-10.32-12.88c-3.74.61-6.7,3.27-9.83,6.08a52.65,52.65,0,0,1-4.58,3.82C188,125.33,178.06,126,171.21,126h-.07c-4.41,0-11-.3-16.8-2.89a21.48,21.48,0,0,1-2.94-2Z"/><path class="cls-4" d="M167.05,126.5a76.11,76.11,0,0,0,12.54.51,33.11,33.11,0,0,0,17-5.52c5.4-3.77,8.85-10.74,16.34-10.23a7.79,7.79,0,0,1,7,8.85c-.34,2.69-1.78,4.56-4.38,4.38-3.31-.25-3.94-5-3.94-5-4.88,6.3-10.67,11.56-17.45,13.08a41,41,0,0,1-19-.31c-6.41-1.63-12.78-4.07-17.93-8.19,0,0-.81-.92,1.53.22A25.3,25.3,0,0,0,167.05,126.5Z"/><path class="cls-5" d="M200,122.12c4.06-3,7.65-9.39,12.71-9.46a6.28,6.28,0,0,1,5.05,2.62c.76,1.28,1.37,3.56.6,5-1.61,3-5.89.67-4.87-2.26-.39,1,.91,1.85,1.56,1,1.1-1.41-1-3-2.16-3.11-2-.16-4.07,2-5.18,3.36-1.91,2.41-3.21,4-5,5.93-3.48,3.78-9.16,5.32-14.22,6.21-7,1.25-15.62-1.07-22.24-3.41-2.12-.75-3.41.81-4.15-1.32C175.91,128.34,187.7,131.26,200,122.12Z"/><path class="cls-3" d="M192.56,133.33c3.48-1.09,6.85-2.91,10.5-2.85a9.44,9.44,0,0,1,8.65,5.86,8.42,8.42,0,0,1-3.2,9.51,6.22,6.22,0,0,1-8.73-1.66,6.7,6.7,0,0,1-1.9,1.29c-16.71,6.78-33.6-3-45.49-18.83-2.19-2.93-3-4.74-1.81-6.15s6.32,2.11,8.65,4.15a42.91,42.91,0,0,0,10.44,6.56C176.8,134.43,185,135.7,192.56,133.33Z"/><path d="M186.9,149.14c-12.41,0-25.15-7.54-35.7-21.59-1.5-2-4-5.33-1.78-8a2.43,2.43,0,0,1,1.74-.86c3.19-.24,9,4.79,9.06,4.84a41.05,41.05,0,0,0,10.07,6.32c7.49,3.39,15.24,4.12,21.82,2h0c.94-.29,1.85-.63,2.83-1a22.26,22.26,0,0,1,8.14-1.91,10.91,10.91,0,0,1,10,6.84,9.84,9.84,0,0,1-3.72,11.23,7.91,7.91,0,0,1-6,1.27,7.42,7.42,0,0,1-3.86-2,7.15,7.15,0,0,1-1.1.58A30.42,30.42,0,0,1,186.9,149.14Zm-35.3-27.47c-.19.5.05,1.49,2,4.08,13,17.31,29.36,24.17,43.72,18.34a5.43,5.43,0,0,0,1.45-1l1.33-1.25,1,1.55a4.31,4.31,0,0,0,2.9,2,4.86,4.86,0,0,0,3.65-.73,6.87,6.87,0,0,0,2.69-7.79A8,8,0,0,0,203,132a19.57,19.57,0,0,0-7,1.72c-1,.36-2,.74-3,1.06h0c-7.29,2.28-15.8,1.51-24-2.18a44.76,44.76,0,0,1-10.81-6.8C155.75,123.6,152.69,121.82,151.6,121.67Z"/><path class="cls-4" d="M193.73,135.87c2.88-1,5.51-2.51,8.59-2.68,2.81-.16,5.52.83,6.72,3.35s.33,4.78-2,6.37c-2.1,1.43-5.35.17-6.88-2.79a16.51,16.51,0,0,1-8.84,4.46c-10.74,1.95-20.9-3.28-28.44-10.52q-1.16-1.11-2.25-2.31c-1.87-2.05-1.83-2.16-.75-3s2.92,1.61,4.83,3c6.05,4.38,17,6.91,24.35,5.59A40.28,40.28,0,0,0,193.73,135.87Z"/><path class="cls-5" d="M176.17,138.17a26.48,26.48,0,0,0,14.33.52c3.85-1.05,7.39-3.49,11.41-3.36a6.12,6.12,0,0,1,4.33,1.74,3.43,3.43,0,0,1,.4,4.3,2.62,2.62,0,0,1-4.06-.1c.33.1.62.34,1.11-.05,1.17-1-.13-3.08-1.69-3.25a8.12,8.12,0,0,0-4.8,1.54c-6.88,4.66-13.58,4.05-20.43,1.74a43.63,43.63,0,0,1-9.8-5.14,40.43,40.43,0,0,1-4.69-3.31c-.18-.16-1.51-1.44-.58-1.13a44.55,44.55,0,0,1,6.82,3.37A40.92,40.92,0,0,0,176.17,138.17Z"/><path class="cls-5" d="M161.31,137.73l-.16-.07s7.48-18.79-10.27-24.85c-5.18-1.77-5.08-1.33-10.19-2.7-4.64-1.25-12.24-3.91-15.11-8,0,0-9-12.9-23.41-4.23,0,0-16.4,4.23-12.16,21.37,0,0,8.85,33.36,41.65,35.39A65.38,65.38,0,0,0,144,153.7l0,0A38.53,38.53,0,0,0,161.31,137.73Z"/><path class="cls-6" d="M185.47,148.35l-24.16-10.62a38.53,38.53,0,0,1-17.26,16l21.31,20a1.7,1.7,0,0,0,2.86-1.21l1.24-15.16a2.75,2.75,0,0,1,2.11-2.46c3.22-.77,9.7-1.46,13.72-3.24C186.4,151.18,187.5,149.64,185.47,148.35Z"/><path class="cls-7" d="M161.77,164.31a1,1,0,0,1-.72-.31L147.4,149.78a1,1,0,0,1,0-1.42,1,1,0,0,1,1.41,0l13.65,14.23a1,1,0,0,1,0,1.41A1,1,0,0,1,161.77,164.31Z"/><path class="cls-7" d="M166.89,155.25a.94.94,0,0,1-.53-.16l-14.87-9.26a1,1,0,1,1,1.06-1.7l14.87,9.27a1,1,0,0,1,.32,1.38A1,1,0,0,1,166.89,155.25Z"/><path class="cls-7" d="M176.12,150.57a.91.91,0,0,1-.39-.08l-20-8.28a1,1,0,0,1,.77-1.85l20,8.29a1,1,0,0,1-.38,1.92Z"/><path class="cls-4" d="M106.88,61.92c4.91.29,8.89-6.23,5.73-10.36a2.22,2.22,0,0,1-.07-2.8c1-1.12,2.51-.16,3.7.5,3.77,2.08,8.89.52,11.49-2.92s2.88-8.25,1.48-12.32c-1.88-.6-2.74,2.26-4.17,3.62a4.33,4.33,0,0,1-4.9.4,9.9,9.9,0,0,1-3.59-3.73c-2.06-3.31-3.58-7.17-6.75-9.44S102.53,22.41,98.73,23c-4.07.63-8.14,2.18-11,5.14-3.06,3.16-4.5,8.11-2.54,12.13a4.94,4.94,0,0,1,.57,2c0,2.75-3,3-5.28,3.66a9.61,9.61,0,0,0-6.58,11s1.09,6.65,6,8.93c-1.12-.52-6.22,3.83-9.3,6.61,1.19,8,3.82,15.8,12.56,17.55,4.16.83,0,6.52-5,7.24.14.19.25.39.37.59-3.08,1.64-7,6-8.92,8.27-1,1.16-1.74,2.86-.94,4.16a2.87,2.87,0,0,0,2.77,1.14,7.26,7.26,0,0,0,2.92-1.34c-2,2.51-4.09,5.27-4.55,8.43s1.33,6.9,4.5,7.36c2.6.38,5.08-1.6,6.16-4s1.07-5.12,1-7.75l-.09-9.84c0-.16,0-.33,0-.5A50.18,50.18,0,0,1,83.25,109c.86,3,1.43,6.17,2.17,9.24a14.1,14.1,0,0,1,1.8-4.29c2.92-4.61,8-5.94,11.85-9.41a39,39,0,0,0,5.27-5.4.43.43,0,0,1,.77.34c-1.13,6-6.74,9.2-10.19,13.69a19.25,19.25,0,0,0-1,22.2,40.5,40.5,0,0,0,10.77,9A37.11,37.11,0,0,1,99,138.68l-.06-.1c-10.17-19.09,5.71-25.9,5.71-25.9,13.32-6.21,15.76-15,16.2-18.22a.66.66,0,0,1,1.12-.37c3.26,3.31,4.15,8,4.39,10.62a12.75,12.75,0,0,0,1.34-3.53c.78-3.7-.26-7.52-1.43-11.11C122.66,79,117,67.7,106.88,61.92Z"/><path class="cls-8" d="M120.87,94.46c-.44,3.27-2.88,12-16.2,18.22,0,0-15.88,6.81-5.71,25.9l.06.1a37.11,37.11,0,0,0,5.63,5.66,37.69,37.69,0,0,0,6.09,2.8A35.63,35.63,0,0,1,103,136.22c-1.32-2.92-2.24-6.21-1.47-9.32a13.15,13.15,0,0,1,4.26-6.39c3.74-3.32,8.42-5.36,12.64-8a22.91,22.91,0,0,0,7.92-7.76c-.24-2.66-1.13-7.31-4.39-10.62A.66.66,0,0,0,120.87,94.46Z"/><path class="cls-8" d="M94.92,113.14c3.45-4.49,9.06-7.69,10.19-13.69a.43.43,0,0,0-.77-.34,39,39,0,0,1-5.27,5.4c-3.88,3.47-8.93,4.8-11.85,9.41a14.1,14.1,0,0,0-1.8,4.29c.32,1.32.67,2.64,1.08,3.94a39.29,39.29,0,0,0,7.38,13.19A19.25,19.25,0,0,1,94.92,113.14Z"/><ellipse class="cls-9" cx="83.31" cy="77.98" rx="1.85" ry="2.33"/><path class="cls-8" d="M84.07,64.26a17.33,17.33,0,0,1-2.67-2.13c-2.83-3.3-2.58-9.72,1-12.41,2-1.5,7.85-1.71,8.18-5a11.74,11.74,0,0,0-.25-3.64.53.53,0,0,1,.77-.6,4.47,4.47,0,0,1,1.71,1.47c2.23,3.47-.56,7.17-3.56,9.06-4,2.55-6.06,5.1-3.71,10a17,17,0,0,0,2.31,3.3.55.55,0,0,1-.31.93A5.3,5.3,0,0,1,84.07,64.26Z"/><path class="cls-10" d="M83.12,90c-8.74-1.75-11.37-9.6-12.56-17.55-1,.94-1.87,1.71-2.22,2A41.78,41.78,0,0,0,63.46,80a40.64,40.64,0,0,0-6.29,12.61,1.54,1.54,0,0,0,1.34,2l15.08,1.19c.79-.15,3.86-.87,5.32-3.5a1,1,0,0,1,1.75,1,8.48,8.48,0,0,1-3.25,3.22,3,3,0,0,1,.73.74C83.12,96.52,87.28,90.83,83.12,90Z"/><path d="M80.66,93.28a1,1,0,0,0-1.75-1c-1.46,2.63-4.53,3.35-5.32,3.5l1.63.13a4.59,4.59,0,0,1,2.17.54l0,0A8.48,8.48,0,0,0,80.66,93.28Z"/><path d="M109.47,147.38a1,1,0,0,1-.73-.31,44,44,0,0,1-6.41-9.29c-2.36-4.57-2.82-8.85-1.38-12.68,2.43-6.46,9.37-9.26,9.66-9.37,13.5-5.32,15.91-15.3,15.93-15.4a1,1,0,1,1,2,.43c-.09.45-2.6,11.1-17.15,16.83-.06,0-6.41,2.6-8.52,8.23-1.23,3.28-.79,7,1.29,11.06a43.14,43.14,0,0,0,6.09,8.81,1,1,0,0,1,0,1.42A1,1,0,0,1,109.47,147.38Z"/><path d="M166.51,175.71a3.14,3.14,0,0,1-2.18-.88l-20.76-19.48c-11,2.56-22.19-.76-22.67-.91-5.79-1.58-9.46-4.07-13.28-6.94a38.9,38.9,0,0,1-3.71-1.86,41.42,41.42,0,0,1-11.17-9.34,40.43,40.43,0,0,1-7.67-13.69c-.37-1.18-.73-2.46-1.11-4-.26-1.12-.51-2.25-.76-3.37-.07-.31-.13-.61-.2-.92,0,2.6,0,5.51-1.18,8.19s-4.31,5.37-7.75,4.87a6.24,6.24,0,0,1-4.16-2.58,8.91,8.91,0,0,1-1.61-6.48,14.06,14.06,0,0,1,2.13-5.38A4.12,4.12,0,0,1,67.37,111c-1-1.64-.61-3.91,1.07-5.91a50.72,50.72,0,0,1,7.69-7.56,6.56,6.56,0,0,0-1-.14L58.39,96.11a3,3,0,0,1-2.66-3.88,42.42,42.42,0,0,1,6.52-13.08,43.47,43.47,0,0,1,5.06-5.75c.35-.33,1.18-1.11,2.24-2.07a63.51,63.51,0,0,1,7.18-5.82,16.05,16.05,0,0,1-4.32-8.36A11.16,11.16,0,0,1,80.06,44.5c.34-.1.71-.19,1.08-.28,2.5-.62,3.11-1,3.11-1.93a3.48,3.48,0,0,0-.42-1.36c-2.09-4.29-.93-10,2.81-13.84,2.8-2.88,6.9-4.81,11.87-5.57s9.15,0,12.17,2.13c2.64,1.9,4.19,4.67,5.69,7.35.49.88.95,1.71,1.45,2.51a8.63,8.63,0,0,0,3,3.2,2.93,2.93,0,0,0,3.17-.15,8.92,8.92,0,0,0,1-1.36c.9-1.34,2.28-3.36,4.62-2.61a1.48,1.48,0,0,1,1,.94c1.67,4.86,1,10.11-1.7,13.72-3.16,4.17-9.17,5.66-13.41,3.32l-.24-.13a4.9,4.9,0,0,0-1.63-.69.84.84,0,0,0,.15.9,7.54,7.54,0,0,1,.42,8.23,8.81,8.81,0,0,1-3.61,3.67c7.3,5.36,12.92,14.25,17.1,27.06,1.1,3.34,2.19,7.19,1.62,11.06,1.73,1.61,8.26,6.94,22.81,11.37.17.06,15.57,5.08,11.54,21.22-.28,1.09-.59,2.52-.81,3.52L186.08,147l.2.1a3.34,3.34,0,0,1,1.82,3.09,3.62,3.62,0,0,1-2.2,2.87c-3,1.32-7.12,2.05-10.45,2.64-1.4.25-2.61.47-3.54.69a1.25,1.25,0,0,0-1,1.12l-1.23,15.16a3.13,3.13,0,0,1-2,2.8A3.26,3.26,0,0,1,166.51,175.71ZM144,152.2a1.48,1.48,0,0,1,1,.41l0,0,21.3,20a.19.19,0,0,0,.22,0,.17.17,0,0,0,.12-.18L168,157.24a4.26,4.26,0,0,1,3.26-3.79c1-.24,2.26-.46,3.71-.72,3.16-.56,7.1-1.26,9.75-2.43a.92.92,0,0,0,.43-.38c0,.05-.11-.08-.36-.25L160.55,139a1.51,1.51,0,0,1-.87-1.69c0-.11.61-2.91,1.09-4.81,3.34-13.38-9-17.46-9.52-17.63-18.19-5.55-24.4-12.45-24.66-12.74a1.5,1.5,0,0,1-.34-1.3c.72-3.42-.34-7.12-1.39-10.33-4.5-13.76-10.62-22.69-18.72-27.32a1.5,1.5,0,0,1,.83-2.8,5.08,5.08,0,0,0,4.6-3,4.55,4.55,0,0,0-.15-5,3.68,3.68,0,0,1,0-4.69c1.72-2,4.07-.66,5.33,0L117,48c2.94,1.61,7.32.47,9.57-2.51A11.59,11.59,0,0,0,128.21,36a10.52,10.52,0,0,0-.67.93,11.76,11.76,0,0,1-1.46,1.85,5.84,5.84,0,0,1-6.63.64,11.31,11.31,0,0,1-4.17-4.27c-.54-.86-1-1.77-1.53-2.64-1.4-2.5-2.72-4.87-4.82-6.37-3-2.14-7.07-2.05-10-1.61s-7.21,1.66-10.16,4.7S85,36.44,86.52,39.61a6.18,6.18,0,0,1,.73,2.66c0,3.53-3.24,4.33-5.39,4.86l-1,.26a8.11,8.11,0,0,0-5.52,9.24c0,.1,1,5.93,5.12,7.85h0a1.5,1.5,0,0,1-.88,2.84c-.72.24-3.1,1.78-8,6.24-1,.94-1.85,1.69-2.19,2a40.81,40.81,0,0,0-4.7,5.35,39.49,39.49,0,0,0-6.06,12.14l16.73,1.37a5.81,5.81,0,0,1,2.87.79l.11.08a4.51,4.51,0,0,1,1,1,8,8,0,0,1,.43.69A1.52,1.52,0,0,1,80,98.23a1.5,1.5,0,0,1-.73.92c-3.07,1.63-7.27,6.47-8.48,7.91-.66.79-1.15,1.86-.82,2.41a1.42,1.42,0,0,0,1.32.44,6.31,6.31,0,0,0,2.28-1.1,1.49,1.49,0,0,1,2,2.18c-2.08,2.63-3.84,5-4.24,7.72a6,6,0,0,0,1,4.25,3.39,3.39,0,0,0,2.18,1.41c1.94.28,3.8-1.41,4.58-3.14,1-2.14.94-4.78.92-7.12l-.09-9.83c0-.2,0-.41,0-.62a1.49,1.49,0,0,1,1.25-1.38,1.51,1.51,0,0,1,1.64.91,52.11,52.11,0,0,1,1.87,5.37c.56,2,1,4,1.44,6,.24,1.11.49,2.22.75,3.32.36,1.51.7,2.73,1.05,3.83A37.29,37.29,0,0,0,95,134.37,38.72,38.72,0,0,0,105.4,143a35.1,35.1,0,0,0,3.58,1.78,1.49,1.49,0,0,1,.3.18c3.62,2.72,7.06,5.09,12.45,6.56.15,0,11.44,3.39,21.9.68A1.64,1.64,0,0,1,144,152.2Z"/><path class="cls-11" d="M162.26,111.28c2.65-1.85,6.56-6.34,6.14-9.55-.93-7-10.55-1.4-12.79-.18-5,2.73-9.67,5.25-15.22,6.22-.94.17-1.14,2.49-2,2.88-2.16,1-2.7,3.72-.79,5s5.5,1.08,7.63,1.08A30.13,30.13,0,0,0,162.26,111.28Z"/><path class="cls-12" d="M160.57,109.62c1.91-1.36,4.57-4.53,4.23-6.7-.61-3.8-6.6,1.11-8.22,2a43.34,43.34,0,0,1-11.8,4.68,9.56,9.56,0,0,0-2.05.56c-1.58.74-1.88,2.61-.41,3.39s4.14.5,5.73.41A24.2,24.2,0,0,0,160.57,109.62Z"/><path class="cls-11" d="M165,94c4-5,8.11-14.63,2-15.43-3.66-.47-6.12,3.45-7.84,6.34a38.92,38.92,0,0,1-8.51,10.37c-2.71,2.27-4.51,3.27-2.22,6.66C151.78,106.88,161.62,98.26,165,94Z"/><path class="cls-12" d="M163,92.54c2.61-3.29,5.75-9,1.81-10.08-1.63-.46-3.33,2.36-4.47,4.28-1.57,2.64-3.68,5.92-6,7.89-1.8,1.5-4.64,2.28-3.12,4.52C153.44,102.46,160.75,95.39,163,92.54Z"/><path class="cls-11" d="M157.79,83.93a27.06,27.06,0,0,0,1.39-14.46c-.67-4.44-2.38-9-6.05-11.19a3.8,3.8,0,0,0-3.66-.4A3.74,3.74,0,0,0,147.83,60c-.9,2.64.25,5.36.84,8,1.11,5-.85,10.32-1.93,15.47-.53,2.51-1.25,10.52,3.36,9.15C153.47,91.64,156.48,87.07,157.79,83.93Z"/><path class="cls-12" d="M155.18,81.5c1.81-5.18,2.4-10.68.87-15.8-.47-1.58-1.61-4.56-3.6-3.63-2.64,1.23-1,5.52-1,7.6a39.48,39.48,0,0,1-1.82,11c-.49,1.73-2,8.71,1,8C152.94,88.13,154.4,83.74,155.18,81.5Z"/><path class="cls-11" d="M145.91,66.79a17.22,17.22,0,0,0-11.6-10.28c-2.23-.54-5.25-.13-6.07,2.2-.29.86.32,1.78,0,2.65-.84,2.79,2.63,4.28,4.22,6.22a29.83,29.83,0,0,1,5,8.81c1.11,3.09.78,7.79,2.45,10.46,3.77,6,6.77-4.71,7.19-7.47A23.64,23.64,0,0,0,145.91,66.79Z"/><path class="cls-12" d="M143,67.76c-2.15-4.07-4.36-6.43-7.67-7.16-1.46-.32-3.37.6-3.23,2.39.18,2.32,2.85,3.88,4.09,5.45a22.36,22.36,0,0,1,3.4,6.24c.8,2.24-.31,6,.83,7.93,2.59,4.29,4.14-3.69,4.31-5.74A16.65,16.65,0,0,0,143,67.76Z"/><path class="cls-13" d="M138.72,72.34c-.13.06-.25.13-.37.2,2,.07,5.64.3,5.15,4.7,0,0,6.54-.07,7.57,6.21,0,0,1,7.46-4.07,11,0,0,5,1.22,4.89,8.5,0,0-.19,10.67-10,13.8,12.7-1.79,12.91-14.45,12.91-14.45.14-7.27-4.88-8.5-4.88-8.5,5-3.49,4.06-11,4.06-11-1-6.28-8.05-6.9-8.05-6.9C144.44,70.61,140.65,71.48,138.72,72.34Z"/><path class="cls-14" d="M135.82,76.63c1.51-.42,2.94-.1,3,3.13,0,0,7.28-.64,8.52,5.71,0,0,1.26,7-3.65,10.45,0,0,5.07.94,5.21,7.77,0,0,.22,9.67-9,13.19.67,0,1.3-.09,1.91-.17,9.86-3.13,10-13.8,10-13.8.13-7.28-4.89-8.5-4.89-8.5,5-3.5,4.07-11,4.07-11-1-6.28-7.57-6.21-7.57-6.21.52-5.11-3.2-4.63-5.15-4.7A4.92,4.92,0,0,0,135.82,76.63Z"/><path class="cls-14" d="M146.1,104.42a8.35,8.35,0,0,0-2.48-6.29,3.18,3.18,0,0,1-.4-4,12.87,12.87,0,0,0,1.31-7.91c-.74-3.43-2.92-4.37-4.6-4.57a2.73,2.73,0,0,1-2.3-1.87A2.51,2.51,0,0,0,135.85,78v0c.76,17.07-4.57,24.93-8.53,28.39-1.66,1.45-1.32,3.74.17,5.2a16.49,16.49,0,0,0,9.81,5,3.32,3.32,0,0,0,2.44-.4C146.26,112.1,146.1,104.42,146.1,104.42Z"/><path class="cls-15" d="M148.94,103.69c-.14-6.83-5.21-7.77-5.21-7.77,4.91-3.49,3.65-10.45,3.65-10.45-1.24-6.35-8.52-5.71-8.52-5.71-.1-3.23-1.53-3.55-3-3.13a6.52,6.52,0,0,0,0,1.41c1.2.36,2.13,1.3,1.94,3.69a5.42,5.42,0,0,1,6.74,4.47s1.27,7-3.65,10.45c0,0,5.07.94,5.22,7.77,0,0,.18,8.52-7.43,12.48.42,0,.86,0,1.26,0C149.16,113.36,148.94,103.69,148.94,103.69Z"/><path d="M140.46,119.06c-4.17,0-11.14-1-13.93-7.06-.09-.17-2.63-5.39.88-9.15.65-1,6-9.64,6.4-19.9-.11-1.31-.46-6.49.64-9.45a48.51,48.51,0,0,0-6-7.06c-.13-.11-3.71-3.63-1.79-7.76h0c1.06-2.28,3.31-4.75,8-3.63a18.4,18.4,0,0,1,11.74,9.29,8.69,8.69,0,0,1,0-4.8,5.21,5.21,0,0,1,2.36-3,6.29,6.29,0,0,1,5.66.38c3.63,2.13,5.91,6.08,6.77,11.72a30.24,30.24,0,0,1-.36,10.73c2.31-2.33,4.62-3.12,6.74-2.23a6,6,0,0,1,3.7,4.19c1.1,4.36-2,10.19-5.24,14.2a16.48,16.48,0,0,1-1.18,1.27,5.57,5.57,0,0,1,2.49.59,4.77,4.77,0,0,1,2.5,3.59c.65,3.86-2.4,9.21-5.62,11.49-.9.81-8.36,7.08-20.62,6.38A26.27,26.27,0,0,1,140.46,119.06ZM129.41,59.94c-1,2.18,1.09,4.29,1.18,4.38,5.4,5.5,6.83,8.29,6.89,8.41a1.48,1.48,0,0,1,0,1.43c-.83,1.42-.87,5.9-.63,8.62a1,1,0,0,1,0,.18c-.39,11.79-6.71,21.27-7,21.67a1.57,1.57,0,0,1-.17.21c-2.17,2.22-.5,5.73-.42,5.87,3.08,6.74,14,5.18,14.07,5.17a1.77,1.77,0,0,1,.32,0,26.72,26.72,0,0,0,18.64-5.65l.16-.13c2.59-1.79,4.87-6.22,4.44-8.61,0,0,0-.1,0-.14a1.81,1.81,0,0,0-.91-1.27c-.67-.32-2.8-.75-8,2.36a1.5,1.5,0,0,1-1.63-2.52s5.4-3.78,7.4-6.25c3.41-4.19,5.32-9,4.66-11.57a3,3,0,0,0-1.94-2.15c-1.5-.63-4,1.5-6.33,5.43a.71.71,0,0,1-.1.14c-.55.73-5.47,7.18-7.89,8.74a1.5,1.5,0,0,1-1.9-2.3c.05,0,4.4-4.61,6.23-8.64a26.59,26.59,0,0,0,1.79-14.19c-.72-4.71-2.51-7.93-5.32-9.59a3.46,3.46,0,0,0-2.72-.32,2.26,2.26,0,0,0-.93,1.3c-.42,1.24-.08,2.59.31,4.16a17,17,0,0,1,.61,3.28c.34,6.15-.87,8.14-1.25,8.61a1.52,1.52,0,0,1-1.7.45,1.51,1.51,0,0,1-1-1.47,18.07,18.07,0,0,0-1.74-8.17A15.65,15.65,0,0,0,134,58c-2.29-.54-3.65,0-4.55,2Z"/></svg>