<?xml version="1.0" encoding="utf-8"?>
<!-- Generator: Adobe Illustrator 26.5.0, SVG Export Plug-In . SVG Version: 6.00 Build 0)  -->
<svg version="1.1" id="레이어_5" xmlns="http://www.w3.org/2000/svg" xmlns:xlink="http://www.w3.org/1999/xlink" x="0px"
	 y="0px" viewBox="0 0 164 226" style="enable-background:new 0 0 164 226;" xml:space="preserve">
<g>
	<path style="opacity:0.2;fill:#DAFF40;" d="M19.1,201.4c15,13.3,34.3,21.9,54.3,24c20,2.2,40.6-2,58.2-11.8
		c7.5-4.2,15.3-11,14.5-19.6c-0.6-5.7-4.8-10.4-5.6-16.1c-0.5-3.7,0.5-7.4,1.5-10.9c2.2-7.8,4.5-15.8,4.8-23.9
		c0.3-8.1-1.6-16.7-6.9-22.9c-1.9-2.3-4.3-4.3-5-7.2c-1-4.1,1.9-8,4.2-11.6c5.5-8.5,8.4-19.2,5.2-28.7s-14-16.7-23.6-13.7
		c-0.8,0.3-1.6,0.6-2.4,0.4c-1.6-0.3-2.3-2-2.8-3.6c-3.8-11.3-8.9-22.2-15.2-32.4c-1-1.7-2.1-3.4-3.8-4.3
		c-5.9-3.4-12.3,4.2-19.1,4.7c-4,0.3-7.9-1.9-11.9-1.6C59.1,23,55.4,29.3,53.1,35c-2.3,5.8-4.6,12.3-10.3,14.8
		c-1.5,0.7-3.2,1-4.8,1.6c-1.8,0.7-3.4,1.6-4.9,2.8c-5.2,4.2-7.8,11-8.4,17.7s0.6,13.4,1.7,20c1.4,8,2.8,15.9,4.2,23.9
		c-1.3,3-4.3,5.7-7.3,7c-2.9,1.2-6.6,1.6-8,4.4c-0.8,1.5-0.6,3.3-0.4,5c1.5,11.6,4.1,23.2,7.7,34.3c-9,1-15.3,11.9-11.7,20.2
		C12.8,191.5,17.8,196.4,19.1,201.4z"/>
	<path style="fill:#DAFF40;" d="M0,162c0.3,16.1,7.8,31.9,20.1,42.3c-4.4-7.8-7-16.7-7.6-25.6c2.1,0.4,4.2,0.7,6.2,1.1
		c-0.8-3.5-1.1-7.1-1.1-10.6c3.8-0.1,7.6,0.6,11.2,1.9c-4.7-14.4-7.6-29.4-8.5-44.5c2.1-0.8,3.6-2.5,5.4-3.7c1.8-1.2,4.4-2,6.1-0.6
		c3.1-7.7,0.4-16.3-1.3-24.4c-2.1-10-2.7-20.3-1.7-30.5c0.2-1.7,0.4-3.6,1.5-4.9c1.1-1.3,3.3-1.9,4.6-0.7c0.8-2.9,1.7-5.7,2.5-8.6
		c3.3,1.6,7.3-0.2,9.7-3c2.3-2.8,3.5-6.4,5.2-9.6c2.3-4.4,5.8-8.2,9.9-11c1.6-1.1,3.4-2,5.3-1.9c2.6,0.1,4.8,2.1,7.3,2.5
		c5.5,0.9,9.6-5.6,15.1-6c4.9-0.3,8.6,4.1,11.2,8.2c5.3,8.3,9.7,17.2,13.1,26.4c1.2,3.4,3.3,7.6,6.9,7.4c2.4-0.1,4.4-2.3,6.8-2.4
		c3.8-0.1,5.5,4.6,6.1,8.4c2-0.1,5,0,6.2,1.6c0.8,1.1,0.8,2.6,0.7,4c-0.1,3-0.3,6-0.8,8.9c-2,11.4-9.7,21.5-10.3,33.1
		c1.9-0.1,4.1-0.2,5.5,1.1c0.9,0.7,1.3,1.8,1.7,2.9c7,18.3,6.4,39.3-1.6,57.2c2-0.1,3.6,1.3,4.2,3.2c0.6,1.9,0.3,3.9,0,5.9
		c0.9-0.5,2,0.1,2.4,1c0.4,0.9,0.3,1.9,0.2,2.9c-0.7,6.2-1.4,12.5-2.1,18.7c4.8-5.6,9.5-11.3,14.1-17.1c4.4-5.5,8.8-11.4,9.7-18.4
		c-3.5,2-7,4-10.4,5.9c-0.6,0.4-1.3,0.7-2.1,0.8c-2,0.1-3.2-2.3-3-4.3c0.2-2,1.1-3.9,1.2-5.9c-2.1,0.8-4.1,1.9-5.9,3.2
		c0.1-3,1-6,2.4-8.6c-0.8,0-1.5,0-2.3,0c5.1-15.7,8.1-32,8.9-48.4c-1.4,1.8-3.2,3.3-5.2,4.6c-0.7-3.8-1.1-7.6-1.1-11.5
		c-2.2-0.3-4.4,0.3-6.1,1.7c-0.1-1.9-0.3-3.8-0.4-5.6c-1.7,0.4-3.2,1.3-4.3,2.7c1.5-3.5,3-6.9,4.8-10.3
		c7.1-13.3,11.7-27.9,13.6-42.9c-3.2,2-6.4,3.9-9.7,5.9c-0.5,0.3-1,0.6-1.6,0.5c-0.8-0.2-1.2-1.1-1.4-1.8c-1.2-3.9-2.4-7.8-3.6-11.8
		c-1.6,1.5-3.1,3-4.7,4.5c-0.7-2.3-1.3-4.6-2-6.9c-0.3-1-0.8-2.1-1.8-2.2c-0.7-0.1-1.3,0.5-1.9,1c-1.4,1.4-2.8,2.8-4.3,4.2
		c-9.9-11.6-16.4-26.2-19.2-41.2c-0.7-3.6-1.2-7.4-3.4-10.3c-2.6,4.7-5.2,9.4-7.8,14c-1.6-3.8-3.8-7.3-6.3-10.5
		c-2.8,5.1-5.6,10.2-8.4,15.3c-1.5-3.4-3.6-6.6-6.2-9.3c-2.4,5.2-5.6,9.9-9.6,14c-0.7-3.4-2.2-6.7-4.2-9.5c-5.2,11-9.8,22.2-14,33.6
		c-2.5-4-5-8-7.6-12c-2,4.7-3.9,9.5-5.9,14.2c-0.6-1.4-1.9-2.5-3.3-2.9c-1.6,3.1-2.7,6.5-3,9.9c-0.5-0.8-1.5-1.2-2.4-1.1
		c-3.7,19.5,5.6,39.2,5.4,59.1c-2.4-3.3-4.8-6.5-7.3-9.8c-0.1,4.4-0.2,8.8-0.3,13.2c-1.8-1.3-3.6-2.6-5.4-3.8
		c-0.9,1.9-1.3,4-1.2,6.1c-1.4-0.2-2.8,0.1-4,0.8c0.2,3.4,1.5,6.6,3.6,9.2c1,11.1,5.4,21.6,7.5,32.5c-4.4-2.7-8.8-5.4-13.1-8.1
		c0.4,4,1.2,8,2.5,11.8C6.6,164.7,3,164.1,0,162z"/>
</g>
<g>
	<g>
		<g>
			<path style="fill:#EBB53F;" d="M118.2,194.4c3.6,5.3,10.5,9.4,17.8,6.3c1.3-0.6,3.1-1.5,4-3c1.2-1.8,0.8-4.4-0.8-5.8
				c-1.3-1.2-2.9-1.5-4.8-1.8c-0.8-0.2-1.5-0.3-2.3-0.5c-6.9-2.1-8.7-8.5-10.3-14.9c-0.7-2.2-1.2-4.2-1.8-6
				c-1.7-4.2-4.4-7.9-7.8-10.9c-6.7-5.8-15.8-8.4-24.3-6.9h-0.1c-3.3,0.6-10.2,1.8-10.3,6.9c0,1.8,0.5,3.2,1.5,4.1
				c1.7,1.5,4.8,1.6,6.9,1.3c1.1-0.2,2.2-0.3,3.1-0.5c3.9-0.6,8-1.4,12,0.2c4.3,1.6,7.5,6.1,9.3,13
				C112.4,183.6,114.9,189.6,118.2,194.4L118.2,194.4z"/>
			<path d="M130.9,202.6c-5.6,0-10.5-3.5-13.4-7.8l0,0c-3.3-4.9-5.8-10.9-7.9-18.9c-1.8-6.7-4.8-11-8.8-12.5
				c-3.5-1.3-7.2-0.8-10.8-0.3l-0.8,0.2c-0.9,0.2-1.8,0.3-3.2,0.5c-1.5,0.3-5.3,0.6-7.5-1.4c-1.2-1.1-1.8-2.7-1.8-4.7
				c0.1-5.8,7.7-7.1,10.9-7.7h0.1h0.1c8.6-1.5,17.9,1.1,24.8,7.1c3.5,3,6.3,6.9,8,11.2c0.6,1.4,1,2.9,1.4,4.5l0.4,1.6
				c1.6,6.1,3.2,12.4,9.8,14.4l2.4,0.6c1.8,0.3,3.5,0.8,4.9,2c1.8,1.6,2.3,4.7,1,6.8c-1,1.6-2.8,2.6-4.3,3.3
				C134.5,202.3,132.6,202.6,130.9,202.6z M96,161.1c1.8,0,3.6,0.3,5.4,0.9c4.5,1.7,7.9,6.4,9.8,13.5c2,7.8,4.4,13.6,7.7,18.4l0,0
				c3.4,5.1,9.9,8.9,16.9,6.1c1.2-0.5,2.8-1.4,3.7-2.7c0.9-1.4,0.6-3.7-0.7-4.8c-1.1-1-2.6-1.3-4.3-1.7l-2.5-0.6
				c-7.4-2.2-9.3-9.3-10.9-15.4l-0.4-1.5c-0.4-1.6-0.8-3-1.4-4.4c-1.7-4-4.3-7.7-7.6-10.6c-6.5-5.7-15.4-8.2-23.6-6.7H88h-0.1
				c-2.8,0.5-9.4,1.6-9.5,6.2c0,1.5,0.4,2.8,1.3,3.5c1.8,1.6,5.3,1.2,6.3,1c1.3-0.2,2.2-0.3,3.1-0.5l0.9-0.2
				C91.9,161.4,93.9,161.1,96,161.1z"/>
		</g>
	</g>
	<path style="fill:#543924;" d="M121.9,192.2c1.3-0.7,2.3-3,2.2-4.9l0,0c-0.1-0.8-0.4-1.8-1.1-2c-0.5-0.2-1.3,0.1-1.9,0.7
		c-1.3,0.9-2.2,1.8-2.5,2.9c-0.4,1-0.2,2.4,0.8,3.1c0.8,0.4,1.4,0.7,1.9,0.5C121.4,192.5,121.7,192.4,121.9,192.2z"/>
	<path style="fill:#543924;" d="M122.7,178.8c-0.8,1.1-2.8,3.2-4.1,1.6c-0.5-0.8-0.3-1.8-0.2-2.6c0.2-1,0.4-1.8,0.7-2.7
		c0.3-1.5,0.9-2.8,1.5-4.3"/>
	<path style="fill:#543924;" d="M109.2,172.4c0.7-1.1,2.7-3.2,4-1.7c0.6,0.7,0.4,1.8,0.3,2.5c-0.1,0.8-0.3,1.8-0.6,2.7
		c-0.3,1.4-0.8,2.9-1.3,4.3"/>
	<g>
		<path d="M130.9,202.6c-5.6,0-10.5-3.5-13.4-7.8l0,0c-3.3-4.9-5.8-10.9-7.9-18.9c-1.8-6.7-4.8-11-8.8-12.5
			c-3.5-1.3-7.2-0.8-10.8-0.3l-0.8,0.2c-0.9,0.2-1.8,0.3-3.2,0.5c-1.5,0.3-5.3,0.6-7.5-1.4c-1.2-1.1-1.8-2.7-1.8-4.7
			c0.1-5.8,7.7-7.1,10.9-7.7h0.1h0.1c8.6-1.5,17.9,1.1,24.8,7.1c3.5,3,6.3,6.9,8,11.2c0.6,1.4,1,2.9,1.4,4.5l0.4,1.6
			c1.6,6.1,3.2,12.4,9.8,14.4l2.4,0.6c1.8,0.3,3.5,0.8,4.9,2c1.8,1.6,2.3,4.7,1,6.8c-1,1.6-2.8,2.6-4.3,3.3
			C134.5,202.3,132.6,202.6,130.9,202.6z M96,161.1c1.8,0,3.6,0.3,5.4,0.9c4.5,1.7,7.9,6.4,9.8,13.5c2,7.8,4.4,13.6,7.7,18.4l0,0
			c3.4,5.1,9.9,8.9,16.9,6.1c1.2-0.5,2.8-1.4,3.7-2.7c0.9-1.4,0.6-3.7-0.7-4.8c-1.1-1-2.6-1.3-4.3-1.7l-2.5-0.6
			c-7.4-2.2-9.3-9.3-10.9-15.4l-0.4-1.5c-0.4-1.6-0.8-3-1.4-4.4c-1.7-4-4.3-7.7-7.6-10.6c-6.5-5.7-15.4-8.2-23.6-6.7H88h-0.1
			c-2.8,0.5-9.4,1.6-9.5,6.2c0,1.5,0.4,2.8,1.3,3.5c1.8,1.6,5.3,1.2,6.3,1c1.3-0.2,2.2-0.3,3.1-0.5l0.9-0.2
			C91.9,161.4,93.9,161.1,96,161.1z"/>
	</g>
</g>
<g>
	<g>
		<path style="fill:#F0B109;" d="M55.2,170.5c-0.1,0.6-0.2,2.7-0.1,9.1c0,0.4,0,0.7,0,0.8c0,4,0.2,7.3,0.6,10.4
			c0.5,4.3,1.3,8.5,2.1,12c0.2,0.8,0.4,1.7,0.6,2.5c0.3,1.6,0.7,3.3,1.1,4.9c0.4,1.5,1.3,2.8,2.6,3.5c1.5,0.8,3.3,0.9,5.1,0.3
			c2.8-0.9,2.7-3.7,2.6-6.1l-0.7-37C65.4,169.9,59.9,169.8,55.2,170.5z"/>
		<path style="fill:#583820;" d="M55.1,179c1.3-0.1,3.8-0.1,5.1,0.1c1.5,0.2,2.9,0.7,3.8,1.6c0.5,0.4,0.7,0.8,0.7,1.2
			c-0.1,0.7-0.8,1-1,1.1c-0.5,0.2-1.1,0.4-1.5,0.6c-0.5,0.2-1.1,0.4-1.5,0.6c-0.8,0.4-1.8,1.1-2.2,2c-0.1,0.2-0.2,0.4-0.2,0.7
			c-0.1,0.4-0.2,0.8-0.5,1.2c-0.5,0.7-1.4,1-2.2,1.2L55.1,179z"/>
		<path style="fill:#583820;" d="M69.6,200.5L69.6,200.5c0-0.8-1-1.3-1.5-1.5c-0.5-0.2-1-0.3-1.5-0.5s-1-0.2-1.5-0.4
			c-1.2-0.4-2.1-1-2.6-1.7c-0.3-0.4-0.4-0.7-0.4-1.1c0-0.5,0.3-1.1,0.9-1.4c0.5-0.2,1-0.4,1.5-0.5c1.8-0.2,3.6-0.2,5.4-0.2
			L69.6,200.5z"/>
		<path d="M65,215.3c-1.1,0-2.2-0.2-3.2-0.8c-1.5-0.8-2.5-2.2-3-3.9c-0.4-1.6-0.8-3.3-1.1-5c-0.2-0.9-0.4-1.7-0.6-2.5
			c-0.8-3.5-1.7-7.7-2.1-12.1c-0.3-3.2-0.5-6.5-0.6-10.5v-0.8c-0.1-5.4-0.1-8.4,0.1-9.3l0.1-0.5l0.5-0.1c4.8-0.8,10.3-0.6,14.3,0.5
			l0.5,0.2l0.7,37.6c0.1,2.4,0.2,5.8-3.2,6.8C66.6,215.2,65.8,215.3,65,215.3z M55.9,171.2c-0.1,0.9-0.1,3.1,0,8.5v0.8
			c0,4,0.2,7.3,0.5,10.4c0.5,4.2,1.3,8.4,2.1,11.9c0.2,0.8,0.4,1.7,0.6,2.5c0.3,1.6,0.7,3.3,1.1,4.9c0.3,1.4,1.1,2.4,2.3,3
			c1.2,0.7,2.9,0.8,4.6,0.2c2.1-0.7,2.2-2.6,2.1-5.4l-0.7-36.5C65,170.8,60.1,170.6,55.9,171.2z"/>
	</g>
	<g>
		<path style="fill:#9D4A1C;" d="M54.5,223h17.2c2.7,0,4.6-2.7,3.5-5.2c-1.7-4.3-5.3-9.7-12.2-9.7s-10.3,5.5-12.1,9.8
			C50,220.3,51.8,223,54.5,223z"/>
		<path d="M71.7,223.9H54.5c-1.5,0-3-0.7-3.8-2c-0.9-1.3-1.1-2.9-0.5-4.3c1.8-4.7,5.5-10.3,12.9-10.4l0,0c7.3,0,11.1,5.5,13,10.3
			c0.6,1.5,0.4,3.1-0.5,4.4C74.7,223.2,73.2,223.9,71.7,223.9z M63,209C63,209,63,209,63,209c-6.4,0-9.6,5-11.2,9.2
			c-0.3,0.9-0.2,1.9,0.3,2.7s1.5,1.3,2.4,1.3h17.2c1,0,1.9-0.5,2.4-1.3s0.7-1.8,0.2-2.7C72.7,214,69.3,209,63,209z"/>
	</g>
</g>
<g>
	<g>
		<path style="fill:#F0B109;" d="M88.8,171l-0.7,37c-0.1,2.4-0.2,5.2,2.6,6.1c1.9,0.6,3.7,0.5,5.1-0.3c1.3-0.7,2.2-2,2.6-3.5
			c0.4-1.6,0.8-3.3,1.1-4.9c0.2-0.8,0.3-1.7,0.6-2.5c0.8-3.5,1.7-7.7,2.1-12c0.3-3.1,0.5-6.4,0.6-10.4c0-0.2,0-0.4,0-0.8
			c0.2-6.4,0.1-8.6-0.1-9.1C98.1,169.8,92.6,169.9,88.8,171z"/>
		<path style="fill:#583820;" d="M102.9,179c-1.3-0.1-3.8-0.1-5.1,0.1c-1.5,0.2-2.9,0.7-3.8,1.6c-0.5,0.4-0.7,0.8-0.7,1.2
			c0.1,0.7,0.8,1,1,1.1c0.5,0.2,1.1,0.4,1.5,0.6c0.5,0.2,1.1,0.4,1.5,0.6c0.8,0.4,1.8,1.1,2.2,2c0.1,0.2,0.2,0.4,0.2,0.7
			c0.1,0.4,0.2,0.8,0.5,1.2c0.5,0.7,1.4,1,2.2,1.2L102.9,179z"/>
		<path style="fill:#583820;" d="M88.4,200.5L88.4,200.5c0-0.8,1-1.3,1.5-1.5c0.5-0.2,1-0.3,1.5-0.5s1-0.2,1.5-0.4
			c1.2-0.4,2.1-1,2.6-1.7c0.3-0.4,0.4-0.7,0.4-1.1c0-0.5-0.3-1.1-0.9-1.4c-0.5-0.2-1-0.4-1.5-0.5c-1.8-0.2-3.6-0.2-5.4-0.2
			L88.4,200.5z"/>
		<path d="M93,215.3c-0.8,0-1.7-0.2-2.5-0.4c-3.3-1.1-3.2-4.4-3.2-6.8l0.7-37.6l0.5-0.2c4-1.1,9.5-1.3,14.3-0.5l0.5,0.1l0.1,0.5
			c0.2,0.8,0.2,3.8,0.1,9.3v0.8c0,4-0.2,7.3-0.6,10.5c-0.5,4.3-1.3,8.6-2.1,12.1c-0.2,0.8-0.4,1.7-0.6,2.5c-0.3,1.6-0.7,3.3-1.1,5
			c-0.5,1.8-1.5,3.1-3,3.9C95.3,215,94.2,215.3,93,215.3z M89.5,171.6L88.9,208c-0.1,2.9,0,4.7,2.1,5.4c1.7,0.6,3.3,0.4,4.6-0.2
			c1.1-0.7,1.9-1.6,2.3-3c0.4-1.6,0.8-3.3,1.1-4.9c0.2-0.9,0.4-1.7,0.6-2.6c0.8-3.5,1.6-7.7,2.1-11.9c0.3-3.1,0.5-6.4,0.5-10.4v-0.8
			c0.1-5.3,0.1-7.6,0-8.5C97.9,170.6,93,170.8,89.5,171.6z"/>
	</g>
	<g>
		<path style="fill:#9D4A1C;" d="M104.5,223H87.3c-2.7,0-4.6-2.7-3.5-5.2c1.7-4.3,5.3-9.7,12.2-9.7s10.3,5.5,12.1,9.8
			C109,220.3,107.1,223,104.5,223z"/>
		<path d="M104.5,223.9H87.3c-1.5,0-3-0.7-3.9-2c-0.9-1.3-1.1-2.9-0.5-4.4c1.9-4.6,5.7-10.3,13-10.3l0,0c7.3,0,11.1,5.6,12.9,10.4
			c0.6,1.5,0.3,3.1-0.5,4.3C107.4,223.2,106.1,223.9,104.5,223.9z M96,209c-6.4,0-9.7,5-11.3,9.1c-0.4,0.9-0.2,1.9,0.2,2.7
			c0.6,0.8,1.5,1.3,2.4,1.3h17.2c1,0,1.9-0.5,2.4-1.3s0.7-1.8,0.3-2.7C105.6,214,102.3,209,96,209L96,209z"/>
	</g>
</g>
<g>
	<path style="fill:#3279F0;" d="M79.1,165.7l-3.3,14.1l-23-0.8c-0.4-7.6,0-21.7,0-21.7h52.6c0,0,0.4,14.1,0,21.7l-23,0.8L79.1,165.7
		"/>
	<path d="M82.4,180.6c-0.4,0-0.7-0.3-0.8-0.7l-2.4-10.5l-2.4,10.5c-0.1,0.4-0.4,0.7-0.8,0.7l-23-0.8c-0.4,0-0.8-0.4-0.8-0.8
		c-0.4-7.6,0-21.6,0-21.8c0-0.5,0.4-0.8,0.8-0.8h52.6c0.5,0,0.8,0.4,0.8,0.8c0,0.1,0.4,14.2,0,21.8c0,0.4-0.4,0.8-0.8,0.8
		L82.4,180.6C82.4,180.6,82.4,180.6,82.4,180.6z M53.6,178.1l21.6,0.7l3.1-13.4c0.1-0.4,0.4-0.7,0.8-0.7c0.4,0,0.7,0.3,0.8,0.7
		l3.1,13.4l21.6-0.7c0.3-6.5,0.1-17,0-20H53.6C53.6,161.1,53.3,171.6,53.6,178.1z"/>
</g>
<g>
	<path style="fill:#F0B109;" d="M28.5,100.2c-1.1,0-2.2,0.2-3.1,0.7c-3.8,1.9-5.4,6.1-6,8.5c-1.8,7-0.4,14.9,3.8,21.1
		c4.9,7.3,12.6,9.6,23.1,6.9c4.6-1.2,8.4-3.2,11.2-6c2.4-2.4,3.1-5.4,1.6-7.8c-1.1-1.8-3.5-3.3-7.3-2.1c-1.2,0.4-2.3,0.9-3.4,1.4
		c-3.1,1.5-6,2.8-9.8,0.4l0,0c-3.5-2.3-5.5-7-4.9-11.7c0.1-0.7,0.3-1.5,0.4-2.2c0.4-2,0.8-4,0.1-5.8c-0.5-1.3-1.6-2.4-3.1-2.9
		C30.4,100.4,29.5,100.2,28.5,100.2z"/>
	<path style="fill:#583820;" d="M18.3,115.3l4-0.7c0.8-0.1,1.7-0.1,2.5,0.1c1,0.3,1.7,1.1,1.8,1.9c0.2,1.1-0.6,2.1-1.5,2.9l-5,4.7"
		/>
	<path style="fill:#583820;" d="M38.7,138.2l0-4c0.1-0.8,0.1-1.7,0.5-2.5c0.5-0.9,1.3-1.5,2.2-1.5c1.2,0,1.9,1,2.6,2l3.3,5.1"/>
	<path style="fill:#583820;" d="M41.9,124c0.9-0.1-1.5,0.8-2.2,1.5c-0.5,0.5-1.1,1-1.7,1.4c-0.4,0.2-0.8,0.4-1.4,0.5
		c-0.3,0.1-0.8,0.1-1.4,0.1c-1,0-2.3-0.2-3.1-1.2c-1.4-1.6-0.7-4,0.6-5.5c0.7-0.9,1.7-1.5,2.6-2.2C35.1,118.5,37.4,124.5,41.9,124z"
		/>
	<path d="M38.4,139.6c-6.9,0-12.3-2.8-16.1-8.5c-4.4-6.5-5.8-14.7-3.9-22c0.7-2.6,2.4-7.1,6.6-9.2c1.9-1,4.6-1.1,6.6-0.2
		c1.8,0.7,3.1,2,3.7,3.6c0.8,2.1,0.3,4.3-0.1,6.4c-0.1,0.7-0.3,1.4-0.4,2.2c-0.6,4.3,1.2,8.7,4.4,10.7c3.3,2.1,5.7,1,8.8-0.4
		c1.1-0.5,2.3-1.1,3.5-1.5c4.3-1.4,7.2,0.4,8.5,2.6c1.7,2.8,1,6.4-1.8,9.1c-3,2.9-6.9,5-11.7,6.2C43.6,139.2,40.9,139.6,38.4,139.6z
		 M28.5,101.3c-1,0-1.9,0.2-2.6,0.6c-3.4,1.7-4.9,5.6-5.5,7.8c-1.8,6.7-0.4,14.2,3.6,20.3c4.6,6.9,12,9,21.9,6.5
		c4.5-1.1,8.1-3.1,10.8-5.7c2-2,2.6-4.6,1.5-6.5c-0.9-1.4-2.9-2.6-6.1-1.6c-1.1,0.4-2.2,0.9-3.2,1.4c-3.2,1.5-6.5,3.1-10.8,0.3
		c-3.9-2.5-6-7.6-5.3-12.8c0.1-0.8,0.3-1.5,0.4-2.3c0.4-2,0.8-3.7,0.2-5.2c-0.4-1-1.3-1.9-2.5-2.3C30.1,101.4,29.3,101.3,28.5,101.3
		z"/>
</g>
<g>
	<path style="fill:#F0B109;" d="M127.9,102.1c-1.5,0.6-2.6,1.6-3.1,2.9c-0.7,1.8-0.3,3.7,0.1,5.8c0.1,0.7,0.3,1.5,0.4,2.2
		c0.6,4.7-1.3,9.5-4.9,11.7l0,0c-3.8,2.4-6.7,1.1-9.8-0.4c-1.1-0.5-2.2-1-3.4-1.4c-3.7-1.2-6.2,0.3-7.3,2.1
		c-1.4,2.4-0.8,5.4,1.6,7.8c2.8,2.8,6.6,4.8,11.2,6c10.4,2.7,18.2,0.4,23.1-6.9c4.2-6.3,5.6-14.2,3.8-21.1c-0.6-2.4-2.2-6.6-6-8.5
		c-0.9-0.5-2-0.7-3.1-0.7C129.7,101.6,128.8,101.8,127.9,102.1z"/>
	<path style="fill:#583820;" d="M140.8,116.7l-4-0.7c-0.8-0.1-1.7-0.1-2.5,0.1c-1,0.3-1.7,1.1-1.8,1.9c-0.2,1.1,0.6,2.1,1.5,2.9
		l5,4.7"/>
	<path style="fill:#583820;" d="M120.4,139.6l0-4c-0.1-0.8-0.1-1.7-0.5-2.5c-0.5-0.9-1.3-1.5-2.2-1.5c-1.2,0-1.9,1-2.6,2l-3.3,5.1"
		/>
	<path style="fill:#583820;" d="M117.3,125.4c-0.9-0.1,1.5,0.8,2.2,1.5c0.5,0.5,1.1,1,1.7,1.4c0.4,0.2,0.8,0.4,1.4,0.5
		c0.3,0.1,0.8,0.1,1.4,0.1c1,0,2.3-0.2,3.1-1.2c1.4-1.6,0.7-4-0.6-5.5c-0.7-0.9-1.7-1.5-2.6-2.2
		C124.1,119.9,121.7,125.9,117.3,125.4z"/>
	<path d="M112.6,139.9c-4.8-1.2-8.8-3.3-11.7-6.2c-2.8-2.7-3.5-6.3-1.8-9.1c1.3-2.1,4.2-3.9,8.5-2.6c1.3,0.4,2.4,0.9,3.5,1.5
		c3,1.4,5.5,2.6,8.8,0.4c3.2-2.1,5-6.4,4.4-10.7c-0.1-0.7-0.2-1.4-0.4-2.2c-0.4-2.1-0.9-4.3-0.1-6.4c0.6-1.6,1.9-2.9,3.7-3.6
		c2.1-0.8,4.7-0.7,6.6,0.2c4.1,2,5.9,6.6,6.6,9.2c1.9,7.2,0.5,15.5-3.9,22c-3.8,5.6-9.2,8.5-16.1,8.5
		C118.3,141,115.5,140.6,112.6,139.9z M128.3,103.1c-1.2,0.5-2.1,1.3-2.5,2.3c-0.6,1.5-0.2,3.2,0.2,5.2c0.2,0.7,0.3,1.5,0.4,2.3
		c0.7,5.1-1.5,10.3-5.3,12.8c-4.3,2.8-7.6,1.2-10.8-0.3c-1-0.5-2.1-1-3.2-1.4c-3.2-1-5.2,0.2-6.1,1.6c-1.2,1.9-0.6,4.5,1.5,6.5
		c2.7,2.6,6.3,4.5,10.8,5.7c9.9,2.6,17.3,0.4,21.9-6.5c4-6,5.4-13.6,3.6-20.3c-0.6-2.2-2.1-6.2-5.5-7.8c-0.8-0.4-1.7-0.6-2.6-0.6
		C129.8,102.7,129,102.8,128.3,103.1z"/>
</g>
<g>
	<path style="fill:#FB0021;" d="M97.2,118.2c0,0,7.5-4.4,15.4,4.8l-9,11.9C103.6,134.9,89.4,127,97.2,118.2z"/>
	<path d="M103.6,135.7c-0.1,0-0.3,0-0.4-0.1c-0.3-0.2-8-4.5-9.1-10.6c-0.4-2.6,0.4-5.1,2.4-7.4c0.1-0.1,0.1-0.1,0.2-0.2
		c0.1,0,8.2-4.6,16.5,5c0.3,0.3,0.3,0.7,0,1.1l-9,11.9C104.1,135.6,103.9,135.7,103.6,135.7z M97.7,118.8c-1.6,1.9-2.3,3.9-1.9,5.9
		c0.8,4.4,5.8,7.9,7.6,9l8.1-10.7C104.8,115.7,98.6,118.4,97.7,118.8z"/>
</g>
<g>
	<path style="fill:#FB0021;" d="M61.1,118.2c0,0-7.5-4.4-15.4,4.8l9,11.9C54.7,134.9,69,127,61.1,118.2z"/>
	<path d="M54.7,135.7c-0.3,0-0.5-0.1-0.7-0.3l-9-11.9c-0.2-0.3-0.2-0.8,0-1.1c8.3-9.6,16.4-5,16.5-5c0.1,0,0.1,0.1,0.2,0.2
		c2.1,2.3,2.9,4.8,2.4,7.4c-1.1,6.1-8.8,10.4-9.1,10.6C55,135.7,54.8,135.7,54.7,135.7z M46.8,123l8.1,10.7c1.8-1.1,6.9-4.6,7.6-9
		c0.3-2-0.3-4-1.9-5.9C59.7,118.4,53.6,115.6,46.8,123z"/>
</g>
<g>
	<path style="fill:#FB0021;" d="M79.2,162c22.8,0,30.3-1.8,30.3-1.8c-2.7-52.6-30.3-57.1-30.3-57.1s-27.5,4.5-30.3,57.1
		C48.8,160.2,56.3,162,79.2,162L79.2,162C79.1,162,79.1,162,79.2,162C79.1,162,79.2,162,79.2,162L79.2,162z"/>
	<path d="M79.2,162.8L79.2,162.8L79.2,162.8c-22.7,0-30.2-1.8-30.5-1.8c-0.4-0.1-0.7-0.5-0.6-0.9c2.7-52.7,29.8-57.7,31-57.9
		c0.1,0,0.2,0,0.3,0c1.2,0.2,28.3,5.2,31,57.9c0,0.4-0.3,0.8-0.6,0.9C109.3,161.1,101.8,162.8,79.2,162.8z M49.7,159.5
		c2.3,0.4,10.7,1.6,29.4,1.6l0.1,0.8v-0.8c18.7,0,27.1-1.2,29.4-1.6c-1.5-26.3-9.4-40-15.8-46.9c-6.4-6.9-12.6-8.4-13.6-8.7
		C77,104.4,52.5,110.9,49.7,159.5z"/>
</g>
<g>
	<g>
		<path style="fill:#F0B109;" d="M114.6,66.3c-1.4-3.6-2.8-7.3-5.3-10.3c-5.8-7-15.3-10.9-23.5-10.9c-2.2,0-4.5,0-6.7-0.1
			c-2.2,0-4.5,0.1-6.7,0.1c-8.2,0-17.7,3.9-23.5,10.9c-2.4,2.9-3.9,6.7-5.3,10.3c-3.9,10.1-10.2,25-4.2,35.4
			c7.4,12.8,18.1,16.4,29.9,19.2c3.2,0.8,6.5,1.1,9.8,1.1c3.3,0,6.6-0.4,9.8-1.1c11.8-2.8,22.6-6.4,29.9-19.2
			C124.8,91.4,118.5,76.4,114.6,66.3z"/>
		<path d="M79.2,122.9c-3.4,0-6.8-0.4-10-1.2c-11.7-2.8-22.8-6.3-30.5-19.6C32.9,92,38.3,78,42.2,67.8l0.7-1.7
			c1.4-3.7,2.9-7.4,5.4-10.5c5.6-6.8,15.1-11.2,24.2-11.2c1.6,0,3.2,0,4.8,0l1.9,0l1.9,0c1.6,0,3.2,0,4.8,0
			c9.1,0,18.6,4.4,24.2,11.2c2.5,3.1,4,7,5.4,10.5l0.7,1.7c4,10.2,9.4,24.2,3.5,34.4c-7.6,13.3-18.8,16.9-30.5,19.6
			C85.9,122.5,82.6,122.9,79.2,122.9z M79.2,45.9l-1.9,0c-1.6,0-3.2,0-4.8,0c-8.6,0-17.6,4.2-22.9,10.6c-2.4,2.9-3.8,6.5-5.1,10.1
			l-0.7,1.7c-3.8,9.9-9.1,23.5-3.6,33c7.3,12.7,18.1,16.1,29.4,18.8c3.1,0.7,6.3,1.1,9.6,1.1c3.3,0,6.5-0.4,9.6-1.1
			c11.3-2.7,22.1-6.1,29.4-18.8c5.4-9.5,0.2-23-3.6-33l-0.7-1.7l0,0c-1.4-3.5-2.8-7.2-5.1-10.1C103.4,50.2,94.5,46,85.9,46
			c-1.6,0-3.2,0-4.8,0L79.2,45.9z"/>
	</g>
	
		<ellipse transform="matrix(7.732555e-03 -1 1 7.732555e-03 -24.4432 181.2633)" style="fill:#FFFFFF;" cx="79.1" cy="102.9" rx="15.6" ry="23.2"/>
	<path style="fill:#A60918;" d="M90.2,104.1c0,0-1.7,7.4-10.6,7.4S68,103.8,68,103.8s6.2,3.3,11.1-3.4
		C79.1,100.4,82.3,106.2,90.2,104.1z"/>
	<g>
		<path style="fill-rule:evenodd;clip-rule:evenodd;fill:#FF7D6E;" d="M79.1,90.5c1,0,2.1-0.2,3.1,0c0.6,0.2,1.3,0.5,1.6,1.1
			c1.2,2.1-2.2,3.6-3.8,3.9c-2.2,0.4-4.3-0.6-5.4-2.5c-0.1-0.2-0.3-0.5-0.3-0.8c0-0.6,0.4-1.1,0.9-1.3c0.5-0.2,1.1-0.2,1.7-0.2
			C77.7,90.5,78.4,90.5,79.1,90.5z"/>
		<path d="M81.1,90.4c0.4,0,0.7,0,1.1,0.1c0.6,0.2,1.3,0.5,1.6,1.1c1.2,2.1-2.2,3.6-3.8,3.9c-0.3,0.1-0.6,0.1-0.9,0.1
			c-1.9,0-3.5-1-4.5-2.6c-0.1-0.2-0.3-0.5-0.3-0.8c0-0.6,0.4-1.1,0.9-1.3c0.5-0.2,1.1-0.2,1.7-0.2c0.7,0,1.4,0,2.1,0
			C79.8,90.5,80.5,90.4,81.1,90.4 M81.1,88.7L81.1,88.7c-0.4,0-0.8,0-1.2,0.1c-0.3,0-0.6,0-0.9,0l-0.4,0l-1.7,0
			c-0.6,0-1.5,0-2.4,0.4c-1.2,0.6-2,1.8-1.9,3c0,0.6,0.3,1.2,0.5,1.5c1.3,2.2,3.5,3.4,5.9,3.4c0.4,0,0.8,0,1.2-0.1
			c1.3-0.2,4.2-1.2,5.1-3.2c0.5-1,0.4-2.1-0.2-3.1c-0.5-0.9-1.5-1.6-2.7-1.9C82.2,88.8,81.7,88.7,81.1,88.7L81.1,88.7z"/>
	</g>
	<g>
		<path d="M71.7,105.4c-1.4,0-2.8-0.3-4.1-0.8c-1.4-0.6-3.9-1.7-4.6-3.8c-0.4-1.2-0.1-2.9,1.1-3.6c0.4-0.2,0.9-0.1,1.1,0.3
			c0.2,0.4,0.1,0.9-0.3,1.1c-0.4,0.2-0.5,1-0.3,1.6c0.5,1.4,2.5,2.3,3.7,2.8c1.3,0.6,2.8,0.8,4.3,0.7c2.2-0.2,5.1-1.6,5.7-4.5
			c0.1-0.5,0.5-0.7,1-0.7c0.5,0.1,0.7,0.5,0.7,1c-0.8,3.8-4.3,5.6-7.1,5.9C72.5,105.4,72.1,105.4,71.7,105.4z"/>
	</g>
	<g>
		<path d="M87,105.4c-0.4,0-0.8,0-1.1-0.1c-3-0.3-6.8-2-7.6-5.8c-0.1-0.5,0.2-0.9,0.6-1c0.5-0.1,0.9,0.2,1,0.6
			c0.6,2.8,3.5,4.3,6.1,4.5c1.6,0.2,3.2-0.1,4.6-0.7c1.3-0.5,3.5-1.4,4-2.9c0.2-0.5,0.1-1.3-0.4-1.5c-0.4-0.2-0.6-0.7-0.4-1.1
			c0.2-0.4,0.7-0.6,1.1-0.4c1.3,0.7,1.6,2.4,1.1,3.6c-0.8,2.1-3.4,3.2-5,3.8C90,105.2,88.5,105.4,87,105.4z"/>
	</g>
	<g>
		<path style="fill:#F0B109;" d="M71.3,46.9c0,0-4.8-3.7-8.2-6.5c-3.4-2.7-12.5-9.5-14.3-8.9c-1.8,0.6-10.6,19-2.2,28.5"/>
		<path d="M46.6,60.9c-0.2,0-0.5-0.1-0.6-0.3c-5.1-5.8-3.9-14.5-2.7-19.1c1.3-5.1,3.8-10.2,5.3-10.7c2.8-1,14.6,8.6,15.1,9
			c3.3,2.7,8.1,6.4,8.2,6.5c0.4,0.3,0.4,0.8,0.1,1.2c-0.3,0.4-0.8,0.4-1.2,0.1c0,0-4.9-3.8-8.2-6.5c-5.1-4.1-12.2-8.9-13.5-8.7
			c-0.7,0.4-4,6.3-4.9,13.3c-0.6,4.1-0.5,9.7,3.1,13.8c0.3,0.3,0.3,0.9-0.1,1.2C47,60.8,46.8,60.9,46.6,60.9z"/>
	</g>
	<g>
		<path style="fill:#FACF75;" d="M62.2,50.1c0,0-12.2-11.4-12.5-13.7c-0.3-2.2-5.3,14.3,0.9,18.2c0,0,1.7-1.1,2.7-1.4
			c0,0-1.5-4,2.4-1.6C58.2,53.2,62.2,50.1,62.2,50.1z"/>
		<path d="M50.6,55.4c-0.2,0-0.3,0-0.4-0.1c-5.5-3.5-3-15.1-2-18c0.4-1.1,0.7-2,1.6-1.9c0.1,0,0.7,0.1,0.9,0.9
			c0.2,1.3,6.4,7.7,12.3,13.2c0.2,0.2,0.3,0.4,0.3,0.7c0,0.2-0.1,0.5-0.3,0.6c-0.2,0.1-4.5,3.4-7.4,1.5c-0.8-0.5-1.2-0.6-1.4-0.7
			c0,0.3,0.1,0.8,0.2,1.2c0.1,0.2,0.1,0.5,0,0.7c-0.1,0.2-0.3,0.4-0.5,0.4c-0.7,0.2-2.1,1-2.5,1.3C50.9,55.4,50.8,55.4,50.6,55.4z
			 M49.6,38.1c-0.7,2.4-1.8,7.5-1,11.5c0.3,1.8,1,3.2,2,4c0.4-0.3,1.1-0.6,1.7-0.9c-0.2-0.8-0.2-1.8,0.5-2.4c1-0.8,2.4,0,3.4,0.6
			c1.3,0.8,3.4-0.1,4.7-0.9C57.9,47.2,51.8,41.2,49.6,38.1z"/>
	</g>
	<g>
		<path style="fill:#FF7D6E;" d="M54.2,50.9c0,0-3.5-3.4-3.5-6.7"/>
		<path d="M54.2,51.7c-0.2,0-0.4-0.1-0.6-0.2c-0.2-0.2-3.8-3.7-3.7-7.3c0-0.5,0.3-0.8,0.9-0.8c0.5,0,0.8,0.4,0.8,0.9
			c0,2.4,2.3,5.2,3.2,6.1c0.3,0.3,0.3,0.9,0,1.2C54.7,51.6,54.5,51.7,54.2,51.7z"/>
	</g>
	<g>
		<path style="fill:#F0B109;" d="M87,46.9c0,0,4.8-3.7,8.2-6.5c3.4-2.7,12.5-9.5,14.3-8.9c1.8,0.6,10.6,19,2.2,28.5"/>
		<path d="M111.7,60.9c-0.2,0-0.4-0.1-0.6-0.2c-0.3-0.3-0.4-0.8-0.1-1.2c3.6-4.1,3.6-9.7,3.1-13.8c-1-7.1-4.3-12.9-5-13.4
			c0,0,0,0-0.1,0c-1.4,0-8.4,4.7-13.4,8.8c-3.3,2.7-8.2,6.5-8.2,6.5c-0.4,0.3-0.9,0.2-1.2-0.1c-0.3-0.4-0.2-0.9,0.1-1.2
			c0,0,4.9-3.8,8.2-6.5c0.5-0.4,12.3-10,15.1-9c1.4,0.5,3.9,5.6,5.3,10.7c1.2,4.6,2.4,13.3-2.7,19.1C112.2,60.8,112,60.9,111.7,60.9
			z"/>
	</g>
	<g>
		<path style="fill:#FACF75;" d="M96.1,50.1c0,0,12.2-11.4,12.5-13.7c0.3-2.2,5.3,14.3-0.9,18.2c0,0-1.7-1.1-2.7-1.4
			c0,0,1.5-4-2.4-1.6C100.1,53.2,96.1,50.1,96.1,50.1z"/>
		<path d="M107.7,55.4c-0.2,0-0.3,0-0.5-0.1c-0.5-0.3-1.8-1.1-2.5-1.3c-0.2-0.1-0.4-0.2-0.5-0.4c-0.1-0.2-0.1-0.4,0-0.7
			c0.1-0.4,0.2-0.9,0.2-1.2c-0.2,0-0.6,0.2-1.4,0.6c-2.9,1.8-7.3-1.4-7.4-1.5c-0.2-0.1-0.3-0.4-0.3-0.6c0-0.2,0.1-0.5,0.3-0.7
			c5.8-5.5,12-11.9,12.3-13.2c0.1-0.8,0.7-0.9,0.9-0.9c0.9-0.1,1.2,0.8,1.6,1.9c1,2.9,3.5,14.5-2,18C108,55.4,107.9,55.4,107.7,55.4
			z M106,52.7c0.6,0.3,1.3,0.7,1.7,0.9c1-0.8,1.7-2.2,2-4c0.8-4-0.3-9.2-1-11.5c-2.2,3.2-8.3,9.1-11.2,11.9c1.3,0.8,3.4,1.7,4.7,0.9
			c1-0.6,2.4-1.4,3.4-0.6C106.2,50.9,106.2,51.9,106,52.7z"/>
	</g>
	<g>
		<path style="fill:#FF7D6E;" d="M104.1,50.9c0,0,3.5-3.4,3.5-6.7"/>
		<path d="M104.1,51.7c-0.2,0-0.4-0.1-0.6-0.3c-0.3-0.3-0.3-0.9,0-1.2c0,0,3.3-3.2,3.2-6.1c0-0.5,0.4-0.8,0.8-0.9c0,0,0,0,0,0
			c0.5,0,0.8,0.4,0.8,0.8c0,3.6-3.6,7.2-3.7,7.3C104.5,51.6,104.3,51.7,104.1,51.7z"/>
	</g>
	<path style="fill-rule:evenodd;clip-rule:evenodd;fill:#583820;" d="M77.5,65.7c-0.1,1.7-0.2,3.7,0.9,4.9c0.2,0.2,0.4,0.3,0.6,0.4
		c0.6,0.1,0.9-0.6,1.1-1.2c0.9-3.8-0.5-8.3,1.4-11.7c0.3-0.6,0.8-1.1,1-1.8c1.1-3-5.5-4.3-6-1.2c-0.2,1.2,0.6,2.8,0.8,3.9
		C77.6,61.2,77.6,63.5,77.5,65.7z"/>
	<path style="fill-rule:evenodd;clip-rule:evenodd;fill:#583820;" d="M47.6,83.9c1.1,0.1,2,0.6,2.4,1.9c0.3,1-0.2,2.3-1.2,2.7
		c-0.5,0.2-1,0.1-1.5,0.1c-0.9,0-1.9,0.3-2.7,0.8c-1,0.7-2.2,1.8-3.3,1.3c-0.8-0.4-1.1-1.6-0.9-2.5c0.3-0.9,1-1.6,1.7-2.3
		C43.2,85,45.7,83.7,47.6,83.9z"/>
	<path style="fill-rule:evenodd;clip-rule:evenodd;fill:#583820;" d="M43.8,93.2c-0.2,0.1-0.5,0.3-0.7,0.5c-0.7,0.7-1.7,2.2-1.3,3.3
		c0.1,0.2,0.3,0.4,0.5,0.5c0.5,0.3,1.2,0.4,1.7,0.2c0.4-0.2,0.7-0.5,1.1-0.8c0.4-0.2,0.8-0.3,1.2-0.5c0.8-0.3,1.7-0.6,2.3-1.4
		c0.1-0.2,0.3-0.5,0.3-0.7c0.2-1.6-1.4-2-2.5-1.9C45.5,92.5,44.5,92.8,43.8,93.2z"/>
	<path style="fill-rule:evenodd;clip-rule:evenodd;fill:#583820;" d="M70.9,56.4c-0.3,0-0.6,0.1-0.8,0.1c-0.9,0.2-2.5,1.1-2.6,2.3
		c0,0.3,0.1,0.5,0.2,0.7c0.3,0.5,0.9,1,1.5,1c0.4,0,0.9-0.1,1.3-0.1c0.4,0,0.9,0.1,1.3,0.1c0.9,0.1,1.8,0.3,2.7-0.2
		c0.2-0.1,0.4-0.3,0.6-0.5c0.9-1.4-0.4-2.4-1.5-2.9C72.7,56.6,71.8,56.4,70.9,56.4z"/>
	<path style="fill-rule:evenodd;clip-rule:evenodd;fill:#583820;" d="M45.3,100.5c-0.3,0.5-0.6,1.1-0.4,1.6c0.2,0.5,0.7,0.8,1.2,0.9
		s1-0.1,1.5-0.2c0.4-0.2,0.9-0.3,1.2-0.6c0.4-0.3,0.7-0.7,0.7-1.2c0.1-0.9-0.7-1.8-1.5-1.8C47,99.2,46,99.7,45.3,100.5z"/>
	<path style="fill-rule:evenodd;clip-rule:evenodd;fill:#583820;" d="M50.9,89.8c-0.3,0.5-0.6,1.1-0.4,1.6c0.2,0.5,0.7,0.8,1.2,0.9
		c0.5,0.1,1-0.1,1.5-0.2c0.4-0.2,0.9-0.3,1.2-0.6c0.4-0.3,0.7-0.7,0.7-1.2c0.1-0.9-0.7-1.8-1.5-1.8C52.6,88.4,51.6,88.9,50.9,89.8z"
		/>
	<path style="fill-rule:evenodd;clip-rule:evenodd;fill:#583820;" d="M110.8,83.9c-1.1,0.1-2,0.6-2.4,1.9c-0.3,1,0.2,2.3,1.2,2.7
		c0.5,0.2,1,0.1,1.5,0.1c0.9,0,1.9,0.3,2.7,0.8c1,0.7,2.2,1.8,3.3,1.3c0.8-0.4,1.1-1.6,0.9-2.5c-0.3-0.9-1-1.6-1.7-2.3
		C115.2,85,112.8,83.7,110.8,83.9z"/>
	<path style="fill-rule:evenodd;clip-rule:evenodd;fill:#583820;" d="M114.7,93.2c0.2,0.1,0.5,0.3,0.7,0.5c0.7,0.7,1.7,2.2,1.3,3.3
		c-0.1,0.2-0.3,0.4-0.5,0.5c-0.5,0.3-1.2,0.4-1.7,0.2c-0.4-0.2-0.7-0.5-1.1-0.8c-0.4-0.2-0.8-0.3-1.2-0.5c-0.8-0.3-1.7-0.6-2.3-1.4
		c-0.1-0.2-0.3-0.5-0.3-0.7c-0.2-1.6,1.4-2,2.5-1.9C112.9,92.5,113.9,92.8,114.7,93.2z"/>
	<path style="fill-rule:evenodd;clip-rule:evenodd;fill:#583820;" d="M113.1,100.5c0.3,0.5,0.6,1.1,0.4,1.6
		c-0.2,0.5-0.7,0.8-1.2,0.9s-1-0.1-1.5-0.2c-0.4-0.2-0.9-0.3-1.2-0.6c-0.4-0.3-0.7-0.7-0.7-1.2c-0.1-0.9,0.7-1.8,1.5-1.8
		C111.4,99.2,112.4,99.7,113.1,100.5z"/>
	<path style="fill-rule:evenodd;clip-rule:evenodd;fill:#583820;" d="M107.5,89.8c0.3,0.5,0.6,1.1,0.4,1.6c-0.2,0.5-0.7,0.8-1.2,0.9
		c-0.5,0.1-1-0.1-1.5-0.2c-0.4-0.2-0.9-0.3-1.2-0.6c-0.4-0.3-0.7-0.7-0.7-1.2c-0.1-0.9,0.7-1.8,1.5-1.8
		C105.8,88.4,106.9,88.9,107.5,89.8z"/>
	<path style="fill-rule:evenodd;clip-rule:evenodd;fill:#583820;" d="M88.5,54.8c0.3,0,0.7-0.1,1-0.2c0.2,0,0.3-0.1,0.4-0.2
		c0.2-0.2,0.2-0.5,0.1-0.8c-0.2-0.9-1-1.6-1.8-2c-0.9-0.4-1.8-0.5-2.8-0.5c-0.7,0-1.5-0.1-2,0.5c-0.5,0.5-0.3,1.5,0.1,2
		s1.2,0.8,1.9,0.9C86.5,54.8,87.5,54.9,88.5,54.8z"/>
	<path style="fill-rule:evenodd;clip-rule:evenodd;fill:#583820;" d="M88.2,60.7c-0.3-2.7-4.8-2.9-5.3-0.2c0,0.2,0,0.4,0,0.6
		c0.1,0.2,0.2,0.3,0.3,0.4c0.6,0.5,1.3,0.9,2,1.1c0.6,0.2,1.4,0.2,2-0.1C87.8,62.1,88.3,61.4,88.2,60.7z"/>
	<path style="fill-rule:evenodd;clip-rule:evenodd;fill:#583820;" d="M74.9,54.8c0.8-0.3,1.6-1.4,1.2-2.3c-0.4-0.9-2.2-1.1-3-1
		c-0.7,0-1.4,0.2-1.8,0.7c-0.5,0.5-0.6,1.4-0.1,1.9c0.2,0.2,0.4,0.3,0.7,0.4c0.4,0.1,0.8,0.3,1.2,0.3C73.7,55,74.3,55,74.9,54.8z"/>
	<path style="fill-rule:evenodd;clip-rule:evenodd;fill:#583820;" d="M74.8,66.7c0.6-0.2,1.3-1.1,1-1.9c-0.4-0.8-1.8-0.9-2.5-0.8
		c-0.5,0-1.1,0.2-1.5,0.6c-0.4,0.4-0.5,1.2-0.1,1.6c0.2,0.2,0.4,0.2,0.5,0.3c0.3,0.1,0.6,0.2,1,0.3C73.8,66.8,74.3,66.8,74.8,66.7z"
		/>
	<path d="M71.5,86.1c-0.3,0-0.5-0.1-0.7-0.4c-0.1-0.1-2-2.8-7-2.1c-0.5,0.1-0.9-0.3-1-0.7c-0.1-0.5,0.3-0.9,0.7-1
		c6.2-0.9,8.6,2.7,8.6,2.9c0.3,0.4,0.1,0.9-0.3,1.2C71.8,86.1,71.7,86.1,71.5,86.1z"/>
	<path d="M86.8,86.1c-0.2,0-0.3,0-0.5-0.1c-0.4-0.3-0.5-0.8-0.2-1.2c0.1-0.2,2.5-3.7,8.6-2.9c0.5,0.1,0.8,0.5,0.7,1
		c-0.1,0.5-0.5,0.8-1,0.7c-5-0.7-6.9,2-7,2.1C87.3,86,87.1,86.1,86.8,86.1z"/>
	<path d="M79.5,112.3c-9.4,0-12.3-8.2-12.3-8.2c-0.1-0.4,0.1-0.9,0.5-1.1c0.4-0.1,0.9,0.1,1.1,0.5c0.1,0.3,2.5,7.1,10.7,7.1
		c8.1,0,9.8-6.4,9.8-6.7c0.1-0.4,0.6-0.7,1-0.6c0.5,0.1,0.7,0.6,0.6,1C91,104.4,89,112.3,79.5,112.3z"/>
</g>
</svg>
