<?xml version="1.0" encoding="utf-8"?>
<!-- Generator: Adobe Illustrator 26.0.3, SVG Export Plug-In . SVG Version: 6.00 Build 0)  -->
<svg version="1.1" id="레이어_1" xmlns="http://www.w3.org/2000/svg" xmlns:xlink="http://www.w3.org/1999/xlink" x="0px"
	 y="0px" viewBox="0 0 272 118" style="enable-background:new 0 0 272 118;" xml:space="preserve">
<style type="text/css">
	.st0{fill:#FEF7B6;}
	.st1{fill:#FFE771;}
	.st2{fill:#1FBE2F;}
</style>
<path class="st0" d="M258.2,118.3H14.8c-7.7,0-13.9-6.2-13.9-13.9V14.2c0-7.7,6.2-13.9,13.9-13.9h243.4c7.7,0,13.9,6.2,13.9,13.9
	v90.2C272.1,112,265.9,118.3,258.2,118.3z"/>
<path class="st1" d="M255.7,105.1H17.3c-9.1,0-16.4-5.9-16.4-13.2V105c0,7.3,7.3,13.2,16.4,13.2h238.4c9.1,0,16.4-5.9,16.4-13.2
	V91.8C272.1,99.1,264.8,105.1,255.7,105.1z"/>
<g>
	<path class="st2" d="M60,50.6h-8.5c-2.3,0-3.8-0.9-4.4-2.4c-5,5.4-14.2,7.4-24.2,6.2c-2.7-0.3-4.9-2.3-4.6-5.5
		c0.3-2.9,2.6-4.2,5.5-3.9c9.2,0.9,15.7-1.6,15.7-7.4v-0.3c0-1-0.4-1.2-1.4-1.2H24.2c-3.5,0-5-2.4-5-4.8s1.4-4.6,5-4.6h18.3
		c4.4,0,6.8,1.2,7.9,3.7H60c0.3-3.4,2.9-5.2,5.9-5.2c3.1,0,6.1,2.1,6.1,5.9v23.4H60V50.6z M29,82.2c-5.5,0-8.6-3.9-8.6-8.3v-0.7
		c0-4.4,3.1-7.2,8.6-7.2h30.6v-1.6c0-0.7-0.2-1-1-1H24.4c-2.4,0-3.4-1.8-3.4-3.6c0-1.7,1-3.5,3.4-3.5h40.2c5.4,0,7.4,1.6,7.4,6.4
		v9.7H34.6c-0.9,0-1.3,0.6-1.3,1.2v0.2c0,0.6,0.4,1.2,1.3,1.2h35.6c2.4,0,3.5,1.9,3.5,3.7c0,1.7-1,3.5-3.5,3.5H29z M51.4,42.3H60
		v-3.7h-9c-0.1,1.3-0.4,2.6-0.7,3.8C50.6,42.4,51,42.3,51.4,42.3z"/>
	<path class="st2" d="M85.5,70.3V51.6c0-4,2.6-5.5,5.8-5.5c3.2,0,5.8,1.6,5.8,5.5v18.8h14.8c3.7,0,5.1,2.4,5.1,4.9
		c0,2.6-1.5,4.9-5.1,4.9h-29c-3.7,0-5.2-2.4-5.2-4.9c0-2.5,1.5-4.9,5.2-4.9H85.5z M103,42.5v-3.7c0-1-0.5-1.5-1.5-1.5H83.9
		c-3.5,0-5.2-2.6-5.2-5.2s1.6-5.2,5.2-5.2h21.7c6.9,0,9,2.6,9,8.4v7.2c0,9.1-0.7,14.9-2.4,19.4c-1.2,3.2-4.8,4.5-8.3,3.5
		c-2.8-0.9-3.6-3.9-2.7-6.7C102.4,55,103,50,103,42.5z M119.1,31c0-3.9,2.9-5.9,6-5.9c3.1,0,6,2.1,6,5.9v15.4h2
		c3.7,0,4.8,2.9,4.8,5.3c0,2.5-1.2,5.3-4.8,5.3h-2v25.3h-12.1V31z"/>
	<path class="st2" d="M160.8,71.2V60.5h-10.4c-7.4,0-8.8-2.3-8.8-9.4V31.6c0-4,3-5.4,6.3-5.4c3,0,6.2,1.7,6.2,5.5V34H180v-2.4
		c0-4,3-5.4,6.2-5.4c3.1,0,6.2,1.5,6.2,5.4v28.9h-19.1v10.7h17.2c3.7,0,5.1,2.5,5.1,4.9c0,2.5-1.5,4.9-5.1,4.9h-46.8
		c-3.7,0-5.1-2.4-5.1-4.9c0-2.4,1.4-4.9,5.1-4.9H160.8z M180,50.7v-7.3h-25.9v5.4c0,1.2,0.4,1.8,1.9,1.8H180z"/>
	<path class="st2" d="M221.9,49.3v-9.9c0-0.9-0.6-1.5-1.5-1.5h-13.9c-3.7,0-5.4-2.7-5.4-5.2c0-2.5,1.7-5.3,5.4-5.3h18
		c6.9,0,9.6,3.2,9.6,8.9v13.1c0,21.7-12.4,30.2-27.9,30.5c-3,0.1-6-1.6-5.8-5.2c0.1-2.6,1.6-4.6,4.7-4.9
		C215.3,68.7,221.9,64.3,221.9,49.3z M242.7,82.2V31.1c0-4,2.9-6,6.1-6c3.2,0,6.1,2.1,6.1,6v51.2H242.7z"/>
</g>
</svg>
