<?xml version="1.0" encoding="utf-8"?>
<!-- Generator: Adobe Illustrator 26.0.3, SVG Export Plug-In . SVG Version: 6.00 Build 0)  -->
<svg version="1.1" id="레이어_1" xmlns="http://www.w3.org/2000/svg" xmlns:xlink="http://www.w3.org/1999/xlink" x="0px"
	 y="0px" viewBox="0 0 162 228" style="enable-background:new 0 0 162 228;" xml:space="preserve">
<style type="text/css">
	.st0{fill:#86D145;}
	.st1{fill:#182B57;}
	.st2{fill:#850404;}
	.st3{fill:#5CAB18;}
	.st4{fill:#3D3D3D;}
	.st5{fill:#FFCE2E;}
	.st6{fill:#B87400;}
	.st7{fill:#C4B78E;}
	.st8{fill:#8A8A8A;}
	.st9{fill:#FFFFFF;}
	.st10{fill:#A37340;}
	.st11{fill:#D4AF53;}
	.st12{fill:#D4C190;}
	.st13{fill:#8A6A36;}
	.st14{fill:#DEDEDE;}
</style>
<g>
	<path class="st0" d="M157.7,100.9c1.3,2.7,2,5.6,2.7,8.5c0.6,2.4,1.1,5.2-0.1,7.4c-1.2,2.2-4,3.3-6.5,3.1c-2.5-0.2-4.9-1.4-7-2.9
		c-2.8-1.9-5.4-4.1-7.7-6.6c-1.6-1.8-3.1-3.8-3.9-6.1c-1.6-4.9,0.5-10.7,4.9-13.4c3.3-2,7.7-2,11.1-0.2
		C155,92.6,155.9,97.2,157.7,100.9z"/>
	<path d="M154.4,120.5c-0.2,0-0.4,0-0.7,0c-2.9-0.2-5.4-1.7-7.3-3c-2.9-1.9-5.5-4.2-7.8-6.7c-2.1-2.3-3.4-4.3-4.1-6.4
		c-1.8-5.2,0.6-11.4,5.2-14.2c3.5-2.1,8.1-2.1,11.8-0.2c3.1,1.6,4.4,4.8,5.6,7.8c0.4,0.9,0.8,1.9,1.2,2.8l0,0c1.3,2.8,2,5.7,2.7,8.6
		c0.6,2.7,1.1,5.5-0.1,7.9C159.6,119.5,156.8,120.5,154.4,120.5z M145.8,90.1c-1.9,0-3.7,0.5-5.3,1.4c-4.1,2.5-6.2,7.9-4.6,12.5
		c0.6,1.9,1.8,3.7,3.8,5.9c2.2,2.5,4.8,4.6,7.5,6.5c1.8,1.2,4.1,2.5,6.6,2.7c2.1,0.2,4.7-0.6,5.8-2.7c1-1.9,0.6-4.3,0-6.9
		c-0.7-2.8-1.3-5.7-2.6-8.3c-0.5-0.9-0.8-1.9-1.2-2.8c-1.2-2.9-2.3-5.7-4.9-7C149.3,90.5,147.5,90.1,145.8,90.1z"/>
</g>
<g>
	<path class="st1" d="M142,76.3c6.3,3.6,10.9,10,12.9,17.1c-3.6,1.6-7.4,2.9-10.8,4.8c-3.6,2-6.2,4.7-8.1,8.2
		c-3.2-1.1-5.8-9.6-7.1-12.6c-2.1-4.9-3.9-9.9-4.8-15.2c-0.5-2.8-1.2-4.1,1.5-5c1.7-0.6,4.1-0.3,5.8-0.1
		C134.9,73.8,138.9,74.5,142,76.3z"/>
	<path d="M136.3,107.2l-0.6-0.2c-2.9-1-5-6.6-6.6-10.7c-0.3-0.9-0.6-1.7-0.9-2.3c-2.5-5.7-4.1-10.6-4.9-15.3
		c-0.1-0.4-0.1-0.8-0.2-1.1c-0.4-2.1-0.7-3.7,2.2-4.7c1.6-0.6,3.8-0.4,5.5-0.2l0.6,0.1c4.6,0.4,8.2,1.3,10.9,2.9l0,0
		c6.2,3.6,11,9.9,13.2,17.5l0.2,0.6l-0.6,0.3c-1.3,0.6-2.7,1.2-4.1,1.7c-2.2,0.9-4.6,1.8-6.7,3c-3.4,1.9-6,4.5-7.8,7.9L136.3,107.2z
		 M128.1,74c-0.8,0-1.7,0.1-2.3,0.3c-1.7,0.6-1.6,1-1.2,3c0.1,0.4,0.1,0.7,0.2,1.2c0.8,4.6,2.3,9.4,4.8,15c0.3,0.6,0.6,1.4,0.9,2.3
		c1.2,3.1,3.1,8.2,5.2,9.5c1.9-3.4,4.5-6,8-7.9c2.2-1.2,4.6-2.2,6.8-3.1c1.1-0.5,2.3-0.9,3.5-1.4c-2.1-6.9-6.6-12.8-12.3-16
		c-2.5-1.4-5.9-2.3-10.3-2.7l-0.6-0.1C129.9,74.1,129,74,128.1,74z"/>
</g>
<g id="XMLID_176_">
	<g>
		<g>
			<path class="st1" d="M119,79c1.7,0.3,3.4,0.6,5.1,0.8l0,0c1.5-3.7,6.3-8.2,6.6-8.4c-1.5-0.1-3-0.2-4.5-0.1
				c-2,0.1-3.4,0.1-4.5,1.6C120.5,74.6,119.9,77.2,119,79z"/>
		</g>
		<g>
			<path class="st2" d="M124,79.9c2,0.3,4.1,0.7,6.1,1c0.1,0,0.2,0,0.3,0c0.2,0,0.3-0.2,0.4-0.4c1.7-2.8,3.7-5.4,6-7.8
				c-0.2,0.2-4.5-1.1-5.1-1.2c-0.4-0.1-0.8-0.1-1.1-0.1l0,0L124,79.9L124,79.9z"/>
		</g>
		<g>
			<path d="M124,79.8l6.6-8.4C130.3,71.7,125.6,76.1,124,79.8z"/>
		</g>
	</g>
	<g>
		<g>
			<path d="M130.3,81.6c-0.1,0-0.2,0-0.3,0l-6.3-1c-1.6-0.3-3.3-0.5-4.9-0.8c-0.2,0-0.4-0.2-0.5-0.4s-0.1-0.4,0-0.7
				c0.3-0.7,0.6-1.5,0.9-2.3c0.5-1.3,1-2.7,1.8-3.8c1.2-1.7,2.7-1.8,4.5-1.9l0.5,0c1.5-0.1,3-0.1,4.5,0.1c0,0,0.1,0,0.1,0
				c0.4,0,0.8,0.1,1.2,0.1c0.3,0,0.9,0.2,2,0.5c0.9,0.2,2.5,0.7,2.9,0.7c0.2-0.1,0.5,0,0.7,0.2c0.3,0.3,0.3,0.7,0,1l0,0
				c-2.3,2.3-4.3,4.8-5.9,7.6c-0.1,0.2-0.4,0.6-0.9,0.7C130.5,81.6,130.4,81.6,130.3,81.6z M120,78.5c1.3,0.2,2.7,0.4,4,0.7l6.2,1
				c0,0,0,0,0-0.1c1.5-2.5,3.2-4.8,5.2-6.9c-0.5-0.1-1.1-0.3-1.9-0.5c-0.7-0.2-1.6-0.4-1.8-0.4c-0.3,0-0.7-0.1-1-0.1
				c0,0-0.1,0-0.1,0c-1.4-0.1-2.9-0.2-4.4-0.1l-0.5,0c-1.8,0.1-2.7,0.2-3.4,1.3c-0.7,0.9-1.2,2.2-1.6,3.5
				C120.4,77.4,120.2,77.9,120,78.5z"/>
		</g>
		<g>
			<path d="M124,80.6c-0.1,0-0.2,0-0.3-0.1c-0.4-0.2-0.5-0.6-0.4-0.9c1.6-4,6.7-8.7,6.7-8.7c0.3-0.3,0.8-0.2,1,0.1
				c0.3,0.3,0.2,0.8-0.1,1c0,0-4.9,4.5-6.4,8.2C124.6,80.4,124.3,80.6,124,80.6z"/>
		</g>
		<g>
			<path d="M124,80.6c-0.2,0-0.3,0-0.4-0.2c-0.3-0.2-0.4-0.7-0.1-1L130,71l0.6,0.4l0.5,0.5l-6.5,8.4C124.5,80.5,124.3,80.6,124,80.6
				z"/>
		</g>
	</g>
</g>
<g>
	<g>
		<path class="st0" d="M1.2,193.3c-0.3,0.8-0.2,1.6,0.3,2.4c1.7,2.5,8.1,1.4,10.4,0.9c32.7-7.2,64.5-20.1,90.4-41.2
			c1.7-1.4,3.5-3,4.3-5.1c0.8-2,0.5-4.3,0.1-6.4c-1-5.4-2.9-10.9-6.6-14.9c-14.8-15.9-34.8,13.8-45.9,22.9
			c-9.1,7.5-18.6,14.7-28.1,21.8c-4.8,3.5-9.6,7-14.4,10.5c-2.4,1.7-4.8,3.5-7.2,5.2C3.4,190,1.7,191.6,1.2,193.3z"/>
		<path d="M6.3,197.9c-2.2,0-4.5-0.4-5.5-1.9c-0.6-0.9-0.7-1.9-0.4-3l0,0c0.6-1.8,2.2-3.4,3.6-4.5c2.4-1.7,4.8-3.4,7.2-5.2
			c5.5-4,10.1-7.3,14.4-10.5c10.9-8,19.8-15,28-21.7c2.4-2,5.3-5,8.3-8.1c8.3-8.7,18.7-19.5,28.4-19.5c0,0,0.1,0,0.1,0
			c3.7,0,7.1,1.7,10.1,4.8c3.4,3.6,5.6,8.6,6.8,15.3c0.4,2.2,0.7,4.6-0.2,6.8c-0.9,2.2-2.6,3.8-4.5,5.4
			c-23.9,19.5-54.4,33.4-90.7,41.4C10.9,197.5,8.6,197.9,6.3,197.9z M1.8,193.5L1.8,193.5c-0.2,0.7-0.2,1.2,0.2,1.7
			c1.1,1.6,5.6,1.5,9.6,0.6c36-7.9,66.4-21.7,90.1-41.1c1.7-1.4,3.4-2.9,4.1-4.8c0.7-1.9,0.5-4,0.1-6c-1.1-6.4-3.2-11.1-6.4-14.6
			c-2.7-2.9-5.7-4.4-9-4.4c0,0-0.1,0-0.1,0c-9.1,0-19.2,10.6-27.4,19c-3.1,3.2-6,6.3-8.4,8.3c-8.3,6.8-17.2,13.7-28.1,21.8
			c-4.3,3.1-8.8,6.5-14.4,10.5c-2.4,1.7-4.8,3.5-7.2,5.2C3.8,190.6,2.3,192.1,1.8,193.5z"/>
	</g>
	<g>
		<path class="st3" d="M56.7,167.8c-0.3,0-0.5-0.1-0.6-0.4c-2.1-4.3-2.5-9.3-1-13.9c0.1-0.4,0.5-0.6,0.9-0.5
			c0.4,0.1,0.6,0.5,0.5,0.9c-1.4,4.2-1,8.8,0.9,12.7c0.2,0.4,0,0.8-0.3,1C56.9,167.7,56.8,167.8,56.7,167.8z"/>
	</g>
	<g>
		<path class="st3" d="M66.9,164.9c-0.2,0-0.4-0.1-0.6-0.3c-3.8-4.6-5-11.2-2.9-16.8c0.1-0.4,0.6-0.6,0.9-0.4
			c0.4,0.1,0.6,0.6,0.4,0.9c-1.9,5.1-0.9,11.1,2.6,15.3c0.3,0.3,0.2,0.8-0.1,1C67.3,164.8,67.1,164.9,66.9,164.9z"/>
	</g>
</g>
<path d="M69.7,151.6c1.9,4.4,5,8.1,8.4,11.4c2.9,2.8,6.9,6.9,10.9,7.9c5.7,1.4,11.6,1.6,17.4,1.6c8.3-0.1,13.8-2.4,19.9-7.9
	c3.3-3,6.4-6.3,8.4-10.3c4.4-8.8,2.5-19.4-0.5-28.8c-2-6.4-4.7-12.9-9.7-17.3c-3.9-3.5-9-5.5-14.1-6.8c-12-2.9-30.4-1.9-37.6,10.2
	c-2.7,4.6-3.2,11.3-4.1,16.4C67.3,135.7,66.5,144.1,69.7,151.6z"/>
<g>
	<path class="st4" d="M81.4,140.9c8.7,3.5,18.3,3.5,27.5,2.8c7.2-0.5,15.4-1.3,19.9-8.3c2.1-3.3,3.1-7.5,1.9-11.3
		c-1.1-3.9-4.2-6.7-7.5-8.7c-7.2-4.3-15.8-5.1-24.1-4.9c-4,0.1-8.1,0.4-12,1.7c-5.3,1.8-13.3,6.9-15.2,13c-1.8,6,1.7,11.9,6.7,14.4
		C79.5,140.1,80.5,140.5,81.4,140.9z"/>
	<path d="M100.4,144.8c-6.3,0-13-0.7-19.3-3.2c-1-0.4-1.9-0.8-2.8-1.3c-5.1-2.5-9.1-8.6-7.1-15.3c2-6.7,10.7-11.8,15.6-13.5
		c4.2-1.4,8.5-1.7,12.2-1.7c6.6-0.1,16.3,0.2,24.5,5c2.9,1.7,6.5,4.7,7.9,9.1c1.1,3.7,0.4,8.2-2,11.9c-4.8,7.5-13.9,8.1-20.5,8.6
		C106.2,144.7,103.3,144.8,100.4,144.8z M101.2,111.2c-0.8,0-1.5,0-2.2,0c-3.6,0.1-7.8,0.3-11.8,1.7c-5,1.7-12.9,6.7-14.7,12.5
		c-1.8,5.9,1.8,11.3,6.4,13.6c0.9,0.4,1.8,0.9,2.7,1.2l0,0c8.9,3.6,18.7,3.4,27.1,2.8c6.7-0.5,15-1.1,19.4-8
		c2.1-3.3,2.8-7.3,1.8-10.7c-1.2-4-4.6-6.7-7.2-8.3C115.8,111.9,107.5,111.2,101.2,111.2z"/>
</g>
<g>
	<g>
		<path class="st1" d="M127.1,130.7c10.7-13,8-31.1,4.7-46.3c-0.7-3.4-0.6-8.2-3.3-10.7c-3.3-2.9-8-4.3-12.3-4.3
			c-3.9,0-7.7-1.6-11.7-1.8c-4.6-0.3-9.3,0.1-13.8,1c-2.6,0.6-5,2.2-7.6,2.6c-2.4,0.5-4.3,0.1-6.6,1.5c-3.6,2.2-7.1,4.7-9.7,8.1
			c-3.5,4.7-2.2,13.8-1.2,19.1c1.1,6.3-0.1,12.6,3.1,18.5c2.7,5,5.9,9.8,9.4,14.2c3.7,4.5,9.2,4.6,14.8,4.8
			c5.2,0.3,10.4,0.3,15.6,0.3c2.8,0,5.5-0.1,8.2-0.7C121.1,136.1,124.5,133.8,127.1,130.7z"/>
		<path d="M105,138.6c-4.1,0-8.2-0.1-12.3-0.3l-0.8,0c-5.3-0.3-10.9-0.5-14.5-5.1c-3.5-4.4-6.7-9.2-9.5-14.3
			c-2.2-4.1-2.4-8.3-2.6-12.4c-0.1-2.1-0.2-4.2-0.6-6.4c-1.2-6.7-2.1-15.1,1.4-19.7c2.9-3.9,7.1-6.6,9.9-8.3
			c1.8-1.1,3.3-1.2,4.8-1.3c0.7-0.1,1.3-0.1,2.1-0.3c1.2-0.2,2.4-0.7,3.7-1.3c1.2-0.5,2.5-1.1,3.9-1.4c4.6-1,9.4-1.3,14-1.1
			c1.9,0.1,3.8,0.5,5.6,0.9c2.1,0.5,4.1,0.9,6.1,0.9c4.8,0,9.6,1.7,12.8,4.5c2.3,2,2.7,5.4,3.1,8.4c0.1,1,0.3,1.9,0.4,2.7
			c3.4,15.7,6,33.7-4.9,46.9l0,0c-2.9,3.5-6.5,5.7-10.9,6.7c-2.8,0.6-5.7,0.7-8.4,0.7C107.3,138.6,106.1,138.6,105,138.6z
			 M101.3,68.2c-3.5,0-7.1,0.4-10.6,1.1c-1.2,0.3-2.4,0.8-3.6,1.3c-1.3,0.5-2.6,1.1-4,1.4c-0.8,0.2-1.5,0.2-2.2,0.3
			c-1.4,0.1-2.7,0.2-4.2,1.1c-4.4,2.6-7.4,5.1-9.5,7.9c-3.5,4.7-1.8,14.8-1.1,18.6c0.4,2.2,0.5,4.4,0.6,6.5c0.2,4.1,0.4,8,2.4,11.8
			c2.7,5,5.9,9.8,9.4,14.1c3.3,4.1,8.2,4.3,13.5,4.5l0.8,0c5.2,0.3,10.4,0.3,15.5,0.3c2.8,0,5.5-0.1,8.1-0.7
			c4.1-0.9,7.4-2.9,10.1-6.2l0,0c10.5-12.7,7.9-30.2,4.6-45.6c-0.2-0.9-0.3-1.8-0.5-2.8c-0.4-2.9-0.8-5.8-2.7-7.5
			c-2.9-2.6-7.4-4.1-11.9-4.2c-2.2,0-4.3-0.5-6.4-0.9c-1.8-0.4-3.6-0.8-5.4-0.9C103.4,68.3,102.4,68.2,101.3,68.2z"/>
	</g>
	<g>
		<path d="M104.9,137.2l-1.4-0.2c1.2-10.9,0.4-22.1-0.4-32.9c-0.4-6.3-0.9-12.8-1-19.3l1.4,0c0.1,6.4,0.5,12.9,1,19.2
			C105.3,114.9,106.1,126.2,104.9,137.2z"/>
	</g>
	<g>
		<g>
			<path class="st5" d="M127.2,95.3c-5.8,1.1-7.9-1-7.9-1s-1.2,2.7-7,3.7c0,0,2.5,14,10,12.6S127.2,95.3,127.2,95.3z"/>
			<path d="M121.3,111.4c-1.2,0-2.4-0.4-3.5-1.1c-4.5-3.1-6.1-11.7-6.2-12.1c-0.1-0.4,0.2-0.8,0.6-0.8c5.2-1,6.5-3.3,6.5-3.3
				c0.1-0.2,0.3-0.4,0.5-0.4c0.2,0,0.5,0,0.6,0.2c0,0,2,1.8,7.2,0.8c0.4-0.1,0.8,0.2,0.8,0.6c0.1,0.4,1.7,9-1.4,13.5
				c-1,1.4-2.3,2.3-4,2.6C122.1,111.4,121.7,111.4,121.3,111.4z M113.2,98.6c0.5,2.1,2.1,8.2,5.4,10.5c1.1,0.8,2.3,1,3.6,0.8
				c1.3-0.2,2.3-0.9,3.1-2c2.3-3.4,1.6-9.6,1.3-11.7c-3.9,0.6-6.1-0.2-7.1-0.8C118.8,96.2,117,97.8,113.2,98.6z"/>
		</g>
		<g>
			<path class="st6" d="M124.1,104c0.3,1.4-0.9,2-2.5,2.2c-1.5,0.3-2.9,0.2-3.1-1.2c-0.3-1.4,0.8-2.8,2.3-3
				C122.3,101.7,123.8,102.6,124.1,104z"/>
			<g>
				
					<ellipse transform="matrix(0.9832 -0.1823 0.1823 0.9832 -16.6976 23.0945)" class="st6" cx="117.3" cy="102.4" rx="0.9" ry="1.1"/>
				
					<ellipse transform="matrix(0.9832 -0.1823 0.1823 0.9832 -16.3488 24.331)" class="st6" cx="124.2" cy="101.1" rx="0.9" ry="1.1"/>
			</g>
			<g>
				
					<ellipse transform="matrix(0.9832 -0.1823 0.1823 0.9832 -16.322 23.4026)" class="st6" cx="119.2" cy="100.5" rx="0.9" ry="1.1"/>
				
					<ellipse transform="matrix(0.9832 -0.1823 0.1823 0.9832 -16.1896 23.8721)" class="st6" cx="121.8" cy="100" rx="0.9" ry="1.1"/>
			</g>
		</g>
	</g>
</g>
<g>
	<g>
		<path class="st1" d="M81.7,84.8c3.4,2.5,8.4,5.8,12,7.2c0.7,0.3,1.5,0.6,2.3,0.4c1-0.2,6.6-7.7,6.8-7.5c2.2,2,3,4.3,5.2,6.4
			c0.2,0.2,0.4,0.4,0.6,0.4c0.3,0.1,0.6,0,0.9-0.1c6-2.2,12-6.1,14.6-12.3c1.5-3.7,0.2-9.4-2.1-12.4c-3.1-4.2-8.6-5.9-13.8-6.7
			c-5.7-0.8-11.5-0.8-17.1-0.1c-6.3,0.7-9.3,2.6-13.3,7.8C72.4,75,75.3,80,81.7,84.8z"/>
		<path d="M95.6,93.2c-0.8,0-1.5-0.3-2.2-0.5c-3.8-1.5-8.9-4.9-12.2-7.3l0,0c-4.3-3.2-6.5-6.2-6.9-9.3c-0.4-2.7,0.6-5.5,3-8.5
			c4.2-5.4,7.4-7.3,13.8-8c5.9-0.7,11.7-0.6,17.3,0.1c6.8,1,11.5,3.2,14.3,6.9c2.4,3.2,3.9,9.1,2.2,13.1c-2.9,6.9-9.8,10.7-15,12.7
			c-0.4,0.1-0.8,0.3-1.3,0.2c-0.4-0.1-0.7-0.4-1-0.6c-1.1-1.1-1.9-2.2-2.6-3.3c-0.7-0.9-1.3-1.8-2.1-2.7c-0.5,0.5-1.2,1.5-1.9,2.3
			c-3,3.6-4.1,4.8-4.8,4.9C96,93.2,95.8,93.2,95.6,93.2z M99.3,60.5c-2.7,0-5.3,0.2-8,0.5c-6,0.7-8.8,2.4-12.8,7.5
			c-2.1,2.7-3,5.2-2.7,7.5c0.4,2.7,2.4,5.3,6.4,8.3l0,0c3.2,2.4,8.2,5.7,11.8,7.1c0.7,0.3,1.3,0.5,1.9,0.4c0.5-0.3,2.6-2.9,3.9-4.4
			c2.3-2.8,2.5-3,3-3l0.3,0l0.2,0.2c1.2,1.1,2,2.3,2.8,3.4c0.7,1.1,1.4,2.1,2.4,3c0.1,0.1,0.2,0.2,0.3,0.2c0.1,0,0.4-0.1,0.5-0.1
			c5-1.8,11.5-5.4,14.2-11.9c1.4-3.4,0.1-8.8-2-11.7c-2.5-3.4-6.9-5.5-13.3-6.4C105.3,60.7,102.3,60.5,99.3,60.5z"/>
	</g>
	<g>
		<g>
			<path class="st7" d="M110.6,88.2c-0.3,0-0.5-0.1-0.7-0.2c-0.2-0.2-0.6-0.6-0.5-1.4l0-0.1c0-0.1,0-0.2,0-0.3c0,0,0,0,0,0
				c0,0-0.2,0-0.3-0.1c-0.1,0-0.2-0.1-0.4-0.1c-0.6-0.2-0.7-0.6-0.7-0.8c0-0.3,0.1-0.6,0.4-0.9c0.3-0.2,0.5-0.5,0.9-0.6
				c0-0.4,0-0.7,0.1-1.1c0-0.4,0.2-0.6,0.4-0.7c0.1-0.1,0.3-0.1,0.4-0.1c0.2,0,0.3,0.1,0.4,0.1c0.2,0.1,0.4,0.2,0.6,0.3
				c0.2,0.1,0.5,0.3,0.6,0.3c0,0,0,0,0,0c0.1,0,0.2,0,0.3-0.1c0.2,0,0.4-0.1,0.6-0.1c0.1,0,0.1,0,0.2,0c0.7,0.1,1.3,0.7,1.3,1.3
				c0,0.5-0.3,0.9-0.5,1.1c0.1,0.1,0.1,0.1,0.2,0.2c0.4,0.5,0.5,1,0.3,1.5c-0.1,0.3-0.5,0.7-1.3,0.7c-0.1,0-0.3,0-0.4,0l-0.4-0.1
				c-0.1,0.2-0.2,0.4-0.5,0.7C111.4,88.1,111,88.2,110.6,88.2z"/>
		</g>
		<g>
			<path d="M110.2,82.5c0,0,0.1,0,0.1,0c0.4,0.2,0.9,0.6,1.4,0.7c0,0,0.1,0,0.1,0c0.3,0,0.6-0.2,0.9-0.2c0,0,0.1,0,0.1,0
				c0.3,0,0.7,0.3,0.7,0.6c0,0.5-0.6,0.8-0.7,1.2c0.2,0.2,0.4,0.4,0.6,0.5c0.2,0.2,0.3,0.5,0.2,0.7c-0.1,0.2-0.4,0.3-0.7,0.3
				c-0.1,0-0.2,0-0.3,0c-0.2,0-0.4-0.1-0.7-0.1c0,0-0.1,0-0.1,0c0,0-0.1,0-0.1,0c-0.1,0-0.1,0.1-0.2,0.2c-0.1,0.2-0.2,0.5-0.4,0.7
				c-0.1,0.1-0.3,0.2-0.5,0.2c-0.1,0-0.2,0-0.3-0.1c-0.2-0.2-0.2-0.5-0.2-0.7c0-0.3,0.1-0.5,0-0.8c-0.2-0.4-0.7-0.4-1.1-0.6
				c-0.1,0-0.2-0.1-0.2-0.2c0-0.1,0.1-0.2,0.1-0.2c0.3-0.3,0.7-0.5,1.1-0.7c0-0.5,0-1,0.1-1.5C110.1,82.6,110.1,82.5,110.2,82.5
				C110.2,82.5,110.2,82.5,110.2,82.5 M110.2,81c-0.3,0-0.6,0.1-0.8,0.2c-0.2,0.2-0.7,0.5-0.8,1.2c0,0.3,0,0.5-0.1,0.8
				c-0.2,0.2-0.4,0.3-0.6,0.5c-0.6,0.6-0.6,1.2-0.6,1.5c0.1,0.6,0.5,1.2,1.2,1.4c0.1,0,0.1,0,0.2,0.1c0,0.8,0.2,1.4,0.8,1.9
				c0.3,0.2,0.7,0.4,1.1,0.4c0.6,0,1.1-0.2,1.5-0.6c0.1-0.1,0.2-0.3,0.3-0.4c0.1,0,0.3,0,0.5,0c1.3,0,1.8-0.8,2-1.1
				c0.3-0.6,0.2-1.4-0.2-2.1c0.2-0.3,0.3-0.7,0.3-1.1c0-1-0.9-1.9-2-2c-0.1,0-0.2,0-0.3,0c-0.3,0-0.6,0.1-0.8,0.1c0,0,0,0,0,0
				c-0.1,0-0.2-0.1-0.3-0.2c-0.2-0.1-0.4-0.3-0.7-0.4C110.7,81.1,110.5,81,110.2,81L110.2,81z"/>
		</g>
	</g>
	<g>
		<g>
			<path class="st7" d="M94.1,89.1c-0.3,0-0.5-0.1-0.7-0.2c-0.2-0.2-0.6-0.6-0.5-1.4l0-0.1c0-0.1,0-0.2,0-0.3c0,0,0,0,0,0
				c0,0-0.2,0-0.3-0.1c-0.1,0-0.2-0.1-0.4-0.1c-0.6-0.2-0.7-0.6-0.7-0.8c0-0.3,0.1-0.6,0.4-0.9c0.3-0.2,0.5-0.5,0.9-0.6
				c0-0.4,0-0.7,0.1-1.1c0-0.4,0.2-0.6,0.4-0.7c0.1-0.1,0.3-0.1,0.4-0.1c0.2,0,0.3,0.1,0.4,0.1c0.2,0.1,0.4,0.2,0.6,0.3
				c0.2,0.1,0.5,0.3,0.6,0.3c0,0,0,0,0,0c0.1,0,0.2,0,0.3-0.1c0.2,0,0.4-0.1,0.6-0.1c0.1,0,0.1,0,0.2,0c0.7,0.1,1.3,0.7,1.3,1.3
				c0,0.5-0.3,0.9-0.5,1.1c0.1,0.1,0.1,0.1,0.2,0.2c0.4,0.5,0.5,1,0.3,1.5c-0.1,0.3-0.5,0.7-1.3,0.7c-0.1,0-0.3,0-0.4,0l-0.4-0.1
				c-0.1,0.2-0.2,0.4-0.4,0.7C94.8,89,94.4,89.1,94.1,89.1z"/>
		</g>
		<g>
			<path d="M93.6,83.4c0,0,0.1,0,0.1,0c0.4,0.2,0.9,0.6,1.4,0.7c0,0,0.1,0,0.1,0c0.3,0,0.6-0.2,0.9-0.2c0,0,0.1,0,0.1,0
				c0.3,0,0.7,0.3,0.7,0.6c0,0.5-0.6,0.8-0.7,1.2c0.2,0.2,0.4,0.4,0.6,0.5c0.2,0.2,0.3,0.5,0.2,0.7c-0.1,0.2-0.4,0.3-0.7,0.3
				c-0.1,0-0.2,0-0.3,0c-0.2,0-0.4-0.1-0.7-0.1c0,0-0.1,0-0.1,0c0,0-0.1,0-0.1,0c-0.1,0-0.1,0.1-0.2,0.2c-0.1,0.2-0.2,0.5-0.4,0.7
				c-0.1,0.1-0.3,0.2-0.5,0.2c-0.1,0-0.2,0-0.3-0.1c-0.2-0.2-0.2-0.5-0.2-0.7c0-0.3,0.1-0.5,0-0.8c-0.2-0.4-0.7-0.4-1.1-0.6
				c-0.1,0-0.2-0.1-0.2-0.2c0-0.1,0.1-0.2,0.1-0.2c0.3-0.3,0.7-0.5,1.1-0.7c0-0.5,0-1,0.1-1.5C93.5,83.5,93.5,83.4,93.6,83.4
				C93.6,83.4,93.6,83.4,93.6,83.4 M93.6,81.9c-0.3,0-0.6,0.1-0.8,0.2c-0.2,0.2-0.7,0.5-0.8,1.2c0,0.3,0,0.5-0.1,0.8
				c-0.2,0.2-0.4,0.3-0.6,0.5c-0.6,0.6-0.6,1.2-0.6,1.5c0.1,0.6,0.5,1.2,1.2,1.4c0.1,0,0.1,0,0.2,0.1c0,0.8,0.2,1.4,0.8,1.9
				c0.3,0.2,0.7,0.4,1.1,0.4c0.6,0,1.1-0.2,1.5-0.6c0.1-0.1,0.2-0.3,0.3-0.4c0.1,0,0.3,0,0.5,0c1.3,0,1.8-0.8,2-1.1
				c0.3-0.6,0.2-1.4-0.2-2.1c0.2-0.3,0.3-0.7,0.3-1.1c0-1-0.9-1.9-2-2c-0.1,0-0.2,0-0.3,0c-0.3,0-0.6,0.1-0.8,0.1c0,0,0,0,0,0
				c-0.1,0-0.2-0.1-0.3-0.2c-0.2-0.1-0.4-0.3-0.7-0.4C94.1,82,93.9,81.9,93.6,81.9L93.6,81.9z"/>
		</g>
	</g>
	<g>
		<g>
			<path class="st7" d="M86.5,84.8c-0.2,0-0.4-0.1-0.6-0.2c-0.2-0.2-0.6-0.5-0.4-1.3c0-0.1,0-0.1,0-0.2c0,0-0.1,0-0.1,0
				c-0.1,0-0.2-0.1-0.3-0.1c-0.5-0.2-0.6-0.6-0.7-0.8c0-0.2,0-0.5,0.3-0.8c0.2-0.2,0.4-0.3,0.6-0.5c0-0.3,0-0.5,0-0.8
				c0-0.4,0.2-0.6,0.4-0.7c0.1-0.1,0.3-0.1,0.4-0.1c0.1,0,0.3,0,0.4,0.1c0.2,0.1,0.3,0.2,0.5,0.3c0.1,0.1,0.3,0.2,0.4,0.2
				c0,0,0.1,0,0.1,0c0.1,0,0.3-0.1,0.5-0.1c0,0,0.1,0,0.2,0c0.7,0.1,1.2,0.6,1.2,1.2c0,0.4-0.2,0.7-0.3,0.9c0,0,0,0,0,0
				c0.4,0.4,0.5,0.9,0.3,1.4c-0.1,0.2-0.4,0.6-1.2,0.6c-0.1,0-0.2,0-0.3,0l-0.2,0c-0.1,0.1-0.2,0.3-0.3,0.5
				C87.2,84.6,86.8,84.8,86.5,84.8z"/>
		</g>
		<g>
			<path d="M86.2,80.1C86.2,80.1,86.3,80.1,86.2,80.1c0.4,0.2,0.8,0.5,1.2,0.6c0,0,0.1,0,0.1,0c0.2,0,0.5-0.1,0.7-0.1
				c0,0,0.1,0,0.1,0c0.3,0,0.5,0.2,0.5,0.5c0,0.4-0.5,0.6-0.5,1c0.1,0.2,0.3,0.3,0.4,0.4c0.1,0.2,0.2,0.4,0.1,0.6
				c-0.1,0.2-0.3,0.2-0.5,0.2c-0.1,0-0.2,0-0.2,0c-0.2,0-0.3,0-0.5-0.1c0,0-0.1,0-0.1,0c0,0-0.1,0-0.1,0c-0.1,0-0.1,0.1-0.1,0.1
				c-0.1,0.2-0.2,0.4-0.3,0.6C86.8,84,86.6,84,86.5,84c-0.1,0-0.1,0-0.2-0.1c-0.2-0.1-0.2-0.4-0.2-0.6c0-0.2,0.1-0.4,0-0.6
				c-0.1-0.3-0.6-0.3-0.9-0.4c-0.1,0-0.2-0.1-0.2-0.2c0-0.1,0.1-0.1,0.1-0.2c0.3-0.2,0.5-0.4,0.9-0.6c0-0.4,0-0.8,0-1.2
				C86.1,80.2,86.1,80.1,86.2,80.1C86.2,80.1,86.2,80.1,86.2,80.1 M86.2,78.6c-0.3,0-0.6,0.1-0.8,0.2c-0.2,0.2-0.7,0.5-0.7,1.2
				c0,0.2,0,0.3,0,0.5c-0.1,0.1-0.3,0.2-0.4,0.3c-0.6,0.5-0.6,1.1-0.6,1.4c0.1,0.6,0.5,1.1,1.1,1.3c0,0.6,0.3,1.1,0.8,1.5
				c0.3,0.2,0.7,0.3,1.1,0.3c0.5,0,1-0.2,1.4-0.6c0.1-0.1,0.1-0.1,0.2-0.2c0.1,0,0.1,0,0.2,0c1.2,0,1.7-0.7,1.8-1
				c0.3-0.6,0.2-1.2-0.1-1.8c0.1-0.2,0.2-0.5,0.2-0.9c0-1-0.8-1.8-1.8-1.9c-0.1,0-0.2,0-0.3,0c-0.2,0-0.5,0-0.6,0.1
				c0,0-0.1,0-0.1-0.1c-0.2-0.1-0.4-0.2-0.6-0.3C86.6,78.7,86.4,78.6,86.2,78.6L86.2,78.6z"/>
		</g>
	</g>
	<g>
		<g>
			<path class="st7" d="M80.4,80.2c-0.2,0-0.4-0.1-0.6-0.2c-0.2-0.2-0.5-0.5-0.5-1.3c0-0.1,0-0.1,0-0.2c0,0-0.1,0-0.1,0
				c-0.1,0-0.2-0.1-0.3-0.1c-0.5-0.2-0.6-0.6-0.7-0.8c0-0.2,0-0.5,0.3-0.8c0.2-0.2,0.4-0.3,0.6-0.5c0-0.3,0-0.5,0-0.8
				c0-0.4,0.2-0.6,0.4-0.7c0.1-0.1,0.3-0.1,0.4-0.1c0.2,0,0.3,0,0.4,0.1c0.2,0.1,0.3,0.2,0.5,0.3c0.1,0.1,0.3,0.2,0.4,0.2
				c0,0,0.1,0,0.1,0c0.1,0,0.3-0.1,0.5-0.1c0,0,0.1,0,0.2,0c0.7,0.1,1.2,0.6,1.2,1.2c0,0.4-0.2,0.7-0.3,0.9c0,0,0,0,0,0
				c0.4,0.4,0.5,0.9,0.3,1.4c-0.1,0.2-0.4,0.6-1.2,0.6c-0.1,0-0.2,0-0.3,0l-0.2,0c-0.1,0.1-0.2,0.3-0.3,0.5
				C81.1,80,80.8,80.2,80.4,80.2z"/>
		</g>
		<g>
			<path d="M80.1,75.5C80.1,75.5,80.2,75.5,80.1,75.5c0.4,0.2,0.8,0.5,1.2,0.6c0,0,0.1,0,0.1,0c0.2,0,0.5-0.1,0.7-0.1
				c0,0,0.1,0,0.1,0c0.3,0,0.5,0.2,0.5,0.5c0,0.4-0.5,0.6-0.5,1c0.1,0.2,0.3,0.3,0.4,0.4c0.1,0.2,0.2,0.4,0.1,0.6
				c-0.1,0.2-0.3,0.2-0.5,0.2c-0.1,0-0.2,0-0.2,0c-0.2,0-0.3,0-0.5-0.1c0,0-0.1,0-0.1,0c0,0-0.1,0-0.1,0c-0.1,0-0.1,0.1-0.1,0.1
				c-0.1,0.2-0.2,0.4-0.3,0.6c-0.1,0.1-0.2,0.2-0.4,0.2c-0.1,0-0.1,0-0.2-0.1C80,79.2,80,79,80.1,78.8c0-0.2,0.1-0.4,0-0.6
				c-0.1-0.3-0.6-0.3-0.9-0.4c-0.1,0-0.2-0.1-0.2-0.2c0-0.1,0.1-0.1,0.1-0.2c0.3-0.2,0.5-0.4,0.9-0.6c0-0.4,0-0.8,0-1.2
				C80,75.6,80,75.5,80.1,75.5C80.1,75.5,80.1,75.5,80.1,75.5 M80.1,74c-0.3,0-0.6,0.1-0.8,0.2c-0.2,0.2-0.7,0.5-0.7,1.2
				c0,0.2,0,0.3,0,0.5c-0.1,0.1-0.3,0.2-0.4,0.3c-0.6,0.5-0.6,1.1-0.6,1.4c0.1,0.6,0.5,1.1,1.1,1.3c0,0.6,0.3,1.1,0.8,1.5
				c0.3,0.2,0.7,0.3,1.1,0.3c0.5,0,1-0.2,1.4-0.6c0.1-0.1,0.1-0.1,0.2-0.2c0.1,0,0.1,0,0.2,0c1.2,0,1.7-0.7,1.8-1
				c0.3-0.6,0.2-1.2-0.1-1.8c0.1-0.2,0.2-0.5,0.2-0.9c0-1-0.8-1.8-1.8-1.9c-0.1,0-0.2,0-0.3,0c-0.2,0-0.5,0-0.6,0.1
				c0,0-0.1,0-0.1-0.1c-0.2-0.1-0.4-0.2-0.6-0.3C80.6,74.1,80.3,74,80.1,74L80.1,74z"/>
		</g>
	</g>
	<g>
		<g>
			<path class="st7" d="M121.4,78.7c-0.2,0-0.4-0.1-0.6-0.2c-0.2-0.2-0.5-0.5-0.4-1.3c0-0.1,0-0.1,0-0.2c0,0-0.1,0-0.1,0
				c-0.1,0-0.2-0.1-0.3-0.1c-0.5-0.2-0.6-0.6-0.7-0.8c0-0.2,0-0.5,0.3-0.8c0.2-0.2,0.4-0.3,0.6-0.5c0-0.3,0-0.5,0-0.8
				c0-0.4,0.2-0.6,0.4-0.7c0.1-0.1,0.3-0.1,0.4-0.1c0.2,0,0.3,0,0.4,0.1c0.2,0.1,0.3,0.2,0.5,0.3c0.1,0.1,0.3,0.2,0.4,0.2
				c0,0,0.1,0,0.1,0c0.1,0,0.3-0.1,0.5-0.1c0,0,0.1,0,0.2,0c0.7,0.1,1.2,0.6,1.2,1.2c0,0.4-0.2,0.7-0.3,0.9c0,0,0,0,0,0
				c0.4,0.4,0.5,0.9,0.3,1.4c-0.1,0.2-0.4,0.6-1.2,0.6c-0.1,0-0.2,0-0.3,0l-0.2,0c-0.1,0.1-0.2,0.3-0.3,0.5
				C122,78.6,121.7,78.7,121.4,78.7z"/>
		</g>
		<g>
			<path d="M121,74C121.1,74,121.1,74,121,74c0.4,0.2,0.8,0.5,1.2,0.6c0,0,0.1,0,0.1,0c0.2,0,0.5-0.1,0.7-0.1c0,0,0.1,0,0.1,0
				c0.3,0,0.5,0.2,0.5,0.5c0,0.4-0.5,0.6-0.5,1c0.1,0.2,0.3,0.3,0.4,0.4c0.1,0.2,0.2,0.4,0.1,0.6c-0.1,0.2-0.3,0.2-0.5,0.2
				c-0.1,0-0.2,0-0.2,0c-0.2,0-0.3,0-0.5-0.1c0,0-0.1,0-0.1,0c0,0-0.1,0-0.1,0c-0.1,0-0.1,0.1-0.1,0.1c-0.1,0.2-0.2,0.4-0.3,0.6
				c-0.1,0.1-0.2,0.2-0.4,0.2c-0.1,0-0.1,0-0.2-0.1c-0.2-0.1-0.2-0.4-0.2-0.6c0-0.2,0.1-0.4,0-0.6c-0.1-0.3-0.6-0.3-0.9-0.4
				c-0.1,0-0.2-0.1-0.2-0.2c0-0.1,0.1-0.1,0.1-0.2c0.3-0.2,0.5-0.4,0.9-0.6c0-0.4,0-0.8,0-1.2C120.9,74.1,120.9,74.1,121,74
				C121,74,121,74,121,74 M121,72.6c-0.3,0-0.6,0.1-0.8,0.2c-0.2,0.2-0.7,0.5-0.7,1.2c0,0.2,0,0.3,0,0.5c-0.1,0.1-0.3,0.2-0.4,0.3
				c-0.6,0.5-0.6,1.1-0.6,1.4c0.1,0.6,0.5,1.1,1.1,1.3c0,0.6,0.3,1.1,0.8,1.5c0.3,0.2,0.7,0.3,1.1,0.3c0.5,0,1-0.2,1.4-0.6
				c0.1-0.1,0.1-0.1,0.2-0.2c0.1,0,0.1,0,0.2,0c1.2,0,1.7-0.7,1.8-1c0.3-0.6,0.2-1.2-0.1-1.8c0.1-0.2,0.2-0.5,0.2-0.9
				c0-1-0.8-1.8-1.8-1.9c-0.1,0-0.2,0-0.3,0c-0.2,0-0.5,0-0.6,0.1c0,0-0.1,0-0.1-0.1c-0.2-0.1-0.4-0.2-0.6-0.3
				C121.5,72.6,121.3,72.6,121,72.6L121,72.6z"/>
		</g>
	</g>
	<g>
		<g>
			<path class="st7" d="M117.1,83.9c-0.2,0-0.5-0.1-0.6-0.2c-0.2-0.2-0.5-0.5-0.4-1.3c0-0.1,0-0.1,0-0.2c0,0-0.1,0-0.1,0
				c-0.1,0-0.2-0.1-0.3-0.1c-0.5-0.2-0.6-0.6-0.7-0.8c0-0.2,0-0.5,0.3-0.8c0.2-0.2,0.4-0.3,0.6-0.5c0-0.3,0-0.5,0-0.8
				c0-0.4,0.2-0.6,0.4-0.7c0.1-0.1,0.3-0.1,0.4-0.1c0.2,0,0.3,0.1,0.4,0.1c0.2,0.1,0.3,0.2,0.5,0.3c0.1,0.1,0.3,0.2,0.4,0.2
				c0,0,0.1,0,0.1,0c0.1,0,0.3-0.1,0.5-0.1c0,0,0.1,0,0.2,0c0.7,0.1,1.2,0.6,1.2,1.2c0,0.4-0.2,0.7-0.3,0.9c0,0,0,0,0,0
				c0.4,0.4,0.5,0.9,0.3,1.4c-0.1,0.2-0.4,0.6-1.2,0.6c-0.1,0-0.2,0-0.3,0l-0.2,0c-0.1,0.1-0.2,0.3-0.3,0.5
				C117.8,83.7,117.4,83.9,117.1,83.9z"/>
		</g>
		<g>
			<path d="M116.8,79.2C116.8,79.2,116.8,79.2,116.8,79.2c0.4,0.2,0.8,0.5,1.2,0.6c0,0,0.1,0,0.1,0c0.2,0,0.5-0.1,0.7-0.1
				c0,0,0.1,0,0.1,0c0.3,0,0.5,0.2,0.5,0.5c0,0.4-0.5,0.6-0.5,1c0.1,0.2,0.3,0.3,0.4,0.4c0.1,0.2,0.2,0.4,0.1,0.6
				c-0.1,0.2-0.3,0.2-0.5,0.2c-0.1,0-0.2,0-0.2,0c-0.2,0-0.3,0-0.5-0.1c0,0-0.1,0-0.1,0c0,0-0.1,0-0.1,0c-0.1,0-0.1,0.1-0.1,0.1
				c-0.1,0.2-0.2,0.4-0.3,0.6c-0.1,0.1-0.2,0.2-0.4,0.2c-0.1,0-0.1,0-0.2-0.1c-0.2-0.1-0.2-0.4-0.2-0.6c0-0.2,0.1-0.4,0-0.6
				c-0.1-0.3-0.6-0.3-0.9-0.4c-0.1,0-0.2-0.1-0.2-0.2c0-0.1,0.1-0.1,0.1-0.2c0.3-0.2,0.5-0.4,0.9-0.6c0-0.4,0-0.8,0-1.2
				C116.7,79.3,116.7,79.2,116.8,79.2C116.7,79.2,116.8,79.2,116.8,79.2 M116.8,77.8c-0.3,0-0.6,0.1-0.8,0.2
				c-0.2,0.2-0.7,0.5-0.7,1.2c0,0.2,0,0.3,0,0.5c-0.1,0.1-0.3,0.2-0.4,0.3c-0.6,0.5-0.6,1.1-0.6,1.4c0.1,0.6,0.5,1.1,1.1,1.3
				c0,0.6,0.3,1.1,0.8,1.5c0.3,0.2,0.7,0.3,1.1,0.3c0.5,0,1-0.2,1.4-0.6c0.1-0.1,0.1-0.1,0.2-0.2c0.1,0,0.1,0,0.2,0
				c1.2,0,1.7-0.7,1.8-1c0.3-0.6,0.2-1.2-0.1-1.8c0.1-0.2,0.2-0.5,0.2-0.9c0-1-0.8-1.8-1.8-1.9c-0.1,0-0.2,0-0.3,0
				c-0.2,0-0.5,0-0.6,0.1c0,0-0.1,0-0.1-0.1c-0.2-0.1-0.4-0.2-0.6-0.3C117.2,77.8,117,77.8,116.8,77.8L116.8,77.8z"/>
		</g>
	</g>
</g>
<g>
	<path class="st8" d="M106.5,137l-7.4,0.3c-0.9,0-1.6,0.8-1.6,1.7l0.2,4.5c0,0.9,0.8,1.6,1.7,1.6l7.4-0.3c0.9,0,1.6-0.8,1.6-1.7
		l-0.2-4.5C108.1,137.7,107.4,137,106.5,137z M105.9,141.9c0,0.4-0.4,0.8-0.9,0.8l-4.2,0.1c-0.5,0-0.9-0.3-0.9-0.7l-0.1-2
		c0-0.4,0.4-0.8,0.9-0.8l4.2-0.1c0.5,0,0.9,0.3,0.9,0.7L105.9,141.9z"/>
	<path d="M99.3,145.8c-0.6,0-1.2-0.2-1.6-0.6c-0.5-0.4-0.7-1-0.7-1.6l-0.2-4.5c0-1.3,1-2.4,2.3-2.4l7.4-0.3c0.7,0,1.2,0.2,1.7,0.6
		c0.5,0.4,0.7,1,0.7,1.6l0.2,4.5c0,0.6-0.2,1.2-0.6,1.7c-0.4,0.5-1,0.7-1.6,0.7L99.3,145.8C99.3,145.8,99.3,145.8,99.3,145.8z
		 M106.5,137.7C106.5,137.7,106.5,137.7,106.5,137.7L106.5,137.7l-7.4,0.3c-0.2,0-0.5,0.1-0.6,0.3s-0.3,0.4-0.2,0.7l0.2,4.5
		c0,0.2,0.1,0.5,0.3,0.6s0.4,0.2,0.7,0.2l7.4-0.3c0.5,0,0.9-0.4,0.9-0.9l-0.2-4.5c0-0.2-0.1-0.5-0.3-0.6
		C107,137.8,106.8,137.7,106.5,137.7z M106.5,137L106.5,137L106.5,137z M100.8,143.6c-0.9,0-1.6-0.6-1.6-1.4l-0.1-2
		c0-0.4,0.2-0.8,0.5-1.1c0.3-0.3,0.7-0.4,1.1-0.4l4.2-0.1c0,0,0,0,0.1,0c0.9,0,1.6,0.6,1.6,1.4l0.1,2c0,0.8-0.7,1.5-1.6,1.6
		L100.8,143.6C100.9,143.6,100.9,143.6,100.8,143.6z M105,139.9C105,139.9,105,139.9,105,139.9l-4.2,0.1c-0.1,0-0.2,0.1-0.2,0.1
		l0.1,2c0,0,0.1,0,0.2,0l4.2-0.1c0.1,0,0.1,0,0.2-0.1l-0.1-2C105.1,139.9,105.1,139.9,105,139.9z M105.2,141.9L105.2,141.9
		L105.2,141.9L105.2,141.9z"/>
</g>
<g>
	<path class="st8" d="M109.2,141.7l-4,0.1c-0.4,0-0.7-0.3-0.8-0.7l0-0.3c0-0.4,0.3-0.7,0.7-0.8l4-0.1c0.4,0,0.7,0.3,0.8,0.7l0,0.3
		C109.9,141.3,109.6,141.7,109.2,141.7z"/>
	<path d="M105.2,142.5c-0.8,0-1.4-0.6-1.4-1.4l0-0.3c0-0.4,0.1-0.8,0.4-1s0.6-0.4,1-0.5l4-0.1c0.8,0,1.5,0.6,1.5,1.4l0,0.3
		c0,0.8-0.6,1.5-1.4,1.5l0,0L105.2,142.5C105.2,142.5,105.2,142.5,105.2,142.5z M109.2,141.7L109.2,141.7L109.2,141.7z M109.2,140.6
		l-4,0.1l0,0.3l4-0.1L109.2,140.6z"/>
</g>
<g>
	<path d="M63.8,167c-1,5.6-1.6,11.4-0.1,16.9c1.9,7,6.8,12.6,9.9,19.1c1.3,2.8,1.5,7.8,4.9,8.3c2.3,0.3,6.9,0.3,9-0.4
		c0.9-0.3,1.8-0.8,2.6-1.3c0.3-0.2,0.7-0.4,0.9-0.7c0.4-0.5,0.3-1.2,0.3-1.8c-0.9-7.7-7.5-14-7.7-22c-0.1-4.2,2.9-7.8,4.9-11.6
		c3.1-6.2,3.3-13.9,0.3-20.3c-2.3-4.8-10.2-14.5-16.6-11.4C66.2,144.8,64.8,161.2,63.8,167z"/>
</g>
<g>
	<path class="st4" d="M64.2,202.9c3.1-2.3,6.9-3.5,10.8-4.1c3.4-0.5,7-0.5,10.1,0.9c4,1.8,7.9,4.6,10.4,8.3
		c1.8,2.6,3.4,7.1,2.2,10.3c-1.1,2.8-4.6,3.4-7.3,3.4c-9.2,0-18.5,0-27.7,0c-1.1,0-2.4,0-3.3-0.6C53,217.2,60.5,205.5,64.2,202.9z"
		/>
	<path d="M62.4,222.4c-1.1,0-2.4,0-3.5-0.7c-1.7-1.1-2.7-2.8-2.8-4.9c-0.2-5.4,4.8-12.4,7.6-14.5v0c2.9-2.1,6.7-3.5,11.1-4.2
		c4.3-0.7,7.7-0.4,10.5,0.9c4.6,2,8.4,5.1,10.7,8.6c1.5,2.3,3.8,7.2,2.3,11c-1,2.6-3.7,3.9-8,3.9l-27.7,0
		C62.6,222.4,62.5,222.4,62.4,222.4z M64.6,203.5L64.6,203.5c-2.6,1.9-7.2,8.6-7,13.2c0.1,1.7,0.7,2.9,2.1,3.8
		c0.8,0.5,1.8,0.5,2.9,0.5l27.7,0c3.7,0,5.9-1,6.7-2.9c1.1-2.8-0.3-7-2.1-9.6c-2.2-3.2-5.7-6.1-10.1-8c-2.6-1.2-5.7-1.4-9.7-0.8
		C70.9,200.2,67.4,201.5,64.6,203.5z"/>
</g>
<g>
	<path d="M140,167c1,5.6,1.6,11.4,0.1,16.9c-1.9,7-6.8,12.6-9.9,19.1c-1.3,2.8-1.5,7.8-4.9,8.3c-2.3,0.3-6.9,0.3-9-0.4
		c-0.9-0.3-1.8-0.8-2.6-1.3c-0.3-0.2-0.7-0.4-0.9-0.7c-0.4-0.5-0.3-1.2-0.3-1.8c0.9-7.7,7.5-14,7.7-22c0.1-4.2-2.9-7.8-4.9-11.6
		c-3.1-6.2-3.3-13.9-0.3-20.3c2.3-4.8,10.2-14.5,16.6-11.4C137.6,144.8,139.1,161.2,140,167z"/>
</g>
<g>
	<path class="st4" d="M139.6,202.9c-3.1-2.3-6.9-3.5-10.8-4.1c-3.4-0.5-7-0.5-10.1,0.9c-4,1.8-7.9,4.6-10.4,8.3
		c-1.8,2.6-3.4,7.1-2.2,10.3c1.1,2.8,4.6,3.4,7.3,3.4c9.2,0,18.5,0,27.7,0c1.1,0,2.4,0,3.3-0.6C150.8,217.2,143.3,205.5,139.6,202.9
		z"/>
	<path d="M141.4,222.4c-0.1,0-0.1,0-0.2,0l-27.7,0c-4.3,0-7-1.3-8-3.9c-1.5-3.8,0.7-8.7,2.3-11c2.3-3.5,6.1-6.5,10.7-8.6
		c2.8-1.3,6.3-1.6,10.5-0.9c4.4,0.7,8.2,2.1,11.1,4.2l0,0c2.8,2,7.8,9,7.6,14.5c-0.1,2.2-1,3.9-2.8,4.9
		C143.8,222.4,142.4,222.4,141.4,222.4z M124.9,199.2c-2.2,0-4.2,0.4-5.8,1.1c-4.3,1.9-7.9,4.8-10.1,8c-1.8,2.7-3.2,6.8-2.1,9.6
		c0.8,1.9,3,2.9,6.7,2.9l27.7,0c1.2,0,2.2,0,2.9-0.5c1.3-0.8,2-2,2.1-3.8c0.2-4.7-4.4-11.4-7-13.2l0,0c-2.7-2-6.3-3.3-10.5-4
		C127.3,199.3,126.1,199.2,124.9,199.2z"/>
</g>
<g>
	<g>
		<path class="st0" d="M83.1,66.2C83.1,66.2,83.1,66.2,83.1,66.2c0.1,1.2,0.2,2.3,0.7,3.3c1.8,3.7,6.5,4.7,10,5.8
			c3.5,1.1,7,4,9.7,6.4c-0.3-0.2,7.3-4.4,8-4.6c2.7-1,5.2-1.9,7.2-4.1c2.3-2.5,3.8-5.6,4.9-8.8c3.8-10.5,1.3-25.9-5.2-35.1
			c-4.3-6.1-11.8-10.3-19.1-9.1C77.3,23.9,81.5,49.7,83.1,66.2z"/>
		<path d="M103.6,82.4c-0.2,0-0.3-0.1-0.5-0.2c0,0,0,0,0,0l0,0c0,0,0,0,0,0c-2.7-2.4-6.1-5.2-9.4-6.2c-0.4-0.1-0.7-0.2-1.1-0.3
			c-3.4-1-7.6-2.2-9.3-5.8c-0.6-1.2-0.7-2.5-0.8-3.5l0-0.1c-0.1-1-0.2-2.1-0.3-3.2C80.3,46.2,77.9,23,99.4,19.4
			c7-1.2,15,2.6,19.8,9.3c6.8,9.5,9.1,25.2,5.3,35.7c-1.4,3.9-3,6.8-5.1,9c-2.1,2.3-4.6,3.2-7.3,4.2l-0.2,0.1
			c-0.7,0.2-6.7,3.6-7.7,4.3c0,0-0.1,0.1-0.1,0.1C104,82.3,103.8,82.4,103.6,82.4z M83.8,66.2c0.1,1,0.2,2.1,0.7,3
			c1.5,3,5.2,4.1,8.4,5.1c0.4,0.1,0.8,0.2,1.1,0.3c3.4,1,6.8,3.8,9.5,6.2c2.1-1.6,7.7-4.3,7.8-4.4l0.2-0.1c2.6-1,4.9-1.8,6.7-3.8
			c1.9-2.1,3.5-4.9,4.8-8.6c3.7-10.1,1.4-25.2-5.1-34.4c-4.5-6.3-11.9-9.9-18.4-8.8c-20.1,3.4-17.8,25.8-16.1,42.2
			C83.6,64,83.7,65.1,83.8,66.2C83.8,66.1,83.8,66.1,83.8,66.2l-0.7,0L83.8,66.2z"/>
	</g>
	<g>
		<path class="st3" d="M94.1,66.4c-0.1,0-0.2,0-0.2,0c-1.7-0.6-3.5-1.2-5.3-1.7c-0.4-0.1-0.6-0.5-0.5-0.9c0.1-0.4,0.5-0.6,0.9-0.5
			c1.8,0.5,3.7,1.1,5.4,1.7c0.4,0.1,0.6,0.6,0.4,0.9C94.7,66.3,94.4,66.4,94.1,66.4z"/>
	</g>
	<g>
		<path class="st3" d="M99.5,74.2c-4.6,0-9.2-1.6-12.8-4.5c-0.3-0.3-0.4-0.7-0.1-1c0.2-0.3,0.7-0.4,1-0.1c3.9,3.1,9.1,4.6,14.1,4
			c0.4,0,0.8,0.2,0.8,0.6c0,0.4-0.2,0.8-0.6,0.8C101.1,74.1,100.3,74.2,99.5,74.2z"/>
	</g>
	<g>
		<path class="st3" d="M100.1,63.3c-3.2,0-6.5-0.5-9.6-1.6c-0.4-0.1-0.8-0.3-1.1-0.4c-1.1-0.4-2.1-0.8-3.2-1
			c-0.4-0.1-0.7-0.4-0.6-0.8s0.4-0.7,0.8-0.6c1.2,0.2,2.3,0.6,3.4,1c0.4,0.1,0.7,0.3,1.1,0.4c3.6,1.3,7.5,1.7,11.3,1.4
			c0.4,0,0.7,0.3,0.8,0.7s-0.3,0.7-0.7,0.8C101.6,63.3,100.9,63.3,100.1,63.3z"/>
	</g>
	<g>
		<path class="st0" d="M128,11.2c0.1,1.1,0.1,2.2,0,3.3c-0.1,0.9-0.6,2.3-0.3,3.1c0.3,1,1.6,2.1,2.1,3.1c0.6,1,1,2.1,1.6,3.1
			c1.2,2.3,2.6,4.4,3.9,6.6c1.9,3.1,3.1,6.5,3.6,10c0.5,3.5,0.7,7.4-0.4,10.8c-0.7,2.1-2.8,3.4-4.5,4.8c-0.2,0.2-0.4,0.4-0.6,0.6
			c-0.1,0.3-0.1,0.6-0.2,0.9c-0.1,2.3-0.2,4.7-0.7,7c-0.5,2.2-2.2,4-4.2,5c-2,1-4.3,1.4-6.5,1.8c-3.7,0.6-7.4,1.2-11.1,0.6
			c-3.7-0.5-7.4-2.3-9.4-5.4c-1-1.5-1.5-3.3-2.3-4.9c-1.1-2.3-2.8-4.3-4.7-5.9c-1.6-1.3-3.4-2.2-5-3.5c-2.2-1.8-2.8-3.9-3.8-6.4
			c-1.9-5-2.9-10.4-3-15.8c-0.1-7,3.2-13.8,7.1-19.4c1.8-2.5,3.6-5.2,6.3-7c4-2.7,9.2-2.2,13.3,0.1c0.5,0.3,1.1,0.6,1.6,1
			c0.7,0.6,0.7,1,1.7,1.1c1,0.1,1.9,0.1,2.8,0.2c0.1,0,0.2,0,0.3,0c0.3-0.1,0.4-0.4,0.5-0.6c0.3-0.8,1.2-1.3,2-1.7
			c0.7-0.3,1.4-0.1,2.1-0.1c1.6,0.1,3.2,0.4,4.6,1.3c1.3,0.9,2.3,2.3,2.8,3.8C127.8,9.5,127.9,10.4,128,11.2z"/>
		<path d="M113.8,72.9c-1.1,0-2.1-0.1-3.2-0.2c-4.3-0.6-8-2.7-9.9-5.7c-0.7-1-1.1-2.1-1.6-3.2c-0.3-0.6-0.5-1.2-0.8-1.8
			c-1.1-2.2-2.6-4.1-4.5-5.6c-0.8-0.6-1.6-1.1-2.4-1.7c-0.9-0.6-1.8-1.2-2.6-1.9C86.6,51,85.8,49,85,46.7L84.7,46
			c-1.9-5.1-3-10.5-3-16c-0.1-6.2,2.4-12.8,7.2-19.8c1.7-2.5,3.7-5.3,6.5-7.2c3.9-2.6,9.4-2.6,14,0.1c0.6,0.3,1.2,0.7,1.7,1.1
			c0.2,0.2,0.4,0.4,0.6,0.6c0.3,0.3,0.3,0.4,0.7,0.4l0.7,0c0.7,0,1.4,0.1,2.2,0.2c0,0,0-0.1,0-0.1l0.1-0.1c0.3-0.8,1.1-1.5,2.3-2
			c0.7-0.3,1.4-0.3,2-0.2c0.1,0,0.3,0,0.4,0c1.3,0.1,3.3,0.3,5,1.4c1.4,0.9,2.4,2.4,3.1,4.1c0.3,0.8,0.5,1.7,0.6,2.6l0,0
			c0.1,1.1,0.1,2.2,0,3.5c0,0.3-0.1,0.7-0.2,1.1c-0.1,0.6-0.3,1.3-0.2,1.7c0.1,0.4,0.6,1,1.1,1.5c0.4,0.5,0.8,0.9,1,1.4
			c0.3,0.5,0.6,1.1,0.8,1.7c0.2,0.5,0.5,0.9,0.7,1.4c1,1.9,2.1,3.7,3.3,5.5l0.6,1c1.9,3.1,3.1,6.6,3.7,10.3
			c0.7,4.6,0.5,8.3-0.5,11.2c-0.7,2-2.4,3.3-4,4.6c-0.3,0.2-0.5,0.4-0.7,0.6c-0.1,0.1-0.3,0.2-0.4,0.4c-0.1,0.1-0.1,0.4-0.1,0.6
			c-0.1,2.5-0.2,4.9-0.7,7.1c-0.5,2.2-2.1,4.2-4.6,5.5c-2.2,1.1-4.7,1.5-6.7,1.9C119.1,72.5,116.4,72.9,113.8,72.9z M102,2.5
			c-2.1,0-4.2,0.6-5.9,1.7c-2.6,1.7-4.4,4.4-6.1,6.8c-4.7,6.8-7,13.1-7,19c0.1,5.3,1,10.5,2.9,15.5l0.2,0.7c0.8,2.2,1.5,3.9,3.3,5.5
			c0.8,0.6,1.7,1.2,2.5,1.8c0.8,0.5,1.7,1.1,2.5,1.7c2.1,1.6,3.8,3.8,4.9,6.1c0.3,0.6,0.6,1.2,0.8,1.9c0.5,1.1,0.9,2.1,1.5,3
			c1.7,2.7,5,4.5,8.9,5.1c3.5,0.5,7,0,10.9-0.6c2.4-0.4,4.5-0.8,6.3-1.7c2-1,3.5-2.7,3.9-4.5c0.5-2.2,0.6-4.5,0.7-6.9
			c0-0.3,0-0.7,0.2-1.2c0.2-0.4,0.5-0.7,0.8-0.8c0.3-0.2,0.5-0.4,0.8-0.6c1.5-1.1,3-2.3,3.5-3.9c0.9-2.7,1.1-6.1,0.4-10.5
			c-0.5-3.5-1.7-6.8-3.5-9.8l-0.6-1c-1.1-1.8-2.3-3.7-3.3-5.6c-0.3-0.5-0.5-1-0.7-1.5c-0.3-0.5-0.5-1.1-0.8-1.6
			c-0.2-0.3-0.5-0.7-0.9-1.1c-0.6-0.7-1.1-1.4-1.3-2.1c-0.2-0.7,0-1.6,0.1-2.4c0.1-0.3,0.1-0.7,0.2-0.9c0.1-1.2,0.1-2.2,0-3.2
			c0,0,0,0,0,0c-0.1-0.8-0.3-1.6-0.5-2.3c-0.5-1.5-1.4-2.7-2.5-3.4c-1-0.7-2.4-1-4.2-1.1c-0.2,0-0.3,0-0.5,0c-0.5,0-1-0.1-1.3,0.1
			c-0.9,0.4-1.4,0.9-1.6,1.3l0,0.1c-0.1,0.3-0.3,0.8-0.9,1c-0.3,0.1-0.5,0-0.6,0c-0.7-0.1-1.4-0.2-2.1-0.2l-0.7,0
			c-1-0.1-1.3-0.5-1.7-0.9c-0.1-0.1-0.2-0.3-0.4-0.4c-0.4-0.3-1-0.7-1.4-0.9C106.6,3.1,104.3,2.5,102,2.5z"/>
	</g>
	<g>
		<path d="M121.9,57.3c-0.8,0-1.6,0-2.4-0.1c-7.2-0.5-14-1.4-18.8-6.9c-1.6-1.9-2.8-4.1-3.9-6.3c-1.3-2.5-2.5-4.8-4.4-6.8
			c-1.1-1.2-2.1-3.1-1.2-4.8c0.2-0.3,0.6-0.5,1-0.3c0.3,0.2,0.5,0.6,0.3,1c-0.5,0.9,0.1,2.2,1,3c2,2.1,3.4,4.7,4.7,7.1
			c1.1,2.2,2.2,4.2,3.7,6c4.4,5.1,10.6,6,17.7,6.4c2.1,0.1,4.2,0,6.2,0c0.9,0,1.7,0,2.4,0c2.4,0,4.2,0,6.7-1.4
			c0.4-0.2,0.8-0.1,1,0.3c0.2,0.4,0.1,0.8-0.3,1c-2.8,1.5-4.9,1.5-7.4,1.5c-0.7,0-1.5,0-2.4,0C124.6,57.3,123.3,57.3,121.9,57.3z"/>
	</g>
	<g>
		<path d="M109.5,19.5c-0.1,0-0.2,0-0.3-0.1c-0.4-0.2-0.5-0.6-0.3-1c3.4-7,12.3-4.7,15-3.8c1.5,0.5,3.1,1.9,4.4,3l0.6,0.5
			c0.3,0.3,0.3,0.7,0.1,1c-0.3,0.3-0.7,0.3-1,0.1l-0.6-0.5c-1.2-1-2.7-2.3-3.9-2.7c-2.4-0.8-10.3-2.9-13.2,3.1
			C110,19.3,109.8,19.5,109.5,19.5z"/>
	</g>
	<g>
		<path d="M121.2,43.9c-0.2,0-0.5-0.1-0.6-0.3c-0.5-0.8-1.3-1.3-2.2-1.5c-0.4-0.1-0.6-0.5-0.6-0.9s0.5-0.6,0.9-0.6
			c1.3,0.3,2.4,1.1,3.2,2.2c0.2,0.3,0.1,0.8-0.2,1C121.4,43.8,121.3,43.9,121.2,43.9z"/>
	</g>
	<g>
		<path d="M132.1,42.9c-0.2,0-0.3,0-0.4-0.2c-0.3-0.2-0.4-0.7-0.1-1c0.7-0.9,1.7-1.5,2.8-1.6c0.4-0.1,0.8,0.2,0.8,0.6
			s-0.2,0.8-0.6,0.8c-0.7,0.1-1.4,0.5-1.8,1C132.6,42.8,132.4,42.9,132.1,42.9z"/>
	</g>
	<g>
		<circle cx="105.1" cy="12" r="1.3"/>
	</g>
	<g>
		<circle cx="121.6" cy="12" r="1.2"/>
	</g>
	<g>
		<g>
			<path class="st9" d="M101.1,8.1c-0.2-0.1-0.5-0.2-0.7,0c-0.1,0.1-0.2,0.2-0.2,0.3c-0.8,2.2,0.4,4.7,2.4,5.8
				c2.1,1.1,4.9,0.7,6.5-1c1.9-1.9-0.5-2.4-2-3C105.2,9.6,103.1,8.9,101.1,8.1z"/>
			<path d="M105.2,15.5c-1,0-2-0.2-2.9-0.7c-2.4-1.3-3.6-4.2-2.7-6.6c0-0.1,0.2-0.4,0.4-0.6c0.5-0.3,1-0.1,1.2,0h0
				c2,0.7,4.1,1.5,6.1,2.2l0.5,0.2c1.1,0.4,2.4,0.8,2.6,1.8c0.1,0.6-0.1,1.3-0.9,2C108.5,14.9,106.8,15.5,105.2,15.5z M100.8,8.7
				C100.8,8.7,100.8,8.7,100.8,8.7c-0.7,1.8,0.3,4.1,2.2,5.1c1.8,1,4.4,0.6,5.8-0.9c0.4-0.4,0.6-0.7,0.5-0.8c-0.1-0.4-1.2-0.7-1.8-1
				l-0.5-0.2c-2-0.7-4.1-1.5-6.1-2.2C100.8,8.7,100.8,8.7,100.8,8.7z"/>
		</g>
		<g>
			<circle cx="104.9" cy="12.2" r="2.6"/>
		</g>
		<g>
			<path class="st9" d="M124,6.7c0.2-0.1,0.4-0.3,0.6-0.2c0.1,0,0.2,0.2,0.3,0.3c1.3,1.9,0.7,4.7-1,6.2c-1.5,1.3-3.4,1.3-5.1,0.2
				c-0.5-0.3-2.2-1.6-1.3-2.3C119.6,9.4,121.9,8.1,124,6.7z"/>
			<path d="M121.3,14.6c-0.9,0-1.9-0.3-2.8-0.9c-0.3-0.2-1.8-1.2-1.8-2.2c0-0.4,0.1-0.8,0.5-1c1.4-1.1,3-2.1,4.5-3.1
				c0.7-0.4,1.3-0.8,2-1.3v0c0.2-0.1,0.7-0.4,1.2-0.2c0.3,0.1,0.5,0.3,0.6,0.5c1.4,2.1,0.9,5.2-1.1,7
				C123.5,14.2,122.4,14.6,121.3,14.6z M124.3,7.2c-0.7,0.4-1.3,0.9-2,1.3c-1.5,0.9-3,1.9-4.4,3c0,0.2,0.6,0.9,1.3,1.3
				c1.5,1,3.1,0.9,4.3-0.2c1.6-1.4,2-3.9,0.9-5.4l0,0C124.4,7.1,124.4,7.1,124.3,7.2L124.3,7.2z"/>
		</g>
		<g>
			<circle cx="121.3" cy="11.5" r="2.6"/>
		</g>
	</g>
</g>
<g>
	<g>
		<path class="st10" d="M105.8,178.2l-1.6-0.3c-2.1-0.4-3.5-2.5-3.1-4.6l20.2-102.3c0.4-2.1,2.5-3.5,4.6-3.1l1.6,0.3
			c2.1,0.4,3.5,2.5,3.1,4.6l-20.2,102.3C109.9,177.2,107.9,178.6,105.8,178.2z"/>
		<path d="M106.5,179c-0.3,0-0.6,0-0.9-0.1l-1.6-0.3c-1.2-0.2-2.3-0.9-2.9-2s-0.9-2.3-0.7-3.5l20.2-102.3c0.5-2.5,2.9-4.1,5.4-3.6
			l1.6,0.3c1.2,0.2,2.3,0.9,2.9,2c0.7,1,0.9,2.3,0.7,3.5l-20.2,102.3C110.6,177.4,108.7,179,106.5,179z M105.9,177.4
			c1.7,0.3,3.4-0.8,3.7-2.5l20.2-102.3c0.2-0.8,0-1.7-0.5-2.4c-0.5-0.7-1.2-1.2-2-1.3l-1.6-0.3c-1.7-0.3-3.4,0.8-3.7,2.5
			l-20.2,102.3c-0.2,0.8,0,1.7,0.5,2.4c0.5,0.7,1.2,1.2,2,1.3L105.9,177.4z"/>
	</g>
	<g>
		<path class="st11" d="M81.4,196.3c0,0-2.7,5.9-3.1,13.9s-5.6,9-5.6,9s-0.6,1.8,3.6,3.8c4.2,1.9,33.8,5.1,39.9,1.9
			c6.1-3.2,3.4-26.7,3.4-26.7L81.4,196.3z"/>
		<path d="M105.3,227c-11.2,0-26.4-2-29.3-3.4c-4.6-2.1-4.1-4.4-4-4.6c0.1-0.3,0.3-0.4,0.6-0.5c0.2,0,4.7-1.1,5.1-8.3
			c0.4-8,3-13.9,3.2-14.1c0.1-0.3,0.4-0.4,0.7-0.4l38.2,1.9c0.4,0,0.6,0.3,0.7,0.6c0.3,2.5,2.5,24.1-3.8,27.4
			C114.5,226.5,110.3,227,105.3,227z M73.4,219.7c0.2,0.5,0.8,1.5,3.2,2.6c4.3,2,33.6,4.9,39.3,2c4.5-2.4,3.8-18.6,3.1-25.4
			L81.9,197c-0.6,1.5-2.5,6.6-2.8,13.2C78.7,217.1,74.9,219.1,73.4,219.7z"/>
	</g>
	<g>
		<path class="st12" d="M109.3,183.4l-10.3-2l0.8-9.5c0.1-1.4,1.5-2.4,3.1-2.1l7.3,1.4c1.5,0.3,2.5,1.7,2,3.1L109.3,183.4z"/>
		<path d="M109.3,184.1c0,0-0.1,0-0.1,0l-10.3-2c-0.4-0.1-0.6-0.4-0.6-0.8l0.8-9.5c0.1-0.8,0.5-1.6,1.2-2.1c0.8-0.6,1.8-0.8,2.7-0.6
			l7.3,1.4c1,0.2,1.8,0.8,2.3,1.6c0.4,0.8,0.5,1.6,0.3,2.4l-2.9,9.1C109.9,183.9,109.6,184.1,109.3,184.1z M99.7,180.8l9.1,1.8
			l2.7-8.5c0.1-0.4,0.1-0.9-0.2-1.2c-0.3-0.5-0.8-0.8-1.3-0.9l-7.3-1.4c-0.6-0.1-1.1,0-1.6,0.3c-0.4,0.3-0.6,0.7-0.6,1.1L99.7,180.8
			z"/>
	</g>
	<g>
		<path class="st12" d="M110.1,183.6l-6-1.2l-6-1.2c0,0-13.3-0.8-18.2,14.5c0,0,8.2,2.8,20.6,5.2c12.4,2.5,21,3,21,3
			C122.7,187.8,110.1,183.6,110.1,183.6z"/>
		<path d="M121.5,204.7C121.5,204.7,121.4,204.7,121.5,204.7c-0.1,0-8.8-0.6-21.2-3c-12.3-2.4-20.6-5.2-20.7-5.3
			c-0.4-0.1-0.6-0.5-0.5-0.9c5.1-15.7,18.8-15,19-15l12.1,2.4c0,0,0.1,0,0.1,0c0.1,0,13.1,4.7,11.8,21.1
			C122.2,204.4,121.8,204.7,121.5,204.7z M80.8,195.3c2.2,0.7,9.6,3,19.8,5c10.2,2,17.9,2.7,20.2,2.9c0.7-14.4-10-18.6-10.9-18.9
			L98,181.9C97.6,181.9,85.7,181.4,80.8,195.3z"/>
	</g>
	<g>
		<path class="st13" d="M82.7,223.6c-0.1,0-0.3,0-0.4-0.1c-0.3-0.2-0.4-0.7-0.2-1c2.7-4.1,3.9-8.8,5.1-14.1c0.1-0.4,0.5-0.6,0.9-0.5
			c0.4,0.1,0.6,0.5,0.5,0.9c-1.2,5.4-2.5,10.3-5.3,14.5C83.2,223.5,82.9,223.6,82.7,223.6z"/>
	</g>
	<g>
		<path class="st13" d="M90.3,224.9c-0.1,0-0.2,0-0.3,0c-0.4-0.1-0.6-0.6-0.4-0.9c0.2-0.6,0.4-1.1,0.7-1.7c0.7-1.8,1.5-3.4,1.5-5.2
			c0-0.4,0.3-0.7,0.7-0.7c0.4,0,0.7,0.3,0.7,0.7c0,2.1-0.8,4-1.6,5.8c-0.2,0.5-0.5,1.1-0.7,1.6C90.8,224.8,90.6,224.9,90.3,224.9z"
			/>
	</g>
	<g>
		<path class="st13" d="M97.1,225.3c-0.1,0-0.3,0-0.4-0.1c-0.3-0.2-0.5-0.7-0.2-1c1-1.7,2.1-3.6,2.6-5.5c0.4-1.5,0.4-2.9,0.4-4.5
			c0-0.8,0-1.5,0.1-2.3c0-0.4,0.4-0.7,0.8-0.7c0.4,0,0.7,0.4,0.7,0.8c-0.1,0.7-0.1,1.5-0.1,2.2c0,1.6-0.1,3.2-0.5,4.8
			c-0.5,2.2-1.7,4.1-2.8,5.9C97.5,225.1,97.3,225.3,97.1,225.3z"/>
	</g>
	<g>
		<path class="st13" d="M106.6,218.5c-0.2,0-0.4-0.1-0.5-0.2c-0.3-0.3-0.3-0.8,0-1c0.2-0.1,0.2-0.6,0.2-0.8l0.2-4.1
			c0-0.4,0.4-0.7,0.8-0.7c0.4,0,0.7,0.4,0.7,0.8l-0.2,4.1c0,0.5-0.1,1.3-0.6,1.8C107,218.4,106.8,218.5,106.6,218.5z"/>
	</g>
</g>
<g>
	<g>
		<path class="st0" d="M111.7,128.4c-5.7,0.3-11.5,1.1-17,2.4c-6,1.4-11.9,3.4-18.1,3.6c-6.1,0.2-12.8-1.9-16.3-6.9
			c-2.5-3.7-3-8.3-4.1-12.6c-0.8-3.1-1.9-6.6-0.5-9.5c0.5-1.1,1.5-3.3,2.6-3.6c2.4-0.7,4.8-1.3,7.3-1.2c2.5,0,5,0.8,6.8,2.6
			c2.1,2.1,2.8,5.3,2.9,8.3s-0.5,6-0.3,9c2.9,0.4,6.1,0.6,9,1c3.8,0.5,7.7,1,11.5,0.6c4.4-3.2,9.8-4.9,15.2-4.8c0.5,0,1.1,0,1.5,0.4
			c0.4,0.3,0.6,0.8,0.7,1.3C113.9,121.7,112.4,125.4,111.7,128.4z"/>
		<path d="M75.8,135.1c-7,0-13-2.7-16.1-7.3c-2.1-3-2.8-6.5-3.6-10c-0.2-0.9-0.4-1.9-0.6-2.8l-0.2-0.9c-0.7-2.9-1.6-6.2-0.2-9.1
			l0.1-0.1c0.8-1.7,1.7-3.5,3-3.9c2.4-0.7,4.9-1.3,7.5-1.2c3,0.1,5.6,1,7.3,2.8c2,1.9,3.1,5,3.1,8.8c0,1.4-0.1,2.8-0.2,4.1
			c-0.1,1.4-0.2,2.9-0.2,4.3c1.3,0.2,2.6,0.3,3.9,0.4c1.5,0.1,3.1,0.3,4.5,0.5c3.7,0.5,7.4,1,11.1,0.6c4.5-3.2,9.9-5,15.5-4.9
			c0.6,0,1.3,0.1,1.9,0.5c0.6,0.4,0.8,1,1,1.6c0.8,2.6-0.1,5.6-0.8,8.3c-0.2,0.5-0.3,1.1-0.4,1.6c-0.1,0.3-0.3,0.5-0.7,0.5
			c-5.7,0.3-11.4,1.1-16.9,2.4c-1.5,0.3-2.9,0.7-4.3,1.1c-4.5,1.2-9.1,2.4-13.9,2.5C76.3,135.1,76.1,135.1,75.8,135.1z M65.4,101.3
			c-2.4,0-4.7,0.6-6.9,1.2c-0.8,0.2-1.7,2.2-2.1,3.1l-0.1,0.1c-1.1,2.4-0.4,5.3,0.3,8.1l0.2,0.9c0.2,0.9,0.4,1.9,0.7,2.9
			c0.7,3.3,1.5,6.7,3.3,9.5c3,4.3,8.8,6.8,15.7,6.6c4.6-0.1,9.1-1.3,13.5-2.5c1.5-0.4,2.9-0.8,4.4-1.1c5.5-1.3,11.1-2.1,16.6-2.4
			c0.1-0.4,0.2-0.7,0.3-1.1c0.7-2.5,1.5-5.3,0.9-7.5c-0.1-0.4-0.3-0.7-0.5-0.9c-0.2-0.2-0.7-0.2-1-0.2c-5.3-0.1-10.5,1.6-14.8,4.7
			c-0.1,0.1-0.2,0.1-0.4,0.1c-3.9,0.4-7.9-0.1-11.7-0.6c-1.4-0.2-3-0.3-4.5-0.5c-1.5-0.1-3.1-0.3-4.5-0.5c-0.3,0-0.6-0.3-0.6-0.7
			c-0.1-1.7,0-3.4,0.2-5.1c0.1-1.3,0.2-2.7,0.2-4c0-2.4-0.5-5.7-2.7-7.8c-1.5-1.5-3.7-2.3-6.3-2.3C65.6,101.3,65.5,101.3,65.4,101.3
			z M111.7,128.4L111.7,128.4L111.7,128.4z"/>
	</g>
	<g>
		<path class="st14" d="M113.8,111.8c2-1.2,4.6-1.4,6.8-0.7c0.6,0.2,1.2,0.5,1.4,1.1c0.1,0.5-0.1,1-0.5,1.4
			c-0.4,0.4-0.8,0.6-1.2,0.9c-1.9,1.4-2.6,3.9-4,5.8c-0.3,0.4-0.7,0.8-1.2,1c-0.5,0.2-1.1,0.2-1.6,0c-1.7-0.5-3.3-2.6-3.4-4.4
			C109.9,114.8,112.2,112.7,113.8,111.8z"/>
		<path d="M114.2,122.1c-0.3,0-0.7,0-1-0.1c-2-0.5-3.9-3-3.9-5.1c0-2.4,2.5-4.8,4.2-5.7l0,0c2.2-1.2,5-1.5,7.4-0.8
			c1.1,0.3,1.7,0.9,1.9,1.7c0.2,0.7-0.1,1.5-0.7,2.1c-0.3,0.3-0.6,0.5-0.9,0.7c-0.1,0.1-0.3,0.2-0.4,0.3c-1,0.8-1.7,1.9-2.4,3.2
			c-0.5,0.8-0.9,1.7-1.5,2.5c-0.3,0.4-0.8,1-1.5,1.2C114.9,122.1,114.5,122.1,114.2,122.1z M114.2,112.4c-1.5,0.8-3.5,2.8-3.5,4.5
			c0,1.5,1.5,3.4,2.8,3.7c0.3,0.1,0.8,0.2,1.2,0c0.3-0.1,0.6-0.4,0.9-0.8c0.5-0.7,1-1.4,1.4-2.2c0.7-1.3,1.5-2.7,2.8-3.6
			c0.2-0.1,0.3-0.2,0.5-0.3c0.3-0.2,0.5-0.3,0.7-0.5c0.2-0.2,0.4-0.5,0.3-0.7c-0.1-0.2-0.4-0.5-0.9-0.6
			C118.4,111.1,116,111.3,114.2,112.4L114.2,112.4z"/>
	</g>
	<g>
		<path class="st14" d="M116.9,116.3c2.3,0,4.7,1,6.3,2.7c0.4,0.5,0.8,1.1,0.7,1.7c-0.1,0.5-0.6,0.8-1.1,1c-0.5,0.1-1,0.1-1.5,0.2
			c-2.3,0.3-4.1,2.2-6.3,3.1c-0.5,0.2-1,0.4-1.6,0.3c-0.5-0.1-1-0.4-1.4-0.8c-1.3-1.2-1.7-3.9-0.8-5.5
			C112,117.1,115,116.3,116.9,116.3z"/>
		<path d="M113.5,125.9c-0.1,0-0.2,0-0.4,0c-0.6-0.1-1.3-0.4-1.8-1c-1.5-1.5-1.9-4.5-0.9-6.4c1.1-2.2,4.5-3,6.5-3l0,0
			c2.5,0,5.1,1.1,6.8,2.9c0.8,0.8,1,1.6,0.8,2.4c-0.2,0.7-0.8,1.2-1.6,1.5c-0.4,0.1-0.8,0.1-1.1,0.2c-0.2,0-0.3,0-0.5,0
			c-1.3,0.2-2.4,0.9-3.6,1.6c-0.8,0.5-1.6,1-2.5,1.4C114.7,125.7,114.1,125.9,113.5,125.9z M116.9,117L116.9,117
			c-1.7,0-4.4,0.7-5.2,2.2c-0.7,1.3-0.4,3.6,0.7,4.6c0.2,0.2,0.6,0.5,1,0.6c0.3,0,0.7,0,1.2-0.2c0.8-0.3,1.5-0.8,2.3-1.3
			c1.3-0.8,2.6-1.6,4.2-1.8c0.2,0,0.4,0,0.6-0.1c0.3,0,0.6,0,0.9-0.1c0.3-0.1,0.6-0.3,0.6-0.4c0.1-0.2-0.1-0.6-0.5-1
			C121.1,117.9,119,117,116.9,117z"/>
	</g>
	<g>
		<path class="st14" d="M118.9,121.6c2.2,0.9,3.9,2.7,4.7,4.9c0.2,0.6,0.3,1.3-0.1,1.8c-0.3,0.4-0.9,0.5-1.4,0.4
			c-0.5-0.1-1-0.3-1.5-0.4c-2.3-0.7-4.7,0.4-7,0.3c-0.5,0-1.1-0.1-1.6-0.4c-0.5-0.3-0.8-0.8-1-1.3c-0.7-1.6,0-4.3,1.4-5.4
			C114.1,120.4,117.2,120.9,118.9,121.6z"/>
		<path d="M122.4,129.5c-0.1,0-0.3,0-0.4,0c-0.4-0.1-0.8-0.2-1.1-0.3c-0.2-0.1-0.3-0.1-0.5-0.2c-1.2-0.4-2.6-0.1-4,0.1
			c-0.9,0.1-1.9,0.3-2.9,0.3c-0.5,0-1.3-0.1-1.9-0.5c-0.6-0.3-1-0.9-1.3-1.6c-0.8-1.9,0-4.9,1.7-6.2c1.9-1.5,5.3-0.9,7.1-0.2
			c2.3,1,4.2,3,5.1,5.4c0.4,1,0.3,1.9-0.2,2.5C123.7,129.2,123.1,129.5,122.4,129.5z M119,127.4c0.6,0,1.3,0.1,1.9,0.2
			c0.2,0.1,0.4,0.1,0.5,0.2c0.3,0.1,0.6,0.2,0.8,0.2c0.3,0,0.6,0,0.7-0.2c0.1-0.2,0.1-0.6-0.1-1.1c-0.7-2-2.3-3.7-4.3-4.5l0,0
			c-1.5-0.6-4.3-1.1-5.7,0c-1.2,0.9-1.8,3.2-1.2,4.5c0.1,0.3,0.3,0.7,0.7,0.9c0.3,0.2,0.7,0.2,1.2,0.3c0.9,0,1.7-0.1,2.6-0.3
			C117.2,127.5,118.1,127.4,119,127.4z"/>
	</g>
	<g>
		<path class="st1" d="M58,82.9c-4.8,6.2-6.6,14.4-5.8,22.1c4.2,0.2,8.5-0.2,12.7,0.3c4.3,0.5,8,2.1,11.3,4.9
			c2.7-2.4,1.8-11.8,1.9-15.3c0.1-5.7-0.2-11.4-1.4-17c-0.7-3-0.5-4.5-3.5-4.3c-1.9,0.1-4.2,1.4-5.8,2.2C64,77.5,60.4,79.9,58,82.9z
			"/>
		<path d="M76.3,111.1l-0.5-0.4c-3.2-2.7-6.8-4.2-11-4.7c-2.6-0.3-5.3-0.3-7.9-0.3c-1.6,0-3.2,0-4.7,0l-0.6,0l-0.1-0.6
			c-1-8.3,1.2-16.6,5.9-22.6l0,0c2-2.6,5.2-5,9.6-7.3l0.6-0.3c1.6-0.9,3.7-1.9,5.5-2c3.3-0.2,3.6,1.5,4,3.7c0.1,0.4,0.1,0.8,0.2,1.2
			c1.1,5,1.6,10.5,1.4,17.1c0,0.7,0,1.6,0,2.6c0.1,4.7,0.3,11.1-2.2,13.2L76.3,111.1z M58.7,104.3c2.1,0,4.2,0,6.3,0.3
			c4.2,0.5,7.9,2,11.2,4.6c1.5-2.2,1.4-8,1.3-11.6c0-1.1-0.1-2,0-2.7c0.2-6.5-0.3-11.9-1.4-16.8c-0.1-0.4-0.2-0.8-0.3-1.2
			c-0.4-2.2-0.5-2.7-2.5-2.6c-1.5,0.1-3.4,1.1-4.9,1.9l-0.6,0.3c-4.2,2.2-7.2,4.4-9.1,6.9l0,0c-4.4,5.6-6.4,13.2-5.7,21
			c1.4,0,2.7,0,4.1,0C57.6,104.3,58.1,104.3,58.7,104.3z"/>
	</g>
	<g id="XMLID_175_">
		<g>
			<path class="st1" d="M80,77c-1.6,0.9-3.2,1.8-4.8,2.7c-2.9-3.2-9.3-6-9.7-6.1c1.5-0.7,3-1.3,4.5-1.7c2-0.6,3.4-1.1,5.1,0
				C76.9,73.1,78.4,75.4,80,77z"/>
			<path class="st2" d="M75.2,79.7c-1.9,1.1-3.8,2.1-5.8,3.2C69.3,83,69.2,83,69.1,83c-0.2,0-0.4-0.1-0.6-0.3
				c-2.7-2.2-5.7-4.1-8.9-5.6c0.3,0.1,4.1-2.7,4.7-3c0.4-0.2,0.7-0.4,1.1-0.5l0,0L75.2,79.7z"/>
			<path d="M75.2,79.7l-9.7-6.1C65.9,73.7,72.3,76.5,75.2,79.7z"/>
		</g>
		<g>
			<g>
				<path d="M69.1,83.7c-0.4,0-0.8-0.3-0.9-0.4c-2.7-2.2-5.6-4.1-8.8-5.5c-0.4-0.2-0.5-0.6-0.3-1c0.1-0.2,0.3-0.4,0.6-0.4
					c0.4-0.2,1.8-1.2,2.7-1.8c1-0.7,1.6-1.1,1.8-1.2c0.2-0.1,0.5-0.2,0.7-0.3l0.4-0.2c0,0,0.1,0,0.1,0c1.4-0.7,3-1.2,4.5-1.7
					l0.5-0.1c1.8-0.5,3.4-1,5.2,0.3c1.2,0.8,2.2,2,3.2,3.2c0.6,0.7,1.2,1.4,1.8,2c0.2,0.2,0.2,0.4,0.2,0.6c0,0.2-0.2,0.4-0.4,0.5
					l-10.6,5.9C69.6,83.6,69.4,83.7,69.1,83.7C69.1,83.7,69.1,83.7,69.1,83.7z M61.2,77.1c2.8,1.4,5.4,3.1,7.8,5.1c0,0,0,0,0.1,0.1
					c0,0,0,0,0,0l9.7-5.5c-0.4-0.4-0.8-0.9-1.2-1.4c-0.9-1.1-1.9-2.3-2.9-3c-1.2-0.8-2.3-0.5-4,0l-0.5,0.1c-1.5,0.4-3,1-4.4,1.7
					c0,0-0.1,0-0.1,0l-0.3,0.1c-0.2,0.1-0.4,0.2-0.7,0.3c-0.2,0.1-1,0.6-1.7,1.1C62.3,76.4,61.7,76.8,61.2,77.1z M60,76.5
					C60,76.5,60,76.5,60,76.5C60,76.5,60,76.5,60,76.5z M60,76.5C60,76.5,60,76.5,60,76.5C60,76.5,60,76.5,60,76.5z"/>
			</g>
			<g>
				<path d="M75.2,80.4c-0.2,0-0.4-0.1-0.5-0.2c-2.9-3.2-9.3-5.9-9.4-5.9c-0.4-0.2-0.5-0.6-0.4-0.9c0.2-0.4,0.6-0.5,0.9-0.4
					c0.1,0,6.9,2.9,9.9,6.3c0.3,0.3,0.2,0.8-0.1,1C75.5,80.3,75.4,80.4,75.2,80.4z"/>
			</g>
			<g>
				<path d="M75.2,80.4c-0.1,0-0.3,0-0.4-0.1l-9.7-6.1c-0.3-0.2-0.4-0.6-0.2-1c0.2-0.3,0.6-0.5,1-0.3l9.7,6.2c0.3,0.2,0.4,0.7,0.2,1
					C75.7,80.3,75.4,80.4,75.2,80.4z"/>
			</g>
		</g>
	</g>
	<g>
		<g>
			<path class="st5" d="M71.5,87.2c-5.9-2.2-6.5-5.5-6.5-5.5s-2.7,2.1-8.6,0c0,0-6.1,16.2,1.5,19.1C65.6,103.5,71.5,87.2,71.5,87.2z
				"/>
			<path d="M59.7,101.8c-0.7,0-1.4-0.1-2.1-0.4c-1.6-0.6-2.7-1.7-3.4-3.3c-2.6-5.8,1.3-16.3,1.5-16.8c0.1-0.4,0.6-0.6,0.9-0.4
				c5.4,2,7.9,0.2,7.9,0.1c0.2-0.2,0.5-0.2,0.7-0.1c0.2,0.1,0.4,0.3,0.5,0.5c0,0,0.7,3,6.1,5c0.4,0.1,0.6,0.6,0.4,0.9
				c-0.2,0.4-4,11-9.8,13.7C61.5,101.6,60.6,101.8,59.7,101.8z M56.8,82.6c-0.8,2.4-3.3,10.5-1.3,15c0.6,1.2,1.4,2.1,2.6,2.5
				c1.2,0.4,2.4,0.4,3.6-0.2c4.4-2.1,7.8-9.9,8.8-12.2c-3.9-1.6-5.4-3.7-6-4.9C63.3,83.2,60.8,83.9,56.8,82.6z"/>
		</g>
		<g>
			<g>
				<path class="st6" d="M63.4,94.6c-0.6,1.6-2,1.5-3.6,1s-2.7-1.4-2.1-3.1c0.6-1.6,2.4-2.5,3.9-1.9S64,93,63.4,94.6z"/>
			</g>
			<g>
				<g>
					<ellipse transform="matrix(0.346 -0.9382 0.9382 0.346 -45.4851 112.8448)" class="st6" cx="58.2" cy="89.1" rx="1.3" ry="1"/>
				</g>
				<g>
					<ellipse transform="matrix(0.346 -0.9382 0.9382 0.346 -43.3232 121.125)" class="st6" cx="65.2" cy="91.6" rx="1.3" ry="1"/>
				</g>
			</g>
			<g>
				<g>
					<ellipse transform="matrix(0.346 -0.9382 0.9382 0.346 -42.7561 114.8755)" class="st6" cx="61" cy="88.1" rx="1.3" ry="1"/>
				</g>
				<g>
					<ellipse transform="matrix(0.346 -0.9382 0.9382 0.346 -41.9352 118.0194)" class="st6" cx="63.7" cy="89.1" rx="1.3" ry="1"/>
				</g>
			</g>
		</g>
	</g>
</g>
<g>
	<g>
		<path class="st0" d="M151.6,102.6c2.7,2.3,5,5.1,6.7,8.1c1.5,2.8,2.8,6.6,0.6,9.1c-0.8,0.9-2,1.3-3.3,1.2c-1.3,0-2.5-0.5-3.6-1
			c-4.5-2.1-8.6-5.8-11.5-9.5c-3-3.8-6.2-7.4-8.6-11.6c-0.2-0.4-0.4-0.8-0.8-1.1c-0.3-0.3-0.7-0.4-1.1-0.6
			c-3.6-1.4-9.2-4.1-11.5-7.4c-2.1-3.1,2.4-8,5.1-9.2c3.9-1.8,9.5,3.9,11.8,6.7c1.7,2.1,3,4.4,4.8,6.3c3,3.2,7.1,5.3,10.6,8.1
			C151.1,102.1,151.4,102.4,151.6,102.6z"/>
		<path d="M155.8,121.8c-0.1,0-0.2,0-0.2,0c-1.2,0-2.4-0.4-3.9-1.1c-4.1-1.9-8.4-5.4-11.8-9.7c-0.6-0.7-1.2-1.4-1.7-2.1
			c-2.4-3-5-6.1-6.9-9.6c-0.2-0.4-0.4-0.7-0.6-0.9c-0.2-0.2-0.5-0.3-0.8-0.4c-3.4-1.4-9.4-4.1-11.8-7.7c-0.7-1-0.8-2.3-0.4-3.6
			c0.8-2.7,3.6-5.6,5.8-6.6c4.7-2.1,10.8,4.7,12.6,6.9c0.7,0.9,1.4,1.8,2.1,2.8c0.9,1.2,1.7,2.4,2.8,3.5c1.8,2,4.2,3.6,6.4,5.1
			c1.4,0.9,2.8,1.9,4.1,2.9c0.3,0.2,0.6,0.5,0.9,0.7c2.8,2.4,5.1,5.2,6.8,8.3c1.3,2.4,3.2,6.9,0.5,10
			C158.7,121.3,157.3,121.8,155.8,121.8z M125.2,81.2c-0.5,0-0.9,0.1-1.3,0.3c-1.6,0.7-4.3,3.2-5,5.7c-0.3,1-0.2,1.8,0.3,2.4
			c2.3,3.3,8.5,6.1,11.1,7.1c0.4,0.2,0.9,0.4,1.3,0.7c0.4,0.4,0.7,0.8,0.9,1.3c1.9,3.4,4.4,6.4,6.8,9.4c0.6,0.7,1.2,1.4,1.7,2.2
			c3.3,4.1,7.4,7.5,11.3,9.3c1.3,0.6,2.4,0.9,3.4,0.9c1.1,0,2.2-0.3,2.7-1c2.1-2.4,0.5-6.2-0.7-8.3c-1.6-2.9-3.9-5.7-6.5-7.9
			c0,0,0,0,0,0c-0.3-0.2-0.5-0.5-0.8-0.7c-1.3-1-2.7-2-4-2.9c-2.3-1.6-4.7-3.2-6.7-5.3c-1.1-1.2-2-2.4-2.9-3.7
			c-0.6-0.9-1.3-1.8-2-2.7C132.1,84.6,128.1,81.2,125.2,81.2z"/>
	</g>
	<g>
		<path class="st14" d="M123.4,75.1c-1.9-1.1-4.3-1.3-6.3-0.6c-0.6,0.2-1.2,0.5-1.3,1.1c-0.1,0.5,0.1,1,0.5,1.3
			c0.3,0.3,0.8,0.6,1.2,0.8c1.8,1.3,2.4,3.6,3.8,5.4c0.3,0.4,0.7,0.8,1.2,0.9c0.5,0.2,1,0.2,1.5,0c1.6-0.4,3.1-2.5,3.1-4.1
			C127,77.9,124.9,76,123.4,75.1z"/>
		<path d="M123.1,84.8c-0.4,0-0.7-0.1-1-0.2c-0.7-0.3-1.2-0.8-1.5-1.2c-0.6-0.7-1-1.5-1.4-2.3c-0.6-1.2-1.2-2.2-2.2-2.9
			c-0.1-0.1-0.3-0.2-0.4-0.3c-0.3-0.2-0.6-0.4-0.9-0.6c-0.6-0.6-0.9-1.3-0.7-2c0.2-0.7,0.8-1.3,1.8-1.6c2.3-0.7,4.8-0.5,6.9,0.7
			c1.6,0.9,4,3.1,4,5.4c0,2-1.8,4.3-3.7,4.8C123.7,84.8,123.4,84.8,123.1,84.8z M119.5,74.8c-0.8,0-1.5,0.1-2.2,0.3
			c-0.5,0.2-0.8,0.4-0.8,0.6c0,0.2,0.1,0.4,0.3,0.6c0.2,0.2,0.4,0.3,0.6,0.5c0.2,0.1,0.3,0.2,0.4,0.3c1.2,0.9,1.9,2.2,2.6,3.4
			c0.4,0.8,0.8,1.5,1.3,2.1c0.3,0.4,0.6,0.6,0.8,0.7c0.4,0.1,0.8,0.1,1,0c1.3-0.4,2.6-2.1,2.6-3.5c0-1.6-1.9-3.4-3.2-4.1v0
			C122,75.1,120.7,74.8,119.5,74.8z"/>
	</g>
	<g>
		<path class="st14" d="M120.2,77.9c-2-0.9-4.4-0.9-6.4-0.1c-0.5,0.2-1.1,0.6-1.2,1.2c-0.1,0.5,0.2,0.9,0.6,1.2
			c0.4,0.3,0.8,0.5,1.2,0.7c1.9,1.1,2.7,3.4,4.2,5c0.3,0.4,0.7,0.7,1.2,0.8c0.5,0.1,1,0.1,1.5-0.1c1.6-0.6,2.9-2.7,2.8-4.4
			C124,80.5,121.8,78.7,120.2,77.9z"/>
		<path d="M120.4,87.7c-0.3,0-0.5,0-0.7-0.1c-0.7-0.2-1.2-0.7-1.6-1c-0.6-0.7-1.1-1.4-1.6-2.2c-0.7-1.1-1.4-2.1-2.4-2.7
			c-0.1-0.1-0.3-0.2-0.4-0.2c-0.3-0.2-0.6-0.3-0.9-0.6c-0.6-0.5-1-1.2-0.9-1.9c0.1-0.7,0.7-1.3,1.6-1.7c2.2-0.9,4.8-0.9,7,0.1l0,0
			c1.7,0.8,4.3,2.7,4.4,5c0.1,2-1.4,4.4-3.2,5.1C121.2,87.6,120.8,87.7,120.4,87.7z M116.9,78c-1,0-1.9,0.2-2.8,0.6
			c-0.5,0.2-0.7,0.4-0.8,0.6c0,0.2,0.1,0.4,0.3,0.6c0.2,0.2,0.4,0.3,0.7,0.4c0.2,0.1,0.3,0.2,0.5,0.3c1.3,0.8,2.1,2,2.9,3.2
			c0.5,0.7,0.9,1.4,1.5,2c0.3,0.4,0.6,0.6,0.9,0.6c0.4,0.1,0.8,0,1-0.1c1.2-0.5,2.4-2.3,2.3-3.7c-0.1-1.6-2.2-3.2-3.6-3.8
			C118.9,78.2,117.9,78,116.9,78z"/>
	</g>
	<g>
		<path class="st14" d="M116.4,81.7c-2.2,0-4.4,0.9-5.9,2.4c-0.4,0.4-0.8,1-0.6,1.6c0.1,0.5,0.6,0.8,1,0.9c0.5,0.1,1,0.1,1.4,0.2
			c2.2,0.3,3.8,2.1,5.9,2.9c0.5,0.2,1,0.3,1.5,0.3c0.5-0.1,1-0.3,1.3-0.7c1.2-1.1,1.6-3.6,0.8-5.1C121,82.5,118.2,81.7,116.4,81.7z"
			/>
		<path d="M119.5,90.7c-0.6,0-1.1-0.2-1.5-0.4c-0.8-0.4-1.6-0.9-2.4-1.3c-1.1-0.7-2.2-1.4-3.3-1.6c-0.2,0-0.3,0-0.5,0
			c-0.3,0-0.7-0.1-1.1-0.2c-0.8-0.2-1.4-0.8-1.5-1.4c-0.2-0.7,0.1-1.5,0.8-2.2c1.6-1.7,4-2.7,6.4-2.7l0,0c1.9,0,5,0.8,6.1,2.9
			c0.9,1.8,0.5,4.6-1,6c-0.5,0.5-1.1,0.8-1.7,0.9C119.7,90.7,119.6,90.7,119.5,90.7z M116.3,82.4c-1.9,0-3.9,0.8-5.2,2.2
			c-0.3,0.4-0.5,0.7-0.5,0.9c0,0.2,0.3,0.3,0.5,0.4c0.2,0.1,0.5,0.1,0.8,0.1c0.2,0,0.4,0,0.5,0.1c1.5,0.2,2.7,1,3.9,1.8
			c0.7,0.5,1.4,0.9,2.1,1.2c0.5,0.2,0.8,0.3,1.1,0.2c0.4,0,0.7-0.3,0.9-0.5c1-0.9,1.3-3.1,0.7-4.3c-0.7-1.4-3.2-2.1-4.8-2.1l0,0
			C116.4,82.4,116.3,82.4,116.3,82.4z"/>
	</g>
</g>
</svg>
