<?xml version="1.0" encoding="utf-8"?>
<!-- Generator: Adobe Illustrator 26.5.0, SVG Export Plug-In . SVG Version: 6.00 Build 0)  -->
<svg version="1.1" id="레이어_5" xmlns="http://www.w3.org/2000/svg" xmlns:xlink="http://www.w3.org/1999/xlink" x="0px"
	 y="0px" viewBox="0 0 117 273" style="enable-background:new 0 0 117 273;" xml:space="preserve">
<g>
	<g>
		<rect x="12.9" y="86.4" style="fill:#0497EB;" width="90.4" height="81.6"/>
		<path d="M104.3,169.1H12V85.5h92.4V169.1z M13.9,167.1h88.4V87.4H13.9V167.1z"/>
	</g>
	<g>
		<path style="fill:#FFFFFF;" d="M99.5,1H16.8c-2.1,0-3.8,1.7-3.8,3.8V87h90.4V4.8C103.3,2.7,101.6,1,99.5,1z"/>
		<path d="M104.3,88H12V7.2c0-4,3.3-7.2,7.3-7.2H97c4,0,7.3,3.2,7.3,7.2V88z M13.9,86.1h88.4V7.2c0-2.9-2.4-5.2-5.3-5.2H19.3
			c-2.9,0-5.3,2.3-5.3,5.2V86.1z"/>
	</g>
	<g>
		<g>
			<path style="fill:#0497EB;" d="M59.3,6.8c0,0-0.1,0-0.2,0L59.3,6.8z"/>
		</g>
		<g>
			<path style="fill-rule:evenodd;clip-rule:evenodd;fill:#FFFFFF;" d="M63.2,10c3.9,0.5,7.7,1.5,11.1,2.9
				c5.6,2.3,12.2,6.1,15.2,11.4c1.3,2.3,2.2,4.9,2.8,7.5c0.4,2-0.1,4.8,1.1,6.5c2.5,3.5,3,5.4,3.7,9.7c0.6,4.1,0.3,8.4-1.5,12.2
				C91.1,70.1,80.1,74.3,70,74.6c-1.4,0-2.8,0.1-4.2,0.1c-6.6,0.2-13,0.1-19.6-0.1C36,74.3,25,70.1,20.4,60.3
				c-1.8-3.8-2.1-8.1-1.5-12.2c0.7-4.3,1.2-6.3,3.7-9.7c1.2-1.7,0.7-4.5,1.1-6.5c0.5-2.6,1.4-5.2,2.8-7.5c3-5.3,8.1-9.1,13.7-11.4
				c2.3-1,4.7-1.7,7.1-2.2C52.1,9.7,58.4,9.4,63.2,10z"/>
		</g>
		<g>
			<path style="fill-rule:evenodd;clip-rule:evenodd;fill:#FFFFFF;" d="M46.7,40.3c-0.1,0.1-0.2,0.2-0.2,0.3
				c-0.1,0.5,0.3,0.7,0.7,0.7c0.2,0,1.2,0.1,1.4-0.1c0.3-0.5-0.3-1.2-0.7-1.2C47.5,39.9,47,40,46.7,40.3z"/>
		</g>
		<g>
			<g>
				<path style="fill-rule:evenodd;clip-rule:evenodd;fill:#F0B3AF;" d="M42.9,49.8c0,5.8-4.7,10.5-10.6,10.5s-10.6-4.7-10.6-10.5
					c0-5.8,4.7-10.4,10.6-10.4S42.9,44,42.9,49.8"/>
			</g>
			<g>
				<path style="fill-rule:evenodd;clip-rule:evenodd;fill:#F0B3AF;" d="M94.5,49.8c0,5.8-4.7,10.5-10.6,10.5
					c-5.8,0-10.6-4.7-10.6-10.5c0-5.8,4.7-10.4,10.6-10.4C89.8,39.4,94.5,44,94.5,49.8"/>
			</g>
		</g>
		<g>
			<g>
				<path style="fill-rule:evenodd;clip-rule:evenodd;fill:#C74A4C;" d="M67.3,53.7c-0.1,2.8-2.1,8.9-9.5,8.4c-8,0-8.6-6.3-8.9-8.7
					c0,0,5.1,1.5,9.2-1.8"/>
				<path d="M58.8,62.8c-0.3,0-0.6,0-1,0h0c-8.4,0-9.3-6.6-9.6-9.1l0-0.2c0-0.2,0.1-0.5,0.3-0.7c0.2-0.2,0.5-0.2,0.7-0.1
					c0,0,4.8,1.4,8.5-1.6c0.3-0.3,0.8-0.2,1.1,0.1c0.3,0.3,0.2,0.8-0.1,1c-3.2,2.6-7,2.4-8.8,2.1c0.4,2.7,1.6,7.1,8.1,7.1
					c2.5,0.2,4.5-0.4,6-1.7c2.1-1.8,2.7-4.6,2.7-5.9c0-0.4,0.3-0.7,0.8-0.7c0,0,0,0,0,0c0.4,0,0.7,0.4,0.7,0.8c-0.1,2-0.9,5-3.2,7
					C63.2,62.1,61.2,62.8,58.8,62.8z"/>
			</g>
			<g>
				<path style="fill-rule:evenodd;clip-rule:evenodd;fill:#FFFFFF;" d="M51.9,54.3v0.5c0,0.5,0.4,0.8,0.9,0.8h10.3
					c0.5,0,0.9-0.4,0.9-0.8v-0.4c0-0.4-0.3-0.8-0.8-0.8c-1.2-0.2-3.6-0.7-4.7-1.5c-0.3-0.2-0.7-0.3-1.1-0.1
					c-0.9,0.5-2.6,1.3-4.8,1.5C52.3,53.5,51.9,53.9,51.9,54.3z"/>
			</g>
			<g>
				<g>
					<path style="fill-rule:evenodd;clip-rule:evenodd;" d="M60,46.4c0,0.8-0.8,1.4-1.8,1.4c-1,0-1.8-0.6-1.8-1.4
						c0-0.7,0.8-1.4,1.8-1.4C59.1,45.1,60,45.7,60,46.4"/>
				</g>
				<g>
					<g>
						<path style="fill-rule:evenodd;clip-rule:evenodd;" d="M47.2,45.9L47.2,45.9c-2,0-3.5-1.4-3.5-3.2v-0.5c0-1.8,1.6-3.2,3.5-3.2
							s3.5,1.5,3.5,3.2v0.5C50.7,44.4,49.1,45.9,47.2,45.9"/>
					</g>
				</g>
				<g>
					<g>
						<path style="fill-rule:evenodd;clip-rule:evenodd;" d="M69.1,45.9L69.1,45.9c2,0,3.5-1.4,3.5-3.2v-0.5c0-1.8-1.6-3.2-3.5-3.2
							s-3.5,1.5-3.5,3.2v0.5C65.6,44.4,67.2,45.9,69.1,45.9"/>
					</g>
					<g>
						<path style="fill-rule:evenodd;clip-rule:evenodd;fill:#FFFFFF;" d="M68.7,40.4c-0.1,0.1-0.2,0.2-0.2,0.3
							c-0.1,0.5,0.3,0.7,0.7,0.7c0.2,0,1.2,0.1,1.4-0.1c0.3-0.5-0.3-1.2-0.7-1.2C69.6,40,69,40.1,68.7,40.4z"/>
					</g>
					<g>
						<path style="fill-rule:evenodd;clip-rule:evenodd;fill:#FFFFFF;" d="M66.9,43.7c0.1,0.2,0.3,0.4,0.5,0.5
							c0.3,0.1,0.8,0.1,1.1-0.1c0.1-0.1,0.7-0.7,0.4-0.8c-0.4-0.1-0.8-0.2-0.9-0.7c-0.1-0.3,0-0.7-0.3-0.9c-0.2-0.1-0.4,0-0.6,0.2
							C66.5,42.2,66.5,43.1,66.9,43.7z"/>
					</g>
					<g>
						<path style="fill-rule:evenodd;clip-rule:evenodd;fill:#FFFFFF;" d="M69.8,43.9c0,0.1,0,0.1,0.1,0.2c0.3,0.4,1.1,0.1,1.4-0.1
							c0.4-0.4,0.4-1.3-0.1-1.6c-0.6-0.4-0.9,0.4-1.1,0.8C70,43.4,69.8,43.7,69.8,43.9z"/>
					</g>
				</g>
			</g>
			<g>
				<g>
					<path d="M64.5,54.5c-2.4,0-4.7-0.7-6.3-1.9c-2.9,2.1-8.1,2.7-11.6,0.4c-0.8-0.5-2.1-1.6-2.2-2.7c0-0.5,0.1-0.9,0.4-1.2
						c0.3-0.3,0.9-0.4,1.2,0c0.3,0.3,0.4,0.9,0,1.2c0.1,0.1,0.6,0.7,1.5,1.4c2.9,2,7.7,1.3,10-0.7c0.3-0.3,0.8-0.3,1.1,0
						c2.3,2,7.1,2.7,10,0.7c0.9-0.6,1.4-1.3,1.5-1.5c-0.3-0.3-0.3-0.8,0-1.1c0.3-0.3,0.9-0.3,1.2,0.1c0.3,0.3,0.5,0.8,0.4,1.2
						c-0.1,1.1-1.4,2.2-2.2,2.7C68.2,54.1,66.3,54.5,64.5,54.5z"/>
				</g>
			</g>
		</g>
		<g>
			<path style="fill-rule:evenodd;clip-rule:evenodd;fill:#FFFFFF;" d="M46.7,40.4c-0.1,0.1-0.2,0.2-0.2,0.3
				c-0.1,0.5,0.3,0.7,0.7,0.7c0.2,0,1.2,0.1,1.4-0.1c0.3-0.5-0.3-1.2-0.7-1.2C47.6,40,47,40.1,46.7,40.4z"/>
		</g>
		<g>
			<path style="fill-rule:evenodd;clip-rule:evenodd;fill:#FFFFFF;" d="M44.9,43.7c0.1,0.2,0.3,0.4,0.5,0.5c0.3,0.1,0.8,0.1,1.1-0.1
				c0.1-0.1,0.7-0.7,0.4-0.8c-0.4-0.1-0.8-0.2-0.9-0.7c-0.1-0.3,0-0.7-0.3-0.9c-0.2-0.1-0.4,0-0.6,0.2
				C44.6,42.2,44.6,43.1,44.9,43.7z"/>
		</g>
		<g>
			<path style="fill-rule:evenodd;clip-rule:evenodd;fill:#FFFFFF;" d="M47.9,43.9c0,0.1,0,0.1,0.1,0.2c0.3,0.4,1.1,0.1,1.4-0.1
				c0.4-0.4,0.4-1.3-0.1-1.6c-0.6-0.4-0.9,0.4-1.1,0.8C48,43.4,47.8,43.7,47.9,43.9z"/>
		</g>
	</g>
</g>
<g>
	<g>
		<ellipse style="fill:#E7E7E7;" cx="58.5" cy="123.8" rx="54.3" ry="55.5"/>
		<path d="M58.5,180.3c-30.5,0-55.3-25.3-55.3-56.5c0-31.1,24.8-56.5,55.3-56.5c30.5,0,55.3,25.3,55.3,56.5
			C113.8,154.9,89,180.3,58.5,180.3z M58.5,69.3c-29.4,0-53.3,24.5-53.3,54.5c0,30.1,23.9,54.5,53.3,54.5s53.3-24.5,53.3-54.5
			C111.8,93.7,87.9,69.3,58.5,69.3z"/>
	</g>
	<ellipse style="fill:#FBFBFB;" cx="58.5" cy="123.8" rx="47" ry="48.1"/>
</g>
<g>
	<g>
		<path style="fill:#E7E7E7;" d="M58.5,219.4l-43.4-1.5c0,0,6,22.5,6.9,35.2c0.9,12.7,26.8,18.9,36.4,18.9c9.6,0,35.6-6.3,36.4-18.9
			c0.9-12.7,6.9-35.2,6.9-35.2L58.5,219.4z"/>
		<path d="M58.5,273c-8.7,0-36.5-6-37.4-19.8c-0.9-12.4-6.8-34.8-6.9-35l-0.3-1.3l44.7,1.5l44.7-1.5l-0.3,1.3
			c-0.1,0.2-6,22.6-6.9,35C95,267,67.2,273,58.5,273z M16.4,218.9c1.3,5,5.9,23.2,6.6,34.1c0.8,11.7,25.5,18,35.4,18
			c9.9,0,34.6-6.3,35.5-18c0.8-10.9,5.3-29.2,6.6-34.1l-42.1,1.4l0,0L16.4,218.9z"/>
	</g>
	<g>
		<path style="fill:#B4B4B4;" d="M58.3,158.5c-13.9,0-31.4,1.2-43.1,10.2c-3.2,2.5-5.7,5.4-7.5,8.8c-5.1,9.6-4.2,22.7,2.3,34
			c12.5,21.8,47.9,20.1,48.2,20.1c0.4,0,35.7,1.7,48.3-20.1c6.5-11.3,7.4-24.4,2.3-34c-1.8-3.4-4.3-6.4-7.5-8.8
			C89.7,159.7,72.2,158.5,58.3,158.5z"/>
		<path d="M56.2,232.5c-7.7,0-35.9-1.4-46.9-20.5c-6.7-11.6-7.6-24.9-2.3-34.8c1.9-3.5,4.4-6.5,7.7-9.1
			c11.9-9.2,29.5-10.4,43.6-10.4s31.7,1.2,43.6,10.4c3.2,2.5,5.8,5.6,7.7,9.1c5.2,9.9,4.4,23.2-2.3,34.8
			c-12.8,22.2-48.7,20.5-49,20.5C58.2,232.4,57.5,232.5,56.2,232.5z M58.2,230.8c0.5,0,35.3,1.7,47.6-19.7
			c6.4-11.1,7.3-23.8,2.3-33.2c-1.7-3.3-4.2-6.2-7.3-8.5c-11.5-8.9-28.8-10.1-42.6-10.1s-31.1,1.1-42.6,10.1
			c-3.1,2.4-5.5,5.3-7.3,8.5c-5,9.4-4.1,22.1,2.3,33.2C23,232.3,57.9,230.8,58.2,230.8z"/>
	</g>
	<path style="fill:#90D3FF;" d="M58,181.8c-9.3,0-21,0.8-28.8,6.8c-2.1,1.6-3.8,3.6-5,5.9c-3.4,6.4-2.8,15.1,1.5,22.7
		c4.4,7.6,12.9,10.8,19.3,12.2c6.9,1.5,12.9,1.2,13,1.2c0.1,0,6.1,0.3,13-1.2c6.4-1.4,14.9-4.6,19.3-12.2c4.4-7.6,5-16.3,1.5-22.7
		l0,0c-1.2-2.3-2.9-4.2-5-5.9C79,182.6,67.3,181.8,58,181.8z"/>
	<path style="fill:#E7E7E7;" d="M9.7,211c12.5,21.8,47.9,20.1,48.2,20.1c0.4,0,35.7,1.7,48.3-20.1H9.7z"/>
	<path style="fill:#B4B4B4;" d="M15.1,217.9c0,0,37.5,12.9,86.7,0c0,0-16.6,15.2-43.9,13.2C58,231.1,25.3,231.7,15.1,217.9z"/>
	<path style="fill:#040000;" d="M60.2,231.9c-1.4,0-2.2,0-2.3,0c-0.3,0-36.1,1.8-48.9-20.5l-0.7-1.2h99.3l-0.7,1.2
		C96,230.5,68.3,231.9,60.2,231.9z M57.9,230.2c0.4,0,33.9,1.7,46.9-18.4H11.2C24.1,231.9,57.6,230.3,57.9,230.2z"/>
	<g>
		<g>
			<path style="fill:#E7E7E7;" d="M115.3,182.3c-2.4-9.3-10.5-16-19.8-20.9c-22.5-11.8-51.4-11.8-73.9,0
				c-9.3,4.9-17.4,11.6-19.8,20.9C-1.5,195,6.3,207.2,17,215.7c9.3,7.4,25.9,17.9,36.3,5.8c5-5.9-6.8-14.9-11.9-17.9
				c-5.6-3.3-9.5-8.8-9-14.7c1.5-19.9,48.1-19.4,52.1-1.7c1.5,6.7-2.8,12.4-8.8,16.4c-7.5,4.4-16,12.3-9.2,20
				c9.2,10.3,27.1-2.6,34.5-8.7C111.1,206.5,118.5,194.7,115.3,182.3z"/>
			<path d="M75.3,228.5c-3.6,0-6.9-1.2-9.6-4.2c-2.2-2.5-3.1-5.2-2.6-8c1-6.2,8-11.1,12.1-13.5c3.8-2.5,10-8,8.3-15.3
				c-2-9.2-16.2-13.2-28.6-12.4c-9.5,0.6-20.8,4.7-21.5,13.9c-0.4,5.2,2.9,10.5,8.6,13.8c4.3,2.5,12.5,8.7,13.5,14.4
				c0.3,1.9-0.1,3.5-1.3,4.9c-8.1,9.5-21.1,7.5-37.7-5.6C3.5,206.2-2.2,193.6,0.8,182.1c2.2-8.4,9-15.6,20.3-21.5
				c22.7-11.9,52.1-11.9,74.8,0c11.3,5.9,18.1,13.1,20.3,21.5v0c2.9,11.2-2.4,23.5-14.7,33.6C96.1,220.2,84.8,228.5,75.3,228.5z
				 M58,172.9c12.3,0,25.3,4.6,27.4,14c1.4,6.3-1.9,12.5-9.2,17.4c-3.1,1.8-10.3,6.6-11.2,12.2c-0.4,2.3,0.3,4.4,2.2,6.4
				c8.6,9.7,26-2.9,33.1-8.8c11.6-9.6,16.8-21.1,14-31.6l0,0c-2-7.8-8.5-14.7-19.3-20.3c-22.2-11.6-50.8-11.6-73,0
				c-10.8,5.6-17.3,12.4-19.3,20.3c-4,15.3,9.1,27.7,15,32.4c10.8,8.6,25.7,16.7,34.9,5.9c0.8-1,1.1-2.1,0.9-3.4
				c-0.8-4.6-8-10.3-12.6-13.1c-6.3-3.7-10-9.7-9.5-15.6c0.7-8.6,9.8-14.8,23.4-15.7C55.8,173,56.9,172.9,58,172.9z"/>
		</g>
		<path style="fill:#FFFFFF;" d="M15.3,202.5c3.5,4.6,7.6,8.9,12.4,12.2c2.5,1.8,13.9,8.8,15.6,3.1c1.3-4.1-3.6-6.5-6.6-8.1
			c-4.3-2.2-8-4.7-10.8-8.8c-3.5-5-7.3-10.8-8.1-17.1c-0.2-1.5,0.1-4.8-1-5.9c-0.6-0.6-1.5-0.7-2.3-0.6
			C3.1,177.7,11.6,197.7,15.3,202.5z"/>
		<path style="fill:#FFFFFF;" d="M101.7,202.5c-3.5,4.6-7.6,8.9-12.4,12.2c-2.5,1.8-13.9,8.8-15.6,3.1c-1.3-4.1,3.6-6.5,6.6-8.1
			c4.3-2.2,8-4.7,10.8-8.8c3.5-5,7.3-10.8,8.1-17.1c0.2-1.5-0.1-4.8,1-5.9c0.6-0.6,1.5-0.7,2.3-0.6
			C113.9,177.7,105.4,197.7,101.7,202.5z"/>
	</g>
</g>
</svg>
