<?xml version="1.0" encoding="utf-8"?>
<!-- Generator: Adobe Illustrator 24.1.3, SVG Export Plug-In . SVG Version: 6.00 Build 0)  -->
<svg version="1.1" id="Layer_1" xmlns="http://www.w3.org/2000/svg" xmlns:xlink="http://www.w3.org/1999/xlink" x="0px" y="0px"
	 viewBox="0 0 401 250" style="enable-background:new 0 0 401 250;" xml:space="preserve">
<g>
	<path style="fill:#78ACFF;" d="M120.3,191.1l1.1,37.6l-4.8,3.1c-2.8,1.8-4.4,4.9-4.4,8.2l0.1,5.8H141l3.4-15.4l13.5-39.3H120.3z"/>
	<path style="fill:#78ACFF;" d="M348.2,177.7l-4.5-31.5l-69.2,29.3c0,0,11.9,34.6,53.2,38l-5.8,15.3l-4.8,3.1
		c-2.8,1.8-4.4,4.9-4.4,8.2l0.1,5.8h28.7l9.5-15.4l17.2-24.6L348.2,177.7z"/>
	<path style="fill:#FFB83B;" d="M348,118.8c0,0,14.8-6.8,28-19.7c13.2-12.9,20.8-25.3,20.8-25.3s2.8,14-13.4,35.1
		c-12.1,15.8-23.9,24.2-23.9,24.2L348,118.8z"/>
	<path style="fill:#FFFFFF;" d="M143.6,191.1l1.1,37.6l-4.8,3.1c-2.8,1.8-4.4,4.9-4.4,8.2l0.1,5.8h28.7l3.4-15.4l13.5-39.3H143.6z"
		/>
	<path style="fill:#FFFFFF;" d="M371.5,177.7l-4.5-31.5l-69.2,29.3c0,0,11.9,34.6,53.2,38l-5.8,15.3l-4.8,3.1
		c-2.8,1.8-4.4,4.9-4.4,8.2l0.1,5.8h28.7l9.5-15.4l17.2-24.6L371.5,177.7z"/>
	<path style="fill:#FFFFFF;" d="M322.2,105.9l-71.9,0L179,96v0c-2-0.7-4-1.3-6.1-1.8l0,0l-30.6-37.5L79.6,80.3l22.2,82.9
		c5.5,26.8,29.2,47,57.6,47c6.9,0,13.4-1.2,19.6-3.3v0l76.6-20.4l59.3,9.1c0.2,0,0.5,0.1,0.7,0.1l0.2,0v0c2.1,0.3,4.2,0.5,6.4,0.5
		c25,0,45.2-20.2,45.2-45.2C367.4,126.1,347.1,105.9,322.2,105.9z"/>
	<path style="fill:#FFFFFF;" d="M107.3,4.6C82,2.1,63.4,12.6,55,26.9L4,43.3l6.6,16.4C16,73,28.5,82,42.8,82.8l50.9,2.8
		c1.9,0.2,3.8,0.3,5.7,0.3l0.1,0l0,0c0,0,0.1,0,0.1,0c26.9,0,48.1-19.4,48.1-41.4C147.6,26.7,136,7.4,107.3,4.6z"/>
	<path style="fill:#FFB83B;" d="M103.2,71c19.3,0,35.8-6.7,43.6-19.2c0.5-2.4,0.8-4.8,0.8-7.3c0-17.9-11.6-37.2-40.3-40
		C82,2.1,63.4,12.6,55,26.9C54.1,58,76.4,71,103.2,71z"/>
	
		<line style="fill:none;stroke:#181F41;stroke-width:4.6536;stroke-linecap:round;stroke-linejoin:round;stroke-miterlimit:10;" x1="143.6" y1="191.1" x2="144.1" y2="208.9"/>
	
		<line style="fill:none;stroke:#181F41;stroke-width:4.6536;stroke-linecap:round;stroke-linejoin:round;stroke-miterlimit:10;" x1="175.3" y1="208.1" x2="181.1" y2="191.1"/>
	<g>
		
			<ellipse transform="matrix(0.184 -0.9829 0.9829 0.184 18.3903 99.1233)" style="fill:#181F41;" cx="68.9" cy="38.5" rx="5.1" ry="3.9"/>
	</g>
	
		<line style="stroke:#000000;stroke-width:6.2048;stroke-linecap:round;stroke-linejoin:round;stroke-miterlimit:10;" x1="69.4" y1="24.6" x2="77.5" y2="26.8"/>
	<path style="fill:none;stroke:#181F41;stroke-width:4.6536;stroke-linecap:round;stroke-linejoin:round;stroke-miterlimit:10;" d="
		M297.9,175.5c0,0,3.3,9.7,12.7,19.4"/>
	<path style="fill:#181F41;" d="M10.4,59.2c6.3-2.5,10.7-8.7,10.7-15.9c0-1.8-0.3-3.6-0.8-5.2L4,43.3L10.4,59.2z"/>
	<g>
		<path style="fill:#DA478F;" d="M92,126.6l-1.6-5.9c0.4-0.1,45.9-11.1,73-38.3l7.8,9.6c-29.6,29.7-75.6,40.1-77.6,40.5"/>
	</g>
	<path style="fill:#FFB83B;" d="M322.2,105.9l-17.7,0c-0.2,2.2-0.4,4.5-0.4,6.8c0,35.4,29.2,64,65.2,64c0.7,0,1.4,0,2.1-0.1
		l-4.3-30.1C364.9,123.7,345.6,105.9,322.2,105.9z"/>
	<path style="fill:#FFB83B;" d="M137.9,18.3c7.4,9.1,12.2,23,11.8,39.8c-0.6,26.6-12.4,37.3-25,39.2C113.9,99,85.1,97,90.5,53.2
		c1.4-11.3,3.1-20.1,5.2-26.9"/>
	<path style="fill:none;stroke:#181F41;stroke-width:4.6536;stroke-linecap:round;stroke-linejoin:round;stroke-miterlimit:10;" d="
		M95.7,26.3c-2.1,6.8-3.8,15.6-5.2,26.9c-2.6,21.2,2.8,32.6,10.3,38.6"/>
</g>
</svg>
