<?xml version="1.0" encoding="utf-8"?>
<!-- Generator: Adobe Illustrator 23.0.1, SVG Export Plug-In . SVG Version: 6.00 Build 0)  -->
<svg version="1.1" id="레이어_1" xmlns="http://www.w3.org/2000/svg" xmlns:xlink="http://www.w3.org/1999/xlink" x="0px"
	 y="0px" viewBox="0 0 141.7 74.5" style="enable-background:new 0 0 141.7 74.5;" xml:space="preserve">
<style type="text/css">
	.st0{fill:url(#SVGID_1_);}
	.st1{fill:url(#SVGID_2_);}
	.st2{fill:url(#SVGID_3_);}
	.st3{clip-path:url(#SVGID_5_);}
	.st4{fill:url(#SVGID_6_);}
	.st5{fill:url(#SVGID_7_);}
	.st6{fill:url(#SVGID_8_);}
	.st7{fill:#FFFFFF;}
	.st8{fill:#00A2F6;}
	.st9{fill:#673101;}
	.st10{fill-rule:evenodd;clip-rule:evenodd;fill:#FFFFFF;}
	.st11{fill-rule:evenodd;clip-rule:evenodd;fill:#FFBFBA;}
	.st12{fill-rule:evenodd;clip-rule:evenodd;fill:#D74848;}
	.st13{fill:#231815;}
	.st14{fill-rule:evenodd;clip-rule:evenodd;}
	.st15{fill:#0085C9;}
	.st16{fill:#E8E8E8;}
	.st17{opacity:0.24;clip-path:url(#SVGID_10_);fill:url(#SVGID_11_);}
	.st18{fill:#0F1113;}
	.st19{fill:#272727;}
	.st20{fill:url(#SVGID_12_);}
	.st21{fill:url(#SVGID_13_);}
	.st22{fill:url(#SVGID_14_);}
	.st23{fill:#363636;}
	.st24{fill:#F8F8F6;}
	.st25{fill:#FFF7D4;}
	.st26{fill:#E3E3E3;}
	.st27{opacity:0.41;}
	.st28{fill:#6B5252;}
	.st29{fill:none;stroke:#FFFFFF;stroke-width:4;stroke-linecap:round;stroke-linejoin:round;stroke-miterlimit:10;}
	.st30{fill:none;}
	.st31{fill:none;stroke:#FFFFFF;stroke-width:2;stroke-linecap:round;stroke-linejoin:round;stroke-miterlimit:10;}
	.st32{fill:none;stroke:#FFFFFF;stroke-linecap:round;stroke-linejoin:round;stroke-miterlimit:10;}
	.st33{fill:none;stroke:#FFFFFF;stroke-width:3;stroke-linecap:round;stroke-linejoin:round;stroke-miterlimit:10;}
	.st34{fill:url(#SVGID_15_);}
	.st35{fill:none;stroke:#000000;stroke-width:3;stroke-linecap:round;stroke-linejoin:round;stroke-miterlimit:10;}
	.st36{stroke:#595959;stroke-miterlimit:10;}
	.st37{stroke:#4D4D4D;stroke-miterlimit:10;}
	.st38{fill:#A1A1A1;}
	.st39{fill:url(#SVGID_16_);}
	.st40{fill:#FFFD7A;stroke:#000000;stroke-width:2;stroke-linecap:round;stroke-linejoin:round;stroke-miterlimit:10;}
	.st41{fill:#FFBFBA;}
	.st42{fill:#5FDB86;}
	.st43{fill:#FF8D6E;}
	.st44{fill:#FFFFFF;stroke:#000000;stroke-width:3;stroke-linecap:round;stroke-linejoin:round;stroke-miterlimit:10;}
	.st45{fill:#5FDB86;stroke:#000000;stroke-width:3;stroke-linecap:round;stroke-linejoin:round;stroke-miterlimit:10;}
	.st46{fill:#FF8D6E;stroke:#000000;stroke-width:3;stroke-linecap:round;stroke-linejoin:round;stroke-miterlimit:10;}
	.st47{fill:#FFFFFF;stroke:#FFA9DC;stroke-width:2;stroke-linecap:round;stroke-linejoin:round;stroke-miterlimit:10;}
	.st48{fill:#74E053;stroke:#FFA9DC;stroke-width:2;stroke-linecap:round;stroke-linejoin:round;stroke-miterlimit:10;}
	.st49{fill:url(#SVGID_17_);}
	.st50{fill:url(#SVGID_18_);}
	.st51{fill:url(#SVGID_19_);}
	.st52{fill:#FFFFFF;stroke:#FFA9DC;stroke-width:2;stroke-miterlimit:10;}
	.st53{clip-path:url(#SVGID_21_);fill:#FFFFFF;}
	.st54{clip-path:url(#SVGID_21_);fill:#FFFEFF;}
	.st55{fill:#595959;}
	.st56{fill:#4D4D4D;}
	.st57{clip-path:url(#SVGID_23_);fill:#FFFFFF;}
	.st58{clip-path:url(#SVGID_23_);fill:#FFFEFF;}
	.st59{fill:#FFFD7A;}
	.st60{fill:#FFFFFF;stroke:#000000;stroke-width:2.8;stroke-linecap:round;stroke-linejoin:round;stroke-miterlimit:10;}
	.st61{fill:#FFBFBA;stroke:#000000;stroke-width:2.8;stroke-linecap:round;stroke-linejoin:round;stroke-miterlimit:10;}
	.st62{fill:#FFA9DC;}
	.st63{fill:#74E053;}
	.st64{fill:#FFFFFF;stroke:#040000;stroke-width:3;stroke-linecap:round;stroke-linejoin:round;stroke-miterlimit:10;}
	.st65{fill:#F7B52C;stroke:#040000;stroke-width:3;stroke-linecap:round;stroke-linejoin:round;stroke-miterlimit:10;}
</style>
<g>
	<g>
		<path class="st52" d="M89.1,28c-0.7,0-1.5-0.2-2-0.8c-1-1-1-2.7,0-3.7c3.5-3.5,7.9-6.3,12.1-9c2.2-1.4,4.4-2.8,6.3-4.3
			c1.2-0.9,2.8-0.6,3.7,0.6c0.9,1.2,0.6,2.8-0.6,3.7c-2.1,1.5-4.4,3-6.6,4.4c-4,2.6-8.1,5.2-11.2,8.3C90.4,27.7,89.7,27.9,89.1,28z"
			/>
	</g>
	<g>
		<path class="st52" d="M93.9,35.3c-1.1,0.1-2.2-0.6-2.6-1.7c-0.5-1.4,0.2-2.9,1.6-3.4c4.7-1.7,9.8-2.4,14.8-3.1
			c2.6-0.4,5.1-0.7,7.6-1.2c1.4-0.3,2.8,0.6,3.1,2.1c0.3,1.4-0.6,2.8-2.1,3.1c-2.6,0.5-5.3,0.9-7.9,1.2c-4.7,0.6-9.5,1.3-13.7,2.8
			C94.4,35.3,94.2,35.3,93.9,35.3z"/>
	</g>
	<g>
		<path class="st52" d="M115.1,48.1c-0.2,0-0.3,0-0.5,0c-2.6-0.3-5.3-0.9-7.9-1.4c-4.6-0.9-9.4-1.9-13.8-1.8c-1.5,0-2.7-1.1-2.7-2.6
			c0-1.5,1.1-2.7,2.6-2.7c5-0.1,10.1,0.9,15,1.9c2.6,0.5,5.1,1,7.5,1.3c1.4,0.2,2.5,1.5,2.3,3C117.4,47.1,116.4,48,115.1,48.1z"/>
	</g>
	<g>
		<path class="st52" d="M52.4,40.8c-0.6,0-1.3-0.1-1.8-0.6c-3.5-2.7-7.8-4.9-12.1-6.9c-2.4-1.2-4.8-2.3-7.1-3.6
			c-1.3-0.7-1.7-2.3-1-3.6c0.7-1.3,2.3-1.7,3.6-1c2.1,1.2,4.4,2.3,6.8,3.5c4.5,2.2,9.2,4.5,13.1,7.6c1.1,0.9,1.3,2.6,0.4,3.7
			C53.8,40.4,53.1,40.8,52.4,40.8z"/>
	</g>
	<g>
		<path class="st52" d="M48.4,48.7c-0.3,0-0.5,0-0.8-0.1c-4.3-1-9.2-1.1-13.9-1.2c-2.6,0-5.4-0.1-8-0.3c-1.5-0.1-2.5-1.4-2.4-2.8
			c0.1-1.5,1.4-2.5,2.8-2.4c2.4,0.2,5,0.2,7.6,0.3c5,0.1,10.2,0.1,15.1,1.3c1.4,0.3,2.3,1.8,2,3.2C50.6,47.8,49.6,48.6,48.4,48.7z"
			/>
	</g>
	<g>
		<path class="st52" d="M28.9,63.9c-1.2,0.1-2.4-0.7-2.7-2c-0.4-1.4,0.5-2.9,1.9-3.2c2.4-0.6,4.8-1.4,7.3-2.2
			c4.8-1.6,9.7-3.2,14.7-3.6c1.5-0.1,2.7,0.9,2.9,2.4c0.1,1.5-0.9,2.7-2.4,2.9c-4.4,0.4-9,1.9-13.5,3.4c-2.5,0.8-5.1,1.7-7.6,2.3
			C29.2,63.9,29.1,63.9,28.9,63.9z"/>
	</g>
</g>
</svg>
