<?xml version="1.0" encoding="utf-8"?>
<!-- Generator: Adobe Illustrator 26.5.0, SVG Export Plug-In . SVG Version: 6.00 Build 0)  -->
<svg version="1.1" id="레이어_1" xmlns="http://www.w3.org/2000/svg" xmlns:xlink="http://www.w3.org/1999/xlink" x="0px"
	 y="0px" viewBox="0 0 138 252" style="enable-background:new 0 0 138 252;" xml:space="preserve">
<g>
	<path style="fill:#67A9E4;" d="M67.7,32.6c-8.4,0-44,1.9-46.6,33.6c-2.3,27.4,4.6,45.6,8.7,56.5c1.4,3.7,2.5,6.6,2.9,8.9
		c1.1,6.7,0.2,14-0.7,21.1c-0.5,4.1-1,8-1.1,11.8l0,0.8c-0.3,11.1-0.8,26.4,9.9,32.7c16.6,9.9,38.1,10.1,56.1,0.6
		c11.3-6,11.2-20.2,11.1-30.5c0-7.3-0.7-14.8-1.3-22c-0.1-1.2-0.2-2.3-0.4-3.5c-0.4-3.7-0.8-7.5-0.2-11.1l0,0
		c0.4-2.3,1.5-5.2,2.9-8.9c4.1-10.9,11-29.2,8.7-56.5c-3-35.8-47.9-33.6-48.3-33.6C69.4,32.6,68.8,32.6,67.7,32.6z"/>
	<path d="M69,206.5c-10.1,0-20-2.6-28.6-7.7c-11.1-6.6-10.6-22.1-10.3-33.4l0-0.8c0.1-3.8,0.6-7.7,1.1-11.8
		c0.9-7.1,1.8-14.4,0.7-20.9c-0.4-2.2-1.5-5.1-2.9-8.8c-4.1-11-11.1-29.3-8.8-56.9c2.7-32.7,40-34.3,47.5-34.3c1.1,0,1.8,0,1.8,0
		c0.3,0,46.1-2.2,49.1,34.3c2.3,27.6-4.6,45.9-8.8,56.9c-1.4,3.7-2.5,6.6-2.9,8.8c-0.6,3.4-0.2,7.2,0.2,10.8
		c0.1,1.2,0.3,2.3,0.4,3.5c0.6,7.2,1.2,14.7,1.3,22.1c0.1,10.6,0.2,25-11.6,31.3C88.4,204.1,78.6,206.5,69,206.5z M67.7,33.4
		c-40,0-45.1,25.1-45.8,32.8c-2.3,27.2,4.6,45.4,8.7,56.2c1.4,3.8,2.5,6.7,2.9,9.1c1.1,6.8,0.2,14.1-0.7,21.3c-0.5,4.2-1,8-1.1,11.8
		l0,0.8c-0.3,10.9-0.8,25.9,9.5,32c16.4,9.7,37.6,10,55.3,0.6c10.9-5.8,10.8-19.7,10.7-29.8c0-7.3-0.7-14.8-1.3-21.9
		c-0.1-1.2-0.2-2.3-0.4-3.4c-0.4-3.8-0.8-7.6-0.2-11.3c0.4-2.4,1.5-5.3,2.9-9.1c4.1-10.8,10.9-29,8.7-56.2
		c-1.2-14.5-9.4-24.4-24.5-29.5c-11.6-3.9-22.9-3.3-23-3.3C69.4,33.4,68.7,33.4,67.7,33.4z"/>
</g>
<g>
	<g>
		<g>
			<path style="fill:#FFD174;" d="M49.8,197.8c-0.6,0.5-0.3,4.1-0.3,5c-0.1,1.8-0.2,3.6-0.4,5.3c-0.2,3.4-0.4,6.9-0.6,10.3
				c-0.2,3.6-0.3,7.1-0.3,10.7c0,2.8,0,5.6-0.3,8.4c0,0-9.5,0.7-10.6,0.8c-3.7,0.4-7.2,2.2-10.4,4c-0.5,0.3-1,0.6-1.1,1.1
				c-0.1,0.3,0,0.7,0.1,1c0.6,1.8,1.7,4.5,3.7,5.1c7.7,2.6,19.6,1.6,27.2-0.7c0.3-0.1,0.6-0.2,0.7-0.4c0.2-0.2,0.2-0.5,0.3-0.7
				c2.5-15.1-1-30.9-1.7-46.1c-0.1-1.3-0.2-2.7-0.9-3.7C54.3,196.8,50.7,196.9,49.8,197.8z"/>
			<path d="M40.7,252c-4.2,0-8.2-0.5-11.5-1.6c-1.8-0.6-3.3-2.6-4.3-5.8c-0.2-0.5-0.3-1-0.1-1.5c0.2-1,1.1-1.5,1.6-1.7
				c3.5-1.9,7-3.7,10.8-4.1c5.5-0.6,8.3-0.8,9.7-0.8c0.1-2,0.2-4,0.2-6l0-1.5c0-3.3,0.2-6.8,0.3-10.7c0.2-3.4,0.4-6.9,0.6-10.3
				c0.1-1.8,0.2-3.6,0.4-5.3c0-0.2,0-0.6,0-1c-0.1-2.9,0-4,0.7-4.6l0,0v0c0.9-0.8,2.8-1,4.2-0.9c0.9,0.1,2,0.4,2.6,1.2
				c1,1.3,1,3,1.1,4.3c0.2,4.7,0.7,9.6,1.2,14.3c1.1,10.5,2.2,21.4,0.5,32c-0.1,0.3-0.1,0.8-0.5,1.2c-0.4,0.4-0.9,0.6-1.2,0.7
				C52.4,251.1,46.5,252,40.7,252z M47.8,238.5c-0.7,0-9.3,0.7-10.4,0.8c-3.5,0.4-6.6,2-10,3.9c-0.5,0.3-0.6,0.4-0.7,0.5
				c0,0,0,0.2,0.1,0.5c0.8,2.5,1.9,4.1,3,4.5c7.4,2.5,19,1.5,26.6-0.7c0.1,0,0.2-0.1,0.3-0.1h0c0,0,0-0.2,0-0.2
				c1.7-10.3,0.6-21-0.5-31.5c-0.5-4.7-1-9.6-1.2-14.4c-0.1-1.3-0.2-2.4-0.7-3.2c-0.1-0.1-0.6-0.3-1.5-0.4c-1.1-0.1-1.9,0.2-2.3,0.3
				c-0.2,0.6-0.1,2.4-0.1,3.2c0,0.5,0,1,0,1.2c-0.1,1.8-0.2,3.6-0.4,5.3c-0.2,3.4-0.4,6.9-0.6,10.3c-0.2,3.8-0.3,7.3-0.3,10.7l0,1.5
				c0,2.3,0,4.6-0.2,7c0,0.4-0.3,0.7-0.7,0.8C48.1,238.4,48,238.5,47.8,238.5z M50.4,198.5L50.4,198.5L50.4,198.5
				C50.4,198.5,50.4,198.5,50.4,198.5z M49.8,197.8L49.8,197.8L49.8,197.8z"/>
		</g>
		<path style="fill:#C48200;" d="M53.9,245.1C53.9,245.1,53.9,245.1,53.9,245.1c-0.6,0-1.1-0.5-1-1.1c0.1-1.7,0-7.1,0-7.1
			c0-0.5,0.4-1,1-1c0,0,0,0,0,0c0.5,0,1,0.4,1,1c0,0.2,0.1,5.5,0,7.3C54.9,244.7,54.4,245.1,53.9,245.1z"/>
		<path style="fill:#C48200;" d="M51.8,233.1c-0.6,0-1-0.4-1-1v-9.4c0-0.5,0.5-1,1-1s1,0.4,1,1v9.4
			C52.8,232.7,52.4,233.1,51.8,233.1z"/>
	</g>
	<g>
		<path style="fill:#265176;" d="M40.5,193l0.1,18.7c0,0,13.4,3.3,22.6,0v-10.7"/>
		<path d="M53.2,214.2c-6.6,0-12.5-1.4-12.8-1.5c-0.4-0.1-0.8-0.5-0.8-1L39.5,193c0-0.5,0.4-1,1-1c0,0,0,0,0,0c0.6,0,1,0.4,1,1
			l0.1,17.9c2.8,0.6,13,2.4,20.5,0.1v-9.9c0-0.5,0.5-1,1-1c0.6,0,1,0.4,1,1v10.6c0,0.4-0.3,0.8-0.7,0.9
			C60.3,213.8,56.6,214.2,53.2,214.2z"/>
	</g>
</g>
<g>
	<g>
		<g>
			<path style="fill:#FFD174;" d="M91.6,197.8c0.6,0.5,0.3,4.1,0.3,5c0.1,1.8,0.2,3.6,0.4,5.3c0.2,3.4,0.4,6.9,0.6,10.3
				c0.2,3.6,0.3,7.1,0.3,10.7c0,2.8,0,5.6,0.3,8.4c0,0,9.5,0.7,10.6,0.8c3.7,0.4,7.2,2.2,10.4,4c0.5,0.3,1,0.6,1.1,1.1
				c0.1,0.3,0,0.7-0.1,1c-0.6,1.8-1.7,4.5-3.7,5.1c-7.7,2.6-19.6,1.6-27.2-0.7c-0.3-0.1-0.6-0.2-0.7-0.4c-0.2-0.2-0.2-0.5-0.3-0.7
				c-2.5-15.1,1-30.9,1.7-46.1c0.1-1.3,0.2-2.7,0.9-3.7S90.7,196.9,91.6,197.8z"/>
			<path d="M100.7,252c-5.7,0-11.7-0.9-16.3-2.2c-0.3-0.1-0.8-0.2-1.2-0.7c-0.4-0.4-0.5-0.9-0.5-1.2c-1.8-10.5-0.6-21.4,0.5-32
				c0.5-4.7,1-9.6,1.2-14.3c0.1-1.3,0.1-2.9,1.1-4.3c0.6-0.8,1.8-1.1,2.6-1.2c1.4-0.1,3.3,0.1,4.2,0.9l0,0v0l0,0
				c0.6,0.6,0.7,1.7,0.7,4.6c0,0.5,0,0.8,0,1c0.1,1.8,0.2,3.6,0.4,5.3c0.2,3.4,0.4,6.9,0.6,10.3c0.2,3.9,0.3,7.4,0.3,10.7l0,1.5
				c0,2,0,4,0.2,6c1.5,0,4.3,0.2,9.7,0.8c3.8,0.4,7.3,2.2,10.8,4.1c0.5,0.3,1.4,0.8,1.6,1.7c0.1,0.5,0,1.1-0.1,1.5
				c-1,3.2-2.5,5.2-4.3,5.8C108.9,251.5,104.9,252,100.7,252z M84.7,247.8c0,0,0.2,0,0.2,0.1c7.6,2.2,19.2,3.2,26.6,0.7
				c1.1-0.4,2.2-2,3-4.5c0.1-0.3,0.1-0.4,0.1-0.5c0-0.1-0.1-0.2-0.7-0.5c-3.5-1.9-6.6-3.5-10-3.9c-1.1-0.1-9.7-0.8-10.4-0.8
				c-0.1,0-0.3,0-0.4-0.1c-0.4-0.1-0.6-0.5-0.7-0.8c-0.2-2.3-0.2-4.7-0.2-7l0-1.5c0-3.3-0.2-6.8-0.3-10.7c-0.2-3.4-0.4-6.9-0.6-10.3
				c-0.1-1.8-0.2-3.6-0.4-5.3c0-0.2,0-0.7,0-1.2c0-0.8,0-2.6-0.1-3.2c-0.3-0.2-1.2-0.4-2.3-0.3c-0.9,0-1.4,0.3-1.5,0.4
				c-0.6,0.8-0.7,1.9-0.7,3.2c-0.2,4.8-0.7,9.7-1.2,14.4c-1.1,10.4-2.2,21.2-0.5,31.5C84.7,247.6,84.7,247.8,84.7,247.8
				C84.7,247.8,84.7,247.8,84.7,247.8z M91,198.5C91,198.5,91,198.5,91,198.5L91,198.5L91,198.5z"/>
		</g>
		<path style="fill:#C48200;" d="M87.3,245.1c-0.5,0-0.9-0.3-1-0.7c-0.7-2.7-0.6-18.5-0.6-20.3c0-0.5,0.5-1,1-1c0,0,0,0,0,0
			c0.6,0,1,0.4,1,1c0,4.8,0,17.7,0.5,19.8c0.1,0.5-0.2,1.1-0.7,1.2C87.5,245.1,87.4,245.1,87.3,245.1z"/>
	</g>
	<g>
		<path style="fill:#265176;" d="M100.9,193l-0.1,18.7c0,0-13.4,3.3-22.6,0v-10.7"/>
		<path d="M88.2,214.2c-3.4,0-7.1-0.4-10.3-1.5c-0.4-0.1-0.7-0.5-0.7-0.9v-10.6c0-0.5,0.5-1,1-1c0.6,0,1,0.4,1,1v9.9
			c7.5,2.3,17.7,0.5,20.5-0.1l0.1-17.9c0-0.5,0.5-1,1-1c0,0,0,0,0,0c0.6,0,1,0.4,1,1l-0.1,18.7c0,0.5-0.3,0.8-0.8,1
			C100.7,212.8,94.8,214.2,88.2,214.2z"/>
	</g>
</g>
<g>
	<path style="fill:#215C8D;" d="M91.1,88.7c-1.3,0-2.1-0.1-2.3-0.1c-9.5-1.3-12.7-7.6-12.8-7.9c-0.2-0.5,0-1.1,0.5-1.3
		c0.5-0.2,1.1,0,1.3,0.5c0.1,0.2,2.9,5.6,11.2,6.7c0.1,0,8.8,0.9,12.3-3.3c0.4-0.4,1-0.5,1.4-0.1c0.4,0.3,0.5,1,0.1,1.4
		C100,88.1,94.3,88.7,91.1,88.7z"/>
	<g>
		<ellipse style="fill:#FFFFFF;" cx="91.2" cy="68.7" rx="13.4" ry="15.3"/>
		<path d="M91.2,84.9c-8,0-14.5-7.3-14.5-16.2c0-9,6.5-16.2,14.5-16.2s14.5,7.3,14.5,16.2C105.6,77.6,99.1,84.9,91.2,84.9z
			 M91.2,54.4c-6.9,0-12.4,6.4-12.4,14.3s5.6,14.3,12.4,14.3s12.4-6.4,12.4-14.3S98,54.4,91.2,54.4z"/>
	</g>
	<ellipse cx="91.2" cy="71.7" rx="7.8" ry="8.8"/>
</g>
<g>
	<path style="fill:#215C8D;" d="M50.3,88.7c-3.2,0-8.9-0.5-11.9-4.1c-0.4-0.4-0.3-1,0.1-1.4c0.4-0.3,1.1-0.3,1.4,0.1
		c3.5,4.2,12.3,3.3,12.4,3.3c8.3-1.1,11.1-6.5,11.2-6.7c0.2-0.5,0.8-0.7,1.3-0.5c0.5,0.2,0.7,0.8,0.5,1.3c-0.1,0.3-3.3,6.6-12.8,7.9
		C52.4,88.6,51.6,88.7,50.3,88.7z"/>
	<g>
		<ellipse style="fill:#FFFFFF;" cx="50.2" cy="68.7" rx="13.4" ry="15.3"/>
		<path d="M50.2,84.9c-8,0-14.5-7.3-14.5-16.2c0-9,6.5-16.2,14.5-16.2s14.5,7.3,14.5,16.2C64.7,77.6,58.2,84.9,50.2,84.9z
			 M50.2,54.4c-6.9,0-12.4,6.4-12.4,14.3s5.6,14.3,12.4,14.3s12.4-6.4,12.4-14.3S57.1,54.4,50.2,54.4z"/>
	</g>
	<ellipse cx="50.2" cy="71.7" rx="7.8" ry="8.8"/>
</g>
<g>
	<g>
		<path style="fill:#FFD174;" d="M64,37.7c-0.3-0.2-0.5-0.4-0.7-0.7c-1.2-1.9-1.2-6-1.6-8.2c-0.9-5.3-1.6-10.7-2-16.1
			c-0.2-2.1-0.1-4.5,1.6-5.7c1.4-1,3.4-0.7,4.7,0.3s2.1,2.6,2.6,4.2c0.4-2.6,0.9-5.3,2.5-7.5c1.5-2.2,4.5-3.6,7-2.6
			C79.9,2,81,3.6,81.5,5.4c0.5,1.7,0.3,3.6,0.1,5.4c-0.7,5.7-1.5,11.3-2.9,16.9c-0.5,1.8-1,6.3-2.5,7.5c-1.2,1-4.5,1.9-6.1,2.5
			C68.3,38.4,65.5,38.9,64,37.7z"/>
		<path d="M66.5,39.4c-1.1,0-2.3-0.2-3.1-0.9c0,0,0,0,0,0c-0.4-0.3-0.7-0.6-0.9-1c-1-1.6-1.3-4.2-1.5-6.4c-0.1-0.8-0.2-1.6-0.3-2.2
			c-0.9-5.4-1.6-10.8-2-16.2c-0.2-2.3-0.1-5.1,2-6.6c1.6-1.2,4.1-1,5.9,0.3c0.6,0.5,1.1,1,1.6,1.7c0.4-1.7,1-3.3,2-4.8
			c1.7-2.4,5.1-4.2,8.2-3c1.9,0.7,3.3,2.5,3.9,4.7c0.5,1.9,0.4,3.9,0.1,5.7c-0.7,5.4-1.5,11.2-2.9,17c-0.1,0.4-0.2,0.9-0.3,1.5
			c-0.6,2.9-1.2,5.4-2.5,6.5c-1,0.8-3,1.5-4.8,2.2c-0.6,0.2-1.2,0.4-1.6,0.6C69.3,39,67.9,39.4,66.5,39.4z M64.6,36.9
			c1.1,0.8,3.4,0.5,5.1-0.2c0.4-0.2,1-0.4,1.7-0.6c1.5-0.5,3.4-1.2,4.1-1.8c0.9-0.8,1.5-3.7,1.8-5.4c0.1-0.6,0.2-1.2,0.3-1.6
			c1.4-5.6,2.2-11.4,2.9-16.7c0.2-1.9,0.3-3.5-0.1-5C80.1,4,79,2.7,77.8,2.2c-2.1-0.8-4.6,0.5-5.8,2.3c-1.4,2-1.9,4.7-2.3,7.1
			c-0.1,0.5-0.5,0.8-0.9,0.8c-0.5,0-0.9-0.3-1-0.7C67.2,10,66.4,8.8,65.4,8c-0.9-0.7-2.5-1-3.5-0.3c-1.3,0.9-1.3,3.1-1.2,4.8
			c0.4,5.4,1.1,10.8,2,16.1c0.1,0.6,0.2,1.4,0.3,2.3c0.2,2,0.4,4.4,1.2,5.6C64.3,36.7,64.4,36.8,64.6,36.9L64.6,36.9z"/>
	</g>
	<path style="fill:#C48200;" d="M68.4,30.5c-0.5,0-1-0.4-1-0.9l-1-11.1c0-0.5,0.4-1,0.9-1.1c0.6,0,1,0.4,1.1,0.9l1,11.1
		C69.5,30,69.1,30.5,68.4,30.5C68.5,30.5,68.5,30.5,68.4,30.5z"/>
	<path style="fill:#C48200;" d="M73.4,25c0,0-0.1,0-0.1,0c-0.6-0.1-0.9-0.6-0.9-1.1l1.7-13.1c0.1-0.5,0.6-0.9,1.1-0.9
		c0.6,0.1,0.9,0.6,0.9,1.1l-1.7,13.1C74.4,24.6,73.9,25,73.4,25z"/>
</g>
<g>
	<path style="fill:#265176;" d="M30.8,173.1c0.4,0.2,0.1,3.6,0.1,4c0,5.6,1.5,11.3,4.7,16c5.1,7.6,14,10,22.6,11.6
		c9.1,1.7,18.5,0.8,27.4-1.4c7.2-1.8,14.8-5.1,18.7-11.6c2.9-5,4.6-13.1,3.1-18.6c0,0-21.3,6.4-39.3,5
		C68.1,178.1,37.8,176.3,30.8,173.1z"/>
	<path d="M68.2,206.4c-3.5,0-6.9-0.3-10.1-0.9c-8.3-1.6-17.7-3.9-23.2-11.9c-3.2-4.7-4.8-10.4-4.8-16.4c0-0.1,0-0.3,0-0.6
		c0.1-1.5,0.1-2.5,0.1-2.9c-0.2-0.2-0.2-0.6-0.1-0.9c0.2-0.4,0.7-0.6,1.1-0.4c6.7,3.1,36.7,4.9,37,4.9c17.6,1.4,38.7-4.9,39-5
		c0.2-0.1,0.5,0,0.7,0.1c0.2,0.1,0.3,0.3,0.4,0.5c1.7,6.1-0.4,14.4-3.2,19.2c-3.3,5.7-9.6,9.6-19.2,12
		C79.7,205.6,73.7,206.4,68.2,206.4z M31.9,174.4c0,0.6,0,1.3-0.1,2.2c0,0.3,0,0.5,0,0.5c0,5.8,1.5,11.1,4.5,15.5
		c5.1,7.5,14.1,9.7,22.1,11.2c8.2,1.5,17.3,1.1,27-1.4c9.1-2.3,15.1-6,18.2-11.2c2.5-4.3,4.4-11.7,3.2-17.1
		c-4.2,1.2-22.9,6.1-38.7,4.8C66.9,178.9,40.8,177.3,31.9,174.4z M30.4,173.8L30.4,173.8L30.4,173.8z"/>
</g>
<g>
	<path style="fill:#FFFFFF;" d="M108.6,122c-3.8,1-7.1,0.9-10,3.6c-2.6,2.4-4.6,5.4-7.6,7.4c-7.4,5.1-14.6,1.3-22.5,1.6
		c-8.4,0.4-16.5-3.1-23.3-7.7c-5-3.4-9.2-3.8-15.1-5c0.7,1.8,1.2,3.6,1.7,5.4c1.2,4.2,1.2,8.5,1,12.8c-0.2,4.2-0.3,8.5-0.8,12.6
		c-0.4,4.3-1,8.4-1.1,12.7c-0.1,2.5-0.2,5-0.3,7.5c0,0,41.7,11.3,76.5,0c0,0,0.6-18.2,0-22.2c0,0-0.7-11.4-0.7-13.5L108.6,122z"/>
	<path d="M72.2,178.9c-22.6,0-41.3-4.9-41.6-5c-0.4-0.1-0.6-0.4-0.6-0.8l0.3-7.5c0.1-3.4,0.5-6.8,0.8-10.1l0.3-2.6
		c0.4-4.2,0.6-8.5,0.8-12.6c0.2-3.9,0.2-8.4-1-12.6c-0.5-1.8-1.1-3.6-1.7-5.3c-0.1-0.3,0-0.6,0.2-0.8c0.2-0.2,0.5-0.3,0.8-0.3
		c0.8,0.2,1.6,0.3,2.3,0.4c4.8,0.9,8.6,1.6,13.1,4.6c7.9,5.3,15.6,7.9,22.7,7.5c2.6-0.1,5.1,0.2,7.6,0.5c5,0.6,9.8,1.2,14.5-2
		c1.8-1.2,3.2-2.8,4.7-4.4c0.9-1,1.8-2,2.8-2.9c2.3-2.1,4.9-2.6,7.6-3.2c0.9-0.2,1.8-0.4,2.8-0.6c0.3-0.1,0.6,0,0.8,0.2
		c0.2,0.2,0.3,0.4,0.3,0.7l-1.9,15.4c0,2,0.7,13.2,0.7,13.4c0.6,3.9,0,21.5,0,22.2c0,0.3-0.2,0.6-0.6,0.8
		C96,177.6,83.6,178.9,72.2,178.9z M31.7,172.5c5.4,1.3,43.1,10.1,74.9,0c0.1-3.1,0.6-18,0-21.4c0-0.5-0.7-11.5-0.7-13.6l1.8-14.3
		c-0.6,0.1-1.1,0.2-1.7,0.3c-2.6,0.5-4.8,0.9-6.7,2.8c-1,0.9-1.8,1.9-2.7,2.8c-1.5,1.6-3,3.3-5,4.7c-5.3,3.6-10.6,2.9-15.7,2.3
		c-2.4-0.3-4.8-0.6-7.3-0.5c-7.6,0.3-15.6-2.3-23.8-7.8c-4.2-2.8-7.8-3.5-12.4-4.4c-0.3-0.1-0.6-0.1-0.9-0.2
		c0.5,1.3,0.9,2.7,1.3,4.1c1.2,4.4,1.2,9.1,1.1,13.1c-0.2,4.2-0.4,8.5-0.8,12.7l-0.3,2.6c-0.4,3.4-0.7,6.6-0.8,10L31.7,172.5z"/>
</g>
<path d="M72.8,172.7c-8.7,0-15.4-1.6-15.9-1.7c-0.5-0.1-0.9-0.7-0.7-1.2c0.1-0.5,0.7-0.9,1.2-0.7c0.2,0,15.4,3.6,29.1,0
	c0.5-0.1,1.1,0.2,1.2,0.7c0.1,0.5-0.2,1.1-0.7,1.2C82.2,172.3,77.3,172.7,72.8,172.7z"/>
<path d="M82.6,142.8c-2.6,0-5.2-0.4-7.7-1.2c-0.4-0.1-0.8-0.3-1.2-0.4c-1.1-0.4-2.1-0.7-3.1-0.9c-0.9-0.1-1.9-0.1-2.9-0.1
	c-0.4,0-0.7,0-1,0c-4.8,0.1-9.6-1.1-13.9-3.4c-0.5-0.3-0.7-0.9-0.4-1.3c0.3-0.5,0.9-0.7,1.4-0.4c3.9,2.1,8.4,3.2,12.9,3.1
	c0.3,0,0.7,0,1,0c1.1,0,2.2-0.1,3.3,0.1c1.2,0.2,2.4,0.6,3.5,1c0.4,0.1,0.8,0.3,1.1,0.4c7,2.2,15,1,20.9-3.3
	c0.4-0.3,1.1-0.2,1.4,0.2c0.3,0.4,0.2,1.1-0.2,1.4C93.3,141.1,88,142.8,82.6,142.8z"/>
<g>
	<g>
		<path style="fill:#FFD174;" d="M70.7,93c0,0-9.1-0.2-15.4-1.3s-15.1-0.4-11,7.7c2.9,5.8,15.1,7.8,21.9,8.4c3,0.3,6.1,0.3,9.2,0
			c6.8-0.7,19-2.6,21.9-8.4c4.1-8.1-4.6-8.8-11-7.7C79.8,92.8,70.7,93,70.7,93z"/>
		<path d="M70.7,109.1c-1.6,0-3.1-0.1-4.7-0.2c-8.7-0.9-19.7-3.1-22.7-9c-1.4-2.9-1.5-5.2-0.3-6.9c2.5-3.4,9.5-2.7,12.3-2.3
			c6.1,1,14.8,1.2,15.3,1.2c0.5,0,9.2-0.2,15.3-1.2c2.9-0.5,9.8-1.2,12.3,2.3c1.2,1.7,1.1,4-0.3,6.9c-3,5.9-14,8.1-22.7,9
			C73.8,109.1,72.3,109.1,70.7,109.1z M50.8,92.4c-3,0-5.3,0.6-6.1,1.8c-0.8,1.1-0.6,2.7,0.5,4.8c2,3.9,9.7,6.8,21.1,7.9
			c3,0.3,6,0.3,9,0c11.4-1.1,19.1-4,21.1-7.9c1.1-2.2,1.2-3.8,0.5-4.8c-1.3-1.7-5.4-2.3-10.4-1.5c-6.4,1-15.2,1.3-15.6,1.3
			c0,0,0,0,0,0c-0.4,0-9.2-0.2-15.6-1.3C53.6,92.5,52.1,92.4,50.8,92.4z"/>
	</g>
	<path d="M71.9,100.8c-0.3,0-0.6,0-0.9,0c-6.9-0.2-19-1.4-19.1-1.4c-0.5-0.1-0.9-0.5-0.9-1.1c0.1-0.5,0.5-0.9,1.1-0.9
		c0.1,0,12.1,1.3,19,1.4c6.8,0.2,18-1.8,18.1-1.8c0.5-0.1,1,0.3,1.1,0.8c0.1,0.5-0.3,1-0.8,1.1C89.1,99,78.9,100.8,71.9,100.8z"/>
</g>
<g>
	<g>
		<path style="fill:#5C5C5C;" d="M39.3,117.5l15.2,13.9l3.8-3.9l-15.7-14.5C42.6,112.9,38.9,114.3,39.3,117.5z"/>
		<path d="M54.5,132.3c-0.2,0-0.5-0.1-0.7-0.3l-15.2-13.9c-0.2-0.2-0.3-0.4-0.3-0.6c-0.5-3.9,3.7-5.5,3.9-5.6c0.3-0.1,0.8-0.1,1,0.2
			L59,126.7c0.2,0.2,0.3,0.4,0.3,0.7c0,0.3-0.1,0.5-0.3,0.7l-3.8,3.9C55,132.2,54.8,132.3,54.5,132.3z M40.3,117l14.2,13l2.4-2.5
			l-14.5-13.4C41.6,114.5,40.3,115.5,40.3,117z"/>
	</g>
	<g>
		<g>
			<path style="fill:#FFFFFF;" d="M16.1,138.3c-0.7-0.7-0.8-1.8-0.2-2.6c2.5-3.6,9.5-13,14.4-12.2c5.5,0.8,0.1,13.4-3.9,21.4
				c-0.6,1.3-2.3,1.5-3.3,0.5L16.1,138.3z"/>
			<path d="M24.5,147c-0.8,0-1.6-0.3-2.2-0.9l-6.9-7.1c-1-1-1.2-2.7-0.3-3.9c3.5-5.1,10.1-13.4,15.4-12.6c1.2,0.2,2.1,0.8,2.6,1.8
				c1.6,3.1-0.4,10.2-5.8,21c-0.4,0.9-1.3,1.5-2.3,1.6C24.8,147,24.7,147,24.5,147z M16.8,137.6l6.9,7.1c0.3,0.3,0.6,0.4,1,0.3
				c0.3-0.1,0.6-0.3,0.8-0.6c4.9-9.8,7.1-16.8,5.8-19.2c-0.2-0.5-0.6-0.7-1.2-0.8c-3.5-0.6-9.3,5.7-13.5,11.8
				C16.4,136.7,16.5,137.3,16.8,137.6L16.8,137.6z"/>
		</g>
		<g>
			<path style="fill:#FFD174;" d="M23.8,148.6c4.6,3.6,9.1-2.8,10.9-6.3c0.8-1.6,1.1-3.5,1.4-5.3c0.1-0.6,0.2-1.2,0.4-1.8
				c0.7-1.9,2.4-2.4,3.9-3.6c1.8-1.3,3.5-2.9,5.1-4.5c3.4,6,3.8,13.8,1,20.1c-3.4,7.6-13.1,14.2-21.6,13.3
				c-9.1-0.9-11.2-12.9-6.9-19.6c0,0.1,4.1,4,4.4,4.3C23.3,146.4,22.7,147.7,23.8,148.6z"/>
			<path d="M26.3,161.7c-0.6,0-1.1,0-1.6-0.1c-3.8-0.4-6.8-2.6-8.5-6.1c-2.2-4.6-1.8-10.8,0.9-15c0.3-0.5,0.9-0.6,1.4-0.3
				c0.1,0.1,0.2,0.2,0.3,0.3c0.4,0.4,2.7,2.7,3.6,3.5l0.7,0.7c0.7,0.7,0.8,1.4,1,2.1c0.1,0.6,0.2,0.9,0.5,1.1l0,0c1,0.8,1.9,1,3,0.8
				c2.6-0.6,5.1-4,6.4-6.7c0.7-1.5,1-3.1,1.3-5c0.1-0.7,0.2-1.3,0.5-2c0.7-1.7,1.9-2.5,3.1-3.3c0.4-0.2,0.7-0.5,1.1-0.7
				c1.8-1.3,3.4-2.8,4.9-4.4c0.2-0.2,0.5-0.3,0.8-0.3c0.3,0,0.6,0.2,0.7,0.5c3.6,6.3,4,14.4,1,21C44.1,154.7,35.1,161.7,26.3,161.7z
				 M18.1,142.6c-1.8,3.6-1.9,8.4-0.1,12c1,2.1,3,4.6,6.9,5c8.5,0.8,17.5-5.9,20.6-12.8c2.6-5.7,2.4-12.5-0.3-18.1
				c-1.3,1.3-2.7,2.5-4.2,3.6c-0.4,0.3-0.8,0.6-1.2,0.8c-1.1,0.7-1.9,1.2-2.4,2.3c-0.2,0.5-0.3,1-0.3,1.5c-0.3,2.1-0.6,3.9-1.5,5.6
				c-0.6,1.1-3.6,6.8-7.7,7.8c-1.6,0.4-3.2,0-4.6-1.1l0,0c-0.9-0.7-1.1-1.6-1.2-2.3c-0.1-0.5-0.2-0.8-0.4-1.1l-0.7-0.6
				C19.6,144.2,18.7,143.3,18.1,142.6z"/>
		</g>
		<g>
			<path style="fill:#FFD174;" d="M44.8,121.8c-1.4,0.2-2.8,0.8-3.5,1.9c-1.2,1.8-0.7,4.5-2,6.2c-0.9,1.2-2.5,1.7-3.5,2.9
				c-1.3,1.6-1.1,4.2,0.1,5.9s3.1,2.8,5,3.7c1.6,0.7,3.4,1.4,5,0.8c1.7-0.5,2.8-2.8,1.6-4.1c1.8,0.5,4,1,5.2-0.3
				c1.3-1.3,0.8-3.4,0.3-5.2c2.1,0.4,4.2-1.6,4.4-3.8c0.2-2.2-1.2-4.2-2.9-5.5C51.9,122.4,48.1,121.4,44.8,121.8z"/>
			<path d="M44.6,144.4c-1.5,0-2.9-0.6-4.1-1.1c-1.9-0.9-4-2.1-5.4-4.1c-1.3-1.9-1.8-5,0-7.1c0.6-0.7,1.2-1.1,1.9-1.6
				c0.6-0.4,1.2-0.8,1.5-1.3c0.5-0.7,0.7-1.7,0.9-2.7c0.2-1.2,0.4-2.4,1.1-3.5c0.9-1.3,2.4-2.1,4.2-2.3l0,0
				c3.5-0.4,7.6,0.7,10.4,2.8c2.2,1.6,3.5,4.1,3.3,6.4c-0.1,1.4-0.9,2.9-2.1,3.8c-0.6,0.5-1.3,0.8-2,0.9c0.4,1.7,0.4,3.6-0.9,4.9
				c-1.2,1.2-2.9,1.3-4.5,1c0,0.3,0,0.6-0.1,0.8c-0.4,1.3-1.4,2.4-2.7,2.8C45.7,144.4,45.2,144.4,44.6,144.4z M44.9,122.8
				c-1.3,0.1-2.3,0.7-2.8,1.5c-0.5,0.7-0.6,1.7-0.8,2.7c-0.2,1.2-0.4,2.5-1.2,3.6c-0.6,0.8-1.3,1.3-2,1.7c-0.6,0.4-1.1,0.7-1.5,1.2
				c-1.1,1.3-0.7,3.4,0.2,4.7c1.1,1.6,2.9,2.6,4.6,3.4c1.4,0.6,3,1.2,4.3,0.8c0.6-0.2,1.2-0.8,1.4-1.5c0.1-0.3,0.1-0.7-0.2-1
				c-0.3-0.3-0.3-0.8-0.1-1.2c0.2-0.4,0.7-0.5,1.1-0.4c1.5,0.5,3.3,0.9,4.3-0.1c0.9-0.9,0.5-2.7,0-4.2c-0.1-0.3,0-0.7,0.2-0.9
				c0.2-0.3,0.6-0.4,0.9-0.3c0.6,0.1,1.3-0.1,1.9-0.5c0.7-0.6,1.3-1.5,1.3-2.4c0.1-1.9-1.2-3.7-2.5-4.6
				C51.5,123.4,47.9,122.4,44.9,122.8L44.9,122.8z"/>
		</g>
		<path style="fill:#C48200;" d="M44.4,137.5c-0.3,0-0.6-0.1-0.8-0.4c-1-1.4-3-2.1-3-2.1c-0.5-0.2-0.8-0.7-0.6-1.2
			c0.2-0.5,0.7-0.8,1.2-0.6c0.1,0,2.6,0.9,4,2.8c0.3,0.4,0.2,1.1-0.2,1.4C44.8,137.4,44.6,137.5,44.4,137.5z"/>
		<path style="fill:#C48200;" d="M47.8,130.1c-0.4,0-0.8-0.2-0.9-0.7c-0.4-1.2-3.1-1.9-4.3-2c-0.5-0.1-0.9-0.5-0.9-1.1
			c0.1-0.5,0.5-0.9,1.1-0.9c0.5,0.1,5,0.6,6,3.3c0.2,0.5-0.1,1.1-0.6,1.3C48,130.1,47.9,130.1,47.8,130.1z"/>
	</g>
</g>
<g>
	<polygon style="fill:#FFFFFF;" points="59.9,155.8 56.4,128.6 89.9,128.6 85.1,155.8 	"/>
	<path d="M85.1,156.8H59.9c-0.5,0-0.9-0.4-1-0.9l-3.5-27.2c0-0.3,0-0.6,0.2-0.8c0.2-0.2,0.5-0.3,0.7-0.3h33.5c0.3,0,0.6,0.1,0.8,0.4
		c0.2,0.2,0.3,0.5,0.2,0.8L86.1,156C86,156.4,85.6,156.8,85.1,156.8z M60.8,154.8h23.5l4.5-25.2H57.5L60.8,154.8z"/>
</g>
<g>
	<g>
		<path style="fill:#FFFFFF;" d="M117.3,140.5c0.9-0.5,1.3-1.5,1-2.4c-1.3-4.2-5.3-15.2-10.2-15.9c-5.5-0.8-4,12.7-2.5,21.6
			c0.2,1.4,1.8,2.1,3,1.4L117.3,140.5z"/>
		<path d="M107.6,146.5c-0.5,0-0.9-0.1-1.3-0.3c-0.9-0.4-1.5-1.2-1.7-2.2c-2.1-12-1.9-19.3,0.5-21.8c0.8-0.8,1.8-1.2,3-1
			c5.2,0.8,9.2,10.7,11,16.6c0.4,1.4-0.2,2.9-1.4,3.6l-8.7,4.8C108.6,146.4,108.1,146.5,107.6,146.5z M107.6,123.1
			c-0.4,0-0.7,0.1-1,0.4c-1.9,1.9-1.9,9.3,0,20.1c0.1,0.3,0.3,0.6,0.6,0.8c0.3,0.2,0.7,0.1,1,0l8.7-4.8c0.5-0.3,0.7-0.8,0.5-1.3
			c-2.2-7-5.9-14.7-9.4-15.2C107.8,123.1,107.7,123.1,107.6,123.1z"/>
	</g>
	<g>
		<path style="fill:#FFD174;" d="M114.7,140.5c0.3-0.1,0.6-0.2,1-0.2c2.3,0.1,1.3,5.3,0.9,6.6c-1.1,3.7-3.8,7.1-6.2,9.9
			c-7.5,8.5-23.4,10.6-33.7,6.1c-5.5-2.4-9.2-7.7-11.6-13.3c-0.5-1.3-1-2.6-1-4c0.1-1.4,0.8-2.8,2-3.3c1.6-0.7,3.4,0.3,4.8,1.2
			c-0.4-1.8,0.5-3.9,2.2-4.7c1.7-0.8,3.9-0.3,5.1,1.2c-0.5-1.6,1.1-3.3,2.8-3.3s3.2,1.2,4.1,2.6c0.9,1.4,1.4,3.1,2.1,4.6
			c1.8,3.9,5.4,7.2,9.7,7.9c4.3,0.7,9.1-1.6,10.7-5.6c0.6-1.6,0.4-2.2,2-3.1c1.6-0.9,3.1-1.7,4.8-2.4
			C114.4,140.6,114.5,140.5,114.7,140.5z"/>
		<path d="M88.7,166.2c-4.5,0-9-0.8-12.6-2.4c-6.3-2.8-10.1-9-12.1-13.8c-0.5-1.3-1.1-2.8-1.1-4.4c0.1-1.9,1.1-3.6,2.6-4.2
			c1.4-0.6,2.8-0.2,4.2,0.4c0.3-1.6,1.3-3.2,2.8-3.9c1.5-0.7,3.3-0.6,4.7,0.1c0.1-0.2,0.2-0.5,0.4-0.7c0.8-1.1,2-1.7,3.2-1.7
			c0,0,0,0,0,0c1.8,0,3.7,1.2,4.9,3.1c0.6,1,1.1,2.1,1.5,3.1c0.2,0.5,0.4,1.1,0.7,1.6c1.8,3.9,5.3,6.7,9,7.3c4,0.6,8.2-1.5,9.6-5
			c0.1-0.4,0.2-0.7,0.3-0.9c0.3-1,0.6-1.8,2.1-2.7c1.6-0.9,3.2-1.7,4.9-2.5c0.2-0.1,0.3-0.1,0.5-0.2c0,0,0,0,0,0
			c0.3-0.1,0.8-0.3,1.3-0.2c0.7,0,1.3,0.4,1.7,0.9c1.5,2.1,0,6.9,0,7c-1.2,4-4.1,7.6-6.4,10.3C105.7,163.5,97,166.2,88.7,166.2z
			 M67.1,143.1c-0.3,0-0.5,0-0.8,0.1c-0.9,0.4-1.4,1.5-1.4,2.4c0,1.2,0.4,2.5,0.9,3.5c1.9,4.4,5.4,10.3,11.1,12.8
			c9.4,4.1,25.1,2.7,32.6-5.8c2.2-2.5,4.9-5.8,6-9.5c0.5-1.6,0.8-4.5,0.3-5.3c-0.1-0.1-0.1-0.1-0.2-0.1c-0.2,0-0.3,0-0.6,0.1
			c-0.1,0.1-0.3,0.1-0.4,0.2c-1.6,0.7-3.1,1.5-4.7,2.4c-0.8,0.5-0.9,0.7-1.2,1.5c-0.1,0.3-0.2,0.7-0.4,1.1c-1.7,4.3-6.9,7-11.7,6.2
			c-4.4-0.7-8.4-3.9-10.4-8.4c-0.3-0.6-0.5-1.1-0.7-1.7c-0.4-1-0.8-2-1.3-2.8c-0.7-1.1-1.9-2.2-3.2-2.2c0,0,0,0,0,0
			c-0.6,0-1.3,0.4-1.6,0.9c-0.2,0.2-0.4,0.7-0.2,1.1c0.2,0.5,0,1-0.5,1.2c-0.4,0.2-0.9,0.1-1.2-0.3c-0.9-1.1-2.6-1.5-3.9-0.9
			c-1.3,0.6-2,2.2-1.7,3.6c0.1,0.4-0.1,0.8-0.4,1c-0.3,0.2-0.8,0.3-1.1,0C69.2,143.7,68.1,143.1,67.1,143.1z"/>
	</g>
	<path style="fill:#C48200;" d="M93,157.2C93,157.2,93,157.2,93,157.2c-8.8-0.2-12.1-9.3-12.2-9.6c-0.2-0.5,0.1-1.1,0.6-1.3
		c0.5-0.2,1.1,0.1,1.3,0.6c0,0.1,3,8.2,10.4,8.3c0.5,0,1,0.5,1,1C94,156.8,93.6,157.2,93,157.2z"/>
	<path style="fill:#C48200;" d="M85.7,160.2C85.7,160.2,85.7,160.2,85.7,160.2c-9.4-0.5-14.8-12.1-15-12.5c-0.2-0.5,0-1.1,0.5-1.3
		c0.5-0.2,1.1,0,1.3,0.5c0.1,0.1,5.2,10.9,13.3,11.4c0.5,0,1,0.5,0.9,1C86.7,159.8,86.2,160.2,85.7,160.2z"/>
</g>
<g>
	<g>
		<path style="fill:#A5A5A5;" d="M56.4,128.6c0,0-0.7-6.3,2.1-6.3c2.7,0,3.9,6.3,3.9,6.3H56.4z"/>
		<path d="M62.4,129.6h-6c-0.5,0-0.9-0.4-1-0.9c-0.1-0.5-0.5-4.8,1.1-6.5c0.5-0.6,1.2-0.9,1.9-0.9c3.4,0,4.7,5.9,4.9,7.1
			c0.1,0.3,0,0.6-0.2,0.8C63,129.5,62.7,129.6,62.4,129.6z M57.3,127.6h3.8c-0.6-2.1-1.6-4.3-2.7-4.3c-0.2,0-0.3,0.1-0.4,0.2
			C57.4,124.2,57.3,126.1,57.3,127.6z"/>
	</g>
	<g>
		<path style="fill:#DDDDDD;" d="M58.5,122.3c0,0,3.7,2,3.9,6.3s1.9,21.1,1.9,21.1l28.9-3.7c0,0,3.1-21.3-3.2-24.9L58.5,122.3z"/>
		<path d="M64.3,150.7c-0.2,0-0.4-0.1-0.6-0.2c-0.2-0.2-0.3-0.4-0.4-0.7c-0.1-0.7-1.6-16.9-1.9-21.1c-0.2-3.6-3.3-5.4-3.4-5.5
			c-0.4-0.2-0.6-0.7-0.5-1.1c0.1-0.4,0.5-0.7,0.9-0.8l31.4-1.2c0.2,0,0.4,0,0.5,0.1c6.8,3.8,4.1,23.7,3.7,25.9
			c-0.1,0.4-0.4,0.8-0.8,0.8l-28.9,3.7C64.4,150.7,64.3,150.7,64.3,150.7z M61.1,123.2c1.1,1.2,2.2,2.9,2.3,5.4
			c0.2,3.6,1.4,16.3,1.8,20l27.1-3.4c0.8-6.1,1.7-20.1-2.6-23L61.1,123.2z"/>
	</g>
</g>
</svg>
