<?xml version="1.0" encoding="utf-8"?>
<!-- Generator: Adobe Illustrator 23.0.2, SVG Export Plug-In . SVG Version: 6.00 Build 0)  -->
<svg version="1.1" id="Layer_1" xmlns="http://www.w3.org/2000/svg" xmlns:xlink="http://www.w3.org/1999/xlink" x="0px" y="0px"
	 viewBox="0 0 500 140" style="enable-background:new 0 0 500 140;" xml:space="preserve">
<g>
	<path style="fill:#8E002F;" d="M120.1,47.3c-0.6,0-1.1,0.1-1.6,0.4l-0.5,0.2c-1.1,0.5-2.3,1-3.4,1.6C77.2,67.1,45,70.8,24.6,70.8
		c-12.5,0-19.8-1.4-19.9-1.4c-0.3,0-0.5-0.1-0.8-0.1c-1.2,0-2.3,0.5-3,1.5c-0.9,1.1-1.1,2.7-0.6,4C0.4,75,9.1,95,24.6,105.3
		l-20.2,25c-0.8,1-1.1,2.3-0.7,3.5C4,135,5,136,6.2,136.5c6.5,2.3,15.7,3.5,27.1,3.5c23.7,0,54.9-5,87.9-14.1c1.7-0.5,2.9-2,2.9-3.8
		V51.3c0-1.3-0.7-2.6-1.8-3.3C121.6,47.6,120.8,47.3,120.1,47.3L120.1,47.3z"/>
	<path style="fill:#F20000;" d="M121.1,49.6c-0.3-0.2-0.7-0.3-1-0.3s-0.5,0.1-0.8,0.2l-0.5,0.2c-1.1,0.5-2.3,1-3.4,1.6
		C77.7,69,45.2,72.8,24.6,72.8c-12.7,0-20.2-1.4-20.3-1.5c-0.1,0-0.2,0-0.4,0c-0.6,0-1.1,0.3-1.5,0.7c-0.4,0.6-0.6,1.3-0.3,2
		c0.4,0.9,9.6,21.4,25.4,30.7L6,131.6c-0.4,0.5-0.5,1.1-0.4,1.7c0.2,0.6,0.6,1.1,1.2,1.3c6.3,2.3,15.2,3.4,26.4,3.4
		c23.5,0,54.6-5,87.4-14c0.8-0.2,1.4-1,1.4-1.9V51.3C122,50.6,121.7,50,121.1,49.6z"/>
	<path style="fill:#D20027;" d="M54.4,136.9c-4.7-12.6-7.4-27.4-7.4-43.1c0-7.8,0.7-15.4,1.9-22.6c18.5-2.4,41.4-8,66.4-19.8
		c1.2-0.5,2.3-1.1,3.4-1.6l0.5-0.2c0.3-0.1,0.5-0.2,0.8-0.2c0.4,0,0.7,0.1,1,0.3c0.6,0.4,0.9,1,0.9,1.6v70.8c0,0.9-0.6,1.6-1.4,1.9
		C120.6,124,86.5,133.7,54.4,136.9z"/>
	<path style="fill:#FF4E45;" d="M121.1,49.6c-0.3-0.2-0.7-0.3-1-0.3s-0.5,0.1-0.8,0.2l-0.5,0.2c-1.1,0.5-2.3,1-3.4,1.6
		C77.7,69,45.2,72.8,24.6,72.8c-12.7,0-20.2-1.4-20.3-1.5c-0.1,0-0.2,0-0.4,0c-0.6,0-1.1,0.3-1.5,0.7c-0.4,0.6-0.6,1.3-0.3,2
		c0.4,0.9,9.6,21.4,25.4,30.7L6,131.6c-0.4,0.5-0.5,1.1-0.4,1.7c0.2,0.6,0.6,1.1,1.2,1.3c6.3,2.3,15.2,3.4,26.4,3.4
		c23.5,0,54.6-5,87.4-14c0.8-0.2,1.4-1,1.4-1.9V51.3C122,50.6,121.7,50,121.1,49.6z M119,120.5c-30.2,10.3-60.9,13.3-83.7,13.3
		c-9.1,0-24.6,1-30.2-0.5l24.6-29.1c2.5-3.6,3-3.3,0.9-5C19.4,92.7,11.7,79.9,8.5,73.8c3.6,0.4,9.4,0.9,17,0.9
		C46.6,74.8,79.8,71,118,53c0.3-0.2,0.6-0.3,1-0.5V120.5z"/>
	<path style="fill:#AE0028;" d="M27.6,104.7l2.4-3C16.9,94,6.7,77.8,3.4,71.4c-0.4,0.1-0.7,0.3-1,0.6c-0.4,0.6-0.6,1.3-0.3,2
		C2.6,74.9,11.7,95.4,27.6,104.7z"/>
	<path style="fill:#AE0028;" d="M120.6,119c-32.8,9.1-63.8,14-87.4,14c-10.9,0-19.6-1.1-25.8-3.2L6,131.6c-0.4,0.5-0.5,1.1-0.4,1.7
		c0.2,0.6,0.6,1.1,1.2,1.3c6.3,2.3,15.2,3.4,26.4,3.4c23.5,0,54.6-5,87.4-14c0.8-0.2,1.4-1,1.4-1.9v-5
		C122,118,121.4,118.7,120.6,119z"/>
	<path style="fill:#600017;" d="M121.5,95.4c-0.3-0.3-0.8-0.5-1.2-0.5c-0.1,0-0.1,0-0.2,0c-21.2,2.6-43.7,6.8-61,10.6
		c-0.5,0.1-1,0.5-1.2,0.9s-0.3,1-0.1,1.5c1.3,3.4,4.9,6,9.4,6.8c14.8,4,34.6,6.4,52.9,9.2c0.1,0,0.2,0,0.3,0c0.4,0,0.9-0.2,1.2-0.4
		c0.4-0.3,0.6-0.9,0.6-1.4V96.7C122.1,96.2,121.9,95.7,121.5,95.4z"/>
	<path style="fill:#8E002F;" d="M120.3,119c-0.1,0-0.2,0-0.3,0c-18.3-2.8-38.1-5.2-52.9-9.2c-3.3-0.6-6.1-2.2-7.9-4.3
		c-0.1,0-0.1,0-0.2,0c-0.5,0.1-1,0.5-1.2,0.9s-0.3,1-0.1,1.5c1.3,3.4,4.9,6,9.4,6.8c14.8,4,34.6,6.4,52.9,9.2c0.1,0,0.2,0,0.3,0
		c0.4,0,0.9-0.2,1.2-0.4c0.4-0.3,0.6-0.9,0.6-1.4v-5c0,0.5-0.2,1-0.6,1.4C121.2,118.8,120.7,119,120.3,119z"/>
</g>
<g>
	<path style="fill:#8E002F;" d="M379.9,47.3c-0.8,0-1.5,0.2-2.1,0.6c-1.1,0.7-1.8,2-1.8,3.3V122c0,1.8,1.2,3.3,2.9,3.8
		c33,9.1,64.2,14.1,87.9,14.1c11.4,0,20.5-1.2,27.1-3.5c1.2-0.4,2.1-1.4,2.5-2.7c0.3-1.2,0-2.6-0.7-3.5l-20.2-25.1
		c15.5-10.3,24.2-30.3,24.3-30.5c0.6-1.3,0.3-2.9-0.6-4c-0.7-0.9-1.9-1.5-3-1.5c-0.2,0-0.5,0-0.8,0.1c-0.1,0-7.4,1.4-19.9,1.4
		c-20.5,0-52.7-3.7-89.9-21.2c-1.2-0.5-2.3-1.1-3.4-1.6l-0.5-0.2C381,47.5,380.5,47.3,379.9,47.3L379.9,47.3z"/>
	<path style="fill:#F20000;" d="M378.9,49.6c0.3-0.2,0.7-0.3,1-0.3s0.5,0.1,0.8,0.2l0.5,0.2c1.1,0.5,2.3,1,3.4,1.6
		c37.6,17.7,70.1,21.4,90.8,21.4c12.7,0,20.2-1.4,20.3-1.5c0.1,0,0.2,0,0.4,0c0.6,0,1.1,0.3,1.5,0.7c0.4,0.6,0.6,1.3,0.3,2
		c-0.4,0.9-9.6,21.4-25.4,30.7l21.6,26.9c0.4,0.5,0.5,1.1,0.4,1.7c-0.2,0.6-0.6,1.1-1.2,1.3c-6.3,2.3-15.2,3.4-26.4,3.4
		c-23.5,0-54.6-5-87.4-14c-0.8-0.2-1.4-1-1.4-1.9V51.3C378,50.6,378.3,50,378.9,49.6z"/>
	<path style="fill:#D20027;" d="M445.6,136.9c4.7-12.6,7.4-27.4,7.4-43.1c0-7.8-0.7-15.4-1.9-22.6c-18.5-2.4-41.4-8-66.4-19.8
		c-1.2-0.5-2.3-1.1-3.4-1.6l-0.5-0.2c-0.3-0.1-0.5-0.2-0.8-0.2c-0.4,0-0.7,0.1-1,0.3c-0.6,0.4-0.9,1-0.9,1.6v70.8
		c0,0.9,0.6,1.6,1.4,1.9C379.4,124,413.5,133.7,445.6,136.9z"/>
	<path style="fill:#FF4E45;" d="M378,51.3v70.8c0,0.9,0.6,1.6,1.4,1.9c32.8,9.1,63.8,14,87.4,14c11.2,0,20.1-1.1,26.4-3.4
		c0.6-0.2,1-0.7,1.2-1.3s0-1.3-0.4-1.7l-21.6-26.9c15.8-9.3,25-29.8,25.4-30.7c0.3-0.7,0.2-1.4-0.3-2c-0.4-0.5-0.9-0.7-1.5-0.7
		c-0.1,0-0.2,0-0.4,0c-0.1,0-7.6,1.5-20.3,1.5c-20.7,0-53.2-3.7-90.8-21.4c-1.2-0.5-2.3-1.1-3.4-1.6l-0.5-0.2
		c-0.3-0.1-0.5-0.2-0.8-0.2c-0.4,0-0.7,0.1-1,0.3C378.3,50,378,50.6,378,51.3z M381,52.5c0.3,0.1,0.6,0.3,1,0.5
		c38.3,18,71.4,21.8,92.5,21.8c7.6,0,13.4-0.5,17-0.9c-3.2,6.1-10.9,18.8-22.1,25.4c-2.1,1.6-1.6,1.3,0.9,5l24.6,29.1
		c-5.7,1.5-21.1,0.5-30.2,0.5c-22.8,0-53.5-3-83.7-13.3V52.5z"/>
	<path style="fill:#AE0028;" d="M472.4,104.7l-2.4-3c13-7.7,23.3-23.9,26.6-30.3c0.4,0.1,0.7,0.3,0.9,0.6c0.4,0.6,0.6,1.3,0.3,2
		C497.4,74.9,488.3,95.4,472.4,104.7z"/>
	<path style="fill:#AE0028;" d="M379.4,119c32.8,9.1,63.8,14,87.4,14c10.9,0,19.6-1.1,25.8-3.2l1.4,1.8c0.4,0.5,0.5,1.1,0.4,1.7
		c-0.2,0.6-0.6,1.1-1.2,1.3c-6.3,2.3-15.2,3.4-26.4,3.4c-23.5,0-54.6-5-87.4-14c-0.8-0.2-1.4-1-1.4-1.9v-5
		C378,118,378.6,118.7,379.4,119z"/>
	<path style="fill:#600017;" d="M378.5,95.4c0.3-0.3,0.8-0.5,1.2-0.5c0.1,0,0.1,0,0.2,0c21.2,2.6,43.7,6.8,61,10.6
		c0.5,0.1,1,0.5,1.2,0.9s0.3,1,0.1,1.5c-1.3,3.4-4.9,6-9.4,6.8c-14.8,4-34.6,6.4-52.9,9.2c-0.1,0-0.2,0-0.3,0
		c-0.4,0-0.9-0.2-1.2-0.4c-0.4-0.3-0.6-0.9-0.6-1.4V96.7C377.9,96.2,378.1,95.7,378.5,95.4z"/>
	<path style="fill:#8E002F;" d="M379.7,119c0.1,0,0.2,0,0.3,0c18.3-2.8,38.1-5.2,52.9-9.2c3.3-0.6,6.1-2.2,7.9-4.3
		c0.1,0,0.1,0,0.2,0c0.5,0.1,1,0.5,1.2,0.9s0.3,1,0.1,1.5c-1.3,3.4-4.9,6-9.4,6.8c-14.8,4-34.6,6.4-52.9,9.2c-0.1,0-0.2,0-0.3,0
		c-0.4,0-0.9-0.2-1.2-0.4c-0.4-0.3-0.6-0.9-0.6-1.4v-5c0,0.5,0.2,1,0.6,1.4C378.8,118.8,379.3,119,379.7,119z"/>
</g>
<g>
	<path style="fill:#8E002F;" d="M253.8,0c-0.6,0-7,0-7.7,0c-13.3,0-26.7,0.6-39.9,1.3c-44.9,2.5-89,11-131.5,25.9
		C61.1,32,62.3,45.4,61.3,57.4c-1,12.8-2,25.5-2.9,38.3c-0.2,3.1-0.5,6.2-0.7,9.3c0,5.2,4,9.1,9,9.1c0.3,0,0.6,0,0.9,0l2.2-0.1
		c45.2-10.5,107.5-17,176.4-17c0.6,0,7.1,0,7.7,0c68.8,0,131.2,6.5,176.4,16.9l2.2,0.1c0.3,0,0.6,0,0.9,0c5,0,9-3.9,9-9.1
		c-0.2-3.1-0.5-6.2-0.7-9.3c-1-12.8-1.9-25.5-2.9-38.3c-1-12,0.2-25.4-13.4-30.2C382.8,12.3,338.7,3.8,293.8,1.3
		C280.5,0.6,267.1,0,253.8,0L253.8,0z"/>
	<path style="fill:#D20027;" d="M253.8,2c14.6,0,28.9,0.7,39.8,1.3c45.1,2.5,89.2,11.2,131,25.8c10.6,3.7,11.2,13.5,11.8,23.8
		c0.1,1.5,0.2,3.1,0.3,4.7c0.8,9.9,1.6,19.9,2.3,29.6c0.2,2.9,0.4,5.8,0.6,8.6c0.1,1.7,0.3,3.5,0.4,5.2c0.1,1.3,0.2,2.7,0.3,4
		c0,4-3,7-7,7c-0.2,0-0.5,0-0.7,0h-0.1l-2.1-0.1c-47.3-10.9-110-17-176.6-17h-7.7c-66.6,0-129.3,6-176.6,17l-2.1,0.1h-0.1
		c-0.2,0-0.5,0-0.7,0c-4,0-7-3-7-7c0.1-1.3,0.2-2.7,0.3-4c0.1-1.7,0.3-3.5,0.4-5.2c0.2-2.9,0.4-5.8,0.6-8.7
		c0.7-9.7,1.5-19.7,2.3-29.6c0.1-1.6,0.2-3.1,0.3-4.7c0.6-10.3,1.2-20.1,11.8-23.8c41.8-14.6,85.8-23.3,131-25.8
		C217.2,2.7,231.6,2,246.2,2H253.8"/>
	<path style="fill:#FF4E45;" d="M437.1,97.3c-0.1-1.8-0.3-3.5-0.4-5.2l-0.6-8.6v-0.1V83c-0.7-9-1.4-19.3-2.3-29.2
		c-0.1-1.5-0.2-3.1-0.3-4.7c-0.5-8.2-1.1-14.1-4.5-17.9c-1.2-0.9-2.6-1.6-4.3-2.2c-41.8-14.6-85.8-23.3-131-25.8
		C282.8,2.7,268.4,2,253.8,2h-7.7c-14.6,0-28.9,0.7-39.8,1.3c-45.1,2.5-89.2,11.2-131,25.8c-1.7,0.6-3.1,1.3-4.3,2.2
		c-3.4,3.8-4,9.7-4.5,17.8c-0.1,1.6-0.2,3.2-0.3,4.8c-0.8,10-1.6,20.3-2.3,29.5l-0.7,8.8c-0.1,1.7-0.3,3.4-0.4,5v0.1v0.5
		c-0.2,2,0.7,4.1,2.2,5.4c1.2,1,2.7,1.6,4.3,1.6c0.5,0,1-0.1,1.4-0.2C118,93.9,180.3,88,246.2,88h7.7c65.8,0,128.1,5.9,175.4,16.6
		c0.5,0.1,1,0.2,1.4,0.2c1.6,0,3.1-0.6,4.3-1.6c1.6-1.3,2.4-3.4,2.2-5.4L437.1,97.3z"/>
	<path style="fill:#FF2024;" d="M253.8,3.5h-7.7c-14.4,0-28.7,0.7-39.5,1.3c-44.6,2.5-88.2,11-129.4,25.5c-6.8,2.4-7.5,8.1-8.1,18.9
		c-0.1,1.6-0.2,3.2-0.3,4.8c-0.8,9.9-1.6,20.3-2.3,29.5l-0.7,8.8c-0.1,1.7-0.3,3.4-0.4,5.1v0.1V98c-0.1,1.3,0.4,2.5,1.4,3.3
		c0.7,0.6,1.7,1,2.6,1c0.3,0,0.6,0,0.9-0.1c47.4-10.7,109.9-16.7,175.9-16.7h7.7c66,0,128.5,5.9,175.9,16.7c0.3,0.1,0.6,0.1,0.9,0.1
		c1,0,1.9-0.3,2.6-1c1-0.8,1.5-2.1,1.4-3.3v-0.5c-0.1-1.8-0.3-3.5-0.4-5.2l-0.6-8.6c-0.7-9.2-1.5-19.5-2.3-29.6
		c-0.1-1.6-0.2-3.2-0.3-4.8c-0.6-10.8-1.3-16.6-8.1-19C381.5,15.8,338,7.2,293.4,4.8C282.5,4.2,268.3,3.5,253.8,3.5L253.8,3.5z"/>
	<path style="fill:#F20000;" d="M434.6,97.9v-0.5c-0.1-1.8-0.3-3.5-0.4-5.2l-0.6-8.6c-0.7-9.2-1.5-19.5-2.3-29.6
		c-0.1-1.6-0.2-3.2-0.3-4.8c-0.6-10.8-1.3-16.6-8.1-19c-9.3-3.3-18.7-6.2-28.2-8.8c2.2,7.8,3.3,16,3.3,24.3
		c0,17.2-4.9,33.5-13.7,48.2c16.3,2.3,31.5,5,45.5,8.2c0.3,0.1,0.6,0.1,0.9,0.1c1,0,1.9-0.3,2.6-1
		C434.2,100.4,434.7,99.2,434.6,97.9z"/>
	<path style="fill:#F20000;" d="M105.4,21.4c-9.5,2.7-18.9,5.6-28.2,8.8c-6.8,2.4-7.5,8.1-8.1,18.9c-0.1,1.6-0.2,3.2-0.3,4.8
		c-0.8,9.9-1.6,20.3-2.3,29.5l-0.7,8.8c-0.1,1.7-0.3,3.4-0.4,5.1v0.1v0.5c-0.1,1.3,0.4,2.5,1.4,3.3c0.7,0.6,1.7,1,2.6,1
		c0.3,0,0.6,0,0.9-0.1c13.9-3.2,29.2-5.9,45.5-8.2C106.9,79.3,102,63,102,45.8C102,37.4,103.2,29.3,105.4,21.4z"/>
	<path style="fill:#FF3B31;" d="M377.5,43.3c0-10.7-5.4-20.8-14.8-29.6c-22.7-4.6-45.9-7.6-69.3-8.9c-10.8-0.6-25.1-1.3-39.5-1.3
		h-7.7c-14.4,0-28.7,0.7-39.5,1.3c-23.5,1.3-46.6,4.3-69.3,8.9c-9.4,8.8-14.8,18.9-14.8,29.6c0,17.9,15,34.1,39.1,45.6
		c26.8-2.2,55.4-3.4,84.6-3.4h7.7c29.2,0,57.7,1.2,84.6,3.4C362.5,77.4,377.5,61.2,377.5,43.3z"/>
	<path style="fill:#AE0028;" d="M433.4,108.1c-0.2,0-0.5,0-0.7,0h-0.1l-2.1-0.1c-47.3-10.9-110-17-176.6-17h-7.7
		c-66.6,0-129.3,6-176.6,17l-2.1,0.1h-0.1c-0.2,0-0.5,0-0.7,0c-3.4,0-6.1-2.2-6.8-5.4c-0.1,0.8-0.1,1.6-0.2,2.4c0,4,3,7,7,7
		c0.2,0,0.5,0,0.7,0h0.1l2.1-0.1c47.3-10.9,110-17,176.6-17h7.7c66.6,0,129.3,6,176.6,17l2.1,0.1h0.1c0.2,0,0.5,0,0.7,0c4,0,7-3,7-7
		c-0.1-0.8-0.1-1.6-0.2-2.4C439.5,105.9,436.8,108.1,433.4,108.1z"/>
	<path style="fill:#D20027;" d="M434.6,97.9v-0.5v-0.1c-0.1-1.7-0.3-3.4-0.4-5.1l-0.7-8.8c-0.7-9.2-1.5-19.5-2.3-29.5
		c-0.1-1.6-0.2-3.2-0.3-4.8c-0.6-10.8-1.3-16.5-8.1-18.9c-2.4-0.8-4.9-1.7-7.3-2.5c0.4,0.2,0.7,0.4,1,0.7c-5.9-2-11.9-3.9-17.8-5.7
		c9.2,4.3,17,10.9,22.9,19.1c0.2,1.8,0.3,3.8,0.4,6c0.1,1.7,0.2,3.5,0.3,5.3c0.8,10.9,1.6,22.4,2.3,32.5l0.7,9.7
		c0.1,1.9,0.3,3.7,0.4,5.6v0.1v0.3c1.4,0.3,2.8,0.6,4.2,0.9c0.3,0.1,0.6,0.1,0.9,0.1c1,0,1.9-0.3,2.6-1
		C434.2,100.4,434.7,99.2,434.6,97.9z"/>
	<path style="fill:#AE0028;" d="M434.6,97.9v-0.5c-0.1-1.8-0.3-3.5-0.4-5.2l-0.6-8.6c-0.7-9.2-1.5-19.5-2.3-29.6
		c-0.1-1.6-0.2-3.2-0.3-4.8c-0.6-10.1-1.2-15.8-6.8-18.4c2,3.2,2.4,8.1,2.8,14.9c0.1,1.6,0.2,3.2,0.3,4.8
		c0.8,10.1,1.6,20.4,2.3,29.6l0.6,8.6c0.1,1.7,0.3,3.5,0.4,5.2v0.5c0.1,1.3-0.4,2.5-1.4,3.3c-0.7,0.6-1.7,1-2.6,1
		c-0.3,0-0.6,0-0.9-0.1c-17.3-3.9-36.5-5.8-57.2-6.7c22.2,2.6,42.9,6.1,61.2,10.2c0.3,0.1,0.6,0.1,0.9,0.1c1,0,1.9-0.3,2.6-1
		C434.2,100.4,434.7,99.2,434.6,97.9z"/>
	<path style="fill:#FF2024;" d="M74.4,101L74.4,101c0.1-2,0.3-3.8,0.4-5.7l0.7-9.7c0.7-10.1,1.5-21.5,2.3-32.5
		c0.1-1.8,0.2-3.6,0.3-5.3c0.6-10.8,1.2-17,6.4-20c-2.4,0.8-4.9,1.6-7.3,2.5c-6.8,2.4-7.5,8.1-8.1,18.9c-0.1,1.6-0.2,3.2-0.3,4.8
		c-0.8,9.9-1.6,20.3-2.3,29.5l-0.7,8.8c-0.1,1.7-0.3,3.4-0.4,5.1v0.1V98c-0.1,1.3,0.4,2.5,1.4,3.3c0.7,0.6,1.7,1,2.6,1
		c0.3,0,0.6,0,0.9-0.1c1.4-0.3,2.8-0.6,4.2-0.9L74.4,101z"/>
	<path style="fill:#FF4E45;" d="M65.5,97.9v-0.5c0.1-1.8,0.3-3.5,0.4-5.2l0.6-8.6c0.7-9.2,1.5-19.5,2.3-29.6
		c0.1-1.6,0.2-3.2,0.3-4.8c0.6-10.1,1.2-15.8,6.8-18.4c-2,3.2-2.4,8.1-2.8,14.9c-0.1,1.6-0.2,3.2-0.3,4.8
		c-0.8,10.1-1.6,20.4-2.3,29.6L70,88.7c-0.1,1.7-0.3,3.5-0.4,5.2v0.5c-0.1,1.3,0.4,2.5,1.4,3.3c0.7,0.6,1.7,1,2.6,1
		c0.3,0,0.6,0,0.9-0.1c17.3-3.9,36.5-5.8,57.2-6.7c-22.2,2.6-42.9,6.1-61.2,10.2c-0.3,0.1-0.6,0.1-0.9,0.1c-1,0-1.9-0.3-2.6-1
		C65.9,100.4,65.4,99.2,65.5,97.9z"/>
	<path style="fill:#FF817B;" d="M253.8,3.5h-7.7c-14.4,0-28.7,0.7-39.5,1.3c-44.6,2.5-88.2,11-129.4,25.5c-6.8,2.4-7.5,8.1-8.1,18.9
		c-0.1,1.6-0.2,3.2-0.3,4.8c-0.8,9.9-1.6,20.3-2.3,29.5l-0.7,8.8c-0.1,1.7-0.3,3.4-0.4,5.1v0.1V98c-0.1,1.1,0.3,2.1,1,2.9
		c0.1-0.5,0.2-1,0.2-1.5l1.5-9.7c1.5-10,3.2-21.3,4.9-32c0.3-1.7,0.5-3.5,0.7-5.2c0.1-0.8,0.2-1.6,0.3-2.4c4-7.8,9.8-14.6,16.7-19.9
		c43.5-13.8,88.6-22,134.3-24.4c11.6-0.6,27-1.3,42.5-1.3h8.2c5.8,0,11.5,0.1,17.1,0.3C282.1,4.2,268,3.5,253.8,3.5z"/>
	<path style="fill:#FFC3C2;" d="M86.7,44.7c-4.7,2.4-9.9,1.8-11.5-1.3s0.9-7.7,5.7-10.1c4.7-2.4,9.9-1.8,11.5,1.3
		C94,37.8,91.4,42.3,86.7,44.7z"/>
	<path style="fill:#FFB2B0;" d="M100.6,34.5c-2.1,0.7-4.1,0.2-4.6-1.2c-0.5-1.4,0.8-3.1,2.9-3.8c2.1-0.7,4.1-0.2,4.6,1.2
		C104,32.1,102.7,33.8,100.6,34.5z"/>
</g>
</svg>
