<svg xml:space="preserve" style="enable-background:new 0 0 370 250;" viewBox="0 0 370 250" y="0px" x="0px" xmlns:xlink="http://www.w3.org/1999/xlink" xmlns="http://www.w3.org/2000/svg" id="레이어_1" version="1.1">
<g>
	<g>
		<g>
			<g>
				<polygon points="162.2,56.2 112.6,28.2 103.5,33.6 156.3,63.4" style="fill:#D92020;"></polygon>
				<path d="M156.3,64c-0.1,0-0.2,0-0.3-0.1l-52.8-29.8c-0.2-0.1-0.3-0.3-0.3-0.5c0-0.2,0.1-0.4,0.3-0.5l9.1-5.3
					c0.2-0.1,0.4-0.1,0.6,0l49.6,27.9c0.2,0.1,0.3,0.2,0.3,0.4c0,0.2,0,0.4-0.1,0.5l-5.8,7.2C156.7,63.9,156.5,64,156.3,64z
					 M104.8,33.6l51.4,29l5-6.2L112.6,29L104.8,33.6z"></path>
			</g>
			<g>
				<polygon points="153.2,67.3 100.9,35.2 103.5,33.6 94.6,28.5 94,28.5 94,33 22.7,28.6 9.5,45.2 
					87.4,70.3 132.3,103.6 160.7,65.8 156.3,63.4" style="fill:#E8EBED;"></polygon>
				<path d="M132.3,104.2c-0.1,0-0.2,0-0.4-0.1L87.1,70.8L9.3,45.8c-0.2-0.1-0.3-0.2-0.4-0.4c-0.1-0.2,0-0.4,0.1-0.5l13.2-16.6
					c0.1-0.2,0.3-0.2,0.5-0.2l70.6,4.4v-3.9c0-0.2,0.1-0.3,0.2-0.4c0.1-0.1,0.3-0.2,0.4-0.2l0.6,0c0.1,0,0.2,0,0.3,0.1l9,5
					c0.2,0.1,0.3,0.3,0.3,0.5c0,0.2-0.1,0.4-0.3,0.5l-1.8,1.1l51,31.3l2.9-3.5c0.2-0.2,0.5-0.3,0.8-0.1l4.3,2.4
					c0.2,0.1,0.3,0.2,0.3,0.4c0,0.2,0,0.3-0.1,0.5l-28.3,37.8C132.7,104.1,132.5,104.2,132.3,104.2z M10.5,44.9l77.1,24.8
					c0.1,0,0.1,0.1,0.2,0.1l44.5,32.9L159.8,66l-3.3-1.8l-2.9,3.5c-0.2,0.2-0.5,0.3-0.8,0.1l-52.3-32.1c-0.2-0.1-0.3-0.3-0.3-0.5
					c0-0.2,0.1-0.4,0.3-0.5l1.7-1l-7.8-4.4V33c0,0.2-0.1,0.3-0.2,0.4c-0.1,0.1-0.3,0.2-0.4,0.2l-71-4.5L10.5,44.9z"></path>
			</g>
			<g>
				<polygon points="153.2,67.3 156.3,63.4 103.5,33.6 100.9,35.2" style="fill:#8A1414;"></polygon>
				<path d="M153.2,67.9c-0.1,0-0.2,0-0.3-0.1l-52.3-32.1c-0.2-0.1-0.3-0.3-0.3-0.5c0-0.2,0.1-0.4,0.3-0.5l2.6-1.6
					c0.2-0.1,0.4-0.1,0.6,0l52.8,29.8c0.2,0.1,0.3,0.2,0.3,0.4c0,0.2,0,0.4-0.1,0.5l-3.2,3.9C153.5,67.8,153.3,67.9,153.2,67.9z
					 M102.1,35.2L153,66.5l2.4-2.9l-51.9-29.2L102.1,35.2z"></path>
			</g>
		</g>
	</g>
	<g>
		<g>
			<polygon points="94,28.5 26.1,24.3 22.7,28.6 94,33" style="fill:#D92020;"></polygon>
			<path d="M94,33.7C94,33.7,93.9,33.7,94,33.7l-71.3-4.5c-0.2,0-0.4-0.2-0.5-0.4c-0.1-0.2-0.1-0.5,0.1-0.6l3.4-4.2
				c0.1-0.2,0.3-0.2,0.5-0.2L94,27.9c0.3,0,0.6,0.3,0.6,0.6V33c0,0.2-0.1,0.3-0.2,0.5C94.3,33.6,94.1,33.7,94,33.7z M23.9,28
				l69.4,4.4v-3.3l-67-4.1L23.9,28z"></path>
		</g>
	</g>
	<g>
		<g>
			<polygon points="82.5,81.7 122.8,116.3 132.3,103.6 87.4,70.3 9.5,45.2 6.2,49.3" style="fill:#BFC2C4;"></polygon>
			<path d="M122.8,116.9c-0.1,0-0.3-0.1-0.4-0.2L82.2,82.3L6,49.8c-0.2-0.1-0.3-0.2-0.4-0.4c0-0.2,0-0.4,0.1-0.5L9,44.8
				c0.2-0.2,0.4-0.3,0.7-0.2l77.9,25.1c0.1,0,0.1,0.1,0.2,0.1l45,33.3c0.1,0.1,0.2,0.2,0.2,0.4c0,0.2,0,0.3-0.1,0.5l-9.5,12.7
				C123.2,116.8,123,116.9,122.8,116.9C122.9,116.9,122.8,116.9,122.8,116.9z M7.2,49l75.6,32.1c0.1,0,0.1,0.1,0.2,0.1l39.8,34.1
				l8.7-11.7L87.1,70.9L9.7,45.9L7.2,49z"></path>
		</g>
	</g>
	<g>
		<g>
			<path d="M95.5,90.1c0,0,8.4,4.2,11.1-3.9c2.2-6.6,6.5-33.6,8.4-43.9c0.4-2.1-0.7-4.2-2.7-5.1l-8.6-3.7
				L95.5,90.1z" style="fill:#2E2C42;"></path>
			<path d="M100.1,91.8c-2.6,0-4.8-1.1-4.9-1.2c-0.2-0.1-0.4-0.4-0.3-0.6l8.1-56.5c0-0.2,0.1-0.3,0.3-0.4c0.2-0.1,0.4-0.1,0.5,0
				l8.6,3.7c2.3,1,3.5,3.3,3.1,5.7c-0.5,2.7-1.1,6.4-1.9,10.7c-2.2,12.6-4.8,28.2-6.5,33.2c-0.8,2.4-2.2,4.1-4.1,4.9
				C102.1,91.7,101.1,91.8,100.1,91.8z M96.1,89.8c1,0.4,4,1.4,6.5,0.4c1.6-0.7,2.7-2,3.4-4.1c1.6-4.9,4.4-21.1,6.5-33
				c0.7-4.3,1.4-8.1,1.9-10.7c0.3-1.9-0.6-3.7-2.4-4.4l-7.9-3.4L96.1,89.8z M95.5,90.1L95.5,90.1L95.5,90.1z"></path>
		</g>
	</g>
	<g>
		<g>
			<polygon points="114.1,67.3 146.8,86.2 149.5,80.7 110.8,59.8" style="fill:#D92020;"></polygon>
			<path d="M146.8,86.9c-0.1,0-0.2,0-0.3-0.1l-32.8-18.9c-0.1-0.1-0.2-0.2-0.3-0.3l-3.2-7.5c-0.1-0.2,0-0.5,0.2-0.7
				c0.2-0.2,0.5-0.2,0.7-0.1l38.6,21c0.3,0.2,0.4,0.5,0.3,0.8l-2.6,5.5c-0.1,0.2-0.2,0.3-0.4,0.3C147,86.8,146.9,86.9,146.8,86.9z
				 M114.6,66.9l32,18.5l2.1-4.3l-36.5-19.8L114.6,66.9z"></path>
		</g>
	</g>
	<g>
		<path d="M29.6,52.3c-0.2,0-0.5-0.1-0.6-0.4c-0.1-0.3,0-0.7,0.3-0.8l15.7-6.6c0.1,0,0.2-0.1,0.3,0L73,48.7c0.3,0,0.6,0.4,0.5,0.7
			c0,0.3-0.4,0.6-0.7,0.5l-27.5-4.2l-15.5,6.6C29.8,52.3,29.7,52.3,29.6,52.3z"></path>
	</g>
	<g>
		<g>
			<path d="M91.3,3.7C79.9,2.8,78.8,12,78.8,12l1.5,6.5c0,0,2.8,5.1,9.2,5.8s10.2-3.8,10.2-3.8l3-6
				C102.5,14.5,103.3,4.5,91.3,3.7z" style="fill:#649FBD;"></path>
			<path d="M90.7,25c-0.4,0-0.9,0-1.4-0.1c-6.6-0.7-9.5-5.9-9.6-6.1c0,0,0-0.1-0.1-0.2l-1.5-6.5c0-0.1,0-0.1,0-0.2
				c0-0.1,1.3-9.7,13.2-8.9c4.1,0.3,7.2,1.6,9.2,4c2.8,3.3,2.6,7.3,2.6,7.5c0,0.1,0,0.2-0.1,0.2l-3,6c0,0-0.1,0.1-0.1,0.1
				C99.9,21.1,96.5,25,90.7,25z M80.8,18.3c0.4,0.6,3.1,4.8,8.7,5.4c5.6,0.6,9.2-3,9.6-3.5l2.9-5.9c0-1.1,0-9.3-10.7-10.1
				C81,3.5,79.5,11,79.4,12L80.8,18.3z"></path>
		</g>
	</g>
	<g>
		<g>
			<path d="M72.3,22.4C70.3,24.8,70,27,70,27s-3.4,34.7-2.4,61.2c0.3,8.1,1,15.5,2.4,20.9
				c0,0,0.6,1.9,2.7,3.6C71.9,95.6,70,48,72.3,22.4z" style="fill:#BFC2C4;"></path>
			<path d="M72.6,113.3c-0.1,0-0.3,0-0.4-0.1c-2.2-1.8-2.9-3.8-2.9-3.9c0,0,0,0,0,0c-1.2-5-2-12-2.4-21C66,62,69.3,27.3,69.3,27
				c0-0.1,0.4-2.5,2.5-5c0.2-0.2,0.5-0.3,0.7-0.2c0.3,0.1,0.4,0.4,0.4,0.6c-2.2,25.3-0.5,71.5,0.3,90.2c0,0.2-0.1,0.5-0.3,0.6
				C72.8,113.2,72.7,113.3,72.6,113.3z M70.5,108.9c0,0.1,0.4,1.1,1.4,2.2c-0.8-19-2.3-61.3-0.5-86.4c-0.7,1.4-0.9,2.4-0.9,2.4
				c0,0.3-3.3,34.9-2.4,61.1C68.5,97,69.3,104,70.5,108.9z"></path>
		</g>
	</g>
	<g>
		<g>
			<path d="M107,31.5c0,0-0.7-8.2-8-12.5l-13.5,96.3c7-1.2,8.8-6.3,8.8-6.3s1.7-8.5,3.9-20
				C102,69.3,107.1,40.7,107,31.5z" style="fill:#BFC2C4;"></path>
			<path d="M85.5,115.9c-0.2,0-0.3-0.1-0.4-0.2c-0.1-0.1-0.2-0.3-0.2-0.5L98.4,19c0-0.2,0.2-0.4,0.3-0.5c0.2-0.1,0.4-0.1,0.6,0
				c7.5,4.4,8.3,12.6,8.3,12.9c0,0,0,0,0,0.1c0.1,9-4.8,36.3-8.8,57.7c-2.2,11.3-3.9,19.9-3.9,20c0,0,0,0.1,0,0.1
				c-0.1,0.2-2,5.5-9.3,6.7C85.6,115.9,85.5,115.9,85.5,115.9z M99.5,20.1l-13.3,94.4c5.6-1.3,7.2-5.2,7.4-5.6
				c0.1-0.7,1.8-9,3.9-19.9c4.1-21.3,8.9-48.5,8.8-57.4C106.4,31.1,105.5,24.2,99.5,20.1z"></path>
		</g>
	</g>
	<g>
		<g>
			<g>
				<path d="M86.1,40.6c3.4,0.2,6.6,0.8,9.7,1.8L99,19.1c-2.6-1.5-6-2.5-10.5-2.5c-9.2,0-13.9,3-16.3,5.9
					c-0.5,6.2-0.9,13.6-1,21.6C75.9,42,81.3,40.3,86.1,40.6z" style="fill:#E8EBED;"></path>
				<path d="M71.3,44.6c-0.1,0-0.2,0-0.3-0.1c-0.2-0.1-0.3-0.3-0.3-0.5c0.2-8.6,0.5-15.9,1-21.7c0-0.1,0.1-0.2,0.1-0.3
					c4.2-5,11.4-6.1,16.7-6.1c4.2,0,7.8,0.9,10.8,2.6c0.2,0.1,0.3,0.4,0.3,0.6l-3.3,23.4c0,0.2-0.1,0.3-0.3,0.4
					c-0.2,0.1-0.3,0.1-0.5,0.1c-2.7-0.9-5.8-1.5-9.5-1.8l0,0c-5-0.3-10.6,1.6-14.5,3.3C71.5,44.6,71.4,44.6,71.3,44.6z M72.9,22.6
					c-0.5,5.5-0.8,12.4-1,20.5c3.9-1.7,9.3-3.4,14.2-3.1c3.5,0.2,6.5,0.8,9.1,1.6l3.1-22.3c-2.7-1.5-6-2.3-9.8-2.3
					C79.6,17.1,75.1,20.1,72.9,22.6z"></path>
			</g>
		</g>
	</g>
	<g>
		<g>
			<path d="M77.7,41.7l1-16.5c0,0,9-1.5,11.4,0l-0.9,15.7C89.2,40.9,81.2,39.8,77.7,41.7z" style="fill:#2E2C42;"></path>
			<path d="M77.7,42.3c-0.1,0-0.2,0-0.3-0.1c-0.2-0.1-0.3-0.3-0.3-0.5l1-16.5c0-0.3,0.2-0.5,0.5-0.6c0.9-0.2,9.3-1.5,11.8,0.1
				c0.2,0.1,0.3,0.3,0.3,0.5L89.8,41c0,0.2-0.1,0.3-0.2,0.4c-0.1,0.1-0.3,0.2-0.5,0.1c-0.1,0-7.8-1.1-11.2,0.7
				C77.9,42.3,77.8,42.3,77.7,42.3z M79.2,25.8l-0.9,15c3.3-1.1,8.5-0.7,10.3-0.5l0.8-14.7C87.4,24.7,81.8,25.4,79.2,25.8z"></path>
		</g>
	</g>
	<g>
		<g>
			<path d="M79.8,40.8l0.8-13.2c0,0,7.2-1.2,9.1,0l-0.7,12.6C89.1,40.2,82.7,39.3,79.8,40.8z" style="fill:#414F7A;"></path>
			<path d="M79.8,41.4c-0.1,0-0.2,0-0.3-0.1c-0.2-0.1-0.3-0.3-0.3-0.5L80,27.6c0-0.3,0.2-0.5,0.5-0.6c0.8-0.1,7.5-1.2,9.6,0.1
				c0.2,0.1,0.3,0.3,0.3,0.5l-0.7,12.6c0,0.2-0.1,0.3-0.2,0.4c-0.1,0.1-0.3,0.2-0.5,0.1c-0.1,0-6.2-0.9-8.9,0.5
				C80,41.4,79.9,41.4,79.8,41.4z M81.2,28.1l-0.7,11.7c2.6-0.8,6.5-0.5,8-0.4L89.1,28C87.6,27.4,83.7,27.8,81.2,28.1z"></path>
		</g>
	</g>
	<g>
		<g>
			<path d="M96.9,57.8l-3.6,24.5c0,0,2.4,4.4,3,3.1c0.6-1.3,5.1-24.7,5.1-24.7L96.9,57.8z" style="fill:#4C496E;"></path>
			<path d="M96.1,86.3c-1,0-2.3-2-3.2-3.7c-0.1-0.1-0.1-0.2-0.1-0.4l3.6-24.5c0-0.2,0.2-0.4,0.3-0.5c0.2-0.1,0.4-0.1,0.6,0l4.6,2.9
				c0.2,0.1,0.3,0.4,0.3,0.6c-0.5,2.4-4.5,23.5-5.2,24.9C96.7,86,96.4,86.3,96.1,86.3C96.1,86.3,96.1,86.3,96.1,86.3z M94,82.2
				c0.7,1.2,1.5,2.3,1.9,2.7c0.6-2.1,3.2-15.1,4.9-24l-3.4-2.2L94,82.2z"></path>
		</g>
	</g>
	<g>
		<g>
			<path d="M112.4,56.8L102.1,50c-2.2-1.5-5.2-0.1-5.6,2.5v0c-0.6,4.4,1.3,8.9,5,11.4l8.7,6
				C110.2,70,120.7,66.1,112.4,56.8z" style="fill:#649FBD;"></path>
			<path d="M110.2,70.6c-0.1,0-0.2,0-0.3-0.1l-8.7-6c-3.9-2.7-5.9-7.3-5.3-12c0.2-1.4,1.1-2.7,2.4-3.3c1.3-0.6,2.8-0.5,4.1,0.3
				l10.4,6.8c0,0,0.1,0.1,0.1,0.1c2.7,3.1,3.8,5.9,3.1,8.5c-1,3.9-5.4,5.6-5.6,5.7C110.3,70.6,110.3,70.6,110.2,70.6z M100.1,50
				c-0.4,0-0.9,0.1-1.3,0.3c-0.9,0.4-1.6,1.3-1.7,2.3c-0.6,4.2,1.2,8.4,4.8,10.8l8.4,5.9c0.9-0.4,3.9-1.9,4.6-4.7
				c0.5-2.2-0.4-4.6-2.8-7.4l-10.3-6.7C101.2,50.2,100.7,50,100.1,50z"></path>
		</g>
	</g>
	<g>
		<g>
			<path d="M72.6,112.6c1.5,1.2,3.7,2.3,6.9,2.7c2.3,0.3,4.3,0.2,6,0l10.2-72.9c-3-1.1-6.3-1.6-9.7-1.8
				C81.3,40.3,75.9,42,71.3,44C70.8,69.2,72,99.7,72.6,112.6z" style="fill:#E8EBED;"></path>
			<path d="M82.5,116.2c-1,0-2-0.1-3-0.2c-2.9-0.4-5.3-1.3-7.2-2.9c-0.1-0.1-0.2-0.3-0.2-0.4c-0.6-12.2-1.8-43.3-1.3-68.7
				c0-0.2,0.1-0.4,0.4-0.5c4-1.8,9.8-3.8,15.1-3.4c3.8,0.3,7,0.9,9.8,1.8c0.3,0.1,0.4,0.4,0.4,0.7l-10.2,72.9c0,0.3-0.2,0.5-0.5,0.5
				C84.6,116.1,83.6,116.2,82.5,116.2z M73.2,112.3c1.7,1.3,3.8,2.1,6.4,2.4c1.9,0.2,3.7,0.2,5.4,0l10.1-71.9
				c-2.6-0.9-5.6-1.4-9-1.6c-4.8-0.3-10.3,1.5-14.1,3.2C71.5,69.5,72.7,100.1,73.2,112.3z"></path>
		</g>
	</g>
	<g>
		<g>
			<path d="M79.5,115.4c12,1.5,14.7-6.3,14.7-6.3s1.2-6,2.9-14.8c0.7-3.5-1.2-6.9-4.5-8.2
				c-3.1-1.2-6.7-1.9-10.4-1.9c-3.4,0-6.7,0.6-9.6,1.6c-3.1,1.1-5,4.1-4.8,7.4c0.4,6.2,1,11.7,2.1,15.9
				C69.9,109.1,71.6,114.4,79.5,115.4z" style="fill:#D92020;"></path>
			<path d="M82.4,116.2c-1.1,0-2.1-0.1-3-0.2c-8.3-1-10.1-6.5-10.1-6.7c0,0,0,0,0,0c-1-4-1.7-9.4-2.1-16.1c-0.2-3.5,1.9-6.8,5.2-8
				c3.1-1.1,6.4-1.7,9.8-1.7c3.7,0,7.3,0.7,10.7,2c3.6,1.4,5.6,5.2,4.9,8.9c-1.7,8.7-2.9,14.7-2.9,14.8c0,0,0,0.1,0,0.1
				c0,0.1-0.8,2.1-3.1,4C89,115.5,85.5,116.2,82.4,116.2z M70.5,108.9c0.1,0.3,1.8,4.9,9.1,5.9c0,0,0,0,0,0c11,1.4,13.8-5.2,14-5.9
				c0.1-0.6,1.3-6.5,2.9-14.7c0.6-3.2-1.1-6.3-4.1-7.5c-3.2-1.2-6.6-1.9-10.2-1.9c-3.3,0-6.4,0.5-9.4,1.6c-2.8,1-4.6,3.8-4.4,6.7
				C68.8,99.6,69.5,105,70.5,108.9z"></path>
		</g>
	</g>
	<g>
		<g>
			<ellipse ry="6.3" rx="8.1" cy="105.2" cx="82.2" style="fill:#1B1926;"></ellipse>
			<path d="M82.2,112.1c-4.8,0-8.7-3.1-8.7-6.9c0-3.8,3.9-6.9,8.7-6.9c4.8,0,8.7,3.1,8.7,6.9C91,109,87.1,112.1,82.2,112.1z
				 M82.2,99.4c-4.1,0-7.5,2.6-7.5,5.7c0,3.1,3.4,5.7,7.5,5.7c4.1,0,7.5-2.6,7.5-5.7C89.8,102,86.4,99.4,82.2,99.4z"></path>
		</g>
	</g>
	<g>
		<g>
			<line y2="82.1" x2="97.2" y1="76.5" x1="94.2" style="fill:#FFFFFF;"></line>
			<path d="M97.2,82.7c-0.2,0-0.4-0.1-0.5-0.3l-3-5.6c-0.2-0.3,0-0.7,0.3-0.8c0.3-0.2,0.7,0,0.8,0.3l3,5.6c0.2,0.3,0,0.7-0.3,0.8
				C97.4,82.7,97.3,82.7,97.2,82.7z"></path>
		</g>
	</g>
	<g>
		<g>
			<line y2="77" x2="98.2" y1="70.8" x1="95" style="fill:#FFFFFF;"></line>
			<path d="M98.2,77.6c-0.2,0-0.4-0.1-0.5-0.3l-3.2-6.2c-0.2-0.3,0-0.7,0.3-0.8c0.3-0.2,0.7,0,0.8,0.3l3.2,6.2
				c0.2,0.3,0,0.7-0.3,0.8C98.4,77.6,98.3,77.6,98.2,77.6z"></path>
		</g>
	</g>
	<g>
		<g>
			<line y2="72.1" x2="99.2" y1="66" x1="95.7" style="fill:#FFFFFF;"></line>
			<path d="M99.2,72.7c-0.2,0-0.4-0.1-0.5-0.3l-3.5-6c-0.2-0.3-0.1-0.7,0.2-0.8c0.3-0.2,0.7-0.1,0.8,0.2l3.5,6
				c0.2,0.3,0.1,0.7-0.2,0.8C99.4,72.7,99.3,72.7,99.2,72.7z"></path>
		</g>
	</g>
	<g>
		<g>
			<line y2="66.8" x2="100.3" y1="61" x1="96.6" style="fill:#FFFFFF;"></line>
			<path d="M100.3,67.4c-0.2,0-0.4-0.1-0.5-0.3l-3.6-5.8C96,61,96,60.7,96.3,60.5c0.3-0.2,0.7-0.1,0.8,0.2l3.6,5.8
				c0.2,0.3,0.1,0.7-0.2,0.8C100.5,67.4,100.4,67.4,100.3,67.4z"></path>
		</g>
	</g>
	<g>
		<g>
			<g>
				<polygon points="207.8,56.2 257.4,28.2 266.5,33.6 213.7,63.4" style="fill:#D92020;"></polygon>
				<path d="M213.7,64c-0.2,0-0.4-0.1-0.5-0.2l-5.8-7.2c-0.1-0.1-0.2-0.3-0.1-0.5c0-0.2,0.1-0.3,0.3-0.4l49.6-27.9
					c0.2-0.1,0.4-0.1,0.6,0l9.1,5.3c0.2,0.1,0.3,0.3,0.3,0.5c0,0.2-0.1,0.4-0.3,0.5L214,63.9C213.9,64,213.8,64,213.7,64z
					 M208.8,56.4l5,6.2l51.4-29l-7.8-4.6L208.8,56.4z"></path>
			</g>
			<g>
				<polygon points="216.8,67.3 269.1,35.2 266.5,33.6 275.4,28.5 276,28.5 276,33 347.3,28.6 360.5,45.2 
					282.6,70.3 237.7,103.6 209.3,65.8 213.7,63.4" style="fill:#E8EBED;"></polygon>
				<path d="M237.7,104.2c-0.2,0-0.4-0.1-0.5-0.2l-28.3-37.8c-0.1-0.1-0.1-0.3-0.1-0.5c0-0.2,0.1-0.3,0.3-0.4l4.3-2.4
					c0.3-0.1,0.6-0.1,0.8,0.1l2.9,3.5l51-31.3l-1.8-1.1c-0.2-0.1-0.3-0.3-0.3-0.5c0-0.2,0.1-0.4,0.3-0.5l9-5c0.1,0,0.2-0.1,0.3-0.1
					l0.6,0c0.2,0,0.3,0,0.4,0.2c0.1,0.1,0.2,0.3,0.2,0.4v3.9l70.6-4.4c0.2,0,0.4,0.1,0.5,0.2L361,44.8c0.1,0.2,0.2,0.4,0.1,0.5
					c-0.1,0.2-0.2,0.3-0.4,0.4l-77.8,25.1L238,104.1C237.9,104.1,237.8,104.2,237.7,104.2z M210.2,66l27.6,36.8l44.5-32.9
					c0.1,0,0.1-0.1,0.2-0.1l77.1-24.8L347,29.2l-71,4.5c-0.2,0-0.3,0-0.4-0.2c-0.1-0.1-0.2-0.3-0.2-0.4v-3.8l-7.8,4.4l1.7,1
					c0.2,0.1,0.3,0.3,0.3,0.5c0,0.2-0.1,0.4-0.3,0.5l-52.3,32.1c-0.3,0.2-0.6,0.1-0.8-0.1l-2.9-3.5L210.2,66z"></path>
			</g>
			<g>
				<polygon points="216.8,67.3 213.7,63.4 266.5,33.6 269.1,35.2" style="fill:#8A1414;"></polygon>
				<path d="M216.8,67.9c-0.2,0-0.4-0.1-0.5-0.2l-3.2-3.9c-0.1-0.1-0.2-0.3-0.1-0.5c0-0.2,0.1-0.3,0.3-0.4L266.2,33
					c0.2-0.1,0.4-0.1,0.6,0l2.6,1.6c0.2,0.1,0.3,0.3,0.3,0.5c0,0.2-0.1,0.4-0.3,0.5l-52.3,32.1C217.1,67.9,217,67.9,216.8,67.9z
					 M214.6,63.5l2.4,2.9l50.9-31.3l-1.4-0.9L214.6,63.5z"></path>
			</g>
		</g>
	</g>
	<g>
		<g>
			<polygon points="276,28.5 343.9,24.3 347.3,28.6 276,33" style="fill:#D92020;"></polygon>
			<path d="M276,33.7c-0.2,0-0.3-0.1-0.4-0.2c-0.1-0.1-0.2-0.3-0.2-0.5v-4.5c0-0.3,0.3-0.6,0.6-0.6l67.9-4.2c0.2,0,0.4,0.1,0.5,0.2
				l3.4,4.2c0.1,0.2,0.2,0.4,0.1,0.6c-0.1,0.2-0.3,0.4-0.5,0.4L276,33.7C276.1,33.7,276,33.7,276,33.7z M276.7,29.1v3.3l69.4-4.4
				l-2.4-3L276.7,29.1z"></path>
		</g>
	</g>
	<g>
		<g>
			<polygon points="287.5,81.7 247.2,116.3 237.7,103.6 282.6,70.3 360.5,45.2 363.8,49.3" style="fill:#BFC2C4;"></polygon>
			<path d="M247.2,116.9C247.2,116.9,247.1,116.9,247.2,116.9c-0.2,0-0.4-0.1-0.5-0.3l-9.5-12.7c-0.1-0.1-0.1-0.3-0.1-0.5
				c0-0.2,0.1-0.3,0.2-0.4l45-33.3c0.1,0,0.1-0.1,0.2-0.1l77.9-25.1c0.2-0.1,0.5,0,0.7,0.2l3.2,4.1c0.1,0.2,0.2,0.4,0.1,0.5
				c0,0.2-0.2,0.3-0.4,0.4l-76.2,32.4l-40.2,34.5C247.5,116.8,247.3,116.9,247.2,116.9z M238.6,103.7l8.7,11.7L287,81.2
				c0,0,0.1-0.1,0.2-0.1L362.8,49l-2.5-3.1l-77.4,24.9L238.6,103.7z"></path>
		</g>
	</g>
	<g>
		<g>
			<path d="M274.5,90.1c0,0-8.4,4.2-11.1-3.9c-2.2-6.6-6.5-33.6-8.4-43.9c-0.4-2.1,0.7-4.2,2.7-5.1l8.6-3.7
				L274.5,90.1z" style="fill:#2E2C42;"></path>
			<path d="M269.9,91.8c-0.9,0-1.9-0.1-2.9-0.5c-1.9-0.8-3.3-2.4-4.1-4.9c-1.7-5-4.3-20.6-6.5-33.2c-0.7-4.3-1.4-8.1-1.9-10.7
				c-0.4-2.4,0.8-4.8,3.1-5.7l8.6-3.7c0.2-0.1,0.4-0.1,0.5,0c0.2,0.1,0.3,0.3,0.3,0.4l8.1,56.5c0,0.3-0.1,0.5-0.3,0.6
				C274.7,90.7,272.5,91.8,269.9,91.8z M265.9,34.5l-7.9,3.4c-1.7,0.7-2.7,2.5-2.4,4.4c0.5,2.7,1.1,6.4,1.9,10.7
				c2,11.9,4.8,28.2,6.5,33c0.7,2.1,1.8,3.5,3.4,4.1c2.5,1,5.4,0,6.5-0.4L265.9,34.5z"></path>
		</g>
	</g>
	<g>
		<g>
			<polygon points="255.9,67.3 223.2,86.2 220.5,80.7 259.2,59.8" style="fill:#D92020;"></polygon>
			<path d="M223.2,86.9c-0.1,0-0.1,0-0.2,0c-0.2-0.1-0.3-0.2-0.4-0.3L220,81c-0.1-0.3,0-0.7,0.3-0.8l38.6-21
				c0.2-0.1,0.5-0.1,0.7,0.1c0.2,0.2,0.3,0.5,0.2,0.7l-3.2,7.5c-0.1,0.1-0.1,0.2-0.3,0.3l-32.8,18.9
				C223.4,86.8,223.3,86.9,223.2,86.9z M221.4,81l2.1,4.3l32-18.5l2.4-5.7L221.4,81z M255.9,67.3L255.9,67.3L255.9,67.3z"></path>
		</g>
	</g>
	<g>
		<path d="M340.4,52.3c-0.1,0-0.2,0-0.2,0l-15.5-6.6l-27.5,4.2c-0.3,0.1-0.6-0.2-0.7-0.5c0-0.3,0.2-0.6,0.5-0.7l27.6-4.2
			c0.1,0,0.2,0,0.3,0l15.7,6.6c0.3,0.1,0.4,0.5,0.3,0.8C340.9,52.2,340.6,52.3,340.4,52.3z"></path>
	</g>
	<g>
		<g>
			<path d="M278.7,3.7c11.5-0.8,12.6,8.3,12.6,8.3l-1.5,6.5c0,0-2.8,5.1-9.2,5.8s-10.2-3.8-10.2-3.8l-3-6
				C267.5,14.5,266.7,4.5,278.7,3.7z" style="fill:#649FBD;"></path>
			<path d="M279.3,25c-5.8,0-9.2-3.9-9.3-4.1c0,0-0.1-0.1-0.1-0.1l-3-6c0-0.1-0.1-0.1-0.1-0.2c0-0.2-0.3-4.2,2.6-7.5
				c2-2.4,5.1-3.7,9.2-4c11.9-0.8,13.2,8.8,13.2,8.9c0,0.1,0,0.1,0,0.2l-1.5,6.5c0,0.1,0,0.1-0.1,0.2c-0.1,0.2-3.1,5.4-9.6,6.1
				C280.2,24.9,279.7,25,279.3,25z M270.9,20.2c0.4,0.5,4,4.1,9.6,3.5c5.6-0.6,8.3-4.8,8.7-5.4l1.4-6.3c-0.2-1-1.7-8.5-11.9-7.7
				l0-0.6l0,0.6C268.1,5,268,13.2,268.1,14.3L270.9,20.2z"></path>
		</g>
	</g>
	<g>
		<g>
			<path d="M297.7,22.4c2,2.4,2.3,4.6,2.3,4.6s3.4,34.7,2.4,61.2c-0.3,8.1-1,15.5-2.4,20.9
				c0,0-0.6,1.9-2.7,3.6C298.1,95.6,300,48,297.7,22.4z" style="fill:#BFC2C4;"></path>
			<path d="M297.4,113.3c-0.1,0-0.2,0-0.3-0.1c-0.2-0.1-0.4-0.3-0.3-0.6c0.8-18.7,2.6-64.9,0.3-90.2c0-0.3,0.1-0.5,0.4-0.6
				c0.3-0.1,0.5,0,0.7,0.2c2.1,2.5,2.5,4.9,2.5,5c0,0.4,3.4,35,2.4,61.3c-0.3,9-1.1,16-2.4,21c0,0,0,0,0,0c0,0.1-0.7,2.1-2.9,3.9
				C297.7,113.2,297.5,113.3,297.4,113.3z M298.5,24.7c1.9,25.1,0.4,67.4-0.5,86.4c1-1.1,1.4-2.1,1.4-2.2c1.2-4.9,2-11.8,2.3-20.7
				c1-26.2-2.3-60.7-2.4-61.1l0,0C299.4,27.1,299.3,26.1,298.5,24.7z"></path>
		</g>
	</g>
	<g>
		<g>
			<path d="M263,31.5c0,0,0.7-8.2,8-12.5l13.5,96.3c-7-1.2-8.8-6.3-8.8-6.3s-1.7-8.5-3.9-20
				C268,69.3,262.9,40.7,263,31.5z" style="fill:#BFC2C4;"></path>
			<path d="M284.5,115.9c0,0-0.1,0-0.1,0c-7.3-1.2-9.2-6.4-9.3-6.7c0,0,0-0.1,0-0.1c0-0.1-1.8-8.6-3.9-20
				c-4.1-21.4-8.9-48.7-8.8-57.7c0,0,0,0,0-0.1c0-0.3,0.9-8.5,8.3-12.9c0.2-0.1,0.4-0.1,0.6,0c0.2,0.1,0.3,0.3,0.3,0.5l13.5,96.3
				c0,0.2,0,0.4-0.2,0.5C284.8,115.9,284.7,115.9,284.5,115.9z M276.3,108.9c0.2,0.4,1.8,4.4,7.4,5.6l-13.3-94.4
				c-6,4.1-6.9,11-6.9,11.4c-0.1,8.9,4.8,36.1,8.8,57.4C274.5,99.9,276.2,108.2,276.3,108.9z"></path>
		</g>
	</g>
	<g>
		<g>
			<g>
				<path d="M283.9,40.6c-3.4,0.2-6.6,0.8-9.7,1.8L271,19.1c2.6-1.5,6-2.5,10.5-2.5c9.2,0,13.9,3,16.3,5.9
					c0.5,6.2,0.9,13.6,1,21.6C294.1,42,288.7,40.3,283.9,40.6z" style="fill:#E8EBED;"></path>
				<path d="M298.7,44.6c-0.1,0-0.2,0-0.2-0.1c-3.9-1.7-9.5-3.7-14.5-3.3l0,0c-3.7,0.3-6.8,0.8-9.5,1.8c-0.2,0.1-0.4,0-0.5-0.1
					c-0.2-0.1-0.3-0.3-0.3-0.4l-3.3-23.4c0-0.2,0.1-0.5,0.3-0.6c3-1.7,6.6-2.6,10.8-2.6c5.3,0,12.5,1.1,16.7,6.1
					c0.1,0.1,0.1,0.2,0.1,0.3c0.5,5.8,0.8,13,1,21.7c0,0.2-0.1,0.4-0.3,0.5C298.9,44.6,298.8,44.6,298.7,44.6z M285.2,40
					c4.5,0,9.3,1.6,12.9,3.1c-0.2-8.1-0.5-15-1-20.5c-2.2-2.5-6.7-5.5-15.7-5.5c-3.8,0-7.1,0.8-9.8,2.3l3.1,22.3
					c2.7-0.8,5.7-1.4,9.1-1.6l0,0C284.3,40,284.7,40,285.2,40z M283.9,40.6L283.9,40.6L283.9,40.6z"></path>
			</g>
		</g>
	</g>
	<g>
		<g>
			<path d="M292.3,41.7l-1-16.5c0,0-9-1.5-11.4,0l0.9,15.7C280.8,40.9,288.8,39.8,292.3,41.7z" style="fill:#2E2C42;"></path>
			<path d="M292.3,42.3c-0.1,0-0.2,0-0.3-0.1c-3.3-1.8-11.1-0.7-11.2-0.7c-0.2,0-0.3,0-0.5-0.1c-0.1-0.1-0.2-0.3-0.2-0.4l-0.9-15.7
				c0-0.2,0.1-0.4,0.3-0.5c1.1-0.7,3.4-0.9,7-0.7c2.6,0.2,4.8,0.6,4.9,0.6c0.3,0,0.5,0.3,0.5,0.6l1,16.5c0,0.2-0.1,0.4-0.3,0.5
				C292.6,42.3,292.4,42.3,292.3,42.3z M285.9,40c2,0,4.1,0.2,5.8,0.8l-0.9-15c-2.6-0.4-8.2-1-10.2-0.2l0.8,14.7
				C282.3,40.2,284,40,285.9,40z"></path>
		</g>
	</g>
	<g>
		<g>
			<path d="M290.2,41.4l-0.8-13.2c0,0-7.2-1.2-9.1,0l0.7,12.6C280.9,40.8,287.3,39.9,290.2,41.4z" style="fill:#414F7A;"></path>
			<path d="M290.2,42c-0.1,0-0.2,0-0.3-0.1c-2.6-1.4-8.8-0.5-8.9-0.5c-0.2,0-0.3,0-0.5-0.1c-0.1-0.1-0.2-0.3-0.2-0.4l-0.7-12.6
				c0-0.2,0.1-0.4,0.3-0.5c2.1-1.3,8.8-0.2,9.6-0.1c0.3,0,0.5,0.3,0.5,0.6l0.8,13.2c0,0.2-0.1,0.4-0.3,0.5
				C290.4,42,290.3,42,290.2,42z M285,39.9c1.5,0,3.2,0.1,4.5,0.6l-0.7-11.7c-2.6-0.4-6.4-0.7-7.9-0.2l0.6,11.5
				C282.2,40,283.6,39.9,285,39.9z"></path>
		</g>
	</g>
	<g>
		<g>
			<path d="M273.1,57.8l3.6,24.5c0,0-2.4,4.4-3,3.1s-5.1-24.7-5.1-24.7L273.1,57.8z" style="fill:#4C496E;"></path>
			<path d="M273.9,86.3C273.9,86.3,273.9,86.3,273.9,86.3c-0.4,0-0.7-0.2-0.9-0.6c-0.6-1.3-4.7-22.5-5.2-24.9c0-0.2,0.1-0.5,0.3-0.6
				l4.6-2.9c0.2-0.1,0.4-0.1,0.6,0c0.2,0.1,0.3,0.3,0.3,0.5l3.6,24.5c0,0.1,0,0.3-0.1,0.4C276.3,84.3,275,86.3,273.9,86.3z
				 M269.2,61c1.7,8.9,4.3,21.9,4.9,24c0.4-0.4,1.2-1.5,1.9-2.7l-3.4-23.4L269.2,61z"></path>
		</g>
	</g>
	<g>
		<g>
			<path d="M257.6,56.8l10.4-6.8c2.2-1.5,5.2-0.1,5.6,2.5v0c0.6,4.4-1.3,8.9-5,11.4l-8.7,6
				C259.8,70,249.3,66.1,257.6,56.8z" style="fill:#649FBD;"></path>
			<path d="M259.8,70.6c-0.1,0-0.1,0-0.2,0c-0.2-0.1-4.7-1.8-5.6-5.7c-0.6-2.6,0.4-5.4,3.1-8.5c0,0,0.1-0.1,0.1-0.1l10.4-6.8
				c1.2-0.8,2.7-0.9,4.1-0.3c1.3,0.6,2.2,1.8,2.4,3.3c0.7,4.7-1.4,9.3-5.3,12l-8.7,6C260.1,70.6,259.9,70.6,259.8,70.6z M258,57.2
				c-2.4,2.7-3.4,5.2-2.8,7.4c0.7,2.8,3.7,4.3,4.6,4.7l8.4-5.9c3.5-2.4,5.3-6.6,4.8-10.8c-0.1-1-0.8-1.9-1.7-2.3
				c-0.9-0.4-2-0.3-2.9,0.2L258,57.2z"></path>
		</g>
	</g>
	<g>
		<g>
			<path d="M297.4,112.6c-1.5,1.2-3.7,2.3-6.9,2.7c-2.3,0.3-4.3,0.2-6,0l-10.2-72.9c3-1.1,6.3-1.6,9.7-1.8
				c4.7-0.3,10.2,1.4,14.8,3.4C299.2,69.2,298,99.7,297.4,112.6z" style="fill:#E8EBED;"></path>
			<path d="M287.5,116.2c-1.1,0-2.1-0.1-3.1-0.2c-0.3,0-0.5-0.2-0.5-0.5l-10.2-72.9c0-0.3,0.1-0.6,0.4-0.7c2.8-1,6-1.6,9.8-1.8
				c5.2-0.4,11.1,1.7,15.1,3.4c0.2,0.1,0.4,0.3,0.4,0.5c0.5,25.4-0.8,56.5-1.3,68.7c0,0.2-0.1,0.3-0.2,0.4c-1.9,1.5-4.3,2.5-7.2,2.9
				C289.5,116.1,288.5,116.2,287.5,116.2z M285,114.8c1.6,0.2,3.4,0.2,5.4,0c2.6-0.3,4.7-1.1,6.4-2.4c0.6-12.3,1.8-42.8,1.3-67.9
				c-3.9-1.7-9.3-3.5-14.1-3.2c-3.5,0.2-6.4,0.8-9,1.6L285,114.8z M297.4,112.6L297.4,112.6L297.4,112.6z"></path>
		</g>
	</g>
	<g>
		<g>
			<path d="M290.5,115.4c-12,1.5-14.7-6.3-14.7-6.3s-1.2-6-2.9-14.8c-0.7-3.5,1.2-6.9,4.5-8.2
				c3.1-1.2,6.7-1.9,10.4-1.9c3.4,0,6.7,0.6,9.6,1.6c3.1,1.1,5,4.1,4.8,7.4c-0.4,6.2-1,11.7-2.1,15.9
				C300.1,109.1,298.4,114.4,290.5,115.4z" style="fill:#D92020;"></path>
			<path d="M287.6,116.2c-3.1,0-6.6-0.6-9.4-2.9c-2.3-1.9-3-3.9-3.1-4c0,0,0-0.1,0-0.1c0-0.1-1.3-6.1-2.9-14.8
				c-0.7-3.8,1.3-7.5,4.9-8.9c3.3-1.3,6.9-2,10.7-2c3.4,0,6.7,0.6,9.8,1.7c3.3,1.2,5.5,4.5,5.2,8c-0.4,6.6-1.1,12-2.1,16.1
				c0,0,0,0,0,0c-0.1,0.2-1.9,5.7-10.1,6.7l0,0C289.6,116.1,288.6,116.2,287.6,116.2z M276.3,108.9c0.2,0.6,3,7.2,14,5.9
				c0,0,0,0,0,0c7.3-0.9,9-5.5,9.1-5.9c1-3.9,1.7-9.3,2.1-15.8c0.2-3-1.6-5.8-4.4-6.7c-3-1-6.1-1.6-9.4-1.6c-3.6,0-7,0.6-10.2,1.9
				c-3,1.2-4.8,4.4-4.1,7.5C275,102.4,276.2,108.3,276.3,108.9z"></path>
		</g>
	</g>
	<g>
		<g>
			<ellipse ry="6.3" rx="8.1" cy="105.2" cx="287.8" style="fill:#1B1926;"></ellipse>
			<path d="M287.8,112.1c-4.8,0-8.7-3.1-8.7-6.9c0-3.8,3.9-6.9,8.7-6.9c4.8,0,8.7,3.1,8.7,6.9C296.5,109,292.6,112.1,287.8,112.1z
				 M287.8,99.4c-4.1,0-7.5,2.6-7.5,5.7c0,3.1,3.4,5.7,7.5,5.7c4.1,0,7.5-2.6,7.5-5.7C295.3,102,291.9,99.4,287.8,99.4z"></path>
		</g>
	</g>
	<g>
		<g>
			<line y2="82.1" x2="272.8" y1="76.5" x1="275.8" style="fill:#FFFFFF;"></line>
			<path d="M272.8,82.7c-0.1,0-0.2,0-0.3-0.1c-0.3-0.2-0.4-0.5-0.3-0.8l3-5.6c0.2-0.3,0.5-0.4,0.8-0.3c0.3,0.2,0.4,0.5,0.3,0.8
				l-3,5.6C273.2,82.6,273,82.7,272.8,82.7z"></path>
		</g>
	</g>
	<g>
		<g>
			<line y2="77" x2="271.8" y1="70.8" x1="275" style="fill:#FFFFFF;"></line>
			<path d="M271.8,77.6c-0.1,0-0.2,0-0.3-0.1c-0.3-0.2-0.4-0.5-0.3-0.8l3.2-6.2c0.2-0.3,0.5-0.4,0.8-0.3c0.3,0.2,0.4,0.5,0.3,0.8
				l-3.2,6.2C272.2,77.5,272,77.6,271.8,77.6z"></path>
		</g>
	</g>
	<g>
		<g>
			<line y2="72.1" x2="270.8" y1="66" x1="274.3" style="fill:#FFFFFF;"></line>
			<path d="M270.8,72.7c-0.1,0-0.2,0-0.3-0.1c-0.3-0.2-0.4-0.5-0.2-0.8l3.5-6c0.2-0.3,0.5-0.4,0.8-0.2c0.3,0.2,0.4,0.5,0.2,0.8
				l-3.5,6C271.2,72.6,271,72.7,270.8,72.7z"></path>
		</g>
	</g>
	<g>
		<g>
			<line y2="66.8" x2="269.7" y1="61" x1="273.4" style="fill:#FFFFFF;"></line>
			<path d="M269.7,67.4c-0.1,0-0.2,0-0.3-0.1c-0.3-0.2-0.4-0.5-0.2-0.8l3.6-5.8c0.2-0.3,0.5-0.4,0.8-0.2c0.3,0.2,0.4,0.5,0.2,0.8
				l-3.6,5.8C270.1,67.3,269.9,67.4,269.7,67.4z"></path>
		</g>
	</g>
	<g>
		<g>
			<path d="M211.7,16c0,0-20.5-1.8-26.7-1.8S158.3,16,158.3,16l-11.7,22.4c-1.4,2.7-1,6,1.1,8.2l12.4,13.3
				H185h24.9l12.4-13.3c2.1-2.2,2.5-5.5,1.1-8.2L211.7,16z" style="fill:#649FBD;"></path>
			<path d="M209.9,60.4h-49.8c-0.2,0-0.3-0.1-0.4-0.2l-12.4-13.3c-2.3-2.4-2.7-6-1.2-8.9l11.7-22.4c0.1-0.2,0.3-0.3,0.5-0.3
				c0.2,0,20.6-1.8,26.8-1.8s26.6,1.8,26.8,1.8c0.2,0,0.4,0.1,0.5,0.3L224,38c1.5,2.9,1,6.5-1.2,8.9l-12.4,13.3
				C210.2,60.3,210.1,60.4,209.9,60.4z M160.4,59.2h49.3l12.3-13.1c1.9-2,2.3-5.1,1-7.5l-11.6-22.1c-2.7-0.2-20.6-1.8-26.4-1.8
				s-23.7,1.6-26.4,1.8l-11.6,22.1c-1.3,2.5-0.9,5.5,1,7.5L160.4,59.2z"></path>
		</g>
	</g>
	<g>
		<g>
			<path d="M209.3,25.2c0,0-19.2-1.5-24.3-1.5s-24.3,1.5-24.3,1.5l-6.6,19.5l8.1,11.4H185h22.8l8.1-11.4
				L209.3,25.2z" style="fill:#414F7A;"></path>
			<path d="M207.8,56.8h-45.7c-0.2,0-0.4-0.1-0.5-0.3l-8.1-11.4c-0.1-0.2-0.1-0.4-0.1-0.5l6.6-19.5c0.1-0.2,0.3-0.4,0.5-0.4
				c0.8-0.1,19.3-1.5,24.4-1.5s23.6,1.4,24.4,1.5c0.2,0,0.4,0.2,0.5,0.4l6.6,19.5c0.1,0.2,0,0.4-0.1,0.5l-8.1,11.4
				C208.2,56.7,208,56.8,207.8,56.8z M162.5,55.6h45l7.8-10.9l-6.4-18.9c-2.8-0.2-19.3-1.5-23.9-1.5s-21.1,1.3-23.9,1.5l-6.4,18.9
				L162.5,55.6z"></path>
		</g>
	</g>
	<g>
		<g>
			<path d="M163.8,33.1l-4.9,23.7h12.7l2.4-28.1c-2.2,0.1-4.1,0.3-5.6,0.4C166.1,29.3,164.3,30.9,163.8,33.1z" style="fill:#BFC2C4;"></path>
			<path d="M171.6,57.4h-12.7c-0.2,0-0.4-0.1-0.5-0.2s-0.2-0.3-0.1-0.5l4.9-23.7l0,0c0.5-2.5,2.5-4.3,5.1-4.5
				c1.9-0.2,3.8-0.3,5.7-0.4c0.2,0,0.4,0.1,0.5,0.2c0.1,0.1,0.2,0.3,0.2,0.5l-2.4,28.1C172.2,57.2,171.9,57.4,171.6,57.4z
				 M159.6,56.2H171l2.3-26.8c-1.6,0.1-3.3,0.2-4.9,0.4c-2,0.2-3.5,1.6-3.9,3.5L159.6,56.2z"></path>
		</g>
	</g>
	<g>
		<g>
			<path d="M211.1,56.8l-4.9-23.7c-0.5-2.2-2.3-3.8-4.5-4c-1.5-0.1-3.5-0.3-5.6-0.4l2.4,28.1H211.1z" style="fill:#BFC2C4;"></path>
			<path d="M211.1,57.4h-12.7c-0.3,0-0.6-0.2-0.6-0.6l-2.4-28.1c0-0.2,0-0.4,0.2-0.5c0.1-0.1,0.3-0.2,0.5-0.2
				c1.9,0.1,3.8,0.3,5.7,0.4c2.5,0.2,4.5,2,5.1,4.5l4.9,23.7c0,0.2,0,0.4-0.1,0.5S211.3,57.4,211.1,57.4z M199,56.2h11.4l-4.8-22.9
				c-0.4-1.9-2-3.3-3.9-3.5c-1.6-0.1-3.3-0.3-4.9-0.4L199,56.2z"></path>
		</g>
	</g>
	<g>
		<g>
			<path d="M198.4,56.8l-2.4-28.1c-3.4-0.2-7.2-0.4-11.1-0.4s-7.7,0.2-11.1,0.4l-2.4,28.1H185H198.4z" style="fill:#D92020;"></path>
			<path d="M198.4,57.4h-26.8c-0.2,0-0.3-0.1-0.5-0.2c-0.1-0.1-0.2-0.3-0.2-0.5l2.4-28.1c0-0.3,0.3-0.6,0.6-0.6
				c4-0.3,7.8-0.4,11.1-0.4s7,0.1,11.1,0.4c0.3,0,0.6,0.3,0.6,0.6l2.4,28.1c0,0.2,0,0.3-0.2,0.5C198.8,57.3,198.6,57.4,198.4,57.4z
				 M172.3,56.2h25.5l-2.3-26.9c-3.8-0.2-7.3-0.4-10.5-0.4s-6.7,0.1-10.5,0.4L172.3,56.2z"></path>
		</g>
	</g>
	<g>
		<g>
			<path d="M228.5,78.7L215.9,58c0,0-4.5-3.7-13-6.3l-7.7,27H228.5z" style="fill:#E8EBED;"></path>
			<path d="M228.5,79.3h-33.2c-0.2,0-0.4-0.1-0.5-0.2s-0.1-0.3-0.1-0.5l7.7-27c0-0.2,0.1-0.3,0.3-0.4c0.1-0.1,0.3-0.1,0.5,0
				c8.5,2.6,13,6.2,13.2,6.4c0.1,0,0.1,0.1,0.1,0.2L229,78.4c0.1,0.2,0.1,0.4,0,0.6C228.9,79.2,228.7,79.3,228.5,79.3z M196,78.1
				h31.4l-11.9-19.7c-0.6-0.5-4.8-3.6-12.1-5.9L196,78.1z"></path>
		</g>
	</g>
	<g>
		<g>
			<path d="M154.1,58l-12.5,20.7h33.2l-7.7-27C158.5,54.3,154.1,58,154.1,58z" style="fill:#E8EBED;"></path>
			<path d="M174.8,79.3h-33.2c-0.2,0-0.4-0.1-0.5-0.3c-0.1-0.2-0.1-0.4,0-0.6l12.5-20.7c0-0.1,0.1-0.1,0.1-0.2
				c0.2-0.2,4.7-3.8,13.2-6.4c0.2,0,0.3,0,0.5,0c0.1,0.1,0.2,0.2,0.3,0.4l7.7,27c0.1,0.2,0,0.4-0.1,0.5S175,79.3,174.8,79.3z
				 M142.6,78.1H174l-7.4-25.7c-7.3,2.3-11.5,5.5-12.1,5.9L142.6,78.1z"></path>
		</g>
	</g>
	<g>
		<g>
			<path d="M195.2,78.7l7.7-27c-4.8-1.4-10.8-2.5-18-2.4c-7.2-0.1-13.2,1-18,2.4l7.7,27H185H195.2z" style="fill:#D92020;"></path>
			<path d="M195.2,79.3h-20.5c-0.3,0-0.5-0.2-0.6-0.5l-7.7-27c-0.1-0.3,0.1-0.7,0.4-0.8c5.7-1.7,11.8-2.5,18.2-2.4
				c6.4-0.1,12.5,0.7,18.1,2.4c0.3,0.1,0.5,0.4,0.4,0.8l-7.7,27C195.8,79.2,195.5,79.3,195.2,79.3z M175.2,78.1h19.5l7.4-26
				c-5.4-1.6-11.2-2.3-17.2-2.2c-6-0.1-11.8,0.7-17.2,2.2L175.2,78.1z"></path>
		</g>
	</g>
	<g>
		<g>
			<polygon points="126,125.5 130.3,143.3 155,175.2 185,184.5 213.2,176.1 238.8,145.1 244,125.5" style="fill:#414F7A;"></polygon>
			<path d="M185,185.1c-0.1,0-0.1,0-0.2,0l-30-9.3c-0.1,0-0.2-0.1-0.3-0.2l-24.6-31.8c-0.1-0.1-0.1-0.1-0.1-0.2l-4.3-17.8
				c0-0.2,0-0.4,0.1-0.5s0.3-0.2,0.5-0.2h118c0.2,0,0.4,0.1,0.5,0.2s0.2,0.3,0.1,0.5l-5.2,19.6c0,0.1-0.1,0.2-0.1,0.2l-25.5,30.9
				c-0.1,0.1-0.2,0.2-0.3,0.2l-28.2,8.4C185.1,185.1,185.1,185.1,185,185.1z M155.3,174.6l29.7,9.2l27.9-8.3l25.3-30.7l5-18.7H126.7
				l4.1,16.9L155.3,174.6z"></path>
		</g>
	</g>
	<g>
		<g>
			<path d="M241.2,126.8c0,0-2.4,13.8-4.2,17.1s-21,26.4-23.7,29.4c-2.7,3-28.2,8.1-28.2,8.1
				s-25.5-5.1-28.2-8.1c-2.7-3-21.9-26.1-23.7-29.4s-4.2-17.1-4.2-17.1l-6-2.7c0,0,4.2,19.8,5.4,21.9c1.2,2.1,24.9,32.7,32.6,36
				c0,0,19.7,4.8,24.2,4.8s24.2-4.8,24.2-4.8c7.7-3.3,31.4-33.9,32.6-36c1.2-2.1,5.4-21.9,5.4-21.9L241.2,126.8z" style="fill:#BFC2C4;"></path>
			<path d="M185,187.5c-4.5,0-23.6-4.7-24.4-4.9c0,0-0.1,0-0.1,0c-8-3.5-31.6-34-32.9-36.3c-1.2-2.1-5-20.1-5.5-22.1
				c0-0.2,0-0.5,0.2-0.6c0.2-0.1,0.4-0.2,0.6-0.1l6,2.7c0.2,0.1,0.3,0.3,0.4,0.5c0,0.1,2.4,13.8,4.1,16.9
				c1.7,3.1,20.8,26.1,23.7,29.3c1.9,2.1,17.6,5.9,27.8,7.9c10.2-2,25.9-5.8,27.8-7.9c2.9-3.2,21.9-26.2,23.7-29.3
				c1.7-3.2,4.1-16.8,4.1-16.9c0-0.2,0.2-0.4,0.4-0.5l6-2.7c0.2-0.1,0.5-0.1,0.6,0.1c0.2,0.1,0.3,0.4,0.2,0.6
				c-0.4,2-4.3,20-5.5,22.1c-1.3,2.3-24.9,32.8-32.9,36.3c0,0-0.1,0-0.1,0C208.6,182.9,189.5,187.5,185,187.5z M161,181.5
				c1.1,0.3,19.7,4.8,24,4.8s22.9-4.5,24-4.8c3.1-1.4,9.7-7.9,18.4-18.3c7.1-8.4,13.2-16.4,13.8-17.5c0.8-1.4,3.4-12.6,5.1-20.5
				l-4.6,2.1c-0.4,2.2-2.5,13.9-4.2,17c-1.9,3.5-21.5,27-23.8,29.6c-2.8,3.1-25.9,7.8-28.6,8.3c-0.1,0-0.2,0-0.2,0
				c-2.6-0.5-25.8-5.2-28.6-8.3c-2.3-2.6-21.9-26.1-23.8-29.6c-1.7-3.1-3.8-14.8-4.2-17l-4.6-2.1c1.7,7.9,4.3,19.1,5.1,20.5
				c0.6,1,6.7,9.1,13.8,17.5C151.3,173.6,157.9,180.1,161,181.5z"></path>
		</g>
	</g>
	<g>
		<g>
			<path d="M252,114.5l-13.2-30.3c0,0-3-3.9-7.2-4.8c-1.7-0.4-8.1-1.6-15.7-2.9l-14.3,7.1
				c-0.8,0.4-1.7,0.6-2.6,0.6H185h-13.9c-0.9,0-1.8-0.2-2.6-0.6l-14.3-7.1c-7.6,1.3-14,2.5-15.7,2.9c-4.2,0.9-7.2,4.8-7.2,4.8
				L118,114.5c0,0-3.6,5.1,4.2,11.4c7.8,6.3,42.4,34.6,42.4,34.6l20.4,1.5l20.4-1.5c0,0,34.6-28.2,42.4-34.6
				C255.6,119.6,252,114.5,252,114.5z" style="fill:#E8EBED;"></path>
			<path d="M185,162.5C185,162.5,185,162.5,185,162.5l-20.5-1.5c-0.1,0-0.2-0.1-0.3-0.1c-0.3-0.3-34.6-28.3-42.4-34.5
				c-7.7-6.2-4.8-11.5-4.4-12.2l13.2-30.3c0,0,0-0.1,0.1-0.1c0.1-0.2,3.2-4.1,7.6-5c1.7-0.4,8.2-1.6,15.7-2.9c0.1,0,0.3,0,0.4,0.1
				l14.3,7.1c0.7,0.4,1.5,0.5,2.3,0.5h27.9c0.8,0,1.6-0.2,2.3-0.5l14.3-7.1c0.1-0.1,0.2-0.1,0.4-0.1c7.5,1.3,14,2.5,15.7,2.9
				c4.4,0.9,7.4,4.9,7.6,5c0,0,0.1,0.1,0.1,0.1l13.2,30.3c0.4,0.6,3.3,6-4.4,12.2c-7.7,6.2-42,34.3-42.4,34.5
				c-0.1,0.1-0.2,0.1-0.3,0.1L185,162.5C185,162.5,185,162.5,185,162.5z M164.8,159.9l20.2,1.5l20.2-1.5c2.5-2,34.8-28.4,42.2-34.4
				c7.2-5.8,4.2-10.4,4.1-10.6c0,0,0-0.1-0.1-0.1l-13.2-30.3c-0.4-0.5-3.1-3.7-6.8-4.5c-1.7-0.4-8-1.5-15.5-2.8l-14.1,7
				c-0.9,0.4-1.9,0.7-2.9,0.7h-27.9c-1,0-2-0.2-2.9-0.7l-14.1-7c-7.4,1.3-13.8,2.4-15.5,2.8c-3.7,0.8-6.4,4.1-6.8,4.5l-13.2,30.3
				c0,0,0,0.1-0.1,0.1c-0.1,0.2-3.1,4.8,4.1,10.6C130,131.5,162.3,157.8,164.8,159.9z M205.4,160.4L205.4,160.4L205.4,160.4z"></path>
		</g>
	</g>
	<g>
		<g>
			<path d="M171.1,84.1H185h13.9c0.9,0,1.8-0.2,2.6-0.6l14.3-7.1c-6.8-1.2-14.6-5.4-20.9-6.2
				c-4.2-0.5-7.7-0.9-9.9-0.9c-2.5,0-6.7,0.4-11.5,1.1c-6,0.8-13.1,4.9-19.4,6l14.3,7.1C169.3,83.9,170.1,84.1,171.1,84.1z" style="fill:#649FBD;"></path>
			<path d="M198.9,84.7h-27.9c-1,0-2-0.2-2.9-0.7L153.9,77c-0.2-0.1-0.4-0.4-0.3-0.6c0-0.3,0.2-0.5,0.5-0.5c3-0.5,6.2-1.7,9.3-2.9
				c3.4-1.3,6.9-2.6,10-3.1c5.4-0.7,9.3-1.1,11.6-1.1c2.1,0,5.4,0.3,10,0.9c3.3,0.4,7.1,1.8,10.8,3.1c3.4,1.2,6.9,2.5,10.2,3.1
				c0.3,0,0.5,0.2,0.5,0.5c0,0.3-0.1,0.5-0.3,0.6l-14.3,7.1C200.9,84.5,199.9,84.7,198.9,84.7z M156,76.7l12.7,6.3
				c0.7,0.4,1.5,0.5,2.3,0.5h27.9c0.8,0,1.6-0.2,2.3-0.5l12.7-6.3c-2.8-0.7-5.8-1.7-8.7-2.8c-3.8-1.4-7.3-2.7-10.5-3.1
				c-4.5-0.6-7.8-0.9-9.9-0.9c-2.2,0-6.1,0.4-11.4,1.1c-3,0.4-6.5,1.7-9.8,3C161.2,75,158.5,76.1,156,76.7z"></path>
		</g>
	</g>
	<g>
		<g>
			<path d="M128,91.6l36.9,17.8c2.2,10.3-3,11.1-3,11.1L124,101c0,0-3.6-1.5-1.8-6.3
				C124,89.8,128,91.6,128,91.6z" style="fill:#D92020;"></path>
			<path d="M161.8,121.1c-0.1,0-0.2,0-0.3-0.1l-37.8-19.5c-0.4-0.2-4-2.1-2.1-7.1c0.6-1.7,1.6-2.9,2.9-3.4c1.8-0.8,3.6,0,3.7,0
				c0,0,0,0,0,0l36.9,17.8c0.2,0.1,0.3,0.2,0.3,0.4c1,4.4,0.7,7.7-0.8,9.9C163.5,120.8,162,121.1,161.8,121.1
				C161.9,121.1,161.9,121.1,161.8,121.1z M126.3,91.9c-0.4,0-0.8,0.1-1.3,0.2c-1,0.4-1.7,1.3-2.2,2.7c-1.6,4.2,1.3,5.5,1.5,5.5
				c0,0,0,0,0,0l37.6,19.4c0.3-0.1,1.1-0.5,1.8-1.5c0.8-1.2,1.6-3.7,0.6-8.6l-36.6-17.6C127.6,92.2,127,91.9,126.3,91.9z"></path>
		</g>
	</g>
	<g>
		<g>
			<path d="M242,91.6l-36.9,17.8c-2.2,10.3,3,11.1,3,11.1L246,101c0,0,3.6-1.5,1.8-6.3
				C246,89.8,242,91.6,242,91.6z" style="fill:#D92020;"></path>
			<path d="M208.2,121.1C208.1,121.1,208.1,121.1,208.2,121.1c-0.2,0-1.7-0.3-2.9-2c-1.5-2.1-1.7-5.5-0.8-9.9c0-0.2,0.2-0.3,0.3-0.4
				L241.8,91c0,0,0,0,0,0c0.1,0,1.8-0.8,3.7,0c1.3,0.5,2.3,1.7,2.9,3.4c1.9,5-1.7,6.9-2.1,7.1L208.5,121
				C208.4,121.1,208.3,121.1,208.2,121.1z M205.7,109.8c-1,4.9-0.2,7.4,0.6,8.6c0.7,1,1.5,1.3,1.8,1.4l37.6-19.4c0,0,0,0,0,0
				c0.1-0.1,3-1.4,1.5-5.5c-0.5-1.4-1.3-2.3-2.2-2.7c-1.3-0.5-2.6,0-2.7,0L205.7,109.8z"></path>
		</g>
	</g>
	<g>
		<g>
			<path d="M205.3,162.5c-0.2-8.4-1.4-17.6-3.8-27.6c0,0-3.9-8.1-16.5-8.1h0c-12.6,0-16.5,8.1-16.5,8.1
				c-2.5,9.9-3.6,19.1-3.8,27.6c5.4-2.4,12.2-4.1,20.3-4.1S199.9,160.1,205.3,162.5z" style="fill:#636363;"></path>
			<path d="M205.3,163.1c-0.1,0-0.2,0-0.2-0.1c-6.2-2.7-13-4.1-20.1-4.1s-13.9,1.4-20.1,4.1c-0.2,0.1-0.4,0.1-0.6-0.1
				c-0.2-0.1-0.3-0.3-0.3-0.5c0.3-9.1,1.5-18.5,3.8-27.7c0,0,0-0.1,0-0.1c0.2-0.3,4.2-8.5,17.1-8.5c12.9,0,16.9,8.1,17.1,8.5
				c0,0,0,0.1,0,0.1c2.3,9.2,3.6,18.5,3.8,27.7c0,0.2-0.1,0.4-0.3,0.5C205.6,163,205.5,163.1,205.3,163.1z M185,157.7
				c7,0,13.6,1.3,19.7,3.8c-0.3-8.7-1.6-17.6-3.8-26.4c-0.2-0.3-1.2-2.1-3.4-3.8c-2.3-1.8-6.3-3.9-12.6-3.9c-11.6,0-15.6,7.1-16,7.7
				c-2.2,8.8-3.4,17.7-3.8,26.4C171.4,159,178,157.7,185,157.7z"></path>
		</g>
	</g>
	<g>
		<g>
			<path d="M164.6,166.1c5.4-2.4,12.2-4.1,20.4-4.1s15,1.8,20.4,4.1c0-1.2,0-2.4,0-3.6
				c-5.4-2.4-12.2-4.1-20.3-4.1s-14.9,1.8-20.3,4.1C164.6,163.7,164.6,164.9,164.6,166.1z" style="fill:#2E2C42;"></path>
			<path d="M205.4,166.7c-0.1,0-0.2,0-0.2-0.1c-6.2-2.7-13-4.1-20.1-4.1c-7.2,0-13.9,1.4-20.1,4.1c-0.2,0.1-0.4,0.1-0.6,0
				c-0.2-0.1-0.3-0.3-0.3-0.5c0-1.2,0-2.4,0-3.6c0-0.2,0.1-0.4,0.4-0.5c6.4-2.8,13.3-4.2,20.6-4.2s14.2,1.4,20.6,4.2
				c0.2,0.1,0.4,0.3,0.4,0.5c0,1.2,0,2.4,0,3.6c0,0.2-0.1,0.4-0.3,0.5C205.6,166.7,205.5,166.7,205.4,166.7z M185,161.3
				c7,0,13.7,1.3,19.8,3.8c0-0.8,0-1.5,0-2.3c-6.1-2.6-12.8-3.9-19.8-3.9s-13.6,1.3-19.8,3.9c0,0.8,0,1.5,0,2.3
				C171.3,162.6,178,161.3,185,161.3z"></path>
		</g>
	</g>
	<g>
		<g>
			<path d="M164.6,166.1c0.1,25,7.8,42.1,10.7,47.5c2.5-1.2,5.8-2.1,9.7-2.1s7.2,0.9,9.7,2.1
				c2.8-5.4,10.6-22.5,10.7-47.5c-5.4-2.4-12.2-4.1-20.4-4.1S170,163.7,164.6,166.1z" style="fill:#919191;"></path>
			<path d="M194.7,214.2c-0.1,0-0.2,0-0.3-0.1c-2.9-1.3-6.1-2-9.5-2s-6.6,0.7-9.5,2c-0.3,0.1-0.6,0-0.8-0.3
				c-3.2-6.1-10.7-23.1-10.7-47.8c0-0.2,0.1-0.5,0.4-0.6c6.4-2.8,13.3-4.2,20.6-4.2c7.3,0,14.3,1.4,20.6,4.2
				c0.2,0.1,0.4,0.3,0.4,0.6c-0.1,24.7-7.5,41.6-10.7,47.8C195.1,214.1,194.9,214.2,194.7,214.2z M185,210.9c3.3,0,6.5,0.6,9.4,1.9
				c3.3-6.4,10.2-22.7,10.3-46.3c-6.1-2.6-12.8-3.9-19.8-3.9c-7,0-13.7,1.3-19.8,3.9c0.1,23.6,7.1,39.9,10.3,46.3
				C178.5,211.6,181.7,210.9,185,210.9z"></path>
		</g>
	</g>
	<g>
		<g>
			<path d="M185,211.5c3,0,6.6,0.6,6.6,0.6c2.9-6.5,5.1-12.7,6.7-18.7c-2.7-2-7.1-4.2-13.3-4.2
				c-6.1,0-10.6,2.2-13.3,4.2c1.6,6,3.7,12.2,6.7,18.7C178.4,212.1,182,211.5,185,211.5z" style="fill:#2E2C42;"></path>
			<path d="M191.6,212.7C191.6,212.7,191.5,212.7,191.6,212.7c-0.1,0-3.7-0.6-6.6-0.6s-6.5,0.6-6.5,0.6c-0.3,0-0.5-0.1-0.6-0.3
				c-2.8-6.1-5-12.4-6.7-18.8c-0.1-0.2,0-0.5,0.2-0.6c2.7-1.9,7.3-4.3,13.6-4.3s10.9,2.3,13.6,4.3c0.2,0.1,0.3,0.4,0.2,0.6
				c-1.7,6.3-3.9,12.6-6.7,18.8C192.1,212.6,191.8,212.7,191.6,212.7z M185,210.9c2.4,0,5.2,0.4,6.2,0.5c2.6-5.8,4.7-11.8,6.3-17.8
				c-2.6-1.8-6.8-3.8-12.6-3.8s-10,2-12.6,3.8c1.6,6,3.7,12,6.3,17.8C179.8,211.3,182.6,210.9,185,210.9z"></path>
		</g>
	</g>
	<g>
		<g>
			<path d="M209.2,126C203.1,89,185,84.1,185,84.1S166.9,89,160.8,126c3.6-3.4,11.7-9.1,24.2-9.1
				S205.6,122.6,209.2,126z" style="fill:#2E2C42;"></path>
			<path d="M209.2,126.6c-0.1,0-0.3-0.1-0.4-0.2c-3.6-3.3-11.5-8.9-23.8-8.9s-20.2,5.6-23.8,8.9c-0.2,0.2-0.5,0.2-0.7,0.1
				c-0.2-0.1-0.3-0.4-0.3-0.6c1.8-10.6,5.7-25.3,14.5-35.1c5.3-5.9,9.9-7.2,10.1-7.2c0.1,0,0.2,0,0.3,0c0.2,0.1,4.8,1.3,10.1,7.2
				c8.8,9.8,12.8,24.5,14.5,35.1c0,0.3-0.1,0.5-0.3,0.6C209.4,126.5,209.3,126.6,209.2,126.6z M185,116.3c11.4,0,19.2,4.7,23.3,8.1
				c-1.9-10.3-5.7-23.7-13.9-32.7c-4.6-5.1-8.6-6.6-9.4-6.9c-0.8,0.3-4.9,1.8-9.4,6.9c-8.1,9-12,22.5-13.9,32.7
				C165.8,120.9,173.6,116.3,185,116.3z"></path>
		</g>
	</g>
	<g>
		<g>
			<path d="M185,211.5c-11.1,0-16.6,7.2-16.6,7.2c3.6,9.7,8.9,20,16.6,27.7c7.7-7.7,13-18,16.6-27.7
				C201.6,218.7,196.1,211.5,185,211.5z" style="fill:#BFC2C4;"></path>
			<path d="M185,247c-0.2,0-0.3-0.1-0.4-0.2c-6.7-6.7-12.3-16.1-16.7-27.9c-0.1-0.2,0-0.4,0.1-0.6c0.2-0.3,5.8-7.4,17.1-7.4
				s16.9,7.1,17.1,7.4c0.1,0.2,0.2,0.4,0.1,0.6c-4.4,11.8-10.1,21.2-16.7,27.9C185.3,246.9,185.2,247,185,247z M169.1,218.8
				c4.2,11.2,9.6,20.2,15.9,26.7c6.3-6.5,11.6-15.4,15.9-26.7c-1.1-1.3-6.4-6.7-15.9-6.7C175.5,212.1,170.2,217.6,169.1,218.8z"></path>
		</g>
	</g>
	<g>
		<g>
			<path d="M209.2,126c-3.6-3.4-11.7-9.1-24.2-9.1s-20.6,5.7-24.2,9.1c-2.5,15-3,35.8,0.5,64.5
				c0,0,1.6,13.4,7.1,28.2c0,0,2.3-3,6.9-5.1c-3.9-7.4-17.1-37.1-6.8-78.7c0,0,3.9-8.1,16.5-8.1h0c12.6,0,16.5,8.1,16.5,8.1
				c10.3,41.6-2.9,71.3-6.8,78.7c4.6,2.1,6.9,5.1,6.9,5.1c5.6-14.8,7.1-28.2,7.1-28.2C212.2,161.7,211.7,141,209.2,126z" style="fill:#E8EBED;"></path>
			<path d="M201.6,219.3c-0.2,0-0.4-0.1-0.5-0.2c0,0-2.3-2.9-6.6-4.9c-0.1-0.1-0.3-0.2-0.3-0.4c-0.1-0.2,0-0.3,0-0.5
				c4.2-8,17-37.1,6.8-78.2c-0.4-0.7-4.3-7.7-16-7.7c-11.7,0-15.6,7-16,7.7c-10.2,41.1,2.6,70.2,6.8,78.2c0.1,0.1,0.1,0.3,0,0.5
				c-0.1,0.2-0.2,0.3-0.3,0.4c-4.4,2-6.6,4.9-6.6,4.9c-0.1,0.2-0.3,0.3-0.6,0.2c-0.2,0-0.4-0.2-0.5-0.4c-5.5-14.7-7.2-28.2-7.2-28.4
				c-3.1-25.9-3.3-47.7-0.5-64.7c0-0.1,0.1-0.3,0.2-0.3c3.7-3.5,11.9-9.3,24.6-9.3s20.9,5.8,24.6,9.3c0.1,0.1,0.2,0.2,0.2,0.3
				c2.8,17,2.6,38.8-0.5,64.7c0,0.1-1.7,13.6-7.2,28.4C202.1,219.1,201.9,219.3,201.6,219.3C201.6,219.3,201.6,219.3,201.6,219.3z
				 M195.5,213.3c2.9,1.5,4.9,3.2,5.8,4.2c5.2-14.2,6.8-27,6.8-27.1c3.1-25.7,3.3-47.3,0.5-64.2c-3.7-3.4-11.5-8.8-23.7-8.8
				s-20,5.4-23.7,8.8c-2.8,16.9-2.6,38.4,0.5,64.2c0,0.1,1.6,12.9,6.8,27.1c1-1,2.9-2.8,5.8-4.2c-4.5-8.8-16.7-37.9-6.6-78.6
				c0,0,0-0.1,0-0.1c0.2-0.3,4.2-8.5,17.1-8.5c12.9,0,16.9,8.1,17.1,8.5c0,0,0,0.1,0,0.1C212.2,175.4,200,204.5,195.5,213.3z"></path>
		</g>
	</g>
	<g>
		<g>
			<path d="M127,115.4c0,0-1.7,0.3-2.6,2.6l28.1,18.9c0,0,2-3.6,1.7-4.6L127,115.4z" style="fill:#649FBD;"></path>
			<path d="M152.4,137.5c-0.1,0-0.2,0-0.3-0.1L124,118.5c-0.2-0.2-0.3-0.5-0.2-0.7c1.1-2.6,3-3,3.1-3c0.1,0,0.3,0,0.4,0.1l27.1,16.9
				c0.1,0.1,0.2,0.2,0.3,0.3c0.4,1.1-1.1,3.9-1.7,5.1c-0.1,0.1-0.2,0.3-0.4,0.3C152.5,137.5,152.5,137.5,152.4,137.5z M125.1,117.8
				l27.1,18.2c0.7-1.4,1.3-2.8,1.3-3.4L126.9,116C126.5,116.2,125.7,116.6,125.1,117.8z"></path>
		</g>
	</g>
	<g>
		<g>
			<polygon points="125.7,118.9 125,122 148.7,138.5 151,135.9" style="fill:#2E2C42;"></polygon>
			<path d="M148.7,139.1c-0.1,0-0.2,0-0.3-0.1l-23.8-16.5c-0.2-0.1-0.3-0.4-0.2-0.6l0.7-3c0-0.2,0.2-0.3,0.4-0.4
				c0.2-0.1,0.4,0,0.6,0.1l25.3,17c0.1,0.1,0.2,0.3,0.3,0.4c0,0.2,0,0.3-0.1,0.5l-2.3,2.6C149.1,139,148.9,139.1,148.7,139.1z
				 M125.6,121.7l23,16l1.5-1.7l-24-16.1L125.6,121.7z"></path>
		</g>
	</g>
	<g>
		<g>
			<path d="M243,115.4c0,0,1.7,0.3,2.6,2.6l-28.1,18.9c0,0-2-3.6-1.7-4.6L243,115.4z" style="fill:#649FBD;"></path>
			<path d="M217.6,137.5c0,0-0.1,0-0.1,0c-0.2,0-0.3-0.1-0.4-0.3c-0.6-1.2-2.1-4-1.7-5.1c0-0.1,0.1-0.2,0.3-0.3l27.1-16.9
				c0.1-0.1,0.3-0.1,0.4-0.1c0.1,0,2,0.4,3.1,3c0.1,0.3,0,0.6-0.2,0.7l-28.1,18.9C217.8,137.4,217.7,137.5,217.6,137.5z
				 M216.5,132.6c0,0.6,0.6,2,1.3,3.4l27.1-18.2c-0.6-1.2-1.4-1.6-1.8-1.8L216.5,132.6z"></path>
		</g>
	</g>
	<g>
		<g>
			<polygon points="244.3,118.9 245,122 221.3,138.5 219,135.9" style="fill:#2E2C42;"></polygon>
			<path d="M221.3,139.1c-0.2,0-0.3-0.1-0.4-0.2l-2.3-2.6c-0.1-0.1-0.2-0.3-0.1-0.5c0-0.2,0.1-0.3,0.3-0.4l25.3-17
				c0.2-0.1,0.4-0.1,0.6-0.1c0.2,0.1,0.3,0.2,0.4,0.4l0.7,3c0.1,0.2,0,0.5-0.2,0.6L221.6,139C221.5,139.1,221.4,139.1,221.3,139.1z
				 M219.9,136l1.5,1.7l23-16l-0.4-1.8L219.9,136z"></path>
		</g>
	</g>
	<g>
		<g>
			<path d="M202,160.3c-0.5-11.3-2.6-19.2-3.4-22.1c-1.8-6.3-13.5-7.5-13.5-7.5s-11.7,1.2-13.5,7.5
				c-0.8,2.9-3,10.8-3.4,22.1c4.7-2.1,10.3-3.7,17-3.7S197.3,158.2,202,160.3z" style="fill:#649FBD;"></path>
			<path d="M202,160.9c-0.1,0-0.2,0-0.3-0.1c-5.2-2.4-10.8-3.6-16.7-3.6s-11.5,1.2-16.7,3.6c-0.2,0.1-0.4,0.1-0.6,0
				c-0.2-0.1-0.3-0.3-0.3-0.5c0.3-7.9,1.5-15.4,3.5-22.2c0.8-2.8,3.4-5,7.8-6.5c3.2-1.1,6.1-1.4,6.2-1.4c0,0,0.1,0,0.1,0
				c0.1,0,3,0.3,6.2,1.4c4.4,1.5,7,3.7,7.8,6.5c2,6.9,3.1,14.4,3.5,22.2c0,0.2-0.1,0.4-0.3,0.5C202.2,160.9,202.1,160.9,202,160.9z
				 M185,131.3c-0.9,0.1-11.3,1.5-12.9,7.1c-1.9,6.5-3,13.6-3.4,21c5.1-2.2,10.6-3.3,16.3-3.3s11.2,1.1,16.3,3.3
				c-0.4-7.4-1.5-14.5-3.4-21C196.3,132.8,185.9,131.4,185,131.3z"></path>
		</g>
	</g>
	<g>
		<g>
			<path d="M185,160.5c6.7,0,12.3,1.5,17.1,3.7c0-1.3,0-2.6-0.1-3.9c-4.7-2.1-10.3-3.7-17-3.7
				s-12.3,1.5-17,3.7c-0.1,1.3-0.1,2.6-0.1,3.9C172.7,162,178.3,160.5,185,160.5z" style="fill:#2E2C42;"></path>
			<path d="M202.1,164.8c-0.1,0-0.2,0-0.3-0.1c-5.2-2.4-10.9-3.6-16.8-3.6s-11.6,1.2-16.8,3.6c-0.2,0.1-0.4,0.1-0.6,0
				c-0.2-0.1-0.3-0.3-0.3-0.5c0-1.3,0-2.6,0.1-3.9c0-0.2,0.1-0.4,0.3-0.5c5.4-2.5,11.2-3.7,17.2-3.7s11.8,1.3,17.2,3.7
				c0.2,0.1,0.3,0.3,0.3,0.5c0.1,1.3,0.1,2.6,0.1,3.9c0,0.2-0.1,0.4-0.3,0.5C202.3,164.8,202.2,164.8,202.1,164.8z M185,159.9
				c5.8,0,11.3,1.1,16.4,3.4c0-0.9,0-1.7-0.1-2.6c-5.1-2.3-10.6-3.5-16.4-3.5s-11.2,1.2-16.4,3.5c0,0.9-0.1,1.7-0.1,2.6
				C173.7,161,179.2,159.9,185,159.9z"></path>
		</g>
	</g>
	<g>
		<g>
			<path d="M167.9,164.2c0,8.4,0.9,18.3,3.8,29.2c2.7-2,7.1-4.2,13.3-4.2c6.1,0,10.6,2.2,13.3,4.2
				c2.9-10.9,3.8-20.9,3.8-29.2c-4.7-2.2-10.4-3.7-17.1-3.7S172.7,162,167.9,164.2z" style="fill:#649FBD;"></path>
			<path d="M198.3,194c-0.1,0-0.2,0-0.4-0.1c-2.6-1.8-6.9-4-12.9-4s-10.4,2.2-12.9,4c-0.2,0.1-0.4,0.1-0.6,0.1
				c-0.2-0.1-0.3-0.2-0.4-0.4c-2.6-9.7-3.8-19.6-3.8-29.4c0-0.2,0.1-0.4,0.3-0.5c5.4-2.5,11.2-3.8,17.3-3.8s11.9,1.3,17.3,3.8
				c0.2,0.1,0.3,0.3,0.3,0.5c0.1,9.8-1.2,19.7-3.8,29.4c-0.1,0.2-0.2,0.3-0.4,0.4C198.4,194,198.3,194,198.3,194z M185,188.7
				c5.8,0,10.2,1.9,12.9,3.8c2.4-9.2,3.6-18.6,3.5-27.9c-5.1-2.3-10.7-3.5-16.5-3.5s-11.3,1.2-16.5,3.5c0,9.3,1.2,18.7,3.5,27.9
				C174.8,190.6,179.2,188.7,185,188.7z"></path>
		</g>
	</g>
	<g>
		<g>
			<path d="M146.3,86.6c0,0,4.1-5.8,6.3-5.5c2.2,0.2-1.9,7-1.9,7S146.7,89.6,146.3,86.6z" style="fill:#2E2C42;"></path>
			<path d="M148.6,89.1c-0.6,0-1.2-0.1-1.7-0.4c-0.7-0.4-1.1-1.1-1.3-1.9c0-0.2,0-0.3,0.1-0.4c0.7-1,4.4-6,6.9-5.8
				c0.5,0.1,0.8,0.3,1,0.7c0.8,1.6-1.7,5.9-2.5,7.2c-0.1,0.1-0.2,0.2-0.3,0.3C150.8,88.7,149.8,89.1,148.6,89.1z M146.9,86.8
				c0.1,0.4,0.3,0.7,0.6,0.9c0.8,0.5,2.1,0.2,2.7,0c1.7-2.9,2.6-5.5,2.3-5.9l0,0c0,0,0,0-0.1,0C151.3,81.6,148.5,84.5,146.9,86.8z"></path>
		</g>
	</g>
	<g>
		<g>
			<path d="M146.8,86.4c-0.8,0-1.5,0.5-1.8,1.2c-0.8,1.7-2.2,4.8-1.9,5.6c0.4,1,1.7,2.1,3.1,1.5
				c1.3-0.7,4.3-5.3,4.3-5.3S150.5,86.3,146.8,86.4z" style="fill:#BFC2C4;"></path>
			<path d="M145.3,95.4c-0.3,0-0.6-0.1-0.9-0.2c-0.8-0.3-1.6-1-2-1.9c-0.1-0.3-0.5-1.1,1.9-6.1c0.4-0.9,1.3-1.5,2.3-1.5h0
				c1.4,0,2.6,0.3,3.3,1.1c1,1,1,2.4,1,2.4c0,0.1,0,0.2-0.1,0.3c-0.5,0.8-3.2,4.8-4.6,5.5C146,95.3,145.7,95.4,145.3,95.4z
				 M143.6,92.9c0.2,0.4,0.7,1,1.2,1.2c0.3,0.1,0.7,0.1,1,0c0.8-0.4,2.8-3.2,4-4.9c0-0.3-0.2-0.9-0.7-1.4c-0.5-0.5-1.3-0.7-2.4-0.7
				l0,0c-0.5,0-1,0.3-1.2,0.8C143.9,91.2,143.6,92.6,143.6,92.9z M143.6,92.9L143.6,92.9L143.6,92.9z"></path>
		</g>
	</g>
	<g>
		<g>
			<path d="M138.5,85.5c0,0,3-4.2,4.6-4c1.6,0.2-1.4,5.1-1.4,5.1S138.8,87.7,138.5,85.5z" style="fill:#2E2C42;"></path>
			<path d="M140.2,87.5c-0.5,0-0.9-0.1-1.3-0.3c-0.4-0.2-0.8-0.7-1-1.5c0-0.2,0-0.3,0.1-0.4c0,0,0.8-1.1,1.7-2.1
				c1.4-1.5,2.5-2.2,3.4-2.1c0.4,0,0.7,0.3,0.9,0.6c0.6,1.2-1.1,4.2-1.8,5.4c-0.1,0.1-0.2,0.2-0.3,0.3
				C141.8,87.2,141,87.5,140.2,87.5z M139.1,85.7c0.1,0.3,0.2,0.4,0.4,0.5c0.5,0.3,1.4,0.1,1.8,0c1-1.7,1.7-3.5,1.7-4
				C142.2,82.1,140.4,83.9,139.1,85.7z"></path>
		</g>
	</g>
	<g>
		<g>
			<path d="M138.8,85.3c-0.6,0-1.1,0.3-1.3,0.8c-0.6,1.2-1.6,3.5-1.4,4.1c0.3,0.7,1.3,1.6,2.2,1.1
				c1-0.5,3.2-3.9,3.2-3.9S141.6,85.3,138.8,85.3z" style="fill:#BFC2C4;"></path>
			<path d="M137.8,92.1c-0.2,0-0.5,0-0.7-0.1c-0.6-0.2-1.2-0.8-1.5-1.5c-0.1-0.3-0.4-0.9,1.4-4.6c0.3-0.7,1.1-1.2,1.8-1.2l0,0
				c1.1,0,2,0.3,2.6,0.8c0.8,0.8,0.8,1.8,0.8,1.9c0,0.1,0,0.2-0.1,0.3c-0.4,0.6-2.3,3.6-3.4,4.1C138.4,92,138.1,92.1,137.8,92.1z
				 M136.7,90c0.1,0.3,0.4,0.6,0.8,0.8c0.2,0.1,0.4,0.1,0.6,0c0.5-0.2,1.8-1.9,2.8-3.5c0-0.2-0.1-0.6-0.4-0.9
				c-0.3-0.3-0.9-0.5-1.6-0.5h0c-0.3,0-0.6,0.2-0.8,0.5C137,88.7,136.7,89.8,136.7,90z M136.7,90.1L136.7,90.1L136.7,90.1z
				 M138.8,85.3L138.8,85.3L138.8,85.3z"></path>
		</g>
	</g>
	<g>
		<g>
			<path d="M153,91.4c0,0,3.2-4.5,4.9-4.3s-1.5,5.4-1.5,5.4S153.4,93.7,153,91.4z" style="fill:#2E2C42;"></path>
			<path d="M154.9,93.5c-0.5,0-1-0.1-1.4-0.3c-0.4-0.2-0.9-0.7-1-1.6c0-0.2,0-0.3,0.1-0.4c0,0,0.8-1.2,1.9-2.3
				c1.5-1.6,2.7-2.4,3.6-2.3c0.4,0,0.7,0.3,0.9,0.6c0.6,1.3-1.1,4.4-1.9,5.7c-0.1,0.1-0.2,0.2-0.3,0.3
				C156.6,93.2,155.8,93.5,154.9,93.5z M153.7,91.6c0.1,0.3,0.3,0.4,0.4,0.5c0.5,0.3,1.5,0.1,2,0c1.1-1.8,1.9-3.8,1.8-4.3
				c0,0,0,0,0,0C157,87.7,155.1,89.7,153.7,91.6z"></path>
		</g>
	</g>
	<g>
		<g>
			<path d="M153.4,91.2c-0.6,0-1.1,0.4-1.4,0.9c-0.6,1.3-1.7,3.8-1.5,4.3c0.3,0.8,1.4,1.7,2.4,1.2
				s3.4-4.1,3.4-4.1S156.4,91.1,153.4,91.2z" style="fill:#BFC2C4;"></path>
			<path d="M152.3,98.4c-0.2,0-0.5,0-0.7-0.1c-0.7-0.2-1.3-0.9-1.6-1.6c-0.1-0.3-0.4-0.9,1.5-4.9c0.4-0.7,1.1-1.2,1.9-1.3
				c1.2,0,2.1,0.3,2.7,0.9c0.8,0.8,0.8,1.9,0.8,2c0,0.1,0,0.2-0.1,0.3c-0.4,0.6-2.5,3.8-3.6,4.4C152.9,98.3,152.6,98.4,152.3,98.4z
				 M151.1,96.3c0.1,0.3,0.5,0.7,0.9,0.8c0.2,0.1,0.4,0.1,0.7,0c0.6-0.3,2.1-2.3,3-3.7c0-0.2-0.1-0.6-0.5-1c-0.4-0.4-1-0.5-1.8-0.5
				c0,0,0,0,0,0c-0.4,0-0.7,0.2-0.8,0.5C151.4,94.9,151.1,96,151.1,96.3z M151.1,96.3L151.1,96.3L151.1,96.3z M153.4,91.2
				L153.4,91.2L153.4,91.2z"></path>
		</g>
	</g>
	<g>
		<g>
			<path d="M223.1,86.6c0,0-4.1-5.8-6.3-5.5c-2.2,0.2,1.9,7,1.9,7S222.7,89.6,223.1,86.6z" style="fill:#2E2C42;"></path>
			<path d="M220.8,89.1c-1.1,0-2.2-0.4-2.2-0.4c-0.1,0-0.2-0.1-0.3-0.3c-0.8-1.3-3.3-5.6-2.5-7.2c0.2-0.4,0.6-0.6,1-0.7
				c2.4-0.3,6.1,4.8,6.9,5.8c0.1,0.1,0.1,0.3,0.1,0.4c-0.1,0.9-0.6,1.5-1.3,1.9C222,89,221.3,89.1,220.8,89.1z M219.1,87.6
				c0.6,0.2,2,0.5,2.7,0c0.3-0.2,0.5-0.5,0.6-0.9c-1.6-2.3-4.4-5.2-5.6-5.1c0,0-0.1,0-0.1,0C216.5,82.1,217.4,84.7,219.1,87.6z"></path>
		</g>
	</g>
	<g>
		<g>
			<path d="M222.6,86.4c0.8,0,1.5,0.5,1.8,1.2c0.8,1.7,2.2,4.8,1.9,5.6c-0.4,1-1.7,2.1-3.1,1.5
				c-1.3-0.7-4.3-5.3-4.3-5.3S218.9,86.3,222.6,86.4z" style="fill:#BFC2C4;"></path>
			<path d="M224.1,95.4c-0.4,0-0.7-0.1-1.1-0.3c-1.4-0.7-4.1-4.7-4.6-5.5c-0.1-0.1-0.1-0.2-0.1-0.3c0-0.1,0-1.4,1-2.4
				c0.8-0.8,1.9-1.1,3.3-1.1h0c1,0,1.9,0.6,2.3,1.5c2.4,5,2.1,5.8,1.9,6.1c-0.4,0.8-1.1,1.6-2,1.9C224.7,95.4,224.4,95.4,224.1,95.4
				z M219.6,89.1c1.1,1.8,3.1,4.5,4,4.9c0.3,0.2,0.6,0.2,1,0c0.6-0.2,1-0.8,1.2-1.2c0-0.3-0.3-1.7-1.9-5.1c-0.2-0.5-0.7-0.8-1.2-0.8
				c-1.1,0-1.9,0.2-2.4,0.7C219.7,88.2,219.6,88.8,219.6,89.1z"></path>
		</g>
	</g>
	<g>
		<g>
			<path d="M230.9,85.5c0,0-3-4.2-4.6-4c-1.6,0.2,1.4,5.1,1.4,5.1S230.6,87.7,230.9,85.5z" style="fill:#2E2C42;"></path>
			<path d="M229.2,87.5c-0.8,0-1.6-0.3-1.7-0.3c-0.1,0-0.2-0.1-0.3-0.3c-0.7-1.2-2.4-4.2-1.8-5.4c0.2-0.3,0.5-0.6,0.9-0.6
				c0.9-0.1,2,0.6,3.4,2.1c1,1,1.7,2.1,1.7,2.1c0.1,0.1,0.1,0.3,0.1,0.4c-0.1,0.9-0.6,1.3-1,1.5C230.1,87.4,229.6,87.5,229.2,87.5z
				 M228.1,86.1c0.5,0.1,1.3,0.3,1.8,0c0.1-0.1,0.3-0.2,0.4-0.5c-1.3-1.8-3.1-3.5-3.8-3.6C226.4,82.6,227.1,84.4,228.1,86.1z"></path>
		</g>
	</g>
	<g>
		<g>
			<path d="M230.6,85.3c0.6,0,1.1,0.3,1.3,0.8c0.6,1.2,1.6,3.5,1.4,4.1c-0.3,0.7-1.3,1.6-2.2,1.1
				c-1-0.5-3.2-3.9-3.2-3.9S227.8,85.3,230.6,85.3z" style="fill:#BFC2C4;"></path>
			<path d="M231.6,92.1c-0.3,0-0.6-0.1-0.9-0.2c-1.1-0.5-3-3.5-3.4-4.1c-0.1-0.1-0.1-0.2-0.1-0.3c0-0.1,0-1.1,0.8-1.9
				c0.6-0.6,1.5-0.9,2.6-0.8c0.8,0,1.5,0.5,1.8,1.2c1.8,3.7,1.5,4.3,1.4,4.6c-0.3,0.7-0.9,1.2-1.5,1.5
				C232.1,92.1,231.9,92.1,231.6,92.1z M228.5,87.3c1,1.5,2.3,3.2,2.8,3.5c0.2,0.1,0.4,0.1,0.6,0c0.4-0.1,0.7-0.5,0.8-0.8
				c0-0.3-0.3-1.3-1.4-3.6c-0.1-0.3-0.4-0.5-0.8-0.5h0c-0.7,0-1.3,0.1-1.6,0.5C228.6,86.7,228.5,87.1,228.5,87.3z M232.7,90.1
				L232.7,90.1L232.7,90.1z"></path>
		</g>
	</g>
	<g>
		<g>
			<path d="M216.3,91.4c0,0-3.2-4.5-4.9-4.3c-1.7,0.2,1.5,5.4,1.5,5.4S216,93.7,216.3,91.4z" style="fill:#2E2C42;"></path>
			<path d="M214.5,93.5c-0.9,0-1.6-0.3-1.8-0.3c-0.1,0-0.2-0.1-0.3-0.3c-0.8-1.3-2.6-4.5-1.9-5.7c0.2-0.4,0.5-0.6,0.9-0.6
				c0.9-0.1,2.1,0.6,3.6,2.3c1,1.1,1.8,2.2,1.9,2.3c0.1,0.1,0.1,0.3,0.1,0.4c-0.2,0.9-0.6,1.4-1,1.6C215.5,93.4,215,93.5,214.5,93.5
				z M213.3,92.1c0.5,0.1,1.4,0.3,2,0c0.1-0.1,0.3-0.2,0.4-0.5c-1.4-1.9-3.3-3.9-4.2-3.8C211.4,88.2,212.2,90.2,213.3,92.1z"></path>
		</g>
	</g>
	<g>
		<g>
			<path d="M216,91.2c0.6,0,1.1,0.4,1.4,0.9c0.6,1.3,1.7,3.8,1.5,4.3c-0.3,0.8-1.4,1.7-2.4,1.2
				c-1-0.5-3.4-4.1-3.4-4.1S213,91.1,216,91.2z" style="fill:#BFC2C4;"></path>
			<path d="M217.1,98.4c-0.3,0-0.6-0.1-0.9-0.2c-1.1-0.6-3.2-3.7-3.6-4.4c-0.1-0.1-0.1-0.2-0.1-0.3c0-0.1,0-1.2,0.8-2
				c0.6-0.6,1.5-0.9,2.7-0.9l0,0c0.8,0,1.6,0.5,1.9,1.3c1.9,4,1.6,4.6,1.5,4.9c-0.3,0.7-0.9,1.3-1.6,1.6
				C217.6,98.4,217.3,98.4,217.1,98.4z M213.7,93.3c0.9,1.4,2.4,3.4,3,3.7c0.2,0.1,0.4,0.1,0.7,0c0.4-0.1,0.7-0.5,0.9-0.8
				c0-0.3-0.3-1.4-1.5-3.9c-0.2-0.3-0.5-0.5-0.8-0.5c0,0,0,0,0,0c-0.8,0-1.4,0.2-1.8,0.5C213.8,92.7,213.7,93.1,213.7,93.3z"></path>
		</g>
	</g>
</g>
</svg>
