<?xml version="1.0" encoding="utf-8"?>
<!-- Generator: Adobe Illustrator 24.1.1, SVG Export Plug-In . SVG Version: 6.00 Build 0)  -->
<svg version="1.1" id="Layer_1" xmlns="http://www.w3.org/2000/svg" xmlns:xlink="http://www.w3.org/1999/xlink" x="0px" y="0px"
	 viewBox="0 0 220 240" style="enable-background:new 0 0 220 240;" xml:space="preserve">
<g>
	<path d="M132.4,201.78c-12.04,12.68-23.67,12.89-27.34,12.59c-1.56-7.85-8.49-21.69-15.91-35.97c0-0.02-0.02-0.03-0.03-0.05
		c-0.56-1.08-1.13-2.17-1.68-3.25c-0.54-1.02-1.06-2.05-1.6-3.06c-7.19-13.76-14-26.73-16.08-33.92
		c-5.99-20.55,9.08-55.87,13.89-66.28c0.85-1.84,1.37-2.9,1.41-2.97c0.43-0.87,0.09-1.91-0.76-2.34c-0.87-0.42-1.91-0.07-2.34,0.78
		c-0.94,1.88-22.96,46.29-15.53,71.78c2.19,7.52,9.07,20.65,16.33,34.55c1.06,2,2.1,4.01,3.14,6.01l2.33,40.92
		c-12.19,4.43-28.28,0-32.57-1.34c-0.49-9.6-3.84-74.37-6.34-103.97c-5.38-63.79,6.65-80.45,6.77-80.61
		c0.24-0.31,0.38-0.69,0.36-1.09L56.26,21.4c13.34,3.94,53.58-1.11,64.23-2.55l-0.31,9.74c-0.02,0.36,0.09,0.73,0.3,1.04
		c11.88,17,12.63,41.98,6.5,56.29c-6.22,14.52-17.42,42.21-17.54,42.48c-0.21,0.52-0.16,1.11,0.16,1.6
		C111.99,133.77,124.44,174.64,132.4,201.78z"/>
	<path style="fill:#3F6079;" d="M113.87,205.19c-0.69,0-1.34-0.41-1.61-1.08c-5.83-14.32-14.74-36-16.01-38.47
		c-0.37,0.01-1.11,0.21-1.63,0.35c-1.39,0.38-3.12,0.85-4.73,0.21c-0.75-0.29-1.27-0.86-1.47-1.6c-0.44-1.64,0.9-3.33,2.76-5.66
		c1.15-1.44,2.85-3.58,3.08-4.74c-0.52-0.06-1.49,0-2.17,0.04c-2.19,0.14-4.91,0.31-6.91-1.26c-2.48-1.95-1.45-4.77-0.78-6.63
		c0.86-2.35,0.76-2.72,0.02-3.17c-4.66-2.84-5.98-9.06-6.03-9.32c-0.19-0.94,0.41-1.86,1.35-2.05c0.94-0.19,1.86,0.41,2.05,1.35l0,0
		c0.01,0.05,1.08,5.01,4.44,7.05c3.35,2.04,2.15,5.35,1.43,7.32c-0.68,1.86-0.74,2.4-0.34,2.72c0.95,0.75,2.86,0.63,4.54,0.52
		c1.96-0.12,3.81-0.24,5,0.94c0.44,0.43,0.94,1.2,0.88,2.46c-0.11,2.22-2.01,4.62-3.86,6.93c-0.43,0.54-0.98,1.23-1.41,1.83
		c0.4-0.08,0.83-0.2,1.22-0.3c1.63-0.44,4.09-1.11,5.42,1.04c1.2,1.94,13.83,32.93,16.35,39.13c0.36,0.89-0.07,1.9-0.95,2.26
		C114.31,205.15,114.09,205.19,113.87,205.19z"/>
	<path style="fill:#334655;" d="M90.58,58.98c-0.55,0-1.1-0.26-1.43-0.75c-0.54-0.79-0.34-1.87,0.45-2.41l15-10.3
		c0.79-0.54,1.87-0.34,2.41,0.45c0.54,0.79,0.34,1.87-0.45,2.41l-15,10.3C91.26,58.88,90.91,58.98,90.58,58.98z"/>
	<path style="fill:#334655;" d="M60.76,91.39c-0.95,0-1.73-0.77-1.74-1.72c-0.01-1.87-0.07-18.39,2-23.69
		c0.1-0.25,0.17-0.46,0.21-0.62c-0.08,0-0.17-0.01-0.24-0.01c-1.19-0.04-3.66-0.13-4.34-2.76c-0.33-1.26,0.1-2.05,0.51-2.49
		c1.07-1.14,2.7-0.83,4.77-0.43c2.07,0.39,4.6,0.88,6.53,0.08c-1.75-0.96-6.09-2.3-10.46-3.16c-0.94-0.18-1.55-1.1-1.37-2.04
		c0.18-0.94,1.1-1.56,2.04-1.37c8.76,1.72,13.41,3.82,13.83,6.24c0.12,0.69,0.06,1.99-1.7,3.03c-1.96,1.16-4.21,1.3-6.24,1.13
		c0.53,1.18,0.12,2.56-0.31,3.66c-1.54,3.96-1.79,17.52-1.76,22.41c0.01,0.96-0.77,1.74-1.72,1.75
		C60.77,91.39,60.76,91.39,60.76,91.39z M69.17,60.27h0.02H69.17z"/>
	<path style="fill:#334655;" d="M124.95,201.73c-0.7,0-1.36-0.42-1.62-1.12c-0.97-2.53-23.73-62.09-24.41-70.18
		c-0.68-8.07,18.2-62.65,20.35-68.85c0.31-0.91,1.3-1.39,2.21-1.07c0.91,0.32,1.38,1.3,1.07,2.21
		c-8.36,24.06-20.64,61.87-20.17,67.42c0.53,6.31,17.64,52.11,24.19,69.23c0.34,0.9-0.11,1.9-1,2.24
		C125.37,201.69,125.16,201.73,124.95,201.73z"/>
	<g>
		<path style="fill:#334655;" d="M136.01,201.77c-1.96-6.7-18.69-63.69-23.06-72.81c1.84-4.53,11.58-28.54,17.21-41.68
			c6.36-14.83,6.2-40.52-6.5-59.16l0.35-11.22c0.02-0.52-0.19-1.01-0.57-1.35c-0.38-0.33-0.89-0.5-1.41-0.42
			c-9.72,1.37-29.5,3.68-45.18,4.19c0,0-0.01,0-0.01,0c-0.01,0-0.01,0-0.02,0c-10.08,0.32-18.46-0.1-21.39-2
			c-0.54-0.35-1.23-0.36-1.79-0.07c-0.56,0.31-0.9,0.92-0.9,1.56l0.24,14.26c-2.17,3.35-12.19,22.46-7.12,82.5
			c2.67,31.78,6.36,104.31,6.39,105.04c0.03,0.69,0.49,1.32,1.15,1.55c0.63,0.23,10.96,3.84,22.39,3.84c5,0,10.21-0.7,14.9-2.66
			c0.68-0.3,1.11-0.97,1.06-1.7l-1.95-34.41c6.17,12.11,11.29,23.08,12.05,28.92c0.09,0.75,0.64,1.34,1.37,1.49
			c0.68,0.12,16.55,3.06,32.41-14.22C136.05,202.98,136.19,202.34,136.01,201.77z M78.57,22.74c2.6-0.09,5.26-0.23,7.94-0.4
			l-0.63,22.71l-4.49,5.59l-1.65-2.46c-0.76-1.14-1.17-2.46-1.17-3.82V22.74z M105.06,214.37c-1.56-7.85-8.49-21.69-15.91-35.97
			c0-0.02-0.02-0.03-0.03-0.05c-0.56-1.08-1.13-2.17-1.68-3.25c-0.54-1.02-1.06-2.05-1.6-3.06c-7.19-13.76-14-26.73-16.08-33.92
			c-5.99-20.55,9.08-55.87,13.89-66.28c0.85-1.84,1.37-2.9,1.41-2.97c0.43-0.87,0.09-1.91-0.76-2.34c-0.87-0.42-1.91-0.07-2.34,0.78
			c-0.94,1.88-22.96,46.29-15.53,71.78c2.19,7.52,9.07,20.65,16.33,34.55c1.06,2,2.1,4.01,3.14,6.01l2.33,40.92
			c-12.19,4.43-28.28,0-32.57-1.34c-0.49-9.6-3.84-74.37-6.34-103.97c-5.38-63.79,6.65-80.45,6.77-80.61
			c0.24-0.31,0.38-0.69,0.36-1.09L56.26,21.4c4.2,1.24,11.07,1.59,18.84,1.44v21.52c0,2.05,0.61,4.04,1.76,5.75l2.97,4.42
			c0.31,0.46,0.82,0.74,1.37,0.77c0.02,0,0.05,0,0.07,0c0.53,0,1.02-0.24,1.36-0.65l6.33-7.89c0.24-0.3,0.37-0.66,0.38-1.04
			l0.66-23.51c0-0.04-0.02-0.08-0.02-0.12c12.85-0.96,25.27-2.54,30.52-3.25l-0.31,9.74c-0.02,0.36,0.09,0.73,0.3,1.04
			c11.88,17,12.63,41.98,6.5,56.29c-6.22,14.52-17.42,42.21-17.54,42.48c-0.21,0.52-0.16,1.11,0.16,1.6
			c2.41,3.77,14.87,44.64,22.82,71.78C120.36,214.46,108.73,214.67,105.06,214.37z"/>
		<g>
			<path style="fill:#454D71;" d="M60.89,22.3v9.9l-0.75-0.12c-0.16-1.88-0.07-5.97,0.14-9.86L60.89,22.3z"/>
			<path d="M62.87,19.07l-3.96-0.56c-0.47-0.07-0.96,0.07-1.34,0.36c-0.36,0.31-0.61,0.76-0.64,1.23
				c-0.23,3.56-0.69,12.05,0.12,14.12c0.23,0.57,0.73,0.97,1.34,1.08l3.96,0.64c0.1,0.02,0.19,0.02,0.28,0.02
				c0.42,0,0.82-0.14,1.13-0.42c0.38-0.33,0.61-0.8,0.61-1.32V20.79C64.37,19.92,63.74,19.19,62.87,19.07z M60.89,32.2l-0.75-0.12
				c-0.16-1.88-0.07-5.97,0.14-9.86l0.61,0.09V32.2z"/>
		</g>
		<g>
			<polygon style="fill:#454D71;" points="113.19,20.02 113.19,29.73 112.58,29.86 112.58,20.02 			"/>
			<path d="M114.93,16.55h-4.08c-0.96,0-1.74,0.78-1.74,1.74v13.67c0,0.52,0.23,1.02,0.64,1.35c0.31,0.24,0.69,0.38,1.09,0.38
				c0.12,0,0.23,0,0.35-0.03l4.06-0.8c0.82-0.16,1.41-0.87,1.41-1.7V18.29C116.66,17.33,115.88,16.55,114.93,16.55z M113.19,29.73
				l-0.61,0.12v-9.83h0.61V29.73z"/>
		</g>
	</g>
</g>
</svg>
