<?xml version="1.0" encoding="utf-8"?>
<!-- Generator: Adobe Illustrator 26.0.3, SVG Export Plug-In . SVG Version: 6.00 Build 0)  -->
<svg version="1.1" id="레이어_1" xmlns="http://www.w3.org/2000/svg" xmlns:xlink="http://www.w3.org/1999/xlink" x="0px"
	 y="0px" viewBox="0 0 123 267" style="enable-background:new 0 0 123 267;" xml:space="preserve">
<g>
	<path style="fill:#FCE2BF;" d="M76.2,248.8c-2.5-2.4-7.8-4.8-9.2-13.5l-19.8,0.1c-0.3,2.3-0.7,4.6-1.4,6.8
		c-3.3,11.2-2.1,16.6-1.7,20.3c0,0,7.4,0.8,8.9,0v-2.9c0,0,6.8,1.6,11.8,3.3c5,1.7,28.2,3.4,29.5-4.1
		C95.5,251.3,79.7,252.1,76.2,248.8z"/>
	<g>
		<path style="fill:#12315F;" d="M44.7,248.4c0,0-3.2,7.1-2,16.2c0,0,7.5,1.2,10.6,0v-3.4c0,0,5.6,0.5,7.9,2.1
			c2.2,1.7,19.5,5.8,31.3,1.1c9.2-3.7,1.2-15.3-8.1-11.5c0,0-12.8,4.7-21.9,0.6C53.2,249.6,44.7,248.4,44.7,248.4z"/>
		<path style="fill:#1F417A;" d="M72.9,266.3c6.1,0.7,13.5,0.6,19.4-1.8c8.4-3.4,2.4-13.5-5.9-12.2C86.5,255.6,85,262.6,72.9,266.3z
			"/>
		<path style="fill:#A82B53;" d="M87.4,252.2c4,2,9.5,6.1,4.8,12.3c0,0,0.1,0,0.1,0C100.4,261.3,95.2,251.8,87.4,252.2z"/>
	</g>
</g>
<g>
	<path style="fill:#E02D24;" d="M31.8,69.3c0,0-5.7,11.6-14.1,45.3C9.3,148.3-0.2,246.7-0.2,246.7s51.5,15,122.5,0
		c0,0-5.6-118.2-29-174.4L31.8,69.3z"/>
	<g>
		<path style="fill:#BA1C22;" d="M36.6,69.6c-4.4,18.3-19.3,84.1-16.9,124c0,0,11.2-97.2,23-123.7L36.6,69.6z"/>
		<path style="fill:#BA1C22;" d="M86.6,72.1c2.2,8.2,9,33.9,14.2,61.5c0,0-4-37.7-10.3-61.3L86.6,72.1z"/>
		<path style="fill:#BA1C22;" d="M46.9,70.1c-2.4,12.7-11.6,65.3-10.6,100.8c0,0,9-83.9,15-100.6L46.9,70.1z"/>
	</g>
</g>
<g>
	<path style="fill:#F4D530;" d="M96.3,75.4c-44.6,6.7-68.1-1.7-68.1-1.7C32,42.5,34,40.1,37.6,27.6C41.2,15.2,48.9,6.9,48.9,6.9
		l26,4.7c16.6,12,17.1,37.5,19.3,51.1L96.3,75.4z"/>
	<path style="fill:#EC6833;" d="M51.2-0.3L44,12.9c0,0,13.3,2.3,23.3,8.1c10,5.8,11.8,2.7,11.8,2.7l-0.1-8
		C79,15.8,72.4,6.7,51.2-0.3z"/>
	<path style="fill:#FFFFFF;" d="M48.2,5.1C55.2,7,69,12.5,79,18.8l0-3c0,0-6.6-9.1-27.8-16.1L48.2,5.1z"/>
	<path style="fill:#EC6833;" d="M79,12.1c0,0,4.9,5.3,7.6,13.7c0,0-4.4,13-9.5,18.4C77,44.2,75.8,29.8,79,12.1z"/>
	<path style="fill:#FFFFFF;" d="M77.3,24.4l3,3.8c1.7-4.7,2.1-8.6,2-11.4c-1.8-3-3.4-4.6-3.4-4.6C78.2,16.4,77.7,20.6,77.3,24.4z"/>
	<g>
		<g>
			<path style="fill:#F49E17;" d="M81.7,42.5c0,0,4.1-6.2,11.7-3.9c7.6,2.3,6,18.5,6,18.5S87.6,68.4,81.7,42.5z"/>
			<path style="fill:#DE6D0D;" d="M99.3,57c0,0,0.1-0.6,0.1-1.5C96.3,49,81.7,42.5,81.7,42.5C87.6,68.4,99.3,57,99.3,57z"/>
		</g>
		<path style="fill:#EF7B1C;" d="M79,42.5c0,0-0.6-2,3.4-1.6c4,0.4,7.5,11.3-5,10.6L79,42.5z"/>
		<path style="fill:#EF7B1C;" d="M77.3,48.7c0,0,1.9,120.3,5.1,133.9c0,0,12.1-4.6,16.1-5c0,0-15-112-18.3-130.6
			C80.3,47.1,77.3,45.4,77.3,48.7z"/>
		<path style="fill:#F49E17;" d="M79,42.5c0,0-7.1,2.6-5,22.3c2.1,19.7,5.9,86,2.3,94.1l13.8-2.1c0,0-3.8-65.3-8.4-88.9
			C77,44.2,83.2,46.5,79,42.5z"/>
	</g>
</g>
<g>
	<path style="fill:#F3B92A;" d="M67.9,35.9c0-0.1,0-0.2,0-0.3c-0.9-6.3-3.6-13.3-11.3-13c-10.7,0.4-15.1,34.4-16.3,49.7
		c-3,36,5.2,49.3,6.4,59.7c0,0,16.9,0.8,28.4-3.7c0,0-3-31.5-3.8-58.3C71,58.6,69.5,47.2,67.9,35.9z"/>
</g>
</svg>
