<?xml version="1.0" encoding="utf-8"?>
<!-- Generator: Adobe Illustrator 26.5.0, SVG Export Plug-In . SVG Version: 6.00 Build 0)  -->
<svg version="1.1" id="레이어_1" xmlns="http://www.w3.org/2000/svg" xmlns:xlink="http://www.w3.org/1999/xlink" x="0px"
	 y="0px" viewBox="0 0 179 211" style="enable-background:new 0 0 179 211;" xml:space="preserve">
<g>
	<path d="M92.5,164c-0.2,0-0.4-0.1-0.5-0.3c-11.9-16.3-16.3-31.4-13.4-46.3c0.1-0.4,0.4-0.6,0.8-0.5c0.4,0.1,0.6,0.4,0.5,0.8
		c-2.8,14.5,1.5,29.3,13.2,45.2c0.2,0.3,0.2,0.7-0.1,0.9C92.8,163.9,92.7,164,92.5,164z"/>
	<g>
		<g>
			<path style="fill:#FF1D80;" d="M88.4,104.1c0,0,0.8,5.1-5.4,7.3L83,105L88.4,104.1z"/>
			<path d="M83,112.1c-0.1,0-0.3,0-0.4-0.1c-0.2-0.1-0.3-0.3-0.3-0.6l0.1-6.4c0-0.3,0.2-0.6,0.6-0.7l5.4-0.9c0.2,0,0.4,0,0.5,0.1
				c0.1,0.1,0.2,0.3,0.3,0.4c0,0.1,0.9,5.7-5.9,8.1C83.1,112.1,83,112.1,83,112.1z M83.7,105.6l-0.1,4.8c3.5-1.6,4.1-4.3,4.1-5.5
				L83.7,105.6z"/>
		</g>
		<g>
			<path style="fill:#217ECC;" d="M90.9,101.2c0,0,1.1,9.7-9.2,13.5l0,1.9c0,0,12.9-2.8,11-15.7L90.9,101.2z"/>
			<path d="M81.7,117.3c-0.2,0-0.3-0.1-0.4-0.2c-0.2-0.1-0.3-0.3-0.2-0.5l0-1.9c0-0.3,0.2-0.5,0.4-0.6c9.7-3.6,8.8-12.4,8.8-12.8
				c0-0.4,0.2-0.7,0.6-0.7l1.8-0.3c0.2,0,0.4,0,0.5,0.1c0.1,0.1,0.2,0.3,0.3,0.5c1.9,13.3-11.4,16.4-11.6,16.4
				C81.8,117.3,81.7,117.3,81.7,117.3z M82.4,115.2l0,0.5c2.7-0.8,10.8-4.2,9.8-14l-0.5,0.1C91.6,104.1,91.1,111.8,82.4,115.2z"/>
		</g>
		<g>
			<g>
				<polygon style="fill:#217ECC;" points="76.3,121 71.8,117.7 72.6,104.7 78.2,104.9 				"/>
				<path d="M76.3,121.7c-0.1,0-0.3,0-0.4-0.1l-4.5-3.4c-0.2-0.1-0.3-0.4-0.3-0.6l0.8-13c0-0.4,0.3-0.7,0.7-0.6l5.6,0.2
					c0.2,0,0.4,0.1,0.5,0.2c0.1,0.1,0.2,0.3,0.2,0.5L77,121.1c0,0.2-0.2,0.4-0.4,0.5C76.5,121.7,76.4,121.7,76.3,121.7z M72.5,117.3
					l3.3,2.4l1.7-14.2l-4.2-0.2L72.5,117.3z"/>
			</g>
			<g>
				<path style="fill:#FF1D80;" d="M75.3,104.2l1.8-11l29.2-3.8c0.8-0.1,1.4,0.5,1.4,1.3l-0.3,8.1L75.3,104.2z"/>
				<path d="M75.3,104.9c-0.2,0-0.4-0.1-0.5-0.2c-0.2-0.2-0.2-0.4-0.2-0.6l1.8-11c0-0.3,0.3-0.5,0.6-0.6l29.2-3.8
					c0.6-0.1,1.1,0.1,1.6,0.5c0.4,0.4,0.7,0.9,0.6,1.5l-0.3,8.1c0,0.3-0.2,0.6-0.6,0.6l-32.1,5.4C75.4,104.9,75.4,104.9,75.3,104.9z
					 M77.7,93.9l-1.5,9.5l30.6-5.1l0.3-7.5c0-0.2-0.1-0.4-0.2-0.4c-0.1-0.1-0.2-0.2-0.5-0.1L77.7,93.9z"/>
			</g>
			<g>
				<polygon style="fill:#F2005E;" points="77.1,93.2 73.1,93.7 72,102 75.3,104.2 				"/>
				<path d="M75.3,104.9c-0.1,0-0.3,0-0.4-0.1l-3.4-2.2c-0.2-0.1-0.3-0.4-0.3-0.7l1.2-8.2c0-0.3,0.3-0.5,0.6-0.6l4-0.5
					c0.2,0,0.4,0,0.6,0.2c0.1,0.2,0.2,0.4,0.2,0.6l-1.8,11c0,0.2-0.2,0.4-0.4,0.5C75.5,104.9,75.4,104.9,75.3,104.9z M72.7,101.6
					l2.1,1.4l1.5-9l-2.5,0.3L72.7,101.6z"/>
			</g>
			<g>
				<polygon style="fill:#217ECC;" points="76.1,100.2 72.3,99.5 69.2,105.2 72.9,106.7 				"/>
				<path d="M72.9,107.4c-0.1,0-0.2,0-0.3,0l-3.7-1.5c-0.2-0.1-0.3-0.2-0.4-0.4c-0.1-0.2-0.1-0.4,0-0.6l3.1-5.7
					c0.1-0.3,0.4-0.4,0.7-0.3l3.8,0.7c0.2,0,0.4,0.2,0.5,0.4c0.1,0.2,0.1,0.4,0,0.6l-3.1,6.5C73.4,107.2,73.2,107.4,72.9,107.4z
					 M70.2,104.9l2.4,1l2.5-5.1l-2.4-0.5L70.2,104.9z"/>
			</g>
			<g>
				<polygon style="fill:#29A0FF;" points="76.1,100.2 72.9,106.7 77,106 76.3,121 82.8,119.9 83,105 103.9,101.5 103,96.3 				"/>
				<path d="M76.3,121.7c-0.2,0-0.3-0.1-0.5-0.2c-0.2-0.1-0.2-0.3-0.2-0.5l0.7-14.2l-3.3,0.5c-0.2,0-0.5-0.1-0.7-0.3
					c-0.2-0.2-0.2-0.5-0.1-0.7l3.1-6.5c0.1-0.2,0.3-0.3,0.5-0.4l26.9-3.9c0.4-0.1,0.7,0.2,0.8,0.6l0.9,5.2c0,0.2,0,0.4-0.1,0.5
					c-0.1,0.1-0.3,0.2-0.4,0.3l-20.3,3.4l-0.2,14.4c0,0.3-0.2,0.6-0.6,0.7l-6.5,1.1C76.4,121.7,76.3,121.7,76.3,121.7z M77,105.3
					c0.2,0,0.3,0.1,0.5,0.2c0.2,0.1,0.2,0.3,0.2,0.5L77,120.2l5.1-0.9l0.2-14.4c0-0.3,0.2-0.6,0.6-0.7l20.2-3.4l-0.6-3.9l-25.9,3.7
					l-2.4,5l2.8-0.5C77,105.3,77,105.3,77,105.3z"/>
			</g>
		</g>
		<g>
			<path d="M28.1,146.9c1.2,0,2.2,0.6,2.9,1.7c4.2,6.5,3.8,13.1,2.4,21.1l0,0l-0.2,1.2c0,0,0,0,0,0.1l0,0c-0.6,3.1-2.3,5.7-5.1,7.9
				c0,0,0,0,0,0c0.1,0,2.3,1.3,2.6,1.5c1.7,1.1,3.3,2.6,4,4.5c0.6,1.6,0.5,3.4,0.3,5.1c-0.2,1.6-1.8,3.7-3.6,4.2
				c-0.3,0.1-0.7,0.1-1,0.1c-2.1,0-4-1.6-5.7-2.7l-6.6-4.5c0,0-1.4-1-1.4-1c-0.9-0.6-1.6-1.6-1.7-2.6c-0.2-1.1,0.6-2,1.3-2.7
				c0.4-0.4,0.8-0.7,1.3-1.1c0.2-0.2,1.2-1.4,1.4-1.4c0,0,0,0,0,0l0,0c1.8-2.6,5.6-5,7-8.8l0,0c0,0,0,0,0,0l0.2-1.3l0,0
				c1.1-6,1.7-10.7-1.3-15.4c-0.7-1.1-0.8-2.4-0.2-3.6C25.4,147.7,26.7,146.9,28.1,146.9C28,146.9,28.1,146.9,28.1,146.9
				 M28.1,145.5l-0.1,0c-1.8,0.1-3.5,1.1-4.4,2.8c-0.8,1.6-0.7,3.4,0.3,5c2.5,4,2.3,8,1.4,13l0,0l-0.3,1.4l-0.2,1.2
				c-0.8,2-2.5,3.7-4.1,5.3c-0.9,0.9-1.8,1.8-2.5,2.8c-0.4,0.2-0.8,0.6-1.3,1.3c-0.1,0.1-0.2,0.2-0.2,0.2c-0.4,0.3-0.7,0.6-1.1,1
				l-0.1,0.1c-1.4,1.2-2,2.5-1.8,3.9c0.2,1.4,1.1,2.7,2.3,3.6l1.4,1l6.6,4.5c0.2,0.2,0.5,0.3,0.7,0.5c1.6,1.2,3.5,2.5,5.7,2.5
				c0.5,0,0.9-0.1,1.4-0.2c2.4-0.6,4.3-3.2,4.6-5.3c0.2-1.9,0.4-3.8-0.4-5.7c-1.1-2.6-3.3-4.4-4.5-5.1c-0.3-0.2-0.6-0.4-1-0.6
				c2.2-2.2,3.5-4.6,4.1-7.4l0,0l0-0.1l0.2-1.2l0.2-1.3l0,0c1.4-8,1.3-14.4-2.8-20.7C31.2,146.3,29.7,145.5,28.1,145.5L28.1,145.5z"
				/>
			<path style="fill:#FFFFFF;" d="M28,146.9c1.2,0,2.3,0.6,3,1.7c4.4,6.8,3.7,14,2.1,22.3l-1.1,1.9l-6.2-2.3l0.2-1.2
				c1.1-6.4,2.2-11.7-1.1-16.8c-0.7-1.1-0.8-2.4-0.2-3.6C25.4,147.7,26.7,146.9,28,146.9z"/>
			<path style="fill-rule:evenodd;clip-rule:evenodd;fill:#02A0F4;" d="M19,178.1L19,178.1c1.8-2.6,5.6-5,7.1-8.8l0.2-1.4l7.1,1.7
				l-0.2,1.2c-0.6,3.1-2.3,5.7-5.1,7.9c0.1-0.1,2.3,1.3,2.7,1.5c1.7,1.1,3.3,2.6,4,4.5c0.6,1.6,0.5,3.4,0.3,5.1
				c-0.2,1.6-1.8,3.7-3.6,4.2c-2.6,0.6-4.7-1.3-6.7-2.6l-6.6-4.5c0,0-1.4-1-1.4-1c-0.9-0.6-1.6-1.6-1.7-2.6c-0.2-1.1,0.6-2,1.3-2.7
				c0.4-0.4,0.8-0.7,1.3-1.1C17.7,179.3,18.8,178.1,19,178.1z"/>
		</g>
		<g>
			<g>
				<path style="fill:#FFFFFF;" d="M32.1,54.4c-1.2,0.6-2.2,1.4-2.8,2.6c-1.1,2.1-1.6,5.9-0.5,8.2c0.4,0.8,1.2,0.2,2.1,0
					c1.1-0.3,0.7-1.5,1.5-2.7c1.1-1.7,2.5-0.1,4.6,1.6c1.8,1.3,4.2,0.9,5.3-1c1.2-1.9,0.7-4.5-1-5.8C38,54.7,35.8,52.7,32.1,54.4z"
					/>
				<path style="fill:#673101;" d="M36,61.5c0.3-0.1,0.6-0.2,0.9-0.1c-0.4-0.1-0.7-0.4-0.9-0.8c-0.4-0.8-0.1-1.8,0.7-2.2
					c0.4-0.2,0.7-0.2,1.1-0.1c-0.3-0.2-0.6-0.4-0.8-0.8c-0.4-0.8,0.2-1.8,0.9-2.2c0.1,0,0.4-0.1,0.5-0.1c1.9,0.9,2.7,1.9,3.1,2.2
					c1.7,1.3,2.2,4,1,5.8c-1.2,1.9-3.6,2.3-5.3,1c-0.5-0.4-1.5-1.2-1.8-1.4C34.8,62.4,35.4,61.8,36,61.5"/>
			</g>
			<path d="M34.7,53.8c1.5,0,2.8,0.7,4.2,1.6c1.5,0.8,2.2,1.7,2.5,1.9c0.7,0.5,1.1,1.2,1.4,1.9c0.5,1.3,0.3,2.7-0.4,3.9
				c-0.7,1.2-1.9,1.8-3.1,1.8c-0.8,0-1.5-0.2-2.2-0.8c0,0,0,0,0,0c-0.5-0.4-1.5-1.1-1.8-1.4c0,0-0.1-0.1-0.1-0.1
				c-0.6-0.5-1.2-0.8-1.6-0.8c-0.4,0-0.7,0.2-1.1,0.7c-0.8,1.2-0.4,2.4-1.5,2.7c-0.6,0.1-1.1,0.4-1.5,0.4c-0.2,0-0.4-0.1-0.6-0.4
				c-1.1-2.3-0.6-6.1,0.5-8.2c0.6-1.2,1.6-2.1,2.8-2.6C33.1,54,33.9,53.8,34.7,53.8 M34.7,52.4L34.7,52.4c-1,0-2.1,0.3-3.2,0.8
				c-1.6,0.7-2.7,1.8-3.5,3.3c-1.2,2.4-1.8,6.7-0.5,9.4c0.4,0.7,1,1.2,1.8,1.2c0.5,0,0.9-0.1,1.3-0.3c0.2-0.1,0.4-0.1,0.6-0.2
				c1.5-0.4,1.8-1.6,2-2.3c0.1-0.4,0.2-0.7,0.4-1c0,0,0,0,0-0.1c0.1,0,0.3,0.2,0.6,0.4c0.1,0.1,0.1,0.1,0.2,0.2
				c0.3,0.2,1.3,1,1.8,1.4l0.9-1l-0.8,1.1c0.9,0.7,2,1,3.1,1c1.7,0,3.3-0.9,4.3-2.4c0.9-1.5,1.1-3.4,0.5-5.1c-0.4-1-1-1.9-1.8-2.6
				c0,0-0.1-0.1-0.2-0.1c-0.4-0.4-1.2-1.1-2.4-1.8C38.3,53.3,36.7,52.4,34.7,52.4L34.7,52.4z"/>
		</g>
		<g>
			<path d="M42.8,150.7c1.4,0,2.5,1.1,2.5,2.5v9.8h0v20.8c0,0,1.2-1.4,4.2-1.4c0.7,0,1.4,0.1,2.3,0.2c0,0,0.2,0,0.2,0
				c3.2,0.7,6,2.8,7.5,5.8c0.8,1.6,1.2,4.5-0.1,5.9c-1.4,1.6-3.5,1.8-5.4,1.8c-0.7,0-1.3,0-1.9,0h-8.4h-1.8c-1.5,0-3.8-1.2-3.8-2.6
				V163h0v-9.8C38,151.8,41.4,150.7,42.8,150.7 M42.8,149.3c-1.5,0-6.1,1.2-6.1,3.9v9.8l0,30.4c0,2.4,3.1,4,5.1,4h1.8H52
				c0.3,0,0.6,0,0.9,0c0.3,0,0.7,0,1,0c2.3,0,4.7-0.3,6.5-2.3c1.8-2,1.2-5.6,0.3-7.4c-1.7-3.3-4.8-5.7-8.4-6.5l-0.2,0
				c-0.9-0.2-1.8-0.3-2.6-0.3c-1.2,0-2.1,0.2-2.9,0.4V163l0-9.8C46.6,151,44.9,149.3,42.8,149.3L42.8,149.3z"/>
			<g>
				<path style="fill:#FFFFFF;" d="M42.8,150.7c-1.4,0-4.8,1.1-4.8,2.5v21.1h7.3v-21.1C45.3,151.8,44.2,150.7,42.8,150.7"/>
				<path style="fill-rule:evenodd;clip-rule:evenodd;fill:#02A0F4;" d="M52,182.6c0,0-0.1,0-0.2,0c-4.8-0.9-6.5,1.2-6.5,1.2v-9.4
					H38v19.1c0,1.5,2.3,2.6,3.8,2.6h1.8H52c2.5,0,5.5,0.3,7.4-1.8c1.3-1.5,0.9-4.4,0.1-5.9C58,185.4,55.2,183.3,52,182.6"/>
			</g>
		</g>
		<path style="fill:#02A0F4;" d="M26.8,62.6c0,0,0.1,0,0.1,0L26.8,62.6z"/>
		<g>
			<path d="M33.5,61.9c6.1,0,12.4,2,17.7,4.9c5.1,2.8,8.9,8.4,11.1,13.7c2.7,6.4,3.4,13.2,2.3,20c-0.6,3.6-2,7.5-0.9,11.2
				c1.1,3.6,3,7,4.1,10.7c2.1,7.1,3.4,14.5,1.4,21.8c-2.7,9.9-11.8,14.6-21.3,16.7c-1.1,0.2-2.3,0.4-3.4,0.6c0,0-0.1,0-0.1,0
				l-2.3,0.3c-1.1,0.2-2.3,0.3-3.5,0.3c-0.7,0-1.4,0.1-2.1,0.1c-7.4,0-15.4-1.9-20.7-7.2c-4.2-4.2-6.7-11.8-7.2-17.6
				c-0.4-4.6,0.4-9.2,0.6-13.7c0.1-2.1,0.7-3.5,0.2-5.6c-0.5-1.9-1.5-3.7-2.4-5.2c-1.3-2.1-2.4-4.4-3.2-6.7
				c-1.8-4.8-2.6-9.9-2.3-15.1c0.3-5.7,2-12.3,5.9-16.6c5-5.6,11.9-10.4,19.3-11.7l2.4-0.4c0.1,0,0.1,0,0.1,0
				C30.6,62,32,61.9,33.5,61.9 M33.5,60.5L33.5,60.5c-1.6,0-3.1,0.1-4.6,0.4l-0.1,0l-2.4,0.4c-7,1.2-14.3,5.6-20.1,12.1
				c-3.6,4-5.9,10.4-6.3,17.5c-0.3,5.4,0.5,10.7,2.4,15.6c1,2.5,2.1,4.8,3.3,6.9c0.9,1.5,1.9,3.2,2.3,4.9c0.3,1.1,0.2,2,0,3.2
				c-0.1,0.6-0.2,1.3-0.2,2c-0.1,1.5-0.2,3-0.3,4.5c-0.3,3.1-0.5,6.2-0.3,9.4c0.5,5.9,3,14,7.6,18.5c6.7,6.6,16.4,7.6,21.7,7.6
				c0.7,0,1.5,0,2.2-0.1c1.2-0.1,2.4-0.2,3.6-0.3l2.3-0.3l0.1,0c1.2-0.2,2.4-0.4,3.5-0.6c12.1-2.6,19.8-8.7,22.3-17.6
				c2.3-8.2,0.4-16.3-1.4-22.5c-0.6-2-1.4-3.9-2.2-5.7c-0.7-1.7-1.4-3.3-1.9-5c-0.8-2.5-0.2-5.1,0.4-7.9c0.2-0.9,0.4-1.8,0.5-2.6
				c1.2-7.1,0.4-14.1-2.4-20.8c-2.7-6.5-7-11.8-11.7-14.4C45.9,62.3,39.4,60.5,33.5,60.5L33.5,60.5z"/>
			<path style="fill:#02A0F4;" d="M9.2,123.5c0.1-2.1,0.7-3.5,0.2-5.6c-0.5-1.9-1.5-3.7-2.4-5.2c-1.3-2.1-2.4-4.4-3.2-6.7
				c-1.8-4.8-2.6-9.9-2.3-15.1c0.3-5.7,2-12.3,5.9-16.6c5-5.6,11.9-10.4,19.3-11.7l2.4-0.4c0.1,0,0.1,0,0.1,0
				c7.4-1.3,15.5,0.9,22.1,4.6c5.1,2.8,8.9,8.4,11.1,13.7c2.7,6.4,3.4,13.2,2.3,20c-0.6,3.6-2,7.5-0.9,11.2c1.1,3.6,3,7,4.1,10.7
				c2.1,7.1,3.4,14.5,1.4,21.8c-2.7,9.9-11.8,14.6-21.3,16.7c-1.1,0.2-2.3,0.4-3.4,0.6c0,0-0.1,0-0.1,0l-2.3,0.3
				c-1.1,0.2-2.3,0.3-3.5,0.3c-7.9,0.4-17-1.4-22.8-7.2c-4.2-4.2-6.7-11.8-7.2-17.6C8.3,132.7,9,128.1,9.2,123.5z"/>
		</g>
		<g>
			<g>
				<path style="fill-rule:evenodd;clip-rule:evenodd;fill:#FFFFFF;" d="M72.1,87.9c-0.6-1.9-1.1-2.6-2.2-4.2
					c-1.3-1.8-2.4-2.5-6.2-2.8c-0.2-0.9-0.8-3.2-1.1-3.9c-0.7-1.9-1.6-3.7-2.7-5.3c-2.6-3.6-7-5.9-10.9-7.1
					c-2.4-0.7-4.8-1.4-7.3-1.3c-0.3,0-0.6,0-0.9,0c-2.3,0.2-2.2,0.5-4.1,1.9c-2.2,1.7-3.4,4.5-4,7.1c-0.8,3.4-1.3,6.9-1.1,10.4
					c0,0,0,0.1,0,0.1c0.5,8.8,2.9,17.9,8.2,25.2c1.8,2.5,4.5,4.8,7.8,4.3c4.1-0.5,6-0.8,10.1-1.7c2.1-0.4,4.1-1.1,5.9-2.1
					c4.4-2.3,7.9-6.2,9-11.3C73.1,94.2,73.1,90.9,72.1,87.9z"/>
				<path d="M46.6,113.1c-3.4,0-5.9-2.5-7.5-4.7c-6.2-8.6-7.9-18.7-8.3-25.6c-0.2-3.5,0.2-7,1.1-10.7c0.9-3.5,2.3-6,4.3-7.5
					c0.3-0.2,0.6-0.4,0.8-0.6c1.3-1,1.7-1.3,3.7-1.4c0.3,0,0.7,0,1,0c2.6,0,5,0.6,7.5,1.4c2.9,0.9,8.1,2.9,11.3,7.3
					c1.1,1.6,2.1,3.5,2.8,5.5c0.2,0.7,0.7,2.5,1,3.5c3.6,0.3,4.9,1.2,6.2,3c1.2,1.6,1.7,2.4,2.3,4.4l0,0c0.9,2.9,1,6.4,0.3,9.7
					c-1.1,5-4.4,9.2-9.4,11.8c-1.9,1-3.9,1.7-6.1,2.2c-4,0.8-5.9,1.1-10.1,1.7C47.2,113.1,46.9,113.1,46.6,113.1z M41.9,63.9
					c-0.1,0-0.1,0-0.2,0c-0.3,0-0.6,0-0.9,0c-1.7,0.1-1.9,0.3-3,1.1c-0.2,0.2-0.5,0.4-0.8,0.6c-1.7,1.3-3,3.6-3.8,6.8
					c-0.9,3.5-1.2,7-1.1,10.2c0.4,6.8,2,16.6,8,24.9c1.5,2.1,4,4.5,7.1,4.1c4.2-0.6,6-0.8,10-1.7c2-0.4,3.9-1.1,5.7-2.1
					c4.6-2.4,7.6-6.3,8.7-10.9c0.7-3.1,0.6-6.3-0.3-9c-0.6-1.8-0.9-2.4-2.1-4c-1.1-1.6-2-2.3-5.7-2.5l-0.5,0l-0.1-0.5
					c-0.2-0.9-0.8-3.2-1.1-3.9c-0.7-1.9-1.6-3.7-2.6-5.2c-2.1-3-6-5.5-10.6-6.8C46.4,64.5,44.2,63.9,41.9,63.9z"/>
			</g>
			<g>
				<g>
					<path style="fill-rule:evenodd;clip-rule:evenodd;" d="M71.1,83.9c0.1,0.8,0.1,1.4-0.7,1.5c-0.7,0.1-1.7-0.5-1.9-1.2
						c-0.1-0.8,0.3-1.3,1-1.4S71,83.2,71.1,83.9"/>
					<g>
						<path style="fill-rule:evenodd;clip-rule:evenodd;" d="M61.9,85.2L61.9,85.2c-0.7,0.2-1.5-0.4-1.7-1.4l-0.1-0.2
							c-0.2-0.9,0-1.8,1-2c0.8-0.1,1.3,0.6,1.5,1.5l0.1,0.2C62.9,84.3,62.7,85,61.9,85.2"/>
					</g>
				</g>
				<path style="fill-rule:evenodd;clip-rule:evenodd;fill:#FDBDB8;" d="M61.8,91.4c0.7,4.3-2,8.4-6.1,9.1s-8-2.3-8.7-6.6
					c-0.7-4.3,2-8.4,6.1-9.1C57.1,84.1,61.1,87.1,61.8,91.4"/>
				<path style="fill-rule:evenodd;clip-rule:evenodd;" d="M64.2,89.2c0.3,0.2,0.4,0.6,0.3,0.9c0,0.2,0.4,0.6,1.1,0.9
					c1,0.5,2.4,0.5,3.9,0c1.4-0.5,2.5-1.4,2.9-2.3c0.2,0.6,0.3,1.2,0.4,1.9c-0.7,0.7-1.7,1.4-2.8,1.8c-0.5,0.2-0.9,0.3-1.4,0.4
					c-1.3,0.2-2.6,0.1-3.6-0.5c-0.5-0.3-1.5-0.9-1.8-1.8c-0.1-0.3-0.1-0.7,0.1-1C63.5,89.1,63.9,89,64.2,89.2z"/>
			</g>
		</g>
		<g>
			<g>
				<g>
					<path style="fill:#FFFFFF;" d="M84.5,111.6c0.4,1.6-1.1,3.5-2.8,4.5c-8.5,5.1-23.6,8.4-33,4.7c-1.2-0.5-3.2-1.1-3.7-2.4
						c-1.7-4.8,11-3.4,13.1-3.4c7-0.2,13.9-2,19.8-5.6c2.1-1.3,4.8-0.8,6.1,1C84.2,110.8,84.4,111.2,84.5,111.6z"/>
				</g>
				<path style="fill:#0183C6;" d="M64.7,121.9c0.4-2.2,0.6-4.6-1.5-7.4c5.3-1,10-2.3,14.3-5.6c2.4-1.8,5.4-3.5,7.1,0.1
					c0.2,0.4,0.3,0.8,0.4,1.2c0.2,1,0.2,2-0.2,2.8c-1.8,3.8-6,5.5-9.8,6.6C74,119.9,64.6,122.5,64.7,121.9z"/>
			</g>
			<path d="M81.7,106.9c1.1,0,2.1,0.6,2.8,2.1c0.2,0.4,0.3,0.8,0.4,1.2c0.2,1,0.2,2-0.2,2.8c-1.8,3.7-5.8,5.4-9.6,6.5
				c-3.3,0.9-6.9,1.8-10.5,2.3c-2.1,0.3-4.3,0.5-6.4,0.5c-2,0-4-0.2-6-0.5c-1.2-0.2-2.4-0.6-3.6-1c-1.2-0.5-3.2-1.1-3.7-2.4
				c-1.1-3,3.6-3.6,7.7-3.6c2.3,0,4.4,0.2,5.2,0.2c0,0,0.1,0,0.1,0c6.6-0.2,14-1.9,19.3-6.1C78.8,107.9,80.3,106.9,81.7,106.9
				 M81.7,105.5L81.7,105.5c-1.5,0-3.1,0.7-5.1,2.3c-4.5,3.5-11.2,5.7-18.5,5.8l-0.1,0c-0.3,0-0.8,0-1.4-0.1c-1,0-2.4-0.1-3.9-0.1
				c-4.9,0-7.5,0.7-8.7,2.3c-0.4,0.6-0.8,1.6-0.3,3c0.6,1.7,2.6,2.5,4,3c0.2,0.1,0.3,0.1,0.5,0.2c1.2,0.5,2.5,0.8,3.8,1.1
				c1.9,0.4,4,0.6,6.2,0.6c2.1,0,4.3-0.2,6.6-0.5c3.1-0.5,6.5-1.2,10.6-2.4c3.4-1,8.3-2.8,10.4-7.2c0.6-1.3,0.5-2.9,0.3-3.7
				c-0.1-0.5-0.3-1-0.5-1.5C84.6,106.1,82.9,105.5,81.7,105.5L81.7,105.5z"/>
		</g>
		<g>
			<g>
				<path style="fill:#FFFFFF;" d="M20.2,56.3c1.7,0.1,3.3,0.6,4.7,1.8c2.4,2.1,3.8,5.5,3.6,8.9c-0.1,1.2-1.2,1.6-2.4,1.8
					c-1.5,0.2-1.5-1-3.1-2.1c-2.2-1.6-2.2,1.1-4,4.3c-1.5,2.6-4.5,3.3-6.9,1.5c-2.4-1.7-3.1-5.2-1.7-7.8
					C13.1,59.7,14.9,56.1,20.2,56.3z"/>
				<path style="fill:#673101;" d="M19,67.2c-0.4,0-0.8,0.1-1.1,0.3c0.4-0.4,0.6-0.9,0.6-1.5c0-1.2-0.8-2.3-1.9-2.5
					c-0.5,0-1,0.1-1.4,0.5c0.3-0.4,0.5-0.8,0.5-1.4c0-1.2-1.1-2.2-2.2-2.3c-0.1,0-0.5,0.1-0.6,0.1c-1.8,2.1-2.3,3.8-2.6,4.3
					c-1.4,2.6-0.7,6.1,1.7,7.8c2.4,1.7,5.5,1.1,6.9-1.5c0.4-0.8,1.3-2.2,1.5-2.7C20.9,67.6,19.8,67.3,19,67.2"/>
			</g>
			<path d="M19.7,56.3c0.2,0,0.3,0,0.5,0c1.7,0.1,3.3,0.6,4.7,1.8c2.4,2.1,3.8,5.5,3.6,8.9c-0.1,1.2-1.2,1.6-2.4,1.8
				c-0.1,0-0.2,0-0.4,0c-1.2,0-1.3-1.1-2.7-2.1c-0.4-0.3-0.8-0.5-1.1-0.5c-0.6,0-1,0.6-1.4,1.5c0.1,0.1,0.1,0.3,0,0.5
				c-0.3,0.5-1.1,1.9-1.5,2.7c0,0,0,0,0,0c-0.9,1.6-2.5,2.5-4.1,2.5c-1,0-2-0.3-2.8-1c-1.5-1.1-2.3-2.9-2.4-4.7
				c0-1.1,0.2-2.2,0.7-3.2c0.2-0.4,0.7-1.9,2.1-3.7C14.3,58.2,16.2,56.3,19.7,56.3 M19.7,54.9L19.7,54.9c-4.4,0-6.6,2.5-8.3,5.3
				c-1.2,1.5-1.7,2.8-2,3.5C9.3,63.9,9.2,64,9.2,64c-0.6,1.2-1,2.5-0.9,3.9c0.1,2.3,1.2,4.4,3,5.7c1.1,0.8,2.4,1.2,3.6,1.2
				c2.2,0,4.1-1.2,5.3-3.2c0.4-0.8,1.3-2.3,1.5-2.7c0.2-0.3,0.2-0.6,0.2-1c0.1-0.1,0.1-0.2,0.1-0.2c0,0,0.1,0.1,0.2,0.1
				c0.4,0.3,0.7,0.6,1,1c0.5,0.6,1.2,1.4,2.5,1.4c0.2,0,0.4,0,0.6,0c2.3-0.4,3.5-1.4,3.6-3.1c0.2-3.8-1.4-7.6-4.1-10
				c-1.5-1.3-3.4-2.1-5.6-2.2C20.1,54.9,19.9,54.9,19.7,54.9L19.7,54.9z"/>
		</g>
	</g>
</g>
<g>
	<g>
		<polygon style="fill:#EDE6D5;" points="93.1,119.9 106.4,102.1 116.6,106.3 103.9,126.6 		"/>
		<path d="M103.8,127.3c-0.1,0-0.2,0-0.4-0.1l-10.8-6.7c-0.2-0.1-0.3-0.3-0.3-0.4c0-0.2,0-0.4,0.1-0.5l13.3-17.8
			c0.2-0.2,0.5-0.3,0.8-0.2l10.3,4.2c0.2,0.1,0.3,0.2,0.4,0.4c0.1,0.2,0,0.4-0.1,0.6L104.4,127C104.3,127.2,104.1,127.3,103.8,127.3
			z M94.1,119.7l9.6,6l12-19l-9-3.7L94.1,119.7z"/>
	</g>
	<g>
		<polygon style="fill:#FFF8E5;" points="116.6,106.3 132.1,103.9 121.7,99.9 106.4,102.1 		"/>
		<path d="M116.6,107c-0.1,0-0.2,0-0.3-0.1l-10.3-4.2c-0.3-0.1-0.5-0.4-0.4-0.7c0-0.3,0.3-0.5,0.6-0.6l15.4-2.2c0.1,0,0.2,0,0.3,0
			l10.4,4c0.3,0.1,0.5,0.4,0.4,0.7c0,0.3-0.3,0.6-0.6,0.6l-15.5,2.5C116.7,107,116.7,107,116.6,107z M108.9,102.4l7.8,3.2l12.8-2
			l-7.9-3L108.9,102.4z"/>
	</g>
	<g>
		<polygon style="fill:#CCC6B8;" points="116.6,106.3 103.9,126.6 103.9,169.7 128.3,159.3 132.1,103.9 		"/>
		<path d="M103.9,170.3c-0.1,0-0.3,0-0.4-0.1c-0.2-0.1-0.3-0.3-0.3-0.6v-43.1c0-0.1,0-0.3,0.1-0.4l12.8-20.3
			c0.1-0.2,0.3-0.3,0.5-0.3l15.5-2.5c0.2,0,0.4,0,0.6,0.2c0.2,0.1,0.2,0.3,0.2,0.5l-3.8,55.4c0,0.3-0.2,0.5-0.4,0.6l-24.5,10.4
			C104,170.3,103.9,170.3,103.9,170.3z M104.5,126.8v41.8l23.2-9.8l3.7-54.1l-14.3,2.3L104.5,126.8z"/>
	</g>
	<g>
		<polygon style="fill:#CCC6B8;" points="103.9,126.6 103.9,169.7 93.2,160.3 93.1,119.9 		"/>
		<path d="M103.9,170.3c-0.2,0-0.3-0.1-0.4-0.2l-10.6-9.4c-0.1-0.1-0.2-0.3-0.2-0.5l-0.1-40.4c0-0.2,0.1-0.5,0.3-0.6
			c0.2-0.1,0.5-0.1,0.7,0l10.8,6.7c0.2,0.1,0.3,0.3,0.3,0.6v43.1c0,0.3-0.2,0.5-0.4,0.6C104,170.3,103.9,170.3,103.9,170.3z
			 M93.9,160l9.3,8.2V127l-9.4-5.9L93.9,160z"/>
	</g>
	<g>
		<polygon style="fill:#D40000;" points="141.5,144.2 146.9,11 155.7,0.7 171.9,3.2 165.8,175.5 142.3,183.9 		"/>
		<path d="M142.3,184.6c-0.1,0-0.3,0-0.4-0.1c-0.2-0.1-0.3-0.3-0.3-0.5l-0.8-39.6c0,0,0,0,0,0L146.2,11c0-0.2,0.1-0.3,0.2-0.4
			l8.8-10.3c0.2-0.2,0.4-0.3,0.6-0.2L172,2.5c0.3,0.1,0.6,0.4,0.6,0.7l-6.1,172.3c0,0.3-0.2,0.5-0.5,0.6l-23.5,8.4
			C142.4,184.5,142.4,184.6,142.3,184.6z M142.1,144.2l0.8,38.7l22.2-7.9l6.1-171.3l-15.3-2.4l-8.4,9.9L142.1,144.2z"/>
	</g>
	<g>
		<polygon style="fill:#EDE6D5;" points="115.7,114.7 150.1,130 155.7,27 118.8,34.4 		"/>
		<path d="M150.1,130.7c-0.1,0-0.2,0-0.3-0.1l-34.3-15.3c-0.3-0.1-0.4-0.4-0.4-0.6l3.1-80.4c0-0.3,0.2-0.6,0.5-0.6l36.9-7.3
			c0.2,0,0.4,0,0.6,0.2c0.2,0.1,0.2,0.3,0.2,0.5l-5.6,103c0,0.2-0.1,0.4-0.3,0.5C150.3,130.6,150.2,130.7,150.1,130.7z M116.4,114.3
			l33,14.7L155,27.9l-35.5,7L116.4,114.3z"/>
	</g>
	<g>
		<polygon style="fill:#BDB7AA;" points="118.8,34.4 155.7,27 152,10.6 115.7,21.3 		"/>
		<path d="M118.8,35c-0.3,0-0.6-0.2-0.7-0.5l-3.1-13c-0.1-0.4,0.1-0.7,0.5-0.8l36.3-10.8c0.2-0.1,0.4,0,0.5,0.1
			c0.2,0.1,0.3,0.3,0.3,0.4l3.6,16.5c0,0.2,0,0.4-0.1,0.5c-0.1,0.2-0.3,0.3-0.4,0.3L119,35C118.9,35,118.9,35,118.8,35z M116.5,21.8
			l2.8,11.8l35.5-7.1l-3.3-15.1L116.5,21.8z"/>
	</g>
	<g>
		<polygon style="fill:#EDE6D5;" points="152,10.6 155.7,0.7 121.5,11 115.7,21.3 		"/>
		<path d="M115.7,22c-0.2,0-0.4-0.1-0.5-0.3c-0.2-0.2-0.2-0.5-0.1-0.8l5.8-10.3c0.1-0.2,0.2-0.3,0.4-0.3L155.5,0
			c0.2-0.1,0.5,0,0.7,0.2c0.2,0.2,0.2,0.5,0.1,0.7l-3.6,9.9c-0.1,0.2-0.2,0.4-0.4,0.4L115.9,22C115.9,22,115.8,22,115.7,22z
			 M122,11.6l-4.8,8.6L151.5,10l3-8.3L122,11.6z M152,10.6L152,10.6L152,10.6z"/>
	</g>
	<g>
		<polygon style="fill:#EDE6D5;" points="115.7,114.7 109.5,123.4 141.5,144.2 150.1,130 		"/>
		<path d="M141.5,144.9c-0.1,0-0.3,0-0.4-0.1l-31.9-20.9c-0.2-0.1-0.3-0.3-0.3-0.4c0-0.2,0-0.4,0.1-0.5l6.2-8.6
			c0.2-0.3,0.5-0.4,0.8-0.2l34.3,15.3c0.2,0.1,0.3,0.2,0.4,0.4c0.1,0.2,0,0.4-0.1,0.6l-8.6,14.2c-0.1,0.2-0.3,0.3-0.4,0.3
			C141.6,144.9,141.5,144.9,141.5,144.9z M110.5,123.2l30.8,20.1l7.8-13L116,115.6L110.5,123.2z"/>
	</g>
	<g>
		<polygon style="fill:#EDE6D5;" points="137.2,140 152.6,118.1 162.8,122.3 150.1,142.6 		"/>
		<path d="M150.1,143.3c0,0-0.1,0-0.1,0l-12.8-2.6c-0.2,0-0.4-0.2-0.5-0.4c-0.1-0.2-0.1-0.5,0.1-0.6l15.3-21.9
			c0.2-0.3,0.5-0.4,0.8-0.2l10.3,4.2c0.2,0.1,0.3,0.2,0.4,0.4c0.1,0.2,0,0.4-0.1,0.6L150.6,143C150.5,143.2,150.3,143.3,150.1,143.3
			z M138.4,139.5l11.3,2.3l12.1-19.2l-9-3.7L138.4,139.5z"/>
	</g>
	<g>
		<polygon style="fill:#CCC6B8;" points="109.5,123.4 111.6,157.8 142.3,183.9 141.5,144.2 		"/>
		<path d="M142.3,184.6c-0.2,0-0.3-0.1-0.4-0.2l-30.7-26.1c-0.1-0.1-0.2-0.3-0.2-0.5l-2-34.4c0-0.3,0.1-0.5,0.3-0.6
			c0.2-0.1,0.5-0.1,0.7,0l31.9,20.9c0.2,0.1,0.3,0.3,0.3,0.6l0.8,39.6c0,0.3-0.1,0.5-0.4,0.6C142.5,184.5,142.4,184.6,142.3,184.6z
			 M112.2,157.5l29.3,24.9l-0.8-37.8l-30.5-19.9L112.2,157.5z"/>
	</g>
	<g>
		<polygon style="fill:#FB0014;" points="129.6,133.3 94.8,146.2 111.5,157.5 150.1,142.6 		"/>
		<path d="M111.5,158.2c-0.1,0-0.3,0-0.4-0.1l-16.7-11.3c-0.2-0.1-0.3-0.4-0.3-0.6c0-0.3,0.2-0.5,0.4-0.6l34.8-13
			c0.2-0.1,0.4-0.1,0.5,0l20.5,9.3c0.2,0.1,0.4,0.4,0.4,0.6c0,0.3-0.2,0.5-0.4,0.6l-38.5,14.9C111.7,158.2,111.6,158.2,111.5,158.2z
			 M96.3,146.4l15.4,10.3l36.7-14.2l-18.8-8.5L96.3,146.4z"/>
	</g>
	<g>
		<polygon style="fill:#D40000;" points="94.8,146.2 83.4,168.3 97.6,181.6 111.5,157.5 		"/>
		<path d="M97.6,182.3c-0.2,0-0.3-0.1-0.5-0.2L83,168.8c-0.2-0.2-0.3-0.5-0.1-0.8l11.4-22.1c0.1-0.2,0.2-0.3,0.4-0.3
			c0.2,0,0.4,0,0.5,0.1l16.7,11.3c0.3,0.2,0.4,0.6,0.2,0.9L98.2,182C98.1,182.2,97.9,182.3,97.6,182.3
			C97.7,182.3,97.6,182.3,97.6,182.3z M84.3,168.2l13.2,12.4l13.2-22.8L95,147.2L84.3,168.2z"/>
	</g>
	<g>
		<polygon style="fill:#FFF8E5;" points="162.8,122.3 178.3,119.9 167.9,115.9 152.6,118.1 		"/>
		<path d="M162.8,123c-0.1,0-0.2,0-0.3-0.1l-10.3-4.2c-0.3-0.1-0.5-0.4-0.4-0.7c0-0.3,0.3-0.5,0.6-0.6l15.4-2.2c0.1,0,0.2,0,0.3,0
			l10.4,4c0.3,0.1,0.5,0.4,0.4,0.7c0,0.3-0.3,0.6-0.6,0.6L163,123C162.9,123,162.9,123,162.8,123z M155.1,118.4l7.8,3.2l12.8-2
			l-7.9-3L155.1,118.4z"/>
	</g>
	<g>
		<polygon style="fill:#CCC6B8;" points="162.8,122.3 150.1,142.6 150.1,191.8 174.6,181.4 178.3,119.9 		"/>
		<path d="M150.1,192.5c-0.1,0-0.3,0-0.4-0.1c-0.2-0.1-0.3-0.3-0.3-0.6v-49.2c0-0.1,0-0.3,0.1-0.4l12.8-20.3
			c0.1-0.2,0.3-0.3,0.5-0.3l15.5-2.5c0.2,0,0.4,0,0.6,0.2c0.2,0.1,0.2,0.3,0.2,0.5l-3.8,61.6c0,0.3-0.2,0.5-0.4,0.6l-24.5,10.4
			C150.2,192.4,150.1,192.5,150.1,192.5z M150.7,142.8v48l23.2-9.8l3.7-60.3l-14.3,2.3L150.7,142.8z"/>
	</g>
	<g>
		<polygon style="fill:#9D0000;" points="97.6,181.6 98.2,210.3 83.4,194.9 83.4,168.3 		"/>
		<path d="M98.2,211c-0.2,0-0.4-0.1-0.5-0.2l-14.8-15.5c-0.1-0.1-0.2-0.3-0.2-0.5v-26.5c0-0.3,0.2-0.5,0.4-0.6
			c0.2-0.1,0.5-0.1,0.7,0.1l14.2,13.3c0.1,0.1,0.2,0.3,0.2,0.5l0.6,28.7c0,0.3-0.2,0.5-0.4,0.6C98.4,211,98.3,211,98.2,211z
			 M84.1,194.6l13.4,14l-0.6-26.6l-12.8-12.1V194.6z"/>
	</g>
	<g>
		<polygon style="fill:#CCC6B8;" points="142.3,195.1 142.3,155.8 128.1,159.9 128.1,181.3 		"/>
		<path d="M142.3,195.8c-0.2,0-0.3-0.1-0.5-0.2l-14.2-13.8c-0.1-0.1-0.2-0.3-0.2-0.5v-21.4c0-0.3,0.2-0.6,0.5-0.7l14.2-4
			c0.2-0.1,0.4,0,0.6,0.1c0.2,0.1,0.3,0.3,0.3,0.5v39.3c0,0.3-0.2,0.5-0.4,0.6C142.5,195.8,142.4,195.8,142.3,195.8z M128.8,181
			l12.8,12.5v-36.8l-12.8,3.6V181z"/>
	</g>
	<g>
		<polygon style="fill:#BDB7AA;" points="98.2,210.3 111.5,205.1 111.5,181.6 118.8,163.9 142.3,155.8 142.3,195.1 150.1,191.8 
			150.1,142.6 111.5,157.5 97.6,181.6 		"/>
		<path d="M98.2,211c-0.1,0-0.3,0-0.4-0.1c-0.2-0.1-0.3-0.3-0.3-0.5l-0.6-28.7c0-0.1,0-0.2,0.1-0.4l13.9-24.1
			c0.1-0.1,0.2-0.2,0.3-0.3l38.5-14.9c0.2-0.1,0.4-0.1,0.6,0.1c0.2,0.1,0.3,0.3,0.3,0.6v49.2c0,0.3-0.2,0.5-0.4,0.6l-7.8,3.3
			c-0.2,0.1-0.4,0.1-0.6-0.1c-0.2-0.1-0.3-0.3-0.3-0.6v-38.3l-22.3,7.7l-7.1,17.3v23.3c0,0.3-0.2,0.5-0.4,0.6L98.5,211
			C98.4,211,98.3,211,98.2,211z M98.3,181.8l0.6,27.5l12-4.7v-23c0-0.1,0-0.2,0.1-0.3l7.3-17.7c0.1-0.2,0.2-0.3,0.4-0.4l23.4-8.1
			c0.2-0.1,0.4,0,0.6,0.1c0.2,0.1,0.3,0.3,0.3,0.6v38.3l6.4-2.8v-47.8L112,158.1L98.3,181.8z"/>
	</g>
	<g>
		<g>
			<defs>
				<polygon id="XMLID_00000123431433764149209700000005347900357383711142_" points="118.8,112.2 147.8,125.1 152.6,30.9 
					121.4,37.1 				"/>
			</defs>
			<defs>
				<path id="SVGID_1_" d="M147.8,125.8c-0.1,0-0.2,0-0.3-0.1l-29-12.9c-0.3-0.1-0.4-0.4-0.4-0.6l2.6-75.1c0-0.3,0.2-0.6,0.5-0.6
					l31.1-6.2c0.2,0,0.4,0,0.6,0.2c0.2,0.1,0.2,0.3,0.2,0.5l-4.8,94.1c0,0.2-0.1,0.4-0.3,0.5C148.1,125.7,147.9,125.8,147.8,125.8z
					 M119.5,111.8l27.7,12.3l4.7-92.3l-29.7,5.9L119.5,111.8z"/>
			</defs>
			<use xlink:href="#XMLID_00000123431433764149209700000005347900357383711142_"  style="overflow:visible;fill:#1B2A47;"/>
			<use xlink:href="#SVGID_1_"  style="overflow:visible;"/>
			<clipPath id="XMLID_00000158724552950691937700000000812685737073380766_">
				<use xlink:href="#XMLID_00000123431433764149209700000005347900357383711142_"  style="overflow:visible;"/>
			</clipPath>
			
				<clipPath id="SVGID_00000094580166846886293650000014797651450309216176_" style="clip-path:url(#XMLID_00000158724552950691937700000000812685737073380766_);">
				<use xlink:href="#SVGID_1_"  style="overflow:visible;"/>
			</clipPath>
			<path style="clip-path:url(#SVGID_00000094580166846886293650000014797651450309216176_);fill:#E4FF00;" d="M132.3,59.1
				c1.8,1.1,2.8,3.5,2.2,5.5c0.6-0.5,1.2-0.9,1.9-1.1c0.7-0.2,1.6,0,2.1,0.6c-0.2-0.9-0.1-1.8,0.1-2.7c-0.9-0.1-1.5-1-1.9-1.8
				c-0.4-1.1-0.5-2.1-0.8-3.2c-0.2-0.8,0.1-1.3-0.6-0.7C134.9,56.2,133.8,60,132.3,59.1z"/>
		</g>
		<path style="fill:#00FF3A;" d="M121.3,62.3c0.2,0.5,0.4,1,0.8,1.4c0.8,0.8,2.3,0.6,3.1-0.1c0.8-0.8,1.1-2,1-3.2
			c-0.1-1.1-0.5-2.2-1-3.3c1.4,0.3,2.9,0.5,4.2,0c1.3-0.5,2.4-1.9,2-3.3c-0.3-0.9-1.2-1.5-2.1-1.6s-1.9,0.1-2.7,0.4
			c-0.6-1.4,0.4-2.9,1.5-3.8c1.1-1,2.5-1.7,3.1-3c0.7-1.3,0.1-3.4-1.4-3.4c-1.4-0.1-2.2,1.6-2.8,2.9c-0.1,0.2-0.2,0.5-0.4,0.6
			c-0.8,0.6-1.8-0.5-1.7-1.4s0.7-1.7,0.9-2.7c0.2-1-0.2-2.2-1.1-2.8c-0.9-0.6-2.3-0.3-2.8,0.6c-0.3,0.5-0.4,1.1-0.4,1.7
			c-0.3,5.4-0.6,10.7-1,16.1C120.5,59.4,120.5,60.4,121.3,62.3z"/>
		<g>
			<g>
				<path style="fill:#FF2235;" d="M122.8,49.6c2.5,0.4,4.6,2.4,5.1,4.9c0.6,2.4-0.5,5.2-2.5,6.6c1.5-1,3.2-1.9,5-1.9s3.7,1.2,3.9,3
					c0.8-3.2,2.6-6.1,5.1-8.2c-1,0.3-1.9-0.6-2.4-1.5c-2-3.5-2.5-7.9-1.2-11.7c-0.7,2.2-4,1.8-5.5,1
					C128.7,45.1,127.7,49.5,122.8,49.6z"/>
				<path d="M134.4,62.8C134.4,62.8,134.4,62.8,134.4,62.8c-0.3,0-0.6-0.2-0.6-0.5c-0.2-1.5-1.8-2.4-3.3-2.4c0,0,0,0,0,0
					c-1.7,0-3.3,1-4.7,1.8c-0.3,0.2-0.6,0.1-0.8-0.2c-0.2-0.3-0.1-0.6,0.1-0.8c1.8-1.3,2.8-3.8,2.3-6c-0.5-2.2-2.4-4-4.7-4.4
					c-0.3-0.1-0.5-0.3-0.5-0.6c0-0.3,0.3-0.5,0.6-0.6c3.7-0.1,4.9-2.8,6.2-5.7c0.3-0.6,0.6-1.3,0.9-1.9c0.1-0.1,0.2-0.3,0.4-0.3
					c0.2,0,0.3,0,0.5,0.1c0.9,0.5,2.5,0.8,3.6,0.4c0.5-0.2,0.9-0.5,1-1c0,0,0,0,0,0l0,0c0.1-0.3,0.4-0.5,0.8-0.4
					c0.3,0.1,0.5,0.4,0.4,0.8c-1.2,3.7-0.8,7.9,1.2,11.2c0.3,0.6,1,1.4,1.7,1.2c0.3-0.1,0.6,0,0.7,0.3c0.1,0.3,0.1,0.6-0.1,0.8
					c-2.4,2-4.2,4.9-5,7.9C134.9,62.6,134.7,62.8,134.4,62.8z M130.5,58.6c1.4,0,2.9,0.7,3.8,1.8c0.8-2.3,2.2-4.3,3.9-6
					c-0.6-0.3-1.2-1-1.6-1.6c-1.8-3-2.4-6.7-1.8-10.1c0,0-0.1,0-0.1,0c-1.3,0.5-2.9,0.3-4.1-0.2c-0.2,0.4-0.4,0.9-0.6,1.3
					c-1.1,2.4-2.2,5-5,6c1.7,1,3,2.6,3.5,4.5c0.4,1.6,0.1,3.3-0.6,4.8C128.7,58.8,129.6,58.6,130.5,58.6
					C130.5,58.6,130.5,58.6,130.5,58.6z"/>
			</g>
			<path style="fill:#E4FF00;" d="M129.1,51.2c1.6,1,2.5,3.1,2,4.9c0.5-0.4,1.1-0.8,1.7-1s1.4,0,1.8,0.5c-0.1-0.8-0.1-1.6,0-2.4
				c-0.8-0.1-1.4-0.9-1.7-1.6c-0.4-0.9-0.4-1.9-0.7-2.8c-0.2-0.7,0.1-1.2-0.5-0.6C131.4,48.6,130.4,51.9,129.1,51.2z"/>
		</g>
		<path style="fill:#00FF3A;" d="M133.5,88.6c0.4,1.2-1.2,2.1-2.5,2c-1.3-0.1-2.6-0.6-3.7,0c-0.8,0.4-1.3,1.4-1.4,2.3
			c-0.1,0.4-0.1,0.7,0,1.1c0.4,1.1,2.1,0.9,3.2,0.5c1.1-0.5,2.7-0.8,3.3,0.3c0.6,1.1-0.7,2.3-1.8,3c-1.1,0.7-2.2,1.5-3,2.7
			c-0.7,1.1-1,2.6-0.5,3.8s2,2.1,3.3,1.6c1.3-0.5,2.3-2.2,3.7-1.9c1.7,0.4,1.4,3.2,2.9,4.2c1,0.7,2.3,0.2,3.4-0.4
			c1.8-1.1,3.5-3.3,2.6-5.3c-0.4-0.8-1.1-1.4-1.8-2c-0.6-0.7-1.1-1.6-0.8-2.4c0.4-1,1.6-1.3,2.6-1.6c1-0.4,2.1-1,2.5-2
			c0.5-1,0.3-2.4-0.7-3c-0.7-0.4-1.6-0.3-2.4-0.4s-1.7-0.4-1.9-1.2c-0.3-1.2,1.3-2,2.1-3c1-1.2,0.6-3.2-0.7-4
			c-3.4-2-3.4,2.8-5.1,3.6c-0.5-2.2-2.6-3-4.7-1.9C128.7,86.4,133,86.9,133.5,88.6z"/>
		<g>
			<g>
				<path style="fill:#FF2235;" d="M133.8,91.3c-1.2,1.2-2.8,2.1-4.5,2.6c2.3-0.1,4,2.2,4.3,4.5s-0.1,4.5,0.1,6.8
					c0.9-1.2,1.9-2.5,3.3-3c1.4-0.6,3.3-0.2,4,1.1c0.2-2.9,1.7-5.7,4-7.6c-1.5-0.3-2.6-1.5-3.2-2.9s-0.5-3-0.3-4.5
					c-0.8,0.8-2,1.1-3.1,0.8c-1-0.3-1.7-1.7-2.7-1.1C135.2,88.2,134.4,90.7,133.8,91.3z"/>
				<path d="M133.8,105.8c-0.1,0-0.1,0-0.2,0c-0.2-0.1-0.4-0.3-0.4-0.5c-0.1-1.1-0.1-2.2,0-3.2c0-1.2,0.1-2.4-0.1-3.5
					c-0.3-2-1.8-4.1-3.7-4c-0.3,0-0.6-0.2-0.6-0.5c-0.1-0.3,0.1-0.6,0.4-0.7c1.8-0.5,3.2-1.3,4.2-2.4c0.2-0.2,0.6-0.9,0.8-1.5
					c0.5-1.1,0.8-1.7,1.2-2c1-0.6,1.8,0.1,2.4,0.5c0.3,0.2,0.6,0.5,0.8,0.5c0.9,0.2,1.8,0,2.5-0.6c0.2-0.2,0.5-0.2,0.7-0.1
					c0.2,0.1,0.4,0.4,0.3,0.6c-0.1,1.2-0.2,2.8,0.3,4.2c0.5,1.3,1.6,2.3,2.7,2.5c0.2,0,0.4,0.2,0.5,0.4c0.1,0.2,0,0.5-0.2,0.6
					c-2.2,1.7-3.6,4.4-3.8,7.1c0,0.3-0.2,0.5-0.5,0.5c-0.3,0.1-0.5-0.1-0.7-0.3c-0.6-1.1-2.1-1.3-3.2-0.8c-1.3,0.5-2.3,1.7-3.1,2.8
					C134.1,105.7,134,105.8,133.8,105.8z M131.3,93.8c1.5,0.8,2.6,2.7,2.9,4.5c0.2,1.3,0.2,2.5,0.1,3.8c0,0.5,0,1,0,1.5
					c0.7-0.8,1.5-1.5,2.6-2c1.2-0.5,2.7-0.4,3.8,0.3c0.4-2.3,1.6-4.4,3.2-6c-1.1-0.5-2.1-1.6-2.6-3c-0.4-1.2-0.5-2.4-0.5-3.5
					c-0.8,0.3-1.7,0.4-2.5,0.2c-0.5-0.1-0.9-0.5-1.2-0.7c-0.6-0.5-0.8-0.6-1-0.4c-0.2,0.1-0.5,0.9-0.8,1.4c-0.4,0.8-0.7,1.5-1,1.9
					c0,0,0,0,0,0C133.4,92.6,132.5,93.2,131.3,93.8z M133.8,91.3L133.8,91.3L133.8,91.3z"/>
			</g>
			<path style="fill:#E4FF00;" d="M134.5,94.5c0.6,0,1.1,0.4,1.4,0.9c0.6,0.9,0.7,2.1,0.4,3.1c0.8-0.7,2.3-0.5,2.9,0.4
				c-0.1-1.3,0.4-2.7,1.4-3.5c-0.8,0.2-1.5-0.5-1.9-1.2c-0.5-0.8-0.8-1.6-1.1-2.5C136.5,91.8,136.1,94.2,134.5,94.5z"/>
		</g>
		<path style="fill:#00FF3A;" d="M150.6,56.4c-1-0.1-3-2.1-4.1-2.4c-1.5-0.5-3.4,0-3.9,1.5c-0.5,1.4,0.5,2.9,1.5,4.1
			c1,1.1,2.2,2.4,2.1,3.9c-2.3,0-4.6,0.1-6.9,0.1c-0.7,0-1.4,0-1.9,0.4c-1.1,0.7-1.1,2.5-0.2,3.5c0.9,1,2.4,1.3,3.7,1.2
			c1.3,0,2.7-0.4,4-0.3c0.9,0.7,0.8,2.2,0.1,3.1c-0.7,0.9-1.7,1.5-2.7,2.1c-0.9,0.7-1.8,1.6-1.8,2.8c0,1.5,1.8,2.6,3.2,2.3
			c1.5-0.3,2.6-1.5,3.2-2.9c0.3-0.6,0.7-1.4,1.3-1.3c0.6,0.1,1.3,0.9,1.3,1.5"/>
		<path d="M147.8,125.8c-0.1,0-0.2,0-0.3-0.1l-29-12.9c-0.3-0.1-0.4-0.4-0.4-0.6l2.6-75.1c0-0.3,0.2-0.6,0.5-0.6l31.1-6.2
			c0.2,0,0.4,0,0.6,0.2c0.2,0.1,0.2,0.3,0.2,0.5l-4.8,94.1c0,0.2-0.1,0.4-0.3,0.5C148.1,125.7,147.9,125.8,147.8,125.8z
			 M119.5,111.8l27.7,12.3l4.7-92.3l-29.7,5.9L119.5,111.8z"/>
	</g>
</g>
</svg>
