<?xml version="1.0" encoding="utf-8"?>
<!-- Generator: Adobe Illustrator 26.5.0, SVG Export Plug-In . SVG Version: 6.00 Build 0)  -->
<svg version="1.1" id="레이어_5" xmlns="http://www.w3.org/2000/svg" xmlns:xlink="http://www.w3.org/1999/xlink" x="0px"
	 y="0px" viewBox="0 0 167 223" style="enable-background:new 0 0 167 223;" xml:space="preserve">
<g>
	<path style="fill:#474747;" d="M21.9,76.1c-8.7,1.6-15.6,7-19,14.6c-3.3,7.5-2.5,16.1,2.1,23.5c3,4.8,7.7,7.4,12.8,10.1
		c3.6,1.9,7.2,3.9,10.2,6.8c5.8,5.6,7.8,12.8,9.9,19.8c1,3.5,2.1,7.2,3.6,10.6c2.9,6.6,8.8,12.3,16.2,15.8
		c7.5,3.6,15.3,4.1,21.3,1.5c5.1-2.2,8.7-6.4,10.8-12.6c4-11.9,3.5-27.8-1.2-41.6c-2.4-6.9-6.3-13.9-12-21.3
		C65.7,89.3,48,75.4,29,75.4C26.6,75.4,24.2,75.6,21.9,76.1z"/>
	<path style="fill:#757575;" d="M76.2,179.4c1-23.5-5.2-45.4-17.5-61.6C45,99.8,22.9,89.3,2.4,91.1c0,0-4.4,10.6,1.9,22.1
		c0,0,4.3,8.5,17.9,12.7c0,0,12.4,9.1,13.5,18.3c0,0,4.2,18.9,12.2,26.5c0,0,9,10.2,26,9.9L76.2,179.4z"/>
	<path d="M57.2,178.2c-7.6-3.6-13.7-9.5-16.7-16.3c-1.6-3.5-2.6-7.2-3.6-10.8c-2-6.9-4-14-9.6-19.4c-2.9-2.8-6.5-4.7-10-6.6
		c-5.1-2.8-10-5.4-13.1-10.4c-4.8-7.7-5.6-16.5-2.2-24.3c3.5-8,10.6-13.5,19.6-15.2c2.4-0.4,4.8-0.7,7.3-0.7
		c24.6,0,43.2,21.7,48.3,28.3c5.8,7.5,9.7,14.6,12.1,21.6c4.8,14,5.3,30.1,1.2,42.2c-2.1,6.4-5.9,10.8-11.3,13.1
		c-2.6,1.1-5.5,1.7-8.6,1.7C66.4,181.4,61.7,180.3,57.2,178.2z M22,77C13.6,78.6,7,83.7,3.7,91.1c-3.2,7.2-2.4,15.5,2,22.6
		c2.8,4.6,7.5,7.1,12.4,9.8c3.6,2,7.3,4,10.4,6.9c5.9,5.7,8,13.1,10.1,20.2c1,3.5,2.1,7.1,3.6,10.5c2.8,6.4,8.6,12,15.8,15.4
		c7.3,3.5,14.8,4,20.6,1.5c4.8-2.1,8.3-6.1,10.3-12c3.9-11.7,3.4-27.4-1.2-41c-2.3-6.8-6.2-13.7-11.8-21c-5-6.5-23-27.6-46.8-27.6
		C26.6,76.3,24.3,76.5,22,77z"/>
</g>
<g>
	<g>
		<path style="fill:#0C5290;" d="M104.9,181c0,0.3,0,28.6-0.3,33.1c-0.1,1.6,0.4,3.1,1.7,4.5c2.1,2.3,6.6,3.5,11.3,3.5
			c3.9,0,7.8-0.8,10.6-2.5c3.4-2.1,4.5-5.2,3.1-8.8c-1.9-5.1-5.3-6.6-6.7-7c4-8.1,6.1-29.7,6.2-30.6"/>
		<path d="M117.5,223c4.3,0,8.3-1,11-2.6c3.7-2.3,5-5.9,3.5-9.9c-1.7-4.5-4.5-6.4-6.3-7.2c3.8-8.9,5.8-29.2,5.9-30l-1.8-0.2
			c-0.1,0.9-2.2,22.3-6.1,30.3l-0.5,1l1,0.3c1.2,0.4,4.3,1.7,6.1,6.4c1.2,3.2,0.2,5.8-2.8,7.7c-2.4,1.5-6.1,2.4-10.1,2.4
			c-4.7,0-8.9-1.2-10.6-3.2c-1-1.2-1.5-2.4-1.4-3.8c0.3-4.2,0.3-28.3,0.3-33.1l-1.8-0.1v0.1c0,2.9,0,28.7-0.3,32.9
			c-0.1,1.9,0.5,3.6,1.9,5.2C107.7,221.6,112.2,223,117.5,223z"/>
	</g>
	<g>
		<path style="fill:#757575;" d="M104.6,196.3c13.6,5.9,22.5,0.1,22.6,0c0,0-1.9,6.6-2.6,7.5c0,0,6.9,2,7.2,10.3
			c0,0-0.4,8.1-14.7,7.9c0,0-12.2-0.2-12.4-7.3V196.3z"/>
		<path d="M117,223c-0.5,0-13-0.3-13.3-8.2v-18.5c0-0.3,0.2-0.6,0.4-0.8c0.3-0.2,0.6-0.2,0.9-0.1c13.1,5.7,21.6,0.2,21.7,0.1
			c0.3-0.2,0.7-0.2,1.1,0c0.3,0.2,0.4,0.6,0.3,1c-0.4,1.3-1.4,4.8-2.2,6.7c2.1,1,6.6,3.9,6.9,10.9c0,0.4-0.6,8.8-15.2,8.8
			C117.3,223,117.2,223,117,223z M105.5,197.6v17.1c0.2,6.1,11.4,6.4,11.5,6.4c0.2,0,0.3,0,0.5,0c12.8,0,13.3-6.8,13.3-7
			c-0.3-7.6-6.3-9.4-6.6-9.5c-0.3-0.1-0.5-0.3-0.6-0.6c-0.1-0.3,0-0.6,0.1-0.9c0.3-0.4,1.1-2.7,1.8-5.1
			C122.3,199.5,115.2,201.4,105.5,197.6z"/>
	</g>
</g>
<g>
	<g>
		<path style="fill:#0C5290;" d="M101.5,181c0,0.3,0,28.6,0.3,33.1c0.1,1.6-0.4,3.1-1.7,4.5c-2.1,2.3-6.6,3.5-11.3,3.5
			c-3.9,0-7.8-0.8-10.6-2.5c-3.4-2.1-4.5-5.2-3.1-8.8c1.9-5.1,5.3-6.6,6.7-7c-4-8.1-6.1-29.7-6.2-30.6"/>
		<path d="M88.9,223c-4.3,0-8.3-1-11-2.6c-3.7-2.3-5-5.9-3.5-9.9c1.7-4.5,4.5-6.4,6.3-7.2c-3.8-8.9-5.8-29.2-5.9-30l1.8-0.2
			c0.1,0.9,2.2,22.3,6.1,30.3l0.5,1l-1,0.3c-1.2,0.4-4.3,1.7-6.1,6.4c-1.2,3.2-0.2,5.8,2.8,7.7c2.4,1.5,6.1,2.4,10.1,2.4
			c4.7,0,8.9-1.2,10.6-3.2c1-1.2,1.5-2.4,1.4-3.8c-0.3-4.2-0.3-28.3-0.3-33.1l1.8-0.1v0.1c0,2.9,0,28.7,0.3,32.9
			c0.1,1.9-0.5,3.6-1.9,5.2C98.7,221.6,94.2,223,88.9,223z"/>
	</g>
	<g>
		<path style="fill:#757575;" d="M101.8,196.3c-13.6,5.9-22.5,0.1-22.6,0c0,0,1.9,6.6,2.6,7.5c0,0-6.9,2-7.2,10.3
			c0,0,0.4,8.1,14.7,7.9c0,0,12.2-0.2,12.4-7.3V196.3z"/>
		<path d="M88.9,223c-14.6,0-15.2-8.5-15.2-8.8c0.3-7,4.8-9.9,6.9-10.9c-0.8-1.9-1.8-5.5-2.2-6.7c-0.1-0.4,0-0.8,0.3-1
			c0.3-0.2,0.7-0.2,1.1,0c0.1,0.1,8.6,5.6,21.7-0.1c0.3-0.1,0.6-0.1,0.9,0.1c0.3,0.2,0.4,0.5,0.4,0.8v18.5
			c-0.3,7.9-12.8,8.2-13.3,8.2C89.2,223,89.1,223,88.9,223z M80.8,198.1c0.8,2.4,1.5,4.7,1.8,5.1c0.2,0.2,0.2,0.6,0.1,0.9
			c-0.1,0.3-0.3,0.5-0.6,0.6c-0.3,0.1-6.3,1.9-6.6,9.5c0,0.2,0.6,7,13.3,7c0.2,0,0.3,0,0.5,0c0.1,0,11.3-0.3,11.5-6.4v-17.1
			C91.2,201.4,84.1,199.5,80.8,198.1z"/>
	</g>
</g>
<path style="fill:#FFFFFF;stroke:#000000;stroke-width:1.2;stroke-linecap:round;stroke-linejoin:round;stroke-miterlimit:10;" d="
	M104.4,194.3"/>
<g>
	<g>
		<g>
			<g>
				<path style="fill:#424242;" d="M131.3,116c0,0-0.5,0.2-0.8,0.9c-0.4,0.9-0.4,2.8,1.6,6.6c5.7,11,10.9,28,6.5,39.6
					c-4.5,12-17.6,19.2-34.9,19.2s-30.4-7.2-34.9-19.2c-4.4-11.7,0.7-28.6,6.5-39.6c2-3.8,1.9-5.7,1.6-6.6c-0.3-0.7-0.7-0.8-0.8-0.9
					"/>
				<path d="M103.7,183.2c-17.7,0-31.1-7.4-35.8-19.7c-4.5-11.9,0.7-29.2,6.5-40.4c2-3.8,1.7-5.4,1.5-5.9c-0.1-0.3-0.3-0.4-0.3-0.4
					l0.6-1.7c0.1,0,0.9,0.3,1.3,1.4c0.6,1.6,0.1,4.1-1.6,7.4c-5.6,10.8-10.7,27.5-6.4,38.9c4.4,11.6,17.1,18.6,34.1,18.6
					c17,0,29.7-6.9,34.1-18.6c4.3-11.4-0.8-28.1-6.4-38.9c-1.7-3.3-2.2-5.8-1.6-7.4c0.3-0.8,0.9-1.2,1.3-1.4l0.6,1.7l-0.3-0.8
					l0.3,0.8c0,0-0.2,0.1-0.3,0.4c-0.2,0.5-0.5,2.1,1.5,5.9c5.8,11.2,11,28.4,6.5,40.4C134.7,175.8,121.4,183.2,103.7,183.2z"/>
			</g>
		</g>
		<g>
			<path style="fill:#0C5290;" d="M139,161c-38.1,8.9-70.4,0.1-70.7,0c0,0,1.7,14.7,22.2,19.7c0,0,15.6,5.1,33.6-2.8
				c0,0,11.5-5.9,14.1-14.9L139,161z"/>
			<path d="M102.9,183.3c-7.4,0-12.4-1.6-12.7-1.7c-20.8-5.1-22.7-19.8-22.8-20.5l-0.2-1.3l1.3,0.4c0.3,0.1,32.3,8.9,70.2,0l1.7-0.4
				l-1.5,3.7c-2.6,9.1-14,15.1-14.5,15.3C116.4,182.3,108.9,183.3,102.9,183.3z M69.5,162.3c0.9,3.6,5,13.6,21.2,17.6
				c0.2,0.1,15.5,4.9,33-2.7c0.1,0,11.2-5.8,13.6-14.3l0.2-0.6C104.3,169.7,75.9,163.8,69.5,162.3z"/>
		</g>
	</g>
	<g>
		<path style="fill:#FFFFFF;" d="M90.3,123.8c0,0,13.5,27.6,20,33.5c0,0,12.8-18.7,18-33.5H90.3z"/>
		<path d="M110.5,158.8l-0.9-0.8c-6.6-5.9-19.7-32.6-20.3-33.8l-0.8-1.5h41.2l-0.5,1.4c-5.2,14.7-18,33.5-18.1,33.7L110.5,158.8z
			 M92,124.9c2.8,5.6,12.5,24.6,18.1,30.7c2.6-4,12-18.5,16.6-30.7H92z"/>
	</g>
	<g>
		<ellipse style="fill:#FFCF2E;" cx="124.7" cy="156.8" rx="3.6" ry="3.6"/>
		<path d="M124.7,161.4c-2.6,0-4.6-2.1-4.6-4.7c0-2.6,2.1-4.7,4.6-4.7c2.6,0,4.6,2.1,4.6,4.7C129.3,159.3,127.3,161.4,124.7,161.4z
			 M124.7,154.3c-1.4,0-2.5,1.1-2.5,2.5c0,1.4,1.1,2.5,2.5,2.5c1.4,0,2.5-1.1,2.5-2.5C127.2,155.4,126.1,154.3,124.7,154.3z"/>
	</g>
	<g>
		<ellipse style="fill:#FFCF2E;" cx="96.4" cy="156.8" rx="3.6" ry="3.6"/>
		<path d="M96.4,161.4c-2.6,0-4.6-2.1-4.6-4.7c0-2.6,2.1-4.7,4.6-4.7c2.6,0,4.6,2.1,4.6,4.7C101.1,159.3,99,161.4,96.4,161.4z
			 M96.4,154.3c-1.4,0-2.5,1.1-2.5,2.5c0,1.4,1.1,2.5,2.5,2.5c1.4,0,2.5-1.1,2.5-2.5C98.9,155.4,97.8,154.3,96.4,154.3z"/>
	</g>
</g>
<g>
	<g>
		<path style="fill:#FFCF2E;" d="M93.2,128.3c-2,2.2-1.5,5.9,0.5,8.2c0.7,0.9,1.7,1.8,1.5,2.9c-0.1,0.4-0.3,0.8-0.4,1.2
			c-0.4,1.5,0.8,3,2.2,3.4c1.4,0.4,3,0,4.4-0.7c3.7-1.8,9.3-8.7,5.4-12.4C104,128.3,96.3,124.9,93.2,128.3z"/>
		<path d="M98.2,145.2c-0.5,0-1-0.1-1.5-0.2c-1.9-0.6-3.5-2.6-3-4.7c0.1-0.2,0.1-0.4,0.2-0.6c0.1-0.2,0.1-0.3,0.2-0.5
			c0.1-0.5-0.5-1.1-1-1.7l-0.3-0.3c-2.2-2.6-2.9-6.9-0.4-9.6l0,0c1-1.1,2.5-1.7,4.4-1.8c3.7-0.2,8.5,2.2,10.7,4.3
			c1.3,1.3,1.9,3,1.6,5c-0.6,3.7-4.2,7.7-7.2,9.2C100.6,144.9,99.4,145.2,98.2,145.2z M94,129.1L94,129.1c-1.7,1.8-1,4.9,0.5,6.7
			l0.3,0.3c0.8,0.9,1.7,2,1.5,3.4c-0.1,0.4-0.2,0.7-0.3,0.9c0,0.1-0.1,0.2-0.1,0.4c-0.2,0.9,0.6,1.8,1.5,2.1c1,0.3,2.2,0.1,3.6-0.6
			c2.5-1.2,5.6-4.7,6-7.6c0.2-1.3-0.1-2.3-0.9-3.1c-1.9-1.8-6-3.8-9.2-3.7C95.6,128,94.6,128.4,94,129.1z"/>
	</g>
	<g>
		<path style="fill:#FFCF2E;" d="M127.9,128.3c2,2.2,1.5,5.9-0.5,8.2c-0.7,0.9-1.7,1.8-1.5,2.9c0.1,0.4,0.3,0.8,0.4,1.2
			c0.4,1.5-0.8,3-2.2,3.4c-1.4,0.4-3,0-4.4-0.7c-3.7-1.8-9.3-8.7-5.4-12.4C117.1,128.3,124.8,124.9,127.9,128.3z"/>
		<path d="M122.9,145.2c-1.1,0-2.3-0.3-3.6-0.9c-3-1.4-6.6-5.5-7.2-9.2c-0.3-2,0.2-3.7,1.6-5c2.2-2.2,6.9-4.5,10.7-4.3
			c1.9,0.1,3.3,0.7,4.4,1.8l0,0c2.5,2.7,1.7,7-0.4,9.6l-0.3,0.3c-0.5,0.6-1,1.2-1,1.7c0,0.1,0.1,0.3,0.2,0.5
			c0.1,0.2,0.1,0.4,0.2,0.6c0.6,2.1-1.1,4.2-3,4.7C123.9,145.2,123.4,145.2,122.9,145.2z M124.1,128c-3,0-7.1,1.9-9,3.7
			c-0.8,0.8-1.1,1.8-0.9,3.1c0.5,2.9,3.6,6.4,6,7.6c1.4,0.7,2.6,0.9,3.6,0.6c0.9-0.3,1.7-1.2,1.5-2.1c0-0.1-0.1-0.2-0.1-0.4
			c-0.1-0.3-0.2-0.6-0.3-0.9c-0.2-1.5,0.7-2.5,1.5-3.4l0.3-0.3c1.5-1.8,2.2-4.9,0.5-6.7c-0.6-0.7-1.6-1.1-2.8-1.1
			C124.2,128,124.2,128,124.1,128z"/>
	</g>
	<g>
		<path style="fill:#FFCF2E;" d="M112,139.1h-2.9c-1,0-1.9-0.8-1.9-1.9v-5.1c0-1,0.8-1.9,1.9-1.9h2.9c1,0,1.9,0.8,1.9,1.9v5.1
			C113.9,138.2,113.1,139.1,112,139.1z"/>
		<path d="M110.6,140.1c-2.4,0-4.4-2-4.4-4.4v-2.1c0-2.4,2-4.4,4.4-4.4c2.4,0,4.4,2,4.4,4.4v2.1C115,138.2,113,140.1,110.6,140.1z
			 M110.6,131.4c-1.2,0-2.3,1-2.3,2.3v2.1c0,1.2,1,2.3,2.3,2.3c1.2,0,2.3-1,2.3-2.3v-2.1C112.8,132.4,111.8,131.4,110.6,131.4z"/>
	</g>
</g>
<g>
	<g>
		<g>
			<ellipse style="fill:#757575;" cx="140.3" cy="23.9" rx="22.8" ry="22.9"/>
			<path d="M140.3,47.9c-13.1,0-23.8-10.7-23.8-23.9S127.2,0,140.3,0s23.8,10.7,23.8,23.9S153.5,47.9,140.3,47.9z M140.3,2.1
				c-12,0-21.7,9.8-21.7,21.8s9.7,21.8,21.7,21.8c12,0,21.7-9.8,21.7-21.8S152.3,2.1,140.3,2.1z"/>
		</g>
		<g>
			<ellipse style="fill:#F2A29C;" cx="137.6" cy="27.2" rx="11.9" ry="12"/>
			<path d="M137.6,40.2c-7.2,0-13-5.9-13-13s5.8-13,13-13c7.2,0,13,5.9,13,13S144.8,40.2,137.6,40.2z M137.6,16.3
				c-6,0-10.9,4.9-10.9,10.9s4.9,10.9,10.9,10.9c6,0,10.9-4.9,10.9-10.9S143.6,16.3,137.6,16.3z"/>
		</g>
	</g>
	<g>
		<g>
			<ellipse style="fill:#757575;" cx="66.5" cy="23.9" rx="22.8" ry="22.9"/>
			<path d="M66.5,47.9c-13.1,0-23.8-10.7-23.8-23.9S53.4,0,66.5,0s23.8,10.7,23.8,23.9S79.7,47.9,66.5,47.9z M66.5,2.1
				c-12,0-21.7,9.8-21.7,21.8s9.7,21.8,21.7,21.8s21.7-9.8,21.7-21.8S78.5,2.1,66.5,2.1z"/>
		</g>
		<g>
			<ellipse style="fill:#F2A29C;" cx="69.3" cy="27.2" rx="11.9" ry="12"/>
			<path d="M69.3,40.2c-7.2,0-13-5.9-13-13s5.8-13,13-13c7.2,0,13,5.9,13,13S76.4,40.2,69.3,40.2z M69.3,16.3
				c-6,0-10.9,4.9-10.9,10.9s4.9,10.9,10.9,10.9c6,0,10.9-4.9,10.9-10.9S75.2,16.3,69.3,16.3z"/>
		</g>
	</g>
	<g>
		<path style="fill:#757575;" d="M161.3,79.5c0,32.1-25.9,50.8-57.9,50.8s-57.9-18.7-57.9-50.8s25.9-58.1,57.9-58.1
			S161.3,47.4,161.3,79.5z"/>
		<path d="M103.4,131.4c-34.7,0-58.9-21.3-58.9-51.9c0-32.6,26.4-59.2,58.9-59.2s58.9,26.6,58.9,59.2
			C162.4,110,138.1,131.4,103.4,131.4z M103.4,22.4c-31.3,0-56.8,25.6-56.8,57c0,29.3,23.4,49.7,56.8,49.7s56.8-20.5,56.8-49.7
			C160.2,48,134.8,22.4,103.4,22.4z"/>
	</g>
	<ellipse style="fill:#9B9B9B;" cx="117.4" cy="102.1" rx="30.8" ry="22.5"/>
	<g>
		<path style="fill:#595959;" d="M129.6,87.6c0,3.3-3.8,6-8.4,6c-4.6,0-8.4-2.7-8.4-6s3.8-3.4,8.4-3.4
			C125.9,84.2,129.6,84.3,129.6,87.6z"/>
		<path d="M121.3,94.6c-5.2,0-9.5-3.2-9.5-7.1c0-4.5,5-4.5,9.5-4.5c4.4,0,9.5,0,9.5,4.5C130.7,91.5,126.5,94.6,121.3,94.6z
			 M121.3,85.2c-5.2,0-7.3,0.3-7.3,2.3c0,2.7,3.3,4.9,7.3,4.9s7.3-2.3,7.3-4.9C128.6,85.6,126.4,85.2,121.3,85.2z"/>
	</g>
	<g>
		<path style="fill:#474747;" d="M98.3,22.8c-4.1,4.8-6.1,11.2-6.1,17.5c0,6.5,2.9,13.6,8.9,16c1.5-2.1,2.7-4.5,3.7-6.9
			c3.1,4.8,8.1,8.4,13.7,9.9c2.9-2.2,5.3-5.1,7-8.3c1.2,2,2.5,4,3.7,6.1c12.4-3.9,13.8-20.5,9.2-30.8c-1.4-3.2-3.9-5.9-6.5-8.3
			C122.7,9.6,106.1,13.8,98.3,22.8z"/>
		<path d="M118.4,60.3c-0.1,0-0.2,0-0.3,0c-5.2-1.3-9.9-4.4-13.1-8.7c-0.8,1.9-1.9,3.7-3.1,5.3c-0.3,0.4-0.8,0.6-1.3,0.4
			c-7-2.7-9.5-10.8-9.6-17c0-6.8,2.3-13.4,6.3-18.2l0,0c4.7-5.5,12.4-9.2,20.1-9.7c6-0.4,11.1,1.2,14.9,4.7c2.1,1.9,5.1,4.8,6.8,8.6
			c3.2,7.1,3.4,16.3,0.4,22.9c-2.1,4.7-5.6,7.9-10.3,9.4c-0.5,0.1-1,0-1.2-0.5l-2.8-4.5c-1.7,2.7-3.9,5.1-6.4,7
			C118.9,60.2,118.7,60.3,118.4,60.3z M104.8,48.3c0.4,0,0.7,0.2,0.9,0.5c2.9,4.5,7.4,7.8,12.5,9.3c2.5-2.1,4.7-4.7,6.3-7.6
			c0.2-0.3,0.5-0.5,0.9-0.6c0.4,0,0.7,0.2,0.9,0.5l3.3,5.3c3.6-1.4,6.4-4.1,8.2-8c2.7-6,2.5-14.5-0.4-21.1c-1.2-2.6-3.2-5.1-6.2-7.9
			c-4.2-3.8-9.6-4.4-13.4-4.1c-7,0.4-14.3,4-18.6,9l0,0c-3.7,4.4-5.9,10.5-5.8,16.8c0,5.6,2.3,12.1,7.4,14.6c1.2-1.9,2.3-3.9,3.1-6
			c0.1-0.4,0.5-0.6,0.9-0.7C104.7,48.3,104.7,48.3,104.8,48.3z M98.3,22.8L98.3,22.8L98.3,22.8z"/>
	</g>
	<g>
		<path style="fill:#FF797E;" d="M76.8,96.4c-0.2,0-0.4,0-0.5-0.1c-0.5-0.3-0.7-1-0.4-1.5c0.2-0.3,4.2-7.3,6.9-9.7
			c0.4-0.4,1.1-0.3,1.5,0.1c0.4,0.4,0.3,1.1-0.1,1.5c-2.4,2.1-6.5,9.1-6.5,9.1C77.5,96.2,77.1,96.4,76.8,96.4z"/>
		<path style="fill:#FF797E;" d="M85.1,96.4c-0.2,0-0.4,0-0.5-0.1c-0.5-0.3-0.7-1-0.4-1.5c0.2-0.3,4.3-7.3,7-9.7
			c0.4-0.4,1.1-0.3,1.5,0.1c0.4,0.4,0.3,1.1-0.1,1.5c-2.4,2.1-6.5,9.1-6.5,9.1C85.8,96.2,85.4,96.4,85.1,96.4z"/>
		<path style="fill:#FF797E;" d="M93.4,96.4c-0.2,0-0.4,0-0.5-0.1c-0.5-0.3-0.7-1-0.4-1.5c0.2-0.3,4.2-7.3,6.9-9.7
			c0.4-0.4,1.1-0.3,1.5,0.1c0.4,0.4,0.3,1.1-0.1,1.5c-2.4,2.1-6.5,9.1-6.5,9.1C94.1,96.2,93.7,96.4,93.4,96.4z"/>
	</g>
	<g>
		<path style="fill:#FF797E;" d="M133.9,96.4c-0.2,0-0.4,0-0.5-0.1c-0.5-0.3-0.7-1-0.4-1.5c0.2-0.3,4.2-7.3,6.9-9.7
			c0.4-0.4,1.1-0.3,1.5,0.1c0.4,0.4,0.3,1.1-0.1,1.5c-2.4,2.1-6.5,9.1-6.5,9.1C134.6,96.2,134.3,96.4,133.9,96.4z"/>
		<path style="fill:#FF797E;" d="M142.2,96.4c-0.2,0-0.4,0-0.5-0.1c-0.5-0.3-0.7-1-0.4-1.5c0.2-0.3,4.3-7.3,7-9.7
			c0.4-0.4,1.1-0.3,1.5,0.1c0.4,0.4,0.3,1.1-0.1,1.5c-2.4,2.1-6.5,9.1-6.5,9.1C142.9,96.2,142.6,96.4,142.2,96.4z"/>
		<path style="fill:#FF797E;" d="M150.5,96.4c-0.2,0-0.4,0-0.5-0.1c-0.5-0.3-0.7-1-0.4-1.5c0.2-0.3,4.2-7.3,6.9-9.7
			c0.4-0.4,1.1-0.3,1.5,0.1c0.4,0.4,0.3,1.1-0.1,1.5c-2.4,2.1-6.5,9.1-6.5,9.1C151.2,96.2,150.9,96.4,150.5,96.4z"/>
	</g>
	<path d="M93.3,81.2c-0.4,0-0.8-0.2-1-0.5c-0.4-0.6-0.3-1.4,0.3-1.8c5.9-4.4,14.1-2.8,14.5-2.7c0.7,0.1,1.1,0.8,1,1.5
		c-0.1,0.7-0.8,1.1-1.5,1c-0.1,0-7.4-1.5-12.4,2.2C93.8,81.1,93.6,81.2,93.3,81.2z"/>
	<path d="M144,81.2c0.4,0,0.8-0.2,1-0.5c0.4-0.6,0.3-1.4-0.3-1.8c-5.9-4.4-14.1-2.8-14.5-2.7c-0.7,0.1-1.1,0.8-1,1.5
		c0.1,0.7,0.8,1.1,1.5,1c0.1,0,7.4-1.5,12.4,2.2C143.5,81.1,143.7,81.2,144,81.2z"/>
	<g>
		<path style="fill:#F85246;" d="M121.2,111.5c-0.1,0-0.1,0-0.2,0c-6.1-0.2-10.3-6.9-10.5-7.2c-0.1-0.2-0.1-0.4,0.1-0.5
			c0.1-0.1,0.3-0.2,0.5-0.1c0.2,0.1,4.1,2.3,9.7-3.1c0.2-0.2,0.4-0.2,0.6,0c0,0,3.7,3.7,8.1,3.7c0.1,0,0.3,0.1,0.4,0.2
			c0.1,0.1,0.1,0.3,0,0.4C129.9,105,127.3,111.5,121.2,111.5z"/>
		<path style="fill:#FFFFFF;" d="M123,101l3,3.5c0,1.1-0.9,2-2,2h-5.5c-1.1,0-2-0.9-2-2l3.1-3.7"/>
		<path d="M112.5,105.9c-2.6,0-4.6-0.8-4.7-0.8c-0.5-0.2-0.8-0.8-0.6-1.4c0.2-0.6,0.8-0.8,1.4-0.6c0.3,0.1,8.4,3.2,11.7-4.9
			c0.2-0.6,0.9-0.8,1.4-0.6c0.5,0.2,0.8,0.8,0.6,1.4C120,104.6,115.8,105.9,112.5,105.9z"/>
		<path d="M130,105.9c-3.3,0-7.5-1.2-9.8-6.9c-0.2-0.6,0-1.2,0.6-1.4c0.5-0.2,1.2,0,1.4,0.6c3.2,8,11.3,5,11.7,4.9
			c0.5-0.2,1.2,0.1,1.4,0.6c0.2,0.6-0.1,1.2-0.6,1.4C134.7,105.1,132.6,105.9,130,105.9z"/>
		<path d="M121.6,112.9c-0.1,0-0.2,0-0.2,0c-6.3-0.2-10.6-7.1-10.8-7.4c-0.3-0.5-0.1-1.1,0.3-1.4c0.5-0.3,1.1-0.1,1.4,0.3
			c0,0.1,3.9,6.3,9.1,6.4c0.1,0,0.1,0,0.2,0c4.9,0,7.1-5.4,7.2-5.6c0.2-0.5,0.8-0.8,1.3-0.6c0.5,0.2,0.8,0.8,0.6,1.3
			C130.6,106.3,127.9,112.9,121.6,112.9z"/>
	</g>
</g>
<g>
	<g>
		<polygon style="fill:#FFFFFF;" points="93.9,119.1 90.6,123.2 96.9,171.4 162.7,171.4 165.9,166.8 148.9,120.3 		"/>
		<path d="M162.7,172.5L162.7,172.5l-65.7,0c-0.5,0-1-0.4-1.1-0.9l-6.3-48.2c0-0.3,0-0.6,0.2-0.8l3.3-4.1c0.2-0.3,0.5-0.4,0.9-0.4
			l55,1.2c0.4,0,0.8,0.3,1,0.7l17,46.5c0.1,0.3,0.1,0.7-0.1,1l-3.3,4.6C163.4,172.3,163,172.5,162.7,172.5z M97.9,170.3l64.3,0
			l2.6-3.7l-16.6-45.3l-53.8-1.2l-2.6,3.3L97.9,170.3z"/>
	</g>
	<g>
		<polygon style="fill:#FFFFFF;" points="93.9,119.1 99.9,166.7 165.9,166.8 158.5,120.5 		"/>
		<path d="M165.9,167.9C165.9,167.9,165.9,167.9,165.9,167.9l-66-0.1c-0.5,0-1-0.4-1.1-0.9l-6-47.6c0-0.3,0.1-0.6,0.3-0.9
			c0.2-0.2,0.5-0.4,0.8-0.4l64.6,1.4c0.5,0,1,0.4,1,0.9l7.5,46.3c0.1,0.3,0,0.6-0.2,0.9C166.5,167.7,166.2,167.9,165.9,167.9z
			 M100.8,165.7l63.8,0.1l-7.1-44.2l-62.4-1.4L100.8,165.7z"/>
	</g>
	<path d="M99.2,123.2c-0.2,0-0.5-0.1-0.7-0.3c-0.4-0.4-0.5-1.1-0.1-1.5c0.9-1,1.4-2.4,1.2-3.5c-0.1-0.6-0.4-1.1-0.8-1.4
		c-1.1-0.7-2.2-0.9-3-0.5c-0.7,0.4-1.1,1.1-1.1,2.2c0,0.6-0.4,1.1-1.1,1c-0.6,0-1.1-0.5-1-1.1c0.1-1.9,0.9-3.4,2.3-4.1
		c1.5-0.8,3.4-0.5,5.2,0.7c1,0.7,1.6,1.7,1.8,2.9c0.3,2-0.8,4.1-1.7,5.2C99.8,123,99.5,123.2,99.2,123.2z"/>
	<path d="M110.7,123.5c-0.2,0-0.5-0.1-0.7-0.3c-0.4-0.4-0.5-1.1-0.1-1.5c0.9-1,1.4-2.5,1.2-3.5c-0.1-0.6-0.4-1.1-0.8-1.4
		c-1.1-0.7-2.2-0.9-3-0.5c-0.7,0.4-1.1,1.2-1.1,2.2c0,0.6-0.4,1-1.1,1c-0.6,0-1.1-0.5-1-1.1c0.1-1.9,0.9-3.4,2.3-4.1
		c1.5-0.8,3.4-0.5,5.2,0.7c1,0.7,1.6,1.7,1.8,2.9c0.3,2-0.8,4.1-1.7,5.2C111.3,123.4,111,123.5,110.7,123.5z"/>
	<path d="M122.2,123.9c-0.2,0-0.5-0.1-0.7-0.3c-0.4-0.4-0.5-1.1-0.1-1.5c0.9-1,1.4-2.4,1.2-3.5c-0.1-0.6-0.4-1.1-0.8-1.4
		c-1.1-0.7-2.2-0.9-3-0.5c-0.7,0.4-1.1,1.2-1.1,2.2c0,0.6-0.5,1-1.1,1c0,0,0,0,0,0c-0.6,0-1.1-0.5-1-1.1c0.1-1.9,0.9-3.4,2.3-4.1
		c1.5-0.8,3.4-0.5,5.2,0.7c1,0.7,1.6,1.7,1.8,2.9c0.3,2-0.8,4.1-1.7,5.2C122.8,123.8,122.5,123.9,122.2,123.9z"/>
	<path d="M133.6,124.3c-0.2,0-0.5-0.1-0.7-0.3c-0.4-0.4-0.5-1.1-0.1-1.5c0.9-1,1.4-2.5,1.2-3.5c-0.1-0.6-0.4-1.1-0.8-1.4
		c-1.1-0.7-2.2-0.9-3-0.5c-0.7,0.4-1.1,1.1-1.1,2.2c0,0.6-0.5,1-1.1,1c0,0,0,0,0,0c-0.6,0-1.1-0.5-1-1.1c0.1-1.9,0.9-3.4,2.3-4.1
		c1.5-0.8,3.4-0.5,5.2,0.7c1,0.7,1.6,1.7,1.8,2.9c0.3,2-0.8,4.1-1.7,5.2C134.2,124.2,133.9,124.3,133.6,124.3z"/>
	<path d="M145.1,124.7c-0.2,0-0.5-0.1-0.7-0.3c-0.4-0.4-0.5-1.1-0.1-1.5c0.9-1,1.4-2.4,1.2-3.5c-0.1-0.6-0.4-1.1-0.8-1.4
		c-1.1-0.7-2.2-0.9-3-0.5c-0.7,0.4-1.1,1.1-1.1,2.2c0,0.6-0.5,1-1.1,1c0,0,0,0,0,0c-0.6,0-1.1-0.5-1-1.1c0.1-1.9,0.9-3.4,2.3-4.1
		c1.5-0.8,3.4-0.5,5.2,0.7c1,0.7,1.6,1.7,1.8,2.9c0.3,2-0.8,4.1-1.7,5.2C145.7,124.6,145.4,124.7,145.1,124.7z"/>
	<path d="M156.6,125.1c-0.2,0-0.5-0.1-0.7-0.3c-0.4-0.4-0.5-1.1-0.1-1.5c0.9-1,1.4-2.4,1.2-3.5c-0.1-0.6-0.4-1.1-0.8-1.4
		c-1.1-0.7-2.2-0.9-3-0.5c-0.7,0.4-1.1,1.2-1.1,2.2c0,0.6-0.5,1-1.1,1c0,0,0,0,0,0c-0.6,0-1.1-0.5-1-1.1c0.1-1.9,0.9-3.4,2.3-4.1
		c1.5-0.8,3.4-0.5,5.2,0.7c1,0.7,1.6,1.7,1.8,2.9c0.3,2-0.8,4.1-1.7,5.2C157.2,125,156.9,125.1,156.6,125.1z"/>
	<g>
		<circle style="fill:#FF7D6E;" cx="115.9" cy="143.6" r="3.7"/>
		<path style="fill:#231814;" d="M115.9,148.3c-0.2,0-0.3,0-0.5,0c-2.6-0.3-4.5-2.6-4.2-5.2c0.1-1.3,0.7-2.4,1.7-3.2
			c1-0.8,2.2-1.2,3.5-1c1.3,0.1,2.4,0.7,3.2,1.7c0.8,1,1.2,2.2,1,3.5l0,0C120.4,146.5,118.3,148.3,115.9,148.3z M115.9,140.9
			c-0.6,0-1.2,0.2-1.7,0.6c-0.6,0.5-0.9,1.1-1,1.8c-0.2,1.5,0.9,2.8,2.4,2.9c1.5,0.1,2.8-0.9,2.9-2.4l0,0c0.1-0.7-0.1-1.4-0.6-2
			c-0.5-0.6-1.1-0.9-1.8-1C116.1,140.9,116,140.9,115.9,140.9z"/>
	</g>
	<g>
		<circle style="fill:#FF7D6E;" cx="125.4" cy="134" r="3.7"/>
		<path style="fill:#231814;" d="M125.4,138.7c-1.1,0-2.1-0.4-2.9-1c-1-0.8-1.6-1.9-1.8-3.2c-0.1-1.3,0.2-2.5,1-3.5
			c0.8-1,1.9-1.6,3.2-1.8c2.6-0.3,4.9,1.6,5.2,4.2v0c0.3,2.6-1.6,4.9-4.2,5.2C125.8,138.7,125.6,138.7,125.4,138.7z M125.4,131.3
			c-0.1,0-0.2,0-0.3,0c-0.7,0.1-1.3,0.4-1.8,1c-0.4,0.6-0.6,1.3-0.6,2c0.1,0.7,0.4,1.4,1,1.8c0.6,0.4,1.3,0.6,2,0.6
			c1.5-0.2,2.5-1.5,2.4-3l0,0C127.9,132.3,126.8,131.3,125.4,131.3z"/>
	</g>
	<g>
		<circle style="fill:#FF7D6E;" cx="137.7" cy="133.6" r="3.7"/>
		<path style="fill:#231814;" d="M137.7,138.4c-1.1,0-2.1-0.4-2.9-1c-1-0.8-1.6-1.9-1.8-3.2c-0.1-1.3,0.2-2.5,1-3.5
			c0.8-1,1.9-1.6,3.2-1.8c1.2-0.1,2.5,0.2,3.5,1c1,0.8,1.6,1.9,1.8,3.2l0,0c0.1,1.3-0.2,2.5-1,3.5s-1.9,1.6-3.2,1.8
			C138,138.4,137.9,138.4,137.7,138.4z M137.7,131c-0.1,0-0.2,0-0.3,0c-0.7,0.1-1.3,0.4-1.8,1c-0.4,0.6-0.6,1.3-0.6,2
			c0.1,0.7,0.4,1.3,1,1.8c0.6,0.4,1.3,0.7,2,0.6c0.7-0.1,1.3-0.4,1.8-1c0.4-0.6,0.6-1.3,0.6-2v0c-0.1-0.7-0.4-1.3-1-1.8
			C138.9,131.2,138.3,131,137.7,131z"/>
	</g>
	<g>
		<path style="fill:#FF7D6E;" d="M140.4,153.6c-1.3,4.9-5.8,4-10.7,2.8c-4.9-1.3-8.2-2.5-6.9-7.4c1.3-4.9,6.2-7.8,11.1-6.5
			C138.8,143.7,141.7,148.7,140.4,153.6z"/>
		<path style="fill:#231814;" d="M135.4,158.4c-1.9,0-4-0.5-5.9-1c-4.1-1.1-9.3-2.4-7.7-8.6c1.4-5.4,7-8.6,12.4-7.2
			c5.4,1.4,8.6,7,7.2,12.4c-0.7,2.6-2.3,4.1-4.9,4.4C136.2,158.3,135.8,158.4,135.4,158.4z M131.6,143.2c-3.6,0-6.9,2.4-7.8,6
			c-0.9,3.6,0.7,4.7,6.2,6.1c5.5,1.4,8.5,1.5,9.4-2c1.1-4.3-1.5-8.7-5.8-9.8C133,143.3,132.3,143.2,131.6,143.2z"/>
	</g>
	<g>
		<circle style="fill:#FF7D6E;" cx="145.6" cy="141.4" r="3.7"/>
		<path style="fill:#231814;" d="M145.6,146.1c-2.4,0-4.4-1.8-4.7-4.2c-0.3-2.6,1.6-5,4.2-5.2c2.6-0.3,5,1.6,5.2,4.2
			c0.3,2.6-1.6,4.9-4.2,5.2C146,146.1,145.8,146.1,145.6,146.1z M145.6,138.7c-0.1,0-0.2,0-0.3,0c-1.5,0.2-2.5,1.5-2.4,3
			c0.2,1.5,1.5,2.5,3,2.4c1.5-0.2,2.5-1.5,2.4-3v0c-0.1-0.7-0.4-1.3-1-1.8C146.8,138.9,146.2,138.7,145.6,138.7z"/>
	</g>
</g>
<g>
	<g>
		<path style="fill:#757575;" d="M63.5,154.3c1.3,2.6,3.8,4.5,8,6.2c8.1,3.2,17.7,2.8,25.5-1.1c4-2,7.3-4.7,9.4-7.8
			c1.1-1.7,2.5-4.3,2.2-7.2c-0.2-2.5-1.2-4.4-3-5.6c-4.1-2.8-10.6-1.2-12.5-0.7c-1,0.3-2.1,0.8-3,1.2l-0.8,0.4
			c-0.4,0.2-0.9,0.5-1.5,0.8c-2.3,1.3-5.3,3-7.2,2c-2.1-1.1-1.7-4.2-1.5-6.5c0.1-0.5,0.1-0.9,0.1-1.3c0.2-2.8,0.4-7.6-1.6-9.9
			c-0.8-0.9-1.9-1.4-3.3-1.4c-1.9-0.1-4,0.7-5.8,2.3c-3.3,2.8-4.8,6.8-5.4,9.7c-0.8,3.6-0.9,7.3-0.9,11.5
			C62.1,150.2,62.5,152.5,63.5,154.3L63.5,154.3z"/>
		<path d="M83,163.5c-4,0-8.1-0.7-11.8-2.2c-4.4-1.7-7-3.7-8.5-6.6h0c-1-2-1.5-4.4-1.5-7.6c0-4.2,0-8,0.9-11.7
			c0.7-3,2.2-7.3,5.7-10.2c2-1.7,4.4-2.6,6.5-2.5c1.6,0.1,2.9,0.7,3.9,1.7c2.3,2.6,2,7.6,1.9,10.6c0,0.4-0.1,0.8-0.1,1.3
			c-0.2,2.1-0.6,4.8,1,5.7c1.5,0.8,4.4-0.9,6.4-2c0.6-0.3,1.2-0.7,1.6-0.9l0.8-0.4c1-0.5,2.1-1,3.2-1.3c2-0.6,8.9-2.2,13.3,0.8
			c2,1.4,3.1,3.4,3.4,6.2c0.3,3.1-1.1,5.9-2.3,7.7c-2.2,3.3-5.5,6-9.7,8.1C93,162.4,88,163.5,83,163.5z M64.3,153.9
			c1.2,2.4,3.6,4.2,7.5,5.7c7.9,3.1,17.2,2.7,24.8-1.1c3.9-1.9,7-4.5,9-7.5c1.1-1.6,2.3-4,2-6.6c-0.2-2.2-1.1-3.9-2.6-4.9
			c-3.8-2.6-10-1.1-11.8-0.5c-1,0.3-1.9,0.7-2.9,1.2l-0.9,0.4c-0.4,0.2-0.9,0.5-1.5,0.8c-2.4,1.4-5.8,3.2-8.1,2
			c-2.7-1.4-2.2-5-1.9-7.4c0.1-0.5,0.1-0.9,0.1-1.2c0.2-2.7,0.4-7.2-1.4-9.3c-0.6-0.7-1.5-1.1-2.6-1.1c-1.7-0.1-3.5,0.6-5.2,2.1
			c-3.1,2.6-4.5,6.5-5.2,9.3C63,139.3,63,143,63,147.1C63,150,63.4,152.2,64.3,153.9L64.3,153.9z"/>
	</g>
	<g>
		<path style="fill:#424242;" d="M93,161c-10.5-3.9-9.2-18.8-9.1-18.5c0,0-3,1.7-4.5-1c-1.2-2.2-0.3-7.1-0.3-9.6
			c0-1.4-0.2-2.8-0.6-4.2c-1.2-4-4.3-5.1-8.1-3.4c0,0-6.3,2.8-7.9,12.6c0,0-1.7,10.8,0.7,16.9c0,0,1.4,5.8,13.3,8
			c0,0,8.7,1.7,15.2-0.5L93,161z"/>
		<path d="M83.7,163.5c-3.9,0-7-0.6-7.3-0.6c-12.4-2.3-13.9-8.4-14-8.7c-2.4-6.2-0.7-16.8-0.7-17.2c1.7-10.2,8.2-13.2,8.4-13.3
			c2.1-1,4.2-1.1,5.8-0.4c1.6,0.7,2.8,2.2,3.4,4.3c0.4,1.5,0.6,3,0.6,4.4c0,0.6-0.1,1.4-0.2,2.2c-0.2,2.3-0.5,5.5,0.3,6.9
			c0.9,1.7,2.6,1,3.2,0.7c0.1-0.1,0.2-0.1,0.3-0.2c0.4-0.1,0.8,0.1,1,0.4c0.1,0.2,0.2,0.5,0.1,0.7c0,0,0,0.1,0,0.1
			c-0.1,1-0.8,13.8,8.5,17.3c0.4,0.1,0.6,0.5,0.6,0.9c0,0.4-0.3,0.7-0.6,0.8l-1.2,0.4C89.4,163.2,86.4,163.5,83.7,163.5z
			 M73.7,124.5c-0.8,0-1.8,0.2-2.8,0.7c-0.2,0.1-5.9,2.8-7.4,12c0,0.1-1.6,10.6,0.6,16.4c0,0.2,1.5,5.4,12.6,7.5
			c0.1,0,7.8,1.5,13.8-0.2c-6.3-3.8-7.8-12-7.7-17c-0.2,0-0.4,0.1-0.6,0.1c-1.6,0.2-2.9-0.6-3.7-2c-1.1-1.9-0.8-5.2-0.5-7.9
			c0.1-0.8,0.1-1.5,0.2-2.1c0-1.2-0.1-2.6-0.5-3.9c-0.5-1.6-1.3-2.7-2.5-3.2C74.8,124.7,74.3,124.5,73.7,124.5z"/>
	</g>
	<g>
		<path style="fill:#FFFFFF;" d="M83.9,142.5l2.8-1.3c0,0,2.2,16.7,11.4,17.6L93,161c0,0-6.8-3.2-8.6-11.3
			C84.4,149.8,83.4,144.4,83.9,142.5z"/>
		<path d="M93,161.9c-0.1,0-0.3,0-0.4-0.1c-0.3-0.1-7.2-3.5-9.1-11.9c-0.1-0.6-1-5.7-0.4-7.7c0.1-0.2,0.2-0.5,0.5-0.6l2.8-1.3
			c0.3-0.1,0.6-0.1,0.8,0c0.2,0.1,0.4,0.4,0.5,0.7c0,0.2,2.3,16,10.6,16.8c0.4,0,0.7,0.3,0.8,0.8c0.1,0.4-0.2,0.8-0.5,1l-5.1,2.2
			C93.2,161.9,93.1,161.9,93,161.9z M84.7,143.2c-0.2,1.4,0.2,4.6,0.6,6.5c1.4,6.4,6.4,9.7,7.8,10.4l2.3-1c-6.4-2.8-8.7-13-9.4-16.5
			L84.7,143.2z"/>
	</g>
</g>
<g>
	<path style="fill:#757575;" d="M155.6,131.1c-3.9,2.3-6.7,7.4-3.5,12.6c2.2,3.6,7.9,5.6,11.5,2.9c1.8-1.4,2.1-3.9,2.1-6.2
		c0.1-1.9,0.1-3.9-0.4-5.7C164,129.3,159.3,128.9,155.6,131.1z"/>
	<path d="M159.7,148.8c-0.6,0-1.1-0.1-1.7-0.2c-2.7-0.5-5.2-2.2-6.6-4.4c-1.4-2.3-1.9-4.9-1.3-7.3c0.7-2.6,2.6-5.1,5.1-6.6
		c2.4-1.4,5-1.7,7.1-0.9c1.4,0.6,3.2,1.9,4,5.1c0.5,2,0.5,4.1,0.4,6c-0.1,1.8-0.2,5.2-2.5,6.9C162.9,148.3,161.4,148.8,159.7,148.8z
		 M159.8,130.7c-1.2,0-2.5,0.4-3.7,1.1l0,0c-2.1,1.2-3.7,3.3-4.2,5.5c-0.5,2-0.1,4,1,5.9c1.1,1.8,3.2,3.2,5.4,3.6
		c1.8,0.3,3.5,0,4.8-0.9c1.5-1.1,1.7-3.4,1.8-5.5c0.1-1.8,0.1-3.7-0.3-5.4c-0.5-2-1.5-3.3-2.9-3.9
		C161.1,130.8,160.5,130.7,159.8,130.7z"/>
</g>
</svg>
