<svg xmlns="http://www.w3.org/2000/svg" viewBox="0 0 220 280"><defs><style>.cls-1,.cls-8{fill:#fff;}.cls-2,.cls-3{fill:#0088c5;}.cls-3,.cls-4,.cls-8,.cls-9{fill-rule:evenodd;}.cls-4,.cls-6{fill:#009ff9;}.cls-5{fill:#683100;}.cls-7{fill:#009ff8;}.cls-9{fill:#ffbeb8;}.cls-10{fill:#d24848;}.cls-11{fill:#0085ce;}</style></defs><g id="레이어_2" data-name="레이어 2"><path class="cls-1" d="M148.48,87.76c-2.85,5.63-6.83,10.23-11,15.23-1.85,2.2-8.73,10.11-2.8,12,2.15.7,4.91-1.23,6.68-2.24a45.83,45.83,0,0,0,10.33-8.1,52,52,0,0,0,8.38-11.84A37.56,37.56,0,0,1,148.48,87.76Z"/><path class="cls-2" d="M152.9,66.18c0,.07,0,.15,0,.23a47,47,0,0,1-.06,6,39.34,39.34,0,0,1-1.44,7.93c-.38,1.3-.83,2.62-1.35,4a38,38,0,0,1-1.58,3.48,37.56,37.56,0,0,0,11.57,5.09,60.31,60.31,0,0,0,2.9-6.4c2.4-6.22,4.71-13.54,4.33-20.36A9.47,9.47,0,0,0,162,58a10.27,10.27,0,0,0-2-.69c-2.29-.54-4.81-.15-6.25,1.66a4.31,4.31,0,0,0-.64,1.14C152.35,62,152.81,64.19,152.9,66.18Z"/><path d="M133.74,114.62c-4.21-2.44,2-9.56,3.72-11.63,4.19-5,8.17-9.6,11-15.23a38,38,0,0,0,1.58-3.48c.52-1.36,1-2.68,1.35-4a39.34,39.34,0,0,0,1.44-7.93,47,47,0,0,0,.06-6,1.85,1.85,0,0,1,0-.23c-.09-2-.55-4.2.18-6.05a4.31,4.31,0,0,1,.64-1.14c1.44-1.81,4-2.2,6.25-1.67a11.05,11.05,0,0,1,2,.7l.7.37a9.53,9.53,0,0,1,4.62,7.7c.38,6.82-1.93,14.14-4.33,20.36a59.26,59.26,0,0,1-2.9,6.39,52,52,0,0,1-8.38,11.85,45.83,45.83,0,0,1-10.33,8.1c-1.77,1-4.53,2.94-6.68,2.24a4.62,4.62,0,0,1-.92-.41m-1.7,3a8.4,8.4,0,0,0,1.58.7c3.33,1.08,6.57-.85,8.72-2.13l.67-.39a48.75,48.75,0,0,0,11.1-8.7,55.62,55.62,0,0,0,8.94-12.62,65.29,65.29,0,0,0,3.06-6.75c2.35-6.1,5-14.09,4.56-21.8a13,13,0,0,0-6.32-10.48c-.31-.18-.64-.35-1-.51a14.07,14.07,0,0,0-2.64-.92c-3.85-.9-7.55.19-9.66,2.85a7.7,7.7,0,0,0-1.15,2,13.42,13.42,0,0,0-.52,6.21c0,.43.08.85.1,1.27v.26a42,42,0,0,1-.06,5.51,34.55,34.55,0,0,1-1.31,7.23c-.34,1.2-.75,2.41-1.25,3.7-.37,1-.83,2-1.44,3.17-2.51,5-6.1,9.23-9.9,13.75l-.69.82-.16.19c-3.22,3.82-6.41,8.27-5.71,12.32a6.14,6.14,0,0,0,3,4.31Z"/><path d="M116.21,171.28a4.09,4.09,0,0,1,4.09,4.09v49.45s1.88-2.31,6.84-2.31a19.61,19.61,0,0,1,3.72.38l.29.07a18,18,0,0,1,12.1,9.33c1.3,2.56,1.87,7.26-.18,9.61-2.26,2.58-5.58,2.9-8.82,2.9-1.05,0-2.1,0-3.1,0H114.58c-2.36,0-6.11-1.92-6.11-4.29V205.83h0V175.37c0-2.26,5.49-4.09,7.74-4.09m0-3.39c-2.36,0-11.13,1.87-11.13,7.48v65.11c0,4.69,5.64,7.68,9.51,7.68h16.57l1.45,0h1.65c3.87,0,8.25-.48,11.38-4.06s2.33-10.06.64-13.37a21.4,21.4,0,0,0-14.4-11.12l-.29-.06a22.46,22.46,0,0,0-4.44-.47,16.82,16.82,0,0,0-3.45.35V175.37a7.49,7.49,0,0,0-7.48-7.48Z"/><path class="cls-1" d="M120.31,175.36v30.48H108.46V175.36c0-2.24,5.48-4.08,7.75-4.08A4.1,4.1,0,0,1,120.31,175.36Z"/><path class="cls-3" d="M143.07,241.89c-3,3.45-7.89,2.89-11.93,2.89H114.6c-2.38,0-6.14-1.93-6.14-4.3V205.84h11.85v19s2.8-3.42,10.54-1.92a2.35,2.35,0,0,1,.29.06,17.9,17.9,0,0,1,12.1,9.36C144.54,234.85,145.11,239.54,143.07,241.89Z"/><path class="cls-1" d="M98.79,179.94v30.45H87V179.94c0-2.27,5.48-4.08,7.75-4.08A4.08,4.08,0,0,1,98.79,179.94Z"/><path class="cls-4" d="M121.58,246.47c-3,3.42-7.89,2.86-11.93,2.86H93.08c-2.35,0-6.11-1.9-6.11-4.27V210.39H98.79v19s2.8-3.45,10.57-1.92a2.35,2.35,0,0,1,.29.06,18,18,0,0,1,12.1,9.33C123.05,239.43,123.62,244.13,121.58,246.47Z"/><path d="M94.71,175.86a4.08,4.08,0,0,1,4.08,4.08V229.4s1.89-2.32,6.85-2.32a18.91,18.91,0,0,1,3.72.39l.29.06a18,18,0,0,1,12.1,9.34c1.3,2.56,1.87,7.25-.18,9.6-2.26,2.59-5.58,2.91-8.81,2.91-1.06,0-2.11,0-3.11,0H93.08c-2.36,0-6.11-1.92-6.11-4.28V210.4h0V179.94c0-2.25,5.49-4.08,7.74-4.08m0-3.39c-2.36,0-11.14,1.87-11.14,7.47v65.11c0,4.69,5.64,7.68,9.51,7.68h16.57l1.45,0,1.66,0c3.86,0,8.24-.48,11.37-4.07s2.33-10.06.64-13.37a21.39,21.39,0,0,0-14.4-11.11l-.24-.06a23.33,23.33,0,0,0-4.49-.47,16.86,16.86,0,0,0-3.45.34V179.94a7.49,7.49,0,0,0-7.48-7.47Z"/><path class="cls-1" d="M76.5,38.24c5.64,6,5.24,17-1.82,22.1-1.64,1.19-5.17.24-7-1.3-2.15-1.82,1-1.64-.5-4.59s-5.69-4.77-12.1-3.89a9.14,9.14,0,0,1-10.44-8,9.76,9.76,0,0,1,8.22-10.72c5.16-.76,10.54-1.28,15.44.8A24.7,24.7,0,0,1,76.5,38.24Z"/><path class="cls-5" d="M60.15,46.52a3.63,3.63,0,0,0-1.74-1.23,3.73,3.73,0,0,0,2.79-.73,3.85,3.85,0,0,0,.88-5.31,3.63,3.63,0,0,0-2.28-1.39,3.83,3.83,0,0,0,2.5-.72c1.7-1.26,1.57-3.91.35-5.58a11.47,11.47,0,0,0-.94-.7,27.66,27.66,0,0,0-8.83.95,9.76,9.76,0,0,0-8.22,10.72,9.15,9.15,0,0,0,10.45,8c1.51-.21,4.48-.64,5.42-.79,1.32-.21.45-2.12-.38-3.25"/><path d="M72.74,62.66a10.08,10.08,0,0,1-6-2.21C65,58.92,65.38,57.62,66,56.67c.23-.4.32-.54,0-1.28-1.29-2.58-5.43-3.78-10.55-3.08A10.66,10.66,0,0,1,43.21,43a11.29,11.29,0,0,1,9.5-12.37c5.06-.75,10.9-1.37,16.24.9a25.92,25.92,0,0,1,8.69,6h0a16.87,16.87,0,0,1,4.21,13,15.76,15.76,0,0,1-6.24,11.34A4.83,4.83,0,0,1,72.74,62.66Zm-4.13-4.59.1.09C70.27,59.49,73,60,73.84,59.4a12.62,12.62,0,0,0,5-9.19,13.85,13.85,0,0,0-3.42-10.68h0a23.14,23.14,0,0,0-7.67-5.27c-4.62-2-9.76-1.42-14.63-.69a8.27,8.27,0,0,0-7,9.06,7.65,7.65,0,0,0,8.75,6.71c6.52-.9,11.74.91,13.64,4.7A3.88,3.88,0,0,1,68.61,58.07Z"/><path class="cls-1" d="M97.79,33.47c-1.93,7.73,3.74,17,12.3,18.29,2,.29,4.55-2.11,5.37-4.26,1-2.54-1.64-1-1.8-4.2s2.57-6.67,8.51-8.79a8.62,8.62,0,0,0,5.09-11.63A10,10,0,0,0,115,17.31c-4.8,1.65-9.68,3.62-12.88,7.62A22.88,22.88,0,0,0,97.79,33.47Z"/><path class="cls-5" d="M115.87,33.28a3.37,3.37,0,0,1,.9-1.84,3.7,3.7,0,0,1-2.75.63,3.92,3.92,0,0,1-3.33-4.2A3.4,3.4,0,0,1,112,25.64a3.64,3.64,0,0,1-2.49.5c-2.07-.33-3.25-2.68-3-4.67a9.4,9.4,0,0,1,.47-1,26.2,26.2,0,0,1,8-3.13,10,10,0,0,1,12.28,5.57,8.62,8.62,0,0,1-5.09,11.63c-1.41.5-4.17,1.46-5,1.75-1.24.42-1.41-1.62-1.25-3"/><path d="M110.51,53.54a4.91,4.91,0,0,1-.55,0,16.25,16.25,0,0,1-11-7.18,16.4,16.4,0,0,1-2.56-13h0a24.31,24.31,0,0,1,4.6-9.11c3.5-4.37,8.84-6.47,13.57-8.1a11.53,11.53,0,0,1,14.14,6.41,10.18,10.18,0,0,1,0,8.17,10.06,10.06,0,0,1-6,5.46c-4.7,1.67-7.65,4.54-7.51,7.3,0,.8.19.89.59,1.14,1,.57,1.93,1.5,1.11,3.66C116.07,50.6,113.28,53.54,110.51,53.54ZM99.33,34.08a13.58,13.58,0,0,0,2.14,10.57,13.25,13.25,0,0,0,8.92,5.88c1,.15,3.07-1.49,3.75-3.31l0-.1a3.85,3.85,0,0,1-1.93-3.49c-.21-4.18,3.43-8.12,9.51-10.28A7.14,7.14,0,0,0,126,29.51a7.22,7.22,0,0,0,0-5.8A8.5,8.5,0,0,0,115.56,19c-4.52,1.55-9.2,3.39-12.2,7.14a21.59,21.59,0,0,0-4,8Z"/><path d="M95.71,41.41c10.5-1.57,22,1.16,31.57,5.85,8.16,4,14.53,12.48,18.4,20.68.23.5.42,1,.64,1.49.43.84.84,1.67,1.21,2.51,4.5,10,4,19.36,2.69,30.16-.29,2.34-3.12,14-3.12,14.54-.4,6.23,3.74,13.15,5.45,19,3.17,10.83,5.14,22.22,2.12,33.35-4.11,15.17-17.75,22.39-31.88,25.51-1.39.31-2.8.57-4.21.78l-.92.13-.2,0-3.5.47c-1.72.23-3.52.41-5.25.49-11.91.61-25.52-2.1-34.29-11-6.35-6.4-10.1-18-10.8-27-.55-7,.56-14,.86-21,.11-2.73.71-5.48.12-8.16-.13-.56-.29-1.11-.45-1.66-.6-1.16-5.13-9.86-6.44-13.25a58.54,58.54,0,0,1-5.42-24.57c0-9.1,2.09-19.56,7.71-26.78,7.23-9.28,17.59-17.49,28.87-20.09l.21-.06L92.7,42c1-.23,2-.43,3-.58M95.22,38c-1.12.16-2.22.38-3.29.63l-3.61.84-.27.07c-10.92,2.52-22.13,10.29-30.7,21.29-5.41,6.94-8.49,17.49-8.45,28.95a62,62,0,0,0,5.69,25.94c1.12,2.83,4.08,8.71,6.4,13.19.12.39.22.74.3,1.1a16,16,0,0,1,0,4.69c-.08.85-.16,1.71-.2,2.56-.09,2.24-.28,4.55-.46,6.79a92.32,92.32,0,0,0-.39,14.64c.74,9.36,4.67,22,11.8,29.2,8.3,8.38,21.73,12.74,36.85,12,1.77-.09,3.68-.27,5.53-.52l3.5-.47.19,0,1-.14c1.49-.23,3-.5,4.43-.82,18.69-4.13,30.59-13.8,34.43-28,3.49-12.89.69-25.62-2.14-35.27-.6-2-1.44-4.12-2.26-6.16-1.59-4-3.24-8.06-3.06-11.49.11-.6.6-2.73,1-4.62,1.11-4.86,1.9-8.4,2.08-9.82,1.31-10.5,2.06-20.85-3-32.05-.38-.85-.79-1.7-1.22-2.55l-.2-.47c-.14-.34-.29-.68-.45-1-4.87-10.33-12.16-18.46-20-22.3C117.5,38.61,105.59,36.43,95.22,38Z"/><path class="cls-6" d="M150.22,102.1c1.35-10.8,1.81-20.16-2.69-30.16-.37-.84-.78-1.68-1.21-2.51-.22-.5-.41-1-.64-1.49-3.87-8.2-10.24-16.68-18.4-20.68C116.81,42.11,104,39.33,92.7,42l-3.62.84-.21.06C77.59,45.49,67.23,53.7,60,63c-5.62,7.22-7.74,17.68-7.71,26.78a58.54,58.54,0,0,0,5.42,24.57c1.31,3.39,5.84,12.09,6.44,13.25.16.55.32,1.1.45,1.66.59,2.68,0,5.43-.13,8.16-.29,7-1.4,14-.85,21,.7,9,4.45,20.61,10.8,27,8.77,8.86,22.38,11.57,34.29,11,1.73-.09,3.53-.26,5.25-.49l3.5-.47.2,0q2.58-.34,5.13-.91c14.13-3.12,27.77-10.34,31.88-25.51,3-11.13,1.05-22.52-2.13-33.35-1.7-5.83-5.84-12.75-5.44-19C147.1,116.1,149.93,104.44,150.22,102.1Z"/><path class="cls-7" d="M92.7,42l-.2,0Z"/><path class="cls-8" d="M158,102.15c-4.52,8.4-15.08,15.41-28.25,18.79C97.13,129.35,78.28,122.4,72,99.7c-.9-3.21-4.89-19.87,2.78-33.32a31.06,31.06,0,0,1,9.43-10.12,43.49,43.49,0,0,1,14.34-6.2c1.68-.41,3.29-.76,4.85-1,34.2-6.11,41.61,20.23,41.9,21.41a1.7,1.7,0,0,0,1.51,1.25c.35,0,9.15,1,12.54,11.68C161.54,90.15,161.08,96.47,158,102.15Z"/><path d="M162.63,82.28C159.25,71.66,151.3,69,148.3,68.43c-1.84-5.5-11.83-28.82-45.37-22.83-1.64.29-3.36.66-5.15,1.09-12.08,3-20.8,9.08-25.87,18-8.16,14.26-4.47,31.15-3.15,36,6.16,22.46,23.28,31,52.13,25.82,3.09-.55,6.33-1.28,9.71-2.14,14.27-3.67,25.33-11.12,30.38-20.46C164.53,97.29,165.08,90.05,162.63,82.28ZM72,99.7c-.9-3.21-4.89-19.87,2.78-33.32a31.06,31.06,0,0,1,9.43-10.12,43.49,43.49,0,0,1,14.34-6.2c1.68-.41,3.29-.76,4.85-1,34.2-6.11,41.61,20.23,41.9,21.41a1.7,1.7,0,0,0,1.51,1.25c.35,0,9.15,1,12.54,11.68,2.15,6.79,1.69,13.11-1.38,18.79-4.52,8.4-15.08,15.41-28.25,18.79C97.13,129.35,78.28,122.4,72,99.7Z"/><path class="cls-9" d="M121.34,94.11c1.36,6.93-2.76,13.62-9.21,14.94S99.34,105.81,98,98.88s2.76-13.62,9.21-14.94S120,87.18,121.34,94.11"/><path class="cls-9" d="M158.47,81.8c-1-2.27-5.1-9.7-8.39-6.18-4.44,4.75-.39,14.1,3,18.5,1.33,1.73,3.51,3.64,5.94,2.71,1.37-.52,1.42-3.35,1.44-4.33A25,25,0,0,0,158.47,81.8Z"/><path d="M134.51,81.22a2,2,0,0,0,1.84-2A1.93,1.93,0,0,0,134,77.93a1.72,1.72,0,1,0,.55,3.29Z"/><path class="cls-10" d="M141,86.39c-2.34.58-3,1.08-5.32-.19a8.06,8.06,0,0,1-4.89,4.1,20.93,20.93,0,0,1-4.73.75c-2.21.16-2.44,4.28-2.24,5.55l1.13,7.31s2.91,9.58,12.81,3.06c0,0,5.25-2.79,5.58-12.32L143,87.24C142.87,86.27,141.61,86.24,141,86.39Z"/><path class="cls-1" d="M124.51,91.58c-.32,0,.69,1.71.91,1.93a4.66,4.66,0,0,0,3.28,1.17,22.44,22.44,0,0,0,10.52-3.11c1.43-.88,2.51-1.84,2.28-4.26,0,0-4.73.31-6.57-.61A15,15,0,0,1,124.51,91.58Z"/><path d="M130.54,110.32a6.71,6.71,0,0,1-6.34-4c-1.1-2.13-2.13-13-.44-15.82a1.77,1.77,0,0,1,1.52-1v2a.37.37,0,0,0,.24-.08c-1.19,1.19-.61,11.87.46,13.93,1.77,3.41,4.83,3.8,10.58,1.35l.13,0c.24-.07,6.19-1.91,5.74-13.29l-.32-7.82,2-.08.32,7.82c.49,12.51-6.28,15-7.14,15.28A18.15,18.15,0,0,1,130.54,110.32Z"/><path d="M144.16,80.82a1.23,1.23,0,0,0-1.84-.09,1.55,1.55,0,0,0,0,2c.07.08.21.24-.1.91a3.28,3.28,0,0,1-2.44,1.88,3.83,3.83,0,0,1-3.35-1,1.07,1.07,0,0,0-.19-.13,1.15,1.15,0,0,0-.19-.14h0a1,1,0,0,0-.33-.07,1,1,0,0,0-.17,0,1.07,1.07,0,0,0-.3.06,1,1,0,0,0-.18.05,1,1,0,0,0-.21.15,1.06,1.06,0,0,0-.2.17l0,0a1.19,1.19,0,0,0-.12.22.93.93,0,0,0-.11.19c-1.19,3.35-6,5.13-9.6,3.54a5.52,5.52,0,0,1-1.56-1,1.56,1.56,0,0,0-.64-1.58,1.22,1.22,0,0,0-1.77.48,2.48,2.48,0,0,0-.14,1.91c.36,1.07,1.43,2,3.21,2.81a9.91,9.91,0,0,0,6.09.58A9.52,9.52,0,0,0,136,87.61a6.28,6.28,0,0,0,4.26.78l.22,0a5.79,5.79,0,0,0,4-3.3A3.72,3.72,0,0,0,144.16,80.82Z"/><path class="cls-1" d="M83,142.68c-10.73,10.8-29,6.17-30.8,2.62,3.13-6.22,7.07-7.06,6.45-14.72a21.91,21.91,0,0,1,3.53,1.09c11,5.14,9.64-4.25,19.6-3.33C85,128.63,91.11,134.52,83,142.68Z"/><path class="cls-11" d="M38.23,122.86a23.53,23.53,0,0,0,1.33,5.68c2.09,5.78,7.08,15.63,13.39,17.94l.46.14c4.11,1,7.43-2.54,8.92-5.88,2.28-5.13,1.48-8.27-1.74-12.18a10,10,0,0,1-2.44-4c-1.26-5.85-.07-12.24-5.17-16.31,0,0-3.59-4.34-9.13.23A15.7,15.7,0,0,0,38.23,122.86Z"/><path d="M65.74,151.23a28.31,28.31,0,0,1-15.46-4.75c-3.93-2.49-7.14-6.38-10.11-12.24-3.13-6.17-5.27-15.71-1-22.27a13.5,13.5,0,0,1,7.14-5.74,7.78,7.78,0,0,1,9,2.31,11.6,11.6,0,0,1,2.4,6c.1.68.19,1.35.28,2,.59,4.28,1,7.66,3.77,11,1.76,2.2,2.52,2.39,5.7,3.18,2.23.56,4.42-.68,6.75-2s4.53-2.54,7-2.19c1.73-.23,4.87.53,6.46,5h0c1.61,4.49-1.72,10.15-3.38,11.76-4.38,4.23-9.79,7-14.85,7.67A28.58,28.58,0,0,1,65.74,151.23ZM49.36,108.66a5.92,5.92,0,0,0-2,.39,10.47,10.47,0,0,0-5.65,4.55c-3.57,5.5-1.6,13.82,1.16,19.28s5.59,8.88,9,11.07A25,25,0,0,0,69,148c4.36-.56,9.28-3.13,13.15-6.86,1.23-1.19,3.68-5.67,2.64-8.59-1.18-3.27-3.1-3-3.32-3a1.51,1.51,0,0,1-.6,0c-1.47-.28-3.28.74-5.2,1.82-2.62,1.47-5.58,3.14-9,2.29s-4.92-1.23-7.32-4.21c-3.24-4-3.78-8-4.4-12.5-.09-.64-.18-1.3-.27-2A8.59,8.59,0,0,0,53,110.51,4.74,4.74,0,0,0,49.36,108.66Z"/></g><g id="레이어_3" data-name="레이어 3"><path d="M114.93,78.81c-.2.2-.11.63.22,1s.88.61,1.15.44c2.7-1.71,3.35-2.11,6.18-2.63.35-.07.41-.48.13-.92a1.36,1.36,0,0,0-1.16-.69c-3,.56-3.72,1-6.46,2.74Z"/><path d="M139.1,71.48a8.4,8.4,0,0,0-2.59.78,1.06,1.06,0,0,0-.44,1.24c.13.53.55.83.93.67,2-.85,2.38-.77,3.29-.56a10.84,10.84,0,0,0,1.38.27c.4.06.74-.35.76-.9a1,1,0,0,0-.69-1.09,9.48,9.48,0,0,1-1.27-.25A4.08,4.08,0,0,0,139.1,71.48Z"/></g></svg>