<?xml version="1.0" encoding="utf-8"?>
<!-- Generator: Adobe Illustrator 26.5.0, SVG Export Plug-In . SVG Version: 6.00 Build 0)  -->
<svg version="1.1" id="레이어_1" xmlns="http://www.w3.org/2000/svg" xmlns:xlink="http://www.w3.org/1999/xlink" x="0px"
	 y="0px" viewBox="0 0 180 210" style="enable-background:new 0 0 180 210;" xml:space="preserve">
<g>
	<path style="fill:#FFC600;" d="M90,6.5C44,6.5,6.5,44.1,6.5,90.2v29.5c0,46.2,37.5,83.7,83.5,83.7c46,0,83.5-37.5,83.5-83.7V90.2
		C173.5,44.1,136,6.5,90,6.5z"/>
	<path style="fill:#FFE287;" d="M11,63.2l115.2,131.9c0,0,23.7-9.3,38.7-38.3L35.4,27c0,0-14.2,12.4-19.3,24.3
		C16.1,51.3,11.4,60.4,11,63.2z"/>
	<path style="fill:#F28600;" d="M90,175.9c-31.8,0-57.6-25.9-57.6-57.8V91.9C32.4,60,58.2,34.1,90,34.1s57.6,25.9,57.6,57.8v26.3
		C147.6,150,121.8,175.9,90,175.9z M90,47.2c-24.6,0-44.6,20-44.6,44.7v26.3c0,24.6,20,44.7,44.6,44.7s44.6-20,44.6-44.7V91.9
		C134.6,67.2,114.6,47.2,90,47.2z"/>
	<path d="M90,210c-49.6,0-90-40.5-90-90.2V90.2C0,40.5,40.4,0,90,0s90,40.5,90,90.2v29.5C180,169.5,139.6,210,90,210z M90,13.1
		c-42.4,0-77,34.6-77,77.2v29.5c0,42.5,34.5,77.2,77,77.2s77-34.6,77-77.2V90.2C167,47.7,132.4,13.1,90,13.1z"/>
</g>
</svg>
